<?xml version="1.0"?>
<!DOCTYPE lmms-project>
<lmms-project creator="LMMS" type="song" version="1.0" creatorversion="1.2.2">
  <head bpm="162" mastervol="88" masterpitch="0">
    <timesig_numerator value="4" id="1408314" scale_type="linear"/>
    <timesig_denominator value="4" id="2653613" scale_type="linear"/>
  </head>
  <song>
    <trackcontainer y="63" minimized="0" maximized="1" width="600" height="300" x="41" type="song" visible="1">
      <track solo="0" muted="1" type="0" name="Rhythm Guitar">
        <instrumenttrack basenote="57" pitchrange="1" pitch="0" usemasterpitch="1" vol="200" pan="0" fxch="11">
          <instrument name="carlapatchbay">
            <carlapatchbay>
              <CARLA-PROJECT VERSION="2.2">
                <EngineSettings>
                  <ForceStereo>false</ForceStereo>
                  <PreferPluginBridges>false</PreferPluginBridges>
                  <PreferUiBridges>true</PreferUiBridges>
                  <UIsAlwaysOnTop>false</UIsAlwaysOnTop>
                  <MaxParameters>200</MaxParameters>
                  <UIBridgesTimeout>4000</UIBridgesTimeout>
                  <LADSPA_PATH>/home/pass/.ladspa:/usr/lib/ladspa:/usr/local/lib/ladspa</LADSPA_PATH>
                  <DSSI_PATH>/home/pass/.dssi:/usr/lib/dssi:/usr/local/lib/dssi</DSSI_PATH>
                  <LV2_PATH>/home/pass/.lv2:/usr/lib/lv2:/usr/local/lib/lv2</LV2_PATH>
                  <VST2_PATH>/home/pass/.vst:/home/pass/.wine/drive_c/Program Files (x86)/VstPlugins:/home/pass/.wine/drive_c/Program Files/VstPlugins:/home/pass/vst:/usr/lib/lxvst:/usr/lib/vst:/usr/local/lib/lxvst:/usr/local/lib/vst/home/pass/.lxvst</VST2_PATH>
                  <VST3_PATH>/home/pass/.vst3:/home/pass/.wine/drive_c/Program Files (x86)/Common Files/VST3:/home/pass/.wine/drive_c/Program Files/Common Files/VST3:/usr/lib/vst3:/usr/local/lib/vst3</VST3_PATH>
                  <SF2_PATH>/home/pass/.sounds/sf2/home/pass/.sounds/sf3:/usr/share/soundfonts:/usr/share/sounds/sf2:/usr/share/sounds/sf3</SF2_PATH>
                  <SFZ_PATH>/home/pass/.sounds/sfz:/home/pass/samples:/usr/share/sounds/sfz</SFZ_PATH>
                </EngineSettings>
                <!-- sfizz -->
                <Plugin>
                  <Info>
                    <Type>LV2</Type>
                    <Name>sfizz</Name>
                    <URI>http://sfztools.github.io/sfizz</URI>
                  </Info>
                  <Data>
                    <Active>Yes</Active>
                    <ControlChannel>1</ControlChannel>
                    <Options>0x3f0</Options>
                    <Parameter>
                      <Index>0</Index>
                      <Name>Volume</Name>
                      <Symbol>volume</Symbol>
                      <Value>0</Value>
                    </Parameter>
                    <Parameter>
                      <Index>1</Index>
                      <Name>Polyphony</Name>
                      <Symbol>num_voices</Symbol>
                      <Value>64</Value>
                    </Parameter>
                    <Parameter>
                      <Index>2</Index>
                      <Name>Internal oversampling factor</Name>
                      <Symbol>oversampling</Symbol>
                      <Value>1</Value>
                    </Parameter>
                    <Parameter>
                      <Index>3</Index>
                      <Name>Preload size</Name>
                      <Symbol>preload_size</Symbol>
                      <Value>8192</Value>
                    </Parameter>
                    <CustomData>
                      <Type>http://lv2plug.in/ns/ext/atom#Path</Type>
                      <Key>http://sfztools.github.io/sfizz:sfzfile</Key>
                      <Value>/home/pass/samples/fakeguitar/_fakeguitar1_integrated.sfz</Value>
                    </CustomData>
                    <CustomData>
                      <Type>http://lv2plug.in/ns/ext/atom#Int</Type>
                      <Key>http://sfztools.github.io/sfizz:numvoices</Key>
                      <Value>QAAAAA==</Value>
                    </CustomData>
                    <CustomData>
                      <Type>http://lv2plug.in/ns/ext/atom#Int</Type>
                      <Key>http://sfztools.github.io/sfizz:preload_size</Key>
                      <Value>ACAAAA==</Value>
                    </CustomData>
                    <CustomData>
                      <Type>http://lv2plug.in/ns/ext/atom#Int</Type>
                      <Key>http://sfztools.github.io/sfizz:oversampling</Key>
                      <Value>AQAAAA==</Value>
                    </CustomData>
                  </Data>
                </Plugin>
                <!-- sfizz -->
                <Plugin>
                  <Info>
                    <Type>LV2</Type>
                    <Name>sfizz (2)</Name>
                    <URI>http://sfztools.github.io/sfizz</URI>
                  </Info>
                  <Data>
                    <Active>Yes</Active>
                    <ControlChannel>1</ControlChannel>
                    <Options>0x3f0</Options>
                    <Parameter>
                      <Index>0</Index>
                      <Name>Volume</Name>
                      <Symbol>volume</Symbol>
                      <Value>0</Value>
                    </Parameter>
                    <Parameter>
                      <Index>1</Index>
                      <Name>Polyphony</Name>
                      <Symbol>num_voices</Symbol>
                      <Value>64</Value>
                    </Parameter>
                    <Parameter>
                      <Index>2</Index>
                      <Name>Internal oversampling factor</Name>
                      <Symbol>oversampling</Symbol>
                      <Value>1</Value>
                    </Parameter>
                    <Parameter>
                      <Index>3</Index>
                      <Name>Preload size</Name>
                      <Symbol>preload_size</Symbol>
                      <Value>8192</Value>
                    </Parameter>
                    <CustomData>
                      <Type>http://lv2plug.in/ns/ext/atom#Path</Type>
                      <Key>http://sfztools.github.io/sfizz:sfzfile</Key>
                      <Value>/home/pass/samples/fakeguitar/_fakeguitar2_integrated.sfz</Value>
                    </CustomData>
                    <CustomData>
                      <Type>http://lv2plug.in/ns/ext/atom#Int</Type>
                      <Key>http://sfztools.github.io/sfizz:numvoices</Key>
                      <Value>QAAAAA==</Value>
                    </CustomData>
                    <CustomData>
                      <Type>http://lv2plug.in/ns/ext/atom#Int</Type>
                      <Key>http://sfztools.github.io/sfizz:preload_size</Key>
                      <Value>ACAAAA==</Value>
                    </CustomData>
                    <CustomData>
                      <Type>http://lv2plug.in/ns/ext/atom#Int</Type>
                      <Key>http://sfztools.github.io/sfizz:oversampling</Key>
                      <Value>AQAAAA==</Value>
                    </CustomData>
                  </Data>
                </Plugin>
                <Patchbay>
                  <Connection>
                    <Source>Midi Input:Capture 1</Source>
                    <Target>sfizz:events-in</Target>
                  </Connection>
                  <Connection>
                    <Source>sfizz:Left Output</Source>
                    <Target>Audio Output:Left</Target>
                  </Connection>
                  <Connection>
                    <Source>sfizz:Right Output</Source>
                    <Target>Audio Output:Left</Target>
                  </Connection>
                  <Connection>
                    <Source>Midi Input:Capture 1</Source>
                    <Target>sfizz (2):events-in</Target>
                  </Connection>
                  <Connection>
                    <Source>sfizz (2):Right Output</Source>
                    <Target>Audio Output:Right</Target>
                  </Connection>
                  <Connection>
                    <Source>sfizz (2):Left Output</Source>
                    <Target>Audio Output:Right</Target>
                  </Connection>
                  <Positions>
                    <Position y1="1350" pluginId="1" x1="1711">
                      <Name>sfizz (2)</Name>
                    </Position>
                    <Position y1="1297" pluginId="0" x1="1704">
                      <Name>sfizz</Name>
                    </Position>
                  </Positions>
                </Patchbay>
              </CARLA-PROJECT>
            </carlapatchbay>
          </instrument>
          <eldata fwet="0" ftype="0" fcut="14000" fres="0.5">
            <elvol ctlenvamt="0" lamt="0" amt="0" latt="0" lspd_syncmode="0" dec="0.5" lpdel="0" att="0" lspd_denominator="4" hold="0.5" lspd="0.1" lspd_numerator="4" sustain="0.5" lshp="0" pdel="0" x100="0" rel="0.1" userwavefile=""/>
            <elcut ctlenvamt="0" lamt="0" amt="0" latt="0" lspd_syncmode="0" dec="0.5" lpdel="0" att="0" lspd_denominator="4" hold="0.5" lspd="0.1" lspd_numerator="4" sustain="0.5" lshp="0" pdel="0" x100="0" rel="0.1" userwavefile=""/>
            <elres ctlenvamt="0" lamt="0" amt="0" latt="0" lspd_syncmode="0" dec="0.5" lpdel="0" att="0" lspd_denominator="4" hold="0.5" lspd="0.1" lspd_numerator="4" sustain="0.5" lshp="0" pdel="0" x100="0" rel="0.1" userwavefile=""/>
          </eldata>
          <chordcreator chordrange="1" chord-enabled="0" chord="0"/>
          <arpeggiator arptime_syncmode="0" arpdir="0" arptime_numerator="4" arpmode="0" arp="0" arpmiss="0" arptime="200" arpgate="100" arp-enabled="0" arpskip="0" arptime_denominator="4" arprange="1" arpcycle="0"/>
          <midiport writable="0" fixedinputvelocity="-1" outputchannel="1" fixedoutputvelocity="-1" outputcontroller="0" basevelocity="127" fixedoutputnote="-1" inputchannel="0" inputcontroller="0" outputprogram="1" readable="0"/>
          <fxchain numofeffects="0" enabled="0"/>
        </instrumenttrack>
        <pattern steps="16" muted="0" type="1" pos="0" name="Rhythm Guitar">
          <note key="43" pos="0" len="192" vol="144" pan="0"/>
          <note key="36" pos="0" len="192" vol="144" pan="0"/>
          <note key="0" pos="0" len="12" vol="144" pan="0"/>
          <note key="48" pos="192" len="192" vol="144" pan="0"/>
          <note key="41" pos="192" len="192" vol="144" pan="0"/>
          <note key="52" pos="384" len="192" vol="144" pan="0"/>
          <note key="45" pos="384" len="192" vol="144" pan="0"/>
          <note key="48" pos="576" len="192" vol="144" pan="0"/>
          <note key="41" pos="576" len="192" vol="144" pan="0"/>
          <note key="43" pos="768" len="24" vol="144" pan="0"/>
          <note key="36" pos="768" len="24" vol="144" pan="0"/>
          <note key="0" pos="768" len="24" vol="144" pan="0"/>
          <note key="36" pos="792" len="12" vol="144" pan="0"/>
          <note key="1" pos="792" len="24" vol="144" pan="0"/>
          <note key="36" pos="804" len="12" vol="144" pan="0"/>
          <note key="36" pos="816" len="12" vol="144" pan="0"/>
          <note key="36" pos="828" len="12" vol="144" pan="0"/>
          <note key="36" pos="840" len="12" vol="144" pan="0"/>
          <note key="36" pos="852" len="12" vol="144" pan="0"/>
          <note key="36" pos="864" len="12" vol="144" pan="0"/>
          <note key="36" pos="876" len="12" vol="144" pan="0"/>
          <note key="36" pos="888" len="12" vol="144" pan="0"/>
          <note key="36" pos="900" len="12" vol="144" pan="0"/>
          <note key="36" pos="912" len="12" vol="144" pan="0"/>
          <note key="36" pos="924" len="12" vol="144" pan="0"/>
          <note key="36" pos="936" len="12" vol="144" pan="0"/>
          <note key="36" pos="948" len="12" vol="144" pan="0"/>
          <note key="48" pos="960" len="24" vol="144" pan="0"/>
          <note key="41" pos="960" len="24" vol="144" pan="0"/>
          <note key="0" pos="960" len="12" vol="144" pan="0"/>
          <note key="41" pos="984" len="12" vol="144" pan="0"/>
          <note key="1" pos="984" len="12" vol="144" pan="0"/>
          <note key="41" pos="996" len="12" vol="144" pan="0"/>
          <note key="41" pos="1008" len="12" vol="144" pan="0"/>
          <note key="41" pos="1020" len="12" vol="144" pan="0"/>
          <note key="41" pos="1032" len="12" vol="144" pan="0"/>
          <note key="41" pos="1044" len="12" vol="144" pan="0"/>
          <note key="41" pos="1056" len="12" vol="144" pan="0"/>
          <note key="41" pos="1068" len="12" vol="144" pan="0"/>
          <note key="41" pos="1080" len="12" vol="144" pan="0"/>
          <note key="41" pos="1092" len="12" vol="144" pan="0"/>
          <note key="41" pos="1104" len="12" vol="144" pan="0"/>
          <note key="41" pos="1116" len="12" vol="144" pan="0"/>
          <note key="41" pos="1128" len="12" vol="144" pan="0"/>
          <note key="41" pos="1140" len="12" vol="144" pan="0"/>
          <note key="52" pos="1152" len="24" vol="144" pan="0"/>
          <note key="45" pos="1152" len="24" vol="144" pan="0"/>
          <note key="0" pos="1152" len="12" vol="144" pan="0"/>
          <note key="45" pos="1176" len="12" vol="144" pan="0"/>
          <note key="1" pos="1176" len="12" vol="144" pan="0"/>
          <note key="45" pos="1188" len="12" vol="144" pan="0"/>
          <note key="45" pos="1200" len="12" vol="144" pan="0"/>
          <note key="45" pos="1212" len="12" vol="144" pan="0"/>
          <note key="45" pos="1224" len="12" vol="144" pan="0"/>
          <note key="45" pos="1236" len="12" vol="144" pan="0"/>
          <note key="45" pos="1248" len="12" vol="144" pan="0"/>
          <note key="45" pos="1260" len="12" vol="144" pan="0"/>
          <note key="45" pos="1272" len="12" vol="144" pan="0"/>
          <note key="45" pos="1284" len="12" vol="144" pan="0"/>
          <note key="45" pos="1296" len="12" vol="144" pan="0"/>
          <note key="45" pos="1308" len="12" vol="144" pan="0"/>
          <note key="45" pos="1320" len="12" vol="144" pan="0"/>
          <note key="45" pos="1332" len="12" vol="144" pan="0"/>
          <note key="48" pos="1344" len="24" vol="144" pan="0"/>
          <note key="41" pos="1344" len="24" vol="144" pan="0"/>
          <note key="0" pos="1344" len="12" vol="144" pan="0"/>
          <note key="41" pos="1368" len="12" vol="144" pan="0"/>
          <note key="1" pos="1368" len="12" vol="144" pan="0"/>
          <note key="41" pos="1380" len="12" vol="144" pan="0"/>
          <note key="41" pos="1392" len="12" vol="144" pan="0"/>
          <note key="41" pos="1404" len="12" vol="144" pan="0"/>
          <note key="41" pos="1416" len="12" vol="144" pan="0"/>
          <note key="41" pos="1428" len="12" vol="144" pan="0"/>
          <note key="41" pos="1440" len="12" vol="144" pan="0"/>
          <note key="41" pos="1452" len="12" vol="144" pan="0"/>
          <note key="41" pos="1464" len="12" vol="144" pan="0"/>
          <note key="41" pos="1476" len="12" vol="144" pan="0"/>
          <note key="41" pos="1488" len="12" vol="144" pan="0"/>
          <note key="41" pos="1500" len="12" vol="144" pan="0"/>
          <note key="41" pos="1512" len="12" vol="144" pan="0"/>
          <note key="41" pos="1524" len="12" vol="144" pan="0"/>
        </pattern>
        <pattern steps="16" muted="0" type="1" pos="1920" name="Rhythm Guitar">
          <note key="43" pos="0" len="192" vol="157" pan="0"/>
          <note key="36" pos="0" len="192" vol="157" pan="0"/>
          <note key="0" pos="0" len="192" vol="157" pan="0"/>
          <note key="46" pos="192" len="96" vol="157" pan="0"/>
          <note key="39" pos="192" len="96" vol="157" pan="0"/>
          <note key="48" pos="288" len="96" vol="157" pan="0"/>
          <note key="41" pos="288" len="96" vol="157" pan="0"/>
          <note key="48" pos="384" len="12" vol="132" pan="0"/>
          <note key="0" pos="384" len="12" vol="157" pan="0"/>
          <note key="36" pos="396" len="12" vol="132" pan="0"/>
          <note key="1" pos="396" len="12" vol="157" pan="0"/>
          <note key="36" pos="408" len="12" vol="132" pan="0"/>
          <note key="43" pos="420" len="12" vol="132" pan="0"/>
          <note key="0" pos="420" len="12" vol="157" pan="0"/>
          <note key="36" pos="432" len="12" vol="132" pan="0"/>
          <note key="1" pos="432" len="12" vol="157" pan="0"/>
          <note key="36" pos="444" len="12" vol="132" pan="0"/>
          <note key="46" pos="456" len="12" vol="132" pan="0"/>
          <note key="0" pos="456" len="12" vol="157" pan="0"/>
          <note key="36" pos="468" len="12" vol="132" pan="0"/>
          <note key="1" pos="468" len="12" vol="132" pan="0"/>
          <note key="36" pos="480" len="12" vol="132" pan="0"/>
          <note key="41" pos="492" len="12" vol="132" pan="0"/>
          <note key="0" pos="492" len="12" vol="132" pan="0"/>
          <note key="36" pos="504" len="12" vol="132" pan="0"/>
          <note key="1" pos="504" len="12" vol="132" pan="0"/>
          <note key="36" pos="516" len="12" vol="132" pan="0"/>
          <note key="39" pos="528" len="12" vol="132" pan="0"/>
          <note key="0" pos="528" len="12" vol="132" pan="0"/>
          <note key="36" pos="540" len="12" vol="132" pan="0"/>
          <note key="1" pos="540" len="12" vol="132" pan="0"/>
          <note key="36" pos="552" len="12" vol="132" pan="0"/>
          <note key="36" pos="564" len="12" vol="132" pan="0"/>
          <note key="48" pos="576" len="12" vol="132" pan="0"/>
          <note key="0" pos="576" len="12" vol="132" pan="0"/>
          <note key="36" pos="588" len="12" vol="132" pan="0"/>
          <note key="1" pos="588" len="12" vol="132" pan="0"/>
          <note key="36" pos="600" len="12" vol="132" pan="0"/>
          <note key="43" pos="612" len="12" vol="132" pan="0"/>
          <note key="0" pos="612" len="12" vol="132" pan="0"/>
          <note key="36" pos="624" len="12" vol="132" pan="0"/>
          <note key="1" pos="624" len="12" vol="132" pan="0"/>
          <note key="36" pos="636" len="12" vol="132" pan="0"/>
          <note key="46" pos="648" len="12" vol="132" pan="0"/>
          <note key="0" pos="648" len="12" vol="132" pan="0"/>
          <note key="36" pos="660" len="12" vol="132" pan="0"/>
          <note key="1" pos="660" len="12" vol="132" pan="0"/>
          <note key="36" pos="672" len="12" vol="132" pan="0"/>
          <note key="41" pos="684" len="12" vol="132" pan="0"/>
          <note key="0" pos="684" len="12" vol="132" pan="0"/>
          <note key="36" pos="696" len="12" vol="132" pan="0"/>
          <note key="1" pos="696" len="12" vol="132" pan="0"/>
          <note key="36" pos="708" len="12" vol="132" pan="0"/>
          <note key="48" pos="720" len="24" vol="144" pan="0"/>
          <note key="0" pos="720" len="12" vol="132" pan="0"/>
          <note key="50" pos="744" len="24" vol="144" pan="0"/>
        </pattern>
        <pattern steps="16" muted="0" type="1" pos="1536" name="Rhythm Guitar">
          <note key="48" pos="0" len="24" vol="144" pan="0"/>
          <note key="0" pos="0" len="24" vol="144" pan="0"/>
          <note key="48" pos="24" len="12" vol="144" pan="0"/>
          <note key="1" pos="24" len="24" vol="144" pan="0"/>
          <note key="48" pos="36" len="12" vol="144" pan="0"/>
          <note key="50" pos="48" len="24" vol="151" pan="0"/>
          <note key="0" pos="48" len="24" vol="144" pan="0"/>
          <note key="50" pos="72" len="12" vol="144" pan="0"/>
          <note key="1" pos="72" len="24" vol="144" pan="0"/>
          <note key="50" pos="84" len="12" vol="144" pan="0"/>
          <note key="51" pos="96" len="24" vol="151" pan="0"/>
          <note key="0" pos="96" len="24" vol="144" pan="0"/>
          <note key="51" pos="120" len="12" vol="144" pan="0"/>
          <note key="1" pos="120" len="24" vol="144" pan="0"/>
          <note key="51" pos="132" len="12" vol="144" pan="0"/>
          <note key="53" pos="144" len="24" vol="144" pan="0"/>
          <note key="0" pos="144" len="24" vol="144" pan="0"/>
          <note key="53" pos="168" len="12" vol="144" pan="0"/>
          <note key="1" pos="168" len="24" vol="144" pan="0"/>
          <note key="53" pos="180" len="12" vol="144" pan="0"/>
          <note key="47" pos="192" len="48" vol="144" pan="0"/>
          <note key="0" pos="192" len="24" vol="144" pan="0"/>
          <note key="53" pos="240" len="48" vol="151" pan="0"/>
          <note key="59" pos="288" len="48" vol="144" pan="0"/>
        </pattern>
        <pattern steps="16" muted="0" type="1" pos="2688" name="">
          <note key="48" pos="0" len="192" vol="157" pan="0"/>
          <note key="41" pos="0" len="192" vol="157" pan="0"/>
          <note key="0" pos="0" len="192" vol="157" pan="0"/>
          <note key="53" pos="192" len="192" vol="157" pan="0"/>
          <note key="46" pos="192" len="192" vol="157" pan="0"/>
          <note key="48" pos="384" len="12" vol="132" pan="0"/>
          <note key="0" pos="384" len="12" vol="157" pan="0"/>
          <note key="36" pos="396" len="12" vol="132" pan="0"/>
          <note key="1" pos="396" len="12" vol="157" pan="0"/>
          <note key="36" pos="408" len="12" vol="132" pan="0"/>
          <note key="43" pos="420" len="12" vol="132" pan="0"/>
          <note key="0" pos="420" len="12" vol="157" pan="0"/>
          <note key="36" pos="432" len="12" vol="132" pan="0"/>
          <note key="1" pos="432" len="12" vol="157" pan="0"/>
          <note key="36" pos="444" len="12" vol="132" pan="0"/>
          <note key="46" pos="456" len="12" vol="132" pan="0"/>
          <note key="0" pos="456" len="12" vol="157" pan="0"/>
          <note key="36" pos="468" len="12" vol="132" pan="0"/>
          <note key="1" pos="468" len="12" vol="132" pan="0"/>
          <note key="36" pos="480" len="12" vol="132" pan="0"/>
          <note key="41" pos="492" len="12" vol="132" pan="0"/>
          <note key="0" pos="492" len="12" vol="132" pan="0"/>
          <note key="36" pos="504" len="12" vol="132" pan="0"/>
          <note key="1" pos="504" len="12" vol="132" pan="0"/>
          <note key="36" pos="516" len="12" vol="132" pan="0"/>
          <note key="39" pos="528" len="12" vol="132" pan="0"/>
          <note key="0" pos="528" len="12" vol="132" pan="0"/>
          <note key="36" pos="540" len="12" vol="132" pan="0"/>
          <note key="36" pos="552" len="12" vol="132" pan="0"/>
          <note key="1" pos="552" len="12" vol="132" pan="0"/>
          <note key="36" pos="564" len="12" vol="132" pan="0"/>
          <note key="48" pos="576" len="12" vol="132" pan="0"/>
          <note key="0" pos="576" len="12" vol="132" pan="0"/>
          <note key="36" pos="588" len="12" vol="132" pan="0"/>
          <note key="1" pos="588" len="12" vol="132" pan="0"/>
          <note key="36" pos="600" len="12" vol="132" pan="0"/>
          <note key="43" pos="612" len="12" vol="132" pan="0"/>
          <note key="0" pos="612" len="12" vol="132" pan="0"/>
          <note key="36" pos="624" len="12" vol="132" pan="0"/>
          <note key="1" pos="624" len="12" vol="132" pan="0"/>
          <note key="36" pos="636" len="12" vol="132" pan="0"/>
          <note key="46" pos="648" len="12" vol="132" pan="0"/>
          <note key="0" pos="648" len="12" vol="132" pan="0"/>
          <note key="36" pos="660" len="12" vol="132" pan="0"/>
          <note key="1" pos="660" len="12" vol="132" pan="0"/>
          <note key="36" pos="672" len="12" vol="132" pan="0"/>
          <note key="41" pos="684" len="12" vol="132" pan="0"/>
          <note key="0" pos="684" len="12" vol="132" pan="0"/>
          <note key="36" pos="696" len="12" vol="132" pan="0"/>
          <note key="1" pos="696" len="12" vol="132" pan="0"/>
          <note key="36" pos="708" len="12" vol="132" pan="0"/>
          <note key="48" pos="720" len="24" vol="144" pan="0"/>
          <note key="0" pos="720" len="12" vol="132" pan="0"/>
          <note key="50" pos="744" len="24" vol="144" pan="0"/>
        </pattern>
        <pattern steps="16" muted="0" type="1" pos="3456" name="">
          <note key="43" pos="0" len="192" vol="157" pan="0"/>
          <note key="36" pos="0" len="192" vol="157" pan="0"/>
          <note key="0" pos="0" len="192" vol="157" pan="0"/>
          <note key="46" pos="192" len="96" vol="157" pan="0"/>
          <note key="39" pos="192" len="96" vol="157" pan="0"/>
          <note key="48" pos="288" len="96" vol="157" pan="0"/>
          <note key="41" pos="288" len="96" vol="157" pan="0"/>
          <note key="48" pos="384" len="12" vol="132" pan="0"/>
          <note key="0" pos="384" len="12" vol="157" pan="0"/>
          <note key="36" pos="396" len="12" vol="132" pan="0"/>
          <note key="1" pos="396" len="12" vol="157" pan="0"/>
          <note key="36" pos="408" len="12" vol="132" pan="0"/>
          <note key="43" pos="420" len="12" vol="132" pan="0"/>
          <note key="0" pos="420" len="12" vol="157" pan="0"/>
          <note key="36" pos="432" len="12" vol="132" pan="0"/>
          <note key="1" pos="432" len="12" vol="157" pan="0"/>
          <note key="36" pos="444" len="12" vol="132" pan="0"/>
          <note key="46" pos="456" len="12" vol="132" pan="0"/>
          <note key="0" pos="456" len="12" vol="157" pan="0"/>
          <note key="36" pos="468" len="12" vol="132" pan="0"/>
          <note key="1" pos="468" len="12" vol="132" pan="0"/>
          <note key="36" pos="480" len="12" vol="132" pan="0"/>
          <note key="41" pos="492" len="12" vol="132" pan="0"/>
          <note key="0" pos="492" len="12" vol="132" pan="0"/>
          <note key="36" pos="504" len="12" vol="132" pan="0"/>
          <note key="1" pos="504" len="12" vol="132" pan="0"/>
          <note key="36" pos="516" len="12" vol="132" pan="0"/>
          <note key="39" pos="528" len="12" vol="132" pan="0"/>
          <note key="0" pos="528" len="12" vol="132" pan="0"/>
          <note key="36" pos="540" len="12" vol="132" pan="0"/>
          <note key="1" pos="540" len="12" vol="132" pan="0"/>
          <note key="36" pos="552" len="12" vol="132" pan="0"/>
          <note key="36" pos="564" len="12" vol="132" pan="0"/>
          <note key="48" pos="576" len="12" vol="132" pan="0"/>
          <note key="0" pos="576" len="12" vol="132" pan="0"/>
          <note key="36" pos="588" len="12" vol="132" pan="0"/>
          <note key="1" pos="588" len="12" vol="132" pan="0"/>
          <note key="36" pos="600" len="12" vol="132" pan="0"/>
          <note key="43" pos="612" len="12" vol="132" pan="0"/>
          <note key="0" pos="612" len="12" vol="132" pan="0"/>
          <note key="36" pos="624" len="12" vol="132" pan="0"/>
          <note key="1" pos="624" len="12" vol="132" pan="0"/>
          <note key="36" pos="636" len="12" vol="132" pan="0"/>
          <note key="46" pos="648" len="12" vol="132" pan="0"/>
          <note key="0" pos="648" len="12" vol="132" pan="0"/>
          <note key="36" pos="660" len="12" vol="132" pan="0"/>
          <note key="1" pos="660" len="12" vol="132" pan="0"/>
          <note key="36" pos="672" len="12" vol="132" pan="0"/>
          <note key="41" pos="684" len="12" vol="132" pan="0"/>
          <note key="0" pos="684" len="12" vol="132" pan="0"/>
          <note key="36" pos="696" len="12" vol="132" pan="0"/>
          <note key="1" pos="696" len="12" vol="132" pan="0"/>
          <note key="36" pos="708" len="12" vol="132" pan="0"/>
          <note key="48" pos="720" len="24" vol="144" pan="0"/>
          <note key="0" pos="720" len="12" vol="132" pan="0"/>
          <note key="50" pos="744" len="24" vol="144" pan="0"/>
        </pattern>
        <pattern steps="16" muted="0" type="1" pos="4224" name="">
          <note key="48" pos="0" len="192" vol="157" pan="0"/>
          <note key="41" pos="0" len="192" vol="157" pan="0"/>
          <note key="0" pos="0" len="192" vol="157" pan="0"/>
          <note key="53" pos="192" len="192" vol="157" pan="0"/>
          <note key="46" pos="192" len="192" vol="157" pan="0"/>
          <note key="39" pos="384" len="12" vol="132" pan="0"/>
          <note key="1" pos="384" len="12" vol="157" pan="0"/>
          <note key="39" pos="396" len="12" vol="132" pan="0"/>
          <note key="39" pos="408" len="12" vol="132" pan="0"/>
          <note key="39" pos="420" len="12" vol="132" pan="0"/>
          <note key="39" pos="432" len="12" vol="132" pan="0"/>
          <note key="39" pos="444" len="12" vol="132" pan="0"/>
          <note key="39" pos="456" len="12" vol="132" pan="0"/>
          <note key="39" pos="468" len="12" vol="132" pan="0"/>
          <note key="39" pos="480" len="12" vol="132" pan="0"/>
          <note key="39" pos="492" len="12" vol="132" pan="0"/>
          <note key="39" pos="504" len="12" vol="132" pan="0"/>
          <note key="39" pos="516" len="12" vol="132" pan="0"/>
          <note key="39" pos="528" len="12" vol="132" pan="0"/>
          <note key="39" pos="540" len="12" vol="132" pan="0"/>
          <note key="39" pos="552" len="12" vol="132" pan="0"/>
          <note key="39" pos="564" len="12" vol="132" pan="0"/>
          <note key="43" pos="576" len="12" vol="132" pan="0"/>
          <note key="43" pos="588" len="12" vol="132" pan="0"/>
          <note key="43" pos="600" len="12" vol="132" pan="0"/>
          <note key="43" pos="612" len="12" vol="132" pan="0"/>
          <note key="43" pos="624" len="12" vol="132" pan="0"/>
          <note key="43" pos="636" len="12" vol="132" pan="0"/>
          <note key="43" pos="648" len="12" vol="132" pan="0"/>
          <note key="43" pos="660" len="12" vol="132" pan="0"/>
          <note key="47" pos="672" len="12" vol="132" pan="0"/>
          <note key="47" pos="684" len="12" vol="132" pan="0"/>
          <note key="47" pos="696" len="12" vol="132" pan="0"/>
          <note key="47" pos="708" len="12" vol="132" pan="0"/>
          <note key="50" pos="720" len="12" vol="132" pan="0"/>
          <note key="0" pos="720" len="12" vol="132" pan="0"/>
          <note key="48" pos="732" len="12" vol="132" pan="0"/>
          <note key="47" pos="744" len="12" vol="132" pan="0"/>
          <note key="1" pos="744" len="12" vol="132" pan="0"/>
          <note key="43" pos="756" len="12" vol="132" pan="0"/>
        </pattern>
        <pattern steps="16" muted="0" type="1" pos="6528" name="Rhythm Guitar">
          <note key="36" pos="0" len="36" vol="193" pan="0"/>
          <note key="1" pos="0" len="24" vol="151" pan="0"/>
          <note key="36" pos="36" len="36" vol="193" pan="0"/>
          <note key="36" pos="72" len="36" vol="193" pan="0"/>
          <note key="36" pos="108" len="36" vol="193" pan="0"/>
          <note key="36" pos="144" len="36" vol="193" pan="0"/>
          <note key="36" pos="180" len="36" vol="193" pan="0"/>
          <note key="36" pos="216" len="36" vol="193" pan="0"/>
          <note key="36" pos="252" len="36" vol="193" pan="0"/>
          <note key="39" pos="288" len="24" vol="193" pan="0"/>
          <note key="0" pos="288" len="24" vol="151" pan="0"/>
          <note key="36" pos="312" len="24" vol="193" pan="0"/>
          <note key="36" pos="336" len="12" vol="193" pan="0"/>
          <note key="1" pos="336" len="24" vol="151" pan="0"/>
          <note key="36" pos="348" len="12" vol="193" pan="0"/>
          <note key="36" pos="360" len="12" vol="193" pan="0"/>
          <note key="36" pos="372" len="12" vol="193" pan="0"/>
        </pattern>
        <pattern steps="16" muted="0" type="1" pos="12672" name="">
          <note key="36" pos="0" len="36" vol="193" pan="0"/>
          <note key="1" pos="0" len="24" vol="151" pan="0"/>
          <note key="36" pos="36" len="36" vol="193" pan="0"/>
          <note key="36" pos="72" len="36" vol="193" pan="0"/>
          <note key="36" pos="108" len="36" vol="193" pan="0"/>
          <note key="36" pos="144" len="36" vol="193" pan="0"/>
          <note key="36" pos="180" len="36" vol="193" pan="0"/>
          <note key="36" pos="216" len="36" vol="193" pan="0"/>
          <note key="36" pos="252" len="36" vol="193" pan="0"/>
          <note key="39" pos="288" len="24" vol="193" pan="0"/>
          <note key="0" pos="288" len="24" vol="151" pan="0"/>
          <note key="36" pos="312" len="24" vol="193" pan="0"/>
          <note key="36" pos="336" len="12" vol="193" pan="0"/>
          <note key="1" pos="336" len="24" vol="151" pan="0"/>
          <note key="36" pos="348" len="12" vol="193" pan="0"/>
          <note key="36" pos="360" len="12" vol="193" pan="0"/>
          <note key="36" pos="372" len="12" vol="193" pan="0"/>
        </pattern>
        <pattern steps="16" muted="0" type="1" pos="13056" name="">
          <note key="44" pos="0" len="36" vol="193" pan="0"/>
          <note key="1" pos="0" len="24" vol="151" pan="0"/>
          <note key="44" pos="36" len="36" vol="193" pan="0"/>
          <note key="44" pos="72" len="36" vol="193" pan="0"/>
          <note key="44" pos="108" len="36" vol="193" pan="0"/>
          <note key="44" pos="144" len="36" vol="193" pan="0"/>
          <note key="44" pos="180" len="36" vol="193" pan="0"/>
          <note key="44" pos="216" len="36" vol="193" pan="0"/>
          <note key="44" pos="252" len="36" vol="193" pan="0"/>
          <note key="51" pos="288" len="24" vol="193" pan="0"/>
          <note key="0" pos="288" len="24" vol="151" pan="0"/>
          <note key="44" pos="312" len="24" vol="193" pan="0"/>
          <note key="44" pos="336" len="12" vol="193" pan="0"/>
          <note key="1" pos="336" len="24" vol="151" pan="0"/>
          <note key="44" pos="348" len="12" vol="193" pan="0"/>
          <note key="44" pos="360" len="12" vol="193" pan="0"/>
          <note key="44" pos="372" len="12" vol="193" pan="0"/>
        </pattern>
        <pattern steps="16" muted="0" type="1" pos="11136" name="Rhythm Guitar">
          <note key="39" pos="0" len="12" vol="157" pan="0"/>
          <note key="0" pos="0" len="12" vol="157" pan="0"/>
          <note key="41" pos="12" len="12" vol="157" pan="0"/>
          <note key="41" pos="24" len="12" vol="157" pan="0"/>
          <note key="1" pos="24" len="12" vol="157" pan="0"/>
          <note key="41" pos="36" len="12" vol="157" pan="0"/>
          <note key="41" pos="48" len="12" vol="157" pan="0"/>
          <note key="41" pos="60" len="12" vol="157" pan="0"/>
          <note key="41" pos="72" len="12" vol="157" pan="0"/>
          <note key="41" pos="84" len="12" vol="157" pan="0"/>
          <note key="39" pos="96" len="12" vol="157" pan="0"/>
          <note key="0" pos="96" len="12" vol="157" pan="0"/>
          <note key="41" pos="108" len="12" vol="157" pan="0"/>
          <note key="41" pos="120" len="12" vol="157" pan="0"/>
          <note key="1" pos="120" len="12" vol="157" pan="0"/>
          <note key="41" pos="132" len="12" vol="157" pan="0"/>
          <note key="44" pos="144" len="12" vol="157" pan="0"/>
          <note key="0" pos="144" len="12" vol="157" pan="0"/>
          <note key="41" pos="156" len="12" vol="157" pan="0"/>
          <note key="41" pos="168" len="12" vol="157" pan="0"/>
          <note key="1" pos="168" len="12" vol="157" pan="0"/>
          <note key="41" pos="180" len="12" vol="157" pan="0"/>
          <note key="39" pos="192" len="12" vol="157" pan="0"/>
          <note key="0" pos="192" len="12" vol="157" pan="0"/>
          <note key="41" pos="204" len="12" vol="157" pan="0"/>
          <note key="41" pos="216" len="12" vol="157" pan="0"/>
          <note key="1" pos="216" len="12" vol="157" pan="0"/>
          <note key="41" pos="228" len="12" vol="157" pan="0"/>
          <note key="41" pos="240" len="12" vol="157" pan="0"/>
          <note key="41" pos="252" len="12" vol="157" pan="0"/>
          <note key="41" pos="264" len="12" vol="157" pan="0"/>
          <note key="41" pos="276" len="12" vol="157" pan="0"/>
          <note key="39" pos="288" len="12" vol="157" pan="0"/>
          <note key="0" pos="288" len="12" vol="157" pan="0"/>
          <note key="41" pos="300" len="12" vol="157" pan="0"/>
          <note key="41" pos="312" len="12" vol="157" pan="0"/>
          <note key="1" pos="312" len="12" vol="157" pan="0"/>
          <note key="41" pos="324" len="12" vol="157" pan="0"/>
          <note key="44" pos="336" len="12" vol="157" pan="0"/>
          <note key="0" pos="336" len="12" vol="157" pan="0"/>
          <note key="41" pos="348" len="12" vol="157" pan="0"/>
          <note key="41" pos="360" len="12" vol="157" pan="0"/>
          <note key="1" pos="360" len="12" vol="157" pan="0"/>
          <note key="41" pos="372" len="12" vol="157" pan="0"/>
          <note key="36" pos="384" len="12" vol="157" pan="0"/>
          <note key="0" pos="384" len="12" vol="157" pan="0"/>
          <note key="37" pos="396" len="12" vol="157" pan="0"/>
          <note key="37" pos="408" len="12" vol="157" pan="0"/>
          <note key="1" pos="408" len="12" vol="157" pan="0"/>
          <note key="37" pos="420" len="12" vol="157" pan="0"/>
          <note key="37" pos="432" len="12" vol="157" pan="0"/>
          <note key="37" pos="444" len="12" vol="157" pan="0"/>
          <note key="37" pos="456" len="12" vol="157" pan="0"/>
          <note key="37" pos="468" len="12" vol="157" pan="0"/>
          <note key="36" pos="480" len="12" vol="157" pan="0"/>
          <note key="0" pos="480" len="12" vol="157" pan="0"/>
          <note key="37" pos="492" len="12" vol="157" pan="0"/>
          <note key="37" pos="504" len="12" vol="157" pan="0"/>
          <note key="1" pos="504" len="12" vol="157" pan="0"/>
          <note key="37" pos="516" len="12" vol="157" pan="0"/>
          <note key="39" pos="528" len="12" vol="157" pan="0"/>
          <note key="0" pos="528" len="12" vol="157" pan="0"/>
          <note key="37" pos="540" len="12" vol="157" pan="0"/>
          <note key="37" pos="552" len="12" vol="157" pan="0"/>
          <note key="1" pos="552" len="12" vol="157" pan="0"/>
          <note key="37" pos="564" len="12" vol="157" pan="0"/>
          <note key="36" pos="576" len="12" vol="157" pan="0"/>
          <note key="0" pos="576" len="12" vol="157" pan="0"/>
          <note key="37" pos="588" len="12" vol="157" pan="0"/>
          <note key="37" pos="600" len="12" vol="157" pan="0"/>
          <note key="1" pos="600" len="12" vol="157" pan="0"/>
          <note key="37" pos="612" len="12" vol="157" pan="0"/>
          <note key="37" pos="624" len="12" vol="157" pan="0"/>
          <note key="37" pos="636" len="12" vol="157" pan="0"/>
          <note key="37" pos="648" len="12" vol="157" pan="0"/>
          <note key="37" pos="660" len="12" vol="157" pan="0"/>
          <note key="36" pos="672" len="12" vol="157" pan="0"/>
          <note key="0" pos="672" len="12" vol="157" pan="0"/>
          <note key="37" pos="684" len="12" vol="157" pan="0"/>
          <note key="37" pos="696" len="12" vol="157" pan="0"/>
          <note key="1" pos="696" len="12" vol="157" pan="0"/>
          <note key="37" pos="708" len="12" vol="157" pan="0"/>
          <note key="39" pos="720" len="12" vol="157" pan="0"/>
          <note key="0" pos="720" len="12" vol="157" pan="0"/>
          <note key="37" pos="732" len="12" vol="157" pan="0"/>
          <note key="37" pos="744" len="12" vol="157" pan="0"/>
          <note key="1" pos="744" len="12" vol="157" pan="0"/>
          <note key="37" pos="756" len="12" vol="157" pan="0"/>
        </pattern>
        <pattern steps="16" muted="0" type="1" pos="11904" name="">
          <note key="39" pos="0" len="12" vol="157" pan="0"/>
          <note key="0" pos="0" len="12" vol="157" pan="0"/>
          <note key="41" pos="12" len="12" vol="157" pan="0"/>
          <note key="41" pos="24" len="12" vol="157" pan="0"/>
          <note key="1" pos="24" len="12" vol="157" pan="0"/>
          <note key="41" pos="36" len="12" vol="157" pan="0"/>
          <note key="41" pos="48" len="12" vol="157" pan="0"/>
          <note key="41" pos="60" len="12" vol="157" pan="0"/>
          <note key="41" pos="72" len="12" vol="157" pan="0"/>
          <note key="41" pos="84" len="12" vol="157" pan="0"/>
          <note key="39" pos="96" len="12" vol="157" pan="0"/>
          <note key="0" pos="96" len="12" vol="157" pan="0"/>
          <note key="41" pos="108" len="12" vol="157" pan="0"/>
          <note key="41" pos="120" len="12" vol="157" pan="0"/>
          <note key="1" pos="120" len="12" vol="157" pan="0"/>
          <note key="41" pos="132" len="12" vol="157" pan="0"/>
          <note key="44" pos="144" len="12" vol="157" pan="0"/>
          <note key="0" pos="144" len="12" vol="157" pan="0"/>
          <note key="41" pos="156" len="12" vol="157" pan="0"/>
          <note key="41" pos="168" len="12" vol="157" pan="0"/>
          <note key="1" pos="168" len="12" vol="157" pan="0"/>
          <note key="41" pos="180" len="12" vol="157" pan="0"/>
          <note key="39" pos="192" len="12" vol="157" pan="0"/>
          <note key="0" pos="192" len="12" vol="157" pan="0"/>
          <note key="41" pos="204" len="12" vol="157" pan="0"/>
          <note key="41" pos="216" len="12" vol="157" pan="0"/>
          <note key="1" pos="216" len="12" vol="157" pan="0"/>
          <note key="41" pos="228" len="12" vol="157" pan="0"/>
          <note key="41" pos="240" len="12" vol="157" pan="0"/>
          <note key="41" pos="252" len="12" vol="157" pan="0"/>
          <note key="41" pos="264" len="12" vol="157" pan="0"/>
          <note key="41" pos="276" len="12" vol="157" pan="0"/>
          <note key="39" pos="288" len="12" vol="157" pan="0"/>
          <note key="0" pos="288" len="12" vol="157" pan="0"/>
          <note key="41" pos="300" len="12" vol="157" pan="0"/>
          <note key="41" pos="312" len="12" vol="157" pan="0"/>
          <note key="1" pos="312" len="12" vol="157" pan="0"/>
          <note key="41" pos="324" len="12" vol="157" pan="0"/>
          <note key="44" pos="336" len="12" vol="157" pan="0"/>
          <note key="0" pos="336" len="12" vol="157" pan="0"/>
          <note key="41" pos="348" len="12" vol="157" pan="0"/>
          <note key="41" pos="360" len="12" vol="157" pan="0"/>
          <note key="1" pos="360" len="12" vol="157" pan="0"/>
          <note key="41" pos="372" len="12" vol="157" pan="0"/>
          <note key="36" pos="384" len="12" vol="157" pan="0"/>
          <note key="0" pos="384" len="12" vol="157" pan="0"/>
          <note key="37" pos="396" len="12" vol="157" pan="0"/>
          <note key="37" pos="408" len="12" vol="157" pan="0"/>
          <note key="1" pos="408" len="12" vol="157" pan="0"/>
          <note key="37" pos="420" len="12" vol="157" pan="0"/>
          <note key="37" pos="432" len="12" vol="157" pan="0"/>
          <note key="37" pos="444" len="12" vol="157" pan="0"/>
          <note key="37" pos="456" len="12" vol="157" pan="0"/>
          <note key="37" pos="468" len="12" vol="157" pan="0"/>
          <note key="36" pos="480" len="12" vol="157" pan="0"/>
          <note key="0" pos="480" len="12" vol="157" pan="0"/>
          <note key="37" pos="492" len="12" vol="157" pan="0"/>
          <note key="37" pos="504" len="12" vol="157" pan="0"/>
          <note key="1" pos="504" len="12" vol="157" pan="0"/>
          <note key="37" pos="516" len="12" vol="157" pan="0"/>
          <note key="39" pos="528" len="12" vol="157" pan="0"/>
          <note key="0" pos="528" len="12" vol="157" pan="0"/>
          <note key="37" pos="540" len="12" vol="157" pan="0"/>
          <note key="37" pos="552" len="12" vol="157" pan="0"/>
          <note key="1" pos="552" len="12" vol="157" pan="0"/>
          <note key="37" pos="564" len="12" vol="157" pan="0"/>
          <note key="36" pos="576" len="12" vol="157" pan="0"/>
          <note key="0" pos="576" len="12" vol="157" pan="0"/>
          <note key="37" pos="588" len="12" vol="157" pan="0"/>
          <note key="37" pos="600" len="12" vol="157" pan="0"/>
          <note key="1" pos="600" len="12" vol="157" pan="0"/>
          <note key="37" pos="612" len="12" vol="157" pan="0"/>
          <note key="37" pos="624" len="12" vol="157" pan="0"/>
          <note key="37" pos="636" len="12" vol="157" pan="0"/>
          <note key="37" pos="648" len="12" vol="157" pan="0"/>
          <note key="37" pos="660" len="12" vol="157" pan="0"/>
          <note key="36" pos="672" len="12" vol="157" pan="0"/>
          <note key="0" pos="672" len="12" vol="157" pan="0"/>
          <note key="37" pos="684" len="12" vol="157" pan="0"/>
          <note key="37" pos="696" len="12" vol="157" pan="0"/>
          <note key="1" pos="696" len="12" vol="157" pan="0"/>
          <note key="37" pos="708" len="12" vol="157" pan="0"/>
          <note key="39" pos="720" len="12" vol="157" pan="0"/>
          <note key="0" pos="720" len="12" vol="157" pan="0"/>
          <note key="37" pos="732" len="12" vol="157" pan="0"/>
          <note key="37" pos="744" len="12" vol="157" pan="0"/>
          <note key="1" pos="744" len="12" vol="157" pan="0"/>
          <note key="37" pos="756" len="12" vol="157" pan="0"/>
        </pattern>
        <pattern steps="16" muted="0" type="1" pos="6912" name="">
          <note key="44" pos="0" len="36" vol="193" pan="0"/>
          <note key="1" pos="0" len="24" vol="151" pan="0"/>
          <note key="44" pos="36" len="36" vol="193" pan="0"/>
          <note key="44" pos="72" len="36" vol="193" pan="0"/>
          <note key="44" pos="108" len="36" vol="193" pan="0"/>
          <note key="46" pos="144" len="36" vol="193" pan="0"/>
          <note key="46" pos="180" len="36" vol="193" pan="0"/>
          <note key="46" pos="216" len="36" vol="193" pan="0"/>
          <note key="46" pos="252" len="36" vol="193" pan="0"/>
          <note key="53" pos="288" len="24" vol="193" pan="0"/>
          <note key="0" pos="288" len="24" vol="151" pan="0"/>
          <note key="46" pos="312" len="24" vol="193" pan="0"/>
          <note key="46" pos="336" len="12" vol="193" pan="0"/>
          <note key="1" pos="336" len="24" vol="151" pan="0"/>
          <note key="46" pos="348" len="12" vol="193" pan="0"/>
          <note key="46" pos="360" len="12" vol="193" pan="0"/>
          <note key="46" pos="372" len="12" vol="193" pan="0"/>
        </pattern>
        <pattern steps="16" muted="0" type="1" pos="26880" name="Rhythm Guitar">
          <note key="47" pos="0" len="24" vol="170" pan="0"/>
          <note key="40" pos="0" len="24" vol="170" pan="0"/>
          <note key="0" pos="0" len="12" vol="170" pan="0"/>
          <note key="1" pos="12" len="12" vol="170" pan="0"/>
          <note key="40" pos="24" len="12" vol="170" pan="0"/>
          <note key="40" pos="36" len="12" vol="170" pan="0"/>
          <note key="40" pos="48" len="12" vol="170" pan="0"/>
          <note key="40" pos="60" len="12" vol="170" pan="0"/>
          <note key="47" pos="72" len="24" vol="170" pan="0"/>
          <note key="40" pos="72" len="24" vol="170" pan="0"/>
          <note key="0" pos="72" len="12" vol="170" pan="0"/>
          <note key="1" pos="84" len="12" vol="170" pan="0"/>
          <note key="40" pos="96" len="12" vol="170" pan="0"/>
          <note key="40" pos="108" len="12" vol="170" pan="0"/>
          <note key="40" pos="120" len="12" vol="170" pan="0"/>
          <note key="40" pos="132" len="12" vol="170" pan="0"/>
          <note key="47" pos="144" len="24" vol="170" pan="0"/>
          <note key="40" pos="144" len="24" vol="170" pan="0"/>
          <note key="0" pos="144" len="12" vol="170" pan="0"/>
          <note key="1" pos="156" len="12" vol="170" pan="0"/>
          <note key="40" pos="168" len="12" vol="170" pan="0"/>
          <note key="40" pos="180" len="12" vol="170" pan="0"/>
          <note key="40" pos="192" len="12" vol="170" pan="0"/>
          <note key="40" pos="204" len="12" vol="170" pan="0"/>
          <note key="47" pos="216" len="24" vol="170" pan="0"/>
          <note key="40" pos="216" len="24" vol="170" pan="0"/>
          <note key="0" pos="216" len="12" vol="170" pan="0"/>
          <note key="1" pos="228" len="12" vol="170" pan="0"/>
          <note key="40" pos="240" len="12" vol="170" pan="0"/>
          <note key="40" pos="252" len="12" vol="170" pan="0"/>
          <note key="40" pos="264" len="12" vol="170" pan="0"/>
          <note key="40" pos="276" len="12" vol="170" pan="0"/>
          <note key="43" pos="288" len="24" vol="170" pan="0"/>
          <note key="0" pos="288" len="12" vol="170" pan="0"/>
          <note key="42" pos="312" len="24" vol="170" pan="0"/>
          <note key="1" pos="324" len="24" vol="170" pan="0"/>
          <note key="40" pos="336" len="24" vol="170" pan="0"/>
          <note key="38" pos="360" len="24" vol="170" pan="0"/>
          <note key="43" pos="384" len="24" vol="170" pan="0"/>
          <note key="36" pos="384" len="24" vol="170" pan="0"/>
          <note key="0" pos="384" len="12" vol="170" pan="0"/>
          <note key="1" pos="396" len="12" vol="170" pan="0"/>
          <note key="36" pos="408" len="12" vol="170" pan="0"/>
          <note key="36" pos="420" len="12" vol="170" pan="0"/>
          <note key="36" pos="432" len="12" vol="170" pan="0"/>
          <note key="36" pos="444" len="12" vol="170" pan="0"/>
          <note key="43" pos="456" len="24" vol="170" pan="0"/>
          <note key="36" pos="456" len="24" vol="170" pan="0"/>
          <note key="0" pos="456" len="12" vol="170" pan="0"/>
          <note key="1" pos="468" len="12" vol="170" pan="0"/>
          <note key="36" pos="480" len="12" vol="170" pan="0"/>
          <note key="36" pos="492" len="12" vol="170" pan="0"/>
          <note key="36" pos="504" len="12" vol="170" pan="0"/>
          <note key="36" pos="516" len="12" vol="170" pan="0"/>
          <note key="45" pos="528" len="24" vol="170" pan="0"/>
          <note key="38" pos="528" len="24" vol="170" pan="0"/>
          <note key="0" pos="528" len="12" vol="170" pan="0"/>
          <note key="1" pos="540" len="12" vol="170" pan="0"/>
          <note key="38" pos="552" len="12" vol="170" pan="0"/>
          <note key="38" pos="564" len="12" vol="170" pan="0"/>
          <note key="38" pos="576" len="12" vol="170" pan="0"/>
          <note key="38" pos="588" len="12" vol="170" pan="0"/>
          <note key="45" pos="600" len="24" vol="170" pan="0"/>
          <note key="38" pos="600" len="24" vol="170" pan="0"/>
          <note key="0" pos="600" len="12" vol="170" pan="0"/>
          <note key="1" pos="612" len="12" vol="170" pan="0"/>
          <note key="38" pos="624" len="12" vol="170" pan="0"/>
          <note key="38" pos="636" len="12" vol="170" pan="0"/>
          <note key="38" pos="648" len="12" vol="170" pan="0"/>
          <note key="38" pos="660" len="12" vol="170" pan="0"/>
          <note key="45" pos="672" len="24" vol="170" pan="0"/>
          <note key="38" pos="672" len="24" vol="170" pan="0"/>
          <note key="0" pos="672" len="12" vol="170" pan="0"/>
          <note key="1" pos="684" len="12" vol="170" pan="0"/>
          <note key="38" pos="696" len="12" vol="170" pan="0"/>
          <note key="38" pos="708" len="12" vol="170" pan="0"/>
          <note key="45" pos="720" len="24" vol="170" pan="0"/>
          <note key="38" pos="720" len="24" vol="170" pan="0"/>
          <note key="0" pos="720" len="12" vol="170" pan="0"/>
          <note key="1" pos="732" len="12" vol="170" pan="0"/>
          <note key="38" pos="744" len="12" vol="170" pan="0"/>
          <note key="38" pos="756" len="12" vol="170" pan="0"/>
        </pattern>
        <pattern steps="16" muted="0" type="1" pos="8064" name="Rhythm Guitar">
          <note key="43" pos="0" len="24" vol="197" pan="0"/>
          <note key="36" pos="0" len="24" vol="197" pan="0"/>
          <note key="0" pos="0" len="12" vol="157" pan="0"/>
          <note key="1" pos="12" len="12" vol="157" pan="0"/>
          <note key="36" pos="24" len="12" vol="197" pan="0"/>
          <note key="36" pos="36" len="12" vol="197" pan="0"/>
          <note key="36" pos="48" len="12" vol="157" pan="0"/>
          <note key="36" pos="60" len="12" vol="157" pan="0"/>
          <note key="36" pos="72" len="12" vol="157" pan="0"/>
          <note key="36" pos="84" len="12" vol="157" pan="0"/>
          <note key="36" pos="96" len="12" vol="157" pan="0"/>
          <note key="36" pos="108" len="12" vol="157" pan="0"/>
          <note key="36" pos="120" len="12" vol="157" pan="0"/>
          <note key="36" pos="132" len="12" vol="157" pan="0"/>
          <note key="36" pos="144" len="12" vol="157" pan="0"/>
          <note key="36" pos="156" len="12" vol="157" pan="0"/>
          <note key="36" pos="168" len="12" vol="157" pan="0"/>
          <note key="36" pos="180" len="12" vol="157" pan="0"/>
          <note key="36" pos="192" len="12" vol="157" pan="0"/>
          <note key="36" pos="204" len="12" vol="157" pan="0"/>
          <note key="36" pos="216" len="12" vol="157" pan="0"/>
          <note key="36" pos="228" len="12" vol="157" pan="0"/>
          <note key="36" pos="240" len="12" vol="157" pan="0"/>
          <note key="36" pos="252" len="12" vol="157" pan="0"/>
          <note key="36" pos="264" len="12" vol="157" pan="0"/>
          <note key="36" pos="276" len="12" vol="157" pan="0"/>
          <note key="36" pos="288" len="12" vol="157" pan="0"/>
          <note key="36" pos="300" len="12" vol="157" pan="0"/>
          <note key="36" pos="312" len="12" vol="157" pan="0"/>
          <note key="36" pos="324" len="12" vol="157" pan="0"/>
          <note key="36" pos="336" len="12" vol="157" pan="0"/>
          <note key="36" pos="348" len="12" vol="157" pan="0"/>
          <note key="36" pos="360" len="12" vol="157" pan="0"/>
          <note key="36" pos="372" len="12" vol="157" pan="0"/>
          <note key="51" pos="384" len="24" vol="197" pan="0"/>
          <note key="44" pos="384" len="24" vol="197" pan="0"/>
          <note key="0" pos="384" len="12" vol="157" pan="0"/>
          <note key="1" pos="396" len="12" vol="157" pan="0"/>
          <note key="44" pos="408" len="12" vol="157" pan="0"/>
          <note key="44" pos="420" len="12" vol="157" pan="0"/>
          <note key="44" pos="432" len="12" vol="157" pan="0"/>
          <note key="44" pos="444" len="12" vol="157" pan="0"/>
          <note key="44" pos="456" len="12" vol="157" pan="0"/>
          <note key="44" pos="468" len="12" vol="157" pan="0"/>
          <note key="44" pos="480" len="12" vol="157" pan="0"/>
          <note key="44" pos="492" len="12" vol="157" pan="0"/>
          <note key="44" pos="504" len="12" vol="157" pan="0"/>
          <note key="44" pos="516" len="12" vol="157" pan="0"/>
          <note key="53" pos="528" len="24" vol="197" pan="0"/>
          <note key="46" pos="528" len="24" vol="197" pan="0"/>
          <note key="0" pos="528" len="12" vol="157" pan="0"/>
          <note key="1" pos="540" len="12" vol="157" pan="0"/>
          <note key="46" pos="552" len="12" vol="157" pan="0"/>
          <note key="46" pos="564" len="12" vol="157" pan="0"/>
          <note key="46" pos="576" len="12" vol="157" pan="0"/>
          <note key="46" pos="588" len="12" vol="157" pan="0"/>
          <note key="46" pos="600" len="12" vol="157" pan="0"/>
          <note key="46" pos="612" len="12" vol="157" pan="0"/>
          <note key="46" pos="624" len="12" vol="157" pan="0"/>
          <note key="46" pos="636" len="12" vol="157" pan="0"/>
          <note key="46" pos="648" len="12" vol="157" pan="0"/>
          <note key="46" pos="660" len="12" vol="157" pan="0"/>
          <note key="46" pos="672" len="12" vol="157" pan="0"/>
          <note key="46" pos="684" len="12" vol="157" pan="0"/>
          <note key="46" pos="696" len="12" vol="157" pan="0"/>
          <note key="46" pos="708" len="12" vol="157" pan="0"/>
          <note key="46" pos="720" len="12" vol="157" pan="0"/>
          <note key="46" pos="732" len="12" vol="157" pan="0"/>
          <note key="46" pos="744" len="12" vol="157" pan="0"/>
          <note key="46" pos="756" len="12" vol="157" pan="0"/>
        </pattern>
        <pattern steps="16" muted="0" type="1" pos="13440" name="">
          <note key="39" pos="0" len="36" vol="193" pan="0"/>
          <note key="1" pos="0" len="24" vol="151" pan="0"/>
          <note key="39" pos="36" len="36" vol="193" pan="0"/>
          <note key="39" pos="72" len="36" vol="193" pan="0"/>
          <note key="39" pos="108" len="36" vol="193" pan="0"/>
          <note key="39" pos="144" len="36" vol="193" pan="0"/>
          <note key="39" pos="180" len="36" vol="193" pan="0"/>
          <note key="39" pos="216" len="36" vol="193" pan="0"/>
          <note key="39" pos="252" len="36" vol="193" pan="0"/>
          <note key="43" pos="288" len="24" vol="193" pan="0"/>
          <note key="0" pos="288" len="24" vol="151" pan="0"/>
          <note key="39" pos="312" len="24" vol="193" pan="0"/>
          <note key="39" pos="336" len="12" vol="193" pan="0"/>
          <note key="1" pos="336" len="24" vol="151" pan="0"/>
          <note key="39" pos="348" len="12" vol="193" pan="0"/>
          <note key="39" pos="360" len="12" vol="193" pan="0"/>
          <note key="39" pos="372" len="12" vol="193" pan="0"/>
        </pattern>
        <pattern steps="16" muted="0" type="1" pos="25344" name="">
          <note key="45" pos="0" len="24" vol="170" pan="0"/>
          <note key="38" pos="0" len="24" vol="170" pan="0"/>
          <note key="0" pos="0" len="12" vol="170" pan="0"/>
          <note key="1" pos="12" len="12" vol="170" pan="0"/>
          <note key="38" pos="24" len="12" vol="170" pan="0"/>
          <note key="38" pos="36" len="12" vol="170" pan="0"/>
          <note key="38" pos="48" len="12" vol="170" pan="0"/>
          <note key="38" pos="60" len="12" vol="170" pan="0"/>
          <note key="45" pos="72" len="24" vol="170" pan="0"/>
          <note key="38" pos="72" len="24" vol="170" pan="0"/>
          <note key="0" pos="72" len="12" vol="170" pan="0"/>
          <note key="1" pos="84" len="12" vol="170" pan="0"/>
          <note key="38" pos="96" len="12" vol="170" pan="0"/>
          <note key="38" pos="108" len="12" vol="170" pan="0"/>
          <note key="38" pos="120" len="12" vol="170" pan="0"/>
          <note key="38" pos="132" len="12" vol="170" pan="0"/>
          <note key="45" pos="144" len="24" vol="170" pan="0"/>
          <note key="38" pos="144" len="24" vol="170" pan="0"/>
          <note key="0" pos="144" len="12" vol="170" pan="0"/>
          <note key="1" pos="156" len="12" vol="170" pan="0"/>
          <note key="38" pos="168" len="12" vol="170" pan="0"/>
          <note key="38" pos="180" len="12" vol="170" pan="0"/>
          <note key="38" pos="192" len="12" vol="170" pan="0"/>
          <note key="38" pos="204" len="12" vol="170" pan="0"/>
          <note key="45" pos="216" len="24" vol="170" pan="0"/>
          <note key="38" pos="216" len="24" vol="170" pan="0"/>
          <note key="0" pos="216" len="12" vol="170" pan="0"/>
          <note key="1" pos="228" len="12" vol="170" pan="0"/>
          <note key="38" pos="240" len="12" vol="170" pan="0"/>
          <note key="38" pos="252" len="12" vol="170" pan="0"/>
          <note key="38" pos="264" len="12" vol="170" pan="0"/>
          <note key="38" pos="276" len="12" vol="170" pan="0"/>
          <note key="41" pos="288" len="24" vol="170" pan="0"/>
          <note key="0" pos="288" len="12" vol="170" pan="0"/>
          <note key="40" pos="312" len="24" vol="170" pan="0"/>
          <note key="1" pos="324" len="24" vol="170" pan="0"/>
          <note key="38" pos="336" len="24" vol="170" pan="0"/>
          <note key="36" pos="360" len="24" vol="170" pan="0"/>
          <note key="53" pos="384" len="24" vol="170" pan="0"/>
          <note key="46" pos="384" len="24" vol="170" pan="0"/>
          <note key="0" pos="384" len="12" vol="170" pan="0"/>
          <note key="1" pos="396" len="12" vol="170" pan="0"/>
          <note key="46" pos="408" len="12" vol="170" pan="0"/>
          <note key="46" pos="420" len="12" vol="170" pan="0"/>
          <note key="46" pos="432" len="12" vol="170" pan="0"/>
          <note key="46" pos="444" len="12" vol="170" pan="0"/>
          <note key="53" pos="456" len="24" vol="170" pan="0"/>
          <note key="46" pos="456" len="24" vol="170" pan="0"/>
          <note key="0" pos="456" len="12" vol="170" pan="0"/>
          <note key="1" pos="468" len="12" vol="170" pan="0"/>
          <note key="46" pos="480" len="12" vol="170" pan="0"/>
          <note key="46" pos="492" len="12" vol="170" pan="0"/>
          <note key="46" pos="504" len="12" vol="170" pan="0"/>
          <note key="46" pos="516" len="12" vol="170" pan="0"/>
          <note key="43" pos="528" len="24" vol="170" pan="0"/>
          <note key="36" pos="528" len="24" vol="170" pan="0"/>
          <note key="0" pos="528" len="12" vol="170" pan="0"/>
          <note key="1" pos="540" len="12" vol="170" pan="0"/>
          <note key="36" pos="552" len="12" vol="170" pan="0"/>
          <note key="36" pos="564" len="12" vol="170" pan="0"/>
          <note key="36" pos="576" len="12" vol="170" pan="0"/>
          <note key="36" pos="588" len="12" vol="170" pan="0"/>
          <note key="43" pos="600" len="24" vol="170" pan="0"/>
          <note key="36" pos="600" len="24" vol="170" pan="0"/>
          <note key="0" pos="600" len="12" vol="170" pan="0"/>
          <note key="1" pos="612" len="12" vol="170" pan="0"/>
          <note key="36" pos="624" len="12" vol="170" pan="0"/>
          <note key="36" pos="636" len="12" vol="170" pan="0"/>
          <note key="36" pos="648" len="12" vol="170" pan="0"/>
          <note key="36" pos="660" len="12" vol="170" pan="0"/>
          <note key="43" pos="672" len="24" vol="170" pan="0"/>
          <note key="36" pos="672" len="24" vol="170" pan="0"/>
          <note key="0" pos="672" len="12" vol="170" pan="0"/>
          <note key="1" pos="684" len="12" vol="170" pan="0"/>
          <note key="36" pos="696" len="12" vol="170" pan="0"/>
          <note key="36" pos="708" len="12" vol="170" pan="0"/>
          <note key="43" pos="720" len="24" vol="170" pan="0"/>
          <note key="36" pos="720" len="24" vol="170" pan="0"/>
          <note key="0" pos="720" len="12" vol="170" pan="0"/>
          <note key="1" pos="732" len="12" vol="170" pan="0"/>
          <note key="36" pos="744" len="12" vol="170" pan="0"/>
          <note key="36" pos="756" len="12" vol="170" pan="0"/>
        </pattern>
        <pattern steps="16" muted="0" type="1" pos="26112" name="">
          <note key="45" pos="0" len="24" vol="170" pan="0"/>
          <note key="38" pos="0" len="24" vol="170" pan="0"/>
          <note key="0" pos="0" len="12" vol="170" pan="0"/>
          <note key="1" pos="12" len="12" vol="170" pan="0"/>
          <note key="38" pos="24" len="12" vol="170" pan="0"/>
          <note key="38" pos="36" len="12" vol="170" pan="0"/>
          <note key="38" pos="48" len="12" vol="170" pan="0"/>
          <note key="38" pos="60" len="12" vol="170" pan="0"/>
          <note key="45" pos="72" len="24" vol="170" pan="0"/>
          <note key="38" pos="72" len="24" vol="170" pan="0"/>
          <note key="0" pos="72" len="12" vol="170" pan="0"/>
          <note key="1" pos="84" len="12" vol="170" pan="0"/>
          <note key="38" pos="96" len="12" vol="170" pan="0"/>
          <note key="38" pos="108" len="12" vol="170" pan="0"/>
          <note key="38" pos="120" len="12" vol="170" pan="0"/>
          <note key="38" pos="132" len="12" vol="170" pan="0"/>
          <note key="45" pos="144" len="24" vol="170" pan="0"/>
          <note key="38" pos="144" len="24" vol="170" pan="0"/>
          <note key="0" pos="144" len="12" vol="170" pan="0"/>
          <note key="1" pos="156" len="12" vol="170" pan="0"/>
          <note key="38" pos="168" len="12" vol="170" pan="0"/>
          <note key="38" pos="180" len="12" vol="170" pan="0"/>
          <note key="38" pos="192" len="12" vol="170" pan="0"/>
          <note key="38" pos="204" len="12" vol="170" pan="0"/>
          <note key="45" pos="216" len="24" vol="170" pan="0"/>
          <note key="38" pos="216" len="24" vol="170" pan="0"/>
          <note key="0" pos="216" len="12" vol="170" pan="0"/>
          <note key="1" pos="228" len="12" vol="170" pan="0"/>
          <note key="38" pos="240" len="12" vol="170" pan="0"/>
          <note key="38" pos="252" len="12" vol="170" pan="0"/>
          <note key="38" pos="264" len="12" vol="170" pan="0"/>
          <note key="38" pos="276" len="12" vol="170" pan="0"/>
          <note key="41" pos="288" len="24" vol="170" pan="0"/>
          <note key="0" pos="288" len="12" vol="170" pan="0"/>
          <note key="40" pos="312" len="24" vol="170" pan="0"/>
          <note key="1" pos="324" len="24" vol="170" pan="0"/>
          <note key="38" pos="336" len="24" vol="170" pan="0"/>
          <note key="36" pos="360" len="24" vol="170" pan="0"/>
          <note key="53" pos="384" len="24" vol="170" pan="0"/>
          <note key="46" pos="384" len="24" vol="170" pan="0"/>
          <note key="0" pos="384" len="12" vol="170" pan="0"/>
          <note key="1" pos="396" len="12" vol="170" pan="0"/>
          <note key="46" pos="408" len="12" vol="170" pan="0"/>
          <note key="46" pos="420" len="12" vol="170" pan="0"/>
          <note key="46" pos="432" len="12" vol="170" pan="0"/>
          <note key="46" pos="444" len="12" vol="170" pan="0"/>
          <note key="53" pos="456" len="24" vol="170" pan="0"/>
          <note key="46" pos="456" len="24" vol="170" pan="0"/>
          <note key="0" pos="456" len="12" vol="170" pan="0"/>
          <note key="1" pos="468" len="12" vol="170" pan="0"/>
          <note key="46" pos="480" len="12" vol="170" pan="0"/>
          <note key="46" pos="492" len="12" vol="170" pan="0"/>
          <note key="46" pos="504" len="12" vol="170" pan="0"/>
          <note key="46" pos="516" len="12" vol="170" pan="0"/>
          <note key="43" pos="528" len="24" vol="170" pan="0"/>
          <note key="36" pos="528" len="24" vol="170" pan="0"/>
          <note key="0" pos="528" len="12" vol="170" pan="0"/>
          <note key="1" pos="540" len="12" vol="170" pan="0"/>
          <note key="36" pos="552" len="12" vol="170" pan="0"/>
          <note key="36" pos="564" len="12" vol="170" pan="0"/>
          <note key="36" pos="576" len="12" vol="170" pan="0"/>
          <note key="36" pos="588" len="12" vol="170" pan="0"/>
          <note key="43" pos="600" len="24" vol="170" pan="0"/>
          <note key="36" pos="600" len="24" vol="170" pan="0"/>
          <note key="0" pos="600" len="12" vol="170" pan="0"/>
          <note key="1" pos="612" len="12" vol="170" pan="0"/>
          <note key="36" pos="624" len="12" vol="170" pan="0"/>
          <note key="36" pos="636" len="12" vol="170" pan="0"/>
          <note key="36" pos="648" len="12" vol="170" pan="0"/>
          <note key="36" pos="660" len="12" vol="170" pan="0"/>
          <note key="43" pos="672" len="48" vol="170" pan="0"/>
          <note key="36" pos="672" len="48" vol="170" pan="0"/>
          <note key="0" pos="672" len="12" vol="170" pan="0"/>
          <note key="45" pos="720" len="48" vol="170" pan="0"/>
          <note key="38" pos="720" len="48" vol="170" pan="0"/>
        </pattern>
        <pattern steps="16" muted="0" type="1" pos="27648" name="">
          <note key="47" pos="0" len="24" vol="170" pan="0"/>
          <note key="40" pos="0" len="24" vol="170" pan="0"/>
          <note key="0" pos="0" len="12" vol="170" pan="0"/>
          <note key="1" pos="12" len="12" vol="170" pan="0"/>
          <note key="40" pos="24" len="12" vol="170" pan="0"/>
          <note key="40" pos="36" len="12" vol="170" pan="0"/>
          <note key="40" pos="48" len="12" vol="170" pan="0"/>
          <note key="40" pos="60" len="12" vol="170" pan="0"/>
          <note key="47" pos="72" len="24" vol="170" pan="0"/>
          <note key="40" pos="72" len="24" vol="170" pan="0"/>
          <note key="0" pos="72" len="12" vol="170" pan="0"/>
          <note key="1" pos="84" len="12" vol="170" pan="0"/>
          <note key="40" pos="96" len="12" vol="170" pan="0"/>
          <note key="40" pos="108" len="12" vol="170" pan="0"/>
          <note key="40" pos="120" len="12" vol="170" pan="0"/>
          <note key="40" pos="132" len="12" vol="170" pan="0"/>
          <note key="47" pos="144" len="24" vol="170" pan="0"/>
          <note key="40" pos="144" len="24" vol="170" pan="0"/>
          <note key="0" pos="144" len="12" vol="170" pan="0"/>
          <note key="1" pos="156" len="12" vol="170" pan="0"/>
          <note key="40" pos="168" len="12" vol="170" pan="0"/>
          <note key="40" pos="180" len="12" vol="170" pan="0"/>
          <note key="40" pos="192" len="12" vol="170" pan="0"/>
          <note key="40" pos="204" len="12" vol="170" pan="0"/>
          <note key="47" pos="216" len="24" vol="170" pan="0"/>
          <note key="40" pos="216" len="24" vol="170" pan="0"/>
          <note key="0" pos="216" len="12" vol="170" pan="0"/>
          <note key="1" pos="228" len="12" vol="170" pan="0"/>
          <note key="40" pos="240" len="12" vol="170" pan="0"/>
          <note key="40" pos="252" len="12" vol="170" pan="0"/>
          <note key="40" pos="264" len="12" vol="170" pan="0"/>
          <note key="40" pos="276" len="12" vol="170" pan="0"/>
          <note key="43" pos="288" len="24" vol="170" pan="0"/>
          <note key="0" pos="288" len="12" vol="170" pan="0"/>
          <note key="42" pos="312" len="24" vol="170" pan="0"/>
          <note key="1" pos="324" len="24" vol="170" pan="0"/>
          <note key="40" pos="336" len="24" vol="170" pan="0"/>
          <note key="38" pos="360" len="24" vol="170" pan="0"/>
          <note key="43" pos="384" len="24" vol="170" pan="0"/>
          <note key="36" pos="384" len="24" vol="170" pan="0"/>
          <note key="0" pos="384" len="12" vol="170" pan="0"/>
          <note key="1" pos="396" len="12" vol="170" pan="0"/>
          <note key="36" pos="408" len="12" vol="170" pan="0"/>
          <note key="36" pos="420" len="12" vol="170" pan="0"/>
          <note key="36" pos="432" len="12" vol="170" pan="0"/>
          <note key="36" pos="444" len="12" vol="170" pan="0"/>
          <note key="43" pos="456" len="24" vol="170" pan="0"/>
          <note key="36" pos="456" len="24" vol="170" pan="0"/>
          <note key="0" pos="456" len="12" vol="170" pan="0"/>
          <note key="1" pos="468" len="12" vol="170" pan="0"/>
          <note key="36" pos="480" len="12" vol="170" pan="0"/>
          <note key="36" pos="492" len="12" vol="170" pan="0"/>
          <note key="36" pos="504" len="12" vol="170" pan="0"/>
          <note key="36" pos="516" len="12" vol="170" pan="0"/>
          <note key="45" pos="528" len="24" vol="170" pan="0"/>
          <note key="38" pos="528" len="24" vol="170" pan="0"/>
          <note key="0" pos="528" len="12" vol="170" pan="0"/>
          <note key="1" pos="540" len="12" vol="170" pan="0"/>
          <note key="38" pos="552" len="12" vol="170" pan="0"/>
          <note key="38" pos="564" len="12" vol="170" pan="0"/>
          <note key="38" pos="576" len="12" vol="170" pan="0"/>
          <note key="38" pos="588" len="12" vol="170" pan="0"/>
          <note key="45" pos="600" len="24" vol="170" pan="0"/>
          <note key="38" pos="600" len="24" vol="170" pan="0"/>
          <note key="0" pos="600" len="12" vol="170" pan="0"/>
          <note key="1" pos="612" len="12" vol="170" pan="0"/>
          <note key="38" pos="624" len="12" vol="170" pan="0"/>
          <note key="38" pos="636" len="12" vol="170" pan="0"/>
          <note key="38" pos="648" len="12" vol="170" pan="0"/>
          <note key="38" pos="660" len="12" vol="170" pan="0"/>
          <note key="45" pos="672" len="24" vol="170" pan="0"/>
          <note key="38" pos="672" len="24" vol="170" pan="0"/>
          <note key="0" pos="672" len="12" vol="170" pan="0"/>
          <note key="1" pos="684" len="12" vol="170" pan="0"/>
          <note key="38" pos="696" len="12" vol="170" pan="0"/>
          <note key="38" pos="708" len="12" vol="170" pan="0"/>
          <note key="45" pos="720" len="24" vol="170" pan="0"/>
          <note key="38" pos="720" len="24" vol="170" pan="0"/>
          <note key="0" pos="720" len="12" vol="170" pan="0"/>
          <note key="1" pos="732" len="12" vol="170" pan="0"/>
          <note key="38" pos="744" len="12" vol="170" pan="0"/>
          <note key="38" pos="756" len="12" vol="170" pan="0"/>
        </pattern>
        <pattern steps="16" muted="0" type="1" pos="28416" name="">
          <note key="47" pos="0" len="24" vol="170" pan="0"/>
          <note key="40" pos="0" len="24" vol="170" pan="0"/>
          <note key="0" pos="0" len="12" vol="170" pan="0"/>
          <note key="1" pos="12" len="12" vol="170" pan="0"/>
          <note key="40" pos="24" len="12" vol="170" pan="0"/>
          <note key="40" pos="36" len="12" vol="170" pan="0"/>
          <note key="40" pos="48" len="12" vol="170" pan="0"/>
          <note key="40" pos="60" len="12" vol="170" pan="0"/>
          <note key="47" pos="72" len="24" vol="170" pan="0"/>
          <note key="40" pos="72" len="24" vol="170" pan="0"/>
          <note key="0" pos="72" len="12" vol="170" pan="0"/>
          <note key="1" pos="84" len="12" vol="170" pan="0"/>
          <note key="40" pos="96" len="12" vol="170" pan="0"/>
          <note key="40" pos="108" len="12" vol="170" pan="0"/>
          <note key="40" pos="120" len="12" vol="170" pan="0"/>
          <note key="40" pos="132" len="12" vol="170" pan="0"/>
          <note key="47" pos="144" len="24" vol="170" pan="0"/>
          <note key="40" pos="144" len="24" vol="170" pan="0"/>
          <note key="0" pos="144" len="12" vol="170" pan="0"/>
          <note key="1" pos="156" len="12" vol="170" pan="0"/>
          <note key="40" pos="168" len="12" vol="170" pan="0"/>
          <note key="40" pos="180" len="12" vol="170" pan="0"/>
          <note key="40" pos="192" len="12" vol="170" pan="0"/>
          <note key="40" pos="204" len="12" vol="170" pan="0"/>
          <note key="47" pos="216" len="24" vol="170" pan="0"/>
          <note key="40" pos="216" len="24" vol="170" pan="0"/>
          <note key="0" pos="216" len="12" vol="170" pan="0"/>
          <note key="1" pos="228" len="12" vol="170" pan="0"/>
          <note key="40" pos="240" len="12" vol="170" pan="0"/>
          <note key="40" pos="252" len="12" vol="170" pan="0"/>
          <note key="40" pos="264" len="12" vol="170" pan="0"/>
          <note key="40" pos="276" len="12" vol="170" pan="0"/>
          <note key="43" pos="288" len="24" vol="170" pan="0"/>
          <note key="0" pos="288" len="12" vol="170" pan="0"/>
          <note key="42" pos="312" len="24" vol="170" pan="0"/>
          <note key="1" pos="324" len="24" vol="170" pan="0"/>
          <note key="40" pos="336" len="24" vol="170" pan="0"/>
          <note key="38" pos="360" len="24" vol="170" pan="0"/>
          <note key="43" pos="384" len="24" vol="170" pan="0"/>
          <note key="36" pos="384" len="24" vol="170" pan="0"/>
          <note key="0" pos="384" len="12" vol="170" pan="0"/>
          <note key="1" pos="396" len="12" vol="170" pan="0"/>
          <note key="36" pos="408" len="12" vol="170" pan="0"/>
          <note key="36" pos="420" len="12" vol="170" pan="0"/>
          <note key="36" pos="432" len="12" vol="170" pan="0"/>
          <note key="36" pos="444" len="12" vol="170" pan="0"/>
          <note key="43" pos="456" len="24" vol="170" pan="0"/>
          <note key="36" pos="456" len="24" vol="170" pan="0"/>
          <note key="0" pos="456" len="12" vol="170" pan="0"/>
          <note key="1" pos="468" len="12" vol="170" pan="0"/>
          <note key="36" pos="480" len="12" vol="170" pan="0"/>
          <note key="36" pos="492" len="12" vol="170" pan="0"/>
          <note key="36" pos="504" len="12" vol="170" pan="0"/>
          <note key="36" pos="516" len="12" vol="170" pan="0"/>
          <note key="45" pos="528" len="24" vol="170" pan="0"/>
          <note key="38" pos="528" len="24" vol="170" pan="0"/>
          <note key="0" pos="528" len="12" vol="170" pan="0"/>
          <note key="1" pos="540" len="12" vol="170" pan="0"/>
          <note key="38" pos="552" len="12" vol="170" pan="0"/>
          <note key="38" pos="564" len="12" vol="170" pan="0"/>
          <note key="38" pos="576" len="12" vol="170" pan="0"/>
          <note key="38" pos="588" len="12" vol="170" pan="0"/>
          <note key="45" pos="600" len="24" vol="170" pan="0"/>
          <note key="38" pos="600" len="24" vol="170" pan="0"/>
          <note key="0" pos="600" len="12" vol="170" pan="0"/>
          <note key="1" pos="612" len="12" vol="170" pan="0"/>
          <note key="38" pos="624" len="12" vol="170" pan="0"/>
          <note key="38" pos="636" len="12" vol="170" pan="0"/>
          <note key="38" pos="648" len="12" vol="170" pan="0"/>
          <note key="38" pos="660" len="12" vol="170" pan="0"/>
          <note key="45" pos="672" len="24" vol="170" pan="0"/>
          <note key="38" pos="672" len="24" vol="170" pan="0"/>
          <note key="0" pos="672" len="12" vol="170" pan="0"/>
          <note key="1" pos="684" len="12" vol="170" pan="0"/>
          <note key="38" pos="696" len="12" vol="170" pan="0"/>
          <note key="38" pos="708" len="12" vol="170" pan="0"/>
          <note key="45" pos="720" len="24" vol="170" pan="0"/>
          <note key="38" pos="720" len="24" vol="170" pan="0"/>
          <note key="0" pos="720" len="12" vol="170" pan="0"/>
          <note key="1" pos="732" len="12" vol="170" pan="0"/>
          <note key="38" pos="744" len="12" vol="170" pan="0"/>
          <note key="38" pos="756" len="12" vol="170" pan="0"/>
        </pattern>
        <pattern steps="16" muted="0" type="1" pos="29184" name="">
          <note key="47" pos="0" len="24" vol="170" pan="0"/>
          <note key="40" pos="0" len="24" vol="170" pan="0"/>
          <note key="0" pos="0" len="12" vol="170" pan="0"/>
          <note key="1" pos="12" len="12" vol="170" pan="0"/>
          <note key="40" pos="24" len="12" vol="170" pan="0"/>
          <note key="40" pos="36" len="12" vol="170" pan="0"/>
          <note key="40" pos="48" len="12" vol="170" pan="0"/>
          <note key="40" pos="60" len="12" vol="170" pan="0"/>
          <note key="47" pos="72" len="24" vol="170" pan="0"/>
          <note key="40" pos="72" len="24" vol="170" pan="0"/>
          <note key="0" pos="72" len="12" vol="170" pan="0"/>
          <note key="1" pos="84" len="12" vol="170" pan="0"/>
          <note key="40" pos="96" len="12" vol="170" pan="0"/>
          <note key="40" pos="108" len="12" vol="170" pan="0"/>
          <note key="40" pos="120" len="12" vol="170" pan="0"/>
          <note key="40" pos="132" len="12" vol="170" pan="0"/>
          <note key="47" pos="144" len="24" vol="170" pan="0"/>
          <note key="40" pos="144" len="24" vol="170" pan="0"/>
          <note key="0" pos="144" len="12" vol="170" pan="0"/>
          <note key="1" pos="156" len="12" vol="170" pan="0"/>
          <note key="40" pos="168" len="12" vol="170" pan="0"/>
          <note key="40" pos="180" len="12" vol="170" pan="0"/>
          <note key="40" pos="192" len="12" vol="170" pan="0"/>
          <note key="40" pos="204" len="12" vol="170" pan="0"/>
          <note key="47" pos="216" len="24" vol="170" pan="0"/>
          <note key="40" pos="216" len="24" vol="170" pan="0"/>
          <note key="0" pos="216" len="12" vol="170" pan="0"/>
          <note key="1" pos="228" len="12" vol="170" pan="0"/>
          <note key="40" pos="240" len="12" vol="170" pan="0"/>
          <note key="40" pos="252" len="12" vol="170" pan="0"/>
          <note key="40" pos="264" len="12" vol="170" pan="0"/>
          <note key="40" pos="276" len="12" vol="170" pan="0"/>
          <note key="43" pos="288" len="24" vol="170" pan="0"/>
          <note key="0" pos="288" len="12" vol="170" pan="0"/>
          <note key="42" pos="312" len="24" vol="170" pan="0"/>
          <note key="1" pos="324" len="24" vol="170" pan="0"/>
          <note key="40" pos="336" len="24" vol="170" pan="0"/>
          <note key="38" pos="360" len="24" vol="170" pan="0"/>
          <note key="43" pos="384" len="24" vol="170" pan="0"/>
          <note key="36" pos="384" len="24" vol="170" pan="0"/>
          <note key="0" pos="384" len="12" vol="170" pan="0"/>
          <note key="1" pos="396" len="12" vol="170" pan="0"/>
          <note key="36" pos="408" len="12" vol="170" pan="0"/>
          <note key="36" pos="420" len="12" vol="170" pan="0"/>
          <note key="36" pos="432" len="12" vol="170" pan="0"/>
          <note key="36" pos="444" len="12" vol="170" pan="0"/>
          <note key="43" pos="456" len="24" vol="170" pan="0"/>
          <note key="36" pos="456" len="24" vol="170" pan="0"/>
          <note key="0" pos="456" len="12" vol="170" pan="0"/>
          <note key="1" pos="468" len="12" vol="170" pan="0"/>
          <note key="36" pos="480" len="12" vol="170" pan="0"/>
          <note key="36" pos="492" len="12" vol="170" pan="0"/>
          <note key="36" pos="504" len="12" vol="170" pan="0"/>
          <note key="36" pos="516" len="12" vol="170" pan="0"/>
          <note key="45" pos="528" len="24" vol="170" pan="0"/>
          <note key="38" pos="528" len="24" vol="170" pan="0"/>
          <note key="0" pos="528" len="12" vol="170" pan="0"/>
          <note key="1" pos="540" len="12" vol="170" pan="0"/>
          <note key="38" pos="552" len="12" vol="170" pan="0"/>
          <note key="38" pos="564" len="12" vol="170" pan="0"/>
          <note key="38" pos="576" len="12" vol="170" pan="0"/>
          <note key="38" pos="588" len="12" vol="170" pan="0"/>
          <note key="45" pos="600" len="24" vol="170" pan="0"/>
          <note key="38" pos="600" len="24" vol="170" pan="0"/>
          <note key="0" pos="600" len="12" vol="170" pan="0"/>
          <note key="1" pos="612" len="12" vol="170" pan="0"/>
          <note key="38" pos="624" len="12" vol="170" pan="0"/>
          <note key="38" pos="636" len="12" vol="170" pan="0"/>
          <note key="38" pos="648" len="12" vol="170" pan="0"/>
          <note key="38" pos="660" len="12" vol="170" pan="0"/>
          <note key="45" pos="672" len="24" vol="170" pan="0"/>
          <note key="38" pos="672" len="24" vol="170" pan="0"/>
          <note key="0" pos="672" len="12" vol="170" pan="0"/>
          <note key="1" pos="684" len="12" vol="170" pan="0"/>
          <note key="38" pos="696" len="12" vol="170" pan="0"/>
          <note key="38" pos="708" len="12" vol="170" pan="0"/>
          <note key="45" pos="720" len="24" vol="170" pan="0"/>
          <note key="38" pos="720" len="24" vol="170" pan="0"/>
          <note key="0" pos="720" len="12" vol="170" pan="0"/>
          <note key="1" pos="732" len="12" vol="170" pan="0"/>
          <note key="38" pos="744" len="12" vol="170" pan="0"/>
          <note key="38" pos="756" len="12" vol="170" pan="0"/>
        </pattern>
        <pattern steps="16" muted="0" type="1" pos="13824" name="Rhythm Guitar">
          <note key="36" pos="0" len="12" vol="197" pan="0"/>
          <note key="0" pos="0" len="12" vol="197" pan="0"/>
          <note key="38" pos="12" len="12" vol="197" pan="0"/>
          <note key="38" pos="24" len="12" vol="197" pan="0"/>
          <note key="1" pos="24" len="12" vol="197" pan="0"/>
          <note key="38" pos="36" len="12" vol="197" pan="0"/>
          <note key="38" pos="48" len="12" vol="197" pan="0"/>
          <note key="38" pos="60" len="12" vol="197" pan="0"/>
          <note key="38" pos="72" len="12" vol="197" pan="0"/>
          <note key="38" pos="84" len="12" vol="197" pan="0"/>
          <note key="38" pos="96" len="12" vol="197" pan="0"/>
          <note key="38" pos="108" len="12" vol="197" pan="0"/>
          <note key="38" pos="120" len="12" vol="197" pan="0"/>
          <note key="38" pos="132" len="12" vol="197" pan="0"/>
          <note key="38" pos="144" len="12" vol="197" pan="0"/>
          <note key="38" pos="156" len="12" vol="197" pan="0"/>
          <note key="38" pos="168" len="12" vol="197" pan="0"/>
          <note key="38" pos="180" len="12" vol="197" pan="0"/>
          <note key="41" pos="192" len="12" vol="197" pan="0"/>
          <note key="0" pos="192" len="12" vol="197" pan="0"/>
          <note key="43" pos="204" len="12" vol="197" pan="0"/>
          <note key="43" pos="216" len="12" vol="197" pan="0"/>
          <note key="1" pos="216" len="12" vol="197" pan="0"/>
          <note key="43" pos="228" len="12" vol="197" pan="0"/>
          <note key="43" pos="240" len="12" vol="197" pan="0"/>
          <note key="43" pos="252" len="12" vol="197" pan="0"/>
          <note key="43" pos="264" len="12" vol="197" pan="0"/>
          <note key="43" pos="276" len="12" vol="197" pan="0"/>
          <note key="43" pos="288" len="12" vol="197" pan="0"/>
          <note key="43" pos="300" len="12" vol="197" pan="0"/>
          <note key="43" pos="312" len="12" vol="197" pan="0"/>
          <note key="43" pos="324" len="12" vol="197" pan="0"/>
          <note key="43" pos="336" len="12" vol="197" pan="0"/>
          <note key="43" pos="348" len="12" vol="197" pan="0"/>
          <note key="43" pos="360" len="12" vol="197" pan="0"/>
          <note key="43" pos="372" len="12" vol="197" pan="0"/>
        </pattern>
        <pattern steps="16" muted="0" type="1" pos="8832" name="">
          <note key="43" pos="0" len="24" vol="197" pan="0"/>
          <note key="36" pos="0" len="24" vol="197" pan="0"/>
          <note key="0" pos="0" len="12" vol="157" pan="0"/>
          <note key="1" pos="12" len="12" vol="157" pan="0"/>
          <note key="36" pos="24" len="12" vol="197" pan="0"/>
          <note key="36" pos="36" len="12" vol="197" pan="0"/>
          <note key="36" pos="48" len="12" vol="157" pan="0"/>
          <note key="36" pos="60" len="12" vol="157" pan="0"/>
          <note key="36" pos="72" len="12" vol="157" pan="0"/>
          <note key="36" pos="84" len="12" vol="157" pan="0"/>
          <note key="36" pos="96" len="12" vol="157" pan="0"/>
          <note key="36" pos="108" len="12" vol="157" pan="0"/>
          <note key="36" pos="120" len="12" vol="157" pan="0"/>
          <note key="36" pos="132" len="12" vol="157" pan="0"/>
          <note key="36" pos="144" len="12" vol="157" pan="0"/>
          <note key="36" pos="156" len="12" vol="157" pan="0"/>
          <note key="36" pos="168" len="12" vol="157" pan="0"/>
          <note key="36" pos="180" len="12" vol="157" pan="0"/>
          <note key="36" pos="192" len="12" vol="157" pan="0"/>
          <note key="36" pos="204" len="12" vol="157" pan="0"/>
          <note key="36" pos="216" len="12" vol="157" pan="0"/>
          <note key="36" pos="228" len="12" vol="157" pan="0"/>
          <note key="36" pos="240" len="12" vol="157" pan="0"/>
          <note key="36" pos="252" len="12" vol="157" pan="0"/>
          <note key="36" pos="264" len="12" vol="157" pan="0"/>
          <note key="36" pos="276" len="12" vol="157" pan="0"/>
          <note key="36" pos="288" len="12" vol="157" pan="0"/>
          <note key="36" pos="300" len="12" vol="157" pan="0"/>
          <note key="36" pos="312" len="12" vol="157" pan="0"/>
          <note key="36" pos="324" len="12" vol="157" pan="0"/>
          <note key="36" pos="336" len="12" vol="157" pan="0"/>
          <note key="36" pos="348" len="12" vol="157" pan="0"/>
          <note key="36" pos="360" len="12" vol="157" pan="0"/>
          <note key="36" pos="372" len="12" vol="157" pan="0"/>
          <note key="51" pos="384" len="24" vol="197" pan="0"/>
          <note key="44" pos="384" len="24" vol="197" pan="0"/>
          <note key="0" pos="384" len="12" vol="157" pan="0"/>
          <note key="1" pos="396" len="12" vol="157" pan="0"/>
          <note key="44" pos="408" len="12" vol="157" pan="0"/>
          <note key="44" pos="420" len="12" vol="157" pan="0"/>
          <note key="44" pos="432" len="12" vol="157" pan="0"/>
          <note key="44" pos="444" len="12" vol="157" pan="0"/>
          <note key="44" pos="456" len="12" vol="157" pan="0"/>
          <note key="44" pos="468" len="12" vol="157" pan="0"/>
          <note key="44" pos="480" len="12" vol="157" pan="0"/>
          <note key="44" pos="492" len="12" vol="157" pan="0"/>
          <note key="44" pos="504" len="12" vol="157" pan="0"/>
          <note key="44" pos="516" len="12" vol="157" pan="0"/>
          <note key="53" pos="528" len="24" vol="197" pan="0"/>
          <note key="46" pos="528" len="24" vol="197" pan="0"/>
          <note key="0" pos="528" len="12" vol="157" pan="0"/>
          <note key="1" pos="540" len="12" vol="157" pan="0"/>
          <note key="46" pos="552" len="12" vol="157" pan="0"/>
          <note key="46" pos="564" len="12" vol="157" pan="0"/>
          <note key="46" pos="576" len="12" vol="157" pan="0"/>
          <note key="46" pos="588" len="12" vol="157" pan="0"/>
          <note key="46" pos="600" len="12" vol="157" pan="0"/>
          <note key="46" pos="612" len="12" vol="157" pan="0"/>
          <note key="46" pos="624" len="12" vol="157" pan="0"/>
          <note key="46" pos="636" len="12" vol="157" pan="0"/>
          <note key="46" pos="648" len="12" vol="157" pan="0"/>
          <note key="46" pos="660" len="12" vol="157" pan="0"/>
          <note key="46" pos="672" len="12" vol="157" pan="0"/>
          <note key="46" pos="684" len="12" vol="157" pan="0"/>
          <note key="46" pos="696" len="12" vol="157" pan="0"/>
          <note key="46" pos="708" len="12" vol="157" pan="0"/>
          <note key="46" pos="720" len="12" vol="157" pan="0"/>
          <note key="46" pos="732" len="12" vol="157" pan="0"/>
          <note key="46" pos="744" len="12" vol="157" pan="0"/>
          <note key="46" pos="756" len="12" vol="157" pan="0"/>
        </pattern>
        <pattern steps="16" muted="0" type="1" pos="9600" name="">
          <note key="55" pos="0" len="12" vol="197" pan="0"/>
          <note key="51" pos="12" len="12" vol="197" pan="0"/>
          <note key="48" pos="24" len="12" vol="197" pan="0"/>
          <note key="51" pos="36" len="12" vol="197" pan="0"/>
          <note key="43" pos="48" len="12" vol="197" pan="0"/>
          <note key="48" pos="60" len="12" vol="197" pan="0"/>
          <note key="39" pos="72" len="12" vol="197" pan="0"/>
          <note key="43" pos="84" len="12" vol="197" pan="0"/>
          <note key="36" pos="96" len="12" vol="197" pan="0"/>
          <note key="43" pos="108" len="12" vol="197" pan="0"/>
          <note key="39" pos="120" len="12" vol="197" pan="0"/>
          <note key="43" pos="132" len="12" vol="197" pan="0"/>
          <note key="48" pos="144" len="12" vol="197" pan="0"/>
          <note key="55" pos="156" len="12" vol="197" pan="0"/>
          <note key="53" pos="168" len="12" vol="197" pan="0"/>
          <note key="51" pos="180" len="12" vol="197" pan="0"/>
          <note key="55" pos="192" len="12" vol="197" pan="0"/>
          <note key="51" pos="204" len="12" vol="197" pan="0"/>
          <note key="48" pos="216" len="12" vol="197" pan="0"/>
          <note key="51" pos="228" len="12" vol="197" pan="0"/>
          <note key="43" pos="240" len="12" vol="197" pan="0"/>
          <note key="48" pos="252" len="12" vol="197" pan="0"/>
          <note key="39" pos="264" len="12" vol="197" pan="0"/>
          <note key="43" pos="276" len="12" vol="197" pan="0"/>
          <note key="36" pos="288" len="12" vol="197" pan="0"/>
          <note key="43" pos="300" len="12" vol="197" pan="0"/>
          <note key="39" pos="312" len="12" vol="197" pan="0"/>
          <note key="43" pos="324" len="12" vol="197" pan="0"/>
          <note key="48" pos="336" len="12" vol="197" pan="0"/>
          <note key="55" pos="348" len="12" vol="197" pan="0"/>
          <note key="53" pos="360" len="12" vol="197" pan="0"/>
          <note key="51" pos="372" len="12" vol="197" pan="0"/>
          <note key="54" pos="384" len="12" vol="197" pan="0"/>
          <note key="49" pos="396" len="12" vol="197" pan="0"/>
          <note key="48" pos="408" len="12" vol="197" pan="0"/>
          <note key="49" pos="420" len="12" vol="197" pan="0"/>
          <note key="46" pos="432" len="12" vol="197" pan="0"/>
          <note key="49" pos="444" len="12" vol="197" pan="0"/>
          <note key="42" pos="456" len="12" vol="197" pan="0"/>
          <note key="49" pos="468" len="12" vol="197" pan="0"/>
          <note key="37" pos="480" len="12" vol="197" pan="0"/>
          <note key="49" pos="492" len="12" vol="197" pan="0"/>
          <note key="48" pos="504" len="12" vol="197" pan="0"/>
          <note key="46" pos="516" len="12" vol="197" pan="0"/>
          <note key="42" pos="528" len="12" vol="197" pan="0"/>
          <note key="46" pos="540" len="12" vol="197" pan="0"/>
          <note key="48" pos="552" len="12" vol="197" pan="0"/>
          <note key="53" pos="564" len="12" vol="197" pan="0"/>
          <note key="54" pos="576" len="12" vol="197" pan="0"/>
          <note key="49" pos="588" len="12" vol="197" pan="0"/>
          <note key="48" pos="600" len="12" vol="197" pan="0"/>
          <note key="49" pos="612" len="12" vol="197" pan="0"/>
          <note key="46" pos="624" len="12" vol="197" pan="0"/>
          <note key="49" pos="636" len="12" vol="197" pan="0"/>
          <note key="37" pos="648" len="12" vol="197" pan="0"/>
          <note key="49" pos="660" len="12" vol="197" pan="0"/>
          <note key="42" pos="672" len="12" vol="197" pan="0"/>
          <note key="49" pos="684" len="12" vol="197" pan="0"/>
          <note key="48" pos="696" len="12" vol="197" pan="0"/>
          <note key="49" pos="708" len="12" vol="197" pan="0"/>
          <note key="54" pos="720" len="12" vol="197" pan="0"/>
          <note key="58" pos="732" len="12" vol="197" pan="0"/>
          <note key="60" pos="744" len="12" vol="197" pan="0"/>
          <note key="61" pos="756" len="12" vol="197" pan="0"/>
          <note key="55" pos="768" len="12" vol="197" pan="0"/>
          <note key="51" pos="780" len="12" vol="197" pan="0"/>
          <note key="48" pos="792" len="12" vol="197" pan="0"/>
          <note key="51" pos="804" len="12" vol="197" pan="0"/>
          <note key="43" pos="816" len="12" vol="197" pan="0"/>
          <note key="48" pos="828" len="12" vol="197" pan="0"/>
          <note key="39" pos="840" len="12" vol="197" pan="0"/>
          <note key="43" pos="852" len="12" vol="197" pan="0"/>
          <note key="36" pos="864" len="12" vol="197" pan="0"/>
          <note key="43" pos="876" len="12" vol="197" pan="0"/>
          <note key="39" pos="888" len="12" vol="197" pan="0"/>
          <note key="43" pos="900" len="12" vol="197" pan="0"/>
          <note key="48" pos="912" len="12" vol="197" pan="0"/>
          <note key="55" pos="924" len="12" vol="197" pan="0"/>
          <note key="53" pos="936" len="12" vol="197" pan="0"/>
          <note key="51" pos="948" len="12" vol="197" pan="0"/>
          <note key="55" pos="960" len="12" vol="197" pan="0"/>
          <note key="51" pos="972" len="12" vol="197" pan="0"/>
          <note key="48" pos="984" len="12" vol="197" pan="0"/>
          <note key="51" pos="996" len="12" vol="197" pan="0"/>
          <note key="43" pos="1008" len="12" vol="197" pan="0"/>
          <note key="48" pos="1020" len="12" vol="197" pan="0"/>
          <note key="39" pos="1032" len="12" vol="197" pan="0"/>
          <note key="43" pos="1044" len="12" vol="197" pan="0"/>
          <note key="36" pos="1056" len="12" vol="197" pan="0"/>
          <note key="43" pos="1068" len="12" vol="197" pan="0"/>
          <note key="39" pos="1080" len="12" vol="197" pan="0"/>
          <note key="43" pos="1092" len="12" vol="197" pan="0"/>
          <note key="48" pos="1104" len="12" vol="197" pan="0"/>
          <note key="55" pos="1116" len="12" vol="197" pan="0"/>
          <note key="53" pos="1128" len="12" vol="197" pan="0"/>
          <note key="51" pos="1140" len="12" vol="197" pan="0"/>
        </pattern>
        <pattern steps="16" muted="0" type="1" pos="10752" name="Rhythm Guitar">
          <note key="49" pos="0" len="192" vol="197" pan="0"/>
          <note key="42" pos="0" len="192" vol="197" pan="0"/>
          <note key="0" pos="0" len="192" vol="197" pan="0"/>
          <note key="49" pos="192" len="192" vol="197" pan="0"/>
          <note key="42" pos="192" len="192" vol="197" pan="0"/>
        </pattern>
        <pattern steps="16" muted="0" type="1" pos="17280" name="Rhythm Guitar">
          <note key="45" pos="0" len="24" vol="170" pan="0"/>
          <note key="38" pos="0" len="24" vol="170" pan="0"/>
          <note key="0" pos="0" len="24" vol="170" pan="0"/>
          <note key="38" pos="24" len="12" vol="170" pan="0"/>
          <note key="1" pos="24" len="24" vol="170" pan="0"/>
          <note key="38" pos="36" len="12" vol="170" pan="0"/>
          <note key="38" pos="48" len="12" vol="170" pan="0"/>
          <note key="38" pos="60" len="12" vol="170" pan="0"/>
          <note key="38" pos="72" len="12" vol="170" pan="0"/>
          <note key="38" pos="84" len="12" vol="170" pan="0"/>
          <note key="38" pos="96" len="12" vol="170" pan="0"/>
          <note key="38" pos="108" len="12" vol="170" pan="0"/>
          <note key="38" pos="120" len="12" vol="170" pan="0"/>
          <note key="38" pos="132" len="12" vol="170" pan="0"/>
          <note key="38" pos="144" len="12" vol="170" pan="0"/>
          <note key="38" pos="156" len="12" vol="170" pan="0"/>
          <note key="38" pos="168" len="12" vol="170" pan="0"/>
          <note key="38" pos="180" len="12" vol="170" pan="0"/>
        </pattern>
        <pattern steps="16" muted="0" type="1" pos="17472" name="">
          <note key="43" pos="0" len="24" vol="170" pan="0"/>
          <note key="36" pos="0" len="24" vol="170" pan="0"/>
          <note key="0" pos="0" len="24" vol="170" pan="0"/>
          <note key="36" pos="24" len="12" vol="170" pan="0"/>
          <note key="1" pos="24" len="24" vol="170" pan="0"/>
          <note key="36" pos="36" len="12" vol="170" pan="0"/>
          <note key="36" pos="48" len="12" vol="170" pan="0"/>
          <note key="36" pos="60" len="12" vol="170" pan="0"/>
          <note key="53" pos="72" len="48" vol="170" pan="0"/>
          <note key="46" pos="72" len="48" vol="170" pan="0"/>
          <note key="0" pos="72" len="24" vol="170" pan="0"/>
          <note key="46" pos="120" len="12" vol="170" pan="0"/>
          <note key="46" pos="132" len="12" vol="170" pan="0"/>
          <note key="46" pos="144" len="12" vol="170" pan="0"/>
          <note key="46" pos="156" len="12" vol="170" pan="0"/>
          <note key="46" pos="168" len="12" vol="170" pan="0"/>
          <note key="46" pos="180" len="12" vol="170" pan="0"/>
        </pattern>
        <pattern steps="16" muted="0" type="1" pos="17664" name="">
          <note key="48" pos="0" len="24" vol="170" pan="0"/>
          <note key="41" pos="0" len="24" vol="170" pan="0"/>
          <note key="0" pos="0" len="24" vol="170" pan="0"/>
          <note key="41" pos="24" len="12" vol="170" pan="0"/>
          <note key="1" pos="24" len="24" vol="170" pan="0"/>
          <note key="41" pos="36" len="12" vol="170" pan="0"/>
          <note key="41" pos="48" len="12" vol="170" pan="0"/>
          <note key="41" pos="60" len="12" vol="170" pan="0"/>
          <note key="41" pos="72" len="12" vol="170" pan="0"/>
          <note key="41" pos="84" len="12" vol="170" pan="0"/>
          <note key="41" pos="96" len="12" vol="170" pan="0"/>
          <note key="41" pos="108" len="12" vol="170" pan="0"/>
          <note key="41" pos="120" len="12" vol="170" pan="0"/>
          <note key="41" pos="132" len="12" vol="170" pan="0"/>
          <note key="41" pos="144" len="12" vol="170" pan="0"/>
          <note key="41" pos="156" len="12" vol="170" pan="0"/>
          <note key="41" pos="168" len="12" vol="170" pan="0"/>
          <note key="41" pos="180" len="12" vol="170" pan="0"/>
        </pattern>
        <pattern steps="16" muted="0" type="1" pos="17856" name="">
          <note key="50" pos="0" len="24" vol="170" pan="0"/>
          <note key="43" pos="0" len="24" vol="170" pan="0"/>
          <note key="0" pos="0" len="24" vol="170" pan="0"/>
          <note key="43" pos="24" len="12" vol="170" pan="0"/>
          <note key="1" pos="24" len="24" vol="170" pan="0"/>
          <note key="43" pos="36" len="12" vol="170" pan="0"/>
          <note key="43" pos="48" len="12" vol="170" pan="0"/>
          <note key="43" pos="60" len="12" vol="170" pan="0"/>
          <note key="45" pos="72" len="48" vol="170" pan="0"/>
          <note key="38" pos="72" len="48" vol="170" pan="0"/>
          <note key="0" pos="72" len="24" vol="170" pan="0"/>
          <note key="41" pos="120" len="24" vol="170" pan="0"/>
          <note key="1" pos="120" len="24" vol="170" pan="0"/>
          <note key="40" pos="144" len="24" vol="170" pan="0"/>
          <note key="38" pos="168" len="24" vol="170" pan="0"/>
        </pattern>
        <pattern steps="16" muted="0" type="1" pos="18048" name="">
          <note key="45" pos="0" len="24" vol="170" pan="0"/>
          <note key="38" pos="0" len="24" vol="170" pan="0"/>
          <note key="0" pos="0" len="24" vol="170" pan="0"/>
          <note key="38" pos="24" len="12" vol="170" pan="0"/>
          <note key="1" pos="24" len="24" vol="170" pan="0"/>
          <note key="38" pos="36" len="12" vol="170" pan="0"/>
          <note key="38" pos="48" len="12" vol="170" pan="0"/>
          <note key="38" pos="60" len="12" vol="170" pan="0"/>
          <note key="38" pos="72" len="12" vol="170" pan="0"/>
          <note key="38" pos="84" len="12" vol="170" pan="0"/>
          <note key="38" pos="96" len="12" vol="170" pan="0"/>
          <note key="38" pos="108" len="12" vol="170" pan="0"/>
          <note key="38" pos="120" len="12" vol="170" pan="0"/>
          <note key="38" pos="132" len="12" vol="170" pan="0"/>
          <note key="38" pos="144" len="12" vol="170" pan="0"/>
          <note key="38" pos="156" len="12" vol="170" pan="0"/>
          <note key="38" pos="168" len="12" vol="170" pan="0"/>
          <note key="38" pos="180" len="12" vol="170" pan="0"/>
        </pattern>
        <pattern steps="16" muted="0" type="1" pos="18240" name="">
          <note key="43" pos="0" len="24" vol="170" pan="0"/>
          <note key="36" pos="0" len="24" vol="170" pan="0"/>
          <note key="0" pos="0" len="24" vol="170" pan="0"/>
          <note key="36" pos="24" len="12" vol="170" pan="0"/>
          <note key="1" pos="24" len="24" vol="170" pan="0"/>
          <note key="36" pos="36" len="12" vol="170" pan="0"/>
          <note key="36" pos="48" len="12" vol="170" pan="0"/>
          <note key="36" pos="60" len="12" vol="170" pan="0"/>
          <note key="53" pos="72" len="48" vol="170" pan="0"/>
          <note key="46" pos="72" len="48" vol="170" pan="0"/>
          <note key="0" pos="72" len="24" vol="170" pan="0"/>
          <note key="46" pos="120" len="12" vol="170" pan="0"/>
          <note key="46" pos="132" len="12" vol="170" pan="0"/>
          <note key="46" pos="144" len="12" vol="170" pan="0"/>
          <note key="46" pos="156" len="12" vol="170" pan="0"/>
          <note key="46" pos="168" len="12" vol="170" pan="0"/>
          <note key="46" pos="180" len="12" vol="170" pan="0"/>
        </pattern>
        <pattern steps="16" muted="0" type="1" pos="18432" name="">
          <note key="48" pos="0" len="24" vol="170" pan="0"/>
          <note key="41" pos="0" len="24" vol="170" pan="0"/>
          <note key="0" pos="0" len="24" vol="170" pan="0"/>
          <note key="41" pos="24" len="12" vol="170" pan="0"/>
          <note key="1" pos="24" len="24" vol="170" pan="0"/>
          <note key="41" pos="36" len="12" vol="170" pan="0"/>
          <note key="41" pos="48" len="12" vol="170" pan="0"/>
          <note key="41" pos="60" len="12" vol="170" pan="0"/>
          <note key="41" pos="72" len="12" vol="170" pan="0"/>
          <note key="41" pos="84" len="12" vol="170" pan="0"/>
          <note key="41" pos="96" len="12" vol="170" pan="0"/>
          <note key="41" pos="108" len="12" vol="170" pan="0"/>
          <note key="41" pos="120" len="12" vol="170" pan="0"/>
          <note key="41" pos="132" len="12" vol="170" pan="0"/>
          <note key="41" pos="144" len="12" vol="170" pan="0"/>
          <note key="41" pos="156" len="12" vol="170" pan="0"/>
          <note key="41" pos="168" len="12" vol="170" pan="0"/>
          <note key="41" pos="180" len="12" vol="170" pan="0"/>
        </pattern>
        <pattern steps="16" muted="0" type="1" pos="18624" name="">
          <note key="50" pos="0" len="24" vol="170" pan="0"/>
          <note key="43" pos="0" len="24" vol="170" pan="0"/>
          <note key="0" pos="0" len="24" vol="170" pan="0"/>
          <note key="43" pos="24" len="12" vol="170" pan="0"/>
          <note key="1" pos="24" len="24" vol="170" pan="0"/>
          <note key="43" pos="36" len="12" vol="170" pan="0"/>
          <note key="43" pos="48" len="12" vol="170" pan="0"/>
          <note key="43" pos="60" len="12" vol="170" pan="0"/>
          <note key="45" pos="72" len="48" vol="170" pan="0"/>
          <note key="38" pos="72" len="48" vol="170" pan="0"/>
          <note key="0" pos="72" len="24" vol="170" pan="0"/>
          <note key="41" pos="120" len="24" vol="170" pan="0"/>
          <note key="1" pos="120" len="24" vol="170" pan="0"/>
          <note key="40" pos="144" len="24" vol="170" pan="0"/>
          <note key="38" pos="168" len="24" vol="170" pan="0"/>
        </pattern>
        <pattern steps="16" muted="0" type="1" pos="18816" name="">
          <note key="45" pos="0" len="24" vol="170" pan="0"/>
          <note key="38" pos="0" len="24" vol="170" pan="0"/>
          <note key="0" pos="0" len="24" vol="170" pan="0"/>
          <note key="38" pos="24" len="12" vol="170" pan="0"/>
          <note key="1" pos="24" len="24" vol="170" pan="0"/>
          <note key="38" pos="36" len="12" vol="170" pan="0"/>
          <note key="38" pos="48" len="12" vol="170" pan="0"/>
          <note key="38" pos="60" len="12" vol="170" pan="0"/>
          <note key="38" pos="72" len="12" vol="170" pan="0"/>
          <note key="38" pos="84" len="12" vol="170" pan="0"/>
          <note key="38" pos="96" len="12" vol="170" pan="0"/>
          <note key="38" pos="108" len="12" vol="170" pan="0"/>
          <note key="38" pos="120" len="12" vol="170" pan="0"/>
          <note key="38" pos="132" len="12" vol="170" pan="0"/>
          <note key="38" pos="144" len="12" vol="170" pan="0"/>
          <note key="38" pos="156" len="12" vol="170" pan="0"/>
          <note key="38" pos="168" len="12" vol="170" pan="0"/>
          <note key="38" pos="180" len="12" vol="170" pan="0"/>
        </pattern>
        <pattern steps="16" muted="0" type="1" pos="19008" name="">
          <note key="43" pos="0" len="24" vol="170" pan="0"/>
          <note key="36" pos="0" len="24" vol="170" pan="0"/>
          <note key="0" pos="0" len="24" vol="170" pan="0"/>
          <note key="36" pos="24" len="12" vol="170" pan="0"/>
          <note key="1" pos="24" len="24" vol="170" pan="0"/>
          <note key="36" pos="36" len="12" vol="170" pan="0"/>
          <note key="36" pos="48" len="12" vol="170" pan="0"/>
          <note key="36" pos="60" len="12" vol="170" pan="0"/>
          <note key="53" pos="72" len="48" vol="170" pan="0"/>
          <note key="46" pos="72" len="48" vol="170" pan="0"/>
          <note key="0" pos="72" len="24" vol="170" pan="0"/>
          <note key="46" pos="120" len="12" vol="170" pan="0"/>
          <note key="46" pos="132" len="12" vol="170" pan="0"/>
          <note key="46" pos="144" len="12" vol="170" pan="0"/>
          <note key="46" pos="156" len="12" vol="170" pan="0"/>
          <note key="46" pos="168" len="12" vol="170" pan="0"/>
          <note key="46" pos="180" len="12" vol="170" pan="0"/>
        </pattern>
        <pattern steps="16" muted="0" type="1" pos="19200" name="">
          <note key="48" pos="0" len="24" vol="170" pan="0"/>
          <note key="41" pos="0" len="24" vol="170" pan="0"/>
          <note key="0" pos="0" len="24" vol="170" pan="0"/>
          <note key="41" pos="24" len="12" vol="170" pan="0"/>
          <note key="1" pos="24" len="24" vol="170" pan="0"/>
          <note key="41" pos="36" len="12" vol="170" pan="0"/>
          <note key="41" pos="48" len="12" vol="170" pan="0"/>
          <note key="41" pos="60" len="12" vol="170" pan="0"/>
          <note key="41" pos="72" len="12" vol="170" pan="0"/>
          <note key="41" pos="84" len="12" vol="170" pan="0"/>
          <note key="41" pos="96" len="12" vol="170" pan="0"/>
          <note key="41" pos="108" len="12" vol="170" pan="0"/>
          <note key="41" pos="120" len="12" vol="170" pan="0"/>
          <note key="41" pos="132" len="12" vol="170" pan="0"/>
          <note key="41" pos="144" len="12" vol="170" pan="0"/>
          <note key="41" pos="156" len="12" vol="170" pan="0"/>
          <note key="41" pos="168" len="12" vol="170" pan="0"/>
          <note key="41" pos="180" len="12" vol="170" pan="0"/>
        </pattern>
        <pattern steps="16" muted="0" type="1" pos="19392" name="">
          <note key="50" pos="0" len="24" vol="170" pan="0"/>
          <note key="43" pos="0" len="24" vol="170" pan="0"/>
          <note key="0" pos="0" len="24" vol="170" pan="0"/>
          <note key="43" pos="24" len="12" vol="170" pan="0"/>
          <note key="1" pos="24" len="24" vol="170" pan="0"/>
          <note key="43" pos="36" len="12" vol="170" pan="0"/>
          <note key="43" pos="48" len="12" vol="170" pan="0"/>
          <note key="43" pos="60" len="12" vol="170" pan="0"/>
          <note key="45" pos="72" len="48" vol="170" pan="0"/>
          <note key="38" pos="72" len="48" vol="170" pan="0"/>
          <note key="0" pos="72" len="24" vol="170" pan="0"/>
          <note key="41" pos="120" len="24" vol="170" pan="0"/>
          <note key="1" pos="120" len="24" vol="170" pan="0"/>
          <note key="40" pos="144" len="24" vol="170" pan="0"/>
          <note key="38" pos="168" len="24" vol="170" pan="0"/>
        </pattern>
        <pattern steps="16" muted="0" type="1" pos="19584" name="">
          <note key="45" pos="0" len="24" vol="170" pan="0"/>
          <note key="38" pos="0" len="24" vol="170" pan="0"/>
          <note key="0" pos="0" len="24" vol="170" pan="0"/>
          <note key="38" pos="24" len="12" vol="170" pan="0"/>
          <note key="1" pos="24" len="24" vol="170" pan="0"/>
          <note key="38" pos="36" len="12" vol="170" pan="0"/>
          <note key="38" pos="48" len="12" vol="170" pan="0"/>
          <note key="38" pos="60" len="12" vol="170" pan="0"/>
          <note key="38" pos="72" len="12" vol="170" pan="0"/>
          <note key="38" pos="84" len="12" vol="170" pan="0"/>
          <note key="38" pos="96" len="12" vol="170" pan="0"/>
          <note key="38" pos="108" len="12" vol="170" pan="0"/>
          <note key="38" pos="120" len="12" vol="170" pan="0"/>
          <note key="38" pos="132" len="12" vol="170" pan="0"/>
          <note key="38" pos="144" len="12" vol="170" pan="0"/>
          <note key="38" pos="156" len="12" vol="170" pan="0"/>
          <note key="38" pos="168" len="12" vol="170" pan="0"/>
          <note key="38" pos="180" len="12" vol="170" pan="0"/>
        </pattern>
        <pattern steps="16" muted="0" type="1" pos="19776" name="">
          <note key="43" pos="0" len="24" vol="170" pan="0"/>
          <note key="36" pos="0" len="24" vol="170" pan="0"/>
          <note key="0" pos="0" len="24" vol="170" pan="0"/>
          <note key="36" pos="24" len="12" vol="170" pan="0"/>
          <note key="1" pos="24" len="24" vol="170" pan="0"/>
          <note key="36" pos="36" len="12" vol="170" pan="0"/>
          <note key="36" pos="48" len="12" vol="170" pan="0"/>
          <note key="36" pos="60" len="12" vol="170" pan="0"/>
          <note key="53" pos="72" len="48" vol="170" pan="0"/>
          <note key="46" pos="72" len="48" vol="170" pan="0"/>
          <note key="0" pos="72" len="24" vol="170" pan="0"/>
          <note key="46" pos="120" len="12" vol="170" pan="0"/>
          <note key="46" pos="132" len="12" vol="170" pan="0"/>
          <note key="46" pos="144" len="12" vol="170" pan="0"/>
          <note key="46" pos="156" len="12" vol="170" pan="0"/>
          <note key="46" pos="168" len="12" vol="170" pan="0"/>
          <note key="46" pos="180" len="12" vol="170" pan="0"/>
        </pattern>
        <pattern steps="16" muted="0" type="1" pos="19968" name="">
          <note key="48" pos="0" len="24" vol="170" pan="0"/>
          <note key="41" pos="0" len="24" vol="170" pan="0"/>
          <note key="0" pos="0" len="24" vol="170" pan="0"/>
          <note key="41" pos="24" len="12" vol="170" pan="0"/>
          <note key="1" pos="24" len="24" vol="170" pan="0"/>
          <note key="41" pos="36" len="12" vol="170" pan="0"/>
          <note key="41" pos="48" len="12" vol="170" pan="0"/>
          <note key="41" pos="60" len="12" vol="170" pan="0"/>
          <note key="41" pos="72" len="12" vol="170" pan="0"/>
          <note key="41" pos="84" len="12" vol="170" pan="0"/>
          <note key="41" pos="96" len="12" vol="170" pan="0"/>
          <note key="41" pos="108" len="12" vol="170" pan="0"/>
          <note key="41" pos="120" len="12" vol="170" pan="0"/>
          <note key="41" pos="132" len="12" vol="170" pan="0"/>
          <note key="41" pos="144" len="12" vol="170" pan="0"/>
          <note key="41" pos="156" len="12" vol="170" pan="0"/>
          <note key="41" pos="168" len="12" vol="170" pan="0"/>
          <note key="41" pos="180" len="12" vol="170" pan="0"/>
        </pattern>
        <pattern steps="16" muted="0" type="1" pos="20160" name="">
          <note key="50" pos="0" len="24" vol="170" pan="0"/>
          <note key="43" pos="0" len="24" vol="170" pan="0"/>
          <note key="0" pos="0" len="24" vol="170" pan="0"/>
          <note key="43" pos="24" len="12" vol="170" pan="0"/>
          <note key="1" pos="24" len="24" vol="170" pan="0"/>
          <note key="43" pos="36" len="12" vol="170" pan="0"/>
          <note key="43" pos="48" len="12" vol="170" pan="0"/>
          <note key="43" pos="60" len="12" vol="170" pan="0"/>
          <note key="45" pos="72" len="48" vol="170" pan="0"/>
          <note key="38" pos="72" len="48" vol="170" pan="0"/>
          <note key="0" pos="72" len="24" vol="170" pan="0"/>
          <note key="41" pos="120" len="24" vol="170" pan="0"/>
          <note key="1" pos="120" len="24" vol="170" pan="0"/>
          <note key="40" pos="144" len="24" vol="170" pan="0"/>
          <note key="38" pos="168" len="24" vol="170" pan="0"/>
        </pattern>
        <pattern steps="16" muted="0" type="1" pos="7296" name="">
          <note key="36" pos="0" len="36" vol="193" pan="0"/>
          <note key="1" pos="0" len="24" vol="151" pan="0"/>
          <note key="36" pos="36" len="36" vol="193" pan="0"/>
          <note key="36" pos="72" len="36" vol="193" pan="0"/>
          <note key="36" pos="108" len="36" vol="193" pan="0"/>
          <note key="36" pos="144" len="36" vol="193" pan="0"/>
          <note key="36" pos="180" len="36" vol="193" pan="0"/>
          <note key="36" pos="216" len="36" vol="193" pan="0"/>
          <note key="36" pos="252" len="36" vol="193" pan="0"/>
          <note key="39" pos="288" len="24" vol="193" pan="0"/>
          <note key="0" pos="288" len="24" vol="151" pan="0"/>
          <note key="36" pos="312" len="24" vol="193" pan="0"/>
          <note key="36" pos="336" len="12" vol="193" pan="0"/>
          <note key="1" pos="336" len="24" vol="151" pan="0"/>
          <note key="36" pos="348" len="12" vol="193" pan="0"/>
          <note key="36" pos="360" len="12" vol="193" pan="0"/>
          <note key="36" pos="372" len="12" vol="193" pan="0"/>
        </pattern>
        <pattern steps="16" muted="0" type="1" pos="7680" name="">
          <note key="44" pos="0" len="36" vol="193" pan="0"/>
          <note key="1" pos="0" len="24" vol="151" pan="0"/>
          <note key="44" pos="36" len="36" vol="193" pan="0"/>
          <note key="44" pos="72" len="36" vol="193" pan="0"/>
          <note key="44" pos="108" len="36" vol="193" pan="0"/>
          <note key="46" pos="144" len="36" vol="193" pan="0"/>
          <note key="46" pos="180" len="36" vol="193" pan="0"/>
          <note key="46" pos="216" len="36" vol="193" pan="0"/>
          <note key="46" pos="252" len="36" vol="193" pan="0"/>
          <note key="53" pos="288" len="24" vol="193" pan="0"/>
          <note key="0" pos="288" len="24" vol="151" pan="0"/>
          <note key="46" pos="312" len="24" vol="193" pan="0"/>
          <note key="46" pos="336" len="12" vol="193" pan="0"/>
          <note key="1" pos="336" len="24" vol="151" pan="0"/>
          <note key="46" pos="348" len="12" vol="193" pan="0"/>
          <note key="46" pos="360" len="12" vol="193" pan="0"/>
          <note key="46" pos="372" len="12" vol="193" pan="0"/>
        </pattern>
        <pattern steps="16" muted="0" type="1" pos="20736" name="">
          <note key="43" pos="0" len="192" vol="157" pan="0"/>
          <note key="36" pos="0" len="192" vol="157" pan="0"/>
          <note key="0" pos="0" len="192" vol="157" pan="0"/>
          <note key="46" pos="192" len="96" vol="157" pan="0"/>
          <note key="39" pos="192" len="96" vol="157" pan="0"/>
          <note key="48" pos="288" len="96" vol="157" pan="0"/>
          <note key="41" pos="288" len="96" vol="157" pan="0"/>
          <note key="48" pos="384" len="12" vol="132" pan="0"/>
          <note key="0" pos="384" len="12" vol="157" pan="0"/>
          <note key="36" pos="396" len="12" vol="132" pan="0"/>
          <note key="1" pos="396" len="12" vol="157" pan="0"/>
          <note key="36" pos="408" len="12" vol="132" pan="0"/>
          <note key="43" pos="420" len="12" vol="132" pan="0"/>
          <note key="0" pos="420" len="12" vol="157" pan="0"/>
          <note key="36" pos="432" len="12" vol="132" pan="0"/>
          <note key="1" pos="432" len="12" vol="157" pan="0"/>
          <note key="36" pos="444" len="12" vol="132" pan="0"/>
          <note key="46" pos="456" len="12" vol="132" pan="0"/>
          <note key="0" pos="456" len="12" vol="157" pan="0"/>
          <note key="36" pos="468" len="12" vol="132" pan="0"/>
          <note key="1" pos="468" len="12" vol="132" pan="0"/>
          <note key="36" pos="480" len="12" vol="132" pan="0"/>
          <note key="41" pos="492" len="12" vol="132" pan="0"/>
          <note key="0" pos="492" len="12" vol="132" pan="0"/>
          <note key="36" pos="504" len="12" vol="132" pan="0"/>
          <note key="1" pos="504" len="12" vol="132" pan="0"/>
          <note key="36" pos="516" len="12" vol="132" pan="0"/>
          <note key="39" pos="528" len="12" vol="132" pan="0"/>
          <note key="0" pos="528" len="12" vol="132" pan="0"/>
          <note key="36" pos="540" len="12" vol="132" pan="0"/>
          <note key="1" pos="540" len="12" vol="132" pan="0"/>
          <note key="36" pos="552" len="12" vol="132" pan="0"/>
          <note key="36" pos="564" len="12" vol="132" pan="0"/>
          <note key="48" pos="576" len="12" vol="132" pan="0"/>
          <note key="0" pos="576" len="12" vol="132" pan="0"/>
          <note key="36" pos="588" len="12" vol="132" pan="0"/>
          <note key="1" pos="588" len="12" vol="132" pan="0"/>
          <note key="36" pos="600" len="12" vol="132" pan="0"/>
          <note key="43" pos="612" len="12" vol="132" pan="0"/>
          <note key="0" pos="612" len="12" vol="132" pan="0"/>
          <note key="36" pos="624" len="12" vol="132" pan="0"/>
          <note key="1" pos="624" len="12" vol="132" pan="0"/>
          <note key="36" pos="636" len="12" vol="132" pan="0"/>
          <note key="46" pos="648" len="12" vol="132" pan="0"/>
          <note key="0" pos="648" len="12" vol="132" pan="0"/>
          <note key="36" pos="660" len="12" vol="132" pan="0"/>
          <note key="1" pos="660" len="12" vol="132" pan="0"/>
          <note key="36" pos="672" len="12" vol="132" pan="0"/>
          <note key="41" pos="684" len="12" vol="132" pan="0"/>
          <note key="0" pos="684" len="12" vol="132" pan="0"/>
          <note key="36" pos="696" len="12" vol="132" pan="0"/>
          <note key="1" pos="696" len="12" vol="132" pan="0"/>
          <note key="36" pos="708" len="12" vol="132" pan="0"/>
          <note key="48" pos="720" len="24" vol="144" pan="0"/>
          <note key="0" pos="720" len="12" vol="132" pan="0"/>
          <note key="50" pos="744" len="24" vol="144" pan="0"/>
        </pattern>
        <pattern steps="16" muted="0" type="1" pos="23040" name="">
          <note key="48" pos="0" len="192" vol="157" pan="0"/>
          <note key="41" pos="0" len="192" vol="157" pan="0"/>
          <note key="0" pos="0" len="192" vol="157" pan="0"/>
          <note key="53" pos="192" len="192" vol="157" pan="0"/>
          <note key="46" pos="192" len="192" vol="157" pan="0"/>
          <note key="39" pos="384" len="12" vol="132" pan="0"/>
          <note key="1" pos="384" len="12" vol="157" pan="0"/>
          <note key="39" pos="396" len="12" vol="132" pan="0"/>
          <note key="39" pos="408" len="12" vol="132" pan="0"/>
          <note key="39" pos="420" len="12" vol="132" pan="0"/>
          <note key="39" pos="432" len="12" vol="132" pan="0"/>
          <note key="39" pos="444" len="12" vol="132" pan="0"/>
          <note key="39" pos="456" len="12" vol="132" pan="0"/>
          <note key="39" pos="468" len="12" vol="132" pan="0"/>
          <note key="39" pos="480" len="12" vol="132" pan="0"/>
          <note key="39" pos="492" len="12" vol="132" pan="0"/>
          <note key="39" pos="504" len="12" vol="132" pan="0"/>
          <note key="39" pos="516" len="12" vol="132" pan="0"/>
          <note key="39" pos="528" len="12" vol="132" pan="0"/>
          <note key="39" pos="540" len="12" vol="132" pan="0"/>
          <note key="39" pos="552" len="12" vol="132" pan="0"/>
          <note key="39" pos="564" len="12" vol="132" pan="0"/>
          <note key="43" pos="576" len="12" vol="132" pan="0"/>
          <note key="43" pos="588" len="12" vol="132" pan="0"/>
          <note key="43" pos="600" len="12" vol="132" pan="0"/>
          <note key="43" pos="612" len="12" vol="132" pan="0"/>
          <note key="43" pos="624" len="12" vol="132" pan="0"/>
          <note key="43" pos="636" len="12" vol="132" pan="0"/>
          <note key="43" pos="648" len="12" vol="132" pan="0"/>
          <note key="43" pos="660" len="12" vol="132" pan="0"/>
          <note key="47" pos="672" len="12" vol="132" pan="0"/>
          <note key="47" pos="684" len="12" vol="132" pan="0"/>
          <note key="47" pos="696" len="12" vol="132" pan="0"/>
          <note key="47" pos="708" len="12" vol="132" pan="0"/>
          <note key="50" pos="720" len="12" vol="132" pan="0"/>
          <note key="0" pos="720" len="12" vol="132" pan="0"/>
          <note key="48" pos="732" len="12" vol="132" pan="0"/>
          <note key="47" pos="744" len="12" vol="132" pan="0"/>
          <note key="1" pos="744" len="12" vol="132" pan="0"/>
          <note key="43" pos="756" len="12" vol="132" pan="0"/>
          <note key="43" pos="768" len="264" vol="176" pan="0"/>
          <note key="36" pos="768" len="264" vol="176" pan="0"/>
          <note key="0" pos="768" len="264" vol="176" pan="0"/>
        </pattern>
        <pattern steps="16" muted="0" type="1" pos="21504" name="">
          <note key="48" pos="0" len="192" vol="157" pan="0"/>
          <note key="41" pos="0" len="192" vol="157" pan="0"/>
          <note key="0" pos="0" len="192" vol="157" pan="0"/>
          <note key="53" pos="192" len="192" vol="157" pan="0"/>
          <note key="46" pos="192" len="192" vol="157" pan="0"/>
          <note key="48" pos="384" len="12" vol="132" pan="0"/>
          <note key="0" pos="384" len="12" vol="157" pan="0"/>
          <note key="36" pos="396" len="12" vol="132" pan="0"/>
          <note key="1" pos="396" len="12" vol="157" pan="0"/>
          <note key="36" pos="408" len="12" vol="132" pan="0"/>
          <note key="43" pos="420" len="12" vol="132" pan="0"/>
          <note key="0" pos="420" len="12" vol="157" pan="0"/>
          <note key="36" pos="432" len="12" vol="132" pan="0"/>
          <note key="1" pos="432" len="12" vol="157" pan="0"/>
          <note key="36" pos="444" len="12" vol="132" pan="0"/>
          <note key="46" pos="456" len="12" vol="132" pan="0"/>
          <note key="0" pos="456" len="12" vol="157" pan="0"/>
          <note key="36" pos="468" len="12" vol="132" pan="0"/>
          <note key="1" pos="468" len="12" vol="132" pan="0"/>
          <note key="36" pos="480" len="12" vol="132" pan="0"/>
          <note key="41" pos="492" len="12" vol="132" pan="0"/>
          <note key="0" pos="492" len="12" vol="132" pan="0"/>
          <note key="36" pos="504" len="12" vol="132" pan="0"/>
          <note key="1" pos="504" len="12" vol="132" pan="0"/>
          <note key="36" pos="516" len="12" vol="132" pan="0"/>
          <note key="39" pos="528" len="12" vol="132" pan="0"/>
          <note key="0" pos="528" len="12" vol="132" pan="0"/>
          <note key="36" pos="540" len="12" vol="132" pan="0"/>
          <note key="36" pos="552" len="12" vol="132" pan="0"/>
          <note key="1" pos="552" len="12" vol="132" pan="0"/>
          <note key="36" pos="564" len="12" vol="132" pan="0"/>
          <note key="48" pos="576" len="12" vol="132" pan="0"/>
          <note key="0" pos="576" len="12" vol="132" pan="0"/>
          <note key="36" pos="588" len="12" vol="132" pan="0"/>
          <note key="1" pos="588" len="12" vol="132" pan="0"/>
          <note key="36" pos="600" len="12" vol="132" pan="0"/>
          <note key="43" pos="612" len="12" vol="132" pan="0"/>
          <note key="0" pos="612" len="12" vol="132" pan="0"/>
          <note key="36" pos="624" len="12" vol="132" pan="0"/>
          <note key="1" pos="624" len="12" vol="132" pan="0"/>
          <note key="36" pos="636" len="12" vol="132" pan="0"/>
          <note key="46" pos="648" len="12" vol="132" pan="0"/>
          <note key="0" pos="648" len="12" vol="132" pan="0"/>
          <note key="36" pos="660" len="12" vol="132" pan="0"/>
          <note key="1" pos="660" len="12" vol="132" pan="0"/>
          <note key="36" pos="672" len="12" vol="132" pan="0"/>
          <note key="41" pos="684" len="12" vol="132" pan="0"/>
          <note key="0" pos="684" len="12" vol="132" pan="0"/>
          <note key="36" pos="696" len="12" vol="132" pan="0"/>
          <note key="1" pos="696" len="12" vol="132" pan="0"/>
          <note key="36" pos="708" len="12" vol="132" pan="0"/>
          <note key="48" pos="720" len="24" vol="144" pan="0"/>
          <note key="0" pos="720" len="12" vol="132" pan="0"/>
          <note key="50" pos="744" len="24" vol="144" pan="0"/>
        </pattern>
        <pattern steps="16" muted="0" type="1" pos="22272" name="">
          <note key="43" pos="0" len="192" vol="157" pan="0"/>
          <note key="36" pos="0" len="192" vol="157" pan="0"/>
          <note key="0" pos="0" len="192" vol="157" pan="0"/>
          <note key="46" pos="192" len="96" vol="157" pan="0"/>
          <note key="39" pos="192" len="96" vol="157" pan="0"/>
          <note key="48" pos="288" len="96" vol="157" pan="0"/>
          <note key="41" pos="288" len="96" vol="157" pan="0"/>
          <note key="48" pos="384" len="12" vol="132" pan="0"/>
          <note key="0" pos="384" len="12" vol="157" pan="0"/>
          <note key="36" pos="396" len="12" vol="132" pan="0"/>
          <note key="1" pos="396" len="12" vol="157" pan="0"/>
          <note key="36" pos="408" len="12" vol="132" pan="0"/>
          <note key="43" pos="420" len="12" vol="132" pan="0"/>
          <note key="0" pos="420" len="12" vol="157" pan="0"/>
          <note key="36" pos="432" len="12" vol="132" pan="0"/>
          <note key="1" pos="432" len="12" vol="157" pan="0"/>
          <note key="36" pos="444" len="12" vol="132" pan="0"/>
          <note key="46" pos="456" len="12" vol="132" pan="0"/>
          <note key="0" pos="456" len="12" vol="157" pan="0"/>
          <note key="36" pos="468" len="12" vol="132" pan="0"/>
          <note key="1" pos="468" len="12" vol="132" pan="0"/>
          <note key="36" pos="480" len="12" vol="132" pan="0"/>
          <note key="41" pos="492" len="12" vol="132" pan="0"/>
          <note key="0" pos="492" len="12" vol="132" pan="0"/>
          <note key="36" pos="504" len="12" vol="132" pan="0"/>
          <note key="1" pos="504" len="12" vol="132" pan="0"/>
          <note key="36" pos="516" len="12" vol="132" pan="0"/>
          <note key="39" pos="528" len="12" vol="132" pan="0"/>
          <note key="0" pos="528" len="12" vol="132" pan="0"/>
          <note key="36" pos="540" len="12" vol="132" pan="0"/>
          <note key="1" pos="540" len="12" vol="132" pan="0"/>
          <note key="36" pos="552" len="12" vol="132" pan="0"/>
          <note key="36" pos="564" len="12" vol="132" pan="0"/>
          <note key="48" pos="576" len="12" vol="132" pan="0"/>
          <note key="0" pos="576" len="12" vol="132" pan="0"/>
          <note key="36" pos="588" len="12" vol="132" pan="0"/>
          <note key="1" pos="588" len="12" vol="132" pan="0"/>
          <note key="36" pos="600" len="12" vol="132" pan="0"/>
          <note key="43" pos="612" len="12" vol="132" pan="0"/>
          <note key="0" pos="612" len="12" vol="132" pan="0"/>
          <note key="36" pos="624" len="12" vol="132" pan="0"/>
          <note key="1" pos="624" len="12" vol="132" pan="0"/>
          <note key="36" pos="636" len="12" vol="132" pan="0"/>
          <note key="46" pos="648" len="12" vol="132" pan="0"/>
          <note key="0" pos="648" len="12" vol="132" pan="0"/>
          <note key="36" pos="660" len="12" vol="132" pan="0"/>
          <note key="1" pos="660" len="12" vol="132" pan="0"/>
          <note key="36" pos="672" len="12" vol="132" pan="0"/>
          <note key="41" pos="684" len="12" vol="132" pan="0"/>
          <note key="0" pos="684" len="12" vol="132" pan="0"/>
          <note key="36" pos="696" len="12" vol="132" pan="0"/>
          <note key="1" pos="696" len="12" vol="132" pan="0"/>
          <note key="36" pos="708" len="12" vol="132" pan="0"/>
          <note key="48" pos="720" len="24" vol="144" pan="0"/>
          <note key="0" pos="720" len="12" vol="132" pan="0"/>
          <note key="50" pos="744" len="24" vol="144" pan="0"/>
        </pattern>
        <pattern steps="16" muted="0" type="1" pos="29952" name="">
          <note key="59" pos="0" len="72" vol="157" pan="0"/>
          <note key="52" pos="0" len="72" vol="157" pan="0"/>
          <note key="0" pos="0" len="72" vol="157" pan="0"/>
          <note key="40" pos="72" len="12" vol="144" pan="0"/>
          <note key="1" pos="72" len="18" vol="157" pan="0"/>
          <note key="40" pos="84" len="12" vol="144" pan="0"/>
          <note key="42" pos="96" len="24" vol="144" pan="0"/>
          <note key="43" pos="120" len="24" vol="144" pan="0"/>
          <note key="55" pos="144" len="72" vol="144" pan="0"/>
          <note key="48" pos="144" len="72" vol="144" pan="0"/>
          <note key="0" pos="144" len="24" vol="144" pan="0"/>
          <note key="1" pos="180" len="24" vol="144" pan="0"/>
          <note key="40" pos="216" len="24" vol="144" pan="0"/>
          <note key="0" pos="228" len="24" vol="144" pan="0"/>
          <note key="47" pos="240" len="24" vol="144" pan="0"/>
          <note key="1" pos="252" len="24" vol="144" pan="0"/>
          <note key="40" pos="264" len="24" vol="144" pan="0"/>
          <note key="40" pos="288" len="24" vol="144" pan="0"/>
          <note key="38" pos="312" len="24" vol="144" pan="0"/>
          <note key="40" pos="336" len="24" vol="144" pan="0"/>
          <note key="42" pos="360" len="24" vol="151" pan="0"/>
          <note key="43" pos="384" len="24" vol="157" pan="0"/>
          <note key="1" pos="384" len="24" vol="144" pan="0"/>
          <note key="42" pos="408" len="24" vol="151" pan="0"/>
          <note key="40" pos="432" len="24" vol="144" pan="0"/>
          <note key="0" pos="432" len="24" vol="144" pan="0"/>
          <note key="45" pos="456" len="24" vol="144" pan="0"/>
          <note key="43" pos="480" len="24" vol="144" pan="0"/>
          <note key="42" pos="504" len="24" vol="144" pan="0"/>
          <note key="45" pos="528" len="48" vol="138" pan="0"/>
          <note key="38" pos="528" len="48" vol="138" pan="0"/>
          <note key="38" pos="600" len="23" vol="151" pan="0"/>
          <note key="1" pos="600" len="23" vol="151" pan="0"/>
          <note key="47" pos="624" len="23" vol="151" pan="0"/>
          <note key="0" pos="624" len="23" vol="151" pan="0"/>
          <note key="38" pos="648" len="23" vol="151" pan="0"/>
          <note key="1" pos="648" len="12" vol="151" pan="0"/>
          <note key="38" pos="672" len="23" vol="151" pan="0"/>
          <note key="38" pos="696" len="23" vol="157" pan="0"/>
          <note key="0" pos="708" len="24" vol="100" pan="0"/>
          <note key="50" pos="720" len="12" vol="151" pan="0"/>
          <note key="52" pos="732" len="11" vol="151" pan="0"/>
          <note key="50" pos="744" len="23" vol="154" pan="0"/>
          <note key="43" pos="768" len="24" vol="157" pan="0"/>
          <note key="0" pos="768" len="24" vol="151" pan="0"/>
          <note key="40" pos="792" len="24" vol="132" pan="0"/>
          <note key="1" pos="792" len="24" vol="151" pan="0"/>
          <note key="40" pos="816" len="24" vol="144" pan="0"/>
          <note key="42" pos="840" len="24" vol="151" pan="0"/>
          <note key="0" pos="840" len="24" vol="151" pan="0"/>
          <note key="40" pos="864" len="24" vol="151" pan="0"/>
          <note key="1" pos="864" len="24" vol="151" pan="0"/>
          <note key="40" pos="888" len="24" vol="151" pan="0"/>
          <note key="43" pos="912" len="24" vol="163" pan="0"/>
          <note key="0" pos="912" len="24" vol="151" pan="0"/>
          <note key="40" pos="936" len="24" vol="151" pan="0"/>
          <note key="1" pos="936" len="24" vol="151" pan="0"/>
          <note key="40" pos="960" len="24" vol="151" pan="0"/>
          <note key="47" pos="984" len="24" vol="163" pan="0"/>
          <note key="40" pos="1008" len="24" vol="151" pan="0"/>
          <note key="43" pos="1032" len="24" vol="151" pan="0"/>
          <note key="52" pos="1056" len="24" vol="163" pan="0"/>
          <note key="0" pos="1056" len="24" vol="151" pan="0"/>
          <note key="40" pos="1080" len="24" vol="157" pan="0"/>
          <note key="1" pos="1080" len="24" vol="151" pan="0"/>
          <note key="52" pos="1104" len="24" vol="151" pan="0"/>
          <note key="0" pos="1104" len="24" vol="151" pan="0"/>
          <note key="54" pos="1128" len="24" vol="163" pan="0"/>
          <note key="55" pos="1152" len="24" vol="168" pan="0"/>
          <note key="47" pos="1176" len="24" vol="151" pan="0"/>
          <note key="52" pos="1200" len="24" vol="157" pan="0"/>
          <note key="43" pos="1224" len="48" vol="157" pan="0"/>
          <note key="36" pos="1224" len="48" vol="157" pan="0"/>
          <note key="43" pos="1272" len="48" vol="157" pan="0"/>
          <note key="36" pos="1272" len="48" vol="157" pan="0"/>
          <note key="45" pos="1320" len="48" vol="168" pan="0"/>
          <note key="38" pos="1320" len="48" vol="151" pan="0"/>
          <note key="45" pos="1368" len="24" vol="151" pan="0"/>
          <note key="1" pos="1368" len="24" vol="151" pan="0"/>
          <note key="52" pos="1392" len="24" vol="151" pan="0"/>
          <note key="54" pos="1416" len="24" vol="151" pan="0"/>
          <note key="0" pos="1416" len="24" vol="151" pan="0"/>
          <note key="45" pos="1440" len="72" vol="151" pan="0"/>
          <note key="38" pos="1440" len="72" vol="151" pan="0"/>
          <note key="45" pos="1512" len="84" vol="144" pan="0"/>
          <note key="38" pos="1512" len="84" vol="144" pan="0"/>
          <note key="47" pos="1596" len="382" vol="144" pan="0"/>
          <note key="40" pos="1596" len="382" vol="144" pan="0"/>
        </pattern>
        <pattern steps="16" muted="0" type="1" pos="20352" name="Rhythm Guitar">
          <note key="65" pos="0" len="12" vol="170" pan="0"/>
          <note key="0" pos="0" len="12" vol="151" pan="0"/>
          <note key="62" pos="12" len="12" vol="170" pan="0"/>
          <note key="59" pos="24" len="12" vol="170" pan="0"/>
          <note key="62" pos="36" len="12" vol="170" pan="0"/>
          <note key="59" pos="48" len="12" vol="163" pan="0"/>
          <note key="1" pos="48" len="12" vol="151" pan="0"/>
          <note key="56" pos="60" len="12" vol="163" pan="0"/>
          <note key="53" pos="72" len="12" vol="163" pan="0"/>
          <note key="56" pos="84" len="12" vol="163" pan="0"/>
          <note key="53" pos="96" len="12" vol="157" pan="0"/>
          <note key="50" pos="108" len="12" vol="157" pan="0"/>
          <note key="47" pos="120" len="12" vol="157" pan="0"/>
          <note key="50" pos="132" len="12" vol="157" pan="0"/>
          <note key="47" pos="144" len="12" vol="151" pan="0"/>
          <note key="44" pos="156" len="12" vol="151" pan="0"/>
          <note key="41" pos="168" len="12" vol="151" pan="0"/>
          <note key="44" pos="180" len="12" vol="151" pan="0"/>
          <note key="43" pos="192" len="12" vol="151" pan="0"/>
          <note key="45" pos="204" len="12" vol="151" pan="0"/>
          <note key="47" pos="216" len="12" vol="157" pan="0"/>
          <note key="50" pos="228" len="12" vol="157" pan="0"/>
          <note key="47" pos="240" len="12" vol="163" pan="0"/>
          <note key="50" pos="252" len="12" vol="163" pan="0"/>
          <note key="53" pos="264" len="12" vol="163" pan="0"/>
          <note key="56" pos="276" len="12" vol="170" pan="0"/>
          <note key="50" pos="288" len="36" vol="176" pan="0"/>
          <note key="43" pos="288" len="36" vol="176" pan="0"/>
          <note key="0" pos="288" len="12" vol="151" pan="0"/>
        </pattern>
        <pattern steps="16" muted="0" type="1" pos="4992" name="Rhythm Guitar">
          <note key="43" pos="0" len="384" vol="187" pan="0"/>
          <note key="36" pos="0" len="384" vol="187" pan="0"/>
          <note key="0" pos="0" len="300" vol="187" pan="0"/>
        </pattern>
      </track>
      <track solo="0" muted="1" type="0" name="Lead Guitar S">
        <instrumenttrack basenote="57" pitchrange="1" pitch="0" usemasterpitch="1" vol="200" pan="0" fxch="12">
          <instrument name="carlapatchbay">
            <carlapatchbay>
              <CARLA-PROJECT VERSION="2.2">
                <EngineSettings>
                  <ForceStereo>false</ForceStereo>
                  <PreferPluginBridges>false</PreferPluginBridges>
                  <PreferUiBridges>true</PreferUiBridges>
                  <UIsAlwaysOnTop>false</UIsAlwaysOnTop>
                  <MaxParameters>200</MaxParameters>
                  <UIBridgesTimeout>4000</UIBridgesTimeout>
                  <LADSPA_PATH>/home/pass/.ladspa:/usr/lib/ladspa:/usr/local/lib/ladspa</LADSPA_PATH>
                  <DSSI_PATH>/home/pass/.dssi:/usr/lib/dssi:/usr/local/lib/dssi</DSSI_PATH>
                  <LV2_PATH>/home/pass/.lv2:/usr/lib/lv2:/usr/local/lib/lv2</LV2_PATH>
                  <VST2_PATH>/home/pass/.vst:/home/pass/.wine/drive_c/Program Files (x86)/VstPlugins:/home/pass/.wine/drive_c/Program Files/VstPlugins:/usr/lib/lxvst:/usr/lib/vst:/usr/local/lib/lxvst:/usr/local/lib/vst/home/pass/.lxvst:/home/pass/vst</VST2_PATH>
                  <VST3_PATH>/home/pass/.vst3:/home/pass/.wine/drive_c/Program Files (x86)/Common Files/VST3:/home/pass/.wine/drive_c/Program Files/Common Files/VST3:/usr/lib/vst3:/usr/local/lib/vst3</VST3_PATH>
                  <SF2_PATH>/home/pass/.sounds/sf2/home/pass/.sounds/sf3:/usr/share/soundfonts:/usr/share/sounds/sf2:/usr/share/sounds/sf3</SF2_PATH>
                  <SFZ_PATH>/home/pass/.sounds/sfz:/home/pass/samples:/usr/share/sounds/sfz</SFZ_PATH>
                </EngineSettings>
                <!-- sfizz -->
                <Plugin>
                  <Info>
                    <Type>LV2</Type>
                    <Name>sfizz</Name>
                    <URI>http://sfztools.github.io/sfizz</URI>
                  </Info>
                  <Data>
                    <Active>Yes</Active>
                    <ControlChannel>1</ControlChannel>
                    <Options>0x3f0</Options>
                    <Parameter>
                      <Index>0</Index>
                      <Name>Volume</Name>
                      <Symbol>volume</Symbol>
                      <Value>0</Value>
                    </Parameter>
                    <Parameter>
                      <Index>1</Index>
                      <Name>Polyphony</Name>
                      <Symbol>num_voices</Symbol>
                      <Value>64</Value>
                    </Parameter>
                    <Parameter>
                      <Index>2</Index>
                      <Name>Internal oversampling factor</Name>
                      <Symbol>oversampling</Symbol>
                      <Value>1</Value>
                    </Parameter>
                    <Parameter>
                      <Index>3</Index>
                      <Name>Preload size</Name>
                      <Symbol>preload_size</Symbol>
                      <Value>8192</Value>
                    </Parameter>
                    <CustomData>
                      <Type>http://lv2plug.in/ns/ext/atom#Path</Type>
                      <Key>http://sfztools.github.io/sfizz:sfzfile</Key>
                      <Value>/home/pass/samples/fakeguitar/_fakeguitar1_integrated.sfz</Value>
                    </CustomData>
                    <CustomData>
                      <Type>http://lv2plug.in/ns/ext/atom#Int</Type>
                      <Key>http://sfztools.github.io/sfizz:numvoices</Key>
                      <Value>QAAAAA==</Value>
                    </CustomData>
                    <CustomData>
                      <Type>http://lv2plug.in/ns/ext/atom#Int</Type>
                      <Key>http://sfztools.github.io/sfizz:preload_size</Key>
                      <Value>ACAAAA==</Value>
                    </CustomData>
                    <CustomData>
                      <Type>http://lv2plug.in/ns/ext/atom#Int</Type>
                      <Key>http://sfztools.github.io/sfizz:oversampling</Key>
                      <Value>AQAAAA==</Value>
                    </CustomData>
                  </Data>
                </Plugin>
                <Patchbay>
                  <Connection>
                    <Source>Midi Input:Capture 1</Source>
                    <Target>sfizz:events-in</Target>
                  </Connection>
                  <Connection>
                    <Source>sfizz:Left Output</Source>
                    <Target>Audio Output:Left</Target>
                  </Connection>
                  <Connection>
                    <Source>sfizz:Right Output</Source>
                    <Target>Audio Output:Right</Target>
                  </Connection>
                  <Positions>
                    <Position y1="1353" pluginId="0" x1="1693">
                      <Name>sfizz</Name>
                    </Position>
                  </Positions>
                </Patchbay>
              </CARLA-PROJECT>
            </carlapatchbay>
          </instrument>
          <eldata fwet="0" ftype="0" fcut="14000" fres="0.5">
            <elvol ctlenvamt="0" lamt="0" amt="0" latt="0" lspd_syncmode="0" dec="0.5" lpdel="0" att="0" lspd_denominator="4" hold="0.5" lspd="0.1" lspd_numerator="4" sustain="0.5" lshp="0" pdel="0" x100="0" rel="0.1" userwavefile=""/>
            <elcut ctlenvamt="0" lamt="0" amt="0" latt="0" lspd_syncmode="0" dec="0.5" lpdel="0" att="0" lspd_denominator="4" hold="0.5" lspd="0.1" lspd_numerator="4" sustain="0.5" lshp="0" pdel="0" x100="0" rel="0.1" userwavefile=""/>
            <elres ctlenvamt="0" lamt="0" amt="0" latt="0" lspd_syncmode="0" dec="0.5" lpdel="0" att="0" lspd_denominator="4" hold="0.5" lspd="0.1" lspd_numerator="4" sustain="0.5" lshp="0" pdel="0" x100="0" rel="0.1" userwavefile=""/>
          </eldata>
          <chordcreator chordrange="1" chord-enabled="0" chord="0"/>
          <arpeggiator arptime_syncmode="0" arpdir="0" arptime_numerator="4" arpmode="0" arp="0" arpmiss="0" arptime="200" arpgate="100" arp-enabled="0" arpskip="0" arptime_denominator="4" arprange="1" arpcycle="0"/>
          <midiport writable="0" fixedinputvelocity="-1" outputchannel="1" fixedoutputvelocity="-1" outputcontroller="0" basevelocity="63" fixedoutputnote="-1" inputchannel="0" inputcontroller="0" outputprogram="1" readable="0"/>
          <fxchain numofeffects="0" enabled="0"/>
        </instrumenttrack>
        <pattern steps="16" muted="0" type="1" pos="0" name="">
          <note key="60" pos="0" len="96" vol="144" pan="0"/>
          <note key="0" pos="0" len="96" vol="144" pan="0"/>
          <note key="62" pos="96" len="48" vol="144" pan="0"/>
          <note key="63" pos="144" len="48" vol="151" pan="0"/>
          <note key="65" pos="192" len="96" vol="157" pan="0"/>
          <note key="60" pos="288" len="48" vol="151" pan="0"/>
          <note key="65" pos="336" len="48" vol="151" pan="0"/>
          <note key="64" pos="384" len="96" vol="163" pan="0"/>
          <note key="60" pos="480" len="48" vol="144" pan="0"/>
          <note key="57" pos="528" len="48" vol="144" pan="0"/>
          <note key="56" pos="576" len="96" vol="144" pan="0"/>
          <note key="53" pos="672" len="96" vol="138" pan="0"/>
          <note key="48" pos="768" len="12" vol="144" pan="0"/>
          <note key="1" pos="768" len="12" vol="144" pan="0"/>
          <note key="43" pos="780" len="12" vol="144" pan="0"/>
          <note key="51" pos="792" len="12" vol="144" pan="0"/>
          <note key="48" pos="804" len="12" vol="144" pan="0"/>
          <note key="55" pos="816" len="12" vol="144" pan="0"/>
          <note key="51" pos="828" len="12" vol="144" pan="0"/>
          <note key="60" pos="840" len="12" vol="144" pan="0"/>
          <note key="55" pos="852" len="12" vol="144" pan="0"/>
          <note key="63" pos="864" len="12" vol="151" pan="0"/>
          <note key="60" pos="876" len="12" vol="144" pan="0"/>
          <note key="67" pos="888" len="12" vol="157" pan="0"/>
          <note key="63" pos="900" len="12" vol="151" pan="0"/>
          <note key="72" pos="912" len="12" vol="163" pan="0"/>
          <note key="0" pos="912" len="12" vol="144" pan="0"/>
          <note key="67" pos="924" len="12" vol="157" pan="0"/>
          <note key="63" pos="936" len="12" vol="151" pan="0"/>
          <note key="60" pos="948" len="12" vol="151" pan="0"/>
          <note key="53" pos="960" len="12" vol="144" pan="0"/>
          <note key="1" pos="960" len="12" vol="144" pan="0"/>
          <note key="48" pos="972" len="12" vol="144" pan="0"/>
          <note key="56" pos="984" len="12" vol="144" pan="0"/>
          <note key="53" pos="996" len="12" vol="144" pan="0"/>
          <note key="60" pos="1008" len="12" vol="144" pan="0"/>
          <note key="56" pos="1020" len="12" vol="144" pan="0"/>
          <note key="65" pos="1032" len="12" vol="151" pan="0"/>
          <note key="60" pos="1044" len="12" vol="144" pan="0"/>
          <note key="68" pos="1056" len="12" vol="157" pan="0"/>
          <note key="0" pos="1056" len="12" vol="144" pan="0"/>
          <note key="65" pos="1068" len="12" vol="151" pan="0"/>
          <note key="72" pos="1080" len="12" vol="163" pan="0"/>
          <note key="68" pos="1092" len="12" vol="157" pan="0"/>
          <note key="77" pos="1104" len="12" vol="170" pan="0"/>
          <note key="72" pos="1116" len="12" vol="163" pan="0"/>
          <note key="68" pos="1128" len="12" vol="157" pan="0"/>
          <note key="65" pos="1140" len="12" vol="151" pan="0"/>
          <note key="57" pos="1152" len="12" vol="144" pan="0"/>
          <note key="1" pos="1152" len="12" vol="144" pan="0"/>
          <note key="52" pos="1164" len="12" vol="144" pan="0"/>
          <note key="60" pos="1176" len="12" vol="144" pan="0"/>
          <note key="57" pos="1188" len="12" vol="144" pan="0"/>
          <note key="64" pos="1200" len="12" vol="151" pan="0"/>
          <note key="60" pos="1212" len="12" vol="144" pan="0"/>
          <note key="69" pos="1224" len="12" vol="157" pan="0"/>
          <note key="64" pos="1236" len="12" vol="144" pan="0"/>
          <note key="72" pos="1248" len="12" vol="163" pan="0"/>
          <note key="0" pos="1248" len="12" vol="144" pan="0"/>
          <note key="69" pos="1260" len="12" vol="157" pan="0"/>
          <note key="76" pos="1272" len="12" vol="170" pan="0"/>
          <note key="72" pos="1284" len="12" vol="163" pan="0"/>
          <note key="81" pos="1296" len="12" vol="170" pan="0"/>
          <note key="76" pos="1308" len="12" vol="163" pan="0"/>
          <note key="72" pos="1320" len="12" vol="157" pan="0"/>
          <note key="69" pos="1332" len="12" vol="157" pan="0"/>
          <note key="65" pos="1344" len="12" vol="144" pan="0"/>
          <note key="1" pos="1344" len="12" vol="144" pan="0"/>
          <note key="60" pos="1356" len="12" vol="144" pan="0"/>
          <note key="56" pos="1368" len="12" vol="144" pan="0"/>
          <note key="53" pos="1380" len="12" vol="144" pan="0"/>
          <note key="60" pos="1392" len="12" vol="144" pan="0"/>
          <note key="56" pos="1404" len="12" vol="144" pan="0"/>
          <note key="65" pos="1416" len="12" vol="151" pan="0"/>
          <note key="60" pos="1428" len="12" vol="144" pan="0"/>
          <note key="68" pos="1440" len="12" vol="157" pan="0"/>
          <note key="0" pos="1440" len="12" vol="144" pan="0"/>
          <note key="65" pos="1452" len="12" vol="151" pan="0"/>
          <note key="72" pos="1464" len="12" vol="163" pan="0"/>
          <note key="68" pos="1476" len="12" vol="157" pan="0"/>
          <note key="77" pos="1488" len="12" vol="170" pan="0"/>
          <note key="72" pos="1500" len="12" vol="163" pan="0"/>
          <note key="68" pos="1512" len="12" vol="157" pan="0"/>
          <note key="65" pos="1524" len="12" vol="151" pan="0"/>
          <note key="1" pos="1860" len="48" vol="100" pan="0"/>
          <note key="59" pos="1872" len="12" vol="151" pan="0"/>
          <note key="60" pos="1884" len="12" vol="157" pan="0"/>
          <note key="62" pos="1896" len="12" vol="157" pan="0"/>
          <note key="63" pos="1908" len="12" vol="163" pan="0"/>
          <note key="67" pos="1920" len="192" vol="170" pan="0"/>
          <note key="0" pos="1920" len="192" vol="170" pan="0"/>
          <note key="65" pos="2112" len="96" vol="170" pan="0"/>
          <note key="68" pos="2208" len="96" vol="170" pan="0"/>
          <note key="0" pos="2304" len="12" vol="157" pan="0"/>
          <note key="1" pos="2316" len="12" vol="157" pan="0"/>
          <note key="0" pos="2340" len="12" vol="157" pan="0"/>
          <note key="1" pos="2352" len="12" vol="157" pan="0"/>
          <note key="0" pos="2376" len="12" vol="157" pan="0"/>
          <note key="1" pos="2388" len="12" vol="157" pan="0"/>
          <note key="0" pos="2412" len="12" vol="157" pan="0"/>
          <note key="1" pos="2424" len="12" vol="157" pan="0"/>
          <note key="0" pos="2448" len="12" vol="157" pan="0"/>
          <note key="1" pos="2460" len="12" vol="157" pan="0"/>
          <note key="0" pos="2496" len="12" vol="157" pan="0"/>
          <note key="1" pos="2508" len="12" vol="157" pan="0"/>
          <note key="0" pos="2532" len="12" vol="157" pan="0"/>
          <note key="1" pos="2544" len="12" vol="157" pan="0"/>
          <note key="0" pos="2568" len="12" vol="157" pan="0"/>
          <note key="1" pos="2580" len="12" vol="157" pan="0"/>
          <note key="0" pos="2604" len="12" vol="157" pan="0"/>
          <note key="1" pos="2616" len="12" vol="157" pan="0"/>
          <note key="0" pos="2640" len="12" vol="157" pan="0"/>
          <note key="68" pos="2688" len="96" vol="170" pan="0"/>
          <note key="75" pos="2784" len="96" vol="170" pan="0"/>
          <note key="74" pos="2880" len="96" vol="170" pan="0"/>
          <note key="68" pos="2976" len="48" vol="170" pan="0"/>
          <note key="70" pos="3024" len="48" vol="170" pan="0"/>
          <note key="67" pos="3456" len="192" vol="176" pan="0"/>
          <note key="0" pos="3456" len="12" vol="151" pan="0"/>
          <note key="65" pos="3648" len="96" vol="176" pan="0"/>
          <note key="68" pos="3744" len="96" vol="176" pan="0"/>
          <note key="68" pos="4224" len="96" vol="176" pan="0"/>
          <note key="0" pos="4224" len="12" vol="151" pan="0"/>
          <note key="75" pos="4320" len="96" vol="176" pan="0"/>
          <note key="74" pos="4416" len="96" vol="182" pan="0"/>
          <note key="77" pos="4512" len="96" vol="182" pan="0"/>
          <note key="79" pos="4608" len="12" vol="170" pan="0"/>
          <note key="0" pos="4608" len="12" vol="151" pan="0"/>
          <note key="80" pos="4620" len="12" vol="163" pan="0"/>
          <note key="79" pos="4632" len="12" vol="163" pan="0"/>
          <note key="77" pos="4644" len="12" vol="163" pan="0"/>
          <note key="75" pos="4656" len="12" vol="170" pan="0"/>
          <note key="1" pos="4656" len="12" vol="151" pan="0"/>
          <note key="77" pos="4668" len="12" vol="157" pan="0"/>
          <note key="75" pos="4680" len="12" vol="151" pan="0"/>
          <note key="74" pos="4692" len="12" vol="151" pan="0"/>
          <note key="70" pos="4704" len="12" vol="151" pan="0"/>
          <note key="0" pos="4704" len="12" vol="151" pan="0"/>
          <note key="75" pos="4716" len="12" vol="157" pan="0"/>
          <note key="79" pos="4728" len="12" vol="157" pan="0"/>
          <note key="82" pos="4740" len="12" vol="163" pan="0"/>
          <note key="79" pos="4752" len="12" vol="157" pan="0"/>
          <note key="1" pos="4752" len="12" vol="151" pan="0"/>
          <note key="75" pos="4764" len="12" vol="151" pan="0"/>
          <note key="74" pos="4776" len="12" vol="144" pan="0"/>
          <note key="75" pos="4788" len="12" vol="144" pan="0"/>
          <note key="74" pos="4800" len="12" vol="170" pan="0"/>
          <note key="77" pos="4812" len="12" vol="157" pan="0"/>
          <note key="74" pos="4824" len="12" vol="157" pan="0"/>
          <note key="71" pos="4836" len="12" vol="157" pan="0"/>
          <note key="67" pos="4848" len="12" vol="163" pan="0"/>
          <note key="71" pos="4860" len="12" vol="151" pan="0"/>
          <note key="67" pos="4872" len="12" vol="151" pan="0"/>
          <note key="62" pos="4884" len="12" vol="151" pan="0"/>
          <note key="59" pos="4896" len="12" vol="151" pan="0"/>
          <note key="62" pos="4908" len="12" vol="151" pan="0"/>
          <note key="67" pos="4920" len="12" vol="151" pan="0"/>
          <note key="71" pos="4932" len="12" vol="144" pan="0"/>
          <note key="67" pos="4944" len="12" vol="157" pan="0"/>
          <note key="0" pos="4944" len="12" vol="151" pan="0"/>
          <note key="74" pos="4956" len="12" vol="157" pan="0"/>
          <note key="79" pos="4968" len="12" vol="157" pan="0"/>
          <note key="83" pos="4980" len="12" vol="157" pan="0"/>
          <note key="84" pos="4992" len="576" vol="170" pan="0"/>
          <note key="80" pos="8064" len="12" vol="170" pan="0"/>
          <note key="0" pos="8064" len="96" vol="151" pan="0"/>
          <note key="79" pos="8076" len="12" vol="157" pan="0"/>
          <note key="72" pos="8088" len="12" vol="157" pan="0"/>
          <note key="82" pos="8100" len="12" vol="176" pan="0"/>
          <note key="79" pos="8112" len="12" vol="157" pan="0"/>
          <note key="72" pos="8124" len="12" vol="157" pan="0"/>
          <note key="80" pos="8136" len="12" vol="170" pan="0"/>
          <note key="79" pos="8148" len="12" vol="157" pan="0"/>
          <note key="72" pos="8160" len="12" vol="157" pan="0"/>
          <note key="84" pos="8172" len="12" vol="176" pan="0"/>
          <note key="79" pos="8184" len="12" vol="157" pan="0"/>
          <note key="72" pos="8196" len="12" vol="157" pan="0"/>
          <note key="82" pos="8208" len="12" vol="170" pan="0"/>
          <note key="72" pos="8220" len="12" vol="157" pan="0"/>
          <note key="87" pos="8232" len="12" vol="182" pan="0"/>
          <note key="72" pos="8244" len="12" vol="157" pan="0"/>
          <note key="86" pos="8256" len="12" vol="176" pan="0"/>
          <note key="87" pos="8268" len="12" vol="182" pan="0"/>
          <note key="86" pos="8280" len="12" vol="176" pan="0"/>
          <note key="82" pos="8292" len="12" vol="170" pan="0"/>
          <note key="77" pos="8304" len="12" vol="176" pan="0"/>
          <note key="82" pos="8316" len="12" vol="170" pan="0"/>
          <note key="80" pos="8328" len="12" vol="163" pan="0"/>
          <note key="79" pos="8340" len="12" vol="163" pan="0"/>
          <note key="77" pos="8352" len="12" vol="176" pan="0"/>
          <note key="79" pos="8364" len="12" vol="170" pan="0"/>
          <note key="77" pos="8376" len="12" vol="163" pan="0"/>
          <note key="75" pos="8388" len="12" vol="163" pan="0"/>
          <note key="74" pos="8400" len="12" vol="176" pan="0"/>
          <note key="75" pos="8412" len="12" vol="170" pan="0"/>
          <note key="74" pos="8424" len="12" vol="170" pan="0"/>
          <note key="70" pos="8436" len="12" vol="170" pan="0"/>
          <note key="0" pos="8832" len="12" vol="182" pan="0"/>
          <note key="1" pos="8856" len="12" vol="182" pan="0"/>
          <note key="0" pos="8904" len="12" vol="182" pan="0"/>
          <note key="1" pos="8928" len="12" vol="182" pan="0"/>
          <note key="0" pos="8976" len="12" vol="182" pan="0"/>
          <note key="1" pos="9000" len="12" vol="182" pan="0"/>
          <note key="80" pos="9216" len="12" vol="176" pan="0"/>
          <note key="75" pos="9216" len="12" vol="163" pan="0"/>
          <note key="0" pos="9216" len="12" vol="182" pan="0"/>
          <note key="72" pos="9228" len="12" vol="163" pan="0"/>
          <note key="68" pos="9240" len="12" vol="157" pan="0"/>
          <note key="84" pos="9252" len="12" vol="176" pan="0"/>
          <note key="80" pos="9252" len="12" vol="157" pan="0"/>
          <note key="72" pos="9264" len="12" vol="163" pan="0"/>
          <note key="68" pos="9276" len="12" vol="157" pan="0"/>
          <note key="80" pos="9288" len="12" vol="176" pan="0"/>
          <note key="75" pos="9288" len="12" vol="157" pan="0"/>
          <note key="72" pos="9300" len="12" vol="163" pan="0"/>
          <note key="68" pos="9312" len="12" vol="157" pan="0"/>
          <note key="84" pos="9324" len="12" vol="176" pan="0"/>
          <note key="80" pos="9324" len="12" vol="157" pan="0"/>
          <note key="72" pos="9336" len="12" vol="163" pan="0"/>
          <note key="68" pos="9348" len="12" vol="157" pan="0"/>
          <note key="82" pos="9360" len="12" vol="176" pan="0"/>
          <note key="77" pos="9360" len="12" vol="157" pan="0"/>
          <note key="74" pos="9372" len="12" vol="170" pan="0"/>
          <note key="70" pos="9384" len="12" vol="163" pan="0"/>
          <note key="86" pos="9396" len="12" vol="176" pan="0"/>
          <note key="82" pos="9396" len="12" vol="157" pan="0"/>
          <note key="74" pos="9408" len="12" vol="170" pan="0"/>
          <note key="70" pos="9420" len="12" vol="163" pan="0"/>
          <note key="87" pos="9432" len="12" vol="182" pan="0"/>
          <note key="82" pos="9432" len="12" vol="157" pan="0"/>
          <note key="74" pos="9444" len="12" vol="170" pan="0"/>
          <note key="70" pos="9456" len="12" vol="163" pan="0"/>
          <note key="89" pos="9468" len="12" vol="188" pan="0"/>
          <note key="82" pos="9468" len="12" vol="157" pan="0"/>
          <note key="74" pos="9480" len="12" vol="170" pan="0"/>
          <note key="70" pos="9492" len="12" vol="163" pan="0"/>
          <note key="65" pos="9504" len="12" vol="170" pan="0"/>
          <note key="70" pos="9516" len="12" vol="170" pan="0"/>
          <note key="74" pos="9528" len="12" vol="176" pan="0"/>
          <note key="77" pos="9540" len="12" vol="176" pan="0"/>
          <note key="82" pos="9552" len="12" vol="176" pan="0"/>
          <note key="86" pos="9564" len="12" vol="176" pan="0"/>
          <note key="89" pos="9576" len="12" vol="182" pan="0"/>
          <note key="94" pos="9588" len="12" vol="182" pan="0"/>
          <note key="67" pos="9600" len="12" vol="163" pan="0"/>
          <note key="63" pos="9612" len="12" vol="157" pan="0"/>
          <note key="60" pos="9624" len="12" vol="157" pan="0"/>
          <note key="63" pos="9636" len="12" vol="157" pan="0"/>
          <note key="55" pos="9648" len="12" vol="157" pan="0"/>
          <note key="60" pos="9660" len="12" vol="163" pan="0"/>
          <note key="51" pos="9672" len="12" vol="151" pan="0"/>
          <note key="55" pos="9684" len="12" vol="157" pan="0"/>
          <note key="48" pos="9696" len="12" vol="151" pan="0"/>
          <note key="55" pos="9708" len="12" vol="151" pan="0"/>
          <note key="51" pos="9720" len="12" vol="151" pan="0"/>
          <note key="55" pos="9732" len="12" vol="157" pan="0"/>
          <note key="60" pos="9744" len="12" vol="163" pan="0"/>
          <note key="67" pos="9756" len="12" vol="163" pan="0"/>
          <note key="65" pos="9768" len="12" vol="163" pan="0"/>
          <note key="63" pos="9780" len="12" vol="163" pan="0"/>
          <note key="67" pos="9792" len="12" vol="170" pan="0"/>
          <note key="63" pos="9804" len="12" vol="157" pan="0"/>
          <note key="60" pos="9816" len="12" vol="157" pan="0"/>
          <note key="63" pos="9828" len="12" vol="151" pan="0"/>
          <note key="55" pos="9840" len="12" vol="157" pan="0"/>
          <note key="60" pos="9852" len="12" vol="163" pan="0"/>
          <note key="51" pos="9864" len="12" vol="151" pan="0"/>
          <note key="55" pos="9876" len="12" vol="151" pan="0"/>
          <note key="48" pos="9888" len="12" vol="151" pan="0"/>
          <note key="55" pos="9900" len="12" vol="157" pan="0"/>
          <note key="51" pos="9912" len="12" vol="157" pan="0"/>
          <note key="55" pos="9924" len="12" vol="163" pan="0"/>
          <note key="60" pos="9936" len="12" vol="163" pan="0"/>
          <note key="67" pos="9948" len="12" vol="163" pan="0"/>
          <note key="65" pos="9960" len="12" vol="163" pan="0"/>
          <note key="63" pos="9972" len="12" vol="163" pan="0"/>
          <note key="66" pos="9984" len="12" vol="170" pan="0"/>
          <note key="61" pos="9996" len="12" vol="157" pan="0"/>
          <note key="60" pos="10008" len="12" vol="157" pan="0"/>
          <note key="61" pos="10020" len="12" vol="157" pan="0"/>
          <note key="58" pos="10032" len="12" vol="163" pan="0"/>
          <note key="61" pos="10044" len="12" vol="163" pan="0"/>
          <note key="54" pos="10056" len="12" vol="151" pan="0"/>
          <note key="61" pos="10068" len="12" vol="163" pan="0"/>
          <note key="49" pos="10080" len="12" vol="151" pan="0"/>
          <note key="61" pos="10092" len="12" vol="163" pan="0"/>
          <note key="60" pos="10104" len="12" vol="157" pan="0"/>
          <note key="58" pos="10116" len="12" vol="157" pan="0"/>
          <note key="54" pos="10128" len="12" vol="157" pan="0"/>
          <note key="58" pos="10140" len="12" vol="163" pan="0"/>
          <note key="60" pos="10152" len="12" vol="170" pan="0"/>
          <note key="65" pos="10164" len="12" vol="170" pan="0"/>
          <note key="66" pos="10176" len="12" vol="170" pan="0"/>
          <note key="61" pos="10188" len="12" vol="157" pan="0"/>
          <note key="60" pos="10200" len="12" vol="157" pan="0"/>
          <note key="61" pos="10212" len="12" vol="157" pan="0"/>
          <note key="58" pos="10224" len="12" vol="151" pan="0"/>
          <note key="61" pos="10236" len="12" vol="163" pan="0"/>
          <note key="49" pos="10248" len="12" vol="151" pan="0"/>
          <note key="61" pos="10260" len="12" vol="157" pan="0"/>
          <note key="54" pos="10272" len="12" vol="151" pan="0"/>
          <note key="61" pos="10284" len="12" vol="151" pan="0"/>
          <note key="60" pos="10296" len="12" vol="151" pan="0"/>
          <note key="61" pos="10308" len="12" vol="157" pan="0"/>
          <note key="66" pos="10320" len="12" vol="163" pan="0"/>
          <note key="70" pos="10332" len="12" vol="163" pan="0"/>
          <note key="72" pos="10344" len="12" vol="163" pan="0"/>
          <note key="73" pos="10356" len="12" vol="170" pan="0"/>
          <note key="79" pos="10368" len="12" vol="163" pan="0"/>
          <note key="75" pos="10380" len="12" vol="163" pan="0"/>
          <note key="72" pos="10392" len="12" vol="157" pan="0"/>
          <note key="75" pos="10404" len="12" vol="151" pan="0"/>
          <note key="67" pos="10416" len="12" vol="151" pan="0"/>
          <note key="72" pos="10428" len="12" vol="151" pan="0"/>
          <note key="63" pos="10440" len="12" vol="144" pan="0"/>
          <note key="67" pos="10452" len="12" vol="144" pan="0"/>
          <note key="60" pos="10464" len="12" vol="138" pan="0"/>
          <note key="67" pos="10476" len="12" vol="138" pan="0"/>
          <note key="63" pos="10488" len="12" vol="138" pan="0"/>
          <note key="67" pos="10500" len="12" vol="132" pan="0"/>
          <note key="72" pos="10512" len="12" vol="132" pan="0"/>
          <note key="79" pos="10524" len="12" vol="132" pan="0"/>
          <note key="77" pos="10536" len="12" vol="125" pan="0"/>
          <note key="75" pos="10548" len="12" vol="125" pan="0"/>
          <note key="79" pos="10560" len="12" vol="119" pan="0"/>
          <note key="75" pos="10572" len="12" vol="119" pan="0"/>
          <note key="72" pos="10584" len="12" vol="113" pan="0"/>
          <note key="75" pos="10596" len="12" vol="113" pan="0"/>
          <note key="67" pos="10608" len="12" vol="107" pan="0"/>
          <note key="72" pos="10620" len="12" vol="107" pan="0"/>
          <note key="63" pos="10632" len="12" vol="100" pan="0"/>
          <note key="67" pos="10644" len="12" vol="100" pan="0"/>
          <note key="60" pos="10656" len="12" vol="94" pan="0"/>
          <note key="67" pos="10668" len="12" vol="94" pan="0"/>
          <note key="63" pos="10680" len="12" vol="88" pan="0"/>
          <note key="67" pos="10692" len="12" vol="88" pan="0"/>
          <note key="72" pos="10704" len="12" vol="81" pan="0"/>
          <note key="79" pos="10716" len="12" vol="75" pan="0"/>
          <note key="77" pos="10728" len="12" vol="69" pan="0"/>
          <note key="75" pos="10740" len="12" vol="69" pan="0"/>
          <note key="66" pos="10752" len="192" vol="125" pan="0"/>
          <note key="61" pos="10752" len="192" vol="125" pan="0"/>
          <note key="60" pos="10752" len="192" vol="157" pan="0"/>
          <note key="66" pos="10944" len="192" vol="125" pan="0"/>
          <note key="61" pos="10944" len="192" vol="125" pan="0"/>
          <note key="58" pos="10944" len="192" vol="157" pan="0"/>
          <note key="84" pos="11136" len="12" vol="176" pan="0"/>
          <note key="0" pos="11136" len="12" vol="176" pan="0"/>
          <note key="80" pos="11148" len="12" vol="176" pan="0"/>
          <note key="77" pos="11160" len="12" vol="176" pan="0"/>
          <note key="72" pos="11172" len="12" vol="170" pan="0"/>
          <note key="65" pos="11184" len="12" vol="157" pan="0"/>
          <note key="1" pos="11184" len="12" vol="176" pan="0"/>
          <note key="67" pos="11196" len="12" vol="157" pan="0"/>
          <note key="68" pos="11208" len="12" vol="163" pan="0"/>
          <note key="72" pos="11220" len="12" vol="170" pan="0"/>
          <note key="84" pos="11232" len="12" vol="176" pan="0"/>
          <note key="0" pos="11232" len="12" vol="176" pan="0"/>
          <note key="80" pos="11244" len="12" vol="176" pan="0"/>
          <note key="77" pos="11256" len="12" vol="176" pan="0"/>
          <note key="72" pos="11268" len="12" vol="170" pan="0"/>
          <note key="65" pos="11280" len="12" vol="157" pan="0"/>
          <note key="1" pos="11280" len="12" vol="176" pan="0"/>
          <note key="67" pos="11292" len="12" vol="157" pan="0"/>
          <note key="68" pos="11304" len="12" vol="163" pan="0"/>
          <note key="72" pos="11316" len="12" vol="163" pan="0"/>
          <note key="65" pos="11328" len="12" vol="157" pan="0"/>
          <note key="67" pos="11340" len="12" vol="157" pan="0"/>
          <note key="68" pos="11352" len="12" vol="157" pan="0"/>
          <note key="72" pos="11364" len="12" vol="163" pan="0"/>
          <note key="67" pos="11376" len="12" vol="163" pan="0"/>
          <note key="68" pos="11388" len="12" vol="163" pan="0"/>
          <note key="72" pos="11400" len="12" vol="163" pan="0"/>
          <note key="77" pos="11412" len="12" vol="170" pan="0"/>
          <note key="68" pos="11424" len="12" vol="170" pan="0"/>
          <note key="72" pos="11436" len="12" vol="170" pan="0"/>
          <note key="77" pos="11448" len="12" vol="170" pan="0"/>
          <note key="80" pos="11460" len="12" vol="176" pan="0"/>
          <note key="72" pos="11472" len="12" vol="176" pan="0"/>
          <note key="77" pos="11484" len="12" vol="176" pan="0"/>
          <note key="80" pos="11496" len="12" vol="176" pan="0"/>
          <note key="0" pos="11496" len="12" vol="176" pan="0"/>
          <note key="82" pos="11508" len="12" vol="182" pan="0"/>
          <note key="84" pos="11520" len="12" vol="188" pan="0"/>
          <note key="0" pos="11520" len="12" vol="176" pan="0"/>
          <note key="80" pos="11532" len="12" vol="182" pan="0"/>
          <note key="77" pos="11544" len="12" vol="182" pan="0"/>
          <note key="80" pos="11556" len="12" vol="176" pan="0"/>
          <note key="73" pos="11568" len="12" vol="176" pan="0"/>
          <note key="77" pos="11580" len="12" vol="176" pan="0"/>
          <note key="68" pos="11592" len="12" vol="170" pan="0"/>
          <note key="73" pos="11604" len="12" vol="170" pan="0"/>
          <note key="65" pos="11616" len="12" vol="163" pan="0"/>
          <note key="1" pos="11616" len="12" vol="176" pan="0"/>
          <note key="68" pos="11628" len="12" vol="163" pan="0"/>
          <note key="61" pos="11640" len="12" vol="163" pan="0"/>
          <note key="65" pos="11652" len="12" vol="163" pan="0"/>
          <note key="56" pos="11664" len="12" vol="157" pan="0"/>
          <note key="61" pos="11676" len="12" vol="163" pan="0"/>
          <note key="65" pos="11688" len="12" vol="163" pan="0"/>
          <note key="67" pos="11700" len="12" vol="170" pan="0"/>
          <note key="80" pos="11712" len="12" vol="176" pan="0"/>
          <note key="0" pos="11712" len="12" vol="176" pan="0"/>
          <note key="79" pos="11724" len="12" vol="176" pan="0"/>
          <note key="77" pos="11736" len="12" vol="170" pan="0"/>
          <note key="73" pos="11748" len="12" vol="170" pan="0"/>
          <note key="77" pos="11760" len="12" vol="170" pan="0"/>
          <note key="1" pos="11760" len="12" vol="176" pan="0"/>
          <note key="79" pos="11772" len="12" vol="176" pan="0"/>
          <note key="80" pos="11784" len="12" vol="176" pan="0"/>
          <note key="85" pos="11796" len="12" vol="182" pan="0"/>
          <note key="89" pos="11808" len="12" vol="182" pan="0"/>
          <note key="0" pos="11808" len="12" vol="176" pan="0"/>
          <note key="87" pos="11820" len="12" vol="182" pan="0"/>
          <note key="85" pos="11832" len="12" vol="176" pan="0"/>
          <note key="80" pos="11844" len="12" vol="176" pan="0"/>
          <note key="85" pos="11856" len="12" vol="176" pan="0"/>
          <note key="1" pos="11856" len="12" vol="176" pan="0"/>
          <note key="87" pos="11868" len="12" vol="182" pan="0"/>
          <note key="89" pos="11880" len="12" vol="182" pan="0"/>
          <note key="92" pos="11892" len="12" vol="188" pan="0"/>
          <note key="84" pos="11904" len="12" vol="176" pan="0"/>
          <note key="80" pos="11916" len="12" vol="176" pan="0"/>
          <note key="77" pos="11928" len="12" vol="176" pan="0"/>
          <note key="72" pos="11940" len="12" vol="170" pan="0"/>
          <note key="65" pos="11952" len="12" vol="157" pan="0"/>
          <note key="67" pos="11964" len="12" vol="157" pan="0"/>
          <note key="68" pos="11976" len="12" vol="163" pan="0"/>
          <note key="72" pos="11988" len="12" vol="170" pan="0"/>
          <note key="84" pos="12000" len="12" vol="176" pan="0"/>
          <note key="80" pos="12012" len="12" vol="176" pan="0"/>
          <note key="77" pos="12024" len="12" vol="176" pan="0"/>
          <note key="72" pos="12036" len="12" vol="170" pan="0"/>
          <note key="65" pos="12048" len="12" vol="157" pan="0"/>
          <note key="67" pos="12060" len="12" vol="157" pan="0"/>
          <note key="68" pos="12072" len="12" vol="163" pan="0"/>
          <note key="72" pos="12084" len="12" vol="163" pan="0"/>
          <note key="65" pos="12096" len="12" vol="157" pan="0"/>
          <note key="67" pos="12108" len="12" vol="157" pan="0"/>
          <note key="68" pos="12120" len="12" vol="157" pan="0"/>
          <note key="72" pos="12132" len="12" vol="163" pan="0"/>
          <note key="67" pos="12144" len="12" vol="163" pan="0"/>
          <note key="68" pos="12156" len="12" vol="163" pan="0"/>
          <note key="72" pos="12168" len="12" vol="163" pan="0"/>
          <note key="77" pos="12180" len="12" vol="170" pan="0"/>
          <note key="68" pos="12192" len="12" vol="170" pan="0"/>
          <note key="72" pos="12204" len="12" vol="170" pan="0"/>
          <note key="77" pos="12216" len="12" vol="170" pan="0"/>
          <note key="80" pos="12228" len="12" vol="176" pan="0"/>
          <note key="72" pos="12240" len="12" vol="176" pan="0"/>
          <note key="77" pos="12252" len="12" vol="176" pan="0"/>
          <note key="80" pos="12264" len="12" vol="176" pan="0"/>
          <note key="82" pos="12276" len="12" vol="182" pan="0"/>
          <note key="84" pos="12288" len="12" vol="188" pan="0"/>
          <note key="80" pos="12300" len="12" vol="182" pan="0"/>
          <note key="77" pos="12312" len="12" vol="182" pan="0"/>
          <note key="80" pos="12324" len="12" vol="176" pan="0"/>
          <note key="73" pos="12336" len="12" vol="176" pan="0"/>
          <note key="77" pos="12348" len="12" vol="176" pan="0"/>
          <note key="68" pos="12360" len="12" vol="170" pan="0"/>
          <note key="73" pos="12372" len="12" vol="170" pan="0"/>
          <note key="65" pos="12384" len="12" vol="163" pan="0"/>
          <note key="68" pos="12396" len="12" vol="163" pan="0"/>
          <note key="61" pos="12408" len="12" vol="163" pan="0"/>
          <note key="65" pos="12420" len="12" vol="163" pan="0"/>
          <note key="56" pos="12432" len="12" vol="157" pan="0"/>
          <note key="61" pos="12444" len="12" vol="163" pan="0"/>
          <note key="65" pos="12456" len="12" vol="163" pan="0"/>
          <note key="67" pos="12468" len="12" vol="170" pan="0"/>
          <note key="80" pos="12480" len="12" vol="176" pan="0"/>
          <note key="79" pos="12492" len="12" vol="176" pan="0"/>
          <note key="77" pos="12504" len="12" vol="170" pan="0"/>
          <note key="73" pos="12516" len="12" vol="170" pan="0"/>
          <note key="77" pos="12528" len="12" vol="170" pan="0"/>
          <note key="79" pos="12540" len="12" vol="176" pan="0"/>
          <note key="80" pos="12552" len="12" vol="176" pan="0"/>
          <note key="85" pos="12564" len="12" vol="182" pan="0"/>
          <note key="89" pos="12576" len="12" vol="182" pan="0"/>
          <note key="87" pos="12588" len="12" vol="182" pan="0"/>
          <note key="85" pos="12600" len="12" vol="176" pan="0"/>
          <note key="80" pos="12612" len="12" vol="176" pan="0"/>
          <note key="85" pos="12624" len="12" vol="176" pan="0"/>
          <note key="87" pos="12636" len="12" vol="182" pan="0"/>
          <note key="89" pos="12648" len="12" vol="182" pan="0"/>
          <note key="92" pos="12660" len="12" vol="188" pan="0"/>
        </pattern>
        <pattern steps="16" muted="0" type="1" pos="29952" name="Lead Guitar S">
          <note key="76" pos="0" len="72" vol="157" pan="0"/>
          <note key="64" pos="72" len="24" vol="144" pan="0"/>
          <note key="66" pos="96" len="24" vol="144" pan="0"/>
          <note key="67" pos="120" len="24" vol="144" pan="0"/>
          <note key="72" pos="144" len="72" vol="144" pan="0"/>
          <note key="71" pos="216" len="72" vol="144" pan="0"/>
          <note key="76" pos="288" len="24" vol="144" pan="0"/>
          <note key="71" pos="312" len="24" vol="144" pan="0"/>
          <note key="76" pos="336" len="24" vol="144" pan="0"/>
          <note key="78" pos="360" len="24" vol="151" pan="0"/>
          <note key="79" pos="384" len="24" vol="157" pan="0"/>
          <note key="78" pos="408" len="24" vol="151" pan="0"/>
          <note key="74" pos="432" len="24" vol="144" pan="0"/>
          <note key="69" pos="456" len="24" vol="144" pan="0"/>
          <note key="67" pos="480" len="24" vol="144" pan="0"/>
          <note key="66" pos="504" len="24" vol="144" pan="0"/>
          <note key="62" pos="528" len="48" vol="138" pan="0"/>
          <note key="62" pos="600" len="23" vol="151" pan="0"/>
          <note key="71" pos="624" len="23" vol="151" pan="0"/>
          <note key="67" pos="648" len="23" vol="151" pan="0"/>
          <note key="64" pos="672" len="23" vol="151" pan="0"/>
          <note key="66" pos="696" len="23" vol="157" pan="0"/>
          <note key="74" pos="720" len="12" vol="151" pan="0"/>
          <note key="76" pos="732" len="11" vol="151" pan="0"/>
          <note key="74" pos="744" len="23" vol="157" pan="0"/>
          <note key="67" pos="768" len="24" vol="157" pan="0"/>
          <note key="59" pos="792" len="24" vol="132" pan="0"/>
          <note key="64" pos="816" len="24" vol="144" pan="0"/>
          <note key="66" pos="840" len="24" vol="151" pan="0"/>
          <note key="59" pos="864" len="24" vol="151" pan="0"/>
          <note key="64" pos="888" len="24" vol="151" pan="0"/>
          <note key="67" pos="912" len="24" vol="163" pan="0"/>
          <note key="59" pos="936" len="24" vol="151" pan="0"/>
          <note key="64" pos="960" len="24" vol="151" pan="0"/>
          <note key="71" pos="984" len="24" vol="163" pan="0"/>
          <note key="64" pos="1008" len="24" vol="151" pan="0"/>
          <note key="67" pos="1032" len="24" vol="151" pan="0"/>
          <note key="76" pos="1056" len="24" vol="163" pan="0"/>
          <note key="71" pos="1080" len="24" vol="157" pan="0"/>
          <note key="76" pos="1104" len="24" vol="151" pan="0"/>
          <note key="78" pos="1128" len="24" vol="163" pan="0"/>
          <note key="79" pos="1152" len="24" vol="168" pan="0"/>
          <note key="71" pos="1176" len="24" vol="151" pan="0"/>
          <note key="76" pos="1200" len="24" vol="157" pan="0"/>
          <note key="83" pos="1224" len="48" vol="168" pan="0"/>
          <note key="71" pos="1224" len="48" vol="157" pan="0"/>
          <note key="81" pos="1272" len="48" vol="168" pan="0"/>
          <note key="69" pos="1272" len="48" vol="157" pan="0"/>
          <note key="78" pos="1320" len="48" vol="168" pan="0"/>
          <note key="66" pos="1320" len="48" vol="151" pan="0"/>
          <note key="69" pos="1368" len="24" vol="151" pan="0"/>
          <note key="76" pos="1392" len="24" vol="151" pan="0"/>
          <note key="78" pos="1416" len="24" vol="151" pan="0"/>
          <note key="79" pos="1440" len="72" vol="151" pan="0"/>
          <note key="78" pos="1512" len="84" vol="144" pan="0"/>
          <note key="64" pos="1596" len="400" vol="125" pan="0"/>
          <note key="67" pos="1604" len="392" vol="138" pan="0"/>
          <note key="71" pos="1612" len="384" vol="138" pan="0"/>
          <note key="76" pos="1614" len="382" vol="144" pan="0"/>
        </pattern>
        <pattern steps="16" muted="0" type="1" pos="20736" name="Lead Guitar S">
          <note key="67" pos="0" len="192" vol="170" pan="0"/>
          <note key="0" pos="0" len="192" vol="170" pan="0"/>
          <note key="65" pos="192" len="96" vol="170" pan="0"/>
          <note key="68" pos="288" len="96" vol="170" pan="0"/>
          <note key="0" pos="720" len="23" vol="197" pan="0"/>
          <note key="68" pos="768" len="96" vol="170" pan="0"/>
          <note key="75" pos="864" len="96" vol="170" pan="0"/>
          <note key="74" pos="960" len="96" vol="170" pan="0"/>
          <note key="68" pos="1056" len="48" vol="170" pan="0"/>
          <note key="70" pos="1104" len="48" vol="170" pan="0"/>
          <note key="0" pos="1476" len="23" vol="197" pan="0"/>
          <note key="67" pos="1536" len="192" vol="176" pan="0"/>
          <note key="65" pos="1728" len="96" vol="176" pan="0"/>
          <note key="68" pos="1824" len="96" vol="176" pan="0"/>
          <note key="0" pos="2016" len="23" vol="197" pan="0"/>
          <note key="68" pos="2304" len="96" vol="176" pan="0"/>
          <note key="0" pos="2304" len="12" vol="151" pan="0"/>
          <note key="75" pos="2400" len="96" vol="176" pan="0"/>
          <note key="74" pos="2496" len="96" vol="182" pan="0"/>
          <note key="77" pos="2592" len="96" vol="182" pan="0"/>
          <note key="79" pos="2688" len="12" vol="170" pan="0"/>
          <note key="0" pos="2688" len="12" vol="151" pan="0"/>
          <note key="80" pos="2700" len="12" vol="163" pan="0"/>
          <note key="79" pos="2712" len="12" vol="163" pan="0"/>
          <note key="77" pos="2724" len="12" vol="163" pan="0"/>
          <note key="75" pos="2736" len="12" vol="170" pan="0"/>
          <note key="1" pos="2736" len="12" vol="151" pan="0"/>
          <note key="77" pos="2748" len="12" vol="157" pan="0"/>
          <note key="75" pos="2760" len="12" vol="151" pan="0"/>
          <note key="74" pos="2772" len="12" vol="151" pan="0"/>
          <note key="70" pos="2784" len="12" vol="151" pan="0"/>
          <note key="0" pos="2784" len="12" vol="151" pan="0"/>
          <note key="75" pos="2796" len="12" vol="157" pan="0"/>
          <note key="79" pos="2808" len="12" vol="157" pan="0"/>
          <note key="82" pos="2820" len="12" vol="163" pan="0"/>
          <note key="79" pos="2832" len="12" vol="157" pan="0"/>
          <note key="1" pos="2832" len="12" vol="151" pan="0"/>
          <note key="75" pos="2844" len="12" vol="151" pan="0"/>
          <note key="74" pos="2856" len="12" vol="144" pan="0"/>
          <note key="75" pos="2868" len="12" vol="144" pan="0"/>
          <note key="74" pos="2880" len="12" vol="170" pan="0"/>
          <note key="77" pos="2892" len="12" vol="157" pan="0"/>
          <note key="74" pos="2904" len="12" vol="157" pan="0"/>
          <note key="71" pos="2916" len="12" vol="157" pan="0"/>
          <note key="67" pos="2928" len="12" vol="163" pan="0"/>
          <note key="71" pos="2940" len="12" vol="151" pan="0"/>
          <note key="67" pos="2952" len="12" vol="151" pan="0"/>
          <note key="62" pos="2964" len="12" vol="151" pan="0"/>
          <note key="59" pos="2976" len="12" vol="151" pan="0"/>
          <note key="62" pos="2988" len="12" vol="151" pan="0"/>
          <note key="67" pos="3000" len="12" vol="151" pan="0"/>
          <note key="71" pos="3012" len="12" vol="144" pan="0"/>
          <note key="67" pos="3024" len="12" vol="157" pan="0"/>
          <note key="0" pos="3024" len="12" vol="151" pan="0"/>
          <note key="74" pos="3036" len="12" vol="157" pan="0"/>
          <note key="79" pos="3048" len="12" vol="157" pan="0"/>
          <note key="83" pos="3060" len="12" vol="157" pan="0"/>
          <note key="84" pos="3072" len="756" vol="170" pan="0"/>
        </pattern>
        <pattern steps="16" muted="0" type="1" pos="20160" name="Lead Guitar S">
          <note key="72" pos="96" len="12" vol="151" pan="0"/>
          <note key="70" pos="108" len="12" vol="151" pan="0"/>
          <note key="72" pos="120" len="12" vol="157" pan="0"/>
          <note key="74" pos="132" len="12" vol="157" pan="0"/>
          <note key="75" pos="144" len="12" vol="163" pan="0"/>
          <note key="74" pos="156" len="12" vol="163" pan="0"/>
          <note key="72" pos="168" len="12" vol="163" pan="0"/>
          <note key="74" pos="180" len="12" vol="163" pan="0"/>
          <note key="77" pos="192" len="12" vol="170" pan="0"/>
          <note key="74" pos="204" len="12" vol="170" pan="0"/>
          <note key="71" pos="216" len="12" vol="170" pan="0"/>
          <note key="74" pos="228" len="12" vol="170" pan="0"/>
          <note key="71" pos="240" len="12" vol="163" pan="0"/>
          <note key="68" pos="252" len="12" vol="163" pan="0"/>
          <note key="65" pos="264" len="12" vol="163" pan="0"/>
          <note key="68" pos="276" len="12" vol="163" pan="0"/>
          <note key="65" pos="288" len="12" vol="157" pan="0"/>
          <note key="62" pos="300" len="12" vol="157" pan="0"/>
          <note key="59" pos="312" len="12" vol="157" pan="0"/>
          <note key="62" pos="324" len="12" vol="157" pan="0"/>
          <note key="59" pos="336" len="12" vol="151" pan="0"/>
          <note key="56" pos="348" len="12" vol="151" pan="0"/>
          <note key="53" pos="360" len="12" vol="151" pan="0"/>
          <note key="56" pos="372" len="12" vol="151" pan="0"/>
          <note key="55" pos="384" len="12" vol="151" pan="0"/>
          <note key="57" pos="396" len="12" vol="151" pan="0"/>
          <note key="59" pos="408" len="12" vol="157" pan="0"/>
          <note key="62" pos="420" len="12" vol="157" pan="0"/>
          <note key="59" pos="432" len="12" vol="163" pan="0"/>
          <note key="62" pos="444" len="12" vol="163" pan="0"/>
          <note key="65" pos="456" len="12" vol="163" pan="0"/>
          <note key="68" pos="468" len="12" vol="170" pan="0"/>
          <note key="67" pos="480" len="24" vol="176" pan="0"/>
        </pattern>
        <pattern steps="16" muted="0" type="1" pos="15744" name="Lead Guitar S">
          <note key="75" pos="0" len="24" vol="170" pan="0"/>
          <note key="0" pos="0" len="382" vol="144" pan="0"/>
          <note key="67" pos="24" len="24" vol="151" pan="0"/>
          <note key="72" pos="48" len="24" vol="157" pan="0"/>
          <note key="74" pos="72" len="24" vol="163" pan="0"/>
          <note key="75" pos="96" len="24" vol="170" pan="0"/>
          <note key="67" pos="120" len="24" vol="151" pan="0"/>
          <note key="72" pos="144" len="24" vol="157" pan="0"/>
          <note key="75" pos="168" len="24" vol="163" pan="0"/>
          <note key="74" pos="192" len="24" vol="170" pan="0"/>
          <note key="65" pos="216" len="24" vol="157" pan="0"/>
          <note key="70" pos="240" len="24" vol="157" pan="0"/>
          <note key="72" pos="264" len="48" vol="170" pan="0"/>
          <note key="63" pos="312" len="24" vol="138" pan="0"/>
          <note key="70" pos="336" len="24" vol="157" pan="0"/>
          <note key="68" pos="360" len="24" vol="151" pan="0"/>
          <note key="70" pos="384" len="24" vol="157" pan="0"/>
          <note key="58" pos="408" len="24" vol="144" pan="0"/>
          <note key="63" pos="432" len="24" vol="163" pan="0"/>
          <note key="58" pos="456" len="24" vol="144" pan="0"/>
          <note key="63" pos="480" len="24" vol="163" pan="0"/>
          <note key="65" pos="504" len="24" vol="163" pan="0"/>
          <note key="67" pos="528" len="24" vol="163" pan="0"/>
          <note key="70" pos="552" len="24" vol="170" pan="0"/>
          <note key="68" pos="576" len="24" vol="163" pan="0"/>
          <note key="60" pos="600" len="24" vol="151" pan="0"/>
          <note key="65" pos="624" len="24" vol="163" pan="0"/>
          <note key="67" pos="648" len="48" vol="170" pan="0"/>
          <note key="60" pos="696" len="24" vol="151" pan="0"/>
          <note key="62" pos="720" len="24" vol="157" pan="0"/>
          <note key="63" pos="744" len="24" vol="157" pan="0"/>
          <note key="75" pos="768" len="24" vol="170" pan="0"/>
          <note key="67" pos="792" len="24" vol="151" pan="0"/>
          <note key="72" pos="816" len="24" vol="157" pan="0"/>
          <note key="74" pos="840" len="24" vol="163" pan="0"/>
          <note key="75" pos="864" len="24" vol="170" pan="0"/>
          <note key="67" pos="888" len="24" vol="151" pan="0"/>
          <note key="72" pos="912" len="24" vol="157" pan="0"/>
          <note key="75" pos="936" len="24" vol="163" pan="0"/>
          <note key="74" pos="960" len="24" vol="170" pan="0"/>
          <note key="65" pos="984" len="24" vol="157" pan="0"/>
          <note key="79" pos="1008" len="24" vol="170" pan="0"/>
          <note key="72" pos="1032" len="48" vol="170" pan="0"/>
          <note key="63" pos="1080" len="24" vol="138" pan="0"/>
          <note key="70" pos="1104" len="24" vol="157" pan="0"/>
          <note key="68" pos="1128" len="24" vol="151" pan="0"/>
          <note key="70" pos="1152" len="24" vol="157" pan="0"/>
          <note key="58" pos="1176" len="24" vol="144" pan="0"/>
          <note key="63" pos="1200" len="24" vol="163" pan="0"/>
          <note key="58" pos="1224" len="24" vol="144" pan="0"/>
          <note key="63" pos="1248" len="24" vol="163" pan="0"/>
          <note key="65" pos="1272" len="24" vol="163" pan="0"/>
          <note key="67" pos="1296" len="24" vol="163" pan="0"/>
          <note key="70" pos="1320" len="24" vol="170" pan="0"/>
          <note key="68" pos="1344" len="24" vol="163" pan="0"/>
          <note key="60" pos="1368" len="24" vol="151" pan="0"/>
          <note key="65" pos="1392" len="24" vol="163" pan="0"/>
          <note key="72" pos="1416" len="48" vol="170" pan="0"/>
          <note key="75" pos="1464" len="24" vol="163" pan="0"/>
          <note key="74" pos="1488" len="24" vol="163" pan="0"/>
          <note key="72" pos="1512" len="24" vol="163" pan="0"/>
        </pattern>
      </track>
      <track solo="0" muted="1" type="0" name="lgtH1">
        <instrumenttrack basenote="57" pitchrange="1" pitch="0" usemasterpitch="1" vol="200" pan="-100" fxch="12">
          <instrument name="carlapatchbay">
            <carlapatchbay>
              <CARLA-PROJECT VERSION="2.2">
                <EngineSettings>
                  <ForceStereo>false</ForceStereo>
                  <PreferPluginBridges>false</PreferPluginBridges>
                  <PreferUiBridges>true</PreferUiBridges>
                  <UIsAlwaysOnTop>false</UIsAlwaysOnTop>
                  <MaxParameters>200</MaxParameters>
                  <UIBridgesTimeout>4000</UIBridgesTimeout>
                  <LADSPA_PATH>/home/pass/.ladspa:/usr/lib/ladspa:/usr/local/lib/ladspa</LADSPA_PATH>
                  <DSSI_PATH>/home/pass/.dssi:/usr/lib/dssi:/usr/local/lib/dssi</DSSI_PATH>
                  <LV2_PATH>/home/pass/.lv2:/usr/lib/lv2:/usr/local/lib/lv2</LV2_PATH>
                  <VST2_PATH>/home/pass/.vst:/home/pass/.wine/drive_c/Program Files (x86)/VstPlugins:/home/pass/.wine/drive_c/Program Files/VstPlugins:/usr/lib/lxvst:/usr/lib/vst:/usr/local/lib/lxvst:/usr/local/lib/vst/home/pass/.lxvst:/home/pass/vst</VST2_PATH>
                  <VST3_PATH>/home/pass/.vst3:/home/pass/.wine/drive_c/Program Files (x86)/Common Files/VST3:/home/pass/.wine/drive_c/Program Files/Common Files/VST3:/usr/lib/vst3:/usr/local/lib/vst3</VST3_PATH>
                  <SF2_PATH>/home/pass/.sounds/sf2/home/pass/.sounds/sf3:/usr/share/soundfonts:/usr/share/sounds/sf2:/usr/share/sounds/sf3</SF2_PATH>
                  <SFZ_PATH>/home/pass/.sounds/sfz:/home/pass/samples:/usr/share/sounds/sfz</SFZ_PATH>
                </EngineSettings>
                <!-- sfizz -->
                <Plugin>
                  <Info>
                    <Type>LV2</Type>
                    <Name>sfizz</Name>
                    <URI>http://sfztools.github.io/sfizz</URI>
                  </Info>
                  <Data>
                    <Active>Yes</Active>
                    <ControlChannel>1</ControlChannel>
                    <Options>0x3f0</Options>
                    <Parameter>
                      <Index>0</Index>
                      <Name>Volume</Name>
                      <Symbol>volume</Symbol>
                      <Value>0</Value>
                    </Parameter>
                    <Parameter>
                      <Index>1</Index>
                      <Name>Polyphony</Name>
                      <Symbol>num_voices</Symbol>
                      <Value>64</Value>
                    </Parameter>
                    <Parameter>
                      <Index>2</Index>
                      <Name>Internal oversampling factor</Name>
                      <Symbol>oversampling</Symbol>
                      <Value>1</Value>
                    </Parameter>
                    <Parameter>
                      <Index>3</Index>
                      <Name>Preload size</Name>
                      <Symbol>preload_size</Symbol>
                      <Value>8192</Value>
                    </Parameter>
                    <CustomData>
                      <Type>http://lv2plug.in/ns/ext/atom#Path</Type>
                      <Key>http://sfztools.github.io/sfizz:sfzfile</Key>
                      <Value>/home/pass/samples/fakeguitar/_fakeguitar1_integrated.sfz</Value>
                    </CustomData>
                    <CustomData>
                      <Type>http://lv2plug.in/ns/ext/atom#Int</Type>
                      <Key>http://sfztools.github.io/sfizz:numvoices</Key>
                      <Value>QAAAAA==</Value>
                    </CustomData>
                    <CustomData>
                      <Type>http://lv2plug.in/ns/ext/atom#Int</Type>
                      <Key>http://sfztools.github.io/sfizz:preload_size</Key>
                      <Value>ACAAAA==</Value>
                    </CustomData>
                    <CustomData>
                      <Type>http://lv2plug.in/ns/ext/atom#Int</Type>
                      <Key>http://sfztools.github.io/sfizz:oversampling</Key>
                      <Value>AQAAAA==</Value>
                    </CustomData>
                  </Data>
                </Plugin>
                <Patchbay>
                  <Connection>
                    <Source>Midi Input:Capture 1</Source>
                    <Target>sfizz:events-in</Target>
                  </Connection>
                  <Connection>
                    <Source>sfizz:Left Output</Source>
                    <Target>Audio Output:Left</Target>
                  </Connection>
                  <Connection>
                    <Source>sfizz:Right Output</Source>
                    <Target>Audio Output:Right</Target>
                  </Connection>
                  <Positions>
                    <Position y1="1353" pluginId="0" x1="1693">
                      <Name>sfizz</Name>
                    </Position>
                  </Positions>
                </Patchbay>
              </CARLA-PROJECT>
            </carlapatchbay>
          </instrument>
          <eldata fwet="0" ftype="0" fcut="14000" fres="0.5">
            <elvol ctlenvamt="0" lamt="0" amt="0" latt="0" lspd_syncmode="0" dec="0.5" lpdel="0" att="0" lspd_denominator="4" hold="0.5" lspd="0.1" lspd_numerator="4" sustain="0.5" lshp="0" pdel="0" x100="0" rel="0.1" userwavefile=""/>
            <elcut ctlenvamt="0" lamt="0" amt="0" latt="0" lspd_syncmode="0" dec="0.5" lpdel="0" att="0" lspd_denominator="4" hold="0.5" lspd="0.1" lspd_numerator="4" sustain="0.5" lshp="0" pdel="0" x100="0" rel="0.1" userwavefile=""/>
            <elres ctlenvamt="0" lamt="0" amt="0" latt="0" lspd_syncmode="0" dec="0.5" lpdel="0" att="0" lspd_denominator="4" hold="0.5" lspd="0.1" lspd_numerator="4" sustain="0.5" lshp="0" pdel="0" x100="0" rel="0.1" userwavefile=""/>
          </eldata>
          <chordcreator chordrange="1" chord-enabled="0" chord="0"/>
          <arpeggiator arptime_syncmode="0" arpdir="0" arptime_numerator="4" arpmode="0" arp="0" arpmiss="0" arptime="200" arpgate="100" arp-enabled="0" arpskip="0" arptime_denominator="4" arprange="1" arpcycle="0"/>
          <midiport writable="0" fixedinputvelocity="-1" outputchannel="1" fixedoutputvelocity="-1" outputcontroller="0" basevelocity="63" fixedoutputnote="-1" inputchannel="0" inputcontroller="0" outputprogram="1" readable="0"/>
          <fxchain numofeffects="0" enabled="0"/>
        </instrumenttrack>
        <pattern steps="16" muted="0" type="1" pos="6528" name="">
          <note key="75" pos="0" len="72" vol="151" pan="0"/>
          <note key="0" pos="0" len="72" vol="151" pan="0"/>
          <note key="72" pos="72" len="72" vol="151" pan="0"/>
          <note key="75" pos="144" len="72" vol="151" pan="0"/>
          <note key="79" pos="216" len="72" vol="151" pan="0"/>
          <note key="84" pos="288" len="48" vol="144" pan="0"/>
          <note key="86" pos="336" len="48" vol="144" pan="0"/>
          <note key="87" pos="384" len="72" vol="151" pan="0"/>
          <note key="86" pos="456" len="72" vol="151" pan="0"/>
          <note key="82" pos="528" len="72" vol="151" pan="0"/>
          <note key="77" pos="600" len="72" vol="151" pan="0"/>
          <note key="75" pos="672" len="48" vol="144" pan="0"/>
          <note key="74" pos="720" len="48" vol="144" pan="0"/>
          <note key="75" pos="768" len="72" vol="151" pan="0"/>
          <note key="72" pos="840" len="72" vol="151" pan="0"/>
          <note key="75" pos="912" len="72" vol="151" pan="0"/>
          <note key="79" pos="984" len="72" vol="151" pan="0"/>
          <note key="84" pos="1056" len="48" vol="144" pan="0"/>
          <note key="86" pos="1104" len="48" vol="144" pan="0"/>
          <note key="63" pos="1152" len="72" vol="151" pan="0"/>
          <note key="67" pos="1224" len="72" vol="151" pan="0"/>
          <note key="65" pos="1296" len="72" vol="151" pan="0"/>
          <note key="62" pos="1368" len="72" vol="151" pan="0"/>
          <note key="68" pos="1440" len="48" vol="144" pan="0"/>
          <note key="67" pos="1488" len="48" vol="144" pan="0"/>
        </pattern>
        <pattern steps="16" muted="0" type="1" pos="17280" name="">
          <note key="77" pos="0" len="24" vol="163" pan="0"/>
          <note key="69" pos="24" len="24" vol="163" pan="0"/>
          <note key="74" pos="48" len="24" vol="163" pan="0"/>
          <note key="76" pos="72" len="24" vol="163" pan="0"/>
          <note key="77" pos="96" len="24" vol="163" pan="0"/>
          <note key="69" pos="120" len="24" vol="163" pan="0"/>
          <note key="74" pos="144" len="24" vol="163" pan="0"/>
          <note key="77" pos="168" len="24" vol="163" pan="0"/>
          <note key="76" pos="192" len="24" vol="163" pan="0"/>
          <note key="67" pos="216" len="24" vol="163" pan="0"/>
          <note key="72" pos="240" len="24" vol="163" pan="0"/>
          <note key="74" pos="264" len="48" vol="163" pan="0"/>
          <note key="65" pos="312" len="24" vol="163" pan="0"/>
          <note key="72" pos="336" len="24" vol="163" pan="0"/>
          <note key="70" pos="360" len="24" vol="163" pan="0"/>
          <note key="72" pos="384" len="24" vol="163" pan="0"/>
          <note key="60" pos="408" len="24" vol="163" pan="0"/>
          <note key="65" pos="432" len="24" vol="163" pan="0"/>
          <note key="60" pos="456" len="24" vol="163" pan="0"/>
          <note key="65" pos="480" len="24" vol="163" pan="0"/>
          <note key="67" pos="504" len="24" vol="163" pan="0"/>
          <note key="69" pos="528" len="24" vol="163" pan="0"/>
          <note key="72" pos="552" len="24" vol="163" pan="0"/>
          <note key="70" pos="576" len="24" vol="163" pan="0"/>
          <note key="62" pos="600" len="24" vol="163" pan="0"/>
          <note key="67" pos="624" len="24" vol="163" pan="0"/>
          <note key="69" pos="648" len="48" vol="163" pan="0"/>
          <note key="62" pos="696" len="24" vol="163" pan="0"/>
          <note key="64" pos="720" len="24" vol="163" pan="0"/>
          <note key="65" pos="744" len="24" vol="163" pan="0"/>
          <note key="77" pos="768" len="24" vol="163" pan="0"/>
          <note key="69" pos="792" len="24" vol="163" pan="0"/>
          <note key="74" pos="816" len="24" vol="163" pan="0"/>
          <note key="76" pos="840" len="24" vol="163" pan="0"/>
          <note key="77" pos="864" len="24" vol="163" pan="0"/>
          <note key="69" pos="888" len="24" vol="163" pan="0"/>
          <note key="74" pos="912" len="24" vol="163" pan="0"/>
          <note key="77" pos="936" len="24" vol="163" pan="0"/>
          <note key="76" pos="960" len="24" vol="163" pan="0"/>
          <note key="67" pos="984" len="24" vol="163" pan="0"/>
          <note key="81" pos="1008" len="24" vol="163" pan="0"/>
          <note key="74" pos="1032" len="48" vol="163" pan="0"/>
          <note key="65" pos="1080" len="24" vol="163" pan="0"/>
          <note key="72" pos="1104" len="24" vol="163" pan="0"/>
          <note key="70" pos="1128" len="24" vol="163" pan="0"/>
          <note key="72" pos="1152" len="24" vol="163" pan="0"/>
          <note key="60" pos="1176" len="24" vol="163" pan="0"/>
          <note key="65" pos="1200" len="24" vol="163" pan="0"/>
          <note key="60" pos="1224" len="24" vol="163" pan="0"/>
          <note key="65" pos="1248" len="24" vol="163" pan="0"/>
          <note key="67" pos="1272" len="24" vol="163" pan="0"/>
          <note key="69" pos="1296" len="24" vol="163" pan="0"/>
          <note key="72" pos="1320" len="24" vol="163" pan="0"/>
          <note key="70" pos="1344" len="24" vol="163" pan="0"/>
          <note key="62" pos="1368" len="24" vol="163" pan="0"/>
          <note key="67" pos="1392" len="24" vol="163" pan="0"/>
          <note key="74" pos="1416" len="48" vol="163" pan="0"/>
          <note key="77" pos="1464" len="24" vol="163" pan="0"/>
          <note key="76" pos="1488" len="24" vol="163" pan="0"/>
          <note key="74" pos="1512" len="24" vol="163" pan="0"/>
          <note key="77" pos="1536" len="24" vol="163" pan="0"/>
          <note key="69" pos="1560" len="24" vol="163" pan="0"/>
          <note key="74" pos="1584" len="24" vol="163" pan="0"/>
          <note key="76" pos="1608" len="24" vol="163" pan="0"/>
          <note key="77" pos="1632" len="24" vol="163" pan="0"/>
          <note key="69" pos="1656" len="24" vol="163" pan="0"/>
          <note key="74" pos="1680" len="24" vol="163" pan="0"/>
          <note key="77" pos="1704" len="24" vol="163" pan="0"/>
          <note key="76" pos="1728" len="24" vol="163" pan="0"/>
          <note key="67" pos="1752" len="24" vol="163" pan="0"/>
          <note key="72" pos="1776" len="24" vol="163" pan="0"/>
          <note key="74" pos="1800" len="48" vol="163" pan="0"/>
          <note key="65" pos="1848" len="24" vol="163" pan="0"/>
          <note key="72" pos="1872" len="24" vol="163" pan="0"/>
          <note key="70" pos="1896" len="24" vol="163" pan="0"/>
          <note key="72" pos="1920" len="24" vol="163" pan="0"/>
          <note key="60" pos="1944" len="24" vol="163" pan="0"/>
          <note key="65" pos="1968" len="24" vol="163" pan="0"/>
          <note key="60" pos="1992" len="24" vol="163" pan="0"/>
          <note key="65" pos="2016" len="24" vol="163" pan="0"/>
          <note key="67" pos="2040" len="24" vol="163" pan="0"/>
          <note key="69" pos="2064" len="24" vol="163" pan="0"/>
          <note key="72" pos="2088" len="24" vol="163" pan="0"/>
          <note key="70" pos="2112" len="24" vol="163" pan="0"/>
          <note key="62" pos="2136" len="24" vol="163" pan="0"/>
          <note key="67" pos="2160" len="24" vol="163" pan="0"/>
          <note key="69" pos="2184" len="48" vol="163" pan="0"/>
          <note key="62" pos="2232" len="24" vol="163" pan="0"/>
          <note key="64" pos="2256" len="24" vol="163" pan="0"/>
          <note key="65" pos="2280" len="24" vol="163" pan="0"/>
          <note key="77" pos="2304" len="24" vol="163" pan="0"/>
          <note key="69" pos="2328" len="24" vol="163" pan="0"/>
          <note key="74" pos="2352" len="24" vol="163" pan="0"/>
          <note key="76" pos="2376" len="24" vol="163" pan="0"/>
          <note key="77" pos="2400" len="24" vol="163" pan="0"/>
          <note key="69" pos="2424" len="24" vol="163" pan="0"/>
          <note key="74" pos="2448" len="24" vol="163" pan="0"/>
          <note key="77" pos="2472" len="24" vol="163" pan="0"/>
          <note key="76" pos="2496" len="24" vol="163" pan="0"/>
          <note key="67" pos="2520" len="24" vol="163" pan="0"/>
          <note key="81" pos="2544" len="24" vol="163" pan="0"/>
          <note key="74" pos="2568" len="48" vol="163" pan="0"/>
          <note key="65" pos="2616" len="24" vol="163" pan="0"/>
          <note key="72" pos="2640" len="24" vol="163" pan="0"/>
          <note key="70" pos="2664" len="24" vol="163" pan="0"/>
          <note key="72" pos="2688" len="24" vol="163" pan="0"/>
          <note key="60" pos="2712" len="24" vol="163" pan="0"/>
          <note key="65" pos="2736" len="24" vol="163" pan="0"/>
          <note key="60" pos="2760" len="24" vol="163" pan="0"/>
          <note key="65" pos="2784" len="24" vol="163" pan="0"/>
          <note key="67" pos="2808" len="24" vol="163" pan="0"/>
          <note key="69" pos="2832" len="24" vol="163" pan="0"/>
          <note key="72" pos="2856" len="24" vol="163" pan="0"/>
          <note key="70" pos="2880" len="24" vol="163" pan="0"/>
          <note key="62" pos="2904" len="24" vol="163" pan="0"/>
          <note key="67" pos="2928" len="24" vol="163" pan="0"/>
          <note key="74" pos="2952" len="24" vol="163" pan="0"/>
          <note key="62" pos="2952" len="24" vol="163" pan="0"/>
        </pattern>
        <pattern steps="16" muted="0" type="1" pos="25344" name="lgtH1">
          <note key="74" pos="0" len="72" vol="176" pan="0"/>
          <note key="0" pos="0" len="23" vol="197" pan="0"/>
          <note key="62" pos="72" len="72" vol="176" pan="0"/>
          <note key="65" pos="144" len="72" vol="176" pan="0"/>
          <note key="69" pos="216" len="72" vol="176" pan="0"/>
          <note key="74" pos="288" len="48" vol="170" pan="0"/>
          <note key="76" pos="336" len="48" vol="170" pan="0"/>
          <note key="77" pos="384" len="72" vol="176" pan="0"/>
          <note key="76" pos="456" len="72" vol="176" pan="0"/>
          <note key="72" pos="528" len="72" vol="176" pan="0"/>
          <note key="67" pos="600" len="72" vol="176" pan="0"/>
          <note key="65" pos="672" len="48" vol="170" pan="0"/>
          <note key="67" pos="720" len="48" vol="170" pan="0"/>
          <note key="69" pos="768" len="72" vol="176" pan="0"/>
          <note key="62" pos="840" len="72" vol="176" pan="0"/>
          <note key="65" pos="912" len="72" vol="176" pan="0"/>
          <note key="69" pos="984" len="72" vol="176" pan="0"/>
          <note key="74" pos="1056" len="48" vol="170" pan="0"/>
          <note key="76" pos="1104" len="48" vol="170" pan="0"/>
          <note key="77" pos="1152" len="72" vol="176" pan="0"/>
          <note key="81" pos="1224" len="72" vol="176" pan="0"/>
          <note key="79" pos="1296" len="72" vol="176" pan="0"/>
          <note key="76" pos="1368" len="72" vol="176" pan="0"/>
          <note key="82" pos="1440" len="48" vol="170" pan="0"/>
          <note key="81" pos="1488" len="48" vol="170" pan="0"/>
        </pattern>
        <pattern steps="16" muted="0" type="1" pos="26880" name="lgtH1">
          <note key="76" pos="0" len="72" vol="170" pan="0"/>
          <note key="64" pos="72" len="72" vol="170" pan="0"/>
          <note key="67" pos="144" len="72" vol="170" pan="0"/>
          <note key="71" pos="216" len="72" vol="170" pan="0"/>
          <note key="76" pos="288" len="48" vol="163" pan="0"/>
          <note key="78" pos="336" len="48" vol="163" pan="0"/>
          <note key="79" pos="384" len="72" vol="170" pan="0"/>
          <note key="78" pos="456" len="72" vol="170" pan="0"/>
          <note key="74" pos="528" len="72" vol="170" pan="0"/>
          <note key="69" pos="600" len="72" vol="170" pan="0"/>
          <note key="67" pos="672" len="48" vol="163" pan="0"/>
          <note key="69" pos="720" len="48" vol="163" pan="0"/>
          <note key="71" pos="768" len="72" vol="170" pan="0"/>
          <note key="64" pos="840" len="72" vol="170" pan="0"/>
          <note key="67" pos="912" len="72" vol="170" pan="0"/>
          <note key="71" pos="984" len="72" vol="170" pan="0"/>
          <note key="76" pos="1056" len="48" vol="163" pan="0"/>
          <note key="78" pos="1104" len="48" vol="163" pan="0"/>
          <note key="79" pos="1152" len="72" vol="170" pan="0"/>
          <note key="83" pos="1224" len="72" vol="170" pan="0"/>
          <note key="81" pos="1296" len="72" vol="170" pan="0"/>
          <note key="79" pos="1368" len="72" vol="170" pan="0"/>
          <note key="78" pos="1440" len="48" vol="170" pan="0"/>
          <note key="79" pos="1488" len="48" vol="163" pan="0"/>
          <note key="76" pos="1536" len="72" vol="170" pan="0"/>
          <note key="64" pos="1608" len="72" vol="170" pan="0"/>
          <note key="67" pos="1680" len="72" vol="170" pan="0"/>
          <note key="71" pos="1752" len="72" vol="170" pan="0"/>
          <note key="76" pos="1824" len="48" vol="163" pan="0"/>
          <note key="78" pos="1872" len="48" vol="163" pan="0"/>
          <note key="79" pos="1920" len="72" vol="176" pan="0"/>
          <note key="78" pos="1992" len="72" vol="176" pan="0"/>
          <note key="74" pos="2064" len="72" vol="176" pan="0"/>
          <note key="69" pos="2136" len="72" vol="176" pan="0"/>
          <note key="67" pos="2208" len="48" vol="170" pan="0"/>
          <note key="69" pos="2256" len="48" vol="170" pan="0"/>
          <note key="71" pos="2304" len="72" vol="176" pan="0"/>
          <note key="64" pos="2376" len="72" vol="176" pan="0"/>
          <note key="67" pos="2448" len="72" vol="176" pan="0"/>
          <note key="71" pos="2520" len="72" vol="176" pan="0"/>
          <note key="76" pos="2592" len="48" vol="182" pan="0"/>
          <note key="78" pos="2640" len="48" vol="182" pan="0"/>
          <note key="79" pos="2688" len="72" vol="182" pan="0"/>
          <note key="83" pos="2760" len="72" vol="182" pan="0"/>
          <note key="81" pos="2832" len="72" vol="182" pan="0"/>
          <note key="79" pos="2904" len="72" vol="182" pan="0"/>
          <note key="78" pos="2976" len="48" vol="176" pan="0"/>
          <note key="79" pos="3024" len="48" vol="170" pan="0"/>
        </pattern>
        <pattern steps="16" muted="0" type="1" pos="13824" name="lgtH1">
          <note key="47" pos="0" len="12" vol="157" pan="0"/>
          <note key="1" pos="0" len="12" vol="182" pan="0"/>
          <note key="44" pos="12" len="12" vol="157" pan="0"/>
          <note key="50" pos="24" len="12" vol="157" pan="0"/>
          <note key="47" pos="36" len="12" vol="157" pan="0"/>
          <note key="53" pos="48" len="12" vol="163" pan="0"/>
          <note key="50" pos="60" len="12" vol="163" pan="0"/>
          <note key="56" pos="72" len="12" vol="163" pan="0"/>
          <note key="53" pos="84" len="12" vol="163" pan="0"/>
          <note key="59" pos="96" len="12" vol="170" pan="0"/>
          <note key="56" pos="108" len="12" vol="170" pan="0"/>
          <note key="62" pos="120" len="12" vol="170" pan="0"/>
          <note key="59" pos="132" len="12" vol="170" pan="0"/>
          <note key="65" pos="144" len="12" vol="170" pan="0"/>
          <note key="62" pos="156" len="12" vol="170" pan="0"/>
          <note key="68" pos="168" len="12" vol="170" pan="0"/>
          <note key="65" pos="180" len="12" vol="170" pan="0"/>
          <note key="71" pos="192" len="12" vol="176" pan="0"/>
          <note key="68" pos="204" len="12" vol="170" pan="0"/>
          <note key="74" pos="216" len="12" vol="176" pan="0"/>
          <note key="71" pos="228" len="12" vol="170" pan="0"/>
          <note key="77" pos="240" len="12" vol="176" pan="0"/>
          <note key="0" pos="240" len="12" vol="182" pan="0"/>
          <note key="74" pos="252" len="12" vol="170" pan="0"/>
          <note key="80" pos="264" len="12" vol="182" pan="0"/>
          <note key="77" pos="276" len="12" vol="170" pan="0"/>
          <note key="83" pos="288" len="12" vol="182" pan="0"/>
          <note key="80" pos="300" len="12" vol="182" pan="0"/>
          <note key="79" pos="312" len="12" vol="182" pan="0"/>
          <note key="77" pos="324" len="12" vol="182" pan="0"/>
          <note key="80" pos="336" len="12" vol="182" pan="0"/>
          <note key="79" pos="348" len="12" vol="182" pan="0"/>
          <note key="77" pos="360" len="12" vol="182" pan="0"/>
          <note key="79" pos="372" len="12" vol="182" pan="0"/>
        </pattern>
        <pattern steps="16" muted="0" type="1" pos="1536" name="lgtH1">
          <note key="68" pos="0" len="12" vol="157" pan="0"/>
          <note key="12" pos="0" len="12" vol="157" pan="0"/>
          <note key="63" pos="12" len="12" vol="151" pan="0"/>
          <note key="68" pos="24" len="12" vol="151" pan="0"/>
          <note key="72" pos="36" len="12" vol="151" pan="0"/>
          <note key="71" pos="48" len="12" vol="163" pan="0"/>
          <note key="63" pos="60" len="12" vol="151" pan="0"/>
          <note key="71" pos="72" len="12" vol="151" pan="0"/>
          <note key="74" pos="84" len="12" vol="157" pan="0"/>
          <note key="72" pos="96" len="12" vol="170" pan="0"/>
          <note key="63" pos="108" len="12" vol="151" pan="0"/>
          <note key="72" pos="120" len="12" vol="151" pan="0"/>
          <note key="75" pos="132" len="12" vol="163" pan="0"/>
          <note key="74" pos="144" len="12" vol="176" pan="0"/>
          <note key="71" pos="156" len="12" vol="151" pan="0"/>
          <note key="72" pos="168" len="12" vol="151" pan="0"/>
          <note key="68" pos="180" len="12" vol="151" pan="0"/>
          <note key="67" pos="192" len="12" vol="151" pan="0"/>
          <note key="63" pos="204" len="12" vol="151" pan="0"/>
          <note key="67" pos="216" len="12" vol="151" pan="0"/>
          <note key="71" pos="228" len="12" vol="151" pan="0"/>
          <note key="74" pos="240" len="12" vol="157" pan="0"/>
          <note key="71" pos="252" len="12" vol="157" pan="0"/>
          <note key="74" pos="264" len="12" vol="163" pan="0"/>
          <note key="75" pos="276" len="12" vol="170" pan="0"/>
          <note key="79" pos="288" len="24" vol="176" pan="0"/>
        </pattern>
        <pattern steps="16" muted="0" type="1" pos="2304" name="lgtH1">
          <note key="67" pos="0" len="12" vol="157" pan="0"/>
          <note key="0" pos="0" len="12" vol="157" pan="0"/>
          <note key="55" pos="12" len="12" vol="132" pan="0"/>
          <note key="1" pos="12" len="12" vol="157" pan="0"/>
          <note key="60" pos="24" len="12" vol="138" pan="0"/>
          <note key="63" pos="36" len="12" vol="157" pan="0"/>
          <note key="0" pos="36" len="12" vol="157" pan="0"/>
          <note key="55" pos="48" len="12" vol="138" pan="0"/>
          <note key="1" pos="48" len="12" vol="157" pan="0"/>
          <note key="60" pos="60" len="12" vol="138" pan="0"/>
          <note key="65" pos="72" len="12" vol="157" pan="0"/>
          <note key="0" pos="72" len="12" vol="157" pan="0"/>
          <note key="55" pos="84" len="12" vol="138" pan="0"/>
          <note key="1" pos="84" len="12" vol="157" pan="0"/>
          <note key="60" pos="96" len="12" vol="138" pan="0"/>
          <note key="62" pos="108" len="12" vol="157" pan="0"/>
          <note key="0" pos="108" len="12" vol="157" pan="0"/>
          <note key="55" pos="120" len="12" vol="138" pan="0"/>
          <note key="1" pos="120" len="12" vol="157" pan="0"/>
          <note key="60" pos="132" len="12" vol="138" pan="0"/>
          <note key="63" pos="144" len="12" vol="157" pan="0"/>
          <note key="0" pos="144" len="12" vol="157" pan="0"/>
          <note key="62" pos="156" len="12" vol="157" pan="0"/>
          <note key="1" pos="156" len="12" vol="157" pan="0"/>
          <note key="60" pos="168" len="12" vol="157" pan="0"/>
          <note key="55" pos="180" len="12" vol="157" pan="0"/>
          <note key="67" pos="192" len="12" vol="157" pan="0"/>
          <note key="0" pos="192" len="12" vol="157" pan="0"/>
          <note key="55" pos="204" len="12" vol="132" pan="0"/>
          <note key="1" pos="204" len="12" vol="157" pan="0"/>
          <note key="60" pos="216" len="12" vol="138" pan="0"/>
          <note key="63" pos="228" len="12" vol="157" pan="0"/>
          <note key="0" pos="228" len="12" vol="157" pan="0"/>
          <note key="55" pos="240" len="12" vol="138" pan="0"/>
          <note key="1" pos="240" len="12" vol="157" pan="0"/>
          <note key="60" pos="252" len="12" vol="138" pan="0"/>
          <note key="65" pos="264" len="12" vol="157" pan="0"/>
          <note key="0" pos="264" len="12" vol="157" pan="0"/>
          <note key="55" pos="276" len="12" vol="138" pan="0"/>
          <note key="1" pos="276" len="12" vol="157" pan="0"/>
          <note key="60" pos="288" len="12" vol="138" pan="0"/>
          <note key="62" pos="300" len="12" vol="157" pan="0"/>
          <note key="0" pos="300" len="12" vol="157" pan="0"/>
          <note key="55" pos="312" len="12" vol="138" pan="0"/>
          <note key="1" pos="312" len="12" vol="157" pan="0"/>
          <note key="60" pos="324" len="12" vol="138" pan="0"/>
          <note key="63" pos="336" len="12" vol="157" pan="0"/>
          <note key="0" pos="336" len="12" vol="157" pan="0"/>
          <note key="62" pos="348" len="12" vol="157" pan="0"/>
          <note key="63" pos="360" len="12" vol="157" pan="0"/>
          <note key="65" pos="372" len="12" vol="157" pan="0"/>
        </pattern>
        <pattern steps="16" muted="0" type="1" pos="3072" name="lgtH1">
          <note key="72" pos="0" len="12" vol="170" pan="0"/>
          <note key="1" pos="0" len="12" vol="157" pan="0"/>
          <note key="60" pos="12" len="12" vol="151" pan="0"/>
          <note key="67" pos="24" len="12" vol="151" pan="0"/>
          <note key="74" pos="36" len="12" vol="170" pan="0"/>
          <note key="60" pos="48" len="12" vol="151" pan="0"/>
          <note key="67" pos="60" len="12" vol="151" pan="0"/>
          <note key="72" pos="72" len="12" vol="170" pan="0"/>
          <note key="60" pos="84" len="12" vol="151" pan="0"/>
          <note key="67" pos="96" len="12" vol="151" pan="0"/>
          <note key="75" pos="108" len="12" vol="170" pan="0"/>
          <note key="60" pos="120" len="12" vol="151" pan="0"/>
          <note key="67" pos="132" len="12" vol="151" pan="0"/>
          <note key="74" pos="144" len="12" vol="170" pan="0"/>
          <note key="75" pos="156" len="12" vol="170" pan="0"/>
          <note key="74" pos="168" len="12" vol="170" pan="0"/>
          <note key="70" pos="180" len="12" vol="170" pan="0"/>
          <note key="72" pos="192" len="12" vol="170" pan="0"/>
          <note key="60" pos="204" len="12" vol="151" pan="0"/>
          <note key="67" pos="216" len="12" vol="151" pan="0"/>
          <note key="70" pos="228" len="12" vol="170" pan="0"/>
          <note key="60" pos="240" len="12" vol="151" pan="0"/>
          <note key="65" pos="252" len="12" vol="151" pan="0"/>
          <note key="67" pos="264" len="12" vol="170" pan="0"/>
          <note key="63" pos="276" len="12" vol="151" pan="0"/>
          <note key="65" pos="288" len="12" vol="157" pan="0"/>
          <note key="63" pos="300" len="12" vol="157" pan="0"/>
          <note key="65" pos="312" len="12" vol="163" pan="0"/>
          <note key="67" pos="324" len="12" vol="163" pan="0"/>
          <note key="68" pos="336" len="12" vol="163" pan="0"/>
          <note key="67" pos="348" len="12" vol="163" pan="0"/>
          <note key="68" pos="360" len="12" vol="170" pan="0"/>
          <note key="70" pos="372" len="12" vol="170" pan="0"/>
        </pattern>
        <pattern steps="16" muted="0" type="1" pos="3840" name="lgtH1">
          <note key="67" pos="0" len="12" vol="170" pan="0"/>
          <note key="1" pos="0" len="12" vol="151" pan="0"/>
          <note key="55" pos="12" len="12" vol="144" pan="0"/>
          <note key="60" pos="24" len="12" vol="151" pan="0"/>
          <note key="63" pos="36" len="12" vol="170" pan="0"/>
          <note key="55" pos="48" len="12" vol="151" pan="0"/>
          <note key="60" pos="60" len="12" vol="151" pan="0"/>
          <note key="65" pos="72" len="12" vol="170" pan="0"/>
          <note key="55" pos="84" len="12" vol="151" pan="0"/>
          <note key="60" pos="96" len="12" vol="151" pan="0"/>
          <note key="62" pos="108" len="12" vol="170" pan="0"/>
          <note key="55" pos="120" len="12" vol="151" pan="0"/>
          <note key="60" pos="132" len="12" vol="157" pan="0"/>
          <note key="63" pos="144" len="12" vol="170" pan="0"/>
          <note key="65" pos="156" len="12" vol="170" pan="0"/>
          <note key="67" pos="168" len="12" vol="170" pan="0"/>
          <note key="68" pos="180" len="12" vol="170" pan="0"/>
          <note key="70" pos="192" len="12" vol="170" pan="0"/>
          <note key="0" pos="192" len="48" vol="100" pan="0"/>
          <note key="55" pos="204" len="12" vol="144" pan="0"/>
          <note key="60" pos="216" len="12" vol="151" pan="0"/>
          <note key="67" pos="228" len="12" vol="170" pan="0"/>
          <note key="55" pos="240" len="12" vol="151" pan="0"/>
          <note key="1" pos="240" len="48" vol="100" pan="0"/>
          <note key="60" pos="252" len="12" vol="151" pan="0"/>
          <note key="68" pos="264" len="12" vol="170" pan="0"/>
          <note key="55" pos="276" len="12" vol="151" pan="0"/>
          <note key="60" pos="288" len="12" vol="151" pan="0"/>
          <note key="65" pos="300" len="12" vol="170" pan="0"/>
          <note key="55" pos="312" len="12" vol="151" pan="0"/>
          <note key="60" pos="324" len="12" vol="151" pan="0"/>
          <note key="67" pos="336" len="12" vol="170" pan="0"/>
          <note key="65" pos="348" len="12" vol="170" pan="0"/>
          <note key="63" pos="360" len="12" vol="170" pan="0"/>
          <note key="60" pos="372" len="12" vol="170" pan="0"/>
        </pattern>
        <pattern steps="16" muted="0" type="1" pos="12672" name="lgtH1">
          <note key="67" pos="0" len="12" vol="182" pan="0"/>
          <note key="0" pos="0" len="12" vol="176" pan="0"/>
          <note key="60" pos="12" len="12" vol="157" pan="0"/>
          <note key="62" pos="24" len="12" vol="157" pan="0"/>
          <note key="1" pos="24" len="12" vol="176" pan="0"/>
          <note key="63" pos="36" len="12" vol="157" pan="0"/>
          <note key="62" pos="48" len="12" vol="157" pan="0"/>
          <note key="60" pos="60" len="12" vol="157" pan="0"/>
          <note key="68" pos="72" len="12" vol="182" pan="0"/>
          <note key="0" pos="72" len="12" vol="176" pan="0"/>
          <note key="60" pos="84" len="12" vol="157" pan="0"/>
          <note key="62" pos="96" len="12" vol="157" pan="0"/>
          <note key="1" pos="96" len="12" vol="176" pan="0"/>
          <note key="63" pos="108" len="12" vol="157" pan="0"/>
          <note key="62" pos="120" len="12" vol="157" pan="0"/>
          <note key="60" pos="132" len="12" vol="157" pan="0"/>
          <note key="67" pos="144" len="12" vol="182" pan="0"/>
          <note key="0" pos="144" len="12" vol="176" pan="0"/>
          <note key="60" pos="156" len="12" vol="157" pan="0"/>
          <note key="62" pos="168" len="12" vol="157" pan="0"/>
          <note key="1" pos="168" len="12" vol="176" pan="0"/>
          <note key="63" pos="180" len="12" vol="157" pan="0"/>
          <note key="62" pos="192" len="12" vol="157" pan="0"/>
          <note key="60" pos="204" len="12" vol="157" pan="0"/>
          <note key="70" pos="216" len="12" vol="188" pan="0"/>
          <note key="0" pos="216" len="12" vol="176" pan="0"/>
          <note key="60" pos="228" len="12" vol="157" pan="0"/>
          <note key="62" pos="240" len="12" vol="157" pan="0"/>
          <note key="1" pos="240" len="12" vol="176" pan="0"/>
          <note key="63" pos="252" len="12" vol="157" pan="0"/>
          <note key="62" pos="264" len="12" vol="157" pan="0"/>
          <note key="60" pos="276" len="12" vol="157" pan="0"/>
          <note key="68" pos="288" len="12" vol="188" pan="0"/>
          <note key="0" pos="288" len="12" vol="176" pan="0"/>
          <note key="60" pos="300" len="12" vol="157" pan="0"/>
          <note key="62" pos="312" len="12" vol="157" pan="0"/>
          <note key="1" pos="312" len="12" vol="176" pan="0"/>
          <note key="63" pos="324" len="12" vol="157" pan="0"/>
          <note key="67" pos="336" len="12" vol="182" pan="0"/>
          <note key="63" pos="348" len="12" vol="157" pan="0"/>
          <note key="62" pos="360" len="12" vol="157" pan="0"/>
          <note key="0" pos="360" len="12" vol="176" pan="0"/>
          <note key="60" pos="372" len="12" vol="157" pan="0"/>
          <note key="68" pos="384" len="12" vol="182" pan="0"/>
          <note key="0" pos="384" len="12" vol="176" pan="0"/>
          <note key="56" pos="396" len="12" vol="157" pan="0"/>
          <note key="60" pos="408" len="12" vol="157" pan="0"/>
          <note key="1" pos="408" len="12" vol="176" pan="0"/>
          <note key="63" pos="420" len="12" vol="157" pan="0"/>
          <note key="60" pos="432" len="12" vol="157" pan="0"/>
          <note key="56" pos="444" len="12" vol="157" pan="0"/>
          <note key="75" pos="456" len="12" vol="195" pan="0"/>
          <note key="0" pos="456" len="12" vol="176" pan="0"/>
          <note key="56" pos="468" len="12" vol="157" pan="0"/>
          <note key="60" pos="480" len="12" vol="157" pan="0"/>
          <note key="1" pos="480" len="12" vol="176" pan="0"/>
          <note key="63" pos="492" len="12" vol="157" pan="0"/>
          <note key="60" pos="504" len="12" vol="157" pan="0"/>
          <note key="56" pos="516" len="12" vol="157" pan="0"/>
          <note key="74" pos="528" len="12" vol="188" pan="0"/>
          <note key="0" pos="528" len="12" vol="176" pan="0"/>
          <note key="56" pos="540" len="12" vol="157" pan="0"/>
          <note key="60" pos="552" len="12" vol="157" pan="0"/>
          <note key="1" pos="552" len="12" vol="176" pan="0"/>
          <note key="63" pos="564" len="12" vol="157" pan="0"/>
          <note key="60" pos="576" len="12" vol="157" pan="0"/>
          <note key="56" pos="588" len="12" vol="157" pan="0"/>
          <note key="70" pos="600" len="12" vol="176" pan="0"/>
          <note key="0" pos="600" len="12" vol="176" pan="0"/>
          <note key="56" pos="612" len="12" vol="157" pan="0"/>
          <note key="60" pos="624" len="12" vol="157" pan="0"/>
          <note key="1" pos="624" len="12" vol="176" pan="0"/>
          <note key="63" pos="636" len="12" vol="157" pan="0"/>
          <note key="60" pos="648" len="12" vol="157" pan="0"/>
          <note key="56" pos="660" len="12" vol="157" pan="0"/>
          <note key="74" pos="672" len="12" vol="188" pan="0"/>
          <note key="0" pos="672" len="12" vol="176" pan="0"/>
          <note key="56" pos="684" len="12" vol="157" pan="0"/>
          <note key="60" pos="696" len="12" vol="157" pan="0"/>
          <note key="1" pos="696" len="12" vol="176" pan="0"/>
          <note key="63" pos="708" len="12" vol="157" pan="0"/>
          <note key="75" pos="720" len="12" vol="195" pan="0"/>
          <note key="63" pos="732" len="12" vol="157" pan="0"/>
          <note key="60" pos="744" len="12" vol="157" pan="0"/>
          <note key="0" pos="744" len="12" vol="176" pan="0"/>
          <note key="56" pos="756" len="12" vol="157" pan="0"/>
          <note key="70" pos="768" len="12" vol="195" pan="0"/>
          <note key="0" pos="768" len="12" vol="176" pan="0"/>
          <note key="55" pos="780" len="12" vol="157" pan="0"/>
          <note key="58" pos="792" len="12" vol="157" pan="0"/>
          <note key="1" pos="792" len="12" vol="176" pan="0"/>
          <note key="63" pos="804" len="12" vol="157" pan="0"/>
          <note key="58" pos="816" len="12" vol="157" pan="0"/>
          <note key="55" pos="828" len="12" vol="157" pan="0"/>
          <note key="68" pos="840" len="12" vol="195" pan="0"/>
          <note key="0" pos="840" len="12" vol="176" pan="0"/>
          <note key="55" pos="852" len="12" vol="157" pan="0"/>
          <note key="58" pos="864" len="12" vol="157" pan="0"/>
          <note key="1" pos="864" len="12" vol="176" pan="0"/>
          <note key="63" pos="876" len="12" vol="157" pan="0"/>
          <note key="58" pos="888" len="12" vol="157" pan="0"/>
          <note key="55" pos="900" len="12" vol="157" pan="0"/>
          <note key="67" pos="912" len="12" vol="195" pan="0"/>
          <note key="0" pos="912" len="12" vol="176" pan="0"/>
          <note key="55" pos="924" len="12" vol="157" pan="0"/>
          <note key="58" pos="936" len="12" vol="157" pan="0"/>
          <note key="1" pos="936" len="12" vol="176" pan="0"/>
          <note key="63" pos="948" len="12" vol="157" pan="0"/>
          <note key="58" pos="960" len="12" vol="157" pan="0"/>
          <note key="55" pos="972" len="12" vol="157" pan="0"/>
          <note key="68" pos="984" len="12" vol="195" pan="0"/>
          <note key="0" pos="984" len="12" vol="176" pan="0"/>
          <note key="55" pos="996" len="12" vol="157" pan="0"/>
          <note key="58" pos="1008" len="12" vol="157" pan="0"/>
          <note key="1" pos="1008" len="12" vol="176" pan="0"/>
          <note key="63" pos="1020" len="12" vol="157" pan="0"/>
          <note key="58" pos="1032" len="12" vol="157" pan="0"/>
          <note key="55" pos="1044" len="12" vol="157" pan="0"/>
          <note key="67" pos="1056" len="12" vol="188" pan="0"/>
          <note key="0" pos="1056" len="12" vol="176" pan="0"/>
          <note key="55" pos="1068" len="12" vol="157" pan="0"/>
          <note key="58" pos="1080" len="12" vol="157" pan="0"/>
          <note key="1" pos="1080" len="12" vol="176" pan="0"/>
          <note key="55" pos="1092" len="12" vol="157" pan="0"/>
          <note key="63" pos="1104" len="12" vol="182" pan="0"/>
          <note key="55" pos="1116" len="12" vol="157" pan="0"/>
          <note key="58" pos="1128" len="12" vol="157" pan="0"/>
          <note key="0" pos="1128" len="12" vol="176" pan="0"/>
          <note key="55" pos="1140" len="12" vol="157" pan="0"/>
        </pattern>
        <pattern steps="16" muted="0" type="1" pos="8448" name="lgtH1">
          <note key="56" pos="0" len="12" vol="170" pan="0"/>
          <note key="1" pos="0" len="12" vol="188" pan="0"/>
          <note key="60" pos="12" len="12" vol="170" pan="0"/>
          <note key="63" pos="24" len="12" vol="170" pan="0"/>
          <note key="68" pos="36" len="12" vol="170" pan="0"/>
          <note key="60" pos="48" len="12" vol="170" pan="0"/>
          <note key="63" pos="60" len="12" vol="170" pan="0"/>
          <note key="68" pos="72" len="12" vol="170" pan="0"/>
          <note key="72" pos="84" len="12" vol="170" pan="0"/>
          <note key="63" pos="96" len="12" vol="170" pan="0"/>
          <note key="0" pos="96" len="12" vol="188" pan="0"/>
          <note key="68" pos="108" len="12" vol="170" pan="0"/>
          <note key="72" pos="120" len="12" vol="170" pan="0"/>
          <note key="75" pos="132" len="12" vol="170" pan="0"/>
          <note key="65" pos="144" len="12" vol="176" pan="0"/>
          <note key="1" pos="144" len="12" vol="188" pan="0"/>
          <note key="70" pos="156" len="12" vol="170" pan="0"/>
          <note key="74" pos="168" len="12" vol="170" pan="0"/>
          <note key="77" pos="180" len="12" vol="170" pan="0"/>
          <note key="70" pos="192" len="12" vol="176" pan="0"/>
          <note key="74" pos="204" len="12" vol="170" pan="0"/>
          <note key="77" pos="216" len="12" vol="170" pan="0"/>
          <note key="82" pos="228" len="12" vol="170" pan="0"/>
          <note key="74" pos="240" len="12" vol="176" pan="0"/>
          <note key="0" pos="240" len="12" vol="188" pan="0"/>
          <note key="77" pos="252" len="12" vol="170" pan="0"/>
          <note key="82" pos="264" len="12" vol="170" pan="0"/>
          <note key="86" pos="276" len="12" vol="176" pan="0"/>
          <note key="89" pos="288" len="12" vol="188" pan="0"/>
          <note key="87" pos="300" len="12" vol="176" pan="0"/>
          <note key="86" pos="312" len="12" vol="176" pan="0"/>
          <note key="84" pos="324" len="12" vol="176" pan="0"/>
          <note key="82" pos="336" len="12" vol="176" pan="0"/>
          <note key="84" pos="348" len="12" vol="176" pan="0"/>
          <note key="86" pos="360" len="12" vol="182" pan="0"/>
          <note key="89" pos="372" len="12" vol="188" pan="0"/>
        </pattern>
        <pattern steps="16" muted="0" type="1" pos="8832" name="lgtH1">
          <note key="87" pos="0" len="12" vol="182" pan="0"/>
          <note key="0" pos="0" len="12" vol="188" pan="0"/>
          <note key="89" pos="12" len="12" vol="188" pan="0"/>
          <note key="87" pos="24" len="12" vol="182" pan="0"/>
          <note key="1" pos="24" len="12" vol="188" pan="0"/>
          <note key="84" pos="36" len="12" vol="176" pan="0"/>
          <note key="79" pos="48" len="12" vol="176" pan="0"/>
          <note key="84" pos="60" len="12" vol="182" pan="0"/>
          <note key="86" pos="72" len="12" vol="182" pan="0"/>
          <note key="0" pos="72" len="12" vol="188" pan="0"/>
          <note key="87" pos="84" len="12" vol="182" pan="0"/>
          <note key="86" pos="96" len="12" vol="182" pan="0"/>
          <note key="1" pos="96" len="12" vol="188" pan="0"/>
          <note key="82" pos="108" len="12" vol="170" pan="0"/>
          <note key="77" pos="120" len="12" vol="163" pan="0"/>
          <note key="82" pos="132" len="12" vol="170" pan="0"/>
          <note key="84" pos="144" len="12" vol="176" pan="0"/>
          <note key="0" pos="144" len="12" vol="188" pan="0"/>
          <note key="86" pos="156" len="12" vol="182" pan="0"/>
          <note key="84" pos="168" len="12" vol="182" pan="0"/>
          <note key="80" pos="180" len="12" vol="176" pan="0"/>
          <note key="75" pos="192" len="12" vol="170" pan="0"/>
          <note key="80" pos="204" len="12" vol="176" pan="0"/>
          <note key="82" pos="216" len="12" vol="182" pan="0"/>
          <note key="84" pos="228" len="12" vol="182" pan="0"/>
          <note key="82" pos="240" len="12" vol="176" pan="0"/>
          <note key="79" pos="252" len="12" vol="170" pan="0"/>
          <note key="74" pos="264" len="12" vol="163" pan="0"/>
          <note key="79" pos="276" len="12" vol="170" pan="0"/>
          <note key="80" pos="288" len="12" vol="176" pan="0"/>
          <note key="79" pos="300" len="12" vol="176" pan="0"/>
          <note key="77" pos="312" len="12" vol="176" pan="0"/>
          <note key="75" pos="324" len="12" vol="170" pan="0"/>
          <note key="79" pos="336" len="12" vol="182" pan="0"/>
          <note key="77" pos="348" len="12" vol="176" pan="0"/>
          <note key="75" pos="360" len="12" vol="170" pan="0"/>
          <note key="74" pos="372" len="12" vol="170" pan="0"/>
        </pattern>
        <pattern steps="16" muted="0" type="1" pos="21120" name="">
          <note key="67" pos="0" len="12" vol="157" pan="0"/>
          <note key="0" pos="0" len="12" vol="157" pan="0"/>
          <note key="55" pos="12" len="12" vol="132" pan="0"/>
          <note key="1" pos="12" len="12" vol="157" pan="0"/>
          <note key="60" pos="24" len="12" vol="138" pan="0"/>
          <note key="63" pos="36" len="12" vol="157" pan="0"/>
          <note key="0" pos="36" len="12" vol="157" pan="0"/>
          <note key="55" pos="48" len="12" vol="138" pan="0"/>
          <note key="1" pos="48" len="12" vol="157" pan="0"/>
          <note key="60" pos="60" len="12" vol="138" pan="0"/>
          <note key="65" pos="72" len="12" vol="157" pan="0"/>
          <note key="0" pos="72" len="12" vol="157" pan="0"/>
          <note key="55" pos="84" len="12" vol="138" pan="0"/>
          <note key="1" pos="84" len="12" vol="157" pan="0"/>
          <note key="60" pos="96" len="12" vol="138" pan="0"/>
          <note key="62" pos="108" len="12" vol="157" pan="0"/>
          <note key="0" pos="108" len="12" vol="157" pan="0"/>
          <note key="55" pos="120" len="12" vol="138" pan="0"/>
          <note key="1" pos="120" len="12" vol="157" pan="0"/>
          <note key="60" pos="132" len="12" vol="138" pan="0"/>
          <note key="63" pos="144" len="12" vol="157" pan="0"/>
          <note key="0" pos="144" len="12" vol="157" pan="0"/>
          <note key="62" pos="156" len="12" vol="157" pan="0"/>
          <note key="1" pos="156" len="12" vol="157" pan="0"/>
          <note key="60" pos="168" len="12" vol="157" pan="0"/>
          <note key="55" pos="180" len="12" vol="157" pan="0"/>
          <note key="67" pos="192" len="12" vol="157" pan="0"/>
          <note key="0" pos="192" len="12" vol="157" pan="0"/>
          <note key="55" pos="204" len="12" vol="132" pan="0"/>
          <note key="1" pos="204" len="12" vol="157" pan="0"/>
          <note key="60" pos="216" len="12" vol="138" pan="0"/>
          <note key="63" pos="228" len="12" vol="157" pan="0"/>
          <note key="0" pos="228" len="12" vol="157" pan="0"/>
          <note key="55" pos="240" len="12" vol="138" pan="0"/>
          <note key="1" pos="240" len="12" vol="157" pan="0"/>
          <note key="60" pos="252" len="12" vol="138" pan="0"/>
          <note key="65" pos="264" len="12" vol="157" pan="0"/>
          <note key="0" pos="264" len="12" vol="157" pan="0"/>
          <note key="55" pos="276" len="12" vol="138" pan="0"/>
          <note key="1" pos="276" len="12" vol="157" pan="0"/>
          <note key="60" pos="288" len="12" vol="138" pan="0"/>
          <note key="62" pos="300" len="12" vol="157" pan="0"/>
          <note key="0" pos="300" len="12" vol="157" pan="0"/>
          <note key="55" pos="312" len="12" vol="138" pan="0"/>
          <note key="1" pos="312" len="12" vol="157" pan="0"/>
          <note key="60" pos="324" len="12" vol="138" pan="0"/>
          <note key="63" pos="336" len="12" vol="157" pan="0"/>
          <note key="0" pos="336" len="12" vol="157" pan="0"/>
          <note key="62" pos="348" len="12" vol="157" pan="0"/>
          <note key="63" pos="360" len="12" vol="157" pan="0"/>
          <note key="65" pos="372" len="12" vol="157" pan="0"/>
        </pattern>
        <pattern steps="16" muted="0" type="1" pos="21888" name="">
          <note key="72" pos="0" len="12" vol="170" pan="0"/>
          <note key="1" pos="0" len="12" vol="157" pan="0"/>
          <note key="60" pos="12" len="12" vol="151" pan="0"/>
          <note key="67" pos="24" len="12" vol="151" pan="0"/>
          <note key="74" pos="36" len="12" vol="170" pan="0"/>
          <note key="60" pos="48" len="12" vol="151" pan="0"/>
          <note key="67" pos="60" len="12" vol="151" pan="0"/>
          <note key="72" pos="72" len="12" vol="170" pan="0"/>
          <note key="60" pos="84" len="12" vol="151" pan="0"/>
          <note key="67" pos="96" len="12" vol="151" pan="0"/>
          <note key="75" pos="108" len="12" vol="170" pan="0"/>
          <note key="60" pos="120" len="12" vol="151" pan="0"/>
          <note key="67" pos="132" len="12" vol="151" pan="0"/>
          <note key="74" pos="144" len="12" vol="170" pan="0"/>
          <note key="75" pos="156" len="12" vol="170" pan="0"/>
          <note key="74" pos="168" len="12" vol="170" pan="0"/>
          <note key="70" pos="180" len="12" vol="170" pan="0"/>
          <note key="72" pos="192" len="12" vol="170" pan="0"/>
          <note key="60" pos="204" len="12" vol="151" pan="0"/>
          <note key="67" pos="216" len="12" vol="151" pan="0"/>
          <note key="70" pos="228" len="12" vol="170" pan="0"/>
          <note key="60" pos="240" len="12" vol="151" pan="0"/>
          <note key="65" pos="252" len="12" vol="151" pan="0"/>
          <note key="67" pos="264" len="12" vol="170" pan="0"/>
          <note key="63" pos="276" len="12" vol="151" pan="0"/>
          <note key="65" pos="288" len="12" vol="157" pan="0"/>
          <note key="63" pos="300" len="12" vol="157" pan="0"/>
          <note key="65" pos="312" len="12" vol="163" pan="0"/>
          <note key="67" pos="324" len="12" vol="163" pan="0"/>
          <note key="68" pos="336" len="12" vol="163" pan="0"/>
          <note key="67" pos="348" len="12" vol="163" pan="0"/>
          <note key="68" pos="360" len="12" vol="170" pan="0"/>
          <note key="70" pos="372" len="12" vol="170" pan="0"/>
        </pattern>
        <pattern steps="16" muted="0" type="1" pos="22656" name="">
          <note key="67" pos="0" len="12" vol="170" pan="0"/>
          <note key="1" pos="0" len="12" vol="151" pan="0"/>
          <note key="55" pos="12" len="12" vol="144" pan="0"/>
          <note key="60" pos="24" len="12" vol="151" pan="0"/>
          <note key="63" pos="36" len="12" vol="170" pan="0"/>
          <note key="55" pos="48" len="12" vol="151" pan="0"/>
          <note key="60" pos="60" len="12" vol="151" pan="0"/>
          <note key="65" pos="72" len="12" vol="170" pan="0"/>
          <note key="55" pos="84" len="12" vol="151" pan="0"/>
          <note key="60" pos="96" len="12" vol="151" pan="0"/>
          <note key="62" pos="108" len="12" vol="170" pan="0"/>
          <note key="55" pos="120" len="12" vol="151" pan="0"/>
          <note key="60" pos="132" len="12" vol="157" pan="0"/>
          <note key="63" pos="144" len="12" vol="170" pan="0"/>
          <note key="65" pos="156" len="12" vol="170" pan="0"/>
          <note key="67" pos="168" len="12" vol="170" pan="0"/>
          <note key="68" pos="180" len="12" vol="170" pan="0"/>
          <note key="70" pos="192" len="12" vol="170" pan="0"/>
          <note key="0" pos="192" len="48" vol="100" pan="0"/>
          <note key="55" pos="204" len="12" vol="144" pan="0"/>
          <note key="60" pos="216" len="12" vol="151" pan="0"/>
          <note key="67" pos="228" len="12" vol="170" pan="0"/>
          <note key="55" pos="240" len="12" vol="151" pan="0"/>
          <note key="1" pos="240" len="48" vol="100" pan="0"/>
          <note key="60" pos="252" len="12" vol="151" pan="0"/>
          <note key="68" pos="264" len="12" vol="170" pan="0"/>
          <note key="55" pos="276" len="12" vol="151" pan="0"/>
          <note key="60" pos="288" len="12" vol="151" pan="0"/>
          <note key="65" pos="300" len="12" vol="170" pan="0"/>
          <note key="55" pos="312" len="12" vol="151" pan="0"/>
          <note key="60" pos="324" len="12" vol="151" pan="0"/>
          <note key="67" pos="336" len="12" vol="170" pan="0"/>
          <note key="65" pos="348" len="12" vol="170" pan="0"/>
          <note key="63" pos="360" len="12" vol="170" pan="0"/>
          <note key="60" pos="372" len="12" vol="170" pan="0"/>
        </pattern>
      </track>
      <track solo="0" muted="1" type="0" name="lgtH2">
        <instrumenttrack basenote="57" pitchrange="1" pitch="0" usemasterpitch="1" vol="200" pan="100" fxch="12">
          <instrument name="carlapatchbay">
            <carlapatchbay>
              <CARLA-PROJECT VERSION="2.2">
                <EngineSettings>
                  <ForceStereo>false</ForceStereo>
                  <PreferPluginBridges>false</PreferPluginBridges>
                  <PreferUiBridges>true</PreferUiBridges>
                  <UIsAlwaysOnTop>false</UIsAlwaysOnTop>
                  <MaxParameters>200</MaxParameters>
                  <UIBridgesTimeout>4000</UIBridgesTimeout>
                  <LADSPA_PATH>/home/pass/.ladspa:/usr/lib/ladspa:/usr/local/lib/ladspa</LADSPA_PATH>
                  <DSSI_PATH>/home/pass/.dssi:/usr/lib/dssi:/usr/local/lib/dssi</DSSI_PATH>
                  <LV2_PATH>/home/pass/.lv2:/usr/lib/lv2:/usr/local/lib/lv2</LV2_PATH>
                  <VST2_PATH>/home/pass/.vst:/home/pass/.wine/drive_c/Program Files (x86)/VstPlugins:/home/pass/.wine/drive_c/Program Files/VstPlugins:/usr/lib/lxvst:/usr/lib/vst:/usr/local/lib/lxvst:/usr/local/lib/vst/home/pass/.lxvst:/home/pass/vst</VST2_PATH>
                  <VST3_PATH>/home/pass/.vst3:/home/pass/.wine/drive_c/Program Files (x86)/Common Files/VST3:/home/pass/.wine/drive_c/Program Files/Common Files/VST3:/usr/lib/vst3:/usr/local/lib/vst3</VST3_PATH>
                  <SF2_PATH>/home/pass/.sounds/sf2/home/pass/.sounds/sf3:/usr/share/soundfonts:/usr/share/sounds/sf2:/usr/share/sounds/sf3</SF2_PATH>
                  <SFZ_PATH>/home/pass/.sounds/sfz:/home/pass/samples:/usr/share/sounds/sfz</SFZ_PATH>
                </EngineSettings>
                <!-- sfizz -->
                <Plugin>
                  <Info>
                    <Type>LV2</Type>
                    <Name>sfizz</Name>
                    <URI>http://sfztools.github.io/sfizz</URI>
                  </Info>
                  <Data>
                    <Active>Yes</Active>
                    <ControlChannel>1</ControlChannel>
                    <Options>0x3f0</Options>
                    <Parameter>
                      <Index>0</Index>
                      <Name>Volume</Name>
                      <Symbol>volume</Symbol>
                      <Value>0</Value>
                    </Parameter>
                    <Parameter>
                      <Index>1</Index>
                      <Name>Polyphony</Name>
                      <Symbol>num_voices</Symbol>
                      <Value>64</Value>
                    </Parameter>
                    <Parameter>
                      <Index>2</Index>
                      <Name>Internal oversampling factor</Name>
                      <Symbol>oversampling</Symbol>
                      <Value>1</Value>
                    </Parameter>
                    <Parameter>
                      <Index>3</Index>
                      <Name>Preload size</Name>
                      <Symbol>preload_size</Symbol>
                      <Value>8192</Value>
                    </Parameter>
                    <CustomData>
                      <Type>http://lv2plug.in/ns/ext/atom#Path</Type>
                      <Key>http://sfztools.github.io/sfizz:sfzfile</Key>
                      <Value>/home/pass/samples/fakeguitar/_fakeguitar2_integrated.sfz</Value>
                    </CustomData>
                    <CustomData>
                      <Type>http://lv2plug.in/ns/ext/atom#Int</Type>
                      <Key>http://sfztools.github.io/sfizz:numvoices</Key>
                      <Value>QAAAAA==</Value>
                    </CustomData>
                    <CustomData>
                      <Type>http://lv2plug.in/ns/ext/atom#Int</Type>
                      <Key>http://sfztools.github.io/sfizz:preload_size</Key>
                      <Value>ACAAAA==</Value>
                    </CustomData>
                    <CustomData>
                      <Type>http://lv2plug.in/ns/ext/atom#Int</Type>
                      <Key>http://sfztools.github.io/sfizz:oversampling</Key>
                      <Value>AQAAAA==</Value>
                    </CustomData>
                  </Data>
                </Plugin>
                <Patchbay>
                  <Connection>
                    <Source>Midi Input:Capture 1</Source>
                    <Target>sfizz:events-in</Target>
                  </Connection>
                  <Connection>
                    <Source>sfizz:Left Output</Source>
                    <Target>Audio Output:Left</Target>
                  </Connection>
                  <Connection>
                    <Source>sfizz:Right Output</Source>
                    <Target>Audio Output:Right</Target>
                  </Connection>
                  <Positions>
                    <Position y1="1353" pluginId="0" x1="1693">
                      <Name>sfizz</Name>
                    </Position>
                  </Positions>
                </Patchbay>
              </CARLA-PROJECT>
            </carlapatchbay>
          </instrument>
          <eldata fwet="0" ftype="0" fcut="14000" fres="0.5">
            <elvol ctlenvamt="0" lamt="0" amt="0" latt="0" lspd_syncmode="0" dec="0.5" lpdel="0" att="0" lspd_denominator="4" hold="0.5" lspd="0.1" lspd_numerator="4" sustain="0.5" lshp="0" pdel="0" x100="0" rel="0.1" userwavefile=""/>
            <elcut ctlenvamt="0" lamt="0" amt="0" latt="0" lspd_syncmode="0" dec="0.5" lpdel="0" att="0" lspd_denominator="4" hold="0.5" lspd="0.1" lspd_numerator="4" sustain="0.5" lshp="0" pdel="0" x100="0" rel="0.1" userwavefile=""/>
            <elres ctlenvamt="0" lamt="0" amt="0" latt="0" lspd_syncmode="0" dec="0.5" lpdel="0" att="0" lspd_denominator="4" hold="0.5" lspd="0.1" lspd_numerator="4" sustain="0.5" lshp="0" pdel="0" x100="0" rel="0.1" userwavefile=""/>
          </eldata>
          <chordcreator chordrange="1" chord-enabled="0" chord="0"/>
          <arpeggiator arptime_syncmode="0" arpdir="0" arptime_numerator="4" arpmode="0" arp="0" arpmiss="0" arptime="200" arpgate="100" arp-enabled="0" arpskip="0" arptime_denominator="4" arprange="1" arpcycle="0"/>
          <midiport writable="0" fixedinputvelocity="-1" outputchannel="1" fixedoutputvelocity="-1" outputcontroller="0" basevelocity="63" fixedoutputnote="-1" inputchannel="0" inputcontroller="0" outputprogram="1" readable="0"/>
          <fxchain numofeffects="0" enabled="0"/>
        </instrumenttrack>
        <pattern steps="16" muted="0" type="1" pos="6528" name="lgtH2">
          <note key="63" pos="0" len="72" vol="151" pan="0"/>
          <note key="0" pos="0" len="72" vol="151" pan="0"/>
          <note key="60" pos="72" len="72" vol="151" pan="0"/>
          <note key="63" pos="144" len="72" vol="151" pan="0"/>
          <note key="67" pos="216" len="72" vol="151" pan="0"/>
          <note key="72" pos="288" len="48" vol="144" pan="0"/>
          <note key="74" pos="336" len="48" vol="144" pan="0"/>
          <note key="75" pos="384" len="72" vol="151" pan="0"/>
          <note key="74" pos="456" len="72" vol="151" pan="0"/>
          <note key="70" pos="528" len="72" vol="151" pan="0"/>
          <note key="65" pos="600" len="72" vol="151" pan="0"/>
          <note key="63" pos="672" len="48" vol="144" pan="0"/>
          <note key="62" pos="720" len="48" vol="144" pan="0"/>
          <note key="63" pos="768" len="72" vol="151" pan="0"/>
          <note key="60" pos="840" len="72" vol="151" pan="0"/>
          <note key="63" pos="912" len="72" vol="151" pan="0"/>
          <note key="67" pos="984" len="72" vol="151" pan="0"/>
          <note key="72" pos="1056" len="48" vol="144" pan="0"/>
          <note key="74" pos="1104" len="48" vol="144" pan="0"/>
          <note key="75" pos="1152" len="72" vol="151" pan="0"/>
          <note key="79" pos="1224" len="72" vol="151" pan="0"/>
          <note key="77" pos="1296" len="72" vol="151" pan="0"/>
          <note key="74" pos="1368" len="72" vol="151" pan="0"/>
          <note key="80" pos="1440" len="48" vol="144" pan="0"/>
          <note key="79" pos="1488" len="48" vol="144" pan="0"/>
        </pattern>
        <pattern steps="16" muted="0" type="1" pos="17280" name="">
          <note key="65" pos="0" len="24" vol="163" pan="0"/>
          <note key="57" pos="24" len="24" vol="163" pan="0"/>
          <note key="62" pos="48" len="24" vol="163" pan="0"/>
          <note key="64" pos="72" len="24" vol="163" pan="0"/>
          <note key="65" pos="96" len="24" vol="163" pan="0"/>
          <note key="57" pos="120" len="24" vol="163" pan="0"/>
          <note key="62" pos="144" len="24" vol="163" pan="0"/>
          <note key="65" pos="168" len="24" vol="163" pan="0"/>
          <note key="64" pos="192" len="24" vol="163" pan="0"/>
          <note key="55" pos="216" len="24" vol="163" pan="0"/>
          <note key="60" pos="240" len="24" vol="163" pan="0"/>
          <note key="62" pos="264" len="48" vol="163" pan="0"/>
          <note key="53" pos="312" len="24" vol="163" pan="0"/>
          <note key="60" pos="336" len="24" vol="163" pan="0"/>
          <note key="58" pos="360" len="24" vol="163" pan="0"/>
          <note key="60" pos="384" len="24" vol="163" pan="0"/>
          <note key="48" pos="408" len="24" vol="163" pan="0"/>
          <note key="53" pos="432" len="24" vol="163" pan="0"/>
          <note key="48" pos="456" len="24" vol="163" pan="0"/>
          <note key="53" pos="480" len="24" vol="163" pan="0"/>
          <note key="55" pos="504" len="24" vol="163" pan="0"/>
          <note key="57" pos="528" len="24" vol="163" pan="0"/>
          <note key="60" pos="552" len="24" vol="163" pan="0"/>
          <note key="58" pos="576" len="24" vol="163" pan="0"/>
          <note key="50" pos="600" len="24" vol="163" pan="0"/>
          <note key="55" pos="624" len="24" vol="163" pan="0"/>
          <note key="57" pos="648" len="48" vol="163" pan="0"/>
          <note key="50" pos="696" len="24" vol="163" pan="0"/>
          <note key="52" pos="720" len="24" vol="163" pan="0"/>
          <note key="53" pos="744" len="24" vol="163" pan="0"/>
          <note key="65" pos="768" len="24" vol="163" pan="0"/>
          <note key="57" pos="792" len="24" vol="163" pan="0"/>
          <note key="62" pos="816" len="24" vol="163" pan="0"/>
          <note key="64" pos="840" len="24" vol="163" pan="0"/>
          <note key="65" pos="864" len="24" vol="163" pan="0"/>
          <note key="57" pos="888" len="24" vol="163" pan="0"/>
          <note key="62" pos="912" len="24" vol="163" pan="0"/>
          <note key="65" pos="936" len="24" vol="163" pan="0"/>
          <note key="64" pos="960" len="24" vol="163" pan="0"/>
          <note key="55" pos="984" len="24" vol="163" pan="0"/>
          <note key="69" pos="1008" len="24" vol="163" pan="0"/>
          <note key="62" pos="1032" len="48" vol="163" pan="0"/>
          <note key="53" pos="1080" len="24" vol="163" pan="0"/>
          <note key="60" pos="1104" len="24" vol="163" pan="0"/>
          <note key="58" pos="1128" len="24" vol="163" pan="0"/>
          <note key="60" pos="1152" len="24" vol="163" pan="0"/>
          <note key="48" pos="1176" len="24" vol="163" pan="0"/>
          <note key="53" pos="1200" len="24" vol="163" pan="0"/>
          <note key="48" pos="1224" len="24" vol="163" pan="0"/>
          <note key="53" pos="1248" len="24" vol="163" pan="0"/>
          <note key="55" pos="1272" len="24" vol="163" pan="0"/>
          <note key="57" pos="1296" len="24" vol="163" pan="0"/>
          <note key="60" pos="1320" len="24" vol="163" pan="0"/>
          <note key="58" pos="1344" len="24" vol="163" pan="0"/>
          <note key="50" pos="1368" len="24" vol="163" pan="0"/>
          <note key="55" pos="1392" len="24" vol="163" pan="0"/>
          <note key="62" pos="1416" len="48" vol="163" pan="0"/>
          <note key="65" pos="1464" len="24" vol="163" pan="0"/>
          <note key="64" pos="1488" len="24" vol="163" pan="0"/>
          <note key="62" pos="1512" len="24" vol="163" pan="0"/>
          <note key="65" pos="1536" len="24" vol="163" pan="0"/>
          <note key="57" pos="1560" len="24" vol="163" pan="0"/>
          <note key="62" pos="1584" len="24" vol="163" pan="0"/>
          <note key="64" pos="1608" len="24" vol="163" pan="0"/>
          <note key="65" pos="1632" len="24" vol="163" pan="0"/>
          <note key="57" pos="1656" len="24" vol="163" pan="0"/>
          <note key="62" pos="1680" len="24" vol="163" pan="0"/>
          <note key="65" pos="1704" len="24" vol="163" pan="0"/>
          <note key="64" pos="1728" len="24" vol="163" pan="0"/>
          <note key="55" pos="1752" len="24" vol="163" pan="0"/>
          <note key="60" pos="1776" len="24" vol="163" pan="0"/>
          <note key="62" pos="1800" len="48" vol="163" pan="0"/>
          <note key="53" pos="1848" len="24" vol="163" pan="0"/>
          <note key="60" pos="1872" len="24" vol="163" pan="0"/>
          <note key="58" pos="1896" len="24" vol="163" pan="0"/>
          <note key="60" pos="1920" len="24" vol="163" pan="0"/>
          <note key="48" pos="1944" len="24" vol="163" pan="0"/>
          <note key="53" pos="1968" len="24" vol="163" pan="0"/>
          <note key="48" pos="1992" len="24" vol="163" pan="0"/>
          <note key="53" pos="2016" len="24" vol="163" pan="0"/>
          <note key="55" pos="2040" len="24" vol="163" pan="0"/>
          <note key="57" pos="2064" len="24" vol="163" pan="0"/>
          <note key="60" pos="2088" len="24" vol="163" pan="0"/>
          <note key="58" pos="2112" len="24" vol="163" pan="0"/>
          <note key="50" pos="2136" len="24" vol="163" pan="0"/>
          <note key="55" pos="2160" len="24" vol="163" pan="0"/>
          <note key="57" pos="2184" len="48" vol="163" pan="0"/>
          <note key="50" pos="2232" len="24" vol="163" pan="0"/>
          <note key="52" pos="2256" len="24" vol="163" pan="0"/>
          <note key="53" pos="2280" len="24" vol="163" pan="0"/>
          <note key="65" pos="2304" len="24" vol="163" pan="0"/>
          <note key="57" pos="2328" len="24" vol="163" pan="0"/>
          <note key="62" pos="2352" len="24" vol="163" pan="0"/>
          <note key="64" pos="2376" len="24" vol="163" pan="0"/>
          <note key="65" pos="2400" len="24" vol="163" pan="0"/>
          <note key="57" pos="2424" len="24" vol="163" pan="0"/>
          <note key="62" pos="2448" len="24" vol="163" pan="0"/>
          <note key="65" pos="2472" len="24" vol="163" pan="0"/>
          <note key="64" pos="2496" len="24" vol="163" pan="0"/>
          <note key="55" pos="2520" len="24" vol="163" pan="0"/>
          <note key="69" pos="2544" len="24" vol="163" pan="0"/>
          <note key="62" pos="2568" len="48" vol="163" pan="0"/>
          <note key="53" pos="2616" len="24" vol="163" pan="0"/>
          <note key="60" pos="2640" len="24" vol="163" pan="0"/>
          <note key="58" pos="2664" len="24" vol="163" pan="0"/>
          <note key="60" pos="2688" len="24" vol="163" pan="0"/>
          <note key="48" pos="2712" len="24" vol="163" pan="0"/>
          <note key="53" pos="2736" len="24" vol="163" pan="0"/>
          <note key="48" pos="2760" len="24" vol="163" pan="0"/>
          <note key="53" pos="2784" len="24" vol="163" pan="0"/>
          <note key="55" pos="2808" len="24" vol="163" pan="0"/>
          <note key="57" pos="2832" len="24" vol="163" pan="0"/>
          <note key="60" pos="2856" len="24" vol="163" pan="0"/>
          <note key="58" pos="2880" len="24" vol="163" pan="0"/>
          <note key="50" pos="2904" len="24" vol="163" pan="0"/>
          <note key="55" pos="2928" len="24" vol="163" pan="0"/>
          <note key="62" pos="2952" len="24" vol="163" pan="0"/>
          <note key="50" pos="2952" len="24" vol="163" pan="0"/>
        </pattern>
        <pattern steps="16" muted="0" type="1" pos="25344" name="">
          <note key="62" pos="0" len="72" vol="176" pan="0"/>
          <note key="0" pos="0" len="23" vol="197" pan="0"/>
          <note key="50" pos="72" len="72" vol="176" pan="0"/>
          <note key="53" pos="144" len="72" vol="176" pan="0"/>
          <note key="57" pos="216" len="72" vol="176" pan="0"/>
          <note key="62" pos="288" len="48" vol="170" pan="0"/>
          <note key="64" pos="336" len="48" vol="170" pan="0"/>
          <note key="65" pos="384" len="72" vol="176" pan="0"/>
          <note key="64" pos="456" len="72" vol="176" pan="0"/>
          <note key="60" pos="528" len="72" vol="176" pan="0"/>
          <note key="55" pos="600" len="72" vol="176" pan="0"/>
          <note key="53" pos="672" len="48" vol="170" pan="0"/>
          <note key="55" pos="720" len="48" vol="170" pan="0"/>
          <note key="57" pos="768" len="72" vol="176" pan="0"/>
          <note key="50" pos="840" len="72" vol="176" pan="0"/>
          <note key="53" pos="912" len="72" vol="176" pan="0"/>
          <note key="57" pos="984" len="72" vol="176" pan="0"/>
          <note key="62" pos="1056" len="48" vol="170" pan="0"/>
          <note key="64" pos="1104" len="48" vol="170" pan="0"/>
          <note key="65" pos="1152" len="72" vol="176" pan="0"/>
          <note key="69" pos="1224" len="72" vol="176" pan="0"/>
          <note key="67" pos="1296" len="72" vol="176" pan="0"/>
          <note key="64" pos="1368" len="72" vol="176" pan="0"/>
          <note key="70" pos="1440" len="48" vol="170" pan="0"/>
          <note key="69" pos="1488" len="48" vol="170" pan="0"/>
        </pattern>
        <pattern steps="16" muted="0" type="1" pos="13824" name="">
          <note key="43" pos="0" len="12" vol="157" pan="0"/>
          <note key="1" pos="0" len="12" vol="182" pan="0"/>
          <note key="41" pos="12" len="12" vol="157" pan="0"/>
          <note key="47" pos="24" len="12" vol="157" pan="0"/>
          <note key="43" pos="36" len="12" vol="157" pan="0"/>
          <note key="50" pos="48" len="12" vol="163" pan="0"/>
          <note key="47" pos="60" len="12" vol="163" pan="0"/>
          <note key="53" pos="72" len="12" vol="163" pan="0"/>
          <note key="50" pos="84" len="12" vol="163" pan="0"/>
          <note key="55" pos="96" len="12" vol="170" pan="0"/>
          <note key="53" pos="108" len="12" vol="170" pan="0"/>
          <note key="59" pos="120" len="12" vol="170" pan="0"/>
          <note key="55" pos="132" len="12" vol="170" pan="0"/>
          <note key="62" pos="144" len="12" vol="170" pan="0"/>
          <note key="59" pos="156" len="12" vol="170" pan="0"/>
          <note key="65" pos="168" len="12" vol="170" pan="0"/>
          <note key="62" pos="180" len="12" vol="170" pan="0"/>
          <note key="67" pos="192" len="12" vol="176" pan="0"/>
          <note key="65" pos="204" len="12" vol="170" pan="0"/>
          <note key="71" pos="216" len="12" vol="176" pan="0"/>
          <note key="67" pos="228" len="12" vol="170" pan="0"/>
          <note key="74" pos="240" len="12" vol="176" pan="0"/>
          <note key="0" pos="240" len="12" vol="182" pan="0"/>
          <note key="71" pos="252" len="12" vol="170" pan="0"/>
          <note key="77" pos="264" len="12" vol="182" pan="0"/>
          <note key="74" pos="276" len="12" vol="170" pan="0"/>
          <note key="79" pos="288" len="12" vol="182" pan="0"/>
          <note key="77" pos="300" len="12" vol="182" pan="0"/>
          <note key="75" pos="312" len="12" vol="182" pan="0"/>
          <note key="74" pos="324" len="12" vol="182" pan="0"/>
          <note key="77" pos="336" len="12" vol="182" pan="0"/>
          <note key="75" pos="348" len="12" vol="182" pan="0"/>
          <note key="74" pos="360" len="12" vol="182" pan="0"/>
          <note key="75" pos="372" len="12" vol="182" pan="0"/>
        </pattern>
        <pattern steps="16" muted="0" type="1" pos="1536" name="lgtH2">
          <note key="72" pos="0" len="12" vol="157" pan="0"/>
          <note key="0" pos="0" len="12" vol="157" pan="0"/>
          <note key="67" pos="12" len="12" vol="151" pan="0"/>
          <note key="72" pos="24" len="12" vol="151" pan="0"/>
          <note key="75" pos="36" len="12" vol="151" pan="0"/>
          <note key="74" pos="48" len="12" vol="163" pan="0"/>
          <note key="67" pos="60" len="12" vol="151" pan="0"/>
          <note key="74" pos="72" len="12" vol="151" pan="0"/>
          <note key="77" pos="84" len="12" vol="157" pan="0"/>
          <note key="75" pos="96" len="12" vol="170" pan="0"/>
          <note key="67" pos="108" len="12" vol="151" pan="0"/>
          <note key="75" pos="120" len="12" vol="151" pan="0"/>
          <note key="79" pos="132" len="12" vol="163" pan="0"/>
          <note key="77" pos="144" len="12" vol="176" pan="0"/>
          <note key="74" pos="156" len="12" vol="151" pan="0"/>
          <note key="75" pos="168" len="12" vol="151" pan="0"/>
          <note key="72" pos="180" len="12" vol="151" pan="0"/>
          <note key="71" pos="192" len="12" vol="151" pan="0"/>
          <note key="67" pos="204" len="12" vol="151" pan="0"/>
          <note key="71" pos="216" len="12" vol="151" pan="0"/>
          <note key="74" pos="228" len="12" vol="151" pan="0"/>
          <note key="77" pos="240" len="12" vol="157" pan="0"/>
          <note key="74" pos="252" len="12" vol="157" pan="0"/>
          <note key="77" pos="264" len="12" vol="163" pan="0"/>
          <note key="79" pos="276" len="12" vol="170" pan="0"/>
          <note key="83" pos="288" len="24" vol="176" pan="0"/>
        </pattern>
        <pattern steps="16" muted="0" type="1" pos="26880" name="">
          <note key="71" pos="0" len="72" vol="170" pan="0"/>
          <note key="59" pos="72" len="72" vol="170" pan="0"/>
          <note key="64" pos="144" len="72" vol="170" pan="0"/>
          <note key="67" pos="216" len="72" vol="170" pan="0"/>
          <note key="71" pos="288" len="48" vol="163" pan="0"/>
          <note key="74" pos="336" len="48" vol="163" pan="0"/>
          <note key="76" pos="384" len="72" vol="170" pan="0"/>
          <note key="74" pos="456" len="72" vol="170" pan="0"/>
          <note key="69" pos="528" len="72" vol="170" pan="0"/>
          <note key="66" pos="600" len="72" vol="170" pan="0"/>
          <note key="64" pos="672" len="48" vol="163" pan="0"/>
          <note key="66" pos="720" len="48" vol="163" pan="0"/>
          <note key="67" pos="768" len="72" vol="170" pan="0"/>
          <note key="59" pos="840" len="72" vol="170" pan="0"/>
          <note key="64" pos="912" len="72" vol="170" pan="0"/>
          <note key="67" pos="984" len="72" vol="170" pan="0"/>
          <note key="71" pos="1056" len="48" vol="163" pan="0"/>
          <note key="74" pos="1104" len="48" vol="163" pan="0"/>
          <note key="76" pos="1152" len="72" vol="170" pan="0"/>
          <note key="79" pos="1224" len="72" vol="170" pan="0"/>
          <note key="78" pos="1296" len="72" vol="170" pan="0"/>
          <note key="76" pos="1368" len="72" vol="170" pan="0"/>
          <note key="74" pos="1440" len="48" vol="170" pan="0"/>
          <note key="76" pos="1488" len="48" vol="163" pan="0"/>
        </pattern>
        <pattern steps="16" muted="0" type="1" pos="28416" name="">
          <note key="79" pos="0" len="72" vol="170" pan="0"/>
          <note key="67" pos="72" len="72" vol="170" pan="0"/>
          <note key="71" pos="144" len="72" vol="170" pan="0"/>
          <note key="76" pos="216" len="72" vol="170" pan="0"/>
          <note key="79" pos="288" len="48" vol="163" pan="0"/>
          <note key="81" pos="336" len="48" vol="163" pan="0"/>
          <note key="83" pos="384" len="72" vol="170" pan="0"/>
          <note key="81" pos="456" len="72" vol="170" pan="0"/>
          <note key="78" pos="528" len="72" vol="170" pan="0"/>
          <note key="74" pos="600" len="72" vol="170" pan="0"/>
          <note key="71" pos="672" len="48" vol="163" pan="0"/>
          <note key="74" pos="720" len="48" vol="163" pan="0"/>
          <note key="76" pos="768" len="72" vol="170" pan="0"/>
          <note key="67" pos="840" len="72" vol="170" pan="0"/>
          <note key="71" pos="912" len="72" vol="170" pan="0"/>
          <note key="76" pos="984" len="72" vol="170" pan="0"/>
          <note key="79" pos="1056" len="48" vol="163" pan="0"/>
          <note key="81" pos="1104" len="48" vol="163" pan="0"/>
          <note key="83" pos="1152" len="72" vol="170" pan="0"/>
          <note key="88" pos="1224" len="72" vol="170" pan="0"/>
          <note key="86" pos="1296" len="72" vol="170" pan="0"/>
          <note key="83" pos="1368" len="72" vol="170" pan="0"/>
          <note key="81" pos="1440" len="48" vol="170" pan="0"/>
          <note key="83" pos="1488" len="48" vol="163" pan="0"/>
        </pattern>
        <pattern steps="16" muted="0" type="1" pos="2304" name="">
          <note key="79" pos="0" len="12" vol="157" pan="0"/>
          <note key="0" pos="0" len="12" vol="157" pan="0"/>
          <note key="67" pos="12" len="12" vol="132" pan="0"/>
          <note key="1" pos="12" len="12" vol="157" pan="0"/>
          <note key="72" pos="24" len="12" vol="138" pan="0"/>
          <note key="75" pos="36" len="12" vol="157" pan="0"/>
          <note key="0" pos="36" len="12" vol="157" pan="0"/>
          <note key="67" pos="48" len="12" vol="138" pan="0"/>
          <note key="1" pos="48" len="12" vol="157" pan="0"/>
          <note key="72" pos="60" len="12" vol="138" pan="0"/>
          <note key="77" pos="72" len="12" vol="157" pan="0"/>
          <note key="0" pos="72" len="12" vol="157" pan="0"/>
          <note key="67" pos="84" len="12" vol="138" pan="0"/>
          <note key="1" pos="84" len="12" vol="157" pan="0"/>
          <note key="72" pos="96" len="12" vol="138" pan="0"/>
          <note key="74" pos="108" len="12" vol="157" pan="0"/>
          <note key="0" pos="108" len="12" vol="157" pan="0"/>
          <note key="67" pos="120" len="12" vol="138" pan="0"/>
          <note key="1" pos="120" len="12" vol="157" pan="0"/>
          <note key="72" pos="132" len="12" vol="138" pan="0"/>
          <note key="75" pos="144" len="12" vol="157" pan="0"/>
          <note key="0" pos="144" len="12" vol="157" pan="0"/>
          <note key="74" pos="156" len="12" vol="157" pan="0"/>
          <note key="1" pos="156" len="12" vol="157" pan="0"/>
          <note key="72" pos="168" len="12" vol="157" pan="0"/>
          <note key="67" pos="180" len="12" vol="157" pan="0"/>
          <note key="79" pos="192" len="12" vol="157" pan="0"/>
          <note key="0" pos="192" len="12" vol="157" pan="0"/>
          <note key="67" pos="204" len="12" vol="132" pan="0"/>
          <note key="1" pos="204" len="12" vol="157" pan="0"/>
          <note key="72" pos="216" len="12" vol="138" pan="0"/>
          <note key="75" pos="228" len="12" vol="157" pan="0"/>
          <note key="0" pos="228" len="12" vol="157" pan="0"/>
          <note key="67" pos="240" len="12" vol="138" pan="0"/>
          <note key="1" pos="240" len="12" vol="157" pan="0"/>
          <note key="72" pos="252" len="12" vol="138" pan="0"/>
          <note key="77" pos="264" len="12" vol="157" pan="0"/>
          <note key="0" pos="264" len="12" vol="157" pan="0"/>
          <note key="67" pos="276" len="12" vol="138" pan="0"/>
          <note key="1" pos="276" len="12" vol="157" pan="0"/>
          <note key="72" pos="288" len="12" vol="138" pan="0"/>
          <note key="74" pos="300" len="12" vol="157" pan="0"/>
          <note key="0" pos="300" len="12" vol="157" pan="0"/>
          <note key="67" pos="312" len="12" vol="138" pan="0"/>
          <note key="1" pos="312" len="12" vol="157" pan="0"/>
          <note key="72" pos="324" len="12" vol="138" pan="0"/>
          <note key="75" pos="336" len="12" vol="157" pan="0"/>
          <note key="0" pos="336" len="12" vol="157" pan="0"/>
          <note key="74" pos="348" len="12" vol="157" pan="0"/>
          <note key="75" pos="360" len="12" vol="157" pan="0"/>
          <note key="77" pos="372" len="12" vol="157" pan="0"/>
        </pattern>
        <pattern steps="16" muted="0" type="1" pos="3072" name="">
          <note key="60" pos="0" len="12" vol="170" pan="0"/>
          <note key="1" pos="0" len="12" vol="157" pan="0"/>
          <note key="48" pos="12" len="12" vol="151" pan="0"/>
          <note key="55" pos="24" len="12" vol="151" pan="0"/>
          <note key="62" pos="36" len="12" vol="170" pan="0"/>
          <note key="48" pos="48" len="12" vol="151" pan="0"/>
          <note key="55" pos="60" len="12" vol="151" pan="0"/>
          <note key="60" pos="72" len="12" vol="170" pan="0"/>
          <note key="48" pos="84" len="12" vol="151" pan="0"/>
          <note key="55" pos="96" len="12" vol="151" pan="0"/>
          <note key="63" pos="108" len="12" vol="170" pan="0"/>
          <note key="48" pos="120" len="12" vol="151" pan="0"/>
          <note key="55" pos="132" len="12" vol="151" pan="0"/>
          <note key="62" pos="144" len="12" vol="170" pan="0"/>
          <note key="63" pos="156" len="12" vol="170" pan="0"/>
          <note key="62" pos="168" len="12" vol="170" pan="0"/>
          <note key="58" pos="180" len="12" vol="170" pan="0"/>
          <note key="60" pos="192" len="12" vol="170" pan="0"/>
          <note key="48" pos="204" len="12" vol="151" pan="0"/>
          <note key="55" pos="216" len="12" vol="151" pan="0"/>
          <note key="58" pos="228" len="12" vol="170" pan="0"/>
          <note key="48" pos="240" len="12" vol="151" pan="0"/>
          <note key="53" pos="252" len="12" vol="151" pan="0"/>
          <note key="55" pos="264" len="12" vol="170" pan="0"/>
          <note key="51" pos="276" len="12" vol="151" pan="0"/>
          <note key="53" pos="288" len="12" vol="157" pan="0"/>
          <note key="51" pos="300" len="12" vol="157" pan="0"/>
          <note key="53" pos="312" len="12" vol="163" pan="0"/>
          <note key="55" pos="324" len="12" vol="163" pan="0"/>
          <note key="63" pos="336" len="12" vol="151" pan="0"/>
          <note key="62" pos="348" len="12" vol="151" pan="0"/>
          <note key="63" pos="360" len="12" vol="151" pan="0"/>
          <note key="65" pos="372" len="12" vol="151" pan="0"/>
        </pattern>
        <pattern steps="16" muted="0" type="1" pos="3840" name="">
          <note key="75" pos="0" len="12" vol="170" pan="0"/>
          <note key="1" pos="0" len="12" vol="151" pan="0"/>
          <note key="63" pos="12" len="12" vol="144" pan="0"/>
          <note key="67" pos="24" len="12" vol="151" pan="0"/>
          <note key="72" pos="36" len="12" vol="170" pan="0"/>
          <note key="63" pos="48" len="12" vol="151" pan="0"/>
          <note key="67" pos="60" len="12" vol="151" pan="0"/>
          <note key="74" pos="72" len="12" vol="170" pan="0"/>
          <note key="63" pos="84" len="12" vol="151" pan="0"/>
          <note key="67" pos="96" len="12" vol="151" pan="0"/>
          <note key="70" pos="108" len="12" vol="170" pan="0"/>
          <note key="63" pos="120" len="12" vol="151" pan="0"/>
          <note key="67" pos="132" len="12" vol="157" pan="0"/>
          <note key="72" pos="144" len="12" vol="170" pan="0"/>
          <note key="74" pos="156" len="12" vol="170" pan="0"/>
          <note key="75" pos="168" len="12" vol="170" pan="0"/>
          <note key="77" pos="180" len="12" vol="170" pan="0"/>
          <note key="79" pos="192" len="12" vol="170" pan="0"/>
          <note key="0" pos="192" len="48" vol="100" pan="0"/>
          <note key="63" pos="204" len="12" vol="144" pan="0"/>
          <note key="67" pos="216" len="12" vol="151" pan="0"/>
          <note key="75" pos="228" len="12" vol="170" pan="0"/>
          <note key="63" pos="240" len="12" vol="151" pan="0"/>
          <note key="1" pos="240" len="48" vol="100" pan="0"/>
          <note key="67" pos="252" len="12" vol="151" pan="0"/>
          <note key="77" pos="264" len="12" vol="170" pan="0"/>
          <note key="63" pos="276" len="12" vol="151" pan="0"/>
          <note key="67" pos="288" len="12" vol="151" pan="0"/>
          <note key="74" pos="300" len="12" vol="170" pan="0"/>
          <note key="63" pos="312" len="12" vol="151" pan="0"/>
          <note key="67" pos="324" len="12" vol="151" pan="0"/>
          <note key="75" pos="336" len="12" vol="170" pan="0"/>
          <note key="74" pos="348" len="12" vol="170" pan="0"/>
          <note key="72" pos="360" len="12" vol="170" pan="0"/>
          <note key="67" pos="372" len="12" vol="170" pan="0"/>
        </pattern>
        <pattern steps="16" muted="0" type="1" pos="12672" name="">
          <note key="63" pos="0" len="12" vol="182" pan="0"/>
          <note key="0" pos="0" len="12" vol="176" pan="0"/>
          <note key="55" pos="12" len="12" vol="157" pan="0"/>
          <note key="58" pos="24" len="12" vol="157" pan="0"/>
          <note key="1" pos="24" len="12" vol="176" pan="0"/>
          <note key="60" pos="36" len="12" vol="157" pan="0"/>
          <note key="58" pos="48" len="12" vol="157" pan="0"/>
          <note key="55" pos="60" len="12" vol="157" pan="0"/>
          <note key="65" pos="72" len="12" vol="182" pan="0"/>
          <note key="0" pos="72" len="12" vol="176" pan="0"/>
          <note key="55" pos="84" len="12" vol="157" pan="0"/>
          <note key="58" pos="96" len="12" vol="157" pan="0"/>
          <note key="1" pos="96" len="12" vol="176" pan="0"/>
          <note key="60" pos="108" len="12" vol="157" pan="0"/>
          <note key="58" pos="120" len="12" vol="157" pan="0"/>
          <note key="55" pos="132" len="12" vol="157" pan="0"/>
          <note key="63" pos="144" len="12" vol="182" pan="0"/>
          <note key="0" pos="144" len="12" vol="176" pan="0"/>
          <note key="55" pos="156" len="12" vol="157" pan="0"/>
          <note key="58" pos="168" len="12" vol="157" pan="0"/>
          <note key="1" pos="168" len="12" vol="176" pan="0"/>
          <note key="60" pos="180" len="12" vol="157" pan="0"/>
          <note key="58" pos="192" len="12" vol="157" pan="0"/>
          <note key="55" pos="204" len="12" vol="157" pan="0"/>
          <note key="67" pos="216" len="12" vol="188" pan="0"/>
          <note key="0" pos="216" len="12" vol="176" pan="0"/>
          <note key="55" pos="228" len="12" vol="157" pan="0"/>
          <note key="58" pos="240" len="12" vol="157" pan="0"/>
          <note key="1" pos="240" len="12" vol="176" pan="0"/>
          <note key="60" pos="252" len="12" vol="157" pan="0"/>
          <note key="58" pos="264" len="12" vol="157" pan="0"/>
          <note key="55" pos="276" len="12" vol="157" pan="0"/>
          <note key="65" pos="288" len="12" vol="188" pan="0"/>
          <note key="0" pos="288" len="12" vol="176" pan="0"/>
          <note key="55" pos="300" len="12" vol="157" pan="0"/>
          <note key="58" pos="312" len="12" vol="157" pan="0"/>
          <note key="1" pos="312" len="12" vol="176" pan="0"/>
          <note key="60" pos="324" len="12" vol="157" pan="0"/>
          <note key="63" pos="336" len="12" vol="182" pan="0"/>
          <note key="60" pos="348" len="12" vol="157" pan="0"/>
          <note key="58" pos="360" len="12" vol="157" pan="0"/>
          <note key="0" pos="360" len="12" vol="176" pan="0"/>
          <note key="55" pos="372" len="12" vol="157" pan="0"/>
          <note key="65" pos="384" len="12" vol="182" pan="0"/>
          <note key="0" pos="384" len="12" vol="176" pan="0"/>
          <note key="51" pos="396" len="12" vol="157" pan="0"/>
          <note key="56" pos="408" len="12" vol="157" pan="0"/>
          <note key="1" pos="408" len="12" vol="176" pan="0"/>
          <note key="60" pos="420" len="12" vol="157" pan="0"/>
          <note key="56" pos="432" len="12" vol="157" pan="0"/>
          <note key="51" pos="444" len="12" vol="157" pan="0"/>
          <note key="72" pos="456" len="12" vol="195" pan="0"/>
          <note key="0" pos="456" len="12" vol="176" pan="0"/>
          <note key="51" pos="468" len="12" vol="157" pan="0"/>
          <note key="56" pos="480" len="12" vol="157" pan="0"/>
          <note key="1" pos="480" len="12" vol="176" pan="0"/>
          <note key="60" pos="492" len="12" vol="157" pan="0"/>
          <note key="56" pos="504" len="12" vol="157" pan="0"/>
          <note key="51" pos="516" len="12" vol="157" pan="0"/>
          <note key="70" pos="528" len="12" vol="188" pan="0"/>
          <note key="0" pos="528" len="12" vol="176" pan="0"/>
          <note key="51" pos="540" len="12" vol="157" pan="0"/>
          <note key="56" pos="552" len="12" vol="157" pan="0"/>
          <note key="1" pos="552" len="12" vol="176" pan="0"/>
          <note key="60" pos="564" len="12" vol="157" pan="0"/>
          <note key="56" pos="576" len="12" vol="157" pan="0"/>
          <note key="51" pos="588" len="12" vol="157" pan="0"/>
          <note key="67" pos="600" len="12" vol="176" pan="0"/>
          <note key="0" pos="600" len="12" vol="176" pan="0"/>
          <note key="51" pos="612" len="12" vol="157" pan="0"/>
          <note key="56" pos="624" len="12" vol="157" pan="0"/>
          <note key="1" pos="624" len="12" vol="176" pan="0"/>
          <note key="60" pos="636" len="12" vol="157" pan="0"/>
          <note key="56" pos="648" len="12" vol="157" pan="0"/>
          <note key="51" pos="660" len="12" vol="157" pan="0"/>
          <note key="70" pos="672" len="12" vol="188" pan="0"/>
          <note key="0" pos="672" len="12" vol="176" pan="0"/>
          <note key="51" pos="684" len="12" vol="157" pan="0"/>
          <note key="56" pos="696" len="12" vol="157" pan="0"/>
          <note key="1" pos="696" len="12" vol="176" pan="0"/>
          <note key="60" pos="708" len="12" vol="157" pan="0"/>
          <note key="72" pos="720" len="12" vol="195" pan="0"/>
          <note key="60" pos="732" len="12" vol="157" pan="0"/>
          <note key="56" pos="744" len="12" vol="157" pan="0"/>
          <note key="0" pos="744" len="12" vol="176" pan="0"/>
          <note key="51" pos="756" len="12" vol="157" pan="0"/>
          <note key="67" pos="768" len="12" vol="195" pan="0"/>
          <note key="0" pos="768" len="12" vol="176" pan="0"/>
          <note key="51" pos="780" len="12" vol="157" pan="0"/>
          <note key="55" pos="792" len="12" vol="157" pan="0"/>
          <note key="1" pos="792" len="12" vol="176" pan="0"/>
          <note key="60" pos="804" len="12" vol="157" pan="0"/>
          <note key="55" pos="816" len="12" vol="157" pan="0"/>
          <note key="51" pos="828" len="12" vol="157" pan="0"/>
          <note key="65" pos="840" len="12" vol="195" pan="0"/>
          <note key="0" pos="840" len="12" vol="176" pan="0"/>
          <note key="51" pos="852" len="12" vol="157" pan="0"/>
          <note key="55" pos="864" len="12" vol="157" pan="0"/>
          <note key="1" pos="864" len="12" vol="176" pan="0"/>
          <note key="60" pos="876" len="12" vol="157" pan="0"/>
          <note key="55" pos="888" len="12" vol="157" pan="0"/>
          <note key="51" pos="900" len="12" vol="157" pan="0"/>
          <note key="63" pos="912" len="12" vol="195" pan="0"/>
          <note key="0" pos="912" len="12" vol="176" pan="0"/>
          <note key="51" pos="924" len="12" vol="157" pan="0"/>
          <note key="55" pos="936" len="12" vol="157" pan="0"/>
          <note key="1" pos="936" len="12" vol="176" pan="0"/>
          <note key="60" pos="948" len="12" vol="157" pan="0"/>
          <note key="55" pos="960" len="12" vol="157" pan="0"/>
          <note key="51" pos="972" len="12" vol="157" pan="0"/>
          <note key="65" pos="984" len="12" vol="195" pan="0"/>
          <note key="0" pos="984" len="12" vol="176" pan="0"/>
          <note key="51" pos="996" len="12" vol="157" pan="0"/>
          <note key="55" pos="1008" len="12" vol="157" pan="0"/>
          <note key="1" pos="1008" len="12" vol="176" pan="0"/>
          <note key="60" pos="1020" len="12" vol="157" pan="0"/>
          <note key="55" pos="1032" len="12" vol="157" pan="0"/>
          <note key="51" pos="1044" len="12" vol="157" pan="0"/>
          <note key="63" pos="1056" len="12" vol="188" pan="0"/>
          <note key="0" pos="1056" len="12" vol="176" pan="0"/>
          <note key="51" pos="1068" len="12" vol="157" pan="0"/>
          <note key="55" pos="1080" len="12" vol="157" pan="0"/>
          <note key="1" pos="1080" len="12" vol="176" pan="0"/>
          <note key="51" pos="1092" len="12" vol="157" pan="0"/>
          <note key="60" pos="1104" len="12" vol="182" pan="0"/>
          <note key="51" pos="1116" len="12" vol="157" pan="0"/>
          <note key="55" pos="1128" len="12" vol="157" pan="0"/>
          <note key="0" pos="1128" len="12" vol="176" pan="0"/>
          <note key="51" pos="1140" len="12" vol="157" pan="0"/>
        </pattern>
        <pattern steps="16" muted="0" type="1" pos="8448" name="">
          <note key="51" pos="0" len="12" vol="170" pan="0"/>
          <note key="1" pos="0" len="12" vol="188" pan="0"/>
          <note key="56" pos="12" len="12" vol="170" pan="0"/>
          <note key="60" pos="24" len="12" vol="170" pan="0"/>
          <note key="63" pos="36" len="12" vol="170" pan="0"/>
          <note key="56" pos="48" len="12" vol="170" pan="0"/>
          <note key="60" pos="60" len="12" vol="170" pan="0"/>
          <note key="63" pos="72" len="12" vol="170" pan="0"/>
          <note key="68" pos="84" len="12" vol="170" pan="0"/>
          <note key="60" pos="96" len="12" vol="170" pan="0"/>
          <note key="0" pos="96" len="12" vol="188" pan="0"/>
          <note key="63" pos="108" len="12" vol="170" pan="0"/>
          <note key="68" pos="120" len="12" vol="170" pan="0"/>
          <note key="72" pos="132" len="12" vol="170" pan="0"/>
          <note key="62" pos="144" len="12" vol="176" pan="0"/>
          <note key="1" pos="144" len="12" vol="188" pan="0"/>
          <note key="65" pos="156" len="12" vol="170" pan="0"/>
          <note key="70" pos="168" len="12" vol="170" pan="0"/>
          <note key="74" pos="180" len="12" vol="170" pan="0"/>
          <note key="65" pos="192" len="12" vol="176" pan="0"/>
          <note key="70" pos="204" len="12" vol="170" pan="0"/>
          <note key="74" pos="216" len="12" vol="170" pan="0"/>
          <note key="77" pos="228" len="12" vol="170" pan="0"/>
          <note key="70" pos="240" len="12" vol="176" pan="0"/>
          <note key="0" pos="240" len="12" vol="188" pan="0"/>
          <note key="74" pos="252" len="12" vol="170" pan="0"/>
          <note key="77" pos="264" len="12" vol="170" pan="0"/>
          <note key="82" pos="276" len="12" vol="176" pan="0"/>
          <note key="86" pos="288" len="12" vol="188" pan="0"/>
          <note key="84" pos="300" len="12" vol="176" pan="0"/>
          <note key="82" pos="312" len="12" vol="176" pan="0"/>
          <note key="80" pos="324" len="12" vol="176" pan="0"/>
          <note key="79" pos="336" len="12" vol="176" pan="0"/>
          <note key="80" pos="348" len="12" vol="176" pan="0"/>
          <note key="82" pos="360" len="12" vol="182" pan="0"/>
          <note key="86" pos="372" len="12" vol="188" pan="0"/>
        </pattern>
        <pattern steps="16" muted="0" type="1" pos="8832" name="">
          <note key="75" pos="0" len="12" vol="182" pan="0"/>
          <note key="0" pos="0" len="12" vol="188" pan="0"/>
          <note key="77" pos="12" len="12" vol="188" pan="0"/>
          <note key="75" pos="24" len="12" vol="182" pan="0"/>
          <note key="1" pos="24" len="12" vol="188" pan="0"/>
          <note key="72" pos="36" len="12" vol="176" pan="0"/>
          <note key="67" pos="48" len="12" vol="176" pan="0"/>
          <note key="72" pos="60" len="12" vol="182" pan="0"/>
          <note key="74" pos="72" len="12" vol="182" pan="0"/>
          <note key="0" pos="72" len="12" vol="188" pan="0"/>
          <note key="75" pos="84" len="12" vol="182" pan="0"/>
          <note key="74" pos="96" len="12" vol="182" pan="0"/>
          <note key="1" pos="96" len="12" vol="188" pan="0"/>
          <note key="70" pos="108" len="12" vol="170" pan="0"/>
          <note key="65" pos="120" len="12" vol="163" pan="0"/>
          <note key="70" pos="132" len="12" vol="170" pan="0"/>
          <note key="72" pos="144" len="12" vol="176" pan="0"/>
          <note key="0" pos="144" len="12" vol="188" pan="0"/>
          <note key="74" pos="156" len="12" vol="182" pan="0"/>
          <note key="72" pos="168" len="12" vol="182" pan="0"/>
          <note key="68" pos="180" len="12" vol="176" pan="0"/>
          <note key="63" pos="192" len="12" vol="170" pan="0"/>
          <note key="68" pos="204" len="12" vol="176" pan="0"/>
          <note key="70" pos="216" len="12" vol="182" pan="0"/>
          <note key="72" pos="228" len="12" vol="182" pan="0"/>
          <note key="70" pos="240" len="12" vol="176" pan="0"/>
          <note key="67" pos="252" len="12" vol="170" pan="0"/>
          <note key="62" pos="264" len="12" vol="163" pan="0"/>
          <note key="67" pos="276" len="12" vol="170" pan="0"/>
          <note key="68" pos="288" len="12" vol="176" pan="0"/>
          <note key="67" pos="300" len="12" vol="176" pan="0"/>
          <note key="65" pos="312" len="12" vol="176" pan="0"/>
          <note key="63" pos="324" len="12" vol="170" pan="0"/>
          <note key="67" pos="336" len="12" vol="182" pan="0"/>
          <note key="65" pos="348" len="12" vol="176" pan="0"/>
          <note key="63" pos="360" len="12" vol="170" pan="0"/>
          <note key="62" pos="372" len="12" vol="170" pan="0"/>
        </pattern>
        <pattern steps="16" muted="0" type="1" pos="21120" name="">
          <note key="79" pos="0" len="12" vol="157" pan="0"/>
          <note key="0" pos="0" len="12" vol="157" pan="0"/>
          <note key="67" pos="12" len="12" vol="132" pan="0"/>
          <note key="1" pos="12" len="12" vol="157" pan="0"/>
          <note key="72" pos="24" len="12" vol="138" pan="0"/>
          <note key="75" pos="36" len="12" vol="157" pan="0"/>
          <note key="0" pos="36" len="12" vol="157" pan="0"/>
          <note key="67" pos="48" len="12" vol="138" pan="0"/>
          <note key="1" pos="48" len="12" vol="157" pan="0"/>
          <note key="72" pos="60" len="12" vol="138" pan="0"/>
          <note key="77" pos="72" len="12" vol="157" pan="0"/>
          <note key="0" pos="72" len="12" vol="157" pan="0"/>
          <note key="67" pos="84" len="12" vol="138" pan="0"/>
          <note key="1" pos="84" len="12" vol="157" pan="0"/>
          <note key="72" pos="96" len="12" vol="138" pan="0"/>
          <note key="74" pos="108" len="12" vol="157" pan="0"/>
          <note key="0" pos="108" len="12" vol="157" pan="0"/>
          <note key="67" pos="120" len="12" vol="138" pan="0"/>
          <note key="1" pos="120" len="12" vol="157" pan="0"/>
          <note key="72" pos="132" len="12" vol="138" pan="0"/>
          <note key="75" pos="144" len="12" vol="157" pan="0"/>
          <note key="0" pos="144" len="12" vol="157" pan="0"/>
          <note key="74" pos="156" len="12" vol="157" pan="0"/>
          <note key="1" pos="156" len="12" vol="157" pan="0"/>
          <note key="72" pos="168" len="12" vol="157" pan="0"/>
          <note key="67" pos="180" len="12" vol="157" pan="0"/>
          <note key="79" pos="192" len="12" vol="157" pan="0"/>
          <note key="0" pos="192" len="12" vol="157" pan="0"/>
          <note key="67" pos="204" len="12" vol="132" pan="0"/>
          <note key="1" pos="204" len="12" vol="157" pan="0"/>
          <note key="72" pos="216" len="12" vol="138" pan="0"/>
          <note key="75" pos="228" len="12" vol="157" pan="0"/>
          <note key="0" pos="228" len="12" vol="157" pan="0"/>
          <note key="67" pos="240" len="12" vol="138" pan="0"/>
          <note key="1" pos="240" len="12" vol="157" pan="0"/>
          <note key="72" pos="252" len="12" vol="138" pan="0"/>
          <note key="77" pos="264" len="12" vol="157" pan="0"/>
          <note key="0" pos="264" len="12" vol="157" pan="0"/>
          <note key="67" pos="276" len="12" vol="138" pan="0"/>
          <note key="1" pos="276" len="12" vol="157" pan="0"/>
          <note key="72" pos="288" len="12" vol="138" pan="0"/>
          <note key="74" pos="300" len="12" vol="157" pan="0"/>
          <note key="0" pos="300" len="12" vol="157" pan="0"/>
          <note key="67" pos="312" len="12" vol="138" pan="0"/>
          <note key="1" pos="312" len="12" vol="157" pan="0"/>
          <note key="72" pos="324" len="12" vol="138" pan="0"/>
          <note key="75" pos="336" len="12" vol="157" pan="0"/>
          <note key="0" pos="336" len="12" vol="157" pan="0"/>
          <note key="74" pos="348" len="12" vol="157" pan="0"/>
          <note key="75" pos="360" len="12" vol="157" pan="0"/>
          <note key="77" pos="372" len="12" vol="157" pan="0"/>
        </pattern>
        <pattern steps="16" muted="0" type="1" pos="21888" name="">
          <note key="60" pos="0" len="12" vol="170" pan="0"/>
          <note key="1" pos="0" len="12" vol="157" pan="0"/>
          <note key="48" pos="12" len="12" vol="151" pan="0"/>
          <note key="55" pos="24" len="12" vol="151" pan="0"/>
          <note key="62" pos="36" len="12" vol="170" pan="0"/>
          <note key="48" pos="48" len="12" vol="151" pan="0"/>
          <note key="55" pos="60" len="12" vol="151" pan="0"/>
          <note key="60" pos="72" len="12" vol="170" pan="0"/>
          <note key="48" pos="84" len="12" vol="151" pan="0"/>
          <note key="55" pos="96" len="12" vol="151" pan="0"/>
          <note key="63" pos="108" len="12" vol="170" pan="0"/>
          <note key="48" pos="120" len="12" vol="151" pan="0"/>
          <note key="55" pos="132" len="12" vol="151" pan="0"/>
          <note key="62" pos="144" len="12" vol="170" pan="0"/>
          <note key="63" pos="156" len="12" vol="170" pan="0"/>
          <note key="62" pos="168" len="12" vol="170" pan="0"/>
          <note key="58" pos="180" len="12" vol="170" pan="0"/>
          <note key="60" pos="192" len="12" vol="170" pan="0"/>
          <note key="48" pos="204" len="12" vol="151" pan="0"/>
          <note key="55" pos="216" len="12" vol="151" pan="0"/>
          <note key="58" pos="228" len="12" vol="170" pan="0"/>
          <note key="48" pos="240" len="12" vol="151" pan="0"/>
          <note key="53" pos="252" len="12" vol="151" pan="0"/>
          <note key="55" pos="264" len="12" vol="170" pan="0"/>
          <note key="51" pos="276" len="12" vol="151" pan="0"/>
          <note key="53" pos="288" len="12" vol="157" pan="0"/>
          <note key="51" pos="300" len="12" vol="157" pan="0"/>
          <note key="53" pos="312" len="12" vol="163" pan="0"/>
          <note key="55" pos="324" len="12" vol="163" pan="0"/>
          <note key="63" pos="336" len="12" vol="151" pan="0"/>
          <note key="62" pos="348" len="12" vol="151" pan="0"/>
          <note key="63" pos="360" len="12" vol="151" pan="0"/>
          <note key="65" pos="372" len="12" vol="151" pan="0"/>
        </pattern>
        <pattern steps="16" muted="0" type="1" pos="22656" name="">
          <note key="75" pos="0" len="12" vol="170" pan="0"/>
          <note key="1" pos="0" len="12" vol="151" pan="0"/>
          <note key="63" pos="12" len="12" vol="144" pan="0"/>
          <note key="67" pos="24" len="12" vol="151" pan="0"/>
          <note key="72" pos="36" len="12" vol="170" pan="0"/>
          <note key="63" pos="48" len="12" vol="151" pan="0"/>
          <note key="67" pos="60" len="12" vol="151" pan="0"/>
          <note key="74" pos="72" len="12" vol="170" pan="0"/>
          <note key="63" pos="84" len="12" vol="151" pan="0"/>
          <note key="67" pos="96" len="12" vol="151" pan="0"/>
          <note key="70" pos="108" len="12" vol="170" pan="0"/>
          <note key="63" pos="120" len="12" vol="151" pan="0"/>
          <note key="67" pos="132" len="12" vol="157" pan="0"/>
          <note key="72" pos="144" len="12" vol="170" pan="0"/>
          <note key="74" pos="156" len="12" vol="170" pan="0"/>
          <note key="75" pos="168" len="12" vol="170" pan="0"/>
          <note key="77" pos="180" len="12" vol="170" pan="0"/>
          <note key="79" pos="192" len="12" vol="170" pan="0"/>
          <note key="0" pos="192" len="48" vol="100" pan="0"/>
          <note key="63" pos="204" len="12" vol="144" pan="0"/>
          <note key="67" pos="216" len="12" vol="151" pan="0"/>
          <note key="75" pos="228" len="12" vol="170" pan="0"/>
          <note key="63" pos="240" len="12" vol="151" pan="0"/>
          <note key="1" pos="240" len="48" vol="100" pan="0"/>
          <note key="67" pos="252" len="12" vol="151" pan="0"/>
          <note key="77" pos="264" len="12" vol="170" pan="0"/>
          <note key="63" pos="276" len="12" vol="151" pan="0"/>
          <note key="67" pos="288" len="12" vol="151" pan="0"/>
          <note key="74" pos="300" len="12" vol="170" pan="0"/>
          <note key="63" pos="312" len="12" vol="151" pan="0"/>
          <note key="67" pos="324" len="12" vol="151" pan="0"/>
          <note key="75" pos="336" len="12" vol="170" pan="0"/>
          <note key="74" pos="348" len="12" vol="170" pan="0"/>
          <note key="72" pos="360" len="12" vol="170" pan="0"/>
          <note key="67" pos="372" len="12" vol="170" pan="0"/>
        </pattern>
      </track>
      <track solo="0" muted="0" type="1" name="intro1">
        <bbtrack>
          <trackcontainer y="86" minimized="0" maximized="0" width="1042" height="378" x="150" type="bbtrackcontainer" visible="0">
            <track solo="0" muted="0" type="0" name="kick.wav">
              <instrumenttrack basenote="57" pitchrange="1" pitch="0" usemasterpitch="1" vol="100" pan="0" fxch="1">
                <instrument name="audiofileprocessor">
                  <audiofileprocessor amp="100" interp="0" reversed="0" eframe="1" stutter="0" looped="0" sframe="0" lframe="0" src="/home/pass/samples/sillydrums/kick.wav"/>
                </instrument>
                <eldata fwet="0" ftype="0" fcut="14000" fres="0.5">
                  <elvol ctlenvamt="0" lamt="0" amt="1" latt="0" lspd_syncmode="0" dec="2" lpdel="0" att="0" lspd_denominator="4" hold="2" lspd="0.1" lspd_numerator="4" sustain="1" lshp="0" pdel="0" x100="0" rel="2" userwavefile=""/>
                  <elcut ctlenvamt="0" lamt="0" amt="0" latt="0" lspd_syncmode="0" dec="0.5" lpdel="0" att="0" lspd_denominator="4" hold="0.5" lspd="0.1" lspd_numerator="4" sustain="0.5" lshp="0" pdel="0" x100="0" rel="0.1" userwavefile=""/>
                  <elres ctlenvamt="0" lamt="0" amt="0" latt="0" lspd_syncmode="0" dec="0.5" lpdel="0" att="0" lspd_denominator="4" hold="0.5" lspd="0.1" lspd_numerator="4" sustain="0.5" lshp="0" pdel="0" x100="0" rel="0.1" userwavefile=""/>
                </eldata>
                <chordcreator chordrange="1" chord-enabled="0" chord="0"/>
                <arpeggiator arptime_syncmode="0" arpdir="0" arptime_numerator="4" arpmode="0" arp="0" arpmiss="0" arptime="200" arpgate="100" arp-enabled="0" arpskip="0" arptime_denominator="4" arprange="1" arpcycle="0"/>
                <midiport writable="0" fixedinputvelocity="-1" outputchannel="1" fixedoutputvelocity="-1" outputcontroller="0" basevelocity="63" fixedoutputnote="-1" inputchannel="0" inputcontroller="0" outputprogram="1" readable="0"/>
                <fxchain numofeffects="0" enabled="0"/>
              </instrumenttrack>
              <pattern steps="64" muted="0" type="0" pos="0" name="kick.wav">
                <note key="57" pos="0" len="-192" vol="100" pan="0"/>
                <note key="57" pos="192" len="-192" vol="100" pan="0"/>
                <note key="57" pos="384" len="-192" vol="100" pan="0"/>
                <note key="57" pos="576" len="-192" vol="100" pan="0"/>
                <note key="57" pos="720" len="-192" vol="100" pan="0"/>
                <note key="57" pos="732" len="-192" vol="100" pan="0"/>
                <note key="57" pos="744" len="-192" vol="100" pan="0"/>
                <note key="57" pos="756" len="-192" vol="100" pan="0"/>
              </pattern>
              <pattern steps="32" muted="0" type="0" pos="192" name="kick.wav">
                <note key="57" pos="0" len="-192" vol="100" pan="0"/>
                <note key="57" pos="12" len="-192" vol="100" pan="0"/>
                <note key="57" pos="24" len="-192" vol="100" pan="0"/>
                <note key="57" pos="36" len="-192" vol="100" pan="0"/>
                <note key="57" pos="48" len="-192" vol="100" pan="0"/>
                <note key="57" pos="60" len="-192" vol="100" pan="0"/>
                <note key="57" pos="72" len="-192" vol="100" pan="0"/>
                <note key="57" pos="84" len="-192" vol="100" pan="0"/>
                <note key="57" pos="96" len="-192" vol="100" pan="0"/>
                <note key="57" pos="108" len="-192" vol="100" pan="0"/>
                <note key="57" pos="120" len="-192" vol="100" pan="0"/>
                <note key="57" pos="132" len="-192" vol="100" pan="0"/>
                <note key="57" pos="144" len="-192" vol="100" pan="0"/>
                <note key="57" pos="156" len="-192" vol="100" pan="0"/>
                <note key="57" pos="168" len="-192" vol="100" pan="0"/>
                <note key="57" pos="180" len="-192" vol="100" pan="0"/>
                <note key="57" pos="192" len="-192" vol="100" pan="0"/>
                <note key="57" pos="204" len="-192" vol="100" pan="0"/>
                <note key="57" pos="216" len="-192" vol="100" pan="0"/>
                <note key="57" pos="228" len="-192" vol="100" pan="0"/>
                <note key="57" pos="240" len="-192" vol="100" pan="0"/>
                <note key="57" pos="252" len="-192" vol="100" pan="0"/>
                <note key="57" pos="264" len="-192" vol="100" pan="0"/>
                <note key="57" pos="276" len="-192" vol="100" pan="0"/>
                <note key="57" pos="288" len="-192" vol="100" pan="0"/>
                <note key="57" pos="300" len="-192" vol="100" pan="0"/>
                <note key="57" pos="312" len="-192" vol="100" pan="0"/>
                <note key="57" pos="324" len="-192" vol="100" pan="0"/>
                <note key="57" pos="336" len="-192" vol="100" pan="0"/>
                <note key="57" pos="348" len="-192" vol="100" pan="0"/>
                <note key="57" pos="360" len="-192" vol="100" pan="0"/>
                <note key="57" pos="372" len="-192" vol="100" pan="0"/>
              </pattern>
              <pattern steps="32" muted="0" type="0" pos="384" name="kick.wav">
                <note key="57" pos="0" len="-192" vol="100" pan="0"/>
                <note key="57" pos="48" len="-192" vol="100" pan="0"/>
                <note key="57" pos="96" len="-192" vol="100" pan="0"/>
                <note key="57" pos="144" len="-192" vol="100" pan="0"/>
                <note key="57" pos="168" len="-192" vol="100" pan="0"/>
                <note key="57" pos="192" len="-192" vol="100" pan="0"/>
                <note key="57" pos="240" len="-192" vol="100" pan="0"/>
                <note key="57" pos="288" len="-192" vol="100" pan="0"/>
              </pattern>
              <pattern steps="64" muted="0" type="0" pos="576" name="kick.wav">
                <note key="57" pos="0" len="-192" vol="100" pan="0"/>
                <note key="57" pos="12" len="-192" vol="100" pan="0"/>
                <note key="57" pos="24" len="-192" vol="100" pan="0"/>
                <note key="57" pos="36" len="-192" vol="100" pan="0"/>
                <note key="57" pos="48" len="-192" vol="100" pan="0"/>
                <note key="57" pos="60" len="-192" vol="100" pan="0"/>
                <note key="57" pos="72" len="-192" vol="100" pan="0"/>
                <note key="57" pos="84" len="-192" vol="100" pan="0"/>
                <note key="57" pos="96" len="-192" vol="100" pan="0"/>
                <note key="57" pos="108" len="-192" vol="100" pan="0"/>
                <note key="57" pos="120" len="-192" vol="100" pan="0"/>
                <note key="57" pos="132" len="-192" vol="100" pan="0"/>
                <note key="57" pos="144" len="-192" vol="100" pan="0"/>
                <note key="57" pos="156" len="-192" vol="100" pan="0"/>
                <note key="57" pos="168" len="-192" vol="100" pan="0"/>
                <note key="57" pos="180" len="-192" vol="100" pan="0"/>
                <note key="57" pos="192" len="-192" vol="100" pan="0"/>
                <note key="57" pos="204" len="-192" vol="100" pan="0"/>
                <note key="57" pos="216" len="-192" vol="100" pan="0"/>
                <note key="57" pos="228" len="-192" vol="100" pan="0"/>
                <note key="57" pos="240" len="-192" vol="100" pan="0"/>
                <note key="57" pos="252" len="-192" vol="100" pan="0"/>
                <note key="57" pos="264" len="-192" vol="100" pan="0"/>
                <note key="57" pos="276" len="-192" vol="100" pan="0"/>
                <note key="57" pos="288" len="-192" vol="100" pan="0"/>
                <note key="57" pos="300" len="-192" vol="100" pan="0"/>
                <note key="57" pos="312" len="-192" vol="100" pan="0"/>
                <note key="57" pos="324" len="-192" vol="100" pan="0"/>
                <note key="57" pos="336" len="-192" vol="100" pan="0"/>
                <note key="57" pos="348" len="-192" vol="100" pan="0"/>
                <note key="57" pos="360" len="-192" vol="100" pan="0"/>
                <note key="57" pos="372" len="-192" vol="100" pan="0"/>
                <note key="57" pos="384" len="-192" vol="100" pan="0"/>
                <note key="57" pos="396" len="-192" vol="100" pan="0"/>
                <note key="57" pos="408" len="-192" vol="100" pan="0"/>
                <note key="57" pos="420" len="-192" vol="100" pan="0"/>
                <note key="57" pos="432" len="-192" vol="100" pan="0"/>
                <note key="57" pos="444" len="-192" vol="100" pan="0"/>
                <note key="57" pos="456" len="-192" vol="100" pan="0"/>
                <note key="57" pos="468" len="-192" vol="100" pan="0"/>
                <note key="57" pos="480" len="-192" vol="100" pan="0"/>
                <note key="57" pos="492" len="-192" vol="100" pan="0"/>
                <note key="57" pos="504" len="-192" vol="100" pan="0"/>
                <note key="57" pos="516" len="-192" vol="100" pan="0"/>
                <note key="57" pos="528" len="-192" vol="100" pan="0"/>
                <note key="57" pos="540" len="-192" vol="100" pan="0"/>
                <note key="57" pos="552" len="-192" vol="100" pan="0"/>
                <note key="57" pos="564" len="-192" vol="100" pan="0"/>
                <note key="57" pos="576" len="-192" vol="100" pan="0"/>
                <note key="57" pos="588" len="-192" vol="100" pan="0"/>
                <note key="57" pos="600" len="-192" vol="100" pan="0"/>
                <note key="57" pos="612" len="-192" vol="100" pan="0"/>
                <note key="57" pos="624" len="-192" vol="100" pan="0"/>
                <note key="57" pos="636" len="-192" vol="100" pan="0"/>
                <note key="57" pos="648" len="-192" vol="100" pan="0"/>
                <note key="57" pos="660" len="-192" vol="100" pan="0"/>
                <note key="57" pos="672" len="-192" vol="100" pan="0"/>
                <note key="57" pos="684" len="-192" vol="100" pan="0"/>
                <note key="57" pos="696" len="-192" vol="100" pan="0"/>
                <note key="57" pos="708" len="-192" vol="100" pan="0"/>
                <note key="57" pos="720" len="-192" vol="100" pan="0"/>
                <note key="57" pos="732" len="-192" vol="100" pan="0"/>
                <note key="57" pos="744" len="-192" vol="100" pan="0"/>
                <note key="57" pos="756" len="-192" vol="100" pan="0"/>
              </pattern>
              <pattern steps="16" muted="0" type="0" pos="768" name="kick.wav">
                <note key="57" pos="0" len="-192" vol="100" pan="0"/>
                <note key="57" pos="12" len="-192" vol="100" pan="0"/>
                <note key="57" pos="24" len="-192" vol="100" pan="0"/>
                <note key="57" pos="36" len="-192" vol="100" pan="0"/>
                <note key="57" pos="48" len="-192" vol="100" pan="0"/>
                <note key="57" pos="60" len="-192" vol="100" pan="0"/>
                <note key="57" pos="72" len="-192" vol="100" pan="0"/>
                <note key="57" pos="84" len="-192" vol="100" pan="0"/>
                <note key="57" pos="96" len="-192" vol="100" pan="0"/>
                <note key="57" pos="108" len="-192" vol="100" pan="0"/>
                <note key="57" pos="120" len="-192" vol="100" pan="0"/>
                <note key="57" pos="132" len="-192" vol="100" pan="0"/>
                <note key="57" pos="144" len="-192" vol="100" pan="0"/>
                <note key="57" pos="156" len="-192" vol="100" pan="0"/>
                <note key="57" pos="168" len="-192" vol="100" pan="0"/>
                <note key="57" pos="180" len="-192" vol="100" pan="0"/>
              </pattern>
              <pattern steps="64" muted="0" type="0" pos="960" name="kick.wav">
                <note key="57" pos="0" len="-192" vol="100" pan="0"/>
                <note key="57" pos="48" len="-192" vol="100" pan="0"/>
                <note key="57" pos="96" len="-192" vol="100" pan="0"/>
                <note key="57" pos="144" len="-192" vol="100" pan="0"/>
                <note key="57" pos="156" len="-192" vol="100" pan="0"/>
                <note key="57" pos="168" len="-192" vol="100" pan="0"/>
                <note key="57" pos="180" len="-192" vol="100" pan="0"/>
                <note key="57" pos="192" len="-192" vol="100" pan="0"/>
                <note key="57" pos="240" len="-192" vol="100" pan="0"/>
                <note key="57" pos="288" len="-192" vol="100" pan="0"/>
                <note key="57" pos="336" len="-192" vol="100" pan="0"/>
                <note key="57" pos="348" len="-192" vol="100" pan="0"/>
                <note key="57" pos="360" len="-192" vol="100" pan="0"/>
                <note key="57" pos="372" len="-192" vol="100" pan="0"/>
                <note key="57" pos="384" len="-192" vol="100" pan="0"/>
                <note key="57" pos="396" len="-192" vol="100" pan="0"/>
                <note key="57" pos="408" len="-192" vol="100" pan="0"/>
                <note key="57" pos="420" len="-192" vol="100" pan="0"/>
                <note key="57" pos="432" len="-192" vol="100" pan="0"/>
                <note key="57" pos="444" len="-192" vol="100" pan="0"/>
                <note key="57" pos="456" len="-192" vol="100" pan="0"/>
                <note key="57" pos="468" len="-192" vol="100" pan="0"/>
                <note key="57" pos="480" len="-192" vol="100" pan="0"/>
                <note key="57" pos="492" len="-192" vol="100" pan="0"/>
                <note key="57" pos="504" len="-192" vol="100" pan="0"/>
                <note key="57" pos="516" len="-192" vol="100" pan="0"/>
                <note key="57" pos="528" len="-192" vol="100" pan="0"/>
                <note key="57" pos="540" len="-192" vol="100" pan="0"/>
                <note key="57" pos="552" len="-192" vol="100" pan="0"/>
                <note key="57" pos="564" len="-192" vol="100" pan="0"/>
                <note key="57" pos="576" len="-192" vol="100" pan="0"/>
                <note key="57" pos="588" len="-192" vol="100" pan="0"/>
                <note key="57" pos="600" len="-192" vol="100" pan="0"/>
                <note key="57" pos="612" len="-192" vol="100" pan="0"/>
                <note key="57" pos="624" len="-192" vol="100" pan="0"/>
                <note key="57" pos="636" len="-192" vol="100" pan="0"/>
                <note key="57" pos="648" len="-192" vol="100" pan="0"/>
                <note key="57" pos="660" len="-192" vol="100" pan="0"/>
                <note key="57" pos="672" len="-192" vol="100" pan="0"/>
                <note key="57" pos="684" len="-192" vol="100" pan="0"/>
                <note key="57" pos="696" len="-192" vol="100" pan="0"/>
                <note key="57" pos="708" len="-192" vol="100" pan="0"/>
                <note key="57" pos="720" len="-192" vol="100" pan="0"/>
                <note key="57" pos="732" len="-192" vol="100" pan="0"/>
                <note key="57" pos="744" len="-192" vol="100" pan="0"/>
                <note key="57" pos="756" len="-192" vol="100" pan="0"/>
              </pattern>
              <pattern steps="64" muted="0" type="0" pos="1152" name="kick.wav">
                <note key="57" pos="0" len="-192" vol="100" pan="0"/>
                <note key="57" pos="48" len="-192" vol="100" pan="0"/>
                <note key="57" pos="96" len="-192" vol="100" pan="0"/>
                <note key="57" pos="144" len="-192" vol="100" pan="0"/>
                <note key="57" pos="156" len="-192" vol="100" pan="0"/>
                <note key="57" pos="168" len="-192" vol="100" pan="0"/>
                <note key="57" pos="180" len="-192" vol="100" pan="0"/>
                <note key="57" pos="192" len="-192" vol="100" pan="0"/>
                <note key="57" pos="240" len="-192" vol="100" pan="0"/>
                <note key="57" pos="288" len="-192" vol="100" pan="0"/>
                <note key="57" pos="336" len="-192" vol="100" pan="0"/>
                <note key="57" pos="348" len="-192" vol="100" pan="0"/>
                <note key="57" pos="360" len="-192" vol="100" pan="0"/>
                <note key="57" pos="372" len="-192" vol="100" pan="0"/>
                <note key="57" pos="384" len="-192" vol="100" pan="0"/>
                <note key="57" pos="396" len="-192" vol="100" pan="0"/>
                <note key="57" pos="408" len="-192" vol="100" pan="0"/>
                <note key="57" pos="420" len="-192" vol="100" pan="0"/>
                <note key="57" pos="432" len="-192" vol="100" pan="0"/>
                <note key="57" pos="444" len="-192" vol="100" pan="0"/>
                <note key="57" pos="456" len="-192" vol="100" pan="0"/>
                <note key="57" pos="468" len="-192" vol="100" pan="0"/>
                <note key="57" pos="480" len="-192" vol="100" pan="0"/>
                <note key="57" pos="492" len="-192" vol="100" pan="0"/>
                <note key="57" pos="504" len="-192" vol="100" pan="0"/>
                <note key="57" pos="516" len="-192" vol="100" pan="0"/>
                <note key="57" pos="528" len="-192" vol="100" pan="0"/>
                <note key="57" pos="540" len="-192" vol="100" pan="0"/>
                <note key="57" pos="552" len="-192" vol="100" pan="0"/>
                <note key="57" pos="564" len="-192" vol="100" pan="0"/>
                <note key="57" pos="576" len="-192" vol="100" pan="0"/>
                <note key="57" pos="588" len="-192" vol="100" pan="0"/>
                <note key="57" pos="600" len="-192" vol="100" pan="0"/>
                <note key="57" pos="612" len="-192" vol="100" pan="0"/>
                <note key="57" pos="624" len="-192" vol="100" pan="0"/>
                <note key="57" pos="636" len="-192" vol="100" pan="0"/>
                <note key="57" pos="648" len="-192" vol="100" pan="0"/>
                <note key="57" pos="660" len="-192" vol="100" pan="0"/>
                <note key="57" pos="672" len="-192" vol="100" pan="0"/>
                <note key="57" pos="684" len="-192" vol="100" pan="0"/>
                <note key="57" pos="696" len="-192" vol="100" pan="0"/>
                <note key="57" pos="708" len="-192" vol="100" pan="0"/>
                <note key="57" pos="720" len="-192" vol="100" pan="0"/>
                <note key="57" pos="732" len="-192" vol="100" pan="0"/>
                <note key="57" pos="744" len="-192" vol="100" pan="0"/>
                <note key="57" pos="756" len="-192" vol="100" pan="0"/>
              </pattern>
              <pattern steps="64" muted="0" type="0" pos="1344" name="kick.wav">
                <note key="57" pos="0" len="-192" vol="100" pan="0"/>
                <note key="57" pos="48" len="-192" vol="100" pan="0"/>
                <note key="57" pos="96" len="-192" vol="100" pan="0"/>
                <note key="57" pos="144" len="-192" vol="100" pan="0"/>
                <note key="57" pos="156" len="-192" vol="100" pan="0"/>
                <note key="57" pos="168" len="-192" vol="100" pan="0"/>
                <note key="57" pos="180" len="-192" vol="100" pan="0"/>
                <note key="57" pos="192" len="-192" vol="100" pan="0"/>
                <note key="57" pos="240" len="-192" vol="100" pan="0"/>
                <note key="57" pos="288" len="-192" vol="100" pan="0"/>
                <note key="57" pos="336" len="-192" vol="100" pan="0"/>
                <note key="57" pos="348" len="-192" vol="100" pan="0"/>
                <note key="57" pos="360" len="-192" vol="100" pan="0"/>
                <note key="57" pos="372" len="-192" vol="100" pan="0"/>
                <note key="57" pos="384" len="-192" vol="100" pan="0"/>
                <note key="57" pos="432" len="-192" vol="100" pan="0"/>
                <note key="57" pos="480" len="-192" vol="100" pan="0"/>
                <note key="57" pos="528" len="-192" vol="100" pan="0"/>
                <note key="57" pos="540" len="-192" vol="100" pan="0"/>
                <note key="57" pos="552" len="-192" vol="100" pan="0"/>
                <note key="57" pos="564" len="-192" vol="100" pan="0"/>
                <note key="57" pos="576" len="-192" vol="100" pan="0"/>
                <note key="57" pos="624" len="-192" vol="100" pan="0"/>
                <note key="57" pos="672" len="-192" vol="100" pan="0"/>
                <note key="57" pos="720" len="-192" vol="100" pan="0"/>
                <note key="57" pos="732" len="-192" vol="100" pan="0"/>
                <note key="57" pos="744" len="-192" vol="100" pan="0"/>
                <note key="57" pos="756" len="-192" vol="100" pan="0"/>
              </pattern>
              <pattern steps="32" muted="0" type="0" pos="1536" name="kick.wav">
                <note key="57" pos="0" len="-192" vol="100" pan="0"/>
              </pattern>
              <pattern steps="48" muted="0" type="0" pos="1728" name="kick.wav">
                <note key="57" pos="0" len="-192" vol="100" pan="0"/>
                <note key="57" pos="12" len="-192" vol="100" pan="0"/>
                <note key="57" pos="24" len="-192" vol="100" pan="0"/>
                <note key="57" pos="36" len="-192" vol="100" pan="0"/>
                <note key="57" pos="48" len="-192" vol="100" pan="0"/>
                <note key="57" pos="60" len="-192" vol="100" pan="0"/>
                <note key="57" pos="72" len="-192" vol="100" pan="0"/>
                <note key="57" pos="84" len="-192" vol="100" pan="0"/>
                <note key="57" pos="96" len="-192" vol="100" pan="0"/>
                <note key="57" pos="108" len="-192" vol="100" pan="0"/>
                <note key="57" pos="120" len="-192" vol="100" pan="0"/>
                <note key="57" pos="132" len="-192" vol="100" pan="0"/>
                <note key="57" pos="144" len="-192" vol="100" pan="0"/>
                <note key="57" pos="156" len="-192" vol="100" pan="0"/>
                <note key="57" pos="168" len="-192" vol="100" pan="0"/>
                <note key="57" pos="180" len="-192" vol="100" pan="0"/>
                <note key="57" pos="204" len="-192" vol="100" pan="0"/>
                <note key="57" pos="228" len="-192" vol="100" pan="0"/>
                <note key="57" pos="252" len="-192" vol="100" pan="0"/>
                <note key="57" pos="276" len="-192" vol="100" pan="0"/>
                <note key="57" pos="288" len="-192" vol="100" pan="0"/>
                <note key="57" pos="300" len="-192" vol="100" pan="0"/>
                <note key="57" pos="312" len="-192" vol="100" pan="0"/>
                <note key="57" pos="324" len="-192" vol="100" pan="0"/>
                <note key="57" pos="336" len="-192" vol="100" pan="0"/>
                <note key="57" pos="348" len="-192" vol="100" pan="0"/>
                <note key="57" pos="360" len="-192" vol="100" pan="0"/>
                <note key="57" pos="372" len="-192" vol="100" pan="0"/>
                <note key="57" pos="384" len="-192" vol="100" pan="0"/>
              </pattern>
              <pattern steps="32" muted="0" type="0" pos="1920" name="kick.wav">
                <note key="57" pos="0" len="-192" vol="100" pan="0"/>
                <note key="57" pos="144" len="-192" vol="100" pan="0"/>
                <note key="57" pos="288" len="-192" vol="100" pan="0"/>
                <note key="57" pos="336" len="-192" vol="100" pan="0"/>
              </pattern>
              <pattern steps="64" muted="0" type="0" pos="2112" name="kick.wav">
                <note key="57" pos="0" len="-192" vol="100" pan="0"/>
                <note key="57" pos="36" len="-192" vol="100" pan="0"/>
                <note key="57" pos="72" len="-192" vol="100" pan="0"/>
                <note key="57" pos="108" len="-192" vol="100" pan="0"/>
                <note key="57" pos="144" len="-192" vol="100" pan="0"/>
                <note key="57" pos="180" len="-192" vol="100" pan="0"/>
                <note key="57" pos="216" len="-192" vol="100" pan="0"/>
                <note key="57" pos="252" len="-192" vol="100" pan="0"/>
                <note key="57" pos="288" len="-192" vol="100" pan="0"/>
                <note key="57" pos="312" len="-192" vol="100" pan="0"/>
                <note key="57" pos="336" len="-192" vol="100" pan="0"/>
                <note key="57" pos="348" len="-192" vol="100" pan="0"/>
                <note key="57" pos="360" len="-192" vol="100" pan="0"/>
                <note key="57" pos="372" len="-192" vol="100" pan="0"/>
                <note key="57" pos="384" len="-192" vol="100" pan="0"/>
                <note key="57" pos="420" len="-192" vol="100" pan="0"/>
                <note key="57" pos="456" len="-192" vol="100" pan="0"/>
                <note key="57" pos="492" len="-192" vol="100" pan="0"/>
                <note key="57" pos="528" len="-192" vol="100" pan="0"/>
                <note key="57" pos="564" len="-192" vol="100" pan="0"/>
                <note key="57" pos="600" len="-192" vol="100" pan="0"/>
                <note key="57" pos="636" len="-192" vol="100" pan="0"/>
                <note key="57" pos="672" len="-192" vol="100" pan="0"/>
                <note key="57" pos="696" len="-192" vol="100" pan="0"/>
                <note key="57" pos="720" len="-192" vol="100" pan="0"/>
                <note key="57" pos="732" len="-192" vol="100" pan="0"/>
                <note key="57" pos="744" len="-192" vol="100" pan="0"/>
                <note key="57" pos="756" len="-192" vol="100" pan="0"/>
              </pattern>
              <pattern steps="64" muted="0" type="0" pos="2304" name="kick.wav">
                <note key="57" pos="0" len="-192" vol="100" pan="0"/>
                <note key="57" pos="36" len="-192" vol="100" pan="0"/>
                <note key="57" pos="48" len="-192" vol="100" pan="0"/>
                <note key="57" pos="72" len="-192" vol="100" pan="0"/>
                <note key="57" pos="96" len="-192" vol="100" pan="0"/>
                <note key="57" pos="108" len="-192" vol="100" pan="0"/>
                <note key="57" pos="144" len="-192" vol="100" pan="0"/>
                <note key="57" pos="180" len="-192" vol="100" pan="0"/>
                <note key="57" pos="192" len="-192" vol="100" pan="0"/>
                <note key="57" pos="216" len="-192" vol="100" pan="0"/>
                <note key="57" pos="240" len="-192" vol="100" pan="0"/>
                <note key="57" pos="252" len="-192" vol="100" pan="0"/>
                <note key="57" pos="288" len="-192" vol="100" pan="0"/>
                <note key="57" pos="312" len="-192" vol="100" pan="0"/>
                <note key="57" pos="336" len="-192" vol="100" pan="0"/>
                <note key="57" pos="348" len="-192" vol="100" pan="0"/>
                <note key="57" pos="360" len="-192" vol="100" pan="0"/>
                <note key="57" pos="372" len="-192" vol="100" pan="0"/>
                <note key="57" pos="384" len="-192" vol="100" pan="0"/>
                <note key="57" pos="420" len="-192" vol="100" pan="0"/>
                <note key="57" pos="432" len="-192" vol="100" pan="0"/>
                <note key="57" pos="456" len="-192" vol="100" pan="0"/>
                <note key="57" pos="480" len="-192" vol="100" pan="0"/>
                <note key="57" pos="492" len="-192" vol="100" pan="0"/>
                <note key="57" pos="528" len="-192" vol="100" pan="0"/>
                <note key="57" pos="564" len="-192" vol="100" pan="0"/>
                <note key="57" pos="576" len="-192" vol="100" pan="0"/>
                <note key="57" pos="600" len="-192" vol="100" pan="0"/>
                <note key="57" pos="624" len="-192" vol="100" pan="0"/>
                <note key="57" pos="636" len="-192" vol="100" pan="0"/>
                <note key="57" pos="672" len="-192" vol="100" pan="0"/>
                <note key="57" pos="696" len="-192" vol="100" pan="0"/>
                <note key="57" pos="720" len="-192" vol="100" pan="0"/>
                <note key="57" pos="732" len="-192" vol="100" pan="0"/>
                <note key="57" pos="744" len="-192" vol="100" pan="0"/>
                <note key="57" pos="756" len="-192" vol="100" pan="0"/>
              </pattern>
              <pattern steps="64" muted="0" type="0" pos="2496" name="kick.wav">
                <note key="57" pos="0" len="-192" vol="100" pan="0"/>
                <note key="57" pos="12" len="-192" vol="100" pan="0"/>
                <note key="57" pos="24" len="-192" vol="100" pan="0"/>
                <note key="57" pos="36" len="-192" vol="100" pan="0"/>
                <note key="57" pos="48" len="-192" vol="100" pan="0"/>
                <note key="57" pos="60" len="-192" vol="100" pan="0"/>
                <note key="57" pos="72" len="-192" vol="100" pan="0"/>
                <note key="57" pos="84" len="-192" vol="100" pan="0"/>
                <note key="57" pos="96" len="-192" vol="100" pan="0"/>
                <note key="57" pos="108" len="-192" vol="100" pan="0"/>
                <note key="57" pos="120" len="-192" vol="100" pan="0"/>
                <note key="57" pos="132" len="-192" vol="100" pan="0"/>
                <note key="57" pos="144" len="-192" vol="100" pan="0"/>
                <note key="57" pos="156" len="-192" vol="100" pan="0"/>
                <note key="57" pos="168" len="-192" vol="100" pan="0"/>
                <note key="57" pos="180" len="-192" vol="100" pan="0"/>
                <note key="57" pos="192" len="-192" vol="100" pan="0"/>
                <note key="57" pos="204" len="-192" vol="100" pan="0"/>
                <note key="57" pos="216" len="-192" vol="100" pan="0"/>
                <note key="57" pos="228" len="-192" vol="100" pan="0"/>
                <note key="57" pos="240" len="-192" vol="100" pan="0"/>
                <note key="57" pos="252" len="-192" vol="100" pan="0"/>
                <note key="57" pos="264" len="-192" vol="100" pan="0"/>
                <note key="57" pos="276" len="-192" vol="100" pan="0"/>
                <note key="57" pos="288" len="-192" vol="100" pan="0"/>
                <note key="57" pos="300" len="-192" vol="100" pan="0"/>
                <note key="57" pos="312" len="-192" vol="100" pan="0"/>
                <note key="57" pos="324" len="-192" vol="100" pan="0"/>
                <note key="57" pos="336" len="-192" vol="100" pan="0"/>
                <note key="57" pos="348" len="-192" vol="100" pan="0"/>
                <note key="57" pos="360" len="-192" vol="100" pan="0"/>
                <note key="57" pos="372" len="-192" vol="100" pan="0"/>
                <note key="57" pos="384" len="-192" vol="100" pan="0"/>
                <note key="57" pos="396" len="-192" vol="100" pan="0"/>
                <note key="57" pos="408" len="-192" vol="100" pan="0"/>
                <note key="57" pos="420" len="-192" vol="100" pan="0"/>
                <note key="57" pos="432" len="-192" vol="100" pan="0"/>
                <note key="57" pos="444" len="-192" vol="100" pan="0"/>
                <note key="57" pos="456" len="-192" vol="100" pan="0"/>
                <note key="57" pos="468" len="-192" vol="100" pan="0"/>
                <note key="57" pos="480" len="-192" vol="100" pan="0"/>
                <note key="57" pos="492" len="-192" vol="100" pan="0"/>
                <note key="57" pos="504" len="-192" vol="100" pan="0"/>
                <note key="57" pos="516" len="-192" vol="100" pan="0"/>
                <note key="57" pos="528" len="-192" vol="100" pan="0"/>
                <note key="57" pos="540" len="-192" vol="100" pan="0"/>
                <note key="57" pos="552" len="-192" vol="100" pan="0"/>
                <note key="57" pos="564" len="-192" vol="100" pan="0"/>
                <note key="57" pos="576" len="-192" vol="100" pan="0"/>
                <note key="57" pos="588" len="-192" vol="100" pan="0"/>
                <note key="57" pos="600" len="-192" vol="100" pan="0"/>
                <note key="57" pos="612" len="-192" vol="100" pan="0"/>
                <note key="57" pos="624" len="-192" vol="100" pan="0"/>
                <note key="57" pos="636" len="-192" vol="100" pan="0"/>
                <note key="57" pos="648" len="-192" vol="100" pan="0"/>
                <note key="57" pos="660" len="-192" vol="100" pan="0"/>
                <note key="57" pos="672" len="-192" vol="100" pan="0"/>
                <note key="57" pos="684" len="-192" vol="100" pan="0"/>
                <note key="57" pos="696" len="-192" vol="100" pan="0"/>
                <note key="57" pos="708" len="-192" vol="100" pan="0"/>
                <note key="57" pos="720" len="-192" vol="100" pan="0"/>
                <note key="57" pos="732" len="-192" vol="100" pan="0"/>
                <note key="57" pos="744" len="-192" vol="100" pan="0"/>
                <note key="57" pos="756" len="-192" vol="100" pan="0"/>
              </pattern>
              <pattern steps="64" muted="0" type="0" pos="2688" name="kick.wav">
                <note key="57" pos="0" len="-192" vol="100" pan="0"/>
                <note key="57" pos="12" len="-192" vol="100" pan="0"/>
                <note key="57" pos="24" len="-192" vol="100" pan="0"/>
                <note key="57" pos="36" len="-192" vol="100" pan="0"/>
                <note key="57" pos="48" len="-192" vol="100" pan="0"/>
                <note key="57" pos="60" len="-192" vol="100" pan="0"/>
                <note key="57" pos="72" len="-192" vol="100" pan="0"/>
                <note key="57" pos="84" len="-192" vol="100" pan="0"/>
                <note key="57" pos="96" len="-192" vol="100" pan="0"/>
                <note key="57" pos="108" len="-192" vol="100" pan="0"/>
                <note key="57" pos="120" len="-192" vol="100" pan="0"/>
                <note key="57" pos="132" len="-192" vol="100" pan="0"/>
                <note key="57" pos="144" len="-192" vol="100" pan="0"/>
                <note key="57" pos="156" len="-192" vol="100" pan="0"/>
                <note key="57" pos="168" len="-192" vol="100" pan="0"/>
                <note key="57" pos="180" len="-192" vol="100" pan="0"/>
                <note key="57" pos="192" len="-192" vol="100" pan="0"/>
                <note key="57" pos="204" len="-192" vol="100" pan="0"/>
                <note key="57" pos="216" len="-192" vol="100" pan="0"/>
                <note key="57" pos="228" len="-192" vol="100" pan="0"/>
                <note key="57" pos="240" len="-192" vol="100" pan="0"/>
                <note key="57" pos="252" len="-192" vol="100" pan="0"/>
                <note key="57" pos="264" len="-192" vol="100" pan="0"/>
                <note key="57" pos="276" len="-192" vol="100" pan="0"/>
                <note key="57" pos="288" len="-192" vol="100" pan="0"/>
                <note key="57" pos="300" len="-192" vol="100" pan="0"/>
                <note key="57" pos="312" len="-192" vol="100" pan="0"/>
                <note key="57" pos="324" len="-192" vol="100" pan="0"/>
                <note key="57" pos="336" len="-192" vol="100" pan="0"/>
                <note key="57" pos="348" len="-192" vol="100" pan="0"/>
                <note key="57" pos="360" len="-192" vol="100" pan="0"/>
                <note key="57" pos="372" len="-192" vol="100" pan="0"/>
                <note key="57" pos="384" len="-192" vol="100" pan="0"/>
                <note key="57" pos="396" len="-192" vol="100" pan="0"/>
                <note key="57" pos="408" len="-192" vol="100" pan="0"/>
                <note key="57" pos="420" len="-192" vol="100" pan="0"/>
                <note key="57" pos="432" len="-192" vol="100" pan="0"/>
                <note key="57" pos="444" len="-192" vol="100" pan="0"/>
                <note key="57" pos="456" len="-192" vol="100" pan="0"/>
                <note key="57" pos="468" len="-192" vol="100" pan="0"/>
                <note key="57" pos="480" len="-192" vol="100" pan="0"/>
                <note key="57" pos="492" len="-192" vol="100" pan="0"/>
                <note key="57" pos="504" len="-192" vol="100" pan="0"/>
                <note key="57" pos="516" len="-192" vol="100" pan="0"/>
                <note key="57" pos="528" len="-192" vol="100" pan="0"/>
                <note key="57" pos="540" len="-192" vol="100" pan="0"/>
                <note key="57" pos="552" len="-192" vol="100" pan="0"/>
                <note key="57" pos="564" len="-192" vol="100" pan="0"/>
                <note key="57" pos="576" len="-192" vol="100" pan="0"/>
                <note key="57" pos="588" len="-192" vol="100" pan="0"/>
                <note key="57" pos="600" len="-192" vol="100" pan="0"/>
                <note key="57" pos="612" len="-192" vol="100" pan="0"/>
                <note key="57" pos="624" len="-192" vol="100" pan="0"/>
                <note key="57" pos="636" len="-192" vol="100" pan="0"/>
                <note key="57" pos="648" len="-192" vol="100" pan="0"/>
                <note key="57" pos="660" len="-192" vol="100" pan="0"/>
                <note key="57" pos="672" len="-192" vol="100" pan="0"/>
                <note key="57" pos="684" len="-192" vol="100" pan="0"/>
                <note key="57" pos="696" len="-192" vol="100" pan="0"/>
                <note key="57" pos="708" len="-192" vol="100" pan="0"/>
                <note key="57" pos="720" len="-192" vol="100" pan="0"/>
                <note key="57" pos="732" len="-192" vol="100" pan="0"/>
                <note key="57" pos="744" len="-192" vol="100" pan="0"/>
                <note key="57" pos="756" len="-192" vol="100" pan="0"/>
              </pattern>
              <pattern steps="64" muted="0" type="0" pos="2880" name="kick.wav">
                <note key="57" pos="0" len="-192" vol="100" pan="0"/>
                <note key="57" pos="12" len="-192" vol="100" pan="0"/>
                <note key="57" pos="24" len="-192" vol="100" pan="0"/>
                <note key="57" pos="36" len="-192" vol="100" pan="0"/>
                <note key="57" pos="48" len="-192" vol="100" pan="0"/>
                <note key="57" pos="60" len="-192" vol="100" pan="0"/>
                <note key="57" pos="72" len="-192" vol="100" pan="0"/>
                <note key="57" pos="84" len="-192" vol="100" pan="0"/>
                <note key="57" pos="96" len="-192" vol="100" pan="0"/>
                <note key="57" pos="108" len="-192" vol="100" pan="0"/>
                <note key="57" pos="120" len="-192" vol="100" pan="0"/>
                <note key="57" pos="132" len="-192" vol="100" pan="0"/>
                <note key="57" pos="144" len="-192" vol="100" pan="0"/>
                <note key="57" pos="156" len="-192" vol="100" pan="0"/>
                <note key="57" pos="168" len="-192" vol="100" pan="0"/>
                <note key="57" pos="180" len="-192" vol="100" pan="0"/>
                <note key="57" pos="192" len="-192" vol="100" pan="0"/>
                <note key="57" pos="204" len="-192" vol="100" pan="0"/>
                <note key="57" pos="216" len="-192" vol="100" pan="0"/>
                <note key="57" pos="228" len="-192" vol="100" pan="0"/>
                <note key="57" pos="240" len="-192" vol="100" pan="0"/>
                <note key="57" pos="252" len="-192" vol="100" pan="0"/>
                <note key="57" pos="264" len="-192" vol="100" pan="0"/>
                <note key="57" pos="276" len="-192" vol="100" pan="0"/>
                <note key="57" pos="288" len="-192" vol="100" pan="0"/>
                <note key="57" pos="300" len="-192" vol="100" pan="0"/>
                <note key="57" pos="312" len="-192" vol="100" pan="0"/>
                <note key="57" pos="324" len="-192" vol="100" pan="0"/>
                <note key="57" pos="336" len="-192" vol="100" pan="0"/>
                <note key="57" pos="348" len="-192" vol="100" pan="0"/>
                <note key="57" pos="360" len="-192" vol="100" pan="0"/>
                <note key="57" pos="372" len="-192" vol="100" pan="0"/>
                <note key="57" pos="384" len="-192" vol="100" pan="0"/>
                <note key="57" pos="396" len="-192" vol="100" pan="0"/>
                <note key="57" pos="408" len="-192" vol="100" pan="0"/>
                <note key="57" pos="420" len="-192" vol="100" pan="0"/>
                <note key="57" pos="432" len="-192" vol="100" pan="0"/>
                <note key="57" pos="444" len="-192" vol="100" pan="0"/>
                <note key="57" pos="456" len="-192" vol="100" pan="0"/>
                <note key="57" pos="468" len="-192" vol="100" pan="0"/>
                <note key="57" pos="480" len="-192" vol="100" pan="0"/>
                <note key="57" pos="492" len="-192" vol="100" pan="0"/>
                <note key="57" pos="504" len="-192" vol="100" pan="0"/>
                <note key="57" pos="516" len="-192" vol="100" pan="0"/>
                <note key="57" pos="528" len="-192" vol="100" pan="0"/>
                <note key="57" pos="540" len="-192" vol="100" pan="0"/>
                <note key="57" pos="552" len="-192" vol="100" pan="0"/>
                <note key="57" pos="564" len="-192" vol="100" pan="0"/>
                <note key="57" pos="576" len="-192" vol="100" pan="0"/>
                <note key="57" pos="588" len="-192" vol="100" pan="0"/>
                <note key="57" pos="600" len="-192" vol="100" pan="0"/>
                <note key="57" pos="612" len="-192" vol="100" pan="0"/>
                <note key="57" pos="624" len="-192" vol="100" pan="0"/>
                <note key="57" pos="636" len="-192" vol="100" pan="0"/>
                <note key="57" pos="648" len="-192" vol="100" pan="0"/>
                <note key="57" pos="660" len="-192" vol="100" pan="0"/>
                <note key="57" pos="672" len="-192" vol="100" pan="0"/>
                <note key="57" pos="684" len="-192" vol="100" pan="0"/>
                <note key="57" pos="696" len="-192" vol="100" pan="0"/>
                <note key="57" pos="708" len="-192" vol="100" pan="0"/>
                <note key="57" pos="720" len="-192" vol="100" pan="0"/>
                <note key="57" pos="732" len="-192" vol="100" pan="0"/>
                <note key="57" pos="744" len="-192" vol="100" pan="0"/>
                <note key="57" pos="756" len="-192" vol="100" pan="0"/>
              </pattern>
              <pattern steps="16" muted="0" type="0" pos="3072" name="kick.wav">
                <note key="57" pos="0" len="-192" vol="100" pan="0"/>
                <note key="57" pos="72" len="-192" vol="100" pan="0"/>
                <note key="57" pos="144" len="-192" vol="100" pan="0"/>
              </pattern>
              <pattern steps="16" muted="0" type="0" pos="3264" name="kick.wav">
                <note key="57" pos="0" len="-192" vol="100" pan="0"/>
                <note key="57" pos="48" len="-192" vol="100" pan="0"/>
                <note key="57" pos="96" len="-192" vol="100" pan="0"/>
                <note key="57" pos="144" len="-192" vol="100" pan="0"/>
                <note key="57" pos="168" len="-192" vol="100" pan="0"/>
              </pattern>
              <pattern steps="16" muted="0" type="0" pos="3456" name="kick.wav">
                <note key="57" pos="0" len="-192" vol="100" pan="0"/>
                <note key="57" pos="48" len="-192" vol="100" pan="0"/>
                <note key="57" pos="96" len="-192" vol="100" pan="0"/>
                <note key="57" pos="144" len="-192" vol="100" pan="0"/>
              </pattern>
              <pattern steps="64" muted="0" type="0" pos="3648" name="kick.wav">
                <note key="57" pos="0" len="-192" vol="100" pan="0"/>
                <note key="57" pos="72" len="-192" vol="100" pan="0"/>
                <note key="57" pos="84" len="-192" vol="100" pan="0"/>
                <note key="57" pos="96" len="-192" vol="100" pan="0"/>
                <note key="57" pos="120" len="-192" vol="100" pan="0"/>
                <note key="57" pos="144" len="-192" vol="100" pan="0"/>
                <note key="57" pos="216" len="-192" vol="100" pan="0"/>
                <note key="57" pos="240" len="-192" vol="100" pan="0"/>
                <note key="57" pos="264" len="-192" vol="100" pan="0"/>
                <note key="57" pos="288" len="-192" vol="100" pan="0"/>
                <note key="57" pos="312" len="-192" vol="100" pan="0"/>
                <note key="57" pos="336" len="-192" vol="100" pan="0"/>
                <note key="57" pos="360" len="-192" vol="100" pan="0"/>
                <note key="57" pos="384" len="-192" vol="100" pan="0"/>
                <note key="57" pos="408" len="-192" vol="100" pan="0"/>
                <note key="57" pos="432" len="-192" vol="100" pan="0"/>
                <note key="57" pos="456" len="-192" vol="100" pan="0"/>
                <note key="57" pos="480" len="-192" vol="100" pan="0"/>
                <note key="57" pos="504" len="-192" vol="100" pan="0"/>
                <note key="57" pos="528" len="-192" vol="100" pan="0"/>
                <note key="57" pos="600" len="-192" vol="100" pan="0"/>
                <note key="57" pos="624" len="-192" vol="100" pan="0"/>
                <note key="57" pos="648" len="-192" vol="100" pan="0"/>
                <note key="57" pos="672" len="-192" vol="100" pan="0"/>
                <note key="57" pos="696" len="-192" vol="100" pan="0"/>
                <note key="57" pos="720" len="-192" vol="100" pan="0"/>
                <note key="57" pos="732" len="-192" vol="100" pan="0"/>
                <note key="57" pos="744" len="-192" vol="100" pan="0"/>
              </pattern>
              <pattern steps="80" muted="0" type="0" pos="3840" name="kick.wav">
                <note key="57" pos="0" len="-192" vol="100" pan="0"/>
                <note key="57" pos="24" len="-192" vol="100" pan="0"/>
                <note key="57" pos="48" len="-192" vol="100" pan="0"/>
                <note key="57" pos="72" len="-192" vol="100" pan="0"/>
                <note key="57" pos="96" len="-192" vol="100" pan="0"/>
                <note key="57" pos="120" len="-192" vol="100" pan="0"/>
                <note key="57" pos="144" len="-192" vol="100" pan="0"/>
                <note key="57" pos="168" len="-192" vol="100" pan="0"/>
                <note key="57" pos="192" len="-192" vol="100" pan="0"/>
                <note key="57" pos="216" len="-192" vol="100" pan="0"/>
                <note key="57" pos="240" len="-192" vol="100" pan="0"/>
                <note key="57" pos="264" len="-192" vol="100" pan="0"/>
                <note key="57" pos="288" len="-192" vol="100" pan="0"/>
                <note key="57" pos="312" len="-192" vol="100" pan="0"/>
                <note key="57" pos="336" len="-192" vol="100" pan="0"/>
                <note key="57" pos="360" len="-192" vol="100" pan="0"/>
                <note key="57" pos="384" len="-192" vol="100" pan="0"/>
                <note key="57" pos="408" len="-192" vol="100" pan="0"/>
                <note key="57" pos="432" len="-192" vol="100" pan="0"/>
                <note key="57" pos="456" len="-192" vol="100" pan="0"/>
                <note key="57" pos="504" len="-192" vol="100" pan="0"/>
                <note key="57" pos="552" len="-192" vol="100" pan="0"/>
                <note key="57" pos="600" len="-192" vol="100" pan="0"/>
                <note key="57" pos="624" len="-192" vol="100" pan="0"/>
                <note key="57" pos="648" len="-192" vol="100" pan="0"/>
                <note key="57" pos="672" len="-192" vol="100" pan="0"/>
                <note key="57" pos="744" len="-192" vol="100" pan="0"/>
                <note key="57" pos="828" len="-192" vol="100" pan="0"/>
              </pattern>
              <pattern steps="32" muted="0" type="0" pos="4032" name="kick.wav">
                <note key="57" pos="0" len="-192" vol="100" pan="0"/>
                <note key="57" pos="12" len="-192" vol="100" pan="0"/>
                <note key="57" pos="24" len="-192" vol="100" pan="0"/>
                <note key="57" pos="36" len="-192" vol="100" pan="0"/>
                <note key="57" pos="48" len="-192" vol="100" pan="0"/>
                <note key="57" pos="60" len="-192" vol="100" pan="0"/>
                <note key="57" pos="72" len="-192" vol="100" pan="0"/>
                <note key="57" pos="84" len="-192" vol="100" pan="0"/>
                <note key="57" pos="96" len="-192" vol="100" pan="0"/>
                <note key="57" pos="108" len="-192" vol="100" pan="0"/>
                <note key="57" pos="120" len="-192" vol="100" pan="0"/>
                <note key="57" pos="132" len="-192" vol="100" pan="0"/>
                <note key="57" pos="144" len="-192" vol="100" pan="0"/>
                <note key="57" pos="156" len="-192" vol="100" pan="0"/>
                <note key="57" pos="168" len="-192" vol="100" pan="0"/>
                <note key="57" pos="180" len="-192" vol="100" pan="0"/>
                <note key="57" pos="192" len="-192" vol="100" pan="0"/>
                <note key="57" pos="204" len="-192" vol="100" pan="0"/>
                <note key="57" pos="216" len="-192" vol="100" pan="0"/>
                <note key="57" pos="228" len="-192" vol="100" pan="0"/>
                <note key="57" pos="240" len="-192" vol="100" pan="0"/>
                <note key="57" pos="252" len="-192" vol="100" pan="0"/>
                <note key="57" pos="264" len="-192" vol="100" pan="0"/>
                <note key="57" pos="276" len="-192" vol="100" pan="0"/>
                <note key="57" pos="288" len="-192" vol="100" pan="0"/>
              </pattern>
            </track>
            <track solo="0" muted="0" type="0" name="hihat_opened02.ogg">
              <instrumenttrack basenote="57" pitchrange="1" pitch="0" usemasterpitch="1" vol="56.8" pan="-12" fxch="2">
                <instrument name="audiofileprocessor">
                  <audiofileprocessor amp="100" interp="1" reversed="0" eframe="1" stutter="0" looped="0" sframe="0" lframe="0" src="drums/hihat_opened02.ogg"/>
                </instrument>
                <eldata fwet="0" ftype="0" fcut="14000" fres="0.5">
                  <elvol ctlenvamt="0" lamt="0" amt="1" latt="0" lspd_syncmode="0" dec="2" lpdel="0" att="0" lspd_denominator="4" hold="2" lspd="0.1" lspd_numerator="4" sustain="0" lshp="0" pdel="0" x100="0" rel="0" userwavefile=""/>
                  <elcut ctlenvamt="0" lamt="0" amt="0" latt="0" lspd_syncmode="0" dec="0.5" lpdel="0" att="0" lspd_denominator="4" hold="0.5" lspd="0.1" lspd_numerator="4" sustain="0.5" lshp="0" pdel="0" x100="0" rel="0.1" userwavefile=""/>
                  <elres ctlenvamt="0" lamt="0" amt="0" latt="0" lspd_syncmode="0" dec="0.5" lpdel="0" att="0" lspd_denominator="4" hold="0.5" lspd="0.1" lspd_numerator="4" sustain="0.5" lshp="0" pdel="0" x100="0" rel="0.1" userwavefile=""/>
                </eldata>
                <chordcreator chordrange="1" chord-enabled="0" chord="0"/>
                <arpeggiator arptime_syncmode="0" arpdir="0" arptime_numerator="4" arpmode="0" arp="0" arpmiss="0" arptime="200" arpgate="100" arp-enabled="0" arpskip="0" arptime_denominator="4" arprange="1" arpcycle="0"/>
                <midiport writable="0" fixedinputvelocity="-1" outputchannel="1" fixedoutputvelocity="-1" outputcontroller="0" basevelocity="63" fixedoutputnote="-1" inputchannel="0" inputcontroller="0" outputprogram="1" readable="0"/>
                <fxchain numofeffects="0" enabled="0"/>
              </instrumenttrack>
              <pattern steps="64" muted="0" type="0" pos="0" name="hihat_opened02.ogg"/>
              <pattern steps="32" muted="0" type="0" pos="192" name="hihat_opened02.ogg">
                <note key="57" pos="96" len="-192" vol="100" pan="0"/>
                <note key="57" pos="144" len="-192" vol="100" pan="0"/>
                <note key="57" pos="288" len="-192" vol="100" pan="0"/>
                <note key="57" pos="336" len="-192" vol="100" pan="0"/>
              </pattern>
              <pattern steps="32" muted="0" type="0" pos="384" name="hihat_opened02.ogg"/>
              <pattern steps="64" muted="0" type="0" pos="576" name="hihat_opened02.ogg">
                <note key="57" pos="0" len="-192" vol="100" pan="0"/>
                <note key="57" pos="48" len="-192" vol="100" pan="0"/>
                <note key="57" pos="96" len="-192" vol="100" pan="0"/>
                <note key="57" pos="144" len="-192" vol="100" pan="0"/>
                <note key="57" pos="192" len="-192" vol="100" pan="0"/>
                <note key="57" pos="240" len="-192" vol="100" pan="0"/>
                <note key="57" pos="288" len="-192" vol="100" pan="0"/>
                <note key="57" pos="336" len="-192" vol="100" pan="0"/>
                <note key="57" pos="384" len="-192" vol="100" pan="0"/>
                <note key="57" pos="432" len="-192" vol="100" pan="0"/>
                <note key="57" pos="480" len="-192" vol="100" pan="0"/>
                <note key="57" pos="528" len="-192" vol="100" pan="0"/>
                <note key="57" pos="576" len="-192" vol="100" pan="0"/>
                <note key="57" pos="624" len="-192" vol="100" pan="0"/>
                <note key="57" pos="672" len="-192" vol="100" pan="0"/>
                <note key="57" pos="720" len="-192" vol="100" pan="0"/>
              </pattern>
              <pattern steps="16" muted="0" type="0" pos="768" name="hihat_opened02.ogg"/>
              <pattern steps="64" muted="0" type="0" pos="960" name="hihat_opened02.ogg">
                <note key="57" pos="0" len="-192" vol="100" pan="0"/>
                <note key="57" pos="48" len="-192" vol="100" pan="0"/>
                <note key="57" pos="96" len="-192" vol="100" pan="0"/>
                <note key="57" pos="144" len="-192" vol="100" pan="0"/>
                <note key="57" pos="192" len="-192" vol="100" pan="0"/>
                <note key="57" pos="240" len="-192" vol="100" pan="0"/>
                <note key="57" pos="288" len="-192" vol="100" pan="0"/>
                <note key="57" pos="336" len="-192" vol="100" pan="0"/>
                <note key="57" pos="384" len="-192" vol="100" pan="0"/>
                <note key="57" pos="432" len="-192" vol="100" pan="0"/>
                <note key="57" pos="480" len="-192" vol="100" pan="0"/>
                <note key="57" pos="528" len="-192" vol="100" pan="0"/>
                <note key="57" pos="576" len="-192" vol="100" pan="0"/>
                <note key="57" pos="624" len="-192" vol="100" pan="0"/>
                <note key="57" pos="672" len="-192" vol="100" pan="0"/>
                <note key="57" pos="720" len="-192" vol="100" pan="0"/>
              </pattern>
              <pattern steps="64" muted="0" type="0" pos="1152" name="hihat_opened02.ogg">
                <note key="57" pos="0" len="-192" vol="100" pan="0"/>
                <note key="57" pos="48" len="-192" vol="100" pan="0"/>
                <note key="57" pos="96" len="-192" vol="100" pan="0"/>
                <note key="57" pos="144" len="-192" vol="100" pan="0"/>
                <note key="57" pos="192" len="-192" vol="100" pan="0"/>
                <note key="57" pos="240" len="-192" vol="100" pan="0"/>
                <note key="57" pos="288" len="-192" vol="100" pan="0"/>
                <note key="57" pos="336" len="-192" vol="100" pan="0"/>
                <note key="57" pos="384" len="-192" vol="100" pan="0"/>
                <note key="57" pos="432" len="-192" vol="100" pan="0"/>
                <note key="57" pos="480" len="-192" vol="100" pan="0"/>
                <note key="57" pos="528" len="-192" vol="100" pan="0"/>
                <note key="57" pos="576" len="-192" vol="100" pan="0"/>
                <note key="57" pos="624" len="-192" vol="100" pan="0"/>
              </pattern>
              <pattern steps="64" muted="0" type="0" pos="1344" name="hihat_opened02.ogg">
                <note key="57" pos="0" len="-192" vol="100" pan="0"/>
                <note key="57" pos="48" len="-192" vol="100" pan="0"/>
                <note key="57" pos="96" len="-192" vol="100" pan="0"/>
                <note key="57" pos="144" len="-192" vol="100" pan="0"/>
                <note key="57" pos="192" len="-192" vol="100" pan="0"/>
                <note key="57" pos="240" len="-192" vol="100" pan="0"/>
                <note key="57" pos="288" len="-192" vol="100" pan="0"/>
                <note key="57" pos="336" len="-192" vol="100" pan="0"/>
                <note key="57" pos="384" len="-192" vol="100" pan="0"/>
                <note key="57" pos="432" len="-192" vol="100" pan="0"/>
                <note key="57" pos="480" len="-192" vol="100" pan="0"/>
                <note key="57" pos="528" len="-192" vol="100" pan="0"/>
                <note key="57" pos="576" len="-192" vol="100" pan="0"/>
                <note key="57" pos="624" len="-192" vol="100" pan="0"/>
                <note key="57" pos="672" len="-192" vol="100" pan="0"/>
                <note key="57" pos="720" len="-192" vol="100" pan="0"/>
              </pattern>
              <pattern steps="32" muted="0" type="0" pos="1536" name="hihat_opened02.ogg"/>
              <pattern steps="48" muted="0" type="0" pos="1728" name="hihat_opened02.ogg">
                <note key="57" pos="48" len="-192" vol="100" pan="0"/>
                <note key="57" pos="96" len="-192" vol="100" pan="0"/>
                <note key="57" pos="144" len="-192" vol="100" pan="0"/>
              </pattern>
              <pattern steps="32" muted="0" type="0" pos="1920" name="hihat_opened02.ogg"/>
              <pattern steps="64" muted="0" type="0" pos="2112" name="hihat_opened02.ogg">
                <note key="57" pos="0" len="-192" vol="100" pan="0"/>
                <note key="57" pos="96" len="-192" vol="100" pan="0"/>
                <note key="57" pos="192" len="-192" vol="100" pan="0"/>
                <note key="57" pos="288" len="-192" vol="100" pan="0"/>
                <note key="57" pos="384" len="-192" vol="100" pan="0"/>
                <note key="57" pos="480" len="-192" vol="100" pan="0"/>
                <note key="57" pos="576" len="-192" vol="100" pan="0"/>
                <note key="57" pos="672" len="-192" vol="100" pan="0"/>
              </pattern>
              <pattern steps="64" muted="0" type="0" pos="2304" name="hihat_opened02.ogg">
                <note key="57" pos="0" len="-192" vol="100" pan="0"/>
                <note key="57" pos="48" len="-192" vol="100" pan="0"/>
                <note key="57" pos="96" len="-192" vol="100" pan="0"/>
                <note key="57" pos="144" len="-192" vol="100" pan="0"/>
                <note key="57" pos="192" len="-192" vol="100" pan="0"/>
                <note key="57" pos="240" len="-192" vol="100" pan="0"/>
                <note key="57" pos="288" len="-192" vol="100" pan="0"/>
                <note key="57" pos="336" len="-192" vol="100" pan="0"/>
                <note key="57" pos="384" len="-192" vol="100" pan="0"/>
                <note key="57" pos="432" len="-192" vol="100" pan="0"/>
                <note key="57" pos="480" len="-192" vol="100" pan="0"/>
                <note key="57" pos="528" len="-192" vol="100" pan="0"/>
                <note key="57" pos="576" len="-192" vol="100" pan="0"/>
                <note key="57" pos="624" len="-192" vol="100" pan="0"/>
                <note key="57" pos="672" len="-192" vol="100" pan="0"/>
                <note key="57" pos="720" len="-192" vol="100" pan="0"/>
              </pattern>
              <pattern steps="64" muted="0" type="0" pos="2496" name="hihat_opened02.ogg">
                <note key="57" pos="0" len="-192" vol="100" pan="0"/>
                <note key="57" pos="96" len="-192" vol="100" pan="0"/>
                <note key="57" pos="192" len="-192" vol="100" pan="0"/>
                <note key="57" pos="288" len="-192" vol="100" pan="0"/>
                <note key="57" pos="384" len="-192" vol="100" pan="0"/>
                <note key="57" pos="480" len="-192" vol="100" pan="0"/>
                <note key="57" pos="576" len="-192" vol="100" pan="0"/>
                <note key="57" pos="672" len="-192" vol="100" pan="0"/>
              </pattern>
              <pattern steps="64" muted="0" type="0" pos="2688" name="hihat_opened02.ogg">
                <note key="57" pos="0" len="-192" vol="100" pan="0"/>
                <note key="57" pos="96" len="-192" vol="100" pan="0"/>
                <note key="57" pos="192" len="-192" vol="100" pan="0"/>
                <note key="57" pos="288" len="-192" vol="100" pan="0"/>
                <note key="57" pos="384" len="-192" vol="100" pan="0"/>
                <note key="57" pos="480" len="-192" vol="100" pan="0"/>
                <note key="57" pos="576" len="-192" vol="100" pan="0"/>
                <note key="57" pos="672" len="-192" vol="100" pan="0"/>
              </pattern>
              <pattern steps="64" muted="0" type="0" pos="2880" name="hihat_opened02.ogg">
                <note key="57" pos="0" len="-192" vol="100" pan="0"/>
                <note key="57" pos="48" len="-192" vol="100" pan="0"/>
                <note key="57" pos="96" len="-192" vol="100" pan="0"/>
                <note key="57" pos="144" len="-192" vol="100" pan="0"/>
                <note key="57" pos="192" len="-192" vol="100" pan="0"/>
                <note key="57" pos="240" len="-192" vol="100" pan="0"/>
                <note key="57" pos="288" len="-192" vol="100" pan="0"/>
                <note key="57" pos="336" len="-192" vol="100" pan="0"/>
                <note key="57" pos="384" len="-192" vol="100" pan="0"/>
                <note key="57" pos="432" len="-192" vol="100" pan="0"/>
                <note key="57" pos="480" len="-192" vol="100" pan="0"/>
                <note key="57" pos="528" len="-192" vol="100" pan="0"/>
                <note key="57" pos="576" len="-192" vol="100" pan="0"/>
                <note key="57" pos="624" len="-192" vol="100" pan="0"/>
                <note key="57" pos="672" len="-192" vol="100" pan="0"/>
                <note key="57" pos="720" len="-192" vol="100" pan="0"/>
              </pattern>
              <pattern steps="16" muted="0" type="0" pos="3072" name="hihat_opened02.ogg"/>
              <pattern steps="16" muted="0" type="0" pos="3264" name="hihat_opened02.ogg">
                <note key="57" pos="24" len="-192" vol="100" pan="0"/>
                <note key="57" pos="72" len="-192" vol="100" pan="0"/>
                <note key="57" pos="120" len="-192" vol="100" pan="0"/>
                <note key="57" pos="168" len="-192" vol="100" pan="0"/>
              </pattern>
              <pattern steps="16" muted="0" type="0" pos="3456" name="hihat_opened02.ogg">
                <note key="57" pos="24" len="-192" vol="100" pan="0"/>
                <note key="57" pos="168" len="-192" vol="100" pan="0"/>
              </pattern>
              <pattern steps="64" muted="0" type="0" pos="3648" name="hihat_opened02.ogg">
                <note key="57" pos="624" len="-192" vol="100" pan="0"/>
                <note key="57" pos="672" len="-192" vol="100" pan="0"/>
              </pattern>
              <pattern steps="80" muted="0" type="0" pos="3840" name="hihat_opened02.ogg">
                <note key="57" pos="360" len="-192" vol="100" pan="0"/>
                <note key="57" pos="624" len="-192" vol="100" pan="0"/>
              </pattern>
              <pattern steps="32" muted="0" type="0" pos="4032" name="hihat_opened02.ogg"/>
            </track>
            <track solo="0" muted="0" type="0" name="snare.wav">
              <instrumenttrack basenote="57" pitchrange="1" pitch="0" usemasterpitch="1" vol="200" pan="0" fxch="3">
                <instrument name="audiofileprocessor">
                  <audiofileprocessor amp="100" interp="1" reversed="0" eframe="1" stutter="0" looped="0" sframe="0" lframe="0" src="/home/pass/samples/sillydrums/snare.wav"/>
                </instrument>
                <eldata fwet="0" ftype="0" fcut="14000" fres="0.5">
                  <elvol ctlenvamt="0" lamt="0" amt="1" latt="0" lspd_syncmode="0" dec="2" lpdel="0" att="0" lspd_denominator="4" hold="2" lspd="0.1" lspd_numerator="4" sustain="1" lshp="0" pdel="0" x100="0" rel="2" userwavefile=""/>
                  <elcut ctlenvamt="0" lamt="0" amt="0" latt="0" lspd_syncmode="0" dec="0.5" lpdel="0" att="0" lspd_denominator="4" hold="0.5" lspd="0.1" lspd_numerator="4" sustain="0.5" lshp="0" pdel="0" x100="0" rel="0.1" userwavefile=""/>
                  <elres ctlenvamt="0" lamt="0" amt="0" latt="0" lspd_syncmode="0" dec="0.5" lpdel="0" att="0" lspd_denominator="4" hold="0.5" lspd="0.1" lspd_numerator="4" sustain="0.5" lshp="0" pdel="0" x100="0" rel="0.1" userwavefile=""/>
                </eldata>
                <chordcreator chordrange="1" chord-enabled="0" chord="0"/>
                <arpeggiator arptime_syncmode="0" arpdir="0" arptime_numerator="4" arpmode="0" arp="0" arpmiss="0" arptime="200" arpgate="100" arp-enabled="0" arpskip="0" arptime_denominator="4" arprange="1" arpcycle="0"/>
                <midiport writable="0" fixedinputvelocity="-1" outputchannel="1" fixedoutputvelocity="-1" outputcontroller="0" basevelocity="63" fixedoutputnote="-1" inputchannel="0" inputcontroller="0" outputprogram="1" readable="0"/>
                <fxchain numofeffects="0" enabled="0"/>
              </instrumenttrack>
              <pattern steps="64" muted="0" type="0" pos="0" name="snare.wav">
                <note key="57" pos="720" len="-192" vol="100" pan="0"/>
                <note key="57" pos="732" len="-192" vol="100" pan="0"/>
                <note key="57" pos="744" len="-192" vol="100" pan="0"/>
                <note key="57" pos="756" len="-192" vol="100" pan="0"/>
              </pattern>
              <pattern steps="32" muted="0" type="0" pos="192" name="snare.wav">
                <note key="57" pos="96" len="-192" vol="100" pan="0"/>
                <note key="57" pos="144" len="-192" vol="100" pan="0"/>
                <note key="57" pos="288" len="-192" vol="100" pan="0"/>
                <note key="57" pos="336" len="-192" vol="100" pan="0"/>
              </pattern>
              <pattern steps="32" muted="0" type="0" pos="384" name="snare.wav">
                <note key="57" pos="240" len="-192" vol="100" pan="0"/>
              </pattern>
              <pattern steps="64" muted="0" type="0" pos="576" name="snare.wav">
                <note key="57" pos="24" len="-192" vol="100" pan="0"/>
                <note key="57" pos="72" len="-192" vol="100" pan="0"/>
                <note key="57" pos="120" len="-192" vol="100" pan="0"/>
                <note key="57" pos="168" len="-192" vol="100" pan="0"/>
                <note key="57" pos="216" len="-192" vol="100" pan="0"/>
                <note key="57" pos="264" len="-192" vol="100" pan="0"/>
                <note key="57" pos="312" len="-192" vol="100" pan="0"/>
                <note key="57" pos="360" len="-192" vol="100" pan="0"/>
                <note key="57" pos="408" len="-192" vol="100" pan="0"/>
                <note key="57" pos="456" len="-192" vol="100" pan="0"/>
                <note key="57" pos="504" len="-192" vol="100" pan="0"/>
                <note key="57" pos="552" len="-192" vol="100" pan="0"/>
                <note key="57" pos="600" len="-192" vol="100" pan="0"/>
                <note key="57" pos="648" len="-192" vol="100" pan="0"/>
                <note key="57" pos="696" len="-192" vol="100" pan="0"/>
                <note key="57" pos="744" len="-192" vol="100" pan="0"/>
              </pattern>
              <pattern steps="16" muted="0" type="0" pos="768" name="snare.wav">
                <note key="57" pos="0" len="-192" vol="100" pan="0"/>
                <note key="57" pos="12" len="-192" vol="100" pan="0"/>
                <note key="57" pos="24" len="-192" vol="100" pan="0"/>
                <note key="57" pos="36" len="-192" vol="100" pan="0"/>
                <note key="57" pos="48" len="-192" vol="100" pan="0"/>
                <note key="57" pos="60" len="-192" vol="100" pan="0"/>
                <note key="57" pos="72" len="-192" vol="100" pan="0"/>
                <note key="57" pos="84" len="-192" vol="100" pan="0"/>
                <note key="57" pos="96" len="-192" vol="100" pan="0"/>
                <note key="57" pos="144" len="-192" vol="100" pan="0"/>
              </pattern>
              <pattern steps="64" muted="0" type="0" pos="960" name="snare.wav">
                <note key="57" pos="24" len="-192" vol="100" pan="0"/>
                <note key="57" pos="72" len="-192" vol="100" pan="0"/>
                <note key="57" pos="120" len="-192" vol="100" pan="0"/>
                <note key="57" pos="168" len="-192" vol="100" pan="0"/>
                <note key="57" pos="216" len="-192" vol="100" pan="0"/>
                <note key="57" pos="264" len="-192" vol="100" pan="0"/>
                <note key="57" pos="312" len="-192" vol="100" pan="0"/>
                <note key="57" pos="360" len="-192" vol="100" pan="0"/>
                <note key="57" pos="408" len="-192" vol="100" pan="0"/>
                <note key="57" pos="456" len="-192" vol="100" pan="0"/>
                <note key="57" pos="504" len="-192" vol="100" pan="0"/>
                <note key="57" pos="552" len="-192" vol="100" pan="0"/>
                <note key="57" pos="600" len="-192" vol="100" pan="0"/>
                <note key="57" pos="648" len="-192" vol="100" pan="0"/>
                <note key="57" pos="696" len="-192" vol="100" pan="0"/>
                <note key="57" pos="744" len="-192" vol="100" pan="0"/>
              </pattern>
              <pattern steps="64" muted="0" type="0" pos="1152" name="snare.wav">
                <note key="57" pos="24" len="-192" vol="100" pan="0"/>
                <note key="57" pos="72" len="-192" vol="100" pan="0"/>
                <note key="57" pos="120" len="-192" vol="100" pan="0"/>
                <note key="57" pos="168" len="-192" vol="100" pan="0"/>
                <note key="57" pos="216" len="-192" vol="100" pan="0"/>
                <note key="57" pos="264" len="-192" vol="100" pan="0"/>
                <note key="57" pos="312" len="-192" vol="100" pan="0"/>
                <note key="57" pos="360" len="-192" vol="100" pan="0"/>
                <note key="57" pos="408" len="-192" vol="100" pan="0"/>
                <note key="57" pos="456" len="-192" vol="100" pan="0"/>
                <note key="57" pos="504" len="-192" vol="100" pan="0"/>
                <note key="57" pos="552" len="-192" vol="100" pan="0"/>
                <note key="57" pos="600" len="-192" vol="100" pan="0"/>
                <note key="57" pos="648" len="-192" vol="100" pan="0"/>
                <note key="57" pos="672" len="-192" vol="100" pan="0"/>
                <note key="57" pos="720" len="-192" vol="100" pan="0"/>
              </pattern>
              <pattern steps="64" muted="0" type="0" pos="1344" name="snare.wav">
                <note key="57" pos="24" len="-192" vol="100" pan="0"/>
                <note key="57" pos="72" len="-192" vol="100" pan="0"/>
                <note key="57" pos="120" len="-192" vol="100" pan="0"/>
                <note key="57" pos="168" len="-192" vol="100" pan="0"/>
                <note key="57" pos="216" len="-192" vol="100" pan="0"/>
                <note key="57" pos="264" len="-192" vol="100" pan="0"/>
                <note key="57" pos="312" len="-192" vol="100" pan="0"/>
                <note key="57" pos="360" len="-192" vol="100" pan="0"/>
                <note key="57" pos="408" len="-192" vol="100" pan="0"/>
                <note key="57" pos="456" len="-192" vol="100" pan="0"/>
                <note key="57" pos="504" len="-192" vol="100" pan="0"/>
                <note key="57" pos="552" len="-192" vol="100" pan="0"/>
                <note key="57" pos="600" len="-192" vol="100" pan="0"/>
                <note key="57" pos="648" len="-192" vol="100" pan="0"/>
                <note key="57" pos="696" len="-192" vol="100" pan="0"/>
                <note key="57" pos="744" len="-192" vol="100" pan="0"/>
              </pattern>
              <pattern steps="32" muted="0" type="0" pos="1536" name="snare.wav"/>
              <pattern steps="48" muted="0" type="0" pos="1728" name="snare.wav">
                <note key="57" pos="0" len="-192" vol="100" pan="0"/>
                <note key="57" pos="48" len="-192" vol="100" pan="0"/>
                <note key="57" pos="96" len="-192" vol="100" pan="0"/>
                <note key="57" pos="144" len="-192" vol="100" pan="0"/>
                <note key="57" pos="192" len="-192" vol="100" pan="0"/>
                <note key="57" pos="216" len="-192" vol="100" pan="0"/>
                <note key="57" pos="240" len="-192" vol="100" pan="0"/>
                <note key="57" pos="264" len="-192" vol="100" pan="0"/>
                <note key="57" pos="288" len="-192" vol="100" pan="0"/>
                <note key="57" pos="336" len="-192" vol="100" pan="0"/>
                <note key="57" pos="348" len="-192" vol="100" pan="0"/>
              </pattern>
              <pattern steps="32" muted="0" type="0" pos="1920" name="snare.wav"/>
              <pattern steps="64" muted="0" type="0" pos="2112" name="snare.wav">
                <note key="57" pos="48" len="-192" vol="100" pan="0"/>
                <note key="57" pos="144" len="-192" vol="100" pan="0"/>
                <note key="57" pos="240" len="-192" vol="100" pan="0"/>
                <note key="57" pos="336" len="-192" vol="100" pan="0"/>
                <note key="57" pos="432" len="-192" vol="100" pan="0"/>
                <note key="57" pos="528" len="-192" vol="100" pan="0"/>
                <note key="57" pos="624" len="-192" vol="100" pan="0"/>
                <note key="57" pos="720" len="-192" vol="100" pan="0"/>
              </pattern>
              <pattern steps="64" muted="0" type="0" pos="2304" name="snare.wav">
                <note key="57" pos="0" len="-192" vol="100" pan="0"/>
                <note key="57" pos="48" len="-192" vol="100" pan="0"/>
                <note key="57" pos="96" len="-192" vol="100" pan="0"/>
                <note key="57" pos="144" len="-192" vol="100" pan="0"/>
                <note key="57" pos="192" len="-192" vol="100" pan="0"/>
                <note key="57" pos="240" len="-192" vol="100" pan="0"/>
                <note key="57" pos="288" len="-192" vol="100" pan="0"/>
                <note key="57" pos="336" len="-192" vol="100" pan="0"/>
                <note key="57" pos="384" len="-192" vol="100" pan="0"/>
                <note key="57" pos="432" len="-192" vol="100" pan="0"/>
                <note key="57" pos="480" len="-192" vol="100" pan="0"/>
                <note key="57" pos="528" len="-192" vol="100" pan="0"/>
                <note key="57" pos="576" len="-192" vol="100" pan="0"/>
                <note key="57" pos="624" len="-192" vol="100" pan="0"/>
                <note key="57" pos="672" len="-192" vol="100" pan="0"/>
                <note key="57" pos="720" len="-192" vol="100" pan="0"/>
              </pattern>
              <pattern steps="64" muted="0" type="0" pos="2496" name="snare.wav">
                <note key="57" pos="48" len="-192" vol="100" pan="0"/>
                <note key="57" pos="144" len="-192" vol="100" pan="0"/>
                <note key="57" pos="240" len="-192" vol="100" pan="0"/>
                <note key="57" pos="336" len="-192" vol="100" pan="0"/>
                <note key="57" pos="432" len="-192" vol="100" pan="0"/>
                <note key="57" pos="528" len="-192" vol="100" pan="0"/>
                <note key="57" pos="624" len="-192" vol="100" pan="0"/>
                <note key="57" pos="720" len="-192" vol="100" pan="0"/>
              </pattern>
              <pattern steps="64" muted="0" type="0" pos="2688" name="snare.wav">
                <note key="57" pos="48" len="-192" vol="100" pan="0"/>
                <note key="57" pos="144" len="-192" vol="100" pan="0"/>
                <note key="57" pos="240" len="-192" vol="100" pan="0"/>
                <note key="57" pos="336" len="-192" vol="100" pan="0"/>
                <note key="57" pos="432" len="-192" vol="100" pan="0"/>
                <note key="57" pos="528" len="-192" vol="100" pan="0"/>
                <note key="57" pos="624" len="-192" vol="100" pan="0"/>
                <note key="57" pos="720" len="-192" vol="100" pan="0"/>
              </pattern>
              <pattern steps="64" muted="0" type="0" pos="2880" name="snare.wav">
                <note key="57" pos="0" len="-192" vol="100" pan="0"/>
                <note key="57" pos="48" len="-192" vol="100" pan="0"/>
                <note key="57" pos="96" len="-192" vol="100" pan="0"/>
                <note key="57" pos="144" len="-192" vol="100" pan="0"/>
                <note key="57" pos="192" len="-192" vol="100" pan="0"/>
                <note key="57" pos="240" len="-192" vol="100" pan="0"/>
                <note key="57" pos="288" len="-192" vol="100" pan="0"/>
                <note key="57" pos="336" len="-192" vol="100" pan="0"/>
                <note key="57" pos="384" len="-192" vol="100" pan="0"/>
                <note key="57" pos="432" len="-192" vol="100" pan="0"/>
                <note key="57" pos="480" len="-192" vol="100" pan="0"/>
                <note key="57" pos="528" len="-192" vol="100" pan="0"/>
                <note key="57" pos="576" len="-192" vol="100" pan="0"/>
                <note key="57" pos="624" len="-192" vol="100" pan="0"/>
                <note key="57" pos="672" len="-192" vol="100" pan="0"/>
                <note key="57" pos="720" len="-192" vol="100" pan="0"/>
              </pattern>
              <pattern steps="16" muted="0" type="0" pos="3072" name="snare.wav"/>
              <pattern steps="16" muted="0" type="0" pos="3264" name="snare.wav">
                <note key="57" pos="48" len="-192" vol="100" pan="0"/>
                <note key="57" pos="144" len="-192" vol="100" pan="0"/>
              </pattern>
              <pattern steps="16" muted="0" type="0" pos="3456" name="snare.wav"/>
              <pattern steps="64" muted="0" type="0" pos="3648" name="snare.wav">
                <note key="57" pos="96" len="-192" vol="100" pan="0"/>
                <note key="57" pos="240" len="-192" vol="100" pan="0"/>
                <note key="57" pos="288" len="-192" vol="100" pan="0"/>
                <note key="57" pos="384" len="-192" vol="100" pan="0"/>
                <note key="57" pos="456" len="-192" vol="100" pan="0"/>
                <note key="57" pos="624" len="-192" vol="100" pan="0"/>
                <note key="57" pos="672" len="-192" vol="100" pan="0"/>
                <note key="57" pos="720" len="-192" vol="100" pan="0"/>
              </pattern>
              <pattern steps="80" muted="0" type="0" pos="3840" name="snare.wav">
                <note key="57" pos="0" len="-192" vol="100" pan="0"/>
                <note key="57" pos="72" len="-192" vol="100" pan="0"/>
                <note key="57" pos="144" len="-192" vol="100" pan="0"/>
                <note key="57" pos="216" len="-192" vol="100" pan="0"/>
                <note key="57" pos="288" len="-192" vol="100" pan="0"/>
                <note key="57" pos="336" len="-192" vol="100" pan="0"/>
                <note key="57" pos="384" len="-192" vol="100" pan="0"/>
                <note key="57" pos="624" len="-192" vol="100" pan="0"/>
              </pattern>
              <pattern steps="32" muted="0" type="0" pos="4032" name="snare.wav">
                <note key="57" pos="0" len="-192" vol="100" pan="0"/>
                <note key="57" pos="36" len="-192" vol="100" pan="0"/>
                <note key="57" pos="72" len="-192" vol="100" pan="0"/>
                <note key="57" pos="108" len="-192" vol="100" pan="0"/>
                <note key="57" pos="144" len="-192" vol="100" pan="0"/>
                <note key="57" pos="168" len="-192" vol="100" pan="0"/>
                <note key="57" pos="192" len="-192" vol="100" pan="0"/>
                <note key="57" pos="204" len="-192" vol="100" pan="0"/>
              </pattern>
            </track>
            <track solo="0" muted="0" type="0" name="crash1.wav">
              <instrumenttrack basenote="57" pitchrange="1" pitch="0" usemasterpitch="1" vol="71.2" pan="0" fxch="4">
                <instrument name="audiofileprocessor">
                  <audiofileprocessor amp="100" interp="1" reversed="0" eframe="1" stutter="0" looped="0" sframe="0" lframe="0" src="/home/pass/samples/sillydrums/crash1.wav"/>
                </instrument>
                <eldata fwet="0" ftype="0" fcut="14000" fres="0.5">
                  <elvol ctlenvamt="0" lamt="0" amt="1" latt="0" lspd_syncmode="0" dec="2" lpdel="0" att="0" lspd_denominator="4" hold="2" lspd="0.1" lspd_numerator="4" sustain="1" lshp="0" pdel="0" x100="0" rel="2" userwavefile=""/>
                  <elcut ctlenvamt="0" lamt="0" amt="0" latt="0" lspd_syncmode="0" dec="0.5" lpdel="0" att="0" lspd_denominator="4" hold="0.5" lspd="0.1" lspd_numerator="4" sustain="0.5" lshp="0" pdel="0" x100="0" rel="0.1" userwavefile=""/>
                  <elres ctlenvamt="0" lamt="0" amt="0" latt="0" lspd_syncmode="0" dec="0.5" lpdel="0" att="0" lspd_denominator="4" hold="0.5" lspd="0.1" lspd_numerator="4" sustain="0.5" lshp="0" pdel="0" x100="0" rel="0.1" userwavefile=""/>
                </eldata>
                <chordcreator chordrange="1" chord-enabled="0" chord="0"/>
                <arpeggiator arptime_syncmode="0" arpdir="0" arptime_numerator="4" arpmode="0" arp="0" arpmiss="0" arptime="200" arpgate="100" arp-enabled="0" arpskip="0" arptime_denominator="4" arprange="1" arpcycle="0"/>
                <midiport writable="0" fixedinputvelocity="-1" outputchannel="1" fixedoutputvelocity="-1" outputcontroller="0" basevelocity="63" fixedoutputnote="-1" inputchannel="0" inputcontroller="0" outputprogram="1" readable="0"/>
                <fxchain numofeffects="0" enabled="0"/>
              </instrumenttrack>
              <pattern steps="64" muted="0" type="0" pos="0" name="crash1.wav">
                <note key="57" pos="0" len="-192" vol="100" pan="0"/>
                <note key="57" pos="384" len="-192" vol="100" pan="0"/>
              </pattern>
              <pattern steps="32" muted="0" type="0" pos="192" name="crash1.wav">
                <note key="57" pos="0" len="-192" vol="100" pan="0"/>
              </pattern>
              <pattern steps="32" muted="0" type="0" pos="384" name="crash1.wav">
                <note key="57" pos="192" len="-192" vol="100" pan="0"/>
              </pattern>
              <pattern steps="64" muted="0" type="0" pos="576" name="crash1.wav">
                <note key="57" pos="0" len="-192" vol="100" pan="0"/>
              </pattern>
              <pattern steps="16" muted="0" type="0" pos="768" name="crash1.wav"/>
              <pattern steps="64" muted="0" type="0" pos="960" name="crash1.wav">
                <note key="57" pos="0" len="-192" vol="100" pan="0"/>
                <note key="57" pos="384" len="-192" vol="100" pan="0"/>
              </pattern>
              <pattern steps="64" muted="0" type="0" pos="1152" name="crash1.wav">
                <note key="57" pos="0" len="-192" vol="100" pan="0"/>
                <note key="57" pos="384" len="-192" vol="100" pan="0"/>
              </pattern>
              <pattern steps="64" muted="0" type="0" pos="1344" name="crash1.wav">
                <note key="57" pos="0" len="-192" vol="100" pan="0"/>
              </pattern>
              <pattern steps="32" muted="0" type="0" pos="1536" name="crash1.wav"/>
              <pattern steps="48" muted="0" type="0" pos="1728" name="crash1.wav">
                <note key="57" pos="0" len="-192" vol="100" pan="0"/>
                <note key="57" pos="384" len="-192" vol="100" pan="0"/>
              </pattern>
              <pattern steps="32" muted="0" type="0" pos="1920" name="crash1.wav">
                <note key="57" pos="0" len="-192" vol="100" pan="0"/>
              </pattern>
              <pattern steps="64" muted="0" type="0" pos="2112" name="crash1.wav">
                <note key="57" pos="0" len="-192" vol="100" pan="0"/>
              </pattern>
              <pattern steps="64" muted="0" type="0" pos="2304" name="crash1.wav">
                <note key="57" pos="0" len="-192" vol="100" pan="0"/>
              </pattern>
              <pattern steps="64" muted="0" type="0" pos="2496" name="crash1.wav">
                <note key="57" pos="0" len="-192" vol="100" pan="0"/>
                <note key="57" pos="384" len="-192" vol="100" pan="0"/>
              </pattern>
              <pattern steps="64" muted="0" type="0" pos="2688" name="crash1.wav">
                <note key="57" pos="0" len="-192" vol="100" pan="0"/>
              </pattern>
              <pattern steps="64" muted="0" type="0" pos="2880" name="crash1.wav">
                <note key="57" pos="0" len="-192" vol="100" pan="0"/>
                <note key="57" pos="384" len="-192" vol="100" pan="0"/>
              </pattern>
              <pattern steps="16" muted="0" type="0" pos="3072" name="crash1.wav">
                <note key="57" pos="0" len="-192" vol="100" pan="0"/>
                <note key="57" pos="144" len="-192" vol="100" pan="0"/>
              </pattern>
              <pattern steps="16" muted="0" type="0" pos="3264" name="crash1.wav"/>
              <pattern steps="16" muted="0" type="0" pos="3456" name="crash1.wav"/>
              <pattern steps="64" muted="0" type="0" pos="3648" name="crash1.wav">
                <note key="57" pos="0" len="-192" vol="100" pan="0"/>
                <note key="57" pos="384" len="-192" vol="100" pan="0"/>
              </pattern>
              <pattern steps="80" muted="0" type="0" pos="3840" name="crash1.wav">
                <note key="57" pos="0" len="-192" vol="100" pan="0"/>
                <note key="57" pos="144" len="-192" vol="100" pan="0"/>
                <note key="57" pos="288" len="-192" vol="100" pan="0"/>
                <note key="57" pos="384" len="-192" vol="100" pan="0"/>
                <note key="57" pos="456" len="-192" vol="100" pan="0"/>
                <note key="57" pos="504" len="-192" vol="100" pan="0"/>
                <note key="57" pos="672" len="-192" vol="100" pan="0"/>
                <note key="57" pos="744" len="-192" vol="100" pan="0"/>
                <note key="57" pos="828" len="-192" vol="100" pan="0"/>
              </pattern>
              <pattern steps="32" muted="0" type="0" pos="4032" name="crash1.wav">
                <note key="57" pos="0" len="-192" vol="100" pan="0"/>
              </pattern>
            </track>
            <track solo="0" muted="0" type="0" name="crash1m">
              <instrumenttrack basenote="57" pitchrange="1" pitch="0" usemasterpitch="1" vol="71.2" pan="0" fxch="4">
                <instrument name="audiofileprocessor">
                  <audiofileprocessor amp="100" interp="1" reversed="0" eframe="1" stutter="0" looped="0" sframe="0" lframe="0" src="/home/pass/samples/sillydrums/crash1.wav"/>
                </instrument>
                <eldata fwet="0" ftype="0" fcut="14000" fres="0.5">
                  <elvol ctlenvamt="0" lamt="0" amt="1" latt="0" lspd_syncmode="0" dec="0.216" lpdel="0" att="0" lspd_denominator="4" hold="0.232" lspd="0.1" lspd_numerator="4" sustain="0" lshp="0" pdel="0" x100="0" rel="0.208" userwavefile=""/>
                  <elcut ctlenvamt="0" lamt="0" amt="0" latt="0" lspd_syncmode="0" dec="0.5" lpdel="0" att="0" lspd_denominator="4" hold="0.5" lspd="0.1" lspd_numerator="4" sustain="0.5" lshp="0" pdel="0" x100="0" rel="0.1" userwavefile=""/>
                  <elres ctlenvamt="0" lamt="0" amt="0" latt="0" lspd_syncmode="0" dec="0.5" lpdel="0" att="0" lspd_denominator="4" hold="0.5" lspd="0.1" lspd_numerator="4" sustain="0.5" lshp="0" pdel="0" x100="0" rel="0.1" userwavefile=""/>
                </eldata>
                <chordcreator chordrange="1" chord-enabled="0" chord="0"/>
                <arpeggiator arptime_syncmode="0" arpdir="0" arptime_numerator="4" arpmode="0" arp="0" arpmiss="0" arptime="200" arpgate="100" arp-enabled="0" arpskip="0" arptime_denominator="4" arprange="1" arpcycle="0"/>
                <midiport writable="0" fixedinputvelocity="-1" outputchannel="1" fixedoutputvelocity="-1" outputcontroller="0" basevelocity="63" fixedoutputnote="-1" inputchannel="0" inputcontroller="0" outputprogram="1" readable="0"/>
                <fxchain numofeffects="0" enabled="0"/>
              </instrumenttrack>
              <pattern steps="64" muted="0" type="0" pos="0" name="crash1m"/>
              <pattern steps="32" muted="0" type="0" pos="192" name="crash1m"/>
              <pattern steps="32" muted="0" type="0" pos="384" name="crash1m">
                <note key="57" pos="0" len="-192" vol="100" pan="0"/>
                <note key="57" pos="48" len="-192" vol="100" pan="0"/>
                <note key="57" pos="96" len="-192" vol="100" pan="0"/>
                <note key="57" pos="144" len="-192" vol="100" pan="0"/>
                <note key="57" pos="168" len="-192" vol="100" pan="0"/>
                <note key="57" pos="288" len="-192" vol="100" pan="0"/>
              </pattern>
              <pattern steps="64" muted="0" type="0" pos="576" name="crash1m"/>
              <pattern steps="16" muted="0" type="0" pos="768" name="crash1m"/>
              <pattern steps="64" muted="0" type="0" pos="960" name="crash1m"/>
              <pattern steps="64" muted="0" type="0" pos="1152" name="crash1m"/>
              <pattern steps="64" muted="0" type="0" pos="1344" name="crash1m"/>
              <pattern steps="32" muted="0" type="0" pos="1536" name="crash1m">
                <note key="57" pos="0" len="-192" vol="100" pan="0"/>
              </pattern>
              <pattern steps="48" muted="0" type="0" pos="1728" name="crash1m"/>
              <pattern steps="32" muted="0" type="0" pos="1920" name="crash1m"/>
              <pattern steps="64" muted="0" type="0" pos="2112" name="crash1m"/>
              <pattern steps="64" muted="0" type="0" pos="2304" name="crash1m"/>
              <pattern steps="64" muted="0" type="0" pos="2496" name="crash1m"/>
              <pattern steps="64" muted="0" type="0" pos="2688" name="crash1m"/>
              <pattern steps="64" muted="0" type="0" pos="2880" name="crash1m"/>
              <pattern steps="16" muted="0" type="0" pos="3072" name="crash1m"/>
              <pattern steps="16" muted="0" type="0" pos="3264" name="crash1m"/>
              <pattern steps="16" muted="0" type="0" pos="3456" name="crash1m"/>
              <pattern steps="64" muted="0" type="0" pos="3648" name="crash1m">
                <note key="57" pos="528" len="-192" vol="100" pan="0"/>
              </pattern>
              <pattern steps="80" muted="0" type="0" pos="3840" name="crash1m"/>
              <pattern steps="32" muted="0" type="0" pos="4032" name="crash1m">
                <note key="57" pos="288" len="-192" vol="100" pan="0"/>
              </pattern>
            </track>
            <track solo="0" muted="0" type="0" name="crash2.wav">
              <instrumenttrack basenote="57" pitchrange="1" pitch="0" usemasterpitch="1" vol="76.8" pan="28" fxch="5">
                <instrument name="audiofileprocessor">
                  <audiofileprocessor amp="100" interp="1" reversed="0" eframe="1" stutter="0" looped="0" sframe="0" lframe="0" src="/home/pass/samples/sillydrums/crash2.wav"/>
                </instrument>
                <eldata fwet="0" ftype="0" fcut="14000" fres="0.5">
                  <elvol ctlenvamt="0" lamt="0" amt="1" latt="0" lspd_syncmode="0" dec="2" lpdel="0" att="0" lspd_denominator="4" hold="2" lspd="0.1" lspd_numerator="4" sustain="1" lshp="0" pdel="0" x100="0" rel="2" userwavefile=""/>
                  <elcut ctlenvamt="0" lamt="0" amt="0" latt="0" lspd_syncmode="0" dec="0.5" lpdel="0" att="0" lspd_denominator="4" hold="0.5" lspd="0.1" lspd_numerator="4" sustain="0.5" lshp="0" pdel="0" x100="0" rel="0.1" userwavefile=""/>
                  <elres ctlenvamt="0" lamt="0" amt="0" latt="0" lspd_syncmode="0" dec="0.5" lpdel="0" att="0" lspd_denominator="4" hold="0.5" lspd="0.1" lspd_numerator="4" sustain="0.5" lshp="0" pdel="0" x100="0" rel="0.1" userwavefile=""/>
                </eldata>
                <chordcreator chordrange="1" chord-enabled="0" chord="0"/>
                <arpeggiator arptime_syncmode="0" arpdir="0" arptime_numerator="4" arpmode="0" arp="0" arpmiss="0" arptime="200" arpgate="100" arp-enabled="0" arpskip="0" arptime_denominator="4" arprange="1" arpcycle="0"/>
                <midiport writable="0" fixedinputvelocity="-1" outputchannel="1" fixedoutputvelocity="-1" outputcontroller="0" basevelocity="63" fixedoutputnote="-1" inputchannel="0" inputcontroller="0" outputprogram="1" readable="0"/>
                <fxchain numofeffects="0" enabled="0"/>
              </instrumenttrack>
              <pattern steps="64" muted="0" type="0" pos="0" name="crash2.wav">
                <note key="57" pos="192" len="-192" vol="100" pan="0"/>
                <note key="57" pos="576" len="-192" vol="100" pan="0"/>
              </pattern>
              <pattern steps="32" muted="0" type="0" pos="192" name="crash2.wav">
                <note key="57" pos="192" len="-192" vol="100" pan="0"/>
              </pattern>
              <pattern steps="32" muted="0" type="0" pos="384" name="crash2.wav"/>
              <pattern steps="64" muted="0" type="0" pos="576" name="crash2.wav">
                <note key="57" pos="384" len="-192" vol="100" pan="0"/>
              </pattern>
              <pattern steps="16" muted="0" type="0" pos="768" name="crash2.wav"/>
              <pattern steps="64" muted="0" type="0" pos="960" name="crash2.wav">
                <note key="57" pos="192" len="-192" vol="100" pan="0"/>
              </pattern>
              <pattern steps="64" muted="0" type="0" pos="1152" name="crash2.wav">
                <note key="57" pos="192" len="-192" vol="100" pan="0"/>
              </pattern>
              <pattern steps="64" muted="0" type="0" pos="1344" name="crash2.wav">
                <note key="57" pos="384" len="-192" vol="100" pan="0"/>
              </pattern>
              <pattern steps="32" muted="0" type="0" pos="1536" name="crash2.wav"/>
              <pattern steps="48" muted="0" type="0" pos="1728" name="crash2.wav">
                <note key="57" pos="288" len="-192" vol="100" pan="0"/>
                <note key="57" pos="384" len="-192" vol="100" pan="0"/>
              </pattern>
              <pattern steps="32" muted="0" type="0" pos="1920" name="crash2.wav">
                <note key="57" pos="144" len="-192" vol="100" pan="0"/>
                <note key="57" pos="336" len="-192" vol="100" pan="0"/>
              </pattern>
              <pattern steps="64" muted="0" type="0" pos="2112" name="crash2.wav">
                <note key="57" pos="384" len="-192" vol="100" pan="0"/>
              </pattern>
              <pattern steps="64" muted="0" type="0" pos="2304" name="crash2.wav">
                <note key="57" pos="384" len="-192" vol="100" pan="0"/>
              </pattern>
              <pattern steps="64" muted="0" type="0" pos="2496" name="crash2.wav">
                <note key="57" pos="528" len="-192" vol="100" pan="0"/>
              </pattern>
              <pattern steps="64" muted="0" type="0" pos="2688" name="crash2.wav">
                <note key="57" pos="384" len="-192" vol="100" pan="0"/>
              </pattern>
              <pattern steps="64" muted="0" type="0" pos="2880" name="crash2.wav">
                <note key="57" pos="528" len="-192" vol="100" pan="0"/>
              </pattern>
              <pattern steps="16" muted="0" type="0" pos="3072" name="crash2.wav">
                <note key="57" pos="72" len="-192" vol="100" pan="0"/>
              </pattern>
              <pattern steps="16" muted="0" type="0" pos="3264" name="crash2.wav"/>
              <pattern steps="16" muted="0" type="0" pos="3456" name="crash2.wav"/>
              <pattern steps="64" muted="0" type="0" pos="3648" name="crash2.wav">
                <note key="57" pos="144" len="-192" vol="100" pan="0"/>
                <note key="57" pos="456" len="-192" vol="65" pan="0"/>
              </pattern>
              <pattern steps="80" muted="0" type="0" pos="3840" name="crash2.wav">
                <note key="57" pos="72" len="-192" vol="100" pan="0"/>
                <note key="57" pos="216" len="-192" vol="100" pan="0"/>
                <note key="57" pos="336" len="-192" vol="100" pan="0"/>
                <note key="57" pos="552" len="-192" vol="100" pan="0"/>
                <note key="57" pos="672" len="-192" vol="100" pan="0"/>
                <note key="57" pos="744" len="-192" vol="100" pan="0"/>
                <note key="57" pos="828" len="-192" vol="100" pan="0"/>
              </pattern>
              <pattern steps="32" muted="0" type="0" pos="4032" name="crash2.wav"/>
            </track>
            <track solo="0" muted="0" type="0" name="china.wav">
              <instrumenttrack basenote="57" pitchrange="1" pitch="0" usemasterpitch="1" vol="63.2" pan="0" fxch="6">
                <instrument name="audiofileprocessor">
                  <audiofileprocessor amp="100" interp="1" reversed="0" eframe="1" stutter="0" looped="0" sframe="0" lframe="0" src="/home/pass/samples/sillydrums/china.wav"/>
                </instrument>
                <eldata fwet="0" ftype="0" fcut="14000" fres="0.5">
                  <elvol ctlenvamt="0" lamt="0" amt="1" latt="0" lspd_syncmode="0" dec="2" lpdel="0" att="0" lspd_denominator="4" hold="2" lspd="0.1" lspd_numerator="4" sustain="1" lshp="0" pdel="0" x100="0" rel="2" userwavefile=""/>
                  <elcut ctlenvamt="0" lamt="0" amt="0" latt="0" lspd_syncmode="0" dec="0.5" lpdel="0" att="0" lspd_denominator="4" hold="0.5" lspd="0.1" lspd_numerator="4" sustain="0.5" lshp="0" pdel="0" x100="0" rel="0.1" userwavefile=""/>
                  <elres ctlenvamt="0" lamt="0" amt="0" latt="0" lspd_syncmode="0" dec="0.5" lpdel="0" att="0" lspd_denominator="4" hold="0.5" lspd="0.1" lspd_numerator="4" sustain="0.5" lshp="0" pdel="0" x100="0" rel="0.1" userwavefile=""/>
                </eldata>
                <chordcreator chordrange="1" chord-enabled="0" chord="0"/>
                <arpeggiator arptime_syncmode="0" arpdir="0" arptime_numerator="4" arpmode="0" arp="0" arpmiss="0" arptime="200" arpgate="100" arp-enabled="0" arpskip="0" arptime_denominator="4" arprange="1" arpcycle="0"/>
                <midiport writable="0" fixedinputvelocity="-1" outputchannel="1" fixedoutputvelocity="-1" outputcontroller="0" basevelocity="63" fixedoutputnote="-1" inputchannel="0" inputcontroller="0" outputprogram="1" readable="0"/>
                <fxchain numofeffects="0" enabled="0"/>
              </instrumenttrack>
              <pattern steps="64" muted="0" type="0" pos="0" name="china.wav"/>
              <pattern steps="32" muted="0" type="0" pos="192" name="china.wav"/>
              <pattern steps="32" muted="0" type="0" pos="384" name="china.wav"/>
              <pattern steps="64" muted="0" type="0" pos="576" name="china.wav"/>
              <pattern steps="16" muted="0" type="0" pos="768" name="china.wav"/>
              <pattern steps="64" muted="0" type="0" pos="960" name="china.wav"/>
              <pattern steps="64" muted="0" type="0" pos="1152" name="china.wav"/>
              <pattern steps="64" muted="0" type="0" pos="1344" name="china.wav"/>
              <pattern steps="32" muted="0" type="0" pos="1536" name="china.wav"/>
              <pattern steps="48" muted="0" type="0" pos="1728" name="china.wav"/>
              <pattern steps="32" muted="0" type="0" pos="1920" name="china.wav">
                <note key="57" pos="288" len="-192" vol="100" pan="0"/>
              </pattern>
              <pattern steps="64" muted="0" type="0" pos="2112" name="china.wav"/>
              <pattern steps="64" muted="0" type="0" pos="2304" name="china.wav"/>
              <pattern steps="64" muted="0" type="0" pos="2496" name="china.wav"/>
              <pattern steps="64" muted="0" type="0" pos="2688" name="china.wav"/>
              <pattern steps="64" muted="0" type="0" pos="2880" name="china.wav"/>
              <pattern steps="16" muted="0" type="0" pos="3072" name="china.wav"/>
              <pattern steps="16" muted="0" type="0" pos="3264" name="china.wav"/>
              <pattern steps="16" muted="0" type="0" pos="3456" name="china.wav"/>
              <pattern steps="64" muted="0" type="0" pos="3648" name="china.wav"/>
              <pattern steps="80" muted="0" type="0" pos="3840" name="china.wav"/>
              <pattern steps="32" muted="0" type="0" pos="4032" name="china.wav">
                <note key="57" pos="36" len="-192" vol="100" pan="0"/>
                <note key="57" pos="72" len="-192" vol="100" pan="0"/>
                <note key="57" pos="108" len="-192" vol="100" pan="0"/>
                <note key="57" pos="144" len="-192" vol="100" pan="0"/>
                <note key="57" pos="168" len="-192" vol="100" pan="0"/>
              </pattern>
            </track>
            <track solo="0" muted="0" type="0" name="hiTom.wav">
              <instrumenttrack basenote="57" pitchrange="1" pitch="0" usemasterpitch="1" vol="130.4" pan="0" fxch="7">
                <instrument name="audiofileprocessor">
                  <audiofileprocessor amp="100" interp="1" reversed="0" eframe="1" stutter="0" looped="0" sframe="0" lframe="0" src="/home/pass/samples/sillydrums/hiTom.wav"/>
                </instrument>
                <eldata fwet="0" ftype="0" fcut="14000" fres="0.5">
                  <elvol ctlenvamt="0" lamt="0" amt="1" latt="0" lspd_syncmode="0" dec="2" lpdel="0" att="0" lspd_denominator="4" hold="2" lspd="0.1" lspd_numerator="4" sustain="1" lshp="0" pdel="0" x100="0" rel="2" userwavefile=""/>
                  <elcut ctlenvamt="0" lamt="0" amt="0" latt="0" lspd_syncmode="0" dec="0.5" lpdel="0" att="0" lspd_denominator="4" hold="0.5" lspd="0.1" lspd_numerator="4" sustain="0.5" lshp="0" pdel="0" x100="0" rel="0.1" userwavefile=""/>
                  <elres ctlenvamt="0" lamt="0" amt="0" latt="0" lspd_syncmode="0" dec="0.5" lpdel="0" att="0" lspd_denominator="4" hold="0.5" lspd="0.1" lspd_numerator="4" sustain="0.5" lshp="0" pdel="0" x100="0" rel="0.1" userwavefile=""/>
                </eldata>
                <chordcreator chordrange="1" chord-enabled="0" chord="0"/>
                <arpeggiator arptime_syncmode="0" arpdir="0" arptime_numerator="4" arpmode="0" arp="0" arpmiss="0" arptime="200" arpgate="100" arp-enabled="0" arpskip="0" arptime_denominator="4" arprange="1" arpcycle="0"/>
                <midiport writable="0" fixedinputvelocity="-1" outputchannel="1" fixedoutputvelocity="-1" outputcontroller="0" basevelocity="63" fixedoutputnote="-1" inputchannel="0" inputcontroller="0" outputprogram="1" readable="0"/>
                <fxchain numofeffects="0" enabled="0"/>
              </instrumenttrack>
              <pattern steps="64" muted="0" type="0" pos="0" name="hiTom.wav">
                <note key="57" pos="480" len="-192" vol="100" pan="0"/>
                <note key="57" pos="528" len="-192" vol="100" pan="0"/>
              </pattern>
              <pattern steps="32" muted="0" type="0" pos="192" name="hiTom.wav">
                <note key="57" pos="24" len="-192" vol="100" pan="0"/>
                <note key="57" pos="36" len="-192" vol="100" pan="0"/>
                <note key="57" pos="108" len="-192" vol="100" pan="0"/>
                <note key="57" pos="156" len="-192" vol="100" pan="0"/>
                <note key="57" pos="216" len="-192" vol="100" pan="0"/>
                <note key="57" pos="228" len="-192" vol="100" pan="0"/>
                <note key="57" pos="300" len="-192" vol="100" pan="0"/>
                <note key="57" pos="348" len="-192" vol="100" pan="0"/>
              </pattern>
              <pattern steps="32" muted="0" type="0" pos="384" name="hiTom.wav">
                <note key="57" pos="252" len="-192" vol="100" pan="0"/>
              </pattern>
              <pattern steps="64" muted="0" type="0" pos="576" name="hiTom.wav"/>
              <pattern steps="16" muted="0" type="0" pos="768" name="hiTom.wav"/>
              <pattern steps="64" muted="0" type="0" pos="960" name="hiTom.wav"/>
              <pattern steps="64" muted="0" type="0" pos="1152" name="hiTom.wav">
                <note key="57" pos="684" len="-192" vol="100" pan="0"/>
                <note key="57" pos="732" len="-192" vol="100" pan="0"/>
              </pattern>
              <pattern steps="64" muted="0" type="0" pos="1344" name="hiTom.wav"/>
              <pattern steps="32" muted="0" type="0" pos="1536" name="hiTom.wav"/>
              <pattern steps="48" muted="0" type="0" pos="1728" name="hiTom.wav">
                <note key="57" pos="300" len="-192" vol="100" pan="0"/>
              </pattern>
              <pattern steps="32" muted="0" type="0" pos="1920" name="hiTom.wav"/>
              <pattern steps="64" muted="0" type="0" pos="2112" name="hiTom.wav"/>
              <pattern steps="64" muted="0" type="0" pos="2304" name="hiTom.wav"/>
              <pattern steps="64" muted="0" type="0" pos="2496" name="hiTom.wav"/>
              <pattern steps="64" muted="0" type="0" pos="2688" name="hiTom.wav"/>
              <pattern steps="64" muted="0" type="0" pos="2880" name="hiTom.wav"/>
              <pattern steps="16" muted="0" type="0" pos="3072" name="hiTom.wav"/>
              <pattern steps="16" muted="0" type="0" pos="3264" name="hiTom.wav"/>
              <pattern steps="16" muted="0" type="0" pos="3456" name="hiTom.wav"/>
              <pattern steps="64" muted="0" type="0" pos="3648" name="hiTom.wav">
                <note key="57" pos="72" len="-192" vol="100" pan="0"/>
                <note key="57" pos="84" len="-192" vol="100" pan="0"/>
                <note key="57" pos="216" len="-192" vol="100" pan="0"/>
                <note key="57" pos="312" len="-192" vol="100" pan="0"/>
                <note key="57" pos="408" len="-192" vol="100" pan="0"/>
                <note key="57" pos="432" len="-192" vol="100" pan="0"/>
                <note key="57" pos="696" len="-192" vol="100" pan="0"/>
              </pattern>
              <pattern steps="80" muted="0" type="0" pos="3840" name="hiTom.wav">
                <note key="57" pos="24" len="-192" vol="100" pan="0"/>
                <note key="57" pos="48" len="-192" vol="100" pan="0"/>
                <note key="57" pos="96" len="-192" vol="100" pan="0"/>
                <note key="57" pos="120" len="-192" vol="100" pan="0"/>
                <note key="57" pos="408" len="-192" vol="100" pan="0"/>
                <note key="57" pos="600" len="-192" vol="100" pan="0"/>
              </pattern>
              <pattern steps="32" muted="0" type="0" pos="4032" name="hiTom.wav">
                <note key="57" pos="216" len="-192" vol="100" pan="0"/>
                <note key="57" pos="228" len="-192" vol="100" pan="0"/>
              </pattern>
            </track>
            <track solo="0" muted="0" type="0" name="midTom.wav">
              <instrumenttrack basenote="57" pitchrange="1" pitch="0" usemasterpitch="1" vol="130.4" pan="0" fxch="8">
                <instrument name="audiofileprocessor">
                  <audiofileprocessor amp="100" interp="1" reversed="0" eframe="1" stutter="0" looped="0" sframe="0" lframe="0" src="/home/pass/samples/sillydrums/midTom.wav"/>
                </instrument>
                <eldata fwet="0" ftype="0" fcut="14000" fres="0.5">
                  <elvol ctlenvamt="0" lamt="0" amt="1" latt="0" lspd_syncmode="0" dec="2" lpdel="0" att="0" lspd_denominator="4" hold="2" lspd="0.1" lspd_numerator="4" sustain="1" lshp="0" pdel="0" x100="0" rel="2" userwavefile=""/>
                  <elcut ctlenvamt="0" lamt="0" amt="0" latt="0" lspd_syncmode="0" dec="0.5" lpdel="0" att="0" lspd_denominator="4" hold="0.5" lspd="0.1" lspd_numerator="4" sustain="0.5" lshp="0" pdel="0" x100="0" rel="0.1" userwavefile=""/>
                  <elres ctlenvamt="0" lamt="0" amt="0" latt="0" lspd_syncmode="0" dec="0.5" lpdel="0" att="0" lspd_denominator="4" hold="0.5" lspd="0.1" lspd_numerator="4" sustain="0.5" lshp="0" pdel="0" x100="0" rel="0.1" userwavefile=""/>
                </eldata>
                <chordcreator chordrange="1" chord-enabled="0" chord="0"/>
                <arpeggiator arptime_syncmode="0" arpdir="0" arptime_numerator="4" arpmode="0" arp="0" arpmiss="0" arptime="200" arpgate="100" arp-enabled="0" arpskip="0" arptime_denominator="4" arprange="1" arpcycle="0"/>
                <midiport writable="0" fixedinputvelocity="-1" outputchannel="1" fixedoutputvelocity="-1" outputcontroller="0" basevelocity="63" fixedoutputnote="-1" inputchannel="0" inputcontroller="0" outputprogram="1" readable="0"/>
                <fxchain numofeffects="0" enabled="0"/>
              </instrumenttrack>
              <pattern steps="64" muted="0" type="0" pos="0" name="midTom.wav">
                <note key="57" pos="336" len="-192" vol="100" pan="0"/>
                <note key="57" pos="360" len="-192" vol="100" pan="0"/>
                <note key="57" pos="480" len="-192" vol="100" pan="0"/>
                <note key="57" pos="528" len="-192" vol="100" pan="0"/>
              </pattern>
              <pattern steps="32" muted="0" type="0" pos="192" name="midTom.wav">
                <note key="57" pos="48" len="-192" vol="100" pan="0"/>
                <note key="57" pos="60" len="-192" vol="100" pan="0"/>
                <note key="57" pos="120" len="-192" vol="100" pan="0"/>
                <note key="57" pos="168" len="-192" vol="100" pan="0"/>
                <note key="57" pos="240" len="-192" vol="100" pan="0"/>
                <note key="57" pos="252" len="-192" vol="100" pan="0"/>
                <note key="57" pos="312" len="-192" vol="100" pan="0"/>
                <note key="57" pos="360" len="-192" vol="100" pan="0"/>
              </pattern>
              <pattern steps="32" muted="0" type="0" pos="384" name="midTom.wav">
                <note key="57" pos="264" len="-192" vol="100" pan="0"/>
              </pattern>
              <pattern steps="64" muted="0" type="0" pos="576" name="midTom.wav"/>
              <pattern steps="16" muted="0" type="0" pos="768" name="midTom.wav">
                <note key="57" pos="108" len="-192" vol="100" pan="0"/>
                <note key="57" pos="120" len="-192" vol="100" pan="0"/>
                <note key="57" pos="132" len="-192" vol="100" pan="0"/>
              </pattern>
              <pattern steps="64" muted="0" type="0" pos="960" name="midTom.wav"/>
              <pattern steps="64" muted="0" type="0" pos="1152" name="midTom.wav">
                <note key="57" pos="696" len="-192" vol="100" pan="0"/>
                <note key="57" pos="744" len="-192" vol="100" pan="0"/>
              </pattern>
              <pattern steps="64" muted="0" type="0" pos="1344" name="midTom.wav"/>
              <pattern steps="32" muted="0" type="0" pos="1536" name="midTom.wav"/>
              <pattern steps="48" muted="0" type="0" pos="1728" name="midTom.wav">
                <note key="57" pos="312" len="-192" vol="100" pan="0"/>
                <note key="57" pos="324" len="-192" vol="100" pan="0"/>
              </pattern>
              <pattern steps="32" muted="0" type="0" pos="1920" name="midTom.wav"/>
              <pattern steps="64" muted="0" type="0" pos="2112" name="midTom.wav"/>
              <pattern steps="64" muted="0" type="0" pos="2304" name="midTom.wav"/>
              <pattern steps="64" muted="0" type="0" pos="2496" name="midTom.wav"/>
              <pattern steps="64" muted="0" type="0" pos="2688" name="midTom.wav"/>
              <pattern steps="64" muted="0" type="0" pos="2880" name="midTom.wav"/>
              <pattern steps="16" muted="0" type="0" pos="3072" name="midTom.wav"/>
              <pattern steps="16" muted="0" type="0" pos="3264" name="midTom.wav"/>
              <pattern steps="16" muted="0" type="0" pos="3456" name="midTom.wav"/>
              <pattern steps="64" muted="0" type="0" pos="3648" name="midTom.wav">
                <note key="57" pos="120" len="-192" vol="100" pan="0"/>
                <note key="57" pos="216" len="-192" vol="100" pan="0"/>
                <note key="57" pos="264" len="-192" vol="100" pan="0"/>
                <note key="57" pos="336" len="-192" vol="100" pan="0"/>
                <note key="57" pos="408" len="-192" vol="100" pan="0"/>
                <note key="57" pos="432" len="-192" vol="100" pan="0"/>
                <note key="57" pos="480" len="-192" vol="100" pan="0"/>
                <note key="57" pos="504" len="-192" vol="100" pan="0"/>
                <note key="57" pos="600" len="-192" vol="100" pan="0"/>
                <note key="57" pos="696" len="-192" vol="100" pan="0"/>
                <note key="57" pos="732" len="-192" vol="100" pan="0"/>
              </pattern>
              <pattern steps="80" muted="0" type="0" pos="3840" name="midTom.wav">
                <note key="57" pos="24" len="-192" vol="100" pan="0"/>
                <note key="57" pos="48" len="-192" vol="100" pan="0"/>
                <note key="57" pos="96" len="-192" vol="100" pan="0"/>
                <note key="57" pos="120" len="-192" vol="100" pan="0"/>
                <note key="57" pos="168" len="-192" vol="100" pan="0"/>
                <note key="57" pos="192" len="-192" vol="100" pan="0"/>
                <note key="57" pos="240" len="-192" vol="100" pan="0"/>
                <note key="57" pos="264" len="-192" vol="100" pan="0"/>
                <note key="57" pos="312" len="-192" vol="100" pan="0"/>
                <note key="57" pos="432" len="-192" vol="100" pan="0"/>
                <note key="57" pos="648" len="-192" vol="100" pan="0"/>
              </pattern>
              <pattern steps="32" muted="0" type="0" pos="4032" name="midTom.wav">
                <note key="57" pos="240" len="-192" vol="100" pan="0"/>
                <note key="57" pos="252" len="-192" vol="100" pan="0"/>
              </pattern>
            </track>
            <track solo="0" muted="0" type="0" name="loTom.wav">
              <instrumenttrack basenote="57" pitchrange="1" pitch="0" usemasterpitch="1" vol="130.4" pan="0" fxch="9">
                <instrument name="audiofileprocessor">
                  <audiofileprocessor amp="100" interp="1" reversed="0" eframe="1" stutter="0" looped="0" sframe="0" lframe="0" src="/home/pass/samples/sillydrums/loTom.wav"/>
                </instrument>
                <eldata fwet="0" ftype="0" fcut="14000" fres="0.5">
                  <elvol ctlenvamt="0" lamt="0" amt="1" latt="0" lspd_syncmode="0" dec="2" lpdel="0" att="0" lspd_denominator="4" hold="2" lspd="0.1" lspd_numerator="4" sustain="1" lshp="0" pdel="0" x100="0" rel="2" userwavefile=""/>
                  <elcut ctlenvamt="0" lamt="0" amt="0" latt="0" lspd_syncmode="0" dec="0.5" lpdel="0" att="0" lspd_denominator="4" hold="0.5" lspd="0.1" lspd_numerator="4" sustain="0.5" lshp="0" pdel="0" x100="0" rel="0.1" userwavefile=""/>
                  <elres ctlenvamt="0" lamt="0" amt="0" latt="0" lspd_syncmode="0" dec="0.5" lpdel="0" att="0" lspd_denominator="4" hold="0.5" lspd="0.1" lspd_numerator="4" sustain="0.5" lshp="0" pdel="0" x100="0" rel="0.1" userwavefile=""/>
                </eldata>
                <chordcreator chordrange="1" chord-enabled="0" chord="0"/>
                <arpeggiator arptime_syncmode="0" arpdir="0" arptime_numerator="4" arpmode="0" arp="0" arpmiss="0" arptime="200" arpgate="100" arp-enabled="0" arpskip="0" arptime_denominator="4" arprange="1" arpcycle="0"/>
                <midiport writable="0" fixedinputvelocity="-1" outputchannel="1" fixedoutputvelocity="-1" outputcontroller="0" basevelocity="63" fixedoutputnote="-1" inputchannel="0" inputcontroller="0" outputprogram="1" readable="0"/>
                <fxchain numofeffects="0" enabled="0"/>
              </instrumenttrack>
              <pattern steps="64" muted="0" type="0" pos="0" name="loTom.wav"/>
              <pattern steps="32" muted="0" type="0" pos="192" name="loTom.wav">
                <note key="57" pos="72" len="-192" vol="100" pan="0"/>
                <note key="57" pos="84" len="-192" vol="100" pan="0"/>
                <note key="57" pos="132" len="-192" vol="100" pan="0"/>
                <note key="57" pos="180" len="-192" vol="100" pan="0"/>
                <note key="57" pos="264" len="-192" vol="100" pan="0"/>
                <note key="57" pos="276" len="-192" vol="100" pan="0"/>
                <note key="57" pos="324" len="-192" vol="100" pan="0"/>
                <note key="57" pos="372" len="-192" vol="100" pan="0"/>
              </pattern>
              <pattern steps="32" muted="0" type="0" pos="384" name="loTom.wav">
                <note key="57" pos="276" len="-192" vol="100" pan="0"/>
              </pattern>
              <pattern steps="64" muted="0" type="0" pos="576" name="loTom.wav"/>
              <pattern steps="16" muted="0" type="0" pos="768" name="loTom.wav">
                <note key="57" pos="156" len="-192" vol="100" pan="0"/>
                <note key="57" pos="168" len="-192" vol="100" pan="0"/>
                <note key="57" pos="180" len="-192" vol="100" pan="0"/>
              </pattern>
              <pattern steps="64" muted="0" type="0" pos="960" name="loTom.wav"/>
              <pattern steps="64" muted="0" type="0" pos="1152" name="loTom.wav">
                <note key="57" pos="708" len="-192" vol="100" pan="0"/>
                <note key="57" pos="756" len="-192" vol="100" pan="0"/>
              </pattern>
              <pattern steps="64" muted="0" type="0" pos="1344" name="loTom.wav"/>
              <pattern steps="32" muted="0" type="0" pos="1536" name="loTom.wav"/>
              <pattern steps="48" muted="0" type="0" pos="1728" name="loTom.wav">
                <note key="57" pos="360" len="-192" vol="100" pan="0"/>
                <note key="57" pos="372" len="-192" vol="100" pan="0"/>
              </pattern>
              <pattern steps="32" muted="0" type="0" pos="1920" name="loTom.wav"/>
              <pattern steps="64" muted="0" type="0" pos="2112" name="loTom.wav"/>
              <pattern steps="64" muted="0" type="0" pos="2304" name="loTom.wav"/>
              <pattern steps="64" muted="0" type="0" pos="2496" name="loTom.wav"/>
              <pattern steps="64" muted="0" type="0" pos="2688" name="loTom.wav"/>
              <pattern steps="64" muted="0" type="0" pos="2880" name="loTom.wav"/>
              <pattern steps="16" muted="0" type="0" pos="3072" name="loTom.wav"/>
              <pattern steps="16" muted="0" type="0" pos="3264" name="loTom.wav"/>
              <pattern steps="16" muted="0" type="0" pos="3456" name="loTom.wav"/>
              <pattern steps="64" muted="0" type="0" pos="3648" name="loTom.wav">
                <note key="57" pos="264" len="-192" vol="100" pan="0"/>
                <note key="57" pos="360" len="-192" vol="100" pan="0"/>
                <note key="57" pos="480" len="-192" vol="100" pan="0"/>
                <note key="57" pos="504" len="-192" vol="100" pan="0"/>
                <note key="57" pos="648" len="-192" vol="100" pan="0"/>
                <note key="57" pos="744" len="-192" vol="100" pan="0"/>
              </pattern>
              <pattern steps="80" muted="0" type="0" pos="3840" name="loTom.wav">
                <note key="57" pos="168" len="-192" vol="100" pan="0"/>
                <note key="57" pos="192" len="-192" vol="100" pan="0"/>
                <note key="57" pos="240" len="-192" vol="100" pan="0"/>
                <note key="57" pos="264" len="-192" vol="100" pan="0"/>
                <note key="57" pos="312" len="-192" vol="100" pan="0"/>
              </pattern>
              <pattern steps="32" muted="0" type="0" pos="4032" name="loTom.wav">
                <note key="57" pos="264" len="-192" vol="100" pan="0"/>
                <note key="57" pos="276" len="-192" vol="100" pan="0"/>
              </pattern>
            </track>
            <track solo="0" muted="0" type="0" name="hihat_opened02.ogg">
              <instrumenttrack basenote="57" pitchrange="1" pitch="0" usemasterpitch="1" vol="100" pan="0" fxch="0">
                <instrument name="audiofileprocessor">
                  <audiofileprocessor amp="100" interp="1" reversed="0" eframe="1" stutter="0" looped="0" sframe="0" lframe="0" src="drums/hihat_opened02.ogg"/>
                </instrument>
                <eldata fwet="0" ftype="0" fcut="14000" fres="0.5">
                  <elvol ctlenvamt="0" lamt="0" amt="0" latt="0" lspd_syncmode="0" dec="0.5" lpdel="0" att="0" lspd_denominator="4" hold="0.5" lspd="0.1" lspd_numerator="4" sustain="0.5" lshp="0" pdel="0" x100="0" rel="0.1" userwavefile=""/>
                  <elcut ctlenvamt="0" lamt="0" amt="0" latt="0" lspd_syncmode="0" dec="0.5" lpdel="0" att="0" lspd_denominator="4" hold="0.5" lspd="0.1" lspd_numerator="4" sustain="0.5" lshp="0" pdel="0" x100="0" rel="0.1" userwavefile=""/>
                  <elres ctlenvamt="0" lamt="0" amt="0" latt="0" lspd_syncmode="0" dec="0.5" lpdel="0" att="0" lspd_denominator="4" hold="0.5" lspd="0.1" lspd_numerator="4" sustain="0.5" lshp="0" pdel="0" x100="0" rel="0.1" userwavefile=""/>
                </eldata>
                <chordcreator chordrange="1" chord-enabled="0" chord="0"/>
                <arpeggiator arptime_syncmode="0" arpdir="0" arptime_numerator="4" arpmode="0" arp="0" arpmiss="0" arptime="200" arpgate="100" arp-enabled="0" arpskip="0" arptime_denominator="4" arprange="1" arpcycle="0"/>
                <midiport writable="0" fixedinputvelocity="-1" outputchannel="1" fixedoutputvelocity="-1" outputcontroller="0" basevelocity="63" fixedoutputnote="-1" inputchannel="0" inputcontroller="0" outputprogram="1" readable="0"/>
                <fxchain numofeffects="0" enabled="0"/>
              </instrumenttrack>
              <pattern steps="64" muted="0" type="0" pos="0" name="hihat_opened02.ogg"/>
              <pattern steps="32" muted="0" type="0" pos="192" name="hihat_opened02.ogg"/>
              <pattern steps="32" muted="0" type="0" pos="384" name="hihat_opened02.ogg"/>
              <pattern steps="64" muted="0" type="0" pos="576" name="hihat_opened02.ogg"/>
              <pattern steps="16" muted="0" type="0" pos="768" name="hihat_opened02.ogg"/>
              <pattern steps="64" muted="0" type="0" pos="960" name="hihat_opened02.ogg"/>
              <pattern steps="64" muted="0" type="0" pos="1152" name="hihat_opened02.ogg"/>
              <pattern steps="64" muted="0" type="0" pos="1344" name="hihat_opened02.ogg"/>
              <pattern steps="32" muted="0" type="0" pos="1536" name="hihat_opened02.ogg"/>
              <pattern steps="48" muted="0" type="0" pos="1728" name="hihat_opened02.ogg"/>
              <pattern steps="32" muted="0" type="0" pos="1920" name="hihat_opened02.ogg"/>
              <pattern steps="64" muted="0" type="0" pos="2112" name="hihat_opened02.ogg"/>
              <pattern steps="64" muted="0" type="0" pos="2304" name="hihat_opened02.ogg"/>
              <pattern steps="64" muted="0" type="0" pos="2496" name="hihat_opened02.ogg"/>
              <pattern steps="64" muted="0" type="0" pos="2688" name="hihat_opened02.ogg"/>
              <pattern steps="64" muted="0" type="0" pos="2880" name="hihat_opened02.ogg"/>
              <pattern steps="16" muted="0" type="0" pos="3072" name="hihat_opened02.ogg"/>
              <pattern steps="16" muted="0" type="0" pos="3264" name="hihat_opened02.ogg"/>
              <pattern steps="16" muted="0" type="0" pos="3456" name="hihat_opened02.ogg"/>
              <pattern steps="64" muted="0" type="0" pos="3648" name="hihat_opened02.ogg"/>
              <pattern steps="80" muted="0" type="0" pos="3840" name="hihat_opened02.ogg"/>
              <pattern steps="32" muted="0" type="0" pos="4032" name="hihat_opened02.ogg"/>
            </track>
          </trackcontainer>
        </bbtrack>
        <bbtco color="4286611584" muted="0" pos="0" usestyle="1" name="" len="768"/>
      </track>
      <track solo="0" muted="0" type="1" name="Clone of intro1">
        <bbtrack/>
        <bbtco color="4286611584" muted="0" pos="768" usestyle="1" name="" len="768"/>
      </track>
      <track solo="0" muted="0" type="1" name="intro2">
        <bbtrack/>
        <bbtco color="4286611584" muted="0" pos="1536" usestyle="1" name="" len="384"/>
      </track>
      <track solo="0" muted="0" type="1" name="bootcamp1">
        <bbtrack/>
        <bbtco color="4286611584" muted="0" pos="11136" usestyle="1" name="" len="1536"/>
      </track>
      <track solo="0" muted="0" type="1" name="fill1">
        <bbtrack/>
      </track>
      <track solo="0" muted="0" type="1" name="Clone of bootcamp1">
        <bbtrack/>
        <bbtco color="4286611584" muted="0" pos="1920" usestyle="1" name="" len="768"/>
        <bbtco color="4286611584" muted="0" pos="3456" usestyle="1" name="" len="1152"/>
        <bbtco color="4286611584" muted="0" pos="20736" usestyle="1" name="" len="768"/>
        <bbtco color="4286611584" muted="0" pos="22272" usestyle="1" name="" len="1152"/>
      </track>
      <track solo="0" muted="0" type="1" name="Clone of Clone of bootcamp1">
        <bbtrack/>
        <bbtco color="4286611584" muted="0" pos="2688" usestyle="1" name="" len="768"/>
        <bbtco color="4286611584" muted="0" pos="21504" usestyle="1" name="" len="768"/>
      </track>
      <track solo="0" muted="0" type="1" name="Clone of Clone of bootcamp1">
        <bbtrack/>
        <bbtco color="4286611584" muted="0" pos="8064" usestyle="1" name="" len="1536"/>
      </track>
      <track solo="0" muted="0" type="1" name="kick/mutecrash">
        <bbtrack/>
      </track>
      <track solo="0" muted="0" type="1" name="Beat/Bassline 6">
        <bbtrack/>
        <bbtco color="4286611584" muted="0" pos="4608" usestyle="1" name="" len="576"/>
        <bbtco color="4286611584" muted="0" pos="23424" usestyle="1" name="" len="576"/>
      </track>
      <track solo="0" muted="0" type="1" name="Clone of Beat/Bassline 6">
        <bbtrack/>
      </track>
      <track solo="0" muted="0" type="1" name="Beat/Bassline 10">
        <bbtrack/>
        <bbtco color="4286611584" muted="0" pos="6528" usestyle="1" name="" len="1536"/>
      </track>
      <track solo="0" muted="0" type="1" name="Clone of Beat/Bassline 10">
        <bbtrack/>
        <bbtco color="4286611584" muted="0" pos="12672" usestyle="1" name="" len="1536"/>
      </track>
      <track solo="0" muted="0" type="1" name="Beat/Bassline 12">
        <bbtrack/>
        <bbtco color="4286611584" muted="0" pos="25344" usestyle="1" name="" len="1536"/>
        <bbtco color="4286611584" muted="0" pos="9600" usestyle="1" name="" len="384"/>
        <bbtco color="4286611584" muted="0" pos="9984" usestyle="1" name="" len="384"/>
        <bbtco color="4286611584" muted="0" pos="10368" usestyle="1" name="" len="384"/>
      </track>
      <track solo="0" muted="0" type="1" name="Clone of Beat/Bassline 12">
        <bbtrack/>
        <bbtco color="4286611584" muted="0" pos="17280" usestyle="1" name="" len="3072"/>
      </track>
      <track solo="0" muted="0" type="1" name="Clone of Beat/Bassline 12">
        <bbtrack/>
        <bbtco color="4286611584" muted="0" pos="26880" usestyle="1" name="" len="3072"/>
      </track>
      <track solo="0" muted="0" type="1" name="Beat/Bassline 15">
        <bbtrack/>
        <bbtco color="4286611584" muted="0" pos="10752" usestyle="1" name="" len="192"/>
      </track>
      <track solo="0" muted="0" type="1" name="Beat/Bassline 16">
        <bbtrack/>
        <bbtco color="4286611584" muted="0" pos="15744" usestyle="1" name="" len="1536"/>
      </track>
      <track solo="0" muted="0" type="1" name="Beat/Bassline 17">
        <bbtrack/>
        <bbtco color="4286611584" muted="0" pos="14208" usestyle="1" name="" len="1536"/>
      </track>
      <track solo="0" muted="0" type="1" name="Beat/Bassline 19">
        <bbtrack/>
        <bbtco color="4286611584" muted="0" pos="29952" usestyle="1" name="" len="768"/>
      </track>
      <track solo="0" muted="0" type="1" name="Clone of Beat/Bassline 19">
        <bbtrack/>
        <bbtco color="4286611584" muted="0" pos="30720" usestyle="1" name="" len="960"/>
      </track>
      <track solo="0" muted="0" type="1" name="Beat/Bassline 21">
        <bbtrack/>
        <bbtco color="4286611584" muted="0" pos="20352" usestyle="1" name="" len="384"/>
      </track>
      <track solo="0" muted="0" type="5" name="Automation track">
        <automationtrack/>
      </track>
      <track solo="0" muted="0" type="0" name="unisaw">
        <instrumenttrack basenote="57" pitchrange="1" pitch="0" usemasterpitch="1" vol="65.6" pan="0" fxch="15">
          <instrument name="zynaddsubfx">
            <zynaddsubfx filterfreq="78" bandwidth="60" portamento="0" rescenterfreq="64" modifiedcontrollers="71,74,75," filterq="27" fmgain="127" resbandwidth="64" forwardmidicc="1">
              <ZynAddSubFX-data version-major="2" ZynAddSubFX-author="Nasca Octavian Paul" version-revision="1" version-minor="4">
                <INFORMATION/>
                <BASE_PARAMETERS>
                  <par value="16" name="max_midi_parts"/>
                  <par value="16" name="max_kit_items_per_instrument"/>
                  <par value="4" name="max_system_effects"/>
                  <par value="8" name="max_insertion_effects"/>
                  <par value="3" name="max_instrument_effects"/>
                  <par value="8" name="max_addsynth_voices"/>
                </BASE_PARAMETERS>
                <MASTER>
                  <par value="80" name="volume"/>
                  <par value="64" name="key_shift"/>
                  <par_bool value="yes" name="nrpn_receive"/>
                  <MICROTONAL>
                    <string name="name">12tET</string>
                    <string name="comment">Equal Temperament 12 notes per octave</string>
                    <par_bool value="no" name="invert_up_down"/>
                    <par value="60" name="invert_up_down_center"/>
                    <par_bool value="no" name="enabled"/>
                    <par value="64" name="global_fine_detune"/>
                    <par value="69" name="a_note"/>
                    <par_real value="440.000000" name="a_freq"/>
                  </MICROTONAL>
                  <PART id="0">
                    <par_bool value="yes" name="enabled"/>
                    <par value="96" name="volume"/>
                    <par value="64" name="panning"/>
                    <par value="0" name="min_key"/>
                    <par value="127" name="max_key"/>
                    <par value="64" name="key_shift"/>
                    <par value="0" name="rcv_chn"/>
                    <par value="64" name="velocity_sensing"/>
                    <par value="64" name="velocity_offset"/>
                    <par_bool value="yes" name="note_on"/>
                    <par_bool value="yes" name="poly_mode"/>
                    <par value="0" name="legato_mode"/>
                    <par value="15" name="key_limit"/>
                    <INSTRUMENT>
                      <INFO>
                        <string name="name"/>
                        <string name="author"/>
                        <string name="comments"/>
                        <par value="0" name="type"/>
                      </INFO>
                      <INSTRUMENT_KIT>
                        <par value="0" name="kit_mode"/>
                        <par_bool value="no" name="drum_mode"/>
                        <INSTRUMENT_KIT_ITEM id="0">
                          <par_bool value="yes" name="enabled"/>
                          <string name="name"/>
                          <par_bool value="no" name="muted"/>
                          <par value="0" name="min_key"/>
                          <par value="127" name="max_key"/>
                          <par value="0" name="send_to_instrument_effect"/>
                          <par_bool value="yes" name="add_enabled"/>
                          <ADD_SYNTH_PARAMETERS>
                            <par_bool value="yes" name="stereo"/>
                            <AMPLITUDE_PARAMETERS>
                              <par value="90" name="volume"/>
                              <par value="64" name="panning"/>
                              <par value="64" name="velocity_sensing"/>
                              <par value="0" name="punch_strength"/>
                              <par value="60" name="punch_time"/>
                              <par value="64" name="punch_stretch"/>
                              <par value="72" name="punch_velocity_sensing"/>
                              <par value="0" name="harmonic_randomness_grouping"/>
                              <AMPLITUDE_ENVELOPE>
                                <par_bool value="no" name="free_mode"/>
                                <par value="4" name="env_points"/>
                                <par value="2" name="env_sustain"/>
                                <par value="64" name="env_stretch"/>
                                <par_bool value="yes" name="forced_release"/>
                                <par_bool value="no" name="linear_envelope"/>
                                <par value="0" name="A_dt"/>
                                <par value="127" name="D_dt"/>
                                <par value="25" name="R_dt"/>
                                <par value="64" name="A_val"/>
                                <par value="64" name="D_val"/>
                                <par value="127" name="S_val"/>
                                <par value="64" name="R_val"/>
                              </AMPLITUDE_ENVELOPE>
                              <AMPLITUDE_LFO>
                                <par_real value="0.629921" name="freq"/>
                                <par value="0" name="intensity"/>
                                <par value="64" name="start_phase"/>
                                <par value="0" name="lfo_type"/>
                                <par value="0" name="randomness_amplitude"/>
                                <par value="0" name="randomness_frequency"/>
                                <par value="0" name="delay"/>
                                <par value="64" name="stretch"/>
                                <par_bool value="no" name="continous"/>
                              </AMPLITUDE_LFO>
                            </AMPLITUDE_PARAMETERS>
                            <FREQUENCY_PARAMETERS>
                              <par value="8192" name="detune"/>
                              <par value="0" name="coarse_detune"/>
                              <par value="1" name="detune_type"/>
                              <par value="64" name="bandwidth"/>
                              <FREQUENCY_ENVELOPE>
                                <par_bool value="no" name="free_mode"/>
                                <par value="3" name="env_points"/>
                                <par value="1" name="env_sustain"/>
                                <par value="0" name="env_stretch"/>
                                <par_bool value="no" name="forced_release"/>
                                <par_bool value="no" name="linear_envelope"/>
                                <par value="50" name="A_dt"/>
                                <par value="10" name="D_dt"/>
                                <par value="60" name="R_dt"/>
                                <par value="64" name="A_val"/>
                                <par value="64" name="D_val"/>
                                <par value="64" name="S_val"/>
                                <par value="64" name="R_val"/>
                              </FREQUENCY_ENVELOPE>
                              <FREQUENCY_LFO>
                                <par_real value="0.551181" name="freq"/>
                                <par value="0" name="intensity"/>
                                <par value="64" name="start_phase"/>
                                <par value="0" name="lfo_type"/>
                                <par value="0" name="randomness_amplitude"/>
                                <par value="0" name="randomness_frequency"/>
                                <par value="0" name="delay"/>
                                <par value="64" name="stretch"/>
                                <par_bool value="no" name="continous"/>
                              </FREQUENCY_LFO>
                            </FREQUENCY_PARAMETERS>
                            <FILTER_PARAMETERS>
                              <par value="64" name="velocity_sensing_amplitude"/>
                              <par value="64" name="velocity_sensing"/>
                              <FILTER>
                                <par value="0" name="category"/>
                                <par value="2" name="type"/>
                                <par value="104" name="freq"/>
                                <par value="40" name="q"/>
                                <par value="0" name="stages"/>
                                <par value="64" name="freq_track"/>
                                <par value="64" name="gain"/>
                              </FILTER>
                              <FILTER_ENVELOPE>
                                <par_bool value="no" name="free_mode"/>
                                <par value="4" name="env_points"/>
                                <par value="2" name="env_sustain"/>
                                <par value="0" name="env_stretch"/>
                                <par_bool value="yes" name="forced_release"/>
                                <par_bool value="no" name="linear_envelope"/>
                                <par value="40" name="A_dt"/>
                                <par value="70" name="D_dt"/>
                                <par value="60" name="R_dt"/>
                                <par value="64" name="A_val"/>
                                <par value="64" name="D_val"/>
                                <par value="64" name="S_val"/>
                                <par value="64" name="R_val"/>
                              </FILTER_ENVELOPE>
                              <FILTER_LFO>
                                <par_real value="0.629921" name="freq"/>
                                <par value="0" name="intensity"/>
                                <par value="64" name="start_phase"/>
                                <par value="0" name="lfo_type"/>
                                <par value="0" name="randomness_amplitude"/>
                                <par value="0" name="randomness_frequency"/>
                                <par value="0" name="delay"/>
                                <par value="64" name="stretch"/>
                                <par_bool value="no" name="continous"/>
                              </FILTER_LFO>
                            </FILTER_PARAMETERS>
                            <RESONANCE>
                              <par_bool value="no" name="enabled"/>
                            </RESONANCE>
                            <VOICE id="0">
                              <par_bool value="yes" name="enabled"/>
                              <par value="0" name="type"/>
                              <par value="50" name="unison_size"/>
                              <par value="60" name="unison_frequency_spread"/>
                              <par value="64" name="unison_stereo_spread"/>
                              <par value="64" name="unison_vibratto"/>
                              <par value="64" name="unison_vibratto_speed"/>
                              <par value="0" name="unison_invert_phase"/>
                              <par value="127" name="unison_phase_randomness"/>
                              <par value="0" name="delay"/>
                              <par_bool value="yes" name="resonance"/>
                              <par value="-1" name="ext_oscil"/>
                              <par value="-1" name="ext_fm_oscil"/>
                              <par value="64" name="oscil_phase"/>
                              <par value="64" name="oscil_fm_phase"/>
                              <par_bool value="no" name="filter_enabled"/>
                              <par_bool value="no" name="filter_bypass"/>
                              <par value="0" name="fm_enabled"/>
                              <OSCIL>
                                <par value="0" name="harmonic_mag_type"/>
                                <par value="3" name="base_function"/>
                                <par value="127" name="base_function_par"/>
                                <par value="0" name="base_function_modulation"/>
                                <par value="64" name="base_function_modulation_par1"/>
                                <par value="64" name="base_function_modulation_par2"/>
                                <par value="32" name="base_function_modulation_par3"/>
                                <par value="0" name="modulation"/>
                                <par value="64" name="modulation_par1"/>
                                <par value="64" name="modulation_par2"/>
                                <par value="32" name="modulation_par3"/>
                                <par value="64" name="wave_shaping"/>
                                <par value="0" name="wave_shaping_function"/>
                                <par value="0" name="filter_type"/>
                                <par value="64" name="filter_par1"/>
                                <par value="64" name="filter_par2"/>
                                <par value="0" name="filter_before_wave_shaping"/>
                                <par value="0" name="spectrum_adjust_type"/>
                                <par value="64" name="spectrum_adjust_par"/>
                                <par value="64" name="rand"/>
                                <par value="0" name="amp_rand_type"/>
                                <par value="64" name="amp_rand_power"/>
                                <par value="0" name="harmonic_shift"/>
                                <par_bool value="no" name="harmonic_shift_first"/>
                                <par value="0" name="adaptive_harmonics"/>
                                <par value="128" name="adaptive_harmonics_base_frequency"/>
                                <par value="100" name="adaptive_harmonics_power"/>
                                <HARMONICS>
                                  <HARMONIC id="1">
                                    <par value="127" name="mag"/>
                                    <par value="64" name="phase"/>
                                  </HARMONIC>
                                </HARMONICS>
                              </OSCIL>
                              <AMPLITUDE_PARAMETERS>
                                <par value="1" name="panning"/>
                                <par value="100" name="volume"/>
                                <par_bool value="no" name="volume_minus"/>
                                <par value="127" name="velocity_sensing"/>
                                <par_bool value="no" name="amp_envelope_enabled"/>
                                <par_bool value="no" name="amp_lfo_enabled"/>
                              </AMPLITUDE_PARAMETERS>
                              <FREQUENCY_PARAMETERS>
                                <par_bool value="no" name="fixed_freq"/>
                                <par value="0" name="fixed_freq_et"/>
                                <par value="8192" name="detune"/>
                                <par value="0" name="coarse_detune"/>
                                <par value="0" name="detune_type"/>
                                <par_bool value="no" name="freq_envelope_enabled"/>
                                <par_bool value="no" name="freq_lfo_enabled"/>
                              </FREQUENCY_PARAMETERS>
                            </VOICE>
                            <VOICE id="1">
                              <par_bool value="yes" name="enabled"/>
                              <par value="0" name="type"/>
                              <par value="50" name="unison_size"/>
                              <par value="60" name="unison_frequency_spread"/>
                              <par value="64" name="unison_stereo_spread"/>
                              <par value="64" name="unison_vibratto"/>
                              <par value="64" name="unison_vibratto_speed"/>
                              <par value="0" name="unison_invert_phase"/>
                              <par value="127" name="unison_phase_randomness"/>
                              <par value="0" name="delay"/>
                              <par_bool value="yes" name="resonance"/>
                              <par value="-1" name="ext_oscil"/>
                              <par value="-1" name="ext_fm_oscil"/>
                              <par value="47" name="oscil_phase"/>
                              <par value="64" name="oscil_fm_phase"/>
                              <par_bool value="no" name="filter_enabled"/>
                              <par_bool value="no" name="filter_bypass"/>
                              <par value="0" name="fm_enabled"/>
                              <OSCIL>
                                <par value="0" name="harmonic_mag_type"/>
                                <par value="3" name="base_function"/>
                                <par value="127" name="base_function_par"/>
                                <par value="0" name="base_function_modulation"/>
                                <par value="64" name="base_function_modulation_par1"/>
                                <par value="64" name="base_function_modulation_par2"/>
                                <par value="32" name="base_function_modulation_par3"/>
                                <par value="0" name="modulation"/>
                                <par value="64" name="modulation_par1"/>
                                <par value="64" name="modulation_par2"/>
                                <par value="32" name="modulation_par3"/>
                                <par value="64" name="wave_shaping"/>
                                <par value="0" name="wave_shaping_function"/>
                                <par value="0" name="filter_type"/>
                                <par value="64" name="filter_par1"/>
                                <par value="64" name="filter_par2"/>
                                <par value="0" name="filter_before_wave_shaping"/>
                                <par value="0" name="spectrum_adjust_type"/>
                                <par value="64" name="spectrum_adjust_par"/>
                                <par value="64" name="rand"/>
                                <par value="0" name="amp_rand_type"/>
                                <par value="64" name="amp_rand_power"/>
                                <par value="0" name="harmonic_shift"/>
                                <par_bool value="no" name="harmonic_shift_first"/>
                                <par value="0" name="adaptive_harmonics"/>
                                <par value="128" name="adaptive_harmonics_base_frequency"/>
                                <par value="100" name="adaptive_harmonics_power"/>
                                <HARMONICS>
                                  <HARMONIC id="1">
                                    <par value="127" name="mag"/>
                                    <par value="64" name="phase"/>
                                  </HARMONIC>
                                </HARMONICS>
                              </OSCIL>
                              <AMPLITUDE_PARAMETERS>
                                <par value="127" name="panning"/>
                                <par value="100" name="volume"/>
                                <par_bool value="no" name="volume_minus"/>
                                <par value="127" name="velocity_sensing"/>
                                <par_bool value="no" name="amp_envelope_enabled"/>
                                <par_bool value="no" name="amp_lfo_enabled"/>
                              </AMPLITUDE_PARAMETERS>
                              <FREQUENCY_PARAMETERS>
                                <par_bool value="no" name="fixed_freq"/>
                                <par value="0" name="fixed_freq_et"/>
                                <par value="8192" name="detune"/>
                                <par value="0" name="coarse_detune"/>
                                <par value="0" name="detune_type"/>
                                <par_bool value="no" name="freq_envelope_enabled"/>
                                <par_bool value="no" name="freq_lfo_enabled"/>
                              </FREQUENCY_PARAMETERS>
                            </VOICE>
                            <VOICE id="2">
                              <par_bool value="no" name="enabled"/>
                            </VOICE>
                            <VOICE id="3">
                              <par_bool value="no" name="enabled"/>
                            </VOICE>
                            <VOICE id="4">
                              <par_bool value="no" name="enabled"/>
                            </VOICE>
                            <VOICE id="5">
                              <par_bool value="no" name="enabled"/>
                            </VOICE>
                            <VOICE id="6">
                              <par_bool value="no" name="enabled"/>
                            </VOICE>
                            <VOICE id="7">
                              <par_bool value="no" name="enabled"/>
                            </VOICE>
                          </ADD_SYNTH_PARAMETERS>
                          <par_bool value="no" name="sub_enabled"/>
                          <par_bool value="no" name="pad_enabled"/>
                        </INSTRUMENT_KIT_ITEM>
                        <INSTRUMENT_KIT_ITEM id="1">
                          <par_bool value="no" name="enabled"/>
                        </INSTRUMENT_KIT_ITEM>
                        <INSTRUMENT_KIT_ITEM id="2">
                          <par_bool value="no" name="enabled"/>
                        </INSTRUMENT_KIT_ITEM>
                        <INSTRUMENT_KIT_ITEM id="3">
                          <par_bool value="no" name="enabled"/>
                        </INSTRUMENT_KIT_ITEM>
                        <INSTRUMENT_KIT_ITEM id="4">
                          <par_bool value="no" name="enabled"/>
                        </INSTRUMENT_KIT_ITEM>
                        <INSTRUMENT_KIT_ITEM id="5">
                          <par_bool value="no" name="enabled"/>
                        </INSTRUMENT_KIT_ITEM>
                        <INSTRUMENT_KIT_ITEM id="6">
                          <par_bool value="no" name="enabled"/>
                        </INSTRUMENT_KIT_ITEM>
                        <INSTRUMENT_KIT_ITEM id="7">
                          <par_bool value="no" name="enabled"/>
                        </INSTRUMENT_KIT_ITEM>
                        <INSTRUMENT_KIT_ITEM id="8">
                          <par_bool value="no" name="enabled"/>
                        </INSTRUMENT_KIT_ITEM>
                        <INSTRUMENT_KIT_ITEM id="9">
                          <par_bool value="no" name="enabled"/>
                        </INSTRUMENT_KIT_ITEM>
                        <INSTRUMENT_KIT_ITEM id="10">
                          <par_bool value="no" name="enabled"/>
                        </INSTRUMENT_KIT_ITEM>
                        <INSTRUMENT_KIT_ITEM id="11">
                          <par_bool value="no" name="enabled"/>
                        </INSTRUMENT_KIT_ITEM>
                        <INSTRUMENT_KIT_ITEM id="12">
                          <par_bool value="no" name="enabled"/>
                        </INSTRUMENT_KIT_ITEM>
                        <INSTRUMENT_KIT_ITEM id="13">
                          <par_bool value="no" name="enabled"/>
                        </INSTRUMENT_KIT_ITEM>
                        <INSTRUMENT_KIT_ITEM id="14">
                          <par_bool value="no" name="enabled"/>
                        </INSTRUMENT_KIT_ITEM>
                        <INSTRUMENT_KIT_ITEM id="15">
                          <par_bool value="no" name="enabled"/>
                        </INSTRUMENT_KIT_ITEM>
                      </INSTRUMENT_KIT>
                      <INSTRUMENT_EFFECTS>
                        <INSTRUMENT_EFFECT id="0">
                          <EFFECT>
                            <par value="1" name="type"/>
                            <par value="0" name="preset"/>
                            <EFFECT_PARAMETERS>
                              <par_no id="0">
                                <par value="40" name="par"/>
                              </par_no>
                              <par_no id="1">
                                <par value="64" name="par"/>
                              </par_no>
                              <par_no id="2">
                                <par value="36" name="par"/>
                              </par_no>
                              <par_no id="3">
                                <par value="24" name="par"/>
                              </par_no>
                              <par_no id="7">
                                <par value="85" name="par"/>
                              </par_no>
                              <par_no id="8">
                                <par value="5" name="par"/>
                              </par_no>
                              <par_no id="9">
                                <par value="83" name="par"/>
                              </par_no>
                              <par_no id="10">
                                <par value="1" name="par"/>
                              </par_no>
                              <par_no id="11">
                                <par value="64" name="par"/>
                              </par_no>
                              <par_no id="12">
                                <par value="20" name="par"/>
                              </par_no>
                            </EFFECT_PARAMETERS>
                          </EFFECT>
                          <par value="0" name="route"/>
                          <par_bool value="no" name="bypass"/>
                        </INSTRUMENT_EFFECT>
                        <INSTRUMENT_EFFECT id="1">
                          <EFFECT>
                            <par value="0" name="type"/>
                          </EFFECT>
                          <par value="0" name="route"/>
                          <par_bool value="no" name="bypass"/>
                        </INSTRUMENT_EFFECT>
                        <INSTRUMENT_EFFECT id="2">
                          <EFFECT>
                            <par value="0" name="type"/>
                          </EFFECT>
                          <par value="0" name="route"/>
                          <par_bool value="no" name="bypass"/>
                        </INSTRUMENT_EFFECT>
                      </INSTRUMENT_EFFECTS>
                    </INSTRUMENT>
                    <CONTROLLER>
                      <par value="100" name="pitchwheel_bendrange"/>
                      <par_bool value="yes" name="expression_receive"/>
                      <par value="64" name="panning_depth"/>
                      <par value="64" name="filter_cutoff_depth"/>
                      <par value="64" name="filter_q_depth"/>
                      <par value="64" name="bandwidth_depth"/>
                      <par value="80" name="mod_wheel_depth"/>
                      <par_bool value="no" name="mod_wheel_exponential"/>
                      <par_bool value="yes" name="fm_amp_receive"/>
                      <par_bool value="yes" name="volume_receive"/>
                      <par_bool value="yes" name="sustain_receive"/>
                      <par_bool value="yes" name="portamento_receive"/>
                      <par value="64" name="portamento_time"/>
                      <par value="3" name="portamento_pitchthresh"/>
                      <par value="1" name="portamento_pitchthreshtype"/>
                      <par value="0" name="portamento_portamento"/>
                      <par value="64" name="portamento_updowntimestretch"/>
                      <par value="0" name="portamento_proportional"/>
                      <par value="80" name="portamento_proprate"/>
                      <par value="90" name="portamento_propdepth"/>
                      <par value="64" name="resonance_center_depth"/>
                      <par value="64" name="resonance_bandwidth_depth"/>
                    </CONTROLLER>
                  </PART>
                  <PART id="1">
                    <par_bool value="no" name="enabled"/>
                  </PART>
                  <PART id="2">
                    <par_bool value="no" name="enabled"/>
                  </PART>
                  <PART id="3">
                    <par_bool value="no" name="enabled"/>
                  </PART>
                  <PART id="4">
                    <par_bool value="no" name="enabled"/>
                  </PART>
                  <PART id="5">
                    <par_bool value="no" name="enabled"/>
                  </PART>
                  <PART id="6">
                    <par_bool value="no" name="enabled"/>
                  </PART>
                  <PART id="7">
                    <par_bool value="no" name="enabled"/>
                  </PART>
                  <PART id="8">
                    <par_bool value="no" name="enabled"/>
                  </PART>
                  <PART id="9">
                    <par_bool value="no" name="enabled"/>
                  </PART>
                  <PART id="10">
                    <par_bool value="no" name="enabled"/>
                  </PART>
                  <PART id="11">
                    <par_bool value="no" name="enabled"/>
                  </PART>
                  <PART id="12">
                    <par_bool value="no" name="enabled"/>
                  </PART>
                  <PART id="13">
                    <par_bool value="no" name="enabled"/>
                  </PART>
                  <PART id="14">
                    <par_bool value="no" name="enabled"/>
                  </PART>
                  <PART id="15">
                    <par_bool value="no" name="enabled"/>
                  </PART>
                  <SYSTEM_EFFECTS>
                    <SYSTEM_EFFECT id="0">
                      <EFFECT>
                        <par value="0" name="type"/>
                      </EFFECT>
                      <VOLUME id="0">
                        <par value="0" name="vol"/>
                      </VOLUME>
                      <VOLUME id="1">
                        <par value="0" name="vol"/>
                      </VOLUME>
                      <VOLUME id="2">
                        <par value="0" name="vol"/>
                      </VOLUME>
                      <VOLUME id="3">
                        <par value="0" name="vol"/>
                      </VOLUME>
                      <VOLUME id="4">
                        <par value="0" name="vol"/>
                      </VOLUME>
                      <VOLUME id="5">
                        <par value="0" name="vol"/>
                      </VOLUME>
                      <VOLUME id="6">
                        <par value="0" name="vol"/>
                      </VOLUME>
                      <VOLUME id="7">
                        <par value="0" name="vol"/>
                      </VOLUME>
                      <VOLUME id="8">
                        <par value="0" name="vol"/>
                      </VOLUME>
                      <VOLUME id="9">
                        <par value="0" name="vol"/>
                      </VOLUME>
                      <VOLUME id="10">
                        <par value="0" name="vol"/>
                      </VOLUME>
                      <VOLUME id="11">
                        <par value="0" name="vol"/>
                      </VOLUME>
                      <VOLUME id="12">
                        <par value="0" name="vol"/>
                      </VOLUME>
                      <VOLUME id="13">
                        <par value="0" name="vol"/>
                      </VOLUME>
                      <VOLUME id="14">
                        <par value="0" name="vol"/>
                      </VOLUME>
                      <VOLUME id="15">
                        <par value="0" name="vol"/>
                      </VOLUME>
                      <SENDTO id="1">
                        <par value="0" name="send_vol"/>
                      </SENDTO>
                      <SENDTO id="2">
                        <par value="0" name="send_vol"/>
                      </SENDTO>
                      <SENDTO id="3">
                        <par value="0" name="send_vol"/>
                      </SENDTO>
                    </SYSTEM_EFFECT>
                    <SYSTEM_EFFECT id="1">
                      <EFFECT>
                        <par value="0" name="type"/>
                      </EFFECT>
                      <VOLUME id="0">
                        <par value="0" name="vol"/>
                      </VOLUME>
                      <VOLUME id="1">
                        <par value="0" name="vol"/>
                      </VOLUME>
                      <VOLUME id="2">
                        <par value="0" name="vol"/>
                      </VOLUME>
                      <VOLUME id="3">
                        <par value="0" name="vol"/>
                      </VOLUME>
                      <VOLUME id="4">
                        <par value="0" name="vol"/>
                      </VOLUME>
                      <VOLUME id="5">
                        <par value="0" name="vol"/>
                      </VOLUME>
                      <VOLUME id="6">
                        <par value="0" name="vol"/>
                      </VOLUME>
                      <VOLUME id="7">
                        <par value="0" name="vol"/>
                      </VOLUME>
                      <VOLUME id="8">
                        <par value="0" name="vol"/>
                      </VOLUME>
                      <VOLUME id="9">
                        <par value="0" name="vol"/>
                      </VOLUME>
                      <VOLUME id="10">
                        <par value="0" name="vol"/>
                      </VOLUME>
                      <VOLUME id="11">
                        <par value="0" name="vol"/>
                      </VOLUME>
                      <VOLUME id="12">
                        <par value="0" name="vol"/>
                      </VOLUME>
                      <VOLUME id="13">
                        <par value="0" name="vol"/>
                      </VOLUME>
                      <VOLUME id="14">
                        <par value="0" name="vol"/>
                      </VOLUME>
                      <VOLUME id="15">
                        <par value="0" name="vol"/>
                      </VOLUME>
                      <SENDTO id="2">
                        <par value="0" name="send_vol"/>
                      </SENDTO>
                      <SENDTO id="3">
                        <par value="0" name="send_vol"/>
                      </SENDTO>
                    </SYSTEM_EFFECT>
                    <SYSTEM_EFFECT id="2">
                      <EFFECT>
                        <par value="0" name="type"/>
                      </EFFECT>
                      <VOLUME id="0">
                        <par value="0" name="vol"/>
                      </VOLUME>
                      <VOLUME id="1">
                        <par value="0" name="vol"/>
                      </VOLUME>
                      <VOLUME id="2">
                        <par value="0" name="vol"/>
                      </VOLUME>
                      <VOLUME id="3">
                        <par value="0" name="vol"/>
                      </VOLUME>
                      <VOLUME id="4">
                        <par value="0" name="vol"/>
                      </VOLUME>
                      <VOLUME id="5">
                        <par value="0" name="vol"/>
                      </VOLUME>
                      <VOLUME id="6">
                        <par value="0" name="vol"/>
                      </VOLUME>
                      <VOLUME id="7">
                        <par value="0" name="vol"/>
                      </VOLUME>
                      <VOLUME id="8">
                        <par value="0" name="vol"/>
                      </VOLUME>
                      <VOLUME id="9">
                        <par value="0" name="vol"/>
                      </VOLUME>
                      <VOLUME id="10">
                        <par value="0" name="vol"/>
                      </VOLUME>
                      <VOLUME id="11">
                        <par value="0" name="vol"/>
                      </VOLUME>
                      <VOLUME id="12">
                        <par value="0" name="vol"/>
                      </VOLUME>
                      <VOLUME id="13">
                        <par value="0" name="vol"/>
                      </VOLUME>
                      <VOLUME id="14">
                        <par value="0" name="vol"/>
                      </VOLUME>
                      <VOLUME id="15">
                        <par value="0" name="vol"/>
                      </VOLUME>
                      <SENDTO id="3">
                        <par value="0" name="send_vol"/>
                      </SENDTO>
                    </SYSTEM_EFFECT>
                    <SYSTEM_EFFECT id="3">
                      <EFFECT>
                        <par value="0" name="type"/>
                      </EFFECT>
                      <VOLUME id="0">
                        <par value="0" name="vol"/>
                      </VOLUME>
                      <VOLUME id="1">
                        <par value="0" name="vol"/>
                      </VOLUME>
                      <VOLUME id="2">
                        <par value="0" name="vol"/>
                      </VOLUME>
                      <VOLUME id="3">
                        <par value="0" name="vol"/>
                      </VOLUME>
                      <VOLUME id="4">
                        <par value="0" name="vol"/>
                      </VOLUME>
                      <VOLUME id="5">
                        <par value="0" name="vol"/>
                      </VOLUME>
                      <VOLUME id="6">
                        <par value="0" name="vol"/>
                      </VOLUME>
                      <VOLUME id="7">
                        <par value="0" name="vol"/>
                      </VOLUME>
                      <VOLUME id="8">
                        <par value="0" name="vol"/>
                      </VOLUME>
                      <VOLUME id="9">
                        <par value="0" name="vol"/>
                      </VOLUME>
                      <VOLUME id="10">
                        <par value="0" name="vol"/>
                      </VOLUME>
                      <VOLUME id="11">
                        <par value="0" name="vol"/>
                      </VOLUME>
                      <VOLUME id="12">
                        <par value="0" name="vol"/>
                      </VOLUME>
                      <VOLUME id="13">
                        <par value="0" name="vol"/>
                      </VOLUME>
                      <VOLUME id="14">
                        <par value="0" name="vol"/>
                      </VOLUME>
                      <VOLUME id="15">
                        <par value="0" name="vol"/>
                      </VOLUME>
                    </SYSTEM_EFFECT>
                  </SYSTEM_EFFECTS>
                  <INSERTION_EFFECTS>
                    <INSERTION_EFFECT id="0">
                      <par value="-1" name="part"/>
                      <EFFECT>
                        <par value="0" name="type"/>
                      </EFFECT>
                    </INSERTION_EFFECT>
                    <INSERTION_EFFECT id="1">
                      <par value="-1" name="part"/>
                      <EFFECT>
                        <par value="0" name="type"/>
                      </EFFECT>
                    </INSERTION_EFFECT>
                    <INSERTION_EFFECT id="2">
                      <par value="-1" name="part"/>
                      <EFFECT>
                        <par value="0" name="type"/>
                      </EFFECT>
                    </INSERTION_EFFECT>
                    <INSERTION_EFFECT id="3">
                      <par value="-1" name="part"/>
                      <EFFECT>
                        <par value="0" name="type"/>
                      </EFFECT>
                    </INSERTION_EFFECT>
                    <INSERTION_EFFECT id="4">
                      <par value="-1" name="part"/>
                      <EFFECT>
                        <par value="0" name="type"/>
                      </EFFECT>
                    </INSERTION_EFFECT>
                    <INSERTION_EFFECT id="5">
                      <par value="-1" name="part"/>
                      <EFFECT>
                        <par value="0" name="type"/>
                      </EFFECT>
                    </INSERTION_EFFECT>
                    <INSERTION_EFFECT id="6">
                      <par value="-1" name="part"/>
                      <EFFECT>
                        <par value="0" name="type"/>
                      </EFFECT>
                    </INSERTION_EFFECT>
                    <INSERTION_EFFECT id="7">
                      <par value="-1" name="part"/>
                      <EFFECT>
                        <par value="0" name="type"/>
                      </EFFECT>
                    </INSERTION_EFFECT>
                  </INSERTION_EFFECTS>
                </MASTER>
              </ZynAddSubFX-data>
            </zynaddsubfx>
          </instrument>
          <eldata fwet="0" ftype="0" fcut="14000" fres="0.5">
            <elvol ctlenvamt="0" lamt="0" amt="0" latt="0" lspd_syncmode="0" dec="0.5" lpdel="0" att="0" lspd_denominator="4" hold="0.5" lspd="0.1" lspd_numerator="4" sustain="0.5" lshp="0" pdel="0" x100="0" rel="0.1" userwavefile=""/>
            <elcut ctlenvamt="0" lamt="0" amt="0" latt="0" lspd_syncmode="0" dec="0.5" lpdel="0" att="0" lspd_denominator="4" hold="0.5" lspd="0.1" lspd_numerator="4" sustain="0.5" lshp="0" pdel="0" x100="0" rel="0.1" userwavefile=""/>
            <elres ctlenvamt="0" lamt="0" amt="0" latt="0" lspd_syncmode="0" dec="0.5" lpdel="0" att="0" lspd_denominator="4" hold="0.5" lspd="0.1" lspd_numerator="4" sustain="0.5" lshp="0" pdel="0" x100="0" rel="0.1" userwavefile=""/>
          </eldata>
          <chordcreator chordrange="1" chord-enabled="0" chord="0"/>
          <arpeggiator arptime_syncmode="0" arpdir="0" arptime_numerator="4" arpmode="1" arp="0" arpmiss="0" arptime="145" arpgate="100" arp-enabled="0" arpskip="0" arptime_denominator="4" arprange="2" arpcycle="0"/>
          <midiport writable="0" fixedinputvelocity="-1" outputchannel="1" fixedoutputvelocity="-1" outputcontroller="0" basevelocity="63" fixedoutputnote="-1" inputchannel="0" inputcontroller="0" outputprogram="1" readable="0"/>
          <fxchain numofeffects="0" enabled="1"/>
        </instrumenttrack>
        <pattern steps="16" muted="0" type="1" pos="11136" name="unisaw">
          <note key="80" pos="0" len="384" vol="195" pan="0"/>
          <note key="77" pos="0" len="384" vol="195" pan="0"/>
          <note key="72" pos="0" len="384" vol="195" pan="0"/>
          <note key="80" pos="384" len="384" vol="195" pan="0"/>
          <note key="77" pos="384" len="384" vol="195" pan="0"/>
          <note key="73" pos="384" len="384" vol="195" pan="0"/>
        </pattern>
        <pattern steps="16" muted="0" type="1" pos="1920" name="unisaw">
          <note key="75" pos="0" len="192" vol="197" pan="0"/>
          <note key="72" pos="0" len="192" vol="197" pan="0"/>
          <note key="67" pos="0" len="192" vol="197" pan="0"/>
          <note key="75" pos="192" len="96" vol="197" pan="0"/>
          <note key="70" pos="192" len="96" vol="197" pan="0"/>
          <note key="67" pos="192" len="96" vol="197" pan="0"/>
          <note key="77" pos="288" len="96" vol="197" pan="0"/>
          <note key="72" pos="288" len="96" vol="197" pan="0"/>
          <note key="68" pos="288" len="96" vol="197" pan="0"/>
        </pattern>
        <pattern steps="16" muted="0" type="1" pos="2688" name="unisaw">
          <note key="72" pos="0" len="192" vol="197" pan="0"/>
          <note key="68" pos="0" len="192" vol="197" pan="0"/>
          <note key="65" pos="0" len="192" vol="197" pan="0"/>
          <note key="74" pos="192" len="192" vol="197" pan="0"/>
          <note key="70" pos="192" len="192" vol="197" pan="0"/>
          <note key="65" pos="192" len="192" vol="197" pan="0"/>
        </pattern>
        <pattern steps="16" muted="0" type="1" pos="25344" name="unisaw">
          <note key="77" pos="0" len="384" vol="197" pan="0"/>
          <note key="74" pos="0" len="384" vol="197" pan="0"/>
          <note key="69" pos="0" len="384" vol="197" pan="0"/>
          <note key="77" pos="384" len="144" vol="197" pan="0"/>
          <note key="74" pos="384" len="144" vol="197" pan="0"/>
          <note key="70" pos="384" len="144" vol="197" pan="0"/>
          <note key="79" pos="528" len="240" vol="197" pan="0"/>
          <note key="76" pos="528" len="240" vol="197" pan="0"/>
          <note key="72" pos="528" len="240" vol="197" pan="0"/>
        </pattern>
        <pattern steps="16" muted="0" type="1" pos="26880" name="unisaw">
          <note key="79" pos="0" len="384" vol="197" pan="0"/>
          <note key="76" pos="0" len="384" vol="197" pan="0"/>
          <note key="71" pos="0" len="384" vol="197" pan="0"/>
          <note key="79" pos="384" len="144" vol="197" pan="0"/>
          <note key="76" pos="384" len="144" vol="197" pan="0"/>
          <note key="72" pos="384" len="144" vol="197" pan="0"/>
          <note key="81" pos="528" len="240" vol="197" pan="0"/>
          <note key="78" pos="528" len="240" vol="197" pan="0"/>
          <note key="74" pos="528" len="240" vol="197" pan="0"/>
        </pattern>
        <pattern steps="16" muted="0" type="1" pos="27648" name="unisaw">
          <note key="79" pos="0" len="384" vol="197" pan="0"/>
          <note key="76" pos="0" len="384" vol="197" pan="0"/>
          <note key="71" pos="0" len="384" vol="197" pan="0"/>
          <note key="79" pos="384" len="144" vol="197" pan="0"/>
          <note key="76" pos="384" len="144" vol="197" pan="0"/>
          <note key="72" pos="384" len="144" vol="197" pan="0"/>
          <note key="81" pos="528" len="240" vol="197" pan="0"/>
          <note key="78" pos="528" len="240" vol="197" pan="0"/>
          <note key="74" pos="528" len="240" vol="197" pan="0"/>
        </pattern>
        <pattern steps="16" muted="0" type="1" pos="28416" name="unisaw">
          <note key="79" pos="0" len="384" vol="197" pan="0"/>
          <note key="76" pos="0" len="384" vol="197" pan="0"/>
          <note key="71" pos="0" len="384" vol="197" pan="0"/>
          <note key="79" pos="384" len="144" vol="197" pan="0"/>
          <note key="76" pos="384" len="144" vol="197" pan="0"/>
          <note key="72" pos="384" len="144" vol="197" pan="0"/>
          <note key="81" pos="528" len="240" vol="197" pan="0"/>
          <note key="78" pos="528" len="240" vol="197" pan="0"/>
          <note key="74" pos="528" len="240" vol="197" pan="0"/>
        </pattern>
        <pattern steps="16" muted="0" type="1" pos="29184" name="unisaw">
          <note key="79" pos="0" len="384" vol="197" pan="0"/>
          <note key="76" pos="0" len="384" vol="197" pan="0"/>
          <note key="71" pos="0" len="384" vol="197" pan="0"/>
          <note key="79" pos="384" len="144" vol="197" pan="0"/>
          <note key="76" pos="384" len="144" vol="197" pan="0"/>
          <note key="72" pos="384" len="144" vol="197" pan="0"/>
          <note key="81" pos="528" len="240" vol="197" pan="0"/>
          <note key="78" pos="528" len="240" vol="197" pan="0"/>
          <note key="74" pos="528" len="240" vol="197" pan="0"/>
        </pattern>
        <pattern steps="16" muted="0" type="1" pos="26112" name="unisaw">
          <note key="77" pos="0" len="384" vol="197" pan="0"/>
          <note key="74" pos="0" len="384" vol="197" pan="0"/>
          <note key="69" pos="0" len="384" vol="197" pan="0"/>
          <note key="77" pos="384" len="144" vol="197" pan="0"/>
          <note key="74" pos="384" len="144" vol="197" pan="0"/>
          <note key="70" pos="384" len="144" vol="197" pan="0"/>
          <note key="79" pos="528" len="240" vol="197" pan="0"/>
          <note key="76" pos="528" len="240" vol="197" pan="0"/>
          <note key="72" pos="528" len="240" vol="197" pan="0"/>
        </pattern>
        <pattern steps="16" muted="0" type="1" pos="3456" name="unisaw">
          <note key="75" pos="0" len="192" vol="197" pan="0"/>
          <note key="72" pos="0" len="192" vol="197" pan="0"/>
          <note key="67" pos="0" len="192" vol="197" pan="0"/>
          <note key="75" pos="192" len="96" vol="197" pan="0"/>
          <note key="70" pos="192" len="96" vol="197" pan="0"/>
          <note key="67" pos="192" len="96" vol="197" pan="0"/>
          <note key="77" pos="288" len="96" vol="197" pan="0"/>
          <note key="72" pos="288" len="96" vol="197" pan="0"/>
          <note key="68" pos="288" len="96" vol="197" pan="0"/>
        </pattern>
        <pattern steps="16" muted="0" type="1" pos="4224" name="unisaw">
          <note key="72" pos="0" len="192" vol="197" pan="0"/>
          <note key="68" pos="0" len="192" vol="197" pan="0"/>
          <note key="65" pos="0" len="192" vol="197" pan="0"/>
          <note key="74" pos="192" len="192" vol="197" pan="0"/>
          <note key="70" pos="192" len="192" vol="197" pan="0"/>
          <note key="65" pos="192" len="192" vol="197" pan="0"/>
        </pattern>
        <pattern steps="16" muted="0" type="1" pos="4608" name="unisaw">
          <note key="75" pos="0" len="192" vol="197" pan="0"/>
          <note key="70" pos="0" len="192" vol="197" pan="0"/>
          <note key="67" pos="0" len="192" vol="197" pan="0"/>
          <note key="74" pos="192" len="192" vol="197" pan="0"/>
          <note key="71" pos="192" len="192" vol="197" pan="0"/>
          <note key="67" pos="192" len="192" vol="197" pan="0"/>
        </pattern>
        <pattern steps="16" muted="0" type="1" pos="8064" name="unisaw">
          <note key="67" pos="0" len="384" vol="170" pan="0"/>
          <note key="63" pos="0" len="384" vol="170" pan="0"/>
          <note key="60" pos="0" len="384" vol="170" pan="0"/>
          <note key="68" pos="384" len="144" vol="170" pan="0"/>
          <note key="63" pos="384" len="144" vol="170" pan="0"/>
          <note key="60" pos="384" len="144" vol="170" pan="0"/>
          <note key="70" pos="528" len="240" vol="170" pan="0"/>
          <note key="65" pos="528" len="240" vol="170" pan="0"/>
          <note key="62" pos="528" len="240" vol="170" pan="0"/>
        </pattern>
        <pattern steps="16" muted="0" type="1" pos="8832" name="unisaw">
          <note key="67" pos="0" len="384" vol="170" pan="0"/>
          <note key="63" pos="0" len="384" vol="170" pan="0"/>
          <note key="60" pos="0" len="384" vol="170" pan="0"/>
          <note key="68" pos="384" len="144" vol="170" pan="0"/>
          <note key="63" pos="384" len="144" vol="170" pan="0"/>
          <note key="60" pos="384" len="144" vol="170" pan="0"/>
          <note key="70" pos="528" len="240" vol="170" pan="0"/>
          <note key="65" pos="528" len="240" vol="170" pan="0"/>
          <note key="62" pos="528" len="240" vol="170" pan="0"/>
        </pattern>
        <pattern steps="16" muted="0" type="1" pos="12672" name="unisaw">
          <note key="63" pos="0" len="384" vol="170" pan="0"/>
          <note key="60" pos="0" len="384" vol="170" pan="0"/>
          <note key="68" pos="384" len="384" vol="170" pan="0"/>
          <note key="63" pos="384" len="384" vol="170" pan="0"/>
          <note key="67" pos="768" len="384" vol="170" pan="0"/>
          <note key="63" pos="768" len="384" vol="170" pan="0"/>
        </pattern>
        <pattern steps="16" muted="0" type="1" pos="11904" name="unisaw">
          <note key="80" pos="0" len="384" vol="195" pan="0"/>
          <note key="77" pos="0" len="384" vol="195" pan="0"/>
          <note key="72" pos="0" len="384" vol="195" pan="0"/>
          <note key="80" pos="384" len="384" vol="195" pan="0"/>
          <note key="77" pos="384" len="384" vol="195" pan="0"/>
          <note key="73" pos="384" len="384" vol="195" pan="0"/>
        </pattern>
        <pattern steps="16" muted="0" type="1" pos="15744" name="unisaw">
          <note key="79" pos="0" len="6" vol="185" pan="0"/>
          <note key="75" pos="0" len="6" vol="185" pan="0"/>
          <note key="72" pos="0" len="6" vol="185" pan="0"/>
          <note key="79" pos="12" len="6" vol="185" pan="0"/>
          <note key="75" pos="12" len="6" vol="185" pan="0"/>
          <note key="72" pos="12" len="6" vol="185" pan="0"/>
          <note key="79" pos="24" len="6" vol="185" pan="0"/>
          <note key="75" pos="24" len="6" vol="185" pan="0"/>
          <note key="72" pos="24" len="6" vol="185" pan="0"/>
          <note key="79" pos="36" len="6" vol="185" pan="0"/>
          <note key="75" pos="36" len="6" vol="185" pan="0"/>
          <note key="72" pos="36" len="6" vol="185" pan="0"/>
          <note key="79" pos="48" len="24" vol="185" pan="0"/>
          <note key="75" pos="48" len="24" vol="185" pan="0"/>
          <note key="72" pos="48" len="24" vol="185" pan="0"/>
          <note key="79" pos="72" len="6" vol="185" pan="0"/>
          <note key="75" pos="72" len="6" vol="185" pan="0"/>
          <note key="72" pos="72" len="6" vol="185" pan="0"/>
          <note key="79" pos="84" len="6" vol="185" pan="0"/>
          <note key="75" pos="84" len="6" vol="185" pan="0"/>
          <note key="72" pos="84" len="6" vol="185" pan="0"/>
          <note key="79" pos="96" len="6" vol="185" pan="0"/>
          <note key="75" pos="96" len="6" vol="185" pan="0"/>
          <note key="72" pos="96" len="6" vol="185" pan="0"/>
          <note key="79" pos="108" len="6" vol="185" pan="0"/>
          <note key="75" pos="108" len="6" vol="185" pan="0"/>
          <note key="72" pos="108" len="6" vol="185" pan="0"/>
          <note key="79" pos="120" len="6" vol="185" pan="0"/>
          <note key="75" pos="120" len="6" vol="185" pan="0"/>
          <note key="72" pos="120" len="6" vol="185" pan="0"/>
          <note key="79" pos="132" len="6" vol="185" pan="0"/>
          <note key="75" pos="132" len="6" vol="185" pan="0"/>
          <note key="72" pos="132" len="6" vol="185" pan="0"/>
          <note key="79" pos="144" len="24" vol="185" pan="0"/>
          <note key="75" pos="144" len="24" vol="185" pan="0"/>
          <note key="72" pos="144" len="24" vol="185" pan="0"/>
          <note key="79" pos="168" len="6" vol="185" pan="0"/>
          <note key="75" pos="168" len="6" vol="185" pan="0"/>
          <note key="72" pos="168" len="6" vol="185" pan="0"/>
          <note key="79" pos="180" len="6" vol="185" pan="0"/>
          <note key="75" pos="180" len="6" vol="185" pan="0"/>
          <note key="72" pos="180" len="6" vol="185" pan="0"/>
          <note key="77" pos="192" len="6" vol="185" pan="0"/>
          <note key="74" pos="192" len="6" vol="185" pan="0"/>
          <note key="70" pos="192" len="6" vol="185" pan="0"/>
          <note key="77" pos="204" len="6" vol="185" pan="0"/>
          <note key="74" pos="204" len="6" vol="185" pan="0"/>
          <note key="70" pos="204" len="6" vol="185" pan="0"/>
          <note key="77" pos="216" len="6" vol="185" pan="0"/>
          <note key="74" pos="216" len="6" vol="185" pan="0"/>
          <note key="70" pos="216" len="6" vol="185" pan="0"/>
          <note key="77" pos="228" len="6" vol="185" pan="0"/>
          <note key="74" pos="228" len="6" vol="185" pan="0"/>
          <note key="70" pos="228" len="6" vol="185" pan="0"/>
          <note key="77" pos="240" len="24" vol="185" pan="0"/>
          <note key="74" pos="240" len="24" vol="185" pan="0"/>
          <note key="70" pos="240" len="24" vol="185" pan="0"/>
          <note key="75" pos="264" len="24" vol="185" pan="0"/>
          <note key="72" pos="264" len="24" vol="185" pan="0"/>
          <note key="68" pos="264" len="24" vol="185" pan="0"/>
          <note key="75" pos="288" len="6" vol="185" pan="0"/>
          <note key="72" pos="288" len="6" vol="185" pan="0"/>
          <note key="68" pos="288" len="6" vol="185" pan="0"/>
          <note key="75" pos="300" len="6" vol="185" pan="0"/>
          <note key="72" pos="300" len="6" vol="185" pan="0"/>
          <note key="68" pos="300" len="6" vol="185" pan="0"/>
          <note key="75" pos="312" len="6" vol="185" pan="0"/>
          <note key="72" pos="312" len="6" vol="185" pan="0"/>
          <note key="68" pos="312" len="6" vol="185" pan="0"/>
          <note key="75" pos="324" len="6" vol="185" pan="0"/>
          <note key="72" pos="324" len="6" vol="185" pan="0"/>
          <note key="68" pos="324" len="6" vol="185" pan="0"/>
          <note key="75" pos="336" len="6" vol="185" pan="0"/>
          <note key="72" pos="336" len="6" vol="185" pan="0"/>
          <note key="68" pos="336" len="6" vol="185" pan="0"/>
          <note key="75" pos="348" len="6" vol="185" pan="0"/>
          <note key="72" pos="348" len="6" vol="185" pan="0"/>
          <note key="68" pos="348" len="6" vol="185" pan="0"/>
          <note key="75" pos="360" len="6" vol="185" pan="0"/>
          <note key="72" pos="360" len="6" vol="185" pan="0"/>
          <note key="68" pos="360" len="6" vol="185" pan="0"/>
          <note key="75" pos="372" len="6" vol="185" pan="0"/>
          <note key="72" pos="372" len="6" vol="185" pan="0"/>
          <note key="68" pos="372" len="6" vol="185" pan="0"/>
        </pattern>
        <pattern steps="16" muted="0" type="1" pos="16128" name="unisaw">
          <note key="79" pos="0" len="6" vol="185" pan="0"/>
          <note key="75" pos="0" len="6" vol="185" pan="0"/>
          <note key="70" pos="0" len="6" vol="185" pan="0"/>
          <note key="79" pos="12" len="6" vol="185" pan="0"/>
          <note key="75" pos="12" len="6" vol="185" pan="0"/>
          <note key="70" pos="12" len="6" vol="185" pan="0"/>
          <note key="79" pos="24" len="6" vol="185" pan="0"/>
          <note key="75" pos="24" len="6" vol="185" pan="0"/>
          <note key="70" pos="24" len="6" vol="185" pan="0"/>
          <note key="79" pos="36" len="6" vol="185" pan="0"/>
          <note key="75" pos="36" len="6" vol="185" pan="0"/>
          <note key="70" pos="36" len="6" vol="185" pan="0"/>
          <note key="79" pos="48" len="24" vol="185" pan="0"/>
          <note key="75" pos="48" len="24" vol="185" pan="0"/>
          <note key="70" pos="48" len="24" vol="185" pan="0"/>
          <note key="79" pos="72" len="6" vol="185" pan="0"/>
          <note key="75" pos="72" len="6" vol="185" pan="0"/>
          <note key="70" pos="72" len="6" vol="185" pan="0"/>
          <note key="79" pos="84" len="6" vol="185" pan="0"/>
          <note key="75" pos="84" len="6" vol="185" pan="0"/>
          <note key="70" pos="84" len="6" vol="185" pan="0"/>
          <note key="79" pos="96" len="6" vol="185" pan="0"/>
          <note key="75" pos="96" len="6" vol="185" pan="0"/>
          <note key="70" pos="96" len="6" vol="185" pan="0"/>
          <note key="79" pos="108" len="6" vol="185" pan="0"/>
          <note key="75" pos="108" len="6" vol="185" pan="0"/>
          <note key="70" pos="108" len="6" vol="185" pan="0"/>
          <note key="79" pos="120" len="6" vol="185" pan="0"/>
          <note key="75" pos="120" len="6" vol="185" pan="0"/>
          <note key="70" pos="120" len="6" vol="185" pan="0"/>
          <note key="79" pos="132" len="6" vol="185" pan="0"/>
          <note key="75" pos="132" len="6" vol="185" pan="0"/>
          <note key="70" pos="132" len="6" vol="185" pan="0"/>
          <note key="79" pos="144" len="24" vol="185" pan="0"/>
          <note key="75" pos="144" len="24" vol="185" pan="0"/>
          <note key="70" pos="144" len="24" vol="185" pan="0"/>
          <note key="79" pos="168" len="6" vol="185" pan="0"/>
          <note key="75" pos="168" len="6" vol="185" pan="0"/>
          <note key="70" pos="168" len="6" vol="185" pan="0"/>
          <note key="79" pos="180" len="6" vol="185" pan="0"/>
          <note key="75" pos="180" len="6" vol="185" pan="0"/>
          <note key="70" pos="180" len="6" vol="185" pan="0"/>
          <note key="80" pos="192" len="6" vol="185" pan="0"/>
          <note key="77" pos="192" len="6" vol="185" pan="0"/>
          <note key="72" pos="192" len="6" vol="185" pan="0"/>
          <note key="80" pos="204" len="6" vol="185" pan="0"/>
          <note key="77" pos="204" len="6" vol="185" pan="0"/>
          <note key="72" pos="204" len="6" vol="185" pan="0"/>
          <note key="80" pos="216" len="6" vol="185" pan="0"/>
          <note key="77" pos="216" len="6" vol="185" pan="0"/>
          <note key="72" pos="216" len="6" vol="185" pan="0"/>
          <note key="80" pos="228" len="6" vol="185" pan="0"/>
          <note key="77" pos="228" len="6" vol="185" pan="0"/>
          <note key="72" pos="228" len="6" vol="185" pan="0"/>
          <note key="80" pos="240" len="24" vol="185" pan="0"/>
          <note key="77" pos="240" len="24" vol="185" pan="0"/>
          <note key="72" pos="240" len="24" vol="185" pan="0"/>
          <note key="79" pos="264" len="24" vol="185" pan="0"/>
          <note key="75" pos="264" len="24" vol="185" pan="0"/>
          <note key="72" pos="264" len="24" vol="185" pan="0"/>
          <note key="79" pos="288" len="6" vol="185" pan="0"/>
          <note key="75" pos="288" len="6" vol="185" pan="0"/>
          <note key="72" pos="288" len="6" vol="185" pan="0"/>
          <note key="79" pos="300" len="6" vol="185" pan="0"/>
          <note key="75" pos="300" len="6" vol="185" pan="0"/>
          <note key="72" pos="300" len="6" vol="185" pan="0"/>
          <note key="79" pos="312" len="6" vol="185" pan="0"/>
          <note key="75" pos="312" len="6" vol="185" pan="0"/>
          <note key="72" pos="312" len="6" vol="185" pan="0"/>
          <note key="79" pos="324" len="6" vol="185" pan="0"/>
          <note key="75" pos="324" len="6" vol="185" pan="0"/>
          <note key="72" pos="324" len="6" vol="185" pan="0"/>
          <note key="79" pos="336" len="6" vol="185" pan="0"/>
          <note key="75" pos="336" len="6" vol="185" pan="0"/>
          <note key="72" pos="336" len="6" vol="185" pan="0"/>
          <note key="79" pos="348" len="6" vol="185" pan="0"/>
          <note key="75" pos="348" len="6" vol="185" pan="0"/>
          <note key="72" pos="348" len="6" vol="185" pan="0"/>
          <note key="79" pos="360" len="6" vol="185" pan="0"/>
          <note key="75" pos="360" len="6" vol="185" pan="0"/>
          <note key="72" pos="360" len="6" vol="185" pan="0"/>
          <note key="79" pos="372" len="6" vol="185" pan="0"/>
          <note key="75" pos="372" len="6" vol="185" pan="0"/>
          <note key="72" pos="372" len="6" vol="185" pan="0"/>
        </pattern>
        <pattern steps="16" muted="0" type="1" pos="16512" name="unisaw">
          <note key="79" pos="0" len="6" vol="185" pan="0"/>
          <note key="75" pos="0" len="6" vol="185" pan="0"/>
          <note key="72" pos="0" len="6" vol="185" pan="0"/>
          <note key="79" pos="12" len="6" vol="185" pan="0"/>
          <note key="75" pos="12" len="6" vol="185" pan="0"/>
          <note key="72" pos="12" len="6" vol="185" pan="0"/>
          <note key="79" pos="24" len="6" vol="185" pan="0"/>
          <note key="75" pos="24" len="6" vol="185" pan="0"/>
          <note key="72" pos="24" len="6" vol="185" pan="0"/>
          <note key="79" pos="36" len="6" vol="185" pan="0"/>
          <note key="75" pos="36" len="6" vol="185" pan="0"/>
          <note key="72" pos="36" len="6" vol="185" pan="0"/>
          <note key="79" pos="48" len="24" vol="185" pan="0"/>
          <note key="75" pos="48" len="24" vol="185" pan="0"/>
          <note key="72" pos="48" len="24" vol="185" pan="0"/>
          <note key="79" pos="72" len="6" vol="185" pan="0"/>
          <note key="75" pos="72" len="6" vol="185" pan="0"/>
          <note key="72" pos="72" len="6" vol="185" pan="0"/>
          <note key="79" pos="84" len="6" vol="185" pan="0"/>
          <note key="75" pos="84" len="6" vol="185" pan="0"/>
          <note key="72" pos="84" len="6" vol="185" pan="0"/>
          <note key="79" pos="96" len="6" vol="185" pan="0"/>
          <note key="75" pos="96" len="6" vol="185" pan="0"/>
          <note key="72" pos="96" len="6" vol="185" pan="0"/>
          <note key="79" pos="108" len="6" vol="185" pan="0"/>
          <note key="75" pos="108" len="6" vol="185" pan="0"/>
          <note key="72" pos="108" len="6" vol="185" pan="0"/>
          <note key="79" pos="120" len="6" vol="185" pan="0"/>
          <note key="75" pos="120" len="6" vol="185" pan="0"/>
          <note key="72" pos="120" len="6" vol="185" pan="0"/>
          <note key="79" pos="132" len="6" vol="185" pan="0"/>
          <note key="75" pos="132" len="6" vol="185" pan="0"/>
          <note key="72" pos="132" len="6" vol="185" pan="0"/>
          <note key="79" pos="144" len="24" vol="185" pan="0"/>
          <note key="75" pos="144" len="24" vol="185" pan="0"/>
          <note key="72" pos="144" len="24" vol="185" pan="0"/>
          <note key="79" pos="168" len="6" vol="185" pan="0"/>
          <note key="75" pos="168" len="6" vol="185" pan="0"/>
          <note key="72" pos="168" len="6" vol="185" pan="0"/>
          <note key="79" pos="180" len="6" vol="185" pan="0"/>
          <note key="75" pos="180" len="6" vol="185" pan="0"/>
          <note key="72" pos="180" len="6" vol="185" pan="0"/>
          <note key="82" pos="192" len="6" vol="185" pan="0"/>
          <note key="77" pos="192" len="6" vol="185" pan="0"/>
          <note key="74" pos="192" len="6" vol="185" pan="0"/>
          <note key="82" pos="204" len="6" vol="185" pan="0"/>
          <note key="77" pos="204" len="6" vol="185" pan="0"/>
          <note key="74" pos="204" len="6" vol="185" pan="0"/>
          <note key="82" pos="216" len="6" vol="185" pan="0"/>
          <note key="77" pos="216" len="6" vol="185" pan="0"/>
          <note key="74" pos="216" len="6" vol="185" pan="0"/>
          <note key="82" pos="228" len="6" vol="185" pan="0"/>
          <note key="77" pos="228" len="6" vol="185" pan="0"/>
          <note key="74" pos="228" len="6" vol="185" pan="0"/>
          <note key="82" pos="240" len="24" vol="185" pan="0"/>
          <note key="77" pos="240" len="24" vol="185" pan="0"/>
          <note key="74" pos="240" len="24" vol="185" pan="0"/>
          <note key="84" pos="264" len="24" vol="185" pan="0"/>
          <note key="80" pos="264" len="24" vol="185" pan="0"/>
          <note key="75" pos="264" len="24" vol="185" pan="0"/>
          <note key="84" pos="288" len="6" vol="185" pan="0"/>
          <note key="80" pos="288" len="6" vol="185" pan="0"/>
          <note key="75" pos="288" len="6" vol="185" pan="0"/>
          <note key="84" pos="300" len="6" vol="185" pan="0"/>
          <note key="80" pos="300" len="6" vol="185" pan="0"/>
          <note key="75" pos="300" len="6" vol="185" pan="0"/>
          <note key="84" pos="312" len="6" vol="185" pan="0"/>
          <note key="80" pos="312" len="6" vol="185" pan="0"/>
          <note key="75" pos="312" len="6" vol="185" pan="0"/>
          <note key="84" pos="324" len="6" vol="185" pan="0"/>
          <note key="80" pos="324" len="6" vol="185" pan="0"/>
          <note key="75" pos="324" len="6" vol="185" pan="0"/>
          <note key="84" pos="336" len="6" vol="185" pan="0"/>
          <note key="80" pos="336" len="6" vol="185" pan="0"/>
          <note key="75" pos="336" len="6" vol="185" pan="0"/>
          <note key="84" pos="348" len="6" vol="185" pan="0"/>
          <note key="80" pos="348" len="6" vol="185" pan="0"/>
          <note key="75" pos="348" len="6" vol="185" pan="0"/>
          <note key="84" pos="360" len="6" vol="185" pan="0"/>
          <note key="80" pos="360" len="6" vol="185" pan="0"/>
          <note key="75" pos="360" len="6" vol="185" pan="0"/>
          <note key="84" pos="372" len="6" vol="185" pan="0"/>
          <note key="80" pos="372" len="6" vol="185" pan="0"/>
          <note key="75" pos="372" len="6" vol="185" pan="0"/>
        </pattern>
        <pattern steps="16" muted="0" type="1" pos="16896" name="unisaw">
          <note key="82" pos="0" len="6" vol="185" pan="0"/>
          <note key="79" pos="0" len="6" vol="185" pan="0"/>
          <note key="75" pos="0" len="6" vol="185" pan="0"/>
          <note key="82" pos="12" len="6" vol="185" pan="0"/>
          <note key="79" pos="12" len="6" vol="185" pan="0"/>
          <note key="75" pos="12" len="6" vol="185" pan="0"/>
          <note key="82" pos="24" len="6" vol="185" pan="0"/>
          <note key="79" pos="24" len="6" vol="185" pan="0"/>
          <note key="75" pos="24" len="6" vol="185" pan="0"/>
          <note key="82" pos="36" len="6" vol="185" pan="0"/>
          <note key="79" pos="36" len="6" vol="185" pan="0"/>
          <note key="75" pos="36" len="6" vol="185" pan="0"/>
          <note key="82" pos="48" len="24" vol="185" pan="0"/>
          <note key="79" pos="48" len="24" vol="185" pan="0"/>
          <note key="75" pos="48" len="24" vol="185" pan="0"/>
          <note key="82" pos="72" len="6" vol="185" pan="0"/>
          <note key="79" pos="72" len="6" vol="185" pan="0"/>
          <note key="75" pos="72" len="6" vol="185" pan="0"/>
          <note key="82" pos="84" len="6" vol="185" pan="0"/>
          <note key="79" pos="84" len="6" vol="185" pan="0"/>
          <note key="75" pos="84" len="6" vol="185" pan="0"/>
          <note key="82" pos="96" len="6" vol="185" pan="0"/>
          <note key="79" pos="96" len="6" vol="185" pan="0"/>
          <note key="75" pos="96" len="6" vol="185" pan="0"/>
          <note key="82" pos="108" len="6" vol="185" pan="0"/>
          <note key="79" pos="108" len="6" vol="185" pan="0"/>
          <note key="75" pos="108" len="6" vol="185" pan="0"/>
          <note key="82" pos="120" len="6" vol="185" pan="0"/>
          <note key="79" pos="120" len="6" vol="185" pan="0"/>
          <note key="75" pos="120" len="6" vol="185" pan="0"/>
          <note key="82" pos="132" len="6" vol="185" pan="0"/>
          <note key="79" pos="132" len="6" vol="185" pan="0"/>
          <note key="75" pos="132" len="6" vol="185" pan="0"/>
          <note key="82" pos="144" len="24" vol="185" pan="0"/>
          <note key="79" pos="144" len="24" vol="185" pan="0"/>
          <note key="75" pos="144" len="24" vol="185" pan="0"/>
          <note key="82" pos="168" len="6" vol="185" pan="0"/>
          <note key="79" pos="168" len="6" vol="185" pan="0"/>
          <note key="75" pos="168" len="6" vol="185" pan="0"/>
          <note key="82" pos="180" len="6" vol="185" pan="0"/>
          <note key="79" pos="180" len="6" vol="185" pan="0"/>
          <note key="75" pos="180" len="6" vol="185" pan="0"/>
          <note key="84" pos="192" len="6" vol="185" pan="0"/>
          <note key="80" pos="192" len="6" vol="185" pan="0"/>
          <note key="77" pos="192" len="6" vol="185" pan="0"/>
          <note key="84" pos="204" len="6" vol="185" pan="0"/>
          <note key="80" pos="204" len="6" vol="185" pan="0"/>
          <note key="77" pos="204" len="6" vol="185" pan="0"/>
          <note key="84" pos="216" len="6" vol="185" pan="0"/>
          <note key="80" pos="216" len="6" vol="185" pan="0"/>
          <note key="77" pos="216" len="6" vol="185" pan="0"/>
          <note key="84" pos="228" len="6" vol="185" pan="0"/>
          <note key="80" pos="228" len="6" vol="185" pan="0"/>
          <note key="77" pos="228" len="6" vol="185" pan="0"/>
          <note key="84" pos="240" len="24" vol="185" pan="0"/>
          <note key="80" pos="240" len="24" vol="185" pan="0"/>
          <note key="77" pos="240" len="24" vol="185" pan="0"/>
          <note key="84" pos="264" len="24" vol="185" pan="0"/>
          <note key="79" pos="264" len="24" vol="185" pan="0"/>
          <note key="75" pos="264" len="24" vol="185" pan="0"/>
          <note key="84" pos="288" len="6" vol="185" pan="0"/>
          <note key="79" pos="288" len="6" vol="185" pan="0"/>
          <note key="75" pos="288" len="6" vol="185" pan="0"/>
          <note key="84" pos="300" len="6" vol="185" pan="0"/>
          <note key="79" pos="300" len="6" vol="185" pan="0"/>
          <note key="75" pos="300" len="6" vol="185" pan="0"/>
          <note key="84" pos="312" len="6" vol="185" pan="0"/>
          <note key="79" pos="312" len="6" vol="185" pan="0"/>
          <note key="75" pos="312" len="6" vol="185" pan="0"/>
          <note key="84" pos="324" len="6" vol="185" pan="0"/>
          <note key="79" pos="324" len="6" vol="185" pan="0"/>
          <note key="75" pos="324" len="6" vol="185" pan="0"/>
          <note key="84" pos="336" len="6" vol="185" pan="0"/>
          <note key="79" pos="336" len="6" vol="185" pan="0"/>
          <note key="75" pos="336" len="6" vol="185" pan="0"/>
          <note key="84" pos="348" len="6" vol="185" pan="0"/>
          <note key="79" pos="348" len="6" vol="185" pan="0"/>
          <note key="75" pos="348" len="6" vol="185" pan="0"/>
          <note key="84" pos="360" len="6" vol="185" pan="0"/>
          <note key="79" pos="360" len="6" vol="185" pan="0"/>
          <note key="75" pos="360" len="6" vol="185" pan="0"/>
          <note key="84" pos="372" len="6" vol="185" pan="0"/>
          <note key="79" pos="372" len="6" vol="185" pan="0"/>
          <note key="75" pos="372" len="6" vol="185" pan="0"/>
        </pattern>
        <pattern steps="16" muted="0" type="1" pos="17280" name="unisaw">
          <note key="81" pos="0" len="6" vol="185" pan="0"/>
          <note key="77" pos="0" len="6" vol="185" pan="0"/>
          <note key="74" pos="0" len="6" vol="185" pan="0"/>
          <note key="81" pos="12" len="6" vol="185" pan="0"/>
          <note key="77" pos="12" len="6" vol="185" pan="0"/>
          <note key="74" pos="12" len="6" vol="185" pan="0"/>
          <note key="81" pos="24" len="6" vol="185" pan="0"/>
          <note key="77" pos="24" len="6" vol="185" pan="0"/>
          <note key="74" pos="24" len="6" vol="185" pan="0"/>
          <note key="81" pos="36" len="6" vol="185" pan="0"/>
          <note key="77" pos="36" len="6" vol="185" pan="0"/>
          <note key="74" pos="36" len="6" vol="185" pan="0"/>
          <note key="81" pos="48" len="24" vol="185" pan="0"/>
          <note key="77" pos="48" len="24" vol="185" pan="0"/>
          <note key="74" pos="48" len="24" vol="185" pan="0"/>
          <note key="81" pos="72" len="6" vol="185" pan="0"/>
          <note key="77" pos="72" len="6" vol="185" pan="0"/>
          <note key="74" pos="72" len="6" vol="185" pan="0"/>
          <note key="81" pos="84" len="6" vol="185" pan="0"/>
          <note key="77" pos="84" len="6" vol="185" pan="0"/>
          <note key="74" pos="84" len="6" vol="185" pan="0"/>
          <note key="81" pos="96" len="6" vol="185" pan="0"/>
          <note key="77" pos="96" len="6" vol="185" pan="0"/>
          <note key="74" pos="96" len="6" vol="185" pan="0"/>
          <note key="81" pos="108" len="6" vol="185" pan="0"/>
          <note key="77" pos="108" len="6" vol="185" pan="0"/>
          <note key="74" pos="108" len="6" vol="185" pan="0"/>
          <note key="81" pos="120" len="6" vol="185" pan="0"/>
          <note key="77" pos="120" len="6" vol="185" pan="0"/>
          <note key="74" pos="120" len="6" vol="185" pan="0"/>
          <note key="81" pos="132" len="6" vol="185" pan="0"/>
          <note key="77" pos="132" len="6" vol="185" pan="0"/>
          <note key="74" pos="132" len="6" vol="185" pan="0"/>
          <note key="81" pos="144" len="24" vol="185" pan="0"/>
          <note key="77" pos="144" len="24" vol="185" pan="0"/>
          <note key="74" pos="144" len="24" vol="185" pan="0"/>
          <note key="81" pos="168" len="6" vol="185" pan="0"/>
          <note key="77" pos="168" len="6" vol="185" pan="0"/>
          <note key="74" pos="168" len="6" vol="185" pan="0"/>
          <note key="81" pos="180" len="6" vol="185" pan="0"/>
          <note key="77" pos="180" len="6" vol="185" pan="0"/>
          <note key="74" pos="180" len="6" vol="185" pan="0"/>
          <note key="79" pos="192" len="6" vol="185" pan="0"/>
          <note key="76" pos="192" len="6" vol="185" pan="0"/>
          <note key="72" pos="192" len="6" vol="185" pan="0"/>
          <note key="79" pos="204" len="6" vol="185" pan="0"/>
          <note key="76" pos="204" len="6" vol="185" pan="0"/>
          <note key="72" pos="204" len="6" vol="185" pan="0"/>
          <note key="79" pos="216" len="6" vol="185" pan="0"/>
          <note key="76" pos="216" len="6" vol="185" pan="0"/>
          <note key="72" pos="216" len="6" vol="185" pan="0"/>
          <note key="79" pos="228" len="6" vol="185" pan="0"/>
          <note key="76" pos="228" len="6" vol="185" pan="0"/>
          <note key="72" pos="228" len="6" vol="185" pan="0"/>
          <note key="79" pos="240" len="24" vol="185" pan="0"/>
          <note key="76" pos="240" len="24" vol="185" pan="0"/>
          <note key="72" pos="240" len="24" vol="185" pan="0"/>
          <note key="77" pos="264" len="24" vol="185" pan="0"/>
          <note key="74" pos="264" len="24" vol="185" pan="0"/>
          <note key="70" pos="264" len="24" vol="185" pan="0"/>
          <note key="77" pos="288" len="6" vol="185" pan="0"/>
          <note key="74" pos="288" len="6" vol="185" pan="0"/>
          <note key="70" pos="288" len="6" vol="185" pan="0"/>
          <note key="77" pos="300" len="6" vol="185" pan="0"/>
          <note key="74" pos="300" len="6" vol="185" pan="0"/>
          <note key="70" pos="300" len="6" vol="185" pan="0"/>
          <note key="77" pos="312" len="6" vol="185" pan="0"/>
          <note key="74" pos="312" len="6" vol="185" pan="0"/>
          <note key="70" pos="312" len="6" vol="185" pan="0"/>
          <note key="77" pos="324" len="6" vol="185" pan="0"/>
          <note key="74" pos="324" len="6" vol="185" pan="0"/>
          <note key="70" pos="324" len="6" vol="185" pan="0"/>
          <note key="77" pos="336" len="6" vol="185" pan="0"/>
          <note key="74" pos="336" len="6" vol="185" pan="0"/>
          <note key="70" pos="336" len="6" vol="185" pan="0"/>
          <note key="77" pos="348" len="6" vol="185" pan="0"/>
          <note key="74" pos="348" len="6" vol="185" pan="0"/>
          <note key="70" pos="348" len="6" vol="185" pan="0"/>
          <note key="77" pos="360" len="6" vol="185" pan="0"/>
          <note key="74" pos="360" len="6" vol="185" pan="0"/>
          <note key="70" pos="360" len="6" vol="185" pan="0"/>
          <note key="77" pos="372" len="6" vol="185" pan="0"/>
          <note key="74" pos="372" len="6" vol="185" pan="0"/>
          <note key="70" pos="372" len="6" vol="185" pan="0"/>
        </pattern>
        <pattern steps="16" muted="0" type="1" pos="17664" name="unisaw">
          <note key="81" pos="0" len="6" vol="185" pan="0"/>
          <note key="77" pos="0" len="6" vol="185" pan="0"/>
          <note key="72" pos="0" len="6" vol="185" pan="0"/>
          <note key="81" pos="12" len="6" vol="185" pan="0"/>
          <note key="77" pos="12" len="6" vol="185" pan="0"/>
          <note key="72" pos="12" len="6" vol="185" pan="0"/>
          <note key="81" pos="24" len="6" vol="185" pan="0"/>
          <note key="77" pos="24" len="6" vol="185" pan="0"/>
          <note key="72" pos="24" len="6" vol="185" pan="0"/>
          <note key="81" pos="36" len="6" vol="185" pan="0"/>
          <note key="77" pos="36" len="6" vol="185" pan="0"/>
          <note key="72" pos="36" len="6" vol="185" pan="0"/>
          <note key="81" pos="48" len="24" vol="185" pan="0"/>
          <note key="77" pos="48" len="24" vol="185" pan="0"/>
          <note key="72" pos="48" len="24" vol="185" pan="0"/>
          <note key="81" pos="72" len="6" vol="185" pan="0"/>
          <note key="77" pos="72" len="6" vol="185" pan="0"/>
          <note key="72" pos="72" len="6" vol="185" pan="0"/>
          <note key="81" pos="84" len="6" vol="185" pan="0"/>
          <note key="77" pos="84" len="6" vol="185" pan="0"/>
          <note key="72" pos="84" len="6" vol="185" pan="0"/>
          <note key="81" pos="96" len="6" vol="185" pan="0"/>
          <note key="77" pos="96" len="6" vol="185" pan="0"/>
          <note key="72" pos="96" len="6" vol="185" pan="0"/>
          <note key="81" pos="108" len="6" vol="185" pan="0"/>
          <note key="77" pos="108" len="6" vol="185" pan="0"/>
          <note key="72" pos="108" len="6" vol="185" pan="0"/>
          <note key="81" pos="120" len="6" vol="185" pan="0"/>
          <note key="77" pos="120" len="6" vol="185" pan="0"/>
          <note key="72" pos="120" len="6" vol="185" pan="0"/>
          <note key="81" pos="132" len="6" vol="185" pan="0"/>
          <note key="77" pos="132" len="6" vol="185" pan="0"/>
          <note key="72" pos="132" len="6" vol="185" pan="0"/>
          <note key="81" pos="144" len="24" vol="185" pan="0"/>
          <note key="77" pos="144" len="24" vol="185" pan="0"/>
          <note key="72" pos="144" len="24" vol="185" pan="0"/>
          <note key="81" pos="168" len="6" vol="185" pan="0"/>
          <note key="77" pos="168" len="6" vol="185" pan="0"/>
          <note key="72" pos="168" len="6" vol="185" pan="0"/>
          <note key="81" pos="180" len="6" vol="185" pan="0"/>
          <note key="77" pos="180" len="6" vol="185" pan="0"/>
          <note key="72" pos="180" len="6" vol="185" pan="0"/>
          <note key="82" pos="192" len="6" vol="185" pan="0"/>
          <note key="79" pos="192" len="6" vol="185" pan="0"/>
          <note key="74" pos="192" len="6" vol="185" pan="0"/>
          <note key="82" pos="204" len="6" vol="185" pan="0"/>
          <note key="79" pos="204" len="6" vol="185" pan="0"/>
          <note key="74" pos="204" len="6" vol="185" pan="0"/>
          <note key="82" pos="216" len="6" vol="185" pan="0"/>
          <note key="79" pos="216" len="6" vol="185" pan="0"/>
          <note key="74" pos="216" len="6" vol="185" pan="0"/>
          <note key="82" pos="228" len="6" vol="185" pan="0"/>
          <note key="79" pos="228" len="6" vol="185" pan="0"/>
          <note key="74" pos="228" len="6" vol="185" pan="0"/>
          <note key="82" pos="240" len="24" vol="185" pan="0"/>
          <note key="79" pos="240" len="24" vol="185" pan="0"/>
          <note key="74" pos="240" len="24" vol="185" pan="0"/>
          <note key="81" pos="264" len="24" vol="185" pan="0"/>
          <note key="77" pos="264" len="24" vol="185" pan="0"/>
          <note key="74" pos="264" len="24" vol="185" pan="0"/>
          <note key="81" pos="288" len="6" vol="185" pan="0"/>
          <note key="77" pos="288" len="6" vol="185" pan="0"/>
          <note key="74" pos="288" len="6" vol="185" pan="0"/>
          <note key="81" pos="300" len="6" vol="185" pan="0"/>
          <note key="77" pos="300" len="6" vol="185" pan="0"/>
          <note key="74" pos="300" len="6" vol="185" pan="0"/>
          <note key="81" pos="312" len="6" vol="185" pan="0"/>
          <note key="77" pos="312" len="6" vol="185" pan="0"/>
          <note key="74" pos="312" len="6" vol="185" pan="0"/>
          <note key="81" pos="324" len="6" vol="185" pan="0"/>
          <note key="77" pos="324" len="6" vol="185" pan="0"/>
          <note key="74" pos="324" len="6" vol="185" pan="0"/>
          <note key="81" pos="336" len="6" vol="185" pan="0"/>
          <note key="77" pos="336" len="6" vol="185" pan="0"/>
          <note key="74" pos="336" len="6" vol="185" pan="0"/>
          <note key="81" pos="348" len="6" vol="185" pan="0"/>
          <note key="77" pos="348" len="6" vol="185" pan="0"/>
          <note key="74" pos="348" len="6" vol="185" pan="0"/>
          <note key="81" pos="360" len="6" vol="185" pan="0"/>
          <note key="77" pos="360" len="6" vol="185" pan="0"/>
          <note key="74" pos="360" len="6" vol="185" pan="0"/>
          <note key="81" pos="372" len="6" vol="185" pan="0"/>
          <note key="77" pos="372" len="6" vol="185" pan="0"/>
          <note key="74" pos="372" len="6" vol="185" pan="0"/>
        </pattern>
        <pattern steps="16" muted="0" type="1" pos="18048" name="unisaw">
          <note key="81" pos="0" len="6" vol="185" pan="0"/>
          <note key="77" pos="0" len="6" vol="185" pan="0"/>
          <note key="74" pos="0" len="6" vol="185" pan="0"/>
          <note key="81" pos="12" len="6" vol="185" pan="0"/>
          <note key="77" pos="12" len="6" vol="185" pan="0"/>
          <note key="74" pos="12" len="6" vol="185" pan="0"/>
          <note key="81" pos="24" len="6" vol="185" pan="0"/>
          <note key="77" pos="24" len="6" vol="185" pan="0"/>
          <note key="74" pos="24" len="6" vol="185" pan="0"/>
          <note key="81" pos="36" len="6" vol="185" pan="0"/>
          <note key="77" pos="36" len="6" vol="185" pan="0"/>
          <note key="74" pos="36" len="6" vol="185" pan="0"/>
          <note key="81" pos="48" len="24" vol="185" pan="0"/>
          <note key="77" pos="48" len="24" vol="185" pan="0"/>
          <note key="74" pos="48" len="24" vol="185" pan="0"/>
          <note key="81" pos="72" len="6" vol="185" pan="0"/>
          <note key="77" pos="72" len="6" vol="185" pan="0"/>
          <note key="74" pos="72" len="6" vol="185" pan="0"/>
          <note key="81" pos="84" len="6" vol="185" pan="0"/>
          <note key="77" pos="84" len="6" vol="185" pan="0"/>
          <note key="74" pos="84" len="6" vol="185" pan="0"/>
          <note key="81" pos="96" len="6" vol="185" pan="0"/>
          <note key="77" pos="96" len="6" vol="185" pan="0"/>
          <note key="74" pos="96" len="6" vol="185" pan="0"/>
          <note key="81" pos="108" len="6" vol="185" pan="0"/>
          <note key="77" pos="108" len="6" vol="185" pan="0"/>
          <note key="74" pos="108" len="6" vol="185" pan="0"/>
          <note key="81" pos="120" len="6" vol="185" pan="0"/>
          <note key="77" pos="120" len="6" vol="185" pan="0"/>
          <note key="74" pos="120" len="6" vol="185" pan="0"/>
          <note key="81" pos="132" len="6" vol="185" pan="0"/>
          <note key="77" pos="132" len="6" vol="185" pan="0"/>
          <note key="74" pos="132" len="6" vol="185" pan="0"/>
          <note key="81" pos="144" len="24" vol="185" pan="0"/>
          <note key="77" pos="144" len="24" vol="185" pan="0"/>
          <note key="74" pos="144" len="24" vol="185" pan="0"/>
          <note key="81" pos="168" len="6" vol="185" pan="0"/>
          <note key="77" pos="168" len="6" vol="185" pan="0"/>
          <note key="74" pos="168" len="6" vol="185" pan="0"/>
          <note key="81" pos="180" len="6" vol="185" pan="0"/>
          <note key="77" pos="180" len="6" vol="185" pan="0"/>
          <note key="74" pos="180" len="6" vol="185" pan="0"/>
          <note key="84" pos="192" len="6" vol="185" pan="0"/>
          <note key="79" pos="192" len="6" vol="185" pan="0"/>
          <note key="76" pos="192" len="6" vol="185" pan="0"/>
          <note key="84" pos="204" len="6" vol="185" pan="0"/>
          <note key="79" pos="204" len="6" vol="185" pan="0"/>
          <note key="76" pos="204" len="6" vol="185" pan="0"/>
          <note key="84" pos="216" len="6" vol="185" pan="0"/>
          <note key="79" pos="216" len="6" vol="185" pan="0"/>
          <note key="76" pos="216" len="6" vol="185" pan="0"/>
          <note key="84" pos="228" len="6" vol="185" pan="0"/>
          <note key="79" pos="228" len="6" vol="185" pan="0"/>
          <note key="76" pos="228" len="6" vol="185" pan="0"/>
          <note key="84" pos="240" len="24" vol="185" pan="0"/>
          <note key="79" pos="240" len="24" vol="185" pan="0"/>
          <note key="76" pos="240" len="24" vol="185" pan="0"/>
          <note key="86" pos="264" len="24" vol="185" pan="0"/>
          <note key="82" pos="264" len="24" vol="185" pan="0"/>
          <note key="77" pos="264" len="24" vol="185" pan="0"/>
          <note key="86" pos="288" len="6" vol="185" pan="0"/>
          <note key="82" pos="288" len="6" vol="185" pan="0"/>
          <note key="77" pos="288" len="6" vol="185" pan="0"/>
          <note key="86" pos="300" len="6" vol="185" pan="0"/>
          <note key="82" pos="300" len="6" vol="185" pan="0"/>
          <note key="77" pos="300" len="6" vol="185" pan="0"/>
          <note key="86" pos="312" len="6" vol="185" pan="0"/>
          <note key="82" pos="312" len="6" vol="185" pan="0"/>
          <note key="77" pos="312" len="6" vol="185" pan="0"/>
          <note key="86" pos="324" len="6" vol="185" pan="0"/>
          <note key="82" pos="324" len="6" vol="185" pan="0"/>
          <note key="77" pos="324" len="6" vol="185" pan="0"/>
          <note key="86" pos="336" len="6" vol="185" pan="0"/>
          <note key="82" pos="336" len="6" vol="185" pan="0"/>
          <note key="77" pos="336" len="6" vol="185" pan="0"/>
          <note key="86" pos="348" len="6" vol="185" pan="0"/>
          <note key="82" pos="348" len="6" vol="185" pan="0"/>
          <note key="77" pos="348" len="6" vol="185" pan="0"/>
          <note key="86" pos="360" len="6" vol="185" pan="0"/>
          <note key="82" pos="360" len="6" vol="185" pan="0"/>
          <note key="77" pos="360" len="6" vol="185" pan="0"/>
          <note key="86" pos="372" len="6" vol="185" pan="0"/>
          <note key="82" pos="372" len="6" vol="185" pan="0"/>
          <note key="77" pos="372" len="6" vol="185" pan="0"/>
        </pattern>
        <pattern steps="16" muted="0" type="1" pos="18432" name="unisaw">
          <note key="84" pos="0" len="6" vol="185" pan="0"/>
          <note key="81" pos="0" len="6" vol="185" pan="0"/>
          <note key="77" pos="0" len="6" vol="185" pan="0"/>
          <note key="84" pos="12" len="6" vol="185" pan="0"/>
          <note key="81" pos="12" len="6" vol="185" pan="0"/>
          <note key="77" pos="12" len="6" vol="185" pan="0"/>
          <note key="84" pos="24" len="6" vol="185" pan="0"/>
          <note key="81" pos="24" len="6" vol="185" pan="0"/>
          <note key="77" pos="24" len="6" vol="185" pan="0"/>
          <note key="84" pos="36" len="6" vol="185" pan="0"/>
          <note key="81" pos="36" len="6" vol="185" pan="0"/>
          <note key="77" pos="36" len="6" vol="185" pan="0"/>
          <note key="84" pos="48" len="24" vol="185" pan="0"/>
          <note key="81" pos="48" len="24" vol="185" pan="0"/>
          <note key="77" pos="48" len="24" vol="185" pan="0"/>
          <note key="84" pos="72" len="6" vol="185" pan="0"/>
          <note key="81" pos="72" len="6" vol="185" pan="0"/>
          <note key="77" pos="72" len="6" vol="185" pan="0"/>
          <note key="84" pos="84" len="6" vol="185" pan="0"/>
          <note key="81" pos="84" len="6" vol="185" pan="0"/>
          <note key="77" pos="84" len="6" vol="185" pan="0"/>
          <note key="84" pos="96" len="6" vol="185" pan="0"/>
          <note key="81" pos="96" len="6" vol="185" pan="0"/>
          <note key="77" pos="96" len="6" vol="185" pan="0"/>
          <note key="84" pos="108" len="6" vol="185" pan="0"/>
          <note key="81" pos="108" len="6" vol="185" pan="0"/>
          <note key="77" pos="108" len="6" vol="185" pan="0"/>
          <note key="84" pos="120" len="6" vol="185" pan="0"/>
          <note key="81" pos="120" len="6" vol="185" pan="0"/>
          <note key="77" pos="120" len="6" vol="185" pan="0"/>
          <note key="84" pos="132" len="6" vol="185" pan="0"/>
          <note key="81" pos="132" len="6" vol="185" pan="0"/>
          <note key="77" pos="132" len="6" vol="185" pan="0"/>
          <note key="84" pos="144" len="24" vol="185" pan="0"/>
          <note key="81" pos="144" len="24" vol="185" pan="0"/>
          <note key="77" pos="144" len="24" vol="185" pan="0"/>
          <note key="84" pos="168" len="6" vol="185" pan="0"/>
          <note key="81" pos="168" len="6" vol="185" pan="0"/>
          <note key="77" pos="168" len="6" vol="185" pan="0"/>
          <note key="84" pos="180" len="6" vol="185" pan="0"/>
          <note key="81" pos="180" len="6" vol="185" pan="0"/>
          <note key="77" pos="180" len="6" vol="185" pan="0"/>
          <note key="86" pos="192" len="6" vol="185" pan="0"/>
          <note key="82" pos="192" len="6" vol="185" pan="0"/>
          <note key="79" pos="192" len="6" vol="185" pan="0"/>
          <note key="86" pos="204" len="6" vol="185" pan="0"/>
          <note key="82" pos="204" len="6" vol="185" pan="0"/>
          <note key="79" pos="204" len="6" vol="185" pan="0"/>
          <note key="86" pos="216" len="6" vol="185" pan="0"/>
          <note key="82" pos="216" len="6" vol="185" pan="0"/>
          <note key="79" pos="216" len="6" vol="185" pan="0"/>
          <note key="86" pos="228" len="6" vol="185" pan="0"/>
          <note key="82" pos="228" len="6" vol="185" pan="0"/>
          <note key="79" pos="228" len="6" vol="185" pan="0"/>
          <note key="86" pos="240" len="24" vol="185" pan="0"/>
          <note key="82" pos="240" len="24" vol="185" pan="0"/>
          <note key="79" pos="240" len="24" vol="185" pan="0"/>
          <note key="86" pos="264" len="24" vol="185" pan="0"/>
          <note key="81" pos="264" len="24" vol="185" pan="0"/>
          <note key="77" pos="264" len="24" vol="185" pan="0"/>
          <note key="86" pos="288" len="6" vol="185" pan="0"/>
          <note key="81" pos="288" len="6" vol="185" pan="0"/>
          <note key="77" pos="288" len="6" vol="185" pan="0"/>
          <note key="86" pos="300" len="6" vol="185" pan="0"/>
          <note key="81" pos="300" len="6" vol="185" pan="0"/>
          <note key="77" pos="300" len="6" vol="185" pan="0"/>
          <note key="86" pos="312" len="6" vol="185" pan="0"/>
          <note key="81" pos="312" len="6" vol="185" pan="0"/>
          <note key="77" pos="312" len="6" vol="185" pan="0"/>
          <note key="86" pos="324" len="6" vol="185" pan="0"/>
          <note key="81" pos="324" len="6" vol="185" pan="0"/>
          <note key="77" pos="324" len="6" vol="185" pan="0"/>
          <note key="86" pos="336" len="6" vol="185" pan="0"/>
          <note key="81" pos="336" len="6" vol="185" pan="0"/>
          <note key="77" pos="336" len="6" vol="185" pan="0"/>
          <note key="86" pos="348" len="6" vol="185" pan="0"/>
          <note key="81" pos="348" len="6" vol="185" pan="0"/>
          <note key="77" pos="348" len="6" vol="185" pan="0"/>
          <note key="86" pos="360" len="6" vol="185" pan="0"/>
          <note key="81" pos="360" len="6" vol="185" pan="0"/>
          <note key="77" pos="360" len="6" vol="185" pan="0"/>
          <note key="86" pos="372" len="6" vol="185" pan="0"/>
          <note key="81" pos="372" len="6" vol="185" pan="0"/>
          <note key="77" pos="372" len="6" vol="185" pan="0"/>
        </pattern>
        <pattern steps="16" muted="0" type="1" pos="18816" name="unisaw">
          <note key="81" pos="0" len="6" vol="185" pan="0"/>
          <note key="77" pos="0" len="6" vol="185" pan="0"/>
          <note key="74" pos="0" len="6" vol="185" pan="0"/>
          <note key="81" pos="12" len="6" vol="185" pan="0"/>
          <note key="77" pos="12" len="6" vol="185" pan="0"/>
          <note key="74" pos="12" len="6" vol="185" pan="0"/>
          <note key="81" pos="24" len="6" vol="185" pan="0"/>
          <note key="77" pos="24" len="6" vol="185" pan="0"/>
          <note key="74" pos="24" len="6" vol="185" pan="0"/>
          <note key="81" pos="36" len="6" vol="185" pan="0"/>
          <note key="77" pos="36" len="6" vol="185" pan="0"/>
          <note key="74" pos="36" len="6" vol="185" pan="0"/>
          <note key="81" pos="48" len="24" vol="185" pan="0"/>
          <note key="77" pos="48" len="24" vol="185" pan="0"/>
          <note key="74" pos="48" len="24" vol="185" pan="0"/>
          <note key="81" pos="72" len="6" vol="185" pan="0"/>
          <note key="77" pos="72" len="6" vol="185" pan="0"/>
          <note key="74" pos="72" len="6" vol="185" pan="0"/>
          <note key="81" pos="84" len="6" vol="185" pan="0"/>
          <note key="77" pos="84" len="6" vol="185" pan="0"/>
          <note key="74" pos="84" len="6" vol="185" pan="0"/>
          <note key="81" pos="96" len="6" vol="185" pan="0"/>
          <note key="77" pos="96" len="6" vol="185" pan="0"/>
          <note key="74" pos="96" len="6" vol="185" pan="0"/>
          <note key="81" pos="108" len="6" vol="185" pan="0"/>
          <note key="77" pos="108" len="6" vol="185" pan="0"/>
          <note key="74" pos="108" len="6" vol="185" pan="0"/>
          <note key="81" pos="120" len="6" vol="185" pan="0"/>
          <note key="77" pos="120" len="6" vol="185" pan="0"/>
          <note key="74" pos="120" len="6" vol="185" pan="0"/>
          <note key="81" pos="132" len="6" vol="185" pan="0"/>
          <note key="77" pos="132" len="6" vol="185" pan="0"/>
          <note key="74" pos="132" len="6" vol="185" pan="0"/>
          <note key="81" pos="144" len="24" vol="185" pan="0"/>
          <note key="77" pos="144" len="24" vol="185" pan="0"/>
          <note key="74" pos="144" len="24" vol="185" pan="0"/>
          <note key="81" pos="168" len="6" vol="185" pan="0"/>
          <note key="77" pos="168" len="6" vol="185" pan="0"/>
          <note key="74" pos="168" len="6" vol="185" pan="0"/>
          <note key="81" pos="180" len="6" vol="185" pan="0"/>
          <note key="77" pos="180" len="6" vol="185" pan="0"/>
          <note key="74" pos="180" len="6" vol="185" pan="0"/>
          <note key="79" pos="192" len="6" vol="185" pan="0"/>
          <note key="76" pos="192" len="6" vol="185" pan="0"/>
          <note key="72" pos="192" len="6" vol="185" pan="0"/>
          <note key="79" pos="204" len="6" vol="185" pan="0"/>
          <note key="76" pos="204" len="6" vol="185" pan="0"/>
          <note key="72" pos="204" len="6" vol="185" pan="0"/>
          <note key="79" pos="216" len="6" vol="185" pan="0"/>
          <note key="76" pos="216" len="6" vol="185" pan="0"/>
          <note key="72" pos="216" len="6" vol="185" pan="0"/>
          <note key="79" pos="228" len="6" vol="185" pan="0"/>
          <note key="76" pos="228" len="6" vol="185" pan="0"/>
          <note key="72" pos="228" len="6" vol="185" pan="0"/>
          <note key="79" pos="240" len="24" vol="185" pan="0"/>
          <note key="76" pos="240" len="24" vol="185" pan="0"/>
          <note key="72" pos="240" len="24" vol="185" pan="0"/>
          <note key="77" pos="264" len="24" vol="185" pan="0"/>
          <note key="74" pos="264" len="24" vol="185" pan="0"/>
          <note key="70" pos="264" len="24" vol="185" pan="0"/>
          <note key="77" pos="288" len="6" vol="185" pan="0"/>
          <note key="74" pos="288" len="6" vol="185" pan="0"/>
          <note key="70" pos="288" len="6" vol="185" pan="0"/>
          <note key="77" pos="300" len="6" vol="185" pan="0"/>
          <note key="74" pos="300" len="6" vol="185" pan="0"/>
          <note key="70" pos="300" len="6" vol="185" pan="0"/>
          <note key="77" pos="312" len="6" vol="185" pan="0"/>
          <note key="74" pos="312" len="6" vol="185" pan="0"/>
          <note key="70" pos="312" len="6" vol="185" pan="0"/>
          <note key="77" pos="324" len="6" vol="185" pan="0"/>
          <note key="74" pos="324" len="6" vol="185" pan="0"/>
          <note key="70" pos="324" len="6" vol="185" pan="0"/>
          <note key="77" pos="336" len="6" vol="185" pan="0"/>
          <note key="74" pos="336" len="6" vol="185" pan="0"/>
          <note key="70" pos="336" len="6" vol="185" pan="0"/>
          <note key="77" pos="348" len="6" vol="185" pan="0"/>
          <note key="74" pos="348" len="6" vol="185" pan="0"/>
          <note key="70" pos="348" len="6" vol="185" pan="0"/>
          <note key="77" pos="360" len="6" vol="185" pan="0"/>
          <note key="74" pos="360" len="6" vol="185" pan="0"/>
          <note key="70" pos="360" len="6" vol="185" pan="0"/>
          <note key="77" pos="372" len="6" vol="185" pan="0"/>
          <note key="74" pos="372" len="6" vol="185" pan="0"/>
          <note key="70" pos="372" len="6" vol="185" pan="0"/>
        </pattern>
        <pattern steps="16" muted="0" type="1" pos="19200" name="unisaw">
          <note key="81" pos="0" len="6" vol="185" pan="0"/>
          <note key="77" pos="0" len="6" vol="185" pan="0"/>
          <note key="72" pos="0" len="6" vol="185" pan="0"/>
          <note key="81" pos="12" len="6" vol="185" pan="0"/>
          <note key="77" pos="12" len="6" vol="185" pan="0"/>
          <note key="72" pos="12" len="6" vol="185" pan="0"/>
          <note key="81" pos="24" len="6" vol="185" pan="0"/>
          <note key="77" pos="24" len="6" vol="185" pan="0"/>
          <note key="72" pos="24" len="6" vol="185" pan="0"/>
          <note key="81" pos="36" len="6" vol="185" pan="0"/>
          <note key="77" pos="36" len="6" vol="185" pan="0"/>
          <note key="72" pos="36" len="6" vol="185" pan="0"/>
          <note key="81" pos="48" len="24" vol="185" pan="0"/>
          <note key="77" pos="48" len="24" vol="185" pan="0"/>
          <note key="72" pos="48" len="24" vol="185" pan="0"/>
          <note key="81" pos="72" len="6" vol="185" pan="0"/>
          <note key="77" pos="72" len="6" vol="185" pan="0"/>
          <note key="72" pos="72" len="6" vol="185" pan="0"/>
          <note key="81" pos="84" len="6" vol="185" pan="0"/>
          <note key="77" pos="84" len="6" vol="185" pan="0"/>
          <note key="72" pos="84" len="6" vol="185" pan="0"/>
          <note key="81" pos="96" len="6" vol="185" pan="0"/>
          <note key="77" pos="96" len="6" vol="185" pan="0"/>
          <note key="72" pos="96" len="6" vol="185" pan="0"/>
          <note key="81" pos="108" len="6" vol="185" pan="0"/>
          <note key="77" pos="108" len="6" vol="185" pan="0"/>
          <note key="72" pos="108" len="6" vol="185" pan="0"/>
          <note key="81" pos="120" len="6" vol="185" pan="0"/>
          <note key="77" pos="120" len="6" vol="185" pan="0"/>
          <note key="72" pos="120" len="6" vol="185" pan="0"/>
          <note key="81" pos="132" len="6" vol="185" pan="0"/>
          <note key="77" pos="132" len="6" vol="185" pan="0"/>
          <note key="72" pos="132" len="6" vol="185" pan="0"/>
          <note key="81" pos="144" len="24" vol="185" pan="0"/>
          <note key="77" pos="144" len="24" vol="185" pan="0"/>
          <note key="72" pos="144" len="24" vol="185" pan="0"/>
          <note key="81" pos="168" len="6" vol="185" pan="0"/>
          <note key="77" pos="168" len="6" vol="185" pan="0"/>
          <note key="72" pos="168" len="6" vol="185" pan="0"/>
          <note key="81" pos="180" len="6" vol="185" pan="0"/>
          <note key="77" pos="180" len="6" vol="185" pan="0"/>
          <note key="72" pos="180" len="6" vol="185" pan="0"/>
          <note key="82" pos="192" len="6" vol="185" pan="0"/>
          <note key="79" pos="192" len="6" vol="185" pan="0"/>
          <note key="74" pos="192" len="6" vol="185" pan="0"/>
          <note key="82" pos="204" len="6" vol="185" pan="0"/>
          <note key="79" pos="204" len="6" vol="185" pan="0"/>
          <note key="74" pos="204" len="6" vol="185" pan="0"/>
          <note key="82" pos="216" len="6" vol="185" pan="0"/>
          <note key="79" pos="216" len="6" vol="185" pan="0"/>
          <note key="74" pos="216" len="6" vol="185" pan="0"/>
          <note key="82" pos="228" len="6" vol="185" pan="0"/>
          <note key="79" pos="228" len="6" vol="185" pan="0"/>
          <note key="74" pos="228" len="6" vol="185" pan="0"/>
          <note key="82" pos="240" len="24" vol="185" pan="0"/>
          <note key="79" pos="240" len="24" vol="185" pan="0"/>
          <note key="74" pos="240" len="24" vol="185" pan="0"/>
          <note key="81" pos="264" len="24" vol="185" pan="0"/>
          <note key="77" pos="264" len="24" vol="185" pan="0"/>
          <note key="74" pos="264" len="24" vol="185" pan="0"/>
          <note key="81" pos="288" len="6" vol="185" pan="0"/>
          <note key="77" pos="288" len="6" vol="185" pan="0"/>
          <note key="74" pos="288" len="6" vol="185" pan="0"/>
          <note key="81" pos="300" len="6" vol="185" pan="0"/>
          <note key="77" pos="300" len="6" vol="185" pan="0"/>
          <note key="74" pos="300" len="6" vol="185" pan="0"/>
          <note key="81" pos="312" len="6" vol="185" pan="0"/>
          <note key="77" pos="312" len="6" vol="185" pan="0"/>
          <note key="74" pos="312" len="6" vol="185" pan="0"/>
          <note key="81" pos="324" len="6" vol="185" pan="0"/>
          <note key="77" pos="324" len="6" vol="185" pan="0"/>
          <note key="74" pos="324" len="6" vol="185" pan="0"/>
          <note key="81" pos="336" len="6" vol="185" pan="0"/>
          <note key="77" pos="336" len="6" vol="185" pan="0"/>
          <note key="74" pos="336" len="6" vol="185" pan="0"/>
          <note key="81" pos="348" len="6" vol="185" pan="0"/>
          <note key="77" pos="348" len="6" vol="185" pan="0"/>
          <note key="74" pos="348" len="6" vol="185" pan="0"/>
          <note key="81" pos="360" len="6" vol="185" pan="0"/>
          <note key="77" pos="360" len="6" vol="185" pan="0"/>
          <note key="74" pos="360" len="6" vol="185" pan="0"/>
          <note key="81" pos="372" len="6" vol="185" pan="0"/>
          <note key="77" pos="372" len="6" vol="185" pan="0"/>
          <note key="74" pos="372" len="6" vol="185" pan="0"/>
        </pattern>
        <pattern steps="16" muted="0" type="1" pos="19584" name="unisaw">
          <note key="81" pos="0" len="6" vol="185" pan="0"/>
          <note key="77" pos="0" len="6" vol="185" pan="0"/>
          <note key="74" pos="0" len="6" vol="185" pan="0"/>
          <note key="81" pos="12" len="6" vol="185" pan="0"/>
          <note key="77" pos="12" len="6" vol="185" pan="0"/>
          <note key="74" pos="12" len="6" vol="185" pan="0"/>
          <note key="81" pos="24" len="6" vol="185" pan="0"/>
          <note key="77" pos="24" len="6" vol="185" pan="0"/>
          <note key="74" pos="24" len="6" vol="185" pan="0"/>
          <note key="81" pos="36" len="6" vol="185" pan="0"/>
          <note key="77" pos="36" len="6" vol="185" pan="0"/>
          <note key="74" pos="36" len="6" vol="185" pan="0"/>
          <note key="81" pos="48" len="24" vol="185" pan="0"/>
          <note key="77" pos="48" len="24" vol="185" pan="0"/>
          <note key="74" pos="48" len="24" vol="185" pan="0"/>
          <note key="81" pos="72" len="6" vol="185" pan="0"/>
          <note key="77" pos="72" len="6" vol="185" pan="0"/>
          <note key="74" pos="72" len="6" vol="185" pan="0"/>
          <note key="81" pos="84" len="6" vol="185" pan="0"/>
          <note key="77" pos="84" len="6" vol="185" pan="0"/>
          <note key="74" pos="84" len="6" vol="185" pan="0"/>
          <note key="81" pos="96" len="6" vol="185" pan="0"/>
          <note key="77" pos="96" len="6" vol="185" pan="0"/>
          <note key="74" pos="96" len="6" vol="185" pan="0"/>
          <note key="81" pos="108" len="6" vol="185" pan="0"/>
          <note key="77" pos="108" len="6" vol="185" pan="0"/>
          <note key="74" pos="108" len="6" vol="185" pan="0"/>
          <note key="81" pos="120" len="6" vol="185" pan="0"/>
          <note key="77" pos="120" len="6" vol="185" pan="0"/>
          <note key="74" pos="120" len="6" vol="185" pan="0"/>
          <note key="81" pos="132" len="6" vol="185" pan="0"/>
          <note key="77" pos="132" len="6" vol="185" pan="0"/>
          <note key="74" pos="132" len="6" vol="185" pan="0"/>
          <note key="81" pos="144" len="24" vol="185" pan="0"/>
          <note key="77" pos="144" len="24" vol="185" pan="0"/>
          <note key="74" pos="144" len="24" vol="185" pan="0"/>
          <note key="81" pos="168" len="6" vol="185" pan="0"/>
          <note key="77" pos="168" len="6" vol="185" pan="0"/>
          <note key="74" pos="168" len="6" vol="185" pan="0"/>
          <note key="81" pos="180" len="6" vol="185" pan="0"/>
          <note key="77" pos="180" len="6" vol="185" pan="0"/>
          <note key="74" pos="180" len="6" vol="185" pan="0"/>
          <note key="84" pos="192" len="6" vol="185" pan="0"/>
          <note key="79" pos="192" len="6" vol="185" pan="0"/>
          <note key="76" pos="192" len="6" vol="185" pan="0"/>
          <note key="84" pos="204" len="6" vol="185" pan="0"/>
          <note key="79" pos="204" len="6" vol="185" pan="0"/>
          <note key="76" pos="204" len="6" vol="185" pan="0"/>
          <note key="84" pos="216" len="6" vol="185" pan="0"/>
          <note key="79" pos="216" len="6" vol="185" pan="0"/>
          <note key="76" pos="216" len="6" vol="185" pan="0"/>
          <note key="84" pos="228" len="6" vol="185" pan="0"/>
          <note key="79" pos="228" len="6" vol="185" pan="0"/>
          <note key="76" pos="228" len="6" vol="185" pan="0"/>
          <note key="84" pos="240" len="24" vol="185" pan="0"/>
          <note key="79" pos="240" len="24" vol="185" pan="0"/>
          <note key="76" pos="240" len="24" vol="185" pan="0"/>
          <note key="86" pos="264" len="24" vol="185" pan="0"/>
          <note key="82" pos="264" len="24" vol="185" pan="0"/>
          <note key="77" pos="264" len="24" vol="185" pan="0"/>
          <note key="86" pos="288" len="6" vol="185" pan="0"/>
          <note key="82" pos="288" len="6" vol="185" pan="0"/>
          <note key="77" pos="288" len="6" vol="185" pan="0"/>
          <note key="86" pos="300" len="6" vol="185" pan="0"/>
          <note key="82" pos="300" len="6" vol="185" pan="0"/>
          <note key="77" pos="300" len="6" vol="185" pan="0"/>
          <note key="86" pos="312" len="6" vol="185" pan="0"/>
          <note key="82" pos="312" len="6" vol="185" pan="0"/>
          <note key="77" pos="312" len="6" vol="185" pan="0"/>
          <note key="86" pos="324" len="6" vol="185" pan="0"/>
          <note key="82" pos="324" len="6" vol="185" pan="0"/>
          <note key="77" pos="324" len="6" vol="185" pan="0"/>
          <note key="86" pos="336" len="6" vol="185" pan="0"/>
          <note key="82" pos="336" len="6" vol="185" pan="0"/>
          <note key="77" pos="336" len="6" vol="185" pan="0"/>
          <note key="86" pos="348" len="6" vol="185" pan="0"/>
          <note key="82" pos="348" len="6" vol="185" pan="0"/>
          <note key="77" pos="348" len="6" vol="185" pan="0"/>
          <note key="86" pos="360" len="6" vol="185" pan="0"/>
          <note key="82" pos="360" len="6" vol="185" pan="0"/>
          <note key="77" pos="360" len="6" vol="185" pan="0"/>
          <note key="86" pos="372" len="6" vol="185" pan="0"/>
          <note key="82" pos="372" len="6" vol="185" pan="0"/>
          <note key="77" pos="372" len="6" vol="185" pan="0"/>
        </pattern>
        <pattern steps="16" muted="0" type="1" pos="19968" name="unisaw">
          <note key="84" pos="0" len="6" vol="185" pan="0"/>
          <note key="81" pos="0" len="6" vol="185" pan="0"/>
          <note key="77" pos="0" len="6" vol="185" pan="0"/>
          <note key="84" pos="12" len="6" vol="185" pan="0"/>
          <note key="81" pos="12" len="6" vol="185" pan="0"/>
          <note key="77" pos="12" len="6" vol="185" pan="0"/>
          <note key="84" pos="24" len="6" vol="185" pan="0"/>
          <note key="81" pos="24" len="6" vol="185" pan="0"/>
          <note key="77" pos="24" len="6" vol="185" pan="0"/>
          <note key="84" pos="36" len="6" vol="185" pan="0"/>
          <note key="81" pos="36" len="6" vol="185" pan="0"/>
          <note key="77" pos="36" len="6" vol="185" pan="0"/>
          <note key="84" pos="48" len="24" vol="185" pan="0"/>
          <note key="81" pos="48" len="24" vol="185" pan="0"/>
          <note key="77" pos="48" len="24" vol="185" pan="0"/>
          <note key="84" pos="72" len="6" vol="185" pan="0"/>
          <note key="81" pos="72" len="6" vol="185" pan="0"/>
          <note key="77" pos="72" len="6" vol="185" pan="0"/>
          <note key="84" pos="84" len="6" vol="185" pan="0"/>
          <note key="81" pos="84" len="6" vol="185" pan="0"/>
          <note key="77" pos="84" len="6" vol="185" pan="0"/>
          <note key="84" pos="96" len="6" vol="185" pan="0"/>
          <note key="81" pos="96" len="6" vol="185" pan="0"/>
          <note key="77" pos="96" len="6" vol="185" pan="0"/>
          <note key="84" pos="108" len="6" vol="185" pan="0"/>
          <note key="81" pos="108" len="6" vol="185" pan="0"/>
          <note key="77" pos="108" len="6" vol="185" pan="0"/>
          <note key="84" pos="120" len="6" vol="185" pan="0"/>
          <note key="81" pos="120" len="6" vol="185" pan="0"/>
          <note key="77" pos="120" len="6" vol="185" pan="0"/>
          <note key="84" pos="132" len="6" vol="185" pan="0"/>
          <note key="81" pos="132" len="6" vol="185" pan="0"/>
          <note key="77" pos="132" len="6" vol="185" pan="0"/>
          <note key="84" pos="144" len="24" vol="185" pan="0"/>
          <note key="81" pos="144" len="24" vol="185" pan="0"/>
          <note key="77" pos="144" len="24" vol="185" pan="0"/>
          <note key="84" pos="168" len="6" vol="185" pan="0"/>
          <note key="81" pos="168" len="6" vol="185" pan="0"/>
          <note key="77" pos="168" len="6" vol="185" pan="0"/>
          <note key="84" pos="180" len="6" vol="185" pan="0"/>
          <note key="81" pos="180" len="6" vol="185" pan="0"/>
          <note key="77" pos="180" len="6" vol="185" pan="0"/>
          <note key="86" pos="192" len="6" vol="185" pan="0"/>
          <note key="82" pos="192" len="6" vol="185" pan="0"/>
          <note key="79" pos="192" len="6" vol="185" pan="0"/>
          <note key="86" pos="204" len="6" vol="185" pan="0"/>
          <note key="82" pos="204" len="6" vol="185" pan="0"/>
          <note key="79" pos="204" len="6" vol="185" pan="0"/>
          <note key="86" pos="216" len="6" vol="185" pan="0"/>
          <note key="82" pos="216" len="6" vol="185" pan="0"/>
          <note key="79" pos="216" len="6" vol="185" pan="0"/>
          <note key="86" pos="228" len="6" vol="185" pan="0"/>
          <note key="82" pos="228" len="6" vol="185" pan="0"/>
          <note key="79" pos="228" len="6" vol="185" pan="0"/>
          <note key="86" pos="240" len="24" vol="185" pan="0"/>
          <note key="82" pos="240" len="24" vol="185" pan="0"/>
          <note key="79" pos="240" len="24" vol="185" pan="0"/>
          <note key="86" pos="264" len="24" vol="185" pan="0"/>
          <note key="81" pos="264" len="24" vol="185" pan="0"/>
          <note key="77" pos="264" len="24" vol="185" pan="0"/>
          <note key="86" pos="288" len="6" vol="185" pan="0"/>
          <note key="81" pos="288" len="6" vol="185" pan="0"/>
          <note key="77" pos="288" len="6" vol="185" pan="0"/>
          <note key="86" pos="300" len="6" vol="185" pan="0"/>
          <note key="81" pos="300" len="6" vol="185" pan="0"/>
          <note key="77" pos="300" len="6" vol="185" pan="0"/>
          <note key="86" pos="312" len="6" vol="185" pan="0"/>
          <note key="81" pos="312" len="6" vol="185" pan="0"/>
          <note key="77" pos="312" len="6" vol="185" pan="0"/>
          <note key="86" pos="324" len="6" vol="185" pan="0"/>
          <note key="81" pos="324" len="6" vol="185" pan="0"/>
          <note key="77" pos="324" len="6" vol="185" pan="0"/>
          <note key="86" pos="336" len="6" vol="185" pan="0"/>
          <note key="81" pos="336" len="6" vol="185" pan="0"/>
          <note key="77" pos="336" len="6" vol="185" pan="0"/>
          <note key="86" pos="348" len="6" vol="185" pan="0"/>
          <note key="81" pos="348" len="6" vol="185" pan="0"/>
          <note key="77" pos="348" len="6" vol="185" pan="0"/>
          <note key="86" pos="360" len="6" vol="185" pan="0"/>
          <note key="81" pos="360" len="6" vol="185" pan="0"/>
          <note key="77" pos="360" len="6" vol="185" pan="0"/>
          <note key="86" pos="372" len="6" vol="185" pan="0"/>
          <note key="81" pos="372" len="6" vol="185" pan="0"/>
          <note key="77" pos="372" len="6" vol="185" pan="0"/>
        </pattern>
        <pattern steps="16" muted="0" type="1" pos="20736" name="unisaw">
          <note key="75" pos="0" len="192" vol="197" pan="0"/>
          <note key="72" pos="0" len="192" vol="197" pan="0"/>
          <note key="67" pos="0" len="192" vol="197" pan="0"/>
          <note key="75" pos="192" len="96" vol="197" pan="0"/>
          <note key="70" pos="192" len="96" vol="197" pan="0"/>
          <note key="67" pos="192" len="96" vol="197" pan="0"/>
          <note key="77" pos="288" len="96" vol="197" pan="0"/>
          <note key="72" pos="288" len="96" vol="197" pan="0"/>
          <note key="68" pos="288" len="96" vol="197" pan="0"/>
        </pattern>
        <pattern steps="16" muted="0" type="1" pos="21504" name="unisaw">
          <note key="72" pos="0" len="192" vol="197" pan="0"/>
          <note key="68" pos="0" len="192" vol="197" pan="0"/>
          <note key="65" pos="0" len="192" vol="197" pan="0"/>
          <note key="74" pos="192" len="192" vol="197" pan="0"/>
          <note key="70" pos="192" len="192" vol="197" pan="0"/>
          <note key="65" pos="192" len="192" vol="197" pan="0"/>
        </pattern>
        <pattern steps="16" muted="0" type="1" pos="22272" name="unisaw">
          <note key="75" pos="0" len="192" vol="197" pan="0"/>
          <note key="72" pos="0" len="192" vol="197" pan="0"/>
          <note key="67" pos="0" len="192" vol="197" pan="0"/>
          <note key="75" pos="192" len="96" vol="197" pan="0"/>
          <note key="70" pos="192" len="96" vol="197" pan="0"/>
          <note key="67" pos="192" len="96" vol="197" pan="0"/>
          <note key="77" pos="288" len="96" vol="197" pan="0"/>
          <note key="72" pos="288" len="96" vol="197" pan="0"/>
          <note key="68" pos="288" len="96" vol="197" pan="0"/>
        </pattern>
        <pattern steps="16" muted="0" type="1" pos="23040" name="unisaw">
          <note key="72" pos="0" len="192" vol="197" pan="0"/>
          <note key="68" pos="0" len="192" vol="197" pan="0"/>
          <note key="65" pos="0" len="192" vol="197" pan="0"/>
          <note key="74" pos="192" len="192" vol="197" pan="0"/>
          <note key="70" pos="192" len="192" vol="197" pan="0"/>
          <note key="65" pos="192" len="192" vol="197" pan="0"/>
        </pattern>
        <pattern steps="16" muted="0" type="1" pos="23424" name="unisaw">
          <note key="75" pos="0" len="192" vol="197" pan="0"/>
          <note key="70" pos="0" len="192" vol="197" pan="0"/>
          <note key="67" pos="0" len="192" vol="197" pan="0"/>
          <note key="74" pos="192" len="192" vol="197" pan="0"/>
          <note key="71" pos="192" len="192" vol="197" pan="0"/>
          <note key="67" pos="192" len="192" vol="197" pan="0"/>
        </pattern>
        <pattern steps="16" muted="0" type="1" pos="14976" name="unisaw">
          <note key="79" pos="0" len="6" vol="125" pan="0"/>
          <note key="75" pos="0" len="6" vol="125" pan="0"/>
          <note key="72" pos="0" len="6" vol="125" pan="0"/>
          <note key="79" pos="12" len="6" vol="125" pan="0"/>
          <note key="75" pos="12" len="6" vol="125" pan="0"/>
          <note key="72" pos="12" len="6" vol="125" pan="0"/>
          <note key="79" pos="24" len="6" vol="125" pan="0"/>
          <note key="75" pos="24" len="6" vol="125" pan="0"/>
          <note key="72" pos="24" len="6" vol="125" pan="0"/>
          <note key="79" pos="36" len="6" vol="125" pan="0"/>
          <note key="75" pos="36" len="6" vol="125" pan="0"/>
          <note key="72" pos="36" len="6" vol="125" pan="0"/>
          <note key="79" pos="48" len="24" vol="125" pan="0"/>
          <note key="75" pos="48" len="24" vol="125" pan="0"/>
          <note key="72" pos="48" len="24" vol="125" pan="0"/>
          <note key="79" pos="72" len="6" vol="125" pan="0"/>
          <note key="75" pos="72" len="6" vol="125" pan="0"/>
          <note key="72" pos="72" len="6" vol="125" pan="0"/>
          <note key="79" pos="84" len="6" vol="125" pan="0"/>
          <note key="75" pos="84" len="6" vol="125" pan="0"/>
          <note key="72" pos="84" len="6" vol="125" pan="0"/>
          <note key="79" pos="96" len="6" vol="125" pan="0"/>
          <note key="75" pos="96" len="6" vol="125" pan="0"/>
          <note key="72" pos="96" len="6" vol="125" pan="0"/>
          <note key="79" pos="108" len="6" vol="125" pan="0"/>
          <note key="75" pos="108" len="6" vol="125" pan="0"/>
          <note key="72" pos="108" len="6" vol="125" pan="0"/>
          <note key="79" pos="120" len="6" vol="125" pan="0"/>
          <note key="75" pos="120" len="6" vol="125" pan="0"/>
          <note key="72" pos="120" len="6" vol="125" pan="0"/>
          <note key="79" pos="132" len="6" vol="125" pan="0"/>
          <note key="75" pos="132" len="6" vol="125" pan="0"/>
          <note key="72" pos="132" len="6" vol="125" pan="0"/>
          <note key="79" pos="144" len="24" vol="125" pan="0"/>
          <note key="75" pos="144" len="24" vol="125" pan="0"/>
          <note key="72" pos="144" len="24" vol="125" pan="0"/>
          <note key="79" pos="168" len="6" vol="125" pan="0"/>
          <note key="75" pos="168" len="6" vol="125" pan="0"/>
          <note key="72" pos="168" len="6" vol="125" pan="0"/>
          <note key="79" pos="180" len="6" vol="125" pan="0"/>
          <note key="75" pos="180" len="6" vol="125" pan="0"/>
          <note key="72" pos="180" len="6" vol="125" pan="0"/>
          <note key="82" pos="192" len="6" vol="125" pan="0"/>
          <note key="77" pos="192" len="6" vol="125" pan="0"/>
          <note key="74" pos="192" len="6" vol="125" pan="0"/>
          <note key="82" pos="204" len="6" vol="125" pan="0"/>
          <note key="77" pos="204" len="6" vol="125" pan="0"/>
          <note key="74" pos="204" len="6" vol="125" pan="0"/>
          <note key="82" pos="216" len="6" vol="125" pan="0"/>
          <note key="77" pos="216" len="6" vol="125" pan="0"/>
          <note key="74" pos="216" len="6" vol="125" pan="0"/>
          <note key="82" pos="228" len="6" vol="125" pan="0"/>
          <note key="77" pos="228" len="6" vol="125" pan="0"/>
          <note key="74" pos="228" len="6" vol="125" pan="0"/>
          <note key="82" pos="240" len="24" vol="125" pan="0"/>
          <note key="77" pos="240" len="24" vol="125" pan="0"/>
          <note key="74" pos="240" len="24" vol="125" pan="0"/>
          <note key="84" pos="264" len="24" vol="125" pan="0"/>
          <note key="80" pos="264" len="24" vol="125" pan="0"/>
          <note key="75" pos="264" len="24" vol="125" pan="0"/>
          <note key="84" pos="288" len="6" vol="125" pan="0"/>
          <note key="80" pos="288" len="6" vol="125" pan="0"/>
          <note key="75" pos="288" len="6" vol="125" pan="0"/>
          <note key="84" pos="300" len="6" vol="125" pan="0"/>
          <note key="80" pos="300" len="6" vol="125" pan="0"/>
          <note key="75" pos="300" len="6" vol="125" pan="0"/>
          <note key="84" pos="312" len="6" vol="125" pan="0"/>
          <note key="80" pos="312" len="6" vol="125" pan="0"/>
          <note key="75" pos="312" len="6" vol="125" pan="0"/>
          <note key="84" pos="324" len="6" vol="125" pan="0"/>
          <note key="80" pos="324" len="6" vol="125" pan="0"/>
          <note key="75" pos="324" len="6" vol="125" pan="0"/>
          <note key="84" pos="336" len="6" vol="125" pan="0"/>
          <note key="80" pos="336" len="6" vol="125" pan="0"/>
          <note key="75" pos="336" len="6" vol="125" pan="0"/>
          <note key="84" pos="348" len="6" vol="125" pan="0"/>
          <note key="80" pos="348" len="6" vol="125" pan="0"/>
          <note key="75" pos="348" len="6" vol="125" pan="0"/>
          <note key="84" pos="360" len="6" vol="125" pan="0"/>
          <note key="80" pos="360" len="6" vol="125" pan="0"/>
          <note key="75" pos="360" len="6" vol="125" pan="0"/>
          <note key="84" pos="372" len="6" vol="125" pan="0"/>
          <note key="80" pos="372" len="6" vol="125" pan="0"/>
          <note key="75" pos="372" len="6" vol="125" pan="0"/>
        </pattern>
        <pattern steps="16" muted="0" type="1" pos="15360" name="unisaw">
          <note key="82" pos="0" len="6" vol="125" pan="0"/>
          <note key="79" pos="0" len="6" vol="125" pan="0"/>
          <note key="75" pos="0" len="6" vol="125" pan="0"/>
          <note key="82" pos="12" len="6" vol="125" pan="0"/>
          <note key="79" pos="12" len="6" vol="125" pan="0"/>
          <note key="75" pos="12" len="6" vol="125" pan="0"/>
          <note key="82" pos="24" len="6" vol="125" pan="0"/>
          <note key="79" pos="24" len="6" vol="125" pan="0"/>
          <note key="75" pos="24" len="6" vol="125" pan="0"/>
          <note key="82" pos="36" len="6" vol="125" pan="0"/>
          <note key="79" pos="36" len="6" vol="125" pan="0"/>
          <note key="75" pos="36" len="6" vol="125" pan="0"/>
          <note key="82" pos="48" len="24" vol="125" pan="0"/>
          <note key="79" pos="48" len="24" vol="125" pan="0"/>
          <note key="75" pos="48" len="24" vol="125" pan="0"/>
          <note key="82" pos="72" len="6" vol="125" pan="0"/>
          <note key="79" pos="72" len="6" vol="125" pan="0"/>
          <note key="75" pos="72" len="6" vol="125" pan="0"/>
          <note key="82" pos="84" len="6" vol="125" pan="0"/>
          <note key="79" pos="84" len="6" vol="125" pan="0"/>
          <note key="75" pos="84" len="6" vol="125" pan="0"/>
          <note key="82" pos="96" len="6" vol="125" pan="0"/>
          <note key="79" pos="96" len="6" vol="125" pan="0"/>
          <note key="75" pos="96" len="6" vol="125" pan="0"/>
          <note key="82" pos="108" len="6" vol="125" pan="0"/>
          <note key="79" pos="108" len="6" vol="125" pan="0"/>
          <note key="75" pos="108" len="6" vol="125" pan="0"/>
          <note key="82" pos="120" len="6" vol="125" pan="0"/>
          <note key="79" pos="120" len="6" vol="125" pan="0"/>
          <note key="75" pos="120" len="6" vol="125" pan="0"/>
          <note key="82" pos="132" len="6" vol="125" pan="0"/>
          <note key="79" pos="132" len="6" vol="125" pan="0"/>
          <note key="75" pos="132" len="6" vol="125" pan="0"/>
          <note key="82" pos="144" len="24" vol="125" pan="0"/>
          <note key="79" pos="144" len="24" vol="125" pan="0"/>
          <note key="75" pos="144" len="24" vol="125" pan="0"/>
          <note key="82" pos="168" len="6" vol="125" pan="0"/>
          <note key="79" pos="168" len="6" vol="125" pan="0"/>
          <note key="75" pos="168" len="6" vol="125" pan="0"/>
          <note key="82" pos="180" len="6" vol="125" pan="0"/>
          <note key="79" pos="180" len="6" vol="125" pan="0"/>
          <note key="75" pos="180" len="6" vol="125" pan="0"/>
          <note key="84" pos="192" len="6" vol="125" pan="0"/>
          <note key="80" pos="192" len="6" vol="125" pan="0"/>
          <note key="77" pos="192" len="6" vol="125" pan="0"/>
          <note key="84" pos="204" len="6" vol="125" pan="0"/>
          <note key="80" pos="204" len="6" vol="125" pan="0"/>
          <note key="77" pos="204" len="6" vol="125" pan="0"/>
          <note key="84" pos="216" len="6" vol="125" pan="0"/>
          <note key="80" pos="216" len="6" vol="125" pan="0"/>
          <note key="77" pos="216" len="6" vol="125" pan="0"/>
          <note key="84" pos="228" len="6" vol="125" pan="0"/>
          <note key="80" pos="228" len="6" vol="125" pan="0"/>
          <note key="77" pos="228" len="6" vol="125" pan="0"/>
          <note key="84" pos="240" len="24" vol="125" pan="0"/>
          <note key="80" pos="240" len="24" vol="125" pan="0"/>
          <note key="77" pos="240" len="24" vol="125" pan="0"/>
          <note key="84" pos="264" len="24" vol="125" pan="0"/>
          <note key="79" pos="264" len="24" vol="125" pan="0"/>
          <note key="75" pos="264" len="24" vol="125" pan="0"/>
          <note key="84" pos="288" len="6" vol="125" pan="0"/>
          <note key="79" pos="288" len="6" vol="125" pan="0"/>
          <note key="75" pos="288" len="6" vol="125" pan="0"/>
          <note key="84" pos="300" len="6" vol="125" pan="0"/>
          <note key="79" pos="300" len="6" vol="125" pan="0"/>
          <note key="75" pos="300" len="6" vol="125" pan="0"/>
          <note key="84" pos="312" len="6" vol="125" pan="0"/>
          <note key="79" pos="312" len="6" vol="125" pan="0"/>
          <note key="75" pos="312" len="6" vol="125" pan="0"/>
          <note key="84" pos="324" len="6" vol="125" pan="0"/>
          <note key="79" pos="324" len="6" vol="125" pan="0"/>
          <note key="75" pos="324" len="6" vol="125" pan="0"/>
          <note key="84" pos="336" len="6" vol="125" pan="0"/>
          <note key="79" pos="336" len="6" vol="125" pan="0"/>
          <note key="75" pos="336" len="6" vol="125" pan="0"/>
          <note key="84" pos="348" len="6" vol="125" pan="0"/>
          <note key="79" pos="348" len="6" vol="125" pan="0"/>
          <note key="75" pos="348" len="6" vol="125" pan="0"/>
          <note key="84" pos="360" len="6" vol="125" pan="0"/>
          <note key="79" pos="360" len="6" vol="125" pan="0"/>
          <note key="75" pos="360" len="6" vol="125" pan="0"/>
          <note key="84" pos="372" len="6" vol="125" pan="0"/>
          <note key="79" pos="372" len="6" vol="125" pan="0"/>
          <note key="75" pos="372" len="6" vol="125" pan="0"/>
        </pattern>
        <pattern steps="16" muted="0" type="1" pos="29952" name="">
          <note key="67" pos="0" len="384" vol="153" pan="0"/>
          <note key="64" pos="0" len="384" vol="153" pan="0"/>
          <note key="59" pos="0" len="384" vol="153" pan="0"/>
          <note key="67" pos="384" len="144" vol="153" pan="0"/>
          <note key="64" pos="384" len="144" vol="153" pan="0"/>
          <note key="60" pos="384" len="144" vol="153" pan="0"/>
          <note key="69" pos="528" len="48" vol="153" pan="0"/>
          <note key="66" pos="528" len="48" vol="153" pan="0"/>
          <note key="62" pos="528" len="48" vol="153" pan="0"/>
          <note key="69" pos="624" len="144" vol="153" pan="0"/>
          <note key="66" pos="624" len="144" vol="153" pan="0"/>
          <note key="62" pos="624" len="144" vol="153" pan="0"/>
        </pattern>
        <pattern steps="16" muted="0" type="1" pos="30720" name="">
          <note key="67" pos="0" len="384" vol="153" pan="0"/>
          <note key="64" pos="0" len="384" vol="153" pan="0"/>
          <note key="59" pos="0" len="384" vol="153" pan="0"/>
          <note key="67" pos="384" len="144" vol="153" pan="0"/>
          <note key="64" pos="384" len="144" vol="153" pan="0"/>
          <note key="60" pos="384" len="144" vol="153" pan="0"/>
          <note key="69" pos="528" len="300" vol="153" pan="0"/>
          <note key="66" pos="528" len="300" vol="153" pan="0"/>
          <note key="62" pos="528" len="300" vol="153" pan="0"/>
        </pattern>
      </track>
      <track solo="0" muted="0" type="0" name="Detuned Ghost">
        <instrumenttrack basenote="57" pitchrange="1" pitch="0" usemasterpitch="1" vol="54" pan="38.1" fxch="0">
          <instrument name="tripleoscillator">
            <tripleoscillator vol0="33" phoffset2="0" modalgo1="3" pan2="0" vol2="33" wavetype2="0" finel1="0" userwavefile2="" modalgo3="2" finer0="0" finer2="0" modalgo2="3" pan1="0" finel0="0" userwavefile1="" stphdetun2="0" phoffset0="0" coarse1="-12" finer1="0" wavetype1="1" finel2="0" userwavefile0="" vol1="33" coarse0="0" phoffset1="0" stphdetun0="0" stphdetun1="0" coarse2="-24" wavetype0="4" pan0="0"/>
          </instrument>
          <eldata fwet="1" ftype="0" fcut="12819" fres="0.5">
            <elvol ctlenvamt="0" lamt="0" amt="1" latt="0" lspd_syncmode="0" dec="0.445" lpdel="0" att="0" lspd_denominator="4" hold="0.08" lspd="0.1" lspd_numerator="4" sustain="0" lshp="0" pdel="0" x100="0" rel="0.14" userwavefile=""/>
            <elcut ctlenvamt="0" lamt="0" amt="0" latt="0" lspd_syncmode="0" dec="0.14" lpdel="0" att="0.13" lspd_denominator="4" hold="0" lspd="0.1" lspd_numerator="4" sustain="0" lshp="0" pdel="0" x100="1" rel="0.06" userwavefile=""/>
            <elres ctlenvamt="0" lamt="0" amt="0" latt="0" lspd_syncmode="0" dec="0.5" lpdel="0" att="0" lspd_denominator="4" hold="0.5" lspd="0.1" lspd_numerator="4" sustain="0.5" lshp="0" pdel="0" x100="0" rel="0.1" userwavefile=""/>
          </eldata>
          <chordcreator chordrange="1" chord-enabled="0" chord="0"/>
          <arpeggiator arptime_syncmode="0" arpdir="0" arptime_numerator="4" arpmode="0" arp="0" arpmiss="0" arptime="100" arpgate="100" arp-enabled="0" arpskip="0" arptime_denominator="4" arprange="1" arpcycle="0"/>
          <midiport writable="0" fixedinputvelocity="-1" outputchannel="1" fixedoutputvelocity="-1" outputcontroller="0" basevelocity="63" fixedoutputnote="-1" inputchannel="0" inputcontroller="0" outputprogram="1" readable="0"/>
          <fxchain numofeffects="1" enabled="1">
            <effect gate="0" autoquit_denominator="4" wet="1" autoquit_numerator="4" autoquit="1" autoquit_syncmode="0" name="ladspaeffect" on="1">
              <ladspacontrols ports="4">
                <port02 data="0.90454"/>
                <port03 data="0.749"/>
                <port04 data="0.0005"/>
                <port05 data="0.3775"/>
              </ladspacontrols>
              <key>
                <attribute value="caps" name="file"/>
                <attribute value="Plate2x2" name="plugin"/>
              </key>
            </effect>
          </fxchain>
        </instrumenttrack>
        <pattern steps="16" muted="0" type="1" pos="5760" name="Detuned Ghost">
          <note key="63" pos="0" len="72" vol="176" pan="0"/>
          <note key="62" pos="72" len="72" vol="176" pan="0"/>
          <note key="58" pos="144" len="72" vol="176" pan="0"/>
          <note key="63" pos="216" len="72" vol="176" pan="0"/>
          <note key="62" pos="288" len="48" vol="176" pan="0"/>
          <note key="58" pos="336" len="48" vol="176" pan="0"/>
          <note key="63" pos="384" len="144" vol="176" pan="0"/>
          <note key="65" pos="528" len="240" vol="176" pan="0"/>
        </pattern>
        <pattern steps="16" muted="0" type="1" pos="31488" name="Detuned Ghost">
          <note key="64" pos="60" len="400" vol="197" pan="0"/>
        </pattern>
        <pattern steps="16" muted="0" type="1" pos="24576" name="">
          <note key="63" pos="0" len="72" vol="176" pan="0"/>
          <note key="62" pos="72" len="72" vol="176" pan="0"/>
          <note key="58" pos="144" len="72" vol="176" pan="0"/>
          <note key="63" pos="216" len="72" vol="176" pan="0"/>
          <note key="62" pos="288" len="48" vol="176" pan="0"/>
          <note key="58" pos="336" len="48" vol="176" pan="0"/>
          <note key="63" pos="384" len="144" vol="176" pan="0"/>
          <note key="65" pos="528" len="240" vol="176" pan="0"/>
        </pattern>
        <pattern steps="16" muted="0" type="1" pos="12672" name="">
          <note key="63" pos="0" len="72" vol="191" pan="0"/>
          <note key="62" pos="72" len="72" vol="191" pan="0"/>
          <note key="58" pos="144" len="72" vol="191" pan="0"/>
        </pattern>
        <pattern steps="16" muted="0" type="1" pos="13056" name="">
          <note key="63" pos="0" len="72" vol="191" pan="0"/>
          <note key="62" pos="72" len="72" vol="191" pan="0"/>
          <note key="58" pos="144" len="72" vol="191" pan="0"/>
        </pattern>
        <pattern steps="16" muted="0" type="1" pos="13440" name="">
          <note key="63" pos="0" len="72" vol="191" pan="0"/>
          <note key="62" pos="72" len="72" vol="191" pan="0"/>
          <note key="58" pos="144" len="72" vol="191" pan="0"/>
        </pattern>
      </track>
      <track solo="0" muted="0" type="0" name="Fantasy Bell">
        <instrumenttrack basenote="57" pitchrange="1" pitch="0" usemasterpitch="1" vol="200" pan="38.1" fxch="0">
          <instrument name="zynaddsubfx">
            <zynaddsubfx filterfreq="64" bandwidth="64" portamento="0" rescenterfreq="64" modifiedcontrollers="" filterq="64" fmgain="127" resbandwidth="64" forwardmidicc="1">
              <ZynAddSubFX-data version-major="2" ZynAddSubFX-author="Nasca Octavian Paul" version-revision="1" version-minor="4">
                <INFORMATION/>
                <BASE_PARAMETERS>
                  <par value="16" name="max_midi_parts"/>
                  <par value="16" name="max_kit_items_per_instrument"/>
                  <par value="4" name="max_system_effects"/>
                  <par value="8" name="max_insertion_effects"/>
                  <par value="3" name="max_instrument_effects"/>
                  <par value="8" name="max_addsynth_voices"/>
                </BASE_PARAMETERS>
                <MASTER>
                  <par value="80" name="volume"/>
                  <par value="64" name="key_shift"/>
                  <par_bool value="yes" name="nrpn_receive"/>
                  <MICROTONAL>
                    <string name="name">12tET</string>
                    <string name="comment">Equal Temperament 12 notes per octave</string>
                    <par_bool value="no" name="invert_up_down"/>
                    <par value="60" name="invert_up_down_center"/>
                    <par_bool value="no" name="enabled"/>
                    <par value="64" name="global_fine_detune"/>
                    <par value="69" name="a_note"/>
                    <par_real value="440.000000" name="a_freq"/>
                  </MICROTONAL>
                  <PART id="0">
                    <par_bool value="yes" name="enabled"/>
                    <par value="96" name="volume"/>
                    <par value="64" name="panning"/>
                    <par value="0" name="min_key"/>
                    <par value="127" name="max_key"/>
                    <par value="64" name="key_shift"/>
                    <par value="0" name="rcv_chn"/>
                    <par value="64" name="velocity_sensing"/>
                    <par value="64" name="velocity_offset"/>
                    <par_bool value="yes" name="note_on"/>
                    <par_bool value="yes" name="poly_mode"/>
                    <par value="0" name="legato_mode"/>
                    <par value="15" name="key_limit"/>
                    <INSTRUMENT>
                      <INFO>
                        <string name="name">Fantasy Bell</string>
                        <string name="author"/>
                        <string name="comments"/>
                        <par value="0" name="type"/>
                      </INFO>
                      <INSTRUMENT_KIT>
                        <par value="0" name="kit_mode"/>
                        <par_bool value="no" name="drum_mode"/>
                        <INSTRUMENT_KIT_ITEM id="0">
                          <par_bool value="yes" name="enabled"/>
                          <string name="name">Fantasy Bell</string>
                          <par_bool value="no" name="muted"/>
                          <par value="0" name="min_key"/>
                          <par value="127" name="max_key"/>
                          <par value="0" name="send_to_instrument_effect"/>
                          <par_bool value="yes" name="add_enabled"/>
                          <ADD_SYNTH_PARAMETERS>
                            <par_bool value="yes" name="stereo"/>
                            <AMPLITUDE_PARAMETERS>
                              <par value="80" name="volume"/>
                              <par value="64" name="panning"/>
                              <par value="76" name="velocity_sensing"/>
                              <par value="0" name="punch_strength"/>
                              <par value="60" name="punch_time"/>
                              <par value="64" name="punch_stretch"/>
                              <par value="72" name="punch_velocity_sensing"/>
                              <par value="0" name="harmonic_randomness_grouping"/>
                              <AMPLITUDE_ENVELOPE>
                                <par_bool value="no" name="free_mode"/>
                                <par value="4" name="env_points"/>
                                <par value="2" name="env_sustain"/>
                                <par value="0" name="env_stretch"/>
                                <par_bool value="yes" name="forced_release"/>
                                <par_bool value="yes" name="linear_envelope"/>
                                <par value="0" name="A_dt"/>
                                <par value="40" name="D_dt"/>
                                <par value="61" name="R_dt"/>
                                <par value="64" name="A_val"/>
                                <par value="64" name="D_val"/>
                                <par value="127" name="S_val"/>
                                <par value="64" name="R_val"/>
                              </AMPLITUDE_ENVELOPE>
                              <AMPLITUDE_LFO>
                                <par_real value="0.629921" name="freq"/>
                                <par value="0" name="intensity"/>
                                <par value="64" name="start_phase"/>
                                <par value="0" name="lfo_type"/>
                                <par value="0" name="randomness_amplitude"/>
                                <par value="0" name="randomness_frequency"/>
                                <par value="0" name="delay"/>
                                <par value="64" name="stretch"/>
                                <par_bool value="no" name="continous"/>
                              </AMPLITUDE_LFO>
                            </AMPLITUDE_PARAMETERS>
                            <FREQUENCY_PARAMETERS>
                              <par value="8192" name="detune"/>
                              <par value="0" name="coarse_detune"/>
                              <par value="1" name="detune_type"/>
                              <par value="64" name="bandwidth"/>
                              <FREQUENCY_ENVELOPE>
                                <par_bool value="no" name="free_mode"/>
                                <par value="3" name="env_points"/>
                                <par value="1" name="env_sustain"/>
                                <par value="0" name="env_stretch"/>
                                <par_bool value="no" name="forced_release"/>
                                <par_bool value="no" name="linear_envelope"/>
                                <par value="15" name="A_dt"/>
                                <par value="10" name="D_dt"/>
                                <par value="60" name="R_dt"/>
                                <par value="65" name="A_val"/>
                                <par value="64" name="D_val"/>
                                <par value="64" name="S_val"/>
                                <par value="64" name="R_val"/>
                              </FREQUENCY_ENVELOPE>
                              <FREQUENCY_LFO>
                                <par_real value="0.614173" name="freq"/>
                                <par value="32" name="intensity"/>
                                <par value="64" name="start_phase"/>
                                <par value="0" name="lfo_type"/>
                                <par value="0" name="randomness_amplitude"/>
                                <par value="0" name="randomness_frequency"/>
                                <par value="0" name="delay"/>
                                <par value="64" name="stretch"/>
                                <par_bool value="no" name="continous"/>
                              </FREQUENCY_LFO>
                            </FREQUENCY_PARAMETERS>
                            <FILTER_PARAMETERS>
                              <par value="32" name="velocity_sensing_amplitude"/>
                              <par value="64" name="velocity_sensing"/>
                              <FILTER>
                                <par value="0" name="category"/>
                                <par value="2" name="type"/>
                                <par value="76" name="freq"/>
                                <par value="30" name="q"/>
                                <par value="0" name="stages"/>
                                <par value="64" name="freq_track"/>
                                <par value="64" name="gain"/>
                              </FILTER>
                              <FILTER_ENVELOPE>
                                <par_bool value="no" name="free_mode"/>
                                <par value="4" name="env_points"/>
                                <par value="2" name="env_sustain"/>
                                <par value="0" name="env_stretch"/>
                                <par_bool value="yes" name="forced_release"/>
                                <par_bool value="no" name="linear_envelope"/>
                                <par value="43" name="A_dt"/>
                                <par value="97" name="D_dt"/>
                                <par value="101" name="R_dt"/>
                                <par value="107" name="A_val"/>
                                <par value="87" name="D_val"/>
                                <par value="64" name="S_val"/>
                                <par value="64" name="R_val"/>
                              </FILTER_ENVELOPE>
                              <FILTER_LFO>
                                <par_real value="0.629921" name="freq"/>
                                <par value="0" name="intensity"/>
                                <par value="64" name="start_phase"/>
                                <par value="0" name="lfo_type"/>
                                <par value="0" name="randomness_amplitude"/>
                                <par value="0" name="randomness_frequency"/>
                                <par value="0" name="delay"/>
                                <par value="64" name="stretch"/>
                                <par_bool value="no" name="continous"/>
                              </FILTER_LFO>
                            </FILTER_PARAMETERS>
                            <RESONANCE>
                              <par_bool value="no" name="enabled"/>
                            </RESONANCE>
                            <VOICE id="0">
                              <par_bool value="yes" name="enabled"/>
                              <par value="0" name="type"/>
                              <par value="1" name="unison_size"/>
                              <par value="60" name="unison_frequency_spread"/>
                              <par value="64" name="unison_stereo_spread"/>
                              <par value="64" name="unison_vibratto"/>
                              <par value="64" name="unison_vibratto_speed"/>
                              <par value="0" name="unison_invert_phase"/>
                              <par value="127" name="unison_phase_randomness"/>
                              <par value="0" name="delay"/>
                              <par_bool value="yes" name="resonance"/>
                              <par value="-1" name="ext_oscil"/>
                              <par value="-1" name="ext_fm_oscil"/>
                              <par value="64" name="oscil_phase"/>
                              <par value="64" name="oscil_fm_phase"/>
                              <par_bool value="no" name="filter_enabled"/>
                              <par_bool value="no" name="filter_bypass"/>
                              <par value="0" name="fm_enabled"/>
                              <OSCIL>
                                <par value="0" name="harmonic_mag_type"/>
                                <par value="9" name="base_function"/>
                                <par value="85" name="base_function_par"/>
                                <par value="0" name="base_function_modulation"/>
                                <par value="64" name="base_function_modulation_par1"/>
                                <par value="64" name="base_function_modulation_par2"/>
                                <par value="32" name="base_function_modulation_par3"/>
                                <par value="0" name="modulation"/>
                                <par value="64" name="modulation_par1"/>
                                <par value="64" name="modulation_par2"/>
                                <par value="32" name="modulation_par3"/>
                                <par value="111" name="wave_shaping"/>
                                <par value="0" name="wave_shaping_function"/>
                                <par value="0" name="filter_type"/>
                                <par value="70" name="filter_par1"/>
                                <par value="64" name="filter_par2"/>
                                <par value="0" name="filter_before_wave_shaping"/>
                                <par value="1" name="spectrum_adjust_type"/>
                                <par value="0" name="spectrum_adjust_par"/>
                                <par value="0" name="rand"/>
                                <par value="0" name="amp_rand_type"/>
                                <par value="64" name="amp_rand_power"/>
                                <par value="0" name="harmonic_shift"/>
                                <par_bool value="no" name="harmonic_shift_first"/>
                                <par value="0" name="adaptive_harmonics"/>
                                <par value="128" name="adaptive_harmonics_base_frequency"/>
                                <par value="100" name="adaptive_harmonics_power"/>
                                <HARMONICS>
                                  <HARMONIC id="1">
                                    <par value="127" name="mag"/>
                                    <par value="64" name="phase"/>
                                  </HARMONIC>
                                  <HARMONIC id="2">
                                    <par value="23" name="mag"/>
                                    <par value="64" name="phase"/>
                                  </HARMONIC>
                                </HARMONICS>
                              </OSCIL>
                              <AMPLITUDE_PARAMETERS>
                                <par value="0" name="panning"/>
                                <par value="100" name="volume"/>
                                <par_bool value="no" name="volume_minus"/>
                                <par value="127" name="velocity_sensing"/>
                                <par_bool value="no" name="amp_envelope_enabled"/>
                                <par_bool value="no" name="amp_lfo_enabled"/>
                              </AMPLITUDE_PARAMETERS>
                              <FREQUENCY_PARAMETERS>
                                <par_bool value="no" name="fixed_freq"/>
                                <par value="0" name="fixed_freq_et"/>
                                <par value="6553" name="detune"/>
                                <par value="0" name="coarse_detune"/>
                                <par value="0" name="detune_type"/>
                                <par_bool value="no" name="freq_envelope_enabled"/>
                                <par_bool value="yes" name="freq_lfo_enabled"/>
                                <FREQUENCY_LFO>
                                  <par_real value="0.220472" name="freq"/>
                                  <par value="40" name="intensity"/>
                                  <par value="0" name="start_phase"/>
                                  <par value="0" name="lfo_type"/>
                                  <par value="0" name="randomness_amplitude"/>
                                  <par value="0" name="randomness_frequency"/>
                                  <par value="0" name="delay"/>
                                  <par value="64" name="stretch"/>
                                  <par_bool value="no" name="continous"/>
                                </FREQUENCY_LFO>
                              </FREQUENCY_PARAMETERS>
                            </VOICE>
                            <VOICE id="1">
                              <par_bool value="yes" name="enabled"/>
                              <par value="0" name="type"/>
                              <par value="1" name="unison_size"/>
                              <par value="60" name="unison_frequency_spread"/>
                              <par value="64" name="unison_stereo_spread"/>
                              <par value="64" name="unison_vibratto"/>
                              <par value="64" name="unison_vibratto_speed"/>
                              <par value="0" name="unison_invert_phase"/>
                              <par value="127" name="unison_phase_randomness"/>
                              <par value="0" name="delay"/>
                              <par_bool value="yes" name="resonance"/>
                              <par value="0" name="ext_oscil"/>
                              <par value="-1" name="ext_fm_oscil"/>
                              <par value="64" name="oscil_phase"/>
                              <par value="64" name="oscil_fm_phase"/>
                              <par_bool value="no" name="filter_enabled"/>
                              <par_bool value="no" name="filter_bypass"/>
                              <par value="0" name="fm_enabled"/>
                              <OSCIL>
                                <par value="0" name="harmonic_mag_type"/>
                                <par value="0" name="base_function"/>
                                <par value="64" name="base_function_par"/>
                                <par value="0" name="base_function_modulation"/>
                                <par value="64" name="base_function_modulation_par1"/>
                                <par value="64" name="base_function_modulation_par2"/>
                                <par value="32" name="base_function_modulation_par3"/>
                                <par value="0" name="modulation"/>
                                <par value="64" name="modulation_par1"/>
                                <par value="64" name="modulation_par2"/>
                                <par value="32" name="modulation_par3"/>
                                <par value="64" name="wave_shaping"/>
                                <par value="0" name="wave_shaping_function"/>
                                <par value="0" name="filter_type"/>
                                <par value="64" name="filter_par1"/>
                                <par value="64" name="filter_par2"/>
                                <par value="0" name="filter_before_wave_shaping"/>
                                <par value="0" name="spectrum_adjust_type"/>
                                <par value="64" name="spectrum_adjust_par"/>
                                <par value="64" name="rand"/>
                                <par value="0" name="amp_rand_type"/>
                                <par value="64" name="amp_rand_power"/>
                                <par value="0" name="harmonic_shift"/>
                                <par_bool value="no" name="harmonic_shift_first"/>
                                <par value="0" name="adaptive_harmonics"/>
                                <par value="128" name="adaptive_harmonics_base_frequency"/>
                                <par value="100" name="adaptive_harmonics_power"/>
                                <HARMONICS>
                                  <HARMONIC id="1">
                                    <par value="127" name="mag"/>
                                    <par value="64" name="phase"/>
                                  </HARMONIC>
                                </HARMONICS>
                              </OSCIL>
                              <AMPLITUDE_PARAMETERS>
                                <par value="24" name="panning"/>
                                <par value="100" name="volume"/>
                                <par_bool value="no" name="volume_minus"/>
                                <par value="127" name="velocity_sensing"/>
                                <par_bool value="no" name="amp_envelope_enabled"/>
                                <par_bool value="no" name="amp_lfo_enabled"/>
                              </AMPLITUDE_PARAMETERS>
                              <FREQUENCY_PARAMETERS>
                                <par_bool value="no" name="fixed_freq"/>
                                <par value="0" name="fixed_freq_et"/>
                                <par value="7710" name="detune"/>
                                <par value="0" name="coarse_detune"/>
                                <par value="0" name="detune_type"/>
                                <par_bool value="no" name="freq_envelope_enabled"/>
                                <par_bool value="yes" name="freq_lfo_enabled"/>
                                <FREQUENCY_LFO>
                                  <par_real value="0.228346" name="freq"/>
                                  <par value="29" name="intensity"/>
                                  <par value="0" name="start_phase"/>
                                  <par value="0" name="lfo_type"/>
                                  <par value="0" name="randomness_amplitude"/>
                                  <par value="0" name="randomness_frequency"/>
                                  <par value="0" name="delay"/>
                                  <par value="64" name="stretch"/>
                                  <par_bool value="no" name="continous"/>
                                </FREQUENCY_LFO>
                              </FREQUENCY_PARAMETERS>
                            </VOICE>
                            <VOICE id="2">
                              <par_bool value="yes" name="enabled"/>
                              <par value="0" name="type"/>
                              <par value="1" name="unison_size"/>
                              <par value="60" name="unison_frequency_spread"/>
                              <par value="64" name="unison_stereo_spread"/>
                              <par value="64" name="unison_vibratto"/>
                              <par value="64" name="unison_vibratto_speed"/>
                              <par value="0" name="unison_invert_phase"/>
                              <par value="127" name="unison_phase_randomness"/>
                              <par value="0" name="delay"/>
                              <par_bool value="yes" name="resonance"/>
                              <par value="0" name="ext_oscil"/>
                              <par value="-1" name="ext_fm_oscil"/>
                              <par value="64" name="oscil_phase"/>
                              <par value="64" name="oscil_fm_phase"/>
                              <par_bool value="no" name="filter_enabled"/>
                              <par_bool value="no" name="filter_bypass"/>
                              <par value="0" name="fm_enabled"/>
                              <OSCIL>
                                <par value="0" name="harmonic_mag_type"/>
                                <par value="0" name="base_function"/>
                                <par value="64" name="base_function_par"/>
                                <par value="0" name="base_function_modulation"/>
                                <par value="64" name="base_function_modulation_par1"/>
                                <par value="64" name="base_function_modulation_par2"/>
                                <par value="32" name="base_function_modulation_par3"/>
                                <par value="0" name="modulation"/>
                                <par value="64" name="modulation_par1"/>
                                <par value="64" name="modulation_par2"/>
                                <par value="32" name="modulation_par3"/>
                                <par value="64" name="wave_shaping"/>
                                <par value="0" name="wave_shaping_function"/>
                                <par value="0" name="filter_type"/>
                                <par value="64" name="filter_par1"/>
                                <par value="64" name="filter_par2"/>
                                <par value="0" name="filter_before_wave_shaping"/>
                                <par value="0" name="spectrum_adjust_type"/>
                                <par value="64" name="spectrum_adjust_par"/>
                                <par value="64" name="rand"/>
                                <par value="0" name="amp_rand_type"/>
                                <par value="64" name="amp_rand_power"/>
                                <par value="0" name="harmonic_shift"/>
                                <par_bool value="no" name="harmonic_shift_first"/>
                                <par value="0" name="adaptive_harmonics"/>
                                <par value="128" name="adaptive_harmonics_base_frequency"/>
                                <par value="100" name="adaptive_harmonics_power"/>
                                <HARMONICS>
                                  <HARMONIC id="1">
                                    <par value="127" name="mag"/>
                                    <par value="64" name="phase"/>
                                  </HARMONIC>
                                </HARMONICS>
                              </OSCIL>
                              <AMPLITUDE_PARAMETERS>
                                <par value="91" name="panning"/>
                                <par value="100" name="volume"/>
                                <par_bool value="no" name="volume_minus"/>
                                <par value="127" name="velocity_sensing"/>
                                <par_bool value="no" name="amp_envelope_enabled"/>
                                <par_bool value="no" name="amp_lfo_enabled"/>
                              </AMPLITUDE_PARAMETERS>
                              <FREQUENCY_PARAMETERS>
                                <par_bool value="no" name="fixed_freq"/>
                                <par value="0" name="fixed_freq_et"/>
                                <par value="9252" name="detune"/>
                                <par value="0" name="coarse_detune"/>
                                <par value="0" name="detune_type"/>
                                <par_bool value="no" name="freq_envelope_enabled"/>
                                <par_bool value="yes" name="freq_lfo_enabled"/>
                                <FREQUENCY_LFO>
                                  <par_real value="0.393701" name="freq"/>
                                  <par value="40" name="intensity"/>
                                  <par value="0" name="start_phase"/>
                                  <par value="0" name="lfo_type"/>
                                  <par value="0" name="randomness_amplitude"/>
                                  <par value="0" name="randomness_frequency"/>
                                  <par value="0" name="delay"/>
                                  <par value="64" name="stretch"/>
                                  <par_bool value="no" name="continous"/>
                                </FREQUENCY_LFO>
                              </FREQUENCY_PARAMETERS>
                            </VOICE>
                            <VOICE id="3">
                              <par_bool value="yes" name="enabled"/>
                              <par value="0" name="type"/>
                              <par value="1" name="unison_size"/>
                              <par value="60" name="unison_frequency_spread"/>
                              <par value="64" name="unison_stereo_spread"/>
                              <par value="64" name="unison_vibratto"/>
                              <par value="64" name="unison_vibratto_speed"/>
                              <par value="0" name="unison_invert_phase"/>
                              <par value="127" name="unison_phase_randomness"/>
                              <par value="0" name="delay"/>
                              <par_bool value="yes" name="resonance"/>
                              <par value="-1" name="ext_oscil"/>
                              <par value="-1" name="ext_fm_oscil"/>
                              <par value="64" name="oscil_phase"/>
                              <par value="64" name="oscil_fm_phase"/>
                              <par_bool value="no" name="filter_enabled"/>
                              <par_bool value="no" name="filter_bypass"/>
                              <par value="0" name="fm_enabled"/>
                              <OSCIL>
                                <par value="0" name="harmonic_mag_type"/>
                                <par value="3" name="base_function"/>
                                <par value="23" name="base_function_par"/>
                                <par value="0" name="base_function_modulation"/>
                                <par value="64" name="base_function_modulation_par1"/>
                                <par value="64" name="base_function_modulation_par2"/>
                                <par value="32" name="base_function_modulation_par3"/>
                                <par value="0" name="modulation"/>
                                <par value="64" name="modulation_par1"/>
                                <par value="64" name="modulation_par2"/>
                                <par value="32" name="modulation_par3"/>
                                <par value="60" name="wave_shaping"/>
                                <par value="0" name="wave_shaping_function"/>
                                <par value="0" name="filter_type"/>
                                <par value="64" name="filter_par1"/>
                                <par value="64" name="filter_par2"/>
                                <par value="0" name="filter_before_wave_shaping"/>
                                <par value="0" name="spectrum_adjust_type"/>
                                <par value="64" name="spectrum_adjust_par"/>
                                <par value="64" name="rand"/>
                                <par value="0" name="amp_rand_type"/>
                                <par value="64" name="amp_rand_power"/>
                                <par value="0" name="harmonic_shift"/>
                                <par_bool value="no" name="harmonic_shift_first"/>
                                <par value="0" name="adaptive_harmonics"/>
                                <par value="128" name="adaptive_harmonics_base_frequency"/>
                                <par value="100" name="adaptive_harmonics_power"/>
                                <HARMONICS>
                                  <HARMONIC id="8">
                                    <par value="127" name="mag"/>
                                    <par value="64" name="phase"/>
                                  </HARMONIC>
                                </HARMONICS>
                              </OSCIL>
                              <AMPLITUDE_PARAMETERS>
                                <par value="0" name="panning"/>
                                <par value="100" name="volume"/>
                                <par_bool value="no" name="volume_minus"/>
                                <par value="127" name="velocity_sensing"/>
                                <par_bool value="yes" name="amp_envelope_enabled"/>
                                <AMPLITUDE_ENVELOPE>
                                  <par_bool value="no" name="free_mode"/>
                                  <par value="4" name="env_points"/>
                                  <par value="2" name="env_sustain"/>
                                  <par value="15" name="env_stretch"/>
                                  <par_bool value="yes" name="forced_release"/>
                                  <par_bool value="no" name="linear_envelope"/>
                                  <par value="0" name="A_dt"/>
                                  <par value="87" name="D_dt"/>
                                  <par value="100" name="R_dt"/>
                                  <par value="64" name="A_val"/>
                                  <par value="64" name="D_val"/>
                                  <par value="0" name="S_val"/>
                                  <par value="64" name="R_val"/>
                                </AMPLITUDE_ENVELOPE>
                                <par_bool value="no" name="amp_lfo_enabled"/>
                              </AMPLITUDE_PARAMETERS>
                              <FREQUENCY_PARAMETERS>
                                <par_bool value="no" name="fixed_freq"/>
                                <par value="0" name="fixed_freq_et"/>
                                <par value="8192" name="detune"/>
                                <par value="0" name="coarse_detune"/>
                                <par value="0" name="detune_type"/>
                                <par_bool value="no" name="freq_envelope_enabled"/>
                                <par_bool value="no" name="freq_lfo_enabled"/>
                              </FREQUENCY_PARAMETERS>
                            </VOICE>
                            <VOICE id="4">
                              <par_bool value="no" name="enabled"/>
                            </VOICE>
                            <VOICE id="5">
                              <par_bool value="no" name="enabled"/>
                            </VOICE>
                            <VOICE id="6">
                              <par_bool value="no" name="enabled"/>
                            </VOICE>
                            <VOICE id="7">
                              <par_bool value="no" name="enabled"/>
                            </VOICE>
                          </ADD_SYNTH_PARAMETERS>
                          <par_bool value="no" name="sub_enabled"/>
                          <par_bool value="no" name="pad_enabled"/>
                        </INSTRUMENT_KIT_ITEM>
                        <INSTRUMENT_KIT_ITEM id="1">
                          <par_bool value="no" name="enabled"/>
                        </INSTRUMENT_KIT_ITEM>
                        <INSTRUMENT_KIT_ITEM id="2">
                          <par_bool value="no" name="enabled"/>
                        </INSTRUMENT_KIT_ITEM>
                        <INSTRUMENT_KIT_ITEM id="3">
                          <par_bool value="no" name="enabled"/>
                        </INSTRUMENT_KIT_ITEM>
                        <INSTRUMENT_KIT_ITEM id="4">
                          <par_bool value="no" name="enabled"/>
                        </INSTRUMENT_KIT_ITEM>
                        <INSTRUMENT_KIT_ITEM id="5">
                          <par_bool value="no" name="enabled"/>
                        </INSTRUMENT_KIT_ITEM>
                        <INSTRUMENT_KIT_ITEM id="6">
                          <par_bool value="no" name="enabled"/>
                        </INSTRUMENT_KIT_ITEM>
                        <INSTRUMENT_KIT_ITEM id="7">
                          <par_bool value="no" name="enabled"/>
                        </INSTRUMENT_KIT_ITEM>
                        <INSTRUMENT_KIT_ITEM id="8">
                          <par_bool value="no" name="enabled"/>
                        </INSTRUMENT_KIT_ITEM>
                        <INSTRUMENT_KIT_ITEM id="9">
                          <par_bool value="no" name="enabled"/>
                        </INSTRUMENT_KIT_ITEM>
                        <INSTRUMENT_KIT_ITEM id="10">
                          <par_bool value="no" name="enabled"/>
                        </INSTRUMENT_KIT_ITEM>
                        <INSTRUMENT_KIT_ITEM id="11">
                          <par_bool value="no" name="enabled"/>
                        </INSTRUMENT_KIT_ITEM>
                        <INSTRUMENT_KIT_ITEM id="12">
                          <par_bool value="no" name="enabled"/>
                        </INSTRUMENT_KIT_ITEM>
                        <INSTRUMENT_KIT_ITEM id="13">
                          <par_bool value="no" name="enabled"/>
                        </INSTRUMENT_KIT_ITEM>
                        <INSTRUMENT_KIT_ITEM id="14">
                          <par_bool value="no" name="enabled"/>
                        </INSTRUMENT_KIT_ITEM>
                        <INSTRUMENT_KIT_ITEM id="15">
                          <par_bool value="no" name="enabled"/>
                        </INSTRUMENT_KIT_ITEM>
                      </INSTRUMENT_KIT>
                      <INSTRUMENT_EFFECTS>
                        <INSTRUMENT_EFFECT id="0">
                          <EFFECT>
                            <par value="0" name="type"/>
                          </EFFECT>
                          <par value="0" name="route"/>
                          <par_bool value="no" name="bypass"/>
                        </INSTRUMENT_EFFECT>
                        <INSTRUMENT_EFFECT id="1">
                          <EFFECT>
                            <par value="0" name="type"/>
                          </EFFECT>
                          <par value="0" name="route"/>
                          <par_bool value="no" name="bypass"/>
                        </INSTRUMENT_EFFECT>
                        <INSTRUMENT_EFFECT id="2">
                          <EFFECT>
                            <par value="0" name="type"/>
                          </EFFECT>
                          <par value="0" name="route"/>
                          <par_bool value="no" name="bypass"/>
                        </INSTRUMENT_EFFECT>
                      </INSTRUMENT_EFFECTS>
                    </INSTRUMENT>
                    <CONTROLLER>
                      <par value="100" name="pitchwheel_bendrange"/>
                      <par_bool value="yes" name="expression_receive"/>
                      <par value="64" name="panning_depth"/>
                      <par value="64" name="filter_cutoff_depth"/>
                      <par value="64" name="filter_q_depth"/>
                      <par value="64" name="bandwidth_depth"/>
                      <par value="80" name="mod_wheel_depth"/>
                      <par_bool value="no" name="mod_wheel_exponential"/>
                      <par_bool value="yes" name="fm_amp_receive"/>
                      <par_bool value="yes" name="volume_receive"/>
                      <par_bool value="yes" name="sustain_receive"/>
                      <par_bool value="yes" name="portamento_receive"/>
                      <par value="64" name="portamento_time"/>
                      <par value="3" name="portamento_pitchthresh"/>
                      <par value="1" name="portamento_pitchthreshtype"/>
                      <par value="0" name="portamento_portamento"/>
                      <par value="64" name="portamento_updowntimestretch"/>
                      <par value="0" name="portamento_proportional"/>
                      <par value="80" name="portamento_proprate"/>
                      <par value="90" name="portamento_propdepth"/>
                      <par value="64" name="resonance_center_depth"/>
                      <par value="64" name="resonance_bandwidth_depth"/>
                    </CONTROLLER>
                  </PART>
                  <PART id="1">
                    <par_bool value="no" name="enabled"/>
                  </PART>
                  <PART id="2">
                    <par_bool value="no" name="enabled"/>
                  </PART>
                  <PART id="3">
                    <par_bool value="no" name="enabled"/>
                  </PART>
                  <PART id="4">
                    <par_bool value="no" name="enabled"/>
                  </PART>
                  <PART id="5">
                    <par_bool value="no" name="enabled"/>
                  </PART>
                  <PART id="6">
                    <par_bool value="no" name="enabled"/>
                  </PART>
                  <PART id="7">
                    <par_bool value="no" name="enabled"/>
                  </PART>
                  <PART id="8">
                    <par_bool value="no" name="enabled"/>
                  </PART>
                  <PART id="9">
                    <par_bool value="no" name="enabled"/>
                  </PART>
                  <PART id="10">
                    <par_bool value="no" name="enabled"/>
                  </PART>
                  <PART id="11">
                    <par_bool value="no" name="enabled"/>
                  </PART>
                  <PART id="12">
                    <par_bool value="no" name="enabled"/>
                  </PART>
                  <PART id="13">
                    <par_bool value="no" name="enabled"/>
                  </PART>
                  <PART id="14">
                    <par_bool value="no" name="enabled"/>
                  </PART>
                  <PART id="15">
                    <par_bool value="no" name="enabled"/>
                  </PART>
                  <SYSTEM_EFFECTS>
                    <SYSTEM_EFFECT id="0">
                      <EFFECT>
                        <par value="0" name="type"/>
                      </EFFECT>
                      <VOLUME id="0">
                        <par value="0" name="vol"/>
                      </VOLUME>
                      <VOLUME id="1">
                        <par value="0" name="vol"/>
                      </VOLUME>
                      <VOLUME id="2">
                        <par value="0" name="vol"/>
                      </VOLUME>
                      <VOLUME id="3">
                        <par value="0" name="vol"/>
                      </VOLUME>
                      <VOLUME id="4">
                        <par value="0" name="vol"/>
                      </VOLUME>
                      <VOLUME id="5">
                        <par value="0" name="vol"/>
                      </VOLUME>
                      <VOLUME id="6">
                        <par value="0" name="vol"/>
                      </VOLUME>
                      <VOLUME id="7">
                        <par value="0" name="vol"/>
                      </VOLUME>
                      <VOLUME id="8">
                        <par value="0" name="vol"/>
                      </VOLUME>
                      <VOLUME id="9">
                        <par value="0" name="vol"/>
                      </VOLUME>
                      <VOLUME id="10">
                        <par value="0" name="vol"/>
                      </VOLUME>
                      <VOLUME id="11">
                        <par value="0" name="vol"/>
                      </VOLUME>
                      <VOLUME id="12">
                        <par value="0" name="vol"/>
                      </VOLUME>
                      <VOLUME id="13">
                        <par value="0" name="vol"/>
                      </VOLUME>
                      <VOLUME id="14">
                        <par value="0" name="vol"/>
                      </VOLUME>
                      <VOLUME id="15">
                        <par value="0" name="vol"/>
                      </VOLUME>
                      <SENDTO id="1">
                        <par value="0" name="send_vol"/>
                      </SENDTO>
                      <SENDTO id="2">
                        <par value="0" name="send_vol"/>
                      </SENDTO>
                      <SENDTO id="3">
                        <par value="0" name="send_vol"/>
                      </SENDTO>
                    </SYSTEM_EFFECT>
                    <SYSTEM_EFFECT id="1">
                      <EFFECT>
                        <par value="0" name="type"/>
                      </EFFECT>
                      <VOLUME id="0">
                        <par value="0" name="vol"/>
                      </VOLUME>
                      <VOLUME id="1">
                        <par value="0" name="vol"/>
                      </VOLUME>
                      <VOLUME id="2">
                        <par value="0" name="vol"/>
                      </VOLUME>
                      <VOLUME id="3">
                        <par value="0" name="vol"/>
                      </VOLUME>
                      <VOLUME id="4">
                        <par value="0" name="vol"/>
                      </VOLUME>
                      <VOLUME id="5">
                        <par value="0" name="vol"/>
                      </VOLUME>
                      <VOLUME id="6">
                        <par value="0" name="vol"/>
                      </VOLUME>
                      <VOLUME id="7">
                        <par value="0" name="vol"/>
                      </VOLUME>
                      <VOLUME id="8">
                        <par value="0" name="vol"/>
                      </VOLUME>
                      <VOLUME id="9">
                        <par value="0" name="vol"/>
                      </VOLUME>
                      <VOLUME id="10">
                        <par value="0" name="vol"/>
                      </VOLUME>
                      <VOLUME id="11">
                        <par value="0" name="vol"/>
                      </VOLUME>
                      <VOLUME id="12">
                        <par value="0" name="vol"/>
                      </VOLUME>
                      <VOLUME id="13">
                        <par value="0" name="vol"/>
                      </VOLUME>
                      <VOLUME id="14">
                        <par value="0" name="vol"/>
                      </VOLUME>
                      <VOLUME id="15">
                        <par value="0" name="vol"/>
                      </VOLUME>
                      <SENDTO id="2">
                        <par value="0" name="send_vol"/>
                      </SENDTO>
                      <SENDTO id="3">
                        <par value="0" name="send_vol"/>
                      </SENDTO>
                    </SYSTEM_EFFECT>
                    <SYSTEM_EFFECT id="2">
                      <EFFECT>
                        <par value="0" name="type"/>
                      </EFFECT>
                      <VOLUME id="0">
                        <par value="0" name="vol"/>
                      </VOLUME>
                      <VOLUME id="1">
                        <par value="0" name="vol"/>
                      </VOLUME>
                      <VOLUME id="2">
                        <par value="0" name="vol"/>
                      </VOLUME>
                      <VOLUME id="3">
                        <par value="0" name="vol"/>
                      </VOLUME>
                      <VOLUME id="4">
                        <par value="0" name="vol"/>
                      </VOLUME>
                      <VOLUME id="5">
                        <par value="0" name="vol"/>
                      </VOLUME>
                      <VOLUME id="6">
                        <par value="0" name="vol"/>
                      </VOLUME>
                      <VOLUME id="7">
                        <par value="0" name="vol"/>
                      </VOLUME>
                      <VOLUME id="8">
                        <par value="0" name="vol"/>
                      </VOLUME>
                      <VOLUME id="9">
                        <par value="0" name="vol"/>
                      </VOLUME>
                      <VOLUME id="10">
                        <par value="0" name="vol"/>
                      </VOLUME>
                      <VOLUME id="11">
                        <par value="0" name="vol"/>
                      </VOLUME>
                      <VOLUME id="12">
                        <par value="0" name="vol"/>
                      </VOLUME>
                      <VOLUME id="13">
                        <par value="0" name="vol"/>
                      </VOLUME>
                      <VOLUME id="14">
                        <par value="0" name="vol"/>
                      </VOLUME>
                      <VOLUME id="15">
                        <par value="0" name="vol"/>
                      </VOLUME>
                      <SENDTO id="3">
                        <par value="0" name="send_vol"/>
                      </SENDTO>
                    </SYSTEM_EFFECT>
                    <SYSTEM_EFFECT id="3">
                      <EFFECT>
                        <par value="0" name="type"/>
                      </EFFECT>
                      <VOLUME id="0">
                        <par value="0" name="vol"/>
                      </VOLUME>
                      <VOLUME id="1">
                        <par value="0" name="vol"/>
                      </VOLUME>
                      <VOLUME id="2">
                        <par value="0" name="vol"/>
                      </VOLUME>
                      <VOLUME id="3">
                        <par value="0" name="vol"/>
                      </VOLUME>
                      <VOLUME id="4">
                        <par value="0" name="vol"/>
                      </VOLUME>
                      <VOLUME id="5">
                        <par value="0" name="vol"/>
                      </VOLUME>
                      <VOLUME id="6">
                        <par value="0" name="vol"/>
                      </VOLUME>
                      <VOLUME id="7">
                        <par value="0" name="vol"/>
                      </VOLUME>
                      <VOLUME id="8">
                        <par value="0" name="vol"/>
                      </VOLUME>
                      <VOLUME id="9">
                        <par value="0" name="vol"/>
                      </VOLUME>
                      <VOLUME id="10">
                        <par value="0" name="vol"/>
                      </VOLUME>
                      <VOLUME id="11">
                        <par value="0" name="vol"/>
                      </VOLUME>
                      <VOLUME id="12">
                        <par value="0" name="vol"/>
                      </VOLUME>
                      <VOLUME id="13">
                        <par value="0" name="vol"/>
                      </VOLUME>
                      <VOLUME id="14">
                        <par value="0" name="vol"/>
                      </VOLUME>
                      <VOLUME id="15">
                        <par value="0" name="vol"/>
                      </VOLUME>
                    </SYSTEM_EFFECT>
                  </SYSTEM_EFFECTS>
                  <INSERTION_EFFECTS>
                    <INSERTION_EFFECT id="0">
                      <par value="-1" name="part"/>
                      <EFFECT>
                        <par value="0" name="type"/>
                      </EFFECT>
                    </INSERTION_EFFECT>
                    <INSERTION_EFFECT id="1">
                      <par value="-1" name="part"/>
                      <EFFECT>
                        <par value="0" name="type"/>
                      </EFFECT>
                    </INSERTION_EFFECT>
                    <INSERTION_EFFECT id="2">
                      <par value="-1" name="part"/>
                      <EFFECT>
                        <par value="0" name="type"/>
                      </EFFECT>
                    </INSERTION_EFFECT>
                    <INSERTION_EFFECT id="3">
                      <par value="-1" name="part"/>
                      <EFFECT>
                        <par value="0" name="type"/>
                      </EFFECT>
                    </INSERTION_EFFECT>
                    <INSERTION_EFFECT id="4">
                      <par value="-1" name="part"/>
                      <EFFECT>
                        <par value="0" name="type"/>
                      </EFFECT>
                    </INSERTION_EFFECT>
                    <INSERTION_EFFECT id="5">
                      <par value="-1" name="part"/>
                      <EFFECT>
                        <par value="0" name="type"/>
                      </EFFECT>
                    </INSERTION_EFFECT>
                    <INSERTION_EFFECT id="6">
                      <par value="-1" name="part"/>
                      <EFFECT>
                        <par value="0" name="type"/>
                      </EFFECT>
                    </INSERTION_EFFECT>
                    <INSERTION_EFFECT id="7">
                      <par value="-1" name="part"/>
                      <EFFECT>
                        <par value="0" name="type"/>
                      </EFFECT>
                    </INSERTION_EFFECT>
                  </INSERTION_EFFECTS>
                </MASTER>
              </ZynAddSubFX-data>
            </zynaddsubfx>
          </instrument>
          <eldata fwet="1" ftype="0" fcut="12819" fres="0.5">
            <elvol ctlenvamt="0" lamt="0" amt="1" latt="0" lspd_syncmode="0" dec="0.445" lpdel="0" att="0" lspd_denominator="4" hold="0.08" lspd="0.1" lspd_numerator="4" sustain="0" lshp="0" pdel="0" x100="0" rel="0.14" userwavefile=""/>
            <elcut ctlenvamt="0" lamt="0" amt="0" latt="0" lspd_syncmode="0" dec="0.14" lpdel="0" att="0.13" lspd_denominator="4" hold="0" lspd="0.1" lspd_numerator="4" sustain="0" lshp="0" pdel="0" x100="1" rel="0.06" userwavefile=""/>
            <elres ctlenvamt="0" lamt="0" amt="0" latt="0" lspd_syncmode="0" dec="0.5" lpdel="0" att="0" lspd_denominator="4" hold="0.5" lspd="0.1" lspd_numerator="4" sustain="0.5" lshp="0" pdel="0" x100="0" rel="0.1" userwavefile=""/>
          </eldata>
          <chordcreator chordrange="1" chord-enabled="0" chord="0"/>
          <arpeggiator arptime_syncmode="0" arpdir="0" arptime_numerator="4" arpmode="0" arp="0" arpmiss="0" arptime="100" arpgate="100" arp-enabled="0" arpskip="0" arptime_denominator="4" arprange="1" arpcycle="0"/>
          <midiport writable="0" fixedinputvelocity="-1" outputchannel="1" fixedoutputvelocity="-1" outputcontroller="0" basevelocity="63" fixedoutputnote="-1" inputchannel="0" inputcontroller="0" outputprogram="1" readable="0"/>
          <fxchain numofeffects="1" enabled="1">
            <effect gate="0" autoquit_denominator="4" wet="1" autoquit_numerator="4" autoquit="1" autoquit_syncmode="0" name="ladspaeffect" on="1">
              <ladspacontrols ports="4">
                <port02 data="0.90454"/>
                <port03 data="0.749"/>
                <port04 data="0.0005"/>
                <port05 data="0.3775"/>
              </ladspacontrols>
              <key>
                <attribute value="caps" name="file"/>
                <attribute value="Plate2x2" name="plugin"/>
              </key>
            </effect>
          </fxchain>
        </instrumenttrack>
        <pattern steps="16" muted="0" type="1" pos="6528" name="Fantasy Bell">
          <note key="63" pos="0" len="72" vol="151" pan="0"/>
          <note key="60" pos="72" len="72" vol="151" pan="0"/>
          <note key="63" pos="144" len="72" vol="151" pan="0"/>
          <note key="67" pos="216" len="72" vol="151" pan="0"/>
          <note key="72" pos="288" len="48" vol="144" pan="0"/>
          <note key="74" pos="336" len="48" vol="144" pan="0"/>
          <note key="75" pos="384" len="72" vol="151" pan="0"/>
          <note key="74" pos="456" len="72" vol="151" pan="0"/>
          <note key="70" pos="528" len="72" vol="151" pan="0"/>
          <note key="65" pos="600" len="72" vol="151" pan="0"/>
          <note key="63" pos="672" len="48" vol="144" pan="0"/>
          <note key="62" pos="720" len="48" vol="144" pan="0"/>
          <note key="63" pos="768" len="72" vol="151" pan="0"/>
          <note key="60" pos="840" len="72" vol="151" pan="0"/>
          <note key="63" pos="912" len="72" vol="151" pan="0"/>
          <note key="67" pos="984" len="72" vol="151" pan="0"/>
          <note key="72" pos="1056" len="48" vol="144" pan="0"/>
          <note key="74" pos="1104" len="48" vol="144" pan="0"/>
          <note key="75" pos="1152" len="72" vol="151" pan="0"/>
          <note key="79" pos="1224" len="72" vol="151" pan="0"/>
          <note key="77" pos="1296" len="72" vol="151" pan="0"/>
          <note key="74" pos="1368" len="72" vol="151" pan="0"/>
          <note key="80" pos="1440" len="48" vol="144" pan="0"/>
          <note key="79" pos="1488" len="48" vol="144" pan="0"/>
        </pattern>
        <pattern steps="16" muted="0" type="1" pos="26880" name="Fantasy Bell">
          <note key="76" pos="0" len="72" vol="170" pan="0"/>
          <note key="64" pos="72" len="72" vol="170" pan="0"/>
          <note key="67" pos="144" len="72" vol="170" pan="0"/>
          <note key="71" pos="216" len="72" vol="170" pan="0"/>
          <note key="76" pos="288" len="48" vol="163" pan="0"/>
          <note key="78" pos="336" len="48" vol="163" pan="0"/>
          <note key="79" pos="384" len="72" vol="170" pan="0"/>
          <note key="78" pos="456" len="72" vol="170" pan="0"/>
          <note key="74" pos="528" len="72" vol="170" pan="0"/>
          <note key="69" pos="600" len="72" vol="170" pan="0"/>
          <note key="67" pos="672" len="48" vol="163" pan="0"/>
          <note key="69" pos="720" len="48" vol="163" pan="0"/>
          <note key="71" pos="768" len="72" vol="170" pan="0"/>
          <note key="64" pos="840" len="72" vol="170" pan="0"/>
          <note key="67" pos="912" len="72" vol="170" pan="0"/>
          <note key="71" pos="984" len="72" vol="170" pan="0"/>
          <note key="76" pos="1056" len="48" vol="163" pan="0"/>
          <note key="78" pos="1104" len="48" vol="163" pan="0"/>
          <note key="79" pos="1152" len="72" vol="170" pan="0"/>
          <note key="83" pos="1224" len="72" vol="170" pan="0"/>
          <note key="81" pos="1296" len="72" vol="170" pan="0"/>
          <note key="79" pos="1368" len="72" vol="170" pan="0"/>
          <note key="78" pos="1440" len="48" vol="170" pan="0"/>
          <note key="79" pos="1488" len="48" vol="163" pan="0"/>
          <note key="76" pos="1536" len="72" vol="170" pan="0"/>
          <note key="64" pos="1608" len="72" vol="170" pan="0"/>
          <note key="67" pos="1680" len="72" vol="170" pan="0"/>
          <note key="71" pos="1752" len="72" vol="170" pan="0"/>
          <note key="76" pos="1824" len="48" vol="163" pan="0"/>
          <note key="78" pos="1872" len="48" vol="163" pan="0"/>
          <note key="79" pos="1920" len="72" vol="176" pan="0"/>
          <note key="78" pos="1992" len="72" vol="176" pan="0"/>
          <note key="74" pos="2064" len="72" vol="176" pan="0"/>
          <note key="69" pos="2136" len="72" vol="176" pan="0"/>
          <note key="67" pos="2208" len="48" vol="170" pan="0"/>
          <note key="69" pos="2256" len="48" vol="170" pan="0"/>
          <note key="71" pos="2304" len="72" vol="176" pan="0"/>
          <note key="64" pos="2376" len="72" vol="176" pan="0"/>
          <note key="67" pos="2448" len="72" vol="176" pan="0"/>
          <note key="71" pos="2520" len="72" vol="176" pan="0"/>
          <note key="76" pos="2592" len="48" vol="182" pan="0"/>
          <note key="78" pos="2640" len="48" vol="182" pan="0"/>
          <note key="79" pos="2688" len="72" vol="182" pan="0"/>
          <note key="83" pos="2760" len="72" vol="182" pan="0"/>
          <note key="81" pos="2832" len="72" vol="182" pan="0"/>
          <note key="79" pos="2904" len="72" vol="182" pan="0"/>
          <note key="78" pos="2976" len="48" vol="176" pan="0"/>
          <note key="79" pos="3024" len="48" vol="170" pan="0"/>
        </pattern>
        <pattern steps="16" muted="0" type="1" pos="31488" name="Fantasy Bell">
          <note key="64" pos="60" len="400" vol="197" pan="0"/>
        </pattern>
      </track>
      <track solo="0" muted="0" type="0" name="choir">
        <instrumenttrack basenote="57" pitchrange="1" pitch="0" usemasterpitch="1" vol="78.4" pan="0" fxch="16">
          <instrument name="sf2player">
            <sf2player reverbDamping="0" reverbWidth="0.5" reverbLevel="0.9" gain="1" chorusOn="0" reverbOn="0" bank="0" chorusNum="3" chorusSpeed="0.3" reverbRoomSize="0.2" src="/home/pass/samples/soundfonts/Orchestra Soundfont 2 COMBO.sf2" patch="52" chorusLevel="2" chorusDepth="8"/>
          </instrument>
          <eldata fwet="0" ftype="0" fcut="14000" fres="0.5">
            <elvol ctlenvamt="0" lamt="0" amt="0" latt="0" lspd_syncmode="0" dec="0.5" lpdel="0" att="0" lspd_denominator="4" hold="0.5" lspd="0.1" lspd_numerator="4" sustain="0.5" lshp="0" pdel="0" x100="0" rel="0.1" userwavefile=""/>
            <elcut ctlenvamt="0" lamt="0" amt="0" latt="0" lspd_syncmode="0" dec="0.5" lpdel="0" att="0" lspd_denominator="4" hold="0.5" lspd="0.1" lspd_numerator="4" sustain="0.5" lshp="0" pdel="0" x100="0" rel="0.1" userwavefile=""/>
            <elres ctlenvamt="0" lamt="0" amt="0" latt="0" lspd_syncmode="0" dec="0.5" lpdel="0" att="0" lspd_denominator="4" hold="0.5" lspd="0.1" lspd_numerator="4" sustain="0.5" lshp="0" pdel="0" x100="0" rel="0.1" userwavefile=""/>
          </eldata>
          <chordcreator chordrange="1" chord-enabled="0" chord="0"/>
          <arpeggiator arptime_syncmode="0" arpdir="0" arptime_numerator="4" arpmode="0" arp="0" arpmiss="0" arptime="200" arpgate="100" arp-enabled="0" arpskip="0" arptime_denominator="4" arprange="1" arpcycle="0"/>
          <midiport writable="0" fixedinputvelocity="-1" outputchannel="1" fixedoutputvelocity="-1" outputcontroller="0" basevelocity="63" fixedoutputnote="-1" inputchannel="0" inputcontroller="0" outputprogram="1" readable="0"/>
          <fxchain numofeffects="0" enabled="0"/>
        </instrumenttrack>
        <pattern steps="16" muted="0" type="1" pos="6528" name="choir">
          <note key="67" pos="0" len="384" vol="197" pan="0"/>
          <note key="63" pos="0" len="384" vol="197" pan="0"/>
          <note key="60" pos="0" len="384" vol="197" pan="0"/>
          <note key="68" pos="384" len="144" vol="197" pan="0"/>
          <note key="63" pos="384" len="144" vol="197" pan="0"/>
          <note key="60" pos="384" len="144" vol="197" pan="0"/>
          <note key="70" pos="528" len="240" vol="197" pan="0"/>
          <note key="65" pos="528" len="240" vol="197" pan="0"/>
          <note key="62" pos="528" len="240" vol="197" pan="0"/>
        </pattern>
        <pattern steps="16" muted="0" type="1" pos="26880" name="choir">
          <note key="64" pos="0" len="72" vol="170" pan="0"/>
          <note key="55" pos="0" len="72" vol="170" pan="0"/>
          <note key="52" pos="0" len="384" vol="197" pan="0"/>
          <note key="47" pos="0" len="384" vol="197" pan="0"/>
          <note key="52" pos="72" len="72" vol="170" pan="0"/>
          <note key="43" pos="72" len="72" vol="170" pan="0"/>
          <note key="55" pos="144" len="72" vol="170" pan="0"/>
          <note key="47" pos="144" len="72" vol="170" pan="0"/>
          <note key="59" pos="216" len="72" vol="170" pan="0"/>
          <note key="50" pos="216" len="72" vol="170" pan="0"/>
          <note key="64" pos="288" len="48" vol="163" pan="0"/>
          <note key="55" pos="288" len="48" vol="163" pan="0"/>
          <note key="66" pos="336" len="48" vol="163" pan="0"/>
          <note key="57" pos="336" len="48" vol="163" pan="0"/>
          <note key="67" pos="384" len="72" vol="170" pan="0"/>
          <note key="59" pos="384" len="72" vol="170" pan="0"/>
          <note key="52" pos="384" len="144" vol="197" pan="0"/>
          <note key="48" pos="384" len="144" vol="197" pan="0"/>
          <note key="66" pos="456" len="72" vol="170" pan="0"/>
          <note key="57" pos="456" len="72" vol="170" pan="0"/>
          <note key="62" pos="528" len="72" vol="170" pan="0"/>
          <note key="54" pos="528" len="72" vol="170" pan="0"/>
          <note key="54" pos="528" len="240" vol="197" pan="0"/>
          <note key="50" pos="528" len="240" vol="197" pan="0"/>
          <note key="57" pos="600" len="72" vol="170" pan="0"/>
          <note key="48" pos="600" len="72" vol="170" pan="0"/>
          <note key="55" pos="672" len="48" vol="163" pan="0"/>
          <note key="47" pos="672" len="48" vol="163" pan="0"/>
          <note key="57" pos="720" len="48" vol="163" pan="0"/>
          <note key="48" pos="720" len="48" vol="163" pan="0"/>
          <note key="59" pos="768" len="72" vol="170" pan="0"/>
          <note key="52" pos="768" len="384" vol="197" pan="0"/>
          <note key="50" pos="768" len="72" vol="170" pan="0"/>
          <note key="47" pos="768" len="384" vol="197" pan="0"/>
          <note key="52" pos="840" len="72" vol="170" pan="0"/>
          <note key="43" pos="840" len="72" vol="170" pan="0"/>
          <note key="55" pos="912" len="72" vol="170" pan="0"/>
          <note key="47" pos="912" len="72" vol="170" pan="0"/>
          <note key="59" pos="984" len="72" vol="170" pan="0"/>
          <note key="50" pos="984" len="72" vol="170" pan="0"/>
          <note key="64" pos="1056" len="48" vol="163" pan="0"/>
          <note key="55" pos="1056" len="48" vol="163" pan="0"/>
          <note key="66" pos="1104" len="48" vol="163" pan="0"/>
          <note key="57" pos="1104" len="48" vol="163" pan="0"/>
          <note key="67" pos="1152" len="72" vol="170" pan="0"/>
          <note key="59" pos="1152" len="72" vol="170" pan="0"/>
          <note key="52" pos="1152" len="144" vol="197" pan="0"/>
          <note key="48" pos="1152" len="144" vol="197" pan="0"/>
          <note key="71" pos="1224" len="72" vol="170" pan="0"/>
          <note key="62" pos="1224" len="72" vol="170" pan="0"/>
          <note key="69" pos="1296" len="72" vol="170" pan="0"/>
          <note key="60" pos="1296" len="72" vol="170" pan="0"/>
          <note key="54" pos="1296" len="240" vol="197" pan="0"/>
          <note key="50" pos="1296" len="240" vol="197" pan="0"/>
          <note key="67" pos="1368" len="72" vol="170" pan="0"/>
          <note key="59" pos="1368" len="72" vol="170" pan="0"/>
          <note key="66" pos="1440" len="48" vol="170" pan="0"/>
          <note key="57" pos="1440" len="48" vol="170" pan="0"/>
          <note key="67" pos="1488" len="48" vol="163" pan="0"/>
          <note key="59" pos="1488" len="48" vol="163" pan="0"/>
        </pattern>
        <pattern steps="16" muted="0" type="1" pos="28416" name="choir">
          <note key="64" pos="0" len="72" vol="170" pan="0"/>
          <note key="55" pos="0" len="72" vol="170" pan="0"/>
          <note key="52" pos="0" len="384" vol="197" pan="0"/>
          <note key="47" pos="0" len="384" vol="197" pan="0"/>
          <note key="52" pos="72" len="72" vol="170" pan="0"/>
          <note key="43" pos="72" len="72" vol="170" pan="0"/>
          <note key="55" pos="144" len="72" vol="170" pan="0"/>
          <note key="47" pos="144" len="72" vol="170" pan="0"/>
          <note key="59" pos="216" len="72" vol="170" pan="0"/>
          <note key="50" pos="216" len="72" vol="170" pan="0"/>
          <note key="64" pos="288" len="48" vol="163" pan="0"/>
          <note key="55" pos="288" len="48" vol="163" pan="0"/>
          <note key="66" pos="336" len="48" vol="163" pan="0"/>
          <note key="57" pos="336" len="48" vol="163" pan="0"/>
          <note key="67" pos="384" len="72" vol="170" pan="0"/>
          <note key="59" pos="384" len="72" vol="170" pan="0"/>
          <note key="52" pos="384" len="144" vol="197" pan="0"/>
          <note key="48" pos="384" len="144" vol="197" pan="0"/>
          <note key="66" pos="456" len="72" vol="170" pan="0"/>
          <note key="57" pos="456" len="72" vol="170" pan="0"/>
          <note key="62" pos="528" len="72" vol="170" pan="0"/>
          <note key="54" pos="528" len="72" vol="170" pan="0"/>
          <note key="54" pos="528" len="240" vol="197" pan="0"/>
          <note key="50" pos="528" len="240" vol="197" pan="0"/>
          <note key="57" pos="600" len="72" vol="170" pan="0"/>
          <note key="48" pos="600" len="72" vol="170" pan="0"/>
          <note key="55" pos="672" len="48" vol="163" pan="0"/>
          <note key="47" pos="672" len="48" vol="163" pan="0"/>
          <note key="57" pos="720" len="48" vol="163" pan="0"/>
          <note key="48" pos="720" len="48" vol="163" pan="0"/>
          <note key="59" pos="768" len="72" vol="170" pan="0"/>
          <note key="52" pos="768" len="384" vol="197" pan="0"/>
          <note key="50" pos="768" len="72" vol="170" pan="0"/>
          <note key="47" pos="768" len="384" vol="197" pan="0"/>
          <note key="52" pos="840" len="72" vol="170" pan="0"/>
          <note key="43" pos="840" len="72" vol="170" pan="0"/>
          <note key="55" pos="912" len="72" vol="170" pan="0"/>
          <note key="47" pos="912" len="72" vol="170" pan="0"/>
          <note key="59" pos="984" len="72" vol="170" pan="0"/>
          <note key="50" pos="984" len="72" vol="170" pan="0"/>
          <note key="64" pos="1056" len="48" vol="163" pan="0"/>
          <note key="55" pos="1056" len="48" vol="163" pan="0"/>
          <note key="66" pos="1104" len="48" vol="163" pan="0"/>
          <note key="57" pos="1104" len="48" vol="163" pan="0"/>
          <note key="67" pos="1152" len="72" vol="170" pan="0"/>
          <note key="59" pos="1152" len="72" vol="170" pan="0"/>
          <note key="52" pos="1152" len="144" vol="197" pan="0"/>
          <note key="48" pos="1152" len="144" vol="197" pan="0"/>
          <note key="71" pos="1224" len="72" vol="170" pan="0"/>
          <note key="62" pos="1224" len="72" vol="170" pan="0"/>
          <note key="69" pos="1296" len="72" vol="170" pan="0"/>
          <note key="60" pos="1296" len="72" vol="170" pan="0"/>
          <note key="54" pos="1296" len="240" vol="197" pan="0"/>
          <note key="50" pos="1296" len="240" vol="197" pan="0"/>
          <note key="67" pos="1368" len="72" vol="170" pan="0"/>
          <note key="59" pos="1368" len="72" vol="170" pan="0"/>
          <note key="66" pos="1440" len="48" vol="170" pan="0"/>
          <note key="57" pos="1440" len="48" vol="170" pan="0"/>
          <note key="67" pos="1488" len="48" vol="163" pan="0"/>
          <note key="59" pos="1488" len="48" vol="163" pan="0"/>
        </pattern>
        <pattern steps="16" muted="0" type="1" pos="0" name="choir">
          <note key="55" pos="0" len="192" vol="195" pan="0"/>
          <note key="51" pos="0" len="192" vol="195" pan="0"/>
          <note key="48" pos="0" len="192" vol="195" pan="0"/>
          <note key="56" pos="192" len="192" vol="195" pan="0"/>
          <note key="53" pos="192" len="192" vol="195" pan="0"/>
          <note key="48" pos="192" len="192" vol="195" pan="0"/>
          <note key="57" pos="384" len="192" vol="195" pan="0"/>
          <note key="52" pos="384" len="192" vol="195" pan="0"/>
          <note key="48" pos="384" len="192" vol="195" pan="0"/>
          <note key="56" pos="576" len="192" vol="195" pan="0"/>
          <note key="53" pos="576" len="192" vol="195" pan="0"/>
          <note key="48" pos="576" len="192" vol="195" pan="0"/>
        </pattern>
        <pattern steps="16" muted="0" type="1" pos="768" name="">
          <note key="55" pos="0" len="192" vol="195" pan="0"/>
          <note key="51" pos="0" len="192" vol="195" pan="0"/>
          <note key="48" pos="0" len="192" vol="195" pan="0"/>
          <note key="56" pos="192" len="192" vol="195" pan="0"/>
          <note key="53" pos="192" len="192" vol="195" pan="0"/>
          <note key="48" pos="192" len="192" vol="195" pan="0"/>
          <note key="57" pos="384" len="192" vol="195" pan="0"/>
          <note key="52" pos="384" len="192" vol="195" pan="0"/>
          <note key="48" pos="384" len="192" vol="195" pan="0"/>
          <note key="56" pos="576" len="192" vol="195" pan="0"/>
          <note key="53" pos="576" len="192" vol="195" pan="0"/>
          <note key="48" pos="576" len="192" vol="195" pan="0"/>
        </pattern>
        <pattern steps="16" muted="0" type="1" pos="7296" name="">
          <note key="72" pos="0" len="384" vol="197" pan="0"/>
          <note key="67" pos="0" len="384" vol="197" pan="0"/>
          <note key="63" pos="0" len="384" vol="197" pan="0"/>
          <note key="72" pos="384" len="144" vol="197" pan="0"/>
          <note key="68" pos="384" len="144" vol="197" pan="0"/>
          <note key="63" pos="384" len="144" vol="197" pan="0"/>
          <note key="74" pos="528" len="240" vol="197" pan="0"/>
          <note key="70" pos="528" len="240" vol="197" pan="0"/>
          <note key="65" pos="528" len="240" vol="197" pan="0"/>
        </pattern>
        <pattern steps="16" muted="0" type="1" pos="10368" name="">
          <note key="67" pos="0" len="384" vol="170" pan="0"/>
          <note key="63" pos="0" len="384" vol="170" pan="0"/>
          <note key="60" pos="0" len="384" vol="170" pan="0"/>
          <note key="66" pos="384" len="384" vol="170" pan="0"/>
          <note key="61" pos="384" len="384" vol="170" pan="0"/>
          <note key="58" pos="384" len="384" vol="170" pan="0"/>
        </pattern>
        <pattern steps="16" muted="0" type="1" pos="9600" name="">
          <note key="67" pos="0" len="384" vol="170" pan="0"/>
          <note key="63" pos="0" len="384" vol="170" pan="0"/>
          <note key="60" pos="0" len="384" vol="170" pan="0"/>
          <note key="66" pos="384" len="384" vol="170" pan="0"/>
          <note key="61" pos="384" len="384" vol="170" pan="0"/>
          <note key="58" pos="384" len="384" vol="170" pan="0"/>
        </pattern>
        <pattern steps="16" muted="0" type="1" pos="29952" name="">
          <note key="76" pos="0" len="72" vol="157" pan="0"/>
          <note key="64" pos="72" len="24" vol="144" pan="0"/>
          <note key="66" pos="96" len="24" vol="144" pan="0"/>
          <note key="67" pos="120" len="24" vol="144" pan="0"/>
          <note key="72" pos="144" len="72" vol="144" pan="0"/>
          <note key="71" pos="216" len="72" vol="144" pan="0"/>
          <note key="76" pos="288" len="24" vol="144" pan="0"/>
          <note key="71" pos="312" len="24" vol="144" pan="0"/>
          <note key="76" pos="336" len="24" vol="144" pan="0"/>
          <note key="78" pos="360" len="24" vol="151" pan="0"/>
          <note key="79" pos="384" len="24" vol="157" pan="0"/>
          <note key="78" pos="408" len="24" vol="151" pan="0"/>
          <note key="74" pos="432" len="24" vol="144" pan="0"/>
          <note key="69" pos="456" len="24" vol="144" pan="0"/>
          <note key="67" pos="480" len="24" vol="144" pan="0"/>
          <note key="66" pos="504" len="24" vol="144" pan="0"/>
          <note key="62" pos="528" len="48" vol="138" pan="0"/>
          <note key="62" pos="600" len="23" vol="151" pan="0"/>
          <note key="71" pos="624" len="23" vol="151" pan="0"/>
          <note key="67" pos="648" len="23" vol="151" pan="0"/>
          <note key="64" pos="672" len="23" vol="151" pan="0"/>
          <note key="66" pos="696" len="23" vol="157" pan="0"/>
          <note key="74" pos="720" len="12" vol="151" pan="0"/>
          <note key="76" pos="732" len="11" vol="151" pan="0"/>
          <note key="74" pos="744" len="23" vol="157" pan="0"/>
          <note key="67" pos="768" len="24" vol="157" pan="0"/>
          <note key="59" pos="792" len="24" vol="132" pan="0"/>
          <note key="64" pos="816" len="24" vol="144" pan="0"/>
          <note key="66" pos="840" len="24" vol="151" pan="0"/>
          <note key="59" pos="864" len="24" vol="151" pan="0"/>
          <note key="64" pos="888" len="24" vol="151" pan="0"/>
          <note key="67" pos="912" len="24" vol="163" pan="0"/>
          <note key="59" pos="936" len="24" vol="151" pan="0"/>
          <note key="64" pos="960" len="24" vol="151" pan="0"/>
          <note key="71" pos="984" len="24" vol="163" pan="0"/>
          <note key="64" pos="1008" len="24" vol="151" pan="0"/>
          <note key="67" pos="1032" len="24" vol="151" pan="0"/>
          <note key="76" pos="1056" len="24" vol="163" pan="0"/>
          <note key="71" pos="1080" len="24" vol="157" pan="0"/>
          <note key="76" pos="1104" len="24" vol="151" pan="0"/>
          <note key="78" pos="1128" len="24" vol="163" pan="0"/>
          <note key="79" pos="1152" len="24" vol="168" pan="0"/>
          <note key="71" pos="1176" len="24" vol="151" pan="0"/>
          <note key="76" pos="1200" len="24" vol="157" pan="0"/>
          <note key="83" pos="1224" len="48" vol="168" pan="0"/>
          <note key="71" pos="1224" len="48" vol="157" pan="0"/>
          <note key="81" pos="1272" len="48" vol="168" pan="0"/>
          <note key="69" pos="1272" len="48" vol="157" pan="0"/>
          <note key="78" pos="1320" len="48" vol="168" pan="0"/>
          <note key="66" pos="1320" len="48" vol="151" pan="0"/>
          <note key="69" pos="1368" len="24" vol="151" pan="0"/>
          <note key="76" pos="1392" len="24" vol="151" pan="0"/>
          <note key="78" pos="1416" len="24" vol="151" pan="0"/>
          <note key="79" pos="1440" len="72" vol="151" pan="0"/>
          <note key="78" pos="1512" len="84" vol="144" pan="0"/>
        </pattern>
      </track>
      <track solo="0" muted="0" type="0" name="Blanchet-1720">
        <instrumenttrack basenote="57" pitchrange="2" pitch="0" usemasterpitch="1" vol="135.2" pan="0.787402" fxch="0">
          <instrument name="sf2player">
            <sf2player reverbDamping="0" reverbWidth="0.5" reverbLevel="0.9" gain="1" chorusOn="0" reverbOn="0" bank="1" chorusNum="3" chorusSpeed="0.3" reverbRoomSize="0.2" src="/home/pass/samples/soundfonts/Blanchet-1720.sf2" patch="1" chorusLevel="2" chorusDepth="8"/>
          </instrument>
          <eldata fwet="0" ftype="0" fcut="14000" fres="0.5">
            <elvol ctlenvamt="0" lamt="0" amt="0" latt="0" lspd_syncmode="0" dec="0.5" lpdel="0" att="0" lspd_denominator="4" hold="0.5" lspd="0.1" lspd_numerator="4" sustain="0.5" lshp="0" pdel="0" x100="0" rel="0.1" userwavefile=""/>
            <elcut ctlenvamt="0" lamt="0" amt="0" latt="0" lspd_syncmode="0" dec="0.5" lpdel="0" att="0" lspd_denominator="4" hold="0.5" lspd="0.1" lspd_numerator="4" sustain="0.5" lshp="0" pdel="0" x100="0" rel="0.1" userwavefile=""/>
            <elres ctlenvamt="0" lamt="0" amt="0" latt="0" lspd_syncmode="0" dec="0.5" lpdel="0" att="0" lspd_denominator="4" hold="0.5" lspd="0.1" lspd_numerator="4" sustain="0.5" lshp="0" pdel="0" x100="0" rel="0.1" userwavefile=""/>
          </eldata>
          <chordcreator chordrange="1" chord-enabled="0" chord="0"/>
          <arpeggiator arptime_syncmode="0" arpdir="0" arptime_numerator="4" arpmode="0" arp="0" arpmiss="0" arptime="200" arpgate="100" arp-enabled="0" arpskip="0" arptime_denominator="4" arprange="1" arpcycle="0"/>
          <midiport writable="0" fixedinputvelocity="-1" outputchannel="1" fixedoutputvelocity="-1" outputcontroller="0" basevelocity="63" fixedoutputnote="-1" inputchannel="0" inputcontroller="0" outputprogram="1" readable="0"/>
          <fxchain numofeffects="0" enabled="0"/>
        </instrumenttrack>
        <pattern steps="16" muted="0" type="0" pos="0" name="Blanchet-1720"/>
        <pattern steps="16" muted="0" type="1" pos="9600" name="Blanchet-1720">
          <note key="67" pos="0" len="12" vol="197" pan="0"/>
          <note key="63" pos="12" len="12" vol="197" pan="0"/>
          <note key="60" pos="24" len="12" vol="197" pan="0"/>
          <note key="63" pos="36" len="12" vol="197" pan="0"/>
          <note key="55" pos="48" len="12" vol="197" pan="0"/>
          <note key="60" pos="60" len="12" vol="197" pan="0"/>
          <note key="51" pos="72" len="12" vol="197" pan="0"/>
          <note key="55" pos="84" len="12" vol="197" pan="0"/>
          <note key="48" pos="96" len="12" vol="197" pan="0"/>
          <note key="55" pos="108" len="12" vol="197" pan="0"/>
          <note key="51" pos="120" len="12" vol="197" pan="0"/>
          <note key="55" pos="132" len="12" vol="197" pan="0"/>
          <note key="60" pos="144" len="12" vol="197" pan="0"/>
          <note key="67" pos="156" len="12" vol="197" pan="0"/>
          <note key="65" pos="168" len="12" vol="197" pan="0"/>
          <note key="63" pos="180" len="12" vol="197" pan="0"/>
          <note key="67" pos="192" len="12" vol="197" pan="0"/>
          <note key="63" pos="204" len="12" vol="197" pan="0"/>
          <note key="60" pos="216" len="12" vol="197" pan="0"/>
          <note key="63" pos="228" len="12" vol="197" pan="0"/>
          <note key="55" pos="240" len="12" vol="197" pan="0"/>
          <note key="60" pos="252" len="12" vol="197" pan="0"/>
          <note key="51" pos="264" len="12" vol="197" pan="0"/>
          <note key="55" pos="276" len="12" vol="197" pan="0"/>
          <note key="48" pos="288" len="12" vol="197" pan="0"/>
          <note key="55" pos="300" len="12" vol="197" pan="0"/>
          <note key="51" pos="312" len="12" vol="197" pan="0"/>
          <note key="55" pos="324" len="12" vol="197" pan="0"/>
          <note key="60" pos="336" len="12" vol="197" pan="0"/>
          <note key="67" pos="348" len="12" vol="197" pan="0"/>
          <note key="65" pos="360" len="12" vol="197" pan="0"/>
          <note key="63" pos="372" len="12" vol="197" pan="0"/>
          <note key="66" pos="384" len="12" vol="197" pan="0"/>
          <note key="61" pos="396" len="12" vol="197" pan="0"/>
          <note key="60" pos="408" len="12" vol="197" pan="0"/>
          <note key="61" pos="420" len="12" vol="197" pan="0"/>
          <note key="58" pos="432" len="12" vol="197" pan="0"/>
          <note key="61" pos="444" len="12" vol="197" pan="0"/>
          <note key="54" pos="456" len="12" vol="197" pan="0"/>
          <note key="61" pos="468" len="12" vol="197" pan="0"/>
          <note key="49" pos="480" len="12" vol="197" pan="0"/>
          <note key="61" pos="492" len="12" vol="197" pan="0"/>
          <note key="60" pos="504" len="12" vol="197" pan="0"/>
          <note key="58" pos="516" len="12" vol="197" pan="0"/>
          <note key="54" pos="528" len="12" vol="197" pan="0"/>
          <note key="58" pos="540" len="12" vol="197" pan="0"/>
          <note key="60" pos="552" len="12" vol="197" pan="0"/>
          <note key="65" pos="564" len="12" vol="197" pan="0"/>
          <note key="66" pos="576" len="12" vol="197" pan="0"/>
          <note key="61" pos="588" len="12" vol="197" pan="0"/>
          <note key="60" pos="600" len="12" vol="197" pan="0"/>
          <note key="61" pos="612" len="12" vol="197" pan="0"/>
          <note key="58" pos="624" len="12" vol="197" pan="0"/>
          <note key="61" pos="636" len="12" vol="197" pan="0"/>
          <note key="49" pos="648" len="12" vol="197" pan="0"/>
          <note key="61" pos="660" len="12" vol="197" pan="0"/>
          <note key="54" pos="672" len="12" vol="197" pan="0"/>
          <note key="61" pos="684" len="12" vol="197" pan="0"/>
          <note key="60" pos="696" len="12" vol="197" pan="0"/>
          <note key="61" pos="708" len="12" vol="197" pan="0"/>
          <note key="66" pos="720" len="12" vol="197" pan="0"/>
          <note key="70" pos="732" len="12" vol="197" pan="0"/>
          <note key="72" pos="744" len="12" vol="197" pan="0"/>
          <note key="73" pos="756" len="12" vol="197" pan="0"/>
          <note key="67" pos="768" len="12" vol="197" pan="0"/>
          <note key="63" pos="780" len="12" vol="197" pan="0"/>
          <note key="60" pos="792" len="12" vol="197" pan="0"/>
          <note key="63" pos="804" len="12" vol="197" pan="0"/>
          <note key="55" pos="816" len="12" vol="197" pan="0"/>
          <note key="60" pos="828" len="12" vol="197" pan="0"/>
          <note key="51" pos="840" len="12" vol="197" pan="0"/>
          <note key="55" pos="852" len="12" vol="197" pan="0"/>
          <note key="48" pos="864" len="12" vol="197" pan="0"/>
          <note key="55" pos="876" len="12" vol="197" pan="0"/>
          <note key="51" pos="888" len="12" vol="197" pan="0"/>
          <note key="55" pos="900" len="12" vol="197" pan="0"/>
          <note key="60" pos="912" len="12" vol="197" pan="0"/>
          <note key="67" pos="924" len="12" vol="197" pan="0"/>
          <note key="65" pos="936" len="12" vol="197" pan="0"/>
          <note key="63" pos="948" len="12" vol="197" pan="0"/>
          <note key="67" pos="960" len="12" vol="197" pan="0"/>
          <note key="63" pos="972" len="12" vol="197" pan="0"/>
          <note key="60" pos="984" len="12" vol="197" pan="0"/>
          <note key="63" pos="996" len="12" vol="197" pan="0"/>
          <note key="55" pos="1008" len="12" vol="197" pan="0"/>
          <note key="60" pos="1020" len="12" vol="197" pan="0"/>
          <note key="51" pos="1032" len="12" vol="197" pan="0"/>
          <note key="55" pos="1044" len="12" vol="197" pan="0"/>
          <note key="48" pos="1056" len="12" vol="197" pan="0"/>
          <note key="55" pos="1068" len="12" vol="197" pan="0"/>
          <note key="51" pos="1080" len="12" vol="197" pan="0"/>
          <note key="55" pos="1092" len="12" vol="197" pan="0"/>
          <note key="60" pos="1104" len="12" vol="197" pan="0"/>
          <note key="67" pos="1116" len="12" vol="197" pan="0"/>
          <note key="65" pos="1128" len="12" vol="197" pan="0"/>
          <note key="63" pos="1140" len="12" vol="197" pan="0"/>
        </pattern>
        <pattern steps="16" muted="0" type="1" pos="1536" name="Blanchet-1720">
          <note key="48" pos="0" len="12" vol="157" pan="0"/>
          <note key="43" pos="12" len="12" vol="151" pan="0"/>
          <note key="48" pos="24" len="12" vol="151" pan="0"/>
          <note key="51" pos="36" len="12" vol="151" pan="0"/>
          <note key="50" pos="48" len="12" vol="163" pan="0"/>
          <note key="43" pos="60" len="12" vol="151" pan="0"/>
          <note key="50" pos="72" len="12" vol="151" pan="0"/>
          <note key="53" pos="84" len="12" vol="157" pan="0"/>
          <note key="51" pos="96" len="12" vol="170" pan="0"/>
          <note key="43" pos="108" len="12" vol="151" pan="0"/>
          <note key="51" pos="120" len="12" vol="151" pan="0"/>
          <note key="55" pos="132" len="12" vol="163" pan="0"/>
          <note key="53" pos="144" len="12" vol="176" pan="0"/>
          <note key="50" pos="156" len="12" vol="151" pan="0"/>
          <note key="51" pos="168" len="12" vol="151" pan="0"/>
          <note key="48" pos="180" len="12" vol="151" pan="0"/>
          <note key="47" pos="192" len="12" vol="151" pan="0"/>
          <note key="43" pos="204" len="12" vol="151" pan="0"/>
          <note key="47" pos="216" len="12" vol="151" pan="0"/>
          <note key="50" pos="228" len="12" vol="151" pan="0"/>
          <note key="53" pos="240" len="12" vol="157" pan="0"/>
          <note key="50" pos="252" len="12" vol="157" pan="0"/>
          <note key="53" pos="264" len="12" vol="163" pan="0"/>
          <note key="55" pos="276" len="12" vol="170" pan="0"/>
          <note key="59" pos="288" len="24" vol="176" pan="0"/>
        </pattern>
        <pattern steps="16" muted="0" type="1" pos="4608" name="Blanchet-1720">
          <note key="67" pos="0" len="12" vol="170" pan="0"/>
          <note key="68" pos="12" len="12" vol="163" pan="0"/>
          <note key="67" pos="24" len="12" vol="163" pan="0"/>
          <note key="65" pos="36" len="12" vol="163" pan="0"/>
          <note key="63" pos="48" len="12" vol="170" pan="0"/>
          <note key="65" pos="60" len="12" vol="157" pan="0"/>
          <note key="63" pos="72" len="12" vol="151" pan="0"/>
          <note key="62" pos="84" len="12" vol="151" pan="0"/>
          <note key="58" pos="96" len="12" vol="151" pan="0"/>
          <note key="63" pos="108" len="12" vol="157" pan="0"/>
          <note key="67" pos="120" len="12" vol="157" pan="0"/>
          <note key="70" pos="132" len="12" vol="163" pan="0"/>
          <note key="67" pos="144" len="12" vol="157" pan="0"/>
          <note key="63" pos="156" len="12" vol="151" pan="0"/>
          <note key="62" pos="168" len="12" vol="144" pan="0"/>
          <note key="63" pos="180" len="12" vol="144" pan="0"/>
          <note key="62" pos="192" len="12" vol="170" pan="0"/>
          <note key="65" pos="204" len="12" vol="157" pan="0"/>
          <note key="62" pos="216" len="12" vol="157" pan="0"/>
          <note key="59" pos="228" len="12" vol="157" pan="0"/>
          <note key="55" pos="240" len="12" vol="163" pan="0"/>
          <note key="59" pos="252" len="12" vol="151" pan="0"/>
          <note key="55" pos="264" len="12" vol="151" pan="0"/>
          <note key="50" pos="276" len="12" vol="151" pan="0"/>
          <note key="47" pos="288" len="12" vol="151" pan="0"/>
          <note key="50" pos="300" len="12" vol="151" pan="0"/>
          <note key="55" pos="312" len="12" vol="151" pan="0"/>
          <note key="59" pos="324" len="12" vol="144" pan="0"/>
          <note key="55" pos="336" len="12" vol="157" pan="0"/>
          <note key="62" pos="348" len="12" vol="157" pan="0"/>
          <note key="67" pos="360" len="12" vol="157" pan="0"/>
          <note key="71" pos="372" len="12" vol="157" pan="0"/>
        </pattern>
        <pattern steps="16" muted="0" type="1" pos="2304" name="">
          <note key="67" pos="0" len="12" vol="157" pan="0"/>
          <note key="0" pos="0" len="12" vol="157" pan="0"/>
          <note key="55" pos="12" len="12" vol="132" pan="0"/>
          <note key="1" pos="12" len="12" vol="157" pan="0"/>
          <note key="60" pos="24" len="12" vol="138" pan="0"/>
          <note key="63" pos="36" len="12" vol="157" pan="0"/>
          <note key="0" pos="36" len="12" vol="157" pan="0"/>
          <note key="55" pos="48" len="12" vol="138" pan="0"/>
          <note key="1" pos="48" len="12" vol="157" pan="0"/>
          <note key="60" pos="60" len="12" vol="138" pan="0"/>
          <note key="65" pos="72" len="12" vol="157" pan="0"/>
          <note key="0" pos="72" len="12" vol="157" pan="0"/>
          <note key="55" pos="84" len="12" vol="138" pan="0"/>
          <note key="1" pos="84" len="12" vol="157" pan="0"/>
          <note key="60" pos="96" len="12" vol="138" pan="0"/>
          <note key="62" pos="108" len="12" vol="157" pan="0"/>
          <note key="0" pos="108" len="12" vol="157" pan="0"/>
          <note key="55" pos="120" len="12" vol="138" pan="0"/>
          <note key="1" pos="120" len="12" vol="157" pan="0"/>
          <note key="60" pos="132" len="12" vol="138" pan="0"/>
          <note key="63" pos="144" len="12" vol="157" pan="0"/>
          <note key="0" pos="144" len="12" vol="157" pan="0"/>
          <note key="62" pos="156" len="12" vol="157" pan="0"/>
          <note key="1" pos="156" len="12" vol="157" pan="0"/>
          <note key="60" pos="168" len="12" vol="157" pan="0"/>
          <note key="55" pos="180" len="12" vol="157" pan="0"/>
          <note key="67" pos="192" len="12" vol="157" pan="0"/>
          <note key="0" pos="192" len="12" vol="157" pan="0"/>
          <note key="55" pos="204" len="12" vol="132" pan="0"/>
          <note key="1" pos="204" len="12" vol="157" pan="0"/>
          <note key="60" pos="216" len="12" vol="138" pan="0"/>
          <note key="63" pos="228" len="12" vol="157" pan="0"/>
          <note key="0" pos="228" len="12" vol="157" pan="0"/>
          <note key="55" pos="240" len="12" vol="138" pan="0"/>
          <note key="1" pos="240" len="12" vol="157" pan="0"/>
          <note key="60" pos="252" len="12" vol="138" pan="0"/>
          <note key="65" pos="264" len="12" vol="157" pan="0"/>
          <note key="0" pos="264" len="12" vol="157" pan="0"/>
          <note key="55" pos="276" len="12" vol="138" pan="0"/>
          <note key="1" pos="276" len="12" vol="157" pan="0"/>
          <note key="60" pos="288" len="12" vol="138" pan="0"/>
          <note key="62" pos="300" len="12" vol="157" pan="0"/>
          <note key="0" pos="300" len="12" vol="157" pan="0"/>
          <note key="55" pos="312" len="12" vol="138" pan="0"/>
          <note key="1" pos="312" len="12" vol="157" pan="0"/>
          <note key="60" pos="324" len="12" vol="138" pan="0"/>
          <note key="63" pos="336" len="12" vol="157" pan="0"/>
          <note key="0" pos="336" len="12" vol="157" pan="0"/>
          <note key="62" pos="348" len="12" vol="157" pan="0"/>
          <note key="63" pos="360" len="12" vol="157" pan="0"/>
          <note key="65" pos="372" len="12" vol="157" pan="0"/>
        </pattern>
        <pattern steps="16" muted="0" type="1" pos="3072" name="">
          <note key="60" pos="0" len="12" vol="170" pan="0"/>
          <note key="1" pos="0" len="12" vol="157" pan="0"/>
          <note key="48" pos="12" len="12" vol="151" pan="0"/>
          <note key="55" pos="24" len="12" vol="151" pan="0"/>
          <note key="62" pos="36" len="12" vol="170" pan="0"/>
          <note key="48" pos="48" len="12" vol="151" pan="0"/>
          <note key="55" pos="60" len="12" vol="151" pan="0"/>
          <note key="60" pos="72" len="12" vol="170" pan="0"/>
          <note key="48" pos="84" len="12" vol="151" pan="0"/>
          <note key="55" pos="96" len="12" vol="151" pan="0"/>
          <note key="63" pos="108" len="12" vol="170" pan="0"/>
          <note key="48" pos="120" len="12" vol="151" pan="0"/>
          <note key="55" pos="132" len="12" vol="151" pan="0"/>
          <note key="62" pos="144" len="12" vol="170" pan="0"/>
          <note key="63" pos="156" len="12" vol="170" pan="0"/>
          <note key="62" pos="168" len="12" vol="170" pan="0"/>
          <note key="58" pos="180" len="12" vol="170" pan="0"/>
          <note key="60" pos="192" len="12" vol="170" pan="0"/>
          <note key="48" pos="204" len="12" vol="151" pan="0"/>
          <note key="55" pos="216" len="12" vol="151" pan="0"/>
          <note key="58" pos="228" len="12" vol="170" pan="0"/>
          <note key="48" pos="240" len="12" vol="151" pan="0"/>
          <note key="53" pos="252" len="12" vol="151" pan="0"/>
          <note key="55" pos="264" len="12" vol="170" pan="0"/>
          <note key="51" pos="276" len="12" vol="151" pan="0"/>
          <note key="53" pos="288" len="12" vol="157" pan="0"/>
          <note key="51" pos="300" len="12" vol="157" pan="0"/>
          <note key="53" pos="312" len="12" vol="163" pan="0"/>
          <note key="55" pos="324" len="12" vol="163" pan="0"/>
          <note key="56" pos="336" len="12" vol="163" pan="0"/>
          <note key="55" pos="348" len="12" vol="163" pan="0"/>
          <note key="56" pos="360" len="12" vol="170" pan="0"/>
          <note key="58" pos="372" len="12" vol="170" pan="0"/>
        </pattern>
        <pattern steps="16" muted="0" type="1" pos="3840" name="">
          <note key="67" pos="0" len="12" vol="170" pan="0"/>
          <note key="1" pos="0" len="12" vol="151" pan="0"/>
          <note key="55" pos="12" len="12" vol="144" pan="0"/>
          <note key="60" pos="24" len="12" vol="151" pan="0"/>
          <note key="63" pos="36" len="12" vol="170" pan="0"/>
          <note key="55" pos="48" len="12" vol="151" pan="0"/>
          <note key="60" pos="60" len="12" vol="151" pan="0"/>
          <note key="65" pos="72" len="12" vol="170" pan="0"/>
          <note key="55" pos="84" len="12" vol="151" pan="0"/>
          <note key="60" pos="96" len="12" vol="151" pan="0"/>
          <note key="62" pos="108" len="12" vol="170" pan="0"/>
          <note key="55" pos="120" len="12" vol="151" pan="0"/>
          <note key="60" pos="132" len="12" vol="157" pan="0"/>
          <note key="63" pos="144" len="12" vol="170" pan="0"/>
          <note key="65" pos="156" len="12" vol="170" pan="0"/>
          <note key="67" pos="168" len="12" vol="170" pan="0"/>
          <note key="68" pos="180" len="12" vol="170" pan="0"/>
          <note key="70" pos="192" len="12" vol="170" pan="0"/>
          <note key="0" pos="192" len="48" vol="100" pan="0"/>
          <note key="55" pos="204" len="12" vol="144" pan="0"/>
          <note key="60" pos="216" len="12" vol="151" pan="0"/>
          <note key="67" pos="228" len="12" vol="170" pan="0"/>
          <note key="55" pos="240" len="12" vol="151" pan="0"/>
          <note key="1" pos="240" len="48" vol="100" pan="0"/>
          <note key="60" pos="252" len="12" vol="151" pan="0"/>
          <note key="68" pos="264" len="12" vol="170" pan="0"/>
          <note key="55" pos="276" len="12" vol="151" pan="0"/>
          <note key="60" pos="288" len="12" vol="151" pan="0"/>
          <note key="65" pos="300" len="12" vol="170" pan="0"/>
          <note key="55" pos="312" len="12" vol="151" pan="0"/>
          <note key="60" pos="324" len="12" vol="151" pan="0"/>
          <note key="67" pos="336" len="12" vol="170" pan="0"/>
          <note key="65" pos="348" len="12" vol="170" pan="0"/>
          <note key="63" pos="360" len="12" vol="170" pan="0"/>
          <note key="60" pos="372" len="12" vol="170" pan="0"/>
        </pattern>
        <pattern steps="16" muted="0" type="1" pos="23424" name="">
          <note key="67" pos="0" len="12" vol="170" pan="0"/>
          <note key="68" pos="12" len="12" vol="163" pan="0"/>
          <note key="67" pos="24" len="12" vol="163" pan="0"/>
          <note key="65" pos="36" len="12" vol="163" pan="0"/>
          <note key="63" pos="48" len="12" vol="170" pan="0"/>
          <note key="65" pos="60" len="12" vol="157" pan="0"/>
          <note key="63" pos="72" len="12" vol="151" pan="0"/>
          <note key="62" pos="84" len="12" vol="151" pan="0"/>
          <note key="58" pos="96" len="12" vol="151" pan="0"/>
          <note key="63" pos="108" len="12" vol="157" pan="0"/>
          <note key="67" pos="120" len="12" vol="157" pan="0"/>
          <note key="70" pos="132" len="12" vol="163" pan="0"/>
          <note key="67" pos="144" len="12" vol="157" pan="0"/>
          <note key="63" pos="156" len="12" vol="151" pan="0"/>
          <note key="62" pos="168" len="12" vol="144" pan="0"/>
          <note key="63" pos="180" len="12" vol="144" pan="0"/>
          <note key="62" pos="192" len="12" vol="170" pan="0"/>
          <note key="65" pos="204" len="12" vol="157" pan="0"/>
          <note key="62" pos="216" len="12" vol="157" pan="0"/>
          <note key="59" pos="228" len="12" vol="157" pan="0"/>
          <note key="55" pos="240" len="12" vol="163" pan="0"/>
          <note key="59" pos="252" len="12" vol="151" pan="0"/>
          <note key="55" pos="264" len="12" vol="151" pan="0"/>
          <note key="50" pos="276" len="12" vol="151" pan="0"/>
          <note key="47" pos="288" len="12" vol="151" pan="0"/>
          <note key="50" pos="300" len="12" vol="151" pan="0"/>
          <note key="55" pos="312" len="12" vol="151" pan="0"/>
          <note key="59" pos="324" len="12" vol="144" pan="0"/>
          <note key="55" pos="336" len="12" vol="157" pan="0"/>
          <note key="62" pos="348" len="12" vol="157" pan="0"/>
          <note key="67" pos="360" len="12" vol="157" pan="0"/>
          <note key="71" pos="372" len="12" vol="157" pan="0"/>
        </pattern>
        <pattern steps="16" muted="0" type="1" pos="22656" name="">
          <note key="67" pos="0" len="12" vol="170" pan="0"/>
          <note key="1" pos="0" len="12" vol="151" pan="0"/>
          <note key="55" pos="12" len="12" vol="144" pan="0"/>
          <note key="60" pos="24" len="12" vol="151" pan="0"/>
          <note key="63" pos="36" len="12" vol="170" pan="0"/>
          <note key="55" pos="48" len="12" vol="151" pan="0"/>
          <note key="60" pos="60" len="12" vol="151" pan="0"/>
          <note key="65" pos="72" len="12" vol="170" pan="0"/>
          <note key="55" pos="84" len="12" vol="151" pan="0"/>
          <note key="60" pos="96" len="12" vol="151" pan="0"/>
          <note key="62" pos="108" len="12" vol="170" pan="0"/>
          <note key="55" pos="120" len="12" vol="151" pan="0"/>
          <note key="60" pos="132" len="12" vol="157" pan="0"/>
          <note key="63" pos="144" len="12" vol="170" pan="0"/>
          <note key="65" pos="156" len="12" vol="170" pan="0"/>
          <note key="67" pos="168" len="12" vol="170" pan="0"/>
          <note key="68" pos="180" len="12" vol="170" pan="0"/>
          <note key="70" pos="192" len="12" vol="170" pan="0"/>
          <note key="0" pos="192" len="48" vol="100" pan="0"/>
          <note key="55" pos="204" len="12" vol="144" pan="0"/>
          <note key="60" pos="216" len="12" vol="151" pan="0"/>
          <note key="67" pos="228" len="12" vol="170" pan="0"/>
          <note key="55" pos="240" len="12" vol="151" pan="0"/>
          <note key="1" pos="240" len="48" vol="100" pan="0"/>
          <note key="60" pos="252" len="12" vol="151" pan="0"/>
          <note key="68" pos="264" len="12" vol="170" pan="0"/>
          <note key="55" pos="276" len="12" vol="151" pan="0"/>
          <note key="60" pos="288" len="12" vol="151" pan="0"/>
          <note key="65" pos="300" len="12" vol="170" pan="0"/>
          <note key="55" pos="312" len="12" vol="151" pan="0"/>
          <note key="60" pos="324" len="12" vol="151" pan="0"/>
          <note key="67" pos="336" len="12" vol="170" pan="0"/>
          <note key="65" pos="348" len="12" vol="170" pan="0"/>
          <note key="63" pos="360" len="12" vol="170" pan="0"/>
          <note key="60" pos="372" len="12" vol="170" pan="0"/>
        </pattern>
        <pattern steps="16" muted="0" type="1" pos="21888" name="">
          <note key="60" pos="0" len="12" vol="170" pan="0"/>
          <note key="1" pos="0" len="12" vol="157" pan="0"/>
          <note key="48" pos="12" len="12" vol="151" pan="0"/>
          <note key="55" pos="24" len="12" vol="151" pan="0"/>
          <note key="62" pos="36" len="12" vol="170" pan="0"/>
          <note key="48" pos="48" len="12" vol="151" pan="0"/>
          <note key="55" pos="60" len="12" vol="151" pan="0"/>
          <note key="60" pos="72" len="12" vol="170" pan="0"/>
          <note key="48" pos="84" len="12" vol="151" pan="0"/>
          <note key="55" pos="96" len="12" vol="151" pan="0"/>
          <note key="63" pos="108" len="12" vol="170" pan="0"/>
          <note key="48" pos="120" len="12" vol="151" pan="0"/>
          <note key="55" pos="132" len="12" vol="151" pan="0"/>
          <note key="62" pos="144" len="12" vol="170" pan="0"/>
          <note key="63" pos="156" len="12" vol="170" pan="0"/>
          <note key="62" pos="168" len="12" vol="170" pan="0"/>
          <note key="58" pos="180" len="12" vol="170" pan="0"/>
          <note key="60" pos="192" len="12" vol="170" pan="0"/>
          <note key="48" pos="204" len="12" vol="151" pan="0"/>
          <note key="55" pos="216" len="12" vol="151" pan="0"/>
          <note key="58" pos="228" len="12" vol="170" pan="0"/>
          <note key="48" pos="240" len="12" vol="151" pan="0"/>
          <note key="53" pos="252" len="12" vol="151" pan="0"/>
          <note key="55" pos="264" len="12" vol="170" pan="0"/>
          <note key="51" pos="276" len="12" vol="151" pan="0"/>
          <note key="53" pos="288" len="12" vol="157" pan="0"/>
          <note key="51" pos="300" len="12" vol="157" pan="0"/>
          <note key="53" pos="312" len="12" vol="163" pan="0"/>
          <note key="55" pos="324" len="12" vol="163" pan="0"/>
          <note key="56" pos="336" len="12" vol="163" pan="0"/>
          <note key="55" pos="348" len="12" vol="163" pan="0"/>
          <note key="56" pos="360" len="12" vol="170" pan="0"/>
          <note key="58" pos="372" len="12" vol="170" pan="0"/>
        </pattern>
        <pattern steps="16" muted="0" type="1" pos="21120" name="">
          <note key="67" pos="0" len="12" vol="157" pan="0"/>
          <note key="0" pos="0" len="12" vol="157" pan="0"/>
          <note key="55" pos="12" len="12" vol="132" pan="0"/>
          <note key="1" pos="12" len="12" vol="157" pan="0"/>
          <note key="60" pos="24" len="12" vol="138" pan="0"/>
          <note key="63" pos="36" len="12" vol="157" pan="0"/>
          <note key="0" pos="36" len="12" vol="157" pan="0"/>
          <note key="55" pos="48" len="12" vol="138" pan="0"/>
          <note key="1" pos="48" len="12" vol="157" pan="0"/>
          <note key="60" pos="60" len="12" vol="138" pan="0"/>
          <note key="65" pos="72" len="12" vol="157" pan="0"/>
          <note key="0" pos="72" len="12" vol="157" pan="0"/>
          <note key="55" pos="84" len="12" vol="138" pan="0"/>
          <note key="1" pos="84" len="12" vol="157" pan="0"/>
          <note key="60" pos="96" len="12" vol="138" pan="0"/>
          <note key="62" pos="108" len="12" vol="157" pan="0"/>
          <note key="0" pos="108" len="12" vol="157" pan="0"/>
          <note key="55" pos="120" len="12" vol="138" pan="0"/>
          <note key="1" pos="120" len="12" vol="157" pan="0"/>
          <note key="60" pos="132" len="12" vol="138" pan="0"/>
          <note key="63" pos="144" len="12" vol="157" pan="0"/>
          <note key="0" pos="144" len="12" vol="157" pan="0"/>
          <note key="62" pos="156" len="12" vol="157" pan="0"/>
          <note key="1" pos="156" len="12" vol="157" pan="0"/>
          <note key="60" pos="168" len="12" vol="157" pan="0"/>
          <note key="55" pos="180" len="12" vol="157" pan="0"/>
          <note key="67" pos="192" len="12" vol="157" pan="0"/>
          <note key="0" pos="192" len="12" vol="157" pan="0"/>
          <note key="55" pos="204" len="12" vol="132" pan="0"/>
          <note key="1" pos="204" len="12" vol="157" pan="0"/>
          <note key="60" pos="216" len="12" vol="138" pan="0"/>
          <note key="63" pos="228" len="12" vol="157" pan="0"/>
          <note key="0" pos="228" len="12" vol="157" pan="0"/>
          <note key="55" pos="240" len="12" vol="138" pan="0"/>
          <note key="1" pos="240" len="12" vol="157" pan="0"/>
          <note key="60" pos="252" len="12" vol="138" pan="0"/>
          <note key="65" pos="264" len="12" vol="157" pan="0"/>
          <note key="0" pos="264" len="12" vol="157" pan="0"/>
          <note key="55" pos="276" len="12" vol="138" pan="0"/>
          <note key="1" pos="276" len="12" vol="157" pan="0"/>
          <note key="60" pos="288" len="12" vol="138" pan="0"/>
          <note key="62" pos="300" len="12" vol="157" pan="0"/>
          <note key="0" pos="300" len="12" vol="157" pan="0"/>
          <note key="55" pos="312" len="12" vol="138" pan="0"/>
          <note key="1" pos="312" len="12" vol="157" pan="0"/>
          <note key="60" pos="324" len="12" vol="138" pan="0"/>
          <note key="63" pos="336" len="12" vol="157" pan="0"/>
          <note key="0" pos="336" len="12" vol="157" pan="0"/>
          <note key="62" pos="348" len="12" vol="157" pan="0"/>
          <note key="63" pos="360" len="12" vol="157" pan="0"/>
          <note key="65" pos="372" len="12" vol="157" pan="0"/>
        </pattern>
        <pattern steps="16" muted="0" type="1" pos="20160" name="Blanchet-1720">
          <note key="60" pos="96" len="12" vol="151" pan="0"/>
          <note key="58" pos="108" len="12" vol="151" pan="0"/>
          <note key="60" pos="120" len="12" vol="157" pan="0"/>
          <note key="62" pos="132" len="12" vol="157" pan="0"/>
          <note key="63" pos="144" len="12" vol="163" pan="0"/>
          <note key="62" pos="156" len="12" vol="163" pan="0"/>
          <note key="60" pos="168" len="12" vol="163" pan="0"/>
          <note key="62" pos="180" len="12" vol="163" pan="0"/>
          <note key="65" pos="192" len="12" vol="170" pan="0"/>
          <note key="62" pos="204" len="12" vol="170" pan="0"/>
          <note key="59" pos="216" len="12" vol="170" pan="0"/>
          <note key="62" pos="228" len="12" vol="170" pan="0"/>
          <note key="59" pos="240" len="12" vol="163" pan="0"/>
          <note key="56" pos="252" len="12" vol="163" pan="0"/>
          <note key="53" pos="264" len="12" vol="163" pan="0"/>
          <note key="56" pos="276" len="12" vol="163" pan="0"/>
          <note key="53" pos="288" len="12" vol="157" pan="0"/>
          <note key="50" pos="300" len="12" vol="157" pan="0"/>
          <note key="47" pos="312" len="12" vol="157" pan="0"/>
          <note key="50" pos="324" len="12" vol="157" pan="0"/>
          <note key="47" pos="336" len="12" vol="151" pan="0"/>
          <note key="44" pos="348" len="12" vol="151" pan="0"/>
          <note key="41" pos="360" len="12" vol="151" pan="0"/>
          <note key="44" pos="372" len="12" vol="151" pan="0"/>
          <note key="43" pos="384" len="12" vol="151" pan="0"/>
          <note key="45" pos="396" len="12" vol="151" pan="0"/>
          <note key="47" pos="408" len="12" vol="157" pan="0"/>
          <note key="50" pos="420" len="12" vol="157" pan="0"/>
          <note key="47" pos="432" len="12" vol="163" pan="0"/>
          <note key="50" pos="444" len="12" vol="163" pan="0"/>
          <note key="53" pos="456" len="12" vol="163" pan="0"/>
          <note key="56" pos="468" len="12" vol="170" pan="0"/>
          <note key="55" pos="480" len="24" vol="176" pan="0"/>
        </pattern>
      </track>
      <track solo="0" muted="0" type="0" name="piano">
        <instrumenttrack basenote="57" pitchrange="2" pitch="0" usemasterpitch="1" vol="97.6" pan="0.787402" fxch="18">
          <instrument name="sf2player">
            <sf2player reverbDamping="0" reverbWidth="0.5" reverbLevel="0.9" gain="1.7" chorusOn="0" reverbOn="0" bank="0" chorusNum="3" chorusSpeed="0.3" reverbRoomSize="0.2" src="/home/pass/samples/soundfonts/Orchestra Soundfont 2 COMBO.sf2" patch="0" chorusLevel="2" chorusDepth="8"/>
          </instrument>
          <eldata fwet="0" ftype="0" fcut="14000" fres="0.5">
            <elvol ctlenvamt="0" lamt="0" amt="0" latt="0" lspd_syncmode="0" dec="0.5" lpdel="0" att="0" lspd_denominator="4" hold="0.5" lspd="0.1" lspd_numerator="4" sustain="0.5" lshp="0" pdel="0" x100="0" rel="0.1" userwavefile=""/>
            <elcut ctlenvamt="0" lamt="0" amt="0" latt="0" lspd_syncmode="0" dec="0.5" lpdel="0" att="0" lspd_denominator="4" hold="0.5" lspd="0.1" lspd_numerator="4" sustain="0.5" lshp="0" pdel="0" x100="0" rel="0.1" userwavefile=""/>
            <elres ctlenvamt="0" lamt="0" amt="0" latt="0" lspd_syncmode="0" dec="0.5" lpdel="0" att="0" lspd_denominator="4" hold="0.5" lspd="0.1" lspd_numerator="4" sustain="0.5" lshp="0" pdel="0" x100="0" rel="0.1" userwavefile=""/>
          </eldata>
          <chordcreator chordrange="1" chord-enabled="0" chord="0"/>
          <arpeggiator arptime_syncmode="0" arpdir="0" arptime_numerator="4" arpmode="0" arp="0" arpmiss="0" arptime="200" arpgate="100" arp-enabled="0" arpskip="0" arptime_denominator="4" arprange="1" arpcycle="0"/>
          <midiport writable="0" fixedinputvelocity="-1" outputchannel="1" fixedoutputvelocity="-1" outputcontroller="0" basevelocity="63" fixedoutputnote="-1" inputchannel="0" inputcontroller="0" outputprogram="1" readable="0"/>
          <fxchain numofeffects="0" enabled="0"/>
        </instrumenttrack>
        <pattern steps="16" muted="0" type="1" pos="4992" name="piano">
          <note key="72" pos="0" len="72" vol="170" pan="0"/>
          <note key="24" pos="0" len="72" vol="138" pan="0"/>
          <note key="60" pos="72" len="72" vol="157" pan="0"/>
          <note key="36" pos="72" len="24" vol="125" pan="0"/>
          <note key="38" pos="96" len="24" vol="125" pan="0"/>
          <note key="39" pos="120" len="24" vol="132" pan="0"/>
          <note key="63" pos="144" len="72" vol="163" pan="0"/>
          <note key="43" pos="144" len="72" vol="138" pan="0"/>
          <note key="67" pos="216" len="72" vol="170" pan="0"/>
          <note key="50" pos="216" len="72" vol="138" pan="0"/>
          <note key="44" pos="216" len="72" vol="138" pan="0"/>
          <note key="72" pos="288" len="24" vol="157" pan="0"/>
          <note key="46" pos="288" len="96" vol="138" pan="0"/>
          <note key="39" pos="288" len="96" vol="138" pan="0"/>
          <note key="67" pos="312" len="24" vol="157" pan="0"/>
          <note key="72" pos="336" len="24" vol="157" pan="0"/>
          <note key="74" pos="360" len="24" vol="163" pan="0"/>
          <note key="75" pos="384" len="24" vol="170" pan="0"/>
          <note key="74" pos="408" len="24" vol="163" pan="0"/>
          <note key="27" pos="408" len="24" vol="144" pan="0"/>
          <note key="70" pos="432" len="24" vol="157" pan="0"/>
          <note key="32" pos="432" len="24" vol="138" pan="0"/>
          <note key="65" pos="456" len="24" vol="157" pan="0"/>
          <note key="36" pos="456" len="24" vol="151" pan="0"/>
          <note key="63" pos="480" len="24" vol="157" pan="0"/>
          <note key="39" pos="480" len="24" vol="151" pan="0"/>
          <note key="62" pos="504" len="24" vol="157" pan="0"/>
          <note key="43" pos="504" len="24" vol="151" pan="0"/>
          <note key="58" pos="528" len="24" vol="151" pan="0"/>
          <note key="44" pos="528" len="48" vol="138" pan="0"/>
          <note key="53" pos="552" len="24" vol="151" pan="0"/>
          <note key="22" pos="576" len="23" vol="151" pan="0"/>
          <note key="58" pos="600" len="23" vol="163" pan="0"/>
          <note key="29" pos="600" len="23" vol="151" pan="0"/>
          <note key="67" pos="624" len="23" vol="163" pan="0"/>
          <note key="34" pos="624" len="47" vol="151" pan="0"/>
          <note key="63" pos="648" len="23" vol="163" pan="0"/>
          <note key="60" pos="672" len="23" vol="163" pan="0"/>
          <note key="38" pos="672" len="23" vol="151" pan="0"/>
          <note key="62" pos="696" len="23" vol="170" pan="0"/>
          <note key="41" pos="696" len="23" vol="151" pan="0"/>
          <note key="70" pos="720" len="12" vol="163" pan="0"/>
          <note key="46" pos="720" len="47" vol="151" pan="0"/>
          <note key="72" pos="732" len="11" vol="163" pan="0"/>
          <note key="70" pos="744" len="23" vol="170" pan="0"/>
          <note key="63" pos="768" len="24" vol="170" pan="0"/>
          <note key="39" pos="768" len="72" vol="157" pan="0"/>
          <note key="55" pos="792" len="24" vol="144" pan="0"/>
          <note key="60" pos="816" len="24" vol="157" pan="0"/>
          <note key="62" pos="840" len="24" vol="163" pan="0"/>
          <note key="38" pos="840" len="72" vol="151" pan="0"/>
          <note key="55" pos="864" len="24" vol="163" pan="0"/>
          <note key="60" pos="888" len="24" vol="163" pan="0"/>
          <note key="63" pos="912" len="24" vol="176" pan="0"/>
          <note key="34" pos="912" len="72" vol="151" pan="0"/>
          <note key="55" pos="936" len="24" vol="163" pan="0"/>
          <note key="60" pos="960" len="24" vol="163" pan="0"/>
          <note key="67" pos="984" len="24" vol="176" pan="0"/>
          <note key="39" pos="984" len="72" vol="157" pan="0"/>
          <note key="60" pos="1008" len="24" vol="163" pan="0"/>
          <note key="63" pos="1032" len="24" vol="163" pan="0"/>
          <note key="72" pos="1056" len="24" vol="176" pan="0"/>
          <note key="38" pos="1056" len="48" vol="157" pan="0"/>
          <note key="67" pos="1080" len="24" vol="176" pan="0"/>
          <note key="72" pos="1104" len="24" vol="176" pan="0"/>
          <note key="34" pos="1104" len="48" vol="157" pan="0"/>
          <note key="74" pos="1128" len="24" vol="176" pan="0"/>
          <note key="75" pos="1152" len="24" vol="181" pan="0"/>
          <note key="67" pos="1176" len="24" vol="163" pan="0"/>
          <note key="27" pos="1176" len="23" vol="132" pan="0"/>
          <note key="72" pos="1200" len="24" vol="170" pan="0"/>
          <note key="32" pos="1200" len="23" vol="132" pan="0"/>
          <note key="79" pos="1224" len="48" vol="181" pan="0"/>
          <note key="67" pos="1224" len="48" vol="170" pan="0"/>
          <note key="34" pos="1224" len="47" vol="138" pan="0"/>
          <note key="77" pos="1272" len="48" vol="181" pan="0"/>
          <note key="65" pos="1272" len="48" vol="170" pan="0"/>
          <note key="39" pos="1272" len="23" vol="144" pan="0"/>
          <note key="43" pos="1296" len="23" vol="151" pan="0"/>
          <note key="74" pos="1320" len="48" vol="181" pan="0"/>
          <note key="62" pos="1320" len="48" vol="163" pan="0"/>
          <note key="44" pos="1320" len="23" vol="144" pan="0"/>
          <note key="22" pos="1344" len="23" vol="144" pan="0"/>
          <note key="65" pos="1368" len="24" vol="163" pan="0"/>
          <note key="43" pos="1368" len="23" vol="138" pan="0"/>
          <note key="72" pos="1392" len="24" vol="163" pan="0"/>
          <note key="44" pos="1392" len="23" vol="138" pan="0"/>
          <note key="74" pos="1416" len="24" vol="163" pan="0"/>
          <note key="46" pos="1416" len="23" vol="138" pan="0"/>
          <note key="75" pos="1440" len="48" vol="163" pan="0"/>
          <note key="58" pos="1440" len="47" vol="157" pan="0"/>
          <note key="74" pos="1488" len="48" vol="157" pan="0"/>
          <note key="56" pos="1488" len="23" vol="144" pan="0"/>
          <note key="55" pos="1512" len="23" vol="138" pan="0"/>
        </pattern>
        <pattern steps="16" muted="0" type="1" pos="14208" name="piano">
          <note key="63" pos="0" len="24" vol="157" pan="0"/>
          <note key="36" pos="0" len="48" vol="125" pan="0"/>
          <note key="55" pos="24" len="24" vol="138" pan="0"/>
          <note key="60" pos="48" len="24" vol="144" pan="0"/>
          <note key="36" pos="48" len="48" vol="125" pan="0"/>
          <note key="62" pos="72" len="24" vol="151" pan="0"/>
          <note key="63" pos="96" len="24" vol="157" pan="0"/>
          <note key="36" pos="96" len="48" vol="125" pan="0"/>
          <note key="55" pos="120" len="24" vol="138" pan="0"/>
          <note key="60" pos="144" len="24" vol="144" pan="0"/>
          <note key="36" pos="144" len="48" vol="125" pan="0"/>
          <note key="63" pos="168" len="24" vol="151" pan="0"/>
          <note key="62" pos="192" len="24" vol="157" pan="0"/>
          <note key="34" pos="192" len="48" vol="125" pan="0"/>
          <note key="53" pos="216" len="24" vol="144" pan="0"/>
          <note key="58" pos="240" len="24" vol="144" pan="0"/>
          <note key="34" pos="240" len="48" vol="125" pan="0"/>
          <note key="60" pos="264" len="48" vol="157" pan="0"/>
          <note key="32" pos="288" len="48" vol="125" pan="0"/>
          <note key="51" pos="312" len="24" vol="138" pan="0"/>
          <note key="58" pos="336" len="24" vol="144" pan="0"/>
          <note key="32" pos="336" len="48" vol="125" pan="0"/>
          <note key="56" pos="360" len="24" vol="138" pan="0"/>
          <note key="58" pos="384" len="24" vol="144" pan="0"/>
          <note key="39" pos="384" len="48" vol="125" pan="0"/>
          <note key="46" pos="408" len="24" vol="132" pan="0"/>
          <note key="51" pos="432" len="24" vol="151" pan="0"/>
          <note key="39" pos="432" len="48" vol="125" pan="0"/>
          <note key="46" pos="456" len="24" vol="132" pan="0"/>
          <note key="51" pos="480" len="24" vol="151" pan="0"/>
          <note key="39" pos="480" len="48" vol="125" pan="0"/>
          <note key="53" pos="504" len="24" vol="151" pan="0"/>
          <note key="55" pos="528" len="24" vol="151" pan="0"/>
          <note key="39" pos="528" len="48" vol="125" pan="0"/>
          <note key="58" pos="552" len="24" vol="157" pan="0"/>
          <note key="56" pos="576" len="24" vol="151" pan="0"/>
          <note key="32" pos="576" len="48" vol="125" pan="0"/>
          <note key="48" pos="600" len="24" vol="138" pan="0"/>
          <note key="53" pos="624" len="24" vol="151" pan="0"/>
          <note key="32" pos="624" len="48" vol="125" pan="0"/>
          <note key="55" pos="648" len="48" vol="157" pan="0"/>
          <note key="31" pos="672" len="48" vol="125" pan="0"/>
          <note key="48" pos="696" len="24" vol="138" pan="0"/>
          <note key="50" pos="720" len="24" vol="144" pan="0"/>
          <note key="31" pos="720" len="48" vol="125" pan="0"/>
          <note key="51" pos="744" len="24" vol="144" pan="0"/>
          <note key="63" pos="768" len="24" vol="157" pan="0"/>
          <note key="36" pos="768" len="24" vol="132" pan="0"/>
          <note key="55" pos="792" len="24" vol="138" pan="0"/>
          <note key="36" pos="792" len="24" vol="119" pan="0"/>
          <note key="60" pos="816" len="24" vol="144" pan="0"/>
          <note key="36" pos="816" len="24" vol="132" pan="0"/>
          <note key="62" pos="840" len="24" vol="151" pan="0"/>
          <note key="36" pos="840" len="24" vol="119" pan="0"/>
          <note key="63" pos="864" len="24" vol="157" pan="0"/>
          <note key="36" pos="864" len="24" vol="132" pan="0"/>
          <note key="55" pos="888" len="24" vol="138" pan="0"/>
          <note key="36" pos="888" len="24" vol="119" pan="0"/>
          <note key="60" pos="912" len="24" vol="144" pan="0"/>
          <note key="36" pos="912" len="24" vol="132" pan="0"/>
          <note key="63" pos="936" len="24" vol="151" pan="0"/>
          <note key="36" pos="936" len="24" vol="119" pan="0"/>
          <note key="62" pos="960" len="24" vol="157" pan="0"/>
          <note key="38" pos="960" len="24" vol="138" pan="0"/>
          <note key="53" pos="984" len="24" vol="144" pan="0"/>
          <note key="38" pos="984" len="24" vol="138" pan="0"/>
          <note key="67" pos="1008" len="24" vol="157" pan="0"/>
          <note key="38" pos="1008" len="24" vol="138" pan="0"/>
          <note key="60" pos="1032" len="48" vol="157" pan="0"/>
          <note key="39" pos="1032" len="24" vol="144" pan="0"/>
          <note key="39" pos="1056" len="24" vol="144" pan="0"/>
          <note key="51" pos="1080" len="24" vol="138" pan="0"/>
          <note key="39" pos="1080" len="24" vol="144" pan="0"/>
          <note key="58" pos="1104" len="24" vol="144" pan="0"/>
          <note key="39" pos="1104" len="24" vol="144" pan="0"/>
          <note key="56" pos="1128" len="24" vol="138" pan="0"/>
          <note key="39" pos="1128" len="24" vol="144" pan="0"/>
          <note key="58" pos="1152" len="24" vol="144" pan="0"/>
          <note key="31" pos="1152" len="24" vol="132" pan="0"/>
          <note key="46" pos="1176" len="24" vol="132" pan="0"/>
          <note key="31" pos="1176" len="24" vol="119" pan="0"/>
          <note key="51" pos="1200" len="24" vol="151" pan="0"/>
          <note key="31" pos="1200" len="24" vol="132" pan="0"/>
          <note key="46" pos="1224" len="24" vol="132" pan="0"/>
          <note key="31" pos="1224" len="24" vol="119" pan="0"/>
          <note key="51" pos="1248" len="24" vol="151" pan="0"/>
          <note key="31" pos="1248" len="24" vol="132" pan="0"/>
          <note key="53" pos="1272" len="24" vol="151" pan="0"/>
          <note key="31" pos="1272" len="24" vol="119" pan="0"/>
          <note key="55" pos="1296" len="24" vol="151" pan="0"/>
          <note key="31" pos="1296" len="24" vol="132" pan="0"/>
          <note key="58" pos="1320" len="24" vol="157" pan="0"/>
          <note key="31" pos="1320" len="24" vol="119" pan="0"/>
          <note key="56" pos="1344" len="24" vol="151" pan="0"/>
          <note key="29" pos="1344" len="24" vol="132" pan="0"/>
          <note key="48" pos="1368" len="24" vol="138" pan="0"/>
          <note key="29" pos="1368" len="24" vol="119" pan="0"/>
          <note key="53" pos="1392" len="24" vol="151" pan="0"/>
          <note key="29" pos="1392" len="24" vol="132" pan="0"/>
          <note key="60" pos="1416" len="48" vol="157" pan="0"/>
          <note key="27" pos="1416" len="24" vol="119" pan="0"/>
          <note key="27" pos="1440" len="24" vol="132" pan="0"/>
          <note key="63" pos="1464" len="24" vol="151" pan="0"/>
          <note key="27" pos="1464" len="24" vol="138" pan="0"/>
          <note key="62" pos="1488" len="24" vol="151" pan="0"/>
          <note key="27" pos="1488" len="24" vol="144" pan="0"/>
          <note key="60" pos="1512" len="24" vol="151" pan="0"/>
          <note key="27" pos="1512" len="24" vol="144" pan="0"/>
        </pattern>
        <pattern steps="16" muted="0" type="1" pos="15744" name="">
          <note key="63" pos="0" len="24" vol="157" pan="0"/>
          <note key="36" pos="0" len="48" vol="125" pan="0"/>
          <note key="55" pos="24" len="24" vol="138" pan="0"/>
          <note key="60" pos="48" len="24" vol="144" pan="0"/>
          <note key="36" pos="48" len="48" vol="125" pan="0"/>
          <note key="62" pos="72" len="24" vol="151" pan="0"/>
          <note key="63" pos="96" len="24" vol="157" pan="0"/>
          <note key="36" pos="96" len="48" vol="125" pan="0"/>
          <note key="55" pos="120" len="24" vol="138" pan="0"/>
          <note key="60" pos="144" len="24" vol="144" pan="0"/>
          <note key="36" pos="144" len="48" vol="125" pan="0"/>
          <note key="63" pos="168" len="24" vol="151" pan="0"/>
          <note key="62" pos="192" len="24" vol="157" pan="0"/>
          <note key="34" pos="192" len="48" vol="125" pan="0"/>
          <note key="53" pos="216" len="24" vol="144" pan="0"/>
          <note key="58" pos="240" len="24" vol="144" pan="0"/>
          <note key="34" pos="240" len="48" vol="125" pan="0"/>
          <note key="60" pos="264" len="48" vol="157" pan="0"/>
          <note key="32" pos="288" len="48" vol="125" pan="0"/>
          <note key="51" pos="312" len="24" vol="138" pan="0"/>
          <note key="58" pos="336" len="24" vol="144" pan="0"/>
          <note key="32" pos="336" len="48" vol="125" pan="0"/>
          <note key="56" pos="360" len="24" vol="138" pan="0"/>
          <note key="58" pos="384" len="24" vol="144" pan="0"/>
          <note key="39" pos="384" len="48" vol="125" pan="0"/>
          <note key="46" pos="408" len="24" vol="132" pan="0"/>
          <note key="51" pos="432" len="24" vol="151" pan="0"/>
          <note key="39" pos="432" len="48" vol="125" pan="0"/>
          <note key="46" pos="456" len="24" vol="132" pan="0"/>
          <note key="51" pos="480" len="24" vol="151" pan="0"/>
          <note key="39" pos="480" len="48" vol="125" pan="0"/>
          <note key="53" pos="504" len="24" vol="151" pan="0"/>
          <note key="55" pos="528" len="24" vol="151" pan="0"/>
          <note key="39" pos="528" len="48" vol="125" pan="0"/>
          <note key="58" pos="552" len="24" vol="157" pan="0"/>
          <note key="56" pos="576" len="24" vol="151" pan="0"/>
          <note key="32" pos="576" len="48" vol="125" pan="0"/>
          <note key="48" pos="600" len="24" vol="138" pan="0"/>
          <note key="53" pos="624" len="24" vol="151" pan="0"/>
          <note key="32" pos="624" len="48" vol="125" pan="0"/>
          <note key="55" pos="648" len="48" vol="157" pan="0"/>
          <note key="31" pos="672" len="48" vol="125" pan="0"/>
          <note key="48" pos="696" len="24" vol="138" pan="0"/>
          <note key="50" pos="720" len="24" vol="144" pan="0"/>
          <note key="31" pos="720" len="48" vol="125" pan="0"/>
          <note key="51" pos="744" len="24" vol="144" pan="0"/>
          <note key="63" pos="768" len="24" vol="157" pan="0"/>
          <note key="36" pos="768" len="24" vol="132" pan="0"/>
          <note key="55" pos="792" len="24" vol="138" pan="0"/>
          <note key="36" pos="792" len="24" vol="119" pan="0"/>
          <note key="60" pos="816" len="24" vol="144" pan="0"/>
          <note key="36" pos="816" len="24" vol="132" pan="0"/>
          <note key="62" pos="840" len="24" vol="151" pan="0"/>
          <note key="36" pos="840" len="24" vol="119" pan="0"/>
          <note key="63" pos="864" len="24" vol="157" pan="0"/>
          <note key="36" pos="864" len="24" vol="132" pan="0"/>
          <note key="55" pos="888" len="24" vol="138" pan="0"/>
          <note key="36" pos="888" len="24" vol="119" pan="0"/>
          <note key="60" pos="912" len="24" vol="144" pan="0"/>
          <note key="36" pos="912" len="24" vol="132" pan="0"/>
          <note key="63" pos="936" len="24" vol="151" pan="0"/>
          <note key="36" pos="936" len="24" vol="119" pan="0"/>
          <note key="62" pos="960" len="24" vol="157" pan="0"/>
          <note key="38" pos="960" len="24" vol="138" pan="0"/>
          <note key="53" pos="984" len="24" vol="144" pan="0"/>
          <note key="38" pos="984" len="24" vol="138" pan="0"/>
          <note key="67" pos="1008" len="24" vol="157" pan="0"/>
          <note key="38" pos="1008" len="24" vol="138" pan="0"/>
          <note key="60" pos="1032" len="48" vol="157" pan="0"/>
          <note key="39" pos="1032" len="24" vol="144" pan="0"/>
          <note key="39" pos="1056" len="24" vol="144" pan="0"/>
          <note key="51" pos="1080" len="24" vol="138" pan="0"/>
          <note key="39" pos="1080" len="24" vol="144" pan="0"/>
          <note key="58" pos="1104" len="24" vol="144" pan="0"/>
          <note key="39" pos="1104" len="24" vol="144" pan="0"/>
          <note key="56" pos="1128" len="24" vol="138" pan="0"/>
          <note key="39" pos="1128" len="24" vol="144" pan="0"/>
          <note key="58" pos="1152" len="24" vol="144" pan="0"/>
          <note key="31" pos="1152" len="24" vol="132" pan="0"/>
          <note key="46" pos="1176" len="24" vol="132" pan="0"/>
          <note key="31" pos="1176" len="24" vol="119" pan="0"/>
          <note key="51" pos="1200" len="24" vol="151" pan="0"/>
          <note key="31" pos="1200" len="24" vol="132" pan="0"/>
          <note key="46" pos="1224" len="24" vol="132" pan="0"/>
          <note key="31" pos="1224" len="24" vol="119" pan="0"/>
          <note key="51" pos="1248" len="24" vol="151" pan="0"/>
          <note key="31" pos="1248" len="24" vol="132" pan="0"/>
          <note key="53" pos="1272" len="24" vol="151" pan="0"/>
          <note key="31" pos="1272" len="24" vol="119" pan="0"/>
          <note key="55" pos="1296" len="24" vol="151" pan="0"/>
          <note key="31" pos="1296" len="24" vol="132" pan="0"/>
          <note key="58" pos="1320" len="24" vol="157" pan="0"/>
          <note key="31" pos="1320" len="24" vol="119" pan="0"/>
          <note key="56" pos="1344" len="24" vol="151" pan="0"/>
          <note key="29" pos="1344" len="24" vol="132" pan="0"/>
          <note key="48" pos="1368" len="24" vol="138" pan="0"/>
          <note key="29" pos="1368" len="24" vol="119" pan="0"/>
          <note key="53" pos="1392" len="24" vol="151" pan="0"/>
          <note key="29" pos="1392" len="24" vol="132" pan="0"/>
          <note key="60" pos="1416" len="48" vol="157" pan="0"/>
          <note key="27" pos="1416" len="24" vol="119" pan="0"/>
          <note key="27" pos="1440" len="24" vol="132" pan="0"/>
          <note key="63" pos="1464" len="24" vol="151" pan="0"/>
          <note key="27" pos="1464" len="24" vol="138" pan="0"/>
          <note key="62" pos="1488" len="24" vol="151" pan="0"/>
          <note key="27" pos="1488" len="24" vol="144" pan="0"/>
          <note key="60" pos="1512" len="24" vol="151" pan="0"/>
          <note key="27" pos="1512" len="24" vol="144" pan="0"/>
        </pattern>
        <pattern steps="16" muted="0" type="1" pos="23808" name="">
          <note key="72" pos="0" len="72" vol="170" pan="0"/>
          <note key="24" pos="0" len="72" vol="138" pan="0"/>
          <note key="60" pos="72" len="72" vol="157" pan="0"/>
          <note key="36" pos="72" len="24" vol="125" pan="0"/>
          <note key="38" pos="96" len="24" vol="125" pan="0"/>
          <note key="39" pos="120" len="24" vol="132" pan="0"/>
          <note key="63" pos="144" len="72" vol="163" pan="0"/>
          <note key="43" pos="144" len="72" vol="138" pan="0"/>
          <note key="67" pos="216" len="72" vol="170" pan="0"/>
          <note key="50" pos="216" len="72" vol="138" pan="0"/>
          <note key="44" pos="216" len="72" vol="138" pan="0"/>
          <note key="72" pos="288" len="24" vol="157" pan="0"/>
          <note key="46" pos="288" len="96" vol="138" pan="0"/>
          <note key="39" pos="288" len="96" vol="138" pan="0"/>
          <note key="67" pos="312" len="24" vol="157" pan="0"/>
          <note key="72" pos="336" len="24" vol="157" pan="0"/>
          <note key="74" pos="360" len="24" vol="163" pan="0"/>
          <note key="75" pos="384" len="24" vol="170" pan="0"/>
          <note key="74" pos="408" len="24" vol="163" pan="0"/>
          <note key="27" pos="408" len="24" vol="144" pan="0"/>
          <note key="70" pos="432" len="24" vol="157" pan="0"/>
          <note key="32" pos="432" len="24" vol="138" pan="0"/>
          <note key="65" pos="456" len="24" vol="157" pan="0"/>
          <note key="36" pos="456" len="24" vol="151" pan="0"/>
          <note key="63" pos="480" len="24" vol="157" pan="0"/>
          <note key="39" pos="480" len="24" vol="151" pan="0"/>
          <note key="62" pos="504" len="24" vol="157" pan="0"/>
          <note key="43" pos="504" len="24" vol="151" pan="0"/>
          <note key="58" pos="528" len="24" vol="151" pan="0"/>
          <note key="44" pos="528" len="48" vol="138" pan="0"/>
          <note key="53" pos="552" len="24" vol="151" pan="0"/>
          <note key="22" pos="576" len="23" vol="151" pan="0"/>
          <note key="58" pos="600" len="23" vol="163" pan="0"/>
          <note key="29" pos="600" len="23" vol="151" pan="0"/>
          <note key="67" pos="624" len="23" vol="163" pan="0"/>
          <note key="34" pos="624" len="47" vol="151" pan="0"/>
          <note key="63" pos="648" len="23" vol="163" pan="0"/>
          <note key="60" pos="672" len="23" vol="163" pan="0"/>
          <note key="38" pos="672" len="23" vol="151" pan="0"/>
          <note key="62" pos="696" len="23" vol="170" pan="0"/>
          <note key="41" pos="696" len="23" vol="151" pan="0"/>
          <note key="70" pos="720" len="12" vol="163" pan="0"/>
          <note key="46" pos="720" len="47" vol="151" pan="0"/>
          <note key="72" pos="732" len="11" vol="163" pan="0"/>
          <note key="70" pos="744" len="23" vol="170" pan="0"/>
          <note key="63" pos="768" len="24" vol="170" pan="0"/>
          <note key="39" pos="768" len="72" vol="157" pan="0"/>
          <note key="55" pos="792" len="24" vol="144" pan="0"/>
          <note key="60" pos="816" len="24" vol="157" pan="0"/>
          <note key="62" pos="840" len="24" vol="163" pan="0"/>
          <note key="38" pos="840" len="72" vol="151" pan="0"/>
          <note key="55" pos="864" len="24" vol="163" pan="0"/>
          <note key="60" pos="888" len="24" vol="163" pan="0"/>
          <note key="63" pos="912" len="24" vol="176" pan="0"/>
          <note key="34" pos="912" len="72" vol="151" pan="0"/>
          <note key="55" pos="936" len="24" vol="163" pan="0"/>
          <note key="60" pos="960" len="24" vol="163" pan="0"/>
          <note key="67" pos="984" len="24" vol="176" pan="0"/>
          <note key="39" pos="984" len="72" vol="157" pan="0"/>
          <note key="60" pos="1008" len="24" vol="163" pan="0"/>
          <note key="63" pos="1032" len="24" vol="163" pan="0"/>
          <note key="72" pos="1056" len="24" vol="176" pan="0"/>
          <note key="38" pos="1056" len="48" vol="157" pan="0"/>
          <note key="67" pos="1080" len="24" vol="176" pan="0"/>
          <note key="72" pos="1104" len="24" vol="176" pan="0"/>
          <note key="34" pos="1104" len="48" vol="157" pan="0"/>
          <note key="74" pos="1128" len="24" vol="176" pan="0"/>
          <note key="75" pos="1152" len="24" vol="181" pan="0"/>
          <note key="67" pos="1176" len="24" vol="163" pan="0"/>
          <note key="27" pos="1176" len="23" vol="132" pan="0"/>
          <note key="72" pos="1200" len="24" vol="170" pan="0"/>
          <note key="32" pos="1200" len="23" vol="132" pan="0"/>
          <note key="79" pos="1224" len="48" vol="181" pan="0"/>
          <note key="67" pos="1224" len="48" vol="170" pan="0"/>
          <note key="34" pos="1224" len="47" vol="138" pan="0"/>
          <note key="77" pos="1272" len="48" vol="181" pan="0"/>
          <note key="65" pos="1272" len="48" vol="170" pan="0"/>
          <note key="39" pos="1272" len="23" vol="144" pan="0"/>
          <note key="43" pos="1296" len="23" vol="151" pan="0"/>
          <note key="74" pos="1320" len="48" vol="181" pan="0"/>
          <note key="62" pos="1320" len="48" vol="163" pan="0"/>
          <note key="46" pos="1320" len="23" vol="144" pan="0"/>
        </pattern>
      </track>
      <track solo="0" muted="0" type="0" name="spacey synth">
        <instrumenttrack basenote="57" pitchrange="1" pitch="0" usemasterpitch="1" vol="20.8" pan="0" fxch="0">
          <instrument name="zynaddsubfx">
            <zynaddsubfx filterfreq="64" bandwidth="64" portamento="0" rescenterfreq="64" modifiedcontrollers="" filterq="64" fmgain="127" resbandwidth="64" forwardmidicc="1">
              <ZynAddSubFX-data version-major="2" ZynAddSubFX-author="Nasca Octavian Paul" version-revision="1" version-minor="4">
                <INFORMATION>
                  <par_bool value="yes" name="PADsynth_used"/>
                </INFORMATION>
                <BASE_PARAMETERS>
                  <par value="16" name="max_midi_parts"/>
                  <par value="16" name="max_kit_items_per_instrument"/>
                  <par value="4" name="max_system_effects"/>
                  <par value="8" name="max_insertion_effects"/>
                  <par value="3" name="max_instrument_effects"/>
                  <par value="8" name="max_addsynth_voices"/>
                </BASE_PARAMETERS>
                <MASTER>
                  <par value="127" name="volume"/>
                  <par value="64" name="key_shift"/>
                  <par_bool value="yes" name="nrpn_receive"/>
                  <MICROTONAL>
                    <string name="name">12tET</string>
                    <string name="comment">Equal Temperament 12 notes per octave</string>
                    <par_bool value="no" name="invert_up_down"/>
                    <par value="60" name="invert_up_down_center"/>
                    <par_bool value="no" name="enabled"/>
                    <par value="64" name="global_fine_detune"/>
                    <par value="69" name="a_note"/>
                    <par_real value="440.000000" name="a_freq"/>
                  </MICROTONAL>
                  <PART id="0">
                    <par_bool value="yes" name="enabled"/>
                    <par value="96" name="volume"/>
                    <par value="64" name="panning"/>
                    <par value="0" name="min_key"/>
                    <par value="127" name="max_key"/>
                    <par value="64" name="key_shift"/>
                    <par value="0" name="rcv_chn"/>
                    <par value="64" name="velocity_sensing"/>
                    <par value="64" name="velocity_offset"/>
                    <par_bool value="yes" name="note_on"/>
                    <par_bool value="yes" name="poly_mode"/>
                    <par value="0" name="legato_mode"/>
                    <par value="15" name="key_limit"/>
                    <INSTRUMENT>
                      <INFO>
                        <string name="name">Outer Galaxy Pad</string>
                        <string name="author">Christopher Oliver</string>
                        <string name="comments">Sparkle pad inspired by moving pads from any number
of workstations I've heard or played</string>
                        <par value="12" name="type"/>
                      </INFO>
                      <INSTRUMENT_KIT>
                        <par value="1" name="kit_mode"/>
                        <par_bool value="no" name="drum_mode"/>
                        <INSTRUMENT_KIT_ITEM id="0">
                          <par_bool value="yes" name="enabled"/>
                          <string name="name"/>
                          <par_bool value="no" name="muted"/>
                          <par value="0" name="min_key"/>
                          <par value="127" name="max_key"/>
                          <par value="0" name="send_to_instrument_effect"/>
                          <par_bool value="yes" name="add_enabled"/>
                          <ADD_SYNTH_PARAMETERS>
                            <par_bool value="yes" name="stereo"/>
                            <AMPLITUDE_PARAMETERS>
                              <par value="81" name="volume"/>
                              <par value="64" name="panning"/>
                              <par value="64" name="velocity_sensing"/>
                              <par value="0" name="punch_strength"/>
                              <par value="60" name="punch_time"/>
                              <par value="64" name="punch_stretch"/>
                              <par value="72" name="punch_velocity_sensing"/>
                              <par value="0" name="harmonic_randomness_grouping"/>
                              <AMPLITUDE_ENVELOPE>
                                <par_bool value="no" name="free_mode"/>
                                <par value="4" name="env_points"/>
                                <par value="2" name="env_sustain"/>
                                <par value="64" name="env_stretch"/>
                                <par_bool value="yes" name="forced_release"/>
                                <par_bool value="no" name="linear_envelope"/>
                                <par value="0" name="A_dt"/>
                                <par value="40" name="D_dt"/>
                                <par value="25" name="R_dt"/>
                                <par value="64" name="A_val"/>
                                <par value="64" name="D_val"/>
                                <par value="127" name="S_val"/>
                                <par value="64" name="R_val"/>
                              </AMPLITUDE_ENVELOPE>
                              <AMPLITUDE_LFO>
                                <par_real value="0.629921" name="freq"/>
                                <par value="0" name="intensity"/>
                                <par value="64" name="start_phase"/>
                                <par value="0" name="lfo_type"/>
                                <par value="0" name="randomness_amplitude"/>
                                <par value="0" name="randomness_frequency"/>
                                <par value="0" name="delay"/>
                                <par value="64" name="stretch"/>
                                <par_bool value="no" name="continous"/>
                              </AMPLITUDE_LFO>
                            </AMPLITUDE_PARAMETERS>
                            <FREQUENCY_PARAMETERS>
                              <par value="8192" name="detune"/>
                              <par value="15360" name="coarse_detune"/>
                              <par value="1" name="detune_type"/>
                              <par value="64" name="bandwidth"/>
                              <FREQUENCY_ENVELOPE>
                                <par_bool value="no" name="free_mode"/>
                                <par value="3" name="env_points"/>
                                <par value="1" name="env_sustain"/>
                                <par value="0" name="env_stretch"/>
                                <par_bool value="no" name="forced_release"/>
                                <par_bool value="no" name="linear_envelope"/>
                                <par value="50" name="A_dt"/>
                                <par value="10" name="D_dt"/>
                                <par value="60" name="R_dt"/>
                                <par value="0" name="A_val"/>
                                <par value="64" name="D_val"/>
                                <par value="64" name="S_val"/>
                                <par value="64" name="R_val"/>
                              </FREQUENCY_ENVELOPE>
                              <FREQUENCY_LFO>
                                <par_real value="0.551181" name="freq"/>
                                <par value="0" name="intensity"/>
                                <par value="64" name="start_phase"/>
                                <par value="0" name="lfo_type"/>
                                <par value="0" name="randomness_amplitude"/>
                                <par value="0" name="randomness_frequency"/>
                                <par value="0" name="delay"/>
                                <par value="64" name="stretch"/>
                                <par_bool value="no" name="continous"/>
                              </FREQUENCY_LFO>
                            </FREQUENCY_PARAMETERS>
                            <FILTER_PARAMETERS>
                              <par value="64" name="velocity_sensing_amplitude"/>
                              <par value="64" name="velocity_sensing"/>
                              <FILTER>
                                <par value="0" name="category"/>
                                <par value="2" name="type"/>
                                <par value="94" name="freq"/>
                                <par value="40" name="q"/>
                                <par value="0" name="stages"/>
                                <par value="64" name="freq_track"/>
                                <par value="64" name="gain"/>
                              </FILTER>
                              <FILTER_ENVELOPE>
                                <par_bool value="no" name="free_mode"/>
                                <par value="4" name="env_points"/>
                                <par value="2" name="env_sustain"/>
                                <par value="0" name="env_stretch"/>
                                <par_bool value="yes" name="forced_release"/>
                                <par_bool value="no" name="linear_envelope"/>
                                <par value="40" name="A_dt"/>
                                <par value="70" name="D_dt"/>
                                <par value="60" name="R_dt"/>
                                <par value="0" name="A_val"/>
                                <par value="64" name="D_val"/>
                                <par value="64" name="S_val"/>
                                <par value="64" name="R_val"/>
                              </FILTER_ENVELOPE>
                              <FILTER_LFO>
                                <par_real value="0.629921" name="freq"/>
                                <par value="0" name="intensity"/>
                                <par value="64" name="start_phase"/>
                                <par value="0" name="lfo_type"/>
                                <par value="0" name="randomness_amplitude"/>
                                <par value="0" name="randomness_frequency"/>
                                <par value="0" name="delay"/>
                                <par value="64" name="stretch"/>
                                <par_bool value="no" name="continous"/>
                              </FILTER_LFO>
                            </FILTER_PARAMETERS>
                            <RESONANCE>
                              <par_bool value="no" name="enabled"/>
                            </RESONANCE>
                            <VOICE id="0">
                              <par_bool value="yes" name="enabled"/>
                              <par value="0" name="type"/>
                              <par value="1" name="unison_size"/>
                              <par value="60" name="unison_frequency_spread"/>
                              <par value="64" name="unison_stereo_spread"/>
                              <par value="64" name="unison_vibratto"/>
                              <par value="64" name="unison_vibratto_speed"/>
                              <par value="0" name="unison_invert_phase"/>
                              <par value="127" name="unison_phase_randomness"/>
                              <par value="0" name="delay"/>
                              <par_bool value="yes" name="resonance"/>
                              <par value="-1" name="ext_oscil"/>
                              <par value="-1" name="ext_fm_oscil"/>
                              <par value="64" name="oscil_phase"/>
                              <par value="64" name="oscil_fm_phase"/>
                              <par_bool value="no" name="filter_enabled"/>
                              <par_bool value="no" name="filter_bypass"/>
                              <par value="0" name="fm_enabled"/>
                              <OSCIL>
                                <par value="0" name="harmonic_mag_type"/>
                                <par value="0" name="base_function"/>
                                <par value="64" name="base_function_par"/>
                                <par value="0" name="base_function_modulation"/>
                                <par value="64" name="base_function_modulation_par1"/>
                                <par value="64" name="base_function_modulation_par2"/>
                                <par value="32" name="base_function_modulation_par3"/>
                                <par value="0" name="modulation"/>
                                <par value="64" name="modulation_par1"/>
                                <par value="64" name="modulation_par2"/>
                                <par value="32" name="modulation_par3"/>
                                <par value="64" name="wave_shaping"/>
                                <par value="0" name="wave_shaping_function"/>
                                <par value="0" name="filter_type"/>
                                <par value="64" name="filter_par1"/>
                                <par value="64" name="filter_par2"/>
                                <par value="0" name="filter_before_wave_shaping"/>
                                <par value="0" name="spectrum_adjust_type"/>
                                <par value="64" name="spectrum_adjust_par"/>
                                <par value="64" name="rand"/>
                                <par value="0" name="amp_rand_type"/>
                                <par value="64" name="amp_rand_power"/>
                                <par value="0" name="harmonic_shift"/>
                                <par_bool value="no" name="harmonic_shift_first"/>
                                <par value="0" name="adaptive_harmonics"/>
                                <par value="128" name="adaptive_harmonics_base_frequency"/>
                                <par value="100" name="adaptive_harmonics_power"/>
                                <HARMONICS>
                                  <HARMONIC id="1">
                                    <par value="127" name="mag"/>
                                    <par value="64" name="phase"/>
                                  </HARMONIC>
                                </HARMONICS>
                              </OSCIL>
                              <AMPLITUDE_PARAMETERS>
                                <par value="64" name="panning"/>
                                <par value="100" name="volume"/>
                                <par_bool value="no" name="volume_minus"/>
                                <par value="127" name="velocity_sensing"/>
                                <par_bool value="no" name="amp_envelope_enabled"/>
                                <par_bool value="no" name="amp_lfo_enabled"/>
                              </AMPLITUDE_PARAMETERS>
                              <FREQUENCY_PARAMETERS>
                                <par_bool value="no" name="fixed_freq"/>
                                <par value="0" name="fixed_freq_et"/>
                                <par value="8192" name="detune"/>
                                <par value="0" name="coarse_detune"/>
                                <par value="0" name="detune_type"/>
                                <par_bool value="no" name="freq_envelope_enabled"/>
                                <par_bool value="no" name="freq_lfo_enabled"/>
                              </FREQUENCY_PARAMETERS>
                            </VOICE>
                            <VOICE id="1">
                              <par_bool value="yes" name="enabled"/>
                              <par value="0" name="type"/>
                              <par value="1" name="unison_size"/>
                              <par value="60" name="unison_frequency_spread"/>
                              <par value="64" name="unison_stereo_spread"/>
                              <par value="64" name="unison_vibratto"/>
                              <par value="64" name="unison_vibratto_speed"/>
                              <par value="0" name="unison_invert_phase"/>
                              <par value="127" name="unison_phase_randomness"/>
                              <par value="37" name="delay"/>
                              <par_bool value="yes" name="resonance"/>
                              <par value="-1" name="ext_oscil"/>
                              <par value="-1" name="ext_fm_oscil"/>
                              <par value="64" name="oscil_phase"/>
                              <par value="64" name="oscil_fm_phase"/>
                              <par_bool value="no" name="filter_enabled"/>
                              <par_bool value="no" name="filter_bypass"/>
                              <par value="0" name="fm_enabled"/>
                              <OSCIL>
                                <par value="0" name="harmonic_mag_type"/>
                                <par value="1" name="base_function"/>
                                <par value="64" name="base_function_par"/>
                                <par value="0" name="base_function_modulation"/>
                                <par value="64" name="base_function_modulation_par1"/>
                                <par value="64" name="base_function_modulation_par2"/>
                                <par value="32" name="base_function_modulation_par3"/>
                                <par value="0" name="modulation"/>
                                <par value="64" name="modulation_par1"/>
                                <par value="64" name="modulation_par2"/>
                                <par value="32" name="modulation_par3"/>
                                <par value="64" name="wave_shaping"/>
                                <par value="0" name="wave_shaping_function"/>
                                <par value="0" name="filter_type"/>
                                <par value="64" name="filter_par1"/>
                                <par value="64" name="filter_par2"/>
                                <par value="0" name="filter_before_wave_shaping"/>
                                <par value="0" name="spectrum_adjust_type"/>
                                <par value="64" name="spectrum_adjust_par"/>
                                <par value="64" name="rand"/>
                                <par value="0" name="amp_rand_type"/>
                                <par value="64" name="amp_rand_power"/>
                                <par value="0" name="harmonic_shift"/>
                                <par_bool value="no" name="harmonic_shift_first"/>
                                <par value="0" name="adaptive_harmonics"/>
                                <par value="128" name="adaptive_harmonics_base_frequency"/>
                                <par value="100" name="adaptive_harmonics_power"/>
                                <HARMONICS>
                                  <HARMONIC id="1">
                                    <par value="127" name="mag"/>
                                    <par value="64" name="phase"/>
                                  </HARMONIC>
                                </HARMONICS>
                              </OSCIL>
                              <AMPLITUDE_PARAMETERS>
                                <par value="64" name="panning"/>
                                <par value="66" name="volume"/>
                                <par_bool value="no" name="volume_minus"/>
                                <par value="127" name="velocity_sensing"/>
                                <par_bool value="yes" name="amp_envelope_enabled"/>
                                <AMPLITUDE_ENVELOPE>
                                  <par_bool value="no" name="free_mode"/>
                                  <par value="4" name="env_points"/>
                                  <par value="2" name="env_sustain"/>
                                  <par value="64" name="env_stretch"/>
                                  <par_bool value="yes" name="forced_release"/>
                                  <par_bool value="no" name="linear_envelope"/>
                                  <par value="0" name="A_dt"/>
                                  <par value="100" name="D_dt"/>
                                  <par value="100" name="R_dt"/>
                                  <par value="64" name="A_val"/>
                                  <par value="64" name="D_val"/>
                                  <par value="127" name="S_val"/>
                                  <par value="64" name="R_val"/>
                                </AMPLITUDE_ENVELOPE>
                                <par_bool value="yes" name="amp_lfo_enabled"/>
                                <AMPLITUDE_LFO>
                                  <par_real value="0.253661" name="freq"/>
                                  <par value="32" name="intensity"/>
                                  <par value="64" name="start_phase"/>
                                  <par value="0" name="lfo_type"/>
                                  <par value="0" name="randomness_amplitude"/>
                                  <par value="0" name="randomness_frequency"/>
                                  <par value="30" name="delay"/>
                                  <par value="64" name="stretch"/>
                                  <par_bool value="no" name="continous"/>
                                </AMPLITUDE_LFO>
                              </AMPLITUDE_PARAMETERS>
                              <FREQUENCY_PARAMETERS>
                                <par_bool value="no" name="fixed_freq"/>
                                <par value="0" name="fixed_freq_et"/>
                                <par value="8192" name="detune"/>
                                <par value="4102" name="coarse_detune"/>
                                <par value="3" name="detune_type"/>
                                <par_bool value="no" name="freq_envelope_enabled"/>
                                <par_bool value="yes" name="freq_lfo_enabled"/>
                                <FREQUENCY_LFO>
                                  <par_real value="0.708701" name="freq"/>
                                  <par value="105" name="intensity"/>
                                  <par value="0" name="start_phase"/>
                                  <par value="2" name="lfo_type"/>
                                  <par value="127" name="randomness_amplitude"/>
                                  <par value="0" name="randomness_frequency"/>
                                  <par value="0" name="delay"/>
                                  <par value="64" name="stretch"/>
                                  <par_bool value="no" name="continous"/>
                                </FREQUENCY_LFO>
                              </FREQUENCY_PARAMETERS>
                            </VOICE>
                            <VOICE id="2">
                              <par_bool value="no" name="enabled"/>
                            </VOICE>
                            <VOICE id="3">
                              <par_bool value="no" name="enabled"/>
                            </VOICE>
                            <VOICE id="4">
                              <par_bool value="no" name="enabled"/>
                            </VOICE>
                            <VOICE id="5">
                              <par_bool value="no" name="enabled"/>
                            </VOICE>
                            <VOICE id="6">
                              <par_bool value="no" name="enabled"/>
                            </VOICE>
                            <VOICE id="7">
                              <par_bool value="no" name="enabled"/>
                            </VOICE>
                          </ADD_SYNTH_PARAMETERS>
                          <par_bool value="yes" name="sub_enabled"/>
                          <SUB_SYNTH_PARAMETERS>
                            <par value="2" name="num_stages"/>
                            <par value="0" name="harmonic_mag_type"/>
                            <par value="1" name="start"/>
                            <HARMONICS>
                              <HARMONIC id="0">
                                <par value="127" name="mag"/>
                                <par value="64" name="relbw"/>
                              </HARMONIC>
                              <HARMONIC id="2">
                                <par value="33" name="mag"/>
                                <par value="93" name="relbw"/>
                              </HARMONIC>
                              <HARMONIC id="3">
                                <par value="43" name="mag"/>
                                <par value="64" name="relbw"/>
                              </HARMONIC>
                              <HARMONIC id="5">
                                <par value="23" name="mag"/>
                                <par value="107" name="relbw"/>
                              </HARMONIC>
                              <HARMONIC id="7">
                                <par value="23" name="mag"/>
                                <par value="64" name="relbw"/>
                              </HARMONIC>
                              <HARMONIC id="9">
                                <par value="61" name="mag"/>
                                <par value="64" name="relbw"/>
                              </HARMONIC>
                              <HARMONIC id="11">
                                <par value="22" name="mag"/>
                                <par value="95" name="relbw"/>
                              </HARMONIC>
                            </HARMONICS>
                            <AMPLITUDE_PARAMETERS>
                              <par_bool value="yes" name="stereo"/>
                              <par value="91" name="volume"/>
                              <par value="64" name="panning"/>
                              <par value="90" name="velocity_sensing"/>
                              <AMPLITUDE_ENVELOPE>
                                <par_bool value="no" name="free_mode"/>
                                <par value="4" name="env_points"/>
                                <par value="2" name="env_sustain"/>
                                <par value="64" name="env_stretch"/>
                                <par_bool value="yes" name="forced_release"/>
                                <par_bool value="no" name="linear_envelope"/>
                                <par value="0" name="A_dt"/>
                                <par value="40" name="D_dt"/>
                                <par value="25" name="R_dt"/>
                                <par value="64" name="A_val"/>
                                <par value="64" name="D_val"/>
                                <par value="127" name="S_val"/>
                                <par value="64" name="R_val"/>
                              </AMPLITUDE_ENVELOPE>
                            </AMPLITUDE_PARAMETERS>
                            <FREQUENCY_PARAMETERS>
                              <par_bool value="no" name="fixed_freq"/>
                              <par value="0" name="fixed_freq_et"/>
                              <par value="7139" name="detune"/>
                              <par value="15360" name="coarse_detune"/>
                              <par value="0" name="overtone_spread_type"/>
                              <par value="0" name="overtone_spread_par1"/>
                              <par value="0" name="overtone_spread_par2"/>
                              <par value="0" name="overtone_spread_par3"/>
                              <par value="1" name="detune_type"/>
                              <par value="69" name="bandwidth"/>
                              <par value="64" name="bandwidth_scale"/>
                              <par_bool value="no" name="freq_envelope_enabled"/>
                              <par_bool value="no" name="band_width_envelope_enabled"/>
                            </FREQUENCY_PARAMETERS>
                            <FILTER_PARAMETERS>
                              <par_bool value="no" name="enabled"/>
                            </FILTER_PARAMETERS>
                          </SUB_SYNTH_PARAMETERS>
                          <par_bool value="no" name="pad_enabled"/>
                        </INSTRUMENT_KIT_ITEM>
                        <INSTRUMENT_KIT_ITEM id="1">
                          <par_bool value="yes" name="enabled"/>
                          <string name="name"/>
                          <par_bool value="no" name="muted"/>
                          <par value="0" name="min_key"/>
                          <par value="127" name="max_key"/>
                          <par value="0" name="send_to_instrument_effect"/>
                          <par_bool value="no" name="add_enabled"/>
                          <par_bool value="no" name="sub_enabled"/>
                          <par_bool value="yes" name="pad_enabled"/>
                          <PAD_SYNTH_PARAMETERS>
                            <par_bool value="yes" name="stereo"/>
                            <par value="0" name="mode"/>
                            <par value="695" name="bandwidth"/>
                            <par value="0" name="bandwidth_scale"/>
                            <HARMONIC_PROFILE>
                              <par value="0" name="base_type"/>
                              <par value="80" name="base_par1"/>
                              <par value="0" name="frequency_multiplier"/>
                              <par value="0" name="modulator_par1"/>
                              <par value="30" name="modulator_frequency"/>
                              <par value="127" name="width"/>
                              <par value="0" name="amplitude_multiplier_type"/>
                              <par value="0" name="amplitude_multiplier_mode"/>
                              <par value="80" name="amplitude_multiplier_par1"/>
                              <par value="64" name="amplitude_multiplier_par2"/>
                              <par_bool value="yes" name="autoscale"/>
                              <par value="0" name="one_half"/>
                            </HARMONIC_PROFILE>
                            <OSCIL>
                              <par value="0" name="harmonic_mag_type"/>
                              <par value="6" name="base_function"/>
                              <par value="64" name="base_function_par"/>
                              <par value="0" name="base_function_modulation"/>
                              <par value="64" name="base_function_modulation_par1"/>
                              <par value="64" name="base_function_modulation_par2"/>
                              <par value="32" name="base_function_modulation_par3"/>
                              <par value="0" name="modulation"/>
                              <par value="64" name="modulation_par1"/>
                              <par value="64" name="modulation_par2"/>
                              <par value="32" name="modulation_par3"/>
                              <par value="64" name="wave_shaping"/>
                              <par value="0" name="wave_shaping_function"/>
                              <par value="0" name="filter_type"/>
                              <par value="64" name="filter_par1"/>
                              <par value="64" name="filter_par2"/>
                              <par value="0" name="filter_before_wave_shaping"/>
                              <par value="0" name="spectrum_adjust_type"/>
                              <par value="64" name="spectrum_adjust_par"/>
                              <par value="127" name="rand"/>
                              <par value="0" name="amp_rand_type"/>
                              <par value="64" name="amp_rand_power"/>
                              <par value="0" name="harmonic_shift"/>
                              <par_bool value="no" name="harmonic_shift_first"/>
                              <par value="0" name="adaptive_harmonics"/>
                              <par value="128" name="adaptive_harmonics_base_frequency"/>
                              <par value="100" name="adaptive_harmonics_power"/>
                              <HARMONICS>
                                <HARMONIC id="1">
                                  <par value="127" name="mag"/>
                                  <par value="64" name="phase"/>
                                </HARMONIC>
                                <HARMONIC id="5">
                                  <par value="69" name="mag"/>
                                  <par value="64" name="phase"/>
                                </HARMONIC>
                                <HARMONIC id="9">
                                  <par value="72" name="mag"/>
                                  <par value="64" name="phase"/>
                                </HARMONIC>
                                <HARMONIC id="18">
                                  <par value="70" name="mag"/>
                                  <par value="64" name="phase"/>
                                </HARMONIC>
                                <HARMONIC id="24">
                                  <par value="72" name="mag"/>
                                  <par value="64" name="phase"/>
                                </HARMONIC>
                              </HARMONICS>
                            </OSCIL>
                            <RESONANCE>
                              <par_bool value="no" name="enabled"/>
                            </RESONANCE>
                            <HARMONIC_POSITION>
                              <par value="0" name="type"/>
                              <par value="64" name="parameter1"/>
                              <par value="64" name="parameter2"/>
                              <par value="0" name="parameter3"/>
                            </HARMONIC_POSITION>
                            <SAMPLE_QUALITY>
                              <par value="3" name="samplesize"/>
                              <par value="4" name="basenote"/>
                              <par value="3" name="octaves"/>
                              <par value="2" name="samples_per_octave"/>
                            </SAMPLE_QUALITY>
                            <AMPLITUDE_PARAMETERS>
                              <par value="72" name="volume"/>
                              <par value="64" name="panning"/>
                              <par value="64" name="velocity_sensing"/>
                              <par value="0" name="punch_strength"/>
                              <par value="60" name="punch_time"/>
                              <par value="64" name="punch_stretch"/>
                              <par value="72" name="punch_velocity_sensing"/>
                              <AMPLITUDE_ENVELOPE>
                                <par_bool value="no" name="free_mode"/>
                                <par value="4" name="env_points"/>
                                <par value="2" name="env_sustain"/>
                                <par value="64" name="env_stretch"/>
                                <par_bool value="yes" name="forced_release"/>
                                <par_bool value="no" name="linear_envelope"/>
                                <par value="41" name="A_dt"/>
                                <par value="40" name="D_dt"/>
                                <par value="25" name="R_dt"/>
                                <par value="64" name="A_val"/>
                                <par value="64" name="D_val"/>
                                <par value="127" name="S_val"/>
                                <par value="64" name="R_val"/>
                              </AMPLITUDE_ENVELOPE>
                              <AMPLITUDE_LFO>
                                <par_real value="0.629921" name="freq"/>
                                <par value="0" name="intensity"/>
                                <par value="64" name="start_phase"/>
                                <par value="0" name="lfo_type"/>
                                <par value="0" name="randomness_amplitude"/>
                                <par value="0" name="randomness_frequency"/>
                                <par value="0" name="delay"/>
                                <par value="64" name="stretch"/>
                                <par_bool value="no" name="continous"/>
                              </AMPLITUDE_LFO>
                            </AMPLITUDE_PARAMETERS>
                            <FREQUENCY_PARAMETERS>
                              <par value="0" name="fixed_freq"/>
                              <par value="0" name="fixed_freq_et"/>
                              <par value="8192" name="detune"/>
                              <par value="15360" name="coarse_detune"/>
                              <par value="1" name="detune_type"/>
                              <FREQUENCY_ENVELOPE>
                                <par_bool value="no" name="free_mode"/>
                                <par value="3" name="env_points"/>
                                <par value="1" name="env_sustain"/>
                                <par value="0" name="env_stretch"/>
                                <par_bool value="no" name="forced_release"/>
                                <par_bool value="no" name="linear_envelope"/>
                                <par value="50" name="A_dt"/>
                                <par value="10" name="D_dt"/>
                                <par value="60" name="R_dt"/>
                                <par value="64" name="A_val"/>
                                <par value="64" name="D_val"/>
                                <par value="64" name="S_val"/>
                                <par value="64" name="R_val"/>
                              </FREQUENCY_ENVELOPE>
                              <FREQUENCY_LFO>
                                <par_real value="0.551181" name="freq"/>
                                <par value="0" name="intensity"/>
                                <par value="64" name="start_phase"/>
                                <par value="0" name="lfo_type"/>
                                <par value="0" name="randomness_amplitude"/>
                                <par value="0" name="randomness_frequency"/>
                                <par value="0" name="delay"/>
                                <par value="64" name="stretch"/>
                                <par_bool value="no" name="continous"/>
                              </FREQUENCY_LFO>
                            </FREQUENCY_PARAMETERS>
                            <FILTER_PARAMETERS>
                              <par value="64" name="velocity_sensing_amplitude"/>
                              <par value="64" name="velocity_sensing"/>
                              <FILTER>
                                <par value="0" name="category"/>
                                <par value="2" name="type"/>
                                <par value="94" name="freq"/>
                                <par value="40" name="q"/>
                                <par value="0" name="stages"/>
                                <par value="64" name="freq_track"/>
                                <par value="64" name="gain"/>
                              </FILTER>
                              <FILTER_ENVELOPE>
                                <par_bool value="no" name="free_mode"/>
                                <par value="4" name="env_points"/>
                                <par value="2" name="env_sustain"/>
                                <par value="0" name="env_stretch"/>
                                <par_bool value="yes" name="forced_release"/>
                                <par_bool value="no" name="linear_envelope"/>
                                <par value="40" name="A_dt"/>
                                <par value="70" name="D_dt"/>
                                <par value="60" name="R_dt"/>
                                <par value="64" name="A_val"/>
                                <par value="64" name="D_val"/>
                                <par value="64" name="S_val"/>
                                <par value="64" name="R_val"/>
                              </FILTER_ENVELOPE>
                              <FILTER_LFO>
                                <par_real value="0.629921" name="freq"/>
                                <par value="0" name="intensity"/>
                                <par value="64" name="start_phase"/>
                                <par value="0" name="lfo_type"/>
                                <par value="0" name="randomness_amplitude"/>
                                <par value="0" name="randomness_frequency"/>
                                <par value="0" name="delay"/>
                                <par value="64" name="stretch"/>
                                <par_bool value="no" name="continous"/>
                              </FILTER_LFO>
                            </FILTER_PARAMETERS>
                          </PAD_SYNTH_PARAMETERS>
                        </INSTRUMENT_KIT_ITEM>
                        <INSTRUMENT_KIT_ITEM id="2">
                          <par_bool value="no" name="enabled"/>
                        </INSTRUMENT_KIT_ITEM>
                        <INSTRUMENT_KIT_ITEM id="3">
                          <par_bool value="no" name="enabled"/>
                        </INSTRUMENT_KIT_ITEM>
                        <INSTRUMENT_KIT_ITEM id="4">
                          <par_bool value="no" name="enabled"/>
                        </INSTRUMENT_KIT_ITEM>
                        <INSTRUMENT_KIT_ITEM id="5">
                          <par_bool value="no" name="enabled"/>
                        </INSTRUMENT_KIT_ITEM>
                        <INSTRUMENT_KIT_ITEM id="6">
                          <par_bool value="no" name="enabled"/>
                        </INSTRUMENT_KIT_ITEM>
                        <INSTRUMENT_KIT_ITEM id="7">
                          <par_bool value="no" name="enabled"/>
                        </INSTRUMENT_KIT_ITEM>
                        <INSTRUMENT_KIT_ITEM id="8">
                          <par_bool value="no" name="enabled"/>
                        </INSTRUMENT_KIT_ITEM>
                        <INSTRUMENT_KIT_ITEM id="9">
                          <par_bool value="no" name="enabled"/>
                        </INSTRUMENT_KIT_ITEM>
                        <INSTRUMENT_KIT_ITEM id="10">
                          <par_bool value="no" name="enabled"/>
                        </INSTRUMENT_KIT_ITEM>
                        <INSTRUMENT_KIT_ITEM id="11">
                          <par_bool value="no" name="enabled"/>
                        </INSTRUMENT_KIT_ITEM>
                        <INSTRUMENT_KIT_ITEM id="12">
                          <par_bool value="no" name="enabled"/>
                        </INSTRUMENT_KIT_ITEM>
                        <INSTRUMENT_KIT_ITEM id="13">
                          <par_bool value="no" name="enabled"/>
                        </INSTRUMENT_KIT_ITEM>
                        <INSTRUMENT_KIT_ITEM id="14">
                          <par_bool value="no" name="enabled"/>
                        </INSTRUMENT_KIT_ITEM>
                        <INSTRUMENT_KIT_ITEM id="15">
                          <par_bool value="no" name="enabled"/>
                        </INSTRUMENT_KIT_ITEM>
                      </INSTRUMENT_KIT>
                      <INSTRUMENT_EFFECTS>
                        <INSTRUMENT_EFFECT id="0">
                          <EFFECT>
                            <par value="4" name="type"/>
                            <par value="0" name="preset"/>
                            <EFFECT_PARAMETERS>
                              <par_no id="0">
                                <par value="64" name="par"/>
                              </par_no>
                              <par_no id="1">
                                <par value="64" name="par"/>
                              </par_no>
                              <par_no id="2">
                                <par value="36" name="par"/>
                              </par_no>
                              <par_no id="5">
                                <par value="64" name="par"/>
                              </par_no>
                              <par_no id="6">
                                <par value="110" name="par"/>
                              </par_no>
                              <par_no id="7">
                                <par value="64" name="par"/>
                              </par_no>
                              <par_no id="8">
                                <par value="1" name="par"/>
                              </par_no>
                              <par_no id="11">
                                <par value="20" name="par"/>
                              </par_no>
                            </EFFECT_PARAMETERS>
                          </EFFECT>
                          <par value="0" name="route"/>
                          <par_bool value="no" name="bypass"/>
                        </INSTRUMENT_EFFECT>
                        <INSTRUMENT_EFFECT id="1">
                          <EFFECT>
                            <par value="3" name="type"/>
                            <par value="6" name="preset"/>
                            <EFFECT_PARAMETERS>
                              <par_no id="0">
                                <par value="23" name="par"/>
                              </par_no>
                              <par_no id="1">
                                <par value="64" name="par"/>
                              </par_no>
                              <par_no id="2">
                                <par value="33" name="par"/>
                              </par_no>
                              <par_no id="3">
                                <par value="34" name="par"/>
                              </par_no>
                              <par_no id="4">
                                <par value="1" name="par"/>
                              </par_no>
                              <par_no id="5">
                                <par value="92" name="par"/>
                              </par_no>
                              <par_no id="6">
                                <par value="26" name="par"/>
                              </par_no>
                              <par_no id="7">
                                <par value="3" name="par"/>
                              </par_no>
                              <par_no id="8">
                                <par value="109" name="par"/>
                              </par_no>
                            </EFFECT_PARAMETERS>
                          </EFFECT>
                          <par value="0" name="route"/>
                          <par_bool value="no" name="bypass"/>
                        </INSTRUMENT_EFFECT>
                        <INSTRUMENT_EFFECT id="2">
                          <EFFECT>
                            <par value="2" name="type"/>
                            <par value="0" name="preset"/>
                            <EFFECT_PARAMETERS>
                              <par_no id="0">
                                <par value="33" name="par"/>
                              </par_no>
                              <par_no id="1">
                                <par value="64" name="par"/>
                              </par_no>
                              <par_no id="2">
                                <par value="35" name="par"/>
                              </par_no>
                              <par_no id="3">
                                <par value="64" name="par"/>
                              </par_no>
                              <par_no id="4">
                                <par value="30" name="par"/>
                              </par_no>
                              <par_no id="5">
                                <par value="59" name="par"/>
                              </par_no>
                            </EFFECT_PARAMETERS>
                          </EFFECT>
                          <par value="0" name="route"/>
                          <par_bool value="no" name="bypass"/>
                        </INSTRUMENT_EFFECT>
                      </INSTRUMENT_EFFECTS>
                    </INSTRUMENT>
                    <CONTROLLER>
                      <par value="100" name="pitchwheel_bendrange"/>
                      <par_bool value="yes" name="expression_receive"/>
                      <par value="64" name="panning_depth"/>
                      <par value="64" name="filter_cutoff_depth"/>
                      <par value="64" name="filter_q_depth"/>
                      <par value="64" name="bandwidth_depth"/>
                      <par value="80" name="mod_wheel_depth"/>
                      <par_bool value="no" name="mod_wheel_exponential"/>
                      <par_bool value="yes" name="fm_amp_receive"/>
                      <par_bool value="yes" name="volume_receive"/>
                      <par_bool value="yes" name="sustain_receive"/>
                      <par_bool value="yes" name="portamento_receive"/>
                      <par value="64" name="portamento_time"/>
                      <par value="3" name="portamento_pitchthresh"/>
                      <par value="1" name="portamento_pitchthreshtype"/>
                      <par value="0" name="portamento_portamento"/>
                      <par value="64" name="portamento_updowntimestretch"/>
                      <par value="0" name="portamento_proportional"/>
                      <par value="80" name="portamento_proprate"/>
                      <par value="90" name="portamento_propdepth"/>
                      <par value="64" name="resonance_center_depth"/>
                      <par value="64" name="resonance_bandwidth_depth"/>
                    </CONTROLLER>
                  </PART>
                  <PART id="1">
                    <par_bool value="no" name="enabled"/>
                  </PART>
                  <PART id="2">
                    <par_bool value="no" name="enabled"/>
                  </PART>
                  <PART id="3">
                    <par_bool value="no" name="enabled"/>
                  </PART>
                  <PART id="4">
                    <par_bool value="no" name="enabled"/>
                  </PART>
                  <PART id="5">
                    <par_bool value="no" name="enabled"/>
                  </PART>
                  <PART id="6">
                    <par_bool value="no" name="enabled"/>
                  </PART>
                  <PART id="7">
                    <par_bool value="no" name="enabled"/>
                  </PART>
                  <PART id="8">
                    <par_bool value="no" name="enabled"/>
                  </PART>
                  <PART id="9">
                    <par_bool value="no" name="enabled"/>
                  </PART>
                  <PART id="10">
                    <par_bool value="no" name="enabled"/>
                  </PART>
                  <PART id="11">
                    <par_bool value="no" name="enabled"/>
                  </PART>
                  <PART id="12">
                    <par_bool value="no" name="enabled"/>
                  </PART>
                  <PART id="13">
                    <par_bool value="no" name="enabled"/>
                  </PART>
                  <PART id="14">
                    <par_bool value="no" name="enabled"/>
                  </PART>
                  <PART id="15">
                    <par_bool value="no" name="enabled"/>
                  </PART>
                  <SYSTEM_EFFECTS>
                    <SYSTEM_EFFECT id="0">
                      <EFFECT>
                        <par value="0" name="type"/>
                      </EFFECT>
                      <VOLUME id="0">
                        <par value="0" name="vol"/>
                      </VOLUME>
                      <VOLUME id="1">
                        <par value="0" name="vol"/>
                      </VOLUME>
                      <VOLUME id="2">
                        <par value="0" name="vol"/>
                      </VOLUME>
                      <VOLUME id="3">
                        <par value="0" name="vol"/>
                      </VOLUME>
                      <VOLUME id="4">
                        <par value="0" name="vol"/>
                      </VOLUME>
                      <VOLUME id="5">
                        <par value="0" name="vol"/>
                      </VOLUME>
                      <VOLUME id="6">
                        <par value="0" name="vol"/>
                      </VOLUME>
                      <VOLUME id="7">
                        <par value="0" name="vol"/>
                      </VOLUME>
                      <VOLUME id="8">
                        <par value="0" name="vol"/>
                      </VOLUME>
                      <VOLUME id="9">
                        <par value="0" name="vol"/>
                      </VOLUME>
                      <VOLUME id="10">
                        <par value="0" name="vol"/>
                      </VOLUME>
                      <VOLUME id="11">
                        <par value="0" name="vol"/>
                      </VOLUME>
                      <VOLUME id="12">
                        <par value="0" name="vol"/>
                      </VOLUME>
                      <VOLUME id="13">
                        <par value="0" name="vol"/>
                      </VOLUME>
                      <VOLUME id="14">
                        <par value="0" name="vol"/>
                      </VOLUME>
                      <VOLUME id="15">
                        <par value="0" name="vol"/>
                      </VOLUME>
                      <SENDTO id="1">
                        <par value="0" name="send_vol"/>
                      </SENDTO>
                      <SENDTO id="2">
                        <par value="0" name="send_vol"/>
                      </SENDTO>
                      <SENDTO id="3">
                        <par value="0" name="send_vol"/>
                      </SENDTO>
                    </SYSTEM_EFFECT>
                    <SYSTEM_EFFECT id="1">
                      <EFFECT>
                        <par value="0" name="type"/>
                      </EFFECT>
                      <VOLUME id="0">
                        <par value="0" name="vol"/>
                      </VOLUME>
                      <VOLUME id="1">
                        <par value="0" name="vol"/>
                      </VOLUME>
                      <VOLUME id="2">
                        <par value="0" name="vol"/>
                      </VOLUME>
                      <VOLUME id="3">
                        <par value="0" name="vol"/>
                      </VOLUME>
                      <VOLUME id="4">
                        <par value="0" name="vol"/>
                      </VOLUME>
                      <VOLUME id="5">
                        <par value="0" name="vol"/>
                      </VOLUME>
                      <VOLUME id="6">
                        <par value="0" name="vol"/>
                      </VOLUME>
                      <VOLUME id="7">
                        <par value="0" name="vol"/>
                      </VOLUME>
                      <VOLUME id="8">
                        <par value="0" name="vol"/>
                      </VOLUME>
                      <VOLUME id="9">
                        <par value="0" name="vol"/>
                      </VOLUME>
                      <VOLUME id="10">
                        <par value="0" name="vol"/>
                      </VOLUME>
                      <VOLUME id="11">
                        <par value="0" name="vol"/>
                      </VOLUME>
                      <VOLUME id="12">
                        <par value="0" name="vol"/>
                      </VOLUME>
                      <VOLUME id="13">
                        <par value="0" name="vol"/>
                      </VOLUME>
                      <VOLUME id="14">
                        <par value="0" name="vol"/>
                      </VOLUME>
                      <VOLUME id="15">
                        <par value="0" name="vol"/>
                      </VOLUME>
                      <SENDTO id="2">
                        <par value="0" name="send_vol"/>
                      </SENDTO>
                      <SENDTO id="3">
                        <par value="0" name="send_vol"/>
                      </SENDTO>
                    </SYSTEM_EFFECT>
                    <SYSTEM_EFFECT id="2">
                      <EFFECT>
                        <par value="0" name="type"/>
                      </EFFECT>
                      <VOLUME id="0">
                        <par value="0" name="vol"/>
                      </VOLUME>
                      <VOLUME id="1">
                        <par value="0" name="vol"/>
                      </VOLUME>
                      <VOLUME id="2">
                        <par value="0" name="vol"/>
                      </VOLUME>
                      <VOLUME id="3">
                        <par value="0" name="vol"/>
                      </VOLUME>
                      <VOLUME id="4">
                        <par value="0" name="vol"/>
                      </VOLUME>
                      <VOLUME id="5">
                        <par value="0" name="vol"/>
                      </VOLUME>
                      <VOLUME id="6">
                        <par value="0" name="vol"/>
                      </VOLUME>
                      <VOLUME id="7">
                        <par value="0" name="vol"/>
                      </VOLUME>
                      <VOLUME id="8">
                        <par value="0" name="vol"/>
                      </VOLUME>
                      <VOLUME id="9">
                        <par value="0" name="vol"/>
                      </VOLUME>
                      <VOLUME id="10">
                        <par value="0" name="vol"/>
                      </VOLUME>
                      <VOLUME id="11">
                        <par value="0" name="vol"/>
                      </VOLUME>
                      <VOLUME id="12">
                        <par value="0" name="vol"/>
                      </VOLUME>
                      <VOLUME id="13">
                        <par value="0" name="vol"/>
                      </VOLUME>
                      <VOLUME id="14">
                        <par value="0" name="vol"/>
                      </VOLUME>
                      <VOLUME id="15">
                        <par value="0" name="vol"/>
                      </VOLUME>
                      <SENDTO id="3">
                        <par value="0" name="send_vol"/>
                      </SENDTO>
                    </SYSTEM_EFFECT>
                    <SYSTEM_EFFECT id="3">
                      <EFFECT>
                        <par value="0" name="type"/>
                      </EFFECT>
                      <VOLUME id="0">
                        <par value="0" name="vol"/>
                      </VOLUME>
                      <VOLUME id="1">
                        <par value="0" name="vol"/>
                      </VOLUME>
                      <VOLUME id="2">
                        <par value="0" name="vol"/>
                      </VOLUME>
                      <VOLUME id="3">
                        <par value="0" name="vol"/>
                      </VOLUME>
                      <VOLUME id="4">
                        <par value="0" name="vol"/>
                      </VOLUME>
                      <VOLUME id="5">
                        <par value="0" name="vol"/>
                      </VOLUME>
                      <VOLUME id="6">
                        <par value="0" name="vol"/>
                      </VOLUME>
                      <VOLUME id="7">
                        <par value="0" name="vol"/>
                      </VOLUME>
                      <VOLUME id="8">
                        <par value="0" name="vol"/>
                      </VOLUME>
                      <VOLUME id="9">
                        <par value="0" name="vol"/>
                      </VOLUME>
                      <VOLUME id="10">
                        <par value="0" name="vol"/>
                      </VOLUME>
                      <VOLUME id="11">
                        <par value="0" name="vol"/>
                      </VOLUME>
                      <VOLUME id="12">
                        <par value="0" name="vol"/>
                      </VOLUME>
                      <VOLUME id="13">
                        <par value="0" name="vol"/>
                      </VOLUME>
                      <VOLUME id="14">
                        <par value="0" name="vol"/>
                      </VOLUME>
                      <VOLUME id="15">
                        <par value="0" name="vol"/>
                      </VOLUME>
                    </SYSTEM_EFFECT>
                  </SYSTEM_EFFECTS>
                  <INSERTION_EFFECTS>
                    <INSERTION_EFFECT id="0">
                      <par value="-1" name="part"/>
                      <EFFECT>
                        <par value="0" name="type"/>
                      </EFFECT>
                    </INSERTION_EFFECT>
                    <INSERTION_EFFECT id="1">
                      <par value="-1" name="part"/>
                      <EFFECT>
                        <par value="0" name="type"/>
                      </EFFECT>
                    </INSERTION_EFFECT>
                    <INSERTION_EFFECT id="2">
                      <par value="-1" name="part"/>
                      <EFFECT>
                        <par value="0" name="type"/>
                      </EFFECT>
                    </INSERTION_EFFECT>
                    <INSERTION_EFFECT id="3">
                      <par value="-1" name="part"/>
                      <EFFECT>
                        <par value="0" name="type"/>
                      </EFFECT>
                    </INSERTION_EFFECT>
                    <INSERTION_EFFECT id="4">
                      <par value="-1" name="part"/>
                      <EFFECT>
                        <par value="0" name="type"/>
                      </EFFECT>
                    </INSERTION_EFFECT>
                    <INSERTION_EFFECT id="5">
                      <par value="-1" name="part"/>
                      <EFFECT>
                        <par value="0" name="type"/>
                      </EFFECT>
                    </INSERTION_EFFECT>
                    <INSERTION_EFFECT id="6">
                      <par value="-1" name="part"/>
                      <EFFECT>
                        <par value="0" name="type"/>
                      </EFFECT>
                    </INSERTION_EFFECT>
                    <INSERTION_EFFECT id="7">
                      <par value="-1" name="part"/>
                      <EFFECT>
                        <par value="0" name="type"/>
                      </EFFECT>
                    </INSERTION_EFFECT>
                  </INSERTION_EFFECTS>
                </MASTER>
              </ZynAddSubFX-data>
            </zynaddsubfx>
          </instrument>
          <eldata fwet="0" ftype="0" fcut="14000" fres="0.5">
            <elvol ctlenvamt="0" lamt="0" amt="0" latt="0" lspd_syncmode="0" dec="0.5" lpdel="0" att="0" lspd_denominator="4" hold="0.5" lspd="0.1" lspd_numerator="4" sustain="0.5" lshp="0" pdel="0" x100="0" rel="0.1" userwavefile=""/>
            <elcut ctlenvamt="0" lamt="0" amt="0" latt="0" lspd_syncmode="0" dec="0.5" lpdel="0" att="0" lspd_denominator="4" hold="0.5" lspd="0.1" lspd_numerator="4" sustain="0.5" lshp="0" pdel="0" x100="0" rel="0.1" userwavefile=""/>
            <elres ctlenvamt="0" lamt="0" amt="0" latt="0" lspd_syncmode="0" dec="0.5" lpdel="0" att="0" lspd_denominator="4" hold="0.5" lspd="0.1" lspd_numerator="4" sustain="0.5" lshp="0" pdel="0" x100="0" rel="0.1" userwavefile=""/>
          </eldata>
          <chordcreator chordrange="1" chord-enabled="0" chord="0"/>
          <arpeggiator arptime_syncmode="0" arpdir="0" arptime_numerator="4" arpmode="0" arp="0" arpmiss="0" arptime="200" arpgate="100" arp-enabled="0" arpskip="0" arptime_denominator="4" arprange="1" arpcycle="0"/>
          <midiport writable="0" fixedinputvelocity="-1" outputchannel="1" fixedoutputvelocity="-1" outputcontroller="0" basevelocity="63" fixedoutputnote="-1" inputchannel="0" inputcontroller="0" outputprogram="1" readable="0"/>
          <fxchain numofeffects="0" enabled="0"/>
        </instrumenttrack>
        <pattern steps="16" muted="0" type="1" pos="6528" name="spacey synth">
          <note key="79" pos="0" len="384" vol="170" pan="0"/>
          <note key="75" pos="0" len="384" vol="170" pan="0"/>
          <note key="72" pos="0" len="384" vol="170" pan="0"/>
          <note key="80" pos="384" len="144" vol="170" pan="0"/>
          <note key="75" pos="384" len="144" vol="170" pan="0"/>
          <note key="72" pos="384" len="144" vol="170" pan="0"/>
          <note key="82" pos="528" len="240" vol="170" pan="0"/>
          <note key="77" pos="528" len="240" vol="170" pan="0"/>
          <note key="74" pos="528" len="240" vol="170" pan="0"/>
        </pattern>
        <pattern steps="16" muted="0" type="1" pos="7296" name="spacey synth">
          <note key="79" pos="0" len="384" vol="170" pan="0"/>
          <note key="75" pos="0" len="384" vol="170" pan="0"/>
          <note key="72" pos="0" len="384" vol="170" pan="0"/>
          <note key="80" pos="384" len="144" vol="170" pan="0"/>
          <note key="75" pos="384" len="144" vol="170" pan="0"/>
          <note key="72" pos="384" len="144" vol="170" pan="0"/>
          <note key="82" pos="528" len="240" vol="170" pan="0"/>
          <note key="77" pos="528" len="240" vol="170" pan="0"/>
          <note key="74" pos="528" len="240" vol="170" pan="0"/>
        </pattern>
        <pattern steps="16" muted="0" type="1" pos="12672" name="spacey synth">
          <note key="79" pos="0" len="384" vol="170" pan="0"/>
          <note key="72" pos="0" len="384" vol="170" pan="0"/>
          <note key="80" pos="384" len="384" vol="170" pan="0"/>
          <note key="75" pos="384" len="384" vol="170" pan="0"/>
          <note key="79" pos="768" len="384" vol="170" pan="0"/>
          <note key="75" pos="768" len="384" vol="170" pan="0"/>
        </pattern>
        <pattern steps="16" muted="0" type="1" pos="1920" name="spacey synth">
          <note key="75" pos="0" len="192" vol="197" pan="0"/>
          <note key="72" pos="0" len="192" vol="197" pan="0"/>
          <note key="67" pos="0" len="192" vol="197" pan="0"/>
          <note key="75" pos="192" len="96" vol="197" pan="0"/>
          <note key="70" pos="192" len="96" vol="197" pan="0"/>
          <note key="67" pos="192" len="96" vol="197" pan="0"/>
          <note key="77" pos="288" len="96" vol="197" pan="0"/>
          <note key="72" pos="288" len="96" vol="197" pan="0"/>
          <note key="68" pos="288" len="96" vol="197" pan="0"/>
        </pattern>
        <pattern steps="16" muted="0" type="1" pos="2688" name="spacey synth">
          <note key="72" pos="0" len="192" vol="197" pan="0"/>
          <note key="68" pos="0" len="192" vol="197" pan="0"/>
          <note key="65" pos="0" len="192" vol="197" pan="0"/>
          <note key="74" pos="192" len="192" vol="197" pan="0"/>
          <note key="70" pos="192" len="192" vol="197" pan="0"/>
          <note key="65" pos="192" len="192" vol="197" pan="0"/>
        </pattern>
        <pattern steps="16" muted="0" type="1" pos="3456" name="spacey synth">
          <note key="75" pos="0" len="192" vol="197" pan="0"/>
          <note key="72" pos="0" len="192" vol="197" pan="0"/>
          <note key="67" pos="0" len="192" vol="197" pan="0"/>
          <note key="75" pos="192" len="96" vol="197" pan="0"/>
          <note key="70" pos="192" len="96" vol="197" pan="0"/>
          <note key="67" pos="192" len="96" vol="197" pan="0"/>
          <note key="77" pos="288" len="96" vol="197" pan="0"/>
          <note key="72" pos="288" len="96" vol="197" pan="0"/>
          <note key="68" pos="288" len="96" vol="197" pan="0"/>
        </pattern>
        <pattern steps="16" muted="0" type="1" pos="4224" name="spacey synth">
          <note key="72" pos="0" len="192" vol="197" pan="0"/>
          <note key="68" pos="0" len="192" vol="197" pan="0"/>
          <note key="65" pos="0" len="192" vol="197" pan="0"/>
          <note key="74" pos="192" len="192" vol="197" pan="0"/>
          <note key="70" pos="192" len="192" vol="197" pan="0"/>
          <note key="65" pos="192" len="192" vol="197" pan="0"/>
        </pattern>
        <pattern steps="16" muted="0" type="1" pos="4608" name="spacey synth">
          <note key="75" pos="0" len="192" vol="197" pan="0"/>
          <note key="70" pos="0" len="192" vol="197" pan="0"/>
          <note key="67" pos="0" len="192" vol="197" pan="0"/>
          <note key="74" pos="192" len="192" vol="197" pan="0"/>
          <note key="71" pos="192" len="192" vol="197" pan="0"/>
          <note key="67" pos="192" len="192" vol="197" pan="0"/>
        </pattern>
        <pattern steps="16" muted="0" type="1" pos="4992" name="spacey synth">
          <note key="60" pos="0" len="384" vol="176" pan="0"/>
          <note key="68" pos="384" len="144" vol="176" pan="0"/>
          <note key="70" pos="528" len="240" vol="176" pan="0"/>
        </pattern>
        <pattern steps="16" muted="0" type="1" pos="5760" name="spacey synth">
          <note key="60" pos="0" len="384" vol="176" pan="0"/>
          <note key="68" pos="384" len="144" vol="176" pan="0"/>
          <note key="70" pos="528" len="240" vol="176" pan="0"/>
        </pattern>
        <pattern steps="16" muted="0" type="1" pos="20736" name="spacey synth">
          <note key="75" pos="0" len="192" vol="197" pan="0"/>
          <note key="72" pos="0" len="192" vol="197" pan="0"/>
          <note key="67" pos="0" len="192" vol="197" pan="0"/>
          <note key="75" pos="192" len="96" vol="197" pan="0"/>
          <note key="70" pos="192" len="96" vol="197" pan="0"/>
          <note key="67" pos="192" len="96" vol="197" pan="0"/>
          <note key="77" pos="288" len="96" vol="197" pan="0"/>
          <note key="72" pos="288" len="96" vol="197" pan="0"/>
          <note key="68" pos="288" len="96" vol="197" pan="0"/>
        </pattern>
        <pattern steps="16" muted="0" type="1" pos="21504" name="spacey synth">
          <note key="72" pos="0" len="192" vol="197" pan="0"/>
          <note key="68" pos="0" len="192" vol="197" pan="0"/>
          <note key="65" pos="0" len="192" vol="197" pan="0"/>
          <note key="74" pos="192" len="192" vol="197" pan="0"/>
          <note key="70" pos="192" len="192" vol="197" pan="0"/>
          <note key="65" pos="192" len="192" vol="197" pan="0"/>
        </pattern>
        <pattern steps="16" muted="0" type="1" pos="22272" name="spacey synth">
          <note key="75" pos="0" len="192" vol="197" pan="0"/>
          <note key="72" pos="0" len="192" vol="197" pan="0"/>
          <note key="67" pos="0" len="192" vol="197" pan="0"/>
          <note key="75" pos="192" len="96" vol="197" pan="0"/>
          <note key="70" pos="192" len="96" vol="197" pan="0"/>
          <note key="67" pos="192" len="96" vol="197" pan="0"/>
          <note key="77" pos="288" len="96" vol="197" pan="0"/>
          <note key="72" pos="288" len="96" vol="197" pan="0"/>
          <note key="68" pos="288" len="96" vol="197" pan="0"/>
        </pattern>
        <pattern steps="16" muted="0" type="1" pos="23040" name="spacey synth">
          <note key="72" pos="0" len="192" vol="197" pan="0"/>
          <note key="68" pos="0" len="192" vol="197" pan="0"/>
          <note key="65" pos="0" len="192" vol="197" pan="0"/>
          <note key="74" pos="192" len="192" vol="197" pan="0"/>
          <note key="70" pos="192" len="192" vol="197" pan="0"/>
          <note key="65" pos="192" len="192" vol="197" pan="0"/>
        </pattern>
        <pattern steps="16" muted="0" type="1" pos="23424" name="spacey synth">
          <note key="75" pos="0" len="192" vol="197" pan="0"/>
          <note key="70" pos="0" len="192" vol="197" pan="0"/>
          <note key="67" pos="0" len="192" vol="197" pan="0"/>
          <note key="74" pos="192" len="192" vol="197" pan="0"/>
          <note key="71" pos="192" len="192" vol="197" pan="0"/>
          <note key="67" pos="192" len="192" vol="197" pan="0"/>
        </pattern>
        <pattern steps="16" muted="0" type="1" pos="23808" name="spacey synth">
          <note key="60" pos="0" len="384" vol="176" pan="0"/>
          <note key="68" pos="384" len="144" vol="176" pan="0"/>
          <note key="70" pos="528" len="240" vol="176" pan="0"/>
        </pattern>
        <pattern steps="16" muted="0" type="1" pos="24576" name="spacey synth">
          <note key="60" pos="0" len="384" vol="176" pan="0"/>
          <note key="68" pos="384" len="144" vol="176" pan="0"/>
          <note key="70" pos="528" len="240" vol="176" pan="0"/>
        </pattern>
        <pattern steps="16" muted="0" type="1" pos="17280" name="">
          <note key="81" pos="0" len="6" vol="185" pan="0"/>
          <note key="77" pos="0" len="6" vol="185" pan="0"/>
          <note key="74" pos="0" len="6" vol="185" pan="0"/>
          <note key="81" pos="12" len="6" vol="185" pan="0"/>
          <note key="77" pos="12" len="6" vol="185" pan="0"/>
          <note key="74" pos="12" len="6" vol="185" pan="0"/>
          <note key="81" pos="24" len="6" vol="185" pan="0"/>
          <note key="77" pos="24" len="6" vol="185" pan="0"/>
          <note key="74" pos="24" len="6" vol="185" pan="0"/>
          <note key="81" pos="36" len="6" vol="185" pan="0"/>
          <note key="77" pos="36" len="6" vol="185" pan="0"/>
          <note key="74" pos="36" len="6" vol="185" pan="0"/>
          <note key="81" pos="48" len="24" vol="185" pan="0"/>
          <note key="77" pos="48" len="24" vol="185" pan="0"/>
          <note key="74" pos="48" len="24" vol="185" pan="0"/>
          <note key="81" pos="72" len="6" vol="185" pan="0"/>
          <note key="77" pos="72" len="6" vol="185" pan="0"/>
          <note key="74" pos="72" len="6" vol="185" pan="0"/>
          <note key="81" pos="84" len="6" vol="185" pan="0"/>
          <note key="77" pos="84" len="6" vol="185" pan="0"/>
          <note key="74" pos="84" len="6" vol="185" pan="0"/>
          <note key="81" pos="96" len="6" vol="185" pan="0"/>
          <note key="77" pos="96" len="6" vol="185" pan="0"/>
          <note key="74" pos="96" len="6" vol="185" pan="0"/>
          <note key="81" pos="108" len="6" vol="185" pan="0"/>
          <note key="77" pos="108" len="6" vol="185" pan="0"/>
          <note key="74" pos="108" len="6" vol="185" pan="0"/>
          <note key="81" pos="120" len="6" vol="185" pan="0"/>
          <note key="77" pos="120" len="6" vol="185" pan="0"/>
          <note key="74" pos="120" len="6" vol="185" pan="0"/>
          <note key="81" pos="132" len="6" vol="185" pan="0"/>
          <note key="77" pos="132" len="6" vol="185" pan="0"/>
          <note key="74" pos="132" len="6" vol="185" pan="0"/>
          <note key="81" pos="144" len="24" vol="185" pan="0"/>
          <note key="77" pos="144" len="24" vol="185" pan="0"/>
          <note key="74" pos="144" len="24" vol="185" pan="0"/>
          <note key="81" pos="168" len="6" vol="185" pan="0"/>
          <note key="77" pos="168" len="6" vol="185" pan="0"/>
          <note key="74" pos="168" len="6" vol="185" pan="0"/>
          <note key="81" pos="180" len="6" vol="185" pan="0"/>
          <note key="77" pos="180" len="6" vol="185" pan="0"/>
          <note key="74" pos="180" len="6" vol="185" pan="0"/>
          <note key="79" pos="192" len="6" vol="185" pan="0"/>
          <note key="76" pos="192" len="6" vol="185" pan="0"/>
          <note key="72" pos="192" len="6" vol="185" pan="0"/>
          <note key="79" pos="204" len="6" vol="185" pan="0"/>
          <note key="76" pos="204" len="6" vol="185" pan="0"/>
          <note key="72" pos="204" len="6" vol="185" pan="0"/>
          <note key="79" pos="216" len="6" vol="185" pan="0"/>
          <note key="76" pos="216" len="6" vol="185" pan="0"/>
          <note key="72" pos="216" len="6" vol="185" pan="0"/>
          <note key="79" pos="228" len="6" vol="185" pan="0"/>
          <note key="76" pos="228" len="6" vol="185" pan="0"/>
          <note key="72" pos="228" len="6" vol="185" pan="0"/>
          <note key="79" pos="240" len="24" vol="185" pan="0"/>
          <note key="76" pos="240" len="24" vol="185" pan="0"/>
          <note key="72" pos="240" len="24" vol="185" pan="0"/>
          <note key="77" pos="264" len="24" vol="185" pan="0"/>
          <note key="74" pos="264" len="24" vol="185" pan="0"/>
          <note key="70" pos="264" len="24" vol="185" pan="0"/>
          <note key="77" pos="288" len="6" vol="185" pan="0"/>
          <note key="74" pos="288" len="6" vol="185" pan="0"/>
          <note key="70" pos="288" len="6" vol="185" pan="0"/>
          <note key="77" pos="300" len="6" vol="185" pan="0"/>
          <note key="74" pos="300" len="6" vol="185" pan="0"/>
          <note key="70" pos="300" len="6" vol="185" pan="0"/>
          <note key="77" pos="312" len="6" vol="185" pan="0"/>
          <note key="74" pos="312" len="6" vol="185" pan="0"/>
          <note key="70" pos="312" len="6" vol="185" pan="0"/>
          <note key="77" pos="324" len="6" vol="185" pan="0"/>
          <note key="74" pos="324" len="6" vol="185" pan="0"/>
          <note key="70" pos="324" len="6" vol="185" pan="0"/>
          <note key="77" pos="336" len="6" vol="185" pan="0"/>
          <note key="74" pos="336" len="6" vol="185" pan="0"/>
          <note key="70" pos="336" len="6" vol="185" pan="0"/>
          <note key="77" pos="348" len="6" vol="185" pan="0"/>
          <note key="74" pos="348" len="6" vol="185" pan="0"/>
          <note key="70" pos="348" len="6" vol="185" pan="0"/>
          <note key="77" pos="360" len="6" vol="185" pan="0"/>
          <note key="74" pos="360" len="6" vol="185" pan="0"/>
          <note key="70" pos="360" len="6" vol="185" pan="0"/>
          <note key="77" pos="372" len="6" vol="185" pan="0"/>
          <note key="74" pos="372" len="6" vol="185" pan="0"/>
          <note key="70" pos="372" len="6" vol="185" pan="0"/>
        </pattern>
        <pattern steps="16" muted="0" type="1" pos="17664" name="">
          <note key="81" pos="0" len="6" vol="185" pan="0"/>
          <note key="77" pos="0" len="6" vol="185" pan="0"/>
          <note key="72" pos="0" len="6" vol="185" pan="0"/>
          <note key="81" pos="12" len="6" vol="185" pan="0"/>
          <note key="77" pos="12" len="6" vol="185" pan="0"/>
          <note key="72" pos="12" len="6" vol="185" pan="0"/>
          <note key="81" pos="24" len="6" vol="185" pan="0"/>
          <note key="77" pos="24" len="6" vol="185" pan="0"/>
          <note key="72" pos="24" len="6" vol="185" pan="0"/>
          <note key="81" pos="36" len="6" vol="185" pan="0"/>
          <note key="77" pos="36" len="6" vol="185" pan="0"/>
          <note key="72" pos="36" len="6" vol="185" pan="0"/>
          <note key="81" pos="48" len="24" vol="185" pan="0"/>
          <note key="77" pos="48" len="24" vol="185" pan="0"/>
          <note key="72" pos="48" len="24" vol="185" pan="0"/>
          <note key="81" pos="72" len="6" vol="185" pan="0"/>
          <note key="77" pos="72" len="6" vol="185" pan="0"/>
          <note key="72" pos="72" len="6" vol="185" pan="0"/>
          <note key="81" pos="84" len="6" vol="185" pan="0"/>
          <note key="77" pos="84" len="6" vol="185" pan="0"/>
          <note key="72" pos="84" len="6" vol="185" pan="0"/>
          <note key="81" pos="96" len="6" vol="185" pan="0"/>
          <note key="77" pos="96" len="6" vol="185" pan="0"/>
          <note key="72" pos="96" len="6" vol="185" pan="0"/>
          <note key="81" pos="108" len="6" vol="185" pan="0"/>
          <note key="77" pos="108" len="6" vol="185" pan="0"/>
          <note key="72" pos="108" len="6" vol="185" pan="0"/>
          <note key="81" pos="120" len="6" vol="185" pan="0"/>
          <note key="77" pos="120" len="6" vol="185" pan="0"/>
          <note key="72" pos="120" len="6" vol="185" pan="0"/>
          <note key="81" pos="132" len="6" vol="185" pan="0"/>
          <note key="77" pos="132" len="6" vol="185" pan="0"/>
          <note key="72" pos="132" len="6" vol="185" pan="0"/>
          <note key="81" pos="144" len="24" vol="185" pan="0"/>
          <note key="77" pos="144" len="24" vol="185" pan="0"/>
          <note key="72" pos="144" len="24" vol="185" pan="0"/>
          <note key="81" pos="168" len="6" vol="185" pan="0"/>
          <note key="77" pos="168" len="6" vol="185" pan="0"/>
          <note key="72" pos="168" len="6" vol="185" pan="0"/>
          <note key="81" pos="180" len="6" vol="185" pan="0"/>
          <note key="77" pos="180" len="6" vol="185" pan="0"/>
          <note key="72" pos="180" len="6" vol="185" pan="0"/>
          <note key="82" pos="192" len="6" vol="185" pan="0"/>
          <note key="79" pos="192" len="6" vol="185" pan="0"/>
          <note key="74" pos="192" len="6" vol="185" pan="0"/>
          <note key="82" pos="204" len="6" vol="185" pan="0"/>
          <note key="79" pos="204" len="6" vol="185" pan="0"/>
          <note key="74" pos="204" len="6" vol="185" pan="0"/>
          <note key="82" pos="216" len="6" vol="185" pan="0"/>
          <note key="79" pos="216" len="6" vol="185" pan="0"/>
          <note key="74" pos="216" len="6" vol="185" pan="0"/>
          <note key="82" pos="228" len="6" vol="185" pan="0"/>
          <note key="79" pos="228" len="6" vol="185" pan="0"/>
          <note key="74" pos="228" len="6" vol="185" pan="0"/>
          <note key="82" pos="240" len="24" vol="185" pan="0"/>
          <note key="79" pos="240" len="24" vol="185" pan="0"/>
          <note key="74" pos="240" len="24" vol="185" pan="0"/>
          <note key="81" pos="264" len="24" vol="185" pan="0"/>
          <note key="77" pos="264" len="24" vol="185" pan="0"/>
          <note key="74" pos="264" len="24" vol="185" pan="0"/>
          <note key="81" pos="288" len="6" vol="185" pan="0"/>
          <note key="77" pos="288" len="6" vol="185" pan="0"/>
          <note key="74" pos="288" len="6" vol="185" pan="0"/>
          <note key="81" pos="300" len="6" vol="185" pan="0"/>
          <note key="77" pos="300" len="6" vol="185" pan="0"/>
          <note key="74" pos="300" len="6" vol="185" pan="0"/>
          <note key="81" pos="312" len="6" vol="185" pan="0"/>
          <note key="77" pos="312" len="6" vol="185" pan="0"/>
          <note key="74" pos="312" len="6" vol="185" pan="0"/>
          <note key="81" pos="324" len="6" vol="185" pan="0"/>
          <note key="77" pos="324" len="6" vol="185" pan="0"/>
          <note key="74" pos="324" len="6" vol="185" pan="0"/>
          <note key="81" pos="336" len="6" vol="185" pan="0"/>
          <note key="77" pos="336" len="6" vol="185" pan="0"/>
          <note key="74" pos="336" len="6" vol="185" pan="0"/>
          <note key="81" pos="348" len="6" vol="185" pan="0"/>
          <note key="77" pos="348" len="6" vol="185" pan="0"/>
          <note key="74" pos="348" len="6" vol="185" pan="0"/>
          <note key="81" pos="360" len="6" vol="185" pan="0"/>
          <note key="77" pos="360" len="6" vol="185" pan="0"/>
          <note key="74" pos="360" len="6" vol="185" pan="0"/>
          <note key="81" pos="372" len="6" vol="185" pan="0"/>
          <note key="77" pos="372" len="6" vol="185" pan="0"/>
          <note key="74" pos="372" len="6" vol="185" pan="0"/>
        </pattern>
        <pattern steps="16" muted="0" type="1" pos="18048" name="">
          <note key="81" pos="0" len="6" vol="185" pan="0"/>
          <note key="77" pos="0" len="6" vol="185" pan="0"/>
          <note key="74" pos="0" len="6" vol="185" pan="0"/>
          <note key="81" pos="12" len="6" vol="185" pan="0"/>
          <note key="77" pos="12" len="6" vol="185" pan="0"/>
          <note key="74" pos="12" len="6" vol="185" pan="0"/>
          <note key="81" pos="24" len="6" vol="185" pan="0"/>
          <note key="77" pos="24" len="6" vol="185" pan="0"/>
          <note key="74" pos="24" len="6" vol="185" pan="0"/>
          <note key="81" pos="36" len="6" vol="185" pan="0"/>
          <note key="77" pos="36" len="6" vol="185" pan="0"/>
          <note key="74" pos="36" len="6" vol="185" pan="0"/>
          <note key="81" pos="48" len="24" vol="185" pan="0"/>
          <note key="77" pos="48" len="24" vol="185" pan="0"/>
          <note key="74" pos="48" len="24" vol="185" pan="0"/>
          <note key="81" pos="72" len="6" vol="185" pan="0"/>
          <note key="77" pos="72" len="6" vol="185" pan="0"/>
          <note key="74" pos="72" len="6" vol="185" pan="0"/>
          <note key="81" pos="84" len="6" vol="185" pan="0"/>
          <note key="77" pos="84" len="6" vol="185" pan="0"/>
          <note key="74" pos="84" len="6" vol="185" pan="0"/>
          <note key="81" pos="96" len="6" vol="185" pan="0"/>
          <note key="77" pos="96" len="6" vol="185" pan="0"/>
          <note key="74" pos="96" len="6" vol="185" pan="0"/>
          <note key="81" pos="108" len="6" vol="185" pan="0"/>
          <note key="77" pos="108" len="6" vol="185" pan="0"/>
          <note key="74" pos="108" len="6" vol="185" pan="0"/>
          <note key="81" pos="120" len="6" vol="185" pan="0"/>
          <note key="77" pos="120" len="6" vol="185" pan="0"/>
          <note key="74" pos="120" len="6" vol="185" pan="0"/>
          <note key="81" pos="132" len="6" vol="185" pan="0"/>
          <note key="77" pos="132" len="6" vol="185" pan="0"/>
          <note key="74" pos="132" len="6" vol="185" pan="0"/>
          <note key="81" pos="144" len="24" vol="185" pan="0"/>
          <note key="77" pos="144" len="24" vol="185" pan="0"/>
          <note key="74" pos="144" len="24" vol="185" pan="0"/>
          <note key="81" pos="168" len="6" vol="185" pan="0"/>
          <note key="77" pos="168" len="6" vol="185" pan="0"/>
          <note key="74" pos="168" len="6" vol="185" pan="0"/>
          <note key="81" pos="180" len="6" vol="185" pan="0"/>
          <note key="77" pos="180" len="6" vol="185" pan="0"/>
          <note key="74" pos="180" len="6" vol="185" pan="0"/>
          <note key="84" pos="192" len="6" vol="185" pan="0"/>
          <note key="79" pos="192" len="6" vol="185" pan="0"/>
          <note key="76" pos="192" len="6" vol="185" pan="0"/>
          <note key="84" pos="204" len="6" vol="185" pan="0"/>
          <note key="79" pos="204" len="6" vol="185" pan="0"/>
          <note key="76" pos="204" len="6" vol="185" pan="0"/>
          <note key="84" pos="216" len="6" vol="185" pan="0"/>
          <note key="79" pos="216" len="6" vol="185" pan="0"/>
          <note key="76" pos="216" len="6" vol="185" pan="0"/>
          <note key="84" pos="228" len="6" vol="185" pan="0"/>
          <note key="79" pos="228" len="6" vol="185" pan="0"/>
          <note key="76" pos="228" len="6" vol="185" pan="0"/>
          <note key="84" pos="240" len="24" vol="185" pan="0"/>
          <note key="79" pos="240" len="24" vol="185" pan="0"/>
          <note key="76" pos="240" len="24" vol="185" pan="0"/>
          <note key="86" pos="264" len="24" vol="185" pan="0"/>
          <note key="82" pos="264" len="24" vol="185" pan="0"/>
          <note key="77" pos="264" len="24" vol="185" pan="0"/>
          <note key="86" pos="288" len="6" vol="185" pan="0"/>
          <note key="82" pos="288" len="6" vol="185" pan="0"/>
          <note key="77" pos="288" len="6" vol="185" pan="0"/>
          <note key="86" pos="300" len="6" vol="185" pan="0"/>
          <note key="82" pos="300" len="6" vol="185" pan="0"/>
          <note key="77" pos="300" len="6" vol="185" pan="0"/>
          <note key="86" pos="312" len="6" vol="185" pan="0"/>
          <note key="82" pos="312" len="6" vol="185" pan="0"/>
          <note key="77" pos="312" len="6" vol="185" pan="0"/>
          <note key="86" pos="324" len="6" vol="185" pan="0"/>
          <note key="82" pos="324" len="6" vol="185" pan="0"/>
          <note key="77" pos="324" len="6" vol="185" pan="0"/>
          <note key="86" pos="336" len="6" vol="185" pan="0"/>
          <note key="82" pos="336" len="6" vol="185" pan="0"/>
          <note key="77" pos="336" len="6" vol="185" pan="0"/>
          <note key="86" pos="348" len="6" vol="185" pan="0"/>
          <note key="82" pos="348" len="6" vol="185" pan="0"/>
          <note key="77" pos="348" len="6" vol="185" pan="0"/>
          <note key="86" pos="360" len="6" vol="185" pan="0"/>
          <note key="82" pos="360" len="6" vol="185" pan="0"/>
          <note key="77" pos="360" len="6" vol="185" pan="0"/>
          <note key="86" pos="372" len="6" vol="185" pan="0"/>
          <note key="82" pos="372" len="6" vol="185" pan="0"/>
          <note key="77" pos="372" len="6" vol="185" pan="0"/>
        </pattern>
        <pattern steps="16" muted="0" type="1" pos="18432" name="">
          <note key="84" pos="0" len="6" vol="185" pan="0"/>
          <note key="81" pos="0" len="6" vol="185" pan="0"/>
          <note key="77" pos="0" len="6" vol="185" pan="0"/>
          <note key="84" pos="12" len="6" vol="185" pan="0"/>
          <note key="81" pos="12" len="6" vol="185" pan="0"/>
          <note key="77" pos="12" len="6" vol="185" pan="0"/>
          <note key="84" pos="24" len="6" vol="185" pan="0"/>
          <note key="81" pos="24" len="6" vol="185" pan="0"/>
          <note key="77" pos="24" len="6" vol="185" pan="0"/>
          <note key="84" pos="36" len="6" vol="185" pan="0"/>
          <note key="81" pos="36" len="6" vol="185" pan="0"/>
          <note key="77" pos="36" len="6" vol="185" pan="0"/>
          <note key="84" pos="48" len="24" vol="185" pan="0"/>
          <note key="81" pos="48" len="24" vol="185" pan="0"/>
          <note key="77" pos="48" len="24" vol="185" pan="0"/>
          <note key="84" pos="72" len="6" vol="185" pan="0"/>
          <note key="81" pos="72" len="6" vol="185" pan="0"/>
          <note key="77" pos="72" len="6" vol="185" pan="0"/>
          <note key="84" pos="84" len="6" vol="185" pan="0"/>
          <note key="81" pos="84" len="6" vol="185" pan="0"/>
          <note key="77" pos="84" len="6" vol="185" pan="0"/>
          <note key="84" pos="96" len="6" vol="185" pan="0"/>
          <note key="81" pos="96" len="6" vol="185" pan="0"/>
          <note key="77" pos="96" len="6" vol="185" pan="0"/>
          <note key="84" pos="108" len="6" vol="185" pan="0"/>
          <note key="81" pos="108" len="6" vol="185" pan="0"/>
          <note key="77" pos="108" len="6" vol="185" pan="0"/>
          <note key="84" pos="120" len="6" vol="185" pan="0"/>
          <note key="81" pos="120" len="6" vol="185" pan="0"/>
          <note key="77" pos="120" len="6" vol="185" pan="0"/>
          <note key="84" pos="132" len="6" vol="185" pan="0"/>
          <note key="81" pos="132" len="6" vol="185" pan="0"/>
          <note key="77" pos="132" len="6" vol="185" pan="0"/>
          <note key="84" pos="144" len="24" vol="185" pan="0"/>
          <note key="81" pos="144" len="24" vol="185" pan="0"/>
          <note key="77" pos="144" len="24" vol="185" pan="0"/>
          <note key="84" pos="168" len="6" vol="185" pan="0"/>
          <note key="81" pos="168" len="6" vol="185" pan="0"/>
          <note key="77" pos="168" len="6" vol="185" pan="0"/>
          <note key="84" pos="180" len="6" vol="185" pan="0"/>
          <note key="81" pos="180" len="6" vol="185" pan="0"/>
          <note key="77" pos="180" len="6" vol="185" pan="0"/>
          <note key="86" pos="192" len="6" vol="185" pan="0"/>
          <note key="82" pos="192" len="6" vol="185" pan="0"/>
          <note key="79" pos="192" len="6" vol="185" pan="0"/>
          <note key="86" pos="204" len="6" vol="185" pan="0"/>
          <note key="82" pos="204" len="6" vol="185" pan="0"/>
          <note key="79" pos="204" len="6" vol="185" pan="0"/>
          <note key="86" pos="216" len="6" vol="185" pan="0"/>
          <note key="82" pos="216" len="6" vol="185" pan="0"/>
          <note key="79" pos="216" len="6" vol="185" pan="0"/>
          <note key="86" pos="228" len="6" vol="185" pan="0"/>
          <note key="82" pos="228" len="6" vol="185" pan="0"/>
          <note key="79" pos="228" len="6" vol="185" pan="0"/>
          <note key="86" pos="240" len="24" vol="185" pan="0"/>
          <note key="82" pos="240" len="24" vol="185" pan="0"/>
          <note key="79" pos="240" len="24" vol="185" pan="0"/>
          <note key="86" pos="264" len="24" vol="185" pan="0"/>
          <note key="81" pos="264" len="24" vol="185" pan="0"/>
          <note key="77" pos="264" len="24" vol="185" pan="0"/>
          <note key="86" pos="288" len="6" vol="185" pan="0"/>
          <note key="81" pos="288" len="6" vol="185" pan="0"/>
          <note key="77" pos="288" len="6" vol="185" pan="0"/>
          <note key="86" pos="300" len="6" vol="185" pan="0"/>
          <note key="81" pos="300" len="6" vol="185" pan="0"/>
          <note key="77" pos="300" len="6" vol="185" pan="0"/>
          <note key="86" pos="312" len="6" vol="185" pan="0"/>
          <note key="81" pos="312" len="6" vol="185" pan="0"/>
          <note key="77" pos="312" len="6" vol="185" pan="0"/>
          <note key="86" pos="324" len="6" vol="185" pan="0"/>
          <note key="81" pos="324" len="6" vol="185" pan="0"/>
          <note key="77" pos="324" len="6" vol="185" pan="0"/>
          <note key="86" pos="336" len="6" vol="185" pan="0"/>
          <note key="81" pos="336" len="6" vol="185" pan="0"/>
          <note key="77" pos="336" len="6" vol="185" pan="0"/>
          <note key="86" pos="348" len="6" vol="185" pan="0"/>
          <note key="81" pos="348" len="6" vol="185" pan="0"/>
          <note key="77" pos="348" len="6" vol="185" pan="0"/>
          <note key="86" pos="360" len="6" vol="185" pan="0"/>
          <note key="81" pos="360" len="6" vol="185" pan="0"/>
          <note key="77" pos="360" len="6" vol="185" pan="0"/>
          <note key="86" pos="372" len="6" vol="185" pan="0"/>
          <note key="81" pos="372" len="6" vol="185" pan="0"/>
          <note key="77" pos="372" len="6" vol="185" pan="0"/>
        </pattern>
        <pattern steps="16" muted="0" type="1" pos="18816" name="">
          <note key="81" pos="0" len="6" vol="185" pan="0"/>
          <note key="77" pos="0" len="6" vol="185" pan="0"/>
          <note key="74" pos="0" len="6" vol="185" pan="0"/>
          <note key="81" pos="12" len="6" vol="185" pan="0"/>
          <note key="77" pos="12" len="6" vol="185" pan="0"/>
          <note key="74" pos="12" len="6" vol="185" pan="0"/>
          <note key="81" pos="24" len="6" vol="185" pan="0"/>
          <note key="77" pos="24" len="6" vol="185" pan="0"/>
          <note key="74" pos="24" len="6" vol="185" pan="0"/>
          <note key="81" pos="36" len="6" vol="185" pan="0"/>
          <note key="77" pos="36" len="6" vol="185" pan="0"/>
          <note key="74" pos="36" len="6" vol="185" pan="0"/>
          <note key="81" pos="48" len="24" vol="185" pan="0"/>
          <note key="77" pos="48" len="24" vol="185" pan="0"/>
          <note key="74" pos="48" len="24" vol="185" pan="0"/>
          <note key="81" pos="72" len="6" vol="185" pan="0"/>
          <note key="77" pos="72" len="6" vol="185" pan="0"/>
          <note key="74" pos="72" len="6" vol="185" pan="0"/>
          <note key="81" pos="84" len="6" vol="185" pan="0"/>
          <note key="77" pos="84" len="6" vol="185" pan="0"/>
          <note key="74" pos="84" len="6" vol="185" pan="0"/>
          <note key="81" pos="96" len="6" vol="185" pan="0"/>
          <note key="77" pos="96" len="6" vol="185" pan="0"/>
          <note key="74" pos="96" len="6" vol="185" pan="0"/>
          <note key="81" pos="108" len="6" vol="185" pan="0"/>
          <note key="77" pos="108" len="6" vol="185" pan="0"/>
          <note key="74" pos="108" len="6" vol="185" pan="0"/>
          <note key="81" pos="120" len="6" vol="185" pan="0"/>
          <note key="77" pos="120" len="6" vol="185" pan="0"/>
          <note key="74" pos="120" len="6" vol="185" pan="0"/>
          <note key="81" pos="132" len="6" vol="185" pan="0"/>
          <note key="77" pos="132" len="6" vol="185" pan="0"/>
          <note key="74" pos="132" len="6" vol="185" pan="0"/>
          <note key="81" pos="144" len="24" vol="185" pan="0"/>
          <note key="77" pos="144" len="24" vol="185" pan="0"/>
          <note key="74" pos="144" len="24" vol="185" pan="0"/>
          <note key="81" pos="168" len="6" vol="185" pan="0"/>
          <note key="77" pos="168" len="6" vol="185" pan="0"/>
          <note key="74" pos="168" len="6" vol="185" pan="0"/>
          <note key="81" pos="180" len="6" vol="185" pan="0"/>
          <note key="77" pos="180" len="6" vol="185" pan="0"/>
          <note key="74" pos="180" len="6" vol="185" pan="0"/>
          <note key="79" pos="192" len="6" vol="185" pan="0"/>
          <note key="76" pos="192" len="6" vol="185" pan="0"/>
          <note key="72" pos="192" len="6" vol="185" pan="0"/>
          <note key="79" pos="204" len="6" vol="185" pan="0"/>
          <note key="76" pos="204" len="6" vol="185" pan="0"/>
          <note key="72" pos="204" len="6" vol="185" pan="0"/>
          <note key="79" pos="216" len="6" vol="185" pan="0"/>
          <note key="76" pos="216" len="6" vol="185" pan="0"/>
          <note key="72" pos="216" len="6" vol="185" pan="0"/>
          <note key="79" pos="228" len="6" vol="185" pan="0"/>
          <note key="76" pos="228" len="6" vol="185" pan="0"/>
          <note key="72" pos="228" len="6" vol="185" pan="0"/>
          <note key="79" pos="240" len="24" vol="185" pan="0"/>
          <note key="76" pos="240" len="24" vol="185" pan="0"/>
          <note key="72" pos="240" len="24" vol="185" pan="0"/>
          <note key="77" pos="264" len="24" vol="185" pan="0"/>
          <note key="74" pos="264" len="24" vol="185" pan="0"/>
          <note key="70" pos="264" len="24" vol="185" pan="0"/>
          <note key="77" pos="288" len="6" vol="185" pan="0"/>
          <note key="74" pos="288" len="6" vol="185" pan="0"/>
          <note key="70" pos="288" len="6" vol="185" pan="0"/>
          <note key="77" pos="300" len="6" vol="185" pan="0"/>
          <note key="74" pos="300" len="6" vol="185" pan="0"/>
          <note key="70" pos="300" len="6" vol="185" pan="0"/>
          <note key="77" pos="312" len="6" vol="185" pan="0"/>
          <note key="74" pos="312" len="6" vol="185" pan="0"/>
          <note key="70" pos="312" len="6" vol="185" pan="0"/>
          <note key="77" pos="324" len="6" vol="185" pan="0"/>
          <note key="74" pos="324" len="6" vol="185" pan="0"/>
          <note key="70" pos="324" len="6" vol="185" pan="0"/>
          <note key="77" pos="336" len="6" vol="185" pan="0"/>
          <note key="74" pos="336" len="6" vol="185" pan="0"/>
          <note key="70" pos="336" len="6" vol="185" pan="0"/>
          <note key="77" pos="348" len="6" vol="185" pan="0"/>
          <note key="74" pos="348" len="6" vol="185" pan="0"/>
          <note key="70" pos="348" len="6" vol="185" pan="0"/>
          <note key="77" pos="360" len="6" vol="185" pan="0"/>
          <note key="74" pos="360" len="6" vol="185" pan="0"/>
          <note key="70" pos="360" len="6" vol="185" pan="0"/>
          <note key="77" pos="372" len="6" vol="185" pan="0"/>
          <note key="74" pos="372" len="6" vol="185" pan="0"/>
          <note key="70" pos="372" len="6" vol="185" pan="0"/>
        </pattern>
        <pattern steps="16" muted="0" type="1" pos="19200" name="">
          <note key="81" pos="0" len="6" vol="185" pan="0"/>
          <note key="77" pos="0" len="6" vol="185" pan="0"/>
          <note key="72" pos="0" len="6" vol="185" pan="0"/>
          <note key="81" pos="12" len="6" vol="185" pan="0"/>
          <note key="77" pos="12" len="6" vol="185" pan="0"/>
          <note key="72" pos="12" len="6" vol="185" pan="0"/>
          <note key="81" pos="24" len="6" vol="185" pan="0"/>
          <note key="77" pos="24" len="6" vol="185" pan="0"/>
          <note key="72" pos="24" len="6" vol="185" pan="0"/>
          <note key="81" pos="36" len="6" vol="185" pan="0"/>
          <note key="77" pos="36" len="6" vol="185" pan="0"/>
          <note key="72" pos="36" len="6" vol="185" pan="0"/>
          <note key="81" pos="48" len="24" vol="185" pan="0"/>
          <note key="77" pos="48" len="24" vol="185" pan="0"/>
          <note key="72" pos="48" len="24" vol="185" pan="0"/>
          <note key="81" pos="72" len="6" vol="185" pan="0"/>
          <note key="77" pos="72" len="6" vol="185" pan="0"/>
          <note key="72" pos="72" len="6" vol="185" pan="0"/>
          <note key="81" pos="84" len="6" vol="185" pan="0"/>
          <note key="77" pos="84" len="6" vol="185" pan="0"/>
          <note key="72" pos="84" len="6" vol="185" pan="0"/>
          <note key="81" pos="96" len="6" vol="185" pan="0"/>
          <note key="77" pos="96" len="6" vol="185" pan="0"/>
          <note key="72" pos="96" len="6" vol="185" pan="0"/>
          <note key="81" pos="108" len="6" vol="185" pan="0"/>
          <note key="77" pos="108" len="6" vol="185" pan="0"/>
          <note key="72" pos="108" len="6" vol="185" pan="0"/>
          <note key="81" pos="120" len="6" vol="185" pan="0"/>
          <note key="77" pos="120" len="6" vol="185" pan="0"/>
          <note key="72" pos="120" len="6" vol="185" pan="0"/>
          <note key="81" pos="132" len="6" vol="185" pan="0"/>
          <note key="77" pos="132" len="6" vol="185" pan="0"/>
          <note key="72" pos="132" len="6" vol="185" pan="0"/>
          <note key="81" pos="144" len="24" vol="185" pan="0"/>
          <note key="77" pos="144" len="24" vol="185" pan="0"/>
          <note key="72" pos="144" len="24" vol="185" pan="0"/>
          <note key="81" pos="168" len="6" vol="185" pan="0"/>
          <note key="77" pos="168" len="6" vol="185" pan="0"/>
          <note key="72" pos="168" len="6" vol="185" pan="0"/>
          <note key="81" pos="180" len="6" vol="185" pan="0"/>
          <note key="77" pos="180" len="6" vol="185" pan="0"/>
          <note key="72" pos="180" len="6" vol="185" pan="0"/>
          <note key="82" pos="192" len="6" vol="185" pan="0"/>
          <note key="79" pos="192" len="6" vol="185" pan="0"/>
          <note key="74" pos="192" len="6" vol="185" pan="0"/>
          <note key="82" pos="204" len="6" vol="185" pan="0"/>
          <note key="79" pos="204" len="6" vol="185" pan="0"/>
          <note key="74" pos="204" len="6" vol="185" pan="0"/>
          <note key="82" pos="216" len="6" vol="185" pan="0"/>
          <note key="79" pos="216" len="6" vol="185" pan="0"/>
          <note key="74" pos="216" len="6" vol="185" pan="0"/>
          <note key="82" pos="228" len="6" vol="185" pan="0"/>
          <note key="79" pos="228" len="6" vol="185" pan="0"/>
          <note key="74" pos="228" len="6" vol="185" pan="0"/>
          <note key="82" pos="240" len="24" vol="185" pan="0"/>
          <note key="79" pos="240" len="24" vol="185" pan="0"/>
          <note key="74" pos="240" len="24" vol="185" pan="0"/>
          <note key="81" pos="264" len="24" vol="185" pan="0"/>
          <note key="77" pos="264" len="24" vol="185" pan="0"/>
          <note key="74" pos="264" len="24" vol="185" pan="0"/>
          <note key="81" pos="288" len="6" vol="185" pan="0"/>
          <note key="77" pos="288" len="6" vol="185" pan="0"/>
          <note key="74" pos="288" len="6" vol="185" pan="0"/>
          <note key="81" pos="300" len="6" vol="185" pan="0"/>
          <note key="77" pos="300" len="6" vol="185" pan="0"/>
          <note key="74" pos="300" len="6" vol="185" pan="0"/>
          <note key="81" pos="312" len="6" vol="185" pan="0"/>
          <note key="77" pos="312" len="6" vol="185" pan="0"/>
          <note key="74" pos="312" len="6" vol="185" pan="0"/>
          <note key="81" pos="324" len="6" vol="185" pan="0"/>
          <note key="77" pos="324" len="6" vol="185" pan="0"/>
          <note key="74" pos="324" len="6" vol="185" pan="0"/>
          <note key="81" pos="336" len="6" vol="185" pan="0"/>
          <note key="77" pos="336" len="6" vol="185" pan="0"/>
          <note key="74" pos="336" len="6" vol="185" pan="0"/>
          <note key="81" pos="348" len="6" vol="185" pan="0"/>
          <note key="77" pos="348" len="6" vol="185" pan="0"/>
          <note key="74" pos="348" len="6" vol="185" pan="0"/>
          <note key="81" pos="360" len="6" vol="185" pan="0"/>
          <note key="77" pos="360" len="6" vol="185" pan="0"/>
          <note key="74" pos="360" len="6" vol="185" pan="0"/>
          <note key="81" pos="372" len="6" vol="185" pan="0"/>
          <note key="77" pos="372" len="6" vol="185" pan="0"/>
          <note key="74" pos="372" len="6" vol="185" pan="0"/>
        </pattern>
        <pattern steps="16" muted="0" type="1" pos="19584" name="">
          <note key="81" pos="0" len="6" vol="185" pan="0"/>
          <note key="77" pos="0" len="6" vol="185" pan="0"/>
          <note key="74" pos="0" len="6" vol="185" pan="0"/>
          <note key="81" pos="12" len="6" vol="185" pan="0"/>
          <note key="77" pos="12" len="6" vol="185" pan="0"/>
          <note key="74" pos="12" len="6" vol="185" pan="0"/>
          <note key="81" pos="24" len="6" vol="185" pan="0"/>
          <note key="77" pos="24" len="6" vol="185" pan="0"/>
          <note key="74" pos="24" len="6" vol="185" pan="0"/>
          <note key="81" pos="36" len="6" vol="185" pan="0"/>
          <note key="77" pos="36" len="6" vol="185" pan="0"/>
          <note key="74" pos="36" len="6" vol="185" pan="0"/>
          <note key="81" pos="48" len="24" vol="185" pan="0"/>
          <note key="77" pos="48" len="24" vol="185" pan="0"/>
          <note key="74" pos="48" len="24" vol="185" pan="0"/>
          <note key="81" pos="72" len="6" vol="185" pan="0"/>
          <note key="77" pos="72" len="6" vol="185" pan="0"/>
          <note key="74" pos="72" len="6" vol="185" pan="0"/>
          <note key="81" pos="84" len="6" vol="185" pan="0"/>
          <note key="77" pos="84" len="6" vol="185" pan="0"/>
          <note key="74" pos="84" len="6" vol="185" pan="0"/>
          <note key="81" pos="96" len="6" vol="185" pan="0"/>
          <note key="77" pos="96" len="6" vol="185" pan="0"/>
          <note key="74" pos="96" len="6" vol="185" pan="0"/>
          <note key="81" pos="108" len="6" vol="185" pan="0"/>
          <note key="77" pos="108" len="6" vol="185" pan="0"/>
          <note key="74" pos="108" len="6" vol="185" pan="0"/>
          <note key="81" pos="120" len="6" vol="185" pan="0"/>
          <note key="77" pos="120" len="6" vol="185" pan="0"/>
          <note key="74" pos="120" len="6" vol="185" pan="0"/>
          <note key="81" pos="132" len="6" vol="185" pan="0"/>
          <note key="77" pos="132" len="6" vol="185" pan="0"/>
          <note key="74" pos="132" len="6" vol="185" pan="0"/>
          <note key="81" pos="144" len="24" vol="185" pan="0"/>
          <note key="77" pos="144" len="24" vol="185" pan="0"/>
          <note key="74" pos="144" len="24" vol="185" pan="0"/>
          <note key="81" pos="168" len="6" vol="185" pan="0"/>
          <note key="77" pos="168" len="6" vol="185" pan="0"/>
          <note key="74" pos="168" len="6" vol="185" pan="0"/>
          <note key="81" pos="180" len="6" vol="185" pan="0"/>
          <note key="77" pos="180" len="6" vol="185" pan="0"/>
          <note key="74" pos="180" len="6" vol="185" pan="0"/>
          <note key="84" pos="192" len="6" vol="185" pan="0"/>
          <note key="79" pos="192" len="6" vol="185" pan="0"/>
          <note key="76" pos="192" len="6" vol="185" pan="0"/>
          <note key="84" pos="204" len="6" vol="185" pan="0"/>
          <note key="79" pos="204" len="6" vol="185" pan="0"/>
          <note key="76" pos="204" len="6" vol="185" pan="0"/>
          <note key="84" pos="216" len="6" vol="185" pan="0"/>
          <note key="79" pos="216" len="6" vol="185" pan="0"/>
          <note key="76" pos="216" len="6" vol="185" pan="0"/>
          <note key="84" pos="228" len="6" vol="185" pan="0"/>
          <note key="79" pos="228" len="6" vol="185" pan="0"/>
          <note key="76" pos="228" len="6" vol="185" pan="0"/>
          <note key="84" pos="240" len="24" vol="185" pan="0"/>
          <note key="79" pos="240" len="24" vol="185" pan="0"/>
          <note key="76" pos="240" len="24" vol="185" pan="0"/>
          <note key="86" pos="264" len="24" vol="185" pan="0"/>
          <note key="82" pos="264" len="24" vol="185" pan="0"/>
          <note key="77" pos="264" len="24" vol="185" pan="0"/>
          <note key="86" pos="288" len="6" vol="185" pan="0"/>
          <note key="82" pos="288" len="6" vol="185" pan="0"/>
          <note key="77" pos="288" len="6" vol="185" pan="0"/>
          <note key="86" pos="300" len="6" vol="185" pan="0"/>
          <note key="82" pos="300" len="6" vol="185" pan="0"/>
          <note key="77" pos="300" len="6" vol="185" pan="0"/>
          <note key="86" pos="312" len="6" vol="185" pan="0"/>
          <note key="82" pos="312" len="6" vol="185" pan="0"/>
          <note key="77" pos="312" len="6" vol="185" pan="0"/>
          <note key="86" pos="324" len="6" vol="185" pan="0"/>
          <note key="82" pos="324" len="6" vol="185" pan="0"/>
          <note key="77" pos="324" len="6" vol="185" pan="0"/>
          <note key="86" pos="336" len="6" vol="185" pan="0"/>
          <note key="82" pos="336" len="6" vol="185" pan="0"/>
          <note key="77" pos="336" len="6" vol="185" pan="0"/>
          <note key="86" pos="348" len="6" vol="185" pan="0"/>
          <note key="82" pos="348" len="6" vol="185" pan="0"/>
          <note key="77" pos="348" len="6" vol="185" pan="0"/>
          <note key="86" pos="360" len="6" vol="185" pan="0"/>
          <note key="82" pos="360" len="6" vol="185" pan="0"/>
          <note key="77" pos="360" len="6" vol="185" pan="0"/>
          <note key="86" pos="372" len="6" vol="185" pan="0"/>
          <note key="82" pos="372" len="6" vol="185" pan="0"/>
          <note key="77" pos="372" len="6" vol="185" pan="0"/>
        </pattern>
        <pattern steps="16" muted="0" type="1" pos="19968" name="">
          <note key="84" pos="0" len="6" vol="185" pan="0"/>
          <note key="81" pos="0" len="6" vol="185" pan="0"/>
          <note key="77" pos="0" len="6" vol="185" pan="0"/>
          <note key="84" pos="12" len="6" vol="185" pan="0"/>
          <note key="81" pos="12" len="6" vol="185" pan="0"/>
          <note key="77" pos="12" len="6" vol="185" pan="0"/>
          <note key="84" pos="24" len="6" vol="185" pan="0"/>
          <note key="81" pos="24" len="6" vol="185" pan="0"/>
          <note key="77" pos="24" len="6" vol="185" pan="0"/>
          <note key="84" pos="36" len="6" vol="185" pan="0"/>
          <note key="81" pos="36" len="6" vol="185" pan="0"/>
          <note key="77" pos="36" len="6" vol="185" pan="0"/>
          <note key="84" pos="48" len="24" vol="185" pan="0"/>
          <note key="81" pos="48" len="24" vol="185" pan="0"/>
          <note key="77" pos="48" len="24" vol="185" pan="0"/>
          <note key="84" pos="72" len="6" vol="185" pan="0"/>
          <note key="81" pos="72" len="6" vol="185" pan="0"/>
          <note key="77" pos="72" len="6" vol="185" pan="0"/>
          <note key="84" pos="84" len="6" vol="185" pan="0"/>
          <note key="81" pos="84" len="6" vol="185" pan="0"/>
          <note key="77" pos="84" len="6" vol="185" pan="0"/>
          <note key="84" pos="96" len="6" vol="185" pan="0"/>
          <note key="81" pos="96" len="6" vol="185" pan="0"/>
          <note key="77" pos="96" len="6" vol="185" pan="0"/>
          <note key="84" pos="108" len="6" vol="185" pan="0"/>
          <note key="81" pos="108" len="6" vol="185" pan="0"/>
          <note key="77" pos="108" len="6" vol="185" pan="0"/>
          <note key="84" pos="120" len="6" vol="185" pan="0"/>
          <note key="81" pos="120" len="6" vol="185" pan="0"/>
          <note key="77" pos="120" len="6" vol="185" pan="0"/>
          <note key="84" pos="132" len="6" vol="185" pan="0"/>
          <note key="81" pos="132" len="6" vol="185" pan="0"/>
          <note key="77" pos="132" len="6" vol="185" pan="0"/>
          <note key="84" pos="144" len="24" vol="185" pan="0"/>
          <note key="81" pos="144" len="24" vol="185" pan="0"/>
          <note key="77" pos="144" len="24" vol="185" pan="0"/>
          <note key="84" pos="168" len="6" vol="185" pan="0"/>
          <note key="81" pos="168" len="6" vol="185" pan="0"/>
          <note key="77" pos="168" len="6" vol="185" pan="0"/>
          <note key="84" pos="180" len="6" vol="185" pan="0"/>
          <note key="81" pos="180" len="6" vol="185" pan="0"/>
          <note key="77" pos="180" len="6" vol="185" pan="0"/>
          <note key="86" pos="192" len="6" vol="185" pan="0"/>
          <note key="82" pos="192" len="6" vol="185" pan="0"/>
          <note key="79" pos="192" len="6" vol="185" pan="0"/>
          <note key="86" pos="204" len="6" vol="185" pan="0"/>
          <note key="82" pos="204" len="6" vol="185" pan="0"/>
          <note key="79" pos="204" len="6" vol="185" pan="0"/>
          <note key="86" pos="216" len="6" vol="185" pan="0"/>
          <note key="82" pos="216" len="6" vol="185" pan="0"/>
          <note key="79" pos="216" len="6" vol="185" pan="0"/>
          <note key="86" pos="228" len="6" vol="185" pan="0"/>
          <note key="82" pos="228" len="6" vol="185" pan="0"/>
          <note key="79" pos="228" len="6" vol="185" pan="0"/>
          <note key="86" pos="240" len="24" vol="185" pan="0"/>
          <note key="82" pos="240" len="24" vol="185" pan="0"/>
          <note key="79" pos="240" len="24" vol="185" pan="0"/>
          <note key="86" pos="264" len="24" vol="185" pan="0"/>
          <note key="81" pos="264" len="24" vol="185" pan="0"/>
          <note key="77" pos="264" len="24" vol="185" pan="0"/>
          <note key="86" pos="288" len="6" vol="185" pan="0"/>
          <note key="81" pos="288" len="6" vol="185" pan="0"/>
          <note key="77" pos="288" len="6" vol="185" pan="0"/>
          <note key="86" pos="300" len="6" vol="185" pan="0"/>
          <note key="81" pos="300" len="6" vol="185" pan="0"/>
          <note key="77" pos="300" len="6" vol="185" pan="0"/>
          <note key="86" pos="312" len="6" vol="185" pan="0"/>
          <note key="81" pos="312" len="6" vol="185" pan="0"/>
          <note key="77" pos="312" len="6" vol="185" pan="0"/>
          <note key="86" pos="324" len="6" vol="185" pan="0"/>
          <note key="81" pos="324" len="6" vol="185" pan="0"/>
          <note key="77" pos="324" len="6" vol="185" pan="0"/>
          <note key="86" pos="336" len="6" vol="185" pan="0"/>
          <note key="81" pos="336" len="6" vol="185" pan="0"/>
          <note key="77" pos="336" len="6" vol="185" pan="0"/>
          <note key="86" pos="348" len="6" vol="185" pan="0"/>
          <note key="81" pos="348" len="6" vol="185" pan="0"/>
          <note key="77" pos="348" len="6" vol="185" pan="0"/>
          <note key="86" pos="360" len="6" vol="185" pan="0"/>
          <note key="81" pos="360" len="6" vol="185" pan="0"/>
          <note key="77" pos="360" len="6" vol="185" pan="0"/>
          <note key="86" pos="372" len="6" vol="185" pan="0"/>
          <note key="81" pos="372" len="6" vol="185" pan="0"/>
          <note key="77" pos="372" len="6" vol="185" pan="0"/>
        </pattern>
        <pattern steps="16" muted="0" type="1" pos="14208" name="">
          <note key="48" pos="0" len="192" vol="187" pan="0"/>
          <note key="46" pos="192" len="96" vol="187" pan="0"/>
          <note key="44" pos="288" len="96" vol="187" pan="0"/>
          <note key="51" pos="384" len="192" vol="187" pan="0"/>
          <note key="44" pos="576" len="96" vol="187" pan="0"/>
          <note key="43" pos="672" len="96" vol="187" pan="0"/>
          <note key="48" pos="768" len="192" vol="187" pan="0"/>
          <note key="50" pos="960" len="72" vol="187" pan="0"/>
          <note key="51" pos="1032" len="120" vol="187" pan="0"/>
          <note key="43" pos="1152" len="192" vol="187" pan="0"/>
          <note key="41" pos="1344" len="72" vol="187" pan="0"/>
          <note key="39" pos="1416" len="120" vol="187" pan="0"/>
        </pattern>
        <pattern steps="16" muted="0" type="1" pos="29952" name="">
          <note key="76" pos="0" len="72" vol="157" pan="0"/>
          <note key="64" pos="72" len="24" vol="144" pan="0"/>
          <note key="66" pos="96" len="24" vol="144" pan="0"/>
          <note key="67" pos="120" len="24" vol="144" pan="0"/>
          <note key="72" pos="144" len="72" vol="144" pan="0"/>
          <note key="71" pos="216" len="72" vol="144" pan="0"/>
          <note key="76" pos="288" len="24" vol="144" pan="0"/>
          <note key="71" pos="312" len="24" vol="144" pan="0"/>
          <note key="76" pos="336" len="24" vol="144" pan="0"/>
          <note key="78" pos="360" len="24" vol="151" pan="0"/>
          <note key="79" pos="384" len="24" vol="157" pan="0"/>
          <note key="78" pos="408" len="24" vol="151" pan="0"/>
          <note key="74" pos="432" len="24" vol="144" pan="0"/>
          <note key="69" pos="456" len="24" vol="144" pan="0"/>
          <note key="67" pos="480" len="24" vol="144" pan="0"/>
          <note key="66" pos="504" len="24" vol="144" pan="0"/>
          <note key="62" pos="528" len="48" vol="138" pan="0"/>
          <note key="62" pos="600" len="23" vol="151" pan="0"/>
          <note key="71" pos="624" len="23" vol="151" pan="0"/>
          <note key="67" pos="648" len="23" vol="151" pan="0"/>
          <note key="64" pos="672" len="23" vol="151" pan="0"/>
          <note key="66" pos="696" len="23" vol="157" pan="0"/>
          <note key="74" pos="720" len="12" vol="151" pan="0"/>
          <note key="76" pos="732" len="11" vol="151" pan="0"/>
          <note key="74" pos="744" len="23" vol="157" pan="0"/>
          <note key="67" pos="768" len="24" vol="157" pan="0"/>
          <note key="59" pos="792" len="24" vol="132" pan="0"/>
          <note key="64" pos="816" len="24" vol="144" pan="0"/>
          <note key="66" pos="840" len="24" vol="151" pan="0"/>
          <note key="59" pos="864" len="24" vol="151" pan="0"/>
          <note key="64" pos="888" len="24" vol="151" pan="0"/>
          <note key="67" pos="912" len="24" vol="163" pan="0"/>
          <note key="59" pos="936" len="24" vol="151" pan="0"/>
          <note key="64" pos="960" len="24" vol="151" pan="0"/>
          <note key="71" pos="984" len="24" vol="163" pan="0"/>
          <note key="64" pos="1008" len="24" vol="151" pan="0"/>
          <note key="67" pos="1032" len="24" vol="151" pan="0"/>
          <note key="76" pos="1056" len="24" vol="163" pan="0"/>
          <note key="71" pos="1080" len="24" vol="157" pan="0"/>
          <note key="76" pos="1104" len="24" vol="151" pan="0"/>
          <note key="78" pos="1128" len="24" vol="163" pan="0"/>
          <note key="79" pos="1152" len="24" vol="168" pan="0"/>
          <note key="71" pos="1176" len="24" vol="151" pan="0"/>
          <note key="76" pos="1200" len="24" vol="157" pan="0"/>
          <note key="83" pos="1224" len="48" vol="168" pan="0"/>
          <note key="71" pos="1224" len="48" vol="157" pan="0"/>
          <note key="81" pos="1272" len="48" vol="168" pan="0"/>
          <note key="69" pos="1272" len="48" vol="157" pan="0"/>
          <note key="78" pos="1320" len="48" vol="168" pan="0"/>
          <note key="66" pos="1320" len="48" vol="151" pan="0"/>
          <note key="69" pos="1368" len="24" vol="151" pan="0"/>
          <note key="76" pos="1392" len="24" vol="151" pan="0"/>
          <note key="78" pos="1416" len="24" vol="151" pan="0"/>
          <note key="79" pos="1440" len="72" vol="151" pan="0"/>
          <note key="78" pos="1512" len="84" vol="144" pan="0"/>
        </pattern>
        <pattern steps="16" muted="0" type="1" pos="26880" name="">
          <note key="64" pos="0" len="72" vol="170" pan="0"/>
          <note key="55" pos="0" len="72" vol="170" pan="0"/>
          <note key="52" pos="0" len="384" vol="197" pan="0"/>
          <note key="47" pos="0" len="384" vol="197" pan="0"/>
          <note key="52" pos="72" len="72" vol="170" pan="0"/>
          <note key="43" pos="72" len="72" vol="170" pan="0"/>
          <note key="55" pos="144" len="72" vol="170" pan="0"/>
          <note key="47" pos="144" len="72" vol="170" pan="0"/>
          <note key="59" pos="216" len="72" vol="170" pan="0"/>
          <note key="50" pos="216" len="72" vol="170" pan="0"/>
          <note key="64" pos="288" len="48" vol="163" pan="0"/>
          <note key="55" pos="288" len="48" vol="163" pan="0"/>
          <note key="66" pos="336" len="48" vol="163" pan="0"/>
          <note key="57" pos="336" len="48" vol="163" pan="0"/>
          <note key="67" pos="384" len="72" vol="170" pan="0"/>
          <note key="59" pos="384" len="72" vol="170" pan="0"/>
          <note key="52" pos="384" len="144" vol="197" pan="0"/>
          <note key="48" pos="384" len="144" vol="197" pan="0"/>
          <note key="66" pos="456" len="72" vol="170" pan="0"/>
          <note key="57" pos="456" len="72" vol="170" pan="0"/>
          <note key="62" pos="528" len="72" vol="170" pan="0"/>
          <note key="54" pos="528" len="72" vol="170" pan="0"/>
          <note key="54" pos="528" len="240" vol="197" pan="0"/>
          <note key="50" pos="528" len="240" vol="197" pan="0"/>
          <note key="57" pos="600" len="72" vol="170" pan="0"/>
          <note key="48" pos="600" len="72" vol="170" pan="0"/>
          <note key="55" pos="672" len="48" vol="163" pan="0"/>
          <note key="47" pos="672" len="48" vol="163" pan="0"/>
          <note key="57" pos="720" len="48" vol="163" pan="0"/>
          <note key="48" pos="720" len="48" vol="163" pan="0"/>
          <note key="59" pos="768" len="72" vol="170" pan="0"/>
          <note key="52" pos="768" len="384" vol="197" pan="0"/>
          <note key="50" pos="768" len="72" vol="170" pan="0"/>
          <note key="47" pos="768" len="384" vol="197" pan="0"/>
          <note key="52" pos="840" len="72" vol="170" pan="0"/>
          <note key="43" pos="840" len="72" vol="170" pan="0"/>
          <note key="55" pos="912" len="72" vol="170" pan="0"/>
          <note key="47" pos="912" len="72" vol="170" pan="0"/>
          <note key="59" pos="984" len="72" vol="170" pan="0"/>
          <note key="50" pos="984" len="72" vol="170" pan="0"/>
          <note key="64" pos="1056" len="48" vol="163" pan="0"/>
          <note key="55" pos="1056" len="48" vol="163" pan="0"/>
          <note key="66" pos="1104" len="48" vol="163" pan="0"/>
          <note key="57" pos="1104" len="48" vol="163" pan="0"/>
          <note key="67" pos="1152" len="72" vol="170" pan="0"/>
          <note key="59" pos="1152" len="72" vol="170" pan="0"/>
          <note key="52" pos="1152" len="144" vol="197" pan="0"/>
          <note key="48" pos="1152" len="144" vol="197" pan="0"/>
          <note key="71" pos="1224" len="72" vol="170" pan="0"/>
          <note key="62" pos="1224" len="72" vol="170" pan="0"/>
          <note key="69" pos="1296" len="72" vol="170" pan="0"/>
          <note key="60" pos="1296" len="72" vol="170" pan="0"/>
          <note key="54" pos="1296" len="240" vol="197" pan="0"/>
          <note key="50" pos="1296" len="240" vol="197" pan="0"/>
          <note key="67" pos="1368" len="72" vol="170" pan="0"/>
          <note key="59" pos="1368" len="72" vol="170" pan="0"/>
          <note key="66" pos="1440" len="48" vol="170" pan="0"/>
          <note key="57" pos="1440" len="48" vol="170" pan="0"/>
          <note key="67" pos="1488" len="48" vol="163" pan="0"/>
          <note key="59" pos="1488" len="48" vol="163" pan="0"/>
        </pattern>
        <pattern steps="16" muted="0" type="1" pos="28416" name="">
          <note key="64" pos="0" len="72" vol="170" pan="0"/>
          <note key="55" pos="0" len="72" vol="170" pan="0"/>
          <note key="52" pos="0" len="384" vol="197" pan="0"/>
          <note key="47" pos="0" len="384" vol="197" pan="0"/>
          <note key="52" pos="72" len="72" vol="170" pan="0"/>
          <note key="43" pos="72" len="72" vol="170" pan="0"/>
          <note key="55" pos="144" len="72" vol="170" pan="0"/>
          <note key="47" pos="144" len="72" vol="170" pan="0"/>
          <note key="59" pos="216" len="72" vol="170" pan="0"/>
          <note key="50" pos="216" len="72" vol="170" pan="0"/>
          <note key="64" pos="288" len="48" vol="163" pan="0"/>
          <note key="55" pos="288" len="48" vol="163" pan="0"/>
          <note key="66" pos="336" len="48" vol="163" pan="0"/>
          <note key="57" pos="336" len="48" vol="163" pan="0"/>
          <note key="67" pos="384" len="72" vol="170" pan="0"/>
          <note key="59" pos="384" len="72" vol="170" pan="0"/>
          <note key="52" pos="384" len="144" vol="197" pan="0"/>
          <note key="48" pos="384" len="144" vol="197" pan="0"/>
          <note key="66" pos="456" len="72" vol="170" pan="0"/>
          <note key="57" pos="456" len="72" vol="170" pan="0"/>
          <note key="62" pos="528" len="72" vol="170" pan="0"/>
          <note key="54" pos="528" len="72" vol="170" pan="0"/>
          <note key="54" pos="528" len="240" vol="197" pan="0"/>
          <note key="50" pos="528" len="240" vol="197" pan="0"/>
          <note key="57" pos="600" len="72" vol="170" pan="0"/>
          <note key="48" pos="600" len="72" vol="170" pan="0"/>
          <note key="55" pos="672" len="48" vol="163" pan="0"/>
          <note key="47" pos="672" len="48" vol="163" pan="0"/>
          <note key="57" pos="720" len="48" vol="163" pan="0"/>
          <note key="48" pos="720" len="48" vol="163" pan="0"/>
          <note key="59" pos="768" len="72" vol="170" pan="0"/>
          <note key="52" pos="768" len="384" vol="197" pan="0"/>
          <note key="50" pos="768" len="72" vol="170" pan="0"/>
          <note key="47" pos="768" len="384" vol="197" pan="0"/>
          <note key="52" pos="840" len="72" vol="170" pan="0"/>
          <note key="43" pos="840" len="72" vol="170" pan="0"/>
          <note key="55" pos="912" len="72" vol="170" pan="0"/>
          <note key="47" pos="912" len="72" vol="170" pan="0"/>
          <note key="59" pos="984" len="72" vol="170" pan="0"/>
          <note key="50" pos="984" len="72" vol="170" pan="0"/>
          <note key="64" pos="1056" len="48" vol="163" pan="0"/>
          <note key="55" pos="1056" len="48" vol="163" pan="0"/>
          <note key="66" pos="1104" len="48" vol="163" pan="0"/>
          <note key="57" pos="1104" len="48" vol="163" pan="0"/>
          <note key="67" pos="1152" len="72" vol="170" pan="0"/>
          <note key="59" pos="1152" len="72" vol="170" pan="0"/>
          <note key="52" pos="1152" len="144" vol="197" pan="0"/>
          <note key="48" pos="1152" len="144" vol="197" pan="0"/>
          <note key="71" pos="1224" len="72" vol="170" pan="0"/>
          <note key="62" pos="1224" len="72" vol="170" pan="0"/>
          <note key="69" pos="1296" len="72" vol="170" pan="0"/>
          <note key="60" pos="1296" len="72" vol="170" pan="0"/>
          <note key="54" pos="1296" len="240" vol="197" pan="0"/>
          <note key="50" pos="1296" len="240" vol="197" pan="0"/>
          <note key="67" pos="1368" len="72" vol="170" pan="0"/>
          <note key="59" pos="1368" len="72" vol="170" pan="0"/>
          <note key="66" pos="1440" len="48" vol="170" pan="0"/>
          <note key="57" pos="1440" len="48" vol="170" pan="0"/>
          <note key="67" pos="1488" len="48" vol="163" pan="0"/>
          <note key="59" pos="1488" len="48" vol="163" pan="0"/>
        </pattern>
      </track>
      <track solo="0" muted="0" type="0" name="RaveBass">
        <instrumenttrack basenote="69" pitchrange="1" pitch="0" usemasterpitch="1" vol="10.7" pan="0" fxch="0">
          <instrument name="tripleoscillator">
            <tripleoscillator vol0="100" phoffset2="82" modalgo1="2" pan2="10" vol2="100" wavetype2="2" finel1="10" userwavefile2="samples/empty.wav" modalgo3="0" finer0="0" finer2="-3" modalgo2="2" pan1="-20" finel0="0" userwavefile1="samples/empty.wav" stphdetun2="109" phoffset0="74" coarse1="0" finer1="16" wavetype1="2" finel2="-2" userwavefile0="samples/empty.wav" vol1="100" coarse0="-12" phoffset1="280" stphdetun0="232" stphdetun1="95" coarse2="12" wavetype0="2" pan0="9"/>
          </instrument>
          <eldata fwet="1" ftype="0" fcut="11111" fres="0.27">
            <elvol ctlenvamt="0" lamt="0.06" amt="1" latt="0" lspd_syncmode="0" dec="0.999" lpdel="0" att="0.048" lspd_denominator="1" hold="0" lspd="0.2607" lspd_numerator="1" sustain="1" lshp="0" pdel="0" x100="0" rel="0.089" userwavefile=""/>
            <elcut ctlenvamt="0" lamt="0" amt="0" latt="0" lspd_syncmode="0" dec="0.5" lpdel="0" att="0.5" lspd_denominator="1" hold="0.5" lspd="0.6094" lspd_numerator="1" sustain="0.5" lshp="1" pdel="0" x100="0" rel="0.1" userwavefile=""/>
            <elres ctlenvamt="0" lamt="0" amt="0" latt="0" lspd_syncmode="0" dec="0.5" lpdel="0" att="0.5" lspd_denominator="1" hold="0.5" lspd="0.1" lspd_numerator="1" sustain="0.5" lshp="0" pdel="0" x100="0" rel="0" userwavefile=""/>
          </eldata>
          <chordcreator chordrange="1" chord-enabled="1" chord="0"/>
          <arpeggiator arptime_syncmode="0" arpdir="0" arptime_numerator="1" arpmode="0" arp="12" arpmiss="0" arptime="100" arpgate="76" arp-enabled="0" arpskip="0" arptime_denominator="1" arprange="2" arpcycle="0"/>
          <midiport writable="0" fixedinputvelocity="-1" outputchannel="1" fixedoutputvelocity="-1" outputcontroller="0" basevelocity="63" fixedoutputnote="-1" inputchannel="0" inputcontroller="0" outputprogram="1" readable="0"/>
          <fxchain numofeffects="0" enabled="0"/>
        </instrumenttrack>
        <pattern steps="16" muted="0" type="1" pos="2304" name="RaveBass">
          <note key="67" pos="0" len="12" vol="157" pan="0"/>
          <note key="55" pos="12" len="12" vol="132" pan="0"/>
          <note key="60" pos="24" len="12" vol="138" pan="0"/>
          <note key="63" pos="36" len="12" vol="157" pan="0"/>
          <note key="55" pos="48" len="12" vol="138" pan="0"/>
          <note key="60" pos="60" len="12" vol="138" pan="0"/>
          <note key="65" pos="72" len="12" vol="157" pan="0"/>
          <note key="55" pos="84" len="12" vol="138" pan="0"/>
          <note key="60" pos="96" len="12" vol="138" pan="0"/>
          <note key="62" pos="108" len="12" vol="157" pan="0"/>
          <note key="55" pos="120" len="12" vol="138" pan="0"/>
          <note key="60" pos="132" len="12" vol="138" pan="0"/>
          <note key="63" pos="144" len="12" vol="157" pan="0"/>
          <note key="62" pos="156" len="12" vol="157" pan="0"/>
          <note key="60" pos="168" len="12" vol="157" pan="0"/>
          <note key="55" pos="180" len="12" vol="157" pan="0"/>
          <note key="67" pos="192" len="12" vol="157" pan="0"/>
          <note key="55" pos="204" len="12" vol="132" pan="0"/>
          <note key="60" pos="216" len="12" vol="138" pan="0"/>
          <note key="63" pos="228" len="12" vol="157" pan="0"/>
          <note key="55" pos="240" len="12" vol="138" pan="0"/>
          <note key="60" pos="252" len="12" vol="138" pan="0"/>
          <note key="65" pos="264" len="12" vol="157" pan="0"/>
          <note key="55" pos="276" len="12" vol="138" pan="0"/>
          <note key="60" pos="288" len="12" vol="138" pan="0"/>
          <note key="62" pos="300" len="12" vol="157" pan="0"/>
          <note key="55" pos="312" len="12" vol="138" pan="0"/>
          <note key="60" pos="324" len="12" vol="138" pan="0"/>
          <note key="63" pos="336" len="12" vol="157" pan="0"/>
          <note key="62" pos="348" len="12" vol="157" pan="0"/>
          <note key="63" pos="360" len="12" vol="157" pan="0"/>
          <note key="65" pos="372" len="12" vol="157" pan="0"/>
        </pattern>
        <pattern steps="16" muted="0" type="1" pos="3072" name="RaveBass">
          <note key="72" pos="0" len="12" vol="170" pan="0"/>
          <note key="60" pos="12" len="12" vol="151" pan="0"/>
          <note key="67" pos="24" len="12" vol="151" pan="0"/>
          <note key="74" pos="36" len="12" vol="170" pan="0"/>
          <note key="60" pos="48" len="12" vol="151" pan="0"/>
          <note key="67" pos="60" len="12" vol="151" pan="0"/>
          <note key="72" pos="72" len="12" vol="170" pan="0"/>
          <note key="60" pos="84" len="12" vol="151" pan="0"/>
          <note key="67" pos="96" len="12" vol="151" pan="0"/>
          <note key="75" pos="108" len="12" vol="170" pan="0"/>
          <note key="60" pos="120" len="12" vol="151" pan="0"/>
          <note key="67" pos="132" len="12" vol="151" pan="0"/>
          <note key="74" pos="144" len="12" vol="170" pan="0"/>
          <note key="75" pos="156" len="12" vol="170" pan="0"/>
          <note key="74" pos="168" len="12" vol="170" pan="0"/>
          <note key="70" pos="180" len="12" vol="170" pan="0"/>
          <note key="72" pos="192" len="12" vol="170" pan="0"/>
          <note key="60" pos="204" len="12" vol="151" pan="0"/>
          <note key="67" pos="216" len="12" vol="151" pan="0"/>
          <note key="70" pos="228" len="12" vol="170" pan="0"/>
          <note key="60" pos="240" len="12" vol="151" pan="0"/>
          <note key="65" pos="252" len="12" vol="151" pan="0"/>
          <note key="67" pos="264" len="12" vol="170" pan="0"/>
          <note key="63" pos="276" len="12" vol="151" pan="0"/>
          <note key="65" pos="288" len="12" vol="157" pan="0"/>
          <note key="63" pos="300" len="12" vol="157" pan="0"/>
          <note key="65" pos="312" len="12" vol="163" pan="0"/>
          <note key="67" pos="324" len="12" vol="163" pan="0"/>
          <note key="68" pos="336" len="12" vol="163" pan="0"/>
          <note key="67" pos="348" len="12" vol="163" pan="0"/>
          <note key="68" pos="360" len="12" vol="170" pan="0"/>
          <note key="70" pos="372" len="12" vol="170" pan="0"/>
        </pattern>
        <pattern steps="16" muted="0" type="1" pos="3840" name="RaveBass">
          <note key="67" pos="0" len="12" vol="170" pan="0"/>
          <note key="55" pos="12" len="12" vol="144" pan="0"/>
          <note key="60" pos="24" len="12" vol="151" pan="0"/>
          <note key="63" pos="36" len="12" vol="170" pan="0"/>
          <note key="55" pos="48" len="12" vol="151" pan="0"/>
          <note key="60" pos="60" len="12" vol="151" pan="0"/>
          <note key="65" pos="72" len="12" vol="170" pan="0"/>
          <note key="55" pos="84" len="12" vol="151" pan="0"/>
          <note key="60" pos="96" len="12" vol="151" pan="0"/>
          <note key="62" pos="108" len="12" vol="170" pan="0"/>
          <note key="55" pos="120" len="12" vol="151" pan="0"/>
          <note key="60" pos="132" len="12" vol="157" pan="0"/>
          <note key="63" pos="144" len="12" vol="170" pan="0"/>
          <note key="65" pos="156" len="12" vol="170" pan="0"/>
          <note key="67" pos="168" len="12" vol="170" pan="0"/>
          <note key="68" pos="180" len="12" vol="170" pan="0"/>
          <note key="70" pos="192" len="12" vol="170" pan="0"/>
          <note key="55" pos="204" len="12" vol="144" pan="0"/>
          <note key="60" pos="216" len="12" vol="151" pan="0"/>
          <note key="67" pos="228" len="12" vol="170" pan="0"/>
          <note key="55" pos="240" len="12" vol="151" pan="0"/>
          <note key="60" pos="252" len="12" vol="151" pan="0"/>
          <note key="68" pos="264" len="12" vol="170" pan="0"/>
          <note key="55" pos="276" len="12" vol="151" pan="0"/>
          <note key="60" pos="288" len="12" vol="151" pan="0"/>
          <note key="65" pos="300" len="12" vol="170" pan="0"/>
          <note key="55" pos="312" len="12" vol="151" pan="0"/>
          <note key="60" pos="324" len="12" vol="151" pan="0"/>
          <note key="67" pos="336" len="12" vol="170" pan="0"/>
          <note key="65" pos="348" len="12" vol="170" pan="0"/>
          <note key="63" pos="360" len="12" vol="170" pan="0"/>
          <note key="60" pos="372" len="12" vol="170" pan="0"/>
        </pattern>
        <pattern steps="16" muted="0" type="0" pos="10752" name="RaveBass"/>
        <pattern steps="16" muted="0" type="1" pos="21120" name="RaveBass">
          <note key="67" pos="0" len="12" vol="157" pan="0"/>
          <note key="55" pos="12" len="12" vol="132" pan="0"/>
          <note key="60" pos="24" len="12" vol="138" pan="0"/>
          <note key="63" pos="36" len="12" vol="157" pan="0"/>
          <note key="55" pos="48" len="12" vol="138" pan="0"/>
          <note key="60" pos="60" len="12" vol="138" pan="0"/>
          <note key="65" pos="72" len="12" vol="157" pan="0"/>
          <note key="55" pos="84" len="12" vol="138" pan="0"/>
          <note key="60" pos="96" len="12" vol="138" pan="0"/>
          <note key="62" pos="108" len="12" vol="157" pan="0"/>
          <note key="55" pos="120" len="12" vol="138" pan="0"/>
          <note key="60" pos="132" len="12" vol="138" pan="0"/>
          <note key="63" pos="144" len="12" vol="157" pan="0"/>
          <note key="62" pos="156" len="12" vol="157" pan="0"/>
          <note key="60" pos="168" len="12" vol="157" pan="0"/>
          <note key="55" pos="180" len="12" vol="157" pan="0"/>
          <note key="67" pos="192" len="12" vol="157" pan="0"/>
          <note key="55" pos="204" len="12" vol="132" pan="0"/>
          <note key="60" pos="216" len="12" vol="138" pan="0"/>
          <note key="63" pos="228" len="12" vol="157" pan="0"/>
          <note key="55" pos="240" len="12" vol="138" pan="0"/>
          <note key="60" pos="252" len="12" vol="138" pan="0"/>
          <note key="65" pos="264" len="12" vol="157" pan="0"/>
          <note key="55" pos="276" len="12" vol="138" pan="0"/>
          <note key="60" pos="288" len="12" vol="138" pan="0"/>
          <note key="62" pos="300" len="12" vol="157" pan="0"/>
          <note key="55" pos="312" len="12" vol="138" pan="0"/>
          <note key="60" pos="324" len="12" vol="138" pan="0"/>
          <note key="63" pos="336" len="12" vol="157" pan="0"/>
          <note key="62" pos="348" len="12" vol="157" pan="0"/>
          <note key="63" pos="360" len="12" vol="157" pan="0"/>
          <note key="65" pos="372" len="12" vol="157" pan="0"/>
        </pattern>
        <pattern steps="16" muted="0" type="1" pos="21888" name="RaveBass">
          <note key="72" pos="0" len="12" vol="170" pan="0"/>
          <note key="60" pos="12" len="12" vol="151" pan="0"/>
          <note key="67" pos="24" len="12" vol="151" pan="0"/>
          <note key="74" pos="36" len="12" vol="170" pan="0"/>
          <note key="60" pos="48" len="12" vol="151" pan="0"/>
          <note key="67" pos="60" len="12" vol="151" pan="0"/>
          <note key="72" pos="72" len="12" vol="170" pan="0"/>
          <note key="60" pos="84" len="12" vol="151" pan="0"/>
          <note key="67" pos="96" len="12" vol="151" pan="0"/>
          <note key="75" pos="108" len="12" vol="170" pan="0"/>
          <note key="60" pos="120" len="12" vol="151" pan="0"/>
          <note key="67" pos="132" len="12" vol="151" pan="0"/>
          <note key="74" pos="144" len="12" vol="170" pan="0"/>
          <note key="75" pos="156" len="12" vol="170" pan="0"/>
          <note key="74" pos="168" len="12" vol="170" pan="0"/>
          <note key="70" pos="180" len="12" vol="170" pan="0"/>
          <note key="72" pos="192" len="12" vol="170" pan="0"/>
          <note key="60" pos="204" len="12" vol="151" pan="0"/>
          <note key="67" pos="216" len="12" vol="151" pan="0"/>
          <note key="70" pos="228" len="12" vol="170" pan="0"/>
          <note key="60" pos="240" len="12" vol="151" pan="0"/>
          <note key="65" pos="252" len="12" vol="151" pan="0"/>
          <note key="67" pos="264" len="12" vol="170" pan="0"/>
          <note key="63" pos="276" len="12" vol="151" pan="0"/>
          <note key="65" pos="288" len="12" vol="157" pan="0"/>
          <note key="63" pos="300" len="12" vol="157" pan="0"/>
          <note key="65" pos="312" len="12" vol="163" pan="0"/>
          <note key="67" pos="324" len="12" vol="163" pan="0"/>
          <note key="68" pos="336" len="12" vol="163" pan="0"/>
          <note key="67" pos="348" len="12" vol="163" pan="0"/>
          <note key="68" pos="360" len="12" vol="170" pan="0"/>
          <note key="70" pos="372" len="12" vol="170" pan="0"/>
        </pattern>
        <pattern steps="16" muted="0" type="1" pos="22656" name="RaveBass">
          <note key="67" pos="0" len="12" vol="170" pan="0"/>
          <note key="55" pos="12" len="12" vol="144" pan="0"/>
          <note key="60" pos="24" len="12" vol="151" pan="0"/>
          <note key="63" pos="36" len="12" vol="170" pan="0"/>
          <note key="55" pos="48" len="12" vol="151" pan="0"/>
          <note key="60" pos="60" len="12" vol="151" pan="0"/>
          <note key="65" pos="72" len="12" vol="170" pan="0"/>
          <note key="55" pos="84" len="12" vol="151" pan="0"/>
          <note key="60" pos="96" len="12" vol="151" pan="0"/>
          <note key="62" pos="108" len="12" vol="170" pan="0"/>
          <note key="55" pos="120" len="12" vol="151" pan="0"/>
          <note key="60" pos="132" len="12" vol="157" pan="0"/>
          <note key="63" pos="144" len="12" vol="170" pan="0"/>
          <note key="65" pos="156" len="12" vol="170" pan="0"/>
          <note key="67" pos="168" len="12" vol="170" pan="0"/>
          <note key="68" pos="180" len="12" vol="170" pan="0"/>
          <note key="70" pos="192" len="12" vol="170" pan="0"/>
          <note key="55" pos="204" len="12" vol="144" pan="0"/>
          <note key="60" pos="216" len="12" vol="151" pan="0"/>
          <note key="67" pos="228" len="12" vol="170" pan="0"/>
          <note key="55" pos="240" len="12" vol="151" pan="0"/>
          <note key="60" pos="252" len="12" vol="151" pan="0"/>
          <note key="68" pos="264" len="12" vol="170" pan="0"/>
          <note key="55" pos="276" len="12" vol="151" pan="0"/>
          <note key="60" pos="288" len="12" vol="151" pan="0"/>
          <note key="65" pos="300" len="12" vol="170" pan="0"/>
          <note key="55" pos="312" len="12" vol="151" pan="0"/>
          <note key="60" pos="324" len="12" vol="151" pan="0"/>
          <note key="67" pos="336" len="12" vol="170" pan="0"/>
          <note key="65" pos="348" len="12" vol="170" pan="0"/>
          <note key="63" pos="360" len="12" vol="170" pan="0"/>
          <note key="60" pos="372" len="12" vol="170" pan="0"/>
        </pattern>
      </track>
      <track solo="0" muted="0" type="0" name="bass fender jazz (1,379kb)">
        <instrumenttrack basenote="81" pitchrange="1" pitch="0" usemasterpitch="1" vol="60" pan="0" fxch="14">
          <instrument name="sf2player">
            <sf2player reverbDamping="0.2" reverbWidth="0.5" reverbLevel="0.9" gain="1" chorusOn="0" reverbOn="0" bank="0" chorusNum="0.9" chorusSpeed="0.3" reverbRoomSize="0.2" src="/home/pass/samples/soundfonts/bass fender jazz (1,379kb).sf2" patch="0" chorusLevel="2" chorusDepth="8"/>
          </instrument>
          <eldata fwet="0" ftype="0" fcut="14000" fres="0.5">
            <elvol ctlenvamt="0" lamt="0" amt="0" latt="0" lspd_syncmode="0" dec="0.5" lpdel="0" att="0" lspd_denominator="4" hold="0.5" lspd="0.1" lspd_numerator="4" sustain="0.5" lshp="0" pdel="0" x100="0" rel="0.1" userwavefile=""/>
            <elcut ctlenvamt="0" lamt="0" amt="0" latt="0" lspd_syncmode="0" dec="0.5" lpdel="0" att="0" lspd_denominator="4" hold="0.5" lspd="0.1" lspd_numerator="4" sustain="0.5" lshp="0" pdel="0" x100="0" rel="0.1" userwavefile=""/>
            <elres ctlenvamt="0" lamt="0" amt="0" latt="0" lspd_syncmode="0" dec="0.5" lpdel="0" att="0" lspd_denominator="4" hold="0.5" lspd="0.1" lspd_numerator="4" sustain="0.5" lshp="0" pdel="0" x100="0" rel="0.1" userwavefile=""/>
          </eldata>
          <chordcreator chordrange="1" chord-enabled="0" chord="0"/>
          <arpeggiator arptime_syncmode="0" arpdir="0" arptime_numerator="4" arpmode="0" arp="0" arpmiss="0" arptime="200" arpgate="100" arp-enabled="0" arpskip="0" arptime_denominator="4" arprange="1" arpcycle="0"/>
          <midiport writable="0" fixedinputvelocity="-1" outputchannel="1" fixedoutputvelocity="-1" outputcontroller="0" basevelocity="63" fixedoutputnote="-1" inputchannel="0" inputcontroller="0" outputprogram="1" readable="0"/>
          <fxchain numofeffects="1" enabled="1">
            <effect gate="0" autoquit_denominator="4" wet="1" autoquit_numerator="4" autoquit="1" autoquit_syncmode="0" name="eq" on="1">
              <Eq LPres="0.707" Peak2gain="18" Lowshelfgain="0" LowShelfres="1.4" LPactive="0" LP48="0" Peak2bw="2.228" Peak3bw="1.697" AnalyseIn="1" HPres="0.707" Peak4active="0" Highshelfactive="0" HighShelfgain="0" HP="0" Peak1bw="1.911" Peak3active="0" Outputgain="0" Peak4gain="0" HP12="1" LP="0" Peak2active="1" LP24="0" AnalyseOut="1" HighShelfres="1.4" HP48="0" Peak3gain="18" HPactive="0" Peak4bw="0.3" Lowshelfactive="0" Peak1active="1" LP12="1" HP24="0">
                <Inputgain value="0" id="109445" scale_type="log"/>
                <Peak1gain value="11.52" id="6094121" scale_type="log"/>
                <HPfreq value="31" id="6248005" scale_type="log"/>
                <LowShelffreq value="80" id="1156093" scale_type="log"/>
                <Peak1freq value="168.208" id="6631620" scale_type="log"/>
                <Peak2freq value="4763.65" id="28320" scale_type="log"/>
                <Peak3freq value="4075.04" id="7751936" scale_type="log"/>
                <Peak4freq value="4000" id="2323413" scale_type="log"/>
                <Highshelffreq value="12000" id="3179323" scale_type="log"/>
                <LPfreq value="18000" id="8270628" scale_type="log"/>
              </Eq>
              <key/>
            </effect>
          </fxchain>
        </instrumenttrack>
        <pattern steps="16" muted="0" type="1" pos="0" name="bass fender jazz (1,379kb)">
          <note key="36" pos="0" len="192" vol="197" pan="0"/>
          <note key="41" pos="192" len="192" vol="197" pan="0"/>
          <note key="45" pos="384" len="192" vol="197" pan="0"/>
          <note key="41" pos="576" len="192" vol="197" pan="0"/>
          <note key="36" pos="768" len="24" vol="197" pan="0"/>
          <note key="36" pos="792" len="12" vol="197" pan="0"/>
          <note key="36" pos="804" len="12" vol="197" pan="0"/>
          <note key="36" pos="816" len="12" vol="197" pan="0"/>
          <note key="36" pos="828" len="12" vol="197" pan="0"/>
          <note key="36" pos="840" len="12" vol="197" pan="0"/>
          <note key="36" pos="852" len="12" vol="197" pan="0"/>
          <note key="36" pos="864" len="12" vol="197" pan="0"/>
          <note key="36" pos="876" len="12" vol="197" pan="0"/>
          <note key="36" pos="888" len="12" vol="197" pan="0"/>
          <note key="36" pos="900" len="12" vol="197" pan="0"/>
          <note key="36" pos="912" len="12" vol="197" pan="0"/>
          <note key="36" pos="924" len="12" vol="197" pan="0"/>
          <note key="36" pos="936" len="12" vol="197" pan="0"/>
          <note key="36" pos="948" len="12" vol="197" pan="0"/>
          <note key="41" pos="960" len="24" vol="197" pan="0"/>
          <note key="41" pos="984" len="12" vol="197" pan="0"/>
          <note key="41" pos="996" len="12" vol="197" pan="0"/>
          <note key="41" pos="1008" len="12" vol="197" pan="0"/>
          <note key="41" pos="1020" len="12" vol="197" pan="0"/>
          <note key="41" pos="1032" len="12" vol="197" pan="0"/>
          <note key="41" pos="1044" len="12" vol="197" pan="0"/>
          <note key="41" pos="1056" len="12" vol="197" pan="0"/>
          <note key="41" pos="1068" len="12" vol="197" pan="0"/>
          <note key="41" pos="1080" len="12" vol="197" pan="0"/>
          <note key="41" pos="1092" len="12" vol="197" pan="0"/>
          <note key="41" pos="1104" len="12" vol="197" pan="0"/>
          <note key="41" pos="1116" len="12" vol="197" pan="0"/>
          <note key="41" pos="1128" len="12" vol="197" pan="0"/>
          <note key="41" pos="1140" len="12" vol="197" pan="0"/>
          <note key="45" pos="1152" len="24" vol="197" pan="0"/>
          <note key="45" pos="1176" len="12" vol="197" pan="0"/>
          <note key="45" pos="1188" len="12" vol="197" pan="0"/>
          <note key="45" pos="1200" len="12" vol="197" pan="0"/>
          <note key="45" pos="1212" len="12" vol="197" pan="0"/>
          <note key="45" pos="1224" len="12" vol="197" pan="0"/>
          <note key="45" pos="1236" len="12" vol="197" pan="0"/>
          <note key="45" pos="1248" len="12" vol="197" pan="0"/>
          <note key="45" pos="1260" len="12" vol="197" pan="0"/>
          <note key="45" pos="1272" len="12" vol="197" pan="0"/>
          <note key="45" pos="1284" len="12" vol="197" pan="0"/>
          <note key="45" pos="1296" len="12" vol="197" pan="0"/>
          <note key="45" pos="1308" len="12" vol="197" pan="0"/>
          <note key="45" pos="1320" len="12" vol="197" pan="0"/>
          <note key="45" pos="1332" len="12" vol="197" pan="0"/>
          <note key="41" pos="1344" len="24" vol="197" pan="0"/>
          <note key="41" pos="1368" len="12" vol="197" pan="0"/>
          <note key="41" pos="1380" len="12" vol="197" pan="0"/>
          <note key="41" pos="1392" len="12" vol="197" pan="0"/>
          <note key="41" pos="1404" len="12" vol="197" pan="0"/>
          <note key="41" pos="1416" len="12" vol="197" pan="0"/>
          <note key="41" pos="1428" len="12" vol="197" pan="0"/>
          <note key="41" pos="1440" len="12" vol="197" pan="0"/>
          <note key="41" pos="1452" len="12" vol="197" pan="0"/>
          <note key="41" pos="1464" len="12" vol="197" pan="0"/>
          <note key="41" pos="1476" len="12" vol="197" pan="0"/>
          <note key="41" pos="1488" len="12" vol="197" pan="0"/>
          <note key="41" pos="1500" len="12" vol="197" pan="0"/>
          <note key="41" pos="1512" len="12" vol="197" pan="0"/>
          <note key="41" pos="1524" len="12" vol="197" pan="0"/>
        </pattern>
        <pattern steps="16" muted="0" type="1" pos="11136" name="bass fender jazz (1,379kb)">
          <note key="39" pos="0" len="12" vol="197" pan="0"/>
          <note key="41" pos="12" len="12" vol="197" pan="0"/>
          <note key="41" pos="24" len="12" vol="197" pan="0"/>
          <note key="41" pos="36" len="12" vol="197" pan="0"/>
          <note key="41" pos="48" len="12" vol="197" pan="0"/>
          <note key="41" pos="60" len="12" vol="197" pan="0"/>
          <note key="41" pos="72" len="12" vol="197" pan="0"/>
          <note key="41" pos="84" len="12" vol="197" pan="0"/>
          <note key="39" pos="96" len="12" vol="197" pan="0"/>
          <note key="41" pos="108" len="12" vol="197" pan="0"/>
          <note key="41" pos="120" len="12" vol="197" pan="0"/>
          <note key="41" pos="132" len="12" vol="197" pan="0"/>
          <note key="44" pos="144" len="12" vol="197" pan="0"/>
          <note key="41" pos="156" len="12" vol="197" pan="0"/>
          <note key="41" pos="168" len="12" vol="197" pan="0"/>
          <note key="41" pos="180" len="12" vol="197" pan="0"/>
          <note key="39" pos="192" len="12" vol="197" pan="0"/>
          <note key="41" pos="204" len="12" vol="197" pan="0"/>
          <note key="41" pos="216" len="12" vol="197" pan="0"/>
          <note key="41" pos="228" len="12" vol="197" pan="0"/>
          <note key="41" pos="240" len="12" vol="197" pan="0"/>
          <note key="41" pos="252" len="12" vol="197" pan="0"/>
          <note key="41" pos="264" len="12" vol="197" pan="0"/>
          <note key="41" pos="276" len="12" vol="197" pan="0"/>
          <note key="39" pos="288" len="12" vol="197" pan="0"/>
          <note key="41" pos="300" len="12" vol="197" pan="0"/>
          <note key="41" pos="312" len="12" vol="197" pan="0"/>
          <note key="41" pos="324" len="12" vol="197" pan="0"/>
          <note key="44" pos="336" len="12" vol="197" pan="0"/>
          <note key="41" pos="348" len="12" vol="197" pan="0"/>
          <note key="41" pos="360" len="12" vol="197" pan="0"/>
          <note key="41" pos="372" len="12" vol="197" pan="0"/>
          <note key="36" pos="384" len="12" vol="197" pan="0"/>
          <note key="37" pos="396" len="12" vol="197" pan="0"/>
          <note key="37" pos="408" len="12" vol="197" pan="0"/>
          <note key="37" pos="420" len="12" vol="197" pan="0"/>
          <note key="37" pos="432" len="12" vol="197" pan="0"/>
          <note key="37" pos="444" len="12" vol="197" pan="0"/>
          <note key="37" pos="456" len="12" vol="197" pan="0"/>
          <note key="37" pos="468" len="12" vol="197" pan="0"/>
          <note key="36" pos="480" len="12" vol="197" pan="0"/>
          <note key="37" pos="492" len="12" vol="197" pan="0"/>
          <note key="37" pos="504" len="12" vol="197" pan="0"/>
          <note key="37" pos="516" len="12" vol="197" pan="0"/>
          <note key="39" pos="528" len="12" vol="197" pan="0"/>
          <note key="37" pos="540" len="12" vol="197" pan="0"/>
          <note key="37" pos="552" len="12" vol="197" pan="0"/>
          <note key="37" pos="564" len="12" vol="197" pan="0"/>
          <note key="36" pos="576" len="12" vol="197" pan="0"/>
          <note key="37" pos="588" len="12" vol="197" pan="0"/>
          <note key="37" pos="600" len="12" vol="197" pan="0"/>
          <note key="37" pos="612" len="12" vol="197" pan="0"/>
          <note key="37" pos="624" len="12" vol="197" pan="0"/>
          <note key="37" pos="636" len="12" vol="197" pan="0"/>
          <note key="37" pos="648" len="12" vol="197" pan="0"/>
          <note key="37" pos="660" len="12" vol="197" pan="0"/>
          <note key="36" pos="672" len="12" vol="197" pan="0"/>
          <note key="37" pos="684" len="12" vol="197" pan="0"/>
          <note key="37" pos="696" len="12" vol="197" pan="0"/>
          <note key="37" pos="708" len="12" vol="197" pan="0"/>
          <note key="39" pos="720" len="12" vol="197" pan="0"/>
          <note key="37" pos="732" len="12" vol="197" pan="0"/>
          <note key="37" pos="744" len="12" vol="197" pan="0"/>
          <note key="37" pos="756" len="12" vol="197" pan="0"/>
        </pattern>
        <pattern steps="16" muted="0" type="1" pos="11904" name="bass fender jazz (1,379kb)">
          <note key="39" pos="0" len="12" vol="197" pan="0"/>
          <note key="41" pos="12" len="12" vol="197" pan="0"/>
          <note key="41" pos="24" len="12" vol="197" pan="0"/>
          <note key="41" pos="36" len="12" vol="197" pan="0"/>
          <note key="41" pos="48" len="12" vol="197" pan="0"/>
          <note key="41" pos="60" len="12" vol="197" pan="0"/>
          <note key="41" pos="72" len="12" vol="197" pan="0"/>
          <note key="41" pos="84" len="12" vol="197" pan="0"/>
          <note key="39" pos="96" len="12" vol="197" pan="0"/>
          <note key="41" pos="108" len="12" vol="197" pan="0"/>
          <note key="41" pos="120" len="12" vol="197" pan="0"/>
          <note key="41" pos="132" len="12" vol="197" pan="0"/>
          <note key="44" pos="144" len="12" vol="197" pan="0"/>
          <note key="41" pos="156" len="12" vol="197" pan="0"/>
          <note key="41" pos="168" len="12" vol="197" pan="0"/>
          <note key="41" pos="180" len="12" vol="197" pan="0"/>
          <note key="39" pos="192" len="12" vol="197" pan="0"/>
          <note key="41" pos="204" len="12" vol="197" pan="0"/>
          <note key="41" pos="216" len="12" vol="197" pan="0"/>
          <note key="41" pos="228" len="12" vol="197" pan="0"/>
          <note key="41" pos="240" len="12" vol="197" pan="0"/>
          <note key="41" pos="252" len="12" vol="197" pan="0"/>
          <note key="41" pos="264" len="12" vol="197" pan="0"/>
          <note key="41" pos="276" len="12" vol="197" pan="0"/>
          <note key="39" pos="288" len="12" vol="197" pan="0"/>
          <note key="41" pos="300" len="12" vol="197" pan="0"/>
          <note key="41" pos="312" len="12" vol="197" pan="0"/>
          <note key="41" pos="324" len="12" vol="197" pan="0"/>
          <note key="44" pos="336" len="12" vol="197" pan="0"/>
          <note key="41" pos="348" len="12" vol="197" pan="0"/>
          <note key="41" pos="360" len="12" vol="197" pan="0"/>
          <note key="41" pos="372" len="12" vol="197" pan="0"/>
          <note key="36" pos="384" len="12" vol="197" pan="0"/>
          <note key="37" pos="396" len="12" vol="197" pan="0"/>
          <note key="37" pos="408" len="12" vol="197" pan="0"/>
          <note key="37" pos="420" len="12" vol="197" pan="0"/>
          <note key="37" pos="432" len="12" vol="197" pan="0"/>
          <note key="37" pos="444" len="12" vol="197" pan="0"/>
          <note key="37" pos="456" len="12" vol="197" pan="0"/>
          <note key="37" pos="468" len="12" vol="197" pan="0"/>
          <note key="36" pos="480" len="12" vol="197" pan="0"/>
          <note key="37" pos="492" len="12" vol="197" pan="0"/>
          <note key="37" pos="504" len="12" vol="197" pan="0"/>
          <note key="37" pos="516" len="12" vol="197" pan="0"/>
          <note key="39" pos="528" len="12" vol="197" pan="0"/>
          <note key="37" pos="540" len="12" vol="197" pan="0"/>
          <note key="37" pos="552" len="12" vol="197" pan="0"/>
          <note key="37" pos="564" len="12" vol="197" pan="0"/>
          <note key="36" pos="576" len="12" vol="197" pan="0"/>
          <note key="37" pos="588" len="12" vol="197" pan="0"/>
          <note key="37" pos="600" len="12" vol="197" pan="0"/>
          <note key="37" pos="612" len="12" vol="197" pan="0"/>
          <note key="37" pos="624" len="12" vol="197" pan="0"/>
          <note key="37" pos="636" len="12" vol="197" pan="0"/>
          <note key="37" pos="648" len="12" vol="197" pan="0"/>
          <note key="37" pos="660" len="12" vol="197" pan="0"/>
          <note key="36" pos="672" len="12" vol="197" pan="0"/>
          <note key="37" pos="684" len="12" vol="197" pan="0"/>
          <note key="37" pos="696" len="12" vol="197" pan="0"/>
          <note key="37" pos="708" len="12" vol="197" pan="0"/>
          <note key="39" pos="720" len="12" vol="197" pan="0"/>
          <note key="37" pos="732" len="12" vol="197" pan="0"/>
          <note key="37" pos="744" len="12" vol="197" pan="0"/>
          <note key="37" pos="756" len="12" vol="197" pan="0"/>
        </pattern>
        <pattern steps="16" muted="0" type="1" pos="6528" name="bass fender jazz (1,379kb)">
          <note key="36" pos="0" len="36" vol="193" pan="0"/>
          <note key="36" pos="36" len="36" vol="193" pan="0"/>
          <note key="36" pos="72" len="36" vol="193" pan="0"/>
          <note key="36" pos="108" len="36" vol="193" pan="0"/>
          <note key="36" pos="144" len="36" vol="193" pan="0"/>
          <note key="36" pos="180" len="36" vol="193" pan="0"/>
          <note key="36" pos="216" len="36" vol="193" pan="0"/>
          <note key="36" pos="252" len="36" vol="193" pan="0"/>
          <note key="39" pos="288" len="24" vol="193" pan="0"/>
          <note key="36" pos="312" len="24" vol="193" pan="0"/>
          <note key="36" pos="336" len="12" vol="193" pan="0"/>
          <note key="36" pos="348" len="12" vol="193" pan="0"/>
          <note key="36" pos="360" len="12" vol="193" pan="0"/>
          <note key="36" pos="372" len="12" vol="193" pan="0"/>
        </pattern>
        <pattern steps="16" muted="0" type="1" pos="6912" name="bass fender jazz (1,379kb)">
          <note key="44" pos="0" len="36" vol="193" pan="0"/>
          <note key="44" pos="36" len="36" vol="193" pan="0"/>
          <note key="44" pos="72" len="36" vol="193" pan="0"/>
          <note key="44" pos="108" len="36" vol="193" pan="0"/>
          <note key="46" pos="144" len="36" vol="193" pan="0"/>
          <note key="46" pos="180" len="36" vol="193" pan="0"/>
          <note key="46" pos="216" len="36" vol="193" pan="0"/>
          <note key="46" pos="252" len="36" vol="193" pan="0"/>
          <note key="53" pos="288" len="24" vol="193" pan="0"/>
          <note key="46" pos="312" len="24" vol="193" pan="0"/>
          <note key="46" pos="336" len="12" vol="193" pan="0"/>
          <note key="46" pos="348" len="12" vol="193" pan="0"/>
          <note key="46" pos="360" len="12" vol="193" pan="0"/>
          <note key="46" pos="372" len="12" vol="193" pan="0"/>
        </pattern>
        <pattern steps="16" muted="0" type="1" pos="7296" name="bass fender jazz (1,379kb)">
          <note key="36" pos="0" len="36" vol="193" pan="0"/>
          <note key="36" pos="36" len="36" vol="193" pan="0"/>
          <note key="36" pos="72" len="36" vol="193" pan="0"/>
          <note key="36" pos="108" len="36" vol="193" pan="0"/>
          <note key="36" pos="144" len="36" vol="193" pan="0"/>
          <note key="36" pos="180" len="36" vol="193" pan="0"/>
          <note key="36" pos="216" len="36" vol="193" pan="0"/>
          <note key="36" pos="252" len="36" vol="193" pan="0"/>
          <note key="39" pos="288" len="24" vol="193" pan="0"/>
          <note key="36" pos="312" len="24" vol="193" pan="0"/>
          <note key="36" pos="336" len="12" vol="193" pan="0"/>
          <note key="36" pos="348" len="12" vol="193" pan="0"/>
          <note key="36" pos="360" len="12" vol="193" pan="0"/>
          <note key="36" pos="372" len="12" vol="193" pan="0"/>
        </pattern>
        <pattern steps="16" muted="0" type="1" pos="7680" name="bass fender jazz (1,379kb)">
          <note key="44" pos="0" len="36" vol="193" pan="0"/>
          <note key="44" pos="36" len="36" vol="193" pan="0"/>
          <note key="44" pos="72" len="36" vol="193" pan="0"/>
          <note key="44" pos="108" len="36" vol="193" pan="0"/>
          <note key="46" pos="144" len="36" vol="193" pan="0"/>
          <note key="46" pos="180" len="36" vol="193" pan="0"/>
          <note key="46" pos="216" len="36" vol="193" pan="0"/>
          <note key="46" pos="252" len="36" vol="193" pan="0"/>
          <note key="53" pos="288" len="24" vol="193" pan="0"/>
          <note key="46" pos="312" len="24" vol="193" pan="0"/>
          <note key="46" pos="336" len="12" vol="193" pan="0"/>
          <note key="46" pos="348" len="12" vol="193" pan="0"/>
          <note key="46" pos="360" len="12" vol="193" pan="0"/>
          <note key="46" pos="372" len="12" vol="193" pan="0"/>
        </pattern>
        <pattern steps="16" muted="0" type="1" pos="1536" name="bass fender jazz (1,379kb)">
          <note key="48" pos="0" len="24" vol="144" pan="0"/>
          <note key="50" pos="48" len="24" vol="151" pan="0"/>
          <note key="51" pos="96" len="24" vol="151" pan="0"/>
          <note key="53" pos="144" len="24" vol="144" pan="0"/>
          <note key="47" pos="192" len="48" vol="144" pan="0"/>
          <note key="53" pos="240" len="48" vol="151" pan="0"/>
          <note key="59" pos="288" len="48" vol="144" pan="0"/>
        </pattern>
        <pattern steps="16" muted="0" type="1" pos="1920" name="bass fender jazz (1,379kb)">
          <note key="36" pos="0" len="192" vol="197" pan="0"/>
          <note key="39" pos="192" len="96" vol="197" pan="0"/>
          <note key="41" pos="288" len="96" vol="197" pan="0"/>
          <note key="48" pos="384" len="12" vol="197" pan="0"/>
          <note key="36" pos="396" len="12" vol="197" pan="0"/>
          <note key="36" pos="408" len="12" vol="197" pan="0"/>
          <note key="43" pos="420" len="12" vol="197" pan="0"/>
          <note key="36" pos="432" len="12" vol="197" pan="0"/>
          <note key="36" pos="444" len="12" vol="197" pan="0"/>
          <note key="46" pos="456" len="12" vol="197" pan="0"/>
          <note key="36" pos="468" len="12" vol="197" pan="0"/>
          <note key="36" pos="480" len="12" vol="197" pan="0"/>
          <note key="41" pos="492" len="12" vol="197" pan="0"/>
          <note key="36" pos="504" len="12" vol="197" pan="0"/>
          <note key="36" pos="516" len="12" vol="197" pan="0"/>
          <note key="39" pos="528" len="12" vol="197" pan="0"/>
          <note key="36" pos="540" len="12" vol="197" pan="0"/>
          <note key="36" pos="552" len="12" vol="197" pan="0"/>
          <note key="36" pos="564" len="12" vol="197" pan="0"/>
          <note key="48" pos="576" len="12" vol="197" pan="0"/>
          <note key="36" pos="588" len="12" vol="197" pan="0"/>
          <note key="36" pos="600" len="12" vol="197" pan="0"/>
          <note key="43" pos="612" len="12" vol="197" pan="0"/>
          <note key="36" pos="624" len="12" vol="197" pan="0"/>
          <note key="36" pos="636" len="12" vol="197" pan="0"/>
          <note key="46" pos="648" len="12" vol="197" pan="0"/>
          <note key="36" pos="660" len="12" vol="197" pan="0"/>
          <note key="36" pos="672" len="12" vol="197" pan="0"/>
          <note key="41" pos="684" len="12" vol="197" pan="0"/>
          <note key="36" pos="696" len="12" vol="197" pan="0"/>
          <note key="36" pos="708" len="12" vol="197" pan="0"/>
          <note key="48" pos="720" len="24" vol="197" pan="0"/>
          <note key="50" pos="744" len="24" vol="197" pan="0"/>
        </pattern>
        <pattern steps="16" muted="0" type="1" pos="2688" name="bass fender jazz (1,379kb)">
          <note key="41" pos="0" len="192" vol="195" pan="0"/>
          <note key="46" pos="192" len="192" vol="195" pan="0"/>
          <note key="48" pos="384" len="12" vol="195" pan="0"/>
          <note key="36" pos="396" len="12" vol="195" pan="0"/>
          <note key="36" pos="408" len="12" vol="195" pan="0"/>
          <note key="43" pos="420" len="12" vol="195" pan="0"/>
          <note key="36" pos="432" len="12" vol="195" pan="0"/>
          <note key="36" pos="444" len="12" vol="195" pan="0"/>
          <note key="46" pos="456" len="12" vol="195" pan="0"/>
          <note key="36" pos="468" len="12" vol="195" pan="0"/>
          <note key="36" pos="480" len="12" vol="195" pan="0"/>
          <note key="41" pos="492" len="12" vol="195" pan="0"/>
          <note key="36" pos="504" len="12" vol="195" pan="0"/>
          <note key="36" pos="516" len="12" vol="195" pan="0"/>
          <note key="39" pos="528" len="12" vol="195" pan="0"/>
          <note key="36" pos="540" len="12" vol="195" pan="0"/>
          <note key="36" pos="552" len="12" vol="195" pan="0"/>
          <note key="36" pos="564" len="12" vol="195" pan="0"/>
          <note key="48" pos="576" len="12" vol="195" pan="0"/>
          <note key="36" pos="588" len="12" vol="195" pan="0"/>
          <note key="36" pos="600" len="12" vol="195" pan="0"/>
          <note key="43" pos="612" len="12" vol="195" pan="0"/>
          <note key="36" pos="624" len="12" vol="195" pan="0"/>
          <note key="36" pos="636" len="12" vol="195" pan="0"/>
          <note key="46" pos="648" len="12" vol="195" pan="0"/>
          <note key="36" pos="660" len="12" vol="195" pan="0"/>
          <note key="36" pos="672" len="12" vol="195" pan="0"/>
          <note key="41" pos="684" len="12" vol="195" pan="0"/>
          <note key="36" pos="696" len="12" vol="195" pan="0"/>
          <note key="36" pos="708" len="12" vol="195" pan="0"/>
          <note key="48" pos="720" len="24" vol="195" pan="0"/>
          <note key="50" pos="744" len="24" vol="195" pan="0"/>
        </pattern>
        <pattern steps="16" muted="0" type="1" pos="3456" name="bass fender jazz (1,379kb)">
          <note key="36" pos="0" len="192" vol="195" pan="0"/>
          <note key="39" pos="192" len="96" vol="195" pan="0"/>
          <note key="41" pos="288" len="96" vol="195" pan="0"/>
          <note key="48" pos="384" len="12" vol="195" pan="0"/>
          <note key="36" pos="396" len="12" vol="195" pan="0"/>
          <note key="36" pos="408" len="12" vol="195" pan="0"/>
          <note key="43" pos="420" len="12" vol="195" pan="0"/>
          <note key="36" pos="432" len="12" vol="195" pan="0"/>
          <note key="36" pos="444" len="12" vol="195" pan="0"/>
          <note key="46" pos="456" len="12" vol="195" pan="0"/>
          <note key="36" pos="468" len="12" vol="195" pan="0"/>
          <note key="36" pos="480" len="12" vol="195" pan="0"/>
          <note key="41" pos="492" len="12" vol="195" pan="0"/>
          <note key="36" pos="504" len="12" vol="195" pan="0"/>
          <note key="36" pos="516" len="12" vol="195" pan="0"/>
          <note key="39" pos="528" len="12" vol="195" pan="0"/>
          <note key="36" pos="540" len="12" vol="195" pan="0"/>
          <note key="36" pos="552" len="12" vol="195" pan="0"/>
          <note key="36" pos="564" len="12" vol="195" pan="0"/>
          <note key="48" pos="576" len="12" vol="195" pan="0"/>
          <note key="36" pos="588" len="12" vol="195" pan="0"/>
          <note key="36" pos="600" len="12" vol="195" pan="0"/>
          <note key="43" pos="612" len="12" vol="195" pan="0"/>
          <note key="36" pos="624" len="12" vol="195" pan="0"/>
          <note key="36" pos="636" len="12" vol="195" pan="0"/>
          <note key="46" pos="648" len="12" vol="195" pan="0"/>
          <note key="36" pos="660" len="12" vol="195" pan="0"/>
          <note key="36" pos="672" len="12" vol="195" pan="0"/>
          <note key="41" pos="684" len="12" vol="195" pan="0"/>
          <note key="36" pos="696" len="12" vol="195" pan="0"/>
          <note key="36" pos="708" len="12" vol="195" pan="0"/>
          <note key="48" pos="720" len="24" vol="195" pan="0"/>
          <note key="50" pos="744" len="24" vol="195" pan="0"/>
        </pattern>
        <pattern steps="16" muted="0" type="1" pos="4224" name="bass fender jazz (1,379kb)">
          <note key="41" pos="0" len="192" vol="193" pan="0"/>
          <note key="46" pos="192" len="192" vol="193" pan="0"/>
          <note key="39" pos="384" len="12" vol="193" pan="0"/>
          <note key="39" pos="396" len="12" vol="193" pan="0"/>
          <note key="39" pos="408" len="12" vol="193" pan="0"/>
          <note key="39" pos="420" len="12" vol="193" pan="0"/>
          <note key="39" pos="432" len="12" vol="193" pan="0"/>
          <note key="39" pos="444" len="12" vol="193" pan="0"/>
          <note key="39" pos="456" len="12" vol="193" pan="0"/>
          <note key="39" pos="468" len="12" vol="193" pan="0"/>
          <note key="39" pos="480" len="12" vol="193" pan="0"/>
          <note key="39" pos="492" len="12" vol="193" pan="0"/>
          <note key="39" pos="504" len="12" vol="193" pan="0"/>
          <note key="39" pos="516" len="12" vol="193" pan="0"/>
          <note key="39" pos="528" len="12" vol="193" pan="0"/>
          <note key="39" pos="540" len="12" vol="193" pan="0"/>
          <note key="39" pos="552" len="12" vol="193" pan="0"/>
          <note key="39" pos="564" len="12" vol="193" pan="0"/>
          <note key="43" pos="576" len="12" vol="193" pan="0"/>
          <note key="43" pos="588" len="12" vol="193" pan="0"/>
          <note key="43" pos="600" len="12" vol="193" pan="0"/>
          <note key="43" pos="612" len="12" vol="193" pan="0"/>
          <note key="43" pos="624" len="12" vol="193" pan="0"/>
          <note key="43" pos="636" len="12" vol="193" pan="0"/>
          <note key="43" pos="648" len="12" vol="193" pan="0"/>
          <note key="43" pos="660" len="12" vol="193" pan="0"/>
          <note key="47" pos="672" len="12" vol="193" pan="0"/>
          <note key="47" pos="684" len="12" vol="193" pan="0"/>
          <note key="47" pos="696" len="12" vol="193" pan="0"/>
          <note key="47" pos="708" len="12" vol="193" pan="0"/>
          <note key="50" pos="720" len="12" vol="193" pan="0"/>
          <note key="48" pos="732" len="12" vol="193" pan="0"/>
          <note key="47" pos="744" len="12" vol="193" pan="0"/>
          <note key="43" pos="756" len="12" vol="193" pan="0"/>
        </pattern>
        <pattern steps="16" muted="0" type="1" pos="25344" name="bass fender jazz (1,379kb)">
          <note key="38" pos="0" len="24" vol="197" pan="0"/>
          <note key="38" pos="24" len="12" vol="197" pan="0"/>
          <note key="38" pos="36" len="12" vol="197" pan="0"/>
          <note key="38" pos="48" len="12" vol="197" pan="0"/>
          <note key="38" pos="60" len="12" vol="197" pan="0"/>
          <note key="38" pos="72" len="24" vol="197" pan="0"/>
          <note key="38" pos="96" len="12" vol="197" pan="0"/>
          <note key="38" pos="108" len="12" vol="197" pan="0"/>
          <note key="38" pos="120" len="12" vol="197" pan="0"/>
          <note key="38" pos="132" len="12" vol="197" pan="0"/>
          <note key="38" pos="144" len="24" vol="197" pan="0"/>
          <note key="38" pos="168" len="12" vol="197" pan="0"/>
          <note key="38" pos="180" len="12" vol="197" pan="0"/>
          <note key="38" pos="192" len="12" vol="197" pan="0"/>
          <note key="38" pos="204" len="12" vol="197" pan="0"/>
          <note key="38" pos="216" len="24" vol="197" pan="0"/>
          <note key="38" pos="240" len="12" vol="197" pan="0"/>
          <note key="38" pos="252" len="12" vol="197" pan="0"/>
          <note key="38" pos="264" len="12" vol="197" pan="0"/>
          <note key="38" pos="276" len="12" vol="197" pan="0"/>
          <note key="41" pos="288" len="24" vol="197" pan="0"/>
          <note key="40" pos="312" len="24" vol="197" pan="0"/>
          <note key="38" pos="336" len="24" vol="197" pan="0"/>
          <note key="36" pos="360" len="24" vol="197" pan="0"/>
          <note key="46" pos="384" len="24" vol="197" pan="0"/>
          <note key="46" pos="408" len="12" vol="197" pan="0"/>
          <note key="46" pos="420" len="12" vol="197" pan="0"/>
          <note key="46" pos="432" len="12" vol="197" pan="0"/>
          <note key="46" pos="444" len="12" vol="197" pan="0"/>
          <note key="46" pos="456" len="24" vol="197" pan="0"/>
          <note key="46" pos="480" len="12" vol="197" pan="0"/>
          <note key="46" pos="492" len="12" vol="197" pan="0"/>
          <note key="46" pos="504" len="12" vol="197" pan="0"/>
          <note key="46" pos="516" len="12" vol="197" pan="0"/>
          <note key="36" pos="528" len="24" vol="197" pan="0"/>
          <note key="36" pos="552" len="12" vol="197" pan="0"/>
          <note key="36" pos="564" len="12" vol="197" pan="0"/>
          <note key="36" pos="576" len="12" vol="197" pan="0"/>
          <note key="36" pos="588" len="12" vol="197" pan="0"/>
          <note key="36" pos="600" len="24" vol="197" pan="0"/>
          <note key="36" pos="624" len="12" vol="197" pan="0"/>
          <note key="36" pos="636" len="12" vol="197" pan="0"/>
          <note key="36" pos="648" len="12" vol="197" pan="0"/>
          <note key="36" pos="660" len="12" vol="197" pan="0"/>
          <note key="36" pos="672" len="24" vol="197" pan="0"/>
          <note key="36" pos="696" len="12" vol="197" pan="0"/>
          <note key="36" pos="708" len="12" vol="197" pan="0"/>
          <note key="36" pos="720" len="24" vol="197" pan="0"/>
          <note key="36" pos="744" len="12" vol="197" pan="0"/>
          <note key="36" pos="756" len="12" vol="197" pan="0"/>
        </pattern>
        <pattern steps="16" muted="0" type="1" pos="26112" name="bass fender jazz (1,379kb)">
          <note key="38" pos="0" len="24" vol="197" pan="0"/>
          <note key="38" pos="24" len="12" vol="197" pan="0"/>
          <note key="38" pos="36" len="12" vol="197" pan="0"/>
          <note key="38" pos="48" len="12" vol="197" pan="0"/>
          <note key="38" pos="60" len="12" vol="197" pan="0"/>
          <note key="38" pos="72" len="24" vol="197" pan="0"/>
          <note key="38" pos="96" len="12" vol="197" pan="0"/>
          <note key="38" pos="108" len="12" vol="197" pan="0"/>
          <note key="38" pos="120" len="12" vol="197" pan="0"/>
          <note key="38" pos="132" len="12" vol="197" pan="0"/>
          <note key="38" pos="144" len="24" vol="197" pan="0"/>
          <note key="38" pos="168" len="12" vol="197" pan="0"/>
          <note key="38" pos="180" len="12" vol="197" pan="0"/>
          <note key="38" pos="192" len="12" vol="197" pan="0"/>
          <note key="38" pos="204" len="12" vol="197" pan="0"/>
          <note key="38" pos="216" len="24" vol="197" pan="0"/>
          <note key="38" pos="240" len="12" vol="197" pan="0"/>
          <note key="38" pos="252" len="12" vol="197" pan="0"/>
          <note key="38" pos="264" len="12" vol="197" pan="0"/>
          <note key="38" pos="276" len="12" vol="197" pan="0"/>
          <note key="41" pos="288" len="24" vol="197" pan="0"/>
          <note key="40" pos="312" len="24" vol="197" pan="0"/>
          <note key="38" pos="336" len="24" vol="197" pan="0"/>
          <note key="36" pos="360" len="24" vol="197" pan="0"/>
          <note key="46" pos="384" len="24" vol="197" pan="0"/>
          <note key="46" pos="408" len="12" vol="197" pan="0"/>
          <note key="46" pos="420" len="12" vol="197" pan="0"/>
          <note key="46" pos="432" len="12" vol="197" pan="0"/>
          <note key="46" pos="444" len="12" vol="197" pan="0"/>
          <note key="46" pos="456" len="24" vol="197" pan="0"/>
          <note key="46" pos="480" len="12" vol="197" pan="0"/>
          <note key="46" pos="492" len="12" vol="197" pan="0"/>
          <note key="46" pos="504" len="12" vol="197" pan="0"/>
          <note key="46" pos="516" len="12" vol="197" pan="0"/>
          <note key="36" pos="528" len="24" vol="197" pan="0"/>
          <note key="36" pos="552" len="12" vol="197" pan="0"/>
          <note key="36" pos="564" len="12" vol="197" pan="0"/>
          <note key="36" pos="576" len="12" vol="197" pan="0"/>
          <note key="36" pos="588" len="12" vol="197" pan="0"/>
          <note key="36" pos="600" len="24" vol="197" pan="0"/>
          <note key="36" pos="624" len="12" vol="197" pan="0"/>
          <note key="36" pos="636" len="12" vol="197" pan="0"/>
          <note key="36" pos="648" len="12" vol="197" pan="0"/>
          <note key="36" pos="660" len="12" vol="197" pan="0"/>
          <note key="36" pos="672" len="48" vol="197" pan="0"/>
          <note key="38" pos="720" len="48" vol="197" pan="0"/>
        </pattern>
        <pattern steps="16" muted="0" type="1" pos="26880" name="bass fender jazz (1,379kb)">
          <note key="40" pos="0" len="24" vol="195" pan="0"/>
          <note key="40" pos="24" len="12" vol="195" pan="0"/>
          <note key="40" pos="36" len="12" vol="195" pan="0"/>
          <note key="40" pos="48" len="12" vol="195" pan="0"/>
          <note key="40" pos="60" len="12" vol="195" pan="0"/>
          <note key="40" pos="72" len="24" vol="195" pan="0"/>
          <note key="40" pos="96" len="12" vol="195" pan="0"/>
          <note key="40" pos="108" len="12" vol="195" pan="0"/>
          <note key="40" pos="120" len="12" vol="195" pan="0"/>
          <note key="40" pos="132" len="12" vol="195" pan="0"/>
          <note key="40" pos="144" len="24" vol="195" pan="0"/>
          <note key="40" pos="168" len="12" vol="195" pan="0"/>
          <note key="40" pos="180" len="12" vol="195" pan="0"/>
          <note key="40" pos="192" len="12" vol="195" pan="0"/>
          <note key="40" pos="204" len="12" vol="195" pan="0"/>
          <note key="40" pos="216" len="24" vol="195" pan="0"/>
          <note key="40" pos="240" len="12" vol="195" pan="0"/>
          <note key="40" pos="252" len="12" vol="195" pan="0"/>
          <note key="40" pos="264" len="12" vol="195" pan="0"/>
          <note key="40" pos="276" len="12" vol="195" pan="0"/>
          <note key="43" pos="288" len="24" vol="195" pan="0"/>
          <note key="42" pos="312" len="24" vol="195" pan="0"/>
          <note key="40" pos="336" len="24" vol="195" pan="0"/>
          <note key="38" pos="360" len="24" vol="195" pan="0"/>
          <note key="36" pos="384" len="24" vol="195" pan="0"/>
          <note key="36" pos="408" len="12" vol="195" pan="0"/>
          <note key="36" pos="420" len="12" vol="195" pan="0"/>
          <note key="36" pos="432" len="12" vol="195" pan="0"/>
          <note key="36" pos="444" len="12" vol="195" pan="0"/>
          <note key="36" pos="456" len="24" vol="195" pan="0"/>
          <note key="36" pos="480" len="12" vol="195" pan="0"/>
          <note key="36" pos="492" len="12" vol="195" pan="0"/>
          <note key="36" pos="504" len="12" vol="195" pan="0"/>
          <note key="36" pos="516" len="12" vol="195" pan="0"/>
          <note key="38" pos="528" len="24" vol="195" pan="0"/>
          <note key="38" pos="552" len="12" vol="195" pan="0"/>
          <note key="38" pos="564" len="12" vol="195" pan="0"/>
          <note key="38" pos="576" len="12" vol="195" pan="0"/>
          <note key="38" pos="588" len="12" vol="195" pan="0"/>
          <note key="38" pos="600" len="24" vol="195" pan="0"/>
          <note key="38" pos="624" len="12" vol="195" pan="0"/>
          <note key="38" pos="636" len="12" vol="195" pan="0"/>
          <note key="38" pos="648" len="12" vol="195" pan="0"/>
          <note key="38" pos="660" len="12" vol="195" pan="0"/>
          <note key="38" pos="672" len="24" vol="195" pan="0"/>
          <note key="38" pos="696" len="12" vol="195" pan="0"/>
          <note key="38" pos="708" len="12" vol="195" pan="0"/>
          <note key="38" pos="720" len="24" vol="195" pan="0"/>
          <note key="38" pos="744" len="12" vol="195" pan="0"/>
          <note key="38" pos="756" len="12" vol="195" pan="0"/>
        </pattern>
        <pattern steps="16" muted="0" type="1" pos="27648" name="bass fender jazz (1,379kb)">
          <note key="40" pos="0" len="24" vol="195" pan="0"/>
          <note key="40" pos="24" len="12" vol="195" pan="0"/>
          <note key="40" pos="36" len="12" vol="195" pan="0"/>
          <note key="40" pos="48" len="12" vol="195" pan="0"/>
          <note key="40" pos="60" len="12" vol="195" pan="0"/>
          <note key="40" pos="72" len="24" vol="195" pan="0"/>
          <note key="40" pos="96" len="12" vol="195" pan="0"/>
          <note key="40" pos="108" len="12" vol="195" pan="0"/>
          <note key="40" pos="120" len="12" vol="195" pan="0"/>
          <note key="40" pos="132" len="12" vol="195" pan="0"/>
          <note key="40" pos="144" len="24" vol="195" pan="0"/>
          <note key="40" pos="168" len="12" vol="195" pan="0"/>
          <note key="40" pos="180" len="12" vol="195" pan="0"/>
          <note key="40" pos="192" len="12" vol="195" pan="0"/>
          <note key="40" pos="204" len="12" vol="195" pan="0"/>
          <note key="40" pos="216" len="24" vol="195" pan="0"/>
          <note key="40" pos="240" len="12" vol="195" pan="0"/>
          <note key="40" pos="252" len="12" vol="195" pan="0"/>
          <note key="40" pos="264" len="12" vol="195" pan="0"/>
          <note key="40" pos="276" len="12" vol="195" pan="0"/>
          <note key="43" pos="288" len="24" vol="195" pan="0"/>
          <note key="42" pos="312" len="24" vol="195" pan="0"/>
          <note key="40" pos="336" len="24" vol="195" pan="0"/>
          <note key="38" pos="360" len="24" vol="195" pan="0"/>
          <note key="36" pos="384" len="24" vol="195" pan="0"/>
          <note key="36" pos="408" len="12" vol="195" pan="0"/>
          <note key="36" pos="420" len="12" vol="195" pan="0"/>
          <note key="36" pos="432" len="12" vol="195" pan="0"/>
          <note key="36" pos="444" len="12" vol="195" pan="0"/>
          <note key="36" pos="456" len="24" vol="195" pan="0"/>
          <note key="36" pos="480" len="12" vol="195" pan="0"/>
          <note key="36" pos="492" len="12" vol="195" pan="0"/>
          <note key="36" pos="504" len="12" vol="195" pan="0"/>
          <note key="36" pos="516" len="12" vol="195" pan="0"/>
          <note key="38" pos="528" len="24" vol="195" pan="0"/>
          <note key="38" pos="552" len="12" vol="195" pan="0"/>
          <note key="38" pos="564" len="12" vol="195" pan="0"/>
          <note key="38" pos="576" len="12" vol="195" pan="0"/>
          <note key="38" pos="588" len="12" vol="195" pan="0"/>
          <note key="38" pos="600" len="24" vol="195" pan="0"/>
          <note key="38" pos="624" len="12" vol="195" pan="0"/>
          <note key="38" pos="636" len="12" vol="195" pan="0"/>
          <note key="38" pos="648" len="12" vol="195" pan="0"/>
          <note key="38" pos="660" len="12" vol="195" pan="0"/>
          <note key="38" pos="672" len="24" vol="195" pan="0"/>
          <note key="38" pos="696" len="12" vol="195" pan="0"/>
          <note key="38" pos="708" len="12" vol="195" pan="0"/>
          <note key="38" pos="720" len="24" vol="195" pan="0"/>
          <note key="38" pos="744" len="12" vol="195" pan="0"/>
          <note key="38" pos="756" len="12" vol="195" pan="0"/>
        </pattern>
        <pattern steps="16" muted="0" type="1" pos="28416" name="bass fender jazz (1,379kb)">
          <note key="40" pos="0" len="24" vol="195" pan="0"/>
          <note key="40" pos="24" len="12" vol="195" pan="0"/>
          <note key="40" pos="36" len="12" vol="195" pan="0"/>
          <note key="40" pos="48" len="12" vol="195" pan="0"/>
          <note key="40" pos="60" len="12" vol="195" pan="0"/>
          <note key="40" pos="72" len="24" vol="195" pan="0"/>
          <note key="40" pos="96" len="12" vol="195" pan="0"/>
          <note key="40" pos="108" len="12" vol="195" pan="0"/>
          <note key="40" pos="120" len="12" vol="195" pan="0"/>
          <note key="40" pos="132" len="12" vol="195" pan="0"/>
          <note key="40" pos="144" len="24" vol="195" pan="0"/>
          <note key="40" pos="168" len="12" vol="195" pan="0"/>
          <note key="40" pos="180" len="12" vol="195" pan="0"/>
          <note key="40" pos="192" len="12" vol="195" pan="0"/>
          <note key="40" pos="204" len="12" vol="195" pan="0"/>
          <note key="40" pos="216" len="24" vol="195" pan="0"/>
          <note key="40" pos="240" len="12" vol="195" pan="0"/>
          <note key="40" pos="252" len="12" vol="195" pan="0"/>
          <note key="40" pos="264" len="12" vol="195" pan="0"/>
          <note key="40" pos="276" len="12" vol="195" pan="0"/>
          <note key="43" pos="288" len="24" vol="195" pan="0"/>
          <note key="42" pos="312" len="24" vol="195" pan="0"/>
          <note key="40" pos="336" len="24" vol="195" pan="0"/>
          <note key="38" pos="360" len="24" vol="195" pan="0"/>
          <note key="36" pos="384" len="24" vol="195" pan="0"/>
          <note key="36" pos="408" len="12" vol="195" pan="0"/>
          <note key="36" pos="420" len="12" vol="195" pan="0"/>
          <note key="36" pos="432" len="12" vol="195" pan="0"/>
          <note key="36" pos="444" len="12" vol="195" pan="0"/>
          <note key="36" pos="456" len="24" vol="195" pan="0"/>
          <note key="36" pos="480" len="12" vol="195" pan="0"/>
          <note key="36" pos="492" len="12" vol="195" pan="0"/>
          <note key="36" pos="504" len="12" vol="195" pan="0"/>
          <note key="36" pos="516" len="12" vol="195" pan="0"/>
          <note key="38" pos="528" len="24" vol="195" pan="0"/>
          <note key="38" pos="552" len="12" vol="195" pan="0"/>
          <note key="38" pos="564" len="12" vol="195" pan="0"/>
          <note key="38" pos="576" len="12" vol="195" pan="0"/>
          <note key="38" pos="588" len="12" vol="195" pan="0"/>
          <note key="38" pos="600" len="24" vol="195" pan="0"/>
          <note key="38" pos="624" len="12" vol="195" pan="0"/>
          <note key="38" pos="636" len="12" vol="195" pan="0"/>
          <note key="38" pos="648" len="12" vol="195" pan="0"/>
          <note key="38" pos="660" len="12" vol="195" pan="0"/>
          <note key="38" pos="672" len="24" vol="195" pan="0"/>
          <note key="38" pos="696" len="12" vol="195" pan="0"/>
          <note key="38" pos="708" len="12" vol="195" pan="0"/>
          <note key="38" pos="720" len="24" vol="195" pan="0"/>
          <note key="38" pos="744" len="12" vol="195" pan="0"/>
          <note key="38" pos="756" len="12" vol="195" pan="0"/>
        </pattern>
        <pattern steps="16" muted="0" type="1" pos="29184" name="bass fender jazz (1,379kb)">
          <note key="40" pos="0" len="24" vol="195" pan="0"/>
          <note key="40" pos="24" len="12" vol="195" pan="0"/>
          <note key="40" pos="36" len="12" vol="195" pan="0"/>
          <note key="40" pos="48" len="12" vol="195" pan="0"/>
          <note key="40" pos="60" len="12" vol="195" pan="0"/>
          <note key="40" pos="72" len="24" vol="195" pan="0"/>
          <note key="40" pos="96" len="12" vol="195" pan="0"/>
          <note key="40" pos="108" len="12" vol="195" pan="0"/>
          <note key="40" pos="120" len="12" vol="195" pan="0"/>
          <note key="40" pos="132" len="12" vol="195" pan="0"/>
          <note key="40" pos="144" len="24" vol="195" pan="0"/>
          <note key="40" pos="168" len="12" vol="195" pan="0"/>
          <note key="40" pos="180" len="12" vol="195" pan="0"/>
          <note key="40" pos="192" len="12" vol="195" pan="0"/>
          <note key="40" pos="204" len="12" vol="195" pan="0"/>
          <note key="40" pos="216" len="24" vol="195" pan="0"/>
          <note key="40" pos="240" len="12" vol="195" pan="0"/>
          <note key="40" pos="252" len="12" vol="195" pan="0"/>
          <note key="40" pos="264" len="12" vol="195" pan="0"/>
          <note key="40" pos="276" len="12" vol="195" pan="0"/>
          <note key="43" pos="288" len="24" vol="195" pan="0"/>
          <note key="42" pos="312" len="24" vol="195" pan="0"/>
          <note key="40" pos="336" len="24" vol="195" pan="0"/>
          <note key="38" pos="360" len="24" vol="195" pan="0"/>
          <note key="36" pos="384" len="24" vol="195" pan="0"/>
          <note key="36" pos="408" len="12" vol="195" pan="0"/>
          <note key="36" pos="420" len="12" vol="195" pan="0"/>
          <note key="36" pos="432" len="12" vol="195" pan="0"/>
          <note key="36" pos="444" len="12" vol="195" pan="0"/>
          <note key="36" pos="456" len="24" vol="195" pan="0"/>
          <note key="36" pos="480" len="12" vol="195" pan="0"/>
          <note key="36" pos="492" len="12" vol="195" pan="0"/>
          <note key="36" pos="504" len="12" vol="195" pan="0"/>
          <note key="36" pos="516" len="12" vol="195" pan="0"/>
          <note key="38" pos="528" len="24" vol="195" pan="0"/>
          <note key="38" pos="552" len="12" vol="195" pan="0"/>
          <note key="38" pos="564" len="12" vol="195" pan="0"/>
          <note key="38" pos="576" len="12" vol="195" pan="0"/>
          <note key="38" pos="588" len="12" vol="195" pan="0"/>
          <note key="38" pos="600" len="24" vol="195" pan="0"/>
          <note key="38" pos="624" len="12" vol="195" pan="0"/>
          <note key="38" pos="636" len="12" vol="195" pan="0"/>
          <note key="38" pos="648" len="12" vol="195" pan="0"/>
          <note key="38" pos="660" len="12" vol="195" pan="0"/>
          <note key="38" pos="672" len="24" vol="195" pan="0"/>
          <note key="38" pos="696" len="12" vol="195" pan="0"/>
          <note key="38" pos="708" len="12" vol="195" pan="0"/>
          <note key="38" pos="720" len="24" vol="195" pan="0"/>
          <note key="38" pos="744" len="12" vol="195" pan="0"/>
          <note key="38" pos="756" len="12" vol="195" pan="0"/>
        </pattern>
        <pattern steps="16" muted="0" type="1" pos="4992" name="bass fender jazz (1,379kb)">
          <note key="36" pos="0" len="144" vol="197" pan="0"/>
          <note key="36" pos="144" len="144" vol="197" pan="0"/>
          <note key="36" pos="288" len="96" vol="197" pan="0"/>
          <note key="44" pos="384" len="144" vol="197" pan="0"/>
          <note key="46" pos="528" len="240" vol="197" pan="0"/>
        </pattern>
        <pattern steps="16" muted="0" type="1" pos="5760" name="bass fender jazz (1,379kb)">
          <note key="36" pos="0" len="144" vol="197" pan="0"/>
          <note key="36" pos="144" len="144" vol="197" pan="0"/>
          <note key="36" pos="288" len="96" vol="197" pan="0"/>
          <note key="44" pos="384" len="144" vol="197" pan="0"/>
          <note key="46" pos="528" len="240" vol="197" pan="0"/>
        </pattern>
        <pattern steps="16" muted="0" type="1" pos="12672" name="bass fender jazz (1,379kb)">
          <note key="36" pos="0" len="36" vol="193" pan="0"/>
          <note key="36" pos="36" len="36" vol="193" pan="0"/>
          <note key="36" pos="72" len="36" vol="193" pan="0"/>
          <note key="36" pos="108" len="36" vol="193" pan="0"/>
          <note key="36" pos="144" len="36" vol="193" pan="0"/>
          <note key="36" pos="180" len="36" vol="193" pan="0"/>
          <note key="36" pos="216" len="36" vol="193" pan="0"/>
          <note key="36" pos="252" len="36" vol="193" pan="0"/>
          <note key="39" pos="288" len="24" vol="193" pan="0"/>
          <note key="36" pos="312" len="24" vol="193" pan="0"/>
          <note key="36" pos="336" len="12" vol="193" pan="0"/>
          <note key="36" pos="348" len="12" vol="193" pan="0"/>
          <note key="36" pos="360" len="12" vol="193" pan="0"/>
          <note key="36" pos="372" len="12" vol="193" pan="0"/>
        </pattern>
        <pattern steps="16" muted="0" type="1" pos="13056" name="bass fender jazz (1,379kb)">
          <note key="44" pos="0" len="36" vol="193" pan="0"/>
          <note key="44" pos="36" len="36" vol="193" pan="0"/>
          <note key="44" pos="72" len="36" vol="193" pan="0"/>
          <note key="44" pos="108" len="36" vol="193" pan="0"/>
          <note key="44" pos="144" len="36" vol="193" pan="0"/>
          <note key="44" pos="180" len="36" vol="193" pan="0"/>
          <note key="44" pos="216" len="36" vol="193" pan="0"/>
          <note key="44" pos="252" len="36" vol="193" pan="0"/>
          <note key="51" pos="288" len="24" vol="193" pan="0"/>
          <note key="44" pos="312" len="24" vol="193" pan="0"/>
          <note key="44" pos="336" len="12" vol="193" pan="0"/>
          <note key="44" pos="348" len="12" vol="193" pan="0"/>
          <note key="44" pos="360" len="12" vol="193" pan="0"/>
          <note key="44" pos="372" len="12" vol="193" pan="0"/>
        </pattern>
        <pattern steps="16" muted="0" type="1" pos="13440" name="bass fender jazz (1,379kb)">
          <note key="39" pos="0" len="36" vol="193" pan="0"/>
          <note key="39" pos="36" len="36" vol="193" pan="0"/>
          <note key="39" pos="72" len="36" vol="193" pan="0"/>
          <note key="39" pos="108" len="36" vol="193" pan="0"/>
          <note key="39" pos="144" len="36" vol="193" pan="0"/>
          <note key="39" pos="180" len="36" vol="193" pan="0"/>
          <note key="39" pos="216" len="36" vol="193" pan="0"/>
          <note key="39" pos="252" len="36" vol="193" pan="0"/>
          <note key="43" pos="288" len="24" vol="193" pan="0"/>
          <note key="39" pos="312" len="24" vol="193" pan="0"/>
          <note key="39" pos="336" len="12" vol="193" pan="0"/>
          <note key="39" pos="348" len="12" vol="193" pan="0"/>
          <note key="39" pos="360" len="12" vol="193" pan="0"/>
          <note key="39" pos="372" len="12" vol="193" pan="0"/>
        </pattern>
        <pattern steps="16" muted="0" type="1" pos="8064" name="bass fender jazz (1,379kb)">
          <note key="36" pos="0" len="24" vol="197" pan="0"/>
          <note key="36" pos="24" len="12" vol="197" pan="0"/>
          <note key="36" pos="36" len="12" vol="197" pan="0"/>
          <note key="36" pos="48" len="12" vol="157" pan="0"/>
          <note key="36" pos="60" len="12" vol="157" pan="0"/>
          <note key="36" pos="72" len="12" vol="157" pan="0"/>
          <note key="36" pos="84" len="12" vol="157" pan="0"/>
          <note key="36" pos="96" len="12" vol="157" pan="0"/>
          <note key="36" pos="108" len="12" vol="157" pan="0"/>
          <note key="36" pos="120" len="12" vol="157" pan="0"/>
          <note key="36" pos="132" len="12" vol="157" pan="0"/>
          <note key="36" pos="144" len="12" vol="157" pan="0"/>
          <note key="36" pos="156" len="12" vol="157" pan="0"/>
          <note key="36" pos="168" len="12" vol="157" pan="0"/>
          <note key="36" pos="180" len="12" vol="157" pan="0"/>
          <note key="36" pos="192" len="12" vol="157" pan="0"/>
          <note key="36" pos="204" len="12" vol="157" pan="0"/>
          <note key="36" pos="216" len="12" vol="157" pan="0"/>
          <note key="36" pos="228" len="12" vol="157" pan="0"/>
          <note key="36" pos="240" len="12" vol="157" pan="0"/>
          <note key="36" pos="252" len="12" vol="157" pan="0"/>
          <note key="36" pos="264" len="12" vol="157" pan="0"/>
          <note key="36" pos="276" len="12" vol="157" pan="0"/>
          <note key="36" pos="288" len="12" vol="157" pan="0"/>
          <note key="36" pos="300" len="12" vol="157" pan="0"/>
          <note key="36" pos="312" len="12" vol="157" pan="0"/>
          <note key="36" pos="324" len="12" vol="157" pan="0"/>
          <note key="36" pos="336" len="12" vol="157" pan="0"/>
          <note key="36" pos="348" len="12" vol="157" pan="0"/>
          <note key="36" pos="360" len="12" vol="157" pan="0"/>
          <note key="36" pos="372" len="12" vol="157" pan="0"/>
          <note key="44" pos="384" len="24" vol="197" pan="0"/>
          <note key="44" pos="408" len="12" vol="157" pan="0"/>
          <note key="44" pos="420" len="12" vol="157" pan="0"/>
          <note key="44" pos="432" len="12" vol="157" pan="0"/>
          <note key="44" pos="444" len="12" vol="157" pan="0"/>
          <note key="44" pos="456" len="12" vol="157" pan="0"/>
          <note key="44" pos="468" len="12" vol="157" pan="0"/>
          <note key="44" pos="480" len="12" vol="157" pan="0"/>
          <note key="44" pos="492" len="12" vol="157" pan="0"/>
          <note key="44" pos="504" len="12" vol="157" pan="0"/>
          <note key="44" pos="516" len="12" vol="157" pan="0"/>
          <note key="46" pos="528" len="24" vol="197" pan="0"/>
          <note key="46" pos="552" len="12" vol="157" pan="0"/>
          <note key="46" pos="564" len="12" vol="157" pan="0"/>
          <note key="46" pos="576" len="12" vol="157" pan="0"/>
          <note key="46" pos="588" len="12" vol="157" pan="0"/>
          <note key="46" pos="600" len="12" vol="157" pan="0"/>
          <note key="46" pos="612" len="12" vol="157" pan="0"/>
          <note key="46" pos="624" len="12" vol="157" pan="0"/>
          <note key="46" pos="636" len="12" vol="157" pan="0"/>
          <note key="46" pos="648" len="12" vol="157" pan="0"/>
          <note key="46" pos="660" len="12" vol="157" pan="0"/>
          <note key="46" pos="672" len="12" vol="157" pan="0"/>
          <note key="46" pos="684" len="12" vol="157" pan="0"/>
          <note key="46" pos="696" len="12" vol="157" pan="0"/>
          <note key="46" pos="708" len="12" vol="157" pan="0"/>
          <note key="46" pos="720" len="12" vol="157" pan="0"/>
          <note key="46" pos="732" len="12" vol="157" pan="0"/>
          <note key="46" pos="744" len="12" vol="157" pan="0"/>
          <note key="46" pos="756" len="12" vol="157" pan="0"/>
        </pattern>
        <pattern steps="16" muted="0" type="1" pos="8832" name="bass fender jazz (1,379kb)">
          <note key="36" pos="0" len="24" vol="197" pan="0"/>
          <note key="36" pos="24" len="12" vol="197" pan="0"/>
          <note key="36" pos="36" len="12" vol="197" pan="0"/>
          <note key="36" pos="48" len="12" vol="157" pan="0"/>
          <note key="36" pos="60" len="12" vol="157" pan="0"/>
          <note key="36" pos="72" len="12" vol="157" pan="0"/>
          <note key="36" pos="84" len="12" vol="157" pan="0"/>
          <note key="36" pos="96" len="12" vol="157" pan="0"/>
          <note key="36" pos="108" len="12" vol="157" pan="0"/>
          <note key="36" pos="120" len="12" vol="157" pan="0"/>
          <note key="36" pos="132" len="12" vol="157" pan="0"/>
          <note key="36" pos="144" len="12" vol="157" pan="0"/>
          <note key="36" pos="156" len="12" vol="157" pan="0"/>
          <note key="36" pos="168" len="12" vol="157" pan="0"/>
          <note key="36" pos="180" len="12" vol="157" pan="0"/>
          <note key="36" pos="192" len="12" vol="157" pan="0"/>
          <note key="36" pos="204" len="12" vol="157" pan="0"/>
          <note key="36" pos="216" len="12" vol="157" pan="0"/>
          <note key="36" pos="228" len="12" vol="157" pan="0"/>
          <note key="36" pos="240" len="12" vol="157" pan="0"/>
          <note key="36" pos="252" len="12" vol="157" pan="0"/>
          <note key="36" pos="264" len="12" vol="157" pan="0"/>
          <note key="36" pos="276" len="12" vol="157" pan="0"/>
          <note key="36" pos="288" len="12" vol="157" pan="0"/>
          <note key="36" pos="300" len="12" vol="157" pan="0"/>
          <note key="36" pos="312" len="12" vol="157" pan="0"/>
          <note key="36" pos="324" len="12" vol="157" pan="0"/>
          <note key="36" pos="336" len="12" vol="157" pan="0"/>
          <note key="36" pos="348" len="12" vol="157" pan="0"/>
          <note key="36" pos="360" len="12" vol="157" pan="0"/>
          <note key="36" pos="372" len="12" vol="157" pan="0"/>
          <note key="44" pos="384" len="24" vol="197" pan="0"/>
          <note key="44" pos="408" len="12" vol="157" pan="0"/>
          <note key="44" pos="420" len="12" vol="157" pan="0"/>
          <note key="44" pos="432" len="12" vol="157" pan="0"/>
          <note key="44" pos="444" len="12" vol="157" pan="0"/>
          <note key="44" pos="456" len="12" vol="157" pan="0"/>
          <note key="44" pos="468" len="12" vol="157" pan="0"/>
          <note key="44" pos="480" len="12" vol="157" pan="0"/>
          <note key="44" pos="492" len="12" vol="157" pan="0"/>
          <note key="44" pos="504" len="12" vol="157" pan="0"/>
          <note key="44" pos="516" len="12" vol="157" pan="0"/>
          <note key="46" pos="528" len="24" vol="197" pan="0"/>
          <note key="46" pos="552" len="12" vol="157" pan="0"/>
          <note key="46" pos="564" len="12" vol="157" pan="0"/>
          <note key="46" pos="576" len="12" vol="157" pan="0"/>
          <note key="46" pos="588" len="12" vol="157" pan="0"/>
          <note key="46" pos="600" len="12" vol="157" pan="0"/>
          <note key="46" pos="612" len="12" vol="157" pan="0"/>
          <note key="46" pos="624" len="12" vol="157" pan="0"/>
          <note key="46" pos="636" len="12" vol="157" pan="0"/>
          <note key="46" pos="648" len="12" vol="157" pan="0"/>
          <note key="46" pos="660" len="12" vol="157" pan="0"/>
          <note key="46" pos="672" len="12" vol="157" pan="0"/>
          <note key="46" pos="684" len="12" vol="157" pan="0"/>
          <note key="46" pos="696" len="12" vol="157" pan="0"/>
          <note key="46" pos="708" len="12" vol="157" pan="0"/>
          <note key="46" pos="720" len="12" vol="157" pan="0"/>
          <note key="46" pos="732" len="12" vol="157" pan="0"/>
          <note key="46" pos="744" len="12" vol="157" pan="0"/>
          <note key="46" pos="756" len="12" vol="157" pan="0"/>
        </pattern>
        <pattern steps="16" muted="0" type="1" pos="9600" name="bass fender jazz (1,379kb)">
          <note key="55" pos="0" len="12" vol="197" pan="0"/>
          <note key="51" pos="12" len="12" vol="197" pan="0"/>
          <note key="48" pos="24" len="12" vol="197" pan="0"/>
          <note key="51" pos="36" len="12" vol="197" pan="0"/>
          <note key="43" pos="48" len="12" vol="197" pan="0"/>
          <note key="48" pos="60" len="12" vol="197" pan="0"/>
          <note key="39" pos="72" len="12" vol="197" pan="0"/>
          <note key="43" pos="84" len="12" vol="197" pan="0"/>
          <note key="36" pos="96" len="12" vol="197" pan="0"/>
          <note key="43" pos="108" len="12" vol="197" pan="0"/>
          <note key="39" pos="120" len="12" vol="197" pan="0"/>
          <note key="43" pos="132" len="12" vol="197" pan="0"/>
          <note key="48" pos="144" len="12" vol="197" pan="0"/>
          <note key="55" pos="156" len="12" vol="197" pan="0"/>
          <note key="53" pos="168" len="12" vol="197" pan="0"/>
          <note key="51" pos="180" len="12" vol="197" pan="0"/>
          <note key="55" pos="192" len="12" vol="197" pan="0"/>
          <note key="51" pos="204" len="12" vol="197" pan="0"/>
          <note key="48" pos="216" len="12" vol="197" pan="0"/>
          <note key="51" pos="228" len="12" vol="197" pan="0"/>
          <note key="43" pos="240" len="12" vol="197" pan="0"/>
          <note key="48" pos="252" len="12" vol="197" pan="0"/>
          <note key="39" pos="264" len="12" vol="197" pan="0"/>
          <note key="43" pos="276" len="12" vol="197" pan="0"/>
          <note key="36" pos="288" len="12" vol="197" pan="0"/>
          <note key="43" pos="300" len="12" vol="197" pan="0"/>
          <note key="39" pos="312" len="12" vol="197" pan="0"/>
          <note key="43" pos="324" len="12" vol="197" pan="0"/>
          <note key="48" pos="336" len="12" vol="197" pan="0"/>
          <note key="55" pos="348" len="12" vol="197" pan="0"/>
          <note key="53" pos="360" len="12" vol="197" pan="0"/>
          <note key="51" pos="372" len="12" vol="197" pan="0"/>
          <note key="54" pos="384" len="12" vol="197" pan="0"/>
          <note key="49" pos="396" len="12" vol="197" pan="0"/>
          <note key="48" pos="408" len="12" vol="197" pan="0"/>
          <note key="49" pos="420" len="12" vol="197" pan="0"/>
          <note key="46" pos="432" len="12" vol="197" pan="0"/>
          <note key="49" pos="444" len="12" vol="197" pan="0"/>
          <note key="42" pos="456" len="12" vol="197" pan="0"/>
          <note key="49" pos="468" len="12" vol="197" pan="0"/>
          <note key="37" pos="480" len="12" vol="197" pan="0"/>
          <note key="49" pos="492" len="12" vol="197" pan="0"/>
          <note key="48" pos="504" len="12" vol="197" pan="0"/>
          <note key="46" pos="516" len="12" vol="197" pan="0"/>
          <note key="42" pos="528" len="12" vol="197" pan="0"/>
          <note key="46" pos="540" len="12" vol="197" pan="0"/>
          <note key="48" pos="552" len="12" vol="197" pan="0"/>
          <note key="53" pos="564" len="12" vol="197" pan="0"/>
          <note key="54" pos="576" len="12" vol="197" pan="0"/>
          <note key="49" pos="588" len="12" vol="197" pan="0"/>
          <note key="48" pos="600" len="12" vol="197" pan="0"/>
          <note key="49" pos="612" len="12" vol="197" pan="0"/>
          <note key="46" pos="624" len="12" vol="197" pan="0"/>
          <note key="49" pos="636" len="12" vol="197" pan="0"/>
          <note key="37" pos="648" len="12" vol="197" pan="0"/>
          <note key="49" pos="660" len="12" vol="197" pan="0"/>
          <note key="42" pos="672" len="12" vol="197" pan="0"/>
          <note key="49" pos="684" len="12" vol="197" pan="0"/>
          <note key="48" pos="696" len="12" vol="197" pan="0"/>
          <note key="49" pos="708" len="12" vol="197" pan="0"/>
          <note key="54" pos="720" len="12" vol="197" pan="0"/>
          <note key="58" pos="732" len="12" vol="197" pan="0"/>
          <note key="60" pos="744" len="12" vol="197" pan="0"/>
          <note key="61" pos="756" len="12" vol="197" pan="0"/>
          <note key="55" pos="768" len="12" vol="197" pan="0"/>
          <note key="51" pos="780" len="12" vol="197" pan="0"/>
          <note key="48" pos="792" len="12" vol="197" pan="0"/>
          <note key="51" pos="804" len="12" vol="197" pan="0"/>
          <note key="43" pos="816" len="12" vol="197" pan="0"/>
          <note key="48" pos="828" len="12" vol="197" pan="0"/>
          <note key="39" pos="840" len="12" vol="197" pan="0"/>
          <note key="43" pos="852" len="12" vol="197" pan="0"/>
          <note key="36" pos="864" len="12" vol="197" pan="0"/>
          <note key="43" pos="876" len="12" vol="197" pan="0"/>
          <note key="39" pos="888" len="12" vol="197" pan="0"/>
          <note key="43" pos="900" len="12" vol="197" pan="0"/>
          <note key="48" pos="912" len="12" vol="197" pan="0"/>
          <note key="55" pos="924" len="12" vol="197" pan="0"/>
          <note key="53" pos="936" len="12" vol="197" pan="0"/>
          <note key="51" pos="948" len="12" vol="197" pan="0"/>
          <note key="55" pos="960" len="12" vol="197" pan="0"/>
          <note key="51" pos="972" len="12" vol="197" pan="0"/>
          <note key="48" pos="984" len="12" vol="197" pan="0"/>
          <note key="51" pos="996" len="12" vol="197" pan="0"/>
          <note key="43" pos="1008" len="12" vol="197" pan="0"/>
          <note key="48" pos="1020" len="12" vol="197" pan="0"/>
          <note key="39" pos="1032" len="12" vol="197" pan="0"/>
          <note key="43" pos="1044" len="12" vol="197" pan="0"/>
          <note key="36" pos="1056" len="12" vol="197" pan="0"/>
          <note key="43" pos="1068" len="12" vol="197" pan="0"/>
          <note key="39" pos="1080" len="12" vol="197" pan="0"/>
          <note key="43" pos="1092" len="12" vol="197" pan="0"/>
          <note key="48" pos="1104" len="12" vol="197" pan="0"/>
          <note key="55" pos="1116" len="12" vol="197" pan="0"/>
          <note key="53" pos="1128" len="12" vol="197" pan="0"/>
          <note key="51" pos="1140" len="12" vol="197" pan="0"/>
        </pattern>
        <pattern steps="16" muted="0" type="1" pos="10752" name="bass fender jazz (1,379kb)">
          <note key="42" pos="0" len="192" vol="197" pan="0"/>
          <note key="42" pos="192" len="192" vol="197" pan="0"/>
        </pattern>
        <pattern steps="16" muted="0" type="1" pos="17280" name="bass fender jazz (1,379kb)">
          <note key="38" pos="0" len="24" vol="170" pan="0"/>
          <note key="38" pos="24" len="12" vol="170" pan="0"/>
          <note key="38" pos="36" len="12" vol="170" pan="0"/>
          <note key="38" pos="48" len="12" vol="170" pan="0"/>
          <note key="38" pos="60" len="12" vol="170" pan="0"/>
          <note key="38" pos="72" len="12" vol="170" pan="0"/>
          <note key="38" pos="84" len="12" vol="170" pan="0"/>
          <note key="38" pos="96" len="12" vol="170" pan="0"/>
          <note key="38" pos="108" len="12" vol="170" pan="0"/>
          <note key="38" pos="120" len="12" vol="170" pan="0"/>
          <note key="38" pos="132" len="12" vol="170" pan="0"/>
          <note key="38" pos="144" len="12" vol="170" pan="0"/>
          <note key="38" pos="156" len="12" vol="170" pan="0"/>
          <note key="38" pos="168" len="12" vol="170" pan="0"/>
          <note key="38" pos="180" len="12" vol="170" pan="0"/>
        </pattern>
        <pattern steps="16" muted="0" type="1" pos="17472" name="bass fender jazz (1,379kb)">
          <note key="36" pos="0" len="24" vol="170" pan="0"/>
          <note key="36" pos="24" len="12" vol="170" pan="0"/>
          <note key="36" pos="36" len="12" vol="170" pan="0"/>
          <note key="36" pos="48" len="12" vol="170" pan="0"/>
          <note key="36" pos="60" len="12" vol="170" pan="0"/>
          <note key="46" pos="72" len="48" vol="170" pan="0"/>
          <note key="46" pos="120" len="12" vol="170" pan="0"/>
          <note key="46" pos="132" len="12" vol="170" pan="0"/>
          <note key="46" pos="144" len="12" vol="170" pan="0"/>
          <note key="46" pos="156" len="12" vol="170" pan="0"/>
          <note key="46" pos="168" len="12" vol="170" pan="0"/>
          <note key="46" pos="180" len="12" vol="170" pan="0"/>
        </pattern>
        <pattern steps="16" muted="0" type="1" pos="17664" name="bass fender jazz (1,379kb)">
          <note key="41" pos="0" len="24" vol="170" pan="0"/>
          <note key="41" pos="24" len="12" vol="170" pan="0"/>
          <note key="41" pos="36" len="12" vol="170" pan="0"/>
          <note key="41" pos="48" len="12" vol="170" pan="0"/>
          <note key="41" pos="60" len="12" vol="170" pan="0"/>
          <note key="41" pos="72" len="12" vol="170" pan="0"/>
          <note key="41" pos="84" len="12" vol="170" pan="0"/>
          <note key="41" pos="96" len="12" vol="170" pan="0"/>
          <note key="41" pos="108" len="12" vol="170" pan="0"/>
          <note key="41" pos="120" len="12" vol="170" pan="0"/>
          <note key="41" pos="132" len="12" vol="170" pan="0"/>
          <note key="41" pos="144" len="12" vol="170" pan="0"/>
          <note key="41" pos="156" len="12" vol="170" pan="0"/>
          <note key="41" pos="168" len="12" vol="170" pan="0"/>
          <note key="41" pos="180" len="12" vol="170" pan="0"/>
        </pattern>
        <pattern steps="16" muted="0" type="1" pos="17856" name="bass fender jazz (1,379kb)">
          <note key="43" pos="0" len="24" vol="195" pan="0"/>
          <note key="43" pos="24" len="12" vol="195" pan="0"/>
          <note key="43" pos="36" len="12" vol="195" pan="0"/>
          <note key="43" pos="48" len="12" vol="195" pan="0"/>
          <note key="43" pos="60" len="12" vol="195" pan="0"/>
          <note key="38" pos="72" len="48" vol="195" pan="0"/>
          <note key="41" pos="120" len="24" vol="195" pan="0"/>
          <note key="40" pos="144" len="24" vol="195" pan="0"/>
          <note key="38" pos="168" len="24" vol="195" pan="0"/>
        </pattern>
        <pattern steps="16" muted="0" type="1" pos="18048" name="bass fender jazz (1,379kb)">
          <note key="38" pos="0" len="24" vol="170" pan="0"/>
          <note key="38" pos="24" len="12" vol="170" pan="0"/>
          <note key="38" pos="36" len="12" vol="170" pan="0"/>
          <note key="38" pos="48" len="12" vol="170" pan="0"/>
          <note key="38" pos="60" len="12" vol="170" pan="0"/>
          <note key="38" pos="72" len="12" vol="170" pan="0"/>
          <note key="38" pos="84" len="12" vol="170" pan="0"/>
          <note key="38" pos="96" len="12" vol="170" pan="0"/>
          <note key="38" pos="108" len="12" vol="170" pan="0"/>
          <note key="38" pos="120" len="12" vol="170" pan="0"/>
          <note key="38" pos="132" len="12" vol="170" pan="0"/>
          <note key="38" pos="144" len="12" vol="170" pan="0"/>
          <note key="38" pos="156" len="12" vol="170" pan="0"/>
          <note key="38" pos="168" len="12" vol="170" pan="0"/>
          <note key="38" pos="180" len="12" vol="170" pan="0"/>
        </pattern>
        <pattern steps="16" muted="0" type="1" pos="18240" name="bass fender jazz (1,379kb)">
          <note key="36" pos="0" len="24" vol="170" pan="0"/>
          <note key="36" pos="24" len="12" vol="170" pan="0"/>
          <note key="36" pos="36" len="12" vol="170" pan="0"/>
          <note key="36" pos="48" len="12" vol="170" pan="0"/>
          <note key="36" pos="60" len="12" vol="170" pan="0"/>
          <note key="46" pos="72" len="48" vol="170" pan="0"/>
          <note key="46" pos="120" len="12" vol="170" pan="0"/>
          <note key="46" pos="132" len="12" vol="170" pan="0"/>
          <note key="46" pos="144" len="12" vol="170" pan="0"/>
          <note key="46" pos="156" len="12" vol="170" pan="0"/>
          <note key="46" pos="168" len="12" vol="170" pan="0"/>
          <note key="46" pos="180" len="12" vol="170" pan="0"/>
        </pattern>
        <pattern steps="16" muted="0" type="1" pos="18432" name="bass fender jazz (1,379kb)">
          <note key="41" pos="0" len="24" vol="170" pan="0"/>
          <note key="41" pos="24" len="12" vol="170" pan="0"/>
          <note key="41" pos="36" len="12" vol="170" pan="0"/>
          <note key="41" pos="48" len="12" vol="170" pan="0"/>
          <note key="41" pos="60" len="12" vol="170" pan="0"/>
          <note key="41" pos="72" len="12" vol="170" pan="0"/>
          <note key="41" pos="84" len="12" vol="170" pan="0"/>
          <note key="41" pos="96" len="12" vol="170" pan="0"/>
          <note key="41" pos="108" len="12" vol="170" pan="0"/>
          <note key="41" pos="120" len="12" vol="170" pan="0"/>
          <note key="41" pos="132" len="12" vol="170" pan="0"/>
          <note key="41" pos="144" len="12" vol="170" pan="0"/>
          <note key="41" pos="156" len="12" vol="170" pan="0"/>
          <note key="41" pos="168" len="12" vol="170" pan="0"/>
          <note key="41" pos="180" len="12" vol="170" pan="0"/>
        </pattern>
        <pattern steps="16" muted="0" type="1" pos="18624" name="bass fender jazz (1,379kb)">
          <note key="43" pos="0" len="24" vol="195" pan="0"/>
          <note key="43" pos="24" len="12" vol="195" pan="0"/>
          <note key="43" pos="36" len="12" vol="195" pan="0"/>
          <note key="43" pos="48" len="12" vol="195" pan="0"/>
          <note key="43" pos="60" len="12" vol="195" pan="0"/>
          <note key="38" pos="72" len="48" vol="195" pan="0"/>
          <note key="41" pos="120" len="24" vol="195" pan="0"/>
          <note key="40" pos="144" len="24" vol="195" pan="0"/>
          <note key="38" pos="168" len="24" vol="195" pan="0"/>
        </pattern>
        <pattern steps="16" muted="0" type="1" pos="18816" name="bass fender jazz (1,379kb)">
          <note key="38" pos="0" len="24" vol="170" pan="0"/>
          <note key="38" pos="24" len="12" vol="170" pan="0"/>
          <note key="38" pos="36" len="12" vol="170" pan="0"/>
          <note key="38" pos="48" len="12" vol="170" pan="0"/>
          <note key="38" pos="60" len="12" vol="170" pan="0"/>
          <note key="38" pos="72" len="12" vol="170" pan="0"/>
          <note key="38" pos="84" len="12" vol="170" pan="0"/>
          <note key="38" pos="96" len="12" vol="170" pan="0"/>
          <note key="38" pos="108" len="12" vol="170" pan="0"/>
          <note key="38" pos="120" len="12" vol="170" pan="0"/>
          <note key="38" pos="132" len="12" vol="170" pan="0"/>
          <note key="38" pos="144" len="12" vol="170" pan="0"/>
          <note key="38" pos="156" len="12" vol="170" pan="0"/>
          <note key="38" pos="168" len="12" vol="170" pan="0"/>
          <note key="38" pos="180" len="12" vol="170" pan="0"/>
        </pattern>
        <pattern steps="16" muted="0" type="1" pos="19008" name="bass fender jazz (1,379kb)">
          <note key="36" pos="0" len="24" vol="170" pan="0"/>
          <note key="36" pos="24" len="12" vol="170" pan="0"/>
          <note key="36" pos="36" len="12" vol="170" pan="0"/>
          <note key="36" pos="48" len="12" vol="170" pan="0"/>
          <note key="36" pos="60" len="12" vol="170" pan="0"/>
          <note key="46" pos="72" len="48" vol="170" pan="0"/>
          <note key="46" pos="120" len="12" vol="170" pan="0"/>
          <note key="46" pos="132" len="12" vol="170" pan="0"/>
          <note key="46" pos="144" len="12" vol="170" pan="0"/>
          <note key="46" pos="156" len="12" vol="170" pan="0"/>
          <note key="46" pos="168" len="12" vol="170" pan="0"/>
          <note key="46" pos="180" len="12" vol="170" pan="0"/>
        </pattern>
        <pattern steps="16" muted="0" type="1" pos="19200" name="bass fender jazz (1,379kb)">
          <note key="41" pos="0" len="24" vol="170" pan="0"/>
          <note key="41" pos="24" len="12" vol="170" pan="0"/>
          <note key="41" pos="36" len="12" vol="170" pan="0"/>
          <note key="41" pos="48" len="12" vol="170" pan="0"/>
          <note key="41" pos="60" len="12" vol="170" pan="0"/>
          <note key="41" pos="72" len="12" vol="170" pan="0"/>
          <note key="41" pos="84" len="12" vol="170" pan="0"/>
          <note key="41" pos="96" len="12" vol="170" pan="0"/>
          <note key="41" pos="108" len="12" vol="170" pan="0"/>
          <note key="41" pos="120" len="12" vol="170" pan="0"/>
          <note key="41" pos="132" len="12" vol="170" pan="0"/>
          <note key="41" pos="144" len="12" vol="170" pan="0"/>
          <note key="41" pos="156" len="12" vol="170" pan="0"/>
          <note key="41" pos="168" len="12" vol="170" pan="0"/>
          <note key="41" pos="180" len="12" vol="170" pan="0"/>
        </pattern>
        <pattern steps="16" muted="0" type="1" pos="19392" name="bass fender jazz (1,379kb)">
          <note key="43" pos="0" len="24" vol="195" pan="0"/>
          <note key="43" pos="24" len="12" vol="195" pan="0"/>
          <note key="43" pos="36" len="12" vol="195" pan="0"/>
          <note key="43" pos="48" len="12" vol="195" pan="0"/>
          <note key="43" pos="60" len="12" vol="195" pan="0"/>
          <note key="38" pos="72" len="48" vol="195" pan="0"/>
          <note key="41" pos="120" len="24" vol="195" pan="0"/>
          <note key="40" pos="144" len="24" vol="195" pan="0"/>
          <note key="38" pos="168" len="24" vol="195" pan="0"/>
        </pattern>
        <pattern steps="16" muted="0" type="1" pos="19584" name="bass fender jazz (1,379kb)">
          <note key="38" pos="0" len="24" vol="170" pan="0"/>
          <note key="38" pos="24" len="12" vol="170" pan="0"/>
          <note key="38" pos="36" len="12" vol="170" pan="0"/>
          <note key="38" pos="48" len="12" vol="170" pan="0"/>
          <note key="38" pos="60" len="12" vol="170" pan="0"/>
          <note key="38" pos="72" len="12" vol="170" pan="0"/>
          <note key="38" pos="84" len="12" vol="170" pan="0"/>
          <note key="38" pos="96" len="12" vol="170" pan="0"/>
          <note key="38" pos="108" len="12" vol="170" pan="0"/>
          <note key="38" pos="120" len="12" vol="170" pan="0"/>
          <note key="38" pos="132" len="12" vol="170" pan="0"/>
          <note key="38" pos="144" len="12" vol="170" pan="0"/>
          <note key="38" pos="156" len="12" vol="170" pan="0"/>
          <note key="38" pos="168" len="12" vol="170" pan="0"/>
          <note key="38" pos="180" len="12" vol="170" pan="0"/>
        </pattern>
        <pattern steps="16" muted="0" type="1" pos="19776" name="bass fender jazz (1,379kb)">
          <note key="36" pos="0" len="24" vol="170" pan="0"/>
          <note key="36" pos="24" len="12" vol="170" pan="0"/>
          <note key="36" pos="36" len="12" vol="170" pan="0"/>
          <note key="36" pos="48" len="12" vol="170" pan="0"/>
          <note key="36" pos="60" len="12" vol="170" pan="0"/>
          <note key="46" pos="72" len="48" vol="170" pan="0"/>
          <note key="46" pos="120" len="12" vol="170" pan="0"/>
          <note key="46" pos="132" len="12" vol="170" pan="0"/>
          <note key="46" pos="144" len="12" vol="170" pan="0"/>
          <note key="46" pos="156" len="12" vol="170" pan="0"/>
          <note key="46" pos="168" len="12" vol="170" pan="0"/>
          <note key="46" pos="180" len="12" vol="170" pan="0"/>
        </pattern>
        <pattern steps="16" muted="0" type="1" pos="19968" name="bass fender jazz (1,379kb)">
          <note key="41" pos="0" len="24" vol="170" pan="0"/>
          <note key="41" pos="24" len="12" vol="170" pan="0"/>
          <note key="41" pos="36" len="12" vol="170" pan="0"/>
          <note key="41" pos="48" len="12" vol="170" pan="0"/>
          <note key="41" pos="60" len="12" vol="170" pan="0"/>
          <note key="41" pos="72" len="12" vol="170" pan="0"/>
          <note key="41" pos="84" len="12" vol="170" pan="0"/>
          <note key="41" pos="96" len="12" vol="170" pan="0"/>
          <note key="41" pos="108" len="12" vol="170" pan="0"/>
          <note key="41" pos="120" len="12" vol="170" pan="0"/>
          <note key="41" pos="132" len="12" vol="170" pan="0"/>
          <note key="41" pos="144" len="12" vol="170" pan="0"/>
          <note key="41" pos="156" len="12" vol="170" pan="0"/>
          <note key="41" pos="168" len="12" vol="170" pan="0"/>
          <note key="41" pos="180" len="12" vol="170" pan="0"/>
        </pattern>
        <pattern steps="16" muted="0" type="1" pos="20160" name="bass fender jazz (1,379kb)">
          <note key="43" pos="0" len="24" vol="195" pan="0"/>
          <note key="43" pos="24" len="12" vol="195" pan="0"/>
          <note key="43" pos="36" len="12" vol="195" pan="0"/>
          <note key="43" pos="48" len="12" vol="195" pan="0"/>
          <note key="43" pos="60" len="12" vol="195" pan="0"/>
          <note key="38" pos="72" len="48" vol="195" pan="0"/>
          <note key="41" pos="120" len="24" vol="195" pan="0"/>
          <note key="40" pos="144" len="24" vol="195" pan="0"/>
          <note key="38" pos="168" len="24" vol="195" pan="0"/>
        </pattern>
        <pattern steps="16" muted="0" type="1" pos="15744" name="bass fender jazz (1,379kb)">
          <note key="48" pos="0" len="24" vol="176" pan="0"/>
          <note key="48" pos="48" len="24" vol="176" pan="0"/>
          <note key="48" pos="96" len="24" vol="176" pan="0"/>
          <note key="48" pos="144" len="24" vol="176" pan="0"/>
          <note key="46" pos="192" len="24" vol="176" pan="0"/>
          <note key="46" pos="240" len="24" vol="176" pan="0"/>
          <note key="44" pos="264" len="24" vol="176" pan="0"/>
          <note key="44" pos="312" len="24" vol="176" pan="0"/>
          <note key="44" pos="336" len="24" vol="176" pan="0"/>
          <note key="44" pos="360" len="24" vol="176" pan="0"/>
          <note key="39" pos="384" len="24" vol="176" pan="0"/>
          <note key="39" pos="432" len="24" vol="176" pan="0"/>
          <note key="39" pos="480" len="24" vol="176" pan="0"/>
          <note key="39" pos="528" len="24" vol="176" pan="0"/>
          <note key="41" pos="576" len="24" vol="176" pan="0"/>
          <note key="43" pos="624" len="24" vol="176" pan="0"/>
          <note key="48" pos="648" len="48" vol="176" pan="0"/>
          <note key="51" pos="696" len="24" vol="176" pan="0"/>
          <note key="50" pos="720" len="24" vol="176" pan="0"/>
          <note key="48" pos="744" len="24" vol="176" pan="0"/>
        </pattern>
        <pattern steps="16" muted="0" type="1" pos="16512" name="bass fender jazz (1,379kb)">
          <note key="48" pos="0" len="24" vol="176" pan="0"/>
          <note key="48" pos="48" len="24" vol="176" pan="0"/>
          <note key="48" pos="96" len="24" vol="176" pan="0"/>
          <note key="48" pos="144" len="24" vol="176" pan="0"/>
          <note key="46" pos="192" len="24" vol="176" pan="0"/>
          <note key="46" pos="240" len="24" vol="176" pan="0"/>
          <note key="44" pos="264" len="24" vol="176" pan="0"/>
          <note key="44" pos="312" len="24" vol="176" pan="0"/>
          <note key="44" pos="336" len="24" vol="176" pan="0"/>
          <note key="44" pos="360" len="24" vol="176" pan="0"/>
          <note key="39" pos="384" len="24" vol="176" pan="0"/>
          <note key="39" pos="432" len="24" vol="176" pan="0"/>
          <note key="39" pos="480" len="24" vol="176" pan="0"/>
          <note key="39" pos="528" len="24" vol="176" pan="0"/>
          <note key="41" pos="576" len="24" vol="176" pan="0"/>
          <note key="43" pos="624" len="24" vol="176" pan="0"/>
          <note key="48" pos="648" len="48" vol="176" pan="0"/>
          <note key="51" pos="696" len="24" vol="176" pan="0"/>
          <note key="50" pos="720" len="24" vol="176" pan="0"/>
          <note key="48" pos="744" len="24" vol="176" pan="0"/>
        </pattern>
        <pattern steps="16" muted="0" type="1" pos="20736" name="bass fender jazz (1,379kb)">
          <note key="36" pos="0" len="192" vol="197" pan="0"/>
          <note key="39" pos="192" len="96" vol="197" pan="0"/>
          <note key="41" pos="288" len="96" vol="197" pan="0"/>
          <note key="48" pos="384" len="12" vol="197" pan="0"/>
          <note key="36" pos="396" len="12" vol="197" pan="0"/>
          <note key="36" pos="408" len="12" vol="197" pan="0"/>
          <note key="43" pos="420" len="12" vol="197" pan="0"/>
          <note key="36" pos="432" len="12" vol="197" pan="0"/>
          <note key="36" pos="444" len="12" vol="197" pan="0"/>
          <note key="46" pos="456" len="12" vol="197" pan="0"/>
          <note key="36" pos="468" len="12" vol="197" pan="0"/>
          <note key="36" pos="480" len="12" vol="197" pan="0"/>
          <note key="41" pos="492" len="12" vol="197" pan="0"/>
          <note key="36" pos="504" len="12" vol="197" pan="0"/>
          <note key="36" pos="516" len="12" vol="197" pan="0"/>
          <note key="39" pos="528" len="12" vol="197" pan="0"/>
          <note key="36" pos="540" len="12" vol="197" pan="0"/>
          <note key="36" pos="552" len="12" vol="197" pan="0"/>
          <note key="36" pos="564" len="12" vol="197" pan="0"/>
          <note key="48" pos="576" len="12" vol="197" pan="0"/>
          <note key="36" pos="588" len="12" vol="197" pan="0"/>
          <note key="36" pos="600" len="12" vol="197" pan="0"/>
          <note key="43" pos="612" len="12" vol="197" pan="0"/>
          <note key="36" pos="624" len="12" vol="197" pan="0"/>
          <note key="36" pos="636" len="12" vol="197" pan="0"/>
          <note key="46" pos="648" len="12" vol="197" pan="0"/>
          <note key="36" pos="660" len="12" vol="197" pan="0"/>
          <note key="36" pos="672" len="12" vol="197" pan="0"/>
          <note key="41" pos="684" len="12" vol="197" pan="0"/>
          <note key="36" pos="696" len="12" vol="197" pan="0"/>
          <note key="36" pos="708" len="12" vol="197" pan="0"/>
          <note key="48" pos="720" len="24" vol="197" pan="0"/>
          <note key="50" pos="744" len="24" vol="197" pan="0"/>
        </pattern>
        <pattern steps="16" muted="0" type="1" pos="21504" name="bass fender jazz (1,379kb)">
          <note key="41" pos="0" len="192" vol="197" pan="0"/>
          <note key="46" pos="192" len="192" vol="197" pan="0"/>
          <note key="48" pos="384" len="12" vol="197" pan="0"/>
          <note key="36" pos="396" len="12" vol="197" pan="0"/>
          <note key="36" pos="408" len="12" vol="197" pan="0"/>
          <note key="43" pos="420" len="12" vol="197" pan="0"/>
          <note key="36" pos="432" len="12" vol="197" pan="0"/>
          <note key="36" pos="444" len="12" vol="197" pan="0"/>
          <note key="46" pos="456" len="12" vol="197" pan="0"/>
          <note key="36" pos="468" len="12" vol="197" pan="0"/>
          <note key="36" pos="480" len="12" vol="197" pan="0"/>
          <note key="41" pos="492" len="12" vol="197" pan="0"/>
          <note key="36" pos="504" len="12" vol="197" pan="0"/>
          <note key="36" pos="516" len="12" vol="197" pan="0"/>
          <note key="39" pos="528" len="12" vol="197" pan="0"/>
          <note key="36" pos="540" len="12" vol="197" pan="0"/>
          <note key="36" pos="552" len="12" vol="197" pan="0"/>
          <note key="36" pos="564" len="12" vol="197" pan="0"/>
          <note key="48" pos="576" len="12" vol="197" pan="0"/>
          <note key="36" pos="588" len="12" vol="197" pan="0"/>
          <note key="36" pos="600" len="12" vol="197" pan="0"/>
          <note key="43" pos="612" len="12" vol="197" pan="0"/>
          <note key="36" pos="624" len="12" vol="197" pan="0"/>
          <note key="36" pos="636" len="12" vol="197" pan="0"/>
          <note key="46" pos="648" len="12" vol="197" pan="0"/>
          <note key="36" pos="660" len="12" vol="197" pan="0"/>
          <note key="36" pos="672" len="12" vol="197" pan="0"/>
          <note key="41" pos="684" len="12" vol="197" pan="0"/>
          <note key="36" pos="696" len="12" vol="197" pan="0"/>
          <note key="36" pos="708" len="12" vol="197" pan="0"/>
          <note key="48" pos="720" len="24" vol="197" pan="0"/>
          <note key="50" pos="744" len="24" vol="197" pan="0"/>
        </pattern>
        <pattern steps="16" muted="0" type="1" pos="22272" name="bass fender jazz (1,379kb)">
          <note key="36" pos="0" len="192" vol="191" pan="0"/>
          <note key="39" pos="192" len="96" vol="191" pan="0"/>
          <note key="41" pos="288" len="96" vol="191" pan="0"/>
          <note key="48" pos="384" len="12" vol="191" pan="0"/>
          <note key="36" pos="396" len="12" vol="191" pan="0"/>
          <note key="36" pos="408" len="12" vol="191" pan="0"/>
          <note key="43" pos="420" len="12" vol="191" pan="0"/>
          <note key="36" pos="432" len="12" vol="191" pan="0"/>
          <note key="36" pos="444" len="12" vol="191" pan="0"/>
          <note key="46" pos="456" len="12" vol="191" pan="0"/>
          <note key="36" pos="468" len="12" vol="191" pan="0"/>
          <note key="36" pos="480" len="12" vol="191" pan="0"/>
          <note key="41" pos="492" len="12" vol="191" pan="0"/>
          <note key="36" pos="504" len="12" vol="191" pan="0"/>
          <note key="36" pos="516" len="12" vol="191" pan="0"/>
          <note key="39" pos="528" len="12" vol="191" pan="0"/>
          <note key="36" pos="540" len="12" vol="191" pan="0"/>
          <note key="36" pos="552" len="12" vol="191" pan="0"/>
          <note key="36" pos="564" len="12" vol="191" pan="0"/>
          <note key="48" pos="576" len="12" vol="191" pan="0"/>
          <note key="36" pos="588" len="12" vol="191" pan="0"/>
          <note key="36" pos="600" len="12" vol="191" pan="0"/>
          <note key="43" pos="612" len="12" vol="191" pan="0"/>
          <note key="36" pos="624" len="12" vol="191" pan="0"/>
          <note key="36" pos="636" len="12" vol="191" pan="0"/>
          <note key="46" pos="648" len="12" vol="191" pan="0"/>
          <note key="36" pos="660" len="12" vol="191" pan="0"/>
          <note key="36" pos="672" len="12" vol="191" pan="0"/>
          <note key="41" pos="684" len="12" vol="191" pan="0"/>
          <note key="36" pos="696" len="12" vol="191" pan="0"/>
          <note key="36" pos="708" len="12" vol="191" pan="0"/>
          <note key="48" pos="720" len="24" vol="191" pan="0"/>
          <note key="50" pos="744" len="24" vol="191" pan="0"/>
        </pattern>
        <pattern steps="16" muted="0" type="1" pos="23040" name="bass fender jazz (1,379kb)">
          <note key="41" pos="0" len="192" vol="197" pan="0"/>
          <note key="46" pos="192" len="192" vol="197" pan="0"/>
          <note key="39" pos="384" len="12" vol="197" pan="0"/>
          <note key="39" pos="396" len="12" vol="197" pan="0"/>
          <note key="39" pos="408" len="12" vol="197" pan="0"/>
          <note key="39" pos="420" len="12" vol="197" pan="0"/>
          <note key="39" pos="432" len="12" vol="197" pan="0"/>
          <note key="39" pos="444" len="12" vol="197" pan="0"/>
          <note key="39" pos="456" len="12" vol="197" pan="0"/>
          <note key="39" pos="468" len="12" vol="197" pan="0"/>
          <note key="39" pos="480" len="12" vol="197" pan="0"/>
          <note key="39" pos="492" len="12" vol="197" pan="0"/>
          <note key="39" pos="504" len="12" vol="197" pan="0"/>
          <note key="39" pos="516" len="12" vol="197" pan="0"/>
          <note key="39" pos="528" len="12" vol="197" pan="0"/>
          <note key="39" pos="540" len="12" vol="197" pan="0"/>
          <note key="39" pos="552" len="12" vol="197" pan="0"/>
          <note key="39" pos="564" len="12" vol="197" pan="0"/>
          <note key="43" pos="576" len="12" vol="197" pan="0"/>
          <note key="43" pos="588" len="12" vol="197" pan="0"/>
          <note key="43" pos="600" len="12" vol="197" pan="0"/>
          <note key="43" pos="612" len="12" vol="197" pan="0"/>
          <note key="43" pos="624" len="12" vol="197" pan="0"/>
          <note key="43" pos="636" len="12" vol="197" pan="0"/>
          <note key="43" pos="648" len="12" vol="197" pan="0"/>
          <note key="43" pos="660" len="12" vol="197" pan="0"/>
          <note key="47" pos="672" len="12" vol="197" pan="0"/>
          <note key="47" pos="684" len="12" vol="197" pan="0"/>
          <note key="47" pos="696" len="12" vol="197" pan="0"/>
          <note key="47" pos="708" len="12" vol="197" pan="0"/>
          <note key="50" pos="720" len="12" vol="197" pan="0"/>
          <note key="48" pos="732" len="12" vol="197" pan="0"/>
          <note key="47" pos="744" len="12" vol="197" pan="0"/>
          <note key="43" pos="756" len="12" vol="197" pan="0"/>
        </pattern>
        <pattern steps="16" muted="0" type="1" pos="13824" name="bass fender jazz (1,379kb)">
          <note key="36" pos="0" len="12" vol="197" pan="0"/>
          <note key="38" pos="12" len="12" vol="197" pan="0"/>
          <note key="38" pos="24" len="12" vol="197" pan="0"/>
          <note key="38" pos="36" len="12" vol="197" pan="0"/>
          <note key="38" pos="48" len="12" vol="197" pan="0"/>
          <note key="38" pos="60" len="12" vol="197" pan="0"/>
          <note key="38" pos="72" len="12" vol="197" pan="0"/>
          <note key="38" pos="84" len="12" vol="197" pan="0"/>
          <note key="38" pos="96" len="12" vol="197" pan="0"/>
          <note key="38" pos="108" len="12" vol="197" pan="0"/>
          <note key="38" pos="120" len="12" vol="197" pan="0"/>
          <note key="38" pos="132" len="12" vol="197" pan="0"/>
          <note key="38" pos="144" len="12" vol="197" pan="0"/>
          <note key="38" pos="156" len="12" vol="197" pan="0"/>
          <note key="38" pos="168" len="12" vol="197" pan="0"/>
          <note key="38" pos="180" len="12" vol="197" pan="0"/>
          <note key="41" pos="192" len="12" vol="197" pan="0"/>
          <note key="43" pos="204" len="12" vol="197" pan="0"/>
          <note key="43" pos="216" len="12" vol="197" pan="0"/>
          <note key="43" pos="228" len="12" vol="197" pan="0"/>
          <note key="43" pos="240" len="12" vol="197" pan="0"/>
          <note key="43" pos="252" len="12" vol="197" pan="0"/>
          <note key="43" pos="264" len="12" vol="197" pan="0"/>
          <note key="43" pos="276" len="12" vol="197" pan="0"/>
          <note key="43" pos="288" len="12" vol="197" pan="0"/>
          <note key="43" pos="300" len="12" vol="197" pan="0"/>
          <note key="43" pos="312" len="12" vol="197" pan="0"/>
          <note key="43" pos="324" len="12" vol="197" pan="0"/>
          <note key="43" pos="336" len="12" vol="197" pan="0"/>
          <note key="43" pos="348" len="12" vol="197" pan="0"/>
          <note key="43" pos="360" len="12" vol="197" pan="0"/>
          <note key="43" pos="372" len="12" vol="197" pan="0"/>
        </pattern>
        <pattern steps="16" muted="0" type="1" pos="20352" name="bass fender jazz (1,379kb)">
          <note key="65" pos="0" len="12" vol="170" pan="0"/>
          <note key="62" pos="12" len="12" vol="170" pan="0"/>
          <note key="59" pos="24" len="12" vol="170" pan="0"/>
          <note key="62" pos="36" len="12" vol="170" pan="0"/>
          <note key="59" pos="48" len="12" vol="163" pan="0"/>
          <note key="56" pos="60" len="12" vol="163" pan="0"/>
          <note key="53" pos="72" len="12" vol="163" pan="0"/>
          <note key="56" pos="84" len="12" vol="163" pan="0"/>
          <note key="53" pos="96" len="12" vol="157" pan="0"/>
          <note key="50" pos="108" len="12" vol="157" pan="0"/>
          <note key="47" pos="120" len="12" vol="157" pan="0"/>
          <note key="50" pos="132" len="12" vol="157" pan="0"/>
          <note key="47" pos="144" len="12" vol="151" pan="0"/>
          <note key="44" pos="156" len="12" vol="151" pan="0"/>
          <note key="41" pos="168" len="12" vol="151" pan="0"/>
          <note key="44" pos="180" len="12" vol="151" pan="0"/>
          <note key="43" pos="192" len="12" vol="151" pan="0"/>
          <note key="45" pos="204" len="12" vol="151" pan="0"/>
          <note key="47" pos="216" len="12" vol="157" pan="0"/>
          <note key="50" pos="228" len="12" vol="157" pan="0"/>
          <note key="47" pos="240" len="12" vol="163" pan="0"/>
          <note key="50" pos="252" len="12" vol="163" pan="0"/>
          <note key="53" pos="264" len="12" vol="163" pan="0"/>
          <note key="56" pos="276" len="12" vol="170" pan="0"/>
          <note key="43" pos="288" len="36" vol="176" pan="0"/>
        </pattern>
        <pattern steps="16" muted="0" type="1" pos="29952" name="bass fender jazz (1,379kb)">
          <note key="52" pos="0" len="72" vol="157" pan="0"/>
          <note key="40" pos="72" len="12" vol="144" pan="0"/>
          <note key="40" pos="84" len="12" vol="144" pan="0"/>
          <note key="42" pos="96" len="24" vol="144" pan="0"/>
          <note key="43" pos="120" len="24" vol="144" pan="0"/>
          <note key="48" pos="144" len="72" vol="144" pan="0"/>
          <note key="40" pos="216" len="24" vol="144" pan="0"/>
          <note key="47" pos="240" len="24" vol="144" pan="0"/>
          <note key="40" pos="264" len="24" vol="144" pan="0"/>
          <note key="40" pos="288" len="24" vol="144" pan="0"/>
          <note key="38" pos="312" len="24" vol="144" pan="0"/>
          <note key="40" pos="336" len="24" vol="144" pan="0"/>
          <note key="42" pos="360" len="24" vol="151" pan="0"/>
          <note key="43" pos="384" len="24" vol="157" pan="0"/>
          <note key="42" pos="408" len="24" vol="151" pan="0"/>
          <note key="40" pos="432" len="24" vol="144" pan="0"/>
          <note key="45" pos="456" len="24" vol="144" pan="0"/>
          <note key="43" pos="480" len="24" vol="144" pan="0"/>
          <note key="42" pos="504" len="24" vol="144" pan="0"/>
          <note key="38" pos="528" len="48" vol="138" pan="0"/>
          <note key="38" pos="600" len="23" vol="151" pan="0"/>
          <note key="47" pos="624" len="23" vol="151" pan="0"/>
          <note key="38" pos="648" len="23" vol="151" pan="0"/>
          <note key="38" pos="672" len="23" vol="151" pan="0"/>
          <note key="38" pos="696" len="23" vol="157" pan="0"/>
          <note key="50" pos="720" len="12" vol="151" pan="0"/>
          <note key="52" pos="732" len="11" vol="151" pan="0"/>
          <note key="50" pos="744" len="23" vol="154" pan="0"/>
          <note key="43" pos="768" len="24" vol="157" pan="0"/>
          <note key="40" pos="792" len="24" vol="132" pan="0"/>
          <note key="40" pos="816" len="24" vol="144" pan="0"/>
          <note key="42" pos="840" len="24" vol="151" pan="0"/>
          <note key="40" pos="864" len="24" vol="151" pan="0"/>
          <note key="40" pos="888" len="24" vol="151" pan="0"/>
          <note key="43" pos="912" len="24" vol="163" pan="0"/>
          <note key="40" pos="936" len="24" vol="151" pan="0"/>
          <note key="40" pos="960" len="24" vol="151" pan="0"/>
          <note key="47" pos="984" len="24" vol="163" pan="0"/>
          <note key="40" pos="1008" len="24" vol="151" pan="0"/>
          <note key="43" pos="1032" len="24" vol="151" pan="0"/>
          <note key="52" pos="1056" len="24" vol="163" pan="0"/>
          <note key="40" pos="1080" len="24" vol="157" pan="0"/>
          <note key="52" pos="1104" len="24" vol="151" pan="0"/>
          <note key="54" pos="1128" len="24" vol="163" pan="0"/>
          <note key="55" pos="1152" len="24" vol="168" pan="0"/>
          <note key="47" pos="1176" len="24" vol="151" pan="0"/>
          <note key="52" pos="1200" len="24" vol="157" pan="0"/>
          <note key="36" pos="1224" len="48" vol="157" pan="0"/>
          <note key="36" pos="1272" len="48" vol="157" pan="0"/>
          <note key="38" pos="1320" len="48" vol="151" pan="0"/>
          <note key="45" pos="1368" len="24" vol="151" pan="0"/>
          <note key="52" pos="1392" len="24" vol="151" pan="0"/>
          <note key="54" pos="1416" len="24" vol="151" pan="0"/>
          <note key="38" pos="1440" len="72" vol="151" pan="0"/>
          <note key="38" pos="1512" len="84" vol="144" pan="0"/>
          <note key="40" pos="1596" len="382" vol="144" pan="0"/>
        </pattern>
        <pattern steps="16" muted="0" type="0" pos="23808" name="bass fender jazz (1,379kb)"/>
      </track>
      <track solo="0" muted="0" type="2" name="rgt bounced">
        <sampletrack vol="109.4" pan="0">
          <fxchain numofeffects="3" enabled="1">
            <effect gate="0" autoquit_denominator="4" wet="1" autoquit_numerator="4" autoquit="1" autoquit_syncmode="0" name="amplifier" on="1">
              <AmplifierControls left="100" right="100" pan="0" volume="200"/>
              <key/>
            </effect>
            <effect gate="0" autoquit_denominator="4" wet="1" autoquit_numerator="4" autoquit="1" autoquit_syncmode="0" name="eq" on="1">
              <Eq LPres="0.707" Peak2gain="0" Lowshelfgain="0" LowShelfres="1.4" LPactive="1" LP48="0" Peak2bw="0.3" Peak3bw="1.34" AnalyseIn="1" HPres="0.707" Peak4active="1" Highshelfactive="0" HighShelfgain="0" HP="0" Peak1bw="0.3" Peak3active="1" Outputgain="0" Peak4gain="0.36" HP12="1" LP="0" Peak2active="1" LP24="0" AnalyseOut="1" HighShelfres="1.4" HP48="0" Peak3gain="-9.531" HPactive="1" Peak4bw="0.3" Lowshelfactive="0" Peak1active="0" LP12="1" HP24="0">
                <Inputgain value="0" id="4802436" scale_type="log"/>
                <Peak1gain value="0" id="4884808" scale_type="log"/>
                <HPfreq value="107.5" id="6646574" scale_type="log"/>
                <LowShelffreq value="80" id="6540950" scale_type="log"/>
                <Peak1freq value="120" id="4871146" scale_type="log"/>
                <Peak2freq value="265.832" id="7996455" scale_type="log"/>
                <Peak3freq value="808.531" id="3249036" scale_type="log"/>
                <Peak4freq value="2897.74" id="7974799" scale_type="log"/>
                <Highshelffreq value="12000" id="3166967" scale_type="log"/>
                <LPfreq value="4662.35" id="4855004" scale_type="log"/>
              </Eq>
              <key/>
            </effect>
            <effect gate="0" autoquit_denominator="4" wet="1" autoquit_numerator="4" autoquit="1" autoquit_syncmode="0" name="amplifier" on="1">
              <AmplifierControls left="100" right="100" pan="0">
                <volume value="0" id="2097730" scale_type="linear"/>
              </AmplifierControls>
              <key/>
            </effect>
          </fxchain>
        </sampletrack>
        <sampletco sample_rate="44100" muted="0" pos="0" len="32064" src="/home/pass/my_scripts/learningGuitar/speed of light/rgt_bounced.wav"/>
      </track>
      <track solo="0" muted="0" type="5" name="rgt % vol">
        <automationtrack/>
        <automationpattern mute="0" pos="4992" name="Amplifier>>Volume" len="1728" prog="1" tens="1">
          <time value="100" pos="0"/>
          <time value="0" pos="384"/>
          <time value="0" pos="1152"/>
          <time value="100" pos="1344"/>
          <object id="2097730"/>
        </automationpattern>
        <automationpattern mute="0" pos="23808" name="Amplifier>>Volume" len="1728" prog="1" tens="1">
          <time value="100" pos="0"/>
          <time value="0" pos="384"/>
          <time value="0" pos="1152"/>
          <time value="100" pos="1344"/>
          <object id="2097730"/>
        </automationpattern>
        <automationpattern mute="0" pos="31872" name="Amplifier>>Volume" len="192" prog="1" tens="1">
          <time value="100" pos="0"/>
          <time value="0" pos="48"/>
          <object id="2097730"/>
        </automationpattern>
        <automationpattern mute="0" pos="0" name="Amplifier>>Volume" len="1728" prog="1" tens="1">
          <time value="100" pos="0"/>
          <object id="2097730"/>
        </automationpattern>
      </track>
      <track solo="0" muted="0" type="2" name="lgt bounced">
        <sampletrack vol="130.3" pan="0">
          <fxchain numofeffects="4" enabled="1">
            <effect gate="0" autoquit_denominator="4" wet="1" autoquit_numerator="4" autoquit="1" autoquit_syncmode="0" name="ladspaeffect" on="1">
              <ladspacontrols ports="1">
                <port02 data="0.26375"/>
              </ladspacontrols>
              <key>
                <attribute value="caps" name="file"/>
                <attribute value="Narrower" name="plugin"/>
              </key>
            </effect>
            <effect gate="0" autoquit_denominator="4" wet="1" autoquit_numerator="4" autoquit="1" autoquit_syncmode="0" name="amplifier" on="1">
              <AmplifierControls left="100" right="100" pan="0">
                <volume value="100.2" id="5748779" scale_type="linear"/>
              </AmplifierControls>
              <key/>
            </effect>
            <effect gate="0" autoquit_denominator="4" wet="1" autoquit_numerator="4" autoquit="1" autoquit_syncmode="0" name="eq" on="1">
              <Eq LPres="0.707" Peak2gain="0" Lowshelfgain="0" LowShelfres="1.4" LPactive="1" LP48="0" Peak2bw="0.3" Peak3bw="0.3" AnalyseIn="1" HPres="0.707" Peak4active="0" Highshelfactive="0" HighShelfgain="0" HP="0" Peak1bw="0.3" Peak3active="0" Outputgain="0" Peak4gain="0" HP12="1" LP="0" Peak2active="0" LP24="0" AnalyseOut="1" HighShelfres="1.4" HP48="0" Peak3gain="0" HPactive="1" Peak4bw="0.3" Lowshelfactive="0" Peak1active="0" LP12="1" HP24="0">
                <Inputgain value="0" id="2497219" scale_type="log"/>
                <Peak1gain value="0" id="6677339" scale_type="log"/>
                <HPfreq value="137.413" id="298654" scale_type="log"/>
                <LowShelffreq value="80" id="3667517" scale_type="log"/>
                <Peak1freq value="120" id="4558328" scale_type="log"/>
                <Peak2freq value="250" id="8147808" scale_type="log"/>
                <Peak3freq value="2000" id="5543360" scale_type="log"/>
                <Peak4freq value="4000" id="4913627" scale_type="log"/>
                <Highshelffreq value="12000" id="6495749" scale_type="log"/>
                <LPfreq value="5271.56" id="8366031" scale_type="log"/>
              </Eq>
              <key/>
            </effect>
            <effect gate="0" autoquit_denominator="4" wet="1" autoquit_numerator="4" autoquit="1" autoquit_syncmode="0" name="ladspaeffect" on="1">
              <ladspacontrols link="0" ports="20">
                <port00 link="0" data="1"/>
                <port01 link="0" data="0"/>
                <port02 link="0" data="0.485"/>
                <port03 link="1" data="-12.0375"/>
                <port04 link="0" data="0.475"/>
                <port05 link="0" data="-90"/>
                <port06 link="0" data="2"/>
                <port07 link="0" data="-90"/>
                <port08 link="0" data="3"/>
                <port09 link="0" data="-90"/>
                <port10 data="1"/>
                <port11 data="0"/>
                <port12 data="0.875"/>
                <port13 data="-12.0375"/>
                <port14 data="0.475"/>
                <port15 data="-90"/>
                <port16 data="2"/>
                <port17 data="-90"/>
                <port18 data="3"/>
                <port19 data="-90"/>
              </ladspacontrols>
              <key>
                <attribute value="tape_delay_1211" name="file"/>
                <attribute value="tapeDelay" name="plugin"/>
              </key>
            </effect>
          </fxchain>
        </sampletrack>
        <sampletco sample_rate="44100" muted="0" pos="0" len="32064" src="/home/pass/my_scripts/learningGuitar/speed of light/lgt_bounced.wav"/>
      </track>
      <track solo="0" muted="0" type="5" name="lgt % vol">
        <automationtrack/>
        <automationpattern mute="0" pos="4992" name="Amplifier>>Volume" len="1728" prog="1" tens="1">
          <time value="100.2" pos="0"/>
          <time value="71.8" pos="288"/>
          <time value="0" pos="576"/>
          <time value="0" pos="1152"/>
          <time value="100.2" pos="1344"/>
          <object id="5748779"/>
        </automationpattern>
        <automationpattern mute="0" pos="23808" name="Amplifier>>Volume" len="1728" prog="1" tens="1">
          <time value="100.2" pos="0"/>
          <time value="71.8" pos="288"/>
          <time value="0" pos="576"/>
          <time value="0" pos="1152"/>
          <time value="100.2" pos="1344"/>
          <object id="5748779"/>
        </automationpattern>
        <automationpattern mute="0" pos="0" name="Amplifier>>Volume" len="1728" prog="1" tens="1">
          <time value="100.2" pos="0"/>
          <time value="100.2" pos="1344"/>
          <object id="5748779"/>
        </automationpattern>
        <automationpattern mute="0" pos="15744" name="Amplifier>>Volume" len="1728" prog="0" tens="1">
          <time value="78.7" pos="0"/>
          <time value="100.2" pos="1536"/>
          <object id="5748779"/>
          <object id="5748779"/>
        </automationpattern>
      </track>
      <track solo="0" muted="0" type="0" name="noise">
        <instrumenttrack basenote="57" pitchrange="1" pitch="0" usemasterpitch="1" vol="26.4" pan="0" fxch="0">
          <instrument name="tripleoscillator">
            <tripleoscillator vol0="33" phoffset2="0" modalgo1="2" pan2="0" vol2="0" wavetype2="0" finel1="6" userwavefile2="" modalgo3="2" finer0="0" finer2="0" modalgo2="2" pan1="100" finel0="0" userwavefile1="" stphdetun2="0" phoffset0="0" coarse1="-12" finer1="0" wavetype1="6" finel2="0" userwavefile0="" vol1="33" coarse0="0" phoffset1="0" stphdetun0="0" stphdetun1="0" coarse2="-24" wavetype0="6" pan0="-100"/>
          </instrument>
          <eldata fwet="1" ftype="12" fres="6.96">
            <fcut value="6906" id="6229300" scale_type="linear"/>
            <elvol ctlenvamt="0" lamt="0" amt="0" latt="0" lspd_syncmode="0" dec="0.5" lpdel="0" att="0" lspd_denominator="4" hold="0.5" lspd="0.1" lspd_numerator="4" sustain="0.5" lshp="0" pdel="0" x100="0" rel="0.1" userwavefile=""/>
            <elcut ctlenvamt="0" lamt="0" amt="0" latt="0" lspd_syncmode="0" dec="0.5" lpdel="0" att="0" lspd_denominator="4" hold="0.5" lspd="0.1" lspd_numerator="4" sustain="0.5" lshp="0" pdel="0" x100="0" rel="0.1" userwavefile=""/>
            <elres ctlenvamt="0" lamt="0" amt="0" latt="0" lspd_syncmode="0" dec="0.5" lpdel="0" att="0" lspd_denominator="4" hold="0.5" lspd="0.1" lspd_numerator="4" sustain="0.5" lshp="0" pdel="0" x100="0" rel="0.1" userwavefile=""/>
          </eldata>
          <chordcreator chordrange="1" chord-enabled="0" chord="0"/>
          <arpeggiator arptime_syncmode="0" arpdir="0" arptime_numerator="4" arpmode="0" arp="0" arpmiss="0" arptime="200" arpgate="100" arp-enabled="0" arpskip="0" arptime_denominator="4" arprange="1" arpcycle="0"/>
          <midiport writable="0" fixedinputvelocity="-1" outputchannel="1" fixedoutputvelocity="-1" outputcontroller="0" basevelocity="63" fixedoutputnote="-1" inputchannel="0" inputcontroller="0" outputprogram="1" readable="0"/>
          <fxchain numofeffects="2" enabled="1">
            <effect gate="0" autoquit_denominator="4" wet="1" autoquit_numerator="4" autoquit="1" autoquit_syncmode="0" name="amplifier" on="1">
              <AmplifierControls left="100" right="100" pan="0">
                <volume value="98.7" id="6099615" scale_type="linear"/>
              </AmplifierControls>
              <key/>
            </effect>
            <effect gate="0" autoquit_denominator="4" wet="1" autoquit_numerator="4" autoquit="1" autoquit_syncmode="0" name="eq" on="1">
              <Eq LPres="0.707" Peak2gain="0" Lowshelfgain="0" LowShelfres="1.4" LPactive="1" LP48="0" Peak2bw="0.3" Peak3bw="0.3" AnalyseIn="1" HPres="0.707" Peak4active="0" Highshelfactive="0" HighShelfgain="0" HP="0" Peak1bw="0.3" Peak3active="0" Outputgain="0" Peak4gain="0" HP12="1" LP="0" Peak2active="0" LP24="0" AnalyseOut="1" HighShelfres="1.4" HP48="0" Peak3gain="0" HPactive="0" Peak4bw="0.3" Lowshelfactive="0" Peak1active="0" LP12="1" HP24="0">
                <Inputgain value="0" id="2401929" scale_type="log"/>
                <Peak1gain value="0" id="1195257" scale_type="log"/>
                <HPfreq value="31" id="3578893" scale_type="log"/>
                <LowShelffreq value="80" id="5840411" scale_type="log"/>
                <Peak1freq value="120" id="6547130" scale_type="log"/>
                <Peak2freq value="250" id="1290268" scale_type="log"/>
                <Peak3freq value="2000" id="1436704" scale_type="log"/>
                <Peak4freq value="4000" id="7301055" scale_type="log"/>
                <Highshelffreq value="12000" id="898515" scale_type="log"/>
                <LPfreq value="3176.43" id="5431997" scale_type="log"/>
              </Eq>
              <key/>
            </effect>
          </fxchain>
        </instrumenttrack>
        <pattern steps="16" muted="0" type="1" pos="5568" name="noise">
          <note key="65" pos="0" len="960" vol="100" pan="0"/>
        </pattern>
        <pattern steps="16" muted="0" type="1" pos="24384" name="">
          <note key="65" pos="0" len="960" vol="100" pan="0"/>
        </pattern>
        <pattern steps="16" muted="0" type="1" pos="14784" name="">
          <note key="65" pos="0" len="960" vol="100" pan="0"/>
        </pattern>
      </track>
      <track solo="0" muted="0" type="5" name="noise % vol">
        <automationtrack/>
        <automationpattern mute="0" pos="5568" name="Amplifier>>Volume" len="960" prog="2" tens="1">
          <time value="0" pos="0"/>
          <time value="39.9" pos="648"/>
          <time value="98.7" pos="960"/>
          <object id="6099615"/>
        </automationpattern>
        <automationpattern mute="0" pos="24384" name="Amplifier>>Volume" len="960" prog="2" tens="1">
          <time value="0" pos="0"/>
          <time value="39.9" pos="648"/>
          <time value="98.7" pos="960"/>
          <object id="6099615"/>
        </automationpattern>
        <automationpattern mute="0" pos="14784" name="Amplifier>>Volume" len="960" prog="2" tens="1">
          <time value="0" pos="0"/>
          <time value="0" pos="648"/>
          <time value="98.7" pos="960"/>
          <object id="6099615"/>
        </automationpattern>
      </track>
      <track solo="0" muted="0" type="5" name="noise filter frequency">
        <automationtrack/>
        <automationpattern mute="0" pos="5568" name="noise>Envelopes/LFOs>Cutoff frequency" len="960" prog="2" tens="1">
          <time value="94.8201" pos="0"/>
          <time value="2473" pos="768"/>
          <time value="6906" pos="960"/>
          <object id="6229300"/>
        </automationpattern>
        <automationpattern mute="0" pos="24384" name="noise>Envelopes/LFOs>Cutoff frequency" len="960" prog="2" tens="1">
          <time value="94.8201" pos="0"/>
          <time value="2473" pos="768"/>
          <time value="6906" pos="960"/>
          <object id="6229300"/>
        </automationpattern>
        <automationpattern mute="0" pos="14784" name="noise>Envelopes/LFOs>Cutoff frequency" len="960" prog="2" tens="1">
          <time value="94.8201" pos="0"/>
          <time value="4.2" pos="696"/>
          <time value="1909" pos="864"/>
          <time value="4112" pos="960"/>
          <object id="6229300"/>
        </automationpattern>
      </track>
    </trackcontainer>
    <track solo="0" muted="0" type="6" name="Automation track">
      <automationtrack/>
      <automationpattern mute="0" pos="0" name="Numerator" len="192" prog="0" tens="1"/>
      <automationpattern mute="0" pos="0" name="Denominator" len="192" prog="0" tens="1"/>
      <automationpattern mute="0" pos="0" name="Tempo" len="192" prog="0" tens="1"/>
      <automationpattern mute="0" pos="0" name="Master volume" len="192" prog="0" tens="1"/>
      <automationpattern mute="0" pos="0" name="Master pitch" len="192" prog="0" tens="1"/>
      <automationpattern mute="0" pos="0" name="Numerator" len="0" prog="0" tens="1">
        <time value="4" pos="0"/>
        <object id="1408314"/>
      </automationpattern>
      <automationpattern mute="0" pos="0" name="Denominator" len="0" prog="0" tens="1">
        <time value="4" pos="0"/>
        <object id="2653613"/>
      </automationpattern>
    </track>
    <fxmixer y="167" minimized="0" maximized="0" width="1260" height="333" x="1" visible="0">
      <fxchannel soloed="0" muted="0" num="0" name="Master" volume="0.326">
        <fxchain numofeffects="2" enabled="1">
          <effect gate="0" autoquit_denominator="4" wet="1" autoquit_numerator="4" autoquit="1" autoquit_syncmode="0" name="eq" on="1">
            <Eq LPres="0.707" Peak2gain="0" Lowshelfgain="-3.42" LowShelfres="1.4" LPactive="0" LP48="0" Peak2bw="0.3" Peak3bw="0.3" AnalyseIn="1" HPres="0.707" Peak4active="0" Highshelfactive="1" HighShelfgain="1.26" HP="0" Peak1bw="0.3" Peak3active="0" Outputgain="0" Peak4gain="0" HP12="1" LP="0" Peak2active="0" LP24="0" AnalyseOut="1" HighShelfres="1.4" HP48="0" Peak3gain="0" HPactive="0" Peak4bw="0.3" Lowshelfactive="0" Peak1active="0" LP12="1" HP24="0">
              <Inputgain value="0" id="3067200" scale_type="log"/>
              <Peak1gain value="0" id="5196034" scale_type="log"/>
              <HPfreq value="27.4175" id="3824946" scale_type="log"/>
              <LowShelffreq value="200.951" id="4700973" scale_type="log"/>
              <Peak1freq value="120" id="4843972" scale_type="log"/>
              <Peak2freq value="250" id="1152190" scale_type="log"/>
              <Peak3freq value="2000" id="3878733" scale_type="log"/>
              <Peak4freq value="4000" id="3573514" scale_type="log"/>
              <Highshelffreq value="1465.03" id="5946623" scale_type="log"/>
              <LPfreq value="18000" id="5425664" scale_type="log"/>
            </Eq>
            <key/>
          </effect>
          <effect gate="0" autoquit_denominator="4" wet="1" autoquit_numerator="4" autoquit="1" autoquit_syncmode="0" name="vsteffect" on="0">
            <vsteffectcontrols chunk="AACAPz0K9z4AAAAAmZnJPgAAgD89Cvc+AAAAAJmZyT4AAAA/AAAAPwAAgD8AAAA/AACAPwAAAD8AAIA/AACAPwAAgD9kZWZhdWx0AG1ldGVycz4AYQAAAEZSRUVIAUkAOAFJAAAAgD8AAAAAAAAAAAAAAAAAAIA/AAAAAAAAAAAAAAAAAAAAPwAAAD8AAIA/AAAAAAAAgD8AAAA/AACAPwAAgD8AAIA/cGlubmluZyBkb3duAHM+AGEAAABGUkVFSAFJADgBSQAAAIA/AAAAAM3MTD8AAAAAAACAPwAAAADNzEw/AAAAAAAAAAAAAIA/AACAPwAAgD8AAIA/AAAAPwAAgD8AAIA/AAAAAGJpZyBwaWN0dXJlAABzPgBhAAAARlJFRUgBSQA4AUkAAACAPwAAAADNzEw/AAAAAAAAgD8AAAAAzcxMPwAAAAAAAAA/AAAAPwAAgD8AAAAAAACAPwAAAD8AAIA/AACAPwAAAAB2b2NhbHMgZmFzdAAAcz4AYQAAAEZSRUVIAUkAOAFJAAAAgD8AAAAAAACAPwAAAAAAAIA/AAAAAAAAgD8AAAAAAAAAPwAAAD8AAIA/AAAAPwAAgD8AAAA/AACAPwAAgD8AAAAAdm9jYWxzIHNsb3cAAHM+AGEAAABGUkVFSAFJADgBSQAAAIA/AAAAAM3MzD4AAAAAAACAPwAAAADNzMw+AAAAAAAAgD8AAIA/AACAPwAAgD8AAIA/AAAAPwAAAAAAAIA/AACAP3N1bW1pbmcAbG93AABzPgBhAAAARlJFRUgBSQA4AUkAAACAPwAAAADNzEw/AAAAAAAAgD8AAAAAzcxMPwAAAAAAAIA/AAAAPwAAgD8AAIA/AACAPwAAAD8AAIA/AACAPwAAAABnbHVlaW5nAGxvdwAAcz4AYQAAAEZSRUVIAUkAOAFJAAAAgD8AAAAAzcxMPwAAAAAAAIA/AAAAAM3MTD8AAAAAAAAAAAAAgD8AAIA/AAAAPwAAgD8AAIA/AACAPwAAgD8AAAAAbGFyZ2VyIHRoYW4gbGlmZQAAAABGUkVFSAFJADgBSQAAAIA/AAAAAAAAAAAAAAAAAACAPwAAAAAAAAAAAAAAAAAAAD8AAAA/AAAAPwAAgD8AAIA/AAAAPwAAAAAAAIA/AAAAAHNjaG5pdHplbCBOWSBzdHlsZQAARlJFRUgBSQA4AUkAAACAPwAAAADNzEw/AAAAAAAAgD8AAAAAzcxMPwAAAAAAAAA/AAAAPwAAgD8AAAAAAACAPwAAAD8AAAAAAACAPwAAAABzY2huaXR6ZWwgV2llbgB5bGUAAEZSRUVIAUkAOAFJAAAAgD8AAAAAAAAAAAAAAAAAAIA/AAAAAAAAAAAAAAAAAAAAPwAAAD8AAAAAAAAAPwAAgD8AAAA/AAAAAAAAgD8AAAAAc2lnbmFsIHBhdGggb25seQBlAABGUkVFSAFJADgBSQAAAAAAAAAAAAAAAAAehSs+AAAAAAAAAAAAAAAAHoUrPgAAAD8AAAA/AACAPwAAAAAAAIA/AAAAPwAAAAAAAIA/AAAAAG5vbi1saW4gYW1wAG9ubHkAZQAARlJFRUgBSQA4AUkAAACAPwAAAAAAAIA/AAAAAAAAgD8AAAAAzcxMPwAAAAAAAAAAAAAAPwAAgD8AAAA/AACAPwAAgD8AAIA/AACAPwAAAABNL1MgMmJ1cwBtcABvbmx5AGUAAEZSRUVIAUkAOAFJAAAAgD8AAAAAzcxMPgAAAAAAAIA/AAAAAAAAAAAAAAAAAAAAAPYoLD8AAIA/uB49PwAAgD8AAIA/AAAAAAAAgD8AAAAATS9TIGRydW1zAHAAb25seQBlAABGUkVFSAFJADgBSQAAAIA/CtcjO83MzD4AAAAAAACAPwrXIzvNzMw+AAAAAAAAAD8AAAA/AACAPwAAAD8AAIA/AAAAPwAAgD8AAIA/AACAP0EAUyBkcnVtcwBwAG9ubHkAZQAARlJFRUgBSQA4AUkAAACAPwAAAADNzMw+AAAAAAAAgD8AAAAAzczMPgAAAAAAAAA/KVz/PgAAgD8AAAA/AACAPwAAAD8AAIA/AACAPwAAgD9CAFMgZHJ1bXMAcABvbmx5AGUAAEZSRUVIAUkAOAFJAA==" program="0" guivisible="0" plugin="VST32/_EFFECTS/VoS_PlugIns_Complete/VoS_PlugIns_Complete/DensitymkIII_3.0/DensitymkIII.dll"/>
            <key>
              <attribute value="VST32/_EFFECTS/VoS_PlugIns_Complete/VoS_PlugIns_Complete/DensitymkIII_3.0/DensitymkIII.dll" name="file"/>
            </key>
          </effect>
        </fxchain>
      </fxchannel>
      <fxchannel soloed="0" muted="0" num="1" name="kick" volume="0.698">
        <fxchain numofeffects="0" enabled="0"/>
        <send channel="0" amount="1"/>
        <send channel="10" amount="0.512"/>
      </fxchannel>
      <fxchannel soloed="0" muted="0" num="2" name="hat" volume="0.28">
        <fxchain numofeffects="0" enabled="0"/>
        <send channel="0" amount="1"/>
        <send channel="10" amount="0.412"/>
      </fxchannel>
      <fxchannel soloed="0" muted="0" num="3" name="snare" volume="0.86">
        <fxchain numofeffects="1" enabled="1">
          <effect gate="0" autoquit_denominator="4" wet="1" autoquit_numerator="4" autoquit="1" autoquit_syncmode="0" name="eq" on="1">
            <Eq LPres="0.707" Peak2gain="0" Lowshelfgain="0" LowShelfres="1.4" LPactive="1" LP48="0" Peak2bw="0.3" Peak3bw="0.3" AnalyseIn="1" HPres="0.707" Peak4active="1" Highshelfactive="1" HighShelfgain="5.04" HP="0" Peak1bw="0.3" Peak3active="0" Outputgain="0" Peak4gain="-0.718001" HP12="1" LP="0" Peak2active="0" LP24="0" AnalyseOut="1" HighShelfres="1.435" HP48="0" Peak3gain="0" HPactive="0" Peak4bw="0.3" Lowshelfactive="0" Peak1active="0" LP12="1" HP24="0">
              <Inputgain value="0" id="6753652" scale_type="log"/>
              <Peak1gain value="0" id="8257704" scale_type="log"/>
              <HPfreq value="31" id="2234845" scale_type="log"/>
              <LowShelffreq value="80" id="5016811" scale_type="log"/>
              <Peak1freq value="120" id="5537746" scale_type="log"/>
              <Peak2freq value="250" id="6539813" scale_type="log"/>
              <Peak3freq value="2000" id="6999518" scale_type="log"/>
              <Peak4freq value="4000" id="770028" scale_type="log"/>
              <Highshelffreq value="2497.52" id="3686018" scale_type="log"/>
              <LPfreq value="13865.6" id="7588449" scale_type="log"/>
            </Eq>
            <key/>
          </effect>
        </fxchain>
        <send channel="0" amount="1"/>
        <send channel="10" amount="0.784"/>
      </fxchannel>
      <fxchannel soloed="0" muted="0" num="4" name="crash1" volume="0.814">
        <fxchain numofeffects="0" enabled="0"/>
        <send channel="0" amount="1"/>
        <send channel="10" amount="0.724"/>
      </fxchannel>
      <fxchannel soloed="0" muted="0" num="5" name="crash2" volume="0.814">
        <fxchain numofeffects="0" enabled="0"/>
        <send channel="0" amount="1"/>
        <send channel="10" amount="0.76"/>
      </fxchannel>
      <fxchannel soloed="0" muted="0" num="6" name="china" volume="1">
        <fxchain numofeffects="0" enabled="0"/>
        <send channel="0" amount="1"/>
        <send channel="10" amount="1"/>
      </fxchannel>
      <fxchannel soloed="0" muted="0" num="7" name="hitom" volume="0.977">
        <fxchain numofeffects="0" enabled="0"/>
        <send channel="0" amount="1"/>
        <send channel="10" amount="0.42"/>
      </fxchannel>
      <fxchannel soloed="0" muted="0" num="8" name="midtom" volume="0.836">
        <fxchain numofeffects="0" enabled="0"/>
        <send channel="0" amount="1"/>
        <send channel="10" amount="0.412"/>
      </fxchannel>
      <fxchannel soloed="0" muted="0" num="9" name="lotom" volume="0.837">
        <fxchain numofeffects="0" enabled="0"/>
        <send channel="0" amount="1"/>
        <send channel="10" amount="0.432"/>
      </fxchannel>
      <fxchannel soloed="0" muted="0" num="10" name="DRUM PLATE" volume="0.674">
        <fxchain numofeffects="2" enabled="1">
          <effect gate="0" autoquit_denominator="4" wet="1" autoquit_numerator="4" autoquit="1" autoquit_syncmode="0" name="ladspaeffect" on="1">
            <ladspacontrols ports="4">
              <port02 data="0.76538"/>
              <port03 data="0.145119"/>
              <port04 data="0.0005"/>
              <port05 data="1"/>
            </ladspacontrols>
            <key>
              <attribute value="caps" name="file"/>
              <attribute value="Plate2x2" name="plugin"/>
            </key>
          </effect>
          <effect gate="0" autoquit_denominator="4" wet="1" autoquit_numerator="4" autoquit="1" autoquit_syncmode="0" name="eq" on="1">
            <Eq LPres="0.707" Peak2gain="0" Lowshelfgain="0" LowShelfres="1.4" LPactive="0" LP48="0" Peak2bw="0.3" Peak3bw="0.3" AnalyseIn="1" HPres="0.707" Peak4active="1" Highshelfactive="1" HighShelfgain="1.62" HP="0" Peak1bw="0.3" Peak3active="0" Outputgain="0" Peak4gain="0.36" HP12="1" LP="0" Peak2active="0" LP24="0" AnalyseOut="1" HighShelfres="1.4" HP48="0" Peak3gain="0" HPactive="1" Peak4bw="0.3" Lowshelfactive="0" Peak1active="0" LP12="1" HP24="0">
              <Inputgain value="0" id="217936" scale_type="log"/>
              <Peak1gain value="0" id="1412862" scale_type="log"/>
              <HPfreq value="175.669" id="7725025" scale_type="log"/>
              <LowShelffreq value="80" id="399642" scale_type="log"/>
              <Peak1freq value="120" id="3213708" scale_type="log"/>
              <Peak2freq value="250" id="1180890" scale_type="log"/>
              <Peak3freq value="2000" id="5654965" scale_type="log"/>
              <Peak4freq value="3592.47" id="757114" scale_type="log"/>
              <Highshelffreq value="610.728" id="3326661" scale_type="log"/>
              <LPfreq value="18000" id="825391" scale_type="log"/>
            </Eq>
            <key/>
          </effect>
        </fxchain>
        <send channel="0" amount="1"/>
      </fxchannel>
      <fxchannel soloed="0" muted="0" num="11" name="rhythm guitar" volume="1.184">
        <fxchain numofeffects="2" enabled="1">
          <effect gate="0" autoquit_denominator="4" wet="1" autoquit_numerator="4" autoquit="1" autoquit_syncmode="0" name="ladspaeffect" on="1">
            <ladspacontrols link="1" ports="22">
              <port02 link="1" data="0"/>
              <port03 link="1" data="-13.65"/>
              <port04 link="1" data="50"/>
              <port05 link="1" data="50"/>
              <port06 link="1" data="50"/>
              <port07 link="1" data="50"/>
              <port08 link="1" data="50"/>
              <port09 link="1" data="0"/>
              <port010 link="1" data="0"/>
              <port011 link="1" data="0"/>
              <port012 link="1" data="0"/>
              <port12 data="0"/>
              <port13 data="-13.65"/>
              <port14 data="50"/>
              <port15 data="50"/>
              <port16 data="50"/>
              <port17 data="50"/>
              <port18 data="50"/>
              <port19 data="0"/>
              <port110 data="0"/>
              <port111 data="0"/>
              <port112 data="0"/>
            </ladspacontrols>
            <key>
              <attribute value="ladspa_guitarix" name="file"/>
              <attribute value="guitarix-amp" name="plugin"/>
            </key>
          </effect>
          <effect gate="0" autoquit_denominator="4" wet="1" autoquit_numerator="4" autoquit="1" autoquit_syncmode="0" name="stereoenhancer" on="0">
            <stereoenhancercontrols width="180"/>
            <key/>
          </effect>
        </fxchain>
        <send channel="0" amount="1"/>
      </fxchannel>
      <fxchannel soloed="0" muted="0" num="12" name="lgt" volume="1.14">
        <fxchain numofeffects="4" enabled="1">
          <effect gate="0" autoquit_denominator="4" wet="1" autoquit_numerator="4" autoquit="1" autoquit_syncmode="0" name="ladspaeffect" on="1">
            <ladspacontrols link="1" ports="4">
              <port00 link="1">
                <data value="13230" id="354059" scale_type="log"/>
              </port00>
              <port01 link="1" data="1"/>
              <port10>
                <data value="13230" id="451672" scale_type="log"/>
              </port10>
              <port11 data="1"/>
            </ladspacontrols>
            <key>
              <attribute value="pointer_cast_1910" name="file"/>
              <attribute value="pointerCastDistortion" name="plugin"/>
            </key>
          </effect>
          <effect gate="0" autoquit_denominator="4" wet="1" autoquit_numerator="4" autoquit="1" autoquit_syncmode="0" name="ladspaeffect" on="1">
            <ladspacontrols link="1" ports="4">
              <port01 link="1" data="10"/>
              <port02 link="1" data="1"/>
              <port11 data="10"/>
              <port12 data="1"/>
            </ladspacontrols>
            <key>
              <attribute value="caps" name="file"/>
              <attribute value="PreampIII" name="plugin"/>
            </key>
          </effect>
          <effect gate="0" autoquit_denominator="4" wet="1" autoquit_numerator="4" autoquit="1" autoquit_syncmode="0" name="ladspaeffect" on="1">
            <ladspacontrols link="1" ports="4">
              <port01 link="1" data="1"/>
              <port02 link="1" data="0"/>
              <port11 data="1"/>
              <port12 data="0"/>
            </ladspacontrols>
            <key>
              <attribute value="caps" name="file"/>
              <attribute value="CabinetII" name="plugin"/>
            </key>
          </effect>
          <effect gate="0" autoquit_denominator="4" wet="1" autoquit_numerator="4" autoquit="1" autoquit_syncmode="0" name="ladspaeffect" on="0">
            <ladspacontrols ports="1">
              <port02 data="0.29125"/>
            </ladspacontrols>
            <key>
              <attribute value="caps" name="file"/>
              <attribute value="Narrower" name="plugin"/>
            </key>
          </effect>
        </fxchain>
        <send channel="0" amount="1"/>
        <send channel="13" amount="0.484"/>
      </fxchannel>
      <fxchannel soloed="0" muted="0" num="13" name="FX 14" volume="0.535">
        <fxchain numofeffects="1" enabled="1">
          <effect gate="0" autoquit_denominator="4" wet="1" autoquit_numerator="4" autoquit="1" autoquit_syncmode="0" name="ladspaeffect" on="1">
            <ladspacontrols link="0" ports="4">
              <port00 data_denominator="4" link="0" data="112.5" data_numerator="4" data_syncmode="0"/>
              <port01 data_denominator="4" link="0" data="0" data_numerator="4" data_syncmode="0"/>
              <port10 data_denominator="4" data="301.25" data_numerator="4" data_syncmode="0"/>
              <port11 data_denominator="4" data="0" data_numerator="4" data_syncmode="0"/>
            </ladspacontrols>
            <key>
              <attribute value="mod_delay_1419" name="file"/>
              <attribute value="modDelay" name="plugin"/>
            </key>
          </effect>
        </fxchain>
        <send channel="0" amount="1"/>
      </fxchannel>
      <fxchannel soloed="0" muted="0" num="14" name="bass" volume="1">
        <fxchain numofeffects="1" enabled="1">
          <effect gate="0" autoquit_denominator="4" wet="1" autoquit_numerator="4" autoquit="1" autoquit_syncmode="0" name="eq" on="0">
            <Eq LPres="0.707" Peak2gain="18" Lowshelfgain="-6.477" LowShelfres="1.21" LPactive="0" LP48="0" Peak2bw="2.866" Peak3bw="1.828" AnalyseIn="1" HPres="0.707" Peak4active="1" Highshelfactive="0" HighShelfgain="0" HP="0" Peak1bw="0.3" Peak3active="1" Outputgain="8" Peak4gain="5.76" HP12="1" LP="0" Peak2active="1" LP24="0" AnalyseOut="1" HighShelfres="1.4" HP48="0" Peak3gain="18" HPactive="0" Peak4bw="0.811" Lowshelfactive="1" Peak1active="0" LP12="1" HP24="0">
              <Inputgain value="0" id="1928132" scale_type="log"/>
              <Peak1gain value="0" id="5028906" scale_type="log"/>
              <HPfreq value="24.795" id="6101787" scale_type="log"/>
              <LowShelffreq value="179.84" id="5056230" scale_type="log"/>
              <Peak1freq value="120" id="3218393" scale_type="log"/>
              <Peak2freq value="8057.72" id="4083145" scale_type="log"/>
              <Peak3freq value="4557.45" id="4897974" scale_type="log"/>
              <Peak4freq value="4000" id="5404987" scale_type="log"/>
              <Highshelffreq value="12000" id="3053663" scale_type="log"/>
              <LPfreq value="18000" id="1445410" scale_type="log"/>
            </Eq>
            <key/>
          </effect>
        </fxchain>
        <send channel="0" amount="1"/>
      </fxchannel>
      <fxchannel soloed="0" muted="0" num="15" name="synthStrings" volume="1.465">
        <fxchain numofeffects="0" enabled="0"/>
        <send channel="0" amount="1"/>
      </fxchannel>
      <fxchannel soloed="0" muted="0" num="16" name="choir" volume="0.372">
        <fxchain numofeffects="0" enabled="0"/>
        <send channel="0" amount="1"/>
        <send channel="17" amount="0.624"/>
      </fxchannel>
      <fxchannel soloed="0" muted="0" num="17" name="reverb" volume="1">
        <fxchain numofeffects="1" enabled="1">
          <effect gate="0" autoquit_denominator="4" wet="1" autoquit_numerator="4" autoquit="1" autoquit_syncmode="0" name="reverbsc" on="1">
            <ReverbSCControls output_gain="6.6" input_gain="0" color="10000" size="0.89"/>
            <key/>
          </effect>
        </fxchain>
        <send channel="0" amount="1"/>
      </fxchannel>
      <fxchannel soloed="0" muted="0" num="18" name="piano" volume="1">
        <fxchain numofeffects="1" enabled="1">
          <effect gate="0" autoquit_denominator="4" wet="1" autoquit_numerator="4" autoquit="1" autoquit_syncmode="0" name="eq" on="1">
            <Eq LPres="0.707" Peak2gain="0" Lowshelfgain="0" LowShelfres="1.4" LPactive="0" LP48="0" Peak2bw="0.3" Peak3bw="0.3" AnalyseIn="1" HPres="0.707" Peak4active="0" Highshelfactive="1" HighShelfgain="3.96" HP="0" Peak1bw="0.3" Peak3active="0" Outputgain="0" Peak4gain="0" HP12="1" LP="0" Peak2active="0" LP24="0" AnalyseOut="1" HighShelfres="1.4" HP48="0" Peak3gain="0" HPactive="0" Peak4bw="0.3" Lowshelfactive="0" Peak1active="0" LP12="1" HP24="0">
              <Inputgain value="0" id="2024522" scale_type="log"/>
              <Peak1gain value="0" id="7141501" scale_type="log"/>
              <HPfreq value="31" id="7243767" scale_type="log"/>
              <LowShelffreq value="80" id="4999800" scale_type="log"/>
              <Peak1freq value="120" id="3528115" scale_type="log"/>
              <Peak2freq value="250" id="846527" scale_type="log"/>
              <Peak3freq value="2000" id="8298031" scale_type="log"/>
              <Peak4freq value="4000" id="3355540" scale_type="log"/>
              <Highshelffreq value="1287.49" id="1908689" scale_type="log"/>
              <LPfreq value="18000" id="5230697" scale_type="log"/>
            </Eq>
            <key/>
          </effect>
        </fxchain>
        <send channel="0" amount="1"/>
        <send channel="17" amount="0.18"/>
      </fxchannel>
      <fxchannel soloed="0" muted="0" num="19" name="FX 19" volume="1">
        <fxchain numofeffects="0" enabled="0"/>
        <send channel="0" amount="1"/>
      </fxchannel>
      <fxchannel soloed="0" muted="0" num="20" name="FX 20" volume="1">
        <fxchain numofeffects="0" enabled="0"/>
        <send channel="0" amount="1"/>
      </fxchannel>
      <fxchannel soloed="0" muted="0" num="21" name="FX 21" volume="1">
        <fxchain numofeffects="0" enabled="0"/>
        <send channel="0" amount="1"/>
      </fxchannel>
      <fxchannel soloed="0" muted="0" num="22" name="FX 22" volume="1">
        <fxchain numofeffects="0" enabled="0"/>
        <send channel="0" amount="1"/>
      </fxchannel>
      <fxchannel soloed="0" muted="0" num="23" name="FX 23" volume="1">
        <fxchain numofeffects="0" enabled="0"/>
        <send channel="0" amount="1"/>
      </fxchannel>
      <fxchannel soloed="0" muted="0" num="24" name="FX 24" volume="1">
        <fxchain numofeffects="0" enabled="0"/>
        <send channel="0" amount="1"/>
      </fxchannel>
    </fxmixer>
    <ControllerRackView y="282" minimized="0" maximized="0" width="350" height="200" x="680" visible="0"/>
    <pianoroll y="31" minimized="0" maximized="1" width="860" height="480" x="81" visible="0"/>
    <automationeditor y="214" minimized="0" maximized="1" width="860" height="400" x="173" visible="0"/>
    <projectnotes y="1" minimized="0" maximized="0" width="692" height="400" x="700" visible="0"><![CDATA[<!DOCTYPE HTML PUBLIC "-//W3C//DTD HTML 4.0//EN" "http://www.w3.org/TR/REC-html40/strict.dtd">
<html><head><meta name="qrichtext" content="1" /><style type="text/css">
p, li { white-space: pre-wrap; }
</style></head><body style=" font-family:'Sans Serif'; font-size:9pt; font-weight:400; font-style:normal;">
<p style="-qt-paragraph-type:empty; margin-top:0px; margin-bottom:0px; margin-left:0px; margin-right:0px; -qt-block-indent:0; text-indent:0px; font-family:'Ubuntu'; font-size:10pt;"><br /></p></body></html>]]></projectnotes>
    <timeline lpstate="0" lp0pos="0" lp1pos="9600"/>
    <controllers/>
  </song>
</lmms-project>
