<?xml version="1.0"?>
<!DOCTYPE lmms-project>
<lmms-project creator="LMMS" creatorversion="1.2.2" version="1.0" type="song">
  <head mastervol="88" bpm="162" masterpitch="0">
    <timesig_numerator scale_type="linear" value="4" id="1408314"/>
    <timesig_denominator scale_type="linear" value="4" id="2653613"/>
  </head>
  <song>
    <trackcontainer maximized="1" width="600" height="300" y="63" minimized="0" type="song" x="41" visible="1">
      <track solo="0" name="Rhythm Guitar" muted="1" type="0">
        <instrumenttrack vol="200" pitchrange="1" fxch="11" pitch="0" pan="0" usemasterpitch="1" basenote="57">
          <instrument name="carlapatchbay">
            <carlapatchbay>
              <CARLA-PROJECT VERSION="2.2">
                <EngineSettings>
                  <ForceStereo>false</ForceStereo>
                  <PreferPluginBridges>false</PreferPluginBridges>
                  <PreferUiBridges>true</PreferUiBridges>
                  <UIsAlwaysOnTop>false</UIsAlwaysOnTop>
                  <MaxParameters>200</MaxParameters>
                  <UIBridgesTimeout>4000</UIBridgesTimeout>
                  <LADSPA_PATH>/home/pass/.ladspa:/usr/lib/ladspa:/usr/local/lib/ladspa</LADSPA_PATH>
                  <DSSI_PATH>/home/pass/.dssi:/usr/lib/dssi:/usr/local/lib/dssi</DSSI_PATH>
                  <LV2_PATH>/home/pass/.lv2:/usr/lib/lv2:/usr/local/lib/lv2</LV2_PATH>
                  <VST2_PATH>/home/pass/.vst:/home/pass/.wine/drive_c/Program Files (x86)/VstPlugins:/home/pass/.wine/drive_c/Program Files/VstPlugins:/home/pass/vst:/usr/lib/lxvst:/usr/lib/vst:/usr/local/lib/lxvst:/usr/local/lib/vst/home/pass/.lxvst</VST2_PATH>
                  <VST3_PATH>/home/pass/.vst3:/home/pass/.wine/drive_c/Program Files (x86)/Common Files/VST3:/home/pass/.wine/drive_c/Program Files/Common Files/VST3:/usr/lib/vst3:/usr/local/lib/vst3</VST3_PATH>
                  <SF2_PATH>/home/pass/.sounds/sf2/home/pass/.sounds/sf3:/usr/share/soundfonts:/usr/share/sounds/sf2:/usr/share/sounds/sf3</SF2_PATH>
                  <SFZ_PATH>/home/pass/.sounds/sfz:/home/pass/samples:/usr/share/sounds/sfz</SFZ_PATH>
                </EngineSettings>
                <!-- sfizz -->
                <Plugin>
                  <Info>
                    <Type>LV2</Type>
                    <Name>sfizz</Name>
                    <URI>http://sfztools.github.io/sfizz</URI>
                  </Info>
                  <Data>
                    <Active>Yes</Active>
                    <ControlChannel>1</ControlChannel>
                    <Options>0x3f0</Options>
                    <Parameter>
                      <Index>0</Index>
                      <Name>Volume</Name>
                      <Symbol>volume</Symbol>
                      <Value>0</Value>
                    </Parameter>
                    <Parameter>
                      <Index>1</Index>
                      <Name>Polyphony</Name>
                      <Symbol>num_voices</Symbol>
                      <Value>64</Value>
                    </Parameter>
                    <Parameter>
                      <Index>2</Index>
                      <Name>Internal oversampling factor</Name>
                      <Symbol>oversampling</Symbol>
                      <Value>1</Value>
                    </Parameter>
                    <Parameter>
                      <Index>3</Index>
                      <Name>Preload size</Name>
                      <Symbol>preload_size</Symbol>
                      <Value>8192</Value>
                    </Parameter>
                    <CustomData>
                      <Type>http://lv2plug.in/ns/ext/atom#Path</Type>
                      <Key>http://sfztools.github.io/sfizz:sfzfile</Key>
                      <Value>/home/pass/samples/fakeguitar/_fakeguitar1_integrated.sfz</Value>
                    </CustomData>
                    <CustomData>
                      <Type>http://lv2plug.in/ns/ext/atom#Int</Type>
                      <Key>http://sfztools.github.io/sfizz:numvoices</Key>
                      <Value>QAAAAA==</Value>
                    </CustomData>
                    <CustomData>
                      <Type>http://lv2plug.in/ns/ext/atom#Int</Type>
                      <Key>http://sfztools.github.io/sfizz:preload_size</Key>
                      <Value>ACAAAA==</Value>
                    </CustomData>
                    <CustomData>
                      <Type>http://lv2plug.in/ns/ext/atom#Int</Type>
                      <Key>http://sfztools.github.io/sfizz:oversampling</Key>
                      <Value>AQAAAA==</Value>
                    </CustomData>
                  </Data>
                </Plugin>
                <!-- sfizz -->
                <Plugin>
                  <Info>
                    <Type>LV2</Type>
                    <Name>sfizz (2)</Name>
                    <URI>http://sfztools.github.io/sfizz</URI>
                  </Info>
                  <Data>
                    <Active>Yes</Active>
                    <ControlChannel>1</ControlChannel>
                    <Options>0x3f0</Options>
                    <Parameter>
                      <Index>0</Index>
                      <Name>Volume</Name>
                      <Symbol>volume</Symbol>
                      <Value>0</Value>
                    </Parameter>
                    <Parameter>
                      <Index>1</Index>
                      <Name>Polyphony</Name>
                      <Symbol>num_voices</Symbol>
                      <Value>64</Value>
                    </Parameter>
                    <Parameter>
                      <Index>2</Index>
                      <Name>Internal oversampling factor</Name>
                      <Symbol>oversampling</Symbol>
                      <Value>1</Value>
                    </Parameter>
                    <Parameter>
                      <Index>3</Index>
                      <Name>Preload size</Name>
                      <Symbol>preload_size</Symbol>
                      <Value>8192</Value>
                    </Parameter>
                    <CustomData>
                      <Type>http://lv2plug.in/ns/ext/atom#Path</Type>
                      <Key>http://sfztools.github.io/sfizz:sfzfile</Key>
                      <Value>/home/pass/samples/fakeguitar/_fakeguitar2_integrated.sfz</Value>
                    </CustomData>
                    <CustomData>
                      <Type>http://lv2plug.in/ns/ext/atom#Int</Type>
                      <Key>http://sfztools.github.io/sfizz:numvoices</Key>
                      <Value>QAAAAA==</Value>
                    </CustomData>
                    <CustomData>
                      <Type>http://lv2plug.in/ns/ext/atom#Int</Type>
                      <Key>http://sfztools.github.io/sfizz:preload_size</Key>
                      <Value>ACAAAA==</Value>
                    </CustomData>
                    <CustomData>
                      <Type>http://lv2plug.in/ns/ext/atom#Int</Type>
                      <Key>http://sfztools.github.io/sfizz:oversampling</Key>
                      <Value>AQAAAA==</Value>
                    </CustomData>
                  </Data>
                </Plugin>
                <Patchbay>
                  <Connection>
                    <Source>Midi Input:Capture 1</Source>
                    <Target>sfizz:events-in</Target>
                  </Connection>
                  <Connection>
                    <Source>sfizz:Left Output</Source>
                    <Target>Audio Output:Left</Target>
                  </Connection>
                  <Connection>
                    <Source>sfizz:Right Output</Source>
                    <Target>Audio Output:Left</Target>
                  </Connection>
                  <Connection>
                    <Source>Midi Input:Capture 1</Source>
                    <Target>sfizz (2):events-in</Target>
                  </Connection>
                  <Connection>
                    <Source>sfizz (2):Right Output</Source>
                    <Target>Audio Output:Right</Target>
                  </Connection>
                  <Connection>
                    <Source>sfizz (2):Left Output</Source>
                    <Target>Audio Output:Right</Target>
                  </Connection>
                  <Positions>
                    <Position x1="1711" pluginId="1" y1="1350">
                      <Name>sfizz (2)</Name>
                    </Position>
                    <Position x1="1704" pluginId="0" y1="1297">
                      <Name>sfizz</Name>
                    </Position>
                  </Positions>
                </Patchbay>
              </CARLA-PROJECT>
            </carlapatchbay>
          </instrument>
          <eldata fcut="14000" ftype="0" fres="0.5" fwet="0">
            <elvol lpdel="0" dec="0.5" lamt="0" rel="0.1" userwavefile="" lspd="0.1" x100="0" latt="0" hold="0.5" lshp="0" sustain="0.5" lspd_numerator="4" att="0" lspd_syncmode="0" amt="0" ctlenvamt="0" lspd_denominator="4" pdel="0"/>
            <elcut lpdel="0" dec="0.5" lamt="0" rel="0.1" userwavefile="" lspd="0.1" x100="0" latt="0" hold="0.5" lshp="0" sustain="0.5" lspd_numerator="4" att="0" lspd_syncmode="0" amt="0" ctlenvamt="0" lspd_denominator="4" pdel="0"/>
            <elres lpdel="0" dec="0.5" lamt="0" rel="0.1" userwavefile="" lspd="0.1" x100="0" latt="0" hold="0.5" lshp="0" sustain="0.5" lspd_numerator="4" att="0" lspd_syncmode="0" amt="0" ctlenvamt="0" lspd_denominator="4" pdel="0"/>
          </eldata>
          <chordcreator chordrange="1" chord-enabled="0" chord="0"/>
          <arpeggiator arp-enabled="0" arptime_denominator="4" arpgate="100" arpskip="0" arptime="200" arpmode="0" arpmiss="0" arptime_numerator="4" arptime_syncmode="0" arprange="1" arp="0" arpdir="0" arpcycle="0"/>
          <midiport outputcontroller="0" readable="0" basevelocity="127" writable="0" outputprogram="1" fixedoutputvelocity="-1" fixedoutputnote="-1" outputchannel="1" inputchannel="0" inputcontroller="0" fixedinputvelocity="-1"/>
          <fxchain numofeffects="0" enabled="0"/>
        </instrumenttrack>
        <pattern pos="0" name="Rhythm Guitar" muted="0" type="1" steps="16">
          <note vol="144" pos="0" key="43" pan="0" len="192"/>
          <note vol="144" pos="0" key="36" pan="0" len="192"/>
          <note vol="144" pos="0" key="0" pan="0" len="12"/>
          <note vol="144" pos="192" key="48" pan="0" len="192"/>
          <note vol="144" pos="192" key="41" pan="0" len="192"/>
          <note vol="144" pos="384" key="52" pan="0" len="192"/>
          <note vol="144" pos="384" key="45" pan="0" len="192"/>
          <note vol="144" pos="576" key="48" pan="0" len="192"/>
          <note vol="144" pos="576" key="41" pan="0" len="192"/>
          <note vol="144" pos="768" key="43" pan="0" len="24"/>
          <note vol="144" pos="768" key="36" pan="0" len="24"/>
          <note vol="144" pos="768" key="0" pan="0" len="24"/>
          <note vol="144" pos="792" key="36" pan="0" len="12"/>
          <note vol="144" pos="792" key="1" pan="0" len="24"/>
          <note vol="144" pos="804" key="36" pan="0" len="12"/>
          <note vol="144" pos="816" key="36" pan="0" len="12"/>
          <note vol="144" pos="828" key="36" pan="0" len="12"/>
          <note vol="144" pos="840" key="36" pan="0" len="12"/>
          <note vol="144" pos="852" key="36" pan="0" len="12"/>
          <note vol="144" pos="864" key="36" pan="0" len="12"/>
          <note vol="144" pos="876" key="36" pan="0" len="12"/>
          <note vol="144" pos="888" key="36" pan="0" len="12"/>
          <note vol="144" pos="900" key="36" pan="0" len="12"/>
          <note vol="144" pos="912" key="36" pan="0" len="12"/>
          <note vol="144" pos="924" key="36" pan="0" len="12"/>
          <note vol="144" pos="936" key="36" pan="0" len="12"/>
          <note vol="144" pos="948" key="36" pan="0" len="12"/>
          <note vol="144" pos="960" key="48" pan="0" len="24"/>
          <note vol="144" pos="960" key="41" pan="0" len="24"/>
          <note vol="144" pos="960" key="0" pan="0" len="12"/>
          <note vol="144" pos="984" key="41" pan="0" len="12"/>
          <note vol="144" pos="984" key="1" pan="0" len="12"/>
          <note vol="144" pos="996" key="41" pan="0" len="12"/>
          <note vol="144" pos="1008" key="41" pan="0" len="12"/>
          <note vol="144" pos="1020" key="41" pan="0" len="12"/>
          <note vol="144" pos="1032" key="41" pan="0" len="12"/>
          <note vol="144" pos="1044" key="41" pan="0" len="12"/>
          <note vol="144" pos="1056" key="41" pan="0" len="12"/>
          <note vol="144" pos="1068" key="41" pan="0" len="12"/>
          <note vol="144" pos="1080" key="41" pan="0" len="12"/>
          <note vol="144" pos="1092" key="41" pan="0" len="12"/>
          <note vol="144" pos="1104" key="41" pan="0" len="12"/>
          <note vol="144" pos="1116" key="41" pan="0" len="12"/>
          <note vol="144" pos="1128" key="41" pan="0" len="12"/>
          <note vol="144" pos="1140" key="41" pan="0" len="12"/>
          <note vol="144" pos="1152" key="52" pan="0" len="24"/>
          <note vol="144" pos="1152" key="45" pan="0" len="24"/>
          <note vol="144" pos="1152" key="0" pan="0" len="12"/>
          <note vol="144" pos="1176" key="45" pan="0" len="12"/>
          <note vol="144" pos="1176" key="1" pan="0" len="12"/>
          <note vol="144" pos="1188" key="45" pan="0" len="12"/>
          <note vol="144" pos="1200" key="45" pan="0" len="12"/>
          <note vol="144" pos="1212" key="45" pan="0" len="12"/>
          <note vol="144" pos="1224" key="45" pan="0" len="12"/>
          <note vol="144" pos="1236" key="45" pan="0" len="12"/>
          <note vol="144" pos="1248" key="45" pan="0" len="12"/>
          <note vol="144" pos="1260" key="45" pan="0" len="12"/>
          <note vol="144" pos="1272" key="45" pan="0" len="12"/>
          <note vol="144" pos="1284" key="45" pan="0" len="12"/>
          <note vol="144" pos="1296" key="45" pan="0" len="12"/>
          <note vol="144" pos="1308" key="45" pan="0" len="12"/>
          <note vol="144" pos="1320" key="45" pan="0" len="12"/>
          <note vol="144" pos="1332" key="45" pan="0" len="12"/>
          <note vol="144" pos="1344" key="48" pan="0" len="24"/>
          <note vol="144" pos="1344" key="41" pan="0" len="24"/>
          <note vol="144" pos="1344" key="0" pan="0" len="12"/>
          <note vol="144" pos="1368" key="41" pan="0" len="12"/>
          <note vol="144" pos="1368" key="1" pan="0" len="12"/>
          <note vol="144" pos="1380" key="41" pan="0" len="12"/>
          <note vol="144" pos="1392" key="41" pan="0" len="12"/>
          <note vol="144" pos="1404" key="41" pan="0" len="12"/>
          <note vol="144" pos="1416" key="41" pan="0" len="12"/>
          <note vol="144" pos="1428" key="41" pan="0" len="12"/>
          <note vol="144" pos="1440" key="41" pan="0" len="12"/>
          <note vol="144" pos="1452" key="41" pan="0" len="12"/>
          <note vol="144" pos="1464" key="41" pan="0" len="12"/>
          <note vol="144" pos="1476" key="41" pan="0" len="12"/>
          <note vol="144" pos="1488" key="41" pan="0" len="12"/>
          <note vol="144" pos="1500" key="41" pan="0" len="12"/>
          <note vol="144" pos="1512" key="41" pan="0" len="12"/>
          <note vol="144" pos="1524" key="41" pan="0" len="12"/>
        </pattern>
        <pattern pos="1920" name="Rhythm Guitar" muted="0" type="1" steps="16">
          <note vol="157" pos="0" key="43" pan="0" len="192"/>
          <note vol="157" pos="0" key="36" pan="0" len="192"/>
          <note vol="157" pos="0" key="0" pan="0" len="192"/>
          <note vol="157" pos="192" key="46" pan="0" len="96"/>
          <note vol="157" pos="192" key="39" pan="0" len="96"/>
          <note vol="157" pos="288" key="48" pan="0" len="96"/>
          <note vol="157" pos="288" key="41" pan="0" len="96"/>
          <note vol="132" pos="384" key="48" pan="0" len="12"/>
          <note vol="157" pos="384" key="0" pan="0" len="12"/>
          <note vol="132" pos="396" key="36" pan="0" len="12"/>
          <note vol="157" pos="396" key="1" pan="0" len="12"/>
          <note vol="132" pos="408" key="36" pan="0" len="12"/>
          <note vol="132" pos="420" key="43" pan="0" len="12"/>
          <note vol="157" pos="420" key="0" pan="0" len="12"/>
          <note vol="132" pos="432" key="36" pan="0" len="12"/>
          <note vol="157" pos="432" key="1" pan="0" len="12"/>
          <note vol="132" pos="444" key="36" pan="0" len="12"/>
          <note vol="132" pos="456" key="46" pan="0" len="12"/>
          <note vol="157" pos="456" key="0" pan="0" len="12"/>
          <note vol="132" pos="468" key="36" pan="0" len="12"/>
          <note vol="132" pos="468" key="1" pan="0" len="12"/>
          <note vol="132" pos="480" key="36" pan="0" len="12"/>
          <note vol="132" pos="492" key="41" pan="0" len="12"/>
          <note vol="132" pos="492" key="0" pan="0" len="12"/>
          <note vol="132" pos="504" key="36" pan="0" len="12"/>
          <note vol="132" pos="504" key="1" pan="0" len="12"/>
          <note vol="132" pos="516" key="36" pan="0" len="12"/>
          <note vol="132" pos="528" key="39" pan="0" len="12"/>
          <note vol="132" pos="528" key="0" pan="0" len="12"/>
          <note vol="132" pos="540" key="36" pan="0" len="12"/>
          <note vol="132" pos="540" key="1" pan="0" len="12"/>
          <note vol="132" pos="552" key="36" pan="0" len="12"/>
          <note vol="132" pos="564" key="36" pan="0" len="12"/>
          <note vol="132" pos="576" key="48" pan="0" len="12"/>
          <note vol="132" pos="576" key="0" pan="0" len="12"/>
          <note vol="132" pos="588" key="36" pan="0" len="12"/>
          <note vol="132" pos="588" key="1" pan="0" len="12"/>
          <note vol="132" pos="600" key="36" pan="0" len="12"/>
          <note vol="132" pos="612" key="43" pan="0" len="12"/>
          <note vol="132" pos="612" key="0" pan="0" len="12"/>
          <note vol="132" pos="624" key="36" pan="0" len="12"/>
          <note vol="132" pos="624" key="1" pan="0" len="12"/>
          <note vol="132" pos="636" key="36" pan="0" len="12"/>
          <note vol="132" pos="648" key="46" pan="0" len="12"/>
          <note vol="132" pos="648" key="0" pan="0" len="12"/>
          <note vol="132" pos="660" key="36" pan="0" len="12"/>
          <note vol="132" pos="660" key="1" pan="0" len="12"/>
          <note vol="132" pos="672" key="36" pan="0" len="12"/>
          <note vol="132" pos="684" key="41" pan="0" len="12"/>
          <note vol="132" pos="684" key="0" pan="0" len="12"/>
          <note vol="132" pos="696" key="36" pan="0" len="12"/>
          <note vol="132" pos="696" key="1" pan="0" len="12"/>
          <note vol="132" pos="708" key="36" pan="0" len="12"/>
          <note vol="144" pos="720" key="48" pan="0" len="24"/>
          <note vol="132" pos="720" key="0" pan="0" len="12"/>
          <note vol="144" pos="744" key="50" pan="0" len="24"/>
        </pattern>
        <pattern pos="1536" name="Rhythm Guitar" muted="0" type="1" steps="16">
          <note vol="144" pos="0" key="48" pan="0" len="24"/>
          <note vol="144" pos="0" key="0" pan="0" len="24"/>
          <note vol="144" pos="24" key="48" pan="0" len="12"/>
          <note vol="144" pos="24" key="1" pan="0" len="24"/>
          <note vol="144" pos="36" key="48" pan="0" len="12"/>
          <note vol="151" pos="48" key="50" pan="0" len="24"/>
          <note vol="144" pos="48" key="0" pan="0" len="24"/>
          <note vol="144" pos="72" key="50" pan="0" len="12"/>
          <note vol="144" pos="72" key="1" pan="0" len="24"/>
          <note vol="144" pos="84" key="50" pan="0" len="12"/>
          <note vol="151" pos="96" key="51" pan="0" len="24"/>
          <note vol="144" pos="96" key="0" pan="0" len="24"/>
          <note vol="144" pos="120" key="51" pan="0" len="12"/>
          <note vol="144" pos="120" key="1" pan="0" len="24"/>
          <note vol="144" pos="132" key="51" pan="0" len="12"/>
          <note vol="144" pos="144" key="53" pan="0" len="24"/>
          <note vol="144" pos="144" key="0" pan="0" len="24"/>
          <note vol="144" pos="168" key="53" pan="0" len="12"/>
          <note vol="144" pos="168" key="1" pan="0" len="24"/>
          <note vol="144" pos="180" key="53" pan="0" len="12"/>
          <note vol="144" pos="192" key="47" pan="0" len="48"/>
          <note vol="144" pos="192" key="0" pan="0" len="24"/>
          <note vol="151" pos="240" key="53" pan="0" len="48"/>
          <note vol="144" pos="288" key="59" pan="0" len="48"/>
        </pattern>
        <pattern pos="2688" name="" muted="0" type="1" steps="16">
          <note vol="157" pos="0" key="48" pan="0" len="192"/>
          <note vol="157" pos="0" key="41" pan="0" len="192"/>
          <note vol="157" pos="0" key="0" pan="0" len="192"/>
          <note vol="157" pos="192" key="53" pan="0" len="192"/>
          <note vol="157" pos="192" key="46" pan="0" len="192"/>
          <note vol="132" pos="384" key="48" pan="0" len="12"/>
          <note vol="157" pos="384" key="0" pan="0" len="12"/>
          <note vol="132" pos="396" key="36" pan="0" len="12"/>
          <note vol="157" pos="396" key="1" pan="0" len="12"/>
          <note vol="132" pos="408" key="36" pan="0" len="12"/>
          <note vol="132" pos="420" key="43" pan="0" len="12"/>
          <note vol="157" pos="420" key="0" pan="0" len="12"/>
          <note vol="132" pos="432" key="36" pan="0" len="12"/>
          <note vol="157" pos="432" key="1" pan="0" len="12"/>
          <note vol="132" pos="444" key="36" pan="0" len="12"/>
          <note vol="132" pos="456" key="46" pan="0" len="12"/>
          <note vol="157" pos="456" key="0" pan="0" len="12"/>
          <note vol="132" pos="468" key="36" pan="0" len="12"/>
          <note vol="132" pos="468" key="1" pan="0" len="12"/>
          <note vol="132" pos="480" key="36" pan="0" len="12"/>
          <note vol="132" pos="492" key="41" pan="0" len="12"/>
          <note vol="132" pos="492" key="0" pan="0" len="12"/>
          <note vol="132" pos="504" key="36" pan="0" len="12"/>
          <note vol="132" pos="504" key="1" pan="0" len="12"/>
          <note vol="132" pos="516" key="36" pan="0" len="12"/>
          <note vol="132" pos="528" key="39" pan="0" len="12"/>
          <note vol="132" pos="528" key="0" pan="0" len="12"/>
          <note vol="132" pos="540" key="36" pan="0" len="12"/>
          <note vol="132" pos="552" key="36" pan="0" len="12"/>
          <note vol="132" pos="552" key="1" pan="0" len="12"/>
          <note vol="132" pos="564" key="36" pan="0" len="12"/>
          <note vol="132" pos="576" key="48" pan="0" len="12"/>
          <note vol="132" pos="576" key="0" pan="0" len="12"/>
          <note vol="132" pos="588" key="36" pan="0" len="12"/>
          <note vol="132" pos="588" key="1" pan="0" len="12"/>
          <note vol="132" pos="600" key="36" pan="0" len="12"/>
          <note vol="132" pos="612" key="43" pan="0" len="12"/>
          <note vol="132" pos="612" key="0" pan="0" len="12"/>
          <note vol="132" pos="624" key="36" pan="0" len="12"/>
          <note vol="132" pos="624" key="1" pan="0" len="12"/>
          <note vol="132" pos="636" key="36" pan="0" len="12"/>
          <note vol="132" pos="648" key="46" pan="0" len="12"/>
          <note vol="132" pos="648" key="0" pan="0" len="12"/>
          <note vol="132" pos="660" key="36" pan="0" len="12"/>
          <note vol="132" pos="660" key="1" pan="0" len="12"/>
          <note vol="132" pos="672" key="36" pan="0" len="12"/>
          <note vol="132" pos="684" key="41" pan="0" len="12"/>
          <note vol="132" pos="684" key="0" pan="0" len="12"/>
          <note vol="132" pos="696" key="36" pan="0" len="12"/>
          <note vol="132" pos="696" key="1" pan="0" len="12"/>
          <note vol="132" pos="708" key="36" pan="0" len="12"/>
          <note vol="144" pos="720" key="48" pan="0" len="24"/>
          <note vol="132" pos="720" key="0" pan="0" len="12"/>
          <note vol="144" pos="744" key="50" pan="0" len="24"/>
        </pattern>
        <pattern pos="3456" name="" muted="0" type="1" steps="16">
          <note vol="157" pos="0" key="43" pan="0" len="192"/>
          <note vol="157" pos="0" key="36" pan="0" len="192"/>
          <note vol="157" pos="0" key="0" pan="0" len="192"/>
          <note vol="157" pos="192" key="46" pan="0" len="96"/>
          <note vol="157" pos="192" key="39" pan="0" len="96"/>
          <note vol="157" pos="288" key="48" pan="0" len="96"/>
          <note vol="157" pos="288" key="41" pan="0" len="96"/>
          <note vol="132" pos="384" key="48" pan="0" len="12"/>
          <note vol="157" pos="384" key="0" pan="0" len="12"/>
          <note vol="132" pos="396" key="36" pan="0" len="12"/>
          <note vol="157" pos="396" key="1" pan="0" len="12"/>
          <note vol="132" pos="408" key="36" pan="0" len="12"/>
          <note vol="132" pos="420" key="43" pan="0" len="12"/>
          <note vol="157" pos="420" key="0" pan="0" len="12"/>
          <note vol="132" pos="432" key="36" pan="0" len="12"/>
          <note vol="157" pos="432" key="1" pan="0" len="12"/>
          <note vol="132" pos="444" key="36" pan="0" len="12"/>
          <note vol="132" pos="456" key="46" pan="0" len="12"/>
          <note vol="157" pos="456" key="0" pan="0" len="12"/>
          <note vol="132" pos="468" key="36" pan="0" len="12"/>
          <note vol="132" pos="468" key="1" pan="0" len="12"/>
          <note vol="132" pos="480" key="36" pan="0" len="12"/>
          <note vol="132" pos="492" key="41" pan="0" len="12"/>
          <note vol="132" pos="492" key="0" pan="0" len="12"/>
          <note vol="132" pos="504" key="36" pan="0" len="12"/>
          <note vol="132" pos="504" key="1" pan="0" len="12"/>
          <note vol="132" pos="516" key="36" pan="0" len="12"/>
          <note vol="132" pos="528" key="39" pan="0" len="12"/>
          <note vol="132" pos="528" key="0" pan="0" len="12"/>
          <note vol="132" pos="540" key="36" pan="0" len="12"/>
          <note vol="132" pos="540" key="1" pan="0" len="12"/>
          <note vol="132" pos="552" key="36" pan="0" len="12"/>
          <note vol="132" pos="564" key="36" pan="0" len="12"/>
          <note vol="132" pos="576" key="48" pan="0" len="12"/>
          <note vol="132" pos="576" key="0" pan="0" len="12"/>
          <note vol="132" pos="588" key="36" pan="0" len="12"/>
          <note vol="132" pos="588" key="1" pan="0" len="12"/>
          <note vol="132" pos="600" key="36" pan="0" len="12"/>
          <note vol="132" pos="612" key="43" pan="0" len="12"/>
          <note vol="132" pos="612" key="0" pan="0" len="12"/>
          <note vol="132" pos="624" key="36" pan="0" len="12"/>
          <note vol="132" pos="624" key="1" pan="0" len="12"/>
          <note vol="132" pos="636" key="36" pan="0" len="12"/>
          <note vol="132" pos="648" key="46" pan="0" len="12"/>
          <note vol="132" pos="648" key="0" pan="0" len="12"/>
          <note vol="132" pos="660" key="36" pan="0" len="12"/>
          <note vol="132" pos="660" key="1" pan="0" len="12"/>
          <note vol="132" pos="672" key="36" pan="0" len="12"/>
          <note vol="132" pos="684" key="41" pan="0" len="12"/>
          <note vol="132" pos="684" key="0" pan="0" len="12"/>
          <note vol="132" pos="696" key="36" pan="0" len="12"/>
          <note vol="132" pos="696" key="1" pan="0" len="12"/>
          <note vol="132" pos="708" key="36" pan="0" len="12"/>
          <note vol="144" pos="720" key="48" pan="0" len="24"/>
          <note vol="132" pos="720" key="0" pan="0" len="12"/>
          <note vol="144" pos="744" key="50" pan="0" len="24"/>
        </pattern>
        <pattern pos="4224" name="" muted="0" type="1" steps="16">
          <note vol="157" pos="0" key="48" pan="0" len="192"/>
          <note vol="157" pos="0" key="41" pan="0" len="192"/>
          <note vol="157" pos="0" key="0" pan="0" len="192"/>
          <note vol="157" pos="192" key="53" pan="0" len="192"/>
          <note vol="157" pos="192" key="46" pan="0" len="192"/>
          <note vol="132" pos="384" key="39" pan="0" len="12"/>
          <note vol="157" pos="384" key="1" pan="0" len="12"/>
          <note vol="132" pos="396" key="39" pan="0" len="12"/>
          <note vol="132" pos="408" key="39" pan="0" len="12"/>
          <note vol="132" pos="420" key="39" pan="0" len="12"/>
          <note vol="132" pos="432" key="39" pan="0" len="12"/>
          <note vol="132" pos="444" key="39" pan="0" len="12"/>
          <note vol="132" pos="456" key="39" pan="0" len="12"/>
          <note vol="132" pos="468" key="39" pan="0" len="12"/>
          <note vol="132" pos="480" key="39" pan="0" len="12"/>
          <note vol="132" pos="492" key="39" pan="0" len="12"/>
          <note vol="132" pos="504" key="39" pan="0" len="12"/>
          <note vol="132" pos="516" key="39" pan="0" len="12"/>
          <note vol="132" pos="528" key="39" pan="0" len="12"/>
          <note vol="132" pos="540" key="39" pan="0" len="12"/>
          <note vol="132" pos="552" key="39" pan="0" len="12"/>
          <note vol="132" pos="564" key="39" pan="0" len="12"/>
          <note vol="132" pos="576" key="43" pan="0" len="12"/>
          <note vol="132" pos="588" key="43" pan="0" len="12"/>
          <note vol="132" pos="600" key="43" pan="0" len="12"/>
          <note vol="132" pos="612" key="43" pan="0" len="12"/>
          <note vol="132" pos="624" key="43" pan="0" len="12"/>
          <note vol="132" pos="636" key="43" pan="0" len="12"/>
          <note vol="132" pos="648" key="43" pan="0" len="12"/>
          <note vol="132" pos="660" key="43" pan="0" len="12"/>
          <note vol="132" pos="672" key="47" pan="0" len="12"/>
          <note vol="132" pos="684" key="47" pan="0" len="12"/>
          <note vol="132" pos="696" key="47" pan="0" len="12"/>
          <note vol="132" pos="708" key="47" pan="0" len="12"/>
          <note vol="132" pos="720" key="50" pan="0" len="12"/>
          <note vol="132" pos="720" key="0" pan="0" len="12"/>
          <note vol="132" pos="732" key="48" pan="0" len="12"/>
          <note vol="132" pos="744" key="47" pan="0" len="12"/>
          <note vol="132" pos="744" key="1" pan="0" len="12"/>
          <note vol="132" pos="756" key="43" pan="0" len="12"/>
        </pattern>
        <pattern pos="6528" name="Rhythm Guitar" muted="0" type="1" steps="16">
          <note vol="193" pos="0" key="36" pan="0" len="36"/>
          <note vol="151" pos="0" key="1" pan="0" len="24"/>
          <note vol="193" pos="36" key="36" pan="0" len="36"/>
          <note vol="193" pos="72" key="36" pan="0" len="36"/>
          <note vol="193" pos="108" key="36" pan="0" len="36"/>
          <note vol="193" pos="144" key="36" pan="0" len="36"/>
          <note vol="193" pos="180" key="36" pan="0" len="36"/>
          <note vol="193" pos="216" key="36" pan="0" len="36"/>
          <note vol="193" pos="252" key="36" pan="0" len="36"/>
          <note vol="193" pos="288" key="39" pan="0" len="24"/>
          <note vol="151" pos="288" key="0" pan="0" len="24"/>
          <note vol="193" pos="312" key="36" pan="0" len="24"/>
          <note vol="193" pos="336" key="36" pan="0" len="12"/>
          <note vol="151" pos="336" key="1" pan="0" len="24"/>
          <note vol="193" pos="348" key="36" pan="0" len="12"/>
          <note vol="193" pos="360" key="36" pan="0" len="12"/>
          <note vol="193" pos="372" key="36" pan="0" len="12"/>
        </pattern>
        <pattern pos="12672" name="" muted="0" type="1" steps="16">
          <note vol="193" pos="0" key="36" pan="0" len="36"/>
          <note vol="151" pos="0" key="1" pan="0" len="24"/>
          <note vol="193" pos="36" key="36" pan="0" len="36"/>
          <note vol="193" pos="72" key="36" pan="0" len="36"/>
          <note vol="193" pos="108" key="36" pan="0" len="36"/>
          <note vol="193" pos="144" key="36" pan="0" len="36"/>
          <note vol="193" pos="180" key="36" pan="0" len="36"/>
          <note vol="193" pos="216" key="36" pan="0" len="36"/>
          <note vol="193" pos="252" key="36" pan="0" len="36"/>
          <note vol="193" pos="288" key="39" pan="0" len="24"/>
          <note vol="151" pos="288" key="0" pan="0" len="24"/>
          <note vol="193" pos="312" key="36" pan="0" len="24"/>
          <note vol="193" pos="336" key="36" pan="0" len="12"/>
          <note vol="151" pos="336" key="1" pan="0" len="24"/>
          <note vol="193" pos="348" key="36" pan="0" len="12"/>
          <note vol="193" pos="360" key="36" pan="0" len="12"/>
          <note vol="193" pos="372" key="36" pan="0" len="12"/>
        </pattern>
        <pattern pos="13056" name="" muted="0" type="1" steps="16">
          <note vol="193" pos="0" key="44" pan="0" len="36"/>
          <note vol="151" pos="0" key="1" pan="0" len="24"/>
          <note vol="193" pos="36" key="44" pan="0" len="36"/>
          <note vol="193" pos="72" key="44" pan="0" len="36"/>
          <note vol="193" pos="108" key="44" pan="0" len="36"/>
          <note vol="193" pos="144" key="44" pan="0" len="36"/>
          <note vol="193" pos="180" key="44" pan="0" len="36"/>
          <note vol="193" pos="216" key="44" pan="0" len="36"/>
          <note vol="193" pos="252" key="44" pan="0" len="36"/>
          <note vol="193" pos="288" key="51" pan="0" len="24"/>
          <note vol="151" pos="288" key="0" pan="0" len="24"/>
          <note vol="193" pos="312" key="44" pan="0" len="24"/>
          <note vol="193" pos="336" key="44" pan="0" len="12"/>
          <note vol="151" pos="336" key="1" pan="0" len="24"/>
          <note vol="193" pos="348" key="44" pan="0" len="12"/>
          <note vol="193" pos="360" key="44" pan="0" len="12"/>
          <note vol="193" pos="372" key="44" pan="0" len="12"/>
        </pattern>
        <pattern pos="11136" name="Rhythm Guitar" muted="0" type="1" steps="16">
          <note vol="157" pos="0" key="39" pan="0" len="12"/>
          <note vol="157" pos="0" key="0" pan="0" len="12"/>
          <note vol="157" pos="12" key="41" pan="0" len="12"/>
          <note vol="157" pos="24" key="41" pan="0" len="12"/>
          <note vol="157" pos="24" key="1" pan="0" len="12"/>
          <note vol="157" pos="36" key="41" pan="0" len="12"/>
          <note vol="157" pos="48" key="41" pan="0" len="12"/>
          <note vol="157" pos="60" key="41" pan="0" len="12"/>
          <note vol="157" pos="72" key="41" pan="0" len="12"/>
          <note vol="157" pos="84" key="41" pan="0" len="12"/>
          <note vol="157" pos="96" key="39" pan="0" len="12"/>
          <note vol="157" pos="96" key="0" pan="0" len="12"/>
          <note vol="157" pos="108" key="41" pan="0" len="12"/>
          <note vol="157" pos="120" key="41" pan="0" len="12"/>
          <note vol="157" pos="120" key="1" pan="0" len="12"/>
          <note vol="157" pos="132" key="41" pan="0" len="12"/>
          <note vol="157" pos="144" key="44" pan="0" len="12"/>
          <note vol="157" pos="144" key="0" pan="0" len="12"/>
          <note vol="157" pos="156" key="41" pan="0" len="12"/>
          <note vol="157" pos="168" key="41" pan="0" len="12"/>
          <note vol="157" pos="168" key="1" pan="0" len="12"/>
          <note vol="157" pos="180" key="41" pan="0" len="12"/>
          <note vol="157" pos="192" key="39" pan="0" len="12"/>
          <note vol="157" pos="192" key="0" pan="0" len="12"/>
          <note vol="157" pos="204" key="41" pan="0" len="12"/>
          <note vol="157" pos="216" key="41" pan="0" len="12"/>
          <note vol="157" pos="216" key="1" pan="0" len="12"/>
          <note vol="157" pos="228" key="41" pan="0" len="12"/>
          <note vol="157" pos="240" key="41" pan="0" len="12"/>
          <note vol="157" pos="252" key="41" pan="0" len="12"/>
          <note vol="157" pos="264" key="41" pan="0" len="12"/>
          <note vol="157" pos="276" key="41" pan="0" len="12"/>
          <note vol="157" pos="288" key="39" pan="0" len="12"/>
          <note vol="157" pos="288" key="0" pan="0" len="12"/>
          <note vol="157" pos="300" key="41" pan="0" len="12"/>
          <note vol="157" pos="312" key="41" pan="0" len="12"/>
          <note vol="157" pos="312" key="1" pan="0" len="12"/>
          <note vol="157" pos="324" key="41" pan="0" len="12"/>
          <note vol="157" pos="336" key="44" pan="0" len="12"/>
          <note vol="157" pos="336" key="0" pan="0" len="12"/>
          <note vol="157" pos="348" key="41" pan="0" len="12"/>
          <note vol="157" pos="360" key="41" pan="0" len="12"/>
          <note vol="157" pos="360" key="1" pan="0" len="12"/>
          <note vol="157" pos="372" key="41" pan="0" len="12"/>
          <note vol="157" pos="384" key="36" pan="0" len="12"/>
          <note vol="157" pos="384" key="0" pan="0" len="12"/>
          <note vol="157" pos="396" key="37" pan="0" len="12"/>
          <note vol="157" pos="408" key="37" pan="0" len="12"/>
          <note vol="157" pos="408" key="1" pan="0" len="12"/>
          <note vol="157" pos="420" key="37" pan="0" len="12"/>
          <note vol="157" pos="432" key="37" pan="0" len="12"/>
          <note vol="157" pos="444" key="37" pan="0" len="12"/>
          <note vol="157" pos="456" key="37" pan="0" len="12"/>
          <note vol="157" pos="468" key="37" pan="0" len="12"/>
          <note vol="157" pos="480" key="36" pan="0" len="12"/>
          <note vol="157" pos="480" key="0" pan="0" len="12"/>
          <note vol="157" pos="492" key="37" pan="0" len="12"/>
          <note vol="157" pos="504" key="37" pan="0" len="12"/>
          <note vol="157" pos="504" key="1" pan="0" len="12"/>
          <note vol="157" pos="516" key="37" pan="0" len="12"/>
          <note vol="157" pos="528" key="39" pan="0" len="12"/>
          <note vol="157" pos="528" key="0" pan="0" len="12"/>
          <note vol="157" pos="540" key="37" pan="0" len="12"/>
          <note vol="157" pos="552" key="37" pan="0" len="12"/>
          <note vol="157" pos="552" key="1" pan="0" len="12"/>
          <note vol="157" pos="564" key="37" pan="0" len="12"/>
          <note vol="157" pos="576" key="36" pan="0" len="12"/>
          <note vol="157" pos="576" key="0" pan="0" len="12"/>
          <note vol="157" pos="588" key="37" pan="0" len="12"/>
          <note vol="157" pos="600" key="37" pan="0" len="12"/>
          <note vol="157" pos="600" key="1" pan="0" len="12"/>
          <note vol="157" pos="612" key="37" pan="0" len="12"/>
          <note vol="157" pos="624" key="37" pan="0" len="12"/>
          <note vol="157" pos="636" key="37" pan="0" len="12"/>
          <note vol="157" pos="648" key="37" pan="0" len="12"/>
          <note vol="157" pos="660" key="37" pan="0" len="12"/>
          <note vol="157" pos="672" key="36" pan="0" len="12"/>
          <note vol="157" pos="672" key="0" pan="0" len="12"/>
          <note vol="157" pos="684" key="37" pan="0" len="12"/>
          <note vol="157" pos="696" key="37" pan="0" len="12"/>
          <note vol="157" pos="696" key="1" pan="0" len="12"/>
          <note vol="157" pos="708" key="37" pan="0" len="12"/>
          <note vol="157" pos="720" key="39" pan="0" len="12"/>
          <note vol="157" pos="720" key="0" pan="0" len="12"/>
          <note vol="157" pos="732" key="37" pan="0" len="12"/>
          <note vol="157" pos="744" key="37" pan="0" len="12"/>
          <note vol="157" pos="744" key="1" pan="0" len="12"/>
          <note vol="157" pos="756" key="37" pan="0" len="12"/>
        </pattern>
        <pattern pos="11904" name="" muted="0" type="1" steps="16">
          <note vol="157" pos="0" key="39" pan="0" len="12"/>
          <note vol="157" pos="0" key="0" pan="0" len="12"/>
          <note vol="157" pos="12" key="41" pan="0" len="12"/>
          <note vol="157" pos="24" key="41" pan="0" len="12"/>
          <note vol="157" pos="24" key="1" pan="0" len="12"/>
          <note vol="157" pos="36" key="41" pan="0" len="12"/>
          <note vol="157" pos="48" key="41" pan="0" len="12"/>
          <note vol="157" pos="60" key="41" pan="0" len="12"/>
          <note vol="157" pos="72" key="41" pan="0" len="12"/>
          <note vol="157" pos="84" key="41" pan="0" len="12"/>
          <note vol="157" pos="96" key="39" pan="0" len="12"/>
          <note vol="157" pos="96" key="0" pan="0" len="12"/>
          <note vol="157" pos="108" key="41" pan="0" len="12"/>
          <note vol="157" pos="120" key="41" pan="0" len="12"/>
          <note vol="157" pos="120" key="1" pan="0" len="12"/>
          <note vol="157" pos="132" key="41" pan="0" len="12"/>
          <note vol="157" pos="144" key="44" pan="0" len="12"/>
          <note vol="157" pos="144" key="0" pan="0" len="12"/>
          <note vol="157" pos="156" key="41" pan="0" len="12"/>
          <note vol="157" pos="168" key="41" pan="0" len="12"/>
          <note vol="157" pos="168" key="1" pan="0" len="12"/>
          <note vol="157" pos="180" key="41" pan="0" len="12"/>
          <note vol="157" pos="192" key="39" pan="0" len="12"/>
          <note vol="157" pos="192" key="0" pan="0" len="12"/>
          <note vol="157" pos="204" key="41" pan="0" len="12"/>
          <note vol="157" pos="216" key="41" pan="0" len="12"/>
          <note vol="157" pos="216" key="1" pan="0" len="12"/>
          <note vol="157" pos="228" key="41" pan="0" len="12"/>
          <note vol="157" pos="240" key="41" pan="0" len="12"/>
          <note vol="157" pos="252" key="41" pan="0" len="12"/>
          <note vol="157" pos="264" key="41" pan="0" len="12"/>
          <note vol="157" pos="276" key="41" pan="0" len="12"/>
          <note vol="157" pos="288" key="39" pan="0" len="12"/>
          <note vol="157" pos="288" key="0" pan="0" len="12"/>
          <note vol="157" pos="300" key="41" pan="0" len="12"/>
          <note vol="157" pos="312" key="41" pan="0" len="12"/>
          <note vol="157" pos="312" key="1" pan="0" len="12"/>
          <note vol="157" pos="324" key="41" pan="0" len="12"/>
          <note vol="157" pos="336" key="44" pan="0" len="12"/>
          <note vol="157" pos="336" key="0" pan="0" len="12"/>
          <note vol="157" pos="348" key="41" pan="0" len="12"/>
          <note vol="157" pos="360" key="41" pan="0" len="12"/>
          <note vol="157" pos="360" key="1" pan="0" len="12"/>
          <note vol="157" pos="372" key="41" pan="0" len="12"/>
          <note vol="157" pos="384" key="36" pan="0" len="12"/>
          <note vol="157" pos="384" key="0" pan="0" len="12"/>
          <note vol="157" pos="396" key="37" pan="0" len="12"/>
          <note vol="157" pos="408" key="37" pan="0" len="12"/>
          <note vol="157" pos="408" key="1" pan="0" len="12"/>
          <note vol="157" pos="420" key="37" pan="0" len="12"/>
          <note vol="157" pos="432" key="37" pan="0" len="12"/>
          <note vol="157" pos="444" key="37" pan="0" len="12"/>
          <note vol="157" pos="456" key="37" pan="0" len="12"/>
          <note vol="157" pos="468" key="37" pan="0" len="12"/>
          <note vol="157" pos="480" key="36" pan="0" len="12"/>
          <note vol="157" pos="480" key="0" pan="0" len="12"/>
          <note vol="157" pos="492" key="37" pan="0" len="12"/>
          <note vol="157" pos="504" key="37" pan="0" len="12"/>
          <note vol="157" pos="504" key="1" pan="0" len="12"/>
          <note vol="157" pos="516" key="37" pan="0" len="12"/>
          <note vol="157" pos="528" key="39" pan="0" len="12"/>
          <note vol="157" pos="528" key="0" pan="0" len="12"/>
          <note vol="157" pos="540" key="37" pan="0" len="12"/>
          <note vol="157" pos="552" key="37" pan="0" len="12"/>
          <note vol="157" pos="552" key="1" pan="0" len="12"/>
          <note vol="157" pos="564" key="37" pan="0" len="12"/>
          <note vol="157" pos="576" key="36" pan="0" len="12"/>
          <note vol="157" pos="576" key="0" pan="0" len="12"/>
          <note vol="157" pos="588" key="37" pan="0" len="12"/>
          <note vol="157" pos="600" key="37" pan="0" len="12"/>
          <note vol="157" pos="600" key="1" pan="0" len="12"/>
          <note vol="157" pos="612" key="37" pan="0" len="12"/>
          <note vol="157" pos="624" key="37" pan="0" len="12"/>
          <note vol="157" pos="636" key="37" pan="0" len="12"/>
          <note vol="157" pos="648" key="37" pan="0" len="12"/>
          <note vol="157" pos="660" key="37" pan="0" len="12"/>
          <note vol="157" pos="672" key="36" pan="0" len="12"/>
          <note vol="157" pos="672" key="0" pan="0" len="12"/>
          <note vol="157" pos="684" key="37" pan="0" len="12"/>
          <note vol="157" pos="696" key="37" pan="0" len="12"/>
          <note vol="157" pos="696" key="1" pan="0" len="12"/>
          <note vol="157" pos="708" key="37" pan="0" len="12"/>
          <note vol="157" pos="720" key="39" pan="0" len="12"/>
          <note vol="157" pos="720" key="0" pan="0" len="12"/>
          <note vol="157" pos="732" key="37" pan="0" len="12"/>
          <note vol="157" pos="744" key="37" pan="0" len="12"/>
          <note vol="157" pos="744" key="1" pan="0" len="12"/>
          <note vol="157" pos="756" key="37" pan="0" len="12"/>
        </pattern>
        <pattern pos="6912" name="" muted="0" type="1" steps="16">
          <note vol="193" pos="0" key="44" pan="0" len="36"/>
          <note vol="151" pos="0" key="1" pan="0" len="24"/>
          <note vol="193" pos="36" key="44" pan="0" len="36"/>
          <note vol="193" pos="72" key="44" pan="0" len="36"/>
          <note vol="193" pos="108" key="44" pan="0" len="36"/>
          <note vol="193" pos="144" key="46" pan="0" len="36"/>
          <note vol="193" pos="180" key="46" pan="0" len="36"/>
          <note vol="193" pos="216" key="46" pan="0" len="36"/>
          <note vol="193" pos="252" key="46" pan="0" len="36"/>
          <note vol="193" pos="288" key="53" pan="0" len="24"/>
          <note vol="151" pos="288" key="0" pan="0" len="24"/>
          <note vol="193" pos="312" key="46" pan="0" len="24"/>
          <note vol="193" pos="336" key="46" pan="0" len="12"/>
          <note vol="151" pos="336" key="1" pan="0" len="24"/>
          <note vol="193" pos="348" key="46" pan="0" len="12"/>
          <note vol="193" pos="360" key="46" pan="0" len="12"/>
          <note vol="193" pos="372" key="46" pan="0" len="12"/>
        </pattern>
        <pattern pos="26880" name="Rhythm Guitar" muted="0" type="1" steps="16">
          <note vol="170" pos="0" key="47" pan="0" len="24"/>
          <note vol="170" pos="0" key="40" pan="0" len="24"/>
          <note vol="170" pos="0" key="0" pan="0" len="12"/>
          <note vol="170" pos="12" key="1" pan="0" len="12"/>
          <note vol="170" pos="24" key="40" pan="0" len="12"/>
          <note vol="170" pos="36" key="40" pan="0" len="12"/>
          <note vol="170" pos="48" key="40" pan="0" len="12"/>
          <note vol="170" pos="60" key="40" pan="0" len="12"/>
          <note vol="170" pos="72" key="47" pan="0" len="24"/>
          <note vol="170" pos="72" key="40" pan="0" len="24"/>
          <note vol="170" pos="72" key="0" pan="0" len="12"/>
          <note vol="170" pos="84" key="1" pan="0" len="12"/>
          <note vol="170" pos="96" key="40" pan="0" len="12"/>
          <note vol="170" pos="108" key="40" pan="0" len="12"/>
          <note vol="170" pos="120" key="40" pan="0" len="12"/>
          <note vol="170" pos="132" key="40" pan="0" len="12"/>
          <note vol="170" pos="144" key="47" pan="0" len="24"/>
          <note vol="170" pos="144" key="40" pan="0" len="24"/>
          <note vol="170" pos="144" key="0" pan="0" len="12"/>
          <note vol="170" pos="156" key="1" pan="0" len="12"/>
          <note vol="170" pos="168" key="40" pan="0" len="12"/>
          <note vol="170" pos="180" key="40" pan="0" len="12"/>
          <note vol="170" pos="192" key="40" pan="0" len="12"/>
          <note vol="170" pos="204" key="40" pan="0" len="12"/>
          <note vol="170" pos="216" key="47" pan="0" len="24"/>
          <note vol="170" pos="216" key="40" pan="0" len="24"/>
          <note vol="170" pos="216" key="0" pan="0" len="12"/>
          <note vol="170" pos="228" key="1" pan="0" len="12"/>
          <note vol="170" pos="240" key="40" pan="0" len="12"/>
          <note vol="170" pos="252" key="40" pan="0" len="12"/>
          <note vol="170" pos="264" key="40" pan="0" len="12"/>
          <note vol="170" pos="276" key="40" pan="0" len="12"/>
          <note vol="170" pos="288" key="43" pan="0" len="24"/>
          <note vol="170" pos="288" key="0" pan="0" len="12"/>
          <note vol="170" pos="312" key="42" pan="0" len="24"/>
          <note vol="170" pos="324" key="1" pan="0" len="24"/>
          <note vol="170" pos="336" key="40" pan="0" len="24"/>
          <note vol="170" pos="360" key="38" pan="0" len="24"/>
          <note vol="170" pos="384" key="43" pan="0" len="24"/>
          <note vol="170" pos="384" key="36" pan="0" len="24"/>
          <note vol="170" pos="384" key="0" pan="0" len="12"/>
          <note vol="170" pos="396" key="1" pan="0" len="12"/>
          <note vol="170" pos="408" key="36" pan="0" len="12"/>
          <note vol="170" pos="420" key="36" pan="0" len="12"/>
          <note vol="170" pos="432" key="36" pan="0" len="12"/>
          <note vol="170" pos="444" key="36" pan="0" len="12"/>
          <note vol="170" pos="456" key="43" pan="0" len="24"/>
          <note vol="170" pos="456" key="36" pan="0" len="24"/>
          <note vol="170" pos="456" key="0" pan="0" len="12"/>
          <note vol="170" pos="468" key="1" pan="0" len="12"/>
          <note vol="170" pos="480" key="36" pan="0" len="12"/>
          <note vol="170" pos="492" key="36" pan="0" len="12"/>
          <note vol="170" pos="504" key="36" pan="0" len="12"/>
          <note vol="170" pos="516" key="36" pan="0" len="12"/>
          <note vol="170" pos="528" key="45" pan="0" len="24"/>
          <note vol="170" pos="528" key="38" pan="0" len="24"/>
          <note vol="170" pos="528" key="0" pan="0" len="12"/>
          <note vol="170" pos="540" key="1" pan="0" len="12"/>
          <note vol="170" pos="552" key="38" pan="0" len="12"/>
          <note vol="170" pos="564" key="38" pan="0" len="12"/>
          <note vol="170" pos="576" key="38" pan="0" len="12"/>
          <note vol="170" pos="588" key="38" pan="0" len="12"/>
          <note vol="170" pos="600" key="45" pan="0" len="24"/>
          <note vol="170" pos="600" key="38" pan="0" len="24"/>
          <note vol="170" pos="600" key="0" pan="0" len="12"/>
          <note vol="170" pos="612" key="1" pan="0" len="12"/>
          <note vol="170" pos="624" key="38" pan="0" len="12"/>
          <note vol="170" pos="636" key="38" pan="0" len="12"/>
          <note vol="170" pos="648" key="38" pan="0" len="12"/>
          <note vol="170" pos="660" key="38" pan="0" len="12"/>
          <note vol="170" pos="672" key="45" pan="0" len="24"/>
          <note vol="170" pos="672" key="38" pan="0" len="24"/>
          <note vol="170" pos="672" key="0" pan="0" len="12"/>
          <note vol="170" pos="684" key="1" pan="0" len="12"/>
          <note vol="170" pos="696" key="38" pan="0" len="12"/>
          <note vol="170" pos="708" key="38" pan="0" len="12"/>
          <note vol="170" pos="720" key="45" pan="0" len="24"/>
          <note vol="170" pos="720" key="38" pan="0" len="24"/>
          <note vol="170" pos="720" key="0" pan="0" len="12"/>
          <note vol="170" pos="732" key="1" pan="0" len="12"/>
          <note vol="170" pos="744" key="38" pan="0" len="12"/>
          <note vol="170" pos="756" key="38" pan="0" len="12"/>
        </pattern>
        <pattern pos="8064" name="Rhythm Guitar" muted="0" type="1" steps="16">
          <note vol="197" pos="0" key="43" pan="0" len="24"/>
          <note vol="197" pos="0" key="36" pan="0" len="24"/>
          <note vol="157" pos="0" key="0" pan="0" len="12"/>
          <note vol="157" pos="12" key="1" pan="0" len="12"/>
          <note vol="197" pos="24" key="36" pan="0" len="12"/>
          <note vol="197" pos="36" key="36" pan="0" len="12"/>
          <note vol="157" pos="48" key="36" pan="0" len="12"/>
          <note vol="157" pos="60" key="36" pan="0" len="12"/>
          <note vol="157" pos="72" key="36" pan="0" len="12"/>
          <note vol="157" pos="84" key="36" pan="0" len="12"/>
          <note vol="157" pos="96" key="36" pan="0" len="12"/>
          <note vol="157" pos="108" key="36" pan="0" len="12"/>
          <note vol="157" pos="120" key="36" pan="0" len="12"/>
          <note vol="157" pos="132" key="36" pan="0" len="12"/>
          <note vol="157" pos="144" key="36" pan="0" len="12"/>
          <note vol="157" pos="156" key="36" pan="0" len="12"/>
          <note vol="157" pos="168" key="36" pan="0" len="12"/>
          <note vol="157" pos="180" key="36" pan="0" len="12"/>
          <note vol="157" pos="192" key="36" pan="0" len="12"/>
          <note vol="157" pos="204" key="36" pan="0" len="12"/>
          <note vol="157" pos="216" key="36" pan="0" len="12"/>
          <note vol="157" pos="228" key="36" pan="0" len="12"/>
          <note vol="157" pos="240" key="36" pan="0" len="12"/>
          <note vol="157" pos="252" key="36" pan="0" len="12"/>
          <note vol="157" pos="264" key="36" pan="0" len="12"/>
          <note vol="157" pos="276" key="36" pan="0" len="12"/>
          <note vol="157" pos="288" key="36" pan="0" len="12"/>
          <note vol="157" pos="300" key="36" pan="0" len="12"/>
          <note vol="157" pos="312" key="36" pan="0" len="12"/>
          <note vol="157" pos="324" key="36" pan="0" len="12"/>
          <note vol="157" pos="336" key="36" pan="0" len="12"/>
          <note vol="157" pos="348" key="36" pan="0" len="12"/>
          <note vol="157" pos="360" key="36" pan="0" len="12"/>
          <note vol="157" pos="372" key="36" pan="0" len="12"/>
          <note vol="197" pos="384" key="51" pan="0" len="24"/>
          <note vol="197" pos="384" key="44" pan="0" len="24"/>
          <note vol="157" pos="384" key="0" pan="0" len="12"/>
          <note vol="157" pos="396" key="1" pan="0" len="12"/>
          <note vol="157" pos="408" key="44" pan="0" len="12"/>
          <note vol="157" pos="420" key="44" pan="0" len="12"/>
          <note vol="157" pos="432" key="44" pan="0" len="12"/>
          <note vol="157" pos="444" key="44" pan="0" len="12"/>
          <note vol="157" pos="456" key="44" pan="0" len="12"/>
          <note vol="157" pos="468" key="44" pan="0" len="12"/>
          <note vol="157" pos="480" key="44" pan="0" len="12"/>
          <note vol="157" pos="492" key="44" pan="0" len="12"/>
          <note vol="157" pos="504" key="44" pan="0" len="12"/>
          <note vol="157" pos="516" key="44" pan="0" len="12"/>
          <note vol="197" pos="528" key="53" pan="0" len="24"/>
          <note vol="197" pos="528" key="46" pan="0" len="24"/>
          <note vol="157" pos="528" key="0" pan="0" len="12"/>
          <note vol="157" pos="540" key="1" pan="0" len="12"/>
          <note vol="157" pos="552" key="46" pan="0" len="12"/>
          <note vol="157" pos="564" key="46" pan="0" len="12"/>
          <note vol="157" pos="576" key="46" pan="0" len="12"/>
          <note vol="157" pos="588" key="46" pan="0" len="12"/>
          <note vol="157" pos="600" key="46" pan="0" len="12"/>
          <note vol="157" pos="612" key="46" pan="0" len="12"/>
          <note vol="157" pos="624" key="46" pan="0" len="12"/>
          <note vol="157" pos="636" key="46" pan="0" len="12"/>
          <note vol="157" pos="648" key="46" pan="0" len="12"/>
          <note vol="157" pos="660" key="46" pan="0" len="12"/>
          <note vol="157" pos="672" key="46" pan="0" len="12"/>
          <note vol="157" pos="684" key="46" pan="0" len="12"/>
          <note vol="157" pos="696" key="46" pan="0" len="12"/>
          <note vol="157" pos="708" key="46" pan="0" len="12"/>
          <note vol="157" pos="720" key="46" pan="0" len="12"/>
          <note vol="157" pos="732" key="46" pan="0" len="12"/>
          <note vol="157" pos="744" key="46" pan="0" len="12"/>
          <note vol="157" pos="756" key="46" pan="0" len="12"/>
        </pattern>
        <pattern pos="13440" name="" muted="0" type="1" steps="16">
          <note vol="193" pos="0" key="39" pan="0" len="36"/>
          <note vol="151" pos="0" key="1" pan="0" len="24"/>
          <note vol="193" pos="36" key="39" pan="0" len="36"/>
          <note vol="193" pos="72" key="39" pan="0" len="36"/>
          <note vol="193" pos="108" key="39" pan="0" len="36"/>
          <note vol="193" pos="144" key="39" pan="0" len="36"/>
          <note vol="193" pos="180" key="39" pan="0" len="36"/>
          <note vol="193" pos="216" key="39" pan="0" len="36"/>
          <note vol="193" pos="252" key="39" pan="0" len="36"/>
          <note vol="193" pos="288" key="43" pan="0" len="24"/>
          <note vol="151" pos="288" key="0" pan="0" len="24"/>
          <note vol="193" pos="312" key="39" pan="0" len="24"/>
          <note vol="193" pos="336" key="39" pan="0" len="12"/>
          <note vol="151" pos="336" key="1" pan="0" len="24"/>
          <note vol="193" pos="348" key="39" pan="0" len="12"/>
          <note vol="193" pos="360" key="39" pan="0" len="12"/>
          <note vol="193" pos="372" key="39" pan="0" len="12"/>
        </pattern>
        <pattern pos="25344" name="" muted="0" type="1" steps="16">
          <note vol="170" pos="0" key="45" pan="0" len="24"/>
          <note vol="170" pos="0" key="38" pan="0" len="24"/>
          <note vol="170" pos="0" key="0" pan="0" len="12"/>
          <note vol="170" pos="12" key="1" pan="0" len="12"/>
          <note vol="170" pos="24" key="38" pan="0" len="12"/>
          <note vol="170" pos="36" key="38" pan="0" len="12"/>
          <note vol="170" pos="48" key="38" pan="0" len="12"/>
          <note vol="170" pos="60" key="38" pan="0" len="12"/>
          <note vol="170" pos="72" key="45" pan="0" len="24"/>
          <note vol="170" pos="72" key="38" pan="0" len="24"/>
          <note vol="170" pos="72" key="0" pan="0" len="12"/>
          <note vol="170" pos="84" key="1" pan="0" len="12"/>
          <note vol="170" pos="96" key="38" pan="0" len="12"/>
          <note vol="170" pos="108" key="38" pan="0" len="12"/>
          <note vol="170" pos="120" key="38" pan="0" len="12"/>
          <note vol="170" pos="132" key="38" pan="0" len="12"/>
          <note vol="170" pos="144" key="45" pan="0" len="24"/>
          <note vol="170" pos="144" key="38" pan="0" len="24"/>
          <note vol="170" pos="144" key="0" pan="0" len="12"/>
          <note vol="170" pos="156" key="1" pan="0" len="12"/>
          <note vol="170" pos="168" key="38" pan="0" len="12"/>
          <note vol="170" pos="180" key="38" pan="0" len="12"/>
          <note vol="170" pos="192" key="38" pan="0" len="12"/>
          <note vol="170" pos="204" key="38" pan="0" len="12"/>
          <note vol="170" pos="216" key="45" pan="0" len="24"/>
          <note vol="170" pos="216" key="38" pan="0" len="24"/>
          <note vol="170" pos="216" key="0" pan="0" len="12"/>
          <note vol="170" pos="228" key="1" pan="0" len="12"/>
          <note vol="170" pos="240" key="38" pan="0" len="12"/>
          <note vol="170" pos="252" key="38" pan="0" len="12"/>
          <note vol="170" pos="264" key="38" pan="0" len="12"/>
          <note vol="170" pos="276" key="38" pan="0" len="12"/>
          <note vol="170" pos="288" key="41" pan="0" len="24"/>
          <note vol="170" pos="288" key="0" pan="0" len="12"/>
          <note vol="170" pos="312" key="40" pan="0" len="24"/>
          <note vol="170" pos="324" key="1" pan="0" len="24"/>
          <note vol="170" pos="336" key="38" pan="0" len="24"/>
          <note vol="170" pos="360" key="36" pan="0" len="24"/>
          <note vol="170" pos="384" key="53" pan="0" len="24"/>
          <note vol="170" pos="384" key="46" pan="0" len="24"/>
          <note vol="170" pos="384" key="0" pan="0" len="12"/>
          <note vol="170" pos="396" key="1" pan="0" len="12"/>
          <note vol="170" pos="408" key="46" pan="0" len="12"/>
          <note vol="170" pos="420" key="46" pan="0" len="12"/>
          <note vol="170" pos="432" key="46" pan="0" len="12"/>
          <note vol="170" pos="444" key="46" pan="0" len="12"/>
          <note vol="170" pos="456" key="53" pan="0" len="24"/>
          <note vol="170" pos="456" key="46" pan="0" len="24"/>
          <note vol="170" pos="456" key="0" pan="0" len="12"/>
          <note vol="170" pos="468" key="1" pan="0" len="12"/>
          <note vol="170" pos="480" key="46" pan="0" len="12"/>
          <note vol="170" pos="492" key="46" pan="0" len="12"/>
          <note vol="170" pos="504" key="46" pan="0" len="12"/>
          <note vol="170" pos="516" key="46" pan="0" len="12"/>
          <note vol="170" pos="528" key="43" pan="0" len="24"/>
          <note vol="170" pos="528" key="36" pan="0" len="24"/>
          <note vol="170" pos="528" key="0" pan="0" len="12"/>
          <note vol="170" pos="540" key="1" pan="0" len="12"/>
          <note vol="170" pos="552" key="36" pan="0" len="12"/>
          <note vol="170" pos="564" key="36" pan="0" len="12"/>
          <note vol="170" pos="576" key="36" pan="0" len="12"/>
          <note vol="170" pos="588" key="36" pan="0" len="12"/>
          <note vol="170" pos="600" key="43" pan="0" len="24"/>
          <note vol="170" pos="600" key="36" pan="0" len="24"/>
          <note vol="170" pos="600" key="0" pan="0" len="12"/>
          <note vol="170" pos="612" key="1" pan="0" len="12"/>
          <note vol="170" pos="624" key="36" pan="0" len="12"/>
          <note vol="170" pos="636" key="36" pan="0" len="12"/>
          <note vol="170" pos="648" key="36" pan="0" len="12"/>
          <note vol="170" pos="660" key="36" pan="0" len="12"/>
          <note vol="170" pos="672" key="43" pan="0" len="24"/>
          <note vol="170" pos="672" key="36" pan="0" len="24"/>
          <note vol="170" pos="672" key="0" pan="0" len="12"/>
          <note vol="170" pos="684" key="1" pan="0" len="12"/>
          <note vol="170" pos="696" key="36" pan="0" len="12"/>
          <note vol="170" pos="708" key="36" pan="0" len="12"/>
          <note vol="170" pos="720" key="43" pan="0" len="24"/>
          <note vol="170" pos="720" key="36" pan="0" len="24"/>
          <note vol="170" pos="720" key="0" pan="0" len="12"/>
          <note vol="170" pos="732" key="1" pan="0" len="12"/>
          <note vol="170" pos="744" key="36" pan="0" len="12"/>
          <note vol="170" pos="756" key="36" pan="0" len="12"/>
        </pattern>
        <pattern pos="26112" name="" muted="0" type="1" steps="16">
          <note vol="170" pos="0" key="45" pan="0" len="24"/>
          <note vol="170" pos="0" key="38" pan="0" len="24"/>
          <note vol="170" pos="0" key="0" pan="0" len="12"/>
          <note vol="170" pos="12" key="1" pan="0" len="12"/>
          <note vol="170" pos="24" key="38" pan="0" len="12"/>
          <note vol="170" pos="36" key="38" pan="0" len="12"/>
          <note vol="170" pos="48" key="38" pan="0" len="12"/>
          <note vol="170" pos="60" key="38" pan="0" len="12"/>
          <note vol="170" pos="72" key="45" pan="0" len="24"/>
          <note vol="170" pos="72" key="38" pan="0" len="24"/>
          <note vol="170" pos="72" key="0" pan="0" len="12"/>
          <note vol="170" pos="84" key="1" pan="0" len="12"/>
          <note vol="170" pos="96" key="38" pan="0" len="12"/>
          <note vol="170" pos="108" key="38" pan="0" len="12"/>
          <note vol="170" pos="120" key="38" pan="0" len="12"/>
          <note vol="170" pos="132" key="38" pan="0" len="12"/>
          <note vol="170" pos="144" key="45" pan="0" len="24"/>
          <note vol="170" pos="144" key="38" pan="0" len="24"/>
          <note vol="170" pos="144" key="0" pan="0" len="12"/>
          <note vol="170" pos="156" key="1" pan="0" len="12"/>
          <note vol="170" pos="168" key="38" pan="0" len="12"/>
          <note vol="170" pos="180" key="38" pan="0" len="12"/>
          <note vol="170" pos="192" key="38" pan="0" len="12"/>
          <note vol="170" pos="204" key="38" pan="0" len="12"/>
          <note vol="170" pos="216" key="45" pan="0" len="24"/>
          <note vol="170" pos="216" key="38" pan="0" len="24"/>
          <note vol="170" pos="216" key="0" pan="0" len="12"/>
          <note vol="170" pos="228" key="1" pan="0" len="12"/>
          <note vol="170" pos="240" key="38" pan="0" len="12"/>
          <note vol="170" pos="252" key="38" pan="0" len="12"/>
          <note vol="170" pos="264" key="38" pan="0" len="12"/>
          <note vol="170" pos="276" key="38" pan="0" len="12"/>
          <note vol="170" pos="288" key="41" pan="0" len="24"/>
          <note vol="170" pos="288" key="0" pan="0" len="12"/>
          <note vol="170" pos="312" key="40" pan="0" len="24"/>
          <note vol="170" pos="324" key="1" pan="0" len="24"/>
          <note vol="170" pos="336" key="38" pan="0" len="24"/>
          <note vol="170" pos="360" key="36" pan="0" len="24"/>
          <note vol="170" pos="384" key="53" pan="0" len="24"/>
          <note vol="170" pos="384" key="46" pan="0" len="24"/>
          <note vol="170" pos="384" key="0" pan="0" len="12"/>
          <note vol="170" pos="396" key="1" pan="0" len="12"/>
          <note vol="170" pos="408" key="46" pan="0" len="12"/>
          <note vol="170" pos="420" key="46" pan="0" len="12"/>
          <note vol="170" pos="432" key="46" pan="0" len="12"/>
          <note vol="170" pos="444" key="46" pan="0" len="12"/>
          <note vol="170" pos="456" key="53" pan="0" len="24"/>
          <note vol="170" pos="456" key="46" pan="0" len="24"/>
          <note vol="170" pos="456" key="0" pan="0" len="12"/>
          <note vol="170" pos="468" key="1" pan="0" len="12"/>
          <note vol="170" pos="480" key="46" pan="0" len="12"/>
          <note vol="170" pos="492" key="46" pan="0" len="12"/>
          <note vol="170" pos="504" key="46" pan="0" len="12"/>
          <note vol="170" pos="516" key="46" pan="0" len="12"/>
          <note vol="170" pos="528" key="43" pan="0" len="24"/>
          <note vol="170" pos="528" key="36" pan="0" len="24"/>
          <note vol="170" pos="528" key="0" pan="0" len="12"/>
          <note vol="170" pos="540" key="1" pan="0" len="12"/>
          <note vol="170" pos="552" key="36" pan="0" len="12"/>
          <note vol="170" pos="564" key="36" pan="0" len="12"/>
          <note vol="170" pos="576" key="36" pan="0" len="12"/>
          <note vol="170" pos="588" key="36" pan="0" len="12"/>
          <note vol="170" pos="600" key="43" pan="0" len="24"/>
          <note vol="170" pos="600" key="36" pan="0" len="24"/>
          <note vol="170" pos="600" key="0" pan="0" len="12"/>
          <note vol="170" pos="612" key="1" pan="0" len="12"/>
          <note vol="170" pos="624" key="36" pan="0" len="12"/>
          <note vol="170" pos="636" key="36" pan="0" len="12"/>
          <note vol="170" pos="648" key="36" pan="0" len="12"/>
          <note vol="170" pos="660" key="36" pan="0" len="12"/>
          <note vol="170" pos="672" key="43" pan="0" len="48"/>
          <note vol="170" pos="672" key="36" pan="0" len="48"/>
          <note vol="170" pos="672" key="0" pan="0" len="12"/>
          <note vol="170" pos="720" key="45" pan="0" len="48"/>
          <note vol="170" pos="720" key="38" pan="0" len="48"/>
        </pattern>
        <pattern pos="27648" name="" muted="0" type="1" steps="16">
          <note vol="170" pos="0" key="47" pan="0" len="24"/>
          <note vol="170" pos="0" key="40" pan="0" len="24"/>
          <note vol="170" pos="0" key="0" pan="0" len="12"/>
          <note vol="170" pos="12" key="1" pan="0" len="12"/>
          <note vol="170" pos="24" key="40" pan="0" len="12"/>
          <note vol="170" pos="36" key="40" pan="0" len="12"/>
          <note vol="170" pos="48" key="40" pan="0" len="12"/>
          <note vol="170" pos="60" key="40" pan="0" len="12"/>
          <note vol="170" pos="72" key="47" pan="0" len="24"/>
          <note vol="170" pos="72" key="40" pan="0" len="24"/>
          <note vol="170" pos="72" key="0" pan="0" len="12"/>
          <note vol="170" pos="84" key="1" pan="0" len="12"/>
          <note vol="170" pos="96" key="40" pan="0" len="12"/>
          <note vol="170" pos="108" key="40" pan="0" len="12"/>
          <note vol="170" pos="120" key="40" pan="0" len="12"/>
          <note vol="170" pos="132" key="40" pan="0" len="12"/>
          <note vol="170" pos="144" key="47" pan="0" len="24"/>
          <note vol="170" pos="144" key="40" pan="0" len="24"/>
          <note vol="170" pos="144" key="0" pan="0" len="12"/>
          <note vol="170" pos="156" key="1" pan="0" len="12"/>
          <note vol="170" pos="168" key="40" pan="0" len="12"/>
          <note vol="170" pos="180" key="40" pan="0" len="12"/>
          <note vol="170" pos="192" key="40" pan="0" len="12"/>
          <note vol="170" pos="204" key="40" pan="0" len="12"/>
          <note vol="170" pos="216" key="47" pan="0" len="24"/>
          <note vol="170" pos="216" key="40" pan="0" len="24"/>
          <note vol="170" pos="216" key="0" pan="0" len="12"/>
          <note vol="170" pos="228" key="1" pan="0" len="12"/>
          <note vol="170" pos="240" key="40" pan="0" len="12"/>
          <note vol="170" pos="252" key="40" pan="0" len="12"/>
          <note vol="170" pos="264" key="40" pan="0" len="12"/>
          <note vol="170" pos="276" key="40" pan="0" len="12"/>
          <note vol="170" pos="288" key="43" pan="0" len="24"/>
          <note vol="170" pos="288" key="0" pan="0" len="12"/>
          <note vol="170" pos="312" key="42" pan="0" len="24"/>
          <note vol="170" pos="324" key="1" pan="0" len="24"/>
          <note vol="170" pos="336" key="40" pan="0" len="24"/>
          <note vol="170" pos="360" key="38" pan="0" len="24"/>
          <note vol="170" pos="384" key="43" pan="0" len="24"/>
          <note vol="170" pos="384" key="36" pan="0" len="24"/>
          <note vol="170" pos="384" key="0" pan="0" len="12"/>
          <note vol="170" pos="396" key="1" pan="0" len="12"/>
          <note vol="170" pos="408" key="36" pan="0" len="12"/>
          <note vol="170" pos="420" key="36" pan="0" len="12"/>
          <note vol="170" pos="432" key="36" pan="0" len="12"/>
          <note vol="170" pos="444" key="36" pan="0" len="12"/>
          <note vol="170" pos="456" key="43" pan="0" len="24"/>
          <note vol="170" pos="456" key="36" pan="0" len="24"/>
          <note vol="170" pos="456" key="0" pan="0" len="12"/>
          <note vol="170" pos="468" key="1" pan="0" len="12"/>
          <note vol="170" pos="480" key="36" pan="0" len="12"/>
          <note vol="170" pos="492" key="36" pan="0" len="12"/>
          <note vol="170" pos="504" key="36" pan="0" len="12"/>
          <note vol="170" pos="516" key="36" pan="0" len="12"/>
          <note vol="170" pos="528" key="45" pan="0" len="24"/>
          <note vol="170" pos="528" key="38" pan="0" len="24"/>
          <note vol="170" pos="528" key="0" pan="0" len="12"/>
          <note vol="170" pos="540" key="1" pan="0" len="12"/>
          <note vol="170" pos="552" key="38" pan="0" len="12"/>
          <note vol="170" pos="564" key="38" pan="0" len="12"/>
          <note vol="170" pos="576" key="38" pan="0" len="12"/>
          <note vol="170" pos="588" key="38" pan="0" len="12"/>
          <note vol="170" pos="600" key="45" pan="0" len="24"/>
          <note vol="170" pos="600" key="38" pan="0" len="24"/>
          <note vol="170" pos="600" key="0" pan="0" len="12"/>
          <note vol="170" pos="612" key="1" pan="0" len="12"/>
          <note vol="170" pos="624" key="38" pan="0" len="12"/>
          <note vol="170" pos="636" key="38" pan="0" len="12"/>
          <note vol="170" pos="648" key="38" pan="0" len="12"/>
          <note vol="170" pos="660" key="38" pan="0" len="12"/>
          <note vol="170" pos="672" key="45" pan="0" len="24"/>
          <note vol="170" pos="672" key="38" pan="0" len="24"/>
          <note vol="170" pos="672" key="0" pan="0" len="12"/>
          <note vol="170" pos="684" key="1" pan="0" len="12"/>
          <note vol="170" pos="696" key="38" pan="0" len="12"/>
          <note vol="170" pos="708" key="38" pan="0" len="12"/>
          <note vol="170" pos="720" key="45" pan="0" len="24"/>
          <note vol="170" pos="720" key="38" pan="0" len="24"/>
          <note vol="170" pos="720" key="0" pan="0" len="12"/>
          <note vol="170" pos="732" key="1" pan="0" len="12"/>
          <note vol="170" pos="744" key="38" pan="0" len="12"/>
          <note vol="170" pos="756" key="38" pan="0" len="12"/>
        </pattern>
        <pattern pos="28416" name="" muted="0" type="1" steps="16">
          <note vol="170" pos="0" key="47" pan="0" len="24"/>
          <note vol="170" pos="0" key="40" pan="0" len="24"/>
          <note vol="170" pos="0" key="0" pan="0" len="12"/>
          <note vol="170" pos="12" key="1" pan="0" len="12"/>
          <note vol="170" pos="24" key="40" pan="0" len="12"/>
          <note vol="170" pos="36" key="40" pan="0" len="12"/>
          <note vol="170" pos="48" key="40" pan="0" len="12"/>
          <note vol="170" pos="60" key="40" pan="0" len="12"/>
          <note vol="170" pos="72" key="47" pan="0" len="24"/>
          <note vol="170" pos="72" key="40" pan="0" len="24"/>
          <note vol="170" pos="72" key="0" pan="0" len="12"/>
          <note vol="170" pos="84" key="1" pan="0" len="12"/>
          <note vol="170" pos="96" key="40" pan="0" len="12"/>
          <note vol="170" pos="108" key="40" pan="0" len="12"/>
          <note vol="170" pos="120" key="40" pan="0" len="12"/>
          <note vol="170" pos="132" key="40" pan="0" len="12"/>
          <note vol="170" pos="144" key="47" pan="0" len="24"/>
          <note vol="170" pos="144" key="40" pan="0" len="24"/>
          <note vol="170" pos="144" key="0" pan="0" len="12"/>
          <note vol="170" pos="156" key="1" pan="0" len="12"/>
          <note vol="170" pos="168" key="40" pan="0" len="12"/>
          <note vol="170" pos="180" key="40" pan="0" len="12"/>
          <note vol="170" pos="192" key="40" pan="0" len="12"/>
          <note vol="170" pos="204" key="40" pan="0" len="12"/>
          <note vol="170" pos="216" key="47" pan="0" len="24"/>
          <note vol="170" pos="216" key="40" pan="0" len="24"/>
          <note vol="170" pos="216" key="0" pan="0" len="12"/>
          <note vol="170" pos="228" key="1" pan="0" len="12"/>
          <note vol="170" pos="240" key="40" pan="0" len="12"/>
          <note vol="170" pos="252" key="40" pan="0" len="12"/>
          <note vol="170" pos="264" key="40" pan="0" len="12"/>
          <note vol="170" pos="276" key="40" pan="0" len="12"/>
          <note vol="170" pos="288" key="43" pan="0" len="24"/>
          <note vol="170" pos="288" key="0" pan="0" len="12"/>
          <note vol="170" pos="312" key="42" pan="0" len="24"/>
          <note vol="170" pos="324" key="1" pan="0" len="24"/>
          <note vol="170" pos="336" key="40" pan="0" len="24"/>
          <note vol="170" pos="360" key="38" pan="0" len="24"/>
          <note vol="170" pos="384" key="43" pan="0" len="24"/>
          <note vol="170" pos="384" key="36" pan="0" len="24"/>
          <note vol="170" pos="384" key="0" pan="0" len="12"/>
          <note vol="170" pos="396" key="1" pan="0" len="12"/>
          <note vol="170" pos="408" key="36" pan="0" len="12"/>
          <note vol="170" pos="420" key="36" pan="0" len="12"/>
          <note vol="170" pos="432" key="36" pan="0" len="12"/>
          <note vol="170" pos="444" key="36" pan="0" len="12"/>
          <note vol="170" pos="456" key="43" pan="0" len="24"/>
          <note vol="170" pos="456" key="36" pan="0" len="24"/>
          <note vol="170" pos="456" key="0" pan="0" len="12"/>
          <note vol="170" pos="468" key="1" pan="0" len="12"/>
          <note vol="170" pos="480" key="36" pan="0" len="12"/>
          <note vol="170" pos="492" key="36" pan="0" len="12"/>
          <note vol="170" pos="504" key="36" pan="0" len="12"/>
          <note vol="170" pos="516" key="36" pan="0" len="12"/>
          <note vol="170" pos="528" key="45" pan="0" len="24"/>
          <note vol="170" pos="528" key="38" pan="0" len="24"/>
          <note vol="170" pos="528" key="0" pan="0" len="12"/>
          <note vol="170" pos="540" key="1" pan="0" len="12"/>
          <note vol="170" pos="552" key="38" pan="0" len="12"/>
          <note vol="170" pos="564" key="38" pan="0" len="12"/>
          <note vol="170" pos="576" key="38" pan="0" len="12"/>
          <note vol="170" pos="588" key="38" pan="0" len="12"/>
          <note vol="170" pos="600" key="45" pan="0" len="24"/>
          <note vol="170" pos="600" key="38" pan="0" len="24"/>
          <note vol="170" pos="600" key="0" pan="0" len="12"/>
          <note vol="170" pos="612" key="1" pan="0" len="12"/>
          <note vol="170" pos="624" key="38" pan="0" len="12"/>
          <note vol="170" pos="636" key="38" pan="0" len="12"/>
          <note vol="170" pos="648" key="38" pan="0" len="12"/>
          <note vol="170" pos="660" key="38" pan="0" len="12"/>
          <note vol="170" pos="672" key="45" pan="0" len="24"/>
          <note vol="170" pos="672" key="38" pan="0" len="24"/>
          <note vol="170" pos="672" key="0" pan="0" len="12"/>
          <note vol="170" pos="684" key="1" pan="0" len="12"/>
          <note vol="170" pos="696" key="38" pan="0" len="12"/>
          <note vol="170" pos="708" key="38" pan="0" len="12"/>
          <note vol="170" pos="720" key="45" pan="0" len="24"/>
          <note vol="170" pos="720" key="38" pan="0" len="24"/>
          <note vol="170" pos="720" key="0" pan="0" len="12"/>
          <note vol="170" pos="732" key="1" pan="0" len="12"/>
          <note vol="170" pos="744" key="38" pan="0" len="12"/>
          <note vol="170" pos="756" key="38" pan="0" len="12"/>
        </pattern>
        <pattern pos="29184" name="" muted="0" type="1" steps="16">
          <note vol="170" pos="0" key="47" pan="0" len="24"/>
          <note vol="170" pos="0" key="40" pan="0" len="24"/>
          <note vol="170" pos="0" key="0" pan="0" len="12"/>
          <note vol="170" pos="12" key="1" pan="0" len="12"/>
          <note vol="170" pos="24" key="40" pan="0" len="12"/>
          <note vol="170" pos="36" key="40" pan="0" len="12"/>
          <note vol="170" pos="48" key="40" pan="0" len="12"/>
          <note vol="170" pos="60" key="40" pan="0" len="12"/>
          <note vol="170" pos="72" key="47" pan="0" len="24"/>
          <note vol="170" pos="72" key="40" pan="0" len="24"/>
          <note vol="170" pos="72" key="0" pan="0" len="12"/>
          <note vol="170" pos="84" key="1" pan="0" len="12"/>
          <note vol="170" pos="96" key="40" pan="0" len="12"/>
          <note vol="170" pos="108" key="40" pan="0" len="12"/>
          <note vol="170" pos="120" key="40" pan="0" len="12"/>
          <note vol="170" pos="132" key="40" pan="0" len="12"/>
          <note vol="170" pos="144" key="47" pan="0" len="24"/>
          <note vol="170" pos="144" key="40" pan="0" len="24"/>
          <note vol="170" pos="144" key="0" pan="0" len="12"/>
          <note vol="170" pos="156" key="1" pan="0" len="12"/>
          <note vol="170" pos="168" key="40" pan="0" len="12"/>
          <note vol="170" pos="180" key="40" pan="0" len="12"/>
          <note vol="170" pos="192" key="40" pan="0" len="12"/>
          <note vol="170" pos="204" key="40" pan="0" len="12"/>
          <note vol="170" pos="216" key="47" pan="0" len="24"/>
          <note vol="170" pos="216" key="40" pan="0" len="24"/>
          <note vol="170" pos="216" key="0" pan="0" len="12"/>
          <note vol="170" pos="228" key="1" pan="0" len="12"/>
          <note vol="170" pos="240" key="40" pan="0" len="12"/>
          <note vol="170" pos="252" key="40" pan="0" len="12"/>
          <note vol="170" pos="264" key="40" pan="0" len="12"/>
          <note vol="170" pos="276" key="40" pan="0" len="12"/>
          <note vol="170" pos="288" key="43" pan="0" len="24"/>
          <note vol="170" pos="288" key="0" pan="0" len="12"/>
          <note vol="170" pos="312" key="42" pan="0" len="24"/>
          <note vol="170" pos="324" key="1" pan="0" len="24"/>
          <note vol="170" pos="336" key="40" pan="0" len="24"/>
          <note vol="170" pos="360" key="38" pan="0" len="24"/>
          <note vol="170" pos="384" key="43" pan="0" len="24"/>
          <note vol="170" pos="384" key="36" pan="0" len="24"/>
          <note vol="170" pos="384" key="0" pan="0" len="12"/>
          <note vol="170" pos="396" key="1" pan="0" len="12"/>
          <note vol="170" pos="408" key="36" pan="0" len="12"/>
          <note vol="170" pos="420" key="36" pan="0" len="12"/>
          <note vol="170" pos="432" key="36" pan="0" len="12"/>
          <note vol="170" pos="444" key="36" pan="0" len="12"/>
          <note vol="170" pos="456" key="43" pan="0" len="24"/>
          <note vol="170" pos="456" key="36" pan="0" len="24"/>
          <note vol="170" pos="456" key="0" pan="0" len="12"/>
          <note vol="170" pos="468" key="1" pan="0" len="12"/>
          <note vol="170" pos="480" key="36" pan="0" len="12"/>
          <note vol="170" pos="492" key="36" pan="0" len="12"/>
          <note vol="170" pos="504" key="36" pan="0" len="12"/>
          <note vol="170" pos="516" key="36" pan="0" len="12"/>
          <note vol="170" pos="528" key="45" pan="0" len="24"/>
          <note vol="170" pos="528" key="38" pan="0" len="24"/>
          <note vol="170" pos="528" key="0" pan="0" len="12"/>
          <note vol="170" pos="540" key="1" pan="0" len="12"/>
          <note vol="170" pos="552" key="38" pan="0" len="12"/>
          <note vol="170" pos="564" key="38" pan="0" len="12"/>
          <note vol="170" pos="576" key="38" pan="0" len="12"/>
          <note vol="170" pos="588" key="38" pan="0" len="12"/>
          <note vol="170" pos="600" key="45" pan="0" len="24"/>
          <note vol="170" pos="600" key="38" pan="0" len="24"/>
          <note vol="170" pos="600" key="0" pan="0" len="12"/>
          <note vol="170" pos="612" key="1" pan="0" len="12"/>
          <note vol="170" pos="624" key="38" pan="0" len="12"/>
          <note vol="170" pos="636" key="38" pan="0" len="12"/>
          <note vol="170" pos="648" key="38" pan="0" len="12"/>
          <note vol="170" pos="660" key="38" pan="0" len="12"/>
          <note vol="170" pos="672" key="45" pan="0" len="24"/>
          <note vol="170" pos="672" key="38" pan="0" len="24"/>
          <note vol="170" pos="672" key="0" pan="0" len="12"/>
          <note vol="170" pos="684" key="1" pan="0" len="12"/>
          <note vol="170" pos="696" key="38" pan="0" len="12"/>
          <note vol="170" pos="708" key="38" pan="0" len="12"/>
          <note vol="170" pos="720" key="45" pan="0" len="24"/>
          <note vol="170" pos="720" key="38" pan="0" len="24"/>
          <note vol="170" pos="720" key="0" pan="0" len="12"/>
          <note vol="170" pos="732" key="1" pan="0" len="12"/>
          <note vol="170" pos="744" key="38" pan="0" len="12"/>
          <note vol="170" pos="756" key="38" pan="0" len="12"/>
        </pattern>
        <pattern pos="13824" name="Rhythm Guitar" muted="0" type="1" steps="16">
          <note vol="197" pos="0" key="36" pan="0" len="12"/>
          <note vol="197" pos="0" key="0" pan="0" len="12"/>
          <note vol="197" pos="12" key="38" pan="0" len="12"/>
          <note vol="197" pos="24" key="38" pan="0" len="12"/>
          <note vol="197" pos="24" key="1" pan="0" len="12"/>
          <note vol="197" pos="36" key="38" pan="0" len="12"/>
          <note vol="197" pos="48" key="38" pan="0" len="12"/>
          <note vol="197" pos="60" key="38" pan="0" len="12"/>
          <note vol="197" pos="72" key="38" pan="0" len="12"/>
          <note vol="197" pos="84" key="38" pan="0" len="12"/>
          <note vol="197" pos="96" key="38" pan="0" len="12"/>
          <note vol="197" pos="108" key="38" pan="0" len="12"/>
          <note vol="197" pos="120" key="38" pan="0" len="12"/>
          <note vol="197" pos="132" key="38" pan="0" len="12"/>
          <note vol="197" pos="144" key="38" pan="0" len="12"/>
          <note vol="197" pos="156" key="38" pan="0" len="12"/>
          <note vol="197" pos="168" key="38" pan="0" len="12"/>
          <note vol="197" pos="180" key="38" pan="0" len="12"/>
          <note vol="197" pos="192" key="41" pan="0" len="12"/>
          <note vol="197" pos="192" key="0" pan="0" len="12"/>
          <note vol="197" pos="204" key="43" pan="0" len="12"/>
          <note vol="197" pos="216" key="43" pan="0" len="12"/>
          <note vol="197" pos="216" key="1" pan="0" len="12"/>
          <note vol="197" pos="228" key="43" pan="0" len="12"/>
          <note vol="197" pos="240" key="43" pan="0" len="12"/>
          <note vol="197" pos="252" key="43" pan="0" len="12"/>
          <note vol="197" pos="264" key="43" pan="0" len="12"/>
          <note vol="197" pos="276" key="43" pan="0" len="12"/>
          <note vol="197" pos="288" key="43" pan="0" len="12"/>
          <note vol="197" pos="300" key="43" pan="0" len="12"/>
          <note vol="197" pos="312" key="43" pan="0" len="12"/>
          <note vol="197" pos="324" key="43" pan="0" len="12"/>
          <note vol="197" pos="336" key="43" pan="0" len="12"/>
          <note vol="197" pos="348" key="43" pan="0" len="12"/>
          <note vol="197" pos="360" key="43" pan="0" len="12"/>
          <note vol="197" pos="372" key="43" pan="0" len="12"/>
        </pattern>
        <pattern pos="8832" name="" muted="0" type="1" steps="16">
          <note vol="197" pos="0" key="43" pan="0" len="24"/>
          <note vol="197" pos="0" key="36" pan="0" len="24"/>
          <note vol="157" pos="0" key="0" pan="0" len="12"/>
          <note vol="157" pos="12" key="1" pan="0" len="12"/>
          <note vol="197" pos="24" key="36" pan="0" len="12"/>
          <note vol="197" pos="36" key="36" pan="0" len="12"/>
          <note vol="157" pos="48" key="36" pan="0" len="12"/>
          <note vol="157" pos="60" key="36" pan="0" len="12"/>
          <note vol="157" pos="72" key="36" pan="0" len="12"/>
          <note vol="157" pos="84" key="36" pan="0" len="12"/>
          <note vol="157" pos="96" key="36" pan="0" len="12"/>
          <note vol="157" pos="108" key="36" pan="0" len="12"/>
          <note vol="157" pos="120" key="36" pan="0" len="12"/>
          <note vol="157" pos="132" key="36" pan="0" len="12"/>
          <note vol="157" pos="144" key="36" pan="0" len="12"/>
          <note vol="157" pos="156" key="36" pan="0" len="12"/>
          <note vol="157" pos="168" key="36" pan="0" len="12"/>
          <note vol="157" pos="180" key="36" pan="0" len="12"/>
          <note vol="157" pos="192" key="36" pan="0" len="12"/>
          <note vol="157" pos="204" key="36" pan="0" len="12"/>
          <note vol="157" pos="216" key="36" pan="0" len="12"/>
          <note vol="157" pos="228" key="36" pan="0" len="12"/>
          <note vol="157" pos="240" key="36" pan="0" len="12"/>
          <note vol="157" pos="252" key="36" pan="0" len="12"/>
          <note vol="157" pos="264" key="36" pan="0" len="12"/>
          <note vol="157" pos="276" key="36" pan="0" len="12"/>
          <note vol="157" pos="288" key="36" pan="0" len="12"/>
          <note vol="157" pos="300" key="36" pan="0" len="12"/>
          <note vol="157" pos="312" key="36" pan="0" len="12"/>
          <note vol="157" pos="324" key="36" pan="0" len="12"/>
          <note vol="157" pos="336" key="36" pan="0" len="12"/>
          <note vol="157" pos="348" key="36" pan="0" len="12"/>
          <note vol="157" pos="360" key="36" pan="0" len="12"/>
          <note vol="157" pos="372" key="36" pan="0" len="12"/>
          <note vol="197" pos="384" key="51" pan="0" len="24"/>
          <note vol="197" pos="384" key="44" pan="0" len="24"/>
          <note vol="157" pos="384" key="0" pan="0" len="12"/>
          <note vol="157" pos="396" key="1" pan="0" len="12"/>
          <note vol="157" pos="408" key="44" pan="0" len="12"/>
          <note vol="157" pos="420" key="44" pan="0" len="12"/>
          <note vol="157" pos="432" key="44" pan="0" len="12"/>
          <note vol="157" pos="444" key="44" pan="0" len="12"/>
          <note vol="157" pos="456" key="44" pan="0" len="12"/>
          <note vol="157" pos="468" key="44" pan="0" len="12"/>
          <note vol="157" pos="480" key="44" pan="0" len="12"/>
          <note vol="157" pos="492" key="44" pan="0" len="12"/>
          <note vol="157" pos="504" key="44" pan="0" len="12"/>
          <note vol="157" pos="516" key="44" pan="0" len="12"/>
          <note vol="197" pos="528" key="53" pan="0" len="24"/>
          <note vol="197" pos="528" key="46" pan="0" len="24"/>
          <note vol="157" pos="528" key="0" pan="0" len="12"/>
          <note vol="157" pos="540" key="1" pan="0" len="12"/>
          <note vol="157" pos="552" key="46" pan="0" len="12"/>
          <note vol="157" pos="564" key="46" pan="0" len="12"/>
          <note vol="157" pos="576" key="46" pan="0" len="12"/>
          <note vol="157" pos="588" key="46" pan="0" len="12"/>
          <note vol="157" pos="600" key="46" pan="0" len="12"/>
          <note vol="157" pos="612" key="46" pan="0" len="12"/>
          <note vol="157" pos="624" key="46" pan="0" len="12"/>
          <note vol="157" pos="636" key="46" pan="0" len="12"/>
          <note vol="157" pos="648" key="46" pan="0" len="12"/>
          <note vol="157" pos="660" key="46" pan="0" len="12"/>
          <note vol="157" pos="672" key="46" pan="0" len="12"/>
          <note vol="157" pos="684" key="46" pan="0" len="12"/>
          <note vol="157" pos="696" key="46" pan="0" len="12"/>
          <note vol="157" pos="708" key="46" pan="0" len="12"/>
          <note vol="157" pos="720" key="46" pan="0" len="12"/>
          <note vol="157" pos="732" key="46" pan="0" len="12"/>
          <note vol="157" pos="744" key="46" pan="0" len="12"/>
          <note vol="157" pos="756" key="46" pan="0" len="12"/>
        </pattern>
        <pattern pos="9600" name="" muted="0" type="1" steps="16">
          <note vol="197" pos="0" key="55" pan="0" len="12"/>
          <note vol="197" pos="12" key="51" pan="0" len="12"/>
          <note vol="197" pos="24" key="48" pan="0" len="12"/>
          <note vol="197" pos="36" key="51" pan="0" len="12"/>
          <note vol="197" pos="48" key="43" pan="0" len="12"/>
          <note vol="197" pos="60" key="48" pan="0" len="12"/>
          <note vol="197" pos="72" key="39" pan="0" len="12"/>
          <note vol="197" pos="84" key="43" pan="0" len="12"/>
          <note vol="197" pos="96" key="36" pan="0" len="12"/>
          <note vol="197" pos="108" key="43" pan="0" len="12"/>
          <note vol="197" pos="120" key="39" pan="0" len="12"/>
          <note vol="197" pos="132" key="43" pan="0" len="12"/>
          <note vol="197" pos="144" key="48" pan="0" len="12"/>
          <note vol="197" pos="156" key="55" pan="0" len="12"/>
          <note vol="197" pos="168" key="53" pan="0" len="12"/>
          <note vol="197" pos="180" key="51" pan="0" len="12"/>
          <note vol="197" pos="192" key="55" pan="0" len="12"/>
          <note vol="197" pos="204" key="51" pan="0" len="12"/>
          <note vol="197" pos="216" key="48" pan="0" len="12"/>
          <note vol="197" pos="228" key="51" pan="0" len="12"/>
          <note vol="197" pos="240" key="43" pan="0" len="12"/>
          <note vol="197" pos="252" key="48" pan="0" len="12"/>
          <note vol="197" pos="264" key="39" pan="0" len="12"/>
          <note vol="197" pos="276" key="43" pan="0" len="12"/>
          <note vol="197" pos="288" key="36" pan="0" len="12"/>
          <note vol="197" pos="300" key="43" pan="0" len="12"/>
          <note vol="197" pos="312" key="39" pan="0" len="12"/>
          <note vol="197" pos="324" key="43" pan="0" len="12"/>
          <note vol="197" pos="336" key="48" pan="0" len="12"/>
          <note vol="197" pos="348" key="55" pan="0" len="12"/>
          <note vol="197" pos="360" key="53" pan="0" len="12"/>
          <note vol="197" pos="372" key="51" pan="0" len="12"/>
          <note vol="197" pos="384" key="54" pan="0" len="12"/>
          <note vol="197" pos="396" key="49" pan="0" len="12"/>
          <note vol="197" pos="408" key="48" pan="0" len="12"/>
          <note vol="197" pos="420" key="49" pan="0" len="12"/>
          <note vol="197" pos="432" key="46" pan="0" len="12"/>
          <note vol="197" pos="444" key="49" pan="0" len="12"/>
          <note vol="197" pos="456" key="42" pan="0" len="12"/>
          <note vol="197" pos="468" key="49" pan="0" len="12"/>
          <note vol="197" pos="480" key="37" pan="0" len="12"/>
          <note vol="197" pos="492" key="49" pan="0" len="12"/>
          <note vol="197" pos="504" key="48" pan="0" len="12"/>
          <note vol="197" pos="516" key="46" pan="0" len="12"/>
          <note vol="197" pos="528" key="42" pan="0" len="12"/>
          <note vol="197" pos="540" key="46" pan="0" len="12"/>
          <note vol="197" pos="552" key="48" pan="0" len="12"/>
          <note vol="197" pos="564" key="53" pan="0" len="12"/>
          <note vol="197" pos="576" key="54" pan="0" len="12"/>
          <note vol="197" pos="588" key="49" pan="0" len="12"/>
          <note vol="197" pos="600" key="48" pan="0" len="12"/>
          <note vol="197" pos="612" key="49" pan="0" len="12"/>
          <note vol="197" pos="624" key="46" pan="0" len="12"/>
          <note vol="197" pos="636" key="49" pan="0" len="12"/>
          <note vol="197" pos="648" key="37" pan="0" len="12"/>
          <note vol="197" pos="660" key="49" pan="0" len="12"/>
          <note vol="197" pos="672" key="42" pan="0" len="12"/>
          <note vol="197" pos="684" key="49" pan="0" len="12"/>
          <note vol="197" pos="696" key="48" pan="0" len="12"/>
          <note vol="197" pos="708" key="49" pan="0" len="12"/>
          <note vol="197" pos="720" key="54" pan="0" len="12"/>
          <note vol="197" pos="732" key="58" pan="0" len="12"/>
          <note vol="197" pos="744" key="60" pan="0" len="12"/>
          <note vol="197" pos="756" key="61" pan="0" len="12"/>
          <note vol="197" pos="768" key="55" pan="0" len="12"/>
          <note vol="197" pos="780" key="51" pan="0" len="12"/>
          <note vol="197" pos="792" key="48" pan="0" len="12"/>
          <note vol="197" pos="804" key="51" pan="0" len="12"/>
          <note vol="197" pos="816" key="43" pan="0" len="12"/>
          <note vol="197" pos="828" key="48" pan="0" len="12"/>
          <note vol="197" pos="840" key="39" pan="0" len="12"/>
          <note vol="197" pos="852" key="43" pan="0" len="12"/>
          <note vol="197" pos="864" key="36" pan="0" len="12"/>
          <note vol="197" pos="876" key="43" pan="0" len="12"/>
          <note vol="197" pos="888" key="39" pan="0" len="12"/>
          <note vol="197" pos="900" key="43" pan="0" len="12"/>
          <note vol="197" pos="912" key="48" pan="0" len="12"/>
          <note vol="197" pos="924" key="55" pan="0" len="12"/>
          <note vol="197" pos="936" key="53" pan="0" len="12"/>
          <note vol="197" pos="948" key="51" pan="0" len="12"/>
          <note vol="197" pos="960" key="55" pan="0" len="12"/>
          <note vol="197" pos="972" key="51" pan="0" len="12"/>
          <note vol="197" pos="984" key="48" pan="0" len="12"/>
          <note vol="197" pos="996" key="51" pan="0" len="12"/>
          <note vol="197" pos="1008" key="43" pan="0" len="12"/>
          <note vol="197" pos="1020" key="48" pan="0" len="12"/>
          <note vol="197" pos="1032" key="39" pan="0" len="12"/>
          <note vol="197" pos="1044" key="43" pan="0" len="12"/>
          <note vol="197" pos="1056" key="36" pan="0" len="12"/>
          <note vol="197" pos="1068" key="43" pan="0" len="12"/>
          <note vol="197" pos="1080" key="39" pan="0" len="12"/>
          <note vol="197" pos="1092" key="43" pan="0" len="12"/>
          <note vol="197" pos="1104" key="48" pan="0" len="12"/>
          <note vol="197" pos="1116" key="55" pan="0" len="12"/>
          <note vol="197" pos="1128" key="53" pan="0" len="12"/>
          <note vol="197" pos="1140" key="51" pan="0" len="12"/>
        </pattern>
        <pattern pos="10752" name="Rhythm Guitar" muted="0" type="1" steps="16">
          <note vol="197" pos="0" key="49" pan="0" len="192"/>
          <note vol="197" pos="0" key="42" pan="0" len="192"/>
          <note vol="197" pos="0" key="0" pan="0" len="192"/>
          <note vol="197" pos="192" key="49" pan="0" len="192"/>
          <note vol="197" pos="192" key="42" pan="0" len="192"/>
        </pattern>
        <pattern pos="17280" name="Rhythm Guitar" muted="0" type="1" steps="16">
          <note vol="170" pos="0" key="45" pan="0" len="24"/>
          <note vol="170" pos="0" key="38" pan="0" len="24"/>
          <note vol="170" pos="0" key="0" pan="0" len="24"/>
          <note vol="170" pos="24" key="38" pan="0" len="12"/>
          <note vol="170" pos="24" key="1" pan="0" len="24"/>
          <note vol="170" pos="36" key="38" pan="0" len="12"/>
          <note vol="170" pos="48" key="38" pan="0" len="12"/>
          <note vol="170" pos="60" key="38" pan="0" len="12"/>
          <note vol="170" pos="72" key="38" pan="0" len="12"/>
          <note vol="170" pos="84" key="38" pan="0" len="12"/>
          <note vol="170" pos="96" key="38" pan="0" len="12"/>
          <note vol="170" pos="108" key="38" pan="0" len="12"/>
          <note vol="170" pos="120" key="38" pan="0" len="12"/>
          <note vol="170" pos="132" key="38" pan="0" len="12"/>
          <note vol="170" pos="144" key="38" pan="0" len="12"/>
          <note vol="170" pos="156" key="38" pan="0" len="12"/>
          <note vol="170" pos="168" key="38" pan="0" len="12"/>
          <note vol="170" pos="180" key="38" pan="0" len="12"/>
        </pattern>
        <pattern pos="17472" name="" muted="0" type="1" steps="16">
          <note vol="170" pos="0" key="43" pan="0" len="24"/>
          <note vol="170" pos="0" key="36" pan="0" len="24"/>
          <note vol="170" pos="0" key="0" pan="0" len="24"/>
          <note vol="170" pos="24" key="36" pan="0" len="12"/>
          <note vol="170" pos="24" key="1" pan="0" len="24"/>
          <note vol="170" pos="36" key="36" pan="0" len="12"/>
          <note vol="170" pos="48" key="36" pan="0" len="12"/>
          <note vol="170" pos="60" key="36" pan="0" len="12"/>
          <note vol="170" pos="72" key="53" pan="0" len="48"/>
          <note vol="170" pos="72" key="46" pan="0" len="48"/>
          <note vol="170" pos="72" key="0" pan="0" len="24"/>
          <note vol="170" pos="120" key="46" pan="0" len="12"/>
          <note vol="170" pos="132" key="46" pan="0" len="12"/>
          <note vol="170" pos="144" key="46" pan="0" len="12"/>
          <note vol="170" pos="156" key="46" pan="0" len="12"/>
          <note vol="170" pos="168" key="46" pan="0" len="12"/>
          <note vol="170" pos="180" key="46" pan="0" len="12"/>
        </pattern>
        <pattern pos="17664" name="" muted="0" type="1" steps="16">
          <note vol="170" pos="0" key="48" pan="0" len="24"/>
          <note vol="170" pos="0" key="41" pan="0" len="24"/>
          <note vol="170" pos="0" key="0" pan="0" len="24"/>
          <note vol="170" pos="24" key="41" pan="0" len="12"/>
          <note vol="170" pos="24" key="1" pan="0" len="24"/>
          <note vol="170" pos="36" key="41" pan="0" len="12"/>
          <note vol="170" pos="48" key="41" pan="0" len="12"/>
          <note vol="170" pos="60" key="41" pan="0" len="12"/>
          <note vol="170" pos="72" key="41" pan="0" len="12"/>
          <note vol="170" pos="84" key="41" pan="0" len="12"/>
          <note vol="170" pos="96" key="41" pan="0" len="12"/>
          <note vol="170" pos="108" key="41" pan="0" len="12"/>
          <note vol="170" pos="120" key="41" pan="0" len="12"/>
          <note vol="170" pos="132" key="41" pan="0" len="12"/>
          <note vol="170" pos="144" key="41" pan="0" len="12"/>
          <note vol="170" pos="156" key="41" pan="0" len="12"/>
          <note vol="170" pos="168" key="41" pan="0" len="12"/>
          <note vol="170" pos="180" key="41" pan="0" len="12"/>
        </pattern>
        <pattern pos="17856" name="" muted="0" type="1" steps="16">
          <note vol="170" pos="0" key="50" pan="0" len="24"/>
          <note vol="170" pos="0" key="43" pan="0" len="24"/>
          <note vol="170" pos="0" key="0" pan="0" len="24"/>
          <note vol="170" pos="24" key="43" pan="0" len="12"/>
          <note vol="170" pos="24" key="1" pan="0" len="24"/>
          <note vol="170" pos="36" key="43" pan="0" len="12"/>
          <note vol="170" pos="48" key="43" pan="0" len="12"/>
          <note vol="170" pos="60" key="43" pan="0" len="12"/>
          <note vol="170" pos="72" key="45" pan="0" len="48"/>
          <note vol="170" pos="72" key="38" pan="0" len="48"/>
          <note vol="170" pos="72" key="0" pan="0" len="24"/>
          <note vol="170" pos="120" key="41" pan="0" len="24"/>
          <note vol="170" pos="120" key="1" pan="0" len="24"/>
          <note vol="170" pos="144" key="40" pan="0" len="24"/>
          <note vol="170" pos="168" key="38" pan="0" len="24"/>
        </pattern>
        <pattern pos="18048" name="" muted="0" type="1" steps="16">
          <note vol="170" pos="0" key="45" pan="0" len="24"/>
          <note vol="170" pos="0" key="38" pan="0" len="24"/>
          <note vol="170" pos="0" key="0" pan="0" len="24"/>
          <note vol="170" pos="24" key="38" pan="0" len="12"/>
          <note vol="170" pos="24" key="1" pan="0" len="24"/>
          <note vol="170" pos="36" key="38" pan="0" len="12"/>
          <note vol="170" pos="48" key="38" pan="0" len="12"/>
          <note vol="170" pos="60" key="38" pan="0" len="12"/>
          <note vol="170" pos="72" key="38" pan="0" len="12"/>
          <note vol="170" pos="84" key="38" pan="0" len="12"/>
          <note vol="170" pos="96" key="38" pan="0" len="12"/>
          <note vol="170" pos="108" key="38" pan="0" len="12"/>
          <note vol="170" pos="120" key="38" pan="0" len="12"/>
          <note vol="170" pos="132" key="38" pan="0" len="12"/>
          <note vol="170" pos="144" key="38" pan="0" len="12"/>
          <note vol="170" pos="156" key="38" pan="0" len="12"/>
          <note vol="170" pos="168" key="38" pan="0" len="12"/>
          <note vol="170" pos="180" key="38" pan="0" len="12"/>
        </pattern>
        <pattern pos="18240" name="" muted="0" type="1" steps="16">
          <note vol="170" pos="0" key="43" pan="0" len="24"/>
          <note vol="170" pos="0" key="36" pan="0" len="24"/>
          <note vol="170" pos="0" key="0" pan="0" len="24"/>
          <note vol="170" pos="24" key="36" pan="0" len="12"/>
          <note vol="170" pos="24" key="1" pan="0" len="24"/>
          <note vol="170" pos="36" key="36" pan="0" len="12"/>
          <note vol="170" pos="48" key="36" pan="0" len="12"/>
          <note vol="170" pos="60" key="36" pan="0" len="12"/>
          <note vol="170" pos="72" key="53" pan="0" len="48"/>
          <note vol="170" pos="72" key="46" pan="0" len="48"/>
          <note vol="170" pos="72" key="0" pan="0" len="24"/>
          <note vol="170" pos="120" key="46" pan="0" len="12"/>
          <note vol="170" pos="132" key="46" pan="0" len="12"/>
          <note vol="170" pos="144" key="46" pan="0" len="12"/>
          <note vol="170" pos="156" key="46" pan="0" len="12"/>
          <note vol="170" pos="168" key="46" pan="0" len="12"/>
          <note vol="170" pos="180" key="46" pan="0" len="12"/>
        </pattern>
        <pattern pos="18432" name="" muted="0" type="1" steps="16">
          <note vol="170" pos="0" key="48" pan="0" len="24"/>
          <note vol="170" pos="0" key="41" pan="0" len="24"/>
          <note vol="170" pos="0" key="0" pan="0" len="24"/>
          <note vol="170" pos="24" key="41" pan="0" len="12"/>
          <note vol="170" pos="24" key="1" pan="0" len="24"/>
          <note vol="170" pos="36" key="41" pan="0" len="12"/>
          <note vol="170" pos="48" key="41" pan="0" len="12"/>
          <note vol="170" pos="60" key="41" pan="0" len="12"/>
          <note vol="170" pos="72" key="41" pan="0" len="12"/>
          <note vol="170" pos="84" key="41" pan="0" len="12"/>
          <note vol="170" pos="96" key="41" pan="0" len="12"/>
          <note vol="170" pos="108" key="41" pan="0" len="12"/>
          <note vol="170" pos="120" key="41" pan="0" len="12"/>
          <note vol="170" pos="132" key="41" pan="0" len="12"/>
          <note vol="170" pos="144" key="41" pan="0" len="12"/>
          <note vol="170" pos="156" key="41" pan="0" len="12"/>
          <note vol="170" pos="168" key="41" pan="0" len="12"/>
          <note vol="170" pos="180" key="41" pan="0" len="12"/>
        </pattern>
        <pattern pos="18624" name="" muted="0" type="1" steps="16">
          <note vol="170" pos="0" key="50" pan="0" len="24"/>
          <note vol="170" pos="0" key="43" pan="0" len="24"/>
          <note vol="170" pos="0" key="0" pan="0" len="24"/>
          <note vol="170" pos="24" key="43" pan="0" len="12"/>
          <note vol="170" pos="24" key="1" pan="0" len="24"/>
          <note vol="170" pos="36" key="43" pan="0" len="12"/>
          <note vol="170" pos="48" key="43" pan="0" len="12"/>
          <note vol="170" pos="60" key="43" pan="0" len="12"/>
          <note vol="170" pos="72" key="45" pan="0" len="48"/>
          <note vol="170" pos="72" key="38" pan="0" len="48"/>
          <note vol="170" pos="72" key="0" pan="0" len="24"/>
          <note vol="170" pos="120" key="41" pan="0" len="24"/>
          <note vol="170" pos="120" key="1" pan="0" len="24"/>
          <note vol="170" pos="144" key="40" pan="0" len="24"/>
          <note vol="170" pos="168" key="38" pan="0" len="24"/>
        </pattern>
        <pattern pos="18816" name="" muted="0" type="1" steps="16">
          <note vol="170" pos="0" key="45" pan="0" len="24"/>
          <note vol="170" pos="0" key="38" pan="0" len="24"/>
          <note vol="170" pos="0" key="0" pan="0" len="24"/>
          <note vol="170" pos="24" key="38" pan="0" len="12"/>
          <note vol="170" pos="24" key="1" pan="0" len="24"/>
          <note vol="170" pos="36" key="38" pan="0" len="12"/>
          <note vol="170" pos="48" key="38" pan="0" len="12"/>
          <note vol="170" pos="60" key="38" pan="0" len="12"/>
          <note vol="170" pos="72" key="38" pan="0" len="12"/>
          <note vol="170" pos="84" key="38" pan="0" len="12"/>
          <note vol="170" pos="96" key="38" pan="0" len="12"/>
          <note vol="170" pos="108" key="38" pan="0" len="12"/>
          <note vol="170" pos="120" key="38" pan="0" len="12"/>
          <note vol="170" pos="132" key="38" pan="0" len="12"/>
          <note vol="170" pos="144" key="38" pan="0" len="12"/>
          <note vol="170" pos="156" key="38" pan="0" len="12"/>
          <note vol="170" pos="168" key="38" pan="0" len="12"/>
          <note vol="170" pos="180" key="38" pan="0" len="12"/>
        </pattern>
        <pattern pos="19008" name="" muted="0" type="1" steps="16">
          <note vol="170" pos="0" key="43" pan="0" len="24"/>
          <note vol="170" pos="0" key="36" pan="0" len="24"/>
          <note vol="170" pos="0" key="0" pan="0" len="24"/>
          <note vol="170" pos="24" key="36" pan="0" len="12"/>
          <note vol="170" pos="24" key="1" pan="0" len="24"/>
          <note vol="170" pos="36" key="36" pan="0" len="12"/>
          <note vol="170" pos="48" key="36" pan="0" len="12"/>
          <note vol="170" pos="60" key="36" pan="0" len="12"/>
          <note vol="170" pos="72" key="53" pan="0" len="48"/>
          <note vol="170" pos="72" key="46" pan="0" len="48"/>
          <note vol="170" pos="72" key="0" pan="0" len="24"/>
          <note vol="170" pos="120" key="46" pan="0" len="12"/>
          <note vol="170" pos="132" key="46" pan="0" len="12"/>
          <note vol="170" pos="144" key="46" pan="0" len="12"/>
          <note vol="170" pos="156" key="46" pan="0" len="12"/>
          <note vol="170" pos="168" key="46" pan="0" len="12"/>
          <note vol="170" pos="180" key="46" pan="0" len="12"/>
        </pattern>
        <pattern pos="19200" name="" muted="0" type="1" steps="16">
          <note vol="170" pos="0" key="48" pan="0" len="24"/>
          <note vol="170" pos="0" key="41" pan="0" len="24"/>
          <note vol="170" pos="0" key="0" pan="0" len="24"/>
          <note vol="170" pos="24" key="41" pan="0" len="12"/>
          <note vol="170" pos="24" key="1" pan="0" len="24"/>
          <note vol="170" pos="36" key="41" pan="0" len="12"/>
          <note vol="170" pos="48" key="41" pan="0" len="12"/>
          <note vol="170" pos="60" key="41" pan="0" len="12"/>
          <note vol="170" pos="72" key="41" pan="0" len="12"/>
          <note vol="170" pos="84" key="41" pan="0" len="12"/>
          <note vol="170" pos="96" key="41" pan="0" len="12"/>
          <note vol="170" pos="108" key="41" pan="0" len="12"/>
          <note vol="170" pos="120" key="41" pan="0" len="12"/>
          <note vol="170" pos="132" key="41" pan="0" len="12"/>
          <note vol="170" pos="144" key="41" pan="0" len="12"/>
          <note vol="170" pos="156" key="41" pan="0" len="12"/>
          <note vol="170" pos="168" key="41" pan="0" len="12"/>
          <note vol="170" pos="180" key="41" pan="0" len="12"/>
        </pattern>
        <pattern pos="19392" name="" muted="0" type="1" steps="16">
          <note vol="170" pos="0" key="50" pan="0" len="24"/>
          <note vol="170" pos="0" key="43" pan="0" len="24"/>
          <note vol="170" pos="0" key="0" pan="0" len="24"/>
          <note vol="170" pos="24" key="43" pan="0" len="12"/>
          <note vol="170" pos="24" key="1" pan="0" len="24"/>
          <note vol="170" pos="36" key="43" pan="0" len="12"/>
          <note vol="170" pos="48" key="43" pan="0" len="12"/>
          <note vol="170" pos="60" key="43" pan="0" len="12"/>
          <note vol="170" pos="72" key="45" pan="0" len="48"/>
          <note vol="170" pos="72" key="38" pan="0" len="48"/>
          <note vol="170" pos="72" key="0" pan="0" len="24"/>
          <note vol="170" pos="120" key="41" pan="0" len="24"/>
          <note vol="170" pos="120" key="1" pan="0" len="24"/>
          <note vol="170" pos="144" key="40" pan="0" len="24"/>
          <note vol="170" pos="168" key="38" pan="0" len="24"/>
        </pattern>
        <pattern pos="19584" name="" muted="0" type="1" steps="16">
          <note vol="170" pos="0" key="45" pan="0" len="24"/>
          <note vol="170" pos="0" key="38" pan="0" len="24"/>
          <note vol="170" pos="0" key="0" pan="0" len="24"/>
          <note vol="170" pos="24" key="38" pan="0" len="12"/>
          <note vol="170" pos="24" key="1" pan="0" len="24"/>
          <note vol="170" pos="36" key="38" pan="0" len="12"/>
          <note vol="170" pos="48" key="38" pan="0" len="12"/>
          <note vol="170" pos="60" key="38" pan="0" len="12"/>
          <note vol="170" pos="72" key="38" pan="0" len="12"/>
          <note vol="170" pos="84" key="38" pan="0" len="12"/>
          <note vol="170" pos="96" key="38" pan="0" len="12"/>
          <note vol="170" pos="108" key="38" pan="0" len="12"/>
          <note vol="170" pos="120" key="38" pan="0" len="12"/>
          <note vol="170" pos="132" key="38" pan="0" len="12"/>
          <note vol="170" pos="144" key="38" pan="0" len="12"/>
          <note vol="170" pos="156" key="38" pan="0" len="12"/>
          <note vol="170" pos="168" key="38" pan="0" len="12"/>
          <note vol="170" pos="180" key="38" pan="0" len="12"/>
        </pattern>
        <pattern pos="19776" name="" muted="0" type="1" steps="16">
          <note vol="170" pos="0" key="43" pan="0" len="24"/>
          <note vol="170" pos="0" key="36" pan="0" len="24"/>
          <note vol="170" pos="0" key="0" pan="0" len="24"/>
          <note vol="170" pos="24" key="36" pan="0" len="12"/>
          <note vol="170" pos="24" key="1" pan="0" len="24"/>
          <note vol="170" pos="36" key="36" pan="0" len="12"/>
          <note vol="170" pos="48" key="36" pan="0" len="12"/>
          <note vol="170" pos="60" key="36" pan="0" len="12"/>
          <note vol="170" pos="72" key="53" pan="0" len="48"/>
          <note vol="170" pos="72" key="46" pan="0" len="48"/>
          <note vol="170" pos="72" key="0" pan="0" len="24"/>
          <note vol="170" pos="120" key="46" pan="0" len="12"/>
          <note vol="170" pos="132" key="46" pan="0" len="12"/>
          <note vol="170" pos="144" key="46" pan="0" len="12"/>
          <note vol="170" pos="156" key="46" pan="0" len="12"/>
          <note vol="170" pos="168" key="46" pan="0" len="12"/>
          <note vol="170" pos="180" key="46" pan="0" len="12"/>
        </pattern>
        <pattern pos="19968" name="" muted="0" type="1" steps="16">
          <note vol="170" pos="0" key="48" pan="0" len="24"/>
          <note vol="170" pos="0" key="41" pan="0" len="24"/>
          <note vol="170" pos="0" key="0" pan="0" len="24"/>
          <note vol="170" pos="24" key="41" pan="0" len="12"/>
          <note vol="170" pos="24" key="1" pan="0" len="24"/>
          <note vol="170" pos="36" key="41" pan="0" len="12"/>
          <note vol="170" pos="48" key="41" pan="0" len="12"/>
          <note vol="170" pos="60" key="41" pan="0" len="12"/>
          <note vol="170" pos="72" key="41" pan="0" len="12"/>
          <note vol="170" pos="84" key="41" pan="0" len="12"/>
          <note vol="170" pos="96" key="41" pan="0" len="12"/>
          <note vol="170" pos="108" key="41" pan="0" len="12"/>
          <note vol="170" pos="120" key="41" pan="0" len="12"/>
          <note vol="170" pos="132" key="41" pan="0" len="12"/>
          <note vol="170" pos="144" key="41" pan="0" len="12"/>
          <note vol="170" pos="156" key="41" pan="0" len="12"/>
          <note vol="170" pos="168" key="41" pan="0" len="12"/>
          <note vol="170" pos="180" key="41" pan="0" len="12"/>
        </pattern>
        <pattern pos="20160" name="" muted="0" type="1" steps="16">
          <note vol="170" pos="0" key="50" pan="0" len="24"/>
          <note vol="170" pos="0" key="43" pan="0" len="24"/>
          <note vol="170" pos="0" key="0" pan="0" len="24"/>
          <note vol="170" pos="24" key="43" pan="0" len="12"/>
          <note vol="170" pos="24" key="1" pan="0" len="24"/>
          <note vol="170" pos="36" key="43" pan="0" len="12"/>
          <note vol="170" pos="48" key="43" pan="0" len="12"/>
          <note vol="170" pos="60" key="43" pan="0" len="12"/>
          <note vol="170" pos="72" key="45" pan="0" len="48"/>
          <note vol="170" pos="72" key="38" pan="0" len="48"/>
          <note vol="170" pos="72" key="0" pan="0" len="24"/>
          <note vol="170" pos="120" key="41" pan="0" len="24"/>
          <note vol="170" pos="120" key="1" pan="0" len="24"/>
          <note vol="170" pos="144" key="40" pan="0" len="24"/>
          <note vol="170" pos="168" key="38" pan="0" len="24"/>
        </pattern>
        <pattern pos="7296" name="" muted="0" type="1" steps="16">
          <note vol="193" pos="0" key="36" pan="0" len="36"/>
          <note vol="151" pos="0" key="1" pan="0" len="24"/>
          <note vol="193" pos="36" key="36" pan="0" len="36"/>
          <note vol="193" pos="72" key="36" pan="0" len="36"/>
          <note vol="193" pos="108" key="36" pan="0" len="36"/>
          <note vol="193" pos="144" key="36" pan="0" len="36"/>
          <note vol="193" pos="180" key="36" pan="0" len="36"/>
          <note vol="193" pos="216" key="36" pan="0" len="36"/>
          <note vol="193" pos="252" key="36" pan="0" len="36"/>
          <note vol="193" pos="288" key="39" pan="0" len="24"/>
          <note vol="151" pos="288" key="0" pan="0" len="24"/>
          <note vol="193" pos="312" key="36" pan="0" len="24"/>
          <note vol="193" pos="336" key="36" pan="0" len="12"/>
          <note vol="151" pos="336" key="1" pan="0" len="24"/>
          <note vol="193" pos="348" key="36" pan="0" len="12"/>
          <note vol="193" pos="360" key="36" pan="0" len="12"/>
          <note vol="193" pos="372" key="36" pan="0" len="12"/>
        </pattern>
        <pattern pos="7680" name="" muted="0" type="1" steps="16">
          <note vol="193" pos="0" key="44" pan="0" len="36"/>
          <note vol="151" pos="0" key="1" pan="0" len="24"/>
          <note vol="193" pos="36" key="44" pan="0" len="36"/>
          <note vol="193" pos="72" key="44" pan="0" len="36"/>
          <note vol="193" pos="108" key="44" pan="0" len="36"/>
          <note vol="193" pos="144" key="46" pan="0" len="36"/>
          <note vol="193" pos="180" key="46" pan="0" len="36"/>
          <note vol="193" pos="216" key="46" pan="0" len="36"/>
          <note vol="193" pos="252" key="46" pan="0" len="36"/>
          <note vol="193" pos="288" key="53" pan="0" len="24"/>
          <note vol="151" pos="288" key="0" pan="0" len="24"/>
          <note vol="193" pos="312" key="46" pan="0" len="24"/>
          <note vol="193" pos="336" key="46" pan="0" len="12"/>
          <note vol="151" pos="336" key="1" pan="0" len="24"/>
          <note vol="193" pos="348" key="46" pan="0" len="12"/>
          <note vol="193" pos="360" key="46" pan="0" len="12"/>
          <note vol="193" pos="372" key="46" pan="0" len="12"/>
        </pattern>
        <pattern pos="20736" name="" muted="0" type="1" steps="16">
          <note vol="157" pos="0" key="43" pan="0" len="192"/>
          <note vol="157" pos="0" key="36" pan="0" len="192"/>
          <note vol="157" pos="0" key="0" pan="0" len="192"/>
          <note vol="157" pos="192" key="46" pan="0" len="96"/>
          <note vol="157" pos="192" key="39" pan="0" len="96"/>
          <note vol="157" pos="288" key="48" pan="0" len="96"/>
          <note vol="157" pos="288" key="41" pan="0" len="96"/>
          <note vol="132" pos="384" key="48" pan="0" len="12"/>
          <note vol="157" pos="384" key="0" pan="0" len="12"/>
          <note vol="132" pos="396" key="36" pan="0" len="12"/>
          <note vol="157" pos="396" key="1" pan="0" len="12"/>
          <note vol="132" pos="408" key="36" pan="0" len="12"/>
          <note vol="132" pos="420" key="43" pan="0" len="12"/>
          <note vol="157" pos="420" key="0" pan="0" len="12"/>
          <note vol="132" pos="432" key="36" pan="0" len="12"/>
          <note vol="157" pos="432" key="1" pan="0" len="12"/>
          <note vol="132" pos="444" key="36" pan="0" len="12"/>
          <note vol="132" pos="456" key="46" pan="0" len="12"/>
          <note vol="157" pos="456" key="0" pan="0" len="12"/>
          <note vol="132" pos="468" key="36" pan="0" len="12"/>
          <note vol="132" pos="468" key="1" pan="0" len="12"/>
          <note vol="132" pos="480" key="36" pan="0" len="12"/>
          <note vol="132" pos="492" key="41" pan="0" len="12"/>
          <note vol="132" pos="492" key="0" pan="0" len="12"/>
          <note vol="132" pos="504" key="36" pan="0" len="12"/>
          <note vol="132" pos="504" key="1" pan="0" len="12"/>
          <note vol="132" pos="516" key="36" pan="0" len="12"/>
          <note vol="132" pos="528" key="39" pan="0" len="12"/>
          <note vol="132" pos="528" key="0" pan="0" len="12"/>
          <note vol="132" pos="540" key="36" pan="0" len="12"/>
          <note vol="132" pos="540" key="1" pan="0" len="12"/>
          <note vol="132" pos="552" key="36" pan="0" len="12"/>
          <note vol="132" pos="564" key="36" pan="0" len="12"/>
          <note vol="132" pos="576" key="48" pan="0" len="12"/>
          <note vol="132" pos="576" key="0" pan="0" len="12"/>
          <note vol="132" pos="588" key="36" pan="0" len="12"/>
          <note vol="132" pos="588" key="1" pan="0" len="12"/>
          <note vol="132" pos="600" key="36" pan="0" len="12"/>
          <note vol="132" pos="612" key="43" pan="0" len="12"/>
          <note vol="132" pos="612" key="0" pan="0" len="12"/>
          <note vol="132" pos="624" key="36" pan="0" len="12"/>
          <note vol="132" pos="624" key="1" pan="0" len="12"/>
          <note vol="132" pos="636" key="36" pan="0" len="12"/>
          <note vol="132" pos="648" key="46" pan="0" len="12"/>
          <note vol="132" pos="648" key="0" pan="0" len="12"/>
          <note vol="132" pos="660" key="36" pan="0" len="12"/>
          <note vol="132" pos="660" key="1" pan="0" len="12"/>
          <note vol="132" pos="672" key="36" pan="0" len="12"/>
          <note vol="132" pos="684" key="41" pan="0" len="12"/>
          <note vol="132" pos="684" key="0" pan="0" len="12"/>
          <note vol="132" pos="696" key="36" pan="0" len="12"/>
          <note vol="132" pos="696" key="1" pan="0" len="12"/>
          <note vol="132" pos="708" key="36" pan="0" len="12"/>
          <note vol="144" pos="720" key="48" pan="0" len="24"/>
          <note vol="132" pos="720" key="0" pan="0" len="12"/>
          <note vol="144" pos="744" key="50" pan="0" len="24"/>
        </pattern>
        <pattern pos="23040" name="" muted="0" type="1" steps="16">
          <note vol="157" pos="0" key="48" pan="0" len="192"/>
          <note vol="157" pos="0" key="41" pan="0" len="192"/>
          <note vol="157" pos="0" key="0" pan="0" len="192"/>
          <note vol="157" pos="192" key="53" pan="0" len="192"/>
          <note vol="157" pos="192" key="46" pan="0" len="192"/>
          <note vol="132" pos="384" key="39" pan="0" len="12"/>
          <note vol="157" pos="384" key="1" pan="0" len="12"/>
          <note vol="132" pos="396" key="39" pan="0" len="12"/>
          <note vol="132" pos="408" key="39" pan="0" len="12"/>
          <note vol="132" pos="420" key="39" pan="0" len="12"/>
          <note vol="132" pos="432" key="39" pan="0" len="12"/>
          <note vol="132" pos="444" key="39" pan="0" len="12"/>
          <note vol="132" pos="456" key="39" pan="0" len="12"/>
          <note vol="132" pos="468" key="39" pan="0" len="12"/>
          <note vol="132" pos="480" key="39" pan="0" len="12"/>
          <note vol="132" pos="492" key="39" pan="0" len="12"/>
          <note vol="132" pos="504" key="39" pan="0" len="12"/>
          <note vol="132" pos="516" key="39" pan="0" len="12"/>
          <note vol="132" pos="528" key="39" pan="0" len="12"/>
          <note vol="132" pos="540" key="39" pan="0" len="12"/>
          <note vol="132" pos="552" key="39" pan="0" len="12"/>
          <note vol="132" pos="564" key="39" pan="0" len="12"/>
          <note vol="132" pos="576" key="43" pan="0" len="12"/>
          <note vol="132" pos="588" key="43" pan="0" len="12"/>
          <note vol="132" pos="600" key="43" pan="0" len="12"/>
          <note vol="132" pos="612" key="43" pan="0" len="12"/>
          <note vol="132" pos="624" key="43" pan="0" len="12"/>
          <note vol="132" pos="636" key="43" pan="0" len="12"/>
          <note vol="132" pos="648" key="43" pan="0" len="12"/>
          <note vol="132" pos="660" key="43" pan="0" len="12"/>
          <note vol="132" pos="672" key="47" pan="0" len="12"/>
          <note vol="132" pos="684" key="47" pan="0" len="12"/>
          <note vol="132" pos="696" key="47" pan="0" len="12"/>
          <note vol="132" pos="708" key="47" pan="0" len="12"/>
          <note vol="132" pos="720" key="50" pan="0" len="12"/>
          <note vol="132" pos="720" key="0" pan="0" len="12"/>
          <note vol="132" pos="732" key="48" pan="0" len="12"/>
          <note vol="132" pos="744" key="47" pan="0" len="12"/>
          <note vol="132" pos="744" key="1" pan="0" len="12"/>
          <note vol="132" pos="756" key="43" pan="0" len="12"/>
          <note vol="176" pos="768" key="43" pan="0" len="264"/>
          <note vol="176" pos="768" key="36" pan="0" len="264"/>
          <note vol="176" pos="768" key="0" pan="0" len="264"/>
        </pattern>
        <pattern pos="21504" name="" muted="0" type="1" steps="16">
          <note vol="157" pos="0" key="48" pan="0" len="192"/>
          <note vol="157" pos="0" key="41" pan="0" len="192"/>
          <note vol="157" pos="0" key="0" pan="0" len="192"/>
          <note vol="157" pos="192" key="53" pan="0" len="192"/>
          <note vol="157" pos="192" key="46" pan="0" len="192"/>
          <note vol="132" pos="384" key="48" pan="0" len="12"/>
          <note vol="157" pos="384" key="0" pan="0" len="12"/>
          <note vol="132" pos="396" key="36" pan="0" len="12"/>
          <note vol="157" pos="396" key="1" pan="0" len="12"/>
          <note vol="132" pos="408" key="36" pan="0" len="12"/>
          <note vol="132" pos="420" key="43" pan="0" len="12"/>
          <note vol="157" pos="420" key="0" pan="0" len="12"/>
          <note vol="132" pos="432" key="36" pan="0" len="12"/>
          <note vol="157" pos="432" key="1" pan="0" len="12"/>
          <note vol="132" pos="444" key="36" pan="0" len="12"/>
          <note vol="132" pos="456" key="46" pan="0" len="12"/>
          <note vol="157" pos="456" key="0" pan="0" len="12"/>
          <note vol="132" pos="468" key="36" pan="0" len="12"/>
          <note vol="132" pos="468" key="1" pan="0" len="12"/>
          <note vol="132" pos="480" key="36" pan="0" len="12"/>
          <note vol="132" pos="492" key="41" pan="0" len="12"/>
          <note vol="132" pos="492" key="0" pan="0" len="12"/>
          <note vol="132" pos="504" key="36" pan="0" len="12"/>
          <note vol="132" pos="504" key="1" pan="0" len="12"/>
          <note vol="132" pos="516" key="36" pan="0" len="12"/>
          <note vol="132" pos="528" key="39" pan="0" len="12"/>
          <note vol="132" pos="528" key="0" pan="0" len="12"/>
          <note vol="132" pos="540" key="36" pan="0" len="12"/>
          <note vol="132" pos="552" key="36" pan="0" len="12"/>
          <note vol="132" pos="552" key="1" pan="0" len="12"/>
          <note vol="132" pos="564" key="36" pan="0" len="12"/>
          <note vol="132" pos="576" key="48" pan="0" len="12"/>
          <note vol="132" pos="576" key="0" pan="0" len="12"/>
          <note vol="132" pos="588" key="36" pan="0" len="12"/>
          <note vol="132" pos="588" key="1" pan="0" len="12"/>
          <note vol="132" pos="600" key="36" pan="0" len="12"/>
          <note vol="132" pos="612" key="43" pan="0" len="12"/>
          <note vol="132" pos="612" key="0" pan="0" len="12"/>
          <note vol="132" pos="624" key="36" pan="0" len="12"/>
          <note vol="132" pos="624" key="1" pan="0" len="12"/>
          <note vol="132" pos="636" key="36" pan="0" len="12"/>
          <note vol="132" pos="648" key="46" pan="0" len="12"/>
          <note vol="132" pos="648" key="0" pan="0" len="12"/>
          <note vol="132" pos="660" key="36" pan="0" len="12"/>
          <note vol="132" pos="660" key="1" pan="0" len="12"/>
          <note vol="132" pos="672" key="36" pan="0" len="12"/>
          <note vol="132" pos="684" key="41" pan="0" len="12"/>
          <note vol="132" pos="684" key="0" pan="0" len="12"/>
          <note vol="132" pos="696" key="36" pan="0" len="12"/>
          <note vol="132" pos="696" key="1" pan="0" len="12"/>
          <note vol="132" pos="708" key="36" pan="0" len="12"/>
          <note vol="144" pos="720" key="48" pan="0" len="24"/>
          <note vol="132" pos="720" key="0" pan="0" len="12"/>
          <note vol="144" pos="744" key="50" pan="0" len="24"/>
        </pattern>
        <pattern pos="22272" name="" muted="0" type="1" steps="16">
          <note vol="157" pos="0" key="43" pan="0" len="192"/>
          <note vol="157" pos="0" key="36" pan="0" len="192"/>
          <note vol="157" pos="0" key="0" pan="0" len="192"/>
          <note vol="157" pos="192" key="46" pan="0" len="96"/>
          <note vol="157" pos="192" key="39" pan="0" len="96"/>
          <note vol="157" pos="288" key="48" pan="0" len="96"/>
          <note vol="157" pos="288" key="41" pan="0" len="96"/>
          <note vol="132" pos="384" key="48" pan="0" len="12"/>
          <note vol="157" pos="384" key="0" pan="0" len="12"/>
          <note vol="132" pos="396" key="36" pan="0" len="12"/>
          <note vol="157" pos="396" key="1" pan="0" len="12"/>
          <note vol="132" pos="408" key="36" pan="0" len="12"/>
          <note vol="132" pos="420" key="43" pan="0" len="12"/>
          <note vol="157" pos="420" key="0" pan="0" len="12"/>
          <note vol="132" pos="432" key="36" pan="0" len="12"/>
          <note vol="157" pos="432" key="1" pan="0" len="12"/>
          <note vol="132" pos="444" key="36" pan="0" len="12"/>
          <note vol="132" pos="456" key="46" pan="0" len="12"/>
          <note vol="157" pos="456" key="0" pan="0" len="12"/>
          <note vol="132" pos="468" key="36" pan="0" len="12"/>
          <note vol="132" pos="468" key="1" pan="0" len="12"/>
          <note vol="132" pos="480" key="36" pan="0" len="12"/>
          <note vol="132" pos="492" key="41" pan="0" len="12"/>
          <note vol="132" pos="492" key="0" pan="0" len="12"/>
          <note vol="132" pos="504" key="36" pan="0" len="12"/>
          <note vol="132" pos="504" key="1" pan="0" len="12"/>
          <note vol="132" pos="516" key="36" pan="0" len="12"/>
          <note vol="132" pos="528" key="39" pan="0" len="12"/>
          <note vol="132" pos="528" key="0" pan="0" len="12"/>
          <note vol="132" pos="540" key="36" pan="0" len="12"/>
          <note vol="132" pos="540" key="1" pan="0" len="12"/>
          <note vol="132" pos="552" key="36" pan="0" len="12"/>
          <note vol="132" pos="564" key="36" pan="0" len="12"/>
          <note vol="132" pos="576" key="48" pan="0" len="12"/>
          <note vol="132" pos="576" key="0" pan="0" len="12"/>
          <note vol="132" pos="588" key="36" pan="0" len="12"/>
          <note vol="132" pos="588" key="1" pan="0" len="12"/>
          <note vol="132" pos="600" key="36" pan="0" len="12"/>
          <note vol="132" pos="612" key="43" pan="0" len="12"/>
          <note vol="132" pos="612" key="0" pan="0" len="12"/>
          <note vol="132" pos="624" key="36" pan="0" len="12"/>
          <note vol="132" pos="624" key="1" pan="0" len="12"/>
          <note vol="132" pos="636" key="36" pan="0" len="12"/>
          <note vol="132" pos="648" key="46" pan="0" len="12"/>
          <note vol="132" pos="648" key="0" pan="0" len="12"/>
          <note vol="132" pos="660" key="36" pan="0" len="12"/>
          <note vol="132" pos="660" key="1" pan="0" len="12"/>
          <note vol="132" pos="672" key="36" pan="0" len="12"/>
          <note vol="132" pos="684" key="41" pan="0" len="12"/>
          <note vol="132" pos="684" key="0" pan="0" len="12"/>
          <note vol="132" pos="696" key="36" pan="0" len="12"/>
          <note vol="132" pos="696" key="1" pan="0" len="12"/>
          <note vol="132" pos="708" key="36" pan="0" len="12"/>
          <note vol="144" pos="720" key="48" pan="0" len="24"/>
          <note vol="132" pos="720" key="0" pan="0" len="12"/>
          <note vol="144" pos="744" key="50" pan="0" len="24"/>
        </pattern>
        <pattern pos="29952" name="" muted="0" type="1" steps="16">
          <note vol="157" pos="0" key="59" pan="0" len="72"/>
          <note vol="157" pos="0" key="52" pan="0" len="72"/>
          <note vol="157" pos="0" key="0" pan="0" len="72"/>
          <note vol="144" pos="72" key="40" pan="0" len="12"/>
          <note vol="157" pos="72" key="1" pan="0" len="18"/>
          <note vol="144" pos="84" key="40" pan="0" len="12"/>
          <note vol="144" pos="96" key="42" pan="0" len="24"/>
          <note vol="144" pos="120" key="43" pan="0" len="24"/>
          <note vol="144" pos="144" key="55" pan="0" len="72"/>
          <note vol="144" pos="144" key="48" pan="0" len="72"/>
          <note vol="144" pos="144" key="0" pan="0" len="24"/>
          <note vol="144" pos="180" key="1" pan="0" len="24"/>
          <note vol="144" pos="216" key="40" pan="0" len="24"/>
          <note vol="144" pos="228" key="0" pan="0" len="24"/>
          <note vol="144" pos="240" key="47" pan="0" len="24"/>
          <note vol="144" pos="252" key="1" pan="0" len="24"/>
          <note vol="144" pos="264" key="40" pan="0" len="24"/>
          <note vol="144" pos="288" key="40" pan="0" len="24"/>
          <note vol="144" pos="312" key="38" pan="0" len="24"/>
          <note vol="144" pos="336" key="40" pan="0" len="24"/>
          <note vol="151" pos="360" key="42" pan="0" len="24"/>
          <note vol="157" pos="384" key="43" pan="0" len="24"/>
          <note vol="144" pos="384" key="1" pan="0" len="24"/>
          <note vol="151" pos="408" key="42" pan="0" len="24"/>
          <note vol="144" pos="432" key="40" pan="0" len="24"/>
          <note vol="144" pos="432" key="0" pan="0" len="24"/>
          <note vol="144" pos="456" key="45" pan="0" len="24"/>
          <note vol="144" pos="480" key="43" pan="0" len="24"/>
          <note vol="144" pos="504" key="42" pan="0" len="24"/>
          <note vol="138" pos="528" key="45" pan="0" len="48"/>
          <note vol="138" pos="528" key="38" pan="0" len="48"/>
          <note vol="151" pos="600" key="38" pan="0" len="23"/>
          <note vol="151" pos="600" key="1" pan="0" len="23"/>
          <note vol="151" pos="624" key="47" pan="0" len="23"/>
          <note vol="151" pos="624" key="0" pan="0" len="23"/>
          <note vol="151" pos="648" key="38" pan="0" len="23"/>
          <note vol="151" pos="648" key="1" pan="0" len="12"/>
          <note vol="151" pos="672" key="38" pan="0" len="23"/>
          <note vol="157" pos="696" key="38" pan="0" len="23"/>
          <note vol="100" pos="708" key="0" pan="0" len="24"/>
          <note vol="151" pos="720" key="50" pan="0" len="12"/>
          <note vol="151" pos="732" key="52" pan="0" len="11"/>
          <note vol="154" pos="744" key="50" pan="0" len="23"/>
          <note vol="157" pos="768" key="43" pan="0" len="24"/>
          <note vol="151" pos="768" key="0" pan="0" len="24"/>
          <note vol="132" pos="792" key="40" pan="0" len="24"/>
          <note vol="151" pos="792" key="1" pan="0" len="24"/>
          <note vol="144" pos="816" key="40" pan="0" len="24"/>
          <note vol="151" pos="840" key="42" pan="0" len="24"/>
          <note vol="151" pos="840" key="0" pan="0" len="24"/>
          <note vol="151" pos="864" key="40" pan="0" len="24"/>
          <note vol="151" pos="864" key="1" pan="0" len="24"/>
          <note vol="151" pos="888" key="40" pan="0" len="24"/>
          <note vol="163" pos="912" key="43" pan="0" len="24"/>
          <note vol="151" pos="912" key="0" pan="0" len="24"/>
          <note vol="151" pos="936" key="40" pan="0" len="24"/>
          <note vol="151" pos="936" key="1" pan="0" len="24"/>
          <note vol="151" pos="960" key="40" pan="0" len="24"/>
          <note vol="163" pos="984" key="47" pan="0" len="24"/>
          <note vol="151" pos="1008" key="40" pan="0" len="24"/>
          <note vol="151" pos="1032" key="43" pan="0" len="24"/>
          <note vol="163" pos="1056" key="52" pan="0" len="24"/>
          <note vol="151" pos="1056" key="0" pan="0" len="24"/>
          <note vol="157" pos="1080" key="40" pan="0" len="24"/>
          <note vol="151" pos="1080" key="1" pan="0" len="24"/>
          <note vol="151" pos="1104" key="52" pan="0" len="24"/>
          <note vol="151" pos="1104" key="0" pan="0" len="24"/>
          <note vol="163" pos="1128" key="54" pan="0" len="24"/>
          <note vol="168" pos="1152" key="55" pan="0" len="24"/>
          <note vol="151" pos="1176" key="47" pan="0" len="24"/>
          <note vol="157" pos="1200" key="52" pan="0" len="24"/>
          <note vol="157" pos="1224" key="43" pan="0" len="48"/>
          <note vol="157" pos="1224" key="36" pan="0" len="48"/>
          <note vol="157" pos="1272" key="43" pan="0" len="48"/>
          <note vol="157" pos="1272" key="36" pan="0" len="48"/>
          <note vol="168" pos="1320" key="45" pan="0" len="48"/>
          <note vol="151" pos="1320" key="38" pan="0" len="48"/>
          <note vol="151" pos="1368" key="45" pan="0" len="24"/>
          <note vol="151" pos="1368" key="1" pan="0" len="24"/>
          <note vol="151" pos="1392" key="52" pan="0" len="24"/>
          <note vol="151" pos="1416" key="54" pan="0" len="24"/>
          <note vol="151" pos="1416" key="0" pan="0" len="24"/>
          <note vol="151" pos="1440" key="45" pan="0" len="72"/>
          <note vol="151" pos="1440" key="38" pan="0" len="72"/>
          <note vol="144" pos="1512" key="45" pan="0" len="84"/>
          <note vol="144" pos="1512" key="38" pan="0" len="84"/>
          <note vol="144" pos="1596" key="47" pan="0" len="382"/>
          <note vol="144" pos="1596" key="40" pan="0" len="382"/>
        </pattern>
        <pattern pos="20352" name="Rhythm Guitar" muted="0" type="1" steps="16">
          <note vol="170" pos="0" key="65" pan="0" len="12"/>
          <note vol="151" pos="0" key="0" pan="0" len="12"/>
          <note vol="170" pos="12" key="62" pan="0" len="12"/>
          <note vol="170" pos="24" key="59" pan="0" len="12"/>
          <note vol="170" pos="36" key="62" pan="0" len="12"/>
          <note vol="163" pos="48" key="59" pan="0" len="12"/>
          <note vol="151" pos="48" key="1" pan="0" len="12"/>
          <note vol="163" pos="60" key="56" pan="0" len="12"/>
          <note vol="163" pos="72" key="53" pan="0" len="12"/>
          <note vol="163" pos="84" key="56" pan="0" len="12"/>
          <note vol="157" pos="96" key="53" pan="0" len="12"/>
          <note vol="157" pos="108" key="50" pan="0" len="12"/>
          <note vol="157" pos="120" key="47" pan="0" len="12"/>
          <note vol="157" pos="132" key="50" pan="0" len="12"/>
          <note vol="151" pos="144" key="47" pan="0" len="12"/>
          <note vol="151" pos="156" key="44" pan="0" len="12"/>
          <note vol="151" pos="168" key="41" pan="0" len="12"/>
          <note vol="151" pos="180" key="44" pan="0" len="12"/>
          <note vol="151" pos="192" key="43" pan="0" len="12"/>
          <note vol="151" pos="204" key="45" pan="0" len="12"/>
          <note vol="157" pos="216" key="47" pan="0" len="12"/>
          <note vol="157" pos="228" key="50" pan="0" len="12"/>
          <note vol="163" pos="240" key="47" pan="0" len="12"/>
          <note vol="163" pos="252" key="50" pan="0" len="12"/>
          <note vol="163" pos="264" key="53" pan="0" len="12"/>
          <note vol="170" pos="276" key="56" pan="0" len="12"/>
          <note vol="176" pos="288" key="50" pan="0" len="36"/>
          <note vol="176" pos="288" key="43" pan="0" len="36"/>
          <note vol="151" pos="288" key="0" pan="0" len="12"/>
        </pattern>
        <pattern pos="4992" name="Rhythm Guitar" muted="0" type="1" steps="16">
          <note vol="187" pos="0" key="43" pan="0" len="384"/>
          <note vol="187" pos="0" key="36" pan="0" len="384"/>
          <note vol="187" pos="0" key="0" pan="0" len="300"/>
        </pattern>
      </track>
      <track solo="0" name="Lead Guitar S" muted="1" type="0">
        <instrumenttrack vol="200" pitchrange="1" fxch="12" pitch="0" pan="0" usemasterpitch="1" basenote="57">
          <instrument name="carlapatchbay">
            <carlapatchbay>
              <CARLA-PROJECT VERSION="2.2">
                <EngineSettings>
                  <ForceStereo>false</ForceStereo>
                  <PreferPluginBridges>false</PreferPluginBridges>
                  <PreferUiBridges>true</PreferUiBridges>
                  <UIsAlwaysOnTop>false</UIsAlwaysOnTop>
                  <MaxParameters>200</MaxParameters>
                  <UIBridgesTimeout>4000</UIBridgesTimeout>
                  <LADSPA_PATH>/home/pass/.ladspa:/usr/lib/ladspa:/usr/local/lib/ladspa</LADSPA_PATH>
                  <DSSI_PATH>/home/pass/.dssi:/usr/lib/dssi:/usr/local/lib/dssi</DSSI_PATH>
                  <LV2_PATH>/home/pass/.lv2:/usr/lib/lv2:/usr/local/lib/lv2</LV2_PATH>
                  <VST2_PATH>/home/pass/.vst:/home/pass/.wine/drive_c/Program Files (x86)/VstPlugins:/home/pass/.wine/drive_c/Program Files/VstPlugins:/usr/lib/lxvst:/usr/lib/vst:/usr/local/lib/lxvst:/usr/local/lib/vst/home/pass/.lxvst:/home/pass/vst</VST2_PATH>
                  <VST3_PATH>/home/pass/.vst3:/home/pass/.wine/drive_c/Program Files (x86)/Common Files/VST3:/home/pass/.wine/drive_c/Program Files/Common Files/VST3:/usr/lib/vst3:/usr/local/lib/vst3</VST3_PATH>
                  <SF2_PATH>/home/pass/.sounds/sf2/home/pass/.sounds/sf3:/usr/share/soundfonts:/usr/share/sounds/sf2:/usr/share/sounds/sf3</SF2_PATH>
                  <SFZ_PATH>/home/pass/.sounds/sfz:/home/pass/samples:/usr/share/sounds/sfz</SFZ_PATH>
                </EngineSettings>
                <!-- sfizz -->
                <Plugin>
                  <Info>
                    <Type>LV2</Type>
                    <Name>sfizz</Name>
                    <URI>http://sfztools.github.io/sfizz</URI>
                  </Info>
                  <Data>
                    <Active>Yes</Active>
                    <ControlChannel>1</ControlChannel>
                    <Options>0x3f0</Options>
                    <Parameter>
                      <Index>0</Index>
                      <Name>Volume</Name>
                      <Symbol>volume</Symbol>
                      <Value>0</Value>
                    </Parameter>
                    <Parameter>
                      <Index>1</Index>
                      <Name>Polyphony</Name>
                      <Symbol>num_voices</Symbol>
                      <Value>64</Value>
                    </Parameter>
                    <Parameter>
                      <Index>2</Index>
                      <Name>Internal oversampling factor</Name>
                      <Symbol>oversampling</Symbol>
                      <Value>1</Value>
                    </Parameter>
                    <Parameter>
                      <Index>3</Index>
                      <Name>Preload size</Name>
                      <Symbol>preload_size</Symbol>
                      <Value>8192</Value>
                    </Parameter>
                    <CustomData>
                      <Type>http://lv2plug.in/ns/ext/atom#Path</Type>
                      <Key>http://sfztools.github.io/sfizz:sfzfile</Key>
                      <Value>/home/pass/samples/fakeguitar/_fakeguitar1_integrated.sfz</Value>
                    </CustomData>
                    <CustomData>
                      <Type>http://lv2plug.in/ns/ext/atom#Int</Type>
                      <Key>http://sfztools.github.io/sfizz:numvoices</Key>
                      <Value>QAAAAA==</Value>
                    </CustomData>
                    <CustomData>
                      <Type>http://lv2plug.in/ns/ext/atom#Int</Type>
                      <Key>http://sfztools.github.io/sfizz:preload_size</Key>
                      <Value>ACAAAA==</Value>
                    </CustomData>
                    <CustomData>
                      <Type>http://lv2plug.in/ns/ext/atom#Int</Type>
                      <Key>http://sfztools.github.io/sfizz:oversampling</Key>
                      <Value>AQAAAA==</Value>
                    </CustomData>
                  </Data>
                </Plugin>
                <Patchbay>
                  <Connection>
                    <Source>Midi Input:Capture 1</Source>
                    <Target>sfizz:events-in</Target>
                  </Connection>
                  <Connection>
                    <Source>sfizz:Left Output</Source>
                    <Target>Audio Output:Left</Target>
                  </Connection>
                  <Connection>
                    <Source>sfizz:Right Output</Source>
                    <Target>Audio Output:Right</Target>
                  </Connection>
                  <Positions>
                    <Position x1="1693" pluginId="0" y1="1353">
                      <Name>sfizz</Name>
                    </Position>
                  </Positions>
                </Patchbay>
              </CARLA-PROJECT>
            </carlapatchbay>
          </instrument>
          <eldata fcut="14000" ftype="0" fres="0.5" fwet="0">
            <elvol lpdel="0" dec="0.5" lamt="0" rel="0.1" userwavefile="" lspd="0.1" x100="0" latt="0" hold="0.5" lshp="0" sustain="0.5" lspd_numerator="4" att="0" lspd_syncmode="0" amt="0" ctlenvamt="0" lspd_denominator="4" pdel="0"/>
            <elcut lpdel="0" dec="0.5" lamt="0" rel="0.1" userwavefile="" lspd="0.1" x100="0" latt="0" hold="0.5" lshp="0" sustain="0.5" lspd_numerator="4" att="0" lspd_syncmode="0" amt="0" ctlenvamt="0" lspd_denominator="4" pdel="0"/>
            <elres lpdel="0" dec="0.5" lamt="0" rel="0.1" userwavefile="" lspd="0.1" x100="0" latt="0" hold="0.5" lshp="0" sustain="0.5" lspd_numerator="4" att="0" lspd_syncmode="0" amt="0" ctlenvamt="0" lspd_denominator="4" pdel="0"/>
          </eldata>
          <chordcreator chordrange="1" chord-enabled="0" chord="0"/>
          <arpeggiator arp-enabled="0" arptime_denominator="4" arpgate="100" arpskip="0" arptime="200" arpmode="0" arpmiss="0" arptime_numerator="4" arptime_syncmode="0" arprange="1" arp="0" arpdir="0" arpcycle="0"/>
          <midiport outputcontroller="0" readable="0" basevelocity="63" writable="0" outputprogram="1" fixedoutputvelocity="-1" fixedoutputnote="-1" outputchannel="1" inputchannel="0" inputcontroller="0" fixedinputvelocity="-1"/>
          <fxchain numofeffects="0" enabled="0"/>
        </instrumenttrack>
        <pattern pos="0" name="" muted="0" type="1" steps="16">
          <note vol="144" pos="0" key="60" pan="0" len="96"/>
          <note vol="144" pos="0" key="0" pan="0" len="96"/>
          <note vol="144" pos="96" key="62" pan="0" len="48"/>
          <note vol="151" pos="144" key="63" pan="0" len="48"/>
          <note vol="157" pos="192" key="65" pan="0" len="96"/>
          <note vol="151" pos="288" key="60" pan="0" len="48"/>
          <note vol="151" pos="336" key="65" pan="0" len="48"/>
          <note vol="163" pos="384" key="64" pan="0" len="96"/>
          <note vol="144" pos="480" key="60" pan="0" len="48"/>
          <note vol="144" pos="528" key="57" pan="0" len="48"/>
          <note vol="144" pos="576" key="56" pan="0" len="96"/>
          <note vol="138" pos="672" key="53" pan="0" len="96"/>
          <note vol="144" pos="768" key="48" pan="0" len="12"/>
          <note vol="144" pos="768" key="1" pan="0" len="12"/>
          <note vol="144" pos="780" key="43" pan="0" len="12"/>
          <note vol="144" pos="792" key="51" pan="0" len="12"/>
          <note vol="144" pos="804" key="48" pan="0" len="12"/>
          <note vol="144" pos="816" key="55" pan="0" len="12"/>
          <note vol="144" pos="828" key="51" pan="0" len="12"/>
          <note vol="144" pos="840" key="60" pan="0" len="12"/>
          <note vol="144" pos="852" key="55" pan="0" len="12"/>
          <note vol="151" pos="864" key="63" pan="0" len="12"/>
          <note vol="144" pos="876" key="60" pan="0" len="12"/>
          <note vol="157" pos="888" key="67" pan="0" len="12"/>
          <note vol="151" pos="900" key="63" pan="0" len="12"/>
          <note vol="163" pos="912" key="72" pan="0" len="12"/>
          <note vol="144" pos="912" key="0" pan="0" len="12"/>
          <note vol="157" pos="924" key="67" pan="0" len="12"/>
          <note vol="151" pos="936" key="63" pan="0" len="12"/>
          <note vol="151" pos="948" key="60" pan="0" len="12"/>
          <note vol="144" pos="960" key="53" pan="0" len="12"/>
          <note vol="144" pos="960" key="1" pan="0" len="12"/>
          <note vol="144" pos="972" key="48" pan="0" len="12"/>
          <note vol="144" pos="984" key="56" pan="0" len="12"/>
          <note vol="144" pos="996" key="53" pan="0" len="12"/>
          <note vol="144" pos="1008" key="60" pan="0" len="12"/>
          <note vol="144" pos="1020" key="56" pan="0" len="12"/>
          <note vol="151" pos="1032" key="65" pan="0" len="12"/>
          <note vol="144" pos="1044" key="60" pan="0" len="12"/>
          <note vol="157" pos="1056" key="68" pan="0" len="12"/>
          <note vol="144" pos="1056" key="0" pan="0" len="12"/>
          <note vol="151" pos="1068" key="65" pan="0" len="12"/>
          <note vol="163" pos="1080" key="72" pan="0" len="12"/>
          <note vol="157" pos="1092" key="68" pan="0" len="12"/>
          <note vol="170" pos="1104" key="77" pan="0" len="12"/>
          <note vol="163" pos="1116" key="72" pan="0" len="12"/>
          <note vol="157" pos="1128" key="68" pan="0" len="12"/>
          <note vol="151" pos="1140" key="65" pan="0" len="12"/>
          <note vol="144" pos="1152" key="57" pan="0" len="12"/>
          <note vol="144" pos="1152" key="1" pan="0" len="12"/>
          <note vol="144" pos="1164" key="52" pan="0" len="12"/>
          <note vol="144" pos="1176" key="60" pan="0" len="12"/>
          <note vol="144" pos="1188" key="57" pan="0" len="12"/>
          <note vol="151" pos="1200" key="64" pan="0" len="12"/>
          <note vol="144" pos="1212" key="60" pan="0" len="12"/>
          <note vol="157" pos="1224" key="69" pan="0" len="12"/>
          <note vol="144" pos="1236" key="64" pan="0" len="12"/>
          <note vol="163" pos="1248" key="72" pan="0" len="12"/>
          <note vol="144" pos="1248" key="0" pan="0" len="12"/>
          <note vol="157" pos="1260" key="69" pan="0" len="12"/>
          <note vol="170" pos="1272" key="76" pan="0" len="12"/>
          <note vol="163" pos="1284" key="72" pan="0" len="12"/>
          <note vol="170" pos="1296" key="81" pan="0" len="12"/>
          <note vol="163" pos="1308" key="76" pan="0" len="12"/>
          <note vol="157" pos="1320" key="72" pan="0" len="12"/>
          <note vol="157" pos="1332" key="69" pan="0" len="12"/>
          <note vol="144" pos="1344" key="65" pan="0" len="12"/>
          <note vol="144" pos="1344" key="1" pan="0" len="12"/>
          <note vol="144" pos="1356" key="60" pan="0" len="12"/>
          <note vol="144" pos="1368" key="56" pan="0" len="12"/>
          <note vol="144" pos="1380" key="53" pan="0" len="12"/>
          <note vol="144" pos="1392" key="60" pan="0" len="12"/>
          <note vol="144" pos="1404" key="56" pan="0" len="12"/>
          <note vol="151" pos="1416" key="65" pan="0" len="12"/>
          <note vol="144" pos="1428" key="60" pan="0" len="12"/>
          <note vol="157" pos="1440" key="68" pan="0" len="12"/>
          <note vol="144" pos="1440" key="0" pan="0" len="12"/>
          <note vol="151" pos="1452" key="65" pan="0" len="12"/>
          <note vol="163" pos="1464" key="72" pan="0" len="12"/>
          <note vol="157" pos="1476" key="68" pan="0" len="12"/>
          <note vol="170" pos="1488" key="77" pan="0" len="12"/>
          <note vol="163" pos="1500" key="72" pan="0" len="12"/>
          <note vol="157" pos="1512" key="68" pan="0" len="12"/>
          <note vol="151" pos="1524" key="65" pan="0" len="12"/>
          <note vol="100" pos="1860" key="1" pan="0" len="48"/>
          <note vol="151" pos="1872" key="59" pan="0" len="12"/>
          <note vol="157" pos="1884" key="60" pan="0" len="12"/>
          <note vol="157" pos="1896" key="62" pan="0" len="12"/>
          <note vol="163" pos="1908" key="63" pan="0" len="12"/>
          <note vol="170" pos="1920" key="67" pan="0" len="192"/>
          <note vol="170" pos="1920" key="0" pan="0" len="192"/>
          <note vol="170" pos="2112" key="65" pan="0" len="96"/>
          <note vol="170" pos="2208" key="68" pan="0" len="96"/>
          <note vol="157" pos="2304" key="0" pan="0" len="12"/>
          <note vol="157" pos="2316" key="1" pan="0" len="12"/>
          <note vol="157" pos="2340" key="0" pan="0" len="12"/>
          <note vol="157" pos="2352" key="1" pan="0" len="12"/>
          <note vol="157" pos="2376" key="0" pan="0" len="12"/>
          <note vol="157" pos="2388" key="1" pan="0" len="12"/>
          <note vol="157" pos="2412" key="0" pan="0" len="12"/>
          <note vol="157" pos="2424" key="1" pan="0" len="12"/>
          <note vol="157" pos="2448" key="0" pan="0" len="12"/>
          <note vol="157" pos="2460" key="1" pan="0" len="12"/>
          <note vol="157" pos="2496" key="0" pan="0" len="12"/>
          <note vol="157" pos="2508" key="1" pan="0" len="12"/>
          <note vol="157" pos="2532" key="0" pan="0" len="12"/>
          <note vol="157" pos="2544" key="1" pan="0" len="12"/>
          <note vol="157" pos="2568" key="0" pan="0" len="12"/>
          <note vol="157" pos="2580" key="1" pan="0" len="12"/>
          <note vol="157" pos="2604" key="0" pan="0" len="12"/>
          <note vol="157" pos="2616" key="1" pan="0" len="12"/>
          <note vol="157" pos="2640" key="0" pan="0" len="12"/>
          <note vol="170" pos="2688" key="68" pan="0" len="96"/>
          <note vol="170" pos="2784" key="75" pan="0" len="96"/>
          <note vol="170" pos="2880" key="74" pan="0" len="96"/>
          <note vol="170" pos="2976" key="68" pan="0" len="48"/>
          <note vol="170" pos="3024" key="70" pan="0" len="48"/>
          <note vol="176" pos="3456" key="67" pan="0" len="192"/>
          <note vol="151" pos="3456" key="0" pan="0" len="12"/>
          <note vol="176" pos="3648" key="65" pan="0" len="96"/>
          <note vol="176" pos="3744" key="68" pan="0" len="96"/>
          <note vol="176" pos="4224" key="68" pan="0" len="96"/>
          <note vol="151" pos="4224" key="0" pan="0" len="12"/>
          <note vol="176" pos="4320" key="75" pan="0" len="96"/>
          <note vol="182" pos="4416" key="74" pan="0" len="96"/>
          <note vol="182" pos="4512" key="77" pan="0" len="96"/>
          <note vol="170" pos="4608" key="79" pan="0" len="12"/>
          <note vol="151" pos="4608" key="0" pan="0" len="12"/>
          <note vol="163" pos="4620" key="80" pan="0" len="12"/>
          <note vol="163" pos="4632" key="79" pan="0" len="12"/>
          <note vol="163" pos="4644" key="77" pan="0" len="12"/>
          <note vol="170" pos="4656" key="75" pan="0" len="12"/>
          <note vol="151" pos="4656" key="1" pan="0" len="12"/>
          <note vol="157" pos="4668" key="77" pan="0" len="12"/>
          <note vol="151" pos="4680" key="75" pan="0" len="12"/>
          <note vol="151" pos="4692" key="74" pan="0" len="12"/>
          <note vol="151" pos="4704" key="70" pan="0" len="12"/>
          <note vol="151" pos="4704" key="0" pan="0" len="12"/>
          <note vol="157" pos="4716" key="75" pan="0" len="12"/>
          <note vol="157" pos="4728" key="79" pan="0" len="12"/>
          <note vol="163" pos="4740" key="82" pan="0" len="12"/>
          <note vol="157" pos="4752" key="79" pan="0" len="12"/>
          <note vol="151" pos="4752" key="1" pan="0" len="12"/>
          <note vol="151" pos="4764" key="75" pan="0" len="12"/>
          <note vol="144" pos="4776" key="74" pan="0" len="12"/>
          <note vol="144" pos="4788" key="75" pan="0" len="12"/>
          <note vol="170" pos="4800" key="74" pan="0" len="12"/>
          <note vol="157" pos="4812" key="77" pan="0" len="12"/>
          <note vol="157" pos="4824" key="74" pan="0" len="12"/>
          <note vol="157" pos="4836" key="71" pan="0" len="12"/>
          <note vol="163" pos="4848" key="67" pan="0" len="12"/>
          <note vol="151" pos="4860" key="71" pan="0" len="12"/>
          <note vol="151" pos="4872" key="67" pan="0" len="12"/>
          <note vol="151" pos="4884" key="62" pan="0" len="12"/>
          <note vol="151" pos="4896" key="59" pan="0" len="12"/>
          <note vol="151" pos="4908" key="62" pan="0" len="12"/>
          <note vol="151" pos="4920" key="67" pan="0" len="12"/>
          <note vol="144" pos="4932" key="71" pan="0" len="12"/>
          <note vol="157" pos="4944" key="67" pan="0" len="12"/>
          <note vol="151" pos="4944" key="0" pan="0" len="12"/>
          <note vol="157" pos="4956" key="74" pan="0" len="12"/>
          <note vol="157" pos="4968" key="79" pan="0" len="12"/>
          <note vol="157" pos="4980" key="83" pan="0" len="12"/>
          <note vol="170" pos="4992" key="84" pan="0" len="576"/>
          <note vol="170" pos="8064" key="80" pan="0" len="12"/>
          <note vol="151" pos="8064" key="0" pan="0" len="96"/>
          <note vol="157" pos="8076" key="79" pan="0" len="12"/>
          <note vol="157" pos="8088" key="72" pan="0" len="12"/>
          <note vol="176" pos="8100" key="82" pan="0" len="12"/>
          <note vol="157" pos="8112" key="79" pan="0" len="12"/>
          <note vol="157" pos="8124" key="72" pan="0" len="12"/>
          <note vol="170" pos="8136" key="80" pan="0" len="12"/>
          <note vol="157" pos="8148" key="79" pan="0" len="12"/>
          <note vol="157" pos="8160" key="72" pan="0" len="12"/>
          <note vol="176" pos="8172" key="84" pan="0" len="12"/>
          <note vol="157" pos="8184" key="79" pan="0" len="12"/>
          <note vol="157" pos="8196" key="72" pan="0" len="12"/>
          <note vol="170" pos="8208" key="82" pan="0" len="12"/>
          <note vol="157" pos="8220" key="72" pan="0" len="12"/>
          <note vol="182" pos="8232" key="87" pan="0" len="12"/>
          <note vol="157" pos="8244" key="72" pan="0" len="12"/>
          <note vol="176" pos="8256" key="86" pan="0" len="12"/>
          <note vol="182" pos="8268" key="87" pan="0" len="12"/>
          <note vol="176" pos="8280" key="86" pan="0" len="12"/>
          <note vol="170" pos="8292" key="82" pan="0" len="12"/>
          <note vol="176" pos="8304" key="77" pan="0" len="12"/>
          <note vol="170" pos="8316" key="82" pan="0" len="12"/>
          <note vol="163" pos="8328" key="80" pan="0" len="12"/>
          <note vol="163" pos="8340" key="79" pan="0" len="12"/>
          <note vol="176" pos="8352" key="77" pan="0" len="12"/>
          <note vol="170" pos="8364" key="79" pan="0" len="12"/>
          <note vol="163" pos="8376" key="77" pan="0" len="12"/>
          <note vol="163" pos="8388" key="75" pan="0" len="12"/>
          <note vol="176" pos="8400" key="74" pan="0" len="12"/>
          <note vol="170" pos="8412" key="75" pan="0" len="12"/>
          <note vol="170" pos="8424" key="74" pan="0" len="12"/>
          <note vol="170" pos="8436" key="70" pan="0" len="12"/>
          <note vol="182" pos="8832" key="0" pan="0" len="12"/>
          <note vol="182" pos="8856" key="1" pan="0" len="12"/>
          <note vol="182" pos="8904" key="0" pan="0" len="12"/>
          <note vol="182" pos="8928" key="1" pan="0" len="12"/>
          <note vol="182" pos="8976" key="0" pan="0" len="12"/>
          <note vol="182" pos="9000" key="1" pan="0" len="12"/>
          <note vol="176" pos="9216" key="80" pan="0" len="12"/>
          <note vol="163" pos="9216" key="75" pan="0" len="12"/>
          <note vol="182" pos="9216" key="0" pan="0" len="12"/>
          <note vol="163" pos="9228" key="72" pan="0" len="12"/>
          <note vol="157" pos="9240" key="68" pan="0" len="12"/>
          <note vol="176" pos="9252" key="84" pan="0" len="12"/>
          <note vol="157" pos="9252" key="80" pan="0" len="12"/>
          <note vol="163" pos="9264" key="72" pan="0" len="12"/>
          <note vol="157" pos="9276" key="68" pan="0" len="12"/>
          <note vol="176" pos="9288" key="80" pan="0" len="12"/>
          <note vol="157" pos="9288" key="75" pan="0" len="12"/>
          <note vol="163" pos="9300" key="72" pan="0" len="12"/>
          <note vol="157" pos="9312" key="68" pan="0" len="12"/>
          <note vol="176" pos="9324" key="84" pan="0" len="12"/>
          <note vol="157" pos="9324" key="80" pan="0" len="12"/>
          <note vol="163" pos="9336" key="72" pan="0" len="12"/>
          <note vol="157" pos="9348" key="68" pan="0" len="12"/>
          <note vol="176" pos="9360" key="82" pan="0" len="12"/>
          <note vol="157" pos="9360" key="77" pan="0" len="12"/>
          <note vol="170" pos="9372" key="74" pan="0" len="12"/>
          <note vol="163" pos="9384" key="70" pan="0" len="12"/>
          <note vol="176" pos="9396" key="86" pan="0" len="12"/>
          <note vol="157" pos="9396" key="82" pan="0" len="12"/>
          <note vol="170" pos="9408" key="74" pan="0" len="12"/>
          <note vol="163" pos="9420" key="70" pan="0" len="12"/>
          <note vol="182" pos="9432" key="87" pan="0" len="12"/>
          <note vol="157" pos="9432" key="82" pan="0" len="12"/>
          <note vol="170" pos="9444" key="74" pan="0" len="12"/>
          <note vol="163" pos="9456" key="70" pan="0" len="12"/>
          <note vol="188" pos="9468" key="89" pan="0" len="12"/>
          <note vol="157" pos="9468" key="82" pan="0" len="12"/>
          <note vol="170" pos="9480" key="74" pan="0" len="12"/>
          <note vol="163" pos="9492" key="70" pan="0" len="12"/>
          <note vol="170" pos="9504" key="65" pan="0" len="12"/>
          <note vol="170" pos="9516" key="70" pan="0" len="12"/>
          <note vol="176" pos="9528" key="74" pan="0" len="12"/>
          <note vol="176" pos="9540" key="77" pan="0" len="12"/>
          <note vol="176" pos="9552" key="82" pan="0" len="12"/>
          <note vol="176" pos="9564" key="86" pan="0" len="12"/>
          <note vol="182" pos="9576" key="89" pan="0" len="12"/>
          <note vol="182" pos="9588" key="94" pan="0" len="12"/>
          <note vol="163" pos="9600" key="67" pan="0" len="12"/>
          <note vol="157" pos="9612" key="63" pan="0" len="12"/>
          <note vol="157" pos="9624" key="60" pan="0" len="12"/>
          <note vol="157" pos="9636" key="63" pan="0" len="12"/>
          <note vol="157" pos="9648" key="55" pan="0" len="12"/>
          <note vol="163" pos="9660" key="60" pan="0" len="12"/>
          <note vol="151" pos="9672" key="51" pan="0" len="12"/>
          <note vol="157" pos="9684" key="55" pan="0" len="12"/>
          <note vol="151" pos="9696" key="48" pan="0" len="12"/>
          <note vol="151" pos="9708" key="55" pan="0" len="12"/>
          <note vol="151" pos="9720" key="51" pan="0" len="12"/>
          <note vol="157" pos="9732" key="55" pan="0" len="12"/>
          <note vol="163" pos="9744" key="60" pan="0" len="12"/>
          <note vol="163" pos="9756" key="67" pan="0" len="12"/>
          <note vol="163" pos="9768" key="65" pan="0" len="12"/>
          <note vol="163" pos="9780" key="63" pan="0" len="12"/>
          <note vol="170" pos="9792" key="67" pan="0" len="12"/>
          <note vol="157" pos="9804" key="63" pan="0" len="12"/>
          <note vol="157" pos="9816" key="60" pan="0" len="12"/>
          <note vol="151" pos="9828" key="63" pan="0" len="12"/>
          <note vol="157" pos="9840" key="55" pan="0" len="12"/>
          <note vol="163" pos="9852" key="60" pan="0" len="12"/>
          <note vol="151" pos="9864" key="51" pan="0" len="12"/>
          <note vol="151" pos="9876" key="55" pan="0" len="12"/>
          <note vol="151" pos="9888" key="48" pan="0" len="12"/>
          <note vol="157" pos="9900" key="55" pan="0" len="12"/>
          <note vol="157" pos="9912" key="51" pan="0" len="12"/>
          <note vol="163" pos="9924" key="55" pan="0" len="12"/>
          <note vol="163" pos="9936" key="60" pan="0" len="12"/>
          <note vol="163" pos="9948" key="67" pan="0" len="12"/>
          <note vol="163" pos="9960" key="65" pan="0" len="12"/>
          <note vol="163" pos="9972" key="63" pan="0" len="12"/>
          <note vol="170" pos="9984" key="66" pan="0" len="12"/>
          <note vol="157" pos="9996" key="61" pan="0" len="12"/>
          <note vol="157" pos="10008" key="60" pan="0" len="12"/>
          <note vol="157" pos="10020" key="61" pan="0" len="12"/>
          <note vol="163" pos="10032" key="58" pan="0" len="12"/>
          <note vol="163" pos="10044" key="61" pan="0" len="12"/>
          <note vol="151" pos="10056" key="54" pan="0" len="12"/>
          <note vol="163" pos="10068" key="61" pan="0" len="12"/>
          <note vol="151" pos="10080" key="49" pan="0" len="12"/>
          <note vol="163" pos="10092" key="61" pan="0" len="12"/>
          <note vol="157" pos="10104" key="60" pan="0" len="12"/>
          <note vol="157" pos="10116" key="58" pan="0" len="12"/>
          <note vol="157" pos="10128" key="54" pan="0" len="12"/>
          <note vol="163" pos="10140" key="58" pan="0" len="12"/>
          <note vol="170" pos="10152" key="60" pan="0" len="12"/>
          <note vol="170" pos="10164" key="65" pan="0" len="12"/>
          <note vol="170" pos="10176" key="66" pan="0" len="12"/>
          <note vol="157" pos="10188" key="61" pan="0" len="12"/>
          <note vol="157" pos="10200" key="60" pan="0" len="12"/>
          <note vol="157" pos="10212" key="61" pan="0" len="12"/>
          <note vol="151" pos="10224" key="58" pan="0" len="12"/>
          <note vol="163" pos="10236" key="61" pan="0" len="12"/>
          <note vol="151" pos="10248" key="49" pan="0" len="12"/>
          <note vol="157" pos="10260" key="61" pan="0" len="12"/>
          <note vol="151" pos="10272" key="54" pan="0" len="12"/>
          <note vol="151" pos="10284" key="61" pan="0" len="12"/>
          <note vol="151" pos="10296" key="60" pan="0" len="12"/>
          <note vol="157" pos="10308" key="61" pan="0" len="12"/>
          <note vol="163" pos="10320" key="66" pan="0" len="12"/>
          <note vol="163" pos="10332" key="70" pan="0" len="12"/>
          <note vol="163" pos="10344" key="72" pan="0" len="12"/>
          <note vol="170" pos="10356" key="73" pan="0" len="12"/>
          <note vol="163" pos="10368" key="79" pan="0" len="12"/>
          <note vol="163" pos="10380" key="75" pan="0" len="12"/>
          <note vol="157" pos="10392" key="72" pan="0" len="12"/>
          <note vol="151" pos="10404" key="75" pan="0" len="12"/>
          <note vol="151" pos="10416" key="67" pan="0" len="12"/>
          <note vol="151" pos="10428" key="72" pan="0" len="12"/>
          <note vol="144" pos="10440" key="63" pan="0" len="12"/>
          <note vol="144" pos="10452" key="67" pan="0" len="12"/>
          <note vol="138" pos="10464" key="60" pan="0" len="12"/>
          <note vol="138" pos="10476" key="67" pan="0" len="12"/>
          <note vol="138" pos="10488" key="63" pan="0" len="12"/>
          <note vol="132" pos="10500" key="67" pan="0" len="12"/>
          <note vol="132" pos="10512" key="72" pan="0" len="12"/>
          <note vol="132" pos="10524" key="79" pan="0" len="12"/>
          <note vol="125" pos="10536" key="77" pan="0" len="12"/>
          <note vol="125" pos="10548" key="75" pan="0" len="12"/>
          <note vol="119" pos="10560" key="79" pan="0" len="12"/>
          <note vol="119" pos="10572" key="75" pan="0" len="12"/>
          <note vol="113" pos="10584" key="72" pan="0" len="12"/>
          <note vol="113" pos="10596" key="75" pan="0" len="12"/>
          <note vol="107" pos="10608" key="67" pan="0" len="12"/>
          <note vol="107" pos="10620" key="72" pan="0" len="12"/>
          <note vol="100" pos="10632" key="63" pan="0" len="12"/>
          <note vol="100" pos="10644" key="67" pan="0" len="12"/>
          <note vol="94" pos="10656" key="60" pan="0" len="12"/>
          <note vol="94" pos="10668" key="67" pan="0" len="12"/>
          <note vol="88" pos="10680" key="63" pan="0" len="12"/>
          <note vol="88" pos="10692" key="67" pan="0" len="12"/>
          <note vol="81" pos="10704" key="72" pan="0" len="12"/>
          <note vol="75" pos="10716" key="79" pan="0" len="12"/>
          <note vol="69" pos="10728" key="77" pan="0" len="12"/>
          <note vol="69" pos="10740" key="75" pan="0" len="12"/>
          <note vol="125" pos="10752" key="66" pan="0" len="192"/>
          <note vol="125" pos="10752" key="61" pan="0" len="192"/>
          <note vol="157" pos="10752" key="60" pan="0" len="192"/>
          <note vol="125" pos="10944" key="66" pan="0" len="192"/>
          <note vol="125" pos="10944" key="61" pan="0" len="192"/>
          <note vol="157" pos="10944" key="58" pan="0" len="192"/>
          <note vol="176" pos="11136" key="84" pan="0" len="12"/>
          <note vol="176" pos="11136" key="0" pan="0" len="12"/>
          <note vol="176" pos="11148" key="80" pan="0" len="12"/>
          <note vol="176" pos="11160" key="77" pan="0" len="12"/>
          <note vol="170" pos="11172" key="72" pan="0" len="12"/>
          <note vol="157" pos="11184" key="65" pan="0" len="12"/>
          <note vol="176" pos="11184" key="1" pan="0" len="12"/>
          <note vol="157" pos="11196" key="67" pan="0" len="12"/>
          <note vol="163" pos="11208" key="68" pan="0" len="12"/>
          <note vol="170" pos="11220" key="72" pan="0" len="12"/>
          <note vol="176" pos="11232" key="84" pan="0" len="12"/>
          <note vol="176" pos="11232" key="0" pan="0" len="12"/>
          <note vol="176" pos="11244" key="80" pan="0" len="12"/>
          <note vol="176" pos="11256" key="77" pan="0" len="12"/>
          <note vol="170" pos="11268" key="72" pan="0" len="12"/>
          <note vol="157" pos="11280" key="65" pan="0" len="12"/>
          <note vol="176" pos="11280" key="1" pan="0" len="12"/>
          <note vol="157" pos="11292" key="67" pan="0" len="12"/>
          <note vol="163" pos="11304" key="68" pan="0" len="12"/>
          <note vol="163" pos="11316" key="72" pan="0" len="12"/>
          <note vol="157" pos="11328" key="65" pan="0" len="12"/>
          <note vol="157" pos="11340" key="67" pan="0" len="12"/>
          <note vol="157" pos="11352" key="68" pan="0" len="12"/>
          <note vol="163" pos="11364" key="72" pan="0" len="12"/>
          <note vol="163" pos="11376" key="67" pan="0" len="12"/>
          <note vol="163" pos="11388" key="68" pan="0" len="12"/>
          <note vol="163" pos="11400" key="72" pan="0" len="12"/>
          <note vol="170" pos="11412" key="77" pan="0" len="12"/>
          <note vol="170" pos="11424" key="68" pan="0" len="12"/>
          <note vol="170" pos="11436" key="72" pan="0" len="12"/>
          <note vol="170" pos="11448" key="77" pan="0" len="12"/>
          <note vol="176" pos="11460" key="80" pan="0" len="12"/>
          <note vol="176" pos="11472" key="72" pan="0" len="12"/>
          <note vol="176" pos="11484" key="77" pan="0" len="12"/>
          <note vol="176" pos="11496" key="80" pan="0" len="12"/>
          <note vol="176" pos="11496" key="0" pan="0" len="12"/>
          <note vol="182" pos="11508" key="82" pan="0" len="12"/>
          <note vol="188" pos="11520" key="84" pan="0" len="12"/>
          <note vol="176" pos="11520" key="0" pan="0" len="12"/>
          <note vol="182" pos="11532" key="80" pan="0" len="12"/>
          <note vol="182" pos="11544" key="77" pan="0" len="12"/>
          <note vol="176" pos="11556" key="80" pan="0" len="12"/>
          <note vol="176" pos="11568" key="73" pan="0" len="12"/>
          <note vol="176" pos="11580" key="77" pan="0" len="12"/>
          <note vol="170" pos="11592" key="68" pan="0" len="12"/>
          <note vol="170" pos="11604" key="73" pan="0" len="12"/>
          <note vol="163" pos="11616" key="65" pan="0" len="12"/>
          <note vol="176" pos="11616" key="1" pan="0" len="12"/>
          <note vol="163" pos="11628" key="68" pan="0" len="12"/>
          <note vol="163" pos="11640" key="61" pan="0" len="12"/>
          <note vol="163" pos="11652" key="65" pan="0" len="12"/>
          <note vol="157" pos="11664" key="56" pan="0" len="12"/>
          <note vol="163" pos="11676" key="61" pan="0" len="12"/>
          <note vol="163" pos="11688" key="65" pan="0" len="12"/>
          <note vol="170" pos="11700" key="67" pan="0" len="12"/>
          <note vol="176" pos="11712" key="80" pan="0" len="12"/>
          <note vol="176" pos="11712" key="0" pan="0" len="12"/>
          <note vol="176" pos="11724" key="79" pan="0" len="12"/>
          <note vol="170" pos="11736" key="77" pan="0" len="12"/>
          <note vol="170" pos="11748" key="73" pan="0" len="12"/>
          <note vol="170" pos="11760" key="77" pan="0" len="12"/>
          <note vol="176" pos="11760" key="1" pan="0" len="12"/>
          <note vol="176" pos="11772" key="79" pan="0" len="12"/>
          <note vol="176" pos="11784" key="80" pan="0" len="12"/>
          <note vol="182" pos="11796" key="85" pan="0" len="12"/>
          <note vol="182" pos="11808" key="89" pan="0" len="12"/>
          <note vol="176" pos="11808" key="0" pan="0" len="12"/>
          <note vol="182" pos="11820" key="87" pan="0" len="12"/>
          <note vol="176" pos="11832" key="85" pan="0" len="12"/>
          <note vol="176" pos="11844" key="80" pan="0" len="12"/>
          <note vol="176" pos="11856" key="85" pan="0" len="12"/>
          <note vol="176" pos="11856" key="1" pan="0" len="12"/>
          <note vol="182" pos="11868" key="87" pan="0" len="12"/>
          <note vol="182" pos="11880" key="89" pan="0" len="12"/>
          <note vol="188" pos="11892" key="92" pan="0" len="12"/>
          <note vol="176" pos="11904" key="84" pan="0" len="12"/>
          <note vol="176" pos="11916" key="80" pan="0" len="12"/>
          <note vol="176" pos="11928" key="77" pan="0" len="12"/>
          <note vol="170" pos="11940" key="72" pan="0" len="12"/>
          <note vol="157" pos="11952" key="65" pan="0" len="12"/>
          <note vol="157" pos="11964" key="67" pan="0" len="12"/>
          <note vol="163" pos="11976" key="68" pan="0" len="12"/>
          <note vol="170" pos="11988" key="72" pan="0" len="12"/>
          <note vol="176" pos="12000" key="84" pan="0" len="12"/>
          <note vol="176" pos="12012" key="80" pan="0" len="12"/>
          <note vol="176" pos="12024" key="77" pan="0" len="12"/>
          <note vol="170" pos="12036" key="72" pan="0" len="12"/>
          <note vol="157" pos="12048" key="65" pan="0" len="12"/>
          <note vol="157" pos="12060" key="67" pan="0" len="12"/>
          <note vol="163" pos="12072" key="68" pan="0" len="12"/>
          <note vol="163" pos="12084" key="72" pan="0" len="12"/>
          <note vol="157" pos="12096" key="65" pan="0" len="12"/>
          <note vol="157" pos="12108" key="67" pan="0" len="12"/>
          <note vol="157" pos="12120" key="68" pan="0" len="12"/>
          <note vol="163" pos="12132" key="72" pan="0" len="12"/>
          <note vol="163" pos="12144" key="67" pan="0" len="12"/>
          <note vol="163" pos="12156" key="68" pan="0" len="12"/>
          <note vol="163" pos="12168" key="72" pan="0" len="12"/>
          <note vol="170" pos="12180" key="77" pan="0" len="12"/>
          <note vol="170" pos="12192" key="68" pan="0" len="12"/>
          <note vol="170" pos="12204" key="72" pan="0" len="12"/>
          <note vol="170" pos="12216" key="77" pan="0" len="12"/>
          <note vol="176" pos="12228" key="80" pan="0" len="12"/>
          <note vol="176" pos="12240" key="72" pan="0" len="12"/>
          <note vol="176" pos="12252" key="77" pan="0" len="12"/>
          <note vol="176" pos="12264" key="80" pan="0" len="12"/>
          <note vol="182" pos="12276" key="82" pan="0" len="12"/>
          <note vol="188" pos="12288" key="84" pan="0" len="12"/>
          <note vol="182" pos="12300" key="80" pan="0" len="12"/>
          <note vol="182" pos="12312" key="77" pan="0" len="12"/>
          <note vol="176" pos="12324" key="80" pan="0" len="12"/>
          <note vol="176" pos="12336" key="73" pan="0" len="12"/>
          <note vol="176" pos="12348" key="77" pan="0" len="12"/>
          <note vol="170" pos="12360" key="68" pan="0" len="12"/>
          <note vol="170" pos="12372" key="73" pan="0" len="12"/>
          <note vol="163" pos="12384" key="65" pan="0" len="12"/>
          <note vol="163" pos="12396" key="68" pan="0" len="12"/>
          <note vol="163" pos="12408" key="61" pan="0" len="12"/>
          <note vol="163" pos="12420" key="65" pan="0" len="12"/>
          <note vol="157" pos="12432" key="56" pan="0" len="12"/>
          <note vol="163" pos="12444" key="61" pan="0" len="12"/>
          <note vol="163" pos="12456" key="65" pan="0" len="12"/>
          <note vol="170" pos="12468" key="67" pan="0" len="12"/>
          <note vol="176" pos="12480" key="80" pan="0" len="12"/>
          <note vol="176" pos="12492" key="79" pan="0" len="12"/>
          <note vol="170" pos="12504" key="77" pan="0" len="12"/>
          <note vol="170" pos="12516" key="73" pan="0" len="12"/>
          <note vol="170" pos="12528" key="77" pan="0" len="12"/>
          <note vol="176" pos="12540" key="79" pan="0" len="12"/>
          <note vol="176" pos="12552" key="80" pan="0" len="12"/>
          <note vol="182" pos="12564" key="85" pan="0" len="12"/>
          <note vol="182" pos="12576" key="89" pan="0" len="12"/>
          <note vol="182" pos="12588" key="87" pan="0" len="12"/>
          <note vol="176" pos="12600" key="85" pan="0" len="12"/>
          <note vol="176" pos="12612" key="80" pan="0" len="12"/>
          <note vol="176" pos="12624" key="85" pan="0" len="12"/>
          <note vol="182" pos="12636" key="87" pan="0" len="12"/>
          <note vol="182" pos="12648" key="89" pan="0" len="12"/>
          <note vol="188" pos="12660" key="92" pan="0" len="12"/>
        </pattern>
        <pattern pos="29952" name="Lead Guitar S" muted="0" type="1" steps="16">
          <note vol="157" pos="0" key="76" pan="0" len="72"/>
          <note vol="144" pos="72" key="64" pan="0" len="24"/>
          <note vol="144" pos="96" key="66" pan="0" len="24"/>
          <note vol="144" pos="120" key="67" pan="0" len="24"/>
          <note vol="144" pos="144" key="72" pan="0" len="72"/>
          <note vol="144" pos="216" key="71" pan="0" len="72"/>
          <note vol="144" pos="288" key="76" pan="0" len="24"/>
          <note vol="144" pos="312" key="71" pan="0" len="24"/>
          <note vol="144" pos="336" key="76" pan="0" len="24"/>
          <note vol="151" pos="360" key="78" pan="0" len="24"/>
          <note vol="157" pos="384" key="79" pan="0" len="24"/>
          <note vol="151" pos="408" key="78" pan="0" len="24"/>
          <note vol="144" pos="432" key="74" pan="0" len="24"/>
          <note vol="144" pos="456" key="69" pan="0" len="24"/>
          <note vol="144" pos="480" key="67" pan="0" len="24"/>
          <note vol="144" pos="504" key="66" pan="0" len="24"/>
          <note vol="138" pos="528" key="62" pan="0" len="48"/>
          <note vol="151" pos="600" key="62" pan="0" len="23"/>
          <note vol="151" pos="624" key="71" pan="0" len="23"/>
          <note vol="151" pos="648" key="67" pan="0" len="23"/>
          <note vol="151" pos="672" key="64" pan="0" len="23"/>
          <note vol="157" pos="696" key="66" pan="0" len="23"/>
          <note vol="151" pos="720" key="74" pan="0" len="12"/>
          <note vol="151" pos="732" key="76" pan="0" len="11"/>
          <note vol="157" pos="744" key="74" pan="0" len="23"/>
          <note vol="157" pos="768" key="67" pan="0" len="24"/>
          <note vol="132" pos="792" key="59" pan="0" len="24"/>
          <note vol="144" pos="816" key="64" pan="0" len="24"/>
          <note vol="151" pos="840" key="66" pan="0" len="24"/>
          <note vol="151" pos="864" key="59" pan="0" len="24"/>
          <note vol="151" pos="888" key="64" pan="0" len="24"/>
          <note vol="163" pos="912" key="67" pan="0" len="24"/>
          <note vol="151" pos="936" key="59" pan="0" len="24"/>
          <note vol="151" pos="960" key="64" pan="0" len="24"/>
          <note vol="163" pos="984" key="71" pan="0" len="24"/>
          <note vol="151" pos="1008" key="64" pan="0" len="24"/>
          <note vol="151" pos="1032" key="67" pan="0" len="24"/>
          <note vol="163" pos="1056" key="76" pan="0" len="24"/>
          <note vol="157" pos="1080" key="71" pan="0" len="24"/>
          <note vol="151" pos="1104" key="76" pan="0" len="24"/>
          <note vol="163" pos="1128" key="78" pan="0" len="24"/>
          <note vol="168" pos="1152" key="79" pan="0" len="24"/>
          <note vol="151" pos="1176" key="71" pan="0" len="24"/>
          <note vol="157" pos="1200" key="76" pan="0" len="24"/>
          <note vol="168" pos="1224" key="83" pan="0" len="48"/>
          <note vol="157" pos="1224" key="71" pan="0" len="48"/>
          <note vol="168" pos="1272" key="81" pan="0" len="48"/>
          <note vol="157" pos="1272" key="69" pan="0" len="48"/>
          <note vol="168" pos="1320" key="78" pan="0" len="48"/>
          <note vol="151" pos="1320" key="66" pan="0" len="48"/>
          <note vol="151" pos="1368" key="69" pan="0" len="24"/>
          <note vol="151" pos="1392" key="76" pan="0" len="24"/>
          <note vol="151" pos="1416" key="78" pan="0" len="24"/>
          <note vol="151" pos="1440" key="79" pan="0" len="72"/>
          <note vol="144" pos="1512" key="78" pan="0" len="84"/>
          <note vol="125" pos="1596" key="64" pan="0" len="400"/>
          <note vol="138" pos="1604" key="67" pan="0" len="392"/>
          <note vol="138" pos="1612" key="71" pan="0" len="384"/>
          <note vol="144" pos="1614" key="76" pan="0" len="382"/>
        </pattern>
        <pattern pos="20736" name="Lead Guitar S" muted="0" type="1" steps="16">
          <note vol="170" pos="0" key="67" pan="0" len="192"/>
          <note vol="170" pos="0" key="0" pan="0" len="192"/>
          <note vol="170" pos="192" key="65" pan="0" len="96"/>
          <note vol="170" pos="288" key="68" pan="0" len="96"/>
          <note vol="197" pos="720" key="0" pan="0" len="23"/>
          <note vol="170" pos="768" key="68" pan="0" len="96"/>
          <note vol="170" pos="864" key="75" pan="0" len="96"/>
          <note vol="170" pos="960" key="74" pan="0" len="96"/>
          <note vol="170" pos="1056" key="68" pan="0" len="48"/>
          <note vol="170" pos="1104" key="70" pan="0" len="48"/>
          <note vol="197" pos="1476" key="0" pan="0" len="23"/>
          <note vol="176" pos="1536" key="67" pan="0" len="192"/>
          <note vol="176" pos="1728" key="65" pan="0" len="96"/>
          <note vol="176" pos="1824" key="68" pan="0" len="96"/>
          <note vol="197" pos="2016" key="0" pan="0" len="23"/>
          <note vol="176" pos="2304" key="68" pan="0" len="96"/>
          <note vol="151" pos="2304" key="0" pan="0" len="12"/>
          <note vol="176" pos="2400" key="75" pan="0" len="96"/>
          <note vol="182" pos="2496" key="74" pan="0" len="96"/>
          <note vol="182" pos="2592" key="77" pan="0" len="96"/>
          <note vol="170" pos="2688" key="79" pan="0" len="12"/>
          <note vol="151" pos="2688" key="0" pan="0" len="12"/>
          <note vol="163" pos="2700" key="80" pan="0" len="12"/>
          <note vol="163" pos="2712" key="79" pan="0" len="12"/>
          <note vol="163" pos="2724" key="77" pan="0" len="12"/>
          <note vol="170" pos="2736" key="75" pan="0" len="12"/>
          <note vol="151" pos="2736" key="1" pan="0" len="12"/>
          <note vol="157" pos="2748" key="77" pan="0" len="12"/>
          <note vol="151" pos="2760" key="75" pan="0" len="12"/>
          <note vol="151" pos="2772" key="74" pan="0" len="12"/>
          <note vol="151" pos="2784" key="70" pan="0" len="12"/>
          <note vol="151" pos="2784" key="0" pan="0" len="12"/>
          <note vol="157" pos="2796" key="75" pan="0" len="12"/>
          <note vol="157" pos="2808" key="79" pan="0" len="12"/>
          <note vol="163" pos="2820" key="82" pan="0" len="12"/>
          <note vol="157" pos="2832" key="79" pan="0" len="12"/>
          <note vol="151" pos="2832" key="1" pan="0" len="12"/>
          <note vol="151" pos="2844" key="75" pan="0" len="12"/>
          <note vol="144" pos="2856" key="74" pan="0" len="12"/>
          <note vol="144" pos="2868" key="75" pan="0" len="12"/>
          <note vol="170" pos="2880" key="74" pan="0" len="12"/>
          <note vol="157" pos="2892" key="77" pan="0" len="12"/>
          <note vol="157" pos="2904" key="74" pan="0" len="12"/>
          <note vol="157" pos="2916" key="71" pan="0" len="12"/>
          <note vol="163" pos="2928" key="67" pan="0" len="12"/>
          <note vol="151" pos="2940" key="71" pan="0" len="12"/>
          <note vol="151" pos="2952" key="67" pan="0" len="12"/>
          <note vol="151" pos="2964" key="62" pan="0" len="12"/>
          <note vol="151" pos="2976" key="59" pan="0" len="12"/>
          <note vol="151" pos="2988" key="62" pan="0" len="12"/>
          <note vol="151" pos="3000" key="67" pan="0" len="12"/>
          <note vol="144" pos="3012" key="71" pan="0" len="12"/>
          <note vol="157" pos="3024" key="67" pan="0" len="12"/>
          <note vol="151" pos="3024" key="0" pan="0" len="12"/>
          <note vol="157" pos="3036" key="74" pan="0" len="12"/>
          <note vol="157" pos="3048" key="79" pan="0" len="12"/>
          <note vol="157" pos="3060" key="83" pan="0" len="12"/>
          <note vol="170" pos="3072" key="84" pan="0" len="756"/>
        </pattern>
        <pattern pos="20160" name="Lead Guitar S" muted="0" type="1" steps="16">
          <note vol="151" pos="96" key="72" pan="0" len="12"/>
          <note vol="151" pos="108" key="70" pan="0" len="12"/>
          <note vol="157" pos="120" key="72" pan="0" len="12"/>
          <note vol="157" pos="132" key="74" pan="0" len="12"/>
          <note vol="163" pos="144" key="75" pan="0" len="12"/>
          <note vol="163" pos="156" key="74" pan="0" len="12"/>
          <note vol="163" pos="168" key="72" pan="0" len="12"/>
          <note vol="163" pos="180" key="74" pan="0" len="12"/>
          <note vol="170" pos="192" key="77" pan="0" len="12"/>
          <note vol="170" pos="204" key="74" pan="0" len="12"/>
          <note vol="170" pos="216" key="71" pan="0" len="12"/>
          <note vol="170" pos="228" key="74" pan="0" len="12"/>
          <note vol="163" pos="240" key="71" pan="0" len="12"/>
          <note vol="163" pos="252" key="68" pan="0" len="12"/>
          <note vol="163" pos="264" key="65" pan="0" len="12"/>
          <note vol="163" pos="276" key="68" pan="0" len="12"/>
          <note vol="157" pos="288" key="65" pan="0" len="12"/>
          <note vol="157" pos="300" key="62" pan="0" len="12"/>
          <note vol="157" pos="312" key="59" pan="0" len="12"/>
          <note vol="157" pos="324" key="62" pan="0" len="12"/>
          <note vol="151" pos="336" key="59" pan="0" len="12"/>
          <note vol="151" pos="348" key="56" pan="0" len="12"/>
          <note vol="151" pos="360" key="53" pan="0" len="12"/>
          <note vol="151" pos="372" key="56" pan="0" len="12"/>
          <note vol="151" pos="384" key="55" pan="0" len="12"/>
          <note vol="151" pos="396" key="57" pan="0" len="12"/>
          <note vol="157" pos="408" key="59" pan="0" len="12"/>
          <note vol="157" pos="420" key="62" pan="0" len="12"/>
          <note vol="163" pos="432" key="59" pan="0" len="12"/>
          <note vol="163" pos="444" key="62" pan="0" len="12"/>
          <note vol="163" pos="456" key="65" pan="0" len="12"/>
          <note vol="170" pos="468" key="68" pan="0" len="12"/>
          <note vol="176" pos="480" key="67" pan="0" len="24"/>
        </pattern>
        <pattern pos="15744" name="Lead Guitar S" muted="0" type="1" steps="16">
          <note vol="170" pos="0" key="75" pan="0" len="24"/>
          <note vol="144" pos="0" key="0" pan="0" len="382"/>
          <note vol="151" pos="24" key="67" pan="0" len="24"/>
          <note vol="157" pos="48" key="72" pan="0" len="24"/>
          <note vol="163" pos="72" key="74" pan="0" len="24"/>
          <note vol="170" pos="96" key="75" pan="0" len="24"/>
          <note vol="151" pos="120" key="67" pan="0" len="24"/>
          <note vol="157" pos="144" key="72" pan="0" len="24"/>
          <note vol="163" pos="168" key="75" pan="0" len="24"/>
          <note vol="170" pos="192" key="74" pan="0" len="24"/>
          <note vol="157" pos="216" key="65" pan="0" len="24"/>
          <note vol="157" pos="240" key="70" pan="0" len="24"/>
          <note vol="170" pos="264" key="72" pan="0" len="48"/>
          <note vol="138" pos="312" key="63" pan="0" len="24"/>
          <note vol="157" pos="336" key="70" pan="0" len="24"/>
          <note vol="151" pos="360" key="68" pan="0" len="24"/>
          <note vol="157" pos="384" key="70" pan="0" len="24"/>
          <note vol="144" pos="408" key="58" pan="0" len="24"/>
          <note vol="163" pos="432" key="63" pan="0" len="24"/>
          <note vol="144" pos="456" key="58" pan="0" len="24"/>
          <note vol="163" pos="480" key="63" pan="0" len="24"/>
          <note vol="163" pos="504" key="65" pan="0" len="24"/>
          <note vol="163" pos="528" key="67" pan="0" len="24"/>
          <note vol="170" pos="552" key="70" pan="0" len="24"/>
          <note vol="163" pos="576" key="68" pan="0" len="24"/>
          <note vol="151" pos="600" key="60" pan="0" len="24"/>
          <note vol="163" pos="624" key="65" pan="0" len="24"/>
          <note vol="170" pos="648" key="67" pan="0" len="48"/>
          <note vol="151" pos="696" key="60" pan="0" len="24"/>
          <note vol="157" pos="720" key="62" pan="0" len="24"/>
          <note vol="157" pos="744" key="63" pan="0" len="24"/>
          <note vol="170" pos="768" key="75" pan="0" len="24"/>
          <note vol="151" pos="792" key="67" pan="0" len="24"/>
          <note vol="157" pos="816" key="72" pan="0" len="24"/>
          <note vol="163" pos="840" key="74" pan="0" len="24"/>
          <note vol="170" pos="864" key="75" pan="0" len="24"/>
          <note vol="151" pos="888" key="67" pan="0" len="24"/>
          <note vol="157" pos="912" key="72" pan="0" len="24"/>
          <note vol="163" pos="936" key="75" pan="0" len="24"/>
          <note vol="170" pos="960" key="74" pan="0" len="24"/>
          <note vol="157" pos="984" key="65" pan="0" len="24"/>
          <note vol="170" pos="1008" key="79" pan="0" len="24"/>
          <note vol="170" pos="1032" key="72" pan="0" len="48"/>
          <note vol="138" pos="1080" key="63" pan="0" len="24"/>
          <note vol="157" pos="1104" key="70" pan="0" len="24"/>
          <note vol="151" pos="1128" key="68" pan="0" len="24"/>
          <note vol="157" pos="1152" key="70" pan="0" len="24"/>
          <note vol="144" pos="1176" key="58" pan="0" len="24"/>
          <note vol="163" pos="1200" key="63" pan="0" len="24"/>
          <note vol="144" pos="1224" key="58" pan="0" len="24"/>
          <note vol="163" pos="1248" key="63" pan="0" len="24"/>
          <note vol="163" pos="1272" key="65" pan="0" len="24"/>
          <note vol="163" pos="1296" key="67" pan="0" len="24"/>
          <note vol="170" pos="1320" key="70" pan="0" len="24"/>
          <note vol="163" pos="1344" key="68" pan="0" len="24"/>
          <note vol="151" pos="1368" key="60" pan="0" len="24"/>
          <note vol="163" pos="1392" key="65" pan="0" len="24"/>
          <note vol="170" pos="1416" key="72" pan="0" len="48"/>
          <note vol="163" pos="1464" key="75" pan="0" len="24"/>
          <note vol="163" pos="1488" key="74" pan="0" len="24"/>
          <note vol="163" pos="1512" key="72" pan="0" len="24"/>
        </pattern>
      </track>
      <track solo="0" name="lgtH1" muted="1" type="0">
        <instrumenttrack vol="200" pitchrange="1" fxch="12" pitch="0" pan="-100" usemasterpitch="1" basenote="57">
          <instrument name="carlapatchbay">
            <carlapatchbay>
              <CARLA-PROJECT VERSION="2.2">
                <EngineSettings>
                  <ForceStereo>false</ForceStereo>
                  <PreferPluginBridges>false</PreferPluginBridges>
                  <PreferUiBridges>true</PreferUiBridges>
                  <UIsAlwaysOnTop>false</UIsAlwaysOnTop>
                  <MaxParameters>200</MaxParameters>
                  <UIBridgesTimeout>4000</UIBridgesTimeout>
                  <LADSPA_PATH>/home/pass/.ladspa:/usr/lib/ladspa:/usr/local/lib/ladspa</LADSPA_PATH>
                  <DSSI_PATH>/home/pass/.dssi:/usr/lib/dssi:/usr/local/lib/dssi</DSSI_PATH>
                  <LV2_PATH>/home/pass/.lv2:/usr/lib/lv2:/usr/local/lib/lv2</LV2_PATH>
                  <VST2_PATH>/home/pass/.vst:/home/pass/.wine/drive_c/Program Files (x86)/VstPlugins:/home/pass/.wine/drive_c/Program Files/VstPlugins:/usr/lib/lxvst:/usr/lib/vst:/usr/local/lib/lxvst:/usr/local/lib/vst/home/pass/.lxvst:/home/pass/vst</VST2_PATH>
                  <VST3_PATH>/home/pass/.vst3:/home/pass/.wine/drive_c/Program Files (x86)/Common Files/VST3:/home/pass/.wine/drive_c/Program Files/Common Files/VST3:/usr/lib/vst3:/usr/local/lib/vst3</VST3_PATH>
                  <SF2_PATH>/home/pass/.sounds/sf2/home/pass/.sounds/sf3:/usr/share/soundfonts:/usr/share/sounds/sf2:/usr/share/sounds/sf3</SF2_PATH>
                  <SFZ_PATH>/home/pass/.sounds/sfz:/home/pass/samples:/usr/share/sounds/sfz</SFZ_PATH>
                </EngineSettings>
                <!-- sfizz -->
                <Plugin>
                  <Info>
                    <Type>LV2</Type>
                    <Name>sfizz</Name>
                    <URI>http://sfztools.github.io/sfizz</URI>
                  </Info>
                  <Data>
                    <Active>Yes</Active>
                    <ControlChannel>1</ControlChannel>
                    <Options>0x3f0</Options>
                    <Parameter>
                      <Index>0</Index>
                      <Name>Volume</Name>
                      <Symbol>volume</Symbol>
                      <Value>0</Value>
                    </Parameter>
                    <Parameter>
                      <Index>1</Index>
                      <Name>Polyphony</Name>
                      <Symbol>num_voices</Symbol>
                      <Value>64</Value>
                    </Parameter>
                    <Parameter>
                      <Index>2</Index>
                      <Name>Internal oversampling factor</Name>
                      <Symbol>oversampling</Symbol>
                      <Value>1</Value>
                    </Parameter>
                    <Parameter>
                      <Index>3</Index>
                      <Name>Preload size</Name>
                      <Symbol>preload_size</Symbol>
                      <Value>8192</Value>
                    </Parameter>
                    <CustomData>
                      <Type>http://lv2plug.in/ns/ext/atom#Path</Type>
                      <Key>http://sfztools.github.io/sfizz:sfzfile</Key>
                      <Value>/home/pass/samples/fakeguitar/_fakeguitar1_integrated.sfz</Value>
                    </CustomData>
                    <CustomData>
                      <Type>http://lv2plug.in/ns/ext/atom#Int</Type>
                      <Key>http://sfztools.github.io/sfizz:numvoices</Key>
                      <Value>QAAAAA==</Value>
                    </CustomData>
                    <CustomData>
                      <Type>http://lv2plug.in/ns/ext/atom#Int</Type>
                      <Key>http://sfztools.github.io/sfizz:preload_size</Key>
                      <Value>ACAAAA==</Value>
                    </CustomData>
                    <CustomData>
                      <Type>http://lv2plug.in/ns/ext/atom#Int</Type>
                      <Key>http://sfztools.github.io/sfizz:oversampling</Key>
                      <Value>AQAAAA==</Value>
                    </CustomData>
                  </Data>
                </Plugin>
                <Patchbay>
                  <Connection>
                    <Source>Midi Input:Capture 1</Source>
                    <Target>sfizz:events-in</Target>
                  </Connection>
                  <Connection>
                    <Source>sfizz:Left Output</Source>
                    <Target>Audio Output:Left</Target>
                  </Connection>
                  <Connection>
                    <Source>sfizz:Right Output</Source>
                    <Target>Audio Output:Right</Target>
                  </Connection>
                  <Positions>
                    <Position x1="1693" pluginId="0" y1="1353">
                      <Name>sfizz</Name>
                    </Position>
                  </Positions>
                </Patchbay>
              </CARLA-PROJECT>
            </carlapatchbay>
          </instrument>
          <eldata fcut="14000" ftype="0" fres="0.5" fwet="0">
            <elvol lpdel="0" dec="0.5" lamt="0" rel="0.1" userwavefile="" lspd="0.1" x100="0" latt="0" hold="0.5" lshp="0" sustain="0.5" lspd_numerator="4" att="0" lspd_syncmode="0" amt="0" ctlenvamt="0" lspd_denominator="4" pdel="0"/>
            <elcut lpdel="0" dec="0.5" lamt="0" rel="0.1" userwavefile="" lspd="0.1" x100="0" latt="0" hold="0.5" lshp="0" sustain="0.5" lspd_numerator="4" att="0" lspd_syncmode="0" amt="0" ctlenvamt="0" lspd_denominator="4" pdel="0"/>
            <elres lpdel="0" dec="0.5" lamt="0" rel="0.1" userwavefile="" lspd="0.1" x100="0" latt="0" hold="0.5" lshp="0" sustain="0.5" lspd_numerator="4" att="0" lspd_syncmode="0" amt="0" ctlenvamt="0" lspd_denominator="4" pdel="0"/>
          </eldata>
          <chordcreator chordrange="1" chord-enabled="0" chord="0"/>
          <arpeggiator arp-enabled="0" arptime_denominator="4" arpgate="100" arpskip="0" arptime="200" arpmode="0" arpmiss="0" arptime_numerator="4" arptime_syncmode="0" arprange="1" arp="0" arpdir="0" arpcycle="0"/>
          <midiport outputcontroller="0" readable="0" basevelocity="63" writable="0" outputprogram="1" fixedoutputvelocity="-1" fixedoutputnote="-1" outputchannel="1" inputchannel="0" inputcontroller="0" fixedinputvelocity="-1"/>
          <fxchain numofeffects="0" enabled="0"/>
        </instrumenttrack>
        <pattern pos="6528" name="" muted="0" type="1" steps="16">
          <note vol="151" pos="0" key="75" pan="0" len="72"/>
          <note vol="151" pos="0" key="0" pan="0" len="72"/>
          <note vol="151" pos="72" key="72" pan="0" len="72"/>
          <note vol="151" pos="144" key="75" pan="0" len="72"/>
          <note vol="151" pos="216" key="79" pan="0" len="72"/>
          <note vol="144" pos="288" key="84" pan="0" len="48"/>
          <note vol="144" pos="336" key="86" pan="0" len="48"/>
          <note vol="151" pos="384" key="87" pan="0" len="72"/>
          <note vol="151" pos="456" key="86" pan="0" len="72"/>
          <note vol="151" pos="528" key="82" pan="0" len="72"/>
          <note vol="151" pos="600" key="77" pan="0" len="72"/>
          <note vol="144" pos="672" key="75" pan="0" len="48"/>
          <note vol="144" pos="720" key="74" pan="0" len="48"/>
          <note vol="151" pos="768" key="75" pan="0" len="72"/>
          <note vol="151" pos="840" key="72" pan="0" len="72"/>
          <note vol="151" pos="912" key="75" pan="0" len="72"/>
          <note vol="151" pos="984" key="79" pan="0" len="72"/>
          <note vol="144" pos="1056" key="84" pan="0" len="48"/>
          <note vol="144" pos="1104" key="86" pan="0" len="48"/>
          <note vol="151" pos="1152" key="63" pan="0" len="72"/>
          <note vol="151" pos="1224" key="67" pan="0" len="72"/>
          <note vol="151" pos="1296" key="65" pan="0" len="72"/>
          <note vol="151" pos="1368" key="62" pan="0" len="72"/>
          <note vol="144" pos="1440" key="68" pan="0" len="48"/>
          <note vol="144" pos="1488" key="67" pan="0" len="48"/>
        </pattern>
        <pattern pos="17280" name="" muted="0" type="1" steps="16">
          <note vol="163" pos="0" key="77" pan="0" len="24"/>
          <note vol="163" pos="24" key="69" pan="0" len="24"/>
          <note vol="163" pos="48" key="74" pan="0" len="24"/>
          <note vol="163" pos="72" key="76" pan="0" len="24"/>
          <note vol="163" pos="96" key="77" pan="0" len="24"/>
          <note vol="163" pos="120" key="69" pan="0" len="24"/>
          <note vol="163" pos="144" key="74" pan="0" len="24"/>
          <note vol="163" pos="168" key="77" pan="0" len="24"/>
          <note vol="163" pos="192" key="76" pan="0" len="24"/>
          <note vol="163" pos="216" key="67" pan="0" len="24"/>
          <note vol="163" pos="240" key="72" pan="0" len="24"/>
          <note vol="163" pos="264" key="74" pan="0" len="48"/>
          <note vol="163" pos="312" key="65" pan="0" len="24"/>
          <note vol="163" pos="336" key="72" pan="0" len="24"/>
          <note vol="163" pos="360" key="70" pan="0" len="24"/>
          <note vol="163" pos="384" key="72" pan="0" len="24"/>
          <note vol="163" pos="408" key="60" pan="0" len="24"/>
          <note vol="163" pos="432" key="65" pan="0" len="24"/>
          <note vol="163" pos="456" key="60" pan="0" len="24"/>
          <note vol="163" pos="480" key="65" pan="0" len="24"/>
          <note vol="163" pos="504" key="67" pan="0" len="24"/>
          <note vol="163" pos="528" key="69" pan="0" len="24"/>
          <note vol="163" pos="552" key="72" pan="0" len="24"/>
          <note vol="163" pos="576" key="70" pan="0" len="24"/>
          <note vol="163" pos="600" key="62" pan="0" len="24"/>
          <note vol="163" pos="624" key="67" pan="0" len="24"/>
          <note vol="163" pos="648" key="69" pan="0" len="48"/>
          <note vol="163" pos="696" key="62" pan="0" len="24"/>
          <note vol="163" pos="720" key="64" pan="0" len="24"/>
          <note vol="163" pos="744" key="65" pan="0" len="24"/>
          <note vol="163" pos="768" key="77" pan="0" len="24"/>
          <note vol="163" pos="792" key="69" pan="0" len="24"/>
          <note vol="163" pos="816" key="74" pan="0" len="24"/>
          <note vol="163" pos="840" key="76" pan="0" len="24"/>
          <note vol="163" pos="864" key="77" pan="0" len="24"/>
          <note vol="163" pos="888" key="69" pan="0" len="24"/>
          <note vol="163" pos="912" key="74" pan="0" len="24"/>
          <note vol="163" pos="936" key="77" pan="0" len="24"/>
          <note vol="163" pos="960" key="76" pan="0" len="24"/>
          <note vol="163" pos="984" key="67" pan="0" len="24"/>
          <note vol="163" pos="1008" key="81" pan="0" len="24"/>
          <note vol="163" pos="1032" key="74" pan="0" len="48"/>
          <note vol="163" pos="1080" key="65" pan="0" len="24"/>
          <note vol="163" pos="1104" key="72" pan="0" len="24"/>
          <note vol="163" pos="1128" key="70" pan="0" len="24"/>
          <note vol="163" pos="1152" key="72" pan="0" len="24"/>
          <note vol="163" pos="1176" key="60" pan="0" len="24"/>
          <note vol="163" pos="1200" key="65" pan="0" len="24"/>
          <note vol="163" pos="1224" key="60" pan="0" len="24"/>
          <note vol="163" pos="1248" key="65" pan="0" len="24"/>
          <note vol="163" pos="1272" key="67" pan="0" len="24"/>
          <note vol="163" pos="1296" key="69" pan="0" len="24"/>
          <note vol="163" pos="1320" key="72" pan="0" len="24"/>
          <note vol="163" pos="1344" key="70" pan="0" len="24"/>
          <note vol="163" pos="1368" key="62" pan="0" len="24"/>
          <note vol="163" pos="1392" key="67" pan="0" len="24"/>
          <note vol="163" pos="1416" key="74" pan="0" len="48"/>
          <note vol="163" pos="1464" key="77" pan="0" len="24"/>
          <note vol="163" pos="1488" key="76" pan="0" len="24"/>
          <note vol="163" pos="1512" key="74" pan="0" len="24"/>
          <note vol="163" pos="1536" key="77" pan="0" len="24"/>
          <note vol="163" pos="1560" key="69" pan="0" len="24"/>
          <note vol="163" pos="1584" key="74" pan="0" len="24"/>
          <note vol="163" pos="1608" key="76" pan="0" len="24"/>
          <note vol="163" pos="1632" key="77" pan="0" len="24"/>
          <note vol="163" pos="1656" key="69" pan="0" len="24"/>
          <note vol="163" pos="1680" key="74" pan="0" len="24"/>
          <note vol="163" pos="1704" key="77" pan="0" len="24"/>
          <note vol="163" pos="1728" key="76" pan="0" len="24"/>
          <note vol="163" pos="1752" key="67" pan="0" len="24"/>
          <note vol="163" pos="1776" key="72" pan="0" len="24"/>
          <note vol="163" pos="1800" key="74" pan="0" len="48"/>
          <note vol="163" pos="1848" key="65" pan="0" len="24"/>
          <note vol="163" pos="1872" key="72" pan="0" len="24"/>
          <note vol="163" pos="1896" key="70" pan="0" len="24"/>
          <note vol="163" pos="1920" key="72" pan="0" len="24"/>
          <note vol="163" pos="1944" key="60" pan="0" len="24"/>
          <note vol="163" pos="1968" key="65" pan="0" len="24"/>
          <note vol="163" pos="1992" key="60" pan="0" len="24"/>
          <note vol="163" pos="2016" key="65" pan="0" len="24"/>
          <note vol="163" pos="2040" key="67" pan="0" len="24"/>
          <note vol="163" pos="2064" key="69" pan="0" len="24"/>
          <note vol="163" pos="2088" key="72" pan="0" len="24"/>
          <note vol="163" pos="2112" key="70" pan="0" len="24"/>
          <note vol="163" pos="2136" key="62" pan="0" len="24"/>
          <note vol="163" pos="2160" key="67" pan="0" len="24"/>
          <note vol="163" pos="2184" key="69" pan="0" len="48"/>
          <note vol="163" pos="2232" key="62" pan="0" len="24"/>
          <note vol="163" pos="2256" key="64" pan="0" len="24"/>
          <note vol="163" pos="2280" key="65" pan="0" len="24"/>
          <note vol="163" pos="2304" key="77" pan="0" len="24"/>
          <note vol="163" pos="2328" key="69" pan="0" len="24"/>
          <note vol="163" pos="2352" key="74" pan="0" len="24"/>
          <note vol="163" pos="2376" key="76" pan="0" len="24"/>
          <note vol="163" pos="2400" key="77" pan="0" len="24"/>
          <note vol="163" pos="2424" key="69" pan="0" len="24"/>
          <note vol="163" pos="2448" key="74" pan="0" len="24"/>
          <note vol="163" pos="2472" key="77" pan="0" len="24"/>
          <note vol="163" pos="2496" key="76" pan="0" len="24"/>
          <note vol="163" pos="2520" key="67" pan="0" len="24"/>
          <note vol="163" pos="2544" key="81" pan="0" len="24"/>
          <note vol="163" pos="2568" key="74" pan="0" len="48"/>
          <note vol="163" pos="2616" key="65" pan="0" len="24"/>
          <note vol="163" pos="2640" key="72" pan="0" len="24"/>
          <note vol="163" pos="2664" key="70" pan="0" len="24"/>
          <note vol="163" pos="2688" key="72" pan="0" len="24"/>
          <note vol="163" pos="2712" key="60" pan="0" len="24"/>
          <note vol="163" pos="2736" key="65" pan="0" len="24"/>
          <note vol="163" pos="2760" key="60" pan="0" len="24"/>
          <note vol="163" pos="2784" key="65" pan="0" len="24"/>
          <note vol="163" pos="2808" key="67" pan="0" len="24"/>
          <note vol="163" pos="2832" key="69" pan="0" len="24"/>
          <note vol="163" pos="2856" key="72" pan="0" len="24"/>
          <note vol="163" pos="2880" key="70" pan="0" len="24"/>
          <note vol="163" pos="2904" key="62" pan="0" len="24"/>
          <note vol="163" pos="2928" key="67" pan="0" len="24"/>
          <note vol="163" pos="2952" key="74" pan="0" len="24"/>
          <note vol="163" pos="2952" key="62" pan="0" len="24"/>
        </pattern>
        <pattern pos="25344" name="lgtH1" muted="0" type="1" steps="16">
          <note vol="176" pos="0" key="74" pan="0" len="72"/>
          <note vol="197" pos="0" key="0" pan="0" len="23"/>
          <note vol="176" pos="72" key="62" pan="0" len="72"/>
          <note vol="176" pos="144" key="65" pan="0" len="72"/>
          <note vol="176" pos="216" key="69" pan="0" len="72"/>
          <note vol="170" pos="288" key="74" pan="0" len="48"/>
          <note vol="170" pos="336" key="76" pan="0" len="48"/>
          <note vol="176" pos="384" key="77" pan="0" len="72"/>
          <note vol="176" pos="456" key="76" pan="0" len="72"/>
          <note vol="176" pos="528" key="72" pan="0" len="72"/>
          <note vol="176" pos="600" key="67" pan="0" len="72"/>
          <note vol="170" pos="672" key="65" pan="0" len="48"/>
          <note vol="170" pos="720" key="67" pan="0" len="48"/>
          <note vol="176" pos="768" key="69" pan="0" len="72"/>
          <note vol="176" pos="840" key="62" pan="0" len="72"/>
          <note vol="176" pos="912" key="65" pan="0" len="72"/>
          <note vol="176" pos="984" key="69" pan="0" len="72"/>
          <note vol="170" pos="1056" key="74" pan="0" len="48"/>
          <note vol="170" pos="1104" key="76" pan="0" len="48"/>
          <note vol="176" pos="1152" key="77" pan="0" len="72"/>
          <note vol="176" pos="1224" key="81" pan="0" len="72"/>
          <note vol="176" pos="1296" key="79" pan="0" len="72"/>
          <note vol="176" pos="1368" key="76" pan="0" len="72"/>
          <note vol="170" pos="1440" key="82" pan="0" len="48"/>
          <note vol="170" pos="1488" key="81" pan="0" len="48"/>
        </pattern>
        <pattern pos="26880" name="lgtH1" muted="0" type="1" steps="16">
          <note vol="170" pos="0" key="76" pan="0" len="72"/>
          <note vol="170" pos="72" key="64" pan="0" len="72"/>
          <note vol="170" pos="144" key="67" pan="0" len="72"/>
          <note vol="170" pos="216" key="71" pan="0" len="72"/>
          <note vol="163" pos="288" key="76" pan="0" len="48"/>
          <note vol="163" pos="336" key="78" pan="0" len="48"/>
          <note vol="170" pos="384" key="79" pan="0" len="72"/>
          <note vol="170" pos="456" key="78" pan="0" len="72"/>
          <note vol="170" pos="528" key="74" pan="0" len="72"/>
          <note vol="170" pos="600" key="69" pan="0" len="72"/>
          <note vol="163" pos="672" key="67" pan="0" len="48"/>
          <note vol="163" pos="720" key="69" pan="0" len="48"/>
          <note vol="170" pos="768" key="71" pan="0" len="72"/>
          <note vol="170" pos="840" key="64" pan="0" len="72"/>
          <note vol="170" pos="912" key="67" pan="0" len="72"/>
          <note vol="170" pos="984" key="71" pan="0" len="72"/>
          <note vol="163" pos="1056" key="76" pan="0" len="48"/>
          <note vol="163" pos="1104" key="78" pan="0" len="48"/>
          <note vol="170" pos="1152" key="79" pan="0" len="72"/>
          <note vol="170" pos="1224" key="83" pan="0" len="72"/>
          <note vol="170" pos="1296" key="81" pan="0" len="72"/>
          <note vol="170" pos="1368" key="79" pan="0" len="72"/>
          <note vol="170" pos="1440" key="78" pan="0" len="48"/>
          <note vol="163" pos="1488" key="79" pan="0" len="48"/>
          <note vol="170" pos="1536" key="76" pan="0" len="72"/>
          <note vol="170" pos="1608" key="64" pan="0" len="72"/>
          <note vol="170" pos="1680" key="67" pan="0" len="72"/>
          <note vol="170" pos="1752" key="71" pan="0" len="72"/>
          <note vol="163" pos="1824" key="76" pan="0" len="48"/>
          <note vol="163" pos="1872" key="78" pan="0" len="48"/>
          <note vol="176" pos="1920" key="79" pan="0" len="72"/>
          <note vol="176" pos="1992" key="78" pan="0" len="72"/>
          <note vol="176" pos="2064" key="74" pan="0" len="72"/>
          <note vol="176" pos="2136" key="69" pan="0" len="72"/>
          <note vol="170" pos="2208" key="67" pan="0" len="48"/>
          <note vol="170" pos="2256" key="69" pan="0" len="48"/>
          <note vol="176" pos="2304" key="71" pan="0" len="72"/>
          <note vol="176" pos="2376" key="64" pan="0" len="72"/>
          <note vol="176" pos="2448" key="67" pan="0" len="72"/>
          <note vol="176" pos="2520" key="71" pan="0" len="72"/>
          <note vol="182" pos="2592" key="76" pan="0" len="48"/>
          <note vol="182" pos="2640" key="78" pan="0" len="48"/>
          <note vol="182" pos="2688" key="79" pan="0" len="72"/>
          <note vol="182" pos="2760" key="83" pan="0" len="72"/>
          <note vol="182" pos="2832" key="81" pan="0" len="72"/>
          <note vol="182" pos="2904" key="79" pan="0" len="72"/>
          <note vol="176" pos="2976" key="78" pan="0" len="48"/>
          <note vol="170" pos="3024" key="79" pan="0" len="48"/>
        </pattern>
        <pattern pos="13824" name="lgtH1" muted="0" type="1" steps="16">
          <note vol="157" pos="0" key="47" pan="0" len="12"/>
          <note vol="182" pos="0" key="1" pan="0" len="12"/>
          <note vol="157" pos="12" key="44" pan="0" len="12"/>
          <note vol="157" pos="24" key="50" pan="0" len="12"/>
          <note vol="157" pos="36" key="47" pan="0" len="12"/>
          <note vol="163" pos="48" key="53" pan="0" len="12"/>
          <note vol="163" pos="60" key="50" pan="0" len="12"/>
          <note vol="163" pos="72" key="56" pan="0" len="12"/>
          <note vol="163" pos="84" key="53" pan="0" len="12"/>
          <note vol="170" pos="96" key="59" pan="0" len="12"/>
          <note vol="170" pos="108" key="56" pan="0" len="12"/>
          <note vol="170" pos="120" key="62" pan="0" len="12"/>
          <note vol="170" pos="132" key="59" pan="0" len="12"/>
          <note vol="170" pos="144" key="65" pan="0" len="12"/>
          <note vol="170" pos="156" key="62" pan="0" len="12"/>
          <note vol="170" pos="168" key="68" pan="0" len="12"/>
          <note vol="170" pos="180" key="65" pan="0" len="12"/>
          <note vol="176" pos="192" key="71" pan="0" len="12"/>
          <note vol="170" pos="204" key="68" pan="0" len="12"/>
          <note vol="176" pos="216" key="74" pan="0" len="12"/>
          <note vol="170" pos="228" key="71" pan="0" len="12"/>
          <note vol="176" pos="240" key="77" pan="0" len="12"/>
          <note vol="182" pos="240" key="0" pan="0" len="12"/>
          <note vol="170" pos="252" key="74" pan="0" len="12"/>
          <note vol="182" pos="264" key="80" pan="0" len="12"/>
          <note vol="170" pos="276" key="77" pan="0" len="12"/>
          <note vol="182" pos="288" key="83" pan="0" len="12"/>
          <note vol="182" pos="300" key="80" pan="0" len="12"/>
          <note vol="182" pos="312" key="79" pan="0" len="12"/>
          <note vol="182" pos="324" key="77" pan="0" len="12"/>
          <note vol="182" pos="336" key="80" pan="0" len="12"/>
          <note vol="182" pos="348" key="79" pan="0" len="12"/>
          <note vol="182" pos="360" key="77" pan="0" len="12"/>
          <note vol="182" pos="372" key="79" pan="0" len="12"/>
        </pattern>
        <pattern pos="1536" name="lgtH1" muted="0" type="1" steps="16">
          <note vol="157" pos="0" key="68" pan="0" len="12"/>
          <note vol="157" pos="0" key="12" pan="0" len="12"/>
          <note vol="151" pos="12" key="63" pan="0" len="12"/>
          <note vol="151" pos="24" key="68" pan="0" len="12"/>
          <note vol="151" pos="36" key="72" pan="0" len="12"/>
          <note vol="163" pos="48" key="71" pan="0" len="12"/>
          <note vol="151" pos="60" key="63" pan="0" len="12"/>
          <note vol="151" pos="72" key="71" pan="0" len="12"/>
          <note vol="157" pos="84" key="74" pan="0" len="12"/>
          <note vol="170" pos="96" key="72" pan="0" len="12"/>
          <note vol="151" pos="108" key="63" pan="0" len="12"/>
          <note vol="151" pos="120" key="72" pan="0" len="12"/>
          <note vol="163" pos="132" key="75" pan="0" len="12"/>
          <note vol="176" pos="144" key="74" pan="0" len="12"/>
          <note vol="151" pos="156" key="71" pan="0" len="12"/>
          <note vol="151" pos="168" key="72" pan="0" len="12"/>
          <note vol="151" pos="180" key="68" pan="0" len="12"/>
          <note vol="151" pos="192" key="67" pan="0" len="12"/>
          <note vol="151" pos="204" key="63" pan="0" len="12"/>
          <note vol="151" pos="216" key="67" pan="0" len="12"/>
          <note vol="151" pos="228" key="71" pan="0" len="12"/>
          <note vol="157" pos="240" key="74" pan="0" len="12"/>
          <note vol="157" pos="252" key="71" pan="0" len="12"/>
          <note vol="163" pos="264" key="74" pan="0" len="12"/>
          <note vol="170" pos="276" key="75" pan="0" len="12"/>
          <note vol="176" pos="288" key="79" pan="0" len="24"/>
        </pattern>
        <pattern pos="2304" name="lgtH1" muted="0" type="1" steps="16">
          <note vol="157" pos="0" key="67" pan="0" len="12"/>
          <note vol="157" pos="0" key="0" pan="0" len="12"/>
          <note vol="132" pos="12" key="55" pan="0" len="12"/>
          <note vol="157" pos="12" key="1" pan="0" len="12"/>
          <note vol="138" pos="24" key="60" pan="0" len="12"/>
          <note vol="157" pos="36" key="63" pan="0" len="12"/>
          <note vol="157" pos="36" key="0" pan="0" len="12"/>
          <note vol="138" pos="48" key="55" pan="0" len="12"/>
          <note vol="157" pos="48" key="1" pan="0" len="12"/>
          <note vol="138" pos="60" key="60" pan="0" len="12"/>
          <note vol="157" pos="72" key="65" pan="0" len="12"/>
          <note vol="157" pos="72" key="0" pan="0" len="12"/>
          <note vol="138" pos="84" key="55" pan="0" len="12"/>
          <note vol="157" pos="84" key="1" pan="0" len="12"/>
          <note vol="138" pos="96" key="60" pan="0" len="12"/>
          <note vol="157" pos="108" key="62" pan="0" len="12"/>
          <note vol="157" pos="108" key="0" pan="0" len="12"/>
          <note vol="138" pos="120" key="55" pan="0" len="12"/>
          <note vol="157" pos="120" key="1" pan="0" len="12"/>
          <note vol="138" pos="132" key="60" pan="0" len="12"/>
          <note vol="157" pos="144" key="63" pan="0" len="12"/>
          <note vol="157" pos="144" key="0" pan="0" len="12"/>
          <note vol="157" pos="156" key="62" pan="0" len="12"/>
          <note vol="157" pos="156" key="1" pan="0" len="12"/>
          <note vol="157" pos="168" key="60" pan="0" len="12"/>
          <note vol="157" pos="180" key="55" pan="0" len="12"/>
          <note vol="157" pos="192" key="67" pan="0" len="12"/>
          <note vol="157" pos="192" key="0" pan="0" len="12"/>
          <note vol="132" pos="204" key="55" pan="0" len="12"/>
          <note vol="157" pos="204" key="1" pan="0" len="12"/>
          <note vol="138" pos="216" key="60" pan="0" len="12"/>
          <note vol="157" pos="228" key="63" pan="0" len="12"/>
          <note vol="157" pos="228" key="0" pan="0" len="12"/>
          <note vol="138" pos="240" key="55" pan="0" len="12"/>
          <note vol="157" pos="240" key="1" pan="0" len="12"/>
          <note vol="138" pos="252" key="60" pan="0" len="12"/>
          <note vol="157" pos="264" key="65" pan="0" len="12"/>
          <note vol="157" pos="264" key="0" pan="0" len="12"/>
          <note vol="138" pos="276" key="55" pan="0" len="12"/>
          <note vol="157" pos="276" key="1" pan="0" len="12"/>
          <note vol="138" pos="288" key="60" pan="0" len="12"/>
          <note vol="157" pos="300" key="62" pan="0" len="12"/>
          <note vol="157" pos="300" key="0" pan="0" len="12"/>
          <note vol="138" pos="312" key="55" pan="0" len="12"/>
          <note vol="157" pos="312" key="1" pan="0" len="12"/>
          <note vol="138" pos="324" key="60" pan="0" len="12"/>
          <note vol="157" pos="336" key="63" pan="0" len="12"/>
          <note vol="157" pos="336" key="0" pan="0" len="12"/>
          <note vol="157" pos="348" key="62" pan="0" len="12"/>
          <note vol="157" pos="360" key="63" pan="0" len="12"/>
          <note vol="157" pos="372" key="65" pan="0" len="12"/>
        </pattern>
        <pattern pos="3072" name="lgtH1" muted="0" type="1" steps="16">
          <note vol="170" pos="0" key="72" pan="0" len="12"/>
          <note vol="157" pos="0" key="1" pan="0" len="12"/>
          <note vol="151" pos="12" key="60" pan="0" len="12"/>
          <note vol="151" pos="24" key="67" pan="0" len="12"/>
          <note vol="170" pos="36" key="74" pan="0" len="12"/>
          <note vol="151" pos="48" key="60" pan="0" len="12"/>
          <note vol="151" pos="60" key="67" pan="0" len="12"/>
          <note vol="170" pos="72" key="72" pan="0" len="12"/>
          <note vol="151" pos="84" key="60" pan="0" len="12"/>
          <note vol="151" pos="96" key="67" pan="0" len="12"/>
          <note vol="170" pos="108" key="75" pan="0" len="12"/>
          <note vol="151" pos="120" key="60" pan="0" len="12"/>
          <note vol="151" pos="132" key="67" pan="0" len="12"/>
          <note vol="170" pos="144" key="74" pan="0" len="12"/>
          <note vol="170" pos="156" key="75" pan="0" len="12"/>
          <note vol="170" pos="168" key="74" pan="0" len="12"/>
          <note vol="170" pos="180" key="70" pan="0" len="12"/>
          <note vol="170" pos="192" key="72" pan="0" len="12"/>
          <note vol="151" pos="204" key="60" pan="0" len="12"/>
          <note vol="151" pos="216" key="67" pan="0" len="12"/>
          <note vol="170" pos="228" key="70" pan="0" len="12"/>
          <note vol="151" pos="240" key="60" pan="0" len="12"/>
          <note vol="151" pos="252" key="65" pan="0" len="12"/>
          <note vol="170" pos="264" key="67" pan="0" len="12"/>
          <note vol="151" pos="276" key="63" pan="0" len="12"/>
          <note vol="157" pos="288" key="65" pan="0" len="12"/>
          <note vol="157" pos="300" key="63" pan="0" len="12"/>
          <note vol="163" pos="312" key="65" pan="0" len="12"/>
          <note vol="163" pos="324" key="67" pan="0" len="12"/>
          <note vol="163" pos="336" key="68" pan="0" len="12"/>
          <note vol="163" pos="348" key="67" pan="0" len="12"/>
          <note vol="170" pos="360" key="68" pan="0" len="12"/>
          <note vol="170" pos="372" key="70" pan="0" len="12"/>
        </pattern>
        <pattern pos="3840" name="lgtH1" muted="0" type="1" steps="16">
          <note vol="170" pos="0" key="67" pan="0" len="12"/>
          <note vol="151" pos="0" key="1" pan="0" len="12"/>
          <note vol="144" pos="12" key="55" pan="0" len="12"/>
          <note vol="151" pos="24" key="60" pan="0" len="12"/>
          <note vol="170" pos="36" key="63" pan="0" len="12"/>
          <note vol="151" pos="48" key="55" pan="0" len="12"/>
          <note vol="151" pos="60" key="60" pan="0" len="12"/>
          <note vol="170" pos="72" key="65" pan="0" len="12"/>
          <note vol="151" pos="84" key="55" pan="0" len="12"/>
          <note vol="151" pos="96" key="60" pan="0" len="12"/>
          <note vol="170" pos="108" key="62" pan="0" len="12"/>
          <note vol="151" pos="120" key="55" pan="0" len="12"/>
          <note vol="157" pos="132" key="60" pan="0" len="12"/>
          <note vol="170" pos="144" key="63" pan="0" len="12"/>
          <note vol="170" pos="156" key="65" pan="0" len="12"/>
          <note vol="170" pos="168" key="67" pan="0" len="12"/>
          <note vol="170" pos="180" key="68" pan="0" len="12"/>
          <note vol="170" pos="192" key="70" pan="0" len="12"/>
          <note vol="100" pos="192" key="0" pan="0" len="48"/>
          <note vol="144" pos="204" key="55" pan="0" len="12"/>
          <note vol="151" pos="216" key="60" pan="0" len="12"/>
          <note vol="170" pos="228" key="67" pan="0" len="12"/>
          <note vol="151" pos="240" key="55" pan="0" len="12"/>
          <note vol="100" pos="240" key="1" pan="0" len="48"/>
          <note vol="151" pos="252" key="60" pan="0" len="12"/>
          <note vol="170" pos="264" key="68" pan="0" len="12"/>
          <note vol="151" pos="276" key="55" pan="0" len="12"/>
          <note vol="151" pos="288" key="60" pan="0" len="12"/>
          <note vol="170" pos="300" key="65" pan="0" len="12"/>
          <note vol="151" pos="312" key="55" pan="0" len="12"/>
          <note vol="151" pos="324" key="60" pan="0" len="12"/>
          <note vol="170" pos="336" key="67" pan="0" len="12"/>
          <note vol="170" pos="348" key="65" pan="0" len="12"/>
          <note vol="170" pos="360" key="63" pan="0" len="12"/>
          <note vol="170" pos="372" key="60" pan="0" len="12"/>
        </pattern>
        <pattern pos="12672" name="lgtH1" muted="0" type="1" steps="16">
          <note vol="182" pos="0" key="67" pan="0" len="12"/>
          <note vol="176" pos="0" key="0" pan="0" len="12"/>
          <note vol="157" pos="12" key="60" pan="0" len="12"/>
          <note vol="157" pos="24" key="62" pan="0" len="12"/>
          <note vol="176" pos="24" key="1" pan="0" len="12"/>
          <note vol="157" pos="36" key="63" pan="0" len="12"/>
          <note vol="157" pos="48" key="62" pan="0" len="12"/>
          <note vol="157" pos="60" key="60" pan="0" len="12"/>
          <note vol="182" pos="72" key="68" pan="0" len="12"/>
          <note vol="176" pos="72" key="0" pan="0" len="12"/>
          <note vol="157" pos="84" key="60" pan="0" len="12"/>
          <note vol="157" pos="96" key="62" pan="0" len="12"/>
          <note vol="176" pos="96" key="1" pan="0" len="12"/>
          <note vol="157" pos="108" key="63" pan="0" len="12"/>
          <note vol="157" pos="120" key="62" pan="0" len="12"/>
          <note vol="157" pos="132" key="60" pan="0" len="12"/>
          <note vol="182" pos="144" key="67" pan="0" len="12"/>
          <note vol="176" pos="144" key="0" pan="0" len="12"/>
          <note vol="157" pos="156" key="60" pan="0" len="12"/>
          <note vol="157" pos="168" key="62" pan="0" len="12"/>
          <note vol="176" pos="168" key="1" pan="0" len="12"/>
          <note vol="157" pos="180" key="63" pan="0" len="12"/>
          <note vol="157" pos="192" key="62" pan="0" len="12"/>
          <note vol="157" pos="204" key="60" pan="0" len="12"/>
          <note vol="188" pos="216" key="70" pan="0" len="12"/>
          <note vol="176" pos="216" key="0" pan="0" len="12"/>
          <note vol="157" pos="228" key="60" pan="0" len="12"/>
          <note vol="157" pos="240" key="62" pan="0" len="12"/>
          <note vol="176" pos="240" key="1" pan="0" len="12"/>
          <note vol="157" pos="252" key="63" pan="0" len="12"/>
          <note vol="157" pos="264" key="62" pan="0" len="12"/>
          <note vol="157" pos="276" key="60" pan="0" len="12"/>
          <note vol="188" pos="288" key="68" pan="0" len="12"/>
          <note vol="176" pos="288" key="0" pan="0" len="12"/>
          <note vol="157" pos="300" key="60" pan="0" len="12"/>
          <note vol="157" pos="312" key="62" pan="0" len="12"/>
          <note vol="176" pos="312" key="1" pan="0" len="12"/>
          <note vol="157" pos="324" key="63" pan="0" len="12"/>
          <note vol="182" pos="336" key="67" pan="0" len="12"/>
          <note vol="157" pos="348" key="63" pan="0" len="12"/>
          <note vol="157" pos="360" key="62" pan="0" len="12"/>
          <note vol="176" pos="360" key="0" pan="0" len="12"/>
          <note vol="157" pos="372" key="60" pan="0" len="12"/>
          <note vol="182" pos="384" key="68" pan="0" len="12"/>
          <note vol="176" pos="384" key="0" pan="0" len="12"/>
          <note vol="157" pos="396" key="56" pan="0" len="12"/>
          <note vol="157" pos="408" key="60" pan="0" len="12"/>
          <note vol="176" pos="408" key="1" pan="0" len="12"/>
          <note vol="157" pos="420" key="63" pan="0" len="12"/>
          <note vol="157" pos="432" key="60" pan="0" len="12"/>
          <note vol="157" pos="444" key="56" pan="0" len="12"/>
          <note vol="195" pos="456" key="75" pan="0" len="12"/>
          <note vol="176" pos="456" key="0" pan="0" len="12"/>
          <note vol="157" pos="468" key="56" pan="0" len="12"/>
          <note vol="157" pos="480" key="60" pan="0" len="12"/>
          <note vol="176" pos="480" key="1" pan="0" len="12"/>
          <note vol="157" pos="492" key="63" pan="0" len="12"/>
          <note vol="157" pos="504" key="60" pan="0" len="12"/>
          <note vol="157" pos="516" key="56" pan="0" len="12"/>
          <note vol="188" pos="528" key="74" pan="0" len="12"/>
          <note vol="176" pos="528" key="0" pan="0" len="12"/>
          <note vol="157" pos="540" key="56" pan="0" len="12"/>
          <note vol="157" pos="552" key="60" pan="0" len="12"/>
          <note vol="176" pos="552" key="1" pan="0" len="12"/>
          <note vol="157" pos="564" key="63" pan="0" len="12"/>
          <note vol="157" pos="576" key="60" pan="0" len="12"/>
          <note vol="157" pos="588" key="56" pan="0" len="12"/>
          <note vol="176" pos="600" key="70" pan="0" len="12"/>
          <note vol="176" pos="600" key="0" pan="0" len="12"/>
          <note vol="157" pos="612" key="56" pan="0" len="12"/>
          <note vol="157" pos="624" key="60" pan="0" len="12"/>
          <note vol="176" pos="624" key="1" pan="0" len="12"/>
          <note vol="157" pos="636" key="63" pan="0" len="12"/>
          <note vol="157" pos="648" key="60" pan="0" len="12"/>
          <note vol="157" pos="660" key="56" pan="0" len="12"/>
          <note vol="188" pos="672" key="74" pan="0" len="12"/>
          <note vol="176" pos="672" key="0" pan="0" len="12"/>
          <note vol="157" pos="684" key="56" pan="0" len="12"/>
          <note vol="157" pos="696" key="60" pan="0" len="12"/>
          <note vol="176" pos="696" key="1" pan="0" len="12"/>
          <note vol="157" pos="708" key="63" pan="0" len="12"/>
          <note vol="195" pos="720" key="75" pan="0" len="12"/>
          <note vol="157" pos="732" key="63" pan="0" len="12"/>
          <note vol="157" pos="744" key="60" pan="0" len="12"/>
          <note vol="176" pos="744" key="0" pan="0" len="12"/>
          <note vol="157" pos="756" key="56" pan="0" len="12"/>
          <note vol="195" pos="768" key="70" pan="0" len="12"/>
          <note vol="176" pos="768" key="0" pan="0" len="12"/>
          <note vol="157" pos="780" key="55" pan="0" len="12"/>
          <note vol="157" pos="792" key="58" pan="0" len="12"/>
          <note vol="176" pos="792" key="1" pan="0" len="12"/>
          <note vol="157" pos="804" key="63" pan="0" len="12"/>
          <note vol="157" pos="816" key="58" pan="0" len="12"/>
          <note vol="157" pos="828" key="55" pan="0" len="12"/>
          <note vol="195" pos="840" key="68" pan="0" len="12"/>
          <note vol="176" pos="840" key="0" pan="0" len="12"/>
          <note vol="157" pos="852" key="55" pan="0" len="12"/>
          <note vol="157" pos="864" key="58" pan="0" len="12"/>
          <note vol="176" pos="864" key="1" pan="0" len="12"/>
          <note vol="157" pos="876" key="63" pan="0" len="12"/>
          <note vol="157" pos="888" key="58" pan="0" len="12"/>
          <note vol="157" pos="900" key="55" pan="0" len="12"/>
          <note vol="195" pos="912" key="67" pan="0" len="12"/>
          <note vol="176" pos="912" key="0" pan="0" len="12"/>
          <note vol="157" pos="924" key="55" pan="0" len="12"/>
          <note vol="157" pos="936" key="58" pan="0" len="12"/>
          <note vol="176" pos="936" key="1" pan="0" len="12"/>
          <note vol="157" pos="948" key="63" pan="0" len="12"/>
          <note vol="157" pos="960" key="58" pan="0" len="12"/>
          <note vol="157" pos="972" key="55" pan="0" len="12"/>
          <note vol="195" pos="984" key="68" pan="0" len="12"/>
          <note vol="176" pos="984" key="0" pan="0" len="12"/>
          <note vol="157" pos="996" key="55" pan="0" len="12"/>
          <note vol="157" pos="1008" key="58" pan="0" len="12"/>
          <note vol="176" pos="1008" key="1" pan="0" len="12"/>
          <note vol="157" pos="1020" key="63" pan="0" len="12"/>
          <note vol="157" pos="1032" key="58" pan="0" len="12"/>
          <note vol="157" pos="1044" key="55" pan="0" len="12"/>
          <note vol="188" pos="1056" key="67" pan="0" len="12"/>
          <note vol="176" pos="1056" key="0" pan="0" len="12"/>
          <note vol="157" pos="1068" key="55" pan="0" len="12"/>
          <note vol="157" pos="1080" key="58" pan="0" len="12"/>
          <note vol="176" pos="1080" key="1" pan="0" len="12"/>
          <note vol="157" pos="1092" key="55" pan="0" len="12"/>
          <note vol="182" pos="1104" key="63" pan="0" len="12"/>
          <note vol="157" pos="1116" key="55" pan="0" len="12"/>
          <note vol="157" pos="1128" key="58" pan="0" len="12"/>
          <note vol="176" pos="1128" key="0" pan="0" len="12"/>
          <note vol="157" pos="1140" key="55" pan="0" len="12"/>
        </pattern>
        <pattern pos="8448" name="lgtH1" muted="0" type="1" steps="16">
          <note vol="170" pos="0" key="56" pan="0" len="12"/>
          <note vol="188" pos="0" key="1" pan="0" len="12"/>
          <note vol="170" pos="12" key="60" pan="0" len="12"/>
          <note vol="170" pos="24" key="63" pan="0" len="12"/>
          <note vol="170" pos="36" key="68" pan="0" len="12"/>
          <note vol="170" pos="48" key="60" pan="0" len="12"/>
          <note vol="170" pos="60" key="63" pan="0" len="12"/>
          <note vol="170" pos="72" key="68" pan="0" len="12"/>
          <note vol="170" pos="84" key="72" pan="0" len="12"/>
          <note vol="170" pos="96" key="63" pan="0" len="12"/>
          <note vol="188" pos="96" key="0" pan="0" len="12"/>
          <note vol="170" pos="108" key="68" pan="0" len="12"/>
          <note vol="170" pos="120" key="72" pan="0" len="12"/>
          <note vol="170" pos="132" key="75" pan="0" len="12"/>
          <note vol="176" pos="144" key="65" pan="0" len="12"/>
          <note vol="188" pos="144" key="1" pan="0" len="12"/>
          <note vol="170" pos="156" key="70" pan="0" len="12"/>
          <note vol="170" pos="168" key="74" pan="0" len="12"/>
          <note vol="170" pos="180" key="77" pan="0" len="12"/>
          <note vol="176" pos="192" key="70" pan="0" len="12"/>
          <note vol="170" pos="204" key="74" pan="0" len="12"/>
          <note vol="170" pos="216" key="77" pan="0" len="12"/>
          <note vol="170" pos="228" key="82" pan="0" len="12"/>
          <note vol="176" pos="240" key="74" pan="0" len="12"/>
          <note vol="188" pos="240" key="0" pan="0" len="12"/>
          <note vol="170" pos="252" key="77" pan="0" len="12"/>
          <note vol="170" pos="264" key="82" pan="0" len="12"/>
          <note vol="176" pos="276" key="86" pan="0" len="12"/>
          <note vol="188" pos="288" key="89" pan="0" len="12"/>
          <note vol="176" pos="300" key="87" pan="0" len="12"/>
          <note vol="176" pos="312" key="86" pan="0" len="12"/>
          <note vol="176" pos="324" key="84" pan="0" len="12"/>
          <note vol="176" pos="336" key="82" pan="0" len="12"/>
          <note vol="176" pos="348" key="84" pan="0" len="12"/>
          <note vol="182" pos="360" key="86" pan="0" len="12"/>
          <note vol="188" pos="372" key="89" pan="0" len="12"/>
        </pattern>
        <pattern pos="8832" name="lgtH1" muted="0" type="1" steps="16">
          <note vol="182" pos="0" key="87" pan="0" len="12"/>
          <note vol="188" pos="0" key="0" pan="0" len="12"/>
          <note vol="188" pos="12" key="89" pan="0" len="12"/>
          <note vol="182" pos="24" key="87" pan="0" len="12"/>
          <note vol="188" pos="24" key="1" pan="0" len="12"/>
          <note vol="176" pos="36" key="84" pan="0" len="12"/>
          <note vol="176" pos="48" key="79" pan="0" len="12"/>
          <note vol="182" pos="60" key="84" pan="0" len="12"/>
          <note vol="182" pos="72" key="86" pan="0" len="12"/>
          <note vol="188" pos="72" key="0" pan="0" len="12"/>
          <note vol="182" pos="84" key="87" pan="0" len="12"/>
          <note vol="182" pos="96" key="86" pan="0" len="12"/>
          <note vol="188" pos="96" key="1" pan="0" len="12"/>
          <note vol="170" pos="108" key="82" pan="0" len="12"/>
          <note vol="163" pos="120" key="77" pan="0" len="12"/>
          <note vol="170" pos="132" key="82" pan="0" len="12"/>
          <note vol="176" pos="144" key="84" pan="0" len="12"/>
          <note vol="188" pos="144" key="0" pan="0" len="12"/>
          <note vol="182" pos="156" key="86" pan="0" len="12"/>
          <note vol="182" pos="168" key="84" pan="0" len="12"/>
          <note vol="176" pos="180" key="80" pan="0" len="12"/>
          <note vol="170" pos="192" key="75" pan="0" len="12"/>
          <note vol="176" pos="204" key="80" pan="0" len="12"/>
          <note vol="182" pos="216" key="82" pan="0" len="12"/>
          <note vol="182" pos="228" key="84" pan="0" len="12"/>
          <note vol="176" pos="240" key="82" pan="0" len="12"/>
          <note vol="170" pos="252" key="79" pan="0" len="12"/>
          <note vol="163" pos="264" key="74" pan="0" len="12"/>
          <note vol="170" pos="276" key="79" pan="0" len="12"/>
          <note vol="176" pos="288" key="80" pan="0" len="12"/>
          <note vol="176" pos="300" key="79" pan="0" len="12"/>
          <note vol="176" pos="312" key="77" pan="0" len="12"/>
          <note vol="170" pos="324" key="75" pan="0" len="12"/>
          <note vol="182" pos="336" key="79" pan="0" len="12"/>
          <note vol="176" pos="348" key="77" pan="0" len="12"/>
          <note vol="170" pos="360" key="75" pan="0" len="12"/>
          <note vol="170" pos="372" key="74" pan="0" len="12"/>
        </pattern>
        <pattern pos="21120" name="" muted="0" type="1" steps="16">
          <note vol="157" pos="0" key="67" pan="0" len="12"/>
          <note vol="157" pos="0" key="0" pan="0" len="12"/>
          <note vol="132" pos="12" key="55" pan="0" len="12"/>
          <note vol="157" pos="12" key="1" pan="0" len="12"/>
          <note vol="138" pos="24" key="60" pan="0" len="12"/>
          <note vol="157" pos="36" key="63" pan="0" len="12"/>
          <note vol="157" pos="36" key="0" pan="0" len="12"/>
          <note vol="138" pos="48" key="55" pan="0" len="12"/>
          <note vol="157" pos="48" key="1" pan="0" len="12"/>
          <note vol="138" pos="60" key="60" pan="0" len="12"/>
          <note vol="157" pos="72" key="65" pan="0" len="12"/>
          <note vol="157" pos="72" key="0" pan="0" len="12"/>
          <note vol="138" pos="84" key="55" pan="0" len="12"/>
          <note vol="157" pos="84" key="1" pan="0" len="12"/>
          <note vol="138" pos="96" key="60" pan="0" len="12"/>
          <note vol="157" pos="108" key="62" pan="0" len="12"/>
          <note vol="157" pos="108" key="0" pan="0" len="12"/>
          <note vol="138" pos="120" key="55" pan="0" len="12"/>
          <note vol="157" pos="120" key="1" pan="0" len="12"/>
          <note vol="138" pos="132" key="60" pan="0" len="12"/>
          <note vol="157" pos="144" key="63" pan="0" len="12"/>
          <note vol="157" pos="144" key="0" pan="0" len="12"/>
          <note vol="157" pos="156" key="62" pan="0" len="12"/>
          <note vol="157" pos="156" key="1" pan="0" len="12"/>
          <note vol="157" pos="168" key="60" pan="0" len="12"/>
          <note vol="157" pos="180" key="55" pan="0" len="12"/>
          <note vol="157" pos="192" key="67" pan="0" len="12"/>
          <note vol="157" pos="192" key="0" pan="0" len="12"/>
          <note vol="132" pos="204" key="55" pan="0" len="12"/>
          <note vol="157" pos="204" key="1" pan="0" len="12"/>
          <note vol="138" pos="216" key="60" pan="0" len="12"/>
          <note vol="157" pos="228" key="63" pan="0" len="12"/>
          <note vol="157" pos="228" key="0" pan="0" len="12"/>
          <note vol="138" pos="240" key="55" pan="0" len="12"/>
          <note vol="157" pos="240" key="1" pan="0" len="12"/>
          <note vol="138" pos="252" key="60" pan="0" len="12"/>
          <note vol="157" pos="264" key="65" pan="0" len="12"/>
          <note vol="157" pos="264" key="0" pan="0" len="12"/>
          <note vol="138" pos="276" key="55" pan="0" len="12"/>
          <note vol="157" pos="276" key="1" pan="0" len="12"/>
          <note vol="138" pos="288" key="60" pan="0" len="12"/>
          <note vol="157" pos="300" key="62" pan="0" len="12"/>
          <note vol="157" pos="300" key="0" pan="0" len="12"/>
          <note vol="138" pos="312" key="55" pan="0" len="12"/>
          <note vol="157" pos="312" key="1" pan="0" len="12"/>
          <note vol="138" pos="324" key="60" pan="0" len="12"/>
          <note vol="157" pos="336" key="63" pan="0" len="12"/>
          <note vol="157" pos="336" key="0" pan="0" len="12"/>
          <note vol="157" pos="348" key="62" pan="0" len="12"/>
          <note vol="157" pos="360" key="63" pan="0" len="12"/>
          <note vol="157" pos="372" key="65" pan="0" len="12"/>
        </pattern>
        <pattern pos="21888" name="" muted="0" type="1" steps="16">
          <note vol="170" pos="0" key="72" pan="0" len="12"/>
          <note vol="157" pos="0" key="1" pan="0" len="12"/>
          <note vol="151" pos="12" key="60" pan="0" len="12"/>
          <note vol="151" pos="24" key="67" pan="0" len="12"/>
          <note vol="170" pos="36" key="74" pan="0" len="12"/>
          <note vol="151" pos="48" key="60" pan="0" len="12"/>
          <note vol="151" pos="60" key="67" pan="0" len="12"/>
          <note vol="170" pos="72" key="72" pan="0" len="12"/>
          <note vol="151" pos="84" key="60" pan="0" len="12"/>
          <note vol="151" pos="96" key="67" pan="0" len="12"/>
          <note vol="170" pos="108" key="75" pan="0" len="12"/>
          <note vol="151" pos="120" key="60" pan="0" len="12"/>
          <note vol="151" pos="132" key="67" pan="0" len="12"/>
          <note vol="170" pos="144" key="74" pan="0" len="12"/>
          <note vol="170" pos="156" key="75" pan="0" len="12"/>
          <note vol="170" pos="168" key="74" pan="0" len="12"/>
          <note vol="170" pos="180" key="70" pan="0" len="12"/>
          <note vol="170" pos="192" key="72" pan="0" len="12"/>
          <note vol="151" pos="204" key="60" pan="0" len="12"/>
          <note vol="151" pos="216" key="67" pan="0" len="12"/>
          <note vol="170" pos="228" key="70" pan="0" len="12"/>
          <note vol="151" pos="240" key="60" pan="0" len="12"/>
          <note vol="151" pos="252" key="65" pan="0" len="12"/>
          <note vol="170" pos="264" key="67" pan="0" len="12"/>
          <note vol="151" pos="276" key="63" pan="0" len="12"/>
          <note vol="157" pos="288" key="65" pan="0" len="12"/>
          <note vol="157" pos="300" key="63" pan="0" len="12"/>
          <note vol="163" pos="312" key="65" pan="0" len="12"/>
          <note vol="163" pos="324" key="67" pan="0" len="12"/>
          <note vol="163" pos="336" key="68" pan="0" len="12"/>
          <note vol="163" pos="348" key="67" pan="0" len="12"/>
          <note vol="170" pos="360" key="68" pan="0" len="12"/>
          <note vol="170" pos="372" key="70" pan="0" len="12"/>
        </pattern>
        <pattern pos="22656" name="" muted="0" type="1" steps="16">
          <note vol="170" pos="0" key="67" pan="0" len="12"/>
          <note vol="151" pos="0" key="1" pan="0" len="12"/>
          <note vol="144" pos="12" key="55" pan="0" len="12"/>
          <note vol="151" pos="24" key="60" pan="0" len="12"/>
          <note vol="170" pos="36" key="63" pan="0" len="12"/>
          <note vol="151" pos="48" key="55" pan="0" len="12"/>
          <note vol="151" pos="60" key="60" pan="0" len="12"/>
          <note vol="170" pos="72" key="65" pan="0" len="12"/>
          <note vol="151" pos="84" key="55" pan="0" len="12"/>
          <note vol="151" pos="96" key="60" pan="0" len="12"/>
          <note vol="170" pos="108" key="62" pan="0" len="12"/>
          <note vol="151" pos="120" key="55" pan="0" len="12"/>
          <note vol="157" pos="132" key="60" pan="0" len="12"/>
          <note vol="170" pos="144" key="63" pan="0" len="12"/>
          <note vol="170" pos="156" key="65" pan="0" len="12"/>
          <note vol="170" pos="168" key="67" pan="0" len="12"/>
          <note vol="170" pos="180" key="68" pan="0" len="12"/>
          <note vol="170" pos="192" key="70" pan="0" len="12"/>
          <note vol="100" pos="192" key="0" pan="0" len="48"/>
          <note vol="144" pos="204" key="55" pan="0" len="12"/>
          <note vol="151" pos="216" key="60" pan="0" len="12"/>
          <note vol="170" pos="228" key="67" pan="0" len="12"/>
          <note vol="151" pos="240" key="55" pan="0" len="12"/>
          <note vol="100" pos="240" key="1" pan="0" len="48"/>
          <note vol="151" pos="252" key="60" pan="0" len="12"/>
          <note vol="170" pos="264" key="68" pan="0" len="12"/>
          <note vol="151" pos="276" key="55" pan="0" len="12"/>
          <note vol="151" pos="288" key="60" pan="0" len="12"/>
          <note vol="170" pos="300" key="65" pan="0" len="12"/>
          <note vol="151" pos="312" key="55" pan="0" len="12"/>
          <note vol="151" pos="324" key="60" pan="0" len="12"/>
          <note vol="170" pos="336" key="67" pan="0" len="12"/>
          <note vol="170" pos="348" key="65" pan="0" len="12"/>
          <note vol="170" pos="360" key="63" pan="0" len="12"/>
          <note vol="170" pos="372" key="60" pan="0" len="12"/>
        </pattern>
      </track>
      <track solo="0" name="lgtH2" muted="1" type="0">
        <instrumenttrack vol="200" pitchrange="1" fxch="12" pitch="0" pan="100" usemasterpitch="1" basenote="57">
          <instrument name="carlapatchbay">
            <carlapatchbay>
              <CARLA-PROJECT VERSION="2.2">
                <EngineSettings>
                  <ForceStereo>false</ForceStereo>
                  <PreferPluginBridges>false</PreferPluginBridges>
                  <PreferUiBridges>true</PreferUiBridges>
                  <UIsAlwaysOnTop>false</UIsAlwaysOnTop>
                  <MaxParameters>200</MaxParameters>
                  <UIBridgesTimeout>4000</UIBridgesTimeout>
                  <LADSPA_PATH>/home/pass/.ladspa:/usr/lib/ladspa:/usr/local/lib/ladspa</LADSPA_PATH>
                  <DSSI_PATH>/home/pass/.dssi:/usr/lib/dssi:/usr/local/lib/dssi</DSSI_PATH>
                  <LV2_PATH>/home/pass/.lv2:/usr/lib/lv2:/usr/local/lib/lv2</LV2_PATH>
                  <VST2_PATH>/home/pass/.vst:/home/pass/.wine/drive_c/Program Files (x86)/VstPlugins:/home/pass/.wine/drive_c/Program Files/VstPlugins:/usr/lib/lxvst:/usr/lib/vst:/usr/local/lib/lxvst:/usr/local/lib/vst/home/pass/.lxvst:/home/pass/vst</VST2_PATH>
                  <VST3_PATH>/home/pass/.vst3:/home/pass/.wine/drive_c/Program Files (x86)/Common Files/VST3:/home/pass/.wine/drive_c/Program Files/Common Files/VST3:/usr/lib/vst3:/usr/local/lib/vst3</VST3_PATH>
                  <SF2_PATH>/home/pass/.sounds/sf2/home/pass/.sounds/sf3:/usr/share/soundfonts:/usr/share/sounds/sf2:/usr/share/sounds/sf3</SF2_PATH>
                  <SFZ_PATH>/home/pass/.sounds/sfz:/home/pass/samples:/usr/share/sounds/sfz</SFZ_PATH>
                </EngineSettings>
                <!-- sfizz -->
                <Plugin>
                  <Info>
                    <Type>LV2</Type>
                    <Name>sfizz</Name>
                    <URI>http://sfztools.github.io/sfizz</URI>
                  </Info>
                  <Data>
                    <Active>Yes</Active>
                    <ControlChannel>1</ControlChannel>
                    <Options>0x3f0</Options>
                    <Parameter>
                      <Index>0</Index>
                      <Name>Volume</Name>
                      <Symbol>volume</Symbol>
                      <Value>0</Value>
                    </Parameter>
                    <Parameter>
                      <Index>1</Index>
                      <Name>Polyphony</Name>
                      <Symbol>num_voices</Symbol>
                      <Value>64</Value>
                    </Parameter>
                    <Parameter>
                      <Index>2</Index>
                      <Name>Internal oversampling factor</Name>
                      <Symbol>oversampling</Symbol>
                      <Value>1</Value>
                    </Parameter>
                    <Parameter>
                      <Index>3</Index>
                      <Name>Preload size</Name>
                      <Symbol>preload_size</Symbol>
                      <Value>8192</Value>
                    </Parameter>
                    <CustomData>
                      <Type>http://lv2plug.in/ns/ext/atom#Path</Type>
                      <Key>http://sfztools.github.io/sfizz:sfzfile</Key>
                      <Value>/home/pass/samples/fakeguitar/_fakeguitar2_integrated.sfz</Value>
                    </CustomData>
                    <CustomData>
                      <Type>http://lv2plug.in/ns/ext/atom#Int</Type>
                      <Key>http://sfztools.github.io/sfizz:numvoices</Key>
                      <Value>QAAAAA==</Value>
                    </CustomData>
                    <CustomData>
                      <Type>http://lv2plug.in/ns/ext/atom#Int</Type>
                      <Key>http://sfztools.github.io/sfizz:preload_size</Key>
                      <Value>ACAAAA==</Value>
                    </CustomData>
                    <CustomData>
                      <Type>http://lv2plug.in/ns/ext/atom#Int</Type>
                      <Key>http://sfztools.github.io/sfizz:oversampling</Key>
                      <Value>AQAAAA==</Value>
                    </CustomData>
                  </Data>
                </Plugin>
                <Patchbay>
                  <Connection>
                    <Source>Midi Input:Capture 1</Source>
                    <Target>sfizz:events-in</Target>
                  </Connection>
                  <Connection>
                    <Source>sfizz:Left Output</Source>
                    <Target>Audio Output:Left</Target>
                  </Connection>
                  <Connection>
                    <Source>sfizz:Right Output</Source>
                    <Target>Audio Output:Right</Target>
                  </Connection>
                  <Positions>
                    <Position x1="1693" pluginId="0" y1="1353">
                      <Name>sfizz</Name>
                    </Position>
                  </Positions>
                </Patchbay>
              </CARLA-PROJECT>
            </carlapatchbay>
          </instrument>
          <eldata fcut="14000" ftype="0" fres="0.5" fwet="0">
            <elvol lpdel="0" dec="0.5" lamt="0" rel="0.1" userwavefile="" lspd="0.1" x100="0" latt="0" hold="0.5" lshp="0" sustain="0.5" lspd_numerator="4" att="0" lspd_syncmode="0" amt="0" ctlenvamt="0" lspd_denominator="4" pdel="0"/>
            <elcut lpdel="0" dec="0.5" lamt="0" rel="0.1" userwavefile="" lspd="0.1" x100="0" latt="0" hold="0.5" lshp="0" sustain="0.5" lspd_numerator="4" att="0" lspd_syncmode="0" amt="0" ctlenvamt="0" lspd_denominator="4" pdel="0"/>
            <elres lpdel="0" dec="0.5" lamt="0" rel="0.1" userwavefile="" lspd="0.1" x100="0" latt="0" hold="0.5" lshp="0" sustain="0.5" lspd_numerator="4" att="0" lspd_syncmode="0" amt="0" ctlenvamt="0" lspd_denominator="4" pdel="0"/>
          </eldata>
          <chordcreator chordrange="1" chord-enabled="0" chord="0"/>
          <arpeggiator arp-enabled="0" arptime_denominator="4" arpgate="100" arpskip="0" arptime="200" arpmode="0" arpmiss="0" arptime_numerator="4" arptime_syncmode="0" arprange="1" arp="0" arpdir="0" arpcycle="0"/>
          <midiport outputcontroller="0" readable="0" basevelocity="63" writable="0" outputprogram="1" fixedoutputvelocity="-1" fixedoutputnote="-1" outputchannel="1" inputchannel="0" inputcontroller="0" fixedinputvelocity="-1"/>
          <fxchain numofeffects="0" enabled="0"/>
        </instrumenttrack>
        <pattern pos="6528" name="lgtH2" muted="0" type="1" steps="16">
          <note vol="151" pos="0" key="63" pan="0" len="72"/>
          <note vol="151" pos="0" key="0" pan="0" len="72"/>
          <note vol="151" pos="72" key="60" pan="0" len="72"/>
          <note vol="151" pos="144" key="63" pan="0" len="72"/>
          <note vol="151" pos="216" key="67" pan="0" len="72"/>
          <note vol="144" pos="288" key="72" pan="0" len="48"/>
          <note vol="144" pos="336" key="74" pan="0" len="48"/>
          <note vol="151" pos="384" key="75" pan="0" len="72"/>
          <note vol="151" pos="456" key="74" pan="0" len="72"/>
          <note vol="151" pos="528" key="70" pan="0" len="72"/>
          <note vol="151" pos="600" key="65" pan="0" len="72"/>
          <note vol="144" pos="672" key="63" pan="0" len="48"/>
          <note vol="144" pos="720" key="62" pan="0" len="48"/>
          <note vol="151" pos="768" key="63" pan="0" len="72"/>
          <note vol="151" pos="840" key="60" pan="0" len="72"/>
          <note vol="151" pos="912" key="63" pan="0" len="72"/>
          <note vol="151" pos="984" key="67" pan="0" len="72"/>
          <note vol="144" pos="1056" key="72" pan="0" len="48"/>
          <note vol="144" pos="1104" key="74" pan="0" len="48"/>
          <note vol="151" pos="1152" key="75" pan="0" len="72"/>
          <note vol="151" pos="1224" key="79" pan="0" len="72"/>
          <note vol="151" pos="1296" key="77" pan="0" len="72"/>
          <note vol="151" pos="1368" key="74" pan="0" len="72"/>
          <note vol="144" pos="1440" key="80" pan="0" len="48"/>
          <note vol="144" pos="1488" key="79" pan="0" len="48"/>
        </pattern>
        <pattern pos="17280" name="" muted="0" type="1" steps="16">
          <note vol="163" pos="0" key="65" pan="0" len="24"/>
          <note vol="163" pos="24" key="57" pan="0" len="24"/>
          <note vol="163" pos="48" key="62" pan="0" len="24"/>
          <note vol="163" pos="72" key="64" pan="0" len="24"/>
          <note vol="163" pos="96" key="65" pan="0" len="24"/>
          <note vol="163" pos="120" key="57" pan="0" len="24"/>
          <note vol="163" pos="144" key="62" pan="0" len="24"/>
          <note vol="163" pos="168" key="65" pan="0" len="24"/>
          <note vol="163" pos="192" key="64" pan="0" len="24"/>
          <note vol="163" pos="216" key="55" pan="0" len="24"/>
          <note vol="163" pos="240" key="60" pan="0" len="24"/>
          <note vol="163" pos="264" key="62" pan="0" len="48"/>
          <note vol="163" pos="312" key="53" pan="0" len="24"/>
          <note vol="163" pos="336" key="60" pan="0" len="24"/>
          <note vol="163" pos="360" key="58" pan="0" len="24"/>
          <note vol="163" pos="384" key="60" pan="0" len="24"/>
          <note vol="163" pos="408" key="48" pan="0" len="24"/>
          <note vol="163" pos="432" key="53" pan="0" len="24"/>
          <note vol="163" pos="456" key="48" pan="0" len="24"/>
          <note vol="163" pos="480" key="53" pan="0" len="24"/>
          <note vol="163" pos="504" key="55" pan="0" len="24"/>
          <note vol="163" pos="528" key="57" pan="0" len="24"/>
          <note vol="163" pos="552" key="60" pan="0" len="24"/>
          <note vol="163" pos="576" key="58" pan="0" len="24"/>
          <note vol="163" pos="600" key="50" pan="0" len="24"/>
          <note vol="163" pos="624" key="55" pan="0" len="24"/>
          <note vol="163" pos="648" key="57" pan="0" len="48"/>
          <note vol="163" pos="696" key="50" pan="0" len="24"/>
          <note vol="163" pos="720" key="52" pan="0" len="24"/>
          <note vol="163" pos="744" key="53" pan="0" len="24"/>
          <note vol="163" pos="768" key="65" pan="0" len="24"/>
          <note vol="163" pos="792" key="57" pan="0" len="24"/>
          <note vol="163" pos="816" key="62" pan="0" len="24"/>
          <note vol="163" pos="840" key="64" pan="0" len="24"/>
          <note vol="163" pos="864" key="65" pan="0" len="24"/>
          <note vol="163" pos="888" key="57" pan="0" len="24"/>
          <note vol="163" pos="912" key="62" pan="0" len="24"/>
          <note vol="163" pos="936" key="65" pan="0" len="24"/>
          <note vol="163" pos="960" key="64" pan="0" len="24"/>
          <note vol="163" pos="984" key="55" pan="0" len="24"/>
          <note vol="163" pos="1008" key="69" pan="0" len="24"/>
          <note vol="163" pos="1032" key="62" pan="0" len="48"/>
          <note vol="163" pos="1080" key="53" pan="0" len="24"/>
          <note vol="163" pos="1104" key="60" pan="0" len="24"/>
          <note vol="163" pos="1128" key="58" pan="0" len="24"/>
          <note vol="163" pos="1152" key="60" pan="0" len="24"/>
          <note vol="163" pos="1176" key="48" pan="0" len="24"/>
          <note vol="163" pos="1200" key="53" pan="0" len="24"/>
          <note vol="163" pos="1224" key="48" pan="0" len="24"/>
          <note vol="163" pos="1248" key="53" pan="0" len="24"/>
          <note vol="163" pos="1272" key="55" pan="0" len="24"/>
          <note vol="163" pos="1296" key="57" pan="0" len="24"/>
          <note vol="163" pos="1320" key="60" pan="0" len="24"/>
          <note vol="163" pos="1344" key="58" pan="0" len="24"/>
          <note vol="163" pos="1368" key="50" pan="0" len="24"/>
          <note vol="163" pos="1392" key="55" pan="0" len="24"/>
          <note vol="163" pos="1416" key="62" pan="0" len="48"/>
          <note vol="163" pos="1464" key="65" pan="0" len="24"/>
          <note vol="163" pos="1488" key="64" pan="0" len="24"/>
          <note vol="163" pos="1512" key="62" pan="0" len="24"/>
          <note vol="163" pos="1536" key="65" pan="0" len="24"/>
          <note vol="163" pos="1560" key="57" pan="0" len="24"/>
          <note vol="163" pos="1584" key="62" pan="0" len="24"/>
          <note vol="163" pos="1608" key="64" pan="0" len="24"/>
          <note vol="163" pos="1632" key="65" pan="0" len="24"/>
          <note vol="163" pos="1656" key="57" pan="0" len="24"/>
          <note vol="163" pos="1680" key="62" pan="0" len="24"/>
          <note vol="163" pos="1704" key="65" pan="0" len="24"/>
          <note vol="163" pos="1728" key="64" pan="0" len="24"/>
          <note vol="163" pos="1752" key="55" pan="0" len="24"/>
          <note vol="163" pos="1776" key="60" pan="0" len="24"/>
          <note vol="163" pos="1800" key="62" pan="0" len="48"/>
          <note vol="163" pos="1848" key="53" pan="0" len="24"/>
          <note vol="163" pos="1872" key="60" pan="0" len="24"/>
          <note vol="163" pos="1896" key="58" pan="0" len="24"/>
          <note vol="163" pos="1920" key="60" pan="0" len="24"/>
          <note vol="163" pos="1944" key="48" pan="0" len="24"/>
          <note vol="163" pos="1968" key="53" pan="0" len="24"/>
          <note vol="163" pos="1992" key="48" pan="0" len="24"/>
          <note vol="163" pos="2016" key="53" pan="0" len="24"/>
          <note vol="163" pos="2040" key="55" pan="0" len="24"/>
          <note vol="163" pos="2064" key="57" pan="0" len="24"/>
          <note vol="163" pos="2088" key="60" pan="0" len="24"/>
          <note vol="163" pos="2112" key="58" pan="0" len="24"/>
          <note vol="163" pos="2136" key="50" pan="0" len="24"/>
          <note vol="163" pos="2160" key="55" pan="0" len="24"/>
          <note vol="163" pos="2184" key="57" pan="0" len="48"/>
          <note vol="163" pos="2232" key="50" pan="0" len="24"/>
          <note vol="163" pos="2256" key="52" pan="0" len="24"/>
          <note vol="163" pos="2280" key="53" pan="0" len="24"/>
          <note vol="163" pos="2304" key="65" pan="0" len="24"/>
          <note vol="163" pos="2328" key="57" pan="0" len="24"/>
          <note vol="163" pos="2352" key="62" pan="0" len="24"/>
          <note vol="163" pos="2376" key="64" pan="0" len="24"/>
          <note vol="163" pos="2400" key="65" pan="0" len="24"/>
          <note vol="163" pos="2424" key="57" pan="0" len="24"/>
          <note vol="163" pos="2448" key="62" pan="0" len="24"/>
          <note vol="163" pos="2472" key="65" pan="0" len="24"/>
          <note vol="163" pos="2496" key="64" pan="0" len="24"/>
          <note vol="163" pos="2520" key="55" pan="0" len="24"/>
          <note vol="163" pos="2544" key="69" pan="0" len="24"/>
          <note vol="163" pos="2568" key="62" pan="0" len="48"/>
          <note vol="163" pos="2616" key="53" pan="0" len="24"/>
          <note vol="163" pos="2640" key="60" pan="0" len="24"/>
          <note vol="163" pos="2664" key="58" pan="0" len="24"/>
          <note vol="163" pos="2688" key="60" pan="0" len="24"/>
          <note vol="163" pos="2712" key="48" pan="0" len="24"/>
          <note vol="163" pos="2736" key="53" pan="0" len="24"/>
          <note vol="163" pos="2760" key="48" pan="0" len="24"/>
          <note vol="163" pos="2784" key="53" pan="0" len="24"/>
          <note vol="163" pos="2808" key="55" pan="0" len="24"/>
          <note vol="163" pos="2832" key="57" pan="0" len="24"/>
          <note vol="163" pos="2856" key="60" pan="0" len="24"/>
          <note vol="163" pos="2880" key="58" pan="0" len="24"/>
          <note vol="163" pos="2904" key="50" pan="0" len="24"/>
          <note vol="163" pos="2928" key="55" pan="0" len="24"/>
          <note vol="163" pos="2952" key="62" pan="0" len="24"/>
          <note vol="163" pos="2952" key="50" pan="0" len="24"/>
        </pattern>
        <pattern pos="25344" name="" muted="0" type="1" steps="16">
          <note vol="176" pos="0" key="62" pan="0" len="72"/>
          <note vol="197" pos="0" key="0" pan="0" len="23"/>
          <note vol="176" pos="72" key="50" pan="0" len="72"/>
          <note vol="176" pos="144" key="53" pan="0" len="72"/>
          <note vol="176" pos="216" key="57" pan="0" len="72"/>
          <note vol="170" pos="288" key="62" pan="0" len="48"/>
          <note vol="170" pos="336" key="64" pan="0" len="48"/>
          <note vol="176" pos="384" key="65" pan="0" len="72"/>
          <note vol="176" pos="456" key="64" pan="0" len="72"/>
          <note vol="176" pos="528" key="60" pan="0" len="72"/>
          <note vol="176" pos="600" key="55" pan="0" len="72"/>
          <note vol="170" pos="672" key="53" pan="0" len="48"/>
          <note vol="170" pos="720" key="55" pan="0" len="48"/>
          <note vol="176" pos="768" key="57" pan="0" len="72"/>
          <note vol="176" pos="840" key="50" pan="0" len="72"/>
          <note vol="176" pos="912" key="53" pan="0" len="72"/>
          <note vol="176" pos="984" key="57" pan="0" len="72"/>
          <note vol="170" pos="1056" key="62" pan="0" len="48"/>
          <note vol="170" pos="1104" key="64" pan="0" len="48"/>
          <note vol="176" pos="1152" key="65" pan="0" len="72"/>
          <note vol="176" pos="1224" key="69" pan="0" len="72"/>
          <note vol="176" pos="1296" key="67" pan="0" len="72"/>
          <note vol="176" pos="1368" key="64" pan="0" len="72"/>
          <note vol="170" pos="1440" key="70" pan="0" len="48"/>
          <note vol="170" pos="1488" key="69" pan="0" len="48"/>
        </pattern>
        <pattern pos="13824" name="" muted="0" type="1" steps="16">
          <note vol="157" pos="0" key="43" pan="0" len="12"/>
          <note vol="182" pos="0" key="1" pan="0" len="12"/>
          <note vol="157" pos="12" key="41" pan="0" len="12"/>
          <note vol="157" pos="24" key="47" pan="0" len="12"/>
          <note vol="157" pos="36" key="43" pan="0" len="12"/>
          <note vol="163" pos="48" key="50" pan="0" len="12"/>
          <note vol="163" pos="60" key="47" pan="0" len="12"/>
          <note vol="163" pos="72" key="53" pan="0" len="12"/>
          <note vol="163" pos="84" key="50" pan="0" len="12"/>
          <note vol="170" pos="96" key="55" pan="0" len="12"/>
          <note vol="170" pos="108" key="53" pan="0" len="12"/>
          <note vol="170" pos="120" key="59" pan="0" len="12"/>
          <note vol="170" pos="132" key="55" pan="0" len="12"/>
          <note vol="170" pos="144" key="62" pan="0" len="12"/>
          <note vol="170" pos="156" key="59" pan="0" len="12"/>
          <note vol="170" pos="168" key="65" pan="0" len="12"/>
          <note vol="170" pos="180" key="62" pan="0" len="12"/>
          <note vol="176" pos="192" key="67" pan="0" len="12"/>
          <note vol="170" pos="204" key="65" pan="0" len="12"/>
          <note vol="176" pos="216" key="71" pan="0" len="12"/>
          <note vol="170" pos="228" key="67" pan="0" len="12"/>
          <note vol="176" pos="240" key="74" pan="0" len="12"/>
          <note vol="182" pos="240" key="0" pan="0" len="12"/>
          <note vol="170" pos="252" key="71" pan="0" len="12"/>
          <note vol="182" pos="264" key="77" pan="0" len="12"/>
          <note vol="170" pos="276" key="74" pan="0" len="12"/>
          <note vol="182" pos="288" key="79" pan="0" len="12"/>
          <note vol="182" pos="300" key="77" pan="0" len="12"/>
          <note vol="182" pos="312" key="75" pan="0" len="12"/>
          <note vol="182" pos="324" key="74" pan="0" len="12"/>
          <note vol="182" pos="336" key="77" pan="0" len="12"/>
          <note vol="182" pos="348" key="75" pan="0" len="12"/>
          <note vol="182" pos="360" key="74" pan="0" len="12"/>
          <note vol="182" pos="372" key="75" pan="0" len="12"/>
        </pattern>
        <pattern pos="1536" name="lgtH2" muted="0" type="1" steps="16">
          <note vol="157" pos="0" key="72" pan="0" len="12"/>
          <note vol="157" pos="0" key="0" pan="0" len="12"/>
          <note vol="151" pos="12" key="67" pan="0" len="12"/>
          <note vol="151" pos="24" key="72" pan="0" len="12"/>
          <note vol="151" pos="36" key="75" pan="0" len="12"/>
          <note vol="163" pos="48" key="74" pan="0" len="12"/>
          <note vol="151" pos="60" key="67" pan="0" len="12"/>
          <note vol="151" pos="72" key="74" pan="0" len="12"/>
          <note vol="157" pos="84" key="77" pan="0" len="12"/>
          <note vol="170" pos="96" key="75" pan="0" len="12"/>
          <note vol="151" pos="108" key="67" pan="0" len="12"/>
          <note vol="151" pos="120" key="75" pan="0" len="12"/>
          <note vol="163" pos="132" key="79" pan="0" len="12"/>
          <note vol="176" pos="144" key="77" pan="0" len="12"/>
          <note vol="151" pos="156" key="74" pan="0" len="12"/>
          <note vol="151" pos="168" key="75" pan="0" len="12"/>
          <note vol="151" pos="180" key="72" pan="0" len="12"/>
          <note vol="151" pos="192" key="71" pan="0" len="12"/>
          <note vol="151" pos="204" key="67" pan="0" len="12"/>
          <note vol="151" pos="216" key="71" pan="0" len="12"/>
          <note vol="151" pos="228" key="74" pan="0" len="12"/>
          <note vol="157" pos="240" key="77" pan="0" len="12"/>
          <note vol="157" pos="252" key="74" pan="0" len="12"/>
          <note vol="163" pos="264" key="77" pan="0" len="12"/>
          <note vol="170" pos="276" key="79" pan="0" len="12"/>
          <note vol="176" pos="288" key="83" pan="0" len="24"/>
        </pattern>
        <pattern pos="26880" name="" muted="0" type="1" steps="16">
          <note vol="170" pos="0" key="71" pan="0" len="72"/>
          <note vol="170" pos="72" key="59" pan="0" len="72"/>
          <note vol="170" pos="144" key="64" pan="0" len="72"/>
          <note vol="170" pos="216" key="67" pan="0" len="72"/>
          <note vol="163" pos="288" key="71" pan="0" len="48"/>
          <note vol="163" pos="336" key="74" pan="0" len="48"/>
          <note vol="170" pos="384" key="76" pan="0" len="72"/>
          <note vol="170" pos="456" key="74" pan="0" len="72"/>
          <note vol="170" pos="528" key="69" pan="0" len="72"/>
          <note vol="170" pos="600" key="66" pan="0" len="72"/>
          <note vol="163" pos="672" key="64" pan="0" len="48"/>
          <note vol="163" pos="720" key="66" pan="0" len="48"/>
          <note vol="170" pos="768" key="67" pan="0" len="72"/>
          <note vol="170" pos="840" key="59" pan="0" len="72"/>
          <note vol="170" pos="912" key="64" pan="0" len="72"/>
          <note vol="170" pos="984" key="67" pan="0" len="72"/>
          <note vol="163" pos="1056" key="71" pan="0" len="48"/>
          <note vol="163" pos="1104" key="74" pan="0" len="48"/>
          <note vol="170" pos="1152" key="76" pan="0" len="72"/>
          <note vol="170" pos="1224" key="79" pan="0" len="72"/>
          <note vol="170" pos="1296" key="78" pan="0" len="72"/>
          <note vol="170" pos="1368" key="76" pan="0" len="72"/>
          <note vol="170" pos="1440" key="74" pan="0" len="48"/>
          <note vol="163" pos="1488" key="76" pan="0" len="48"/>
        </pattern>
        <pattern pos="28416" name="" muted="0" type="1" steps="16">
          <note vol="170" pos="0" key="79" pan="0" len="72"/>
          <note vol="170" pos="72" key="67" pan="0" len="72"/>
          <note vol="170" pos="144" key="71" pan="0" len="72"/>
          <note vol="170" pos="216" key="76" pan="0" len="72"/>
          <note vol="163" pos="288" key="79" pan="0" len="48"/>
          <note vol="163" pos="336" key="81" pan="0" len="48"/>
          <note vol="170" pos="384" key="83" pan="0" len="72"/>
          <note vol="170" pos="456" key="81" pan="0" len="72"/>
          <note vol="170" pos="528" key="78" pan="0" len="72"/>
          <note vol="170" pos="600" key="74" pan="0" len="72"/>
          <note vol="163" pos="672" key="71" pan="0" len="48"/>
          <note vol="163" pos="720" key="74" pan="0" len="48"/>
          <note vol="170" pos="768" key="76" pan="0" len="72"/>
          <note vol="170" pos="840" key="67" pan="0" len="72"/>
          <note vol="170" pos="912" key="71" pan="0" len="72"/>
          <note vol="170" pos="984" key="76" pan="0" len="72"/>
          <note vol="163" pos="1056" key="79" pan="0" len="48"/>
          <note vol="163" pos="1104" key="81" pan="0" len="48"/>
          <note vol="170" pos="1152" key="83" pan="0" len="72"/>
          <note vol="170" pos="1224" key="88" pan="0" len="72"/>
          <note vol="170" pos="1296" key="86" pan="0" len="72"/>
          <note vol="170" pos="1368" key="83" pan="0" len="72"/>
          <note vol="170" pos="1440" key="81" pan="0" len="48"/>
          <note vol="163" pos="1488" key="83" pan="0" len="48"/>
        </pattern>
        <pattern pos="2304" name="" muted="0" type="1" steps="16">
          <note vol="157" pos="0" key="79" pan="0" len="12"/>
          <note vol="157" pos="0" key="0" pan="0" len="12"/>
          <note vol="132" pos="12" key="67" pan="0" len="12"/>
          <note vol="157" pos="12" key="1" pan="0" len="12"/>
          <note vol="138" pos="24" key="72" pan="0" len="12"/>
          <note vol="157" pos="36" key="75" pan="0" len="12"/>
          <note vol="157" pos="36" key="0" pan="0" len="12"/>
          <note vol="138" pos="48" key="67" pan="0" len="12"/>
          <note vol="157" pos="48" key="1" pan="0" len="12"/>
          <note vol="138" pos="60" key="72" pan="0" len="12"/>
          <note vol="157" pos="72" key="77" pan="0" len="12"/>
          <note vol="157" pos="72" key="0" pan="0" len="12"/>
          <note vol="138" pos="84" key="67" pan="0" len="12"/>
          <note vol="157" pos="84" key="1" pan="0" len="12"/>
          <note vol="138" pos="96" key="72" pan="0" len="12"/>
          <note vol="157" pos="108" key="74" pan="0" len="12"/>
          <note vol="157" pos="108" key="0" pan="0" len="12"/>
          <note vol="138" pos="120" key="67" pan="0" len="12"/>
          <note vol="157" pos="120" key="1" pan="0" len="12"/>
          <note vol="138" pos="132" key="72" pan="0" len="12"/>
          <note vol="157" pos="144" key="75" pan="0" len="12"/>
          <note vol="157" pos="144" key="0" pan="0" len="12"/>
          <note vol="157" pos="156" key="74" pan="0" len="12"/>
          <note vol="157" pos="156" key="1" pan="0" len="12"/>
          <note vol="157" pos="168" key="72" pan="0" len="12"/>
          <note vol="157" pos="180" key="67" pan="0" len="12"/>
          <note vol="157" pos="192" key="79" pan="0" len="12"/>
          <note vol="157" pos="192" key="0" pan="0" len="12"/>
          <note vol="132" pos="204" key="67" pan="0" len="12"/>
          <note vol="157" pos="204" key="1" pan="0" len="12"/>
          <note vol="138" pos="216" key="72" pan="0" len="12"/>
          <note vol="157" pos="228" key="75" pan="0" len="12"/>
          <note vol="157" pos="228" key="0" pan="0" len="12"/>
          <note vol="138" pos="240" key="67" pan="0" len="12"/>
          <note vol="157" pos="240" key="1" pan="0" len="12"/>
          <note vol="138" pos="252" key="72" pan="0" len="12"/>
          <note vol="157" pos="264" key="77" pan="0" len="12"/>
          <note vol="157" pos="264" key="0" pan="0" len="12"/>
          <note vol="138" pos="276" key="67" pan="0" len="12"/>
          <note vol="157" pos="276" key="1" pan="0" len="12"/>
          <note vol="138" pos="288" key="72" pan="0" len="12"/>
          <note vol="157" pos="300" key="74" pan="0" len="12"/>
          <note vol="157" pos="300" key="0" pan="0" len="12"/>
          <note vol="138" pos="312" key="67" pan="0" len="12"/>
          <note vol="157" pos="312" key="1" pan="0" len="12"/>
          <note vol="138" pos="324" key="72" pan="0" len="12"/>
          <note vol="157" pos="336" key="75" pan="0" len="12"/>
          <note vol="157" pos="336" key="0" pan="0" len="12"/>
          <note vol="157" pos="348" key="74" pan="0" len="12"/>
          <note vol="157" pos="360" key="75" pan="0" len="12"/>
          <note vol="157" pos="372" key="77" pan="0" len="12"/>
        </pattern>
        <pattern pos="3072" name="" muted="0" type="1" steps="16">
          <note vol="170" pos="0" key="60" pan="0" len="12"/>
          <note vol="157" pos="0" key="1" pan="0" len="12"/>
          <note vol="151" pos="12" key="48" pan="0" len="12"/>
          <note vol="151" pos="24" key="55" pan="0" len="12"/>
          <note vol="170" pos="36" key="62" pan="0" len="12"/>
          <note vol="151" pos="48" key="48" pan="0" len="12"/>
          <note vol="151" pos="60" key="55" pan="0" len="12"/>
          <note vol="170" pos="72" key="60" pan="0" len="12"/>
          <note vol="151" pos="84" key="48" pan="0" len="12"/>
          <note vol="151" pos="96" key="55" pan="0" len="12"/>
          <note vol="170" pos="108" key="63" pan="0" len="12"/>
          <note vol="151" pos="120" key="48" pan="0" len="12"/>
          <note vol="151" pos="132" key="55" pan="0" len="12"/>
          <note vol="170" pos="144" key="62" pan="0" len="12"/>
          <note vol="170" pos="156" key="63" pan="0" len="12"/>
          <note vol="170" pos="168" key="62" pan="0" len="12"/>
          <note vol="170" pos="180" key="58" pan="0" len="12"/>
          <note vol="170" pos="192" key="60" pan="0" len="12"/>
          <note vol="151" pos="204" key="48" pan="0" len="12"/>
          <note vol="151" pos="216" key="55" pan="0" len="12"/>
          <note vol="170" pos="228" key="58" pan="0" len="12"/>
          <note vol="151" pos="240" key="48" pan="0" len="12"/>
          <note vol="151" pos="252" key="53" pan="0" len="12"/>
          <note vol="170" pos="264" key="55" pan="0" len="12"/>
          <note vol="151" pos="276" key="51" pan="0" len="12"/>
          <note vol="157" pos="288" key="53" pan="0" len="12"/>
          <note vol="157" pos="300" key="51" pan="0" len="12"/>
          <note vol="163" pos="312" key="53" pan="0" len="12"/>
          <note vol="163" pos="324" key="55" pan="0" len="12"/>
          <note vol="151" pos="336" key="63" pan="0" len="12"/>
          <note vol="151" pos="348" key="62" pan="0" len="12"/>
          <note vol="151" pos="360" key="63" pan="0" len="12"/>
          <note vol="151" pos="372" key="65" pan="0" len="12"/>
        </pattern>
        <pattern pos="3840" name="" muted="0" type="1" steps="16">
          <note vol="170" pos="0" key="75" pan="0" len="12"/>
          <note vol="151" pos="0" key="1" pan="0" len="12"/>
          <note vol="144" pos="12" key="63" pan="0" len="12"/>
          <note vol="151" pos="24" key="67" pan="0" len="12"/>
          <note vol="170" pos="36" key="72" pan="0" len="12"/>
          <note vol="151" pos="48" key="63" pan="0" len="12"/>
          <note vol="151" pos="60" key="67" pan="0" len="12"/>
          <note vol="170" pos="72" key="74" pan="0" len="12"/>
          <note vol="151" pos="84" key="63" pan="0" len="12"/>
          <note vol="151" pos="96" key="67" pan="0" len="12"/>
          <note vol="170" pos="108" key="70" pan="0" len="12"/>
          <note vol="151" pos="120" key="63" pan="0" len="12"/>
          <note vol="157" pos="132" key="67" pan="0" len="12"/>
          <note vol="170" pos="144" key="72" pan="0" len="12"/>
          <note vol="170" pos="156" key="74" pan="0" len="12"/>
          <note vol="170" pos="168" key="75" pan="0" len="12"/>
          <note vol="170" pos="180" key="77" pan="0" len="12"/>
          <note vol="170" pos="192" key="79" pan="0" len="12"/>
          <note vol="100" pos="192" key="0" pan="0" len="48"/>
          <note vol="144" pos="204" key="63" pan="0" len="12"/>
          <note vol="151" pos="216" key="67" pan="0" len="12"/>
          <note vol="170" pos="228" key="75" pan="0" len="12"/>
          <note vol="151" pos="240" key="63" pan="0" len="12"/>
          <note vol="100" pos="240" key="1" pan="0" len="48"/>
          <note vol="151" pos="252" key="67" pan="0" len="12"/>
          <note vol="170" pos="264" key="77" pan="0" len="12"/>
          <note vol="151" pos="276" key="63" pan="0" len="12"/>
          <note vol="151" pos="288" key="67" pan="0" len="12"/>
          <note vol="170" pos="300" key="74" pan="0" len="12"/>
          <note vol="151" pos="312" key="63" pan="0" len="12"/>
          <note vol="151" pos="324" key="67" pan="0" len="12"/>
          <note vol="170" pos="336" key="75" pan="0" len="12"/>
          <note vol="170" pos="348" key="74" pan="0" len="12"/>
          <note vol="170" pos="360" key="72" pan="0" len="12"/>
          <note vol="170" pos="372" key="67" pan="0" len="12"/>
        </pattern>
        <pattern pos="12672" name="" muted="0" type="1" steps="16">
          <note vol="182" pos="0" key="63" pan="0" len="12"/>
          <note vol="176" pos="0" key="0" pan="0" len="12"/>
          <note vol="157" pos="12" key="55" pan="0" len="12"/>
          <note vol="157" pos="24" key="58" pan="0" len="12"/>
          <note vol="176" pos="24" key="1" pan="0" len="12"/>
          <note vol="157" pos="36" key="60" pan="0" len="12"/>
          <note vol="157" pos="48" key="58" pan="0" len="12"/>
          <note vol="157" pos="60" key="55" pan="0" len="12"/>
          <note vol="182" pos="72" key="65" pan="0" len="12"/>
          <note vol="176" pos="72" key="0" pan="0" len="12"/>
          <note vol="157" pos="84" key="55" pan="0" len="12"/>
          <note vol="157" pos="96" key="58" pan="0" len="12"/>
          <note vol="176" pos="96" key="1" pan="0" len="12"/>
          <note vol="157" pos="108" key="60" pan="0" len="12"/>
          <note vol="157" pos="120" key="58" pan="0" len="12"/>
          <note vol="157" pos="132" key="55" pan="0" len="12"/>
          <note vol="182" pos="144" key="63" pan="0" len="12"/>
          <note vol="176" pos="144" key="0" pan="0" len="12"/>
          <note vol="157" pos="156" key="55" pan="0" len="12"/>
          <note vol="157" pos="168" key="58" pan="0" len="12"/>
          <note vol="176" pos="168" key="1" pan="0" len="12"/>
          <note vol="157" pos="180" key="60" pan="0" len="12"/>
          <note vol="157" pos="192" key="58" pan="0" len="12"/>
          <note vol="157" pos="204" key="55" pan="0" len="12"/>
          <note vol="188" pos="216" key="67" pan="0" len="12"/>
          <note vol="176" pos="216" key="0" pan="0" len="12"/>
          <note vol="157" pos="228" key="55" pan="0" len="12"/>
          <note vol="157" pos="240" key="58" pan="0" len="12"/>
          <note vol="176" pos="240" key="1" pan="0" len="12"/>
          <note vol="157" pos="252" key="60" pan="0" len="12"/>
          <note vol="157" pos="264" key="58" pan="0" len="12"/>
          <note vol="157" pos="276" key="55" pan="0" len="12"/>
          <note vol="188" pos="288" key="65" pan="0" len="12"/>
          <note vol="176" pos="288" key="0" pan="0" len="12"/>
          <note vol="157" pos="300" key="55" pan="0" len="12"/>
          <note vol="157" pos="312" key="58" pan="0" len="12"/>
          <note vol="176" pos="312" key="1" pan="0" len="12"/>
          <note vol="157" pos="324" key="60" pan="0" len="12"/>
          <note vol="182" pos="336" key="63" pan="0" len="12"/>
          <note vol="157" pos="348" key="60" pan="0" len="12"/>
          <note vol="157" pos="360" key="58" pan="0" len="12"/>
          <note vol="176" pos="360" key="0" pan="0" len="12"/>
          <note vol="157" pos="372" key="55" pan="0" len="12"/>
          <note vol="182" pos="384" key="65" pan="0" len="12"/>
          <note vol="176" pos="384" key="0" pan="0" len="12"/>
          <note vol="157" pos="396" key="51" pan="0" len="12"/>
          <note vol="157" pos="408" key="56" pan="0" len="12"/>
          <note vol="176" pos="408" key="1" pan="0" len="12"/>
          <note vol="157" pos="420" key="60" pan="0" len="12"/>
          <note vol="157" pos="432" key="56" pan="0" len="12"/>
          <note vol="157" pos="444" key="51" pan="0" len="12"/>
          <note vol="195" pos="456" key="72" pan="0" len="12"/>
          <note vol="176" pos="456" key="0" pan="0" len="12"/>
          <note vol="157" pos="468" key="51" pan="0" len="12"/>
          <note vol="157" pos="480" key="56" pan="0" len="12"/>
          <note vol="176" pos="480" key="1" pan="0" len="12"/>
          <note vol="157" pos="492" key="60" pan="0" len="12"/>
          <note vol="157" pos="504" key="56" pan="0" len="12"/>
          <note vol="157" pos="516" key="51" pan="0" len="12"/>
          <note vol="188" pos="528" key="70" pan="0" len="12"/>
          <note vol="176" pos="528" key="0" pan="0" len="12"/>
          <note vol="157" pos="540" key="51" pan="0" len="12"/>
          <note vol="157" pos="552" key="56" pan="0" len="12"/>
          <note vol="176" pos="552" key="1" pan="0" len="12"/>
          <note vol="157" pos="564" key="60" pan="0" len="12"/>
          <note vol="157" pos="576" key="56" pan="0" len="12"/>
          <note vol="157" pos="588" key="51" pan="0" len="12"/>
          <note vol="176" pos="600" key="67" pan="0" len="12"/>
          <note vol="176" pos="600" key="0" pan="0" len="12"/>
          <note vol="157" pos="612" key="51" pan="0" len="12"/>
          <note vol="157" pos="624" key="56" pan="0" len="12"/>
          <note vol="176" pos="624" key="1" pan="0" len="12"/>
          <note vol="157" pos="636" key="60" pan="0" len="12"/>
          <note vol="157" pos="648" key="56" pan="0" len="12"/>
          <note vol="157" pos="660" key="51" pan="0" len="12"/>
          <note vol="188" pos="672" key="70" pan="0" len="12"/>
          <note vol="176" pos="672" key="0" pan="0" len="12"/>
          <note vol="157" pos="684" key="51" pan="0" len="12"/>
          <note vol="157" pos="696" key="56" pan="0" len="12"/>
          <note vol="176" pos="696" key="1" pan="0" len="12"/>
          <note vol="157" pos="708" key="60" pan="0" len="12"/>
          <note vol="195" pos="720" key="72" pan="0" len="12"/>
          <note vol="157" pos="732" key="60" pan="0" len="12"/>
          <note vol="157" pos="744" key="56" pan="0" len="12"/>
          <note vol="176" pos="744" key="0" pan="0" len="12"/>
          <note vol="157" pos="756" key="51" pan="0" len="12"/>
          <note vol="195" pos="768" key="67" pan="0" len="12"/>
          <note vol="176" pos="768" key="0" pan="0" len="12"/>
          <note vol="157" pos="780" key="51" pan="0" len="12"/>
          <note vol="157" pos="792" key="55" pan="0" len="12"/>
          <note vol="176" pos="792" key="1" pan="0" len="12"/>
          <note vol="157" pos="804" key="60" pan="0" len="12"/>
          <note vol="157" pos="816" key="55" pan="0" len="12"/>
          <note vol="157" pos="828" key="51" pan="0" len="12"/>
          <note vol="195" pos="840" key="65" pan="0" len="12"/>
          <note vol="176" pos="840" key="0" pan="0" len="12"/>
          <note vol="157" pos="852" key="51" pan="0" len="12"/>
          <note vol="157" pos="864" key="55" pan="0" len="12"/>
          <note vol="176" pos="864" key="1" pan="0" len="12"/>
          <note vol="157" pos="876" key="60" pan="0" len="12"/>
          <note vol="157" pos="888" key="55" pan="0" len="12"/>
          <note vol="157" pos="900" key="51" pan="0" len="12"/>
          <note vol="195" pos="912" key="63" pan="0" len="12"/>
          <note vol="176" pos="912" key="0" pan="0" len="12"/>
          <note vol="157" pos="924" key="51" pan="0" len="12"/>
          <note vol="157" pos="936" key="55" pan="0" len="12"/>
          <note vol="176" pos="936" key="1" pan="0" len="12"/>
          <note vol="157" pos="948" key="60" pan="0" len="12"/>
          <note vol="157" pos="960" key="55" pan="0" len="12"/>
          <note vol="157" pos="972" key="51" pan="0" len="12"/>
          <note vol="195" pos="984" key="65" pan="0" len="12"/>
          <note vol="176" pos="984" key="0" pan="0" len="12"/>
          <note vol="157" pos="996" key="51" pan="0" len="12"/>
          <note vol="157" pos="1008" key="55" pan="0" len="12"/>
          <note vol="176" pos="1008" key="1" pan="0" len="12"/>
          <note vol="157" pos="1020" key="60" pan="0" len="12"/>
          <note vol="157" pos="1032" key="55" pan="0" len="12"/>
          <note vol="157" pos="1044" key="51" pan="0" len="12"/>
          <note vol="188" pos="1056" key="63" pan="0" len="12"/>
          <note vol="176" pos="1056" key="0" pan="0" len="12"/>
          <note vol="157" pos="1068" key="51" pan="0" len="12"/>
          <note vol="157" pos="1080" key="55" pan="0" len="12"/>
          <note vol="176" pos="1080" key="1" pan="0" len="12"/>
          <note vol="157" pos="1092" key="51" pan="0" len="12"/>
          <note vol="182" pos="1104" key="60" pan="0" len="12"/>
          <note vol="157" pos="1116" key="51" pan="0" len="12"/>
          <note vol="157" pos="1128" key="55" pan="0" len="12"/>
          <note vol="176" pos="1128" key="0" pan="0" len="12"/>
          <note vol="157" pos="1140" key="51" pan="0" len="12"/>
        </pattern>
        <pattern pos="8448" name="" muted="0" type="1" steps="16">
          <note vol="170" pos="0" key="51" pan="0" len="12"/>
          <note vol="188" pos="0" key="1" pan="0" len="12"/>
          <note vol="170" pos="12" key="56" pan="0" len="12"/>
          <note vol="170" pos="24" key="60" pan="0" len="12"/>
          <note vol="170" pos="36" key="63" pan="0" len="12"/>
          <note vol="170" pos="48" key="56" pan="0" len="12"/>
          <note vol="170" pos="60" key="60" pan="0" len="12"/>
          <note vol="170" pos="72" key="63" pan="0" len="12"/>
          <note vol="170" pos="84" key="68" pan="0" len="12"/>
          <note vol="170" pos="96" key="60" pan="0" len="12"/>
          <note vol="188" pos="96" key="0" pan="0" len="12"/>
          <note vol="170" pos="108" key="63" pan="0" len="12"/>
          <note vol="170" pos="120" key="68" pan="0" len="12"/>
          <note vol="170" pos="132" key="72" pan="0" len="12"/>
          <note vol="176" pos="144" key="62" pan="0" len="12"/>
          <note vol="188" pos="144" key="1" pan="0" len="12"/>
          <note vol="170" pos="156" key="65" pan="0" len="12"/>
          <note vol="170" pos="168" key="70" pan="0" len="12"/>
          <note vol="170" pos="180" key="74" pan="0" len="12"/>
          <note vol="176" pos="192" key="65" pan="0" len="12"/>
          <note vol="170" pos="204" key="70" pan="0" len="12"/>
          <note vol="170" pos="216" key="74" pan="0" len="12"/>
          <note vol="170" pos="228" key="77" pan="0" len="12"/>
          <note vol="176" pos="240" key="70" pan="0" len="12"/>
          <note vol="188" pos="240" key="0" pan="0" len="12"/>
          <note vol="170" pos="252" key="74" pan="0" len="12"/>
          <note vol="170" pos="264" key="77" pan="0" len="12"/>
          <note vol="176" pos="276" key="82" pan="0" len="12"/>
          <note vol="188" pos="288" key="86" pan="0" len="12"/>
          <note vol="176" pos="300" key="84" pan="0" len="12"/>
          <note vol="176" pos="312" key="82" pan="0" len="12"/>
          <note vol="176" pos="324" key="80" pan="0" len="12"/>
          <note vol="176" pos="336" key="79" pan="0" len="12"/>
          <note vol="176" pos="348" key="80" pan="0" len="12"/>
          <note vol="182" pos="360" key="82" pan="0" len="12"/>
          <note vol="188" pos="372" key="86" pan="0" len="12"/>
        </pattern>
        <pattern pos="8832" name="" muted="0" type="1" steps="16">
          <note vol="182" pos="0" key="75" pan="0" len="12"/>
          <note vol="188" pos="0" key="0" pan="0" len="12"/>
          <note vol="188" pos="12" key="77" pan="0" len="12"/>
          <note vol="182" pos="24" key="75" pan="0" len="12"/>
          <note vol="188" pos="24" key="1" pan="0" len="12"/>
          <note vol="176" pos="36" key="72" pan="0" len="12"/>
          <note vol="176" pos="48" key="67" pan="0" len="12"/>
          <note vol="182" pos="60" key="72" pan="0" len="12"/>
          <note vol="182" pos="72" key="74" pan="0" len="12"/>
          <note vol="188" pos="72" key="0" pan="0" len="12"/>
          <note vol="182" pos="84" key="75" pan="0" len="12"/>
          <note vol="182" pos="96" key="74" pan="0" len="12"/>
          <note vol="188" pos="96" key="1" pan="0" len="12"/>
          <note vol="170" pos="108" key="70" pan="0" len="12"/>
          <note vol="163" pos="120" key="65" pan="0" len="12"/>
          <note vol="170" pos="132" key="70" pan="0" len="12"/>
          <note vol="176" pos="144" key="72" pan="0" len="12"/>
          <note vol="188" pos="144" key="0" pan="0" len="12"/>
          <note vol="182" pos="156" key="74" pan="0" len="12"/>
          <note vol="182" pos="168" key="72" pan="0" len="12"/>
          <note vol="176" pos="180" key="68" pan="0" len="12"/>
          <note vol="170" pos="192" key="63" pan="0" len="12"/>
          <note vol="176" pos="204" key="68" pan="0" len="12"/>
          <note vol="182" pos="216" key="70" pan="0" len="12"/>
          <note vol="182" pos="228" key="72" pan="0" len="12"/>
          <note vol="176" pos="240" key="70" pan="0" len="12"/>
          <note vol="170" pos="252" key="67" pan="0" len="12"/>
          <note vol="163" pos="264" key="62" pan="0" len="12"/>
          <note vol="170" pos="276" key="67" pan="0" len="12"/>
          <note vol="176" pos="288" key="68" pan="0" len="12"/>
          <note vol="176" pos="300" key="67" pan="0" len="12"/>
          <note vol="176" pos="312" key="65" pan="0" len="12"/>
          <note vol="170" pos="324" key="63" pan="0" len="12"/>
          <note vol="182" pos="336" key="67" pan="0" len="12"/>
          <note vol="176" pos="348" key="65" pan="0" len="12"/>
          <note vol="170" pos="360" key="63" pan="0" len="12"/>
          <note vol="170" pos="372" key="62" pan="0" len="12"/>
        </pattern>
        <pattern pos="21120" name="" muted="0" type="1" steps="16">
          <note vol="157" pos="0" key="79" pan="0" len="12"/>
          <note vol="157" pos="0" key="0" pan="0" len="12"/>
          <note vol="132" pos="12" key="67" pan="0" len="12"/>
          <note vol="157" pos="12" key="1" pan="0" len="12"/>
          <note vol="138" pos="24" key="72" pan="0" len="12"/>
          <note vol="157" pos="36" key="75" pan="0" len="12"/>
          <note vol="157" pos="36" key="0" pan="0" len="12"/>
          <note vol="138" pos="48" key="67" pan="0" len="12"/>
          <note vol="157" pos="48" key="1" pan="0" len="12"/>
          <note vol="138" pos="60" key="72" pan="0" len="12"/>
          <note vol="157" pos="72" key="77" pan="0" len="12"/>
          <note vol="157" pos="72" key="0" pan="0" len="12"/>
          <note vol="138" pos="84" key="67" pan="0" len="12"/>
          <note vol="157" pos="84" key="1" pan="0" len="12"/>
          <note vol="138" pos="96" key="72" pan="0" len="12"/>
          <note vol="157" pos="108" key="74" pan="0" len="12"/>
          <note vol="157" pos="108" key="0" pan="0" len="12"/>
          <note vol="138" pos="120" key="67" pan="0" len="12"/>
          <note vol="157" pos="120" key="1" pan="0" len="12"/>
          <note vol="138" pos="132" key="72" pan="0" len="12"/>
          <note vol="157" pos="144" key="75" pan="0" len="12"/>
          <note vol="157" pos="144" key="0" pan="0" len="12"/>
          <note vol="157" pos="156" key="74" pan="0" len="12"/>
          <note vol="157" pos="156" key="1" pan="0" len="12"/>
          <note vol="157" pos="168" key="72" pan="0" len="12"/>
          <note vol="157" pos="180" key="67" pan="0" len="12"/>
          <note vol="157" pos="192" key="79" pan="0" len="12"/>
          <note vol="157" pos="192" key="0" pan="0" len="12"/>
          <note vol="132" pos="204" key="67" pan="0" len="12"/>
          <note vol="157" pos="204" key="1" pan="0" len="12"/>
          <note vol="138" pos="216" key="72" pan="0" len="12"/>
          <note vol="157" pos="228" key="75" pan="0" len="12"/>
          <note vol="157" pos="228" key="0" pan="0" len="12"/>
          <note vol="138" pos="240" key="67" pan="0" len="12"/>
          <note vol="157" pos="240" key="1" pan="0" len="12"/>
          <note vol="138" pos="252" key="72" pan="0" len="12"/>
          <note vol="157" pos="264" key="77" pan="0" len="12"/>
          <note vol="157" pos="264" key="0" pan="0" len="12"/>
          <note vol="138" pos="276" key="67" pan="0" len="12"/>
          <note vol="157" pos="276" key="1" pan="0" len="12"/>
          <note vol="138" pos="288" key="72" pan="0" len="12"/>
          <note vol="157" pos="300" key="74" pan="0" len="12"/>
          <note vol="157" pos="300" key="0" pan="0" len="12"/>
          <note vol="138" pos="312" key="67" pan="0" len="12"/>
          <note vol="157" pos="312" key="1" pan="0" len="12"/>
          <note vol="138" pos="324" key="72" pan="0" len="12"/>
          <note vol="157" pos="336" key="75" pan="0" len="12"/>
          <note vol="157" pos="336" key="0" pan="0" len="12"/>
          <note vol="157" pos="348" key="74" pan="0" len="12"/>
          <note vol="157" pos="360" key="75" pan="0" len="12"/>
          <note vol="157" pos="372" key="77" pan="0" len="12"/>
        </pattern>
        <pattern pos="21888" name="" muted="0" type="1" steps="16">
          <note vol="170" pos="0" key="60" pan="0" len="12"/>
          <note vol="157" pos="0" key="1" pan="0" len="12"/>
          <note vol="151" pos="12" key="48" pan="0" len="12"/>
          <note vol="151" pos="24" key="55" pan="0" len="12"/>
          <note vol="170" pos="36" key="62" pan="0" len="12"/>
          <note vol="151" pos="48" key="48" pan="0" len="12"/>
          <note vol="151" pos="60" key="55" pan="0" len="12"/>
          <note vol="170" pos="72" key="60" pan="0" len="12"/>
          <note vol="151" pos="84" key="48" pan="0" len="12"/>
          <note vol="151" pos="96" key="55" pan="0" len="12"/>
          <note vol="170" pos="108" key="63" pan="0" len="12"/>
          <note vol="151" pos="120" key="48" pan="0" len="12"/>
          <note vol="151" pos="132" key="55" pan="0" len="12"/>
          <note vol="170" pos="144" key="62" pan="0" len="12"/>
          <note vol="170" pos="156" key="63" pan="0" len="12"/>
          <note vol="170" pos="168" key="62" pan="0" len="12"/>
          <note vol="170" pos="180" key="58" pan="0" len="12"/>
          <note vol="170" pos="192" key="60" pan="0" len="12"/>
          <note vol="151" pos="204" key="48" pan="0" len="12"/>
          <note vol="151" pos="216" key="55" pan="0" len="12"/>
          <note vol="170" pos="228" key="58" pan="0" len="12"/>
          <note vol="151" pos="240" key="48" pan="0" len="12"/>
          <note vol="151" pos="252" key="53" pan="0" len="12"/>
          <note vol="170" pos="264" key="55" pan="0" len="12"/>
          <note vol="151" pos="276" key="51" pan="0" len="12"/>
          <note vol="157" pos="288" key="53" pan="0" len="12"/>
          <note vol="157" pos="300" key="51" pan="0" len="12"/>
          <note vol="163" pos="312" key="53" pan="0" len="12"/>
          <note vol="163" pos="324" key="55" pan="0" len="12"/>
          <note vol="151" pos="336" key="63" pan="0" len="12"/>
          <note vol="151" pos="348" key="62" pan="0" len="12"/>
          <note vol="151" pos="360" key="63" pan="0" len="12"/>
          <note vol="151" pos="372" key="65" pan="0" len="12"/>
        </pattern>
        <pattern pos="22656" name="" muted="0" type="1" steps="16">
          <note vol="170" pos="0" key="75" pan="0" len="12"/>
          <note vol="151" pos="0" key="1" pan="0" len="12"/>
          <note vol="144" pos="12" key="63" pan="0" len="12"/>
          <note vol="151" pos="24" key="67" pan="0" len="12"/>
          <note vol="170" pos="36" key="72" pan="0" len="12"/>
          <note vol="151" pos="48" key="63" pan="0" len="12"/>
          <note vol="151" pos="60" key="67" pan="0" len="12"/>
          <note vol="170" pos="72" key="74" pan="0" len="12"/>
          <note vol="151" pos="84" key="63" pan="0" len="12"/>
          <note vol="151" pos="96" key="67" pan="0" len="12"/>
          <note vol="170" pos="108" key="70" pan="0" len="12"/>
          <note vol="151" pos="120" key="63" pan="0" len="12"/>
          <note vol="157" pos="132" key="67" pan="0" len="12"/>
          <note vol="170" pos="144" key="72" pan="0" len="12"/>
          <note vol="170" pos="156" key="74" pan="0" len="12"/>
          <note vol="170" pos="168" key="75" pan="0" len="12"/>
          <note vol="170" pos="180" key="77" pan="0" len="12"/>
          <note vol="170" pos="192" key="79" pan="0" len="12"/>
          <note vol="100" pos="192" key="0" pan="0" len="48"/>
          <note vol="144" pos="204" key="63" pan="0" len="12"/>
          <note vol="151" pos="216" key="67" pan="0" len="12"/>
          <note vol="170" pos="228" key="75" pan="0" len="12"/>
          <note vol="151" pos="240" key="63" pan="0" len="12"/>
          <note vol="100" pos="240" key="1" pan="0" len="48"/>
          <note vol="151" pos="252" key="67" pan="0" len="12"/>
          <note vol="170" pos="264" key="77" pan="0" len="12"/>
          <note vol="151" pos="276" key="63" pan="0" len="12"/>
          <note vol="151" pos="288" key="67" pan="0" len="12"/>
          <note vol="170" pos="300" key="74" pan="0" len="12"/>
          <note vol="151" pos="312" key="63" pan="0" len="12"/>
          <note vol="151" pos="324" key="67" pan="0" len="12"/>
          <note vol="170" pos="336" key="75" pan="0" len="12"/>
          <note vol="170" pos="348" key="74" pan="0" len="12"/>
          <note vol="170" pos="360" key="72" pan="0" len="12"/>
          <note vol="170" pos="372" key="67" pan="0" len="12"/>
        </pattern>
      </track>
      <track solo="0" name="intro1" muted="0" type="1">
        <bbtrack>
          <trackcontainer maximized="0" width="1042" height="378" y="86" minimized="0" type="bbtrackcontainer" x="150" visible="0">
            <track solo="0" name="kick.wav" muted="0" type="0">
              <instrumenttrack vol="100" pitchrange="1" fxch="1" pitch="0" pan="0" usemasterpitch="1" basenote="57">
                <instrument name="audiofileprocessor">
                  <audiofileprocessor reversed="0" src="/home/pass/samples/sillydrums/kick.wav" eframe="1" amp="100" lframe="0" sframe="0" stutter="0" interp="0" looped="0"/>
                </instrument>
                <eldata fcut="14000" ftype="0" fres="0.5" fwet="0">
                  <elvol lpdel="0" dec="2" lamt="0" rel="2" userwavefile="" lspd="0.1" x100="0" latt="0" hold="2" lshp="0" sustain="1" lspd_numerator="4" att="0" lspd_syncmode="0" amt="1" ctlenvamt="0" lspd_denominator="4" pdel="0"/>
                  <elcut lpdel="0" dec="0.5" lamt="0" rel="0.1" userwavefile="" lspd="0.1" x100="0" latt="0" hold="0.5" lshp="0" sustain="0.5" lspd_numerator="4" att="0" lspd_syncmode="0" amt="0" ctlenvamt="0" lspd_denominator="4" pdel="0"/>
                  <elres lpdel="0" dec="0.5" lamt="0" rel="0.1" userwavefile="" lspd="0.1" x100="0" latt="0" hold="0.5" lshp="0" sustain="0.5" lspd_numerator="4" att="0" lspd_syncmode="0" amt="0" ctlenvamt="0" lspd_denominator="4" pdel="0"/>
                </eldata>
                <chordcreator chordrange="1" chord-enabled="0" chord="0"/>
                <arpeggiator arp-enabled="0" arptime_denominator="4" arpgate="100" arpskip="0" arptime="200" arpmode="0" arpmiss="0" arptime_numerator="4" arptime_syncmode="0" arprange="1" arp="0" arpdir="0" arpcycle="0"/>
                <midiport outputcontroller="0" readable="0" basevelocity="63" writable="0" outputprogram="1" fixedoutputvelocity="-1" fixedoutputnote="-1" outputchannel="1" inputchannel="0" inputcontroller="0" fixedinputvelocity="-1"/>
                <fxchain numofeffects="0" enabled="0"/>
              </instrumenttrack>
              <pattern pos="0" name="kick.wav" muted="0" type="0" steps="64">
                <note vol="100" pos="0" key="57" pan="0" len="-192"/>
                <note vol="100" pos="192" key="57" pan="0" len="-192"/>
                <note vol="100" pos="384" key="57" pan="0" len="-192"/>
                <note vol="100" pos="576" key="57" pan="0" len="-192"/>
                <note vol="100" pos="720" key="57" pan="0" len="-192"/>
                <note vol="100" pos="732" key="57" pan="0" len="-192"/>
                <note vol="100" pos="744" key="57" pan="0" len="-192"/>
                <note vol="100" pos="756" key="57" pan="0" len="-192"/>
              </pattern>
              <pattern pos="192" name="kick.wav" muted="0" type="0" steps="32">
                <note vol="100" pos="0" key="57" pan="0" len="-192"/>
                <note vol="100" pos="12" key="57" pan="0" len="-192"/>
                <note vol="100" pos="24" key="57" pan="0" len="-192"/>
                <note vol="100" pos="36" key="57" pan="0" len="-192"/>
                <note vol="100" pos="48" key="57" pan="0" len="-192"/>
                <note vol="100" pos="60" key="57" pan="0" len="-192"/>
                <note vol="100" pos="72" key="57" pan="0" len="-192"/>
                <note vol="100" pos="84" key="57" pan="0" len="-192"/>
                <note vol="100" pos="96" key="57" pan="0" len="-192"/>
                <note vol="100" pos="108" key="57" pan="0" len="-192"/>
                <note vol="100" pos="120" key="57" pan="0" len="-192"/>
                <note vol="100" pos="132" key="57" pan="0" len="-192"/>
                <note vol="100" pos="144" key="57" pan="0" len="-192"/>
                <note vol="100" pos="156" key="57" pan="0" len="-192"/>
                <note vol="100" pos="168" key="57" pan="0" len="-192"/>
                <note vol="100" pos="180" key="57" pan="0" len="-192"/>
                <note vol="100" pos="192" key="57" pan="0" len="-192"/>
                <note vol="100" pos="204" key="57" pan="0" len="-192"/>
                <note vol="100" pos="216" key="57" pan="0" len="-192"/>
                <note vol="100" pos="228" key="57" pan="0" len="-192"/>
                <note vol="100" pos="240" key="57" pan="0" len="-192"/>
                <note vol="100" pos="252" key="57" pan="0" len="-192"/>
                <note vol="100" pos="264" key="57" pan="0" len="-192"/>
                <note vol="100" pos="276" key="57" pan="0" len="-192"/>
                <note vol="100" pos="288" key="57" pan="0" len="-192"/>
                <note vol="100" pos="300" key="57" pan="0" len="-192"/>
                <note vol="100" pos="312" key="57" pan="0" len="-192"/>
                <note vol="100" pos="324" key="57" pan="0" len="-192"/>
                <note vol="100" pos="336" key="57" pan="0" len="-192"/>
                <note vol="100" pos="348" key="57" pan="0" len="-192"/>
                <note vol="100" pos="360" key="57" pan="0" len="-192"/>
                <note vol="100" pos="372" key="57" pan="0" len="-192"/>
              </pattern>
              <pattern pos="384" name="kick.wav" muted="0" type="0" steps="32">
                <note vol="100" pos="0" key="57" pan="0" len="-192"/>
                <note vol="100" pos="48" key="57" pan="0" len="-192"/>
                <note vol="100" pos="96" key="57" pan="0" len="-192"/>
                <note vol="100" pos="144" key="57" pan="0" len="-192"/>
                <note vol="100" pos="168" key="57" pan="0" len="-192"/>
                <note vol="100" pos="192" key="57" pan="0" len="-192"/>
                <note vol="100" pos="240" key="57" pan="0" len="-192"/>
                <note vol="100" pos="288" key="57" pan="0" len="-192"/>
              </pattern>
              <pattern pos="576" name="kick.wav" muted="0" type="0" steps="64">
                <note vol="100" pos="0" key="57" pan="0" len="-192"/>
                <note vol="100" pos="12" key="57" pan="0" len="-192"/>
                <note vol="100" pos="24" key="57" pan="0" len="-192"/>
                <note vol="100" pos="36" key="57" pan="0" len="-192"/>
                <note vol="100" pos="48" key="57" pan="0" len="-192"/>
                <note vol="100" pos="60" key="57" pan="0" len="-192"/>
                <note vol="100" pos="72" key="57" pan="0" len="-192"/>
                <note vol="100" pos="84" key="57" pan="0" len="-192"/>
                <note vol="100" pos="96" key="57" pan="0" len="-192"/>
                <note vol="100" pos="108" key="57" pan="0" len="-192"/>
                <note vol="100" pos="120" key="57" pan="0" len="-192"/>
                <note vol="100" pos="132" key="57" pan="0" len="-192"/>
                <note vol="100" pos="144" key="57" pan="0" len="-192"/>
                <note vol="100" pos="156" key="57" pan="0" len="-192"/>
                <note vol="100" pos="168" key="57" pan="0" len="-192"/>
                <note vol="100" pos="180" key="57" pan="0" len="-192"/>
                <note vol="100" pos="192" key="57" pan="0" len="-192"/>
                <note vol="100" pos="204" key="57" pan="0" len="-192"/>
                <note vol="100" pos="216" key="57" pan="0" len="-192"/>
                <note vol="100" pos="228" key="57" pan="0" len="-192"/>
                <note vol="100" pos="240" key="57" pan="0" len="-192"/>
                <note vol="100" pos="252" key="57" pan="0" len="-192"/>
                <note vol="100" pos="264" key="57" pan="0" len="-192"/>
                <note vol="100" pos="276" key="57" pan="0" len="-192"/>
                <note vol="100" pos="288" key="57" pan="0" len="-192"/>
                <note vol="100" pos="300" key="57" pan="0" len="-192"/>
                <note vol="100" pos="312" key="57" pan="0" len="-192"/>
                <note vol="100" pos="324" key="57" pan="0" len="-192"/>
                <note vol="100" pos="336" key="57" pan="0" len="-192"/>
                <note vol="100" pos="348" key="57" pan="0" len="-192"/>
                <note vol="100" pos="360" key="57" pan="0" len="-192"/>
                <note vol="100" pos="372" key="57" pan="0" len="-192"/>
                <note vol="100" pos="384" key="57" pan="0" len="-192"/>
                <note vol="100" pos="396" key="57" pan="0" len="-192"/>
                <note vol="100" pos="408" key="57" pan="0" len="-192"/>
                <note vol="100" pos="420" key="57" pan="0" len="-192"/>
                <note vol="100" pos="432" key="57" pan="0" len="-192"/>
                <note vol="100" pos="444" key="57" pan="0" len="-192"/>
                <note vol="100" pos="456" key="57" pan="0" len="-192"/>
                <note vol="100" pos="468" key="57" pan="0" len="-192"/>
                <note vol="100" pos="480" key="57" pan="0" len="-192"/>
                <note vol="100" pos="492" key="57" pan="0" len="-192"/>
                <note vol="100" pos="504" key="57" pan="0" len="-192"/>
                <note vol="100" pos="516" key="57" pan="0" len="-192"/>
                <note vol="100" pos="528" key="57" pan="0" len="-192"/>
                <note vol="100" pos="540" key="57" pan="0" len="-192"/>
                <note vol="100" pos="552" key="57" pan="0" len="-192"/>
                <note vol="100" pos="564" key="57" pan="0" len="-192"/>
                <note vol="100" pos="576" key="57" pan="0" len="-192"/>
                <note vol="100" pos="588" key="57" pan="0" len="-192"/>
                <note vol="100" pos="600" key="57" pan="0" len="-192"/>
                <note vol="100" pos="612" key="57" pan="0" len="-192"/>
                <note vol="100" pos="624" key="57" pan="0" len="-192"/>
                <note vol="100" pos="636" key="57" pan="0" len="-192"/>
                <note vol="100" pos="648" key="57" pan="0" len="-192"/>
                <note vol="100" pos="660" key="57" pan="0" len="-192"/>
                <note vol="100" pos="672" key="57" pan="0" len="-192"/>
                <note vol="100" pos="684" key="57" pan="0" len="-192"/>
                <note vol="100" pos="696" key="57" pan="0" len="-192"/>
                <note vol="100" pos="708" key="57" pan="0" len="-192"/>
                <note vol="100" pos="720" key="57" pan="0" len="-192"/>
                <note vol="100" pos="732" key="57" pan="0" len="-192"/>
                <note vol="100" pos="744" key="57" pan="0" len="-192"/>
                <note vol="100" pos="756" key="57" pan="0" len="-192"/>
              </pattern>
              <pattern pos="768" name="kick.wav" muted="0" type="0" steps="16">
                <note vol="100" pos="0" key="57" pan="0" len="-192"/>
                <note vol="100" pos="12" key="57" pan="0" len="-192"/>
                <note vol="100" pos="24" key="57" pan="0" len="-192"/>
                <note vol="100" pos="36" key="57" pan="0" len="-192"/>
                <note vol="100" pos="48" key="57" pan="0" len="-192"/>
                <note vol="100" pos="60" key="57" pan="0" len="-192"/>
                <note vol="100" pos="72" key="57" pan="0" len="-192"/>
                <note vol="100" pos="84" key="57" pan="0" len="-192"/>
                <note vol="100" pos="96" key="57" pan="0" len="-192"/>
                <note vol="100" pos="108" key="57" pan="0" len="-192"/>
                <note vol="100" pos="120" key="57" pan="0" len="-192"/>
                <note vol="100" pos="132" key="57" pan="0" len="-192"/>
                <note vol="100" pos="144" key="57" pan="0" len="-192"/>
                <note vol="100" pos="156" key="57" pan="0" len="-192"/>
                <note vol="100" pos="168" key="57" pan="0" len="-192"/>
                <note vol="100" pos="180" key="57" pan="0" len="-192"/>
              </pattern>
              <pattern pos="960" name="kick.wav" muted="0" type="0" steps="64">
                <note vol="100" pos="0" key="57" pan="0" len="-192"/>
                <note vol="100" pos="48" key="57" pan="0" len="-192"/>
                <note vol="100" pos="96" key="57" pan="0" len="-192"/>
                <note vol="100" pos="144" key="57" pan="0" len="-192"/>
                <note vol="100" pos="156" key="57" pan="0" len="-192"/>
                <note vol="100" pos="168" key="57" pan="0" len="-192"/>
                <note vol="100" pos="180" key="57" pan="0" len="-192"/>
                <note vol="100" pos="192" key="57" pan="0" len="-192"/>
                <note vol="100" pos="240" key="57" pan="0" len="-192"/>
                <note vol="100" pos="288" key="57" pan="0" len="-192"/>
                <note vol="100" pos="336" key="57" pan="0" len="-192"/>
                <note vol="100" pos="348" key="57" pan="0" len="-192"/>
                <note vol="100" pos="360" key="57" pan="0" len="-192"/>
                <note vol="100" pos="372" key="57" pan="0" len="-192"/>
                <note vol="100" pos="384" key="57" pan="0" len="-192"/>
                <note vol="100" pos="396" key="57" pan="0" len="-192"/>
                <note vol="100" pos="408" key="57" pan="0" len="-192"/>
                <note vol="100" pos="420" key="57" pan="0" len="-192"/>
                <note vol="100" pos="432" key="57" pan="0" len="-192"/>
                <note vol="100" pos="444" key="57" pan="0" len="-192"/>
                <note vol="100" pos="456" key="57" pan="0" len="-192"/>
                <note vol="100" pos="468" key="57" pan="0" len="-192"/>
                <note vol="100" pos="480" key="57" pan="0" len="-192"/>
                <note vol="100" pos="492" key="57" pan="0" len="-192"/>
                <note vol="100" pos="504" key="57" pan="0" len="-192"/>
                <note vol="100" pos="516" key="57" pan="0" len="-192"/>
                <note vol="100" pos="528" key="57" pan="0" len="-192"/>
                <note vol="100" pos="540" key="57" pan="0" len="-192"/>
                <note vol="100" pos="552" key="57" pan="0" len="-192"/>
                <note vol="100" pos="564" key="57" pan="0" len="-192"/>
                <note vol="100" pos="576" key="57" pan="0" len="-192"/>
                <note vol="100" pos="588" key="57" pan="0" len="-192"/>
                <note vol="100" pos="600" key="57" pan="0" len="-192"/>
                <note vol="100" pos="612" key="57" pan="0" len="-192"/>
                <note vol="100" pos="624" key="57" pan="0" len="-192"/>
                <note vol="100" pos="636" key="57" pan="0" len="-192"/>
                <note vol="100" pos="648" key="57" pan="0" len="-192"/>
                <note vol="100" pos="660" key="57" pan="0" len="-192"/>
                <note vol="100" pos="672" key="57" pan="0" len="-192"/>
                <note vol="100" pos="684" key="57" pan="0" len="-192"/>
                <note vol="100" pos="696" key="57" pan="0" len="-192"/>
                <note vol="100" pos="708" key="57" pan="0" len="-192"/>
                <note vol="100" pos="720" key="57" pan="0" len="-192"/>
                <note vol="100" pos="732" key="57" pan="0" len="-192"/>
                <note vol="100" pos="744" key="57" pan="0" len="-192"/>
                <note vol="100" pos="756" key="57" pan="0" len="-192"/>
              </pattern>
              <pattern pos="1152" name="kick.wav" muted="0" type="0" steps="64">
                <note vol="100" pos="0" key="57" pan="0" len="-192"/>
                <note vol="100" pos="48" key="57" pan="0" len="-192"/>
                <note vol="100" pos="96" key="57" pan="0" len="-192"/>
                <note vol="100" pos="144" key="57" pan="0" len="-192"/>
                <note vol="100" pos="156" key="57" pan="0" len="-192"/>
                <note vol="100" pos="168" key="57" pan="0" len="-192"/>
                <note vol="100" pos="180" key="57" pan="0" len="-192"/>
                <note vol="100" pos="192" key="57" pan="0" len="-192"/>
                <note vol="100" pos="240" key="57" pan="0" len="-192"/>
                <note vol="100" pos="288" key="57" pan="0" len="-192"/>
                <note vol="100" pos="336" key="57" pan="0" len="-192"/>
                <note vol="100" pos="348" key="57" pan="0" len="-192"/>
                <note vol="100" pos="360" key="57" pan="0" len="-192"/>
                <note vol="100" pos="372" key="57" pan="0" len="-192"/>
                <note vol="100" pos="384" key="57" pan="0" len="-192"/>
                <note vol="100" pos="396" key="57" pan="0" len="-192"/>
                <note vol="100" pos="408" key="57" pan="0" len="-192"/>
                <note vol="100" pos="420" key="57" pan="0" len="-192"/>
                <note vol="100" pos="432" key="57" pan="0" len="-192"/>
                <note vol="100" pos="444" key="57" pan="0" len="-192"/>
                <note vol="100" pos="456" key="57" pan="0" len="-192"/>
                <note vol="100" pos="468" key="57" pan="0" len="-192"/>
                <note vol="100" pos="480" key="57" pan="0" len="-192"/>
                <note vol="100" pos="492" key="57" pan="0" len="-192"/>
                <note vol="100" pos="504" key="57" pan="0" len="-192"/>
                <note vol="100" pos="516" key="57" pan="0" len="-192"/>
                <note vol="100" pos="528" key="57" pan="0" len="-192"/>
                <note vol="100" pos="540" key="57" pan="0" len="-192"/>
                <note vol="100" pos="552" key="57" pan="0" len="-192"/>
                <note vol="100" pos="564" key="57" pan="0" len="-192"/>
                <note vol="100" pos="576" key="57" pan="0" len="-192"/>
                <note vol="100" pos="588" key="57" pan="0" len="-192"/>
                <note vol="100" pos="600" key="57" pan="0" len="-192"/>
                <note vol="100" pos="612" key="57" pan="0" len="-192"/>
                <note vol="100" pos="624" key="57" pan="0" len="-192"/>
                <note vol="100" pos="636" key="57" pan="0" len="-192"/>
                <note vol="100" pos="648" key="57" pan="0" len="-192"/>
                <note vol="100" pos="660" key="57" pan="0" len="-192"/>
                <note vol="100" pos="672" key="57" pan="0" len="-192"/>
                <note vol="100" pos="684" key="57" pan="0" len="-192"/>
                <note vol="100" pos="696" key="57" pan="0" len="-192"/>
                <note vol="100" pos="708" key="57" pan="0" len="-192"/>
                <note vol="100" pos="720" key="57" pan="0" len="-192"/>
                <note vol="100" pos="732" key="57" pan="0" len="-192"/>
                <note vol="100" pos="744" key="57" pan="0" len="-192"/>
                <note vol="100" pos="756" key="57" pan="0" len="-192"/>
              </pattern>
              <pattern pos="1344" name="kick.wav" muted="0" type="0" steps="64">
                <note vol="100" pos="0" key="57" pan="0" len="-192"/>
                <note vol="100" pos="48" key="57" pan="0" len="-192"/>
                <note vol="100" pos="96" key="57" pan="0" len="-192"/>
                <note vol="100" pos="144" key="57" pan="0" len="-192"/>
                <note vol="100" pos="156" key="57" pan="0" len="-192"/>
                <note vol="100" pos="168" key="57" pan="0" len="-192"/>
                <note vol="100" pos="180" key="57" pan="0" len="-192"/>
                <note vol="100" pos="192" key="57" pan="0" len="-192"/>
                <note vol="100" pos="240" key="57" pan="0" len="-192"/>
                <note vol="100" pos="288" key="57" pan="0" len="-192"/>
                <note vol="100" pos="336" key="57" pan="0" len="-192"/>
                <note vol="100" pos="348" key="57" pan="0" len="-192"/>
                <note vol="100" pos="360" key="57" pan="0" len="-192"/>
                <note vol="100" pos="372" key="57" pan="0" len="-192"/>
                <note vol="100" pos="384" key="57" pan="0" len="-192"/>
                <note vol="100" pos="432" key="57" pan="0" len="-192"/>
                <note vol="100" pos="480" key="57" pan="0" len="-192"/>
                <note vol="100" pos="528" key="57" pan="0" len="-192"/>
                <note vol="100" pos="540" key="57" pan="0" len="-192"/>
                <note vol="100" pos="552" key="57" pan="0" len="-192"/>
                <note vol="100" pos="564" key="57" pan="0" len="-192"/>
                <note vol="100" pos="576" key="57" pan="0" len="-192"/>
                <note vol="100" pos="624" key="57" pan="0" len="-192"/>
                <note vol="100" pos="672" key="57" pan="0" len="-192"/>
                <note vol="100" pos="720" key="57" pan="0" len="-192"/>
                <note vol="100" pos="732" key="57" pan="0" len="-192"/>
                <note vol="100" pos="744" key="57" pan="0" len="-192"/>
                <note vol="100" pos="756" key="57" pan="0" len="-192"/>
              </pattern>
              <pattern pos="1536" name="kick.wav" muted="0" type="0" steps="32">
                <note vol="100" pos="0" key="57" pan="0" len="-192"/>
              </pattern>
              <pattern pos="1728" name="kick.wav" muted="0" type="0" steps="48">
                <note vol="100" pos="0" key="57" pan="0" len="-192"/>
                <note vol="100" pos="12" key="57" pan="0" len="-192"/>
                <note vol="100" pos="24" key="57" pan="0" len="-192"/>
                <note vol="100" pos="36" key="57" pan="0" len="-192"/>
                <note vol="100" pos="48" key="57" pan="0" len="-192"/>
                <note vol="100" pos="60" key="57" pan="0" len="-192"/>
                <note vol="100" pos="72" key="57" pan="0" len="-192"/>
                <note vol="100" pos="84" key="57" pan="0" len="-192"/>
                <note vol="100" pos="96" key="57" pan="0" len="-192"/>
                <note vol="100" pos="108" key="57" pan="0" len="-192"/>
                <note vol="100" pos="120" key="57" pan="0" len="-192"/>
                <note vol="100" pos="132" key="57" pan="0" len="-192"/>
                <note vol="100" pos="144" key="57" pan="0" len="-192"/>
                <note vol="100" pos="156" key="57" pan="0" len="-192"/>
                <note vol="100" pos="168" key="57" pan="0" len="-192"/>
                <note vol="100" pos="180" key="57" pan="0" len="-192"/>
                <note vol="100" pos="204" key="57" pan="0" len="-192"/>
                <note vol="100" pos="228" key="57" pan="0" len="-192"/>
                <note vol="100" pos="252" key="57" pan="0" len="-192"/>
                <note vol="100" pos="276" key="57" pan="0" len="-192"/>
                <note vol="100" pos="288" key="57" pan="0" len="-192"/>
                <note vol="100" pos="300" key="57" pan="0" len="-192"/>
                <note vol="100" pos="312" key="57" pan="0" len="-192"/>
                <note vol="100" pos="324" key="57" pan="0" len="-192"/>
                <note vol="100" pos="336" key="57" pan="0" len="-192"/>
                <note vol="100" pos="348" key="57" pan="0" len="-192"/>
                <note vol="100" pos="360" key="57" pan="0" len="-192"/>
                <note vol="100" pos="372" key="57" pan="0" len="-192"/>
                <note vol="100" pos="384" key="57" pan="0" len="-192"/>
              </pattern>
              <pattern pos="1920" name="kick.wav" muted="0" type="0" steps="32">
                <note vol="100" pos="0" key="57" pan="0" len="-192"/>
                <note vol="100" pos="144" key="57" pan="0" len="-192"/>
                <note vol="100" pos="288" key="57" pan="0" len="-192"/>
                <note vol="100" pos="336" key="57" pan="0" len="-192"/>
              </pattern>
              <pattern pos="2112" name="kick.wav" muted="0" type="0" steps="64">
                <note vol="100" pos="0" key="57" pan="0" len="-192"/>
                <note vol="100" pos="36" key="57" pan="0" len="-192"/>
                <note vol="100" pos="72" key="57" pan="0" len="-192"/>
                <note vol="100" pos="108" key="57" pan="0" len="-192"/>
                <note vol="100" pos="144" key="57" pan="0" len="-192"/>
                <note vol="100" pos="180" key="57" pan="0" len="-192"/>
                <note vol="100" pos="216" key="57" pan="0" len="-192"/>
                <note vol="100" pos="252" key="57" pan="0" len="-192"/>
                <note vol="100" pos="288" key="57" pan="0" len="-192"/>
                <note vol="100" pos="312" key="57" pan="0" len="-192"/>
                <note vol="100" pos="336" key="57" pan="0" len="-192"/>
                <note vol="100" pos="348" key="57" pan="0" len="-192"/>
                <note vol="100" pos="360" key="57" pan="0" len="-192"/>
                <note vol="100" pos="372" key="57" pan="0" len="-192"/>
                <note vol="100" pos="384" key="57" pan="0" len="-192"/>
                <note vol="100" pos="420" key="57" pan="0" len="-192"/>
                <note vol="100" pos="456" key="57" pan="0" len="-192"/>
                <note vol="100" pos="492" key="57" pan="0" len="-192"/>
                <note vol="100" pos="528" key="57" pan="0" len="-192"/>
                <note vol="100" pos="564" key="57" pan="0" len="-192"/>
                <note vol="100" pos="600" key="57" pan="0" len="-192"/>
                <note vol="100" pos="636" key="57" pan="0" len="-192"/>
                <note vol="100" pos="672" key="57" pan="0" len="-192"/>
                <note vol="100" pos="696" key="57" pan="0" len="-192"/>
                <note vol="100" pos="720" key="57" pan="0" len="-192"/>
                <note vol="100" pos="732" key="57" pan="0" len="-192"/>
                <note vol="100" pos="744" key="57" pan="0" len="-192"/>
                <note vol="100" pos="756" key="57" pan="0" len="-192"/>
              </pattern>
              <pattern pos="2304" name="kick.wav" muted="0" type="0" steps="64">
                <note vol="100" pos="0" key="57" pan="0" len="-192"/>
                <note vol="100" pos="36" key="57" pan="0" len="-192"/>
                <note vol="100" pos="48" key="57" pan="0" len="-192"/>
                <note vol="100" pos="72" key="57" pan="0" len="-192"/>
                <note vol="100" pos="96" key="57" pan="0" len="-192"/>
                <note vol="100" pos="108" key="57" pan="0" len="-192"/>
                <note vol="100" pos="144" key="57" pan="0" len="-192"/>
                <note vol="100" pos="180" key="57" pan="0" len="-192"/>
                <note vol="100" pos="192" key="57" pan="0" len="-192"/>
                <note vol="100" pos="216" key="57" pan="0" len="-192"/>
                <note vol="100" pos="240" key="57" pan="0" len="-192"/>
                <note vol="100" pos="252" key="57" pan="0" len="-192"/>
                <note vol="100" pos="288" key="57" pan="0" len="-192"/>
                <note vol="100" pos="312" key="57" pan="0" len="-192"/>
                <note vol="100" pos="336" key="57" pan="0" len="-192"/>
                <note vol="100" pos="348" key="57" pan="0" len="-192"/>
                <note vol="100" pos="360" key="57" pan="0" len="-192"/>
                <note vol="100" pos="372" key="57" pan="0" len="-192"/>
                <note vol="100" pos="384" key="57" pan="0" len="-192"/>
                <note vol="100" pos="420" key="57" pan="0" len="-192"/>
                <note vol="100" pos="432" key="57" pan="0" len="-192"/>
                <note vol="100" pos="456" key="57" pan="0" len="-192"/>
                <note vol="100" pos="480" key="57" pan="0" len="-192"/>
                <note vol="100" pos="492" key="57" pan="0" len="-192"/>
                <note vol="100" pos="528" key="57" pan="0" len="-192"/>
                <note vol="100" pos="564" key="57" pan="0" len="-192"/>
                <note vol="100" pos="576" key="57" pan="0" len="-192"/>
                <note vol="100" pos="600" key="57" pan="0" len="-192"/>
                <note vol="100" pos="624" key="57" pan="0" len="-192"/>
                <note vol="100" pos="636" key="57" pan="0" len="-192"/>
                <note vol="100" pos="672" key="57" pan="0" len="-192"/>
                <note vol="100" pos="696" key="57" pan="0" len="-192"/>
                <note vol="100" pos="720" key="57" pan="0" len="-192"/>
                <note vol="100" pos="732" key="57" pan="0" len="-192"/>
                <note vol="100" pos="744" key="57" pan="0" len="-192"/>
                <note vol="100" pos="756" key="57" pan="0" len="-192"/>
              </pattern>
              <pattern pos="2496" name="kick.wav" muted="0" type="0" steps="64">
                <note vol="100" pos="0" key="57" pan="0" len="-192"/>
                <note vol="100" pos="12" key="57" pan="0" len="-192"/>
                <note vol="100" pos="24" key="57" pan="0" len="-192"/>
                <note vol="100" pos="36" key="57" pan="0" len="-192"/>
                <note vol="100" pos="48" key="57" pan="0" len="-192"/>
                <note vol="100" pos="60" key="57" pan="0" len="-192"/>
                <note vol="100" pos="72" key="57" pan="0" len="-192"/>
                <note vol="100" pos="84" key="57" pan="0" len="-192"/>
                <note vol="100" pos="96" key="57" pan="0" len="-192"/>
                <note vol="100" pos="108" key="57" pan="0" len="-192"/>
                <note vol="100" pos="120" key="57" pan="0" len="-192"/>
                <note vol="100" pos="132" key="57" pan="0" len="-192"/>
                <note vol="100" pos="144" key="57" pan="0" len="-192"/>
                <note vol="100" pos="156" key="57" pan="0" len="-192"/>
                <note vol="100" pos="168" key="57" pan="0" len="-192"/>
                <note vol="100" pos="180" key="57" pan="0" len="-192"/>
                <note vol="100" pos="192" key="57" pan="0" len="-192"/>
                <note vol="100" pos="204" key="57" pan="0" len="-192"/>
                <note vol="100" pos="216" key="57" pan="0" len="-192"/>
                <note vol="100" pos="228" key="57" pan="0" len="-192"/>
                <note vol="100" pos="240" key="57" pan="0" len="-192"/>
                <note vol="100" pos="252" key="57" pan="0" len="-192"/>
                <note vol="100" pos="264" key="57" pan="0" len="-192"/>
                <note vol="100" pos="276" key="57" pan="0" len="-192"/>
                <note vol="100" pos="288" key="57" pan="0" len="-192"/>
                <note vol="100" pos="300" key="57" pan="0" len="-192"/>
                <note vol="100" pos="312" key="57" pan="0" len="-192"/>
                <note vol="100" pos="324" key="57" pan="0" len="-192"/>
                <note vol="100" pos="336" key="57" pan="0" len="-192"/>
                <note vol="100" pos="348" key="57" pan="0" len="-192"/>
                <note vol="100" pos="360" key="57" pan="0" len="-192"/>
                <note vol="100" pos="372" key="57" pan="0" len="-192"/>
                <note vol="100" pos="384" key="57" pan="0" len="-192"/>
                <note vol="100" pos="396" key="57" pan="0" len="-192"/>
                <note vol="100" pos="408" key="57" pan="0" len="-192"/>
                <note vol="100" pos="420" key="57" pan="0" len="-192"/>
                <note vol="100" pos="432" key="57" pan="0" len="-192"/>
                <note vol="100" pos="444" key="57" pan="0" len="-192"/>
                <note vol="100" pos="456" key="57" pan="0" len="-192"/>
                <note vol="100" pos="468" key="57" pan="0" len="-192"/>
                <note vol="100" pos="480" key="57" pan="0" len="-192"/>
                <note vol="100" pos="492" key="57" pan="0" len="-192"/>
                <note vol="100" pos="504" key="57" pan="0" len="-192"/>
                <note vol="100" pos="516" key="57" pan="0" len="-192"/>
                <note vol="100" pos="528" key="57" pan="0" len="-192"/>
                <note vol="100" pos="540" key="57" pan="0" len="-192"/>
                <note vol="100" pos="552" key="57" pan="0" len="-192"/>
                <note vol="100" pos="564" key="57" pan="0" len="-192"/>
                <note vol="100" pos="576" key="57" pan="0" len="-192"/>
                <note vol="100" pos="588" key="57" pan="0" len="-192"/>
                <note vol="100" pos="600" key="57" pan="0" len="-192"/>
                <note vol="100" pos="612" key="57" pan="0" len="-192"/>
                <note vol="100" pos="624" key="57" pan="0" len="-192"/>
                <note vol="100" pos="636" key="57" pan="0" len="-192"/>
                <note vol="100" pos="648" key="57" pan="0" len="-192"/>
                <note vol="100" pos="660" key="57" pan="0" len="-192"/>
                <note vol="100" pos="672" key="57" pan="0" len="-192"/>
                <note vol="100" pos="684" key="57" pan="0" len="-192"/>
                <note vol="100" pos="696" key="57" pan="0" len="-192"/>
                <note vol="100" pos="708" key="57" pan="0" len="-192"/>
                <note vol="100" pos="720" key="57" pan="0" len="-192"/>
                <note vol="100" pos="732" key="57" pan="0" len="-192"/>
                <note vol="100" pos="744" key="57" pan="0" len="-192"/>
                <note vol="100" pos="756" key="57" pan="0" len="-192"/>
              </pattern>
              <pattern pos="2688" name="kick.wav" muted="0" type="0" steps="64">
                <note vol="100" pos="0" key="57" pan="0" len="-192"/>
                <note vol="100" pos="12" key="57" pan="0" len="-192"/>
                <note vol="100" pos="24" key="57" pan="0" len="-192"/>
                <note vol="100" pos="36" key="57" pan="0" len="-192"/>
                <note vol="100" pos="48" key="57" pan="0" len="-192"/>
                <note vol="100" pos="60" key="57" pan="0" len="-192"/>
                <note vol="100" pos="72" key="57" pan="0" len="-192"/>
                <note vol="100" pos="84" key="57" pan="0" len="-192"/>
                <note vol="100" pos="96" key="57" pan="0" len="-192"/>
                <note vol="100" pos="108" key="57" pan="0" len="-192"/>
                <note vol="100" pos="120" key="57" pan="0" len="-192"/>
                <note vol="100" pos="132" key="57" pan="0" len="-192"/>
                <note vol="100" pos="144" key="57" pan="0" len="-192"/>
                <note vol="100" pos="156" key="57" pan="0" len="-192"/>
                <note vol="100" pos="168" key="57" pan="0" len="-192"/>
                <note vol="100" pos="180" key="57" pan="0" len="-192"/>
                <note vol="100" pos="192" key="57" pan="0" len="-192"/>
                <note vol="100" pos="204" key="57" pan="0" len="-192"/>
                <note vol="100" pos="216" key="57" pan="0" len="-192"/>
                <note vol="100" pos="228" key="57" pan="0" len="-192"/>
                <note vol="100" pos="240" key="57" pan="0" len="-192"/>
                <note vol="100" pos="252" key="57" pan="0" len="-192"/>
                <note vol="100" pos="264" key="57" pan="0" len="-192"/>
                <note vol="100" pos="276" key="57" pan="0" len="-192"/>
                <note vol="100" pos="288" key="57" pan="0" len="-192"/>
                <note vol="100" pos="300" key="57" pan="0" len="-192"/>
                <note vol="100" pos="312" key="57" pan="0" len="-192"/>
                <note vol="100" pos="324" key="57" pan="0" len="-192"/>
                <note vol="100" pos="336" key="57" pan="0" len="-192"/>
                <note vol="100" pos="348" key="57" pan="0" len="-192"/>
                <note vol="100" pos="360" key="57" pan="0" len="-192"/>
                <note vol="100" pos="372" key="57" pan="0" len="-192"/>
                <note vol="100" pos="384" key="57" pan="0" len="-192"/>
                <note vol="100" pos="396" key="57" pan="0" len="-192"/>
                <note vol="100" pos="408" key="57" pan="0" len="-192"/>
                <note vol="100" pos="420" key="57" pan="0" len="-192"/>
                <note vol="100" pos="432" key="57" pan="0" len="-192"/>
                <note vol="100" pos="444" key="57" pan="0" len="-192"/>
                <note vol="100" pos="456" key="57" pan="0" len="-192"/>
                <note vol="100" pos="468" key="57" pan="0" len="-192"/>
                <note vol="100" pos="480" key="57" pan="0" len="-192"/>
                <note vol="100" pos="492" key="57" pan="0" len="-192"/>
                <note vol="100" pos="504" key="57" pan="0" len="-192"/>
                <note vol="100" pos="516" key="57" pan="0" len="-192"/>
                <note vol="100" pos="528" key="57" pan="0" len="-192"/>
                <note vol="100" pos="540" key="57" pan="0" len="-192"/>
                <note vol="100" pos="552" key="57" pan="0" len="-192"/>
                <note vol="100" pos="564" key="57" pan="0" len="-192"/>
                <note vol="100" pos="576" key="57" pan="0" len="-192"/>
                <note vol="100" pos="588" key="57" pan="0" len="-192"/>
                <note vol="100" pos="600" key="57" pan="0" len="-192"/>
                <note vol="100" pos="612" key="57" pan="0" len="-192"/>
                <note vol="100" pos="624" key="57" pan="0" len="-192"/>
                <note vol="100" pos="636" key="57" pan="0" len="-192"/>
                <note vol="100" pos="648" key="57" pan="0" len="-192"/>
                <note vol="100" pos="660" key="57" pan="0" len="-192"/>
                <note vol="100" pos="672" key="57" pan="0" len="-192"/>
                <note vol="100" pos="684" key="57" pan="0" len="-192"/>
                <note vol="100" pos="696" key="57" pan="0" len="-192"/>
                <note vol="100" pos="708" key="57" pan="0" len="-192"/>
                <note vol="100" pos="720" key="57" pan="0" len="-192"/>
                <note vol="100" pos="732" key="57" pan="0" len="-192"/>
                <note vol="100" pos="744" key="57" pan="0" len="-192"/>
                <note vol="100" pos="756" key="57" pan="0" len="-192"/>
              </pattern>
              <pattern pos="2880" name="kick.wav" muted="0" type="0" steps="64">
                <note vol="100" pos="0" key="57" pan="0" len="-192"/>
                <note vol="100" pos="12" key="57" pan="0" len="-192"/>
                <note vol="100" pos="24" key="57" pan="0" len="-192"/>
                <note vol="100" pos="36" key="57" pan="0" len="-192"/>
                <note vol="100" pos="48" key="57" pan="0" len="-192"/>
                <note vol="100" pos="60" key="57" pan="0" len="-192"/>
                <note vol="100" pos="72" key="57" pan="0" len="-192"/>
                <note vol="100" pos="84" key="57" pan="0" len="-192"/>
                <note vol="100" pos="96" key="57" pan="0" len="-192"/>
                <note vol="100" pos="108" key="57" pan="0" len="-192"/>
                <note vol="100" pos="120" key="57" pan="0" len="-192"/>
                <note vol="100" pos="132" key="57" pan="0" len="-192"/>
                <note vol="100" pos="144" key="57" pan="0" len="-192"/>
                <note vol="100" pos="156" key="57" pan="0" len="-192"/>
                <note vol="100" pos="168" key="57" pan="0" len="-192"/>
                <note vol="100" pos="180" key="57" pan="0" len="-192"/>
                <note vol="100" pos="192" key="57" pan="0" len="-192"/>
                <note vol="100" pos="204" key="57" pan="0" len="-192"/>
                <note vol="100" pos="216" key="57" pan="0" len="-192"/>
                <note vol="100" pos="228" key="57" pan="0" len="-192"/>
                <note vol="100" pos="240" key="57" pan="0" len="-192"/>
                <note vol="100" pos="252" key="57" pan="0" len="-192"/>
                <note vol="100" pos="264" key="57" pan="0" len="-192"/>
                <note vol="100" pos="276" key="57" pan="0" len="-192"/>
                <note vol="100" pos="288" key="57" pan="0" len="-192"/>
                <note vol="100" pos="300" key="57" pan="0" len="-192"/>
                <note vol="100" pos="312" key="57" pan="0" len="-192"/>
                <note vol="100" pos="324" key="57" pan="0" len="-192"/>
                <note vol="100" pos="336" key="57" pan="0" len="-192"/>
                <note vol="100" pos="348" key="57" pan="0" len="-192"/>
                <note vol="100" pos="360" key="57" pan="0" len="-192"/>
                <note vol="100" pos="372" key="57" pan="0" len="-192"/>
                <note vol="100" pos="384" key="57" pan="0" len="-192"/>
                <note vol="100" pos="396" key="57" pan="0" len="-192"/>
                <note vol="100" pos="408" key="57" pan="0" len="-192"/>
                <note vol="100" pos="420" key="57" pan="0" len="-192"/>
                <note vol="100" pos="432" key="57" pan="0" len="-192"/>
                <note vol="100" pos="444" key="57" pan="0" len="-192"/>
                <note vol="100" pos="456" key="57" pan="0" len="-192"/>
                <note vol="100" pos="468" key="57" pan="0" len="-192"/>
                <note vol="100" pos="480" key="57" pan="0" len="-192"/>
                <note vol="100" pos="492" key="57" pan="0" len="-192"/>
                <note vol="100" pos="504" key="57" pan="0" len="-192"/>
                <note vol="100" pos="516" key="57" pan="0" len="-192"/>
                <note vol="100" pos="528" key="57" pan="0" len="-192"/>
                <note vol="100" pos="540" key="57" pan="0" len="-192"/>
                <note vol="100" pos="552" key="57" pan="0" len="-192"/>
                <note vol="100" pos="564" key="57" pan="0" len="-192"/>
                <note vol="100" pos="576" key="57" pan="0" len="-192"/>
                <note vol="100" pos="588" key="57" pan="0" len="-192"/>
                <note vol="100" pos="600" key="57" pan="0" len="-192"/>
                <note vol="100" pos="612" key="57" pan="0" len="-192"/>
                <note vol="100" pos="624" key="57" pan="0" len="-192"/>
                <note vol="100" pos="636" key="57" pan="0" len="-192"/>
                <note vol="100" pos="648" key="57" pan="0" len="-192"/>
                <note vol="100" pos="660" key="57" pan="0" len="-192"/>
                <note vol="100" pos="672" key="57" pan="0" len="-192"/>
                <note vol="100" pos="684" key="57" pan="0" len="-192"/>
                <note vol="100" pos="696" key="57" pan="0" len="-192"/>
                <note vol="100" pos="708" key="57" pan="0" len="-192"/>
                <note vol="100" pos="720" key="57" pan="0" len="-192"/>
                <note vol="100" pos="732" key="57" pan="0" len="-192"/>
                <note vol="100" pos="744" key="57" pan="0" len="-192"/>
                <note vol="100" pos="756" key="57" pan="0" len="-192"/>
              </pattern>
              <pattern pos="3072" name="kick.wav" muted="0" type="0" steps="16">
                <note vol="100" pos="0" key="57" pan="0" len="-192"/>
                <note vol="100" pos="72" key="57" pan="0" len="-192"/>
                <note vol="100" pos="144" key="57" pan="0" len="-192"/>
              </pattern>
              <pattern pos="3264" name="kick.wav" muted="0" type="0" steps="16">
                <note vol="100" pos="0" key="57" pan="0" len="-192"/>
                <note vol="100" pos="48" key="57" pan="0" len="-192"/>
                <note vol="100" pos="96" key="57" pan="0" len="-192"/>
                <note vol="100" pos="144" key="57" pan="0" len="-192"/>
                <note vol="100" pos="168" key="57" pan="0" len="-192"/>
              </pattern>
              <pattern pos="3456" name="kick.wav" muted="0" type="0" steps="16">
                <note vol="100" pos="0" key="57" pan="0" len="-192"/>
                <note vol="100" pos="48" key="57" pan="0" len="-192"/>
                <note vol="100" pos="96" key="57" pan="0" len="-192"/>
                <note vol="100" pos="144" key="57" pan="0" len="-192"/>
              </pattern>
              <pattern pos="3648" name="kick.wav" muted="0" type="0" steps="64">
                <note vol="100" pos="0" key="57" pan="0" len="-192"/>
                <note vol="100" pos="72" key="57" pan="0" len="-192"/>
                <note vol="100" pos="84" key="57" pan="0" len="-192"/>
                <note vol="100" pos="96" key="57" pan="0" len="-192"/>
                <note vol="100" pos="120" key="57" pan="0" len="-192"/>
                <note vol="100" pos="144" key="57" pan="0" len="-192"/>
                <note vol="100" pos="216" key="57" pan="0" len="-192"/>
                <note vol="100" pos="240" key="57" pan="0" len="-192"/>
                <note vol="100" pos="264" key="57" pan="0" len="-192"/>
                <note vol="100" pos="288" key="57" pan="0" len="-192"/>
                <note vol="100" pos="312" key="57" pan="0" len="-192"/>
                <note vol="100" pos="336" key="57" pan="0" len="-192"/>
                <note vol="100" pos="360" key="57" pan="0" len="-192"/>
                <note vol="100" pos="384" key="57" pan="0" len="-192"/>
                <note vol="100" pos="408" key="57" pan="0" len="-192"/>
                <note vol="100" pos="432" key="57" pan="0" len="-192"/>
                <note vol="100" pos="456" key="57" pan="0" len="-192"/>
                <note vol="100" pos="480" key="57" pan="0" len="-192"/>
                <note vol="100" pos="504" key="57" pan="0" len="-192"/>
                <note vol="100" pos="528" key="57" pan="0" len="-192"/>
                <note vol="100" pos="600" key="57" pan="0" len="-192"/>
                <note vol="100" pos="624" key="57" pan="0" len="-192"/>
                <note vol="100" pos="648" key="57" pan="0" len="-192"/>
                <note vol="100" pos="672" key="57" pan="0" len="-192"/>
                <note vol="100" pos="696" key="57" pan="0" len="-192"/>
                <note vol="100" pos="720" key="57" pan="0" len="-192"/>
                <note vol="100" pos="732" key="57" pan="0" len="-192"/>
                <note vol="100" pos="744" key="57" pan="0" len="-192"/>
              </pattern>
              <pattern pos="3840" name="kick.wav" muted="0" type="0" steps="80">
                <note vol="100" pos="0" key="57" pan="0" len="-192"/>
                <note vol="100" pos="24" key="57" pan="0" len="-192"/>
                <note vol="100" pos="48" key="57" pan="0" len="-192"/>
                <note vol="100" pos="72" key="57" pan="0" len="-192"/>
                <note vol="100" pos="96" key="57" pan="0" len="-192"/>
                <note vol="100" pos="120" key="57" pan="0" len="-192"/>
                <note vol="100" pos="144" key="57" pan="0" len="-192"/>
                <note vol="100" pos="168" key="57" pan="0" len="-192"/>
                <note vol="100" pos="192" key="57" pan="0" len="-192"/>
                <note vol="100" pos="216" key="57" pan="0" len="-192"/>
                <note vol="100" pos="240" key="57" pan="0" len="-192"/>
                <note vol="100" pos="264" key="57" pan="0" len="-192"/>
                <note vol="100" pos="288" key="57" pan="0" len="-192"/>
                <note vol="100" pos="312" key="57" pan="0" len="-192"/>
                <note vol="100" pos="336" key="57" pan="0" len="-192"/>
                <note vol="100" pos="360" key="57" pan="0" len="-192"/>
                <note vol="100" pos="384" key="57" pan="0" len="-192"/>
                <note vol="100" pos="408" key="57" pan="0" len="-192"/>
                <note vol="100" pos="432" key="57" pan="0" len="-192"/>
                <note vol="100" pos="456" key="57" pan="0" len="-192"/>
                <note vol="100" pos="504" key="57" pan="0" len="-192"/>
                <note vol="100" pos="552" key="57" pan="0" len="-192"/>
                <note vol="100" pos="600" key="57" pan="0" len="-192"/>
                <note vol="100" pos="624" key="57" pan="0" len="-192"/>
                <note vol="100" pos="648" key="57" pan="0" len="-192"/>
                <note vol="100" pos="672" key="57" pan="0" len="-192"/>
                <note vol="100" pos="744" key="57" pan="0" len="-192"/>
                <note vol="100" pos="828" key="57" pan="0" len="-192"/>
              </pattern>
              <pattern pos="4032" name="kick.wav" muted="0" type="0" steps="32">
                <note vol="100" pos="0" key="57" pan="0" len="-192"/>
                <note vol="100" pos="12" key="57" pan="0" len="-192"/>
                <note vol="100" pos="24" key="57" pan="0" len="-192"/>
                <note vol="100" pos="36" key="57" pan="0" len="-192"/>
                <note vol="100" pos="48" key="57" pan="0" len="-192"/>
                <note vol="100" pos="60" key="57" pan="0" len="-192"/>
                <note vol="100" pos="72" key="57" pan="0" len="-192"/>
                <note vol="100" pos="84" key="57" pan="0" len="-192"/>
                <note vol="100" pos="96" key="57" pan="0" len="-192"/>
                <note vol="100" pos="108" key="57" pan="0" len="-192"/>
                <note vol="100" pos="120" key="57" pan="0" len="-192"/>
                <note vol="100" pos="132" key="57" pan="0" len="-192"/>
                <note vol="100" pos="144" key="57" pan="0" len="-192"/>
                <note vol="100" pos="156" key="57" pan="0" len="-192"/>
                <note vol="100" pos="168" key="57" pan="0" len="-192"/>
                <note vol="100" pos="180" key="57" pan="0" len="-192"/>
                <note vol="100" pos="192" key="57" pan="0" len="-192"/>
                <note vol="100" pos="204" key="57" pan="0" len="-192"/>
                <note vol="100" pos="216" key="57" pan="0" len="-192"/>
                <note vol="100" pos="228" key="57" pan="0" len="-192"/>
                <note vol="100" pos="240" key="57" pan="0" len="-192"/>
                <note vol="100" pos="252" key="57" pan="0" len="-192"/>
                <note vol="100" pos="264" key="57" pan="0" len="-192"/>
                <note vol="100" pos="276" key="57" pan="0" len="-192"/>
                <note vol="100" pos="288" key="57" pan="0" len="-192"/>
              </pattern>
            </track>
            <track solo="0" name="hihat_opened02.ogg" muted="0" type="0">
              <instrumenttrack vol="56.8" pitchrange="1" fxch="2" pitch="0" pan="-12" usemasterpitch="1" basenote="57">
                <instrument name="audiofileprocessor">
                  <audiofileprocessor reversed="0" src="drums/hihat_opened02.ogg" eframe="1" amp="100" lframe="0" sframe="0" stutter="0" interp="1" looped="0"/>
                </instrument>
                <eldata fcut="14000" ftype="0" fres="0.5" fwet="0">
                  <elvol lpdel="0" dec="2" lamt="0" rel="0" userwavefile="" lspd="0.1" x100="0" latt="0" hold="2" lshp="0" sustain="0" lspd_numerator="4" att="0" lspd_syncmode="0" amt="1" ctlenvamt="0" lspd_denominator="4" pdel="0"/>
                  <elcut lpdel="0" dec="0.5" lamt="0" rel="0.1" userwavefile="" lspd="0.1" x100="0" latt="0" hold="0.5" lshp="0" sustain="0.5" lspd_numerator="4" att="0" lspd_syncmode="0" amt="0" ctlenvamt="0" lspd_denominator="4" pdel="0"/>
                  <elres lpdel="0" dec="0.5" lamt="0" rel="0.1" userwavefile="" lspd="0.1" x100="0" latt="0" hold="0.5" lshp="0" sustain="0.5" lspd_numerator="4" att="0" lspd_syncmode="0" amt="0" ctlenvamt="0" lspd_denominator="4" pdel="0"/>
                </eldata>
                <chordcreator chordrange="1" chord-enabled="0" chord="0"/>
                <arpeggiator arp-enabled="0" arptime_denominator="4" arpgate="100" arpskip="0" arptime="200" arpmode="0" arpmiss="0" arptime_numerator="4" arptime_syncmode="0" arprange="1" arp="0" arpdir="0" arpcycle="0"/>
                <midiport outputcontroller="0" readable="0" basevelocity="63" writable="0" outputprogram="1" fixedoutputvelocity="-1" fixedoutputnote="-1" outputchannel="1" inputchannel="0" inputcontroller="0" fixedinputvelocity="-1"/>
                <fxchain numofeffects="0" enabled="0"/>
              </instrumenttrack>
              <pattern pos="0" name="hihat_opened02.ogg" muted="0" type="0" steps="64"/>
              <pattern pos="192" name="hihat_opened02.ogg" muted="0" type="0" steps="32">
                <note vol="100" pos="96" key="57" pan="0" len="-192"/>
                <note vol="100" pos="144" key="57" pan="0" len="-192"/>
                <note vol="100" pos="288" key="57" pan="0" len="-192"/>
                <note vol="100" pos="336" key="57" pan="0" len="-192"/>
              </pattern>
              <pattern pos="384" name="hihat_opened02.ogg" muted="0" type="0" steps="32"/>
              <pattern pos="576" name="hihat_opened02.ogg" muted="0" type="0" steps="64">
                <note vol="100" pos="0" key="57" pan="0" len="-192"/>
                <note vol="100" pos="48" key="57" pan="0" len="-192"/>
                <note vol="100" pos="96" key="57" pan="0" len="-192"/>
                <note vol="100" pos="144" key="57" pan="0" len="-192"/>
                <note vol="100" pos="192" key="57" pan="0" len="-192"/>
                <note vol="100" pos="240" key="57" pan="0" len="-192"/>
                <note vol="100" pos="288" key="57" pan="0" len="-192"/>
                <note vol="100" pos="336" key="57" pan="0" len="-192"/>
                <note vol="100" pos="384" key="57" pan="0" len="-192"/>
                <note vol="100" pos="432" key="57" pan="0" len="-192"/>
                <note vol="100" pos="480" key="57" pan="0" len="-192"/>
                <note vol="100" pos="528" key="57" pan="0" len="-192"/>
                <note vol="100" pos="576" key="57" pan="0" len="-192"/>
                <note vol="100" pos="624" key="57" pan="0" len="-192"/>
                <note vol="100" pos="672" key="57" pan="0" len="-192"/>
                <note vol="100" pos="720" key="57" pan="0" len="-192"/>
              </pattern>
              <pattern pos="768" name="hihat_opened02.ogg" muted="0" type="0" steps="16"/>
              <pattern pos="960" name="hihat_opened02.ogg" muted="0" type="0" steps="64">
                <note vol="100" pos="0" key="57" pan="0" len="-192"/>
                <note vol="100" pos="48" key="57" pan="0" len="-192"/>
                <note vol="100" pos="96" key="57" pan="0" len="-192"/>
                <note vol="100" pos="144" key="57" pan="0" len="-192"/>
                <note vol="100" pos="192" key="57" pan="0" len="-192"/>
                <note vol="100" pos="240" key="57" pan="0" len="-192"/>
                <note vol="100" pos="288" key="57" pan="0" len="-192"/>
                <note vol="100" pos="336" key="57" pan="0" len="-192"/>
                <note vol="100" pos="384" key="57" pan="0" len="-192"/>
                <note vol="100" pos="432" key="57" pan="0" len="-192"/>
                <note vol="100" pos="480" key="57" pan="0" len="-192"/>
                <note vol="100" pos="528" key="57" pan="0" len="-192"/>
                <note vol="100" pos="576" key="57" pan="0" len="-192"/>
                <note vol="100" pos="624" key="57" pan="0" len="-192"/>
                <note vol="100" pos="672" key="57" pan="0" len="-192"/>
                <note vol="100" pos="720" key="57" pan="0" len="-192"/>
              </pattern>
              <pattern pos="1152" name="hihat_opened02.ogg" muted="0" type="0" steps="64">
                <note vol="100" pos="0" key="57" pan="0" len="-192"/>
                <note vol="100" pos="48" key="57" pan="0" len="-192"/>
                <note vol="100" pos="96" key="57" pan="0" len="-192"/>
                <note vol="100" pos="144" key="57" pan="0" len="-192"/>
                <note vol="100" pos="192" key="57" pan="0" len="-192"/>
                <note vol="100" pos="240" key="57" pan="0" len="-192"/>
                <note vol="100" pos="288" key="57" pan="0" len="-192"/>
                <note vol="100" pos="336" key="57" pan="0" len="-192"/>
                <note vol="100" pos="384" key="57" pan="0" len="-192"/>
                <note vol="100" pos="432" key="57" pan="0" len="-192"/>
                <note vol="100" pos="480" key="57" pan="0" len="-192"/>
                <note vol="100" pos="528" key="57" pan="0" len="-192"/>
                <note vol="100" pos="576" key="57" pan="0" len="-192"/>
                <note vol="100" pos="624" key="57" pan="0" len="-192"/>
              </pattern>
              <pattern pos="1344" name="hihat_opened02.ogg" muted="0" type="0" steps="64">
                <note vol="100" pos="0" key="57" pan="0" len="-192"/>
                <note vol="100" pos="48" key="57" pan="0" len="-192"/>
                <note vol="100" pos="96" key="57" pan="0" len="-192"/>
                <note vol="100" pos="144" key="57" pan="0" len="-192"/>
                <note vol="100" pos="192" key="57" pan="0" len="-192"/>
                <note vol="100" pos="240" key="57" pan="0" len="-192"/>
                <note vol="100" pos="288" key="57" pan="0" len="-192"/>
                <note vol="100" pos="336" key="57" pan="0" len="-192"/>
                <note vol="100" pos="384" key="57" pan="0" len="-192"/>
                <note vol="100" pos="432" key="57" pan="0" len="-192"/>
                <note vol="100" pos="480" key="57" pan="0" len="-192"/>
                <note vol="100" pos="528" key="57" pan="0" len="-192"/>
                <note vol="100" pos="576" key="57" pan="0" len="-192"/>
                <note vol="100" pos="624" key="57" pan="0" len="-192"/>
                <note vol="100" pos="672" key="57" pan="0" len="-192"/>
                <note vol="100" pos="720" key="57" pan="0" len="-192"/>
              </pattern>
              <pattern pos="1536" name="hihat_opened02.ogg" muted="0" type="0" steps="32"/>
              <pattern pos="1728" name="hihat_opened02.ogg" muted="0" type="0" steps="48">
                <note vol="100" pos="48" key="57" pan="0" len="-192"/>
                <note vol="100" pos="96" key="57" pan="0" len="-192"/>
                <note vol="100" pos="144" key="57" pan="0" len="-192"/>
              </pattern>
              <pattern pos="1920" name="hihat_opened02.ogg" muted="0" type="0" steps="32"/>
              <pattern pos="2112" name="hihat_opened02.ogg" muted="0" type="0" steps="64">
                <note vol="100" pos="0" key="57" pan="0" len="-192"/>
                <note vol="100" pos="96" key="57" pan="0" len="-192"/>
                <note vol="100" pos="192" key="57" pan="0" len="-192"/>
                <note vol="100" pos="288" key="57" pan="0" len="-192"/>
                <note vol="100" pos="384" key="57" pan="0" len="-192"/>
                <note vol="100" pos="480" key="57" pan="0" len="-192"/>
                <note vol="100" pos="576" key="57" pan="0" len="-192"/>
                <note vol="100" pos="672" key="57" pan="0" len="-192"/>
              </pattern>
              <pattern pos="2304" name="hihat_opened02.ogg" muted="0" type="0" steps="64">
                <note vol="100" pos="0" key="57" pan="0" len="-192"/>
                <note vol="100" pos="48" key="57" pan="0" len="-192"/>
                <note vol="100" pos="96" key="57" pan="0" len="-192"/>
                <note vol="100" pos="144" key="57" pan="0" len="-192"/>
                <note vol="100" pos="192" key="57" pan="0" len="-192"/>
                <note vol="100" pos="240" key="57" pan="0" len="-192"/>
                <note vol="100" pos="288" key="57" pan="0" len="-192"/>
                <note vol="100" pos="336" key="57" pan="0" len="-192"/>
                <note vol="100" pos="384" key="57" pan="0" len="-192"/>
                <note vol="100" pos="432" key="57" pan="0" len="-192"/>
                <note vol="100" pos="480" key="57" pan="0" len="-192"/>
                <note vol="100" pos="528" key="57" pan="0" len="-192"/>
                <note vol="100" pos="576" key="57" pan="0" len="-192"/>
                <note vol="100" pos="624" key="57" pan="0" len="-192"/>
                <note vol="100" pos="672" key="57" pan="0" len="-192"/>
                <note vol="100" pos="720" key="57" pan="0" len="-192"/>
              </pattern>
              <pattern pos="2496" name="hihat_opened02.ogg" muted="0" type="0" steps="64">
                <note vol="100" pos="0" key="57" pan="0" len="-192"/>
                <note vol="100" pos="96" key="57" pan="0" len="-192"/>
                <note vol="100" pos="192" key="57" pan="0" len="-192"/>
                <note vol="100" pos="288" key="57" pan="0" len="-192"/>
                <note vol="100" pos="384" key="57" pan="0" len="-192"/>
                <note vol="100" pos="480" key="57" pan="0" len="-192"/>
                <note vol="100" pos="576" key="57" pan="0" len="-192"/>
                <note vol="100" pos="672" key="57" pan="0" len="-192"/>
              </pattern>
              <pattern pos="2688" name="hihat_opened02.ogg" muted="0" type="0" steps="64">
                <note vol="100" pos="0" key="57" pan="0" len="-192"/>
                <note vol="100" pos="96" key="57" pan="0" len="-192"/>
                <note vol="100" pos="192" key="57" pan="0" len="-192"/>
                <note vol="100" pos="288" key="57" pan="0" len="-192"/>
                <note vol="100" pos="384" key="57" pan="0" len="-192"/>
                <note vol="100" pos="480" key="57" pan="0" len="-192"/>
                <note vol="100" pos="576" key="57" pan="0" len="-192"/>
                <note vol="100" pos="672" key="57" pan="0" len="-192"/>
              </pattern>
              <pattern pos="2880" name="hihat_opened02.ogg" muted="0" type="0" steps="64">
                <note vol="100" pos="0" key="57" pan="0" len="-192"/>
                <note vol="100" pos="48" key="57" pan="0" len="-192"/>
                <note vol="100" pos="96" key="57" pan="0" len="-192"/>
                <note vol="100" pos="144" key="57" pan="0" len="-192"/>
                <note vol="100" pos="192" key="57" pan="0" len="-192"/>
                <note vol="100" pos="240" key="57" pan="0" len="-192"/>
                <note vol="100" pos="288" key="57" pan="0" len="-192"/>
                <note vol="100" pos="336" key="57" pan="0" len="-192"/>
                <note vol="100" pos="384" key="57" pan="0" len="-192"/>
                <note vol="100" pos="432" key="57" pan="0" len="-192"/>
                <note vol="100" pos="480" key="57" pan="0" len="-192"/>
                <note vol="100" pos="528" key="57" pan="0" len="-192"/>
                <note vol="100" pos="576" key="57" pan="0" len="-192"/>
                <note vol="100" pos="624" key="57" pan="0" len="-192"/>
                <note vol="100" pos="672" key="57" pan="0" len="-192"/>
                <note vol="100" pos="720" key="57" pan="0" len="-192"/>
              </pattern>
              <pattern pos="3072" name="hihat_opened02.ogg" muted="0" type="0" steps="16"/>
              <pattern pos="3264" name="hihat_opened02.ogg" muted="0" type="0" steps="16">
                <note vol="100" pos="24" key="57" pan="0" len="-192"/>
                <note vol="100" pos="72" key="57" pan="0" len="-192"/>
                <note vol="100" pos="120" key="57" pan="0" len="-192"/>
                <note vol="100" pos="168" key="57" pan="0" len="-192"/>
              </pattern>
              <pattern pos="3456" name="hihat_opened02.ogg" muted="0" type="0" steps="16">
                <note vol="100" pos="24" key="57" pan="0" len="-192"/>
                <note vol="100" pos="168" key="57" pan="0" len="-192"/>
              </pattern>
              <pattern pos="3648" name="hihat_opened02.ogg" muted="0" type="0" steps="64">
                <note vol="100" pos="624" key="57" pan="0" len="-192"/>
                <note vol="100" pos="672" key="57" pan="0" len="-192"/>
              </pattern>
              <pattern pos="3840" name="hihat_opened02.ogg" muted="0" type="0" steps="80">
                <note vol="100" pos="360" key="57" pan="0" len="-192"/>
                <note vol="100" pos="624" key="57" pan="0" len="-192"/>
              </pattern>
              <pattern pos="4032" name="hihat_opened02.ogg" muted="0" type="0" steps="32"/>
            </track>
            <track solo="0" name="snare.wav" muted="0" type="0">
              <instrumenttrack vol="200" pitchrange="1" fxch="3" pitch="0" pan="0" usemasterpitch="1" basenote="57">
                <instrument name="audiofileprocessor">
                  <audiofileprocessor reversed="0" src="/home/pass/samples/sillydrums/snare.wav" eframe="1" amp="100" lframe="0" sframe="0" stutter="0" interp="1" looped="0"/>
                </instrument>
                <eldata fcut="14000" ftype="0" fres="0.5" fwet="0">
                  <elvol lpdel="0" dec="2" lamt="0" rel="2" userwavefile="" lspd="0.1" x100="0" latt="0" hold="2" lshp="0" sustain="1" lspd_numerator="4" att="0" lspd_syncmode="0" amt="1" ctlenvamt="0" lspd_denominator="4" pdel="0"/>
                  <elcut lpdel="0" dec="0.5" lamt="0" rel="0.1" userwavefile="" lspd="0.1" x100="0" latt="0" hold="0.5" lshp="0" sustain="0.5" lspd_numerator="4" att="0" lspd_syncmode="0" amt="0" ctlenvamt="0" lspd_denominator="4" pdel="0"/>
                  <elres lpdel="0" dec="0.5" lamt="0" rel="0.1" userwavefile="" lspd="0.1" x100="0" latt="0" hold="0.5" lshp="0" sustain="0.5" lspd_numerator="4" att="0" lspd_syncmode="0" amt="0" ctlenvamt="0" lspd_denominator="4" pdel="0"/>
                </eldata>
                <chordcreator chordrange="1" chord-enabled="0" chord="0"/>
                <arpeggiator arp-enabled="0" arptime_denominator="4" arpgate="100" arpskip="0" arptime="200" arpmode="0" arpmiss="0" arptime_numerator="4" arptime_syncmode="0" arprange="1" arp="0" arpdir="0" arpcycle="0"/>
                <midiport outputcontroller="0" readable="0" basevelocity="63" writable="0" outputprogram="1" fixedoutputvelocity="-1" fixedoutputnote="-1" outputchannel="1" inputchannel="0" inputcontroller="0" fixedinputvelocity="-1"/>
                <fxchain numofeffects="0" enabled="0"/>
              </instrumenttrack>
              <pattern pos="0" name="snare.wav" muted="0" type="0" steps="64">
                <note vol="100" pos="720" key="57" pan="0" len="-192"/>
                <note vol="100" pos="732" key="57" pan="0" len="-192"/>
                <note vol="100" pos="744" key="57" pan="0" len="-192"/>
                <note vol="100" pos="756" key="57" pan="0" len="-192"/>
              </pattern>
              <pattern pos="192" name="snare.wav" muted="0" type="0" steps="32">
                <note vol="100" pos="96" key="57" pan="0" len="-192"/>
                <note vol="100" pos="144" key="57" pan="0" len="-192"/>
                <note vol="100" pos="288" key="57" pan="0" len="-192"/>
                <note vol="100" pos="336" key="57" pan="0" len="-192"/>
              </pattern>
              <pattern pos="384" name="snare.wav" muted="0" type="0" steps="32">
                <note vol="100" pos="240" key="57" pan="0" len="-192"/>
              </pattern>
              <pattern pos="576" name="snare.wav" muted="0" type="0" steps="64">
                <note vol="100" pos="24" key="57" pan="0" len="-192"/>
                <note vol="100" pos="72" key="57" pan="0" len="-192"/>
                <note vol="100" pos="120" key="57" pan="0" len="-192"/>
                <note vol="100" pos="168" key="57" pan="0" len="-192"/>
                <note vol="100" pos="216" key="57" pan="0" len="-192"/>
                <note vol="100" pos="264" key="57" pan="0" len="-192"/>
                <note vol="100" pos="312" key="57" pan="0" len="-192"/>
                <note vol="100" pos="360" key="57" pan="0" len="-192"/>
                <note vol="100" pos="408" key="57" pan="0" len="-192"/>
                <note vol="100" pos="456" key="57" pan="0" len="-192"/>
                <note vol="100" pos="504" key="57" pan="0" len="-192"/>
                <note vol="100" pos="552" key="57" pan="0" len="-192"/>
                <note vol="100" pos="600" key="57" pan="0" len="-192"/>
                <note vol="100" pos="648" key="57" pan="0" len="-192"/>
                <note vol="100" pos="696" key="57" pan="0" len="-192"/>
                <note vol="100" pos="744" key="57" pan="0" len="-192"/>
              </pattern>
              <pattern pos="768" name="snare.wav" muted="0" type="0" steps="16">
                <note vol="100" pos="0" key="57" pan="0" len="-192"/>
                <note vol="100" pos="12" key="57" pan="0" len="-192"/>
                <note vol="100" pos="24" key="57" pan="0" len="-192"/>
                <note vol="100" pos="36" key="57" pan="0" len="-192"/>
                <note vol="100" pos="48" key="57" pan="0" len="-192"/>
                <note vol="100" pos="60" key="57" pan="0" len="-192"/>
                <note vol="100" pos="72" key="57" pan="0" len="-192"/>
                <note vol="100" pos="84" key="57" pan="0" len="-192"/>
                <note vol="100" pos="96" key="57" pan="0" len="-192"/>
                <note vol="100" pos="144" key="57" pan="0" len="-192"/>
              </pattern>
              <pattern pos="960" name="snare.wav" muted="0" type="0" steps="64">
                <note vol="100" pos="24" key="57" pan="0" len="-192"/>
                <note vol="100" pos="72" key="57" pan="0" len="-192"/>
                <note vol="100" pos="120" key="57" pan="0" len="-192"/>
                <note vol="100" pos="168" key="57" pan="0" len="-192"/>
                <note vol="100" pos="216" key="57" pan="0" len="-192"/>
                <note vol="100" pos="264" key="57" pan="0" len="-192"/>
                <note vol="100" pos="312" key="57" pan="0" len="-192"/>
                <note vol="100" pos="360" key="57" pan="0" len="-192"/>
                <note vol="100" pos="408" key="57" pan="0" len="-192"/>
                <note vol="100" pos="456" key="57" pan="0" len="-192"/>
                <note vol="100" pos="504" key="57" pan="0" len="-192"/>
                <note vol="100" pos="552" key="57" pan="0" len="-192"/>
                <note vol="100" pos="600" key="57" pan="0" len="-192"/>
                <note vol="100" pos="648" key="57" pan="0" len="-192"/>
                <note vol="100" pos="696" key="57" pan="0" len="-192"/>
                <note vol="100" pos="744" key="57" pan="0" len="-192"/>
              </pattern>
              <pattern pos="1152" name="snare.wav" muted="0" type="0" steps="64">
                <note vol="100" pos="24" key="57" pan="0" len="-192"/>
                <note vol="100" pos="72" key="57" pan="0" len="-192"/>
                <note vol="100" pos="120" key="57" pan="0" len="-192"/>
                <note vol="100" pos="168" key="57" pan="0" len="-192"/>
                <note vol="100" pos="216" key="57" pan="0" len="-192"/>
                <note vol="100" pos="264" key="57" pan="0" len="-192"/>
                <note vol="100" pos="312" key="57" pan="0" len="-192"/>
                <note vol="100" pos="360" key="57" pan="0" len="-192"/>
                <note vol="100" pos="408" key="57" pan="0" len="-192"/>
                <note vol="100" pos="456" key="57" pan="0" len="-192"/>
                <note vol="100" pos="504" key="57" pan="0" len="-192"/>
                <note vol="100" pos="552" key="57" pan="0" len="-192"/>
                <note vol="100" pos="600" key="57" pan="0" len="-192"/>
                <note vol="100" pos="648" key="57" pan="0" len="-192"/>
                <note vol="100" pos="672" key="57" pan="0" len="-192"/>
                <note vol="100" pos="720" key="57" pan="0" len="-192"/>
              </pattern>
              <pattern pos="1344" name="snare.wav" muted="0" type="0" steps="64">
                <note vol="100" pos="24" key="57" pan="0" len="-192"/>
                <note vol="100" pos="72" key="57" pan="0" len="-192"/>
                <note vol="100" pos="120" key="57" pan="0" len="-192"/>
                <note vol="100" pos="168" key="57" pan="0" len="-192"/>
                <note vol="100" pos="216" key="57" pan="0" len="-192"/>
                <note vol="100" pos="264" key="57" pan="0" len="-192"/>
                <note vol="100" pos="312" key="57" pan="0" len="-192"/>
                <note vol="100" pos="360" key="57" pan="0" len="-192"/>
                <note vol="100" pos="408" key="57" pan="0" len="-192"/>
                <note vol="100" pos="456" key="57" pan="0" len="-192"/>
                <note vol="100" pos="504" key="57" pan="0" len="-192"/>
                <note vol="100" pos="552" key="57" pan="0" len="-192"/>
                <note vol="100" pos="600" key="57" pan="0" len="-192"/>
                <note vol="100" pos="648" key="57" pan="0" len="-192"/>
                <note vol="100" pos="696" key="57" pan="0" len="-192"/>
                <note vol="100" pos="744" key="57" pan="0" len="-192"/>
              </pattern>
              <pattern pos="1536" name="snare.wav" muted="0" type="0" steps="32"/>
              <pattern pos="1728" name="snare.wav" muted="0" type="0" steps="48">
                <note vol="100" pos="0" key="57" pan="0" len="-192"/>
                <note vol="100" pos="48" key="57" pan="0" len="-192"/>
                <note vol="100" pos="96" key="57" pan="0" len="-192"/>
                <note vol="100" pos="144" key="57" pan="0" len="-192"/>
                <note vol="100" pos="192" key="57" pan="0" len="-192"/>
                <note vol="100" pos="216" key="57" pan="0" len="-192"/>
                <note vol="100" pos="240" key="57" pan="0" len="-192"/>
                <note vol="100" pos="264" key="57" pan="0" len="-192"/>
                <note vol="100" pos="288" key="57" pan="0" len="-192"/>
                <note vol="100" pos="336" key="57" pan="0" len="-192"/>
                <note vol="100" pos="348" key="57" pan="0" len="-192"/>
              </pattern>
              <pattern pos="1920" name="snare.wav" muted="0" type="0" steps="32"/>
              <pattern pos="2112" name="snare.wav" muted="0" type="0" steps="64">
                <note vol="100" pos="48" key="57" pan="0" len="-192"/>
                <note vol="100" pos="144" key="57" pan="0" len="-192"/>
                <note vol="100" pos="240" key="57" pan="0" len="-192"/>
                <note vol="100" pos="336" key="57" pan="0" len="-192"/>
                <note vol="100" pos="432" key="57" pan="0" len="-192"/>
                <note vol="100" pos="528" key="57" pan="0" len="-192"/>
                <note vol="100" pos="624" key="57" pan="0" len="-192"/>
                <note vol="100" pos="720" key="57" pan="0" len="-192"/>
              </pattern>
              <pattern pos="2304" name="snare.wav" muted="0" type="0" steps="64">
                <note vol="100" pos="0" key="57" pan="0" len="-192"/>
                <note vol="100" pos="48" key="57" pan="0" len="-192"/>
                <note vol="100" pos="96" key="57" pan="0" len="-192"/>
                <note vol="100" pos="144" key="57" pan="0" len="-192"/>
                <note vol="100" pos="192" key="57" pan="0" len="-192"/>
                <note vol="100" pos="240" key="57" pan="0" len="-192"/>
                <note vol="100" pos="288" key="57" pan="0" len="-192"/>
                <note vol="100" pos="336" key="57" pan="0" len="-192"/>
                <note vol="100" pos="384" key="57" pan="0" len="-192"/>
                <note vol="100" pos="432" key="57" pan="0" len="-192"/>
                <note vol="100" pos="480" key="57" pan="0" len="-192"/>
                <note vol="100" pos="528" key="57" pan="0" len="-192"/>
                <note vol="100" pos="576" key="57" pan="0" len="-192"/>
                <note vol="100" pos="624" key="57" pan="0" len="-192"/>
                <note vol="100" pos="672" key="57" pan="0" len="-192"/>
                <note vol="100" pos="720" key="57" pan="0" len="-192"/>
              </pattern>
              <pattern pos="2496" name="snare.wav" muted="0" type="0" steps="64">
                <note vol="100" pos="48" key="57" pan="0" len="-192"/>
                <note vol="100" pos="144" key="57" pan="0" len="-192"/>
                <note vol="100" pos="240" key="57" pan="0" len="-192"/>
                <note vol="100" pos="336" key="57" pan="0" len="-192"/>
                <note vol="100" pos="432" key="57" pan="0" len="-192"/>
                <note vol="100" pos="528" key="57" pan="0" len="-192"/>
                <note vol="100" pos="624" key="57" pan="0" len="-192"/>
                <note vol="100" pos="720" key="57" pan="0" len="-192"/>
              </pattern>
              <pattern pos="2688" name="snare.wav" muted="0" type="0" steps="64">
                <note vol="100" pos="48" key="57" pan="0" len="-192"/>
                <note vol="100" pos="144" key="57" pan="0" len="-192"/>
                <note vol="100" pos="240" key="57" pan="0" len="-192"/>
                <note vol="100" pos="336" key="57" pan="0" len="-192"/>
                <note vol="100" pos="432" key="57" pan="0" len="-192"/>
                <note vol="100" pos="528" key="57" pan="0" len="-192"/>
                <note vol="100" pos="624" key="57" pan="0" len="-192"/>
                <note vol="100" pos="720" key="57" pan="0" len="-192"/>
              </pattern>
              <pattern pos="2880" name="snare.wav" muted="0" type="0" steps="64">
                <note vol="100" pos="0" key="57" pan="0" len="-192"/>
                <note vol="100" pos="48" key="57" pan="0" len="-192"/>
                <note vol="100" pos="96" key="57" pan="0" len="-192"/>
                <note vol="100" pos="144" key="57" pan="0" len="-192"/>
                <note vol="100" pos="192" key="57" pan="0" len="-192"/>
                <note vol="100" pos="240" key="57" pan="0" len="-192"/>
                <note vol="100" pos="288" key="57" pan="0" len="-192"/>
                <note vol="100" pos="336" key="57" pan="0" len="-192"/>
                <note vol="100" pos="384" key="57" pan="0" len="-192"/>
                <note vol="100" pos="432" key="57" pan="0" len="-192"/>
                <note vol="100" pos="480" key="57" pan="0" len="-192"/>
                <note vol="100" pos="528" key="57" pan="0" len="-192"/>
                <note vol="100" pos="576" key="57" pan="0" len="-192"/>
                <note vol="100" pos="624" key="57" pan="0" len="-192"/>
                <note vol="100" pos="672" key="57" pan="0" len="-192"/>
                <note vol="100" pos="720" key="57" pan="0" len="-192"/>
              </pattern>
              <pattern pos="3072" name="snare.wav" muted="0" type="0" steps="16"/>
              <pattern pos="3264" name="snare.wav" muted="0" type="0" steps="16">
                <note vol="100" pos="48" key="57" pan="0" len="-192"/>
                <note vol="100" pos="144" key="57" pan="0" len="-192"/>
              </pattern>
              <pattern pos="3456" name="snare.wav" muted="0" type="0" steps="16"/>
              <pattern pos="3648" name="snare.wav" muted="0" type="0" steps="64">
                <note vol="100" pos="96" key="57" pan="0" len="-192"/>
                <note vol="100" pos="240" key="57" pan="0" len="-192"/>
                <note vol="100" pos="288" key="57" pan="0" len="-192"/>
                <note vol="100" pos="384" key="57" pan="0" len="-192"/>
                <note vol="100" pos="456" key="57" pan="0" len="-192"/>
                <note vol="100" pos="624" key="57" pan="0" len="-192"/>
                <note vol="100" pos="672" key="57" pan="0" len="-192"/>
                <note vol="100" pos="720" key="57" pan="0" len="-192"/>
              </pattern>
              <pattern pos="3840" name="snare.wav" muted="0" type="0" steps="80">
                <note vol="100" pos="0" key="57" pan="0" len="-192"/>
                <note vol="100" pos="72" key="57" pan="0" len="-192"/>
                <note vol="100" pos="144" key="57" pan="0" len="-192"/>
                <note vol="100" pos="216" key="57" pan="0" len="-192"/>
                <note vol="100" pos="288" key="57" pan="0" len="-192"/>
                <note vol="100" pos="336" key="57" pan="0" len="-192"/>
                <note vol="100" pos="384" key="57" pan="0" len="-192"/>
                <note vol="100" pos="624" key="57" pan="0" len="-192"/>
              </pattern>
              <pattern pos="4032" name="snare.wav" muted="0" type="0" steps="32">
                <note vol="100" pos="0" key="57" pan="0" len="-192"/>
                <note vol="100" pos="36" key="57" pan="0" len="-192"/>
                <note vol="100" pos="72" key="57" pan="0" len="-192"/>
                <note vol="100" pos="108" key="57" pan="0" len="-192"/>
                <note vol="100" pos="144" key="57" pan="0" len="-192"/>
                <note vol="100" pos="168" key="57" pan="0" len="-192"/>
                <note vol="100" pos="192" key="57" pan="0" len="-192"/>
                <note vol="100" pos="204" key="57" pan="0" len="-192"/>
              </pattern>
            </track>
            <track solo="0" name="crash1.wav" muted="0" type="0">
              <instrumenttrack vol="71.2" pitchrange="1" fxch="4" pitch="0" pan="0" usemasterpitch="1" basenote="57">
                <instrument name="audiofileprocessor">
                  <audiofileprocessor reversed="0" src="/home/pass/samples/sillydrums/crash1.wav" eframe="1" amp="100" lframe="0" sframe="0" stutter="0" interp="1" looped="0"/>
                </instrument>
                <eldata fcut="14000" ftype="0" fres="0.5" fwet="0">
                  <elvol lpdel="0" dec="2" lamt="0" rel="2" userwavefile="" lspd="0.1" x100="0" latt="0" hold="2" lshp="0" sustain="1" lspd_numerator="4" att="0" lspd_syncmode="0" amt="1" ctlenvamt="0" lspd_denominator="4" pdel="0"/>
                  <elcut lpdel="0" dec="0.5" lamt="0" rel="0.1" userwavefile="" lspd="0.1" x100="0" latt="0" hold="0.5" lshp="0" sustain="0.5" lspd_numerator="4" att="0" lspd_syncmode="0" amt="0" ctlenvamt="0" lspd_denominator="4" pdel="0"/>
                  <elres lpdel="0" dec="0.5" lamt="0" rel="0.1" userwavefile="" lspd="0.1" x100="0" latt="0" hold="0.5" lshp="0" sustain="0.5" lspd_numerator="4" att="0" lspd_syncmode="0" amt="0" ctlenvamt="0" lspd_denominator="4" pdel="0"/>
                </eldata>
                <chordcreator chordrange="1" chord-enabled="0" chord="0"/>
                <arpeggiator arp-enabled="0" arptime_denominator="4" arpgate="100" arpskip="0" arptime="200" arpmode="0" arpmiss="0" arptime_numerator="4" arptime_syncmode="0" arprange="1" arp="0" arpdir="0" arpcycle="0"/>
                <midiport outputcontroller="0" readable="0" basevelocity="63" writable="0" outputprogram="1" fixedoutputvelocity="-1" fixedoutputnote="-1" outputchannel="1" inputchannel="0" inputcontroller="0" fixedinputvelocity="-1"/>
                <fxchain numofeffects="0" enabled="0"/>
              </instrumenttrack>
              <pattern pos="0" name="crash1.wav" muted="0" type="0" steps="64">
                <note vol="100" pos="0" key="57" pan="0" len="-192"/>
                <note vol="100" pos="384" key="57" pan="0" len="-192"/>
              </pattern>
              <pattern pos="192" name="crash1.wav" muted="0" type="0" steps="32">
                <note vol="100" pos="0" key="57" pan="0" len="-192"/>
              </pattern>
              <pattern pos="384" name="crash1.wav" muted="0" type="0" steps="32">
                <note vol="100" pos="192" key="57" pan="0" len="-192"/>
              </pattern>
              <pattern pos="576" name="crash1.wav" muted="0" type="0" steps="64">
                <note vol="100" pos="0" key="57" pan="0" len="-192"/>
              </pattern>
              <pattern pos="768" name="crash1.wav" muted="0" type="0" steps="16"/>
              <pattern pos="960" name="crash1.wav" muted="0" type="0" steps="64">
                <note vol="100" pos="0" key="57" pan="0" len="-192"/>
                <note vol="100" pos="384" key="57" pan="0" len="-192"/>
              </pattern>
              <pattern pos="1152" name="crash1.wav" muted="0" type="0" steps="64">
                <note vol="100" pos="0" key="57" pan="0" len="-192"/>
                <note vol="100" pos="384" key="57" pan="0" len="-192"/>
              </pattern>
              <pattern pos="1344" name="crash1.wav" muted="0" type="0" steps="64">
                <note vol="100" pos="0" key="57" pan="0" len="-192"/>
              </pattern>
              <pattern pos="1536" name="crash1.wav" muted="0" type="0" steps="32"/>
              <pattern pos="1728" name="crash1.wav" muted="0" type="0" steps="48">
                <note vol="100" pos="0" key="57" pan="0" len="-192"/>
                <note vol="100" pos="384" key="57" pan="0" len="-192"/>
              </pattern>
              <pattern pos="1920" name="crash1.wav" muted="0" type="0" steps="32">
                <note vol="100" pos="0" key="57" pan="0" len="-192"/>
              </pattern>
              <pattern pos="2112" name="crash1.wav" muted="0" type="0" steps="64">
                <note vol="100" pos="0" key="57" pan="0" len="-192"/>
              </pattern>
              <pattern pos="2304" name="crash1.wav" muted="0" type="0" steps="64">
                <note vol="100" pos="0" key="57" pan="0" len="-192"/>
              </pattern>
              <pattern pos="2496" name="crash1.wav" muted="0" type="0" steps="64">
                <note vol="100" pos="0" key="57" pan="0" len="-192"/>
                <note vol="100" pos="384" key="57" pan="0" len="-192"/>
              </pattern>
              <pattern pos="2688" name="crash1.wav" muted="0" type="0" steps="64">
                <note vol="100" pos="0" key="57" pan="0" len="-192"/>
              </pattern>
              <pattern pos="2880" name="crash1.wav" muted="0" type="0" steps="64">
                <note vol="100" pos="0" key="57" pan="0" len="-192"/>
                <note vol="100" pos="384" key="57" pan="0" len="-192"/>
              </pattern>
              <pattern pos="3072" name="crash1.wav" muted="0" type="0" steps="16">
                <note vol="100" pos="0" key="57" pan="0" len="-192"/>
                <note vol="100" pos="144" key="57" pan="0" len="-192"/>
              </pattern>
              <pattern pos="3264" name="crash1.wav" muted="0" type="0" steps="16"/>
              <pattern pos="3456" name="crash1.wav" muted="0" type="0" steps="16"/>
              <pattern pos="3648" name="crash1.wav" muted="0" type="0" steps="64">
                <note vol="100" pos="0" key="57" pan="0" len="-192"/>
                <note vol="100" pos="384" key="57" pan="0" len="-192"/>
              </pattern>
              <pattern pos="3840" name="crash1.wav" muted="0" type="0" steps="80">
                <note vol="100" pos="0" key="57" pan="0" len="-192"/>
                <note vol="100" pos="144" key="57" pan="0" len="-192"/>
                <note vol="100" pos="288" key="57" pan="0" len="-192"/>
                <note vol="100" pos="384" key="57" pan="0" len="-192"/>
                <note vol="100" pos="456" key="57" pan="0" len="-192"/>
                <note vol="100" pos="504" key="57" pan="0" len="-192"/>
                <note vol="100" pos="672" key="57" pan="0" len="-192"/>
                <note vol="100" pos="744" key="57" pan="0" len="-192"/>
                <note vol="100" pos="828" key="57" pan="0" len="-192"/>
              </pattern>
              <pattern pos="4032" name="crash1.wav" muted="0" type="0" steps="32">
                <note vol="100" pos="0" key="57" pan="0" len="-192"/>
              </pattern>
            </track>
            <track solo="0" name="crash1m" muted="0" type="0">
              <instrumenttrack vol="71.2" pitchrange="1" fxch="4" pitch="0" pan="0" usemasterpitch="1" basenote="57">
                <instrument name="audiofileprocessor">
                  <audiofileprocessor reversed="0" src="/home/pass/samples/sillydrums/crash1.wav" eframe="1" amp="100" lframe="0" sframe="0" stutter="0" interp="1" looped="0"/>
                </instrument>
                <eldata fcut="14000" ftype="0" fres="0.5" fwet="0">
                  <elvol lpdel="0" dec="0.216" lamt="0" rel="0.208" userwavefile="" lspd="0.1" x100="0" latt="0" hold="0.232" lshp="0" sustain="0" lspd_numerator="4" att="0" lspd_syncmode="0" amt="1" ctlenvamt="0" lspd_denominator="4" pdel="0"/>
                  <elcut lpdel="0" dec="0.5" lamt="0" rel="0.1" userwavefile="" lspd="0.1" x100="0" latt="0" hold="0.5" lshp="0" sustain="0.5" lspd_numerator="4" att="0" lspd_syncmode="0" amt="0" ctlenvamt="0" lspd_denominator="4" pdel="0"/>
                  <elres lpdel="0" dec="0.5" lamt="0" rel="0.1" userwavefile="" lspd="0.1" x100="0" latt="0" hold="0.5" lshp="0" sustain="0.5" lspd_numerator="4" att="0" lspd_syncmode="0" amt="0" ctlenvamt="0" lspd_denominator="4" pdel="0"/>
                </eldata>
                <chordcreator chordrange="1" chord-enabled="0" chord="0"/>
                <arpeggiator arp-enabled="0" arptime_denominator="4" arpgate="100" arpskip="0" arptime="200" arpmode="0" arpmiss="0" arptime_numerator="4" arptime_syncmode="0" arprange="1" arp="0" arpdir="0" arpcycle="0"/>
                <midiport outputcontroller="0" readable="0" basevelocity="63" writable="0" outputprogram="1" fixedoutputvelocity="-1" fixedoutputnote="-1" outputchannel="1" inputchannel="0" inputcontroller="0" fixedinputvelocity="-1"/>
                <fxchain numofeffects="0" enabled="0"/>
              </instrumenttrack>
              <pattern pos="0" name="crash1m" muted="0" type="0" steps="64"/>
              <pattern pos="192" name="crash1m" muted="0" type="0" steps="32"/>
              <pattern pos="384" name="crash1m" muted="0" type="0" steps="32">
                <note vol="100" pos="0" key="57" pan="0" len="-192"/>
                <note vol="100" pos="48" key="57" pan="0" len="-192"/>
                <note vol="100" pos="96" key="57" pan="0" len="-192"/>
                <note vol="100" pos="144" key="57" pan="0" len="-192"/>
                <note vol="100" pos="168" key="57" pan="0" len="-192"/>
                <note vol="100" pos="288" key="57" pan="0" len="-192"/>
              </pattern>
              <pattern pos="576" name="crash1m" muted="0" type="0" steps="64"/>
              <pattern pos="768" name="crash1m" muted="0" type="0" steps="16"/>
              <pattern pos="960" name="crash1m" muted="0" type="0" steps="64"/>
              <pattern pos="1152" name="crash1m" muted="0" type="0" steps="64"/>
              <pattern pos="1344" name="crash1m" muted="0" type="0" steps="64"/>
              <pattern pos="1536" name="crash1m" muted="0" type="0" steps="32">
                <note vol="100" pos="0" key="57" pan="0" len="-192"/>
              </pattern>
              <pattern pos="1728" name="crash1m" muted="0" type="0" steps="48"/>
              <pattern pos="1920" name="crash1m" muted="0" type="0" steps="32"/>
              <pattern pos="2112" name="crash1m" muted="0" type="0" steps="64"/>
              <pattern pos="2304" name="crash1m" muted="0" type="0" steps="64"/>
              <pattern pos="2496" name="crash1m" muted="0" type="0" steps="64"/>
              <pattern pos="2688" name="crash1m" muted="0" type="0" steps="64"/>
              <pattern pos="2880" name="crash1m" muted="0" type="0" steps="64"/>
              <pattern pos="3072" name="crash1m" muted="0" type="0" steps="16"/>
              <pattern pos="3264" name="crash1m" muted="0" type="0" steps="16"/>
              <pattern pos="3456" name="crash1m" muted="0" type="0" steps="16"/>
              <pattern pos="3648" name="crash1m" muted="0" type="0" steps="64">
                <note vol="100" pos="528" key="57" pan="0" len="-192"/>
              </pattern>
              <pattern pos="3840" name="crash1m" muted="0" type="0" steps="80"/>
              <pattern pos="4032" name="crash1m" muted="0" type="0" steps="32">
                <note vol="100" pos="288" key="57" pan="0" len="-192"/>
              </pattern>
            </track>
            <track solo="0" name="crash2.wav" muted="0" type="0">
              <instrumenttrack vol="76.8" pitchrange="1" fxch="5" pitch="0" pan="28" usemasterpitch="1" basenote="57">
                <instrument name="audiofileprocessor">
                  <audiofileprocessor reversed="0" src="/home/pass/samples/sillydrums/crash2.wav" eframe="1" amp="100" lframe="0" sframe="0" stutter="0" interp="1" looped="0"/>
                </instrument>
                <eldata fcut="14000" ftype="0" fres="0.5" fwet="0">
                  <elvol lpdel="0" dec="2" lamt="0" rel="2" userwavefile="" lspd="0.1" x100="0" latt="0" hold="2" lshp="0" sustain="1" lspd_numerator="4" att="0" lspd_syncmode="0" amt="1" ctlenvamt="0" lspd_denominator="4" pdel="0"/>
                  <elcut lpdel="0" dec="0.5" lamt="0" rel="0.1" userwavefile="" lspd="0.1" x100="0" latt="0" hold="0.5" lshp="0" sustain="0.5" lspd_numerator="4" att="0" lspd_syncmode="0" amt="0" ctlenvamt="0" lspd_denominator="4" pdel="0"/>
                  <elres lpdel="0" dec="0.5" lamt="0" rel="0.1" userwavefile="" lspd="0.1" x100="0" latt="0" hold="0.5" lshp="0" sustain="0.5" lspd_numerator="4" att="0" lspd_syncmode="0" amt="0" ctlenvamt="0" lspd_denominator="4" pdel="0"/>
                </eldata>
                <chordcreator chordrange="1" chord-enabled="0" chord="0"/>
                <arpeggiator arp-enabled="0" arptime_denominator="4" arpgate="100" arpskip="0" arptime="200" arpmode="0" arpmiss="0" arptime_numerator="4" arptime_syncmode="0" arprange="1" arp="0" arpdir="0" arpcycle="0"/>
                <midiport outputcontroller="0" readable="0" basevelocity="63" writable="0" outputprogram="1" fixedoutputvelocity="-1" fixedoutputnote="-1" outputchannel="1" inputchannel="0" inputcontroller="0" fixedinputvelocity="-1"/>
                <fxchain numofeffects="0" enabled="0"/>
              </instrumenttrack>
              <pattern pos="0" name="crash2.wav" muted="0" type="0" steps="64">
                <note vol="100" pos="192" key="57" pan="0" len="-192"/>
                <note vol="100" pos="576" key="57" pan="0" len="-192"/>
              </pattern>
              <pattern pos="192" name="crash2.wav" muted="0" type="0" steps="32">
                <note vol="100" pos="192" key="57" pan="0" len="-192"/>
              </pattern>
              <pattern pos="384" name="crash2.wav" muted="0" type="0" steps="32"/>
              <pattern pos="576" name="crash2.wav" muted="0" type="0" steps="64">
                <note vol="100" pos="384" key="57" pan="0" len="-192"/>
              </pattern>
              <pattern pos="768" name="crash2.wav" muted="0" type="0" steps="16"/>
              <pattern pos="960" name="crash2.wav" muted="0" type="0" steps="64">
                <note vol="100" pos="192" key="57" pan="0" len="-192"/>
              </pattern>
              <pattern pos="1152" name="crash2.wav" muted="0" type="0" steps="64">
                <note vol="100" pos="192" key="57" pan="0" len="-192"/>
              </pattern>
              <pattern pos="1344" name="crash2.wav" muted="0" type="0" steps="64">
                <note vol="100" pos="384" key="57" pan="0" len="-192"/>
              </pattern>
              <pattern pos="1536" name="crash2.wav" muted="0" type="0" steps="32"/>
              <pattern pos="1728" name="crash2.wav" muted="0" type="0" steps="48">
                <note vol="100" pos="288" key="57" pan="0" len="-192"/>
                <note vol="100" pos="384" key="57" pan="0" len="-192"/>
              </pattern>
              <pattern pos="1920" name="crash2.wav" muted="0" type="0" steps="32">
                <note vol="100" pos="144" key="57" pan="0" len="-192"/>
                <note vol="100" pos="336" key="57" pan="0" len="-192"/>
              </pattern>
              <pattern pos="2112" name="crash2.wav" muted="0" type="0" steps="64">
                <note vol="100" pos="384" key="57" pan="0" len="-192"/>
              </pattern>
              <pattern pos="2304" name="crash2.wav" muted="0" type="0" steps="64">
                <note vol="100" pos="384" key="57" pan="0" len="-192"/>
              </pattern>
              <pattern pos="2496" name="crash2.wav" muted="0" type="0" steps="64">
                <note vol="100" pos="528" key="57" pan="0" len="-192"/>
              </pattern>
              <pattern pos="2688" name="crash2.wav" muted="0" type="0" steps="64">
                <note vol="100" pos="384" key="57" pan="0" len="-192"/>
              </pattern>
              <pattern pos="2880" name="crash2.wav" muted="0" type="0" steps="64">
                <note vol="100" pos="528" key="57" pan="0" len="-192"/>
              </pattern>
              <pattern pos="3072" name="crash2.wav" muted="0" type="0" steps="16">
                <note vol="100" pos="72" key="57" pan="0" len="-192"/>
              </pattern>
              <pattern pos="3264" name="crash2.wav" muted="0" type="0" steps="16"/>
              <pattern pos="3456" name="crash2.wav" muted="0" type="0" steps="16"/>
              <pattern pos="3648" name="crash2.wav" muted="0" type="0" steps="64">
                <note vol="100" pos="144" key="57" pan="0" len="-192"/>
                <note vol="65" pos="456" key="57" pan="0" len="-192"/>
              </pattern>
              <pattern pos="3840" name="crash2.wav" muted="0" type="0" steps="80">
                <note vol="100" pos="72" key="57" pan="0" len="-192"/>
                <note vol="100" pos="216" key="57" pan="0" len="-192"/>
                <note vol="100" pos="336" key="57" pan="0" len="-192"/>
                <note vol="100" pos="552" key="57" pan="0" len="-192"/>
                <note vol="100" pos="672" key="57" pan="0" len="-192"/>
                <note vol="100" pos="744" key="57" pan="0" len="-192"/>
                <note vol="100" pos="828" key="57" pan="0" len="-192"/>
              </pattern>
              <pattern pos="4032" name="crash2.wav" muted="0" type="0" steps="32"/>
            </track>
            <track solo="0" name="china.wav" muted="0" type="0">
              <instrumenttrack vol="63.2" pitchrange="1" fxch="6" pitch="0" pan="0" usemasterpitch="1" basenote="57">
                <instrument name="audiofileprocessor">
                  <audiofileprocessor reversed="0" src="/home/pass/samples/sillydrums/china.wav" eframe="1" amp="100" lframe="0" sframe="0" stutter="0" interp="1" looped="0"/>
                </instrument>
                <eldata fcut="14000" ftype="0" fres="0.5" fwet="0">
                  <elvol lpdel="0" dec="2" lamt="0" rel="2" userwavefile="" lspd="0.1" x100="0" latt="0" hold="2" lshp="0" sustain="1" lspd_numerator="4" att="0" lspd_syncmode="0" amt="1" ctlenvamt="0" lspd_denominator="4" pdel="0"/>
                  <elcut lpdel="0" dec="0.5" lamt="0" rel="0.1" userwavefile="" lspd="0.1" x100="0" latt="0" hold="0.5" lshp="0" sustain="0.5" lspd_numerator="4" att="0" lspd_syncmode="0" amt="0" ctlenvamt="0" lspd_denominator="4" pdel="0"/>
                  <elres lpdel="0" dec="0.5" lamt="0" rel="0.1" userwavefile="" lspd="0.1" x100="0" latt="0" hold="0.5" lshp="0" sustain="0.5" lspd_numerator="4" att="0" lspd_syncmode="0" amt="0" ctlenvamt="0" lspd_denominator="4" pdel="0"/>
                </eldata>
                <chordcreator chordrange="1" chord-enabled="0" chord="0"/>
                <arpeggiator arp-enabled="0" arptime_denominator="4" arpgate="100" arpskip="0" arptime="200" arpmode="0" arpmiss="0" arptime_numerator="4" arptime_syncmode="0" arprange="1" arp="0" arpdir="0" arpcycle="0"/>
                <midiport outputcontroller="0" readable="0" basevelocity="63" writable="0" outputprogram="1" fixedoutputvelocity="-1" fixedoutputnote="-1" outputchannel="1" inputchannel="0" inputcontroller="0" fixedinputvelocity="-1"/>
                <fxchain numofeffects="0" enabled="0"/>
              </instrumenttrack>
              <pattern pos="0" name="china.wav" muted="0" type="0" steps="64"/>
              <pattern pos="192" name="china.wav" muted="0" type="0" steps="32"/>
              <pattern pos="384" name="china.wav" muted="0" type="0" steps="32"/>
              <pattern pos="576" name="china.wav" muted="0" type="0" steps="64"/>
              <pattern pos="768" name="china.wav" muted="0" type="0" steps="16"/>
              <pattern pos="960" name="china.wav" muted="0" type="0" steps="64"/>
              <pattern pos="1152" name="china.wav" muted="0" type="0" steps="64"/>
              <pattern pos="1344" name="china.wav" muted="0" type="0" steps="64"/>
              <pattern pos="1536" name="china.wav" muted="0" type="0" steps="32"/>
              <pattern pos="1728" name="china.wav" muted="0" type="0" steps="48"/>
              <pattern pos="1920" name="china.wav" muted="0" type="0" steps="32">
                <note vol="100" pos="288" key="57" pan="0" len="-192"/>
              </pattern>
              <pattern pos="2112" name="china.wav" muted="0" type="0" steps="64"/>
              <pattern pos="2304" name="china.wav" muted="0" type="0" steps="64"/>
              <pattern pos="2496" name="china.wav" muted="0" type="0" steps="64"/>
              <pattern pos="2688" name="china.wav" muted="0" type="0" steps="64"/>
              <pattern pos="2880" name="china.wav" muted="0" type="0" steps="64"/>
              <pattern pos="3072" name="china.wav" muted="0" type="0" steps="16"/>
              <pattern pos="3264" name="china.wav" muted="0" type="0" steps="16"/>
              <pattern pos="3456" name="china.wav" muted="0" type="0" steps="16"/>
              <pattern pos="3648" name="china.wav" muted="0" type="0" steps="64"/>
              <pattern pos="3840" name="china.wav" muted="0" type="0" steps="80"/>
              <pattern pos="4032" name="china.wav" muted="0" type="0" steps="32">
                <note vol="100" pos="36" key="57" pan="0" len="-192"/>
                <note vol="100" pos="72" key="57" pan="0" len="-192"/>
                <note vol="100" pos="108" key="57" pan="0" len="-192"/>
                <note vol="100" pos="144" key="57" pan="0" len="-192"/>
                <note vol="100" pos="168" key="57" pan="0" len="-192"/>
              </pattern>
            </track>
            <track solo="0" name="hiTom.wav" muted="0" type="0">
              <instrumenttrack vol="130.4" pitchrange="1" fxch="7" pitch="0" pan="0" usemasterpitch="1" basenote="57">
                <instrument name="audiofileprocessor">
                  <audiofileprocessor reversed="0" src="/home/pass/samples/sillydrums/hiTom.wav" eframe="1" amp="100" lframe="0" sframe="0" stutter="0" interp="1" looped="0"/>
                </instrument>
                <eldata fcut="14000" ftype="0" fres="0.5" fwet="0">
                  <elvol lpdel="0" dec="2" lamt="0" rel="2" userwavefile="" lspd="0.1" x100="0" latt="0" hold="2" lshp="0" sustain="1" lspd_numerator="4" att="0" lspd_syncmode="0" amt="1" ctlenvamt="0" lspd_denominator="4" pdel="0"/>
                  <elcut lpdel="0" dec="0.5" lamt="0" rel="0.1" userwavefile="" lspd="0.1" x100="0" latt="0" hold="0.5" lshp="0" sustain="0.5" lspd_numerator="4" att="0" lspd_syncmode="0" amt="0" ctlenvamt="0" lspd_denominator="4" pdel="0"/>
                  <elres lpdel="0" dec="0.5" lamt="0" rel="0.1" userwavefile="" lspd="0.1" x100="0" latt="0" hold="0.5" lshp="0" sustain="0.5" lspd_numerator="4" att="0" lspd_syncmode="0" amt="0" ctlenvamt="0" lspd_denominator="4" pdel="0"/>
                </eldata>
                <chordcreator chordrange="1" chord-enabled="0" chord="0"/>
                <arpeggiator arp-enabled="0" arptime_denominator="4" arpgate="100" arpskip="0" arptime="200" arpmode="0" arpmiss="0" arptime_numerator="4" arptime_syncmode="0" arprange="1" arp="0" arpdir="0" arpcycle="0"/>
                <midiport outputcontroller="0" readable="0" basevelocity="63" writable="0" outputprogram="1" fixedoutputvelocity="-1" fixedoutputnote="-1" outputchannel="1" inputchannel="0" inputcontroller="0" fixedinputvelocity="-1"/>
                <fxchain numofeffects="0" enabled="0"/>
              </instrumenttrack>
              <pattern pos="0" name="hiTom.wav" muted="0" type="0" steps="64">
                <note vol="100" pos="480" key="57" pan="0" len="-192"/>
                <note vol="100" pos="528" key="57" pan="0" len="-192"/>
              </pattern>
              <pattern pos="192" name="hiTom.wav" muted="0" type="0" steps="32">
                <note vol="100" pos="24" key="57" pan="0" len="-192"/>
                <note vol="100" pos="36" key="57" pan="0" len="-192"/>
                <note vol="100" pos="108" key="57" pan="0" len="-192"/>
                <note vol="100" pos="156" key="57" pan="0" len="-192"/>
                <note vol="100" pos="216" key="57" pan="0" len="-192"/>
                <note vol="100" pos="228" key="57" pan="0" len="-192"/>
                <note vol="100" pos="300" key="57" pan="0" len="-192"/>
                <note vol="100" pos="348" key="57" pan="0" len="-192"/>
              </pattern>
              <pattern pos="384" name="hiTom.wav" muted="0" type="0" steps="32">
                <note vol="100" pos="252" key="57" pan="0" len="-192"/>
              </pattern>
              <pattern pos="576" name="hiTom.wav" muted="0" type="0" steps="64"/>
              <pattern pos="768" name="hiTom.wav" muted="0" type="0" steps="16"/>
              <pattern pos="960" name="hiTom.wav" muted="0" type="0" steps="64"/>
              <pattern pos="1152" name="hiTom.wav" muted="0" type="0" steps="64">
                <note vol="100" pos="684" key="57" pan="0" len="-192"/>
                <note vol="100" pos="732" key="57" pan="0" len="-192"/>
              </pattern>
              <pattern pos="1344" name="hiTom.wav" muted="0" type="0" steps="64"/>
              <pattern pos="1536" name="hiTom.wav" muted="0" type="0" steps="32"/>
              <pattern pos="1728" name="hiTom.wav" muted="0" type="0" steps="48">
                <note vol="100" pos="300" key="57" pan="0" len="-192"/>
              </pattern>
              <pattern pos="1920" name="hiTom.wav" muted="0" type="0" steps="32"/>
              <pattern pos="2112" name="hiTom.wav" muted="0" type="0" steps="64"/>
              <pattern pos="2304" name="hiTom.wav" muted="0" type="0" steps="64"/>
              <pattern pos="2496" name="hiTom.wav" muted="0" type="0" steps="64"/>
              <pattern pos="2688" name="hiTom.wav" muted="0" type="0" steps="64"/>
              <pattern pos="2880" name="hiTom.wav" muted="0" type="0" steps="64"/>
              <pattern pos="3072" name="hiTom.wav" muted="0" type="0" steps="16"/>
              <pattern pos="3264" name="hiTom.wav" muted="0" type="0" steps="16"/>
              <pattern pos="3456" name="hiTom.wav" muted="0" type="0" steps="16"/>
              <pattern pos="3648" name="hiTom.wav" muted="0" type="0" steps="64">
                <note vol="100" pos="72" key="57" pan="0" len="-192"/>
                <note vol="100" pos="84" key="57" pan="0" len="-192"/>
                <note vol="100" pos="216" key="57" pan="0" len="-192"/>
                <note vol="100" pos="312" key="57" pan="0" len="-192"/>
                <note vol="100" pos="408" key="57" pan="0" len="-192"/>
                <note vol="100" pos="432" key="57" pan="0" len="-192"/>
                <note vol="100" pos="696" key="57" pan="0" len="-192"/>
              </pattern>
              <pattern pos="3840" name="hiTom.wav" muted="0" type="0" steps="80">
                <note vol="100" pos="24" key="57" pan="0" len="-192"/>
                <note vol="100" pos="48" key="57" pan="0" len="-192"/>
                <note vol="100" pos="96" key="57" pan="0" len="-192"/>
                <note vol="100" pos="120" key="57" pan="0" len="-192"/>
                <note vol="100" pos="408" key="57" pan="0" len="-192"/>
                <note vol="100" pos="600" key="57" pan="0" len="-192"/>
              </pattern>
              <pattern pos="4032" name="hiTom.wav" muted="0" type="0" steps="32">
                <note vol="100" pos="216" key="57" pan="0" len="-192"/>
                <note vol="100" pos="228" key="57" pan="0" len="-192"/>
              </pattern>
            </track>
            <track solo="0" name="midTom.wav" muted="0" type="0">
              <instrumenttrack vol="130.4" pitchrange="1" fxch="8" pitch="0" pan="0" usemasterpitch="1" basenote="57">
                <instrument name="audiofileprocessor">
                  <audiofileprocessor reversed="0" src="/home/pass/samples/sillydrums/midTom.wav" eframe="1" amp="100" lframe="0" sframe="0" stutter="0" interp="1" looped="0"/>
                </instrument>
                <eldata fcut="14000" ftype="0" fres="0.5" fwet="0">
                  <elvol lpdel="0" dec="2" lamt="0" rel="2" userwavefile="" lspd="0.1" x100="0" latt="0" hold="2" lshp="0" sustain="1" lspd_numerator="4" att="0" lspd_syncmode="0" amt="1" ctlenvamt="0" lspd_denominator="4" pdel="0"/>
                  <elcut lpdel="0" dec="0.5" lamt="0" rel="0.1" userwavefile="" lspd="0.1" x100="0" latt="0" hold="0.5" lshp="0" sustain="0.5" lspd_numerator="4" att="0" lspd_syncmode="0" amt="0" ctlenvamt="0" lspd_denominator="4" pdel="0"/>
                  <elres lpdel="0" dec="0.5" lamt="0" rel="0.1" userwavefile="" lspd="0.1" x100="0" latt="0" hold="0.5" lshp="0" sustain="0.5" lspd_numerator="4" att="0" lspd_syncmode="0" amt="0" ctlenvamt="0" lspd_denominator="4" pdel="0"/>
                </eldata>
                <chordcreator chordrange="1" chord-enabled="0" chord="0"/>
                <arpeggiator arp-enabled="0" arptime_denominator="4" arpgate="100" arpskip="0" arptime="200" arpmode="0" arpmiss="0" arptime_numerator="4" arptime_syncmode="0" arprange="1" arp="0" arpdir="0" arpcycle="0"/>
                <midiport outputcontroller="0" readable="0" basevelocity="63" writable="0" outputprogram="1" fixedoutputvelocity="-1" fixedoutputnote="-1" outputchannel="1" inputchannel="0" inputcontroller="0" fixedinputvelocity="-1"/>
                <fxchain numofeffects="0" enabled="0"/>
              </instrumenttrack>
              <pattern pos="0" name="midTom.wav" muted="0" type="0" steps="64">
                <note vol="100" pos="336" key="57" pan="0" len="-192"/>
                <note vol="100" pos="360" key="57" pan="0" len="-192"/>
                <note vol="100" pos="480" key="57" pan="0" len="-192"/>
                <note vol="100" pos="528" key="57" pan="0" len="-192"/>
              </pattern>
              <pattern pos="192" name="midTom.wav" muted="0" type="0" steps="32">
                <note vol="100" pos="48" key="57" pan="0" len="-192"/>
                <note vol="100" pos="60" key="57" pan="0" len="-192"/>
                <note vol="100" pos="120" key="57" pan="0" len="-192"/>
                <note vol="100" pos="168" key="57" pan="0" len="-192"/>
                <note vol="100" pos="240" key="57" pan="0" len="-192"/>
                <note vol="100" pos="252" key="57" pan="0" len="-192"/>
                <note vol="100" pos="312" key="57" pan="0" len="-192"/>
                <note vol="100" pos="360" key="57" pan="0" len="-192"/>
              </pattern>
              <pattern pos="384" name="midTom.wav" muted="0" type="0" steps="32">
                <note vol="100" pos="264" key="57" pan="0" len="-192"/>
              </pattern>
              <pattern pos="576" name="midTom.wav" muted="0" type="0" steps="64"/>
              <pattern pos="768" name="midTom.wav" muted="0" type="0" steps="16">
                <note vol="100" pos="108" key="57" pan="0" len="-192"/>
                <note vol="100" pos="120" key="57" pan="0" len="-192"/>
                <note vol="100" pos="132" key="57" pan="0" len="-192"/>
              </pattern>
              <pattern pos="960" name="midTom.wav" muted="0" type="0" steps="64"/>
              <pattern pos="1152" name="midTom.wav" muted="0" type="0" steps="64">
                <note vol="100" pos="696" key="57" pan="0" len="-192"/>
                <note vol="100" pos="744" key="57" pan="0" len="-192"/>
              </pattern>
              <pattern pos="1344" name="midTom.wav" muted="0" type="0" steps="64"/>
              <pattern pos="1536" name="midTom.wav" muted="0" type="0" steps="32"/>
              <pattern pos="1728" name="midTom.wav" muted="0" type="0" steps="48">
                <note vol="100" pos="312" key="57" pan="0" len="-192"/>
                <note vol="100" pos="324" key="57" pan="0" len="-192"/>
              </pattern>
              <pattern pos="1920" name="midTom.wav" muted="0" type="0" steps="32"/>
              <pattern pos="2112" name="midTom.wav" muted="0" type="0" steps="64"/>
              <pattern pos="2304" name="midTom.wav" muted="0" type="0" steps="64"/>
              <pattern pos="2496" name="midTom.wav" muted="0" type="0" steps="64"/>
              <pattern pos="2688" name="midTom.wav" muted="0" type="0" steps="64"/>
              <pattern pos="2880" name="midTom.wav" muted="0" type="0" steps="64"/>
              <pattern pos="3072" name="midTom.wav" muted="0" type="0" steps="16"/>
              <pattern pos="3264" name="midTom.wav" muted="0" type="0" steps="16"/>
              <pattern pos="3456" name="midTom.wav" muted="0" type="0" steps="16"/>
              <pattern pos="3648" name="midTom.wav" muted="0" type="0" steps="64">
                <note vol="100" pos="120" key="57" pan="0" len="-192"/>
                <note vol="100" pos="216" key="57" pan="0" len="-192"/>
                <note vol="100" pos="264" key="57" pan="0" len="-192"/>
                <note vol="100" pos="336" key="57" pan="0" len="-192"/>
                <note vol="100" pos="408" key="57" pan="0" len="-192"/>
                <note vol="100" pos="432" key="57" pan="0" len="-192"/>
                <note vol="100" pos="480" key="57" pan="0" len="-192"/>
                <note vol="100" pos="504" key="57" pan="0" len="-192"/>
                <note vol="100" pos="600" key="57" pan="0" len="-192"/>
                <note vol="100" pos="696" key="57" pan="0" len="-192"/>
                <note vol="100" pos="732" key="57" pan="0" len="-192"/>
              </pattern>
              <pattern pos="3840" name="midTom.wav" muted="0" type="0" steps="80">
                <note vol="100" pos="24" key="57" pan="0" len="-192"/>
                <note vol="100" pos="48" key="57" pan="0" len="-192"/>
                <note vol="100" pos="96" key="57" pan="0" len="-192"/>
                <note vol="100" pos="120" key="57" pan="0" len="-192"/>
                <note vol="100" pos="168" key="57" pan="0" len="-192"/>
                <note vol="100" pos="192" key="57" pan="0" len="-192"/>
                <note vol="100" pos="240" key="57" pan="0" len="-192"/>
                <note vol="100" pos="264" key="57" pan="0" len="-192"/>
                <note vol="100" pos="312" key="57" pan="0" len="-192"/>
                <note vol="100" pos="432" key="57" pan="0" len="-192"/>
                <note vol="100" pos="648" key="57" pan="0" len="-192"/>
              </pattern>
              <pattern pos="4032" name="midTom.wav" muted="0" type="0" steps="32">
                <note vol="100" pos="240" key="57" pan="0" len="-192"/>
                <note vol="100" pos="252" key="57" pan="0" len="-192"/>
              </pattern>
            </track>
            <track solo="0" name="loTom.wav" muted="0" type="0">
              <instrumenttrack vol="130.4" pitchrange="1" fxch="9" pitch="0" pan="0" usemasterpitch="1" basenote="57">
                <instrument name="audiofileprocessor">
                  <audiofileprocessor reversed="0" src="/home/pass/samples/sillydrums/loTom.wav" eframe="1" amp="100" lframe="0" sframe="0" stutter="0" interp="1" looped="0"/>
                </instrument>
                <eldata fcut="14000" ftype="0" fres="0.5" fwet="0">
                  <elvol lpdel="0" dec="2" lamt="0" rel="2" userwavefile="" lspd="0.1" x100="0" latt="0" hold="2" lshp="0" sustain="1" lspd_numerator="4" att="0" lspd_syncmode="0" amt="1" ctlenvamt="0" lspd_denominator="4" pdel="0"/>
                  <elcut lpdel="0" dec="0.5" lamt="0" rel="0.1" userwavefile="" lspd="0.1" x100="0" latt="0" hold="0.5" lshp="0" sustain="0.5" lspd_numerator="4" att="0" lspd_syncmode="0" amt="0" ctlenvamt="0" lspd_denominator="4" pdel="0"/>
                  <elres lpdel="0" dec="0.5" lamt="0" rel="0.1" userwavefile="" lspd="0.1" x100="0" latt="0" hold="0.5" lshp="0" sustain="0.5" lspd_numerator="4" att="0" lspd_syncmode="0" amt="0" ctlenvamt="0" lspd_denominator="4" pdel="0"/>
                </eldata>
                <chordcreator chordrange="1" chord-enabled="0" chord="0"/>
                <arpeggiator arp-enabled="0" arptime_denominator="4" arpgate="100" arpskip="0" arptime="200" arpmode="0" arpmiss="0" arptime_numerator="4" arptime_syncmode="0" arprange="1" arp="0" arpdir="0" arpcycle="0"/>
                <midiport outputcontroller="0" readable="0" basevelocity="63" writable="0" outputprogram="1" fixedoutputvelocity="-1" fixedoutputnote="-1" outputchannel="1" inputchannel="0" inputcontroller="0" fixedinputvelocity="-1"/>
                <fxchain numofeffects="0" enabled="0"/>
              </instrumenttrack>
              <pattern pos="0" name="loTom.wav" muted="0" type="0" steps="64"/>
              <pattern pos="192" name="loTom.wav" muted="0" type="0" steps="32">
                <note vol="100" pos="72" key="57" pan="0" len="-192"/>
                <note vol="100" pos="84" key="57" pan="0" len="-192"/>
                <note vol="100" pos="132" key="57" pan="0" len="-192"/>
                <note vol="100" pos="180" key="57" pan="0" len="-192"/>
                <note vol="100" pos="264" key="57" pan="0" len="-192"/>
                <note vol="100" pos="276" key="57" pan="0" len="-192"/>
                <note vol="100" pos="324" key="57" pan="0" len="-192"/>
                <note vol="100" pos="372" key="57" pan="0" len="-192"/>
              </pattern>
              <pattern pos="384" name="loTom.wav" muted="0" type="0" steps="32">
                <note vol="100" pos="276" key="57" pan="0" len="-192"/>
              </pattern>
              <pattern pos="576" name="loTom.wav" muted="0" type="0" steps="64"/>
              <pattern pos="768" name="loTom.wav" muted="0" type="0" steps="16">
                <note vol="100" pos="156" key="57" pan="0" len="-192"/>
                <note vol="100" pos="168" key="57" pan="0" len="-192"/>
                <note vol="100" pos="180" key="57" pan="0" len="-192"/>
              </pattern>
              <pattern pos="960" name="loTom.wav" muted="0" type="0" steps="64"/>
              <pattern pos="1152" name="loTom.wav" muted="0" type="0" steps="64">
                <note vol="100" pos="708" key="57" pan="0" len="-192"/>
                <note vol="100" pos="756" key="57" pan="0" len="-192"/>
              </pattern>
              <pattern pos="1344" name="loTom.wav" muted="0" type="0" steps="64"/>
              <pattern pos="1536" name="loTom.wav" muted="0" type="0" steps="32"/>
              <pattern pos="1728" name="loTom.wav" muted="0" type="0" steps="48">
                <note vol="100" pos="360" key="57" pan="0" len="-192"/>
                <note vol="100" pos="372" key="57" pan="0" len="-192"/>
              </pattern>
              <pattern pos="1920" name="loTom.wav" muted="0" type="0" steps="32"/>
              <pattern pos="2112" name="loTom.wav" muted="0" type="0" steps="64"/>
              <pattern pos="2304" name="loTom.wav" muted="0" type="0" steps="64"/>
              <pattern pos="2496" name="loTom.wav" muted="0" type="0" steps="64"/>
              <pattern pos="2688" name="loTom.wav" muted="0" type="0" steps="64"/>
              <pattern pos="2880" name="loTom.wav" muted="0" type="0" steps="64"/>
              <pattern pos="3072" name="loTom.wav" muted="0" type="0" steps="16"/>
              <pattern pos="3264" name="loTom.wav" muted="0" type="0" steps="16"/>
              <pattern pos="3456" name="loTom.wav" muted="0" type="0" steps="16"/>
              <pattern pos="3648" name="loTom.wav" muted="0" type="0" steps="64">
                <note vol="100" pos="264" key="57" pan="0" len="-192"/>
                <note vol="100" pos="360" key="57" pan="0" len="-192"/>
                <note vol="100" pos="480" key="57" pan="0" len="-192"/>
                <note vol="100" pos="504" key="57" pan="0" len="-192"/>
                <note vol="100" pos="648" key="57" pan="0" len="-192"/>
                <note vol="100" pos="744" key="57" pan="0" len="-192"/>
              </pattern>
              <pattern pos="3840" name="loTom.wav" muted="0" type="0" steps="80">
                <note vol="100" pos="168" key="57" pan="0" len="-192"/>
                <note vol="100" pos="192" key="57" pan="0" len="-192"/>
                <note vol="100" pos="240" key="57" pan="0" len="-192"/>
                <note vol="100" pos="264" key="57" pan="0" len="-192"/>
                <note vol="100" pos="312" key="57" pan="0" len="-192"/>
              </pattern>
              <pattern pos="4032" name="loTom.wav" muted="0" type="0" steps="32">
                <note vol="100" pos="264" key="57" pan="0" len="-192"/>
                <note vol="100" pos="276" key="57" pan="0" len="-192"/>
              </pattern>
            </track>
            <track solo="0" name="hihat_opened02.ogg" muted="0" type="0">
              <instrumenttrack vol="100" pitchrange="1" fxch="0" pitch="0" pan="0" usemasterpitch="1" basenote="57">
                <instrument name="audiofileprocessor">
                  <audiofileprocessor reversed="0" src="drums/hihat_opened02.ogg" eframe="1" amp="100" lframe="0" sframe="0" stutter="0" interp="1" looped="0"/>
                </instrument>
                <eldata fcut="14000" ftype="0" fres="0.5" fwet="0">
                  <elvol lpdel="0" dec="0.5" lamt="0" rel="0.1" userwavefile="" lspd="0.1" x100="0" latt="0" hold="0.5" lshp="0" sustain="0.5" lspd_numerator="4" att="0" lspd_syncmode="0" amt="0" ctlenvamt="0" lspd_denominator="4" pdel="0"/>
                  <elcut lpdel="0" dec="0.5" lamt="0" rel="0.1" userwavefile="" lspd="0.1" x100="0" latt="0" hold="0.5" lshp="0" sustain="0.5" lspd_numerator="4" att="0" lspd_syncmode="0" amt="0" ctlenvamt="0" lspd_denominator="4" pdel="0"/>
                  <elres lpdel="0" dec="0.5" lamt="0" rel="0.1" userwavefile="" lspd="0.1" x100="0" latt="0" hold="0.5" lshp="0" sustain="0.5" lspd_numerator="4" att="0" lspd_syncmode="0" amt="0" ctlenvamt="0" lspd_denominator="4" pdel="0"/>
                </eldata>
                <chordcreator chordrange="1" chord-enabled="0" chord="0"/>
                <arpeggiator arp-enabled="0" arptime_denominator="4" arpgate="100" arpskip="0" arptime="200" arpmode="0" arpmiss="0" arptime_numerator="4" arptime_syncmode="0" arprange="1" arp="0" arpdir="0" arpcycle="0"/>
                <midiport outputcontroller="0" readable="0" basevelocity="63" writable="0" outputprogram="1" fixedoutputvelocity="-1" fixedoutputnote="-1" outputchannel="1" inputchannel="0" inputcontroller="0" fixedinputvelocity="-1"/>
                <fxchain numofeffects="0" enabled="0"/>
              </instrumenttrack>
              <pattern pos="0" name="hihat_opened02.ogg" muted="0" type="0" steps="64"/>
              <pattern pos="192" name="hihat_opened02.ogg" muted="0" type="0" steps="32"/>
              <pattern pos="384" name="hihat_opened02.ogg" muted="0" type="0" steps="32"/>
              <pattern pos="576" name="hihat_opened02.ogg" muted="0" type="0" steps="64"/>
              <pattern pos="768" name="hihat_opened02.ogg" muted="0" type="0" steps="16"/>
              <pattern pos="960" name="hihat_opened02.ogg" muted="0" type="0" steps="64"/>
              <pattern pos="1152" name="hihat_opened02.ogg" muted="0" type="0" steps="64"/>
              <pattern pos="1344" name="hihat_opened02.ogg" muted="0" type="0" steps="64"/>
              <pattern pos="1536" name="hihat_opened02.ogg" muted="0" type="0" steps="32"/>
              <pattern pos="1728" name="hihat_opened02.ogg" muted="0" type="0" steps="48"/>
              <pattern pos="1920" name="hihat_opened02.ogg" muted="0" type="0" steps="32"/>
              <pattern pos="2112" name="hihat_opened02.ogg" muted="0" type="0" steps="64"/>
              <pattern pos="2304" name="hihat_opened02.ogg" muted="0" type="0" steps="64"/>
              <pattern pos="2496" name="hihat_opened02.ogg" muted="0" type="0" steps="64"/>
              <pattern pos="2688" name="hihat_opened02.ogg" muted="0" type="0" steps="64"/>
              <pattern pos="2880" name="hihat_opened02.ogg" muted="0" type="0" steps="64"/>
              <pattern pos="3072" name="hihat_opened02.ogg" muted="0" type="0" steps="16"/>
              <pattern pos="3264" name="hihat_opened02.ogg" muted="0" type="0" steps="16"/>
              <pattern pos="3456" name="hihat_opened02.ogg" muted="0" type="0" steps="16"/>
              <pattern pos="3648" name="hihat_opened02.ogg" muted="0" type="0" steps="64"/>
              <pattern pos="3840" name="hihat_opened02.ogg" muted="0" type="0" steps="80"/>
              <pattern pos="4032" name="hihat_opened02.ogg" muted="0" type="0" steps="32"/>
            </track>
          </trackcontainer>
        </bbtrack>
        <bbtco pos="0" usestyle="1" color="4286611584" name="" muted="0" len="768"/>
      </track>
      <track solo="0" name="Clone of intro1" muted="0" type="1">
        <bbtrack/>
        <bbtco pos="768" usestyle="1" color="4286611584" name="" muted="0" len="768"/>
      </track>
      <track solo="0" name="intro2" muted="0" type="1">
        <bbtrack/>
        <bbtco pos="1536" usestyle="1" color="4286611584" name="" muted="0" len="384"/>
      </track>
      <track solo="0" name="bootcamp1" muted="0" type="1">
        <bbtrack/>
        <bbtco pos="11136" usestyle="1" color="4286611584" name="" muted="0" len="1536"/>
      </track>
      <track solo="0" name="fill1" muted="0" type="1">
        <bbtrack/>
      </track>
      <track solo="0" name="Clone of bootcamp1" muted="0" type="1">
        <bbtrack/>
        <bbtco pos="1920" usestyle="1" color="4286611584" name="" muted="0" len="768"/>
        <bbtco pos="3456" usestyle="1" color="4286611584" name="" muted="0" len="1152"/>
        <bbtco pos="20736" usestyle="1" color="4286611584" name="" muted="0" len="768"/>
        <bbtco pos="22272" usestyle="1" color="4286611584" name="" muted="0" len="1152"/>
      </track>
      <track solo="0" name="Clone of Clone of bootcamp1" muted="0" type="1">
        <bbtrack/>
        <bbtco pos="2688" usestyle="1" color="4286611584" name="" muted="0" len="768"/>
        <bbtco pos="21504" usestyle="1" color="4286611584" name="" muted="0" len="768"/>
      </track>
      <track solo="0" name="Clone of Clone of bootcamp1" muted="0" type="1">
        <bbtrack/>
        <bbtco pos="8064" usestyle="1" color="4286611584" name="" muted="0" len="1536"/>
      </track>
      <track solo="0" name="kick/mutecrash" muted="0" type="1">
        <bbtrack/>
      </track>
      <track solo="0" name="Beat/Bassline 6" muted="0" type="1">
        <bbtrack/>
        <bbtco pos="4608" usestyle="1" color="4286611584" name="" muted="0" len="576"/>
        <bbtco pos="23424" usestyle="1" color="4286611584" name="" muted="0" len="576"/>
      </track>
      <track solo="0" name="Clone of Beat/Bassline 6" muted="0" type="1">
        <bbtrack/>
      </track>
      <track solo="0" name="Beat/Bassline 10" muted="0" type="1">
        <bbtrack/>
        <bbtco pos="6528" usestyle="1" color="4286611584" name="" muted="0" len="1536"/>
      </track>
      <track solo="0" name="Clone of Beat/Bassline 10" muted="0" type="1">
        <bbtrack/>
        <bbtco pos="12672" usestyle="1" color="4286611584" name="" muted="0" len="1536"/>
      </track>
      <track solo="0" name="Beat/Bassline 12" muted="0" type="1">
        <bbtrack/>
        <bbtco pos="25344" usestyle="1" color="4286611584" name="" muted="0" len="1536"/>
        <bbtco pos="9600" usestyle="1" color="4286611584" name="" muted="0" len="384"/>
        <bbtco pos="9984" usestyle="1" color="4286611584" name="" muted="0" len="384"/>
        <bbtco pos="10368" usestyle="1" color="4286611584" name="" muted="0" len="384"/>
      </track>
      <track solo="0" name="Clone of Beat/Bassline 12" muted="0" type="1">
        <bbtrack/>
        <bbtco pos="17280" usestyle="1" color="4286611584" name="" muted="0" len="3072"/>
      </track>
      <track solo="0" name="Clone of Beat/Bassline 12" muted="0" type="1">
        <bbtrack/>
        <bbtco pos="26880" usestyle="1" color="4286611584" name="" muted="0" len="3072"/>
      </track>
      <track solo="0" name="Beat/Bassline 15" muted="0" type="1">
        <bbtrack/>
        <bbtco pos="10752" usestyle="1" color="4286611584" name="" muted="0" len="192"/>
      </track>
      <track solo="0" name="Beat/Bassline 16" muted="0" type="1">
        <bbtrack/>
        <bbtco pos="15744" usestyle="1" color="4286611584" name="" muted="0" len="1536"/>
      </track>
      <track solo="0" name="Beat/Bassline 17" muted="0" type="1">
        <bbtrack/>
        <bbtco pos="14208" usestyle="1" color="4286611584" name="" muted="0" len="1536"/>
      </track>
      <track solo="0" name="Beat/Bassline 19" muted="0" type="1">
        <bbtrack/>
        <bbtco pos="29952" usestyle="1" color="4286611584" name="" muted="0" len="768"/>
      </track>
      <track solo="0" name="Clone of Beat/Bassline 19" muted="0" type="1">
        <bbtrack/>
        <bbtco pos="30720" usestyle="1" color="4286611584" name="" muted="0" len="960"/>
      </track>
      <track solo="0" name="Beat/Bassline 21" muted="0" type="1">
        <bbtrack/>
        <bbtco pos="20352" usestyle="1" color="4286611584" name="" muted="0" len="384"/>
      </track>
      <track solo="0" name="Automation track" muted="0" type="5">
        <automationtrack/>
      </track>
      <track solo="0" name="unisaw" muted="0" type="0">
        <instrumenttrack vol="65.6" pitchrange="1" fxch="15" pitch="0" pan="0" usemasterpitch="1" basenote="57">
          <instrument name="zynaddsubfx">
            <zynaddsubfx filterfreq="78" portamento="0" filterq="27" forwardmidicc="1" bandwidth="60" modifiedcontrollers="71,74,75," rescenterfreq="64" fmgain="127" resbandwidth="64">
              <ZynAddSubFX-data version-minor="4" ZynAddSubFX-author="Nasca Octavian Paul" version-revision="1" version-major="2">
                <INFORMATION/>
                <BASE_PARAMETERS>
                  <par value="16" name="max_midi_parts"/>
                  <par value="16" name="max_kit_items_per_instrument"/>
                  <par value="4" name="max_system_effects"/>
                  <par value="8" name="max_insertion_effects"/>
                  <par value="3" name="max_instrument_effects"/>
                  <par value="8" name="max_addsynth_voices"/>
                </BASE_PARAMETERS>
                <MASTER>
                  <par value="80" name="volume"/>
                  <par value="64" name="key_shift"/>
                  <par_bool value="yes" name="nrpn_receive"/>
                  <MICROTONAL>
                    <string name="name">12tET</string>
                    <string name="comment">Equal Temperament 12 notes per octave</string>
                    <par_bool value="no" name="invert_up_down"/>
                    <par value="60" name="invert_up_down_center"/>
                    <par_bool value="no" name="enabled"/>
                    <par value="64" name="global_fine_detune"/>
                    <par value="69" name="a_note"/>
                    <par_real value="440.000000" name="a_freq"/>
                  </MICROTONAL>
                  <PART id="0">
                    <par_bool value="yes" name="enabled"/>
                    <par value="96" name="volume"/>
                    <par value="64" name="panning"/>
                    <par value="0" name="min_key"/>
                    <par value="127" name="max_key"/>
                    <par value="64" name="key_shift"/>
                    <par value="0" name="rcv_chn"/>
                    <par value="64" name="velocity_sensing"/>
                    <par value="64" name="velocity_offset"/>
                    <par_bool value="yes" name="note_on"/>
                    <par_bool value="yes" name="poly_mode"/>
                    <par value="0" name="legato_mode"/>
                    <par value="15" name="key_limit"/>
                    <INSTRUMENT>
                      <INFO>
                        <string name="name"/>
                        <string name="author"/>
                        <string name="comments"/>
                        <par value="0" name="type"/>
                      </INFO>
                      <INSTRUMENT_KIT>
                        <par value="0" name="kit_mode"/>
                        <par_bool value="no" name="drum_mode"/>
                        <INSTRUMENT_KIT_ITEM id="0">
                          <par_bool value="yes" name="enabled"/>
                          <string name="name"/>
                          <par_bool value="no" name="muted"/>
                          <par value="0" name="min_key"/>
                          <par value="127" name="max_key"/>
                          <par value="0" name="send_to_instrument_effect"/>
                          <par_bool value="yes" name="add_enabled"/>
                          <ADD_SYNTH_PARAMETERS>
                            <par_bool value="yes" name="stereo"/>
                            <AMPLITUDE_PARAMETERS>
                              <par value="90" name="volume"/>
                              <par value="64" name="panning"/>
                              <par value="64" name="velocity_sensing"/>
                              <par value="0" name="punch_strength"/>
                              <par value="60" name="punch_time"/>
                              <par value="64" name="punch_stretch"/>
                              <par value="72" name="punch_velocity_sensing"/>
                              <par value="0" name="harmonic_randomness_grouping"/>
                              <AMPLITUDE_ENVELOPE>
                                <par_bool value="no" name="free_mode"/>
                                <par value="4" name="env_points"/>
                                <par value="2" name="env_sustain"/>
                                <par value="64" name="env_stretch"/>
                                <par_bool value="yes" name="forced_release"/>
                                <par_bool value="no" name="linear_envelope"/>
                                <par value="0" name="A_dt"/>
                                <par value="127" name="D_dt"/>
                                <par value="25" name="R_dt"/>
                                <par value="64" name="A_val"/>
                                <par value="64" name="D_val"/>
                                <par value="127" name="S_val"/>
                                <par value="64" name="R_val"/>
                              </AMPLITUDE_ENVELOPE>
                              <AMPLITUDE_LFO>
                                <par_real value="0.629921" name="freq"/>
                                <par value="0" name="intensity"/>
                                <par value="64" name="start_phase"/>
                                <par value="0" name="lfo_type"/>
                                <par value="0" name="randomness_amplitude"/>
                                <par value="0" name="randomness_frequency"/>
                                <par value="0" name="delay"/>
                                <par value="64" name="stretch"/>
                                <par_bool value="no" name="continous"/>
                              </AMPLITUDE_LFO>
                            </AMPLITUDE_PARAMETERS>
                            <FREQUENCY_PARAMETERS>
                              <par value="8192" name="detune"/>
                              <par value="0" name="coarse_detune"/>
                              <par value="1" name="detune_type"/>
                              <par value="64" name="bandwidth"/>
                              <FREQUENCY_ENVELOPE>
                                <par_bool value="no" name="free_mode"/>
                                <par value="3" name="env_points"/>
                                <par value="1" name="env_sustain"/>
                                <par value="0" name="env_stretch"/>
                                <par_bool value="no" name="forced_release"/>
                                <par_bool value="no" name="linear_envelope"/>
                                <par value="50" name="A_dt"/>
                                <par value="10" name="D_dt"/>
                                <par value="60" name="R_dt"/>
                                <par value="64" name="A_val"/>
                                <par value="64" name="D_val"/>
                                <par value="64" name="S_val"/>
                                <par value="64" name="R_val"/>
                              </FREQUENCY_ENVELOPE>
                              <FREQUENCY_LFO>
                                <par_real value="0.551181" name="freq"/>
                                <par value="0" name="intensity"/>
                                <par value="64" name="start_phase"/>
                                <par value="0" name="lfo_type"/>
                                <par value="0" name="randomness_amplitude"/>
                                <par value="0" name="randomness_frequency"/>
                                <par value="0" name="delay"/>
                                <par value="64" name="stretch"/>
                                <par_bool value="no" name="continous"/>
                              </FREQUENCY_LFO>
                            </FREQUENCY_PARAMETERS>
                            <FILTER_PARAMETERS>
                              <par value="64" name="velocity_sensing_amplitude"/>
                              <par value="64" name="velocity_sensing"/>
                              <FILTER>
                                <par value="0" name="category"/>
                                <par value="2" name="type"/>
                                <par value="104" name="freq"/>
                                <par value="40" name="q"/>
                                <par value="0" name="stages"/>
                                <par value="64" name="freq_track"/>
                                <par value="64" name="gain"/>
                              </FILTER>
                              <FILTER_ENVELOPE>
                                <par_bool value="no" name="free_mode"/>
                                <par value="4" name="env_points"/>
                                <par value="2" name="env_sustain"/>
                                <par value="0" name="env_stretch"/>
                                <par_bool value="yes" name="forced_release"/>
                                <par_bool value="no" name="linear_envelope"/>
                                <par value="40" name="A_dt"/>
                                <par value="70" name="D_dt"/>
                                <par value="60" name="R_dt"/>
                                <par value="64" name="A_val"/>
                                <par value="64" name="D_val"/>
                                <par value="64" name="S_val"/>
                                <par value="64" name="R_val"/>
                              </FILTER_ENVELOPE>
                              <FILTER_LFO>
                                <par_real value="0.629921" name="freq"/>
                                <par value="0" name="intensity"/>
                                <par value="64" name="start_phase"/>
                                <par value="0" name="lfo_type"/>
                                <par value="0" name="randomness_amplitude"/>
                                <par value="0" name="randomness_frequency"/>
                                <par value="0" name="delay"/>
                                <par value="64" name="stretch"/>
                                <par_bool value="no" name="continous"/>
                              </FILTER_LFO>
                            </FILTER_PARAMETERS>
                            <RESONANCE>
                              <par_bool value="no" name="enabled"/>
                            </RESONANCE>
                            <VOICE id="0">
                              <par_bool value="yes" name="enabled"/>
                              <par value="0" name="type"/>
                              <par value="50" name="unison_size"/>
                              <par value="60" name="unison_frequency_spread"/>
                              <par value="64" name="unison_stereo_spread"/>
                              <par value="64" name="unison_vibratto"/>
                              <par value="64" name="unison_vibratto_speed"/>
                              <par value="0" name="unison_invert_phase"/>
                              <par value="127" name="unison_phase_randomness"/>
                              <par value="0" name="delay"/>
                              <par_bool value="yes" name="resonance"/>
                              <par value="-1" name="ext_oscil"/>
                              <par value="-1" name="ext_fm_oscil"/>
                              <par value="64" name="oscil_phase"/>
                              <par value="64" name="oscil_fm_phase"/>
                              <par_bool value="no" name="filter_enabled"/>
                              <par_bool value="no" name="filter_bypass"/>
                              <par value="0" name="fm_enabled"/>
                              <OSCIL>
                                <par value="0" name="harmonic_mag_type"/>
                                <par value="3" name="base_function"/>
                                <par value="127" name="base_function_par"/>
                                <par value="0" name="base_function_modulation"/>
                                <par value="64" name="base_function_modulation_par1"/>
                                <par value="64" name="base_function_modulation_par2"/>
                                <par value="32" name="base_function_modulation_par3"/>
                                <par value="0" name="modulation"/>
                                <par value="64" name="modulation_par1"/>
                                <par value="64" name="modulation_par2"/>
                                <par value="32" name="modulation_par3"/>
                                <par value="64" name="wave_shaping"/>
                                <par value="0" name="wave_shaping_function"/>
                                <par value="0" name="filter_type"/>
                                <par value="64" name="filter_par1"/>
                                <par value="64" name="filter_par2"/>
                                <par value="0" name="filter_before_wave_shaping"/>
                                <par value="0" name="spectrum_adjust_type"/>
                                <par value="64" name="spectrum_adjust_par"/>
                                <par value="64" name="rand"/>
                                <par value="0" name="amp_rand_type"/>
                                <par value="64" name="amp_rand_power"/>
                                <par value="0" name="harmonic_shift"/>
                                <par_bool value="no" name="harmonic_shift_first"/>
                                <par value="0" name="adaptive_harmonics"/>
                                <par value="128" name="adaptive_harmonics_base_frequency"/>
                                <par value="100" name="adaptive_harmonics_power"/>
                                <HARMONICS>
                                  <HARMONIC id="1">
                                    <par value="127" name="mag"/>
                                    <par value="64" name="phase"/>
                                  </HARMONIC>
                                </HARMONICS>
                              </OSCIL>
                              <AMPLITUDE_PARAMETERS>
                                <par value="1" name="panning"/>
                                <par value="100" name="volume"/>
                                <par_bool value="no" name="volume_minus"/>
                                <par value="127" name="velocity_sensing"/>
                                <par_bool value="no" name="amp_envelope_enabled"/>
                                <par_bool value="no" name="amp_lfo_enabled"/>
                              </AMPLITUDE_PARAMETERS>
                              <FREQUENCY_PARAMETERS>
                                <par_bool value="no" name="fixed_freq"/>
                                <par value="0" name="fixed_freq_et"/>
                                <par value="8192" name="detune"/>
                                <par value="0" name="coarse_detune"/>
                                <par value="0" name="detune_type"/>
                                <par_bool value="no" name="freq_envelope_enabled"/>
                                <par_bool value="no" name="freq_lfo_enabled"/>
                              </FREQUENCY_PARAMETERS>
                            </VOICE>
                            <VOICE id="1">
                              <par_bool value="yes" name="enabled"/>
                              <par value="0" name="type"/>
                              <par value="50" name="unison_size"/>
                              <par value="60" name="unison_frequency_spread"/>
                              <par value="64" name="unison_stereo_spread"/>
                              <par value="64" name="unison_vibratto"/>
                              <par value="64" name="unison_vibratto_speed"/>
                              <par value="0" name="unison_invert_phase"/>
                              <par value="127" name="unison_phase_randomness"/>
                              <par value="0" name="delay"/>
                              <par_bool value="yes" name="resonance"/>
                              <par value="-1" name="ext_oscil"/>
                              <par value="-1" name="ext_fm_oscil"/>
                              <par value="47" name="oscil_phase"/>
                              <par value="64" name="oscil_fm_phase"/>
                              <par_bool value="no" name="filter_enabled"/>
                              <par_bool value="no" name="filter_bypass"/>
                              <par value="0" name="fm_enabled"/>
                              <OSCIL>
                                <par value="0" name="harmonic_mag_type"/>
                                <par value="3" name="base_function"/>
                                <par value="127" name="base_function_par"/>
                                <par value="0" name="base_function_modulation"/>
                                <par value="64" name="base_function_modulation_par1"/>
                                <par value="64" name="base_function_modulation_par2"/>
                                <par value="32" name="base_function_modulation_par3"/>
                                <par value="0" name="modulation"/>
                                <par value="64" name="modulation_par1"/>
                                <par value="64" name="modulation_par2"/>
                                <par value="32" name="modulation_par3"/>
                                <par value="64" name="wave_shaping"/>
                                <par value="0" name="wave_shaping_function"/>
                                <par value="0" name="filter_type"/>
                                <par value="64" name="filter_par1"/>
                                <par value="64" name="filter_par2"/>
                                <par value="0" name="filter_before_wave_shaping"/>
                                <par value="0" name="spectrum_adjust_type"/>
                                <par value="64" name="spectrum_adjust_par"/>
                                <par value="64" name="rand"/>
                                <par value="0" name="amp_rand_type"/>
                                <par value="64" name="amp_rand_power"/>
                                <par value="0" name="harmonic_shift"/>
                                <par_bool value="no" name="harmonic_shift_first"/>
                                <par value="0" name="adaptive_harmonics"/>
                                <par value="128" name="adaptive_harmonics_base_frequency"/>
                                <par value="100" name="adaptive_harmonics_power"/>
                                <HARMONICS>
                                  <HARMONIC id="1">
                                    <par value="127" name="mag"/>
                                    <par value="64" name="phase"/>
                                  </HARMONIC>
                                </HARMONICS>
                              </OSCIL>
                              <AMPLITUDE_PARAMETERS>
                                <par value="127" name="panning"/>
                                <par value="100" name="volume"/>
                                <par_bool value="no" name="volume_minus"/>
                                <par value="127" name="velocity_sensing"/>
                                <par_bool value="no" name="amp_envelope_enabled"/>
                                <par_bool value="no" name="amp_lfo_enabled"/>
                              </AMPLITUDE_PARAMETERS>
                              <FREQUENCY_PARAMETERS>
                                <par_bool value="no" name="fixed_freq"/>
                                <par value="0" name="fixed_freq_et"/>
                                <par value="8192" name="detune"/>
                                <par value="0" name="coarse_detune"/>
                                <par value="0" name="detune_type"/>
                                <par_bool value="no" name="freq_envelope_enabled"/>
                                <par_bool value="no" name="freq_lfo_enabled"/>
                              </FREQUENCY_PARAMETERS>
                            </VOICE>
                            <VOICE id="2">
                              <par_bool value="no" name="enabled"/>
                            </VOICE>
                            <VOICE id="3">
                              <par_bool value="no" name="enabled"/>
                            </VOICE>
                            <VOICE id="4">
                              <par_bool value="no" name="enabled"/>
                            </VOICE>
                            <VOICE id="5">
                              <par_bool value="no" name="enabled"/>
                            </VOICE>
                            <VOICE id="6">
                              <par_bool value="no" name="enabled"/>
                            </VOICE>
                            <VOICE id="7">
                              <par_bool value="no" name="enabled"/>
                            </VOICE>
                          </ADD_SYNTH_PARAMETERS>
                          <par_bool value="no" name="sub_enabled"/>
                          <par_bool value="no" name="pad_enabled"/>
                        </INSTRUMENT_KIT_ITEM>
                        <INSTRUMENT_KIT_ITEM id="1">
                          <par_bool value="no" name="enabled"/>
                        </INSTRUMENT_KIT_ITEM>
                        <INSTRUMENT_KIT_ITEM id="2">
                          <par_bool value="no" name="enabled"/>
                        </INSTRUMENT_KIT_ITEM>
                        <INSTRUMENT_KIT_ITEM id="3">
                          <par_bool value="no" name="enabled"/>
                        </INSTRUMENT_KIT_ITEM>
                        <INSTRUMENT_KIT_ITEM id="4">
                          <par_bool value="no" name="enabled"/>
                        </INSTRUMENT_KIT_ITEM>
                        <INSTRUMENT_KIT_ITEM id="5">
                          <par_bool value="no" name="enabled"/>
                        </INSTRUMENT_KIT_ITEM>
                        <INSTRUMENT_KIT_ITEM id="6">
                          <par_bool value="no" name="enabled"/>
                        </INSTRUMENT_KIT_ITEM>
                        <INSTRUMENT_KIT_ITEM id="7">
                          <par_bool value="no" name="enabled"/>
                        </INSTRUMENT_KIT_ITEM>
                        <INSTRUMENT_KIT_ITEM id="8">
                          <par_bool value="no" name="enabled"/>
                        </INSTRUMENT_KIT_ITEM>
                        <INSTRUMENT_KIT_ITEM id="9">
                          <par_bool value="no" name="enabled"/>
                        </INSTRUMENT_KIT_ITEM>
                        <INSTRUMENT_KIT_ITEM id="10">
                          <par_bool value="no" name="enabled"/>
                        </INSTRUMENT_KIT_ITEM>
                        <INSTRUMENT_KIT_ITEM id="11">
                          <par_bool value="no" name="enabled"/>
                        </INSTRUMENT_KIT_ITEM>
                        <INSTRUMENT_KIT_ITEM id="12">
                          <par_bool value="no" name="enabled"/>
                        </INSTRUMENT_KIT_ITEM>
                        <INSTRUMENT_KIT_ITEM id="13">
                          <par_bool value="no" name="enabled"/>
                        </INSTRUMENT_KIT_ITEM>
                        <INSTRUMENT_KIT_ITEM id="14">
                          <par_bool value="no" name="enabled"/>
                        </INSTRUMENT_KIT_ITEM>
                        <INSTRUMENT_KIT_ITEM id="15">
                          <par_bool value="no" name="enabled"/>
                        </INSTRUMENT_KIT_ITEM>
                      </INSTRUMENT_KIT>
                      <INSTRUMENT_EFFECTS>
                        <INSTRUMENT_EFFECT id="0">
                          <EFFECT>
                            <par value="1" name="type"/>
                            <par value="0" name="preset"/>
                            <EFFECT_PARAMETERS>
                              <par_no id="0">
                                <par value="40" name="par"/>
                              </par_no>
                              <par_no id="1">
                                <par value="64" name="par"/>
                              </par_no>
                              <par_no id="2">
                                <par value="36" name="par"/>
                              </par_no>
                              <par_no id="3">
                                <par value="24" name="par"/>
                              </par_no>
                              <par_no id="7">
                                <par value="85" name="par"/>
                              </par_no>
                              <par_no id="8">
                                <par value="5" name="par"/>
                              </par_no>
                              <par_no id="9">
                                <par value="83" name="par"/>
                              </par_no>
                              <par_no id="10">
                                <par value="1" name="par"/>
                              </par_no>
                              <par_no id="11">
                                <par value="64" name="par"/>
                              </par_no>
                              <par_no id="12">
                                <par value="20" name="par"/>
                              </par_no>
                            </EFFECT_PARAMETERS>
                          </EFFECT>
                          <par value="0" name="route"/>
                          <par_bool value="no" name="bypass"/>
                        </INSTRUMENT_EFFECT>
                        <INSTRUMENT_EFFECT id="1">
                          <EFFECT>
                            <par value="0" name="type"/>
                          </EFFECT>
                          <par value="0" name="route"/>
                          <par_bool value="no" name="bypass"/>
                        </INSTRUMENT_EFFECT>
                        <INSTRUMENT_EFFECT id="2">
                          <EFFECT>
                            <par value="0" name="type"/>
                          </EFFECT>
                          <par value="0" name="route"/>
                          <par_bool value="no" name="bypass"/>
                        </INSTRUMENT_EFFECT>
                      </INSTRUMENT_EFFECTS>
                    </INSTRUMENT>
                    <CONTROLLER>
                      <par value="100" name="pitchwheel_bendrange"/>
                      <par_bool value="yes" name="expression_receive"/>
                      <par value="64" name="panning_depth"/>
                      <par value="64" name="filter_cutoff_depth"/>
                      <par value="64" name="filter_q_depth"/>
                      <par value="64" name="bandwidth_depth"/>
                      <par value="80" name="mod_wheel_depth"/>
                      <par_bool value="no" name="mod_wheel_exponential"/>
                      <par_bool value="yes" name="fm_amp_receive"/>
                      <par_bool value="yes" name="volume_receive"/>
                      <par_bool value="yes" name="sustain_receive"/>
                      <par_bool value="yes" name="portamento_receive"/>
                      <par value="64" name="portamento_time"/>
                      <par value="3" name="portamento_pitchthresh"/>
                      <par value="1" name="portamento_pitchthreshtype"/>
                      <par value="0" name="portamento_portamento"/>
                      <par value="64" name="portamento_updowntimestretch"/>
                      <par value="0" name="portamento_proportional"/>
                      <par value="80" name="portamento_proprate"/>
                      <par value="90" name="portamento_propdepth"/>
                      <par value="64" name="resonance_center_depth"/>
                      <par value="64" name="resonance_bandwidth_depth"/>
                    </CONTROLLER>
                  </PART>
                  <PART id="1">
                    <par_bool value="no" name="enabled"/>
                  </PART>
                  <PART id="2">
                    <par_bool value="no" name="enabled"/>
                  </PART>
                  <PART id="3">
                    <par_bool value="no" name="enabled"/>
                  </PART>
                  <PART id="4">
                    <par_bool value="no" name="enabled"/>
                  </PART>
                  <PART id="5">
                    <par_bool value="no" name="enabled"/>
                  </PART>
                  <PART id="6">
                    <par_bool value="no" name="enabled"/>
                  </PART>
                  <PART id="7">
                    <par_bool value="no" name="enabled"/>
                  </PART>
                  <PART id="8">
                    <par_bool value="no" name="enabled"/>
                  </PART>
                  <PART id="9">
                    <par_bool value="no" name="enabled"/>
                  </PART>
                  <PART id="10">
                    <par_bool value="no" name="enabled"/>
                  </PART>
                  <PART id="11">
                    <par_bool value="no" name="enabled"/>
                  </PART>
                  <PART id="12">
                    <par_bool value="no" name="enabled"/>
                  </PART>
                  <PART id="13">
                    <par_bool value="no" name="enabled"/>
                  </PART>
                  <PART id="14">
                    <par_bool value="no" name="enabled"/>
                  </PART>
                  <PART id="15">
                    <par_bool value="no" name="enabled"/>
                  </PART>
                  <SYSTEM_EFFECTS>
                    <SYSTEM_EFFECT id="0">
                      <EFFECT>
                        <par value="0" name="type"/>
                      </EFFECT>
                      <VOLUME id="0">
                        <par value="0" name="vol"/>
                      </VOLUME>
                      <VOLUME id="1">
                        <par value="0" name="vol"/>
                      </VOLUME>
                      <VOLUME id="2">
                        <par value="0" name="vol"/>
                      </VOLUME>
                      <VOLUME id="3">
                        <par value="0" name="vol"/>
                      </VOLUME>
                      <VOLUME id="4">
                        <par value="0" name="vol"/>
                      </VOLUME>
                      <VOLUME id="5">
                        <par value="0" name="vol"/>
                      </VOLUME>
                      <VOLUME id="6">
                        <par value="0" name="vol"/>
                      </VOLUME>
                      <VOLUME id="7">
                        <par value="0" name="vol"/>
                      </VOLUME>
                      <VOLUME id="8">
                        <par value="0" name="vol"/>
                      </VOLUME>
                      <VOLUME id="9">
                        <par value="0" name="vol"/>
                      </VOLUME>
                      <VOLUME id="10">
                        <par value="0" name="vol"/>
                      </VOLUME>
                      <VOLUME id="11">
                        <par value="0" name="vol"/>
                      </VOLUME>
                      <VOLUME id="12">
                        <par value="0" name="vol"/>
                      </VOLUME>
                      <VOLUME id="13">
                        <par value="0" name="vol"/>
                      </VOLUME>
                      <VOLUME id="14">
                        <par value="0" name="vol"/>
                      </VOLUME>
                      <VOLUME id="15">
                        <par value="0" name="vol"/>
                      </VOLUME>
                      <SENDTO id="1">
                        <par value="0" name="send_vol"/>
                      </SENDTO>
                      <SENDTO id="2">
                        <par value="0" name="send_vol"/>
                      </SENDTO>
                      <SENDTO id="3">
                        <par value="0" name="send_vol"/>
                      </SENDTO>
                    </SYSTEM_EFFECT>
                    <SYSTEM_EFFECT id="1">
                      <EFFECT>
                        <par value="0" name="type"/>
                      </EFFECT>
                      <VOLUME id="0">
                        <par value="0" name="vol"/>
                      </VOLUME>
                      <VOLUME id="1">
                        <par value="0" name="vol"/>
                      </VOLUME>
                      <VOLUME id="2">
                        <par value="0" name="vol"/>
                      </VOLUME>
                      <VOLUME id="3">
                        <par value="0" name="vol"/>
                      </VOLUME>
                      <VOLUME id="4">
                        <par value="0" name="vol"/>
                      </VOLUME>
                      <VOLUME id="5">
                        <par value="0" name="vol"/>
                      </VOLUME>
                      <VOLUME id="6">
                        <par value="0" name="vol"/>
                      </VOLUME>
                      <VOLUME id="7">
                        <par value="0" name="vol"/>
                      </VOLUME>
                      <VOLUME id="8">
                        <par value="0" name="vol"/>
                      </VOLUME>
                      <VOLUME id="9">
                        <par value="0" name="vol"/>
                      </VOLUME>
                      <VOLUME id="10">
                        <par value="0" name="vol"/>
                      </VOLUME>
                      <VOLUME id="11">
                        <par value="0" name="vol"/>
                      </VOLUME>
                      <VOLUME id="12">
                        <par value="0" name="vol"/>
                      </VOLUME>
                      <VOLUME id="13">
                        <par value="0" name="vol"/>
                      </VOLUME>
                      <VOLUME id="14">
                        <par value="0" name="vol"/>
                      </VOLUME>
                      <VOLUME id="15">
                        <par value="0" name="vol"/>
                      </VOLUME>
                      <SENDTO id="2">
                        <par value="0" name="send_vol"/>
                      </SENDTO>
                      <SENDTO id="3">
                        <par value="0" name="send_vol"/>
                      </SENDTO>
                    </SYSTEM_EFFECT>
                    <SYSTEM_EFFECT id="2">
                      <EFFECT>
                        <par value="0" name="type"/>
                      </EFFECT>
                      <VOLUME id="0">
                        <par value="0" name="vol"/>
                      </VOLUME>
                      <VOLUME id="1">
                        <par value="0" name="vol"/>
                      </VOLUME>
                      <VOLUME id="2">
                        <par value="0" name="vol"/>
                      </VOLUME>
                      <VOLUME id="3">
                        <par value="0" name="vol"/>
                      </VOLUME>
                      <VOLUME id="4">
                        <par value="0" name="vol"/>
                      </VOLUME>
                      <VOLUME id="5">
                        <par value="0" name="vol"/>
                      </VOLUME>
                      <VOLUME id="6">
                        <par value="0" name="vol"/>
                      </VOLUME>
                      <VOLUME id="7">
                        <par value="0" name="vol"/>
                      </VOLUME>
                      <VOLUME id="8">
                        <par value="0" name="vol"/>
                      </VOLUME>
                      <VOLUME id="9">
                        <par value="0" name="vol"/>
                      </VOLUME>
                      <VOLUME id="10">
                        <par value="0" name="vol"/>
                      </VOLUME>
                      <VOLUME id="11">
                        <par value="0" name="vol"/>
                      </VOLUME>
                      <VOLUME id="12">
                        <par value="0" name="vol"/>
                      </VOLUME>
                      <VOLUME id="13">
                        <par value="0" name="vol"/>
                      </VOLUME>
                      <VOLUME id="14">
                        <par value="0" name="vol"/>
                      </VOLUME>
                      <VOLUME id="15">
                        <par value="0" name="vol"/>
                      </VOLUME>
                      <SENDTO id="3">
                        <par value="0" name="send_vol"/>
                      </SENDTO>
                    </SYSTEM_EFFECT>
                    <SYSTEM_EFFECT id="3">
                      <EFFECT>
                        <par value="0" name="type"/>
                      </EFFECT>
                      <VOLUME id="0">
                        <par value="0" name="vol"/>
                      </VOLUME>
                      <VOLUME id="1">
                        <par value="0" name="vol"/>
                      </VOLUME>
                      <VOLUME id="2">
                        <par value="0" name="vol"/>
                      </VOLUME>
                      <VOLUME id="3">
                        <par value="0" name="vol"/>
                      </VOLUME>
                      <VOLUME id="4">
                        <par value="0" name="vol"/>
                      </VOLUME>
                      <VOLUME id="5">
                        <par value="0" name="vol"/>
                      </VOLUME>
                      <VOLUME id="6">
                        <par value="0" name="vol"/>
                      </VOLUME>
                      <VOLUME id="7">
                        <par value="0" name="vol"/>
                      </VOLUME>
                      <VOLUME id="8">
                        <par value="0" name="vol"/>
                      </VOLUME>
                      <VOLUME id="9">
                        <par value="0" name="vol"/>
                      </VOLUME>
                      <VOLUME id="10">
                        <par value="0" name="vol"/>
                      </VOLUME>
                      <VOLUME id="11">
                        <par value="0" name="vol"/>
                      </VOLUME>
                      <VOLUME id="12">
                        <par value="0" name="vol"/>
                      </VOLUME>
                      <VOLUME id="13">
                        <par value="0" name="vol"/>
                      </VOLUME>
                      <VOLUME id="14">
                        <par value="0" name="vol"/>
                      </VOLUME>
                      <VOLUME id="15">
                        <par value="0" name="vol"/>
                      </VOLUME>
                    </SYSTEM_EFFECT>
                  </SYSTEM_EFFECTS>
                  <INSERTION_EFFECTS>
                    <INSERTION_EFFECT id="0">
                      <par value="-1" name="part"/>
                      <EFFECT>
                        <par value="0" name="type"/>
                      </EFFECT>
                    </INSERTION_EFFECT>
                    <INSERTION_EFFECT id="1">
                      <par value="-1" name="part"/>
                      <EFFECT>
                        <par value="0" name="type"/>
                      </EFFECT>
                    </INSERTION_EFFECT>
                    <INSERTION_EFFECT id="2">
                      <par value="-1" name="part"/>
                      <EFFECT>
                        <par value="0" name="type"/>
                      </EFFECT>
                    </INSERTION_EFFECT>
                    <INSERTION_EFFECT id="3">
                      <par value="-1" name="part"/>
                      <EFFECT>
                        <par value="0" name="type"/>
                      </EFFECT>
                    </INSERTION_EFFECT>
                    <INSERTION_EFFECT id="4">
                      <par value="-1" name="part"/>
                      <EFFECT>
                        <par value="0" name="type"/>
                      </EFFECT>
                    </INSERTION_EFFECT>
                    <INSERTION_EFFECT id="5">
                      <par value="-1" name="part"/>
                      <EFFECT>
                        <par value="0" name="type"/>
                      </EFFECT>
                    </INSERTION_EFFECT>
                    <INSERTION_EFFECT id="6">
                      <par value="-1" name="part"/>
                      <EFFECT>
                        <par value="0" name="type"/>
                      </EFFECT>
                    </INSERTION_EFFECT>
                    <INSERTION_EFFECT id="7">
                      <par value="-1" name="part"/>
                      <EFFECT>
                        <par value="0" name="type"/>
                      </EFFECT>
                    </INSERTION_EFFECT>
                  </INSERTION_EFFECTS>
                </MASTER>
              </ZynAddSubFX-data>
            </zynaddsubfx>
          </instrument>
          <eldata fcut="14000" ftype="0" fres="0.5" fwet="0">
            <elvol lpdel="0" dec="0.5" lamt="0" rel="0.1" userwavefile="" lspd="0.1" x100="0" latt="0" hold="0.5" lshp="0" sustain="0.5" lspd_numerator="4" att="0" lspd_syncmode="0" amt="0" ctlenvamt="0" lspd_denominator="4" pdel="0"/>
            <elcut lpdel="0" dec="0.5" lamt="0" rel="0.1" userwavefile="" lspd="0.1" x100="0" latt="0" hold="0.5" lshp="0" sustain="0.5" lspd_numerator="4" att="0" lspd_syncmode="0" amt="0" ctlenvamt="0" lspd_denominator="4" pdel="0"/>
            <elres lpdel="0" dec="0.5" lamt="0" rel="0.1" userwavefile="" lspd="0.1" x100="0" latt="0" hold="0.5" lshp="0" sustain="0.5" lspd_numerator="4" att="0" lspd_syncmode="0" amt="0" ctlenvamt="0" lspd_denominator="4" pdel="0"/>
          </eldata>
          <chordcreator chordrange="1" chord-enabled="0" chord="0"/>
          <arpeggiator arp-enabled="0" arptime_denominator="4" arpgate="100" arpskip="0" arptime="145" arpmode="1" arpmiss="0" arptime_numerator="4" arptime_syncmode="0" arprange="2" arp="0" arpdir="0" arpcycle="0"/>
          <midiport outputcontroller="0" readable="0" basevelocity="63" writable="0" outputprogram="1" fixedoutputvelocity="-1" fixedoutputnote="-1" outputchannel="1" inputchannel="0" inputcontroller="0" fixedinputvelocity="-1"/>
          <fxchain numofeffects="0" enabled="1"/>
        </instrumenttrack>
        <pattern pos="11136" name="unisaw" muted="0" type="1" steps="16">
          <note vol="195" pos="0" key="80" pan="0" len="384"/>
          <note vol="195" pos="0" key="77" pan="0" len="384"/>
          <note vol="195" pos="0" key="72" pan="0" len="384"/>
          <note vol="195" pos="384" key="80" pan="0" len="384"/>
          <note vol="195" pos="384" key="77" pan="0" len="384"/>
          <note vol="195" pos="384" key="73" pan="0" len="384"/>
        </pattern>
        <pattern pos="1920" name="unisaw" muted="0" type="1" steps="16">
          <note vol="197" pos="0" key="75" pan="0" len="192"/>
          <note vol="197" pos="0" key="72" pan="0" len="192"/>
          <note vol="197" pos="0" key="67" pan="0" len="192"/>
          <note vol="197" pos="192" key="75" pan="0" len="96"/>
          <note vol="197" pos="192" key="70" pan="0" len="96"/>
          <note vol="197" pos="192" key="67" pan="0" len="96"/>
          <note vol="197" pos="288" key="77" pan="0" len="96"/>
          <note vol="197" pos="288" key="72" pan="0" len="96"/>
          <note vol="197" pos="288" key="68" pan="0" len="96"/>
        </pattern>
        <pattern pos="2688" name="unisaw" muted="0" type="1" steps="16">
          <note vol="197" pos="0" key="72" pan="0" len="192"/>
          <note vol="197" pos="0" key="68" pan="0" len="192"/>
          <note vol="197" pos="0" key="65" pan="0" len="192"/>
          <note vol="197" pos="192" key="74" pan="0" len="192"/>
          <note vol="197" pos="192" key="70" pan="0" len="192"/>
          <note vol="197" pos="192" key="65" pan="0" len="192"/>
        </pattern>
        <pattern pos="25344" name="unisaw" muted="0" type="1" steps="16">
          <note vol="197" pos="0" key="77" pan="0" len="384"/>
          <note vol="197" pos="0" key="74" pan="0" len="384"/>
          <note vol="197" pos="0" key="69" pan="0" len="384"/>
          <note vol="197" pos="384" key="77" pan="0" len="144"/>
          <note vol="197" pos="384" key="74" pan="0" len="144"/>
          <note vol="197" pos="384" key="70" pan="0" len="144"/>
          <note vol="197" pos="528" key="79" pan="0" len="240"/>
          <note vol="197" pos="528" key="76" pan="0" len="240"/>
          <note vol="197" pos="528" key="72" pan="0" len="240"/>
        </pattern>
        <pattern pos="26880" name="unisaw" muted="0" type="1" steps="16">
          <note vol="197" pos="0" key="79" pan="0" len="384"/>
          <note vol="197" pos="0" key="76" pan="0" len="384"/>
          <note vol="197" pos="0" key="71" pan="0" len="384"/>
          <note vol="197" pos="384" key="79" pan="0" len="144"/>
          <note vol="197" pos="384" key="76" pan="0" len="144"/>
          <note vol="197" pos="384" key="72" pan="0" len="144"/>
          <note vol="197" pos="528" key="81" pan="0" len="240"/>
          <note vol="197" pos="528" key="78" pan="0" len="240"/>
          <note vol="197" pos="528" key="74" pan="0" len="240"/>
        </pattern>
        <pattern pos="27648" name="unisaw" muted="0" type="1" steps="16">
          <note vol="197" pos="0" key="79" pan="0" len="384"/>
          <note vol="197" pos="0" key="76" pan="0" len="384"/>
          <note vol="197" pos="0" key="71" pan="0" len="384"/>
          <note vol="197" pos="384" key="79" pan="0" len="144"/>
          <note vol="197" pos="384" key="76" pan="0" len="144"/>
          <note vol="197" pos="384" key="72" pan="0" len="144"/>
          <note vol="197" pos="528" key="81" pan="0" len="240"/>
          <note vol="197" pos="528" key="78" pan="0" len="240"/>
          <note vol="197" pos="528" key="74" pan="0" len="240"/>
        </pattern>
        <pattern pos="28416" name="unisaw" muted="0" type="1" steps="16">
          <note vol="197" pos="0" key="79" pan="0" len="384"/>
          <note vol="197" pos="0" key="76" pan="0" len="384"/>
          <note vol="197" pos="0" key="71" pan="0" len="384"/>
          <note vol="197" pos="384" key="79" pan="0" len="144"/>
          <note vol="197" pos="384" key="76" pan="0" len="144"/>
          <note vol="197" pos="384" key="72" pan="0" len="144"/>
          <note vol="197" pos="528" key="81" pan="0" len="240"/>
          <note vol="197" pos="528" key="78" pan="0" len="240"/>
          <note vol="197" pos="528" key="74" pan="0" len="240"/>
        </pattern>
        <pattern pos="29184" name="unisaw" muted="0" type="1" steps="16">
          <note vol="197" pos="0" key="79" pan="0" len="384"/>
          <note vol="197" pos="0" key="76" pan="0" len="384"/>
          <note vol="197" pos="0" key="71" pan="0" len="384"/>
          <note vol="197" pos="384" key="79" pan="0" len="144"/>
          <note vol="197" pos="384" key="76" pan="0" len="144"/>
          <note vol="197" pos="384" key="72" pan="0" len="144"/>
          <note vol="197" pos="528" key="81" pan="0" len="240"/>
          <note vol="197" pos="528" key="78" pan="0" len="240"/>
          <note vol="197" pos="528" key="74" pan="0" len="240"/>
        </pattern>
        <pattern pos="26112" name="unisaw" muted="0" type="1" steps="16">
          <note vol="197" pos="0" key="77" pan="0" len="384"/>
          <note vol="197" pos="0" key="74" pan="0" len="384"/>
          <note vol="197" pos="0" key="69" pan="0" len="384"/>
          <note vol="197" pos="384" key="77" pan="0" len="144"/>
          <note vol="197" pos="384" key="74" pan="0" len="144"/>
          <note vol="197" pos="384" key="70" pan="0" len="144"/>
          <note vol="197" pos="528" key="79" pan="0" len="240"/>
          <note vol="197" pos="528" key="76" pan="0" len="240"/>
          <note vol="197" pos="528" key="72" pan="0" len="240"/>
        </pattern>
        <pattern pos="3456" name="unisaw" muted="0" type="1" steps="16">
          <note vol="197" pos="0" key="75" pan="0" len="192"/>
          <note vol="197" pos="0" key="72" pan="0" len="192"/>
          <note vol="197" pos="0" key="67" pan="0" len="192"/>
          <note vol="197" pos="192" key="75" pan="0" len="96"/>
          <note vol="197" pos="192" key="70" pan="0" len="96"/>
          <note vol="197" pos="192" key="67" pan="0" len="96"/>
          <note vol="197" pos="288" key="77" pan="0" len="96"/>
          <note vol="197" pos="288" key="72" pan="0" len="96"/>
          <note vol="197" pos="288" key="68" pan="0" len="96"/>
        </pattern>
        <pattern pos="4224" name="unisaw" muted="0" type="1" steps="16">
          <note vol="197" pos="0" key="72" pan="0" len="192"/>
          <note vol="197" pos="0" key="68" pan="0" len="192"/>
          <note vol="197" pos="0" key="65" pan="0" len="192"/>
          <note vol="197" pos="192" key="74" pan="0" len="192"/>
          <note vol="197" pos="192" key="70" pan="0" len="192"/>
          <note vol="197" pos="192" key="65" pan="0" len="192"/>
        </pattern>
        <pattern pos="4608" name="unisaw" muted="0" type="1" steps="16">
          <note vol="197" pos="0" key="75" pan="0" len="192"/>
          <note vol="197" pos="0" key="70" pan="0" len="192"/>
          <note vol="197" pos="0" key="67" pan="0" len="192"/>
          <note vol="197" pos="192" key="74" pan="0" len="192"/>
          <note vol="197" pos="192" key="71" pan="0" len="192"/>
          <note vol="197" pos="192" key="67" pan="0" len="192"/>
        </pattern>
        <pattern pos="8064" name="unisaw" muted="0" type="1" steps="16">
          <note vol="170" pos="0" key="67" pan="0" len="384"/>
          <note vol="170" pos="0" key="63" pan="0" len="384"/>
          <note vol="170" pos="0" key="60" pan="0" len="384"/>
          <note vol="170" pos="384" key="68" pan="0" len="144"/>
          <note vol="170" pos="384" key="63" pan="0" len="144"/>
          <note vol="170" pos="384" key="60" pan="0" len="144"/>
          <note vol="170" pos="528" key="70" pan="0" len="240"/>
          <note vol="170" pos="528" key="65" pan="0" len="240"/>
          <note vol="170" pos="528" key="62" pan="0" len="240"/>
        </pattern>
        <pattern pos="8832" name="unisaw" muted="0" type="1" steps="16">
          <note vol="170" pos="0" key="67" pan="0" len="384"/>
          <note vol="170" pos="0" key="63" pan="0" len="384"/>
          <note vol="170" pos="0" key="60" pan="0" len="384"/>
          <note vol="170" pos="384" key="68" pan="0" len="144"/>
          <note vol="170" pos="384" key="63" pan="0" len="144"/>
          <note vol="170" pos="384" key="60" pan="0" len="144"/>
          <note vol="170" pos="528" key="70" pan="0" len="240"/>
          <note vol="170" pos="528" key="65" pan="0" len="240"/>
          <note vol="170" pos="528" key="62" pan="0" len="240"/>
        </pattern>
        <pattern pos="12672" name="unisaw" muted="0" type="1" steps="16">
          <note vol="170" pos="0" key="63" pan="0" len="384"/>
          <note vol="170" pos="0" key="60" pan="0" len="384"/>
          <note vol="170" pos="384" key="68" pan="0" len="384"/>
          <note vol="170" pos="384" key="63" pan="0" len="384"/>
          <note vol="170" pos="768" key="67" pan="0" len="384"/>
          <note vol="170" pos="768" key="63" pan="0" len="384"/>
        </pattern>
        <pattern pos="11904" name="unisaw" muted="0" type="1" steps="16">
          <note vol="195" pos="0" key="80" pan="0" len="384"/>
          <note vol="195" pos="0" key="77" pan="0" len="384"/>
          <note vol="195" pos="0" key="72" pan="0" len="384"/>
          <note vol="195" pos="384" key="80" pan="0" len="384"/>
          <note vol="195" pos="384" key="77" pan="0" len="384"/>
          <note vol="195" pos="384" key="73" pan="0" len="384"/>
        </pattern>
        <pattern pos="15744" name="unisaw" muted="0" type="1" steps="16">
          <note vol="185" pos="0" key="79" pan="0" len="6"/>
          <note vol="185" pos="0" key="75" pan="0" len="6"/>
          <note vol="185" pos="0" key="72" pan="0" len="6"/>
          <note vol="185" pos="12" key="79" pan="0" len="6"/>
          <note vol="185" pos="12" key="75" pan="0" len="6"/>
          <note vol="185" pos="12" key="72" pan="0" len="6"/>
          <note vol="185" pos="24" key="79" pan="0" len="6"/>
          <note vol="185" pos="24" key="75" pan="0" len="6"/>
          <note vol="185" pos="24" key="72" pan="0" len="6"/>
          <note vol="185" pos="36" key="79" pan="0" len="6"/>
          <note vol="185" pos="36" key="75" pan="0" len="6"/>
          <note vol="185" pos="36" key="72" pan="0" len="6"/>
          <note vol="185" pos="48" key="79" pan="0" len="24"/>
          <note vol="185" pos="48" key="75" pan="0" len="24"/>
          <note vol="185" pos="48" key="72" pan="0" len="24"/>
          <note vol="185" pos="72" key="79" pan="0" len="6"/>
          <note vol="185" pos="72" key="75" pan="0" len="6"/>
          <note vol="185" pos="72" key="72" pan="0" len="6"/>
          <note vol="185" pos="84" key="79" pan="0" len="6"/>
          <note vol="185" pos="84" key="75" pan="0" len="6"/>
          <note vol="185" pos="84" key="72" pan="0" len="6"/>
          <note vol="185" pos="96" key="79" pan="0" len="6"/>
          <note vol="185" pos="96" key="75" pan="0" len="6"/>
          <note vol="185" pos="96" key="72" pan="0" len="6"/>
          <note vol="185" pos="108" key="79" pan="0" len="6"/>
          <note vol="185" pos="108" key="75" pan="0" len="6"/>
          <note vol="185" pos="108" key="72" pan="0" len="6"/>
          <note vol="185" pos="120" key="79" pan="0" len="6"/>
          <note vol="185" pos="120" key="75" pan="0" len="6"/>
          <note vol="185" pos="120" key="72" pan="0" len="6"/>
          <note vol="185" pos="132" key="79" pan="0" len="6"/>
          <note vol="185" pos="132" key="75" pan="0" len="6"/>
          <note vol="185" pos="132" key="72" pan="0" len="6"/>
          <note vol="185" pos="144" key="79" pan="0" len="24"/>
          <note vol="185" pos="144" key="75" pan="0" len="24"/>
          <note vol="185" pos="144" key="72" pan="0" len="24"/>
          <note vol="185" pos="168" key="79" pan="0" len="6"/>
          <note vol="185" pos="168" key="75" pan="0" len="6"/>
          <note vol="185" pos="168" key="72" pan="0" len="6"/>
          <note vol="185" pos="180" key="79" pan="0" len="6"/>
          <note vol="185" pos="180" key="75" pan="0" len="6"/>
          <note vol="185" pos="180" key="72" pan="0" len="6"/>
          <note vol="185" pos="192" key="77" pan="0" len="6"/>
          <note vol="185" pos="192" key="74" pan="0" len="6"/>
          <note vol="185" pos="192" key="70" pan="0" len="6"/>
          <note vol="185" pos="204" key="77" pan="0" len="6"/>
          <note vol="185" pos="204" key="74" pan="0" len="6"/>
          <note vol="185" pos="204" key="70" pan="0" len="6"/>
          <note vol="185" pos="216" key="77" pan="0" len="6"/>
          <note vol="185" pos="216" key="74" pan="0" len="6"/>
          <note vol="185" pos="216" key="70" pan="0" len="6"/>
          <note vol="185" pos="228" key="77" pan="0" len="6"/>
          <note vol="185" pos="228" key="74" pan="0" len="6"/>
          <note vol="185" pos="228" key="70" pan="0" len="6"/>
          <note vol="185" pos="240" key="77" pan="0" len="24"/>
          <note vol="185" pos="240" key="74" pan="0" len="24"/>
          <note vol="185" pos="240" key="70" pan="0" len="24"/>
          <note vol="185" pos="264" key="75" pan="0" len="24"/>
          <note vol="185" pos="264" key="72" pan="0" len="24"/>
          <note vol="185" pos="264" key="68" pan="0" len="24"/>
          <note vol="185" pos="288" key="75" pan="0" len="6"/>
          <note vol="185" pos="288" key="72" pan="0" len="6"/>
          <note vol="185" pos="288" key="68" pan="0" len="6"/>
          <note vol="185" pos="300" key="75" pan="0" len="6"/>
          <note vol="185" pos="300" key="72" pan="0" len="6"/>
          <note vol="185" pos="300" key="68" pan="0" len="6"/>
          <note vol="185" pos="312" key="75" pan="0" len="6"/>
          <note vol="185" pos="312" key="72" pan="0" len="6"/>
          <note vol="185" pos="312" key="68" pan="0" len="6"/>
          <note vol="185" pos="324" key="75" pan="0" len="6"/>
          <note vol="185" pos="324" key="72" pan="0" len="6"/>
          <note vol="185" pos="324" key="68" pan="0" len="6"/>
          <note vol="185" pos="336" key="75" pan="0" len="6"/>
          <note vol="185" pos="336" key="72" pan="0" len="6"/>
          <note vol="185" pos="336" key="68" pan="0" len="6"/>
          <note vol="185" pos="348" key="75" pan="0" len="6"/>
          <note vol="185" pos="348" key="72" pan="0" len="6"/>
          <note vol="185" pos="348" key="68" pan="0" len="6"/>
          <note vol="185" pos="360" key="75" pan="0" len="6"/>
          <note vol="185" pos="360" key="72" pan="0" len="6"/>
          <note vol="185" pos="360" key="68" pan="0" len="6"/>
          <note vol="185" pos="372" key="75" pan="0" len="6"/>
          <note vol="185" pos="372" key="72" pan="0" len="6"/>
          <note vol="185" pos="372" key="68" pan="0" len="6"/>
        </pattern>
        <pattern pos="16128" name="unisaw" muted="0" type="1" steps="16">
          <note vol="185" pos="0" key="79" pan="0" len="6"/>
          <note vol="185" pos="0" key="75" pan="0" len="6"/>
          <note vol="185" pos="0" key="70" pan="0" len="6"/>
          <note vol="185" pos="12" key="79" pan="0" len="6"/>
          <note vol="185" pos="12" key="75" pan="0" len="6"/>
          <note vol="185" pos="12" key="70" pan="0" len="6"/>
          <note vol="185" pos="24" key="79" pan="0" len="6"/>
          <note vol="185" pos="24" key="75" pan="0" len="6"/>
          <note vol="185" pos="24" key="70" pan="0" len="6"/>
          <note vol="185" pos="36" key="79" pan="0" len="6"/>
          <note vol="185" pos="36" key="75" pan="0" len="6"/>
          <note vol="185" pos="36" key="70" pan="0" len="6"/>
          <note vol="185" pos="48" key="79" pan="0" len="24"/>
          <note vol="185" pos="48" key="75" pan="0" len="24"/>
          <note vol="185" pos="48" key="70" pan="0" len="24"/>
          <note vol="185" pos="72" key="79" pan="0" len="6"/>
          <note vol="185" pos="72" key="75" pan="0" len="6"/>
          <note vol="185" pos="72" key="70" pan="0" len="6"/>
          <note vol="185" pos="84" key="79" pan="0" len="6"/>
          <note vol="185" pos="84" key="75" pan="0" len="6"/>
          <note vol="185" pos="84" key="70" pan="0" len="6"/>
          <note vol="185" pos="96" key="79" pan="0" len="6"/>
          <note vol="185" pos="96" key="75" pan="0" len="6"/>
          <note vol="185" pos="96" key="70" pan="0" len="6"/>
          <note vol="185" pos="108" key="79" pan="0" len="6"/>
          <note vol="185" pos="108" key="75" pan="0" len="6"/>
          <note vol="185" pos="108" key="70" pan="0" len="6"/>
          <note vol="185" pos="120" key="79" pan="0" len="6"/>
          <note vol="185" pos="120" key="75" pan="0" len="6"/>
          <note vol="185" pos="120" key="70" pan="0" len="6"/>
          <note vol="185" pos="132" key="79" pan="0" len="6"/>
          <note vol="185" pos="132" key="75" pan="0" len="6"/>
          <note vol="185" pos="132" key="70" pan="0" len="6"/>
          <note vol="185" pos="144" key="79" pan="0" len="24"/>
          <note vol="185" pos="144" key="75" pan="0" len="24"/>
          <note vol="185" pos="144" key="70" pan="0" len="24"/>
          <note vol="185" pos="168" key="79" pan="0" len="6"/>
          <note vol="185" pos="168" key="75" pan="0" len="6"/>
          <note vol="185" pos="168" key="70" pan="0" len="6"/>
          <note vol="185" pos="180" key="79" pan="0" len="6"/>
          <note vol="185" pos="180" key="75" pan="0" len="6"/>
          <note vol="185" pos="180" key="70" pan="0" len="6"/>
          <note vol="185" pos="192" key="80" pan="0" len="6"/>
          <note vol="185" pos="192" key="77" pan="0" len="6"/>
          <note vol="185" pos="192" key="72" pan="0" len="6"/>
          <note vol="185" pos="204" key="80" pan="0" len="6"/>
          <note vol="185" pos="204" key="77" pan="0" len="6"/>
          <note vol="185" pos="204" key="72" pan="0" len="6"/>
          <note vol="185" pos="216" key="80" pan="0" len="6"/>
          <note vol="185" pos="216" key="77" pan="0" len="6"/>
          <note vol="185" pos="216" key="72" pan="0" len="6"/>
          <note vol="185" pos="228" key="80" pan="0" len="6"/>
          <note vol="185" pos="228" key="77" pan="0" len="6"/>
          <note vol="185" pos="228" key="72" pan="0" len="6"/>
          <note vol="185" pos="240" key="80" pan="0" len="24"/>
          <note vol="185" pos="240" key="77" pan="0" len="24"/>
          <note vol="185" pos="240" key="72" pan="0" len="24"/>
          <note vol="185" pos="264" key="79" pan="0" len="24"/>
          <note vol="185" pos="264" key="75" pan="0" len="24"/>
          <note vol="185" pos="264" key="72" pan="0" len="24"/>
          <note vol="185" pos="288" key="79" pan="0" len="6"/>
          <note vol="185" pos="288" key="75" pan="0" len="6"/>
          <note vol="185" pos="288" key="72" pan="0" len="6"/>
          <note vol="185" pos="300" key="79" pan="0" len="6"/>
          <note vol="185" pos="300" key="75" pan="0" len="6"/>
          <note vol="185" pos="300" key="72" pan="0" len="6"/>
          <note vol="185" pos="312" key="79" pan="0" len="6"/>
          <note vol="185" pos="312" key="75" pan="0" len="6"/>
          <note vol="185" pos="312" key="72" pan="0" len="6"/>
          <note vol="185" pos="324" key="79" pan="0" len="6"/>
          <note vol="185" pos="324" key="75" pan="0" len="6"/>
          <note vol="185" pos="324" key="72" pan="0" len="6"/>
          <note vol="185" pos="336" key="79" pan="0" len="6"/>
          <note vol="185" pos="336" key="75" pan="0" len="6"/>
          <note vol="185" pos="336" key="72" pan="0" len="6"/>
          <note vol="185" pos="348" key="79" pan="0" len="6"/>
          <note vol="185" pos="348" key="75" pan="0" len="6"/>
          <note vol="185" pos="348" key="72" pan="0" len="6"/>
          <note vol="185" pos="360" key="79" pan="0" len="6"/>
          <note vol="185" pos="360" key="75" pan="0" len="6"/>
          <note vol="185" pos="360" key="72" pan="0" len="6"/>
          <note vol="185" pos="372" key="79" pan="0" len="6"/>
          <note vol="185" pos="372" key="75" pan="0" len="6"/>
          <note vol="185" pos="372" key="72" pan="0" len="6"/>
        </pattern>
        <pattern pos="16512" name="unisaw" muted="0" type="1" steps="16">
          <note vol="185" pos="0" key="79" pan="0" len="6"/>
          <note vol="185" pos="0" key="75" pan="0" len="6"/>
          <note vol="185" pos="0" key="72" pan="0" len="6"/>
          <note vol="185" pos="12" key="79" pan="0" len="6"/>
          <note vol="185" pos="12" key="75" pan="0" len="6"/>
          <note vol="185" pos="12" key="72" pan="0" len="6"/>
          <note vol="185" pos="24" key="79" pan="0" len="6"/>
          <note vol="185" pos="24" key="75" pan="0" len="6"/>
          <note vol="185" pos="24" key="72" pan="0" len="6"/>
          <note vol="185" pos="36" key="79" pan="0" len="6"/>
          <note vol="185" pos="36" key="75" pan="0" len="6"/>
          <note vol="185" pos="36" key="72" pan="0" len="6"/>
          <note vol="185" pos="48" key="79" pan="0" len="24"/>
          <note vol="185" pos="48" key="75" pan="0" len="24"/>
          <note vol="185" pos="48" key="72" pan="0" len="24"/>
          <note vol="185" pos="72" key="79" pan="0" len="6"/>
          <note vol="185" pos="72" key="75" pan="0" len="6"/>
          <note vol="185" pos="72" key="72" pan="0" len="6"/>
          <note vol="185" pos="84" key="79" pan="0" len="6"/>
          <note vol="185" pos="84" key="75" pan="0" len="6"/>
          <note vol="185" pos="84" key="72" pan="0" len="6"/>
          <note vol="185" pos="96" key="79" pan="0" len="6"/>
          <note vol="185" pos="96" key="75" pan="0" len="6"/>
          <note vol="185" pos="96" key="72" pan="0" len="6"/>
          <note vol="185" pos="108" key="79" pan="0" len="6"/>
          <note vol="185" pos="108" key="75" pan="0" len="6"/>
          <note vol="185" pos="108" key="72" pan="0" len="6"/>
          <note vol="185" pos="120" key="79" pan="0" len="6"/>
          <note vol="185" pos="120" key="75" pan="0" len="6"/>
          <note vol="185" pos="120" key="72" pan="0" len="6"/>
          <note vol="185" pos="132" key="79" pan="0" len="6"/>
          <note vol="185" pos="132" key="75" pan="0" len="6"/>
          <note vol="185" pos="132" key="72" pan="0" len="6"/>
          <note vol="185" pos="144" key="79" pan="0" len="24"/>
          <note vol="185" pos="144" key="75" pan="0" len="24"/>
          <note vol="185" pos="144" key="72" pan="0" len="24"/>
          <note vol="185" pos="168" key="79" pan="0" len="6"/>
          <note vol="185" pos="168" key="75" pan="0" len="6"/>
          <note vol="185" pos="168" key="72" pan="0" len="6"/>
          <note vol="185" pos="180" key="79" pan="0" len="6"/>
          <note vol="185" pos="180" key="75" pan="0" len="6"/>
          <note vol="185" pos="180" key="72" pan="0" len="6"/>
          <note vol="185" pos="192" key="82" pan="0" len="6"/>
          <note vol="185" pos="192" key="77" pan="0" len="6"/>
          <note vol="185" pos="192" key="74" pan="0" len="6"/>
          <note vol="185" pos="204" key="82" pan="0" len="6"/>
          <note vol="185" pos="204" key="77" pan="0" len="6"/>
          <note vol="185" pos="204" key="74" pan="0" len="6"/>
          <note vol="185" pos="216" key="82" pan="0" len="6"/>
          <note vol="185" pos="216" key="77" pan="0" len="6"/>
          <note vol="185" pos="216" key="74" pan="0" len="6"/>
          <note vol="185" pos="228" key="82" pan="0" len="6"/>
          <note vol="185" pos="228" key="77" pan="0" len="6"/>
          <note vol="185" pos="228" key="74" pan="0" len="6"/>
          <note vol="185" pos="240" key="82" pan="0" len="24"/>
          <note vol="185" pos="240" key="77" pan="0" len="24"/>
          <note vol="185" pos="240" key="74" pan="0" len="24"/>
          <note vol="185" pos="264" key="84" pan="0" len="24"/>
          <note vol="185" pos="264" key="80" pan="0" len="24"/>
          <note vol="185" pos="264" key="75" pan="0" len="24"/>
          <note vol="185" pos="288" key="84" pan="0" len="6"/>
          <note vol="185" pos="288" key="80" pan="0" len="6"/>
          <note vol="185" pos="288" key="75" pan="0" len="6"/>
          <note vol="185" pos="300" key="84" pan="0" len="6"/>
          <note vol="185" pos="300" key="80" pan="0" len="6"/>
          <note vol="185" pos="300" key="75" pan="0" len="6"/>
          <note vol="185" pos="312" key="84" pan="0" len="6"/>
          <note vol="185" pos="312" key="80" pan="0" len="6"/>
          <note vol="185" pos="312" key="75" pan="0" len="6"/>
          <note vol="185" pos="324" key="84" pan="0" len="6"/>
          <note vol="185" pos="324" key="80" pan="0" len="6"/>
          <note vol="185" pos="324" key="75" pan="0" len="6"/>
          <note vol="185" pos="336" key="84" pan="0" len="6"/>
          <note vol="185" pos="336" key="80" pan="0" len="6"/>
          <note vol="185" pos="336" key="75" pan="0" len="6"/>
          <note vol="185" pos="348" key="84" pan="0" len="6"/>
          <note vol="185" pos="348" key="80" pan="0" len="6"/>
          <note vol="185" pos="348" key="75" pan="0" len="6"/>
          <note vol="185" pos="360" key="84" pan="0" len="6"/>
          <note vol="185" pos="360" key="80" pan="0" len="6"/>
          <note vol="185" pos="360" key="75" pan="0" len="6"/>
          <note vol="185" pos="372" key="84" pan="0" len="6"/>
          <note vol="185" pos="372" key="80" pan="0" len="6"/>
          <note vol="185" pos="372" key="75" pan="0" len="6"/>
        </pattern>
        <pattern pos="16896" name="unisaw" muted="0" type="1" steps="16">
          <note vol="185" pos="0" key="82" pan="0" len="6"/>
          <note vol="185" pos="0" key="79" pan="0" len="6"/>
          <note vol="185" pos="0" key="75" pan="0" len="6"/>
          <note vol="185" pos="12" key="82" pan="0" len="6"/>
          <note vol="185" pos="12" key="79" pan="0" len="6"/>
          <note vol="185" pos="12" key="75" pan="0" len="6"/>
          <note vol="185" pos="24" key="82" pan="0" len="6"/>
          <note vol="185" pos="24" key="79" pan="0" len="6"/>
          <note vol="185" pos="24" key="75" pan="0" len="6"/>
          <note vol="185" pos="36" key="82" pan="0" len="6"/>
          <note vol="185" pos="36" key="79" pan="0" len="6"/>
          <note vol="185" pos="36" key="75" pan="0" len="6"/>
          <note vol="185" pos="48" key="82" pan="0" len="24"/>
          <note vol="185" pos="48" key="79" pan="0" len="24"/>
          <note vol="185" pos="48" key="75" pan="0" len="24"/>
          <note vol="185" pos="72" key="82" pan="0" len="6"/>
          <note vol="185" pos="72" key="79" pan="0" len="6"/>
          <note vol="185" pos="72" key="75" pan="0" len="6"/>
          <note vol="185" pos="84" key="82" pan="0" len="6"/>
          <note vol="185" pos="84" key="79" pan="0" len="6"/>
          <note vol="185" pos="84" key="75" pan="0" len="6"/>
          <note vol="185" pos="96" key="82" pan="0" len="6"/>
          <note vol="185" pos="96" key="79" pan="0" len="6"/>
          <note vol="185" pos="96" key="75" pan="0" len="6"/>
          <note vol="185" pos="108" key="82" pan="0" len="6"/>
          <note vol="185" pos="108" key="79" pan="0" len="6"/>
          <note vol="185" pos="108" key="75" pan="0" len="6"/>
          <note vol="185" pos="120" key="82" pan="0" len="6"/>
          <note vol="185" pos="120" key="79" pan="0" len="6"/>
          <note vol="185" pos="120" key="75" pan="0" len="6"/>
          <note vol="185" pos="132" key="82" pan="0" len="6"/>
          <note vol="185" pos="132" key="79" pan="0" len="6"/>
          <note vol="185" pos="132" key="75" pan="0" len="6"/>
          <note vol="185" pos="144" key="82" pan="0" len="24"/>
          <note vol="185" pos="144" key="79" pan="0" len="24"/>
          <note vol="185" pos="144" key="75" pan="0" len="24"/>
          <note vol="185" pos="168" key="82" pan="0" len="6"/>
          <note vol="185" pos="168" key="79" pan="0" len="6"/>
          <note vol="185" pos="168" key="75" pan="0" len="6"/>
          <note vol="185" pos="180" key="82" pan="0" len="6"/>
          <note vol="185" pos="180" key="79" pan="0" len="6"/>
          <note vol="185" pos="180" key="75" pan="0" len="6"/>
          <note vol="185" pos="192" key="84" pan="0" len="6"/>
          <note vol="185" pos="192" key="80" pan="0" len="6"/>
          <note vol="185" pos="192" key="77" pan="0" len="6"/>
          <note vol="185" pos="204" key="84" pan="0" len="6"/>
          <note vol="185" pos="204" key="80" pan="0" len="6"/>
          <note vol="185" pos="204" key="77" pan="0" len="6"/>
          <note vol="185" pos="216" key="84" pan="0" len="6"/>
          <note vol="185" pos="216" key="80" pan="0" len="6"/>
          <note vol="185" pos="216" key="77" pan="0" len="6"/>
          <note vol="185" pos="228" key="84" pan="0" len="6"/>
          <note vol="185" pos="228" key="80" pan="0" len="6"/>
          <note vol="185" pos="228" key="77" pan="0" len="6"/>
          <note vol="185" pos="240" key="84" pan="0" len="24"/>
          <note vol="185" pos="240" key="80" pan="0" len="24"/>
          <note vol="185" pos="240" key="77" pan="0" len="24"/>
          <note vol="185" pos="264" key="84" pan="0" len="24"/>
          <note vol="185" pos="264" key="79" pan="0" len="24"/>
          <note vol="185" pos="264" key="75" pan="0" len="24"/>
          <note vol="185" pos="288" key="84" pan="0" len="6"/>
          <note vol="185" pos="288" key="79" pan="0" len="6"/>
          <note vol="185" pos="288" key="75" pan="0" len="6"/>
          <note vol="185" pos="300" key="84" pan="0" len="6"/>
          <note vol="185" pos="300" key="79" pan="0" len="6"/>
          <note vol="185" pos="300" key="75" pan="0" len="6"/>
          <note vol="185" pos="312" key="84" pan="0" len="6"/>
          <note vol="185" pos="312" key="79" pan="0" len="6"/>
          <note vol="185" pos="312" key="75" pan="0" len="6"/>
          <note vol="185" pos="324" key="84" pan="0" len="6"/>
          <note vol="185" pos="324" key="79" pan="0" len="6"/>
          <note vol="185" pos="324" key="75" pan="0" len="6"/>
          <note vol="185" pos="336" key="84" pan="0" len="6"/>
          <note vol="185" pos="336" key="79" pan="0" len="6"/>
          <note vol="185" pos="336" key="75" pan="0" len="6"/>
          <note vol="185" pos="348" key="84" pan="0" len="6"/>
          <note vol="185" pos="348" key="79" pan="0" len="6"/>
          <note vol="185" pos="348" key="75" pan="0" len="6"/>
          <note vol="185" pos="360" key="84" pan="0" len="6"/>
          <note vol="185" pos="360" key="79" pan="0" len="6"/>
          <note vol="185" pos="360" key="75" pan="0" len="6"/>
          <note vol="185" pos="372" key="84" pan="0" len="6"/>
          <note vol="185" pos="372" key="79" pan="0" len="6"/>
          <note vol="185" pos="372" key="75" pan="0" len="6"/>
        </pattern>
        <pattern pos="17280" name="unisaw" muted="0" type="1" steps="16">
          <note vol="185" pos="0" key="81" pan="0" len="6"/>
          <note vol="185" pos="0" key="77" pan="0" len="6"/>
          <note vol="185" pos="0" key="74" pan="0" len="6"/>
          <note vol="185" pos="12" key="81" pan="0" len="6"/>
          <note vol="185" pos="12" key="77" pan="0" len="6"/>
          <note vol="185" pos="12" key="74" pan="0" len="6"/>
          <note vol="185" pos="24" key="81" pan="0" len="6"/>
          <note vol="185" pos="24" key="77" pan="0" len="6"/>
          <note vol="185" pos="24" key="74" pan="0" len="6"/>
          <note vol="185" pos="36" key="81" pan="0" len="6"/>
          <note vol="185" pos="36" key="77" pan="0" len="6"/>
          <note vol="185" pos="36" key="74" pan="0" len="6"/>
          <note vol="185" pos="48" key="81" pan="0" len="24"/>
          <note vol="185" pos="48" key="77" pan="0" len="24"/>
          <note vol="185" pos="48" key="74" pan="0" len="24"/>
          <note vol="185" pos="72" key="81" pan="0" len="6"/>
          <note vol="185" pos="72" key="77" pan="0" len="6"/>
          <note vol="185" pos="72" key="74" pan="0" len="6"/>
          <note vol="185" pos="84" key="81" pan="0" len="6"/>
          <note vol="185" pos="84" key="77" pan="0" len="6"/>
          <note vol="185" pos="84" key="74" pan="0" len="6"/>
          <note vol="185" pos="96" key="81" pan="0" len="6"/>
          <note vol="185" pos="96" key="77" pan="0" len="6"/>
          <note vol="185" pos="96" key="74" pan="0" len="6"/>
          <note vol="185" pos="108" key="81" pan="0" len="6"/>
          <note vol="185" pos="108" key="77" pan="0" len="6"/>
          <note vol="185" pos="108" key="74" pan="0" len="6"/>
          <note vol="185" pos="120" key="81" pan="0" len="6"/>
          <note vol="185" pos="120" key="77" pan="0" len="6"/>
          <note vol="185" pos="120" key="74" pan="0" len="6"/>
          <note vol="185" pos="132" key="81" pan="0" len="6"/>
          <note vol="185" pos="132" key="77" pan="0" len="6"/>
          <note vol="185" pos="132" key="74" pan="0" len="6"/>
          <note vol="185" pos="144" key="81" pan="0" len="24"/>
          <note vol="185" pos="144" key="77" pan="0" len="24"/>
          <note vol="185" pos="144" key="74" pan="0" len="24"/>
          <note vol="185" pos="168" key="81" pan="0" len="6"/>
          <note vol="185" pos="168" key="77" pan="0" len="6"/>
          <note vol="185" pos="168" key="74" pan="0" len="6"/>
          <note vol="185" pos="180" key="81" pan="0" len="6"/>
          <note vol="185" pos="180" key="77" pan="0" len="6"/>
          <note vol="185" pos="180" key="74" pan="0" len="6"/>
          <note vol="185" pos="192" key="79" pan="0" len="6"/>
          <note vol="185" pos="192" key="76" pan="0" len="6"/>
          <note vol="185" pos="192" key="72" pan="0" len="6"/>
          <note vol="185" pos="204" key="79" pan="0" len="6"/>
          <note vol="185" pos="204" key="76" pan="0" len="6"/>
          <note vol="185" pos="204" key="72" pan="0" len="6"/>
          <note vol="185" pos="216" key="79" pan="0" len="6"/>
          <note vol="185" pos="216" key="76" pan="0" len="6"/>
          <note vol="185" pos="216" key="72" pan="0" len="6"/>
          <note vol="185" pos="228" key="79" pan="0" len="6"/>
          <note vol="185" pos="228" key="76" pan="0" len="6"/>
          <note vol="185" pos="228" key="72" pan="0" len="6"/>
          <note vol="185" pos="240" key="79" pan="0" len="24"/>
          <note vol="185" pos="240" key="76" pan="0" len="24"/>
          <note vol="185" pos="240" key="72" pan="0" len="24"/>
          <note vol="185" pos="264" key="77" pan="0" len="24"/>
          <note vol="185" pos="264" key="74" pan="0" len="24"/>
          <note vol="185" pos="264" key="70" pan="0" len="24"/>
          <note vol="185" pos="288" key="77" pan="0" len="6"/>
          <note vol="185" pos="288" key="74" pan="0" len="6"/>
          <note vol="185" pos="288" key="70" pan="0" len="6"/>
          <note vol="185" pos="300" key="77" pan="0" len="6"/>
          <note vol="185" pos="300" key="74" pan="0" len="6"/>
          <note vol="185" pos="300" key="70" pan="0" len="6"/>
          <note vol="185" pos="312" key="77" pan="0" len="6"/>
          <note vol="185" pos="312" key="74" pan="0" len="6"/>
          <note vol="185" pos="312" key="70" pan="0" len="6"/>
          <note vol="185" pos="324" key="77" pan="0" len="6"/>
          <note vol="185" pos="324" key="74" pan="0" len="6"/>
          <note vol="185" pos="324" key="70" pan="0" len="6"/>
          <note vol="185" pos="336" key="77" pan="0" len="6"/>
          <note vol="185" pos="336" key="74" pan="0" len="6"/>
          <note vol="185" pos="336" key="70" pan="0" len="6"/>
          <note vol="185" pos="348" key="77" pan="0" len="6"/>
          <note vol="185" pos="348" key="74" pan="0" len="6"/>
          <note vol="185" pos="348" key="70" pan="0" len="6"/>
          <note vol="185" pos="360" key="77" pan="0" len="6"/>
          <note vol="185" pos="360" key="74" pan="0" len="6"/>
          <note vol="185" pos="360" key="70" pan="0" len="6"/>
          <note vol="185" pos="372" key="77" pan="0" len="6"/>
          <note vol="185" pos="372" key="74" pan="0" len="6"/>
          <note vol="185" pos="372" key="70" pan="0" len="6"/>
        </pattern>
        <pattern pos="17664" name="unisaw" muted="0" type="1" steps="16">
          <note vol="185" pos="0" key="81" pan="0" len="6"/>
          <note vol="185" pos="0" key="77" pan="0" len="6"/>
          <note vol="185" pos="0" key="72" pan="0" len="6"/>
          <note vol="185" pos="12" key="81" pan="0" len="6"/>
          <note vol="185" pos="12" key="77" pan="0" len="6"/>
          <note vol="185" pos="12" key="72" pan="0" len="6"/>
          <note vol="185" pos="24" key="81" pan="0" len="6"/>
          <note vol="185" pos="24" key="77" pan="0" len="6"/>
          <note vol="185" pos="24" key="72" pan="0" len="6"/>
          <note vol="185" pos="36" key="81" pan="0" len="6"/>
          <note vol="185" pos="36" key="77" pan="0" len="6"/>
          <note vol="185" pos="36" key="72" pan="0" len="6"/>
          <note vol="185" pos="48" key="81" pan="0" len="24"/>
          <note vol="185" pos="48" key="77" pan="0" len="24"/>
          <note vol="185" pos="48" key="72" pan="0" len="24"/>
          <note vol="185" pos="72" key="81" pan="0" len="6"/>
          <note vol="185" pos="72" key="77" pan="0" len="6"/>
          <note vol="185" pos="72" key="72" pan="0" len="6"/>
          <note vol="185" pos="84" key="81" pan="0" len="6"/>
          <note vol="185" pos="84" key="77" pan="0" len="6"/>
          <note vol="185" pos="84" key="72" pan="0" len="6"/>
          <note vol="185" pos="96" key="81" pan="0" len="6"/>
          <note vol="185" pos="96" key="77" pan="0" len="6"/>
          <note vol="185" pos="96" key="72" pan="0" len="6"/>
          <note vol="185" pos="108" key="81" pan="0" len="6"/>
          <note vol="185" pos="108" key="77" pan="0" len="6"/>
          <note vol="185" pos="108" key="72" pan="0" len="6"/>
          <note vol="185" pos="120" key="81" pan="0" len="6"/>
          <note vol="185" pos="120" key="77" pan="0" len="6"/>
          <note vol="185" pos="120" key="72" pan="0" len="6"/>
          <note vol="185" pos="132" key="81" pan="0" len="6"/>
          <note vol="185" pos="132" key="77" pan="0" len="6"/>
          <note vol="185" pos="132" key="72" pan="0" len="6"/>
          <note vol="185" pos="144" key="81" pan="0" len="24"/>
          <note vol="185" pos="144" key="77" pan="0" len="24"/>
          <note vol="185" pos="144" key="72" pan="0" len="24"/>
          <note vol="185" pos="168" key="81" pan="0" len="6"/>
          <note vol="185" pos="168" key="77" pan="0" len="6"/>
          <note vol="185" pos="168" key="72" pan="0" len="6"/>
          <note vol="185" pos="180" key="81" pan="0" len="6"/>
          <note vol="185" pos="180" key="77" pan="0" len="6"/>
          <note vol="185" pos="180" key="72" pan="0" len="6"/>
          <note vol="185" pos="192" key="82" pan="0" len="6"/>
          <note vol="185" pos="192" key="79" pan="0" len="6"/>
          <note vol="185" pos="192" key="74" pan="0" len="6"/>
          <note vol="185" pos="204" key="82" pan="0" len="6"/>
          <note vol="185" pos="204" key="79" pan="0" len="6"/>
          <note vol="185" pos="204" key="74" pan="0" len="6"/>
          <note vol="185" pos="216" key="82" pan="0" len="6"/>
          <note vol="185" pos="216" key="79" pan="0" len="6"/>
          <note vol="185" pos="216" key="74" pan="0" len="6"/>
          <note vol="185" pos="228" key="82" pan="0" len="6"/>
          <note vol="185" pos="228" key="79" pan="0" len="6"/>
          <note vol="185" pos="228" key="74" pan="0" len="6"/>
          <note vol="185" pos="240" key="82" pan="0" len="24"/>
          <note vol="185" pos="240" key="79" pan="0" len="24"/>
          <note vol="185" pos="240" key="74" pan="0" len="24"/>
          <note vol="185" pos="264" key="81" pan="0" len="24"/>
          <note vol="185" pos="264" key="77" pan="0" len="24"/>
          <note vol="185" pos="264" key="74" pan="0" len="24"/>
          <note vol="185" pos="288" key="81" pan="0" len="6"/>
          <note vol="185" pos="288" key="77" pan="0" len="6"/>
          <note vol="185" pos="288" key="74" pan="0" len="6"/>
          <note vol="185" pos="300" key="81" pan="0" len="6"/>
          <note vol="185" pos="300" key="77" pan="0" len="6"/>
          <note vol="185" pos="300" key="74" pan="0" len="6"/>
          <note vol="185" pos="312" key="81" pan="0" len="6"/>
          <note vol="185" pos="312" key="77" pan="0" len="6"/>
          <note vol="185" pos="312" key="74" pan="0" len="6"/>
          <note vol="185" pos="324" key="81" pan="0" len="6"/>
          <note vol="185" pos="324" key="77" pan="0" len="6"/>
          <note vol="185" pos="324" key="74" pan="0" len="6"/>
          <note vol="185" pos="336" key="81" pan="0" len="6"/>
          <note vol="185" pos="336" key="77" pan="0" len="6"/>
          <note vol="185" pos="336" key="74" pan="0" len="6"/>
          <note vol="185" pos="348" key="81" pan="0" len="6"/>
          <note vol="185" pos="348" key="77" pan="0" len="6"/>
          <note vol="185" pos="348" key="74" pan="0" len="6"/>
          <note vol="185" pos="360" key="81" pan="0" len="6"/>
          <note vol="185" pos="360" key="77" pan="0" len="6"/>
          <note vol="185" pos="360" key="74" pan="0" len="6"/>
          <note vol="185" pos="372" key="81" pan="0" len="6"/>
          <note vol="185" pos="372" key="77" pan="0" len="6"/>
          <note vol="185" pos="372" key="74" pan="0" len="6"/>
        </pattern>
        <pattern pos="18048" name="unisaw" muted="0" type="1" steps="16">
          <note vol="185" pos="0" key="81" pan="0" len="6"/>
          <note vol="185" pos="0" key="77" pan="0" len="6"/>
          <note vol="185" pos="0" key="74" pan="0" len="6"/>
          <note vol="185" pos="12" key="81" pan="0" len="6"/>
          <note vol="185" pos="12" key="77" pan="0" len="6"/>
          <note vol="185" pos="12" key="74" pan="0" len="6"/>
          <note vol="185" pos="24" key="81" pan="0" len="6"/>
          <note vol="185" pos="24" key="77" pan="0" len="6"/>
          <note vol="185" pos="24" key="74" pan="0" len="6"/>
          <note vol="185" pos="36" key="81" pan="0" len="6"/>
          <note vol="185" pos="36" key="77" pan="0" len="6"/>
          <note vol="185" pos="36" key="74" pan="0" len="6"/>
          <note vol="185" pos="48" key="81" pan="0" len="24"/>
          <note vol="185" pos="48" key="77" pan="0" len="24"/>
          <note vol="185" pos="48" key="74" pan="0" len="24"/>
          <note vol="185" pos="72" key="81" pan="0" len="6"/>
          <note vol="185" pos="72" key="77" pan="0" len="6"/>
          <note vol="185" pos="72" key="74" pan="0" len="6"/>
          <note vol="185" pos="84" key="81" pan="0" len="6"/>
          <note vol="185" pos="84" key="77" pan="0" len="6"/>
          <note vol="185" pos="84" key="74" pan="0" len="6"/>
          <note vol="185" pos="96" key="81" pan="0" len="6"/>
          <note vol="185" pos="96" key="77" pan="0" len="6"/>
          <note vol="185" pos="96" key="74" pan="0" len="6"/>
          <note vol="185" pos="108" key="81" pan="0" len="6"/>
          <note vol="185" pos="108" key="77" pan="0" len="6"/>
          <note vol="185" pos="108" key="74" pan="0" len="6"/>
          <note vol="185" pos="120" key="81" pan="0" len="6"/>
          <note vol="185" pos="120" key="77" pan="0" len="6"/>
          <note vol="185" pos="120" key="74" pan="0" len="6"/>
          <note vol="185" pos="132" key="81" pan="0" len="6"/>
          <note vol="185" pos="132" key="77" pan="0" len="6"/>
          <note vol="185" pos="132" key="74" pan="0" len="6"/>
          <note vol="185" pos="144" key="81" pan="0" len="24"/>
          <note vol="185" pos="144" key="77" pan="0" len="24"/>
          <note vol="185" pos="144" key="74" pan="0" len="24"/>
          <note vol="185" pos="168" key="81" pan="0" len="6"/>
          <note vol="185" pos="168" key="77" pan="0" len="6"/>
          <note vol="185" pos="168" key="74" pan="0" len="6"/>
          <note vol="185" pos="180" key="81" pan="0" len="6"/>
          <note vol="185" pos="180" key="77" pan="0" len="6"/>
          <note vol="185" pos="180" key="74" pan="0" len="6"/>
          <note vol="185" pos="192" key="84" pan="0" len="6"/>
          <note vol="185" pos="192" key="79" pan="0" len="6"/>
          <note vol="185" pos="192" key="76" pan="0" len="6"/>
          <note vol="185" pos="204" key="84" pan="0" len="6"/>
          <note vol="185" pos="204" key="79" pan="0" len="6"/>
          <note vol="185" pos="204" key="76" pan="0" len="6"/>
          <note vol="185" pos="216" key="84" pan="0" len="6"/>
          <note vol="185" pos="216" key="79" pan="0" len="6"/>
          <note vol="185" pos="216" key="76" pan="0" len="6"/>
          <note vol="185" pos="228" key="84" pan="0" len="6"/>
          <note vol="185" pos="228" key="79" pan="0" len="6"/>
          <note vol="185" pos="228" key="76" pan="0" len="6"/>
          <note vol="185" pos="240" key="84" pan="0" len="24"/>
          <note vol="185" pos="240" key="79" pan="0" len="24"/>
          <note vol="185" pos="240" key="76" pan="0" len="24"/>
          <note vol="185" pos="264" key="86" pan="0" len="24"/>
          <note vol="185" pos="264" key="82" pan="0" len="24"/>
          <note vol="185" pos="264" key="77" pan="0" len="24"/>
          <note vol="185" pos="288" key="86" pan="0" len="6"/>
          <note vol="185" pos="288" key="82" pan="0" len="6"/>
          <note vol="185" pos="288" key="77" pan="0" len="6"/>
          <note vol="185" pos="300" key="86" pan="0" len="6"/>
          <note vol="185" pos="300" key="82" pan="0" len="6"/>
          <note vol="185" pos="300" key="77" pan="0" len="6"/>
          <note vol="185" pos="312" key="86" pan="0" len="6"/>
          <note vol="185" pos="312" key="82" pan="0" len="6"/>
          <note vol="185" pos="312" key="77" pan="0" len="6"/>
          <note vol="185" pos="324" key="86" pan="0" len="6"/>
          <note vol="185" pos="324" key="82" pan="0" len="6"/>
          <note vol="185" pos="324" key="77" pan="0" len="6"/>
          <note vol="185" pos="336" key="86" pan="0" len="6"/>
          <note vol="185" pos="336" key="82" pan="0" len="6"/>
          <note vol="185" pos="336" key="77" pan="0" len="6"/>
          <note vol="185" pos="348" key="86" pan="0" len="6"/>
          <note vol="185" pos="348" key="82" pan="0" len="6"/>
          <note vol="185" pos="348" key="77" pan="0" len="6"/>
          <note vol="185" pos="360" key="86" pan="0" len="6"/>
          <note vol="185" pos="360" key="82" pan="0" len="6"/>
          <note vol="185" pos="360" key="77" pan="0" len="6"/>
          <note vol="185" pos="372" key="86" pan="0" len="6"/>
          <note vol="185" pos="372" key="82" pan="0" len="6"/>
          <note vol="185" pos="372" key="77" pan="0" len="6"/>
        </pattern>
        <pattern pos="18432" name="unisaw" muted="0" type="1" steps="16">
          <note vol="185" pos="0" key="84" pan="0" len="6"/>
          <note vol="185" pos="0" key="81" pan="0" len="6"/>
          <note vol="185" pos="0" key="77" pan="0" len="6"/>
          <note vol="185" pos="12" key="84" pan="0" len="6"/>
          <note vol="185" pos="12" key="81" pan="0" len="6"/>
          <note vol="185" pos="12" key="77" pan="0" len="6"/>
          <note vol="185" pos="24" key="84" pan="0" len="6"/>
          <note vol="185" pos="24" key="81" pan="0" len="6"/>
          <note vol="185" pos="24" key="77" pan="0" len="6"/>
          <note vol="185" pos="36" key="84" pan="0" len="6"/>
          <note vol="185" pos="36" key="81" pan="0" len="6"/>
          <note vol="185" pos="36" key="77" pan="0" len="6"/>
          <note vol="185" pos="48" key="84" pan="0" len="24"/>
          <note vol="185" pos="48" key="81" pan="0" len="24"/>
          <note vol="185" pos="48" key="77" pan="0" len="24"/>
          <note vol="185" pos="72" key="84" pan="0" len="6"/>
          <note vol="185" pos="72" key="81" pan="0" len="6"/>
          <note vol="185" pos="72" key="77" pan="0" len="6"/>
          <note vol="185" pos="84" key="84" pan="0" len="6"/>
          <note vol="185" pos="84" key="81" pan="0" len="6"/>
          <note vol="185" pos="84" key="77" pan="0" len="6"/>
          <note vol="185" pos="96" key="84" pan="0" len="6"/>
          <note vol="185" pos="96" key="81" pan="0" len="6"/>
          <note vol="185" pos="96" key="77" pan="0" len="6"/>
          <note vol="185" pos="108" key="84" pan="0" len="6"/>
          <note vol="185" pos="108" key="81" pan="0" len="6"/>
          <note vol="185" pos="108" key="77" pan="0" len="6"/>
          <note vol="185" pos="120" key="84" pan="0" len="6"/>
          <note vol="185" pos="120" key="81" pan="0" len="6"/>
          <note vol="185" pos="120" key="77" pan="0" len="6"/>
          <note vol="185" pos="132" key="84" pan="0" len="6"/>
          <note vol="185" pos="132" key="81" pan="0" len="6"/>
          <note vol="185" pos="132" key="77" pan="0" len="6"/>
          <note vol="185" pos="144" key="84" pan="0" len="24"/>
          <note vol="185" pos="144" key="81" pan="0" len="24"/>
          <note vol="185" pos="144" key="77" pan="0" len="24"/>
          <note vol="185" pos="168" key="84" pan="0" len="6"/>
          <note vol="185" pos="168" key="81" pan="0" len="6"/>
          <note vol="185" pos="168" key="77" pan="0" len="6"/>
          <note vol="185" pos="180" key="84" pan="0" len="6"/>
          <note vol="185" pos="180" key="81" pan="0" len="6"/>
          <note vol="185" pos="180" key="77" pan="0" len="6"/>
          <note vol="185" pos="192" key="86" pan="0" len="6"/>
          <note vol="185" pos="192" key="82" pan="0" len="6"/>
          <note vol="185" pos="192" key="79" pan="0" len="6"/>
          <note vol="185" pos="204" key="86" pan="0" len="6"/>
          <note vol="185" pos="204" key="82" pan="0" len="6"/>
          <note vol="185" pos="204" key="79" pan="0" len="6"/>
          <note vol="185" pos="216" key="86" pan="0" len="6"/>
          <note vol="185" pos="216" key="82" pan="0" len="6"/>
          <note vol="185" pos="216" key="79" pan="0" len="6"/>
          <note vol="185" pos="228" key="86" pan="0" len="6"/>
          <note vol="185" pos="228" key="82" pan="0" len="6"/>
          <note vol="185" pos="228" key="79" pan="0" len="6"/>
          <note vol="185" pos="240" key="86" pan="0" len="24"/>
          <note vol="185" pos="240" key="82" pan="0" len="24"/>
          <note vol="185" pos="240" key="79" pan="0" len="24"/>
          <note vol="185" pos="264" key="86" pan="0" len="24"/>
          <note vol="185" pos="264" key="81" pan="0" len="24"/>
          <note vol="185" pos="264" key="77" pan="0" len="24"/>
          <note vol="185" pos="288" key="86" pan="0" len="6"/>
          <note vol="185" pos="288" key="81" pan="0" len="6"/>
          <note vol="185" pos="288" key="77" pan="0" len="6"/>
          <note vol="185" pos="300" key="86" pan="0" len="6"/>
          <note vol="185" pos="300" key="81" pan="0" len="6"/>
          <note vol="185" pos="300" key="77" pan="0" len="6"/>
          <note vol="185" pos="312" key="86" pan="0" len="6"/>
          <note vol="185" pos="312" key="81" pan="0" len="6"/>
          <note vol="185" pos="312" key="77" pan="0" len="6"/>
          <note vol="185" pos="324" key="86" pan="0" len="6"/>
          <note vol="185" pos="324" key="81" pan="0" len="6"/>
          <note vol="185" pos="324" key="77" pan="0" len="6"/>
          <note vol="185" pos="336" key="86" pan="0" len="6"/>
          <note vol="185" pos="336" key="81" pan="0" len="6"/>
          <note vol="185" pos="336" key="77" pan="0" len="6"/>
          <note vol="185" pos="348" key="86" pan="0" len="6"/>
          <note vol="185" pos="348" key="81" pan="0" len="6"/>
          <note vol="185" pos="348" key="77" pan="0" len="6"/>
          <note vol="185" pos="360" key="86" pan="0" len="6"/>
          <note vol="185" pos="360" key="81" pan="0" len="6"/>
          <note vol="185" pos="360" key="77" pan="0" len="6"/>
          <note vol="185" pos="372" key="86" pan="0" len="6"/>
          <note vol="185" pos="372" key="81" pan="0" len="6"/>
          <note vol="185" pos="372" key="77" pan="0" len="6"/>
        </pattern>
        <pattern pos="18816" name="unisaw" muted="0" type="1" steps="16">
          <note vol="185" pos="0" key="81" pan="0" len="6"/>
          <note vol="185" pos="0" key="77" pan="0" len="6"/>
          <note vol="185" pos="0" key="74" pan="0" len="6"/>
          <note vol="185" pos="12" key="81" pan="0" len="6"/>
          <note vol="185" pos="12" key="77" pan="0" len="6"/>
          <note vol="185" pos="12" key="74" pan="0" len="6"/>
          <note vol="185" pos="24" key="81" pan="0" len="6"/>
          <note vol="185" pos="24" key="77" pan="0" len="6"/>
          <note vol="185" pos="24" key="74" pan="0" len="6"/>
          <note vol="185" pos="36" key="81" pan="0" len="6"/>
          <note vol="185" pos="36" key="77" pan="0" len="6"/>
          <note vol="185" pos="36" key="74" pan="0" len="6"/>
          <note vol="185" pos="48" key="81" pan="0" len="24"/>
          <note vol="185" pos="48" key="77" pan="0" len="24"/>
          <note vol="185" pos="48" key="74" pan="0" len="24"/>
          <note vol="185" pos="72" key="81" pan="0" len="6"/>
          <note vol="185" pos="72" key="77" pan="0" len="6"/>
          <note vol="185" pos="72" key="74" pan="0" len="6"/>
          <note vol="185" pos="84" key="81" pan="0" len="6"/>
          <note vol="185" pos="84" key="77" pan="0" len="6"/>
          <note vol="185" pos="84" key="74" pan="0" len="6"/>
          <note vol="185" pos="96" key="81" pan="0" len="6"/>
          <note vol="185" pos="96" key="77" pan="0" len="6"/>
          <note vol="185" pos="96" key="74" pan="0" len="6"/>
          <note vol="185" pos="108" key="81" pan="0" len="6"/>
          <note vol="185" pos="108" key="77" pan="0" len="6"/>
          <note vol="185" pos="108" key="74" pan="0" len="6"/>
          <note vol="185" pos="120" key="81" pan="0" len="6"/>
          <note vol="185" pos="120" key="77" pan="0" len="6"/>
          <note vol="185" pos="120" key="74" pan="0" len="6"/>
          <note vol="185" pos="132" key="81" pan="0" len="6"/>
          <note vol="185" pos="132" key="77" pan="0" len="6"/>
          <note vol="185" pos="132" key="74" pan="0" len="6"/>
          <note vol="185" pos="144" key="81" pan="0" len="24"/>
          <note vol="185" pos="144" key="77" pan="0" len="24"/>
          <note vol="185" pos="144" key="74" pan="0" len="24"/>
          <note vol="185" pos="168" key="81" pan="0" len="6"/>
          <note vol="185" pos="168" key="77" pan="0" len="6"/>
          <note vol="185" pos="168" key="74" pan="0" len="6"/>
          <note vol="185" pos="180" key="81" pan="0" len="6"/>
          <note vol="185" pos="180" key="77" pan="0" len="6"/>
          <note vol="185" pos="180" key="74" pan="0" len="6"/>
          <note vol="185" pos="192" key="79" pan="0" len="6"/>
          <note vol="185" pos="192" key="76" pan="0" len="6"/>
          <note vol="185" pos="192" key="72" pan="0" len="6"/>
          <note vol="185" pos="204" key="79" pan="0" len="6"/>
          <note vol="185" pos="204" key="76" pan="0" len="6"/>
          <note vol="185" pos="204" key="72" pan="0" len="6"/>
          <note vol="185" pos="216" key="79" pan="0" len="6"/>
          <note vol="185" pos="216" key="76" pan="0" len="6"/>
          <note vol="185" pos="216" key="72" pan="0" len="6"/>
          <note vol="185" pos="228" key="79" pan="0" len="6"/>
          <note vol="185" pos="228" key="76" pan="0" len="6"/>
          <note vol="185" pos="228" key="72" pan="0" len="6"/>
          <note vol="185" pos="240" key="79" pan="0" len="24"/>
          <note vol="185" pos="240" key="76" pan="0" len="24"/>
          <note vol="185" pos="240" key="72" pan="0" len="24"/>
          <note vol="185" pos="264" key="77" pan="0" len="24"/>
          <note vol="185" pos="264" key="74" pan="0" len="24"/>
          <note vol="185" pos="264" key="70" pan="0" len="24"/>
          <note vol="185" pos="288" key="77" pan="0" len="6"/>
          <note vol="185" pos="288" key="74" pan="0" len="6"/>
          <note vol="185" pos="288" key="70" pan="0" len="6"/>
          <note vol="185" pos="300" key="77" pan="0" len="6"/>
          <note vol="185" pos="300" key="74" pan="0" len="6"/>
          <note vol="185" pos="300" key="70" pan="0" len="6"/>
          <note vol="185" pos="312" key="77" pan="0" len="6"/>
          <note vol="185" pos="312" key="74" pan="0" len="6"/>
          <note vol="185" pos="312" key="70" pan="0" len="6"/>
          <note vol="185" pos="324" key="77" pan="0" len="6"/>
          <note vol="185" pos="324" key="74" pan="0" len="6"/>
          <note vol="185" pos="324" key="70" pan="0" len="6"/>
          <note vol="185" pos="336" key="77" pan="0" len="6"/>
          <note vol="185" pos="336" key="74" pan="0" len="6"/>
          <note vol="185" pos="336" key="70" pan="0" len="6"/>
          <note vol="185" pos="348" key="77" pan="0" len="6"/>
          <note vol="185" pos="348" key="74" pan="0" len="6"/>
          <note vol="185" pos="348" key="70" pan="0" len="6"/>
          <note vol="185" pos="360" key="77" pan="0" len="6"/>
          <note vol="185" pos="360" key="74" pan="0" len="6"/>
          <note vol="185" pos="360" key="70" pan="0" len="6"/>
          <note vol="185" pos="372" key="77" pan="0" len="6"/>
          <note vol="185" pos="372" key="74" pan="0" len="6"/>
          <note vol="185" pos="372" key="70" pan="0" len="6"/>
        </pattern>
        <pattern pos="19200" name="unisaw" muted="0" type="1" steps="16">
          <note vol="185" pos="0" key="81" pan="0" len="6"/>
          <note vol="185" pos="0" key="77" pan="0" len="6"/>
          <note vol="185" pos="0" key="72" pan="0" len="6"/>
          <note vol="185" pos="12" key="81" pan="0" len="6"/>
          <note vol="185" pos="12" key="77" pan="0" len="6"/>
          <note vol="185" pos="12" key="72" pan="0" len="6"/>
          <note vol="185" pos="24" key="81" pan="0" len="6"/>
          <note vol="185" pos="24" key="77" pan="0" len="6"/>
          <note vol="185" pos="24" key="72" pan="0" len="6"/>
          <note vol="185" pos="36" key="81" pan="0" len="6"/>
          <note vol="185" pos="36" key="77" pan="0" len="6"/>
          <note vol="185" pos="36" key="72" pan="0" len="6"/>
          <note vol="185" pos="48" key="81" pan="0" len="24"/>
          <note vol="185" pos="48" key="77" pan="0" len="24"/>
          <note vol="185" pos="48" key="72" pan="0" len="24"/>
          <note vol="185" pos="72" key="81" pan="0" len="6"/>
          <note vol="185" pos="72" key="77" pan="0" len="6"/>
          <note vol="185" pos="72" key="72" pan="0" len="6"/>
          <note vol="185" pos="84" key="81" pan="0" len="6"/>
          <note vol="185" pos="84" key="77" pan="0" len="6"/>
          <note vol="185" pos="84" key="72" pan="0" len="6"/>
          <note vol="185" pos="96" key="81" pan="0" len="6"/>
          <note vol="185" pos="96" key="77" pan="0" len="6"/>
          <note vol="185" pos="96" key="72" pan="0" len="6"/>
          <note vol="185" pos="108" key="81" pan="0" len="6"/>
          <note vol="185" pos="108" key="77" pan="0" len="6"/>
          <note vol="185" pos="108" key="72" pan="0" len="6"/>
          <note vol="185" pos="120" key="81" pan="0" len="6"/>
          <note vol="185" pos="120" key="77" pan="0" len="6"/>
          <note vol="185" pos="120" key="72" pan="0" len="6"/>
          <note vol="185" pos="132" key="81" pan="0" len="6"/>
          <note vol="185" pos="132" key="77" pan="0" len="6"/>
          <note vol="185" pos="132" key="72" pan="0" len="6"/>
          <note vol="185" pos="144" key="81" pan="0" len="24"/>
          <note vol="185" pos="144" key="77" pan="0" len="24"/>
          <note vol="185" pos="144" key="72" pan="0" len="24"/>
          <note vol="185" pos="168" key="81" pan="0" len="6"/>
          <note vol="185" pos="168" key="77" pan="0" len="6"/>
          <note vol="185" pos="168" key="72" pan="0" len="6"/>
          <note vol="185" pos="180" key="81" pan="0" len="6"/>
          <note vol="185" pos="180" key="77" pan="0" len="6"/>
          <note vol="185" pos="180" key="72" pan="0" len="6"/>
          <note vol="185" pos="192" key="82" pan="0" len="6"/>
          <note vol="185" pos="192" key="79" pan="0" len="6"/>
          <note vol="185" pos="192" key="74" pan="0" len="6"/>
          <note vol="185" pos="204" key="82" pan="0" len="6"/>
          <note vol="185" pos="204" key="79" pan="0" len="6"/>
          <note vol="185" pos="204" key="74" pan="0" len="6"/>
          <note vol="185" pos="216" key="82" pan="0" len="6"/>
          <note vol="185" pos="216" key="79" pan="0" len="6"/>
          <note vol="185" pos="216" key="74" pan="0" len="6"/>
          <note vol="185" pos="228" key="82" pan="0" len="6"/>
          <note vol="185" pos="228" key="79" pan="0" len="6"/>
          <note vol="185" pos="228" key="74" pan="0" len="6"/>
          <note vol="185" pos="240" key="82" pan="0" len="24"/>
          <note vol="185" pos="240" key="79" pan="0" len="24"/>
          <note vol="185" pos="240" key="74" pan="0" len="24"/>
          <note vol="185" pos="264" key="81" pan="0" len="24"/>
          <note vol="185" pos="264" key="77" pan="0" len="24"/>
          <note vol="185" pos="264" key="74" pan="0" len="24"/>
          <note vol="185" pos="288" key="81" pan="0" len="6"/>
          <note vol="185" pos="288" key="77" pan="0" len="6"/>
          <note vol="185" pos="288" key="74" pan="0" len="6"/>
          <note vol="185" pos="300" key="81" pan="0" len="6"/>
          <note vol="185" pos="300" key="77" pan="0" len="6"/>
          <note vol="185" pos="300" key="74" pan="0" len="6"/>
          <note vol="185" pos="312" key="81" pan="0" len="6"/>
          <note vol="185" pos="312" key="77" pan="0" len="6"/>
          <note vol="185" pos="312" key="74" pan="0" len="6"/>
          <note vol="185" pos="324" key="81" pan="0" len="6"/>
          <note vol="185" pos="324" key="77" pan="0" len="6"/>
          <note vol="185" pos="324" key="74" pan="0" len="6"/>
          <note vol="185" pos="336" key="81" pan="0" len="6"/>
          <note vol="185" pos="336" key="77" pan="0" len="6"/>
          <note vol="185" pos="336" key="74" pan="0" len="6"/>
          <note vol="185" pos="348" key="81" pan="0" len="6"/>
          <note vol="185" pos="348" key="77" pan="0" len="6"/>
          <note vol="185" pos="348" key="74" pan="0" len="6"/>
          <note vol="185" pos="360" key="81" pan="0" len="6"/>
          <note vol="185" pos="360" key="77" pan="0" len="6"/>
          <note vol="185" pos="360" key="74" pan="0" len="6"/>
          <note vol="185" pos="372" key="81" pan="0" len="6"/>
          <note vol="185" pos="372" key="77" pan="0" len="6"/>
          <note vol="185" pos="372" key="74" pan="0" len="6"/>
        </pattern>
        <pattern pos="19584" name="unisaw" muted="0" type="1" steps="16">
          <note vol="185" pos="0" key="81" pan="0" len="6"/>
          <note vol="185" pos="0" key="77" pan="0" len="6"/>
          <note vol="185" pos="0" key="74" pan="0" len="6"/>
          <note vol="185" pos="12" key="81" pan="0" len="6"/>
          <note vol="185" pos="12" key="77" pan="0" len="6"/>
          <note vol="185" pos="12" key="74" pan="0" len="6"/>
          <note vol="185" pos="24" key="81" pan="0" len="6"/>
          <note vol="185" pos="24" key="77" pan="0" len="6"/>
          <note vol="185" pos="24" key="74" pan="0" len="6"/>
          <note vol="185" pos="36" key="81" pan="0" len="6"/>
          <note vol="185" pos="36" key="77" pan="0" len="6"/>
          <note vol="185" pos="36" key="74" pan="0" len="6"/>
          <note vol="185" pos="48" key="81" pan="0" len="24"/>
          <note vol="185" pos="48" key="77" pan="0" len="24"/>
          <note vol="185" pos="48" key="74" pan="0" len="24"/>
          <note vol="185" pos="72" key="81" pan="0" len="6"/>
          <note vol="185" pos="72" key="77" pan="0" len="6"/>
          <note vol="185" pos="72" key="74" pan="0" len="6"/>
          <note vol="185" pos="84" key="81" pan="0" len="6"/>
          <note vol="185" pos="84" key="77" pan="0" len="6"/>
          <note vol="185" pos="84" key="74" pan="0" len="6"/>
          <note vol="185" pos="96" key="81" pan="0" len="6"/>
          <note vol="185" pos="96" key="77" pan="0" len="6"/>
          <note vol="185" pos="96" key="74" pan="0" len="6"/>
          <note vol="185" pos="108" key="81" pan="0" len="6"/>
          <note vol="185" pos="108" key="77" pan="0" len="6"/>
          <note vol="185" pos="108" key="74" pan="0" len="6"/>
          <note vol="185" pos="120" key="81" pan="0" len="6"/>
          <note vol="185" pos="120" key="77" pan="0" len="6"/>
          <note vol="185" pos="120" key="74" pan="0" len="6"/>
          <note vol="185" pos="132" key="81" pan="0" len="6"/>
          <note vol="185" pos="132" key="77" pan="0" len="6"/>
          <note vol="185" pos="132" key="74" pan="0" len="6"/>
          <note vol="185" pos="144" key="81" pan="0" len="24"/>
          <note vol="185" pos="144" key="77" pan="0" len="24"/>
          <note vol="185" pos="144" key="74" pan="0" len="24"/>
          <note vol="185" pos="168" key="81" pan="0" len="6"/>
          <note vol="185" pos="168" key="77" pan="0" len="6"/>
          <note vol="185" pos="168" key="74" pan="0" len="6"/>
          <note vol="185" pos="180" key="81" pan="0" len="6"/>
          <note vol="185" pos="180" key="77" pan="0" len="6"/>
          <note vol="185" pos="180" key="74" pan="0" len="6"/>
          <note vol="185" pos="192" key="84" pan="0" len="6"/>
          <note vol="185" pos="192" key="79" pan="0" len="6"/>
          <note vol="185" pos="192" key="76" pan="0" len="6"/>
          <note vol="185" pos="204" key="84" pan="0" len="6"/>
          <note vol="185" pos="204" key="79" pan="0" len="6"/>
          <note vol="185" pos="204" key="76" pan="0" len="6"/>
          <note vol="185" pos="216" key="84" pan="0" len="6"/>
          <note vol="185" pos="216" key="79" pan="0" len="6"/>
          <note vol="185" pos="216" key="76" pan="0" len="6"/>
          <note vol="185" pos="228" key="84" pan="0" len="6"/>
          <note vol="185" pos="228" key="79" pan="0" len="6"/>
          <note vol="185" pos="228" key="76" pan="0" len="6"/>
          <note vol="185" pos="240" key="84" pan="0" len="24"/>
          <note vol="185" pos="240" key="79" pan="0" len="24"/>
          <note vol="185" pos="240" key="76" pan="0" len="24"/>
          <note vol="185" pos="264" key="86" pan="0" len="24"/>
          <note vol="185" pos="264" key="82" pan="0" len="24"/>
          <note vol="185" pos="264" key="77" pan="0" len="24"/>
          <note vol="185" pos="288" key="86" pan="0" len="6"/>
          <note vol="185" pos="288" key="82" pan="0" len="6"/>
          <note vol="185" pos="288" key="77" pan="0" len="6"/>
          <note vol="185" pos="300" key="86" pan="0" len="6"/>
          <note vol="185" pos="300" key="82" pan="0" len="6"/>
          <note vol="185" pos="300" key="77" pan="0" len="6"/>
          <note vol="185" pos="312" key="86" pan="0" len="6"/>
          <note vol="185" pos="312" key="82" pan="0" len="6"/>
          <note vol="185" pos="312" key="77" pan="0" len="6"/>
          <note vol="185" pos="324" key="86" pan="0" len="6"/>
          <note vol="185" pos="324" key="82" pan="0" len="6"/>
          <note vol="185" pos="324" key="77" pan="0" len="6"/>
          <note vol="185" pos="336" key="86" pan="0" len="6"/>
          <note vol="185" pos="336" key="82" pan="0" len="6"/>
          <note vol="185" pos="336" key="77" pan="0" len="6"/>
          <note vol="185" pos="348" key="86" pan="0" len="6"/>
          <note vol="185" pos="348" key="82" pan="0" len="6"/>
          <note vol="185" pos="348" key="77" pan="0" len="6"/>
          <note vol="185" pos="360" key="86" pan="0" len="6"/>
          <note vol="185" pos="360" key="82" pan="0" len="6"/>
          <note vol="185" pos="360" key="77" pan="0" len="6"/>
          <note vol="185" pos="372" key="86" pan="0" len="6"/>
          <note vol="185" pos="372" key="82" pan="0" len="6"/>
          <note vol="185" pos="372" key="77" pan="0" len="6"/>
        </pattern>
        <pattern pos="19968" name="unisaw" muted="0" type="1" steps="16">
          <note vol="185" pos="0" key="84" pan="0" len="6"/>
          <note vol="185" pos="0" key="81" pan="0" len="6"/>
          <note vol="185" pos="0" key="77" pan="0" len="6"/>
          <note vol="185" pos="12" key="84" pan="0" len="6"/>
          <note vol="185" pos="12" key="81" pan="0" len="6"/>
          <note vol="185" pos="12" key="77" pan="0" len="6"/>
          <note vol="185" pos="24" key="84" pan="0" len="6"/>
          <note vol="185" pos="24" key="81" pan="0" len="6"/>
          <note vol="185" pos="24" key="77" pan="0" len="6"/>
          <note vol="185" pos="36" key="84" pan="0" len="6"/>
          <note vol="185" pos="36" key="81" pan="0" len="6"/>
          <note vol="185" pos="36" key="77" pan="0" len="6"/>
          <note vol="185" pos="48" key="84" pan="0" len="24"/>
          <note vol="185" pos="48" key="81" pan="0" len="24"/>
          <note vol="185" pos="48" key="77" pan="0" len="24"/>
          <note vol="185" pos="72" key="84" pan="0" len="6"/>
          <note vol="185" pos="72" key="81" pan="0" len="6"/>
          <note vol="185" pos="72" key="77" pan="0" len="6"/>
          <note vol="185" pos="84" key="84" pan="0" len="6"/>
          <note vol="185" pos="84" key="81" pan="0" len="6"/>
          <note vol="185" pos="84" key="77" pan="0" len="6"/>
          <note vol="185" pos="96" key="84" pan="0" len="6"/>
          <note vol="185" pos="96" key="81" pan="0" len="6"/>
          <note vol="185" pos="96" key="77" pan="0" len="6"/>
          <note vol="185" pos="108" key="84" pan="0" len="6"/>
          <note vol="185" pos="108" key="81" pan="0" len="6"/>
          <note vol="185" pos="108" key="77" pan="0" len="6"/>
          <note vol="185" pos="120" key="84" pan="0" len="6"/>
          <note vol="185" pos="120" key="81" pan="0" len="6"/>
          <note vol="185" pos="120" key="77" pan="0" len="6"/>
          <note vol="185" pos="132" key="84" pan="0" len="6"/>
          <note vol="185" pos="132" key="81" pan="0" len="6"/>
          <note vol="185" pos="132" key="77" pan="0" len="6"/>
          <note vol="185" pos="144" key="84" pan="0" len="24"/>
          <note vol="185" pos="144" key="81" pan="0" len="24"/>
          <note vol="185" pos="144" key="77" pan="0" len="24"/>
          <note vol="185" pos="168" key="84" pan="0" len="6"/>
          <note vol="185" pos="168" key="81" pan="0" len="6"/>
          <note vol="185" pos="168" key="77" pan="0" len="6"/>
          <note vol="185" pos="180" key="84" pan="0" len="6"/>
          <note vol="185" pos="180" key="81" pan="0" len="6"/>
          <note vol="185" pos="180" key="77" pan="0" len="6"/>
          <note vol="185" pos="192" key="86" pan="0" len="6"/>
          <note vol="185" pos="192" key="82" pan="0" len="6"/>
          <note vol="185" pos="192" key="79" pan="0" len="6"/>
          <note vol="185" pos="204" key="86" pan="0" len="6"/>
          <note vol="185" pos="204" key="82" pan="0" len="6"/>
          <note vol="185" pos="204" key="79" pan="0" len="6"/>
          <note vol="185" pos="216" key="86" pan="0" len="6"/>
          <note vol="185" pos="216" key="82" pan="0" len="6"/>
          <note vol="185" pos="216" key="79" pan="0" len="6"/>
          <note vol="185" pos="228" key="86" pan="0" len="6"/>
          <note vol="185" pos="228" key="82" pan="0" len="6"/>
          <note vol="185" pos="228" key="79" pan="0" len="6"/>
          <note vol="185" pos="240" key="86" pan="0" len="24"/>
          <note vol="185" pos="240" key="82" pan="0" len="24"/>
          <note vol="185" pos="240" key="79" pan="0" len="24"/>
          <note vol="185" pos="264" key="86" pan="0" len="24"/>
          <note vol="185" pos="264" key="81" pan="0" len="24"/>
          <note vol="185" pos="264" key="77" pan="0" len="24"/>
          <note vol="185" pos="288" key="86" pan="0" len="6"/>
          <note vol="185" pos="288" key="81" pan="0" len="6"/>
          <note vol="185" pos="288" key="77" pan="0" len="6"/>
          <note vol="185" pos="300" key="86" pan="0" len="6"/>
          <note vol="185" pos="300" key="81" pan="0" len="6"/>
          <note vol="185" pos="300" key="77" pan="0" len="6"/>
          <note vol="185" pos="312" key="86" pan="0" len="6"/>
          <note vol="185" pos="312" key="81" pan="0" len="6"/>
          <note vol="185" pos="312" key="77" pan="0" len="6"/>
          <note vol="185" pos="324" key="86" pan="0" len="6"/>
          <note vol="185" pos="324" key="81" pan="0" len="6"/>
          <note vol="185" pos="324" key="77" pan="0" len="6"/>
          <note vol="185" pos="336" key="86" pan="0" len="6"/>
          <note vol="185" pos="336" key="81" pan="0" len="6"/>
          <note vol="185" pos="336" key="77" pan="0" len="6"/>
          <note vol="185" pos="348" key="86" pan="0" len="6"/>
          <note vol="185" pos="348" key="81" pan="0" len="6"/>
          <note vol="185" pos="348" key="77" pan="0" len="6"/>
          <note vol="185" pos="360" key="86" pan="0" len="6"/>
          <note vol="185" pos="360" key="81" pan="0" len="6"/>
          <note vol="185" pos="360" key="77" pan="0" len="6"/>
          <note vol="185" pos="372" key="86" pan="0" len="6"/>
          <note vol="185" pos="372" key="81" pan="0" len="6"/>
          <note vol="185" pos="372" key="77" pan="0" len="6"/>
        </pattern>
        <pattern pos="20736" name="unisaw" muted="0" type="1" steps="16">
          <note vol="197" pos="0" key="75" pan="0" len="192"/>
          <note vol="197" pos="0" key="72" pan="0" len="192"/>
          <note vol="197" pos="0" key="67" pan="0" len="192"/>
          <note vol="197" pos="192" key="75" pan="0" len="96"/>
          <note vol="197" pos="192" key="70" pan="0" len="96"/>
          <note vol="197" pos="192" key="67" pan="0" len="96"/>
          <note vol="197" pos="288" key="77" pan="0" len="96"/>
          <note vol="197" pos="288" key="72" pan="0" len="96"/>
          <note vol="197" pos="288" key="68" pan="0" len="96"/>
        </pattern>
        <pattern pos="21504" name="unisaw" muted="0" type="1" steps="16">
          <note vol="197" pos="0" key="72" pan="0" len="192"/>
          <note vol="197" pos="0" key="68" pan="0" len="192"/>
          <note vol="197" pos="0" key="65" pan="0" len="192"/>
          <note vol="197" pos="192" key="74" pan="0" len="192"/>
          <note vol="197" pos="192" key="70" pan="0" len="192"/>
          <note vol="197" pos="192" key="65" pan="0" len="192"/>
        </pattern>
        <pattern pos="22272" name="unisaw" muted="0" type="1" steps="16">
          <note vol="197" pos="0" key="75" pan="0" len="192"/>
          <note vol="197" pos="0" key="72" pan="0" len="192"/>
          <note vol="197" pos="0" key="67" pan="0" len="192"/>
          <note vol="197" pos="192" key="75" pan="0" len="96"/>
          <note vol="197" pos="192" key="70" pan="0" len="96"/>
          <note vol="197" pos="192" key="67" pan="0" len="96"/>
          <note vol="197" pos="288" key="77" pan="0" len="96"/>
          <note vol="197" pos="288" key="72" pan="0" len="96"/>
          <note vol="197" pos="288" key="68" pan="0" len="96"/>
        </pattern>
        <pattern pos="23040" name="unisaw" muted="0" type="1" steps="16">
          <note vol="197" pos="0" key="72" pan="0" len="192"/>
          <note vol="197" pos="0" key="68" pan="0" len="192"/>
          <note vol="197" pos="0" key="65" pan="0" len="192"/>
          <note vol="197" pos="192" key="74" pan="0" len="192"/>
          <note vol="197" pos="192" key="70" pan="0" len="192"/>
          <note vol="197" pos="192" key="65" pan="0" len="192"/>
        </pattern>
        <pattern pos="23424" name="unisaw" muted="0" type="1" steps="16">
          <note vol="197" pos="0" key="75" pan="0" len="192"/>
          <note vol="197" pos="0" key="70" pan="0" len="192"/>
          <note vol="197" pos="0" key="67" pan="0" len="192"/>
          <note vol="197" pos="192" key="74" pan="0" len="192"/>
          <note vol="197" pos="192" key="71" pan="0" len="192"/>
          <note vol="197" pos="192" key="67" pan="0" len="192"/>
        </pattern>
        <pattern pos="14976" name="unisaw" muted="0" type="1" steps="16">
          <note vol="125" pos="0" key="79" pan="0" len="6"/>
          <note vol="125" pos="0" key="75" pan="0" len="6"/>
          <note vol="125" pos="0" key="72" pan="0" len="6"/>
          <note vol="125" pos="12" key="79" pan="0" len="6"/>
          <note vol="125" pos="12" key="75" pan="0" len="6"/>
          <note vol="125" pos="12" key="72" pan="0" len="6"/>
          <note vol="125" pos="24" key="79" pan="0" len="6"/>
          <note vol="125" pos="24" key="75" pan="0" len="6"/>
          <note vol="125" pos="24" key="72" pan="0" len="6"/>
          <note vol="125" pos="36" key="79" pan="0" len="6"/>
          <note vol="125" pos="36" key="75" pan="0" len="6"/>
          <note vol="125" pos="36" key="72" pan="0" len="6"/>
          <note vol="125" pos="48" key="79" pan="0" len="24"/>
          <note vol="125" pos="48" key="75" pan="0" len="24"/>
          <note vol="125" pos="48" key="72" pan="0" len="24"/>
          <note vol="125" pos="72" key="79" pan="0" len="6"/>
          <note vol="125" pos="72" key="75" pan="0" len="6"/>
          <note vol="125" pos="72" key="72" pan="0" len="6"/>
          <note vol="125" pos="84" key="79" pan="0" len="6"/>
          <note vol="125" pos="84" key="75" pan="0" len="6"/>
          <note vol="125" pos="84" key="72" pan="0" len="6"/>
          <note vol="125" pos="96" key="79" pan="0" len="6"/>
          <note vol="125" pos="96" key="75" pan="0" len="6"/>
          <note vol="125" pos="96" key="72" pan="0" len="6"/>
          <note vol="125" pos="108" key="79" pan="0" len="6"/>
          <note vol="125" pos="108" key="75" pan="0" len="6"/>
          <note vol="125" pos="108" key="72" pan="0" len="6"/>
          <note vol="125" pos="120" key="79" pan="0" len="6"/>
          <note vol="125" pos="120" key="75" pan="0" len="6"/>
          <note vol="125" pos="120" key="72" pan="0" len="6"/>
          <note vol="125" pos="132" key="79" pan="0" len="6"/>
          <note vol="125" pos="132" key="75" pan="0" len="6"/>
          <note vol="125" pos="132" key="72" pan="0" len="6"/>
          <note vol="125" pos="144" key="79" pan="0" len="24"/>
          <note vol="125" pos="144" key="75" pan="0" len="24"/>
          <note vol="125" pos="144" key="72" pan="0" len="24"/>
          <note vol="125" pos="168" key="79" pan="0" len="6"/>
          <note vol="125" pos="168" key="75" pan="0" len="6"/>
          <note vol="125" pos="168" key="72" pan="0" len="6"/>
          <note vol="125" pos="180" key="79" pan="0" len="6"/>
          <note vol="125" pos="180" key="75" pan="0" len="6"/>
          <note vol="125" pos="180" key="72" pan="0" len="6"/>
          <note vol="125" pos="192" key="82" pan="0" len="6"/>
          <note vol="125" pos="192" key="77" pan="0" len="6"/>
          <note vol="125" pos="192" key="74" pan="0" len="6"/>
          <note vol="125" pos="204" key="82" pan="0" len="6"/>
          <note vol="125" pos="204" key="77" pan="0" len="6"/>
          <note vol="125" pos="204" key="74" pan="0" len="6"/>
          <note vol="125" pos="216" key="82" pan="0" len="6"/>
          <note vol="125" pos="216" key="77" pan="0" len="6"/>
          <note vol="125" pos="216" key="74" pan="0" len="6"/>
          <note vol="125" pos="228" key="82" pan="0" len="6"/>
          <note vol="125" pos="228" key="77" pan="0" len="6"/>
          <note vol="125" pos="228" key="74" pan="0" len="6"/>
          <note vol="125" pos="240" key="82" pan="0" len="24"/>
          <note vol="125" pos="240" key="77" pan="0" len="24"/>
          <note vol="125" pos="240" key="74" pan="0" len="24"/>
          <note vol="125" pos="264" key="84" pan="0" len="24"/>
          <note vol="125" pos="264" key="80" pan="0" len="24"/>
          <note vol="125" pos="264" key="75" pan="0" len="24"/>
          <note vol="125" pos="288" key="84" pan="0" len="6"/>
          <note vol="125" pos="288" key="80" pan="0" len="6"/>
          <note vol="125" pos="288" key="75" pan="0" len="6"/>
          <note vol="125" pos="300" key="84" pan="0" len="6"/>
          <note vol="125" pos="300" key="80" pan="0" len="6"/>
          <note vol="125" pos="300" key="75" pan="0" len="6"/>
          <note vol="125" pos="312" key="84" pan="0" len="6"/>
          <note vol="125" pos="312" key="80" pan="0" len="6"/>
          <note vol="125" pos="312" key="75" pan="0" len="6"/>
          <note vol="125" pos="324" key="84" pan="0" len="6"/>
          <note vol="125" pos="324" key="80" pan="0" len="6"/>
          <note vol="125" pos="324" key="75" pan="0" len="6"/>
          <note vol="125" pos="336" key="84" pan="0" len="6"/>
          <note vol="125" pos="336" key="80" pan="0" len="6"/>
          <note vol="125" pos="336" key="75" pan="0" len="6"/>
          <note vol="125" pos="348" key="84" pan="0" len="6"/>
          <note vol="125" pos="348" key="80" pan="0" len="6"/>
          <note vol="125" pos="348" key="75" pan="0" len="6"/>
          <note vol="125" pos="360" key="84" pan="0" len="6"/>
          <note vol="125" pos="360" key="80" pan="0" len="6"/>
          <note vol="125" pos="360" key="75" pan="0" len="6"/>
          <note vol="125" pos="372" key="84" pan="0" len="6"/>
          <note vol="125" pos="372" key="80" pan="0" len="6"/>
          <note vol="125" pos="372" key="75" pan="0" len="6"/>
        </pattern>
        <pattern pos="15360" name="unisaw" muted="0" type="1" steps="16">
          <note vol="125" pos="0" key="82" pan="0" len="6"/>
          <note vol="125" pos="0" key="79" pan="0" len="6"/>
          <note vol="125" pos="0" key="75" pan="0" len="6"/>
          <note vol="125" pos="12" key="82" pan="0" len="6"/>
          <note vol="125" pos="12" key="79" pan="0" len="6"/>
          <note vol="125" pos="12" key="75" pan="0" len="6"/>
          <note vol="125" pos="24" key="82" pan="0" len="6"/>
          <note vol="125" pos="24" key="79" pan="0" len="6"/>
          <note vol="125" pos="24" key="75" pan="0" len="6"/>
          <note vol="125" pos="36" key="82" pan="0" len="6"/>
          <note vol="125" pos="36" key="79" pan="0" len="6"/>
          <note vol="125" pos="36" key="75" pan="0" len="6"/>
          <note vol="125" pos="48" key="82" pan="0" len="24"/>
          <note vol="125" pos="48" key="79" pan="0" len="24"/>
          <note vol="125" pos="48" key="75" pan="0" len="24"/>
          <note vol="125" pos="72" key="82" pan="0" len="6"/>
          <note vol="125" pos="72" key="79" pan="0" len="6"/>
          <note vol="125" pos="72" key="75" pan="0" len="6"/>
          <note vol="125" pos="84" key="82" pan="0" len="6"/>
          <note vol="125" pos="84" key="79" pan="0" len="6"/>
          <note vol="125" pos="84" key="75" pan="0" len="6"/>
          <note vol="125" pos="96" key="82" pan="0" len="6"/>
          <note vol="125" pos="96" key="79" pan="0" len="6"/>
          <note vol="125" pos="96" key="75" pan="0" len="6"/>
          <note vol="125" pos="108" key="82" pan="0" len="6"/>
          <note vol="125" pos="108" key="79" pan="0" len="6"/>
          <note vol="125" pos="108" key="75" pan="0" len="6"/>
          <note vol="125" pos="120" key="82" pan="0" len="6"/>
          <note vol="125" pos="120" key="79" pan="0" len="6"/>
          <note vol="125" pos="120" key="75" pan="0" len="6"/>
          <note vol="125" pos="132" key="82" pan="0" len="6"/>
          <note vol="125" pos="132" key="79" pan="0" len="6"/>
          <note vol="125" pos="132" key="75" pan="0" len="6"/>
          <note vol="125" pos="144" key="82" pan="0" len="24"/>
          <note vol="125" pos="144" key="79" pan="0" len="24"/>
          <note vol="125" pos="144" key="75" pan="0" len="24"/>
          <note vol="125" pos="168" key="82" pan="0" len="6"/>
          <note vol="125" pos="168" key="79" pan="0" len="6"/>
          <note vol="125" pos="168" key="75" pan="0" len="6"/>
          <note vol="125" pos="180" key="82" pan="0" len="6"/>
          <note vol="125" pos="180" key="79" pan="0" len="6"/>
          <note vol="125" pos="180" key="75" pan="0" len="6"/>
          <note vol="125" pos="192" key="84" pan="0" len="6"/>
          <note vol="125" pos="192" key="80" pan="0" len="6"/>
          <note vol="125" pos="192" key="77" pan="0" len="6"/>
          <note vol="125" pos="204" key="84" pan="0" len="6"/>
          <note vol="125" pos="204" key="80" pan="0" len="6"/>
          <note vol="125" pos="204" key="77" pan="0" len="6"/>
          <note vol="125" pos="216" key="84" pan="0" len="6"/>
          <note vol="125" pos="216" key="80" pan="0" len="6"/>
          <note vol="125" pos="216" key="77" pan="0" len="6"/>
          <note vol="125" pos="228" key="84" pan="0" len="6"/>
          <note vol="125" pos="228" key="80" pan="0" len="6"/>
          <note vol="125" pos="228" key="77" pan="0" len="6"/>
          <note vol="125" pos="240" key="84" pan="0" len="24"/>
          <note vol="125" pos="240" key="80" pan="0" len="24"/>
          <note vol="125" pos="240" key="77" pan="0" len="24"/>
          <note vol="125" pos="264" key="84" pan="0" len="24"/>
          <note vol="125" pos="264" key="79" pan="0" len="24"/>
          <note vol="125" pos="264" key="75" pan="0" len="24"/>
          <note vol="125" pos="288" key="84" pan="0" len="6"/>
          <note vol="125" pos="288" key="79" pan="0" len="6"/>
          <note vol="125" pos="288" key="75" pan="0" len="6"/>
          <note vol="125" pos="300" key="84" pan="0" len="6"/>
          <note vol="125" pos="300" key="79" pan="0" len="6"/>
          <note vol="125" pos="300" key="75" pan="0" len="6"/>
          <note vol="125" pos="312" key="84" pan="0" len="6"/>
          <note vol="125" pos="312" key="79" pan="0" len="6"/>
          <note vol="125" pos="312" key="75" pan="0" len="6"/>
          <note vol="125" pos="324" key="84" pan="0" len="6"/>
          <note vol="125" pos="324" key="79" pan="0" len="6"/>
          <note vol="125" pos="324" key="75" pan="0" len="6"/>
          <note vol="125" pos="336" key="84" pan="0" len="6"/>
          <note vol="125" pos="336" key="79" pan="0" len="6"/>
          <note vol="125" pos="336" key="75" pan="0" len="6"/>
          <note vol="125" pos="348" key="84" pan="0" len="6"/>
          <note vol="125" pos="348" key="79" pan="0" len="6"/>
          <note vol="125" pos="348" key="75" pan="0" len="6"/>
          <note vol="125" pos="360" key="84" pan="0" len="6"/>
          <note vol="125" pos="360" key="79" pan="0" len="6"/>
          <note vol="125" pos="360" key="75" pan="0" len="6"/>
          <note vol="125" pos="372" key="84" pan="0" len="6"/>
          <note vol="125" pos="372" key="79" pan="0" len="6"/>
          <note vol="125" pos="372" key="75" pan="0" len="6"/>
        </pattern>
        <pattern pos="29952" name="" muted="0" type="1" steps="16">
          <note vol="153" pos="0" key="67" pan="0" len="384"/>
          <note vol="153" pos="0" key="64" pan="0" len="384"/>
          <note vol="153" pos="0" key="59" pan="0" len="384"/>
          <note vol="153" pos="384" key="67" pan="0" len="144"/>
          <note vol="153" pos="384" key="64" pan="0" len="144"/>
          <note vol="153" pos="384" key="60" pan="0" len="144"/>
          <note vol="153" pos="528" key="69" pan="0" len="48"/>
          <note vol="153" pos="528" key="66" pan="0" len="48"/>
          <note vol="153" pos="528" key="62" pan="0" len="48"/>
          <note vol="153" pos="624" key="69" pan="0" len="144"/>
          <note vol="153" pos="624" key="66" pan="0" len="144"/>
          <note vol="153" pos="624" key="62" pan="0" len="144"/>
        </pattern>
        <pattern pos="30720" name="" muted="0" type="1" steps="16">
          <note vol="153" pos="0" key="67" pan="0" len="384"/>
          <note vol="153" pos="0" key="64" pan="0" len="384"/>
          <note vol="153" pos="0" key="59" pan="0" len="384"/>
          <note vol="153" pos="384" key="67" pan="0" len="144"/>
          <note vol="153" pos="384" key="64" pan="0" len="144"/>
          <note vol="153" pos="384" key="60" pan="0" len="144"/>
          <note vol="153" pos="528" key="69" pan="0" len="300"/>
          <note vol="153" pos="528" key="66" pan="0" len="300"/>
          <note vol="153" pos="528" key="62" pan="0" len="300"/>
        </pattern>
      </track>
      <track solo="0" name="Detuned Ghost" muted="0" type="0">
        <instrumenttrack vol="54" pitchrange="1" fxch="0" pitch="0" pan="38.1" usemasterpitch="1" basenote="57">
          <instrument name="tripleoscillator">
            <tripleoscillator pan0="0" vol1="33" wavetype0="4" coarse0="0" modalgo2="3" modalgo3="2" vol2="33" stphdetun1="0" wavetype1="1" pan1="0" phoffset2="0" userwavefile1="" finer0="0" phoffset1="0" finel2="0" finer2="0" finel1="0" stphdetun2="0" userwavefile2="" pan2="0" coarse2="-24" coarse1="-12" phoffset0="0" vol0="33" modalgo1="3" finel0="0" stphdetun0="0" wavetype2="0" userwavefile0="" finer1="0"/>
          </instrument>
          <eldata fcut="12819" ftype="0" fres="0.5" fwet="1">
            <elvol lpdel="0" dec="0.445" lamt="0" rel="0.14" userwavefile="" lspd="0.1" x100="0" latt="0" hold="0.08" lshp="0" sustain="0" lspd_numerator="4" att="0" lspd_syncmode="0" amt="1" ctlenvamt="0" lspd_denominator="4" pdel="0"/>
            <elcut lpdel="0" dec="0.14" lamt="0" rel="0.06" userwavefile="" lspd="0.1" x100="1" latt="0" hold="0" lshp="0" sustain="0" lspd_numerator="4" att="0.13" lspd_syncmode="0" amt="0" ctlenvamt="0" lspd_denominator="4" pdel="0"/>
            <elres lpdel="0" dec="0.5" lamt="0" rel="0.1" userwavefile="" lspd="0.1" x100="0" latt="0" hold="0.5" lshp="0" sustain="0.5" lspd_numerator="4" att="0" lspd_syncmode="0" amt="0" ctlenvamt="0" lspd_denominator="4" pdel="0"/>
          </eldata>
          <chordcreator chordrange="1" chord-enabled="0" chord="0"/>
          <arpeggiator arp-enabled="0" arptime_denominator="4" arpgate="100" arpskip="0" arptime="100" arpmode="0" arpmiss="0" arptime_numerator="4" arptime_syncmode="0" arprange="1" arp="0" arpdir="0" arpcycle="0"/>
          <midiport outputcontroller="0" readable="0" basevelocity="63" writable="0" outputprogram="1" fixedoutputvelocity="-1" fixedoutputnote="-1" outputchannel="1" inputchannel="0" inputcontroller="0" fixedinputvelocity="-1"/>
          <fxchain numofeffects="1" enabled="1">
            <effect on="1" gate="0" wet="1" autoquit_denominator="4" name="ladspaeffect" autoquit_numerator="4" autoquit="1" autoquit_syncmode="0">
              <ladspacontrols ports="4">
                <port02 data="0.90454"/>
                <port03 data="0.749"/>
                <port04 data="0.0005"/>
                <port05 data="0.3775"/>
              </ladspacontrols>
              <key>
                <attribute value="caps" name="file"/>
                <attribute value="Plate2x2" name="plugin"/>
              </key>
            </effect>
          </fxchain>
        </instrumenttrack>
        <pattern pos="5760" name="Detuned Ghost" muted="0" type="1" steps="16">
          <note vol="176" pos="0" key="63" pan="0" len="72"/>
          <note vol="176" pos="72" key="62" pan="0" len="72"/>
          <note vol="176" pos="144" key="58" pan="0" len="72"/>
          <note vol="176" pos="216" key="63" pan="0" len="72"/>
          <note vol="176" pos="288" key="62" pan="0" len="48"/>
          <note vol="176" pos="336" key="58" pan="0" len="48"/>
          <note vol="176" pos="384" key="63" pan="0" len="144"/>
          <note vol="176" pos="528" key="65" pan="0" len="240"/>
        </pattern>
        <pattern pos="31488" name="Detuned Ghost" muted="0" type="1" steps="16">
          <note vol="197" pos="60" key="64" pan="0" len="400"/>
        </pattern>
        <pattern pos="24576" name="" muted="0" type="1" steps="16">
          <note vol="176" pos="0" key="63" pan="0" len="72"/>
          <note vol="176" pos="72" key="62" pan="0" len="72"/>
          <note vol="176" pos="144" key="58" pan="0" len="72"/>
          <note vol="176" pos="216" key="63" pan="0" len="72"/>
          <note vol="176" pos="288" key="62" pan="0" len="48"/>
          <note vol="176" pos="336" key="58" pan="0" len="48"/>
          <note vol="176" pos="384" key="63" pan="0" len="144"/>
          <note vol="176" pos="528" key="65" pan="0" len="240"/>
        </pattern>
        <pattern pos="12672" name="" muted="0" type="1" steps="16">
          <note vol="191" pos="0" key="63" pan="0" len="72"/>
          <note vol="191" pos="72" key="62" pan="0" len="72"/>
          <note vol="191" pos="144" key="58" pan="0" len="72"/>
        </pattern>
        <pattern pos="13056" name="" muted="0" type="1" steps="16">
          <note vol="191" pos="0" key="63" pan="0" len="72"/>
          <note vol="191" pos="72" key="62" pan="0" len="72"/>
          <note vol="191" pos="144" key="58" pan="0" len="72"/>
        </pattern>
        <pattern pos="13440" name="" muted="0" type="1" steps="16">
          <note vol="191" pos="0" key="63" pan="0" len="72"/>
          <note vol="191" pos="72" key="62" pan="0" len="72"/>
          <note vol="191" pos="144" key="58" pan="0" len="72"/>
        </pattern>
      </track>
      <track solo="0" name="Fantasy Bell" muted="0" type="0">
        <instrumenttrack vol="200" pitchrange="1" fxch="0" pitch="0" pan="38.1" usemasterpitch="1" basenote="57">
          <instrument name="zynaddsubfx">
            <zynaddsubfx filterfreq="64" portamento="0" filterq="64" forwardmidicc="1" bandwidth="64" modifiedcontrollers="" rescenterfreq="64" fmgain="127" resbandwidth="64">
              <ZynAddSubFX-data version-minor="4" ZynAddSubFX-author="Nasca Octavian Paul" version-revision="1" version-major="2">
                <INFORMATION/>
                <BASE_PARAMETERS>
                  <par value="16" name="max_midi_parts"/>
                  <par value="16" name="max_kit_items_per_instrument"/>
                  <par value="4" name="max_system_effects"/>
                  <par value="8" name="max_insertion_effects"/>
                  <par value="3" name="max_instrument_effects"/>
                  <par value="8" name="max_addsynth_voices"/>
                </BASE_PARAMETERS>
                <MASTER>
                  <par value="80" name="volume"/>
                  <par value="64" name="key_shift"/>
                  <par_bool value="yes" name="nrpn_receive"/>
                  <MICROTONAL>
                    <string name="name">12tET</string>
                    <string name="comment">Equal Temperament 12 notes per octave</string>
                    <par_bool value="no" name="invert_up_down"/>
                    <par value="60" name="invert_up_down_center"/>
                    <par_bool value="no" name="enabled"/>
                    <par value="64" name="global_fine_detune"/>
                    <par value="69" name="a_note"/>
                    <par_real value="440.000000" name="a_freq"/>
                  </MICROTONAL>
                  <PART id="0">
                    <par_bool value="yes" name="enabled"/>
                    <par value="96" name="volume"/>
                    <par value="64" name="panning"/>
                    <par value="0" name="min_key"/>
                    <par value="127" name="max_key"/>
                    <par value="64" name="key_shift"/>
                    <par value="0" name="rcv_chn"/>
                    <par value="64" name="velocity_sensing"/>
                    <par value="64" name="velocity_offset"/>
                    <par_bool value="yes" name="note_on"/>
                    <par_bool value="yes" name="poly_mode"/>
                    <par value="0" name="legato_mode"/>
                    <par value="15" name="key_limit"/>
                    <INSTRUMENT>
                      <INFO>
                        <string name="name">Fantasy Bell</string>
                        <string name="author"/>
                        <string name="comments"/>
                        <par value="0" name="type"/>
                      </INFO>
                      <INSTRUMENT_KIT>
                        <par value="0" name="kit_mode"/>
                        <par_bool value="no" name="drum_mode"/>
                        <INSTRUMENT_KIT_ITEM id="0">
                          <par_bool value="yes" name="enabled"/>
                          <string name="name">Fantasy Bell</string>
                          <par_bool value="no" name="muted"/>
                          <par value="0" name="min_key"/>
                          <par value="127" name="max_key"/>
                          <par value="0" name="send_to_instrument_effect"/>
                          <par_bool value="yes" name="add_enabled"/>
                          <ADD_SYNTH_PARAMETERS>
                            <par_bool value="yes" name="stereo"/>
                            <AMPLITUDE_PARAMETERS>
                              <par value="80" name="volume"/>
                              <par value="64" name="panning"/>
                              <par value="76" name="velocity_sensing"/>
                              <par value="0" name="punch_strength"/>
                              <par value="60" name="punch_time"/>
                              <par value="64" name="punch_stretch"/>
                              <par value="72" name="punch_velocity_sensing"/>
                              <par value="0" name="harmonic_randomness_grouping"/>
                              <AMPLITUDE_ENVELOPE>
                                <par_bool value="no" name="free_mode"/>
                                <par value="4" name="env_points"/>
                                <par value="2" name="env_sustain"/>
                                <par value="0" name="env_stretch"/>
                                <par_bool value="yes" name="forced_release"/>
                                <par_bool value="yes" name="linear_envelope"/>
                                <par value="0" name="A_dt"/>
                                <par value="40" name="D_dt"/>
                                <par value="61" name="R_dt"/>
                                <par value="64" name="A_val"/>
                                <par value="64" name="D_val"/>
                                <par value="127" name="S_val"/>
                                <par value="64" name="R_val"/>
                              </AMPLITUDE_ENVELOPE>
                              <AMPLITUDE_LFO>
                                <par_real value="0.629921" name="freq"/>
                                <par value="0" name="intensity"/>
                                <par value="64" name="start_phase"/>
                                <par value="0" name="lfo_type"/>
                                <par value="0" name="randomness_amplitude"/>
                                <par value="0" name="randomness_frequency"/>
                                <par value="0" name="delay"/>
                                <par value="64" name="stretch"/>
                                <par_bool value="no" name="continous"/>
                              </AMPLITUDE_LFO>
                            </AMPLITUDE_PARAMETERS>
                            <FREQUENCY_PARAMETERS>
                              <par value="8192" name="detune"/>
                              <par value="0" name="coarse_detune"/>
                              <par value="1" name="detune_type"/>
                              <par value="64" name="bandwidth"/>
                              <FREQUENCY_ENVELOPE>
                                <par_bool value="no" name="free_mode"/>
                                <par value="3" name="env_points"/>
                                <par value="1" name="env_sustain"/>
                                <par value="0" name="env_stretch"/>
                                <par_bool value="no" name="forced_release"/>
                                <par_bool value="no" name="linear_envelope"/>
                                <par value="15" name="A_dt"/>
                                <par value="10" name="D_dt"/>
                                <par value="60" name="R_dt"/>
                                <par value="65" name="A_val"/>
                                <par value="64" name="D_val"/>
                                <par value="64" name="S_val"/>
                                <par value="64" name="R_val"/>
                              </FREQUENCY_ENVELOPE>
                              <FREQUENCY_LFO>
                                <par_real value="0.614173" name="freq"/>
                                <par value="32" name="intensity"/>
                                <par value="64" name="start_phase"/>
                                <par value="0" name="lfo_type"/>
                                <par value="0" name="randomness_amplitude"/>
                                <par value="0" name="randomness_frequency"/>
                                <par value="0" name="delay"/>
                                <par value="64" name="stretch"/>
                                <par_bool value="no" name="continous"/>
                              </FREQUENCY_LFO>
                            </FREQUENCY_PARAMETERS>
                            <FILTER_PARAMETERS>
                              <par value="32" name="velocity_sensing_amplitude"/>
                              <par value="64" name="velocity_sensing"/>
                              <FILTER>
                                <par value="0" name="category"/>
                                <par value="2" name="type"/>
                                <par value="76" name="freq"/>
                                <par value="30" name="q"/>
                                <par value="0" name="stages"/>
                                <par value="64" name="freq_track"/>
                                <par value="64" name="gain"/>
                              </FILTER>
                              <FILTER_ENVELOPE>
                                <par_bool value="no" name="free_mode"/>
                                <par value="4" name="env_points"/>
                                <par value="2" name="env_sustain"/>
                                <par value="0" name="env_stretch"/>
                                <par_bool value="yes" name="forced_release"/>
                                <par_bool value="no" name="linear_envelope"/>
                                <par value="43" name="A_dt"/>
                                <par value="97" name="D_dt"/>
                                <par value="101" name="R_dt"/>
                                <par value="107" name="A_val"/>
                                <par value="87" name="D_val"/>
                                <par value="64" name="S_val"/>
                                <par value="64" name="R_val"/>
                              </FILTER_ENVELOPE>
                              <FILTER_LFO>
                                <par_real value="0.629921" name="freq"/>
                                <par value="0" name="intensity"/>
                                <par value="64" name="start_phase"/>
                                <par value="0" name="lfo_type"/>
                                <par value="0" name="randomness_amplitude"/>
                                <par value="0" name="randomness_frequency"/>
                                <par value="0" name="delay"/>
                                <par value="64" name="stretch"/>
                                <par_bool value="no" name="continous"/>
                              </FILTER_LFO>
                            </FILTER_PARAMETERS>
                            <RESONANCE>
                              <par_bool value="no" name="enabled"/>
                            </RESONANCE>
                            <VOICE id="0">
                              <par_bool value="yes" name="enabled"/>
                              <par value="0" name="type"/>
                              <par value="1" name="unison_size"/>
                              <par value="60" name="unison_frequency_spread"/>
                              <par value="64" name="unison_stereo_spread"/>
                              <par value="64" name="unison_vibratto"/>
                              <par value="64" name="unison_vibratto_speed"/>
                              <par value="0" name="unison_invert_phase"/>
                              <par value="127" name="unison_phase_randomness"/>
                              <par value="0" name="delay"/>
                              <par_bool value="yes" name="resonance"/>
                              <par value="-1" name="ext_oscil"/>
                              <par value="-1" name="ext_fm_oscil"/>
                              <par value="64" name="oscil_phase"/>
                              <par value="64" name="oscil_fm_phase"/>
                              <par_bool value="no" name="filter_enabled"/>
                              <par_bool value="no" name="filter_bypass"/>
                              <par value="0" name="fm_enabled"/>
                              <OSCIL>
                                <par value="0" name="harmonic_mag_type"/>
                                <par value="9" name="base_function"/>
                                <par value="85" name="base_function_par"/>
                                <par value="0" name="base_function_modulation"/>
                                <par value="64" name="base_function_modulation_par1"/>
                                <par value="64" name="base_function_modulation_par2"/>
                                <par value="32" name="base_function_modulation_par3"/>
                                <par value="0" name="modulation"/>
                                <par value="64" name="modulation_par1"/>
                                <par value="64" name="modulation_par2"/>
                                <par value="32" name="modulation_par3"/>
                                <par value="111" name="wave_shaping"/>
                                <par value="0" name="wave_shaping_function"/>
                                <par value="0" name="filter_type"/>
                                <par value="70" name="filter_par1"/>
                                <par value="64" name="filter_par2"/>
                                <par value="0" name="filter_before_wave_shaping"/>
                                <par value="1" name="spectrum_adjust_type"/>
                                <par value="0" name="spectrum_adjust_par"/>
                                <par value="0" name="rand"/>
                                <par value="0" name="amp_rand_type"/>
                                <par value="64" name="amp_rand_power"/>
                                <par value="0" name="harmonic_shift"/>
                                <par_bool value="no" name="harmonic_shift_first"/>
                                <par value="0" name="adaptive_harmonics"/>
                                <par value="128" name="adaptive_harmonics_base_frequency"/>
                                <par value="100" name="adaptive_harmonics_power"/>
                                <HARMONICS>
                                  <HARMONIC id="1">
                                    <par value="127" name="mag"/>
                                    <par value="64" name="phase"/>
                                  </HARMONIC>
                                  <HARMONIC id="2">
                                    <par value="23" name="mag"/>
                                    <par value="64" name="phase"/>
                                  </HARMONIC>
                                </HARMONICS>
                              </OSCIL>
                              <AMPLITUDE_PARAMETERS>
                                <par value="0" name="panning"/>
                                <par value="100" name="volume"/>
                                <par_bool value="no" name="volume_minus"/>
                                <par value="127" name="velocity_sensing"/>
                                <par_bool value="no" name="amp_envelope_enabled"/>
                                <par_bool value="no" name="amp_lfo_enabled"/>
                              </AMPLITUDE_PARAMETERS>
                              <FREQUENCY_PARAMETERS>
                                <par_bool value="no" name="fixed_freq"/>
                                <par value="0" name="fixed_freq_et"/>
                                <par value="6553" name="detune"/>
                                <par value="0" name="coarse_detune"/>
                                <par value="0" name="detune_type"/>
                                <par_bool value="no" name="freq_envelope_enabled"/>
                                <par_bool value="yes" name="freq_lfo_enabled"/>
                                <FREQUENCY_LFO>
                                  <par_real value="0.220472" name="freq"/>
                                  <par value="40" name="intensity"/>
                                  <par value="0" name="start_phase"/>
                                  <par value="0" name="lfo_type"/>
                                  <par value="0" name="randomness_amplitude"/>
                                  <par value="0" name="randomness_frequency"/>
                                  <par value="0" name="delay"/>
                                  <par value="64" name="stretch"/>
                                  <par_bool value="no" name="continous"/>
                                </FREQUENCY_LFO>
                              </FREQUENCY_PARAMETERS>
                            </VOICE>
                            <VOICE id="1">
                              <par_bool value="yes" name="enabled"/>
                              <par value="0" name="type"/>
                              <par value="1" name="unison_size"/>
                              <par value="60" name="unison_frequency_spread"/>
                              <par value="64" name="unison_stereo_spread"/>
                              <par value="64" name="unison_vibratto"/>
                              <par value="64" name="unison_vibratto_speed"/>
                              <par value="0" name="unison_invert_phase"/>
                              <par value="127" name="unison_phase_randomness"/>
                              <par value="0" name="delay"/>
                              <par_bool value="yes" name="resonance"/>
                              <par value="0" name="ext_oscil"/>
                              <par value="-1" name="ext_fm_oscil"/>
                              <par value="64" name="oscil_phase"/>
                              <par value="64" name="oscil_fm_phase"/>
                              <par_bool value="no" name="filter_enabled"/>
                              <par_bool value="no" name="filter_bypass"/>
                              <par value="0" name="fm_enabled"/>
                              <OSCIL>
                                <par value="0" name="harmonic_mag_type"/>
                                <par value="0" name="base_function"/>
                                <par value="64" name="base_function_par"/>
                                <par value="0" name="base_function_modulation"/>
                                <par value="64" name="base_function_modulation_par1"/>
                                <par value="64" name="base_function_modulation_par2"/>
                                <par value="32" name="base_function_modulation_par3"/>
                                <par value="0" name="modulation"/>
                                <par value="64" name="modulation_par1"/>
                                <par value="64" name="modulation_par2"/>
                                <par value="32" name="modulation_par3"/>
                                <par value="64" name="wave_shaping"/>
                                <par value="0" name="wave_shaping_function"/>
                                <par value="0" name="filter_type"/>
                                <par value="64" name="filter_par1"/>
                                <par value="64" name="filter_par2"/>
                                <par value="0" name="filter_before_wave_shaping"/>
                                <par value="0" name="spectrum_adjust_type"/>
                                <par value="64" name="spectrum_adjust_par"/>
                                <par value="64" name="rand"/>
                                <par value="0" name="amp_rand_type"/>
                                <par value="64" name="amp_rand_power"/>
                                <par value="0" name="harmonic_shift"/>
                                <par_bool value="no" name="harmonic_shift_first"/>
                                <par value="0" name="adaptive_harmonics"/>
                                <par value="128" name="adaptive_harmonics_base_frequency"/>
                                <par value="100" name="adaptive_harmonics_power"/>
                                <HARMONICS>
                                  <HARMONIC id="1">
                                    <par value="127" name="mag"/>
                                    <par value="64" name="phase"/>
                                  </HARMONIC>
                                </HARMONICS>
                              </OSCIL>
                              <AMPLITUDE_PARAMETERS>
                                <par value="24" name="panning"/>
                                <par value="100" name="volume"/>
                                <par_bool value="no" name="volume_minus"/>
                                <par value="127" name="velocity_sensing"/>
                                <par_bool value="no" name="amp_envelope_enabled"/>
                                <par_bool value="no" name="amp_lfo_enabled"/>
                              </AMPLITUDE_PARAMETERS>
                              <FREQUENCY_PARAMETERS>
                                <par_bool value="no" name="fixed_freq"/>
                                <par value="0" name="fixed_freq_et"/>
                                <par value="7710" name="detune"/>
                                <par value="0" name="coarse_detune"/>
                                <par value="0" name="detune_type"/>
                                <par_bool value="no" name="freq_envelope_enabled"/>
                                <par_bool value="yes" name="freq_lfo_enabled"/>
                                <FREQUENCY_LFO>
                                  <par_real value="0.228346" name="freq"/>
                                  <par value="29" name="intensity"/>
                                  <par value="0" name="start_phase"/>
                                  <par value="0" name="lfo_type"/>
                                  <par value="0" name="randomness_amplitude"/>
                                  <par value="0" name="randomness_frequency"/>
                                  <par value="0" name="delay"/>
                                  <par value="64" name="stretch"/>
                                  <par_bool value="no" name="continous"/>
                                </FREQUENCY_LFO>
                              </FREQUENCY_PARAMETERS>
                            </VOICE>
                            <VOICE id="2">
                              <par_bool value="yes" name="enabled"/>
                              <par value="0" name="type"/>
                              <par value="1" name="unison_size"/>
                              <par value="60" name="unison_frequency_spread"/>
                              <par value="64" name="unison_stereo_spread"/>
                              <par value="64" name="unison_vibratto"/>
                              <par value="64" name="unison_vibratto_speed"/>
                              <par value="0" name="unison_invert_phase"/>
                              <par value="127" name="unison_phase_randomness"/>
                              <par value="0" name="delay"/>
                              <par_bool value="yes" name="resonance"/>
                              <par value="0" name="ext_oscil"/>
                              <par value="-1" name="ext_fm_oscil"/>
                              <par value="64" name="oscil_phase"/>
                              <par value="64" name="oscil_fm_phase"/>
                              <par_bool value="no" name="filter_enabled"/>
                              <par_bool value="no" name="filter_bypass"/>
                              <par value="0" name="fm_enabled"/>
                              <OSCIL>
                                <par value="0" name="harmonic_mag_type"/>
                                <par value="0" name="base_function"/>
                                <par value="64" name="base_function_par"/>
                                <par value="0" name="base_function_modulation"/>
                                <par value="64" name="base_function_modulation_par1"/>
                                <par value="64" name="base_function_modulation_par2"/>
                                <par value="32" name="base_function_modulation_par3"/>
                                <par value="0" name="modulation"/>
                                <par value="64" name="modulation_par1"/>
                                <par value="64" name="modulation_par2"/>
                                <par value="32" name="modulation_par3"/>
                                <par value="64" name="wave_shaping"/>
                                <par value="0" name="wave_shaping_function"/>
                                <par value="0" name="filter_type"/>
                                <par value="64" name="filter_par1"/>
                                <par value="64" name="filter_par2"/>
                                <par value="0" name="filter_before_wave_shaping"/>
                                <par value="0" name="spectrum_adjust_type"/>
                                <par value="64" name="spectrum_adjust_par"/>
                                <par value="64" name="rand"/>
                                <par value="0" name="amp_rand_type"/>
                                <par value="64" name="amp_rand_power"/>
                                <par value="0" name="harmonic_shift"/>
                                <par_bool value="no" name="harmonic_shift_first"/>
                                <par value="0" name="adaptive_harmonics"/>
                                <par value="128" name="adaptive_harmonics_base_frequency"/>
                                <par value="100" name="adaptive_harmonics_power"/>
                                <HARMONICS>
                                  <HARMONIC id="1">
                                    <par value="127" name="mag"/>
                                    <par value="64" name="phase"/>
                                  </HARMONIC>
                                </HARMONICS>
                              </OSCIL>
                              <AMPLITUDE_PARAMETERS>
                                <par value="91" name="panning"/>
                                <par value="100" name="volume"/>
                                <par_bool value="no" name="volume_minus"/>
                                <par value="127" name="velocity_sensing"/>
                                <par_bool value="no" name="amp_envelope_enabled"/>
                                <par_bool value="no" name="amp_lfo_enabled"/>
                              </AMPLITUDE_PARAMETERS>
                              <FREQUENCY_PARAMETERS>
                                <par_bool value="no" name="fixed_freq"/>
                                <par value="0" name="fixed_freq_et"/>
                                <par value="9252" name="detune"/>
                                <par value="0" name="coarse_detune"/>
                                <par value="0" name="detune_type"/>
                                <par_bool value="no" name="freq_envelope_enabled"/>
                                <par_bool value="yes" name="freq_lfo_enabled"/>
                                <FREQUENCY_LFO>
                                  <par_real value="0.393701" name="freq"/>
                                  <par value="40" name="intensity"/>
                                  <par value="0" name="start_phase"/>
                                  <par value="0" name="lfo_type"/>
                                  <par value="0" name="randomness_amplitude"/>
                                  <par value="0" name="randomness_frequency"/>
                                  <par value="0" name="delay"/>
                                  <par value="64" name="stretch"/>
                                  <par_bool value="no" name="continous"/>
                                </FREQUENCY_LFO>
                              </FREQUENCY_PARAMETERS>
                            </VOICE>
                            <VOICE id="3">
                              <par_bool value="yes" name="enabled"/>
                              <par value="0" name="type"/>
                              <par value="1" name="unison_size"/>
                              <par value="60" name="unison_frequency_spread"/>
                              <par value="64" name="unison_stereo_spread"/>
                              <par value="64" name="unison_vibratto"/>
                              <par value="64" name="unison_vibratto_speed"/>
                              <par value="0" name="unison_invert_phase"/>
                              <par value="127" name="unison_phase_randomness"/>
                              <par value="0" name="delay"/>
                              <par_bool value="yes" name="resonance"/>
                              <par value="-1" name="ext_oscil"/>
                              <par value="-1" name="ext_fm_oscil"/>
                              <par value="64" name="oscil_phase"/>
                              <par value="64" name="oscil_fm_phase"/>
                              <par_bool value="no" name="filter_enabled"/>
                              <par_bool value="no" name="filter_bypass"/>
                              <par value="0" name="fm_enabled"/>
                              <OSCIL>
                                <par value="0" name="harmonic_mag_type"/>
                                <par value="3" name="base_function"/>
                                <par value="23" name="base_function_par"/>
                                <par value="0" name="base_function_modulation"/>
                                <par value="64" name="base_function_modulation_par1"/>
                                <par value="64" name="base_function_modulation_par2"/>
                                <par value="32" name="base_function_modulation_par3"/>
                                <par value="0" name="modulation"/>
                                <par value="64" name="modulation_par1"/>
                                <par value="64" name="modulation_par2"/>
                                <par value="32" name="modulation_par3"/>
                                <par value="60" name="wave_shaping"/>
                                <par value="0" name="wave_shaping_function"/>
                                <par value="0" name="filter_type"/>
                                <par value="64" name="filter_par1"/>
                                <par value="64" name="filter_par2"/>
                                <par value="0" name="filter_before_wave_shaping"/>
                                <par value="0" name="spectrum_adjust_type"/>
                                <par value="64" name="spectrum_adjust_par"/>
                                <par value="64" name="rand"/>
                                <par value="0" name="amp_rand_type"/>
                                <par value="64" name="amp_rand_power"/>
                                <par value="0" name="harmonic_shift"/>
                                <par_bool value="no" name="harmonic_shift_first"/>
                                <par value="0" name="adaptive_harmonics"/>
                                <par value="128" name="adaptive_harmonics_base_frequency"/>
                                <par value="100" name="adaptive_harmonics_power"/>
                                <HARMONICS>
                                  <HARMONIC id="8">
                                    <par value="127" name="mag"/>
                                    <par value="64" name="phase"/>
                                  </HARMONIC>
                                </HARMONICS>
                              </OSCIL>
                              <AMPLITUDE_PARAMETERS>
                                <par value="0" name="panning"/>
                                <par value="100" name="volume"/>
                                <par_bool value="no" name="volume_minus"/>
                                <par value="127" name="velocity_sensing"/>
                                <par_bool value="yes" name="amp_envelope_enabled"/>
                                <AMPLITUDE_ENVELOPE>
                                  <par_bool value="no" name="free_mode"/>
                                  <par value="4" name="env_points"/>
                                  <par value="2" name="env_sustain"/>
                                  <par value="15" name="env_stretch"/>
                                  <par_bool value="yes" name="forced_release"/>
                                  <par_bool value="no" name="linear_envelope"/>
                                  <par value="0" name="A_dt"/>
                                  <par value="87" name="D_dt"/>
                                  <par value="100" name="R_dt"/>
                                  <par value="64" name="A_val"/>
                                  <par value="64" name="D_val"/>
                                  <par value="0" name="S_val"/>
                                  <par value="64" name="R_val"/>
                                </AMPLITUDE_ENVELOPE>
                                <par_bool value="no" name="amp_lfo_enabled"/>
                              </AMPLITUDE_PARAMETERS>
                              <FREQUENCY_PARAMETERS>
                                <par_bool value="no" name="fixed_freq"/>
                                <par value="0" name="fixed_freq_et"/>
                                <par value="8192" name="detune"/>
                                <par value="0" name="coarse_detune"/>
                                <par value="0" name="detune_type"/>
                                <par_bool value="no" name="freq_envelope_enabled"/>
                                <par_bool value="no" name="freq_lfo_enabled"/>
                              </FREQUENCY_PARAMETERS>
                            </VOICE>
                            <VOICE id="4">
                              <par_bool value="no" name="enabled"/>
                            </VOICE>
                            <VOICE id="5">
                              <par_bool value="no" name="enabled"/>
                            </VOICE>
                            <VOICE id="6">
                              <par_bool value="no" name="enabled"/>
                            </VOICE>
                            <VOICE id="7">
                              <par_bool value="no" name="enabled"/>
                            </VOICE>
                          </ADD_SYNTH_PARAMETERS>
                          <par_bool value="no" name="sub_enabled"/>
                          <par_bool value="no" name="pad_enabled"/>
                        </INSTRUMENT_KIT_ITEM>
                        <INSTRUMENT_KIT_ITEM id="1">
                          <par_bool value="no" name="enabled"/>
                        </INSTRUMENT_KIT_ITEM>
                        <INSTRUMENT_KIT_ITEM id="2">
                          <par_bool value="no" name="enabled"/>
                        </INSTRUMENT_KIT_ITEM>
                        <INSTRUMENT_KIT_ITEM id="3">
                          <par_bool value="no" name="enabled"/>
                        </INSTRUMENT_KIT_ITEM>
                        <INSTRUMENT_KIT_ITEM id="4">
                          <par_bool value="no" name="enabled"/>
                        </INSTRUMENT_KIT_ITEM>
                        <INSTRUMENT_KIT_ITEM id="5">
                          <par_bool value="no" name="enabled"/>
                        </INSTRUMENT_KIT_ITEM>
                        <INSTRUMENT_KIT_ITEM id="6">
                          <par_bool value="no" name="enabled"/>
                        </INSTRUMENT_KIT_ITEM>
                        <INSTRUMENT_KIT_ITEM id="7">
                          <par_bool value="no" name="enabled"/>
                        </INSTRUMENT_KIT_ITEM>
                        <INSTRUMENT_KIT_ITEM id="8">
                          <par_bool value="no" name="enabled"/>
                        </INSTRUMENT_KIT_ITEM>
                        <INSTRUMENT_KIT_ITEM id="9">
                          <par_bool value="no" name="enabled"/>
                        </INSTRUMENT_KIT_ITEM>
                        <INSTRUMENT_KIT_ITEM id="10">
                          <par_bool value="no" name="enabled"/>
                        </INSTRUMENT_KIT_ITEM>
                        <INSTRUMENT_KIT_ITEM id="11">
                          <par_bool value="no" name="enabled"/>
                        </INSTRUMENT_KIT_ITEM>
                        <INSTRUMENT_KIT_ITEM id="12">
                          <par_bool value="no" name="enabled"/>
                        </INSTRUMENT_KIT_ITEM>
                        <INSTRUMENT_KIT_ITEM id="13">
                          <par_bool value="no" name="enabled"/>
                        </INSTRUMENT_KIT_ITEM>
                        <INSTRUMENT_KIT_ITEM id="14">
                          <par_bool value="no" name="enabled"/>
                        </INSTRUMENT_KIT_ITEM>
                        <INSTRUMENT_KIT_ITEM id="15">
                          <par_bool value="no" name="enabled"/>
                        </INSTRUMENT_KIT_ITEM>
                      </INSTRUMENT_KIT>
                      <INSTRUMENT_EFFECTS>
                        <INSTRUMENT_EFFECT id="0">
                          <EFFECT>
                            <par value="0" name="type"/>
                          </EFFECT>
                          <par value="0" name="route"/>
                          <par_bool value="no" name="bypass"/>
                        </INSTRUMENT_EFFECT>
                        <INSTRUMENT_EFFECT id="1">
                          <EFFECT>
                            <par value="0" name="type"/>
                          </EFFECT>
                          <par value="0" name="route"/>
                          <par_bool value="no" name="bypass"/>
                        </INSTRUMENT_EFFECT>
                        <INSTRUMENT_EFFECT id="2">
                          <EFFECT>
                            <par value="0" name="type"/>
                          </EFFECT>
                          <par value="0" name="route"/>
                          <par_bool value="no" name="bypass"/>
                        </INSTRUMENT_EFFECT>
                      </INSTRUMENT_EFFECTS>
                    </INSTRUMENT>
                    <CONTROLLER>
                      <par value="100" name="pitchwheel_bendrange"/>
                      <par_bool value="yes" name="expression_receive"/>
                      <par value="64" name="panning_depth"/>
                      <par value="64" name="filter_cutoff_depth"/>
                      <par value="64" name="filter_q_depth"/>
                      <par value="64" name="bandwidth_depth"/>
                      <par value="80" name="mod_wheel_depth"/>
                      <par_bool value="no" name="mod_wheel_exponential"/>
                      <par_bool value="yes" name="fm_amp_receive"/>
                      <par_bool value="yes" name="volume_receive"/>
                      <par_bool value="yes" name="sustain_receive"/>
                      <par_bool value="yes" name="portamento_receive"/>
                      <par value="64" name="portamento_time"/>
                      <par value="3" name="portamento_pitchthresh"/>
                      <par value="1" name="portamento_pitchthreshtype"/>
                      <par value="0" name="portamento_portamento"/>
                      <par value="64" name="portamento_updowntimestretch"/>
                      <par value="0" name="portamento_proportional"/>
                      <par value="80" name="portamento_proprate"/>
                      <par value="90" name="portamento_propdepth"/>
                      <par value="64" name="resonance_center_depth"/>
                      <par value="64" name="resonance_bandwidth_depth"/>
                    </CONTROLLER>
                  </PART>
                  <PART id="1">
                    <par_bool value="no" name="enabled"/>
                  </PART>
                  <PART id="2">
                    <par_bool value="no" name="enabled"/>
                  </PART>
                  <PART id="3">
                    <par_bool value="no" name="enabled"/>
                  </PART>
                  <PART id="4">
                    <par_bool value="no" name="enabled"/>
                  </PART>
                  <PART id="5">
                    <par_bool value="no" name="enabled"/>
                  </PART>
                  <PART id="6">
                    <par_bool value="no" name="enabled"/>
                  </PART>
                  <PART id="7">
                    <par_bool value="no" name="enabled"/>
                  </PART>
                  <PART id="8">
                    <par_bool value="no" name="enabled"/>
                  </PART>
                  <PART id="9">
                    <par_bool value="no" name="enabled"/>
                  </PART>
                  <PART id="10">
                    <par_bool value="no" name="enabled"/>
                  </PART>
                  <PART id="11">
                    <par_bool value="no" name="enabled"/>
                  </PART>
                  <PART id="12">
                    <par_bool value="no" name="enabled"/>
                  </PART>
                  <PART id="13">
                    <par_bool value="no" name="enabled"/>
                  </PART>
                  <PART id="14">
                    <par_bool value="no" name="enabled"/>
                  </PART>
                  <PART id="15">
                    <par_bool value="no" name="enabled"/>
                  </PART>
                  <SYSTEM_EFFECTS>
                    <SYSTEM_EFFECT id="0">
                      <EFFECT>
                        <par value="0" name="type"/>
                      </EFFECT>
                      <VOLUME id="0">
                        <par value="0" name="vol"/>
                      </VOLUME>
                      <VOLUME id="1">
                        <par value="0" name="vol"/>
                      </VOLUME>
                      <VOLUME id="2">
                        <par value="0" name="vol"/>
                      </VOLUME>
                      <VOLUME id="3">
                        <par value="0" name="vol"/>
                      </VOLUME>
                      <VOLUME id="4">
                        <par value="0" name="vol"/>
                      </VOLUME>
                      <VOLUME id="5">
                        <par value="0" name="vol"/>
                      </VOLUME>
                      <VOLUME id="6">
                        <par value="0" name="vol"/>
                      </VOLUME>
                      <VOLUME id="7">
                        <par value="0" name="vol"/>
                      </VOLUME>
                      <VOLUME id="8">
                        <par value="0" name="vol"/>
                      </VOLUME>
                      <VOLUME id="9">
                        <par value="0" name="vol"/>
                      </VOLUME>
                      <VOLUME id="10">
                        <par value="0" name="vol"/>
                      </VOLUME>
                      <VOLUME id="11">
                        <par value="0" name="vol"/>
                      </VOLUME>
                      <VOLUME id="12">
                        <par value="0" name="vol"/>
                      </VOLUME>
                      <VOLUME id="13">
                        <par value="0" name="vol"/>
                      </VOLUME>
                      <VOLUME id="14">
                        <par value="0" name="vol"/>
                      </VOLUME>
                      <VOLUME id="15">
                        <par value="0" name="vol"/>
                      </VOLUME>
                      <SENDTO id="1">
                        <par value="0" name="send_vol"/>
                      </SENDTO>
                      <SENDTO id="2">
                        <par value="0" name="send_vol"/>
                      </SENDTO>
                      <SENDTO id="3">
                        <par value="0" name="send_vol"/>
                      </SENDTO>
                    </SYSTEM_EFFECT>
                    <SYSTEM_EFFECT id="1">
                      <EFFECT>
                        <par value="0" name="type"/>
                      </EFFECT>
                      <VOLUME id="0">
                        <par value="0" name="vol"/>
                      </VOLUME>
                      <VOLUME id="1">
                        <par value="0" name="vol"/>
                      </VOLUME>
                      <VOLUME id="2">
                        <par value="0" name="vol"/>
                      </VOLUME>
                      <VOLUME id="3">
                        <par value="0" name="vol"/>
                      </VOLUME>
                      <VOLUME id="4">
                        <par value="0" name="vol"/>
                      </VOLUME>
                      <VOLUME id="5">
                        <par value="0" name="vol"/>
                      </VOLUME>
                      <VOLUME id="6">
                        <par value="0" name="vol"/>
                      </VOLUME>
                      <VOLUME id="7">
                        <par value="0" name="vol"/>
                      </VOLUME>
                      <VOLUME id="8">
                        <par value="0" name="vol"/>
                      </VOLUME>
                      <VOLUME id="9">
                        <par value="0" name="vol"/>
                      </VOLUME>
                      <VOLUME id="10">
                        <par value="0" name="vol"/>
                      </VOLUME>
                      <VOLUME id="11">
                        <par value="0" name="vol"/>
                      </VOLUME>
                      <VOLUME id="12">
                        <par value="0" name="vol"/>
                      </VOLUME>
                      <VOLUME id="13">
                        <par value="0" name="vol"/>
                      </VOLUME>
                      <VOLUME id="14">
                        <par value="0" name="vol"/>
                      </VOLUME>
                      <VOLUME id="15">
                        <par value="0" name="vol"/>
                      </VOLUME>
                      <SENDTO id="2">
                        <par value="0" name="send_vol"/>
                      </SENDTO>
                      <SENDTO id="3">
                        <par value="0" name="send_vol"/>
                      </SENDTO>
                    </SYSTEM_EFFECT>
                    <SYSTEM_EFFECT id="2">
                      <EFFECT>
                        <par value="0" name="type"/>
                      </EFFECT>
                      <VOLUME id="0">
                        <par value="0" name="vol"/>
                      </VOLUME>
                      <VOLUME id="1">
                        <par value="0" name="vol"/>
                      </VOLUME>
                      <VOLUME id="2">
                        <par value="0" name="vol"/>
                      </VOLUME>
                      <VOLUME id="3">
                        <par value="0" name="vol"/>
                      </VOLUME>
                      <VOLUME id="4">
                        <par value="0" name="vol"/>
                      </VOLUME>
                      <VOLUME id="5">
                        <par value="0" name="vol"/>
                      </VOLUME>
                      <VOLUME id="6">
                        <par value="0" name="vol"/>
                      </VOLUME>
                      <VOLUME id="7">
                        <par value="0" name="vol"/>
                      </VOLUME>
                      <VOLUME id="8">
                        <par value="0" name="vol"/>
                      </VOLUME>
                      <VOLUME id="9">
                        <par value="0" name="vol"/>
                      </VOLUME>
                      <VOLUME id="10">
                        <par value="0" name="vol"/>
                      </VOLUME>
                      <VOLUME id="11">
                        <par value="0" name="vol"/>
                      </VOLUME>
                      <VOLUME id="12">
                        <par value="0" name="vol"/>
                      </VOLUME>
                      <VOLUME id="13">
                        <par value="0" name="vol"/>
                      </VOLUME>
                      <VOLUME id="14">
                        <par value="0" name="vol"/>
                      </VOLUME>
                      <VOLUME id="15">
                        <par value="0" name="vol"/>
                      </VOLUME>
                      <SENDTO id="3">
                        <par value="0" name="send_vol"/>
                      </SENDTO>
                    </SYSTEM_EFFECT>
                    <SYSTEM_EFFECT id="3">
                      <EFFECT>
                        <par value="0" name="type"/>
                      </EFFECT>
                      <VOLUME id="0">
                        <par value="0" name="vol"/>
                      </VOLUME>
                      <VOLUME id="1">
                        <par value="0" name="vol"/>
                      </VOLUME>
                      <VOLUME id="2">
                        <par value="0" name="vol"/>
                      </VOLUME>
                      <VOLUME id="3">
                        <par value="0" name="vol"/>
                      </VOLUME>
                      <VOLUME id="4">
                        <par value="0" name="vol"/>
                      </VOLUME>
                      <VOLUME id="5">
                        <par value="0" name="vol"/>
                      </VOLUME>
                      <VOLUME id="6">
                        <par value="0" name="vol"/>
                      </VOLUME>
                      <VOLUME id="7">
                        <par value="0" name="vol"/>
                      </VOLUME>
                      <VOLUME id="8">
                        <par value="0" name="vol"/>
                      </VOLUME>
                      <VOLUME id="9">
                        <par value="0" name="vol"/>
                      </VOLUME>
                      <VOLUME id="10">
                        <par value="0" name="vol"/>
                      </VOLUME>
                      <VOLUME id="11">
                        <par value="0" name="vol"/>
                      </VOLUME>
                      <VOLUME id="12">
                        <par value="0" name="vol"/>
                      </VOLUME>
                      <VOLUME id="13">
                        <par value="0" name="vol"/>
                      </VOLUME>
                      <VOLUME id="14">
                        <par value="0" name="vol"/>
                      </VOLUME>
                      <VOLUME id="15">
                        <par value="0" name="vol"/>
                      </VOLUME>
                    </SYSTEM_EFFECT>
                  </SYSTEM_EFFECTS>
                  <INSERTION_EFFECTS>
                    <INSERTION_EFFECT id="0">
                      <par value="-1" name="part"/>
                      <EFFECT>
                        <par value="0" name="type"/>
                      </EFFECT>
                    </INSERTION_EFFECT>
                    <INSERTION_EFFECT id="1">
                      <par value="-1" name="part"/>
                      <EFFECT>
                        <par value="0" name="type"/>
                      </EFFECT>
                    </INSERTION_EFFECT>
                    <INSERTION_EFFECT id="2">
                      <par value="-1" name="part"/>
                      <EFFECT>
                        <par value="0" name="type"/>
                      </EFFECT>
                    </INSERTION_EFFECT>
                    <INSERTION_EFFECT id="3">
                      <par value="-1" name="part"/>
                      <EFFECT>
                        <par value="0" name="type"/>
                      </EFFECT>
                    </INSERTION_EFFECT>
                    <INSERTION_EFFECT id="4">
                      <par value="-1" name="part"/>
                      <EFFECT>
                        <par value="0" name="type"/>
                      </EFFECT>
                    </INSERTION_EFFECT>
                    <INSERTION_EFFECT id="5">
                      <par value="-1" name="part"/>
                      <EFFECT>
                        <par value="0" name="type"/>
                      </EFFECT>
                    </INSERTION_EFFECT>
                    <INSERTION_EFFECT id="6">
                      <par value="-1" name="part"/>
                      <EFFECT>
                        <par value="0" name="type"/>
                      </EFFECT>
                    </INSERTION_EFFECT>
                    <INSERTION_EFFECT id="7">
                      <par value="-1" name="part"/>
                      <EFFECT>
                        <par value="0" name="type"/>
                      </EFFECT>
                    </INSERTION_EFFECT>
                  </INSERTION_EFFECTS>
                </MASTER>
              </ZynAddSubFX-data>
            </zynaddsubfx>
          </instrument>
          <eldata fcut="12819" ftype="0" fres="0.5" fwet="1">
            <elvol lpdel="0" dec="0.445" lamt="0" rel="0.14" userwavefile="" lspd="0.1" x100="0" latt="0" hold="0.08" lshp="0" sustain="0" lspd_numerator="4" att="0" lspd_syncmode="0" amt="1" ctlenvamt="0" lspd_denominator="4" pdel="0"/>
            <elcut lpdel="0" dec="0.14" lamt="0" rel="0.06" userwavefile="" lspd="0.1" x100="1" latt="0" hold="0" lshp="0" sustain="0" lspd_numerator="4" att="0.13" lspd_syncmode="0" amt="0" ctlenvamt="0" lspd_denominator="4" pdel="0"/>
            <elres lpdel="0" dec="0.5" lamt="0" rel="0.1" userwavefile="" lspd="0.1" x100="0" latt="0" hold="0.5" lshp="0" sustain="0.5" lspd_numerator="4" att="0" lspd_syncmode="0" amt="0" ctlenvamt="0" lspd_denominator="4" pdel="0"/>
          </eldata>
          <chordcreator chordrange="1" chord-enabled="0" chord="0"/>
          <arpeggiator arp-enabled="0" arptime_denominator="4" arpgate="100" arpskip="0" arptime="100" arpmode="0" arpmiss="0" arptime_numerator="4" arptime_syncmode="0" arprange="1" arp="0" arpdir="0" arpcycle="0"/>
          <midiport outputcontroller="0" readable="0" basevelocity="63" writable="0" outputprogram="1" fixedoutputvelocity="-1" fixedoutputnote="-1" outputchannel="1" inputchannel="0" inputcontroller="0" fixedinputvelocity="-1"/>
          <fxchain numofeffects="1" enabled="1">
            <effect on="1" gate="0" wet="1" autoquit_denominator="4" name="ladspaeffect" autoquit_numerator="4" autoquit="1" autoquit_syncmode="0">
              <ladspacontrols ports="4">
                <port02 data="0.90454"/>
                <port03 data="0.749"/>
                <port04 data="0.0005"/>
                <port05 data="0.3775"/>
              </ladspacontrols>
              <key>
                <attribute value="caps" name="file"/>
                <attribute value="Plate2x2" name="plugin"/>
              </key>
            </effect>
          </fxchain>
        </instrumenttrack>
        <pattern pos="6528" name="Fantasy Bell" muted="0" type="1" steps="16">
          <note vol="151" pos="0" key="63" pan="0" len="72"/>
          <note vol="151" pos="72" key="60" pan="0" len="72"/>
          <note vol="151" pos="144" key="63" pan="0" len="72"/>
          <note vol="151" pos="216" key="67" pan="0" len="72"/>
          <note vol="144" pos="288" key="72" pan="0" len="48"/>
          <note vol="144" pos="336" key="74" pan="0" len="48"/>
          <note vol="151" pos="384" key="75" pan="0" len="72"/>
          <note vol="151" pos="456" key="74" pan="0" len="72"/>
          <note vol="151" pos="528" key="70" pan="0" len="72"/>
          <note vol="151" pos="600" key="65" pan="0" len="72"/>
          <note vol="144" pos="672" key="63" pan="0" len="48"/>
          <note vol="144" pos="720" key="62" pan="0" len="48"/>
          <note vol="151" pos="768" key="63" pan="0" len="72"/>
          <note vol="151" pos="840" key="60" pan="0" len="72"/>
          <note vol="151" pos="912" key="63" pan="0" len="72"/>
          <note vol="151" pos="984" key="67" pan="0" len="72"/>
          <note vol="144" pos="1056" key="72" pan="0" len="48"/>
          <note vol="144" pos="1104" key="74" pan="0" len="48"/>
          <note vol="151" pos="1152" key="75" pan="0" len="72"/>
          <note vol="151" pos="1224" key="79" pan="0" len="72"/>
          <note vol="151" pos="1296" key="77" pan="0" len="72"/>
          <note vol="151" pos="1368" key="74" pan="0" len="72"/>
          <note vol="144" pos="1440" key="80" pan="0" len="48"/>
          <note vol="144" pos="1488" key="79" pan="0" len="48"/>
        </pattern>
        <pattern pos="26880" name="Fantasy Bell" muted="0" type="1" steps="16">
          <note vol="170" pos="0" key="76" pan="0" len="72"/>
          <note vol="170" pos="72" key="64" pan="0" len="72"/>
          <note vol="170" pos="144" key="67" pan="0" len="72"/>
          <note vol="170" pos="216" key="71" pan="0" len="72"/>
          <note vol="163" pos="288" key="76" pan="0" len="48"/>
          <note vol="163" pos="336" key="78" pan="0" len="48"/>
          <note vol="170" pos="384" key="79" pan="0" len="72"/>
          <note vol="170" pos="456" key="78" pan="0" len="72"/>
          <note vol="170" pos="528" key="74" pan="0" len="72"/>
          <note vol="170" pos="600" key="69" pan="0" len="72"/>
          <note vol="163" pos="672" key="67" pan="0" len="48"/>
          <note vol="163" pos="720" key="69" pan="0" len="48"/>
          <note vol="170" pos="768" key="71" pan="0" len="72"/>
          <note vol="170" pos="840" key="64" pan="0" len="72"/>
          <note vol="170" pos="912" key="67" pan="0" len="72"/>
          <note vol="170" pos="984" key="71" pan="0" len="72"/>
          <note vol="163" pos="1056" key="76" pan="0" len="48"/>
          <note vol="163" pos="1104" key="78" pan="0" len="48"/>
          <note vol="170" pos="1152" key="79" pan="0" len="72"/>
          <note vol="170" pos="1224" key="83" pan="0" len="72"/>
          <note vol="170" pos="1296" key="81" pan="0" len="72"/>
          <note vol="170" pos="1368" key="79" pan="0" len="72"/>
          <note vol="170" pos="1440" key="78" pan="0" len="48"/>
          <note vol="163" pos="1488" key="79" pan="0" len="48"/>
          <note vol="170" pos="1536" key="76" pan="0" len="72"/>
          <note vol="170" pos="1608" key="64" pan="0" len="72"/>
          <note vol="170" pos="1680" key="67" pan="0" len="72"/>
          <note vol="170" pos="1752" key="71" pan="0" len="72"/>
          <note vol="163" pos="1824" key="76" pan="0" len="48"/>
          <note vol="163" pos="1872" key="78" pan="0" len="48"/>
          <note vol="176" pos="1920" key="79" pan="0" len="72"/>
          <note vol="176" pos="1992" key="78" pan="0" len="72"/>
          <note vol="176" pos="2064" key="74" pan="0" len="72"/>
          <note vol="176" pos="2136" key="69" pan="0" len="72"/>
          <note vol="170" pos="2208" key="67" pan="0" len="48"/>
          <note vol="170" pos="2256" key="69" pan="0" len="48"/>
          <note vol="176" pos="2304" key="71" pan="0" len="72"/>
          <note vol="176" pos="2376" key="64" pan="0" len="72"/>
          <note vol="176" pos="2448" key="67" pan="0" len="72"/>
          <note vol="176" pos="2520" key="71" pan="0" len="72"/>
          <note vol="182" pos="2592" key="76" pan="0" len="48"/>
          <note vol="182" pos="2640" key="78" pan="0" len="48"/>
          <note vol="182" pos="2688" key="79" pan="0" len="72"/>
          <note vol="182" pos="2760" key="83" pan="0" len="72"/>
          <note vol="182" pos="2832" key="81" pan="0" len="72"/>
          <note vol="182" pos="2904" key="79" pan="0" len="72"/>
          <note vol="176" pos="2976" key="78" pan="0" len="48"/>
          <note vol="170" pos="3024" key="79" pan="0" len="48"/>
        </pattern>
        <pattern pos="31488" name="Fantasy Bell" muted="0" type="1" steps="16">
          <note vol="197" pos="60" key="64" pan="0" len="400"/>
        </pattern>
      </track>
      <track solo="0" name="choir" muted="0" type="0">
        <instrumenttrack vol="78.4" pitchrange="1" fxch="16" pitch="0" pan="0" usemasterpitch="1" basenote="57">
          <instrument name="sf2player">
            <sf2player chorusLevel="2" src="/home/pass/samples/soundfonts/Orchestra Soundfont 2 COMBO.sf2" reverbWidth="0.5" chorusOn="0" chorusNum="3" reverbDamping="0" chorusSpeed="0.3" chorusDepth="8" reverbOn="0" patch="52" gain="1" reverbRoomSize="0.2" bank="0" reverbLevel="0.9"/>
          </instrument>
          <eldata fcut="14000" ftype="0" fres="0.5" fwet="0">
            <elvol lpdel="0" dec="0.5" lamt="0" rel="0.1" userwavefile="" lspd="0.1" x100="0" latt="0" hold="0.5" lshp="0" sustain="0.5" lspd_numerator="4" att="0" lspd_syncmode="0" amt="0" ctlenvamt="0" lspd_denominator="4" pdel="0"/>
            <elcut lpdel="0" dec="0.5" lamt="0" rel="0.1" userwavefile="" lspd="0.1" x100="0" latt="0" hold="0.5" lshp="0" sustain="0.5" lspd_numerator="4" att="0" lspd_syncmode="0" amt="0" ctlenvamt="0" lspd_denominator="4" pdel="0"/>
            <elres lpdel="0" dec="0.5" lamt="0" rel="0.1" userwavefile="" lspd="0.1" x100="0" latt="0" hold="0.5" lshp="0" sustain="0.5" lspd_numerator="4" att="0" lspd_syncmode="0" amt="0" ctlenvamt="0" lspd_denominator="4" pdel="0"/>
          </eldata>
          <chordcreator chordrange="1" chord-enabled="0" chord="0"/>
          <arpeggiator arp-enabled="0" arptime_denominator="4" arpgate="100" arpskip="0" arptime="200" arpmode="0" arpmiss="0" arptime_numerator="4" arptime_syncmode="0" arprange="1" arp="0" arpdir="0" arpcycle="0"/>
          <midiport outputcontroller="0" readable="0" basevelocity="63" writable="0" outputprogram="1" fixedoutputvelocity="-1" fixedoutputnote="-1" outputchannel="1" inputchannel="0" inputcontroller="0" fixedinputvelocity="-1"/>
          <fxchain numofeffects="0" enabled="0"/>
        </instrumenttrack>
        <pattern pos="6528" name="choir" muted="0" type="1" steps="16">
          <note vol="197" pos="0" key="67" pan="0" len="384"/>
          <note vol="197" pos="0" key="63" pan="0" len="384"/>
          <note vol="197" pos="0" key="60" pan="0" len="384"/>
          <note vol="197" pos="384" key="68" pan="0" len="144"/>
          <note vol="197" pos="384" key="63" pan="0" len="144"/>
          <note vol="197" pos="384" key="60" pan="0" len="144"/>
          <note vol="197" pos="528" key="70" pan="0" len="240"/>
          <note vol="197" pos="528" key="65" pan="0" len="240"/>
          <note vol="197" pos="528" key="62" pan="0" len="240"/>
        </pattern>
        <pattern pos="26880" name="choir" muted="0" type="1" steps="16">
          <note vol="170" pos="0" key="64" pan="0" len="72"/>
          <note vol="170" pos="0" key="55" pan="0" len="72"/>
          <note vol="197" pos="0" key="52" pan="0" len="384"/>
          <note vol="197" pos="0" key="47" pan="0" len="384"/>
          <note vol="170" pos="72" key="52" pan="0" len="72"/>
          <note vol="170" pos="72" key="43" pan="0" len="72"/>
          <note vol="170" pos="144" key="55" pan="0" len="72"/>
          <note vol="170" pos="144" key="47" pan="0" len="72"/>
          <note vol="170" pos="216" key="59" pan="0" len="72"/>
          <note vol="170" pos="216" key="50" pan="0" len="72"/>
          <note vol="163" pos="288" key="64" pan="0" len="48"/>
          <note vol="163" pos="288" key="55" pan="0" len="48"/>
          <note vol="163" pos="336" key="66" pan="0" len="48"/>
          <note vol="163" pos="336" key="57" pan="0" len="48"/>
          <note vol="170" pos="384" key="67" pan="0" len="72"/>
          <note vol="170" pos="384" key="59" pan="0" len="72"/>
          <note vol="197" pos="384" key="52" pan="0" len="144"/>
          <note vol="197" pos="384" key="48" pan="0" len="144"/>
          <note vol="170" pos="456" key="66" pan="0" len="72"/>
          <note vol="170" pos="456" key="57" pan="0" len="72"/>
          <note vol="170" pos="528" key="62" pan="0" len="72"/>
          <note vol="170" pos="528" key="54" pan="0" len="72"/>
          <note vol="197" pos="528" key="54" pan="0" len="240"/>
          <note vol="197" pos="528" key="50" pan="0" len="240"/>
          <note vol="170" pos="600" key="57" pan="0" len="72"/>
          <note vol="170" pos="600" key="48" pan="0" len="72"/>
          <note vol="163" pos="672" key="55" pan="0" len="48"/>
          <note vol="163" pos="672" key="47" pan="0" len="48"/>
          <note vol="163" pos="720" key="57" pan="0" len="48"/>
          <note vol="163" pos="720" key="48" pan="0" len="48"/>
          <note vol="170" pos="768" key="59" pan="0" len="72"/>
          <note vol="197" pos="768" key="52" pan="0" len="384"/>
          <note vol="170" pos="768" key="50" pan="0" len="72"/>
          <note vol="197" pos="768" key="47" pan="0" len="384"/>
          <note vol="170" pos="840" key="52" pan="0" len="72"/>
          <note vol="170" pos="840" key="43" pan="0" len="72"/>
          <note vol="170" pos="912" key="55" pan="0" len="72"/>
          <note vol="170" pos="912" key="47" pan="0" len="72"/>
          <note vol="170" pos="984" key="59" pan="0" len="72"/>
          <note vol="170" pos="984" key="50" pan="0" len="72"/>
          <note vol="163" pos="1056" key="64" pan="0" len="48"/>
          <note vol="163" pos="1056" key="55" pan="0" len="48"/>
          <note vol="163" pos="1104" key="66" pan="0" len="48"/>
          <note vol="163" pos="1104" key="57" pan="0" len="48"/>
          <note vol="170" pos="1152" key="67" pan="0" len="72"/>
          <note vol="170" pos="1152" key="59" pan="0" len="72"/>
          <note vol="197" pos="1152" key="52" pan="0" len="144"/>
          <note vol="197" pos="1152" key="48" pan="0" len="144"/>
          <note vol="170" pos="1224" key="71" pan="0" len="72"/>
          <note vol="170" pos="1224" key="62" pan="0" len="72"/>
          <note vol="170" pos="1296" key="69" pan="0" len="72"/>
          <note vol="170" pos="1296" key="60" pan="0" len="72"/>
          <note vol="197" pos="1296" key="54" pan="0" len="240"/>
          <note vol="197" pos="1296" key="50" pan="0" len="240"/>
          <note vol="170" pos="1368" key="67" pan="0" len="72"/>
          <note vol="170" pos="1368" key="59" pan="0" len="72"/>
          <note vol="170" pos="1440" key="66" pan="0" len="48"/>
          <note vol="170" pos="1440" key="57" pan="0" len="48"/>
          <note vol="163" pos="1488" key="67" pan="0" len="48"/>
          <note vol="163" pos="1488" key="59" pan="0" len="48"/>
        </pattern>
        <pattern pos="28416" name="choir" muted="0" type="1" steps="16">
          <note vol="170" pos="0" key="64" pan="0" len="72"/>
          <note vol="170" pos="0" key="55" pan="0" len="72"/>
          <note vol="197" pos="0" key="52" pan="0" len="384"/>
          <note vol="197" pos="0" key="47" pan="0" len="384"/>
          <note vol="170" pos="72" key="52" pan="0" len="72"/>
          <note vol="170" pos="72" key="43" pan="0" len="72"/>
          <note vol="170" pos="144" key="55" pan="0" len="72"/>
          <note vol="170" pos="144" key="47" pan="0" len="72"/>
          <note vol="170" pos="216" key="59" pan="0" len="72"/>
          <note vol="170" pos="216" key="50" pan="0" len="72"/>
          <note vol="163" pos="288" key="64" pan="0" len="48"/>
          <note vol="163" pos="288" key="55" pan="0" len="48"/>
          <note vol="163" pos="336" key="66" pan="0" len="48"/>
          <note vol="163" pos="336" key="57" pan="0" len="48"/>
          <note vol="170" pos="384" key="67" pan="0" len="72"/>
          <note vol="170" pos="384" key="59" pan="0" len="72"/>
          <note vol="197" pos="384" key="52" pan="0" len="144"/>
          <note vol="197" pos="384" key="48" pan="0" len="144"/>
          <note vol="170" pos="456" key="66" pan="0" len="72"/>
          <note vol="170" pos="456" key="57" pan="0" len="72"/>
          <note vol="170" pos="528" key="62" pan="0" len="72"/>
          <note vol="170" pos="528" key="54" pan="0" len="72"/>
          <note vol="197" pos="528" key="54" pan="0" len="240"/>
          <note vol="197" pos="528" key="50" pan="0" len="240"/>
          <note vol="170" pos="600" key="57" pan="0" len="72"/>
          <note vol="170" pos="600" key="48" pan="0" len="72"/>
          <note vol="163" pos="672" key="55" pan="0" len="48"/>
          <note vol="163" pos="672" key="47" pan="0" len="48"/>
          <note vol="163" pos="720" key="57" pan="0" len="48"/>
          <note vol="163" pos="720" key="48" pan="0" len="48"/>
          <note vol="170" pos="768" key="59" pan="0" len="72"/>
          <note vol="197" pos="768" key="52" pan="0" len="384"/>
          <note vol="170" pos="768" key="50" pan="0" len="72"/>
          <note vol="197" pos="768" key="47" pan="0" len="384"/>
          <note vol="170" pos="840" key="52" pan="0" len="72"/>
          <note vol="170" pos="840" key="43" pan="0" len="72"/>
          <note vol="170" pos="912" key="55" pan="0" len="72"/>
          <note vol="170" pos="912" key="47" pan="0" len="72"/>
          <note vol="170" pos="984" key="59" pan="0" len="72"/>
          <note vol="170" pos="984" key="50" pan="0" len="72"/>
          <note vol="163" pos="1056" key="64" pan="0" len="48"/>
          <note vol="163" pos="1056" key="55" pan="0" len="48"/>
          <note vol="163" pos="1104" key="66" pan="0" len="48"/>
          <note vol="163" pos="1104" key="57" pan="0" len="48"/>
          <note vol="170" pos="1152" key="67" pan="0" len="72"/>
          <note vol="170" pos="1152" key="59" pan="0" len="72"/>
          <note vol="197" pos="1152" key="52" pan="0" len="144"/>
          <note vol="197" pos="1152" key="48" pan="0" len="144"/>
          <note vol="170" pos="1224" key="71" pan="0" len="72"/>
          <note vol="170" pos="1224" key="62" pan="0" len="72"/>
          <note vol="170" pos="1296" key="69" pan="0" len="72"/>
          <note vol="170" pos="1296" key="60" pan="0" len="72"/>
          <note vol="197" pos="1296" key="54" pan="0" len="240"/>
          <note vol="197" pos="1296" key="50" pan="0" len="240"/>
          <note vol="170" pos="1368" key="67" pan="0" len="72"/>
          <note vol="170" pos="1368" key="59" pan="0" len="72"/>
          <note vol="170" pos="1440" key="66" pan="0" len="48"/>
          <note vol="170" pos="1440" key="57" pan="0" len="48"/>
          <note vol="163" pos="1488" key="67" pan="0" len="48"/>
          <note vol="163" pos="1488" key="59" pan="0" len="48"/>
        </pattern>
        <pattern pos="0" name="choir" muted="0" type="1" steps="16">
          <note vol="195" pos="0" key="55" pan="0" len="192"/>
          <note vol="195" pos="0" key="51" pan="0" len="192"/>
          <note vol="195" pos="0" key="48" pan="0" len="192"/>
          <note vol="195" pos="192" key="56" pan="0" len="192"/>
          <note vol="195" pos="192" key="53" pan="0" len="192"/>
          <note vol="195" pos="192" key="48" pan="0" len="192"/>
          <note vol="195" pos="384" key="57" pan="0" len="192"/>
          <note vol="195" pos="384" key="52" pan="0" len="192"/>
          <note vol="195" pos="384" key="48" pan="0" len="192"/>
          <note vol="195" pos="576" key="56" pan="0" len="192"/>
          <note vol="195" pos="576" key="53" pan="0" len="192"/>
          <note vol="195" pos="576" key="48" pan="0" len="192"/>
        </pattern>
        <pattern pos="768" name="" muted="0" type="1" steps="16">
          <note vol="195" pos="0" key="55" pan="0" len="192"/>
          <note vol="195" pos="0" key="51" pan="0" len="192"/>
          <note vol="195" pos="0" key="48" pan="0" len="192"/>
          <note vol="195" pos="192" key="56" pan="0" len="192"/>
          <note vol="195" pos="192" key="53" pan="0" len="192"/>
          <note vol="195" pos="192" key="48" pan="0" len="192"/>
          <note vol="195" pos="384" key="57" pan="0" len="192"/>
          <note vol="195" pos="384" key="52" pan="0" len="192"/>
          <note vol="195" pos="384" key="48" pan="0" len="192"/>
          <note vol="195" pos="576" key="56" pan="0" len="192"/>
          <note vol="195" pos="576" key="53" pan="0" len="192"/>
          <note vol="195" pos="576" key="48" pan="0" len="192"/>
        </pattern>
        <pattern pos="7296" name="" muted="0" type="1" steps="16">
          <note vol="197" pos="0" key="72" pan="0" len="384"/>
          <note vol="197" pos="0" key="67" pan="0" len="384"/>
          <note vol="197" pos="0" key="63" pan="0" len="384"/>
          <note vol="197" pos="384" key="72" pan="0" len="144"/>
          <note vol="197" pos="384" key="68" pan="0" len="144"/>
          <note vol="197" pos="384" key="63" pan="0" len="144"/>
          <note vol="197" pos="528" key="74" pan="0" len="240"/>
          <note vol="197" pos="528" key="70" pan="0" len="240"/>
          <note vol="197" pos="528" key="65" pan="0" len="240"/>
        </pattern>
        <pattern pos="10368" name="" muted="0" type="1" steps="16">
          <note vol="170" pos="0" key="67" pan="0" len="384"/>
          <note vol="170" pos="0" key="63" pan="0" len="384"/>
          <note vol="170" pos="0" key="60" pan="0" len="384"/>
          <note vol="170" pos="384" key="66" pan="0" len="384"/>
          <note vol="170" pos="384" key="61" pan="0" len="384"/>
          <note vol="170" pos="384" key="58" pan="0" len="384"/>
        </pattern>
        <pattern pos="9600" name="" muted="0" type="1" steps="16">
          <note vol="170" pos="0" key="67" pan="0" len="384"/>
          <note vol="170" pos="0" key="63" pan="0" len="384"/>
          <note vol="170" pos="0" key="60" pan="0" len="384"/>
          <note vol="170" pos="384" key="66" pan="0" len="384"/>
          <note vol="170" pos="384" key="61" pan="0" len="384"/>
          <note vol="170" pos="384" key="58" pan="0" len="384"/>
        </pattern>
        <pattern pos="29952" name="" muted="0" type="1" steps="16">
          <note vol="157" pos="0" key="76" pan="0" len="72"/>
          <note vol="144" pos="72" key="64" pan="0" len="24"/>
          <note vol="144" pos="96" key="66" pan="0" len="24"/>
          <note vol="144" pos="120" key="67" pan="0" len="24"/>
          <note vol="144" pos="144" key="72" pan="0" len="72"/>
          <note vol="144" pos="216" key="71" pan="0" len="72"/>
          <note vol="144" pos="288" key="76" pan="0" len="24"/>
          <note vol="144" pos="312" key="71" pan="0" len="24"/>
          <note vol="144" pos="336" key="76" pan="0" len="24"/>
          <note vol="151" pos="360" key="78" pan="0" len="24"/>
          <note vol="157" pos="384" key="79" pan="0" len="24"/>
          <note vol="151" pos="408" key="78" pan="0" len="24"/>
          <note vol="144" pos="432" key="74" pan="0" len="24"/>
          <note vol="144" pos="456" key="69" pan="0" len="24"/>
          <note vol="144" pos="480" key="67" pan="0" len="24"/>
          <note vol="144" pos="504" key="66" pan="0" len="24"/>
          <note vol="138" pos="528" key="62" pan="0" len="48"/>
          <note vol="151" pos="600" key="62" pan="0" len="23"/>
          <note vol="151" pos="624" key="71" pan="0" len="23"/>
          <note vol="151" pos="648" key="67" pan="0" len="23"/>
          <note vol="151" pos="672" key="64" pan="0" len="23"/>
          <note vol="157" pos="696" key="66" pan="0" len="23"/>
          <note vol="151" pos="720" key="74" pan="0" len="12"/>
          <note vol="151" pos="732" key="76" pan="0" len="11"/>
          <note vol="157" pos="744" key="74" pan="0" len="23"/>
          <note vol="157" pos="768" key="67" pan="0" len="24"/>
          <note vol="132" pos="792" key="59" pan="0" len="24"/>
          <note vol="144" pos="816" key="64" pan="0" len="24"/>
          <note vol="151" pos="840" key="66" pan="0" len="24"/>
          <note vol="151" pos="864" key="59" pan="0" len="24"/>
          <note vol="151" pos="888" key="64" pan="0" len="24"/>
          <note vol="163" pos="912" key="67" pan="0" len="24"/>
          <note vol="151" pos="936" key="59" pan="0" len="24"/>
          <note vol="151" pos="960" key="64" pan="0" len="24"/>
          <note vol="163" pos="984" key="71" pan="0" len="24"/>
          <note vol="151" pos="1008" key="64" pan="0" len="24"/>
          <note vol="151" pos="1032" key="67" pan="0" len="24"/>
          <note vol="163" pos="1056" key="76" pan="0" len="24"/>
          <note vol="157" pos="1080" key="71" pan="0" len="24"/>
          <note vol="151" pos="1104" key="76" pan="0" len="24"/>
          <note vol="163" pos="1128" key="78" pan="0" len="24"/>
          <note vol="168" pos="1152" key="79" pan="0" len="24"/>
          <note vol="151" pos="1176" key="71" pan="0" len="24"/>
          <note vol="157" pos="1200" key="76" pan="0" len="24"/>
          <note vol="168" pos="1224" key="83" pan="0" len="48"/>
          <note vol="157" pos="1224" key="71" pan="0" len="48"/>
          <note vol="168" pos="1272" key="81" pan="0" len="48"/>
          <note vol="157" pos="1272" key="69" pan="0" len="48"/>
          <note vol="168" pos="1320" key="78" pan="0" len="48"/>
          <note vol="151" pos="1320" key="66" pan="0" len="48"/>
          <note vol="151" pos="1368" key="69" pan="0" len="24"/>
          <note vol="151" pos="1392" key="76" pan="0" len="24"/>
          <note vol="151" pos="1416" key="78" pan="0" len="24"/>
          <note vol="151" pos="1440" key="79" pan="0" len="72"/>
          <note vol="144" pos="1512" key="78" pan="0" len="84"/>
        </pattern>
      </track>
      <track solo="0" name="Blanchet-1720" muted="0" type="0">
        <instrumenttrack vol="135.2" pitchrange="2" fxch="0" pitch="0" pan="0.787402" usemasterpitch="1" basenote="57">
          <instrument name="sf2player">
            <sf2player chorusLevel="2" src="/home/pass/samples/soundfonts/Blanchet-1720.sf2" reverbWidth="0.5" chorusOn="0" chorusNum="3" reverbDamping="0" chorusSpeed="0.3" chorusDepth="8" reverbOn="0" patch="1" gain="1" reverbRoomSize="0.2" bank="1" reverbLevel="0.9"/>
          </instrument>
          <eldata fcut="14000" ftype="0" fres="0.5" fwet="0">
            <elvol lpdel="0" dec="0.5" lamt="0" rel="0.1" userwavefile="" lspd="0.1" x100="0" latt="0" hold="0.5" lshp="0" sustain="0.5" lspd_numerator="4" att="0" lspd_syncmode="0" amt="0" ctlenvamt="0" lspd_denominator="4" pdel="0"/>
            <elcut lpdel="0" dec="0.5" lamt="0" rel="0.1" userwavefile="" lspd="0.1" x100="0" latt="0" hold="0.5" lshp="0" sustain="0.5" lspd_numerator="4" att="0" lspd_syncmode="0" amt="0" ctlenvamt="0" lspd_denominator="4" pdel="0"/>
            <elres lpdel="0" dec="0.5" lamt="0" rel="0.1" userwavefile="" lspd="0.1" x100="0" latt="0" hold="0.5" lshp="0" sustain="0.5" lspd_numerator="4" att="0" lspd_syncmode="0" amt="0" ctlenvamt="0" lspd_denominator="4" pdel="0"/>
          </eldata>
          <chordcreator chordrange="1" chord-enabled="0" chord="0"/>
          <arpeggiator arp-enabled="0" arptime_denominator="4" arpgate="100" arpskip="0" arptime="200" arpmode="0" arpmiss="0" arptime_numerator="4" arptime_syncmode="0" arprange="1" arp="0" arpdir="0" arpcycle="0"/>
          <midiport outputcontroller="0" readable="0" basevelocity="63" writable="0" outputprogram="1" fixedoutputvelocity="-1" fixedoutputnote="-1" outputchannel="1" inputchannel="0" inputcontroller="0" fixedinputvelocity="-1"/>
          <fxchain numofeffects="0" enabled="0"/>
        </instrumenttrack>
        <pattern pos="0" name="Blanchet-1720" muted="0" type="0" steps="16"/>
        <pattern pos="9600" name="Blanchet-1720" muted="0" type="1" steps="16">
          <note vol="197" pos="0" key="67" pan="0" len="12"/>
          <note vol="197" pos="12" key="63" pan="0" len="12"/>
          <note vol="197" pos="24" key="60" pan="0" len="12"/>
          <note vol="197" pos="36" key="63" pan="0" len="12"/>
          <note vol="197" pos="48" key="55" pan="0" len="12"/>
          <note vol="197" pos="60" key="60" pan="0" len="12"/>
          <note vol="197" pos="72" key="51" pan="0" len="12"/>
          <note vol="197" pos="84" key="55" pan="0" len="12"/>
          <note vol="197" pos="96" key="48" pan="0" len="12"/>
          <note vol="197" pos="108" key="55" pan="0" len="12"/>
          <note vol="197" pos="120" key="51" pan="0" len="12"/>
          <note vol="197" pos="132" key="55" pan="0" len="12"/>
          <note vol="197" pos="144" key="60" pan="0" len="12"/>
          <note vol="197" pos="156" key="67" pan="0" len="12"/>
          <note vol="197" pos="168" key="65" pan="0" len="12"/>
          <note vol="197" pos="180" key="63" pan="0" len="12"/>
          <note vol="197" pos="192" key="67" pan="0" len="12"/>
          <note vol="197" pos="204" key="63" pan="0" len="12"/>
          <note vol="197" pos="216" key="60" pan="0" len="12"/>
          <note vol="197" pos="228" key="63" pan="0" len="12"/>
          <note vol="197" pos="240" key="55" pan="0" len="12"/>
          <note vol="197" pos="252" key="60" pan="0" len="12"/>
          <note vol="197" pos="264" key="51" pan="0" len="12"/>
          <note vol="197" pos="276" key="55" pan="0" len="12"/>
          <note vol="197" pos="288" key="48" pan="0" len="12"/>
          <note vol="197" pos="300" key="55" pan="0" len="12"/>
          <note vol="197" pos="312" key="51" pan="0" len="12"/>
          <note vol="197" pos="324" key="55" pan="0" len="12"/>
          <note vol="197" pos="336" key="60" pan="0" len="12"/>
          <note vol="197" pos="348" key="67" pan="0" len="12"/>
          <note vol="197" pos="360" key="65" pan="0" len="12"/>
          <note vol="197" pos="372" key="63" pan="0" len="12"/>
          <note vol="197" pos="384" key="66" pan="0" len="12"/>
          <note vol="197" pos="396" key="61" pan="0" len="12"/>
          <note vol="197" pos="408" key="60" pan="0" len="12"/>
          <note vol="197" pos="420" key="61" pan="0" len="12"/>
          <note vol="197" pos="432" key="58" pan="0" len="12"/>
          <note vol="197" pos="444" key="61" pan="0" len="12"/>
          <note vol="197" pos="456" key="54" pan="0" len="12"/>
          <note vol="197" pos="468" key="61" pan="0" len="12"/>
          <note vol="197" pos="480" key="49" pan="0" len="12"/>
          <note vol="197" pos="492" key="61" pan="0" len="12"/>
          <note vol="197" pos="504" key="60" pan="0" len="12"/>
          <note vol="197" pos="516" key="58" pan="0" len="12"/>
          <note vol="197" pos="528" key="54" pan="0" len="12"/>
          <note vol="197" pos="540" key="58" pan="0" len="12"/>
          <note vol="197" pos="552" key="60" pan="0" len="12"/>
          <note vol="197" pos="564" key="65" pan="0" len="12"/>
          <note vol="197" pos="576" key="66" pan="0" len="12"/>
          <note vol="197" pos="588" key="61" pan="0" len="12"/>
          <note vol="197" pos="600" key="60" pan="0" len="12"/>
          <note vol="197" pos="612" key="61" pan="0" len="12"/>
          <note vol="197" pos="624" key="58" pan="0" len="12"/>
          <note vol="197" pos="636" key="61" pan="0" len="12"/>
          <note vol="197" pos="648" key="49" pan="0" len="12"/>
          <note vol="197" pos="660" key="61" pan="0" len="12"/>
          <note vol="197" pos="672" key="54" pan="0" len="12"/>
          <note vol="197" pos="684" key="61" pan="0" len="12"/>
          <note vol="197" pos="696" key="60" pan="0" len="12"/>
          <note vol="197" pos="708" key="61" pan="0" len="12"/>
          <note vol="197" pos="720" key="66" pan="0" len="12"/>
          <note vol="197" pos="732" key="70" pan="0" len="12"/>
          <note vol="197" pos="744" key="72" pan="0" len="12"/>
          <note vol="197" pos="756" key="73" pan="0" len="12"/>
          <note vol="197" pos="768" key="67" pan="0" len="12"/>
          <note vol="197" pos="780" key="63" pan="0" len="12"/>
          <note vol="197" pos="792" key="60" pan="0" len="12"/>
          <note vol="197" pos="804" key="63" pan="0" len="12"/>
          <note vol="197" pos="816" key="55" pan="0" len="12"/>
          <note vol="197" pos="828" key="60" pan="0" len="12"/>
          <note vol="197" pos="840" key="51" pan="0" len="12"/>
          <note vol="197" pos="852" key="55" pan="0" len="12"/>
          <note vol="197" pos="864" key="48" pan="0" len="12"/>
          <note vol="197" pos="876" key="55" pan="0" len="12"/>
          <note vol="197" pos="888" key="51" pan="0" len="12"/>
          <note vol="197" pos="900" key="55" pan="0" len="12"/>
          <note vol="197" pos="912" key="60" pan="0" len="12"/>
          <note vol="197" pos="924" key="67" pan="0" len="12"/>
          <note vol="197" pos="936" key="65" pan="0" len="12"/>
          <note vol="197" pos="948" key="63" pan="0" len="12"/>
          <note vol="197" pos="960" key="67" pan="0" len="12"/>
          <note vol="197" pos="972" key="63" pan="0" len="12"/>
          <note vol="197" pos="984" key="60" pan="0" len="12"/>
          <note vol="197" pos="996" key="63" pan="0" len="12"/>
          <note vol="197" pos="1008" key="55" pan="0" len="12"/>
          <note vol="197" pos="1020" key="60" pan="0" len="12"/>
          <note vol="197" pos="1032" key="51" pan="0" len="12"/>
          <note vol="197" pos="1044" key="55" pan="0" len="12"/>
          <note vol="197" pos="1056" key="48" pan="0" len="12"/>
          <note vol="197" pos="1068" key="55" pan="0" len="12"/>
          <note vol="197" pos="1080" key="51" pan="0" len="12"/>
          <note vol="197" pos="1092" key="55" pan="0" len="12"/>
          <note vol="197" pos="1104" key="60" pan="0" len="12"/>
          <note vol="197" pos="1116" key="67" pan="0" len="12"/>
          <note vol="197" pos="1128" key="65" pan="0" len="12"/>
          <note vol="197" pos="1140" key="63" pan="0" len="12"/>
        </pattern>
        <pattern pos="1536" name="Blanchet-1720" muted="0" type="1" steps="16">
          <note vol="157" pos="0" key="48" pan="0" len="12"/>
          <note vol="151" pos="12" key="43" pan="0" len="12"/>
          <note vol="151" pos="24" key="48" pan="0" len="12"/>
          <note vol="151" pos="36" key="51" pan="0" len="12"/>
          <note vol="163" pos="48" key="50" pan="0" len="12"/>
          <note vol="151" pos="60" key="43" pan="0" len="12"/>
          <note vol="151" pos="72" key="50" pan="0" len="12"/>
          <note vol="157" pos="84" key="53" pan="0" len="12"/>
          <note vol="170" pos="96" key="51" pan="0" len="12"/>
          <note vol="151" pos="108" key="43" pan="0" len="12"/>
          <note vol="151" pos="120" key="51" pan="0" len="12"/>
          <note vol="163" pos="132" key="55" pan="0" len="12"/>
          <note vol="176" pos="144" key="53" pan="0" len="12"/>
          <note vol="151" pos="156" key="50" pan="0" len="12"/>
          <note vol="151" pos="168" key="51" pan="0" len="12"/>
          <note vol="151" pos="180" key="48" pan="0" len="12"/>
          <note vol="151" pos="192" key="47" pan="0" len="12"/>
          <note vol="151" pos="204" key="43" pan="0" len="12"/>
          <note vol="151" pos="216" key="47" pan="0" len="12"/>
          <note vol="151" pos="228" key="50" pan="0" len="12"/>
          <note vol="157" pos="240" key="53" pan="0" len="12"/>
          <note vol="157" pos="252" key="50" pan="0" len="12"/>
          <note vol="163" pos="264" key="53" pan="0" len="12"/>
          <note vol="170" pos="276" key="55" pan="0" len="12"/>
          <note vol="176" pos="288" key="59" pan="0" len="24"/>
        </pattern>
        <pattern pos="4608" name="Blanchet-1720" muted="0" type="1" steps="16">
          <note vol="170" pos="0" key="67" pan="0" len="12"/>
          <note vol="163" pos="12" key="68" pan="0" len="12"/>
          <note vol="163" pos="24" key="67" pan="0" len="12"/>
          <note vol="163" pos="36" key="65" pan="0" len="12"/>
          <note vol="170" pos="48" key="63" pan="0" len="12"/>
          <note vol="157" pos="60" key="65" pan="0" len="12"/>
          <note vol="151" pos="72" key="63" pan="0" len="12"/>
          <note vol="151" pos="84" key="62" pan="0" len="12"/>
          <note vol="151" pos="96" key="58" pan="0" len="12"/>
          <note vol="157" pos="108" key="63" pan="0" len="12"/>
          <note vol="157" pos="120" key="67" pan="0" len="12"/>
          <note vol="163" pos="132" key="70" pan="0" len="12"/>
          <note vol="157" pos="144" key="67" pan="0" len="12"/>
          <note vol="151" pos="156" key="63" pan="0" len="12"/>
          <note vol="144" pos="168" key="62" pan="0" len="12"/>
          <note vol="144" pos="180" key="63" pan="0" len="12"/>
          <note vol="170" pos="192" key="62" pan="0" len="12"/>
          <note vol="157" pos="204" key="65" pan="0" len="12"/>
          <note vol="157" pos="216" key="62" pan="0" len="12"/>
          <note vol="157" pos="228" key="59" pan="0" len="12"/>
          <note vol="163" pos="240" key="55" pan="0" len="12"/>
          <note vol="151" pos="252" key="59" pan="0" len="12"/>
          <note vol="151" pos="264" key="55" pan="0" len="12"/>
          <note vol="151" pos="276" key="50" pan="0" len="12"/>
          <note vol="151" pos="288" key="47" pan="0" len="12"/>
          <note vol="151" pos="300" key="50" pan="0" len="12"/>
          <note vol="151" pos="312" key="55" pan="0" len="12"/>
          <note vol="144" pos="324" key="59" pan="0" len="12"/>
          <note vol="157" pos="336" key="55" pan="0" len="12"/>
          <note vol="157" pos="348" key="62" pan="0" len="12"/>
          <note vol="157" pos="360" key="67" pan="0" len="12"/>
          <note vol="157" pos="372" key="71" pan="0" len="12"/>
        </pattern>
        <pattern pos="2304" name="" muted="0" type="1" steps="16">
          <note vol="157" pos="0" key="67" pan="0" len="12"/>
          <note vol="157" pos="0" key="0" pan="0" len="12"/>
          <note vol="132" pos="12" key="55" pan="0" len="12"/>
          <note vol="157" pos="12" key="1" pan="0" len="12"/>
          <note vol="138" pos="24" key="60" pan="0" len="12"/>
          <note vol="157" pos="36" key="63" pan="0" len="12"/>
          <note vol="157" pos="36" key="0" pan="0" len="12"/>
          <note vol="138" pos="48" key="55" pan="0" len="12"/>
          <note vol="157" pos="48" key="1" pan="0" len="12"/>
          <note vol="138" pos="60" key="60" pan="0" len="12"/>
          <note vol="157" pos="72" key="65" pan="0" len="12"/>
          <note vol="157" pos="72" key="0" pan="0" len="12"/>
          <note vol="138" pos="84" key="55" pan="0" len="12"/>
          <note vol="157" pos="84" key="1" pan="0" len="12"/>
          <note vol="138" pos="96" key="60" pan="0" len="12"/>
          <note vol="157" pos="108" key="62" pan="0" len="12"/>
          <note vol="157" pos="108" key="0" pan="0" len="12"/>
          <note vol="138" pos="120" key="55" pan="0" len="12"/>
          <note vol="157" pos="120" key="1" pan="0" len="12"/>
          <note vol="138" pos="132" key="60" pan="0" len="12"/>
          <note vol="157" pos="144" key="63" pan="0" len="12"/>
          <note vol="157" pos="144" key="0" pan="0" len="12"/>
          <note vol="157" pos="156" key="62" pan="0" len="12"/>
          <note vol="157" pos="156" key="1" pan="0" len="12"/>
          <note vol="157" pos="168" key="60" pan="0" len="12"/>
          <note vol="157" pos="180" key="55" pan="0" len="12"/>
          <note vol="157" pos="192" key="67" pan="0" len="12"/>
          <note vol="157" pos="192" key="0" pan="0" len="12"/>
          <note vol="132" pos="204" key="55" pan="0" len="12"/>
          <note vol="157" pos="204" key="1" pan="0" len="12"/>
          <note vol="138" pos="216" key="60" pan="0" len="12"/>
          <note vol="157" pos="228" key="63" pan="0" len="12"/>
          <note vol="157" pos="228" key="0" pan="0" len="12"/>
          <note vol="138" pos="240" key="55" pan="0" len="12"/>
          <note vol="157" pos="240" key="1" pan="0" len="12"/>
          <note vol="138" pos="252" key="60" pan="0" len="12"/>
          <note vol="157" pos="264" key="65" pan="0" len="12"/>
          <note vol="157" pos="264" key="0" pan="0" len="12"/>
          <note vol="138" pos="276" key="55" pan="0" len="12"/>
          <note vol="157" pos="276" key="1" pan="0" len="12"/>
          <note vol="138" pos="288" key="60" pan="0" len="12"/>
          <note vol="157" pos="300" key="62" pan="0" len="12"/>
          <note vol="157" pos="300" key="0" pan="0" len="12"/>
          <note vol="138" pos="312" key="55" pan="0" len="12"/>
          <note vol="157" pos="312" key="1" pan="0" len="12"/>
          <note vol="138" pos="324" key="60" pan="0" len="12"/>
          <note vol="157" pos="336" key="63" pan="0" len="12"/>
          <note vol="157" pos="336" key="0" pan="0" len="12"/>
          <note vol="157" pos="348" key="62" pan="0" len="12"/>
          <note vol="157" pos="360" key="63" pan="0" len="12"/>
          <note vol="157" pos="372" key="65" pan="0" len="12"/>
        </pattern>
        <pattern pos="3072" name="" muted="0" type="1" steps="16">
          <note vol="170" pos="0" key="60" pan="0" len="12"/>
          <note vol="157" pos="0" key="1" pan="0" len="12"/>
          <note vol="151" pos="12" key="48" pan="0" len="12"/>
          <note vol="151" pos="24" key="55" pan="0" len="12"/>
          <note vol="170" pos="36" key="62" pan="0" len="12"/>
          <note vol="151" pos="48" key="48" pan="0" len="12"/>
          <note vol="151" pos="60" key="55" pan="0" len="12"/>
          <note vol="170" pos="72" key="60" pan="0" len="12"/>
          <note vol="151" pos="84" key="48" pan="0" len="12"/>
          <note vol="151" pos="96" key="55" pan="0" len="12"/>
          <note vol="170" pos="108" key="63" pan="0" len="12"/>
          <note vol="151" pos="120" key="48" pan="0" len="12"/>
          <note vol="151" pos="132" key="55" pan="0" len="12"/>
          <note vol="170" pos="144" key="62" pan="0" len="12"/>
          <note vol="170" pos="156" key="63" pan="0" len="12"/>
          <note vol="170" pos="168" key="62" pan="0" len="12"/>
          <note vol="170" pos="180" key="58" pan="0" len="12"/>
          <note vol="170" pos="192" key="60" pan="0" len="12"/>
          <note vol="151" pos="204" key="48" pan="0" len="12"/>
          <note vol="151" pos="216" key="55" pan="0" len="12"/>
          <note vol="170" pos="228" key="58" pan="0" len="12"/>
          <note vol="151" pos="240" key="48" pan="0" len="12"/>
          <note vol="151" pos="252" key="53" pan="0" len="12"/>
          <note vol="170" pos="264" key="55" pan="0" len="12"/>
          <note vol="151" pos="276" key="51" pan="0" len="12"/>
          <note vol="157" pos="288" key="53" pan="0" len="12"/>
          <note vol="157" pos="300" key="51" pan="0" len="12"/>
          <note vol="163" pos="312" key="53" pan="0" len="12"/>
          <note vol="163" pos="324" key="55" pan="0" len="12"/>
          <note vol="163" pos="336" key="56" pan="0" len="12"/>
          <note vol="163" pos="348" key="55" pan="0" len="12"/>
          <note vol="170" pos="360" key="56" pan="0" len="12"/>
          <note vol="170" pos="372" key="58" pan="0" len="12"/>
        </pattern>
        <pattern pos="3840" name="" muted="0" type="1" steps="16">
          <note vol="170" pos="0" key="67" pan="0" len="12"/>
          <note vol="151" pos="0" key="1" pan="0" len="12"/>
          <note vol="144" pos="12" key="55" pan="0" len="12"/>
          <note vol="151" pos="24" key="60" pan="0" len="12"/>
          <note vol="170" pos="36" key="63" pan="0" len="12"/>
          <note vol="151" pos="48" key="55" pan="0" len="12"/>
          <note vol="151" pos="60" key="60" pan="0" len="12"/>
          <note vol="170" pos="72" key="65" pan="0" len="12"/>
          <note vol="151" pos="84" key="55" pan="0" len="12"/>
          <note vol="151" pos="96" key="60" pan="0" len="12"/>
          <note vol="170" pos="108" key="62" pan="0" len="12"/>
          <note vol="151" pos="120" key="55" pan="0" len="12"/>
          <note vol="157" pos="132" key="60" pan="0" len="12"/>
          <note vol="170" pos="144" key="63" pan="0" len="12"/>
          <note vol="170" pos="156" key="65" pan="0" len="12"/>
          <note vol="170" pos="168" key="67" pan="0" len="12"/>
          <note vol="170" pos="180" key="68" pan="0" len="12"/>
          <note vol="170" pos="192" key="70" pan="0" len="12"/>
          <note vol="100" pos="192" key="0" pan="0" len="48"/>
          <note vol="144" pos="204" key="55" pan="0" len="12"/>
          <note vol="151" pos="216" key="60" pan="0" len="12"/>
          <note vol="170" pos="228" key="67" pan="0" len="12"/>
          <note vol="151" pos="240" key="55" pan="0" len="12"/>
          <note vol="100" pos="240" key="1" pan="0" len="48"/>
          <note vol="151" pos="252" key="60" pan="0" len="12"/>
          <note vol="170" pos="264" key="68" pan="0" len="12"/>
          <note vol="151" pos="276" key="55" pan="0" len="12"/>
          <note vol="151" pos="288" key="60" pan="0" len="12"/>
          <note vol="170" pos="300" key="65" pan="0" len="12"/>
          <note vol="151" pos="312" key="55" pan="0" len="12"/>
          <note vol="151" pos="324" key="60" pan="0" len="12"/>
          <note vol="170" pos="336" key="67" pan="0" len="12"/>
          <note vol="170" pos="348" key="65" pan="0" len="12"/>
          <note vol="170" pos="360" key="63" pan="0" len="12"/>
          <note vol="170" pos="372" key="60" pan="0" len="12"/>
        </pattern>
        <pattern pos="23424" name="" muted="0" type="1" steps="16">
          <note vol="170" pos="0" key="67" pan="0" len="12"/>
          <note vol="163" pos="12" key="68" pan="0" len="12"/>
          <note vol="163" pos="24" key="67" pan="0" len="12"/>
          <note vol="163" pos="36" key="65" pan="0" len="12"/>
          <note vol="170" pos="48" key="63" pan="0" len="12"/>
          <note vol="157" pos="60" key="65" pan="0" len="12"/>
          <note vol="151" pos="72" key="63" pan="0" len="12"/>
          <note vol="151" pos="84" key="62" pan="0" len="12"/>
          <note vol="151" pos="96" key="58" pan="0" len="12"/>
          <note vol="157" pos="108" key="63" pan="0" len="12"/>
          <note vol="157" pos="120" key="67" pan="0" len="12"/>
          <note vol="163" pos="132" key="70" pan="0" len="12"/>
          <note vol="157" pos="144" key="67" pan="0" len="12"/>
          <note vol="151" pos="156" key="63" pan="0" len="12"/>
          <note vol="144" pos="168" key="62" pan="0" len="12"/>
          <note vol="144" pos="180" key="63" pan="0" len="12"/>
          <note vol="170" pos="192" key="62" pan="0" len="12"/>
          <note vol="157" pos="204" key="65" pan="0" len="12"/>
          <note vol="157" pos="216" key="62" pan="0" len="12"/>
          <note vol="157" pos="228" key="59" pan="0" len="12"/>
          <note vol="163" pos="240" key="55" pan="0" len="12"/>
          <note vol="151" pos="252" key="59" pan="0" len="12"/>
          <note vol="151" pos="264" key="55" pan="0" len="12"/>
          <note vol="151" pos="276" key="50" pan="0" len="12"/>
          <note vol="151" pos="288" key="47" pan="0" len="12"/>
          <note vol="151" pos="300" key="50" pan="0" len="12"/>
          <note vol="151" pos="312" key="55" pan="0" len="12"/>
          <note vol="144" pos="324" key="59" pan="0" len="12"/>
          <note vol="157" pos="336" key="55" pan="0" len="12"/>
          <note vol="157" pos="348" key="62" pan="0" len="12"/>
          <note vol="157" pos="360" key="67" pan="0" len="12"/>
          <note vol="157" pos="372" key="71" pan="0" len="12"/>
        </pattern>
        <pattern pos="22656" name="" muted="0" type="1" steps="16">
          <note vol="170" pos="0" key="67" pan="0" len="12"/>
          <note vol="151" pos="0" key="1" pan="0" len="12"/>
          <note vol="144" pos="12" key="55" pan="0" len="12"/>
          <note vol="151" pos="24" key="60" pan="0" len="12"/>
          <note vol="170" pos="36" key="63" pan="0" len="12"/>
          <note vol="151" pos="48" key="55" pan="0" len="12"/>
          <note vol="151" pos="60" key="60" pan="0" len="12"/>
          <note vol="170" pos="72" key="65" pan="0" len="12"/>
          <note vol="151" pos="84" key="55" pan="0" len="12"/>
          <note vol="151" pos="96" key="60" pan="0" len="12"/>
          <note vol="170" pos="108" key="62" pan="0" len="12"/>
          <note vol="151" pos="120" key="55" pan="0" len="12"/>
          <note vol="157" pos="132" key="60" pan="0" len="12"/>
          <note vol="170" pos="144" key="63" pan="0" len="12"/>
          <note vol="170" pos="156" key="65" pan="0" len="12"/>
          <note vol="170" pos="168" key="67" pan="0" len="12"/>
          <note vol="170" pos="180" key="68" pan="0" len="12"/>
          <note vol="170" pos="192" key="70" pan="0" len="12"/>
          <note vol="100" pos="192" key="0" pan="0" len="48"/>
          <note vol="144" pos="204" key="55" pan="0" len="12"/>
          <note vol="151" pos="216" key="60" pan="0" len="12"/>
          <note vol="170" pos="228" key="67" pan="0" len="12"/>
          <note vol="151" pos="240" key="55" pan="0" len="12"/>
          <note vol="100" pos="240" key="1" pan="0" len="48"/>
          <note vol="151" pos="252" key="60" pan="0" len="12"/>
          <note vol="170" pos="264" key="68" pan="0" len="12"/>
          <note vol="151" pos="276" key="55" pan="0" len="12"/>
          <note vol="151" pos="288" key="60" pan="0" len="12"/>
          <note vol="170" pos="300" key="65" pan="0" len="12"/>
          <note vol="151" pos="312" key="55" pan="0" len="12"/>
          <note vol="151" pos="324" key="60" pan="0" len="12"/>
          <note vol="170" pos="336" key="67" pan="0" len="12"/>
          <note vol="170" pos="348" key="65" pan="0" len="12"/>
          <note vol="170" pos="360" key="63" pan="0" len="12"/>
          <note vol="170" pos="372" key="60" pan="0" len="12"/>
        </pattern>
        <pattern pos="21888" name="" muted="0" type="1" steps="16">
          <note vol="170" pos="0" key="60" pan="0" len="12"/>
          <note vol="157" pos="0" key="1" pan="0" len="12"/>
          <note vol="151" pos="12" key="48" pan="0" len="12"/>
          <note vol="151" pos="24" key="55" pan="0" len="12"/>
          <note vol="170" pos="36" key="62" pan="0" len="12"/>
          <note vol="151" pos="48" key="48" pan="0" len="12"/>
          <note vol="151" pos="60" key="55" pan="0" len="12"/>
          <note vol="170" pos="72" key="60" pan="0" len="12"/>
          <note vol="151" pos="84" key="48" pan="0" len="12"/>
          <note vol="151" pos="96" key="55" pan="0" len="12"/>
          <note vol="170" pos="108" key="63" pan="0" len="12"/>
          <note vol="151" pos="120" key="48" pan="0" len="12"/>
          <note vol="151" pos="132" key="55" pan="0" len="12"/>
          <note vol="170" pos="144" key="62" pan="0" len="12"/>
          <note vol="170" pos="156" key="63" pan="0" len="12"/>
          <note vol="170" pos="168" key="62" pan="0" len="12"/>
          <note vol="170" pos="180" key="58" pan="0" len="12"/>
          <note vol="170" pos="192" key="60" pan="0" len="12"/>
          <note vol="151" pos="204" key="48" pan="0" len="12"/>
          <note vol="151" pos="216" key="55" pan="0" len="12"/>
          <note vol="170" pos="228" key="58" pan="0" len="12"/>
          <note vol="151" pos="240" key="48" pan="0" len="12"/>
          <note vol="151" pos="252" key="53" pan="0" len="12"/>
          <note vol="170" pos="264" key="55" pan="0" len="12"/>
          <note vol="151" pos="276" key="51" pan="0" len="12"/>
          <note vol="157" pos="288" key="53" pan="0" len="12"/>
          <note vol="157" pos="300" key="51" pan="0" len="12"/>
          <note vol="163" pos="312" key="53" pan="0" len="12"/>
          <note vol="163" pos="324" key="55" pan="0" len="12"/>
          <note vol="163" pos="336" key="56" pan="0" len="12"/>
          <note vol="163" pos="348" key="55" pan="0" len="12"/>
          <note vol="170" pos="360" key="56" pan="0" len="12"/>
          <note vol="170" pos="372" key="58" pan="0" len="12"/>
        </pattern>
        <pattern pos="21120" name="" muted="0" type="1" steps="16">
          <note vol="157" pos="0" key="67" pan="0" len="12"/>
          <note vol="157" pos="0" key="0" pan="0" len="12"/>
          <note vol="132" pos="12" key="55" pan="0" len="12"/>
          <note vol="157" pos="12" key="1" pan="0" len="12"/>
          <note vol="138" pos="24" key="60" pan="0" len="12"/>
          <note vol="157" pos="36" key="63" pan="0" len="12"/>
          <note vol="157" pos="36" key="0" pan="0" len="12"/>
          <note vol="138" pos="48" key="55" pan="0" len="12"/>
          <note vol="157" pos="48" key="1" pan="0" len="12"/>
          <note vol="138" pos="60" key="60" pan="0" len="12"/>
          <note vol="157" pos="72" key="65" pan="0" len="12"/>
          <note vol="157" pos="72" key="0" pan="0" len="12"/>
          <note vol="138" pos="84" key="55" pan="0" len="12"/>
          <note vol="157" pos="84" key="1" pan="0" len="12"/>
          <note vol="138" pos="96" key="60" pan="0" len="12"/>
          <note vol="157" pos="108" key="62" pan="0" len="12"/>
          <note vol="157" pos="108" key="0" pan="0" len="12"/>
          <note vol="138" pos="120" key="55" pan="0" len="12"/>
          <note vol="157" pos="120" key="1" pan="0" len="12"/>
          <note vol="138" pos="132" key="60" pan="0" len="12"/>
          <note vol="157" pos="144" key="63" pan="0" len="12"/>
          <note vol="157" pos="144" key="0" pan="0" len="12"/>
          <note vol="157" pos="156" key="62" pan="0" len="12"/>
          <note vol="157" pos="156" key="1" pan="0" len="12"/>
          <note vol="157" pos="168" key="60" pan="0" len="12"/>
          <note vol="157" pos="180" key="55" pan="0" len="12"/>
          <note vol="157" pos="192" key="67" pan="0" len="12"/>
          <note vol="157" pos="192" key="0" pan="0" len="12"/>
          <note vol="132" pos="204" key="55" pan="0" len="12"/>
          <note vol="157" pos="204" key="1" pan="0" len="12"/>
          <note vol="138" pos="216" key="60" pan="0" len="12"/>
          <note vol="157" pos="228" key="63" pan="0" len="12"/>
          <note vol="157" pos="228" key="0" pan="0" len="12"/>
          <note vol="138" pos="240" key="55" pan="0" len="12"/>
          <note vol="157" pos="240" key="1" pan="0" len="12"/>
          <note vol="138" pos="252" key="60" pan="0" len="12"/>
          <note vol="157" pos="264" key="65" pan="0" len="12"/>
          <note vol="157" pos="264" key="0" pan="0" len="12"/>
          <note vol="138" pos="276" key="55" pan="0" len="12"/>
          <note vol="157" pos="276" key="1" pan="0" len="12"/>
          <note vol="138" pos="288" key="60" pan="0" len="12"/>
          <note vol="157" pos="300" key="62" pan="0" len="12"/>
          <note vol="157" pos="300" key="0" pan="0" len="12"/>
          <note vol="138" pos="312" key="55" pan="0" len="12"/>
          <note vol="157" pos="312" key="1" pan="0" len="12"/>
          <note vol="138" pos="324" key="60" pan="0" len="12"/>
          <note vol="157" pos="336" key="63" pan="0" len="12"/>
          <note vol="157" pos="336" key="0" pan="0" len="12"/>
          <note vol="157" pos="348" key="62" pan="0" len="12"/>
          <note vol="157" pos="360" key="63" pan="0" len="12"/>
          <note vol="157" pos="372" key="65" pan="0" len="12"/>
        </pattern>
        <pattern pos="20160" name="Blanchet-1720" muted="0" type="1" steps="16">
          <note vol="151" pos="96" key="60" pan="0" len="12"/>
          <note vol="151" pos="108" key="58" pan="0" len="12"/>
          <note vol="157" pos="120" key="60" pan="0" len="12"/>
          <note vol="157" pos="132" key="62" pan="0" len="12"/>
          <note vol="163" pos="144" key="63" pan="0" len="12"/>
          <note vol="163" pos="156" key="62" pan="0" len="12"/>
          <note vol="163" pos="168" key="60" pan="0" len="12"/>
          <note vol="163" pos="180" key="62" pan="0" len="12"/>
          <note vol="170" pos="192" key="65" pan="0" len="12"/>
          <note vol="170" pos="204" key="62" pan="0" len="12"/>
          <note vol="170" pos="216" key="59" pan="0" len="12"/>
          <note vol="170" pos="228" key="62" pan="0" len="12"/>
          <note vol="163" pos="240" key="59" pan="0" len="12"/>
          <note vol="163" pos="252" key="56" pan="0" len="12"/>
          <note vol="163" pos="264" key="53" pan="0" len="12"/>
          <note vol="163" pos="276" key="56" pan="0" len="12"/>
          <note vol="157" pos="288" key="53" pan="0" len="12"/>
          <note vol="157" pos="300" key="50" pan="0" len="12"/>
          <note vol="157" pos="312" key="47" pan="0" len="12"/>
          <note vol="157" pos="324" key="50" pan="0" len="12"/>
          <note vol="151" pos="336" key="47" pan="0" len="12"/>
          <note vol="151" pos="348" key="44" pan="0" len="12"/>
          <note vol="151" pos="360" key="41" pan="0" len="12"/>
          <note vol="151" pos="372" key="44" pan="0" len="12"/>
          <note vol="151" pos="384" key="43" pan="0" len="12"/>
          <note vol="151" pos="396" key="45" pan="0" len="12"/>
          <note vol="157" pos="408" key="47" pan="0" len="12"/>
          <note vol="157" pos="420" key="50" pan="0" len="12"/>
          <note vol="163" pos="432" key="47" pan="0" len="12"/>
          <note vol="163" pos="444" key="50" pan="0" len="12"/>
          <note vol="163" pos="456" key="53" pan="0" len="12"/>
          <note vol="170" pos="468" key="56" pan="0" len="12"/>
          <note vol="176" pos="480" key="55" pan="0" len="24"/>
        </pattern>
      </track>
      <track solo="0" name="piano" muted="0" type="0">
        <instrumenttrack vol="97.6" pitchrange="2" fxch="18" pitch="0" pan="0.787402" usemasterpitch="1" basenote="57">
          <instrument name="sf2player">
            <sf2player chorusLevel="2" src="/home/pass/samples/soundfonts/Orchestra Soundfont 2 COMBO.sf2" reverbWidth="0.5" chorusOn="0" chorusNum="3" reverbDamping="0" chorusSpeed="0.3" chorusDepth="8" reverbOn="0" patch="0" gain="1.7" reverbRoomSize="0.2" bank="0" reverbLevel="0.9"/>
          </instrument>
          <eldata fcut="14000" ftype="0" fres="0.5" fwet="0">
            <elvol lpdel="0" dec="0.5" lamt="0" rel="0.1" userwavefile="" lspd="0.1" x100="0" latt="0" hold="0.5" lshp="0" sustain="0.5" lspd_numerator="4" att="0" lspd_syncmode="0" amt="0" ctlenvamt="0" lspd_denominator="4" pdel="0"/>
            <elcut lpdel="0" dec="0.5" lamt="0" rel="0.1" userwavefile="" lspd="0.1" x100="0" latt="0" hold="0.5" lshp="0" sustain="0.5" lspd_numerator="4" att="0" lspd_syncmode="0" amt="0" ctlenvamt="0" lspd_denominator="4" pdel="0"/>
            <elres lpdel="0" dec="0.5" lamt="0" rel="0.1" userwavefile="" lspd="0.1" x100="0" latt="0" hold="0.5" lshp="0" sustain="0.5" lspd_numerator="4" att="0" lspd_syncmode="0" amt="0" ctlenvamt="0" lspd_denominator="4" pdel="0"/>
          </eldata>
          <chordcreator chordrange="1" chord-enabled="0" chord="0"/>
          <arpeggiator arp-enabled="0" arptime_denominator="4" arpgate="100" arpskip="0" arptime="200" arpmode="0" arpmiss="0" arptime_numerator="4" arptime_syncmode="0" arprange="1" arp="0" arpdir="0" arpcycle="0"/>
          <midiport outputcontroller="0" readable="0" basevelocity="63" writable="0" outputprogram="1" fixedoutputvelocity="-1" fixedoutputnote="-1" outputchannel="1" inputchannel="0" inputcontroller="0" fixedinputvelocity="-1"/>
          <fxchain numofeffects="0" enabled="0"/>
        </instrumenttrack>
        <pattern pos="4992" name="piano" muted="0" type="1" steps="16">
          <note vol="170" pos="0" key="72" pan="0" len="72"/>
          <note vol="138" pos="0" key="24" pan="0" len="72"/>
          <note vol="157" pos="72" key="60" pan="0" len="72"/>
          <note vol="125" pos="72" key="36" pan="0" len="24"/>
          <note vol="125" pos="96" key="38" pan="0" len="24"/>
          <note vol="132" pos="120" key="39" pan="0" len="24"/>
          <note vol="163" pos="144" key="63" pan="0" len="72"/>
          <note vol="138" pos="144" key="43" pan="0" len="72"/>
          <note vol="170" pos="216" key="67" pan="0" len="72"/>
          <note vol="138" pos="216" key="50" pan="0" len="72"/>
          <note vol="138" pos="216" key="44" pan="0" len="72"/>
          <note vol="157" pos="288" key="72" pan="0" len="24"/>
          <note vol="138" pos="288" key="46" pan="0" len="96"/>
          <note vol="138" pos="288" key="39" pan="0" len="96"/>
          <note vol="157" pos="312" key="67" pan="0" len="24"/>
          <note vol="157" pos="336" key="72" pan="0" len="24"/>
          <note vol="163" pos="360" key="74" pan="0" len="24"/>
          <note vol="170" pos="384" key="75" pan="0" len="24"/>
          <note vol="163" pos="408" key="74" pan="0" len="24"/>
          <note vol="144" pos="408" key="27" pan="0" len="24"/>
          <note vol="157" pos="432" key="70" pan="0" len="24"/>
          <note vol="138" pos="432" key="32" pan="0" len="24"/>
          <note vol="157" pos="456" key="65" pan="0" len="24"/>
          <note vol="151" pos="456" key="36" pan="0" len="24"/>
          <note vol="157" pos="480" key="63" pan="0" len="24"/>
          <note vol="151" pos="480" key="39" pan="0" len="24"/>
          <note vol="157" pos="504" key="62" pan="0" len="24"/>
          <note vol="151" pos="504" key="43" pan="0" len="24"/>
          <note vol="151" pos="528" key="58" pan="0" len="24"/>
          <note vol="138" pos="528" key="44" pan="0" len="48"/>
          <note vol="151" pos="552" key="53" pan="0" len="24"/>
          <note vol="151" pos="576" key="22" pan="0" len="23"/>
          <note vol="163" pos="600" key="58" pan="0" len="23"/>
          <note vol="151" pos="600" key="29" pan="0" len="23"/>
          <note vol="163" pos="624" key="67" pan="0" len="23"/>
          <note vol="151" pos="624" key="34" pan="0" len="47"/>
          <note vol="163" pos="648" key="63" pan="0" len="23"/>
          <note vol="163" pos="672" key="60" pan="0" len="23"/>
          <note vol="151" pos="672" key="38" pan="0" len="23"/>
          <note vol="170" pos="696" key="62" pan="0" len="23"/>
          <note vol="151" pos="696" key="41" pan="0" len="23"/>
          <note vol="163" pos="720" key="70" pan="0" len="12"/>
          <note vol="151" pos="720" key="46" pan="0" len="47"/>
          <note vol="163" pos="732" key="72" pan="0" len="11"/>
          <note vol="170" pos="744" key="70" pan="0" len="23"/>
          <note vol="170" pos="768" key="63" pan="0" len="24"/>
          <note vol="157" pos="768" key="39" pan="0" len="72"/>
          <note vol="144" pos="792" key="55" pan="0" len="24"/>
          <note vol="157" pos="816" key="60" pan="0" len="24"/>
          <note vol="163" pos="840" key="62" pan="0" len="24"/>
          <note vol="151" pos="840" key="38" pan="0" len="72"/>
          <note vol="163" pos="864" key="55" pan="0" len="24"/>
          <note vol="163" pos="888" key="60" pan="0" len="24"/>
          <note vol="176" pos="912" key="63" pan="0" len="24"/>
          <note vol="151" pos="912" key="34" pan="0" len="72"/>
          <note vol="163" pos="936" key="55" pan="0" len="24"/>
          <note vol="163" pos="960" key="60" pan="0" len="24"/>
          <note vol="176" pos="984" key="67" pan="0" len="24"/>
          <note vol="157" pos="984" key="39" pan="0" len="72"/>
          <note vol="163" pos="1008" key="60" pan="0" len="24"/>
          <note vol="163" pos="1032" key="63" pan="0" len="24"/>
          <note vol="176" pos="1056" key="72" pan="0" len="24"/>
          <note vol="157" pos="1056" key="38" pan="0" len="48"/>
          <note vol="176" pos="1080" key="67" pan="0" len="24"/>
          <note vol="176" pos="1104" key="72" pan="0" len="24"/>
          <note vol="157" pos="1104" key="34" pan="0" len="48"/>
          <note vol="176" pos="1128" key="74" pan="0" len="24"/>
          <note vol="181" pos="1152" key="75" pan="0" len="24"/>
          <note vol="163" pos="1176" key="67" pan="0" len="24"/>
          <note vol="132" pos="1176" key="27" pan="0" len="23"/>
          <note vol="170" pos="1200" key="72" pan="0" len="24"/>
          <note vol="132" pos="1200" key="32" pan="0" len="23"/>
          <note vol="181" pos="1224" key="79" pan="0" len="48"/>
          <note vol="170" pos="1224" key="67" pan="0" len="48"/>
          <note vol="138" pos="1224" key="34" pan="0" len="47"/>
          <note vol="181" pos="1272" key="77" pan="0" len="48"/>
          <note vol="170" pos="1272" key="65" pan="0" len="48"/>
          <note vol="144" pos="1272" key="39" pan="0" len="23"/>
          <note vol="151" pos="1296" key="43" pan="0" len="23"/>
          <note vol="181" pos="1320" key="74" pan="0" len="48"/>
          <note vol="163" pos="1320" key="62" pan="0" len="48"/>
          <note vol="144" pos="1320" key="44" pan="0" len="23"/>
          <note vol="144" pos="1344" key="22" pan="0" len="23"/>
          <note vol="163" pos="1368" key="65" pan="0" len="24"/>
          <note vol="138" pos="1368" key="43" pan="0" len="23"/>
          <note vol="163" pos="1392" key="72" pan="0" len="24"/>
          <note vol="138" pos="1392" key="44" pan="0" len="23"/>
          <note vol="163" pos="1416" key="74" pan="0" len="24"/>
          <note vol="138" pos="1416" key="46" pan="0" len="23"/>
          <note vol="163" pos="1440" key="75" pan="0" len="48"/>
          <note vol="157" pos="1440" key="58" pan="0" len="47"/>
          <note vol="157" pos="1488" key="74" pan="0" len="48"/>
          <note vol="144" pos="1488" key="56" pan="0" len="23"/>
          <note vol="138" pos="1512" key="55" pan="0" len="23"/>
        </pattern>
        <pattern pos="14208" name="piano" muted="0" type="1" steps="16">
          <note vol="157" pos="0" key="63" pan="0" len="24"/>
          <note vol="125" pos="0" key="36" pan="0" len="48"/>
          <note vol="138" pos="24" key="55" pan="0" len="24"/>
          <note vol="144" pos="48" key="60" pan="0" len="24"/>
          <note vol="125" pos="48" key="36" pan="0" len="48"/>
          <note vol="151" pos="72" key="62" pan="0" len="24"/>
          <note vol="157" pos="96" key="63" pan="0" len="24"/>
          <note vol="125" pos="96" key="36" pan="0" len="48"/>
          <note vol="138" pos="120" key="55" pan="0" len="24"/>
          <note vol="144" pos="144" key="60" pan="0" len="24"/>
          <note vol="125" pos="144" key="36" pan="0" len="48"/>
          <note vol="151" pos="168" key="63" pan="0" len="24"/>
          <note vol="157" pos="192" key="62" pan="0" len="24"/>
          <note vol="125" pos="192" key="34" pan="0" len="48"/>
          <note vol="144" pos="216" key="53" pan="0" len="24"/>
          <note vol="144" pos="240" key="58" pan="0" len="24"/>
          <note vol="125" pos="240" key="34" pan="0" len="48"/>
          <note vol="157" pos="264" key="60" pan="0" len="48"/>
          <note vol="125" pos="288" key="32" pan="0" len="48"/>
          <note vol="138" pos="312" key="51" pan="0" len="24"/>
          <note vol="144" pos="336" key="58" pan="0" len="24"/>
          <note vol="125" pos="336" key="32" pan="0" len="48"/>
          <note vol="138" pos="360" key="56" pan="0" len="24"/>
          <note vol="144" pos="384" key="58" pan="0" len="24"/>
          <note vol="125" pos="384" key="39" pan="0" len="48"/>
          <note vol="132" pos="408" key="46" pan="0" len="24"/>
          <note vol="151" pos="432" key="51" pan="0" len="24"/>
          <note vol="125" pos="432" key="39" pan="0" len="48"/>
          <note vol="132" pos="456" key="46" pan="0" len="24"/>
          <note vol="151" pos="480" key="51" pan="0" len="24"/>
          <note vol="125" pos="480" key="39" pan="0" len="48"/>
          <note vol="151" pos="504" key="53" pan="0" len="24"/>
          <note vol="151" pos="528" key="55" pan="0" len="24"/>
          <note vol="125" pos="528" key="39" pan="0" len="48"/>
          <note vol="157" pos="552" key="58" pan="0" len="24"/>
          <note vol="151" pos="576" key="56" pan="0" len="24"/>
          <note vol="125" pos="576" key="32" pan="0" len="48"/>
          <note vol="138" pos="600" key="48" pan="0" len="24"/>
          <note vol="151" pos="624" key="53" pan="0" len="24"/>
          <note vol="125" pos="624" key="32" pan="0" len="48"/>
          <note vol="157" pos="648" key="55" pan="0" len="48"/>
          <note vol="125" pos="672" key="31" pan="0" len="48"/>
          <note vol="138" pos="696" key="48" pan="0" len="24"/>
          <note vol="144" pos="720" key="50" pan="0" len="24"/>
          <note vol="125" pos="720" key="31" pan="0" len="48"/>
          <note vol="144" pos="744" key="51" pan="0" len="24"/>
          <note vol="157" pos="768" key="63" pan="0" len="24"/>
          <note vol="132" pos="768" key="36" pan="0" len="24"/>
          <note vol="138" pos="792" key="55" pan="0" len="24"/>
          <note vol="119" pos="792" key="36" pan="0" len="24"/>
          <note vol="144" pos="816" key="60" pan="0" len="24"/>
          <note vol="132" pos="816" key="36" pan="0" len="24"/>
          <note vol="151" pos="840" key="62" pan="0" len="24"/>
          <note vol="119" pos="840" key="36" pan="0" len="24"/>
          <note vol="157" pos="864" key="63" pan="0" len="24"/>
          <note vol="132" pos="864" key="36" pan="0" len="24"/>
          <note vol="138" pos="888" key="55" pan="0" len="24"/>
          <note vol="119" pos="888" key="36" pan="0" len="24"/>
          <note vol="144" pos="912" key="60" pan="0" len="24"/>
          <note vol="132" pos="912" key="36" pan="0" len="24"/>
          <note vol="151" pos="936" key="63" pan="0" len="24"/>
          <note vol="119" pos="936" key="36" pan="0" len="24"/>
          <note vol="157" pos="960" key="62" pan="0" len="24"/>
          <note vol="138" pos="960" key="38" pan="0" len="24"/>
          <note vol="144" pos="984" key="53" pan="0" len="24"/>
          <note vol="138" pos="984" key="38" pan="0" len="24"/>
          <note vol="157" pos="1008" key="67" pan="0" len="24"/>
          <note vol="138" pos="1008" key="38" pan="0" len="24"/>
          <note vol="157" pos="1032" key="60" pan="0" len="48"/>
          <note vol="144" pos="1032" key="39" pan="0" len="24"/>
          <note vol="144" pos="1056" key="39" pan="0" len="24"/>
          <note vol="138" pos="1080" key="51" pan="0" len="24"/>
          <note vol="144" pos="1080" key="39" pan="0" len="24"/>
          <note vol="144" pos="1104" key="58" pan="0" len="24"/>
          <note vol="144" pos="1104" key="39" pan="0" len="24"/>
          <note vol="138" pos="1128" key="56" pan="0" len="24"/>
          <note vol="144" pos="1128" key="39" pan="0" len="24"/>
          <note vol="144" pos="1152" key="58" pan="0" len="24"/>
          <note vol="132" pos="1152" key="31" pan="0" len="24"/>
          <note vol="132" pos="1176" key="46" pan="0" len="24"/>
          <note vol="119" pos="1176" key="31" pan="0" len="24"/>
          <note vol="151" pos="1200" key="51" pan="0" len="24"/>
          <note vol="132" pos="1200" key="31" pan="0" len="24"/>
          <note vol="132" pos="1224" key="46" pan="0" len="24"/>
          <note vol="119" pos="1224" key="31" pan="0" len="24"/>
          <note vol="151" pos="1248" key="51" pan="0" len="24"/>
          <note vol="132" pos="1248" key="31" pan="0" len="24"/>
          <note vol="151" pos="1272" key="53" pan="0" len="24"/>
          <note vol="119" pos="1272" key="31" pan="0" len="24"/>
          <note vol="151" pos="1296" key="55" pan="0" len="24"/>
          <note vol="132" pos="1296" key="31" pan="0" len="24"/>
          <note vol="157" pos="1320" key="58" pan="0" len="24"/>
          <note vol="119" pos="1320" key="31" pan="0" len="24"/>
          <note vol="151" pos="1344" key="56" pan="0" len="24"/>
          <note vol="132" pos="1344" key="29" pan="0" len="24"/>
          <note vol="138" pos="1368" key="48" pan="0" len="24"/>
          <note vol="119" pos="1368" key="29" pan="0" len="24"/>
          <note vol="151" pos="1392" key="53" pan="0" len="24"/>
          <note vol="132" pos="1392" key="29" pan="0" len="24"/>
          <note vol="157" pos="1416" key="60" pan="0" len="48"/>
          <note vol="119" pos="1416" key="27" pan="0" len="24"/>
          <note vol="132" pos="1440" key="27" pan="0" len="24"/>
          <note vol="151" pos="1464" key="63" pan="0" len="24"/>
          <note vol="138" pos="1464" key="27" pan="0" len="24"/>
          <note vol="151" pos="1488" key="62" pan="0" len="24"/>
          <note vol="144" pos="1488" key="27" pan="0" len="24"/>
          <note vol="151" pos="1512" key="60" pan="0" len="24"/>
          <note vol="144" pos="1512" key="27" pan="0" len="24"/>
        </pattern>
        <pattern pos="15744" name="" muted="0" type="1" steps="16">
          <note vol="157" pos="0" key="63" pan="0" len="24"/>
          <note vol="125" pos="0" key="36" pan="0" len="48"/>
          <note vol="138" pos="24" key="55" pan="0" len="24"/>
          <note vol="144" pos="48" key="60" pan="0" len="24"/>
          <note vol="125" pos="48" key="36" pan="0" len="48"/>
          <note vol="151" pos="72" key="62" pan="0" len="24"/>
          <note vol="157" pos="96" key="63" pan="0" len="24"/>
          <note vol="125" pos="96" key="36" pan="0" len="48"/>
          <note vol="138" pos="120" key="55" pan="0" len="24"/>
          <note vol="144" pos="144" key="60" pan="0" len="24"/>
          <note vol="125" pos="144" key="36" pan="0" len="48"/>
          <note vol="151" pos="168" key="63" pan="0" len="24"/>
          <note vol="157" pos="192" key="62" pan="0" len="24"/>
          <note vol="125" pos="192" key="34" pan="0" len="48"/>
          <note vol="144" pos="216" key="53" pan="0" len="24"/>
          <note vol="144" pos="240" key="58" pan="0" len="24"/>
          <note vol="125" pos="240" key="34" pan="0" len="48"/>
          <note vol="157" pos="264" key="60" pan="0" len="48"/>
          <note vol="125" pos="288" key="32" pan="0" len="48"/>
          <note vol="138" pos="312" key="51" pan="0" len="24"/>
          <note vol="144" pos="336" key="58" pan="0" len="24"/>
          <note vol="125" pos="336" key="32" pan="0" len="48"/>
          <note vol="138" pos="360" key="56" pan="0" len="24"/>
          <note vol="144" pos="384" key="58" pan="0" len="24"/>
          <note vol="125" pos="384" key="39" pan="0" len="48"/>
          <note vol="132" pos="408" key="46" pan="0" len="24"/>
          <note vol="151" pos="432" key="51" pan="0" len="24"/>
          <note vol="125" pos="432" key="39" pan="0" len="48"/>
          <note vol="132" pos="456" key="46" pan="0" len="24"/>
          <note vol="151" pos="480" key="51" pan="0" len="24"/>
          <note vol="125" pos="480" key="39" pan="0" len="48"/>
          <note vol="151" pos="504" key="53" pan="0" len="24"/>
          <note vol="151" pos="528" key="55" pan="0" len="24"/>
          <note vol="125" pos="528" key="39" pan="0" len="48"/>
          <note vol="157" pos="552" key="58" pan="0" len="24"/>
          <note vol="151" pos="576" key="56" pan="0" len="24"/>
          <note vol="125" pos="576" key="32" pan="0" len="48"/>
          <note vol="138" pos="600" key="48" pan="0" len="24"/>
          <note vol="151" pos="624" key="53" pan="0" len="24"/>
          <note vol="125" pos="624" key="32" pan="0" len="48"/>
          <note vol="157" pos="648" key="55" pan="0" len="48"/>
          <note vol="125" pos="672" key="31" pan="0" len="48"/>
          <note vol="138" pos="696" key="48" pan="0" len="24"/>
          <note vol="144" pos="720" key="50" pan="0" len="24"/>
          <note vol="125" pos="720" key="31" pan="0" len="48"/>
          <note vol="144" pos="744" key="51" pan="0" len="24"/>
          <note vol="157" pos="768" key="63" pan="0" len="24"/>
          <note vol="132" pos="768" key="36" pan="0" len="24"/>
          <note vol="138" pos="792" key="55" pan="0" len="24"/>
          <note vol="119" pos="792" key="36" pan="0" len="24"/>
          <note vol="144" pos="816" key="60" pan="0" len="24"/>
          <note vol="132" pos="816" key="36" pan="0" len="24"/>
          <note vol="151" pos="840" key="62" pan="0" len="24"/>
          <note vol="119" pos="840" key="36" pan="0" len="24"/>
          <note vol="157" pos="864" key="63" pan="0" len="24"/>
          <note vol="132" pos="864" key="36" pan="0" len="24"/>
          <note vol="138" pos="888" key="55" pan="0" len="24"/>
          <note vol="119" pos="888" key="36" pan="0" len="24"/>
          <note vol="144" pos="912" key="60" pan="0" len="24"/>
          <note vol="132" pos="912" key="36" pan="0" len="24"/>
          <note vol="151" pos="936" key="63" pan="0" len="24"/>
          <note vol="119" pos="936" key="36" pan="0" len="24"/>
          <note vol="157" pos="960" key="62" pan="0" len="24"/>
          <note vol="138" pos="960" key="38" pan="0" len="24"/>
          <note vol="144" pos="984" key="53" pan="0" len="24"/>
          <note vol="138" pos="984" key="38" pan="0" len="24"/>
          <note vol="157" pos="1008" key="67" pan="0" len="24"/>
          <note vol="138" pos="1008" key="38" pan="0" len="24"/>
          <note vol="157" pos="1032" key="60" pan="0" len="48"/>
          <note vol="144" pos="1032" key="39" pan="0" len="24"/>
          <note vol="144" pos="1056" key="39" pan="0" len="24"/>
          <note vol="138" pos="1080" key="51" pan="0" len="24"/>
          <note vol="144" pos="1080" key="39" pan="0" len="24"/>
          <note vol="144" pos="1104" key="58" pan="0" len="24"/>
          <note vol="144" pos="1104" key="39" pan="0" len="24"/>
          <note vol="138" pos="1128" key="56" pan="0" len="24"/>
          <note vol="144" pos="1128" key="39" pan="0" len="24"/>
          <note vol="144" pos="1152" key="58" pan="0" len="24"/>
          <note vol="132" pos="1152" key="31" pan="0" len="24"/>
          <note vol="132" pos="1176" key="46" pan="0" len="24"/>
          <note vol="119" pos="1176" key="31" pan="0" len="24"/>
          <note vol="151" pos="1200" key="51" pan="0" len="24"/>
          <note vol="132" pos="1200" key="31" pan="0" len="24"/>
          <note vol="132" pos="1224" key="46" pan="0" len="24"/>
          <note vol="119" pos="1224" key="31" pan="0" len="24"/>
          <note vol="151" pos="1248" key="51" pan="0" len="24"/>
          <note vol="132" pos="1248" key="31" pan="0" len="24"/>
          <note vol="151" pos="1272" key="53" pan="0" len="24"/>
          <note vol="119" pos="1272" key="31" pan="0" len="24"/>
          <note vol="151" pos="1296" key="55" pan="0" len="24"/>
          <note vol="132" pos="1296" key="31" pan="0" len="24"/>
          <note vol="157" pos="1320" key="58" pan="0" len="24"/>
          <note vol="119" pos="1320" key="31" pan="0" len="24"/>
          <note vol="151" pos="1344" key="56" pan="0" len="24"/>
          <note vol="132" pos="1344" key="29" pan="0" len="24"/>
          <note vol="138" pos="1368" key="48" pan="0" len="24"/>
          <note vol="119" pos="1368" key="29" pan="0" len="24"/>
          <note vol="151" pos="1392" key="53" pan="0" len="24"/>
          <note vol="132" pos="1392" key="29" pan="0" len="24"/>
          <note vol="157" pos="1416" key="60" pan="0" len="48"/>
          <note vol="119" pos="1416" key="27" pan="0" len="24"/>
          <note vol="132" pos="1440" key="27" pan="0" len="24"/>
          <note vol="151" pos="1464" key="63" pan="0" len="24"/>
          <note vol="138" pos="1464" key="27" pan="0" len="24"/>
          <note vol="151" pos="1488" key="62" pan="0" len="24"/>
          <note vol="144" pos="1488" key="27" pan="0" len="24"/>
          <note vol="151" pos="1512" key="60" pan="0" len="24"/>
          <note vol="144" pos="1512" key="27" pan="0" len="24"/>
        </pattern>
        <pattern pos="23808" name="" muted="0" type="1" steps="16">
          <note vol="170" pos="0" key="72" pan="0" len="72"/>
          <note vol="138" pos="0" key="24" pan="0" len="72"/>
          <note vol="157" pos="72" key="60" pan="0" len="72"/>
          <note vol="125" pos="72" key="36" pan="0" len="24"/>
          <note vol="125" pos="96" key="38" pan="0" len="24"/>
          <note vol="132" pos="120" key="39" pan="0" len="24"/>
          <note vol="163" pos="144" key="63" pan="0" len="72"/>
          <note vol="138" pos="144" key="43" pan="0" len="72"/>
          <note vol="170" pos="216" key="67" pan="0" len="72"/>
          <note vol="138" pos="216" key="50" pan="0" len="72"/>
          <note vol="138" pos="216" key="44" pan="0" len="72"/>
          <note vol="157" pos="288" key="72" pan="0" len="24"/>
          <note vol="138" pos="288" key="46" pan="0" len="96"/>
          <note vol="138" pos="288" key="39" pan="0" len="96"/>
          <note vol="157" pos="312" key="67" pan="0" len="24"/>
          <note vol="157" pos="336" key="72" pan="0" len="24"/>
          <note vol="163" pos="360" key="74" pan="0" len="24"/>
          <note vol="170" pos="384" key="75" pan="0" len="24"/>
          <note vol="163" pos="408" key="74" pan="0" len="24"/>
          <note vol="144" pos="408" key="27" pan="0" len="24"/>
          <note vol="157" pos="432" key="70" pan="0" len="24"/>
          <note vol="138" pos="432" key="32" pan="0" len="24"/>
          <note vol="157" pos="456" key="65" pan="0" len="24"/>
          <note vol="151" pos="456" key="36" pan="0" len="24"/>
          <note vol="157" pos="480" key="63" pan="0" len="24"/>
          <note vol="151" pos="480" key="39" pan="0" len="24"/>
          <note vol="157" pos="504" key="62" pan="0" len="24"/>
          <note vol="151" pos="504" key="43" pan="0" len="24"/>
          <note vol="151" pos="528" key="58" pan="0" len="24"/>
          <note vol="138" pos="528" key="44" pan="0" len="48"/>
          <note vol="151" pos="552" key="53" pan="0" len="24"/>
          <note vol="151" pos="576" key="22" pan="0" len="23"/>
          <note vol="163" pos="600" key="58" pan="0" len="23"/>
          <note vol="151" pos="600" key="29" pan="0" len="23"/>
          <note vol="163" pos="624" key="67" pan="0" len="23"/>
          <note vol="151" pos="624" key="34" pan="0" len="47"/>
          <note vol="163" pos="648" key="63" pan="0" len="23"/>
          <note vol="163" pos="672" key="60" pan="0" len="23"/>
          <note vol="151" pos="672" key="38" pan="0" len="23"/>
          <note vol="170" pos="696" key="62" pan="0" len="23"/>
          <note vol="151" pos="696" key="41" pan="0" len="23"/>
          <note vol="163" pos="720" key="70" pan="0" len="12"/>
          <note vol="151" pos="720" key="46" pan="0" len="47"/>
          <note vol="163" pos="732" key="72" pan="0" len="11"/>
          <note vol="170" pos="744" key="70" pan="0" len="23"/>
          <note vol="170" pos="768" key="63" pan="0" len="24"/>
          <note vol="157" pos="768" key="39" pan="0" len="72"/>
          <note vol="144" pos="792" key="55" pan="0" len="24"/>
          <note vol="157" pos="816" key="60" pan="0" len="24"/>
          <note vol="163" pos="840" key="62" pan="0" len="24"/>
          <note vol="151" pos="840" key="38" pan="0" len="72"/>
          <note vol="163" pos="864" key="55" pan="0" len="24"/>
          <note vol="163" pos="888" key="60" pan="0" len="24"/>
          <note vol="176" pos="912" key="63" pan="0" len="24"/>
          <note vol="151" pos="912" key="34" pan="0" len="72"/>
          <note vol="163" pos="936" key="55" pan="0" len="24"/>
          <note vol="163" pos="960" key="60" pan="0" len="24"/>
          <note vol="176" pos="984" key="67" pan="0" len="24"/>
          <note vol="157" pos="984" key="39" pan="0" len="72"/>
          <note vol="163" pos="1008" key="60" pan="0" len="24"/>
          <note vol="163" pos="1032" key="63" pan="0" len="24"/>
          <note vol="176" pos="1056" key="72" pan="0" len="24"/>
          <note vol="157" pos="1056" key="38" pan="0" len="48"/>
          <note vol="176" pos="1080" key="67" pan="0" len="24"/>
          <note vol="176" pos="1104" key="72" pan="0" len="24"/>
          <note vol="157" pos="1104" key="34" pan="0" len="48"/>
          <note vol="176" pos="1128" key="74" pan="0" len="24"/>
          <note vol="181" pos="1152" key="75" pan="0" len="24"/>
          <note vol="163" pos="1176" key="67" pan="0" len="24"/>
          <note vol="132" pos="1176" key="27" pan="0" len="23"/>
          <note vol="170" pos="1200" key="72" pan="0" len="24"/>
          <note vol="132" pos="1200" key="32" pan="0" len="23"/>
          <note vol="181" pos="1224" key="79" pan="0" len="48"/>
          <note vol="170" pos="1224" key="67" pan="0" len="48"/>
          <note vol="138" pos="1224" key="34" pan="0" len="47"/>
          <note vol="181" pos="1272" key="77" pan="0" len="48"/>
          <note vol="170" pos="1272" key="65" pan="0" len="48"/>
          <note vol="144" pos="1272" key="39" pan="0" len="23"/>
          <note vol="151" pos="1296" key="43" pan="0" len="23"/>
          <note vol="181" pos="1320" key="74" pan="0" len="48"/>
          <note vol="163" pos="1320" key="62" pan="0" len="48"/>
          <note vol="144" pos="1320" key="46" pan="0" len="23"/>
        </pattern>
      </track>
      <track solo="0" name="spacey synth" muted="0" type="0">
        <instrumenttrack vol="20.8" pitchrange="1" fxch="0" pitch="0" pan="0" usemasterpitch="1" basenote="57">
          <instrument name="zynaddsubfx">
            <zynaddsubfx filterfreq="64" portamento="0" filterq="64" forwardmidicc="1" bandwidth="64" modifiedcontrollers="" rescenterfreq="64" fmgain="127" resbandwidth="64">
              <ZynAddSubFX-data version-minor="4" ZynAddSubFX-author="Nasca Octavian Paul" version-revision="1" version-major="2">
                <INFORMATION>
                  <par_bool value="yes" name="PADsynth_used"/>
                </INFORMATION>
                <BASE_PARAMETERS>
                  <par value="16" name="max_midi_parts"/>
                  <par value="16" name="max_kit_items_per_instrument"/>
                  <par value="4" name="max_system_effects"/>
                  <par value="8" name="max_insertion_effects"/>
                  <par value="3" name="max_instrument_effects"/>
                  <par value="8" name="max_addsynth_voices"/>
                </BASE_PARAMETERS>
                <MASTER>
                  <par value="127" name="volume"/>
                  <par value="64" name="key_shift"/>
                  <par_bool value="yes" name="nrpn_receive"/>
                  <MICROTONAL>
                    <string name="name">12tET</string>
                    <string name="comment">Equal Temperament 12 notes per octave</string>
                    <par_bool value="no" name="invert_up_down"/>
                    <par value="60" name="invert_up_down_center"/>
                    <par_bool value="no" name="enabled"/>
                    <par value="64" name="global_fine_detune"/>
                    <par value="69" name="a_note"/>
                    <par_real value="440.000000" name="a_freq"/>
                  </MICROTONAL>
                  <PART id="0">
                    <par_bool value="yes" name="enabled"/>
                    <par value="96" name="volume"/>
                    <par value="64" name="panning"/>
                    <par value="0" name="min_key"/>
                    <par value="127" name="max_key"/>
                    <par value="64" name="key_shift"/>
                    <par value="0" name="rcv_chn"/>
                    <par value="64" name="velocity_sensing"/>
                    <par value="64" name="velocity_offset"/>
                    <par_bool value="yes" name="note_on"/>
                    <par_bool value="yes" name="poly_mode"/>
                    <par value="0" name="legato_mode"/>
                    <par value="15" name="key_limit"/>
                    <INSTRUMENT>
                      <INFO>
                        <string name="name">Outer Galaxy Pad</string>
                        <string name="author">Christopher Oliver</string>
                        <string name="comments">Sparkle pad inspired by moving pads from any number
of workstations I've heard or played</string>
                        <par value="12" name="type"/>
                      </INFO>
                      <INSTRUMENT_KIT>
                        <par value="1" name="kit_mode"/>
                        <par_bool value="no" name="drum_mode"/>
                        <INSTRUMENT_KIT_ITEM id="0">
                          <par_bool value="yes" name="enabled"/>
                          <string name="name"/>
                          <par_bool value="no" name="muted"/>
                          <par value="0" name="min_key"/>
                          <par value="127" name="max_key"/>
                          <par value="0" name="send_to_instrument_effect"/>
                          <par_bool value="yes" name="add_enabled"/>
                          <ADD_SYNTH_PARAMETERS>
                            <par_bool value="yes" name="stereo"/>
                            <AMPLITUDE_PARAMETERS>
                              <par value="81" name="volume"/>
                              <par value="64" name="panning"/>
                              <par value="64" name="velocity_sensing"/>
                              <par value="0" name="punch_strength"/>
                              <par value="60" name="punch_time"/>
                              <par value="64" name="punch_stretch"/>
                              <par value="72" name="punch_velocity_sensing"/>
                              <par value="0" name="harmonic_randomness_grouping"/>
                              <AMPLITUDE_ENVELOPE>
                                <par_bool value="no" name="free_mode"/>
                                <par value="4" name="env_points"/>
                                <par value="2" name="env_sustain"/>
                                <par value="64" name="env_stretch"/>
                                <par_bool value="yes" name="forced_release"/>
                                <par_bool value="no" name="linear_envelope"/>
                                <par value="0" name="A_dt"/>
                                <par value="40" name="D_dt"/>
                                <par value="25" name="R_dt"/>
                                <par value="64" name="A_val"/>
                                <par value="64" name="D_val"/>
                                <par value="127" name="S_val"/>
                                <par value="64" name="R_val"/>
                              </AMPLITUDE_ENVELOPE>
                              <AMPLITUDE_LFO>
                                <par_real value="0.629921" name="freq"/>
                                <par value="0" name="intensity"/>
                                <par value="64" name="start_phase"/>
                                <par value="0" name="lfo_type"/>
                                <par value="0" name="randomness_amplitude"/>
                                <par value="0" name="randomness_frequency"/>
                                <par value="0" name="delay"/>
                                <par value="64" name="stretch"/>
                                <par_bool value="no" name="continous"/>
                              </AMPLITUDE_LFO>
                            </AMPLITUDE_PARAMETERS>
                            <FREQUENCY_PARAMETERS>
                              <par value="8192" name="detune"/>
                              <par value="15360" name="coarse_detune"/>
                              <par value="1" name="detune_type"/>
                              <par value="64" name="bandwidth"/>
                              <FREQUENCY_ENVELOPE>
                                <par_bool value="no" name="free_mode"/>
                                <par value="3" name="env_points"/>
                                <par value="1" name="env_sustain"/>
                                <par value="0" name="env_stretch"/>
                                <par_bool value="no" name="forced_release"/>
                                <par_bool value="no" name="linear_envelope"/>
                                <par value="50" name="A_dt"/>
                                <par value="10" name="D_dt"/>
                                <par value="60" name="R_dt"/>
                                <par value="0" name="A_val"/>
                                <par value="64" name="D_val"/>
                                <par value="64" name="S_val"/>
                                <par value="64" name="R_val"/>
                              </FREQUENCY_ENVELOPE>
                              <FREQUENCY_LFO>
                                <par_real value="0.551181" name="freq"/>
                                <par value="0" name="intensity"/>
                                <par value="64" name="start_phase"/>
                                <par value="0" name="lfo_type"/>
                                <par value="0" name="randomness_amplitude"/>
                                <par value="0" name="randomness_frequency"/>
                                <par value="0" name="delay"/>
                                <par value="64" name="stretch"/>
                                <par_bool value="no" name="continous"/>
                              </FREQUENCY_LFO>
                            </FREQUENCY_PARAMETERS>
                            <FILTER_PARAMETERS>
                              <par value="64" name="velocity_sensing_amplitude"/>
                              <par value="64" name="velocity_sensing"/>
                              <FILTER>
                                <par value="0" name="category"/>
                                <par value="2" name="type"/>
                                <par value="94" name="freq"/>
                                <par value="40" name="q"/>
                                <par value="0" name="stages"/>
                                <par value="64" name="freq_track"/>
                                <par value="64" name="gain"/>
                              </FILTER>
                              <FILTER_ENVELOPE>
                                <par_bool value="no" name="free_mode"/>
                                <par value="4" name="env_points"/>
                                <par value="2" name="env_sustain"/>
                                <par value="0" name="env_stretch"/>
                                <par_bool value="yes" name="forced_release"/>
                                <par_bool value="no" name="linear_envelope"/>
                                <par value="40" name="A_dt"/>
                                <par value="70" name="D_dt"/>
                                <par value="60" name="R_dt"/>
                                <par value="0" name="A_val"/>
                                <par value="64" name="D_val"/>
                                <par value="64" name="S_val"/>
                                <par value="64" name="R_val"/>
                              </FILTER_ENVELOPE>
                              <FILTER_LFO>
                                <par_real value="0.629921" name="freq"/>
                                <par value="0" name="intensity"/>
                                <par value="64" name="start_phase"/>
                                <par value="0" name="lfo_type"/>
                                <par value="0" name="randomness_amplitude"/>
                                <par value="0" name="randomness_frequency"/>
                                <par value="0" name="delay"/>
                                <par value="64" name="stretch"/>
                                <par_bool value="no" name="continous"/>
                              </FILTER_LFO>
                            </FILTER_PARAMETERS>
                            <RESONANCE>
                              <par_bool value="no" name="enabled"/>
                            </RESONANCE>
                            <VOICE id="0">
                              <par_bool value="yes" name="enabled"/>
                              <par value="0" name="type"/>
                              <par value="1" name="unison_size"/>
                              <par value="60" name="unison_frequency_spread"/>
                              <par value="64" name="unison_stereo_spread"/>
                              <par value="64" name="unison_vibratto"/>
                              <par value="64" name="unison_vibratto_speed"/>
                              <par value="0" name="unison_invert_phase"/>
                              <par value="127" name="unison_phase_randomness"/>
                              <par value="0" name="delay"/>
                              <par_bool value="yes" name="resonance"/>
                              <par value="-1" name="ext_oscil"/>
                              <par value="-1" name="ext_fm_oscil"/>
                              <par value="64" name="oscil_phase"/>
                              <par value="64" name="oscil_fm_phase"/>
                              <par_bool value="no" name="filter_enabled"/>
                              <par_bool value="no" name="filter_bypass"/>
                              <par value="0" name="fm_enabled"/>
                              <OSCIL>
                                <par value="0" name="harmonic_mag_type"/>
                                <par value="0" name="base_function"/>
                                <par value="64" name="base_function_par"/>
                                <par value="0" name="base_function_modulation"/>
                                <par value="64" name="base_function_modulation_par1"/>
                                <par value="64" name="base_function_modulation_par2"/>
                                <par value="32" name="base_function_modulation_par3"/>
                                <par value="0" name="modulation"/>
                                <par value="64" name="modulation_par1"/>
                                <par value="64" name="modulation_par2"/>
                                <par value="32" name="modulation_par3"/>
                                <par value="64" name="wave_shaping"/>
                                <par value="0" name="wave_shaping_function"/>
                                <par value="0" name="filter_type"/>
                                <par value="64" name="filter_par1"/>
                                <par value="64" name="filter_par2"/>
                                <par value="0" name="filter_before_wave_shaping"/>
                                <par value="0" name="spectrum_adjust_type"/>
                                <par value="64" name="spectrum_adjust_par"/>
                                <par value="64" name="rand"/>
                                <par value="0" name="amp_rand_type"/>
                                <par value="64" name="amp_rand_power"/>
                                <par value="0" name="harmonic_shift"/>
                                <par_bool value="no" name="harmonic_shift_first"/>
                                <par value="0" name="adaptive_harmonics"/>
                                <par value="128" name="adaptive_harmonics_base_frequency"/>
                                <par value="100" name="adaptive_harmonics_power"/>
                                <HARMONICS>
                                  <HARMONIC id="1">
                                    <par value="127" name="mag"/>
                                    <par value="64" name="phase"/>
                                  </HARMONIC>
                                </HARMONICS>
                              </OSCIL>
                              <AMPLITUDE_PARAMETERS>
                                <par value="64" name="panning"/>
                                <par value="100" name="volume"/>
                                <par_bool value="no" name="volume_minus"/>
                                <par value="127" name="velocity_sensing"/>
                                <par_bool value="no" name="amp_envelope_enabled"/>
                                <par_bool value="no" name="amp_lfo_enabled"/>
                              </AMPLITUDE_PARAMETERS>
                              <FREQUENCY_PARAMETERS>
                                <par_bool value="no" name="fixed_freq"/>
                                <par value="0" name="fixed_freq_et"/>
                                <par value="8192" name="detune"/>
                                <par value="0" name="coarse_detune"/>
                                <par value="0" name="detune_type"/>
                                <par_bool value="no" name="freq_envelope_enabled"/>
                                <par_bool value="no" name="freq_lfo_enabled"/>
                              </FREQUENCY_PARAMETERS>
                            </VOICE>
                            <VOICE id="1">
                              <par_bool value="yes" name="enabled"/>
                              <par value="0" name="type"/>
                              <par value="1" name="unison_size"/>
                              <par value="60" name="unison_frequency_spread"/>
                              <par value="64" name="unison_stereo_spread"/>
                              <par value="64" name="unison_vibratto"/>
                              <par value="64" name="unison_vibratto_speed"/>
                              <par value="0" name="unison_invert_phase"/>
                              <par value="127" name="unison_phase_randomness"/>
                              <par value="37" name="delay"/>
                              <par_bool value="yes" name="resonance"/>
                              <par value="-1" name="ext_oscil"/>
                              <par value="-1" name="ext_fm_oscil"/>
                              <par value="64" name="oscil_phase"/>
                              <par value="64" name="oscil_fm_phase"/>
                              <par_bool value="no" name="filter_enabled"/>
                              <par_bool value="no" name="filter_bypass"/>
                              <par value="0" name="fm_enabled"/>
                              <OSCIL>
                                <par value="0" name="harmonic_mag_type"/>
                                <par value="1" name="base_function"/>
                                <par value="64" name="base_function_par"/>
                                <par value="0" name="base_function_modulation"/>
                                <par value="64" name="base_function_modulation_par1"/>
                                <par value="64" name="base_function_modulation_par2"/>
                                <par value="32" name="base_function_modulation_par3"/>
                                <par value="0" name="modulation"/>
                                <par value="64" name="modulation_par1"/>
                                <par value="64" name="modulation_par2"/>
                                <par value="32" name="modulation_par3"/>
                                <par value="64" name="wave_shaping"/>
                                <par value="0" name="wave_shaping_function"/>
                                <par value="0" name="filter_type"/>
                                <par value="64" name="filter_par1"/>
                                <par value="64" name="filter_par2"/>
                                <par value="0" name="filter_before_wave_shaping"/>
                                <par value="0" name="spectrum_adjust_type"/>
                                <par value="64" name="spectrum_adjust_par"/>
                                <par value="64" name="rand"/>
                                <par value="0" name="amp_rand_type"/>
                                <par value="64" name="amp_rand_power"/>
                                <par value="0" name="harmonic_shift"/>
                                <par_bool value="no" name="harmonic_shift_first"/>
                                <par value="0" name="adaptive_harmonics"/>
                                <par value="128" name="adaptive_harmonics_base_frequency"/>
                                <par value="100" name="adaptive_harmonics_power"/>
                                <HARMONICS>
                                  <HARMONIC id="1">
                                    <par value="127" name="mag"/>
                                    <par value="64" name="phase"/>
                                  </HARMONIC>
                                </HARMONICS>
                              </OSCIL>
                              <AMPLITUDE_PARAMETERS>
                                <par value="64" name="panning"/>
                                <par value="66" name="volume"/>
                                <par_bool value="no" name="volume_minus"/>
                                <par value="127" name="velocity_sensing"/>
                                <par_bool value="yes" name="amp_envelope_enabled"/>
                                <AMPLITUDE_ENVELOPE>
                                  <par_bool value="no" name="free_mode"/>
                                  <par value="4" name="env_points"/>
                                  <par value="2" name="env_sustain"/>
                                  <par value="64" name="env_stretch"/>
                                  <par_bool value="yes" name="forced_release"/>
                                  <par_bool value="no" name="linear_envelope"/>
                                  <par value="0" name="A_dt"/>
                                  <par value="100" name="D_dt"/>
                                  <par value="100" name="R_dt"/>
                                  <par value="64" name="A_val"/>
                                  <par value="64" name="D_val"/>
                                  <par value="127" name="S_val"/>
                                  <par value="64" name="R_val"/>
                                </AMPLITUDE_ENVELOPE>
                                <par_bool value="yes" name="amp_lfo_enabled"/>
                                <AMPLITUDE_LFO>
                                  <par_real value="0.253661" name="freq"/>
                                  <par value="32" name="intensity"/>
                                  <par value="64" name="start_phase"/>
                                  <par value="0" name="lfo_type"/>
                                  <par value="0" name="randomness_amplitude"/>
                                  <par value="0" name="randomness_frequency"/>
                                  <par value="30" name="delay"/>
                                  <par value="64" name="stretch"/>
                                  <par_bool value="no" name="continous"/>
                                </AMPLITUDE_LFO>
                              </AMPLITUDE_PARAMETERS>
                              <FREQUENCY_PARAMETERS>
                                <par_bool value="no" name="fixed_freq"/>
                                <par value="0" name="fixed_freq_et"/>
                                <par value="8192" name="detune"/>
                                <par value="4102" name="coarse_detune"/>
                                <par value="3" name="detune_type"/>
                                <par_bool value="no" name="freq_envelope_enabled"/>
                                <par_bool value="yes" name="freq_lfo_enabled"/>
                                <FREQUENCY_LFO>
                                  <par_real value="0.708701" name="freq"/>
                                  <par value="105" name="intensity"/>
                                  <par value="0" name="start_phase"/>
                                  <par value="2" name="lfo_type"/>
                                  <par value="127" name="randomness_amplitude"/>
                                  <par value="0" name="randomness_frequency"/>
                                  <par value="0" name="delay"/>
                                  <par value="64" name="stretch"/>
                                  <par_bool value="no" name="continous"/>
                                </FREQUENCY_LFO>
                              </FREQUENCY_PARAMETERS>
                            </VOICE>
                            <VOICE id="2">
                              <par_bool value="no" name="enabled"/>
                            </VOICE>
                            <VOICE id="3">
                              <par_bool value="no" name="enabled"/>
                            </VOICE>
                            <VOICE id="4">
                              <par_bool value="no" name="enabled"/>
                            </VOICE>
                            <VOICE id="5">
                              <par_bool value="no" name="enabled"/>
                            </VOICE>
                            <VOICE id="6">
                              <par_bool value="no" name="enabled"/>
                            </VOICE>
                            <VOICE id="7">
                              <par_bool value="no" name="enabled"/>
                            </VOICE>
                          </ADD_SYNTH_PARAMETERS>
                          <par_bool value="yes" name="sub_enabled"/>
                          <SUB_SYNTH_PARAMETERS>
                            <par value="2" name="num_stages"/>
                            <par value="0" name="harmonic_mag_type"/>
                            <par value="1" name="start"/>
                            <HARMONICS>
                              <HARMONIC id="0">
                                <par value="127" name="mag"/>
                                <par value="64" name="relbw"/>
                              </HARMONIC>
                              <HARMONIC id="2">
                                <par value="33" name="mag"/>
                                <par value="93" name="relbw"/>
                              </HARMONIC>
                              <HARMONIC id="3">
                                <par value="43" name="mag"/>
                                <par value="64" name="relbw"/>
                              </HARMONIC>
                              <HARMONIC id="5">
                                <par value="23" name="mag"/>
                                <par value="107" name="relbw"/>
                              </HARMONIC>
                              <HARMONIC id="7">
                                <par value="23" name="mag"/>
                                <par value="64" name="relbw"/>
                              </HARMONIC>
                              <HARMONIC id="9">
                                <par value="61" name="mag"/>
                                <par value="64" name="relbw"/>
                              </HARMONIC>
                              <HARMONIC id="11">
                                <par value="22" name="mag"/>
                                <par value="95" name="relbw"/>
                              </HARMONIC>
                            </HARMONICS>
                            <AMPLITUDE_PARAMETERS>
                              <par_bool value="yes" name="stereo"/>
                              <par value="91" name="volume"/>
                              <par value="64" name="panning"/>
                              <par value="90" name="velocity_sensing"/>
                              <AMPLITUDE_ENVELOPE>
                                <par_bool value="no" name="free_mode"/>
                                <par value="4" name="env_points"/>
                                <par value="2" name="env_sustain"/>
                                <par value="64" name="env_stretch"/>
                                <par_bool value="yes" name="forced_release"/>
                                <par_bool value="no" name="linear_envelope"/>
                                <par value="0" name="A_dt"/>
                                <par value="40" name="D_dt"/>
                                <par value="25" name="R_dt"/>
                                <par value="64" name="A_val"/>
                                <par value="64" name="D_val"/>
                                <par value="127" name="S_val"/>
                                <par value="64" name="R_val"/>
                              </AMPLITUDE_ENVELOPE>
                            </AMPLITUDE_PARAMETERS>
                            <FREQUENCY_PARAMETERS>
                              <par_bool value="no" name="fixed_freq"/>
                              <par value="0" name="fixed_freq_et"/>
                              <par value="7139" name="detune"/>
                              <par value="15360" name="coarse_detune"/>
                              <par value="0" name="overtone_spread_type"/>
                              <par value="0" name="overtone_spread_par1"/>
                              <par value="0" name="overtone_spread_par2"/>
                              <par value="0" name="overtone_spread_par3"/>
                              <par value="1" name="detune_type"/>
                              <par value="69" name="bandwidth"/>
                              <par value="64" name="bandwidth_scale"/>
                              <par_bool value="no" name="freq_envelope_enabled"/>
                              <par_bool value="no" name="band_width_envelope_enabled"/>
                            </FREQUENCY_PARAMETERS>
                            <FILTER_PARAMETERS>
                              <par_bool value="no" name="enabled"/>
                            </FILTER_PARAMETERS>
                          </SUB_SYNTH_PARAMETERS>
                          <par_bool value="no" name="pad_enabled"/>
                        </INSTRUMENT_KIT_ITEM>
                        <INSTRUMENT_KIT_ITEM id="1">
                          <par_bool value="yes" name="enabled"/>
                          <string name="name"/>
                          <par_bool value="no" name="muted"/>
                          <par value="0" name="min_key"/>
                          <par value="127" name="max_key"/>
                          <par value="0" name="send_to_instrument_effect"/>
                          <par_bool value="no" name="add_enabled"/>
                          <par_bool value="no" name="sub_enabled"/>
                          <par_bool value="yes" name="pad_enabled"/>
                          <PAD_SYNTH_PARAMETERS>
                            <par_bool value="yes" name="stereo"/>
                            <par value="0" name="mode"/>
                            <par value="695" name="bandwidth"/>
                            <par value="0" name="bandwidth_scale"/>
                            <HARMONIC_PROFILE>
                              <par value="0" name="base_type"/>
                              <par value="80" name="base_par1"/>
                              <par value="0" name="frequency_multiplier"/>
                              <par value="0" name="modulator_par1"/>
                              <par value="30" name="modulator_frequency"/>
                              <par value="127" name="width"/>
                              <par value="0" name="amplitude_multiplier_type"/>
                              <par value="0" name="amplitude_multiplier_mode"/>
                              <par value="80" name="amplitude_multiplier_par1"/>
                              <par value="64" name="amplitude_multiplier_par2"/>
                              <par_bool value="yes" name="autoscale"/>
                              <par value="0" name="one_half"/>
                            </HARMONIC_PROFILE>
                            <OSCIL>
                              <par value="0" name="harmonic_mag_type"/>
                              <par value="6" name="base_function"/>
                              <par value="64" name="base_function_par"/>
                              <par value="0" name="base_function_modulation"/>
                              <par value="64" name="base_function_modulation_par1"/>
                              <par value="64" name="base_function_modulation_par2"/>
                              <par value="32" name="base_function_modulation_par3"/>
                              <par value="0" name="modulation"/>
                              <par value="64" name="modulation_par1"/>
                              <par value="64" name="modulation_par2"/>
                              <par value="32" name="modulation_par3"/>
                              <par value="64" name="wave_shaping"/>
                              <par value="0" name="wave_shaping_function"/>
                              <par value="0" name="filter_type"/>
                              <par value="64" name="filter_par1"/>
                              <par value="64" name="filter_par2"/>
                              <par value="0" name="filter_before_wave_shaping"/>
                              <par value="0" name="spectrum_adjust_type"/>
                              <par value="64" name="spectrum_adjust_par"/>
                              <par value="127" name="rand"/>
                              <par value="0" name="amp_rand_type"/>
                              <par value="64" name="amp_rand_power"/>
                              <par value="0" name="harmonic_shift"/>
                              <par_bool value="no" name="harmonic_shift_first"/>
                              <par value="0" name="adaptive_harmonics"/>
                              <par value="128" name="adaptive_harmonics_base_frequency"/>
                              <par value="100" name="adaptive_harmonics_power"/>
                              <HARMONICS>
                                <HARMONIC id="1">
                                  <par value="127" name="mag"/>
                                  <par value="64" name="phase"/>
                                </HARMONIC>
                                <HARMONIC id="5">
                                  <par value="69" name="mag"/>
                                  <par value="64" name="phase"/>
                                </HARMONIC>
                                <HARMONIC id="9">
                                  <par value="72" name="mag"/>
                                  <par value="64" name="phase"/>
                                </HARMONIC>
                                <HARMONIC id="18">
                                  <par value="70" name="mag"/>
                                  <par value="64" name="phase"/>
                                </HARMONIC>
                                <HARMONIC id="24">
                                  <par value="72" name="mag"/>
                                  <par value="64" name="phase"/>
                                </HARMONIC>
                              </HARMONICS>
                            </OSCIL>
                            <RESONANCE>
                              <par_bool value="no" name="enabled"/>
                            </RESONANCE>
                            <HARMONIC_POSITION>
                              <par value="0" name="type"/>
                              <par value="64" name="parameter1"/>
                              <par value="64" name="parameter2"/>
                              <par value="0" name="parameter3"/>
                            </HARMONIC_POSITION>
                            <SAMPLE_QUALITY>
                              <par value="3" name="samplesize"/>
                              <par value="4" name="basenote"/>
                              <par value="3" name="octaves"/>
                              <par value="2" name="samples_per_octave"/>
                            </SAMPLE_QUALITY>
                            <AMPLITUDE_PARAMETERS>
                              <par value="72" name="volume"/>
                              <par value="64" name="panning"/>
                              <par value="64" name="velocity_sensing"/>
                              <par value="0" name="punch_strength"/>
                              <par value="60" name="punch_time"/>
                              <par value="64" name="punch_stretch"/>
                              <par value="72" name="punch_velocity_sensing"/>
                              <AMPLITUDE_ENVELOPE>
                                <par_bool value="no" name="free_mode"/>
                                <par value="4" name="env_points"/>
                                <par value="2" name="env_sustain"/>
                                <par value="64" name="env_stretch"/>
                                <par_bool value="yes" name="forced_release"/>
                                <par_bool value="no" name="linear_envelope"/>
                                <par value="41" name="A_dt"/>
                                <par value="40" name="D_dt"/>
                                <par value="25" name="R_dt"/>
                                <par value="64" name="A_val"/>
                                <par value="64" name="D_val"/>
                                <par value="127" name="S_val"/>
                                <par value="64" name="R_val"/>
                              </AMPLITUDE_ENVELOPE>
                              <AMPLITUDE_LFO>
                                <par_real value="0.629921" name="freq"/>
                                <par value="0" name="intensity"/>
                                <par value="64" name="start_phase"/>
                                <par value="0" name="lfo_type"/>
                                <par value="0" name="randomness_amplitude"/>
                                <par value="0" name="randomness_frequency"/>
                                <par value="0" name="delay"/>
                                <par value="64" name="stretch"/>
                                <par_bool value="no" name="continous"/>
                              </AMPLITUDE_LFO>
                            </AMPLITUDE_PARAMETERS>
                            <FREQUENCY_PARAMETERS>
                              <par value="0" name="fixed_freq"/>
                              <par value="0" name="fixed_freq_et"/>
                              <par value="8192" name="detune"/>
                              <par value="15360" name="coarse_detune"/>
                              <par value="1" name="detune_type"/>
                              <FREQUENCY_ENVELOPE>
                                <par_bool value="no" name="free_mode"/>
                                <par value="3" name="env_points"/>
                                <par value="1" name="env_sustain"/>
                                <par value="0" name="env_stretch"/>
                                <par_bool value="no" name="forced_release"/>
                                <par_bool value="no" name="linear_envelope"/>
                                <par value="50" name="A_dt"/>
                                <par value="10" name="D_dt"/>
                                <par value="60" name="R_dt"/>
                                <par value="64" name="A_val"/>
                                <par value="64" name="D_val"/>
                                <par value="64" name="S_val"/>
                                <par value="64" name="R_val"/>
                              </FREQUENCY_ENVELOPE>
                              <FREQUENCY_LFO>
                                <par_real value="0.551181" name="freq"/>
                                <par value="0" name="intensity"/>
                                <par value="64" name="start_phase"/>
                                <par value="0" name="lfo_type"/>
                                <par value="0" name="randomness_amplitude"/>
                                <par value="0" name="randomness_frequency"/>
                                <par value="0" name="delay"/>
                                <par value="64" name="stretch"/>
                                <par_bool value="no" name="continous"/>
                              </FREQUENCY_LFO>
                            </FREQUENCY_PARAMETERS>
                            <FILTER_PARAMETERS>
                              <par value="64" name="velocity_sensing_amplitude"/>
                              <par value="64" name="velocity_sensing"/>
                              <FILTER>
                                <par value="0" name="category"/>
                                <par value="2" name="type"/>
                                <par value="94" name="freq"/>
                                <par value="40" name="q"/>
                                <par value="0" name="stages"/>
                                <par value="64" name="freq_track"/>
                                <par value="64" name="gain"/>
                              </FILTER>
                              <FILTER_ENVELOPE>
                                <par_bool value="no" name="free_mode"/>
                                <par value="4" name="env_points"/>
                                <par value="2" name="env_sustain"/>
                                <par value="0" name="env_stretch"/>
                                <par_bool value="yes" name="forced_release"/>
                                <par_bool value="no" name="linear_envelope"/>
                                <par value="40" name="A_dt"/>
                                <par value="70" name="D_dt"/>
                                <par value="60" name="R_dt"/>
                                <par value="64" name="A_val"/>
                                <par value="64" name="D_val"/>
                                <par value="64" name="S_val"/>
                                <par value="64" name="R_val"/>
                              </FILTER_ENVELOPE>
                              <FILTER_LFO>
                                <par_real value="0.629921" name="freq"/>
                                <par value="0" name="intensity"/>
                                <par value="64" name="start_phase"/>
                                <par value="0" name="lfo_type"/>
                                <par value="0" name="randomness_amplitude"/>
                                <par value="0" name="randomness_frequency"/>
                                <par value="0" name="delay"/>
                                <par value="64" name="stretch"/>
                                <par_bool value="no" name="continous"/>
                              </FILTER_LFO>
                            </FILTER_PARAMETERS>
                          </PAD_SYNTH_PARAMETERS>
                        </INSTRUMENT_KIT_ITEM>
                        <INSTRUMENT_KIT_ITEM id="2">
                          <par_bool value="no" name="enabled"/>
                        </INSTRUMENT_KIT_ITEM>
                        <INSTRUMENT_KIT_ITEM id="3">
                          <par_bool value="no" name="enabled"/>
                        </INSTRUMENT_KIT_ITEM>
                        <INSTRUMENT_KIT_ITEM id="4">
                          <par_bool value="no" name="enabled"/>
                        </INSTRUMENT_KIT_ITEM>
                        <INSTRUMENT_KIT_ITEM id="5">
                          <par_bool value="no" name="enabled"/>
                        </INSTRUMENT_KIT_ITEM>
                        <INSTRUMENT_KIT_ITEM id="6">
                          <par_bool value="no" name="enabled"/>
                        </INSTRUMENT_KIT_ITEM>
                        <INSTRUMENT_KIT_ITEM id="7">
                          <par_bool value="no" name="enabled"/>
                        </INSTRUMENT_KIT_ITEM>
                        <INSTRUMENT_KIT_ITEM id="8">
                          <par_bool value="no" name="enabled"/>
                        </INSTRUMENT_KIT_ITEM>
                        <INSTRUMENT_KIT_ITEM id="9">
                          <par_bool value="no" name="enabled"/>
                        </INSTRUMENT_KIT_ITEM>
                        <INSTRUMENT_KIT_ITEM id="10">
                          <par_bool value="no" name="enabled"/>
                        </INSTRUMENT_KIT_ITEM>
                        <INSTRUMENT_KIT_ITEM id="11">
                          <par_bool value="no" name="enabled"/>
                        </INSTRUMENT_KIT_ITEM>
                        <INSTRUMENT_KIT_ITEM id="12">
                          <par_bool value="no" name="enabled"/>
                        </INSTRUMENT_KIT_ITEM>
                        <INSTRUMENT_KIT_ITEM id="13">
                          <par_bool value="no" name="enabled"/>
                        </INSTRUMENT_KIT_ITEM>
                        <INSTRUMENT_KIT_ITEM id="14">
                          <par_bool value="no" name="enabled"/>
                        </INSTRUMENT_KIT_ITEM>
                        <INSTRUMENT_KIT_ITEM id="15">
                          <par_bool value="no" name="enabled"/>
                        </INSTRUMENT_KIT_ITEM>
                      </INSTRUMENT_KIT>
                      <INSTRUMENT_EFFECTS>
                        <INSTRUMENT_EFFECT id="0">
                          <EFFECT>
                            <par value="4" name="type"/>
                            <par value="0" name="preset"/>
                            <EFFECT_PARAMETERS>
                              <par_no id="0">
                                <par value="64" name="par"/>
                              </par_no>
                              <par_no id="1">
                                <par value="64" name="par"/>
                              </par_no>
                              <par_no id="2">
                                <par value="36" name="par"/>
                              </par_no>
                              <par_no id="5">
                                <par value="64" name="par"/>
                              </par_no>
                              <par_no id="6">
                                <par value="110" name="par"/>
                              </par_no>
                              <par_no id="7">
                                <par value="64" name="par"/>
                              </par_no>
                              <par_no id="8">
                                <par value="1" name="par"/>
                              </par_no>
                              <par_no id="11">
                                <par value="20" name="par"/>
                              </par_no>
                            </EFFECT_PARAMETERS>
                          </EFFECT>
                          <par value="0" name="route"/>
                          <par_bool value="no" name="bypass"/>
                        </INSTRUMENT_EFFECT>
                        <INSTRUMENT_EFFECT id="1">
                          <EFFECT>
                            <par value="3" name="type"/>
                            <par value="6" name="preset"/>
                            <EFFECT_PARAMETERS>
                              <par_no id="0">
                                <par value="23" name="par"/>
                              </par_no>
                              <par_no id="1">
                                <par value="64" name="par"/>
                              </par_no>
                              <par_no id="2">
                                <par value="33" name="par"/>
                              </par_no>
                              <par_no id="3">
                                <par value="34" name="par"/>
                              </par_no>
                              <par_no id="4">
                                <par value="1" name="par"/>
                              </par_no>
                              <par_no id="5">
                                <par value="92" name="par"/>
                              </par_no>
                              <par_no id="6">
                                <par value="26" name="par"/>
                              </par_no>
                              <par_no id="7">
                                <par value="3" name="par"/>
                              </par_no>
                              <par_no id="8">
                                <par value="109" name="par"/>
                              </par_no>
                            </EFFECT_PARAMETERS>
                          </EFFECT>
                          <par value="0" name="route"/>
                          <par_bool value="no" name="bypass"/>
                        </INSTRUMENT_EFFECT>
                        <INSTRUMENT_EFFECT id="2">
                          <EFFECT>
                            <par value="2" name="type"/>
                            <par value="0" name="preset"/>
                            <EFFECT_PARAMETERS>
                              <par_no id="0">
                                <par value="33" name="par"/>
                              </par_no>
                              <par_no id="1">
                                <par value="64" name="par"/>
                              </par_no>
                              <par_no id="2">
                                <par value="35" name="par"/>
                              </par_no>
                              <par_no id="3">
                                <par value="64" name="par"/>
                              </par_no>
                              <par_no id="4">
                                <par value="30" name="par"/>
                              </par_no>
                              <par_no id="5">
                                <par value="59" name="par"/>
                              </par_no>
                            </EFFECT_PARAMETERS>
                          </EFFECT>
                          <par value="0" name="route"/>
                          <par_bool value="no" name="bypass"/>
                        </INSTRUMENT_EFFECT>
                      </INSTRUMENT_EFFECTS>
                    </INSTRUMENT>
                    <CONTROLLER>
                      <par value="100" name="pitchwheel_bendrange"/>
                      <par_bool value="yes" name="expression_receive"/>
                      <par value="64" name="panning_depth"/>
                      <par value="64" name="filter_cutoff_depth"/>
                      <par value="64" name="filter_q_depth"/>
                      <par value="64" name="bandwidth_depth"/>
                      <par value="80" name="mod_wheel_depth"/>
                      <par_bool value="no" name="mod_wheel_exponential"/>
                      <par_bool value="yes" name="fm_amp_receive"/>
                      <par_bool value="yes" name="volume_receive"/>
                      <par_bool value="yes" name="sustain_receive"/>
                      <par_bool value="yes" name="portamento_receive"/>
                      <par value="64" name="portamento_time"/>
                      <par value="3" name="portamento_pitchthresh"/>
                      <par value="1" name="portamento_pitchthreshtype"/>
                      <par value="0" name="portamento_portamento"/>
                      <par value="64" name="portamento_updowntimestretch"/>
                      <par value="0" name="portamento_proportional"/>
                      <par value="80" name="portamento_proprate"/>
                      <par value="90" name="portamento_propdepth"/>
                      <par value="64" name="resonance_center_depth"/>
                      <par value="64" name="resonance_bandwidth_depth"/>
                    </CONTROLLER>
                  </PART>
                  <PART id="1">
                    <par_bool value="no" name="enabled"/>
                  </PART>
                  <PART id="2">
                    <par_bool value="no" name="enabled"/>
                  </PART>
                  <PART id="3">
                    <par_bool value="no" name="enabled"/>
                  </PART>
                  <PART id="4">
                    <par_bool value="no" name="enabled"/>
                  </PART>
                  <PART id="5">
                    <par_bool value="no" name="enabled"/>
                  </PART>
                  <PART id="6">
                    <par_bool value="no" name="enabled"/>
                  </PART>
                  <PART id="7">
                    <par_bool value="no" name="enabled"/>
                  </PART>
                  <PART id="8">
                    <par_bool value="no" name="enabled"/>
                  </PART>
                  <PART id="9">
                    <par_bool value="no" name="enabled"/>
                  </PART>
                  <PART id="10">
                    <par_bool value="no" name="enabled"/>
                  </PART>
                  <PART id="11">
                    <par_bool value="no" name="enabled"/>
                  </PART>
                  <PART id="12">
                    <par_bool value="no" name="enabled"/>
                  </PART>
                  <PART id="13">
                    <par_bool value="no" name="enabled"/>
                  </PART>
                  <PART id="14">
                    <par_bool value="no" name="enabled"/>
                  </PART>
                  <PART id="15">
                    <par_bool value="no" name="enabled"/>
                  </PART>
                  <SYSTEM_EFFECTS>
                    <SYSTEM_EFFECT id="0">
                      <EFFECT>
                        <par value="0" name="type"/>
                      </EFFECT>
                      <VOLUME id="0">
                        <par value="0" name="vol"/>
                      </VOLUME>
                      <VOLUME id="1">
                        <par value="0" name="vol"/>
                      </VOLUME>
                      <VOLUME id="2">
                        <par value="0" name="vol"/>
                      </VOLUME>
                      <VOLUME id="3">
                        <par value="0" name="vol"/>
                      </VOLUME>
                      <VOLUME id="4">
                        <par value="0" name="vol"/>
                      </VOLUME>
                      <VOLUME id="5">
                        <par value="0" name="vol"/>
                      </VOLUME>
                      <VOLUME id="6">
                        <par value="0" name="vol"/>
                      </VOLUME>
                      <VOLUME id="7">
                        <par value="0" name="vol"/>
                      </VOLUME>
                      <VOLUME id="8">
                        <par value="0" name="vol"/>
                      </VOLUME>
                      <VOLUME id="9">
                        <par value="0" name="vol"/>
                      </VOLUME>
                      <VOLUME id="10">
                        <par value="0" name="vol"/>
                      </VOLUME>
                      <VOLUME id="11">
                        <par value="0" name="vol"/>
                      </VOLUME>
                      <VOLUME id="12">
                        <par value="0" name="vol"/>
                      </VOLUME>
                      <VOLUME id="13">
                        <par value="0" name="vol"/>
                      </VOLUME>
                      <VOLUME id="14">
                        <par value="0" name="vol"/>
                      </VOLUME>
                      <VOLUME id="15">
                        <par value="0" name="vol"/>
                      </VOLUME>
                      <SENDTO id="1">
                        <par value="0" name="send_vol"/>
                      </SENDTO>
                      <SENDTO id="2">
                        <par value="0" name="send_vol"/>
                      </SENDTO>
                      <SENDTO id="3">
                        <par value="0" name="send_vol"/>
                      </SENDTO>
                    </SYSTEM_EFFECT>
                    <SYSTEM_EFFECT id="1">
                      <EFFECT>
                        <par value="0" name="type"/>
                      </EFFECT>
                      <VOLUME id="0">
                        <par value="0" name="vol"/>
                      </VOLUME>
                      <VOLUME id="1">
                        <par value="0" name="vol"/>
                      </VOLUME>
                      <VOLUME id="2">
                        <par value="0" name="vol"/>
                      </VOLUME>
                      <VOLUME id="3">
                        <par value="0" name="vol"/>
                      </VOLUME>
                      <VOLUME id="4">
                        <par value="0" name="vol"/>
                      </VOLUME>
                      <VOLUME id="5">
                        <par value="0" name="vol"/>
                      </VOLUME>
                      <VOLUME id="6">
                        <par value="0" name="vol"/>
                      </VOLUME>
                      <VOLUME id="7">
                        <par value="0" name="vol"/>
                      </VOLUME>
                      <VOLUME id="8">
                        <par value="0" name="vol"/>
                      </VOLUME>
                      <VOLUME id="9">
                        <par value="0" name="vol"/>
                      </VOLUME>
                      <VOLUME id="10">
                        <par value="0" name="vol"/>
                      </VOLUME>
                      <VOLUME id="11">
                        <par value="0" name="vol"/>
                      </VOLUME>
                      <VOLUME id="12">
                        <par value="0" name="vol"/>
                      </VOLUME>
                      <VOLUME id="13">
                        <par value="0" name="vol"/>
                      </VOLUME>
                      <VOLUME id="14">
                        <par value="0" name="vol"/>
                      </VOLUME>
                      <VOLUME id="15">
                        <par value="0" name="vol"/>
                      </VOLUME>
                      <SENDTO id="2">
                        <par value="0" name="send_vol"/>
                      </SENDTO>
                      <SENDTO id="3">
                        <par value="0" name="send_vol"/>
                      </SENDTO>
                    </SYSTEM_EFFECT>
                    <SYSTEM_EFFECT id="2">
                      <EFFECT>
                        <par value="0" name="type"/>
                      </EFFECT>
                      <VOLUME id="0">
                        <par value="0" name="vol"/>
                      </VOLUME>
                      <VOLUME id="1">
                        <par value="0" name="vol"/>
                      </VOLUME>
                      <VOLUME id="2">
                        <par value="0" name="vol"/>
                      </VOLUME>
                      <VOLUME id="3">
                        <par value="0" name="vol"/>
                      </VOLUME>
                      <VOLUME id="4">
                        <par value="0" name="vol"/>
                      </VOLUME>
                      <VOLUME id="5">
                        <par value="0" name="vol"/>
                      </VOLUME>
                      <VOLUME id="6">
                        <par value="0" name="vol"/>
                      </VOLUME>
                      <VOLUME id="7">
                        <par value="0" name="vol"/>
                      </VOLUME>
                      <VOLUME id="8">
                        <par value="0" name="vol"/>
                      </VOLUME>
                      <VOLUME id="9">
                        <par value="0" name="vol"/>
                      </VOLUME>
                      <VOLUME id="10">
                        <par value="0" name="vol"/>
                      </VOLUME>
                      <VOLUME id="11">
                        <par value="0" name="vol"/>
                      </VOLUME>
                      <VOLUME id="12">
                        <par value="0" name="vol"/>
                      </VOLUME>
                      <VOLUME id="13">
                        <par value="0" name="vol"/>
                      </VOLUME>
                      <VOLUME id="14">
                        <par value="0" name="vol"/>
                      </VOLUME>
                      <VOLUME id="15">
                        <par value="0" name="vol"/>
                      </VOLUME>
                      <SENDTO id="3">
                        <par value="0" name="send_vol"/>
                      </SENDTO>
                    </SYSTEM_EFFECT>
                    <SYSTEM_EFFECT id="3">
                      <EFFECT>
                        <par value="0" name="type"/>
                      </EFFECT>
                      <VOLUME id="0">
                        <par value="0" name="vol"/>
                      </VOLUME>
                      <VOLUME id="1">
                        <par value="0" name="vol"/>
                      </VOLUME>
                      <VOLUME id="2">
                        <par value="0" name="vol"/>
                      </VOLUME>
                      <VOLUME id="3">
                        <par value="0" name="vol"/>
                      </VOLUME>
                      <VOLUME id="4">
                        <par value="0" name="vol"/>
                      </VOLUME>
                      <VOLUME id="5">
                        <par value="0" name="vol"/>
                      </VOLUME>
                      <VOLUME id="6">
                        <par value="0" name="vol"/>
                      </VOLUME>
                      <VOLUME id="7">
                        <par value="0" name="vol"/>
                      </VOLUME>
                      <VOLUME id="8">
                        <par value="0" name="vol"/>
                      </VOLUME>
                      <VOLUME id="9">
                        <par value="0" name="vol"/>
                      </VOLUME>
                      <VOLUME id="10">
                        <par value="0" name="vol"/>
                      </VOLUME>
                      <VOLUME id="11">
                        <par value="0" name="vol"/>
                      </VOLUME>
                      <VOLUME id="12">
                        <par value="0" name="vol"/>
                      </VOLUME>
                      <VOLUME id="13">
                        <par value="0" name="vol"/>
                      </VOLUME>
                      <VOLUME id="14">
                        <par value="0" name="vol"/>
                      </VOLUME>
                      <VOLUME id="15">
                        <par value="0" name="vol"/>
                      </VOLUME>
                    </SYSTEM_EFFECT>
                  </SYSTEM_EFFECTS>
                  <INSERTION_EFFECTS>
                    <INSERTION_EFFECT id="0">
                      <par value="-1" name="part"/>
                      <EFFECT>
                        <par value="0" name="type"/>
                      </EFFECT>
                    </INSERTION_EFFECT>
                    <INSERTION_EFFECT id="1">
                      <par value="-1" name="part"/>
                      <EFFECT>
                        <par value="0" name="type"/>
                      </EFFECT>
                    </INSERTION_EFFECT>
                    <INSERTION_EFFECT id="2">
                      <par value="-1" name="part"/>
                      <EFFECT>
                        <par value="0" name="type"/>
                      </EFFECT>
                    </INSERTION_EFFECT>
                    <INSERTION_EFFECT id="3">
                      <par value="-1" name="part"/>
                      <EFFECT>
                        <par value="0" name="type"/>
                      </EFFECT>
                    </INSERTION_EFFECT>
                    <INSERTION_EFFECT id="4">
                      <par value="-1" name="part"/>
                      <EFFECT>
                        <par value="0" name="type"/>
                      </EFFECT>
                    </INSERTION_EFFECT>
                    <INSERTION_EFFECT id="5">
                      <par value="-1" name="part"/>
                      <EFFECT>
                        <par value="0" name="type"/>
                      </EFFECT>
                    </INSERTION_EFFECT>
                    <INSERTION_EFFECT id="6">
                      <par value="-1" name="part"/>
                      <EFFECT>
                        <par value="0" name="type"/>
                      </EFFECT>
                    </INSERTION_EFFECT>
                    <INSERTION_EFFECT id="7">
                      <par value="-1" name="part"/>
                      <EFFECT>
                        <par value="0" name="type"/>
                      </EFFECT>
                    </INSERTION_EFFECT>
                  </INSERTION_EFFECTS>
                </MASTER>
              </ZynAddSubFX-data>
            </zynaddsubfx>
          </instrument>
          <eldata fcut="14000" ftype="0" fres="0.5" fwet="0">
            <elvol lpdel="0" dec="0.5" lamt="0" rel="0.1" userwavefile="" lspd="0.1" x100="0" latt="0" hold="0.5" lshp="0" sustain="0.5" lspd_numerator="4" att="0" lspd_syncmode="0" amt="0" ctlenvamt="0" lspd_denominator="4" pdel="0"/>
            <elcut lpdel="0" dec="0.5" lamt="0" rel="0.1" userwavefile="" lspd="0.1" x100="0" latt="0" hold="0.5" lshp="0" sustain="0.5" lspd_numerator="4" att="0" lspd_syncmode="0" amt="0" ctlenvamt="0" lspd_denominator="4" pdel="0"/>
            <elres lpdel="0" dec="0.5" lamt="0" rel="0.1" userwavefile="" lspd="0.1" x100="0" latt="0" hold="0.5" lshp="0" sustain="0.5" lspd_numerator="4" att="0" lspd_syncmode="0" amt="0" ctlenvamt="0" lspd_denominator="4" pdel="0"/>
          </eldata>
          <chordcreator chordrange="1" chord-enabled="0" chord="0"/>
          <arpeggiator arp-enabled="0" arptime_denominator="4" arpgate="100" arpskip="0" arptime="200" arpmode="0" arpmiss="0" arptime_numerator="4" arptime_syncmode="0" arprange="1" arp="0" arpdir="0" arpcycle="0"/>
          <midiport outputcontroller="0" readable="0" basevelocity="63" writable="0" outputprogram="1" fixedoutputvelocity="-1" fixedoutputnote="-1" outputchannel="1" inputchannel="0" inputcontroller="0" fixedinputvelocity="-1"/>
          <fxchain numofeffects="0" enabled="0"/>
        </instrumenttrack>
        <pattern pos="6528" name="spacey synth" muted="0" type="1" steps="16">
          <note vol="170" pos="0" key="79" pan="0" len="384"/>
          <note vol="170" pos="0" key="75" pan="0" len="384"/>
          <note vol="170" pos="0" key="72" pan="0" len="384"/>
          <note vol="170" pos="384" key="80" pan="0" len="144"/>
          <note vol="170" pos="384" key="75" pan="0" len="144"/>
          <note vol="170" pos="384" key="72" pan="0" len="144"/>
          <note vol="170" pos="528" key="82" pan="0" len="240"/>
          <note vol="170" pos="528" key="77" pan="0" len="240"/>
          <note vol="170" pos="528" key="74" pan="0" len="240"/>
        </pattern>
        <pattern pos="7296" name="spacey synth" muted="0" type="1" steps="16">
          <note vol="170" pos="0" key="79" pan="0" len="384"/>
          <note vol="170" pos="0" key="75" pan="0" len="384"/>
          <note vol="170" pos="0" key="72" pan="0" len="384"/>
          <note vol="170" pos="384" key="80" pan="0" len="144"/>
          <note vol="170" pos="384" key="75" pan="0" len="144"/>
          <note vol="170" pos="384" key="72" pan="0" len="144"/>
          <note vol="170" pos="528" key="82" pan="0" len="240"/>
          <note vol="170" pos="528" key="77" pan="0" len="240"/>
          <note vol="170" pos="528" key="74" pan="0" len="240"/>
        </pattern>
        <pattern pos="12672" name="spacey synth" muted="0" type="1" steps="16">
          <note vol="170" pos="0" key="79" pan="0" len="384"/>
          <note vol="170" pos="0" key="72" pan="0" len="384"/>
          <note vol="170" pos="384" key="80" pan="0" len="384"/>
          <note vol="170" pos="384" key="75" pan="0" len="384"/>
          <note vol="170" pos="768" key="79" pan="0" len="384"/>
          <note vol="170" pos="768" key="75" pan="0" len="384"/>
        </pattern>
        <pattern pos="1920" name="spacey synth" muted="0" type="1" steps="16">
          <note vol="197" pos="0" key="75" pan="0" len="192"/>
          <note vol="197" pos="0" key="72" pan="0" len="192"/>
          <note vol="197" pos="0" key="67" pan="0" len="192"/>
          <note vol="197" pos="192" key="75" pan="0" len="96"/>
          <note vol="197" pos="192" key="70" pan="0" len="96"/>
          <note vol="197" pos="192" key="67" pan="0" len="96"/>
          <note vol="197" pos="288" key="77" pan="0" len="96"/>
          <note vol="197" pos="288" key="72" pan="0" len="96"/>
          <note vol="197" pos="288" key="68" pan="0" len="96"/>
        </pattern>
        <pattern pos="2688" name="spacey synth" muted="0" type="1" steps="16">
          <note vol="197" pos="0" key="72" pan="0" len="192"/>
          <note vol="197" pos="0" key="68" pan="0" len="192"/>
          <note vol="197" pos="0" key="65" pan="0" len="192"/>
          <note vol="197" pos="192" key="74" pan="0" len="192"/>
          <note vol="197" pos="192" key="70" pan="0" len="192"/>
          <note vol="197" pos="192" key="65" pan="0" len="192"/>
        </pattern>
        <pattern pos="3456" name="spacey synth" muted="0" type="1" steps="16">
          <note vol="197" pos="0" key="75" pan="0" len="192"/>
          <note vol="197" pos="0" key="72" pan="0" len="192"/>
          <note vol="197" pos="0" key="67" pan="0" len="192"/>
          <note vol="197" pos="192" key="75" pan="0" len="96"/>
          <note vol="197" pos="192" key="70" pan="0" len="96"/>
          <note vol="197" pos="192" key="67" pan="0" len="96"/>
          <note vol="197" pos="288" key="77" pan="0" len="96"/>
          <note vol="197" pos="288" key="72" pan="0" len="96"/>
          <note vol="197" pos="288" key="68" pan="0" len="96"/>
        </pattern>
        <pattern pos="4224" name="spacey synth" muted="0" type="1" steps="16">
          <note vol="197" pos="0" key="72" pan="0" len="192"/>
          <note vol="197" pos="0" key="68" pan="0" len="192"/>
          <note vol="197" pos="0" key="65" pan="0" len="192"/>
          <note vol="197" pos="192" key="74" pan="0" len="192"/>
          <note vol="197" pos="192" key="70" pan="0" len="192"/>
          <note vol="197" pos="192" key="65" pan="0" len="192"/>
        </pattern>
        <pattern pos="4608" name="spacey synth" muted="0" type="1" steps="16">
          <note vol="197" pos="0" key="75" pan="0" len="192"/>
          <note vol="197" pos="0" key="70" pan="0" len="192"/>
          <note vol="197" pos="0" key="67" pan="0" len="192"/>
          <note vol="197" pos="192" key="74" pan="0" len="192"/>
          <note vol="197" pos="192" key="71" pan="0" len="192"/>
          <note vol="197" pos="192" key="67" pan="0" len="192"/>
        </pattern>
        <pattern pos="4992" name="spacey synth" muted="0" type="1" steps="16">
          <note vol="176" pos="0" key="60" pan="0" len="384"/>
          <note vol="176" pos="384" key="68" pan="0" len="144"/>
          <note vol="176" pos="528" key="70" pan="0" len="240"/>
        </pattern>
        <pattern pos="5760" name="spacey synth" muted="0" type="1" steps="16">
          <note vol="176" pos="0" key="60" pan="0" len="384"/>
          <note vol="176" pos="384" key="68" pan="0" len="144"/>
          <note vol="176" pos="528" key="70" pan="0" len="240"/>
        </pattern>
        <pattern pos="20736" name="spacey synth" muted="0" type="1" steps="16">
          <note vol="197" pos="0" key="75" pan="0" len="192"/>
          <note vol="197" pos="0" key="72" pan="0" len="192"/>
          <note vol="197" pos="0" key="67" pan="0" len="192"/>
          <note vol="197" pos="192" key="75" pan="0" len="96"/>
          <note vol="197" pos="192" key="70" pan="0" len="96"/>
          <note vol="197" pos="192" key="67" pan="0" len="96"/>
          <note vol="197" pos="288" key="77" pan="0" len="96"/>
          <note vol="197" pos="288" key="72" pan="0" len="96"/>
          <note vol="197" pos="288" key="68" pan="0" len="96"/>
        </pattern>
        <pattern pos="21504" name="spacey synth" muted="0" type="1" steps="16">
          <note vol="197" pos="0" key="72" pan="0" len="192"/>
          <note vol="197" pos="0" key="68" pan="0" len="192"/>
          <note vol="197" pos="0" key="65" pan="0" len="192"/>
          <note vol="197" pos="192" key="74" pan="0" len="192"/>
          <note vol="197" pos="192" key="70" pan="0" len="192"/>
          <note vol="197" pos="192" key="65" pan="0" len="192"/>
        </pattern>
        <pattern pos="22272" name="spacey synth" muted="0" type="1" steps="16">
          <note vol="197" pos="0" key="75" pan="0" len="192"/>
          <note vol="197" pos="0" key="72" pan="0" len="192"/>
          <note vol="197" pos="0" key="67" pan="0" len="192"/>
          <note vol="197" pos="192" key="75" pan="0" len="96"/>
          <note vol="197" pos="192" key="70" pan="0" len="96"/>
          <note vol="197" pos="192" key="67" pan="0" len="96"/>
          <note vol="197" pos="288" key="77" pan="0" len="96"/>
          <note vol="197" pos="288" key="72" pan="0" len="96"/>
          <note vol="197" pos="288" key="68" pan="0" len="96"/>
        </pattern>
        <pattern pos="23040" name="spacey synth" muted="0" type="1" steps="16">
          <note vol="197" pos="0" key="72" pan="0" len="192"/>
          <note vol="197" pos="0" key="68" pan="0" len="192"/>
          <note vol="197" pos="0" key="65" pan="0" len="192"/>
          <note vol="197" pos="192" key="74" pan="0" len="192"/>
          <note vol="197" pos="192" key="70" pan="0" len="192"/>
          <note vol="197" pos="192" key="65" pan="0" len="192"/>
        </pattern>
        <pattern pos="23424" name="spacey synth" muted="0" type="1" steps="16">
          <note vol="197" pos="0" key="75" pan="0" len="192"/>
          <note vol="197" pos="0" key="70" pan="0" len="192"/>
          <note vol="197" pos="0" key="67" pan="0" len="192"/>
          <note vol="197" pos="192" key="74" pan="0" len="192"/>
          <note vol="197" pos="192" key="71" pan="0" len="192"/>
          <note vol="197" pos="192" key="67" pan="0" len="192"/>
        </pattern>
        <pattern pos="23808" name="spacey synth" muted="0" type="1" steps="16">
          <note vol="176" pos="0" key="60" pan="0" len="384"/>
          <note vol="176" pos="384" key="68" pan="0" len="144"/>
          <note vol="176" pos="528" key="70" pan="0" len="240"/>
        </pattern>
        <pattern pos="24576" name="spacey synth" muted="0" type="1" steps="16">
          <note vol="176" pos="0" key="60" pan="0" len="384"/>
          <note vol="176" pos="384" key="68" pan="0" len="144"/>
          <note vol="176" pos="528" key="70" pan="0" len="240"/>
        </pattern>
        <pattern pos="17280" name="" muted="0" type="1" steps="16">
          <note vol="185" pos="0" key="81" pan="0" len="6"/>
          <note vol="185" pos="0" key="77" pan="0" len="6"/>
          <note vol="185" pos="0" key="74" pan="0" len="6"/>
          <note vol="185" pos="12" key="81" pan="0" len="6"/>
          <note vol="185" pos="12" key="77" pan="0" len="6"/>
          <note vol="185" pos="12" key="74" pan="0" len="6"/>
          <note vol="185" pos="24" key="81" pan="0" len="6"/>
          <note vol="185" pos="24" key="77" pan="0" len="6"/>
          <note vol="185" pos="24" key="74" pan="0" len="6"/>
          <note vol="185" pos="36" key="81" pan="0" len="6"/>
          <note vol="185" pos="36" key="77" pan="0" len="6"/>
          <note vol="185" pos="36" key="74" pan="0" len="6"/>
          <note vol="185" pos="48" key="81" pan="0" len="24"/>
          <note vol="185" pos="48" key="77" pan="0" len="24"/>
          <note vol="185" pos="48" key="74" pan="0" len="24"/>
          <note vol="185" pos="72" key="81" pan="0" len="6"/>
          <note vol="185" pos="72" key="77" pan="0" len="6"/>
          <note vol="185" pos="72" key="74" pan="0" len="6"/>
          <note vol="185" pos="84" key="81" pan="0" len="6"/>
          <note vol="185" pos="84" key="77" pan="0" len="6"/>
          <note vol="185" pos="84" key="74" pan="0" len="6"/>
          <note vol="185" pos="96" key="81" pan="0" len="6"/>
          <note vol="185" pos="96" key="77" pan="0" len="6"/>
          <note vol="185" pos="96" key="74" pan="0" len="6"/>
          <note vol="185" pos="108" key="81" pan="0" len="6"/>
          <note vol="185" pos="108" key="77" pan="0" len="6"/>
          <note vol="185" pos="108" key="74" pan="0" len="6"/>
          <note vol="185" pos="120" key="81" pan="0" len="6"/>
          <note vol="185" pos="120" key="77" pan="0" len="6"/>
          <note vol="185" pos="120" key="74" pan="0" len="6"/>
          <note vol="185" pos="132" key="81" pan="0" len="6"/>
          <note vol="185" pos="132" key="77" pan="0" len="6"/>
          <note vol="185" pos="132" key="74" pan="0" len="6"/>
          <note vol="185" pos="144" key="81" pan="0" len="24"/>
          <note vol="185" pos="144" key="77" pan="0" len="24"/>
          <note vol="185" pos="144" key="74" pan="0" len="24"/>
          <note vol="185" pos="168" key="81" pan="0" len="6"/>
          <note vol="185" pos="168" key="77" pan="0" len="6"/>
          <note vol="185" pos="168" key="74" pan="0" len="6"/>
          <note vol="185" pos="180" key="81" pan="0" len="6"/>
          <note vol="185" pos="180" key="77" pan="0" len="6"/>
          <note vol="185" pos="180" key="74" pan="0" len="6"/>
          <note vol="185" pos="192" key="79" pan="0" len="6"/>
          <note vol="185" pos="192" key="76" pan="0" len="6"/>
          <note vol="185" pos="192" key="72" pan="0" len="6"/>
          <note vol="185" pos="204" key="79" pan="0" len="6"/>
          <note vol="185" pos="204" key="76" pan="0" len="6"/>
          <note vol="185" pos="204" key="72" pan="0" len="6"/>
          <note vol="185" pos="216" key="79" pan="0" len="6"/>
          <note vol="185" pos="216" key="76" pan="0" len="6"/>
          <note vol="185" pos="216" key="72" pan="0" len="6"/>
          <note vol="185" pos="228" key="79" pan="0" len="6"/>
          <note vol="185" pos="228" key="76" pan="0" len="6"/>
          <note vol="185" pos="228" key="72" pan="0" len="6"/>
          <note vol="185" pos="240" key="79" pan="0" len="24"/>
          <note vol="185" pos="240" key="76" pan="0" len="24"/>
          <note vol="185" pos="240" key="72" pan="0" len="24"/>
          <note vol="185" pos="264" key="77" pan="0" len="24"/>
          <note vol="185" pos="264" key="74" pan="0" len="24"/>
          <note vol="185" pos="264" key="70" pan="0" len="24"/>
          <note vol="185" pos="288" key="77" pan="0" len="6"/>
          <note vol="185" pos="288" key="74" pan="0" len="6"/>
          <note vol="185" pos="288" key="70" pan="0" len="6"/>
          <note vol="185" pos="300" key="77" pan="0" len="6"/>
          <note vol="185" pos="300" key="74" pan="0" len="6"/>
          <note vol="185" pos="300" key="70" pan="0" len="6"/>
          <note vol="185" pos="312" key="77" pan="0" len="6"/>
          <note vol="185" pos="312" key="74" pan="0" len="6"/>
          <note vol="185" pos="312" key="70" pan="0" len="6"/>
          <note vol="185" pos="324" key="77" pan="0" len="6"/>
          <note vol="185" pos="324" key="74" pan="0" len="6"/>
          <note vol="185" pos="324" key="70" pan="0" len="6"/>
          <note vol="185" pos="336" key="77" pan="0" len="6"/>
          <note vol="185" pos="336" key="74" pan="0" len="6"/>
          <note vol="185" pos="336" key="70" pan="0" len="6"/>
          <note vol="185" pos="348" key="77" pan="0" len="6"/>
          <note vol="185" pos="348" key="74" pan="0" len="6"/>
          <note vol="185" pos="348" key="70" pan="0" len="6"/>
          <note vol="185" pos="360" key="77" pan="0" len="6"/>
          <note vol="185" pos="360" key="74" pan="0" len="6"/>
          <note vol="185" pos="360" key="70" pan="0" len="6"/>
          <note vol="185" pos="372" key="77" pan="0" len="6"/>
          <note vol="185" pos="372" key="74" pan="0" len="6"/>
          <note vol="185" pos="372" key="70" pan="0" len="6"/>
        </pattern>
        <pattern pos="17664" name="" muted="0" type="1" steps="16">
          <note vol="185" pos="0" key="81" pan="0" len="6"/>
          <note vol="185" pos="0" key="77" pan="0" len="6"/>
          <note vol="185" pos="0" key="72" pan="0" len="6"/>
          <note vol="185" pos="12" key="81" pan="0" len="6"/>
          <note vol="185" pos="12" key="77" pan="0" len="6"/>
          <note vol="185" pos="12" key="72" pan="0" len="6"/>
          <note vol="185" pos="24" key="81" pan="0" len="6"/>
          <note vol="185" pos="24" key="77" pan="0" len="6"/>
          <note vol="185" pos="24" key="72" pan="0" len="6"/>
          <note vol="185" pos="36" key="81" pan="0" len="6"/>
          <note vol="185" pos="36" key="77" pan="0" len="6"/>
          <note vol="185" pos="36" key="72" pan="0" len="6"/>
          <note vol="185" pos="48" key="81" pan="0" len="24"/>
          <note vol="185" pos="48" key="77" pan="0" len="24"/>
          <note vol="185" pos="48" key="72" pan="0" len="24"/>
          <note vol="185" pos="72" key="81" pan="0" len="6"/>
          <note vol="185" pos="72" key="77" pan="0" len="6"/>
          <note vol="185" pos="72" key="72" pan="0" len="6"/>
          <note vol="185" pos="84" key="81" pan="0" len="6"/>
          <note vol="185" pos="84" key="77" pan="0" len="6"/>
          <note vol="185" pos="84" key="72" pan="0" len="6"/>
          <note vol="185" pos="96" key="81" pan="0" len="6"/>
          <note vol="185" pos="96" key="77" pan="0" len="6"/>
          <note vol="185" pos="96" key="72" pan="0" len="6"/>
          <note vol="185" pos="108" key="81" pan="0" len="6"/>
          <note vol="185" pos="108" key="77" pan="0" len="6"/>
          <note vol="185" pos="108" key="72" pan="0" len="6"/>
          <note vol="185" pos="120" key="81" pan="0" len="6"/>
          <note vol="185" pos="120" key="77" pan="0" len="6"/>
          <note vol="185" pos="120" key="72" pan="0" len="6"/>
          <note vol="185" pos="132" key="81" pan="0" len="6"/>
          <note vol="185" pos="132" key="77" pan="0" len="6"/>
          <note vol="185" pos="132" key="72" pan="0" len="6"/>
          <note vol="185" pos="144" key="81" pan="0" len="24"/>
          <note vol="185" pos="144" key="77" pan="0" len="24"/>
          <note vol="185" pos="144" key="72" pan="0" len="24"/>
          <note vol="185" pos="168" key="81" pan="0" len="6"/>
          <note vol="185" pos="168" key="77" pan="0" len="6"/>
          <note vol="185" pos="168" key="72" pan="0" len="6"/>
          <note vol="185" pos="180" key="81" pan="0" len="6"/>
          <note vol="185" pos="180" key="77" pan="0" len="6"/>
          <note vol="185" pos="180" key="72" pan="0" len="6"/>
          <note vol="185" pos="192" key="82" pan="0" len="6"/>
          <note vol="185" pos="192" key="79" pan="0" len="6"/>
          <note vol="185" pos="192" key="74" pan="0" len="6"/>
          <note vol="185" pos="204" key="82" pan="0" len="6"/>
          <note vol="185" pos="204" key="79" pan="0" len="6"/>
          <note vol="185" pos="204" key="74" pan="0" len="6"/>
          <note vol="185" pos="216" key="82" pan="0" len="6"/>
          <note vol="185" pos="216" key="79" pan="0" len="6"/>
          <note vol="185" pos="216" key="74" pan="0" len="6"/>
          <note vol="185" pos="228" key="82" pan="0" len="6"/>
          <note vol="185" pos="228" key="79" pan="0" len="6"/>
          <note vol="185" pos="228" key="74" pan="0" len="6"/>
          <note vol="185" pos="240" key="82" pan="0" len="24"/>
          <note vol="185" pos="240" key="79" pan="0" len="24"/>
          <note vol="185" pos="240" key="74" pan="0" len="24"/>
          <note vol="185" pos="264" key="81" pan="0" len="24"/>
          <note vol="185" pos="264" key="77" pan="0" len="24"/>
          <note vol="185" pos="264" key="74" pan="0" len="24"/>
          <note vol="185" pos="288" key="81" pan="0" len="6"/>
          <note vol="185" pos="288" key="77" pan="0" len="6"/>
          <note vol="185" pos="288" key="74" pan="0" len="6"/>
          <note vol="185" pos="300" key="81" pan="0" len="6"/>
          <note vol="185" pos="300" key="77" pan="0" len="6"/>
          <note vol="185" pos="300" key="74" pan="0" len="6"/>
          <note vol="185" pos="312" key="81" pan="0" len="6"/>
          <note vol="185" pos="312" key="77" pan="0" len="6"/>
          <note vol="185" pos="312" key="74" pan="0" len="6"/>
          <note vol="185" pos="324" key="81" pan="0" len="6"/>
          <note vol="185" pos="324" key="77" pan="0" len="6"/>
          <note vol="185" pos="324" key="74" pan="0" len="6"/>
          <note vol="185" pos="336" key="81" pan="0" len="6"/>
          <note vol="185" pos="336" key="77" pan="0" len="6"/>
          <note vol="185" pos="336" key="74" pan="0" len="6"/>
          <note vol="185" pos="348" key="81" pan="0" len="6"/>
          <note vol="185" pos="348" key="77" pan="0" len="6"/>
          <note vol="185" pos="348" key="74" pan="0" len="6"/>
          <note vol="185" pos="360" key="81" pan="0" len="6"/>
          <note vol="185" pos="360" key="77" pan="0" len="6"/>
          <note vol="185" pos="360" key="74" pan="0" len="6"/>
          <note vol="185" pos="372" key="81" pan="0" len="6"/>
          <note vol="185" pos="372" key="77" pan="0" len="6"/>
          <note vol="185" pos="372" key="74" pan="0" len="6"/>
        </pattern>
        <pattern pos="18048" name="" muted="0" type="1" steps="16">
          <note vol="185" pos="0" key="81" pan="0" len="6"/>
          <note vol="185" pos="0" key="77" pan="0" len="6"/>
          <note vol="185" pos="0" key="74" pan="0" len="6"/>
          <note vol="185" pos="12" key="81" pan="0" len="6"/>
          <note vol="185" pos="12" key="77" pan="0" len="6"/>
          <note vol="185" pos="12" key="74" pan="0" len="6"/>
          <note vol="185" pos="24" key="81" pan="0" len="6"/>
          <note vol="185" pos="24" key="77" pan="0" len="6"/>
          <note vol="185" pos="24" key="74" pan="0" len="6"/>
          <note vol="185" pos="36" key="81" pan="0" len="6"/>
          <note vol="185" pos="36" key="77" pan="0" len="6"/>
          <note vol="185" pos="36" key="74" pan="0" len="6"/>
          <note vol="185" pos="48" key="81" pan="0" len="24"/>
          <note vol="185" pos="48" key="77" pan="0" len="24"/>
          <note vol="185" pos="48" key="74" pan="0" len="24"/>
          <note vol="185" pos="72" key="81" pan="0" len="6"/>
          <note vol="185" pos="72" key="77" pan="0" len="6"/>
          <note vol="185" pos="72" key="74" pan="0" len="6"/>
          <note vol="185" pos="84" key="81" pan="0" len="6"/>
          <note vol="185" pos="84" key="77" pan="0" len="6"/>
          <note vol="185" pos="84" key="74" pan="0" len="6"/>
          <note vol="185" pos="96" key="81" pan="0" len="6"/>
          <note vol="185" pos="96" key="77" pan="0" len="6"/>
          <note vol="185" pos="96" key="74" pan="0" len="6"/>
          <note vol="185" pos="108" key="81" pan="0" len="6"/>
          <note vol="185" pos="108" key="77" pan="0" len="6"/>
          <note vol="185" pos="108" key="74" pan="0" len="6"/>
          <note vol="185" pos="120" key="81" pan="0" len="6"/>
          <note vol="185" pos="120" key="77" pan="0" len="6"/>
          <note vol="185" pos="120" key="74" pan="0" len="6"/>
          <note vol="185" pos="132" key="81" pan="0" len="6"/>
          <note vol="185" pos="132" key="77" pan="0" len="6"/>
          <note vol="185" pos="132" key="74" pan="0" len="6"/>
          <note vol="185" pos="144" key="81" pan="0" len="24"/>
          <note vol="185" pos="144" key="77" pan="0" len="24"/>
          <note vol="185" pos="144" key="74" pan="0" len="24"/>
          <note vol="185" pos="168" key="81" pan="0" len="6"/>
          <note vol="185" pos="168" key="77" pan="0" len="6"/>
          <note vol="185" pos="168" key="74" pan="0" len="6"/>
          <note vol="185" pos="180" key="81" pan="0" len="6"/>
          <note vol="185" pos="180" key="77" pan="0" len="6"/>
          <note vol="185" pos="180" key="74" pan="0" len="6"/>
          <note vol="185" pos="192" key="84" pan="0" len="6"/>
          <note vol="185" pos="192" key="79" pan="0" len="6"/>
          <note vol="185" pos="192" key="76" pan="0" len="6"/>
          <note vol="185" pos="204" key="84" pan="0" len="6"/>
          <note vol="185" pos="204" key="79" pan="0" len="6"/>
          <note vol="185" pos="204" key="76" pan="0" len="6"/>
          <note vol="185" pos="216" key="84" pan="0" len="6"/>
          <note vol="185" pos="216" key="79" pan="0" len="6"/>
          <note vol="185" pos="216" key="76" pan="0" len="6"/>
          <note vol="185" pos="228" key="84" pan="0" len="6"/>
          <note vol="185" pos="228" key="79" pan="0" len="6"/>
          <note vol="185" pos="228" key="76" pan="0" len="6"/>
          <note vol="185" pos="240" key="84" pan="0" len="24"/>
          <note vol="185" pos="240" key="79" pan="0" len="24"/>
          <note vol="185" pos="240" key="76" pan="0" len="24"/>
          <note vol="185" pos="264" key="86" pan="0" len="24"/>
          <note vol="185" pos="264" key="82" pan="0" len="24"/>
          <note vol="185" pos="264" key="77" pan="0" len="24"/>
          <note vol="185" pos="288" key="86" pan="0" len="6"/>
          <note vol="185" pos="288" key="82" pan="0" len="6"/>
          <note vol="185" pos="288" key="77" pan="0" len="6"/>
          <note vol="185" pos="300" key="86" pan="0" len="6"/>
          <note vol="185" pos="300" key="82" pan="0" len="6"/>
          <note vol="185" pos="300" key="77" pan="0" len="6"/>
          <note vol="185" pos="312" key="86" pan="0" len="6"/>
          <note vol="185" pos="312" key="82" pan="0" len="6"/>
          <note vol="185" pos="312" key="77" pan="0" len="6"/>
          <note vol="185" pos="324" key="86" pan="0" len="6"/>
          <note vol="185" pos="324" key="82" pan="0" len="6"/>
          <note vol="185" pos="324" key="77" pan="0" len="6"/>
          <note vol="185" pos="336" key="86" pan="0" len="6"/>
          <note vol="185" pos="336" key="82" pan="0" len="6"/>
          <note vol="185" pos="336" key="77" pan="0" len="6"/>
          <note vol="185" pos="348" key="86" pan="0" len="6"/>
          <note vol="185" pos="348" key="82" pan="0" len="6"/>
          <note vol="185" pos="348" key="77" pan="0" len="6"/>
          <note vol="185" pos="360" key="86" pan="0" len="6"/>
          <note vol="185" pos="360" key="82" pan="0" len="6"/>
          <note vol="185" pos="360" key="77" pan="0" len="6"/>
          <note vol="185" pos="372" key="86" pan="0" len="6"/>
          <note vol="185" pos="372" key="82" pan="0" len="6"/>
          <note vol="185" pos="372" key="77" pan="0" len="6"/>
        </pattern>
        <pattern pos="18432" name="" muted="0" type="1" steps="16">
          <note vol="185" pos="0" key="84" pan="0" len="6"/>
          <note vol="185" pos="0" key="81" pan="0" len="6"/>
          <note vol="185" pos="0" key="77" pan="0" len="6"/>
          <note vol="185" pos="12" key="84" pan="0" len="6"/>
          <note vol="185" pos="12" key="81" pan="0" len="6"/>
          <note vol="185" pos="12" key="77" pan="0" len="6"/>
          <note vol="185" pos="24" key="84" pan="0" len="6"/>
          <note vol="185" pos="24" key="81" pan="0" len="6"/>
          <note vol="185" pos="24" key="77" pan="0" len="6"/>
          <note vol="185" pos="36" key="84" pan="0" len="6"/>
          <note vol="185" pos="36" key="81" pan="0" len="6"/>
          <note vol="185" pos="36" key="77" pan="0" len="6"/>
          <note vol="185" pos="48" key="84" pan="0" len="24"/>
          <note vol="185" pos="48" key="81" pan="0" len="24"/>
          <note vol="185" pos="48" key="77" pan="0" len="24"/>
          <note vol="185" pos="72" key="84" pan="0" len="6"/>
          <note vol="185" pos="72" key="81" pan="0" len="6"/>
          <note vol="185" pos="72" key="77" pan="0" len="6"/>
          <note vol="185" pos="84" key="84" pan="0" len="6"/>
          <note vol="185" pos="84" key="81" pan="0" len="6"/>
          <note vol="185" pos="84" key="77" pan="0" len="6"/>
          <note vol="185" pos="96" key="84" pan="0" len="6"/>
          <note vol="185" pos="96" key="81" pan="0" len="6"/>
          <note vol="185" pos="96" key="77" pan="0" len="6"/>
          <note vol="185" pos="108" key="84" pan="0" len="6"/>
          <note vol="185" pos="108" key="81" pan="0" len="6"/>
          <note vol="185" pos="108" key="77" pan="0" len="6"/>
          <note vol="185" pos="120" key="84" pan="0" len="6"/>
          <note vol="185" pos="120" key="81" pan="0" len="6"/>
          <note vol="185" pos="120" key="77" pan="0" len="6"/>
          <note vol="185" pos="132" key="84" pan="0" len="6"/>
          <note vol="185" pos="132" key="81" pan="0" len="6"/>
          <note vol="185" pos="132" key="77" pan="0" len="6"/>
          <note vol="185" pos="144" key="84" pan="0" len="24"/>
          <note vol="185" pos="144" key="81" pan="0" len="24"/>
          <note vol="185" pos="144" key="77" pan="0" len="24"/>
          <note vol="185" pos="168" key="84" pan="0" len="6"/>
          <note vol="185" pos="168" key="81" pan="0" len="6"/>
          <note vol="185" pos="168" key="77" pan="0" len="6"/>
          <note vol="185" pos="180" key="84" pan="0" len="6"/>
          <note vol="185" pos="180" key="81" pan="0" len="6"/>
          <note vol="185" pos="180" key="77" pan="0" len="6"/>
          <note vol="185" pos="192" key="86" pan="0" len="6"/>
          <note vol="185" pos="192" key="82" pan="0" len="6"/>
          <note vol="185" pos="192" key="79" pan="0" len="6"/>
          <note vol="185" pos="204" key="86" pan="0" len="6"/>
          <note vol="185" pos="204" key="82" pan="0" len="6"/>
          <note vol="185" pos="204" key="79" pan="0" len="6"/>
          <note vol="185" pos="216" key="86" pan="0" len="6"/>
          <note vol="185" pos="216" key="82" pan="0" len="6"/>
          <note vol="185" pos="216" key="79" pan="0" len="6"/>
          <note vol="185" pos="228" key="86" pan="0" len="6"/>
          <note vol="185" pos="228" key="82" pan="0" len="6"/>
          <note vol="185" pos="228" key="79" pan="0" len="6"/>
          <note vol="185" pos="240" key="86" pan="0" len="24"/>
          <note vol="185" pos="240" key="82" pan="0" len="24"/>
          <note vol="185" pos="240" key="79" pan="0" len="24"/>
          <note vol="185" pos="264" key="86" pan="0" len="24"/>
          <note vol="185" pos="264" key="81" pan="0" len="24"/>
          <note vol="185" pos="264" key="77" pan="0" len="24"/>
          <note vol="185" pos="288" key="86" pan="0" len="6"/>
          <note vol="185" pos="288" key="81" pan="0" len="6"/>
          <note vol="185" pos="288" key="77" pan="0" len="6"/>
          <note vol="185" pos="300" key="86" pan="0" len="6"/>
          <note vol="185" pos="300" key="81" pan="0" len="6"/>
          <note vol="185" pos="300" key="77" pan="0" len="6"/>
          <note vol="185" pos="312" key="86" pan="0" len="6"/>
          <note vol="185" pos="312" key="81" pan="0" len="6"/>
          <note vol="185" pos="312" key="77" pan="0" len="6"/>
          <note vol="185" pos="324" key="86" pan="0" len="6"/>
          <note vol="185" pos="324" key="81" pan="0" len="6"/>
          <note vol="185" pos="324" key="77" pan="0" len="6"/>
          <note vol="185" pos="336" key="86" pan="0" len="6"/>
          <note vol="185" pos="336" key="81" pan="0" len="6"/>
          <note vol="185" pos="336" key="77" pan="0" len="6"/>
          <note vol="185" pos="348" key="86" pan="0" len="6"/>
          <note vol="185" pos="348" key="81" pan="0" len="6"/>
          <note vol="185" pos="348" key="77" pan="0" len="6"/>
          <note vol="185" pos="360" key="86" pan="0" len="6"/>
          <note vol="185" pos="360" key="81" pan="0" len="6"/>
          <note vol="185" pos="360" key="77" pan="0" len="6"/>
          <note vol="185" pos="372" key="86" pan="0" len="6"/>
          <note vol="185" pos="372" key="81" pan="0" len="6"/>
          <note vol="185" pos="372" key="77" pan="0" len="6"/>
        </pattern>
        <pattern pos="18816" name="" muted="0" type="1" steps="16">
          <note vol="185" pos="0" key="81" pan="0" len="6"/>
          <note vol="185" pos="0" key="77" pan="0" len="6"/>
          <note vol="185" pos="0" key="74" pan="0" len="6"/>
          <note vol="185" pos="12" key="81" pan="0" len="6"/>
          <note vol="185" pos="12" key="77" pan="0" len="6"/>
          <note vol="185" pos="12" key="74" pan="0" len="6"/>
          <note vol="185" pos="24" key="81" pan="0" len="6"/>
          <note vol="185" pos="24" key="77" pan="0" len="6"/>
          <note vol="185" pos="24" key="74" pan="0" len="6"/>
          <note vol="185" pos="36" key="81" pan="0" len="6"/>
          <note vol="185" pos="36" key="77" pan="0" len="6"/>
          <note vol="185" pos="36" key="74" pan="0" len="6"/>
          <note vol="185" pos="48" key="81" pan="0" len="24"/>
          <note vol="185" pos="48" key="77" pan="0" len="24"/>
          <note vol="185" pos="48" key="74" pan="0" len="24"/>
          <note vol="185" pos="72" key="81" pan="0" len="6"/>
          <note vol="185" pos="72" key="77" pan="0" len="6"/>
          <note vol="185" pos="72" key="74" pan="0" len="6"/>
          <note vol="185" pos="84" key="81" pan="0" len="6"/>
          <note vol="185" pos="84" key="77" pan="0" len="6"/>
          <note vol="185" pos="84" key="74" pan="0" len="6"/>
          <note vol="185" pos="96" key="81" pan="0" len="6"/>
          <note vol="185" pos="96" key="77" pan="0" len="6"/>
          <note vol="185" pos="96" key="74" pan="0" len="6"/>
          <note vol="185" pos="108" key="81" pan="0" len="6"/>
          <note vol="185" pos="108" key="77" pan="0" len="6"/>
          <note vol="185" pos="108" key="74" pan="0" len="6"/>
          <note vol="185" pos="120" key="81" pan="0" len="6"/>
          <note vol="185" pos="120" key="77" pan="0" len="6"/>
          <note vol="185" pos="120" key="74" pan="0" len="6"/>
          <note vol="185" pos="132" key="81" pan="0" len="6"/>
          <note vol="185" pos="132" key="77" pan="0" len="6"/>
          <note vol="185" pos="132" key="74" pan="0" len="6"/>
          <note vol="185" pos="144" key="81" pan="0" len="24"/>
          <note vol="185" pos="144" key="77" pan="0" len="24"/>
          <note vol="185" pos="144" key="74" pan="0" len="24"/>
          <note vol="185" pos="168" key="81" pan="0" len="6"/>
          <note vol="185" pos="168" key="77" pan="0" len="6"/>
          <note vol="185" pos="168" key="74" pan="0" len="6"/>
          <note vol="185" pos="180" key="81" pan="0" len="6"/>
          <note vol="185" pos="180" key="77" pan="0" len="6"/>
          <note vol="185" pos="180" key="74" pan="0" len="6"/>
          <note vol="185" pos="192" key="79" pan="0" len="6"/>
          <note vol="185" pos="192" key="76" pan="0" len="6"/>
          <note vol="185" pos="192" key="72" pan="0" len="6"/>
          <note vol="185" pos="204" key="79" pan="0" len="6"/>
          <note vol="185" pos="204" key="76" pan="0" len="6"/>
          <note vol="185" pos="204" key="72" pan="0" len="6"/>
          <note vol="185" pos="216" key="79" pan="0" len="6"/>
          <note vol="185" pos="216" key="76" pan="0" len="6"/>
          <note vol="185" pos="216" key="72" pan="0" len="6"/>
          <note vol="185" pos="228" key="79" pan="0" len="6"/>
          <note vol="185" pos="228" key="76" pan="0" len="6"/>
          <note vol="185" pos="228" key="72" pan="0" len="6"/>
          <note vol="185" pos="240" key="79" pan="0" len="24"/>
          <note vol="185" pos="240" key="76" pan="0" len="24"/>
          <note vol="185" pos="240" key="72" pan="0" len="24"/>
          <note vol="185" pos="264" key="77" pan="0" len="24"/>
          <note vol="185" pos="264" key="74" pan="0" len="24"/>
          <note vol="185" pos="264" key="70" pan="0" len="24"/>
          <note vol="185" pos="288" key="77" pan="0" len="6"/>
          <note vol="185" pos="288" key="74" pan="0" len="6"/>
          <note vol="185" pos="288" key="70" pan="0" len="6"/>
          <note vol="185" pos="300" key="77" pan="0" len="6"/>
          <note vol="185" pos="300" key="74" pan="0" len="6"/>
          <note vol="185" pos="300" key="70" pan="0" len="6"/>
          <note vol="185" pos="312" key="77" pan="0" len="6"/>
          <note vol="185" pos="312" key="74" pan="0" len="6"/>
          <note vol="185" pos="312" key="70" pan="0" len="6"/>
          <note vol="185" pos="324" key="77" pan="0" len="6"/>
          <note vol="185" pos="324" key="74" pan="0" len="6"/>
          <note vol="185" pos="324" key="70" pan="0" len="6"/>
          <note vol="185" pos="336" key="77" pan="0" len="6"/>
          <note vol="185" pos="336" key="74" pan="0" len="6"/>
          <note vol="185" pos="336" key="70" pan="0" len="6"/>
          <note vol="185" pos="348" key="77" pan="0" len="6"/>
          <note vol="185" pos="348" key="74" pan="0" len="6"/>
          <note vol="185" pos="348" key="70" pan="0" len="6"/>
          <note vol="185" pos="360" key="77" pan="0" len="6"/>
          <note vol="185" pos="360" key="74" pan="0" len="6"/>
          <note vol="185" pos="360" key="70" pan="0" len="6"/>
          <note vol="185" pos="372" key="77" pan="0" len="6"/>
          <note vol="185" pos="372" key="74" pan="0" len="6"/>
          <note vol="185" pos="372" key="70" pan="0" len="6"/>
        </pattern>
        <pattern pos="19200" name="" muted="0" type="1" steps="16">
          <note vol="185" pos="0" key="81" pan="0" len="6"/>
          <note vol="185" pos="0" key="77" pan="0" len="6"/>
          <note vol="185" pos="0" key="72" pan="0" len="6"/>
          <note vol="185" pos="12" key="81" pan="0" len="6"/>
          <note vol="185" pos="12" key="77" pan="0" len="6"/>
          <note vol="185" pos="12" key="72" pan="0" len="6"/>
          <note vol="185" pos="24" key="81" pan="0" len="6"/>
          <note vol="185" pos="24" key="77" pan="0" len="6"/>
          <note vol="185" pos="24" key="72" pan="0" len="6"/>
          <note vol="185" pos="36" key="81" pan="0" len="6"/>
          <note vol="185" pos="36" key="77" pan="0" len="6"/>
          <note vol="185" pos="36" key="72" pan="0" len="6"/>
          <note vol="185" pos="48" key="81" pan="0" len="24"/>
          <note vol="185" pos="48" key="77" pan="0" len="24"/>
          <note vol="185" pos="48" key="72" pan="0" len="24"/>
          <note vol="185" pos="72" key="81" pan="0" len="6"/>
          <note vol="185" pos="72" key="77" pan="0" len="6"/>
          <note vol="185" pos="72" key="72" pan="0" len="6"/>
          <note vol="185" pos="84" key="81" pan="0" len="6"/>
          <note vol="185" pos="84" key="77" pan="0" len="6"/>
          <note vol="185" pos="84" key="72" pan="0" len="6"/>
          <note vol="185" pos="96" key="81" pan="0" len="6"/>
          <note vol="185" pos="96" key="77" pan="0" len="6"/>
          <note vol="185" pos="96" key="72" pan="0" len="6"/>
          <note vol="185" pos="108" key="81" pan="0" len="6"/>
          <note vol="185" pos="108" key="77" pan="0" len="6"/>
          <note vol="185" pos="108" key="72" pan="0" len="6"/>
          <note vol="185" pos="120" key="81" pan="0" len="6"/>
          <note vol="185" pos="120" key="77" pan="0" len="6"/>
          <note vol="185" pos="120" key="72" pan="0" len="6"/>
          <note vol="185" pos="132" key="81" pan="0" len="6"/>
          <note vol="185" pos="132" key="77" pan="0" len="6"/>
          <note vol="185" pos="132" key="72" pan="0" len="6"/>
          <note vol="185" pos="144" key="81" pan="0" len="24"/>
          <note vol="185" pos="144" key="77" pan="0" len="24"/>
          <note vol="185" pos="144" key="72" pan="0" len="24"/>
          <note vol="185" pos="168" key="81" pan="0" len="6"/>
          <note vol="185" pos="168" key="77" pan="0" len="6"/>
          <note vol="185" pos="168" key="72" pan="0" len="6"/>
          <note vol="185" pos="180" key="81" pan="0" len="6"/>
          <note vol="185" pos="180" key="77" pan="0" len="6"/>
          <note vol="185" pos="180" key="72" pan="0" len="6"/>
          <note vol="185" pos="192" key="82" pan="0" len="6"/>
          <note vol="185" pos="192" key="79" pan="0" len="6"/>
          <note vol="185" pos="192" key="74" pan="0" len="6"/>
          <note vol="185" pos="204" key="82" pan="0" len="6"/>
          <note vol="185" pos="204" key="79" pan="0" len="6"/>
          <note vol="185" pos="204" key="74" pan="0" len="6"/>
          <note vol="185" pos="216" key="82" pan="0" len="6"/>
          <note vol="185" pos="216" key="79" pan="0" len="6"/>
          <note vol="185" pos="216" key="74" pan="0" len="6"/>
          <note vol="185" pos="228" key="82" pan="0" len="6"/>
          <note vol="185" pos="228" key="79" pan="0" len="6"/>
          <note vol="185" pos="228" key="74" pan="0" len="6"/>
          <note vol="185" pos="240" key="82" pan="0" len="24"/>
          <note vol="185" pos="240" key="79" pan="0" len="24"/>
          <note vol="185" pos="240" key="74" pan="0" len="24"/>
          <note vol="185" pos="264" key="81" pan="0" len="24"/>
          <note vol="185" pos="264" key="77" pan="0" len="24"/>
          <note vol="185" pos="264" key="74" pan="0" len="24"/>
          <note vol="185" pos="288" key="81" pan="0" len="6"/>
          <note vol="185" pos="288" key="77" pan="0" len="6"/>
          <note vol="185" pos="288" key="74" pan="0" len="6"/>
          <note vol="185" pos="300" key="81" pan="0" len="6"/>
          <note vol="185" pos="300" key="77" pan="0" len="6"/>
          <note vol="185" pos="300" key="74" pan="0" len="6"/>
          <note vol="185" pos="312" key="81" pan="0" len="6"/>
          <note vol="185" pos="312" key="77" pan="0" len="6"/>
          <note vol="185" pos="312" key="74" pan="0" len="6"/>
          <note vol="185" pos="324" key="81" pan="0" len="6"/>
          <note vol="185" pos="324" key="77" pan="0" len="6"/>
          <note vol="185" pos="324" key="74" pan="0" len="6"/>
          <note vol="185" pos="336" key="81" pan="0" len="6"/>
          <note vol="185" pos="336" key="77" pan="0" len="6"/>
          <note vol="185" pos="336" key="74" pan="0" len="6"/>
          <note vol="185" pos="348" key="81" pan="0" len="6"/>
          <note vol="185" pos="348" key="77" pan="0" len="6"/>
          <note vol="185" pos="348" key="74" pan="0" len="6"/>
          <note vol="185" pos="360" key="81" pan="0" len="6"/>
          <note vol="185" pos="360" key="77" pan="0" len="6"/>
          <note vol="185" pos="360" key="74" pan="0" len="6"/>
          <note vol="185" pos="372" key="81" pan="0" len="6"/>
          <note vol="185" pos="372" key="77" pan="0" len="6"/>
          <note vol="185" pos="372" key="74" pan="0" len="6"/>
        </pattern>
        <pattern pos="19584" name="" muted="0" type="1" steps="16">
          <note vol="185" pos="0" key="81" pan="0" len="6"/>
          <note vol="185" pos="0" key="77" pan="0" len="6"/>
          <note vol="185" pos="0" key="74" pan="0" len="6"/>
          <note vol="185" pos="12" key="81" pan="0" len="6"/>
          <note vol="185" pos="12" key="77" pan="0" len="6"/>
          <note vol="185" pos="12" key="74" pan="0" len="6"/>
          <note vol="185" pos="24" key="81" pan="0" len="6"/>
          <note vol="185" pos="24" key="77" pan="0" len="6"/>
          <note vol="185" pos="24" key="74" pan="0" len="6"/>
          <note vol="185" pos="36" key="81" pan="0" len="6"/>
          <note vol="185" pos="36" key="77" pan="0" len="6"/>
          <note vol="185" pos="36" key="74" pan="0" len="6"/>
          <note vol="185" pos="48" key="81" pan="0" len="24"/>
          <note vol="185" pos="48" key="77" pan="0" len="24"/>
          <note vol="185" pos="48" key="74" pan="0" len="24"/>
          <note vol="185" pos="72" key="81" pan="0" len="6"/>
          <note vol="185" pos="72" key="77" pan="0" len="6"/>
          <note vol="185" pos="72" key="74" pan="0" len="6"/>
          <note vol="185" pos="84" key="81" pan="0" len="6"/>
          <note vol="185" pos="84" key="77" pan="0" len="6"/>
          <note vol="185" pos="84" key="74" pan="0" len="6"/>
          <note vol="185" pos="96" key="81" pan="0" len="6"/>
          <note vol="185" pos="96" key="77" pan="0" len="6"/>
          <note vol="185" pos="96" key="74" pan="0" len="6"/>
          <note vol="185" pos="108" key="81" pan="0" len="6"/>
          <note vol="185" pos="108" key="77" pan="0" len="6"/>
          <note vol="185" pos="108" key="74" pan="0" len="6"/>
          <note vol="185" pos="120" key="81" pan="0" len="6"/>
          <note vol="185" pos="120" key="77" pan="0" len="6"/>
          <note vol="185" pos="120" key="74" pan="0" len="6"/>
          <note vol="185" pos="132" key="81" pan="0" len="6"/>
          <note vol="185" pos="132" key="77" pan="0" len="6"/>
          <note vol="185" pos="132" key="74" pan="0" len="6"/>
          <note vol="185" pos="144" key="81" pan="0" len="24"/>
          <note vol="185" pos="144" key="77" pan="0" len="24"/>
          <note vol="185" pos="144" key="74" pan="0" len="24"/>
          <note vol="185" pos="168" key="81" pan="0" len="6"/>
          <note vol="185" pos="168" key="77" pan="0" len="6"/>
          <note vol="185" pos="168" key="74" pan="0" len="6"/>
          <note vol="185" pos="180" key="81" pan="0" len="6"/>
          <note vol="185" pos="180" key="77" pan="0" len="6"/>
          <note vol="185" pos="180" key="74" pan="0" len="6"/>
          <note vol="185" pos="192" key="84" pan="0" len="6"/>
          <note vol="185" pos="192" key="79" pan="0" len="6"/>
          <note vol="185" pos="192" key="76" pan="0" len="6"/>
          <note vol="185" pos="204" key="84" pan="0" len="6"/>
          <note vol="185" pos="204" key="79" pan="0" len="6"/>
          <note vol="185" pos="204" key="76" pan="0" len="6"/>
          <note vol="185" pos="216" key="84" pan="0" len="6"/>
          <note vol="185" pos="216" key="79" pan="0" len="6"/>
          <note vol="185" pos="216" key="76" pan="0" len="6"/>
          <note vol="185" pos="228" key="84" pan="0" len="6"/>
          <note vol="185" pos="228" key="79" pan="0" len="6"/>
          <note vol="185" pos="228" key="76" pan="0" len="6"/>
          <note vol="185" pos="240" key="84" pan="0" len="24"/>
          <note vol="185" pos="240" key="79" pan="0" len="24"/>
          <note vol="185" pos="240" key="76" pan="0" len="24"/>
          <note vol="185" pos="264" key="86" pan="0" len="24"/>
          <note vol="185" pos="264" key="82" pan="0" len="24"/>
          <note vol="185" pos="264" key="77" pan="0" len="24"/>
          <note vol="185" pos="288" key="86" pan="0" len="6"/>
          <note vol="185" pos="288" key="82" pan="0" len="6"/>
          <note vol="185" pos="288" key="77" pan="0" len="6"/>
          <note vol="185" pos="300" key="86" pan="0" len="6"/>
          <note vol="185" pos="300" key="82" pan="0" len="6"/>
          <note vol="185" pos="300" key="77" pan="0" len="6"/>
          <note vol="185" pos="312" key="86" pan="0" len="6"/>
          <note vol="185" pos="312" key="82" pan="0" len="6"/>
          <note vol="185" pos="312" key="77" pan="0" len="6"/>
          <note vol="185" pos="324" key="86" pan="0" len="6"/>
          <note vol="185" pos="324" key="82" pan="0" len="6"/>
          <note vol="185" pos="324" key="77" pan="0" len="6"/>
          <note vol="185" pos="336" key="86" pan="0" len="6"/>
          <note vol="185" pos="336" key="82" pan="0" len="6"/>
          <note vol="185" pos="336" key="77" pan="0" len="6"/>
          <note vol="185" pos="348" key="86" pan="0" len="6"/>
          <note vol="185" pos="348" key="82" pan="0" len="6"/>
          <note vol="185" pos="348" key="77" pan="0" len="6"/>
          <note vol="185" pos="360" key="86" pan="0" len="6"/>
          <note vol="185" pos="360" key="82" pan="0" len="6"/>
          <note vol="185" pos="360" key="77" pan="0" len="6"/>
          <note vol="185" pos="372" key="86" pan="0" len="6"/>
          <note vol="185" pos="372" key="82" pan="0" len="6"/>
          <note vol="185" pos="372" key="77" pan="0" len="6"/>
        </pattern>
        <pattern pos="19968" name="" muted="0" type="1" steps="16">
          <note vol="185" pos="0" key="84" pan="0" len="6"/>
          <note vol="185" pos="0" key="81" pan="0" len="6"/>
          <note vol="185" pos="0" key="77" pan="0" len="6"/>
          <note vol="185" pos="12" key="84" pan="0" len="6"/>
          <note vol="185" pos="12" key="81" pan="0" len="6"/>
          <note vol="185" pos="12" key="77" pan="0" len="6"/>
          <note vol="185" pos="24" key="84" pan="0" len="6"/>
          <note vol="185" pos="24" key="81" pan="0" len="6"/>
          <note vol="185" pos="24" key="77" pan="0" len="6"/>
          <note vol="185" pos="36" key="84" pan="0" len="6"/>
          <note vol="185" pos="36" key="81" pan="0" len="6"/>
          <note vol="185" pos="36" key="77" pan="0" len="6"/>
          <note vol="185" pos="48" key="84" pan="0" len="24"/>
          <note vol="185" pos="48" key="81" pan="0" len="24"/>
          <note vol="185" pos="48" key="77" pan="0" len="24"/>
          <note vol="185" pos="72" key="84" pan="0" len="6"/>
          <note vol="185" pos="72" key="81" pan="0" len="6"/>
          <note vol="185" pos="72" key="77" pan="0" len="6"/>
          <note vol="185" pos="84" key="84" pan="0" len="6"/>
          <note vol="185" pos="84" key="81" pan="0" len="6"/>
          <note vol="185" pos="84" key="77" pan="0" len="6"/>
          <note vol="185" pos="96" key="84" pan="0" len="6"/>
          <note vol="185" pos="96" key="81" pan="0" len="6"/>
          <note vol="185" pos="96" key="77" pan="0" len="6"/>
          <note vol="185" pos="108" key="84" pan="0" len="6"/>
          <note vol="185" pos="108" key="81" pan="0" len="6"/>
          <note vol="185" pos="108" key="77" pan="0" len="6"/>
          <note vol="185" pos="120" key="84" pan="0" len="6"/>
          <note vol="185" pos="120" key="81" pan="0" len="6"/>
          <note vol="185" pos="120" key="77" pan="0" len="6"/>
          <note vol="185" pos="132" key="84" pan="0" len="6"/>
          <note vol="185" pos="132" key="81" pan="0" len="6"/>
          <note vol="185" pos="132" key="77" pan="0" len="6"/>
          <note vol="185" pos="144" key="84" pan="0" len="24"/>
          <note vol="185" pos="144" key="81" pan="0" len="24"/>
          <note vol="185" pos="144" key="77" pan="0" len="24"/>
          <note vol="185" pos="168" key="84" pan="0" len="6"/>
          <note vol="185" pos="168" key="81" pan="0" len="6"/>
          <note vol="185" pos="168" key="77" pan="0" len="6"/>
          <note vol="185" pos="180" key="84" pan="0" len="6"/>
          <note vol="185" pos="180" key="81" pan="0" len="6"/>
          <note vol="185" pos="180" key="77" pan="0" len="6"/>
          <note vol="185" pos="192" key="86" pan="0" len="6"/>
          <note vol="185" pos="192" key="82" pan="0" len="6"/>
          <note vol="185" pos="192" key="79" pan="0" len="6"/>
          <note vol="185" pos="204" key="86" pan="0" len="6"/>
          <note vol="185" pos="204" key="82" pan="0" len="6"/>
          <note vol="185" pos="204" key="79" pan="0" len="6"/>
          <note vol="185" pos="216" key="86" pan="0" len="6"/>
          <note vol="185" pos="216" key="82" pan="0" len="6"/>
          <note vol="185" pos="216" key="79" pan="0" len="6"/>
          <note vol="185" pos="228" key="86" pan="0" len="6"/>
          <note vol="185" pos="228" key="82" pan="0" len="6"/>
          <note vol="185" pos="228" key="79" pan="0" len="6"/>
          <note vol="185" pos="240" key="86" pan="0" len="24"/>
          <note vol="185" pos="240" key="82" pan="0" len="24"/>
          <note vol="185" pos="240" key="79" pan="0" len="24"/>
          <note vol="185" pos="264" key="86" pan="0" len="24"/>
          <note vol="185" pos="264" key="81" pan="0" len="24"/>
          <note vol="185" pos="264" key="77" pan="0" len="24"/>
          <note vol="185" pos="288" key="86" pan="0" len="6"/>
          <note vol="185" pos="288" key="81" pan="0" len="6"/>
          <note vol="185" pos="288" key="77" pan="0" len="6"/>
          <note vol="185" pos="300" key="86" pan="0" len="6"/>
          <note vol="185" pos="300" key="81" pan="0" len="6"/>
          <note vol="185" pos="300" key="77" pan="0" len="6"/>
          <note vol="185" pos="312" key="86" pan="0" len="6"/>
          <note vol="185" pos="312" key="81" pan="0" len="6"/>
          <note vol="185" pos="312" key="77" pan="0" len="6"/>
          <note vol="185" pos="324" key="86" pan="0" len="6"/>
          <note vol="185" pos="324" key="81" pan="0" len="6"/>
          <note vol="185" pos="324" key="77" pan="0" len="6"/>
          <note vol="185" pos="336" key="86" pan="0" len="6"/>
          <note vol="185" pos="336" key="81" pan="0" len="6"/>
          <note vol="185" pos="336" key="77" pan="0" len="6"/>
          <note vol="185" pos="348" key="86" pan="0" len="6"/>
          <note vol="185" pos="348" key="81" pan="0" len="6"/>
          <note vol="185" pos="348" key="77" pan="0" len="6"/>
          <note vol="185" pos="360" key="86" pan="0" len="6"/>
          <note vol="185" pos="360" key="81" pan="0" len="6"/>
          <note vol="185" pos="360" key="77" pan="0" len="6"/>
          <note vol="185" pos="372" key="86" pan="0" len="6"/>
          <note vol="185" pos="372" key="81" pan="0" len="6"/>
          <note vol="185" pos="372" key="77" pan="0" len="6"/>
        </pattern>
        <pattern pos="14208" name="" muted="0" type="1" steps="16">
          <note vol="187" pos="0" key="48" pan="0" len="192"/>
          <note vol="187" pos="192" key="46" pan="0" len="96"/>
          <note vol="187" pos="288" key="44" pan="0" len="96"/>
          <note vol="187" pos="384" key="51" pan="0" len="192"/>
          <note vol="187" pos="576" key="44" pan="0" len="96"/>
          <note vol="187" pos="672" key="43" pan="0" len="96"/>
          <note vol="187" pos="768" key="48" pan="0" len="192"/>
          <note vol="187" pos="960" key="50" pan="0" len="72"/>
          <note vol="187" pos="1032" key="51" pan="0" len="120"/>
          <note vol="187" pos="1152" key="43" pan="0" len="192"/>
          <note vol="187" pos="1344" key="41" pan="0" len="72"/>
          <note vol="187" pos="1416" key="39" pan="0" len="120"/>
        </pattern>
        <pattern pos="29952" name="" muted="0" type="1" steps="16">
          <note vol="157" pos="0" key="76" pan="0" len="72"/>
          <note vol="144" pos="72" key="64" pan="0" len="24"/>
          <note vol="144" pos="96" key="66" pan="0" len="24"/>
          <note vol="144" pos="120" key="67" pan="0" len="24"/>
          <note vol="144" pos="144" key="72" pan="0" len="72"/>
          <note vol="144" pos="216" key="71" pan="0" len="72"/>
          <note vol="144" pos="288" key="76" pan="0" len="24"/>
          <note vol="144" pos="312" key="71" pan="0" len="24"/>
          <note vol="144" pos="336" key="76" pan="0" len="24"/>
          <note vol="151" pos="360" key="78" pan="0" len="24"/>
          <note vol="157" pos="384" key="79" pan="0" len="24"/>
          <note vol="151" pos="408" key="78" pan="0" len="24"/>
          <note vol="144" pos="432" key="74" pan="0" len="24"/>
          <note vol="144" pos="456" key="69" pan="0" len="24"/>
          <note vol="144" pos="480" key="67" pan="0" len="24"/>
          <note vol="144" pos="504" key="66" pan="0" len="24"/>
          <note vol="138" pos="528" key="62" pan="0" len="48"/>
          <note vol="151" pos="600" key="62" pan="0" len="23"/>
          <note vol="151" pos="624" key="71" pan="0" len="23"/>
          <note vol="151" pos="648" key="67" pan="0" len="23"/>
          <note vol="151" pos="672" key="64" pan="0" len="23"/>
          <note vol="157" pos="696" key="66" pan="0" len="23"/>
          <note vol="151" pos="720" key="74" pan="0" len="12"/>
          <note vol="151" pos="732" key="76" pan="0" len="11"/>
          <note vol="157" pos="744" key="74" pan="0" len="23"/>
          <note vol="157" pos="768" key="67" pan="0" len="24"/>
          <note vol="132" pos="792" key="59" pan="0" len="24"/>
          <note vol="144" pos="816" key="64" pan="0" len="24"/>
          <note vol="151" pos="840" key="66" pan="0" len="24"/>
          <note vol="151" pos="864" key="59" pan="0" len="24"/>
          <note vol="151" pos="888" key="64" pan="0" len="24"/>
          <note vol="163" pos="912" key="67" pan="0" len="24"/>
          <note vol="151" pos="936" key="59" pan="0" len="24"/>
          <note vol="151" pos="960" key="64" pan="0" len="24"/>
          <note vol="163" pos="984" key="71" pan="0" len="24"/>
          <note vol="151" pos="1008" key="64" pan="0" len="24"/>
          <note vol="151" pos="1032" key="67" pan="0" len="24"/>
          <note vol="163" pos="1056" key="76" pan="0" len="24"/>
          <note vol="157" pos="1080" key="71" pan="0" len="24"/>
          <note vol="151" pos="1104" key="76" pan="0" len="24"/>
          <note vol="163" pos="1128" key="78" pan="0" len="24"/>
          <note vol="168" pos="1152" key="79" pan="0" len="24"/>
          <note vol="151" pos="1176" key="71" pan="0" len="24"/>
          <note vol="157" pos="1200" key="76" pan="0" len="24"/>
          <note vol="168" pos="1224" key="83" pan="0" len="48"/>
          <note vol="157" pos="1224" key="71" pan="0" len="48"/>
          <note vol="168" pos="1272" key="81" pan="0" len="48"/>
          <note vol="157" pos="1272" key="69" pan="0" len="48"/>
          <note vol="168" pos="1320" key="78" pan="0" len="48"/>
          <note vol="151" pos="1320" key="66" pan="0" len="48"/>
          <note vol="151" pos="1368" key="69" pan="0" len="24"/>
          <note vol="151" pos="1392" key="76" pan="0" len="24"/>
          <note vol="151" pos="1416" key="78" pan="0" len="24"/>
          <note vol="151" pos="1440" key="79" pan="0" len="72"/>
          <note vol="144" pos="1512" key="78" pan="0" len="84"/>
        </pattern>
        <pattern pos="26880" name="" muted="0" type="1" steps="16">
          <note vol="170" pos="0" key="64" pan="0" len="72"/>
          <note vol="170" pos="0" key="55" pan="0" len="72"/>
          <note vol="197" pos="0" key="52" pan="0" len="384"/>
          <note vol="197" pos="0" key="47" pan="0" len="384"/>
          <note vol="170" pos="72" key="52" pan="0" len="72"/>
          <note vol="170" pos="72" key="43" pan="0" len="72"/>
          <note vol="170" pos="144" key="55" pan="0" len="72"/>
          <note vol="170" pos="144" key="47" pan="0" len="72"/>
          <note vol="170" pos="216" key="59" pan="0" len="72"/>
          <note vol="170" pos="216" key="50" pan="0" len="72"/>
          <note vol="163" pos="288" key="64" pan="0" len="48"/>
          <note vol="163" pos="288" key="55" pan="0" len="48"/>
          <note vol="163" pos="336" key="66" pan="0" len="48"/>
          <note vol="163" pos="336" key="57" pan="0" len="48"/>
          <note vol="170" pos="384" key="67" pan="0" len="72"/>
          <note vol="170" pos="384" key="59" pan="0" len="72"/>
          <note vol="197" pos="384" key="52" pan="0" len="144"/>
          <note vol="197" pos="384" key="48" pan="0" len="144"/>
          <note vol="170" pos="456" key="66" pan="0" len="72"/>
          <note vol="170" pos="456" key="57" pan="0" len="72"/>
          <note vol="170" pos="528" key="62" pan="0" len="72"/>
          <note vol="170" pos="528" key="54" pan="0" len="72"/>
          <note vol="197" pos="528" key="54" pan="0" len="240"/>
          <note vol="197" pos="528" key="50" pan="0" len="240"/>
          <note vol="170" pos="600" key="57" pan="0" len="72"/>
          <note vol="170" pos="600" key="48" pan="0" len="72"/>
          <note vol="163" pos="672" key="55" pan="0" len="48"/>
          <note vol="163" pos="672" key="47" pan="0" len="48"/>
          <note vol="163" pos="720" key="57" pan="0" len="48"/>
          <note vol="163" pos="720" key="48" pan="0" len="48"/>
          <note vol="170" pos="768" key="59" pan="0" len="72"/>
          <note vol="197" pos="768" key="52" pan="0" len="384"/>
          <note vol="170" pos="768" key="50" pan="0" len="72"/>
          <note vol="197" pos="768" key="47" pan="0" len="384"/>
          <note vol="170" pos="840" key="52" pan="0" len="72"/>
          <note vol="170" pos="840" key="43" pan="0" len="72"/>
          <note vol="170" pos="912" key="55" pan="0" len="72"/>
          <note vol="170" pos="912" key="47" pan="0" len="72"/>
          <note vol="170" pos="984" key="59" pan="0" len="72"/>
          <note vol="170" pos="984" key="50" pan="0" len="72"/>
          <note vol="163" pos="1056" key="64" pan="0" len="48"/>
          <note vol="163" pos="1056" key="55" pan="0" len="48"/>
          <note vol="163" pos="1104" key="66" pan="0" len="48"/>
          <note vol="163" pos="1104" key="57" pan="0" len="48"/>
          <note vol="170" pos="1152" key="67" pan="0" len="72"/>
          <note vol="170" pos="1152" key="59" pan="0" len="72"/>
          <note vol="197" pos="1152" key="52" pan="0" len="144"/>
          <note vol="197" pos="1152" key="48" pan="0" len="144"/>
          <note vol="170" pos="1224" key="71" pan="0" len="72"/>
          <note vol="170" pos="1224" key="62" pan="0" len="72"/>
          <note vol="170" pos="1296" key="69" pan="0" len="72"/>
          <note vol="170" pos="1296" key="60" pan="0" len="72"/>
          <note vol="197" pos="1296" key="54" pan="0" len="240"/>
          <note vol="197" pos="1296" key="50" pan="0" len="240"/>
          <note vol="170" pos="1368" key="67" pan="0" len="72"/>
          <note vol="170" pos="1368" key="59" pan="0" len="72"/>
          <note vol="170" pos="1440" key="66" pan="0" len="48"/>
          <note vol="170" pos="1440" key="57" pan="0" len="48"/>
          <note vol="163" pos="1488" key="67" pan="0" len="48"/>
          <note vol="163" pos="1488" key="59" pan="0" len="48"/>
        </pattern>
        <pattern pos="28416" name="" muted="0" type="1" steps="16">
          <note vol="170" pos="0" key="64" pan="0" len="72"/>
          <note vol="170" pos="0" key="55" pan="0" len="72"/>
          <note vol="197" pos="0" key="52" pan="0" len="384"/>
          <note vol="197" pos="0" key="47" pan="0" len="384"/>
          <note vol="170" pos="72" key="52" pan="0" len="72"/>
          <note vol="170" pos="72" key="43" pan="0" len="72"/>
          <note vol="170" pos="144" key="55" pan="0" len="72"/>
          <note vol="170" pos="144" key="47" pan="0" len="72"/>
          <note vol="170" pos="216" key="59" pan="0" len="72"/>
          <note vol="170" pos="216" key="50" pan="0" len="72"/>
          <note vol="163" pos="288" key="64" pan="0" len="48"/>
          <note vol="163" pos="288" key="55" pan="0" len="48"/>
          <note vol="163" pos="336" key="66" pan="0" len="48"/>
          <note vol="163" pos="336" key="57" pan="0" len="48"/>
          <note vol="170" pos="384" key="67" pan="0" len="72"/>
          <note vol="170" pos="384" key="59" pan="0" len="72"/>
          <note vol="197" pos="384" key="52" pan="0" len="144"/>
          <note vol="197" pos="384" key="48" pan="0" len="144"/>
          <note vol="170" pos="456" key="66" pan="0" len="72"/>
          <note vol="170" pos="456" key="57" pan="0" len="72"/>
          <note vol="170" pos="528" key="62" pan="0" len="72"/>
          <note vol="170" pos="528" key="54" pan="0" len="72"/>
          <note vol="197" pos="528" key="54" pan="0" len="240"/>
          <note vol="197" pos="528" key="50" pan="0" len="240"/>
          <note vol="170" pos="600" key="57" pan="0" len="72"/>
          <note vol="170" pos="600" key="48" pan="0" len="72"/>
          <note vol="163" pos="672" key="55" pan="0" len="48"/>
          <note vol="163" pos="672" key="47" pan="0" len="48"/>
          <note vol="163" pos="720" key="57" pan="0" len="48"/>
          <note vol="163" pos="720" key="48" pan="0" len="48"/>
          <note vol="170" pos="768" key="59" pan="0" len="72"/>
          <note vol="197" pos="768" key="52" pan="0" len="384"/>
          <note vol="170" pos="768" key="50" pan="0" len="72"/>
          <note vol="197" pos="768" key="47" pan="0" len="384"/>
          <note vol="170" pos="840" key="52" pan="0" len="72"/>
          <note vol="170" pos="840" key="43" pan="0" len="72"/>
          <note vol="170" pos="912" key="55" pan="0" len="72"/>
          <note vol="170" pos="912" key="47" pan="0" len="72"/>
          <note vol="170" pos="984" key="59" pan="0" len="72"/>
          <note vol="170" pos="984" key="50" pan="0" len="72"/>
          <note vol="163" pos="1056" key="64" pan="0" len="48"/>
          <note vol="163" pos="1056" key="55" pan="0" len="48"/>
          <note vol="163" pos="1104" key="66" pan="0" len="48"/>
          <note vol="163" pos="1104" key="57" pan="0" len="48"/>
          <note vol="170" pos="1152" key="67" pan="0" len="72"/>
          <note vol="170" pos="1152" key="59" pan="0" len="72"/>
          <note vol="197" pos="1152" key="52" pan="0" len="144"/>
          <note vol="197" pos="1152" key="48" pan="0" len="144"/>
          <note vol="170" pos="1224" key="71" pan="0" len="72"/>
          <note vol="170" pos="1224" key="62" pan="0" len="72"/>
          <note vol="170" pos="1296" key="69" pan="0" len="72"/>
          <note vol="170" pos="1296" key="60" pan="0" len="72"/>
          <note vol="197" pos="1296" key="54" pan="0" len="240"/>
          <note vol="197" pos="1296" key="50" pan="0" len="240"/>
          <note vol="170" pos="1368" key="67" pan="0" len="72"/>
          <note vol="170" pos="1368" key="59" pan="0" len="72"/>
          <note vol="170" pos="1440" key="66" pan="0" len="48"/>
          <note vol="170" pos="1440" key="57" pan="0" len="48"/>
          <note vol="163" pos="1488" key="67" pan="0" len="48"/>
          <note vol="163" pos="1488" key="59" pan="0" len="48"/>
        </pattern>
      </track>
      <track solo="0" name="RaveBass" muted="0" type="0">
        <instrumenttrack vol="10.7" pitchrange="1" fxch="0" pitch="0" pan="0" usemasterpitch="1" basenote="69">
          <instrument name="tripleoscillator">
            <tripleoscillator pan0="9" vol1="100" wavetype0="2" coarse0="-12" modalgo2="2" modalgo3="0" vol2="100" stphdetun1="95" wavetype1="2" pan1="-20" phoffset2="82" userwavefile1="samples/empty.wav" finer0="0" phoffset1="280" finel2="-2" finer2="-3" finel1="10" stphdetun2="109" userwavefile2="samples/empty.wav" pan2="10" coarse2="12" coarse1="0" phoffset0="74" vol0="100" modalgo1="2" finel0="0" stphdetun0="232" wavetype2="2" userwavefile0="samples/empty.wav" finer1="16"/>
          </instrument>
          <eldata fcut="11111" ftype="0" fres="0.27" fwet="1">
            <elvol lpdel="0" dec="0.999" lamt="0.06" rel="0.089" userwavefile="" lspd="0.2607" x100="0" latt="0" hold="0" lshp="0" sustain="1" lspd_numerator="1" att="0.048" lspd_syncmode="0" amt="1" ctlenvamt="0" lspd_denominator="1" pdel="0"/>
            <elcut lpdel="0" dec="0.5" lamt="0" rel="0.1" userwavefile="" lspd="0.6094" x100="0" latt="0" hold="0.5" lshp="1" sustain="0.5" lspd_numerator="1" att="0.5" lspd_syncmode="0" amt="0" ctlenvamt="0" lspd_denominator="1" pdel="0"/>
            <elres lpdel="0" dec="0.5" lamt="0" rel="0" userwavefile="" lspd="0.1" x100="0" latt="0" hold="0.5" lshp="0" sustain="0.5" lspd_numerator="1" att="0.5" lspd_syncmode="0" amt="0" ctlenvamt="0" lspd_denominator="1" pdel="0"/>
          </eldata>
          <chordcreator chordrange="1" chord-enabled="1" chord="0"/>
          <arpeggiator arp-enabled="0" arptime_denominator="1" arpgate="76" arpskip="0" arptime="100" arpmode="0" arpmiss="0" arptime_numerator="1" arptime_syncmode="0" arprange="2" arp="12" arpdir="0" arpcycle="0"/>
          <midiport outputcontroller="0" readable="0" basevelocity="63" writable="0" outputprogram="1" fixedoutputvelocity="-1" fixedoutputnote="-1" outputchannel="1" inputchannel="0" inputcontroller="0" fixedinputvelocity="-1"/>
          <fxchain numofeffects="0" enabled="0"/>
        </instrumenttrack>
        <pattern pos="2304" name="RaveBass" muted="0" type="1" steps="16">
          <note vol="157" pos="0" key="67" pan="0" len="12"/>
          <note vol="132" pos="12" key="55" pan="0" len="12"/>
          <note vol="138" pos="24" key="60" pan="0" len="12"/>
          <note vol="157" pos="36" key="63" pan="0" len="12"/>
          <note vol="138" pos="48" key="55" pan="0" len="12"/>
          <note vol="138" pos="60" key="60" pan="0" len="12"/>
          <note vol="157" pos="72" key="65" pan="0" len="12"/>
          <note vol="138" pos="84" key="55" pan="0" len="12"/>
          <note vol="138" pos="96" key="60" pan="0" len="12"/>
          <note vol="157" pos="108" key="62" pan="0" len="12"/>
          <note vol="138" pos="120" key="55" pan="0" len="12"/>
          <note vol="138" pos="132" key="60" pan="0" len="12"/>
          <note vol="157" pos="144" key="63" pan="0" len="12"/>
          <note vol="157" pos="156" key="62" pan="0" len="12"/>
          <note vol="157" pos="168" key="60" pan="0" len="12"/>
          <note vol="157" pos="180" key="55" pan="0" len="12"/>
          <note vol="157" pos="192" key="67" pan="0" len="12"/>
          <note vol="132" pos="204" key="55" pan="0" len="12"/>
          <note vol="138" pos="216" key="60" pan="0" len="12"/>
          <note vol="157" pos="228" key="63" pan="0" len="12"/>
          <note vol="138" pos="240" key="55" pan="0" len="12"/>
          <note vol="138" pos="252" key="60" pan="0" len="12"/>
          <note vol="157" pos="264" key="65" pan="0" len="12"/>
          <note vol="138" pos="276" key="55" pan="0" len="12"/>
          <note vol="138" pos="288" key="60" pan="0" len="12"/>
          <note vol="157" pos="300" key="62" pan="0" len="12"/>
          <note vol="138" pos="312" key="55" pan="0" len="12"/>
          <note vol="138" pos="324" key="60" pan="0" len="12"/>
          <note vol="157" pos="336" key="63" pan="0" len="12"/>
          <note vol="157" pos="348" key="62" pan="0" len="12"/>
          <note vol="157" pos="360" key="63" pan="0" len="12"/>
          <note vol="157" pos="372" key="65" pan="0" len="12"/>
        </pattern>
        <pattern pos="3072" name="RaveBass" muted="0" type="1" steps="16">
          <note vol="170" pos="0" key="72" pan="0" len="12"/>
          <note vol="151" pos="12" key="60" pan="0" len="12"/>
          <note vol="151" pos="24" key="67" pan="0" len="12"/>
          <note vol="170" pos="36" key="74" pan="0" len="12"/>
          <note vol="151" pos="48" key="60" pan="0" len="12"/>
          <note vol="151" pos="60" key="67" pan="0" len="12"/>
          <note vol="170" pos="72" key="72" pan="0" len="12"/>
          <note vol="151" pos="84" key="60" pan="0" len="12"/>
          <note vol="151" pos="96" key="67" pan="0" len="12"/>
          <note vol="170" pos="108" key="75" pan="0" len="12"/>
          <note vol="151" pos="120" key="60" pan="0" len="12"/>
          <note vol="151" pos="132" key="67" pan="0" len="12"/>
          <note vol="170" pos="144" key="74" pan="0" len="12"/>
          <note vol="170" pos="156" key="75" pan="0" len="12"/>
          <note vol="170" pos="168" key="74" pan="0" len="12"/>
          <note vol="170" pos="180" key="70" pan="0" len="12"/>
          <note vol="170" pos="192" key="72" pan="0" len="12"/>
          <note vol="151" pos="204" key="60" pan="0" len="12"/>
          <note vol="151" pos="216" key="67" pan="0" len="12"/>
          <note vol="170" pos="228" key="70" pan="0" len="12"/>
          <note vol="151" pos="240" key="60" pan="0" len="12"/>
          <note vol="151" pos="252" key="65" pan="0" len="12"/>
          <note vol="170" pos="264" key="67" pan="0" len="12"/>
          <note vol="151" pos="276" key="63" pan="0" len="12"/>
          <note vol="157" pos="288" key="65" pan="0" len="12"/>
          <note vol="157" pos="300" key="63" pan="0" len="12"/>
          <note vol="163" pos="312" key="65" pan="0" len="12"/>
          <note vol="163" pos="324" key="67" pan="0" len="12"/>
          <note vol="163" pos="336" key="68" pan="0" len="12"/>
          <note vol="163" pos="348" key="67" pan="0" len="12"/>
          <note vol="170" pos="360" key="68" pan="0" len="12"/>
          <note vol="170" pos="372" key="70" pan="0" len="12"/>
        </pattern>
        <pattern pos="3840" name="RaveBass" muted="0" type="1" steps="16">
          <note vol="170" pos="0" key="67" pan="0" len="12"/>
          <note vol="144" pos="12" key="55" pan="0" len="12"/>
          <note vol="151" pos="24" key="60" pan="0" len="12"/>
          <note vol="170" pos="36" key="63" pan="0" len="12"/>
          <note vol="151" pos="48" key="55" pan="0" len="12"/>
          <note vol="151" pos="60" key="60" pan="0" len="12"/>
          <note vol="170" pos="72" key="65" pan="0" len="12"/>
          <note vol="151" pos="84" key="55" pan="0" len="12"/>
          <note vol="151" pos="96" key="60" pan="0" len="12"/>
          <note vol="170" pos="108" key="62" pan="0" len="12"/>
          <note vol="151" pos="120" key="55" pan="0" len="12"/>
          <note vol="157" pos="132" key="60" pan="0" len="12"/>
          <note vol="170" pos="144" key="63" pan="0" len="12"/>
          <note vol="170" pos="156" key="65" pan="0" len="12"/>
          <note vol="170" pos="168" key="67" pan="0" len="12"/>
          <note vol="170" pos="180" key="68" pan="0" len="12"/>
          <note vol="170" pos="192" key="70" pan="0" len="12"/>
          <note vol="144" pos="204" key="55" pan="0" len="12"/>
          <note vol="151" pos="216" key="60" pan="0" len="12"/>
          <note vol="170" pos="228" key="67" pan="0" len="12"/>
          <note vol="151" pos="240" key="55" pan="0" len="12"/>
          <note vol="151" pos="252" key="60" pan="0" len="12"/>
          <note vol="170" pos="264" key="68" pan="0" len="12"/>
          <note vol="151" pos="276" key="55" pan="0" len="12"/>
          <note vol="151" pos="288" key="60" pan="0" len="12"/>
          <note vol="170" pos="300" key="65" pan="0" len="12"/>
          <note vol="151" pos="312" key="55" pan="0" len="12"/>
          <note vol="151" pos="324" key="60" pan="0" len="12"/>
          <note vol="170" pos="336" key="67" pan="0" len="12"/>
          <note vol="170" pos="348" key="65" pan="0" len="12"/>
          <note vol="170" pos="360" key="63" pan="0" len="12"/>
          <note vol="170" pos="372" key="60" pan="0" len="12"/>
        </pattern>
        <pattern pos="10752" name="RaveBass" muted="0" type="0" steps="16"/>
        <pattern pos="21120" name="RaveBass" muted="0" type="1" steps="16">
          <note vol="157" pos="0" key="67" pan="0" len="12"/>
          <note vol="132" pos="12" key="55" pan="0" len="12"/>
          <note vol="138" pos="24" key="60" pan="0" len="12"/>
          <note vol="157" pos="36" key="63" pan="0" len="12"/>
          <note vol="138" pos="48" key="55" pan="0" len="12"/>
          <note vol="138" pos="60" key="60" pan="0" len="12"/>
          <note vol="157" pos="72" key="65" pan="0" len="12"/>
          <note vol="138" pos="84" key="55" pan="0" len="12"/>
          <note vol="138" pos="96" key="60" pan="0" len="12"/>
          <note vol="157" pos="108" key="62" pan="0" len="12"/>
          <note vol="138" pos="120" key="55" pan="0" len="12"/>
          <note vol="138" pos="132" key="60" pan="0" len="12"/>
          <note vol="157" pos="144" key="63" pan="0" len="12"/>
          <note vol="157" pos="156" key="62" pan="0" len="12"/>
          <note vol="157" pos="168" key="60" pan="0" len="12"/>
          <note vol="157" pos="180" key="55" pan="0" len="12"/>
          <note vol="157" pos="192" key="67" pan="0" len="12"/>
          <note vol="132" pos="204" key="55" pan="0" len="12"/>
          <note vol="138" pos="216" key="60" pan="0" len="12"/>
          <note vol="157" pos="228" key="63" pan="0" len="12"/>
          <note vol="138" pos="240" key="55" pan="0" len="12"/>
          <note vol="138" pos="252" key="60" pan="0" len="12"/>
          <note vol="157" pos="264" key="65" pan="0" len="12"/>
          <note vol="138" pos="276" key="55" pan="0" len="12"/>
          <note vol="138" pos="288" key="60" pan="0" len="12"/>
          <note vol="157" pos="300" key="62" pan="0" len="12"/>
          <note vol="138" pos="312" key="55" pan="0" len="12"/>
          <note vol="138" pos="324" key="60" pan="0" len="12"/>
          <note vol="157" pos="336" key="63" pan="0" len="12"/>
          <note vol="157" pos="348" key="62" pan="0" len="12"/>
          <note vol="157" pos="360" key="63" pan="0" len="12"/>
          <note vol="157" pos="372" key="65" pan="0" len="12"/>
        </pattern>
        <pattern pos="21888" name="RaveBass" muted="0" type="1" steps="16">
          <note vol="170" pos="0" key="72" pan="0" len="12"/>
          <note vol="151" pos="12" key="60" pan="0" len="12"/>
          <note vol="151" pos="24" key="67" pan="0" len="12"/>
          <note vol="170" pos="36" key="74" pan="0" len="12"/>
          <note vol="151" pos="48" key="60" pan="0" len="12"/>
          <note vol="151" pos="60" key="67" pan="0" len="12"/>
          <note vol="170" pos="72" key="72" pan="0" len="12"/>
          <note vol="151" pos="84" key="60" pan="0" len="12"/>
          <note vol="151" pos="96" key="67" pan="0" len="12"/>
          <note vol="170" pos="108" key="75" pan="0" len="12"/>
          <note vol="151" pos="120" key="60" pan="0" len="12"/>
          <note vol="151" pos="132" key="67" pan="0" len="12"/>
          <note vol="170" pos="144" key="74" pan="0" len="12"/>
          <note vol="170" pos="156" key="75" pan="0" len="12"/>
          <note vol="170" pos="168" key="74" pan="0" len="12"/>
          <note vol="170" pos="180" key="70" pan="0" len="12"/>
          <note vol="170" pos="192" key="72" pan="0" len="12"/>
          <note vol="151" pos="204" key="60" pan="0" len="12"/>
          <note vol="151" pos="216" key="67" pan="0" len="12"/>
          <note vol="170" pos="228" key="70" pan="0" len="12"/>
          <note vol="151" pos="240" key="60" pan="0" len="12"/>
          <note vol="151" pos="252" key="65" pan="0" len="12"/>
          <note vol="170" pos="264" key="67" pan="0" len="12"/>
          <note vol="151" pos="276" key="63" pan="0" len="12"/>
          <note vol="157" pos="288" key="65" pan="0" len="12"/>
          <note vol="157" pos="300" key="63" pan="0" len="12"/>
          <note vol="163" pos="312" key="65" pan="0" len="12"/>
          <note vol="163" pos="324" key="67" pan="0" len="12"/>
          <note vol="163" pos="336" key="68" pan="0" len="12"/>
          <note vol="163" pos="348" key="67" pan="0" len="12"/>
          <note vol="170" pos="360" key="68" pan="0" len="12"/>
          <note vol="170" pos="372" key="70" pan="0" len="12"/>
        </pattern>
        <pattern pos="22656" name="RaveBass" muted="0" type="1" steps="16">
          <note vol="170" pos="0" key="67" pan="0" len="12"/>
          <note vol="144" pos="12" key="55" pan="0" len="12"/>
          <note vol="151" pos="24" key="60" pan="0" len="12"/>
          <note vol="170" pos="36" key="63" pan="0" len="12"/>
          <note vol="151" pos="48" key="55" pan="0" len="12"/>
          <note vol="151" pos="60" key="60" pan="0" len="12"/>
          <note vol="170" pos="72" key="65" pan="0" len="12"/>
          <note vol="151" pos="84" key="55" pan="0" len="12"/>
          <note vol="151" pos="96" key="60" pan="0" len="12"/>
          <note vol="170" pos="108" key="62" pan="0" len="12"/>
          <note vol="151" pos="120" key="55" pan="0" len="12"/>
          <note vol="157" pos="132" key="60" pan="0" len="12"/>
          <note vol="170" pos="144" key="63" pan="0" len="12"/>
          <note vol="170" pos="156" key="65" pan="0" len="12"/>
          <note vol="170" pos="168" key="67" pan="0" len="12"/>
          <note vol="170" pos="180" key="68" pan="0" len="12"/>
          <note vol="170" pos="192" key="70" pan="0" len="12"/>
          <note vol="144" pos="204" key="55" pan="0" len="12"/>
          <note vol="151" pos="216" key="60" pan="0" len="12"/>
          <note vol="170" pos="228" key="67" pan="0" len="12"/>
          <note vol="151" pos="240" key="55" pan="0" len="12"/>
          <note vol="151" pos="252" key="60" pan="0" len="12"/>
          <note vol="170" pos="264" key="68" pan="0" len="12"/>
          <note vol="151" pos="276" key="55" pan="0" len="12"/>
          <note vol="151" pos="288" key="60" pan="0" len="12"/>
          <note vol="170" pos="300" key="65" pan="0" len="12"/>
          <note vol="151" pos="312" key="55" pan="0" len="12"/>
          <note vol="151" pos="324" key="60" pan="0" len="12"/>
          <note vol="170" pos="336" key="67" pan="0" len="12"/>
          <note vol="170" pos="348" key="65" pan="0" len="12"/>
          <note vol="170" pos="360" key="63" pan="0" len="12"/>
          <note vol="170" pos="372" key="60" pan="0" len="12"/>
        </pattern>
      </track>
      <track solo="0" name="bass fender jazz (1,379kb)" muted="0" type="0">
        <instrumenttrack vol="60" pitchrange="1" fxch="14" pitch="0" pan="0" usemasterpitch="1" basenote="81">
          <instrument name="sf2player">
            <sf2player chorusLevel="2" src="/home/pass/samples/soundfonts/bass fender jazz (1,379kb).sf2" reverbWidth="0.5" chorusOn="0" chorusNum="0.9" reverbDamping="0.2" chorusSpeed="0.3" chorusDepth="8" reverbOn="0" patch="0" gain="1" reverbRoomSize="0.2" bank="0" reverbLevel="0.9"/>
          </instrument>
          <eldata fcut="14000" ftype="0" fres="0.5" fwet="0">
            <elvol lpdel="0" dec="0.5" lamt="0" rel="0.1" userwavefile="" lspd="0.1" x100="0" latt="0" hold="0.5" lshp="0" sustain="0.5" lspd_numerator="4" att="0" lspd_syncmode="0" amt="0" ctlenvamt="0" lspd_denominator="4" pdel="0"/>
            <elcut lpdel="0" dec="0.5" lamt="0" rel="0.1" userwavefile="" lspd="0.1" x100="0" latt="0" hold="0.5" lshp="0" sustain="0.5" lspd_numerator="4" att="0" lspd_syncmode="0" amt="0" ctlenvamt="0" lspd_denominator="4" pdel="0"/>
            <elres lpdel="0" dec="0.5" lamt="0" rel="0.1" userwavefile="" lspd="0.1" x100="0" latt="0" hold="0.5" lshp="0" sustain="0.5" lspd_numerator="4" att="0" lspd_syncmode="0" amt="0" ctlenvamt="0" lspd_denominator="4" pdel="0"/>
          </eldata>
          <chordcreator chordrange="1" chord-enabled="0" chord="0"/>
          <arpeggiator arp-enabled="0" arptime_denominator="4" arpgate="100" arpskip="0" arptime="200" arpmode="0" arpmiss="0" arptime_numerator="4" arptime_syncmode="0" arprange="1" arp="0" arpdir="0" arpcycle="0"/>
          <midiport outputcontroller="0" readable="0" basevelocity="63" writable="0" outputprogram="1" fixedoutputvelocity="-1" fixedoutputnote="-1" outputchannel="1" inputchannel="0" inputcontroller="0" fixedinputvelocity="-1"/>
          <fxchain numofeffects="1" enabled="1">
            <effect on="1" gate="0" wet="1" autoquit_denominator="4" name="eq" autoquit_numerator="4" autoquit="1" autoquit_syncmode="0">
              <Eq HPres="0.707" HP48="0" Peak2active="1" Peak3active="0" Peak3gain="18" LowShelfres="1.4" Peak4active="0" Outputgain="0" Lowshelfgain="0" Peak4bw="0.3" HighShelfres="1.4" Peak2gain="18" AnalyseIn="1" Highshelfactive="0" LPactive="0" Lowshelfactive="0" Peak4gain="0" HighShelfgain="0" LPres="0.707" HP12="1" LP24="0" HP24="0" Peak1active="1" Peak3bw="1.697" LP="0" LP12="1" HPactive="0" HP="0" LP48="0" Peak2bw="2.228" Peak1bw="1.911" AnalyseOut="1">
                <Inputgain scale_type="log" value="0" id="109445"/>
                <Peak1gain scale_type="log" value="11.52" id="6094121"/>
                <HPfreq scale_type="log" value="31" id="6248005"/>
                <LowShelffreq scale_type="log" value="80" id="1156093"/>
                <Peak1freq scale_type="log" value="168.208" id="6631620"/>
                <Peak2freq scale_type="log" value="4763.65" id="28320"/>
                <Peak3freq scale_type="log" value="4075.04" id="7751936"/>
                <Peak4freq scale_type="log" value="4000" id="2323413"/>
                <Highshelffreq scale_type="log" value="12000" id="3179323"/>
                <LPfreq scale_type="log" value="18000" id="8270628"/>
              </Eq>
              <key/>
            </effect>
          </fxchain>
        </instrumenttrack>
        <pattern pos="0" name="bass fender jazz (1,379kb)" muted="0" type="1" steps="16">
          <note vol="197" pos="0" key="36" pan="0" len="192"/>
          <note vol="197" pos="192" key="41" pan="0" len="192"/>
          <note vol="197" pos="384" key="45" pan="0" len="192"/>
          <note vol="197" pos="576" key="41" pan="0" len="192"/>
          <note vol="197" pos="768" key="36" pan="0" len="24"/>
          <note vol="197" pos="792" key="36" pan="0" len="12"/>
          <note vol="197" pos="804" key="36" pan="0" len="12"/>
          <note vol="197" pos="816" key="36" pan="0" len="12"/>
          <note vol="197" pos="828" key="36" pan="0" len="12"/>
          <note vol="197" pos="840" key="36" pan="0" len="12"/>
          <note vol="197" pos="852" key="36" pan="0" len="12"/>
          <note vol="197" pos="864" key="36" pan="0" len="12"/>
          <note vol="197" pos="876" key="36" pan="0" len="12"/>
          <note vol="197" pos="888" key="36" pan="0" len="12"/>
          <note vol="197" pos="900" key="36" pan="0" len="12"/>
          <note vol="197" pos="912" key="36" pan="0" len="12"/>
          <note vol="197" pos="924" key="36" pan="0" len="12"/>
          <note vol="197" pos="936" key="36" pan="0" len="12"/>
          <note vol="197" pos="948" key="36" pan="0" len="12"/>
          <note vol="197" pos="960" key="41" pan="0" len="24"/>
          <note vol="197" pos="984" key="41" pan="0" len="12"/>
          <note vol="197" pos="996" key="41" pan="0" len="12"/>
          <note vol="197" pos="1008" key="41" pan="0" len="12"/>
          <note vol="197" pos="1020" key="41" pan="0" len="12"/>
          <note vol="197" pos="1032" key="41" pan="0" len="12"/>
          <note vol="197" pos="1044" key="41" pan="0" len="12"/>
          <note vol="197" pos="1056" key="41" pan="0" len="12"/>
          <note vol="197" pos="1068" key="41" pan="0" len="12"/>
          <note vol="197" pos="1080" key="41" pan="0" len="12"/>
          <note vol="197" pos="1092" key="41" pan="0" len="12"/>
          <note vol="197" pos="1104" key="41" pan="0" len="12"/>
          <note vol="197" pos="1116" key="41" pan="0" len="12"/>
          <note vol="197" pos="1128" key="41" pan="0" len="12"/>
          <note vol="197" pos="1140" key="41" pan="0" len="12"/>
          <note vol="197" pos="1152" key="45" pan="0" len="24"/>
          <note vol="197" pos="1176" key="45" pan="0" len="12"/>
          <note vol="197" pos="1188" key="45" pan="0" len="12"/>
          <note vol="197" pos="1200" key="45" pan="0" len="12"/>
          <note vol="197" pos="1212" key="45" pan="0" len="12"/>
          <note vol="197" pos="1224" key="45" pan="0" len="12"/>
          <note vol="197" pos="1236" key="45" pan="0" len="12"/>
          <note vol="197" pos="1248" key="45" pan="0" len="12"/>
          <note vol="197" pos="1260" key="45" pan="0" len="12"/>
          <note vol="197" pos="1272" key="45" pan="0" len="12"/>
          <note vol="197" pos="1284" key="45" pan="0" len="12"/>
          <note vol="197" pos="1296" key="45" pan="0" len="12"/>
          <note vol="197" pos="1308" key="45" pan="0" len="12"/>
          <note vol="197" pos="1320" key="45" pan="0" len="12"/>
          <note vol="197" pos="1332" key="45" pan="0" len="12"/>
          <note vol="197" pos="1344" key="41" pan="0" len="24"/>
          <note vol="197" pos="1368" key="41" pan="0" len="12"/>
          <note vol="197" pos="1380" key="41" pan="0" len="12"/>
          <note vol="197" pos="1392" key="41" pan="0" len="12"/>
          <note vol="197" pos="1404" key="41" pan="0" len="12"/>
          <note vol="197" pos="1416" key="41" pan="0" len="12"/>
          <note vol="197" pos="1428" key="41" pan="0" len="12"/>
          <note vol="197" pos="1440" key="41" pan="0" len="12"/>
          <note vol="197" pos="1452" key="41" pan="0" len="12"/>
          <note vol="197" pos="1464" key="41" pan="0" len="12"/>
          <note vol="197" pos="1476" key="41" pan="0" len="12"/>
          <note vol="197" pos="1488" key="41" pan="0" len="12"/>
          <note vol="197" pos="1500" key="41" pan="0" len="12"/>
          <note vol="197" pos="1512" key="41" pan="0" len="12"/>
          <note vol="197" pos="1524" key="41" pan="0" len="12"/>
        </pattern>
        <pattern pos="11136" name="bass fender jazz (1,379kb)" muted="0" type="1" steps="16">
          <note vol="197" pos="0" key="39" pan="0" len="12"/>
          <note vol="197" pos="12" key="41" pan="0" len="12"/>
          <note vol="197" pos="24" key="41" pan="0" len="12"/>
          <note vol="197" pos="36" key="41" pan="0" len="12"/>
          <note vol="197" pos="48" key="41" pan="0" len="12"/>
          <note vol="197" pos="60" key="41" pan="0" len="12"/>
          <note vol="197" pos="72" key="41" pan="0" len="12"/>
          <note vol="197" pos="84" key="41" pan="0" len="12"/>
          <note vol="197" pos="96" key="39" pan="0" len="12"/>
          <note vol="197" pos="108" key="41" pan="0" len="12"/>
          <note vol="197" pos="120" key="41" pan="0" len="12"/>
          <note vol="197" pos="132" key="41" pan="0" len="12"/>
          <note vol="197" pos="144" key="44" pan="0" len="12"/>
          <note vol="197" pos="156" key="41" pan="0" len="12"/>
          <note vol="197" pos="168" key="41" pan="0" len="12"/>
          <note vol="197" pos="180" key="41" pan="0" len="12"/>
          <note vol="197" pos="192" key="39" pan="0" len="12"/>
          <note vol="197" pos="204" key="41" pan="0" len="12"/>
          <note vol="197" pos="216" key="41" pan="0" len="12"/>
          <note vol="197" pos="228" key="41" pan="0" len="12"/>
          <note vol="197" pos="240" key="41" pan="0" len="12"/>
          <note vol="197" pos="252" key="41" pan="0" len="12"/>
          <note vol="197" pos="264" key="41" pan="0" len="12"/>
          <note vol="197" pos="276" key="41" pan="0" len="12"/>
          <note vol="197" pos="288" key="39" pan="0" len="12"/>
          <note vol="197" pos="300" key="41" pan="0" len="12"/>
          <note vol="197" pos="312" key="41" pan="0" len="12"/>
          <note vol="197" pos="324" key="41" pan="0" len="12"/>
          <note vol="197" pos="336" key="44" pan="0" len="12"/>
          <note vol="197" pos="348" key="41" pan="0" len="12"/>
          <note vol="197" pos="360" key="41" pan="0" len="12"/>
          <note vol="197" pos="372" key="41" pan="0" len="12"/>
          <note vol="197" pos="384" key="36" pan="0" len="12"/>
          <note vol="197" pos="396" key="37" pan="0" len="12"/>
          <note vol="197" pos="408" key="37" pan="0" len="12"/>
          <note vol="197" pos="420" key="37" pan="0" len="12"/>
          <note vol="197" pos="432" key="37" pan="0" len="12"/>
          <note vol="197" pos="444" key="37" pan="0" len="12"/>
          <note vol="197" pos="456" key="37" pan="0" len="12"/>
          <note vol="197" pos="468" key="37" pan="0" len="12"/>
          <note vol="197" pos="480" key="36" pan="0" len="12"/>
          <note vol="197" pos="492" key="37" pan="0" len="12"/>
          <note vol="197" pos="504" key="37" pan="0" len="12"/>
          <note vol="197" pos="516" key="37" pan="0" len="12"/>
          <note vol="197" pos="528" key="39" pan="0" len="12"/>
          <note vol="197" pos="540" key="37" pan="0" len="12"/>
          <note vol="197" pos="552" key="37" pan="0" len="12"/>
          <note vol="197" pos="564" key="37" pan="0" len="12"/>
          <note vol="197" pos="576" key="36" pan="0" len="12"/>
          <note vol="197" pos="588" key="37" pan="0" len="12"/>
          <note vol="197" pos="600" key="37" pan="0" len="12"/>
          <note vol="197" pos="612" key="37" pan="0" len="12"/>
          <note vol="197" pos="624" key="37" pan="0" len="12"/>
          <note vol="197" pos="636" key="37" pan="0" len="12"/>
          <note vol="197" pos="648" key="37" pan="0" len="12"/>
          <note vol="197" pos="660" key="37" pan="0" len="12"/>
          <note vol="197" pos="672" key="36" pan="0" len="12"/>
          <note vol="197" pos="684" key="37" pan="0" len="12"/>
          <note vol="197" pos="696" key="37" pan="0" len="12"/>
          <note vol="197" pos="708" key="37" pan="0" len="12"/>
          <note vol="197" pos="720" key="39" pan="0" len="12"/>
          <note vol="197" pos="732" key="37" pan="0" len="12"/>
          <note vol="197" pos="744" key="37" pan="0" len="12"/>
          <note vol="197" pos="756" key="37" pan="0" len="12"/>
        </pattern>
        <pattern pos="11904" name="bass fender jazz (1,379kb)" muted="0" type="1" steps="16">
          <note vol="197" pos="0" key="39" pan="0" len="12"/>
          <note vol="197" pos="12" key="41" pan="0" len="12"/>
          <note vol="197" pos="24" key="41" pan="0" len="12"/>
          <note vol="197" pos="36" key="41" pan="0" len="12"/>
          <note vol="197" pos="48" key="41" pan="0" len="12"/>
          <note vol="197" pos="60" key="41" pan="0" len="12"/>
          <note vol="197" pos="72" key="41" pan="0" len="12"/>
          <note vol="197" pos="84" key="41" pan="0" len="12"/>
          <note vol="197" pos="96" key="39" pan="0" len="12"/>
          <note vol="197" pos="108" key="41" pan="0" len="12"/>
          <note vol="197" pos="120" key="41" pan="0" len="12"/>
          <note vol="197" pos="132" key="41" pan="0" len="12"/>
          <note vol="197" pos="144" key="44" pan="0" len="12"/>
          <note vol="197" pos="156" key="41" pan="0" len="12"/>
          <note vol="197" pos="168" key="41" pan="0" len="12"/>
          <note vol="197" pos="180" key="41" pan="0" len="12"/>
          <note vol="197" pos="192" key="39" pan="0" len="12"/>
          <note vol="197" pos="204" key="41" pan="0" len="12"/>
          <note vol="197" pos="216" key="41" pan="0" len="12"/>
          <note vol="197" pos="228" key="41" pan="0" len="12"/>
          <note vol="197" pos="240" key="41" pan="0" len="12"/>
          <note vol="197" pos="252" key="41" pan="0" len="12"/>
          <note vol="197" pos="264" key="41" pan="0" len="12"/>
          <note vol="197" pos="276" key="41" pan="0" len="12"/>
          <note vol="197" pos="288" key="39" pan="0" len="12"/>
          <note vol="197" pos="300" key="41" pan="0" len="12"/>
          <note vol="197" pos="312" key="41" pan="0" len="12"/>
          <note vol="197" pos="324" key="41" pan="0" len="12"/>
          <note vol="197" pos="336" key="44" pan="0" len="12"/>
          <note vol="197" pos="348" key="41" pan="0" len="12"/>
          <note vol="197" pos="360" key="41" pan="0" len="12"/>
          <note vol="197" pos="372" key="41" pan="0" len="12"/>
          <note vol="197" pos="384" key="36" pan="0" len="12"/>
          <note vol="197" pos="396" key="37" pan="0" len="12"/>
          <note vol="197" pos="408" key="37" pan="0" len="12"/>
          <note vol="197" pos="420" key="37" pan="0" len="12"/>
          <note vol="197" pos="432" key="37" pan="0" len="12"/>
          <note vol="197" pos="444" key="37" pan="0" len="12"/>
          <note vol="197" pos="456" key="37" pan="0" len="12"/>
          <note vol="197" pos="468" key="37" pan="0" len="12"/>
          <note vol="197" pos="480" key="36" pan="0" len="12"/>
          <note vol="197" pos="492" key="37" pan="0" len="12"/>
          <note vol="197" pos="504" key="37" pan="0" len="12"/>
          <note vol="197" pos="516" key="37" pan="0" len="12"/>
          <note vol="197" pos="528" key="39" pan="0" len="12"/>
          <note vol="197" pos="540" key="37" pan="0" len="12"/>
          <note vol="197" pos="552" key="37" pan="0" len="12"/>
          <note vol="197" pos="564" key="37" pan="0" len="12"/>
          <note vol="197" pos="576" key="36" pan="0" len="12"/>
          <note vol="197" pos="588" key="37" pan="0" len="12"/>
          <note vol="197" pos="600" key="37" pan="0" len="12"/>
          <note vol="197" pos="612" key="37" pan="0" len="12"/>
          <note vol="197" pos="624" key="37" pan="0" len="12"/>
          <note vol="197" pos="636" key="37" pan="0" len="12"/>
          <note vol="197" pos="648" key="37" pan="0" len="12"/>
          <note vol="197" pos="660" key="37" pan="0" len="12"/>
          <note vol="197" pos="672" key="36" pan="0" len="12"/>
          <note vol="197" pos="684" key="37" pan="0" len="12"/>
          <note vol="197" pos="696" key="37" pan="0" len="12"/>
          <note vol="197" pos="708" key="37" pan="0" len="12"/>
          <note vol="197" pos="720" key="39" pan="0" len="12"/>
          <note vol="197" pos="732" key="37" pan="0" len="12"/>
          <note vol="197" pos="744" key="37" pan="0" len="12"/>
          <note vol="197" pos="756" key="37" pan="0" len="12"/>
        </pattern>
        <pattern pos="6528" name="bass fender jazz (1,379kb)" muted="0" type="1" steps="16">
          <note vol="193" pos="0" key="36" pan="0" len="36"/>
          <note vol="193" pos="36" key="36" pan="0" len="36"/>
          <note vol="193" pos="72" key="36" pan="0" len="36"/>
          <note vol="193" pos="108" key="36" pan="0" len="36"/>
          <note vol="193" pos="144" key="36" pan="0" len="36"/>
          <note vol="193" pos="180" key="36" pan="0" len="36"/>
          <note vol="193" pos="216" key="36" pan="0" len="36"/>
          <note vol="193" pos="252" key="36" pan="0" len="36"/>
          <note vol="193" pos="288" key="39" pan="0" len="24"/>
          <note vol="193" pos="312" key="36" pan="0" len="24"/>
          <note vol="193" pos="336" key="36" pan="0" len="12"/>
          <note vol="193" pos="348" key="36" pan="0" len="12"/>
          <note vol="193" pos="360" key="36" pan="0" len="12"/>
          <note vol="193" pos="372" key="36" pan="0" len="12"/>
        </pattern>
        <pattern pos="6912" name="bass fender jazz (1,379kb)" muted="0" type="1" steps="16">
          <note vol="193" pos="0" key="44" pan="0" len="36"/>
          <note vol="193" pos="36" key="44" pan="0" len="36"/>
          <note vol="193" pos="72" key="44" pan="0" len="36"/>
          <note vol="193" pos="108" key="44" pan="0" len="36"/>
          <note vol="193" pos="144" key="46" pan="0" len="36"/>
          <note vol="193" pos="180" key="46" pan="0" len="36"/>
          <note vol="193" pos="216" key="46" pan="0" len="36"/>
          <note vol="193" pos="252" key="46" pan="0" len="36"/>
          <note vol="193" pos="288" key="53" pan="0" len="24"/>
          <note vol="193" pos="312" key="46" pan="0" len="24"/>
          <note vol="193" pos="336" key="46" pan="0" len="12"/>
          <note vol="193" pos="348" key="46" pan="0" len="12"/>
          <note vol="193" pos="360" key="46" pan="0" len="12"/>
          <note vol="193" pos="372" key="46" pan="0" len="12"/>
        </pattern>
        <pattern pos="7296" name="bass fender jazz (1,379kb)" muted="0" type="1" steps="16">
          <note vol="193" pos="0" key="36" pan="0" len="36"/>
          <note vol="193" pos="36" key="36" pan="0" len="36"/>
          <note vol="193" pos="72" key="36" pan="0" len="36"/>
          <note vol="193" pos="108" key="36" pan="0" len="36"/>
          <note vol="193" pos="144" key="36" pan="0" len="36"/>
          <note vol="193" pos="180" key="36" pan="0" len="36"/>
          <note vol="193" pos="216" key="36" pan="0" len="36"/>
          <note vol="193" pos="252" key="36" pan="0" len="36"/>
          <note vol="193" pos="288" key="39" pan="0" len="24"/>
          <note vol="193" pos="312" key="36" pan="0" len="24"/>
          <note vol="193" pos="336" key="36" pan="0" len="12"/>
          <note vol="193" pos="348" key="36" pan="0" len="12"/>
          <note vol="193" pos="360" key="36" pan="0" len="12"/>
          <note vol="193" pos="372" key="36" pan="0" len="12"/>
        </pattern>
        <pattern pos="7680" name="bass fender jazz (1,379kb)" muted="0" type="1" steps="16">
          <note vol="193" pos="0" key="44" pan="0" len="36"/>
          <note vol="193" pos="36" key="44" pan="0" len="36"/>
          <note vol="193" pos="72" key="44" pan="0" len="36"/>
          <note vol="193" pos="108" key="44" pan="0" len="36"/>
          <note vol="193" pos="144" key="46" pan="0" len="36"/>
          <note vol="193" pos="180" key="46" pan="0" len="36"/>
          <note vol="193" pos="216" key="46" pan="0" len="36"/>
          <note vol="193" pos="252" key="46" pan="0" len="36"/>
          <note vol="193" pos="288" key="53" pan="0" len="24"/>
          <note vol="193" pos="312" key="46" pan="0" len="24"/>
          <note vol="193" pos="336" key="46" pan="0" len="12"/>
          <note vol="193" pos="348" key="46" pan="0" len="12"/>
          <note vol="193" pos="360" key="46" pan="0" len="12"/>
          <note vol="193" pos="372" key="46" pan="0" len="12"/>
        </pattern>
        <pattern pos="1536" name="bass fender jazz (1,379kb)" muted="0" type="1" steps="16">
          <note vol="144" pos="0" key="48" pan="0" len="24"/>
          <note vol="151" pos="48" key="50" pan="0" len="24"/>
          <note vol="151" pos="96" key="51" pan="0" len="24"/>
          <note vol="144" pos="144" key="53" pan="0" len="24"/>
          <note vol="144" pos="192" key="47" pan="0" len="48"/>
          <note vol="151" pos="240" key="53" pan="0" len="48"/>
          <note vol="144" pos="288" key="59" pan="0" len="48"/>
        </pattern>
        <pattern pos="1920" name="bass fender jazz (1,379kb)" muted="0" type="1" steps="16">
          <note vol="197" pos="0" key="36" pan="0" len="192"/>
          <note vol="197" pos="192" key="39" pan="0" len="96"/>
          <note vol="197" pos="288" key="41" pan="0" len="96"/>
          <note vol="197" pos="384" key="48" pan="0" len="12"/>
          <note vol="197" pos="396" key="36" pan="0" len="12"/>
          <note vol="197" pos="408" key="36" pan="0" len="12"/>
          <note vol="197" pos="420" key="43" pan="0" len="12"/>
          <note vol="197" pos="432" key="36" pan="0" len="12"/>
          <note vol="197" pos="444" key="36" pan="0" len="12"/>
          <note vol="197" pos="456" key="46" pan="0" len="12"/>
          <note vol="197" pos="468" key="36" pan="0" len="12"/>
          <note vol="197" pos="480" key="36" pan="0" len="12"/>
          <note vol="197" pos="492" key="41" pan="0" len="12"/>
          <note vol="197" pos="504" key="36" pan="0" len="12"/>
          <note vol="197" pos="516" key="36" pan="0" len="12"/>
          <note vol="197" pos="528" key="39" pan="0" len="12"/>
          <note vol="197" pos="540" key="36" pan="0" len="12"/>
          <note vol="197" pos="552" key="36" pan="0" len="12"/>
          <note vol="197" pos="564" key="36" pan="0" len="12"/>
          <note vol="197" pos="576" key="48" pan="0" len="12"/>
          <note vol="197" pos="588" key="36" pan="0" len="12"/>
          <note vol="197" pos="600" key="36" pan="0" len="12"/>
          <note vol="197" pos="612" key="43" pan="0" len="12"/>
          <note vol="197" pos="624" key="36" pan="0" len="12"/>
          <note vol="197" pos="636" key="36" pan="0" len="12"/>
          <note vol="197" pos="648" key="46" pan="0" len="12"/>
          <note vol="197" pos="660" key="36" pan="0" len="12"/>
          <note vol="197" pos="672" key="36" pan="0" len="12"/>
          <note vol="197" pos="684" key="41" pan="0" len="12"/>
          <note vol="197" pos="696" key="36" pan="0" len="12"/>
          <note vol="197" pos="708" key="36" pan="0" len="12"/>
          <note vol="197" pos="720" key="48" pan="0" len="24"/>
          <note vol="197" pos="744" key="50" pan="0" len="24"/>
        </pattern>
        <pattern pos="2688" name="bass fender jazz (1,379kb)" muted="0" type="1" steps="16">
          <note vol="195" pos="0" key="41" pan="0" len="192"/>
          <note vol="195" pos="192" key="46" pan="0" len="192"/>
          <note vol="195" pos="384" key="48" pan="0" len="12"/>
          <note vol="195" pos="396" key="36" pan="0" len="12"/>
          <note vol="195" pos="408" key="36" pan="0" len="12"/>
          <note vol="195" pos="420" key="43" pan="0" len="12"/>
          <note vol="195" pos="432" key="36" pan="0" len="12"/>
          <note vol="195" pos="444" key="36" pan="0" len="12"/>
          <note vol="195" pos="456" key="46" pan="0" len="12"/>
          <note vol="195" pos="468" key="36" pan="0" len="12"/>
          <note vol="195" pos="480" key="36" pan="0" len="12"/>
          <note vol="195" pos="492" key="41" pan="0" len="12"/>
          <note vol="195" pos="504" key="36" pan="0" len="12"/>
          <note vol="195" pos="516" key="36" pan="0" len="12"/>
          <note vol="195" pos="528" key="39" pan="0" len="12"/>
          <note vol="195" pos="540" key="36" pan="0" len="12"/>
          <note vol="195" pos="552" key="36" pan="0" len="12"/>
          <note vol="195" pos="564" key="36" pan="0" len="12"/>
          <note vol="195" pos="576" key="48" pan="0" len="12"/>
          <note vol="195" pos="588" key="36" pan="0" len="12"/>
          <note vol="195" pos="600" key="36" pan="0" len="12"/>
          <note vol="195" pos="612" key="43" pan="0" len="12"/>
          <note vol="195" pos="624" key="36" pan="0" len="12"/>
          <note vol="195" pos="636" key="36" pan="0" len="12"/>
          <note vol="195" pos="648" key="46" pan="0" len="12"/>
          <note vol="195" pos="660" key="36" pan="0" len="12"/>
          <note vol="195" pos="672" key="36" pan="0" len="12"/>
          <note vol="195" pos="684" key="41" pan="0" len="12"/>
          <note vol="195" pos="696" key="36" pan="0" len="12"/>
          <note vol="195" pos="708" key="36" pan="0" len="12"/>
          <note vol="195" pos="720" key="48" pan="0" len="24"/>
          <note vol="195" pos="744" key="50" pan="0" len="24"/>
        </pattern>
        <pattern pos="3456" name="bass fender jazz (1,379kb)" muted="0" type="1" steps="16">
          <note vol="195" pos="0" key="36" pan="0" len="192"/>
          <note vol="195" pos="192" key="39" pan="0" len="96"/>
          <note vol="195" pos="288" key="41" pan="0" len="96"/>
          <note vol="195" pos="384" key="48" pan="0" len="12"/>
          <note vol="195" pos="396" key="36" pan="0" len="12"/>
          <note vol="195" pos="408" key="36" pan="0" len="12"/>
          <note vol="195" pos="420" key="43" pan="0" len="12"/>
          <note vol="195" pos="432" key="36" pan="0" len="12"/>
          <note vol="195" pos="444" key="36" pan="0" len="12"/>
          <note vol="195" pos="456" key="46" pan="0" len="12"/>
          <note vol="195" pos="468" key="36" pan="0" len="12"/>
          <note vol="195" pos="480" key="36" pan="0" len="12"/>
          <note vol="195" pos="492" key="41" pan="0" len="12"/>
          <note vol="195" pos="504" key="36" pan="0" len="12"/>
          <note vol="195" pos="516" key="36" pan="0" len="12"/>
          <note vol="195" pos="528" key="39" pan="0" len="12"/>
          <note vol="195" pos="540" key="36" pan="0" len="12"/>
          <note vol="195" pos="552" key="36" pan="0" len="12"/>
          <note vol="195" pos="564" key="36" pan="0" len="12"/>
          <note vol="195" pos="576" key="48" pan="0" len="12"/>
          <note vol="195" pos="588" key="36" pan="0" len="12"/>
          <note vol="195" pos="600" key="36" pan="0" len="12"/>
          <note vol="195" pos="612" key="43" pan="0" len="12"/>
          <note vol="195" pos="624" key="36" pan="0" len="12"/>
          <note vol="195" pos="636" key="36" pan="0" len="12"/>
          <note vol="195" pos="648" key="46" pan="0" len="12"/>
          <note vol="195" pos="660" key="36" pan="0" len="12"/>
          <note vol="195" pos="672" key="36" pan="0" len="12"/>
          <note vol="195" pos="684" key="41" pan="0" len="12"/>
          <note vol="195" pos="696" key="36" pan="0" len="12"/>
          <note vol="195" pos="708" key="36" pan="0" len="12"/>
          <note vol="195" pos="720" key="48" pan="0" len="24"/>
          <note vol="195" pos="744" key="50" pan="0" len="24"/>
        </pattern>
        <pattern pos="4224" name="bass fender jazz (1,379kb)" muted="0" type="1" steps="16">
          <note vol="193" pos="0" key="41" pan="0" len="192"/>
          <note vol="193" pos="192" key="46" pan="0" len="192"/>
          <note vol="193" pos="384" key="39" pan="0" len="12"/>
          <note vol="193" pos="396" key="39" pan="0" len="12"/>
          <note vol="193" pos="408" key="39" pan="0" len="12"/>
          <note vol="193" pos="420" key="39" pan="0" len="12"/>
          <note vol="193" pos="432" key="39" pan="0" len="12"/>
          <note vol="193" pos="444" key="39" pan="0" len="12"/>
          <note vol="193" pos="456" key="39" pan="0" len="12"/>
          <note vol="193" pos="468" key="39" pan="0" len="12"/>
          <note vol="193" pos="480" key="39" pan="0" len="12"/>
          <note vol="193" pos="492" key="39" pan="0" len="12"/>
          <note vol="193" pos="504" key="39" pan="0" len="12"/>
          <note vol="193" pos="516" key="39" pan="0" len="12"/>
          <note vol="193" pos="528" key="39" pan="0" len="12"/>
          <note vol="193" pos="540" key="39" pan="0" len="12"/>
          <note vol="193" pos="552" key="39" pan="0" len="12"/>
          <note vol="193" pos="564" key="39" pan="0" len="12"/>
          <note vol="193" pos="576" key="43" pan="0" len="12"/>
          <note vol="193" pos="588" key="43" pan="0" len="12"/>
          <note vol="193" pos="600" key="43" pan="0" len="12"/>
          <note vol="193" pos="612" key="43" pan="0" len="12"/>
          <note vol="193" pos="624" key="43" pan="0" len="12"/>
          <note vol="193" pos="636" key="43" pan="0" len="12"/>
          <note vol="193" pos="648" key="43" pan="0" len="12"/>
          <note vol="193" pos="660" key="43" pan="0" len="12"/>
          <note vol="193" pos="672" key="47" pan="0" len="12"/>
          <note vol="193" pos="684" key="47" pan="0" len="12"/>
          <note vol="193" pos="696" key="47" pan="0" len="12"/>
          <note vol="193" pos="708" key="47" pan="0" len="12"/>
          <note vol="193" pos="720" key="50" pan="0" len="12"/>
          <note vol="193" pos="732" key="48" pan="0" len="12"/>
          <note vol="193" pos="744" key="47" pan="0" len="12"/>
          <note vol="193" pos="756" key="43" pan="0" len="12"/>
        </pattern>
        <pattern pos="25344" name="bass fender jazz (1,379kb)" muted="0" type="1" steps="16">
          <note vol="197" pos="0" key="38" pan="0" len="24"/>
          <note vol="197" pos="24" key="38" pan="0" len="12"/>
          <note vol="197" pos="36" key="38" pan="0" len="12"/>
          <note vol="197" pos="48" key="38" pan="0" len="12"/>
          <note vol="197" pos="60" key="38" pan="0" len="12"/>
          <note vol="197" pos="72" key="38" pan="0" len="24"/>
          <note vol="197" pos="96" key="38" pan="0" len="12"/>
          <note vol="197" pos="108" key="38" pan="0" len="12"/>
          <note vol="197" pos="120" key="38" pan="0" len="12"/>
          <note vol="197" pos="132" key="38" pan="0" len="12"/>
          <note vol="197" pos="144" key="38" pan="0" len="24"/>
          <note vol="197" pos="168" key="38" pan="0" len="12"/>
          <note vol="197" pos="180" key="38" pan="0" len="12"/>
          <note vol="197" pos="192" key="38" pan="0" len="12"/>
          <note vol="197" pos="204" key="38" pan="0" len="12"/>
          <note vol="197" pos="216" key="38" pan="0" len="24"/>
          <note vol="197" pos="240" key="38" pan="0" len="12"/>
          <note vol="197" pos="252" key="38" pan="0" len="12"/>
          <note vol="197" pos="264" key="38" pan="0" len="12"/>
          <note vol="197" pos="276" key="38" pan="0" len="12"/>
          <note vol="197" pos="288" key="41" pan="0" len="24"/>
          <note vol="197" pos="312" key="40" pan="0" len="24"/>
          <note vol="197" pos="336" key="38" pan="0" len="24"/>
          <note vol="197" pos="360" key="36" pan="0" len="24"/>
          <note vol="197" pos="384" key="46" pan="0" len="24"/>
          <note vol="197" pos="408" key="46" pan="0" len="12"/>
          <note vol="197" pos="420" key="46" pan="0" len="12"/>
          <note vol="197" pos="432" key="46" pan="0" len="12"/>
          <note vol="197" pos="444" key="46" pan="0" len="12"/>
          <note vol="197" pos="456" key="46" pan="0" len="24"/>
          <note vol="197" pos="480" key="46" pan="0" len="12"/>
          <note vol="197" pos="492" key="46" pan="0" len="12"/>
          <note vol="197" pos="504" key="46" pan="0" len="12"/>
          <note vol="197" pos="516" key="46" pan="0" len="12"/>
          <note vol="197" pos="528" key="36" pan="0" len="24"/>
          <note vol="197" pos="552" key="36" pan="0" len="12"/>
          <note vol="197" pos="564" key="36" pan="0" len="12"/>
          <note vol="197" pos="576" key="36" pan="0" len="12"/>
          <note vol="197" pos="588" key="36" pan="0" len="12"/>
          <note vol="197" pos="600" key="36" pan="0" len="24"/>
          <note vol="197" pos="624" key="36" pan="0" len="12"/>
          <note vol="197" pos="636" key="36" pan="0" len="12"/>
          <note vol="197" pos="648" key="36" pan="0" len="12"/>
          <note vol="197" pos="660" key="36" pan="0" len="12"/>
          <note vol="197" pos="672" key="36" pan="0" len="24"/>
          <note vol="197" pos="696" key="36" pan="0" len="12"/>
          <note vol="197" pos="708" key="36" pan="0" len="12"/>
          <note vol="197" pos="720" key="36" pan="0" len="24"/>
          <note vol="197" pos="744" key="36" pan="0" len="12"/>
          <note vol="197" pos="756" key="36" pan="0" len="12"/>
        </pattern>
        <pattern pos="26112" name="bass fender jazz (1,379kb)" muted="0" type="1" steps="16">
          <note vol="197" pos="0" key="38" pan="0" len="24"/>
          <note vol="197" pos="24" key="38" pan="0" len="12"/>
          <note vol="197" pos="36" key="38" pan="0" len="12"/>
          <note vol="197" pos="48" key="38" pan="0" len="12"/>
          <note vol="197" pos="60" key="38" pan="0" len="12"/>
          <note vol="197" pos="72" key="38" pan="0" len="24"/>
          <note vol="197" pos="96" key="38" pan="0" len="12"/>
          <note vol="197" pos="108" key="38" pan="0" len="12"/>
          <note vol="197" pos="120" key="38" pan="0" len="12"/>
          <note vol="197" pos="132" key="38" pan="0" len="12"/>
          <note vol="197" pos="144" key="38" pan="0" len="24"/>
          <note vol="197" pos="168" key="38" pan="0" len="12"/>
          <note vol="197" pos="180" key="38" pan="0" len="12"/>
          <note vol="197" pos="192" key="38" pan="0" len="12"/>
          <note vol="197" pos="204" key="38" pan="0" len="12"/>
          <note vol="197" pos="216" key="38" pan="0" len="24"/>
          <note vol="197" pos="240" key="38" pan="0" len="12"/>
          <note vol="197" pos="252" key="38" pan="0" len="12"/>
          <note vol="197" pos="264" key="38" pan="0" len="12"/>
          <note vol="197" pos="276" key="38" pan="0" len="12"/>
          <note vol="197" pos="288" key="41" pan="0" len="24"/>
          <note vol="197" pos="312" key="40" pan="0" len="24"/>
          <note vol="197" pos="336" key="38" pan="0" len="24"/>
          <note vol="197" pos="360" key="36" pan="0" len="24"/>
          <note vol="197" pos="384" key="46" pan="0" len="24"/>
          <note vol="197" pos="408" key="46" pan="0" len="12"/>
          <note vol="197" pos="420" key="46" pan="0" len="12"/>
          <note vol="197" pos="432" key="46" pan="0" len="12"/>
          <note vol="197" pos="444" key="46" pan="0" len="12"/>
          <note vol="197" pos="456" key="46" pan="0" len="24"/>
          <note vol="197" pos="480" key="46" pan="0" len="12"/>
          <note vol="197" pos="492" key="46" pan="0" len="12"/>
          <note vol="197" pos="504" key="46" pan="0" len="12"/>
          <note vol="197" pos="516" key="46" pan="0" len="12"/>
          <note vol="197" pos="528" key="36" pan="0" len="24"/>
          <note vol="197" pos="552" key="36" pan="0" len="12"/>
          <note vol="197" pos="564" key="36" pan="0" len="12"/>
          <note vol="197" pos="576" key="36" pan="0" len="12"/>
          <note vol="197" pos="588" key="36" pan="0" len="12"/>
          <note vol="197" pos="600" key="36" pan="0" len="24"/>
          <note vol="197" pos="624" key="36" pan="0" len="12"/>
          <note vol="197" pos="636" key="36" pan="0" len="12"/>
          <note vol="197" pos="648" key="36" pan="0" len="12"/>
          <note vol="197" pos="660" key="36" pan="0" len="12"/>
          <note vol="197" pos="672" key="36" pan="0" len="48"/>
          <note vol="197" pos="720" key="38" pan="0" len="48"/>
        </pattern>
        <pattern pos="26880" name="bass fender jazz (1,379kb)" muted="0" type="1" steps="16">
          <note vol="195" pos="0" key="40" pan="0" len="24"/>
          <note vol="195" pos="24" key="40" pan="0" len="12"/>
          <note vol="195" pos="36" key="40" pan="0" len="12"/>
          <note vol="195" pos="48" key="40" pan="0" len="12"/>
          <note vol="195" pos="60" key="40" pan="0" len="12"/>
          <note vol="195" pos="72" key="40" pan="0" len="24"/>
          <note vol="195" pos="96" key="40" pan="0" len="12"/>
          <note vol="195" pos="108" key="40" pan="0" len="12"/>
          <note vol="195" pos="120" key="40" pan="0" len="12"/>
          <note vol="195" pos="132" key="40" pan="0" len="12"/>
          <note vol="195" pos="144" key="40" pan="0" len="24"/>
          <note vol="195" pos="168" key="40" pan="0" len="12"/>
          <note vol="195" pos="180" key="40" pan="0" len="12"/>
          <note vol="195" pos="192" key="40" pan="0" len="12"/>
          <note vol="195" pos="204" key="40" pan="0" len="12"/>
          <note vol="195" pos="216" key="40" pan="0" len="24"/>
          <note vol="195" pos="240" key="40" pan="0" len="12"/>
          <note vol="195" pos="252" key="40" pan="0" len="12"/>
          <note vol="195" pos="264" key="40" pan="0" len="12"/>
          <note vol="195" pos="276" key="40" pan="0" len="12"/>
          <note vol="195" pos="288" key="43" pan="0" len="24"/>
          <note vol="195" pos="312" key="42" pan="0" len="24"/>
          <note vol="195" pos="336" key="40" pan="0" len="24"/>
          <note vol="195" pos="360" key="38" pan="0" len="24"/>
          <note vol="195" pos="384" key="36" pan="0" len="24"/>
          <note vol="195" pos="408" key="36" pan="0" len="12"/>
          <note vol="195" pos="420" key="36" pan="0" len="12"/>
          <note vol="195" pos="432" key="36" pan="0" len="12"/>
          <note vol="195" pos="444" key="36" pan="0" len="12"/>
          <note vol="195" pos="456" key="36" pan="0" len="24"/>
          <note vol="195" pos="480" key="36" pan="0" len="12"/>
          <note vol="195" pos="492" key="36" pan="0" len="12"/>
          <note vol="195" pos="504" key="36" pan="0" len="12"/>
          <note vol="195" pos="516" key="36" pan="0" len="12"/>
          <note vol="195" pos="528" key="38" pan="0" len="24"/>
          <note vol="195" pos="552" key="38" pan="0" len="12"/>
          <note vol="195" pos="564" key="38" pan="0" len="12"/>
          <note vol="195" pos="576" key="38" pan="0" len="12"/>
          <note vol="195" pos="588" key="38" pan="0" len="12"/>
          <note vol="195" pos="600" key="38" pan="0" len="24"/>
          <note vol="195" pos="624" key="38" pan="0" len="12"/>
          <note vol="195" pos="636" key="38" pan="0" len="12"/>
          <note vol="195" pos="648" key="38" pan="0" len="12"/>
          <note vol="195" pos="660" key="38" pan="0" len="12"/>
          <note vol="195" pos="672" key="38" pan="0" len="24"/>
          <note vol="195" pos="696" key="38" pan="0" len="12"/>
          <note vol="195" pos="708" key="38" pan="0" len="12"/>
          <note vol="195" pos="720" key="38" pan="0" len="24"/>
          <note vol="195" pos="744" key="38" pan="0" len="12"/>
          <note vol="195" pos="756" key="38" pan="0" len="12"/>
        </pattern>
        <pattern pos="27648" name="bass fender jazz (1,379kb)" muted="0" type="1" steps="16">
          <note vol="195" pos="0" key="40" pan="0" len="24"/>
          <note vol="195" pos="24" key="40" pan="0" len="12"/>
          <note vol="195" pos="36" key="40" pan="0" len="12"/>
          <note vol="195" pos="48" key="40" pan="0" len="12"/>
          <note vol="195" pos="60" key="40" pan="0" len="12"/>
          <note vol="195" pos="72" key="40" pan="0" len="24"/>
          <note vol="195" pos="96" key="40" pan="0" len="12"/>
          <note vol="195" pos="108" key="40" pan="0" len="12"/>
          <note vol="195" pos="120" key="40" pan="0" len="12"/>
          <note vol="195" pos="132" key="40" pan="0" len="12"/>
          <note vol="195" pos="144" key="40" pan="0" len="24"/>
          <note vol="195" pos="168" key="40" pan="0" len="12"/>
          <note vol="195" pos="180" key="40" pan="0" len="12"/>
          <note vol="195" pos="192" key="40" pan="0" len="12"/>
          <note vol="195" pos="204" key="40" pan="0" len="12"/>
          <note vol="195" pos="216" key="40" pan="0" len="24"/>
          <note vol="195" pos="240" key="40" pan="0" len="12"/>
          <note vol="195" pos="252" key="40" pan="0" len="12"/>
          <note vol="195" pos="264" key="40" pan="0" len="12"/>
          <note vol="195" pos="276" key="40" pan="0" len="12"/>
          <note vol="195" pos="288" key="43" pan="0" len="24"/>
          <note vol="195" pos="312" key="42" pan="0" len="24"/>
          <note vol="195" pos="336" key="40" pan="0" len="24"/>
          <note vol="195" pos="360" key="38" pan="0" len="24"/>
          <note vol="195" pos="384" key="36" pan="0" len="24"/>
          <note vol="195" pos="408" key="36" pan="0" len="12"/>
          <note vol="195" pos="420" key="36" pan="0" len="12"/>
          <note vol="195" pos="432" key="36" pan="0" len="12"/>
          <note vol="195" pos="444" key="36" pan="0" len="12"/>
          <note vol="195" pos="456" key="36" pan="0" len="24"/>
          <note vol="195" pos="480" key="36" pan="0" len="12"/>
          <note vol="195" pos="492" key="36" pan="0" len="12"/>
          <note vol="195" pos="504" key="36" pan="0" len="12"/>
          <note vol="195" pos="516" key="36" pan="0" len="12"/>
          <note vol="195" pos="528" key="38" pan="0" len="24"/>
          <note vol="195" pos="552" key="38" pan="0" len="12"/>
          <note vol="195" pos="564" key="38" pan="0" len="12"/>
          <note vol="195" pos="576" key="38" pan="0" len="12"/>
          <note vol="195" pos="588" key="38" pan="0" len="12"/>
          <note vol="195" pos="600" key="38" pan="0" len="24"/>
          <note vol="195" pos="624" key="38" pan="0" len="12"/>
          <note vol="195" pos="636" key="38" pan="0" len="12"/>
          <note vol="195" pos="648" key="38" pan="0" len="12"/>
          <note vol="195" pos="660" key="38" pan="0" len="12"/>
          <note vol="195" pos="672" key="38" pan="0" len="24"/>
          <note vol="195" pos="696" key="38" pan="0" len="12"/>
          <note vol="195" pos="708" key="38" pan="0" len="12"/>
          <note vol="195" pos="720" key="38" pan="0" len="24"/>
          <note vol="195" pos="744" key="38" pan="0" len="12"/>
          <note vol="195" pos="756" key="38" pan="0" len="12"/>
        </pattern>
        <pattern pos="28416" name="bass fender jazz (1,379kb)" muted="0" type="1" steps="16">
          <note vol="195" pos="0" key="40" pan="0" len="24"/>
          <note vol="195" pos="24" key="40" pan="0" len="12"/>
          <note vol="195" pos="36" key="40" pan="0" len="12"/>
          <note vol="195" pos="48" key="40" pan="0" len="12"/>
          <note vol="195" pos="60" key="40" pan="0" len="12"/>
          <note vol="195" pos="72" key="40" pan="0" len="24"/>
          <note vol="195" pos="96" key="40" pan="0" len="12"/>
          <note vol="195" pos="108" key="40" pan="0" len="12"/>
          <note vol="195" pos="120" key="40" pan="0" len="12"/>
          <note vol="195" pos="132" key="40" pan="0" len="12"/>
          <note vol="195" pos="144" key="40" pan="0" len="24"/>
          <note vol="195" pos="168" key="40" pan="0" len="12"/>
          <note vol="195" pos="180" key="40" pan="0" len="12"/>
          <note vol="195" pos="192" key="40" pan="0" len="12"/>
          <note vol="195" pos="204" key="40" pan="0" len="12"/>
          <note vol="195" pos="216" key="40" pan="0" len="24"/>
          <note vol="195" pos="240" key="40" pan="0" len="12"/>
          <note vol="195" pos="252" key="40" pan="0" len="12"/>
          <note vol="195" pos="264" key="40" pan="0" len="12"/>
          <note vol="195" pos="276" key="40" pan="0" len="12"/>
          <note vol="195" pos="288" key="43" pan="0" len="24"/>
          <note vol="195" pos="312" key="42" pan="0" len="24"/>
          <note vol="195" pos="336" key="40" pan="0" len="24"/>
          <note vol="195" pos="360" key="38" pan="0" len="24"/>
          <note vol="195" pos="384" key="36" pan="0" len="24"/>
          <note vol="195" pos="408" key="36" pan="0" len="12"/>
          <note vol="195" pos="420" key="36" pan="0" len="12"/>
          <note vol="195" pos="432" key="36" pan="0" len="12"/>
          <note vol="195" pos="444" key="36" pan="0" len="12"/>
          <note vol="195" pos="456" key="36" pan="0" len="24"/>
          <note vol="195" pos="480" key="36" pan="0" len="12"/>
          <note vol="195" pos="492" key="36" pan="0" len="12"/>
          <note vol="195" pos="504" key="36" pan="0" len="12"/>
          <note vol="195" pos="516" key="36" pan="0" len="12"/>
          <note vol="195" pos="528" key="38" pan="0" len="24"/>
          <note vol="195" pos="552" key="38" pan="0" len="12"/>
          <note vol="195" pos="564" key="38" pan="0" len="12"/>
          <note vol="195" pos="576" key="38" pan="0" len="12"/>
          <note vol="195" pos="588" key="38" pan="0" len="12"/>
          <note vol="195" pos="600" key="38" pan="0" len="24"/>
          <note vol="195" pos="624" key="38" pan="0" len="12"/>
          <note vol="195" pos="636" key="38" pan="0" len="12"/>
          <note vol="195" pos="648" key="38" pan="0" len="12"/>
          <note vol="195" pos="660" key="38" pan="0" len="12"/>
          <note vol="195" pos="672" key="38" pan="0" len="24"/>
          <note vol="195" pos="696" key="38" pan="0" len="12"/>
          <note vol="195" pos="708" key="38" pan="0" len="12"/>
          <note vol="195" pos="720" key="38" pan="0" len="24"/>
          <note vol="195" pos="744" key="38" pan="0" len="12"/>
          <note vol="195" pos="756" key="38" pan="0" len="12"/>
        </pattern>
        <pattern pos="29184" name="bass fender jazz (1,379kb)" muted="0" type="1" steps="16">
          <note vol="195" pos="0" key="40" pan="0" len="24"/>
          <note vol="195" pos="24" key="40" pan="0" len="12"/>
          <note vol="195" pos="36" key="40" pan="0" len="12"/>
          <note vol="195" pos="48" key="40" pan="0" len="12"/>
          <note vol="195" pos="60" key="40" pan="0" len="12"/>
          <note vol="195" pos="72" key="40" pan="0" len="24"/>
          <note vol="195" pos="96" key="40" pan="0" len="12"/>
          <note vol="195" pos="108" key="40" pan="0" len="12"/>
          <note vol="195" pos="120" key="40" pan="0" len="12"/>
          <note vol="195" pos="132" key="40" pan="0" len="12"/>
          <note vol="195" pos="144" key="40" pan="0" len="24"/>
          <note vol="195" pos="168" key="40" pan="0" len="12"/>
          <note vol="195" pos="180" key="40" pan="0" len="12"/>
          <note vol="195" pos="192" key="40" pan="0" len="12"/>
          <note vol="195" pos="204" key="40" pan="0" len="12"/>
          <note vol="195" pos="216" key="40" pan="0" len="24"/>
          <note vol="195" pos="240" key="40" pan="0" len="12"/>
          <note vol="195" pos="252" key="40" pan="0" len="12"/>
          <note vol="195" pos="264" key="40" pan="0" len="12"/>
          <note vol="195" pos="276" key="40" pan="0" len="12"/>
          <note vol="195" pos="288" key="43" pan="0" len="24"/>
          <note vol="195" pos="312" key="42" pan="0" len="24"/>
          <note vol="195" pos="336" key="40" pan="0" len="24"/>
          <note vol="195" pos="360" key="38" pan="0" len="24"/>
          <note vol="195" pos="384" key="36" pan="0" len="24"/>
          <note vol="195" pos="408" key="36" pan="0" len="12"/>
          <note vol="195" pos="420" key="36" pan="0" len="12"/>
          <note vol="195" pos="432" key="36" pan="0" len="12"/>
          <note vol="195" pos="444" key="36" pan="0" len="12"/>
          <note vol="195" pos="456" key="36" pan="0" len="24"/>
          <note vol="195" pos="480" key="36" pan="0" len="12"/>
          <note vol="195" pos="492" key="36" pan="0" len="12"/>
          <note vol="195" pos="504" key="36" pan="0" len="12"/>
          <note vol="195" pos="516" key="36" pan="0" len="12"/>
          <note vol="195" pos="528" key="38" pan="0" len="24"/>
          <note vol="195" pos="552" key="38" pan="0" len="12"/>
          <note vol="195" pos="564" key="38" pan="0" len="12"/>
          <note vol="195" pos="576" key="38" pan="0" len="12"/>
          <note vol="195" pos="588" key="38" pan="0" len="12"/>
          <note vol="195" pos="600" key="38" pan="0" len="24"/>
          <note vol="195" pos="624" key="38" pan="0" len="12"/>
          <note vol="195" pos="636" key="38" pan="0" len="12"/>
          <note vol="195" pos="648" key="38" pan="0" len="12"/>
          <note vol="195" pos="660" key="38" pan="0" len="12"/>
          <note vol="195" pos="672" key="38" pan="0" len="24"/>
          <note vol="195" pos="696" key="38" pan="0" len="12"/>
          <note vol="195" pos="708" key="38" pan="0" len="12"/>
          <note vol="195" pos="720" key="38" pan="0" len="24"/>
          <note vol="195" pos="744" key="38" pan="0" len="12"/>
          <note vol="195" pos="756" key="38" pan="0" len="12"/>
        </pattern>
        <pattern pos="4992" name="bass fender jazz (1,379kb)" muted="0" type="1" steps="16">
          <note vol="197" pos="0" key="36" pan="0" len="144"/>
          <note vol="197" pos="144" key="36" pan="0" len="144"/>
          <note vol="197" pos="288" key="36" pan="0" len="96"/>
          <note vol="197" pos="384" key="44" pan="0" len="144"/>
          <note vol="197" pos="528" key="46" pan="0" len="240"/>
        </pattern>
        <pattern pos="5760" name="bass fender jazz (1,379kb)" muted="0" type="1" steps="16">
          <note vol="197" pos="0" key="36" pan="0" len="144"/>
          <note vol="197" pos="144" key="36" pan="0" len="144"/>
          <note vol="197" pos="288" key="36" pan="0" len="96"/>
          <note vol="197" pos="384" key="44" pan="0" len="144"/>
          <note vol="197" pos="528" key="46" pan="0" len="240"/>
        </pattern>
        <pattern pos="12672" name="bass fender jazz (1,379kb)" muted="0" type="1" steps="16">
          <note vol="193" pos="0" key="36" pan="0" len="36"/>
          <note vol="193" pos="36" key="36" pan="0" len="36"/>
          <note vol="193" pos="72" key="36" pan="0" len="36"/>
          <note vol="193" pos="108" key="36" pan="0" len="36"/>
          <note vol="193" pos="144" key="36" pan="0" len="36"/>
          <note vol="193" pos="180" key="36" pan="0" len="36"/>
          <note vol="193" pos="216" key="36" pan="0" len="36"/>
          <note vol="193" pos="252" key="36" pan="0" len="36"/>
          <note vol="193" pos="288" key="39" pan="0" len="24"/>
          <note vol="193" pos="312" key="36" pan="0" len="24"/>
          <note vol="193" pos="336" key="36" pan="0" len="12"/>
          <note vol="193" pos="348" key="36" pan="0" len="12"/>
          <note vol="193" pos="360" key="36" pan="0" len="12"/>
          <note vol="193" pos="372" key="36" pan="0" len="12"/>
        </pattern>
        <pattern pos="13056" name="bass fender jazz (1,379kb)" muted="0" type="1" steps="16">
          <note vol="193" pos="0" key="44" pan="0" len="36"/>
          <note vol="193" pos="36" key="44" pan="0" len="36"/>
          <note vol="193" pos="72" key="44" pan="0" len="36"/>
          <note vol="193" pos="108" key="44" pan="0" len="36"/>
          <note vol="193" pos="144" key="44" pan="0" len="36"/>
          <note vol="193" pos="180" key="44" pan="0" len="36"/>
          <note vol="193" pos="216" key="44" pan="0" len="36"/>
          <note vol="193" pos="252" key="44" pan="0" len="36"/>
          <note vol="193" pos="288" key="51" pan="0" len="24"/>
          <note vol="193" pos="312" key="44" pan="0" len="24"/>
          <note vol="193" pos="336" key="44" pan="0" len="12"/>
          <note vol="193" pos="348" key="44" pan="0" len="12"/>
          <note vol="193" pos="360" key="44" pan="0" len="12"/>
          <note vol="193" pos="372" key="44" pan="0" len="12"/>
        </pattern>
        <pattern pos="13440" name="bass fender jazz (1,379kb)" muted="0" type="1" steps="16">
          <note vol="193" pos="0" key="39" pan="0" len="36"/>
          <note vol="193" pos="36" key="39" pan="0" len="36"/>
          <note vol="193" pos="72" key="39" pan="0" len="36"/>
          <note vol="193" pos="108" key="39" pan="0" len="36"/>
          <note vol="193" pos="144" key="39" pan="0" len="36"/>
          <note vol="193" pos="180" key="39" pan="0" len="36"/>
          <note vol="193" pos="216" key="39" pan="0" len="36"/>
          <note vol="193" pos="252" key="39" pan="0" len="36"/>
          <note vol="193" pos="288" key="43" pan="0" len="24"/>
          <note vol="193" pos="312" key="39" pan="0" len="24"/>
          <note vol="193" pos="336" key="39" pan="0" len="12"/>
          <note vol="193" pos="348" key="39" pan="0" len="12"/>
          <note vol="193" pos="360" key="39" pan="0" len="12"/>
          <note vol="193" pos="372" key="39" pan="0" len="12"/>
        </pattern>
        <pattern pos="8064" name="bass fender jazz (1,379kb)" muted="0" type="1" steps="16">
          <note vol="197" pos="0" key="36" pan="0" len="24"/>
          <note vol="197" pos="24" key="36" pan="0" len="12"/>
          <note vol="197" pos="36" key="36" pan="0" len="12"/>
          <note vol="157" pos="48" key="36" pan="0" len="12"/>
          <note vol="157" pos="60" key="36" pan="0" len="12"/>
          <note vol="157" pos="72" key="36" pan="0" len="12"/>
          <note vol="157" pos="84" key="36" pan="0" len="12"/>
          <note vol="157" pos="96" key="36" pan="0" len="12"/>
          <note vol="157" pos="108" key="36" pan="0" len="12"/>
          <note vol="157" pos="120" key="36" pan="0" len="12"/>
          <note vol="157" pos="132" key="36" pan="0" len="12"/>
          <note vol="157" pos="144" key="36" pan="0" len="12"/>
          <note vol="157" pos="156" key="36" pan="0" len="12"/>
          <note vol="157" pos="168" key="36" pan="0" len="12"/>
          <note vol="157" pos="180" key="36" pan="0" len="12"/>
          <note vol="157" pos="192" key="36" pan="0" len="12"/>
          <note vol="157" pos="204" key="36" pan="0" len="12"/>
          <note vol="157" pos="216" key="36" pan="0" len="12"/>
          <note vol="157" pos="228" key="36" pan="0" len="12"/>
          <note vol="157" pos="240" key="36" pan="0" len="12"/>
          <note vol="157" pos="252" key="36" pan="0" len="12"/>
          <note vol="157" pos="264" key="36" pan="0" len="12"/>
          <note vol="157" pos="276" key="36" pan="0" len="12"/>
          <note vol="157" pos="288" key="36" pan="0" len="12"/>
          <note vol="157" pos="300" key="36" pan="0" len="12"/>
          <note vol="157" pos="312" key="36" pan="0" len="12"/>
          <note vol="157" pos="324" key="36" pan="0" len="12"/>
          <note vol="157" pos="336" key="36" pan="0" len="12"/>
          <note vol="157" pos="348" key="36" pan="0" len="12"/>
          <note vol="157" pos="360" key="36" pan="0" len="12"/>
          <note vol="157" pos="372" key="36" pan="0" len="12"/>
          <note vol="197" pos="384" key="44" pan="0" len="24"/>
          <note vol="157" pos="408" key="44" pan="0" len="12"/>
          <note vol="157" pos="420" key="44" pan="0" len="12"/>
          <note vol="157" pos="432" key="44" pan="0" len="12"/>
          <note vol="157" pos="444" key="44" pan="0" len="12"/>
          <note vol="157" pos="456" key="44" pan="0" len="12"/>
          <note vol="157" pos="468" key="44" pan="0" len="12"/>
          <note vol="157" pos="480" key="44" pan="0" len="12"/>
          <note vol="157" pos="492" key="44" pan="0" len="12"/>
          <note vol="157" pos="504" key="44" pan="0" len="12"/>
          <note vol="157" pos="516" key="44" pan="0" len="12"/>
          <note vol="197" pos="528" key="46" pan="0" len="24"/>
          <note vol="157" pos="552" key="46" pan="0" len="12"/>
          <note vol="157" pos="564" key="46" pan="0" len="12"/>
          <note vol="157" pos="576" key="46" pan="0" len="12"/>
          <note vol="157" pos="588" key="46" pan="0" len="12"/>
          <note vol="157" pos="600" key="46" pan="0" len="12"/>
          <note vol="157" pos="612" key="46" pan="0" len="12"/>
          <note vol="157" pos="624" key="46" pan="0" len="12"/>
          <note vol="157" pos="636" key="46" pan="0" len="12"/>
          <note vol="157" pos="648" key="46" pan="0" len="12"/>
          <note vol="157" pos="660" key="46" pan="0" len="12"/>
          <note vol="157" pos="672" key="46" pan="0" len="12"/>
          <note vol="157" pos="684" key="46" pan="0" len="12"/>
          <note vol="157" pos="696" key="46" pan="0" len="12"/>
          <note vol="157" pos="708" key="46" pan="0" len="12"/>
          <note vol="157" pos="720" key="46" pan="0" len="12"/>
          <note vol="157" pos="732" key="46" pan="0" len="12"/>
          <note vol="157" pos="744" key="46" pan="0" len="12"/>
          <note vol="157" pos="756" key="46" pan="0" len="12"/>
        </pattern>
        <pattern pos="8832" name="bass fender jazz (1,379kb)" muted="0" type="1" steps="16">
          <note vol="197" pos="0" key="36" pan="0" len="24"/>
          <note vol="197" pos="24" key="36" pan="0" len="12"/>
          <note vol="197" pos="36" key="36" pan="0" len="12"/>
          <note vol="157" pos="48" key="36" pan="0" len="12"/>
          <note vol="157" pos="60" key="36" pan="0" len="12"/>
          <note vol="157" pos="72" key="36" pan="0" len="12"/>
          <note vol="157" pos="84" key="36" pan="0" len="12"/>
          <note vol="157" pos="96" key="36" pan="0" len="12"/>
          <note vol="157" pos="108" key="36" pan="0" len="12"/>
          <note vol="157" pos="120" key="36" pan="0" len="12"/>
          <note vol="157" pos="132" key="36" pan="0" len="12"/>
          <note vol="157" pos="144" key="36" pan="0" len="12"/>
          <note vol="157" pos="156" key="36" pan="0" len="12"/>
          <note vol="157" pos="168" key="36" pan="0" len="12"/>
          <note vol="157" pos="180" key="36" pan="0" len="12"/>
          <note vol="157" pos="192" key="36" pan="0" len="12"/>
          <note vol="157" pos="204" key="36" pan="0" len="12"/>
          <note vol="157" pos="216" key="36" pan="0" len="12"/>
          <note vol="157" pos="228" key="36" pan="0" len="12"/>
          <note vol="157" pos="240" key="36" pan="0" len="12"/>
          <note vol="157" pos="252" key="36" pan="0" len="12"/>
          <note vol="157" pos="264" key="36" pan="0" len="12"/>
          <note vol="157" pos="276" key="36" pan="0" len="12"/>
          <note vol="157" pos="288" key="36" pan="0" len="12"/>
          <note vol="157" pos="300" key="36" pan="0" len="12"/>
          <note vol="157" pos="312" key="36" pan="0" len="12"/>
          <note vol="157" pos="324" key="36" pan="0" len="12"/>
          <note vol="157" pos="336" key="36" pan="0" len="12"/>
          <note vol="157" pos="348" key="36" pan="0" len="12"/>
          <note vol="157" pos="360" key="36" pan="0" len="12"/>
          <note vol="157" pos="372" key="36" pan="0" len="12"/>
          <note vol="197" pos="384" key="44" pan="0" len="24"/>
          <note vol="157" pos="408" key="44" pan="0" len="12"/>
          <note vol="157" pos="420" key="44" pan="0" len="12"/>
          <note vol="157" pos="432" key="44" pan="0" len="12"/>
          <note vol="157" pos="444" key="44" pan="0" len="12"/>
          <note vol="157" pos="456" key="44" pan="0" len="12"/>
          <note vol="157" pos="468" key="44" pan="0" len="12"/>
          <note vol="157" pos="480" key="44" pan="0" len="12"/>
          <note vol="157" pos="492" key="44" pan="0" len="12"/>
          <note vol="157" pos="504" key="44" pan="0" len="12"/>
          <note vol="157" pos="516" key="44" pan="0" len="12"/>
          <note vol="197" pos="528" key="46" pan="0" len="24"/>
          <note vol="157" pos="552" key="46" pan="0" len="12"/>
          <note vol="157" pos="564" key="46" pan="0" len="12"/>
          <note vol="157" pos="576" key="46" pan="0" len="12"/>
          <note vol="157" pos="588" key="46" pan="0" len="12"/>
          <note vol="157" pos="600" key="46" pan="0" len="12"/>
          <note vol="157" pos="612" key="46" pan="0" len="12"/>
          <note vol="157" pos="624" key="46" pan="0" len="12"/>
          <note vol="157" pos="636" key="46" pan="0" len="12"/>
          <note vol="157" pos="648" key="46" pan="0" len="12"/>
          <note vol="157" pos="660" key="46" pan="0" len="12"/>
          <note vol="157" pos="672" key="46" pan="0" len="12"/>
          <note vol="157" pos="684" key="46" pan="0" len="12"/>
          <note vol="157" pos="696" key="46" pan="0" len="12"/>
          <note vol="157" pos="708" key="46" pan="0" len="12"/>
          <note vol="157" pos="720" key="46" pan="0" len="12"/>
          <note vol="157" pos="732" key="46" pan="0" len="12"/>
          <note vol="157" pos="744" key="46" pan="0" len="12"/>
          <note vol="157" pos="756" key="46" pan="0" len="12"/>
        </pattern>
        <pattern pos="9600" name="bass fender jazz (1,379kb)" muted="0" type="1" steps="16">
          <note vol="197" pos="0" key="55" pan="0" len="12"/>
          <note vol="197" pos="12" key="51" pan="0" len="12"/>
          <note vol="197" pos="24" key="48" pan="0" len="12"/>
          <note vol="197" pos="36" key="51" pan="0" len="12"/>
          <note vol="197" pos="48" key="43" pan="0" len="12"/>
          <note vol="197" pos="60" key="48" pan="0" len="12"/>
          <note vol="197" pos="72" key="39" pan="0" len="12"/>
          <note vol="197" pos="84" key="43" pan="0" len="12"/>
          <note vol="197" pos="96" key="36" pan="0" len="12"/>
          <note vol="197" pos="108" key="43" pan="0" len="12"/>
          <note vol="197" pos="120" key="39" pan="0" len="12"/>
          <note vol="197" pos="132" key="43" pan="0" len="12"/>
          <note vol="197" pos="144" key="48" pan="0" len="12"/>
          <note vol="197" pos="156" key="55" pan="0" len="12"/>
          <note vol="197" pos="168" key="53" pan="0" len="12"/>
          <note vol="197" pos="180" key="51" pan="0" len="12"/>
          <note vol="197" pos="192" key="55" pan="0" len="12"/>
          <note vol="197" pos="204" key="51" pan="0" len="12"/>
          <note vol="197" pos="216" key="48" pan="0" len="12"/>
          <note vol="197" pos="228" key="51" pan="0" len="12"/>
          <note vol="197" pos="240" key="43" pan="0" len="12"/>
          <note vol="197" pos="252" key="48" pan="0" len="12"/>
          <note vol="197" pos="264" key="39" pan="0" len="12"/>
          <note vol="197" pos="276" key="43" pan="0" len="12"/>
          <note vol="197" pos="288" key="36" pan="0" len="12"/>
          <note vol="197" pos="300" key="43" pan="0" len="12"/>
          <note vol="197" pos="312" key="39" pan="0" len="12"/>
          <note vol="197" pos="324" key="43" pan="0" len="12"/>
          <note vol="197" pos="336" key="48" pan="0" len="12"/>
          <note vol="197" pos="348" key="55" pan="0" len="12"/>
          <note vol="197" pos="360" key="53" pan="0" len="12"/>
          <note vol="197" pos="372" key="51" pan="0" len="12"/>
          <note vol="197" pos="384" key="54" pan="0" len="12"/>
          <note vol="197" pos="396" key="49" pan="0" len="12"/>
          <note vol="197" pos="408" key="48" pan="0" len="12"/>
          <note vol="197" pos="420" key="49" pan="0" len="12"/>
          <note vol="197" pos="432" key="46" pan="0" len="12"/>
          <note vol="197" pos="444" key="49" pan="0" len="12"/>
          <note vol="197" pos="456" key="42" pan="0" len="12"/>
          <note vol="197" pos="468" key="49" pan="0" len="12"/>
          <note vol="197" pos="480" key="37" pan="0" len="12"/>
          <note vol="197" pos="492" key="49" pan="0" len="12"/>
          <note vol="197" pos="504" key="48" pan="0" len="12"/>
          <note vol="197" pos="516" key="46" pan="0" len="12"/>
          <note vol="197" pos="528" key="42" pan="0" len="12"/>
          <note vol="197" pos="540" key="46" pan="0" len="12"/>
          <note vol="197" pos="552" key="48" pan="0" len="12"/>
          <note vol="197" pos="564" key="53" pan="0" len="12"/>
          <note vol="197" pos="576" key="54" pan="0" len="12"/>
          <note vol="197" pos="588" key="49" pan="0" len="12"/>
          <note vol="197" pos="600" key="48" pan="0" len="12"/>
          <note vol="197" pos="612" key="49" pan="0" len="12"/>
          <note vol="197" pos="624" key="46" pan="0" len="12"/>
          <note vol="197" pos="636" key="49" pan="0" len="12"/>
          <note vol="197" pos="648" key="37" pan="0" len="12"/>
          <note vol="197" pos="660" key="49" pan="0" len="12"/>
          <note vol="197" pos="672" key="42" pan="0" len="12"/>
          <note vol="197" pos="684" key="49" pan="0" len="12"/>
          <note vol="197" pos="696" key="48" pan="0" len="12"/>
          <note vol="197" pos="708" key="49" pan="0" len="12"/>
          <note vol="197" pos="720" key="54" pan="0" len="12"/>
          <note vol="197" pos="732" key="58" pan="0" len="12"/>
          <note vol="197" pos="744" key="60" pan="0" len="12"/>
          <note vol="197" pos="756" key="61" pan="0" len="12"/>
          <note vol="197" pos="768" key="55" pan="0" len="12"/>
          <note vol="197" pos="780" key="51" pan="0" len="12"/>
          <note vol="197" pos="792" key="48" pan="0" len="12"/>
          <note vol="197" pos="804" key="51" pan="0" len="12"/>
          <note vol="197" pos="816" key="43" pan="0" len="12"/>
          <note vol="197" pos="828" key="48" pan="0" len="12"/>
          <note vol="197" pos="840" key="39" pan="0" len="12"/>
          <note vol="197" pos="852" key="43" pan="0" len="12"/>
          <note vol="197" pos="864" key="36" pan="0" len="12"/>
          <note vol="197" pos="876" key="43" pan="0" len="12"/>
          <note vol="197" pos="888" key="39" pan="0" len="12"/>
          <note vol="197" pos="900" key="43" pan="0" len="12"/>
          <note vol="197" pos="912" key="48" pan="0" len="12"/>
          <note vol="197" pos="924" key="55" pan="0" len="12"/>
          <note vol="197" pos="936" key="53" pan="0" len="12"/>
          <note vol="197" pos="948" key="51" pan="0" len="12"/>
          <note vol="197" pos="960" key="55" pan="0" len="12"/>
          <note vol="197" pos="972" key="51" pan="0" len="12"/>
          <note vol="197" pos="984" key="48" pan="0" len="12"/>
          <note vol="197" pos="996" key="51" pan="0" len="12"/>
          <note vol="197" pos="1008" key="43" pan="0" len="12"/>
          <note vol="197" pos="1020" key="48" pan="0" len="12"/>
          <note vol="197" pos="1032" key="39" pan="0" len="12"/>
          <note vol="197" pos="1044" key="43" pan="0" len="12"/>
          <note vol="197" pos="1056" key="36" pan="0" len="12"/>
          <note vol="197" pos="1068" key="43" pan="0" len="12"/>
          <note vol="197" pos="1080" key="39" pan="0" len="12"/>
          <note vol="197" pos="1092" key="43" pan="0" len="12"/>
          <note vol="197" pos="1104" key="48" pan="0" len="12"/>
          <note vol="197" pos="1116" key="55" pan="0" len="12"/>
          <note vol="197" pos="1128" key="53" pan="0" len="12"/>
          <note vol="197" pos="1140" key="51" pan="0" len="12"/>
        </pattern>
        <pattern pos="10752" name="bass fender jazz (1,379kb)" muted="0" type="1" steps="16">
          <note vol="197" pos="0" key="42" pan="0" len="192"/>
          <note vol="197" pos="192" key="42" pan="0" len="192"/>
        </pattern>
        <pattern pos="17280" name="bass fender jazz (1,379kb)" muted="0" type="1" steps="16">
          <note vol="170" pos="0" key="38" pan="0" len="24"/>
          <note vol="170" pos="24" key="38" pan="0" len="12"/>
          <note vol="170" pos="36" key="38" pan="0" len="12"/>
          <note vol="170" pos="48" key="38" pan="0" len="12"/>
          <note vol="170" pos="60" key="38" pan="0" len="12"/>
          <note vol="170" pos="72" key="38" pan="0" len="12"/>
          <note vol="170" pos="84" key="38" pan="0" len="12"/>
          <note vol="170" pos="96" key="38" pan="0" len="12"/>
          <note vol="170" pos="108" key="38" pan="0" len="12"/>
          <note vol="170" pos="120" key="38" pan="0" len="12"/>
          <note vol="170" pos="132" key="38" pan="0" len="12"/>
          <note vol="170" pos="144" key="38" pan="0" len="12"/>
          <note vol="170" pos="156" key="38" pan="0" len="12"/>
          <note vol="170" pos="168" key="38" pan="0" len="12"/>
          <note vol="170" pos="180" key="38" pan="0" len="12"/>
        </pattern>
        <pattern pos="17472" name="bass fender jazz (1,379kb)" muted="0" type="1" steps="16">
          <note vol="170" pos="0" key="36" pan="0" len="24"/>
          <note vol="170" pos="24" key="36" pan="0" len="12"/>
          <note vol="170" pos="36" key="36" pan="0" len="12"/>
          <note vol="170" pos="48" key="36" pan="0" len="12"/>
          <note vol="170" pos="60" key="36" pan="0" len="12"/>
          <note vol="170" pos="72" key="46" pan="0" len="48"/>
          <note vol="170" pos="120" key="46" pan="0" len="12"/>
          <note vol="170" pos="132" key="46" pan="0" len="12"/>
          <note vol="170" pos="144" key="46" pan="0" len="12"/>
          <note vol="170" pos="156" key="46" pan="0" len="12"/>
          <note vol="170" pos="168" key="46" pan="0" len="12"/>
          <note vol="170" pos="180" key="46" pan="0" len="12"/>
        </pattern>
        <pattern pos="17664" name="bass fender jazz (1,379kb)" muted="0" type="1" steps="16">
          <note vol="170" pos="0" key="41" pan="0" len="24"/>
          <note vol="170" pos="24" key="41" pan="0" len="12"/>
          <note vol="170" pos="36" key="41" pan="0" len="12"/>
          <note vol="170" pos="48" key="41" pan="0" len="12"/>
          <note vol="170" pos="60" key="41" pan="0" len="12"/>
          <note vol="170" pos="72" key="41" pan="0" len="12"/>
          <note vol="170" pos="84" key="41" pan="0" len="12"/>
          <note vol="170" pos="96" key="41" pan="0" len="12"/>
          <note vol="170" pos="108" key="41" pan="0" len="12"/>
          <note vol="170" pos="120" key="41" pan="0" len="12"/>
          <note vol="170" pos="132" key="41" pan="0" len="12"/>
          <note vol="170" pos="144" key="41" pan="0" len="12"/>
          <note vol="170" pos="156" key="41" pan="0" len="12"/>
          <note vol="170" pos="168" key="41" pan="0" len="12"/>
          <note vol="170" pos="180" key="41" pan="0" len="12"/>
        </pattern>
        <pattern pos="17856" name="bass fender jazz (1,379kb)" muted="0" type="1" steps="16">
          <note vol="195" pos="0" key="43" pan="0" len="24"/>
          <note vol="195" pos="24" key="43" pan="0" len="12"/>
          <note vol="195" pos="36" key="43" pan="0" len="12"/>
          <note vol="195" pos="48" key="43" pan="0" len="12"/>
          <note vol="195" pos="60" key="43" pan="0" len="12"/>
          <note vol="195" pos="72" key="38" pan="0" len="48"/>
          <note vol="195" pos="120" key="41" pan="0" len="24"/>
          <note vol="195" pos="144" key="40" pan="0" len="24"/>
          <note vol="195" pos="168" key="38" pan="0" len="24"/>
        </pattern>
        <pattern pos="18048" name="bass fender jazz (1,379kb)" muted="0" type="1" steps="16">
          <note vol="170" pos="0" key="38" pan="0" len="24"/>
          <note vol="170" pos="24" key="38" pan="0" len="12"/>
          <note vol="170" pos="36" key="38" pan="0" len="12"/>
          <note vol="170" pos="48" key="38" pan="0" len="12"/>
          <note vol="170" pos="60" key="38" pan="0" len="12"/>
          <note vol="170" pos="72" key="38" pan="0" len="12"/>
          <note vol="170" pos="84" key="38" pan="0" len="12"/>
          <note vol="170" pos="96" key="38" pan="0" len="12"/>
          <note vol="170" pos="108" key="38" pan="0" len="12"/>
          <note vol="170" pos="120" key="38" pan="0" len="12"/>
          <note vol="170" pos="132" key="38" pan="0" len="12"/>
          <note vol="170" pos="144" key="38" pan="0" len="12"/>
          <note vol="170" pos="156" key="38" pan="0" len="12"/>
          <note vol="170" pos="168" key="38" pan="0" len="12"/>
          <note vol="170" pos="180" key="38" pan="0" len="12"/>
        </pattern>
        <pattern pos="18240" name="bass fender jazz (1,379kb)" muted="0" type="1" steps="16">
          <note vol="170" pos="0" key="36" pan="0" len="24"/>
          <note vol="170" pos="24" key="36" pan="0" len="12"/>
          <note vol="170" pos="36" key="36" pan="0" len="12"/>
          <note vol="170" pos="48" key="36" pan="0" len="12"/>
          <note vol="170" pos="60" key="36" pan="0" len="12"/>
          <note vol="170" pos="72" key="46" pan="0" len="48"/>
          <note vol="170" pos="120" key="46" pan="0" len="12"/>
          <note vol="170" pos="132" key="46" pan="0" len="12"/>
          <note vol="170" pos="144" key="46" pan="0" len="12"/>
          <note vol="170" pos="156" key="46" pan="0" len="12"/>
          <note vol="170" pos="168" key="46" pan="0" len="12"/>
          <note vol="170" pos="180" key="46" pan="0" len="12"/>
        </pattern>
        <pattern pos="18432" name="bass fender jazz (1,379kb)" muted="0" type="1" steps="16">
          <note vol="170" pos="0" key="41" pan="0" len="24"/>
          <note vol="170" pos="24" key="41" pan="0" len="12"/>
          <note vol="170" pos="36" key="41" pan="0" len="12"/>
          <note vol="170" pos="48" key="41" pan="0" len="12"/>
          <note vol="170" pos="60" key="41" pan="0" len="12"/>
          <note vol="170" pos="72" key="41" pan="0" len="12"/>
          <note vol="170" pos="84" key="41" pan="0" len="12"/>
          <note vol="170" pos="96" key="41" pan="0" len="12"/>
          <note vol="170" pos="108" key="41" pan="0" len="12"/>
          <note vol="170" pos="120" key="41" pan="0" len="12"/>
          <note vol="170" pos="132" key="41" pan="0" len="12"/>
          <note vol="170" pos="144" key="41" pan="0" len="12"/>
          <note vol="170" pos="156" key="41" pan="0" len="12"/>
          <note vol="170" pos="168" key="41" pan="0" len="12"/>
          <note vol="170" pos="180" key="41" pan="0" len="12"/>
        </pattern>
        <pattern pos="18624" name="bass fender jazz (1,379kb)" muted="0" type="1" steps="16">
          <note vol="195" pos="0" key="43" pan="0" len="24"/>
          <note vol="195" pos="24" key="43" pan="0" len="12"/>
          <note vol="195" pos="36" key="43" pan="0" len="12"/>
          <note vol="195" pos="48" key="43" pan="0" len="12"/>
          <note vol="195" pos="60" key="43" pan="0" len="12"/>
          <note vol="195" pos="72" key="38" pan="0" len="48"/>
          <note vol="195" pos="120" key="41" pan="0" len="24"/>
          <note vol="195" pos="144" key="40" pan="0" len="24"/>
          <note vol="195" pos="168" key="38" pan="0" len="24"/>
        </pattern>
        <pattern pos="18816" name="bass fender jazz (1,379kb)" muted="0" type="1" steps="16">
          <note vol="170" pos="0" key="38" pan="0" len="24"/>
          <note vol="170" pos="24" key="38" pan="0" len="12"/>
          <note vol="170" pos="36" key="38" pan="0" len="12"/>
          <note vol="170" pos="48" key="38" pan="0" len="12"/>
          <note vol="170" pos="60" key="38" pan="0" len="12"/>
          <note vol="170" pos="72" key="38" pan="0" len="12"/>
          <note vol="170" pos="84" key="38" pan="0" len="12"/>
          <note vol="170" pos="96" key="38" pan="0" len="12"/>
          <note vol="170" pos="108" key="38" pan="0" len="12"/>
          <note vol="170" pos="120" key="38" pan="0" len="12"/>
          <note vol="170" pos="132" key="38" pan="0" len="12"/>
          <note vol="170" pos="144" key="38" pan="0" len="12"/>
          <note vol="170" pos="156" key="38" pan="0" len="12"/>
          <note vol="170" pos="168" key="38" pan="0" len="12"/>
          <note vol="170" pos="180" key="38" pan="0" len="12"/>
        </pattern>
        <pattern pos="19008" name="bass fender jazz (1,379kb)" muted="0" type="1" steps="16">
          <note vol="170" pos="0" key="36" pan="0" len="24"/>
          <note vol="170" pos="24" key="36" pan="0" len="12"/>
          <note vol="170" pos="36" key="36" pan="0" len="12"/>
          <note vol="170" pos="48" key="36" pan="0" len="12"/>
          <note vol="170" pos="60" key="36" pan="0" len="12"/>
          <note vol="170" pos="72" key="46" pan="0" len="48"/>
          <note vol="170" pos="120" key="46" pan="0" len="12"/>
          <note vol="170" pos="132" key="46" pan="0" len="12"/>
          <note vol="170" pos="144" key="46" pan="0" len="12"/>
          <note vol="170" pos="156" key="46" pan="0" len="12"/>
          <note vol="170" pos="168" key="46" pan="0" len="12"/>
          <note vol="170" pos="180" key="46" pan="0" len="12"/>
        </pattern>
        <pattern pos="19200" name="bass fender jazz (1,379kb)" muted="0" type="1" steps="16">
          <note vol="170" pos="0" key="41" pan="0" len="24"/>
          <note vol="170" pos="24" key="41" pan="0" len="12"/>
          <note vol="170" pos="36" key="41" pan="0" len="12"/>
          <note vol="170" pos="48" key="41" pan="0" len="12"/>
          <note vol="170" pos="60" key="41" pan="0" len="12"/>
          <note vol="170" pos="72" key="41" pan="0" len="12"/>
          <note vol="170" pos="84" key="41" pan="0" len="12"/>
          <note vol="170" pos="96" key="41" pan="0" len="12"/>
          <note vol="170" pos="108" key="41" pan="0" len="12"/>
          <note vol="170" pos="120" key="41" pan="0" len="12"/>
          <note vol="170" pos="132" key="41" pan="0" len="12"/>
          <note vol="170" pos="144" key="41" pan="0" len="12"/>
          <note vol="170" pos="156" key="41" pan="0" len="12"/>
          <note vol="170" pos="168" key="41" pan="0" len="12"/>
          <note vol="170" pos="180" key="41" pan="0" len="12"/>
        </pattern>
        <pattern pos="19392" name="bass fender jazz (1,379kb)" muted="0" type="1" steps="16">
          <note vol="195" pos="0" key="43" pan="0" len="24"/>
          <note vol="195" pos="24" key="43" pan="0" len="12"/>
          <note vol="195" pos="36" key="43" pan="0" len="12"/>
          <note vol="195" pos="48" key="43" pan="0" len="12"/>
          <note vol="195" pos="60" key="43" pan="0" len="12"/>
          <note vol="195" pos="72" key="38" pan="0" len="48"/>
          <note vol="195" pos="120" key="41" pan="0" len="24"/>
          <note vol="195" pos="144" key="40" pan="0" len="24"/>
          <note vol="195" pos="168" key="38" pan="0" len="24"/>
        </pattern>
        <pattern pos="19584" name="bass fender jazz (1,379kb)" muted="0" type="1" steps="16">
          <note vol="170" pos="0" key="38" pan="0" len="24"/>
          <note vol="170" pos="24" key="38" pan="0" len="12"/>
          <note vol="170" pos="36" key="38" pan="0" len="12"/>
          <note vol="170" pos="48" key="38" pan="0" len="12"/>
          <note vol="170" pos="60" key="38" pan="0" len="12"/>
          <note vol="170" pos="72" key="38" pan="0" len="12"/>
          <note vol="170" pos="84" key="38" pan="0" len="12"/>
          <note vol="170" pos="96" key="38" pan="0" len="12"/>
          <note vol="170" pos="108" key="38" pan="0" len="12"/>
          <note vol="170" pos="120" key="38" pan="0" len="12"/>
          <note vol="170" pos="132" key="38" pan="0" len="12"/>
          <note vol="170" pos="144" key="38" pan="0" len="12"/>
          <note vol="170" pos="156" key="38" pan="0" len="12"/>
          <note vol="170" pos="168" key="38" pan="0" len="12"/>
          <note vol="170" pos="180" key="38" pan="0" len="12"/>
        </pattern>
        <pattern pos="19776" name="bass fender jazz (1,379kb)" muted="0" type="1" steps="16">
          <note vol="170" pos="0" key="36" pan="0" len="24"/>
          <note vol="170" pos="24" key="36" pan="0" len="12"/>
          <note vol="170" pos="36" key="36" pan="0" len="12"/>
          <note vol="170" pos="48" key="36" pan="0" len="12"/>
          <note vol="170" pos="60" key="36" pan="0" len="12"/>
          <note vol="170" pos="72" key="46" pan="0" len="48"/>
          <note vol="170" pos="120" key="46" pan="0" len="12"/>
          <note vol="170" pos="132" key="46" pan="0" len="12"/>
          <note vol="170" pos="144" key="46" pan="0" len="12"/>
          <note vol="170" pos="156" key="46" pan="0" len="12"/>
          <note vol="170" pos="168" key="46" pan="0" len="12"/>
          <note vol="170" pos="180" key="46" pan="0" len="12"/>
        </pattern>
        <pattern pos="19968" name="bass fender jazz (1,379kb)" muted="0" type="1" steps="16">
          <note vol="170" pos="0" key="41" pan="0" len="24"/>
          <note vol="170" pos="24" key="41" pan="0" len="12"/>
          <note vol="170" pos="36" key="41" pan="0" len="12"/>
          <note vol="170" pos="48" key="41" pan="0" len="12"/>
          <note vol="170" pos="60" key="41" pan="0" len="12"/>
          <note vol="170" pos="72" key="41" pan="0" len="12"/>
          <note vol="170" pos="84" key="41" pan="0" len="12"/>
          <note vol="170" pos="96" key="41" pan="0" len="12"/>
          <note vol="170" pos="108" key="41" pan="0" len="12"/>
          <note vol="170" pos="120" key="41" pan="0" len="12"/>
          <note vol="170" pos="132" key="41" pan="0" len="12"/>
          <note vol="170" pos="144" key="41" pan="0" len="12"/>
          <note vol="170" pos="156" key="41" pan="0" len="12"/>
          <note vol="170" pos="168" key="41" pan="0" len="12"/>
          <note vol="170" pos="180" key="41" pan="0" len="12"/>
        </pattern>
        <pattern pos="20160" name="bass fender jazz (1,379kb)" muted="0" type="1" steps="16">
          <note vol="195" pos="0" key="43" pan="0" len="24"/>
          <note vol="195" pos="24" key="43" pan="0" len="12"/>
          <note vol="195" pos="36" key="43" pan="0" len="12"/>
          <note vol="195" pos="48" key="43" pan="0" len="12"/>
          <note vol="195" pos="60" key="43" pan="0" len="12"/>
          <note vol="195" pos="72" key="38" pan="0" len="48"/>
          <note vol="195" pos="120" key="41" pan="0" len="24"/>
          <note vol="195" pos="144" key="40" pan="0" len="24"/>
          <note vol="195" pos="168" key="38" pan="0" len="24"/>
        </pattern>
        <pattern pos="15744" name="bass fender jazz (1,379kb)" muted="0" type="1" steps="16">
          <note vol="176" pos="0" key="48" pan="0" len="24"/>
          <note vol="176" pos="48" key="48" pan="0" len="24"/>
          <note vol="176" pos="96" key="48" pan="0" len="24"/>
          <note vol="176" pos="144" key="48" pan="0" len="24"/>
          <note vol="176" pos="192" key="46" pan="0" len="24"/>
          <note vol="176" pos="240" key="46" pan="0" len="24"/>
          <note vol="176" pos="264" key="44" pan="0" len="24"/>
          <note vol="176" pos="312" key="44" pan="0" len="24"/>
          <note vol="176" pos="336" key="44" pan="0" len="24"/>
          <note vol="176" pos="360" key="44" pan="0" len="24"/>
          <note vol="176" pos="384" key="39" pan="0" len="24"/>
          <note vol="176" pos="432" key="39" pan="0" len="24"/>
          <note vol="176" pos="480" key="39" pan="0" len="24"/>
          <note vol="176" pos="528" key="39" pan="0" len="24"/>
          <note vol="176" pos="576" key="41" pan="0" len="24"/>
          <note vol="176" pos="624" key="43" pan="0" len="24"/>
          <note vol="176" pos="648" key="48" pan="0" len="48"/>
          <note vol="176" pos="696" key="51" pan="0" len="24"/>
          <note vol="176" pos="720" key="50" pan="0" len="24"/>
          <note vol="176" pos="744" key="48" pan="0" len="24"/>
        </pattern>
        <pattern pos="16512" name="bass fender jazz (1,379kb)" muted="0" type="1" steps="16">
          <note vol="176" pos="0" key="48" pan="0" len="24"/>
          <note vol="176" pos="48" key="48" pan="0" len="24"/>
          <note vol="176" pos="96" key="48" pan="0" len="24"/>
          <note vol="176" pos="144" key="48" pan="0" len="24"/>
          <note vol="176" pos="192" key="46" pan="0" len="24"/>
          <note vol="176" pos="240" key="46" pan="0" len="24"/>
          <note vol="176" pos="264" key="44" pan="0" len="24"/>
          <note vol="176" pos="312" key="44" pan="0" len="24"/>
          <note vol="176" pos="336" key="44" pan="0" len="24"/>
          <note vol="176" pos="360" key="44" pan="0" len="24"/>
          <note vol="176" pos="384" key="39" pan="0" len="24"/>
          <note vol="176" pos="432" key="39" pan="0" len="24"/>
          <note vol="176" pos="480" key="39" pan="0" len="24"/>
          <note vol="176" pos="528" key="39" pan="0" len="24"/>
          <note vol="176" pos="576" key="41" pan="0" len="24"/>
          <note vol="176" pos="624" key="43" pan="0" len="24"/>
          <note vol="176" pos="648" key="48" pan="0" len="48"/>
          <note vol="176" pos="696" key="51" pan="0" len="24"/>
          <note vol="176" pos="720" key="50" pan="0" len="24"/>
          <note vol="176" pos="744" key="48" pan="0" len="24"/>
        </pattern>
        <pattern pos="20736" name="bass fender jazz (1,379kb)" muted="0" type="1" steps="16">
          <note vol="197" pos="0" key="36" pan="0" len="192"/>
          <note vol="197" pos="192" key="39" pan="0" len="96"/>
          <note vol="197" pos="288" key="41" pan="0" len="96"/>
          <note vol="197" pos="384" key="48" pan="0" len="12"/>
          <note vol="197" pos="396" key="36" pan="0" len="12"/>
          <note vol="197" pos="408" key="36" pan="0" len="12"/>
          <note vol="197" pos="420" key="43" pan="0" len="12"/>
          <note vol="197" pos="432" key="36" pan="0" len="12"/>
          <note vol="197" pos="444" key="36" pan="0" len="12"/>
          <note vol="197" pos="456" key="46" pan="0" len="12"/>
          <note vol="197" pos="468" key="36" pan="0" len="12"/>
          <note vol="197" pos="480" key="36" pan="0" len="12"/>
          <note vol="197" pos="492" key="41" pan="0" len="12"/>
          <note vol="197" pos="504" key="36" pan="0" len="12"/>
          <note vol="197" pos="516" key="36" pan="0" len="12"/>
          <note vol="197" pos="528" key="39" pan="0" len="12"/>
          <note vol="197" pos="540" key="36" pan="0" len="12"/>
          <note vol="197" pos="552" key="36" pan="0" len="12"/>
          <note vol="197" pos="564" key="36" pan="0" len="12"/>
          <note vol="197" pos="576" key="48" pan="0" len="12"/>
          <note vol="197" pos="588" key="36" pan="0" len="12"/>
          <note vol="197" pos="600" key="36" pan="0" len="12"/>
          <note vol="197" pos="612" key="43" pan="0" len="12"/>
          <note vol="197" pos="624" key="36" pan="0" len="12"/>
          <note vol="197" pos="636" key="36" pan="0" len="12"/>
          <note vol="197" pos="648" key="46" pan="0" len="12"/>
          <note vol="197" pos="660" key="36" pan="0" len="12"/>
          <note vol="197" pos="672" key="36" pan="0" len="12"/>
          <note vol="197" pos="684" key="41" pan="0" len="12"/>
          <note vol="197" pos="696" key="36" pan="0" len="12"/>
          <note vol="197" pos="708" key="36" pan="0" len="12"/>
          <note vol="197" pos="720" key="48" pan="0" len="24"/>
          <note vol="197" pos="744" key="50" pan="0" len="24"/>
        </pattern>
        <pattern pos="21504" name="bass fender jazz (1,379kb)" muted="0" type="1" steps="16">
          <note vol="197" pos="0" key="41" pan="0" len="192"/>
          <note vol="197" pos="192" key="46" pan="0" len="192"/>
          <note vol="197" pos="384" key="48" pan="0" len="12"/>
          <note vol="197" pos="396" key="36" pan="0" len="12"/>
          <note vol="197" pos="408" key="36" pan="0" len="12"/>
          <note vol="197" pos="420" key="43" pan="0" len="12"/>
          <note vol="197" pos="432" key="36" pan="0" len="12"/>
          <note vol="197" pos="444" key="36" pan="0" len="12"/>
          <note vol="197" pos="456" key="46" pan="0" len="12"/>
          <note vol="197" pos="468" key="36" pan="0" len="12"/>
          <note vol="197" pos="480" key="36" pan="0" len="12"/>
          <note vol="197" pos="492" key="41" pan="0" len="12"/>
          <note vol="197" pos="504" key="36" pan="0" len="12"/>
          <note vol="197" pos="516" key="36" pan="0" len="12"/>
          <note vol="197" pos="528" key="39" pan="0" len="12"/>
          <note vol="197" pos="540" key="36" pan="0" len="12"/>
          <note vol="197" pos="552" key="36" pan="0" len="12"/>
          <note vol="197" pos="564" key="36" pan="0" len="12"/>
          <note vol="197" pos="576" key="48" pan="0" len="12"/>
          <note vol="197" pos="588" key="36" pan="0" len="12"/>
          <note vol="197" pos="600" key="36" pan="0" len="12"/>
          <note vol="197" pos="612" key="43" pan="0" len="12"/>
          <note vol="197" pos="624" key="36" pan="0" len="12"/>
          <note vol="197" pos="636" key="36" pan="0" len="12"/>
          <note vol="197" pos="648" key="46" pan="0" len="12"/>
          <note vol="197" pos="660" key="36" pan="0" len="12"/>
          <note vol="197" pos="672" key="36" pan="0" len="12"/>
          <note vol="197" pos="684" key="41" pan="0" len="12"/>
          <note vol="197" pos="696" key="36" pan="0" len="12"/>
          <note vol="197" pos="708" key="36" pan="0" len="12"/>
          <note vol="197" pos="720" key="48" pan="0" len="24"/>
          <note vol="197" pos="744" key="50" pan="0" len="24"/>
        </pattern>
        <pattern pos="22272" name="bass fender jazz (1,379kb)" muted="0" type="1" steps="16">
          <note vol="191" pos="0" key="36" pan="0" len="192"/>
          <note vol="191" pos="192" key="39" pan="0" len="96"/>
          <note vol="191" pos="288" key="41" pan="0" len="96"/>
          <note vol="191" pos="384" key="48" pan="0" len="12"/>
          <note vol="191" pos="396" key="36" pan="0" len="12"/>
          <note vol="191" pos="408" key="36" pan="0" len="12"/>
          <note vol="191" pos="420" key="43" pan="0" len="12"/>
          <note vol="191" pos="432" key="36" pan="0" len="12"/>
          <note vol="191" pos="444" key="36" pan="0" len="12"/>
          <note vol="191" pos="456" key="46" pan="0" len="12"/>
          <note vol="191" pos="468" key="36" pan="0" len="12"/>
          <note vol="191" pos="480" key="36" pan="0" len="12"/>
          <note vol="191" pos="492" key="41" pan="0" len="12"/>
          <note vol="191" pos="504" key="36" pan="0" len="12"/>
          <note vol="191" pos="516" key="36" pan="0" len="12"/>
          <note vol="191" pos="528" key="39" pan="0" len="12"/>
          <note vol="191" pos="540" key="36" pan="0" len="12"/>
          <note vol="191" pos="552" key="36" pan="0" len="12"/>
          <note vol="191" pos="564" key="36" pan="0" len="12"/>
          <note vol="191" pos="576" key="48" pan="0" len="12"/>
          <note vol="191" pos="588" key="36" pan="0" len="12"/>
          <note vol="191" pos="600" key="36" pan="0" len="12"/>
          <note vol="191" pos="612" key="43" pan="0" len="12"/>
          <note vol="191" pos="624" key="36" pan="0" len="12"/>
          <note vol="191" pos="636" key="36" pan="0" len="12"/>
          <note vol="191" pos="648" key="46" pan="0" len="12"/>
          <note vol="191" pos="660" key="36" pan="0" len="12"/>
          <note vol="191" pos="672" key="36" pan="0" len="12"/>
          <note vol="191" pos="684" key="41" pan="0" len="12"/>
          <note vol="191" pos="696" key="36" pan="0" len="12"/>
          <note vol="191" pos="708" key="36" pan="0" len="12"/>
          <note vol="191" pos="720" key="48" pan="0" len="24"/>
          <note vol="191" pos="744" key="50" pan="0" len="24"/>
        </pattern>
        <pattern pos="23040" name="bass fender jazz (1,379kb)" muted="0" type="1" steps="16">
          <note vol="197" pos="0" key="41" pan="0" len="192"/>
          <note vol="197" pos="192" key="46" pan="0" len="192"/>
          <note vol="197" pos="384" key="39" pan="0" len="12"/>
          <note vol="197" pos="396" key="39" pan="0" len="12"/>
          <note vol="197" pos="408" key="39" pan="0" len="12"/>
          <note vol="197" pos="420" key="39" pan="0" len="12"/>
          <note vol="197" pos="432" key="39" pan="0" len="12"/>
          <note vol="197" pos="444" key="39" pan="0" len="12"/>
          <note vol="197" pos="456" key="39" pan="0" len="12"/>
          <note vol="197" pos="468" key="39" pan="0" len="12"/>
          <note vol="197" pos="480" key="39" pan="0" len="12"/>
          <note vol="197" pos="492" key="39" pan="0" len="12"/>
          <note vol="197" pos="504" key="39" pan="0" len="12"/>
          <note vol="197" pos="516" key="39" pan="0" len="12"/>
          <note vol="197" pos="528" key="39" pan="0" len="12"/>
          <note vol="197" pos="540" key="39" pan="0" len="12"/>
          <note vol="197" pos="552" key="39" pan="0" len="12"/>
          <note vol="197" pos="564" key="39" pan="0" len="12"/>
          <note vol="197" pos="576" key="43" pan="0" len="12"/>
          <note vol="197" pos="588" key="43" pan="0" len="12"/>
          <note vol="197" pos="600" key="43" pan="0" len="12"/>
          <note vol="197" pos="612" key="43" pan="0" len="12"/>
          <note vol="197" pos="624" key="43" pan="0" len="12"/>
          <note vol="197" pos="636" key="43" pan="0" len="12"/>
          <note vol="197" pos="648" key="43" pan="0" len="12"/>
          <note vol="197" pos="660" key="43" pan="0" len="12"/>
          <note vol="197" pos="672" key="47" pan="0" len="12"/>
          <note vol="197" pos="684" key="47" pan="0" len="12"/>
          <note vol="197" pos="696" key="47" pan="0" len="12"/>
          <note vol="197" pos="708" key="47" pan="0" len="12"/>
          <note vol="197" pos="720" key="50" pan="0" len="12"/>
          <note vol="197" pos="732" key="48" pan="0" len="12"/>
          <note vol="197" pos="744" key="47" pan="0" len="12"/>
          <note vol="197" pos="756" key="43" pan="0" len="12"/>
        </pattern>
        <pattern pos="13824" name="bass fender jazz (1,379kb)" muted="0" type="1" steps="16">
          <note vol="197" pos="0" key="36" pan="0" len="12"/>
          <note vol="197" pos="12" key="38" pan="0" len="12"/>
          <note vol="197" pos="24" key="38" pan="0" len="12"/>
          <note vol="197" pos="36" key="38" pan="0" len="12"/>
          <note vol="197" pos="48" key="38" pan="0" len="12"/>
          <note vol="197" pos="60" key="38" pan="0" len="12"/>
          <note vol="197" pos="72" key="38" pan="0" len="12"/>
          <note vol="197" pos="84" key="38" pan="0" len="12"/>
          <note vol="197" pos="96" key="38" pan="0" len="12"/>
          <note vol="197" pos="108" key="38" pan="0" len="12"/>
          <note vol="197" pos="120" key="38" pan="0" len="12"/>
          <note vol="197" pos="132" key="38" pan="0" len="12"/>
          <note vol="197" pos="144" key="38" pan="0" len="12"/>
          <note vol="197" pos="156" key="38" pan="0" len="12"/>
          <note vol="197" pos="168" key="38" pan="0" len="12"/>
          <note vol="197" pos="180" key="38" pan="0" len="12"/>
          <note vol="197" pos="192" key="41" pan="0" len="12"/>
          <note vol="197" pos="204" key="43" pan="0" len="12"/>
          <note vol="197" pos="216" key="43" pan="0" len="12"/>
          <note vol="197" pos="228" key="43" pan="0" len="12"/>
          <note vol="197" pos="240" key="43" pan="0" len="12"/>
          <note vol="197" pos="252" key="43" pan="0" len="12"/>
          <note vol="197" pos="264" key="43" pan="0" len="12"/>
          <note vol="197" pos="276" key="43" pan="0" len="12"/>
          <note vol="197" pos="288" key="43" pan="0" len="12"/>
          <note vol="197" pos="300" key="43" pan="0" len="12"/>
          <note vol="197" pos="312" key="43" pan="0" len="12"/>
          <note vol="197" pos="324" key="43" pan="0" len="12"/>
          <note vol="197" pos="336" key="43" pan="0" len="12"/>
          <note vol="197" pos="348" key="43" pan="0" len="12"/>
          <note vol="197" pos="360" key="43" pan="0" len="12"/>
          <note vol="197" pos="372" key="43" pan="0" len="12"/>
        </pattern>
        <pattern pos="20352" name="bass fender jazz (1,379kb)" muted="0" type="1" steps="16">
          <note vol="170" pos="0" key="65" pan="0" len="12"/>
          <note vol="170" pos="12" key="62" pan="0" len="12"/>
          <note vol="170" pos="24" key="59" pan="0" len="12"/>
          <note vol="170" pos="36" key="62" pan="0" len="12"/>
          <note vol="163" pos="48" key="59" pan="0" len="12"/>
          <note vol="163" pos="60" key="56" pan="0" len="12"/>
          <note vol="163" pos="72" key="53" pan="0" len="12"/>
          <note vol="163" pos="84" key="56" pan="0" len="12"/>
          <note vol="157" pos="96" key="53" pan="0" len="12"/>
          <note vol="157" pos="108" key="50" pan="0" len="12"/>
          <note vol="157" pos="120" key="47" pan="0" len="12"/>
          <note vol="157" pos="132" key="50" pan="0" len="12"/>
          <note vol="151" pos="144" key="47" pan="0" len="12"/>
          <note vol="151" pos="156" key="44" pan="0" len="12"/>
          <note vol="151" pos="168" key="41" pan="0" len="12"/>
          <note vol="151" pos="180" key="44" pan="0" len="12"/>
          <note vol="151" pos="192" key="43" pan="0" len="12"/>
          <note vol="151" pos="204" key="45" pan="0" len="12"/>
          <note vol="157" pos="216" key="47" pan="0" len="12"/>
          <note vol="157" pos="228" key="50" pan="0" len="12"/>
          <note vol="163" pos="240" key="47" pan="0" len="12"/>
          <note vol="163" pos="252" key="50" pan="0" len="12"/>
          <note vol="163" pos="264" key="53" pan="0" len="12"/>
          <note vol="170" pos="276" key="56" pan="0" len="12"/>
          <note vol="176" pos="288" key="43" pan="0" len="36"/>
        </pattern>
        <pattern pos="29952" name="bass fender jazz (1,379kb)" muted="0" type="1" steps="16">
          <note vol="157" pos="0" key="52" pan="0" len="72"/>
          <note vol="144" pos="72" key="40" pan="0" len="12"/>
          <note vol="144" pos="84" key="40" pan="0" len="12"/>
          <note vol="144" pos="96" key="42" pan="0" len="24"/>
          <note vol="144" pos="120" key="43" pan="0" len="24"/>
          <note vol="144" pos="144" key="48" pan="0" len="72"/>
          <note vol="144" pos="216" key="40" pan="0" len="24"/>
          <note vol="144" pos="240" key="47" pan="0" len="24"/>
          <note vol="144" pos="264" key="40" pan="0" len="24"/>
          <note vol="144" pos="288" key="40" pan="0" len="24"/>
          <note vol="144" pos="312" key="38" pan="0" len="24"/>
          <note vol="144" pos="336" key="40" pan="0" len="24"/>
          <note vol="151" pos="360" key="42" pan="0" len="24"/>
          <note vol="157" pos="384" key="43" pan="0" len="24"/>
          <note vol="151" pos="408" key="42" pan="0" len="24"/>
          <note vol="144" pos="432" key="40" pan="0" len="24"/>
          <note vol="144" pos="456" key="45" pan="0" len="24"/>
          <note vol="144" pos="480" key="43" pan="0" len="24"/>
          <note vol="144" pos="504" key="42" pan="0" len="24"/>
          <note vol="138" pos="528" key="38" pan="0" len="48"/>
          <note vol="151" pos="600" key="38" pan="0" len="23"/>
          <note vol="151" pos="624" key="47" pan="0" len="23"/>
          <note vol="151" pos="648" key="38" pan="0" len="23"/>
          <note vol="151" pos="672" key="38" pan="0" len="23"/>
          <note vol="157" pos="696" key="38" pan="0" len="23"/>
          <note vol="151" pos="720" key="50" pan="0" len="12"/>
          <note vol="151" pos="732" key="52" pan="0" len="11"/>
          <note vol="154" pos="744" key="50" pan="0" len="23"/>
          <note vol="157" pos="768" key="43" pan="0" len="24"/>
          <note vol="132" pos="792" key="40" pan="0" len="24"/>
          <note vol="144" pos="816" key="40" pan="0" len="24"/>
          <note vol="151" pos="840" key="42" pan="0" len="24"/>
          <note vol="151" pos="864" key="40" pan="0" len="24"/>
          <note vol="151" pos="888" key="40" pan="0" len="24"/>
          <note vol="163" pos="912" key="43" pan="0" len="24"/>
          <note vol="151" pos="936" key="40" pan="0" len="24"/>
          <note vol="151" pos="960" key="40" pan="0" len="24"/>
          <note vol="163" pos="984" key="47" pan="0" len="24"/>
          <note vol="151" pos="1008" key="40" pan="0" len="24"/>
          <note vol="151" pos="1032" key="43" pan="0" len="24"/>
          <note vol="163" pos="1056" key="52" pan="0" len="24"/>
          <note vol="157" pos="1080" key="40" pan="0" len="24"/>
          <note vol="151" pos="1104" key="52" pan="0" len="24"/>
          <note vol="163" pos="1128" key="54" pan="0" len="24"/>
          <note vol="168" pos="1152" key="55" pan="0" len="24"/>
          <note vol="151" pos="1176" key="47" pan="0" len="24"/>
          <note vol="157" pos="1200" key="52" pan="0" len="24"/>
          <note vol="157" pos="1224" key="36" pan="0" len="48"/>
          <note vol="157" pos="1272" key="36" pan="0" len="48"/>
          <note vol="151" pos="1320" key="38" pan="0" len="48"/>
          <note vol="151" pos="1368" key="45" pan="0" len="24"/>
          <note vol="151" pos="1392" key="52" pan="0" len="24"/>
          <note vol="151" pos="1416" key="54" pan="0" len="24"/>
          <note vol="151" pos="1440" key="38" pan="0" len="72"/>
          <note vol="144" pos="1512" key="38" pan="0" len="84"/>
          <note vol="144" pos="1596" key="40" pan="0" len="382"/>
        </pattern>
        <pattern pos="23808" name="bass fender jazz (1,379kb)" muted="0" type="0" steps="16"/>
      </track>
      <track solo="0" name="rgt bounced" muted="0" type="2">
        <sampletrack vol="109.4" pan="0">
          <fxchain numofeffects="3" enabled="1">
            <effect on="1" gate="0" wet="1" autoquit_denominator="4" name="amplifier" autoquit_numerator="4" autoquit="1" autoquit_syncmode="0">
              <AmplifierControls left="100" volume="200" right="100" pan="0"/>
              <key/>
            </effect>
            <effect on="1" gate="0" wet="1" autoquit_denominator="4" name="eq" autoquit_numerator="4" autoquit="1" autoquit_syncmode="0">
              <Eq HPres="0.707" HP48="0" Peak2active="1" Peak3active="1" Peak3gain="-9.531" LowShelfres="1.4" Peak4active="1" Outputgain="0" Lowshelfgain="0" Peak4bw="0.3" HighShelfres="1.4" Peak2gain="0" AnalyseIn="1" Highshelfactive="0" LPactive="1" Lowshelfactive="0" Peak4gain="0.36" HighShelfgain="0" LPres="0.707" HP12="1" LP24="0" HP24="0" Peak1active="0" Peak3bw="1.34" LP="0" LP12="1" HPactive="1" HP="0" LP48="0" Peak2bw="0.3" Peak1bw="0.3" AnalyseOut="1">
                <Inputgain scale_type="log" value="0" id="4802436"/>
                <Peak1gain scale_type="log" value="0" id="4884808"/>
                <HPfreq scale_type="log" value="107.5" id="6646574"/>
                <LowShelffreq scale_type="log" value="80" id="6540950"/>
                <Peak1freq scale_type="log" value="120" id="4871146"/>
                <Peak2freq scale_type="log" value="265.832" id="7996455"/>
                <Peak3freq scale_type="log" value="808.531" id="3249036"/>
                <Peak4freq scale_type="log" value="2897.74" id="7974799"/>
                <Highshelffreq scale_type="log" value="12000" id="3166967"/>
                <LPfreq scale_type="log" value="4662.35" id="4855004"/>
              </Eq>
              <key/>
            </effect>
            <effect on="1" gate="0" wet="1" autoquit_denominator="4" name="amplifier" autoquit_numerator="4" autoquit="1" autoquit_syncmode="0">
              <AmplifierControls left="100" right="100" pan="0">
                <volume scale_type="linear" value="0" id="2097730"/>
              </AmplifierControls>
              <key/>
            </effect>
          </fxchain>
        </sampletrack>
        <sampletco pos="0" src="/home/pass/my_scripts/learningGuitar/speed of light/rgt_bounced.wav" muted="0" sample_rate="44100" len="32064"/>
      </track>
      <track solo="0" name="rgt % vol" muted="0" type="5">
        <automationtrack/>
        <automationpattern pos="4992" name="Amplifier>>Volume" prog="1" tens="1" mute="0" len="1728">
          <time pos="0" value="100"/>
          <time pos="384" value="0"/>
          <time pos="1152" value="0"/>
          <time pos="1344" value="100"/>
          <object id="2097730"/>
        </automationpattern>
        <automationpattern pos="23808" name="Amplifier>>Volume" prog="1" tens="1" mute="0" len="1728">
          <time pos="0" value="100"/>
          <time pos="384" value="0"/>
          <time pos="1152" value="0"/>
          <time pos="1344" value="100"/>
          <object id="2097730"/>
        </automationpattern>
        <automationpattern pos="31872" name="Amplifier>>Volume" prog="1" tens="1" mute="0" len="192">
          <time pos="0" value="100"/>
          <time pos="48" value="0"/>
          <object id="2097730"/>
        </automationpattern>
        <automationpattern pos="0" name="Amplifier>>Volume" prog="1" tens="1" mute="0" len="1728">
          <time pos="0" value="100"/>
          <object id="2097730"/>
        </automationpattern>
      </track>
      <track solo="0" name="lgt bounced" muted="0" type="2">
        <sampletrack vol="130.3" pan="0">
          <fxchain numofeffects="4" enabled="1">
            <effect on="1" gate="0" wet="1" autoquit_denominator="4" name="ladspaeffect" autoquit_numerator="4" autoquit="1" autoquit_syncmode="0">
              <ladspacontrols ports="1">
                <port02 data="0.26375"/>
              </ladspacontrols>
              <key>
                <attribute value="caps" name="file"/>
                <attribute value="Narrower" name="plugin"/>
              </key>
            </effect>
            <effect on="1" gate="0" wet="1" autoquit_denominator="4" name="amplifier" autoquit_numerator="4" autoquit="1" autoquit_syncmode="0">
              <AmplifierControls left="100" right="100" pan="0">
                <volume scale_type="linear" value="100.2" id="5748779"/>
              </AmplifierControls>
              <key/>
            </effect>
            <effect on="1" gate="0" wet="1" autoquit_denominator="4" name="eq" autoquit_numerator="4" autoquit="1" autoquit_syncmode="0">
              <Eq HPres="0.707" HP48="0" Peak2active="0" Peak3active="0" Peak3gain="0" LowShelfres="1.4" Peak4active="0" Outputgain="0" Lowshelfgain="0" Peak4bw="0.3" HighShelfres="1.4" Peak2gain="0" AnalyseIn="1" Highshelfactive="0" LPactive="1" Lowshelfactive="0" Peak4gain="0" HighShelfgain="0" LPres="0.707" HP12="1" LP24="0" HP24="0" Peak1active="0" Peak3bw="0.3" LP="0" LP12="1" HPactive="1" HP="0" LP48="0" Peak2bw="0.3" Peak1bw="0.3" AnalyseOut="1">
                <Inputgain scale_type="log" value="0" id="2497219"/>
                <Peak1gain scale_type="log" value="0" id="6677339"/>
                <HPfreq scale_type="log" value="137.413" id="298654"/>
                <LowShelffreq scale_type="log" value="80" id="3667517"/>
                <Peak1freq scale_type="log" value="120" id="4558328"/>
                <Peak2freq scale_type="log" value="250" id="8147808"/>
                <Peak3freq scale_type="log" value="2000" id="5543360"/>
                <Peak4freq scale_type="log" value="4000" id="4913627"/>
                <Highshelffreq scale_type="log" value="12000" id="6495749"/>
                <LPfreq scale_type="log" value="5271.56" id="8366031"/>
              </Eq>
              <key/>
            </effect>
            <effect on="1" gate="0" wet="1" autoquit_denominator="4" name="ladspaeffect" autoquit_numerator="4" autoquit="1" autoquit_syncmode="0">
              <ladspacontrols ports="20" link="0">
                <port00 data="1" link="0"/>
                <port01 data="0" link="0"/>
                <port02 data="0.485" link="0"/>
                <port03 data="-12.0375" link="1"/>
                <port04 data="0.475" link="0"/>
                <port05 data="-90" link="0"/>
                <port06 data="2" link="0"/>
                <port07 data="-90" link="0"/>
                <port08 data="3" link="0"/>
                <port09 data="-90" link="0"/>
                <port10 data="1"/>
                <port11 data="0"/>
                <port12 data="0.875"/>
                <port13 data="-12.0375"/>
                <port14 data="0.475"/>
                <port15 data="-90"/>
                <port16 data="2"/>
                <port17 data="-90"/>
                <port18 data="3"/>
                <port19 data="-90"/>
              </ladspacontrols>
              <key>
                <attribute value="tape_delay_1211" name="file"/>
                <attribute value="tapeDelay" name="plugin"/>
              </key>
            </effect>
          </fxchain>
        </sampletrack>
        <sampletco pos="0" src="/home/pass/my_scripts/learningGuitar/speed of light/lgt_bounced.wav" muted="0" sample_rate="44100" len="32064"/>
      </track>
      <track solo="0" name="lgt % vol" muted="0" type="5">
        <automationtrack/>
        <automationpattern pos="4992" name="Amplifier>>Volume" prog="1" tens="1" mute="0" len="1728">
          <time pos="0" value="100.2"/>
          <time pos="288" value="71.8"/>
          <time pos="576" value="0"/>
          <time pos="1152" value="0"/>
          <time pos="1344" value="100.2"/>
          <object id="5748779"/>
        </automationpattern>
        <automationpattern pos="23808" name="Amplifier>>Volume" prog="1" tens="1" mute="0" len="1728">
          <time pos="0" value="100.2"/>
          <time pos="288" value="71.8"/>
          <time pos="576" value="0"/>
          <time pos="1152" value="0"/>
          <time pos="1344" value="100.2"/>
          <object id="5748779"/>
        </automationpattern>
        <automationpattern pos="0" name="Amplifier>>Volume" prog="1" tens="1" mute="0" len="1728">
          <time pos="0" value="100.2"/>
          <time pos="1344" value="100.2"/>
          <object id="5748779"/>
        </automationpattern>
        <automationpattern pos="15744" name="Amplifier>>Volume" prog="0" tens="1" mute="0" len="1728">
          <time pos="0" value="78.7"/>
          <time pos="1536" value="100.2"/>
          <object id="5748779"/>
          <object id="5748779"/>
        </automationpattern>
      </track>
      <track solo="0" name="noise" muted="0" type="0">
        <instrumenttrack vol="26.4" pitchrange="1" fxch="0" pitch="0" pan="0" usemasterpitch="1" basenote="57">
          <instrument name="tripleoscillator">
            <tripleoscillator pan0="-100" vol1="33" wavetype0="6" coarse0="0" modalgo2="2" modalgo3="2" vol2="0" stphdetun1="0" wavetype1="6" pan1="100" phoffset2="0" userwavefile1="" finer0="0" phoffset1="0" finel2="0" finer2="0" finel1="6" stphdetun2="0" userwavefile2="" pan2="0" coarse2="-24" coarse1="-12" phoffset0="0" vol0="33" modalgo1="2" finel0="0" stphdetun0="0" wavetype2="0" userwavefile0="" finer1="0"/>
          </instrument>
          <eldata ftype="12" fres="6.96" fwet="1">
            <fcut scale_type="linear" value="6906" id="6229300"/>
            <elvol lpdel="0" dec="0.5" lamt="0" rel="0.1" userwavefile="" lspd="0.1" x100="0" latt="0" hold="0.5" lshp="0" sustain="0.5" lspd_numerator="4" att="0" lspd_syncmode="0" amt="0" ctlenvamt="0" lspd_denominator="4" pdel="0"/>
            <elcut lpdel="0" dec="0.5" lamt="0" rel="0.1" userwavefile="" lspd="0.1" x100="0" latt="0" hold="0.5" lshp="0" sustain="0.5" lspd_numerator="4" att="0" lspd_syncmode="0" amt="0" ctlenvamt="0" lspd_denominator="4" pdel="0"/>
            <elres lpdel="0" dec="0.5" lamt="0" rel="0.1" userwavefile="" lspd="0.1" x100="0" latt="0" hold="0.5" lshp="0" sustain="0.5" lspd_numerator="4" att="0" lspd_syncmode="0" amt="0" ctlenvamt="0" lspd_denominator="4" pdel="0"/>
          </eldata>
          <chordcreator chordrange="1" chord-enabled="0" chord="0"/>
          <arpeggiator arp-enabled="0" arptime_denominator="4" arpgate="100" arpskip="0" arptime="200" arpmode="0" arpmiss="0" arptime_numerator="4" arptime_syncmode="0" arprange="1" arp="0" arpdir="0" arpcycle="0"/>
          <midiport outputcontroller="0" readable="0" basevelocity="63" writable="0" outputprogram="1" fixedoutputvelocity="-1" fixedoutputnote="-1" outputchannel="1" inputchannel="0" inputcontroller="0" fixedinputvelocity="-1"/>
          <fxchain numofeffects="2" enabled="1">
            <effect on="1" gate="0" wet="1" autoquit_denominator="4" name="amplifier" autoquit_numerator="4" autoquit="1" autoquit_syncmode="0">
              <AmplifierControls left="100" right="100" pan="0">
                <volume scale_type="linear" value="98.7" id="6099615"/>
              </AmplifierControls>
              <key/>
            </effect>
            <effect on="1" gate="0" wet="1" autoquit_denominator="4" name="eq" autoquit_numerator="4" autoquit="1" autoquit_syncmode="0">
              <Eq HPres="0.707" HP48="0" Peak2active="0" Peak3active="0" Peak3gain="0" LowShelfres="1.4" Peak4active="0" Outputgain="0" Lowshelfgain="0" Peak4bw="0.3" HighShelfres="1.4" Peak2gain="0" AnalyseIn="1" Highshelfactive="0" LPactive="1" Lowshelfactive="0" Peak4gain="0" HighShelfgain="0" LPres="0.707" HP12="1" LP24="0" HP24="0" Peak1active="0" Peak3bw="0.3" LP="0" LP12="1" HPactive="0" HP="0" LP48="0" Peak2bw="0.3" Peak1bw="0.3" AnalyseOut="1">
                <Inputgain scale_type="log" value="0" id="2401929"/>
                <Peak1gain scale_type="log" value="0" id="1195257"/>
                <HPfreq scale_type="log" value="31" id="3578893"/>
                <LowShelffreq scale_type="log" value="80" id="5840411"/>
                <Peak1freq scale_type="log" value="120" id="6547130"/>
                <Peak2freq scale_type="log" value="250" id="1290268"/>
                <Peak3freq scale_type="log" value="2000" id="1436704"/>
                <Peak4freq scale_type="log" value="4000" id="7301055"/>
                <Highshelffreq scale_type="log" value="12000" id="898515"/>
                <LPfreq scale_type="log" value="3176.43" id="5431997"/>
              </Eq>
              <key/>
            </effect>
          </fxchain>
        </instrumenttrack>
        <pattern pos="5568" name="noise" muted="0" type="1" steps="16">
          <note vol="100" pos="0" key="65" pan="0" len="960"/>
        </pattern>
        <pattern pos="24384" name="" muted="0" type="1" steps="16">
          <note vol="100" pos="0" key="65" pan="0" len="960"/>
        </pattern>
        <pattern pos="14784" name="" muted="0" type="1" steps="16">
          <note vol="100" pos="0" key="65" pan="0" len="960"/>
        </pattern>
      </track>
      <track solo="0" name="noise % vol" muted="0" type="5">
        <automationtrack/>
        <automationpattern pos="5568" name="Amplifier>>Volume" prog="2" tens="1" mute="0" len="960">
          <time pos="0" value="0"/>
          <time pos="648" value="39.9"/>
          <time pos="960" value="98.7"/>
          <object id="6099615"/>
        </automationpattern>
        <automationpattern pos="24384" name="Amplifier>>Volume" prog="2" tens="1" mute="0" len="960">
          <time pos="0" value="0"/>
          <time pos="648" value="39.9"/>
          <time pos="960" value="98.7"/>
          <object id="6099615"/>
        </automationpattern>
        <automationpattern pos="14784" name="Amplifier>>Volume" prog="2" tens="1" mute="0" len="960">
          <time pos="0" value="0"/>
          <time pos="648" value="0"/>
          <time pos="960" value="98.7"/>
          <object id="6099615"/>
        </automationpattern>
      </track>
      <track solo="0" name="noise filter frequency" muted="0" type="5">
        <automationtrack/>
        <automationpattern pos="5568" name="noise>Envelopes/LFOs>Cutoff frequency" prog="2" tens="1" mute="0" len="960">
          <time pos="0" value="94.8201"/>
          <time pos="768" value="2473"/>
          <time pos="960" value="6906"/>
          <object id="6229300"/>
        </automationpattern>
        <automationpattern pos="24384" name="noise>Envelopes/LFOs>Cutoff frequency" prog="2" tens="1" mute="0" len="960">
          <time pos="0" value="94.8201"/>
          <time pos="768" value="2473"/>
          <time pos="960" value="6906"/>
          <object id="6229300"/>
        </automationpattern>
        <automationpattern pos="14784" name="noise>Envelopes/LFOs>Cutoff frequency" prog="2" tens="1" mute="0" len="960">
          <time pos="0" value="94.8201"/>
          <time pos="696" value="4.2"/>
          <time pos="864" value="1909"/>
          <time pos="960" value="4112"/>
          <object id="6229300"/>
        </automationpattern>
      </track>
    </trackcontainer>
    <track solo="0" name="Automation track" muted="0" type="6">
      <automationtrack/>
      <automationpattern pos="0" name="Numerator" prog="0" tens="1" mute="0" len="192"/>
      <automationpattern pos="0" name="Denominator" prog="0" tens="1" mute="0" len="192"/>
      <automationpattern pos="0" name="Tempo" prog="0" tens="1" mute="0" len="192"/>
      <automationpattern pos="0" name="Master volume" prog="0" tens="1" mute="0" len="192"/>
      <automationpattern pos="0" name="Master pitch" prog="0" tens="1" mute="0" len="192"/>
      <automationpattern pos="0" name="Numerator" prog="0" tens="1" mute="0" len="0">
        <time pos="0" value="4"/>
        <object id="1408314"/>
      </automationpattern>
      <automationpattern pos="0" name="Denominator" prog="0" tens="1" mute="0" len="0">
        <time pos="0" value="4"/>
        <object id="2653613"/>
      </automationpattern>
    </track>
    <fxmixer maximized="0" width="1260" height="333" y="167" minimized="0" x="1" visible="0">
      <fxchannel muted="0" name="Master" volume="0.326" num="0" soloed="0">
        <fxchain numofeffects="2" enabled="1">
          <effect on="1" gate="0" wet="1" autoquit_denominator="4" name="eq" autoquit_numerator="4" autoquit="1" autoquit_syncmode="0">
            <Eq HPres="0.707" HP48="0" Peak2active="0" Peak3active="0" Peak3gain="0" LowShelfres="1.4" Peak4active="0" Outputgain="0" Lowshelfgain="-3.42" Peak4bw="0.3" HighShelfres="1.4" Peak2gain="0" AnalyseIn="1" Highshelfactive="1" LPactive="0" Lowshelfactive="0" Peak4gain="0" HighShelfgain="1.26" LPres="0.707" HP12="1" LP24="0" HP24="0" Peak1active="0" Peak3bw="0.3" LP="0" LP12="1" HPactive="0" HP="0" LP48="0" Peak2bw="0.3" Peak1bw="0.3" AnalyseOut="1">
              <Inputgain scale_type="log" value="0" id="3067200"/>
              <Peak1gain scale_type="log" value="0" id="5196034"/>
              <HPfreq scale_type="log" value="27.4175" id="3824946"/>
              <LowShelffreq scale_type="log" value="200.951" id="4700973"/>
              <Peak1freq scale_type="log" value="120" id="4843972"/>
              <Peak2freq scale_type="log" value="250" id="1152190"/>
              <Peak3freq scale_type="log" value="2000" id="3878733"/>
              <Peak4freq scale_type="log" value="4000" id="3573514"/>
              <Highshelffreq scale_type="log" value="1465.03" id="5946623"/>
              <LPfreq scale_type="log" value="18000" id="5425664"/>
            </Eq>
            <key/>
          </effect>
          <effect on="0" gate="0" wet="1" autoquit_denominator="4" name="vsteffect" autoquit_numerator="4" autoquit="1" autoquit_syncmode="0">
            <vsteffectcontrols program="0" guivisible="0" plugin="VST32/_EFFECTS/VoS_PlugIns_Complete/VoS_PlugIns_Complete/DensitymkIII_3.0/DensitymkIII.dll" chunk="AACAPz0K9z4AAAAAmZnJPgAAgD89Cvc+AAAAAJmZyT4AAAA/AAAAPwAAgD8AAAA/AACAPwAAAD8AAIA/AACAPwAAgD9kZWZhdWx0AG1ldGVycz4AYQAAAEZSRUVIAUkAOAFJAAAAgD8AAAAAAAAAAAAAAAAAAIA/AAAAAAAAAAAAAAAAAAAAPwAAAD8AAIA/AAAAAAAAgD8AAAA/AACAPwAAgD8AAIA/cGlubmluZyBkb3duAHM+AGEAAABGUkVFSAFJADgBSQAAAIA/AAAAAM3MTD8AAAAAAACAPwAAAADNzEw/AAAAAAAAAAAAAIA/AACAPwAAgD8AAIA/AAAAPwAAgD8AAIA/AAAAAGJpZyBwaWN0dXJlAABzPgBhAAAARlJFRUgBSQA4AUkAAACAPwAAAADNzEw/AAAAAAAAgD8AAAAAzcxMPwAAAAAAAAA/AAAAPwAAgD8AAAAAAACAPwAAAD8AAIA/AACAPwAAAAB2b2NhbHMgZmFzdAAAcz4AYQAAAEZSRUVIAUkAOAFJAAAAgD8AAAAAAACAPwAAAAAAAIA/AAAAAAAAgD8AAAAAAAAAPwAAAD8AAIA/AAAAPwAAgD8AAAA/AACAPwAAgD8AAAAAdm9jYWxzIHNsb3cAAHM+AGEAAABGUkVFSAFJADgBSQAAAIA/AAAAAM3MzD4AAAAAAACAPwAAAADNzMw+AAAAAAAAgD8AAIA/AACAPwAAgD8AAIA/AAAAPwAAAAAAAIA/AACAP3N1bW1pbmcAbG93AABzPgBhAAAARlJFRUgBSQA4AUkAAACAPwAAAADNzEw/AAAAAAAAgD8AAAAAzcxMPwAAAAAAAIA/AAAAPwAAgD8AAIA/AACAPwAAAD8AAIA/AACAPwAAAABnbHVlaW5nAGxvdwAAcz4AYQAAAEZSRUVIAUkAOAFJAAAAgD8AAAAAzcxMPwAAAAAAAIA/AAAAAM3MTD8AAAAAAAAAAAAAgD8AAIA/AAAAPwAAgD8AAIA/AACAPwAAgD8AAAAAbGFyZ2VyIHRoYW4gbGlmZQAAAABGUkVFSAFJADgBSQAAAIA/AAAAAAAAAAAAAAAAAACAPwAAAAAAAAAAAAAAAAAAAD8AAAA/AAAAPwAAgD8AAIA/AAAAPwAAAAAAAIA/AAAAAHNjaG5pdHplbCBOWSBzdHlsZQAARlJFRUgBSQA4AUkAAACAPwAAAADNzEw/AAAAAAAAgD8AAAAAzcxMPwAAAAAAAAA/AAAAPwAAgD8AAAAAAACAPwAAAD8AAAAAAACAPwAAAABzY2huaXR6ZWwgV2llbgB5bGUAAEZSRUVIAUkAOAFJAAAAgD8AAAAAAAAAAAAAAAAAAIA/AAAAAAAAAAAAAAAAAAAAPwAAAD8AAAAAAAAAPwAAgD8AAAA/AAAAAAAAgD8AAAAAc2lnbmFsIHBhdGggb25seQBlAABGUkVFSAFJADgBSQAAAAAAAAAAAAAAAAAehSs+AAAAAAAAAAAAAAAAHoUrPgAAAD8AAAA/AACAPwAAAAAAAIA/AAAAPwAAAAAAAIA/AAAAAG5vbi1saW4gYW1wAG9ubHkAZQAARlJFRUgBSQA4AUkAAACAPwAAAAAAAIA/AAAAAAAAgD8AAAAAzcxMPwAAAAAAAAAAAAAAPwAAgD8AAAA/AACAPwAAgD8AAIA/AACAPwAAAABNL1MgMmJ1cwBtcABvbmx5AGUAAEZSRUVIAUkAOAFJAAAAgD8AAAAAzcxMPgAAAAAAAIA/AAAAAAAAAAAAAAAAAAAAAPYoLD8AAIA/uB49PwAAgD8AAIA/AAAAAAAAgD8AAAAATS9TIGRydW1zAHAAb25seQBlAABGUkVFSAFJADgBSQAAAIA/CtcjO83MzD4AAAAAAACAPwrXIzvNzMw+AAAAAAAAAD8AAAA/AACAPwAAAD8AAIA/AAAAPwAAgD8AAIA/AACAP0EAUyBkcnVtcwBwAG9ubHkAZQAARlJFRUgBSQA4AUkAAACAPwAAAADNzMw+AAAAAAAAgD8AAAAAzczMPgAAAAAAAAA/KVz/PgAAgD8AAAA/AACAPwAAAD8AAIA/AACAPwAAgD9CAFMgZHJ1bXMAcABvbmx5AGUAAEZSRUVIAUkAOAFJAA=="/>
            <key>
              <attribute value="VST32/_EFFECTS/VoS_PlugIns_Complete/VoS_PlugIns_Complete/DensitymkIII_3.0/DensitymkIII.dll" name="file"/>
            </key>
          </effect>
        </fxchain>
      </fxchannel>
      <fxchannel muted="0" name="kick" volume="0.698" num="1" soloed="0">
        <fxchain numofeffects="0" enabled="0"/>
        <send channel="0" amount="1"/>
        <send channel="10" amount="0.512"/>
      </fxchannel>
      <fxchannel muted="0" name="hat" volume="0.28" num="2" soloed="0">
        <fxchain numofeffects="0" enabled="0"/>
        <send channel="0" amount="1"/>
        <send channel="10" amount="0.412"/>
      </fxchannel>
      <fxchannel muted="0" name="snare" volume="0.86" num="3" soloed="0">
        <fxchain numofeffects="1" enabled="1">
          <effect on="1" gate="0" wet="1" autoquit_denominator="4" name="eq" autoquit_numerator="4" autoquit="1" autoquit_syncmode="0">
            <Eq HPres="0.707" HP48="0" Peak2active="0" Peak3active="0" Peak3gain="0" LowShelfres="1.4" Peak4active="1" Outputgain="0" Lowshelfgain="0" Peak4bw="0.3" HighShelfres="1.435" Peak2gain="0" AnalyseIn="1" Highshelfactive="1" LPactive="1" Lowshelfactive="0" Peak4gain="-0.718001" HighShelfgain="5.04" LPres="0.707" HP12="1" LP24="0" HP24="0" Peak1active="0" Peak3bw="0.3" LP="0" LP12="1" HPactive="0" HP="0" LP48="0" Peak2bw="0.3" Peak1bw="0.3" AnalyseOut="1">
              <Inputgain scale_type="log" value="0" id="6753652"/>
              <Peak1gain scale_type="log" value="0" id="8257704"/>
              <HPfreq scale_type="log" value="31" id="2234845"/>
              <LowShelffreq scale_type="log" value="80" id="5016811"/>
              <Peak1freq scale_type="log" value="120" id="5537746"/>
              <Peak2freq scale_type="log" value="250" id="6539813"/>
              <Peak3freq scale_type="log" value="2000" id="6999518"/>
              <Peak4freq scale_type="log" value="4000" id="770028"/>
              <Highshelffreq scale_type="log" value="2497.52" id="3686018"/>
              <LPfreq scale_type="log" value="13865.6" id="7588449"/>
            </Eq>
            <key/>
          </effect>
        </fxchain>
        <send channel="0" amount="1"/>
        <send channel="10" amount="0.784"/>
      </fxchannel>
      <fxchannel muted="0" name="crash1" volume="0.814" num="4" soloed="0">
        <fxchain numofeffects="0" enabled="0"/>
        <send channel="0" amount="1"/>
        <send channel="10" amount="0.724"/>
      </fxchannel>
      <fxchannel muted="0" name="crash2" volume="0.814" num="5" soloed="0">
        <fxchain numofeffects="0" enabled="0"/>
        <send channel="0" amount="1"/>
        <send channel="10" amount="0.76"/>
      </fxchannel>
      <fxchannel muted="0" name="china" volume="1" num="6" soloed="0">
        <fxchain numofeffects="0" enabled="0"/>
        <send channel="0" amount="1"/>
        <send channel="10" amount="1"/>
      </fxchannel>
      <fxchannel muted="0" name="hitom" volume="0.977" num="7" soloed="0">
        <fxchain numofeffects="0" enabled="0"/>
        <send channel="0" amount="1"/>
        <send channel="10" amount="0.42"/>
      </fxchannel>
      <fxchannel muted="0" name="midtom" volume="0.836" num="8" soloed="0">
        <fxchain numofeffects="0" enabled="0"/>
        <send channel="0" amount="1"/>
        <send channel="10" amount="0.412"/>
      </fxchannel>
      <fxchannel muted="0" name="lotom" volume="0.837" num="9" soloed="0">
        <fxchain numofeffects="0" enabled="0"/>
        <send channel="0" amount="1"/>
        <send channel="10" amount="0.432"/>
      </fxchannel>
      <fxchannel muted="0" name="DRUM PLATE" volume="0.674" num="10" soloed="0">
        <fxchain numofeffects="2" enabled="1">
          <effect on="1" gate="0" wet="1" autoquit_denominator="4" name="ladspaeffect" autoquit_numerator="4" autoquit="1" autoquit_syncmode="0">
            <ladspacontrols ports="4">
              <port02 data="0.76538"/>
              <port03 data="0.145119"/>
              <port04 data="0.0005"/>
              <port05 data="1"/>
            </ladspacontrols>
            <key>
              <attribute value="caps" name="file"/>
              <attribute value="Plate2x2" name="plugin"/>
            </key>
          </effect>
          <effect on="1" gate="0" wet="1" autoquit_denominator="4" name="eq" autoquit_numerator="4" autoquit="1" autoquit_syncmode="0">
            <Eq HPres="0.707" HP48="0" Peak2active="0" Peak3active="0" Peak3gain="0" LowShelfres="1.4" Peak4active="1" Outputgain="0" Lowshelfgain="0" Peak4bw="0.3" HighShelfres="1.4" Peak2gain="0" AnalyseIn="1" Highshelfactive="1" LPactive="0" Lowshelfactive="0" Peak4gain="0.36" HighShelfgain="1.62" LPres="0.707" HP12="1" LP24="0" HP24="0" Peak1active="0" Peak3bw="0.3" LP="0" LP12="1" HPactive="1" HP="0" LP48="0" Peak2bw="0.3" Peak1bw="0.3" AnalyseOut="1">
              <Inputgain scale_type="log" value="0" id="217936"/>
              <Peak1gain scale_type="log" value="0" id="1412862"/>
              <HPfreq scale_type="log" value="175.669" id="7725025"/>
              <LowShelffreq scale_type="log" value="80" id="399642"/>
              <Peak1freq scale_type="log" value="120" id="3213708"/>
              <Peak2freq scale_type="log" value="250" id="1180890"/>
              <Peak3freq scale_type="log" value="2000" id="5654965"/>
              <Peak4freq scale_type="log" value="3592.47" id="757114"/>
              <Highshelffreq scale_type="log" value="610.728" id="3326661"/>
              <LPfreq scale_type="log" value="18000" id="825391"/>
            </Eq>
            <key/>
          </effect>
        </fxchain>
        <send channel="0" amount="1"/>
      </fxchannel>
      <fxchannel muted="0" name="rhythm guitar" volume="1.184" num="11" soloed="0">
        <fxchain numofeffects="2" enabled="1">
          <effect on="1" gate="0" wet="1" autoquit_denominator="4" name="ladspaeffect" autoquit_numerator="4" autoquit="1" autoquit_syncmode="0">
            <ladspacontrols ports="22" link="1">
              <port02 data="0" link="1"/>
              <port03 data="-13.65" link="1"/>
              <port04 data="50" link="1"/>
              <port05 data="50" link="1"/>
              <port06 data="50" link="1"/>
              <port07 data="50" link="1"/>
              <port08 data="50" link="1"/>
              <port09 data="0" link="1"/>
              <port010 data="0" link="1"/>
              <port011 data="0" link="1"/>
              <port012 data="0" link="1"/>
              <port12 data="0"/>
              <port13 data="-13.65"/>
              <port14 data="50"/>
              <port15 data="50"/>
              <port16 data="50"/>
              <port17 data="50"/>
              <port18 data="50"/>
              <port19 data="0"/>
              <port110 data="0"/>
              <port111 data="0"/>
              <port112 data="0"/>
            </ladspacontrols>
            <key>
              <attribute value="ladspa_guitarix" name="file"/>
              <attribute value="guitarix-amp" name="plugin"/>
            </key>
          </effect>
          <effect on="0" gate="0" wet="1" autoquit_denominator="4" name="stereoenhancer" autoquit_numerator="4" autoquit="1" autoquit_syncmode="0">
            <stereoenhancercontrols width="180"/>
            <key/>
          </effect>
        </fxchain>
        <send channel="0" amount="1"/>
      </fxchannel>
      <fxchannel muted="0" name="lgt" volume="1.14" num="12" soloed="0">
        <fxchain numofeffects="4" enabled="1">
          <effect on="1" gate="0" wet="1" autoquit_denominator="4" name="ladspaeffect" autoquit_numerator="4" autoquit="1" autoquit_syncmode="0">
            <ladspacontrols ports="4" link="1">
              <port00 link="1">
                <data scale_type="log" value="13230" id="354059"/>
              </port00>
              <port01 data="1" link="1"/>
              <port10>
                <data scale_type="log" value="13230" id="451672"/>
              </port10>
              <port11 data="1"/>
            </ladspacontrols>
            <key>
              <attribute value="pointer_cast_1910" name="file"/>
              <attribute value="pointerCastDistortion" name="plugin"/>
            </key>
          </effect>
          <effect on="1" gate="0" wet="1" autoquit_denominator="4" name="ladspaeffect" autoquit_numerator="4" autoquit="1" autoquit_syncmode="0">
            <ladspacontrols ports="4" link="1">
              <port01 data="10" link="1"/>
              <port02 data="1" link="1"/>
              <port11 data="10"/>
              <port12 data="1"/>
            </ladspacontrols>
            <key>
              <attribute value="caps" name="file"/>
              <attribute value="PreampIII" name="plugin"/>
            </key>
          </effect>
          <effect on="1" gate="0" wet="1" autoquit_denominator="4" name="ladspaeffect" autoquit_numerator="4" autoquit="1" autoquit_syncmode="0">
            <ladspacontrols ports="4" link="1">
              <port01 data="1" link="1"/>
              <port02 data="0" link="1"/>
              <port11 data="1"/>
              <port12 data="0"/>
            </ladspacontrols>
            <key>
              <attribute value="caps" name="file"/>
              <attribute value="CabinetII" name="plugin"/>
            </key>
          </effect>
          <effect on="0" gate="0" wet="1" autoquit_denominator="4" name="ladspaeffect" autoquit_numerator="4" autoquit="1" autoquit_syncmode="0">
            <ladspacontrols ports="1">
              <port02 data="0.29125"/>
            </ladspacontrols>
            <key>
              <attribute value="caps" name="file"/>
              <attribute value="Narrower" name="plugin"/>
            </key>
          </effect>
        </fxchain>
        <send channel="0" amount="1"/>
        <send channel="13" amount="0.484"/>
      </fxchannel>
      <fxchannel muted="0" name="FX 14" volume="0.535" num="13" soloed="0">
        <fxchain numofeffects="1" enabled="1">
          <effect on="1" gate="0" wet="1" autoquit_denominator="4" name="ladspaeffect" autoquit_numerator="4" autoquit="1" autoquit_syncmode="0">
            <ladspacontrols ports="4" link="0">
              <port00 data_denominator="4" data="112.5" data_numerator="4" data_syncmode="0" link="0"/>
              <port01 data_denominator="4" data="0" data_numerator="4" data_syncmode="0" link="0"/>
              <port10 data_denominator="4" data="301.25" data_numerator="4" data_syncmode="0"/>
              <port11 data_denominator="4" data="0" data_numerator="4" data_syncmode="0"/>
            </ladspacontrols>
            <key>
              <attribute value="mod_delay_1419" name="file"/>
              <attribute value="modDelay" name="plugin"/>
            </key>
          </effect>
        </fxchain>
        <send channel="0" amount="1"/>
      </fxchannel>
      <fxchannel muted="0" name="bass" volume="1" num="14" soloed="0">
        <fxchain numofeffects="1" enabled="1">
          <effect on="0" gate="0" wet="1" autoquit_denominator="4" name="eq" autoquit_numerator="4" autoquit="1" autoquit_syncmode="0">
            <Eq HPres="0.707" HP48="0" Peak2active="1" Peak3active="1" Peak3gain="18" LowShelfres="1.21" Peak4active="1" Outputgain="8" Lowshelfgain="-6.477" Peak4bw="0.811" HighShelfres="1.4" Peak2gain="18" AnalyseIn="1" Highshelfactive="0" LPactive="0" Lowshelfactive="1" Peak4gain="5.76" HighShelfgain="0" LPres="0.707" HP12="1" LP24="0" HP24="0" Peak1active="0" Peak3bw="1.828" LP="0" LP12="1" HPactive="0" HP="0" LP48="0" Peak2bw="2.866" Peak1bw="0.3" AnalyseOut="1">
              <Inputgain scale_type="log" value="0" id="1928132"/>
              <Peak1gain scale_type="log" value="0" id="5028906"/>
              <HPfreq scale_type="log" value="24.795" id="6101787"/>
              <LowShelffreq scale_type="log" value="179.84" id="5056230"/>
              <Peak1freq scale_type="log" value="120" id="3218393"/>
              <Peak2freq scale_type="log" value="8057.72" id="4083145"/>
              <Peak3freq scale_type="log" value="4557.45" id="4897974"/>
              <Peak4freq scale_type="log" value="4000" id="5404987"/>
              <Highshelffreq scale_type="log" value="12000" id="3053663"/>
              <LPfreq scale_type="log" value="18000" id="1445410"/>
            </Eq>
            <key/>
          </effect>
        </fxchain>
        <send channel="0" amount="1"/>
      </fxchannel>
      <fxchannel muted="0" name="synthStrings" volume="1.465" num="15" soloed="0">
        <fxchain numofeffects="0" enabled="0"/>
        <send channel="0" amount="1"/>
      </fxchannel>
      <fxchannel muted="0" name="choir" volume="0.372" num="16" soloed="0">
        <fxchain numofeffects="0" enabled="0"/>
        <send channel="0" amount="1"/>
        <send channel="17" amount="0.624"/>
      </fxchannel>
      <fxchannel muted="0" name="reverb" volume="1" num="17" soloed="0">
        <fxchain numofeffects="1" enabled="1">
          <effect on="1" gate="0" wet="1" autoquit_denominator="4" name="reverbsc" autoquit_numerator="4" autoquit="1" autoquit_syncmode="0">
            <ReverbSCControls size="0.89" output_gain="6.6" color="10000" input_gain="0"/>
            <key/>
          </effect>
        </fxchain>
        <send channel="0" amount="1"/>
      </fxchannel>
      <fxchannel muted="0" name="piano" volume="1" num="18" soloed="0">
        <fxchain numofeffects="1" enabled="1">
          <effect on="1" gate="0" wet="1" autoquit_denominator="4" name="eq" autoquit_numerator="4" autoquit="1" autoquit_syncmode="0">
            <Eq HPres="0.707" HP48="0" Peak2active="0" Peak3active="0" Peak3gain="0" LowShelfres="1.4" Peak4active="0" Outputgain="0" Lowshelfgain="0" Peak4bw="0.3" HighShelfres="1.4" Peak2gain="0" AnalyseIn="1" Highshelfactive="1" LPactive="0" Lowshelfactive="0" Peak4gain="0" HighShelfgain="3.96" LPres="0.707" HP12="1" LP24="0" HP24="0" Peak1active="0" Peak3bw="0.3" LP="0" LP12="1" HPactive="0" HP="0" LP48="0" Peak2bw="0.3" Peak1bw="0.3" AnalyseOut="1">
              <Inputgain scale_type="log" value="0" id="2024522"/>
              <Peak1gain scale_type="log" value="0" id="7141501"/>
              <HPfreq scale_type="log" value="31" id="7243767"/>
              <LowShelffreq scale_type="log" value="80" id="4999800"/>
              <Peak1freq scale_type="log" value="120" id="3528115"/>
              <Peak2freq scale_type="log" value="250" id="846527"/>
              <Peak3freq scale_type="log" value="2000" id="8298031"/>
              <Peak4freq scale_type="log" value="4000" id="3355540"/>
              <Highshelffreq scale_type="log" value="1287.49" id="1908689"/>
              <LPfreq scale_type="log" value="18000" id="5230697"/>
            </Eq>
            <key/>
          </effect>
        </fxchain>
        <send channel="0" amount="1"/>
        <send channel="17" amount="0.18"/>
      </fxchannel>
      <fxchannel muted="0" name="FX 19" volume="1" num="19" soloed="0">
        <fxchain numofeffects="0" enabled="0"/>
        <send channel="0" amount="1"/>
      </fxchannel>
      <fxchannel muted="0" name="FX 20" volume="1" num="20" soloed="0">
        <fxchain numofeffects="0" enabled="0"/>
        <send channel="0" amount="1"/>
      </fxchannel>
      <fxchannel muted="0" name="FX 21" volume="1" num="21" soloed="0">
        <fxchain numofeffects="0" enabled="0"/>
        <send channel="0" amount="1"/>
      </fxchannel>
      <fxchannel muted="0" name="FX 22" volume="1" num="22" soloed="0">
        <fxchain numofeffects="0" enabled="0"/>
        <send channel="0" amount="1"/>
      </fxchannel>
      <fxchannel muted="0" name="FX 23" volume="1" num="23" soloed="0">
        <fxchain numofeffects="0" enabled="0"/>
        <send channel="0" amount="1"/>
      </fxchannel>
      <fxchannel muted="0" name="FX 24" volume="1" num="24" soloed="0">
        <fxchain numofeffects="0" enabled="0"/>
        <send channel="0" amount="1"/>
      </fxchannel>
    </fxmixer>
    <ControllerRackView maximized="0" width="350" height="200" y="282" minimized="0" x="680" visible="0"/>
    <pianoroll maximized="1" width="860" height="480" y="31" minimized="0" x="81" visible="0"/>
    <automationeditor maximized="1" width="860" height="400" y="214" minimized="0" x="173" visible="0"/>
    <projectnotes maximized="0" width="692" height="400" y="1" minimized="0" x="700" visible="0"><![CDATA[<!DOCTYPE HTML PUBLIC "-//W3C//DTD HTML 4.0//EN" "http://www.w3.org/TR/REC-html40/strict.dtd">
<html><head><meta name="qrichtext" content="1" /><style type="text/css">
p, li { white-space: pre-wrap; }
</style></head><body style=" font-family:'Sans Serif'; font-size:9pt; font-weight:400; font-style:normal;">
<p style="-qt-paragraph-type:empty; margin-top:0px; margin-bottom:0px; margin-left:0px; margin-right:0px; -qt-block-indent:0; text-indent:0px; font-family:'Ubuntu'; font-size:10pt;"><br /></p></body></html>]]></projectnotes>
    <timeline lpstate="0" lp1pos="9600" lp0pos="0"/>
    <controllers/>
  </song>
</lmms-project>
