<?xml version="1.0"?>
<!DOCTYPE lmms-project>
<lmms-project version="1.0" type="song" creator="LMMS" creatorversion="1.2.2">
  <head masterpitch="0" mastervol="100">
    <bpm id="3302706" value="166" scale_type="linear"/>
    <timesig_numerator id="1408314" value="4" scale_type="linear"/>
    <timesig_denominator id="2653613" value="4" scale_type="linear"/>
  </head>
  <song>
    <trackcontainer width="600" height="300" maximized="1" y="33" visible="1" minimized="0" type="song" x="106">
      <track muted="0" type="1" name="intro1" solo="0">
        <bbtrack>
          <trackcontainer width="1042" height="378" maximized="0" y="77" visible="1" minimized="0" type="bbtrackcontainer" x="167">
            <track muted="0" type="0" name="kick.wav" solo="0">
              <instrumenttrack pan="0" usemasterpitch="1" vol="100" fxch="1" pitch="0" pitchrange="1" basenote="57">
                <instrument name="audiofileprocessor">
                  <audiofileprocessor src="/home/pass/samples/sillydrums/kick.wav" amp="100" lframe="0" stutter="0" eframe="1" reversed="0" interp="0" sframe="0" looped="0"/>
                </instrument>
                <eldata fres="0.5" ftype="0" fcut="14000" fwet="0">
                  <elvol hold="2" userwavefile="" lspd_denominator="4" lspd_syncmode="0" sustain="1" ctlenvamt="0" amt="1" latt="0" lspd="0.1" pdel="0" rel="2" lspd_numerator="4" att="0" lshp="0" x100="0" lamt="0" lpdel="0" dec="2"/>
                  <elcut hold="0.5" userwavefile="" lspd_denominator="4" lspd_syncmode="0" sustain="0.5" ctlenvamt="0" amt="0" latt="0" lspd="0.1" pdel="0" rel="0.1" lspd_numerator="4" att="0" lshp="0" x100="0" lamt="0" lpdel="0" dec="0.5"/>
                  <elres hold="0.5" userwavefile="" lspd_denominator="4" lspd_syncmode="0" sustain="0.5" ctlenvamt="0" amt="0" latt="0" lspd="0.1" pdel="0" rel="0.1" lspd_numerator="4" att="0" lshp="0" x100="0" lamt="0" lpdel="0" dec="0.5"/>
                </eldata>
                <chordcreator chord="0" chord-enabled="0" chordrange="1"/>
                <arpeggiator arptime_numerator="4" arpdir="0" arp-enabled="0" arpgate="100" arpmode="0" arpmiss="0" arptime_syncmode="0" arpskip="0" arp="0" arptime_denominator="4" arpcycle="0" arptime="200" arprange="1"/>
                <midiport outputcontroller="0" fixedinputvelocity="-1" fixedoutputvelocity="-1" basevelocity="63" inputcontroller="0" outputprogram="1" outputchannel="1" fixedoutputnote="-1" inputchannel="0" readable="0" writable="0"/>
                <fxchain numofeffects="0" enabled="0"/>
              </instrumenttrack>
              <pattern muted="0" steps="64" type="0" name="kick.wav" pos="0">
                <note pan="0" len="-192" vol="100" key="57" pos="0"/>
                <note pan="0" len="-192" vol="100" key="57" pos="192"/>
                <note pan="0" len="-192" vol="100" key="57" pos="384"/>
                <note pan="0" len="-192" vol="100" key="57" pos="720"/>
                <note pan="0" len="-192" vol="100" key="57" pos="732"/>
                <note pan="0" len="-192" vol="100" key="57" pos="744"/>
                <note pan="0" len="-192" vol="100" key="57" pos="756"/>
              </pattern>
              <pattern muted="0" steps="32" type="0" name="kick.wav" pos="192">
                <note pan="0" len="-192" vol="100" key="57" pos="0"/>
                <note pan="0" len="-192" vol="100" key="57" pos="72"/>
                <note pan="0" len="-192" vol="100" key="57" pos="96"/>
                <note pan="0" len="-192" vol="100" key="57" pos="144"/>
                <note pan="0" len="-192" vol="100" key="57" pos="192"/>
                <note pan="0" len="-192" vol="100" key="57" pos="264"/>
                <note pan="0" len="-192" vol="100" key="57" pos="288"/>
                <note pan="0" len="-192" vol="100" key="57" pos="336"/>
              </pattern>
              <pattern muted="0" steps="64" type="0" name="kick.wav" pos="384">
                <note pan="0" len="-192" vol="100" key="57" pos="0"/>
                <note pan="0" len="-192" vol="100" key="57" pos="12"/>
                <note pan="0" len="-192" vol="100" key="57" pos="24"/>
                <note pan="0" len="-192" vol="100" key="57" pos="36"/>
                <note pan="0" len="-192" vol="100" key="57" pos="48"/>
                <note pan="0" len="-192" vol="100" key="57" pos="60"/>
                <note pan="0" len="-192" vol="100" key="57" pos="72"/>
                <note pan="0" len="-192" vol="100" key="57" pos="84"/>
                <note pan="0" len="-192" vol="100" key="57" pos="96"/>
                <note pan="0" len="-192" vol="100" key="57" pos="108"/>
                <note pan="0" len="-192" vol="100" key="57" pos="120"/>
                <note pan="0" len="-192" vol="100" key="57" pos="132"/>
                <note pan="0" len="-192" vol="100" key="57" pos="144"/>
                <note pan="0" len="-192" vol="100" key="57" pos="156"/>
                <note pan="0" len="-192" vol="100" key="57" pos="168"/>
                <note pan="0" len="-192" vol="100" key="57" pos="180"/>
                <note pan="0" len="-192" vol="100" key="57" pos="192"/>
                <note pan="0" len="-192" vol="100" key="57" pos="204"/>
                <note pan="0" len="-192" vol="100" key="57" pos="216"/>
                <note pan="0" len="-192" vol="100" key="57" pos="228"/>
                <note pan="0" len="-192" vol="100" key="57" pos="240"/>
                <note pan="0" len="-192" vol="100" key="57" pos="252"/>
                <note pan="0" len="-192" vol="100" key="57" pos="264"/>
                <note pan="0" len="-192" vol="100" key="57" pos="276"/>
                <note pan="0" len="-192" vol="100" key="57" pos="288"/>
                <note pan="0" len="-192" vol="100" key="57" pos="300"/>
                <note pan="0" len="-192" vol="100" key="57" pos="312"/>
                <note pan="0" len="-192" vol="100" key="57" pos="324"/>
                <note pan="0" len="-192" vol="100" key="57" pos="336"/>
                <note pan="0" len="-192" vol="100" key="57" pos="348"/>
                <note pan="0" len="-192" vol="100" key="57" pos="360"/>
                <note pan="0" len="-192" vol="100" key="57" pos="372"/>
                <note pan="0" len="-192" vol="100" key="57" pos="384"/>
                <note pan="0" len="-192" vol="100" key="57" pos="396"/>
                <note pan="0" len="-192" vol="100" key="57" pos="408"/>
                <note pan="0" len="-192" vol="100" key="57" pos="420"/>
                <note pan="0" len="-192" vol="100" key="57" pos="432"/>
                <note pan="0" len="-192" vol="100" key="57" pos="444"/>
                <note pan="0" len="-192" vol="100" key="57" pos="456"/>
                <note pan="0" len="-192" vol="100" key="57" pos="468"/>
                <note pan="0" len="-192" vol="100" key="57" pos="480"/>
                <note pan="0" len="-192" vol="100" key="57" pos="492"/>
                <note pan="0" len="-192" vol="100" key="57" pos="504"/>
                <note pan="0" len="-192" vol="100" key="57" pos="516"/>
                <note pan="0" len="-192" vol="100" key="57" pos="528"/>
                <note pan="0" len="-192" vol="100" key="57" pos="540"/>
                <note pan="0" len="-192" vol="100" key="57" pos="552"/>
                <note pan="0" len="-192" vol="100" key="57" pos="564"/>
                <note pan="0" len="-192" vol="100" key="57" pos="576"/>
                <note pan="0" len="-192" vol="100" key="57" pos="588"/>
                <note pan="0" len="-192" vol="100" key="57" pos="600"/>
                <note pan="0" len="-192" vol="100" key="57" pos="612"/>
                <note pan="0" len="-192" vol="100" key="57" pos="624"/>
                <note pan="0" len="-192" vol="100" key="57" pos="636"/>
                <note pan="0" len="-192" vol="100" key="57" pos="648"/>
                <note pan="0" len="-192" vol="100" key="57" pos="660"/>
                <note pan="0" len="-192" vol="100" key="57" pos="672"/>
                <note pan="0" len="-192" vol="100" key="57" pos="684"/>
                <note pan="0" len="-192" vol="100" key="57" pos="696"/>
                <note pan="0" len="-192" vol="100" key="57" pos="708"/>
                <note pan="0" len="-192" vol="100" key="57" pos="720"/>
                <note pan="0" len="-192" vol="100" key="57" pos="732"/>
                <note pan="0" len="-192" vol="100" key="57" pos="744"/>
                <note pan="0" len="-192" vol="100" key="57" pos="756"/>
              </pattern>
              <pattern muted="0" steps="64" type="0" name="kick.wav" pos="576">
                <note pan="0" len="-192" vol="100" key="57" pos="0"/>
                <note pan="0" len="-192" vol="100" key="57" pos="12"/>
                <note pan="0" len="-192" vol="100" key="57" pos="24"/>
                <note pan="0" len="-192" vol="100" key="57" pos="36"/>
                <note pan="0" len="-192" vol="100" key="57" pos="48"/>
                <note pan="0" len="-192" vol="100" key="57" pos="60"/>
                <note pan="0" len="-192" vol="100" key="57" pos="72"/>
                <note pan="0" len="-192" vol="100" key="57" pos="84"/>
                <note pan="0" len="-192" vol="100" key="57" pos="96"/>
                <note pan="0" len="-192" vol="100" key="57" pos="108"/>
                <note pan="0" len="-192" vol="100" key="57" pos="120"/>
                <note pan="0" len="-192" vol="100" key="57" pos="132"/>
                <note pan="0" len="-192" vol="100" key="57" pos="144"/>
                <note pan="0" len="-192" vol="100" key="57" pos="156"/>
                <note pan="0" len="-192" vol="100" key="57" pos="168"/>
                <note pan="0" len="-192" vol="100" key="57" pos="180"/>
                <note pan="0" len="-192" vol="100" key="57" pos="192"/>
                <note pan="0" len="-192" vol="100" key="57" pos="204"/>
                <note pan="0" len="-192" vol="100" key="57" pos="216"/>
                <note pan="0" len="-192" vol="100" key="57" pos="228"/>
                <note pan="0" len="-192" vol="100" key="57" pos="240"/>
                <note pan="0" len="-192" vol="100" key="57" pos="252"/>
                <note pan="0" len="-192" vol="100" key="57" pos="264"/>
                <note pan="0" len="-192" vol="100" key="57" pos="276"/>
                <note pan="0" len="-192" vol="100" key="57" pos="288"/>
                <note pan="0" len="-192" vol="100" key="57" pos="300"/>
                <note pan="0" len="-192" vol="100" key="57" pos="312"/>
                <note pan="0" len="-192" vol="100" key="57" pos="324"/>
                <note pan="0" len="-192" vol="100" key="57" pos="336"/>
                <note pan="0" len="-192" vol="100" key="57" pos="348"/>
                <note pan="0" len="-192" vol="100" key="57" pos="360"/>
                <note pan="0" len="-192" vol="100" key="57" pos="372"/>
                <note pan="0" len="-192" vol="100" key="57" pos="384"/>
                <note pan="0" len="-192" vol="100" key="57" pos="396"/>
                <note pan="0" len="-192" vol="100" key="57" pos="408"/>
                <note pan="0" len="-192" vol="100" key="57" pos="420"/>
                <note pan="0" len="-192" vol="100" key="57" pos="432"/>
                <note pan="0" len="-192" vol="100" key="57" pos="444"/>
                <note pan="0" len="-192" vol="100" key="57" pos="456"/>
                <note pan="0" len="-192" vol="100" key="57" pos="468"/>
                <note pan="0" len="-192" vol="100" key="57" pos="480"/>
                <note pan="0" len="-192" vol="100" key="57" pos="492"/>
                <note pan="0" len="-192" vol="100" key="57" pos="504"/>
                <note pan="0" len="-192" vol="100" key="57" pos="516"/>
                <note pan="0" len="-192" vol="100" key="57" pos="528"/>
                <note pan="0" len="-192" vol="100" key="57" pos="540"/>
                <note pan="0" len="-192" vol="100" key="57" pos="552"/>
                <note pan="0" len="-192" vol="100" key="57" pos="564"/>
                <note pan="0" len="-192" vol="100" key="57" pos="576"/>
                <note pan="0" len="-192" vol="100" key="57" pos="588"/>
                <note pan="0" len="-192" vol="100" key="57" pos="600"/>
                <note pan="0" len="-192" vol="100" key="57" pos="612"/>
                <note pan="0" len="-192" vol="100" key="57" pos="624"/>
                <note pan="0" len="-192" vol="100" key="57" pos="636"/>
                <note pan="0" len="-192" vol="100" key="57" pos="648"/>
                <note pan="0" len="-192" vol="100" key="57" pos="660"/>
                <note pan="0" len="-192" vol="100" key="57" pos="672"/>
                <note pan="0" len="-192" vol="100" key="57" pos="684"/>
                <note pan="0" len="-192" vol="100" key="57" pos="696"/>
                <note pan="0" len="-192" vol="100" key="57" pos="708"/>
                <note pan="0" len="-192" vol="100" key="57" pos="720"/>
                <note pan="0" len="-192" vol="100" key="57" pos="732"/>
                <note pan="0" len="-192" vol="100" key="57" pos="744"/>
                <note pan="0" len="-192" vol="100" key="57" pos="756"/>
              </pattern>
              <pattern muted="0" steps="16" type="0" name="kick.wav" pos="768">
                <note pan="0" len="-192" vol="100" key="57" pos="0"/>
                <note pan="0" len="-192" vol="100" key="57" pos="12"/>
                <note pan="0" len="-192" vol="100" key="57" pos="24"/>
                <note pan="0" len="-192" vol="100" key="57" pos="36"/>
                <note pan="0" len="-192" vol="100" key="57" pos="48"/>
                <note pan="0" len="-192" vol="100" key="57" pos="60"/>
                <note pan="0" len="-192" vol="100" key="57" pos="72"/>
                <note pan="0" len="-192" vol="100" key="57" pos="84"/>
                <note pan="0" len="-192" vol="100" key="57" pos="96"/>
                <note pan="0" len="-192" vol="100" key="57" pos="108"/>
                <note pan="0" len="-192" vol="100" key="57" pos="120"/>
                <note pan="0" len="-192" vol="100" key="57" pos="132"/>
                <note pan="0" len="-192" vol="100" key="57" pos="144"/>
                <note pan="0" len="-192" vol="100" key="57" pos="156"/>
                <note pan="0" len="-192" vol="100" key="57" pos="168"/>
                <note pan="0" len="-192" vol="100" key="57" pos="180"/>
              </pattern>
              <pattern muted="0" steps="64" type="0" name="kick.wav" pos="960">
                <note pan="0" len="-192" vol="100" key="57" pos="0"/>
                <note pan="0" len="-192" vol="100" key="57" pos="48"/>
                <note pan="0" len="-192" vol="100" key="57" pos="96"/>
                <note pan="0" len="-192" vol="100" key="57" pos="144"/>
                <note pan="0" len="-192" vol="100" key="57" pos="156"/>
                <note pan="0" len="-192" vol="100" key="57" pos="168"/>
                <note pan="0" len="-192" vol="100" key="57" pos="180"/>
                <note pan="0" len="-192" vol="100" key="57" pos="192"/>
                <note pan="0" len="-192" vol="100" key="57" pos="240"/>
                <note pan="0" len="-192" vol="100" key="57" pos="288"/>
                <note pan="0" len="-192" vol="100" key="57" pos="336"/>
                <note pan="0" len="-192" vol="100" key="57" pos="348"/>
                <note pan="0" len="-192" vol="100" key="57" pos="360"/>
                <note pan="0" len="-192" vol="100" key="57" pos="372"/>
                <note pan="0" len="-192" vol="100" key="57" pos="384"/>
                <note pan="0" len="-192" vol="100" key="57" pos="432"/>
                <note pan="0" len="-192" vol="100" key="57" pos="480"/>
                <note pan="0" len="-192" vol="100" key="57" pos="528"/>
                <note pan="0" len="-192" vol="100" key="57" pos="540"/>
                <note pan="0" len="-192" vol="100" key="57" pos="552"/>
                <note pan="0" len="-192" vol="100" key="57" pos="564"/>
                <note pan="0" len="-192" vol="100" key="57" pos="576"/>
                <note pan="0" len="-192" vol="100" key="57" pos="624"/>
                <note pan="0" len="-192" vol="100" key="57" pos="672"/>
                <note pan="0" len="-192" vol="100" key="57" pos="720"/>
                <note pan="0" len="-192" vol="100" key="57" pos="732"/>
                <note pan="0" len="-192" vol="100" key="57" pos="744"/>
                <note pan="0" len="-192" vol="100" key="57" pos="756"/>
              </pattern>
              <pattern muted="0" steps="64" type="0" name="kick.wav" pos="1152">
                <note pan="0" len="-192" vol="100" key="57" pos="0"/>
                <note pan="0" len="-192" vol="100" key="57" pos="48"/>
                <note pan="0" len="-192" vol="100" key="57" pos="96"/>
                <note pan="0" len="-192" vol="100" key="57" pos="144"/>
                <note pan="0" len="-192" vol="100" key="57" pos="156"/>
                <note pan="0" len="-192" vol="100" key="57" pos="168"/>
                <note pan="0" len="-192" vol="100" key="57" pos="180"/>
                <note pan="0" len="-192" vol="100" key="57" pos="192"/>
                <note pan="0" len="-192" vol="100" key="57" pos="240"/>
                <note pan="0" len="-192" vol="100" key="57" pos="288"/>
                <note pan="0" len="-192" vol="100" key="57" pos="336"/>
                <note pan="0" len="-192" vol="100" key="57" pos="348"/>
                <note pan="0" len="-192" vol="100" key="57" pos="360"/>
                <note pan="0" len="-192" vol="100" key="57" pos="372"/>
                <note pan="0" len="-192" vol="100" key="57" pos="384"/>
                <note pan="0" len="-192" vol="100" key="57" pos="432"/>
                <note pan="0" len="-192" vol="100" key="57" pos="480"/>
                <note pan="0" len="-192" vol="100" key="57" pos="528"/>
                <note pan="0" len="-192" vol="100" key="57" pos="540"/>
                <note pan="0" len="-192" vol="100" key="57" pos="552"/>
                <note pan="0" len="-192" vol="100" key="57" pos="564"/>
                <note pan="0" len="-192" vol="100" key="57" pos="576"/>
                <note pan="0" len="-192" vol="100" key="57" pos="624"/>
                <note pan="0" len="-192" vol="100" key="57" pos="672"/>
                <note pan="0" len="-192" vol="100" key="57" pos="720"/>
                <note pan="0" len="-192" vol="100" key="57" pos="732"/>
                <note pan="0" len="-192" vol="100" key="57" pos="744"/>
                <note pan="0" len="-192" vol="100" key="57" pos="756"/>
              </pattern>
              <pattern muted="0" steps="32" type="0" name="kick.wav" pos="1344">
                <note pan="0" len="-192" vol="100" key="57" pos="0"/>
              </pattern>
              <pattern muted="0" steps="32" type="0" name="kick.wav" pos="1536">
                <note pan="0" len="-192" vol="100" key="57" pos="0"/>
                <note pan="0" len="-192" vol="100" key="57" pos="48"/>
                <note pan="0" len="-192" vol="100" key="57" pos="60"/>
                <note pan="0" len="-192" vol="100" key="57" pos="72"/>
                <note pan="0" len="-192" vol="100" key="57" pos="96"/>
                <note pan="0" len="-192" vol="100" key="57" pos="108"/>
                <note pan="0" len="-192" vol="100" key="57" pos="120"/>
                <note pan="0" len="-192" vol="100" key="57" pos="144"/>
                <note pan="0" len="-192" vol="100" key="57" pos="156"/>
                <note pan="0" len="-192" vol="100" key="57" pos="168"/>
                <note pan="0" len="-192" vol="100" key="57" pos="192"/>
                <note pan="0" len="-192" vol="100" key="57" pos="240"/>
                <note pan="0" len="-192" vol="100" key="57" pos="252"/>
                <note pan="0" len="-192" vol="100" key="57" pos="264"/>
                <note pan="0" len="-192" vol="100" key="57" pos="276"/>
                <note pan="0" len="-192" vol="100" key="57" pos="288"/>
                <note pan="0" len="-192" vol="100" key="57" pos="300"/>
                <note pan="0" len="-192" vol="100" key="57" pos="312"/>
                <note pan="0" len="-192" vol="100" key="57" pos="324"/>
                <note pan="0" len="-192" vol="100" key="57" pos="336"/>
                <note pan="0" len="-192" vol="100" key="57" pos="348"/>
                <note pan="0" len="-192" vol="100" key="57" pos="360"/>
                <note pan="0" len="-192" vol="100" key="57" pos="372"/>
              </pattern>
              <pattern muted="0" steps="32" type="0" name="kick.wav" pos="1728">
                <note pan="0" len="-192" vol="100" key="57" pos="0"/>
                <note pan="0" len="-192" vol="100" key="57" pos="12"/>
                <note pan="0" len="-192" vol="100" key="57" pos="24"/>
                <note pan="0" len="-192" vol="100" key="57" pos="36"/>
                <note pan="0" len="-192" vol="100" key="57" pos="48"/>
                <note pan="0" len="-192" vol="100" key="57" pos="60"/>
                <note pan="0" len="-192" vol="100" key="57" pos="72"/>
                <note pan="0" len="-192" vol="100" key="57" pos="84"/>
                <note pan="0" len="-192" vol="100" key="57" pos="96"/>
                <note pan="0" len="-192" vol="100" key="57" pos="108"/>
                <note pan="0" len="-192" vol="100" key="57" pos="120"/>
                <note pan="0" len="-192" vol="100" key="57" pos="132"/>
                <note pan="0" len="-192" vol="100" key="57" pos="144"/>
                <note pan="0" len="-192" vol="100" key="57" pos="156"/>
                <note pan="0" len="-192" vol="100" key="57" pos="168"/>
                <note pan="0" len="-192" vol="100" key="57" pos="180"/>
                <note pan="0" len="-192" vol="100" key="57" pos="192"/>
                <note pan="0" len="-192" vol="100" key="57" pos="204"/>
                <note pan="0" len="-192" vol="100" key="57" pos="216"/>
                <note pan="0" len="-192" vol="100" key="57" pos="228"/>
                <note pan="0" len="-192" vol="100" key="57" pos="240"/>
                <note pan="0" len="-192" vol="100" key="57" pos="252"/>
                <note pan="0" len="-192" vol="100" key="57" pos="264"/>
                <note pan="0" len="-192" vol="100" key="57" pos="276"/>
                <note pan="0" len="-192" vol="100" key="57" pos="288"/>
                <note pan="0" len="-192" vol="100" key="57" pos="300"/>
                <note pan="0" len="-192" vol="100" key="57" pos="312"/>
                <note pan="0" len="-192" vol="100" key="57" pos="324"/>
                <note pan="0" len="-192" vol="100" key="57" pos="336"/>
                <note pan="0" len="-192" vol="100" key="57" pos="348"/>
                <note pan="0" len="-192" vol="100" key="57" pos="360"/>
                <note pan="0" len="-192" vol="100" key="57" pos="372"/>
              </pattern>
            </track>
            <track muted="0" type="0" name="hihat_opened02.ogg" solo="0">
              <instrumenttrack pan="-42.4" usemasterpitch="1" vol="56.8" fxch="2" pitch="0" pitchrange="1" basenote="57">
                <instrument name="audiofileprocessor">
                  <audiofileprocessor src="drums/hihat_opened02.ogg" amp="100" lframe="0" stutter="0" eframe="1" reversed="0" interp="1" sframe="0" looped="0"/>
                </instrument>
                <eldata fres="0.5" ftype="0" fcut="14000" fwet="0">
                  <elvol hold="2" userwavefile="" lspd_denominator="4" lspd_syncmode="0" sustain="0" ctlenvamt="0" amt="1" latt="0" lspd="0.1" pdel="0" rel="0" lspd_numerator="4" att="0" lshp="0" x100="0" lamt="0" lpdel="0" dec="2"/>
                  <elcut hold="0.5" userwavefile="" lspd_denominator="4" lspd_syncmode="0" sustain="0.5" ctlenvamt="0" amt="0" latt="0" lspd="0.1" pdel="0" rel="0.1" lspd_numerator="4" att="0" lshp="0" x100="0" lamt="0" lpdel="0" dec="0.5"/>
                  <elres hold="0.5" userwavefile="" lspd_denominator="4" lspd_syncmode="0" sustain="0.5" ctlenvamt="0" amt="0" latt="0" lspd="0.1" pdel="0" rel="0.1" lspd_numerator="4" att="0" lshp="0" x100="0" lamt="0" lpdel="0" dec="0.5"/>
                </eldata>
                <chordcreator chord="0" chord-enabled="0" chordrange="1"/>
                <arpeggiator arptime_numerator="4" arpdir="0" arp-enabled="0" arpgate="100" arpmode="0" arpmiss="0" arptime_syncmode="0" arpskip="0" arp="0" arptime_denominator="4" arpcycle="0" arptime="200" arprange="1"/>
                <midiport outputcontroller="0" fixedinputvelocity="-1" fixedoutputvelocity="-1" basevelocity="63" inputcontroller="0" outputprogram="1" outputchannel="1" fixedoutputnote="-1" inputchannel="0" readable="0" writable="0"/>
                <fxchain numofeffects="0" enabled="0"/>
              </instrumenttrack>
              <pattern muted="0" steps="64" type="0" name="hihat_opened02.ogg" pos="0"/>
              <pattern muted="0" steps="32" type="0" name="hihat_opened02.ogg" pos="192">
                <note pan="0" len="-192" vol="100" key="57" pos="72"/>
                <note pan="0" len="-192" vol="100" key="57" pos="144"/>
                <note pan="0" len="-192" vol="100" key="57" pos="264"/>
              </pattern>
              <pattern muted="0" steps="64" type="0" name="hihat_opened02.ogg" pos="384">
                <note pan="0" len="-192" vol="100" key="57" pos="0"/>
                <note pan="0" len="-192" vol="100" key="57" pos="96"/>
                <note pan="0" len="-192" vol="100" key="57" pos="192"/>
                <note pan="0" len="-192" vol="100" key="57" pos="288"/>
                <note pan="0" len="-192" vol="100" key="57" pos="384"/>
                <note pan="0" len="-192" vol="100" key="57" pos="480"/>
                <note pan="0" len="-192" vol="100" key="57" pos="576"/>
                <note pan="0" len="-192" vol="100" key="57" pos="672"/>
              </pattern>
              <pattern muted="0" steps="64" type="0" name="hihat_opened02.ogg" pos="576">
                <note pan="0" len="-192" vol="100" key="57" pos="0"/>
                <note pan="0" len="-192" vol="100" key="57" pos="48"/>
                <note pan="0" len="-192" vol="100" key="57" pos="96"/>
                <note pan="0" len="-192" vol="100" key="57" pos="144"/>
                <note pan="0" len="-192" vol="100" key="57" pos="192"/>
                <note pan="0" len="-192" vol="100" key="57" pos="240"/>
                <note pan="0" len="-192" vol="100" key="57" pos="288"/>
                <note pan="0" len="-192" vol="100" key="57" pos="336"/>
                <note pan="0" len="-192" vol="100" key="57" pos="384"/>
                <note pan="0" len="-192" vol="100" key="57" pos="432"/>
                <note pan="0" len="-192" vol="100" key="57" pos="480"/>
                <note pan="0" len="-192" vol="100" key="57" pos="528"/>
                <note pan="0" len="-192" vol="100" key="57" pos="576"/>
                <note pan="0" len="-192" vol="100" key="57" pos="624"/>
                <note pan="0" len="-192" vol="100" key="57" pos="672"/>
                <note pan="0" len="-192" vol="100" key="57" pos="720"/>
              </pattern>
              <pattern muted="0" steps="16" type="0" name="hihat_opened02.ogg" pos="768"/>
              <pattern muted="0" steps="64" type="0" name="hihat_opened02.ogg" pos="960">
                <note pan="0" len="-192" vol="100" key="57" pos="0"/>
                <note pan="0" len="-192" vol="100" key="57" pos="48"/>
                <note pan="0" len="-192" vol="100" key="57" pos="96"/>
                <note pan="0" len="-192" vol="100" key="57" pos="144"/>
                <note pan="0" len="-192" vol="100" key="57" pos="192"/>
                <note pan="0" len="-192" vol="100" key="57" pos="240"/>
                <note pan="0" len="-192" vol="100" key="57" pos="288"/>
                <note pan="0" len="-192" vol="100" key="57" pos="336"/>
                <note pan="0" len="-192" vol="100" key="57" pos="384"/>
                <note pan="0" len="-192" vol="100" key="57" pos="432"/>
                <note pan="0" len="-192" vol="100" key="57" pos="480"/>
                <note pan="0" len="-192" vol="100" key="57" pos="528"/>
                <note pan="0" len="-192" vol="100" key="57" pos="576"/>
                <note pan="0" len="-192" vol="100" key="57" pos="624"/>
                <note pan="0" len="-192" vol="100" key="57" pos="672"/>
                <note pan="0" len="-192" vol="100" key="57" pos="720"/>
              </pattern>
              <pattern muted="0" steps="64" type="0" name="hihat_opened02.ogg" pos="1152">
                <note pan="0" len="-192" vol="100" key="57" pos="0"/>
                <note pan="0" len="-192" vol="100" key="57" pos="48"/>
                <note pan="0" len="-192" vol="100" key="57" pos="96"/>
                <note pan="0" len="-192" vol="100" key="57" pos="144"/>
                <note pan="0" len="-192" vol="100" key="57" pos="192"/>
                <note pan="0" len="-192" vol="100" key="57" pos="240"/>
                <note pan="0" len="-192" vol="100" key="57" pos="288"/>
                <note pan="0" len="-192" vol="100" key="57" pos="336"/>
                <note pan="0" len="-192" vol="100" key="57" pos="384"/>
                <note pan="0" len="-192" vol="100" key="57" pos="432"/>
                <note pan="0" len="-192" vol="100" key="57" pos="480"/>
                <note pan="0" len="-192" vol="100" key="57" pos="528"/>
                <note pan="0" len="-192" vol="100" key="57" pos="576"/>
                <note pan="0" len="-192" vol="100" key="57" pos="624"/>
                <note pan="0" len="-192" vol="100" key="57" pos="672"/>
                <note pan="0" len="-192" vol="100" key="57" pos="720"/>
              </pattern>
              <pattern muted="0" steps="32" type="0" name="hihat_opened02.ogg" pos="1344"/>
              <pattern muted="0" steps="32" type="0" name="hihat_opened02.ogg" pos="1536">
                <note pan="0" len="-192" vol="100" key="57" pos="48"/>
                <note pan="0" len="-192" vol="100" key="57" pos="96"/>
                <note pan="0" len="-192" vol="100" key="57" pos="144"/>
                <note pan="0" len="-192" vol="100" key="57" pos="240"/>
                <note pan="0" len="-192" vol="100" key="57" pos="288"/>
                <note pan="0" len="-192" vol="100" key="57" pos="336"/>
              </pattern>
              <pattern muted="0" steps="32" type="0" name="hihat_opened02.ogg" pos="1728">
                <note pan="0" len="-192" vol="100" key="57" pos="48"/>
                <note pan="0" len="-192" vol="100" key="57" pos="96"/>
                <note pan="0" len="-192" vol="100" key="57" pos="144"/>
              </pattern>
            </track>
            <track muted="0" type="0" name="snare.wav" solo="0">
              <instrumenttrack pan="0" usemasterpitch="1" vol="200" fxch="3" pitch="0" pitchrange="1" basenote="57">
                <instrument name="audiofileprocessor">
                  <audiofileprocessor src="/home/pass/samples/sillydrums/snare.wav" amp="100" lframe="0" stutter="0" eframe="1" reversed="0" interp="1" sframe="0" looped="0"/>
                </instrument>
                <eldata fres="0.5" ftype="0" fcut="14000" fwet="0">
                  <elvol hold="2" userwavefile="" lspd_denominator="4" lspd_syncmode="0" sustain="1" ctlenvamt="0" amt="1" latt="0" lspd="0.1" pdel="0" rel="2" lspd_numerator="4" att="0" lshp="0" x100="0" lamt="0" lpdel="0" dec="2"/>
                  <elcut hold="0.5" userwavefile="" lspd_denominator="4" lspd_syncmode="0" sustain="0.5" ctlenvamt="0" amt="0" latt="0" lspd="0.1" pdel="0" rel="0.1" lspd_numerator="4" att="0" lshp="0" x100="0" lamt="0" lpdel="0" dec="0.5"/>
                  <elres hold="0.5" userwavefile="" lspd_denominator="4" lspd_syncmode="0" sustain="0.5" ctlenvamt="0" amt="0" latt="0" lspd="0.1" pdel="0" rel="0.1" lspd_numerator="4" att="0" lshp="0" x100="0" lamt="0" lpdel="0" dec="0.5"/>
                </eldata>
                <chordcreator chord="0" chord-enabled="0" chordrange="1"/>
                <arpeggiator arptime_numerator="4" arpdir="0" arp-enabled="0" arpgate="100" arpmode="0" arpmiss="0" arptime_syncmode="0" arpskip="0" arp="0" arptime_denominator="4" arpcycle="0" arptime="200" arprange="1"/>
                <midiport outputcontroller="0" fixedinputvelocity="-1" fixedoutputvelocity="-1" basevelocity="63" inputcontroller="0" outputprogram="1" outputchannel="1" fixedoutputnote="-1" inputchannel="0" readable="0" writable="0"/>
                <fxchain numofeffects="0" enabled="0"/>
              </instrumenttrack>
              <pattern muted="0" steps="64" type="0" name="snare.wav" pos="0">
                <note pan="0" len="-192" vol="100" key="57" pos="720"/>
                <note pan="0" len="-192" vol="100" key="57" pos="732"/>
                <note pan="0" len="-192" vol="100" key="57" pos="744"/>
                <note pan="0" len="-192" vol="100" key="57" pos="756"/>
              </pattern>
              <pattern muted="0" steps="32" type="0" name="snare.wav" pos="192">
                <note pan="0" len="-192" vol="100" key="57" pos="96"/>
                <note pan="0" len="-192" vol="100" key="57" pos="288"/>
              </pattern>
              <pattern muted="0" steps="64" type="0" name="snare.wav" pos="384">
                <note pan="0" len="-192" vol="100" key="57" pos="48"/>
                <note pan="0" len="-192" vol="100" key="57" pos="144"/>
                <note pan="0" len="-192" vol="100" key="57" pos="240"/>
                <note pan="0" len="-192" vol="100" key="57" pos="336"/>
                <note pan="0" len="-192" vol="100" key="57" pos="432"/>
                <note pan="0" len="-192" vol="100" key="57" pos="528"/>
                <note pan="0" len="-192" vol="100" key="57" pos="624"/>
                <note pan="0" len="-192" vol="100" key="57" pos="720"/>
              </pattern>
              <pattern muted="0" steps="64" type="0" name="snare.wav" pos="576">
                <note pan="0" len="-192" vol="100" key="57" pos="24"/>
                <note pan="0" len="-192" vol="100" key="57" pos="72"/>
                <note pan="0" len="-192" vol="100" key="57" pos="120"/>
                <note pan="0" len="-192" vol="100" key="57" pos="168"/>
                <note pan="0" len="-192" vol="100" key="57" pos="216"/>
                <note pan="0" len="-192" vol="100" key="57" pos="264"/>
                <note pan="0" len="-192" vol="100" key="57" pos="312"/>
                <note pan="0" len="-192" vol="100" key="57" pos="360"/>
                <note pan="0" len="-192" vol="100" key="57" pos="408"/>
                <note pan="0" len="-192" vol="100" key="57" pos="456"/>
                <note pan="0" len="-192" vol="100" key="57" pos="504"/>
                <note pan="0" len="-192" vol="100" key="57" pos="552"/>
                <note pan="0" len="-192" vol="100" key="57" pos="600"/>
                <note pan="0" len="-192" vol="100" key="57" pos="648"/>
                <note pan="0" len="-192" vol="100" key="57" pos="696"/>
                <note pan="0" len="-192" vol="100" key="57" pos="744"/>
              </pattern>
              <pattern muted="0" steps="16" type="0" name="snare.wav" pos="768">
                <note pan="0" len="-192" vol="100" key="57" pos="0"/>
                <note pan="0" len="-192" vol="100" key="57" pos="12"/>
                <note pan="0" len="-192" vol="100" key="57" pos="24"/>
                <note pan="0" len="-192" vol="100" key="57" pos="36"/>
                <note pan="0" len="-192" vol="100" key="57" pos="48"/>
                <note pan="0" len="-192" vol="100" key="57" pos="60"/>
                <note pan="0" len="-192" vol="100" key="57" pos="72"/>
                <note pan="0" len="-192" vol="100" key="57" pos="84"/>
                <note pan="0" len="-192" vol="100" key="57" pos="96"/>
                <note pan="0" len="-192" vol="100" key="57" pos="144"/>
              </pattern>
              <pattern muted="0" steps="64" type="0" name="snare.wav" pos="960">
                <note pan="0" len="-192" vol="100" key="57" pos="24"/>
                <note pan="0" len="-192" vol="100" key="57" pos="72"/>
                <note pan="0" len="-192" vol="100" key="57" pos="120"/>
                <note pan="0" len="-192" vol="100" key="57" pos="168"/>
                <note pan="0" len="-192" vol="100" key="57" pos="216"/>
                <note pan="0" len="-192" vol="100" key="57" pos="264"/>
                <note pan="0" len="-192" vol="100" key="57" pos="312"/>
                <note pan="0" len="-192" vol="100" key="57" pos="360"/>
                <note pan="0" len="-192" vol="100" key="57" pos="408"/>
                <note pan="0" len="-192" vol="100" key="57" pos="456"/>
                <note pan="0" len="-192" vol="100" key="57" pos="504"/>
                <note pan="0" len="-192" vol="100" key="57" pos="552"/>
                <note pan="0" len="-192" vol="100" key="57" pos="600"/>
                <note pan="0" len="-192" vol="100" key="57" pos="648"/>
                <note pan="0" len="-192" vol="100" key="57" pos="696"/>
                <note pan="0" len="-192" vol="100" key="57" pos="744"/>
              </pattern>
              <pattern muted="0" steps="64" type="0" name="snare.wav" pos="1152">
                <note pan="0" len="-192" vol="100" key="57" pos="24"/>
                <note pan="0" len="-192" vol="100" key="57" pos="72"/>
                <note pan="0" len="-192" vol="100" key="57" pos="120"/>
                <note pan="0" len="-192" vol="100" key="57" pos="168"/>
                <note pan="0" len="-192" vol="100" key="57" pos="216"/>
                <note pan="0" len="-192" vol="100" key="57" pos="264"/>
                <note pan="0" len="-192" vol="100" key="57" pos="312"/>
                <note pan="0" len="-192" vol="100" key="57" pos="360"/>
                <note pan="0" len="-192" vol="100" key="57" pos="408"/>
                <note pan="0" len="-192" vol="100" key="57" pos="456"/>
                <note pan="0" len="-192" vol="100" key="57" pos="504"/>
                <note pan="0" len="-192" vol="100" key="57" pos="552"/>
                <note pan="0" len="-192" vol="100" key="57" pos="600"/>
                <note pan="0" len="-192" vol="100" key="57" pos="648"/>
                <note pan="0" len="-192" vol="100" key="57" pos="696"/>
                <note pan="0" len="-192" vol="100" key="57" pos="744"/>
              </pattern>
              <pattern muted="0" steps="32" type="0" name="snare.wav" pos="1344"/>
              <pattern muted="0" steps="32" type="0" name="snare.wav" pos="1536">
                <note pan="0" len="-192" vol="100" key="57" pos="0"/>
                <note pan="0" len="-192" vol="100" key="57" pos="48"/>
                <note pan="0" len="-192" vol="100" key="57" pos="96"/>
                <note pan="0" len="-192" vol="100" key="57" pos="144"/>
                <note pan="0" len="-192" vol="100" key="57" pos="192"/>
                <note pan="0" len="-192" vol="100" key="57" pos="240"/>
                <note pan="0" len="-192" vol="100" key="57" pos="288"/>
                <note pan="0" len="-192" vol="100" key="57" pos="336"/>
              </pattern>
              <pattern muted="0" steps="32" type="0" name="snare.wav" pos="1728">
                <note pan="0" len="-192" vol="100" key="57" pos="0"/>
                <note pan="0" len="-192" vol="100" key="57" pos="48"/>
                <note pan="0" len="-192" vol="100" key="57" pos="96"/>
                <note pan="0" len="-192" vol="100" key="57" pos="144"/>
                <note pan="0" len="-192" vol="100" key="57" pos="192"/>
                <note pan="0" len="-192" vol="100" key="57" pos="240"/>
                <note pan="0" len="-192" vol="100" key="57" pos="288"/>
                <note pan="0" len="-192" vol="100" key="57" pos="300"/>
                <note pan="0" len="-192" vol="100" key="57" pos="312"/>
                <note pan="0" len="-192" vol="100" key="57" pos="324"/>
                <note pan="0" len="-192" vol="100" key="57" pos="336"/>
                <note pan="0" len="-192" vol="100" key="57" pos="348"/>
                <note pan="0" len="-192" vol="100" key="57" pos="360"/>
                <note pan="0" len="-192" vol="100" key="57" pos="372"/>
              </pattern>
            </track>
            <track muted="0" type="0" name="crash1.wav" solo="0">
              <instrumenttrack pan="0" usemasterpitch="1" vol="71.2" fxch="4" pitch="0" pitchrange="1" basenote="57">
                <instrument name="audiofileprocessor">
                  <audiofileprocessor src="/home/pass/samples/sillydrums/crash1.wav" amp="100" lframe="0" stutter="0" eframe="1" reversed="0" interp="1" sframe="0" looped="0"/>
                </instrument>
                <eldata fres="0.5" ftype="0" fcut="14000" fwet="0">
                  <elvol hold="2" userwavefile="" lspd_denominator="4" lspd_syncmode="0" sustain="1" ctlenvamt="0" amt="1" latt="0" lspd="0.1" pdel="0" rel="2" lspd_numerator="4" att="0" lshp="0" x100="0" lamt="0" lpdel="0" dec="2"/>
                  <elcut hold="0.5" userwavefile="" lspd_denominator="4" lspd_syncmode="0" sustain="0.5" ctlenvamt="0" amt="0" latt="0" lspd="0.1" pdel="0" rel="0.1" lspd_numerator="4" att="0" lshp="0" x100="0" lamt="0" lpdel="0" dec="0.5"/>
                  <elres hold="0.5" userwavefile="" lspd_denominator="4" lspd_syncmode="0" sustain="0.5" ctlenvamt="0" amt="0" latt="0" lspd="0.1" pdel="0" rel="0.1" lspd_numerator="4" att="0" lshp="0" x100="0" lamt="0" lpdel="0" dec="0.5"/>
                </eldata>
                <chordcreator chord="0" chord-enabled="0" chordrange="1"/>
                <arpeggiator arptime_numerator="4" arpdir="0" arp-enabled="0" arpgate="100" arpmode="0" arpmiss="0" arptime_syncmode="0" arpskip="0" arp="0" arptime_denominator="4" arpcycle="0" arptime="200" arprange="1"/>
                <midiport outputcontroller="0" fixedinputvelocity="-1" fixedoutputvelocity="-1" basevelocity="63" inputcontroller="0" outputprogram="1" outputchannel="1" fixedoutputnote="-1" inputchannel="0" readable="0" writable="0"/>
                <fxchain numofeffects="0" enabled="0"/>
              </instrumenttrack>
              <pattern muted="0" steps="64" type="0" name="crash1.wav" pos="0">
                <note pan="0" len="-192" vol="100" key="57" pos="0"/>
                <note pan="0" len="-192" vol="100" key="57" pos="384"/>
              </pattern>
              <pattern muted="0" steps="32" type="0" name="crash1.wav" pos="192">
                <note pan="0" len="-192" vol="100" key="57" pos="0"/>
              </pattern>
              <pattern muted="0" steps="64" type="0" name="crash1.wav" pos="384">
                <note pan="0" len="-192" vol="100" key="57" pos="0"/>
              </pattern>
              <pattern muted="0" steps="64" type="0" name="crash1.wav" pos="576">
                <note pan="0" len="-192" vol="100" key="57" pos="0"/>
              </pattern>
              <pattern muted="0" steps="16" type="0" name="crash1.wav" pos="768"/>
              <pattern muted="0" steps="64" type="0" name="crash1.wav" pos="960">
                <note pan="0" len="-192" vol="100" key="57" pos="0"/>
                <note pan="0" len="-192" vol="100" key="57" pos="384"/>
              </pattern>
              <pattern muted="0" steps="64" type="0" name="crash1.wav" pos="1152">
                <note pan="0" len="-192" vol="100" key="57" pos="0"/>
              </pattern>
              <pattern muted="0" steps="32" type="0" name="crash1.wav" pos="1344"/>
              <pattern muted="0" steps="32" type="0" name="crash1.wav" pos="1536">
                <note pan="0" len="-192" vol="100" key="57" pos="0"/>
              </pattern>
              <pattern muted="0" steps="32" type="0" name="crash1.wav" pos="1728">
                <note pan="0" len="-192" vol="100" key="57" pos="0"/>
              </pattern>
            </track>
            <track muted="0" type="0" name="crash1m" solo="0">
              <instrumenttrack pan="0" usemasterpitch="1" vol="71.2" fxch="4" pitch="0" pitchrange="1" basenote="57">
                <instrument name="audiofileprocessor">
                  <audiofileprocessor src="/home/pass/samples/sillydrums/crash1.wav" amp="100" lframe="0" stutter="0" eframe="1" reversed="0" interp="1" sframe="0" looped="0"/>
                </instrument>
                <eldata fres="0.5" ftype="0" fcut="14000" fwet="0">
                  <elvol hold="0.232" userwavefile="" lspd_denominator="4" lspd_syncmode="0" sustain="0" ctlenvamt="0" amt="1" latt="0" lspd="0.1" pdel="0" rel="0.208" lspd_numerator="4" att="0" lshp="0" x100="0" lamt="0" lpdel="0" dec="0.216"/>
                  <elcut hold="0.5" userwavefile="" lspd_denominator="4" lspd_syncmode="0" sustain="0.5" ctlenvamt="0" amt="0" latt="0" lspd="0.1" pdel="0" rel="0.1" lspd_numerator="4" att="0" lshp="0" x100="0" lamt="0" lpdel="0" dec="0.5"/>
                  <elres hold="0.5" userwavefile="" lspd_denominator="4" lspd_syncmode="0" sustain="0.5" ctlenvamt="0" amt="0" latt="0" lspd="0.1" pdel="0" rel="0.1" lspd_numerator="4" att="0" lshp="0" x100="0" lamt="0" lpdel="0" dec="0.5"/>
                </eldata>
                <chordcreator chord="0" chord-enabled="0" chordrange="1"/>
                <arpeggiator arptime_numerator="4" arpdir="0" arp-enabled="0" arpgate="100" arpmode="0" arpmiss="0" arptime_syncmode="0" arpskip="0" arp="0" arptime_denominator="4" arpcycle="0" arptime="200" arprange="1"/>
                <midiport outputcontroller="0" fixedinputvelocity="-1" fixedoutputvelocity="-1" basevelocity="63" inputcontroller="0" outputprogram="1" outputchannel="1" fixedoutputnote="-1" inputchannel="0" readable="0" writable="0"/>
                <fxchain numofeffects="0" enabled="0"/>
              </instrumenttrack>
              <pattern muted="0" steps="64" type="0" name="crash1m" pos="0"/>
              <pattern muted="0" steps="32" type="0" name="crash1m" pos="192"/>
              <pattern muted="0" steps="64" type="0" name="crash1m" pos="384"/>
              <pattern muted="0" steps="64" type="0" name="crash1m" pos="576"/>
              <pattern muted="0" steps="16" type="0" name="crash1m" pos="768"/>
              <pattern muted="0" steps="64" type="0" name="crash1m" pos="960"/>
              <pattern muted="0" steps="64" type="0" name="crash1m" pos="1152"/>
              <pattern muted="0" steps="32" type="0" name="crash1m" pos="1344">
                <note pan="0" len="-192" vol="100" key="57" pos="0"/>
              </pattern>
              <pattern muted="0" steps="32" type="0" name="crash1m" pos="1536"/>
              <pattern muted="0" steps="32" type="0" name="crash1m" pos="1728"/>
            </track>
            <track muted="0" type="0" name="crash2.wav" solo="0">
              <instrumenttrack pan="28" usemasterpitch="1" vol="76.8" fxch="5" pitch="0" pitchrange="1" basenote="57">
                <instrument name="audiofileprocessor">
                  <audiofileprocessor src="/home/pass/samples/sillydrums/crash2.wav" amp="100" lframe="0" stutter="0" eframe="1" reversed="0" interp="1" sframe="0" looped="0"/>
                </instrument>
                <eldata fres="0.5" ftype="0" fcut="14000" fwet="0">
                  <elvol hold="2" userwavefile="" lspd_denominator="4" lspd_syncmode="0" sustain="1" ctlenvamt="0" amt="1" latt="0" lspd="0.1" pdel="0" rel="2" lspd_numerator="4" att="0" lshp="0" x100="0" lamt="0" lpdel="0" dec="2"/>
                  <elcut hold="0.5" userwavefile="" lspd_denominator="4" lspd_syncmode="0" sustain="0.5" ctlenvamt="0" amt="0" latt="0" lspd="0.1" pdel="0" rel="0.1" lspd_numerator="4" att="0" lshp="0" x100="0" lamt="0" lpdel="0" dec="0.5"/>
                  <elres hold="0.5" userwavefile="" lspd_denominator="4" lspd_syncmode="0" sustain="0.5" ctlenvamt="0" amt="0" latt="0" lspd="0.1" pdel="0" rel="0.1" lspd_numerator="4" att="0" lshp="0" x100="0" lamt="0" lpdel="0" dec="0.5"/>
                </eldata>
                <chordcreator chord="0" chord-enabled="0" chordrange="1"/>
                <arpeggiator arptime_numerator="4" arpdir="0" arp-enabled="0" arpgate="100" arpmode="0" arpmiss="0" arptime_syncmode="0" arpskip="0" arp="0" arptime_denominator="4" arpcycle="0" arptime="200" arprange="1"/>
                <midiport outputcontroller="0" fixedinputvelocity="-1" fixedoutputvelocity="-1" basevelocity="63" inputcontroller="0" outputprogram="1" outputchannel="1" fixedoutputnote="-1" inputchannel="0" readable="0" writable="0"/>
                <fxchain numofeffects="0" enabled="0"/>
              </instrumenttrack>
              <pattern muted="0" steps="64" type="0" name="crash2.wav" pos="0">
                <note pan="0" len="-192" vol="100" key="57" pos="192"/>
              </pattern>
              <pattern muted="0" steps="32" type="0" name="crash2.wav" pos="192">
                <note pan="0" len="-192" vol="100" key="57" pos="192"/>
              </pattern>
              <pattern muted="0" steps="64" type="0" name="crash2.wav" pos="384">
                <note pan="0" len="-192" vol="100" key="57" pos="384"/>
              </pattern>
              <pattern muted="0" steps="64" type="0" name="crash2.wav" pos="576">
                <note pan="0" len="-192" vol="100" key="57" pos="384"/>
              </pattern>
              <pattern muted="0" steps="16" type="0" name="crash2.wav" pos="768"/>
              <pattern muted="0" steps="64" type="0" name="crash2.wav" pos="960">
                <note pan="0" len="-192" vol="100" key="57" pos="192"/>
              </pattern>
              <pattern muted="0" steps="64" type="0" name="crash2.wav" pos="1152">
                <note pan="0" len="-192" vol="100" key="57" pos="384"/>
              </pattern>
              <pattern muted="0" steps="32" type="0" name="crash2.wav" pos="1344"/>
              <pattern muted="0" steps="32" type="0" name="crash2.wav" pos="1536">
                <note pan="0" len="-192" vol="100" key="57" pos="192"/>
              </pattern>
              <pattern muted="0" steps="32" type="0" name="crash2.wav" pos="1728"/>
            </track>
            <track muted="0" type="0" name="china.wav" solo="0">
              <instrumenttrack pan="0" usemasterpitch="1" vol="130.4" fxch="6" pitch="0" pitchrange="1" basenote="57">
                <instrument name="audiofileprocessor">
                  <audiofileprocessor src="/home/pass/samples/sillydrums/china.wav" amp="100" lframe="0" stutter="0" eframe="1" reversed="0" interp="1" sframe="0" looped="0"/>
                </instrument>
                <eldata fres="0.5" ftype="0" fcut="14000" fwet="0">
                  <elvol hold="2" userwavefile="" lspd_denominator="4" lspd_syncmode="0" sustain="1" ctlenvamt="0" amt="1" latt="0" lspd="0.1" pdel="0" rel="2" lspd_numerator="4" att="0" lshp="0" x100="0" lamt="0" lpdel="0" dec="2"/>
                  <elcut hold="0.5" userwavefile="" lspd_denominator="4" lspd_syncmode="0" sustain="0.5" ctlenvamt="0" amt="0" latt="0" lspd="0.1" pdel="0" rel="0.1" lspd_numerator="4" att="0" lshp="0" x100="0" lamt="0" lpdel="0" dec="0.5"/>
                  <elres hold="0.5" userwavefile="" lspd_denominator="4" lspd_syncmode="0" sustain="0.5" ctlenvamt="0" amt="0" latt="0" lspd="0.1" pdel="0" rel="0.1" lspd_numerator="4" att="0" lshp="0" x100="0" lamt="0" lpdel="0" dec="0.5"/>
                </eldata>
                <chordcreator chord="0" chord-enabled="0" chordrange="1"/>
                <arpeggiator arptime_numerator="4" arpdir="0" arp-enabled="0" arpgate="100" arpmode="0" arpmiss="0" arptime_syncmode="0" arpskip="0" arp="0" arptime_denominator="4" arpcycle="0" arptime="200" arprange="1"/>
                <midiport outputcontroller="0" fixedinputvelocity="-1" fixedoutputvelocity="-1" basevelocity="63" inputcontroller="0" outputprogram="1" outputchannel="1" fixedoutputnote="-1" inputchannel="0" readable="0" writable="0"/>
                <fxchain numofeffects="0" enabled="0"/>
              </instrumenttrack>
              <pattern muted="0" steps="64" type="0" name="china.wav" pos="0"/>
              <pattern muted="0" steps="32" type="0" name="china.wav" pos="192"/>
              <pattern muted="0" steps="64" type="0" name="china.wav" pos="384"/>
              <pattern muted="0" steps="64" type="0" name="china.wav" pos="576"/>
              <pattern muted="0" steps="16" type="0" name="china.wav" pos="768"/>
              <pattern muted="0" steps="64" type="0" name="china.wav" pos="960"/>
              <pattern muted="0" steps="64" type="0" name="china.wav" pos="1152"/>
              <pattern muted="0" steps="32" type="0" name="china.wav" pos="1344"/>
              <pattern muted="0" steps="32" type="0" name="china.wav" pos="1536"/>
              <pattern muted="0" steps="32" type="0" name="china.wav" pos="1728"/>
            </track>
            <track muted="0" type="0" name="hiTom.wav" solo="0">
              <instrumenttrack pan="0" usemasterpitch="1" vol="130.4" fxch="7" pitch="0" pitchrange="1" basenote="57">
                <instrument name="audiofileprocessor">
                  <audiofileprocessor src="/home/pass/samples/sillydrums/hiTom.wav" amp="100" lframe="0" stutter="0" eframe="1" reversed="0" interp="1" sframe="0" looped="0"/>
                </instrument>
                <eldata fres="0.5" ftype="0" fcut="14000" fwet="0">
                  <elvol hold="2" userwavefile="" lspd_denominator="4" lspd_syncmode="0" sustain="1" ctlenvamt="0" amt="1" latt="0" lspd="0.1" pdel="0" rel="2" lspd_numerator="4" att="0" lshp="0" x100="0" lamt="0" lpdel="0" dec="2"/>
                  <elcut hold="0.5" userwavefile="" lspd_denominator="4" lspd_syncmode="0" sustain="0.5" ctlenvamt="0" amt="0" latt="0" lspd="0.1" pdel="0" rel="0.1" lspd_numerator="4" att="0" lshp="0" x100="0" lamt="0" lpdel="0" dec="0.5"/>
                  <elres hold="0.5" userwavefile="" lspd_denominator="4" lspd_syncmode="0" sustain="0.5" ctlenvamt="0" amt="0" latt="0" lspd="0.1" pdel="0" rel="0.1" lspd_numerator="4" att="0" lshp="0" x100="0" lamt="0" lpdel="0" dec="0.5"/>
                </eldata>
                <chordcreator chord="0" chord-enabled="0" chordrange="1"/>
                <arpeggiator arptime_numerator="4" arpdir="0" arp-enabled="0" arpgate="100" arpmode="0" arpmiss="0" arptime_syncmode="0" arpskip="0" arp="0" arptime_denominator="4" arpcycle="0" arptime="200" arprange="1"/>
                <midiport outputcontroller="0" fixedinputvelocity="-1" fixedoutputvelocity="-1" basevelocity="63" inputcontroller="0" outputprogram="1" outputchannel="1" fixedoutputnote="-1" inputchannel="0" readable="0" writable="0"/>
                <fxchain numofeffects="0" enabled="0"/>
              </instrumenttrack>
              <pattern muted="0" steps="64" type="0" name="hiTom.wav" pos="0"/>
              <pattern muted="0" steps="32" type="0" name="hiTom.wav" pos="192"/>
              <pattern muted="0" steps="64" type="0" name="hiTom.wav" pos="384"/>
              <pattern muted="0" steps="64" type="0" name="hiTom.wav" pos="576"/>
              <pattern muted="0" steps="16" type="0" name="hiTom.wav" pos="768"/>
              <pattern muted="0" steps="64" type="0" name="hiTom.wav" pos="960"/>
              <pattern muted="0" steps="64" type="0" name="hiTom.wav" pos="1152"/>
              <pattern muted="0" steps="32" type="0" name="hiTom.wav" pos="1344"/>
              <pattern muted="0" steps="32" type="0" name="hiTom.wav" pos="1536"/>
              <pattern muted="0" steps="32" type="0" name="hiTom.wav" pos="1728">
                <note pan="0" len="-192" vol="100" key="57" pos="204"/>
                <note pan="0" len="-192" vol="100" key="57" pos="252"/>
              </pattern>
            </track>
            <track muted="0" type="0" name="midTom.wav" solo="0">
              <instrumenttrack pan="0" usemasterpitch="1" vol="130.4" fxch="8" pitch="0" pitchrange="1" basenote="57">
                <instrument name="audiofileprocessor">
                  <audiofileprocessor src="/home/pass/samples/sillydrums/midTom.wav" amp="100" lframe="0" stutter="0" eframe="1" reversed="0" interp="1" sframe="0" looped="0"/>
                </instrument>
                <eldata fres="0.5" ftype="0" fcut="14000" fwet="0">
                  <elvol hold="2" userwavefile="" lspd_denominator="4" lspd_syncmode="0" sustain="1" ctlenvamt="0" amt="1" latt="0" lspd="0.1" pdel="0" rel="2" lspd_numerator="4" att="0" lshp="0" x100="0" lamt="0" lpdel="0" dec="2"/>
                  <elcut hold="0.5" userwavefile="" lspd_denominator="4" lspd_syncmode="0" sustain="0.5" ctlenvamt="0" amt="0" latt="0" lspd="0.1" pdel="0" rel="0.1" lspd_numerator="4" att="0" lshp="0" x100="0" lamt="0" lpdel="0" dec="0.5"/>
                  <elres hold="0.5" userwavefile="" lspd_denominator="4" lspd_syncmode="0" sustain="0.5" ctlenvamt="0" amt="0" latt="0" lspd="0.1" pdel="0" rel="0.1" lspd_numerator="4" att="0" lshp="0" x100="0" lamt="0" lpdel="0" dec="0.5"/>
                </eldata>
                <chordcreator chord="0" chord-enabled="0" chordrange="1"/>
                <arpeggiator arptime_numerator="4" arpdir="0" arp-enabled="0" arpgate="100" arpmode="0" arpmiss="0" arptime_syncmode="0" arpskip="0" arp="0" arptime_denominator="4" arpcycle="0" arptime="200" arprange="1"/>
                <midiport outputcontroller="0" fixedinputvelocity="-1" fixedoutputvelocity="-1" basevelocity="63" inputcontroller="0" outputprogram="1" outputchannel="1" fixedoutputnote="-1" inputchannel="0" readable="0" writable="0"/>
                <fxchain numofeffects="0" enabled="0"/>
              </instrumenttrack>
              <pattern muted="0" steps="64" type="0" name="midTom.wav" pos="0">
                <note pan="0" len="-192" vol="100" key="57" pos="336"/>
                <note pan="0" len="-192" vol="100" key="57" pos="360"/>
              </pattern>
              <pattern muted="0" steps="32" type="0" name="midTom.wav" pos="192">
                <note pan="0" len="-192" vol="100" key="57" pos="336"/>
              </pattern>
              <pattern muted="0" steps="64" type="0" name="midTom.wav" pos="384"/>
              <pattern muted="0" steps="64" type="0" name="midTom.wav" pos="576"/>
              <pattern muted="0" steps="16" type="0" name="midTom.wav" pos="768">
                <note pan="0" len="-192" vol="100" key="57" pos="108"/>
                <note pan="0" len="-192" vol="100" key="57" pos="120"/>
                <note pan="0" len="-192" vol="100" key="57" pos="132"/>
              </pattern>
              <pattern muted="0" steps="64" type="0" name="midTom.wav" pos="960"/>
              <pattern muted="0" steps="64" type="0" name="midTom.wav" pos="1152"/>
              <pattern muted="0" steps="32" type="0" name="midTom.wav" pos="1344"/>
              <pattern muted="0" steps="32" type="0" name="midTom.wav" pos="1536"/>
              <pattern muted="0" steps="32" type="0" name="midTom.wav" pos="1728">
                <note pan="0" len="-192" vol="100" key="57" pos="216"/>
                <note pan="0" len="-192" vol="100" key="57" pos="264"/>
              </pattern>
            </track>
            <track muted="0" type="0" name="loTom.wav" solo="0">
              <instrumenttrack pan="0" usemasterpitch="1" vol="130.4" fxch="9" pitch="0" pitchrange="1" basenote="57">
                <instrument name="audiofileprocessor">
                  <audiofileprocessor src="/home/pass/samples/sillydrums/loTom.wav" amp="100" lframe="0" stutter="0" eframe="1" reversed="0" interp="1" sframe="0" looped="0"/>
                </instrument>
                <eldata fres="0.5" ftype="0" fcut="14000" fwet="0">
                  <elvol hold="2" userwavefile="" lspd_denominator="4" lspd_syncmode="0" sustain="1" ctlenvamt="0" amt="1" latt="0" lspd="0.1" pdel="0" rel="2" lspd_numerator="4" att="0" lshp="0" x100="0" lamt="0" lpdel="0" dec="2"/>
                  <elcut hold="0.5" userwavefile="" lspd_denominator="4" lspd_syncmode="0" sustain="0.5" ctlenvamt="0" amt="0" latt="0" lspd="0.1" pdel="0" rel="0.1" lspd_numerator="4" att="0" lshp="0" x100="0" lamt="0" lpdel="0" dec="0.5"/>
                  <elres hold="0.5" userwavefile="" lspd_denominator="4" lspd_syncmode="0" sustain="0.5" ctlenvamt="0" amt="0" latt="0" lspd="0.1" pdel="0" rel="0.1" lspd_numerator="4" att="0" lshp="0" x100="0" lamt="0" lpdel="0" dec="0.5"/>
                </eldata>
                <chordcreator chord="0" chord-enabled="0" chordrange="1"/>
                <arpeggiator arptime_numerator="4" arpdir="0" arp-enabled="0" arpgate="100" arpmode="0" arpmiss="0" arptime_syncmode="0" arpskip="0" arp="0" arptime_denominator="4" arpcycle="0" arptime="200" arprange="1"/>
                <midiport outputcontroller="0" fixedinputvelocity="-1" fixedoutputvelocity="-1" basevelocity="63" inputcontroller="0" outputprogram="1" outputchannel="1" fixedoutputnote="-1" inputchannel="0" readable="0" writable="0"/>
                <fxchain numofeffects="0" enabled="0"/>
              </instrumenttrack>
              <pattern muted="0" steps="64" type="0" name="loTom.wav" pos="0"/>
              <pattern muted="0" steps="32" type="0" name="loTom.wav" pos="192">
                <note pan="0" len="-192" vol="100" key="57" pos="360"/>
              </pattern>
              <pattern muted="0" steps="64" type="0" name="loTom.wav" pos="384"/>
              <pattern muted="0" steps="64" type="0" name="loTom.wav" pos="576"/>
              <pattern muted="0" steps="16" type="0" name="loTom.wav" pos="768">
                <note pan="0" len="-192" vol="100" key="57" pos="156"/>
                <note pan="0" len="-192" vol="100" key="57" pos="168"/>
                <note pan="0" len="-192" vol="100" key="57" pos="180"/>
              </pattern>
              <pattern muted="0" steps="64" type="0" name="loTom.wav" pos="960"/>
              <pattern muted="0" steps="64" type="0" name="loTom.wav" pos="1152"/>
              <pattern muted="0" steps="32" type="0" name="loTom.wav" pos="1344"/>
              <pattern muted="0" steps="32" type="0" name="loTom.wav" pos="1536"/>
              <pattern muted="0" steps="32" type="0" name="loTom.wav" pos="1728">
                <note pan="0" len="-192" vol="100" key="57" pos="228"/>
                <note pan="0" len="-192" vol="100" key="57" pos="276"/>
              </pattern>
            </track>
            <track muted="0" type="0" name="hihat_opened02.ogg" solo="0">
              <instrumenttrack pan="0" usemasterpitch="1" vol="100" fxch="0" pitch="0" pitchrange="1" basenote="57">
                <instrument name="audiofileprocessor">
                  <audiofileprocessor src="drums/hihat_opened02.ogg" amp="100" lframe="0" stutter="0" eframe="1" reversed="0" interp="1" sframe="0" looped="0"/>
                </instrument>
                <eldata fres="0.5" ftype="0" fcut="14000" fwet="0">
                  <elvol hold="0.5" userwavefile="" lspd_denominator="4" lspd_syncmode="0" sustain="0.5" ctlenvamt="0" amt="0" latt="0" lspd="0.1" pdel="0" rel="0.1" lspd_numerator="4" att="0" lshp="0" x100="0" lamt="0" lpdel="0" dec="0.5"/>
                  <elcut hold="0.5" userwavefile="" lspd_denominator="4" lspd_syncmode="0" sustain="0.5" ctlenvamt="0" amt="0" latt="0" lspd="0.1" pdel="0" rel="0.1" lspd_numerator="4" att="0" lshp="0" x100="0" lamt="0" lpdel="0" dec="0.5"/>
                  <elres hold="0.5" userwavefile="" lspd_denominator="4" lspd_syncmode="0" sustain="0.5" ctlenvamt="0" amt="0" latt="0" lspd="0.1" pdel="0" rel="0.1" lspd_numerator="4" att="0" lshp="0" x100="0" lamt="0" lpdel="0" dec="0.5"/>
                </eldata>
                <chordcreator chord="0" chord-enabled="0" chordrange="1"/>
                <arpeggiator arptime_numerator="4" arpdir="0" arp-enabled="0" arpgate="100" arpmode="0" arpmiss="0" arptime_syncmode="0" arpskip="0" arp="0" arptime_denominator="4" arpcycle="0" arptime="200" arprange="1"/>
                <midiport outputcontroller="0" fixedinputvelocity="-1" fixedoutputvelocity="-1" basevelocity="63" inputcontroller="0" outputprogram="1" outputchannel="1" fixedoutputnote="-1" inputchannel="0" readable="0" writable="0"/>
                <fxchain numofeffects="0" enabled="0"/>
              </instrumenttrack>
              <pattern muted="0" steps="64" type="0" name="hihat_opened02.ogg" pos="0"/>
              <pattern muted="0" steps="32" type="0" name="hihat_opened02.ogg" pos="192"/>
              <pattern muted="0" steps="64" type="0" name="hihat_opened02.ogg" pos="384"/>
              <pattern muted="0" steps="64" type="0" name="hihat_opened02.ogg" pos="576"/>
              <pattern muted="0" steps="16" type="0" name="hihat_opened02.ogg" pos="768"/>
              <pattern muted="0" steps="64" type="0" name="hihat_opened02.ogg" pos="960"/>
              <pattern muted="0" steps="64" type="0" name="hihat_opened02.ogg" pos="1152"/>
              <pattern muted="0" steps="32" type="0" name="hihat_opened02.ogg" pos="1344"/>
              <pattern muted="0" steps="32" type="0" name="hihat_opened02.ogg" pos="1536"/>
              <pattern muted="0" steps="32" type="0" name="hihat_opened02.ogg" pos="1728"/>
            </track>
          </trackcontainer>
        </bbtrack>
      </track>
      <track muted="0" type="1" name="Clone of intro1" solo="0">
        <bbtrack/>
      </track>
      <track muted="0" type="1" name="intro2" solo="0">
        <bbtrack/>
      </track>
      <track muted="0" type="1" name="bootcamp1" solo="0">
        <bbtrack/>
      </track>
      <track muted="0" type="1" name="fill1" solo="0">
        <bbtrack/>
      </track>
      <track muted="0" type="1" name="Clone of bootcamp1" solo="0">
        <bbtrack/>
      </track>
      <track muted="0" type="1" name="Clone of Clone of bootcamp1" solo="0">
        <bbtrack/>
      </track>
      <track muted="0" type="1" name="kick/mutecrash" solo="0">
        <bbtrack/>
      </track>
      <track muted="0" type="1" name="Beat/Bassline 6" solo="0">
        <bbtrack/>
      </track>
      <track muted="0" type="1" name="Clone of Beat/Bassline 6" solo="0">
        <bbtrack/>
      </track>
      <track muted="0" type="5" name="Automation track" solo="0">
        <automationtrack/>
      </track>
      <track muted="0" type="0" name="bass fender jazz (1,379kb)" solo="0">
        <instrumenttrack pan="0" usemasterpitch="1" vol="177.6" fxch="14" pitch="0" pitchrange="1" basenote="57">
          <instrument name="sf2player">
            <sf2player src="/home/pass/samples/soundfonts/bass fender jazz (1,379kb).sf2" gain="1" chorusLevel="2" bank="0" reverbRoomSize="0.2" reverbDamping="0.2" chorusDepth="8" chorusOn="0" reverbOn="0" reverbLevel="0.9" chorusSpeed="0.3" patch="0" reverbWidth="0.5" chorusNum="0.9"/>
          </instrument>
          <eldata fres="0.5" ftype="0" fcut="14000" fwet="0">
            <elvol hold="0.5" userwavefile="" lspd_denominator="4" lspd_syncmode="0" sustain="0.5" ctlenvamt="0" amt="0" latt="0" lspd="0.1" pdel="0" rel="0.1" lspd_numerator="4" att="0" lshp="0" x100="0" lamt="0" lpdel="0" dec="0.5"/>
            <elcut hold="0.5" userwavefile="" lspd_denominator="4" lspd_syncmode="0" sustain="0.5" ctlenvamt="0" amt="0" latt="0" lspd="0.1" pdel="0" rel="0.1" lspd_numerator="4" att="0" lshp="0" x100="0" lamt="0" lpdel="0" dec="0.5"/>
            <elres hold="0.5" userwavefile="" lspd_denominator="4" lspd_syncmode="0" sustain="0.5" ctlenvamt="0" amt="0" latt="0" lspd="0.1" pdel="0" rel="0.1" lspd_numerator="4" att="0" lshp="0" x100="0" lamt="0" lpdel="0" dec="0.5"/>
          </eldata>
          <chordcreator chord="0" chord-enabled="0" chordrange="1"/>
          <arpeggiator arptime_numerator="4" arpdir="0" arp-enabled="0" arpgate="100" arpmode="0" arpmiss="0" arptime_syncmode="0" arpskip="0" arp="0" arptime_denominator="4" arpcycle="0" arptime="200" arprange="1"/>
          <midiport outputcontroller="0" fixedinputvelocity="-1" fixedoutputvelocity="-1" basevelocity="63" inputcontroller="0" outputprogram="1" outputchannel="1" fixedoutputnote="-1" inputchannel="0" readable="0" writable="0"/>
          <fxchain numofeffects="0" enabled="1"/>
        </instrumenttrack>
      </track>
      <track muted="0" type="0" name="Rhythm Guitar" solo="0">
        <instrumenttrack pan="0" usemasterpitch="1" vol="200" fxch="11" pitch="0" pitchrange="1" basenote="57">
          <instrument name="carlapatchbay">
            <carlapatchbay>
              <CARLA-PROJECT VERSION="2.2">
                <EngineSettings>
                  <ForceStereo>false</ForceStereo>
                  <PreferPluginBridges>false</PreferPluginBridges>
                  <PreferUiBridges>true</PreferUiBridges>
                  <UIsAlwaysOnTop>false</UIsAlwaysOnTop>
                  <MaxParameters>200</MaxParameters>
                  <UIBridgesTimeout>4000</UIBridgesTimeout>
                  <LADSPA_PATH>/home/pass/.ladspa:/usr/lib/ladspa:/usr/local/lib/ladspa</LADSPA_PATH>
                  <DSSI_PATH>/home/pass/.dssi:/usr/lib/dssi:/usr/local/lib/dssi</DSSI_PATH>
                  <LV2_PATH>/home/pass/.lv2:/usr/lib/lv2:/usr/local/lib/lv2</LV2_PATH>
                  <VST2_PATH>/home/pass/.vst:/home/pass/.wine/drive_c/Program Files (x86)/VstPlugins:/home/pass/.wine/drive_c/Program Files/VstPlugins:/home/pass/vst:/usr/lib/lxvst:/usr/lib/vst:/usr/local/lib/lxvst:/usr/local/lib/vst/home/pass/.lxvst</VST2_PATH>
                  <VST3_PATH>/home/pass/.vst3:/home/pass/.wine/drive_c/Program Files (x86)/Common Files/VST3:/home/pass/.wine/drive_c/Program Files/Common Files/VST3:/usr/lib/vst3:/usr/local/lib/vst3</VST3_PATH>
                  <SF2_PATH>/home/pass/.sounds/sf2/home/pass/.sounds/sf3:/usr/share/soundfonts:/usr/share/sounds/sf2:/usr/share/sounds/sf3</SF2_PATH>
                  <SFZ_PATH>/home/pass/.sounds/sfz:/home/pass/samples:/usr/share/sounds/sfz</SFZ_PATH>
                </EngineSettings>
                <!-- sfizz -->
                <Plugin>
                  <Info>
                    <Type>LV2</Type>
                    <Name>sfizz</Name>
                    <URI>http://sfztools.github.io/sfizz</URI>
                  </Info>
                  <Data>
                    <Active>Yes</Active>
                    <ControlChannel>1</ControlChannel>
                    <Options>0x3f0</Options>
                    <Parameter>
                      <Index>0</Index>
                      <Name>Volume</Name>
                      <Symbol>volume</Symbol>
                      <Value>0</Value>
                    </Parameter>
                    <Parameter>
                      <Index>1</Index>
                      <Name>Polyphony</Name>
                      <Symbol>num_voices</Symbol>
                      <Value>64</Value>
                    </Parameter>
                    <Parameter>
                      <Index>2</Index>
                      <Name>Internal oversampling factor</Name>
                      <Symbol>oversampling</Symbol>
                      <Value>1</Value>
                    </Parameter>
                    <Parameter>
                      <Index>3</Index>
                      <Name>Preload size</Name>
                      <Symbol>preload_size</Symbol>
                      <Value>8192</Value>
                    </Parameter>
                    <CustomData>
                      <Type>http://lv2plug.in/ns/ext/atom#Path</Type>
                      <Key>http://sfztools.github.io/sfizz:sfzfile</Key>
                      <Value>/home/pass/samples/fakeguitar/_fakeguitar1_integrated.sfz</Value>
                    </CustomData>
                    <CustomData>
                      <Type>http://lv2plug.in/ns/ext/atom#Int</Type>
                      <Key>http://sfztools.github.io/sfizz:numvoices</Key>
                      <Value>QAAAAA==</Value>
                    </CustomData>
                    <CustomData>
                      <Type>http://lv2plug.in/ns/ext/atom#Int</Type>
                      <Key>http://sfztools.github.io/sfizz:preload_size</Key>
                      <Value>ACAAAA==</Value>
                    </CustomData>
                    <CustomData>
                      <Type>http://lv2plug.in/ns/ext/atom#Int</Type>
                      <Key>http://sfztools.github.io/sfizz:oversampling</Key>
                      <Value>AQAAAA==</Value>
                    </CustomData>
                  </Data>
                </Plugin>
                <!-- sfizz -->
                <Plugin>
                  <Info>
                    <Type>LV2</Type>
                    <Name>sfizz (2)</Name>
                    <URI>http://sfztools.github.io/sfizz</URI>
                  </Info>
                  <Data>
                    <Active>Yes</Active>
                    <ControlChannel>1</ControlChannel>
                    <Options>0x3f0</Options>
                    <Parameter>
                      <Index>0</Index>
                      <Name>Volume</Name>
                      <Symbol>volume</Symbol>
                      <Value>0</Value>
                    </Parameter>
                    <Parameter>
                      <Index>1</Index>
                      <Name>Polyphony</Name>
                      <Symbol>num_voices</Symbol>
                      <Value>64</Value>
                    </Parameter>
                    <Parameter>
                      <Index>2</Index>
                      <Name>Internal oversampling factor</Name>
                      <Symbol>oversampling</Symbol>
                      <Value>1</Value>
                    </Parameter>
                    <Parameter>
                      <Index>3</Index>
                      <Name>Preload size</Name>
                      <Symbol>preload_size</Symbol>
                      <Value>8192</Value>
                    </Parameter>
                    <CustomData>
                      <Type>http://lv2plug.in/ns/ext/atom#Path</Type>
                      <Key>http://sfztools.github.io/sfizz:sfzfile</Key>
                      <Value>/home/pass/samples/fakeguitar/_fakeguitar2_integrated.sfz</Value>
                    </CustomData>
                    <CustomData>
                      <Type>http://lv2plug.in/ns/ext/atom#Int</Type>
                      <Key>http://sfztools.github.io/sfizz:numvoices</Key>
                      <Value>QAAAAA==</Value>
                    </CustomData>
                    <CustomData>
                      <Type>http://lv2plug.in/ns/ext/atom#Int</Type>
                      <Key>http://sfztools.github.io/sfizz:preload_size</Key>
                      <Value>ACAAAA==</Value>
                    </CustomData>
                    <CustomData>
                      <Type>http://lv2plug.in/ns/ext/atom#Int</Type>
                      <Key>http://sfztools.github.io/sfizz:oversampling</Key>
                      <Value>AQAAAA==</Value>
                    </CustomData>
                  </Data>
                </Plugin>
                <Patchbay>
                  <Connection>
                    <Source>Midi Input:Capture 1</Source>
                    <Target>sfizz:events-in</Target>
                  </Connection>
                  <Connection>
                    <Source>sfizz:Left Output</Source>
                    <Target>Audio Output:Left</Target>
                  </Connection>
                  <Connection>
                    <Source>sfizz:Right Output</Source>
                    <Target>Audio Output:Left</Target>
                  </Connection>
                  <Connection>
                    <Source>Midi Input:Capture 1</Source>
                    <Target>sfizz (2):events-in</Target>
                  </Connection>
                  <Connection>
                    <Source>sfizz (2):Right Output</Source>
                    <Target>Audio Output:Right</Target>
                  </Connection>
                  <Connection>
                    <Source>sfizz (2):Left Output</Source>
                    <Target>Audio Output:Right</Target>
                  </Connection>
                  <Positions>
                    <Position x1="1711" y1="1350" pluginId="1">
                      <Name>sfizz (2)</Name>
                    </Position>
                    <Position x1="1704" y1="1297" pluginId="0">
                      <Name>sfizz</Name>
                    </Position>
                  </Positions>
                </Patchbay>
              </CARLA-PROJECT>
            </carlapatchbay>
          </instrument>
          <eldata fres="0.5" ftype="0" fcut="14000" fwet="0">
            <elvol hold="0.5" userwavefile="" lspd_denominator="4" lspd_syncmode="0" sustain="0.5" ctlenvamt="0" amt="0" latt="0" lspd="0.1" pdel="0" rel="0.1" lspd_numerator="4" att="0" lshp="0" x100="0" lamt="0" lpdel="0" dec="0.5"/>
            <elcut hold="0.5" userwavefile="" lspd_denominator="4" lspd_syncmode="0" sustain="0.5" ctlenvamt="0" amt="0" latt="0" lspd="0.1" pdel="0" rel="0.1" lspd_numerator="4" att="0" lshp="0" x100="0" lamt="0" lpdel="0" dec="0.5"/>
            <elres hold="0.5" userwavefile="" lspd_denominator="4" lspd_syncmode="0" sustain="0.5" ctlenvamt="0" amt="0" latt="0" lspd="0.1" pdel="0" rel="0.1" lspd_numerator="4" att="0" lshp="0" x100="0" lamt="0" lpdel="0" dec="0.5"/>
          </eldata>
          <chordcreator chord="0" chord-enabled="0" chordrange="1"/>
          <arpeggiator arptime_numerator="4" arpdir="0" arp-enabled="0" arpgate="100" arpmode="0" arpmiss="0" arptime_syncmode="0" arpskip="0" arp="0" arptime_denominator="4" arpcycle="0" arptime="200" arprange="1"/>
          <midiport outputcontroller="0" fixedinputvelocity="-1" fixedoutputvelocity="-1" basevelocity="127" inputcontroller="0" outputprogram="1" outputchannel="1" fixedoutputnote="-1" inputchannel="0" readable="0" writable="0"/>
          <fxchain numofeffects="0" enabled="0"/>
        </instrumenttrack>
      </track>
      <track muted="0" type="0" name="Lead Guitar S" solo="0">
        <instrumenttrack pan="0" usemasterpitch="1" vol="200" fxch="12" pitch="0" pitchrange="1" basenote="57">
          <instrument name="carlapatchbay">
            <carlapatchbay>
              <CARLA-PROJECT VERSION="2.2">
                <EngineSettings>
                  <ForceStereo>false</ForceStereo>
                  <PreferPluginBridges>false</PreferPluginBridges>
                  <PreferUiBridges>true</PreferUiBridges>
                  <UIsAlwaysOnTop>false</UIsAlwaysOnTop>
                  <MaxParameters>200</MaxParameters>
                  <UIBridgesTimeout>4000</UIBridgesTimeout>
                  <LADSPA_PATH>/home/pass/.ladspa:/usr/lib/ladspa:/usr/local/lib/ladspa</LADSPA_PATH>
                  <DSSI_PATH>/home/pass/.dssi:/usr/lib/dssi:/usr/local/lib/dssi</DSSI_PATH>
                  <LV2_PATH>/home/pass/.lv2:/usr/lib/lv2:/usr/local/lib/lv2</LV2_PATH>
                  <VST2_PATH>/home/pass/.vst:/home/pass/.wine/drive_c/Program Files (x86)/VstPlugins:/home/pass/.wine/drive_c/Program Files/VstPlugins:/usr/lib/lxvst:/usr/lib/vst:/usr/local/lib/lxvst:/usr/local/lib/vst/home/pass/.lxvst:/home/pass/vst</VST2_PATH>
                  <VST3_PATH>/home/pass/.vst3:/home/pass/.wine/drive_c/Program Files (x86)/Common Files/VST3:/home/pass/.wine/drive_c/Program Files/Common Files/VST3:/usr/lib/vst3:/usr/local/lib/vst3</VST3_PATH>
                  <SF2_PATH>/home/pass/.sounds/sf2/home/pass/.sounds/sf3:/usr/share/soundfonts:/usr/share/sounds/sf2:/usr/share/sounds/sf3</SF2_PATH>
                  <SFZ_PATH>/home/pass/.sounds/sfz:/home/pass/samples:/usr/share/sounds/sfz</SFZ_PATH>
                </EngineSettings>
                <!-- sfizz -->
                <Plugin>
                  <Info>
                    <Type>LV2</Type>
                    <Name>sfizz</Name>
                    <URI>http://sfztools.github.io/sfizz</URI>
                  </Info>
                  <Data>
                    <Active>Yes</Active>
                    <ControlChannel>1</ControlChannel>
                    <Options>0x3f0</Options>
                    <Parameter>
                      <Index>0</Index>
                      <Name>Volume</Name>
                      <Symbol>volume</Symbol>
                      <Value>0</Value>
                    </Parameter>
                    <Parameter>
                      <Index>1</Index>
                      <Name>Polyphony</Name>
                      <Symbol>num_voices</Symbol>
                      <Value>64</Value>
                    </Parameter>
                    <Parameter>
                      <Index>2</Index>
                      <Name>Internal oversampling factor</Name>
                      <Symbol>oversampling</Symbol>
                      <Value>1</Value>
                    </Parameter>
                    <Parameter>
                      <Index>3</Index>
                      <Name>Preload size</Name>
                      <Symbol>preload_size</Symbol>
                      <Value>8192</Value>
                    </Parameter>
                    <CustomData>
                      <Type>http://lv2plug.in/ns/ext/atom#Path</Type>
                      <Key>http://sfztools.github.io/sfizz:sfzfile</Key>
                      <Value>/home/pass/samples/fakeguitar/_fakeguitar1_integrated.sfz</Value>
                    </CustomData>
                    <CustomData>
                      <Type>http://lv2plug.in/ns/ext/atom#Int</Type>
                      <Key>http://sfztools.github.io/sfizz:numvoices</Key>
                      <Value>QAAAAA==</Value>
                    </CustomData>
                    <CustomData>
                      <Type>http://lv2plug.in/ns/ext/atom#Int</Type>
                      <Key>http://sfztools.github.io/sfizz:preload_size</Key>
                      <Value>ACAAAA==</Value>
                    </CustomData>
                    <CustomData>
                      <Type>http://lv2plug.in/ns/ext/atom#Int</Type>
                      <Key>http://sfztools.github.io/sfizz:oversampling</Key>
                      <Value>AQAAAA==</Value>
                    </CustomData>
                  </Data>
                </Plugin>
                <Patchbay>
                  <Connection>
                    <Source>Midi Input:Capture 1</Source>
                    <Target>sfizz:events-in</Target>
                  </Connection>
                  <Connection>
                    <Source>sfizz:Left Output</Source>
                    <Target>Audio Output:Left</Target>
                  </Connection>
                  <Connection>
                    <Source>sfizz:Right Output</Source>
                    <Target>Audio Output:Right</Target>
                  </Connection>
                  <Positions>
                    <Position x1="1693" y1="1353" pluginId="0">
                      <Name>sfizz</Name>
                    </Position>
                  </Positions>
                </Patchbay>
              </CARLA-PROJECT>
            </carlapatchbay>
          </instrument>
          <eldata fres="0.5" ftype="0" fcut="14000" fwet="0">
            <elvol hold="0.5" userwavefile="" lspd_denominator="4" lspd_syncmode="0" sustain="0.5" ctlenvamt="0" amt="0" latt="0" lspd="0.1" pdel="0" rel="0.1" lspd_numerator="4" att="0" lshp="0" x100="0" lamt="0" lpdel="0" dec="0.5"/>
            <elcut hold="0.5" userwavefile="" lspd_denominator="4" lspd_syncmode="0" sustain="0.5" ctlenvamt="0" amt="0" latt="0" lspd="0.1" pdel="0" rel="0.1" lspd_numerator="4" att="0" lshp="0" x100="0" lamt="0" lpdel="0" dec="0.5"/>
            <elres hold="0.5" userwavefile="" lspd_denominator="4" lspd_syncmode="0" sustain="0.5" ctlenvamt="0" amt="0" latt="0" lspd="0.1" pdel="0" rel="0.1" lspd_numerator="4" att="0" lshp="0" x100="0" lamt="0" lpdel="0" dec="0.5"/>
          </eldata>
          <chordcreator chord="0" chord-enabled="0" chordrange="1"/>
          <arpeggiator arptime_numerator="4" arpdir="0" arp-enabled="0" arpgate="100" arpmode="0" arpmiss="0" arptime_syncmode="0" arpskip="0" arp="0" arptime_denominator="4" arpcycle="0" arptime="200" arprange="1"/>
          <midiport outputcontroller="0" fixedinputvelocity="-1" fixedoutputvelocity="-1" basevelocity="63" inputcontroller="0" outputprogram="1" outputchannel="1" fixedoutputnote="-1" inputchannel="0" readable="0" writable="0"/>
          <fxchain numofeffects="0" enabled="0"/>
        </instrumenttrack>
        <pattern muted="0" steps="16" type="1" name="" pos="0">
          <note pan="0" len="24" vol="122" key="71" pos="0"/>
          <note pan="0" len="48" vol="100" key="0" pos="0"/>
          <note pan="0" len="24" vol="77" key="67" pos="24"/>
          <note pan="0" len="24" vol="133" key="75" pos="48"/>
          <note pan="0" len="24" vol="92" key="74" pos="72"/>
          <note pan="0" len="24" vol="100" key="71" pos="96"/>
          <note pan="0" len="24" vol="113" key="67" pos="120"/>
          <note pan="0" len="24" vol="125" key="75" pos="144"/>
          <note pan="0" len="24" vol="92" key="74" pos="168"/>
          <note pan="0" len="24" vol="113" key="71" pos="192"/>
          <note pan="0" len="24" vol="89" key="67" pos="216"/>
          <note pan="0" len="24" vol="94" key="75" pos="240"/>
          <note pan="0" len="24" vol="121" key="74" pos="264"/>
          <note pan="0" len="24" vol="137" key="71" pos="288"/>
          <note pan="0" len="24" vol="92" key="67" pos="312"/>
          <note pan="0" len="24" vol="118" key="75" pos="336"/>
          <note pan="0" len="24" vol="107" key="74" pos="360"/>
          <note pan="0" len="12" vol="107" key="51" pos="768"/>
          <note pan="0" len="12" vol="107" key="55" pos="780"/>
          <note pan="0" len="12" vol="107" key="60" pos="792"/>
          <note pan="0" len="12" vol="107" key="63" pos="804"/>
          <note pan="0" len="12" vol="107" key="67" pos="816"/>
          <note pan="0" len="12" vol="107" key="75" pos="828"/>
          <note pan="0" len="12" vol="107" key="79" pos="840"/>
          <note pan="0" len="12" vol="107" key="48" pos="852"/>
          <note pan="0" len="12" vol="107" key="51" pos="864"/>
          <note pan="0" len="12" vol="107" key="55" pos="876"/>
          <note pan="0" len="12" vol="107" key="60" pos="888"/>
          <note pan="0" len="12" vol="107" key="63" pos="900"/>
          <note pan="0" len="12" vol="107" key="67" pos="912"/>
          <note pan="0" len="12" vol="107" key="75" pos="924"/>
          <note pan="0" len="12" vol="107" key="79" pos="936"/>
          <note pan="0" len="12" vol="107" key="48" pos="948"/>
          <note pan="0" len="12" vol="107" key="51" pos="960"/>
          <note pan="0" len="12" vol="107" key="55" pos="972"/>
          <note pan="0" len="12" vol="107" key="60" pos="984"/>
          <note pan="0" len="12" vol="107" key="63" pos="996"/>
          <note pan="0" len="12" vol="107" key="67" pos="1008"/>
          <note pan="0" len="12" vol="107" key="75" pos="1020"/>
          <note pan="0" len="12" vol="107" key="79" pos="1032"/>
          <note pan="0" len="19" vol="127" key="47" pos="1044"/>
          <note pan="0" len="26" vol="130" key="50" pos="1056"/>
          <note pan="0" len="23" vol="116" key="53" pos="1068"/>
          <note pan="0" len="23" vol="132" key="59" pos="1080"/>
          <note pan="0" len="17" vol="140" key="62" pos="1092"/>
          <note pan="0" len="24" vol="129" key="65" pos="1104"/>
          <note pan="0" len="24" vol="125" key="74" pos="1116"/>
          <note pan="0" len="17" vol="146" key="77" pos="1128"/>
          <note pan="0" len="19" vol="129" key="48" pos="1140"/>
          <note pan="0" len="26" vol="137" key="51" pos="1152"/>
          <note pan="0" len="23" vol="122" key="55" pos="1164"/>
          <note pan="0" len="23" vol="122" key="60" pos="1176"/>
          <note pan="0" len="17" vol="133" key="63" pos="1188"/>
          <note pan="0" len="24" vol="124" key="67" pos="1200"/>
          <note pan="0" len="24" vol="125" key="75" pos="1212"/>
          <note pan="0" len="17" vol="144" key="79" pos="1224"/>
          <note pan="0" len="19" vol="118" key="48" pos="1236"/>
          <note pan="0" len="16" vol="122" key="51" pos="1248"/>
          <note pan="0" len="23" vol="132" key="55" pos="1260"/>
          <note pan="0" len="23" vol="116" key="60" pos="1272"/>
          <note pan="0" len="17" vol="135" key="63" pos="1284"/>
          <note pan="0" len="24" vol="135" key="67" pos="1296"/>
          <note pan="0" len="24" vol="143" key="75" pos="1308"/>
          <note pan="0" len="17" vol="140" key="79" pos="1320"/>
          <note pan="0" len="8" vol="146" key="39" pos="1320"/>
          <note pan="0" len="19" vol="133" key="48" pos="1332"/>
          <note pan="0" len="8" vol="132" key="41" pos="1332"/>
          <note pan="0" len="26" vol="129" key="51" pos="1344"/>
          <note pan="0" len="20" vol="163" key="43" pos="1344"/>
          <note pan="0" len="23" vol="135" key="55" pos="1356"/>
          <note pan="0" len="22" vol="116" key="60" pos="1368"/>
          <note pan="0" len="18" vol="140" key="39" pos="1368"/>
          <note pan="0" len="17" vol="127" key="63" pos="1380"/>
          <note pan="0" len="25" vol="133" key="67" pos="1392"/>
          <note pan="0" len="18" vol="96" key="36" pos="1392"/>
          <note pan="0" len="24" vol="146" key="75" pos="1404"/>
          <note pan="0" len="17" vol="140" key="79" pos="1416"/>
          <note pan="0" len="10" vol="140" key="24" pos="1416"/>
          <note pan="0" len="19" vol="127" key="47" pos="1428"/>
          <note pan="0" len="26" vol="130" key="50" pos="1440"/>
          <note pan="0" len="18" vol="177" key="23" pos="1440"/>
          <note pan="0" len="18" vol="177" key="11" pos="1440"/>
          <note pan="0" len="23" vol="116" key="53" pos="1452"/>
          <note pan="0" len="22" vol="132" key="59" pos="1464"/>
          <note pan="0" len="10" vol="140" key="29" pos="1464"/>
          <note pan="0" len="17" vol="140" key="62" pos="1476"/>
          <note pan="0" len="40" vol="157" key="55" pos="1486"/>
          <note pan="0" len="40" vol="157" key="59" pos="1488"/>
          <note pan="0" len="37" vol="177" key="31" pos="1488"/>
          <note pan="0" len="37" vol="177" key="19" pos="1488"/>
          <note pan="0" len="36" vol="157" key="62" pos="1489"/>
          <note pan="0" len="33" vol="157" key="65" pos="1490"/>
          <note pan="0" len="14" vol="137" key="51" pos="1536"/>
          <note pan="0" len="19" vol="177" key="24" pos="1536"/>
          <note pan="0" len="19" vol="177" key="12" pos="1536"/>
          <note pan="0" len="11" vol="122" key="55" pos="1548"/>
          <note pan="0" len="10" vol="122" key="60" pos="1560"/>
          <note pan="0" len="5" vol="133" key="63" pos="1572"/>
          <note pan="0" len="13" vol="124" key="67" pos="1584"/>
          <note pan="0" len="6" vol="149" key="43" pos="1584"/>
          <note pan="0" len="6" vol="149" key="39" pos="1584"/>
          <note pan="0" len="6" vol="149" key="36" pos="1584"/>
          <note pan="0" len="12" vol="125" key="75" pos="1596"/>
          <note pan="0" len="6" vol="137" key="43" pos="1596"/>
          <note pan="0" len="6" vol="137" key="39" pos="1596"/>
          <note pan="0" len="6" vol="137" key="36" pos="1596"/>
          <note pan="0" len="5" vol="144" key="79" pos="1608"/>
          <note pan="0" len="6" vol="152" key="43" pos="1608"/>
          <note pan="0" len="6" vol="152" key="39" pos="1608"/>
          <note pan="0" len="6" vol="152" key="36" pos="1608"/>
          <note pan="0" len="7" vol="118" key="48" pos="1620"/>
          <note pan="0" len="4" vol="122" key="51" pos="1632"/>
          <note pan="0" len="6" vol="157" key="36" pos="1632"/>
          <note pan="0" len="6" vol="141" key="43" pos="1635"/>
          <note pan="0" len="43" vol="165" key="51" pos="1638"/>
          <note pan="0" len="11" vol="132" key="55" pos="1644"/>
          <note pan="0" len="10" vol="116" key="60" pos="1656"/>
          <note pan="0" len="5" vol="135" key="63" pos="1668"/>
          <note pan="0" len="13" vol="135" key="67" pos="1680"/>
          <note pan="0" len="12" vol="143" key="75" pos="1692"/>
          <note pan="0" len="5" vol="140" key="79" pos="1704"/>
          <note pan="0" len="8" vol="146" key="39" pos="1704"/>
          <note pan="0" len="7" vol="133" key="48" pos="1716"/>
          <note pan="0" len="8" vol="132" key="41" pos="1716"/>
          <note pan="0" len="14" vol="129" key="51" pos="1728"/>
          <note pan="0" len="20" vol="163" key="43" pos="1728"/>
          <note pan="0" len="11" vol="135" key="55" pos="1740"/>
          <note pan="0" len="10" vol="116" key="60" pos="1752"/>
          <note pan="0" len="18" vol="140" key="39" pos="1752"/>
          <note pan="0" len="5" vol="127" key="63" pos="1764"/>
          <note pan="0" len="13" vol="133" key="67" pos="1776"/>
          <note pan="0" len="18" vol="96" key="36" pos="1776"/>
          <note pan="0" len="12" vol="146" key="75" pos="1788"/>
          <note pan="0" len="5" vol="140" key="79" pos="1800"/>
          <note pan="0" len="12" vol="137" key="43" pos="1800"/>
          <note pan="0" len="7" vol="133" key="49" pos="1812"/>
          <note pan="0" len="6" vol="132" key="43" pos="1822"/>
          <note pan="0" len="14" vol="129" key="53" pos="1824"/>
          <note pan="0" len="25" vol="176" key="44" pos="1828"/>
          <note pan="0" len="11" vol="135" key="56" pos="1836"/>
          <note pan="0" len="10" vol="116" key="61" pos="1848"/>
          <note pan="0" len="6" vol="135" key="41" pos="1848"/>
          <note pan="0" len="5" vol="127" key="65" pos="1860"/>
          <note pan="0" len="13" vol="133" key="68" pos="1872"/>
          <note pan="0" len="6" vol="116" key="37" pos="1872"/>
          <note pan="0" len="12" vol="146" key="77" pos="1884"/>
          <note pan="0" len="5" vol="140" key="80" pos="1896"/>
          <note pan="0" len="6" vol="159" key="34" pos="1896"/>
          <note pan="0" len="7" vol="129" key="48" pos="1908"/>
          <note pan="0" len="14" vol="137" key="51" pos="1920"/>
          <note pan="0" len="33" vol="177" key="24" pos="1920"/>
          <note pan="0" len="33" vol="177" key="12" pos="1920"/>
          <note pan="0" len="11" vol="122" key="55" pos="1932"/>
          <note pan="0" len="10" vol="122" key="60" pos="1944"/>
          <note pan="0" len="5" vol="133" key="63" pos="1956"/>
          <note pan="0" len="13" vol="124" key="67" pos="1968"/>
          <note pan="0" len="6" vol="149" key="43" pos="1968"/>
          <note pan="0" len="6" vol="149" key="39" pos="1968"/>
          <note pan="0" len="6" vol="149" key="36" pos="1968"/>
          <note pan="0" len="12" vol="125" key="75" pos="1980"/>
          <note pan="0" len="6" vol="137" key="43" pos="1980"/>
          <note pan="0" len="6" vol="137" key="39" pos="1980"/>
          <note pan="0" len="6" vol="137" key="36" pos="1980"/>
          <note pan="0" len="5" vol="144" key="79" pos="1992"/>
          <note pan="0" len="6" vol="152" key="43" pos="1992"/>
          <note pan="0" len="6" vol="152" key="39" pos="1992"/>
          <note pan="0" len="6" vol="152" key="36" pos="1992"/>
          <note pan="0" len="7" vol="118" key="48" pos="2004"/>
          <note pan="0" len="4" vol="122" key="51" pos="2016"/>
          <note pan="0" len="6" vol="157" key="36" pos="2016"/>
          <note pan="0" len="6" vol="141" key="43" pos="2019"/>
          <note pan="0" len="43" vol="165" key="51" pos="2022"/>
          <note pan="0" len="11" vol="132" key="55" pos="2028"/>
          <note pan="0" len="10" vol="116" key="60" pos="2040"/>
          <note pan="0" len="5" vol="135" key="63" pos="2052"/>
          <note pan="0" len="13" vol="135" key="67" pos="2064"/>
          <note pan="0" len="12" vol="143" key="75" pos="2076"/>
          <note pan="0" len="5" vol="140" key="79" pos="2088"/>
          <note pan="0" len="7" vol="133" key="48" pos="2100"/>
          <note pan="0" len="12" vol="162" key="84" pos="2112"/>
          <note pan="0" len="12" vol="146" key="75" pos="2112"/>
          <note pan="0" len="18" vol="177" key="24" pos="2112"/>
          <note pan="0" len="18" vol="177" key="12" pos="2112"/>
          <note pan="0" len="12" vol="140" key="84" pos="2148"/>
          <note pan="0" len="12" vol="130" key="75" pos="2148"/>
          <note pan="0" len="15" vol="133" key="43" pos="2148"/>
          <note pan="0" len="15" vol="137" key="39" pos="2148"/>
          <note pan="0" len="15" vol="125" key="36" pos="2148"/>
          <note pan="0" len="12" vol="146" key="84" pos="2184"/>
          <note pan="0" len="12" vol="151" key="75" pos="2184"/>
          <note pan="0" len="15" vol="144" key="43" pos="2184"/>
          <note pan="0" len="15" vol="138" key="39" pos="2184"/>
          <note pan="0" len="15" vol="144" key="36" pos="2184"/>
          <note pan="0" len="12" vol="129" key="84" pos="2220"/>
          <note pan="0" len="12" vol="146" key="75" pos="2220"/>
          <note pan="0" len="15" vol="141" key="43" pos="2220"/>
          <note pan="0" len="15" vol="130" key="39" pos="2220"/>
          <note pan="0" len="15" vol="105" key="36" pos="2220"/>
          <note pan="0" len="12" vol="159" key="84" pos="2256"/>
          <note pan="0" len="12" vol="154" key="75" pos="2256"/>
          <note pan="0" len="15" vol="118" key="43" pos="2256"/>
          <note pan="0" len="15" vol="124" key="39" pos="2256"/>
          <note pan="0" len="15" vol="149" key="36" pos="2256"/>
          <note pan="0" len="8" vol="174" key="25" pos="2304"/>
          <note pan="0" len="8" vol="174" key="13" pos="2304"/>
          <note pan="0" len="8" vol="140" key="25" pos="2328"/>
          <note pan="0" len="8" vol="140" key="13" pos="2328"/>
          <note pan="0" len="58" vol="138" key="76" pos="2352"/>
          <note pan="0" len="48" vol="129" key="72" pos="2358"/>
          <note pan="0" len="44" vol="121" key="68" pos="2364"/>
          <note pan="0" len="37" vol="137" key="64" pos="2370"/>
          <note pan="0" len="32" vol="125" key="60" pos="2376"/>
          <note pan="0" len="22" vol="132" key="56" pos="2382"/>
          <note pan="0" len="13" vol="121" key="52" pos="2388"/>
          <note pan="0" len="10" vol="127" key="48" pos="2394"/>
          <note pan="0" len="8" vol="151" key="25" pos="2472"/>
          <note pan="0" len="8" vol="151" key="13" pos="2472"/>
          <note pan="0" len="4" vol="127" key="43" pos="2493"/>
          <note pan="0" len="7" vol="138" key="44" pos="2496"/>
          <note pan="0" len="8" vol="138" key="40" pos="2496"/>
          <note pan="0" len="6" vol="138" key="36" pos="2496"/>
          <note pan="0" len="8" vol="140" key="25" pos="2496"/>
          <note pan="0" len="8" vol="140" key="13" pos="2496"/>
          <note pan="0" len="10" vol="141" key="44" pos="2544"/>
          <note pan="0" len="9" vol="141" key="40" pos="2544"/>
          <note pan="0" len="9" vol="141" key="36" pos="2544"/>
          <note pan="0" len="8" vol="140" key="25" pos="2544"/>
          <note pan="0" len="8" vol="140" key="13" pos="2544"/>
          <note pan="0" len="9" vol="137" key="43" pos="2592"/>
          <note pan="0" len="9" vol="137" key="39" pos="2592"/>
          <note pan="0" len="7" vol="137" key="36" pos="2592"/>
          <note pan="0" len="13" vol="165" key="24" pos="2592"/>
          <note pan="0" len="13" vol="165" key="12" pos="2592"/>
          <note pan="0" len="8" vol="137" key="36" pos="2615"/>
          <note pan="0" len="6" vol="137" key="43" pos="2616"/>
          <note pan="0" len="7" vol="137" key="39" pos="2616"/>
          <note pan="0" len="8" vol="140" key="24" pos="2616"/>
          <note pan="0" len="8" vol="140" key="12" pos="2616"/>
          <note pan="0" len="3" vol="92" key="48" pos="2685"/>
          <note pan="0" len="21" vol="130" key="49" pos="2688"/>
          <note pan="0" len="16" vol="177" key="25" pos="2688"/>
          <note pan="0" len="16" vol="177" key="13" pos="2688"/>
          <note pan="0" len="21" vol="121" key="48" pos="2712"/>
          <note pan="0" len="16" vol="140" key="25" pos="2712"/>
          <note pan="0" len="16" vol="140" key="13" pos="2712"/>
          <note pan="0" len="21" vol="107" key="49" pos="2736"/>
          <note pan="0" len="21" vol="118" key="51" pos="2760"/>
          <note pan="0" len="21" vol="125" key="52" pos="2784"/>
          <note pan="0" len="20" vol="129" key="49" pos="2784"/>
          <note pan="0" len="21" vol="133" key="51" pos="2808"/>
          <note pan="0" len="20" vol="124" key="48" pos="2808"/>
          <note pan="0" len="21" vol="121" key="52" pos="2832"/>
          <note pan="0" len="20" vol="125" key="44" pos="2832"/>
          <note pan="0" len="21" vol="132" key="53" pos="2856"/>
          <note pan="0" len="20" vol="116" key="48" pos="2856"/>
          <note pan="0" len="21" vol="124" key="54" pos="2880"/>
          <note pan="0" len="20" vol="125" key="49" pos="2880"/>
          <note pan="0" len="21" vol="135" key="53" pos="2904"/>
          <note pan="0" len="20" vol="141" key="44" pos="2904"/>
          <note pan="0" len="21" vol="143" key="54" pos="2928"/>
          <note pan="0" len="20" vol="138" key="49" pos="2928"/>
          <note pan="0" len="21" vol="124" key="55" pos="2952"/>
          <note pan="0" len="15" vol="129" key="52" pos="2952"/>
          <note pan="0" len="15" vol="148" key="56" pos="2976"/>
          <note pan="0" len="15" vol="143" key="51" pos="2976"/>
          <note pan="0" len="20" vol="177" key="24" pos="2976"/>
          <note pan="0" len="20" vol="177" key="12" pos="2976"/>
          <note pan="0" len="15" vol="141" key="57" pos="3000"/>
          <note pan="0" len="15" vol="137" key="48" pos="3000"/>
          <note pan="0" len="61" vol="140" key="24" pos="3000"/>
          <note pan="0" len="61" vol="140" key="12" pos="3000"/>
          <note pan="0" len="15" vol="149" key="58" pos="3024"/>
          <note pan="0" len="15" vol="133" key="51" pos="3024"/>
          <note pan="0" len="15" vol="152" key="59" pos="3048"/>
          <note pan="0" len="15" vol="141" key="55" pos="3048"/>
          <note pan="0" len="29" vol="132" key="52" pos="3071"/>
          <note pan="0" len="21" vol="141" key="56" pos="3072"/>
          <note pan="0" len="20" vol="177" key="25" pos="3072"/>
          <note pan="0" len="20" vol="177" key="13" pos="3072"/>
          <note pan="0" len="22" vol="146" key="60" pos="3073"/>
          <note pan="0" len="64" vol="140" key="25" pos="3096"/>
          <note pan="0" len="64" vol="140" key="13" pos="3096"/>
          <note pan="0" len="58" vol="138" key="76" pos="3120"/>
          <note pan="0" len="48" vol="129" key="72" pos="3126"/>
          <note pan="0" len="44" vol="121" key="68" pos="3132"/>
          <note pan="0" len="38" vol="137" key="64" pos="3138"/>
          <note pan="0" len="32" vol="125" key="60" pos="3144"/>
          <note pan="0" len="21" vol="132" key="56" pos="3150"/>
          <note pan="0" len="13" vol="121" key="52" pos="3156"/>
          <note pan="0" len="10" vol="127" key="48" pos="3162"/>
          <note pan="0" len="10" vol="127" key="25" pos="3216"/>
          <note pan="0" len="10" vol="127" key="26" pos="3228"/>
          <note pan="0" len="10" vol="127" key="28" pos="3240"/>
          <note pan="0" len="10" vol="127" key="32" pos="3252"/>
          <note pan="0" len="4" vol="127" key="43" pos="3261"/>
          <note pan="0" len="8" vol="138" key="44" pos="3264"/>
          <note pan="0" len="8" vol="138" key="40" pos="3264"/>
          <note pan="0" len="6" vol="138" key="36" pos="3264"/>
          <note pan="0" len="10" vol="155" key="32" pos="3264"/>
          <note pan="0" len="10" vol="155" key="25" pos="3264"/>
          <note pan="0" len="35" vol="138" key="76" pos="3312"/>
          <note pan="0" len="25" vol="129" key="72" pos="3318"/>
          <note pan="0" len="21" vol="121" key="68" pos="3324"/>
          <note pan="0" len="15" vol="137" key="64" pos="3330"/>
          <note pan="0" len="20" vol="125" key="60" pos="3336"/>
          <note pan="0" len="17" vol="132" key="56" pos="3342"/>
          <note pan="0" len="13" vol="121" key="52" pos="3348"/>
          <note pan="0" len="10" vol="127" key="48" pos="3354"/>
          <note pan="0" len="35" vol="138" key="77" pos="3360"/>
          <note pan="0" len="25" vol="129" key="73" pos="3366"/>
          <note pan="0" len="21" vol="121" key="69" pos="3372"/>
          <note pan="0" len="15" vol="137" key="65" pos="3378"/>
          <note pan="0" len="20" vol="125" key="61" pos="3384"/>
          <note pan="0" len="17" vol="132" key="57" pos="3390"/>
          <note pan="0" len="13" vol="121" key="53" pos="3396"/>
          <note pan="0" len="10" vol="127" key="49" pos="3402"/>
          <note pan="0" len="11" vol="130" key="45" pos="3408"/>
          <note pan="0" len="11" vol="118" key="41" pos="3420"/>
          <note pan="0" len="11" vol="129" key="37" pos="3432"/>
          <note pan="0" len="6" vol="137" key="33" pos="3444"/>
          <note pan="0" len="6" vol="137" key="21" pos="3444"/>
          <note pan="0" len="36" vol="135" key="44" pos="3455"/>
          <note pan="0" len="37" vol="137" key="40" pos="3455"/>
          <note pan="0" len="29" vol="125" key="48" pos="3456"/>
          <note pan="0" len="20" vol="177" key="25" pos="3456"/>
          <note pan="0" len="20" vol="177" key="13" pos="3456"/>
          <note pan="0" len="35" vol="130" key="52" pos="3457"/>
          <note pan="0" len="64" vol="140" key="25" pos="3480"/>
          <note pan="0" len="64" vol="140" key="13" pos="3480"/>
          <note pan="0" len="58" vol="138" key="76" pos="3504"/>
          <note pan="0" len="48" vol="129" key="72" pos="3510"/>
          <note pan="0" len="44" vol="121" key="68" pos="3516"/>
          <note pan="0" len="38" vol="137" key="64" pos="3522"/>
          <note pan="0" len="32" vol="125" key="60" pos="3528"/>
          <note pan="0" len="21" vol="132" key="56" pos="3534"/>
          <note pan="0" len="13" vol="121" key="52" pos="3540"/>
          <note pan="0" len="10" vol="127" key="48" pos="3546"/>
          <note pan="0" len="8" vol="140" key="25" pos="3624"/>
          <note pan="0" len="8" vol="140" key="13" pos="3624"/>
          <note pan="0" len="4" vol="127" key="43" pos="3645"/>
          <note pan="0" len="17" vol="129" key="44" pos="3648"/>
          <note pan="0" len="13" vol="135" key="40" pos="3648"/>
          <note pan="0" len="14" vol="137" key="36" pos="3648"/>
          <note pan="0" len="16" vol="165" key="25" pos="3648"/>
          <note pan="0" len="16" vol="165" key="13" pos="3648"/>
          <note pan="0" len="14" vol="121" key="44" pos="3696"/>
          <note pan="0" len="14" vol="121" key="36" pos="3696"/>
          <note pan="0" len="16" vol="143" key="32" pos="3696"/>
          <note pan="0" len="16" vol="143" key="25" pos="3696"/>
          <note pan="0" len="12" vol="129" key="40" pos="3697"/>
          <note pan="0" len="9" vol="121" key="44" pos="3744"/>
          <note pan="0" len="11" vol="116" key="40" pos="3744"/>
          <note pan="0" len="9" vol="132" key="37" pos="3744"/>
          <note pan="0" len="10" vol="135" key="32" pos="3744"/>
          <note pan="0" len="10" vol="135" key="25" pos="3744"/>
          <note pan="0" len="14" vol="119" key="44" pos="3768"/>
          <note pan="0" len="12" vol="121" key="40" pos="3768"/>
          <note pan="0" len="14" vol="111" key="37" pos="3768"/>
          <note pan="0" len="10" vol="103" key="32" pos="3768"/>
          <note pan="0" len="10" vol="103" key="25" pos="3768"/>
          <note pan="0" len="41" vol="124" key="44" pos="3792"/>
          <note pan="0" len="33" vol="125" key="40" pos="3792"/>
          <note pan="0" len="38" vol="118" key="37" pos="3792"/>
          <note pan="0" len="30" vol="137" key="25" pos="3792"/>
          <note pan="0" len="30" vol="137" key="13" pos="3792"/>
          <note pan="0" len="18" vol="137" key="51" pos="3840"/>
          <note pan="0" len="18" vol="118" key="44" pos="3840"/>
          <note pan="0" len="39" vol="129" key="25" pos="3840"/>
          <note pan="0" len="30" vol="137" key="32" pos="3846"/>
          <note pan="0" len="18" vol="118" key="49" pos="3864"/>
          <note pan="0" len="18" vol="124" key="51" pos="3888"/>
          <note pan="0" len="32" vol="122" key="40" pos="3888"/>
          <note pan="0" len="30" vol="114" key="44" pos="3890"/>
          <note pan="0" len="18" vol="130" key="52" pos="3912"/>
          <note pan="0" len="18" vol="116" key="51" pos="3936"/>
          <note pan="0" len="18" vol="118" key="44" pos="3936"/>
          <note pan="0" len="18" vol="119" key="44" pos="3960"/>
          <note pan="0" len="18" vol="118" key="40" pos="3960"/>
          <note pan="0" len="33" vol="122" key="37" pos="3983"/>
          <note pan="0" len="18" vol="108" key="49" pos="3984"/>
          <note pan="0" len="32" vol="122" key="40" pos="3984"/>
          <note pan="0" len="30" vol="114" key="44" pos="3986"/>
          <note pan="0" len="18" vol="130" key="52" pos="4008"/>
          <note pan="0" len="18" vol="125" key="51" pos="4032"/>
          <note pan="0" len="18" vol="118" key="44" pos="4032"/>
          <note pan="0" len="18" vol="113" key="49" pos="4056"/>
          <note pan="0" len="18" vol="118" key="44" pos="4056"/>
          <note pan="0" len="30" vol="114" key="32" pos="4078"/>
          <note pan="0" len="33" vol="137" key="37" pos="4079"/>
          <note pan="0" len="18" vol="122" key="51" pos="4080"/>
          <note pan="0" len="17" vol="118" key="47" pos="4080"/>
          <note pan="0" len="32" vol="137" key="40" pos="4080"/>
          <note pan="0" len="18" vol="127" key="52" pos="4104"/>
          <note pan="0" len="17" vol="118" key="49" pos="4104"/>
          <note pan="0" len="60" vol="140" key="56" pos="4128"/>
          <note pan="0" len="56" vol="118" key="52" pos="4128"/>
          <note pan="0" len="33" vol="122" key="37" pos="4175"/>
          <note pan="0" len="32" vol="122" key="40" pos="4176"/>
          <note pan="0" len="30" vol="132" key="44" pos="4178"/>
          <note pan="0" len="18" vol="113" key="49" pos="4200"/>
          <note pan="0" len="18" vol="133" key="51" pos="4224"/>
          <note pan="0" len="19" vol="118" key="44" pos="4224"/>
          <note pan="0" len="14" vol="129" key="13" pos="4224"/>
          <note pan="0" len="12" vol="129" key="25" pos="4227"/>
          <note pan="0" len="18" vol="122" key="49" pos="4248"/>
          <note pan="0" len="18" vol="116" key="32" pos="4248"/>
          <note pan="0" len="18" vol="119" key="25" pos="4248"/>
          <note pan="0" len="18" vol="118" key="51" pos="4272"/>
          <note pan="0" len="19" vol="118" key="44" pos="4272"/>
          <note pan="0" len="18" vol="111" key="32" pos="4272"/>
          <note pan="0" len="18" vol="103" key="25" pos="4272"/>
          <note pan="0" len="18" vol="129" key="52" pos="4296"/>
          <note pan="0" len="19" vol="118" key="47" pos="4296"/>
          <note pan="0" len="18" vol="116" key="32" pos="4296"/>
          <note pan="0" len="18" vol="107" key="25" pos="4296"/>
          <note pan="0" len="18" vol="127" key="51" pos="4320"/>
          <note pan="0" len="19" vol="118" key="44" pos="4320"/>
          <note pan="0" len="18" vol="94" key="32" pos="4320"/>
          <note pan="0" len="18" vol="88" key="25" pos="4320"/>
          <note pan="0" len="18" vol="119" key="44" pos="4344"/>
          <note pan="0" len="19" vol="118" key="39" pos="4344"/>
          <note pan="0" len="18" vol="111" key="32" pos="4344"/>
          <note pan="0" len="18" vol="102" key="25" pos="4344"/>
          <note pan="0" len="18" vol="129" key="49" pos="4368"/>
          <note pan="0" len="19" vol="118" key="44" pos="4368"/>
          <note pan="0" len="18" vol="103" key="32" pos="4368"/>
          <note pan="0" len="18" vol="118" key="25" pos="4368"/>
          <note pan="0" len="18" vol="137" key="52" pos="4392"/>
          <note pan="0" len="19" vol="118" key="49" pos="4392"/>
          <note pan="0" len="18" vol="105" key="32" pos="4392"/>
          <note pan="0" len="18" vol="103" key="25" pos="4392"/>
          <note pan="0" len="18" vol="129" key="28" pos="4414"/>
          <note pan="0" len="33" vol="140" key="51" pos="4416"/>
          <note pan="0" len="41" vol="125" key="44" pos="4416"/>
          <note pan="0" len="18" vol="129" key="32" pos="4416"/>
          <note pan="0" len="18" vol="129" key="37" pos="4417"/>
          <note pan="0" len="18" vol="129" key="28" pos="4462"/>
          <note pan="0" len="25" vol="130" key="49" pos="4464"/>
          <note pan="0" len="24" vol="111" key="44" pos="4464"/>
          <note pan="0" len="18" vol="129" key="32" pos="4464"/>
          <note pan="0" len="18" vol="129" key="37" pos="4465"/>
          <note pan="0" len="15" vol="121" key="44" pos="4512"/>
          <note pan="0" len="15" vol="121" key="40" pos="4512"/>
          <note pan="0" len="15" vol="127" key="32" pos="4512"/>
          <note pan="0" len="12" vol="129" key="25" pos="4512"/>
          <note pan="0" len="14" vol="129" key="13" pos="4512"/>
          <note pan="0" len="15" vol="108" key="40" pos="4535"/>
          <note pan="0" len="15" vol="111" key="44" pos="4536"/>
          <note pan="0" len="12" vol="129" key="25" pos="4536"/>
          <note pan="0" len="14" vol="129" key="13" pos="4536"/>
          <note pan="0" len="15" vol="113" key="32" pos="4537"/>
          <note pan="0" len="30" vol="121" key="40" pos="4559"/>
          <note pan="0" len="28" vol="116" key="44" pos="4560"/>
          <note pan="0" len="26" vol="127" key="32" pos="4560"/>
          <note pan="0" len="42" vol="129" key="13" pos="4560"/>
          <note pan="0" len="40" vol="129" key="25" pos="4561"/>
          <note pan="0" len="20" vol="130" key="72" pos="4608"/>
          <note pan="0" len="22" vol="149" key="13" pos="4608"/>
          <note pan="0" len="18" vol="140" key="25" pos="4610"/>
          <note pan="0" len="20" vol="114" key="68" pos="4632"/>
          <note pan="0" len="20" vol="111" key="64" pos="4656"/>
          <note pan="0" len="12" vol="125" key="40" pos="4656"/>
          <note pan="0" len="20" vol="107" key="63" pos="4680"/>
          <note pan="0" len="22" vol="138" key="37" pos="4680"/>
          <note pan="0" len="22" vol="138" key="32" pos="4680"/>
          <note pan="0" len="20" vol="111" key="72" pos="4704"/>
          <note pan="0" len="20" vol="122" key="68" pos="4728"/>
          <note pan="0" len="20" vol="110" key="64" pos="4752"/>
          <note pan="0" len="22" vol="137" key="40" pos="4752"/>
          <note pan="0" len="20" vol="125" key="63" pos="4776"/>
          <note pan="0" len="20" vol="130" key="72" pos="4800"/>
          <note pan="0" len="22" vol="138" key="32" pos="4800"/>
          <note pan="0" len="20" vol="114" key="68" pos="4824"/>
          <note pan="0" len="22" vol="111" key="28" pos="4824"/>
          <note pan="0" len="20" vol="111" key="64" pos="4848"/>
          <note pan="0" len="22" vol="130" key="40" pos="4848"/>
          <note pan="0" len="20" vol="107" key="63" pos="4872"/>
          <note pan="0" len="22" vol="140" key="37" pos="4872"/>
          <note pan="0" len="22" vol="140" key="32" pos="4872"/>
          <note pan="0" len="20" vol="111" key="72" pos="4896"/>
          <note pan="0" len="20" vol="122" key="68" pos="4920"/>
          <note pan="0" len="20" vol="110" key="64" pos="4944"/>
          <note pan="0" len="12" vol="129" key="40" pos="4944"/>
          <note pan="0" len="12" vol="129" key="37" pos="4944"/>
          <note pan="0" len="13" vol="129" key="32" pos="4944"/>
          <note pan="0" len="20" vol="125" key="63" pos="4968"/>
          <note pan="0" len="6" vol="140" key="25" pos="4989"/>
          <note pan="0" len="20" vol="130" key="72" pos="4992"/>
          <note pan="0" len="7" vol="132" key="32" pos="4992"/>
          <note pan="0" len="12" vol="146" key="40" pos="4994"/>
          <note pan="0" len="20" vol="114" key="68" pos="5016"/>
          <note pan="0" len="12" vol="133" key="37" pos="5021"/>
          <note pan="0" len="12" vol="132" key="40" pos="5022"/>
          <note pan="0" len="12" vol="124" key="44" pos="5023"/>
          <note pan="0" len="20" vol="111" key="64" pos="5040"/>
          <note pan="0" len="20" vol="107" key="63" pos="5064"/>
          <note pan="0" len="12" vol="122" key="40" pos="5064"/>
          <note pan="0" len="12" vol="116" key="37" pos="5064"/>
          <note pan="0" len="13" vol="124" key="44" pos="5065"/>
          <note pan="0" len="20" vol="111" key="72" pos="5088"/>
          <note pan="0" len="20" vol="122" key="68" pos="5112"/>
          <note pan="0" len="12" vol="119" key="40" pos="5112"/>
          <note pan="0" len="12" vol="125" key="37" pos="5112"/>
          <note pan="0" len="13" vol="111" key="44" pos="5113"/>
          <note pan="0" len="20" vol="110" key="64" pos="5136"/>
          <note pan="0" len="20" vol="125" key="63" pos="5160"/>
          <note pan="0" len="12" vol="118" key="40" pos="5160"/>
          <note pan="0" len="12" vol="119" key="37" pos="5160"/>
          <note pan="0" len="13" vol="121" key="44" pos="5161"/>
          <note pan="0" len="20" vol="130" key="72" pos="5184"/>
          <note pan="0" len="20" vol="114" key="68" pos="5208"/>
          <note pan="0" len="12" vol="121" key="40" pos="5208"/>
          <note pan="0" len="12" vol="125" key="37" pos="5208"/>
          <note pan="0" len="13" vol="119" key="44" pos="5209"/>
          <note pan="0" len="20" vol="111" key="64" pos="5232"/>
          <note pan="0" len="20" vol="107" key="63" pos="5256"/>
          <note pan="0" len="12" vol="124" key="40" pos="5256"/>
          <note pan="0" len="12" vol="130" key="37" pos="5256"/>
          <note pan="0" len="13" vol="122" key="44" pos="5257"/>
          <note pan="0" len="20" vol="111" key="72" pos="5280"/>
          <note pan="0" len="20" vol="122" key="68" pos="5304"/>
          <note pan="0" len="12" vol="122" key="40" pos="5304"/>
          <note pan="0" len="12" vol="127" key="37" pos="5304"/>
          <note pan="0" len="13" vol="135" key="44" pos="5305"/>
          <note pan="0" len="20" vol="110" key="64" pos="5328"/>
          <note pan="0" len="20" vol="125" key="63" pos="5352"/>
          <note pan="0" len="4" vol="78" key="72" pos="5374"/>
          <note pan="0" len="20" vol="118" key="73" pos="5376"/>
          <note pan="0" len="112" vol="121" key="37" pos="5376"/>
          <note pan="0" len="15" vol="118" key="25" pos="5376"/>
          <note pan="0" len="20" vol="67" key="68" pos="5400"/>
          <note pan="0" len="14" vol="92" key="25" pos="5400"/>
          <note pan="0" len="20" vol="47" key="64" pos="5424"/>
          <note pan="0" len="14" vol="94" key="25" pos="5424"/>
          <note pan="0" len="20" vol="39" key="63" pos="5448"/>
          <note pan="0" len="14" vol="88" key="25" pos="5448"/>
          <note pan="0" len="20" vol="48" key="72" pos="5472"/>
          <note pan="0" len="15" vol="89" key="25" pos="5472"/>
          <note pan="0" len="20" vol="62" key="68" pos="5496"/>
          <note pan="0" len="61" vol="114" key="37" pos="5496"/>
          <note pan="0" len="14" vol="103" key="25" pos="5496"/>
          <note pan="0" len="20" vol="45" key="64" pos="5520"/>
          <note pan="0" len="14" vol="86" key="25" pos="5520"/>
          <note pan="0" len="20" vol="58" key="63" pos="5544"/>
          <note pan="0" len="14" vol="96" key="25" pos="5544"/>
          <note pan="0" len="20" vol="75" key="72" pos="5568"/>
          <note pan="0" len="91" vol="108" key="37" pos="5568"/>
          <note pan="0" len="15" vol="103" key="25" pos="5568"/>
          <note pan="0" len="20" vol="67" key="68" pos="5592"/>
          <note pan="0" len="14" vol="86" key="25" pos="5592"/>
          <note pan="0" len="20" vol="47" key="64" pos="5616"/>
          <note pan="0" len="14" vol="91" key="25" pos="5616"/>
          <note pan="0" len="20" vol="39" key="63" pos="5640"/>
          <note pan="0" len="14" vol="97" key="25" pos="5640"/>
          <note pan="0" len="20" vol="48" key="72" pos="5664"/>
          <note pan="0" len="12" vol="107" key="31" pos="5664"/>
          <note pan="0" len="20" vol="62" key="68" pos="5688"/>
          <note pan="0" len="61" vol="122" key="43" pos="5688"/>
          <note pan="0" len="14" vol="118" key="31" pos="5688"/>
          <note pan="0" len="20" vol="45" key="64" pos="5712"/>
          <note pan="0" len="14" vol="91" key="31" pos="5712"/>
          <note pan="0" len="20" vol="58" key="63" pos="5736"/>
          <note pan="0" len="14" vol="102" key="31" pos="5736"/>
          <note pan="0" len="20" vol="75" key="72" pos="5760"/>
          <note pan="0" len="105" vol="124" key="44" pos="5760"/>
          <note pan="0" len="12" vol="119" key="32" pos="5760"/>
          <note pan="0" len="20" vol="67" key="68" pos="5784"/>
          <note pan="0" len="14" vol="97" key="32" pos="5784"/>
          <note pan="0" len="20" vol="47" key="64" pos="5808"/>
          <note pan="0" len="14" vol="88" key="32" pos="5808"/>
          <note pan="0" len="20" vol="39" key="63" pos="5832"/>
          <note pan="0" len="14" vol="94" key="32" pos="5832"/>
          <note pan="0" len="20" vol="48" key="72" pos="5856"/>
          <note pan="0" len="14" vol="105" key="32" pos="5856"/>
          <note pan="0" len="20" vol="62" key="68" pos="5880"/>
          <note pan="0" len="61" vol="121" key="44" pos="5880"/>
          <note pan="0" len="14" vol="118" key="32" pos="5880"/>
          <note pan="0" len="20" vol="45" key="64" pos="5904"/>
          <note pan="0" len="14" vol="89" key="32" pos="5904"/>
          <note pan="0" len="20" vol="58" key="63" pos="5928"/>
          <note pan="0" len="14" vol="94" key="32" pos="5928"/>
          <note pan="0" len="20" vol="75" key="72" pos="5952"/>
          <note pan="0" len="109" vol="119" key="38" pos="5952"/>
          <note pan="0" len="12" vol="113" key="26" pos="5952"/>
          <note pan="0" len="20" vol="67" key="68" pos="5976"/>
          <note pan="0" len="13" vol="92" key="26" pos="5976"/>
          <note pan="0" len="20" vol="47" key="64" pos="6000"/>
          <note pan="0" len="13" vol="103" key="26" pos="6000"/>
          <note pan="0" len="20" vol="39" key="63" pos="6024"/>
          <note pan="0" len="13" vol="97" key="26" pos="6024"/>
          <note pan="0" len="20" vol="48" key="72" pos="6048"/>
          <note pan="0" len="13" vol="89" key="26" pos="6048"/>
          <note pan="0" len="20" vol="62" key="68" pos="6072"/>
          <note pan="0" len="61" vol="125" key="38" pos="6072"/>
          <note pan="0" len="13" vol="116" key="26" pos="6072"/>
          <note pan="0" len="20" vol="45" key="64" pos="6096"/>
          <note pan="0" len="13" vol="85" key="26" pos="6096"/>
          <note pan="0" len="20" vol="58" key="63" pos="6120"/>
          <note pan="0" len="13" vol="91" key="26" pos="6120"/>
          <note pan="0" len="20" vol="118" key="73" pos="6144"/>
          <note pan="0" len="31" vol="118" key="37" pos="6144"/>
          <note pan="0" len="31" vol="118" key="25" pos="6144"/>
          <note pan="0" len="20" vol="80" key="68" pos="6168"/>
          <note pan="0" len="20" vol="94" key="64" pos="6192"/>
          <note pan="0" len="13" vol="94" key="49" pos="6192"/>
          <note pan="0" len="13" vol="94" key="37" pos="6192"/>
          <note pan="0" len="20" vol="75" key="63" pos="6216"/>
          <note pan="0" len="13" vol="88" key="49" pos="6216"/>
          <note pan="0" len="13" vol="88" key="37" pos="6216"/>
          <note pan="0" len="20" vol="78" key="72" pos="6240"/>
          <note pan="0" len="16" vol="89" key="49" pos="6240"/>
          <note pan="0" len="16" vol="89" key="37" pos="6240"/>
          <note pan="0" len="20" vol="97" key="68" pos="6264"/>
          <note pan="0" len="13" vol="103" key="49" pos="6264"/>
          <note pan="0" len="13" vol="103" key="37" pos="6264"/>
          <note pan="0" len="20" vol="105" key="64" pos="6288"/>
          <note pan="0" len="13" vol="86" key="49" pos="6288"/>
          <note pan="0" len="13" vol="86" key="37" pos="6288"/>
          <note pan="0" len="20" vol="94" key="63" pos="6312"/>
          <note pan="0" len="13" vol="96" key="49" pos="6312"/>
          <note pan="0" len="13" vol="96" key="37" pos="6312"/>
          <note pan="0" len="20" vol="96" key="72" pos="6336"/>
          <note pan="0" len="16" vol="103" key="49" pos="6336"/>
          <note pan="0" len="16" vol="103" key="37" pos="6336"/>
          <note pan="0" len="20" vol="111" key="68" pos="6360"/>
          <note pan="0" len="13" vol="86" key="49" pos="6360"/>
          <note pan="0" len="13" vol="86" key="37" pos="6360"/>
          <note pan="0" len="20" vol="96" key="64" pos="6384"/>
          <note pan="0" len="13" vol="91" key="49" pos="6384"/>
          <note pan="0" len="13" vol="91" key="37" pos="6384"/>
          <note pan="0" len="20" vol="75" key="63" pos="6408"/>
          <note pan="0" len="13" vol="97" key="49" pos="6408"/>
          <note pan="0" len="13" vol="97" key="37" pos="6408"/>
          <note pan="0" len="20" vol="99" key="72" pos="6432"/>
          <note pan="0" len="13" vol="107" key="43" pos="6432"/>
          <note pan="0" len="13" vol="107" key="31" pos="6432"/>
          <note pan="0" len="20" vol="116" key="68" pos="6456"/>
          <note pan="0" len="13" vol="118" key="43" pos="6456"/>
          <note pan="0" len="13" vol="118" key="31" pos="6456"/>
          <note pan="0" len="20" vol="94" key="64" pos="6480"/>
          <note pan="0" len="13" vol="91" key="43" pos="6480"/>
          <note pan="0" len="13" vol="91" key="31" pos="6480"/>
          <note pan="0" len="20" vol="108" key="63" pos="6504"/>
          <note pan="0" len="13" vol="102" key="43" pos="6504"/>
          <note pan="0" len="13" vol="102" key="31" pos="6504"/>
          <note pan="0" len="15" vol="125" key="72" pos="6528"/>
          <note pan="0" len="13" vol="118" key="64" pos="6528"/>
          <note pan="0" len="31" vol="118" key="32" pos="6528"/>
          <note pan="0" len="31" vol="118" key="20" pos="6528"/>
          <note pan="0" len="15" vol="111" key="68" pos="6552"/>
          <note pan="0" len="13" vol="111" key="63" pos="6552"/>
          <note pan="0" len="15" vol="113" key="72" pos="6576"/>
          <note pan="0" len="13" vol="103" key="64" pos="6576"/>
          <note pan="0" len="13" vol="88" key="44" pos="6576"/>
          <note pan="0" len="13" vol="88" key="32" pos="6576"/>
          <note pan="0" len="15" vol="105" key="68" pos="6600"/>
          <note pan="0" len="13" vol="110" key="63" pos="6600"/>
          <note pan="0" len="13" vol="94" key="44" pos="6600"/>
          <note pan="0" len="13" vol="94" key="32" pos="6600"/>
          <note pan="0" len="15" vol="113" key="72" pos="6624"/>
          <note pan="0" len="13" vol="97" key="64" pos="6624"/>
          <note pan="0" len="13" vol="105" key="44" pos="6624"/>
          <note pan="0" len="13" vol="105" key="32" pos="6624"/>
          <note pan="0" len="15" vol="121" key="68" pos="6648"/>
          <note pan="0" len="13" vol="108" key="63" pos="6648"/>
          <note pan="0" len="13" vol="118" key="44" pos="6648"/>
          <note pan="0" len="13" vol="118" key="32" pos="6648"/>
          <note pan="0" len="15" vol="111" key="72" pos="6672"/>
          <note pan="0" len="13" vol="110" key="64" pos="6672"/>
          <note pan="0" len="13" vol="89" key="44" pos="6672"/>
          <note pan="0" len="13" vol="89" key="32" pos="6672"/>
          <note pan="0" len="15" vol="102" key="68" pos="6696"/>
          <note pan="0" len="13" vol="103" key="63" pos="6696"/>
          <note pan="0" len="13" vol="94" key="44" pos="6696"/>
          <note pan="0" len="13" vol="94" key="32" pos="6696"/>
          <note pan="0" len="15" vol="110" key="72" pos="6720"/>
          <note pan="0" len="13" vol="97" key="64" pos="6720"/>
          <note pan="0" len="27" vol="113" key="38" pos="6720"/>
          <note pan="0" len="27" vol="113" key="26" pos="6720"/>
          <note pan="0" len="15" vol="116" key="68" pos="6744"/>
          <note pan="0" len="13" vol="99" key="63" pos="6744"/>
          <note pan="0" len="15" vol="110" key="72" pos="6768"/>
          <note pan="0" len="13" vol="99" key="64" pos="6768"/>
          <note pan="0" len="13" vol="103" key="45" pos="6768"/>
          <note pan="0" len="13" vol="103" key="38" pos="6768"/>
          <note pan="0" len="15" vol="105" key="68" pos="6792"/>
          <note pan="0" len="13" vol="96" key="63" pos="6792"/>
          <note pan="0" len="13" vol="97" key="45" pos="6792"/>
          <note pan="0" len="13" vol="97" key="38" pos="6792"/>
          <note pan="0" len="15" vol="94" key="72" pos="6816"/>
          <note pan="0" len="13" vol="81" key="64" pos="6816"/>
          <note pan="0" len="13" vol="89" key="45" pos="6816"/>
          <note pan="0" len="13" vol="89" key="38" pos="6816"/>
          <note pan="0" len="15" vol="91" key="68" pos="6840"/>
          <note pan="0" len="13" vol="86" key="63" pos="6840"/>
          <note pan="0" len="13" vol="116" key="45" pos="6840"/>
          <note pan="0" len="13" vol="116" key="38" pos="6840"/>
          <note pan="0" len="13" vol="80" key="64" pos="6864"/>
          <note pan="0" len="30" vol="85" key="45" pos="6864"/>
          <note pan="0" len="30" vol="85" key="38" pos="6864"/>
          <note pan="0" len="15" vol="86" key="68" pos="6866"/>
          <note pan="0" len="15" vol="86" key="72" pos="6869"/>
          <note pan="0" len="12" vol="88" key="62" pos="6912"/>
          <note pan="0" len="30" vol="129" key="38" pos="6912"/>
          <note pan="0" len="30" vol="129" key="26" pos="6912"/>
          <note pan="0" len="12" vol="86" key="63" pos="6924"/>
          <note pan="0" len="12" vol="94" key="57" pos="6936"/>
          <note pan="0" len="12" vol="96" key="53" pos="6948"/>
          <note pan="0" len="12" vol="92" key="50" pos="6960"/>
          <note pan="0" len="30" vol="100" key="38" pos="6960"/>
          <note pan="0" len="30" vol="100" key="26" pos="6960"/>
          <note pan="0" len="12" vol="86" key="53" pos="6972"/>
          <note pan="0" len="12" vol="100" key="57" pos="6984"/>
          <note pan="0" len="12" vol="88" key="63" pos="6996"/>
          <note pan="0" len="12" vol="89" key="62" pos="7008"/>
          <note pan="0" len="12" vol="67" key="65" pos="7020"/>
          <note pan="0" len="12" vol="81" key="69" pos="7032"/>
          <note pan="0" len="30" vol="91" key="38" pos="7032"/>
          <note pan="0" len="30" vol="91" key="26" pos="7032"/>
          <note pan="0" len="12" vol="78" key="75" pos="7044"/>
          <note pan="0" len="12" vol="89" key="74" pos="7056"/>
          <note pan="0" len="12" vol="88" key="65" pos="7068"/>
          <note pan="0" len="12" vol="96" key="62" pos="7080"/>
          <note pan="0" len="19" vol="100" key="40" pos="7080"/>
          <note pan="0" len="19" vol="100" key="38" pos="7080"/>
          <note pan="0" len="12" vol="86" key="65" pos="7092"/>
          <note pan="0" len="12" vol="92" key="61" pos="7104"/>
          <note pan="0" len="29" vol="113" key="45" pos="7104"/>
          <note pan="0" len="29" vol="113" key="38" pos="7104"/>
          <note pan="0" len="12" vol="89" key="53" pos="7116"/>
          <note pan="0" len="12" vol="64" key="50" pos="7128"/>
          <note pan="0" len="12" vol="72" key="53" pos="7140"/>
          <note pan="0" len="12" vol="67" key="57" pos="7152"/>
          <note pan="0" len="29" vol="75" key="45" pos="7152"/>
          <note pan="0" len="29" vol="75" key="38" pos="7152"/>
          <note pan="0" len="12" vol="91" key="63" pos="7164"/>
          <note pan="0" len="12" vol="77" key="62" pos="7176"/>
          <note pan="0" len="12" vol="83" key="63" pos="7188"/>
          <note pan="0" len="12" vol="67" key="69" pos="7200"/>
          <note pan="0" len="29" vol="85" key="45" pos="7200"/>
          <note pan="0" len="29" vol="85" key="38" pos="7200"/>
          <note pan="0" len="12" vol="88" key="75" pos="7212"/>
          <note pan="0" len="12" vol="91" key="76" pos="7224"/>
          <note pan="0" len="12" vol="94" key="81" pos="7236"/>
          <note pan="0" len="29" vol="81" key="46" pos="7248"/>
          <note pan="0" len="29" vol="81" key="39" pos="7248"/>
          <note pan="0" len="12" vol="81" key="75" pos="7260"/>
          <note pan="0" len="12" vol="92" key="76" pos="7272"/>
          <note pan="0" len="12" vol="102" key="81" pos="7284"/>
          <note pan="0" len="17" vol="88" key="64" pos="7296"/>
          <note pan="0" len="17" vol="86" key="67" pos="7298"/>
          <note pan="0" len="24" vol="86" key="71" pos="7299"/>
          <note pan="0" len="19" vol="94" key="76" pos="7300"/>
          <note pan="0" len="20" vol="92" key="79" pos="7302"/>
          <note pan="0" len="19" vol="92" key="83" pos="7304"/>
          <note pan="0" len="17" vol="81" key="59" pos="7332"/>
          <note pan="0" len="17" vol="81" key="64" pos="7334"/>
          <note pan="0" len="24" vol="81" key="67" pos="7335"/>
          <note pan="0" len="19" vol="77" key="71" pos="7336"/>
          <note pan="0" len="20" vol="77" key="76" pos="7338"/>
          <note pan="0" len="19" vol="77" key="79" pos="7340"/>
          <note pan="0" len="17" vol="86" key="55" pos="7368"/>
          <note pan="0" len="17" vol="86" key="59" pos="7370"/>
          <note pan="0" len="24" vol="86" key="64" pos="7371"/>
          <note pan="0" len="19" vol="78" key="67" pos="7372"/>
          <note pan="0" len="20" vol="78" key="71" pos="7374"/>
          <note pan="0" len="19" vol="78" key="76" pos="7376"/>
          <note pan="0" len="17" vol="91" key="52" pos="7404"/>
          <note pan="0" len="17" vol="91" key="55" pos="7406"/>
          <note pan="0" len="24" vol="91" key="59" pos="7407"/>
          <note pan="0" len="19" vol="91" key="64" pos="7408"/>
          <note pan="0" len="20" vol="91" key="67" pos="7410"/>
          <note pan="0" len="19" vol="91" key="71" pos="7412"/>
          <note pan="0" len="17" vol="78" key="47" pos="7440"/>
          <note pan="0" len="17" vol="78" key="52" pos="7442"/>
          <note pan="0" len="24" vol="78" key="55" pos="7443"/>
          <note pan="0" len="19" vol="85" key="59" pos="7444"/>
          <note pan="0" len="20" vol="86" key="64" pos="7446"/>
          <note pan="0" len="19" vol="86" key="67" pos="7448"/>
          <note pan="0" len="7" vol="78" key="52" pos="7476"/>
          <note pan="0" len="20" vol="94" key="68" pos="7488"/>
          <note pan="0" len="17" vol="99" key="56" pos="7488"/>
          <note pan="0" len="17" vol="100" key="52" pos="7488"/>
          <note pan="0" len="20" vol="94" key="72" pos="7489"/>
          <note pan="0" len="19" vol="94" key="64" pos="7489"/>
          <note pan="0" len="24" vol="99" key="60" pos="7489"/>
          <note pan="0" len="20" vol="85" key="68" pos="7524"/>
          <note pan="0" len="17" vol="83" key="48" pos="7524"/>
          <note pan="0" len="20" vol="85" key="72" pos="7525"/>
          <note pan="0" len="19" vol="85" key="64" pos="7525"/>
          <note pan="0" len="24" vol="83" key="60" pos="7525"/>
          <note pan="0" len="20" vol="88" key="68" pos="7560"/>
          <note pan="0" len="21" vol="129" key="44" pos="7560"/>
          <note pan="0" len="20" vol="89" key="72" pos="7561"/>
          <note pan="0" len="19" vol="89" key="64" pos="7561"/>
          <note pan="0" len="24" vol="85" key="60" pos="7561"/>
          <note pan="0" len="20" vol="81" key="68" pos="7596"/>
          <note pan="0" len="21" vol="129" key="40" pos="7596"/>
          <note pan="0" len="20" vol="81" key="72" pos="7597"/>
          <note pan="0" len="19" vol="81" key="64" pos="7597"/>
          <note pan="0" len="24" vol="94" key="60" pos="7597"/>
          <note pan="0" len="20" vol="81" key="68" pos="7632"/>
          <note pan="0" len="21" vol="129" key="36" pos="7632"/>
          <note pan="0" len="20" vol="81" key="72" pos="7633"/>
          <note pan="0" len="19" vol="81" key="64" pos="7633"/>
          <note pan="0" len="24" vol="89" key="60" pos="7633"/>
          <note pan="0" len="16" vol="129" key="40" pos="7656"/>
          <note pan="0" len="16" vol="129" key="28" pos="7656"/>
          <note pan="0" len="12" vol="96" key="65" pos="7680"/>
          <note pan="0" len="30" vol="129" key="41" pos="7680"/>
          <note pan="0" len="30" vol="129" key="29" pos="7680"/>
          <note pan="0" len="12" vol="89" key="64" pos="7692"/>
          <note pan="0" len="12" vol="88" key="60" pos="7704"/>
          <note pan="0" len="12" vol="62" key="56" pos="7716"/>
          <note pan="0" len="12" vol="88" key="53" pos="7728"/>
          <note pan="0" len="30" vol="100" key="41" pos="7728"/>
          <note pan="0" len="30" vol="100" key="29" pos="7728"/>
          <note pan="0" len="12" vol="77" key="56" pos="7740"/>
          <note pan="0" len="12" vol="91" key="60" pos="7752"/>
          <note pan="0" len="12" vol="97" key="64" pos="7764"/>
          <note pan="0" len="12" vol="102" key="65" pos="7776"/>
          <note pan="0" len="12" vol="83" key="68" pos="7788"/>
          <note pan="0" len="12" vol="86" key="72" pos="7800"/>
          <note pan="0" len="30" vol="91" key="41" pos="7800"/>
          <note pan="0" len="30" vol="91" key="29" pos="7800"/>
          <note pan="0" len="12" vol="70" key="76" pos="7812"/>
          <note pan="0" len="12" vol="89" key="72" pos="7824"/>
          <note pan="0" len="12" vol="83" key="68" pos="7836"/>
          <note pan="0" len="12" vol="107" key="65" pos="7848"/>
          <note pan="0" len="19" vol="100" key="43" pos="7848"/>
          <note pan="0" len="19" vol="100" key="41" pos="7848"/>
          <note pan="0" len="12" vol="97" key="72" pos="7872"/>
          <note pan="0" len="29" vol="113" key="48" pos="7872"/>
          <note pan="0" len="29" vol="113" key="41" pos="7872"/>
          <note pan="0" len="12" vol="80" key="68" pos="7884"/>
          <note pan="0" len="12" vol="100" key="65" pos="7896"/>
          <note pan="0" len="12" vol="92" key="60" pos="7908"/>
          <note pan="0" len="12" vol="83" key="53" pos="7920"/>
          <note pan="0" len="29" vol="92" key="48" pos="7920"/>
          <note pan="0" len="29" vol="92" key="41" pos="7920"/>
          <note pan="0" len="12" vol="85" key="56" pos="7932"/>
          <note pan="0" len="12" vol="77" key="60" pos="7944"/>
          <note pan="0" len="12" vol="94" key="64" pos="7956"/>
          <note pan="0" len="12" vol="110" key="65" pos="7968"/>
          <note pan="0" len="18" vol="107" key="48" pos="7968"/>
          <note pan="0" len="12" vol="94" key="68" pos="7980"/>
          <note pan="0" len="12" vol="85" key="72" pos="7992"/>
          <note pan="0" len="18" vol="97" key="44" pos="7992"/>
          <note pan="0" len="12" vol="91" key="76" pos="8004"/>
          <note pan="0" len="18" vol="89" key="77" pos="8016"/>
          <note pan="0" len="18" vol="113" key="48" pos="8016"/>
          <note pan="0" len="18" vol="91" key="43" pos="8040"/>
          <note pan="0" len="12" vol="94" key="65" pos="8064"/>
          <note pan="0" len="149" vol="133" key="41" pos="8064"/>
          <note pan="0" len="139" vol="133" key="48" pos="8066"/>
          <note pan="0" len="12" vol="91" key="64" pos="8076"/>
          <note pan="0" len="12" vol="81" key="60" pos="8088"/>
          <note pan="0" len="12" vol="89" key="56" pos="8100"/>
          <note pan="0" len="12" vol="100" key="53" pos="8112"/>
          <note pan="0" len="12" vol="78" key="56" pos="8124"/>
          <note pan="0" len="12" vol="78" key="60" pos="8136"/>
          <note pan="0" len="12" vol="61" key="64" pos="8148"/>
          <note pan="0" len="12" vol="61" key="65" pos="8160"/>
          <note pan="0" len="12" vol="69" key="68" pos="8172"/>
          <note pan="0" len="12" vol="78" key="72" pos="8184"/>
          <note pan="0" len="12" vol="66" key="76" pos="8196"/>
          <note pan="0" len="12" vol="86" key="72" pos="8208"/>
          <note pan="0" len="12" vol="62" key="68" pos="8220"/>
          <note pan="0" len="12" vol="85" key="65" pos="8232"/>
          <note pan="0" len="44" vol="125" key="44" pos="8232"/>
          <note pan="0" len="12" vol="86" key="68" pos="8244"/>
          <note pan="0" len="12" vol="72" key="60" pos="8256"/>
          <note pan="0" len="44" vol="107" key="48" pos="8256"/>
          <note pan="0" len="12" vol="72" key="56" pos="8268"/>
          <note pan="0" len="12" vol="80" key="53" pos="8280"/>
          <note pan="0" len="44" vol="132" key="52" pos="8280"/>
          <note pan="0" len="12" vol="86" key="56" pos="8292"/>
          <note pan="0" len="12" vol="72" key="60" pos="8304"/>
          <note pan="0" len="12" vol="83" key="64" pos="8316"/>
          <note pan="0" len="12" vol="94" key="65" pos="8328"/>
          <note pan="0" len="30" vol="122" key="48" pos="8328"/>
          <note pan="0" len="12" vol="70" key="68" pos="8340"/>
          <note pan="0" len="12" vol="58" key="72" pos="8352"/>
          <note pan="0" len="23" vol="85" key="44" pos="8352"/>
          <note pan="0" len="12" vol="77" key="76" pos="8364"/>
          <note pan="0" len="12" vol="55" key="72" pos="8376"/>
          <note pan="0" len="14" vol="91" key="40" pos="8376"/>
          <note pan="0" len="12" vol="69" key="68" pos="8388"/>
          <note pan="0" len="12" vol="80" key="65" pos="8400"/>
          <note pan="0" len="19" vol="108" key="36" pos="8400"/>
          <note pan="0" len="12" vol="83" key="64" pos="8412"/>
          <note pan="0" len="12" vol="81" key="60" pos="8424"/>
          <note pan="0" len="22" vol="86" key="32" pos="8424"/>
          <note pan="0" len="12" vol="77" key="56" pos="8436"/>
          <note pan="0" len="12" vol="88" key="60" pos="8448"/>
          <note pan="0" len="30" vol="137" key="36" pos="8448"/>
          <note pan="0" len="30" vol="137" key="24" pos="8448"/>
          <note pan="0" len="12" vol="86" key="61" pos="8460"/>
          <note pan="0" len="12" vol="94" key="55" pos="8472"/>
          <note pan="0" len="12" vol="96" key="51" pos="8484"/>
          <note pan="0" len="29" vol="135" key="36" pos="8494"/>
          <note pan="0" len="12" vol="92" key="48" pos="8496"/>
          <note pan="0" len="30" vol="124" key="43" pos="8496"/>
          <note pan="0" len="24" vol="121" key="39" pos="8496"/>
          <note pan="0" len="12" vol="86" key="51" pos="8508"/>
          <note pan="0" len="12" vol="100" key="55" pos="8520"/>
          <note pan="0" len="12" vol="88" key="61" pos="8532"/>
          <note pan="0" len="12" vol="89" key="60" pos="8544"/>
          <note pan="0" len="12" vol="67" key="63" pos="8556"/>
          <note pan="0" len="12" vol="81" key="67" pos="8568"/>
          <note pan="0" len="14" vol="127" key="36" pos="8568"/>
          <note pan="0" len="14" vol="127" key="24" pos="8568"/>
          <note pan="0" len="12" vol="78" key="73" pos="8580"/>
          <note pan="0" len="12" vol="89" key="72" pos="8592"/>
          <note pan="0" len="30" vol="132" key="43" pos="8592"/>
          <note pan="0" len="24" vol="132" key="39" pos="8592"/>
          <note pan="0" len="29" vol="140" key="48" pos="8594"/>
          <note pan="0" len="12" vol="88" key="63" pos="8604"/>
          <note pan="0" len="12" vol="96" key="60" pos="8616"/>
          <note pan="0" len="12" vol="86" key="63" pos="8628"/>
          <note pan="0" len="12" vol="92" key="59" pos="8640"/>
          <note pan="0" len="14" vol="127" key="36" pos="8640"/>
          <note pan="0" len="14" vol="127" key="31" pos="8640"/>
          <note pan="0" len="12" vol="89" key="51" pos="8652"/>
          <note pan="0" len="12" vol="64" key="48" pos="8664"/>
          <note pan="0" len="12" vol="72" key="51" pos="8676"/>
          <note pan="0" len="41" vol="110" key="39" pos="8686"/>
          <note pan="0" len="12" vol="67" key="55" pos="8688"/>
          <note pan="0" len="28" vol="110" key="43" pos="8688"/>
          <note pan="0" len="27" vol="108" key="48" pos="8692"/>
          <note pan="0" len="12" vol="91" key="61" pos="8700"/>
          <note pan="0" len="12" vol="77" key="60" pos="8712"/>
          <note pan="0" len="12" vol="83" key="61" pos="8724"/>
          <note pan="0" len="12" vol="67" key="67" pos="8736"/>
          <note pan="0" len="12" vol="88" key="73" pos="8748"/>
          <note pan="0" len="12" vol="91" key="74" pos="8760"/>
          <note pan="0" len="14" vol="127" key="36" pos="8760"/>
          <note pan="0" len="14" vol="127" key="24" pos="8760"/>
          <note pan="0" len="12" vol="94" key="79" pos="8772"/>
          <note pan="0" len="30" vol="132" key="43" pos="8784"/>
          <note pan="0" len="24" vol="132" key="39" pos="8784"/>
          <note pan="0" len="29" vol="140" key="48" pos="8786"/>
          <note pan="0" len="12" vol="81" key="73" pos="8796"/>
          <note pan="0" len="12" vol="92" key="74" pos="8808"/>
          <note pan="0" len="12" vol="102" key="79" pos="8820"/>
          <note pan="0" len="17" vol="88" key="62" pos="8832"/>
          <note pan="0" len="17" vol="86" key="65" pos="8834"/>
          <note pan="0" len="24" vol="86" key="69" pos="8835"/>
          <note pan="0" len="19" vol="94" key="74" pos="8836"/>
          <note pan="0" len="20" vol="92" key="77" pos="8838"/>
          <note pan="0" len="19" vol="92" key="81" pos="8840"/>
          <note pan="0" len="17" vol="81" key="57" pos="8868"/>
          <note pan="0" len="17" vol="81" key="62" pos="8870"/>
          <note pan="0" len="24" vol="81" key="65" pos="8871"/>
          <note pan="0" len="19" vol="77" key="69" pos="8872"/>
          <note pan="0" len="20" vol="77" key="74" pos="8874"/>
          <note pan="0" len="19" vol="77" key="77" pos="8876"/>
          <note pan="0" len="17" vol="86" key="53" pos="8904"/>
          <note pan="0" len="17" vol="86" key="57" pos="8906"/>
          <note pan="0" len="24" vol="86" key="62" pos="8907"/>
          <note pan="0" len="19" vol="78" key="65" pos="8908"/>
          <note pan="0" len="20" vol="78" key="69" pos="8910"/>
          <note pan="0" len="19" vol="78" key="74" pos="8912"/>
          <note pan="0" len="17" vol="91" key="50" pos="8940"/>
          <note pan="0" len="17" vol="91" key="53" pos="8942"/>
          <note pan="0" len="24" vol="91" key="57" pos="8943"/>
          <note pan="0" len="19" vol="91" key="62" pos="8944"/>
          <note pan="0" len="20" vol="91" key="65" pos="8946"/>
          <note pan="0" len="19" vol="91" key="69" pos="8948"/>
          <note pan="0" len="17" vol="78" key="45" pos="8976"/>
          <note pan="0" len="17" vol="78" key="50" pos="8978"/>
          <note pan="0" len="24" vol="78" key="53" pos="8979"/>
          <note pan="0" len="19" vol="85" key="57" pos="8980"/>
          <note pan="0" len="20" vol="86" key="62" pos="8982"/>
          <note pan="0" len="19" vol="86" key="65" pos="8984"/>
          <note pan="0" len="7" vol="78" key="50" pos="9012"/>
          <note pan="0" len="20" vol="94" key="66" pos="9024"/>
          <note pan="0" len="17" vol="99" key="54" pos="9024"/>
          <note pan="0" len="17" vol="100" key="50" pos="9024"/>
          <note pan="0" len="20" vol="94" key="70" pos="9025"/>
          <note pan="0" len="19" vol="94" key="62" pos="9025"/>
          <note pan="0" len="24" vol="99" key="58" pos="9025"/>
          <note pan="0" len="20" vol="85" key="66" pos="9060"/>
          <note pan="0" len="17" vol="83" key="46" pos="9060"/>
          <note pan="0" len="20" vol="85" key="70" pos="9061"/>
          <note pan="0" len="19" vol="85" key="62" pos="9061"/>
          <note pan="0" len="24" vol="83" key="58" pos="9061"/>
          <note pan="0" len="20" vol="88" key="66" pos="9096"/>
          <note pan="0" len="21" vol="129" key="42" pos="9096"/>
          <note pan="0" len="20" vol="89" key="70" pos="9097"/>
          <note pan="0" len="19" vol="89" key="62" pos="9097"/>
          <note pan="0" len="24" vol="85" key="58" pos="9097"/>
          <note pan="0" len="20" vol="81" key="66" pos="9132"/>
          <note pan="0" len="21" vol="129" key="38" pos="9132"/>
          <note pan="0" len="20" vol="81" key="70" pos="9133"/>
          <note pan="0" len="19" vol="81" key="62" pos="9133"/>
          <note pan="0" len="24" vol="94" key="58" pos="9133"/>
          <note pan="0" len="20" vol="81" key="66" pos="9168"/>
          <note pan="0" len="21" vol="129" key="34" pos="9168"/>
          <note pan="0" len="20" vol="81" key="70" pos="9169"/>
          <note pan="0" len="19" vol="81" key="62" pos="9169"/>
          <note pan="0" len="24" vol="89" key="58" pos="9169"/>
          <note pan="0" len="16" vol="129" key="38" pos="9192"/>
          <note pan="0" len="16" vol="129" key="26" pos="9192"/>
          <note pan="0" len="97" vol="102" key="62" pos="9214"/>
          <note pan="0" len="93" vol="102" key="70" pos="9216"/>
          <note pan="0" len="88" vol="102" key="66" pos="9216"/>
          <note pan="0" len="30" vol="137" key="38" pos="9216"/>
          <note pan="0" len="30" vol="137" key="26" pos="9216"/>
          <note pan="0" len="29" vol="135" key="38" pos="9262"/>
          <note pan="0" len="30" vol="124" key="46" pos="9264"/>
          <note pan="0" len="24" vol="121" key="42" pos="9264"/>
          <note pan="0" len="14" vol="127" key="38" pos="9336"/>
          <note pan="0" len="14" vol="127" key="26" pos="9336"/>
          <note pan="0" len="30" vol="132" key="46" pos="9360"/>
          <note pan="0" len="24" vol="132" key="42" pos="9360"/>
          <note pan="0" len="29" vol="140" key="50" pos="9362"/>
          <note pan="0" len="14" vol="127" key="38" pos="9408"/>
          <note pan="0" len="14" vol="127" key="33" pos="9408"/>
          <note pan="0" len="41" vol="110" key="42" pos="9454"/>
          <note pan="0" len="36" vol="80" key="60" pos="9456"/>
          <note pan="0" len="36" vol="80" key="55" pos="9456"/>
          <note pan="0" len="28" vol="110" key="46" pos="9456"/>
          <note pan="0" len="27" vol="108" key="50" pos="9460"/>
          <note pan="0" len="14" vol="127" key="38" pos="9528"/>
          <note pan="0" len="14" vol="127" key="26" pos="9528"/>
          <note pan="0" len="36" vol="80" key="60" pos="9552"/>
          <note pan="0" len="36" vol="80" key="55" pos="9552"/>
          <note pan="0" len="30" vol="132" key="46" pos="9552"/>
          <note pan="0" len="24" vol="132" key="42" pos="9552"/>
          <note pan="0" len="29" vol="140" key="50" pos="9554"/>
          <note pan="0" len="30" vol="137" key="38" pos="9600"/>
          <note pan="0" len="30" vol="137" key="26" pos="9600"/>
          <note pan="0" len="36" vol="111" key="62" pos="9624"/>
          <note pan="0" len="41" vol="110" key="42" pos="9646"/>
          <note pan="0" len="28" vol="110" key="46" pos="9648"/>
          <note pan="0" len="27" vol="108" key="50" pos="9652"/>
          <note pan="0" len="36" vol="94" key="63" pos="9660"/>
          <note pan="0" len="24" vol="96" key="67" pos="9696"/>
          <note pan="0" len="28" vol="121" key="42" pos="9696"/>
          <note pan="0" len="24" vol="77" key="70" pos="9720"/>
          <note pan="0" len="28" vol="107" key="46" pos="9720"/>
          <note pan="0" len="24" vol="91" key="72" pos="9744"/>
          <note pan="0" len="28" vol="114" key="48" pos="9744"/>
          <note pan="0" len="24" vol="103" key="75" pos="9768"/>
          <note pan="0" len="12" vol="97" key="50" pos="9768"/>
          <note pan="0" len="157" vol="116" key="79" pos="9792"/>
          <note pan="0" len="87" vol="119" key="46" pos="9792"/>
          <note pan="0" len="87" vol="108" key="50" pos="9796"/>
          <note pan="0" len="69" vol="113" key="54" pos="9807"/>
          <note pan="0" len="7" vol="119" key="41" pos="9884"/>
          <note pan="0" len="24" vol="125" key="42" pos="9888"/>
          <note pan="0" len="24" vol="97" key="39" pos="9912"/>
          <note pan="0" len="24" vol="102" key="38" pos="9936"/>
          <note pan="0" len="24" vol="108" key="34" pos="9960"/>
          <note pan="0" len="24" vol="122" key="71" pos="9984"/>
          <note pan="0" len="282" vol="133" key="31" pos="9984"/>
          <note pan="0" len="282" vol="133" key="19" pos="9984"/>
          <note pan="0" len="24" vol="77" key="67" pos="10008"/>
          <note pan="0" len="24" vol="133" key="75" pos="10032"/>
          <note pan="0" len="24" vol="92" key="74" pos="10056"/>
          <note pan="0" len="24" vol="100" key="71" pos="10080"/>
          <note pan="0" len="24" vol="113" key="67" pos="10104"/>
          <note pan="0" len="24" vol="125" key="75" pos="10128"/>
          <note pan="0" len="24" vol="92" key="74" pos="10152"/>
          <note pan="0" len="24" vol="113" key="71" pos="10176"/>
          <note pan="0" len="24" vol="89" key="67" pos="10200"/>
          <note pan="0" len="24" vol="94" key="75" pos="10224"/>
          <note pan="0" len="24" vol="121" key="74" pos="10248"/>
          <note pan="0" len="24" vol="137" key="71" pos="10272"/>
          <note pan="0" len="17" vol="114" key="55" pos="10272"/>
          <note pan="0" len="17" vol="103" key="50" pos="10272"/>
          <note pan="0" len="17" vol="108" key="47" pos="10272"/>
          <note pan="0" len="24" vol="92" key="67" pos="10296"/>
          <note pan="0" len="24" vol="118" key="75" pos="10320"/>
          <note pan="0" len="17" vol="111" key="59" pos="10320"/>
          <note pan="0" len="17" vol="111" key="55" pos="10320"/>
          <note pan="0" len="17" vol="116" key="50" pos="10320"/>
          <note pan="0" len="24" vol="107" key="74" pos="10344"/>
          <note pan="0" len="20" vol="137" key="71" pos="10368"/>
          <note pan="0" len="19" vol="130" key="63" pos="10368"/>
          <note pan="0" len="20" vol="119" key="67" pos="10392"/>
          <note pan="0" len="19" vol="124" key="62" pos="10392"/>
          <note pan="0" len="20" vol="124" key="71" pos="10416"/>
          <note pan="0" len="19" vol="127" key="63" pos="10416"/>
          <note pan="0" len="20" vol="118" key="67" pos="10440"/>
          <note pan="0" len="19" vol="114" key="62" pos="10440"/>
          <note pan="0" len="20" vol="119" key="71" pos="10464"/>
          <note pan="0" len="19" vol="121" key="63" pos="10464"/>
          <note pan="0" len="20" vol="129" key="67" pos="10488"/>
          <note pan="0" len="19" vol="140" key="62" pos="10488"/>
          <note pan="0" len="20" vol="133" key="71" pos="10512"/>
          <note pan="0" len="19" vol="125" key="63" pos="10512"/>
          <note pan="0" len="20" vol="118" key="67" pos="10536"/>
          <note pan="0" len="19" vol="119" key="62" pos="10536"/>
          <note pan="0" len="20" vol="138" key="71" pos="10560"/>
          <note pan="0" len="19" vol="143" key="63" pos="10560"/>
          <note pan="0" len="20" vol="124" key="67" pos="10584"/>
          <note pan="0" len="19" vol="122" key="62" pos="10584"/>
          <note pan="0" len="20" vol="146" key="71" pos="10608"/>
          <note pan="0" len="19" vol="130" key="63" pos="10608"/>
          <note pan="0" len="20" vol="130" key="67" pos="10632"/>
          <note pan="0" len="19" vol="137" key="62" pos="10632"/>
          <note pan="0" len="20" vol="154" key="71" pos="10656"/>
          <note pan="0" len="19" vol="149" key="63" pos="10656"/>
          <note pan="0" len="20" vol="127" key="67" pos="10680"/>
          <note pan="0" len="19" vol="129" key="62" pos="10680"/>
          <note pan="0" len="24" vol="176" key="67" pos="10704"/>
          <note pan="0" len="22" vol="171" key="55" pos="10704"/>
          <note pan="0" len="21" vol="157" key="71" pos="10705"/>
          <note pan="0" len="20" vol="171" key="59" pos="10705"/>
          <note pan="0" len="21" vol="157" key="74" pos="10706"/>
          <note pan="0" len="20" vol="171" key="62" pos="10706"/>
          <note pan="0" len="21" vol="157" key="79" pos="10708"/>
          <note pan="0" len="14" vol="137" key="51" pos="10752"/>
          <note pan="0" len="19" vol="177" key="24" pos="10752"/>
          <note pan="0" len="19" vol="177" key="12" pos="10752"/>
          <note pan="0" len="11" vol="122" key="55" pos="10764"/>
          <note pan="0" len="10" vol="122" key="60" pos="10776"/>
          <note pan="0" len="5" vol="133" key="63" pos="10788"/>
          <note pan="0" len="13" vol="124" key="67" pos="10800"/>
          <note pan="0" len="6" vol="149" key="43" pos="10800"/>
          <note pan="0" len="6" vol="149" key="39" pos="10800"/>
          <note pan="0" len="6" vol="149" key="36" pos="10800"/>
          <note pan="0" len="12" vol="125" key="75" pos="10812"/>
          <note pan="0" len="6" vol="137" key="43" pos="10812"/>
          <note pan="0" len="6" vol="137" key="39" pos="10812"/>
          <note pan="0" len="6" vol="137" key="36" pos="10812"/>
          <note pan="0" len="5" vol="144" key="79" pos="10824"/>
          <note pan="0" len="6" vol="152" key="43" pos="10824"/>
          <note pan="0" len="6" vol="152" key="39" pos="10824"/>
          <note pan="0" len="6" vol="152" key="36" pos="10824"/>
          <note pan="0" len="7" vol="118" key="48" pos="10836"/>
          <note pan="0" len="4" vol="122" key="51" pos="10848"/>
          <note pan="0" len="6" vol="157" key="36" pos="10848"/>
          <note pan="0" len="6" vol="141" key="43" pos="10851"/>
          <note pan="0" len="43" vol="165" key="51" pos="10854"/>
          <note pan="0" len="11" vol="132" key="55" pos="10860"/>
          <note pan="0" len="10" vol="116" key="60" pos="10872"/>
          <note pan="0" len="5" vol="135" key="63" pos="10884"/>
          <note pan="0" len="13" vol="135" key="67" pos="10896"/>
          <note pan="0" len="12" vol="143" key="75" pos="10908"/>
          <note pan="0" len="5" vol="140" key="79" pos="10920"/>
          <note pan="0" len="8" vol="146" key="39" pos="10920"/>
          <note pan="0" len="7" vol="133" key="48" pos="10932"/>
          <note pan="0" len="8" vol="132" key="41" pos="10932"/>
          <note pan="0" len="14" vol="129" key="51" pos="10944"/>
          <note pan="0" len="20" vol="163" key="43" pos="10944"/>
          <note pan="0" len="11" vol="135" key="55" pos="10956"/>
          <note pan="0" len="10" vol="116" key="60" pos="10968"/>
          <note pan="0" len="18" vol="140" key="39" pos="10968"/>
          <note pan="0" len="5" vol="127" key="63" pos="10980"/>
          <note pan="0" len="13" vol="133" key="67" pos="10992"/>
          <note pan="0" len="18" vol="96" key="36" pos="10992"/>
          <note pan="0" len="12" vol="146" key="75" pos="11004"/>
          <note pan="0" len="5" vol="140" key="79" pos="11016"/>
          <note pan="0" len="12" vol="137" key="43" pos="11016"/>
          <note pan="0" len="7" vol="127" key="47" pos="11028"/>
          <note pan="0" len="6" vol="132" key="40" pos="11038"/>
          <note pan="0" len="14" vol="130" key="50" pos="11040"/>
          <note pan="0" len="25" vol="176" key="41" pos="11044"/>
          <note pan="0" len="11" vol="116" key="53" pos="11052"/>
          <note pan="0" len="10" vol="132" key="59" pos="11064"/>
          <note pan="0" len="6" vol="135" key="38" pos="11064"/>
          <note pan="0" len="5" vol="140" key="62" pos="11076"/>
          <note pan="0" len="13" vol="129" key="65" pos="11088"/>
          <note pan="0" len="6" vol="116" key="35" pos="11088"/>
          <note pan="0" len="12" vol="125" key="74" pos="11100"/>
          <note pan="0" len="5" vol="146" key="77" pos="11112"/>
          <note pan="0" len="6" vol="159" key="31" pos="11112"/>
          <note pan="0" len="7" vol="129" key="48" pos="11124"/>
          <note pan="0" len="14" vol="137" key="51" pos="11136"/>
          <note pan="0" len="33" vol="177" key="24" pos="11136"/>
          <note pan="0" len="33" vol="177" key="12" pos="11136"/>
          <note pan="0" len="11" vol="122" key="55" pos="11148"/>
          <note pan="0" len="10" vol="122" key="60" pos="11160"/>
          <note pan="0" len="5" vol="133" key="63" pos="11172"/>
          <note pan="0" len="13" vol="124" key="67" pos="11184"/>
          <note pan="0" len="6" vol="149" key="43" pos="11184"/>
          <note pan="0" len="6" vol="149" key="39" pos="11184"/>
          <note pan="0" len="6" vol="149" key="36" pos="11184"/>
          <note pan="0" len="12" vol="125" key="75" pos="11196"/>
          <note pan="0" len="6" vol="137" key="43" pos="11196"/>
          <note pan="0" len="6" vol="137" key="39" pos="11196"/>
          <note pan="0" len="6" vol="137" key="36" pos="11196"/>
          <note pan="0" len="5" vol="144" key="79" pos="11208"/>
          <note pan="0" len="6" vol="152" key="43" pos="11208"/>
          <note pan="0" len="6" vol="152" key="39" pos="11208"/>
          <note pan="0" len="6" vol="152" key="36" pos="11208"/>
          <note pan="0" len="7" vol="118" key="48" pos="11220"/>
          <note pan="0" len="4" vol="122" key="51" pos="11232"/>
          <note pan="0" len="6" vol="157" key="36" pos="11232"/>
          <note pan="0" len="6" vol="141" key="43" pos="11235"/>
          <note pan="0" len="43" vol="165" key="51" pos="11238"/>
          <note pan="0" len="11" vol="132" key="55" pos="11244"/>
          <note pan="0" len="10" vol="116" key="60" pos="11256"/>
          <note pan="0" len="5" vol="135" key="63" pos="11268"/>
          <note pan="0" len="13" vol="135" key="67" pos="11280"/>
          <note pan="0" len="12" vol="143" key="75" pos="11292"/>
          <note pan="0" len="5" vol="140" key="79" pos="11304"/>
          <note pan="0" len="8" vol="146" key="39" pos="11304"/>
          <note pan="0" len="7" vol="133" key="48" pos="11316"/>
          <note pan="0" len="8" vol="132" key="41" pos="11316"/>
          <note pan="0" len="14" vol="129" key="51" pos="11328"/>
          <note pan="0" len="20" vol="163" key="43" pos="11328"/>
          <note pan="0" len="11" vol="135" key="55" pos="11340"/>
          <note pan="0" len="10" vol="116" key="60" pos="11352"/>
          <note pan="0" len="18" vol="140" key="39" pos="11352"/>
          <note pan="0" len="5" vol="127" key="63" pos="11364"/>
          <note pan="0" len="13" vol="133" key="67" pos="11376"/>
          <note pan="0" len="18" vol="96" key="36" pos="11376"/>
          <note pan="0" len="12" vol="146" key="75" pos="11388"/>
          <note pan="0" len="5" vol="140" key="79" pos="11400"/>
          <note pan="0" len="10" vol="140" key="24" pos="11400"/>
          <note pan="0" len="7" vol="127" key="47" pos="11412"/>
          <note pan="0" len="14" vol="130" key="50" pos="11424"/>
          <note pan="0" len="18" vol="177" key="23" pos="11424"/>
          <note pan="0" len="18" vol="177" key="11" pos="11424"/>
          <note pan="0" len="11" vol="116" key="53" pos="11436"/>
          <note pan="0" len="10" vol="132" key="59" pos="11448"/>
          <note pan="0" len="10" vol="140" key="29" pos="11448"/>
          <note pan="0" len="5" vol="140" key="62" pos="11460"/>
          <note pan="0" len="40" vol="157" key="55" pos="11470"/>
          <note pan="0" len="40" vol="157" key="59" pos="11472"/>
          <note pan="0" len="37" vol="177" key="31" pos="11472"/>
          <note pan="0" len="37" vol="177" key="19" pos="11472"/>
          <note pan="0" len="36" vol="157" key="62" pos="11473"/>
          <note pan="0" len="33" vol="157" key="65" pos="11474"/>
          <note pan="0" len="14" vol="137" key="51" pos="11520"/>
          <note pan="0" len="19" vol="177" key="24" pos="11520"/>
          <note pan="0" len="19" vol="177" key="12" pos="11520"/>
          <note pan="0" len="11" vol="122" key="55" pos="11532"/>
          <note pan="0" len="10" vol="122" key="60" pos="11544"/>
          <note pan="0" len="5" vol="133" key="63" pos="11556"/>
          <note pan="0" len="13" vol="124" key="67" pos="11568"/>
          <note pan="0" len="6" vol="149" key="43" pos="11568"/>
          <note pan="0" len="6" vol="149" key="39" pos="11568"/>
          <note pan="0" len="6" vol="149" key="36" pos="11568"/>
          <note pan="0" len="12" vol="125" key="75" pos="11580"/>
          <note pan="0" len="6" vol="137" key="43" pos="11580"/>
          <note pan="0" len="6" vol="137" key="39" pos="11580"/>
          <note pan="0" len="6" vol="137" key="36" pos="11580"/>
          <note pan="0" len="5" vol="144" key="79" pos="11592"/>
          <note pan="0" len="6" vol="152" key="43" pos="11592"/>
          <note pan="0" len="6" vol="152" key="39" pos="11592"/>
          <note pan="0" len="6" vol="152" key="36" pos="11592"/>
          <note pan="0" len="7" vol="118" key="48" pos="11604"/>
          <note pan="0" len="4" vol="122" key="51" pos="11616"/>
          <note pan="0" len="6" vol="157" key="36" pos="11616"/>
          <note pan="0" len="6" vol="141" key="43" pos="11619"/>
          <note pan="0" len="43" vol="165" key="51" pos="11622"/>
          <note pan="0" len="11" vol="132" key="55" pos="11628"/>
          <note pan="0" len="10" vol="116" key="60" pos="11640"/>
          <note pan="0" len="5" vol="135" key="63" pos="11652"/>
          <note pan="0" len="13" vol="135" key="67" pos="11664"/>
          <note pan="0" len="12" vol="143" key="75" pos="11676"/>
          <note pan="0" len="5" vol="140" key="79" pos="11688"/>
          <note pan="0" len="8" vol="146" key="39" pos="11688"/>
          <note pan="0" len="7" vol="133" key="48" pos="11700"/>
          <note pan="0" len="8" vol="132" key="41" pos="11700"/>
          <note pan="0" len="14" vol="129" key="51" pos="11712"/>
          <note pan="0" len="20" vol="163" key="43" pos="11712"/>
          <note pan="0" len="11" vol="135" key="55" pos="11724"/>
          <note pan="0" len="10" vol="116" key="60" pos="11736"/>
          <note pan="0" len="18" vol="140" key="39" pos="11736"/>
          <note pan="0" len="5" vol="127" key="63" pos="11748"/>
          <note pan="0" len="13" vol="133" key="67" pos="11760"/>
          <note pan="0" len="18" vol="96" key="36" pos="11760"/>
          <note pan="0" len="12" vol="146" key="75" pos="11772"/>
          <note pan="0" len="5" vol="140" key="79" pos="11784"/>
          <note pan="0" len="12" vol="137" key="43" pos="11784"/>
          <note pan="0" len="7" vol="133" key="49" pos="11796"/>
          <note pan="0" len="6" vol="132" key="43" pos="11806"/>
          <note pan="0" len="14" vol="129" key="53" pos="11808"/>
          <note pan="0" len="25" vol="176" key="44" pos="11812"/>
          <note pan="0" len="11" vol="135" key="56" pos="11820"/>
          <note pan="0" len="10" vol="116" key="61" pos="11832"/>
          <note pan="0" len="6" vol="135" key="41" pos="11832"/>
          <note pan="0" len="5" vol="127" key="65" pos="11844"/>
          <note pan="0" len="13" vol="133" key="68" pos="11856"/>
          <note pan="0" len="6" vol="116" key="37" pos="11856"/>
          <note pan="0" len="12" vol="146" key="77" pos="11868"/>
          <note pan="0" len="5" vol="140" key="80" pos="11880"/>
          <note pan="0" len="6" vol="159" key="34" pos="11880"/>
          <note pan="0" len="7" vol="129" key="48" pos="11892"/>
          <note pan="0" len="14" vol="137" key="51" pos="11904"/>
          <note pan="0" len="33" vol="177" key="24" pos="11904"/>
          <note pan="0" len="33" vol="177" key="12" pos="11904"/>
          <note pan="0" len="11" vol="122" key="55" pos="11916"/>
          <note pan="0" len="10" vol="122" key="60" pos="11928"/>
          <note pan="0" len="5" vol="133" key="63" pos="11940"/>
          <note pan="0" len="13" vol="124" key="67" pos="11952"/>
          <note pan="0" len="6" vol="149" key="43" pos="11952"/>
          <note pan="0" len="6" vol="149" key="39" pos="11952"/>
          <note pan="0" len="6" vol="149" key="36" pos="11952"/>
          <note pan="0" len="12" vol="125" key="75" pos="11964"/>
          <note pan="0" len="6" vol="137" key="43" pos="11964"/>
          <note pan="0" len="6" vol="137" key="39" pos="11964"/>
          <note pan="0" len="6" vol="137" key="36" pos="11964"/>
          <note pan="0" len="5" vol="144" key="79" pos="11976"/>
          <note pan="0" len="6" vol="152" key="43" pos="11976"/>
          <note pan="0" len="6" vol="152" key="39" pos="11976"/>
          <note pan="0" len="6" vol="152" key="36" pos="11976"/>
          <note pan="0" len="7" vol="118" key="48" pos="11988"/>
          <note pan="0" len="4" vol="122" key="51" pos="12000"/>
          <note pan="0" len="6" vol="157" key="36" pos="12000"/>
          <note pan="0" len="6" vol="141" key="43" pos="12003"/>
          <note pan="0" len="43" vol="165" key="51" pos="12006"/>
          <note pan="0" len="11" vol="132" key="55" pos="12012"/>
          <note pan="0" len="10" vol="116" key="60" pos="12024"/>
          <note pan="0" len="5" vol="135" key="63" pos="12036"/>
          <note pan="0" len="13" vol="135" key="67" pos="12048"/>
          <note pan="0" len="12" vol="143" key="75" pos="12060"/>
          <note pan="0" len="5" vol="140" key="79" pos="12072"/>
          <note pan="0" len="7" vol="133" key="48" pos="12084"/>
          <note pan="0" len="12" vol="162" key="84" pos="12096"/>
          <note pan="0" len="12" vol="146" key="75" pos="12096"/>
          <note pan="0" len="18" vol="177" key="24" pos="12096"/>
          <note pan="0" len="18" vol="177" key="12" pos="12096"/>
          <note pan="0" len="12" vol="140" key="84" pos="12132"/>
          <note pan="0" len="12" vol="130" key="75" pos="12132"/>
          <note pan="0" len="15" vol="133" key="43" pos="12132"/>
          <note pan="0" len="15" vol="137" key="39" pos="12132"/>
          <note pan="0" len="15" vol="125" key="36" pos="12132"/>
          <note pan="0" len="12" vol="146" key="84" pos="12168"/>
          <note pan="0" len="12" vol="151" key="75" pos="12168"/>
          <note pan="0" len="15" vol="144" key="43" pos="12168"/>
          <note pan="0" len="15" vol="138" key="39" pos="12168"/>
          <note pan="0" len="15" vol="144" key="36" pos="12168"/>
          <note pan="0" len="12" vol="129" key="84" pos="12204"/>
          <note pan="0" len="12" vol="146" key="75" pos="12204"/>
          <note pan="0" len="15" vol="141" key="43" pos="12204"/>
          <note pan="0" len="15" vol="130" key="39" pos="12204"/>
          <note pan="0" len="15" vol="105" key="36" pos="12204"/>
          <note pan="0" len="12" vol="159" key="84" pos="12240"/>
          <note pan="0" len="12" vol="154" key="75" pos="12240"/>
          <note pan="0" len="15" vol="118" key="43" pos="12240"/>
          <note pan="0" len="15" vol="124" key="39" pos="12240"/>
          <note pan="0" len="15" vol="149" key="36" pos="12240"/>
          <note pan="0" len="12" vol="97" key="36" pos="12288"/>
          <note pan="0" len="11" vol="97" key="31" pos="12288"/>
          <note pan="0" len="11" vol="103" key="27" pos="12288"/>
          <note pan="0" len="16" vol="143" key="24" pos="12288"/>
          <note pan="0" len="16" vol="143" key="12" pos="12288"/>
          <note pan="0" len="11" vol="85" key="36" pos="12312"/>
          <note pan="0" len="13" vol="94" key="27" pos="12312"/>
          <note pan="0" len="146" vol="129" key="24" pos="12312"/>
          <note pan="0" len="146" vol="129" key="12" pos="12312"/>
          <note pan="0" len="11" vol="88" key="31" pos="12314"/>
          <note pan="0" len="11" vol="96" key="31" pos="12336"/>
          <note pan="0" len="13" vol="89" key="27" pos="12336"/>
          <note pan="0" len="11" vol="85" key="36" pos="12337"/>
          <note pan="0" len="13" vol="77" key="36" pos="12360"/>
          <note pan="0" len="11" vol="92" key="31" pos="12361"/>
          <note pan="0" len="11" vol="99" key="27" pos="12362"/>
          <note pan="0" len="8" vol="94" key="36" pos="12384"/>
          <note pan="0" len="13" vol="92" key="27" pos="12384"/>
          <note pan="0" len="11" vol="86" key="31" pos="12386"/>
          <note pan="0" len="9" vol="88" key="36" pos="12408"/>
          <note pan="0" len="10" vol="80" key="31" pos="12408"/>
          <note pan="0" len="6" vol="91" key="27" pos="12408"/>
          <note pan="0" len="14" vol="94" key="36" pos="12432"/>
          <note pan="0" len="11" vol="81" key="31" pos="12433"/>
          <note pan="0" len="8" vol="97" key="27" pos="12435"/>
          <note pan="0" len="14" vol="83" key="36" pos="12456"/>
          <note pan="0" len="11" vol="91" key="31" pos="12456"/>
          <note pan="0" len="11" vol="92" key="27" pos="12456"/>
          <note pan="0" len="12" vol="97" key="36" pos="12480"/>
          <note pan="0" len="11" vol="97" key="31" pos="12480"/>
          <note pan="0" len="11" vol="103" key="27" pos="12480"/>
          <note pan="0" len="13" vol="94" key="39" pos="12504"/>
          <note pan="0" len="11" vol="85" key="36" pos="12504"/>
          <note pan="0" len="58" vol="129" key="24" pos="12504"/>
          <note pan="0" len="58" vol="129" key="12" pos="12504"/>
          <note pan="0" len="11" vol="88" key="31" pos="12506"/>
          <note pan="0" len="13" vol="89" key="39" pos="12528"/>
          <note pan="0" len="11" vol="96" key="31" pos="12528"/>
          <note pan="0" len="11" vol="85" key="36" pos="12529"/>
          <note pan="0" len="13" vol="77" key="36" pos="12552"/>
          <note pan="0" len="11" vol="92" key="31" pos="12553"/>
          <note pan="0" len="11" vol="99" key="39" pos="12554"/>
          <note pan="0" len="13" vol="92" key="39" pos="12576"/>
          <note pan="0" len="8" vol="94" key="36" pos="12576"/>
          <note pan="0" len="14" vol="129" key="24" pos="12576"/>
          <note pan="0" len="14" vol="129" key="12" pos="12576"/>
          <note pan="0" len="11" vol="86" key="31" pos="12578"/>
          <note pan="0" len="6" vol="91" key="39" pos="12600"/>
          <note pan="0" len="9" vol="88" key="36" pos="12600"/>
          <note pan="0" len="10" vol="80" key="31" pos="12600"/>
          <note pan="0" len="47" vol="129" key="24" pos="12600"/>
          <note pan="0" len="47" vol="129" key="12" pos="12600"/>
          <note pan="0" len="14" vol="94" key="36" pos="12624"/>
          <note pan="0" len="11" vol="81" key="31" pos="12625"/>
          <note pan="0" len="8" vol="97" key="39" pos="12627"/>
          <note pan="0" len="11" vol="92" key="39" pos="12648"/>
          <note pan="0" len="14" vol="83" key="36" pos="12648"/>
          <note pan="0" len="11" vol="91" key="31" pos="12648"/>
          <note pan="0" len="13" vol="94" key="39" pos="12672"/>
          <note pan="0" len="11" vol="85" key="36" pos="12672"/>
          <note pan="0" len="228" vol="129" key="24" pos="12672"/>
          <note pan="0" len="11" vol="88" key="31" pos="12674"/>
          <note pan="0" len="11" vol="96" key="43" pos="12696"/>
          <note pan="0" len="13" vol="89" key="39" pos="12696"/>
          <note pan="0" len="11" vol="85" key="36" pos="12697"/>
          <note pan="0" len="13" vol="77" key="36" pos="12720"/>
          <note pan="0" len="11" vol="92" key="43" pos="12721"/>
          <note pan="0" len="11" vol="99" key="39" pos="12722"/>
          <note pan="0" len="8" vol="94" key="48" pos="12744"/>
          <note pan="0" len="13" vol="92" key="39" pos="12744"/>
          <note pan="0" len="8" vol="94" key="36" pos="12744"/>
          <note pan="0" len="11" vol="86" key="43" pos="12746"/>
          <note pan="0" len="10" vol="80" key="43" pos="12768"/>
          <note pan="0" len="6" vol="91" key="39" pos="12768"/>
          <note pan="0" len="9" vol="88" key="36" pos="12768"/>
          <note pan="0" len="14" vol="94" key="36" pos="12792"/>
          <note pan="0" len="11" vol="81" key="43" pos="12793"/>
          <note pan="0" len="8" vol="97" key="39" pos="12795"/>
          <note pan="0" len="11" vol="91" key="43" pos="12816"/>
          <note pan="0" len="11" vol="92" key="39" pos="12816"/>
          <note pan="0" len="14" vol="83" key="36" pos="12816"/>
          <note pan="0" len="8" vol="94" key="48" pos="12840"/>
          <note pan="0" len="13" vol="92" key="39" pos="12840"/>
          <note pan="0" len="8" vol="94" key="36" pos="12840"/>
          <note pan="0" len="11" vol="86" key="43" pos="12842"/>
          <note pan="0" len="10" vol="80" key="43" pos="12864"/>
          <note pan="0" len="6" vol="91" key="39" pos="12864"/>
          <note pan="0" len="9" vol="88" key="36" pos="12864"/>
          <note pan="0" len="14" vol="94" key="36" pos="12888"/>
          <note pan="0" len="11" vol="81" key="43" pos="12889"/>
          <note pan="0" len="8" vol="97" key="39" pos="12891"/>
          <note pan="0" len="11" vol="91" key="43" pos="12912"/>
          <note pan="0" len="11" vol="92" key="39" pos="12912"/>
          <note pan="0" len="14" vol="83" key="36" pos="12912"/>
          <note pan="0" len="8" vol="94" key="48" pos="12936"/>
          <note pan="0" len="13" vol="92" key="39" pos="12936"/>
          <note pan="0" len="8" vol="94" key="36" pos="12936"/>
          <note pan="0" len="20" vol="89" key="31" pos="12936"/>
          <note pan="0" len="11" vol="86" key="43" pos="12938"/>
          <note pan="0" len="10" vol="80" key="43" pos="12960"/>
          <note pan="0" len="6" vol="91" key="39" pos="12960"/>
          <note pan="0" len="9" vol="88" key="36" pos="12960"/>
          <note pan="0" len="14" vol="94" key="36" pos="12984"/>
          <note pan="0" len="20" vol="89" key="31" pos="12984"/>
          <note pan="0" len="11" vol="81" key="43" pos="12985"/>
          <note pan="0" len="8" vol="97" key="39" pos="12987"/>
          <note pan="0" len="11" vol="91" key="43" pos="13008"/>
          <note pan="0" len="11" vol="92" key="39" pos="13008"/>
          <note pan="0" len="14" vol="83" key="36" pos="13008"/>
          <note pan="0" len="8" vol="94" key="48" pos="13032"/>
          <note pan="0" len="13" vol="92" key="39" pos="13032"/>
          <note pan="0" len="8" vol="94" key="36" pos="13032"/>
          <note pan="0" len="20" vol="89" key="31" pos="13032"/>
          <note pan="0" len="11" vol="86" key="43" pos="13034"/>
          <note pan="0" len="39" vol="116" key="62" pos="13056"/>
          <note pan="0" len="36" vol="137" key="24" pos="13056"/>
          <note pan="0" len="26" vol="107" key="63" pos="13104"/>
          <note pan="0" len="14" vol="118" key="39" pos="13104"/>
          <note pan="0" len="14" vol="119" key="36" pos="13104"/>
          <note pan="0" len="15" vol="124" key="31" pos="13106"/>
          <note pan="0" len="44" vol="114" key="62" pos="13128"/>
          <note pan="0" len="35" vol="124" key="24" pos="13128"/>
          <note pan="0" len="25" vol="100" key="67" pos="13176"/>
          <note pan="0" len="12" vol="111" key="24" pos="13176"/>
          <note pan="0" len="36" vol="110" key="63" pos="13200"/>
          <note pan="0" len="27" vol="121" key="39" pos="13200"/>
          <note pan="0" len="27" vol="118" key="36" pos="13200"/>
          <note pan="0" len="31" vol="114" key="31" pos="13200"/>
          <note pan="0" len="17" vol="119" key="71" pos="13248"/>
          <note pan="0" len="36" vol="122" key="24" pos="13248"/>
          <note pan="0" len="17" vol="105" key="67" pos="13272"/>
          <note pan="0" len="17" vol="114" key="63" pos="13296"/>
          <note pan="0" len="14" vol="116" key="39" pos="13296"/>
          <note pan="0" len="14" vol="121" key="36" pos="13296"/>
          <note pan="0" len="15" vol="118" key="31" pos="13298"/>
          <note pan="0" len="17" vol="107" key="62" pos="13320"/>
          <note pan="0" len="35" vol="135" key="24" pos="13320"/>
          <note pan="0" len="17" vol="100" key="71" pos="13344"/>
          <note pan="0" len="17" vol="105" key="67" pos="13368"/>
          <note pan="0" len="12" vol="113" key="24" pos="13368"/>
          <note pan="0" len="17" vol="111" key="63" pos="13392"/>
          <note pan="0" len="27" vol="114" key="39" pos="13392"/>
          <note pan="0" len="27" vol="118" key="36" pos="13392"/>
          <note pan="0" len="31" vol="122" key="31" pos="13392"/>
          <note pan="0" len="17" vol="118" key="62" pos="13416"/>
          <note pan="0" len="17" vol="121" key="71" pos="13440"/>
          <note pan="0" len="301" vol="127" key="24" pos="13440"/>
          <note pan="0" len="17" vol="94" key="67" pos="13464"/>
          <note pan="0" len="29" vol="103" key="31" pos="13464"/>
          <note pan="0" len="17" vol="100" key="63" pos="13488"/>
          <note pan="0" len="17" vol="121" key="62" pos="13512"/>
          <note pan="0" len="29" vol="97" key="31" pos="13512"/>
          <note pan="0" len="17" vol="102" key="71" pos="13536"/>
          <note pan="0" len="17" vol="113" key="67" pos="13560"/>
          <note pan="0" len="29" vol="96" key="31" pos="13560"/>
          <note pan="0" len="17" vol="103" key="63" pos="13584"/>
          <note pan="0" len="17" vol="111" key="62" pos="13608"/>
          <note pan="0" len="29" vol="102" key="31" pos="13608"/>
          <note pan="0" len="17" vol="121" key="71" pos="13632"/>
          <note pan="0" len="17" vol="110" key="67" pos="13656"/>
          <note pan="0" len="29" vol="107" key="31" pos="13656"/>
          <note pan="0" len="17" vol="102" key="63" pos="13680"/>
          <note pan="0" len="17" vol="105" key="62" pos="13704"/>
          <note pan="0" len="29" vol="103" key="31" pos="13704"/>
          <note pan="0" len="17" vol="116" key="71" pos="13728"/>
          <note pan="0" len="17" vol="110" key="67" pos="13752"/>
          <note pan="0" len="29" vol="119" key="24" pos="13752"/>
          <note pan="0" len="29" vol="119" key="12" pos="13752"/>
          <note pan="0" len="17" vol="114" key="63" pos="13776"/>
          <note pan="0" len="17" vol="105" key="62" pos="13800"/>
          <note pan="0" len="16" vol="127" key="24" pos="13800"/>
          <note pan="0" len="16" vol="127" key="12" pos="13800"/>
          <note pan="0" len="17" vol="121" key="71" pos="13824"/>
          <note pan="0" len="29" vol="130" key="36" pos="13824"/>
          <note pan="0" len="29" vol="130" key="27" pos="13824"/>
          <note pan="0" len="17" vol="94" key="67" pos="13848"/>
          <note pan="0" len="17" vol="100" key="63" pos="13872"/>
          <note pan="0" len="21" vol="100" key="24" pos="13872"/>
          <note pan="0" len="17" vol="121" key="62" pos="13896"/>
          <note pan="0" len="21" vol="125" key="36" pos="13896"/>
          <note pan="0" len="21" vol="125" key="27" pos="13896"/>
          <note pan="0" len="17" vol="102" key="71" pos="13920"/>
          <note pan="0" len="17" vol="113" key="67" pos="13944"/>
          <note pan="0" len="21" vol="103" key="36" pos="13944"/>
          <note pan="0" len="21" vol="103" key="27" pos="13944"/>
          <note pan="0" len="17" vol="103" key="63" pos="13968"/>
          <note pan="0" len="21" vol="125" key="24" pos="13968"/>
          <note pan="0" len="17" vol="111" key="62" pos="13992"/>
          <note pan="0" len="17" vol="121" key="71" pos="14016"/>
          <note pan="0" len="32" vol="132" key="35" pos="14016"/>
          <note pan="0" len="32" vol="132" key="26" pos="14016"/>
          <note pan="0" len="17" vol="110" key="67" pos="14040"/>
          <note pan="0" len="17" vol="102" key="63" pos="14064"/>
          <note pan="0" len="21" vol="102" key="23" pos="14064"/>
          <note pan="0" len="17" vol="105" key="62" pos="14088"/>
          <note pan="0" len="17" vol="116" key="71" pos="14112"/>
          <note pan="0" len="21" vol="130" key="35" pos="14112"/>
          <note pan="0" len="21" vol="130" key="26" pos="14112"/>
          <note pan="0" len="17" vol="110" key="67" pos="14136"/>
          <note pan="0" len="17" vol="114" key="63" pos="14160"/>
          <note pan="0" len="21" vol="110" key="23" pos="14160"/>
          <note pan="0" len="17" vol="105" key="62" pos="14184"/>
          <note pan="0" len="15" vol="125" key="71" pos="14208"/>
          <note pan="0" len="13" vol="118" key="63" pos="14208"/>
          <note pan="0" len="20" vol="127" key="47" pos="14208"/>
          <note pan="0" len="15" vol="111" key="67" pos="14232"/>
          <note pan="0" len="13" vol="111" key="62" pos="14232"/>
          <note pan="0" len="20" vol="116" key="43" pos="14232"/>
          <note pan="0" len="15" vol="113" key="71" pos="14256"/>
          <note pan="0" len="13" vol="103" key="63" pos="14256"/>
          <note pan="0" len="20" vol="122" key="47" pos="14256"/>
          <note pan="0" len="15" vol="105" key="67" pos="14280"/>
          <note pan="0" len="13" vol="110" key="62" pos="14280"/>
          <note pan="0" len="20" vol="105" key="43" pos="14280"/>
          <note pan="0" len="15" vol="113" key="71" pos="14304"/>
          <note pan="0" len="13" vol="97" key="63" pos="14304"/>
          <note pan="0" len="20" vol="114" key="47" pos="14304"/>
          <note pan="0" len="15" vol="121" key="67" pos="14328"/>
          <note pan="0" len="13" vol="108" key="62" pos="14328"/>
          <note pan="0" len="20" vol="94" key="43" pos="14328"/>
          <note pan="0" len="15" vol="111" key="71" pos="14352"/>
          <note pan="0" len="13" vol="110" key="63" pos="14352"/>
          <note pan="0" len="20" vol="110" key="47" pos="14352"/>
          <note pan="0" len="15" vol="102" key="67" pos="14376"/>
          <note pan="0" len="13" vol="103" key="62" pos="14376"/>
          <note pan="0" len="20" vol="116" key="43" pos="14376"/>
          <note pan="0" len="15" vol="110" key="71" pos="14400"/>
          <note pan="0" len="13" vol="97" key="63" pos="14400"/>
          <note pan="0" len="20" vol="133" key="47" pos="14400"/>
          <note pan="0" len="15" vol="116" key="67" pos="14424"/>
          <note pan="0" len="13" vol="99" key="62" pos="14424"/>
          <note pan="0" len="20" vol="100" key="43" pos="14424"/>
          <note pan="0" len="15" vol="110" key="71" pos="14448"/>
          <note pan="0" len="13" vol="99" key="63" pos="14448"/>
          <note pan="0" len="20" vol="119" key="47" pos="14448"/>
          <note pan="0" len="15" vol="105" key="67" pos="14472"/>
          <note pan="0" len="13" vol="96" key="62" pos="14472"/>
          <note pan="0" len="20" vol="97" key="43" pos="14472"/>
          <note pan="0" len="15" vol="94" key="71" pos="14496"/>
          <note pan="0" len="13" vol="81" key="63" pos="14496"/>
          <note pan="0" len="20" vol="129" key="47" pos="14496"/>
          <note pan="0" len="15" vol="91" key="67" pos="14520"/>
          <note pan="0" len="13" vol="86" key="62" pos="14520"/>
          <note pan="0" len="20" vol="111" key="43" pos="14520"/>
          <note pan="0" len="13" vol="80" key="63" pos="14544"/>
          <note pan="0" len="20" vol="135" key="47" pos="14544"/>
          <note pan="0" len="15" vol="86" key="67" pos="14546"/>
          <note pan="0" len="15" vol="86" key="71" pos="14549"/>
          <note pan="0" len="261" vol="132" key="60" pos="14592"/>
          <note pan="0" len="261" vol="132" key="48" pos="14592"/>
          <note pan="0" len="36" vol="141" key="24" pos="14592"/>
          <note pan="0" len="16" vol="127" key="39" pos="14640"/>
          <note pan="0" len="22" vol="124" key="36" pos="14640"/>
          <note pan="0" len="21" vol="118" key="31" pos="14640"/>
          <note pan="0" len="33" vol="124" key="27" pos="14688"/>
          <note pan="0" len="16" vol="127" key="39" pos="14736"/>
          <note pan="0" len="22" vol="124" key="36" pos="14736"/>
          <note pan="0" len="21" vol="118" key="31" pos="14736"/>
          <note pan="0" len="18" vol="141" key="24" pos="14784"/>
          <note pan="0" len="14" vol="99" key="39" pos="14808"/>
          <note pan="0" len="14" vol="99" key="36" pos="14808"/>
          <note pan="0" len="13" vol="99" key="31" pos="14808"/>
          <note pan="0" len="14" vol="89" key="39" pos="14832"/>
          <note pan="0" len="14" vol="89" key="36" pos="14832"/>
          <note pan="0" len="13" vol="89" key="31" pos="14832"/>
          <note pan="0" len="14" vol="102" key="43" pos="14856"/>
          <note pan="0" len="14" vol="102" key="39" pos="14856"/>
          <note pan="0" len="14" vol="102" key="36" pos="14856"/>
          <note pan="0" len="13" vol="102" key="31" pos="14856"/>
          <note pan="0" len="70" vol="125" key="54" pos="14880"/>
          <note pan="0" len="70" vol="125" key="42" pos="14880"/>
          <note pan="0" len="14" vol="91" key="39" pos="14880"/>
          <note pan="0" len="14" vol="91" key="36" pos="14880"/>
          <note pan="0" len="13" vol="91" key="31" pos="14880"/>
          <note pan="0" len="14" vol="91" key="39" pos="14904"/>
          <note pan="0" len="14" vol="91" key="36" pos="14904"/>
          <note pan="0" len="13" vol="91" key="31" pos="14904"/>
          <note pan="0" len="14" vol="130" key="39" pos="14928"/>
          <note pan="0" len="14" vol="130" key="36" pos="14928"/>
          <note pan="0" len="13" vol="130" key="31" pos="14928"/>
          <note pan="0" len="161" vol="129" key="55" pos="14976"/>
          <note pan="0" len="161" vol="129" key="43" pos="14976"/>
          <note pan="0" len="36" vol="141" key="20" pos="14976"/>
          <note pan="0" len="16" vol="127" key="36" pos="15024"/>
          <note pan="0" len="22" vol="124" key="32" pos="15024"/>
          <note pan="0" len="21" vol="118" key="27" pos="15024"/>
          <note pan="0" len="33" vol="124" key="24" pos="15072"/>
          <note pan="0" len="16" vol="127" key="36" pos="15120"/>
          <note pan="0" len="22" vol="124" key="32" pos="15120"/>
          <note pan="0" len="21" vol="118" key="27" pos="15120"/>
          <note pan="0" len="164" vol="138" key="49" pos="15168"/>
          <note pan="0" len="164" vol="138" key="37" pos="15168"/>
          <note pan="0" len="36" vol="141" key="25" pos="15168"/>
          <note pan="0" len="16" vol="127" key="41" pos="15216"/>
          <note pan="0" len="22" vol="124" key="37" pos="15216"/>
          <note pan="0" len="20" vol="118" key="32" pos="15216"/>
          <note pan="0" len="22" vol="124" key="29" pos="15240"/>
          <note pan="0" len="23" vol="118" key="29" pos="15288"/>
          <note pan="0" len="23" vol="141" key="25" pos="15312"/>
          <note pan="0" len="23" vol="141" key="13" pos="15312"/>
          <note pan="0" len="77" vol="146" key="48" pos="15360"/>
          <note pan="0" len="74" vol="110" key="43" pos="15360"/>
          <note pan="0" len="77" vol="146" key="36" pos="15360"/>
          <note pan="0" len="36" vol="143" key="24" pos="15360"/>
          <note pan="0" len="38" vol="143" key="12" pos="15360"/>
          <note pan="0" len="16" vol="127" key="39" pos="15408"/>
          <note pan="0" len="22" vol="124" key="36" pos="15408"/>
          <note pan="0" len="21" vol="118" key="31" pos="15408"/>
          <note pan="0" len="82" vol="130" key="60" pos="15456"/>
          <note pan="0" len="74" vol="121" key="55" pos="15456"/>
          <note pan="0" len="74" vol="121" key="51" pos="15456"/>
          <note pan="0" len="82" vol="130" key="48" pos="15456"/>
          <note pan="0" len="33" vol="124" key="27" pos="15456"/>
          <note pan="0" len="16" vol="127" key="39" pos="15504"/>
          <note pan="0" len="22" vol="124" key="36" pos="15504"/>
          <note pan="0" len="21" vol="118" key="31" pos="15504"/>
          <note pan="0" len="82" vol="124" key="72" pos="15552"/>
          <note pan="0" len="74" vol="121" key="67" pos="15552"/>
          <note pan="0" len="74" vol="121" key="63" pos="15552"/>
          <note pan="0" len="82" vol="124" key="60" pos="15552"/>
          <note pan="0" len="18" vol="141" key="24" pos="15552"/>
          <note pan="0" len="14" vol="99" key="39" pos="15576"/>
          <note pan="0" len="14" vol="99" key="36" pos="15576"/>
          <note pan="0" len="13" vol="99" key="31" pos="15576"/>
          <note pan="0" len="14" vol="89" key="39" pos="15600"/>
          <note pan="0" len="14" vol="89" key="36" pos="15600"/>
          <note pan="0" len="13" vol="89" key="31" pos="15600"/>
          <note pan="0" len="14" vol="102" key="43" pos="15624"/>
          <note pan="0" len="14" vol="102" key="39" pos="15624"/>
          <note pan="0" len="14" vol="102" key="36" pos="15624"/>
          <note pan="0" len="13" vol="102" key="31" pos="15624"/>
          <note pan="0" len="82" vol="133" key="66" pos="15648"/>
          <note pan="0" len="82" vol="133" key="54" pos="15648"/>
          <note pan="0" len="14" vol="91" key="39" pos="15648"/>
          <note pan="0" len="14" vol="91" key="36" pos="15648"/>
          <note pan="0" len="13" vol="91" key="31" pos="15648"/>
          <note pan="0" len="14" vol="91" key="39" pos="15672"/>
          <note pan="0" len="14" vol="91" key="36" pos="15672"/>
          <note pan="0" len="13" vol="91" key="31" pos="15672"/>
          <note pan="0" len="14" vol="130" key="39" pos="15696"/>
          <note pan="0" len="14" vol="130" key="36" pos="15696"/>
          <note pan="0" len="13" vol="130" key="31" pos="15696"/>
          <note pan="0" len="167" vol="140" key="67" pos="15744"/>
          <note pan="0" len="159" vol="121" key="63" pos="15744"/>
          <note pan="0" len="164" vol="121" key="60" pos="15744"/>
          <note pan="0" len="167" vol="140" key="55" pos="15744"/>
          <note pan="0" len="36" vol="141" key="20" pos="15744"/>
          <note pan="0" len="16" vol="127" key="36" pos="15792"/>
          <note pan="0" len="22" vol="124" key="32" pos="15792"/>
          <note pan="0" len="21" vol="118" key="27" pos="15792"/>
          <note pan="0" len="33" vol="124" key="24" pos="15840"/>
          <note pan="0" len="16" vol="127" key="36" pos="15888"/>
          <note pan="0" len="22" vol="124" key="32" pos="15888"/>
          <note pan="0" len="21" vol="118" key="27" pos="15888"/>
          <note pan="0" len="170" vol="129" key="61" pos="15931"/>
          <note pan="0" len="164" vol="121" key="65" pos="15935"/>
          <note pan="0" len="164" vol="121" key="68" pos="15936"/>
          <note pan="0" len="36" vol="141" key="25" pos="15936"/>
          <note pan="0" len="167" vol="129" key="73" pos="15939"/>
          <note pan="0" len="16" vol="127" key="41" pos="15984"/>
          <note pan="0" len="22" vol="124" key="37" pos="15984"/>
          <note pan="0" len="20" vol="118" key="32" pos="15984"/>
          <note pan="0" len="22" vol="124" key="29" pos="16008"/>
          <note pan="0" len="23" vol="118" key="29" pos="16056"/>
          <note pan="0" len="23" vol="141" key="25" pos="16080"/>
          <note pan="0" len="23" vol="141" key="13" pos="16080"/>
          <note pan="0" len="24" vol="137" key="60" pos="16122"/>
          <note pan="0" len="22" vol="121" key="63" pos="16127"/>
          <note pan="0" len="33" vol="141" key="24" pos="16128"/>
          <note pan="0" len="33" vol="141" key="12" pos="16128"/>
          <note pan="0" len="20" vol="121" key="67" pos="16133"/>
          <note pan="0" len="17" vol="137" key="72" pos="16138"/>
          <note pan="0" len="17" vol="133" key="39" pos="16176"/>
          <note pan="0" len="15" vol="133" key="36" pos="16176"/>
          <note pan="0" len="17" vol="133" key="31" pos="16176"/>
          <note pan="0" len="12" vol="138" key="48" pos="16224"/>
          <note pan="0" len="22" vol="113" key="27" pos="16224"/>
          <note pan="0" len="12" vol="118" key="51" pos="16236"/>
          <note pan="0" len="12" vol="125" key="55" pos="16248"/>
          <note pan="0" len="20" vol="102" key="24" pos="16248"/>
          <note pan="0" len="12" vol="110" key="60" pos="16260"/>
          <note pan="0" len="12" vol="113" key="63" pos="16272"/>
          <note pan="0" len="20" vol="135" key="31" pos="16272"/>
          <note pan="0" len="19" vol="135" key="36" pos="16274"/>
          <note pan="0" len="12" vol="122" key="67" pos="16284"/>
          <note pan="0" len="12" vol="137" key="72" pos="16296"/>
          <note pan="0" len="12" vol="135" key="75" pos="16308"/>
          <note pan="0" len="12" vol="113" key="43" pos="16320"/>
          <note pan="0" len="21" vol="129" key="24" pos="16320"/>
          <note pan="0" len="12" vol="116" key="48" pos="16332"/>
          <note pan="0" len="12" vol="132" key="51" pos="16344"/>
          <note pan="0" len="20" vol="111" key="27" pos="16344"/>
          <note pan="0" len="12" vol="121" key="48" pos="16356"/>
          <note pan="0" len="12" vol="113" key="51" pos="16368"/>
          <note pan="0" len="19" vol="119" key="31" pos="16368"/>
          <note pan="0" len="12" vol="124" key="55" pos="16380"/>
          <note pan="0" len="12" vol="133" key="60" pos="16392"/>
          <note pan="0" len="23" vol="100" key="27" pos="16392"/>
          <note pan="0" len="12" vol="127" key="51" pos="16404"/>
          <note pan="0" len="12" vol="130" key="55" pos="16416"/>
          <note pan="0" len="26" vol="144" key="36" pos="16416"/>
          <note pan="0" len="12" vol="133" key="60" pos="16428"/>
          <note pan="0" len="12" vol="138" key="63" pos="16440"/>
          <note pan="0" len="20" vol="108" key="31" pos="16440"/>
          <note pan="0" len="12" vol="129" key="67" pos="16452"/>
          <note pan="0" len="12" vol="111" key="59" pos="16464"/>
          <note pan="0" len="20" vol="124" key="27" pos="16464"/>
          <note pan="0" len="12" vol="130" key="62" pos="16476"/>
          <note pan="0" len="12" vol="141" key="67" pos="16488"/>
          <note pan="0" len="7" vol="116" key="24" pos="16488"/>
          <note pan="0" len="12" vol="137" key="71" pos="16500"/>
          <note pan="0" len="12" vol="132" key="63" pos="16512"/>
          <note pan="0" len="33" vol="141" key="20" pos="16512"/>
          <note pan="0" len="33" vol="141" key="8" pos="16512"/>
          <note pan="0" len="12" vol="114" key="60" pos="16524"/>
          <note pan="0" len="12" vol="135" key="56" pos="16536"/>
          <note pan="0" len="12" vol="118" key="63" pos="16548"/>
          <note pan="0" len="12" vol="127" key="60" pos="16560"/>
          <note pan="0" len="29" vol="133" key="35" pos="16560"/>
          <note pan="0" len="18" vol="133" key="27" pos="16560"/>
          <note pan="0" len="15" vol="133" key="32" pos="16562"/>
          <note pan="0" len="12" vol="132" key="56" pos="16572"/>
          <note pan="0" len="12" vol="122" key="60" pos="16584"/>
          <note pan="0" len="12" vol="135" key="63" pos="16596"/>
          <note pan="0" len="12" vol="129" key="68" pos="16608"/>
          <note pan="0" len="15" vol="113" key="23" pos="16608"/>
          <note pan="0" len="12" vol="121" key="63" pos="16620"/>
          <note pan="0" len="12" vol="129" key="56" pos="16632"/>
          <note pan="0" len="18" vol="102" key="20" pos="16632"/>
          <note pan="0" len="12" vol="121" key="60" pos="16644"/>
          <note pan="0" len="12" vol="108" key="63" pos="16656"/>
          <note pan="0" len="23" vol="135" key="27" pos="16656"/>
          <note pan="0" len="15" vol="135" key="32" pos="16658"/>
          <note pan="0" len="12" vol="116" key="60" pos="16668"/>
          <note pan="0" len="12" vol="118" key="56" pos="16680"/>
          <note pan="0" len="12" vol="129" key="62" pos="16692"/>
          <note pan="0" len="12" vol="133" key="61" pos="16704"/>
          <note pan="0" len="33" vol="141" key="25" pos="16704"/>
          <note pan="0" len="33" vol="141" key="13" pos="16704"/>
          <note pan="0" len="12" vol="124" key="56" pos="16716"/>
          <note pan="0" len="12" vol="146" key="53" pos="16728"/>
          <note pan="0" len="12" vol="138" key="56" pos="16740"/>
          <note pan="0" len="12" vol="140" key="53" pos="16752"/>
          <note pan="0" len="22" vol="119" key="32" pos="16752"/>
          <note pan="0" len="12" vol="130" key="56" pos="16764"/>
          <note pan="0" len="12" vol="129" key="61" pos="16776"/>
          <note pan="0" len="20" vol="100" key="29" pos="16776"/>
          <note pan="0" len="12" vol="138" key="65" pos="16788"/>
          <note pan="0" len="12" vol="135" key="61" pos="16800"/>
          <note pan="0" len="15" vol="144" key="37" pos="16800"/>
          <note pan="0" len="18" vol="127" key="41" pos="16801"/>
          <note pan="0" len="12" vol="124" key="56" pos="16812"/>
          <note pan="0" len="12" vol="130" key="53" pos="16824"/>
          <note pan="0" len="16" vol="108" key="32" pos="16824"/>
          <note pan="0" len="12" vol="129" key="56" pos="16836"/>
          <note pan="0" len="12" vol="125" key="61" pos="16848"/>
          <note pan="0" len="20" vol="124" key="29" pos="16848"/>
          <note pan="0" len="12" vol="121" key="56" pos="16860"/>
          <note pan="0" len="12" vol="124" key="61" pos="16872"/>
          <note pan="0" len="13" vol="116" key="25" pos="16872"/>
          <note pan="0" len="12" vol="137" key="53" pos="16884"/>
          <note pan="0" len="12" vol="121" key="48" pos="16896"/>
          <note pan="0" len="33" vol="141" key="24" pos="16896"/>
          <note pan="0" len="33" vol="141" key="12" pos="16896"/>
          <note pan="0" len="12" vol="114" key="51" pos="16908"/>
          <note pan="0" len="12" vol="127" key="55" pos="16920"/>
          <note pan="0" len="12" vol="125" key="60" pos="16932"/>
          <note pan="0" len="12" vol="121" key="63" pos="16944"/>
          <note pan="0" len="17" vol="133" key="39" pos="16944"/>
          <note pan="0" len="15" vol="133" key="36" pos="16944"/>
          <note pan="0" len="17" vol="133" key="31" pos="16944"/>
          <note pan="0" len="12" vol="116" key="51" pos="16956"/>
          <note pan="0" len="12" vol="137" key="55" pos="16968"/>
          <note pan="0" len="12" vol="121" key="60" pos="16980"/>
          <note pan="0" len="12" vol="137" key="48" pos="16992"/>
          <note pan="0" len="22" vol="113" key="27" pos="16992"/>
          <note pan="0" len="12" vol="111" key="51" pos="17004"/>
          <note pan="0" len="12" vol="121" key="55" pos="17016"/>
          <note pan="0" len="20" vol="102" key="24" pos="17016"/>
          <note pan="0" len="12" vol="111" key="60" pos="17028"/>
          <note pan="0" len="12" vol="121" key="63" pos="17040"/>
          <note pan="0" len="20" vol="135" key="31" pos="17040"/>
          <note pan="0" len="19" vol="135" key="36" pos="17042"/>
          <note pan="0" len="12" vol="143" key="67" pos="17052"/>
          <note pan="0" len="12" vol="124" key="55" pos="17064"/>
          <note pan="0" len="12" vol="127" key="60" pos="17076"/>
          <note pan="0" len="12" vol="122" key="51" pos="17088"/>
          <note pan="0" len="21" vol="129" key="24" pos="17088"/>
          <note pan="0" len="12" vol="133" key="55" pos="17100"/>
          <note pan="0" len="12" vol="132" key="60" pos="17112"/>
          <note pan="0" len="20" vol="111" key="27" pos="17112"/>
          <note pan="0" len="12" vol="132" key="63" pos="17124"/>
          <note pan="0" len="12" vol="130" key="67" pos="17136"/>
          <note pan="0" len="19" vol="119" key="31" pos="17136"/>
          <note pan="0" len="12" vol="129" key="72" pos="17148"/>
          <note pan="0" len="12" vol="141" key="60" pos="17160"/>
          <note pan="0" len="23" vol="100" key="27" pos="17160"/>
          <note pan="0" len="12" vol="100" key="63" pos="17172"/>
          <note pan="0" len="12" vol="102" key="51" pos="17184"/>
          <note pan="0" len="26" vol="144" key="36" pos="17184"/>
          <note pan="0" len="12" vol="135" key="55" pos="17196"/>
          <note pan="0" len="12" vol="121" key="60" pos="17208"/>
          <note pan="0" len="20" vol="108" key="31" pos="17208"/>
          <note pan="0" len="12" vol="127" key="63" pos="17220"/>
          <note pan="0" len="12" vol="141" key="67" pos="17232"/>
          <note pan="0" len="20" vol="124" key="27" pos="17232"/>
          <note pan="0" len="12" vol="121" key="63" pos="17244"/>
          <note pan="0" len="12" vol="114" key="75" pos="17256"/>
          <note pan="0" len="7" vol="116" key="24" pos="17256"/>
          <note pan="0" len="12" vol="130" key="44" pos="17280"/>
          <note pan="0" len="33" vol="141" key="20" pos="17280"/>
          <note pan="0" len="33" vol="141" key="8" pos="17280"/>
          <note pan="0" len="12" vol="141" key="48" pos="17292"/>
          <note pan="0" len="12" vol="121" key="51" pos="17304"/>
          <note pan="0" len="12" vol="118" key="48" pos="17316"/>
          <note pan="0" len="12" vol="121" key="51" pos="17328"/>
          <note pan="0" len="29" vol="133" key="35" pos="17328"/>
          <note pan="0" len="18" vol="133" key="27" pos="17328"/>
          <note pan="0" len="15" vol="133" key="32" pos="17330"/>
          <note pan="0" len="12" vol="124" key="56" pos="17340"/>
          <note pan="0" len="12" vol="132" key="51" pos="17352"/>
          <note pan="0" len="12" vol="113" key="60" pos="17364"/>
          <note pan="0" len="12" vol="140" key="56" pos="17376"/>
          <note pan="0" len="15" vol="113" key="23" pos="17376"/>
          <note pan="0" len="12" vol="132" key="51" pos="17388"/>
          <note pan="0" len="12" vol="122" key="48" pos="17400"/>
          <note pan="0" len="18" vol="102" key="20" pos="17400"/>
          <note pan="0" len="12" vol="121" key="44" pos="17412"/>
          <note pan="0" len="12" vol="124" key="48" pos="17424"/>
          <note pan="0" len="23" vol="135" key="27" pos="17424"/>
          <note pan="0" len="15" vol="135" key="32" pos="17426"/>
          <note pan="0" len="12" vol="129" key="44" pos="17436"/>
          <note pan="0" len="12" vol="141" key="39" pos="17448"/>
          <note pan="0" len="12" vol="146" key="38" pos="17460"/>
          <note pan="0" len="12" vol="129" key="37" pos="17472"/>
          <note pan="0" len="33" vol="141" key="25" pos="17472"/>
          <note pan="0" len="33" vol="141" key="13" pos="17472"/>
          <note pan="0" len="12" vol="137" key="41" pos="17484"/>
          <note pan="0" len="12" vol="141" key="44" pos="17496"/>
          <note pan="0" len="12" vol="130" key="49" pos="17508"/>
          <note pan="0" len="12" vol="119" key="53" pos="17520"/>
          <note pan="0" len="22" vol="119" key="32" pos="17520"/>
          <note pan="0" len="12" vol="133" key="56" pos="17532"/>
          <note pan="0" len="12" vol="133" key="49" pos="17544"/>
          <note pan="0" len="20" vol="100" key="29" pos="17544"/>
          <note pan="0" len="12" vol="132" key="53" pos="17556"/>
          <note pan="0" len="12" vol="111" key="41" pos="17568"/>
          <note pan="0" len="15" vol="144" key="37" pos="17568"/>
          <note pan="0" len="18" vol="127" key="41" pos="17569"/>
          <note pan="0" len="12" vol="141" key="44" pos="17580"/>
          <note pan="0" len="12" vol="140" key="49" pos="17592"/>
          <note pan="0" len="16" vol="108" key="32" pos="17592"/>
          <note pan="0" len="12" vol="138" key="44" pos="17604"/>
          <note pan="0" len="12" vol="137" key="41" pos="17616"/>
          <note pan="0" len="20" vol="124" key="29" pos="17616"/>
          <note pan="0" len="12" vol="122" key="37" pos="17628"/>
          <note pan="0" len="12" vol="129" key="36" pos="17640"/>
          <note pan="0" len="13" vol="141" key="26" pos="17640"/>
          <note pan="0" len="13" vol="141" key="14" pos="17640"/>
          <note pan="0" len="12" vol="127" key="37" pos="17652"/>
          <note pan="0" len="33" vol="152" key="27" pos="17664"/>
          <note pan="0" len="33" vol="152" key="15" pos="17664"/>
          <note pan="0" len="17" vol="133" key="42" pos="17712"/>
          <note pan="0" len="15" vol="133" key="39" pos="17712"/>
          <note pan="0" len="17" vol="133" key="34" pos="17712"/>
          <note pan="0" len="12" vol="138" key="51" pos="17760"/>
          <note pan="0" len="22" vol="113" key="30" pos="17760"/>
          <note pan="0" len="12" vol="118" key="54" pos="17772"/>
          <note pan="0" len="12" vol="125" key="58" pos="17784"/>
          <note pan="0" len="20" vol="102" key="27" pos="17784"/>
          <note pan="0" len="12" vol="110" key="63" pos="17796"/>
          <note pan="0" len="12" vol="113" key="66" pos="17808"/>
          <note pan="0" len="20" vol="135" key="34" pos="17808"/>
          <note pan="0" len="19" vol="135" key="39" pos="17810"/>
          <note pan="0" len="12" vol="122" key="70" pos="17820"/>
          <note pan="0" len="12" vol="137" key="75" pos="17832"/>
          <note pan="0" len="12" vol="135" key="78" pos="17844"/>
          <note pan="0" len="12" vol="113" key="46" pos="17856"/>
          <note pan="0" len="21" vol="129" key="27" pos="17856"/>
          <note pan="0" len="12" vol="116" key="51" pos="17868"/>
          <note pan="0" len="12" vol="132" key="54" pos="17880"/>
          <note pan="0" len="20" vol="111" key="30" pos="17880"/>
          <note pan="0" len="12" vol="121" key="51" pos="17892"/>
          <note pan="0" len="12" vol="113" key="54" pos="17904"/>
          <note pan="0" len="19" vol="119" key="34" pos="17904"/>
          <note pan="0" len="12" vol="124" key="58" pos="17916"/>
          <note pan="0" len="12" vol="133" key="63" pos="17928"/>
          <note pan="0" len="23" vol="100" key="30" pos="17928"/>
          <note pan="0" len="12" vol="127" key="54" pos="17940"/>
          <note pan="0" len="12" vol="130" key="58" pos="17952"/>
          <note pan="0" len="26" vol="144" key="39" pos="17952"/>
          <note pan="0" len="12" vol="133" key="63" pos="17964"/>
          <note pan="0" len="12" vol="138" key="66" pos="17976"/>
          <note pan="0" len="20" vol="108" key="34" pos="17976"/>
          <note pan="0" len="12" vol="129" key="70" pos="17988"/>
          <note pan="0" len="12" vol="111" key="62" pos="18000"/>
          <note pan="0" len="20" vol="124" key="30" pos="18000"/>
          <note pan="0" len="12" vol="130" key="65" pos="18012"/>
          <note pan="0" len="12" vol="141" key="70" pos="18024"/>
          <note pan="0" len="7" vol="116" key="27" pos="18024"/>
          <note pan="0" len="12" vol="137" key="74" pos="18036"/>
          <note pan="0" len="12" vol="132" key="66" pos="18048"/>
          <note pan="0" len="33" vol="141" key="23" pos="18048"/>
          <note pan="0" len="33" vol="141" key="11" pos="18048"/>
          <note pan="0" len="12" vol="114" key="63" pos="18060"/>
          <note pan="0" len="12" vol="135" key="59" pos="18072"/>
          <note pan="0" len="12" vol="118" key="66" pos="18084"/>
          <note pan="0" len="12" vol="127" key="63" pos="18096"/>
          <note pan="0" len="29" vol="133" key="38" pos="18096"/>
          <note pan="0" len="18" vol="133" key="30" pos="18096"/>
          <note pan="0" len="15" vol="133" key="35" pos="18098"/>
          <note pan="0" len="12" vol="132" key="59" pos="18108"/>
          <note pan="0" len="12" vol="122" key="63" pos="18120"/>
          <note pan="0" len="12" vol="135" key="66" pos="18132"/>
          <note pan="0" len="12" vol="129" key="71" pos="18144"/>
          <note pan="0" len="15" vol="113" key="26" pos="18144"/>
          <note pan="0" len="12" vol="121" key="66" pos="18156"/>
          <note pan="0" len="12" vol="129" key="59" pos="18168"/>
          <note pan="0" len="18" vol="102" key="23" pos="18168"/>
          <note pan="0" len="12" vol="121" key="63" pos="18180"/>
          <note pan="0" len="12" vol="108" key="66" pos="18192"/>
          <note pan="0" len="23" vol="135" key="30" pos="18192"/>
          <note pan="0" len="15" vol="135" key="35" pos="18194"/>
          <note pan="0" len="12" vol="116" key="63" pos="18204"/>
          <note pan="0" len="12" vol="118" key="59" pos="18216"/>
          <note pan="0" len="12" vol="129" key="65" pos="18228"/>
          <note pan="0" len="12" vol="133" key="64" pos="18240"/>
          <note pan="0" len="33" vol="141" key="28" pos="18240"/>
          <note pan="0" len="33" vol="141" key="16" pos="18240"/>
          <note pan="0" len="12" vol="124" key="59" pos="18252"/>
          <note pan="0" len="12" vol="146" key="56" pos="18264"/>
          <note pan="0" len="12" vol="138" key="59" pos="18276"/>
          <note pan="0" len="12" vol="140" key="56" pos="18288"/>
          <note pan="0" len="22" vol="119" key="35" pos="18288"/>
          <note pan="0" len="12" vol="130" key="59" pos="18300"/>
          <note pan="0" len="12" vol="129" key="64" pos="18312"/>
          <note pan="0" len="20" vol="100" key="32" pos="18312"/>
          <note pan="0" len="12" vol="138" key="68" pos="18324"/>
          <note pan="0" len="12" vol="135" key="64" pos="18336"/>
          <note pan="0" len="15" vol="144" key="40" pos="18336"/>
          <note pan="0" len="18" vol="127" key="44" pos="18337"/>
          <note pan="0" len="12" vol="124" key="59" pos="18348"/>
          <note pan="0" len="12" vol="130" key="56" pos="18360"/>
          <note pan="0" len="16" vol="108" key="35" pos="18360"/>
          <note pan="0" len="12" vol="129" key="59" pos="18372"/>
          <note pan="0" len="12" vol="125" key="64" pos="18384"/>
          <note pan="0" len="20" vol="124" key="32" pos="18384"/>
          <note pan="0" len="12" vol="121" key="59" pos="18396"/>
          <note pan="0" len="12" vol="124" key="64" pos="18408"/>
          <note pan="0" len="13" vol="116" key="28" pos="18408"/>
          <note pan="0" len="12" vol="137" key="56" pos="18420"/>
          <note pan="0" len="48" vol="143" key="58" pos="18432"/>
          <note pan="0" len="38" vol="124" key="54" pos="18432"/>
          <note pan="0" len="33" vol="141" key="27" pos="18432"/>
          <note pan="0" len="33" vol="141" key="15" pos="18432"/>
          <note pan="0" len="17" vol="133" key="42" pos="18480"/>
          <note pan="0" len="15" vol="133" key="39" pos="18480"/>
          <note pan="0" len="17" vol="133" key="34" pos="18480"/>
          <note pan="0" len="21" vol="125" key="56" pos="18504"/>
          <note pan="0" len="36" vol="137" key="54" pos="18528"/>
          <note pan="0" len="37" vol="133" key="51" pos="18528"/>
          <note pan="0" len="22" vol="113" key="30" pos="18528"/>
          <note pan="0" len="20" vol="102" key="27" pos="18552"/>
          <note pan="0" len="20" vol="135" key="34" pos="18576"/>
          <note pan="0" len="19" vol="135" key="39" pos="18578"/>
          <note pan="0" len="21" vol="127" key="57" pos="18600"/>
          <note pan="0" len="36" vol="143" key="58" pos="18624"/>
          <note pan="0" len="33" vol="129" key="51" pos="18624"/>
          <note pan="0" len="21" vol="129" key="27" pos="18624"/>
          <note pan="0" len="20" vol="111" key="30" pos="18648"/>
          <note pan="0" len="121" vol="132" key="51" pos="18672"/>
          <note pan="0" len="126" vol="127" key="46" pos="18672"/>
          <note pan="0" len="19" vol="119" key="34" pos="18672"/>
          <note pan="0" len="23" vol="100" key="30" pos="18696"/>
          <note pan="0" len="26" vol="144" key="39" pos="18720"/>
          <note pan="0" len="20" vol="108" key="34" pos="18744"/>
          <note pan="0" len="20" vol="124" key="30" pos="18768"/>
          <note pan="0" len="7" vol="116" key="27" pos="18792"/>
          <note pan="0" len="12" vol="130" key="47" pos="18816"/>
          <note pan="0" len="33" vol="141" key="23" pos="18816"/>
          <note pan="0" len="33" vol="141" key="11" pos="18816"/>
          <note pan="0" len="12" vol="141" key="51" pos="18828"/>
          <note pan="0" len="12" vol="121" key="54" pos="18840"/>
          <note pan="0" len="12" vol="118" key="51" pos="18852"/>
          <note pan="0" len="12" vol="121" key="54" pos="18864"/>
          <note pan="0" len="29" vol="133" key="38" pos="18864"/>
          <note pan="0" len="18" vol="133" key="30" pos="18864"/>
          <note pan="0" len="15" vol="133" key="35" pos="18866"/>
          <note pan="0" len="12" vol="124" key="59" pos="18876"/>
          <note pan="0" len="12" vol="132" key="54" pos="18888"/>
          <note pan="0" len="12" vol="113" key="63" pos="18900"/>
          <note pan="0" len="12" vol="140" key="59" pos="18912"/>
          <note pan="0" len="15" vol="113" key="26" pos="18912"/>
          <note pan="0" len="12" vol="132" key="54" pos="18924"/>
          <note pan="0" len="12" vol="122" key="51" pos="18936"/>
          <note pan="0" len="18" vol="102" key="23" pos="18936"/>
          <note pan="0" len="12" vol="121" key="47" pos="18948"/>
          <note pan="0" len="12" vol="124" key="51" pos="18960"/>
          <note pan="0" len="23" vol="135" key="30" pos="18960"/>
          <note pan="0" len="15" vol="135" key="35" pos="18962"/>
          <note pan="0" len="12" vol="129" key="47" pos="18972"/>
          <note pan="0" len="12" vol="141" key="42" pos="18984"/>
          <note pan="0" len="12" vol="146" key="41" pos="18996"/>
          <note pan="0" len="12" vol="129" key="40" pos="19008"/>
          <note pan="0" len="33" vol="141" key="28" pos="19008"/>
          <note pan="0" len="33" vol="141" key="16" pos="19008"/>
          <note pan="0" len="12" vol="137" key="44" pos="19020"/>
          <note pan="0" len="12" vol="141" key="47" pos="19032"/>
          <note pan="0" len="12" vol="130" key="51" pos="19044"/>
          <note pan="0" len="30" vol="130" key="47" pos="19056"/>
          <note pan="0" len="33" vol="130" key="40" pos="19056"/>
          <note pan="0" len="33" vol="130" key="28" pos="19056"/>
          <note pan="0" len="27" vol="138" key="52" pos="19057"/>
          <note pan="0" len="20" vol="130" key="52" pos="19104"/>
          <note pan="0" len="33" vol="127" key="44" pos="19104"/>
          <note pan="0" len="33" vol="127" key="32" pos="19104"/>
          <note pan="0" len="20" vol="125" key="56" pos="19105"/>
          <note pan="0" len="27" vol="132" key="59" pos="19152"/>
          <note pan="0" len="26" vol="129" key="52" pos="19152"/>
          <note pan="0" len="33" vol="141" key="47" pos="19152"/>
          <note pan="0" len="33" vol="141" key="35" pos="19152"/>
          <note pan="0" len="27" vol="141" key="34" pos="19198"/>
          <note pan="0" len="25" vol="141" key="58" pos="19200"/>
          <note pan="0" len="28" vol="133" key="51" pos="19200"/>
          <note pan="0" len="27" vol="118" key="39" pos="19200"/>
          <note pan="0" len="24" vol="118" key="42" pos="19202"/>
          <note pan="0" len="19" vol="141" key="46" pos="19206"/>
          <note pan="0" len="29" vol="137" key="58" pos="19248"/>
          <note pan="0" len="27" vol="132" key="51" pos="19248"/>
          <note pan="0" len="33" vol="148" key="27" pos="19248"/>
          <note pan="0" len="33" vol="148" key="15" pos="19248"/>
          <note pan="0" len="12" vol="138" key="46" pos="19296"/>
          <note pan="0" len="20" vol="118" key="27" pos="19296"/>
          <note pan="0" len="12" vol="129" key="51" pos="19308"/>
          <note pan="0" len="12" vol="121" key="54" pos="19320"/>
          <note pan="0" len="15" vol="124" key="27" pos="19320"/>
          <note pan="0" len="12" vol="130" key="51" pos="19332"/>
          <note pan="0" len="21" vol="129" key="34" pos="19342"/>
          <note pan="0" len="12" vol="121" key="54" pos="19344"/>
          <note pan="0" len="20" vol="129" key="42" pos="19344"/>
          <note pan="0" len="20" vol="129" key="39" pos="19344"/>
          <note pan="0" len="12" vol="122" key="58" pos="19356"/>
          <note pan="0" len="12" vol="130" key="63" pos="19368"/>
          <note pan="0" len="12" vol="130" key="51" pos="19380"/>
          <note pan="0" len="12" vol="135" key="46" pos="19392"/>
          <note pan="0" len="16" vol="148" key="42" pos="19392"/>
          <note pan="0" len="12" vol="119" key="51" pos="19404"/>
          <note pan="0" len="13" vol="124" key="41" pos="19404"/>
          <note pan="0" len="12" vol="125" key="54" pos="19416"/>
          <note pan="0" len="15" vol="141" key="39" pos="19416"/>
          <note pan="0" len="12" vol="124" key="51" pos="19428"/>
          <note pan="0" len="12" vol="132" key="54" pos="19440"/>
          <note pan="0" len="21" vol="132" key="34" pos="19440"/>
          <note pan="0" len="12" vol="118" key="58" pos="19452"/>
          <note pan="0" len="12" vol="118" key="54" pos="19464"/>
          <note pan="0" len="19" vol="122" key="30" pos="19464"/>
          <note pan="0" len="12" vol="125" key="63" pos="19476"/>
          <note pan="0" len="12" vol="125" key="62" pos="19488"/>
          <note pan="0" len="41" vol="143" key="29" pos="19488"/>
          <note pan="0" len="12" vol="127" key="58" pos="19500"/>
          <note pan="0" len="12" vol="130" key="53" pos="19512"/>
          <note pan="0" len="12" vol="127" key="50" pos="19524"/>
          <note pan="0" len="12" vol="124" key="53" pos="19536"/>
          <note pan="0" len="40" vol="132" key="22" pos="19536"/>
          <note pan="0" len="12" vol="127" key="50" pos="19548"/>
          <note pan="0" len="12" vol="124" key="46" pos="19560"/>
          <note pan="0" len="12" vol="121" key="41" pos="19572"/>
          <note pan="0" len="12" vol="118" key="42" pos="19584"/>
          <note pan="0" len="36" vol="143" key="23" pos="19584"/>
          <note pan="0" len="36" vol="143" key="11" pos="19584"/>
          <note pan="0" len="12" vol="132" key="47" pos="19596"/>
          <note pan="0" len="12" vol="118" key="51" pos="19608"/>
          <note pan="0" len="12" vol="137" key="54" pos="19620"/>
          <note pan="0" len="12" vol="132" key="59" pos="19632"/>
          <note pan="0" len="20" vol="137" key="35" pos="19632"/>
          <note pan="0" len="20" vol="137" key="27" pos="19632"/>
          <note pan="0" len="12" vol="130" key="54" pos="19644"/>
          <note pan="0" len="12" vol="146" key="51" pos="19656"/>
          <note pan="0" len="12" vol="141" key="47" pos="19668"/>
          <note pan="0" len="12" vol="124" key="42" pos="19680"/>
          <note pan="0" len="18" vol="127" key="27" pos="19680"/>
          <note pan="0" len="12" vol="119" key="47" pos="19692"/>
          <note pan="0" len="12" vol="130" key="51" pos="19704"/>
          <note pan="0" len="12" vol="148" key="29" pos="19704"/>
          <note pan="0" len="12" vol="124" key="47" pos="19716"/>
          <note pan="0" len="12" vol="129" key="30" pos="19716"/>
          <note pan="0" len="12" vol="118" key="42" pos="19728"/>
          <note pan="0" len="18" vol="132" key="29" pos="19728"/>
          <note pan="0" len="12" vol="121" key="51" pos="19740"/>
          <note pan="0" len="12" vol="132" key="47" pos="19752"/>
          <note pan="0" len="18" vol="124" key="27" pos="19752"/>
          <note pan="0" len="12" vol="138" key="42" pos="19764"/>
          <note pan="0" len="12" vol="135" key="44" pos="19776"/>
          <note pan="0" len="30" vol="140" key="28" pos="19776"/>
          <note pan="0" len="30" vol="132" key="23" pos="19776"/>
          <note pan="0" len="12" vol="124" key="47" pos="19788"/>
          <note pan="0" len="12" vol="124" key="52" pos="19800"/>
          <note pan="0" len="12" vol="137" key="44" pos="19812"/>
          <note pan="0" len="12" vol="138" key="47" pos="19824"/>
          <note pan="0" len="22" vol="143" key="28" pos="19824"/>
          <note pan="0" len="22" vol="143" key="16" pos="19824"/>
          <note pan="0" len="12" vol="148" key="52" pos="19836"/>
          <note pan="0" len="12" vol="143" key="47" pos="19848"/>
          <note pan="0" len="12" vol="137" key="40" pos="19860"/>
          <note pan="0" len="13" vol="129" key="34" pos="19868"/>
          <note pan="0" len="12" vol="125" key="44" pos="19872"/>
          <note pan="0" len="15" vol="144" key="35" pos="19872"/>
          <note pan="0" len="12" vol="125" key="47" pos="19884"/>
          <note pan="0" len="12" vol="138" key="52" pos="19896"/>
          <note pan="0" len="18" vol="138" key="32" pos="19896"/>
          <note pan="0" len="12" vol="137" key="44" pos="19908"/>
          <note pan="0" len="12" vol="124" key="47" pos="19920"/>
          <note pan="0" len="22" vol="129" key="28" pos="19920"/>
          <note pan="0" len="12" vol="133" key="52" pos="19932"/>
          <note pan="0" len="12" vol="132" key="44" pos="19944"/>
          <note pan="0" len="19" vol="138" key="23" pos="19944"/>
          <note pan="0" len="12" vol="135" key="52" pos="19956"/>
          <note pan="0" len="12" vol="118" key="37" pos="19968"/>
          <note pan="0" len="168" vol="140" key="28" pos="19968"/>
          <note pan="0" len="168" vol="141" key="21" pos="19968"/>
          <note pan="0" len="12" vol="130" key="40" pos="19980"/>
          <note pan="0" len="12" vol="122" key="45" pos="19992"/>
          <note pan="0" len="12" vol="129" key="37" pos="20004"/>
          <note pan="0" len="12" vol="137" key="40" pos="20016"/>
          <note pan="0" len="12" vol="125" key="45" pos="20028"/>
          <note pan="0" len="12" vol="130" key="37" pos="20040"/>
          <note pan="0" len="12" vol="137" key="40" pos="20052"/>
          <note pan="0" len="12" vol="124" key="45" pos="20064"/>
          <note pan="0" len="12" vol="118" key="37" pos="20076"/>
          <note pan="0" len="12" vol="127" key="40" pos="20088"/>
          <note pan="0" len="12" vol="124" key="45" pos="20100"/>
          <note pan="0" len="12" vol="133" key="37" pos="20112"/>
          <note pan="0" len="12" vol="127" key="40" pos="20124"/>
          <note pan="0" len="12" vol="124" key="45" pos="20136"/>
          <note pan="0" len="12" vol="133" key="40" pos="20148"/>
          <note pan="0" len="12" vol="118" key="31" pos="20160"/>
          <note pan="0" len="168" vol="141" key="27" pos="20160"/>
          <note pan="0" len="168" vol="140" key="22" pos="20160"/>
          <note pan="0" len="12" vol="130" key="34" pos="20172"/>
          <note pan="0" len="12" vol="122" key="39" pos="20184"/>
          <note pan="0" len="12" vol="129" key="31" pos="20196"/>
          <note pan="0" len="12" vol="137" key="34" pos="20208"/>
          <note pan="0" len="12" vol="125" key="39" pos="20220"/>
          <note pan="0" len="12" vol="130" key="31" pos="20232"/>
          <note pan="0" len="12" vol="137" key="34" pos="20244"/>
          <note pan="0" len="12" vol="124" key="39" pos="20256"/>
          <note pan="0" len="12" vol="118" key="31" pos="20268"/>
          <note pan="0" len="12" vol="127" key="34" pos="20280"/>
          <note pan="0" len="12" vol="124" key="39" pos="20292"/>
          <note pan="0" len="12" vol="133" key="31" pos="20304"/>
          <note pan="0" len="12" vol="127" key="34" pos="20316"/>
          <note pan="0" len="12" vol="124" key="39" pos="20328"/>
          <note pan="0" len="12" vol="133" key="34" pos="20340"/>
          <note pan="0" len="12" vol="118" key="36" pos="20352"/>
          <note pan="0" len="84" vol="140" key="27" pos="20352"/>
          <note pan="0" len="81" vol="140" key="20" pos="20352"/>
          <note pan="0" len="12" vol="130" key="39" pos="20364"/>
          <note pan="0" len="12" vol="122" key="44" pos="20376"/>
          <note pan="0" len="12" vol="129" key="36" pos="20388"/>
          <note pan="0" len="12" vol="137" key="39" pos="20400"/>
          <note pan="0" len="12" vol="125" key="44" pos="20412"/>
          <note pan="0" len="12" vol="130" key="36" pos="20424"/>
          <note pan="0" len="12" vol="137" key="39" pos="20436"/>
          <note pan="0" len="12" vol="118" key="30" pos="20448"/>
          <note pan="0" len="84" vol="140" key="26" pos="20448"/>
          <note pan="0" len="84" vol="140" key="21" pos="20448"/>
          <note pan="0" len="12" vol="130" key="33" pos="20460"/>
          <note pan="0" len="12" vol="122" key="38" pos="20472"/>
          <note pan="0" len="12" vol="129" key="30" pos="20484"/>
          <note pan="0" len="12" vol="137" key="33" pos="20496"/>
          <note pan="0" len="12" vol="125" key="38" pos="20508"/>
          <note pan="0" len="12" vol="130" key="30" pos="20520"/>
          <note pan="0" len="12" vol="137" key="33" pos="20532"/>
          <note pan="0" len="12" vol="118" key="35" pos="20544"/>
          <note pan="0" len="84" vol="140" key="26" pos="20544"/>
          <note pan="0" len="84" vol="140" key="19" pos="20544"/>
          <note pan="0" len="12" vol="130" key="38" pos="20556"/>
          <note pan="0" len="12" vol="122" key="43" pos="20568"/>
          <note pan="0" len="12" vol="129" key="35" pos="20580"/>
          <note pan="0" len="12" vol="137" key="38" pos="20592"/>
          <note pan="0" len="12" vol="125" key="43" pos="20604"/>
          <note pan="0" len="12" vol="130" key="35" pos="20616"/>
          <note pan="0" len="12" vol="137" key="38" pos="20628"/>
          <note pan="0" len="12" vol="118" key="29" pos="20640"/>
          <note pan="0" len="84" vol="140" key="25" pos="20640"/>
          <note pan="0" len="84" vol="140" key="20" pos="20640"/>
          <note pan="0" len="12" vol="130" key="32" pos="20652"/>
          <note pan="0" len="12" vol="122" key="37" pos="20664"/>
          <note pan="0" len="12" vol="129" key="29" pos="20676"/>
          <note pan="0" len="12" vol="137" key="32" pos="20688"/>
          <note pan="0" len="12" vol="125" key="37" pos="20700"/>
          <note pan="0" len="12" vol="130" key="29" pos="20712"/>
          <note pan="0" len="12" vol="137" key="32" pos="20724"/>
          <note pan="0" len="12" vol="118" key="27" pos="20736"/>
          <note pan="0" len="133" vol="140" key="24" pos="20736"/>
          <note pan="0" len="136" vol="140" key="12" pos="20736"/>
          <note pan="0" len="12" vol="130" key="31" pos="20748"/>
          <note pan="0" len="12" vol="122" key="36" pos="20760"/>
          <note pan="0" len="12" vol="129" key="27" pos="20772"/>
          <note pan="0" len="12" vol="137" key="31" pos="20784"/>
          <note pan="0" len="12" vol="125" key="36" pos="20796"/>
          <note pan="0" len="12" vol="130" key="27" pos="20808"/>
          <note pan="0" len="12" vol="137" key="31" pos="20820"/>
          <note pan="0" len="12" vol="124" key="36" pos="20832"/>
          <note pan="0" len="12" vol="118" key="27" pos="20844"/>
          <note pan="0" len="12" vol="127" key="31" pos="20856"/>
          <note pan="0" len="12" vol="124" key="36" pos="20868"/>
          <note pan="0" len="12" vol="133" key="29" pos="20880"/>
          <note pan="0" len="36" vol="133" key="25" pos="20880"/>
          <note pan="0" len="12" vol="127" key="32" pos="20892"/>
          <note pan="0" len="12" vol="124" key="37" pos="20904"/>
          <note pan="0" len="12" vol="133" key="32" pos="20916"/>
          <note pan="0" len="12" vol="118" key="27" pos="20928"/>
          <note pan="0" len="133" vol="140" key="24" pos="20928"/>
          <note pan="0" len="136" vol="140" key="12" pos="20928"/>
          <note pan="0" len="12" vol="130" key="31" pos="20940"/>
          <note pan="0" len="12" vol="122" key="36" pos="20952"/>
          <note pan="0" len="12" vol="129" key="27" pos="20964"/>
          <note pan="0" len="12" vol="137" key="31" pos="20976"/>
          <note pan="0" len="12" vol="125" key="36" pos="20988"/>
          <note pan="0" len="12" vol="130" key="27" pos="21000"/>
          <note pan="0" len="12" vol="137" key="31" pos="21012"/>
          <note pan="0" len="12" vol="124" key="36" pos="21024"/>
          <note pan="0" len="12" vol="118" key="27" pos="21036"/>
          <note pan="0" len="12" vol="127" key="31" pos="21048"/>
          <note pan="0" len="12" vol="124" key="36" pos="21060"/>
          <note pan="0" len="12" vol="133" key="29" pos="21072"/>
          <note pan="0" len="36" vol="133" key="25" pos="21072"/>
          <note pan="0" len="12" vol="127" key="32" pos="21084"/>
          <note pan="0" len="12" vol="124" key="37" pos="21096"/>
          <note pan="0" len="12" vol="133" key="32" pos="21108"/>
          <note pan="0" len="12" vol="135" key="27" pos="21120"/>
          <note pan="0" len="1165" vol="140" key="24" pos="21120"/>
          <note pan="0" len="1168" vol="140" key="12" pos="21120"/>
          <note pan="0" len="12" vol="111" key="31" pos="21132"/>
          <note pan="0" len="12" vol="119" key="36" pos="21144"/>
          <note pan="0" len="12" vol="133" key="39" pos="21156"/>
          <note pan="0" len="12" vol="119" key="43" pos="21168"/>
          <note pan="0" len="12" vol="121" key="48" pos="21180"/>
          <note pan="0" len="12" vol="108" key="51" pos="21192"/>
          <note pan="0" len="12" vol="116" key="55" pos="21204"/>
          <note pan="0" len="12" vol="125" key="60" pos="21216"/>
          <note pan="0" len="12" vol="135" key="51" pos="21228"/>
          <note pan="0" len="12" vol="119" key="55" pos="21240"/>
          <note pan="0" len="12" vol="130" key="60" pos="21252"/>
          <note pan="0" len="12" vol="118" key="63" pos="21264"/>
          <note pan="0" len="12" vol="122" key="67" pos="21276"/>
          <note pan="0" len="12" vol="132" key="63" pos="21288"/>
          <note pan="0" len="12" vol="119" key="67" pos="21300"/>
          <note pan="0" len="16" vol="143" key="72" pos="21312"/>
          <note pan="0" len="12" vol="133" key="36" pos="21360"/>
          <note pan="0" len="12" vol="125" key="43" pos="21372"/>
          <note pan="0" len="12" vol="111" key="48" pos="21384"/>
          <note pan="0" len="12" vol="118" key="51" pos="21396"/>
          <note pan="0" len="12" vol="111" key="48" pos="21408"/>
          <note pan="0" len="12" vol="110" key="51" pos="21420"/>
          <note pan="0" len="12" vol="118" key="55" pos="21432"/>
          <note pan="0" len="12" vol="111" key="60" pos="21444"/>
          <note pan="0" len="12" vol="119" key="55" pos="21456"/>
          <note pan="0" len="12" vol="113" key="60" pos="21468"/>
          <note pan="0" len="12" vol="119" key="63" pos="21480"/>
          <note pan="0" len="12" vol="130" key="67" pos="21492"/>
          <note pan="0" len="781" vol="141" key="72" pos="21504"/>
          <note pan="0" len="774" vol="119" key="63" pos="21504"/>
        </pattern>
      </track>
      <track muted="0" type="0" name="lgtH1" solo="0">
        <instrumenttrack pan="-100" usemasterpitch="1" vol="200" fxch="12" pitch="0" pitchrange="1" basenote="57">
          <instrument name="carlapatchbay">
            <carlapatchbay>
              <CARLA-PROJECT VERSION="2.2">
                <EngineSettings>
                  <ForceStereo>false</ForceStereo>
                  <PreferPluginBridges>false</PreferPluginBridges>
                  <PreferUiBridges>true</PreferUiBridges>
                  <UIsAlwaysOnTop>false</UIsAlwaysOnTop>
                  <MaxParameters>200</MaxParameters>
                  <UIBridgesTimeout>4000</UIBridgesTimeout>
                  <LADSPA_PATH>/home/pass/.ladspa:/usr/lib/ladspa:/usr/local/lib/ladspa</LADSPA_PATH>
                  <DSSI_PATH>/home/pass/.dssi:/usr/lib/dssi:/usr/local/lib/dssi</DSSI_PATH>
                  <LV2_PATH>/home/pass/.lv2:/usr/lib/lv2:/usr/local/lib/lv2</LV2_PATH>
                  <VST2_PATH>/home/pass/.vst:/home/pass/.wine/drive_c/Program Files (x86)/VstPlugins:/home/pass/.wine/drive_c/Program Files/VstPlugins:/usr/lib/lxvst:/usr/lib/vst:/usr/local/lib/lxvst:/usr/local/lib/vst/home/pass/.lxvst:/home/pass/vst</VST2_PATH>
                  <VST3_PATH>/home/pass/.vst3:/home/pass/.wine/drive_c/Program Files (x86)/Common Files/VST3:/home/pass/.wine/drive_c/Program Files/Common Files/VST3:/usr/lib/vst3:/usr/local/lib/vst3</VST3_PATH>
                  <SF2_PATH>/home/pass/.sounds/sf2/home/pass/.sounds/sf3:/usr/share/soundfonts:/usr/share/sounds/sf2:/usr/share/sounds/sf3</SF2_PATH>
                  <SFZ_PATH>/home/pass/.sounds/sfz:/home/pass/samples:/usr/share/sounds/sfz</SFZ_PATH>
                </EngineSettings>
                <!-- sfizz -->
                <Plugin>
                  <Info>
                    <Type>LV2</Type>
                    <Name>sfizz</Name>
                    <URI>http://sfztools.github.io/sfizz</URI>
                  </Info>
                  <Data>
                    <Active>Yes</Active>
                    <ControlChannel>1</ControlChannel>
                    <Options>0x3f0</Options>
                    <Parameter>
                      <Index>0</Index>
                      <Name>Volume</Name>
                      <Symbol>volume</Symbol>
                      <Value>0</Value>
                    </Parameter>
                    <Parameter>
                      <Index>1</Index>
                      <Name>Polyphony</Name>
                      <Symbol>num_voices</Symbol>
                      <Value>64</Value>
                    </Parameter>
                    <Parameter>
                      <Index>2</Index>
                      <Name>Internal oversampling factor</Name>
                      <Symbol>oversampling</Symbol>
                      <Value>1</Value>
                    </Parameter>
                    <Parameter>
                      <Index>3</Index>
                      <Name>Preload size</Name>
                      <Symbol>preload_size</Symbol>
                      <Value>8192</Value>
                    </Parameter>
                    <CustomData>
                      <Type>http://lv2plug.in/ns/ext/atom#Path</Type>
                      <Key>http://sfztools.github.io/sfizz:sfzfile</Key>
                      <Value>/home/pass/samples/fakeguitar/_fakeguitar1_integrated.sfz</Value>
                    </CustomData>
                    <CustomData>
                      <Type>http://lv2plug.in/ns/ext/atom#Int</Type>
                      <Key>http://sfztools.github.io/sfizz:numvoices</Key>
                      <Value>QAAAAA==</Value>
                    </CustomData>
                    <CustomData>
                      <Type>http://lv2plug.in/ns/ext/atom#Int</Type>
                      <Key>http://sfztools.github.io/sfizz:preload_size</Key>
                      <Value>ACAAAA==</Value>
                    </CustomData>
                    <CustomData>
                      <Type>http://lv2plug.in/ns/ext/atom#Int</Type>
                      <Key>http://sfztools.github.io/sfizz:oversampling</Key>
                      <Value>AQAAAA==</Value>
                    </CustomData>
                  </Data>
                </Plugin>
                <Patchbay>
                  <Connection>
                    <Source>Midi Input:Capture 1</Source>
                    <Target>sfizz:events-in</Target>
                  </Connection>
                  <Connection>
                    <Source>sfizz:Left Output</Source>
                    <Target>Audio Output:Left</Target>
                  </Connection>
                  <Connection>
                    <Source>sfizz:Right Output</Source>
                    <Target>Audio Output:Right</Target>
                  </Connection>
                  <Positions>
                    <Position x1="1693" y1="1353" pluginId="0">
                      <Name>sfizz</Name>
                    </Position>
                  </Positions>
                </Patchbay>
              </CARLA-PROJECT>
            </carlapatchbay>
          </instrument>
          <eldata fres="0.5" ftype="0" fcut="14000" fwet="0">
            <elvol hold="0.5" userwavefile="" lspd_denominator="4" lspd_syncmode="0" sustain="0.5" ctlenvamt="0" amt="0" latt="0" lspd="0.1" pdel="0" rel="0.1" lspd_numerator="4" att="0" lshp="0" x100="0" lamt="0" lpdel="0" dec="0.5"/>
            <elcut hold="0.5" userwavefile="" lspd_denominator="4" lspd_syncmode="0" sustain="0.5" ctlenvamt="0" amt="0" latt="0" lspd="0.1" pdel="0" rel="0.1" lspd_numerator="4" att="0" lshp="0" x100="0" lamt="0" lpdel="0" dec="0.5"/>
            <elres hold="0.5" userwavefile="" lspd_denominator="4" lspd_syncmode="0" sustain="0.5" ctlenvamt="0" amt="0" latt="0" lspd="0.1" pdel="0" rel="0.1" lspd_numerator="4" att="0" lshp="0" x100="0" lamt="0" lpdel="0" dec="0.5"/>
          </eldata>
          <chordcreator chord="0" chord-enabled="0" chordrange="1"/>
          <arpeggiator arptime_numerator="4" arpdir="0" arp-enabled="0" arpgate="100" arpmode="0" arpmiss="0" arptime_syncmode="0" arpskip="0" arp="0" arptime_denominator="4" arpcycle="0" arptime="200" arprange="1"/>
          <midiport outputcontroller="0" fixedinputvelocity="-1" fixedoutputvelocity="-1" basevelocity="63" inputcontroller="0" outputprogram="1" outputchannel="1" fixedoutputnote="-1" inputchannel="0" readable="0" writable="0"/>
          <fxchain numofeffects="0" enabled="0"/>
        </instrumenttrack>
      </track>
      <track muted="0" type="0" name="lgtH2" solo="0">
        <instrumenttrack pan="100" usemasterpitch="1" vol="200" fxch="12" pitch="0" pitchrange="1" basenote="57">
          <instrument name="carlapatchbay">
            <carlapatchbay>
              <CARLA-PROJECT VERSION="2.2">
                <EngineSettings>
                  <ForceStereo>false</ForceStereo>
                  <PreferPluginBridges>false</PreferPluginBridges>
                  <PreferUiBridges>true</PreferUiBridges>
                  <UIsAlwaysOnTop>false</UIsAlwaysOnTop>
                  <MaxParameters>200</MaxParameters>
                  <UIBridgesTimeout>4000</UIBridgesTimeout>
                  <LADSPA_PATH>/home/pass/.ladspa:/usr/lib/ladspa:/usr/local/lib/ladspa</LADSPA_PATH>
                  <DSSI_PATH>/home/pass/.dssi:/usr/lib/dssi:/usr/local/lib/dssi</DSSI_PATH>
                  <LV2_PATH>/home/pass/.lv2:/usr/lib/lv2:/usr/local/lib/lv2</LV2_PATH>
                  <VST2_PATH>/home/pass/.vst:/home/pass/.wine/drive_c/Program Files (x86)/VstPlugins:/home/pass/.wine/drive_c/Program Files/VstPlugins:/usr/lib/lxvst:/usr/lib/vst:/usr/local/lib/lxvst:/usr/local/lib/vst/home/pass/.lxvst:/home/pass/vst</VST2_PATH>
                  <VST3_PATH>/home/pass/.vst3:/home/pass/.wine/drive_c/Program Files (x86)/Common Files/VST3:/home/pass/.wine/drive_c/Program Files/Common Files/VST3:/usr/lib/vst3:/usr/local/lib/vst3</VST3_PATH>
                  <SF2_PATH>/home/pass/.sounds/sf2/home/pass/.sounds/sf3:/usr/share/soundfonts:/usr/share/sounds/sf2:/usr/share/sounds/sf3</SF2_PATH>
                  <SFZ_PATH>/home/pass/.sounds/sfz:/home/pass/samples:/usr/share/sounds/sfz</SFZ_PATH>
                </EngineSettings>
                <!-- sfizz -->
                <Plugin>
                  <Info>
                    <Type>LV2</Type>
                    <Name>sfizz</Name>
                    <URI>http://sfztools.github.io/sfizz</URI>
                  </Info>
                  <Data>
                    <Active>Yes</Active>
                    <ControlChannel>1</ControlChannel>
                    <Options>0x3f0</Options>
                    <Parameter>
                      <Index>0</Index>
                      <Name>Volume</Name>
                      <Symbol>volume</Symbol>
                      <Value>0</Value>
                    </Parameter>
                    <Parameter>
                      <Index>1</Index>
                      <Name>Polyphony</Name>
                      <Symbol>num_voices</Symbol>
                      <Value>64</Value>
                    </Parameter>
                    <Parameter>
                      <Index>2</Index>
                      <Name>Internal oversampling factor</Name>
                      <Symbol>oversampling</Symbol>
                      <Value>1</Value>
                    </Parameter>
                    <Parameter>
                      <Index>3</Index>
                      <Name>Preload size</Name>
                      <Symbol>preload_size</Symbol>
                      <Value>8192</Value>
                    </Parameter>
                    <CustomData>
                      <Type>http://lv2plug.in/ns/ext/atom#Path</Type>
                      <Key>http://sfztools.github.io/sfizz:sfzfile</Key>
                      <Value>/home/pass/samples/fakeguitar/_fakeguitar2_integrated.sfz</Value>
                    </CustomData>
                    <CustomData>
                      <Type>http://lv2plug.in/ns/ext/atom#Int</Type>
                      <Key>http://sfztools.github.io/sfizz:numvoices</Key>
                      <Value>QAAAAA==</Value>
                    </CustomData>
                    <CustomData>
                      <Type>http://lv2plug.in/ns/ext/atom#Int</Type>
                      <Key>http://sfztools.github.io/sfizz:preload_size</Key>
                      <Value>ACAAAA==</Value>
                    </CustomData>
                    <CustomData>
                      <Type>http://lv2plug.in/ns/ext/atom#Int</Type>
                      <Key>http://sfztools.github.io/sfizz:oversampling</Key>
                      <Value>AQAAAA==</Value>
                    </CustomData>
                  </Data>
                </Plugin>
                <Patchbay>
                  <Connection>
                    <Source>Midi Input:Capture 1</Source>
                    <Target>sfizz:events-in</Target>
                  </Connection>
                  <Connection>
                    <Source>sfizz:Left Output</Source>
                    <Target>Audio Output:Left</Target>
                  </Connection>
                  <Connection>
                    <Source>sfizz:Right Output</Source>
                    <Target>Audio Output:Right</Target>
                  </Connection>
                  <Positions>
                    <Position x1="1693" y1="1353" pluginId="0">
                      <Name>sfizz</Name>
                    </Position>
                  </Positions>
                </Patchbay>
              </CARLA-PROJECT>
            </carlapatchbay>
          </instrument>
          <eldata fres="0.5" ftype="0" fcut="14000" fwet="0">
            <elvol hold="0.5" userwavefile="" lspd_denominator="4" lspd_syncmode="0" sustain="0.5" ctlenvamt="0" amt="0" latt="0" lspd="0.1" pdel="0" rel="0.1" lspd_numerator="4" att="0" lshp="0" x100="0" lamt="0" lpdel="0" dec="0.5"/>
            <elcut hold="0.5" userwavefile="" lspd_denominator="4" lspd_syncmode="0" sustain="0.5" ctlenvamt="0" amt="0" latt="0" lspd="0.1" pdel="0" rel="0.1" lspd_numerator="4" att="0" lshp="0" x100="0" lamt="0" lpdel="0" dec="0.5"/>
            <elres hold="0.5" userwavefile="" lspd_denominator="4" lspd_syncmode="0" sustain="0.5" ctlenvamt="0" amt="0" latt="0" lspd="0.1" pdel="0" rel="0.1" lspd_numerator="4" att="0" lshp="0" x100="0" lamt="0" lpdel="0" dec="0.5"/>
          </eldata>
          <chordcreator chord="0" chord-enabled="0" chordrange="1"/>
          <arpeggiator arptime_numerator="4" arpdir="0" arp-enabled="0" arpgate="100" arpmode="0" arpmiss="0" arptime_syncmode="0" arpskip="0" arp="0" arptime_denominator="4" arpcycle="0" arptime="200" arprange="1"/>
          <midiport outputcontroller="0" fixedinputvelocity="-1" fixedoutputvelocity="-1" basevelocity="63" inputcontroller="0" outputprogram="1" outputchannel="1" fixedoutputnote="-1" inputchannel="0" readable="0" writable="0"/>
          <fxchain numofeffects="0" enabled="0"/>
        </instrumenttrack>
      </track>
      <track muted="0" type="0" name="ZynAddSubFX" solo="0">
        <instrumenttrack pan="0" usemasterpitch="1" vol="31.2" fxch="15" pitch="0" pitchrange="1" basenote="57">
          <instrument name="zynaddsubfx">
            <zynaddsubfx fmgain="127" modifiedcontrollers="" resbandwidth="64" forwardmidicc="1" portamento="0" bandwidth="64" rescenterfreq="64" filterq="64" filterfreq="64">
              <ZynAddSubFX-data version-revision="1" version-minor="4" ZynAddSubFX-author="Nasca Octavian Paul" version-major="2">
                <INFORMATION>
                  <par_bool value="yes" name="PADsynth_used"/>
                </INFORMATION>
                <BASE_PARAMETERS>
                  <par value="16" name="max_midi_parts"/>
                  <par value="16" name="max_kit_items_per_instrument"/>
                  <par value="4" name="max_system_effects"/>
                  <par value="8" name="max_insertion_effects"/>
                  <par value="3" name="max_instrument_effects"/>
                  <par value="8" name="max_addsynth_voices"/>
                </BASE_PARAMETERS>
                <MASTER>
                  <par value="80" name="volume"/>
                  <par value="64" name="key_shift"/>
                  <par_bool value="yes" name="nrpn_receive"/>
                  <MICROTONAL>
                    <string name="name">12tET</string>
                    <string name="comment">Equal Temperament 12 notes per octave</string>
                    <par_bool value="no" name="invert_up_down"/>
                    <par value="60" name="invert_up_down_center"/>
                    <par_bool value="no" name="enabled"/>
                    <par value="64" name="global_fine_detune"/>
                    <par value="69" name="a_note"/>
                    <par_real value="440.000000" name="a_freq"/>
                  </MICROTONAL>
                  <PART id="0">
                    <par_bool value="yes" name="enabled"/>
                    <par value="96" name="volume"/>
                    <par value="64" name="panning"/>
                    <par value="0" name="min_key"/>
                    <par value="127" name="max_key"/>
                    <par value="64" name="key_shift"/>
                    <par value="0" name="rcv_chn"/>
                    <par value="64" name="velocity_sensing"/>
                    <par value="64" name="velocity_offset"/>
                    <par_bool value="yes" name="note_on"/>
                    <par_bool value="yes" name="poly_mode"/>
                    <par value="0" name="legato_mode"/>
                    <par value="15" name="key_limit"/>
                    <INSTRUMENT>
                      <INFO>
                        <string name="name">Full Strings</string>
                        <string name="author">Will Godfrey
GPL V 2 or later</string>
                        <string name="comments">Developed from Paul's Strings Pad5</string>
                        <par value="12" name="type"/>
                      </INFO>
                      <INSTRUMENT_KIT>
                        <par value="1" name="kit_mode"/>
                        <par_bool value="no" name="drum_mode"/>
                        <INSTRUMENT_KIT_ITEM id="0">
                          <par_bool value="yes" name="enabled"/>
                          <string name="name"/>
                          <par_bool value="no" name="muted"/>
                          <par value="0" name="min_key"/>
                          <par value="127" name="max_key"/>
                          <par value="0" name="send_to_instrument_effect"/>
                          <par_bool value="no" name="add_enabled"/>
                          <par_bool value="no" name="sub_enabled"/>
                          <par_bool value="yes" name="pad_enabled"/>
                          <PAD_SYNTH_PARAMETERS>
                            <par_bool value="yes" name="stereo"/>
                            <par value="0" name="mode"/>
                            <par value="620" name="bandwidth"/>
                            <par value="0" name="bandwidth_scale"/>
                            <HARMONIC_PROFILE>
                              <par value="0" name="base_type"/>
                              <par value="99" name="base_par1"/>
                              <par value="8" name="frequency_multiplier"/>
                              <par value="0" name="modulator_par1"/>
                              <par value="55" name="modulator_frequency"/>
                              <par value="127" name="width"/>
                              <par value="0" name="amplitude_multiplier_type"/>
                              <par value="2" name="amplitude_multiplier_mode"/>
                              <par value="80" name="amplitude_multiplier_par1"/>
                              <par value="4" name="amplitude_multiplier_par2"/>
                              <par_bool value="yes" name="autoscale"/>
                              <par value="0" name="one_half"/>
                            </HARMONIC_PROFILE>
                            <OSCIL>
                              <par value="0" name="harmonic_mag_type"/>
                              <par value="4" name="base_function"/>
                              <par value="51" name="base_function_par"/>
                              <par value="0" name="base_function_modulation"/>
                              <par value="64" name="base_function_modulation_par1"/>
                              <par value="64" name="base_function_modulation_par2"/>
                              <par value="32" name="base_function_modulation_par3"/>
                              <par value="0" name="modulation"/>
                              <par value="64" name="modulation_par1"/>
                              <par value="64" name="modulation_par2"/>
                              <par value="32" name="modulation_par3"/>
                              <par value="64" name="wave_shaping"/>
                              <par value="0" name="wave_shaping_function"/>
                              <par value="0" name="filter_type"/>
                              <par value="37" name="filter_par1"/>
                              <par value="64" name="filter_par2"/>
                              <par value="0" name="filter_before_wave_shaping"/>
                              <par value="0" name="spectrum_adjust_type"/>
                              <par value="64" name="spectrum_adjust_par"/>
                              <par value="64" name="rand"/>
                              <par value="0" name="amp_rand_type"/>
                              <par value="64" name="amp_rand_power"/>
                              <par value="0" name="harmonic_shift"/>
                              <par_bool value="no" name="harmonic_shift_first"/>
                              <par value="0" name="adaptive_harmonics"/>
                              <par value="128" name="adaptive_harmonics_base_frequency"/>
                              <par value="100" name="adaptive_harmonics_power"/>
                              <HARMONICS>
                                <HARMONIC id="1">
                                  <par value="83" name="mag"/>
                                  <par value="64" name="phase"/>
                                </HARMONIC>
                                <HARMONIC id="2">
                                  <par value="127" name="mag"/>
                                  <par value="64" name="phase"/>
                                </HARMONIC>
                              </HARMONICS>
                            </OSCIL>
                            <RESONANCE>
                              <par_bool value="no" name="enabled"/>
                            </RESONANCE>
                            <HARMONIC_POSITION>
                              <par value="0" name="type"/>
                              <par value="255" name="parameter1"/>
                              <par value="64" name="parameter2"/>
                              <par value="0" name="parameter3"/>
                            </HARMONIC_POSITION>
                            <SAMPLE_QUALITY>
                              <par value="4" name="samplesize"/>
                              <par value="4" name="basenote"/>
                              <par value="5" name="octaves"/>
                              <par value="2" name="samples_per_octave"/>
                            </SAMPLE_QUALITY>
                            <AMPLITUDE_PARAMETERS>
                              <par value="94" name="volume"/>
                              <par value="67" name="panning"/>
                              <par value="70" name="velocity_sensing"/>
                              <par value="0" name="punch_strength"/>
                              <par value="60" name="punch_time"/>
                              <par value="64" name="punch_stretch"/>
                              <par value="72" name="punch_velocity_sensing"/>
                              <AMPLITUDE_ENVELOPE>
                                <par_bool value="no" name="free_mode"/>
                                <par value="4" name="env_points"/>
                                <par value="2" name="env_sustain"/>
                                <par value="0" name="env_stretch"/>
                                <par_bool value="no" name="forced_release"/>
                                <par_bool value="no" name="linear_envelope"/>
                                <par value="40" name="A_dt"/>
                                <par value="39" name="D_dt"/>
                                <par value="86" name="R_dt"/>
                                <par value="64" name="A_val"/>
                                <par value="64" name="D_val"/>
                                <par value="127" name="S_val"/>
                                <par value="64" name="R_val"/>
                              </AMPLITUDE_ENVELOPE>
                              <AMPLITUDE_LFO>
                                <par_real value="0.629921" name="freq"/>
                                <par value="0" name="intensity"/>
                                <par value="64" name="start_phase"/>
                                <par value="0" name="lfo_type"/>
                                <par value="0" name="randomness_amplitude"/>
                                <par value="0" name="randomness_frequency"/>
                                <par value="0" name="delay"/>
                                <par value="64" name="stretch"/>
                                <par_bool value="no" name="continous"/>
                              </AMPLITUDE_LFO>
                            </AMPLITUDE_PARAMETERS>
                            <FREQUENCY_PARAMETERS>
                              <par value="0" name="fixed_freq"/>
                              <par value="0" name="fixed_freq_et"/>
                              <par value="8192" name="detune"/>
                              <par value="15360" name="coarse_detune"/>
                              <par value="1" name="detune_type"/>
                              <FREQUENCY_ENVELOPE>
                                <par_bool value="no" name="free_mode"/>
                                <par value="3" name="env_points"/>
                                <par value="1" name="env_sustain"/>
                                <par value="0" name="env_stretch"/>
                                <par_bool value="no" name="forced_release"/>
                                <par_bool value="no" name="linear_envelope"/>
                                <par value="50" name="A_dt"/>
                                <par value="10" name="D_dt"/>
                                <par value="60" name="R_dt"/>
                                <par value="64" name="A_val"/>
                                <par value="64" name="D_val"/>
                                <par value="64" name="S_val"/>
                                <par value="64" name="R_val"/>
                              </FREQUENCY_ENVELOPE>
                              <FREQUENCY_LFO>
                                <par_real value="0.621181" name="freq"/>
                                <par value="0" name="intensity"/>
                                <par value="64" name="start_phase"/>
                                <par value="0" name="lfo_type"/>
                                <par value="0" name="randomness_amplitude"/>
                                <par value="0" name="randomness_frequency"/>
                                <par value="0" name="delay"/>
                                <par value="64" name="stretch"/>
                                <par_bool value="no" name="continous"/>
                              </FREQUENCY_LFO>
                            </FREQUENCY_PARAMETERS>
                            <FILTER_PARAMETERS>
                              <par value="25" name="velocity_sensing_amplitude"/>
                              <par value="64" name="velocity_sensing"/>
                              <FILTER>
                                <par value="0" name="category"/>
                                <par value="2" name="type"/>
                                <par value="99" name="freq"/>
                                <par value="28" name="q"/>
                                <par value="1" name="stages"/>
                                <par value="97" name="freq_track"/>
                                <par value="64" name="gain"/>
                              </FILTER>
                              <FILTER_ENVELOPE>
                                <par_bool value="no" name="free_mode"/>
                                <par value="4" name="env_points"/>
                                <par value="2" name="env_sustain"/>
                                <par value="0" name="env_stretch"/>
                                <par_bool value="yes" name="forced_release"/>
                                <par_bool value="no" name="linear_envelope"/>
                                <par value="17" name="A_dt"/>
                                <par value="70" name="D_dt"/>
                                <par value="98" name="R_dt"/>
                                <par value="37" name="A_val"/>
                                <par value="64" name="D_val"/>
                                <par value="64" name="S_val"/>
                                <par value="43" name="R_val"/>
                              </FILTER_ENVELOPE>
                              <FILTER_LFO>
                                <par_real value="0.629921" name="freq"/>
                                <par value="0" name="intensity"/>
                                <par value="64" name="start_phase"/>
                                <par value="0" name="lfo_type"/>
                                <par value="0" name="randomness_amplitude"/>
                                <par value="0" name="randomness_frequency"/>
                                <par value="0" name="delay"/>
                                <par value="64" name="stretch"/>
                                <par_bool value="no" name="continous"/>
                              </FILTER_LFO>
                            </FILTER_PARAMETERS>
                          </PAD_SYNTH_PARAMETERS>
                        </INSTRUMENT_KIT_ITEM>
                        <INSTRUMENT_KIT_ITEM id="1">
                          <par_bool value="no" name="enabled"/>
                        </INSTRUMENT_KIT_ITEM>
                        <INSTRUMENT_KIT_ITEM id="2">
                          <par_bool value="no" name="enabled"/>
                        </INSTRUMENT_KIT_ITEM>
                        <INSTRUMENT_KIT_ITEM id="3">
                          <par_bool value="no" name="enabled"/>
                        </INSTRUMENT_KIT_ITEM>
                        <INSTRUMENT_KIT_ITEM id="4">
                          <par_bool value="no" name="enabled"/>
                        </INSTRUMENT_KIT_ITEM>
                        <INSTRUMENT_KIT_ITEM id="5">
                          <par_bool value="no" name="enabled"/>
                        </INSTRUMENT_KIT_ITEM>
                        <INSTRUMENT_KIT_ITEM id="6">
                          <par_bool value="no" name="enabled"/>
                        </INSTRUMENT_KIT_ITEM>
                        <INSTRUMENT_KIT_ITEM id="7">
                          <par_bool value="no" name="enabled"/>
                        </INSTRUMENT_KIT_ITEM>
                        <INSTRUMENT_KIT_ITEM id="8">
                          <par_bool value="no" name="enabled"/>
                        </INSTRUMENT_KIT_ITEM>
                        <INSTRUMENT_KIT_ITEM id="9">
                          <par_bool value="no" name="enabled"/>
                        </INSTRUMENT_KIT_ITEM>
                        <INSTRUMENT_KIT_ITEM id="10">
                          <par_bool value="no" name="enabled"/>
                        </INSTRUMENT_KIT_ITEM>
                        <INSTRUMENT_KIT_ITEM id="11">
                          <par_bool value="no" name="enabled"/>
                        </INSTRUMENT_KIT_ITEM>
                        <INSTRUMENT_KIT_ITEM id="12">
                          <par_bool value="no" name="enabled"/>
                        </INSTRUMENT_KIT_ITEM>
                        <INSTRUMENT_KIT_ITEM id="13">
                          <par_bool value="no" name="enabled"/>
                        </INSTRUMENT_KIT_ITEM>
                        <INSTRUMENT_KIT_ITEM id="14">
                          <par_bool value="no" name="enabled"/>
                        </INSTRUMENT_KIT_ITEM>
                        <INSTRUMENT_KIT_ITEM id="15">
                          <par_bool value="no" name="enabled"/>
                        </INSTRUMENT_KIT_ITEM>
                      </INSTRUMENT_KIT>
                      <INSTRUMENT_EFFECTS>
                        <INSTRUMENT_EFFECT id="0">
                          <EFFECT>
                            <par value="3" name="type"/>
                            <par value="0" name="preset"/>
                            <EFFECT_PARAMETERS>
                              <par_no id="0">
                                <par value="64" name="par"/>
                              </par_no>
                              <par_no id="1">
                                <par value="64" name="par"/>
                              </par_no>
                              <par_no id="2">
                                <par value="50" name="par"/>
                              </par_no>
                              <par_no id="5">
                                <par value="90" name="par"/>
                              </par_no>
                              <par_no id="6">
                                <par value="40" name="par"/>
                              </par_no>
                              <par_no id="7">
                                <par value="85" name="par"/>
                              </par_no>
                              <par_no id="8">
                                <par value="67" name="par"/>
                              </par_no>
                              <par_no id="9">
                                <par value="119" name="par"/>
                              </par_no>
                            </EFFECT_PARAMETERS>
                          </EFFECT>
                          <par value="0" name="route"/>
                          <par_bool value="no" name="bypass"/>
                        </INSTRUMENT_EFFECT>
                        <INSTRUMENT_EFFECT id="1">
                          <EFFECT>
                            <par value="1" name="type"/>
                            <par value="0" name="preset"/>
                            <EFFECT_PARAMETERS>
                              <par_no id="0">
                                <par value="40" name="par"/>
                              </par_no>
                              <par_no id="1">
                                <par value="64" name="par"/>
                              </par_no>
                              <par_no id="2">
                                <par value="63" name="par"/>
                              </par_no>
                              <par_no id="3">
                                <par value="24" name="par"/>
                              </par_no>
                              <par_no id="7">
                                <par value="85" name="par"/>
                              </par_no>
                              <par_no id="8">
                                <par value="5" name="par"/>
                              </par_no>
                              <par_no id="9">
                                <par value="83" name="par"/>
                              </par_no>
                              <par_no id="10">
                                <par value="1" name="par"/>
                              </par_no>
                              <par_no id="11">
                                <par value="64" name="par"/>
                              </par_no>
                            </EFFECT_PARAMETERS>
                          </EFFECT>
                          <par value="0" name="route"/>
                          <par_bool value="no" name="bypass"/>
                        </INSTRUMENT_EFFECT>
                        <INSTRUMENT_EFFECT id="2">
                          <EFFECT>
                            <par value="0" name="type"/>
                          </EFFECT>
                          <par value="0" name="route"/>
                          <par_bool value="no" name="bypass"/>
                        </INSTRUMENT_EFFECT>
                      </INSTRUMENT_EFFECTS>
                    </INSTRUMENT>
                    <CONTROLLER>
                      <par value="100" name="pitchwheel_bendrange"/>
                      <par_bool value="yes" name="expression_receive"/>
                      <par value="64" name="panning_depth"/>
                      <par value="64" name="filter_cutoff_depth"/>
                      <par value="64" name="filter_q_depth"/>
                      <par value="64" name="bandwidth_depth"/>
                      <par value="80" name="mod_wheel_depth"/>
                      <par_bool value="no" name="mod_wheel_exponential"/>
                      <par_bool value="yes" name="fm_amp_receive"/>
                      <par_bool value="yes" name="volume_receive"/>
                      <par_bool value="yes" name="sustain_receive"/>
                      <par_bool value="yes" name="portamento_receive"/>
                      <par value="64" name="portamento_time"/>
                      <par value="3" name="portamento_pitchthresh"/>
                      <par value="1" name="portamento_pitchthreshtype"/>
                      <par value="0" name="portamento_portamento"/>
                      <par value="64" name="portamento_updowntimestretch"/>
                      <par value="0" name="portamento_proportional"/>
                      <par value="80" name="portamento_proprate"/>
                      <par value="90" name="portamento_propdepth"/>
                      <par value="64" name="resonance_center_depth"/>
                      <par value="64" name="resonance_bandwidth_depth"/>
                    </CONTROLLER>
                  </PART>
                  <PART id="1">
                    <par_bool value="no" name="enabled"/>
                  </PART>
                  <PART id="2">
                    <par_bool value="no" name="enabled"/>
                  </PART>
                  <PART id="3">
                    <par_bool value="no" name="enabled"/>
                  </PART>
                  <PART id="4">
                    <par_bool value="no" name="enabled"/>
                  </PART>
                  <PART id="5">
                    <par_bool value="no" name="enabled"/>
                  </PART>
                  <PART id="6">
                    <par_bool value="no" name="enabled"/>
                  </PART>
                  <PART id="7">
                    <par_bool value="no" name="enabled"/>
                  </PART>
                  <PART id="8">
                    <par_bool value="no" name="enabled"/>
                  </PART>
                  <PART id="9">
                    <par_bool value="no" name="enabled"/>
                  </PART>
                  <PART id="10">
                    <par_bool value="no" name="enabled"/>
                  </PART>
                  <PART id="11">
                    <par_bool value="no" name="enabled"/>
                  </PART>
                  <PART id="12">
                    <par_bool value="no" name="enabled"/>
                  </PART>
                  <PART id="13">
                    <par_bool value="no" name="enabled"/>
                  </PART>
                  <PART id="14">
                    <par_bool value="no" name="enabled"/>
                  </PART>
                  <PART id="15">
                    <par_bool value="no" name="enabled"/>
                  </PART>
                  <SYSTEM_EFFECTS>
                    <SYSTEM_EFFECT id="0">
                      <EFFECT>
                        <par value="0" name="type"/>
                      </EFFECT>
                      <VOLUME id="0">
                        <par value="0" name="vol"/>
                      </VOLUME>
                      <VOLUME id="1">
                        <par value="0" name="vol"/>
                      </VOLUME>
                      <VOLUME id="2">
                        <par value="0" name="vol"/>
                      </VOLUME>
                      <VOLUME id="3">
                        <par value="0" name="vol"/>
                      </VOLUME>
                      <VOLUME id="4">
                        <par value="0" name="vol"/>
                      </VOLUME>
                      <VOLUME id="5">
                        <par value="0" name="vol"/>
                      </VOLUME>
                      <VOLUME id="6">
                        <par value="0" name="vol"/>
                      </VOLUME>
                      <VOLUME id="7">
                        <par value="0" name="vol"/>
                      </VOLUME>
                      <VOLUME id="8">
                        <par value="0" name="vol"/>
                      </VOLUME>
                      <VOLUME id="9">
                        <par value="0" name="vol"/>
                      </VOLUME>
                      <VOLUME id="10">
                        <par value="0" name="vol"/>
                      </VOLUME>
                      <VOLUME id="11">
                        <par value="0" name="vol"/>
                      </VOLUME>
                      <VOLUME id="12">
                        <par value="0" name="vol"/>
                      </VOLUME>
                      <VOLUME id="13">
                        <par value="0" name="vol"/>
                      </VOLUME>
                      <VOLUME id="14">
                        <par value="0" name="vol"/>
                      </VOLUME>
                      <VOLUME id="15">
                        <par value="0" name="vol"/>
                      </VOLUME>
                      <SENDTO id="1">
                        <par value="0" name="send_vol"/>
                      </SENDTO>
                      <SENDTO id="2">
                        <par value="0" name="send_vol"/>
                      </SENDTO>
                      <SENDTO id="3">
                        <par value="0" name="send_vol"/>
                      </SENDTO>
                    </SYSTEM_EFFECT>
                    <SYSTEM_EFFECT id="1">
                      <EFFECT>
                        <par value="0" name="type"/>
                      </EFFECT>
                      <VOLUME id="0">
                        <par value="0" name="vol"/>
                      </VOLUME>
                      <VOLUME id="1">
                        <par value="0" name="vol"/>
                      </VOLUME>
                      <VOLUME id="2">
                        <par value="0" name="vol"/>
                      </VOLUME>
                      <VOLUME id="3">
                        <par value="0" name="vol"/>
                      </VOLUME>
                      <VOLUME id="4">
                        <par value="0" name="vol"/>
                      </VOLUME>
                      <VOLUME id="5">
                        <par value="0" name="vol"/>
                      </VOLUME>
                      <VOLUME id="6">
                        <par value="0" name="vol"/>
                      </VOLUME>
                      <VOLUME id="7">
                        <par value="0" name="vol"/>
                      </VOLUME>
                      <VOLUME id="8">
                        <par value="0" name="vol"/>
                      </VOLUME>
                      <VOLUME id="9">
                        <par value="0" name="vol"/>
                      </VOLUME>
                      <VOLUME id="10">
                        <par value="0" name="vol"/>
                      </VOLUME>
                      <VOLUME id="11">
                        <par value="0" name="vol"/>
                      </VOLUME>
                      <VOLUME id="12">
                        <par value="0" name="vol"/>
                      </VOLUME>
                      <VOLUME id="13">
                        <par value="0" name="vol"/>
                      </VOLUME>
                      <VOLUME id="14">
                        <par value="0" name="vol"/>
                      </VOLUME>
                      <VOLUME id="15">
                        <par value="0" name="vol"/>
                      </VOLUME>
                      <SENDTO id="2">
                        <par value="0" name="send_vol"/>
                      </SENDTO>
                      <SENDTO id="3">
                        <par value="0" name="send_vol"/>
                      </SENDTO>
                    </SYSTEM_EFFECT>
                    <SYSTEM_EFFECT id="2">
                      <EFFECT>
                        <par value="0" name="type"/>
                      </EFFECT>
                      <VOLUME id="0">
                        <par value="0" name="vol"/>
                      </VOLUME>
                      <VOLUME id="1">
                        <par value="0" name="vol"/>
                      </VOLUME>
                      <VOLUME id="2">
                        <par value="0" name="vol"/>
                      </VOLUME>
                      <VOLUME id="3">
                        <par value="0" name="vol"/>
                      </VOLUME>
                      <VOLUME id="4">
                        <par value="0" name="vol"/>
                      </VOLUME>
                      <VOLUME id="5">
                        <par value="0" name="vol"/>
                      </VOLUME>
                      <VOLUME id="6">
                        <par value="0" name="vol"/>
                      </VOLUME>
                      <VOLUME id="7">
                        <par value="0" name="vol"/>
                      </VOLUME>
                      <VOLUME id="8">
                        <par value="0" name="vol"/>
                      </VOLUME>
                      <VOLUME id="9">
                        <par value="0" name="vol"/>
                      </VOLUME>
                      <VOLUME id="10">
                        <par value="0" name="vol"/>
                      </VOLUME>
                      <VOLUME id="11">
                        <par value="0" name="vol"/>
                      </VOLUME>
                      <VOLUME id="12">
                        <par value="0" name="vol"/>
                      </VOLUME>
                      <VOLUME id="13">
                        <par value="0" name="vol"/>
                      </VOLUME>
                      <VOLUME id="14">
                        <par value="0" name="vol"/>
                      </VOLUME>
                      <VOLUME id="15">
                        <par value="0" name="vol"/>
                      </VOLUME>
                      <SENDTO id="3">
                        <par value="0" name="send_vol"/>
                      </SENDTO>
                    </SYSTEM_EFFECT>
                    <SYSTEM_EFFECT id="3">
                      <EFFECT>
                        <par value="0" name="type"/>
                      </EFFECT>
                      <VOLUME id="0">
                        <par value="0" name="vol"/>
                      </VOLUME>
                      <VOLUME id="1">
                        <par value="0" name="vol"/>
                      </VOLUME>
                      <VOLUME id="2">
                        <par value="0" name="vol"/>
                      </VOLUME>
                      <VOLUME id="3">
                        <par value="0" name="vol"/>
                      </VOLUME>
                      <VOLUME id="4">
                        <par value="0" name="vol"/>
                      </VOLUME>
                      <VOLUME id="5">
                        <par value="0" name="vol"/>
                      </VOLUME>
                      <VOLUME id="6">
                        <par value="0" name="vol"/>
                      </VOLUME>
                      <VOLUME id="7">
                        <par value="0" name="vol"/>
                      </VOLUME>
                      <VOLUME id="8">
                        <par value="0" name="vol"/>
                      </VOLUME>
                      <VOLUME id="9">
                        <par value="0" name="vol"/>
                      </VOLUME>
                      <VOLUME id="10">
                        <par value="0" name="vol"/>
                      </VOLUME>
                      <VOLUME id="11">
                        <par value="0" name="vol"/>
                      </VOLUME>
                      <VOLUME id="12">
                        <par value="0" name="vol"/>
                      </VOLUME>
                      <VOLUME id="13">
                        <par value="0" name="vol"/>
                      </VOLUME>
                      <VOLUME id="14">
                        <par value="0" name="vol"/>
                      </VOLUME>
                      <VOLUME id="15">
                        <par value="0" name="vol"/>
                      </VOLUME>
                    </SYSTEM_EFFECT>
                  </SYSTEM_EFFECTS>
                  <INSERTION_EFFECTS>
                    <INSERTION_EFFECT id="0">
                      <par value="-1" name="part"/>
                      <EFFECT>
                        <par value="0" name="type"/>
                      </EFFECT>
                    </INSERTION_EFFECT>
                    <INSERTION_EFFECT id="1">
                      <par value="-1" name="part"/>
                      <EFFECT>
                        <par value="0" name="type"/>
                      </EFFECT>
                    </INSERTION_EFFECT>
                    <INSERTION_EFFECT id="2">
                      <par value="-1" name="part"/>
                      <EFFECT>
                        <par value="0" name="type"/>
                      </EFFECT>
                    </INSERTION_EFFECT>
                    <INSERTION_EFFECT id="3">
                      <par value="-1" name="part"/>
                      <EFFECT>
                        <par value="0" name="type"/>
                      </EFFECT>
                    </INSERTION_EFFECT>
                    <INSERTION_EFFECT id="4">
                      <par value="-1" name="part"/>
                      <EFFECT>
                        <par value="0" name="type"/>
                      </EFFECT>
                    </INSERTION_EFFECT>
                    <INSERTION_EFFECT id="5">
                      <par value="-1" name="part"/>
                      <EFFECT>
                        <par value="0" name="type"/>
                      </EFFECT>
                    </INSERTION_EFFECT>
                    <INSERTION_EFFECT id="6">
                      <par value="-1" name="part"/>
                      <EFFECT>
                        <par value="0" name="type"/>
                      </EFFECT>
                    </INSERTION_EFFECT>
                    <INSERTION_EFFECT id="7">
                      <par value="-1" name="part"/>
                      <EFFECT>
                        <par value="0" name="type"/>
                      </EFFECT>
                    </INSERTION_EFFECT>
                  </INSERTION_EFFECTS>
                </MASTER>
              </ZynAddSubFX-data>
            </zynaddsubfx>
          </instrument>
          <eldata fres="0.5" ftype="0" fcut="14000" fwet="0">
            <elvol hold="0.5" userwavefile="" lspd_denominator="4" lspd_syncmode="0" sustain="0.5" ctlenvamt="0" amt="0" latt="0" lspd="0.1" pdel="0" rel="0.1" lspd_numerator="4" att="0" lshp="0" x100="0" lamt="0" lpdel="0" dec="0.5"/>
            <elcut hold="0.5" userwavefile="" lspd_denominator="4" lspd_syncmode="0" sustain="0.5" ctlenvamt="0" amt="0" latt="0" lspd="0.1" pdel="0" rel="0.1" lspd_numerator="4" att="0" lshp="0" x100="0" lamt="0" lpdel="0" dec="0.5"/>
            <elres hold="0.5" userwavefile="" lspd_denominator="4" lspd_syncmode="0" sustain="0.5" ctlenvamt="0" amt="0" latt="0" lspd="0.1" pdel="0" rel="0.1" lspd_numerator="4" att="0" lshp="0" x100="0" lamt="0" lpdel="0" dec="0.5"/>
          </eldata>
          <chordcreator chord="0" chord-enabled="0" chordrange="1"/>
          <arpeggiator arptime_numerator="4" arpdir="0" arp-enabled="0" arpgate="100" arpmode="0" arpmiss="0" arptime_syncmode="0" arpskip="0" arp="0" arptime_denominator="4" arpcycle="0" arptime="200" arprange="1"/>
          <midiport outputcontroller="0" fixedinputvelocity="-1" fixedoutputvelocity="-1" basevelocity="63" inputcontroller="0" outputprogram="1" outputchannel="1" fixedoutputnote="-1" inputchannel="0" readable="0" writable="0"/>
          <fxchain numofeffects="0" enabled="0"/>
        </instrumenttrack>
      </track>
      <track muted="0" type="0" name="Orchestra Soundfont 2 COMBO" solo="0">
        <instrumenttrack pan="0" usemasterpitch="1" vol="44" fxch="0" pitch="0" pitchrange="1" basenote="57">
          <instrument name="sf2player">
            <sf2player src="/home/pass/samples/soundfonts/Orchestra Soundfont 2 COMBO.sf2" gain="1" chorusLevel="2" bank="0" reverbRoomSize="0.2" reverbDamping="0" chorusDepth="8" chorusOn="0" reverbOn="0" reverbLevel="0.9" chorusSpeed="0.3" patch="52" reverbWidth="0.5" chorusNum="3"/>
          </instrument>
          <eldata fres="0.5" ftype="0" fcut="14000" fwet="0">
            <elvol hold="0.5" userwavefile="" lspd_denominator="4" lspd_syncmode="0" sustain="0.5" ctlenvamt="0" amt="0" latt="0" lspd="0.1" pdel="0" rel="0.1" lspd_numerator="4" att="0" lshp="0" x100="0" lamt="0" lpdel="0" dec="0.5"/>
            <elcut hold="0.5" userwavefile="" lspd_denominator="4" lspd_syncmode="0" sustain="0.5" ctlenvamt="0" amt="0" latt="0" lspd="0.1" pdel="0" rel="0.1" lspd_numerator="4" att="0" lshp="0" x100="0" lamt="0" lpdel="0" dec="0.5"/>
            <elres hold="0.5" userwavefile="" lspd_denominator="4" lspd_syncmode="0" sustain="0.5" ctlenvamt="0" amt="0" latt="0" lspd="0.1" pdel="0" rel="0.1" lspd_numerator="4" att="0" lshp="0" x100="0" lamt="0" lpdel="0" dec="0.5"/>
          </eldata>
          <chordcreator chord="0" chord-enabled="0" chordrange="1"/>
          <arpeggiator arptime_numerator="4" arpdir="0" arp-enabled="0" arpgate="100" arpmode="0" arpmiss="0" arptime_syncmode="0" arpskip="0" arp="0" arptime_denominator="4" arpcycle="0" arptime="200" arprange="1"/>
          <midiport outputcontroller="0" fixedinputvelocity="-1" fixedoutputvelocity="-1" basevelocity="63" inputcontroller="0" outputprogram="1" outputchannel="1" fixedoutputnote="-1" inputchannel="0" readable="0" writable="0"/>
          <fxchain numofeffects="0" enabled="0"/>
        </instrumenttrack>
      </track>
      <track muted="0" type="0" name="pianoes" solo="0">
        <instrumenttrack pan="0" usemasterpitch="1" vol="44" fxch="0" pitch="0" pitchrange="1" basenote="57">
          <instrument name="sf2player">
            <sf2player src="/home/pass/samples/soundfonts/Orchestra Soundfont 2 COMBO.sf2" gain="1" chorusLevel="2" bank="0" reverbRoomSize="0.2" reverbDamping="0" chorusDepth="8" chorusOn="0" reverbOn="0" reverbLevel="0.9" chorusSpeed="0.3" patch="0" reverbWidth="0.5" chorusNum="3"/>
          </instrument>
          <eldata fres="0.5" ftype="0" fcut="14000" fwet="0">
            <elvol hold="0.5" userwavefile="" lspd_denominator="4" lspd_syncmode="0" sustain="0.5" ctlenvamt="0" amt="0" latt="0" lspd="0.1" pdel="0" rel="0.1" lspd_numerator="4" att="0" lshp="0" x100="0" lamt="0" lpdel="0" dec="0.5"/>
            <elcut hold="0.5" userwavefile="" lspd_denominator="4" lspd_syncmode="0" sustain="0.5" ctlenvamt="0" amt="0" latt="0" lspd="0.1" pdel="0" rel="0.1" lspd_numerator="4" att="0" lshp="0" x100="0" lamt="0" lpdel="0" dec="0.5"/>
            <elres hold="0.5" userwavefile="" lspd_denominator="4" lspd_syncmode="0" sustain="0.5" ctlenvamt="0" amt="0" latt="0" lspd="0.1" pdel="0" rel="0.1" lspd_numerator="4" att="0" lshp="0" x100="0" lamt="0" lpdel="0" dec="0.5"/>
          </eldata>
          <chordcreator chord="0" chord-enabled="0" chordrange="1"/>
          <arpeggiator arptime_numerator="4" arpdir="0" arp-enabled="0" arpgate="100" arpmode="0" arpmiss="0" arptime_syncmode="0" arpskip="0" arp="0" arptime_denominator="4" arpcycle="0" arptime="200" arprange="1"/>
          <midiport outputcontroller="0" fixedinputvelocity="-1" fixedoutputvelocity="-1" basevelocity="63" inputcontroller="0" outputprogram="1" outputchannel="1" fixedoutputnote="-1" inputchannel="0" readable="0" writable="0"/>
          <fxchain numofeffects="0" enabled="0"/>
        </instrumenttrack>
        <pattern muted="0" steps="16" type="1" name="pianoes" pos="0">
          <note pan="0" len="24" vol="122" key="71" pos="0"/>
          <note pan="0" len="282" vol="133" key="31" pos="0"/>
          <note pan="0" len="282" vol="133" key="19" pos="0"/>
          <note pan="0" len="24" vol="77" key="67" pos="24"/>
          <note pan="0" len="24" vol="133" key="75" pos="48"/>
          <note pan="0" len="24" vol="92" key="74" pos="72"/>
          <note pan="0" len="24" vol="100" key="71" pos="96"/>
          <note pan="0" len="24" vol="113" key="67" pos="120"/>
          <note pan="0" len="24" vol="125" key="75" pos="144"/>
          <note pan="0" len="24" vol="92" key="74" pos="168"/>
          <note pan="0" len="24" vol="113" key="71" pos="192"/>
          <note pan="0" len="24" vol="89" key="67" pos="216"/>
          <note pan="0" len="24" vol="94" key="75" pos="240"/>
          <note pan="0" len="24" vol="121" key="74" pos="264"/>
          <note pan="0" len="24" vol="137" key="71" pos="288"/>
          <note pan="0" len="17" vol="114" key="55" pos="288"/>
          <note pan="0" len="17" vol="103" key="50" pos="288"/>
          <note pan="0" len="17" vol="108" key="47" pos="288"/>
          <note pan="0" len="24" vol="92" key="67" pos="312"/>
          <note pan="0" len="24" vol="118" key="75" pos="336"/>
          <note pan="0" len="17" vol="111" key="59" pos="336"/>
          <note pan="0" len="17" vol="111" key="55" pos="336"/>
          <note pan="0" len="17" vol="116" key="50" pos="336"/>
          <note pan="0" len="24" vol="107" key="74" pos="360"/>
          <note pan="0" len="20" vol="137" key="71" pos="384"/>
          <note pan="0" len="19" vol="130" key="63" pos="384"/>
          <note pan="0" len="20" vol="119" key="67" pos="408"/>
          <note pan="0" len="19" vol="124" key="62" pos="408"/>
          <note pan="0" len="20" vol="124" key="71" pos="432"/>
          <note pan="0" len="19" vol="127" key="63" pos="432"/>
          <note pan="0" len="20" vol="118" key="67" pos="456"/>
          <note pan="0" len="19" vol="114" key="62" pos="456"/>
          <note pan="0" len="20" vol="119" key="71" pos="480"/>
          <note pan="0" len="19" vol="121" key="63" pos="480"/>
          <note pan="0" len="20" vol="129" key="67" pos="504"/>
          <note pan="0" len="19" vol="140" key="62" pos="504"/>
          <note pan="0" len="20" vol="133" key="71" pos="528"/>
          <note pan="0" len="19" vol="125" key="63" pos="528"/>
          <note pan="0" len="20" vol="118" key="67" pos="552"/>
          <note pan="0" len="19" vol="119" key="62" pos="552"/>
          <note pan="0" len="20" vol="138" key="71" pos="576"/>
          <note pan="0" len="19" vol="143" key="63" pos="576"/>
          <note pan="0" len="20" vol="124" key="67" pos="600"/>
          <note pan="0" len="19" vol="122" key="62" pos="600"/>
          <note pan="0" len="20" vol="146" key="71" pos="624"/>
          <note pan="0" len="19" vol="130" key="63" pos="624"/>
          <note pan="0" len="20" vol="130" key="67" pos="648"/>
          <note pan="0" len="19" vol="137" key="62" pos="648"/>
          <note pan="0" len="20" vol="154" key="71" pos="672"/>
          <note pan="0" len="19" vol="149" key="63" pos="672"/>
          <note pan="0" len="20" vol="127" key="67" pos="696"/>
          <note pan="0" len="19" vol="129" key="62" pos="696"/>
          <note pan="0" len="24" vol="176" key="67" pos="720"/>
          <note pan="0" len="22" vol="171" key="55" pos="720"/>
          <note pan="0" len="21" vol="157" key="71" pos="721"/>
          <note pan="0" len="20" vol="171" key="59" pos="721"/>
          <note pan="0" len="21" vol="157" key="74" pos="722"/>
          <note pan="0" len="20" vol="171" key="62" pos="722"/>
          <note pan="0" len="21" vol="157" key="79" pos="724"/>
          <note pan="0" len="14" vol="137" key="51" pos="768"/>
          <note pan="0" len="19" vol="177" key="24" pos="768"/>
          <note pan="0" len="19" vol="177" key="12" pos="768"/>
          <note pan="0" len="11" vol="122" key="55" pos="780"/>
          <note pan="0" len="11" vol="122" key="60" pos="792"/>
          <note pan="0" len="5" vol="133" key="63" pos="804"/>
          <note pan="0" len="12" vol="124" key="67" pos="816"/>
          <note pan="0" len="6" vol="149" key="43" pos="816"/>
          <note pan="0" len="6" vol="149" key="39" pos="816"/>
          <note pan="0" len="6" vol="149" key="36" pos="816"/>
          <note pan="0" len="12" vol="125" key="75" pos="828"/>
          <note pan="0" len="6" vol="137" key="43" pos="828"/>
          <note pan="0" len="6" vol="137" key="39" pos="828"/>
          <note pan="0" len="6" vol="137" key="36" pos="828"/>
          <note pan="0" len="5" vol="144" key="79" pos="840"/>
          <note pan="0" len="6" vol="152" key="43" pos="840"/>
          <note pan="0" len="6" vol="152" key="39" pos="840"/>
          <note pan="0" len="6" vol="152" key="36" pos="840"/>
          <note pan="0" len="7" vol="118" key="48" pos="852"/>
          <note pan="0" len="4" vol="122" key="51" pos="864"/>
          <note pan="0" len="6" vol="157" key="36" pos="864"/>
          <note pan="0" len="6" vol="141" key="43" pos="867"/>
          <note pan="0" len="44" vol="165" key="51" pos="870"/>
          <note pan="0" len="11" vol="132" key="55" pos="876"/>
          <note pan="0" len="11" vol="116" key="60" pos="888"/>
          <note pan="0" len="5" vol="135" key="63" pos="900"/>
          <note pan="0" len="12" vol="135" key="67" pos="912"/>
          <note pan="0" len="12" vol="143" key="75" pos="924"/>
          <note pan="0" len="5" vol="140" key="79" pos="936"/>
          <note pan="0" len="8" vol="146" key="39" pos="936"/>
          <note pan="0" len="7" vol="133" key="48" pos="948"/>
          <note pan="0" len="8" vol="132" key="41" pos="948"/>
          <note pan="0" len="14" vol="129" key="51" pos="960"/>
          <note pan="0" len="20" vol="163" key="43" pos="960"/>
          <note pan="0" len="11" vol="135" key="55" pos="972"/>
          <note pan="0" len="11" vol="116" key="60" pos="984"/>
          <note pan="0" len="18" vol="140" key="39" pos="984"/>
          <note pan="0" len="5" vol="127" key="63" pos="996"/>
          <note pan="0" len="12" vol="133" key="67" pos="1008"/>
          <note pan="0" len="18" vol="96" key="36" pos="1008"/>
          <note pan="0" len="12" vol="146" key="75" pos="1020"/>
          <note pan="0" len="5" vol="140" key="79" pos="1032"/>
          <note pan="0" len="12" vol="137" key="43" pos="1032"/>
          <note pan="0" len="7" vol="127" key="47" pos="1044"/>
          <note pan="0" len="6" vol="132" key="40" pos="1054"/>
          <note pan="0" len="14" vol="130" key="50" pos="1056"/>
          <note pan="0" len="25" vol="176" key="41" pos="1060"/>
          <note pan="0" len="11" vol="116" key="53" pos="1068"/>
          <note pan="0" len="11" vol="132" key="59" pos="1080"/>
          <note pan="0" len="6" vol="135" key="38" pos="1080"/>
          <note pan="0" len="5" vol="140" key="62" pos="1092"/>
          <note pan="0" len="12" vol="129" key="65" pos="1104"/>
          <note pan="0" len="6" vol="116" key="35" pos="1104"/>
          <note pan="0" len="12" vol="125" key="74" pos="1116"/>
          <note pan="0" len="5" vol="146" key="77" pos="1128"/>
          <note pan="0" len="6" vol="159" key="31" pos="1128"/>
          <note pan="0" len="7" vol="129" key="48" pos="1140"/>
          <note pan="0" len="14" vol="137" key="51" pos="1152"/>
          <note pan="0" len="33" vol="177" key="24" pos="1152"/>
          <note pan="0" len="33" vol="177" key="12" pos="1152"/>
          <note pan="0" len="11" vol="122" key="55" pos="1164"/>
          <note pan="0" len="11" vol="122" key="60" pos="1176"/>
          <note pan="0" len="5" vol="133" key="63" pos="1188"/>
          <note pan="0" len="12" vol="124" key="67" pos="1200"/>
          <note pan="0" len="6" vol="149" key="43" pos="1200"/>
          <note pan="0" len="6" vol="149" key="39" pos="1200"/>
          <note pan="0" len="6" vol="149" key="36" pos="1200"/>
          <note pan="0" len="12" vol="125" key="75" pos="1212"/>
          <note pan="0" len="6" vol="137" key="43" pos="1212"/>
          <note pan="0" len="6" vol="137" key="39" pos="1212"/>
          <note pan="0" len="6" vol="137" key="36" pos="1212"/>
          <note pan="0" len="5" vol="144" key="79" pos="1224"/>
          <note pan="0" len="6" vol="152" key="43" pos="1224"/>
          <note pan="0" len="6" vol="152" key="39" pos="1224"/>
          <note pan="0" len="6" vol="152" key="36" pos="1224"/>
          <note pan="0" len="7" vol="118" key="48" pos="1236"/>
          <note pan="0" len="4" vol="122" key="51" pos="1248"/>
          <note pan="0" len="6" vol="157" key="36" pos="1248"/>
          <note pan="0" len="6" vol="141" key="43" pos="1251"/>
          <note pan="0" len="44" vol="165" key="51" pos="1254"/>
          <note pan="0" len="11" vol="132" key="55" pos="1260"/>
          <note pan="0" len="11" vol="116" key="60" pos="1272"/>
          <note pan="0" len="5" vol="135" key="63" pos="1284"/>
          <note pan="0" len="12" vol="135" key="67" pos="1296"/>
          <note pan="0" len="12" vol="143" key="75" pos="1308"/>
          <note pan="0" len="5" vol="140" key="79" pos="1320"/>
          <note pan="0" len="8" vol="146" key="39" pos="1320"/>
          <note pan="0" len="7" vol="133" key="48" pos="1332"/>
          <note pan="0" len="8" vol="132" key="41" pos="1332"/>
          <note pan="0" len="14" vol="129" key="51" pos="1344"/>
          <note pan="0" len="20" vol="163" key="43" pos="1344"/>
          <note pan="0" len="11" vol="135" key="55" pos="1356"/>
          <note pan="0" len="10" vol="116" key="60" pos="1368"/>
          <note pan="0" len="18" vol="140" key="39" pos="1368"/>
          <note pan="0" len="5" vol="127" key="63" pos="1380"/>
          <note pan="0" len="13" vol="133" key="67" pos="1392"/>
          <note pan="0" len="18" vol="96" key="36" pos="1392"/>
          <note pan="0" len="12" vol="146" key="75" pos="1404"/>
          <note pan="0" len="5" vol="140" key="79" pos="1416"/>
          <note pan="0" len="10" vol="140" key="24" pos="1416"/>
          <note pan="0" len="7" vol="127" key="47" pos="1428"/>
          <note pan="0" len="14" vol="130" key="50" pos="1440"/>
          <note pan="0" len="18" vol="177" key="23" pos="1440"/>
          <note pan="0" len="18" vol="177" key="11" pos="1440"/>
          <note pan="0" len="11" vol="116" key="53" pos="1452"/>
          <note pan="0" len="10" vol="132" key="59" pos="1464"/>
          <note pan="0" len="10" vol="140" key="29" pos="1464"/>
          <note pan="0" len="5" vol="140" key="62" pos="1476"/>
          <note pan="0" len="40" vol="157" key="55" pos="1486"/>
          <note pan="0" len="40" vol="157" key="59" pos="1488"/>
          <note pan="0" len="37" vol="177" key="31" pos="1488"/>
          <note pan="0" len="37" vol="177" key="19" pos="1488"/>
          <note pan="0" len="36" vol="157" key="62" pos="1489"/>
          <note pan="0" len="33" vol="157" key="65" pos="1490"/>
          <note pan="0" len="14" vol="137" key="51" pos="1536"/>
          <note pan="0" len="19" vol="177" key="24" pos="1536"/>
          <note pan="0" len="19" vol="177" key="12" pos="1536"/>
          <note pan="0" len="11" vol="122" key="55" pos="1548"/>
          <note pan="0" len="10" vol="122" key="60" pos="1560"/>
          <note pan="0" len="5" vol="133" key="63" pos="1572"/>
          <note pan="0" len="13" vol="124" key="67" pos="1584"/>
          <note pan="0" len="6" vol="149" key="43" pos="1584"/>
          <note pan="0" len="6" vol="149" key="39" pos="1584"/>
          <note pan="0" len="6" vol="149" key="36" pos="1584"/>
          <note pan="0" len="12" vol="125" key="75" pos="1596"/>
          <note pan="0" len="6" vol="137" key="43" pos="1596"/>
          <note pan="0" len="6" vol="137" key="39" pos="1596"/>
          <note pan="0" len="6" vol="137" key="36" pos="1596"/>
          <note pan="0" len="5" vol="144" key="79" pos="1608"/>
          <note pan="0" len="6" vol="152" key="43" pos="1608"/>
          <note pan="0" len="6" vol="152" key="39" pos="1608"/>
          <note pan="0" len="6" vol="152" key="36" pos="1608"/>
          <note pan="0" len="7" vol="118" key="48" pos="1620"/>
          <note pan="0" len="4" vol="122" key="51" pos="1632"/>
          <note pan="0" len="6" vol="157" key="36" pos="1632"/>
          <note pan="0" len="6" vol="141" key="43" pos="1635"/>
          <note pan="0" len="43" vol="165" key="51" pos="1638"/>
          <note pan="0" len="11" vol="132" key="55" pos="1644"/>
          <note pan="0" len="10" vol="116" key="60" pos="1656"/>
          <note pan="0" len="5" vol="135" key="63" pos="1668"/>
          <note pan="0" len="13" vol="135" key="67" pos="1680"/>
          <note pan="0" len="12" vol="143" key="75" pos="1692"/>
          <note pan="0" len="5" vol="140" key="79" pos="1704"/>
          <note pan="0" len="8" vol="146" key="39" pos="1704"/>
          <note pan="0" len="7" vol="133" key="48" pos="1716"/>
          <note pan="0" len="8" vol="132" key="41" pos="1716"/>
          <note pan="0" len="14" vol="129" key="51" pos="1728"/>
          <note pan="0" len="20" vol="163" key="43" pos="1728"/>
          <note pan="0" len="11" vol="135" key="55" pos="1740"/>
          <note pan="0" len="10" vol="116" key="60" pos="1752"/>
          <note pan="0" len="18" vol="140" key="39" pos="1752"/>
          <note pan="0" len="5" vol="127" key="63" pos="1764"/>
          <note pan="0" len="13" vol="133" key="67" pos="1776"/>
          <note pan="0" len="18" vol="96" key="36" pos="1776"/>
          <note pan="0" len="12" vol="146" key="75" pos="1788"/>
          <note pan="0" len="5" vol="140" key="79" pos="1800"/>
          <note pan="0" len="12" vol="137" key="43" pos="1800"/>
          <note pan="0" len="7" vol="133" key="49" pos="1812"/>
          <note pan="0" len="6" vol="132" key="43" pos="1822"/>
          <note pan="0" len="14" vol="129" key="53" pos="1824"/>
          <note pan="0" len="25" vol="176" key="44" pos="1828"/>
          <note pan="0" len="11" vol="135" key="56" pos="1836"/>
          <note pan="0" len="10" vol="116" key="61" pos="1848"/>
          <note pan="0" len="6" vol="135" key="41" pos="1848"/>
          <note pan="0" len="5" vol="127" key="65" pos="1860"/>
          <note pan="0" len="13" vol="133" key="68" pos="1872"/>
          <note pan="0" len="6" vol="116" key="37" pos="1872"/>
          <note pan="0" len="12" vol="146" key="77" pos="1884"/>
          <note pan="0" len="5" vol="140" key="80" pos="1896"/>
          <note pan="0" len="6" vol="159" key="34" pos="1896"/>
          <note pan="0" len="7" vol="129" key="48" pos="1908"/>
          <note pan="0" len="14" vol="137" key="51" pos="1920"/>
          <note pan="0" len="33" vol="177" key="24" pos="1920"/>
          <note pan="0" len="33" vol="177" key="12" pos="1920"/>
          <note pan="0" len="11" vol="122" key="55" pos="1932"/>
          <note pan="0" len="10" vol="122" key="60" pos="1944"/>
          <note pan="0" len="5" vol="133" key="63" pos="1956"/>
          <note pan="0" len="13" vol="124" key="67" pos="1968"/>
          <note pan="0" len="6" vol="149" key="43" pos="1968"/>
          <note pan="0" len="6" vol="149" key="39" pos="1968"/>
          <note pan="0" len="6" vol="149" key="36" pos="1968"/>
          <note pan="0" len="12" vol="125" key="75" pos="1980"/>
          <note pan="0" len="6" vol="137" key="43" pos="1980"/>
          <note pan="0" len="6" vol="137" key="39" pos="1980"/>
          <note pan="0" len="6" vol="137" key="36" pos="1980"/>
          <note pan="0" len="5" vol="144" key="79" pos="1992"/>
          <note pan="0" len="6" vol="152" key="43" pos="1992"/>
          <note pan="0" len="6" vol="152" key="39" pos="1992"/>
          <note pan="0" len="6" vol="152" key="36" pos="1992"/>
          <note pan="0" len="7" vol="118" key="48" pos="2004"/>
          <note pan="0" len="4" vol="122" key="51" pos="2016"/>
          <note pan="0" len="6" vol="157" key="36" pos="2016"/>
          <note pan="0" len="6" vol="141" key="43" pos="2019"/>
          <note pan="0" len="43" vol="165" key="51" pos="2022"/>
          <note pan="0" len="11" vol="132" key="55" pos="2028"/>
          <note pan="0" len="10" vol="116" key="60" pos="2040"/>
          <note pan="0" len="5" vol="135" key="63" pos="2052"/>
          <note pan="0" len="13" vol="135" key="67" pos="2064"/>
          <note pan="0" len="12" vol="143" key="75" pos="2076"/>
          <note pan="0" len="5" vol="140" key="79" pos="2088"/>
          <note pan="0" len="7" vol="133" key="48" pos="2100"/>
          <note pan="0" len="12" vol="162" key="84" pos="2112"/>
          <note pan="0" len="12" vol="146" key="75" pos="2112"/>
          <note pan="0" len="18" vol="177" key="24" pos="2112"/>
          <note pan="0" len="18" vol="177" key="12" pos="2112"/>
          <note pan="0" len="12" vol="140" key="84" pos="2148"/>
          <note pan="0" len="12" vol="130" key="75" pos="2148"/>
          <note pan="0" len="15" vol="133" key="43" pos="2148"/>
          <note pan="0" len="15" vol="137" key="39" pos="2148"/>
          <note pan="0" len="15" vol="125" key="36" pos="2148"/>
          <note pan="0" len="12" vol="146" key="84" pos="2184"/>
          <note pan="0" len="12" vol="151" key="75" pos="2184"/>
          <note pan="0" len="15" vol="144" key="43" pos="2184"/>
          <note pan="0" len="15" vol="138" key="39" pos="2184"/>
          <note pan="0" len="15" vol="144" key="36" pos="2184"/>
          <note pan="0" len="12" vol="129" key="84" pos="2220"/>
          <note pan="0" len="12" vol="146" key="75" pos="2220"/>
          <note pan="0" len="15" vol="141" key="43" pos="2220"/>
          <note pan="0" len="15" vol="130" key="39" pos="2220"/>
          <note pan="0" len="15" vol="105" key="36" pos="2220"/>
          <note pan="0" len="12" vol="159" key="84" pos="2256"/>
          <note pan="0" len="12" vol="154" key="75" pos="2256"/>
          <note pan="0" len="15" vol="118" key="43" pos="2256"/>
          <note pan="0" len="15" vol="124" key="39" pos="2256"/>
          <note pan="0" len="15" vol="149" key="36" pos="2256"/>
          <note pan="0" len="8" vol="174" key="25" pos="2304"/>
          <note pan="0" len="8" vol="174" key="13" pos="2304"/>
          <note pan="0" len="8" vol="140" key="25" pos="2328"/>
          <note pan="0" len="8" vol="140" key="13" pos="2328"/>
          <note pan="0" len="58" vol="138" key="76" pos="2352"/>
          <note pan="0" len="48" vol="129" key="72" pos="2358"/>
          <note pan="0" len="44" vol="121" key="68" pos="2364"/>
          <note pan="0" len="37" vol="137" key="64" pos="2370"/>
          <note pan="0" len="32" vol="125" key="60" pos="2376"/>
          <note pan="0" len="22" vol="132" key="56" pos="2382"/>
          <note pan="0" len="13" vol="121" key="52" pos="2388"/>
          <note pan="0" len="10" vol="127" key="48" pos="2394"/>
          <note pan="0" len="8" vol="151" key="25" pos="2472"/>
          <note pan="0" len="8" vol="151" key="13" pos="2472"/>
          <note pan="0" len="4" vol="127" key="43" pos="2493"/>
          <note pan="0" len="7" vol="138" key="44" pos="2496"/>
          <note pan="0" len="8" vol="138" key="40" pos="2496"/>
          <note pan="0" len="6" vol="138" key="36" pos="2496"/>
          <note pan="0" len="8" vol="140" key="25" pos="2496"/>
          <note pan="0" len="8" vol="140" key="13" pos="2496"/>
          <note pan="0" len="10" vol="141" key="44" pos="2544"/>
          <note pan="0" len="9" vol="141" key="40" pos="2544"/>
          <note pan="0" len="9" vol="141" key="36" pos="2544"/>
          <note pan="0" len="8" vol="140" key="25" pos="2544"/>
          <note pan="0" len="8" vol="140" key="13" pos="2544"/>
          <note pan="0" len="9" vol="137" key="43" pos="2592"/>
          <note pan="0" len="9" vol="137" key="39" pos="2592"/>
          <note pan="0" len="7" vol="137" key="36" pos="2592"/>
          <note pan="0" len="13" vol="165" key="24" pos="2592"/>
          <note pan="0" len="13" vol="165" key="12" pos="2592"/>
          <note pan="0" len="8" vol="137" key="36" pos="2615"/>
          <note pan="0" len="6" vol="137" key="43" pos="2616"/>
          <note pan="0" len="7" vol="137" key="39" pos="2616"/>
          <note pan="0" len="8" vol="140" key="24" pos="2616"/>
          <note pan="0" len="8" vol="140" key="12" pos="2616"/>
          <note pan="0" len="3" vol="92" key="48" pos="2685"/>
          <note pan="0" len="21" vol="130" key="49" pos="2688"/>
          <note pan="0" len="16" vol="177" key="25" pos="2688"/>
          <note pan="0" len="16" vol="177" key="13" pos="2688"/>
          <note pan="0" len="21" vol="121" key="48" pos="2712"/>
          <note pan="0" len="16" vol="140" key="25" pos="2712"/>
          <note pan="0" len="16" vol="140" key="13" pos="2712"/>
          <note pan="0" len="21" vol="107" key="49" pos="2736"/>
          <note pan="0" len="21" vol="118" key="51" pos="2760"/>
          <note pan="0" len="21" vol="125" key="52" pos="2784"/>
          <note pan="0" len="20" vol="129" key="49" pos="2784"/>
          <note pan="0" len="21" vol="133" key="51" pos="2808"/>
          <note pan="0" len="20" vol="124" key="48" pos="2808"/>
          <note pan="0" len="21" vol="121" key="52" pos="2832"/>
          <note pan="0" len="20" vol="125" key="44" pos="2832"/>
          <note pan="0" len="21" vol="132" key="53" pos="2856"/>
          <note pan="0" len="20" vol="116" key="48" pos="2856"/>
          <note pan="0" len="21" vol="124" key="54" pos="2880"/>
          <note pan="0" len="20" vol="125" key="49" pos="2880"/>
          <note pan="0" len="21" vol="135" key="53" pos="2904"/>
          <note pan="0" len="20" vol="141" key="44" pos="2904"/>
          <note pan="0" len="21" vol="143" key="54" pos="2928"/>
          <note pan="0" len="20" vol="138" key="49" pos="2928"/>
          <note pan="0" len="21" vol="124" key="55" pos="2952"/>
          <note pan="0" len="15" vol="129" key="52" pos="2952"/>
          <note pan="0" len="15" vol="148" key="56" pos="2976"/>
          <note pan="0" len="15" vol="143" key="51" pos="2976"/>
          <note pan="0" len="20" vol="177" key="24" pos="2976"/>
          <note pan="0" len="20" vol="177" key="12" pos="2976"/>
          <note pan="0" len="15" vol="141" key="57" pos="3000"/>
          <note pan="0" len="15" vol="137" key="48" pos="3000"/>
          <note pan="0" len="61" vol="140" key="24" pos="3000"/>
          <note pan="0" len="61" vol="140" key="12" pos="3000"/>
          <note pan="0" len="15" vol="149" key="58" pos="3024"/>
          <note pan="0" len="15" vol="133" key="51" pos="3024"/>
          <note pan="0" len="15" vol="152" key="59" pos="3048"/>
          <note pan="0" len="15" vol="141" key="55" pos="3048"/>
          <note pan="0" len="29" vol="132" key="52" pos="3071"/>
          <note pan="0" len="21" vol="141" key="56" pos="3072"/>
          <note pan="0" len="20" vol="177" key="25" pos="3072"/>
          <note pan="0" len="20" vol="177" key="13" pos="3072"/>
          <note pan="0" len="22" vol="146" key="60" pos="3073"/>
          <note pan="0" len="64" vol="140" key="25" pos="3096"/>
          <note pan="0" len="64" vol="140" key="13" pos="3096"/>
          <note pan="0" len="58" vol="138" key="76" pos="3120"/>
          <note pan="0" len="48" vol="129" key="72" pos="3126"/>
          <note pan="0" len="44" vol="121" key="68" pos="3132"/>
          <note pan="0" len="38" vol="137" key="64" pos="3138"/>
          <note pan="0" len="32" vol="125" key="60" pos="3144"/>
          <note pan="0" len="21" vol="132" key="56" pos="3150"/>
          <note pan="0" len="13" vol="121" key="52" pos="3156"/>
          <note pan="0" len="10" vol="127" key="48" pos="3162"/>
          <note pan="0" len="10" vol="127" key="25" pos="3216"/>
          <note pan="0" len="10" vol="127" key="26" pos="3228"/>
          <note pan="0" len="10" vol="127" key="28" pos="3240"/>
          <note pan="0" len="10" vol="127" key="32" pos="3252"/>
          <note pan="0" len="4" vol="127" key="43" pos="3261"/>
          <note pan="0" len="8" vol="138" key="44" pos="3264"/>
          <note pan="0" len="8" vol="138" key="40" pos="3264"/>
          <note pan="0" len="6" vol="138" key="36" pos="3264"/>
          <note pan="0" len="10" vol="155" key="32" pos="3264"/>
          <note pan="0" len="10" vol="155" key="25" pos="3264"/>
          <note pan="0" len="35" vol="138" key="76" pos="3312"/>
          <note pan="0" len="25" vol="129" key="72" pos="3318"/>
          <note pan="0" len="21" vol="121" key="68" pos="3324"/>
          <note pan="0" len="15" vol="137" key="64" pos="3330"/>
          <note pan="0" len="20" vol="125" key="60" pos="3336"/>
          <note pan="0" len="17" vol="132" key="56" pos="3342"/>
          <note pan="0" len="13" vol="121" key="52" pos="3348"/>
          <note pan="0" len="10" vol="127" key="48" pos="3354"/>
          <note pan="0" len="35" vol="138" key="77" pos="3360"/>
          <note pan="0" len="25" vol="129" key="73" pos="3366"/>
          <note pan="0" len="21" vol="121" key="69" pos="3372"/>
          <note pan="0" len="15" vol="137" key="65" pos="3378"/>
          <note pan="0" len="20" vol="125" key="61" pos="3384"/>
          <note pan="0" len="17" vol="132" key="57" pos="3390"/>
          <note pan="0" len="13" vol="121" key="53" pos="3396"/>
          <note pan="0" len="10" vol="127" key="49" pos="3402"/>
          <note pan="0" len="11" vol="130" key="45" pos="3408"/>
          <note pan="0" len="11" vol="118" key="41" pos="3420"/>
          <note pan="0" len="11" vol="129" key="37" pos="3432"/>
          <note pan="0" len="6" vol="137" key="33" pos="3444"/>
          <note pan="0" len="6" vol="137" key="21" pos="3444"/>
          <note pan="0" len="36" vol="135" key="44" pos="3455"/>
          <note pan="0" len="37" vol="137" key="40" pos="3455"/>
          <note pan="0" len="29" vol="125" key="48" pos="3456"/>
          <note pan="0" len="20" vol="177" key="25" pos="3456"/>
          <note pan="0" len="20" vol="177" key="13" pos="3456"/>
          <note pan="0" len="35" vol="130" key="52" pos="3457"/>
          <note pan="0" len="64" vol="140" key="25" pos="3480"/>
          <note pan="0" len="64" vol="140" key="13" pos="3480"/>
          <note pan="0" len="58" vol="138" key="76" pos="3504"/>
          <note pan="0" len="48" vol="129" key="72" pos="3510"/>
          <note pan="0" len="44" vol="121" key="68" pos="3516"/>
          <note pan="0" len="38" vol="137" key="64" pos="3522"/>
          <note pan="0" len="32" vol="125" key="60" pos="3528"/>
          <note pan="0" len="21" vol="132" key="56" pos="3534"/>
          <note pan="0" len="13" vol="121" key="52" pos="3540"/>
          <note pan="0" len="10" vol="127" key="48" pos="3546"/>
          <note pan="0" len="8" vol="140" key="25" pos="3624"/>
          <note pan="0" len="8" vol="140" key="13" pos="3624"/>
          <note pan="0" len="4" vol="127" key="43" pos="3645"/>
          <note pan="0" len="17" vol="129" key="44" pos="3648"/>
          <note pan="0" len="13" vol="135" key="40" pos="3648"/>
          <note pan="0" len="14" vol="137" key="36" pos="3648"/>
          <note pan="0" len="16" vol="165" key="25" pos="3648"/>
          <note pan="0" len="16" vol="165" key="13" pos="3648"/>
          <note pan="0" len="14" vol="121" key="44" pos="3696"/>
          <note pan="0" len="14" vol="121" key="36" pos="3696"/>
          <note pan="0" len="16" vol="143" key="32" pos="3696"/>
          <note pan="0" len="16" vol="143" key="25" pos="3696"/>
          <note pan="0" len="12" vol="129" key="40" pos="3697"/>
          <note pan="0" len="9" vol="121" key="44" pos="3744"/>
          <note pan="0" len="11" vol="116" key="40" pos="3744"/>
          <note pan="0" len="9" vol="132" key="37" pos="3744"/>
          <note pan="0" len="10" vol="135" key="32" pos="3744"/>
          <note pan="0" len="10" vol="135" key="25" pos="3744"/>
          <note pan="0" len="14" vol="119" key="44" pos="3768"/>
          <note pan="0" len="12" vol="121" key="40" pos="3768"/>
          <note pan="0" len="14" vol="111" key="37" pos="3768"/>
          <note pan="0" len="10" vol="103" key="32" pos="3768"/>
          <note pan="0" len="10" vol="103" key="25" pos="3768"/>
          <note pan="0" len="41" vol="124" key="44" pos="3792"/>
          <note pan="0" len="33" vol="125" key="40" pos="3792"/>
          <note pan="0" len="38" vol="118" key="37" pos="3792"/>
          <note pan="0" len="30" vol="137" key="25" pos="3792"/>
          <note pan="0" len="30" vol="137" key="13" pos="3792"/>
          <note pan="0" len="18" vol="137" key="51" pos="3840"/>
          <note pan="0" len="18" vol="118" key="44" pos="3840"/>
          <note pan="0" len="39" vol="129" key="25" pos="3840"/>
          <note pan="0" len="30" vol="137" key="32" pos="3846"/>
          <note pan="0" len="18" vol="118" key="49" pos="3864"/>
          <note pan="0" len="18" vol="124" key="51" pos="3888"/>
          <note pan="0" len="32" vol="122" key="40" pos="3888"/>
          <note pan="0" len="30" vol="114" key="44" pos="3890"/>
          <note pan="0" len="18" vol="130" key="52" pos="3912"/>
          <note pan="0" len="18" vol="116" key="51" pos="3936"/>
          <note pan="0" len="18" vol="118" key="44" pos="3936"/>
          <note pan="0" len="18" vol="119" key="44" pos="3960"/>
          <note pan="0" len="18" vol="118" key="40" pos="3960"/>
          <note pan="0" len="33" vol="122" key="37" pos="3983"/>
          <note pan="0" len="18" vol="108" key="49" pos="3984"/>
          <note pan="0" len="32" vol="122" key="40" pos="3984"/>
          <note pan="0" len="30" vol="114" key="44" pos="3986"/>
          <note pan="0" len="18" vol="130" key="52" pos="4008"/>
          <note pan="0" len="18" vol="125" key="51" pos="4032"/>
          <note pan="0" len="18" vol="118" key="44" pos="4032"/>
          <note pan="0" len="18" vol="113" key="49" pos="4056"/>
          <note pan="0" len="18" vol="118" key="44" pos="4056"/>
          <note pan="0" len="30" vol="114" key="32" pos="4078"/>
          <note pan="0" len="33" vol="137" key="37" pos="4079"/>
          <note pan="0" len="18" vol="122" key="51" pos="4080"/>
          <note pan="0" len="17" vol="118" key="47" pos="4080"/>
          <note pan="0" len="32" vol="137" key="40" pos="4080"/>
          <note pan="0" len="18" vol="127" key="52" pos="4104"/>
          <note pan="0" len="17" vol="118" key="49" pos="4104"/>
          <note pan="0" len="60" vol="140" key="56" pos="4128"/>
          <note pan="0" len="56" vol="118" key="52" pos="4128"/>
          <note pan="0" len="33" vol="122" key="37" pos="4175"/>
          <note pan="0" len="32" vol="122" key="40" pos="4176"/>
          <note pan="0" len="30" vol="132" key="44" pos="4178"/>
          <note pan="0" len="18" vol="113" key="49" pos="4200"/>
          <note pan="0" len="18" vol="133" key="51" pos="4224"/>
          <note pan="0" len="19" vol="118" key="44" pos="4224"/>
          <note pan="0" len="14" vol="129" key="13" pos="4224"/>
          <note pan="0" len="12" vol="129" key="25" pos="4227"/>
          <note pan="0" len="18" vol="122" key="49" pos="4248"/>
          <note pan="0" len="18" vol="116" key="32" pos="4248"/>
          <note pan="0" len="18" vol="119" key="25" pos="4248"/>
          <note pan="0" len="18" vol="118" key="51" pos="4272"/>
          <note pan="0" len="19" vol="118" key="44" pos="4272"/>
          <note pan="0" len="18" vol="111" key="32" pos="4272"/>
          <note pan="0" len="18" vol="103" key="25" pos="4272"/>
          <note pan="0" len="18" vol="129" key="52" pos="4296"/>
          <note pan="0" len="19" vol="118" key="47" pos="4296"/>
          <note pan="0" len="18" vol="116" key="32" pos="4296"/>
          <note pan="0" len="18" vol="107" key="25" pos="4296"/>
          <note pan="0" len="18" vol="127" key="51" pos="4320"/>
          <note pan="0" len="19" vol="118" key="44" pos="4320"/>
          <note pan="0" len="18" vol="94" key="32" pos="4320"/>
          <note pan="0" len="18" vol="88" key="25" pos="4320"/>
          <note pan="0" len="18" vol="119" key="44" pos="4344"/>
          <note pan="0" len="19" vol="118" key="39" pos="4344"/>
          <note pan="0" len="18" vol="111" key="32" pos="4344"/>
          <note pan="0" len="18" vol="102" key="25" pos="4344"/>
          <note pan="0" len="18" vol="129" key="49" pos="4368"/>
          <note pan="0" len="19" vol="118" key="44" pos="4368"/>
          <note pan="0" len="18" vol="103" key="32" pos="4368"/>
          <note pan="0" len="18" vol="118" key="25" pos="4368"/>
          <note pan="0" len="18" vol="137" key="52" pos="4392"/>
          <note pan="0" len="19" vol="118" key="49" pos="4392"/>
          <note pan="0" len="18" vol="105" key="32" pos="4392"/>
          <note pan="0" len="18" vol="103" key="25" pos="4392"/>
          <note pan="0" len="18" vol="129" key="28" pos="4414"/>
          <note pan="0" len="33" vol="140" key="51" pos="4416"/>
          <note pan="0" len="41" vol="125" key="44" pos="4416"/>
          <note pan="0" len="18" vol="129" key="32" pos="4416"/>
          <note pan="0" len="18" vol="129" key="37" pos="4417"/>
          <note pan="0" len="18" vol="129" key="28" pos="4462"/>
          <note pan="0" len="25" vol="130" key="49" pos="4464"/>
          <note pan="0" len="24" vol="111" key="44" pos="4464"/>
          <note pan="0" len="18" vol="129" key="32" pos="4464"/>
          <note pan="0" len="18" vol="129" key="37" pos="4465"/>
          <note pan="0" len="15" vol="121" key="44" pos="4512"/>
          <note pan="0" len="15" vol="121" key="40" pos="4512"/>
          <note pan="0" len="15" vol="127" key="32" pos="4512"/>
          <note pan="0" len="12" vol="129" key="25" pos="4512"/>
          <note pan="0" len="14" vol="129" key="13" pos="4512"/>
          <note pan="0" len="15" vol="108" key="40" pos="4535"/>
          <note pan="0" len="15" vol="111" key="44" pos="4536"/>
          <note pan="0" len="12" vol="129" key="25" pos="4536"/>
          <note pan="0" len="14" vol="129" key="13" pos="4536"/>
          <note pan="0" len="15" vol="113" key="32" pos="4537"/>
          <note pan="0" len="30" vol="121" key="40" pos="4559"/>
          <note pan="0" len="28" vol="116" key="44" pos="4560"/>
          <note pan="0" len="26" vol="127" key="32" pos="4560"/>
          <note pan="0" len="42" vol="129" key="13" pos="4560"/>
          <note pan="0" len="40" vol="129" key="25" pos="4561"/>
          <note pan="0" len="20" vol="130" key="72" pos="4608"/>
          <note pan="0" len="22" vol="149" key="13" pos="4608"/>
          <note pan="0" len="18" vol="140" key="25" pos="4610"/>
          <note pan="0" len="20" vol="114" key="68" pos="4632"/>
          <note pan="0" len="20" vol="111" key="64" pos="4656"/>
          <note pan="0" len="12" vol="125" key="40" pos="4656"/>
          <note pan="0" len="20" vol="107" key="63" pos="4680"/>
          <note pan="0" len="22" vol="138" key="37" pos="4680"/>
          <note pan="0" len="22" vol="138" key="32" pos="4680"/>
          <note pan="0" len="20" vol="111" key="72" pos="4704"/>
          <note pan="0" len="20" vol="122" key="68" pos="4728"/>
          <note pan="0" len="20" vol="110" key="64" pos="4752"/>
          <note pan="0" len="22" vol="137" key="40" pos="4752"/>
          <note pan="0" len="20" vol="125" key="63" pos="4776"/>
          <note pan="0" len="20" vol="130" key="72" pos="4800"/>
          <note pan="0" len="22" vol="138" key="32" pos="4800"/>
          <note pan="0" len="20" vol="114" key="68" pos="4824"/>
          <note pan="0" len="22" vol="111" key="28" pos="4824"/>
          <note pan="0" len="20" vol="111" key="64" pos="4848"/>
          <note pan="0" len="22" vol="130" key="40" pos="4848"/>
          <note pan="0" len="20" vol="107" key="63" pos="4872"/>
          <note pan="0" len="22" vol="140" key="37" pos="4872"/>
          <note pan="0" len="22" vol="140" key="32" pos="4872"/>
          <note pan="0" len="20" vol="111" key="72" pos="4896"/>
          <note pan="0" len="20" vol="122" key="68" pos="4920"/>
          <note pan="0" len="20" vol="110" key="64" pos="4944"/>
          <note pan="0" len="12" vol="129" key="40" pos="4944"/>
          <note pan="0" len="12" vol="129" key="37" pos="4944"/>
          <note pan="0" len="13" vol="129" key="32" pos="4944"/>
          <note pan="0" len="20" vol="125" key="63" pos="4968"/>
          <note pan="0" len="6" vol="140" key="25" pos="4989"/>
          <note pan="0" len="20" vol="130" key="72" pos="4992"/>
          <note pan="0" len="7" vol="132" key="32" pos="4992"/>
          <note pan="0" len="12" vol="146" key="40" pos="4994"/>
          <note pan="0" len="20" vol="114" key="68" pos="5016"/>
          <note pan="0" len="12" vol="133" key="37" pos="5021"/>
          <note pan="0" len="12" vol="132" key="40" pos="5022"/>
          <note pan="0" len="12" vol="124" key="44" pos="5023"/>
          <note pan="0" len="20" vol="111" key="64" pos="5040"/>
          <note pan="0" len="20" vol="107" key="63" pos="5064"/>
          <note pan="0" len="12" vol="122" key="40" pos="5064"/>
          <note pan="0" len="12" vol="116" key="37" pos="5064"/>
          <note pan="0" len="13" vol="124" key="44" pos="5065"/>
          <note pan="0" len="20" vol="111" key="72" pos="5088"/>
          <note pan="0" len="20" vol="122" key="68" pos="5112"/>
          <note pan="0" len="12" vol="119" key="40" pos="5112"/>
          <note pan="0" len="12" vol="125" key="37" pos="5112"/>
          <note pan="0" len="13" vol="111" key="44" pos="5113"/>
          <note pan="0" len="20" vol="110" key="64" pos="5136"/>
          <note pan="0" len="20" vol="125" key="63" pos="5160"/>
          <note pan="0" len="12" vol="118" key="40" pos="5160"/>
          <note pan="0" len="12" vol="119" key="37" pos="5160"/>
          <note pan="0" len="13" vol="121" key="44" pos="5161"/>
          <note pan="0" len="20" vol="130" key="72" pos="5184"/>
          <note pan="0" len="20" vol="114" key="68" pos="5208"/>
          <note pan="0" len="12" vol="121" key="40" pos="5208"/>
          <note pan="0" len="12" vol="125" key="37" pos="5208"/>
          <note pan="0" len="13" vol="119" key="44" pos="5209"/>
          <note pan="0" len="20" vol="111" key="64" pos="5232"/>
          <note pan="0" len="20" vol="107" key="63" pos="5256"/>
          <note pan="0" len="12" vol="124" key="40" pos="5256"/>
          <note pan="0" len="12" vol="130" key="37" pos="5256"/>
          <note pan="0" len="13" vol="122" key="44" pos="5257"/>
          <note pan="0" len="20" vol="111" key="72" pos="5280"/>
          <note pan="0" len="20" vol="122" key="68" pos="5304"/>
          <note pan="0" len="12" vol="122" key="40" pos="5304"/>
          <note pan="0" len="12" vol="127" key="37" pos="5304"/>
          <note pan="0" len="13" vol="135" key="44" pos="5305"/>
          <note pan="0" len="20" vol="110" key="64" pos="5328"/>
          <note pan="0" len="20" vol="125" key="63" pos="5352"/>
          <note pan="0" len="4" vol="78" key="72" pos="5374"/>
          <note pan="0" len="20" vol="118" key="73" pos="5376"/>
          <note pan="0" len="112" vol="121" key="37" pos="5376"/>
          <note pan="0" len="15" vol="118" key="25" pos="5376"/>
          <note pan="0" len="20" vol="67" key="68" pos="5400"/>
          <note pan="0" len="14" vol="92" key="25" pos="5400"/>
          <note pan="0" len="20" vol="47" key="64" pos="5424"/>
          <note pan="0" len="14" vol="94" key="25" pos="5424"/>
          <note pan="0" len="20" vol="39" key="63" pos="5448"/>
          <note pan="0" len="14" vol="88" key="25" pos="5448"/>
          <note pan="0" len="20" vol="48" key="72" pos="5472"/>
          <note pan="0" len="15" vol="89" key="25" pos="5472"/>
          <note pan="0" len="20" vol="62" key="68" pos="5496"/>
          <note pan="0" len="61" vol="114" key="37" pos="5496"/>
          <note pan="0" len="14" vol="103" key="25" pos="5496"/>
          <note pan="0" len="20" vol="45" key="64" pos="5520"/>
          <note pan="0" len="14" vol="86" key="25" pos="5520"/>
          <note pan="0" len="20" vol="58" key="63" pos="5544"/>
          <note pan="0" len="14" vol="96" key="25" pos="5544"/>
          <note pan="0" len="20" vol="75" key="72" pos="5568"/>
          <note pan="0" len="91" vol="108" key="37" pos="5568"/>
          <note pan="0" len="15" vol="103" key="25" pos="5568"/>
          <note pan="0" len="20" vol="67" key="68" pos="5592"/>
          <note pan="0" len="14" vol="86" key="25" pos="5592"/>
          <note pan="0" len="20" vol="47" key="64" pos="5616"/>
          <note pan="0" len="14" vol="91" key="25" pos="5616"/>
          <note pan="0" len="20" vol="39" key="63" pos="5640"/>
          <note pan="0" len="14" vol="97" key="25" pos="5640"/>
          <note pan="0" len="20" vol="48" key="72" pos="5664"/>
          <note pan="0" len="12" vol="107" key="31" pos="5664"/>
          <note pan="0" len="20" vol="62" key="68" pos="5688"/>
          <note pan="0" len="61" vol="122" key="43" pos="5688"/>
          <note pan="0" len="14" vol="118" key="31" pos="5688"/>
          <note pan="0" len="20" vol="45" key="64" pos="5712"/>
          <note pan="0" len="14" vol="91" key="31" pos="5712"/>
          <note pan="0" len="20" vol="58" key="63" pos="5736"/>
          <note pan="0" len="14" vol="102" key="31" pos="5736"/>
          <note pan="0" len="20" vol="75" key="72" pos="5760"/>
          <note pan="0" len="105" vol="124" key="44" pos="5760"/>
          <note pan="0" len="12" vol="119" key="32" pos="5760"/>
          <note pan="0" len="20" vol="67" key="68" pos="5784"/>
          <note pan="0" len="14" vol="97" key="32" pos="5784"/>
          <note pan="0" len="20" vol="47" key="64" pos="5808"/>
          <note pan="0" len="14" vol="88" key="32" pos="5808"/>
          <note pan="0" len="20" vol="39" key="63" pos="5832"/>
          <note pan="0" len="14" vol="94" key="32" pos="5832"/>
          <note pan="0" len="20" vol="48" key="72" pos="5856"/>
          <note pan="0" len="14" vol="105" key="32" pos="5856"/>
          <note pan="0" len="20" vol="62" key="68" pos="5880"/>
          <note pan="0" len="61" vol="121" key="44" pos="5880"/>
          <note pan="0" len="14" vol="118" key="32" pos="5880"/>
          <note pan="0" len="20" vol="45" key="64" pos="5904"/>
          <note pan="0" len="14" vol="89" key="32" pos="5904"/>
          <note pan="0" len="20" vol="58" key="63" pos="5928"/>
          <note pan="0" len="14" vol="94" key="32" pos="5928"/>
          <note pan="0" len="20" vol="75" key="72" pos="5952"/>
          <note pan="0" len="109" vol="119" key="38" pos="5952"/>
          <note pan="0" len="12" vol="113" key="26" pos="5952"/>
          <note pan="0" len="20" vol="67" key="68" pos="5976"/>
          <note pan="0" len="13" vol="92" key="26" pos="5976"/>
          <note pan="0" len="20" vol="47" key="64" pos="6000"/>
          <note pan="0" len="13" vol="103" key="26" pos="6000"/>
          <note pan="0" len="20" vol="39" key="63" pos="6024"/>
          <note pan="0" len="13" vol="97" key="26" pos="6024"/>
          <note pan="0" len="20" vol="48" key="72" pos="6048"/>
          <note pan="0" len="13" vol="89" key="26" pos="6048"/>
          <note pan="0" len="20" vol="62" key="68" pos="6072"/>
          <note pan="0" len="61" vol="125" key="38" pos="6072"/>
          <note pan="0" len="13" vol="116" key="26" pos="6072"/>
          <note pan="0" len="20" vol="45" key="64" pos="6096"/>
          <note pan="0" len="13" vol="85" key="26" pos="6096"/>
          <note pan="0" len="20" vol="58" key="63" pos="6120"/>
          <note pan="0" len="13" vol="91" key="26" pos="6120"/>
          <note pan="0" len="20" vol="118" key="73" pos="6144"/>
          <note pan="0" len="31" vol="118" key="37" pos="6144"/>
          <note pan="0" len="31" vol="118" key="25" pos="6144"/>
          <note pan="0" len="20" vol="80" key="68" pos="6168"/>
          <note pan="0" len="20" vol="94" key="64" pos="6192"/>
          <note pan="0" len="13" vol="94" key="49" pos="6192"/>
          <note pan="0" len="13" vol="94" key="37" pos="6192"/>
          <note pan="0" len="20" vol="75" key="63" pos="6216"/>
          <note pan="0" len="13" vol="88" key="49" pos="6216"/>
          <note pan="0" len="13" vol="88" key="37" pos="6216"/>
          <note pan="0" len="20" vol="78" key="72" pos="6240"/>
          <note pan="0" len="16" vol="89" key="49" pos="6240"/>
          <note pan="0" len="16" vol="89" key="37" pos="6240"/>
          <note pan="0" len="20" vol="97" key="68" pos="6264"/>
          <note pan="0" len="13" vol="103" key="49" pos="6264"/>
          <note pan="0" len="13" vol="103" key="37" pos="6264"/>
          <note pan="0" len="20" vol="105" key="64" pos="6288"/>
          <note pan="0" len="13" vol="86" key="49" pos="6288"/>
          <note pan="0" len="13" vol="86" key="37" pos="6288"/>
          <note pan="0" len="20" vol="94" key="63" pos="6312"/>
          <note pan="0" len="13" vol="96" key="49" pos="6312"/>
          <note pan="0" len="13" vol="96" key="37" pos="6312"/>
          <note pan="0" len="20" vol="96" key="72" pos="6336"/>
          <note pan="0" len="16" vol="103" key="49" pos="6336"/>
          <note pan="0" len="16" vol="103" key="37" pos="6336"/>
          <note pan="0" len="20" vol="111" key="68" pos="6360"/>
          <note pan="0" len="13" vol="86" key="49" pos="6360"/>
          <note pan="0" len="13" vol="86" key="37" pos="6360"/>
          <note pan="0" len="20" vol="96" key="64" pos="6384"/>
          <note pan="0" len="13" vol="91" key="49" pos="6384"/>
          <note pan="0" len="13" vol="91" key="37" pos="6384"/>
          <note pan="0" len="20" vol="75" key="63" pos="6408"/>
          <note pan="0" len="13" vol="97" key="49" pos="6408"/>
          <note pan="0" len="13" vol="97" key="37" pos="6408"/>
          <note pan="0" len="20" vol="99" key="72" pos="6432"/>
          <note pan="0" len="13" vol="107" key="43" pos="6432"/>
          <note pan="0" len="13" vol="107" key="31" pos="6432"/>
          <note pan="0" len="20" vol="116" key="68" pos="6456"/>
          <note pan="0" len="13" vol="118" key="43" pos="6456"/>
          <note pan="0" len="13" vol="118" key="31" pos="6456"/>
          <note pan="0" len="20" vol="94" key="64" pos="6480"/>
          <note pan="0" len="13" vol="91" key="43" pos="6480"/>
          <note pan="0" len="13" vol="91" key="31" pos="6480"/>
          <note pan="0" len="20" vol="108" key="63" pos="6504"/>
          <note pan="0" len="13" vol="102" key="43" pos="6504"/>
          <note pan="0" len="13" vol="102" key="31" pos="6504"/>
          <note pan="0" len="15" vol="125" key="72" pos="6528"/>
          <note pan="0" len="13" vol="118" key="64" pos="6528"/>
          <note pan="0" len="31" vol="118" key="32" pos="6528"/>
          <note pan="0" len="31" vol="118" key="20" pos="6528"/>
          <note pan="0" len="15" vol="111" key="68" pos="6552"/>
          <note pan="0" len="13" vol="111" key="63" pos="6552"/>
          <note pan="0" len="15" vol="113" key="72" pos="6576"/>
          <note pan="0" len="13" vol="103" key="64" pos="6576"/>
          <note pan="0" len="13" vol="88" key="44" pos="6576"/>
          <note pan="0" len="13" vol="88" key="32" pos="6576"/>
          <note pan="0" len="15" vol="105" key="68" pos="6600"/>
          <note pan="0" len="13" vol="110" key="63" pos="6600"/>
          <note pan="0" len="13" vol="94" key="44" pos="6600"/>
          <note pan="0" len="13" vol="94" key="32" pos="6600"/>
          <note pan="0" len="15" vol="113" key="72" pos="6624"/>
          <note pan="0" len="13" vol="97" key="64" pos="6624"/>
          <note pan="0" len="13" vol="105" key="44" pos="6624"/>
          <note pan="0" len="13" vol="105" key="32" pos="6624"/>
          <note pan="0" len="15" vol="121" key="68" pos="6648"/>
          <note pan="0" len="13" vol="108" key="63" pos="6648"/>
          <note pan="0" len="13" vol="118" key="44" pos="6648"/>
          <note pan="0" len="13" vol="118" key="32" pos="6648"/>
          <note pan="0" len="15" vol="111" key="72" pos="6672"/>
          <note pan="0" len="13" vol="110" key="64" pos="6672"/>
          <note pan="0" len="13" vol="89" key="44" pos="6672"/>
          <note pan="0" len="13" vol="89" key="32" pos="6672"/>
          <note pan="0" len="15" vol="102" key="68" pos="6696"/>
          <note pan="0" len="13" vol="103" key="63" pos="6696"/>
          <note pan="0" len="13" vol="94" key="44" pos="6696"/>
          <note pan="0" len="13" vol="94" key="32" pos="6696"/>
          <note pan="0" len="15" vol="110" key="72" pos="6720"/>
          <note pan="0" len="13" vol="97" key="64" pos="6720"/>
          <note pan="0" len="27" vol="113" key="38" pos="6720"/>
          <note pan="0" len="27" vol="113" key="26" pos="6720"/>
          <note pan="0" len="15" vol="116" key="68" pos="6744"/>
          <note pan="0" len="13" vol="99" key="63" pos="6744"/>
          <note pan="0" len="15" vol="110" key="72" pos="6768"/>
          <note pan="0" len="13" vol="99" key="64" pos="6768"/>
          <note pan="0" len="13" vol="103" key="45" pos="6768"/>
          <note pan="0" len="13" vol="103" key="38" pos="6768"/>
          <note pan="0" len="15" vol="105" key="68" pos="6792"/>
          <note pan="0" len="13" vol="96" key="63" pos="6792"/>
          <note pan="0" len="13" vol="97" key="45" pos="6792"/>
          <note pan="0" len="13" vol="97" key="38" pos="6792"/>
          <note pan="0" len="15" vol="94" key="72" pos="6816"/>
          <note pan="0" len="13" vol="81" key="64" pos="6816"/>
          <note pan="0" len="13" vol="89" key="45" pos="6816"/>
          <note pan="0" len="13" vol="89" key="38" pos="6816"/>
          <note pan="0" len="15" vol="91" key="68" pos="6840"/>
          <note pan="0" len="13" vol="86" key="63" pos="6840"/>
          <note pan="0" len="13" vol="116" key="45" pos="6840"/>
          <note pan="0" len="13" vol="116" key="38" pos="6840"/>
          <note pan="0" len="13" vol="80" key="64" pos="6864"/>
          <note pan="0" len="30" vol="85" key="45" pos="6864"/>
          <note pan="0" len="30" vol="85" key="38" pos="6864"/>
          <note pan="0" len="15" vol="86" key="68" pos="6866"/>
          <note pan="0" len="15" vol="86" key="72" pos="6869"/>
          <note pan="0" len="12" vol="88" key="62" pos="6912"/>
          <note pan="0" len="30" vol="129" key="38" pos="6912"/>
          <note pan="0" len="30" vol="129" key="26" pos="6912"/>
          <note pan="0" len="12" vol="86" key="63" pos="6924"/>
          <note pan="0" len="12" vol="94" key="57" pos="6936"/>
          <note pan="0" len="12" vol="96" key="53" pos="6948"/>
          <note pan="0" len="12" vol="92" key="50" pos="6960"/>
          <note pan="0" len="30" vol="100" key="38" pos="6960"/>
          <note pan="0" len="30" vol="100" key="26" pos="6960"/>
          <note pan="0" len="12" vol="86" key="53" pos="6972"/>
          <note pan="0" len="12" vol="100" key="57" pos="6984"/>
          <note pan="0" len="12" vol="88" key="63" pos="6996"/>
          <note pan="0" len="12" vol="89" key="62" pos="7008"/>
          <note pan="0" len="12" vol="67" key="65" pos="7020"/>
          <note pan="0" len="12" vol="81" key="69" pos="7032"/>
          <note pan="0" len="30" vol="91" key="38" pos="7032"/>
          <note pan="0" len="30" vol="91" key="26" pos="7032"/>
          <note pan="0" len="12" vol="78" key="75" pos="7044"/>
          <note pan="0" len="12" vol="89" key="74" pos="7056"/>
          <note pan="0" len="12" vol="88" key="65" pos="7068"/>
          <note pan="0" len="12" vol="96" key="62" pos="7080"/>
          <note pan="0" len="19" vol="100" key="40" pos="7080"/>
          <note pan="0" len="19" vol="100" key="38" pos="7080"/>
          <note pan="0" len="12" vol="86" key="65" pos="7092"/>
          <note pan="0" len="12" vol="92" key="61" pos="7104"/>
          <note pan="0" len="29" vol="113" key="45" pos="7104"/>
          <note pan="0" len="29" vol="113" key="38" pos="7104"/>
          <note pan="0" len="12" vol="89" key="53" pos="7116"/>
          <note pan="0" len="12" vol="64" key="50" pos="7128"/>
          <note pan="0" len="12" vol="72" key="53" pos="7140"/>
          <note pan="0" len="12" vol="67" key="57" pos="7152"/>
          <note pan="0" len="29" vol="75" key="45" pos="7152"/>
          <note pan="0" len="29" vol="75" key="38" pos="7152"/>
          <note pan="0" len="12" vol="91" key="63" pos="7164"/>
          <note pan="0" len="12" vol="77" key="62" pos="7176"/>
          <note pan="0" len="12" vol="83" key="63" pos="7188"/>
          <note pan="0" len="12" vol="67" key="69" pos="7200"/>
          <note pan="0" len="29" vol="85" key="45" pos="7200"/>
          <note pan="0" len="29" vol="85" key="38" pos="7200"/>
          <note pan="0" len="12" vol="88" key="75" pos="7212"/>
          <note pan="0" len="12" vol="91" key="76" pos="7224"/>
          <note pan="0" len="12" vol="94" key="81" pos="7236"/>
          <note pan="0" len="29" vol="81" key="46" pos="7248"/>
          <note pan="0" len="29" vol="81" key="39" pos="7248"/>
          <note pan="0" len="12" vol="81" key="75" pos="7260"/>
          <note pan="0" len="12" vol="92" key="76" pos="7272"/>
          <note pan="0" len="12" vol="102" key="81" pos="7284"/>
          <note pan="0" len="17" vol="88" key="64" pos="7296"/>
          <note pan="0" len="17" vol="86" key="67" pos="7298"/>
          <note pan="0" len="24" vol="86" key="71" pos="7299"/>
          <note pan="0" len="19" vol="94" key="76" pos="7300"/>
          <note pan="0" len="20" vol="92" key="79" pos="7302"/>
          <note pan="0" len="19" vol="92" key="83" pos="7304"/>
          <note pan="0" len="17" vol="81" key="59" pos="7332"/>
          <note pan="0" len="17" vol="81" key="64" pos="7334"/>
          <note pan="0" len="24" vol="81" key="67" pos="7335"/>
          <note pan="0" len="19" vol="77" key="71" pos="7336"/>
          <note pan="0" len="20" vol="77" key="76" pos="7338"/>
          <note pan="0" len="19" vol="77" key="79" pos="7340"/>
          <note pan="0" len="17" vol="86" key="55" pos="7368"/>
          <note pan="0" len="17" vol="86" key="59" pos="7370"/>
          <note pan="0" len="24" vol="86" key="64" pos="7371"/>
          <note pan="0" len="19" vol="78" key="67" pos="7372"/>
          <note pan="0" len="20" vol="78" key="71" pos="7374"/>
          <note pan="0" len="19" vol="78" key="76" pos="7376"/>
          <note pan="0" len="17" vol="91" key="52" pos="7404"/>
          <note pan="0" len="17" vol="91" key="55" pos="7406"/>
          <note pan="0" len="24" vol="91" key="59" pos="7407"/>
          <note pan="0" len="19" vol="91" key="64" pos="7408"/>
          <note pan="0" len="20" vol="91" key="67" pos="7410"/>
          <note pan="0" len="19" vol="91" key="71" pos="7412"/>
          <note pan="0" len="17" vol="78" key="47" pos="7440"/>
          <note pan="0" len="17" vol="78" key="52" pos="7442"/>
          <note pan="0" len="24" vol="78" key="55" pos="7443"/>
          <note pan="0" len="19" vol="85" key="59" pos="7444"/>
          <note pan="0" len="20" vol="86" key="64" pos="7446"/>
          <note pan="0" len="19" vol="86" key="67" pos="7448"/>
          <note pan="0" len="7" vol="78" key="52" pos="7476"/>
          <note pan="0" len="20" vol="94" key="68" pos="7488"/>
          <note pan="0" len="17" vol="99" key="56" pos="7488"/>
          <note pan="0" len="17" vol="100" key="52" pos="7488"/>
          <note pan="0" len="20" vol="94" key="72" pos="7489"/>
          <note pan="0" len="19" vol="94" key="64" pos="7489"/>
          <note pan="0" len="24" vol="99" key="60" pos="7489"/>
          <note pan="0" len="20" vol="85" key="68" pos="7524"/>
          <note pan="0" len="17" vol="83" key="48" pos="7524"/>
          <note pan="0" len="20" vol="85" key="72" pos="7525"/>
          <note pan="0" len="19" vol="85" key="64" pos="7525"/>
          <note pan="0" len="24" vol="83" key="60" pos="7525"/>
          <note pan="0" len="20" vol="88" key="68" pos="7560"/>
          <note pan="0" len="21" vol="129" key="44" pos="7560"/>
          <note pan="0" len="20" vol="89" key="72" pos="7561"/>
          <note pan="0" len="19" vol="89" key="64" pos="7561"/>
          <note pan="0" len="24" vol="85" key="60" pos="7561"/>
          <note pan="0" len="20" vol="81" key="68" pos="7596"/>
          <note pan="0" len="21" vol="129" key="40" pos="7596"/>
          <note pan="0" len="20" vol="81" key="72" pos="7597"/>
          <note pan="0" len="19" vol="81" key="64" pos="7597"/>
          <note pan="0" len="24" vol="94" key="60" pos="7597"/>
          <note pan="0" len="20" vol="81" key="68" pos="7632"/>
          <note pan="0" len="21" vol="129" key="36" pos="7632"/>
          <note pan="0" len="20" vol="81" key="72" pos="7633"/>
          <note pan="0" len="19" vol="81" key="64" pos="7633"/>
          <note pan="0" len="24" vol="89" key="60" pos="7633"/>
          <note pan="0" len="16" vol="129" key="40" pos="7656"/>
          <note pan="0" len="16" vol="129" key="28" pos="7656"/>
          <note pan="0" len="12" vol="96" key="65" pos="7680"/>
          <note pan="0" len="30" vol="129" key="41" pos="7680"/>
          <note pan="0" len="30" vol="129" key="29" pos="7680"/>
          <note pan="0" len="12" vol="89" key="64" pos="7692"/>
          <note pan="0" len="12" vol="88" key="60" pos="7704"/>
          <note pan="0" len="12" vol="62" key="56" pos="7716"/>
          <note pan="0" len="12" vol="88" key="53" pos="7728"/>
          <note pan="0" len="30" vol="100" key="41" pos="7728"/>
          <note pan="0" len="30" vol="100" key="29" pos="7728"/>
          <note pan="0" len="12" vol="77" key="56" pos="7740"/>
          <note pan="0" len="12" vol="91" key="60" pos="7752"/>
          <note pan="0" len="12" vol="97" key="64" pos="7764"/>
          <note pan="0" len="12" vol="102" key="65" pos="7776"/>
          <note pan="0" len="12" vol="83" key="68" pos="7788"/>
          <note pan="0" len="12" vol="86" key="72" pos="7800"/>
          <note pan="0" len="30" vol="91" key="41" pos="7800"/>
          <note pan="0" len="30" vol="91" key="29" pos="7800"/>
          <note pan="0" len="12" vol="70" key="76" pos="7812"/>
          <note pan="0" len="12" vol="89" key="72" pos="7824"/>
          <note pan="0" len="12" vol="83" key="68" pos="7836"/>
          <note pan="0" len="12" vol="107" key="65" pos="7848"/>
          <note pan="0" len="19" vol="100" key="43" pos="7848"/>
          <note pan="0" len="19" vol="100" key="41" pos="7848"/>
          <note pan="0" len="12" vol="97" key="72" pos="7872"/>
          <note pan="0" len="29" vol="113" key="48" pos="7872"/>
          <note pan="0" len="29" vol="113" key="41" pos="7872"/>
          <note pan="0" len="12" vol="80" key="68" pos="7884"/>
          <note pan="0" len="12" vol="100" key="65" pos="7896"/>
          <note pan="0" len="12" vol="92" key="60" pos="7908"/>
          <note pan="0" len="12" vol="83" key="53" pos="7920"/>
          <note pan="0" len="29" vol="92" key="48" pos="7920"/>
          <note pan="0" len="29" vol="92" key="41" pos="7920"/>
          <note pan="0" len="12" vol="85" key="56" pos="7932"/>
          <note pan="0" len="12" vol="77" key="60" pos="7944"/>
          <note pan="0" len="12" vol="94" key="64" pos="7956"/>
          <note pan="0" len="12" vol="110" key="65" pos="7968"/>
          <note pan="0" len="18" vol="107" key="48" pos="7968"/>
          <note pan="0" len="12" vol="94" key="68" pos="7980"/>
          <note pan="0" len="12" vol="85" key="72" pos="7992"/>
          <note pan="0" len="18" vol="97" key="44" pos="7992"/>
          <note pan="0" len="12" vol="91" key="76" pos="8004"/>
          <note pan="0" len="18" vol="89" key="77" pos="8016"/>
          <note pan="0" len="18" vol="113" key="48" pos="8016"/>
          <note pan="0" len="18" vol="91" key="43" pos="8040"/>
          <note pan="0" len="12" vol="94" key="65" pos="8064"/>
          <note pan="0" len="149" vol="133" key="41" pos="8064"/>
          <note pan="0" len="139" vol="133" key="48" pos="8066"/>
          <note pan="0" len="12" vol="91" key="64" pos="8076"/>
          <note pan="0" len="12" vol="81" key="60" pos="8088"/>
          <note pan="0" len="12" vol="89" key="56" pos="8100"/>
          <note pan="0" len="12" vol="100" key="53" pos="8112"/>
          <note pan="0" len="12" vol="78" key="56" pos="8124"/>
          <note pan="0" len="12" vol="78" key="60" pos="8136"/>
          <note pan="0" len="12" vol="61" key="64" pos="8148"/>
          <note pan="0" len="12" vol="61" key="65" pos="8160"/>
          <note pan="0" len="12" vol="69" key="68" pos="8172"/>
          <note pan="0" len="12" vol="78" key="72" pos="8184"/>
          <note pan="0" len="12" vol="66" key="76" pos="8196"/>
          <note pan="0" len="12" vol="86" key="72" pos="8208"/>
          <note pan="0" len="12" vol="62" key="68" pos="8220"/>
          <note pan="0" len="12" vol="85" key="65" pos="8232"/>
          <note pan="0" len="44" vol="125" key="44" pos="8232"/>
          <note pan="0" len="12" vol="86" key="68" pos="8244"/>
          <note pan="0" len="12" vol="72" key="60" pos="8256"/>
          <note pan="0" len="44" vol="107" key="48" pos="8256"/>
          <note pan="0" len="12" vol="72" key="56" pos="8268"/>
          <note pan="0" len="12" vol="80" key="53" pos="8280"/>
          <note pan="0" len="44" vol="132" key="52" pos="8280"/>
          <note pan="0" len="12" vol="86" key="56" pos="8292"/>
          <note pan="0" len="12" vol="72" key="60" pos="8304"/>
          <note pan="0" len="12" vol="83" key="64" pos="8316"/>
          <note pan="0" len="12" vol="94" key="65" pos="8328"/>
          <note pan="0" len="30" vol="122" key="48" pos="8328"/>
          <note pan="0" len="12" vol="70" key="68" pos="8340"/>
          <note pan="0" len="12" vol="58" key="72" pos="8352"/>
          <note pan="0" len="23" vol="85" key="44" pos="8352"/>
          <note pan="0" len="12" vol="77" key="76" pos="8364"/>
          <note pan="0" len="12" vol="55" key="72" pos="8376"/>
          <note pan="0" len="14" vol="91" key="40" pos="8376"/>
          <note pan="0" len="12" vol="69" key="68" pos="8388"/>
          <note pan="0" len="12" vol="80" key="65" pos="8400"/>
          <note pan="0" len="19" vol="108" key="36" pos="8400"/>
          <note pan="0" len="12" vol="83" key="64" pos="8412"/>
          <note pan="0" len="12" vol="81" key="60" pos="8424"/>
          <note pan="0" len="22" vol="86" key="32" pos="8424"/>
          <note pan="0" len="12" vol="77" key="56" pos="8436"/>
          <note pan="0" len="12" vol="88" key="60" pos="8448"/>
          <note pan="0" len="30" vol="137" key="36" pos="8448"/>
          <note pan="0" len="30" vol="137" key="24" pos="8448"/>
          <note pan="0" len="12" vol="86" key="61" pos="8460"/>
          <note pan="0" len="12" vol="94" key="55" pos="8472"/>
          <note pan="0" len="12" vol="96" key="51" pos="8484"/>
          <note pan="0" len="29" vol="135" key="36" pos="8494"/>
          <note pan="0" len="12" vol="92" key="48" pos="8496"/>
          <note pan="0" len="30" vol="124" key="43" pos="8496"/>
          <note pan="0" len="24" vol="121" key="39" pos="8496"/>
          <note pan="0" len="12" vol="86" key="51" pos="8508"/>
          <note pan="0" len="12" vol="100" key="55" pos="8520"/>
          <note pan="0" len="12" vol="88" key="61" pos="8532"/>
          <note pan="0" len="12" vol="89" key="60" pos="8544"/>
          <note pan="0" len="12" vol="67" key="63" pos="8556"/>
          <note pan="0" len="12" vol="81" key="67" pos="8568"/>
          <note pan="0" len="14" vol="127" key="36" pos="8568"/>
          <note pan="0" len="14" vol="127" key="24" pos="8568"/>
          <note pan="0" len="12" vol="78" key="73" pos="8580"/>
          <note pan="0" len="12" vol="89" key="72" pos="8592"/>
          <note pan="0" len="30" vol="132" key="43" pos="8592"/>
          <note pan="0" len="24" vol="132" key="39" pos="8592"/>
          <note pan="0" len="29" vol="140" key="48" pos="8594"/>
          <note pan="0" len="12" vol="88" key="63" pos="8604"/>
          <note pan="0" len="12" vol="96" key="60" pos="8616"/>
          <note pan="0" len="12" vol="86" key="63" pos="8628"/>
          <note pan="0" len="12" vol="92" key="59" pos="8640"/>
          <note pan="0" len="14" vol="127" key="36" pos="8640"/>
          <note pan="0" len="14" vol="127" key="31" pos="8640"/>
          <note pan="0" len="12" vol="89" key="51" pos="8652"/>
          <note pan="0" len="12" vol="64" key="48" pos="8664"/>
          <note pan="0" len="12" vol="72" key="51" pos="8676"/>
          <note pan="0" len="41" vol="110" key="39" pos="8686"/>
          <note pan="0" len="12" vol="67" key="55" pos="8688"/>
          <note pan="0" len="28" vol="110" key="43" pos="8688"/>
          <note pan="0" len="27" vol="108" key="48" pos="8692"/>
          <note pan="0" len="12" vol="91" key="61" pos="8700"/>
          <note pan="0" len="12" vol="77" key="60" pos="8712"/>
          <note pan="0" len="12" vol="83" key="61" pos="8724"/>
          <note pan="0" len="12" vol="67" key="67" pos="8736"/>
          <note pan="0" len="12" vol="88" key="73" pos="8748"/>
          <note pan="0" len="12" vol="91" key="74" pos="8760"/>
          <note pan="0" len="14" vol="127" key="36" pos="8760"/>
          <note pan="0" len="14" vol="127" key="24" pos="8760"/>
          <note pan="0" len="12" vol="94" key="79" pos="8772"/>
          <note pan="0" len="30" vol="132" key="43" pos="8784"/>
          <note pan="0" len="24" vol="132" key="39" pos="8784"/>
          <note pan="0" len="29" vol="140" key="48" pos="8786"/>
          <note pan="0" len="12" vol="81" key="73" pos="8796"/>
          <note pan="0" len="12" vol="92" key="74" pos="8808"/>
          <note pan="0" len="12" vol="102" key="79" pos="8820"/>
          <note pan="0" len="17" vol="88" key="62" pos="8832"/>
          <note pan="0" len="17" vol="86" key="65" pos="8834"/>
          <note pan="0" len="24" vol="86" key="69" pos="8835"/>
          <note pan="0" len="19" vol="94" key="74" pos="8836"/>
          <note pan="0" len="20" vol="92" key="77" pos="8838"/>
          <note pan="0" len="19" vol="92" key="81" pos="8840"/>
          <note pan="0" len="17" vol="81" key="57" pos="8868"/>
          <note pan="0" len="17" vol="81" key="62" pos="8870"/>
          <note pan="0" len="24" vol="81" key="65" pos="8871"/>
          <note pan="0" len="19" vol="77" key="69" pos="8872"/>
          <note pan="0" len="20" vol="77" key="74" pos="8874"/>
          <note pan="0" len="19" vol="77" key="77" pos="8876"/>
          <note pan="0" len="17" vol="86" key="53" pos="8904"/>
          <note pan="0" len="17" vol="86" key="57" pos="8906"/>
          <note pan="0" len="24" vol="86" key="62" pos="8907"/>
          <note pan="0" len="19" vol="78" key="65" pos="8908"/>
          <note pan="0" len="20" vol="78" key="69" pos="8910"/>
          <note pan="0" len="19" vol="78" key="74" pos="8912"/>
          <note pan="0" len="17" vol="91" key="50" pos="8940"/>
          <note pan="0" len="17" vol="91" key="53" pos="8942"/>
          <note pan="0" len="24" vol="91" key="57" pos="8943"/>
          <note pan="0" len="19" vol="91" key="62" pos="8944"/>
          <note pan="0" len="20" vol="91" key="65" pos="8946"/>
          <note pan="0" len="19" vol="91" key="69" pos="8948"/>
          <note pan="0" len="17" vol="78" key="45" pos="8976"/>
          <note pan="0" len="17" vol="78" key="50" pos="8978"/>
          <note pan="0" len="24" vol="78" key="53" pos="8979"/>
          <note pan="0" len="19" vol="85" key="57" pos="8980"/>
          <note pan="0" len="20" vol="86" key="62" pos="8982"/>
          <note pan="0" len="19" vol="86" key="65" pos="8984"/>
          <note pan="0" len="7" vol="78" key="50" pos="9012"/>
          <note pan="0" len="20" vol="94" key="66" pos="9024"/>
          <note pan="0" len="17" vol="99" key="54" pos="9024"/>
          <note pan="0" len="17" vol="100" key="50" pos="9024"/>
          <note pan="0" len="20" vol="94" key="70" pos="9025"/>
          <note pan="0" len="19" vol="94" key="62" pos="9025"/>
          <note pan="0" len="24" vol="99" key="58" pos="9025"/>
          <note pan="0" len="20" vol="85" key="66" pos="9060"/>
          <note pan="0" len="17" vol="83" key="46" pos="9060"/>
          <note pan="0" len="20" vol="85" key="70" pos="9061"/>
          <note pan="0" len="19" vol="85" key="62" pos="9061"/>
          <note pan="0" len="24" vol="83" key="58" pos="9061"/>
          <note pan="0" len="20" vol="88" key="66" pos="9096"/>
          <note pan="0" len="21" vol="129" key="42" pos="9096"/>
          <note pan="0" len="20" vol="89" key="70" pos="9097"/>
          <note pan="0" len="19" vol="89" key="62" pos="9097"/>
          <note pan="0" len="24" vol="85" key="58" pos="9097"/>
          <note pan="0" len="20" vol="81" key="66" pos="9132"/>
          <note pan="0" len="21" vol="129" key="38" pos="9132"/>
          <note pan="0" len="20" vol="81" key="70" pos="9133"/>
          <note pan="0" len="19" vol="81" key="62" pos="9133"/>
          <note pan="0" len="24" vol="94" key="58" pos="9133"/>
          <note pan="0" len="20" vol="81" key="66" pos="9168"/>
          <note pan="0" len="21" vol="129" key="34" pos="9168"/>
          <note pan="0" len="20" vol="81" key="70" pos="9169"/>
          <note pan="0" len="19" vol="81" key="62" pos="9169"/>
          <note pan="0" len="24" vol="89" key="58" pos="9169"/>
          <note pan="0" len="16" vol="129" key="38" pos="9192"/>
          <note pan="0" len="16" vol="129" key="26" pos="9192"/>
          <note pan="0" len="97" vol="102" key="62" pos="9214"/>
          <note pan="0" len="93" vol="102" key="70" pos="9216"/>
          <note pan="0" len="88" vol="102" key="66" pos="9216"/>
          <note pan="0" len="30" vol="137" key="38" pos="9216"/>
          <note pan="0" len="30" vol="137" key="26" pos="9216"/>
          <note pan="0" len="29" vol="135" key="38" pos="9262"/>
          <note pan="0" len="30" vol="124" key="46" pos="9264"/>
          <note pan="0" len="24" vol="121" key="42" pos="9264"/>
          <note pan="0" len="14" vol="127" key="38" pos="9336"/>
          <note pan="0" len="14" vol="127" key="26" pos="9336"/>
          <note pan="0" len="30" vol="132" key="46" pos="9360"/>
          <note pan="0" len="24" vol="132" key="42" pos="9360"/>
          <note pan="0" len="29" vol="140" key="50" pos="9362"/>
          <note pan="0" len="14" vol="127" key="38" pos="9408"/>
          <note pan="0" len="14" vol="127" key="33" pos="9408"/>
          <note pan="0" len="41" vol="110" key="42" pos="9454"/>
          <note pan="0" len="36" vol="80" key="60" pos="9456"/>
          <note pan="0" len="36" vol="80" key="55" pos="9456"/>
          <note pan="0" len="28" vol="110" key="46" pos="9456"/>
          <note pan="0" len="27" vol="108" key="50" pos="9460"/>
          <note pan="0" len="14" vol="127" key="38" pos="9528"/>
          <note pan="0" len="14" vol="127" key="26" pos="9528"/>
          <note pan="0" len="36" vol="80" key="60" pos="9552"/>
          <note pan="0" len="36" vol="80" key="55" pos="9552"/>
          <note pan="0" len="30" vol="132" key="46" pos="9552"/>
          <note pan="0" len="24" vol="132" key="42" pos="9552"/>
          <note pan="0" len="29" vol="140" key="50" pos="9554"/>
          <note pan="0" len="30" vol="137" key="38" pos="9600"/>
          <note pan="0" len="30" vol="137" key="26" pos="9600"/>
          <note pan="0" len="36" vol="111" key="62" pos="9624"/>
          <note pan="0" len="41" vol="110" key="42" pos="9646"/>
          <note pan="0" len="28" vol="110" key="46" pos="9648"/>
          <note pan="0" len="27" vol="108" key="50" pos="9652"/>
          <note pan="0" len="36" vol="94" key="63" pos="9660"/>
          <note pan="0" len="24" vol="96" key="67" pos="9696"/>
          <note pan="0" len="28" vol="121" key="42" pos="9696"/>
          <note pan="0" len="24" vol="77" key="70" pos="9720"/>
          <note pan="0" len="28" vol="107" key="46" pos="9720"/>
          <note pan="0" len="24" vol="91" key="72" pos="9744"/>
          <note pan="0" len="28" vol="114" key="48" pos="9744"/>
          <note pan="0" len="24" vol="103" key="75" pos="9768"/>
          <note pan="0" len="12" vol="97" key="50" pos="9768"/>
          <note pan="0" len="157" vol="116" key="79" pos="9792"/>
          <note pan="0" len="87" vol="119" key="46" pos="9792"/>
          <note pan="0" len="87" vol="108" key="50" pos="9796"/>
          <note pan="0" len="69" vol="113" key="54" pos="9807"/>
          <note pan="0" len="7" vol="119" key="41" pos="9884"/>
          <note pan="0" len="24" vol="125" key="42" pos="9888"/>
          <note pan="0" len="24" vol="97" key="39" pos="9912"/>
          <note pan="0" len="24" vol="102" key="38" pos="9936"/>
          <note pan="0" len="24" vol="108" key="34" pos="9960"/>
          <note pan="0" len="24" vol="122" key="71" pos="9984"/>
          <note pan="0" len="282" vol="133" key="31" pos="9984"/>
          <note pan="0" len="282" vol="133" key="19" pos="9984"/>
          <note pan="0" len="24" vol="77" key="67" pos="10008"/>
          <note pan="0" len="24" vol="133" key="75" pos="10032"/>
          <note pan="0" len="24" vol="92" key="74" pos="10056"/>
          <note pan="0" len="24" vol="100" key="71" pos="10080"/>
          <note pan="0" len="24" vol="113" key="67" pos="10104"/>
          <note pan="0" len="24" vol="125" key="75" pos="10128"/>
          <note pan="0" len="24" vol="92" key="74" pos="10152"/>
          <note pan="0" len="24" vol="113" key="71" pos="10176"/>
          <note pan="0" len="24" vol="89" key="67" pos="10200"/>
          <note pan="0" len="24" vol="94" key="75" pos="10224"/>
          <note pan="0" len="24" vol="121" key="74" pos="10248"/>
          <note pan="0" len="24" vol="137" key="71" pos="10272"/>
          <note pan="0" len="17" vol="114" key="55" pos="10272"/>
          <note pan="0" len="17" vol="103" key="50" pos="10272"/>
          <note pan="0" len="17" vol="108" key="47" pos="10272"/>
          <note pan="0" len="24" vol="92" key="67" pos="10296"/>
          <note pan="0" len="24" vol="118" key="75" pos="10320"/>
          <note pan="0" len="17" vol="111" key="59" pos="10320"/>
          <note pan="0" len="17" vol="111" key="55" pos="10320"/>
          <note pan="0" len="17" vol="116" key="50" pos="10320"/>
          <note pan="0" len="24" vol="107" key="74" pos="10344"/>
          <note pan="0" len="20" vol="137" key="71" pos="10368"/>
          <note pan="0" len="19" vol="130" key="63" pos="10368"/>
          <note pan="0" len="20" vol="119" key="67" pos="10392"/>
          <note pan="0" len="19" vol="124" key="62" pos="10392"/>
          <note pan="0" len="20" vol="124" key="71" pos="10416"/>
          <note pan="0" len="19" vol="127" key="63" pos="10416"/>
          <note pan="0" len="20" vol="118" key="67" pos="10440"/>
          <note pan="0" len="19" vol="114" key="62" pos="10440"/>
          <note pan="0" len="20" vol="119" key="71" pos="10464"/>
          <note pan="0" len="19" vol="121" key="63" pos="10464"/>
          <note pan="0" len="20" vol="129" key="67" pos="10488"/>
          <note pan="0" len="19" vol="140" key="62" pos="10488"/>
          <note pan="0" len="20" vol="133" key="71" pos="10512"/>
          <note pan="0" len="19" vol="125" key="63" pos="10512"/>
          <note pan="0" len="20" vol="118" key="67" pos="10536"/>
          <note pan="0" len="19" vol="119" key="62" pos="10536"/>
          <note pan="0" len="20" vol="138" key="71" pos="10560"/>
          <note pan="0" len="19" vol="143" key="63" pos="10560"/>
          <note pan="0" len="20" vol="124" key="67" pos="10584"/>
          <note pan="0" len="19" vol="122" key="62" pos="10584"/>
          <note pan="0" len="20" vol="146" key="71" pos="10608"/>
          <note pan="0" len="19" vol="130" key="63" pos="10608"/>
          <note pan="0" len="20" vol="130" key="67" pos="10632"/>
          <note pan="0" len="19" vol="137" key="62" pos="10632"/>
          <note pan="0" len="20" vol="154" key="71" pos="10656"/>
          <note pan="0" len="19" vol="149" key="63" pos="10656"/>
          <note pan="0" len="20" vol="127" key="67" pos="10680"/>
          <note pan="0" len="19" vol="129" key="62" pos="10680"/>
          <note pan="0" len="24" vol="176" key="67" pos="10704"/>
          <note pan="0" len="22" vol="171" key="55" pos="10704"/>
          <note pan="0" len="21" vol="157" key="71" pos="10705"/>
          <note pan="0" len="20" vol="171" key="59" pos="10705"/>
          <note pan="0" len="21" vol="157" key="74" pos="10706"/>
          <note pan="0" len="20" vol="171" key="62" pos="10706"/>
          <note pan="0" len="21" vol="157" key="79" pos="10708"/>
          <note pan="0" len="14" vol="137" key="51" pos="10752"/>
          <note pan="0" len="19" vol="177" key="24" pos="10752"/>
          <note pan="0" len="19" vol="177" key="12" pos="10752"/>
          <note pan="0" len="11" vol="122" key="55" pos="10764"/>
          <note pan="0" len="10" vol="122" key="60" pos="10776"/>
          <note pan="0" len="5" vol="133" key="63" pos="10788"/>
          <note pan="0" len="13" vol="124" key="67" pos="10800"/>
          <note pan="0" len="6" vol="149" key="43" pos="10800"/>
          <note pan="0" len="6" vol="149" key="39" pos="10800"/>
          <note pan="0" len="6" vol="149" key="36" pos="10800"/>
          <note pan="0" len="12" vol="125" key="75" pos="10812"/>
          <note pan="0" len="6" vol="137" key="43" pos="10812"/>
          <note pan="0" len="6" vol="137" key="39" pos="10812"/>
          <note pan="0" len="6" vol="137" key="36" pos="10812"/>
          <note pan="0" len="5" vol="144" key="79" pos="10824"/>
          <note pan="0" len="6" vol="152" key="43" pos="10824"/>
          <note pan="0" len="6" vol="152" key="39" pos="10824"/>
          <note pan="0" len="6" vol="152" key="36" pos="10824"/>
          <note pan="0" len="7" vol="118" key="48" pos="10836"/>
          <note pan="0" len="4" vol="122" key="51" pos="10848"/>
          <note pan="0" len="6" vol="157" key="36" pos="10848"/>
          <note pan="0" len="6" vol="141" key="43" pos="10851"/>
          <note pan="0" len="43" vol="165" key="51" pos="10854"/>
          <note pan="0" len="11" vol="132" key="55" pos="10860"/>
          <note pan="0" len="10" vol="116" key="60" pos="10872"/>
          <note pan="0" len="5" vol="135" key="63" pos="10884"/>
          <note pan="0" len="13" vol="135" key="67" pos="10896"/>
          <note pan="0" len="12" vol="143" key="75" pos="10908"/>
          <note pan="0" len="5" vol="140" key="79" pos="10920"/>
          <note pan="0" len="8" vol="146" key="39" pos="10920"/>
          <note pan="0" len="7" vol="133" key="48" pos="10932"/>
          <note pan="0" len="8" vol="132" key="41" pos="10932"/>
          <note pan="0" len="14" vol="129" key="51" pos="10944"/>
          <note pan="0" len="20" vol="163" key="43" pos="10944"/>
          <note pan="0" len="11" vol="135" key="55" pos="10956"/>
          <note pan="0" len="10" vol="116" key="60" pos="10968"/>
          <note pan="0" len="18" vol="140" key="39" pos="10968"/>
          <note pan="0" len="5" vol="127" key="63" pos="10980"/>
          <note pan="0" len="13" vol="133" key="67" pos="10992"/>
          <note pan="0" len="18" vol="96" key="36" pos="10992"/>
          <note pan="0" len="12" vol="146" key="75" pos="11004"/>
          <note pan="0" len="5" vol="140" key="79" pos="11016"/>
          <note pan="0" len="12" vol="137" key="43" pos="11016"/>
          <note pan="0" len="7" vol="127" key="47" pos="11028"/>
          <note pan="0" len="6" vol="132" key="40" pos="11038"/>
          <note pan="0" len="14" vol="130" key="50" pos="11040"/>
          <note pan="0" len="25" vol="176" key="41" pos="11044"/>
          <note pan="0" len="11" vol="116" key="53" pos="11052"/>
          <note pan="0" len="10" vol="132" key="59" pos="11064"/>
          <note pan="0" len="6" vol="135" key="38" pos="11064"/>
          <note pan="0" len="5" vol="140" key="62" pos="11076"/>
          <note pan="0" len="13" vol="129" key="65" pos="11088"/>
          <note pan="0" len="6" vol="116" key="35" pos="11088"/>
          <note pan="0" len="12" vol="125" key="74" pos="11100"/>
          <note pan="0" len="5" vol="146" key="77" pos="11112"/>
          <note pan="0" len="6" vol="159" key="31" pos="11112"/>
          <note pan="0" len="7" vol="129" key="48" pos="11124"/>
          <note pan="0" len="14" vol="137" key="51" pos="11136"/>
          <note pan="0" len="33" vol="177" key="24" pos="11136"/>
          <note pan="0" len="33" vol="177" key="12" pos="11136"/>
          <note pan="0" len="11" vol="122" key="55" pos="11148"/>
          <note pan="0" len="10" vol="122" key="60" pos="11160"/>
          <note pan="0" len="5" vol="133" key="63" pos="11172"/>
          <note pan="0" len="13" vol="124" key="67" pos="11184"/>
          <note pan="0" len="6" vol="149" key="43" pos="11184"/>
          <note pan="0" len="6" vol="149" key="39" pos="11184"/>
          <note pan="0" len="6" vol="149" key="36" pos="11184"/>
          <note pan="0" len="12" vol="125" key="75" pos="11196"/>
          <note pan="0" len="6" vol="137" key="43" pos="11196"/>
          <note pan="0" len="6" vol="137" key="39" pos="11196"/>
          <note pan="0" len="6" vol="137" key="36" pos="11196"/>
          <note pan="0" len="5" vol="144" key="79" pos="11208"/>
          <note pan="0" len="6" vol="152" key="43" pos="11208"/>
          <note pan="0" len="6" vol="152" key="39" pos="11208"/>
          <note pan="0" len="6" vol="152" key="36" pos="11208"/>
          <note pan="0" len="7" vol="118" key="48" pos="11220"/>
          <note pan="0" len="4" vol="122" key="51" pos="11232"/>
          <note pan="0" len="6" vol="157" key="36" pos="11232"/>
          <note pan="0" len="6" vol="141" key="43" pos="11235"/>
          <note pan="0" len="43" vol="165" key="51" pos="11238"/>
          <note pan="0" len="11" vol="132" key="55" pos="11244"/>
          <note pan="0" len="10" vol="116" key="60" pos="11256"/>
          <note pan="0" len="5" vol="135" key="63" pos="11268"/>
          <note pan="0" len="13" vol="135" key="67" pos="11280"/>
          <note pan="0" len="12" vol="143" key="75" pos="11292"/>
          <note pan="0" len="5" vol="140" key="79" pos="11304"/>
          <note pan="0" len="8" vol="146" key="39" pos="11304"/>
          <note pan="0" len="7" vol="133" key="48" pos="11316"/>
          <note pan="0" len="8" vol="132" key="41" pos="11316"/>
          <note pan="0" len="14" vol="129" key="51" pos="11328"/>
          <note pan="0" len="20" vol="163" key="43" pos="11328"/>
          <note pan="0" len="11" vol="135" key="55" pos="11340"/>
          <note pan="0" len="10" vol="116" key="60" pos="11352"/>
          <note pan="0" len="18" vol="140" key="39" pos="11352"/>
          <note pan="0" len="5" vol="127" key="63" pos="11364"/>
          <note pan="0" len="13" vol="133" key="67" pos="11376"/>
          <note pan="0" len="18" vol="96" key="36" pos="11376"/>
          <note pan="0" len="12" vol="146" key="75" pos="11388"/>
          <note pan="0" len="5" vol="140" key="79" pos="11400"/>
          <note pan="0" len="10" vol="140" key="24" pos="11400"/>
          <note pan="0" len="7" vol="127" key="47" pos="11412"/>
          <note pan="0" len="14" vol="130" key="50" pos="11424"/>
          <note pan="0" len="18" vol="177" key="23" pos="11424"/>
          <note pan="0" len="18" vol="177" key="11" pos="11424"/>
          <note pan="0" len="11" vol="116" key="53" pos="11436"/>
          <note pan="0" len="10" vol="132" key="59" pos="11448"/>
          <note pan="0" len="10" vol="140" key="29" pos="11448"/>
          <note pan="0" len="5" vol="140" key="62" pos="11460"/>
          <note pan="0" len="40" vol="157" key="55" pos="11470"/>
          <note pan="0" len="40" vol="157" key="59" pos="11472"/>
          <note pan="0" len="37" vol="177" key="31" pos="11472"/>
          <note pan="0" len="37" vol="177" key="19" pos="11472"/>
          <note pan="0" len="36" vol="157" key="62" pos="11473"/>
          <note pan="0" len="33" vol="157" key="65" pos="11474"/>
          <note pan="0" len="14" vol="137" key="51" pos="11520"/>
          <note pan="0" len="19" vol="177" key="24" pos="11520"/>
          <note pan="0" len="19" vol="177" key="12" pos="11520"/>
          <note pan="0" len="11" vol="122" key="55" pos="11532"/>
          <note pan="0" len="10" vol="122" key="60" pos="11544"/>
          <note pan="0" len="5" vol="133" key="63" pos="11556"/>
          <note pan="0" len="13" vol="124" key="67" pos="11568"/>
          <note pan="0" len="6" vol="149" key="43" pos="11568"/>
          <note pan="0" len="6" vol="149" key="39" pos="11568"/>
          <note pan="0" len="6" vol="149" key="36" pos="11568"/>
          <note pan="0" len="12" vol="125" key="75" pos="11580"/>
          <note pan="0" len="6" vol="137" key="43" pos="11580"/>
          <note pan="0" len="6" vol="137" key="39" pos="11580"/>
          <note pan="0" len="6" vol="137" key="36" pos="11580"/>
          <note pan="0" len="5" vol="144" key="79" pos="11592"/>
          <note pan="0" len="6" vol="152" key="43" pos="11592"/>
          <note pan="0" len="6" vol="152" key="39" pos="11592"/>
          <note pan="0" len="6" vol="152" key="36" pos="11592"/>
          <note pan="0" len="7" vol="118" key="48" pos="11604"/>
          <note pan="0" len="4" vol="122" key="51" pos="11616"/>
          <note pan="0" len="6" vol="157" key="36" pos="11616"/>
          <note pan="0" len="6" vol="141" key="43" pos="11619"/>
          <note pan="0" len="43" vol="165" key="51" pos="11622"/>
          <note pan="0" len="11" vol="132" key="55" pos="11628"/>
          <note pan="0" len="10" vol="116" key="60" pos="11640"/>
          <note pan="0" len="5" vol="135" key="63" pos="11652"/>
          <note pan="0" len="13" vol="135" key="67" pos="11664"/>
          <note pan="0" len="12" vol="143" key="75" pos="11676"/>
          <note pan="0" len="5" vol="140" key="79" pos="11688"/>
          <note pan="0" len="8" vol="146" key="39" pos="11688"/>
          <note pan="0" len="7" vol="133" key="48" pos="11700"/>
          <note pan="0" len="8" vol="132" key="41" pos="11700"/>
          <note pan="0" len="14" vol="129" key="51" pos="11712"/>
          <note pan="0" len="20" vol="163" key="43" pos="11712"/>
          <note pan="0" len="11" vol="135" key="55" pos="11724"/>
          <note pan="0" len="10" vol="116" key="60" pos="11736"/>
          <note pan="0" len="18" vol="140" key="39" pos="11736"/>
          <note pan="0" len="5" vol="127" key="63" pos="11748"/>
          <note pan="0" len="13" vol="133" key="67" pos="11760"/>
          <note pan="0" len="18" vol="96" key="36" pos="11760"/>
          <note pan="0" len="12" vol="146" key="75" pos="11772"/>
          <note pan="0" len="5" vol="140" key="79" pos="11784"/>
          <note pan="0" len="12" vol="137" key="43" pos="11784"/>
          <note pan="0" len="7" vol="133" key="49" pos="11796"/>
          <note pan="0" len="6" vol="132" key="43" pos="11806"/>
          <note pan="0" len="14" vol="129" key="53" pos="11808"/>
          <note pan="0" len="25" vol="176" key="44" pos="11812"/>
          <note pan="0" len="11" vol="135" key="56" pos="11820"/>
          <note pan="0" len="10" vol="116" key="61" pos="11832"/>
          <note pan="0" len="6" vol="135" key="41" pos="11832"/>
          <note pan="0" len="5" vol="127" key="65" pos="11844"/>
          <note pan="0" len="13" vol="133" key="68" pos="11856"/>
          <note pan="0" len="6" vol="116" key="37" pos="11856"/>
          <note pan="0" len="12" vol="146" key="77" pos="11868"/>
          <note pan="0" len="5" vol="140" key="80" pos="11880"/>
          <note pan="0" len="6" vol="159" key="34" pos="11880"/>
          <note pan="0" len="7" vol="129" key="48" pos="11892"/>
          <note pan="0" len="14" vol="137" key="51" pos="11904"/>
          <note pan="0" len="33" vol="177" key="24" pos="11904"/>
          <note pan="0" len="33" vol="177" key="12" pos="11904"/>
          <note pan="0" len="11" vol="122" key="55" pos="11916"/>
          <note pan="0" len="10" vol="122" key="60" pos="11928"/>
          <note pan="0" len="5" vol="133" key="63" pos="11940"/>
          <note pan="0" len="13" vol="124" key="67" pos="11952"/>
          <note pan="0" len="6" vol="149" key="43" pos="11952"/>
          <note pan="0" len="6" vol="149" key="39" pos="11952"/>
          <note pan="0" len="6" vol="149" key="36" pos="11952"/>
          <note pan="0" len="12" vol="125" key="75" pos="11964"/>
          <note pan="0" len="6" vol="137" key="43" pos="11964"/>
          <note pan="0" len="6" vol="137" key="39" pos="11964"/>
          <note pan="0" len="6" vol="137" key="36" pos="11964"/>
          <note pan="0" len="5" vol="144" key="79" pos="11976"/>
          <note pan="0" len="6" vol="152" key="43" pos="11976"/>
          <note pan="0" len="6" vol="152" key="39" pos="11976"/>
          <note pan="0" len="6" vol="152" key="36" pos="11976"/>
          <note pan="0" len="7" vol="118" key="48" pos="11988"/>
          <note pan="0" len="4" vol="122" key="51" pos="12000"/>
          <note pan="0" len="6" vol="157" key="36" pos="12000"/>
          <note pan="0" len="6" vol="141" key="43" pos="12003"/>
          <note pan="0" len="43" vol="165" key="51" pos="12006"/>
          <note pan="0" len="11" vol="132" key="55" pos="12012"/>
          <note pan="0" len="10" vol="116" key="60" pos="12024"/>
          <note pan="0" len="5" vol="135" key="63" pos="12036"/>
          <note pan="0" len="13" vol="135" key="67" pos="12048"/>
          <note pan="0" len="12" vol="143" key="75" pos="12060"/>
          <note pan="0" len="5" vol="140" key="79" pos="12072"/>
          <note pan="0" len="7" vol="133" key="48" pos="12084"/>
          <note pan="0" len="12" vol="162" key="84" pos="12096"/>
          <note pan="0" len="12" vol="146" key="75" pos="12096"/>
          <note pan="0" len="18" vol="177" key="24" pos="12096"/>
          <note pan="0" len="18" vol="177" key="12" pos="12096"/>
          <note pan="0" len="12" vol="140" key="84" pos="12132"/>
          <note pan="0" len="12" vol="130" key="75" pos="12132"/>
          <note pan="0" len="15" vol="133" key="43" pos="12132"/>
          <note pan="0" len="15" vol="137" key="39" pos="12132"/>
          <note pan="0" len="15" vol="125" key="36" pos="12132"/>
          <note pan="0" len="12" vol="146" key="84" pos="12168"/>
          <note pan="0" len="12" vol="151" key="75" pos="12168"/>
          <note pan="0" len="15" vol="144" key="43" pos="12168"/>
          <note pan="0" len="15" vol="138" key="39" pos="12168"/>
          <note pan="0" len="15" vol="144" key="36" pos="12168"/>
          <note pan="0" len="12" vol="129" key="84" pos="12204"/>
          <note pan="0" len="12" vol="146" key="75" pos="12204"/>
          <note pan="0" len="15" vol="141" key="43" pos="12204"/>
          <note pan="0" len="15" vol="130" key="39" pos="12204"/>
          <note pan="0" len="15" vol="105" key="36" pos="12204"/>
          <note pan="0" len="12" vol="159" key="84" pos="12240"/>
          <note pan="0" len="12" vol="154" key="75" pos="12240"/>
          <note pan="0" len="15" vol="118" key="43" pos="12240"/>
          <note pan="0" len="15" vol="124" key="39" pos="12240"/>
          <note pan="0" len="15" vol="149" key="36" pos="12240"/>
          <note pan="0" len="12" vol="97" key="36" pos="12288"/>
          <note pan="0" len="11" vol="97" key="31" pos="12288"/>
          <note pan="0" len="11" vol="103" key="27" pos="12288"/>
          <note pan="0" len="16" vol="143" key="24" pos="12288"/>
          <note pan="0" len="16" vol="143" key="12" pos="12288"/>
          <note pan="0" len="11" vol="85" key="36" pos="12312"/>
          <note pan="0" len="13" vol="94" key="27" pos="12312"/>
          <note pan="0" len="146" vol="129" key="24" pos="12312"/>
          <note pan="0" len="146" vol="129" key="12" pos="12312"/>
          <note pan="0" len="11" vol="88" key="31" pos="12314"/>
          <note pan="0" len="11" vol="96" key="31" pos="12336"/>
          <note pan="0" len="13" vol="89" key="27" pos="12336"/>
          <note pan="0" len="11" vol="85" key="36" pos="12337"/>
          <note pan="0" len="13" vol="77" key="36" pos="12360"/>
          <note pan="0" len="11" vol="92" key="31" pos="12361"/>
          <note pan="0" len="11" vol="99" key="27" pos="12362"/>
          <note pan="0" len="8" vol="94" key="36" pos="12384"/>
          <note pan="0" len="13" vol="92" key="27" pos="12384"/>
          <note pan="0" len="11" vol="86" key="31" pos="12386"/>
          <note pan="0" len="9" vol="88" key="36" pos="12408"/>
          <note pan="0" len="10" vol="80" key="31" pos="12408"/>
          <note pan="0" len="6" vol="91" key="27" pos="12408"/>
          <note pan="0" len="14" vol="94" key="36" pos="12432"/>
          <note pan="0" len="11" vol="81" key="31" pos="12433"/>
          <note pan="0" len="8" vol="97" key="27" pos="12435"/>
          <note pan="0" len="14" vol="83" key="36" pos="12456"/>
          <note pan="0" len="11" vol="91" key="31" pos="12456"/>
          <note pan="0" len="11" vol="92" key="27" pos="12456"/>
          <note pan="0" len="12" vol="97" key="36" pos="12480"/>
          <note pan="0" len="11" vol="97" key="31" pos="12480"/>
          <note pan="0" len="11" vol="103" key="27" pos="12480"/>
          <note pan="0" len="13" vol="94" key="39" pos="12504"/>
          <note pan="0" len="11" vol="85" key="36" pos="12504"/>
          <note pan="0" len="58" vol="129" key="24" pos="12504"/>
          <note pan="0" len="58" vol="129" key="12" pos="12504"/>
          <note pan="0" len="11" vol="88" key="31" pos="12506"/>
          <note pan="0" len="13" vol="89" key="39" pos="12528"/>
          <note pan="0" len="11" vol="96" key="31" pos="12528"/>
          <note pan="0" len="11" vol="85" key="36" pos="12529"/>
          <note pan="0" len="13" vol="77" key="36" pos="12552"/>
          <note pan="0" len="11" vol="92" key="31" pos="12553"/>
          <note pan="0" len="11" vol="99" key="39" pos="12554"/>
          <note pan="0" len="13" vol="92" key="39" pos="12576"/>
          <note pan="0" len="8" vol="94" key="36" pos="12576"/>
          <note pan="0" len="14" vol="129" key="24" pos="12576"/>
          <note pan="0" len="14" vol="129" key="12" pos="12576"/>
          <note pan="0" len="11" vol="86" key="31" pos="12578"/>
          <note pan="0" len="6" vol="91" key="39" pos="12600"/>
          <note pan="0" len="9" vol="88" key="36" pos="12600"/>
          <note pan="0" len="10" vol="80" key="31" pos="12600"/>
          <note pan="0" len="47" vol="129" key="24" pos="12600"/>
          <note pan="0" len="47" vol="129" key="12" pos="12600"/>
          <note pan="0" len="14" vol="94" key="36" pos="12624"/>
          <note pan="0" len="11" vol="81" key="31" pos="12625"/>
          <note pan="0" len="8" vol="97" key="39" pos="12627"/>
          <note pan="0" len="11" vol="92" key="39" pos="12648"/>
          <note pan="0" len="14" vol="83" key="36" pos="12648"/>
          <note pan="0" len="11" vol="91" key="31" pos="12648"/>
          <note pan="0" len="13" vol="94" key="39" pos="12672"/>
          <note pan="0" len="11" vol="85" key="36" pos="12672"/>
          <note pan="0" len="228" vol="129" key="24" pos="12672"/>
          <note pan="0" len="11" vol="88" key="31" pos="12674"/>
          <note pan="0" len="11" vol="96" key="43" pos="12696"/>
          <note pan="0" len="13" vol="89" key="39" pos="12696"/>
          <note pan="0" len="11" vol="85" key="36" pos="12697"/>
          <note pan="0" len="13" vol="77" key="36" pos="12720"/>
          <note pan="0" len="11" vol="92" key="43" pos="12721"/>
          <note pan="0" len="11" vol="99" key="39" pos="12722"/>
          <note pan="0" len="8" vol="94" key="48" pos="12744"/>
          <note pan="0" len="13" vol="92" key="39" pos="12744"/>
          <note pan="0" len="8" vol="94" key="36" pos="12744"/>
          <note pan="0" len="11" vol="86" key="43" pos="12746"/>
          <note pan="0" len="10" vol="80" key="43" pos="12768"/>
          <note pan="0" len="6" vol="91" key="39" pos="12768"/>
          <note pan="0" len="9" vol="88" key="36" pos="12768"/>
          <note pan="0" len="14" vol="94" key="36" pos="12792"/>
          <note pan="0" len="11" vol="81" key="43" pos="12793"/>
          <note pan="0" len="8" vol="97" key="39" pos="12795"/>
          <note pan="0" len="11" vol="91" key="43" pos="12816"/>
          <note pan="0" len="11" vol="92" key="39" pos="12816"/>
          <note pan="0" len="14" vol="83" key="36" pos="12816"/>
          <note pan="0" len="8" vol="94" key="48" pos="12840"/>
          <note pan="0" len="13" vol="92" key="39" pos="12840"/>
          <note pan="0" len="8" vol="94" key="36" pos="12840"/>
          <note pan="0" len="11" vol="86" key="43" pos="12842"/>
          <note pan="0" len="10" vol="80" key="43" pos="12864"/>
          <note pan="0" len="6" vol="91" key="39" pos="12864"/>
          <note pan="0" len="9" vol="88" key="36" pos="12864"/>
          <note pan="0" len="14" vol="94" key="36" pos="12888"/>
          <note pan="0" len="11" vol="81" key="43" pos="12889"/>
          <note pan="0" len="8" vol="97" key="39" pos="12891"/>
          <note pan="0" len="11" vol="91" key="43" pos="12912"/>
          <note pan="0" len="11" vol="92" key="39" pos="12912"/>
          <note pan="0" len="14" vol="83" key="36" pos="12912"/>
          <note pan="0" len="8" vol="94" key="48" pos="12936"/>
          <note pan="0" len="13" vol="92" key="39" pos="12936"/>
          <note pan="0" len="8" vol="94" key="36" pos="12936"/>
          <note pan="0" len="20" vol="89" key="31" pos="12936"/>
          <note pan="0" len="11" vol="86" key="43" pos="12938"/>
          <note pan="0" len="10" vol="80" key="43" pos="12960"/>
          <note pan="0" len="6" vol="91" key="39" pos="12960"/>
          <note pan="0" len="9" vol="88" key="36" pos="12960"/>
          <note pan="0" len="14" vol="94" key="36" pos="12984"/>
          <note pan="0" len="20" vol="89" key="31" pos="12984"/>
          <note pan="0" len="11" vol="81" key="43" pos="12985"/>
          <note pan="0" len="8" vol="97" key="39" pos="12987"/>
          <note pan="0" len="11" vol="91" key="43" pos="13008"/>
          <note pan="0" len="11" vol="92" key="39" pos="13008"/>
          <note pan="0" len="14" vol="83" key="36" pos="13008"/>
          <note pan="0" len="8" vol="94" key="48" pos="13032"/>
          <note pan="0" len="13" vol="92" key="39" pos="13032"/>
          <note pan="0" len="8" vol="94" key="36" pos="13032"/>
          <note pan="0" len="20" vol="89" key="31" pos="13032"/>
          <note pan="0" len="11" vol="86" key="43" pos="13034"/>
          <note pan="0" len="39" vol="116" key="62" pos="13056"/>
          <note pan="0" len="36" vol="137" key="24" pos="13056"/>
          <note pan="0" len="26" vol="107" key="63" pos="13104"/>
          <note pan="0" len="14" vol="118" key="39" pos="13104"/>
          <note pan="0" len="14" vol="119" key="36" pos="13104"/>
          <note pan="0" len="15" vol="124" key="31" pos="13106"/>
          <note pan="0" len="44" vol="114" key="62" pos="13128"/>
          <note pan="0" len="35" vol="124" key="24" pos="13128"/>
          <note pan="0" len="25" vol="100" key="67" pos="13176"/>
          <note pan="0" len="12" vol="111" key="24" pos="13176"/>
          <note pan="0" len="36" vol="110" key="63" pos="13200"/>
          <note pan="0" len="27" vol="121" key="39" pos="13200"/>
          <note pan="0" len="27" vol="118" key="36" pos="13200"/>
          <note pan="0" len="31" vol="114" key="31" pos="13200"/>
          <note pan="0" len="17" vol="119" key="71" pos="13248"/>
          <note pan="0" len="36" vol="122" key="24" pos="13248"/>
          <note pan="0" len="17" vol="105" key="67" pos="13272"/>
          <note pan="0" len="17" vol="114" key="63" pos="13296"/>
          <note pan="0" len="14" vol="116" key="39" pos="13296"/>
          <note pan="0" len="14" vol="121" key="36" pos="13296"/>
          <note pan="0" len="15" vol="118" key="31" pos="13298"/>
          <note pan="0" len="17" vol="107" key="62" pos="13320"/>
          <note pan="0" len="35" vol="135" key="24" pos="13320"/>
          <note pan="0" len="17" vol="100" key="71" pos="13344"/>
          <note pan="0" len="17" vol="105" key="67" pos="13368"/>
          <note pan="0" len="12" vol="113" key="24" pos="13368"/>
          <note pan="0" len="17" vol="111" key="63" pos="13392"/>
          <note pan="0" len="27" vol="114" key="39" pos="13392"/>
          <note pan="0" len="27" vol="118" key="36" pos="13392"/>
          <note pan="0" len="31" vol="122" key="31" pos="13392"/>
          <note pan="0" len="17" vol="118" key="62" pos="13416"/>
          <note pan="0" len="17" vol="121" key="71" pos="13440"/>
          <note pan="0" len="301" vol="127" key="24" pos="13440"/>
          <note pan="0" len="17" vol="94" key="67" pos="13464"/>
          <note pan="0" len="29" vol="103" key="31" pos="13464"/>
          <note pan="0" len="17" vol="100" key="63" pos="13488"/>
          <note pan="0" len="17" vol="121" key="62" pos="13512"/>
          <note pan="0" len="29" vol="97" key="31" pos="13512"/>
          <note pan="0" len="17" vol="102" key="71" pos="13536"/>
          <note pan="0" len="17" vol="113" key="67" pos="13560"/>
          <note pan="0" len="29" vol="96" key="31" pos="13560"/>
          <note pan="0" len="17" vol="103" key="63" pos="13584"/>
          <note pan="0" len="17" vol="111" key="62" pos="13608"/>
          <note pan="0" len="29" vol="102" key="31" pos="13608"/>
          <note pan="0" len="17" vol="121" key="71" pos="13632"/>
          <note pan="0" len="17" vol="110" key="67" pos="13656"/>
          <note pan="0" len="29" vol="107" key="31" pos="13656"/>
          <note pan="0" len="17" vol="102" key="63" pos="13680"/>
          <note pan="0" len="17" vol="105" key="62" pos="13704"/>
          <note pan="0" len="29" vol="103" key="31" pos="13704"/>
          <note pan="0" len="17" vol="116" key="71" pos="13728"/>
          <note pan="0" len="17" vol="110" key="67" pos="13752"/>
          <note pan="0" len="29" vol="119" key="24" pos="13752"/>
          <note pan="0" len="29" vol="119" key="12" pos="13752"/>
          <note pan="0" len="17" vol="114" key="63" pos="13776"/>
          <note pan="0" len="17" vol="105" key="62" pos="13800"/>
          <note pan="0" len="16" vol="127" key="24" pos="13800"/>
          <note pan="0" len="16" vol="127" key="12" pos="13800"/>
          <note pan="0" len="17" vol="121" key="71" pos="13824"/>
          <note pan="0" len="29" vol="130" key="36" pos="13824"/>
          <note pan="0" len="29" vol="130" key="27" pos="13824"/>
          <note pan="0" len="17" vol="94" key="67" pos="13848"/>
          <note pan="0" len="17" vol="100" key="63" pos="13872"/>
          <note pan="0" len="21" vol="100" key="24" pos="13872"/>
          <note pan="0" len="17" vol="121" key="62" pos="13896"/>
          <note pan="0" len="21" vol="125" key="36" pos="13896"/>
          <note pan="0" len="21" vol="125" key="27" pos="13896"/>
          <note pan="0" len="17" vol="102" key="71" pos="13920"/>
          <note pan="0" len="17" vol="113" key="67" pos="13944"/>
          <note pan="0" len="21" vol="103" key="36" pos="13944"/>
          <note pan="0" len="21" vol="103" key="27" pos="13944"/>
          <note pan="0" len="17" vol="103" key="63" pos="13968"/>
          <note pan="0" len="21" vol="125" key="24" pos="13968"/>
          <note pan="0" len="17" vol="111" key="62" pos="13992"/>
          <note pan="0" len="17" vol="121" key="71" pos="14016"/>
          <note pan="0" len="32" vol="132" key="35" pos="14016"/>
          <note pan="0" len="32" vol="132" key="26" pos="14016"/>
          <note pan="0" len="17" vol="110" key="67" pos="14040"/>
          <note pan="0" len="17" vol="102" key="63" pos="14064"/>
          <note pan="0" len="21" vol="102" key="23" pos="14064"/>
          <note pan="0" len="17" vol="105" key="62" pos="14088"/>
          <note pan="0" len="17" vol="116" key="71" pos="14112"/>
          <note pan="0" len="21" vol="130" key="35" pos="14112"/>
          <note pan="0" len="21" vol="130" key="26" pos="14112"/>
          <note pan="0" len="17" vol="110" key="67" pos="14136"/>
          <note pan="0" len="17" vol="114" key="63" pos="14160"/>
          <note pan="0" len="21" vol="110" key="23" pos="14160"/>
          <note pan="0" len="17" vol="105" key="62" pos="14184"/>
          <note pan="0" len="15" vol="125" key="71" pos="14208"/>
          <note pan="0" len="13" vol="118" key="63" pos="14208"/>
          <note pan="0" len="20" vol="127" key="47" pos="14208"/>
          <note pan="0" len="15" vol="111" key="67" pos="14232"/>
          <note pan="0" len="13" vol="111" key="62" pos="14232"/>
          <note pan="0" len="20" vol="116" key="43" pos="14232"/>
          <note pan="0" len="15" vol="113" key="71" pos="14256"/>
          <note pan="0" len="13" vol="103" key="63" pos="14256"/>
          <note pan="0" len="20" vol="122" key="47" pos="14256"/>
          <note pan="0" len="15" vol="105" key="67" pos="14280"/>
          <note pan="0" len="13" vol="110" key="62" pos="14280"/>
          <note pan="0" len="20" vol="105" key="43" pos="14280"/>
          <note pan="0" len="15" vol="113" key="71" pos="14304"/>
          <note pan="0" len="13" vol="97" key="63" pos="14304"/>
          <note pan="0" len="20" vol="114" key="47" pos="14304"/>
          <note pan="0" len="15" vol="121" key="67" pos="14328"/>
          <note pan="0" len="13" vol="108" key="62" pos="14328"/>
          <note pan="0" len="20" vol="94" key="43" pos="14328"/>
          <note pan="0" len="15" vol="111" key="71" pos="14352"/>
          <note pan="0" len="13" vol="110" key="63" pos="14352"/>
          <note pan="0" len="20" vol="110" key="47" pos="14352"/>
          <note pan="0" len="15" vol="102" key="67" pos="14376"/>
          <note pan="0" len="13" vol="103" key="62" pos="14376"/>
          <note pan="0" len="20" vol="116" key="43" pos="14376"/>
          <note pan="0" len="15" vol="110" key="71" pos="14400"/>
          <note pan="0" len="13" vol="97" key="63" pos="14400"/>
          <note pan="0" len="20" vol="133" key="47" pos="14400"/>
          <note pan="0" len="15" vol="116" key="67" pos="14424"/>
          <note pan="0" len="13" vol="99" key="62" pos="14424"/>
          <note pan="0" len="20" vol="100" key="43" pos="14424"/>
          <note pan="0" len="15" vol="110" key="71" pos="14448"/>
          <note pan="0" len="13" vol="99" key="63" pos="14448"/>
          <note pan="0" len="20" vol="119" key="47" pos="14448"/>
          <note pan="0" len="15" vol="105" key="67" pos="14472"/>
          <note pan="0" len="13" vol="96" key="62" pos="14472"/>
          <note pan="0" len="20" vol="97" key="43" pos="14472"/>
          <note pan="0" len="15" vol="94" key="71" pos="14496"/>
          <note pan="0" len="13" vol="81" key="63" pos="14496"/>
          <note pan="0" len="20" vol="129" key="47" pos="14496"/>
          <note pan="0" len="15" vol="91" key="67" pos="14520"/>
          <note pan="0" len="13" vol="86" key="62" pos="14520"/>
          <note pan="0" len="20" vol="111" key="43" pos="14520"/>
          <note pan="0" len="13" vol="80" key="63" pos="14544"/>
          <note pan="0" len="20" vol="135" key="47" pos="14544"/>
          <note pan="0" len="15" vol="86" key="67" pos="14546"/>
          <note pan="0" len="15" vol="86" key="71" pos="14549"/>
          <note pan="0" len="261" vol="132" key="60" pos="14592"/>
          <note pan="0" len="261" vol="132" key="48" pos="14592"/>
          <note pan="0" len="36" vol="141" key="24" pos="14592"/>
          <note pan="0" len="16" vol="127" key="39" pos="14640"/>
          <note pan="0" len="22" vol="124" key="36" pos="14640"/>
          <note pan="0" len="21" vol="118" key="31" pos="14640"/>
          <note pan="0" len="33" vol="124" key="27" pos="14688"/>
          <note pan="0" len="16" vol="127" key="39" pos="14736"/>
          <note pan="0" len="22" vol="124" key="36" pos="14736"/>
          <note pan="0" len="21" vol="118" key="31" pos="14736"/>
          <note pan="0" len="18" vol="141" key="24" pos="14784"/>
          <note pan="0" len="14" vol="99" key="39" pos="14808"/>
          <note pan="0" len="14" vol="99" key="36" pos="14808"/>
          <note pan="0" len="13" vol="99" key="31" pos="14808"/>
          <note pan="0" len="14" vol="89" key="39" pos="14832"/>
          <note pan="0" len="14" vol="89" key="36" pos="14832"/>
          <note pan="0" len="13" vol="89" key="31" pos="14832"/>
          <note pan="0" len="14" vol="102" key="43" pos="14856"/>
          <note pan="0" len="14" vol="102" key="39" pos="14856"/>
          <note pan="0" len="14" vol="102" key="36" pos="14856"/>
          <note pan="0" len="13" vol="102" key="31" pos="14856"/>
          <note pan="0" len="70" vol="125" key="54" pos="14880"/>
          <note pan="0" len="70" vol="125" key="42" pos="14880"/>
          <note pan="0" len="14" vol="91" key="39" pos="14880"/>
          <note pan="0" len="14" vol="91" key="36" pos="14880"/>
          <note pan="0" len="13" vol="91" key="31" pos="14880"/>
          <note pan="0" len="14" vol="91" key="39" pos="14904"/>
          <note pan="0" len="14" vol="91" key="36" pos="14904"/>
          <note pan="0" len="13" vol="91" key="31" pos="14904"/>
          <note pan="0" len="14" vol="130" key="39" pos="14928"/>
          <note pan="0" len="14" vol="130" key="36" pos="14928"/>
          <note pan="0" len="13" vol="130" key="31" pos="14928"/>
          <note pan="0" len="161" vol="129" key="55" pos="14976"/>
          <note pan="0" len="161" vol="129" key="43" pos="14976"/>
          <note pan="0" len="36" vol="141" key="20" pos="14976"/>
          <note pan="0" len="16" vol="127" key="36" pos="15024"/>
          <note pan="0" len="22" vol="124" key="32" pos="15024"/>
          <note pan="0" len="21" vol="118" key="27" pos="15024"/>
          <note pan="0" len="33" vol="124" key="24" pos="15072"/>
          <note pan="0" len="16" vol="127" key="36" pos="15120"/>
          <note pan="0" len="22" vol="124" key="32" pos="15120"/>
          <note pan="0" len="21" vol="118" key="27" pos="15120"/>
          <note pan="0" len="164" vol="138" key="49" pos="15168"/>
          <note pan="0" len="164" vol="138" key="37" pos="15168"/>
          <note pan="0" len="36" vol="141" key="25" pos="15168"/>
          <note pan="0" len="16" vol="127" key="41" pos="15216"/>
          <note pan="0" len="22" vol="124" key="37" pos="15216"/>
          <note pan="0" len="20" vol="118" key="32" pos="15216"/>
          <note pan="0" len="22" vol="124" key="29" pos="15240"/>
          <note pan="0" len="23" vol="118" key="29" pos="15288"/>
          <note pan="0" len="23" vol="141" key="25" pos="15312"/>
          <note pan="0" len="23" vol="141" key="13" pos="15312"/>
          <note pan="0" len="77" vol="146" key="48" pos="15360"/>
          <note pan="0" len="74" vol="110" key="43" pos="15360"/>
          <note pan="0" len="77" vol="146" key="36" pos="15360"/>
          <note pan="0" len="36" vol="143" key="24" pos="15360"/>
          <note pan="0" len="38" vol="143" key="12" pos="15360"/>
          <note pan="0" len="16" vol="127" key="39" pos="15408"/>
          <note pan="0" len="22" vol="124" key="36" pos="15408"/>
          <note pan="0" len="21" vol="118" key="31" pos="15408"/>
          <note pan="0" len="82" vol="130" key="60" pos="15456"/>
          <note pan="0" len="74" vol="121" key="55" pos="15456"/>
          <note pan="0" len="74" vol="121" key="51" pos="15456"/>
          <note pan="0" len="82" vol="130" key="48" pos="15456"/>
          <note pan="0" len="33" vol="124" key="27" pos="15456"/>
          <note pan="0" len="16" vol="127" key="39" pos="15504"/>
          <note pan="0" len="22" vol="124" key="36" pos="15504"/>
          <note pan="0" len="21" vol="118" key="31" pos="15504"/>
          <note pan="0" len="82" vol="124" key="72" pos="15552"/>
          <note pan="0" len="74" vol="121" key="67" pos="15552"/>
          <note pan="0" len="74" vol="121" key="63" pos="15552"/>
          <note pan="0" len="82" vol="124" key="60" pos="15552"/>
          <note pan="0" len="18" vol="141" key="24" pos="15552"/>
          <note pan="0" len="14" vol="99" key="39" pos="15576"/>
          <note pan="0" len="14" vol="99" key="36" pos="15576"/>
          <note pan="0" len="13" vol="99" key="31" pos="15576"/>
          <note pan="0" len="14" vol="89" key="39" pos="15600"/>
          <note pan="0" len="14" vol="89" key="36" pos="15600"/>
          <note pan="0" len="13" vol="89" key="31" pos="15600"/>
          <note pan="0" len="14" vol="102" key="43" pos="15624"/>
          <note pan="0" len="14" vol="102" key="39" pos="15624"/>
          <note pan="0" len="14" vol="102" key="36" pos="15624"/>
          <note pan="0" len="13" vol="102" key="31" pos="15624"/>
          <note pan="0" len="82" vol="133" key="66" pos="15648"/>
          <note pan="0" len="82" vol="133" key="54" pos="15648"/>
          <note pan="0" len="14" vol="91" key="39" pos="15648"/>
          <note pan="0" len="14" vol="91" key="36" pos="15648"/>
          <note pan="0" len="13" vol="91" key="31" pos="15648"/>
          <note pan="0" len="14" vol="91" key="39" pos="15672"/>
          <note pan="0" len="14" vol="91" key="36" pos="15672"/>
          <note pan="0" len="13" vol="91" key="31" pos="15672"/>
          <note pan="0" len="14" vol="130" key="39" pos="15696"/>
          <note pan="0" len="14" vol="130" key="36" pos="15696"/>
          <note pan="0" len="13" vol="130" key="31" pos="15696"/>
          <note pan="0" len="167" vol="140" key="67" pos="15744"/>
          <note pan="0" len="159" vol="121" key="63" pos="15744"/>
          <note pan="0" len="164" vol="121" key="60" pos="15744"/>
          <note pan="0" len="167" vol="140" key="55" pos="15744"/>
          <note pan="0" len="36" vol="141" key="20" pos="15744"/>
          <note pan="0" len="16" vol="127" key="36" pos="15792"/>
          <note pan="0" len="22" vol="124" key="32" pos="15792"/>
          <note pan="0" len="21" vol="118" key="27" pos="15792"/>
          <note pan="0" len="33" vol="124" key="24" pos="15840"/>
          <note pan="0" len="16" vol="127" key="36" pos="15888"/>
          <note pan="0" len="22" vol="124" key="32" pos="15888"/>
          <note pan="0" len="21" vol="118" key="27" pos="15888"/>
          <note pan="0" len="170" vol="129" key="61" pos="15931"/>
          <note pan="0" len="164" vol="121" key="65" pos="15935"/>
          <note pan="0" len="164" vol="121" key="68" pos="15936"/>
          <note pan="0" len="36" vol="141" key="25" pos="15936"/>
          <note pan="0" len="167" vol="129" key="73" pos="15939"/>
          <note pan="0" len="16" vol="127" key="41" pos="15984"/>
          <note pan="0" len="22" vol="124" key="37" pos="15984"/>
          <note pan="0" len="20" vol="118" key="32" pos="15984"/>
          <note pan="0" len="22" vol="124" key="29" pos="16008"/>
          <note pan="0" len="23" vol="118" key="29" pos="16056"/>
          <note pan="0" len="23" vol="141" key="25" pos="16080"/>
          <note pan="0" len="23" vol="141" key="13" pos="16080"/>
          <note pan="0" len="24" vol="137" key="60" pos="16122"/>
          <note pan="0" len="22" vol="121" key="63" pos="16127"/>
          <note pan="0" len="33" vol="141" key="24" pos="16128"/>
          <note pan="0" len="33" vol="141" key="12" pos="16128"/>
          <note pan="0" len="20" vol="121" key="67" pos="16133"/>
          <note pan="0" len="17" vol="137" key="72" pos="16138"/>
          <note pan="0" len="17" vol="133" key="39" pos="16176"/>
          <note pan="0" len="15" vol="133" key="36" pos="16176"/>
          <note pan="0" len="17" vol="133" key="31" pos="16176"/>
          <note pan="0" len="12" vol="138" key="48" pos="16224"/>
          <note pan="0" len="22" vol="113" key="27" pos="16224"/>
          <note pan="0" len="12" vol="118" key="51" pos="16236"/>
          <note pan="0" len="12" vol="125" key="55" pos="16248"/>
          <note pan="0" len="20" vol="102" key="24" pos="16248"/>
          <note pan="0" len="12" vol="110" key="60" pos="16260"/>
          <note pan="0" len="12" vol="113" key="63" pos="16272"/>
          <note pan="0" len="20" vol="135" key="31" pos="16272"/>
          <note pan="0" len="19" vol="135" key="36" pos="16274"/>
          <note pan="0" len="12" vol="122" key="67" pos="16284"/>
          <note pan="0" len="12" vol="137" key="72" pos="16296"/>
          <note pan="0" len="12" vol="135" key="75" pos="16308"/>
          <note pan="0" len="12" vol="113" key="43" pos="16320"/>
          <note pan="0" len="21" vol="129" key="24" pos="16320"/>
          <note pan="0" len="12" vol="116" key="48" pos="16332"/>
          <note pan="0" len="12" vol="132" key="51" pos="16344"/>
          <note pan="0" len="20" vol="111" key="27" pos="16344"/>
          <note pan="0" len="12" vol="121" key="48" pos="16356"/>
          <note pan="0" len="12" vol="113" key="51" pos="16368"/>
          <note pan="0" len="19" vol="119" key="31" pos="16368"/>
          <note pan="0" len="12" vol="124" key="55" pos="16380"/>
          <note pan="0" len="12" vol="133" key="60" pos="16392"/>
          <note pan="0" len="23" vol="100" key="27" pos="16392"/>
          <note pan="0" len="12" vol="127" key="51" pos="16404"/>
          <note pan="0" len="12" vol="130" key="55" pos="16416"/>
          <note pan="0" len="26" vol="144" key="36" pos="16416"/>
          <note pan="0" len="12" vol="133" key="60" pos="16428"/>
          <note pan="0" len="12" vol="138" key="63" pos="16440"/>
          <note pan="0" len="20" vol="108" key="31" pos="16440"/>
          <note pan="0" len="12" vol="129" key="67" pos="16452"/>
          <note pan="0" len="12" vol="111" key="59" pos="16464"/>
          <note pan="0" len="20" vol="124" key="27" pos="16464"/>
          <note pan="0" len="12" vol="130" key="62" pos="16476"/>
          <note pan="0" len="12" vol="141" key="67" pos="16488"/>
          <note pan="0" len="7" vol="116" key="24" pos="16488"/>
          <note pan="0" len="12" vol="137" key="71" pos="16500"/>
          <note pan="0" len="12" vol="132" key="63" pos="16512"/>
          <note pan="0" len="33" vol="141" key="20" pos="16512"/>
          <note pan="0" len="33" vol="141" key="8" pos="16512"/>
          <note pan="0" len="12" vol="114" key="60" pos="16524"/>
          <note pan="0" len="12" vol="135" key="56" pos="16536"/>
          <note pan="0" len="12" vol="118" key="63" pos="16548"/>
          <note pan="0" len="12" vol="127" key="60" pos="16560"/>
          <note pan="0" len="29" vol="133" key="35" pos="16560"/>
          <note pan="0" len="18" vol="133" key="27" pos="16560"/>
          <note pan="0" len="15" vol="133" key="32" pos="16562"/>
          <note pan="0" len="12" vol="132" key="56" pos="16572"/>
          <note pan="0" len="12" vol="122" key="60" pos="16584"/>
          <note pan="0" len="12" vol="135" key="63" pos="16596"/>
          <note pan="0" len="12" vol="129" key="68" pos="16608"/>
          <note pan="0" len="15" vol="113" key="23" pos="16608"/>
          <note pan="0" len="12" vol="121" key="63" pos="16620"/>
          <note pan="0" len="12" vol="129" key="56" pos="16632"/>
          <note pan="0" len="18" vol="102" key="20" pos="16632"/>
          <note pan="0" len="12" vol="121" key="60" pos="16644"/>
          <note pan="0" len="12" vol="108" key="63" pos="16656"/>
          <note pan="0" len="23" vol="135" key="27" pos="16656"/>
          <note pan="0" len="15" vol="135" key="32" pos="16658"/>
          <note pan="0" len="12" vol="116" key="60" pos="16668"/>
          <note pan="0" len="12" vol="118" key="56" pos="16680"/>
          <note pan="0" len="12" vol="129" key="62" pos="16692"/>
          <note pan="0" len="12" vol="133" key="61" pos="16704"/>
          <note pan="0" len="33" vol="141" key="25" pos="16704"/>
          <note pan="0" len="33" vol="141" key="13" pos="16704"/>
          <note pan="0" len="12" vol="124" key="56" pos="16716"/>
          <note pan="0" len="12" vol="146" key="53" pos="16728"/>
          <note pan="0" len="12" vol="138" key="56" pos="16740"/>
          <note pan="0" len="12" vol="140" key="53" pos="16752"/>
          <note pan="0" len="22" vol="119" key="32" pos="16752"/>
          <note pan="0" len="12" vol="130" key="56" pos="16764"/>
          <note pan="0" len="12" vol="129" key="61" pos="16776"/>
          <note pan="0" len="20" vol="100" key="29" pos="16776"/>
          <note pan="0" len="12" vol="138" key="65" pos="16788"/>
          <note pan="0" len="12" vol="135" key="61" pos="16800"/>
          <note pan="0" len="15" vol="144" key="37" pos="16800"/>
          <note pan="0" len="18" vol="127" key="41" pos="16801"/>
          <note pan="0" len="12" vol="124" key="56" pos="16812"/>
          <note pan="0" len="12" vol="130" key="53" pos="16824"/>
          <note pan="0" len="16" vol="108" key="32" pos="16824"/>
          <note pan="0" len="12" vol="129" key="56" pos="16836"/>
          <note pan="0" len="12" vol="125" key="61" pos="16848"/>
          <note pan="0" len="20" vol="124" key="29" pos="16848"/>
          <note pan="0" len="12" vol="121" key="56" pos="16860"/>
          <note pan="0" len="12" vol="124" key="61" pos="16872"/>
          <note pan="0" len="13" vol="116" key="25" pos="16872"/>
          <note pan="0" len="12" vol="137" key="53" pos="16884"/>
          <note pan="0" len="12" vol="121" key="48" pos="16896"/>
          <note pan="0" len="33" vol="141" key="24" pos="16896"/>
          <note pan="0" len="33" vol="141" key="12" pos="16896"/>
          <note pan="0" len="12" vol="114" key="51" pos="16908"/>
          <note pan="0" len="12" vol="127" key="55" pos="16920"/>
          <note pan="0" len="12" vol="125" key="60" pos="16932"/>
          <note pan="0" len="12" vol="121" key="63" pos="16944"/>
          <note pan="0" len="17" vol="133" key="39" pos="16944"/>
          <note pan="0" len="15" vol="133" key="36" pos="16944"/>
          <note pan="0" len="17" vol="133" key="31" pos="16944"/>
          <note pan="0" len="12" vol="116" key="51" pos="16956"/>
          <note pan="0" len="12" vol="137" key="55" pos="16968"/>
          <note pan="0" len="12" vol="121" key="60" pos="16980"/>
          <note pan="0" len="12" vol="137" key="48" pos="16992"/>
          <note pan="0" len="22" vol="113" key="27" pos="16992"/>
          <note pan="0" len="12" vol="111" key="51" pos="17004"/>
          <note pan="0" len="12" vol="121" key="55" pos="17016"/>
          <note pan="0" len="20" vol="102" key="24" pos="17016"/>
          <note pan="0" len="12" vol="111" key="60" pos="17028"/>
          <note pan="0" len="12" vol="121" key="63" pos="17040"/>
          <note pan="0" len="20" vol="135" key="31" pos="17040"/>
          <note pan="0" len="19" vol="135" key="36" pos="17042"/>
          <note pan="0" len="12" vol="143" key="67" pos="17052"/>
          <note pan="0" len="12" vol="124" key="55" pos="17064"/>
          <note pan="0" len="12" vol="127" key="60" pos="17076"/>
          <note pan="0" len="12" vol="122" key="51" pos="17088"/>
          <note pan="0" len="21" vol="129" key="24" pos="17088"/>
          <note pan="0" len="12" vol="133" key="55" pos="17100"/>
          <note pan="0" len="12" vol="132" key="60" pos="17112"/>
          <note pan="0" len="20" vol="111" key="27" pos="17112"/>
          <note pan="0" len="12" vol="132" key="63" pos="17124"/>
          <note pan="0" len="12" vol="130" key="67" pos="17136"/>
          <note pan="0" len="19" vol="119" key="31" pos="17136"/>
          <note pan="0" len="12" vol="129" key="72" pos="17148"/>
          <note pan="0" len="12" vol="141" key="60" pos="17160"/>
          <note pan="0" len="23" vol="100" key="27" pos="17160"/>
          <note pan="0" len="12" vol="100" key="63" pos="17172"/>
          <note pan="0" len="12" vol="102" key="51" pos="17184"/>
          <note pan="0" len="26" vol="144" key="36" pos="17184"/>
          <note pan="0" len="12" vol="135" key="55" pos="17196"/>
          <note pan="0" len="12" vol="121" key="60" pos="17208"/>
          <note pan="0" len="20" vol="108" key="31" pos="17208"/>
          <note pan="0" len="12" vol="127" key="63" pos="17220"/>
          <note pan="0" len="12" vol="141" key="67" pos="17232"/>
          <note pan="0" len="20" vol="124" key="27" pos="17232"/>
          <note pan="0" len="12" vol="121" key="63" pos="17244"/>
          <note pan="0" len="12" vol="114" key="75" pos="17256"/>
          <note pan="0" len="7" vol="116" key="24" pos="17256"/>
          <note pan="0" len="12" vol="130" key="44" pos="17280"/>
          <note pan="0" len="33" vol="141" key="20" pos="17280"/>
          <note pan="0" len="33" vol="141" key="8" pos="17280"/>
          <note pan="0" len="12" vol="141" key="48" pos="17292"/>
          <note pan="0" len="12" vol="121" key="51" pos="17304"/>
          <note pan="0" len="12" vol="118" key="48" pos="17316"/>
          <note pan="0" len="12" vol="121" key="51" pos="17328"/>
          <note pan="0" len="29" vol="133" key="35" pos="17328"/>
          <note pan="0" len="18" vol="133" key="27" pos="17328"/>
          <note pan="0" len="15" vol="133" key="32" pos="17330"/>
          <note pan="0" len="12" vol="124" key="56" pos="17340"/>
          <note pan="0" len="12" vol="132" key="51" pos="17352"/>
          <note pan="0" len="12" vol="113" key="60" pos="17364"/>
          <note pan="0" len="12" vol="140" key="56" pos="17376"/>
          <note pan="0" len="15" vol="113" key="23" pos="17376"/>
          <note pan="0" len="12" vol="132" key="51" pos="17388"/>
          <note pan="0" len="12" vol="122" key="48" pos="17400"/>
          <note pan="0" len="18" vol="102" key="20" pos="17400"/>
          <note pan="0" len="12" vol="121" key="44" pos="17412"/>
          <note pan="0" len="12" vol="124" key="48" pos="17424"/>
          <note pan="0" len="23" vol="135" key="27" pos="17424"/>
          <note pan="0" len="15" vol="135" key="32" pos="17426"/>
          <note pan="0" len="12" vol="129" key="44" pos="17436"/>
          <note pan="0" len="12" vol="141" key="39" pos="17448"/>
          <note pan="0" len="12" vol="146" key="38" pos="17460"/>
          <note pan="0" len="12" vol="129" key="37" pos="17472"/>
          <note pan="0" len="33" vol="141" key="25" pos="17472"/>
          <note pan="0" len="33" vol="141" key="13" pos="17472"/>
          <note pan="0" len="12" vol="137" key="41" pos="17484"/>
          <note pan="0" len="12" vol="141" key="44" pos="17496"/>
          <note pan="0" len="12" vol="130" key="49" pos="17508"/>
          <note pan="0" len="12" vol="119" key="53" pos="17520"/>
          <note pan="0" len="22" vol="119" key="32" pos="17520"/>
          <note pan="0" len="12" vol="133" key="56" pos="17532"/>
          <note pan="0" len="12" vol="133" key="49" pos="17544"/>
          <note pan="0" len="20" vol="100" key="29" pos="17544"/>
          <note pan="0" len="12" vol="132" key="53" pos="17556"/>
          <note pan="0" len="12" vol="111" key="41" pos="17568"/>
          <note pan="0" len="15" vol="144" key="37" pos="17568"/>
          <note pan="0" len="18" vol="127" key="41" pos="17569"/>
          <note pan="0" len="12" vol="141" key="44" pos="17580"/>
          <note pan="0" len="12" vol="140" key="49" pos="17592"/>
          <note pan="0" len="16" vol="108" key="32" pos="17592"/>
          <note pan="0" len="12" vol="138" key="44" pos="17604"/>
          <note pan="0" len="12" vol="137" key="41" pos="17616"/>
          <note pan="0" len="20" vol="124" key="29" pos="17616"/>
          <note pan="0" len="12" vol="122" key="37" pos="17628"/>
          <note pan="0" len="12" vol="129" key="36" pos="17640"/>
          <note pan="0" len="13" vol="141" key="26" pos="17640"/>
          <note pan="0" len="13" vol="141" key="14" pos="17640"/>
          <note pan="0" len="12" vol="127" key="37" pos="17652"/>
          <note pan="0" len="33" vol="152" key="27" pos="17664"/>
          <note pan="0" len="33" vol="152" key="15" pos="17664"/>
          <note pan="0" len="17" vol="133" key="42" pos="17712"/>
          <note pan="0" len="15" vol="133" key="39" pos="17712"/>
          <note pan="0" len="17" vol="133" key="34" pos="17712"/>
          <note pan="0" len="12" vol="138" key="51" pos="17760"/>
          <note pan="0" len="22" vol="113" key="30" pos="17760"/>
          <note pan="0" len="12" vol="118" key="54" pos="17772"/>
          <note pan="0" len="12" vol="125" key="58" pos="17784"/>
          <note pan="0" len="20" vol="102" key="27" pos="17784"/>
          <note pan="0" len="12" vol="110" key="63" pos="17796"/>
          <note pan="0" len="12" vol="113" key="66" pos="17808"/>
          <note pan="0" len="20" vol="135" key="34" pos="17808"/>
          <note pan="0" len="19" vol="135" key="39" pos="17810"/>
          <note pan="0" len="12" vol="122" key="70" pos="17820"/>
          <note pan="0" len="12" vol="137" key="75" pos="17832"/>
          <note pan="0" len="12" vol="135" key="78" pos="17844"/>
          <note pan="0" len="12" vol="113" key="46" pos="17856"/>
          <note pan="0" len="21" vol="129" key="27" pos="17856"/>
          <note pan="0" len="12" vol="116" key="51" pos="17868"/>
          <note pan="0" len="12" vol="132" key="54" pos="17880"/>
          <note pan="0" len="20" vol="111" key="30" pos="17880"/>
          <note pan="0" len="12" vol="121" key="51" pos="17892"/>
          <note pan="0" len="12" vol="113" key="54" pos="17904"/>
          <note pan="0" len="19" vol="119" key="34" pos="17904"/>
          <note pan="0" len="12" vol="124" key="58" pos="17916"/>
          <note pan="0" len="12" vol="133" key="63" pos="17928"/>
          <note pan="0" len="23" vol="100" key="30" pos="17928"/>
          <note pan="0" len="12" vol="127" key="54" pos="17940"/>
          <note pan="0" len="12" vol="130" key="58" pos="17952"/>
          <note pan="0" len="26" vol="144" key="39" pos="17952"/>
          <note pan="0" len="12" vol="133" key="63" pos="17964"/>
          <note pan="0" len="12" vol="138" key="66" pos="17976"/>
          <note pan="0" len="20" vol="108" key="34" pos="17976"/>
          <note pan="0" len="12" vol="129" key="70" pos="17988"/>
          <note pan="0" len="12" vol="111" key="62" pos="18000"/>
          <note pan="0" len="20" vol="124" key="30" pos="18000"/>
          <note pan="0" len="12" vol="130" key="65" pos="18012"/>
          <note pan="0" len="12" vol="141" key="70" pos="18024"/>
          <note pan="0" len="7" vol="116" key="27" pos="18024"/>
          <note pan="0" len="12" vol="137" key="74" pos="18036"/>
          <note pan="0" len="12" vol="132" key="66" pos="18048"/>
          <note pan="0" len="33" vol="141" key="23" pos="18048"/>
          <note pan="0" len="33" vol="141" key="11" pos="18048"/>
          <note pan="0" len="12" vol="114" key="63" pos="18060"/>
          <note pan="0" len="12" vol="135" key="59" pos="18072"/>
          <note pan="0" len="12" vol="118" key="66" pos="18084"/>
          <note pan="0" len="12" vol="127" key="63" pos="18096"/>
          <note pan="0" len="29" vol="133" key="38" pos="18096"/>
          <note pan="0" len="18" vol="133" key="30" pos="18096"/>
          <note pan="0" len="15" vol="133" key="35" pos="18098"/>
          <note pan="0" len="12" vol="132" key="59" pos="18108"/>
          <note pan="0" len="12" vol="122" key="63" pos="18120"/>
          <note pan="0" len="12" vol="135" key="66" pos="18132"/>
          <note pan="0" len="12" vol="129" key="71" pos="18144"/>
          <note pan="0" len="15" vol="113" key="26" pos="18144"/>
          <note pan="0" len="12" vol="121" key="66" pos="18156"/>
          <note pan="0" len="12" vol="129" key="59" pos="18168"/>
          <note pan="0" len="18" vol="102" key="23" pos="18168"/>
          <note pan="0" len="12" vol="121" key="63" pos="18180"/>
          <note pan="0" len="12" vol="108" key="66" pos="18192"/>
          <note pan="0" len="23" vol="135" key="30" pos="18192"/>
          <note pan="0" len="15" vol="135" key="35" pos="18194"/>
          <note pan="0" len="12" vol="116" key="63" pos="18204"/>
          <note pan="0" len="12" vol="118" key="59" pos="18216"/>
          <note pan="0" len="12" vol="129" key="65" pos="18228"/>
          <note pan="0" len="12" vol="133" key="64" pos="18240"/>
          <note pan="0" len="33" vol="141" key="28" pos="18240"/>
          <note pan="0" len="33" vol="141" key="16" pos="18240"/>
          <note pan="0" len="12" vol="124" key="59" pos="18252"/>
          <note pan="0" len="12" vol="146" key="56" pos="18264"/>
          <note pan="0" len="12" vol="138" key="59" pos="18276"/>
          <note pan="0" len="12" vol="140" key="56" pos="18288"/>
          <note pan="0" len="22" vol="119" key="35" pos="18288"/>
          <note pan="0" len="12" vol="130" key="59" pos="18300"/>
          <note pan="0" len="12" vol="129" key="64" pos="18312"/>
          <note pan="0" len="20" vol="100" key="32" pos="18312"/>
          <note pan="0" len="12" vol="138" key="68" pos="18324"/>
          <note pan="0" len="12" vol="135" key="64" pos="18336"/>
          <note pan="0" len="15" vol="144" key="40" pos="18336"/>
          <note pan="0" len="18" vol="127" key="44" pos="18337"/>
          <note pan="0" len="12" vol="124" key="59" pos="18348"/>
          <note pan="0" len="12" vol="130" key="56" pos="18360"/>
          <note pan="0" len="16" vol="108" key="35" pos="18360"/>
          <note pan="0" len="12" vol="129" key="59" pos="18372"/>
          <note pan="0" len="12" vol="125" key="64" pos="18384"/>
          <note pan="0" len="20" vol="124" key="32" pos="18384"/>
          <note pan="0" len="12" vol="121" key="59" pos="18396"/>
          <note pan="0" len="12" vol="124" key="64" pos="18408"/>
          <note pan="0" len="13" vol="116" key="28" pos="18408"/>
          <note pan="0" len="12" vol="137" key="56" pos="18420"/>
          <note pan="0" len="48" vol="143" key="58" pos="18432"/>
          <note pan="0" len="38" vol="124" key="54" pos="18432"/>
          <note pan="0" len="33" vol="141" key="27" pos="18432"/>
          <note pan="0" len="33" vol="141" key="15" pos="18432"/>
          <note pan="0" len="17" vol="133" key="42" pos="18480"/>
          <note pan="0" len="15" vol="133" key="39" pos="18480"/>
          <note pan="0" len="17" vol="133" key="34" pos="18480"/>
          <note pan="0" len="21" vol="125" key="56" pos="18504"/>
          <note pan="0" len="36" vol="137" key="54" pos="18528"/>
          <note pan="0" len="37" vol="133" key="51" pos="18528"/>
          <note pan="0" len="22" vol="113" key="30" pos="18528"/>
          <note pan="0" len="20" vol="102" key="27" pos="18552"/>
          <note pan="0" len="20" vol="135" key="34" pos="18576"/>
          <note pan="0" len="19" vol="135" key="39" pos="18578"/>
          <note pan="0" len="21" vol="127" key="57" pos="18600"/>
          <note pan="0" len="36" vol="143" key="58" pos="18624"/>
          <note pan="0" len="33" vol="129" key="51" pos="18624"/>
          <note pan="0" len="21" vol="129" key="27" pos="18624"/>
          <note pan="0" len="20" vol="111" key="30" pos="18648"/>
          <note pan="0" len="121" vol="132" key="51" pos="18672"/>
          <note pan="0" len="126" vol="127" key="46" pos="18672"/>
          <note pan="0" len="19" vol="119" key="34" pos="18672"/>
          <note pan="0" len="23" vol="100" key="30" pos="18696"/>
          <note pan="0" len="26" vol="144" key="39" pos="18720"/>
          <note pan="0" len="20" vol="108" key="34" pos="18744"/>
          <note pan="0" len="20" vol="124" key="30" pos="18768"/>
          <note pan="0" len="7" vol="116" key="27" pos="18792"/>
          <note pan="0" len="12" vol="130" key="47" pos="18816"/>
          <note pan="0" len="33" vol="141" key="23" pos="18816"/>
          <note pan="0" len="33" vol="141" key="11" pos="18816"/>
          <note pan="0" len="12" vol="141" key="51" pos="18828"/>
          <note pan="0" len="12" vol="121" key="54" pos="18840"/>
          <note pan="0" len="12" vol="118" key="51" pos="18852"/>
          <note pan="0" len="12" vol="121" key="54" pos="18864"/>
          <note pan="0" len="29" vol="133" key="38" pos="18864"/>
          <note pan="0" len="18" vol="133" key="30" pos="18864"/>
          <note pan="0" len="15" vol="133" key="35" pos="18866"/>
          <note pan="0" len="12" vol="124" key="59" pos="18876"/>
          <note pan="0" len="12" vol="132" key="54" pos="18888"/>
          <note pan="0" len="12" vol="113" key="63" pos="18900"/>
          <note pan="0" len="12" vol="140" key="59" pos="18912"/>
          <note pan="0" len="15" vol="113" key="26" pos="18912"/>
          <note pan="0" len="12" vol="132" key="54" pos="18924"/>
          <note pan="0" len="12" vol="122" key="51" pos="18936"/>
          <note pan="0" len="18" vol="102" key="23" pos="18936"/>
          <note pan="0" len="12" vol="121" key="47" pos="18948"/>
          <note pan="0" len="12" vol="124" key="51" pos="18960"/>
          <note pan="0" len="23" vol="135" key="30" pos="18960"/>
          <note pan="0" len="15" vol="135" key="35" pos="18962"/>
          <note pan="0" len="12" vol="129" key="47" pos="18972"/>
          <note pan="0" len="12" vol="141" key="42" pos="18984"/>
          <note pan="0" len="12" vol="146" key="41" pos="18996"/>
          <note pan="0" len="12" vol="129" key="40" pos="19008"/>
          <note pan="0" len="33" vol="141" key="28" pos="19008"/>
          <note pan="0" len="33" vol="141" key="16" pos="19008"/>
          <note pan="0" len="12" vol="137" key="44" pos="19020"/>
          <note pan="0" len="12" vol="141" key="47" pos="19032"/>
          <note pan="0" len="12" vol="130" key="51" pos="19044"/>
          <note pan="0" len="30" vol="130" key="47" pos="19056"/>
          <note pan="0" len="33" vol="130" key="40" pos="19056"/>
          <note pan="0" len="33" vol="130" key="28" pos="19056"/>
          <note pan="0" len="27" vol="138" key="52" pos="19057"/>
          <note pan="0" len="20" vol="130" key="52" pos="19104"/>
          <note pan="0" len="33" vol="127" key="44" pos="19104"/>
          <note pan="0" len="33" vol="127" key="32" pos="19104"/>
          <note pan="0" len="20" vol="125" key="56" pos="19105"/>
          <note pan="0" len="27" vol="132" key="59" pos="19152"/>
          <note pan="0" len="26" vol="129" key="52" pos="19152"/>
          <note pan="0" len="33" vol="141" key="47" pos="19152"/>
          <note pan="0" len="33" vol="141" key="35" pos="19152"/>
          <note pan="0" len="27" vol="141" key="34" pos="19198"/>
          <note pan="0" len="25" vol="141" key="58" pos="19200"/>
          <note pan="0" len="28" vol="133" key="51" pos="19200"/>
          <note pan="0" len="27" vol="118" key="39" pos="19200"/>
          <note pan="0" len="24" vol="118" key="42" pos="19202"/>
          <note pan="0" len="19" vol="141" key="46" pos="19206"/>
          <note pan="0" len="29" vol="137" key="58" pos="19248"/>
          <note pan="0" len="27" vol="132" key="51" pos="19248"/>
          <note pan="0" len="33" vol="148" key="27" pos="19248"/>
          <note pan="0" len="33" vol="148" key="15" pos="19248"/>
          <note pan="0" len="12" vol="138" key="46" pos="19296"/>
          <note pan="0" len="20" vol="118" key="27" pos="19296"/>
          <note pan="0" len="12" vol="129" key="51" pos="19308"/>
          <note pan="0" len="12" vol="121" key="54" pos="19320"/>
          <note pan="0" len="15" vol="124" key="27" pos="19320"/>
          <note pan="0" len="12" vol="130" key="51" pos="19332"/>
          <note pan="0" len="21" vol="129" key="34" pos="19342"/>
          <note pan="0" len="12" vol="121" key="54" pos="19344"/>
          <note pan="0" len="20" vol="129" key="42" pos="19344"/>
          <note pan="0" len="20" vol="129" key="39" pos="19344"/>
          <note pan="0" len="12" vol="122" key="58" pos="19356"/>
          <note pan="0" len="12" vol="130" key="63" pos="19368"/>
          <note pan="0" len="12" vol="130" key="51" pos="19380"/>
          <note pan="0" len="12" vol="135" key="46" pos="19392"/>
          <note pan="0" len="16" vol="148" key="42" pos="19392"/>
          <note pan="0" len="12" vol="119" key="51" pos="19404"/>
          <note pan="0" len="13" vol="124" key="41" pos="19404"/>
          <note pan="0" len="12" vol="125" key="54" pos="19416"/>
          <note pan="0" len="15" vol="141" key="39" pos="19416"/>
          <note pan="0" len="12" vol="124" key="51" pos="19428"/>
          <note pan="0" len="12" vol="132" key="54" pos="19440"/>
          <note pan="0" len="21" vol="132" key="34" pos="19440"/>
          <note pan="0" len="12" vol="118" key="58" pos="19452"/>
          <note pan="0" len="12" vol="118" key="54" pos="19464"/>
          <note pan="0" len="19" vol="122" key="30" pos="19464"/>
          <note pan="0" len="12" vol="125" key="63" pos="19476"/>
          <note pan="0" len="12" vol="125" key="62" pos="19488"/>
          <note pan="0" len="41" vol="143" key="29" pos="19488"/>
          <note pan="0" len="12" vol="127" key="58" pos="19500"/>
          <note pan="0" len="12" vol="130" key="53" pos="19512"/>
          <note pan="0" len="12" vol="127" key="50" pos="19524"/>
          <note pan="0" len="12" vol="124" key="53" pos="19536"/>
          <note pan="0" len="40" vol="132" key="22" pos="19536"/>
          <note pan="0" len="12" vol="127" key="50" pos="19548"/>
          <note pan="0" len="12" vol="124" key="46" pos="19560"/>
          <note pan="0" len="12" vol="121" key="41" pos="19572"/>
          <note pan="0" len="12" vol="118" key="42" pos="19584"/>
          <note pan="0" len="36" vol="143" key="23" pos="19584"/>
          <note pan="0" len="36" vol="143" key="11" pos="19584"/>
          <note pan="0" len="12" vol="132" key="47" pos="19596"/>
          <note pan="0" len="12" vol="118" key="51" pos="19608"/>
          <note pan="0" len="12" vol="137" key="54" pos="19620"/>
          <note pan="0" len="12" vol="132" key="59" pos="19632"/>
          <note pan="0" len="20" vol="137" key="35" pos="19632"/>
          <note pan="0" len="20" vol="137" key="27" pos="19632"/>
          <note pan="0" len="12" vol="130" key="54" pos="19644"/>
          <note pan="0" len="12" vol="146" key="51" pos="19656"/>
          <note pan="0" len="12" vol="141" key="47" pos="19668"/>
          <note pan="0" len="12" vol="124" key="42" pos="19680"/>
          <note pan="0" len="18" vol="127" key="27" pos="19680"/>
          <note pan="0" len="12" vol="119" key="47" pos="19692"/>
          <note pan="0" len="12" vol="130" key="51" pos="19704"/>
          <note pan="0" len="12" vol="148" key="29" pos="19704"/>
          <note pan="0" len="12" vol="124" key="47" pos="19716"/>
          <note pan="0" len="12" vol="129" key="30" pos="19716"/>
          <note pan="0" len="12" vol="118" key="42" pos="19728"/>
          <note pan="0" len="18" vol="132" key="29" pos="19728"/>
          <note pan="0" len="12" vol="121" key="51" pos="19740"/>
          <note pan="0" len="12" vol="132" key="47" pos="19752"/>
          <note pan="0" len="18" vol="124" key="27" pos="19752"/>
          <note pan="0" len="12" vol="138" key="42" pos="19764"/>
          <note pan="0" len="12" vol="135" key="44" pos="19776"/>
          <note pan="0" len="30" vol="140" key="28" pos="19776"/>
          <note pan="0" len="30" vol="132" key="23" pos="19776"/>
          <note pan="0" len="12" vol="124" key="47" pos="19788"/>
          <note pan="0" len="12" vol="124" key="52" pos="19800"/>
          <note pan="0" len="12" vol="137" key="44" pos="19812"/>
          <note pan="0" len="12" vol="138" key="47" pos="19824"/>
          <note pan="0" len="22" vol="143" key="28" pos="19824"/>
          <note pan="0" len="22" vol="143" key="16" pos="19824"/>
          <note pan="0" len="12" vol="148" key="52" pos="19836"/>
          <note pan="0" len="12" vol="143" key="47" pos="19848"/>
          <note pan="0" len="12" vol="137" key="40" pos="19860"/>
          <note pan="0" len="13" vol="129" key="34" pos="19868"/>
          <note pan="0" len="12" vol="125" key="44" pos="19872"/>
          <note pan="0" len="15" vol="144" key="35" pos="19872"/>
          <note pan="0" len="12" vol="125" key="47" pos="19884"/>
          <note pan="0" len="12" vol="138" key="52" pos="19896"/>
          <note pan="0" len="18" vol="138" key="32" pos="19896"/>
          <note pan="0" len="12" vol="137" key="44" pos="19908"/>
          <note pan="0" len="12" vol="124" key="47" pos="19920"/>
          <note pan="0" len="22" vol="129" key="28" pos="19920"/>
          <note pan="0" len="12" vol="133" key="52" pos="19932"/>
          <note pan="0" len="12" vol="132" key="44" pos="19944"/>
          <note pan="0" len="19" vol="138" key="23" pos="19944"/>
          <note pan="0" len="12" vol="135" key="52" pos="19956"/>
          <note pan="0" len="12" vol="118" key="37" pos="19968"/>
          <note pan="0" len="168" vol="140" key="28" pos="19968"/>
          <note pan="0" len="168" vol="141" key="21" pos="19968"/>
          <note pan="0" len="12" vol="130" key="40" pos="19980"/>
          <note pan="0" len="12" vol="122" key="45" pos="19992"/>
          <note pan="0" len="12" vol="129" key="37" pos="20004"/>
          <note pan="0" len="12" vol="137" key="40" pos="20016"/>
          <note pan="0" len="12" vol="125" key="45" pos="20028"/>
          <note pan="0" len="12" vol="130" key="37" pos="20040"/>
          <note pan="0" len="12" vol="137" key="40" pos="20052"/>
          <note pan="0" len="12" vol="124" key="45" pos="20064"/>
          <note pan="0" len="12" vol="118" key="37" pos="20076"/>
          <note pan="0" len="12" vol="127" key="40" pos="20088"/>
          <note pan="0" len="12" vol="124" key="45" pos="20100"/>
          <note pan="0" len="12" vol="133" key="37" pos="20112"/>
          <note pan="0" len="12" vol="127" key="40" pos="20124"/>
          <note pan="0" len="12" vol="124" key="45" pos="20136"/>
          <note pan="0" len="12" vol="133" key="40" pos="20148"/>
          <note pan="0" len="12" vol="118" key="31" pos="20160"/>
          <note pan="0" len="168" vol="141" key="27" pos="20160"/>
          <note pan="0" len="168" vol="140" key="22" pos="20160"/>
          <note pan="0" len="12" vol="130" key="34" pos="20172"/>
          <note pan="0" len="12" vol="122" key="39" pos="20184"/>
          <note pan="0" len="12" vol="129" key="31" pos="20196"/>
          <note pan="0" len="12" vol="137" key="34" pos="20208"/>
          <note pan="0" len="12" vol="125" key="39" pos="20220"/>
          <note pan="0" len="12" vol="130" key="31" pos="20232"/>
          <note pan="0" len="12" vol="137" key="34" pos="20244"/>
          <note pan="0" len="12" vol="124" key="39" pos="20256"/>
          <note pan="0" len="12" vol="118" key="31" pos="20268"/>
          <note pan="0" len="12" vol="127" key="34" pos="20280"/>
          <note pan="0" len="12" vol="124" key="39" pos="20292"/>
          <note pan="0" len="12" vol="133" key="31" pos="20304"/>
          <note pan="0" len="12" vol="127" key="34" pos="20316"/>
          <note pan="0" len="12" vol="124" key="39" pos="20328"/>
          <note pan="0" len="12" vol="133" key="34" pos="20340"/>
          <note pan="0" len="12" vol="118" key="36" pos="20352"/>
          <note pan="0" len="84" vol="140" key="27" pos="20352"/>
          <note pan="0" len="81" vol="140" key="20" pos="20352"/>
          <note pan="0" len="12" vol="130" key="39" pos="20364"/>
          <note pan="0" len="12" vol="122" key="44" pos="20376"/>
          <note pan="0" len="12" vol="129" key="36" pos="20388"/>
          <note pan="0" len="12" vol="137" key="39" pos="20400"/>
          <note pan="0" len="12" vol="125" key="44" pos="20412"/>
          <note pan="0" len="12" vol="130" key="36" pos="20424"/>
          <note pan="0" len="12" vol="137" key="39" pos="20436"/>
          <note pan="0" len="12" vol="118" key="30" pos="20448"/>
          <note pan="0" len="84" vol="140" key="26" pos="20448"/>
          <note pan="0" len="84" vol="140" key="21" pos="20448"/>
          <note pan="0" len="12" vol="130" key="33" pos="20460"/>
          <note pan="0" len="12" vol="122" key="38" pos="20472"/>
          <note pan="0" len="12" vol="129" key="30" pos="20484"/>
          <note pan="0" len="12" vol="137" key="33" pos="20496"/>
          <note pan="0" len="12" vol="125" key="38" pos="20508"/>
          <note pan="0" len="12" vol="130" key="30" pos="20520"/>
          <note pan="0" len="12" vol="137" key="33" pos="20532"/>
          <note pan="0" len="12" vol="118" key="35" pos="20544"/>
          <note pan="0" len="84" vol="140" key="26" pos="20544"/>
          <note pan="0" len="84" vol="140" key="19" pos="20544"/>
          <note pan="0" len="12" vol="130" key="38" pos="20556"/>
          <note pan="0" len="12" vol="122" key="43" pos="20568"/>
          <note pan="0" len="12" vol="129" key="35" pos="20580"/>
          <note pan="0" len="12" vol="137" key="38" pos="20592"/>
          <note pan="0" len="12" vol="125" key="43" pos="20604"/>
          <note pan="0" len="12" vol="130" key="35" pos="20616"/>
          <note pan="0" len="12" vol="137" key="38" pos="20628"/>
          <note pan="0" len="12" vol="118" key="29" pos="20640"/>
          <note pan="0" len="84" vol="140" key="25" pos="20640"/>
          <note pan="0" len="84" vol="140" key="20" pos="20640"/>
          <note pan="0" len="12" vol="130" key="32" pos="20652"/>
          <note pan="0" len="12" vol="122" key="37" pos="20664"/>
          <note pan="0" len="12" vol="129" key="29" pos="20676"/>
          <note pan="0" len="12" vol="137" key="32" pos="20688"/>
          <note pan="0" len="12" vol="125" key="37" pos="20700"/>
          <note pan="0" len="12" vol="130" key="29" pos="20712"/>
          <note pan="0" len="12" vol="137" key="32" pos="20724"/>
          <note pan="0" len="12" vol="118" key="27" pos="20736"/>
          <note pan="0" len="133" vol="140" key="24" pos="20736"/>
          <note pan="0" len="136" vol="140" key="12" pos="20736"/>
          <note pan="0" len="12" vol="130" key="31" pos="20748"/>
          <note pan="0" len="12" vol="122" key="36" pos="20760"/>
          <note pan="0" len="12" vol="129" key="27" pos="20772"/>
          <note pan="0" len="12" vol="137" key="31" pos="20784"/>
          <note pan="0" len="12" vol="125" key="36" pos="20796"/>
          <note pan="0" len="12" vol="130" key="27" pos="20808"/>
          <note pan="0" len="12" vol="137" key="31" pos="20820"/>
          <note pan="0" len="12" vol="124" key="36" pos="20832"/>
          <note pan="0" len="12" vol="118" key="27" pos="20844"/>
          <note pan="0" len="12" vol="127" key="31" pos="20856"/>
          <note pan="0" len="12" vol="124" key="36" pos="20868"/>
          <note pan="0" len="12" vol="133" key="29" pos="20880"/>
          <note pan="0" len="36" vol="133" key="25" pos="20880"/>
          <note pan="0" len="12" vol="127" key="32" pos="20892"/>
          <note pan="0" len="12" vol="124" key="37" pos="20904"/>
          <note pan="0" len="12" vol="133" key="32" pos="20916"/>
          <note pan="0" len="12" vol="118" key="27" pos="20928"/>
          <note pan="0" len="133" vol="140" key="24" pos="20928"/>
          <note pan="0" len="136" vol="140" key="12" pos="20928"/>
          <note pan="0" len="12" vol="130" key="31" pos="20940"/>
          <note pan="0" len="12" vol="122" key="36" pos="20952"/>
          <note pan="0" len="12" vol="129" key="27" pos="20964"/>
          <note pan="0" len="12" vol="137" key="31" pos="20976"/>
          <note pan="0" len="12" vol="125" key="36" pos="20988"/>
          <note pan="0" len="12" vol="130" key="27" pos="21000"/>
          <note pan="0" len="12" vol="137" key="31" pos="21012"/>
          <note pan="0" len="12" vol="124" key="36" pos="21024"/>
          <note pan="0" len="12" vol="118" key="27" pos="21036"/>
          <note pan="0" len="12" vol="127" key="31" pos="21048"/>
          <note pan="0" len="12" vol="124" key="36" pos="21060"/>
          <note pan="0" len="12" vol="133" key="29" pos="21072"/>
          <note pan="0" len="36" vol="133" key="25" pos="21072"/>
          <note pan="0" len="12" vol="127" key="32" pos="21084"/>
          <note pan="0" len="12" vol="124" key="37" pos="21096"/>
          <note pan="0" len="12" vol="133" key="32" pos="21108"/>
          <note pan="0" len="12" vol="135" key="27" pos="21120"/>
          <note pan="0" len="1165" vol="140" key="24" pos="21120"/>
          <note pan="0" len="1168" vol="140" key="12" pos="21120"/>
          <note pan="0" len="12" vol="111" key="31" pos="21132"/>
          <note pan="0" len="12" vol="119" key="36" pos="21144"/>
          <note pan="0" len="12" vol="133" key="39" pos="21156"/>
          <note pan="0" len="12" vol="119" key="43" pos="21168"/>
          <note pan="0" len="12" vol="121" key="48" pos="21180"/>
          <note pan="0" len="12" vol="108" key="51" pos="21192"/>
          <note pan="0" len="12" vol="116" key="55" pos="21204"/>
          <note pan="0" len="12" vol="125" key="60" pos="21216"/>
          <note pan="0" len="12" vol="135" key="51" pos="21228"/>
          <note pan="0" len="12" vol="119" key="55" pos="21240"/>
          <note pan="0" len="12" vol="130" key="60" pos="21252"/>
          <note pan="0" len="12" vol="118" key="63" pos="21264"/>
          <note pan="0" len="12" vol="122" key="67" pos="21276"/>
          <note pan="0" len="12" vol="132" key="63" pos="21288"/>
          <note pan="0" len="12" vol="119" key="67" pos="21300"/>
          <note pan="0" len="16" vol="143" key="72" pos="21312"/>
          <note pan="0" len="12" vol="133" key="36" pos="21360"/>
          <note pan="0" len="12" vol="125" key="43" pos="21372"/>
          <note pan="0" len="12" vol="111" key="48" pos="21384"/>
          <note pan="0" len="12" vol="118" key="51" pos="21396"/>
          <note pan="0" len="12" vol="111" key="48" pos="21408"/>
          <note pan="0" len="12" vol="110" key="51" pos="21420"/>
          <note pan="0" len="12" vol="118" key="55" pos="21432"/>
          <note pan="0" len="12" vol="111" key="60" pos="21444"/>
          <note pan="0" len="12" vol="119" key="55" pos="21456"/>
          <note pan="0" len="12" vol="113" key="60" pos="21468"/>
          <note pan="0" len="12" vol="119" key="63" pos="21480"/>
          <note pan="0" len="12" vol="130" key="67" pos="21492"/>
          <note pan="0" len="781" vol="141" key="72" pos="21504"/>
          <note pan="0" len="774" vol="119" key="63" pos="21504"/>
        </pattern>
      </track>
    </trackcontainer>
    <track muted="0" type="6" name="Automation track" solo="0">
      <automationtrack/>
      <automationpattern tens="1" prog="0" len="192" mute="0" name="Numerator" pos="0"/>
      <automationpattern tens="1" prog="0" len="192" mute="0" name="Denominator" pos="0"/>
      <automationpattern tens="1" prog="0" len="192" mute="0" name="Tempo" pos="0"/>
      <automationpattern tens="1" prog="0" len="192" mute="0" name="Master volume" pos="0"/>
      <automationpattern tens="1" prog="0" len="192" mute="0" name="Master pitch" pos="0"/>
      <automationpattern tens="1" prog="0" len="0" mute="0" name="Numerator" pos="0">
        <time value="4" pos="0"/>
        <object id="1408314"/>
      </automationpattern>
      <automationpattern tens="1" prog="0" len="0" mute="0" name="Denominator" pos="0">
        <time value="4" pos="0"/>
        <object id="2653613"/>
      </automationpattern>
      <automationpattern tens="1" prog="0" len="0" mute="0" name="Tempo" pos="0">
        <time value="165" pos="0"/>
        <object id="3302706"/>
      </automationpattern>
    </track>
    <fxmixer width="1260" height="333" maximized="0" y="165" visible="0" minimized="0" x="43">
      <fxchannel muted="0" volume="0.326" soloed="0" num="0" name="Master">
        <fxchain numofeffects="0" enabled="0"/>
      </fxchannel>
      <fxchannel muted="0" volume="0.535" soloed="0" num="1" name="kick">
        <fxchain numofeffects="0" enabled="0"/>
        <send amount="1" channel="0"/>
        <send amount="0.512" channel="10"/>
      </fxchannel>
      <fxchannel muted="0" volume="0.535" soloed="0" num="2" name="hat">
        <fxchain numofeffects="0" enabled="0"/>
        <send amount="1" channel="0"/>
        <send amount="0.38" channel="10"/>
      </fxchannel>
      <fxchannel muted="0" volume="0.674" soloed="0" num="3" name="snare">
        <fxchain numofeffects="1" enabled="1">
          <effect autoquit_denominator="4" wet="1" autoquit="1" gate="0" on="1" autoquit_numerator="4" autoquit_syncmode="0" name="eq">
            <Eq HP="0" HighShelfgain="5.04" Peak3gain="0" Peak4active="1" AnalyseIn="1" LP="0" LPactive="1" Highshelfactive="1" LowShelfres="1.4" HPactive="0" Peak4bw="0.3" Peak3active="0" Outputgain="0" HighShelfres="1.435" Peak2gain="0" HP12="1" Lowshelfactive="0" Peak1bw="0.3" LPres="0.707" Peak2active="0" LP12="1" HPres="0.707" Peak4gain="-0.718001" AnalyseOut="1" Peak1active="0" HP48="0" Peak2bw="0.3" LP24="0" Peak3bw="0.3" LP48="0" HP24="0" Lowshelfgain="0">
              <Inputgain id="6753652" value="0" scale_type="log"/>
              <Peak1gain id="8257704" value="0" scale_type="log"/>
              <HPfreq id="2234845" value="31" scale_type="log"/>
              <LowShelffreq id="5016811" value="80" scale_type="log"/>
              <Peak1freq id="5537746" value="120" scale_type="log"/>
              <Peak2freq id="6539813" value="250" scale_type="log"/>
              <Peak3freq id="6999518" value="2000" scale_type="log"/>
              <Peak4freq id="770028" value="4000" scale_type="log"/>
              <Highshelffreq id="3686018" value="2497.52" scale_type="log"/>
              <LPfreq id="7588449" value="13865.6" scale_type="log"/>
            </Eq>
            <key/>
          </effect>
        </fxchain>
        <send amount="1" channel="0"/>
        <send amount="0.784" channel="10"/>
      </fxchannel>
      <fxchannel muted="0" volume="0.651" soloed="0" num="4" name="crash1">
        <fxchain numofeffects="0" enabled="0"/>
        <send amount="1" channel="0"/>
        <send amount="0.724" channel="10"/>
      </fxchannel>
      <fxchannel muted="0" volume="0.767" soloed="0" num="5" name="crash2">
        <fxchain numofeffects="0" enabled="0"/>
        <send amount="1" channel="0"/>
        <send amount="0.76" channel="10"/>
      </fxchannel>
      <fxchannel muted="0" volume="1" soloed="0" num="6" name="china">
        <fxchain numofeffects="0" enabled="0"/>
        <send amount="1" channel="0"/>
        <send amount="1" channel="10"/>
      </fxchannel>
      <fxchannel muted="0" volume="0.512" soloed="0" num="7" name="hitom">
        <fxchain numofeffects="0" enabled="0"/>
        <send amount="1" channel="0"/>
        <send amount="0.42" channel="10"/>
      </fxchannel>
      <fxchannel muted="0" volume="0.534" soloed="0" num="8" name="midtom">
        <fxchain numofeffects="0" enabled="0"/>
        <send amount="1" channel="0"/>
        <send amount="0.412" channel="10"/>
      </fxchannel>
      <fxchannel muted="0" volume="0.418" soloed="0" num="9" name="lotom">
        <fxchain numofeffects="0" enabled="0"/>
        <send amount="1" channel="0"/>
        <send amount="0.432" channel="10"/>
      </fxchannel>
      <fxchannel muted="0" volume="0.674" soloed="0" num="10" name="DRUM PLATE">
        <fxchain numofeffects="2" enabled="1">
          <effect autoquit_denominator="4" wet="1" autoquit="1" gate="0" on="1" autoquit_numerator="4" autoquit_syncmode="0" name="ladspaeffect">
            <ladspacontrols ports="4">
              <port02 data="0.76538"/>
              <port03 data="0.145119"/>
              <port04 data="0.0005"/>
              <port05 data="1"/>
            </ladspacontrols>
            <key>
              <attribute value="caps" name="file"/>
              <attribute value="Plate2x2" name="plugin"/>
            </key>
          </effect>
          <effect autoquit_denominator="4" wet="1" autoquit="1" gate="0" on="1" autoquit_numerator="4" autoquit_syncmode="0" name="eq">
            <Eq HP="0" HighShelfgain="1.62" Peak3gain="0" Peak4active="1" AnalyseIn="1" LP="0" LPactive="0" Highshelfactive="1" LowShelfres="1.4" HPactive="1" Peak4bw="0.3" Peak3active="0" Outputgain="0" HighShelfres="1.4" Peak2gain="0" HP12="1" Lowshelfactive="0" Peak1bw="0.3" LPres="0.707" Peak2active="0" LP12="1" HPres="0.707" Peak4gain="0.36" AnalyseOut="1" Peak1active="0" HP48="0" Peak2bw="0.3" LP24="0" Peak3bw="0.3" LP48="0" HP24="0" Lowshelfgain="0">
              <Inputgain id="217936" value="0" scale_type="log"/>
              <Peak1gain id="1412862" value="0" scale_type="log"/>
              <HPfreq id="7725025" value="175.669" scale_type="log"/>
              <LowShelffreq id="399642" value="80" scale_type="log"/>
              <Peak1freq id="3213708" value="120" scale_type="log"/>
              <Peak2freq id="1180890" value="250" scale_type="log"/>
              <Peak3freq id="5654965" value="2000" scale_type="log"/>
              <Peak4freq id="757114" value="3592.47" scale_type="log"/>
              <Highshelffreq id="3326661" value="610.728" scale_type="log"/>
              <LPfreq id="825391" value="18000" scale_type="log"/>
            </Eq>
            <key/>
          </effect>
        </fxchain>
        <send amount="1" channel="0"/>
      </fxchannel>
      <fxchannel muted="0" volume="0.556" soloed="0" num="11" name="rhythm guitar">
        <fxchain numofeffects="2" enabled="1">
          <effect autoquit_denominator="4" wet="1" autoquit="1" gate="0" on="1" autoquit_numerator="4" autoquit_syncmode="0" name="ladspaeffect">
            <ladspacontrols ports="22" link="1">
              <port02 data="0" link="1"/>
              <port03 data="-13.65" link="1"/>
              <port04 data="50" link="1"/>
              <port05 data="50" link="1"/>
              <port06 data="50" link="1"/>
              <port07 data="50" link="1"/>
              <port08 data="50" link="1"/>
              <port09 data="0" link="1"/>
              <port010 data="0" link="1"/>
              <port011 data="0" link="1"/>
              <port012 data="0" link="1"/>
              <port12 data="0"/>
              <port13 data="-13.65"/>
              <port14 data="50"/>
              <port15 data="50"/>
              <port16 data="50"/>
              <port17 data="50"/>
              <port18 data="50"/>
              <port19 data="0"/>
              <port110 data="0"/>
              <port111 data="0"/>
              <port112 data="0"/>
            </ladspacontrols>
            <key>
              <attribute value="ladspa_guitarix" name="file"/>
              <attribute value="guitarix-amp" name="plugin"/>
            </key>
          </effect>
          <effect autoquit_denominator="4" wet="1" autoquit="1" gate="0" on="0" autoquit_numerator="4" autoquit_syncmode="0" name="stereoenhancer">
            <stereoenhancercontrols width="180"/>
            <key/>
          </effect>
        </fxchain>
        <send amount="1" channel="0"/>
      </fxchannel>
      <fxchannel muted="0" volume="0.768" soloed="0" num="12" name="lgt">
        <fxchain numofeffects="4" enabled="1">
          <effect autoquit_denominator="4" wet="1" autoquit="1" gate="0" on="1" autoquit_numerator="4" autoquit_syncmode="0" name="ladspaeffect">
            <ladspacontrols ports="4" link="1">
              <port00 link="1">
                <data id="354059" value="13230" scale_type="log"/>
              </port00>
              <port01 data="1" link="1"/>
              <port10>
                <data id="451672" value="13230" scale_type="log"/>
              </port10>
              <port11 data="1"/>
            </ladspacontrols>
            <key>
              <attribute value="pointer_cast_1910" name="file"/>
              <attribute value="pointerCastDistortion" name="plugin"/>
            </key>
          </effect>
          <effect autoquit_denominator="4" wet="1" autoquit="1" gate="0" on="1" autoquit_numerator="4" autoquit_syncmode="0" name="ladspaeffect">
            <ladspacontrols ports="4" link="1">
              <port01 data="10" link="1"/>
              <port02 data="1" link="1"/>
              <port11 data="10"/>
              <port12 data="1"/>
            </ladspacontrols>
            <key>
              <attribute value="caps" name="file"/>
              <attribute value="PreampIII" name="plugin"/>
            </key>
          </effect>
          <effect autoquit_denominator="4" wet="1" autoquit="1" gate="0" on="1" autoquit_numerator="4" autoquit_syncmode="0" name="ladspaeffect">
            <ladspacontrols ports="4" link="1">
              <port01 data="1" link="1"/>
              <port02 data="0" link="1"/>
              <port11 data="1"/>
              <port12 data="0"/>
            </ladspacontrols>
            <key>
              <attribute value="caps" name="file"/>
              <attribute value="CabinetII" name="plugin"/>
            </key>
          </effect>
          <effect autoquit_denominator="4" wet="1" autoquit="1" gate="0" on="1" autoquit_numerator="4" autoquit_syncmode="0" name="ladspaeffect">
            <ladspacontrols ports="1">
              <port02 data="0.29125"/>
            </ladspacontrols>
            <key>
              <attribute value="caps" name="file"/>
              <attribute value="Narrower" name="plugin"/>
            </key>
          </effect>
        </fxchain>
        <send amount="1" channel="0"/>
        <send amount="0.484" channel="13"/>
      </fxchannel>
      <fxchannel muted="0" volume="0.535" soloed="0" num="13" name="FX 14">
        <fxchain numofeffects="1" enabled="1">
          <effect autoquit_denominator="4" wet="1" autoquit="1" gate="0" on="1" autoquit_numerator="4" autoquit_syncmode="0" name="ladspaeffect">
            <ladspacontrols ports="4" link="0">
              <port00 data_numerator="4" data="112.5" data_denominator="4" data_syncmode="0" link="0"/>
              <port01 data_numerator="4" data="0" data_denominator="4" data_syncmode="0" link="0"/>
              <port10 data_numerator="4" data="301.25" data_denominator="4" data_syncmode="0"/>
              <port11 data_numerator="4" data="0" data_denominator="4" data_syncmode="0"/>
            </ladspacontrols>
            <key>
              <attribute value="mod_delay_1419" name="file"/>
              <attribute value="modDelay" name="plugin"/>
            </key>
          </effect>
        </fxchain>
        <send amount="1" channel="0"/>
      </fxchannel>
      <fxchannel muted="0" volume="1" soloed="0" num="14" name="bass">
        <fxchain numofeffects="1" enabled="1">
          <effect autoquit_denominator="4" wet="1" autoquit="1" gate="0" on="0" autoquit_numerator="4" autoquit_syncmode="0" name="eq">
            <Eq HP="0" HighShelfgain="0" Peak3gain="18" Peak4active="1" AnalyseIn="1" LP="0" LPactive="0" Highshelfactive="0" LowShelfres="1.21" HPactive="0" Peak4bw="0.811" Peak3active="1" Outputgain="8" HighShelfres="1.4" Peak2gain="18" HP12="1" Lowshelfactive="1" Peak1bw="0.3" LPres="0.707" Peak2active="1" LP12="1" HPres="0.707" Peak4gain="5.76" AnalyseOut="1" Peak1active="0" HP48="0" Peak2bw="2.866" LP24="0" Peak3bw="1.828" LP48="0" HP24="0" Lowshelfgain="-6.477">
              <Inputgain id="1928132" value="0" scale_type="log"/>
              <Peak1gain id="5028906" value="0" scale_type="log"/>
              <HPfreq id="6101787" value="24.795" scale_type="log"/>
              <LowShelffreq id="5056230" value="179.84" scale_type="log"/>
              <Peak1freq id="3218393" value="120" scale_type="log"/>
              <Peak2freq id="4083145" value="8057.72" scale_type="log"/>
              <Peak3freq id="4897974" value="4557.45" scale_type="log"/>
              <Peak4freq id="5404987" value="4000" scale_type="log"/>
              <Highshelffreq id="3053663" value="12000" scale_type="log"/>
              <LPfreq id="1445410" value="18000" scale_type="log"/>
            </Eq>
            <key/>
          </effect>
        </fxchain>
        <send amount="1" channel="0"/>
      </fxchannel>
      <fxchannel muted="0" volume="1" soloed="0" num="15" name="synthStrings">
        <fxchain numofeffects="0" enabled="0"/>
        <send amount="1" channel="0"/>
      </fxchannel>
      <fxchannel muted="0" volume="1" soloed="0" num="16" name="FX 16">
        <fxchain numofeffects="0" enabled="0"/>
        <send amount="1" channel="0"/>
      </fxchannel>
      <fxchannel muted="0" volume="1" soloed="0" num="17" name="FX 17">
        <fxchain numofeffects="0" enabled="0"/>
        <send amount="1" channel="0"/>
      </fxchannel>
    </fxmixer>
    <ControllerRackView width="350" height="200" maximized="0" y="282" visible="0" minimized="0" x="680"/>
    <pianoroll width="860" height="480" maximized="1" y="45" visible="1" minimized="0" x="169"/>
    <automationeditor width="860" height="400" maximized="0" y="78" visible="0" minimized="0" x="395"/>
    <projectnotes width="692" height="400" maximized="0" y="1" visible="0" minimized="0" x="700"><![CDATA[<!DOCTYPE HTML PUBLIC "-//W3C//DTD HTML 4.0//EN" "http://www.w3.org/TR/REC-html40/strict.dtd">
<html><head><meta name="qrichtext" content="1" /><style type="text/css">
p, li { white-space: pre-wrap; }
</style></head><body style=" font-family:'Sans Serif'; font-size:9pt; font-weight:400; font-style:normal;">
<p style="-qt-paragraph-type:empty; margin-top:0px; margin-bottom:0px; margin-left:0px; margin-right:0px; -qt-block-indent:0; text-indent:0px; font-family:'Ubuntu'; font-size:10pt;"><br /></p></body></html>]]></projectnotes>
    <timeline lp1pos="9600" lpstate="0" lp0pos="0"/>
    <controllers/>
  </song>
</lmms-project>
