<?xml version="1.0"?>
<!DOCTYPE lmms-project>
<lmms-project creatorversion="1.2.2" creator="LMMS" type="song" version="1.0">
  <head timesig_numerator="4" timesig_denominator="4" bpm="200" mastervol="60" masterpitch="0"/>
  <song>
    <trackcontainer height="531" minimized="0" visible="1" x="36" maximized="1" type="song" y="78" width="600">
      <track muted="0" type="1" solo="0" name="intro1">
        <bbtrack>
          <trackcontainer height="378" minimized="0" visible="0" x="100" maximized="0" type="bbtrackcontainer" y="203" width="1034">
            <track muted="0" type="0" solo="0" name="kick.wav">
              <instrumenttrack basenote="57" fxch="1" pan="0" pitchrange="1" vol="100" pitch="0" usemasterpitch="1">
                <instrument name="audiofileprocessor">
                  <audiofileprocessor eframe="1" src="/home/pass/samples/sillydrums/kick.wav" interp="0" looped="0" sframe="0" reversed="0" amp="100" lframe="0" stutter="0"/>
                </instrument>
                <eldata ftype="0" fwet="0" fres="0.5" fcut="14000">
                  <elvol sustain="1" amt="1" att="0" rel="2" ctlenvamt="0" lspd="0.1" lamt="0" hold="2" lshp="0" lspd_denominator="4" lpdel="0" latt="0" lspd_numerator="4" pdel="0" lspd_syncmode="0" userwavefile="" dec="2" x100="0"/>
                  <elcut sustain="0.5" amt="0" att="0" rel="0.1" ctlenvamt="0" lspd="0.1" lamt="0" hold="0.5" lshp="0" lspd_denominator="4" lpdel="0" latt="0" lspd_numerator="4" pdel="0" lspd_syncmode="0" userwavefile="" dec="0.5" x100="0"/>
                  <elres sustain="0.5" amt="0" att="0" rel="0.1" ctlenvamt="0" lspd="0.1" lamt="0" hold="0.5" lshp="0" lspd_denominator="4" lpdel="0" latt="0" lspd_numerator="4" pdel="0" lspd_syncmode="0" userwavefile="" dec="0.5" x100="0"/>
                </eldata>
                <chordcreator chord-enabled="0" chordrange="1" chord="0"/>
                <arpeggiator arptime="200" arptime_denominator="4" arpmiss="0" arpgate="100" arpdir="0" arprange="1" arpskip="0" arptime_numerator="4" arp="0" arptime_syncmode="0" arpcycle="0" arp-enabled="0" arpmode="0"/>
                <midiport fixedoutputvelocity="-1" inputcontroller="0" fixedinputvelocity="-1" outputchannel="1" readable="0" fixedoutputnote="-1" outputprogram="1" inputchannel="0" outputcontroller="0" basevelocity="63" writable="0"/>
                <fxchain numofeffects="0" enabled="0"/>
              </instrumenttrack>
              <pattern muted="0" type="0" pos="0" steps="64" name="kick.wav">
                <note pan="0" key="57" len="-192" vol="100" pos="0"/>
                <note pan="0" key="57" len="-192" vol="100" pos="192"/>
                <note pan="0" key="57" len="-192" vol="100" pos="384"/>
                <note pan="0" key="57" len="-192" vol="100" pos="720"/>
                <note pan="0" key="57" len="-192" vol="100" pos="732"/>
                <note pan="0" key="57" len="-192" vol="100" pos="744"/>
                <note pan="0" key="57" len="-192" vol="100" pos="756"/>
              </pattern>
              <pattern muted="0" type="0" pos="192" steps="32" name="kick.wav">
                <note pan="0" key="57" len="-192" vol="100" pos="0"/>
                <note pan="0" key="57" len="-192" vol="100" pos="72"/>
                <note pan="0" key="57" len="-192" vol="100" pos="96"/>
                <note pan="0" key="57" len="-192" vol="100" pos="144"/>
                <note pan="0" key="57" len="-192" vol="100" pos="192"/>
                <note pan="0" key="57" len="-192" vol="100" pos="264"/>
                <note pan="0" key="57" len="-192" vol="100" pos="288"/>
                <note pan="0" key="57" len="-192" vol="100" pos="336"/>
              </pattern>
              <pattern muted="0" type="0" pos="384" steps="64" name="kick.wav">
                <note pan="0" key="57" len="-192" vol="100" pos="0"/>
                <note pan="0" key="57" len="-192" vol="100" pos="12"/>
                <note pan="0" key="57" len="-192" vol="100" pos="24"/>
                <note pan="0" key="57" len="-192" vol="100" pos="36"/>
                <note pan="0" key="57" len="-192" vol="100" pos="48"/>
                <note pan="0" key="57" len="-192" vol="100" pos="60"/>
                <note pan="0" key="57" len="-192" vol="100" pos="72"/>
                <note pan="0" key="57" len="-192" vol="100" pos="84"/>
                <note pan="0" key="57" len="-192" vol="100" pos="96"/>
                <note pan="0" key="57" len="-192" vol="100" pos="108"/>
                <note pan="0" key="57" len="-192" vol="100" pos="120"/>
                <note pan="0" key="57" len="-192" vol="100" pos="132"/>
                <note pan="0" key="57" len="-192" vol="100" pos="144"/>
                <note pan="0" key="57" len="-192" vol="100" pos="156"/>
                <note pan="0" key="57" len="-192" vol="100" pos="168"/>
                <note pan="0" key="57" len="-192" vol="100" pos="180"/>
                <note pan="0" key="57" len="-192" vol="100" pos="192"/>
                <note pan="0" key="57" len="-192" vol="100" pos="204"/>
                <note pan="0" key="57" len="-192" vol="100" pos="216"/>
                <note pan="0" key="57" len="-192" vol="100" pos="228"/>
                <note pan="0" key="57" len="-192" vol="100" pos="240"/>
                <note pan="0" key="57" len="-192" vol="100" pos="252"/>
                <note pan="0" key="57" len="-192" vol="100" pos="264"/>
                <note pan="0" key="57" len="-192" vol="100" pos="276"/>
                <note pan="0" key="57" len="-192" vol="100" pos="288"/>
                <note pan="0" key="57" len="-192" vol="100" pos="300"/>
                <note pan="0" key="57" len="-192" vol="100" pos="312"/>
                <note pan="0" key="57" len="-192" vol="100" pos="324"/>
                <note pan="0" key="57" len="-192" vol="100" pos="336"/>
                <note pan="0" key="57" len="-192" vol="100" pos="348"/>
                <note pan="0" key="57" len="-192" vol="100" pos="360"/>
                <note pan="0" key="57" len="-192" vol="100" pos="372"/>
                <note pan="0" key="57" len="-192" vol="100" pos="384"/>
                <note pan="0" key="57" len="-192" vol="100" pos="396"/>
                <note pan="0" key="57" len="-192" vol="100" pos="408"/>
                <note pan="0" key="57" len="-192" vol="100" pos="420"/>
                <note pan="0" key="57" len="-192" vol="100" pos="432"/>
                <note pan="0" key="57" len="-192" vol="100" pos="444"/>
                <note pan="0" key="57" len="-192" vol="100" pos="456"/>
                <note pan="0" key="57" len="-192" vol="100" pos="468"/>
                <note pan="0" key="57" len="-192" vol="100" pos="480"/>
                <note pan="0" key="57" len="-192" vol="100" pos="492"/>
                <note pan="0" key="57" len="-192" vol="100" pos="504"/>
                <note pan="0" key="57" len="-192" vol="100" pos="516"/>
                <note pan="0" key="57" len="-192" vol="100" pos="528"/>
                <note pan="0" key="57" len="-192" vol="100" pos="540"/>
                <note pan="0" key="57" len="-192" vol="100" pos="552"/>
                <note pan="0" key="57" len="-192" vol="100" pos="564"/>
                <note pan="0" key="57" len="-192" vol="100" pos="576"/>
                <note pan="0" key="57" len="-192" vol="100" pos="588"/>
                <note pan="0" key="57" len="-192" vol="100" pos="600"/>
                <note pan="0" key="57" len="-192" vol="100" pos="612"/>
                <note pan="0" key="57" len="-192" vol="100" pos="624"/>
                <note pan="0" key="57" len="-192" vol="100" pos="636"/>
                <note pan="0" key="57" len="-192" vol="100" pos="648"/>
                <note pan="0" key="57" len="-192" vol="100" pos="660"/>
                <note pan="0" key="57" len="-192" vol="100" pos="672"/>
                <note pan="0" key="57" len="-192" vol="100" pos="684"/>
                <note pan="0" key="57" len="-192" vol="100" pos="696"/>
                <note pan="0" key="57" len="-192" vol="100" pos="708"/>
                <note pan="0" key="57" len="-192" vol="100" pos="720"/>
                <note pan="0" key="57" len="-192" vol="100" pos="732"/>
                <note pan="0" key="57" len="-192" vol="100" pos="744"/>
                <note pan="0" key="57" len="-192" vol="100" pos="756"/>
              </pattern>
              <pattern muted="0" type="0" pos="576" steps="64" name="kick.wav">
                <note pan="0" key="57" len="-192" vol="100" pos="0"/>
                <note pan="0" key="57" len="-192" vol="100" pos="12"/>
                <note pan="0" key="57" len="-192" vol="100" pos="24"/>
                <note pan="0" key="57" len="-192" vol="100" pos="36"/>
                <note pan="0" key="57" len="-192" vol="100" pos="48"/>
                <note pan="0" key="57" len="-192" vol="100" pos="60"/>
                <note pan="0" key="57" len="-192" vol="100" pos="72"/>
                <note pan="0" key="57" len="-192" vol="100" pos="84"/>
                <note pan="0" key="57" len="-192" vol="100" pos="96"/>
                <note pan="0" key="57" len="-192" vol="100" pos="108"/>
                <note pan="0" key="57" len="-192" vol="100" pos="120"/>
                <note pan="0" key="57" len="-192" vol="100" pos="132"/>
                <note pan="0" key="57" len="-192" vol="100" pos="144"/>
                <note pan="0" key="57" len="-192" vol="100" pos="156"/>
                <note pan="0" key="57" len="-192" vol="100" pos="168"/>
                <note pan="0" key="57" len="-192" vol="100" pos="180"/>
                <note pan="0" key="57" len="-192" vol="100" pos="192"/>
                <note pan="0" key="57" len="-192" vol="100" pos="204"/>
                <note pan="0" key="57" len="-192" vol="100" pos="216"/>
                <note pan="0" key="57" len="-192" vol="100" pos="228"/>
                <note pan="0" key="57" len="-192" vol="100" pos="240"/>
                <note pan="0" key="57" len="-192" vol="100" pos="252"/>
                <note pan="0" key="57" len="-192" vol="100" pos="264"/>
                <note pan="0" key="57" len="-192" vol="100" pos="276"/>
                <note pan="0" key="57" len="-192" vol="100" pos="288"/>
                <note pan="0" key="57" len="-192" vol="100" pos="300"/>
                <note pan="0" key="57" len="-192" vol="100" pos="312"/>
                <note pan="0" key="57" len="-192" vol="100" pos="324"/>
                <note pan="0" key="57" len="-192" vol="100" pos="336"/>
                <note pan="0" key="57" len="-192" vol="100" pos="348"/>
                <note pan="0" key="57" len="-192" vol="100" pos="360"/>
                <note pan="0" key="57" len="-192" vol="100" pos="372"/>
                <note pan="0" key="57" len="-192" vol="100" pos="384"/>
                <note pan="0" key="57" len="-192" vol="100" pos="396"/>
                <note pan="0" key="57" len="-192" vol="100" pos="408"/>
                <note pan="0" key="57" len="-192" vol="100" pos="420"/>
                <note pan="0" key="57" len="-192" vol="100" pos="432"/>
                <note pan="0" key="57" len="-192" vol="100" pos="444"/>
                <note pan="0" key="57" len="-192" vol="100" pos="456"/>
                <note pan="0" key="57" len="-192" vol="100" pos="468"/>
                <note pan="0" key="57" len="-192" vol="100" pos="480"/>
                <note pan="0" key="57" len="-192" vol="100" pos="492"/>
                <note pan="0" key="57" len="-192" vol="100" pos="504"/>
                <note pan="0" key="57" len="-192" vol="100" pos="516"/>
                <note pan="0" key="57" len="-192" vol="100" pos="528"/>
                <note pan="0" key="57" len="-192" vol="100" pos="540"/>
                <note pan="0" key="57" len="-192" vol="100" pos="552"/>
                <note pan="0" key="57" len="-192" vol="100" pos="564"/>
                <note pan="0" key="57" len="-192" vol="100" pos="576"/>
                <note pan="0" key="57" len="-192" vol="100" pos="588"/>
                <note pan="0" key="57" len="-192" vol="100" pos="600"/>
                <note pan="0" key="57" len="-192" vol="100" pos="612"/>
                <note pan="0" key="57" len="-192" vol="100" pos="624"/>
                <note pan="0" key="57" len="-192" vol="100" pos="636"/>
                <note pan="0" key="57" len="-192" vol="100" pos="648"/>
                <note pan="0" key="57" len="-192" vol="100" pos="660"/>
                <note pan="0" key="57" len="-192" vol="100" pos="672"/>
                <note pan="0" key="57" len="-192" vol="100" pos="684"/>
                <note pan="0" key="57" len="-192" vol="100" pos="696"/>
                <note pan="0" key="57" len="-192" vol="100" pos="708"/>
                <note pan="0" key="57" len="-192" vol="100" pos="720"/>
                <note pan="0" key="57" len="-192" vol="100" pos="732"/>
                <note pan="0" key="57" len="-192" vol="100" pos="744"/>
                <note pan="0" key="57" len="-192" vol="100" pos="756"/>
              </pattern>
              <pattern muted="0" type="0" pos="768" steps="64" name="kick.wav">
                <note pan="0" key="57" len="-192" vol="100" pos="0"/>
                <note pan="0" key="57" len="-192" vol="100" pos="12"/>
                <note pan="0" key="57" len="-192" vol="100" pos="24"/>
                <note pan="0" key="57" len="-192" vol="100" pos="36"/>
                <note pan="0" key="57" len="-192" vol="100" pos="48"/>
                <note pan="0" key="57" len="-192" vol="100" pos="60"/>
                <note pan="0" key="57" len="-192" vol="100" pos="72"/>
                <note pan="0" key="57" len="-192" vol="100" pos="84"/>
                <note pan="0" key="57" len="-192" vol="100" pos="96"/>
                <note pan="0" key="57" len="-192" vol="100" pos="108"/>
                <note pan="0" key="57" len="-192" vol="100" pos="120"/>
                <note pan="0" key="57" len="-192" vol="100" pos="132"/>
                <note pan="0" key="57" len="-192" vol="100" pos="144"/>
                <note pan="0" key="57" len="-192" vol="100" pos="156"/>
                <note pan="0" key="57" len="-192" vol="100" pos="168"/>
                <note pan="0" key="57" len="-192" vol="100" pos="180"/>
                <note pan="0" key="57" len="-192" vol="100" pos="192"/>
                <note pan="0" key="57" len="-192" vol="100" pos="204"/>
                <note pan="0" key="57" len="-192" vol="100" pos="216"/>
                <note pan="0" key="57" len="-192" vol="100" pos="228"/>
                <note pan="0" key="57" len="-192" vol="100" pos="240"/>
                <note pan="0" key="57" len="-192" vol="100" pos="252"/>
                <note pan="0" key="57" len="-192" vol="100" pos="264"/>
                <note pan="0" key="57" len="-192" vol="100" pos="276"/>
                <note pan="0" key="57" len="-192" vol="100" pos="288"/>
                <note pan="0" key="57" len="-192" vol="100" pos="300"/>
                <note pan="0" key="57" len="-192" vol="100" pos="312"/>
                <note pan="0" key="57" len="-192" vol="100" pos="324"/>
                <note pan="0" key="57" len="-192" vol="100" pos="336"/>
                <note pan="0" key="57" len="-192" vol="100" pos="348"/>
                <note pan="0" key="57" len="-192" vol="100" pos="360"/>
                <note pan="0" key="57" len="-192" vol="100" pos="372"/>
                <note pan="0" key="57" len="-192" vol="100" pos="384"/>
                <note pan="0" key="57" len="-192" vol="100" pos="396"/>
                <note pan="0" key="57" len="-192" vol="100" pos="408"/>
                <note pan="0" key="57" len="-192" vol="100" pos="420"/>
                <note pan="0" key="57" len="-192" vol="100" pos="432"/>
                <note pan="0" key="57" len="-192" vol="100" pos="444"/>
                <note pan="0" key="57" len="-192" vol="100" pos="456"/>
                <note pan="0" key="57" len="-192" vol="100" pos="468"/>
                <note pan="0" key="57" len="-192" vol="100" pos="480"/>
                <note pan="0" key="57" len="-192" vol="100" pos="492"/>
                <note pan="0" key="57" len="-192" vol="100" pos="504"/>
                <note pan="0" key="57" len="-192" vol="100" pos="516"/>
                <note pan="0" key="57" len="-192" vol="100" pos="528"/>
                <note pan="0" key="57" len="-192" vol="100" pos="540"/>
                <note pan="0" key="57" len="-192" vol="100" pos="552"/>
                <note pan="0" key="57" len="-192" vol="100" pos="564"/>
                <note pan="0" key="57" len="-192" vol="100" pos="576"/>
                <note pan="0" key="57" len="-192" vol="100" pos="588"/>
                <note pan="0" key="57" len="-192" vol="100" pos="600"/>
                <note pan="0" key="57" len="-192" vol="100" pos="612"/>
                <note pan="0" key="57" len="-192" vol="100" pos="624"/>
                <note pan="0" key="57" len="-192" vol="100" pos="636"/>
                <note pan="0" key="57" len="-192" vol="100" pos="648"/>
                <note pan="0" key="57" len="-192" vol="100" pos="660"/>
                <note pan="0" key="57" len="-192" vol="100" pos="672"/>
                <note pan="0" key="57" len="-192" vol="100" pos="684"/>
                <note pan="0" key="57" len="-192" vol="100" pos="696"/>
                <note pan="0" key="57" len="-192" vol="100" pos="708"/>
                <note pan="0" key="57" len="-192" vol="100" pos="720"/>
                <note pan="0" key="57" len="-192" vol="100" pos="732"/>
                <note pan="0" key="57" len="-192" vol="100" pos="744"/>
                <note pan="0" key="57" len="-192" vol="100" pos="756"/>
              </pattern>
              <pattern muted="0" type="0" pos="960" steps="32" name="kick.wav">
                <note pan="0" key="57" len="-192" vol="100" pos="0"/>
                <note pan="0" key="57" len="-192" vol="100" pos="12"/>
                <note pan="0" key="57" len="-192" vol="100" pos="24"/>
                <note pan="0" key="57" len="-192" vol="100" pos="36"/>
                <note pan="0" key="57" len="-192" vol="100" pos="48"/>
                <note pan="0" key="57" len="-192" vol="100" pos="60"/>
                <note pan="0" key="57" len="-192" vol="100" pos="72"/>
                <note pan="0" key="57" len="-192" vol="100" pos="84"/>
                <note pan="0" key="57" len="-192" vol="100" pos="96"/>
                <note pan="0" key="57" len="-192" vol="100" pos="108"/>
                <note pan="0" key="57" len="-192" vol="100" pos="120"/>
                <note pan="0" key="57" len="-192" vol="100" pos="132"/>
                <note pan="0" key="57" len="-192" vol="100" pos="144"/>
                <note pan="0" key="57" len="-192" vol="100" pos="156"/>
                <note pan="0" key="57" len="-192" vol="100" pos="168"/>
                <note pan="0" key="57" len="-192" vol="100" pos="180"/>
                <note pan="0" key="57" len="-192" vol="100" pos="192"/>
                <note pan="0" key="57" len="-192" vol="100" pos="204"/>
                <note pan="0" key="57" len="-192" vol="100" pos="216"/>
                <note pan="0" key="57" len="-192" vol="100" pos="228"/>
                <note pan="0" key="57" len="-192" vol="100" pos="240"/>
                <note pan="0" key="57" len="-192" vol="100" pos="252"/>
                <note pan="0" key="57" len="-192" vol="100" pos="264"/>
                <note pan="0" key="57" len="-192" vol="100" pos="276"/>
                <note pan="0" key="57" len="-192" vol="100" pos="288"/>
                <note pan="0" key="57" len="-192" vol="100" pos="300"/>
                <note pan="0" key="57" len="-192" vol="100" pos="312"/>
                <note pan="0" key="57" len="-192" vol="100" pos="324"/>
                <note pan="0" key="57" len="-192" vol="100" pos="336"/>
                <note pan="0" key="57" len="-192" vol="100" pos="348"/>
                <note pan="0" key="57" len="-192" vol="100" pos="360"/>
                <note pan="0" key="57" len="-192" vol="100" pos="372"/>
              </pattern>
              <pattern muted="0" type="0" pos="1152" steps="64" name="kick.wav">
                <note pan="0" key="57" len="-192" vol="100" pos="0"/>
                <note pan="0" key="57" len="-192" vol="100" pos="48"/>
                <note pan="0" key="57" len="-192" vol="100" pos="60"/>
                <note pan="0" key="57" len="-192" vol="100" pos="96"/>
                <note pan="0" key="57" len="-192" vol="100" pos="108"/>
                <note pan="0" key="57" len="-192" vol="100" pos="144"/>
                <note pan="0" key="57" len="-192" vol="100" pos="156"/>
                <note pan="0" key="57" len="-192" vol="100" pos="168"/>
                <note pan="0" key="57" len="-192" vol="100" pos="180"/>
                <note pan="0" key="57" len="-192" vol="100" pos="192"/>
                <note pan="0" key="57" len="-192" vol="100" pos="240"/>
                <note pan="0" key="57" len="-192" vol="100" pos="252"/>
                <note pan="0" key="57" len="-192" vol="100" pos="288"/>
                <note pan="0" key="57" len="-192" vol="100" pos="300"/>
                <note pan="0" key="57" len="-192" vol="100" pos="336"/>
                <note pan="0" key="57" len="-192" vol="100" pos="348"/>
                <note pan="0" key="57" len="-192" vol="100" pos="360"/>
                <note pan="0" key="57" len="-192" vol="100" pos="372"/>
                <note pan="0" key="57" len="-192" vol="100" pos="384"/>
                <note pan="0" key="57" len="-192" vol="100" pos="396"/>
                <note pan="0" key="57" len="-192" vol="100" pos="408"/>
                <note pan="0" key="57" len="-192" vol="100" pos="420"/>
                <note pan="0" key="57" len="-192" vol="100" pos="432"/>
                <note pan="0" key="57" len="-192" vol="100" pos="444"/>
                <note pan="0" key="57" len="-192" vol="100" pos="456"/>
                <note pan="0" key="57" len="-192" vol="100" pos="468"/>
                <note pan="0" key="57" len="-192" vol="100" pos="480"/>
                <note pan="0" key="57" len="-192" vol="100" pos="492"/>
                <note pan="0" key="57" len="-192" vol="100" pos="504"/>
                <note pan="0" key="57" len="-192" vol="100" pos="516"/>
                <note pan="0" key="57" len="-192" vol="100" pos="528"/>
                <note pan="0" key="57" len="-192" vol="100" pos="540"/>
                <note pan="0" key="57" len="-192" vol="100" pos="552"/>
                <note pan="0" key="57" len="-192" vol="100" pos="564"/>
                <note pan="0" key="57" len="-192" vol="100" pos="576"/>
                <note pan="0" key="57" len="-192" vol="100" pos="588"/>
                <note pan="0" key="57" len="-192" vol="100" pos="600"/>
                <note pan="0" key="57" len="-192" vol="100" pos="612"/>
                <note pan="0" key="57" len="-192" vol="100" pos="624"/>
                <note pan="0" key="57" len="-192" vol="100" pos="636"/>
                <note pan="0" key="57" len="-192" vol="100" pos="648"/>
                <note pan="0" key="57" len="-192" vol="100" pos="660"/>
                <note pan="0" key="57" len="-192" vol="100" pos="672"/>
                <note pan="0" key="57" len="-192" vol="100" pos="684"/>
                <note pan="0" key="57" len="-192" vol="100" pos="696"/>
                <note pan="0" key="57" len="-192" vol="100" pos="708"/>
                <note pan="0" key="57" len="-192" vol="100" pos="720"/>
                <note pan="0" key="57" len="-192" vol="100" pos="732"/>
                <note pan="0" key="57" len="-192" vol="100" pos="744"/>
                <note pan="0" key="57" len="-192" vol="100" pos="756"/>
              </pattern>
              <pattern muted="0" type="0" pos="1344" steps="16" name="kick.wav">
                <note pan="0" key="57" len="-192" vol="100" pos="0"/>
                <note pan="0" key="57" len="-192" vol="100" pos="12"/>
                <note pan="0" key="57" len="-192" vol="100" pos="24"/>
                <note pan="0" key="57" len="-192" vol="100" pos="36"/>
                <note pan="0" key="57" len="-192" vol="100" pos="48"/>
                <note pan="0" key="57" len="-192" vol="100" pos="60"/>
                <note pan="0" key="57" len="-192" vol="100" pos="72"/>
                <note pan="0" key="57" len="-192" vol="100" pos="84"/>
                <note pan="0" key="57" len="-192" vol="100" pos="96"/>
                <note pan="0" key="57" len="-192" vol="100" pos="108"/>
                <note pan="0" key="57" len="-192" vol="100" pos="120"/>
                <note pan="0" key="57" len="-192" vol="100" pos="132"/>
                <note pan="0" key="57" len="-192" vol="100" pos="144"/>
                <note pan="0" key="57" len="-192" vol="100" pos="156"/>
                <note pan="0" key="57" len="-192" vol="100" pos="168"/>
                <note pan="0" key="57" len="-192" vol="100" pos="180"/>
              </pattern>
              <pattern muted="0" type="0" pos="1536" steps="64" name="kick.wav">
                <note pan="0" key="57" len="-192" vol="100" pos="0"/>
                <note pan="0" key="57" len="-192" vol="100" pos="48"/>
                <note pan="0" key="57" len="-192" vol="100" pos="96"/>
                <note pan="0" key="57" len="-192" vol="100" pos="144"/>
                <note pan="0" key="57" len="-192" vol="100" pos="156"/>
                <note pan="0" key="57" len="-192" vol="100" pos="168"/>
                <note pan="0" key="57" len="-192" vol="100" pos="180"/>
                <note pan="0" key="57" len="-192" vol="100" pos="192"/>
                <note pan="0" key="57" len="-192" vol="100" pos="240"/>
                <note pan="0" key="57" len="-192" vol="100" pos="288"/>
                <note pan="0" key="57" len="-192" vol="100" pos="336"/>
                <note pan="0" key="57" len="-192" vol="100" pos="348"/>
                <note pan="0" key="57" len="-192" vol="100" pos="360"/>
                <note pan="0" key="57" len="-192" vol="100" pos="372"/>
                <note pan="0" key="57" len="-192" vol="100" pos="384"/>
                <note pan="0" key="57" len="-192" vol="100" pos="432"/>
                <note pan="0" key="57" len="-192" vol="100" pos="480"/>
                <note pan="0" key="57" len="-192" vol="100" pos="528"/>
                <note pan="0" key="57" len="-192" vol="100" pos="540"/>
                <note pan="0" key="57" len="-192" vol="100" pos="552"/>
                <note pan="0" key="57" len="-192" vol="100" pos="564"/>
                <note pan="0" key="57" len="-192" vol="100" pos="576"/>
                <note pan="0" key="57" len="-192" vol="100" pos="624"/>
                <note pan="0" key="57" len="-192" vol="100" pos="672"/>
                <note pan="0" key="57" len="-192" vol="100" pos="720"/>
                <note pan="0" key="57" len="-192" vol="100" pos="732"/>
                <note pan="0" key="57" len="-192" vol="100" pos="744"/>
                <note pan="0" key="57" len="-192" vol="100" pos="756"/>
              </pattern>
              <pattern muted="0" type="0" pos="1728" steps="64" name="kick.wav">
                <note pan="0" key="57" len="-192" vol="100" pos="0"/>
                <note pan="0" key="57" len="-192" vol="100" pos="48"/>
                <note pan="0" key="57" len="-192" vol="100" pos="96"/>
                <note pan="0" key="57" len="-192" vol="100" pos="144"/>
                <note pan="0" key="57" len="-192" vol="100" pos="156"/>
                <note pan="0" key="57" len="-192" vol="100" pos="168"/>
                <note pan="0" key="57" len="-192" vol="100" pos="180"/>
                <note pan="0" key="57" len="-192" vol="100" pos="192"/>
                <note pan="0" key="57" len="-192" vol="100" pos="240"/>
                <note pan="0" key="57" len="-192" vol="100" pos="288"/>
                <note pan="0" key="57" len="-192" vol="100" pos="336"/>
                <note pan="0" key="57" len="-192" vol="100" pos="348"/>
                <note pan="0" key="57" len="-192" vol="100" pos="360"/>
                <note pan="0" key="57" len="-192" vol="100" pos="372"/>
                <note pan="0" key="57" len="-192" vol="100" pos="384"/>
                <note pan="0" key="57" len="-192" vol="100" pos="432"/>
                <note pan="0" key="57" len="-192" vol="100" pos="480"/>
                <note pan="0" key="57" len="-192" vol="100" pos="528"/>
                <note pan="0" key="57" len="-192" vol="100" pos="540"/>
                <note pan="0" key="57" len="-192" vol="100" pos="552"/>
                <note pan="0" key="57" len="-192" vol="100" pos="564"/>
                <note pan="0" key="57" len="-192" vol="100" pos="576"/>
                <note pan="0" key="57" len="-192" vol="100" pos="624"/>
                <note pan="0" key="57" len="-192" vol="100" pos="672"/>
                <note pan="0" key="57" len="-192" vol="100" pos="720"/>
                <note pan="0" key="57" len="-192" vol="100" pos="732"/>
                <note pan="0" key="57" len="-192" vol="100" pos="744"/>
                <note pan="0" key="57" len="-192" vol="100" pos="756"/>
              </pattern>
              <pattern muted="0" type="0" pos="1920" steps="16" name="kick.wav">
                <note pan="0" key="57" len="-192" vol="100" pos="0"/>
              </pattern>
              <pattern muted="0" type="0" pos="2112" steps="32" name="kick.wav">
                <note pan="0" key="57" len="-192" vol="100" pos="0"/>
                <note pan="0" key="57" len="-192" vol="100" pos="48"/>
                <note pan="0" key="57" len="-192" vol="100" pos="60"/>
                <note pan="0" key="57" len="-192" vol="100" pos="72"/>
                <note pan="0" key="57" len="-192" vol="100" pos="96"/>
                <note pan="0" key="57" len="-192" vol="100" pos="108"/>
                <note pan="0" key="57" len="-192" vol="100" pos="120"/>
                <note pan="0" key="57" len="-192" vol="100" pos="144"/>
                <note pan="0" key="57" len="-192" vol="100" pos="156"/>
                <note pan="0" key="57" len="-192" vol="100" pos="168"/>
                <note pan="0" key="57" len="-192" vol="100" pos="192"/>
                <note pan="0" key="57" len="-192" vol="100" pos="240"/>
                <note pan="0" key="57" len="-192" vol="100" pos="252"/>
                <note pan="0" key="57" len="-192" vol="100" pos="264"/>
                <note pan="0" key="57" len="-192" vol="100" pos="276"/>
                <note pan="0" key="57" len="-192" vol="100" pos="288"/>
                <note pan="0" key="57" len="-192" vol="100" pos="300"/>
                <note pan="0" key="57" len="-192" vol="100" pos="312"/>
                <note pan="0" key="57" len="-192" vol="100" pos="324"/>
                <note pan="0" key="57" len="-192" vol="100" pos="336"/>
                <note pan="0" key="57" len="-192" vol="100" pos="348"/>
                <note pan="0" key="57" len="-192" vol="100" pos="360"/>
                <note pan="0" key="57" len="-192" vol="100" pos="372"/>
              </pattern>
              <pattern muted="0" type="0" pos="2304" steps="32" name="kick.wav">
                <note pan="0" key="57" len="-192" vol="100" pos="0"/>
                <note pan="0" key="57" len="-192" vol="100" pos="12"/>
                <note pan="0" key="57" len="-192" vol="100" pos="24"/>
                <note pan="0" key="57" len="-192" vol="100" pos="36"/>
                <note pan="0" key="57" len="-192" vol="100" pos="48"/>
                <note pan="0" key="57" len="-192" vol="100" pos="60"/>
                <note pan="0" key="57" len="-192" vol="100" pos="72"/>
                <note pan="0" key="57" len="-192" vol="100" pos="84"/>
                <note pan="0" key="57" len="-192" vol="100" pos="96"/>
                <note pan="0" key="57" len="-192" vol="100" pos="108"/>
                <note pan="0" key="57" len="-192" vol="100" pos="120"/>
                <note pan="0" key="57" len="-192" vol="100" pos="132"/>
                <note pan="0" key="57" len="-192" vol="100" pos="144"/>
                <note pan="0" key="57" len="-192" vol="100" pos="156"/>
                <note pan="0" key="57" len="-192" vol="100" pos="168"/>
                <note pan="0" key="57" len="-192" vol="100" pos="180"/>
                <note pan="0" key="57" len="-192" vol="100" pos="192"/>
                <note pan="0" key="57" len="-192" vol="100" pos="204"/>
                <note pan="0" key="57" len="-192" vol="100" pos="216"/>
                <note pan="0" key="57" len="-192" vol="100" pos="228"/>
                <note pan="0" key="57" len="-192" vol="100" pos="240"/>
                <note pan="0" key="57" len="-192" vol="100" pos="252"/>
                <note pan="0" key="57" len="-192" vol="100" pos="264"/>
                <note pan="0" key="57" len="-192" vol="100" pos="276"/>
                <note pan="0" key="57" len="-192" vol="100" pos="288"/>
                <note pan="0" key="57" len="-192" vol="100" pos="300"/>
                <note pan="0" key="57" len="-192" vol="100" pos="312"/>
                <note pan="0" key="57" len="-192" vol="100" pos="324"/>
                <note pan="0" key="57" len="-192" vol="100" pos="336"/>
                <note pan="0" key="57" len="-192" vol="100" pos="348"/>
                <note pan="0" key="57" len="-192" vol="100" pos="360"/>
                <note pan="0" key="57" len="-192" vol="100" pos="372"/>
              </pattern>
              <pattern muted="0" type="0" pos="2496" steps="16" name="kick.wav">
                <note pan="0" key="57" len="-192" vol="100" pos="0"/>
                <note pan="0" key="57" len="-192" vol="100" pos="12"/>
                <note pan="0" key="57" len="-192" vol="100" pos="24"/>
                <note pan="0" key="57" len="-192" vol="100" pos="72"/>
                <note pan="0" key="57" len="-192" vol="100" pos="84"/>
                <note pan="0" key="57" len="-192" vol="100" pos="96"/>
                <note pan="0" key="57" len="-192" vol="100" pos="144"/>
                <note pan="0" key="57" len="-192" vol="100" pos="168"/>
              </pattern>
              <pattern muted="0" type="0" pos="2688" steps="96" name="kick.wav">
                <note pan="0" key="57" len="-192" vol="100" pos="0"/>
                <note pan="0" key="57" len="-192" vol="100" pos="48"/>
                <note pan="0" key="57" len="-192" vol="100" pos="96"/>
                <note pan="0" key="57" len="-192" vol="100" pos="144"/>
                <note pan="0" key="57" len="-192" vol="100" pos="168"/>
                <note pan="0" key="57" len="-192" vol="100" pos="192"/>
                <note pan="0" key="57" len="-192" vol="100" pos="240"/>
                <note pan="0" key="57" len="-192" vol="100" pos="288"/>
                <note pan="0" key="57" len="-192" vol="100" pos="336"/>
                <note pan="0" key="57" len="-192" vol="100" pos="360"/>
                <note pan="0" key="57" len="-192" vol="100" pos="384"/>
                <note pan="0" key="57" len="-192" vol="100" pos="432"/>
                <note pan="0" key="57" len="-192" vol="100" pos="480"/>
                <note pan="0" key="57" len="-192" vol="100" pos="528"/>
                <note pan="0" key="57" len="-192" vol="100" pos="552"/>
                <note pan="0" key="57" len="-192" vol="100" pos="576"/>
                <note pan="0" key="57" len="-192" vol="100" pos="624"/>
                <note pan="0" key="57" len="-192" vol="100" pos="672"/>
                <note pan="0" key="57" len="-192" vol="100" pos="720"/>
                <note pan="0" key="57" len="-192" vol="100" pos="744"/>
                <note pan="0" key="57" len="-192" vol="100" pos="768"/>
                <note pan="0" key="57" len="-192" vol="100" pos="792"/>
                <note pan="0" key="57" len="-192" vol="100" pos="816"/>
                <note pan="0" key="57" len="-192" vol="100" pos="840"/>
                <note pan="0" key="57" len="-192" vol="100" pos="864"/>
                <note pan="0" key="57" len="-192" vol="100" pos="888"/>
                <note pan="0" key="57" len="-192" vol="100" pos="912"/>
                <note pan="0" key="57" len="-192" vol="100" pos="924"/>
                <note pan="0" key="57" len="-192" vol="100" pos="936"/>
                <note pan="0" key="57" len="-192" vol="100" pos="948"/>
                <note pan="0" key="57" len="-192" vol="100" pos="960"/>
                <note pan="0" key="57" len="-192" vol="100" pos="972"/>
                <note pan="0" key="57" len="-192" vol="100" pos="984"/>
                <note pan="0" key="57" len="-192" vol="100" pos="996"/>
                <note pan="0" key="57" len="-192" vol="100" pos="1008"/>
                <note pan="0" key="57" len="-192" vol="100" pos="1032"/>
                <note pan="0" key="57" len="-192" vol="100" pos="1044"/>
                <note pan="0" key="57" len="-192" vol="100" pos="1056"/>
                <note pan="0" key="57" len="-192" vol="100" pos="1068"/>
                <note pan="0" key="57" len="-192" vol="100" pos="1104"/>
                <note pan="0" key="57" len="-192" vol="100" pos="1116"/>
                <note pan="0" key="57" len="-192" vol="100" pos="1128"/>
                <note pan="0" key="57" len="-192" vol="100" pos="1140"/>
              </pattern>
              <pattern muted="0" type="0" pos="2880" steps="64" name="kick.wav">
                <note pan="0" key="57" len="-192" vol="100" pos="0"/>
                <note pan="0" key="57" len="-192" vol="100" pos="12"/>
                <note pan="0" key="57" len="-192" vol="100" pos="24"/>
                <note pan="0" key="57" len="-192" vol="100" pos="36"/>
                <note pan="0" key="57" len="-192" vol="100" pos="48"/>
                <note pan="0" key="57" len="-192" vol="100" pos="60"/>
                <note pan="0" key="57" len="-192" vol="100" pos="72"/>
                <note pan="0" key="57" len="-192" vol="100" pos="84"/>
                <note pan="0" key="57" len="-192" vol="100" pos="96"/>
                <note pan="0" key="57" len="-192" vol="100" pos="108"/>
                <note pan="0" key="57" len="-192" vol="100" pos="120"/>
                <note pan="0" key="57" len="-192" vol="100" pos="132"/>
                <note pan="0" key="57" len="-192" vol="100" pos="144"/>
                <note pan="0" key="57" len="-192" vol="100" pos="156"/>
                <note pan="0" key="57" len="-192" vol="100" pos="168"/>
                <note pan="0" key="57" len="-192" vol="100" pos="180"/>
                <note pan="0" key="57" len="-192" vol="100" pos="192"/>
                <note pan="0" key="57" len="-192" vol="100" pos="204"/>
                <note pan="0" key="57" len="-192" vol="100" pos="216"/>
                <note pan="0" key="57" len="-192" vol="100" pos="228"/>
                <note pan="0" key="57" len="-192" vol="100" pos="240"/>
                <note pan="0" key="57" len="-192" vol="100" pos="252"/>
                <note pan="0" key="57" len="-192" vol="100" pos="264"/>
                <note pan="0" key="57" len="-192" vol="100" pos="276"/>
                <note pan="0" key="57" len="-192" vol="100" pos="288"/>
                <note pan="0" key="57" len="-192" vol="100" pos="300"/>
                <note pan="0" key="57" len="-192" vol="100" pos="312"/>
                <note pan="0" key="57" len="-192" vol="100" pos="324"/>
                <note pan="0" key="57" len="-192" vol="100" pos="336"/>
                <note pan="0" key="57" len="-192" vol="100" pos="348"/>
                <note pan="0" key="57" len="-192" vol="100" pos="360"/>
                <note pan="0" key="57" len="-192" vol="100" pos="372"/>
                <note pan="0" key="57" len="-192" vol="100" pos="384"/>
                <note pan="0" key="57" len="-192" vol="100" pos="396"/>
                <note pan="0" key="57" len="-192" vol="100" pos="408"/>
                <note pan="0" key="57" len="-192" vol="100" pos="420"/>
                <note pan="0" key="57" len="-192" vol="100" pos="432"/>
                <note pan="0" key="57" len="-192" vol="100" pos="444"/>
                <note pan="0" key="57" len="-192" vol="100" pos="456"/>
                <note pan="0" key="57" len="-192" vol="100" pos="468"/>
                <note pan="0" key="57" len="-192" vol="100" pos="480"/>
                <note pan="0" key="57" len="-192" vol="100" pos="492"/>
                <note pan="0" key="57" len="-192" vol="100" pos="504"/>
                <note pan="0" key="57" len="-192" vol="100" pos="516"/>
                <note pan="0" key="57" len="-192" vol="100" pos="528"/>
                <note pan="0" key="57" len="-192" vol="100" pos="540"/>
                <note pan="0" key="57" len="-192" vol="100" pos="552"/>
                <note pan="0" key="57" len="-192" vol="100" pos="564"/>
                <note pan="0" key="57" len="-192" vol="100" pos="576"/>
                <note pan="0" key="57" len="-192" vol="100" pos="588"/>
                <note pan="0" key="57" len="-192" vol="100" pos="600"/>
                <note pan="0" key="57" len="-192" vol="100" pos="612"/>
                <note pan="0" key="57" len="-192" vol="100" pos="624"/>
                <note pan="0" key="57" len="-192" vol="100" pos="636"/>
                <note pan="0" key="57" len="-192" vol="100" pos="648"/>
                <note pan="0" key="57" len="-192" vol="100" pos="660"/>
                <note pan="0" key="57" len="-192" vol="100" pos="672"/>
              </pattern>
            </track>
            <track muted="0" type="0" solo="0" name="hihat_opened02.ogg">
              <instrumenttrack basenote="57" fxch="2" pan="-21.6" pitchrange="1" vol="56.8" pitch="0" usemasterpitch="1">
                <instrument name="audiofileprocessor">
                  <audiofileprocessor eframe="1" src="drums/hihat_opened02.ogg" interp="1" looped="0" sframe="0" reversed="0" amp="100" lframe="0" stutter="0"/>
                </instrument>
                <eldata ftype="0" fwet="0" fres="0.5" fcut="14000">
                  <elvol sustain="0" amt="1" att="0" rel="0" ctlenvamt="0" lspd="0.1" lamt="0" hold="2" lshp="0" lspd_denominator="4" lpdel="0" latt="0" lspd_numerator="4" pdel="0" lspd_syncmode="0" userwavefile="" dec="2" x100="0"/>
                  <elcut sustain="0.5" amt="0" att="0" rel="0.1" ctlenvamt="0" lspd="0.1" lamt="0" hold="0.5" lshp="0" lspd_denominator="4" lpdel="0" latt="0" lspd_numerator="4" pdel="0" lspd_syncmode="0" userwavefile="" dec="0.5" x100="0"/>
                  <elres sustain="0.5" amt="0" att="0" rel="0.1" ctlenvamt="0" lspd="0.1" lamt="0" hold="0.5" lshp="0" lspd_denominator="4" lpdel="0" latt="0" lspd_numerator="4" pdel="0" lspd_syncmode="0" userwavefile="" dec="0.5" x100="0"/>
                </eldata>
                <chordcreator chord-enabled="0" chordrange="1" chord="0"/>
                <arpeggiator arptime="200" arptime_denominator="4" arpmiss="0" arpgate="100" arpdir="0" arprange="1" arpskip="0" arptime_numerator="4" arp="0" arptime_syncmode="0" arpcycle="0" arp-enabled="0" arpmode="0"/>
                <midiport fixedoutputvelocity="-1" inputcontroller="0" fixedinputvelocity="-1" outputchannel="1" readable="0" fixedoutputnote="-1" outputprogram="1" inputchannel="0" outputcontroller="0" basevelocity="63" writable="0"/>
                <fxchain numofeffects="0" enabled="0"/>
              </instrumenttrack>
              <pattern muted="0" type="0" pos="0" steps="16" name="hihat_opened02.ogg"/>
              <pattern muted="0" type="0" pos="192" steps="32" name="hihat_opened02.ogg">
                <note pan="0" key="57" len="-192" vol="100" pos="72"/>
                <note pan="0" key="57" len="-192" vol="100" pos="144"/>
                <note pan="0" key="57" len="-192" vol="100" pos="264"/>
              </pattern>
              <pattern muted="0" type="0" pos="384" steps="64" name="hihat_opened02.ogg">
                <note pan="0" key="57" len="-192" vol="100" pos="0"/>
                <note pan="0" key="57" len="-192" vol="100" pos="96"/>
                <note pan="0" key="57" len="-192" vol="100" pos="192"/>
                <note pan="0" key="57" len="-192" vol="100" pos="288"/>
                <note pan="0" key="57" len="-192" vol="100" pos="384"/>
                <note pan="0" key="57" len="-192" vol="100" pos="480"/>
                <note pan="0" key="57" len="-192" vol="100" pos="576"/>
                <note pan="0" key="57" len="-192" vol="100" pos="672"/>
              </pattern>
              <pattern muted="0" type="0" pos="576" steps="48" name="hihat_opened02.ogg">
                <note pan="0" key="57" len="-192" vol="100" pos="0"/>
                <note pan="0" key="57" len="-192" vol="100" pos="96"/>
                <note pan="0" key="57" len="-192" vol="100" pos="192"/>
                <note pan="0" key="57" len="-192" vol="100" pos="288"/>
                <note pan="0" key="57" len="-192" vol="100" pos="432"/>
                <note pan="0" key="57" len="-192" vol="100" pos="480"/>
                <note pan="0" key="57" len="-192" vol="100" pos="528"/>
              </pattern>
              <pattern muted="0" type="0" pos="768" steps="64" name="hihat_opened02.ogg">
                <note pan="0" key="57" len="-192" vol="100" pos="0"/>
                <note pan="0" key="57" len="-192" vol="100" pos="48"/>
                <note pan="0" key="57" len="-192" vol="100" pos="96"/>
                <note pan="0" key="57" len="-192" vol="100" pos="144"/>
                <note pan="0" key="57" len="-192" vol="100" pos="192"/>
                <note pan="0" key="57" len="-192" vol="100" pos="240"/>
                <note pan="0" key="57" len="-192" vol="100" pos="288"/>
                <note pan="0" key="57" len="-192" vol="100" pos="336"/>
                <note pan="0" key="57" len="-192" vol="100" pos="384"/>
                <note pan="0" key="57" len="-192" vol="100" pos="432"/>
                <note pan="0" key="57" len="-192" vol="100" pos="480"/>
                <note pan="0" key="57" len="-192" vol="100" pos="528"/>
                <note pan="0" key="57" len="-192" vol="100" pos="576"/>
                <note pan="0" key="57" len="-192" vol="100" pos="624"/>
                <note pan="0" key="57" len="-192" vol="100" pos="672"/>
                <note pan="0" key="57" len="-192" vol="100" pos="720"/>
              </pattern>
              <pattern muted="0" type="0" pos="960" steps="32" name="hihat_opened02.ogg">
                <note pan="0" key="57" len="-192" vol="100" pos="0"/>
                <note pan="0" key="57" len="-192" vol="100" pos="48"/>
                <note pan="0" key="57" len="-192" vol="100" pos="96"/>
                <note pan="0" key="57" len="-192" vol="100" pos="144"/>
              </pattern>
              <pattern muted="0" type="0" pos="1152" steps="64" name="hihat_opened02.ogg">
                <note pan="0" key="57" len="-192" vol="100" pos="0"/>
                <note pan="0" key="57" len="-192" vol="100" pos="48"/>
                <note pan="0" key="57" len="-192" vol="100" pos="96"/>
                <note pan="0" key="57" len="-192" vol="100" pos="144"/>
                <note pan="0" key="57" len="-192" vol="100" pos="192"/>
                <note pan="0" key="57" len="-192" vol="100" pos="240"/>
                <note pan="0" key="57" len="-192" vol="100" pos="288"/>
                <note pan="0" key="57" len="-192" vol="100" pos="336"/>
                <note pan="0" key="57" len="-192" vol="100" pos="384"/>
                <note pan="0" key="57" len="-192" vol="100" pos="432"/>
                <note pan="0" key="57" len="-192" vol="100" pos="480"/>
                <note pan="0" key="57" len="-192" vol="100" pos="528"/>
                <note pan="0" key="57" len="-192" vol="100" pos="576"/>
                <note pan="0" key="57" len="-192" vol="100" pos="624"/>
                <note pan="0" key="57" len="-192" vol="100" pos="672"/>
                <note pan="0" key="57" len="-192" vol="100" pos="720"/>
              </pattern>
              <pattern muted="0" type="0" pos="1344" steps="16" name="hihat_opened02.ogg"/>
              <pattern muted="0" type="0" pos="1536" steps="64" name="hihat_opened02.ogg">
                <note pan="0" key="57" len="-192" vol="100" pos="0"/>
                <note pan="0" key="57" len="-192" vol="100" pos="48"/>
                <note pan="0" key="57" len="-192" vol="100" pos="96"/>
                <note pan="0" key="57" len="-192" vol="100" pos="144"/>
                <note pan="0" key="57" len="-192" vol="100" pos="192"/>
                <note pan="0" key="57" len="-192" vol="100" pos="240"/>
                <note pan="0" key="57" len="-192" vol="100" pos="288"/>
                <note pan="0" key="57" len="-192" vol="100" pos="336"/>
                <note pan="0" key="57" len="-192" vol="100" pos="384"/>
                <note pan="0" key="57" len="-192" vol="100" pos="432"/>
                <note pan="0" key="57" len="-192" vol="100" pos="480"/>
                <note pan="0" key="57" len="-192" vol="100" pos="528"/>
                <note pan="0" key="57" len="-192" vol="100" pos="576"/>
                <note pan="0" key="57" len="-192" vol="100" pos="624"/>
                <note pan="0" key="57" len="-192" vol="100" pos="672"/>
                <note pan="0" key="57" len="-192" vol="100" pos="720"/>
              </pattern>
              <pattern muted="0" type="0" pos="1728" steps="64" name="hihat_opened02.ogg">
                <note pan="0" key="57" len="-192" vol="100" pos="0"/>
                <note pan="0" key="57" len="-192" vol="100" pos="48"/>
                <note pan="0" key="57" len="-192" vol="100" pos="96"/>
                <note pan="0" key="57" len="-192" vol="100" pos="144"/>
                <note pan="0" key="57" len="-192" vol="100" pos="192"/>
                <note pan="0" key="57" len="-192" vol="100" pos="240"/>
                <note pan="0" key="57" len="-192" vol="100" pos="288"/>
                <note pan="0" key="57" len="-192" vol="100" pos="336"/>
                <note pan="0" key="57" len="-192" vol="100" pos="384"/>
                <note pan="0" key="57" len="-192" vol="100" pos="432"/>
                <note pan="0" key="57" len="-192" vol="100" pos="480"/>
                <note pan="0" key="57" len="-192" vol="100" pos="528"/>
                <note pan="0" key="57" len="-192" vol="100" pos="576"/>
                <note pan="0" key="57" len="-192" vol="100" pos="624"/>
                <note pan="0" key="57" len="-192" vol="100" pos="672"/>
                <note pan="0" key="57" len="-192" vol="100" pos="720"/>
              </pattern>
              <pattern muted="0" type="0" pos="1920" steps="16" name="hihat_opened02.ogg"/>
              <pattern muted="0" type="0" pos="2112" steps="32" name="hihat_opened02.ogg">
                <note pan="0" key="57" len="-192" vol="100" pos="48"/>
                <note pan="0" key="57" len="-192" vol="100" pos="96"/>
                <note pan="0" key="57" len="-192" vol="100" pos="144"/>
                <note pan="0" key="57" len="-192" vol="100" pos="240"/>
                <note pan="0" key="57" len="-192" vol="100" pos="288"/>
                <note pan="0" key="57" len="-192" vol="100" pos="336"/>
              </pattern>
              <pattern muted="0" type="0" pos="2304" steps="32" name="hihat_opened02.ogg">
                <note pan="0" key="57" len="-192" vol="100" pos="48"/>
                <note pan="0" key="57" len="-192" vol="100" pos="96"/>
                <note pan="0" key="57" len="-192" vol="100" pos="144"/>
                <note pan="0" key="57" len="-192" vol="100" pos="192"/>
                <note pan="0" key="57" len="-192" vol="100" pos="240"/>
                <note pan="0" key="57" len="-192" vol="100" pos="288"/>
                <note pan="0" key="57" len="-192" vol="100" pos="336"/>
              </pattern>
              <pattern muted="0" type="0" pos="2496" steps="16" name="hihat_opened02.ogg">
                <note pan="0" key="57" len="-192" vol="100" pos="144"/>
                <note pan="0" key="57" len="-192" vol="100" pos="168"/>
              </pattern>
              <pattern muted="0" type="0" pos="2688" steps="96" name="hihat_opened02.ogg">
                <note pan="0" key="57" len="-192" vol="100" pos="24"/>
                <note pan="0" key="57" len="-192" vol="100" pos="72"/>
                <note pan="0" key="57" len="-192" vol="100" pos="120"/>
                <note pan="0" key="57" len="-192" vol="100" pos="168"/>
                <note pan="0" key="57" len="-192" vol="100" pos="216"/>
                <note pan="0" key="57" len="-192" vol="100" pos="264"/>
                <note pan="0" key="57" len="-192" vol="100" pos="312"/>
                <note pan="0" key="57" len="-192" vol="100" pos="360"/>
                <note pan="0" key="57" len="-192" vol="100" pos="408"/>
                <note pan="0" key="57" len="-192" vol="100" pos="456"/>
                <note pan="0" key="57" len="-192" vol="100" pos="504"/>
                <note pan="0" key="57" len="-192" vol="100" pos="552"/>
                <note pan="0" key="57" len="-192" vol="100" pos="600"/>
                <note pan="0" key="57" len="-192" vol="100" pos="648"/>
              </pattern>
              <pattern muted="0" type="0" pos="2880" steps="64" name="hihat_opened02.ogg">
                <note pan="0" key="57" len="-192" vol="100" pos="48"/>
                <note pan="0" key="57" len="-192" vol="100" pos="144"/>
                <note pan="0" key="57" len="-192" vol="100" pos="240"/>
                <note pan="0" key="57" len="-192" vol="100" pos="336"/>
              </pattern>
            </track>
            <track muted="0" type="0" solo="0" name="snare.wav">
              <instrumenttrack basenote="57" fxch="3" pan="0" pitchrange="1" vol="200" pitch="0" usemasterpitch="1">
                <instrument name="audiofileprocessor">
                  <audiofileprocessor eframe="1" src="/home/pass/samples/sillydrums/snare.wav" interp="1" looped="0" sframe="0" reversed="0" amp="100" lframe="0" stutter="0"/>
                </instrument>
                <eldata ftype="0" fwet="0" fres="0.5" fcut="14000">
                  <elvol sustain="1" amt="1" att="0" rel="2" ctlenvamt="0" lspd="0.1" lamt="0" hold="2" lshp="0" lspd_denominator="4" lpdel="0" latt="0" lspd_numerator="4" pdel="0" lspd_syncmode="0" userwavefile="" dec="2" x100="0"/>
                  <elcut sustain="0.5" amt="0" att="0" rel="0.1" ctlenvamt="0" lspd="0.1" lamt="0" hold="0.5" lshp="0" lspd_denominator="4" lpdel="0" latt="0" lspd_numerator="4" pdel="0" lspd_syncmode="0" userwavefile="" dec="0.5" x100="0"/>
                  <elres sustain="0.5" amt="0" att="0" rel="0.1" ctlenvamt="0" lspd="0.1" lamt="0" hold="0.5" lshp="0" lspd_denominator="4" lpdel="0" latt="0" lspd_numerator="4" pdel="0" lspd_syncmode="0" userwavefile="" dec="0.5" x100="0"/>
                </eldata>
                <chordcreator chord-enabled="0" chordrange="1" chord="0"/>
                <arpeggiator arptime="200" arptime_denominator="4" arpmiss="0" arpgate="100" arpdir="0" arprange="1" arpskip="0" arptime_numerator="4" arp="0" arptime_syncmode="0" arpcycle="0" arp-enabled="0" arpmode="0"/>
                <midiport fixedoutputvelocity="-1" inputcontroller="0" fixedinputvelocity="-1" outputchannel="1" readable="0" fixedoutputnote="-1" outputprogram="1" inputchannel="0" outputcontroller="0" basevelocity="63" writable="0"/>
                <fxchain numofeffects="0" enabled="0"/>
              </instrumenttrack>
              <pattern muted="0" type="0" pos="0" steps="64" name="snare.wav">
                <note pan="0" key="57" len="-192" vol="100" pos="720"/>
                <note pan="0" key="57" len="-192" vol="100" pos="732"/>
                <note pan="0" key="57" len="-192" vol="100" pos="744"/>
                <note pan="0" key="57" len="-192" vol="100" pos="756"/>
              </pattern>
              <pattern muted="0" type="0" pos="192" steps="32" name="snare.wav">
                <note pan="0" key="57" len="-192" vol="100" pos="96"/>
                <note pan="0" key="57" len="-192" vol="100" pos="288"/>
              </pattern>
              <pattern muted="0" type="0" pos="384" steps="64" name="snare.wav">
                <note pan="0" key="57" len="-192" vol="100" pos="48"/>
                <note pan="0" key="57" len="-192" vol="100" pos="144"/>
                <note pan="0" key="57" len="-192" vol="100" pos="240"/>
                <note pan="0" key="57" len="-192" vol="100" pos="336"/>
                <note pan="0" key="57" len="-192" vol="100" pos="432"/>
                <note pan="0" key="57" len="-192" vol="100" pos="528"/>
                <note pan="0" key="57" len="-192" vol="100" pos="624"/>
                <note pan="0" key="57" len="-192" vol="100" pos="720"/>
              </pattern>
              <pattern muted="0" type="0" pos="576" steps="64" name="snare.wav">
                <note pan="0" key="57" len="-192" vol="100" pos="48"/>
                <note pan="0" key="57" len="-192" vol="100" pos="144"/>
                <note pan="0" key="57" len="-192" vol="100" pos="240"/>
                <note pan="0" key="57" len="-192" vol="100" pos="336"/>
                <note pan="0" key="57" len="-192" vol="100" pos="384"/>
                <note pan="0" key="57" len="-192" vol="100" pos="432"/>
                <note pan="0" key="57" len="-192" vol="100" pos="480"/>
                <note pan="0" key="57" len="-192" vol="100" pos="528"/>
                <note pan="0" key="57" len="-192" vol="100" pos="576"/>
                <note pan="0" key="57" len="-192" vol="100" pos="588"/>
                <note pan="0" key="57" len="-192" vol="100" pos="624"/>
                <note pan="0" key="57" len="-192" vol="100" pos="636"/>
                <note pan="0" key="57" len="-192" vol="100" pos="672"/>
                <note pan="0" key="57" len="-192" vol="100" pos="684"/>
              </pattern>
              <pattern muted="0" type="0" pos="768" steps="64" name="snare.wav">
                <note pan="0" key="57" len="-192" vol="100" pos="24"/>
                <note pan="0" key="57" len="-192" vol="100" pos="72"/>
                <note pan="0" key="57" len="-192" vol="100" pos="120"/>
                <note pan="0" key="57" len="-192" vol="100" pos="168"/>
                <note pan="0" key="57" len="-192" vol="100" pos="216"/>
                <note pan="0" key="57" len="-192" vol="100" pos="264"/>
                <note pan="0" key="57" len="-192" vol="100" pos="312"/>
                <note pan="0" key="57" len="-192" vol="100" pos="360"/>
                <note pan="0" key="57" len="-192" vol="100" pos="408"/>
                <note pan="0" key="57" len="-192" vol="100" pos="456"/>
                <note pan="0" key="57" len="-192" vol="100" pos="504"/>
                <note pan="0" key="57" len="-192" vol="100" pos="552"/>
                <note pan="0" key="57" len="-192" vol="100" pos="600"/>
                <note pan="0" key="57" len="-192" vol="100" pos="648"/>
                <note pan="0" key="57" len="-192" vol="100" pos="696"/>
                <note pan="0" key="57" len="-192" vol="100" pos="744"/>
              </pattern>
              <pattern muted="0" type="0" pos="960" steps="32" name="snare.wav">
                <note pan="0" key="57" len="-192" vol="100" pos="24"/>
                <note pan="0" key="57" len="-192" vol="100" pos="72"/>
                <note pan="0" key="57" len="-192" vol="100" pos="120"/>
                <note pan="0" key="57" len="-192" vol="100" pos="168"/>
                <note pan="0" key="57" len="-192" vol="100" pos="192"/>
                <note pan="0" key="57" len="-192" vol="100" pos="204"/>
                <note pan="0" key="57" len="-192" vol="100" pos="240"/>
                <note pan="0" key="57" len="-192" vol="100" pos="252"/>
                <note pan="0" key="57" len="-192" vol="100" pos="288"/>
                <note pan="0" key="57" len="-192" vol="100" pos="300"/>
              </pattern>
              <pattern muted="0" type="0" pos="1152" steps="64" name="snare.wav">
                <note pan="0" key="57" len="-192" vol="100" pos="24"/>
                <note pan="0" key="57" len="-192" vol="100" pos="72"/>
                <note pan="0" key="57" len="-192" vol="100" pos="120"/>
                <note pan="0" key="57" len="-192" vol="100" pos="168"/>
                <note pan="0" key="57" len="-192" vol="100" pos="216"/>
                <note pan="0" key="57" len="-192" vol="100" pos="264"/>
                <note pan="0" key="57" len="-192" vol="100" pos="312"/>
                <note pan="0" key="57" len="-192" vol="100" pos="360"/>
                <note pan="0" key="57" len="-192" vol="100" pos="408"/>
                <note pan="0" key="57" len="-192" vol="100" pos="456"/>
                <note pan="0" key="57" len="-192" vol="100" pos="504"/>
                <note pan="0" key="57" len="-192" vol="100" pos="552"/>
                <note pan="0" key="57" len="-192" vol="100" pos="600"/>
                <note pan="0" key="57" len="-192" vol="100" pos="648"/>
                <note pan="0" key="57" len="-192" vol="100" pos="696"/>
                <note pan="0" key="57" len="-192" vol="100" pos="744"/>
              </pattern>
              <pattern muted="0" type="0" pos="1344" steps="16" name="snare.wav">
                <note pan="0" key="57" len="-192" vol="100" pos="0"/>
                <note pan="0" key="57" len="-192" vol="100" pos="12"/>
                <note pan="0" key="57" len="-192" vol="100" pos="24"/>
                <note pan="0" key="57" len="-192" vol="100" pos="36"/>
                <note pan="0" key="57" len="-192" vol="100" pos="48"/>
                <note pan="0" key="57" len="-192" vol="100" pos="60"/>
                <note pan="0" key="57" len="-192" vol="100" pos="72"/>
                <note pan="0" key="57" len="-192" vol="100" pos="84"/>
                <note pan="0" key="57" len="-192" vol="100" pos="96"/>
                <note pan="0" key="57" len="-192" vol="100" pos="144"/>
              </pattern>
              <pattern muted="0" type="0" pos="1536" steps="64" name="snare.wav">
                <note pan="0" key="57" len="-192" vol="100" pos="24"/>
                <note pan="0" key="57" len="-192" vol="100" pos="72"/>
                <note pan="0" key="57" len="-192" vol="100" pos="120"/>
                <note pan="0" key="57" len="-192" vol="100" pos="168"/>
                <note pan="0" key="57" len="-192" vol="100" pos="216"/>
                <note pan="0" key="57" len="-192" vol="100" pos="264"/>
                <note pan="0" key="57" len="-192" vol="100" pos="312"/>
                <note pan="0" key="57" len="-192" vol="100" pos="360"/>
                <note pan="0" key="57" len="-192" vol="100" pos="408"/>
                <note pan="0" key="57" len="-192" vol="100" pos="456"/>
                <note pan="0" key="57" len="-192" vol="100" pos="504"/>
                <note pan="0" key="57" len="-192" vol="100" pos="552"/>
                <note pan="0" key="57" len="-192" vol="100" pos="600"/>
                <note pan="0" key="57" len="-192" vol="100" pos="648"/>
                <note pan="0" key="57" len="-192" vol="100" pos="696"/>
                <note pan="0" key="57" len="-192" vol="100" pos="744"/>
              </pattern>
              <pattern muted="0" type="0" pos="1728" steps="64" name="snare.wav">
                <note pan="0" key="57" len="-192" vol="100" pos="24"/>
                <note pan="0" key="57" len="-192" vol="100" pos="72"/>
                <note pan="0" key="57" len="-192" vol="100" pos="120"/>
                <note pan="0" key="57" len="-192" vol="100" pos="168"/>
                <note pan="0" key="57" len="-192" vol="100" pos="216"/>
                <note pan="0" key="57" len="-192" vol="100" pos="264"/>
                <note pan="0" key="57" len="-192" vol="100" pos="312"/>
                <note pan="0" key="57" len="-192" vol="100" pos="360"/>
                <note pan="0" key="57" len="-192" vol="100" pos="408"/>
                <note pan="0" key="57" len="-192" vol="100" pos="456"/>
                <note pan="0" key="57" len="-192" vol="100" pos="504"/>
                <note pan="0" key="57" len="-192" vol="100" pos="552"/>
                <note pan="0" key="57" len="-192" vol="100" pos="600"/>
                <note pan="0" key="57" len="-192" vol="100" pos="648"/>
                <note pan="0" key="57" len="-192" vol="100" pos="696"/>
                <note pan="0" key="57" len="-192" vol="100" pos="744"/>
              </pattern>
              <pattern muted="0" type="0" pos="1920" steps="16" name="snare.wav"/>
              <pattern muted="0" type="0" pos="2112" steps="32" name="snare.wav">
                <note pan="0" key="57" len="-192" vol="100" pos="0"/>
                <note pan="0" key="57" len="-192" vol="100" pos="48"/>
                <note pan="0" key="57" len="-192" vol="100" pos="96"/>
                <note pan="0" key="57" len="-192" vol="100" pos="144"/>
                <note pan="0" key="57" len="-192" vol="100" pos="192"/>
                <note pan="0" key="57" len="-192" vol="100" pos="240"/>
                <note pan="0" key="57" len="-192" vol="100" pos="288"/>
                <note pan="0" key="57" len="-192" vol="100" pos="336"/>
              </pattern>
              <pattern muted="0" type="0" pos="2304" steps="32" name="snare.wav">
                <note pan="0" key="57" len="-192" vol="100" pos="0"/>
                <note pan="0" key="57" len="-192" vol="100" pos="48"/>
                <note pan="0" key="57" len="-192" vol="100" pos="96"/>
                <note pan="0" key="57" len="-192" vol="100" pos="144"/>
                <note pan="0" key="57" len="-192" vol="100" pos="168"/>
                <note pan="0" key="57" len="-192" vol="100" pos="216"/>
                <note pan="0" key="57" len="-192" vol="100" pos="264"/>
                <note pan="0" key="57" len="-192" vol="100" pos="312"/>
                <note pan="0" key="57" len="-192" vol="100" pos="360"/>
              </pattern>
              <pattern muted="0" type="0" pos="2496" steps="16" name="snare.wav"/>
              <pattern muted="0" type="0" pos="2688" steps="96" name="snare.wav">
                <note pan="0" key="57" len="-192" vol="100" pos="48"/>
                <note pan="0" key="57" len="-192" vol="100" pos="144"/>
                <note pan="0" key="57" len="-192" vol="100" pos="240"/>
                <note pan="0" key="57" len="-192" vol="100" pos="336"/>
                <note pan="0" key="57" len="-192" vol="100" pos="432"/>
                <note pan="0" key="57" len="-192" vol="100" pos="528"/>
                <note pan="0" key="57" len="-192" vol="100" pos="624"/>
                <note pan="0" key="57" len="-192" vol="100" pos="672"/>
                <note pan="0" key="57" len="-192" vol="100" pos="768"/>
                <note pan="0" key="57" len="-192" vol="100" pos="864"/>
                <note pan="0" key="57" len="-192" vol="100" pos="960"/>
                <note pan="0" key="57" len="-192" vol="100" pos="972"/>
                <note pan="0" key="57" len="-192" vol="100" pos="1032"/>
                <note pan="0" key="57" len="-192" vol="100" pos="1044"/>
                <note pan="0" key="57" len="-192" vol="100" pos="1104"/>
                <note pan="0" key="57" len="-192" vol="100" pos="1116"/>
                <note pan="0" key="57" len="-192" vol="100" pos="1128"/>
                <note pan="0" key="57" len="-192" vol="100" pos="1140"/>
              </pattern>
              <pattern muted="0" type="0" pos="2880" steps="64" name="snare.wav">
                <note pan="0" key="57" len="-192" vol="100" pos="0"/>
                <note pan="0" key="57" len="-192" vol="100" pos="48"/>
                <note pan="0" key="57" len="-192" vol="100" pos="96"/>
                <note pan="0" key="57" len="-192" vol="100" pos="144"/>
                <note pan="0" key="57" len="-192" vol="100" pos="192"/>
                <note pan="0" key="57" len="-192" vol="100" pos="240"/>
                <note pan="0" key="57" len="-192" vol="100" pos="288"/>
                <note pan="0" key="57" len="-192" vol="100" pos="336"/>
                <note pan="0" key="57" len="-192" vol="100" pos="384"/>
                <note pan="0" key="57" len="-192" vol="100" pos="432"/>
                <note pan="0" key="57" len="-192" vol="100" pos="480"/>
                <note pan="0" key="57" len="-192" vol="100" pos="528"/>
                <note pan="0" key="57" len="-192" vol="100" pos="576"/>
                <note pan="0" key="57" len="-192" vol="100" pos="588"/>
                <note pan="0" key="57" len="-192" vol="100" pos="624"/>
                <note pan="0" key="57" len="-192" vol="100" pos="636"/>
              </pattern>
            </track>
            <track muted="0" type="0" solo="0" name="crash1.wav">
              <instrumenttrack basenote="57" fxch="4" pan="0" pitchrange="1" vol="71.2" pitch="0" usemasterpitch="1">
                <instrument name="audiofileprocessor">
                  <audiofileprocessor eframe="1" src="/home/pass/samples/sillydrums/crash1.wav" interp="1" looped="0" sframe="0" reversed="0" amp="100" lframe="0" stutter="0"/>
                </instrument>
                <eldata ftype="0" fwet="0" fres="0.5" fcut="14000">
                  <elvol sustain="1" amt="1" att="0" rel="2" ctlenvamt="0" lspd="0.1" lamt="0" hold="2" lshp="0" lspd_denominator="4" lpdel="0" latt="0" lspd_numerator="4" pdel="0" lspd_syncmode="0" userwavefile="" dec="2" x100="0"/>
                  <elcut sustain="0.5" amt="0" att="0" rel="0.1" ctlenvamt="0" lspd="0.1" lamt="0" hold="0.5" lshp="0" lspd_denominator="4" lpdel="0" latt="0" lspd_numerator="4" pdel="0" lspd_syncmode="0" userwavefile="" dec="0.5" x100="0"/>
                  <elres sustain="0.5" amt="0" att="0" rel="0.1" ctlenvamt="0" lspd="0.1" lamt="0" hold="0.5" lshp="0" lspd_denominator="4" lpdel="0" latt="0" lspd_numerator="4" pdel="0" lspd_syncmode="0" userwavefile="" dec="0.5" x100="0"/>
                </eldata>
                <chordcreator chord-enabled="0" chordrange="1" chord="0"/>
                <arpeggiator arptime="200" arptime_denominator="4" arpmiss="0" arpgate="100" arpdir="0" arprange="1" arpskip="0" arptime_numerator="4" arp="0" arptime_syncmode="0" arpcycle="0" arp-enabled="0" arpmode="0"/>
                <midiport fixedoutputvelocity="-1" inputcontroller="0" fixedinputvelocity="-1" outputchannel="1" readable="0" fixedoutputnote="-1" outputprogram="1" inputchannel="0" outputcontroller="0" basevelocity="63" writable="0"/>
                <fxchain numofeffects="0" enabled="0"/>
              </instrumenttrack>
              <pattern muted="0" type="0" pos="0" steps="48" name="crash1.wav">
                <note pan="0" key="57" len="-192" vol="100" pos="0"/>
                <note pan="0" key="57" len="-192" vol="100" pos="384"/>
              </pattern>
              <pattern muted="0" type="0" pos="192" steps="16" name="crash1.wav">
                <note pan="0" key="57" len="-192" vol="100" pos="0"/>
              </pattern>
              <pattern muted="0" type="0" pos="384" steps="16" name="crash1.wav">
                <note pan="0" key="57" len="-192" vol="100" pos="0"/>
              </pattern>
              <pattern muted="0" type="0" pos="576" steps="16" name="crash1.wav">
                <note pan="0" key="57" len="-192" vol="100" pos="0"/>
              </pattern>
              <pattern muted="0" type="0" pos="768" steps="32" name="crash1.wav">
                <note pan="0" key="57" len="-192" vol="100" pos="0"/>
                <note pan="0" key="57" len="-192" vol="20" pos="372"/>
                <note pan="0" key="57" len="-192" vol="20" pos="384"/>
              </pattern>
              <pattern muted="0" type="0" pos="960" steps="32" name="crash1.wav">
                <note pan="0" key="57" len="-192" vol="20" pos="384"/>
              </pattern>
              <pattern muted="0" type="0" pos="1152" steps="16" name="crash1.wav">
                <note pan="0" key="57" len="-192" vol="100" pos="0"/>
              </pattern>
              <pattern muted="0" type="0" pos="1344" steps="16" name="crash1.wav"/>
              <pattern muted="0" type="0" pos="1536" steps="48" name="crash1.wav">
                <note pan="0" key="57" len="-192" vol="100" pos="0"/>
                <note pan="0" key="57" len="-192" vol="100" pos="384"/>
              </pattern>
              <pattern muted="0" type="0" pos="1728" steps="16" name="crash1.wav">
                <note pan="0" key="57" len="-192" vol="100" pos="0"/>
              </pattern>
              <pattern muted="0" type="0" pos="1920" steps="16" name="crash1.wav"/>
              <pattern muted="0" type="0" pos="2112" steps="16" name="crash1.wav">
                <note pan="0" key="57" len="-192" vol="100" pos="0"/>
              </pattern>
              <pattern muted="0" type="0" pos="2304" steps="16" name="crash1.wav">
                <note pan="0" key="57" len="-192" vol="100" pos="0"/>
              </pattern>
              <pattern muted="0" type="0" pos="2496" steps="16" name="crash1.wav"/>
              <pattern muted="0" type="0" pos="2688" steps="96" name="crash1.wav">
                <note pan="0" key="57" len="-192" vol="100" pos="0"/>
                <note pan="0" key="57" len="-192" vol="100" pos="768"/>
              </pattern>
              <pattern muted="0" type="0" pos="2880" steps="64" name="crash1.wav">
                <note pan="0" key="57" len="-192" vol="100" pos="0"/>
                <note pan="0" key="57" len="-192" vol="100" pos="192"/>
                <note pan="0" key="57" len="-192" vol="100" pos="384"/>
                <note pan="0" key="57" len="-192" vol="100" pos="480"/>
              </pattern>
            </track>
            <track muted="0" type="0" solo="0" name="crash1m">
              <instrumenttrack basenote="57" fxch="4" pan="0" pitchrange="1" vol="71.2" pitch="0" usemasterpitch="1">
                <instrument name="audiofileprocessor">
                  <audiofileprocessor eframe="1" src="/home/pass/samples/sillydrums/crash1.wav" interp="1" looped="0" sframe="0" reversed="0" amp="100" lframe="0" stutter="0"/>
                </instrument>
                <eldata ftype="0" fwet="0" fres="0.5" fcut="14000">
                  <elvol sustain="0" amt="1" att="0" rel="0.208" ctlenvamt="0" lspd="0.1" lamt="0" hold="0.232" lshp="0" lspd_denominator="4" lpdel="0" latt="0" lspd_numerator="4" pdel="0" lspd_syncmode="0" userwavefile="" dec="0.216" x100="0"/>
                  <elcut sustain="0.5" amt="0" att="0" rel="0.1" ctlenvamt="0" lspd="0.1" lamt="0" hold="0.5" lshp="0" lspd_denominator="4" lpdel="0" latt="0" lspd_numerator="4" pdel="0" lspd_syncmode="0" userwavefile="" dec="0.5" x100="0"/>
                  <elres sustain="0.5" amt="0" att="0" rel="0.1" ctlenvamt="0" lspd="0.1" lamt="0" hold="0.5" lshp="0" lspd_denominator="4" lpdel="0" latt="0" lspd_numerator="4" pdel="0" lspd_syncmode="0" userwavefile="" dec="0.5" x100="0"/>
                </eldata>
                <chordcreator chord-enabled="0" chordrange="1" chord="0"/>
                <arpeggiator arptime="200" arptime_denominator="4" arpmiss="0" arpgate="100" arpdir="0" arprange="1" arpskip="0" arptime_numerator="4" arp="0" arptime_syncmode="0" arpcycle="0" arp-enabled="0" arpmode="0"/>
                <midiport fixedoutputvelocity="-1" inputcontroller="0" fixedinputvelocity="-1" outputchannel="1" readable="0" fixedoutputnote="-1" outputprogram="1" inputchannel="0" outputcontroller="0" basevelocity="63" writable="0"/>
                <fxchain numofeffects="0" enabled="0"/>
              </instrumenttrack>
              <pattern muted="0" type="0" pos="0" steps="16" name="crash1m"/>
              <pattern muted="0" type="0" pos="192" steps="16" name="crash1m"/>
              <pattern muted="0" type="0" pos="384" steps="16" name="crash1m"/>
              <pattern muted="0" type="0" pos="576" steps="16" name="crash1m"/>
              <pattern muted="0" type="0" pos="768" steps="16" name="crash1m"/>
              <pattern muted="0" type="0" pos="960" steps="32" name="crash1m"/>
              <pattern muted="0" type="0" pos="1152" steps="16" name="crash1m"/>
              <pattern muted="0" type="0" pos="1344" steps="16" name="crash1m"/>
              <pattern muted="0" type="0" pos="1536" steps="16" name="crash1m"/>
              <pattern muted="0" type="0" pos="1728" steps="16" name="crash1m"/>
              <pattern muted="0" type="0" pos="1920" steps="16" name="crash1m">
                <note pan="0" key="57" len="-192" vol="100" pos="0"/>
              </pattern>
              <pattern muted="0" type="0" pos="2112" steps="16" name="crash1m"/>
              <pattern muted="0" type="0" pos="2304" steps="16" name="crash1m"/>
              <pattern muted="0" type="0" pos="2496" steps="16" name="crash1m">
                <note pan="0" key="57" len="-192" vol="100" pos="0"/>
                <note pan="0" key="57" len="-192" vol="100" pos="72"/>
              </pattern>
              <pattern muted="0" type="0" pos="2688" steps="96" name="crash1m"/>
              <pattern muted="0" type="0" pos="2880" steps="64" name="crash1m">
                <note pan="0" key="57" len="-192" vol="100" pos="672"/>
              </pattern>
            </track>
            <track muted="0" type="0" solo="0" name="crash2.wav">
              <instrumenttrack basenote="57" fxch="5" pan="28" pitchrange="1" vol="76.8" pitch="0" usemasterpitch="1">
                <instrument name="audiofileprocessor">
                  <audiofileprocessor eframe="1" src="/home/pass/samples/sillydrums/crash2.wav" interp="1" looped="0" sframe="0" reversed="0" amp="100" lframe="0" stutter="0"/>
                </instrument>
                <eldata ftype="0" fwet="0" fres="0.5" fcut="14000">
                  <elvol sustain="1" amt="1" att="0" rel="2" ctlenvamt="0" lspd="0.1" lamt="0" hold="2" lshp="0" lspd_denominator="4" lpdel="0" latt="0" lspd_numerator="4" pdel="0" lspd_syncmode="0" userwavefile="" dec="2" x100="0"/>
                  <elcut sustain="0.5" amt="0" att="0" rel="0.1" ctlenvamt="0" lspd="0.1" lamt="0" hold="0.5" lshp="0" lspd_denominator="4" lpdel="0" latt="0" lspd_numerator="4" pdel="0" lspd_syncmode="0" userwavefile="" dec="0.5" x100="0"/>
                  <elres sustain="0.5" amt="0" att="0" rel="0.1" ctlenvamt="0" lspd="0.1" lamt="0" hold="0.5" lshp="0" lspd_denominator="4" lpdel="0" latt="0" lspd_numerator="4" pdel="0" lspd_syncmode="0" userwavefile="" dec="0.5" x100="0"/>
                </eldata>
                <chordcreator chord-enabled="0" chordrange="1" chord="0"/>
                <arpeggiator arptime="200" arptime_denominator="4" arpmiss="0" arpgate="100" arpdir="0" arprange="1" arpskip="0" arptime_numerator="4" arp="0" arptime_syncmode="0" arpcycle="0" arp-enabled="0" arpmode="0"/>
                <midiport fixedoutputvelocity="-1" inputcontroller="0" fixedinputvelocity="-1" outputchannel="1" readable="0" fixedoutputnote="-1" outputprogram="1" inputchannel="0" outputcontroller="0" basevelocity="63" writable="0"/>
                <fxchain numofeffects="0" enabled="0"/>
              </instrumenttrack>
              <pattern muted="0" type="0" pos="0" steps="32" name="crash2.wav">
                <note pan="0" key="57" len="-192" vol="100" pos="192"/>
              </pattern>
              <pattern muted="0" type="0" pos="192" steps="32" name="crash2.wav">
                <note pan="0" key="57" len="-192" vol="100" pos="192"/>
              </pattern>
              <pattern muted="0" type="0" pos="384" steps="48" name="crash2.wav">
                <note pan="0" key="57" len="-192" vol="100" pos="384"/>
              </pattern>
              <pattern muted="0" type="0" pos="576" steps="48" name="crash2.wav">
                <note pan="0" key="57" len="-192" vol="100" pos="384"/>
              </pattern>
              <pattern muted="0" type="0" pos="768" steps="48" name="crash2.wav">
                <note pan="0" key="57" len="-192" vol="100" pos="384"/>
              </pattern>
              <pattern muted="0" type="0" pos="960" steps="32" name="crash2.wav">
                <note pan="0" key="57" len="-192" vol="100" pos="0"/>
              </pattern>
              <pattern muted="0" type="0" pos="1152" steps="48" name="crash2.wav">
                <note pan="0" key="57" len="-192" vol="100" pos="384"/>
              </pattern>
              <pattern muted="0" type="0" pos="1344" steps="16" name="crash2.wav"/>
              <pattern muted="0" type="0" pos="1536" steps="32" name="crash2.wav">
                <note pan="0" key="57" len="-192" vol="100" pos="192"/>
              </pattern>
              <pattern muted="0" type="0" pos="1728" steps="48" name="crash2.wav">
                <note pan="0" key="57" len="-192" vol="100" pos="384"/>
              </pattern>
              <pattern muted="0" type="0" pos="1920" steps="16" name="crash2.wav"/>
              <pattern muted="0" type="0" pos="2112" steps="32" name="crash2.wav">
                <note pan="0" key="57" len="-192" vol="100" pos="192"/>
              </pattern>
              <pattern muted="0" type="0" pos="2304" steps="16" name="crash2.wav">
                <note pan="0" key="57" len="-192" vol="100" pos="168"/>
              </pattern>
              <pattern muted="0" type="0" pos="2496" steps="16" name="crash2.wav"/>
              <pattern muted="0" type="0" pos="2688" steps="96" name="crash2.wav">
                <note pan="0" key="57" len="-192" vol="100" pos="384"/>
                <note pan="0" key="57" len="-192" vol="100" pos="864"/>
              </pattern>
              <pattern muted="0" type="0" pos="2880" steps="64" name="crash2.wav">
                <note pan="0" key="57" len="-192" vol="100" pos="96"/>
                <note pan="0" key="57" len="-192" vol="100" pos="288"/>
                <note pan="0" key="57" len="-192" vol="100" pos="432"/>
                <note pan="0" key="57" len="-192" vol="100" pos="528"/>
              </pattern>
            </track>
            <track muted="0" type="0" solo="0" name="china.wav">
              <instrumenttrack basenote="57" fxch="6" pan="0" pitchrange="1" vol="130.4" pitch="0" usemasterpitch="1">
                <instrument name="audiofileprocessor">
                  <audiofileprocessor eframe="1" src="/home/pass/samples/sillydrums/china.wav" interp="1" looped="0" sframe="0" reversed="0" amp="100" lframe="0" stutter="0"/>
                </instrument>
                <eldata ftype="0" fwet="0" fres="0.5" fcut="14000">
                  <elvol sustain="1" amt="1" att="0" rel="2" ctlenvamt="0" lspd="0.1" lamt="0" hold="2" lshp="0" lspd_denominator="4" lpdel="0" latt="0" lspd_numerator="4" pdel="0" lspd_syncmode="0" userwavefile="" dec="2" x100="0"/>
                  <elcut sustain="0.5" amt="0" att="0" rel="0.1" ctlenvamt="0" lspd="0.1" lamt="0" hold="0.5" lshp="0" lspd_denominator="4" lpdel="0" latt="0" lspd_numerator="4" pdel="0" lspd_syncmode="0" userwavefile="" dec="0.5" x100="0"/>
                  <elres sustain="0.5" amt="0" att="0" rel="0.1" ctlenvamt="0" lspd="0.1" lamt="0" hold="0.5" lshp="0" lspd_denominator="4" lpdel="0" latt="0" lspd_numerator="4" pdel="0" lspd_syncmode="0" userwavefile="" dec="0.5" x100="0"/>
                </eldata>
                <chordcreator chord-enabled="0" chordrange="1" chord="0"/>
                <arpeggiator arptime="200" arptime_denominator="4" arpmiss="0" arpgate="100" arpdir="0" arprange="1" arpskip="0" arptime_numerator="4" arp="0" arptime_syncmode="0" arpcycle="0" arp-enabled="0" arpmode="0"/>
                <midiport fixedoutputvelocity="-1" inputcontroller="0" fixedinputvelocity="-1" outputchannel="1" readable="0" fixedoutputnote="-1" outputprogram="1" inputchannel="0" outputcontroller="0" basevelocity="63" writable="0"/>
                <fxchain numofeffects="0" enabled="0"/>
              </instrumenttrack>
              <pattern muted="0" type="0" pos="0" steps="16" name="china.wav"/>
              <pattern muted="0" type="0" pos="192" steps="16" name="china.wav"/>
              <pattern muted="0" type="0" pos="384" steps="16" name="china.wav"/>
              <pattern muted="0" type="0" pos="576" steps="16" name="china.wav"/>
              <pattern muted="0" type="0" pos="768" steps="16" name="china.wav"/>
              <pattern muted="0" type="0" pos="960" steps="32" name="china.wav"/>
              <pattern muted="0" type="0" pos="1152" steps="16" name="china.wav"/>
              <pattern muted="0" type="0" pos="1344" steps="16" name="china.wav"/>
              <pattern muted="0" type="0" pos="1536" steps="16" name="china.wav"/>
              <pattern muted="0" type="0" pos="1728" steps="16" name="china.wav"/>
              <pattern muted="0" type="0" pos="1920" steps="16" name="china.wav"/>
              <pattern muted="0" type="0" pos="2112" steps="16" name="china.wav"/>
              <pattern muted="0" type="0" pos="2304" steps="16" name="china.wav"/>
              <pattern muted="0" type="0" pos="2496" steps="16" name="china.wav"/>
              <pattern muted="0" type="0" pos="2688" steps="96" name="china.wav"/>
              <pattern muted="0" type="0" pos="2880" steps="64" name="china.wav"/>
            </track>
            <track muted="0" type="0" solo="0" name="hiTom.wav">
              <instrumenttrack basenote="57" fxch="7" pan="0" pitchrange="1" vol="130.4" pitch="0" usemasterpitch="1">
                <instrument name="audiofileprocessor">
                  <audiofileprocessor eframe="1" src="/home/pass/samples/sillydrums/hiTom.wav" interp="1" looped="0" sframe="0" reversed="0" amp="100" lframe="0" stutter="0"/>
                </instrument>
                <eldata ftype="0" fwet="0" fres="0.5" fcut="14000">
                  <elvol sustain="1" amt="1" att="0" rel="2" ctlenvamt="0" lspd="0.1" lamt="0" hold="2" lshp="0" lspd_denominator="4" lpdel="0" latt="0" lspd_numerator="4" pdel="0" lspd_syncmode="0" userwavefile="" dec="2" x100="0"/>
                  <elcut sustain="0.5" amt="0" att="0" rel="0.1" ctlenvamt="0" lspd="0.1" lamt="0" hold="0.5" lshp="0" lspd_denominator="4" lpdel="0" latt="0" lspd_numerator="4" pdel="0" lspd_syncmode="0" userwavefile="" dec="0.5" x100="0"/>
                  <elres sustain="0.5" amt="0" att="0" rel="0.1" ctlenvamt="0" lspd="0.1" lamt="0" hold="0.5" lshp="0" lspd_denominator="4" lpdel="0" latt="0" lspd_numerator="4" pdel="0" lspd_syncmode="0" userwavefile="" dec="0.5" x100="0"/>
                </eldata>
                <chordcreator chord-enabled="0" chordrange="1" chord="0"/>
                <arpeggiator arptime="200" arptime_denominator="4" arpmiss="0" arpgate="100" arpdir="0" arprange="1" arpskip="0" arptime_numerator="4" arp="0" arptime_syncmode="0" arpcycle="0" arp-enabled="0" arpmode="0"/>
                <midiport fixedoutputvelocity="-1" inputcontroller="0" fixedinputvelocity="-1" outputchannel="1" readable="0" fixedoutputnote="-1" outputprogram="1" inputchannel="0" outputcontroller="0" basevelocity="63" writable="0"/>
                <fxchain numofeffects="0" enabled="0"/>
              </instrumenttrack>
              <pattern muted="0" type="0" pos="0" steps="16" name="hiTom.wav"/>
              <pattern muted="0" type="0" pos="192" steps="16" name="hiTom.wav"/>
              <pattern muted="0" type="0" pos="384" steps="16" name="hiTom.wav"/>
              <pattern muted="0" type="0" pos="576" steps="64" name="hiTom.wav">
                <note pan="0" key="57" len="-192" vol="100" pos="696"/>
                <note pan="0" key="57" len="-192" vol="100" pos="708"/>
              </pattern>
              <pattern muted="0" type="0" pos="768" steps="16" name="hiTom.wav"/>
              <pattern muted="0" type="0" pos="960" steps="32" name="hiTom.wav">
                <note pan="0" key="57" len="-192" vol="100" pos="312"/>
                <note pan="0" key="57" len="-192" vol="100" pos="324"/>
              </pattern>
              <pattern muted="0" type="0" pos="1152" steps="16" name="hiTom.wav"/>
              <pattern muted="0" type="0" pos="1344" steps="16" name="hiTom.wav"/>
              <pattern muted="0" type="0" pos="1536" steps="16" name="hiTom.wav"/>
              <pattern muted="0" type="0" pos="1728" steps="16" name="hiTom.wav"/>
              <pattern muted="0" type="0" pos="1920" steps="16" name="hiTom.wav"/>
              <pattern muted="0" type="0" pos="2112" steps="16" name="hiTom.wav"/>
              <pattern muted="0" type="0" pos="2304" steps="16" name="hiTom.wav"/>
              <pattern muted="0" type="0" pos="2496" steps="16" name="hiTom.wav"/>
              <pattern muted="0" type="0" pos="2688" steps="96" name="hiTom.wav">
                <note pan="0" key="57" len="-192" vol="100" pos="696"/>
                <note pan="0" key="57" len="-192" vol="100" pos="792"/>
                <note pan="0" key="57" len="-192" vol="100" pos="816"/>
                <note pan="0" key="57" len="-192" vol="100" pos="840"/>
                <note pan="0" key="57" len="-192" vol="100" pos="984"/>
                <note pan="0" key="57" len="-192" vol="100" pos="996"/>
                <note pan="0" key="57" len="-192" vol="100" pos="1008"/>
                <note pan="0" key="57" len="-192" vol="100" pos="1020"/>
              </pattern>
              <pattern muted="0" type="0" pos="2880" steps="64" name="hiTom.wav">
                <note pan="0" key="57" len="-192" vol="100" pos="396"/>
                <note pan="0" key="57" len="-192" vol="100" pos="408"/>
                <note pan="0" key="57" len="-192" vol="100" pos="420"/>
                <note pan="0" key="57" len="-192" vol="100" pos="444"/>
                <note pan="0" key="57" len="-192" vol="100" pos="456"/>
                <note pan="0" key="57" len="-192" vol="100" pos="468"/>
                <note pan="0" key="57" len="-192" vol="100" pos="600"/>
              </pattern>
            </track>
            <track muted="0" type="0" solo="0" name="midTom.wav">
              <instrumenttrack basenote="57" fxch="8" pan="0" pitchrange="1" vol="130.4" pitch="0" usemasterpitch="1">
                <instrument name="audiofileprocessor">
                  <audiofileprocessor eframe="1" src="/home/pass/samples/sillydrums/midTom.wav" interp="1" looped="0" sframe="0" reversed="0" amp="100" lframe="0" stutter="0"/>
                </instrument>
                <eldata ftype="0" fwet="0" fres="0.5" fcut="14000">
                  <elvol sustain="1" amt="1" att="0" rel="2" ctlenvamt="0" lspd="0.1" lamt="0" hold="2" lshp="0" lspd_denominator="4" lpdel="0" latt="0" lspd_numerator="4" pdel="0" lspd_syncmode="0" userwavefile="" dec="2" x100="0"/>
                  <elcut sustain="0.5" amt="0" att="0" rel="0.1" ctlenvamt="0" lspd="0.1" lamt="0" hold="0.5" lshp="0" lspd_denominator="4" lpdel="0" latt="0" lspd_numerator="4" pdel="0" lspd_syncmode="0" userwavefile="" dec="0.5" x100="0"/>
                  <elres sustain="0.5" amt="0" att="0" rel="0.1" ctlenvamt="0" lspd="0.1" lamt="0" hold="0.5" lshp="0" lspd_denominator="4" lpdel="0" latt="0" lspd_numerator="4" pdel="0" lspd_syncmode="0" userwavefile="" dec="0.5" x100="0"/>
                </eldata>
                <chordcreator chord-enabled="0" chordrange="1" chord="0"/>
                <arpeggiator arptime="200" arptime_denominator="4" arpmiss="0" arpgate="100" arpdir="0" arprange="1" arpskip="0" arptime_numerator="4" arp="0" arptime_syncmode="0" arpcycle="0" arp-enabled="0" arpmode="0"/>
                <midiport fixedoutputvelocity="-1" inputcontroller="0" fixedinputvelocity="-1" outputchannel="1" readable="0" fixedoutputnote="-1" outputprogram="1" inputchannel="0" outputcontroller="0" basevelocity="63" writable="0"/>
                <fxchain numofeffects="0" enabled="0"/>
              </instrumenttrack>
              <pattern muted="0" type="0" pos="0" steps="32" name="midTom.wav">
                <note pan="0" key="57" len="-192" vol="100" pos="336"/>
                <note pan="0" key="57" len="-192" vol="100" pos="360"/>
              </pattern>
              <pattern muted="0" type="0" pos="192" steps="32" name="midTom.wav">
                <note pan="0" key="57" len="-192" vol="100" pos="336"/>
              </pattern>
              <pattern muted="0" type="0" pos="384" steps="16" name="midTom.wav"/>
              <pattern muted="0" type="0" pos="576" steps="64" name="midTom.wav">
                <note pan="0" key="57" len="-192" vol="100" pos="600"/>
                <note pan="0" key="57" len="-192" vol="100" pos="612"/>
                <note pan="0" key="57" len="-192" vol="100" pos="720"/>
                <note pan="0" key="57" len="-192" vol="100" pos="732"/>
              </pattern>
              <pattern muted="0" type="0" pos="768" steps="16" name="midTom.wav"/>
              <pattern muted="0" type="0" pos="960" steps="32" name="midTom.wav">
                <note pan="0" key="57" len="-192" vol="100" pos="216"/>
                <note pan="0" key="57" len="-192" vol="100" pos="228"/>
                <note pan="0" key="57" len="-192" vol="100" pos="264"/>
                <note pan="0" key="57" len="-192" vol="100" pos="276"/>
                <note pan="0" key="57" len="-192" vol="100" pos="336"/>
                <note pan="0" key="57" len="-192" vol="100" pos="348"/>
              </pattern>
              <pattern muted="0" type="0" pos="1152" steps="16" name="midTom.wav"/>
              <pattern muted="0" type="0" pos="1344" steps="16" name="midTom.wav">
                <note pan="0" key="57" len="-192" vol="100" pos="108"/>
                <note pan="0" key="57" len="-192" vol="100" pos="120"/>
                <note pan="0" key="57" len="-192" vol="100" pos="132"/>
              </pattern>
              <pattern muted="0" type="0" pos="1536" steps="16" name="midTom.wav"/>
              <pattern muted="0" type="0" pos="1728" steps="16" name="midTom.wav"/>
              <pattern muted="0" type="0" pos="1920" steps="16" name="midTom.wav"/>
              <pattern muted="0" type="0" pos="2112" steps="16" name="midTom.wav"/>
              <pattern muted="0" type="0" pos="2304" steps="16" name="midTom.wav"/>
              <pattern muted="0" type="0" pos="2496" steps="16" name="midTom.wav"/>
              <pattern muted="0" type="0" pos="2688" steps="96" name="midTom.wav">
                <note pan="0" key="57" len="-192" vol="100" pos="696"/>
                <note pan="0" key="57" len="-192" vol="100" pos="720"/>
                <note pan="0" key="57" len="-192" vol="100" pos="744"/>
                <note pan="0" key="57" len="-192" vol="100" pos="792"/>
                <note pan="0" key="57" len="-192" vol="100" pos="816"/>
                <note pan="0" key="57" len="-192" vol="100" pos="840"/>
                <note pan="0" key="57" len="-192" vol="100" pos="888"/>
                <note pan="0" key="57" len="-192" vol="100" pos="1056"/>
                <note pan="0" key="57" len="-192" vol="100" pos="1068"/>
                <note pan="0" key="57" len="-192" vol="100" pos="1080"/>
                <note pan="0" key="57" len="-192" vol="100" pos="1092"/>
              </pattern>
              <pattern muted="0" type="0" pos="2880" steps="64" name="midTom.wav">
                <note pan="0" key="57" len="-192" vol="100" pos="492"/>
                <note pan="0" key="57" len="-192" vol="100" pos="504"/>
                <note pan="0" key="57" len="-192" vol="100" pos="516"/>
                <note pan="0" key="57" len="-192" vol="100" pos="540"/>
                <note pan="0" key="57" len="-192" vol="100" pos="552"/>
                <note pan="0" key="57" len="-192" vol="100" pos="564"/>
                <note pan="0" key="57" len="-192" vol="100" pos="612"/>
                <note pan="0" key="57" len="-192" vol="100" pos="648"/>
              </pattern>
            </track>
            <track muted="0" type="0" solo="0" name="loTom.wav">
              <instrumenttrack basenote="57" fxch="9" pan="0" pitchrange="1" vol="130.4" pitch="0" usemasterpitch="1">
                <instrument name="audiofileprocessor">
                  <audiofileprocessor eframe="1" src="/home/pass/samples/sillydrums/loTom.wav" interp="1" looped="0" sframe="0" reversed="0" amp="100" lframe="0" stutter="0"/>
                </instrument>
                <eldata ftype="0" fwet="0" fres="0.5" fcut="14000">
                  <elvol sustain="1" amt="1" att="0" rel="2" ctlenvamt="0" lspd="0.1" lamt="0" hold="2" lshp="0" lspd_denominator="4" lpdel="0" latt="0" lspd_numerator="4" pdel="0" lspd_syncmode="0" userwavefile="" dec="2" x100="0"/>
                  <elcut sustain="0.5" amt="0" att="0" rel="0.1" ctlenvamt="0" lspd="0.1" lamt="0" hold="0.5" lshp="0" lspd_denominator="4" lpdel="0" latt="0" lspd_numerator="4" pdel="0" lspd_syncmode="0" userwavefile="" dec="0.5" x100="0"/>
                  <elres sustain="0.5" amt="0" att="0" rel="0.1" ctlenvamt="0" lspd="0.1" lamt="0" hold="0.5" lshp="0" lspd_denominator="4" lpdel="0" latt="0" lspd_numerator="4" pdel="0" lspd_syncmode="0" userwavefile="" dec="0.5" x100="0"/>
                </eldata>
                <chordcreator chord-enabled="0" chordrange="1" chord="0"/>
                <arpeggiator arptime="200" arptime_denominator="4" arpmiss="0" arpgate="100" arpdir="0" arprange="1" arpskip="0" arptime_numerator="4" arp="0" arptime_syncmode="0" arpcycle="0" arp-enabled="0" arpmode="0"/>
                <midiport fixedoutputvelocity="-1" inputcontroller="0" fixedinputvelocity="-1" outputchannel="1" readable="0" fixedoutputnote="-1" outputprogram="1" inputchannel="0" outputcontroller="0" basevelocity="63" writable="0"/>
                <fxchain numofeffects="0" enabled="0"/>
              </instrumenttrack>
              <pattern muted="0" type="0" pos="0" steps="16" name="loTom.wav"/>
              <pattern muted="0" type="0" pos="192" steps="32" name="loTom.wav">
                <note pan="0" key="57" len="-192" vol="100" pos="360"/>
              </pattern>
              <pattern muted="0" type="0" pos="384" steps="16" name="loTom.wav"/>
              <pattern muted="0" type="0" pos="576" steps="64" name="loTom.wav">
                <note pan="0" key="57" len="-192" vol="100" pos="648"/>
                <note pan="0" key="57" len="-192" vol="100" pos="660"/>
                <note pan="0" key="57" len="-192" vol="100" pos="744"/>
                <note pan="0" key="57" len="-192" vol="100" pos="756"/>
              </pattern>
              <pattern muted="0" type="0" pos="768" steps="16" name="loTom.wav"/>
              <pattern muted="0" type="0" pos="960" steps="32" name="loTom.wav">
                <note pan="0" key="57" len="-192" vol="100" pos="360"/>
                <note pan="0" key="57" len="-192" vol="100" pos="372"/>
              </pattern>
              <pattern muted="0" type="0" pos="1152" steps="16" name="loTom.wav"/>
              <pattern muted="0" type="0" pos="1344" steps="16" name="loTom.wav">
                <note pan="0" key="57" len="-192" vol="100" pos="156"/>
                <note pan="0" key="57" len="-192" vol="100" pos="168"/>
                <note pan="0" key="57" len="-192" vol="100" pos="180"/>
              </pattern>
              <pattern muted="0" type="0" pos="1536" steps="16" name="loTom.wav"/>
              <pattern muted="0" type="0" pos="1728" steps="16" name="loTom.wav"/>
              <pattern muted="0" type="0" pos="1920" steps="16" name="loTom.wav"/>
              <pattern muted="0" type="0" pos="2112" steps="16" name="loTom.wav"/>
              <pattern muted="0" type="0" pos="2304" steps="16" name="loTom.wav"/>
              <pattern muted="0" type="0" pos="2496" steps="16" name="loTom.wav"/>
              <pattern muted="0" type="0" pos="2688" steps="96" name="loTom.wav">
                <note pan="0" key="57" len="-192" vol="100" pos="720"/>
                <note pan="0" key="57" len="-192" vol="100" pos="744"/>
                <note pan="0" key="57" len="-192" vol="100" pos="888"/>
                <note pan="0" key="57" len="-192" vol="100" pos="912"/>
                <note pan="0" key="57" len="-192" vol="100" pos="924"/>
                <note pan="0" key="57" len="-192" vol="100" pos="936"/>
                <note pan="0" key="57" len="-192" vol="100" pos="948"/>
              </pattern>
              <pattern muted="0" type="0" pos="2880" steps="64" name="loTom.wav">
                <note pan="0" key="57" len="-192" vol="100" pos="660"/>
              </pattern>
            </track>
            <track muted="0" type="0" solo="0" name="hihat_opened02.ogg">
              <instrumenttrack basenote="57" fxch="0" pan="0" pitchrange="1" vol="100" pitch="0" usemasterpitch="1">
                <instrument name="audiofileprocessor">
                  <audiofileprocessor eframe="1" src="drums/hihat_opened02.ogg" interp="1" looped="0" sframe="0" reversed="0" amp="100" lframe="0" stutter="0"/>
                </instrument>
                <eldata ftype="0" fwet="0" fres="0.5" fcut="14000">
                  <elvol sustain="0.5" amt="0" att="0" rel="0.1" ctlenvamt="0" lspd="0.1" lamt="0" hold="0.5" lshp="0" lspd_denominator="4" lpdel="0" latt="0" lspd_numerator="4" pdel="0" lspd_syncmode="0" userwavefile="" dec="0.5" x100="0"/>
                  <elcut sustain="0.5" amt="0" att="0" rel="0.1" ctlenvamt="0" lspd="0.1" lamt="0" hold="0.5" lshp="0" lspd_denominator="4" lpdel="0" latt="0" lspd_numerator="4" pdel="0" lspd_syncmode="0" userwavefile="" dec="0.5" x100="0"/>
                  <elres sustain="0.5" amt="0" att="0" rel="0.1" ctlenvamt="0" lspd="0.1" lamt="0" hold="0.5" lshp="0" lspd_denominator="4" lpdel="0" latt="0" lspd_numerator="4" pdel="0" lspd_syncmode="0" userwavefile="" dec="0.5" x100="0"/>
                </eldata>
                <chordcreator chord-enabled="0" chordrange="1" chord="0"/>
                <arpeggiator arptime="200" arptime_denominator="4" arpmiss="0" arpgate="100" arpdir="0" arprange="1" arpskip="0" arptime_numerator="4" arp="0" arptime_syncmode="0" arpcycle="0" arp-enabled="0" arpmode="0"/>
                <midiport fixedoutputvelocity="-1" inputcontroller="0" fixedinputvelocity="-1" outputchannel="1" readable="0" fixedoutputnote="-1" outputprogram="1" inputchannel="0" outputcontroller="0" basevelocity="63" writable="0"/>
                <fxchain numofeffects="0" enabled="0"/>
              </instrumenttrack>
              <pattern muted="0" type="0" pos="0" steps="16" name="hihat_opened02.ogg"/>
              <pattern muted="0" type="0" pos="192" steps="16" name="hihat_opened02.ogg"/>
              <pattern muted="0" type="0" pos="384" steps="16" name="hihat_opened02.ogg"/>
              <pattern muted="0" type="0" pos="576" steps="16" name="hihat_opened02.ogg"/>
              <pattern muted="0" type="0" pos="768" steps="16" name="hihat_opened02.ogg"/>
              <pattern muted="0" type="0" pos="960" steps="32" name="hihat_opened02.ogg"/>
              <pattern muted="0" type="0" pos="1152" steps="16" name="hihat_opened02.ogg"/>
              <pattern muted="0" type="0" pos="1344" steps="16" name="hihat_opened02.ogg"/>
              <pattern muted="0" type="0" pos="1536" steps="16" name="hihat_opened02.ogg"/>
              <pattern muted="0" type="0" pos="1728" steps="16" name="hihat_opened02.ogg"/>
              <pattern muted="0" type="0" pos="1920" steps="16" name="hihat_opened02.ogg"/>
              <pattern muted="0" type="0" pos="2112" steps="16" name="hihat_opened02.ogg"/>
              <pattern muted="0" type="0" pos="2304" steps="16" name="hihat_opened02.ogg"/>
              <pattern muted="0" type="0" pos="2496" steps="16" name="hihat_opened02.ogg"/>
              <pattern muted="0" type="0" pos="2688" steps="96" name="hihat_opened02.ogg"/>
              <pattern muted="0" type="0" pos="2880" steps="64" name="hihat_opened02.ogg"/>
            </track>
          </trackcontainer>
        </bbtrack>
      </track>
      <track muted="0" type="1" solo="0" name="Clone of intro1">
        <bbtrack/>
      </track>
      <track muted="0" type="1" solo="0" name="intro2">
        <bbtrack/>
        <bbtco color="4286611584" usestyle="1" len="3072" muted="0" pos="0" name=""/>
      </track>
      <track muted="0" type="1" solo="0" name="pre-verse">
        <bbtrack/>
        <bbtco color="4286611584" usestyle="1" len="768" muted="0" pos="8448" name=""/>
        <bbtco color="4286611584" usestyle="1" len="768" muted="0" pos="11520" name=""/>
        <bbtco color="4286611584" usestyle="1" len="576" muted="0" pos="16128" name=""/>
      </track>
      <track muted="0" type="1" solo="0" name="bootcamp1">
        <bbtrack/>
        <bbtco color="4286611584" usestyle="1" len="3072" muted="0" pos="3072" name=""/>
        <bbtco color="4286611584" usestyle="1" len="1152" muted="0" pos="12288" name=""/>
        <bbtco color="4286611584" usestyle="1" len="1920" muted="0" pos="18048" name=""/>
      </track>
      <track muted="0" type="1" solo="0" name="pp">
        <bbtrack/>
        <bbtco color="4286611584" usestyle="1" len="384" muted="0" pos="13440" name=""/>
      </track>
      <track muted="0" type="1" solo="0" name="Clone of bootcamp1">
        <bbtrack/>
        <bbtco color="4286611584" usestyle="1" len="768" muted="0" pos="9216" name=""/>
        <bbtco color="4286611584" usestyle="1" len="1536" muted="0" pos="9984" name=""/>
        <bbtco color="4286611584" usestyle="1" len="768" muted="0" pos="13824" name=""/>
        <bbtco color="4286611584" usestyle="1" len="1536" muted="0" pos="14592" name=""/>
      </track>
      <track muted="0" type="1" solo="0" name="fill1">
        <bbtrack/>
      </track>
      <track muted="0" type="1" solo="0" name="Clone of bootcamp1">
        <bbtrack/>
      </track>
      <track muted="0" type="1" solo="0" name="Clone of Clone of bootcamp1">
        <bbtrack/>
      </track>
      <track muted="0" type="1" solo="0" name="kick/mutecrash">
        <bbtrack/>
      </track>
      <track muted="0" type="1" solo="0" name="Beat/Bassline 6">
        <bbtrack/>
      </track>
      <track muted="0" type="1" solo="0" name="Clone of Beat/Bassline 6">
        <bbtrack/>
        <bbtco color="4286611584" usestyle="1" len="2304" muted="0" pos="6144" name=""/>
      </track>
      <track muted="0" type="1" solo="0" name="preprechorusbridge">
        <bbtrack/>
        <bbtco color="4286611584" usestyle="1" len="192" muted="0" pos="16704" name=""/>
      </track>
      <track muted="0" type="1" solo="0" name="kodiak alaska">
        <bbtrack/>
        <bbtco color="4286611584" usestyle="1" len="1152" muted="0" pos="16896" name=""/>
      </track>
      <track muted="0" type="1" solo="0" name="Beat/Bassline 15">
        <bbtrack/>
        <bbtco color="4286611584" usestyle="1" len="768" muted="0" pos="19968" name=""/>
      </track>
      <track muted="0" type="0" solo="0" name="bass fender jazz (1,379kb)">
        <instrumenttrack basenote="57" fxch="14" pan="-1.1" pitchrange="1" vol="66.9" pitch="0" usemasterpitch="1">
          <instrument name="sf2player">
            <sf2player bank="0" gain="5" chorusLevel="2" src="/home/pass/samples/soundfonts/bass fender jazz (1,379kb).sf2" patch="0" chorusSpeed="0.3" chorusDepth="8" reverbLevel="0.9" reverbDamping="0.2" reverbOn="0" reverbRoomSize="0.2" chorusNum="0.9" reverbWidth="0.5" chorusOn="0"/>
          </instrument>
          <eldata ftype="0" fwet="0" fres="0.5" fcut="14000">
            <elvol sustain="0.5" amt="0" att="0" rel="0.1" ctlenvamt="0" lspd="0.1" lamt="0" hold="0.5" lshp="0" lspd_denominator="4" lpdel="0" latt="0" lspd_numerator="4" pdel="0" lspd_syncmode="0" userwavefile="" dec="0.5" x100="0"/>
            <elcut sustain="0.5" amt="0" att="0" rel="0.1" ctlenvamt="0" lspd="0.1" lamt="0" hold="0.5" lshp="0" lspd_denominator="4" lpdel="0" latt="0" lspd_numerator="4" pdel="0" lspd_syncmode="0" userwavefile="" dec="0.5" x100="0"/>
            <elres sustain="0.5" amt="0" att="0" rel="0.1" ctlenvamt="0" lspd="0.1" lamt="0" hold="0.5" lshp="0" lspd_denominator="4" lpdel="0" latt="0" lspd_numerator="4" pdel="0" lspd_syncmode="0" userwavefile="" dec="0.5" x100="0"/>
          </eldata>
          <chordcreator chord-enabled="0" chordrange="1" chord="0"/>
          <arpeggiator arptime="200" arptime_denominator="4" arpmiss="0" arpgate="100" arpdir="0" arprange="1" arpskip="0" arptime_numerator="4" arp="0" arptime_syncmode="0" arpcycle="0" arp-enabled="0" arpmode="0"/>
          <midiport fixedoutputvelocity="-1" inputcontroller="0" fixedinputvelocity="-1" outputchannel="1" readable="0" fixedoutputnote="-1" outputprogram="1" inputchannel="0" outputcontroller="0" basevelocity="63" writable="0"/>
          <fxchain numofeffects="0" enabled="1"/>
        </instrumenttrack>
        <pattern muted="0" type="1" pos="0" steps="16" name="bass fender jazz (1,379kb)">
          <note pan="0" key="18" len="384" vol="193" pos="0"/>
          <note pan="0" key="17" len="384" vol="193" pos="384"/>
          <note pan="0" key="16" len="384" vol="193" pos="768"/>
          <note pan="0" key="15" len="384" vol="193" pos="1152"/>
          <note pan="0" key="14" len="384" vol="193" pos="1536"/>
          <note pan="0" key="13" len="384" vol="193" pos="1920"/>
          <note pan="0" key="12" len="384" vol="193" pos="2304"/>
          <note pan="0" key="13" len="192" vol="193" pos="2688"/>
          <note pan="0" key="14" len="48" vol="193" pos="2880"/>
          <note pan="0" key="13" len="48" vol="193" pos="2928"/>
          <note pan="0" key="17" len="12" vol="193" pos="2976"/>
          <note pan="0" key="17" len="12" vol="193" pos="2988"/>
          <note pan="0" key="18" len="12" vol="193" pos="3000"/>
          <note pan="0" key="18" len="12" vol="193" pos="3012"/>
          <note pan="0" key="20" len="12" vol="193" pos="3024"/>
          <note pan="0" key="20" len="12" vol="193" pos="3036"/>
          <note pan="0" key="17" len="12" vol="193" pos="3048"/>
          <note pan="0" key="17" len="12" vol="193" pos="3060"/>
        </pattern>
        <pattern muted="0" type="1" pos="3072" steps="16" name="bass fender jazz (1,379kb)">
          <note pan="0" key="18" len="12" vol="193" pos="0"/>
          <note pan="0" key="18" len="12" vol="193" pos="12"/>
          <note pan="0" key="18" len="12" vol="193" pos="24"/>
          <note pan="0" key="18" len="12" vol="193" pos="36"/>
          <note pan="0" key="18" len="12" vol="193" pos="48"/>
          <note pan="0" key="18" len="12" vol="193" pos="60"/>
          <note pan="0" key="18" len="12" vol="193" pos="72"/>
          <note pan="0" key="18" len="12" vol="193" pos="84"/>
          <note pan="0" key="18" len="12" vol="193" pos="96"/>
          <note pan="0" key="18" len="12" vol="193" pos="108"/>
          <note pan="0" key="18" len="12" vol="193" pos="120"/>
          <note pan="0" key="18" len="12" vol="193" pos="132"/>
          <note pan="0" key="18" len="12" vol="193" pos="144"/>
          <note pan="0" key="18" len="12" vol="193" pos="156"/>
          <note pan="0" key="18" len="12" vol="193" pos="168"/>
          <note pan="0" key="18" len="12" vol="193" pos="180"/>
          <note pan="0" key="18" len="12" vol="193" pos="192"/>
          <note pan="0" key="18" len="12" vol="193" pos="204"/>
          <note pan="0" key="18" len="12" vol="193" pos="216"/>
          <note pan="0" key="18" len="12" vol="193" pos="228"/>
          <note pan="0" key="18" len="12" vol="193" pos="240"/>
          <note pan="0" key="18" len="12" vol="193" pos="252"/>
          <note pan="0" key="18" len="12" vol="193" pos="264"/>
          <note pan="0" key="18" len="12" vol="193" pos="276"/>
          <note pan="0" key="18" len="12" vol="193" pos="288"/>
          <note pan="0" key="18" len="12" vol="193" pos="300"/>
          <note pan="0" key="18" len="12" vol="193" pos="312"/>
          <note pan="0" key="18" len="12" vol="193" pos="324"/>
          <note pan="0" key="18" len="12" vol="193" pos="336"/>
          <note pan="0" key="18" len="12" vol="193" pos="348"/>
          <note pan="0" key="18" len="12" vol="193" pos="360"/>
          <note pan="0" key="18" len="12" vol="193" pos="372"/>
          <note pan="0" key="17" len="12" vol="193" pos="384"/>
          <note pan="0" key="17" len="12" vol="193" pos="396"/>
          <note pan="0" key="17" len="12" vol="193" pos="408"/>
          <note pan="0" key="17" len="12" vol="193" pos="420"/>
          <note pan="0" key="17" len="12" vol="193" pos="432"/>
          <note pan="0" key="17" len="12" vol="193" pos="444"/>
          <note pan="0" key="17" len="12" vol="193" pos="456"/>
          <note pan="0" key="17" len="12" vol="193" pos="468"/>
          <note pan="0" key="17" len="12" vol="193" pos="480"/>
          <note pan="0" key="17" len="12" vol="193" pos="492"/>
          <note pan="0" key="17" len="12" vol="193" pos="504"/>
          <note pan="0" key="17" len="12" vol="193" pos="516"/>
          <note pan="0" key="17" len="12" vol="193" pos="528"/>
          <note pan="0" key="17" len="12" vol="193" pos="540"/>
          <note pan="0" key="17" len="12" vol="193" pos="552"/>
          <note pan="0" key="17" len="12" vol="193" pos="564"/>
          <note pan="0" key="17" len="12" vol="193" pos="576"/>
          <note pan="0" key="17" len="12" vol="193" pos="588"/>
          <note pan="0" key="17" len="12" vol="193" pos="600"/>
          <note pan="0" key="17" len="12" vol="193" pos="612"/>
          <note pan="0" key="17" len="12" vol="193" pos="624"/>
          <note pan="0" key="17" len="12" vol="193" pos="636"/>
          <note pan="0" key="17" len="12" vol="193" pos="648"/>
          <note pan="0" key="17" len="12" vol="193" pos="660"/>
          <note pan="0" key="17" len="12" vol="193" pos="672"/>
          <note pan="0" key="17" len="12" vol="193" pos="684"/>
          <note pan="0" key="17" len="12" vol="193" pos="696"/>
          <note pan="0" key="17" len="12" vol="193" pos="708"/>
          <note pan="0" key="17" len="12" vol="193" pos="720"/>
          <note pan="0" key="17" len="12" vol="193" pos="732"/>
          <note pan="0" key="17" len="12" vol="193" pos="744"/>
          <note pan="0" key="17" len="12" vol="193" pos="756"/>
          <note pan="0" key="16" len="12" vol="193" pos="768"/>
          <note pan="0" key="16" len="12" vol="193" pos="780"/>
          <note pan="0" key="16" len="12" vol="193" pos="792"/>
          <note pan="0" key="16" len="12" vol="193" pos="804"/>
          <note pan="0" key="16" len="12" vol="193" pos="816"/>
          <note pan="0" key="16" len="12" vol="193" pos="828"/>
          <note pan="0" key="16" len="12" vol="193" pos="840"/>
          <note pan="0" key="16" len="12" vol="193" pos="852"/>
          <note pan="0" key="16" len="12" vol="193" pos="864"/>
          <note pan="0" key="16" len="12" vol="193" pos="876"/>
          <note pan="0" key="16" len="12" vol="193" pos="888"/>
          <note pan="0" key="16" len="12" vol="193" pos="900"/>
          <note pan="0" key="16" len="12" vol="193" pos="912"/>
          <note pan="0" key="16" len="12" vol="193" pos="924"/>
          <note pan="0" key="16" len="12" vol="193" pos="936"/>
          <note pan="0" key="16" len="12" vol="193" pos="948"/>
          <note pan="0" key="16" len="12" vol="193" pos="960"/>
          <note pan="0" key="16" len="12" vol="193" pos="972"/>
          <note pan="0" key="16" len="12" vol="193" pos="984"/>
          <note pan="0" key="16" len="12" vol="193" pos="996"/>
          <note pan="0" key="16" len="12" vol="193" pos="1008"/>
          <note pan="0" key="16" len="12" vol="193" pos="1020"/>
          <note pan="0" key="16" len="12" vol="193" pos="1032"/>
          <note pan="0" key="16" len="12" vol="193" pos="1044"/>
          <note pan="0" key="16" len="12" vol="193" pos="1056"/>
          <note pan="0" key="16" len="12" vol="193" pos="1068"/>
          <note pan="0" key="16" len="12" vol="193" pos="1080"/>
          <note pan="0" key="16" len="12" vol="193" pos="1092"/>
          <note pan="0" key="16" len="12" vol="193" pos="1104"/>
          <note pan="0" key="16" len="12" vol="193" pos="1116"/>
          <note pan="0" key="16" len="12" vol="193" pos="1128"/>
          <note pan="0" key="16" len="12" vol="193" pos="1140"/>
          <note pan="0" key="15" len="12" vol="193" pos="1152"/>
          <note pan="0" key="15" len="12" vol="193" pos="1164"/>
          <note pan="0" key="15" len="12" vol="193" pos="1176"/>
          <note pan="0" key="15" len="12" vol="193" pos="1188"/>
          <note pan="0" key="15" len="12" vol="193" pos="1200"/>
          <note pan="0" key="15" len="12" vol="193" pos="1212"/>
          <note pan="0" key="15" len="12" vol="193" pos="1224"/>
          <note pan="0" key="15" len="12" vol="193" pos="1236"/>
          <note pan="0" key="15" len="12" vol="193" pos="1248"/>
          <note pan="0" key="15" len="12" vol="193" pos="1260"/>
          <note pan="0" key="15" len="12" vol="193" pos="1272"/>
          <note pan="0" key="15" len="12" vol="193" pos="1284"/>
          <note pan="0" key="15" len="12" vol="193" pos="1296"/>
          <note pan="0" key="15" len="12" vol="193" pos="1308"/>
          <note pan="0" key="15" len="12" vol="193" pos="1320"/>
          <note pan="0" key="15" len="12" vol="193" pos="1332"/>
          <note pan="0" key="15" len="12" vol="193" pos="1344"/>
          <note pan="0" key="15" len="12" vol="193" pos="1356"/>
          <note pan="0" key="15" len="12" vol="193" pos="1368"/>
          <note pan="0" key="15" len="12" vol="193" pos="1380"/>
          <note pan="0" key="15" len="12" vol="193" pos="1392"/>
          <note pan="0" key="15" len="12" vol="193" pos="1404"/>
          <note pan="0" key="15" len="12" vol="193" pos="1416"/>
          <note pan="0" key="15" len="12" vol="193" pos="1428"/>
          <note pan="0" key="15" len="12" vol="193" pos="1440"/>
          <note pan="0" key="15" len="12" vol="193" pos="1452"/>
          <note pan="0" key="15" len="12" vol="193" pos="1464"/>
          <note pan="0" key="15" len="12" vol="193" pos="1476"/>
          <note pan="0" key="15" len="12" vol="193" pos="1488"/>
          <note pan="0" key="15" len="12" vol="193" pos="1500"/>
          <note pan="0" key="15" len="12" vol="193" pos="1512"/>
          <note pan="0" key="15" len="12" vol="193" pos="1524"/>
          <note pan="0" key="14" len="12" vol="193" pos="1536"/>
          <note pan="0" key="14" len="12" vol="193" pos="1548"/>
          <note pan="0" key="14" len="12" vol="193" pos="1560"/>
          <note pan="0" key="14" len="12" vol="193" pos="1572"/>
          <note pan="0" key="14" len="12" vol="193" pos="1584"/>
          <note pan="0" key="14" len="12" vol="193" pos="1596"/>
          <note pan="0" key="14" len="12" vol="193" pos="1608"/>
          <note pan="0" key="14" len="12" vol="193" pos="1620"/>
          <note pan="0" key="14" len="12" vol="193" pos="1632"/>
          <note pan="0" key="14" len="12" vol="193" pos="1644"/>
          <note pan="0" key="14" len="12" vol="193" pos="1656"/>
          <note pan="0" key="14" len="12" vol="193" pos="1668"/>
          <note pan="0" key="14" len="12" vol="193" pos="1680"/>
          <note pan="0" key="14" len="12" vol="193" pos="1692"/>
          <note pan="0" key="14" len="12" vol="193" pos="1704"/>
          <note pan="0" key="14" len="12" vol="193" pos="1716"/>
          <note pan="0" key="14" len="12" vol="193" pos="1728"/>
          <note pan="0" key="14" len="12" vol="193" pos="1740"/>
          <note pan="0" key="14" len="12" vol="193" pos="1752"/>
          <note pan="0" key="14" len="12" vol="193" pos="1764"/>
          <note pan="0" key="14" len="12" vol="193" pos="1776"/>
          <note pan="0" key="14" len="12" vol="193" pos="1788"/>
          <note pan="0" key="14" len="12" vol="193" pos="1800"/>
          <note pan="0" key="14" len="12" vol="193" pos="1812"/>
          <note pan="0" key="14" len="12" vol="193" pos="1824"/>
          <note pan="0" key="14" len="12" vol="193" pos="1836"/>
          <note pan="0" key="14" len="12" vol="193" pos="1848"/>
          <note pan="0" key="14" len="12" vol="193" pos="1860"/>
          <note pan="0" key="14" len="12" vol="193" pos="1872"/>
          <note pan="0" key="14" len="12" vol="193" pos="1884"/>
          <note pan="0" key="14" len="12" vol="193" pos="1896"/>
          <note pan="0" key="14" len="12" vol="193" pos="1908"/>
          <note pan="0" key="13" len="12" vol="193" pos="1920"/>
          <note pan="0" key="13" len="12" vol="193" pos="1932"/>
          <note pan="0" key="13" len="12" vol="193" pos="1944"/>
          <note pan="0" key="13" len="12" vol="193" pos="1956"/>
          <note pan="0" key="13" len="12" vol="193" pos="1968"/>
          <note pan="0" key="13" len="12" vol="193" pos="1980"/>
          <note pan="0" key="13" len="12" vol="193" pos="1992"/>
          <note pan="0" key="13" len="12" vol="193" pos="2004"/>
          <note pan="0" key="13" len="12" vol="193" pos="2016"/>
          <note pan="0" key="13" len="12" vol="193" pos="2028"/>
          <note pan="0" key="13" len="12" vol="193" pos="2040"/>
          <note pan="0" key="13" len="12" vol="193" pos="2052"/>
          <note pan="0" key="13" len="12" vol="193" pos="2064"/>
          <note pan="0" key="13" len="12" vol="193" pos="2076"/>
          <note pan="0" key="13" len="12" vol="193" pos="2088"/>
          <note pan="0" key="13" len="12" vol="193" pos="2100"/>
          <note pan="0" key="13" len="12" vol="193" pos="2112"/>
          <note pan="0" key="13" len="12" vol="193" pos="2124"/>
          <note pan="0" key="13" len="12" vol="193" pos="2136"/>
          <note pan="0" key="13" len="12" vol="193" pos="2148"/>
          <note pan="0" key="13" len="12" vol="193" pos="2160"/>
          <note pan="0" key="13" len="12" vol="193" pos="2172"/>
          <note pan="0" key="13" len="12" vol="193" pos="2184"/>
          <note pan="0" key="13" len="12" vol="193" pos="2196"/>
          <note pan="0" key="13" len="12" vol="193" pos="2208"/>
          <note pan="0" key="13" len="12" vol="193" pos="2220"/>
          <note pan="0" key="13" len="12" vol="193" pos="2232"/>
          <note pan="0" key="13" len="12" vol="193" pos="2244"/>
          <note pan="0" key="13" len="12" vol="193" pos="2256"/>
          <note pan="0" key="13" len="12" vol="193" pos="2268"/>
          <note pan="0" key="13" len="12" vol="193" pos="2280"/>
          <note pan="0" key="13" len="12" vol="193" pos="2292"/>
          <note pan="0" key="12" len="12" vol="193" pos="2304"/>
          <note pan="0" key="12" len="12" vol="193" pos="2316"/>
          <note pan="0" key="12" len="12" vol="193" pos="2328"/>
          <note pan="0" key="12" len="12" vol="193" pos="2340"/>
          <note pan="0" key="12" len="12" vol="193" pos="2352"/>
          <note pan="0" key="12" len="12" vol="193" pos="2364"/>
          <note pan="0" key="12" len="12" vol="193" pos="2376"/>
          <note pan="0" key="12" len="12" vol="193" pos="2388"/>
          <note pan="0" key="12" len="12" vol="193" pos="2400"/>
          <note pan="0" key="12" len="12" vol="193" pos="2412"/>
          <note pan="0" key="12" len="12" vol="193" pos="2424"/>
          <note pan="0" key="12" len="12" vol="193" pos="2436"/>
          <note pan="0" key="12" len="12" vol="193" pos="2448"/>
          <note pan="0" key="12" len="12" vol="193" pos="2460"/>
          <note pan="0" key="12" len="12" vol="193" pos="2472"/>
          <note pan="0" key="12" len="12" vol="193" pos="2484"/>
          <note pan="0" key="12" len="12" vol="193" pos="2496"/>
          <note pan="0" key="12" len="12" vol="193" pos="2508"/>
          <note pan="0" key="12" len="12" vol="193" pos="2520"/>
          <note pan="0" key="12" len="12" vol="193" pos="2532"/>
          <note pan="0" key="12" len="12" vol="193" pos="2544"/>
          <note pan="0" key="12" len="12" vol="193" pos="2556"/>
          <note pan="0" key="12" len="12" vol="193" pos="2568"/>
          <note pan="0" key="12" len="12" vol="193" pos="2580"/>
          <note pan="0" key="12" len="12" vol="193" pos="2592"/>
          <note pan="0" key="12" len="12" vol="193" pos="2604"/>
          <note pan="0" key="12" len="12" vol="193" pos="2616"/>
          <note pan="0" key="12" len="12" vol="193" pos="2628"/>
          <note pan="0" key="12" len="12" vol="193" pos="2640"/>
          <note pan="0" key="12" len="12" vol="193" pos="2652"/>
          <note pan="0" key="12" len="12" vol="193" pos="2664"/>
          <note pan="0" key="12" len="12" vol="193" pos="2676"/>
          <note pan="0" key="13" len="192" vol="193" pos="2688"/>
          <note pan="0" key="14" len="48" vol="193" pos="2880"/>
          <note pan="0" key="13" len="48" vol="193" pos="2928"/>
          <note pan="0" key="17" len="12" vol="193" pos="2976"/>
          <note pan="0" key="17" len="12" vol="193" pos="2988"/>
          <note pan="0" key="18" len="12" vol="193" pos="3000"/>
          <note pan="0" key="18" len="12" vol="193" pos="3012"/>
          <note pan="0" key="20" len="12" vol="193" pos="3024"/>
          <note pan="0" key="20" len="12" vol="193" pos="3036"/>
          <note pan="0" key="17" len="12" vol="193" pos="3048"/>
          <note pan="0" key="17" len="12" vol="193" pos="3060"/>
        </pattern>
        <pattern muted="0" type="1" pos="6144" steps="16" name="bass fender jazz (1,379kb)">
          <note pan="0" key="18" len="12" vol="193" pos="0"/>
          <note pan="0" key="18" len="12" vol="193" pos="12"/>
          <note pan="0" key="18" len="12" vol="193" pos="24"/>
          <note pan="0" key="18" len="12" vol="193" pos="36"/>
          <note pan="0" key="18" len="12" vol="193" pos="48"/>
          <note pan="0" key="18" len="12" vol="193" pos="60"/>
          <note pan="0" key="18" len="12" vol="193" pos="72"/>
          <note pan="0" key="18" len="12" vol="193" pos="84"/>
          <note pan="0" key="18" len="12" vol="193" pos="96"/>
          <note pan="0" key="18" len="12" vol="193" pos="108"/>
          <note pan="0" key="18" len="12" vol="193" pos="120"/>
          <note pan="0" key="18" len="12" vol="193" pos="132"/>
          <note pan="0" key="18" len="12" vol="193" pos="144"/>
          <note pan="0" key="18" len="12" vol="193" pos="156"/>
          <note pan="0" key="14" len="24" vol="193" pos="168"/>
          <note pan="0" key="14" len="12" vol="193" pos="192"/>
          <note pan="0" key="14" len="12" vol="193" pos="204"/>
          <note pan="0" key="14" len="24" vol="193" pos="216"/>
          <note pan="0" key="14" len="12" vol="193" pos="240"/>
          <note pan="0" key="14" len="12" vol="193" pos="252"/>
          <note pan="0" key="14" len="48" vol="193" pos="264"/>
          <note pan="0" key="14" len="12" vol="193" pos="312"/>
          <note pan="0" key="14" len="12" vol="193" pos="324"/>
          <note pan="0" key="14" len="12" vol="193" pos="336"/>
          <note pan="0" key="14" len="12" vol="193" pos="348"/>
          <note pan="0" key="14" len="12" vol="193" pos="360"/>
          <note pan="0" key="14" len="12" vol="193" pos="372"/>
        </pattern>
        <pattern muted="0" type="1" pos="6528" steps="16" name="bass fender jazz (1,379kb)">
          <note pan="0" key="16" len="12" vol="193" pos="0"/>
          <note pan="0" key="16" len="12" vol="193" pos="12"/>
          <note pan="0" key="16" len="12" vol="193" pos="24"/>
          <note pan="0" key="16" len="12" vol="193" pos="36"/>
          <note pan="0" key="16" len="12" vol="193" pos="48"/>
          <note pan="0" key="16" len="12" vol="193" pos="60"/>
          <note pan="0" key="16" len="12" vol="193" pos="72"/>
          <note pan="0" key="16" len="12" vol="193" pos="84"/>
          <note pan="0" key="16" len="12" vol="193" pos="96"/>
          <note pan="0" key="16" len="12" vol="193" pos="108"/>
          <note pan="0" key="16" len="12" vol="193" pos="120"/>
          <note pan="0" key="16" len="12" vol="193" pos="132"/>
          <note pan="0" key="16" len="12" vol="193" pos="144"/>
          <note pan="0" key="16" len="12" vol="193" pos="156"/>
          <note pan="0" key="13" len="48" vol="193" pos="168"/>
          <note pan="0" key="13" len="24" vol="193" pos="216"/>
          <note pan="0" key="13" len="24" vol="193" pos="240"/>
          <note pan="0" key="13" len="48" vol="193" pos="264"/>
          <note pan="0" key="17" len="12" vol="193" pos="312"/>
          <note pan="0" key="18" len="12" vol="193" pos="324"/>
          <note pan="0" key="20" len="12" vol="193" pos="336"/>
          <note pan="0" key="18" len="12" vol="193" pos="348"/>
          <note pan="0" key="17" len="12" vol="193" pos="360"/>
          <note pan="0" key="20" len="12" vol="193" pos="372"/>
        </pattern>
        <pattern muted="0" type="1" pos="6912" steps="16" name="bass fender jazz (1,379kb)">
          <note pan="0" key="18" len="12" vol="193" pos="0"/>
          <note pan="0" key="18" len="12" vol="193" pos="12"/>
          <note pan="0" key="18" len="12" vol="193" pos="24"/>
          <note pan="0" key="18" len="12" vol="193" pos="36"/>
          <note pan="0" key="18" len="12" vol="193" pos="48"/>
          <note pan="0" key="18" len="12" vol="193" pos="60"/>
          <note pan="0" key="18" len="12" vol="193" pos="72"/>
          <note pan="0" key="18" len="12" vol="193" pos="84"/>
          <note pan="0" key="18" len="12" vol="193" pos="96"/>
          <note pan="0" key="18" len="12" vol="193" pos="108"/>
          <note pan="0" key="18" len="12" vol="193" pos="120"/>
          <note pan="0" key="18" len="12" vol="193" pos="132"/>
          <note pan="0" key="18" len="12" vol="193" pos="144"/>
          <note pan="0" key="18" len="12" vol="193" pos="156"/>
          <note pan="0" key="14" len="24" vol="193" pos="168"/>
          <note pan="0" key="14" len="12" vol="193" pos="192"/>
          <note pan="0" key="14" len="12" vol="193" pos="204"/>
          <note pan="0" key="14" len="24" vol="193" pos="216"/>
          <note pan="0" key="14" len="12" vol="193" pos="240"/>
          <note pan="0" key="14" len="12" vol="193" pos="252"/>
          <note pan="0" key="14" len="48" vol="193" pos="264"/>
          <note pan="0" key="14" len="12" vol="193" pos="312"/>
          <note pan="0" key="14" len="12" vol="193" pos="324"/>
          <note pan="0" key="14" len="12" vol="193" pos="336"/>
          <note pan="0" key="14" len="12" vol="193" pos="348"/>
          <note pan="0" key="14" len="12" vol="193" pos="360"/>
          <note pan="0" key="14" len="12" vol="193" pos="372"/>
        </pattern>
        <pattern muted="0" type="1" pos="7296" steps="16" name="bass fender jazz (1,379kb)">
          <note pan="0" key="21" len="12" vol="193" pos="0"/>
          <note pan="0" key="21" len="12" vol="193" pos="12"/>
          <note pan="0" key="21" len="12" vol="193" pos="24"/>
          <note pan="0" key="21" len="12" vol="193" pos="36"/>
          <note pan="0" key="21" len="12" vol="193" pos="48"/>
          <note pan="0" key="21" len="12" vol="193" pos="60"/>
          <note pan="0" key="21" len="12" vol="193" pos="72"/>
          <note pan="0" key="21" len="12" vol="193" pos="84"/>
          <note pan="0" key="21" len="12" vol="193" pos="96"/>
          <note pan="0" key="21" len="12" vol="193" pos="108"/>
          <note pan="0" key="21" len="12" vol="193" pos="120"/>
          <note pan="0" key="21" len="12" vol="193" pos="132"/>
          <note pan="0" key="21" len="12" vol="193" pos="144"/>
          <note pan="0" key="21" len="12" vol="193" pos="156"/>
          <note pan="0" key="29" len="48" vol="193" pos="168"/>
          <note pan="0" key="25" len="24" vol="193" pos="216"/>
          <note pan="0" key="23" len="24" vol="193" pos="240"/>
          <note pan="0" key="25" len="48" vol="193" pos="264"/>
          <note pan="0" key="23" len="12" vol="193" pos="312"/>
          <note pan="0" key="25" len="12" vol="193" pos="324"/>
          <note pan="0" key="26" len="12" vol="193" pos="336"/>
          <note pan="0" key="25" len="12" vol="193" pos="348"/>
          <note pan="0" key="23" len="12" vol="193" pos="360"/>
          <note pan="0" key="25" len="12" vol="193" pos="372"/>
        </pattern>
        <pattern muted="0" type="1" pos="7680" steps="16" name="bass fender jazz (1,379kb)">
          <note pan="0" key="18" len="12" vol="193" pos="0"/>
          <note pan="0" key="18" len="12" vol="193" pos="12"/>
          <note pan="0" key="18" len="12" vol="193" pos="24"/>
          <note pan="0" key="18" len="12" vol="193" pos="36"/>
          <note pan="0" key="18" len="12" vol="193" pos="48"/>
          <note pan="0" key="18" len="12" vol="193" pos="60"/>
          <note pan="0" key="18" len="12" vol="193" pos="72"/>
          <note pan="0" key="18" len="12" vol="193" pos="84"/>
          <note pan="0" key="18" len="12" vol="193" pos="96"/>
          <note pan="0" key="18" len="12" vol="193" pos="108"/>
          <note pan="0" key="18" len="12" vol="193" pos="120"/>
          <note pan="0" key="18" len="12" vol="193" pos="132"/>
          <note pan="0" key="18" len="12" vol="193" pos="144"/>
          <note pan="0" key="18" len="12" vol="193" pos="156"/>
          <note pan="0" key="14" len="24" vol="193" pos="168"/>
          <note pan="0" key="14" len="12" vol="193" pos="192"/>
          <note pan="0" key="14" len="12" vol="193" pos="204"/>
          <note pan="0" key="14" len="24" vol="193" pos="216"/>
          <note pan="0" key="14" len="12" vol="193" pos="240"/>
          <note pan="0" key="14" len="12" vol="193" pos="252"/>
          <note pan="0" key="14" len="48" vol="193" pos="264"/>
          <note pan="0" key="14" len="12" vol="193" pos="312"/>
          <note pan="0" key="14" len="12" vol="193" pos="324"/>
          <note pan="0" key="14" len="12" vol="193" pos="336"/>
          <note pan="0" key="14" len="12" vol="193" pos="348"/>
          <note pan="0" key="14" len="12" vol="193" pos="360"/>
          <note pan="0" key="14" len="12" vol="193" pos="372"/>
        </pattern>
        <pattern muted="0" type="1" pos="8064" steps="16" name="bass fender jazz (1,379kb)">
          <note pan="0" key="21" len="12" vol="193" pos="0"/>
          <note pan="0" key="21" len="12" vol="193" pos="12"/>
          <note pan="0" key="21" len="12" vol="193" pos="24"/>
          <note pan="0" key="21" len="12" vol="193" pos="36"/>
          <note pan="0" key="21" len="12" vol="193" pos="48"/>
          <note pan="0" key="21" len="12" vol="193" pos="60"/>
          <note pan="0" key="21" len="12" vol="193" pos="72"/>
          <note pan="0" key="21" len="12" vol="193" pos="84"/>
          <note pan="0" key="21" len="12" vol="193" pos="96"/>
          <note pan="0" key="21" len="12" vol="193" pos="108"/>
          <note pan="0" key="21" len="12" vol="193" pos="120"/>
          <note pan="0" key="21" len="12" vol="193" pos="132"/>
          <note pan="0" key="21" len="12" vol="193" pos="144"/>
          <note pan="0" key="21" len="12" vol="193" pos="156"/>
          <note pan="0" key="29" len="48" vol="193" pos="168"/>
          <note pan="0" key="25" len="24" vol="193" pos="216"/>
          <note pan="0" key="23" len="24" vol="193" pos="240"/>
          <note pan="0" key="25" len="48" vol="193" pos="264"/>
          <note pan="0" key="23" len="12" vol="193" pos="312"/>
          <note pan="0" key="25" len="12" vol="193" pos="324"/>
          <note pan="0" key="26" len="12" vol="193" pos="336"/>
          <note pan="0" key="25" len="12" vol="193" pos="348"/>
          <note pan="0" key="23" len="12" vol="193" pos="360"/>
          <note pan="0" key="25" len="12" vol="193" pos="372"/>
        </pattern>
        <pattern muted="0" type="1" pos="8448" steps="16" name="bass fender jazz (1,379kb)">
          <note pan="0" key="14" len="384" vol="197" pos="0"/>
          <note pan="0" key="16" len="192" vol="197" pos="384"/>
          <note pan="0" key="17" len="12" vol="197" pos="576"/>
          <note pan="0" key="17" len="12" vol="197" pos="588"/>
          <note pan="0" key="13" len="12" vol="197" pos="600"/>
          <note pan="0" key="13" len="12" vol="197" pos="612"/>
          <note pan="0" key="17" len="12" vol="197" pos="624"/>
          <note pan="0" key="17" len="12" vol="197" pos="636"/>
          <note pan="0" key="18" len="12" vol="197" pos="648"/>
          <note pan="0" key="18" len="12" vol="197" pos="660"/>
          <note pan="0" key="20" len="12" vol="197" pos="672"/>
          <note pan="0" key="20" len="12" vol="197" pos="684"/>
          <note pan="0" key="18" len="12" vol="197" pos="696"/>
          <note pan="0" key="18" len="12" vol="197" pos="708"/>
          <note pan="0" key="17" len="12" vol="197" pos="720"/>
          <note pan="0" key="17" len="12" vol="197" pos="732"/>
          <note pan="0" key="13" len="12" vol="197" pos="744"/>
          <note pan="0" key="13" len="12" vol="197" pos="756"/>
        </pattern>
        <pattern muted="0" type="1" pos="9216" steps="16" name="bass fender jazz (1,379kb)">
          <note pan="0" key="18" len="384" vol="193" pos="0"/>
          <note pan="0" key="14" len="48" vol="193" pos="384"/>
          <note pan="0" key="14" len="12" vol="193" pos="432"/>
          <note pan="0" key="14" len="12" vol="193" pos="444"/>
          <note pan="0" key="14" len="12" vol="193" pos="456"/>
          <note pan="0" key="14" len="12" vol="193" pos="468"/>
          <note pan="0" key="14" len="12" vol="193" pos="480"/>
          <note pan="0" key="14" len="12" vol="193" pos="492"/>
          <note pan="0" key="14" len="12" vol="193" pos="504"/>
          <note pan="0" key="14" len="12" vol="193" pos="516"/>
          <note pan="0" key="14" len="12" vol="193" pos="528"/>
          <note pan="0" key="14" len="12" vol="193" pos="540"/>
          <note pan="0" key="14" len="12" vol="193" pos="552"/>
          <note pan="0" key="14" len="12" vol="193" pos="564"/>
          <note pan="0" key="14" len="24" vol="193" pos="576"/>
          <note pan="0" key="14" len="12" vol="193" pos="600"/>
          <note pan="0" key="14" len="12" vol="193" pos="612"/>
          <note pan="0" key="14" len="12" vol="193" pos="624"/>
          <note pan="0" key="14" len="12" vol="193" pos="636"/>
          <note pan="0" key="14" len="24" vol="193" pos="648"/>
          <note pan="0" key="14" len="12" vol="193" pos="672"/>
          <note pan="0" key="14" len="12" vol="193" pos="684"/>
          <note pan="0" key="14" len="12" vol="193" pos="696"/>
          <note pan="0" key="14" len="12" vol="193" pos="708"/>
          <note pan="0" key="14" len="12" vol="193" pos="720"/>
          <note pan="0" key="13" len="12" vol="193" pos="732"/>
          <note pan="0" key="14" len="12" vol="193" pos="744"/>
          <note pan="0" key="16" len="12" vol="193" pos="756"/>
        </pattern>
        <pattern muted="0" type="1" pos="9984" steps="16" name="bass fender jazz (1,379kb)">
          <note pan="0" key="18" len="384" vol="193" pos="0"/>
          <note pan="0" key="21" len="48" vol="193" pos="384"/>
          <note pan="0" key="21" len="12" vol="193" pos="432"/>
          <note pan="0" key="21" len="12" vol="193" pos="444"/>
          <note pan="0" key="21" len="12" vol="193" pos="456"/>
          <note pan="0" key="21" len="12" vol="193" pos="468"/>
          <note pan="0" key="21" len="12" vol="193" pos="480"/>
          <note pan="0" key="21" len="12" vol="193" pos="492"/>
          <note pan="0" key="21" len="12" vol="193" pos="504"/>
          <note pan="0" key="21" len="12" vol="193" pos="516"/>
          <note pan="0" key="21" len="12" vol="193" pos="528"/>
          <note pan="0" key="21" len="12" vol="193" pos="540"/>
          <note pan="0" key="21" len="12" vol="193" pos="552"/>
          <note pan="0" key="21" len="12" vol="193" pos="564"/>
          <note pan="0" key="13" len="24" vol="193" pos="576"/>
          <note pan="0" key="13" len="12" vol="193" pos="600"/>
          <note pan="0" key="13" len="12" vol="193" pos="612"/>
          <note pan="0" key="13" len="12" vol="193" pos="624"/>
          <note pan="0" key="13" len="12" vol="193" pos="636"/>
          <note pan="0" key="13" len="24" vol="193" pos="648"/>
          <note pan="0" key="13" len="12" vol="193" pos="672"/>
          <note pan="0" key="13" len="12" vol="193" pos="684"/>
          <note pan="0" key="13" len="12" vol="193" pos="696"/>
          <note pan="0" key="13" len="12" vol="193" pos="708"/>
          <note pan="0" key="13" len="24" vol="193" pos="720"/>
          <note pan="0" key="13" len="12" vol="193" pos="744"/>
          <note pan="0" key="13" len="12" vol="193" pos="756"/>
        </pattern>
        <pattern muted="0" type="1" pos="10752" steps="16" name="bass fender jazz (1,379kb)">
          <note pan="0" key="18" len="384" vol="193" pos="0"/>
          <note pan="0" key="11" len="48" vol="193" pos="384"/>
          <note pan="0" key="11" len="12" vol="193" pos="432"/>
          <note pan="0" key="11" len="12" vol="193" pos="444"/>
          <note pan="0" key="11" len="12" vol="193" pos="456"/>
          <note pan="0" key="11" len="12" vol="193" pos="468"/>
          <note pan="0" key="11" len="12" vol="193" pos="480"/>
          <note pan="0" key="11" len="12" vol="193" pos="492"/>
          <note pan="0" key="11" len="12" vol="193" pos="504"/>
          <note pan="0" key="11" len="12" vol="193" pos="516"/>
          <note pan="0" key="11" len="12" vol="193" pos="528"/>
          <note pan="0" key="11" len="12" vol="193" pos="540"/>
          <note pan="0" key="11" len="12" vol="193" pos="552"/>
          <note pan="0" key="11" len="12" vol="193" pos="564"/>
          <note pan="0" key="11" len="24" vol="193" pos="576"/>
          <note pan="0" key="11" len="12" vol="193" pos="600"/>
          <note pan="0" key="11" len="12" vol="193" pos="612"/>
          <note pan="0" key="11" len="12" vol="193" pos="624"/>
          <note pan="0" key="11" len="12" vol="193" pos="636"/>
          <note pan="0" key="11" len="24" vol="193" pos="648"/>
          <note pan="0" key="11" len="12" vol="193" pos="672"/>
          <note pan="0" key="11" len="12" vol="193" pos="684"/>
          <note pan="0" key="11" len="12" vol="193" pos="696"/>
          <note pan="0" key="11" len="12" vol="193" pos="708"/>
          <note pan="0" key="11" len="12" vol="193" pos="720"/>
          <note pan="0" key="10" len="12" vol="193" pos="732"/>
          <note pan="0" key="11" len="12" vol="193" pos="744"/>
          <note pan="0" key="13" len="12" vol="193" pos="756"/>
        </pattern>
        <pattern muted="0" type="1" pos="12288" steps="16" name="bass fender jazz (1,379kb)">
          <note pan="0" key="18" len="12" vol="193" pos="0"/>
          <note pan="0" key="18" len="12" vol="193" pos="12"/>
          <note pan="0" key="18" len="12" vol="193" pos="24"/>
          <note pan="0" key="18" len="12" vol="193" pos="36"/>
          <note pan="0" key="18" len="12" vol="193" pos="48"/>
          <note pan="0" key="18" len="12" vol="193" pos="60"/>
          <note pan="0" key="18" len="12" vol="193" pos="72"/>
          <note pan="0" key="18" len="12" vol="193" pos="84"/>
          <note pan="0" key="18" len="12" vol="193" pos="96"/>
          <note pan="0" key="18" len="12" vol="193" pos="108"/>
          <note pan="0" key="18" len="12" vol="193" pos="120"/>
          <note pan="0" key="18" len="12" vol="193" pos="132"/>
          <note pan="0" key="18" len="12" vol="193" pos="144"/>
          <note pan="0" key="18" len="12" vol="193" pos="156"/>
          <note pan="0" key="18" len="12" vol="193" pos="168"/>
          <note pan="0" key="18" len="12" vol="193" pos="180"/>
          <note pan="0" key="18" len="12" vol="193" pos="192"/>
          <note pan="0" key="18" len="12" vol="193" pos="204"/>
          <note pan="0" key="18" len="12" vol="193" pos="216"/>
          <note pan="0" key="18" len="12" vol="193" pos="228"/>
          <note pan="0" key="18" len="12" vol="193" pos="240"/>
          <note pan="0" key="18" len="12" vol="193" pos="252"/>
          <note pan="0" key="18" len="12" vol="193" pos="264"/>
          <note pan="0" key="18" len="12" vol="193" pos="276"/>
          <note pan="0" key="18" len="12" vol="193" pos="288"/>
          <note pan="0" key="18" len="12" vol="193" pos="300"/>
          <note pan="0" key="18" len="12" vol="193" pos="312"/>
          <note pan="0" key="18" len="12" vol="193" pos="324"/>
          <note pan="0" key="18" len="12" vol="193" pos="336"/>
          <note pan="0" key="18" len="12" vol="193" pos="348"/>
          <note pan="0" key="18" len="12" vol="193" pos="360"/>
          <note pan="0" key="18" len="12" vol="193" pos="372"/>
          <note pan="0" key="13" len="12" vol="193" pos="384"/>
          <note pan="0" key="13" len="12" vol="193" pos="396"/>
          <note pan="0" key="13" len="12" vol="193" pos="408"/>
          <note pan="0" key="13" len="12" vol="193" pos="420"/>
          <note pan="0" key="13" len="12" vol="193" pos="432"/>
          <note pan="0" key="13" len="12" vol="193" pos="444"/>
          <note pan="0" key="13" len="12" vol="193" pos="456"/>
          <note pan="0" key="13" len="12" vol="193" pos="468"/>
          <note pan="0" key="13" len="12" vol="193" pos="480"/>
          <note pan="0" key="13" len="12" vol="193" pos="492"/>
          <note pan="0" key="13" len="12" vol="193" pos="504"/>
          <note pan="0" key="13" len="12" vol="193" pos="516"/>
          <note pan="0" key="13" len="12" vol="193" pos="528"/>
          <note pan="0" key="13" len="12" vol="193" pos="540"/>
          <note pan="0" key="13" len="12" vol="193" pos="552"/>
          <note pan="0" key="13" len="12" vol="193" pos="564"/>
          <note pan="0" key="13" len="12" vol="193" pos="576"/>
          <note pan="0" key="13" len="12" vol="193" pos="588"/>
          <note pan="0" key="13" len="12" vol="193" pos="600"/>
          <note pan="0" key="13" len="12" vol="193" pos="612"/>
          <note pan="0" key="13" len="12" vol="193" pos="624"/>
          <note pan="0" key="13" len="12" vol="193" pos="636"/>
          <note pan="0" key="13" len="12" vol="193" pos="648"/>
          <note pan="0" key="13" len="12" vol="193" pos="660"/>
          <note pan="0" key="13" len="12" vol="193" pos="672"/>
          <note pan="0" key="13" len="12" vol="193" pos="684"/>
          <note pan="0" key="13" len="12" vol="193" pos="696"/>
          <note pan="0" key="13" len="12" vol="193" pos="708"/>
          <note pan="0" key="13" len="12" vol="193" pos="720"/>
          <note pan="0" key="13" len="12" vol="193" pos="732"/>
          <note pan="0" key="13" len="12" vol="193" pos="744"/>
          <note pan="0" key="13" len="12" vol="193" pos="756"/>
        </pattern>
        <pattern muted="0" type="1" pos="13056" steps="16" name="bass fender jazz (1,379kb)">
          <note pan="0" key="18" len="12" vol="193" pos="0"/>
          <note pan="0" key="18" len="12" vol="193" pos="12"/>
          <note pan="0" key="18" len="12" vol="193" pos="24"/>
          <note pan="0" key="18" len="12" vol="193" pos="36"/>
          <note pan="0" key="18" len="12" vol="193" pos="48"/>
          <note pan="0" key="18" len="12" vol="193" pos="60"/>
          <note pan="0" key="18" len="12" vol="193" pos="72"/>
          <note pan="0" key="18" len="12" vol="193" pos="84"/>
          <note pan="0" key="18" len="12" vol="193" pos="96"/>
          <note pan="0" key="18" len="12" vol="193" pos="108"/>
          <note pan="0" key="18" len="12" vol="193" pos="120"/>
          <note pan="0" key="18" len="12" vol="193" pos="132"/>
          <note pan="0" key="18" len="12" vol="193" pos="144"/>
          <note pan="0" key="18" len="12" vol="193" pos="156"/>
          <note pan="0" key="18" len="12" vol="193" pos="168"/>
          <note pan="0" key="18" len="12" vol="193" pos="180"/>
          <note pan="0" key="18" len="12" vol="193" pos="192"/>
          <note pan="0" key="18" len="12" vol="193" pos="204"/>
          <note pan="0" key="18" len="12" vol="193" pos="216"/>
          <note pan="0" key="18" len="12" vol="193" pos="228"/>
          <note pan="0" key="18" len="12" vol="193" pos="240"/>
          <note pan="0" key="18" len="12" vol="193" pos="252"/>
          <note pan="0" key="18" len="12" vol="193" pos="264"/>
          <note pan="0" key="18" len="12" vol="193" pos="276"/>
          <note pan="0" key="18" len="12" vol="193" pos="288"/>
          <note pan="0" key="18" len="12" vol="193" pos="300"/>
          <note pan="0" key="18" len="12" vol="193" pos="312"/>
          <note pan="0" key="18" len="12" vol="193" pos="324"/>
          <note pan="0" key="18" len="12" vol="193" pos="336"/>
          <note pan="0" key="18" len="12" vol="193" pos="348"/>
          <note pan="0" key="18" len="12" vol="193" pos="360"/>
          <note pan="0" key="18" len="12" vol="193" pos="372"/>
          <note pan="0" key="13" len="12" vol="193" pos="384"/>
          <note pan="0" key="13" len="12" vol="193" pos="396"/>
          <note pan="0" key="13" len="12" vol="193" pos="408"/>
          <note pan="0" key="13" len="12" vol="193" pos="420"/>
          <note pan="0" key="13" len="12" vol="193" pos="432"/>
          <note pan="0" key="13" len="12" vol="193" pos="444"/>
          <note pan="0" key="13" len="12" vol="193" pos="456"/>
          <note pan="0" key="13" len="12" vol="193" pos="468"/>
          <note pan="0" key="13" len="12" vol="193" pos="480"/>
          <note pan="0" key="13" len="12" vol="193" pos="492"/>
          <note pan="0" key="13" len="12" vol="193" pos="504"/>
          <note pan="0" key="13" len="12" vol="193" pos="516"/>
          <note pan="0" key="13" len="12" vol="193" pos="528"/>
          <note pan="0" key="13" len="12" vol="193" pos="540"/>
          <note pan="0" key="13" len="12" vol="193" pos="552"/>
          <note pan="0" key="13" len="12" vol="193" pos="564"/>
          <note pan="0" key="13" len="12" vol="193" pos="576"/>
          <note pan="0" key="13" len="12" vol="193" pos="588"/>
          <note pan="0" key="13" len="12" vol="193" pos="600"/>
          <note pan="0" key="13" len="12" vol="193" pos="612"/>
          <note pan="0" key="13" len="12" vol="193" pos="624"/>
          <note pan="0" key="13" len="12" vol="193" pos="636"/>
          <note pan="0" key="13" len="12" vol="193" pos="648"/>
          <note pan="0" key="13" len="12" vol="193" pos="660"/>
          <note pan="0" key="13" len="12" vol="193" pos="672"/>
          <note pan="0" key="13" len="12" vol="193" pos="684"/>
          <note pan="0" key="13" len="12" vol="193" pos="696"/>
          <note pan="0" key="13" len="12" vol="193" pos="708"/>
          <note pan="0" key="13" len="12" vol="193" pos="720"/>
          <note pan="0" key="13" len="12" vol="193" pos="732"/>
          <note pan="0" key="13" len="12" vol="193" pos="744"/>
          <note pan="0" key="13" len="12" vol="193" pos="756"/>
        </pattern>
        <pattern muted="0" type="1" pos="11520" steps="16" name="bass fender jazz (1,379kb)">
          <note pan="0" key="21" len="12" vol="193" pos="0"/>
          <note pan="0" key="1" len="12" vol="193" pos="0"/>
          <note pan="0" key="21" len="12" vol="193" pos="12"/>
          <note pan="0" key="21" len="12" vol="193" pos="24"/>
          <note pan="0" key="21" len="12" vol="193" pos="36"/>
          <note pan="0" key="21" len="12" vol="193" pos="48"/>
          <note pan="0" key="21" len="12" vol="193" pos="60"/>
          <note pan="0" key="21" len="12" vol="193" pos="72"/>
          <note pan="0" key="21" len="12" vol="193" pos="84"/>
          <note pan="0" key="21" len="12" vol="193" pos="96"/>
          <note pan="0" key="21" len="12" vol="193" pos="108"/>
          <note pan="0" key="21" len="12" vol="193" pos="120"/>
          <note pan="0" key="21" len="12" vol="193" pos="132"/>
          <note pan="0" key="21" len="12" vol="193" pos="144"/>
          <note pan="0" key="21" len="12" vol="193" pos="156"/>
          <note pan="0" key="21" len="12" vol="193" pos="168"/>
          <note pan="0" key="21" len="12" vol="193" pos="180"/>
          <note pan="0" key="14" len="12" vol="193" pos="192"/>
          <note pan="0" key="0" len="12" vol="193" pos="192"/>
          <note pan="0" key="13" len="12" vol="193" pos="204"/>
          <note pan="0" key="1" len="12" vol="193" pos="204"/>
          <note pan="0" key="13" len="12" vol="193" pos="216"/>
          <note pan="0" key="13" len="12" vol="193" pos="228"/>
          <note pan="0" key="13" len="12" vol="193" pos="240"/>
          <note pan="0" key="13" len="12" vol="193" pos="252"/>
          <note pan="0" key="14" len="12" vol="193" pos="264"/>
          <note pan="0" key="0" len="12" vol="193" pos="264"/>
          <note pan="0" key="13" len="12" vol="193" pos="276"/>
          <note pan="0" key="1" len="12" vol="193" pos="276"/>
          <note pan="0" key="13" len="12" vol="193" pos="288"/>
          <note pan="0" key="13" len="12" vol="193" pos="300"/>
          <note pan="0" key="13" len="12" vol="193" pos="312"/>
          <note pan="0" key="13" len="12" vol="193" pos="324"/>
          <note pan="0" key="14" len="12" vol="193" pos="336"/>
          <note pan="0" key="17" len="12" vol="193" pos="348"/>
          <note pan="0" key="18" len="12" vol="193" pos="360"/>
          <note pan="0" key="20" len="12" vol="193" pos="372"/>
          <note pan="0" key="18" len="24" vol="193" pos="384"/>
          <note pan="0" key="0" len="12" vol="193" pos="384"/>
          <note pan="0" key="1" len="12" vol="193" pos="396"/>
          <note pan="0" key="18" len="12" vol="193" pos="408"/>
          <note pan="0" key="18" len="12" vol="193" pos="420"/>
          <note pan="0" key="18" len="12" vol="193" pos="432"/>
          <note pan="0" key="18" len="12" vol="193" pos="444"/>
          <note pan="0" key="18" len="12" vol="193" pos="456"/>
          <note pan="0" key="18" len="12" vol="193" pos="468"/>
          <note pan="0" key="18" len="24" vol="193" pos="480"/>
          <note pan="0" key="0" len="12" vol="193" pos="480"/>
          <note pan="0" key="1" len="12" vol="193" pos="492"/>
          <note pan="0" key="18" len="12" vol="193" pos="504"/>
          <note pan="0" key="18" len="12" vol="193" pos="516"/>
          <note pan="0" key="18" len="12" vol="193" pos="528"/>
          <note pan="0" key="18" len="12" vol="193" pos="540"/>
          <note pan="0" key="18" len="12" vol="193" pos="552"/>
          <note pan="0" key="18" len="12" vol="193" pos="564"/>
          <note pan="0" key="18" len="24" vol="193" pos="576"/>
          <note pan="0" key="0" len="12" vol="193" pos="576"/>
          <note pan="0" key="1" len="12" vol="193" pos="588"/>
          <note pan="0" key="18" len="12" vol="193" pos="600"/>
          <note pan="0" key="18" len="12" vol="193" pos="612"/>
          <note pan="0" key="18" len="24" vol="193" pos="624"/>
          <note pan="0" key="0" len="12" vol="193" pos="624"/>
          <note pan="0" key="1" len="12" vol="193" pos="636"/>
          <note pan="0" key="18" len="12" vol="193" pos="648"/>
          <note pan="0" key="18" len="12" vol="193" pos="660"/>
          <note pan="0" key="18" len="24" vol="193" pos="672"/>
          <note pan="0" key="0" len="12" vol="193" pos="672"/>
          <note pan="0" key="1" len="12" vol="193" pos="684"/>
          <note pan="0" key="18" len="24" vol="193" pos="696"/>
          <note pan="0" key="18" len="12" vol="193" pos="720"/>
          <note pan="0" key="18" len="12" vol="193" pos="732"/>
          <note pan="0" key="18" len="12" vol="193" pos="744"/>
          <note pan="0" key="18" len="12" vol="193" pos="756"/>
        </pattern>
        <pattern muted="0" type="1" pos="13824" steps="16" name="bass fender jazz (1,379kb)">
          <note pan="0" key="18" len="384" vol="193" pos="0"/>
          <note pan="0" key="14" len="48" vol="193" pos="384"/>
          <note pan="0" key="14" len="12" vol="193" pos="432"/>
          <note pan="0" key="14" len="12" vol="193" pos="444"/>
          <note pan="0" key="14" len="12" vol="193" pos="456"/>
          <note pan="0" key="14" len="12" vol="193" pos="468"/>
          <note pan="0" key="14" len="12" vol="193" pos="480"/>
          <note pan="0" key="14" len="12" vol="193" pos="492"/>
          <note pan="0" key="14" len="12" vol="193" pos="504"/>
          <note pan="0" key="14" len="12" vol="193" pos="516"/>
          <note pan="0" key="14" len="12" vol="193" pos="528"/>
          <note pan="0" key="14" len="12" vol="193" pos="540"/>
          <note pan="0" key="14" len="12" vol="193" pos="552"/>
          <note pan="0" key="14" len="12" vol="193" pos="564"/>
          <note pan="0" key="14" len="24" vol="193" pos="576"/>
          <note pan="0" key="14" len="12" vol="193" pos="600"/>
          <note pan="0" key="14" len="12" vol="193" pos="612"/>
          <note pan="0" key="14" len="12" vol="193" pos="624"/>
          <note pan="0" key="14" len="12" vol="193" pos="636"/>
          <note pan="0" key="14" len="24" vol="193" pos="648"/>
          <note pan="0" key="14" len="12" vol="193" pos="672"/>
          <note pan="0" key="14" len="12" vol="193" pos="684"/>
          <note pan="0" key="14" len="12" vol="193" pos="696"/>
          <note pan="0" key="14" len="12" vol="193" pos="708"/>
          <note pan="0" key="14" len="12" vol="193" pos="720"/>
          <note pan="0" key="13" len="12" vol="193" pos="732"/>
          <note pan="0" key="14" len="12" vol="193" pos="744"/>
          <note pan="0" key="16" len="12" vol="193" pos="756"/>
        </pattern>
        <pattern muted="0" type="1" pos="14592" steps="16" name="bass fender jazz (1,379kb)">
          <note pan="0" key="18" len="384" vol="193" pos="0"/>
          <note pan="0" key="21" len="48" vol="193" pos="384"/>
          <note pan="0" key="21" len="12" vol="193" pos="432"/>
          <note pan="0" key="21" len="12" vol="193" pos="444"/>
          <note pan="0" key="21" len="12" vol="193" pos="456"/>
          <note pan="0" key="21" len="12" vol="193" pos="468"/>
          <note pan="0" key="21" len="12" vol="193" pos="480"/>
          <note pan="0" key="21" len="12" vol="193" pos="492"/>
          <note pan="0" key="21" len="12" vol="193" pos="504"/>
          <note pan="0" key="21" len="12" vol="193" pos="516"/>
          <note pan="0" key="21" len="12" vol="193" pos="528"/>
          <note pan="0" key="21" len="12" vol="193" pos="540"/>
          <note pan="0" key="21" len="12" vol="193" pos="552"/>
          <note pan="0" key="21" len="12" vol="193" pos="564"/>
          <note pan="0" key="13" len="24" vol="193" pos="576"/>
          <note pan="0" key="13" len="12" vol="193" pos="600"/>
          <note pan="0" key="13" len="12" vol="193" pos="612"/>
          <note pan="0" key="13" len="12" vol="193" pos="624"/>
          <note pan="0" key="13" len="12" vol="193" pos="636"/>
          <note pan="0" key="13" len="24" vol="193" pos="648"/>
          <note pan="0" key="13" len="12" vol="193" pos="672"/>
          <note pan="0" key="13" len="12" vol="193" pos="684"/>
          <note pan="0" key="13" len="12" vol="193" pos="696"/>
          <note pan="0" key="13" len="12" vol="193" pos="708"/>
          <note pan="0" key="13" len="24" vol="193" pos="720"/>
          <note pan="0" key="13" len="12" vol="193" pos="744"/>
          <note pan="0" key="13" len="12" vol="193" pos="756"/>
        </pattern>
        <pattern muted="0" type="1" pos="15360" steps="16" name="bass fender jazz (1,379kb)">
          <note pan="0" key="18" len="384" vol="193" pos="0"/>
          <note pan="0" key="11" len="48" vol="193" pos="384"/>
          <note pan="0" key="11" len="12" vol="193" pos="432"/>
          <note pan="0" key="11" len="12" vol="193" pos="444"/>
          <note pan="0" key="11" len="12" vol="193" pos="456"/>
          <note pan="0" key="11" len="12" vol="193" pos="468"/>
          <note pan="0" key="11" len="12" vol="193" pos="480"/>
          <note pan="0" key="11" len="12" vol="193" pos="492"/>
          <note pan="0" key="11" len="12" vol="193" pos="504"/>
          <note pan="0" key="11" len="12" vol="193" pos="516"/>
          <note pan="0" key="11" len="12" vol="193" pos="528"/>
          <note pan="0" key="11" len="12" vol="193" pos="540"/>
          <note pan="0" key="11" len="12" vol="193" pos="552"/>
          <note pan="0" key="11" len="12" vol="193" pos="564"/>
          <note pan="0" key="11" len="24" vol="193" pos="576"/>
          <note pan="0" key="11" len="12" vol="193" pos="600"/>
          <note pan="0" key="11" len="12" vol="193" pos="612"/>
          <note pan="0" key="11" len="12" vol="193" pos="624"/>
          <note pan="0" key="11" len="12" vol="193" pos="636"/>
          <note pan="0" key="11" len="24" vol="193" pos="648"/>
          <note pan="0" key="11" len="12" vol="193" pos="672"/>
          <note pan="0" key="11" len="12" vol="193" pos="684"/>
          <note pan="0" key="11" len="12" vol="193" pos="696"/>
          <note pan="0" key="11" len="12" vol="193" pos="708"/>
          <note pan="0" key="11" len="12" vol="193" pos="720"/>
          <note pan="0" key="10" len="12" vol="193" pos="732"/>
          <note pan="0" key="11" len="12" vol="193" pos="744"/>
          <note pan="0" key="13" len="12" vol="193" pos="756"/>
        </pattern>
        <pattern muted="0" type="1" pos="16128" steps="16" name="bass fender jazz (1,379kb)">
          <note pan="0" key="21" len="12" vol="193" pos="0"/>
          <note pan="0" key="1" len="12" vol="193" pos="0"/>
          <note pan="0" key="21" len="12" vol="193" pos="12"/>
          <note pan="0" key="21" len="12" vol="193" pos="24"/>
          <note pan="0" key="21" len="12" vol="193" pos="36"/>
          <note pan="0" key="21" len="12" vol="193" pos="48"/>
          <note pan="0" key="21" len="12" vol="193" pos="60"/>
          <note pan="0" key="21" len="12" vol="193" pos="72"/>
          <note pan="0" key="21" len="12" vol="193" pos="84"/>
          <note pan="0" key="21" len="12" vol="193" pos="96"/>
          <note pan="0" key="21" len="12" vol="193" pos="108"/>
          <note pan="0" key="21" len="12" vol="193" pos="120"/>
          <note pan="0" key="21" len="12" vol="193" pos="132"/>
          <note pan="0" key="21" len="12" vol="193" pos="144"/>
          <note pan="0" key="21" len="12" vol="193" pos="156"/>
          <note pan="0" key="21" len="12" vol="193" pos="168"/>
          <note pan="0" key="21" len="12" vol="193" pos="180"/>
          <note pan="0" key="14" len="12" vol="193" pos="192"/>
          <note pan="0" key="0" len="12" vol="193" pos="192"/>
          <note pan="0" key="13" len="12" vol="193" pos="204"/>
          <note pan="0" key="1" len="12" vol="193" pos="204"/>
          <note pan="0" key="13" len="12" vol="193" pos="216"/>
          <note pan="0" key="13" len="12" vol="193" pos="228"/>
          <note pan="0" key="13" len="12" vol="193" pos="240"/>
          <note pan="0" key="13" len="12" vol="193" pos="252"/>
          <note pan="0" key="14" len="12" vol="193" pos="264"/>
          <note pan="0" key="0" len="12" vol="193" pos="264"/>
          <note pan="0" key="13" len="12" vol="193" pos="276"/>
          <note pan="0" key="1" len="12" vol="193" pos="276"/>
          <note pan="0" key="13" len="12" vol="193" pos="288"/>
          <note pan="0" key="13" len="12" vol="193" pos="300"/>
          <note pan="0" key="13" len="12" vol="193" pos="312"/>
          <note pan="0" key="13" len="12" vol="193" pos="324"/>
          <note pan="0" key="14" len="12" vol="193" pos="336"/>
          <note pan="0" key="17" len="12" vol="193" pos="348"/>
          <note pan="0" key="18" len="12" vol="193" pos="360"/>
          <note pan="0" key="20" len="12" vol="193" pos="372"/>
          <note pan="0" key="18" len="24" vol="193" pos="384"/>
          <note pan="0" key="0" len="12" vol="193" pos="384"/>
          <note pan="0" key="1" len="12" vol="193" pos="396"/>
          <note pan="0" key="18" len="12" vol="193" pos="408"/>
          <note pan="0" key="18" len="12" vol="193" pos="420"/>
          <note pan="0" key="18" len="12" vol="193" pos="432"/>
          <note pan="0" key="18" len="12" vol="193" pos="444"/>
          <note pan="0" key="18" len="12" vol="193" pos="456"/>
          <note pan="0" key="18" len="12" vol="193" pos="468"/>
          <note pan="0" key="18" len="24" vol="193" pos="480"/>
          <note pan="0" key="0" len="12" vol="193" pos="480"/>
          <note pan="0" key="1" len="12" vol="193" pos="492"/>
          <note pan="0" key="18" len="12" vol="193" pos="504"/>
          <note pan="0" key="18" len="12" vol="193" pos="516"/>
          <note pan="0" key="18" len="12" vol="193" pos="528"/>
          <note pan="0" key="18" len="12" vol="193" pos="540"/>
          <note pan="0" key="18" len="12" vol="193" pos="552"/>
          <note pan="0" key="18" len="12" vol="193" pos="564"/>
          <note pan="0" key="18" len="12" vol="193" pos="576"/>
          <note pan="0" key="1" len="12" vol="193" pos="576"/>
          <note pan="0" key="18" len="12" vol="193" pos="588"/>
          <note pan="0" key="18" len="12" vol="193" pos="600"/>
          <note pan="0" key="18" len="12" vol="193" pos="648"/>
          <note pan="0" key="18" len="12" vol="193" pos="660"/>
          <note pan="0" key="18" len="12" vol="193" pos="672"/>
        </pattern>
        <pattern muted="0" type="1" pos="16896" steps="16" name="bass fender jazz (1,379kb)">
          <note pan="0" key="23" len="24" vol="193" pos="0"/>
          <note pan="0" key="23" len="24" vol="193" pos="48"/>
          <note pan="0" key="23" len="24" vol="193" pos="96"/>
          <note pan="0" key="23" len="24" vol="193" pos="144"/>
          <note pan="0" key="16" len="24" vol="193" pos="192"/>
          <note pan="0" key="16" len="24" vol="193" pos="240"/>
          <note pan="0" key="16" len="24" vol="193" pos="288"/>
          <note pan="0" key="16" len="24" vol="193" pos="336"/>
          <note pan="0" key="21" len="24" vol="193" pos="384"/>
          <note pan="0" key="21" len="24" vol="193" pos="432"/>
          <note pan="0" key="21" len="24" vol="193" pos="480"/>
          <note pan="0" key="21" len="24" vol="193" pos="528"/>
          <note pan="0" key="14" len="24" vol="193" pos="576"/>
          <note pan="0" key="14" len="24" vol="193" pos="624"/>
          <note pan="0" key="14" len="24" vol="193" pos="672"/>
          <note pan="0" key="20" len="24" vol="193" pos="768"/>
          <note pan="0" key="23" len="24" vol="193" pos="792"/>
          <note pan="0" key="21" len="24" vol="193" pos="816"/>
          <note pan="0" key="23" len="24" vol="193" pos="840"/>
          <note pan="0" key="17" len="24" vol="193" pos="864"/>
          <note pan="0" key="20" len="24" vol="193" pos="888"/>
          <note pan="0" key="18" len="24" vol="193" pos="912"/>
          <note pan="0" key="20" len="24" vol="193" pos="936"/>
        </pattern>
        <pattern muted="0" type="1" pos="18432" steps="16" name="bass fender jazz (1,379kb)">
          <note pan="0" key="23" len="12" vol="193" pos="0"/>
          <note pan="0" key="1" len="12" vol="193" pos="0"/>
          <note pan="0" key="23" len="12" vol="193" pos="12"/>
          <note pan="0" key="26" len="12" vol="193" pos="24"/>
          <note pan="0" key="26" len="12" vol="193" pos="36"/>
          <note pan="0" key="25" len="12" vol="193" pos="48"/>
          <note pan="0" key="25" len="12" vol="193" pos="60"/>
          <note pan="0" key="26" len="12" vol="193" pos="72"/>
          <note pan="0" key="26" len="12" vol="193" pos="84"/>
          <note pan="0" key="23" len="12" vol="193" pos="96"/>
          <note pan="0" key="23" len="12" vol="193" pos="108"/>
          <note pan="0" key="26" len="12" vol="193" pos="120"/>
          <note pan="0" key="26" len="12" vol="193" pos="132"/>
          <note pan="0" key="25" len="12" vol="193" pos="144"/>
          <note pan="0" key="25" len="12" vol="193" pos="156"/>
          <note pan="0" key="26" len="12" vol="193" pos="168"/>
          <note pan="0" key="26" len="12" vol="193" pos="180"/>
          <note pan="0" key="16" len="12" vol="193" pos="192"/>
          <note pan="0" key="16" len="12" vol="193" pos="204"/>
          <note pan="0" key="20" len="12" vol="193" pos="216"/>
          <note pan="0" key="20" len="12" vol="193" pos="228"/>
          <note pan="0" key="18" len="12" vol="193" pos="240"/>
          <note pan="0" key="18" len="12" vol="193" pos="252"/>
          <note pan="0" key="20" len="12" vol="193" pos="264"/>
          <note pan="0" key="20" len="12" vol="193" pos="276"/>
          <note pan="0" key="16" len="12" vol="193" pos="288"/>
          <note pan="0" key="16" len="12" vol="193" pos="300"/>
          <note pan="0" key="20" len="12" vol="193" pos="312"/>
          <note pan="0" key="20" len="12" vol="193" pos="324"/>
          <note pan="0" key="18" len="12" vol="193" pos="336"/>
          <note pan="0" key="18" len="12" vol="193" pos="348"/>
          <note pan="0" key="20" len="12" vol="193" pos="360"/>
          <note pan="0" key="20" len="12" vol="193" pos="372"/>
          <note pan="0" key="21" len="12" vol="193" pos="384"/>
          <note pan="0" key="21" len="12" vol="193" pos="396"/>
          <note pan="0" key="25" len="12" vol="193" pos="408"/>
          <note pan="0" key="25" len="12" vol="193" pos="420"/>
          <note pan="0" key="23" len="12" vol="193" pos="432"/>
          <note pan="0" key="23" len="12" vol="193" pos="444"/>
          <note pan="0" key="25" len="12" vol="193" pos="456"/>
          <note pan="0" key="25" len="12" vol="193" pos="468"/>
          <note pan="0" key="21" len="12" vol="193" pos="480"/>
          <note pan="0" key="21" len="12" vol="193" pos="492"/>
          <note pan="0" key="25" len="12" vol="193" pos="504"/>
          <note pan="0" key="25" len="12" vol="193" pos="516"/>
          <note pan="0" key="23" len="12" vol="193" pos="528"/>
          <note pan="0" key="23" len="12" vol="193" pos="540"/>
          <note pan="0" key="25" len="12" vol="193" pos="552"/>
          <note pan="0" key="25" len="12" vol="193" pos="564"/>
          <note pan="0" key="14" len="12" vol="193" pos="576"/>
          <note pan="0" key="14" len="12" vol="193" pos="588"/>
          <note pan="0" key="18" len="12" vol="193" pos="600"/>
          <note pan="0" key="18" len="12" vol="193" pos="612"/>
          <note pan="0" key="16" len="12" vol="193" pos="624"/>
          <note pan="0" key="16" len="12" vol="193" pos="636"/>
          <note pan="0" key="18" len="12" vol="193" pos="648"/>
          <note pan="0" key="18" len="12" vol="193" pos="660"/>
          <note pan="0" key="14" len="12" vol="193" pos="672"/>
          <note pan="0" key="14" len="12" vol="193" pos="684"/>
          <note pan="0" key="18" len="12" vol="193" pos="696"/>
          <note pan="0" key="18" len="12" vol="193" pos="708"/>
          <note pan="0" key="16" len="12" vol="193" pos="720"/>
          <note pan="0" key="16" len="12" vol="193" pos="732"/>
          <note pan="0" key="18" len="12" vol="193" pos="744"/>
          <note pan="0" key="18" len="12" vol="193" pos="756"/>
          <note pan="0" key="14" len="12" vol="193" pos="768"/>
          <note pan="0" key="0" len="12" vol="193" pos="768"/>
          <note pan="0" key="13" len="12" vol="193" pos="780"/>
          <note pan="0" key="1" len="12" vol="193" pos="780"/>
          <note pan="0" key="11" len="12" vol="193" pos="792"/>
          <note pan="0" key="11" len="12" vol="193" pos="804"/>
          <note pan="0" key="11" len="12" vol="193" pos="816"/>
          <note pan="0" key="11" len="12" vol="193" pos="828"/>
          <note pan="0" key="14" len="12" vol="193" pos="840"/>
          <note pan="0" key="0" len="12" vol="193" pos="840"/>
          <note pan="0" key="13" len="12" vol="193" pos="852"/>
          <note pan="0" key="1" len="12" vol="193" pos="852"/>
          <note pan="0" key="11" len="12" vol="193" pos="864"/>
          <note pan="0" key="11" len="12" vol="193" pos="876"/>
          <note pan="0" key="11" len="12" vol="193" pos="888"/>
          <note pan="0" key="11" len="12" vol="193" pos="900"/>
          <note pan="0" key="14" len="12" vol="193" pos="912"/>
          <note pan="0" key="0" len="12" vol="193" pos="912"/>
          <note pan="0" key="13" len="12" vol="193" pos="924"/>
          <note pan="0" key="1" len="12" vol="193" pos="924"/>
          <note pan="0" key="11" len="12" vol="193" pos="936"/>
          <note pan="0" key="11" len="12" vol="193" pos="948"/>
          <note pan="0" key="20" len="12" vol="193" pos="960"/>
          <note pan="0" key="20" len="12" vol="193" pos="972"/>
          <note pan="0" key="20" len="12" vol="193" pos="984"/>
          <note pan="0" key="20" len="12" vol="193" pos="996"/>
          <note pan="0" key="24" len="12" vol="193" pos="1008"/>
          <note pan="0" key="24" len="12" vol="193" pos="1020"/>
          <note pan="0" key="24" len="12" vol="193" pos="1032"/>
          <note pan="0" key="24" len="12" vol="193" pos="1044"/>
          <note pan="0" key="25" len="12" vol="193" pos="1056"/>
          <note pan="0" key="25" len="12" vol="193" pos="1068"/>
          <note pan="0" key="25" len="12" vol="193" pos="1080"/>
          <note pan="0" key="25" len="12" vol="193" pos="1092"/>
          <note pan="0" key="27" len="12" vol="193" pos="1104"/>
          <note pan="0" key="27" len="12" vol="193" pos="1116"/>
          <note pan="0" key="27" len="12" vol="193" pos="1128"/>
          <note pan="0" key="27" len="12" vol="193" pos="1140"/>
          <note pan="0" key="25" len="24" vol="193" pos="1152"/>
          <note pan="0" key="0" len="12" vol="193" pos="1152"/>
          <note pan="0" key="1" len="12" vol="193" pos="1164"/>
          <note pan="0" key="13" len="12" vol="193" pos="1176"/>
          <note pan="0" key="13" len="12" vol="193" pos="1188"/>
          <note pan="0" key="13" len="12" vol="193" pos="1200"/>
          <note pan="0" key="13" len="12" vol="193" pos="1212"/>
          <note pan="0" key="13" len="12" vol="193" pos="1224"/>
          <note pan="0" key="13" len="12" vol="193" pos="1236"/>
          <note pan="0" key="13" len="12" vol="193" pos="1248"/>
          <note pan="0" key="13" len="12" vol="193" pos="1260"/>
          <note pan="0" key="25" len="24" vol="193" pos="1272"/>
          <note pan="0" key="0" len="12" vol="193" pos="1272"/>
          <note pan="0" key="1" len="12" vol="193" pos="1284"/>
          <note pan="0" key="13" len="12" vol="193" pos="1296"/>
          <note pan="0" key="13" len="12" vol="193" pos="1308"/>
          <note pan="0" key="13" len="12" vol="193" pos="1320"/>
          <note pan="0" key="13" len="12" vol="193" pos="1332"/>
          <note pan="0" key="25" len="24" vol="193" pos="1344"/>
          <note pan="0" key="0" len="12" vol="193" pos="1344"/>
          <note pan="0" key="1" len="12" vol="193" pos="1356"/>
          <note pan="0" key="13" len="12" vol="193" pos="1368"/>
          <note pan="0" key="13" len="12" vol="193" pos="1380"/>
          <note pan="0" key="13" len="12" vol="193" pos="1392"/>
          <note pan="0" key="13" len="12" vol="193" pos="1404"/>
          <note pan="0" key="13" len="12" vol="193" pos="1416"/>
          <note pan="0" key="13" len="12" vol="193" pos="1428"/>
          <note pan="0" key="13" len="12" vol="193" pos="1440"/>
          <note pan="0" key="13" len="12" vol="193" pos="1452"/>
          <note pan="0" key="25" len="24" vol="193" pos="1464"/>
          <note pan="0" key="0" len="12" vol="193" pos="1464"/>
          <note pan="0" key="1" len="12" vol="193" pos="1476"/>
          <note pan="0" key="13" len="12" vol="193" pos="1488"/>
          <note pan="0" key="13" len="12" vol="193" pos="1500"/>
          <note pan="0" key="13" len="12" vol="193" pos="1512"/>
          <note pan="0" key="13" len="12" vol="193" pos="1524"/>
        </pattern>
        <pattern muted="0" type="1" pos="19968" steps="16" name="bass fender jazz (1,379kb)">
          <note pan="0" key="14" len="12" vol="193" pos="0"/>
          <note pan="0" key="0" len="12" vol="193" pos="0"/>
          <note pan="0" key="13" len="12" vol="193" pos="12"/>
          <note pan="0" key="13" len="12" vol="193" pos="24"/>
          <note pan="0" key="1" len="12" vol="193" pos="24"/>
          <note pan="0" key="13" len="12" vol="193" pos="36"/>
          <note pan="0" key="13" len="12" vol="193" pos="48"/>
          <note pan="0" key="13" len="12" vol="193" pos="60"/>
          <note pan="0" key="13" len="12" vol="193" pos="72"/>
          <note pan="0" key="13" len="12" vol="193" pos="84"/>
          <note pan="0" key="23" len="12" vol="193" pos="96"/>
          <note pan="0" key="0" len="12" vol="193" pos="96"/>
          <note pan="0" key="25" len="12" vol="193" pos="108"/>
          <note pan="0" key="13" len="12" vol="193" pos="120"/>
          <note pan="0" key="1" len="12" vol="193" pos="120"/>
          <note pan="0" key="13" len="12" vol="193" pos="132"/>
          <note pan="0" key="13" len="12" vol="193" pos="144"/>
          <note pan="0" key="13" len="12" vol="193" pos="156"/>
          <note pan="0" key="13" len="12" vol="193" pos="168"/>
          <note pan="0" key="13" len="12" vol="193" pos="180"/>
          <note pan="0" key="14" len="12" vol="193" pos="192"/>
          <note pan="0" key="0" len="12" vol="193" pos="192"/>
          <note pan="0" key="13" len="12" vol="193" pos="204"/>
          <note pan="0" key="13" len="12" vol="193" pos="216"/>
          <note pan="0" key="1" len="12" vol="193" pos="216"/>
          <note pan="0" key="13" len="12" vol="193" pos="228"/>
          <note pan="0" key="13" len="12" vol="193" pos="240"/>
          <note pan="0" key="13" len="12" vol="193" pos="252"/>
          <note pan="0" key="13" len="12" vol="193" pos="264"/>
          <note pan="0" key="13" len="12" vol="193" pos="276"/>
          <note pan="0" key="23" len="12" vol="193" pos="288"/>
          <note pan="0" key="0" len="12" vol="193" pos="288"/>
          <note pan="0" key="25" len="12" vol="193" pos="300"/>
          <note pan="0" key="13" len="12" vol="193" pos="312"/>
          <note pan="0" key="1" len="12" vol="193" pos="312"/>
          <note pan="0" key="13" len="12" vol="193" pos="324"/>
          <note pan="0" key="13" len="12" vol="193" pos="336"/>
          <note pan="0" key="13" len="12" vol="193" pos="348"/>
          <note pan="0" key="13" len="12" vol="193" pos="360"/>
          <note pan="0" key="13" len="12" vol="193" pos="372"/>
        </pattern>
        <pattern muted="0" type="1" pos="20352" steps="16" name="bass fender jazz (1,379kb)">
          <note pan="0" key="25" len="12" vol="193" pos="0"/>
          <note pan="0" key="1" len="24" vol="193" pos="0"/>
          <note pan="0" key="23" len="12" vol="193" pos="12"/>
          <note pan="0" key="21" len="12" vol="193" pos="24"/>
          <note pan="0" key="20" len="12" vol="193" pos="36"/>
          <note pan="0" key="23" len="12" vol="193" pos="48"/>
          <note pan="0" key="21" len="12" vol="193" pos="60"/>
          <note pan="0" key="20" len="12" vol="193" pos="72"/>
          <note pan="0" key="18" len="12" vol="193" pos="84"/>
          <note pan="0" key="21" len="12" vol="193" pos="96"/>
          <note pan="0" key="20" len="12" vol="193" pos="108"/>
          <note pan="0" key="18" len="12" vol="193" pos="120"/>
          <note pan="0" key="17" len="12" vol="193" pos="132"/>
          <note pan="0" key="20" len="12" vol="193" pos="144"/>
          <note pan="0" key="18" len="12" vol="193" pos="156"/>
          <note pan="0" key="17" len="12" vol="193" pos="168"/>
          <note pan="0" key="14" len="12" vol="193" pos="180"/>
          <note pan="0" key="18" len="12" vol="193" pos="192"/>
          <note pan="0" key="17" len="12" vol="193" pos="204"/>
          <note pan="0" key="14" len="12" vol="193" pos="216"/>
          <note pan="0" key="13" len="12" vol="193" pos="228"/>
          <note pan="0" key="17" len="12" vol="193" pos="240"/>
          <note pan="0" key="14" len="12" vol="193" pos="252"/>
          <note pan="0" key="13" len="12" vol="193" pos="264"/>
          <note pan="0" key="12" len="12" vol="193" pos="276"/>
          <note pan="0" key="13" len="24" vol="193" pos="288"/>
          <note pan="0" key="0" len="24" vol="193" pos="288"/>
        </pattern>
        <pattern muted="0" type="1" pos="17856" steps="16" name="bass fender jazz (1,379kb)">
          <note pan="0" key="13" len="24" vol="193" pos="0"/>
          <note pan="0" key="13" len="12" vol="193" pos="24"/>
          <note pan="0" key="13" len="12" vol="193" pos="36"/>
          <note pan="0" key="13" len="12" vol="193" pos="48"/>
          <note pan="0" key="13" len="12" vol="193" pos="60"/>
          <note pan="0" key="13" len="24" vol="193" pos="72"/>
          <note pan="0" key="13" len="12" vol="193" pos="96"/>
          <note pan="0" key="13" len="12" vol="193" pos="108"/>
          <note pan="0" key="17" len="12" vol="193" pos="120"/>
          <note pan="0" key="17" len="12" vol="193" pos="132"/>
          <note pan="0" key="18" len="12" vol="193" pos="144"/>
          <note pan="0" key="18" len="12" vol="193" pos="156"/>
          <note pan="0" key="20" len="12" vol="193" pos="168"/>
          <note pan="0" key="20" len="12" vol="193" pos="180"/>
          <note pan="0" key="18" len="24" vol="193" pos="192"/>
          <note pan="0" key="18" len="12" vol="193" pos="216"/>
          <note pan="0" key="18" len="12" vol="193" pos="228"/>
          <note pan="0" key="18" len="12" vol="193" pos="240"/>
          <note pan="0" key="18" len="12" vol="193" pos="252"/>
          <note pan="0" key="18" len="12" vol="193" pos="264"/>
          <note pan="0" key="18" len="12" vol="193" pos="276"/>
          <note pan="0" key="18" len="24" vol="193" pos="288"/>
          <note pan="0" key="18" len="24" vol="193" pos="312"/>
          <note pan="0" key="18" len="12" vol="193" pos="336"/>
          <note pan="0" key="18" len="12" vol="193" pos="348"/>
          <note pan="0" key="18" len="12" vol="193" pos="360"/>
          <note pan="0" key="18" len="12" vol="193" pos="372"/>
          <note pan="0" key="18" len="24" vol="193" pos="384"/>
          <note pan="0" key="18" len="12" vol="193" pos="408"/>
          <note pan="0" key="18" len="12" vol="193" pos="420"/>
          <note pan="0" key="18" len="24" vol="193" pos="432"/>
          <note pan="0" key="18" len="12" vol="193" pos="456"/>
          <note pan="0" key="18" len="12" vol="193" pos="468"/>
          <note pan="0" key="18" len="24" vol="193" pos="480"/>
          <note pan="0" key="18" len="24" vol="193" pos="504"/>
          <note pan="0" key="18" len="12" vol="193" pos="528"/>
          <note pan="0" key="18" len="12" vol="193" pos="540"/>
          <note pan="0" key="18" len="12" vol="193" pos="552"/>
          <note pan="0" key="18" len="12" vol="193" pos="564"/>
        </pattern>
      </track>
      <track muted="0" type="0" solo="0" name="ZynAddSubFX">
        <instrumenttrack basenote="57" fxch="15" pan="0" pitchrange="1" vol="87.4" pitch="0" usemasterpitch="1">
          <instrument name="zynaddsubfx">
            <zynaddsubfx fmgain="127" portamento="0" filterfreq="64" rescenterfreq="64" resbandwidth="64" filterq="64" bandwidth="64" modifiedcontrollers="" forwardmidicc="1">
              <ZynAddSubFX-data ZynAddSubFX-author="Nasca Octavian Paul" version-major="2" version-minor="4" version-revision="1">
                <INFORMATION>
                  <par_bool value="yes" name="PADsynth_used"/>
                  <par_bool value="yes" name="PADsynth_used"/>
                </INFORMATION>
                <BASE_PARAMETERS>
                  <par value="16" name="max_midi_parts"/>
                  <par value="16" name="max_kit_items_per_instrument"/>
                  <par value="4" name="max_system_effects"/>
                  <par value="8" name="max_insertion_effects"/>
                  <par value="3" name="max_instrument_effects"/>
                  <par value="8" name="max_addsynth_voices"/>
                </BASE_PARAMETERS>
                <MASTER>
                  <par value="80" name="volume"/>
                  <par value="64" name="key_shift"/>
                  <par_bool value="yes" name="nrpn_receive"/>
                  <MICROTONAL>
                    <string name="name">12tET</string>
                    <string name="comment">Equal Temperament 12 notes per octave</string>
                    <par_bool value="no" name="invert_up_down"/>
                    <par value="60" name="invert_up_down_center"/>
                    <par_bool value="no" name="enabled"/>
                    <par value="64" name="global_fine_detune"/>
                    <par value="69" name="a_note"/>
                    <par_real value="440.000000" name="a_freq"/>
                  </MICROTONAL>
                  <PART id="0">
                    <par_bool value="yes" name="enabled"/>
                    <par value="98" name="volume"/>
                    <par value="64" name="panning"/>
                    <par value="0" name="min_key"/>
                    <par value="127" name="max_key"/>
                    <par value="76" name="key_shift"/>
                    <par value="0" name="rcv_chn"/>
                    <par value="64" name="velocity_sensing"/>
                    <par value="64" name="velocity_offset"/>
                    <par_bool value="yes" name="note_on"/>
                    <par_bool value="yes" name="poly_mode"/>
                    <par value="0" name="legato_mode"/>
                    <par value="15" name="key_limit"/>
                    <INSTRUMENT>
                      <INFO>
                        <string name="name">Full Strings</string>
                        <string name="author">Will Godfrey
GPL V 2 or later</string>
                        <string name="comments">Developed from Paul's Strings Pad5</string>
                        <par value="12" name="type"/>
                      </INFO>
                      <INSTRUMENT_KIT>
                        <par value="1" name="kit_mode"/>
                        <par_bool value="no" name="drum_mode"/>
                        <INSTRUMENT_KIT_ITEM id="0">
                          <par_bool value="yes" name="enabled"/>
                          <string name="name"/>
                          <par_bool value="no" name="muted"/>
                          <par value="0" name="min_key"/>
                          <par value="127" name="max_key"/>
                          <par value="0" name="send_to_instrument_effect"/>
                          <par_bool value="no" name="add_enabled"/>
                          <par_bool value="no" name="sub_enabled"/>
                          <par_bool value="yes" name="pad_enabled"/>
                          <PAD_SYNTH_PARAMETERS>
                            <par_bool value="yes" name="stereo"/>
                            <par value="0" name="mode"/>
                            <par value="620" name="bandwidth"/>
                            <par value="0" name="bandwidth_scale"/>
                            <HARMONIC_PROFILE>
                              <par value="0" name="base_type"/>
                              <par value="99" name="base_par1"/>
                              <par value="8" name="frequency_multiplier"/>
                              <par value="0" name="modulator_par1"/>
                              <par value="55" name="modulator_frequency"/>
                              <par value="127" name="width"/>
                              <par value="0" name="amplitude_multiplier_type"/>
                              <par value="2" name="amplitude_multiplier_mode"/>
                              <par value="80" name="amplitude_multiplier_par1"/>
                              <par value="4" name="amplitude_multiplier_par2"/>
                              <par_bool value="yes" name="autoscale"/>
                              <par value="0" name="one_half"/>
                            </HARMONIC_PROFILE>
                            <OSCIL>
                              <par value="0" name="harmonic_mag_type"/>
                              <par value="4" name="base_function"/>
                              <par value="51" name="base_function_par"/>
                              <par value="0" name="base_function_modulation"/>
                              <par value="64" name="base_function_modulation_par1"/>
                              <par value="64" name="base_function_modulation_par2"/>
                              <par value="32" name="base_function_modulation_par3"/>
                              <par value="0" name="modulation"/>
                              <par value="64" name="modulation_par1"/>
                              <par value="64" name="modulation_par2"/>
                              <par value="32" name="modulation_par3"/>
                              <par value="64" name="wave_shaping"/>
                              <par value="0" name="wave_shaping_function"/>
                              <par value="0" name="filter_type"/>
                              <par value="37" name="filter_par1"/>
                              <par value="64" name="filter_par2"/>
                              <par value="0" name="filter_before_wave_shaping"/>
                              <par value="0" name="spectrum_adjust_type"/>
                              <par value="64" name="spectrum_adjust_par"/>
                              <par value="64" name="rand"/>
                              <par value="0" name="amp_rand_type"/>
                              <par value="64" name="amp_rand_power"/>
                              <par value="0" name="harmonic_shift"/>
                              <par_bool value="no" name="harmonic_shift_first"/>
                              <par value="0" name="adaptive_harmonics"/>
                              <par value="128" name="adaptive_harmonics_base_frequency"/>
                              <par value="100" name="adaptive_harmonics_power"/>
                              <HARMONICS>
                                <HARMONIC id="1">
                                  <par value="83" name="mag"/>
                                  <par value="64" name="phase"/>
                                </HARMONIC>
                                <HARMONIC id="2">
                                  <par value="127" name="mag"/>
                                  <par value="64" name="phase"/>
                                </HARMONIC>
                              </HARMONICS>
                            </OSCIL>
                            <RESONANCE>
                              <par_bool value="no" name="enabled"/>
                            </RESONANCE>
                            <HARMONIC_POSITION>
                              <par value="0" name="type"/>
                              <par value="255" name="parameter1"/>
                              <par value="64" name="parameter2"/>
                              <par value="0" name="parameter3"/>
                            </HARMONIC_POSITION>
                            <SAMPLE_QUALITY>
                              <par value="4" name="samplesize"/>
                              <par value="4" name="basenote"/>
                              <par value="5" name="octaves"/>
                              <par value="2" name="samples_per_octave"/>
                            </SAMPLE_QUALITY>
                            <AMPLITUDE_PARAMETERS>
                              <par value="94" name="volume"/>
                              <par value="67" name="panning"/>
                              <par value="70" name="velocity_sensing"/>
                              <par value="0" name="punch_strength"/>
                              <par value="60" name="punch_time"/>
                              <par value="64" name="punch_stretch"/>
                              <par value="72" name="punch_velocity_sensing"/>
                              <AMPLITUDE_ENVELOPE>
                                <par_bool value="no" name="free_mode"/>
                                <par value="4" name="env_points"/>
                                <par value="2" name="env_sustain"/>
                                <par value="0" name="env_stretch"/>
                                <par_bool value="no" name="forced_release"/>
                                <par_bool value="no" name="linear_envelope"/>
                                <par value="5" name="A_dt"/>
                                <par value="39" name="D_dt"/>
                                <par value="33" name="R_dt"/>
                                <par value="64" name="A_val"/>
                                <par value="64" name="D_val"/>
                                <par value="127" name="S_val"/>
                                <par value="64" name="R_val"/>
                              </AMPLITUDE_ENVELOPE>
                              <AMPLITUDE_LFO>
                                <par_real value="0.629921" name="freq"/>
                                <par value="0" name="intensity"/>
                                <par value="64" name="start_phase"/>
                                <par value="0" name="lfo_type"/>
                                <par value="0" name="randomness_amplitude"/>
                                <par value="0" name="randomness_frequency"/>
                                <par value="0" name="delay"/>
                                <par value="64" name="stretch"/>
                                <par_bool value="no" name="continous"/>
                              </AMPLITUDE_LFO>
                            </AMPLITUDE_PARAMETERS>
                            <FREQUENCY_PARAMETERS>
                              <par value="0" name="fixed_freq"/>
                              <par value="0" name="fixed_freq_et"/>
                              <par value="8192" name="detune"/>
                              <par value="15360" name="coarse_detune"/>
                              <par value="1" name="detune_type"/>
                              <FREQUENCY_ENVELOPE>
                                <par_bool value="no" name="free_mode"/>
                                <par value="3" name="env_points"/>
                                <par value="1" name="env_sustain"/>
                                <par value="0" name="env_stretch"/>
                                <par_bool value="no" name="forced_release"/>
                                <par_bool value="no" name="linear_envelope"/>
                                <par value="50" name="A_dt"/>
                                <par value="10" name="D_dt"/>
                                <par value="60" name="R_dt"/>
                                <par value="64" name="A_val"/>
                                <par value="64" name="D_val"/>
                                <par value="64" name="S_val"/>
                                <par value="64" name="R_val"/>
                              </FREQUENCY_ENVELOPE>
                              <FREQUENCY_LFO>
                                <par_real value="0.621181" name="freq"/>
                                <par value="0" name="intensity"/>
                                <par value="64" name="start_phase"/>
                                <par value="0" name="lfo_type"/>
                                <par value="0" name="randomness_amplitude"/>
                                <par value="0" name="randomness_frequency"/>
                                <par value="0" name="delay"/>
                                <par value="64" name="stretch"/>
                                <par_bool value="no" name="continous"/>
                              </FREQUENCY_LFO>
                            </FREQUENCY_PARAMETERS>
                            <FILTER_PARAMETERS>
                              <par value="25" name="velocity_sensing_amplitude"/>
                              <par value="64" name="velocity_sensing"/>
                              <FILTER>
                                <par value="0" name="category"/>
                                <par value="2" name="type"/>
                                <par value="108" name="freq"/>
                                <par value="28" name="q"/>
                                <par value="1" name="stages"/>
                                <par value="97" name="freq_track"/>
                                <par value="64" name="gain"/>
                              </FILTER>
                              <FILTER_ENVELOPE>
                                <par_bool value="no" name="free_mode"/>
                                <par value="4" name="env_points"/>
                                <par value="2" name="env_sustain"/>
                                <par value="0" name="env_stretch"/>
                                <par_bool value="yes" name="forced_release"/>
                                <par_bool value="no" name="linear_envelope"/>
                                <par value="17" name="A_dt"/>
                                <par value="70" name="D_dt"/>
                                <par value="98" name="R_dt"/>
                                <par value="37" name="A_val"/>
                                <par value="64" name="D_val"/>
                                <par value="64" name="S_val"/>
                                <par value="43" name="R_val"/>
                              </FILTER_ENVELOPE>
                              <FILTER_LFO>
                                <par_real value="0.629921" name="freq"/>
                                <par value="0" name="intensity"/>
                                <par value="64" name="start_phase"/>
                                <par value="0" name="lfo_type"/>
                                <par value="0" name="randomness_amplitude"/>
                                <par value="0" name="randomness_frequency"/>
                                <par value="0" name="delay"/>
                                <par value="64" name="stretch"/>
                                <par_bool value="no" name="continous"/>
                              </FILTER_LFO>
                            </FILTER_PARAMETERS>
                          </PAD_SYNTH_PARAMETERS>
                        </INSTRUMENT_KIT_ITEM>
                        <INSTRUMENT_KIT_ITEM id="1">
                          <par_bool value="no" name="enabled"/>
                        </INSTRUMENT_KIT_ITEM>
                        <INSTRUMENT_KIT_ITEM id="2">
                          <par_bool value="no" name="enabled"/>
                        </INSTRUMENT_KIT_ITEM>
                        <INSTRUMENT_KIT_ITEM id="3">
                          <par_bool value="no" name="enabled"/>
                        </INSTRUMENT_KIT_ITEM>
                        <INSTRUMENT_KIT_ITEM id="4">
                          <par_bool value="no" name="enabled"/>
                        </INSTRUMENT_KIT_ITEM>
                        <INSTRUMENT_KIT_ITEM id="5">
                          <par_bool value="no" name="enabled"/>
                        </INSTRUMENT_KIT_ITEM>
                        <INSTRUMENT_KIT_ITEM id="6">
                          <par_bool value="no" name="enabled"/>
                        </INSTRUMENT_KIT_ITEM>
                        <INSTRUMENT_KIT_ITEM id="7">
                          <par_bool value="no" name="enabled"/>
                        </INSTRUMENT_KIT_ITEM>
                        <INSTRUMENT_KIT_ITEM id="8">
                          <par_bool value="no" name="enabled"/>
                        </INSTRUMENT_KIT_ITEM>
                        <INSTRUMENT_KIT_ITEM id="9">
                          <par_bool value="no" name="enabled"/>
                        </INSTRUMENT_KIT_ITEM>
                        <INSTRUMENT_KIT_ITEM id="10">
                          <par_bool value="no" name="enabled"/>
                        </INSTRUMENT_KIT_ITEM>
                        <INSTRUMENT_KIT_ITEM id="11">
                          <par_bool value="no" name="enabled"/>
                        </INSTRUMENT_KIT_ITEM>
                        <INSTRUMENT_KIT_ITEM id="12">
                          <par_bool value="no" name="enabled"/>
                        </INSTRUMENT_KIT_ITEM>
                        <INSTRUMENT_KIT_ITEM id="13">
                          <par_bool value="no" name="enabled"/>
                        </INSTRUMENT_KIT_ITEM>
                        <INSTRUMENT_KIT_ITEM id="14">
                          <par_bool value="no" name="enabled"/>
                        </INSTRUMENT_KIT_ITEM>
                        <INSTRUMENT_KIT_ITEM id="15">
                          <par_bool value="no" name="enabled"/>
                        </INSTRUMENT_KIT_ITEM>
                      </INSTRUMENT_KIT>
                      <INSTRUMENT_EFFECTS>
                        <INSTRUMENT_EFFECT id="0">
                          <EFFECT>
                            <par value="3" name="type"/>
                            <par value="0" name="preset"/>
                            <EFFECT_PARAMETERS>
                              <par_no id="0">
                                <par value="64" name="par"/>
                              </par_no>
                              <par_no id="1">
                                <par value="64" name="par"/>
                              </par_no>
                              <par_no id="2">
                                <par value="50" name="par"/>
                              </par_no>
                              <par_no id="5">
                                <par value="90" name="par"/>
                              </par_no>
                              <par_no id="6">
                                <par value="40" name="par"/>
                              </par_no>
                              <par_no id="7">
                                <par value="85" name="par"/>
                              </par_no>
                              <par_no id="8">
                                <par value="67" name="par"/>
                              </par_no>
                              <par_no id="9">
                                <par value="119" name="par"/>
                              </par_no>
                            </EFFECT_PARAMETERS>
                          </EFFECT>
                          <par value="0" name="route"/>
                          <par_bool value="no" name="bypass"/>
                        </INSTRUMENT_EFFECT>
                        <INSTRUMENT_EFFECT id="1">
                          <EFFECT>
                            <par value="1" name="type"/>
                            <par value="0" name="preset"/>
                            <EFFECT_PARAMETERS>
                              <par_no id="0">
                                <par value="40" name="par"/>
                              </par_no>
                              <par_no id="1">
                                <par value="64" name="par"/>
                              </par_no>
                              <par_no id="2">
                                <par value="63" name="par"/>
                              </par_no>
                              <par_no id="3">
                                <par value="24" name="par"/>
                              </par_no>
                              <par_no id="7">
                                <par value="85" name="par"/>
                              </par_no>
                              <par_no id="8">
                                <par value="5" name="par"/>
                              </par_no>
                              <par_no id="9">
                                <par value="83" name="par"/>
                              </par_no>
                              <par_no id="10">
                                <par value="1" name="par"/>
                              </par_no>
                              <par_no id="11">
                                <par value="64" name="par"/>
                              </par_no>
                            </EFFECT_PARAMETERS>
                          </EFFECT>
                          <par value="0" name="route"/>
                          <par_bool value="no" name="bypass"/>
                        </INSTRUMENT_EFFECT>
                        <INSTRUMENT_EFFECT id="2">
                          <EFFECT>
                            <par value="0" name="type"/>
                          </EFFECT>
                          <par value="0" name="route"/>
                          <par_bool value="no" name="bypass"/>
                        </INSTRUMENT_EFFECT>
                      </INSTRUMENT_EFFECTS>
                    </INSTRUMENT>
                    <CONTROLLER>
                      <par value="100" name="pitchwheel_bendrange"/>
                      <par_bool value="yes" name="expression_receive"/>
                      <par value="64" name="panning_depth"/>
                      <par value="64" name="filter_cutoff_depth"/>
                      <par value="64" name="filter_q_depth"/>
                      <par value="64" name="bandwidth_depth"/>
                      <par value="80" name="mod_wheel_depth"/>
                      <par_bool value="no" name="mod_wheel_exponential"/>
                      <par_bool value="yes" name="fm_amp_receive"/>
                      <par_bool value="yes" name="volume_receive"/>
                      <par_bool value="yes" name="sustain_receive"/>
                      <par_bool value="yes" name="portamento_receive"/>
                      <par value="64" name="portamento_time"/>
                      <par value="3" name="portamento_pitchthresh"/>
                      <par value="1" name="portamento_pitchthreshtype"/>
                      <par value="0" name="portamento_portamento"/>
                      <par value="64" name="portamento_updowntimestretch"/>
                      <par value="0" name="portamento_proportional"/>
                      <par value="80" name="portamento_proprate"/>
                      <par value="90" name="portamento_propdepth"/>
                      <par value="64" name="resonance_center_depth"/>
                      <par value="64" name="resonance_bandwidth_depth"/>
                    </CONTROLLER>
                  </PART>
                  <PART id="1">
                    <par_bool value="yes" name="enabled"/>
                    <par value="88" name="volume"/>
                    <par value="64" name="panning"/>
                    <par value="0" name="min_key"/>
                    <par value="127" name="max_key"/>
                    <par value="52" name="key_shift"/>
                    <par value="0" name="rcv_chn"/>
                    <par value="64" name="velocity_sensing"/>
                    <par value="64" name="velocity_offset"/>
                    <par_bool value="yes" name="note_on"/>
                    <par_bool value="yes" name="poly_mode"/>
                    <par value="0" name="legato_mode"/>
                    <par value="15" name="key_limit"/>
                    <INSTRUMENT>
                      <INFO>
                        <string name="name">Brass Pad2</string>
                        <string name="author"/>
                        <string name="comments"/>
                        <par value="0" name="type"/>
                      </INFO>
                      <INSTRUMENT_KIT>
                        <par value="0" name="kit_mode"/>
                        <par_bool value="no" name="drum_mode"/>
                        <INSTRUMENT_KIT_ITEM id="0">
                          <par_bool value="yes" name="enabled"/>
                          <string name="name"/>
                          <par_bool value="no" name="muted"/>
                          <par value="0" name="min_key"/>
                          <par value="127" name="max_key"/>
                          <par value="0" name="send_to_instrument_effect"/>
                          <par_bool value="no" name="add_enabled"/>
                          <par_bool value="no" name="sub_enabled"/>
                          <par_bool value="yes" name="pad_enabled"/>
                          <PAD_SYNTH_PARAMETERS>
                            <par_bool value="yes" name="stereo"/>
                            <par value="0" name="mode"/>
                            <par value="460" name="bandwidth"/>
                            <par value="0" name="bandwidth_scale"/>
                            <HARMONIC_PROFILE>
                              <par value="1" name="base_type"/>
                              <par value="109" name="base_par1"/>
                              <par value="63" name="frequency_multiplier"/>
                              <par value="0" name="modulator_par1"/>
                              <par value="30" name="modulator_frequency"/>
                              <par value="127" name="width"/>
                              <par value="0" name="amplitude_multiplier_type"/>
                              <par value="0" name="amplitude_multiplier_mode"/>
                              <par value="80" name="amplitude_multiplier_par1"/>
                              <par value="64" name="amplitude_multiplier_par2"/>
                              <par_bool value="yes" name="autoscale"/>
                              <par value="0" name="one_half"/>
                            </HARMONIC_PROFILE>
                            <OSCIL>
                              <par value="0" name="harmonic_mag_type"/>
                              <par value="4" name="base_function"/>
                              <par value="61" name="base_function_par"/>
                              <par value="0" name="base_function_modulation"/>
                              <par value="64" name="base_function_modulation_par1"/>
                              <par value="64" name="base_function_modulation_par2"/>
                              <par value="32" name="base_function_modulation_par3"/>
                              <par value="0" name="modulation"/>
                              <par value="64" name="modulation_par1"/>
                              <par value="64" name="modulation_par2"/>
                              <par value="32" name="modulation_par3"/>
                              <par value="68" name="wave_shaping"/>
                              <par value="1" name="wave_shaping_function"/>
                              <par value="0" name="filter_type"/>
                              <par value="64" name="filter_par1"/>
                              <par value="64" name="filter_par2"/>
                              <par value="0" name="filter_before_wave_shaping"/>
                              <par value="0" name="spectrum_adjust_type"/>
                              <par value="57" name="spectrum_adjust_par"/>
                              <par value="0" name="rand"/>
                              <par value="0" name="amp_rand_type"/>
                              <par value="64" name="amp_rand_power"/>
                              <par value="0" name="harmonic_shift"/>
                              <par_bool value="no" name="harmonic_shift_first"/>
                              <par value="0" name="adaptive_harmonics"/>
                              <par value="128" name="adaptive_harmonics_base_frequency"/>
                              <par value="100" name="adaptive_harmonics_power"/>
                              <HARMONICS>
                                <HARMONIC id="1">
                                  <par value="127" name="mag"/>
                                  <par value="64" name="phase"/>
                                </HARMONIC>
                                <HARMONIC id="2">
                                  <par value="104" name="mag"/>
                                  <par value="64" name="phase"/>
                                </HARMONIC>
                              </HARMONICS>
                            </OSCIL>
                            <RESONANCE>
                              <par_bool value="no" name="enabled"/>
                            </RESONANCE>
                            <HARMONIC_POSITION>
                              <par value="0" name="type"/>
                              <par value="97" name="parameter1"/>
                              <par value="64" name="parameter2"/>
                              <par value="0" name="parameter3"/>
                            </HARMONIC_POSITION>
                            <SAMPLE_QUALITY>
                              <par value="3" name="samplesize"/>
                              <par value="4" name="basenote"/>
                              <par value="3" name="octaves"/>
                              <par value="2" name="samples_per_octave"/>
                            </SAMPLE_QUALITY>
                            <AMPLITUDE_PARAMETERS>
                              <par value="98" name="volume"/>
                              <par value="64" name="panning"/>
                              <par value="96" name="velocity_sensing"/>
                              <par value="0" name="punch_strength"/>
                              <par value="60" name="punch_time"/>
                              <par value="64" name="punch_stretch"/>
                              <par value="72" name="punch_velocity_sensing"/>
                              <AMPLITUDE_ENVELOPE>
                                <par_bool value="no" name="free_mode"/>
                                <par value="4" name="env_points"/>
                                <par value="2" name="env_sustain"/>
                                <par value="0" name="env_stretch"/>
                                <par_bool value="yes" name="forced_release"/>
                                <par_bool value="no" name="linear_envelope"/>
                                <par value="0" name="A_dt"/>
                                <par value="40" name="D_dt"/>
                                <par value="63" name="R_dt"/>
                                <par value="64" name="A_val"/>
                                <par value="64" name="D_val"/>
                                <par value="127" name="S_val"/>
                                <par value="64" name="R_val"/>
                              </AMPLITUDE_ENVELOPE>
                              <AMPLITUDE_LFO>
                                <par_real value="0.629921" name="freq"/>
                                <par value="0" name="intensity"/>
                                <par value="64" name="start_phase"/>
                                <par value="0" name="lfo_type"/>
                                <par value="0" name="randomness_amplitude"/>
                                <par value="0" name="randomness_frequency"/>
                                <par value="0" name="delay"/>
                                <par value="64" name="stretch"/>
                                <par_bool value="no" name="continous"/>
                              </AMPLITUDE_LFO>
                            </AMPLITUDE_PARAMETERS>
                            <FREQUENCY_PARAMETERS>
                              <par value="0" name="fixed_freq"/>
                              <par value="0" name="fixed_freq_et"/>
                              <par value="8192" name="detune"/>
                              <par value="0" name="coarse_detune"/>
                              <par value="1" name="detune_type"/>
                              <FREQUENCY_ENVELOPE>
                                <par_bool value="no" name="free_mode"/>
                                <par value="3" name="env_points"/>
                                <par value="1" name="env_sustain"/>
                                <par value="23" name="env_stretch"/>
                                <par_bool value="no" name="forced_release"/>
                                <par_bool value="no" name="linear_envelope"/>
                                <par value="26" name="A_dt"/>
                                <par value="10" name="D_dt"/>
                                <par value="60" name="R_dt"/>
                                <par value="44" name="A_val"/>
                                <par value="64" name="D_val"/>
                                <par value="64" name="S_val"/>
                                <par value="64" name="R_val"/>
                              </FREQUENCY_ENVELOPE>
                              <FREQUENCY_LFO>
                                <par_real value="0.582677" name="freq"/>
                                <par value="0" name="intensity"/>
                                <par value="64" name="start_phase"/>
                                <par value="0" name="lfo_type"/>
                                <par value="0" name="randomness_amplitude"/>
                                <par value="27" name="randomness_frequency"/>
                                <par value="0" name="delay"/>
                                <par value="64" name="stretch"/>
                                <par_bool value="no" name="continous"/>
                              </FREQUENCY_LFO>
                            </FREQUENCY_PARAMETERS>
                            <FILTER_PARAMETERS>
                              <par value="64" name="velocity_sensing_amplitude"/>
                              <par value="64" name="velocity_sensing"/>
                              <FILTER>
                                <par value="0" name="category"/>
                                <par value="2" name="type"/>
                                <par value="74" name="freq"/>
                                <par value="24" name="q"/>
                                <par value="2" name="stages"/>
                                <par value="65" name="freq_track"/>
                                <par value="64" name="gain"/>
                              </FILTER>
                              <FILTER_ENVELOPE>
                                <par_bool value="no" name="free_mode"/>
                                <par value="4" name="env_points"/>
                                <par value="2" name="env_sustain"/>
                                <par value="0" name="env_stretch"/>
                                <par_bool value="yes" name="forced_release"/>
                                <par_bool value="no" name="linear_envelope"/>
                                <par value="32" name="A_dt"/>
                                <par value="86" name="D_dt"/>
                                <par value="62" name="R_dt"/>
                                <par value="37" name="A_val"/>
                                <par value="110" name="D_val"/>
                                <par value="64" name="S_val"/>
                                <par value="53" name="R_val"/>
                              </FILTER_ENVELOPE>
                              <FILTER_LFO>
                                <par_real value="0.629921" name="freq"/>
                                <par value="0" name="intensity"/>
                                <par value="64" name="start_phase"/>
                                <par value="0" name="lfo_type"/>
                                <par value="0" name="randomness_amplitude"/>
                                <par value="0" name="randomness_frequency"/>
                                <par value="0" name="delay"/>
                                <par value="64" name="stretch"/>
                                <par_bool value="no" name="continous"/>
                              </FILTER_LFO>
                            </FILTER_PARAMETERS>
                          </PAD_SYNTH_PARAMETERS>
                        </INSTRUMENT_KIT_ITEM>
                        <INSTRUMENT_KIT_ITEM id="1">
                          <par_bool value="no" name="enabled"/>
                        </INSTRUMENT_KIT_ITEM>
                        <INSTRUMENT_KIT_ITEM id="2">
                          <par_bool value="no" name="enabled"/>
                        </INSTRUMENT_KIT_ITEM>
                        <INSTRUMENT_KIT_ITEM id="3">
                          <par_bool value="no" name="enabled"/>
                        </INSTRUMENT_KIT_ITEM>
                        <INSTRUMENT_KIT_ITEM id="4">
                          <par_bool value="no" name="enabled"/>
                        </INSTRUMENT_KIT_ITEM>
                        <INSTRUMENT_KIT_ITEM id="5">
                          <par_bool value="no" name="enabled"/>
                        </INSTRUMENT_KIT_ITEM>
                        <INSTRUMENT_KIT_ITEM id="6">
                          <par_bool value="no" name="enabled"/>
                        </INSTRUMENT_KIT_ITEM>
                        <INSTRUMENT_KIT_ITEM id="7">
                          <par_bool value="no" name="enabled"/>
                        </INSTRUMENT_KIT_ITEM>
                        <INSTRUMENT_KIT_ITEM id="8">
                          <par_bool value="no" name="enabled"/>
                        </INSTRUMENT_KIT_ITEM>
                        <INSTRUMENT_KIT_ITEM id="9">
                          <par_bool value="no" name="enabled"/>
                        </INSTRUMENT_KIT_ITEM>
                        <INSTRUMENT_KIT_ITEM id="10">
                          <par_bool value="no" name="enabled"/>
                        </INSTRUMENT_KIT_ITEM>
                        <INSTRUMENT_KIT_ITEM id="11">
                          <par_bool value="no" name="enabled"/>
                        </INSTRUMENT_KIT_ITEM>
                        <INSTRUMENT_KIT_ITEM id="12">
                          <par_bool value="no" name="enabled"/>
                        </INSTRUMENT_KIT_ITEM>
                        <INSTRUMENT_KIT_ITEM id="13">
                          <par_bool value="no" name="enabled"/>
                        </INSTRUMENT_KIT_ITEM>
                        <INSTRUMENT_KIT_ITEM id="14">
                          <par_bool value="no" name="enabled"/>
                        </INSTRUMENT_KIT_ITEM>
                        <INSTRUMENT_KIT_ITEM id="15">
                          <par_bool value="no" name="enabled"/>
                        </INSTRUMENT_KIT_ITEM>
                      </INSTRUMENT_KIT>
                      <INSTRUMENT_EFFECTS>
                        <INSTRUMENT_EFFECT id="0">
                          <EFFECT>
                            <par value="3" name="type"/>
                            <par value="0" name="preset"/>
                            <EFFECT_PARAMETERS>
                              <par_no id="0">
                                <par value="64" name="par"/>
                              </par_no>
                              <par_no id="1">
                                <par value="64" name="par"/>
                              </par_no>
                              <par_no id="2">
                                <par value="50" name="par"/>
                              </par_no>
                              <par_no id="5">
                                <par value="90" name="par"/>
                              </par_no>
                              <par_no id="6">
                                <par value="40" name="par"/>
                              </par_no>
                              <par_no id="7">
                                <par value="17" name="par"/>
                              </par_no>
                              <par_no id="8">
                                <par value="64" name="par"/>
                              </par_no>
                              <par_no id="9">
                                <par value="119" name="par"/>
                              </par_no>
                            </EFFECT_PARAMETERS>
                          </EFFECT>
                          <par value="0" name="route"/>
                          <par_bool value="yes" name="bypass"/>
                        </INSTRUMENT_EFFECT>
                        <INSTRUMENT_EFFECT id="1">
                          <EFFECT>
                            <par value="3" name="type"/>
                            <par value="0" name="preset"/>
                            <EFFECT_PARAMETERS>
                              <par_no id="0">
                                <par value="64" name="par"/>
                              </par_no>
                              <par_no id="1">
                                <par value="64" name="par"/>
                              </par_no>
                              <par_no id="2">
                                <par value="50" name="par"/>
                              </par_no>
                              <par_no id="5">
                                <par value="90" name="par"/>
                              </par_no>
                              <par_no id="6">
                                <par value="58" name="par"/>
                              </par_no>
                              <par_no id="7">
                                <par value="102" name="par"/>
                              </par_no>
                              <par_no id="8">
                                <par value="64" name="par"/>
                              </par_no>
                              <par_no id="9">
                                <par value="119" name="par"/>
                              </par_no>
                            </EFFECT_PARAMETERS>
                          </EFFECT>
                          <par value="0" name="route"/>
                          <par_bool value="yes" name="bypass"/>
                        </INSTRUMENT_EFFECT>
                        <INSTRUMENT_EFFECT id="2">
                          <EFFECT>
                            <par value="3" name="type"/>
                            <par value="0" name="preset"/>
                            <EFFECT_PARAMETERS>
                              <par_no id="0">
                                <par value="64" name="par"/>
                              </par_no>
                              <par_no id="1">
                                <par value="64" name="par"/>
                              </par_no>
                              <par_no id="2">
                                <par value="65" name="par"/>
                              </par_no>
                              <par_no id="5">
                                <par value="90" name="par"/>
                              </par_no>
                              <par_no id="6">
                                <par value="40" name="par"/>
                              </par_no>
                              <par_no id="7">
                                <par value="19" name="par"/>
                              </par_no>
                              <par_no id="8">
                                <par value="64" name="par"/>
                              </par_no>
                              <par_no id="9">
                                <par value="119" name="par"/>
                              </par_no>
                            </EFFECT_PARAMETERS>
                          </EFFECT>
                          <par value="0" name="route"/>
                          <par_bool value="yes" name="bypass"/>
                        </INSTRUMENT_EFFECT>
                      </INSTRUMENT_EFFECTS>
                    </INSTRUMENT>
                    <CONTROLLER>
                      <par value="100" name="pitchwheel_bendrange"/>
                      <par_bool value="yes" name="expression_receive"/>
                      <par value="64" name="panning_depth"/>
                      <par value="64" name="filter_cutoff_depth"/>
                      <par value="64" name="filter_q_depth"/>
                      <par value="64" name="bandwidth_depth"/>
                      <par value="80" name="mod_wheel_depth"/>
                      <par_bool value="no" name="mod_wheel_exponential"/>
                      <par_bool value="yes" name="fm_amp_receive"/>
                      <par_bool value="yes" name="volume_receive"/>
                      <par_bool value="yes" name="sustain_receive"/>
                      <par_bool value="yes" name="portamento_receive"/>
                      <par value="64" name="portamento_time"/>
                      <par value="3" name="portamento_pitchthresh"/>
                      <par value="1" name="portamento_pitchthreshtype"/>
                      <par value="0" name="portamento_portamento"/>
                      <par value="64" name="portamento_updowntimestretch"/>
                      <par value="0" name="portamento_proportional"/>
                      <par value="80" name="portamento_proprate"/>
                      <par value="90" name="portamento_propdepth"/>
                      <par value="64" name="resonance_center_depth"/>
                      <par value="64" name="resonance_bandwidth_depth"/>
                    </CONTROLLER>
                  </PART>
                  <PART id="2">
                    <par_bool value="no" name="enabled"/>
                  </PART>
                  <PART id="3">
                    <par_bool value="no" name="enabled"/>
                  </PART>
                  <PART id="4">
                    <par_bool value="no" name="enabled"/>
                  </PART>
                  <PART id="5">
                    <par_bool value="no" name="enabled"/>
                  </PART>
                  <PART id="6">
                    <par_bool value="no" name="enabled"/>
                  </PART>
                  <PART id="7">
                    <par_bool value="no" name="enabled"/>
                  </PART>
                  <PART id="8">
                    <par_bool value="no" name="enabled"/>
                  </PART>
                  <PART id="9">
                    <par_bool value="no" name="enabled"/>
                  </PART>
                  <PART id="10">
                    <par_bool value="no" name="enabled"/>
                  </PART>
                  <PART id="11">
                    <par_bool value="no" name="enabled"/>
                  </PART>
                  <PART id="12">
                    <par_bool value="no" name="enabled"/>
                  </PART>
                  <PART id="13">
                    <par_bool value="no" name="enabled"/>
                  </PART>
                  <PART id="14">
                    <par_bool value="no" name="enabled"/>
                  </PART>
                  <PART id="15">
                    <par_bool value="no" name="enabled"/>
                  </PART>
                  <SYSTEM_EFFECTS>
                    <SYSTEM_EFFECT id="0">
                      <EFFECT>
                        <par value="0" name="type"/>
                      </EFFECT>
                      <VOLUME id="0">
                        <par value="0" name="vol"/>
                      </VOLUME>
                      <VOLUME id="1">
                        <par value="0" name="vol"/>
                      </VOLUME>
                      <VOLUME id="2">
                        <par value="0" name="vol"/>
                      </VOLUME>
                      <VOLUME id="3">
                        <par value="0" name="vol"/>
                      </VOLUME>
                      <VOLUME id="4">
                        <par value="0" name="vol"/>
                      </VOLUME>
                      <VOLUME id="5">
                        <par value="0" name="vol"/>
                      </VOLUME>
                      <VOLUME id="6">
                        <par value="0" name="vol"/>
                      </VOLUME>
                      <VOLUME id="7">
                        <par value="0" name="vol"/>
                      </VOLUME>
                      <VOLUME id="8">
                        <par value="0" name="vol"/>
                      </VOLUME>
                      <VOLUME id="9">
                        <par value="0" name="vol"/>
                      </VOLUME>
                      <VOLUME id="10">
                        <par value="0" name="vol"/>
                      </VOLUME>
                      <VOLUME id="11">
                        <par value="0" name="vol"/>
                      </VOLUME>
                      <VOLUME id="12">
                        <par value="0" name="vol"/>
                      </VOLUME>
                      <VOLUME id="13">
                        <par value="0" name="vol"/>
                      </VOLUME>
                      <VOLUME id="14">
                        <par value="0" name="vol"/>
                      </VOLUME>
                      <VOLUME id="15">
                        <par value="0" name="vol"/>
                      </VOLUME>
                      <SENDTO id="1">
                        <par value="0" name="send_vol"/>
                      </SENDTO>
                      <SENDTO id="2">
                        <par value="0" name="send_vol"/>
                      </SENDTO>
                      <SENDTO id="3">
                        <par value="0" name="send_vol"/>
                      </SENDTO>
                    </SYSTEM_EFFECT>
                    <SYSTEM_EFFECT id="1">
                      <EFFECT>
                        <par value="0" name="type"/>
                      </EFFECT>
                      <VOLUME id="0">
                        <par value="0" name="vol"/>
                      </VOLUME>
                      <VOLUME id="1">
                        <par value="0" name="vol"/>
                      </VOLUME>
                      <VOLUME id="2">
                        <par value="0" name="vol"/>
                      </VOLUME>
                      <VOLUME id="3">
                        <par value="0" name="vol"/>
                      </VOLUME>
                      <VOLUME id="4">
                        <par value="0" name="vol"/>
                      </VOLUME>
                      <VOLUME id="5">
                        <par value="0" name="vol"/>
                      </VOLUME>
                      <VOLUME id="6">
                        <par value="0" name="vol"/>
                      </VOLUME>
                      <VOLUME id="7">
                        <par value="0" name="vol"/>
                      </VOLUME>
                      <VOLUME id="8">
                        <par value="0" name="vol"/>
                      </VOLUME>
                      <VOLUME id="9">
                        <par value="0" name="vol"/>
                      </VOLUME>
                      <VOLUME id="10">
                        <par value="0" name="vol"/>
                      </VOLUME>
                      <VOLUME id="11">
                        <par value="0" name="vol"/>
                      </VOLUME>
                      <VOLUME id="12">
                        <par value="0" name="vol"/>
                      </VOLUME>
                      <VOLUME id="13">
                        <par value="0" name="vol"/>
                      </VOLUME>
                      <VOLUME id="14">
                        <par value="0" name="vol"/>
                      </VOLUME>
                      <VOLUME id="15">
                        <par value="0" name="vol"/>
                      </VOLUME>
                      <SENDTO id="2">
                        <par value="0" name="send_vol"/>
                      </SENDTO>
                      <SENDTO id="3">
                        <par value="0" name="send_vol"/>
                      </SENDTO>
                    </SYSTEM_EFFECT>
                    <SYSTEM_EFFECT id="2">
                      <EFFECT>
                        <par value="0" name="type"/>
                      </EFFECT>
                      <VOLUME id="0">
                        <par value="0" name="vol"/>
                      </VOLUME>
                      <VOLUME id="1">
                        <par value="0" name="vol"/>
                      </VOLUME>
                      <VOLUME id="2">
                        <par value="0" name="vol"/>
                      </VOLUME>
                      <VOLUME id="3">
                        <par value="0" name="vol"/>
                      </VOLUME>
                      <VOLUME id="4">
                        <par value="0" name="vol"/>
                      </VOLUME>
                      <VOLUME id="5">
                        <par value="0" name="vol"/>
                      </VOLUME>
                      <VOLUME id="6">
                        <par value="0" name="vol"/>
                      </VOLUME>
                      <VOLUME id="7">
                        <par value="0" name="vol"/>
                      </VOLUME>
                      <VOLUME id="8">
                        <par value="0" name="vol"/>
                      </VOLUME>
                      <VOLUME id="9">
                        <par value="0" name="vol"/>
                      </VOLUME>
                      <VOLUME id="10">
                        <par value="0" name="vol"/>
                      </VOLUME>
                      <VOLUME id="11">
                        <par value="0" name="vol"/>
                      </VOLUME>
                      <VOLUME id="12">
                        <par value="0" name="vol"/>
                      </VOLUME>
                      <VOLUME id="13">
                        <par value="0" name="vol"/>
                      </VOLUME>
                      <VOLUME id="14">
                        <par value="0" name="vol"/>
                      </VOLUME>
                      <VOLUME id="15">
                        <par value="0" name="vol"/>
                      </VOLUME>
                      <SENDTO id="3">
                        <par value="0" name="send_vol"/>
                      </SENDTO>
                    </SYSTEM_EFFECT>
                    <SYSTEM_EFFECT id="3">
                      <EFFECT>
                        <par value="0" name="type"/>
                      </EFFECT>
                      <VOLUME id="0">
                        <par value="0" name="vol"/>
                      </VOLUME>
                      <VOLUME id="1">
                        <par value="0" name="vol"/>
                      </VOLUME>
                      <VOLUME id="2">
                        <par value="0" name="vol"/>
                      </VOLUME>
                      <VOLUME id="3">
                        <par value="0" name="vol"/>
                      </VOLUME>
                      <VOLUME id="4">
                        <par value="0" name="vol"/>
                      </VOLUME>
                      <VOLUME id="5">
                        <par value="0" name="vol"/>
                      </VOLUME>
                      <VOLUME id="6">
                        <par value="0" name="vol"/>
                      </VOLUME>
                      <VOLUME id="7">
                        <par value="0" name="vol"/>
                      </VOLUME>
                      <VOLUME id="8">
                        <par value="0" name="vol"/>
                      </VOLUME>
                      <VOLUME id="9">
                        <par value="0" name="vol"/>
                      </VOLUME>
                      <VOLUME id="10">
                        <par value="0" name="vol"/>
                      </VOLUME>
                      <VOLUME id="11">
                        <par value="0" name="vol"/>
                      </VOLUME>
                      <VOLUME id="12">
                        <par value="0" name="vol"/>
                      </VOLUME>
                      <VOLUME id="13">
                        <par value="0" name="vol"/>
                      </VOLUME>
                      <VOLUME id="14">
                        <par value="0" name="vol"/>
                      </VOLUME>
                      <VOLUME id="15">
                        <par value="0" name="vol"/>
                      </VOLUME>
                    </SYSTEM_EFFECT>
                  </SYSTEM_EFFECTS>
                  <INSERTION_EFFECTS>
                    <INSERTION_EFFECT id="0">
                      <par value="-1" name="part"/>
                      <EFFECT>
                        <par value="0" name="type"/>
                      </EFFECT>
                    </INSERTION_EFFECT>
                    <INSERTION_EFFECT id="1">
                      <par value="-1" name="part"/>
                      <EFFECT>
                        <par value="0" name="type"/>
                      </EFFECT>
                    </INSERTION_EFFECT>
                    <INSERTION_EFFECT id="2">
                      <par value="-1" name="part"/>
                      <EFFECT>
                        <par value="0" name="type"/>
                      </EFFECT>
                    </INSERTION_EFFECT>
                    <INSERTION_EFFECT id="3">
                      <par value="-1" name="part"/>
                      <EFFECT>
                        <par value="0" name="type"/>
                      </EFFECT>
                    </INSERTION_EFFECT>
                    <INSERTION_EFFECT id="4">
                      <par value="-1" name="part"/>
                      <EFFECT>
                        <par value="0" name="type"/>
                      </EFFECT>
                    </INSERTION_EFFECT>
                    <INSERTION_EFFECT id="5">
                      <par value="-1" name="part"/>
                      <EFFECT>
                        <par value="0" name="type"/>
                      </EFFECT>
                    </INSERTION_EFFECT>
                    <INSERTION_EFFECT id="6">
                      <par value="-1" name="part"/>
                      <EFFECT>
                        <par value="0" name="type"/>
                      </EFFECT>
                    </INSERTION_EFFECT>
                    <INSERTION_EFFECT id="7">
                      <par value="-1" name="part"/>
                      <EFFECT>
                        <par value="0" name="type"/>
                      </EFFECT>
                    </INSERTION_EFFECT>
                  </INSERTION_EFFECTS>
                </MASTER>
              </ZynAddSubFX-data>
            </zynaddsubfx>
          </instrument>
          <eldata ftype="0" fwet="0" fres="0.5" fcut="14000">
            <elvol sustain="0.5" amt="0" att="0" rel="0.1" ctlenvamt="0" lspd="0.1" lamt="0" hold="0.5" lshp="0" lspd_denominator="4" lpdel="0" latt="0" lspd_numerator="4" pdel="0" lspd_syncmode="0" userwavefile="" dec="0.5" x100="0"/>
            <elcut sustain="0.5" amt="0" att="0" rel="0.1" ctlenvamt="0" lspd="0.1" lamt="0" hold="0.5" lshp="0" lspd_denominator="4" lpdel="0" latt="0" lspd_numerator="4" pdel="0" lspd_syncmode="0" userwavefile="" dec="0.5" x100="0"/>
            <elres sustain="0.5" amt="0" att="0" rel="0.1" ctlenvamt="0" lspd="0.1" lamt="0" hold="0.5" lshp="0" lspd_denominator="4" lpdel="0" latt="0" lspd_numerator="4" pdel="0" lspd_syncmode="0" userwavefile="" dec="0.5" x100="0"/>
          </eldata>
          <chordcreator chord-enabled="0" chordrange="1" chord="0"/>
          <arpeggiator arptime="200" arptime_denominator="4" arpmiss="0" arpgate="100" arpdir="0" arprange="1" arpskip="0" arptime_numerator="4" arp="0" arptime_syncmode="0" arpcycle="0" arp-enabled="0" arpmode="0"/>
          <midiport fixedoutputvelocity="-1" inputcontroller="0" fixedinputvelocity="-1" outputchannel="1" readable="0" fixedoutputnote="-1" outputprogram="1" outports="" inputchannel="0" outputcontroller="0" basevelocity="63" writable="1"/>
          <fxchain numofeffects="0" enabled="0"/>
        </instrumenttrack>
        <pattern muted="0" type="1" pos="3072" steps="16" name="ZynAddSubFX">
          <note pan="0" key="73" len="384" vol="142" pos="0"/>
          <note pan="0" key="69" len="384" vol="142" pos="0"/>
          <note pan="0" key="66" len="384" vol="142" pos="0"/>
          <note pan="0" key="73" len="384" vol="142" pos="384"/>
          <note pan="0" key="68" len="384" vol="142" pos="384"/>
          <note pan="0" key="65" len="384" vol="142" pos="384"/>
          <note pan="0" key="71" len="384" vol="142" pos="768"/>
          <note pan="0" key="68" len="384" vol="142" pos="768"/>
          <note pan="0" key="64" len="384" vol="142" pos="768"/>
          <note pan="0" key="71" len="384" vol="142" pos="1152"/>
          <note pan="0" key="66" len="384" vol="142" pos="1152"/>
          <note pan="0" key="63" len="384" vol="142" pos="1152"/>
          <note pan="0" key="69" len="384" vol="142" pos="1536"/>
          <note pan="0" key="66" len="384" vol="142" pos="1536"/>
          <note pan="0" key="62" len="384" vol="142" pos="1536"/>
          <note pan="0" key="69" len="384" vol="142" pos="1920"/>
          <note pan="0" key="64" len="384" vol="142" pos="1920"/>
          <note pan="0" key="61" len="384" vol="142" pos="1920"/>
          <note pan="0" key="72" len="384" vol="142" pos="2304"/>
          <note pan="0" key="68" len="384" vol="142" pos="2304"/>
          <note pan="0" key="60" len="384" vol="142" pos="2304"/>
          <note pan="0" key="73" len="192" vol="142" pos="2688"/>
          <note pan="0" key="68" len="192" vol="142" pos="2688"/>
          <note pan="0" key="65" len="192" vol="142" pos="2688"/>
          <note pan="0" key="61" len="12" vol="193" pos="2880"/>
          <note pan="0" key="56" len="12" vol="193" pos="2880"/>
          <note pan="0" key="62" len="12" vol="193" pos="2892"/>
          <note pan="0" key="59" len="12" vol="193" pos="2892"/>
          <note pan="0" key="65" len="12" vol="193" pos="2904"/>
          <note pan="0" key="61" len="12" vol="193" pos="2904"/>
          <note pan="0" key="66" len="12" vol="193" pos="2916"/>
          <note pan="0" key="62" len="12" vol="193" pos="2916"/>
          <note pan="0" key="65" len="12" vol="193" pos="2928"/>
          <note pan="0" key="61" len="12" vol="193" pos="2928"/>
          <note pan="0" key="66" len="12" vol="193" pos="2940"/>
          <note pan="0" key="62" len="12" vol="193" pos="2940"/>
          <note pan="0" key="68" len="12" vol="193" pos="2952"/>
          <note pan="0" key="65" len="12" vol="193" pos="2952"/>
          <note pan="0" key="69" len="12" vol="193" pos="2964"/>
          <note pan="0" key="66" len="12" vol="193" pos="2964"/>
          <note pan="0" key="68" len="12" vol="193" pos="2976"/>
          <note pan="0" key="65" len="12" vol="193" pos="2976"/>
          <note pan="0" key="69" len="12" vol="193" pos="2988"/>
          <note pan="0" key="66" len="12" vol="193" pos="2988"/>
          <note pan="0" key="71" len="12" vol="193" pos="3000"/>
          <note pan="0" key="68" len="12" vol="193" pos="3000"/>
          <note pan="0" key="73" len="12" vol="193" pos="3012"/>
          <note pan="0" key="69" len="12" vol="193" pos="3012"/>
          <note pan="0" key="71" len="12" vol="193" pos="3024"/>
          <note pan="0" key="68" len="12" vol="193" pos="3024"/>
          <note pan="0" key="73" len="12" vol="193" pos="3036"/>
          <note pan="0" key="69" len="12" vol="193" pos="3036"/>
          <note pan="0" key="74" len="12" vol="193" pos="3048"/>
          <note pan="0" key="71" len="12" vol="193" pos="3048"/>
          <note pan="0" key="77" len="12" vol="193" pos="3060"/>
          <note pan="0" key="73" len="12" vol="193" pos="3060"/>
        </pattern>
        <pattern muted="0" type="1" pos="6144" steps="16" name="ZynAddSubFX">
          <note pan="0" key="66" len="12" vol="193" pos="0"/>
          <note pan="0" key="54" len="12" vol="193" pos="0"/>
          <note pan="0" key="1" len="48" vol="193" pos="0"/>
          <note pan="0" key="66" len="12" vol="193" pos="12"/>
          <note pan="0" key="54" len="12" vol="193" pos="12"/>
          <note pan="0" key="61" len="12" vol="193" pos="24"/>
          <note pan="0" key="49" len="12" vol="193" pos="24"/>
          <note pan="0" key="61" len="12" vol="193" pos="36"/>
          <note pan="0" key="49" len="12" vol="193" pos="36"/>
          <note pan="0" key="66" len="12" vol="193" pos="48"/>
          <note pan="0" key="54" len="12" vol="193" pos="48"/>
          <note pan="0" key="66" len="12" vol="193" pos="60"/>
          <note pan="0" key="54" len="12" vol="193" pos="60"/>
          <note pan="0" key="68" len="12" vol="193" pos="72"/>
          <note pan="0" key="56" len="12" vol="193" pos="72"/>
          <note pan="0" key="68" len="12" vol="193" pos="84"/>
          <note pan="0" key="56" len="12" vol="193" pos="84"/>
          <note pan="0" key="69" len="12" vol="193" pos="96"/>
          <note pan="0" key="57" len="12" vol="193" pos="96"/>
          <note pan="0" key="69" len="12" vol="193" pos="108"/>
          <note pan="0" key="57" len="12" vol="193" pos="108"/>
          <note pan="0" key="68" len="12" vol="193" pos="120"/>
          <note pan="0" key="56" len="12" vol="193" pos="120"/>
          <note pan="0" key="68" len="12" vol="193" pos="132"/>
          <note pan="0" key="56" len="12" vol="193" pos="132"/>
          <note pan="0" key="66" len="12" vol="193" pos="144"/>
          <note pan="0" key="54" len="12" vol="193" pos="144"/>
          <note pan="0" key="66" len="12" vol="193" pos="156"/>
          <note pan="0" key="54" len="12" vol="193" pos="156"/>
          <note pan="0" key="0" len="24" vol="193" pos="156"/>
          <note pan="0" key="69" len="24" vol="193" pos="168"/>
          <note pan="0" key="57" len="24" vol="193" pos="168"/>
          <note pan="0" key="1" len="24" vol="193" pos="180"/>
          <note pan="0" key="62" len="12" vol="193" pos="192"/>
          <note pan="0" key="50" len="12" vol="193" pos="192"/>
          <note pan="0" key="62" len="12" vol="193" pos="204"/>
          <note pan="0" key="50" len="12" vol="193" pos="204"/>
          <note pan="0" key="0" len="24" vol="193" pos="204"/>
          <note pan="0" key="68" len="24" vol="193" pos="216"/>
          <note pan="0" key="56" len="24" vol="193" pos="216"/>
          <note pan="0" key="1" len="24" vol="193" pos="228"/>
          <note pan="0" key="62" len="12" vol="193" pos="240"/>
          <note pan="0" key="50" len="12" vol="193" pos="240"/>
          <note pan="0" key="62" len="12" vol="193" pos="252"/>
          <note pan="0" key="50" len="12" vol="193" pos="252"/>
          <note pan="0" key="0" len="12" vol="193" pos="252"/>
          <note pan="0" key="69" len="48" vol="193" pos="264"/>
          <note pan="0" key="57" len="48" vol="193" pos="264"/>
          <note pan="0" key="1" len="12" vol="193" pos="300"/>
          <note pan="0" key="66" len="12" vol="193" pos="312"/>
          <note pan="0" key="54" len="12" vol="193" pos="312"/>
          <note pan="0" key="66" len="12" vol="193" pos="324"/>
          <note pan="0" key="54" len="12" vol="193" pos="324"/>
          <note pan="0" key="68" len="12" vol="193" pos="336"/>
          <note pan="0" key="56" len="12" vol="193" pos="336"/>
          <note pan="0" key="68" len="12" vol="193" pos="348"/>
          <note pan="0" key="56" len="12" vol="193" pos="348"/>
          <note pan="0" key="69" len="12" vol="193" pos="360"/>
          <note pan="0" key="57" len="12" vol="193" pos="360"/>
          <note pan="0" key="69" len="12" vol="193" pos="372"/>
        </pattern>
        <pattern muted="0" type="1" pos="6528" steps="16" name="ZynAddSubFX">
          <note pan="0" key="64" len="12" vol="193" pos="0"/>
          <note pan="0" key="52" len="12" vol="193" pos="0"/>
          <note pan="0" key="1" len="48" vol="193" pos="0"/>
          <note pan="0" key="64" len="12" vol="193" pos="12"/>
          <note pan="0" key="52" len="12" vol="193" pos="12"/>
          <note pan="0" key="59" len="12" vol="193" pos="24"/>
          <note pan="0" key="47" len="12" vol="193" pos="24"/>
          <note pan="0" key="59" len="12" vol="193" pos="36"/>
          <note pan="0" key="47" len="12" vol="193" pos="36"/>
          <note pan="0" key="64" len="12" vol="193" pos="48"/>
          <note pan="0" key="52" len="12" vol="193" pos="48"/>
          <note pan="0" key="64" len="12" vol="193" pos="60"/>
          <note pan="0" key="52" len="12" vol="193" pos="60"/>
          <note pan="0" key="66" len="12" vol="193" pos="72"/>
          <note pan="0" key="54" len="12" vol="193" pos="72"/>
          <note pan="0" key="66" len="12" vol="193" pos="84"/>
          <note pan="0" key="54" len="12" vol="193" pos="84"/>
          <note pan="0" key="68" len="12" vol="193" pos="96"/>
          <note pan="0" key="56" len="12" vol="193" pos="96"/>
          <note pan="0" key="68" len="12" vol="193" pos="108"/>
          <note pan="0" key="56" len="12" vol="193" pos="108"/>
          <note pan="0" key="66" len="12" vol="193" pos="120"/>
          <note pan="0" key="54" len="12" vol="193" pos="120"/>
          <note pan="0" key="66" len="12" vol="193" pos="132"/>
          <note pan="0" key="54" len="12" vol="193" pos="132"/>
          <note pan="0" key="64" len="12" vol="193" pos="144"/>
          <note pan="0" key="52" len="12" vol="193" pos="144"/>
          <note pan="0" key="64" len="12" vol="193" pos="156"/>
          <note pan="0" key="52" len="12" vol="193" pos="156"/>
          <note pan="0" key="0" len="24" vol="193" pos="156"/>
          <note pan="0" key="66" len="48" vol="193" pos="168"/>
          <note pan="0" key="54" len="48" vol="193" pos="168"/>
          <note pan="0" key="0" len="24" vol="193" pos="204"/>
          <note pan="0" key="68" len="24" vol="193" pos="216"/>
          <note pan="0" key="56" len="24" vol="193" pos="216"/>
          <note pan="0" key="1" len="24" vol="193" pos="228"/>
          <note pan="0" key="66" len="24" vol="193" pos="240"/>
          <note pan="0" key="54" len="24" vol="193" pos="240"/>
          <note pan="0" key="0" len="12" vol="193" pos="252"/>
          <note pan="0" key="65" len="48" vol="193" pos="264"/>
          <note pan="0" key="53" len="48" vol="193" pos="264"/>
          <note pan="0" key="1" len="12" vol="193" pos="300"/>
          <note pan="0" key="65" len="12" vol="193" pos="312"/>
          <note pan="0" key="53" len="12" vol="193" pos="312"/>
          <note pan="0" key="66" len="12" vol="193" pos="324"/>
          <note pan="0" key="54" len="12" vol="193" pos="324"/>
          <note pan="0" key="68" len="12" vol="193" pos="336"/>
          <note pan="0" key="56" len="12" vol="193" pos="336"/>
          <note pan="0" key="66" len="12" vol="193" pos="348"/>
          <note pan="0" key="54" len="12" vol="193" pos="348"/>
          <note pan="0" key="65" len="12" vol="193" pos="360"/>
          <note pan="0" key="53" len="12" vol="193" pos="360"/>
          <note pan="0" key="68" len="12" vol="193" pos="372"/>
          <note pan="0" key="56" len="12" vol="193" pos="372"/>
        </pattern>
        <pattern muted="0" type="1" pos="6912" steps="16" name="ZynAddSubFX">
          <note pan="0" key="66" len="12" vol="193" pos="0"/>
          <note pan="0" key="54" len="12" vol="193" pos="0"/>
          <note pan="0" key="1" len="48" vol="193" pos="0"/>
          <note pan="0" key="66" len="12" vol="193" pos="12"/>
          <note pan="0" key="54" len="12" vol="193" pos="12"/>
          <note pan="0" key="61" len="12" vol="193" pos="24"/>
          <note pan="0" key="49" len="12" vol="193" pos="24"/>
          <note pan="0" key="61" len="12" vol="193" pos="36"/>
          <note pan="0" key="49" len="12" vol="193" pos="36"/>
          <note pan="0" key="66" len="12" vol="193" pos="48"/>
          <note pan="0" key="54" len="12" vol="193" pos="48"/>
          <note pan="0" key="66" len="12" vol="193" pos="60"/>
          <note pan="0" key="54" len="12" vol="193" pos="60"/>
          <note pan="0" key="68" len="12" vol="193" pos="72"/>
          <note pan="0" key="56" len="12" vol="193" pos="72"/>
          <note pan="0" key="68" len="12" vol="193" pos="84"/>
          <note pan="0" key="56" len="12" vol="193" pos="84"/>
          <note pan="0" key="69" len="12" vol="193" pos="96"/>
          <note pan="0" key="57" len="12" vol="193" pos="96"/>
          <note pan="0" key="69" len="12" vol="193" pos="108"/>
          <note pan="0" key="57" len="12" vol="193" pos="108"/>
          <note pan="0" key="68" len="12" vol="193" pos="120"/>
          <note pan="0" key="56" len="12" vol="193" pos="120"/>
          <note pan="0" key="68" len="12" vol="193" pos="132"/>
          <note pan="0" key="56" len="12" vol="193" pos="132"/>
          <note pan="0" key="66" len="12" vol="193" pos="144"/>
          <note pan="0" key="54" len="12" vol="193" pos="144"/>
          <note pan="0" key="66" len="12" vol="193" pos="156"/>
          <note pan="0" key="54" len="12" vol="193" pos="156"/>
          <note pan="0" key="0" len="24" vol="193" pos="156"/>
          <note pan="0" key="69" len="24" vol="193" pos="168"/>
          <note pan="0" key="66" len="24" vol="193" pos="168"/>
          <note pan="0" key="1" len="24" vol="193" pos="180"/>
          <note pan="0" key="66" len="12" vol="193" pos="192"/>
          <note pan="0" key="62" len="12" vol="193" pos="192"/>
          <note pan="0" key="66" len="12" vol="193" pos="204"/>
          <note pan="0" key="62" len="12" vol="193" pos="204"/>
          <note pan="0" key="0" len="24" vol="193" pos="204"/>
          <note pan="0" key="71" len="24" vol="193" pos="216"/>
          <note pan="0" key="68" len="24" vol="193" pos="216"/>
          <note pan="0" key="1" len="24" vol="193" pos="228"/>
          <note pan="0" key="66" len="12" vol="193" pos="240"/>
          <note pan="0" key="62" len="12" vol="193" pos="240"/>
          <note pan="0" key="66" len="12" vol="193" pos="252"/>
          <note pan="0" key="62" len="12" vol="193" pos="252"/>
          <note pan="0" key="0" len="12" vol="193" pos="252"/>
          <note pan="0" key="73" len="48" vol="193" pos="264"/>
          <note pan="0" key="69" len="48" vol="193" pos="264"/>
          <note pan="0" key="1" len="12" vol="193" pos="300"/>
          <note pan="0" key="69" len="12" vol="193" pos="312"/>
          <note pan="0" key="66" len="12" vol="193" pos="312"/>
          <note pan="0" key="69" len="12" vol="193" pos="324"/>
          <note pan="0" key="66" len="12" vol="193" pos="324"/>
          <note pan="0" key="71" len="12" vol="193" pos="336"/>
          <note pan="0" key="68" len="12" vol="193" pos="336"/>
          <note pan="0" key="71" len="12" vol="193" pos="348"/>
          <note pan="0" key="68" len="12" vol="193" pos="348"/>
          <note pan="0" key="73" len="12" vol="193" pos="360"/>
          <note pan="0" key="69" len="12" vol="193" pos="360"/>
          <note pan="0" key="73" len="12" vol="193" pos="372"/>
          <note pan="0" key="69" len="12" vol="193" pos="372"/>
        </pattern>
        <pattern muted="0" type="1" pos="9216" steps="16" name="ZynAddSubFX">
          <note pan="0" key="69" len="384" vol="193" pos="0"/>
          <note pan="0" key="66" len="384" vol="193" pos="0"/>
          <note pan="0" key="66" len="384" vol="193" pos="384"/>
          <note pan="0" key="62" len="384" vol="193" pos="384"/>
        </pattern>
        <pattern muted="0" type="1" pos="7296" steps="16" name="ZynAddSubFX">
          <note pan="0" key="69" len="12" vol="193" pos="0"/>
          <note pan="0" key="64" len="12" vol="193" pos="0"/>
          <note pan="0" key="1" len="48" vol="193" pos="0"/>
          <note pan="0" key="69" len="12" vol="193" pos="12"/>
          <note pan="0" key="64" len="12" vol="193" pos="12"/>
          <note pan="0" key="64" len="12" vol="193" pos="24"/>
          <note pan="0" key="61" len="12" vol="193" pos="24"/>
          <note pan="0" key="64" len="12" vol="193" pos="36"/>
          <note pan="0" key="61" len="12" vol="193" pos="36"/>
          <note pan="0" key="69" len="12" vol="193" pos="48"/>
          <note pan="0" key="64" len="12" vol="193" pos="48"/>
          <note pan="0" key="69" len="12" vol="193" pos="60"/>
          <note pan="0" key="64" len="12" vol="193" pos="60"/>
          <note pan="0" key="71" len="12" vol="193" pos="72"/>
          <note pan="0" key="68" len="12" vol="193" pos="72"/>
          <note pan="0" key="71" len="12" vol="193" pos="84"/>
          <note pan="0" key="68" len="12" vol="193" pos="84"/>
          <note pan="0" key="73" len="12" vol="193" pos="96"/>
          <note pan="0" key="69" len="12" vol="193" pos="96"/>
          <note pan="0" key="73" len="12" vol="193" pos="108"/>
          <note pan="0" key="69" len="12" vol="193" pos="108"/>
          <note pan="0" key="71" len="12" vol="193" pos="120"/>
          <note pan="0" key="68" len="12" vol="193" pos="120"/>
          <note pan="0" key="71" len="12" vol="193" pos="132"/>
          <note pan="0" key="68" len="12" vol="193" pos="132"/>
          <note pan="0" key="73" len="12" vol="193" pos="144"/>
          <note pan="0" key="69" len="12" vol="193" pos="144"/>
          <note pan="0" key="73" len="12" vol="193" pos="156"/>
          <note pan="0" key="69" len="12" vol="193" pos="156"/>
          <note pan="0" key="0" len="24" vol="193" pos="156"/>
          <note pan="0" key="77" len="48" vol="193" pos="168"/>
          <note pan="0" key="73" len="48" vol="193" pos="168"/>
          <note pan="0" key="0" len="24" vol="193" pos="204"/>
          <note pan="0" key="73" len="24" vol="193" pos="216"/>
          <note pan="0" key="69" len="24" vol="193" pos="216"/>
          <note pan="0" key="1" len="24" vol="193" pos="228"/>
          <note pan="0" key="71" len="24" vol="193" pos="240"/>
          <note pan="0" key="68" len="24" vol="193" pos="240"/>
          <note pan="0" key="0" len="12" vol="193" pos="252"/>
          <note pan="0" key="73" len="48" vol="193" pos="264"/>
          <note pan="0" key="69" len="48" vol="193" pos="264"/>
          <note pan="0" key="1" len="12" vol="193" pos="300"/>
          <note pan="0" key="71" len="12" vol="193" pos="312"/>
          <note pan="0" key="68" len="12" vol="193" pos="312"/>
          <note pan="0" key="73" len="12" vol="193" pos="324"/>
          <note pan="0" key="69" len="12" vol="193" pos="324"/>
          <note pan="0" key="74" len="12" vol="193" pos="336"/>
          <note pan="0" key="71" len="12" vol="193" pos="336"/>
          <note pan="0" key="73" len="12" vol="193" pos="348"/>
          <note pan="0" key="69" len="12" vol="193" pos="348"/>
          <note pan="0" key="71" len="12" vol="193" pos="360"/>
          <note pan="0" key="68" len="12" vol="193" pos="360"/>
          <note pan="0" key="73" len="12" vol="193" pos="372"/>
          <note pan="0" key="69" len="12" vol="193" pos="372"/>
        </pattern>
        <pattern muted="0" type="1" pos="9984" steps="16" name="ZynAddSubFX">
          <note pan="0" key="69" len="384" vol="193" pos="0"/>
          <note pan="0" key="66" len="384" vol="193" pos="0"/>
          <note pan="0" key="73" len="192" vol="193" pos="384"/>
          <note pan="0" key="69" len="192" vol="193" pos="384"/>
          <note pan="0" key="73" len="192" vol="193" pos="576"/>
          <note pan="0" key="65" len="192" vol="193" pos="576"/>
        </pattern>
        <pattern muted="0" type="1" pos="7680" steps="16" name="ZynAddSubFX">
          <note pan="0" key="69" len="12" vol="193" pos="0"/>
          <note pan="0" key="66" len="12" vol="193" pos="0"/>
          <note pan="0" key="1" len="48" vol="193" pos="0"/>
          <note pan="0" key="69" len="12" vol="193" pos="12"/>
          <note pan="0" key="66" len="12" vol="193" pos="12"/>
          <note pan="0" key="66" len="12" vol="193" pos="24"/>
          <note pan="0" key="61" len="12" vol="193" pos="24"/>
          <note pan="0" key="66" len="12" vol="193" pos="36"/>
          <note pan="0" key="61" len="12" vol="193" pos="36"/>
          <note pan="0" key="69" len="12" vol="193" pos="48"/>
          <note pan="0" key="66" len="12" vol="193" pos="48"/>
          <note pan="0" key="69" len="12" vol="193" pos="60"/>
          <note pan="0" key="66" len="12" vol="193" pos="60"/>
          <note pan="0" key="71" len="12" vol="193" pos="72"/>
          <note pan="0" key="68" len="12" vol="193" pos="72"/>
          <note pan="0" key="71" len="12" vol="193" pos="84"/>
          <note pan="0" key="68" len="12" vol="193" pos="84"/>
          <note pan="0" key="73" len="12" vol="193" pos="96"/>
          <note pan="0" key="69" len="12" vol="193" pos="96"/>
          <note pan="0" key="73" len="12" vol="193" pos="108"/>
          <note pan="0" key="69" len="12" vol="193" pos="108"/>
          <note pan="0" key="71" len="12" vol="193" pos="120"/>
          <note pan="0" key="68" len="12" vol="193" pos="120"/>
          <note pan="0" key="71" len="12" vol="193" pos="132"/>
          <note pan="0" key="68" len="12" vol="193" pos="132"/>
          <note pan="0" key="69" len="12" vol="193" pos="144"/>
          <note pan="0" key="66" len="12" vol="193" pos="144"/>
          <note pan="0" key="69" len="12" vol="193" pos="156"/>
          <note pan="0" key="66" len="12" vol="193" pos="156"/>
          <note pan="0" key="0" len="24" vol="193" pos="156"/>
          <note pan="0" key="73" len="24" vol="193" pos="168"/>
          <note pan="0" key="69" len="24" vol="193" pos="168"/>
          <note pan="0" key="1" len="24" vol="193" pos="180"/>
          <note pan="0" key="66" len="12" vol="193" pos="192"/>
          <note pan="0" key="62" len="12" vol="193" pos="192"/>
          <note pan="0" key="66" len="12" vol="193" pos="204"/>
          <note pan="0" key="62" len="12" vol="193" pos="204"/>
          <note pan="0" key="0" len="24" vol="193" pos="204"/>
          <note pan="0" key="71" len="24" vol="193" pos="216"/>
          <note pan="0" key="68" len="24" vol="193" pos="216"/>
          <note pan="0" key="1" len="24" vol="193" pos="228"/>
          <note pan="0" key="66" len="12" vol="193" pos="240"/>
          <note pan="0" key="62" len="12" vol="193" pos="240"/>
          <note pan="0" key="66" len="12" vol="193" pos="252"/>
          <note pan="0" key="62" len="12" vol="193" pos="252"/>
          <note pan="0" key="0" len="12" vol="193" pos="252"/>
          <note pan="0" key="73" len="48" vol="193" pos="264"/>
          <note pan="0" key="69" len="48" vol="193" pos="264"/>
          <note pan="0" key="1" len="12" vol="193" pos="300"/>
          <note pan="0" key="69" len="12" vol="193" pos="312"/>
          <note pan="0" key="66" len="12" vol="193" pos="312"/>
          <note pan="0" key="69" len="12" vol="193" pos="324"/>
          <note pan="0" key="66" len="12" vol="193" pos="324"/>
          <note pan="0" key="71" len="12" vol="193" pos="336"/>
          <note pan="0" key="68" len="12" vol="193" pos="336"/>
          <note pan="0" key="71" len="12" vol="193" pos="348"/>
          <note pan="0" key="68" len="12" vol="193" pos="348"/>
          <note pan="0" key="73" len="12" vol="193" pos="360"/>
          <note pan="0" key="69" len="12" vol="193" pos="360"/>
          <note pan="0" key="73" len="12" vol="193" pos="372"/>
          <note pan="0" key="69" len="12" vol="193" pos="372"/>
        </pattern>
        <pattern muted="0" type="1" pos="8064" steps="16" name="ZynAddSubFX">
          <note pan="0" key="69" len="12" vol="193" pos="0"/>
          <note pan="0" key="64" len="12" vol="193" pos="0"/>
          <note pan="0" key="1" len="48" vol="193" pos="0"/>
          <note pan="0" key="69" len="12" vol="193" pos="12"/>
          <note pan="0" key="64" len="12" vol="193" pos="12"/>
          <note pan="0" key="64" len="12" vol="193" pos="24"/>
          <note pan="0" key="61" len="12" vol="193" pos="24"/>
          <note pan="0" key="64" len="12" vol="193" pos="36"/>
          <note pan="0" key="61" len="12" vol="193" pos="36"/>
          <note pan="0" key="69" len="12" vol="193" pos="48"/>
          <note pan="0" key="64" len="12" vol="193" pos="48"/>
          <note pan="0" key="69" len="12" vol="193" pos="60"/>
          <note pan="0" key="64" len="12" vol="193" pos="60"/>
          <note pan="0" key="71" len="12" vol="193" pos="72"/>
          <note pan="0" key="68" len="12" vol="193" pos="72"/>
          <note pan="0" key="71" len="12" vol="193" pos="84"/>
          <note pan="0" key="68" len="12" vol="193" pos="84"/>
          <note pan="0" key="73" len="12" vol="193" pos="96"/>
          <note pan="0" key="69" len="12" vol="193" pos="96"/>
          <note pan="0" key="73" len="12" vol="193" pos="108"/>
          <note pan="0" key="69" len="12" vol="193" pos="108"/>
          <note pan="0" key="71" len="12" vol="193" pos="120"/>
          <note pan="0" key="68" len="12" vol="193" pos="120"/>
          <note pan="0" key="71" len="12" vol="193" pos="132"/>
          <note pan="0" key="68" len="12" vol="193" pos="132"/>
          <note pan="0" key="69" len="12" vol="193" pos="144"/>
          <note pan="0" key="64" len="12" vol="193" pos="144"/>
          <note pan="0" key="69" len="12" vol="193" pos="156"/>
          <note pan="0" key="64" len="12" vol="193" pos="156"/>
          <note pan="0" key="0" len="24" vol="193" pos="156"/>
          <note pan="0" key="73" len="48" vol="193" pos="168"/>
          <note pan="0" key="68" len="48" vol="193" pos="168"/>
          <note pan="0" key="71" len="12" vol="193" pos="216"/>
          <note pan="0" key="68" len="12" vol="193" pos="216"/>
          <note pan="0" key="1" len="12" vol="193" pos="216"/>
          <note pan="0" key="73" len="12" vol="193" pos="228"/>
          <note pan="0" key="69" len="12" vol="193" pos="228"/>
          <note pan="0" key="74" len="12" vol="193" pos="240"/>
          <note pan="0" key="71" len="12" vol="193" pos="240"/>
          <note pan="0" key="0" len="12" vol="193" pos="240"/>
          <note pan="0" key="73" len="12" vol="193" pos="252"/>
          <note pan="0" key="69" len="12" vol="193" pos="252"/>
          <note pan="0" key="71" len="12" vol="193" pos="264"/>
          <note pan="0" key="68" len="12" vol="193" pos="264"/>
          <note pan="0" key="1" len="12" vol="193" pos="264"/>
          <note pan="0" key="69" len="12" vol="193" pos="276"/>
          <note pan="0" key="66" len="12" vol="193" pos="276"/>
          <note pan="0" key="73" len="12" vol="193" pos="288"/>
          <note pan="0" key="69" len="12" vol="193" pos="288"/>
          <note pan="0" key="0" len="12" vol="193" pos="288"/>
          <note pan="0" key="71" len="12" vol="193" pos="300"/>
          <note pan="0" key="68" len="12" vol="193" pos="300"/>
          <note pan="0" key="69" len="12" vol="193" pos="312"/>
          <note pan="0" key="66" len="12" vol="193" pos="312"/>
          <note pan="0" key="1" len="12" vol="193" pos="312"/>
          <note pan="0" key="68" len="12" vol="193" pos="324"/>
          <note pan="0" key="65" len="12" vol="193" pos="324"/>
          <note pan="0" key="71" len="12" vol="193" pos="336"/>
          <note pan="0" key="68" len="12" vol="193" pos="336"/>
          <note pan="0" key="0" len="12" vol="193" pos="336"/>
          <note pan="0" key="69" len="12" vol="193" pos="348"/>
          <note pan="0" key="66" len="12" vol="193" pos="348"/>
          <note pan="0" key="68" len="12" vol="193" pos="360"/>
          <note pan="0" key="65" len="12" vol="193" pos="360"/>
          <note pan="0" key="1" len="12" vol="193" pos="360"/>
          <note pan="0" key="66" len="12" vol="193" pos="372"/>
          <note pan="0" key="62" len="12" vol="193" pos="372"/>
        </pattern>
        <pattern muted="0" type="1" pos="8448" steps="16" name="ZynAddSubFX">
          <note pan="0" key="74" len="384" vol="193" pos="0"/>
          <note pan="0" key="69" len="384" vol="193" pos="0"/>
          <note pan="0" key="66" len="384" vol="193" pos="0"/>
          <note pan="0" key="76" len="192" vol="193" pos="384"/>
          <note pan="0" key="71" len="192" vol="193" pos="384"/>
          <note pan="0" key="68" len="192" vol="193" pos="384"/>
          <note pan="0" key="80" len="24" vol="193" pos="576"/>
          <note pan="0" key="77" len="24" vol="193" pos="576"/>
          <note pan="0" key="71" len="24" vol="193" pos="576"/>
          <note pan="0" key="77" len="24" vol="193" pos="600"/>
          <note pan="0" key="73" len="24" vol="193" pos="600"/>
          <note pan="0" key="68" len="24" vol="193" pos="600"/>
          <note pan="0" key="80" len="24" vol="193" pos="624"/>
          <note pan="0" key="77" len="24" vol="193" pos="624"/>
          <note pan="0" key="71" len="24" vol="193" pos="624"/>
          <note pan="0" key="81" len="24" vol="193" pos="648"/>
          <note pan="0" key="78" len="24" vol="193" pos="648"/>
          <note pan="0" key="73" len="24" vol="193" pos="648"/>
          <note pan="0" key="83" len="24" vol="193" pos="672"/>
          <note pan="0" key="80" len="24" vol="193" pos="672"/>
          <note pan="0" key="77" len="24" vol="193" pos="672"/>
          <note pan="0" key="81" len="24" vol="193" pos="696"/>
          <note pan="0" key="78" len="24" vol="193" pos="696"/>
          <note pan="0" key="73" len="24" vol="193" pos="696"/>
          <note pan="0" key="80" len="24" vol="193" pos="720"/>
          <note pan="0" key="77" len="24" vol="193" pos="720"/>
          <note pan="0" key="71" len="24" vol="193" pos="720"/>
          <note pan="0" key="77" len="24" vol="193" pos="744"/>
          <note pan="0" key="73" len="24" vol="193" pos="744"/>
          <note pan="0" key="68" len="24" vol="193" pos="744"/>
        </pattern>
        <pattern muted="0" type="1" pos="0" steps="16" name="ZynAddSubFX">
          <note pan="0" key="73" len="384" vol="142" pos="0"/>
          <note pan="0" key="69" len="384" vol="142" pos="0"/>
          <note pan="0" key="66" len="384" vol="142" pos="0"/>
          <note pan="0" key="73" len="384" vol="142" pos="384"/>
          <note pan="0" key="68" len="384" vol="142" pos="384"/>
          <note pan="0" key="65" len="384" vol="142" pos="384"/>
          <note pan="0" key="71" len="384" vol="142" pos="768"/>
          <note pan="0" key="68" len="384" vol="142" pos="768"/>
          <note pan="0" key="64" len="384" vol="142" pos="768"/>
          <note pan="0" key="71" len="384" vol="142" pos="1152"/>
          <note pan="0" key="66" len="384" vol="142" pos="1152"/>
          <note pan="0" key="63" len="384" vol="142" pos="1152"/>
          <note pan="0" key="69" len="384" vol="142" pos="1536"/>
          <note pan="0" key="66" len="384" vol="142" pos="1536"/>
          <note pan="0" key="62" len="384" vol="142" pos="1536"/>
          <note pan="0" key="69" len="384" vol="142" pos="1920"/>
          <note pan="0" key="64" len="384" vol="142" pos="1920"/>
          <note pan="0" key="61" len="384" vol="142" pos="1920"/>
          <note pan="0" key="72" len="384" vol="142" pos="2304"/>
          <note pan="0" key="68" len="384" vol="142" pos="2304"/>
          <note pan="0" key="60" len="384" vol="142" pos="2304"/>
          <note pan="0" key="73" len="384" vol="142" pos="2688"/>
          <note pan="0" key="68" len="384" vol="142" pos="2688"/>
          <note pan="0" key="65" len="384" vol="142" pos="2688"/>
        </pattern>
        <pattern muted="0" type="1" pos="10752" steps="16" name="ZynAddSubFX">
          <note pan="0" key="69" len="24" vol="193" pos="0"/>
          <note pan="0" key="66" len="24" vol="193" pos="0"/>
          <note pan="0" key="66" len="24" vol="193" pos="24"/>
          <note pan="0" key="61" len="24" vol="193" pos="24"/>
          <note pan="0" key="73" len="24" vol="193" pos="48"/>
          <note pan="0" key="69" len="24" vol="193" pos="48"/>
          <note pan="0" key="66" len="24" vol="193" pos="72"/>
          <note pan="0" key="61" len="24" vol="193" pos="72"/>
          <note pan="0" key="69" len="24" vol="193" pos="96"/>
          <note pan="0" key="66" len="24" vol="193" pos="96"/>
          <note pan="0" key="66" len="24" vol="193" pos="120"/>
          <note pan="0" key="61" len="24" vol="193" pos="120"/>
          <note pan="0" key="61" len="24" vol="193" pos="144"/>
          <note pan="0" key="57" len="24" vol="193" pos="144"/>
          <note pan="0" key="66" len="24" vol="193" pos="168"/>
          <note pan="0" key="61" len="24" vol="193" pos="168"/>
          <note pan="0" key="69" len="24" vol="193" pos="192"/>
          <note pan="0" key="66" len="24" vol="193" pos="192"/>
          <note pan="0" key="66" len="24" vol="193" pos="216"/>
          <note pan="0" key="61" len="24" vol="193" pos="216"/>
          <note pan="0" key="73" len="24" vol="193" pos="240"/>
          <note pan="0" key="69" len="24" vol="193" pos="240"/>
          <note pan="0" key="66" len="24" vol="193" pos="264"/>
          <note pan="0" key="61" len="24" vol="193" pos="264"/>
          <note pan="0" key="69" len="24" vol="193" pos="288"/>
          <note pan="0" key="66" len="24" vol="193" pos="288"/>
          <note pan="0" key="66" len="24" vol="193" pos="312"/>
          <note pan="0" key="61" len="24" vol="193" pos="312"/>
          <note pan="0" key="61" len="24" vol="193" pos="336"/>
          <note pan="0" key="57" len="24" vol="193" pos="336"/>
          <note pan="0" key="66" len="24" vol="193" pos="360"/>
          <note pan="0" key="61" len="24" vol="193" pos="360"/>
          <note pan="0" key="74" len="24" vol="193" pos="384"/>
          <note pan="0" key="71" len="24" vol="193" pos="384"/>
          <note pan="0" key="71" len="24" vol="193" pos="408"/>
          <note pan="0" key="66" len="24" vol="193" pos="408"/>
          <note pan="0" key="78" len="24" vol="193" pos="432"/>
          <note pan="0" key="74" len="24" vol="193" pos="432"/>
          <note pan="0" key="71" len="24" vol="193" pos="456"/>
          <note pan="0" key="66" len="24" vol="193" pos="456"/>
          <note pan="0" key="74" len="24" vol="193" pos="480"/>
          <note pan="0" key="71" len="24" vol="193" pos="480"/>
          <note pan="0" key="71" len="24" vol="193" pos="504"/>
          <note pan="0" key="66" len="24" vol="193" pos="504"/>
          <note pan="0" key="66" len="24" vol="193" pos="528"/>
          <note pan="0" key="62" len="24" vol="193" pos="528"/>
          <note pan="0" key="71" len="24" vol="193" pos="552"/>
          <note pan="0" key="66" len="24" vol="193" pos="552"/>
          <note pan="0" key="74" len="24" vol="193" pos="576"/>
          <note pan="0" key="71" len="24" vol="193" pos="576"/>
          <note pan="0" key="71" len="24" vol="193" pos="600"/>
          <note pan="0" key="66" len="24" vol="193" pos="600"/>
          <note pan="0" key="78" len="24" vol="193" pos="624"/>
          <note pan="0" key="74" len="24" vol="193" pos="624"/>
          <note pan="0" key="71" len="24" vol="193" pos="648"/>
          <note pan="0" key="66" len="24" vol="193" pos="648"/>
          <note pan="0" key="74" len="24" vol="193" pos="672"/>
          <note pan="0" key="71" len="24" vol="193" pos="672"/>
          <note pan="0" key="71" len="24" vol="193" pos="696"/>
          <note pan="0" key="66" len="24" vol="193" pos="696"/>
          <note pan="0" key="66" len="24" vol="193" pos="720"/>
          <note pan="0" key="62" len="24" vol="193" pos="720"/>
          <note pan="0" key="71" len="24" vol="193" pos="744"/>
          <note pan="0" key="66" len="24" vol="193" pos="744"/>
        </pattern>
        <pattern muted="0" type="1" pos="11520" steps="16" name="ZynAddSubFX">
          <note pan="0" key="73" len="24" vol="193" pos="0"/>
          <note pan="0" key="69" len="24" vol="193" pos="0"/>
          <note pan="0" key="69" len="24" vol="193" pos="24"/>
          <note pan="0" key="64" len="24" vol="193" pos="24"/>
          <note pan="0" key="69" len="24" vol="193" pos="48"/>
          <note pan="0" key="64" len="24" vol="193" pos="48"/>
          <note pan="0" key="73" len="24" vol="193" pos="72"/>
          <note pan="0" key="69" len="24" vol="193" pos="72"/>
          <note pan="0" key="76" len="24" vol="193" pos="96"/>
          <note pan="0" key="73" len="24" vol="193" pos="96"/>
          <note pan="0" key="73" len="24" vol="193" pos="120"/>
          <note pan="0" key="69" len="24" vol="193" pos="120"/>
          <note pan="0" key="69" len="24" vol="193" pos="144"/>
          <note pan="0" key="64" len="24" vol="193" pos="144"/>
          <note pan="0" key="73" len="24" vol="193" pos="168"/>
          <note pan="0" key="69" len="24" vol="193" pos="168"/>
        </pattern>
        <pattern muted="0" type="1" pos="11712" steps="16" name="ZynAddSubFX">
          <note pan="0" key="73" len="24" vol="193" pos="0"/>
          <note pan="0" key="68" len="24" vol="193" pos="0"/>
          <note pan="0" key="68" len="24" vol="193" pos="24"/>
          <note pan="0" key="65" len="24" vol="193" pos="24"/>
          <note pan="0" key="68" len="24" vol="193" pos="48"/>
          <note pan="0" key="65" len="24" vol="193" pos="48"/>
          <note pan="0" key="73" len="24" vol="193" pos="72"/>
          <note pan="0" key="68" len="24" vol="193" pos="72"/>
          <note pan="0" key="77" len="24" vol="193" pos="96"/>
          <note pan="0" key="73" len="24" vol="193" pos="96"/>
          <note pan="0" key="73" len="24" vol="193" pos="120"/>
          <note pan="0" key="68" len="24" vol="193" pos="120"/>
          <note pan="0" key="77" len="24" vol="193" pos="144"/>
          <note pan="0" key="68" len="24" vol="193" pos="144"/>
          <note pan="0" key="73" len="24" vol="193" pos="168"/>
          <note pan="0" key="68" len="24" vol="193" pos="168"/>
        </pattern>
        <pattern muted="0" type="1" pos="11904" steps="16" name="ZynAddSubFX">
          <note pan="0" key="81" len="24" vol="193" pos="0"/>
          <note pan="0" key="78" len="24" vol="193" pos="0"/>
          <note pan="0" key="73" len="24" vol="193" pos="0"/>
          <note pan="0" key="78" len="24" vol="193" pos="24"/>
          <note pan="0" key="73" len="24" vol="193" pos="24"/>
          <note pan="0" key="69" len="24" vol="193" pos="24"/>
          <note pan="0" key="78" len="24" vol="193" pos="48"/>
          <note pan="0" key="73" len="24" vol="193" pos="48"/>
          <note pan="0" key="69" len="24" vol="193" pos="48"/>
          <note pan="0" key="85" len="24" vol="193" pos="72"/>
          <note pan="0" key="81" len="24" vol="193" pos="72"/>
          <note pan="0" key="78" len="24" vol="193" pos="72"/>
          <note pan="0" key="81" len="24" vol="193" pos="96"/>
          <note pan="0" key="78" len="24" vol="193" pos="96"/>
          <note pan="0" key="73" len="24" vol="193" pos="96"/>
          <note pan="0" key="78" len="24" vol="193" pos="120"/>
          <note pan="0" key="73" len="24" vol="193" pos="120"/>
          <note pan="0" key="69" len="24" vol="193" pos="120"/>
          <note pan="0" key="81" len="24" vol="193" pos="144"/>
          <note pan="0" key="78" len="24" vol="193" pos="144"/>
          <note pan="0" key="73" len="24" vol="193" pos="144"/>
          <note pan="0" key="78" len="24" vol="193" pos="168"/>
          <note pan="0" key="73" len="24" vol="193" pos="168"/>
          <note pan="0" key="69" len="24" vol="193" pos="168"/>
        </pattern>
        <pattern muted="0" type="1" pos="12096" steps="16" name="ZynAddSubFX">
          <note pan="0" key="81" len="24" vol="193" pos="0"/>
          <note pan="0" key="78" len="24" vol="193" pos="0"/>
          <note pan="0" key="73" len="24" vol="193" pos="0"/>
          <note pan="0" key="78" len="24" vol="193" pos="24"/>
          <note pan="0" key="73" len="24" vol="193" pos="24"/>
          <note pan="0" key="69" len="24" vol="193" pos="24"/>
          <note pan="0" key="78" len="24" vol="193" pos="48"/>
          <note pan="0" key="73" len="24" vol="193" pos="48"/>
          <note pan="0" key="69" len="24" vol="193" pos="48"/>
          <note pan="0" key="85" len="24" vol="193" pos="72"/>
          <note pan="0" key="81" len="24" vol="193" pos="72"/>
          <note pan="0" key="78" len="24" vol="193" pos="72"/>
          <note pan="0" key="81" len="24" vol="193" pos="96"/>
          <note pan="0" key="78" len="24" vol="193" pos="96"/>
          <note pan="0" key="73" len="24" vol="193" pos="96"/>
          <note pan="0" key="78" len="24" vol="193" pos="120"/>
          <note pan="0" key="73" len="24" vol="193" pos="120"/>
          <note pan="0" key="69" len="24" vol="193" pos="120"/>
          <note pan="0" key="81" len="24" vol="193" pos="144"/>
          <note pan="0" key="78" len="24" vol="193" pos="144"/>
          <note pan="0" key="73" len="24" vol="193" pos="144"/>
          <note pan="0" key="78" len="24" vol="193" pos="168"/>
          <note pan="0" key="73" len="24" vol="193" pos="168"/>
          <note pan="0" key="69" len="24" vol="193" pos="168"/>
        </pattern>
        <pattern muted="0" type="1" pos="12288" steps="16" name="ZynAddSubFX">
          <note pan="0" key="69" len="384" vol="193" pos="0"/>
          <note pan="0" key="66" len="384" vol="193" pos="0"/>
          <note pan="0" key="61" len="384" vol="193" pos="0"/>
          <note pan="0" key="68" len="384" vol="193" pos="384"/>
          <note pan="0" key="64" len="384" vol="193" pos="384"/>
          <note pan="0" key="61" len="384" vol="193" pos="384"/>
        </pattern>
        <pattern muted="0" type="1" pos="13056" steps="16" name="ZynAddSubFX">
          <note pan="0" key="69" len="384" vol="193" pos="0"/>
          <note pan="0" key="66" len="384" vol="193" pos="0"/>
          <note pan="0" key="61" len="384" vol="193" pos="0"/>
          <note pan="0" key="68" len="384" vol="193" pos="384"/>
          <note pan="0" key="64" len="384" vol="193" pos="384"/>
          <note pan="0" key="61" len="384" vol="193" pos="384"/>
        </pattern>
        <pattern muted="0" type="1" pos="13824" steps="16" name="ZynAddSubFX">
          <note pan="0" key="69" len="384" vol="193" pos="0"/>
          <note pan="0" key="66" len="384" vol="193" pos="0"/>
          <note pan="0" key="66" len="384" vol="193" pos="384"/>
          <note pan="0" key="62" len="384" vol="193" pos="384"/>
        </pattern>
        <pattern muted="0" type="1" pos="14592" steps="16" name="ZynAddSubFX">
          <note pan="0" key="69" len="384" vol="193" pos="0"/>
          <note pan="0" key="66" len="384" vol="193" pos="0"/>
          <note pan="0" key="73" len="192" vol="193" pos="384"/>
          <note pan="0" key="69" len="192" vol="193" pos="384"/>
          <note pan="0" key="73" len="192" vol="193" pos="576"/>
          <note pan="0" key="65" len="192" vol="193" pos="576"/>
        </pattern>
        <pattern muted="0" type="1" pos="15360" steps="16" name="ZynAddSubFX">
          <note pan="0" key="69" len="24" vol="193" pos="0"/>
          <note pan="0" key="66" len="24" vol="193" pos="0"/>
          <note pan="0" key="66" len="24" vol="193" pos="24"/>
          <note pan="0" key="61" len="24" vol="193" pos="24"/>
          <note pan="0" key="73" len="24" vol="193" pos="48"/>
          <note pan="0" key="69" len="24" vol="193" pos="48"/>
          <note pan="0" key="66" len="24" vol="193" pos="72"/>
          <note pan="0" key="61" len="24" vol="193" pos="72"/>
          <note pan="0" key="69" len="24" vol="193" pos="96"/>
          <note pan="0" key="66" len="24" vol="193" pos="96"/>
          <note pan="0" key="66" len="24" vol="193" pos="120"/>
          <note pan="0" key="61" len="24" vol="193" pos="120"/>
          <note pan="0" key="61" len="24" vol="193" pos="144"/>
          <note pan="0" key="57" len="24" vol="193" pos="144"/>
          <note pan="0" key="66" len="24" vol="193" pos="168"/>
          <note pan="0" key="61" len="24" vol="193" pos="168"/>
          <note pan="0" key="69" len="24" vol="193" pos="192"/>
          <note pan="0" key="66" len="24" vol="193" pos="192"/>
          <note pan="0" key="66" len="24" vol="193" pos="216"/>
          <note pan="0" key="61" len="24" vol="193" pos="216"/>
          <note pan="0" key="73" len="24" vol="193" pos="240"/>
          <note pan="0" key="69" len="24" vol="193" pos="240"/>
          <note pan="0" key="66" len="24" vol="193" pos="264"/>
          <note pan="0" key="61" len="24" vol="193" pos="264"/>
          <note pan="0" key="69" len="24" vol="193" pos="288"/>
          <note pan="0" key="66" len="24" vol="193" pos="288"/>
          <note pan="0" key="66" len="24" vol="193" pos="312"/>
          <note pan="0" key="61" len="24" vol="193" pos="312"/>
          <note pan="0" key="61" len="24" vol="193" pos="336"/>
          <note pan="0" key="57" len="24" vol="193" pos="336"/>
          <note pan="0" key="66" len="24" vol="193" pos="360"/>
          <note pan="0" key="61" len="24" vol="193" pos="360"/>
          <note pan="0" key="74" len="24" vol="193" pos="384"/>
          <note pan="0" key="71" len="24" vol="193" pos="384"/>
          <note pan="0" key="71" len="24" vol="193" pos="408"/>
          <note pan="0" key="66" len="24" vol="193" pos="408"/>
          <note pan="0" key="78" len="24" vol="193" pos="432"/>
          <note pan="0" key="74" len="24" vol="193" pos="432"/>
          <note pan="0" key="71" len="24" vol="193" pos="456"/>
          <note pan="0" key="66" len="24" vol="193" pos="456"/>
          <note pan="0" key="74" len="24" vol="193" pos="480"/>
          <note pan="0" key="71" len="24" vol="193" pos="480"/>
          <note pan="0" key="71" len="24" vol="193" pos="504"/>
          <note pan="0" key="66" len="24" vol="193" pos="504"/>
          <note pan="0" key="66" len="24" vol="193" pos="528"/>
          <note pan="0" key="62" len="24" vol="193" pos="528"/>
          <note pan="0" key="71" len="24" vol="193" pos="552"/>
          <note pan="0" key="66" len="24" vol="193" pos="552"/>
          <note pan="0" key="74" len="24" vol="193" pos="576"/>
          <note pan="0" key="71" len="24" vol="193" pos="576"/>
          <note pan="0" key="71" len="24" vol="193" pos="600"/>
          <note pan="0" key="66" len="24" vol="193" pos="600"/>
          <note pan="0" key="78" len="24" vol="193" pos="624"/>
          <note pan="0" key="74" len="24" vol="193" pos="624"/>
          <note pan="0" key="71" len="24" vol="193" pos="648"/>
          <note pan="0" key="66" len="24" vol="193" pos="648"/>
          <note pan="0" key="74" len="24" vol="193" pos="672"/>
          <note pan="0" key="71" len="24" vol="193" pos="672"/>
          <note pan="0" key="71" len="24" vol="193" pos="696"/>
          <note pan="0" key="66" len="24" vol="193" pos="696"/>
          <note pan="0" key="66" len="24" vol="193" pos="720"/>
          <note pan="0" key="62" len="24" vol="193" pos="720"/>
          <note pan="0" key="71" len="24" vol="193" pos="744"/>
          <note pan="0" key="66" len="24" vol="193" pos="744"/>
        </pattern>
        <pattern muted="0" type="1" pos="16128" steps="16" name="ZynAddSubFX">
          <note pan="0" key="73" len="24" vol="193" pos="0"/>
          <note pan="0" key="69" len="24" vol="193" pos="0"/>
          <note pan="0" key="69" len="24" vol="193" pos="24"/>
          <note pan="0" key="64" len="24" vol="193" pos="24"/>
          <note pan="0" key="69" len="24" vol="193" pos="48"/>
          <note pan="0" key="64" len="24" vol="193" pos="48"/>
          <note pan="0" key="73" len="24" vol="193" pos="72"/>
          <note pan="0" key="69" len="24" vol="193" pos="72"/>
          <note pan="0" key="76" len="24" vol="193" pos="96"/>
          <note pan="0" key="73" len="24" vol="193" pos="96"/>
          <note pan="0" key="73" len="24" vol="193" pos="120"/>
          <note pan="0" key="69" len="24" vol="193" pos="120"/>
          <note pan="0" key="69" len="24" vol="193" pos="144"/>
          <note pan="0" key="64" len="24" vol="193" pos="144"/>
          <note pan="0" key="73" len="24" vol="193" pos="168"/>
          <note pan="0" key="69" len="24" vol="193" pos="168"/>
        </pattern>
        <pattern muted="0" type="1" pos="16320" steps="16" name="ZynAddSubFX">
          <note pan="0" key="73" len="24" vol="193" pos="0"/>
          <note pan="0" key="68" len="24" vol="193" pos="0"/>
          <note pan="0" key="68" len="24" vol="193" pos="24"/>
          <note pan="0" key="65" len="24" vol="193" pos="24"/>
          <note pan="0" key="68" len="24" vol="193" pos="48"/>
          <note pan="0" key="65" len="24" vol="193" pos="48"/>
          <note pan="0" key="73" len="24" vol="193" pos="72"/>
          <note pan="0" key="68" len="24" vol="193" pos="72"/>
          <note pan="0" key="77" len="24" vol="193" pos="96"/>
          <note pan="0" key="73" len="24" vol="193" pos="96"/>
          <note pan="0" key="73" len="24" vol="193" pos="120"/>
          <note pan="0" key="68" len="24" vol="193" pos="120"/>
          <note pan="0" key="77" len="24" vol="193" pos="144"/>
          <note pan="0" key="68" len="24" vol="193" pos="144"/>
          <note pan="0" key="73" len="24" vol="193" pos="168"/>
          <note pan="0" key="68" len="24" vol="193" pos="168"/>
        </pattern>
        <pattern muted="0" type="1" pos="16512" steps="16" name="ZynAddSubFX">
          <note pan="0" key="81" len="24" vol="193" pos="0"/>
          <note pan="0" key="78" len="24" vol="193" pos="0"/>
          <note pan="0" key="73" len="24" vol="193" pos="0"/>
          <note pan="0" key="78" len="24" vol="193" pos="24"/>
          <note pan="0" key="73" len="24" vol="193" pos="24"/>
          <note pan="0" key="69" len="24" vol="193" pos="24"/>
          <note pan="0" key="78" len="24" vol="193" pos="48"/>
          <note pan="0" key="73" len="24" vol="193" pos="48"/>
          <note pan="0" key="69" len="24" vol="193" pos="48"/>
          <note pan="0" key="85" len="24" vol="193" pos="72"/>
          <note pan="0" key="81" len="24" vol="193" pos="72"/>
          <note pan="0" key="78" len="24" vol="193" pos="72"/>
          <note pan="0" key="81" len="24" vol="193" pos="96"/>
          <note pan="0" key="78" len="24" vol="193" pos="96"/>
          <note pan="0" key="73" len="24" vol="193" pos="96"/>
          <note pan="0" key="78" len="24" vol="193" pos="120"/>
          <note pan="0" key="73" len="24" vol="193" pos="120"/>
          <note pan="0" key="69" len="24" vol="193" pos="120"/>
          <note pan="0" key="81" len="24" vol="193" pos="144"/>
          <note pan="0" key="78" len="24" vol="193" pos="144"/>
          <note pan="0" key="73" len="24" vol="193" pos="144"/>
          <note pan="0" key="78" len="24" vol="193" pos="168"/>
          <note pan="0" key="73" len="24" vol="193" pos="168"/>
          <note pan="0" key="69" len="24" vol="193" pos="168"/>
        </pattern>
        <pattern muted="0" type="1" pos="16704" steps="16" name="ZynAddSubFX">
          <note pan="0" key="81" len="24" vol="193" pos="0"/>
          <note pan="0" key="78" len="24" vol="193" pos="0"/>
          <note pan="0" key="73" len="24" vol="193" pos="0"/>
          <note pan="0" key="85" len="24" vol="193" pos="72"/>
          <note pan="0" key="81" len="24" vol="193" pos="72"/>
          <note pan="0" key="78" len="24" vol="193" pos="72"/>
        </pattern>
        <pattern muted="0" type="1" pos="16896" steps="16" name="ZynAddSubFX">
          <note pan="0" key="74" len="24" vol="193" pos="0"/>
          <note pan="0" key="71" len="24" vol="193" pos="0"/>
          <note pan="0" key="66" len="24" vol="193" pos="0"/>
          <note pan="0" key="78" len="24" vol="193" pos="48"/>
          <note pan="0" key="74" len="24" vol="193" pos="48"/>
          <note pan="0" key="69" len="24" vol="193" pos="48"/>
          <note pan="0" key="74" len="24" vol="193" pos="96"/>
          <note pan="0" key="71" len="24" vol="193" pos="96"/>
          <note pan="0" key="66" len="24" vol="193" pos="96"/>
          <note pan="0" key="71" len="24" vol="193" pos="144"/>
          <note pan="0" key="66" len="24" vol="193" pos="144"/>
          <note pan="0" key="62" len="24" vol="193" pos="144"/>
          <note pan="0" key="71" len="24" vol="193" pos="192"/>
          <note pan="0" key="68" len="24" vol="193" pos="192"/>
          <note pan="0" key="64" len="24" vol="193" pos="192"/>
          <note pan="0" key="78" len="24" vol="193" pos="240"/>
          <note pan="0" key="74" len="24" vol="193" pos="240"/>
          <note pan="0" key="71" len="24" vol="193" pos="240"/>
          <note pan="0" key="76" len="24" vol="193" pos="288"/>
          <note pan="0" key="71" len="24" vol="193" pos="288"/>
          <note pan="0" key="68" len="24" vol="193" pos="288"/>
          <note pan="0" key="71" len="24" vol="193" pos="336"/>
          <note pan="0" key="68" len="24" vol="193" pos="336"/>
          <note pan="0" key="64" len="24" vol="193" pos="336"/>
          <note pan="0" key="73" len="24" vol="193" pos="384"/>
          <note pan="0" key="69" len="24" vol="193" pos="384"/>
          <note pan="0" key="64" len="24" vol="193" pos="384"/>
          <note pan="0" key="74" len="24" vol="193" pos="432"/>
          <note pan="0" key="69" len="24" vol="193" pos="432"/>
          <note pan="0" key="66" len="24" vol="193" pos="432"/>
          <note pan="0" key="73" len="24" vol="193" pos="480"/>
          <note pan="0" key="69" len="24" vol="193" pos="480"/>
          <note pan="0" key="64" len="24" vol="193" pos="480"/>
          <note pan="0" key="69" len="24" vol="193" pos="528"/>
          <note pan="0" key="64" len="24" vol="193" pos="528"/>
          <note pan="0" key="61" len="24" vol="193" pos="528"/>
          <note pan="0" key="66" len="24" vol="193" pos="576"/>
          <note pan="0" key="62" len="24" vol="193" pos="576"/>
          <note pan="0" key="57" len="24" vol="193" pos="576"/>
          <note pan="0" key="76" len="24" vol="193" pos="624"/>
          <note pan="0" key="71" len="24" vol="193" pos="624"/>
          <note pan="0" key="66" len="24" vol="193" pos="624"/>
          <note pan="0" key="74" len="24" vol="193" pos="672"/>
          <note pan="0" key="69" len="24" vol="193" pos="672"/>
          <note pan="0" key="66" len="24" vol="193" pos="672"/>
          <note pan="0" key="69" len="24" vol="193" pos="720"/>
          <note pan="0" key="66" len="24" vol="193" pos="720"/>
          <note pan="0" key="62" len="24" vol="193" pos="720"/>
          <note pan="0" key="71" len="48" vol="193" pos="768"/>
          <note pan="0" key="68" len="48" vol="193" pos="768"/>
          <note pan="0" key="64" len="48" vol="193" pos="768"/>
          <note pan="0" key="74" len="48" vol="193" pos="816"/>
          <note pan="0" key="71" len="48" vol="193" pos="816"/>
          <note pan="0" key="68" len="48" vol="193" pos="816"/>
          <note pan="0" key="71" len="48" vol="193" pos="864"/>
          <note pan="0" key="68" len="48" vol="193" pos="864"/>
          <note pan="0" key="65" len="48" vol="193" pos="864"/>
          <note pan="0" key="68" len="48" vol="193" pos="912"/>
          <note pan="0" key="65" len="48" vol="193" pos="912"/>
          <note pan="0" key="61" len="48" vol="193" pos="912"/>
          <note pan="0" key="73" len="24" vol="193" pos="960"/>
          <note pan="0" key="68" len="24" vol="193" pos="960"/>
          <note pan="0" key="65" len="24" vol="193" pos="960"/>
          <note pan="0" key="68" len="24" vol="193" pos="984"/>
          <note pan="0" key="65" len="24" vol="193" pos="984"/>
          <note pan="0" key="61" len="24" vol="193" pos="984"/>
          <note pan="0" key="73" len="24" vol="193" pos="1008"/>
          <note pan="0" key="68" len="24" vol="193" pos="1008"/>
          <note pan="0" key="65" len="24" vol="193" pos="1008"/>
          <note pan="0" key="73" len="24" vol="193" pos="1032"/>
          <note pan="0" key="69" len="24" vol="193" pos="1032"/>
          <note pan="0" key="66" len="24" vol="193" pos="1032"/>
          <note pan="0" key="77" len="24" vol="193" pos="1056"/>
          <note pan="0" key="71" len="24" vol="193" pos="1056"/>
          <note pan="0" key="68" len="24" vol="193" pos="1056"/>
          <note pan="0" key="73" len="24" vol="193" pos="1080"/>
          <note pan="0" key="69" len="24" vol="193" pos="1080"/>
          <note pan="0" key="66" len="24" vol="193" pos="1080"/>
          <note pan="0" key="73" len="24" vol="193" pos="1104"/>
          <note pan="0" key="68" len="24" vol="193" pos="1104"/>
          <note pan="0" key="65" len="24" vol="193" pos="1104"/>
          <note pan="0" key="68" len="24" vol="193" pos="1128"/>
          <note pan="0" key="65" len="24" vol="193" pos="1128"/>
          <note pan="0" key="61" len="24" vol="193" pos="1128"/>
        </pattern>
        <pattern muted="0" type="1" pos="18432" steps="16" name="ZynAddSubFX">
          <note pan="0" key="74" len="48" vol="193" pos="0"/>
          <note pan="0" key="71" len="48" vol="193" pos="0"/>
          <note pan="0" key="66" len="48" vol="193" pos="0"/>
          <note pan="0" key="78" len="48" vol="193" pos="48"/>
          <note pan="0" key="74" len="48" vol="193" pos="48"/>
          <note pan="0" key="69" len="48" vol="193" pos="48"/>
          <note pan="0" key="74" len="48" vol="193" pos="96"/>
          <note pan="0" key="71" len="48" vol="193" pos="96"/>
          <note pan="0" key="66" len="48" vol="193" pos="96"/>
          <note pan="0" key="71" len="48" vol="193" pos="144"/>
          <note pan="0" key="66" len="48" vol="193" pos="144"/>
          <note pan="0" key="62" len="48" vol="193" pos="144"/>
          <note pan="0" key="71" len="48" vol="193" pos="192"/>
          <note pan="0" key="68" len="48" vol="193" pos="192"/>
          <note pan="0" key="64" len="48" vol="193" pos="192"/>
          <note pan="0" key="78" len="48" vol="193" pos="240"/>
          <note pan="0" key="74" len="48" vol="193" pos="240"/>
          <note pan="0" key="71" len="48" vol="193" pos="240"/>
          <note pan="0" key="76" len="48" vol="193" pos="288"/>
          <note pan="0" key="71" len="48" vol="193" pos="288"/>
          <note pan="0" key="68" len="48" vol="193" pos="288"/>
          <note pan="0" key="71" len="48" vol="193" pos="336"/>
          <note pan="0" key="68" len="48" vol="193" pos="336"/>
          <note pan="0" key="64" len="48" vol="193" pos="336"/>
          <note pan="0" key="73" len="48" vol="193" pos="384"/>
          <note pan="0" key="69" len="48" vol="193" pos="384"/>
          <note pan="0" key="64" len="48" vol="193" pos="384"/>
          <note pan="0" key="74" len="48" vol="193" pos="432"/>
          <note pan="0" key="69" len="48" vol="193" pos="432"/>
          <note pan="0" key="66" len="48" vol="193" pos="432"/>
          <note pan="0" key="73" len="48" vol="193" pos="480"/>
          <note pan="0" key="69" len="48" vol="193" pos="480"/>
          <note pan="0" key="64" len="48" vol="193" pos="480"/>
          <note pan="0" key="69" len="48" vol="193" pos="528"/>
          <note pan="0" key="64" len="48" vol="193" pos="528"/>
          <note pan="0" key="61" len="48" vol="193" pos="528"/>
          <note pan="0" key="69" len="48" vol="193" pos="576"/>
          <note pan="0" key="66" len="48" vol="193" pos="576"/>
          <note pan="0" key="62" len="48" vol="193" pos="576"/>
          <note pan="0" key="76" len="48" vol="193" pos="624"/>
          <note pan="0" key="71" len="48" vol="193" pos="624"/>
          <note pan="0" key="66" len="48" vol="193" pos="624"/>
          <note pan="0" key="78" len="48" vol="193" pos="672"/>
          <note pan="0" key="74" len="48" vol="193" pos="672"/>
          <note pan="0" key="69" len="48" vol="193" pos="672"/>
          <note pan="0" key="81" len="48" vol="193" pos="720"/>
          <note pan="0" key="78" len="48" vol="193" pos="720"/>
          <note pan="0" key="74" len="48" vol="193" pos="720"/>
          <note pan="0" key="74" len="192" vol="193" pos="768"/>
          <note pan="0" key="71" len="192" vol="193" pos="768"/>
          <note pan="0" key="66" len="192" vol="193" pos="768"/>
          <note pan="0" key="75" len="192" vol="193" pos="960"/>
          <note pan="0" key="72" len="192" vol="193" pos="960"/>
          <note pan="0" key="66" len="192" vol="193" pos="960"/>
          <note pan="0" key="77" len="192" vol="193" pos="1152"/>
          <note pan="0" key="73" len="192" vol="193" pos="1152"/>
          <note pan="0" key="68" len="192" vol="193" pos="1152"/>
          <note pan="0" key="80" len="192" vol="193" pos="1344"/>
          <note pan="0" key="77" len="192" vol="193" pos="1344"/>
          <note pan="0" key="73" len="192" vol="193" pos="1344"/>
        </pattern>
        <pattern muted="0" type="1" pos="18048" steps="16" name="ZynAddSubFX">
          <note pan="0" key="73" len="24" vol="193" pos="0"/>
          <note pan="0" key="69" len="24" vol="193" pos="0"/>
          <note pan="0" key="66" len="24" vol="193" pos="0"/>
          <note pan="0" key="66" len="24" vol="193" pos="24"/>
          <note pan="0" key="61" len="24" vol="193" pos="24"/>
          <note pan="0" key="57" len="24" vol="193" pos="24"/>
          <note pan="0" key="69" len="24" vol="193" pos="48"/>
          <note pan="0" key="66" len="24" vol="193" pos="48"/>
          <note pan="0" key="61" len="24" vol="193" pos="48"/>
          <note pan="0" key="66" len="24" vol="193" pos="72"/>
          <note pan="0" key="61" len="24" vol="193" pos="72"/>
          <note pan="0" key="57" len="24" vol="193" pos="72"/>
          <note pan="0" key="73" len="24" vol="193" pos="96"/>
          <note pan="0" key="69" len="24" vol="193" pos="96"/>
          <note pan="0" key="66" len="24" vol="193" pos="96"/>
          <note pan="0" key="66" len="24" vol="193" pos="120"/>
          <note pan="0" key="61" len="24" vol="193" pos="120"/>
          <note pan="0" key="57" len="24" vol="193" pos="120"/>
          <note pan="0" key="69" len="24" vol="193" pos="144"/>
          <note pan="0" key="66" len="24" vol="193" pos="144"/>
          <note pan="0" key="61" len="24" vol="193" pos="144"/>
          <note pan="0" key="66" len="24" vol="193" pos="168"/>
          <note pan="0" key="61" len="24" vol="193" pos="168"/>
          <note pan="0" key="57" len="24" vol="193" pos="168"/>
        </pattern>
        <pattern muted="0" type="1" pos="18240" steps="16" name="ZynAddSubFX">
          <note pan="0" key="73" len="24" vol="193" pos="0"/>
          <note pan="0" key="69" len="24" vol="193" pos="0"/>
          <note pan="0" key="66" len="24" vol="193" pos="0"/>
          <note pan="0" key="66" len="24" vol="193" pos="24"/>
          <note pan="0" key="61" len="24" vol="193" pos="24"/>
          <note pan="0" key="57" len="24" vol="193" pos="24"/>
          <note pan="0" key="69" len="24" vol="193" pos="48"/>
          <note pan="0" key="66" len="24" vol="193" pos="48"/>
          <note pan="0" key="61" len="24" vol="193" pos="48"/>
          <note pan="0" key="66" len="24" vol="193" pos="72"/>
          <note pan="0" key="61" len="24" vol="193" pos="72"/>
          <note pan="0" key="57" len="24" vol="193" pos="72"/>
          <note pan="0" key="73" len="24" vol="193" pos="96"/>
          <note pan="0" key="69" len="24" vol="193" pos="96"/>
          <note pan="0" key="66" len="24" vol="193" pos="96"/>
          <note pan="0" key="66" len="24" vol="193" pos="120"/>
          <note pan="0" key="61" len="24" vol="193" pos="120"/>
          <note pan="0" key="57" len="24" vol="193" pos="120"/>
          <note pan="0" key="69" len="24" vol="193" pos="144"/>
          <note pan="0" key="66" len="24" vol="193" pos="144"/>
          <note pan="0" key="61" len="24" vol="193" pos="144"/>
          <note pan="0" key="66" len="24" vol="193" pos="168"/>
          <note pan="0" key="61" len="24" vol="193" pos="168"/>
          <note pan="0" key="57" len="24" vol="193" pos="168"/>
        </pattern>
        <pattern muted="0" type="1" pos="19968" steps="16" name="ZynAddSubFX">
          <note pan="0" key="56" len="96" vol="193" pos="0"/>
          <note pan="0" key="53" len="96" vol="193" pos="0"/>
          <note pan="0" key="49" len="96" vol="193" pos="0"/>
          <note pan="0" key="61" len="96" vol="193" pos="96"/>
          <note pan="0" key="56" len="96" vol="193" pos="96"/>
          <note pan="0" key="53" len="96" vol="193" pos="96"/>
          <note pan="0" key="65" len="96" vol="193" pos="192"/>
          <note pan="0" key="61" len="96" vol="193" pos="192"/>
          <note pan="0" key="56" len="96" vol="193" pos="192"/>
          <note pan="0" key="68" len="96" vol="193" pos="288"/>
          <note pan="0" key="65" len="96" vol="193" pos="288"/>
          <note pan="0" key="61" len="96" vol="193" pos="288"/>
        </pattern>
        <pattern muted="0" type="1" pos="20352" steps="16" name="ZynAddSubFX">
          <note pan="0" key="73" len="24" vol="193" pos="0"/>
          <note pan="0" key="68" len="24" vol="193" pos="0"/>
          <note pan="0" key="65" len="24" vol="193" pos="0"/>
          <note pan="0" key="68" len="24" vol="193" pos="24"/>
          <note pan="0" key="65" len="24" vol="193" pos="24"/>
          <note pan="0" key="61" len="24" vol="193" pos="24"/>
          <note pan="0" key="71" len="24" vol="193" pos="48"/>
          <note pan="0" key="68" len="24" vol="193" pos="48"/>
          <note pan="0" key="65" len="24" vol="193" pos="48"/>
          <note pan="0" key="68" len="24" vol="193" pos="72"/>
          <note pan="0" key="65" len="24" vol="193" pos="72"/>
          <note pan="0" key="59" len="24" vol="193" pos="72"/>
          <note pan="0" key="69" len="24" vol="193" pos="96"/>
          <note pan="0" key="66" len="24" vol="193" pos="96"/>
          <note pan="0" key="62" len="24" vol="193" pos="96"/>
          <note pan="0" key="66" len="24" vol="193" pos="120"/>
          <note pan="0" key="62" len="24" vol="193" pos="120"/>
          <note pan="0" key="57" len="24" vol="193" pos="120"/>
          <note pan="0" key="68" len="24" vol="193" pos="144"/>
          <note pan="0" key="65" len="24" vol="193" pos="144"/>
          <note pan="0" key="62" len="24" vol="193" pos="144"/>
          <note pan="0" key="65" len="24" vol="193" pos="168"/>
          <note pan="0" key="62" len="24" vol="193" pos="168"/>
          <note pan="0" key="56" len="24" vol="193" pos="168"/>
          <note pan="0" key="66" len="24" vol="193" pos="192"/>
          <note pan="0" key="62" len="24" vol="193" pos="192"/>
          <note pan="0" key="57" len="24" vol="193" pos="192"/>
          <note pan="0" key="62" len="24" vol="193" pos="216"/>
          <note pan="0" key="57" len="24" vol="193" pos="216"/>
          <note pan="0" key="54" len="24" vol="193" pos="216"/>
          <note pan="0" key="65" len="24" vol="193" pos="240"/>
          <note pan="0" key="61" len="24" vol="193" pos="240"/>
          <note pan="0" key="56" len="24" vol="193" pos="240"/>
          <note pan="0" key="61" len="24" vol="193" pos="264"/>
          <note pan="0" key="56" len="24" vol="193" pos="264"/>
          <note pan="0" key="53" len="24" vol="193" pos="264"/>
          <note pan="0" key="73" len="48" vol="193" pos="288"/>
          <note pan="0" key="68" len="48" vol="193" pos="288"/>
          <note pan="0" key="65" len="48" vol="193" pos="288"/>
        </pattern>
      </track>
      <track muted="0" type="0" solo="0" name="Blanchet-1720">
        <instrumenttrack basenote="57" fxch="0" pan="0" pitchrange="1" vol="100" pitch="0" usemasterpitch="1">
          <instrument name="sf2player">
            <sf2player bank="1" gain="2.92" chorusLevel="2" src="/home/pass/samples/soundfonts/Blanchet-1720.sf2" patch="1" chorusSpeed="0.3" chorusDepth="8" reverbLevel="0.9" reverbDamping="0" reverbOn="0" reverbRoomSize="0.2" chorusNum="3" reverbWidth="0.5" chorusOn="0"/>
          </instrument>
          <eldata ftype="0" fwet="0" fres="0.5" fcut="14000">
            <elvol sustain="0.5" amt="0" att="0" rel="0.1" ctlenvamt="0" lspd="0.1" lamt="0" hold="0.5" lshp="0" lspd_denominator="4" lpdel="0" latt="0" lspd_numerator="4" pdel="0" lspd_syncmode="0" userwavefile="" dec="0.5" x100="0"/>
            <elcut sustain="0.5" amt="0" att="0" rel="0.1" ctlenvamt="0" lspd="0.1" lamt="0" hold="0.5" lshp="0" lspd_denominator="4" lpdel="0" latt="0" lspd_numerator="4" pdel="0" lspd_syncmode="0" userwavefile="" dec="0.5" x100="0"/>
            <elres sustain="0.5" amt="0" att="0" rel="0.1" ctlenvamt="0" lspd="0.1" lamt="0" hold="0.5" lshp="0" lspd_denominator="4" lpdel="0" latt="0" lspd_numerator="4" pdel="0" lspd_syncmode="0" userwavefile="" dec="0.5" x100="0"/>
          </eldata>
          <chordcreator chord-enabled="0" chordrange="1" chord="0"/>
          <arpeggiator arptime="200" arptime_denominator="4" arpmiss="0" arpgate="100" arpdir="0" arprange="1" arpskip="0" arptime_numerator="4" arp="0" arptime_syncmode="0" arpcycle="0" arp-enabled="0" arpmode="0"/>
          <midiport fixedoutputvelocity="-1" inputcontroller="0" fixedinputvelocity="-1" outputchannel="1" readable="0" fixedoutputnote="-1" outputprogram="1" inputchannel="0" outputcontroller="0" basevelocity="63" writable="0"/>
          <fxchain numofeffects="0" enabled="0"/>
        </instrumenttrack>
        <pattern muted="0" type="0" pos="6144" steps="16" name="Blanchet-1720"/>
      </track>
      <track muted="0" type="2" solo="0" name="lgt">
        <sampletrack pan="0" vol="113.6">
          <fxchain numofeffects="2" enabled="1">
            <effect gate="0" on="1" autoquit_numerator="4" autoquit="1" autoquit_syncmode="0" wet="1" autoquit_denominator="4" name="eq">
              <Eq LP24="0" Peak3gain="0" Highshelfactive="0" AnalyseIn="1" Peak3active="0" HP12="1" Peak2gain="0" HP48="0" LP48="0" Peak4gain="0" Peak4active="0" HP24="0" Peak3bw="0.3" LPactive="0" LP="0" Peak1active="0" AnalyseOut="1" LPres="0.707" Lowshelfgain="0" Peak4bw="0.3" Outputgain="5.09" Peak2active="0" Lowshelfactive="0" HighShelfgain="0" LP12="1" HPres="0.707" HPactive="0" Peak2bw="0.3" HighShelfres="1.4" Peak1bw="0.3" HP="0" LowShelfres="1.4">
                <Inputgain scale_type="log" value="0" id="5591970"/>
                <Peak1gain scale_type="log" value="0" id="7648041"/>
                <HPfreq scale_type="log" value="31" id="1930457"/>
                <LowShelffreq scale_type="log" value="80" id="7690073"/>
                <Peak1freq scale_type="log" value="120" id="2218558"/>
                <Peak2freq scale_type="log" value="250" id="1819935"/>
                <Peak3freq scale_type="log" value="2000" id="7783720"/>
                <Peak4freq scale_type="log" value="4000" id="3357716"/>
                <Highshelffreq scale_type="log" value="12000" id="2748921"/>
                <LPfreq scale_type="log" value="18000" id="7024874"/>
              </Eq>
              <key/>
            </effect>
            <effect gate="0" on="1" autoquit_numerator="4" autoquit="1" autoquit_syncmode="0" wet="1" autoquit_denominator="4" name="ladspaeffect">
              <ladspacontrols link="0" ports="22">
                <port00 link="0" data="0"/>
                <port01 link="0" data="0"/>
                <port02 link="0" data="0"/>
                <port03 link="0" data="2"/>
                <port04 link="0" data_syncmode="0" data_denominator="4" data="0" data_numerator="4"/>
                <port05 link="0" data_syncmode="0" data_denominator="4" data="337.494" data_numerator="4"/>
                <port06 link="0" data="1"/>
                <port07 link="0" data="0"/>
                <port08 link="0" data="1"/>
                <port09 link="0" data="0"/>
                <port010 link="1" data="0.34125"/>
                <port10 data="0"/>
                <port11 data="0"/>
                <port12 data="0"/>
                <port13 data="2"/>
                <port14 data_syncmode="0" data_denominator="4" data="0" data_numerator="4"/>
                <port15 data_syncmode="0" data_denominator="4" data="667.489" data_numerator="4"/>
                <port16 data="1"/>
                <port17 data="0"/>
                <port18 data="1"/>
                <port19 data="0"/>
                <port110 data="0.34125"/>
              </ladspacontrols>
              <key>
                <attribute value="delayorama_1402" name="file"/>
                <attribute value="delayorama" name="plugin"/>
              </key>
            </effect>
          </fxchain>
        </sampletrack>
        <sampletco src="/home/pass/my_scripts/learningGuitar/idk1/lgt_bounce.wav" sample_rate="44100" len="21312" muted="0" pos="0"/>
      </track>
      <track muted="0" type="2" solo="0" name="rgt">
        <sampletrack pan="0" vol="149.6">
          <fxchain numofeffects="1" enabled="1">
            <effect gate="0" on="1" autoquit_numerator="4" autoquit="1" autoquit_syncmode="0" wet="1" autoquit_denominator="4" name="eq">
              <Eq LP24="0" Peak3gain="0" Highshelfactive="0" AnalyseIn="1" Peak3active="0" HP12="1" Peak2gain="0" HP48="0" LP48="0" Peak4gain="2.7" Peak4active="1" HP24="0" Peak3bw="0.3" LPactive="0" LP="0" Peak1active="0" AnalyseOut="1" LPres="0.707" Lowshelfgain="0" Peak4bw="1.77" Outputgain="0" Peak2active="0" Lowshelfactive="0" HighShelfgain="0" LP12="1" HPres="0.707" HPactive="1" Peak2bw="0.3" HighShelfres="1.4" Peak1bw="0.3" HP="0" LowShelfres="1.4">
                <Inputgain scale_type="log" value="0" id="6226044"/>
                <Peak1gain scale_type="log" value="0" id="3221496"/>
                <HPfreq scale_type="log" value="88.0431" id="7011174"/>
                <LowShelffreq scale_type="log" value="80" id="6577458"/>
                <Peak1freq scale_type="log" value="120" id="1789965"/>
                <Peak2freq scale_type="log" value="250" id="1824695"/>
                <Peak3freq scale_type="log" value="2000" id="2996785"/>
                <Peak4freq scale_type="log" value="2942.57" id="255064"/>
                <Highshelffreq scale_type="log" value="12000" id="7418019"/>
                <LPfreq scale_type="log" value="18000" id="3922266"/>
              </Eq>
              <key/>
            </effect>
          </fxchain>
        </sampletrack>
        <sampletco src="/home/pass/my_scripts/learningGuitar/idk1/rgt_bounce.wav" sample_rate="44100" len="21120" muted="0" pos="0"/>
      </track>
    </trackcontainer>
    <track muted="0" type="6" solo="0" name="Automation track">
      <automationtrack/>
      <automationpattern prog="0" len="192" pos="0" tens="1" mute="0" name="Numerator"/>
      <automationpattern prog="0" len="192" pos="0" tens="1" mute="0" name="Denominator"/>
      <automationpattern prog="0" len="192" pos="0" tens="1" mute="0" name="Tempo"/>
      <automationpattern prog="0" len="192" pos="0" tens="1" mute="0" name="Master volume"/>
      <automationpattern prog="0" len="192" pos="0" tens="1" mute="0" name="Master pitch"/>
    </track>
    <fxmixer height="333" minimized="0" visible="0" x="1" maximized="0" y="149" width="1260">
      <fxchannel soloed="0" muted="0" volume="0.954" num="0" name="Master">
        <fxchain numofeffects="0" enabled="0"/>
      </fxchannel>
      <fxchannel soloed="0" muted="0" volume="0.535" num="1" name="kick">
        <fxchain numofeffects="0" enabled="0"/>
        <send amount="1" channel="0"/>
        <send amount="0.512" channel="10"/>
      </fxchannel>
      <fxchannel soloed="0" muted="0" volume="0.28" num="2" name="hat">
        <fxchain numofeffects="0" enabled="0"/>
        <send amount="1" channel="0"/>
        <send amount="0.416" channel="10"/>
      </fxchannel>
      <fxchannel soloed="0" muted="0" volume="0.674" num="3" name="snare">
        <fxchain numofeffects="1" enabled="1">
          <effect gate="0" on="1" autoquit_numerator="4" autoquit="1" autoquit_syncmode="0" wet="1" autoquit_denominator="4" name="eq">
            <Eq LP24="0" Peak3gain="0" Highshelfactive="1" AnalyseIn="1" Peak3active="0" HP12="1" Peak2gain="0" HP48="0" LP48="0" Peak4gain="-0.718001" Peak4active="1" HP24="0" Peak3bw="0.3" LPactive="1" LP="0" Peak1active="0" AnalyseOut="1" LPres="0.707" Lowshelfgain="0" Peak4bw="0.3" Outputgain="0" Peak2active="0" Lowshelfactive="0" HighShelfgain="5.04" LP12="1" HPres="0.707" HPactive="0" Peak2bw="0.3" HighShelfres="1.435" Peak1bw="0.3" HP="0" LowShelfres="1.4">
              <Inputgain scale_type="log" value="0" id="6753652"/>
              <Peak1gain scale_type="log" value="0" id="8257704"/>
              <HPfreq scale_type="log" value="31" id="2234845"/>
              <LowShelffreq scale_type="log" value="80" id="5016811"/>
              <Peak1freq scale_type="log" value="120" id="5537746"/>
              <Peak2freq scale_type="log" value="250" id="6539813"/>
              <Peak3freq scale_type="log" value="2000" id="6999518"/>
              <Peak4freq scale_type="log" value="4000" id="770028"/>
              <Highshelffreq scale_type="log" value="2497.52" id="3686018"/>
              <LPfreq scale_type="log" value="13865.6" id="7588449"/>
            </Eq>
            <key/>
          </effect>
        </fxchain>
        <send amount="1" channel="0"/>
        <send amount="0.784" channel="10"/>
      </fxchannel>
      <fxchannel soloed="0" muted="0" volume="0.651" num="4" name="crash1">
        <fxchain numofeffects="0" enabled="0"/>
        <send amount="1" channel="0"/>
        <send amount="0.724" channel="10"/>
      </fxchannel>
      <fxchannel soloed="0" muted="0" volume="0.767" num="5" name="crash2">
        <fxchain numofeffects="0" enabled="0"/>
        <send amount="1" channel="0"/>
        <send amount="0.76" channel="10"/>
      </fxchannel>
      <fxchannel soloed="0" muted="0" volume="1" num="6" name="china">
        <fxchain numofeffects="0" enabled="0"/>
        <send amount="1" channel="0"/>
        <send amount="1" channel="10"/>
      </fxchannel>
      <fxchannel soloed="0" muted="0" volume="0.512" num="7" name="hitom">
        <fxchain numofeffects="0" enabled="0"/>
        <send amount="1" channel="0"/>
        <send amount="0.42" channel="10"/>
      </fxchannel>
      <fxchannel soloed="0" muted="0" volume="0.534" num="8" name="midtom">
        <fxchain numofeffects="0" enabled="0"/>
        <send amount="1" channel="0"/>
        <send amount="0.412" channel="10"/>
      </fxchannel>
      <fxchannel soloed="0" muted="0" volume="0.418" num="9" name="lotom">
        <fxchain numofeffects="0" enabled="0"/>
        <send amount="1" channel="0"/>
        <send amount="0.432" channel="10"/>
      </fxchannel>
      <fxchannel soloed="0" muted="0" volume="0.814" num="10" name="DRUM PLATE">
        <fxchain numofeffects="2" enabled="1">
          <effect gate="0" on="1" autoquit_numerator="4" autoquit="1" autoquit_syncmode="0" wet="1" autoquit_denominator="4" name="ladspaeffect">
            <ladspacontrols ports="4">
              <port02 data="0.76538"/>
              <port03 data="0.145119"/>
              <port04 data="0.0005"/>
              <port05 data="1"/>
            </ladspacontrols>
            <key>
              <attribute value="caps" name="file"/>
              <attribute value="Plate2x2" name="plugin"/>
            </key>
          </effect>
          <effect gate="0" on="1" autoquit_numerator="4" autoquit="1" autoquit_syncmode="0" wet="1" autoquit_denominator="4" name="eq">
            <Eq LP24="0" Peak3gain="0" Highshelfactive="1" AnalyseIn="1" Peak3active="0" HP12="1" Peak2gain="0" HP48="0" LP48="0" Peak4gain="0.36" Peak4active="1" HP24="0" Peak3bw="0.3" LPactive="0" LP="0" Peak1active="0" AnalyseOut="1" LPres="0.707" Lowshelfgain="0" Peak4bw="0.3" Outputgain="0" Peak2active="0" Lowshelfactive="0" HighShelfgain="1.62" LP12="1" HPres="0.707" HPactive="1" Peak2bw="0.3" HighShelfres="1.4" Peak1bw="0.3" HP="0" LowShelfres="1.4">
              <Inputgain scale_type="log" value="0" id="217936"/>
              <Peak1gain scale_type="log" value="0" id="1412862"/>
              <HPfreq scale_type="log" value="175.669" id="7725025"/>
              <LowShelffreq scale_type="log" value="80" id="399642"/>
              <Peak1freq scale_type="log" value="120" id="3213708"/>
              <Peak2freq scale_type="log" value="250" id="1180890"/>
              <Peak3freq scale_type="log" value="2000" id="5654965"/>
              <Peak4freq scale_type="log" value="3592.47" id="757114"/>
              <Highshelffreq scale_type="log" value="610.728" id="3326661"/>
              <LPfreq scale_type="log" value="18000" id="825391"/>
            </Eq>
            <key/>
          </effect>
        </fxchain>
        <send amount="1" channel="0"/>
      </fxchannel>
      <fxchannel soloed="0" muted="0" volume="0.331" num="11" name="rhythm guitar">
        <fxchain numofeffects="4" enabled="1">
          <effect gate="0" on="1" autoquit_numerator="4" autoquit="1" autoquit_syncmode="0" wet="1" autoquit_denominator="4" name="eq">
            <Eq LP24="0" Peak3gain="11.52" Highshelfactive="0" AnalyseIn="1" Peak3active="1" HP12="1" Peak2gain="-0.36" HP48="0" LP48="0" Peak4gain="0" Peak4active="0" HP24="0" Peak3bw="1.077" LPactive="0" LP="0" Peak1active="0" AnalyseOut="1" LPres="0.707" Lowshelfgain="-10.425" Peak4bw="0.3" Outputgain="0" Peak2active="1" Lowshelfactive="1" HighShelfgain="0" LP12="1" HPres="0.707" HPactive="1" Peak2bw="0.3" HighShelfres="1.4" Peak1bw="0.3" HP="0" LowShelfres="0.716">
              <Inputgain scale_type="log" value="0" id="2214616"/>
              <Peak1gain scale_type="log" value="0" id="8008574"/>
              <HPfreq scale_type="log" value="20" id="3965735"/>
              <LowShelffreq scale_type="log" value="297.157" id="111881"/>
              <Peak1freq scale_type="log" value="120" id="2695568"/>
              <Peak2freq scale_type="log" value="274.12" id="6906443"/>
              <Peak3freq scale_type="log" value="1108.17" id="6973747"/>
              <Peak4freq scale_type="log" value="4000" id="6598814"/>
              <Highshelffreq scale_type="log" value="12000" id="2892502"/>
              <LPfreq scale_type="log" value="18000" id="8281859"/>
            </Eq>
            <key/>
          </effect>
          <effect gate="0" on="1" autoquit_numerator="4" autoquit="1" autoquit_syncmode="0" wet="1" autoquit_denominator="4" name="ladspaeffect">
            <ladspacontrols link="1" ports="2">
              <port01 link="1" data="72"/>
              <port11 data="72"/>
            </ladspacontrols>
            <key>
              <attribute value="caps" name="file"/>
              <attribute value="Clip" name="plugin"/>
            </key>
          </effect>
          <effect gate="0" on="1" autoquit_numerator="4" autoquit="1" autoquit_syncmode="0" wet="1" autoquit_denominator="4" name="ladspaeffect">
            <ladspacontrols link="1" ports="4">
              <port01 link="1" data="5"/>
              <port02 link="1" data="0"/>
              <port11 data="5"/>
              <port12 data="0"/>
            </ladspacontrols>
            <key>
              <attribute value="caps" name="file"/>
              <attribute value="CabinetI" name="plugin"/>
            </key>
          </effect>
          <effect gate="0" on="1" autoquit_numerator="4" autoquit="1" autoquit_syncmode="0" wet="1" autoquit_denominator="4" name="ladspaeffect">
            <ladspacontrols ports="31">
              <port04 data="0"/>
              <port05 data="1"/>
              <port06 data="1"/>
              <port015 data="1"/>
              <port016>
                <data scale_type="log" value="72.4687" id="3863622"/>
              </port016>
              <port017 data="1"/>
              <port018 data="1"/>
              <port019>
                <data scale_type="log" value="8170.91" id="4005330"/>
              </port019>
              <port020 data="1"/>
              <port021 data="0"/>
              <port022 data="1"/>
              <port023>
                <data scale_type="log" value="447.214" id="41574"/>
              </port023>
              <port024 data="0"/>
              <port025 data="1"/>
              <port026>
                <data scale_type="log" value="2990.7" id="7836918"/>
              </port026>
              <port027 data="0"/>
              <port028 data="1"/>
              <port029>
                <data scale_type="log" value="447.214" id="2429363"/>
              </port029>
              <port030>
                <data scale_type="log" value="1" id="1646137"/>
              </port030>
              <port031 data="1"/>
              <port032 data="0.415527"/>
              <port033>
                <data scale_type="log" value="874.561" id="7249335"/>
              </port033>
              <port034>
                <data scale_type="log" value="1.42357" id="6950726"/>
              </port034>
              <port035 data="0"/>
              <port036 data="1"/>
              <port037>
                <data scale_type="log" value="2990.7" id="7188483"/>
              </port037>
              <port038>
                <data scale_type="log" value="1" id="4403266"/>
              </port038>
              <port039 data="0"/>
              <port040 data="1"/>
              <port041>
                <data scale_type="log" value="2990.7" id="3127968"/>
              </port041>
              <port042>
                <data scale_type="log" value="1" id="3252933"/>
              </port042>
            </ladspacontrols>
            <key>
              <attribute value="calf" name="file"/>
              <attribute value="Equalizer8Band" name="plugin"/>
            </key>
          </effect>
        </fxchain>
        <send amount="1" channel="0"/>
      </fxchannel>
      <fxchannel soloed="0" muted="0" volume="0.289001" num="12" name="lgt">
        <fxchain numofeffects="3" enabled="1">
          <effect gate="0" on="1" autoquit_numerator="4" autoquit="1" autoquit_syncmode="0" wet="1" autoquit_denominator="4" name="ladspaeffect">
            <ladspacontrols link="1" ports="2">
              <port01 link="1" data="72"/>
              <port11 data="72"/>
            </ladspacontrols>
            <key>
              <attribute value="caps" name="file"/>
              <attribute value="Clip" name="plugin"/>
            </key>
          </effect>
          <effect gate="0" on="1" autoquit_numerator="4" autoquit="1" autoquit_syncmode="0" wet="1" autoquit_denominator="4" name="ladspaeffect">
            <ladspacontrols link="1" ports="4">
              <port01 link="1" data="5"/>
              <port02 link="1" data="0"/>
              <port11 data="5"/>
              <port12 data="0"/>
            </ladspacontrols>
            <key>
              <attribute value="caps" name="file"/>
              <attribute value="CabinetI" name="plugin"/>
            </key>
          </effect>
          <effect gate="0" on="0" autoquit_numerator="4" autoquit="1" autoquit_syncmode="0" wet="1" autoquit_denominator="4" name="ladspaeffect">
            <ladspacontrols ports="1">
              <port02 data="0.69875"/>
            </ladspacontrols>
            <key>
              <attribute value="caps" name="file"/>
              <attribute value="Narrower" name="plugin"/>
            </key>
          </effect>
        </fxchain>
        <send amount="1" channel="0"/>
        <send amount="0.424" channel="13"/>
      </fxchannel>
      <fxchannel soloed="0" muted="0" volume="0.535" num="13" name="gt-delay">
        <fxchain numofeffects="1" enabled="1">
          <effect gate="0" on="1" autoquit_numerator="4" autoquit="1" autoquit_syncmode="0" wet="1" autoquit_denominator="4" name="ladspaeffect">
            <ladspacontrols link="0" ports="4">
              <port00 link="0" data_syncmode="0" data_denominator="4" data="112.5" data_numerator="4"/>
              <port01 link="0" data_syncmode="0" data_denominator="4" data="0" data_numerator="4"/>
              <port10 data_syncmode="0" data_denominator="4" data="301.25" data_numerator="4"/>
              <port11 data_syncmode="0" data_denominator="4" data="0" data_numerator="4"/>
            </ladspacontrols>
            <key>
              <attribute value="mod_delay_1419" name="file"/>
              <attribute value="modDelay" name="plugin"/>
            </key>
          </effect>
        </fxchain>
        <send amount="1" channel="0"/>
      </fxchannel>
      <fxchannel soloed="0" muted="0" volume="0.442" num="14" name="bass">
        <fxchain numofeffects="1" enabled="1">
          <effect gate="0" on="0" autoquit_numerator="4" autoquit="1" autoquit_syncmode="0" wet="1" autoquit_denominator="4" name="eq">
            <Eq LP24="0" Peak3gain="18" Highshelfactive="0" AnalyseIn="1" Peak3active="1" HP12="1" Peak2gain="18" HP48="0" LP48="0" Peak4gain="5.76" Peak4active="1" HP24="0" Peak3bw="1.828" LPactive="0" LP="0" Peak1active="0" AnalyseOut="1" LPres="0.707" Lowshelfgain="-6.477" Peak4bw="0.811" Outputgain="8" Peak2active="1" Lowshelfactive="1" HighShelfgain="0" LP12="1" HPres="0.707" HPactive="0" Peak2bw="2.866" HighShelfres="1.4" Peak1bw="0.3" HP="0" LowShelfres="1.21">
              <Inputgain scale_type="log" value="0" id="1928132"/>
              <Peak1gain scale_type="log" value="0" id="5028906"/>
              <HPfreq scale_type="log" value="24.795" id="6101787"/>
              <LowShelffreq scale_type="log" value="179.84" id="5056230"/>
              <Peak1freq scale_type="log" value="120" id="3218393"/>
              <Peak2freq scale_type="log" value="8057.72" id="4083145"/>
              <Peak3freq scale_type="log" value="4557.45" id="4897974"/>
              <Peak4freq scale_type="log" value="4000" id="5404987"/>
              <Highshelffreq scale_type="log" value="12000" id="3053663"/>
              <LPfreq scale_type="log" value="18000" id="1445410"/>
            </Eq>
            <key/>
          </effect>
        </fxchain>
        <send amount="1" channel="0"/>
      </fxchannel>
      <fxchannel soloed="0" muted="0" volume="0.698" num="15" name="synthStrings">
        <fxchain numofeffects="0" enabled="0"/>
        <send amount="1" channel="0"/>
      </fxchannel>
      <fxchannel soloed="0" muted="0" volume="1" num="16" name="FX 16">
        <fxchain numofeffects="0" enabled="0"/>
        <send amount="1" channel="0"/>
      </fxchannel>
      <fxchannel soloed="0" muted="0" volume="1" num="17" name="FX 17">
        <fxchain numofeffects="0" enabled="0"/>
        <send amount="1" channel="0"/>
      </fxchannel>
      <fxchannel soloed="0" muted="0" volume="1" num="18" name="FX 18">
        <fxchain numofeffects="0" enabled="0"/>
        <send amount="1" channel="0"/>
      </fxchannel>
      <fxchannel soloed="0" muted="0" volume="1" num="19" name="FX 19">
        <fxchain numofeffects="0" enabled="0"/>
        <send amount="1" channel="0"/>
      </fxchannel>
      <fxchannel soloed="0" muted="0" volume="1" num="20" name="FX 20">
        <fxchain numofeffects="0" enabled="0"/>
        <send amount="1" channel="0"/>
      </fxchannel>
      <fxchannel soloed="0" muted="0" volume="1" num="21" name="FX 21">
        <fxchain numofeffects="0" enabled="0"/>
        <send amount="1" channel="0"/>
      </fxchannel>
      <fxchannel soloed="0" muted="0" volume="1" num="22" name="FX 22">
        <fxchain numofeffects="0" enabled="0"/>
        <send amount="1" channel="0"/>
      </fxchannel>
      <fxchannel soloed="0" muted="0" volume="1" num="23" name="FX 23">
        <fxchain numofeffects="0" enabled="0"/>
        <send amount="1" channel="0"/>
      </fxchannel>
    </fxmixer>
    <ControllerRackView height="200" minimized="0" visible="0" x="680" maximized="0" y="282" width="350"/>
    <pianoroll height="480" minimized="0" visible="0" x="172" maximized="1" y="20" width="860"/>
    <automationeditor height="400" minimized="0" visible="0" x="395" maximized="0" y="78" width="860"/>
    <projectnotes height="400" minimized="0" visible="0" x="700" maximized="0" y="1" width="692"><![CDATA[<!DOCTYPE HTML PUBLIC "-//W3C//DTD HTML 4.0//EN" "http://www.w3.org/TR/REC-html40/strict.dtd">
<html><head><meta name="qrichtext" content="1" /><style type="text/css">
p, li { white-space: pre-wrap; }
</style></head><body style=" font-family:'Sans Serif'; font-size:9pt; font-weight:400; font-style:normal;">
<p style="-qt-paragraph-type:empty; margin-top:0px; margin-bottom:0px; margin-left:0px; margin-right:0px; -qt-block-indent:0; text-indent:0px; font-family:'Ubuntu'; font-size:10pt;"><br /></p></body></html>]]></projectnotes>
    <timeline lp0pos="0" lp1pos="9600" lpstate="0"/>
    <controllers/>
  </song>
</lmms-project>
