<?xml version="1.0"?>
<!DOCTYPE lmms-project>
<lmms-project creator="LMMS" creatorversion="1.2.2" version="1.0" type="song">
  <head timesig_denominator="4" bpm="200" timesig_numerator="4" masterpitch="0" mastervol="60"/>
  <song>
    <trackcontainer x="36" y="78" width="600" height="531" maximized="1" minimized="0" type="song" visible="1">
      <track solo="0" muted="0" name="intro1" type="1">
        <bbtrack>
          <trackcontainer x="100" y="203" width="1034" height="378" maximized="0" minimized="0" type="bbtrackcontainer" visible="0">
            <track solo="0" muted="0" name="kick.wav" type="0">
              <instrumenttrack pan="0" usemasterpitch="1" vol="100" pitchrange="1" fxch="1" pitch="0" basenote="57">
                <instrument name="audiofileprocessor">
                  <audiofileprocessor looped="0" reversed="0" lframe="0" stutter="0" sframe="0" interp="0" src="/home/pass/samples/sillydrums/kick.wav" eframe="1" amp="100"/>
                </instrument>
                <eldata fres="0.5" ftype="0" fcut="14000" fwet="0">
                  <elvol lspd="0.1" latt="0" lspd_syncmode="0" lspd_numerator="4" dec="2" lshp="0" lspd_denominator="4" rel="2" amt="1" userwavefile="" lamt="0" att="0" sustain="1" pdel="0" ctlenvamt="0" x100="0" lpdel="0" hold="2"/>
                  <elcut lspd="0.1" latt="0" lspd_syncmode="0" lspd_numerator="4" dec="0.5" lshp="0" lspd_denominator="4" rel="0.1" amt="0" userwavefile="" lamt="0" att="0" sustain="0.5" pdel="0" ctlenvamt="0" x100="0" lpdel="0" hold="0.5"/>
                  <elres lspd="0.1" latt="0" lspd_syncmode="0" lspd_numerator="4" dec="0.5" lshp="0" lspd_denominator="4" rel="0.1" amt="0" userwavefile="" lamt="0" att="0" sustain="0.5" pdel="0" ctlenvamt="0" x100="0" lpdel="0" hold="0.5"/>
                </eldata>
                <chordcreator chord-enabled="0" chord="0" chordrange="1"/>
                <arpeggiator arptime_syncmode="0" arptime_numerator="4" arpmiss="0" arpmode="0" arptime="200" arp="0" arptime_denominator="4" arp-enabled="0" arpcycle="0" arpdir="0" arpskip="0" arpgate="100" arprange="1"/>
                <midiport fixedoutputnote="-1" outputchannel="1" inputchannel="0" inputcontroller="0" readable="0" outputcontroller="0" fixedinputvelocity="-1" basevelocity="63" fixedoutputvelocity="-1" outputprogram="1" writable="0"/>
                <fxchain numofeffects="0" enabled="0"/>
              </instrumenttrack>
              <pattern pos="0" muted="0" steps="64" name="kick.wav" type="0">
                <note pos="0" pan="0" vol="100" len="-192" key="57"/>
                <note pos="192" pan="0" vol="100" len="-192" key="57"/>
                <note pos="384" pan="0" vol="100" len="-192" key="57"/>
                <note pos="720" pan="0" vol="100" len="-192" key="57"/>
                <note pos="732" pan="0" vol="100" len="-192" key="57"/>
                <note pos="744" pan="0" vol="100" len="-192" key="57"/>
                <note pos="756" pan="0" vol="100" len="-192" key="57"/>
              </pattern>
              <pattern pos="192" muted="0" steps="32" name="kick.wav" type="0">
                <note pos="0" pan="0" vol="100" len="-192" key="57"/>
                <note pos="72" pan="0" vol="100" len="-192" key="57"/>
                <note pos="96" pan="0" vol="100" len="-192" key="57"/>
                <note pos="144" pan="0" vol="100" len="-192" key="57"/>
                <note pos="192" pan="0" vol="100" len="-192" key="57"/>
                <note pos="264" pan="0" vol="100" len="-192" key="57"/>
                <note pos="288" pan="0" vol="100" len="-192" key="57"/>
                <note pos="336" pan="0" vol="100" len="-192" key="57"/>
              </pattern>
              <pattern pos="384" muted="0" steps="64" name="kick.wav" type="0">
                <note pos="0" pan="0" vol="100" len="-192" key="57"/>
                <note pos="12" pan="0" vol="100" len="-192" key="57"/>
                <note pos="24" pan="0" vol="100" len="-192" key="57"/>
                <note pos="36" pan="0" vol="100" len="-192" key="57"/>
                <note pos="48" pan="0" vol="100" len="-192" key="57"/>
                <note pos="60" pan="0" vol="100" len="-192" key="57"/>
                <note pos="72" pan="0" vol="100" len="-192" key="57"/>
                <note pos="84" pan="0" vol="100" len="-192" key="57"/>
                <note pos="96" pan="0" vol="100" len="-192" key="57"/>
                <note pos="108" pan="0" vol="100" len="-192" key="57"/>
                <note pos="120" pan="0" vol="100" len="-192" key="57"/>
                <note pos="132" pan="0" vol="100" len="-192" key="57"/>
                <note pos="144" pan="0" vol="100" len="-192" key="57"/>
                <note pos="156" pan="0" vol="100" len="-192" key="57"/>
                <note pos="168" pan="0" vol="100" len="-192" key="57"/>
                <note pos="180" pan="0" vol="100" len="-192" key="57"/>
                <note pos="192" pan="0" vol="100" len="-192" key="57"/>
                <note pos="204" pan="0" vol="100" len="-192" key="57"/>
                <note pos="216" pan="0" vol="100" len="-192" key="57"/>
                <note pos="228" pan="0" vol="100" len="-192" key="57"/>
                <note pos="240" pan="0" vol="100" len="-192" key="57"/>
                <note pos="252" pan="0" vol="100" len="-192" key="57"/>
                <note pos="264" pan="0" vol="100" len="-192" key="57"/>
                <note pos="276" pan="0" vol="100" len="-192" key="57"/>
                <note pos="288" pan="0" vol="100" len="-192" key="57"/>
                <note pos="300" pan="0" vol="100" len="-192" key="57"/>
                <note pos="312" pan="0" vol="100" len="-192" key="57"/>
                <note pos="324" pan="0" vol="100" len="-192" key="57"/>
                <note pos="336" pan="0" vol="100" len="-192" key="57"/>
                <note pos="348" pan="0" vol="100" len="-192" key="57"/>
                <note pos="360" pan="0" vol="100" len="-192" key="57"/>
                <note pos="372" pan="0" vol="100" len="-192" key="57"/>
                <note pos="384" pan="0" vol="100" len="-192" key="57"/>
                <note pos="396" pan="0" vol="100" len="-192" key="57"/>
                <note pos="408" pan="0" vol="100" len="-192" key="57"/>
                <note pos="420" pan="0" vol="100" len="-192" key="57"/>
                <note pos="432" pan="0" vol="100" len="-192" key="57"/>
                <note pos="444" pan="0" vol="100" len="-192" key="57"/>
                <note pos="456" pan="0" vol="100" len="-192" key="57"/>
                <note pos="468" pan="0" vol="100" len="-192" key="57"/>
                <note pos="480" pan="0" vol="100" len="-192" key="57"/>
                <note pos="492" pan="0" vol="100" len="-192" key="57"/>
                <note pos="504" pan="0" vol="100" len="-192" key="57"/>
                <note pos="516" pan="0" vol="100" len="-192" key="57"/>
                <note pos="528" pan="0" vol="100" len="-192" key="57"/>
                <note pos="540" pan="0" vol="100" len="-192" key="57"/>
                <note pos="552" pan="0" vol="100" len="-192" key="57"/>
                <note pos="564" pan="0" vol="100" len="-192" key="57"/>
                <note pos="576" pan="0" vol="100" len="-192" key="57"/>
                <note pos="588" pan="0" vol="100" len="-192" key="57"/>
                <note pos="600" pan="0" vol="100" len="-192" key="57"/>
                <note pos="612" pan="0" vol="100" len="-192" key="57"/>
                <note pos="624" pan="0" vol="100" len="-192" key="57"/>
                <note pos="636" pan="0" vol="100" len="-192" key="57"/>
                <note pos="648" pan="0" vol="100" len="-192" key="57"/>
                <note pos="660" pan="0" vol="100" len="-192" key="57"/>
                <note pos="672" pan="0" vol="100" len="-192" key="57"/>
                <note pos="684" pan="0" vol="100" len="-192" key="57"/>
                <note pos="696" pan="0" vol="100" len="-192" key="57"/>
                <note pos="708" pan="0" vol="100" len="-192" key="57"/>
                <note pos="720" pan="0" vol="100" len="-192" key="57"/>
                <note pos="732" pan="0" vol="100" len="-192" key="57"/>
                <note pos="744" pan="0" vol="100" len="-192" key="57"/>
                <note pos="756" pan="0" vol="100" len="-192" key="57"/>
              </pattern>
              <pattern pos="576" muted="0" steps="64" name="kick.wav" type="0">
                <note pos="0" pan="0" vol="100" len="-192" key="57"/>
                <note pos="12" pan="0" vol="100" len="-192" key="57"/>
                <note pos="24" pan="0" vol="100" len="-192" key="57"/>
                <note pos="36" pan="0" vol="100" len="-192" key="57"/>
                <note pos="48" pan="0" vol="100" len="-192" key="57"/>
                <note pos="60" pan="0" vol="100" len="-192" key="57"/>
                <note pos="72" pan="0" vol="100" len="-192" key="57"/>
                <note pos="84" pan="0" vol="100" len="-192" key="57"/>
                <note pos="96" pan="0" vol="100" len="-192" key="57"/>
                <note pos="108" pan="0" vol="100" len="-192" key="57"/>
                <note pos="120" pan="0" vol="100" len="-192" key="57"/>
                <note pos="132" pan="0" vol="100" len="-192" key="57"/>
                <note pos="144" pan="0" vol="100" len="-192" key="57"/>
                <note pos="156" pan="0" vol="100" len="-192" key="57"/>
                <note pos="168" pan="0" vol="100" len="-192" key="57"/>
                <note pos="180" pan="0" vol="100" len="-192" key="57"/>
                <note pos="192" pan="0" vol="100" len="-192" key="57"/>
                <note pos="204" pan="0" vol="100" len="-192" key="57"/>
                <note pos="216" pan="0" vol="100" len="-192" key="57"/>
                <note pos="228" pan="0" vol="100" len="-192" key="57"/>
                <note pos="240" pan="0" vol="100" len="-192" key="57"/>
                <note pos="252" pan="0" vol="100" len="-192" key="57"/>
                <note pos="264" pan="0" vol="100" len="-192" key="57"/>
                <note pos="276" pan="0" vol="100" len="-192" key="57"/>
                <note pos="288" pan="0" vol="100" len="-192" key="57"/>
                <note pos="300" pan="0" vol="100" len="-192" key="57"/>
                <note pos="312" pan="0" vol="100" len="-192" key="57"/>
                <note pos="324" pan="0" vol="100" len="-192" key="57"/>
                <note pos="336" pan="0" vol="100" len="-192" key="57"/>
                <note pos="348" pan="0" vol="100" len="-192" key="57"/>
                <note pos="360" pan="0" vol="100" len="-192" key="57"/>
                <note pos="372" pan="0" vol="100" len="-192" key="57"/>
                <note pos="384" pan="0" vol="100" len="-192" key="57"/>
                <note pos="396" pan="0" vol="100" len="-192" key="57"/>
                <note pos="408" pan="0" vol="100" len="-192" key="57"/>
                <note pos="420" pan="0" vol="100" len="-192" key="57"/>
                <note pos="432" pan="0" vol="100" len="-192" key="57"/>
                <note pos="444" pan="0" vol="100" len="-192" key="57"/>
                <note pos="456" pan="0" vol="100" len="-192" key="57"/>
                <note pos="468" pan="0" vol="100" len="-192" key="57"/>
                <note pos="480" pan="0" vol="100" len="-192" key="57"/>
                <note pos="492" pan="0" vol="100" len="-192" key="57"/>
                <note pos="504" pan="0" vol="100" len="-192" key="57"/>
                <note pos="516" pan="0" vol="100" len="-192" key="57"/>
                <note pos="528" pan="0" vol="100" len="-192" key="57"/>
                <note pos="540" pan="0" vol="100" len="-192" key="57"/>
                <note pos="552" pan="0" vol="100" len="-192" key="57"/>
                <note pos="564" pan="0" vol="100" len="-192" key="57"/>
                <note pos="576" pan="0" vol="100" len="-192" key="57"/>
                <note pos="588" pan="0" vol="100" len="-192" key="57"/>
                <note pos="600" pan="0" vol="100" len="-192" key="57"/>
                <note pos="612" pan="0" vol="100" len="-192" key="57"/>
                <note pos="624" pan="0" vol="100" len="-192" key="57"/>
                <note pos="636" pan="0" vol="100" len="-192" key="57"/>
                <note pos="648" pan="0" vol="100" len="-192" key="57"/>
                <note pos="660" pan="0" vol="100" len="-192" key="57"/>
                <note pos="672" pan="0" vol="100" len="-192" key="57"/>
                <note pos="684" pan="0" vol="100" len="-192" key="57"/>
                <note pos="696" pan="0" vol="100" len="-192" key="57"/>
                <note pos="708" pan="0" vol="100" len="-192" key="57"/>
                <note pos="720" pan="0" vol="100" len="-192" key="57"/>
                <note pos="732" pan="0" vol="100" len="-192" key="57"/>
                <note pos="744" pan="0" vol="100" len="-192" key="57"/>
                <note pos="756" pan="0" vol="100" len="-192" key="57"/>
              </pattern>
              <pattern pos="768" muted="0" steps="64" name="kick.wav" type="0">
                <note pos="0" pan="0" vol="100" len="-192" key="57"/>
                <note pos="12" pan="0" vol="100" len="-192" key="57"/>
                <note pos="24" pan="0" vol="100" len="-192" key="57"/>
                <note pos="36" pan="0" vol="100" len="-192" key="57"/>
                <note pos="48" pan="0" vol="100" len="-192" key="57"/>
                <note pos="60" pan="0" vol="100" len="-192" key="57"/>
                <note pos="72" pan="0" vol="100" len="-192" key="57"/>
                <note pos="84" pan="0" vol="100" len="-192" key="57"/>
                <note pos="96" pan="0" vol="100" len="-192" key="57"/>
                <note pos="108" pan="0" vol="100" len="-192" key="57"/>
                <note pos="120" pan="0" vol="100" len="-192" key="57"/>
                <note pos="132" pan="0" vol="100" len="-192" key="57"/>
                <note pos="144" pan="0" vol="100" len="-192" key="57"/>
                <note pos="156" pan="0" vol="100" len="-192" key="57"/>
                <note pos="168" pan="0" vol="100" len="-192" key="57"/>
                <note pos="180" pan="0" vol="100" len="-192" key="57"/>
                <note pos="192" pan="0" vol="100" len="-192" key="57"/>
                <note pos="204" pan="0" vol="100" len="-192" key="57"/>
                <note pos="216" pan="0" vol="100" len="-192" key="57"/>
                <note pos="228" pan="0" vol="100" len="-192" key="57"/>
                <note pos="240" pan="0" vol="100" len="-192" key="57"/>
                <note pos="252" pan="0" vol="100" len="-192" key="57"/>
                <note pos="264" pan="0" vol="100" len="-192" key="57"/>
                <note pos="276" pan="0" vol="100" len="-192" key="57"/>
                <note pos="288" pan="0" vol="100" len="-192" key="57"/>
                <note pos="300" pan="0" vol="100" len="-192" key="57"/>
                <note pos="312" pan="0" vol="100" len="-192" key="57"/>
                <note pos="324" pan="0" vol="100" len="-192" key="57"/>
                <note pos="336" pan="0" vol="100" len="-192" key="57"/>
                <note pos="348" pan="0" vol="100" len="-192" key="57"/>
                <note pos="360" pan="0" vol="100" len="-192" key="57"/>
                <note pos="372" pan="0" vol="100" len="-192" key="57"/>
                <note pos="384" pan="0" vol="100" len="-192" key="57"/>
                <note pos="396" pan="0" vol="100" len="-192" key="57"/>
                <note pos="408" pan="0" vol="100" len="-192" key="57"/>
                <note pos="420" pan="0" vol="100" len="-192" key="57"/>
                <note pos="432" pan="0" vol="100" len="-192" key="57"/>
                <note pos="444" pan="0" vol="100" len="-192" key="57"/>
                <note pos="456" pan="0" vol="100" len="-192" key="57"/>
                <note pos="468" pan="0" vol="100" len="-192" key="57"/>
                <note pos="480" pan="0" vol="100" len="-192" key="57"/>
                <note pos="492" pan="0" vol="100" len="-192" key="57"/>
                <note pos="504" pan="0" vol="100" len="-192" key="57"/>
                <note pos="516" pan="0" vol="100" len="-192" key="57"/>
                <note pos="528" pan="0" vol="100" len="-192" key="57"/>
                <note pos="540" pan="0" vol="100" len="-192" key="57"/>
                <note pos="552" pan="0" vol="100" len="-192" key="57"/>
                <note pos="564" pan="0" vol="100" len="-192" key="57"/>
                <note pos="576" pan="0" vol="100" len="-192" key="57"/>
                <note pos="588" pan="0" vol="100" len="-192" key="57"/>
                <note pos="600" pan="0" vol="100" len="-192" key="57"/>
                <note pos="612" pan="0" vol="100" len="-192" key="57"/>
                <note pos="624" pan="0" vol="100" len="-192" key="57"/>
                <note pos="636" pan="0" vol="100" len="-192" key="57"/>
                <note pos="648" pan="0" vol="100" len="-192" key="57"/>
                <note pos="660" pan="0" vol="100" len="-192" key="57"/>
                <note pos="672" pan="0" vol="100" len="-192" key="57"/>
                <note pos="684" pan="0" vol="100" len="-192" key="57"/>
                <note pos="696" pan="0" vol="100" len="-192" key="57"/>
                <note pos="708" pan="0" vol="100" len="-192" key="57"/>
                <note pos="720" pan="0" vol="100" len="-192" key="57"/>
                <note pos="732" pan="0" vol="100" len="-192" key="57"/>
                <note pos="744" pan="0" vol="100" len="-192" key="57"/>
                <note pos="756" pan="0" vol="100" len="-192" key="57"/>
              </pattern>
              <pattern pos="960" muted="0" steps="32" name="kick.wav" type="0">
                <note pos="0" pan="0" vol="100" len="-192" key="57"/>
                <note pos="12" pan="0" vol="100" len="-192" key="57"/>
                <note pos="24" pan="0" vol="100" len="-192" key="57"/>
                <note pos="36" pan="0" vol="100" len="-192" key="57"/>
                <note pos="48" pan="0" vol="100" len="-192" key="57"/>
                <note pos="60" pan="0" vol="100" len="-192" key="57"/>
                <note pos="72" pan="0" vol="100" len="-192" key="57"/>
                <note pos="84" pan="0" vol="100" len="-192" key="57"/>
                <note pos="96" pan="0" vol="100" len="-192" key="57"/>
                <note pos="108" pan="0" vol="100" len="-192" key="57"/>
                <note pos="120" pan="0" vol="100" len="-192" key="57"/>
                <note pos="132" pan="0" vol="100" len="-192" key="57"/>
                <note pos="144" pan="0" vol="100" len="-192" key="57"/>
                <note pos="156" pan="0" vol="100" len="-192" key="57"/>
                <note pos="168" pan="0" vol="100" len="-192" key="57"/>
                <note pos="180" pan="0" vol="100" len="-192" key="57"/>
                <note pos="192" pan="0" vol="100" len="-192" key="57"/>
                <note pos="204" pan="0" vol="100" len="-192" key="57"/>
                <note pos="216" pan="0" vol="100" len="-192" key="57"/>
                <note pos="228" pan="0" vol="100" len="-192" key="57"/>
                <note pos="240" pan="0" vol="100" len="-192" key="57"/>
                <note pos="252" pan="0" vol="100" len="-192" key="57"/>
                <note pos="264" pan="0" vol="100" len="-192" key="57"/>
                <note pos="276" pan="0" vol="100" len="-192" key="57"/>
                <note pos="288" pan="0" vol="100" len="-192" key="57"/>
                <note pos="300" pan="0" vol="100" len="-192" key="57"/>
                <note pos="312" pan="0" vol="100" len="-192" key="57"/>
                <note pos="324" pan="0" vol="100" len="-192" key="57"/>
                <note pos="336" pan="0" vol="100" len="-192" key="57"/>
                <note pos="348" pan="0" vol="100" len="-192" key="57"/>
                <note pos="360" pan="0" vol="100" len="-192" key="57"/>
                <note pos="372" pan="0" vol="100" len="-192" key="57"/>
              </pattern>
              <pattern pos="1152" muted="0" steps="64" name="kick.wav" type="0">
                <note pos="0" pan="0" vol="100" len="-192" key="57"/>
                <note pos="48" pan="0" vol="100" len="-192" key="57"/>
                <note pos="60" pan="0" vol="100" len="-192" key="57"/>
                <note pos="96" pan="0" vol="100" len="-192" key="57"/>
                <note pos="108" pan="0" vol="100" len="-192" key="57"/>
                <note pos="144" pan="0" vol="100" len="-192" key="57"/>
                <note pos="156" pan="0" vol="100" len="-192" key="57"/>
                <note pos="168" pan="0" vol="100" len="-192" key="57"/>
                <note pos="180" pan="0" vol="100" len="-192" key="57"/>
                <note pos="192" pan="0" vol="100" len="-192" key="57"/>
                <note pos="240" pan="0" vol="100" len="-192" key="57"/>
                <note pos="252" pan="0" vol="100" len="-192" key="57"/>
                <note pos="288" pan="0" vol="100" len="-192" key="57"/>
                <note pos="300" pan="0" vol="100" len="-192" key="57"/>
                <note pos="336" pan="0" vol="100" len="-192" key="57"/>
                <note pos="348" pan="0" vol="100" len="-192" key="57"/>
                <note pos="360" pan="0" vol="100" len="-192" key="57"/>
                <note pos="372" pan="0" vol="100" len="-192" key="57"/>
                <note pos="384" pan="0" vol="100" len="-192" key="57"/>
                <note pos="396" pan="0" vol="100" len="-192" key="57"/>
                <note pos="408" pan="0" vol="100" len="-192" key="57"/>
                <note pos="420" pan="0" vol="100" len="-192" key="57"/>
                <note pos="432" pan="0" vol="100" len="-192" key="57"/>
                <note pos="444" pan="0" vol="100" len="-192" key="57"/>
                <note pos="456" pan="0" vol="100" len="-192" key="57"/>
                <note pos="468" pan="0" vol="100" len="-192" key="57"/>
                <note pos="480" pan="0" vol="100" len="-192" key="57"/>
                <note pos="492" pan="0" vol="100" len="-192" key="57"/>
                <note pos="504" pan="0" vol="100" len="-192" key="57"/>
                <note pos="516" pan="0" vol="100" len="-192" key="57"/>
                <note pos="528" pan="0" vol="100" len="-192" key="57"/>
                <note pos="540" pan="0" vol="100" len="-192" key="57"/>
                <note pos="552" pan="0" vol="100" len="-192" key="57"/>
                <note pos="564" pan="0" vol="100" len="-192" key="57"/>
                <note pos="576" pan="0" vol="100" len="-192" key="57"/>
                <note pos="588" pan="0" vol="100" len="-192" key="57"/>
                <note pos="600" pan="0" vol="100" len="-192" key="57"/>
                <note pos="612" pan="0" vol="100" len="-192" key="57"/>
                <note pos="624" pan="0" vol="100" len="-192" key="57"/>
                <note pos="636" pan="0" vol="100" len="-192" key="57"/>
                <note pos="648" pan="0" vol="100" len="-192" key="57"/>
                <note pos="660" pan="0" vol="100" len="-192" key="57"/>
                <note pos="672" pan="0" vol="100" len="-192" key="57"/>
                <note pos="684" pan="0" vol="100" len="-192" key="57"/>
                <note pos="696" pan="0" vol="100" len="-192" key="57"/>
                <note pos="708" pan="0" vol="100" len="-192" key="57"/>
                <note pos="720" pan="0" vol="100" len="-192" key="57"/>
                <note pos="732" pan="0" vol="100" len="-192" key="57"/>
                <note pos="744" pan="0" vol="100" len="-192" key="57"/>
                <note pos="756" pan="0" vol="100" len="-192" key="57"/>
              </pattern>
              <pattern pos="1344" muted="0" steps="16" name="kick.wav" type="0">
                <note pos="0" pan="0" vol="100" len="-192" key="57"/>
                <note pos="12" pan="0" vol="100" len="-192" key="57"/>
                <note pos="24" pan="0" vol="100" len="-192" key="57"/>
                <note pos="36" pan="0" vol="100" len="-192" key="57"/>
                <note pos="48" pan="0" vol="100" len="-192" key="57"/>
                <note pos="60" pan="0" vol="100" len="-192" key="57"/>
                <note pos="72" pan="0" vol="100" len="-192" key="57"/>
                <note pos="84" pan="0" vol="100" len="-192" key="57"/>
                <note pos="96" pan="0" vol="100" len="-192" key="57"/>
                <note pos="108" pan="0" vol="100" len="-192" key="57"/>
                <note pos="120" pan="0" vol="100" len="-192" key="57"/>
                <note pos="132" pan="0" vol="100" len="-192" key="57"/>
                <note pos="144" pan="0" vol="100" len="-192" key="57"/>
                <note pos="156" pan="0" vol="100" len="-192" key="57"/>
                <note pos="168" pan="0" vol="100" len="-192" key="57"/>
                <note pos="180" pan="0" vol="100" len="-192" key="57"/>
              </pattern>
              <pattern pos="1536" muted="0" steps="64" name="kick.wav" type="0">
                <note pos="0" pan="0" vol="100" len="-192" key="57"/>
                <note pos="48" pan="0" vol="100" len="-192" key="57"/>
                <note pos="96" pan="0" vol="100" len="-192" key="57"/>
                <note pos="144" pan="0" vol="100" len="-192" key="57"/>
                <note pos="156" pan="0" vol="100" len="-192" key="57"/>
                <note pos="168" pan="0" vol="100" len="-192" key="57"/>
                <note pos="180" pan="0" vol="100" len="-192" key="57"/>
                <note pos="192" pan="0" vol="100" len="-192" key="57"/>
                <note pos="240" pan="0" vol="100" len="-192" key="57"/>
                <note pos="288" pan="0" vol="100" len="-192" key="57"/>
                <note pos="336" pan="0" vol="100" len="-192" key="57"/>
                <note pos="348" pan="0" vol="100" len="-192" key="57"/>
                <note pos="360" pan="0" vol="100" len="-192" key="57"/>
                <note pos="372" pan="0" vol="100" len="-192" key="57"/>
                <note pos="384" pan="0" vol="100" len="-192" key="57"/>
                <note pos="432" pan="0" vol="100" len="-192" key="57"/>
                <note pos="480" pan="0" vol="100" len="-192" key="57"/>
                <note pos="528" pan="0" vol="100" len="-192" key="57"/>
                <note pos="540" pan="0" vol="100" len="-192" key="57"/>
                <note pos="552" pan="0" vol="100" len="-192" key="57"/>
                <note pos="564" pan="0" vol="100" len="-192" key="57"/>
                <note pos="576" pan="0" vol="100" len="-192" key="57"/>
                <note pos="624" pan="0" vol="100" len="-192" key="57"/>
                <note pos="672" pan="0" vol="100" len="-192" key="57"/>
                <note pos="720" pan="0" vol="100" len="-192" key="57"/>
                <note pos="732" pan="0" vol="100" len="-192" key="57"/>
                <note pos="744" pan="0" vol="100" len="-192" key="57"/>
                <note pos="756" pan="0" vol="100" len="-192" key="57"/>
              </pattern>
              <pattern pos="1728" muted="0" steps="64" name="kick.wav" type="0">
                <note pos="0" pan="0" vol="100" len="-192" key="57"/>
                <note pos="48" pan="0" vol="100" len="-192" key="57"/>
                <note pos="96" pan="0" vol="100" len="-192" key="57"/>
                <note pos="144" pan="0" vol="100" len="-192" key="57"/>
                <note pos="156" pan="0" vol="100" len="-192" key="57"/>
                <note pos="168" pan="0" vol="100" len="-192" key="57"/>
                <note pos="180" pan="0" vol="100" len="-192" key="57"/>
                <note pos="192" pan="0" vol="100" len="-192" key="57"/>
                <note pos="240" pan="0" vol="100" len="-192" key="57"/>
                <note pos="288" pan="0" vol="100" len="-192" key="57"/>
                <note pos="336" pan="0" vol="100" len="-192" key="57"/>
                <note pos="348" pan="0" vol="100" len="-192" key="57"/>
                <note pos="360" pan="0" vol="100" len="-192" key="57"/>
                <note pos="372" pan="0" vol="100" len="-192" key="57"/>
                <note pos="384" pan="0" vol="100" len="-192" key="57"/>
                <note pos="432" pan="0" vol="100" len="-192" key="57"/>
                <note pos="480" pan="0" vol="100" len="-192" key="57"/>
                <note pos="528" pan="0" vol="100" len="-192" key="57"/>
                <note pos="540" pan="0" vol="100" len="-192" key="57"/>
                <note pos="552" pan="0" vol="100" len="-192" key="57"/>
                <note pos="564" pan="0" vol="100" len="-192" key="57"/>
                <note pos="576" pan="0" vol="100" len="-192" key="57"/>
                <note pos="624" pan="0" vol="100" len="-192" key="57"/>
                <note pos="672" pan="0" vol="100" len="-192" key="57"/>
                <note pos="720" pan="0" vol="100" len="-192" key="57"/>
                <note pos="732" pan="0" vol="100" len="-192" key="57"/>
                <note pos="744" pan="0" vol="100" len="-192" key="57"/>
                <note pos="756" pan="0" vol="100" len="-192" key="57"/>
              </pattern>
              <pattern pos="1920" muted="0" steps="16" name="kick.wav" type="0">
                <note pos="0" pan="0" vol="100" len="-192" key="57"/>
              </pattern>
              <pattern pos="2112" muted="0" steps="32" name="kick.wav" type="0">
                <note pos="0" pan="0" vol="100" len="-192" key="57"/>
                <note pos="48" pan="0" vol="100" len="-192" key="57"/>
                <note pos="60" pan="0" vol="100" len="-192" key="57"/>
                <note pos="72" pan="0" vol="100" len="-192" key="57"/>
                <note pos="96" pan="0" vol="100" len="-192" key="57"/>
                <note pos="108" pan="0" vol="100" len="-192" key="57"/>
                <note pos="120" pan="0" vol="100" len="-192" key="57"/>
                <note pos="144" pan="0" vol="100" len="-192" key="57"/>
                <note pos="156" pan="0" vol="100" len="-192" key="57"/>
                <note pos="168" pan="0" vol="100" len="-192" key="57"/>
                <note pos="192" pan="0" vol="100" len="-192" key="57"/>
                <note pos="240" pan="0" vol="100" len="-192" key="57"/>
                <note pos="252" pan="0" vol="100" len="-192" key="57"/>
                <note pos="264" pan="0" vol="100" len="-192" key="57"/>
                <note pos="276" pan="0" vol="100" len="-192" key="57"/>
                <note pos="288" pan="0" vol="100" len="-192" key="57"/>
                <note pos="300" pan="0" vol="100" len="-192" key="57"/>
                <note pos="312" pan="0" vol="100" len="-192" key="57"/>
                <note pos="324" pan="0" vol="100" len="-192" key="57"/>
                <note pos="336" pan="0" vol="100" len="-192" key="57"/>
                <note pos="348" pan="0" vol="100" len="-192" key="57"/>
                <note pos="360" pan="0" vol="100" len="-192" key="57"/>
                <note pos="372" pan="0" vol="100" len="-192" key="57"/>
              </pattern>
              <pattern pos="2304" muted="0" steps="32" name="kick.wav" type="0">
                <note pos="0" pan="0" vol="100" len="-192" key="57"/>
                <note pos="12" pan="0" vol="100" len="-192" key="57"/>
                <note pos="24" pan="0" vol="100" len="-192" key="57"/>
                <note pos="36" pan="0" vol="100" len="-192" key="57"/>
                <note pos="48" pan="0" vol="100" len="-192" key="57"/>
                <note pos="60" pan="0" vol="100" len="-192" key="57"/>
                <note pos="72" pan="0" vol="100" len="-192" key="57"/>
                <note pos="84" pan="0" vol="100" len="-192" key="57"/>
                <note pos="96" pan="0" vol="100" len="-192" key="57"/>
                <note pos="108" pan="0" vol="100" len="-192" key="57"/>
                <note pos="120" pan="0" vol="100" len="-192" key="57"/>
                <note pos="132" pan="0" vol="100" len="-192" key="57"/>
                <note pos="144" pan="0" vol="100" len="-192" key="57"/>
                <note pos="156" pan="0" vol="100" len="-192" key="57"/>
                <note pos="168" pan="0" vol="100" len="-192" key="57"/>
                <note pos="180" pan="0" vol="100" len="-192" key="57"/>
                <note pos="192" pan="0" vol="100" len="-192" key="57"/>
                <note pos="204" pan="0" vol="100" len="-192" key="57"/>
                <note pos="216" pan="0" vol="100" len="-192" key="57"/>
                <note pos="228" pan="0" vol="100" len="-192" key="57"/>
                <note pos="240" pan="0" vol="100" len="-192" key="57"/>
                <note pos="252" pan="0" vol="100" len="-192" key="57"/>
                <note pos="264" pan="0" vol="100" len="-192" key="57"/>
                <note pos="276" pan="0" vol="100" len="-192" key="57"/>
                <note pos="288" pan="0" vol="100" len="-192" key="57"/>
                <note pos="300" pan="0" vol="100" len="-192" key="57"/>
                <note pos="312" pan="0" vol="100" len="-192" key="57"/>
                <note pos="324" pan="0" vol="100" len="-192" key="57"/>
                <note pos="336" pan="0" vol="100" len="-192" key="57"/>
                <note pos="348" pan="0" vol="100" len="-192" key="57"/>
                <note pos="360" pan="0" vol="100" len="-192" key="57"/>
                <note pos="372" pan="0" vol="100" len="-192" key="57"/>
              </pattern>
              <pattern pos="2496" muted="0" steps="16" name="kick.wav" type="0">
                <note pos="0" pan="0" vol="100" len="-192" key="57"/>
                <note pos="12" pan="0" vol="100" len="-192" key="57"/>
                <note pos="24" pan="0" vol="100" len="-192" key="57"/>
                <note pos="72" pan="0" vol="100" len="-192" key="57"/>
                <note pos="84" pan="0" vol="100" len="-192" key="57"/>
                <note pos="96" pan="0" vol="100" len="-192" key="57"/>
                <note pos="144" pan="0" vol="100" len="-192" key="57"/>
                <note pos="168" pan="0" vol="100" len="-192" key="57"/>
              </pattern>
              <pattern pos="2688" muted="0" steps="96" name="kick.wav" type="0">
                <note pos="0" pan="0" vol="100" len="-192" key="57"/>
                <note pos="48" pan="0" vol="100" len="-192" key="57"/>
                <note pos="96" pan="0" vol="100" len="-192" key="57"/>
                <note pos="144" pan="0" vol="100" len="-192" key="57"/>
                <note pos="168" pan="0" vol="100" len="-192" key="57"/>
                <note pos="192" pan="0" vol="100" len="-192" key="57"/>
                <note pos="240" pan="0" vol="100" len="-192" key="57"/>
                <note pos="288" pan="0" vol="100" len="-192" key="57"/>
                <note pos="336" pan="0" vol="100" len="-192" key="57"/>
                <note pos="360" pan="0" vol="100" len="-192" key="57"/>
                <note pos="384" pan="0" vol="100" len="-192" key="57"/>
                <note pos="432" pan="0" vol="100" len="-192" key="57"/>
                <note pos="480" pan="0" vol="100" len="-192" key="57"/>
                <note pos="528" pan="0" vol="100" len="-192" key="57"/>
                <note pos="552" pan="0" vol="100" len="-192" key="57"/>
                <note pos="576" pan="0" vol="100" len="-192" key="57"/>
                <note pos="624" pan="0" vol="100" len="-192" key="57"/>
                <note pos="672" pan="0" vol="100" len="-192" key="57"/>
                <note pos="720" pan="0" vol="100" len="-192" key="57"/>
                <note pos="744" pan="0" vol="100" len="-192" key="57"/>
                <note pos="768" pan="0" vol="100" len="-192" key="57"/>
                <note pos="792" pan="0" vol="100" len="-192" key="57"/>
                <note pos="816" pan="0" vol="100" len="-192" key="57"/>
                <note pos="840" pan="0" vol="100" len="-192" key="57"/>
                <note pos="864" pan="0" vol="100" len="-192" key="57"/>
                <note pos="888" pan="0" vol="100" len="-192" key="57"/>
                <note pos="912" pan="0" vol="100" len="-192" key="57"/>
                <note pos="924" pan="0" vol="100" len="-192" key="57"/>
                <note pos="936" pan="0" vol="100" len="-192" key="57"/>
                <note pos="948" pan="0" vol="100" len="-192" key="57"/>
                <note pos="960" pan="0" vol="100" len="-192" key="57"/>
                <note pos="972" pan="0" vol="100" len="-192" key="57"/>
                <note pos="984" pan="0" vol="100" len="-192" key="57"/>
                <note pos="996" pan="0" vol="100" len="-192" key="57"/>
                <note pos="1008" pan="0" vol="100" len="-192" key="57"/>
                <note pos="1032" pan="0" vol="100" len="-192" key="57"/>
                <note pos="1044" pan="0" vol="100" len="-192" key="57"/>
                <note pos="1056" pan="0" vol="100" len="-192" key="57"/>
                <note pos="1068" pan="0" vol="100" len="-192" key="57"/>
                <note pos="1104" pan="0" vol="100" len="-192" key="57"/>
                <note pos="1116" pan="0" vol="100" len="-192" key="57"/>
                <note pos="1128" pan="0" vol="100" len="-192" key="57"/>
                <note pos="1140" pan="0" vol="100" len="-192" key="57"/>
              </pattern>
              <pattern pos="2880" muted="0" steps="64" name="kick.wav" type="0">
                <note pos="0" pan="0" vol="100" len="-192" key="57"/>
                <note pos="12" pan="0" vol="100" len="-192" key="57"/>
                <note pos="24" pan="0" vol="100" len="-192" key="57"/>
                <note pos="36" pan="0" vol="100" len="-192" key="57"/>
                <note pos="48" pan="0" vol="100" len="-192" key="57"/>
                <note pos="60" pan="0" vol="100" len="-192" key="57"/>
                <note pos="72" pan="0" vol="100" len="-192" key="57"/>
                <note pos="84" pan="0" vol="100" len="-192" key="57"/>
                <note pos="96" pan="0" vol="100" len="-192" key="57"/>
                <note pos="108" pan="0" vol="100" len="-192" key="57"/>
                <note pos="120" pan="0" vol="100" len="-192" key="57"/>
                <note pos="132" pan="0" vol="100" len="-192" key="57"/>
                <note pos="144" pan="0" vol="100" len="-192" key="57"/>
                <note pos="156" pan="0" vol="100" len="-192" key="57"/>
                <note pos="168" pan="0" vol="100" len="-192" key="57"/>
                <note pos="180" pan="0" vol="100" len="-192" key="57"/>
                <note pos="192" pan="0" vol="100" len="-192" key="57"/>
                <note pos="204" pan="0" vol="100" len="-192" key="57"/>
                <note pos="216" pan="0" vol="100" len="-192" key="57"/>
                <note pos="228" pan="0" vol="100" len="-192" key="57"/>
                <note pos="240" pan="0" vol="100" len="-192" key="57"/>
                <note pos="252" pan="0" vol="100" len="-192" key="57"/>
                <note pos="264" pan="0" vol="100" len="-192" key="57"/>
                <note pos="276" pan="0" vol="100" len="-192" key="57"/>
                <note pos="288" pan="0" vol="100" len="-192" key="57"/>
                <note pos="300" pan="0" vol="100" len="-192" key="57"/>
                <note pos="312" pan="0" vol="100" len="-192" key="57"/>
                <note pos="324" pan="0" vol="100" len="-192" key="57"/>
                <note pos="336" pan="0" vol="100" len="-192" key="57"/>
                <note pos="348" pan="0" vol="100" len="-192" key="57"/>
                <note pos="360" pan="0" vol="100" len="-192" key="57"/>
                <note pos="372" pan="0" vol="100" len="-192" key="57"/>
                <note pos="384" pan="0" vol="100" len="-192" key="57"/>
                <note pos="396" pan="0" vol="100" len="-192" key="57"/>
                <note pos="408" pan="0" vol="100" len="-192" key="57"/>
                <note pos="420" pan="0" vol="100" len="-192" key="57"/>
                <note pos="432" pan="0" vol="100" len="-192" key="57"/>
                <note pos="444" pan="0" vol="100" len="-192" key="57"/>
                <note pos="456" pan="0" vol="100" len="-192" key="57"/>
                <note pos="468" pan="0" vol="100" len="-192" key="57"/>
                <note pos="480" pan="0" vol="100" len="-192" key="57"/>
                <note pos="492" pan="0" vol="100" len="-192" key="57"/>
                <note pos="504" pan="0" vol="100" len="-192" key="57"/>
                <note pos="516" pan="0" vol="100" len="-192" key="57"/>
                <note pos="528" pan="0" vol="100" len="-192" key="57"/>
                <note pos="540" pan="0" vol="100" len="-192" key="57"/>
                <note pos="552" pan="0" vol="100" len="-192" key="57"/>
                <note pos="564" pan="0" vol="100" len="-192" key="57"/>
                <note pos="576" pan="0" vol="100" len="-192" key="57"/>
                <note pos="588" pan="0" vol="100" len="-192" key="57"/>
                <note pos="600" pan="0" vol="100" len="-192" key="57"/>
                <note pos="612" pan="0" vol="100" len="-192" key="57"/>
                <note pos="624" pan="0" vol="100" len="-192" key="57"/>
                <note pos="636" pan="0" vol="100" len="-192" key="57"/>
                <note pos="648" pan="0" vol="100" len="-192" key="57"/>
                <note pos="660" pan="0" vol="100" len="-192" key="57"/>
                <note pos="672" pan="0" vol="100" len="-192" key="57"/>
              </pattern>
            </track>
            <track solo="0" muted="0" name="hihat_opened02.ogg" type="0">
              <instrumenttrack pan="-21.6" usemasterpitch="1" vol="56.8" pitchrange="1" fxch="2" pitch="0" basenote="57">
                <instrument name="audiofileprocessor">
                  <audiofileprocessor looped="0" reversed="0" lframe="0" stutter="0" sframe="0" interp="1" src="drums/hihat_opened02.ogg" eframe="1" amp="100"/>
                </instrument>
                <eldata fres="0.5" ftype="0" fcut="14000" fwet="0">
                  <elvol lspd="0.1" latt="0" lspd_syncmode="0" lspd_numerator="4" dec="2" lshp="0" lspd_denominator="4" rel="0" amt="1" userwavefile="" lamt="0" att="0" sustain="0" pdel="0" ctlenvamt="0" x100="0" lpdel="0" hold="2"/>
                  <elcut lspd="0.1" latt="0" lspd_syncmode="0" lspd_numerator="4" dec="0.5" lshp="0" lspd_denominator="4" rel="0.1" amt="0" userwavefile="" lamt="0" att="0" sustain="0.5" pdel="0" ctlenvamt="0" x100="0" lpdel="0" hold="0.5"/>
                  <elres lspd="0.1" latt="0" lspd_syncmode="0" lspd_numerator="4" dec="0.5" lshp="0" lspd_denominator="4" rel="0.1" amt="0" userwavefile="" lamt="0" att="0" sustain="0.5" pdel="0" ctlenvamt="0" x100="0" lpdel="0" hold="0.5"/>
                </eldata>
                <chordcreator chord-enabled="0" chord="0" chordrange="1"/>
                <arpeggiator arptime_syncmode="0" arptime_numerator="4" arpmiss="0" arpmode="0" arptime="200" arp="0" arptime_denominator="4" arp-enabled="0" arpcycle="0" arpdir="0" arpskip="0" arpgate="100" arprange="1"/>
                <midiport fixedoutputnote="-1" outputchannel="1" inputchannel="0" inputcontroller="0" readable="0" outputcontroller="0" fixedinputvelocity="-1" basevelocity="63" fixedoutputvelocity="-1" outputprogram="1" writable="0"/>
                <fxchain numofeffects="0" enabled="0"/>
              </instrumenttrack>
              <pattern pos="0" muted="0" steps="16" name="hihat_opened02.ogg" type="0"/>
              <pattern pos="192" muted="0" steps="32" name="hihat_opened02.ogg" type="0">
                <note pos="72" pan="0" vol="100" len="-192" key="57"/>
                <note pos="144" pan="0" vol="100" len="-192" key="57"/>
                <note pos="264" pan="0" vol="100" len="-192" key="57"/>
              </pattern>
              <pattern pos="384" muted="0" steps="64" name="hihat_opened02.ogg" type="0">
                <note pos="0" pan="0" vol="100" len="-192" key="57"/>
                <note pos="96" pan="0" vol="100" len="-192" key="57"/>
                <note pos="192" pan="0" vol="100" len="-192" key="57"/>
                <note pos="288" pan="0" vol="100" len="-192" key="57"/>
                <note pos="384" pan="0" vol="100" len="-192" key="57"/>
                <note pos="480" pan="0" vol="100" len="-192" key="57"/>
                <note pos="576" pan="0" vol="100" len="-192" key="57"/>
                <note pos="672" pan="0" vol="100" len="-192" key="57"/>
              </pattern>
              <pattern pos="576" muted="0" steps="48" name="hihat_opened02.ogg" type="0">
                <note pos="0" pan="0" vol="100" len="-192" key="57"/>
                <note pos="96" pan="0" vol="100" len="-192" key="57"/>
                <note pos="192" pan="0" vol="100" len="-192" key="57"/>
                <note pos="288" pan="0" vol="100" len="-192" key="57"/>
                <note pos="432" pan="0" vol="100" len="-192" key="57"/>
                <note pos="480" pan="0" vol="100" len="-192" key="57"/>
                <note pos="528" pan="0" vol="100" len="-192" key="57"/>
              </pattern>
              <pattern pos="768" muted="0" steps="64" name="hihat_opened02.ogg" type="0">
                <note pos="0" pan="0" vol="100" len="-192" key="57"/>
                <note pos="48" pan="0" vol="100" len="-192" key="57"/>
                <note pos="96" pan="0" vol="100" len="-192" key="57"/>
                <note pos="144" pan="0" vol="100" len="-192" key="57"/>
                <note pos="192" pan="0" vol="100" len="-192" key="57"/>
                <note pos="240" pan="0" vol="100" len="-192" key="57"/>
                <note pos="288" pan="0" vol="100" len="-192" key="57"/>
                <note pos="336" pan="0" vol="100" len="-192" key="57"/>
                <note pos="384" pan="0" vol="100" len="-192" key="57"/>
                <note pos="432" pan="0" vol="100" len="-192" key="57"/>
                <note pos="480" pan="0" vol="100" len="-192" key="57"/>
                <note pos="528" pan="0" vol="100" len="-192" key="57"/>
                <note pos="576" pan="0" vol="100" len="-192" key="57"/>
                <note pos="624" pan="0" vol="100" len="-192" key="57"/>
                <note pos="672" pan="0" vol="100" len="-192" key="57"/>
                <note pos="720" pan="0" vol="100" len="-192" key="57"/>
              </pattern>
              <pattern pos="960" muted="0" steps="32" name="hihat_opened02.ogg" type="0">
                <note pos="0" pan="0" vol="100" len="-192" key="57"/>
                <note pos="48" pan="0" vol="100" len="-192" key="57"/>
                <note pos="96" pan="0" vol="100" len="-192" key="57"/>
                <note pos="144" pan="0" vol="100" len="-192" key="57"/>
              </pattern>
              <pattern pos="1152" muted="0" steps="64" name="hihat_opened02.ogg" type="0">
                <note pos="0" pan="0" vol="100" len="-192" key="57"/>
                <note pos="48" pan="0" vol="100" len="-192" key="57"/>
                <note pos="96" pan="0" vol="100" len="-192" key="57"/>
                <note pos="144" pan="0" vol="100" len="-192" key="57"/>
                <note pos="192" pan="0" vol="100" len="-192" key="57"/>
                <note pos="240" pan="0" vol="100" len="-192" key="57"/>
                <note pos="288" pan="0" vol="100" len="-192" key="57"/>
                <note pos="336" pan="0" vol="100" len="-192" key="57"/>
                <note pos="384" pan="0" vol="100" len="-192" key="57"/>
                <note pos="432" pan="0" vol="100" len="-192" key="57"/>
                <note pos="480" pan="0" vol="100" len="-192" key="57"/>
                <note pos="528" pan="0" vol="100" len="-192" key="57"/>
                <note pos="576" pan="0" vol="100" len="-192" key="57"/>
                <note pos="624" pan="0" vol="100" len="-192" key="57"/>
                <note pos="672" pan="0" vol="100" len="-192" key="57"/>
                <note pos="720" pan="0" vol="100" len="-192" key="57"/>
              </pattern>
              <pattern pos="1344" muted="0" steps="16" name="hihat_opened02.ogg" type="0"/>
              <pattern pos="1536" muted="0" steps="64" name="hihat_opened02.ogg" type="0">
                <note pos="0" pan="0" vol="100" len="-192" key="57"/>
                <note pos="48" pan="0" vol="100" len="-192" key="57"/>
                <note pos="96" pan="0" vol="100" len="-192" key="57"/>
                <note pos="144" pan="0" vol="100" len="-192" key="57"/>
                <note pos="192" pan="0" vol="100" len="-192" key="57"/>
                <note pos="240" pan="0" vol="100" len="-192" key="57"/>
                <note pos="288" pan="0" vol="100" len="-192" key="57"/>
                <note pos="336" pan="0" vol="100" len="-192" key="57"/>
                <note pos="384" pan="0" vol="100" len="-192" key="57"/>
                <note pos="432" pan="0" vol="100" len="-192" key="57"/>
                <note pos="480" pan="0" vol="100" len="-192" key="57"/>
                <note pos="528" pan="0" vol="100" len="-192" key="57"/>
                <note pos="576" pan="0" vol="100" len="-192" key="57"/>
                <note pos="624" pan="0" vol="100" len="-192" key="57"/>
                <note pos="672" pan="0" vol="100" len="-192" key="57"/>
                <note pos="720" pan="0" vol="100" len="-192" key="57"/>
              </pattern>
              <pattern pos="1728" muted="0" steps="64" name="hihat_opened02.ogg" type="0">
                <note pos="0" pan="0" vol="100" len="-192" key="57"/>
                <note pos="48" pan="0" vol="100" len="-192" key="57"/>
                <note pos="96" pan="0" vol="100" len="-192" key="57"/>
                <note pos="144" pan="0" vol="100" len="-192" key="57"/>
                <note pos="192" pan="0" vol="100" len="-192" key="57"/>
                <note pos="240" pan="0" vol="100" len="-192" key="57"/>
                <note pos="288" pan="0" vol="100" len="-192" key="57"/>
                <note pos="336" pan="0" vol="100" len="-192" key="57"/>
                <note pos="384" pan="0" vol="100" len="-192" key="57"/>
                <note pos="432" pan="0" vol="100" len="-192" key="57"/>
                <note pos="480" pan="0" vol="100" len="-192" key="57"/>
                <note pos="528" pan="0" vol="100" len="-192" key="57"/>
                <note pos="576" pan="0" vol="100" len="-192" key="57"/>
                <note pos="624" pan="0" vol="100" len="-192" key="57"/>
                <note pos="672" pan="0" vol="100" len="-192" key="57"/>
                <note pos="720" pan="0" vol="100" len="-192" key="57"/>
              </pattern>
              <pattern pos="1920" muted="0" steps="16" name="hihat_opened02.ogg" type="0"/>
              <pattern pos="2112" muted="0" steps="32" name="hihat_opened02.ogg" type="0">
                <note pos="48" pan="0" vol="100" len="-192" key="57"/>
                <note pos="96" pan="0" vol="100" len="-192" key="57"/>
                <note pos="144" pan="0" vol="100" len="-192" key="57"/>
                <note pos="240" pan="0" vol="100" len="-192" key="57"/>
                <note pos="288" pan="0" vol="100" len="-192" key="57"/>
                <note pos="336" pan="0" vol="100" len="-192" key="57"/>
              </pattern>
              <pattern pos="2304" muted="0" steps="32" name="hihat_opened02.ogg" type="0">
                <note pos="48" pan="0" vol="100" len="-192" key="57"/>
                <note pos="96" pan="0" vol="100" len="-192" key="57"/>
                <note pos="144" pan="0" vol="100" len="-192" key="57"/>
                <note pos="192" pan="0" vol="100" len="-192" key="57"/>
                <note pos="240" pan="0" vol="100" len="-192" key="57"/>
                <note pos="288" pan="0" vol="100" len="-192" key="57"/>
                <note pos="336" pan="0" vol="100" len="-192" key="57"/>
              </pattern>
              <pattern pos="2496" muted="0" steps="16" name="hihat_opened02.ogg" type="0">
                <note pos="144" pan="0" vol="100" len="-192" key="57"/>
                <note pos="168" pan="0" vol="100" len="-192" key="57"/>
              </pattern>
              <pattern pos="2688" muted="0" steps="96" name="hihat_opened02.ogg" type="0">
                <note pos="24" pan="0" vol="100" len="-192" key="57"/>
                <note pos="72" pan="0" vol="100" len="-192" key="57"/>
                <note pos="120" pan="0" vol="100" len="-192" key="57"/>
                <note pos="168" pan="0" vol="100" len="-192" key="57"/>
                <note pos="216" pan="0" vol="100" len="-192" key="57"/>
                <note pos="264" pan="0" vol="100" len="-192" key="57"/>
                <note pos="312" pan="0" vol="100" len="-192" key="57"/>
                <note pos="360" pan="0" vol="100" len="-192" key="57"/>
                <note pos="408" pan="0" vol="100" len="-192" key="57"/>
                <note pos="456" pan="0" vol="100" len="-192" key="57"/>
                <note pos="504" pan="0" vol="100" len="-192" key="57"/>
                <note pos="552" pan="0" vol="100" len="-192" key="57"/>
                <note pos="600" pan="0" vol="100" len="-192" key="57"/>
                <note pos="648" pan="0" vol="100" len="-192" key="57"/>
              </pattern>
              <pattern pos="2880" muted="0" steps="64" name="hihat_opened02.ogg" type="0">
                <note pos="48" pan="0" vol="100" len="-192" key="57"/>
                <note pos="144" pan="0" vol="100" len="-192" key="57"/>
                <note pos="240" pan="0" vol="100" len="-192" key="57"/>
                <note pos="336" pan="0" vol="100" len="-192" key="57"/>
              </pattern>
            </track>
            <track solo="0" muted="0" name="snare.wav" type="0">
              <instrumenttrack pan="0" usemasterpitch="1" vol="200" pitchrange="1" fxch="3" pitch="0" basenote="57">
                <instrument name="audiofileprocessor">
                  <audiofileprocessor looped="0" reversed="0" lframe="0" stutter="0" sframe="0" interp="1" src="/home/pass/samples/sillydrums/snare.wav" eframe="1" amp="100"/>
                </instrument>
                <eldata fres="0.5" ftype="0" fcut="14000" fwet="0">
                  <elvol lspd="0.1" latt="0" lspd_syncmode="0" lspd_numerator="4" dec="2" lshp="0" lspd_denominator="4" rel="2" amt="1" userwavefile="" lamt="0" att="0" sustain="1" pdel="0" ctlenvamt="0" x100="0" lpdel="0" hold="2"/>
                  <elcut lspd="0.1" latt="0" lspd_syncmode="0" lspd_numerator="4" dec="0.5" lshp="0" lspd_denominator="4" rel="0.1" amt="0" userwavefile="" lamt="0" att="0" sustain="0.5" pdel="0" ctlenvamt="0" x100="0" lpdel="0" hold="0.5"/>
                  <elres lspd="0.1" latt="0" lspd_syncmode="0" lspd_numerator="4" dec="0.5" lshp="0" lspd_denominator="4" rel="0.1" amt="0" userwavefile="" lamt="0" att="0" sustain="0.5" pdel="0" ctlenvamt="0" x100="0" lpdel="0" hold="0.5"/>
                </eldata>
                <chordcreator chord-enabled="0" chord="0" chordrange="1"/>
                <arpeggiator arptime_syncmode="0" arptime_numerator="4" arpmiss="0" arpmode="0" arptime="200" arp="0" arptime_denominator="4" arp-enabled="0" arpcycle="0" arpdir="0" arpskip="0" arpgate="100" arprange="1"/>
                <midiport fixedoutputnote="-1" outputchannel="1" inputchannel="0" inputcontroller="0" readable="0" outputcontroller="0" fixedinputvelocity="-1" basevelocity="63" fixedoutputvelocity="-1" outputprogram="1" writable="0"/>
                <fxchain numofeffects="0" enabled="0"/>
              </instrumenttrack>
              <pattern pos="0" muted="0" steps="64" name="snare.wav" type="0">
                <note pos="720" pan="0" vol="100" len="-192" key="57"/>
                <note pos="732" pan="0" vol="100" len="-192" key="57"/>
                <note pos="744" pan="0" vol="100" len="-192" key="57"/>
                <note pos="756" pan="0" vol="100" len="-192" key="57"/>
              </pattern>
              <pattern pos="192" muted="0" steps="32" name="snare.wav" type="0">
                <note pos="96" pan="0" vol="100" len="-192" key="57"/>
                <note pos="288" pan="0" vol="100" len="-192" key="57"/>
              </pattern>
              <pattern pos="384" muted="0" steps="64" name="snare.wav" type="0">
                <note pos="48" pan="0" vol="100" len="-192" key="57"/>
                <note pos="144" pan="0" vol="100" len="-192" key="57"/>
                <note pos="240" pan="0" vol="100" len="-192" key="57"/>
                <note pos="336" pan="0" vol="100" len="-192" key="57"/>
                <note pos="432" pan="0" vol="100" len="-192" key="57"/>
                <note pos="528" pan="0" vol="100" len="-192" key="57"/>
                <note pos="624" pan="0" vol="100" len="-192" key="57"/>
                <note pos="720" pan="0" vol="100" len="-192" key="57"/>
              </pattern>
              <pattern pos="576" muted="0" steps="64" name="snare.wav" type="0">
                <note pos="48" pan="0" vol="100" len="-192" key="57"/>
                <note pos="144" pan="0" vol="100" len="-192" key="57"/>
                <note pos="240" pan="0" vol="100" len="-192" key="57"/>
                <note pos="336" pan="0" vol="100" len="-192" key="57"/>
                <note pos="384" pan="0" vol="100" len="-192" key="57"/>
                <note pos="432" pan="0" vol="100" len="-192" key="57"/>
                <note pos="480" pan="0" vol="100" len="-192" key="57"/>
                <note pos="528" pan="0" vol="100" len="-192" key="57"/>
                <note pos="576" pan="0" vol="100" len="-192" key="57"/>
                <note pos="588" pan="0" vol="100" len="-192" key="57"/>
                <note pos="624" pan="0" vol="100" len="-192" key="57"/>
                <note pos="636" pan="0" vol="100" len="-192" key="57"/>
                <note pos="672" pan="0" vol="100" len="-192" key="57"/>
                <note pos="684" pan="0" vol="100" len="-192" key="57"/>
              </pattern>
              <pattern pos="768" muted="0" steps="64" name="snare.wav" type="0">
                <note pos="24" pan="0" vol="100" len="-192" key="57"/>
                <note pos="72" pan="0" vol="100" len="-192" key="57"/>
                <note pos="120" pan="0" vol="100" len="-192" key="57"/>
                <note pos="168" pan="0" vol="100" len="-192" key="57"/>
                <note pos="216" pan="0" vol="100" len="-192" key="57"/>
                <note pos="264" pan="0" vol="100" len="-192" key="57"/>
                <note pos="312" pan="0" vol="100" len="-192" key="57"/>
                <note pos="360" pan="0" vol="100" len="-192" key="57"/>
                <note pos="408" pan="0" vol="100" len="-192" key="57"/>
                <note pos="456" pan="0" vol="100" len="-192" key="57"/>
                <note pos="504" pan="0" vol="100" len="-192" key="57"/>
                <note pos="552" pan="0" vol="100" len="-192" key="57"/>
                <note pos="600" pan="0" vol="100" len="-192" key="57"/>
                <note pos="648" pan="0" vol="100" len="-192" key="57"/>
                <note pos="696" pan="0" vol="100" len="-192" key="57"/>
                <note pos="744" pan="0" vol="100" len="-192" key="57"/>
              </pattern>
              <pattern pos="960" muted="0" steps="32" name="snare.wav" type="0">
                <note pos="24" pan="0" vol="100" len="-192" key="57"/>
                <note pos="72" pan="0" vol="100" len="-192" key="57"/>
                <note pos="120" pan="0" vol="100" len="-192" key="57"/>
                <note pos="168" pan="0" vol="100" len="-192" key="57"/>
                <note pos="192" pan="0" vol="100" len="-192" key="57"/>
                <note pos="204" pan="0" vol="100" len="-192" key="57"/>
                <note pos="240" pan="0" vol="100" len="-192" key="57"/>
                <note pos="252" pan="0" vol="100" len="-192" key="57"/>
                <note pos="288" pan="0" vol="100" len="-192" key="57"/>
                <note pos="300" pan="0" vol="100" len="-192" key="57"/>
              </pattern>
              <pattern pos="1152" muted="0" steps="64" name="snare.wav" type="0">
                <note pos="24" pan="0" vol="100" len="-192" key="57"/>
                <note pos="72" pan="0" vol="100" len="-192" key="57"/>
                <note pos="120" pan="0" vol="100" len="-192" key="57"/>
                <note pos="168" pan="0" vol="100" len="-192" key="57"/>
                <note pos="216" pan="0" vol="100" len="-192" key="57"/>
                <note pos="264" pan="0" vol="100" len="-192" key="57"/>
                <note pos="312" pan="0" vol="100" len="-192" key="57"/>
                <note pos="360" pan="0" vol="100" len="-192" key="57"/>
                <note pos="408" pan="0" vol="100" len="-192" key="57"/>
                <note pos="456" pan="0" vol="100" len="-192" key="57"/>
                <note pos="504" pan="0" vol="100" len="-192" key="57"/>
                <note pos="552" pan="0" vol="100" len="-192" key="57"/>
                <note pos="600" pan="0" vol="100" len="-192" key="57"/>
                <note pos="648" pan="0" vol="100" len="-192" key="57"/>
                <note pos="696" pan="0" vol="100" len="-192" key="57"/>
                <note pos="744" pan="0" vol="100" len="-192" key="57"/>
              </pattern>
              <pattern pos="1344" muted="0" steps="16" name="snare.wav" type="0">
                <note pos="0" pan="0" vol="100" len="-192" key="57"/>
                <note pos="12" pan="0" vol="100" len="-192" key="57"/>
                <note pos="24" pan="0" vol="100" len="-192" key="57"/>
                <note pos="36" pan="0" vol="100" len="-192" key="57"/>
                <note pos="48" pan="0" vol="100" len="-192" key="57"/>
                <note pos="60" pan="0" vol="100" len="-192" key="57"/>
                <note pos="72" pan="0" vol="100" len="-192" key="57"/>
                <note pos="84" pan="0" vol="100" len="-192" key="57"/>
                <note pos="96" pan="0" vol="100" len="-192" key="57"/>
                <note pos="144" pan="0" vol="100" len="-192" key="57"/>
              </pattern>
              <pattern pos="1536" muted="0" steps="64" name="snare.wav" type="0">
                <note pos="24" pan="0" vol="100" len="-192" key="57"/>
                <note pos="72" pan="0" vol="100" len="-192" key="57"/>
                <note pos="120" pan="0" vol="100" len="-192" key="57"/>
                <note pos="168" pan="0" vol="100" len="-192" key="57"/>
                <note pos="216" pan="0" vol="100" len="-192" key="57"/>
                <note pos="264" pan="0" vol="100" len="-192" key="57"/>
                <note pos="312" pan="0" vol="100" len="-192" key="57"/>
                <note pos="360" pan="0" vol="100" len="-192" key="57"/>
                <note pos="408" pan="0" vol="100" len="-192" key="57"/>
                <note pos="456" pan="0" vol="100" len="-192" key="57"/>
                <note pos="504" pan="0" vol="100" len="-192" key="57"/>
                <note pos="552" pan="0" vol="100" len="-192" key="57"/>
                <note pos="600" pan="0" vol="100" len="-192" key="57"/>
                <note pos="648" pan="0" vol="100" len="-192" key="57"/>
                <note pos="696" pan="0" vol="100" len="-192" key="57"/>
                <note pos="744" pan="0" vol="100" len="-192" key="57"/>
              </pattern>
              <pattern pos="1728" muted="0" steps="64" name="snare.wav" type="0">
                <note pos="24" pan="0" vol="100" len="-192" key="57"/>
                <note pos="72" pan="0" vol="100" len="-192" key="57"/>
                <note pos="120" pan="0" vol="100" len="-192" key="57"/>
                <note pos="168" pan="0" vol="100" len="-192" key="57"/>
                <note pos="216" pan="0" vol="100" len="-192" key="57"/>
                <note pos="264" pan="0" vol="100" len="-192" key="57"/>
                <note pos="312" pan="0" vol="100" len="-192" key="57"/>
                <note pos="360" pan="0" vol="100" len="-192" key="57"/>
                <note pos="408" pan="0" vol="100" len="-192" key="57"/>
                <note pos="456" pan="0" vol="100" len="-192" key="57"/>
                <note pos="504" pan="0" vol="100" len="-192" key="57"/>
                <note pos="552" pan="0" vol="100" len="-192" key="57"/>
                <note pos="600" pan="0" vol="100" len="-192" key="57"/>
                <note pos="648" pan="0" vol="100" len="-192" key="57"/>
                <note pos="696" pan="0" vol="100" len="-192" key="57"/>
                <note pos="744" pan="0" vol="100" len="-192" key="57"/>
              </pattern>
              <pattern pos="1920" muted="0" steps="16" name="snare.wav" type="0"/>
              <pattern pos="2112" muted="0" steps="32" name="snare.wav" type="0">
                <note pos="0" pan="0" vol="100" len="-192" key="57"/>
                <note pos="48" pan="0" vol="100" len="-192" key="57"/>
                <note pos="96" pan="0" vol="100" len="-192" key="57"/>
                <note pos="144" pan="0" vol="100" len="-192" key="57"/>
                <note pos="192" pan="0" vol="100" len="-192" key="57"/>
                <note pos="240" pan="0" vol="100" len="-192" key="57"/>
                <note pos="288" pan="0" vol="100" len="-192" key="57"/>
                <note pos="336" pan="0" vol="100" len="-192" key="57"/>
              </pattern>
              <pattern pos="2304" muted="0" steps="32" name="snare.wav" type="0">
                <note pos="0" pan="0" vol="100" len="-192" key="57"/>
                <note pos="48" pan="0" vol="100" len="-192" key="57"/>
                <note pos="96" pan="0" vol="100" len="-192" key="57"/>
                <note pos="144" pan="0" vol="100" len="-192" key="57"/>
                <note pos="168" pan="0" vol="100" len="-192" key="57"/>
                <note pos="216" pan="0" vol="100" len="-192" key="57"/>
                <note pos="264" pan="0" vol="100" len="-192" key="57"/>
                <note pos="312" pan="0" vol="100" len="-192" key="57"/>
                <note pos="360" pan="0" vol="100" len="-192" key="57"/>
              </pattern>
              <pattern pos="2496" muted="0" steps="16" name="snare.wav" type="0"/>
              <pattern pos="2688" muted="0" steps="96" name="snare.wav" type="0">
                <note pos="48" pan="0" vol="100" len="-192" key="57"/>
                <note pos="144" pan="0" vol="100" len="-192" key="57"/>
                <note pos="240" pan="0" vol="100" len="-192" key="57"/>
                <note pos="336" pan="0" vol="100" len="-192" key="57"/>
                <note pos="432" pan="0" vol="100" len="-192" key="57"/>
                <note pos="528" pan="0" vol="100" len="-192" key="57"/>
                <note pos="624" pan="0" vol="100" len="-192" key="57"/>
                <note pos="672" pan="0" vol="100" len="-192" key="57"/>
                <note pos="768" pan="0" vol="100" len="-192" key="57"/>
                <note pos="864" pan="0" vol="100" len="-192" key="57"/>
                <note pos="960" pan="0" vol="100" len="-192" key="57"/>
                <note pos="972" pan="0" vol="100" len="-192" key="57"/>
                <note pos="1032" pan="0" vol="100" len="-192" key="57"/>
                <note pos="1044" pan="0" vol="100" len="-192" key="57"/>
                <note pos="1104" pan="0" vol="100" len="-192" key="57"/>
                <note pos="1116" pan="0" vol="100" len="-192" key="57"/>
                <note pos="1128" pan="0" vol="100" len="-192" key="57"/>
                <note pos="1140" pan="0" vol="100" len="-192" key="57"/>
              </pattern>
              <pattern pos="2880" muted="0" steps="64" name="snare.wav" type="0">
                <note pos="0" pan="0" vol="100" len="-192" key="57"/>
                <note pos="48" pan="0" vol="100" len="-192" key="57"/>
                <note pos="96" pan="0" vol="100" len="-192" key="57"/>
                <note pos="144" pan="0" vol="100" len="-192" key="57"/>
                <note pos="192" pan="0" vol="100" len="-192" key="57"/>
                <note pos="240" pan="0" vol="100" len="-192" key="57"/>
                <note pos="288" pan="0" vol="100" len="-192" key="57"/>
                <note pos="336" pan="0" vol="100" len="-192" key="57"/>
                <note pos="384" pan="0" vol="100" len="-192" key="57"/>
                <note pos="432" pan="0" vol="100" len="-192" key="57"/>
                <note pos="480" pan="0" vol="100" len="-192" key="57"/>
                <note pos="528" pan="0" vol="100" len="-192" key="57"/>
                <note pos="576" pan="0" vol="100" len="-192" key="57"/>
                <note pos="588" pan="0" vol="100" len="-192" key="57"/>
                <note pos="624" pan="0" vol="100" len="-192" key="57"/>
                <note pos="636" pan="0" vol="100" len="-192" key="57"/>
              </pattern>
            </track>
            <track solo="0" muted="0" name="crash1.wav" type="0">
              <instrumenttrack pan="0" usemasterpitch="1" vol="71.2" pitchrange="1" fxch="4" pitch="0" basenote="57">
                <instrument name="audiofileprocessor">
                  <audiofileprocessor looped="0" reversed="0" lframe="0" stutter="0" sframe="0" interp="1" src="/home/pass/samples/sillydrums/crash1.wav" eframe="1" amp="100"/>
                </instrument>
                <eldata fres="0.5" ftype="0" fcut="14000" fwet="0">
                  <elvol lspd="0.1" latt="0" lspd_syncmode="0" lspd_numerator="4" dec="2" lshp="0" lspd_denominator="4" rel="2" amt="1" userwavefile="" lamt="0" att="0" sustain="1" pdel="0" ctlenvamt="0" x100="0" lpdel="0" hold="2"/>
                  <elcut lspd="0.1" latt="0" lspd_syncmode="0" lspd_numerator="4" dec="0.5" lshp="0" lspd_denominator="4" rel="0.1" amt="0" userwavefile="" lamt="0" att="0" sustain="0.5" pdel="0" ctlenvamt="0" x100="0" lpdel="0" hold="0.5"/>
                  <elres lspd="0.1" latt="0" lspd_syncmode="0" lspd_numerator="4" dec="0.5" lshp="0" lspd_denominator="4" rel="0.1" amt="0" userwavefile="" lamt="0" att="0" sustain="0.5" pdel="0" ctlenvamt="0" x100="0" lpdel="0" hold="0.5"/>
                </eldata>
                <chordcreator chord-enabled="0" chord="0" chordrange="1"/>
                <arpeggiator arptime_syncmode="0" arptime_numerator="4" arpmiss="0" arpmode="0" arptime="200" arp="0" arptime_denominator="4" arp-enabled="0" arpcycle="0" arpdir="0" arpskip="0" arpgate="100" arprange="1"/>
                <midiport fixedoutputnote="-1" outputchannel="1" inputchannel="0" inputcontroller="0" readable="0" outputcontroller="0" fixedinputvelocity="-1" basevelocity="63" fixedoutputvelocity="-1" outputprogram="1" writable="0"/>
                <fxchain numofeffects="0" enabled="0"/>
              </instrumenttrack>
              <pattern pos="0" muted="0" steps="48" name="crash1.wav" type="0">
                <note pos="0" pan="0" vol="100" len="-192" key="57"/>
                <note pos="384" pan="0" vol="100" len="-192" key="57"/>
              </pattern>
              <pattern pos="192" muted="0" steps="16" name="crash1.wav" type="0">
                <note pos="0" pan="0" vol="100" len="-192" key="57"/>
              </pattern>
              <pattern pos="384" muted="0" steps="16" name="crash1.wav" type="0">
                <note pos="0" pan="0" vol="100" len="-192" key="57"/>
              </pattern>
              <pattern pos="576" muted="0" steps="16" name="crash1.wav" type="0">
                <note pos="0" pan="0" vol="100" len="-192" key="57"/>
              </pattern>
              <pattern pos="768" muted="0" steps="32" name="crash1.wav" type="0">
                <note pos="0" pan="0" vol="100" len="-192" key="57"/>
                <note pos="372" pan="0" vol="20" len="-192" key="57"/>
                <note pos="384" pan="0" vol="20" len="-192" key="57"/>
              </pattern>
              <pattern pos="960" muted="0" steps="32" name="crash1.wav" type="0">
                <note pos="384" pan="0" vol="20" len="-192" key="57"/>
              </pattern>
              <pattern pos="1152" muted="0" steps="16" name="crash1.wav" type="0">
                <note pos="0" pan="0" vol="100" len="-192" key="57"/>
              </pattern>
              <pattern pos="1344" muted="0" steps="16" name="crash1.wav" type="0"/>
              <pattern pos="1536" muted="0" steps="48" name="crash1.wav" type="0">
                <note pos="0" pan="0" vol="100" len="-192" key="57"/>
                <note pos="384" pan="0" vol="100" len="-192" key="57"/>
              </pattern>
              <pattern pos="1728" muted="0" steps="16" name="crash1.wav" type="0">
                <note pos="0" pan="0" vol="100" len="-192" key="57"/>
              </pattern>
              <pattern pos="1920" muted="0" steps="16" name="crash1.wav" type="0"/>
              <pattern pos="2112" muted="0" steps="16" name="crash1.wav" type="0">
                <note pos="0" pan="0" vol="100" len="-192" key="57"/>
              </pattern>
              <pattern pos="2304" muted="0" steps="16" name="crash1.wav" type="0">
                <note pos="0" pan="0" vol="100" len="-192" key="57"/>
              </pattern>
              <pattern pos="2496" muted="0" steps="16" name="crash1.wav" type="0"/>
              <pattern pos="2688" muted="0" steps="96" name="crash1.wav" type="0">
                <note pos="0" pan="0" vol="100" len="-192" key="57"/>
                <note pos="768" pan="0" vol="100" len="-192" key="57"/>
              </pattern>
              <pattern pos="2880" muted="0" steps="64" name="crash1.wav" type="0">
                <note pos="0" pan="0" vol="100" len="-192" key="57"/>
                <note pos="192" pan="0" vol="100" len="-192" key="57"/>
                <note pos="384" pan="0" vol="100" len="-192" key="57"/>
                <note pos="480" pan="0" vol="100" len="-192" key="57"/>
              </pattern>
            </track>
            <track solo="0" muted="0" name="crash1m" type="0">
              <instrumenttrack pan="0" usemasterpitch="1" vol="71.2" pitchrange="1" fxch="4" pitch="0" basenote="57">
                <instrument name="audiofileprocessor">
                  <audiofileprocessor looped="0" reversed="0" lframe="0" stutter="0" sframe="0" interp="1" src="/home/pass/samples/sillydrums/crash1.wav" eframe="1" amp="100"/>
                </instrument>
                <eldata fres="0.5" ftype="0" fcut="14000" fwet="0">
                  <elvol lspd="0.1" latt="0" lspd_syncmode="0" lspd_numerator="4" dec="0.216" lshp="0" lspd_denominator="4" rel="0.208" amt="1" userwavefile="" lamt="0" att="0" sustain="0" pdel="0" ctlenvamt="0" x100="0" lpdel="0" hold="0.232"/>
                  <elcut lspd="0.1" latt="0" lspd_syncmode="0" lspd_numerator="4" dec="0.5" lshp="0" lspd_denominator="4" rel="0.1" amt="0" userwavefile="" lamt="0" att="0" sustain="0.5" pdel="0" ctlenvamt="0" x100="0" lpdel="0" hold="0.5"/>
                  <elres lspd="0.1" latt="0" lspd_syncmode="0" lspd_numerator="4" dec="0.5" lshp="0" lspd_denominator="4" rel="0.1" amt="0" userwavefile="" lamt="0" att="0" sustain="0.5" pdel="0" ctlenvamt="0" x100="0" lpdel="0" hold="0.5"/>
                </eldata>
                <chordcreator chord-enabled="0" chord="0" chordrange="1"/>
                <arpeggiator arptime_syncmode="0" arptime_numerator="4" arpmiss="0" arpmode="0" arptime="200" arp="0" arptime_denominator="4" arp-enabled="0" arpcycle="0" arpdir="0" arpskip="0" arpgate="100" arprange="1"/>
                <midiport fixedoutputnote="-1" outputchannel="1" inputchannel="0" inputcontroller="0" readable="0" outputcontroller="0" fixedinputvelocity="-1" basevelocity="63" fixedoutputvelocity="-1" outputprogram="1" writable="0"/>
                <fxchain numofeffects="0" enabled="0"/>
              </instrumenttrack>
              <pattern pos="0" muted="0" steps="16" name="crash1m" type="0"/>
              <pattern pos="192" muted="0" steps="16" name="crash1m" type="0"/>
              <pattern pos="384" muted="0" steps="16" name="crash1m" type="0"/>
              <pattern pos="576" muted="0" steps="16" name="crash1m" type="0"/>
              <pattern pos="768" muted="0" steps="16" name="crash1m" type="0"/>
              <pattern pos="960" muted="0" steps="32" name="crash1m" type="0"/>
              <pattern pos="1152" muted="0" steps="16" name="crash1m" type="0"/>
              <pattern pos="1344" muted="0" steps="16" name="crash1m" type="0"/>
              <pattern pos="1536" muted="0" steps="16" name="crash1m" type="0"/>
              <pattern pos="1728" muted="0" steps="16" name="crash1m" type="0"/>
              <pattern pos="1920" muted="0" steps="16" name="crash1m" type="0">
                <note pos="0" pan="0" vol="100" len="-192" key="57"/>
              </pattern>
              <pattern pos="2112" muted="0" steps="16" name="crash1m" type="0"/>
              <pattern pos="2304" muted="0" steps="16" name="crash1m" type="0"/>
              <pattern pos="2496" muted="0" steps="16" name="crash1m" type="0">
                <note pos="0" pan="0" vol="100" len="-192" key="57"/>
                <note pos="72" pan="0" vol="100" len="-192" key="57"/>
              </pattern>
              <pattern pos="2688" muted="0" steps="96" name="crash1m" type="0"/>
              <pattern pos="2880" muted="0" steps="64" name="crash1m" type="0">
                <note pos="672" pan="0" vol="100" len="-192" key="57"/>
              </pattern>
            </track>
            <track solo="0" muted="0" name="crash2.wav" type="0">
              <instrumenttrack pan="28" usemasterpitch="1" vol="76.8" pitchrange="1" fxch="5" pitch="0" basenote="57">
                <instrument name="audiofileprocessor">
                  <audiofileprocessor looped="0" reversed="0" lframe="0" stutter="0" sframe="0" interp="1" src="/home/pass/samples/sillydrums/crash2.wav" eframe="1" amp="100"/>
                </instrument>
                <eldata fres="0.5" ftype="0" fcut="14000" fwet="0">
                  <elvol lspd="0.1" latt="0" lspd_syncmode="0" lspd_numerator="4" dec="2" lshp="0" lspd_denominator="4" rel="2" amt="1" userwavefile="" lamt="0" att="0" sustain="1" pdel="0" ctlenvamt="0" x100="0" lpdel="0" hold="2"/>
                  <elcut lspd="0.1" latt="0" lspd_syncmode="0" lspd_numerator="4" dec="0.5" lshp="0" lspd_denominator="4" rel="0.1" amt="0" userwavefile="" lamt="0" att="0" sustain="0.5" pdel="0" ctlenvamt="0" x100="0" lpdel="0" hold="0.5"/>
                  <elres lspd="0.1" latt="0" lspd_syncmode="0" lspd_numerator="4" dec="0.5" lshp="0" lspd_denominator="4" rel="0.1" amt="0" userwavefile="" lamt="0" att="0" sustain="0.5" pdel="0" ctlenvamt="0" x100="0" lpdel="0" hold="0.5"/>
                </eldata>
                <chordcreator chord-enabled="0" chord="0" chordrange="1"/>
                <arpeggiator arptime_syncmode="0" arptime_numerator="4" arpmiss="0" arpmode="0" arptime="200" arp="0" arptime_denominator="4" arp-enabled="0" arpcycle="0" arpdir="0" arpskip="0" arpgate="100" arprange="1"/>
                <midiport fixedoutputnote="-1" outputchannel="1" inputchannel="0" inputcontroller="0" readable="0" outputcontroller="0" fixedinputvelocity="-1" basevelocity="63" fixedoutputvelocity="-1" outputprogram="1" writable="0"/>
                <fxchain numofeffects="0" enabled="0"/>
              </instrumenttrack>
              <pattern pos="0" muted="0" steps="32" name="crash2.wav" type="0">
                <note pos="192" pan="0" vol="100" len="-192" key="57"/>
              </pattern>
              <pattern pos="192" muted="0" steps="32" name="crash2.wav" type="0">
                <note pos="192" pan="0" vol="100" len="-192" key="57"/>
              </pattern>
              <pattern pos="384" muted="0" steps="48" name="crash2.wav" type="0">
                <note pos="384" pan="0" vol="100" len="-192" key="57"/>
              </pattern>
              <pattern pos="576" muted="0" steps="48" name="crash2.wav" type="0">
                <note pos="384" pan="0" vol="100" len="-192" key="57"/>
              </pattern>
              <pattern pos="768" muted="0" steps="48" name="crash2.wav" type="0">
                <note pos="384" pan="0" vol="100" len="-192" key="57"/>
              </pattern>
              <pattern pos="960" muted="0" steps="32" name="crash2.wav" type="0">
                <note pos="0" pan="0" vol="100" len="-192" key="57"/>
              </pattern>
              <pattern pos="1152" muted="0" steps="48" name="crash2.wav" type="0">
                <note pos="384" pan="0" vol="100" len="-192" key="57"/>
              </pattern>
              <pattern pos="1344" muted="0" steps="16" name="crash2.wav" type="0"/>
              <pattern pos="1536" muted="0" steps="32" name="crash2.wav" type="0">
                <note pos="192" pan="0" vol="100" len="-192" key="57"/>
              </pattern>
              <pattern pos="1728" muted="0" steps="48" name="crash2.wav" type="0">
                <note pos="384" pan="0" vol="100" len="-192" key="57"/>
              </pattern>
              <pattern pos="1920" muted="0" steps="16" name="crash2.wav" type="0"/>
              <pattern pos="2112" muted="0" steps="32" name="crash2.wav" type="0">
                <note pos="192" pan="0" vol="100" len="-192" key="57"/>
              </pattern>
              <pattern pos="2304" muted="0" steps="16" name="crash2.wav" type="0">
                <note pos="168" pan="0" vol="100" len="-192" key="57"/>
              </pattern>
              <pattern pos="2496" muted="0" steps="16" name="crash2.wav" type="0"/>
              <pattern pos="2688" muted="0" steps="96" name="crash2.wav" type="0">
                <note pos="384" pan="0" vol="100" len="-192" key="57"/>
                <note pos="864" pan="0" vol="100" len="-192" key="57"/>
              </pattern>
              <pattern pos="2880" muted="0" steps="64" name="crash2.wav" type="0">
                <note pos="96" pan="0" vol="100" len="-192" key="57"/>
                <note pos="288" pan="0" vol="100" len="-192" key="57"/>
                <note pos="432" pan="0" vol="100" len="-192" key="57"/>
                <note pos="528" pan="0" vol="100" len="-192" key="57"/>
              </pattern>
            </track>
            <track solo="0" muted="0" name="china.wav" type="0">
              <instrumenttrack pan="0" usemasterpitch="1" vol="130.4" pitchrange="1" fxch="6" pitch="0" basenote="57">
                <instrument name="audiofileprocessor">
                  <audiofileprocessor looped="0" reversed="0" lframe="0" stutter="0" sframe="0" interp="1" src="/home/pass/samples/sillydrums/china.wav" eframe="1" amp="100"/>
                </instrument>
                <eldata fres="0.5" ftype="0" fcut="14000" fwet="0">
                  <elvol lspd="0.1" latt="0" lspd_syncmode="0" lspd_numerator="4" dec="2" lshp="0" lspd_denominator="4" rel="2" amt="1" userwavefile="" lamt="0" att="0" sustain="1" pdel="0" ctlenvamt="0" x100="0" lpdel="0" hold="2"/>
                  <elcut lspd="0.1" latt="0" lspd_syncmode="0" lspd_numerator="4" dec="0.5" lshp="0" lspd_denominator="4" rel="0.1" amt="0" userwavefile="" lamt="0" att="0" sustain="0.5" pdel="0" ctlenvamt="0" x100="0" lpdel="0" hold="0.5"/>
                  <elres lspd="0.1" latt="0" lspd_syncmode="0" lspd_numerator="4" dec="0.5" lshp="0" lspd_denominator="4" rel="0.1" amt="0" userwavefile="" lamt="0" att="0" sustain="0.5" pdel="0" ctlenvamt="0" x100="0" lpdel="0" hold="0.5"/>
                </eldata>
                <chordcreator chord-enabled="0" chord="0" chordrange="1"/>
                <arpeggiator arptime_syncmode="0" arptime_numerator="4" arpmiss="0" arpmode="0" arptime="200" arp="0" arptime_denominator="4" arp-enabled="0" arpcycle="0" arpdir="0" arpskip="0" arpgate="100" arprange="1"/>
                <midiport fixedoutputnote="-1" outputchannel="1" inputchannel="0" inputcontroller="0" readable="0" outputcontroller="0" fixedinputvelocity="-1" basevelocity="63" fixedoutputvelocity="-1" outputprogram="1" writable="0"/>
                <fxchain numofeffects="0" enabled="0"/>
              </instrumenttrack>
              <pattern pos="0" muted="0" steps="16" name="china.wav" type="0"/>
              <pattern pos="192" muted="0" steps="16" name="china.wav" type="0"/>
              <pattern pos="384" muted="0" steps="16" name="china.wav" type="0"/>
              <pattern pos="576" muted="0" steps="16" name="china.wav" type="0"/>
              <pattern pos="768" muted="0" steps="16" name="china.wav" type="0"/>
              <pattern pos="960" muted="0" steps="32" name="china.wav" type="0"/>
              <pattern pos="1152" muted="0" steps="16" name="china.wav" type="0"/>
              <pattern pos="1344" muted="0" steps="16" name="china.wav" type="0"/>
              <pattern pos="1536" muted="0" steps="16" name="china.wav" type="0"/>
              <pattern pos="1728" muted="0" steps="16" name="china.wav" type="0"/>
              <pattern pos="1920" muted="0" steps="16" name="china.wav" type="0"/>
              <pattern pos="2112" muted="0" steps="16" name="china.wav" type="0"/>
              <pattern pos="2304" muted="0" steps="16" name="china.wav" type="0"/>
              <pattern pos="2496" muted="0" steps="16" name="china.wav" type="0"/>
              <pattern pos="2688" muted="0" steps="96" name="china.wav" type="0"/>
              <pattern pos="2880" muted="0" steps="64" name="china.wav" type="0"/>
            </track>
            <track solo="0" muted="0" name="hiTom.wav" type="0">
              <instrumenttrack pan="0" usemasterpitch="1" vol="130.4" pitchrange="1" fxch="7" pitch="0" basenote="57">
                <instrument name="audiofileprocessor">
                  <audiofileprocessor looped="0" reversed="0" lframe="0" stutter="0" sframe="0" interp="1" src="/home/pass/samples/sillydrums/hiTom.wav" eframe="1" amp="100"/>
                </instrument>
                <eldata fres="0.5" ftype="0" fcut="14000" fwet="0">
                  <elvol lspd="0.1" latt="0" lspd_syncmode="0" lspd_numerator="4" dec="2" lshp="0" lspd_denominator="4" rel="2" amt="1" userwavefile="" lamt="0" att="0" sustain="1" pdel="0" ctlenvamt="0" x100="0" lpdel="0" hold="2"/>
                  <elcut lspd="0.1" latt="0" lspd_syncmode="0" lspd_numerator="4" dec="0.5" lshp="0" lspd_denominator="4" rel="0.1" amt="0" userwavefile="" lamt="0" att="0" sustain="0.5" pdel="0" ctlenvamt="0" x100="0" lpdel="0" hold="0.5"/>
                  <elres lspd="0.1" latt="0" lspd_syncmode="0" lspd_numerator="4" dec="0.5" lshp="0" lspd_denominator="4" rel="0.1" amt="0" userwavefile="" lamt="0" att="0" sustain="0.5" pdel="0" ctlenvamt="0" x100="0" lpdel="0" hold="0.5"/>
                </eldata>
                <chordcreator chord-enabled="0" chord="0" chordrange="1"/>
                <arpeggiator arptime_syncmode="0" arptime_numerator="4" arpmiss="0" arpmode="0" arptime="200" arp="0" arptime_denominator="4" arp-enabled="0" arpcycle="0" arpdir="0" arpskip="0" arpgate="100" arprange="1"/>
                <midiport fixedoutputnote="-1" outputchannel="1" inputchannel="0" inputcontroller="0" readable="0" outputcontroller="0" fixedinputvelocity="-1" basevelocity="63" fixedoutputvelocity="-1" outputprogram="1" writable="0"/>
                <fxchain numofeffects="0" enabled="0"/>
              </instrumenttrack>
              <pattern pos="0" muted="0" steps="16" name="hiTom.wav" type="0"/>
              <pattern pos="192" muted="0" steps="16" name="hiTom.wav" type="0"/>
              <pattern pos="384" muted="0" steps="16" name="hiTom.wav" type="0"/>
              <pattern pos="576" muted="0" steps="64" name="hiTom.wav" type="0">
                <note pos="696" pan="0" vol="100" len="-192" key="57"/>
                <note pos="708" pan="0" vol="100" len="-192" key="57"/>
              </pattern>
              <pattern pos="768" muted="0" steps="16" name="hiTom.wav" type="0"/>
              <pattern pos="960" muted="0" steps="32" name="hiTom.wav" type="0">
                <note pos="312" pan="0" vol="100" len="-192" key="57"/>
                <note pos="324" pan="0" vol="100" len="-192" key="57"/>
              </pattern>
              <pattern pos="1152" muted="0" steps="16" name="hiTom.wav" type="0"/>
              <pattern pos="1344" muted="0" steps="16" name="hiTom.wav" type="0"/>
              <pattern pos="1536" muted="0" steps="16" name="hiTom.wav" type="0"/>
              <pattern pos="1728" muted="0" steps="16" name="hiTom.wav" type="0"/>
              <pattern pos="1920" muted="0" steps="16" name="hiTom.wav" type="0"/>
              <pattern pos="2112" muted="0" steps="16" name="hiTom.wav" type="0"/>
              <pattern pos="2304" muted="0" steps="16" name="hiTom.wav" type="0"/>
              <pattern pos="2496" muted="0" steps="16" name="hiTom.wav" type="0"/>
              <pattern pos="2688" muted="0" steps="96" name="hiTom.wav" type="0">
                <note pos="696" pan="0" vol="100" len="-192" key="57"/>
                <note pos="792" pan="0" vol="100" len="-192" key="57"/>
                <note pos="816" pan="0" vol="100" len="-192" key="57"/>
                <note pos="840" pan="0" vol="100" len="-192" key="57"/>
                <note pos="984" pan="0" vol="100" len="-192" key="57"/>
                <note pos="996" pan="0" vol="100" len="-192" key="57"/>
                <note pos="1008" pan="0" vol="100" len="-192" key="57"/>
                <note pos="1020" pan="0" vol="100" len="-192" key="57"/>
              </pattern>
              <pattern pos="2880" muted="0" steps="64" name="hiTom.wav" type="0">
                <note pos="396" pan="0" vol="100" len="-192" key="57"/>
                <note pos="408" pan="0" vol="100" len="-192" key="57"/>
                <note pos="420" pan="0" vol="100" len="-192" key="57"/>
                <note pos="444" pan="0" vol="100" len="-192" key="57"/>
                <note pos="456" pan="0" vol="100" len="-192" key="57"/>
                <note pos="468" pan="0" vol="100" len="-192" key="57"/>
                <note pos="600" pan="0" vol="100" len="-192" key="57"/>
              </pattern>
            </track>
            <track solo="0" muted="0" name="midTom.wav" type="0">
              <instrumenttrack pan="0" usemasterpitch="1" vol="130.4" pitchrange="1" fxch="8" pitch="0" basenote="57">
                <instrument name="audiofileprocessor">
                  <audiofileprocessor looped="0" reversed="0" lframe="0" stutter="0" sframe="0" interp="1" src="/home/pass/samples/sillydrums/midTom.wav" eframe="1" amp="100"/>
                </instrument>
                <eldata fres="0.5" ftype="0" fcut="14000" fwet="0">
                  <elvol lspd="0.1" latt="0" lspd_syncmode="0" lspd_numerator="4" dec="2" lshp="0" lspd_denominator="4" rel="2" amt="1" userwavefile="" lamt="0" att="0" sustain="1" pdel="0" ctlenvamt="0" x100="0" lpdel="0" hold="2"/>
                  <elcut lspd="0.1" latt="0" lspd_syncmode="0" lspd_numerator="4" dec="0.5" lshp="0" lspd_denominator="4" rel="0.1" amt="0" userwavefile="" lamt="0" att="0" sustain="0.5" pdel="0" ctlenvamt="0" x100="0" lpdel="0" hold="0.5"/>
                  <elres lspd="0.1" latt="0" lspd_syncmode="0" lspd_numerator="4" dec="0.5" lshp="0" lspd_denominator="4" rel="0.1" amt="0" userwavefile="" lamt="0" att="0" sustain="0.5" pdel="0" ctlenvamt="0" x100="0" lpdel="0" hold="0.5"/>
                </eldata>
                <chordcreator chord-enabled="0" chord="0" chordrange="1"/>
                <arpeggiator arptime_syncmode="0" arptime_numerator="4" arpmiss="0" arpmode="0" arptime="200" arp="0" arptime_denominator="4" arp-enabled="0" arpcycle="0" arpdir="0" arpskip="0" arpgate="100" arprange="1"/>
                <midiport fixedoutputnote="-1" outputchannel="1" inputchannel="0" inputcontroller="0" readable="0" outputcontroller="0" fixedinputvelocity="-1" basevelocity="63" fixedoutputvelocity="-1" outputprogram="1" writable="0"/>
                <fxchain numofeffects="0" enabled="0"/>
              </instrumenttrack>
              <pattern pos="0" muted="0" steps="32" name="midTom.wav" type="0">
                <note pos="336" pan="0" vol="100" len="-192" key="57"/>
                <note pos="360" pan="0" vol="100" len="-192" key="57"/>
              </pattern>
              <pattern pos="192" muted="0" steps="32" name="midTom.wav" type="0">
                <note pos="336" pan="0" vol="100" len="-192" key="57"/>
              </pattern>
              <pattern pos="384" muted="0" steps="16" name="midTom.wav" type="0"/>
              <pattern pos="576" muted="0" steps="64" name="midTom.wav" type="0">
                <note pos="600" pan="0" vol="100" len="-192" key="57"/>
                <note pos="612" pan="0" vol="100" len="-192" key="57"/>
                <note pos="720" pan="0" vol="100" len="-192" key="57"/>
                <note pos="732" pan="0" vol="100" len="-192" key="57"/>
              </pattern>
              <pattern pos="768" muted="0" steps="16" name="midTom.wav" type="0"/>
              <pattern pos="960" muted="0" steps="32" name="midTom.wav" type="0">
                <note pos="216" pan="0" vol="100" len="-192" key="57"/>
                <note pos="228" pan="0" vol="100" len="-192" key="57"/>
                <note pos="264" pan="0" vol="100" len="-192" key="57"/>
                <note pos="276" pan="0" vol="100" len="-192" key="57"/>
                <note pos="336" pan="0" vol="100" len="-192" key="57"/>
                <note pos="348" pan="0" vol="100" len="-192" key="57"/>
              </pattern>
              <pattern pos="1152" muted="0" steps="16" name="midTom.wav" type="0"/>
              <pattern pos="1344" muted="0" steps="16" name="midTom.wav" type="0">
                <note pos="108" pan="0" vol="100" len="-192" key="57"/>
                <note pos="120" pan="0" vol="100" len="-192" key="57"/>
                <note pos="132" pan="0" vol="100" len="-192" key="57"/>
              </pattern>
              <pattern pos="1536" muted="0" steps="16" name="midTom.wav" type="0"/>
              <pattern pos="1728" muted="0" steps="16" name="midTom.wav" type="0"/>
              <pattern pos="1920" muted="0" steps="16" name="midTom.wav" type="0"/>
              <pattern pos="2112" muted="0" steps="16" name="midTom.wav" type="0"/>
              <pattern pos="2304" muted="0" steps="16" name="midTom.wav" type="0"/>
              <pattern pos="2496" muted="0" steps="16" name="midTom.wav" type="0"/>
              <pattern pos="2688" muted="0" steps="96" name="midTom.wav" type="0">
                <note pos="696" pan="0" vol="100" len="-192" key="57"/>
                <note pos="720" pan="0" vol="100" len="-192" key="57"/>
                <note pos="744" pan="0" vol="100" len="-192" key="57"/>
                <note pos="792" pan="0" vol="100" len="-192" key="57"/>
                <note pos="816" pan="0" vol="100" len="-192" key="57"/>
                <note pos="840" pan="0" vol="100" len="-192" key="57"/>
                <note pos="888" pan="0" vol="100" len="-192" key="57"/>
                <note pos="1056" pan="0" vol="100" len="-192" key="57"/>
                <note pos="1068" pan="0" vol="100" len="-192" key="57"/>
                <note pos="1080" pan="0" vol="100" len="-192" key="57"/>
                <note pos="1092" pan="0" vol="100" len="-192" key="57"/>
              </pattern>
              <pattern pos="2880" muted="0" steps="64" name="midTom.wav" type="0">
                <note pos="492" pan="0" vol="100" len="-192" key="57"/>
                <note pos="504" pan="0" vol="100" len="-192" key="57"/>
                <note pos="516" pan="0" vol="100" len="-192" key="57"/>
                <note pos="540" pan="0" vol="100" len="-192" key="57"/>
                <note pos="552" pan="0" vol="100" len="-192" key="57"/>
                <note pos="564" pan="0" vol="100" len="-192" key="57"/>
                <note pos="612" pan="0" vol="100" len="-192" key="57"/>
                <note pos="648" pan="0" vol="100" len="-192" key="57"/>
              </pattern>
            </track>
            <track solo="0" muted="0" name="loTom.wav" type="0">
              <instrumenttrack pan="0" usemasterpitch="1" vol="130.4" pitchrange="1" fxch="9" pitch="0" basenote="57">
                <instrument name="audiofileprocessor">
                  <audiofileprocessor looped="0" reversed="0" lframe="0" stutter="0" sframe="0" interp="1" src="/home/pass/samples/sillydrums/loTom.wav" eframe="1" amp="100"/>
                </instrument>
                <eldata fres="0.5" ftype="0" fcut="14000" fwet="0">
                  <elvol lspd="0.1" latt="0" lspd_syncmode="0" lspd_numerator="4" dec="2" lshp="0" lspd_denominator="4" rel="2" amt="1" userwavefile="" lamt="0" att="0" sustain="1" pdel="0" ctlenvamt="0" x100="0" lpdel="0" hold="2"/>
                  <elcut lspd="0.1" latt="0" lspd_syncmode="0" lspd_numerator="4" dec="0.5" lshp="0" lspd_denominator="4" rel="0.1" amt="0" userwavefile="" lamt="0" att="0" sustain="0.5" pdel="0" ctlenvamt="0" x100="0" lpdel="0" hold="0.5"/>
                  <elres lspd="0.1" latt="0" lspd_syncmode="0" lspd_numerator="4" dec="0.5" lshp="0" lspd_denominator="4" rel="0.1" amt="0" userwavefile="" lamt="0" att="0" sustain="0.5" pdel="0" ctlenvamt="0" x100="0" lpdel="0" hold="0.5"/>
                </eldata>
                <chordcreator chord-enabled="0" chord="0" chordrange="1"/>
                <arpeggiator arptime_syncmode="0" arptime_numerator="4" arpmiss="0" arpmode="0" arptime="200" arp="0" arptime_denominator="4" arp-enabled="0" arpcycle="0" arpdir="0" arpskip="0" arpgate="100" arprange="1"/>
                <midiport fixedoutputnote="-1" outputchannel="1" inputchannel="0" inputcontroller="0" readable="0" outputcontroller="0" fixedinputvelocity="-1" basevelocity="63" fixedoutputvelocity="-1" outputprogram="1" writable="0"/>
                <fxchain numofeffects="0" enabled="0"/>
              </instrumenttrack>
              <pattern pos="0" muted="0" steps="16" name="loTom.wav" type="0"/>
              <pattern pos="192" muted="0" steps="32" name="loTom.wav" type="0">
                <note pos="360" pan="0" vol="100" len="-192" key="57"/>
              </pattern>
              <pattern pos="384" muted="0" steps="16" name="loTom.wav" type="0"/>
              <pattern pos="576" muted="0" steps="64" name="loTom.wav" type="0">
                <note pos="648" pan="0" vol="100" len="-192" key="57"/>
                <note pos="660" pan="0" vol="100" len="-192" key="57"/>
                <note pos="744" pan="0" vol="100" len="-192" key="57"/>
                <note pos="756" pan="0" vol="100" len="-192" key="57"/>
              </pattern>
              <pattern pos="768" muted="0" steps="16" name="loTom.wav" type="0"/>
              <pattern pos="960" muted="0" steps="32" name="loTom.wav" type="0">
                <note pos="360" pan="0" vol="100" len="-192" key="57"/>
                <note pos="372" pan="0" vol="100" len="-192" key="57"/>
              </pattern>
              <pattern pos="1152" muted="0" steps="16" name="loTom.wav" type="0"/>
              <pattern pos="1344" muted="0" steps="16" name="loTom.wav" type="0">
                <note pos="156" pan="0" vol="100" len="-192" key="57"/>
                <note pos="168" pan="0" vol="100" len="-192" key="57"/>
                <note pos="180" pan="0" vol="100" len="-192" key="57"/>
              </pattern>
              <pattern pos="1536" muted="0" steps="16" name="loTom.wav" type="0"/>
              <pattern pos="1728" muted="0" steps="16" name="loTom.wav" type="0"/>
              <pattern pos="1920" muted="0" steps="16" name="loTom.wav" type="0"/>
              <pattern pos="2112" muted="0" steps="16" name="loTom.wav" type="0"/>
              <pattern pos="2304" muted="0" steps="16" name="loTom.wav" type="0"/>
              <pattern pos="2496" muted="0" steps="16" name="loTom.wav" type="0"/>
              <pattern pos="2688" muted="0" steps="96" name="loTom.wav" type="0">
                <note pos="720" pan="0" vol="100" len="-192" key="57"/>
                <note pos="744" pan="0" vol="100" len="-192" key="57"/>
                <note pos="888" pan="0" vol="100" len="-192" key="57"/>
                <note pos="912" pan="0" vol="100" len="-192" key="57"/>
                <note pos="924" pan="0" vol="100" len="-192" key="57"/>
                <note pos="936" pan="0" vol="100" len="-192" key="57"/>
                <note pos="948" pan="0" vol="100" len="-192" key="57"/>
              </pattern>
              <pattern pos="2880" muted="0" steps="64" name="loTom.wav" type="0">
                <note pos="660" pan="0" vol="100" len="-192" key="57"/>
              </pattern>
            </track>
            <track solo="0" muted="0" name="hihat_opened02.ogg" type="0">
              <instrumenttrack pan="0" usemasterpitch="1" vol="100" pitchrange="1" fxch="0" pitch="0" basenote="57">
                <instrument name="audiofileprocessor">
                  <audiofileprocessor looped="0" reversed="0" lframe="0" stutter="0" sframe="0" interp="1" src="drums/hihat_opened02.ogg" eframe="1" amp="100"/>
                </instrument>
                <eldata fres="0.5" ftype="0" fcut="14000" fwet="0">
                  <elvol lspd="0.1" latt="0" lspd_syncmode="0" lspd_numerator="4" dec="0.5" lshp="0" lspd_denominator="4" rel="0.1" amt="0" userwavefile="" lamt="0" att="0" sustain="0.5" pdel="0" ctlenvamt="0" x100="0" lpdel="0" hold="0.5"/>
                  <elcut lspd="0.1" latt="0" lspd_syncmode="0" lspd_numerator="4" dec="0.5" lshp="0" lspd_denominator="4" rel="0.1" amt="0" userwavefile="" lamt="0" att="0" sustain="0.5" pdel="0" ctlenvamt="0" x100="0" lpdel="0" hold="0.5"/>
                  <elres lspd="0.1" latt="0" lspd_syncmode="0" lspd_numerator="4" dec="0.5" lshp="0" lspd_denominator="4" rel="0.1" amt="0" userwavefile="" lamt="0" att="0" sustain="0.5" pdel="0" ctlenvamt="0" x100="0" lpdel="0" hold="0.5"/>
                </eldata>
                <chordcreator chord-enabled="0" chord="0" chordrange="1"/>
                <arpeggiator arptime_syncmode="0" arptime_numerator="4" arpmiss="0" arpmode="0" arptime="200" arp="0" arptime_denominator="4" arp-enabled="0" arpcycle="0" arpdir="0" arpskip="0" arpgate="100" arprange="1"/>
                <midiport fixedoutputnote="-1" outputchannel="1" inputchannel="0" inputcontroller="0" readable="0" outputcontroller="0" fixedinputvelocity="-1" basevelocity="63" fixedoutputvelocity="-1" outputprogram="1" writable="0"/>
                <fxchain numofeffects="0" enabled="0"/>
              </instrumenttrack>
              <pattern pos="0" muted="0" steps="16" name="hihat_opened02.ogg" type="0"/>
              <pattern pos="192" muted="0" steps="16" name="hihat_opened02.ogg" type="0"/>
              <pattern pos="384" muted="0" steps="16" name="hihat_opened02.ogg" type="0"/>
              <pattern pos="576" muted="0" steps="16" name="hihat_opened02.ogg" type="0"/>
              <pattern pos="768" muted="0" steps="16" name="hihat_opened02.ogg" type="0"/>
              <pattern pos="960" muted="0" steps="32" name="hihat_opened02.ogg" type="0"/>
              <pattern pos="1152" muted="0" steps="16" name="hihat_opened02.ogg" type="0"/>
              <pattern pos="1344" muted="0" steps="16" name="hihat_opened02.ogg" type="0"/>
              <pattern pos="1536" muted="0" steps="16" name="hihat_opened02.ogg" type="0"/>
              <pattern pos="1728" muted="0" steps="16" name="hihat_opened02.ogg" type="0"/>
              <pattern pos="1920" muted="0" steps="16" name="hihat_opened02.ogg" type="0"/>
              <pattern pos="2112" muted="0" steps="16" name="hihat_opened02.ogg" type="0"/>
              <pattern pos="2304" muted="0" steps="16" name="hihat_opened02.ogg" type="0"/>
              <pattern pos="2496" muted="0" steps="16" name="hihat_opened02.ogg" type="0"/>
              <pattern pos="2688" muted="0" steps="96" name="hihat_opened02.ogg" type="0"/>
              <pattern pos="2880" muted="0" steps="64" name="hihat_opened02.ogg" type="0"/>
            </track>
          </trackcontainer>
        </bbtrack>
      </track>
      <track solo="0" muted="0" name="Clone of intro1" type="1">
        <bbtrack/>
      </track>
      <track solo="0" muted="0" name="intro2" type="1">
        <bbtrack/>
        <bbtco color="4286611584" usestyle="1" pos="0" muted="0" name="" len="3072"/>
      </track>
      <track solo="0" muted="0" name="pre-verse" type="1">
        <bbtrack/>
        <bbtco color="4286611584" usestyle="1" pos="8448" muted="0" name="" len="768"/>
        <bbtco color="4286611584" usestyle="1" pos="11520" muted="0" name="" len="768"/>
        <bbtco color="4286611584" usestyle="1" pos="16128" muted="0" name="" len="576"/>
      </track>
      <track solo="0" muted="0" name="bootcamp1" type="1">
        <bbtrack/>
        <bbtco color="4286611584" usestyle="1" pos="3072" muted="0" name="" len="3072"/>
        <bbtco color="4286611584" usestyle="1" pos="12288" muted="0" name="" len="1152"/>
        <bbtco color="4286611584" usestyle="1" pos="18048" muted="0" name="" len="1920"/>
      </track>
      <track solo="0" muted="0" name="pp" type="1">
        <bbtrack/>
        <bbtco color="4286611584" usestyle="1" pos="13440" muted="0" name="" len="384"/>
      </track>
      <track solo="0" muted="0" name="Clone of bootcamp1" type="1">
        <bbtrack/>
        <bbtco color="4286611584" usestyle="1" pos="9216" muted="0" name="" len="768"/>
        <bbtco color="4286611584" usestyle="1" pos="9984" muted="0" name="" len="1536"/>
        <bbtco color="4286611584" usestyle="1" pos="13824" muted="0" name="" len="768"/>
        <bbtco color="4286611584" usestyle="1" pos="14592" muted="0" name="" len="1536"/>
      </track>
      <track solo="0" muted="0" name="fill1" type="1">
        <bbtrack/>
      </track>
      <track solo="0" muted="0" name="Clone of bootcamp1" type="1">
        <bbtrack/>
      </track>
      <track solo="0" muted="0" name="Clone of Clone of bootcamp1" type="1">
        <bbtrack/>
      </track>
      <track solo="0" muted="0" name="kick/mutecrash" type="1">
        <bbtrack/>
      </track>
      <track solo="0" muted="0" name="Beat/Bassline 6" type="1">
        <bbtrack/>
      </track>
      <track solo="0" muted="0" name="Clone of Beat/Bassline 6" type="1">
        <bbtrack/>
        <bbtco color="4286611584" usestyle="1" pos="6144" muted="0" name="" len="2304"/>
      </track>
      <track solo="0" muted="0" name="preprechorusbridge" type="1">
        <bbtrack/>
        <bbtco color="4286611584" usestyle="1" pos="16704" muted="0" name="" len="192"/>
      </track>
      <track solo="0" muted="0" name="kodiak alaska" type="1">
        <bbtrack/>
        <bbtco color="4286611584" usestyle="1" pos="16896" muted="0" name="" len="1152"/>
      </track>
      <track solo="0" muted="0" name="Beat/Bassline 15" type="1">
        <bbtrack/>
        <bbtco color="4286611584" usestyle="1" pos="19968" muted="0" name="" len="768"/>
      </track>
      <track solo="0" muted="0" name="bass fender jazz (1,379kb)" type="0">
        <instrumenttrack pan="-1.1" usemasterpitch="1" vol="66.9" pitchrange="1" fxch="14" pitch="0" basenote="57">
          <instrument name="sf2player">
            <sf2player chorusSpeed="0.3" patch="0" chorusNum="0.9" bank="0" gain="5" reverbOn="0" chorusOn="0" reverbWidth="0.5" reverbDamping="0.2" src="/home/pass/samples/soundfonts/bass fender jazz (1,379kb).sf2" reverbLevel="0.9" chorusLevel="2" chorusDepth="8" reverbRoomSize="0.2"/>
          </instrument>
          <eldata fres="0.5" ftype="0" fcut="14000" fwet="0">
            <elvol lspd="0.1" latt="0" lspd_syncmode="0" lspd_numerator="4" dec="0.5" lshp="0" lspd_denominator="4" rel="0.1" amt="0" userwavefile="" lamt="0" att="0" sustain="0.5" pdel="0" ctlenvamt="0" x100="0" lpdel="0" hold="0.5"/>
            <elcut lspd="0.1" latt="0" lspd_syncmode="0" lspd_numerator="4" dec="0.5" lshp="0" lspd_denominator="4" rel="0.1" amt="0" userwavefile="" lamt="0" att="0" sustain="0.5" pdel="0" ctlenvamt="0" x100="0" lpdel="0" hold="0.5"/>
            <elres lspd="0.1" latt="0" lspd_syncmode="0" lspd_numerator="4" dec="0.5" lshp="0" lspd_denominator="4" rel="0.1" amt="0" userwavefile="" lamt="0" att="0" sustain="0.5" pdel="0" ctlenvamt="0" x100="0" lpdel="0" hold="0.5"/>
          </eldata>
          <chordcreator chord-enabled="0" chord="0" chordrange="1"/>
          <arpeggiator arptime_syncmode="0" arptime_numerator="4" arpmiss="0" arpmode="0" arptime="200" arp="0" arptime_denominator="4" arp-enabled="0" arpcycle="0" arpdir="0" arpskip="0" arpgate="100" arprange="1"/>
          <midiport fixedoutputnote="-1" outputchannel="1" inputchannel="0" inputcontroller="0" readable="0" outputcontroller="0" fixedinputvelocity="-1" basevelocity="63" fixedoutputvelocity="-1" outputprogram="1" writable="0"/>
          <fxchain numofeffects="0" enabled="1"/>
        </instrumenttrack>
        <pattern pos="0" muted="0" steps="16" name="bass fender jazz (1,379kb)" type="1">
          <note pos="0" pan="0" vol="193" len="384" key="18"/>
          <note pos="384" pan="0" vol="193" len="384" key="17"/>
          <note pos="768" pan="0" vol="193" len="384" key="16"/>
          <note pos="1152" pan="0" vol="193" len="384" key="15"/>
          <note pos="1536" pan="0" vol="193" len="384" key="14"/>
          <note pos="1920" pan="0" vol="193" len="384" key="13"/>
          <note pos="2304" pan="0" vol="193" len="384" key="12"/>
          <note pos="2688" pan="0" vol="193" len="192" key="13"/>
          <note pos="2880" pan="0" vol="193" len="48" key="14"/>
          <note pos="2928" pan="0" vol="193" len="48" key="13"/>
          <note pos="2976" pan="0" vol="193" len="12" key="17"/>
          <note pos="2988" pan="0" vol="193" len="12" key="17"/>
          <note pos="3000" pan="0" vol="193" len="12" key="18"/>
          <note pos="3012" pan="0" vol="193" len="12" key="18"/>
          <note pos="3024" pan="0" vol="193" len="12" key="20"/>
          <note pos="3036" pan="0" vol="193" len="12" key="20"/>
          <note pos="3048" pan="0" vol="193" len="12" key="17"/>
          <note pos="3060" pan="0" vol="193" len="12" key="17"/>
        </pattern>
        <pattern pos="3072" muted="0" steps="16" name="bass fender jazz (1,379kb)" type="1">
          <note pos="0" pan="0" vol="193" len="12" key="18"/>
          <note pos="12" pan="0" vol="193" len="12" key="18"/>
          <note pos="24" pan="0" vol="193" len="12" key="18"/>
          <note pos="36" pan="0" vol="193" len="12" key="18"/>
          <note pos="48" pan="0" vol="193" len="12" key="18"/>
          <note pos="60" pan="0" vol="193" len="12" key="18"/>
          <note pos="72" pan="0" vol="193" len="12" key="18"/>
          <note pos="84" pan="0" vol="193" len="12" key="18"/>
          <note pos="96" pan="0" vol="193" len="12" key="18"/>
          <note pos="108" pan="0" vol="193" len="12" key="18"/>
          <note pos="120" pan="0" vol="193" len="12" key="18"/>
          <note pos="132" pan="0" vol="193" len="12" key="18"/>
          <note pos="144" pan="0" vol="193" len="12" key="18"/>
          <note pos="156" pan="0" vol="193" len="12" key="18"/>
          <note pos="168" pan="0" vol="193" len="12" key="18"/>
          <note pos="180" pan="0" vol="193" len="12" key="18"/>
          <note pos="192" pan="0" vol="193" len="12" key="18"/>
          <note pos="204" pan="0" vol="193" len="12" key="18"/>
          <note pos="216" pan="0" vol="193" len="12" key="18"/>
          <note pos="228" pan="0" vol="193" len="12" key="18"/>
          <note pos="240" pan="0" vol="193" len="12" key="18"/>
          <note pos="252" pan="0" vol="193" len="12" key="18"/>
          <note pos="264" pan="0" vol="193" len="12" key="18"/>
          <note pos="276" pan="0" vol="193" len="12" key="18"/>
          <note pos="288" pan="0" vol="193" len="12" key="18"/>
          <note pos="300" pan="0" vol="193" len="12" key="18"/>
          <note pos="312" pan="0" vol="193" len="12" key="18"/>
          <note pos="324" pan="0" vol="193" len="12" key="18"/>
          <note pos="336" pan="0" vol="193" len="12" key="18"/>
          <note pos="348" pan="0" vol="193" len="12" key="18"/>
          <note pos="360" pan="0" vol="193" len="12" key="18"/>
          <note pos="372" pan="0" vol="193" len="12" key="18"/>
          <note pos="384" pan="0" vol="193" len="12" key="17"/>
          <note pos="396" pan="0" vol="193" len="12" key="17"/>
          <note pos="408" pan="0" vol="193" len="12" key="17"/>
          <note pos="420" pan="0" vol="193" len="12" key="17"/>
          <note pos="432" pan="0" vol="193" len="12" key="17"/>
          <note pos="444" pan="0" vol="193" len="12" key="17"/>
          <note pos="456" pan="0" vol="193" len="12" key="17"/>
          <note pos="468" pan="0" vol="193" len="12" key="17"/>
          <note pos="480" pan="0" vol="193" len="12" key="17"/>
          <note pos="492" pan="0" vol="193" len="12" key="17"/>
          <note pos="504" pan="0" vol="193" len="12" key="17"/>
          <note pos="516" pan="0" vol="193" len="12" key="17"/>
          <note pos="528" pan="0" vol="193" len="12" key="17"/>
          <note pos="540" pan="0" vol="193" len="12" key="17"/>
          <note pos="552" pan="0" vol="193" len="12" key="17"/>
          <note pos="564" pan="0" vol="193" len="12" key="17"/>
          <note pos="576" pan="0" vol="193" len="12" key="17"/>
          <note pos="588" pan="0" vol="193" len="12" key="17"/>
          <note pos="600" pan="0" vol="193" len="12" key="17"/>
          <note pos="612" pan="0" vol="193" len="12" key="17"/>
          <note pos="624" pan="0" vol="193" len="12" key="17"/>
          <note pos="636" pan="0" vol="193" len="12" key="17"/>
          <note pos="648" pan="0" vol="193" len="12" key="17"/>
          <note pos="660" pan="0" vol="193" len="12" key="17"/>
          <note pos="672" pan="0" vol="193" len="12" key="17"/>
          <note pos="684" pan="0" vol="193" len="12" key="17"/>
          <note pos="696" pan="0" vol="193" len="12" key="17"/>
          <note pos="708" pan="0" vol="193" len="12" key="17"/>
          <note pos="720" pan="0" vol="193" len="12" key="17"/>
          <note pos="732" pan="0" vol="193" len="12" key="17"/>
          <note pos="744" pan="0" vol="193" len="12" key="17"/>
          <note pos="756" pan="0" vol="193" len="12" key="17"/>
          <note pos="768" pan="0" vol="193" len="12" key="16"/>
          <note pos="780" pan="0" vol="193" len="12" key="16"/>
          <note pos="792" pan="0" vol="193" len="12" key="16"/>
          <note pos="804" pan="0" vol="193" len="12" key="16"/>
          <note pos="816" pan="0" vol="193" len="12" key="16"/>
          <note pos="828" pan="0" vol="193" len="12" key="16"/>
          <note pos="840" pan="0" vol="193" len="12" key="16"/>
          <note pos="852" pan="0" vol="193" len="12" key="16"/>
          <note pos="864" pan="0" vol="193" len="12" key="16"/>
          <note pos="876" pan="0" vol="193" len="12" key="16"/>
          <note pos="888" pan="0" vol="193" len="12" key="16"/>
          <note pos="900" pan="0" vol="193" len="12" key="16"/>
          <note pos="912" pan="0" vol="193" len="12" key="16"/>
          <note pos="924" pan="0" vol="193" len="12" key="16"/>
          <note pos="936" pan="0" vol="193" len="12" key="16"/>
          <note pos="948" pan="0" vol="193" len="12" key="16"/>
          <note pos="960" pan="0" vol="193" len="12" key="16"/>
          <note pos="972" pan="0" vol="193" len="12" key="16"/>
          <note pos="984" pan="0" vol="193" len="12" key="16"/>
          <note pos="996" pan="0" vol="193" len="12" key="16"/>
          <note pos="1008" pan="0" vol="193" len="12" key="16"/>
          <note pos="1020" pan="0" vol="193" len="12" key="16"/>
          <note pos="1032" pan="0" vol="193" len="12" key="16"/>
          <note pos="1044" pan="0" vol="193" len="12" key="16"/>
          <note pos="1056" pan="0" vol="193" len="12" key="16"/>
          <note pos="1068" pan="0" vol="193" len="12" key="16"/>
          <note pos="1080" pan="0" vol="193" len="12" key="16"/>
          <note pos="1092" pan="0" vol="193" len="12" key="16"/>
          <note pos="1104" pan="0" vol="193" len="12" key="16"/>
          <note pos="1116" pan="0" vol="193" len="12" key="16"/>
          <note pos="1128" pan="0" vol="193" len="12" key="16"/>
          <note pos="1140" pan="0" vol="193" len="12" key="16"/>
          <note pos="1152" pan="0" vol="193" len="12" key="15"/>
          <note pos="1164" pan="0" vol="193" len="12" key="15"/>
          <note pos="1176" pan="0" vol="193" len="12" key="15"/>
          <note pos="1188" pan="0" vol="193" len="12" key="15"/>
          <note pos="1200" pan="0" vol="193" len="12" key="15"/>
          <note pos="1212" pan="0" vol="193" len="12" key="15"/>
          <note pos="1224" pan="0" vol="193" len="12" key="15"/>
          <note pos="1236" pan="0" vol="193" len="12" key="15"/>
          <note pos="1248" pan="0" vol="193" len="12" key="15"/>
          <note pos="1260" pan="0" vol="193" len="12" key="15"/>
          <note pos="1272" pan="0" vol="193" len="12" key="15"/>
          <note pos="1284" pan="0" vol="193" len="12" key="15"/>
          <note pos="1296" pan="0" vol="193" len="12" key="15"/>
          <note pos="1308" pan="0" vol="193" len="12" key="15"/>
          <note pos="1320" pan="0" vol="193" len="12" key="15"/>
          <note pos="1332" pan="0" vol="193" len="12" key="15"/>
          <note pos="1344" pan="0" vol="193" len="12" key="15"/>
          <note pos="1356" pan="0" vol="193" len="12" key="15"/>
          <note pos="1368" pan="0" vol="193" len="12" key="15"/>
          <note pos="1380" pan="0" vol="193" len="12" key="15"/>
          <note pos="1392" pan="0" vol="193" len="12" key="15"/>
          <note pos="1404" pan="0" vol="193" len="12" key="15"/>
          <note pos="1416" pan="0" vol="193" len="12" key="15"/>
          <note pos="1428" pan="0" vol="193" len="12" key="15"/>
          <note pos="1440" pan="0" vol="193" len="12" key="15"/>
          <note pos="1452" pan="0" vol="193" len="12" key="15"/>
          <note pos="1464" pan="0" vol="193" len="12" key="15"/>
          <note pos="1476" pan="0" vol="193" len="12" key="15"/>
          <note pos="1488" pan="0" vol="193" len="12" key="15"/>
          <note pos="1500" pan="0" vol="193" len="12" key="15"/>
          <note pos="1512" pan="0" vol="193" len="12" key="15"/>
          <note pos="1524" pan="0" vol="193" len="12" key="15"/>
          <note pos="1536" pan="0" vol="193" len="12" key="14"/>
          <note pos="1548" pan="0" vol="193" len="12" key="14"/>
          <note pos="1560" pan="0" vol="193" len="12" key="14"/>
          <note pos="1572" pan="0" vol="193" len="12" key="14"/>
          <note pos="1584" pan="0" vol="193" len="12" key="14"/>
          <note pos="1596" pan="0" vol="193" len="12" key="14"/>
          <note pos="1608" pan="0" vol="193" len="12" key="14"/>
          <note pos="1620" pan="0" vol="193" len="12" key="14"/>
          <note pos="1632" pan="0" vol="193" len="12" key="14"/>
          <note pos="1644" pan="0" vol="193" len="12" key="14"/>
          <note pos="1656" pan="0" vol="193" len="12" key="14"/>
          <note pos="1668" pan="0" vol="193" len="12" key="14"/>
          <note pos="1680" pan="0" vol="193" len="12" key="14"/>
          <note pos="1692" pan="0" vol="193" len="12" key="14"/>
          <note pos="1704" pan="0" vol="193" len="12" key="14"/>
          <note pos="1716" pan="0" vol="193" len="12" key="14"/>
          <note pos="1728" pan="0" vol="193" len="12" key="14"/>
          <note pos="1740" pan="0" vol="193" len="12" key="14"/>
          <note pos="1752" pan="0" vol="193" len="12" key="14"/>
          <note pos="1764" pan="0" vol="193" len="12" key="14"/>
          <note pos="1776" pan="0" vol="193" len="12" key="14"/>
          <note pos="1788" pan="0" vol="193" len="12" key="14"/>
          <note pos="1800" pan="0" vol="193" len="12" key="14"/>
          <note pos="1812" pan="0" vol="193" len="12" key="14"/>
          <note pos="1824" pan="0" vol="193" len="12" key="14"/>
          <note pos="1836" pan="0" vol="193" len="12" key="14"/>
          <note pos="1848" pan="0" vol="193" len="12" key="14"/>
          <note pos="1860" pan="0" vol="193" len="12" key="14"/>
          <note pos="1872" pan="0" vol="193" len="12" key="14"/>
          <note pos="1884" pan="0" vol="193" len="12" key="14"/>
          <note pos="1896" pan="0" vol="193" len="12" key="14"/>
          <note pos="1908" pan="0" vol="193" len="12" key="14"/>
          <note pos="1920" pan="0" vol="193" len="12" key="13"/>
          <note pos="1932" pan="0" vol="193" len="12" key="13"/>
          <note pos="1944" pan="0" vol="193" len="12" key="13"/>
          <note pos="1956" pan="0" vol="193" len="12" key="13"/>
          <note pos="1968" pan="0" vol="193" len="12" key="13"/>
          <note pos="1980" pan="0" vol="193" len="12" key="13"/>
          <note pos="1992" pan="0" vol="193" len="12" key="13"/>
          <note pos="2004" pan="0" vol="193" len="12" key="13"/>
          <note pos="2016" pan="0" vol="193" len="12" key="13"/>
          <note pos="2028" pan="0" vol="193" len="12" key="13"/>
          <note pos="2040" pan="0" vol="193" len="12" key="13"/>
          <note pos="2052" pan="0" vol="193" len="12" key="13"/>
          <note pos="2064" pan="0" vol="193" len="12" key="13"/>
          <note pos="2076" pan="0" vol="193" len="12" key="13"/>
          <note pos="2088" pan="0" vol="193" len="12" key="13"/>
          <note pos="2100" pan="0" vol="193" len="12" key="13"/>
          <note pos="2112" pan="0" vol="193" len="12" key="13"/>
          <note pos="2124" pan="0" vol="193" len="12" key="13"/>
          <note pos="2136" pan="0" vol="193" len="12" key="13"/>
          <note pos="2148" pan="0" vol="193" len="12" key="13"/>
          <note pos="2160" pan="0" vol="193" len="12" key="13"/>
          <note pos="2172" pan="0" vol="193" len="12" key="13"/>
          <note pos="2184" pan="0" vol="193" len="12" key="13"/>
          <note pos="2196" pan="0" vol="193" len="12" key="13"/>
          <note pos="2208" pan="0" vol="193" len="12" key="13"/>
          <note pos="2220" pan="0" vol="193" len="12" key="13"/>
          <note pos="2232" pan="0" vol="193" len="12" key="13"/>
          <note pos="2244" pan="0" vol="193" len="12" key="13"/>
          <note pos="2256" pan="0" vol="193" len="12" key="13"/>
          <note pos="2268" pan="0" vol="193" len="12" key="13"/>
          <note pos="2280" pan="0" vol="193" len="12" key="13"/>
          <note pos="2292" pan="0" vol="193" len="12" key="13"/>
          <note pos="2304" pan="0" vol="193" len="12" key="12"/>
          <note pos="2316" pan="0" vol="193" len="12" key="12"/>
          <note pos="2328" pan="0" vol="193" len="12" key="12"/>
          <note pos="2340" pan="0" vol="193" len="12" key="12"/>
          <note pos="2352" pan="0" vol="193" len="12" key="12"/>
          <note pos="2364" pan="0" vol="193" len="12" key="12"/>
          <note pos="2376" pan="0" vol="193" len="12" key="12"/>
          <note pos="2388" pan="0" vol="193" len="12" key="12"/>
          <note pos="2400" pan="0" vol="193" len="12" key="12"/>
          <note pos="2412" pan="0" vol="193" len="12" key="12"/>
          <note pos="2424" pan="0" vol="193" len="12" key="12"/>
          <note pos="2436" pan="0" vol="193" len="12" key="12"/>
          <note pos="2448" pan="0" vol="193" len="12" key="12"/>
          <note pos="2460" pan="0" vol="193" len="12" key="12"/>
          <note pos="2472" pan="0" vol="193" len="12" key="12"/>
          <note pos="2484" pan="0" vol="193" len="12" key="12"/>
          <note pos="2496" pan="0" vol="193" len="12" key="12"/>
          <note pos="2508" pan="0" vol="193" len="12" key="12"/>
          <note pos="2520" pan="0" vol="193" len="12" key="12"/>
          <note pos="2532" pan="0" vol="193" len="12" key="12"/>
          <note pos="2544" pan="0" vol="193" len="12" key="12"/>
          <note pos="2556" pan="0" vol="193" len="12" key="12"/>
          <note pos="2568" pan="0" vol="193" len="12" key="12"/>
          <note pos="2580" pan="0" vol="193" len="12" key="12"/>
          <note pos="2592" pan="0" vol="193" len="12" key="12"/>
          <note pos="2604" pan="0" vol="193" len="12" key="12"/>
          <note pos="2616" pan="0" vol="193" len="12" key="12"/>
          <note pos="2628" pan="0" vol="193" len="12" key="12"/>
          <note pos="2640" pan="0" vol="193" len="12" key="12"/>
          <note pos="2652" pan="0" vol="193" len="12" key="12"/>
          <note pos="2664" pan="0" vol="193" len="12" key="12"/>
          <note pos="2676" pan="0" vol="193" len="12" key="12"/>
          <note pos="2688" pan="0" vol="193" len="192" key="13"/>
          <note pos="2880" pan="0" vol="193" len="48" key="14"/>
          <note pos="2928" pan="0" vol="193" len="48" key="13"/>
          <note pos="2976" pan="0" vol="193" len="12" key="17"/>
          <note pos="2988" pan="0" vol="193" len="12" key="17"/>
          <note pos="3000" pan="0" vol="193" len="12" key="18"/>
          <note pos="3012" pan="0" vol="193" len="12" key="18"/>
          <note pos="3024" pan="0" vol="193" len="12" key="20"/>
          <note pos="3036" pan="0" vol="193" len="12" key="20"/>
          <note pos="3048" pan="0" vol="193" len="12" key="17"/>
          <note pos="3060" pan="0" vol="193" len="12" key="17"/>
        </pattern>
        <pattern pos="6144" muted="0" steps="16" name="bass fender jazz (1,379kb)" type="1">
          <note pos="0" pan="0" vol="193" len="12" key="18"/>
          <note pos="12" pan="0" vol="193" len="12" key="18"/>
          <note pos="24" pan="0" vol="193" len="12" key="18"/>
          <note pos="36" pan="0" vol="193" len="12" key="18"/>
          <note pos="48" pan="0" vol="193" len="12" key="18"/>
          <note pos="60" pan="0" vol="193" len="12" key="18"/>
          <note pos="72" pan="0" vol="193" len="12" key="18"/>
          <note pos="84" pan="0" vol="193" len="12" key="18"/>
          <note pos="96" pan="0" vol="193" len="12" key="18"/>
          <note pos="108" pan="0" vol="193" len="12" key="18"/>
          <note pos="120" pan="0" vol="193" len="12" key="18"/>
          <note pos="132" pan="0" vol="193" len="12" key="18"/>
          <note pos="144" pan="0" vol="193" len="12" key="18"/>
          <note pos="156" pan="0" vol="193" len="12" key="18"/>
          <note pos="168" pan="0" vol="193" len="24" key="14"/>
          <note pos="192" pan="0" vol="193" len="12" key="14"/>
          <note pos="204" pan="0" vol="193" len="12" key="14"/>
          <note pos="216" pan="0" vol="193" len="24" key="14"/>
          <note pos="240" pan="0" vol="193" len="12" key="14"/>
          <note pos="252" pan="0" vol="193" len="12" key="14"/>
          <note pos="264" pan="0" vol="193" len="48" key="14"/>
          <note pos="312" pan="0" vol="193" len="12" key="14"/>
          <note pos="324" pan="0" vol="193" len="12" key="14"/>
          <note pos="336" pan="0" vol="193" len="12" key="14"/>
          <note pos="348" pan="0" vol="193" len="12" key="14"/>
          <note pos="360" pan="0" vol="193" len="12" key="14"/>
          <note pos="372" pan="0" vol="193" len="12" key="14"/>
        </pattern>
        <pattern pos="6528" muted="0" steps="16" name="bass fender jazz (1,379kb)" type="1">
          <note pos="0" pan="0" vol="193" len="12" key="16"/>
          <note pos="12" pan="0" vol="193" len="12" key="16"/>
          <note pos="24" pan="0" vol="193" len="12" key="16"/>
          <note pos="36" pan="0" vol="193" len="12" key="16"/>
          <note pos="48" pan="0" vol="193" len="12" key="16"/>
          <note pos="60" pan="0" vol="193" len="12" key="16"/>
          <note pos="72" pan="0" vol="193" len="12" key="16"/>
          <note pos="84" pan="0" vol="193" len="12" key="16"/>
          <note pos="96" pan="0" vol="193" len="12" key="16"/>
          <note pos="108" pan="0" vol="193" len="12" key="16"/>
          <note pos="120" pan="0" vol="193" len="12" key="16"/>
          <note pos="132" pan="0" vol="193" len="12" key="16"/>
          <note pos="144" pan="0" vol="193" len="12" key="16"/>
          <note pos="156" pan="0" vol="193" len="12" key="16"/>
          <note pos="168" pan="0" vol="193" len="48" key="13"/>
          <note pos="216" pan="0" vol="193" len="24" key="13"/>
          <note pos="240" pan="0" vol="193" len="24" key="13"/>
          <note pos="264" pan="0" vol="193" len="48" key="13"/>
          <note pos="312" pan="0" vol="193" len="12" key="17"/>
          <note pos="324" pan="0" vol="193" len="12" key="18"/>
          <note pos="336" pan="0" vol="193" len="12" key="20"/>
          <note pos="348" pan="0" vol="193" len="12" key="18"/>
          <note pos="360" pan="0" vol="193" len="12" key="17"/>
          <note pos="372" pan="0" vol="193" len="12" key="20"/>
        </pattern>
        <pattern pos="6912" muted="0" steps="16" name="bass fender jazz (1,379kb)" type="1">
          <note pos="0" pan="0" vol="193" len="12" key="18"/>
          <note pos="12" pan="0" vol="193" len="12" key="18"/>
          <note pos="24" pan="0" vol="193" len="12" key="18"/>
          <note pos="36" pan="0" vol="193" len="12" key="18"/>
          <note pos="48" pan="0" vol="193" len="12" key="18"/>
          <note pos="60" pan="0" vol="193" len="12" key="18"/>
          <note pos="72" pan="0" vol="193" len="12" key="18"/>
          <note pos="84" pan="0" vol="193" len="12" key="18"/>
          <note pos="96" pan="0" vol="193" len="12" key="18"/>
          <note pos="108" pan="0" vol="193" len="12" key="18"/>
          <note pos="120" pan="0" vol="193" len="12" key="18"/>
          <note pos="132" pan="0" vol="193" len="12" key="18"/>
          <note pos="144" pan="0" vol="193" len="12" key="18"/>
          <note pos="156" pan="0" vol="193" len="12" key="18"/>
          <note pos="168" pan="0" vol="193" len="24" key="14"/>
          <note pos="192" pan="0" vol="193" len="12" key="14"/>
          <note pos="204" pan="0" vol="193" len="12" key="14"/>
          <note pos="216" pan="0" vol="193" len="24" key="14"/>
          <note pos="240" pan="0" vol="193" len="12" key="14"/>
          <note pos="252" pan="0" vol="193" len="12" key="14"/>
          <note pos="264" pan="0" vol="193" len="48" key="14"/>
          <note pos="312" pan="0" vol="193" len="12" key="14"/>
          <note pos="324" pan="0" vol="193" len="12" key="14"/>
          <note pos="336" pan="0" vol="193" len="12" key="14"/>
          <note pos="348" pan="0" vol="193" len="12" key="14"/>
          <note pos="360" pan="0" vol="193" len="12" key="14"/>
          <note pos="372" pan="0" vol="193" len="12" key="14"/>
        </pattern>
        <pattern pos="7296" muted="0" steps="16" name="bass fender jazz (1,379kb)" type="1">
          <note pos="0" pan="0" vol="193" len="12" key="21"/>
          <note pos="12" pan="0" vol="193" len="12" key="21"/>
          <note pos="24" pan="0" vol="193" len="12" key="21"/>
          <note pos="36" pan="0" vol="193" len="12" key="21"/>
          <note pos="48" pan="0" vol="193" len="12" key="21"/>
          <note pos="60" pan="0" vol="193" len="12" key="21"/>
          <note pos="72" pan="0" vol="193" len="12" key="21"/>
          <note pos="84" pan="0" vol="193" len="12" key="21"/>
          <note pos="96" pan="0" vol="193" len="12" key="21"/>
          <note pos="108" pan="0" vol="193" len="12" key="21"/>
          <note pos="120" pan="0" vol="193" len="12" key="21"/>
          <note pos="132" pan="0" vol="193" len="12" key="21"/>
          <note pos="144" pan="0" vol="193" len="12" key="21"/>
          <note pos="156" pan="0" vol="193" len="12" key="21"/>
          <note pos="168" pan="0" vol="193" len="48" key="29"/>
          <note pos="216" pan="0" vol="193" len="24" key="25"/>
          <note pos="240" pan="0" vol="193" len="24" key="23"/>
          <note pos="264" pan="0" vol="193" len="48" key="25"/>
          <note pos="312" pan="0" vol="193" len="12" key="23"/>
          <note pos="324" pan="0" vol="193" len="12" key="25"/>
          <note pos="336" pan="0" vol="193" len="12" key="26"/>
          <note pos="348" pan="0" vol="193" len="12" key="25"/>
          <note pos="360" pan="0" vol="193" len="12" key="23"/>
          <note pos="372" pan="0" vol="193" len="12" key="25"/>
        </pattern>
        <pattern pos="7680" muted="0" steps="16" name="bass fender jazz (1,379kb)" type="1">
          <note pos="0" pan="0" vol="193" len="12" key="18"/>
          <note pos="12" pan="0" vol="193" len="12" key="18"/>
          <note pos="24" pan="0" vol="193" len="12" key="18"/>
          <note pos="36" pan="0" vol="193" len="12" key="18"/>
          <note pos="48" pan="0" vol="193" len="12" key="18"/>
          <note pos="60" pan="0" vol="193" len="12" key="18"/>
          <note pos="72" pan="0" vol="193" len="12" key="18"/>
          <note pos="84" pan="0" vol="193" len="12" key="18"/>
          <note pos="96" pan="0" vol="193" len="12" key="18"/>
          <note pos="108" pan="0" vol="193" len="12" key="18"/>
          <note pos="120" pan="0" vol="193" len="12" key="18"/>
          <note pos="132" pan="0" vol="193" len="12" key="18"/>
          <note pos="144" pan="0" vol="193" len="12" key="18"/>
          <note pos="156" pan="0" vol="193" len="12" key="18"/>
          <note pos="168" pan="0" vol="193" len="24" key="14"/>
          <note pos="192" pan="0" vol="193" len="12" key="14"/>
          <note pos="204" pan="0" vol="193" len="12" key="14"/>
          <note pos="216" pan="0" vol="193" len="24" key="14"/>
          <note pos="240" pan="0" vol="193" len="12" key="14"/>
          <note pos="252" pan="0" vol="193" len="12" key="14"/>
          <note pos="264" pan="0" vol="193" len="48" key="14"/>
          <note pos="312" pan="0" vol="193" len="12" key="14"/>
          <note pos="324" pan="0" vol="193" len="12" key="14"/>
          <note pos="336" pan="0" vol="193" len="12" key="14"/>
          <note pos="348" pan="0" vol="193" len="12" key="14"/>
          <note pos="360" pan="0" vol="193" len="12" key="14"/>
          <note pos="372" pan="0" vol="193" len="12" key="14"/>
        </pattern>
        <pattern pos="8064" muted="0" steps="16" name="bass fender jazz (1,379kb)" type="1">
          <note pos="0" pan="0" vol="193" len="12" key="21"/>
          <note pos="12" pan="0" vol="193" len="12" key="21"/>
          <note pos="24" pan="0" vol="193" len="12" key="21"/>
          <note pos="36" pan="0" vol="193" len="12" key="21"/>
          <note pos="48" pan="0" vol="193" len="12" key="21"/>
          <note pos="60" pan="0" vol="193" len="12" key="21"/>
          <note pos="72" pan="0" vol="193" len="12" key="21"/>
          <note pos="84" pan="0" vol="193" len="12" key="21"/>
          <note pos="96" pan="0" vol="193" len="12" key="21"/>
          <note pos="108" pan="0" vol="193" len="12" key="21"/>
          <note pos="120" pan="0" vol="193" len="12" key="21"/>
          <note pos="132" pan="0" vol="193" len="12" key="21"/>
          <note pos="144" pan="0" vol="193" len="12" key="21"/>
          <note pos="156" pan="0" vol="193" len="12" key="21"/>
          <note pos="168" pan="0" vol="193" len="48" key="29"/>
          <note pos="216" pan="0" vol="193" len="24" key="25"/>
          <note pos="240" pan="0" vol="193" len="24" key="23"/>
          <note pos="264" pan="0" vol="193" len="48" key="25"/>
          <note pos="312" pan="0" vol="193" len="12" key="23"/>
          <note pos="324" pan="0" vol="193" len="12" key="25"/>
          <note pos="336" pan="0" vol="193" len="12" key="26"/>
          <note pos="348" pan="0" vol="193" len="12" key="25"/>
          <note pos="360" pan="0" vol="193" len="12" key="23"/>
          <note pos="372" pan="0" vol="193" len="12" key="25"/>
        </pattern>
        <pattern pos="8448" muted="0" steps="16" name="bass fender jazz (1,379kb)" type="1">
          <note pos="0" pan="0" vol="197" len="384" key="14"/>
          <note pos="384" pan="0" vol="197" len="192" key="16"/>
          <note pos="576" pan="0" vol="197" len="12" key="17"/>
          <note pos="588" pan="0" vol="197" len="12" key="17"/>
          <note pos="600" pan="0" vol="197" len="12" key="13"/>
          <note pos="612" pan="0" vol="197" len="12" key="13"/>
          <note pos="624" pan="0" vol="197" len="12" key="17"/>
          <note pos="636" pan="0" vol="197" len="12" key="17"/>
          <note pos="648" pan="0" vol="197" len="12" key="18"/>
          <note pos="660" pan="0" vol="197" len="12" key="18"/>
          <note pos="672" pan="0" vol="197" len="12" key="20"/>
          <note pos="684" pan="0" vol="197" len="12" key="20"/>
          <note pos="696" pan="0" vol="197" len="12" key="18"/>
          <note pos="708" pan="0" vol="197" len="12" key="18"/>
          <note pos="720" pan="0" vol="197" len="12" key="17"/>
          <note pos="732" pan="0" vol="197" len="12" key="17"/>
          <note pos="744" pan="0" vol="197" len="12" key="13"/>
          <note pos="756" pan="0" vol="197" len="12" key="13"/>
        </pattern>
        <pattern pos="9216" muted="0" steps="16" name="bass fender jazz (1,379kb)" type="1">
          <note pos="0" pan="0" vol="193" len="384" key="18"/>
          <note pos="384" pan="0" vol="193" len="48" key="14"/>
          <note pos="432" pan="0" vol="193" len="12" key="14"/>
          <note pos="444" pan="0" vol="193" len="12" key="14"/>
          <note pos="456" pan="0" vol="193" len="12" key="14"/>
          <note pos="468" pan="0" vol="193" len="12" key="14"/>
          <note pos="480" pan="0" vol="193" len="12" key="14"/>
          <note pos="492" pan="0" vol="193" len="12" key="14"/>
          <note pos="504" pan="0" vol="193" len="12" key="14"/>
          <note pos="516" pan="0" vol="193" len="12" key="14"/>
          <note pos="528" pan="0" vol="193" len="12" key="14"/>
          <note pos="540" pan="0" vol="193" len="12" key="14"/>
          <note pos="552" pan="0" vol="193" len="12" key="14"/>
          <note pos="564" pan="0" vol="193" len="12" key="14"/>
          <note pos="576" pan="0" vol="193" len="24" key="14"/>
          <note pos="600" pan="0" vol="193" len="12" key="14"/>
          <note pos="612" pan="0" vol="193" len="12" key="14"/>
          <note pos="624" pan="0" vol="193" len="12" key="14"/>
          <note pos="636" pan="0" vol="193" len="12" key="14"/>
          <note pos="648" pan="0" vol="193" len="24" key="14"/>
          <note pos="672" pan="0" vol="193" len="12" key="14"/>
          <note pos="684" pan="0" vol="193" len="12" key="14"/>
          <note pos="696" pan="0" vol="193" len="12" key="14"/>
          <note pos="708" pan="0" vol="193" len="12" key="14"/>
          <note pos="720" pan="0" vol="193" len="12" key="14"/>
          <note pos="732" pan="0" vol="193" len="12" key="13"/>
          <note pos="744" pan="0" vol="193" len="12" key="14"/>
          <note pos="756" pan="0" vol="193" len="12" key="16"/>
        </pattern>
        <pattern pos="9984" muted="0" steps="16" name="bass fender jazz (1,379kb)" type="1">
          <note pos="0" pan="0" vol="193" len="384" key="18"/>
          <note pos="384" pan="0" vol="193" len="48" key="21"/>
          <note pos="432" pan="0" vol="193" len="12" key="21"/>
          <note pos="444" pan="0" vol="193" len="12" key="21"/>
          <note pos="456" pan="0" vol="193" len="12" key="21"/>
          <note pos="468" pan="0" vol="193" len="12" key="21"/>
          <note pos="480" pan="0" vol="193" len="12" key="21"/>
          <note pos="492" pan="0" vol="193" len="12" key="21"/>
          <note pos="504" pan="0" vol="193" len="12" key="21"/>
          <note pos="516" pan="0" vol="193" len="12" key="21"/>
          <note pos="528" pan="0" vol="193" len="12" key="21"/>
          <note pos="540" pan="0" vol="193" len="12" key="21"/>
          <note pos="552" pan="0" vol="193" len="12" key="21"/>
          <note pos="564" pan="0" vol="193" len="12" key="21"/>
          <note pos="576" pan="0" vol="193" len="24" key="13"/>
          <note pos="600" pan="0" vol="193" len="12" key="13"/>
          <note pos="612" pan="0" vol="193" len="12" key="13"/>
          <note pos="624" pan="0" vol="193" len="12" key="13"/>
          <note pos="636" pan="0" vol="193" len="12" key="13"/>
          <note pos="648" pan="0" vol="193" len="24" key="13"/>
          <note pos="672" pan="0" vol="193" len="12" key="13"/>
          <note pos="684" pan="0" vol="193" len="12" key="13"/>
          <note pos="696" pan="0" vol="193" len="12" key="13"/>
          <note pos="708" pan="0" vol="193" len="12" key="13"/>
          <note pos="720" pan="0" vol="193" len="24" key="13"/>
          <note pos="744" pan="0" vol="193" len="12" key="13"/>
          <note pos="756" pan="0" vol="193" len="12" key="13"/>
        </pattern>
        <pattern pos="10752" muted="0" steps="16" name="bass fender jazz (1,379kb)" type="1">
          <note pos="0" pan="0" vol="193" len="384" key="18"/>
          <note pos="384" pan="0" vol="193" len="48" key="11"/>
          <note pos="432" pan="0" vol="193" len="12" key="11"/>
          <note pos="444" pan="0" vol="193" len="12" key="11"/>
          <note pos="456" pan="0" vol="193" len="12" key="11"/>
          <note pos="468" pan="0" vol="193" len="12" key="11"/>
          <note pos="480" pan="0" vol="193" len="12" key="11"/>
          <note pos="492" pan="0" vol="193" len="12" key="11"/>
          <note pos="504" pan="0" vol="193" len="12" key="11"/>
          <note pos="516" pan="0" vol="193" len="12" key="11"/>
          <note pos="528" pan="0" vol="193" len="12" key="11"/>
          <note pos="540" pan="0" vol="193" len="12" key="11"/>
          <note pos="552" pan="0" vol="193" len="12" key="11"/>
          <note pos="564" pan="0" vol="193" len="12" key="11"/>
          <note pos="576" pan="0" vol="193" len="24" key="11"/>
          <note pos="600" pan="0" vol="193" len="12" key="11"/>
          <note pos="612" pan="0" vol="193" len="12" key="11"/>
          <note pos="624" pan="0" vol="193" len="12" key="11"/>
          <note pos="636" pan="0" vol="193" len="12" key="11"/>
          <note pos="648" pan="0" vol="193" len="24" key="11"/>
          <note pos="672" pan="0" vol="193" len="12" key="11"/>
          <note pos="684" pan="0" vol="193" len="12" key="11"/>
          <note pos="696" pan="0" vol="193" len="12" key="11"/>
          <note pos="708" pan="0" vol="193" len="12" key="11"/>
          <note pos="720" pan="0" vol="193" len="12" key="11"/>
          <note pos="732" pan="0" vol="193" len="12" key="10"/>
          <note pos="744" pan="0" vol="193" len="12" key="11"/>
          <note pos="756" pan="0" vol="193" len="12" key="13"/>
        </pattern>
        <pattern pos="12288" muted="0" steps="16" name="bass fender jazz (1,379kb)" type="1">
          <note pos="0" pan="0" vol="193" len="12" key="18"/>
          <note pos="12" pan="0" vol="193" len="12" key="18"/>
          <note pos="24" pan="0" vol="193" len="12" key="18"/>
          <note pos="36" pan="0" vol="193" len="12" key="18"/>
          <note pos="48" pan="0" vol="193" len="12" key="18"/>
          <note pos="60" pan="0" vol="193" len="12" key="18"/>
          <note pos="72" pan="0" vol="193" len="12" key="18"/>
          <note pos="84" pan="0" vol="193" len="12" key="18"/>
          <note pos="96" pan="0" vol="193" len="12" key="18"/>
          <note pos="108" pan="0" vol="193" len="12" key="18"/>
          <note pos="120" pan="0" vol="193" len="12" key="18"/>
          <note pos="132" pan="0" vol="193" len="12" key="18"/>
          <note pos="144" pan="0" vol="193" len="12" key="18"/>
          <note pos="156" pan="0" vol="193" len="12" key="18"/>
          <note pos="168" pan="0" vol="193" len="12" key="18"/>
          <note pos="180" pan="0" vol="193" len="12" key="18"/>
          <note pos="192" pan="0" vol="193" len="12" key="18"/>
          <note pos="204" pan="0" vol="193" len="12" key="18"/>
          <note pos="216" pan="0" vol="193" len="12" key="18"/>
          <note pos="228" pan="0" vol="193" len="12" key="18"/>
          <note pos="240" pan="0" vol="193" len="12" key="18"/>
          <note pos="252" pan="0" vol="193" len="12" key="18"/>
          <note pos="264" pan="0" vol="193" len="12" key="18"/>
          <note pos="276" pan="0" vol="193" len="12" key="18"/>
          <note pos="288" pan="0" vol="193" len="12" key="18"/>
          <note pos="300" pan="0" vol="193" len="12" key="18"/>
          <note pos="312" pan="0" vol="193" len="12" key="18"/>
          <note pos="324" pan="0" vol="193" len="12" key="18"/>
          <note pos="336" pan="0" vol="193" len="12" key="18"/>
          <note pos="348" pan="0" vol="193" len="12" key="18"/>
          <note pos="360" pan="0" vol="193" len="12" key="18"/>
          <note pos="372" pan="0" vol="193" len="12" key="18"/>
          <note pos="384" pan="0" vol="193" len="12" key="13"/>
          <note pos="396" pan="0" vol="193" len="12" key="13"/>
          <note pos="408" pan="0" vol="193" len="12" key="13"/>
          <note pos="420" pan="0" vol="193" len="12" key="13"/>
          <note pos="432" pan="0" vol="193" len="12" key="13"/>
          <note pos="444" pan="0" vol="193" len="12" key="13"/>
          <note pos="456" pan="0" vol="193" len="12" key="13"/>
          <note pos="468" pan="0" vol="193" len="12" key="13"/>
          <note pos="480" pan="0" vol="193" len="12" key="13"/>
          <note pos="492" pan="0" vol="193" len="12" key="13"/>
          <note pos="504" pan="0" vol="193" len="12" key="13"/>
          <note pos="516" pan="0" vol="193" len="12" key="13"/>
          <note pos="528" pan="0" vol="193" len="12" key="13"/>
          <note pos="540" pan="0" vol="193" len="12" key="13"/>
          <note pos="552" pan="0" vol="193" len="12" key="13"/>
          <note pos="564" pan="0" vol="193" len="12" key="13"/>
          <note pos="576" pan="0" vol="193" len="12" key="13"/>
          <note pos="588" pan="0" vol="193" len="12" key="13"/>
          <note pos="600" pan="0" vol="193" len="12" key="13"/>
          <note pos="612" pan="0" vol="193" len="12" key="13"/>
          <note pos="624" pan="0" vol="193" len="12" key="13"/>
          <note pos="636" pan="0" vol="193" len="12" key="13"/>
          <note pos="648" pan="0" vol="193" len="12" key="13"/>
          <note pos="660" pan="0" vol="193" len="12" key="13"/>
          <note pos="672" pan="0" vol="193" len="12" key="13"/>
          <note pos="684" pan="0" vol="193" len="12" key="13"/>
          <note pos="696" pan="0" vol="193" len="12" key="13"/>
          <note pos="708" pan="0" vol="193" len="12" key="13"/>
          <note pos="720" pan="0" vol="193" len="12" key="13"/>
          <note pos="732" pan="0" vol="193" len="12" key="13"/>
          <note pos="744" pan="0" vol="193" len="12" key="13"/>
          <note pos="756" pan="0" vol="193" len="12" key="13"/>
        </pattern>
        <pattern pos="13056" muted="0" steps="16" name="bass fender jazz (1,379kb)" type="1">
          <note pos="0" pan="0" vol="193" len="12" key="18"/>
          <note pos="12" pan="0" vol="193" len="12" key="18"/>
          <note pos="24" pan="0" vol="193" len="12" key="18"/>
          <note pos="36" pan="0" vol="193" len="12" key="18"/>
          <note pos="48" pan="0" vol="193" len="12" key="18"/>
          <note pos="60" pan="0" vol="193" len="12" key="18"/>
          <note pos="72" pan="0" vol="193" len="12" key="18"/>
          <note pos="84" pan="0" vol="193" len="12" key="18"/>
          <note pos="96" pan="0" vol="193" len="12" key="18"/>
          <note pos="108" pan="0" vol="193" len="12" key="18"/>
          <note pos="120" pan="0" vol="193" len="12" key="18"/>
          <note pos="132" pan="0" vol="193" len="12" key="18"/>
          <note pos="144" pan="0" vol="193" len="12" key="18"/>
          <note pos="156" pan="0" vol="193" len="12" key="18"/>
          <note pos="168" pan="0" vol="193" len="12" key="18"/>
          <note pos="180" pan="0" vol="193" len="12" key="18"/>
          <note pos="192" pan="0" vol="193" len="12" key="18"/>
          <note pos="204" pan="0" vol="193" len="12" key="18"/>
          <note pos="216" pan="0" vol="193" len="12" key="18"/>
          <note pos="228" pan="0" vol="193" len="12" key="18"/>
          <note pos="240" pan="0" vol="193" len="12" key="18"/>
          <note pos="252" pan="0" vol="193" len="12" key="18"/>
          <note pos="264" pan="0" vol="193" len="12" key="18"/>
          <note pos="276" pan="0" vol="193" len="12" key="18"/>
          <note pos="288" pan="0" vol="193" len="12" key="18"/>
          <note pos="300" pan="0" vol="193" len="12" key="18"/>
          <note pos="312" pan="0" vol="193" len="12" key="18"/>
          <note pos="324" pan="0" vol="193" len="12" key="18"/>
          <note pos="336" pan="0" vol="193" len="12" key="18"/>
          <note pos="348" pan="0" vol="193" len="12" key="18"/>
          <note pos="360" pan="0" vol="193" len="12" key="18"/>
          <note pos="372" pan="0" vol="193" len="12" key="18"/>
          <note pos="384" pan="0" vol="193" len="12" key="13"/>
          <note pos="396" pan="0" vol="193" len="12" key="13"/>
          <note pos="408" pan="0" vol="193" len="12" key="13"/>
          <note pos="420" pan="0" vol="193" len="12" key="13"/>
          <note pos="432" pan="0" vol="193" len="12" key="13"/>
          <note pos="444" pan="0" vol="193" len="12" key="13"/>
          <note pos="456" pan="0" vol="193" len="12" key="13"/>
          <note pos="468" pan="0" vol="193" len="12" key="13"/>
          <note pos="480" pan="0" vol="193" len="12" key="13"/>
          <note pos="492" pan="0" vol="193" len="12" key="13"/>
          <note pos="504" pan="0" vol="193" len="12" key="13"/>
          <note pos="516" pan="0" vol="193" len="12" key="13"/>
          <note pos="528" pan="0" vol="193" len="12" key="13"/>
          <note pos="540" pan="0" vol="193" len="12" key="13"/>
          <note pos="552" pan="0" vol="193" len="12" key="13"/>
          <note pos="564" pan="0" vol="193" len="12" key="13"/>
          <note pos="576" pan="0" vol="193" len="12" key="13"/>
          <note pos="588" pan="0" vol="193" len="12" key="13"/>
          <note pos="600" pan="0" vol="193" len="12" key="13"/>
          <note pos="612" pan="0" vol="193" len="12" key="13"/>
          <note pos="624" pan="0" vol="193" len="12" key="13"/>
          <note pos="636" pan="0" vol="193" len="12" key="13"/>
          <note pos="648" pan="0" vol="193" len="12" key="13"/>
          <note pos="660" pan="0" vol="193" len="12" key="13"/>
          <note pos="672" pan="0" vol="193" len="12" key="13"/>
          <note pos="684" pan="0" vol="193" len="12" key="13"/>
          <note pos="696" pan="0" vol="193" len="12" key="13"/>
          <note pos="708" pan="0" vol="193" len="12" key="13"/>
          <note pos="720" pan="0" vol="193" len="12" key="13"/>
          <note pos="732" pan="0" vol="193" len="12" key="13"/>
          <note pos="744" pan="0" vol="193" len="12" key="13"/>
          <note pos="756" pan="0" vol="193" len="12" key="13"/>
        </pattern>
        <pattern pos="11520" muted="0" steps="16" name="bass fender jazz (1,379kb)" type="1">
          <note pos="0" pan="0" vol="193" len="12" key="21"/>
          <note pos="0" pan="0" vol="193" len="12" key="1"/>
          <note pos="12" pan="0" vol="193" len="12" key="21"/>
          <note pos="24" pan="0" vol="193" len="12" key="21"/>
          <note pos="36" pan="0" vol="193" len="12" key="21"/>
          <note pos="48" pan="0" vol="193" len="12" key="21"/>
          <note pos="60" pan="0" vol="193" len="12" key="21"/>
          <note pos="72" pan="0" vol="193" len="12" key="21"/>
          <note pos="84" pan="0" vol="193" len="12" key="21"/>
          <note pos="96" pan="0" vol="193" len="12" key="21"/>
          <note pos="108" pan="0" vol="193" len="12" key="21"/>
          <note pos="120" pan="0" vol="193" len="12" key="21"/>
          <note pos="132" pan="0" vol="193" len="12" key="21"/>
          <note pos="144" pan="0" vol="193" len="12" key="21"/>
          <note pos="156" pan="0" vol="193" len="12" key="21"/>
          <note pos="168" pan="0" vol="193" len="12" key="21"/>
          <note pos="180" pan="0" vol="193" len="12" key="21"/>
          <note pos="192" pan="0" vol="193" len="12" key="14"/>
          <note pos="192" pan="0" vol="193" len="12" key="0"/>
          <note pos="204" pan="0" vol="193" len="12" key="13"/>
          <note pos="204" pan="0" vol="193" len="12" key="1"/>
          <note pos="216" pan="0" vol="193" len="12" key="13"/>
          <note pos="228" pan="0" vol="193" len="12" key="13"/>
          <note pos="240" pan="0" vol="193" len="12" key="13"/>
          <note pos="252" pan="0" vol="193" len="12" key="13"/>
          <note pos="264" pan="0" vol="193" len="12" key="14"/>
          <note pos="264" pan="0" vol="193" len="12" key="0"/>
          <note pos="276" pan="0" vol="193" len="12" key="13"/>
          <note pos="276" pan="0" vol="193" len="12" key="1"/>
          <note pos="288" pan="0" vol="193" len="12" key="13"/>
          <note pos="300" pan="0" vol="193" len="12" key="13"/>
          <note pos="312" pan="0" vol="193" len="12" key="13"/>
          <note pos="324" pan="0" vol="193" len="12" key="13"/>
          <note pos="336" pan="0" vol="193" len="12" key="14"/>
          <note pos="348" pan="0" vol="193" len="12" key="17"/>
          <note pos="360" pan="0" vol="193" len="12" key="18"/>
          <note pos="372" pan="0" vol="193" len="12" key="20"/>
          <note pos="384" pan="0" vol="193" len="24" key="18"/>
          <note pos="384" pan="0" vol="193" len="12" key="0"/>
          <note pos="396" pan="0" vol="193" len="12" key="1"/>
          <note pos="408" pan="0" vol="193" len="12" key="18"/>
          <note pos="420" pan="0" vol="193" len="12" key="18"/>
          <note pos="432" pan="0" vol="193" len="12" key="18"/>
          <note pos="444" pan="0" vol="193" len="12" key="18"/>
          <note pos="456" pan="0" vol="193" len="12" key="18"/>
          <note pos="468" pan="0" vol="193" len="12" key="18"/>
          <note pos="480" pan="0" vol="193" len="24" key="18"/>
          <note pos="480" pan="0" vol="193" len="12" key="0"/>
          <note pos="492" pan="0" vol="193" len="12" key="1"/>
          <note pos="504" pan="0" vol="193" len="12" key="18"/>
          <note pos="516" pan="0" vol="193" len="12" key="18"/>
          <note pos="528" pan="0" vol="193" len="12" key="18"/>
          <note pos="540" pan="0" vol="193" len="12" key="18"/>
          <note pos="552" pan="0" vol="193" len="12" key="18"/>
          <note pos="564" pan="0" vol="193" len="12" key="18"/>
          <note pos="576" pan="0" vol="193" len="24" key="18"/>
          <note pos="576" pan="0" vol="193" len="12" key="0"/>
          <note pos="588" pan="0" vol="193" len="12" key="1"/>
          <note pos="600" pan="0" vol="193" len="12" key="18"/>
          <note pos="612" pan="0" vol="193" len="12" key="18"/>
          <note pos="624" pan="0" vol="193" len="24" key="18"/>
          <note pos="624" pan="0" vol="193" len="12" key="0"/>
          <note pos="636" pan="0" vol="193" len="12" key="1"/>
          <note pos="648" pan="0" vol="193" len="12" key="18"/>
          <note pos="660" pan="0" vol="193" len="12" key="18"/>
          <note pos="672" pan="0" vol="193" len="24" key="18"/>
          <note pos="672" pan="0" vol="193" len="12" key="0"/>
          <note pos="684" pan="0" vol="193" len="12" key="1"/>
          <note pos="696" pan="0" vol="193" len="24" key="18"/>
          <note pos="720" pan="0" vol="193" len="12" key="18"/>
          <note pos="732" pan="0" vol="193" len="12" key="18"/>
          <note pos="744" pan="0" vol="193" len="12" key="18"/>
          <note pos="756" pan="0" vol="193" len="12" key="18"/>
        </pattern>
        <pattern pos="13824" muted="0" steps="16" name="bass fender jazz (1,379kb)" type="1">
          <note pos="0" pan="0" vol="193" len="384" key="18"/>
          <note pos="384" pan="0" vol="193" len="48" key="14"/>
          <note pos="432" pan="0" vol="193" len="12" key="14"/>
          <note pos="444" pan="0" vol="193" len="12" key="14"/>
          <note pos="456" pan="0" vol="193" len="12" key="14"/>
          <note pos="468" pan="0" vol="193" len="12" key="14"/>
          <note pos="480" pan="0" vol="193" len="12" key="14"/>
          <note pos="492" pan="0" vol="193" len="12" key="14"/>
          <note pos="504" pan="0" vol="193" len="12" key="14"/>
          <note pos="516" pan="0" vol="193" len="12" key="14"/>
          <note pos="528" pan="0" vol="193" len="12" key="14"/>
          <note pos="540" pan="0" vol="193" len="12" key="14"/>
          <note pos="552" pan="0" vol="193" len="12" key="14"/>
          <note pos="564" pan="0" vol="193" len="12" key="14"/>
          <note pos="576" pan="0" vol="193" len="24" key="14"/>
          <note pos="600" pan="0" vol="193" len="12" key="14"/>
          <note pos="612" pan="0" vol="193" len="12" key="14"/>
          <note pos="624" pan="0" vol="193" len="12" key="14"/>
          <note pos="636" pan="0" vol="193" len="12" key="14"/>
          <note pos="648" pan="0" vol="193" len="24" key="14"/>
          <note pos="672" pan="0" vol="193" len="12" key="14"/>
          <note pos="684" pan="0" vol="193" len="12" key="14"/>
          <note pos="696" pan="0" vol="193" len="12" key="14"/>
          <note pos="708" pan="0" vol="193" len="12" key="14"/>
          <note pos="720" pan="0" vol="193" len="12" key="14"/>
          <note pos="732" pan="0" vol="193" len="12" key="13"/>
          <note pos="744" pan="0" vol="193" len="12" key="14"/>
          <note pos="756" pan="0" vol="193" len="12" key="16"/>
        </pattern>
        <pattern pos="14592" muted="0" steps="16" name="bass fender jazz (1,379kb)" type="1">
          <note pos="0" pan="0" vol="193" len="384" key="18"/>
          <note pos="384" pan="0" vol="193" len="48" key="21"/>
          <note pos="432" pan="0" vol="193" len="12" key="21"/>
          <note pos="444" pan="0" vol="193" len="12" key="21"/>
          <note pos="456" pan="0" vol="193" len="12" key="21"/>
          <note pos="468" pan="0" vol="193" len="12" key="21"/>
          <note pos="480" pan="0" vol="193" len="12" key="21"/>
          <note pos="492" pan="0" vol="193" len="12" key="21"/>
          <note pos="504" pan="0" vol="193" len="12" key="21"/>
          <note pos="516" pan="0" vol="193" len="12" key="21"/>
          <note pos="528" pan="0" vol="193" len="12" key="21"/>
          <note pos="540" pan="0" vol="193" len="12" key="21"/>
          <note pos="552" pan="0" vol="193" len="12" key="21"/>
          <note pos="564" pan="0" vol="193" len="12" key="21"/>
          <note pos="576" pan="0" vol="193" len="24" key="13"/>
          <note pos="600" pan="0" vol="193" len="12" key="13"/>
          <note pos="612" pan="0" vol="193" len="12" key="13"/>
          <note pos="624" pan="0" vol="193" len="12" key="13"/>
          <note pos="636" pan="0" vol="193" len="12" key="13"/>
          <note pos="648" pan="0" vol="193" len="24" key="13"/>
          <note pos="672" pan="0" vol="193" len="12" key="13"/>
          <note pos="684" pan="0" vol="193" len="12" key="13"/>
          <note pos="696" pan="0" vol="193" len="12" key="13"/>
          <note pos="708" pan="0" vol="193" len="12" key="13"/>
          <note pos="720" pan="0" vol="193" len="24" key="13"/>
          <note pos="744" pan="0" vol="193" len="12" key="13"/>
          <note pos="756" pan="0" vol="193" len="12" key="13"/>
        </pattern>
        <pattern pos="15360" muted="0" steps="16" name="bass fender jazz (1,379kb)" type="1">
          <note pos="0" pan="0" vol="193" len="384" key="18"/>
          <note pos="384" pan="0" vol="193" len="48" key="11"/>
          <note pos="432" pan="0" vol="193" len="12" key="11"/>
          <note pos="444" pan="0" vol="193" len="12" key="11"/>
          <note pos="456" pan="0" vol="193" len="12" key="11"/>
          <note pos="468" pan="0" vol="193" len="12" key="11"/>
          <note pos="480" pan="0" vol="193" len="12" key="11"/>
          <note pos="492" pan="0" vol="193" len="12" key="11"/>
          <note pos="504" pan="0" vol="193" len="12" key="11"/>
          <note pos="516" pan="0" vol="193" len="12" key="11"/>
          <note pos="528" pan="0" vol="193" len="12" key="11"/>
          <note pos="540" pan="0" vol="193" len="12" key="11"/>
          <note pos="552" pan="0" vol="193" len="12" key="11"/>
          <note pos="564" pan="0" vol="193" len="12" key="11"/>
          <note pos="576" pan="0" vol="193" len="24" key="11"/>
          <note pos="600" pan="0" vol="193" len="12" key="11"/>
          <note pos="612" pan="0" vol="193" len="12" key="11"/>
          <note pos="624" pan="0" vol="193" len="12" key="11"/>
          <note pos="636" pan="0" vol="193" len="12" key="11"/>
          <note pos="648" pan="0" vol="193" len="24" key="11"/>
          <note pos="672" pan="0" vol="193" len="12" key="11"/>
          <note pos="684" pan="0" vol="193" len="12" key="11"/>
          <note pos="696" pan="0" vol="193" len="12" key="11"/>
          <note pos="708" pan="0" vol="193" len="12" key="11"/>
          <note pos="720" pan="0" vol="193" len="12" key="11"/>
          <note pos="732" pan="0" vol="193" len="12" key="10"/>
          <note pos="744" pan="0" vol="193" len="12" key="11"/>
          <note pos="756" pan="0" vol="193" len="12" key="13"/>
        </pattern>
        <pattern pos="16128" muted="0" steps="16" name="bass fender jazz (1,379kb)" type="1">
          <note pos="0" pan="0" vol="193" len="12" key="21"/>
          <note pos="0" pan="0" vol="193" len="12" key="1"/>
          <note pos="12" pan="0" vol="193" len="12" key="21"/>
          <note pos="24" pan="0" vol="193" len="12" key="21"/>
          <note pos="36" pan="0" vol="193" len="12" key="21"/>
          <note pos="48" pan="0" vol="193" len="12" key="21"/>
          <note pos="60" pan="0" vol="193" len="12" key="21"/>
          <note pos="72" pan="0" vol="193" len="12" key="21"/>
          <note pos="84" pan="0" vol="193" len="12" key="21"/>
          <note pos="96" pan="0" vol="193" len="12" key="21"/>
          <note pos="108" pan="0" vol="193" len="12" key="21"/>
          <note pos="120" pan="0" vol="193" len="12" key="21"/>
          <note pos="132" pan="0" vol="193" len="12" key="21"/>
          <note pos="144" pan="0" vol="193" len="12" key="21"/>
          <note pos="156" pan="0" vol="193" len="12" key="21"/>
          <note pos="168" pan="0" vol="193" len="12" key="21"/>
          <note pos="180" pan="0" vol="193" len="12" key="21"/>
          <note pos="192" pan="0" vol="193" len="12" key="14"/>
          <note pos="192" pan="0" vol="193" len="12" key="0"/>
          <note pos="204" pan="0" vol="193" len="12" key="13"/>
          <note pos="204" pan="0" vol="193" len="12" key="1"/>
          <note pos="216" pan="0" vol="193" len="12" key="13"/>
          <note pos="228" pan="0" vol="193" len="12" key="13"/>
          <note pos="240" pan="0" vol="193" len="12" key="13"/>
          <note pos="252" pan="0" vol="193" len="12" key="13"/>
          <note pos="264" pan="0" vol="193" len="12" key="14"/>
          <note pos="264" pan="0" vol="193" len="12" key="0"/>
          <note pos="276" pan="0" vol="193" len="12" key="13"/>
          <note pos="276" pan="0" vol="193" len="12" key="1"/>
          <note pos="288" pan="0" vol="193" len="12" key="13"/>
          <note pos="300" pan="0" vol="193" len="12" key="13"/>
          <note pos="312" pan="0" vol="193" len="12" key="13"/>
          <note pos="324" pan="0" vol="193" len="12" key="13"/>
          <note pos="336" pan="0" vol="193" len="12" key="14"/>
          <note pos="348" pan="0" vol="193" len="12" key="17"/>
          <note pos="360" pan="0" vol="193" len="12" key="18"/>
          <note pos="372" pan="0" vol="193" len="12" key="20"/>
          <note pos="384" pan="0" vol="193" len="24" key="18"/>
          <note pos="384" pan="0" vol="193" len="12" key="0"/>
          <note pos="396" pan="0" vol="193" len="12" key="1"/>
          <note pos="408" pan="0" vol="193" len="12" key="18"/>
          <note pos="420" pan="0" vol="193" len="12" key="18"/>
          <note pos="432" pan="0" vol="193" len="12" key="18"/>
          <note pos="444" pan="0" vol="193" len="12" key="18"/>
          <note pos="456" pan="0" vol="193" len="12" key="18"/>
          <note pos="468" pan="0" vol="193" len="12" key="18"/>
          <note pos="480" pan="0" vol="193" len="24" key="18"/>
          <note pos="480" pan="0" vol="193" len="12" key="0"/>
          <note pos="492" pan="0" vol="193" len="12" key="1"/>
          <note pos="504" pan="0" vol="193" len="12" key="18"/>
          <note pos="516" pan="0" vol="193" len="12" key="18"/>
          <note pos="528" pan="0" vol="193" len="12" key="18"/>
          <note pos="540" pan="0" vol="193" len="12" key="18"/>
          <note pos="552" pan="0" vol="193" len="12" key="18"/>
          <note pos="564" pan="0" vol="193" len="12" key="18"/>
          <note pos="576" pan="0" vol="193" len="12" key="18"/>
          <note pos="576" pan="0" vol="193" len="12" key="1"/>
          <note pos="588" pan="0" vol="193" len="12" key="18"/>
          <note pos="600" pan="0" vol="193" len="12" key="18"/>
          <note pos="648" pan="0" vol="193" len="12" key="18"/>
          <note pos="660" pan="0" vol="193" len="12" key="18"/>
          <note pos="672" pan="0" vol="193" len="12" key="18"/>
        </pattern>
        <pattern pos="16896" muted="0" steps="16" name="bass fender jazz (1,379kb)" type="1">
          <note pos="0" pan="0" vol="193" len="24" key="23"/>
          <note pos="48" pan="0" vol="193" len="24" key="23"/>
          <note pos="96" pan="0" vol="193" len="24" key="23"/>
          <note pos="144" pan="0" vol="193" len="24" key="23"/>
          <note pos="192" pan="0" vol="193" len="24" key="16"/>
          <note pos="240" pan="0" vol="193" len="24" key="16"/>
          <note pos="288" pan="0" vol="193" len="24" key="16"/>
          <note pos="336" pan="0" vol="193" len="24" key="16"/>
          <note pos="384" pan="0" vol="193" len="24" key="21"/>
          <note pos="432" pan="0" vol="193" len="24" key="21"/>
          <note pos="480" pan="0" vol="193" len="24" key="21"/>
          <note pos="528" pan="0" vol="193" len="24" key="21"/>
          <note pos="576" pan="0" vol="193" len="24" key="14"/>
          <note pos="624" pan="0" vol="193" len="24" key="14"/>
          <note pos="672" pan="0" vol="193" len="24" key="14"/>
          <note pos="768" pan="0" vol="193" len="24" key="20"/>
          <note pos="792" pan="0" vol="193" len="24" key="23"/>
          <note pos="816" pan="0" vol="193" len="24" key="21"/>
          <note pos="840" pan="0" vol="193" len="24" key="23"/>
          <note pos="864" pan="0" vol="193" len="24" key="17"/>
          <note pos="888" pan="0" vol="193" len="24" key="20"/>
          <note pos="912" pan="0" vol="193" len="24" key="18"/>
          <note pos="936" pan="0" vol="193" len="24" key="20"/>
        </pattern>
        <pattern pos="18432" muted="0" steps="16" name="bass fender jazz (1,379kb)" type="1">
          <note pos="0" pan="0" vol="193" len="12" key="23"/>
          <note pos="0" pan="0" vol="193" len="12" key="1"/>
          <note pos="12" pan="0" vol="193" len="12" key="23"/>
          <note pos="24" pan="0" vol="193" len="12" key="26"/>
          <note pos="36" pan="0" vol="193" len="12" key="26"/>
          <note pos="48" pan="0" vol="193" len="12" key="25"/>
          <note pos="60" pan="0" vol="193" len="12" key="25"/>
          <note pos="72" pan="0" vol="193" len="12" key="26"/>
          <note pos="84" pan="0" vol="193" len="12" key="26"/>
          <note pos="96" pan="0" vol="193" len="12" key="23"/>
          <note pos="108" pan="0" vol="193" len="12" key="23"/>
          <note pos="120" pan="0" vol="193" len="12" key="26"/>
          <note pos="132" pan="0" vol="193" len="12" key="26"/>
          <note pos="144" pan="0" vol="193" len="12" key="25"/>
          <note pos="156" pan="0" vol="193" len="12" key="25"/>
          <note pos="168" pan="0" vol="193" len="12" key="26"/>
          <note pos="180" pan="0" vol="193" len="12" key="26"/>
          <note pos="192" pan="0" vol="193" len="12" key="16"/>
          <note pos="204" pan="0" vol="193" len="12" key="16"/>
          <note pos="216" pan="0" vol="193" len="12" key="20"/>
          <note pos="228" pan="0" vol="193" len="12" key="20"/>
          <note pos="240" pan="0" vol="193" len="12" key="18"/>
          <note pos="252" pan="0" vol="193" len="12" key="18"/>
          <note pos="264" pan="0" vol="193" len="12" key="20"/>
          <note pos="276" pan="0" vol="193" len="12" key="20"/>
          <note pos="288" pan="0" vol="193" len="12" key="16"/>
          <note pos="300" pan="0" vol="193" len="12" key="16"/>
          <note pos="312" pan="0" vol="193" len="12" key="20"/>
          <note pos="324" pan="0" vol="193" len="12" key="20"/>
          <note pos="336" pan="0" vol="193" len="12" key="18"/>
          <note pos="348" pan="0" vol="193" len="12" key="18"/>
          <note pos="360" pan="0" vol="193" len="12" key="20"/>
          <note pos="372" pan="0" vol="193" len="12" key="20"/>
          <note pos="384" pan="0" vol="193" len="12" key="21"/>
          <note pos="396" pan="0" vol="193" len="12" key="21"/>
          <note pos="408" pan="0" vol="193" len="12" key="25"/>
          <note pos="420" pan="0" vol="193" len="12" key="25"/>
          <note pos="432" pan="0" vol="193" len="12" key="23"/>
          <note pos="444" pan="0" vol="193" len="12" key="23"/>
          <note pos="456" pan="0" vol="193" len="12" key="25"/>
          <note pos="468" pan="0" vol="193" len="12" key="25"/>
          <note pos="480" pan="0" vol="193" len="12" key="21"/>
          <note pos="492" pan="0" vol="193" len="12" key="21"/>
          <note pos="504" pan="0" vol="193" len="12" key="25"/>
          <note pos="516" pan="0" vol="193" len="12" key="25"/>
          <note pos="528" pan="0" vol="193" len="12" key="23"/>
          <note pos="540" pan="0" vol="193" len="12" key="23"/>
          <note pos="552" pan="0" vol="193" len="12" key="25"/>
          <note pos="564" pan="0" vol="193" len="12" key="25"/>
          <note pos="576" pan="0" vol="193" len="12" key="14"/>
          <note pos="588" pan="0" vol="193" len="12" key="14"/>
          <note pos="600" pan="0" vol="193" len="12" key="18"/>
          <note pos="612" pan="0" vol="193" len="12" key="18"/>
          <note pos="624" pan="0" vol="193" len="12" key="16"/>
          <note pos="636" pan="0" vol="193" len="12" key="16"/>
          <note pos="648" pan="0" vol="193" len="12" key="18"/>
          <note pos="660" pan="0" vol="193" len="12" key="18"/>
          <note pos="672" pan="0" vol="193" len="12" key="14"/>
          <note pos="684" pan="0" vol="193" len="12" key="14"/>
          <note pos="696" pan="0" vol="193" len="12" key="18"/>
          <note pos="708" pan="0" vol="193" len="12" key="18"/>
          <note pos="720" pan="0" vol="193" len="12" key="16"/>
          <note pos="732" pan="0" vol="193" len="12" key="16"/>
          <note pos="744" pan="0" vol="193" len="12" key="18"/>
          <note pos="756" pan="0" vol="193" len="12" key="18"/>
          <note pos="768" pan="0" vol="193" len="12" key="14"/>
          <note pos="768" pan="0" vol="193" len="12" key="0"/>
          <note pos="780" pan="0" vol="193" len="12" key="13"/>
          <note pos="780" pan="0" vol="193" len="12" key="1"/>
          <note pos="792" pan="0" vol="193" len="12" key="11"/>
          <note pos="804" pan="0" vol="193" len="12" key="11"/>
          <note pos="816" pan="0" vol="193" len="12" key="11"/>
          <note pos="828" pan="0" vol="193" len="12" key="11"/>
          <note pos="840" pan="0" vol="193" len="12" key="14"/>
          <note pos="840" pan="0" vol="193" len="12" key="0"/>
          <note pos="852" pan="0" vol="193" len="12" key="13"/>
          <note pos="852" pan="0" vol="193" len="12" key="1"/>
          <note pos="864" pan="0" vol="193" len="12" key="11"/>
          <note pos="876" pan="0" vol="193" len="12" key="11"/>
          <note pos="888" pan="0" vol="193" len="12" key="11"/>
          <note pos="900" pan="0" vol="193" len="12" key="11"/>
          <note pos="912" pan="0" vol="193" len="12" key="14"/>
          <note pos="912" pan="0" vol="193" len="12" key="0"/>
          <note pos="924" pan="0" vol="193" len="12" key="13"/>
          <note pos="924" pan="0" vol="193" len="12" key="1"/>
          <note pos="936" pan="0" vol="193" len="12" key="11"/>
          <note pos="948" pan="0" vol="193" len="12" key="11"/>
          <note pos="960" pan="0" vol="193" len="12" key="20"/>
          <note pos="972" pan="0" vol="193" len="12" key="20"/>
          <note pos="984" pan="0" vol="193" len="12" key="20"/>
          <note pos="996" pan="0" vol="193" len="12" key="20"/>
          <note pos="1008" pan="0" vol="193" len="12" key="24"/>
          <note pos="1020" pan="0" vol="193" len="12" key="24"/>
          <note pos="1032" pan="0" vol="193" len="12" key="24"/>
          <note pos="1044" pan="0" vol="193" len="12" key="24"/>
          <note pos="1056" pan="0" vol="193" len="12" key="25"/>
          <note pos="1068" pan="0" vol="193" len="12" key="25"/>
          <note pos="1080" pan="0" vol="193" len="12" key="25"/>
          <note pos="1092" pan="0" vol="193" len="12" key="25"/>
          <note pos="1104" pan="0" vol="193" len="12" key="27"/>
          <note pos="1116" pan="0" vol="193" len="12" key="27"/>
          <note pos="1128" pan="0" vol="193" len="12" key="27"/>
          <note pos="1140" pan="0" vol="193" len="12" key="27"/>
          <note pos="1152" pan="0" vol="193" len="24" key="25"/>
          <note pos="1152" pan="0" vol="193" len="12" key="0"/>
          <note pos="1164" pan="0" vol="193" len="12" key="1"/>
          <note pos="1176" pan="0" vol="193" len="12" key="13"/>
          <note pos="1188" pan="0" vol="193" len="12" key="13"/>
          <note pos="1200" pan="0" vol="193" len="12" key="13"/>
          <note pos="1212" pan="0" vol="193" len="12" key="13"/>
          <note pos="1224" pan="0" vol="193" len="12" key="13"/>
          <note pos="1236" pan="0" vol="193" len="12" key="13"/>
          <note pos="1248" pan="0" vol="193" len="12" key="13"/>
          <note pos="1260" pan="0" vol="193" len="12" key="13"/>
          <note pos="1272" pan="0" vol="193" len="24" key="25"/>
          <note pos="1272" pan="0" vol="193" len="12" key="0"/>
          <note pos="1284" pan="0" vol="193" len="12" key="1"/>
          <note pos="1296" pan="0" vol="193" len="12" key="13"/>
          <note pos="1308" pan="0" vol="193" len="12" key="13"/>
          <note pos="1320" pan="0" vol="193" len="12" key="13"/>
          <note pos="1332" pan="0" vol="193" len="12" key="13"/>
          <note pos="1344" pan="0" vol="193" len="24" key="25"/>
          <note pos="1344" pan="0" vol="193" len="12" key="0"/>
          <note pos="1356" pan="0" vol="193" len="12" key="1"/>
          <note pos="1368" pan="0" vol="193" len="12" key="13"/>
          <note pos="1380" pan="0" vol="193" len="12" key="13"/>
          <note pos="1392" pan="0" vol="193" len="12" key="13"/>
          <note pos="1404" pan="0" vol="193" len="12" key="13"/>
          <note pos="1416" pan="0" vol="193" len="12" key="13"/>
          <note pos="1428" pan="0" vol="193" len="12" key="13"/>
          <note pos="1440" pan="0" vol="193" len="12" key="13"/>
          <note pos="1452" pan="0" vol="193" len="12" key="13"/>
          <note pos="1464" pan="0" vol="193" len="24" key="25"/>
          <note pos="1464" pan="0" vol="193" len="12" key="0"/>
          <note pos="1476" pan="0" vol="193" len="12" key="1"/>
          <note pos="1488" pan="0" vol="193" len="12" key="13"/>
          <note pos="1500" pan="0" vol="193" len="12" key="13"/>
          <note pos="1512" pan="0" vol="193" len="12" key="13"/>
          <note pos="1524" pan="0" vol="193" len="12" key="13"/>
        </pattern>
        <pattern pos="19968" muted="0" steps="16" name="bass fender jazz (1,379kb)" type="1">
          <note pos="0" pan="0" vol="193" len="12" key="14"/>
          <note pos="0" pan="0" vol="193" len="12" key="0"/>
          <note pos="12" pan="0" vol="193" len="12" key="13"/>
          <note pos="24" pan="0" vol="193" len="12" key="13"/>
          <note pos="24" pan="0" vol="193" len="12" key="1"/>
          <note pos="36" pan="0" vol="193" len="12" key="13"/>
          <note pos="48" pan="0" vol="193" len="12" key="13"/>
          <note pos="60" pan="0" vol="193" len="12" key="13"/>
          <note pos="72" pan="0" vol="193" len="12" key="13"/>
          <note pos="84" pan="0" vol="193" len="12" key="13"/>
          <note pos="96" pan="0" vol="193" len="12" key="23"/>
          <note pos="96" pan="0" vol="193" len="12" key="0"/>
          <note pos="108" pan="0" vol="193" len="12" key="25"/>
          <note pos="120" pan="0" vol="193" len="12" key="13"/>
          <note pos="120" pan="0" vol="193" len="12" key="1"/>
          <note pos="132" pan="0" vol="193" len="12" key="13"/>
          <note pos="144" pan="0" vol="193" len="12" key="13"/>
          <note pos="156" pan="0" vol="193" len="12" key="13"/>
          <note pos="168" pan="0" vol="193" len="12" key="13"/>
          <note pos="180" pan="0" vol="193" len="12" key="13"/>
          <note pos="192" pan="0" vol="193" len="12" key="14"/>
          <note pos="192" pan="0" vol="193" len="12" key="0"/>
          <note pos="204" pan="0" vol="193" len="12" key="13"/>
          <note pos="216" pan="0" vol="193" len="12" key="13"/>
          <note pos="216" pan="0" vol="193" len="12" key="1"/>
          <note pos="228" pan="0" vol="193" len="12" key="13"/>
          <note pos="240" pan="0" vol="193" len="12" key="13"/>
          <note pos="252" pan="0" vol="193" len="12" key="13"/>
          <note pos="264" pan="0" vol="193" len="12" key="13"/>
          <note pos="276" pan="0" vol="193" len="12" key="13"/>
          <note pos="288" pan="0" vol="193" len="12" key="23"/>
          <note pos="288" pan="0" vol="193" len="12" key="0"/>
          <note pos="300" pan="0" vol="193" len="12" key="25"/>
          <note pos="312" pan="0" vol="193" len="12" key="13"/>
          <note pos="312" pan="0" vol="193" len="12" key="1"/>
          <note pos="324" pan="0" vol="193" len="12" key="13"/>
          <note pos="336" pan="0" vol="193" len="12" key="13"/>
          <note pos="348" pan="0" vol="193" len="12" key="13"/>
          <note pos="360" pan="0" vol="193" len="12" key="13"/>
          <note pos="372" pan="0" vol="193" len="12" key="13"/>
        </pattern>
        <pattern pos="20352" muted="0" steps="16" name="bass fender jazz (1,379kb)" type="1">
          <note pos="0" pan="0" vol="193" len="12" key="25"/>
          <note pos="0" pan="0" vol="193" len="24" key="1"/>
          <note pos="12" pan="0" vol="193" len="12" key="23"/>
          <note pos="24" pan="0" vol="193" len="12" key="21"/>
          <note pos="36" pan="0" vol="193" len="12" key="20"/>
          <note pos="48" pan="0" vol="193" len="12" key="23"/>
          <note pos="60" pan="0" vol="193" len="12" key="21"/>
          <note pos="72" pan="0" vol="193" len="12" key="20"/>
          <note pos="84" pan="0" vol="193" len="12" key="18"/>
          <note pos="96" pan="0" vol="193" len="12" key="21"/>
          <note pos="108" pan="0" vol="193" len="12" key="20"/>
          <note pos="120" pan="0" vol="193" len="12" key="18"/>
          <note pos="132" pan="0" vol="193" len="12" key="17"/>
          <note pos="144" pan="0" vol="193" len="12" key="20"/>
          <note pos="156" pan="0" vol="193" len="12" key="18"/>
          <note pos="168" pan="0" vol="193" len="12" key="17"/>
          <note pos="180" pan="0" vol="193" len="12" key="14"/>
          <note pos="192" pan="0" vol="193" len="12" key="18"/>
          <note pos="204" pan="0" vol="193" len="12" key="17"/>
          <note pos="216" pan="0" vol="193" len="12" key="14"/>
          <note pos="228" pan="0" vol="193" len="12" key="13"/>
          <note pos="240" pan="0" vol="193" len="12" key="17"/>
          <note pos="252" pan="0" vol="193" len="12" key="14"/>
          <note pos="264" pan="0" vol="193" len="12" key="13"/>
          <note pos="276" pan="0" vol="193" len="12" key="12"/>
          <note pos="288" pan="0" vol="193" len="24" key="13"/>
          <note pos="288" pan="0" vol="193" len="24" key="0"/>
        </pattern>
        <pattern pos="17856" muted="0" steps="16" name="bass fender jazz (1,379kb)" type="1">
          <note pos="0" pan="0" vol="193" len="24" key="13"/>
          <note pos="24" pan="0" vol="193" len="12" key="13"/>
          <note pos="36" pan="0" vol="193" len="12" key="13"/>
          <note pos="48" pan="0" vol="193" len="12" key="13"/>
          <note pos="60" pan="0" vol="193" len="12" key="13"/>
          <note pos="72" pan="0" vol="193" len="24" key="13"/>
          <note pos="96" pan="0" vol="193" len="12" key="13"/>
          <note pos="108" pan="0" vol="193" len="12" key="13"/>
          <note pos="120" pan="0" vol="193" len="12" key="17"/>
          <note pos="132" pan="0" vol="193" len="12" key="17"/>
          <note pos="144" pan="0" vol="193" len="12" key="18"/>
          <note pos="156" pan="0" vol="193" len="12" key="18"/>
          <note pos="168" pan="0" vol="193" len="12" key="20"/>
          <note pos="180" pan="0" vol="193" len="12" key="20"/>
          <note pos="192" pan="0" vol="193" len="24" key="18"/>
          <note pos="216" pan="0" vol="193" len="12" key="18"/>
          <note pos="228" pan="0" vol="193" len="12" key="18"/>
          <note pos="240" pan="0" vol="193" len="12" key="18"/>
          <note pos="252" pan="0" vol="193" len="12" key="18"/>
          <note pos="264" pan="0" vol="193" len="12" key="18"/>
          <note pos="276" pan="0" vol="193" len="12" key="18"/>
          <note pos="288" pan="0" vol="193" len="24" key="18"/>
          <note pos="312" pan="0" vol="193" len="24" key="18"/>
          <note pos="336" pan="0" vol="193" len="12" key="18"/>
          <note pos="348" pan="0" vol="193" len="12" key="18"/>
          <note pos="360" pan="0" vol="193" len="12" key="18"/>
          <note pos="372" pan="0" vol="193" len="12" key="18"/>
          <note pos="384" pan="0" vol="193" len="24" key="18"/>
          <note pos="408" pan="0" vol="193" len="12" key="18"/>
          <note pos="420" pan="0" vol="193" len="12" key="18"/>
          <note pos="432" pan="0" vol="193" len="24" key="18"/>
          <note pos="456" pan="0" vol="193" len="12" key="18"/>
          <note pos="468" pan="0" vol="193" len="12" key="18"/>
          <note pos="480" pan="0" vol="193" len="24" key="18"/>
          <note pos="504" pan="0" vol="193" len="24" key="18"/>
          <note pos="528" pan="0" vol="193" len="12" key="18"/>
          <note pos="540" pan="0" vol="193" len="12" key="18"/>
          <note pos="552" pan="0" vol="193" len="12" key="18"/>
          <note pos="564" pan="0" vol="193" len="12" key="18"/>
        </pattern>
      </track>
      <track solo="0" muted="0" name="ZynAddSubFX" type="0">
        <instrumenttrack pan="0" usemasterpitch="1" vol="87.4" pitchrange="1" fxch="15" pitch="0" basenote="57">
          <instrument name="zynaddsubfx">
            <zynaddsubfx portamento="0" forwardmidicc="1" bandwidth="64" rescenterfreq="64" fmgain="127" filterq="64" modifiedcontrollers="" resbandwidth="64" filterfreq="64">
              <ZynAddSubFX-data version-minor="4" version-revision="1" ZynAddSubFX-author="Nasca Octavian Paul" version-major="2">
                <INFORMATION>
                  <par_bool name="PADsynth_used" value="yes"/>
                  <par_bool name="PADsynth_used" value="yes"/>
                </INFORMATION>
                <BASE_PARAMETERS>
                  <par name="max_midi_parts" value="16"/>
                  <par name="max_kit_items_per_instrument" value="16"/>
                  <par name="max_system_effects" value="4"/>
                  <par name="max_insertion_effects" value="8"/>
                  <par name="max_instrument_effects" value="3"/>
                  <par name="max_addsynth_voices" value="8"/>
                </BASE_PARAMETERS>
                <MASTER>
                  <par name="volume" value="80"/>
                  <par name="key_shift" value="64"/>
                  <par_bool name="nrpn_receive" value="yes"/>
                  <MICROTONAL>
                    <string name="name">12tET</string>
                    <string name="comment">Equal Temperament 12 notes per octave</string>
                    <par_bool name="invert_up_down" value="no"/>
                    <par name="invert_up_down_center" value="60"/>
                    <par_bool name="enabled" value="no"/>
                    <par name="global_fine_detune" value="64"/>
                    <par name="a_note" value="69"/>
                    <par_real name="a_freq" value="440.000000"/>
                  </MICROTONAL>
                  <PART id="0">
                    <par_bool name="enabled" value="yes"/>
                    <par name="volume" value="98"/>
                    <par name="panning" value="64"/>
                    <par name="min_key" value="0"/>
                    <par name="max_key" value="127"/>
                    <par name="key_shift" value="76"/>
                    <par name="rcv_chn" value="0"/>
                    <par name="velocity_sensing" value="64"/>
                    <par name="velocity_offset" value="64"/>
                    <par_bool name="note_on" value="yes"/>
                    <par_bool name="poly_mode" value="yes"/>
                    <par name="legato_mode" value="0"/>
                    <par name="key_limit" value="15"/>
                    <INSTRUMENT>
                      <INFO>
                        <string name="name">Full Strings</string>
                        <string name="author">Will Godfrey
GPL V 2 or later</string>
                        <string name="comments">Developed from Paul's Strings Pad5</string>
                        <par name="type" value="12"/>
                      </INFO>
                      <INSTRUMENT_KIT>
                        <par name="kit_mode" value="1"/>
                        <par_bool name="drum_mode" value="no"/>
                        <INSTRUMENT_KIT_ITEM id="0">
                          <par_bool name="enabled" value="yes"/>
                          <string name="name"/>
                          <par_bool name="muted" value="no"/>
                          <par name="min_key" value="0"/>
                          <par name="max_key" value="127"/>
                          <par name="send_to_instrument_effect" value="0"/>
                          <par_bool name="add_enabled" value="no"/>
                          <par_bool name="sub_enabled" value="no"/>
                          <par_bool name="pad_enabled" value="yes"/>
                          <PAD_SYNTH_PARAMETERS>
                            <par_bool name="stereo" value="yes"/>
                            <par name="mode" value="0"/>
                            <par name="bandwidth" value="620"/>
                            <par name="bandwidth_scale" value="0"/>
                            <HARMONIC_PROFILE>
                              <par name="base_type" value="0"/>
                              <par name="base_par1" value="99"/>
                              <par name="frequency_multiplier" value="8"/>
                              <par name="modulator_par1" value="0"/>
                              <par name="modulator_frequency" value="55"/>
                              <par name="width" value="127"/>
                              <par name="amplitude_multiplier_type" value="0"/>
                              <par name="amplitude_multiplier_mode" value="2"/>
                              <par name="amplitude_multiplier_par1" value="80"/>
                              <par name="amplitude_multiplier_par2" value="4"/>
                              <par_bool name="autoscale" value="yes"/>
                              <par name="one_half" value="0"/>
                            </HARMONIC_PROFILE>
                            <OSCIL>
                              <par name="harmonic_mag_type" value="0"/>
                              <par name="base_function" value="4"/>
                              <par name="base_function_par" value="51"/>
                              <par name="base_function_modulation" value="0"/>
                              <par name="base_function_modulation_par1" value="64"/>
                              <par name="base_function_modulation_par2" value="64"/>
                              <par name="base_function_modulation_par3" value="32"/>
                              <par name="modulation" value="0"/>
                              <par name="modulation_par1" value="64"/>
                              <par name="modulation_par2" value="64"/>
                              <par name="modulation_par3" value="32"/>
                              <par name="wave_shaping" value="64"/>
                              <par name="wave_shaping_function" value="0"/>
                              <par name="filter_type" value="0"/>
                              <par name="filter_par1" value="37"/>
                              <par name="filter_par2" value="64"/>
                              <par name="filter_before_wave_shaping" value="0"/>
                              <par name="spectrum_adjust_type" value="0"/>
                              <par name="spectrum_adjust_par" value="64"/>
                              <par name="rand" value="64"/>
                              <par name="amp_rand_type" value="0"/>
                              <par name="amp_rand_power" value="64"/>
                              <par name="harmonic_shift" value="0"/>
                              <par_bool name="harmonic_shift_first" value="no"/>
                              <par name="adaptive_harmonics" value="0"/>
                              <par name="adaptive_harmonics_base_frequency" value="128"/>
                              <par name="adaptive_harmonics_power" value="100"/>
                              <HARMONICS>
                                <HARMONIC id="1">
                                  <par name="mag" value="83"/>
                                  <par name="phase" value="64"/>
                                </HARMONIC>
                                <HARMONIC id="2">
                                  <par name="mag" value="127"/>
                                  <par name="phase" value="64"/>
                                </HARMONIC>
                              </HARMONICS>
                            </OSCIL>
                            <RESONANCE>
                              <par_bool name="enabled" value="no"/>
                            </RESONANCE>
                            <HARMONIC_POSITION>
                              <par name="type" value="0"/>
                              <par name="parameter1" value="255"/>
                              <par name="parameter2" value="64"/>
                              <par name="parameter3" value="0"/>
                            </HARMONIC_POSITION>
                            <SAMPLE_QUALITY>
                              <par name="samplesize" value="4"/>
                              <par name="basenote" value="4"/>
                              <par name="octaves" value="5"/>
                              <par name="samples_per_octave" value="2"/>
                            </SAMPLE_QUALITY>
                            <AMPLITUDE_PARAMETERS>
                              <par name="volume" value="94"/>
                              <par name="panning" value="67"/>
                              <par name="velocity_sensing" value="70"/>
                              <par name="punch_strength" value="0"/>
                              <par name="punch_time" value="60"/>
                              <par name="punch_stretch" value="64"/>
                              <par name="punch_velocity_sensing" value="72"/>
                              <AMPLITUDE_ENVELOPE>
                                <par_bool name="free_mode" value="no"/>
                                <par name="env_points" value="4"/>
                                <par name="env_sustain" value="2"/>
                                <par name="env_stretch" value="0"/>
                                <par_bool name="forced_release" value="no"/>
                                <par_bool name="linear_envelope" value="no"/>
                                <par name="A_dt" value="5"/>
                                <par name="D_dt" value="39"/>
                                <par name="R_dt" value="33"/>
                                <par name="A_val" value="64"/>
                                <par name="D_val" value="64"/>
                                <par name="S_val" value="127"/>
                                <par name="R_val" value="64"/>
                              </AMPLITUDE_ENVELOPE>
                              <AMPLITUDE_LFO>
                                <par_real name="freq" value="0.629921"/>
                                <par name="intensity" value="0"/>
                                <par name="start_phase" value="64"/>
                                <par name="lfo_type" value="0"/>
                                <par name="randomness_amplitude" value="0"/>
                                <par name="randomness_frequency" value="0"/>
                                <par name="delay" value="0"/>
                                <par name="stretch" value="64"/>
                                <par_bool name="continous" value="no"/>
                              </AMPLITUDE_LFO>
                            </AMPLITUDE_PARAMETERS>
                            <FREQUENCY_PARAMETERS>
                              <par name="fixed_freq" value="0"/>
                              <par name="fixed_freq_et" value="0"/>
                              <par name="detune" value="8192"/>
                              <par name="coarse_detune" value="15360"/>
                              <par name="detune_type" value="1"/>
                              <FREQUENCY_ENVELOPE>
                                <par_bool name="free_mode" value="no"/>
                                <par name="env_points" value="3"/>
                                <par name="env_sustain" value="1"/>
                                <par name="env_stretch" value="0"/>
                                <par_bool name="forced_release" value="no"/>
                                <par_bool name="linear_envelope" value="no"/>
                                <par name="A_dt" value="50"/>
                                <par name="D_dt" value="10"/>
                                <par name="R_dt" value="60"/>
                                <par name="A_val" value="64"/>
                                <par name="D_val" value="64"/>
                                <par name="S_val" value="64"/>
                                <par name="R_val" value="64"/>
                              </FREQUENCY_ENVELOPE>
                              <FREQUENCY_LFO>
                                <par_real name="freq" value="0.621181"/>
                                <par name="intensity" value="0"/>
                                <par name="start_phase" value="64"/>
                                <par name="lfo_type" value="0"/>
                                <par name="randomness_amplitude" value="0"/>
                                <par name="randomness_frequency" value="0"/>
                                <par name="delay" value="0"/>
                                <par name="stretch" value="64"/>
                                <par_bool name="continous" value="no"/>
                              </FREQUENCY_LFO>
                            </FREQUENCY_PARAMETERS>
                            <FILTER_PARAMETERS>
                              <par name="velocity_sensing_amplitude" value="25"/>
                              <par name="velocity_sensing" value="64"/>
                              <FILTER>
                                <par name="category" value="0"/>
                                <par name="type" value="2"/>
                                <par name="freq" value="108"/>
                                <par name="q" value="28"/>
                                <par name="stages" value="1"/>
                                <par name="freq_track" value="97"/>
                                <par name="gain" value="64"/>
                              </FILTER>
                              <FILTER_ENVELOPE>
                                <par_bool name="free_mode" value="no"/>
                                <par name="env_points" value="4"/>
                                <par name="env_sustain" value="2"/>
                                <par name="env_stretch" value="0"/>
                                <par_bool name="forced_release" value="yes"/>
                                <par_bool name="linear_envelope" value="no"/>
                                <par name="A_dt" value="17"/>
                                <par name="D_dt" value="70"/>
                                <par name="R_dt" value="98"/>
                                <par name="A_val" value="37"/>
                                <par name="D_val" value="64"/>
                                <par name="S_val" value="64"/>
                                <par name="R_val" value="43"/>
                              </FILTER_ENVELOPE>
                              <FILTER_LFO>
                                <par_real name="freq" value="0.629921"/>
                                <par name="intensity" value="0"/>
                                <par name="start_phase" value="64"/>
                                <par name="lfo_type" value="0"/>
                                <par name="randomness_amplitude" value="0"/>
                                <par name="randomness_frequency" value="0"/>
                                <par name="delay" value="0"/>
                                <par name="stretch" value="64"/>
                                <par_bool name="continous" value="no"/>
                              </FILTER_LFO>
                            </FILTER_PARAMETERS>
                          </PAD_SYNTH_PARAMETERS>
                        </INSTRUMENT_KIT_ITEM>
                        <INSTRUMENT_KIT_ITEM id="1">
                          <par_bool name="enabled" value="no"/>
                        </INSTRUMENT_KIT_ITEM>
                        <INSTRUMENT_KIT_ITEM id="2">
                          <par_bool name="enabled" value="no"/>
                        </INSTRUMENT_KIT_ITEM>
                        <INSTRUMENT_KIT_ITEM id="3">
                          <par_bool name="enabled" value="no"/>
                        </INSTRUMENT_KIT_ITEM>
                        <INSTRUMENT_KIT_ITEM id="4">
                          <par_bool name="enabled" value="no"/>
                        </INSTRUMENT_KIT_ITEM>
                        <INSTRUMENT_KIT_ITEM id="5">
                          <par_bool name="enabled" value="no"/>
                        </INSTRUMENT_KIT_ITEM>
                        <INSTRUMENT_KIT_ITEM id="6">
                          <par_bool name="enabled" value="no"/>
                        </INSTRUMENT_KIT_ITEM>
                        <INSTRUMENT_KIT_ITEM id="7">
                          <par_bool name="enabled" value="no"/>
                        </INSTRUMENT_KIT_ITEM>
                        <INSTRUMENT_KIT_ITEM id="8">
                          <par_bool name="enabled" value="no"/>
                        </INSTRUMENT_KIT_ITEM>
                        <INSTRUMENT_KIT_ITEM id="9">
                          <par_bool name="enabled" value="no"/>
                        </INSTRUMENT_KIT_ITEM>
                        <INSTRUMENT_KIT_ITEM id="10">
                          <par_bool name="enabled" value="no"/>
                        </INSTRUMENT_KIT_ITEM>
                        <INSTRUMENT_KIT_ITEM id="11">
                          <par_bool name="enabled" value="no"/>
                        </INSTRUMENT_KIT_ITEM>
                        <INSTRUMENT_KIT_ITEM id="12">
                          <par_bool name="enabled" value="no"/>
                        </INSTRUMENT_KIT_ITEM>
                        <INSTRUMENT_KIT_ITEM id="13">
                          <par_bool name="enabled" value="no"/>
                        </INSTRUMENT_KIT_ITEM>
                        <INSTRUMENT_KIT_ITEM id="14">
                          <par_bool name="enabled" value="no"/>
                        </INSTRUMENT_KIT_ITEM>
                        <INSTRUMENT_KIT_ITEM id="15">
                          <par_bool name="enabled" value="no"/>
                        </INSTRUMENT_KIT_ITEM>
                      </INSTRUMENT_KIT>
                      <INSTRUMENT_EFFECTS>
                        <INSTRUMENT_EFFECT id="0">
                          <EFFECT>
                            <par name="type" value="3"/>
                            <par name="preset" value="0"/>
                            <EFFECT_PARAMETERS>
                              <par_no id="0">
                                <par name="par" value="64"/>
                              </par_no>
                              <par_no id="1">
                                <par name="par" value="64"/>
                              </par_no>
                              <par_no id="2">
                                <par name="par" value="50"/>
                              </par_no>
                              <par_no id="5">
                                <par name="par" value="90"/>
                              </par_no>
                              <par_no id="6">
                                <par name="par" value="40"/>
                              </par_no>
                              <par_no id="7">
                                <par name="par" value="85"/>
                              </par_no>
                              <par_no id="8">
                                <par name="par" value="67"/>
                              </par_no>
                              <par_no id="9">
                                <par name="par" value="119"/>
                              </par_no>
                            </EFFECT_PARAMETERS>
                          </EFFECT>
                          <par name="route" value="0"/>
                          <par_bool name="bypass" value="no"/>
                        </INSTRUMENT_EFFECT>
                        <INSTRUMENT_EFFECT id="1">
                          <EFFECT>
                            <par name="type" value="1"/>
                            <par name="preset" value="0"/>
                            <EFFECT_PARAMETERS>
                              <par_no id="0">
                                <par name="par" value="40"/>
                              </par_no>
                              <par_no id="1">
                                <par name="par" value="64"/>
                              </par_no>
                              <par_no id="2">
                                <par name="par" value="63"/>
                              </par_no>
                              <par_no id="3">
                                <par name="par" value="24"/>
                              </par_no>
                              <par_no id="7">
                                <par name="par" value="85"/>
                              </par_no>
                              <par_no id="8">
                                <par name="par" value="5"/>
                              </par_no>
                              <par_no id="9">
                                <par name="par" value="83"/>
                              </par_no>
                              <par_no id="10">
                                <par name="par" value="1"/>
                              </par_no>
                              <par_no id="11">
                                <par name="par" value="64"/>
                              </par_no>
                            </EFFECT_PARAMETERS>
                          </EFFECT>
                          <par name="route" value="0"/>
                          <par_bool name="bypass" value="no"/>
                        </INSTRUMENT_EFFECT>
                        <INSTRUMENT_EFFECT id="2">
                          <EFFECT>
                            <par name="type" value="0"/>
                          </EFFECT>
                          <par name="route" value="0"/>
                          <par_bool name="bypass" value="no"/>
                        </INSTRUMENT_EFFECT>
                      </INSTRUMENT_EFFECTS>
                    </INSTRUMENT>
                    <CONTROLLER>
                      <par name="pitchwheel_bendrange" value="100"/>
                      <par_bool name="expression_receive" value="yes"/>
                      <par name="panning_depth" value="64"/>
                      <par name="filter_cutoff_depth" value="64"/>
                      <par name="filter_q_depth" value="64"/>
                      <par name="bandwidth_depth" value="64"/>
                      <par name="mod_wheel_depth" value="80"/>
                      <par_bool name="mod_wheel_exponential" value="no"/>
                      <par_bool name="fm_amp_receive" value="yes"/>
                      <par_bool name="volume_receive" value="yes"/>
                      <par_bool name="sustain_receive" value="yes"/>
                      <par_bool name="portamento_receive" value="yes"/>
                      <par name="portamento_time" value="64"/>
                      <par name="portamento_pitchthresh" value="3"/>
                      <par name="portamento_pitchthreshtype" value="1"/>
                      <par name="portamento_portamento" value="0"/>
                      <par name="portamento_updowntimestretch" value="64"/>
                      <par name="portamento_proportional" value="0"/>
                      <par name="portamento_proprate" value="80"/>
                      <par name="portamento_propdepth" value="90"/>
                      <par name="resonance_center_depth" value="64"/>
                      <par name="resonance_bandwidth_depth" value="64"/>
                    </CONTROLLER>
                  </PART>
                  <PART id="1">
                    <par_bool name="enabled" value="yes"/>
                    <par name="volume" value="88"/>
                    <par name="panning" value="64"/>
                    <par name="min_key" value="0"/>
                    <par name="max_key" value="127"/>
                    <par name="key_shift" value="52"/>
                    <par name="rcv_chn" value="0"/>
                    <par name="velocity_sensing" value="64"/>
                    <par name="velocity_offset" value="64"/>
                    <par_bool name="note_on" value="yes"/>
                    <par_bool name="poly_mode" value="yes"/>
                    <par name="legato_mode" value="0"/>
                    <par name="key_limit" value="15"/>
                    <INSTRUMENT>
                      <INFO>
                        <string name="name">Brass Pad2</string>
                        <string name="author"/>
                        <string name="comments"/>
                        <par name="type" value="0"/>
                      </INFO>
                      <INSTRUMENT_KIT>
                        <par name="kit_mode" value="0"/>
                        <par_bool name="drum_mode" value="no"/>
                        <INSTRUMENT_KIT_ITEM id="0">
                          <par_bool name="enabled" value="yes"/>
                          <string name="name"/>
                          <par_bool name="muted" value="no"/>
                          <par name="min_key" value="0"/>
                          <par name="max_key" value="127"/>
                          <par name="send_to_instrument_effect" value="0"/>
                          <par_bool name="add_enabled" value="no"/>
                          <par_bool name="sub_enabled" value="no"/>
                          <par_bool name="pad_enabled" value="yes"/>
                          <PAD_SYNTH_PARAMETERS>
                            <par_bool name="stereo" value="yes"/>
                            <par name="mode" value="0"/>
                            <par name="bandwidth" value="460"/>
                            <par name="bandwidth_scale" value="0"/>
                            <HARMONIC_PROFILE>
                              <par name="base_type" value="1"/>
                              <par name="base_par1" value="109"/>
                              <par name="frequency_multiplier" value="63"/>
                              <par name="modulator_par1" value="0"/>
                              <par name="modulator_frequency" value="30"/>
                              <par name="width" value="127"/>
                              <par name="amplitude_multiplier_type" value="0"/>
                              <par name="amplitude_multiplier_mode" value="0"/>
                              <par name="amplitude_multiplier_par1" value="80"/>
                              <par name="amplitude_multiplier_par2" value="64"/>
                              <par_bool name="autoscale" value="yes"/>
                              <par name="one_half" value="0"/>
                            </HARMONIC_PROFILE>
                            <OSCIL>
                              <par name="harmonic_mag_type" value="0"/>
                              <par name="base_function" value="4"/>
                              <par name="base_function_par" value="61"/>
                              <par name="base_function_modulation" value="0"/>
                              <par name="base_function_modulation_par1" value="64"/>
                              <par name="base_function_modulation_par2" value="64"/>
                              <par name="base_function_modulation_par3" value="32"/>
                              <par name="modulation" value="0"/>
                              <par name="modulation_par1" value="64"/>
                              <par name="modulation_par2" value="64"/>
                              <par name="modulation_par3" value="32"/>
                              <par name="wave_shaping" value="68"/>
                              <par name="wave_shaping_function" value="1"/>
                              <par name="filter_type" value="0"/>
                              <par name="filter_par1" value="64"/>
                              <par name="filter_par2" value="64"/>
                              <par name="filter_before_wave_shaping" value="0"/>
                              <par name="spectrum_adjust_type" value="0"/>
                              <par name="spectrum_adjust_par" value="57"/>
                              <par name="rand" value="0"/>
                              <par name="amp_rand_type" value="0"/>
                              <par name="amp_rand_power" value="64"/>
                              <par name="harmonic_shift" value="0"/>
                              <par_bool name="harmonic_shift_first" value="no"/>
                              <par name="adaptive_harmonics" value="0"/>
                              <par name="adaptive_harmonics_base_frequency" value="128"/>
                              <par name="adaptive_harmonics_power" value="100"/>
                              <HARMONICS>
                                <HARMONIC id="1">
                                  <par name="mag" value="127"/>
                                  <par name="phase" value="64"/>
                                </HARMONIC>
                                <HARMONIC id="2">
                                  <par name="mag" value="104"/>
                                  <par name="phase" value="64"/>
                                </HARMONIC>
                              </HARMONICS>
                            </OSCIL>
                            <RESONANCE>
                              <par_bool name="enabled" value="no"/>
                            </RESONANCE>
                            <HARMONIC_POSITION>
                              <par name="type" value="0"/>
                              <par name="parameter1" value="97"/>
                              <par name="parameter2" value="64"/>
                              <par name="parameter3" value="0"/>
                            </HARMONIC_POSITION>
                            <SAMPLE_QUALITY>
                              <par name="samplesize" value="3"/>
                              <par name="basenote" value="4"/>
                              <par name="octaves" value="3"/>
                              <par name="samples_per_octave" value="2"/>
                            </SAMPLE_QUALITY>
                            <AMPLITUDE_PARAMETERS>
                              <par name="volume" value="98"/>
                              <par name="panning" value="64"/>
                              <par name="velocity_sensing" value="96"/>
                              <par name="punch_strength" value="0"/>
                              <par name="punch_time" value="60"/>
                              <par name="punch_stretch" value="64"/>
                              <par name="punch_velocity_sensing" value="72"/>
                              <AMPLITUDE_ENVELOPE>
                                <par_bool name="free_mode" value="no"/>
                                <par name="env_points" value="4"/>
                                <par name="env_sustain" value="2"/>
                                <par name="env_stretch" value="0"/>
                                <par_bool name="forced_release" value="yes"/>
                                <par_bool name="linear_envelope" value="no"/>
                                <par name="A_dt" value="0"/>
                                <par name="D_dt" value="40"/>
                                <par name="R_dt" value="63"/>
                                <par name="A_val" value="64"/>
                                <par name="D_val" value="64"/>
                                <par name="S_val" value="127"/>
                                <par name="R_val" value="64"/>
                              </AMPLITUDE_ENVELOPE>
                              <AMPLITUDE_LFO>
                                <par_real name="freq" value="0.629921"/>
                                <par name="intensity" value="0"/>
                                <par name="start_phase" value="64"/>
                                <par name="lfo_type" value="0"/>
                                <par name="randomness_amplitude" value="0"/>
                                <par name="randomness_frequency" value="0"/>
                                <par name="delay" value="0"/>
                                <par name="stretch" value="64"/>
                                <par_bool name="continous" value="no"/>
                              </AMPLITUDE_LFO>
                            </AMPLITUDE_PARAMETERS>
                            <FREQUENCY_PARAMETERS>
                              <par name="fixed_freq" value="0"/>
                              <par name="fixed_freq_et" value="0"/>
                              <par name="detune" value="8192"/>
                              <par name="coarse_detune" value="0"/>
                              <par name="detune_type" value="1"/>
                              <FREQUENCY_ENVELOPE>
                                <par_bool name="free_mode" value="no"/>
                                <par name="env_points" value="3"/>
                                <par name="env_sustain" value="1"/>
                                <par name="env_stretch" value="23"/>
                                <par_bool name="forced_release" value="no"/>
                                <par_bool name="linear_envelope" value="no"/>
                                <par name="A_dt" value="26"/>
                                <par name="D_dt" value="10"/>
                                <par name="R_dt" value="60"/>
                                <par name="A_val" value="44"/>
                                <par name="D_val" value="64"/>
                                <par name="S_val" value="64"/>
                                <par name="R_val" value="64"/>
                              </FREQUENCY_ENVELOPE>
                              <FREQUENCY_LFO>
                                <par_real name="freq" value="0.582677"/>
                                <par name="intensity" value="0"/>
                                <par name="start_phase" value="64"/>
                                <par name="lfo_type" value="0"/>
                                <par name="randomness_amplitude" value="0"/>
                                <par name="randomness_frequency" value="27"/>
                                <par name="delay" value="0"/>
                                <par name="stretch" value="64"/>
                                <par_bool name="continous" value="no"/>
                              </FREQUENCY_LFO>
                            </FREQUENCY_PARAMETERS>
                            <FILTER_PARAMETERS>
                              <par name="velocity_sensing_amplitude" value="64"/>
                              <par name="velocity_sensing" value="64"/>
                              <FILTER>
                                <par name="category" value="0"/>
                                <par name="type" value="2"/>
                                <par name="freq" value="74"/>
                                <par name="q" value="24"/>
                                <par name="stages" value="2"/>
                                <par name="freq_track" value="65"/>
                                <par name="gain" value="64"/>
                              </FILTER>
                              <FILTER_ENVELOPE>
                                <par_bool name="free_mode" value="no"/>
                                <par name="env_points" value="4"/>
                                <par name="env_sustain" value="2"/>
                                <par name="env_stretch" value="0"/>
                                <par_bool name="forced_release" value="yes"/>
                                <par_bool name="linear_envelope" value="no"/>
                                <par name="A_dt" value="32"/>
                                <par name="D_dt" value="86"/>
                                <par name="R_dt" value="62"/>
                                <par name="A_val" value="37"/>
                                <par name="D_val" value="110"/>
                                <par name="S_val" value="64"/>
                                <par name="R_val" value="53"/>
                              </FILTER_ENVELOPE>
                              <FILTER_LFO>
                                <par_real name="freq" value="0.629921"/>
                                <par name="intensity" value="0"/>
                                <par name="start_phase" value="64"/>
                                <par name="lfo_type" value="0"/>
                                <par name="randomness_amplitude" value="0"/>
                                <par name="randomness_frequency" value="0"/>
                                <par name="delay" value="0"/>
                                <par name="stretch" value="64"/>
                                <par_bool name="continous" value="no"/>
                              </FILTER_LFO>
                            </FILTER_PARAMETERS>
                          </PAD_SYNTH_PARAMETERS>
                        </INSTRUMENT_KIT_ITEM>
                        <INSTRUMENT_KIT_ITEM id="1">
                          <par_bool name="enabled" value="no"/>
                        </INSTRUMENT_KIT_ITEM>
                        <INSTRUMENT_KIT_ITEM id="2">
                          <par_bool name="enabled" value="no"/>
                        </INSTRUMENT_KIT_ITEM>
                        <INSTRUMENT_KIT_ITEM id="3">
                          <par_bool name="enabled" value="no"/>
                        </INSTRUMENT_KIT_ITEM>
                        <INSTRUMENT_KIT_ITEM id="4">
                          <par_bool name="enabled" value="no"/>
                        </INSTRUMENT_KIT_ITEM>
                        <INSTRUMENT_KIT_ITEM id="5">
                          <par_bool name="enabled" value="no"/>
                        </INSTRUMENT_KIT_ITEM>
                        <INSTRUMENT_KIT_ITEM id="6">
                          <par_bool name="enabled" value="no"/>
                        </INSTRUMENT_KIT_ITEM>
                        <INSTRUMENT_KIT_ITEM id="7">
                          <par_bool name="enabled" value="no"/>
                        </INSTRUMENT_KIT_ITEM>
                        <INSTRUMENT_KIT_ITEM id="8">
                          <par_bool name="enabled" value="no"/>
                        </INSTRUMENT_KIT_ITEM>
                        <INSTRUMENT_KIT_ITEM id="9">
                          <par_bool name="enabled" value="no"/>
                        </INSTRUMENT_KIT_ITEM>
                        <INSTRUMENT_KIT_ITEM id="10">
                          <par_bool name="enabled" value="no"/>
                        </INSTRUMENT_KIT_ITEM>
                        <INSTRUMENT_KIT_ITEM id="11">
                          <par_bool name="enabled" value="no"/>
                        </INSTRUMENT_KIT_ITEM>
                        <INSTRUMENT_KIT_ITEM id="12">
                          <par_bool name="enabled" value="no"/>
                        </INSTRUMENT_KIT_ITEM>
                        <INSTRUMENT_KIT_ITEM id="13">
                          <par_bool name="enabled" value="no"/>
                        </INSTRUMENT_KIT_ITEM>
                        <INSTRUMENT_KIT_ITEM id="14">
                          <par_bool name="enabled" value="no"/>
                        </INSTRUMENT_KIT_ITEM>
                        <INSTRUMENT_KIT_ITEM id="15">
                          <par_bool name="enabled" value="no"/>
                        </INSTRUMENT_KIT_ITEM>
                      </INSTRUMENT_KIT>
                      <INSTRUMENT_EFFECTS>
                        <INSTRUMENT_EFFECT id="0">
                          <EFFECT>
                            <par name="type" value="3"/>
                            <par name="preset" value="0"/>
                            <EFFECT_PARAMETERS>
                              <par_no id="0">
                                <par name="par" value="64"/>
                              </par_no>
                              <par_no id="1">
                                <par name="par" value="64"/>
                              </par_no>
                              <par_no id="2">
                                <par name="par" value="50"/>
                              </par_no>
                              <par_no id="5">
                                <par name="par" value="90"/>
                              </par_no>
                              <par_no id="6">
                                <par name="par" value="40"/>
                              </par_no>
                              <par_no id="7">
                                <par name="par" value="17"/>
                              </par_no>
                              <par_no id="8">
                                <par name="par" value="64"/>
                              </par_no>
                              <par_no id="9">
                                <par name="par" value="119"/>
                              </par_no>
                            </EFFECT_PARAMETERS>
                          </EFFECT>
                          <par name="route" value="0"/>
                          <par_bool name="bypass" value="yes"/>
                        </INSTRUMENT_EFFECT>
                        <INSTRUMENT_EFFECT id="1">
                          <EFFECT>
                            <par name="type" value="3"/>
                            <par name="preset" value="0"/>
                            <EFFECT_PARAMETERS>
                              <par_no id="0">
                                <par name="par" value="64"/>
                              </par_no>
                              <par_no id="1">
                                <par name="par" value="64"/>
                              </par_no>
                              <par_no id="2">
                                <par name="par" value="50"/>
                              </par_no>
                              <par_no id="5">
                                <par name="par" value="90"/>
                              </par_no>
                              <par_no id="6">
                                <par name="par" value="58"/>
                              </par_no>
                              <par_no id="7">
                                <par name="par" value="102"/>
                              </par_no>
                              <par_no id="8">
                                <par name="par" value="64"/>
                              </par_no>
                              <par_no id="9">
                                <par name="par" value="119"/>
                              </par_no>
                            </EFFECT_PARAMETERS>
                          </EFFECT>
                          <par name="route" value="0"/>
                          <par_bool name="bypass" value="yes"/>
                        </INSTRUMENT_EFFECT>
                        <INSTRUMENT_EFFECT id="2">
                          <EFFECT>
                            <par name="type" value="3"/>
                            <par name="preset" value="0"/>
                            <EFFECT_PARAMETERS>
                              <par_no id="0">
                                <par name="par" value="64"/>
                              </par_no>
                              <par_no id="1">
                                <par name="par" value="64"/>
                              </par_no>
                              <par_no id="2">
                                <par name="par" value="65"/>
                              </par_no>
                              <par_no id="5">
                                <par name="par" value="90"/>
                              </par_no>
                              <par_no id="6">
                                <par name="par" value="40"/>
                              </par_no>
                              <par_no id="7">
                                <par name="par" value="19"/>
                              </par_no>
                              <par_no id="8">
                                <par name="par" value="64"/>
                              </par_no>
                              <par_no id="9">
                                <par name="par" value="119"/>
                              </par_no>
                            </EFFECT_PARAMETERS>
                          </EFFECT>
                          <par name="route" value="0"/>
                          <par_bool name="bypass" value="yes"/>
                        </INSTRUMENT_EFFECT>
                      </INSTRUMENT_EFFECTS>
                    </INSTRUMENT>
                    <CONTROLLER>
                      <par name="pitchwheel_bendrange" value="100"/>
                      <par_bool name="expression_receive" value="yes"/>
                      <par name="panning_depth" value="64"/>
                      <par name="filter_cutoff_depth" value="64"/>
                      <par name="filter_q_depth" value="64"/>
                      <par name="bandwidth_depth" value="64"/>
                      <par name="mod_wheel_depth" value="80"/>
                      <par_bool name="mod_wheel_exponential" value="no"/>
                      <par_bool name="fm_amp_receive" value="yes"/>
                      <par_bool name="volume_receive" value="yes"/>
                      <par_bool name="sustain_receive" value="yes"/>
                      <par_bool name="portamento_receive" value="yes"/>
                      <par name="portamento_time" value="64"/>
                      <par name="portamento_pitchthresh" value="3"/>
                      <par name="portamento_pitchthreshtype" value="1"/>
                      <par name="portamento_portamento" value="0"/>
                      <par name="portamento_updowntimestretch" value="64"/>
                      <par name="portamento_proportional" value="0"/>
                      <par name="portamento_proprate" value="80"/>
                      <par name="portamento_propdepth" value="90"/>
                      <par name="resonance_center_depth" value="64"/>
                      <par name="resonance_bandwidth_depth" value="64"/>
                    </CONTROLLER>
                  </PART>
                  <PART id="2">
                    <par_bool name="enabled" value="no"/>
                  </PART>
                  <PART id="3">
                    <par_bool name="enabled" value="no"/>
                  </PART>
                  <PART id="4">
                    <par_bool name="enabled" value="no"/>
                  </PART>
                  <PART id="5">
                    <par_bool name="enabled" value="no"/>
                  </PART>
                  <PART id="6">
                    <par_bool name="enabled" value="no"/>
                  </PART>
                  <PART id="7">
                    <par_bool name="enabled" value="no"/>
                  </PART>
                  <PART id="8">
                    <par_bool name="enabled" value="no"/>
                  </PART>
                  <PART id="9">
                    <par_bool name="enabled" value="no"/>
                  </PART>
                  <PART id="10">
                    <par_bool name="enabled" value="no"/>
                  </PART>
                  <PART id="11">
                    <par_bool name="enabled" value="no"/>
                  </PART>
                  <PART id="12">
                    <par_bool name="enabled" value="no"/>
                  </PART>
                  <PART id="13">
                    <par_bool name="enabled" value="no"/>
                  </PART>
                  <PART id="14">
                    <par_bool name="enabled" value="no"/>
                  </PART>
                  <PART id="15">
                    <par_bool name="enabled" value="no"/>
                  </PART>
                  <SYSTEM_EFFECTS>
                    <SYSTEM_EFFECT id="0">
                      <EFFECT>
                        <par name="type" value="0"/>
                      </EFFECT>
                      <VOLUME id="0">
                        <par name="vol" value="0"/>
                      </VOLUME>
                      <VOLUME id="1">
                        <par name="vol" value="0"/>
                      </VOLUME>
                      <VOLUME id="2">
                        <par name="vol" value="0"/>
                      </VOLUME>
                      <VOLUME id="3">
                        <par name="vol" value="0"/>
                      </VOLUME>
                      <VOLUME id="4">
                        <par name="vol" value="0"/>
                      </VOLUME>
                      <VOLUME id="5">
                        <par name="vol" value="0"/>
                      </VOLUME>
                      <VOLUME id="6">
                        <par name="vol" value="0"/>
                      </VOLUME>
                      <VOLUME id="7">
                        <par name="vol" value="0"/>
                      </VOLUME>
                      <VOLUME id="8">
                        <par name="vol" value="0"/>
                      </VOLUME>
                      <VOLUME id="9">
                        <par name="vol" value="0"/>
                      </VOLUME>
                      <VOLUME id="10">
                        <par name="vol" value="0"/>
                      </VOLUME>
                      <VOLUME id="11">
                        <par name="vol" value="0"/>
                      </VOLUME>
                      <VOLUME id="12">
                        <par name="vol" value="0"/>
                      </VOLUME>
                      <VOLUME id="13">
                        <par name="vol" value="0"/>
                      </VOLUME>
                      <VOLUME id="14">
                        <par name="vol" value="0"/>
                      </VOLUME>
                      <VOLUME id="15">
                        <par name="vol" value="0"/>
                      </VOLUME>
                      <SENDTO id="1">
                        <par name="send_vol" value="0"/>
                      </SENDTO>
                      <SENDTO id="2">
                        <par name="send_vol" value="0"/>
                      </SENDTO>
                      <SENDTO id="3">
                        <par name="send_vol" value="0"/>
                      </SENDTO>
                    </SYSTEM_EFFECT>
                    <SYSTEM_EFFECT id="1">
                      <EFFECT>
                        <par name="type" value="0"/>
                      </EFFECT>
                      <VOLUME id="0">
                        <par name="vol" value="0"/>
                      </VOLUME>
                      <VOLUME id="1">
                        <par name="vol" value="0"/>
                      </VOLUME>
                      <VOLUME id="2">
                        <par name="vol" value="0"/>
                      </VOLUME>
                      <VOLUME id="3">
                        <par name="vol" value="0"/>
                      </VOLUME>
                      <VOLUME id="4">
                        <par name="vol" value="0"/>
                      </VOLUME>
                      <VOLUME id="5">
                        <par name="vol" value="0"/>
                      </VOLUME>
                      <VOLUME id="6">
                        <par name="vol" value="0"/>
                      </VOLUME>
                      <VOLUME id="7">
                        <par name="vol" value="0"/>
                      </VOLUME>
                      <VOLUME id="8">
                        <par name="vol" value="0"/>
                      </VOLUME>
                      <VOLUME id="9">
                        <par name="vol" value="0"/>
                      </VOLUME>
                      <VOLUME id="10">
                        <par name="vol" value="0"/>
                      </VOLUME>
                      <VOLUME id="11">
                        <par name="vol" value="0"/>
                      </VOLUME>
                      <VOLUME id="12">
                        <par name="vol" value="0"/>
                      </VOLUME>
                      <VOLUME id="13">
                        <par name="vol" value="0"/>
                      </VOLUME>
                      <VOLUME id="14">
                        <par name="vol" value="0"/>
                      </VOLUME>
                      <VOLUME id="15">
                        <par name="vol" value="0"/>
                      </VOLUME>
                      <SENDTO id="2">
                        <par name="send_vol" value="0"/>
                      </SENDTO>
                      <SENDTO id="3">
                        <par name="send_vol" value="0"/>
                      </SENDTO>
                    </SYSTEM_EFFECT>
                    <SYSTEM_EFFECT id="2">
                      <EFFECT>
                        <par name="type" value="0"/>
                      </EFFECT>
                      <VOLUME id="0">
                        <par name="vol" value="0"/>
                      </VOLUME>
                      <VOLUME id="1">
                        <par name="vol" value="0"/>
                      </VOLUME>
                      <VOLUME id="2">
                        <par name="vol" value="0"/>
                      </VOLUME>
                      <VOLUME id="3">
                        <par name="vol" value="0"/>
                      </VOLUME>
                      <VOLUME id="4">
                        <par name="vol" value="0"/>
                      </VOLUME>
                      <VOLUME id="5">
                        <par name="vol" value="0"/>
                      </VOLUME>
                      <VOLUME id="6">
                        <par name="vol" value="0"/>
                      </VOLUME>
                      <VOLUME id="7">
                        <par name="vol" value="0"/>
                      </VOLUME>
                      <VOLUME id="8">
                        <par name="vol" value="0"/>
                      </VOLUME>
                      <VOLUME id="9">
                        <par name="vol" value="0"/>
                      </VOLUME>
                      <VOLUME id="10">
                        <par name="vol" value="0"/>
                      </VOLUME>
                      <VOLUME id="11">
                        <par name="vol" value="0"/>
                      </VOLUME>
                      <VOLUME id="12">
                        <par name="vol" value="0"/>
                      </VOLUME>
                      <VOLUME id="13">
                        <par name="vol" value="0"/>
                      </VOLUME>
                      <VOLUME id="14">
                        <par name="vol" value="0"/>
                      </VOLUME>
                      <VOLUME id="15">
                        <par name="vol" value="0"/>
                      </VOLUME>
                      <SENDTO id="3">
                        <par name="send_vol" value="0"/>
                      </SENDTO>
                    </SYSTEM_EFFECT>
                    <SYSTEM_EFFECT id="3">
                      <EFFECT>
                        <par name="type" value="0"/>
                      </EFFECT>
                      <VOLUME id="0">
                        <par name="vol" value="0"/>
                      </VOLUME>
                      <VOLUME id="1">
                        <par name="vol" value="0"/>
                      </VOLUME>
                      <VOLUME id="2">
                        <par name="vol" value="0"/>
                      </VOLUME>
                      <VOLUME id="3">
                        <par name="vol" value="0"/>
                      </VOLUME>
                      <VOLUME id="4">
                        <par name="vol" value="0"/>
                      </VOLUME>
                      <VOLUME id="5">
                        <par name="vol" value="0"/>
                      </VOLUME>
                      <VOLUME id="6">
                        <par name="vol" value="0"/>
                      </VOLUME>
                      <VOLUME id="7">
                        <par name="vol" value="0"/>
                      </VOLUME>
                      <VOLUME id="8">
                        <par name="vol" value="0"/>
                      </VOLUME>
                      <VOLUME id="9">
                        <par name="vol" value="0"/>
                      </VOLUME>
                      <VOLUME id="10">
                        <par name="vol" value="0"/>
                      </VOLUME>
                      <VOLUME id="11">
                        <par name="vol" value="0"/>
                      </VOLUME>
                      <VOLUME id="12">
                        <par name="vol" value="0"/>
                      </VOLUME>
                      <VOLUME id="13">
                        <par name="vol" value="0"/>
                      </VOLUME>
                      <VOLUME id="14">
                        <par name="vol" value="0"/>
                      </VOLUME>
                      <VOLUME id="15">
                        <par name="vol" value="0"/>
                      </VOLUME>
                    </SYSTEM_EFFECT>
                  </SYSTEM_EFFECTS>
                  <INSERTION_EFFECTS>
                    <INSERTION_EFFECT id="0">
                      <par name="part" value="-1"/>
                      <EFFECT>
                        <par name="type" value="0"/>
                      </EFFECT>
                    </INSERTION_EFFECT>
                    <INSERTION_EFFECT id="1">
                      <par name="part" value="-1"/>
                      <EFFECT>
                        <par name="type" value="0"/>
                      </EFFECT>
                    </INSERTION_EFFECT>
                    <INSERTION_EFFECT id="2">
                      <par name="part" value="-1"/>
                      <EFFECT>
                        <par name="type" value="0"/>
                      </EFFECT>
                    </INSERTION_EFFECT>
                    <INSERTION_EFFECT id="3">
                      <par name="part" value="-1"/>
                      <EFFECT>
                        <par name="type" value="0"/>
                      </EFFECT>
                    </INSERTION_EFFECT>
                    <INSERTION_EFFECT id="4">
                      <par name="part" value="-1"/>
                      <EFFECT>
                        <par name="type" value="0"/>
                      </EFFECT>
                    </INSERTION_EFFECT>
                    <INSERTION_EFFECT id="5">
                      <par name="part" value="-1"/>
                      <EFFECT>
                        <par name="type" value="0"/>
                      </EFFECT>
                    </INSERTION_EFFECT>
                    <INSERTION_EFFECT id="6">
                      <par name="part" value="-1"/>
                      <EFFECT>
                        <par name="type" value="0"/>
                      </EFFECT>
                    </INSERTION_EFFECT>
                    <INSERTION_EFFECT id="7">
                      <par name="part" value="-1"/>
                      <EFFECT>
                        <par name="type" value="0"/>
                      </EFFECT>
                    </INSERTION_EFFECT>
                  </INSERTION_EFFECTS>
                </MASTER>
              </ZynAddSubFX-data>
            </zynaddsubfx>
          </instrument>
          <eldata fres="0.5" ftype="0" fcut="14000" fwet="0">
            <elvol lspd="0.1" latt="0" lspd_syncmode="0" lspd_numerator="4" dec="0.5" lshp="0" lspd_denominator="4" rel="0.1" amt="0" userwavefile="" lamt="0" att="0" sustain="0.5" pdel="0" ctlenvamt="0" x100="0" lpdel="0" hold="0.5"/>
            <elcut lspd="0.1" latt="0" lspd_syncmode="0" lspd_numerator="4" dec="0.5" lshp="0" lspd_denominator="4" rel="0.1" amt="0" userwavefile="" lamt="0" att="0" sustain="0.5" pdel="0" ctlenvamt="0" x100="0" lpdel="0" hold="0.5"/>
            <elres lspd="0.1" latt="0" lspd_syncmode="0" lspd_numerator="4" dec="0.5" lshp="0" lspd_denominator="4" rel="0.1" amt="0" userwavefile="" lamt="0" att="0" sustain="0.5" pdel="0" ctlenvamt="0" x100="0" lpdel="0" hold="0.5"/>
          </eldata>
          <chordcreator chord-enabled="0" chord="0" chordrange="1"/>
          <arpeggiator arptime_syncmode="0" arptime_numerator="4" arpmiss="0" arpmode="0" arptime="200" arp="0" arptime_denominator="4" arp-enabled="0" arpcycle="0" arpdir="0" arpskip="0" arpgate="100" arprange="1"/>
          <midiport fixedoutputnote="-1" outputchannel="1" inputchannel="0" inputcontroller="0" readable="0" outputcontroller="0" fixedinputvelocity="-1" basevelocity="63" outports="" fixedoutputvelocity="-1" outputprogram="1" writable="1"/>
          <fxchain numofeffects="0" enabled="0"/>
        </instrumenttrack>
        <pattern pos="3072" muted="0" steps="16" name="ZynAddSubFX" type="1">
          <note pos="0" pan="0" vol="142" len="384" key="73"/>
          <note pos="0" pan="0" vol="142" len="384" key="69"/>
          <note pos="0" pan="0" vol="142" len="384" key="66"/>
          <note pos="384" pan="0" vol="142" len="384" key="73"/>
          <note pos="384" pan="0" vol="142" len="384" key="68"/>
          <note pos="384" pan="0" vol="142" len="384" key="65"/>
          <note pos="768" pan="0" vol="142" len="384" key="71"/>
          <note pos="768" pan="0" vol="142" len="384" key="68"/>
          <note pos="768" pan="0" vol="142" len="384" key="64"/>
          <note pos="1152" pan="0" vol="142" len="384" key="71"/>
          <note pos="1152" pan="0" vol="142" len="384" key="66"/>
          <note pos="1152" pan="0" vol="142" len="384" key="63"/>
          <note pos="1536" pan="0" vol="142" len="384" key="69"/>
          <note pos="1536" pan="0" vol="142" len="384" key="66"/>
          <note pos="1536" pan="0" vol="142" len="384" key="62"/>
          <note pos="1920" pan="0" vol="142" len="384" key="69"/>
          <note pos="1920" pan="0" vol="142" len="384" key="64"/>
          <note pos="1920" pan="0" vol="142" len="384" key="61"/>
          <note pos="2304" pan="0" vol="142" len="384" key="72"/>
          <note pos="2304" pan="0" vol="142" len="384" key="68"/>
          <note pos="2304" pan="0" vol="142" len="384" key="60"/>
          <note pos="2688" pan="0" vol="142" len="192" key="73"/>
          <note pos="2688" pan="0" vol="142" len="192" key="68"/>
          <note pos="2688" pan="0" vol="142" len="192" key="65"/>
          <note pos="2880" pan="0" vol="193" len="12" key="61"/>
          <note pos="2880" pan="0" vol="193" len="12" key="56"/>
          <note pos="2892" pan="0" vol="193" len="12" key="62"/>
          <note pos="2892" pan="0" vol="193" len="12" key="59"/>
          <note pos="2904" pan="0" vol="193" len="12" key="65"/>
          <note pos="2904" pan="0" vol="193" len="12" key="61"/>
          <note pos="2916" pan="0" vol="193" len="12" key="66"/>
          <note pos="2916" pan="0" vol="193" len="12" key="62"/>
          <note pos="2928" pan="0" vol="193" len="12" key="65"/>
          <note pos="2928" pan="0" vol="193" len="12" key="61"/>
          <note pos="2940" pan="0" vol="193" len="12" key="66"/>
          <note pos="2940" pan="0" vol="193" len="12" key="62"/>
          <note pos="2952" pan="0" vol="193" len="12" key="68"/>
          <note pos="2952" pan="0" vol="193" len="12" key="65"/>
          <note pos="2964" pan="0" vol="193" len="12" key="69"/>
          <note pos="2964" pan="0" vol="193" len="12" key="66"/>
          <note pos="2976" pan="0" vol="193" len="12" key="68"/>
          <note pos="2976" pan="0" vol="193" len="12" key="65"/>
          <note pos="2988" pan="0" vol="193" len="12" key="69"/>
          <note pos="2988" pan="0" vol="193" len="12" key="66"/>
          <note pos="3000" pan="0" vol="193" len="12" key="71"/>
          <note pos="3000" pan="0" vol="193" len="12" key="68"/>
          <note pos="3012" pan="0" vol="193" len="12" key="73"/>
          <note pos="3012" pan="0" vol="193" len="12" key="69"/>
          <note pos="3024" pan="0" vol="193" len="12" key="71"/>
          <note pos="3024" pan="0" vol="193" len="12" key="68"/>
          <note pos="3036" pan="0" vol="193" len="12" key="73"/>
          <note pos="3036" pan="0" vol="193" len="12" key="69"/>
          <note pos="3048" pan="0" vol="193" len="12" key="74"/>
          <note pos="3048" pan="0" vol="193" len="12" key="71"/>
          <note pos="3060" pan="0" vol="193" len="12" key="77"/>
          <note pos="3060" pan="0" vol="193" len="12" key="73"/>
        </pattern>
        <pattern pos="6144" muted="0" steps="16" name="ZynAddSubFX" type="1">
          <note pos="0" pan="0" vol="193" len="12" key="66"/>
          <note pos="0" pan="0" vol="193" len="12" key="54"/>
          <note pos="0" pan="0" vol="193" len="48" key="1"/>
          <note pos="12" pan="0" vol="193" len="12" key="66"/>
          <note pos="12" pan="0" vol="193" len="12" key="54"/>
          <note pos="24" pan="0" vol="193" len="12" key="61"/>
          <note pos="24" pan="0" vol="193" len="12" key="49"/>
          <note pos="36" pan="0" vol="193" len="12" key="61"/>
          <note pos="36" pan="0" vol="193" len="12" key="49"/>
          <note pos="48" pan="0" vol="193" len="12" key="66"/>
          <note pos="48" pan="0" vol="193" len="12" key="54"/>
          <note pos="60" pan="0" vol="193" len="12" key="66"/>
          <note pos="60" pan="0" vol="193" len="12" key="54"/>
          <note pos="72" pan="0" vol="193" len="12" key="68"/>
          <note pos="72" pan="0" vol="193" len="12" key="56"/>
          <note pos="84" pan="0" vol="193" len="12" key="68"/>
          <note pos="84" pan="0" vol="193" len="12" key="56"/>
          <note pos="96" pan="0" vol="193" len="12" key="69"/>
          <note pos="96" pan="0" vol="193" len="12" key="57"/>
          <note pos="108" pan="0" vol="193" len="12" key="69"/>
          <note pos="108" pan="0" vol="193" len="12" key="57"/>
          <note pos="120" pan="0" vol="193" len="12" key="68"/>
          <note pos="120" pan="0" vol="193" len="12" key="56"/>
          <note pos="132" pan="0" vol="193" len="12" key="68"/>
          <note pos="132" pan="0" vol="193" len="12" key="56"/>
          <note pos="144" pan="0" vol="193" len="12" key="66"/>
          <note pos="144" pan="0" vol="193" len="12" key="54"/>
          <note pos="156" pan="0" vol="193" len="12" key="66"/>
          <note pos="156" pan="0" vol="193" len="12" key="54"/>
          <note pos="156" pan="0" vol="193" len="24" key="0"/>
          <note pos="168" pan="0" vol="193" len="24" key="69"/>
          <note pos="168" pan="0" vol="193" len="24" key="57"/>
          <note pos="180" pan="0" vol="193" len="24" key="1"/>
          <note pos="192" pan="0" vol="193" len="12" key="62"/>
          <note pos="192" pan="0" vol="193" len="12" key="50"/>
          <note pos="204" pan="0" vol="193" len="12" key="62"/>
          <note pos="204" pan="0" vol="193" len="12" key="50"/>
          <note pos="204" pan="0" vol="193" len="24" key="0"/>
          <note pos="216" pan="0" vol="193" len="24" key="68"/>
          <note pos="216" pan="0" vol="193" len="24" key="56"/>
          <note pos="228" pan="0" vol="193" len="24" key="1"/>
          <note pos="240" pan="0" vol="193" len="12" key="62"/>
          <note pos="240" pan="0" vol="193" len="12" key="50"/>
          <note pos="252" pan="0" vol="193" len="12" key="62"/>
          <note pos="252" pan="0" vol="193" len="12" key="50"/>
          <note pos="252" pan="0" vol="193" len="12" key="0"/>
          <note pos="264" pan="0" vol="193" len="48" key="69"/>
          <note pos="264" pan="0" vol="193" len="48" key="57"/>
          <note pos="300" pan="0" vol="193" len="12" key="1"/>
          <note pos="312" pan="0" vol="193" len="12" key="66"/>
          <note pos="312" pan="0" vol="193" len="12" key="54"/>
          <note pos="324" pan="0" vol="193" len="12" key="66"/>
          <note pos="324" pan="0" vol="193" len="12" key="54"/>
          <note pos="336" pan="0" vol="193" len="12" key="68"/>
          <note pos="336" pan="0" vol="193" len="12" key="56"/>
          <note pos="348" pan="0" vol="193" len="12" key="68"/>
          <note pos="348" pan="0" vol="193" len="12" key="56"/>
          <note pos="360" pan="0" vol="193" len="12" key="69"/>
          <note pos="360" pan="0" vol="193" len="12" key="57"/>
          <note pos="372" pan="0" vol="193" len="12" key="69"/>
        </pattern>
        <pattern pos="6528" muted="0" steps="16" name="ZynAddSubFX" type="1">
          <note pos="0" pan="0" vol="193" len="12" key="64"/>
          <note pos="0" pan="0" vol="193" len="12" key="52"/>
          <note pos="0" pan="0" vol="193" len="48" key="1"/>
          <note pos="12" pan="0" vol="193" len="12" key="64"/>
          <note pos="12" pan="0" vol="193" len="12" key="52"/>
          <note pos="24" pan="0" vol="193" len="12" key="59"/>
          <note pos="24" pan="0" vol="193" len="12" key="47"/>
          <note pos="36" pan="0" vol="193" len="12" key="59"/>
          <note pos="36" pan="0" vol="193" len="12" key="47"/>
          <note pos="48" pan="0" vol="193" len="12" key="64"/>
          <note pos="48" pan="0" vol="193" len="12" key="52"/>
          <note pos="60" pan="0" vol="193" len="12" key="64"/>
          <note pos="60" pan="0" vol="193" len="12" key="52"/>
          <note pos="72" pan="0" vol="193" len="12" key="66"/>
          <note pos="72" pan="0" vol="193" len="12" key="54"/>
          <note pos="84" pan="0" vol="193" len="12" key="66"/>
          <note pos="84" pan="0" vol="193" len="12" key="54"/>
          <note pos="96" pan="0" vol="193" len="12" key="68"/>
          <note pos="96" pan="0" vol="193" len="12" key="56"/>
          <note pos="108" pan="0" vol="193" len="12" key="68"/>
          <note pos="108" pan="0" vol="193" len="12" key="56"/>
          <note pos="120" pan="0" vol="193" len="12" key="66"/>
          <note pos="120" pan="0" vol="193" len="12" key="54"/>
          <note pos="132" pan="0" vol="193" len="12" key="66"/>
          <note pos="132" pan="0" vol="193" len="12" key="54"/>
          <note pos="144" pan="0" vol="193" len="12" key="64"/>
          <note pos="144" pan="0" vol="193" len="12" key="52"/>
          <note pos="156" pan="0" vol="193" len="12" key="64"/>
          <note pos="156" pan="0" vol="193" len="12" key="52"/>
          <note pos="156" pan="0" vol="193" len="24" key="0"/>
          <note pos="168" pan="0" vol="193" len="48" key="66"/>
          <note pos="168" pan="0" vol="193" len="48" key="54"/>
          <note pos="204" pan="0" vol="193" len="24" key="0"/>
          <note pos="216" pan="0" vol="193" len="24" key="68"/>
          <note pos="216" pan="0" vol="193" len="24" key="56"/>
          <note pos="228" pan="0" vol="193" len="24" key="1"/>
          <note pos="240" pan="0" vol="193" len="24" key="66"/>
          <note pos="240" pan="0" vol="193" len="24" key="54"/>
          <note pos="252" pan="0" vol="193" len="12" key="0"/>
          <note pos="264" pan="0" vol="193" len="48" key="65"/>
          <note pos="264" pan="0" vol="193" len="48" key="53"/>
          <note pos="300" pan="0" vol="193" len="12" key="1"/>
          <note pos="312" pan="0" vol="193" len="12" key="65"/>
          <note pos="312" pan="0" vol="193" len="12" key="53"/>
          <note pos="324" pan="0" vol="193" len="12" key="66"/>
          <note pos="324" pan="0" vol="193" len="12" key="54"/>
          <note pos="336" pan="0" vol="193" len="12" key="68"/>
          <note pos="336" pan="0" vol="193" len="12" key="56"/>
          <note pos="348" pan="0" vol="193" len="12" key="66"/>
          <note pos="348" pan="0" vol="193" len="12" key="54"/>
          <note pos="360" pan="0" vol="193" len="12" key="65"/>
          <note pos="360" pan="0" vol="193" len="12" key="53"/>
          <note pos="372" pan="0" vol="193" len="12" key="68"/>
          <note pos="372" pan="0" vol="193" len="12" key="56"/>
        </pattern>
        <pattern pos="6912" muted="0" steps="16" name="ZynAddSubFX" type="1">
          <note pos="0" pan="0" vol="193" len="12" key="66"/>
          <note pos="0" pan="0" vol="193" len="12" key="54"/>
          <note pos="0" pan="0" vol="193" len="48" key="1"/>
          <note pos="12" pan="0" vol="193" len="12" key="66"/>
          <note pos="12" pan="0" vol="193" len="12" key="54"/>
          <note pos="24" pan="0" vol="193" len="12" key="61"/>
          <note pos="24" pan="0" vol="193" len="12" key="49"/>
          <note pos="36" pan="0" vol="193" len="12" key="61"/>
          <note pos="36" pan="0" vol="193" len="12" key="49"/>
          <note pos="48" pan="0" vol="193" len="12" key="66"/>
          <note pos="48" pan="0" vol="193" len="12" key="54"/>
          <note pos="60" pan="0" vol="193" len="12" key="66"/>
          <note pos="60" pan="0" vol="193" len="12" key="54"/>
          <note pos="72" pan="0" vol="193" len="12" key="68"/>
          <note pos="72" pan="0" vol="193" len="12" key="56"/>
          <note pos="84" pan="0" vol="193" len="12" key="68"/>
          <note pos="84" pan="0" vol="193" len="12" key="56"/>
          <note pos="96" pan="0" vol="193" len="12" key="69"/>
          <note pos="96" pan="0" vol="193" len="12" key="57"/>
          <note pos="108" pan="0" vol="193" len="12" key="69"/>
          <note pos="108" pan="0" vol="193" len="12" key="57"/>
          <note pos="120" pan="0" vol="193" len="12" key="68"/>
          <note pos="120" pan="0" vol="193" len="12" key="56"/>
          <note pos="132" pan="0" vol="193" len="12" key="68"/>
          <note pos="132" pan="0" vol="193" len="12" key="56"/>
          <note pos="144" pan="0" vol="193" len="12" key="66"/>
          <note pos="144" pan="0" vol="193" len="12" key="54"/>
          <note pos="156" pan="0" vol="193" len="12" key="66"/>
          <note pos="156" pan="0" vol="193" len="12" key="54"/>
          <note pos="156" pan="0" vol="193" len="24" key="0"/>
          <note pos="168" pan="0" vol="193" len="24" key="69"/>
          <note pos="168" pan="0" vol="193" len="24" key="66"/>
          <note pos="180" pan="0" vol="193" len="24" key="1"/>
          <note pos="192" pan="0" vol="193" len="12" key="66"/>
          <note pos="192" pan="0" vol="193" len="12" key="62"/>
          <note pos="204" pan="0" vol="193" len="12" key="66"/>
          <note pos="204" pan="0" vol="193" len="12" key="62"/>
          <note pos="204" pan="0" vol="193" len="24" key="0"/>
          <note pos="216" pan="0" vol="193" len="24" key="71"/>
          <note pos="216" pan="0" vol="193" len="24" key="68"/>
          <note pos="228" pan="0" vol="193" len="24" key="1"/>
          <note pos="240" pan="0" vol="193" len="12" key="66"/>
          <note pos="240" pan="0" vol="193" len="12" key="62"/>
          <note pos="252" pan="0" vol="193" len="12" key="66"/>
          <note pos="252" pan="0" vol="193" len="12" key="62"/>
          <note pos="252" pan="0" vol="193" len="12" key="0"/>
          <note pos="264" pan="0" vol="193" len="48" key="73"/>
          <note pos="264" pan="0" vol="193" len="48" key="69"/>
          <note pos="300" pan="0" vol="193" len="12" key="1"/>
          <note pos="312" pan="0" vol="193" len="12" key="69"/>
          <note pos="312" pan="0" vol="193" len="12" key="66"/>
          <note pos="324" pan="0" vol="193" len="12" key="69"/>
          <note pos="324" pan="0" vol="193" len="12" key="66"/>
          <note pos="336" pan="0" vol="193" len="12" key="71"/>
          <note pos="336" pan="0" vol="193" len="12" key="68"/>
          <note pos="348" pan="0" vol="193" len="12" key="71"/>
          <note pos="348" pan="0" vol="193" len="12" key="68"/>
          <note pos="360" pan="0" vol="193" len="12" key="73"/>
          <note pos="360" pan="0" vol="193" len="12" key="69"/>
          <note pos="372" pan="0" vol="193" len="12" key="73"/>
          <note pos="372" pan="0" vol="193" len="12" key="69"/>
        </pattern>
        <pattern pos="9216" muted="0" steps="16" name="ZynAddSubFX" type="1">
          <note pos="0" pan="0" vol="193" len="384" key="69"/>
          <note pos="0" pan="0" vol="193" len="384" key="66"/>
          <note pos="384" pan="0" vol="193" len="384" key="66"/>
          <note pos="384" pan="0" vol="193" len="384" key="62"/>
        </pattern>
        <pattern pos="7296" muted="0" steps="16" name="ZynAddSubFX" type="1">
          <note pos="0" pan="0" vol="193" len="12" key="69"/>
          <note pos="0" pan="0" vol="193" len="12" key="64"/>
          <note pos="0" pan="0" vol="193" len="48" key="1"/>
          <note pos="12" pan="0" vol="193" len="12" key="69"/>
          <note pos="12" pan="0" vol="193" len="12" key="64"/>
          <note pos="24" pan="0" vol="193" len="12" key="64"/>
          <note pos="24" pan="0" vol="193" len="12" key="61"/>
          <note pos="36" pan="0" vol="193" len="12" key="64"/>
          <note pos="36" pan="0" vol="193" len="12" key="61"/>
          <note pos="48" pan="0" vol="193" len="12" key="69"/>
          <note pos="48" pan="0" vol="193" len="12" key="64"/>
          <note pos="60" pan="0" vol="193" len="12" key="69"/>
          <note pos="60" pan="0" vol="193" len="12" key="64"/>
          <note pos="72" pan="0" vol="193" len="12" key="71"/>
          <note pos="72" pan="0" vol="193" len="12" key="68"/>
          <note pos="84" pan="0" vol="193" len="12" key="71"/>
          <note pos="84" pan="0" vol="193" len="12" key="68"/>
          <note pos="96" pan="0" vol="193" len="12" key="73"/>
          <note pos="96" pan="0" vol="193" len="12" key="69"/>
          <note pos="108" pan="0" vol="193" len="12" key="73"/>
          <note pos="108" pan="0" vol="193" len="12" key="69"/>
          <note pos="120" pan="0" vol="193" len="12" key="71"/>
          <note pos="120" pan="0" vol="193" len="12" key="68"/>
          <note pos="132" pan="0" vol="193" len="12" key="71"/>
          <note pos="132" pan="0" vol="193" len="12" key="68"/>
          <note pos="144" pan="0" vol="193" len="12" key="73"/>
          <note pos="144" pan="0" vol="193" len="12" key="69"/>
          <note pos="156" pan="0" vol="193" len="12" key="73"/>
          <note pos="156" pan="0" vol="193" len="12" key="69"/>
          <note pos="156" pan="0" vol="193" len="24" key="0"/>
          <note pos="168" pan="0" vol="193" len="48" key="77"/>
          <note pos="168" pan="0" vol="193" len="48" key="73"/>
          <note pos="204" pan="0" vol="193" len="24" key="0"/>
          <note pos="216" pan="0" vol="193" len="24" key="73"/>
          <note pos="216" pan="0" vol="193" len="24" key="69"/>
          <note pos="228" pan="0" vol="193" len="24" key="1"/>
          <note pos="240" pan="0" vol="193" len="24" key="71"/>
          <note pos="240" pan="0" vol="193" len="24" key="68"/>
          <note pos="252" pan="0" vol="193" len="12" key="0"/>
          <note pos="264" pan="0" vol="193" len="48" key="73"/>
          <note pos="264" pan="0" vol="193" len="48" key="69"/>
          <note pos="300" pan="0" vol="193" len="12" key="1"/>
          <note pos="312" pan="0" vol="193" len="12" key="71"/>
          <note pos="312" pan="0" vol="193" len="12" key="68"/>
          <note pos="324" pan="0" vol="193" len="12" key="73"/>
          <note pos="324" pan="0" vol="193" len="12" key="69"/>
          <note pos="336" pan="0" vol="193" len="12" key="74"/>
          <note pos="336" pan="0" vol="193" len="12" key="71"/>
          <note pos="348" pan="0" vol="193" len="12" key="73"/>
          <note pos="348" pan="0" vol="193" len="12" key="69"/>
          <note pos="360" pan="0" vol="193" len="12" key="71"/>
          <note pos="360" pan="0" vol="193" len="12" key="68"/>
          <note pos="372" pan="0" vol="193" len="12" key="73"/>
          <note pos="372" pan="0" vol="193" len="12" key="69"/>
        </pattern>
        <pattern pos="9984" muted="0" steps="16" name="ZynAddSubFX" type="1">
          <note pos="0" pan="0" vol="193" len="384" key="69"/>
          <note pos="0" pan="0" vol="193" len="384" key="66"/>
          <note pos="384" pan="0" vol="193" len="192" key="73"/>
          <note pos="384" pan="0" vol="193" len="192" key="69"/>
          <note pos="576" pan="0" vol="193" len="192" key="73"/>
          <note pos="576" pan="0" vol="193" len="192" key="65"/>
        </pattern>
        <pattern pos="7680" muted="0" steps="16" name="ZynAddSubFX" type="1">
          <note pos="0" pan="0" vol="193" len="12" key="69"/>
          <note pos="0" pan="0" vol="193" len="12" key="66"/>
          <note pos="0" pan="0" vol="193" len="48" key="1"/>
          <note pos="12" pan="0" vol="193" len="12" key="69"/>
          <note pos="12" pan="0" vol="193" len="12" key="66"/>
          <note pos="24" pan="0" vol="193" len="12" key="66"/>
          <note pos="24" pan="0" vol="193" len="12" key="61"/>
          <note pos="36" pan="0" vol="193" len="12" key="66"/>
          <note pos="36" pan="0" vol="193" len="12" key="61"/>
          <note pos="48" pan="0" vol="193" len="12" key="69"/>
          <note pos="48" pan="0" vol="193" len="12" key="66"/>
          <note pos="60" pan="0" vol="193" len="12" key="69"/>
          <note pos="60" pan="0" vol="193" len="12" key="66"/>
          <note pos="72" pan="0" vol="193" len="12" key="71"/>
          <note pos="72" pan="0" vol="193" len="12" key="68"/>
          <note pos="84" pan="0" vol="193" len="12" key="71"/>
          <note pos="84" pan="0" vol="193" len="12" key="68"/>
          <note pos="96" pan="0" vol="193" len="12" key="73"/>
          <note pos="96" pan="0" vol="193" len="12" key="69"/>
          <note pos="108" pan="0" vol="193" len="12" key="73"/>
          <note pos="108" pan="0" vol="193" len="12" key="69"/>
          <note pos="120" pan="0" vol="193" len="12" key="71"/>
          <note pos="120" pan="0" vol="193" len="12" key="68"/>
          <note pos="132" pan="0" vol="193" len="12" key="71"/>
          <note pos="132" pan="0" vol="193" len="12" key="68"/>
          <note pos="144" pan="0" vol="193" len="12" key="69"/>
          <note pos="144" pan="0" vol="193" len="12" key="66"/>
          <note pos="156" pan="0" vol="193" len="12" key="69"/>
          <note pos="156" pan="0" vol="193" len="12" key="66"/>
          <note pos="156" pan="0" vol="193" len="24" key="0"/>
          <note pos="168" pan="0" vol="193" len="24" key="73"/>
          <note pos="168" pan="0" vol="193" len="24" key="69"/>
          <note pos="180" pan="0" vol="193" len="24" key="1"/>
          <note pos="192" pan="0" vol="193" len="12" key="66"/>
          <note pos="192" pan="0" vol="193" len="12" key="62"/>
          <note pos="204" pan="0" vol="193" len="12" key="66"/>
          <note pos="204" pan="0" vol="193" len="12" key="62"/>
          <note pos="204" pan="0" vol="193" len="24" key="0"/>
          <note pos="216" pan="0" vol="193" len="24" key="71"/>
          <note pos="216" pan="0" vol="193" len="24" key="68"/>
          <note pos="228" pan="0" vol="193" len="24" key="1"/>
          <note pos="240" pan="0" vol="193" len="12" key="66"/>
          <note pos="240" pan="0" vol="193" len="12" key="62"/>
          <note pos="252" pan="0" vol="193" len="12" key="66"/>
          <note pos="252" pan="0" vol="193" len="12" key="62"/>
          <note pos="252" pan="0" vol="193" len="12" key="0"/>
          <note pos="264" pan="0" vol="193" len="48" key="73"/>
          <note pos="264" pan="0" vol="193" len="48" key="69"/>
          <note pos="300" pan="0" vol="193" len="12" key="1"/>
          <note pos="312" pan="0" vol="193" len="12" key="69"/>
          <note pos="312" pan="0" vol="193" len="12" key="66"/>
          <note pos="324" pan="0" vol="193" len="12" key="69"/>
          <note pos="324" pan="0" vol="193" len="12" key="66"/>
          <note pos="336" pan="0" vol="193" len="12" key="71"/>
          <note pos="336" pan="0" vol="193" len="12" key="68"/>
          <note pos="348" pan="0" vol="193" len="12" key="71"/>
          <note pos="348" pan="0" vol="193" len="12" key="68"/>
          <note pos="360" pan="0" vol="193" len="12" key="73"/>
          <note pos="360" pan="0" vol="193" len="12" key="69"/>
          <note pos="372" pan="0" vol="193" len="12" key="73"/>
          <note pos="372" pan="0" vol="193" len="12" key="69"/>
        </pattern>
        <pattern pos="8064" muted="0" steps="16" name="ZynAddSubFX" type="1">
          <note pos="0" pan="0" vol="193" len="12" key="69"/>
          <note pos="0" pan="0" vol="193" len="12" key="64"/>
          <note pos="0" pan="0" vol="193" len="48" key="1"/>
          <note pos="12" pan="0" vol="193" len="12" key="69"/>
          <note pos="12" pan="0" vol="193" len="12" key="64"/>
          <note pos="24" pan="0" vol="193" len="12" key="64"/>
          <note pos="24" pan="0" vol="193" len="12" key="61"/>
          <note pos="36" pan="0" vol="193" len="12" key="64"/>
          <note pos="36" pan="0" vol="193" len="12" key="61"/>
          <note pos="48" pan="0" vol="193" len="12" key="69"/>
          <note pos="48" pan="0" vol="193" len="12" key="64"/>
          <note pos="60" pan="0" vol="193" len="12" key="69"/>
          <note pos="60" pan="0" vol="193" len="12" key="64"/>
          <note pos="72" pan="0" vol="193" len="12" key="71"/>
          <note pos="72" pan="0" vol="193" len="12" key="68"/>
          <note pos="84" pan="0" vol="193" len="12" key="71"/>
          <note pos="84" pan="0" vol="193" len="12" key="68"/>
          <note pos="96" pan="0" vol="193" len="12" key="73"/>
          <note pos="96" pan="0" vol="193" len="12" key="69"/>
          <note pos="108" pan="0" vol="193" len="12" key="73"/>
          <note pos="108" pan="0" vol="193" len="12" key="69"/>
          <note pos="120" pan="0" vol="193" len="12" key="71"/>
          <note pos="120" pan="0" vol="193" len="12" key="68"/>
          <note pos="132" pan="0" vol="193" len="12" key="71"/>
          <note pos="132" pan="0" vol="193" len="12" key="68"/>
          <note pos="144" pan="0" vol="193" len="12" key="69"/>
          <note pos="144" pan="0" vol="193" len="12" key="64"/>
          <note pos="156" pan="0" vol="193" len="12" key="69"/>
          <note pos="156" pan="0" vol="193" len="12" key="64"/>
          <note pos="156" pan="0" vol="193" len="24" key="0"/>
          <note pos="168" pan="0" vol="193" len="48" key="73"/>
          <note pos="168" pan="0" vol="193" len="48" key="68"/>
          <note pos="216" pan="0" vol="193" len="12" key="71"/>
          <note pos="216" pan="0" vol="193" len="12" key="68"/>
          <note pos="216" pan="0" vol="193" len="12" key="1"/>
          <note pos="228" pan="0" vol="193" len="12" key="73"/>
          <note pos="228" pan="0" vol="193" len="12" key="69"/>
          <note pos="240" pan="0" vol="193" len="12" key="74"/>
          <note pos="240" pan="0" vol="193" len="12" key="71"/>
          <note pos="240" pan="0" vol="193" len="12" key="0"/>
          <note pos="252" pan="0" vol="193" len="12" key="73"/>
          <note pos="252" pan="0" vol="193" len="12" key="69"/>
          <note pos="264" pan="0" vol="193" len="12" key="71"/>
          <note pos="264" pan="0" vol="193" len="12" key="68"/>
          <note pos="264" pan="0" vol="193" len="12" key="1"/>
          <note pos="276" pan="0" vol="193" len="12" key="69"/>
          <note pos="276" pan="0" vol="193" len="12" key="66"/>
          <note pos="288" pan="0" vol="193" len="12" key="73"/>
          <note pos="288" pan="0" vol="193" len="12" key="69"/>
          <note pos="288" pan="0" vol="193" len="12" key="0"/>
          <note pos="300" pan="0" vol="193" len="12" key="71"/>
          <note pos="300" pan="0" vol="193" len="12" key="68"/>
          <note pos="312" pan="0" vol="193" len="12" key="69"/>
          <note pos="312" pan="0" vol="193" len="12" key="66"/>
          <note pos="312" pan="0" vol="193" len="12" key="1"/>
          <note pos="324" pan="0" vol="193" len="12" key="68"/>
          <note pos="324" pan="0" vol="193" len="12" key="65"/>
          <note pos="336" pan="0" vol="193" len="12" key="71"/>
          <note pos="336" pan="0" vol="193" len="12" key="68"/>
          <note pos="336" pan="0" vol="193" len="12" key="0"/>
          <note pos="348" pan="0" vol="193" len="12" key="69"/>
          <note pos="348" pan="0" vol="193" len="12" key="66"/>
          <note pos="360" pan="0" vol="193" len="12" key="68"/>
          <note pos="360" pan="0" vol="193" len="12" key="65"/>
          <note pos="360" pan="0" vol="193" len="12" key="1"/>
          <note pos="372" pan="0" vol="193" len="12" key="66"/>
          <note pos="372" pan="0" vol="193" len="12" key="62"/>
        </pattern>
        <pattern pos="8448" muted="0" steps="16" name="ZynAddSubFX" type="1">
          <note pos="0" pan="0" vol="193" len="384" key="74"/>
          <note pos="0" pan="0" vol="193" len="384" key="69"/>
          <note pos="0" pan="0" vol="193" len="384" key="66"/>
          <note pos="384" pan="0" vol="193" len="192" key="76"/>
          <note pos="384" pan="0" vol="193" len="192" key="71"/>
          <note pos="384" pan="0" vol="193" len="192" key="68"/>
          <note pos="576" pan="0" vol="193" len="24" key="80"/>
          <note pos="576" pan="0" vol="193" len="24" key="77"/>
          <note pos="576" pan="0" vol="193" len="24" key="71"/>
          <note pos="600" pan="0" vol="193" len="24" key="77"/>
          <note pos="600" pan="0" vol="193" len="24" key="73"/>
          <note pos="600" pan="0" vol="193" len="24" key="68"/>
          <note pos="624" pan="0" vol="193" len="24" key="80"/>
          <note pos="624" pan="0" vol="193" len="24" key="77"/>
          <note pos="624" pan="0" vol="193" len="24" key="71"/>
          <note pos="648" pan="0" vol="193" len="24" key="81"/>
          <note pos="648" pan="0" vol="193" len="24" key="78"/>
          <note pos="648" pan="0" vol="193" len="24" key="73"/>
          <note pos="672" pan="0" vol="193" len="24" key="83"/>
          <note pos="672" pan="0" vol="193" len="24" key="80"/>
          <note pos="672" pan="0" vol="193" len="24" key="77"/>
          <note pos="696" pan="0" vol="193" len="24" key="81"/>
          <note pos="696" pan="0" vol="193" len="24" key="78"/>
          <note pos="696" pan="0" vol="193" len="24" key="73"/>
          <note pos="720" pan="0" vol="193" len="24" key="80"/>
          <note pos="720" pan="0" vol="193" len="24" key="77"/>
          <note pos="720" pan="0" vol="193" len="24" key="71"/>
          <note pos="744" pan="0" vol="193" len="24" key="77"/>
          <note pos="744" pan="0" vol="193" len="24" key="73"/>
          <note pos="744" pan="0" vol="193" len="24" key="68"/>
        </pattern>
        <pattern pos="0" muted="0" steps="16" name="ZynAddSubFX" type="1">
          <note pos="0" pan="0" vol="142" len="384" key="73"/>
          <note pos="0" pan="0" vol="142" len="384" key="69"/>
          <note pos="0" pan="0" vol="142" len="384" key="66"/>
          <note pos="384" pan="0" vol="142" len="384" key="73"/>
          <note pos="384" pan="0" vol="142" len="384" key="68"/>
          <note pos="384" pan="0" vol="142" len="384" key="65"/>
          <note pos="768" pan="0" vol="142" len="384" key="71"/>
          <note pos="768" pan="0" vol="142" len="384" key="68"/>
          <note pos="768" pan="0" vol="142" len="384" key="64"/>
          <note pos="1152" pan="0" vol="142" len="384" key="71"/>
          <note pos="1152" pan="0" vol="142" len="384" key="66"/>
          <note pos="1152" pan="0" vol="142" len="384" key="63"/>
          <note pos="1536" pan="0" vol="142" len="384" key="69"/>
          <note pos="1536" pan="0" vol="142" len="384" key="66"/>
          <note pos="1536" pan="0" vol="142" len="384" key="62"/>
          <note pos="1920" pan="0" vol="142" len="384" key="69"/>
          <note pos="1920" pan="0" vol="142" len="384" key="64"/>
          <note pos="1920" pan="0" vol="142" len="384" key="61"/>
          <note pos="2304" pan="0" vol="142" len="384" key="72"/>
          <note pos="2304" pan="0" vol="142" len="384" key="68"/>
          <note pos="2304" pan="0" vol="142" len="384" key="60"/>
          <note pos="2688" pan="0" vol="142" len="384" key="73"/>
          <note pos="2688" pan="0" vol="142" len="384" key="68"/>
          <note pos="2688" pan="0" vol="142" len="384" key="65"/>
        </pattern>
        <pattern pos="10752" muted="0" steps="16" name="ZynAddSubFX" type="1">
          <note pos="0" pan="0" vol="193" len="24" key="69"/>
          <note pos="0" pan="0" vol="193" len="24" key="66"/>
          <note pos="24" pan="0" vol="193" len="24" key="66"/>
          <note pos="24" pan="0" vol="193" len="24" key="61"/>
          <note pos="48" pan="0" vol="193" len="24" key="73"/>
          <note pos="48" pan="0" vol="193" len="24" key="69"/>
          <note pos="72" pan="0" vol="193" len="24" key="66"/>
          <note pos="72" pan="0" vol="193" len="24" key="61"/>
          <note pos="96" pan="0" vol="193" len="24" key="69"/>
          <note pos="96" pan="0" vol="193" len="24" key="66"/>
          <note pos="120" pan="0" vol="193" len="24" key="66"/>
          <note pos="120" pan="0" vol="193" len="24" key="61"/>
          <note pos="144" pan="0" vol="193" len="24" key="61"/>
          <note pos="144" pan="0" vol="193" len="24" key="57"/>
          <note pos="168" pan="0" vol="193" len="24" key="66"/>
          <note pos="168" pan="0" vol="193" len="24" key="61"/>
          <note pos="192" pan="0" vol="193" len="24" key="69"/>
          <note pos="192" pan="0" vol="193" len="24" key="66"/>
          <note pos="216" pan="0" vol="193" len="24" key="66"/>
          <note pos="216" pan="0" vol="193" len="24" key="61"/>
          <note pos="240" pan="0" vol="193" len="24" key="73"/>
          <note pos="240" pan="0" vol="193" len="24" key="69"/>
          <note pos="264" pan="0" vol="193" len="24" key="66"/>
          <note pos="264" pan="0" vol="193" len="24" key="61"/>
          <note pos="288" pan="0" vol="193" len="24" key="69"/>
          <note pos="288" pan="0" vol="193" len="24" key="66"/>
          <note pos="312" pan="0" vol="193" len="24" key="66"/>
          <note pos="312" pan="0" vol="193" len="24" key="61"/>
          <note pos="336" pan="0" vol="193" len="24" key="61"/>
          <note pos="336" pan="0" vol="193" len="24" key="57"/>
          <note pos="360" pan="0" vol="193" len="24" key="66"/>
          <note pos="360" pan="0" vol="193" len="24" key="61"/>
          <note pos="384" pan="0" vol="193" len="24" key="74"/>
          <note pos="384" pan="0" vol="193" len="24" key="71"/>
          <note pos="408" pan="0" vol="193" len="24" key="71"/>
          <note pos="408" pan="0" vol="193" len="24" key="66"/>
          <note pos="432" pan="0" vol="193" len="24" key="78"/>
          <note pos="432" pan="0" vol="193" len="24" key="74"/>
          <note pos="456" pan="0" vol="193" len="24" key="71"/>
          <note pos="456" pan="0" vol="193" len="24" key="66"/>
          <note pos="480" pan="0" vol="193" len="24" key="74"/>
          <note pos="480" pan="0" vol="193" len="24" key="71"/>
          <note pos="504" pan="0" vol="193" len="24" key="71"/>
          <note pos="504" pan="0" vol="193" len="24" key="66"/>
          <note pos="528" pan="0" vol="193" len="24" key="66"/>
          <note pos="528" pan="0" vol="193" len="24" key="62"/>
          <note pos="552" pan="0" vol="193" len="24" key="71"/>
          <note pos="552" pan="0" vol="193" len="24" key="66"/>
          <note pos="576" pan="0" vol="193" len="24" key="74"/>
          <note pos="576" pan="0" vol="193" len="24" key="71"/>
          <note pos="600" pan="0" vol="193" len="24" key="71"/>
          <note pos="600" pan="0" vol="193" len="24" key="66"/>
          <note pos="624" pan="0" vol="193" len="24" key="78"/>
          <note pos="624" pan="0" vol="193" len="24" key="74"/>
          <note pos="648" pan="0" vol="193" len="24" key="71"/>
          <note pos="648" pan="0" vol="193" len="24" key="66"/>
          <note pos="672" pan="0" vol="193" len="24" key="74"/>
          <note pos="672" pan="0" vol="193" len="24" key="71"/>
          <note pos="696" pan="0" vol="193" len="24" key="71"/>
          <note pos="696" pan="0" vol="193" len="24" key="66"/>
          <note pos="720" pan="0" vol="193" len="24" key="66"/>
          <note pos="720" pan="0" vol="193" len="24" key="62"/>
          <note pos="744" pan="0" vol="193" len="24" key="71"/>
          <note pos="744" pan="0" vol="193" len="24" key="66"/>
        </pattern>
        <pattern pos="11520" muted="0" steps="16" name="ZynAddSubFX" type="1">
          <note pos="0" pan="0" vol="193" len="24" key="73"/>
          <note pos="0" pan="0" vol="193" len="24" key="69"/>
          <note pos="24" pan="0" vol="193" len="24" key="69"/>
          <note pos="24" pan="0" vol="193" len="24" key="64"/>
          <note pos="48" pan="0" vol="193" len="24" key="69"/>
          <note pos="48" pan="0" vol="193" len="24" key="64"/>
          <note pos="72" pan="0" vol="193" len="24" key="73"/>
          <note pos="72" pan="0" vol="193" len="24" key="69"/>
          <note pos="96" pan="0" vol="193" len="24" key="76"/>
          <note pos="96" pan="0" vol="193" len="24" key="73"/>
          <note pos="120" pan="0" vol="193" len="24" key="73"/>
          <note pos="120" pan="0" vol="193" len="24" key="69"/>
          <note pos="144" pan="0" vol="193" len="24" key="69"/>
          <note pos="144" pan="0" vol="193" len="24" key="64"/>
          <note pos="168" pan="0" vol="193" len="24" key="73"/>
          <note pos="168" pan="0" vol="193" len="24" key="69"/>
        </pattern>
        <pattern pos="11712" muted="0" steps="16" name="ZynAddSubFX" type="1">
          <note pos="0" pan="0" vol="193" len="24" key="73"/>
          <note pos="0" pan="0" vol="193" len="24" key="68"/>
          <note pos="24" pan="0" vol="193" len="24" key="68"/>
          <note pos="24" pan="0" vol="193" len="24" key="65"/>
          <note pos="48" pan="0" vol="193" len="24" key="68"/>
          <note pos="48" pan="0" vol="193" len="24" key="65"/>
          <note pos="72" pan="0" vol="193" len="24" key="73"/>
          <note pos="72" pan="0" vol="193" len="24" key="68"/>
          <note pos="96" pan="0" vol="193" len="24" key="77"/>
          <note pos="96" pan="0" vol="193" len="24" key="73"/>
          <note pos="120" pan="0" vol="193" len="24" key="73"/>
          <note pos="120" pan="0" vol="193" len="24" key="68"/>
          <note pos="144" pan="0" vol="193" len="24" key="77"/>
          <note pos="144" pan="0" vol="193" len="24" key="68"/>
          <note pos="168" pan="0" vol="193" len="24" key="73"/>
          <note pos="168" pan="0" vol="193" len="24" key="68"/>
        </pattern>
        <pattern pos="11904" muted="0" steps="16" name="ZynAddSubFX" type="1">
          <note pos="0" pan="0" vol="193" len="24" key="81"/>
          <note pos="0" pan="0" vol="193" len="24" key="78"/>
          <note pos="0" pan="0" vol="193" len="24" key="73"/>
          <note pos="24" pan="0" vol="193" len="24" key="78"/>
          <note pos="24" pan="0" vol="193" len="24" key="73"/>
          <note pos="24" pan="0" vol="193" len="24" key="69"/>
          <note pos="48" pan="0" vol="193" len="24" key="78"/>
          <note pos="48" pan="0" vol="193" len="24" key="73"/>
          <note pos="48" pan="0" vol="193" len="24" key="69"/>
          <note pos="72" pan="0" vol="193" len="24" key="85"/>
          <note pos="72" pan="0" vol="193" len="24" key="81"/>
          <note pos="72" pan="0" vol="193" len="24" key="78"/>
          <note pos="96" pan="0" vol="193" len="24" key="81"/>
          <note pos="96" pan="0" vol="193" len="24" key="78"/>
          <note pos="96" pan="0" vol="193" len="24" key="73"/>
          <note pos="120" pan="0" vol="193" len="24" key="78"/>
          <note pos="120" pan="0" vol="193" len="24" key="73"/>
          <note pos="120" pan="0" vol="193" len="24" key="69"/>
          <note pos="144" pan="0" vol="193" len="24" key="81"/>
          <note pos="144" pan="0" vol="193" len="24" key="78"/>
          <note pos="144" pan="0" vol="193" len="24" key="73"/>
          <note pos="168" pan="0" vol="193" len="24" key="78"/>
          <note pos="168" pan="0" vol="193" len="24" key="73"/>
          <note pos="168" pan="0" vol="193" len="24" key="69"/>
        </pattern>
        <pattern pos="12096" muted="0" steps="16" name="ZynAddSubFX" type="1">
          <note pos="0" pan="0" vol="193" len="24" key="81"/>
          <note pos="0" pan="0" vol="193" len="24" key="78"/>
          <note pos="0" pan="0" vol="193" len="24" key="73"/>
          <note pos="24" pan="0" vol="193" len="24" key="78"/>
          <note pos="24" pan="0" vol="193" len="24" key="73"/>
          <note pos="24" pan="0" vol="193" len="24" key="69"/>
          <note pos="48" pan="0" vol="193" len="24" key="78"/>
          <note pos="48" pan="0" vol="193" len="24" key="73"/>
          <note pos="48" pan="0" vol="193" len="24" key="69"/>
          <note pos="72" pan="0" vol="193" len="24" key="85"/>
          <note pos="72" pan="0" vol="193" len="24" key="81"/>
          <note pos="72" pan="0" vol="193" len="24" key="78"/>
          <note pos="96" pan="0" vol="193" len="24" key="81"/>
          <note pos="96" pan="0" vol="193" len="24" key="78"/>
          <note pos="96" pan="0" vol="193" len="24" key="73"/>
          <note pos="120" pan="0" vol="193" len="24" key="78"/>
          <note pos="120" pan="0" vol="193" len="24" key="73"/>
          <note pos="120" pan="0" vol="193" len="24" key="69"/>
          <note pos="144" pan="0" vol="193" len="24" key="81"/>
          <note pos="144" pan="0" vol="193" len="24" key="78"/>
          <note pos="144" pan="0" vol="193" len="24" key="73"/>
          <note pos="168" pan="0" vol="193" len="24" key="78"/>
          <note pos="168" pan="0" vol="193" len="24" key="73"/>
          <note pos="168" pan="0" vol="193" len="24" key="69"/>
        </pattern>
        <pattern pos="12288" muted="0" steps="16" name="ZynAddSubFX" type="1">
          <note pos="0" pan="0" vol="193" len="384" key="69"/>
          <note pos="0" pan="0" vol="193" len="384" key="66"/>
          <note pos="0" pan="0" vol="193" len="384" key="61"/>
          <note pos="384" pan="0" vol="193" len="384" key="68"/>
          <note pos="384" pan="0" vol="193" len="384" key="64"/>
          <note pos="384" pan="0" vol="193" len="384" key="61"/>
        </pattern>
        <pattern pos="13056" muted="0" steps="16" name="ZynAddSubFX" type="1">
          <note pos="0" pan="0" vol="193" len="384" key="69"/>
          <note pos="0" pan="0" vol="193" len="384" key="66"/>
          <note pos="0" pan="0" vol="193" len="384" key="61"/>
          <note pos="384" pan="0" vol="193" len="384" key="68"/>
          <note pos="384" pan="0" vol="193" len="384" key="64"/>
          <note pos="384" pan="0" vol="193" len="384" key="61"/>
        </pattern>
        <pattern pos="13824" muted="0" steps="16" name="ZynAddSubFX" type="1">
          <note pos="0" pan="0" vol="193" len="384" key="69"/>
          <note pos="0" pan="0" vol="193" len="384" key="66"/>
          <note pos="384" pan="0" vol="193" len="384" key="66"/>
          <note pos="384" pan="0" vol="193" len="384" key="62"/>
        </pattern>
        <pattern pos="14592" muted="0" steps="16" name="ZynAddSubFX" type="1">
          <note pos="0" pan="0" vol="193" len="384" key="69"/>
          <note pos="0" pan="0" vol="193" len="384" key="66"/>
          <note pos="384" pan="0" vol="193" len="192" key="73"/>
          <note pos="384" pan="0" vol="193" len="192" key="69"/>
          <note pos="576" pan="0" vol="193" len="192" key="73"/>
          <note pos="576" pan="0" vol="193" len="192" key="65"/>
        </pattern>
        <pattern pos="15360" muted="0" steps="16" name="ZynAddSubFX" type="1">
          <note pos="0" pan="0" vol="193" len="24" key="69"/>
          <note pos="0" pan="0" vol="193" len="24" key="66"/>
          <note pos="24" pan="0" vol="193" len="24" key="66"/>
          <note pos="24" pan="0" vol="193" len="24" key="61"/>
          <note pos="48" pan="0" vol="193" len="24" key="73"/>
          <note pos="48" pan="0" vol="193" len="24" key="69"/>
          <note pos="72" pan="0" vol="193" len="24" key="66"/>
          <note pos="72" pan="0" vol="193" len="24" key="61"/>
          <note pos="96" pan="0" vol="193" len="24" key="69"/>
          <note pos="96" pan="0" vol="193" len="24" key="66"/>
          <note pos="120" pan="0" vol="193" len="24" key="66"/>
          <note pos="120" pan="0" vol="193" len="24" key="61"/>
          <note pos="144" pan="0" vol="193" len="24" key="61"/>
          <note pos="144" pan="0" vol="193" len="24" key="57"/>
          <note pos="168" pan="0" vol="193" len="24" key="66"/>
          <note pos="168" pan="0" vol="193" len="24" key="61"/>
          <note pos="192" pan="0" vol="193" len="24" key="69"/>
          <note pos="192" pan="0" vol="193" len="24" key="66"/>
          <note pos="216" pan="0" vol="193" len="24" key="66"/>
          <note pos="216" pan="0" vol="193" len="24" key="61"/>
          <note pos="240" pan="0" vol="193" len="24" key="73"/>
          <note pos="240" pan="0" vol="193" len="24" key="69"/>
          <note pos="264" pan="0" vol="193" len="24" key="66"/>
          <note pos="264" pan="0" vol="193" len="24" key="61"/>
          <note pos="288" pan="0" vol="193" len="24" key="69"/>
          <note pos="288" pan="0" vol="193" len="24" key="66"/>
          <note pos="312" pan="0" vol="193" len="24" key="66"/>
          <note pos="312" pan="0" vol="193" len="24" key="61"/>
          <note pos="336" pan="0" vol="193" len="24" key="61"/>
          <note pos="336" pan="0" vol="193" len="24" key="57"/>
          <note pos="360" pan="0" vol="193" len="24" key="66"/>
          <note pos="360" pan="0" vol="193" len="24" key="61"/>
          <note pos="384" pan="0" vol="193" len="24" key="74"/>
          <note pos="384" pan="0" vol="193" len="24" key="71"/>
          <note pos="408" pan="0" vol="193" len="24" key="71"/>
          <note pos="408" pan="0" vol="193" len="24" key="66"/>
          <note pos="432" pan="0" vol="193" len="24" key="78"/>
          <note pos="432" pan="0" vol="193" len="24" key="74"/>
          <note pos="456" pan="0" vol="193" len="24" key="71"/>
          <note pos="456" pan="0" vol="193" len="24" key="66"/>
          <note pos="480" pan="0" vol="193" len="24" key="74"/>
          <note pos="480" pan="0" vol="193" len="24" key="71"/>
          <note pos="504" pan="0" vol="193" len="24" key="71"/>
          <note pos="504" pan="0" vol="193" len="24" key="66"/>
          <note pos="528" pan="0" vol="193" len="24" key="66"/>
          <note pos="528" pan="0" vol="193" len="24" key="62"/>
          <note pos="552" pan="0" vol="193" len="24" key="71"/>
          <note pos="552" pan="0" vol="193" len="24" key="66"/>
          <note pos="576" pan="0" vol="193" len="24" key="74"/>
          <note pos="576" pan="0" vol="193" len="24" key="71"/>
          <note pos="600" pan="0" vol="193" len="24" key="71"/>
          <note pos="600" pan="0" vol="193" len="24" key="66"/>
          <note pos="624" pan="0" vol="193" len="24" key="78"/>
          <note pos="624" pan="0" vol="193" len="24" key="74"/>
          <note pos="648" pan="0" vol="193" len="24" key="71"/>
          <note pos="648" pan="0" vol="193" len="24" key="66"/>
          <note pos="672" pan="0" vol="193" len="24" key="74"/>
          <note pos="672" pan="0" vol="193" len="24" key="71"/>
          <note pos="696" pan="0" vol="193" len="24" key="71"/>
          <note pos="696" pan="0" vol="193" len="24" key="66"/>
          <note pos="720" pan="0" vol="193" len="24" key="66"/>
          <note pos="720" pan="0" vol="193" len="24" key="62"/>
          <note pos="744" pan="0" vol="193" len="24" key="71"/>
          <note pos="744" pan="0" vol="193" len="24" key="66"/>
        </pattern>
        <pattern pos="16128" muted="0" steps="16" name="ZynAddSubFX" type="1">
          <note pos="0" pan="0" vol="193" len="24" key="73"/>
          <note pos="0" pan="0" vol="193" len="24" key="69"/>
          <note pos="24" pan="0" vol="193" len="24" key="69"/>
          <note pos="24" pan="0" vol="193" len="24" key="64"/>
          <note pos="48" pan="0" vol="193" len="24" key="69"/>
          <note pos="48" pan="0" vol="193" len="24" key="64"/>
          <note pos="72" pan="0" vol="193" len="24" key="73"/>
          <note pos="72" pan="0" vol="193" len="24" key="69"/>
          <note pos="96" pan="0" vol="193" len="24" key="76"/>
          <note pos="96" pan="0" vol="193" len="24" key="73"/>
          <note pos="120" pan="0" vol="193" len="24" key="73"/>
          <note pos="120" pan="0" vol="193" len="24" key="69"/>
          <note pos="144" pan="0" vol="193" len="24" key="69"/>
          <note pos="144" pan="0" vol="193" len="24" key="64"/>
          <note pos="168" pan="0" vol="193" len="24" key="73"/>
          <note pos="168" pan="0" vol="193" len="24" key="69"/>
        </pattern>
        <pattern pos="16320" muted="0" steps="16" name="ZynAddSubFX" type="1">
          <note pos="0" pan="0" vol="193" len="24" key="73"/>
          <note pos="0" pan="0" vol="193" len="24" key="68"/>
          <note pos="24" pan="0" vol="193" len="24" key="68"/>
          <note pos="24" pan="0" vol="193" len="24" key="65"/>
          <note pos="48" pan="0" vol="193" len="24" key="68"/>
          <note pos="48" pan="0" vol="193" len="24" key="65"/>
          <note pos="72" pan="0" vol="193" len="24" key="73"/>
          <note pos="72" pan="0" vol="193" len="24" key="68"/>
          <note pos="96" pan="0" vol="193" len="24" key="77"/>
          <note pos="96" pan="0" vol="193" len="24" key="73"/>
          <note pos="120" pan="0" vol="193" len="24" key="73"/>
          <note pos="120" pan="0" vol="193" len="24" key="68"/>
          <note pos="144" pan="0" vol="193" len="24" key="77"/>
          <note pos="144" pan="0" vol="193" len="24" key="68"/>
          <note pos="168" pan="0" vol="193" len="24" key="73"/>
          <note pos="168" pan="0" vol="193" len="24" key="68"/>
        </pattern>
        <pattern pos="16512" muted="0" steps="16" name="ZynAddSubFX" type="1">
          <note pos="0" pan="0" vol="193" len="24" key="81"/>
          <note pos="0" pan="0" vol="193" len="24" key="78"/>
          <note pos="0" pan="0" vol="193" len="24" key="73"/>
          <note pos="24" pan="0" vol="193" len="24" key="78"/>
          <note pos="24" pan="0" vol="193" len="24" key="73"/>
          <note pos="24" pan="0" vol="193" len="24" key="69"/>
          <note pos="48" pan="0" vol="193" len="24" key="78"/>
          <note pos="48" pan="0" vol="193" len="24" key="73"/>
          <note pos="48" pan="0" vol="193" len="24" key="69"/>
          <note pos="72" pan="0" vol="193" len="24" key="85"/>
          <note pos="72" pan="0" vol="193" len="24" key="81"/>
          <note pos="72" pan="0" vol="193" len="24" key="78"/>
          <note pos="96" pan="0" vol="193" len="24" key="81"/>
          <note pos="96" pan="0" vol="193" len="24" key="78"/>
          <note pos="96" pan="0" vol="193" len="24" key="73"/>
          <note pos="120" pan="0" vol="193" len="24" key="78"/>
          <note pos="120" pan="0" vol="193" len="24" key="73"/>
          <note pos="120" pan="0" vol="193" len="24" key="69"/>
          <note pos="144" pan="0" vol="193" len="24" key="81"/>
          <note pos="144" pan="0" vol="193" len="24" key="78"/>
          <note pos="144" pan="0" vol="193" len="24" key="73"/>
          <note pos="168" pan="0" vol="193" len="24" key="78"/>
          <note pos="168" pan="0" vol="193" len="24" key="73"/>
          <note pos="168" pan="0" vol="193" len="24" key="69"/>
        </pattern>
        <pattern pos="16704" muted="0" steps="16" name="ZynAddSubFX" type="1">
          <note pos="0" pan="0" vol="193" len="24" key="81"/>
          <note pos="0" pan="0" vol="193" len="24" key="78"/>
          <note pos="0" pan="0" vol="193" len="24" key="73"/>
          <note pos="72" pan="0" vol="193" len="24" key="85"/>
          <note pos="72" pan="0" vol="193" len="24" key="81"/>
          <note pos="72" pan="0" vol="193" len="24" key="78"/>
        </pattern>
        <pattern pos="16896" muted="0" steps="16" name="ZynAddSubFX" type="1">
          <note pos="0" pan="0" vol="193" len="24" key="74"/>
          <note pos="0" pan="0" vol="193" len="24" key="71"/>
          <note pos="0" pan="0" vol="193" len="24" key="66"/>
          <note pos="48" pan="0" vol="193" len="24" key="78"/>
          <note pos="48" pan="0" vol="193" len="24" key="74"/>
          <note pos="48" pan="0" vol="193" len="24" key="69"/>
          <note pos="96" pan="0" vol="193" len="24" key="74"/>
          <note pos="96" pan="0" vol="193" len="24" key="71"/>
          <note pos="96" pan="0" vol="193" len="24" key="66"/>
          <note pos="144" pan="0" vol="193" len="24" key="71"/>
          <note pos="144" pan="0" vol="193" len="24" key="66"/>
          <note pos="144" pan="0" vol="193" len="24" key="62"/>
          <note pos="192" pan="0" vol="193" len="24" key="71"/>
          <note pos="192" pan="0" vol="193" len="24" key="68"/>
          <note pos="192" pan="0" vol="193" len="24" key="64"/>
          <note pos="240" pan="0" vol="193" len="24" key="78"/>
          <note pos="240" pan="0" vol="193" len="24" key="74"/>
          <note pos="240" pan="0" vol="193" len="24" key="71"/>
          <note pos="288" pan="0" vol="193" len="24" key="76"/>
          <note pos="288" pan="0" vol="193" len="24" key="71"/>
          <note pos="288" pan="0" vol="193" len="24" key="68"/>
          <note pos="336" pan="0" vol="193" len="24" key="71"/>
          <note pos="336" pan="0" vol="193" len="24" key="68"/>
          <note pos="336" pan="0" vol="193" len="24" key="64"/>
          <note pos="384" pan="0" vol="193" len="24" key="73"/>
          <note pos="384" pan="0" vol="193" len="24" key="69"/>
          <note pos="384" pan="0" vol="193" len="24" key="64"/>
          <note pos="432" pan="0" vol="193" len="24" key="74"/>
          <note pos="432" pan="0" vol="193" len="24" key="69"/>
          <note pos="432" pan="0" vol="193" len="24" key="66"/>
          <note pos="480" pan="0" vol="193" len="24" key="73"/>
          <note pos="480" pan="0" vol="193" len="24" key="69"/>
          <note pos="480" pan="0" vol="193" len="24" key="64"/>
          <note pos="528" pan="0" vol="193" len="24" key="69"/>
          <note pos="528" pan="0" vol="193" len="24" key="64"/>
          <note pos="528" pan="0" vol="193" len="24" key="61"/>
          <note pos="576" pan="0" vol="193" len="24" key="66"/>
          <note pos="576" pan="0" vol="193" len="24" key="62"/>
          <note pos="576" pan="0" vol="193" len="24" key="57"/>
          <note pos="624" pan="0" vol="193" len="24" key="76"/>
          <note pos="624" pan="0" vol="193" len="24" key="71"/>
          <note pos="624" pan="0" vol="193" len="24" key="66"/>
          <note pos="672" pan="0" vol="193" len="24" key="74"/>
          <note pos="672" pan="0" vol="193" len="24" key="69"/>
          <note pos="672" pan="0" vol="193" len="24" key="66"/>
          <note pos="720" pan="0" vol="193" len="24" key="69"/>
          <note pos="720" pan="0" vol="193" len="24" key="66"/>
          <note pos="720" pan="0" vol="193" len="24" key="62"/>
          <note pos="768" pan="0" vol="193" len="48" key="71"/>
          <note pos="768" pan="0" vol="193" len="48" key="68"/>
          <note pos="768" pan="0" vol="193" len="48" key="64"/>
          <note pos="816" pan="0" vol="193" len="48" key="74"/>
          <note pos="816" pan="0" vol="193" len="48" key="71"/>
          <note pos="816" pan="0" vol="193" len="48" key="68"/>
          <note pos="864" pan="0" vol="193" len="48" key="71"/>
          <note pos="864" pan="0" vol="193" len="48" key="68"/>
          <note pos="864" pan="0" vol="193" len="48" key="65"/>
          <note pos="912" pan="0" vol="193" len="48" key="68"/>
          <note pos="912" pan="0" vol="193" len="48" key="65"/>
          <note pos="912" pan="0" vol="193" len="48" key="61"/>
          <note pos="960" pan="0" vol="193" len="24" key="73"/>
          <note pos="960" pan="0" vol="193" len="24" key="68"/>
          <note pos="960" pan="0" vol="193" len="24" key="65"/>
          <note pos="984" pan="0" vol="193" len="24" key="68"/>
          <note pos="984" pan="0" vol="193" len="24" key="65"/>
          <note pos="984" pan="0" vol="193" len="24" key="61"/>
          <note pos="1008" pan="0" vol="193" len="24" key="73"/>
          <note pos="1008" pan="0" vol="193" len="24" key="68"/>
          <note pos="1008" pan="0" vol="193" len="24" key="65"/>
          <note pos="1032" pan="0" vol="193" len="24" key="73"/>
          <note pos="1032" pan="0" vol="193" len="24" key="69"/>
          <note pos="1032" pan="0" vol="193" len="24" key="66"/>
          <note pos="1056" pan="0" vol="193" len="24" key="77"/>
          <note pos="1056" pan="0" vol="193" len="24" key="71"/>
          <note pos="1056" pan="0" vol="193" len="24" key="68"/>
          <note pos="1080" pan="0" vol="193" len="24" key="73"/>
          <note pos="1080" pan="0" vol="193" len="24" key="69"/>
          <note pos="1080" pan="0" vol="193" len="24" key="66"/>
          <note pos="1104" pan="0" vol="193" len="24" key="73"/>
          <note pos="1104" pan="0" vol="193" len="24" key="68"/>
          <note pos="1104" pan="0" vol="193" len="24" key="65"/>
          <note pos="1128" pan="0" vol="193" len="24" key="68"/>
          <note pos="1128" pan="0" vol="193" len="24" key="65"/>
          <note pos="1128" pan="0" vol="193" len="24" key="61"/>
        </pattern>
        <pattern pos="18432" muted="0" steps="16" name="ZynAddSubFX" type="1">
          <note pos="0" pan="0" vol="193" len="48" key="74"/>
          <note pos="0" pan="0" vol="193" len="48" key="71"/>
          <note pos="0" pan="0" vol="193" len="48" key="66"/>
          <note pos="48" pan="0" vol="193" len="48" key="78"/>
          <note pos="48" pan="0" vol="193" len="48" key="74"/>
          <note pos="48" pan="0" vol="193" len="48" key="69"/>
          <note pos="96" pan="0" vol="193" len="48" key="74"/>
          <note pos="96" pan="0" vol="193" len="48" key="71"/>
          <note pos="96" pan="0" vol="193" len="48" key="66"/>
          <note pos="144" pan="0" vol="193" len="48" key="71"/>
          <note pos="144" pan="0" vol="193" len="48" key="66"/>
          <note pos="144" pan="0" vol="193" len="48" key="62"/>
          <note pos="192" pan="0" vol="193" len="48" key="71"/>
          <note pos="192" pan="0" vol="193" len="48" key="68"/>
          <note pos="192" pan="0" vol="193" len="48" key="64"/>
          <note pos="240" pan="0" vol="193" len="48" key="78"/>
          <note pos="240" pan="0" vol="193" len="48" key="74"/>
          <note pos="240" pan="0" vol="193" len="48" key="71"/>
          <note pos="288" pan="0" vol="193" len="48" key="76"/>
          <note pos="288" pan="0" vol="193" len="48" key="71"/>
          <note pos="288" pan="0" vol="193" len="48" key="68"/>
          <note pos="336" pan="0" vol="193" len="48" key="71"/>
          <note pos="336" pan="0" vol="193" len="48" key="68"/>
          <note pos="336" pan="0" vol="193" len="48" key="64"/>
          <note pos="384" pan="0" vol="193" len="48" key="73"/>
          <note pos="384" pan="0" vol="193" len="48" key="69"/>
          <note pos="384" pan="0" vol="193" len="48" key="64"/>
          <note pos="432" pan="0" vol="193" len="48" key="74"/>
          <note pos="432" pan="0" vol="193" len="48" key="69"/>
          <note pos="432" pan="0" vol="193" len="48" key="66"/>
          <note pos="480" pan="0" vol="193" len="48" key="73"/>
          <note pos="480" pan="0" vol="193" len="48" key="69"/>
          <note pos="480" pan="0" vol="193" len="48" key="64"/>
          <note pos="528" pan="0" vol="193" len="48" key="69"/>
          <note pos="528" pan="0" vol="193" len="48" key="64"/>
          <note pos="528" pan="0" vol="193" len="48" key="61"/>
          <note pos="576" pan="0" vol="193" len="48" key="69"/>
          <note pos="576" pan="0" vol="193" len="48" key="66"/>
          <note pos="576" pan="0" vol="193" len="48" key="62"/>
          <note pos="624" pan="0" vol="193" len="48" key="76"/>
          <note pos="624" pan="0" vol="193" len="48" key="71"/>
          <note pos="624" pan="0" vol="193" len="48" key="66"/>
          <note pos="672" pan="0" vol="193" len="48" key="78"/>
          <note pos="672" pan="0" vol="193" len="48" key="74"/>
          <note pos="672" pan="0" vol="193" len="48" key="69"/>
          <note pos="720" pan="0" vol="193" len="48" key="81"/>
          <note pos="720" pan="0" vol="193" len="48" key="78"/>
          <note pos="720" pan="0" vol="193" len="48" key="74"/>
          <note pos="768" pan="0" vol="193" len="192" key="74"/>
          <note pos="768" pan="0" vol="193" len="192" key="71"/>
          <note pos="768" pan="0" vol="193" len="192" key="66"/>
          <note pos="960" pan="0" vol="193" len="192" key="75"/>
          <note pos="960" pan="0" vol="193" len="192" key="72"/>
          <note pos="960" pan="0" vol="193" len="192" key="66"/>
          <note pos="1152" pan="0" vol="193" len="192" key="77"/>
          <note pos="1152" pan="0" vol="193" len="192" key="73"/>
          <note pos="1152" pan="0" vol="193" len="192" key="68"/>
          <note pos="1344" pan="0" vol="193" len="192" key="80"/>
          <note pos="1344" pan="0" vol="193" len="192" key="77"/>
          <note pos="1344" pan="0" vol="193" len="192" key="73"/>
        </pattern>
        <pattern pos="18048" muted="0" steps="16" name="ZynAddSubFX" type="1">
          <note pos="0" pan="0" vol="193" len="24" key="73"/>
          <note pos="0" pan="0" vol="193" len="24" key="69"/>
          <note pos="0" pan="0" vol="193" len="24" key="66"/>
          <note pos="24" pan="0" vol="193" len="24" key="66"/>
          <note pos="24" pan="0" vol="193" len="24" key="61"/>
          <note pos="24" pan="0" vol="193" len="24" key="57"/>
          <note pos="48" pan="0" vol="193" len="24" key="69"/>
          <note pos="48" pan="0" vol="193" len="24" key="66"/>
          <note pos="48" pan="0" vol="193" len="24" key="61"/>
          <note pos="72" pan="0" vol="193" len="24" key="66"/>
          <note pos="72" pan="0" vol="193" len="24" key="61"/>
          <note pos="72" pan="0" vol="193" len="24" key="57"/>
          <note pos="96" pan="0" vol="193" len="24" key="73"/>
          <note pos="96" pan="0" vol="193" len="24" key="69"/>
          <note pos="96" pan="0" vol="193" len="24" key="66"/>
          <note pos="120" pan="0" vol="193" len="24" key="66"/>
          <note pos="120" pan="0" vol="193" len="24" key="61"/>
          <note pos="120" pan="0" vol="193" len="24" key="57"/>
          <note pos="144" pan="0" vol="193" len="24" key="69"/>
          <note pos="144" pan="0" vol="193" len="24" key="66"/>
          <note pos="144" pan="0" vol="193" len="24" key="61"/>
          <note pos="168" pan="0" vol="193" len="24" key="66"/>
          <note pos="168" pan="0" vol="193" len="24" key="61"/>
          <note pos="168" pan="0" vol="193" len="24" key="57"/>
        </pattern>
        <pattern pos="18240" muted="0" steps="16" name="ZynAddSubFX" type="1">
          <note pos="0" pan="0" vol="193" len="24" key="73"/>
          <note pos="0" pan="0" vol="193" len="24" key="69"/>
          <note pos="0" pan="0" vol="193" len="24" key="66"/>
          <note pos="24" pan="0" vol="193" len="24" key="66"/>
          <note pos="24" pan="0" vol="193" len="24" key="61"/>
          <note pos="24" pan="0" vol="193" len="24" key="57"/>
          <note pos="48" pan="0" vol="193" len="24" key="69"/>
          <note pos="48" pan="0" vol="193" len="24" key="66"/>
          <note pos="48" pan="0" vol="193" len="24" key="61"/>
          <note pos="72" pan="0" vol="193" len="24" key="66"/>
          <note pos="72" pan="0" vol="193" len="24" key="61"/>
          <note pos="72" pan="0" vol="193" len="24" key="57"/>
          <note pos="96" pan="0" vol="193" len="24" key="73"/>
          <note pos="96" pan="0" vol="193" len="24" key="69"/>
          <note pos="96" pan="0" vol="193" len="24" key="66"/>
          <note pos="120" pan="0" vol="193" len="24" key="66"/>
          <note pos="120" pan="0" vol="193" len="24" key="61"/>
          <note pos="120" pan="0" vol="193" len="24" key="57"/>
          <note pos="144" pan="0" vol="193" len="24" key="69"/>
          <note pos="144" pan="0" vol="193" len="24" key="66"/>
          <note pos="144" pan="0" vol="193" len="24" key="61"/>
          <note pos="168" pan="0" vol="193" len="24" key="66"/>
          <note pos="168" pan="0" vol="193" len="24" key="61"/>
          <note pos="168" pan="0" vol="193" len="24" key="57"/>
        </pattern>
        <pattern pos="19968" muted="0" steps="16" name="ZynAddSubFX" type="1">
          <note pos="0" pan="0" vol="193" len="96" key="56"/>
          <note pos="0" pan="0" vol="193" len="96" key="53"/>
          <note pos="0" pan="0" vol="193" len="96" key="49"/>
          <note pos="96" pan="0" vol="193" len="96" key="61"/>
          <note pos="96" pan="0" vol="193" len="96" key="56"/>
          <note pos="96" pan="0" vol="193" len="96" key="53"/>
          <note pos="192" pan="0" vol="193" len="96" key="65"/>
          <note pos="192" pan="0" vol="193" len="96" key="61"/>
          <note pos="192" pan="0" vol="193" len="96" key="56"/>
          <note pos="288" pan="0" vol="193" len="96" key="68"/>
          <note pos="288" pan="0" vol="193" len="96" key="65"/>
          <note pos="288" pan="0" vol="193" len="96" key="61"/>
        </pattern>
        <pattern pos="20352" muted="0" steps="16" name="ZynAddSubFX" type="1">
          <note pos="0" pan="0" vol="193" len="24" key="73"/>
          <note pos="0" pan="0" vol="193" len="24" key="68"/>
          <note pos="0" pan="0" vol="193" len="24" key="65"/>
          <note pos="24" pan="0" vol="193" len="24" key="68"/>
          <note pos="24" pan="0" vol="193" len="24" key="65"/>
          <note pos="24" pan="0" vol="193" len="24" key="61"/>
          <note pos="48" pan="0" vol="193" len="24" key="71"/>
          <note pos="48" pan="0" vol="193" len="24" key="68"/>
          <note pos="48" pan="0" vol="193" len="24" key="65"/>
          <note pos="72" pan="0" vol="193" len="24" key="68"/>
          <note pos="72" pan="0" vol="193" len="24" key="65"/>
          <note pos="72" pan="0" vol="193" len="24" key="59"/>
          <note pos="96" pan="0" vol="193" len="24" key="69"/>
          <note pos="96" pan="0" vol="193" len="24" key="66"/>
          <note pos="96" pan="0" vol="193" len="24" key="62"/>
          <note pos="120" pan="0" vol="193" len="24" key="66"/>
          <note pos="120" pan="0" vol="193" len="24" key="62"/>
          <note pos="120" pan="0" vol="193" len="24" key="57"/>
          <note pos="144" pan="0" vol="193" len="24" key="68"/>
          <note pos="144" pan="0" vol="193" len="24" key="65"/>
          <note pos="144" pan="0" vol="193" len="24" key="62"/>
          <note pos="168" pan="0" vol="193" len="24" key="65"/>
          <note pos="168" pan="0" vol="193" len="24" key="62"/>
          <note pos="168" pan="0" vol="193" len="24" key="56"/>
          <note pos="192" pan="0" vol="193" len="24" key="66"/>
          <note pos="192" pan="0" vol="193" len="24" key="62"/>
          <note pos="192" pan="0" vol="193" len="24" key="57"/>
          <note pos="216" pan="0" vol="193" len="24" key="62"/>
          <note pos="216" pan="0" vol="193" len="24" key="57"/>
          <note pos="216" pan="0" vol="193" len="24" key="54"/>
          <note pos="240" pan="0" vol="193" len="24" key="65"/>
          <note pos="240" pan="0" vol="193" len="24" key="61"/>
          <note pos="240" pan="0" vol="193" len="24" key="56"/>
          <note pos="264" pan="0" vol="193" len="24" key="61"/>
          <note pos="264" pan="0" vol="193" len="24" key="56"/>
          <note pos="264" pan="0" vol="193" len="24" key="53"/>
          <note pos="288" pan="0" vol="193" len="48" key="73"/>
          <note pos="288" pan="0" vol="193" len="48" key="68"/>
          <note pos="288" pan="0" vol="193" len="48" key="65"/>
        </pattern>
      </track>
      <track solo="0" muted="0" name="Blanchet-1720" type="0">
        <instrumenttrack pan="0" usemasterpitch="1" vol="100" pitchrange="1" fxch="0" pitch="0" basenote="57">
          <instrument name="sf2player">
            <sf2player chorusSpeed="0.3" patch="1" chorusNum="3" bank="1" gain="2.92" reverbOn="0" chorusOn="0" reverbWidth="0.5" reverbDamping="0" src="/home/pass/samples/soundfonts/Blanchet-1720.sf2" reverbLevel="0.9" chorusLevel="2" chorusDepth="8" reverbRoomSize="0.2"/>
          </instrument>
          <eldata fres="0.5" ftype="0" fcut="14000" fwet="0">
            <elvol lspd="0.1" latt="0" lspd_syncmode="0" lspd_numerator="4" dec="0.5" lshp="0" lspd_denominator="4" rel="0.1" amt="0" userwavefile="" lamt="0" att="0" sustain="0.5" pdel="0" ctlenvamt="0" x100="0" lpdel="0" hold="0.5"/>
            <elcut lspd="0.1" latt="0" lspd_syncmode="0" lspd_numerator="4" dec="0.5" lshp="0" lspd_denominator="4" rel="0.1" amt="0" userwavefile="" lamt="0" att="0" sustain="0.5" pdel="0" ctlenvamt="0" x100="0" lpdel="0" hold="0.5"/>
            <elres lspd="0.1" latt="0" lspd_syncmode="0" lspd_numerator="4" dec="0.5" lshp="0" lspd_denominator="4" rel="0.1" amt="0" userwavefile="" lamt="0" att="0" sustain="0.5" pdel="0" ctlenvamt="0" x100="0" lpdel="0" hold="0.5"/>
          </eldata>
          <chordcreator chord-enabled="0" chord="0" chordrange="1"/>
          <arpeggiator arptime_syncmode="0" arptime_numerator="4" arpmiss="0" arpmode="0" arptime="200" arp="0" arptime_denominator="4" arp-enabled="0" arpcycle="0" arpdir="0" arpskip="0" arpgate="100" arprange="1"/>
          <midiport fixedoutputnote="-1" outputchannel="1" inputchannel="0" inputcontroller="0" readable="0" outputcontroller="0" fixedinputvelocity="-1" basevelocity="63" fixedoutputvelocity="-1" outputprogram="1" writable="0"/>
          <fxchain numofeffects="0" enabled="0"/>
        </instrumenttrack>
        <pattern pos="6144" muted="0" steps="16" name="Blanchet-1720" type="0"/>
      </track>
      <track solo="0" muted="0" name="lgt" type="2">
        <sampletrack pan="0" vol="113.6">
          <fxchain numofeffects="2" enabled="1">
            <effect wet="1" on="1" autoquit_denominator="4" autoquit_syncmode="0" gate="0" autoquit="1" name="eq" autoquit_numerator="4">
              <Eq Peak2active="0" HighShelfres="1.4" Peak4active="0" HP24="0" HP48="0" Peak4gain="0" LowShelfres="1.4" Lowshelfgain="0" LP48="0" Highshelfactive="0" Peak2gain="0" HP="0" LP12="1" Peak1active="0" LP24="0" AnalyseOut="1" Lowshelfactive="0" HPactive="0" Peak3active="0" HPres="0.707" Outputgain="5.09" Peak2bw="0.3" Peak3bw="0.3" HP12="1" Peak4bw="0.3" AnalyseIn="1" Peak3gain="0" LPres="0.707" LPactive="0" HighShelfgain="0" LP="0" Peak1bw="0.3">
                <Inputgain scale_type="log" value="0" id="5591970"/>
                <Peak1gain scale_type="log" value="0" id="7648041"/>
                <HPfreq scale_type="log" value="31" id="1930457"/>
                <LowShelffreq scale_type="log" value="80" id="7690073"/>
                <Peak1freq scale_type="log" value="120" id="2218558"/>
                <Peak2freq scale_type="log" value="250" id="1819935"/>
                <Peak3freq scale_type="log" value="2000" id="7783720"/>
                <Peak4freq scale_type="log" value="4000" id="3357716"/>
                <Highshelffreq scale_type="log" value="12000" id="2748921"/>
                <LPfreq scale_type="log" value="18000" id="7024874"/>
              </Eq>
              <key/>
            </effect>
            <effect wet="1" on="1" autoquit_denominator="4" autoquit_syncmode="0" gate="0" autoquit="1" name="ladspaeffect" autoquit_numerator="4">
              <ladspacontrols link="0" ports="22">
                <port00 data="0" link="0"/>
                <port01 data="0" link="0"/>
                <port02 data="0" link="0"/>
                <port03 data="2" link="0"/>
                <port04 data_numerator="4" data="0" link="0" data_denominator="4" data_syncmode="0"/>
                <port05 data_numerator="4" data="337.494" link="0" data_denominator="4" data_syncmode="0"/>
                <port06 data="1" link="0"/>
                <port07 data="0" link="0"/>
                <port08 data="1" link="0"/>
                <port09 data="0" link="0"/>
                <port010 data="0.34125" link="1"/>
                <port10 data="0"/>
                <port11 data="0"/>
                <port12 data="0"/>
                <port13 data="2"/>
                <port14 data_numerator="4" data="0" data_denominator="4" data_syncmode="0"/>
                <port15 data_numerator="4" data="667.489" data_denominator="4" data_syncmode="0"/>
                <port16 data="1"/>
                <port17 data="0"/>
                <port18 data="1"/>
                <port19 data="0"/>
                <port110 data="0.34125"/>
              </ladspacontrols>
              <key>
                <attribute name="file" value="delayorama_1402"/>
                <attribute name="plugin" value="delayorama"/>
              </key>
            </effect>
          </fxchain>
        </sampletrack>
        <sampletco pos="0" muted="0" sample_rate="44100" len="21312" src="/home/pass/my_scripts/learningGuitar/idk1/lgt_bounce.wav"/>
      </track>
      <track solo="0" muted="0" name="rgt" type="2">
        <sampletrack pan="0" vol="149.6">
          <fxchain numofeffects="1" enabled="1">
            <effect wet="1" on="1" autoquit_denominator="4" autoquit_syncmode="0" gate="0" autoquit="1" name="eq" autoquit_numerator="4">
              <Eq Peak2active="0" HighShelfres="1.4" Peak4active="1" HP24="0" HP48="0" Peak4gain="2.7" LowShelfres="1.4" Lowshelfgain="0" LP48="0" Highshelfactive="0" Peak2gain="0" HP="0" LP12="1" Peak1active="0" LP24="0" AnalyseOut="1" Lowshelfactive="0" HPactive="1" Peak3active="0" HPres="0.707" Outputgain="0" Peak2bw="0.3" Peak3bw="0.3" HP12="1" Peak4bw="1.77" AnalyseIn="1" Peak3gain="0" LPres="0.707" LPactive="0" HighShelfgain="0" LP="0" Peak1bw="0.3">
                <Inputgain scale_type="log" value="0" id="6226044"/>
                <Peak1gain scale_type="log" value="0" id="3221496"/>
                <HPfreq scale_type="log" value="88.0431" id="7011174"/>
                <LowShelffreq scale_type="log" value="80" id="6577458"/>
                <Peak1freq scale_type="log" value="120" id="1789965"/>
                <Peak2freq scale_type="log" value="250" id="1824695"/>
                <Peak3freq scale_type="log" value="2000" id="2996785"/>
                <Peak4freq scale_type="log" value="2942.57" id="255064"/>
                <Highshelffreq scale_type="log" value="12000" id="7418019"/>
                <LPfreq scale_type="log" value="18000" id="3922266"/>
              </Eq>
              <key/>
            </effect>
          </fxchain>
        </sampletrack>
        <sampletco pos="0" muted="0" sample_rate="44100" len="21120" src="/home/pass/my_scripts/learningGuitar/idk1/rgt_bounce.wav"/>
      </track>
    </trackcontainer>
    <track solo="0" muted="0" name="Automation track" type="6">
      <automationtrack/>
      <automationpattern prog="0" tens="1" pos="0" len="192" name="Numerator" mute="0"/>
      <automationpattern prog="0" tens="1" pos="0" len="192" name="Denominator" mute="0"/>
      <automationpattern prog="0" tens="1" pos="0" len="192" name="Tempo" mute="0"/>
      <automationpattern prog="0" tens="1" pos="0" len="192" name="Master volume" mute="0"/>
      <automationpattern prog="0" tens="1" pos="0" len="192" name="Master pitch" mute="0"/>
    </track>
    <fxmixer x="1" y="149" width="1260" height="333" maximized="0" minimized="0" visible="0">
      <fxchannel num="0" muted="0" volume="0.954" soloed="0" name="Master">
        <fxchain numofeffects="0" enabled="0"/>
      </fxchannel>
      <fxchannel num="1" muted="0" volume="0.535" soloed="0" name="kick">
        <fxchain numofeffects="0" enabled="0"/>
        <send channel="0" amount="1"/>
        <send channel="10" amount="0.512"/>
      </fxchannel>
      <fxchannel num="2" muted="0" volume="0.28" soloed="0" name="hat">
        <fxchain numofeffects="0" enabled="0"/>
        <send channel="0" amount="1"/>
        <send channel="10" amount="0.416"/>
      </fxchannel>
      <fxchannel num="3" muted="0" volume="0.674" soloed="0" name="snare">
        <fxchain numofeffects="1" enabled="1">
          <effect wet="1" on="1" autoquit_denominator="4" autoquit_syncmode="0" gate="0" autoquit="1" name="eq" autoquit_numerator="4">
            <Eq Peak2active="0" HighShelfres="1.435" Peak4active="1" HP24="0" HP48="0" Peak4gain="-0.718001" LowShelfres="1.4" Lowshelfgain="0" LP48="0" Highshelfactive="1" Peak2gain="0" HP="0" LP12="1" Peak1active="0" LP24="0" AnalyseOut="1" Lowshelfactive="0" HPactive="0" Peak3active="0" HPres="0.707" Outputgain="0" Peak2bw="0.3" Peak3bw="0.3" HP12="1" Peak4bw="0.3" AnalyseIn="1" Peak3gain="0" LPres="0.707" LPactive="1" HighShelfgain="5.04" LP="0" Peak1bw="0.3">
              <Inputgain scale_type="log" value="0" id="6753652"/>
              <Peak1gain scale_type="log" value="0" id="8257704"/>
              <HPfreq scale_type="log" value="31" id="2234845"/>
              <LowShelffreq scale_type="log" value="80" id="5016811"/>
              <Peak1freq scale_type="log" value="120" id="5537746"/>
              <Peak2freq scale_type="log" value="250" id="6539813"/>
              <Peak3freq scale_type="log" value="2000" id="6999518"/>
              <Peak4freq scale_type="log" value="4000" id="770028"/>
              <Highshelffreq scale_type="log" value="2497.52" id="3686018"/>
              <LPfreq scale_type="log" value="13865.6" id="7588449"/>
            </Eq>
            <key/>
          </effect>
        </fxchain>
        <send channel="0" amount="1"/>
        <send channel="10" amount="0.784"/>
      </fxchannel>
      <fxchannel num="4" muted="0" volume="0.651" soloed="0" name="crash1">
        <fxchain numofeffects="0" enabled="0"/>
        <send channel="0" amount="1"/>
        <send channel="10" amount="0.724"/>
      </fxchannel>
      <fxchannel num="5" muted="0" volume="0.767" soloed="0" name="crash2">
        <fxchain numofeffects="0" enabled="0"/>
        <send channel="0" amount="1"/>
        <send channel="10" amount="0.76"/>
      </fxchannel>
      <fxchannel num="6" muted="0" volume="1" soloed="0" name="china">
        <fxchain numofeffects="0" enabled="0"/>
        <send channel="0" amount="1"/>
        <send channel="10" amount="1"/>
      </fxchannel>
      <fxchannel num="7" muted="0" volume="0.512" soloed="0" name="hitom">
        <fxchain numofeffects="0" enabled="0"/>
        <send channel="0" amount="1"/>
        <send channel="10" amount="0.42"/>
      </fxchannel>
      <fxchannel num="8" muted="0" volume="0.534" soloed="0" name="midtom">
        <fxchain numofeffects="0" enabled="0"/>
        <send channel="0" amount="1"/>
        <send channel="10" amount="0.412"/>
      </fxchannel>
      <fxchannel num="9" muted="0" volume="0.418" soloed="0" name="lotom">
        <fxchain numofeffects="0" enabled="0"/>
        <send channel="0" amount="1"/>
        <send channel="10" amount="0.432"/>
      </fxchannel>
      <fxchannel num="10" muted="0" volume="0.814" soloed="0" name="DRUM PLATE">
        <fxchain numofeffects="2" enabled="1">
          <effect wet="1" on="1" autoquit_denominator="4" autoquit_syncmode="0" gate="0" autoquit="1" name="ladspaeffect" autoquit_numerator="4">
            <ladspacontrols ports="4">
              <port02 data="0.76538"/>
              <port03 data="0.145119"/>
              <port04 data="0.0005"/>
              <port05 data="1"/>
            </ladspacontrols>
            <key>
              <attribute name="file" value="caps"/>
              <attribute name="plugin" value="Plate2x2"/>
            </key>
          </effect>
          <effect wet="1" on="1" autoquit_denominator="4" autoquit_syncmode="0" gate="0" autoquit="1" name="eq" autoquit_numerator="4">
            <Eq Peak2active="0" HighShelfres="1.4" Peak4active="1" HP24="0" HP48="0" Peak4gain="0.36" LowShelfres="1.4" Lowshelfgain="0" LP48="0" Highshelfactive="1" Peak2gain="0" HP="0" LP12="1" Peak1active="0" LP24="0" AnalyseOut="1" Lowshelfactive="0" HPactive="1" Peak3active="0" HPres="0.707" Outputgain="0" Peak2bw="0.3" Peak3bw="0.3" HP12="1" Peak4bw="0.3" AnalyseIn="1" Peak3gain="0" LPres="0.707" LPactive="0" HighShelfgain="1.62" LP="0" Peak1bw="0.3">
              <Inputgain scale_type="log" value="0" id="217936"/>
              <Peak1gain scale_type="log" value="0" id="1412862"/>
              <HPfreq scale_type="log" value="175.669" id="7725025"/>
              <LowShelffreq scale_type="log" value="80" id="399642"/>
              <Peak1freq scale_type="log" value="120" id="3213708"/>
              <Peak2freq scale_type="log" value="250" id="1180890"/>
              <Peak3freq scale_type="log" value="2000" id="5654965"/>
              <Peak4freq scale_type="log" value="3592.47" id="757114"/>
              <Highshelffreq scale_type="log" value="610.728" id="3326661"/>
              <LPfreq scale_type="log" value="18000" id="825391"/>
            </Eq>
            <key/>
          </effect>
        </fxchain>
        <send channel="0" amount="1"/>
      </fxchannel>
      <fxchannel num="11" muted="0" volume="0.331" soloed="0" name="rhythm guitar">
        <fxchain numofeffects="4" enabled="1">
          <effect wet="1" on="1" autoquit_denominator="4" autoquit_syncmode="0" gate="0" autoquit="1" name="eq" autoquit_numerator="4">
            <Eq Peak2active="1" HighShelfres="1.4" Peak4active="0" HP24="0" HP48="0" Peak4gain="0" LowShelfres="0.716" Lowshelfgain="-10.425" LP48="0" Highshelfactive="0" Peak2gain="-0.36" HP="0" LP12="1" Peak1active="0" LP24="0" AnalyseOut="1" Lowshelfactive="1" HPactive="1" Peak3active="1" HPres="0.707" Outputgain="0" Peak2bw="0.3" Peak3bw="1.077" HP12="1" Peak4bw="0.3" AnalyseIn="1" Peak3gain="11.52" LPres="0.707" LPactive="0" HighShelfgain="0" LP="0" Peak1bw="0.3">
              <Inputgain scale_type="log" value="0" id="2214616"/>
              <Peak1gain scale_type="log" value="0" id="8008574"/>
              <HPfreq scale_type="log" value="20" id="3965735"/>
              <LowShelffreq scale_type="log" value="297.157" id="111881"/>
              <Peak1freq scale_type="log" value="120" id="2695568"/>
              <Peak2freq scale_type="log" value="274.12" id="6906443"/>
              <Peak3freq scale_type="log" value="1108.17" id="6973747"/>
              <Peak4freq scale_type="log" value="4000" id="6598814"/>
              <Highshelffreq scale_type="log" value="12000" id="2892502"/>
              <LPfreq scale_type="log" value="18000" id="8281859"/>
            </Eq>
            <key/>
          </effect>
          <effect wet="1" on="1" autoquit_denominator="4" autoquit_syncmode="0" gate="0" autoquit="1" name="ladspaeffect" autoquit_numerator="4">
            <ladspacontrols link="1" ports="2">
              <port01 data="72" link="1"/>
              <port11 data="72"/>
            </ladspacontrols>
            <key>
              <attribute name="file" value="caps"/>
              <attribute name="plugin" value="Clip"/>
            </key>
          </effect>
          <effect wet="1" on="1" autoquit_denominator="4" autoquit_syncmode="0" gate="0" autoquit="1" name="ladspaeffect" autoquit_numerator="4">
            <ladspacontrols link="1" ports="4">
              <port01 data="5" link="1"/>
              <port02 data="0" link="1"/>
              <port11 data="5"/>
              <port12 data="0"/>
            </ladspacontrols>
            <key>
              <attribute name="file" value="caps"/>
              <attribute name="plugin" value="CabinetI"/>
            </key>
          </effect>
          <effect wet="1" on="1" autoquit_denominator="4" autoquit_syncmode="0" gate="0" autoquit="1" name="ladspaeffect" autoquit_numerator="4">
            <ladspacontrols ports="31">
              <port04 data="0"/>
              <port05 data="1"/>
              <port06 data="1"/>
              <port015 data="1"/>
              <port016>
                <data scale_type="log" value="72.4687" id="3863622"/>
              </port016>
              <port017 data="1"/>
              <port018 data="1"/>
              <port019>
                <data scale_type="log" value="8170.91" id="4005330"/>
              </port019>
              <port020 data="1"/>
              <port021 data="0"/>
              <port022 data="1"/>
              <port023>
                <data scale_type="log" value="447.214" id="41574"/>
              </port023>
              <port024 data="0"/>
              <port025 data="1"/>
              <port026>
                <data scale_type="log" value="2990.7" id="7836918"/>
              </port026>
              <port027 data="0"/>
              <port028 data="1"/>
              <port029>
                <data scale_type="log" value="447.214" id="2429363"/>
              </port029>
              <port030>
                <data scale_type="log" value="1" id="1646137"/>
              </port030>
              <port031 data="1"/>
              <port032 data="0.415527"/>
              <port033>
                <data scale_type="log" value="874.561" id="7249335"/>
              </port033>
              <port034>
                <data scale_type="log" value="1.42357" id="6950726"/>
              </port034>
              <port035 data="0"/>
              <port036 data="1"/>
              <port037>
                <data scale_type="log" value="2990.7" id="7188483"/>
              </port037>
              <port038>
                <data scale_type="log" value="1" id="4403266"/>
              </port038>
              <port039 data="0"/>
              <port040 data="1"/>
              <port041>
                <data scale_type="log" value="2990.7" id="3127968"/>
              </port041>
              <port042>
                <data scale_type="log" value="1" id="3252933"/>
              </port042>
            </ladspacontrols>
            <key>
              <attribute name="file" value="calf"/>
              <attribute name="plugin" value="Equalizer8Band"/>
            </key>
          </effect>
        </fxchain>
        <send channel="0" amount="1"/>
      </fxchannel>
      <fxchannel num="12" muted="0" volume="0.289001" soloed="0" name="lgt">
        <fxchain numofeffects="3" enabled="1">
          <effect wet="1" on="1" autoquit_denominator="4" autoquit_syncmode="0" gate="0" autoquit="1" name="ladspaeffect" autoquit_numerator="4">
            <ladspacontrols link="1" ports="2">
              <port01 data="72" link="1"/>
              <port11 data="72"/>
            </ladspacontrols>
            <key>
              <attribute name="file" value="caps"/>
              <attribute name="plugin" value="Clip"/>
            </key>
          </effect>
          <effect wet="1" on="1" autoquit_denominator="4" autoquit_syncmode="0" gate="0" autoquit="1" name="ladspaeffect" autoquit_numerator="4">
            <ladspacontrols link="1" ports="4">
              <port01 data="5" link="1"/>
              <port02 data="0" link="1"/>
              <port11 data="5"/>
              <port12 data="0"/>
            </ladspacontrols>
            <key>
              <attribute name="file" value="caps"/>
              <attribute name="plugin" value="CabinetI"/>
            </key>
          </effect>
          <effect wet="1" on="0" autoquit_denominator="4" autoquit_syncmode="0" gate="0" autoquit="1" name="ladspaeffect" autoquit_numerator="4">
            <ladspacontrols ports="1">
              <port02 data="0.69875"/>
            </ladspacontrols>
            <key>
              <attribute name="file" value="caps"/>
              <attribute name="plugin" value="Narrower"/>
            </key>
          </effect>
        </fxchain>
        <send channel="0" amount="1"/>
        <send channel="13" amount="0.424"/>
      </fxchannel>
      <fxchannel num="13" muted="0" volume="0.535" soloed="0" name="gt-delay">
        <fxchain numofeffects="1" enabled="1">
          <effect wet="1" on="1" autoquit_denominator="4" autoquit_syncmode="0" gate="0" autoquit="1" name="ladspaeffect" autoquit_numerator="4">
            <ladspacontrols link="0" ports="4">
              <port00 data_numerator="4" data="112.5" link="0" data_denominator="4" data_syncmode="0"/>
              <port01 data_numerator="4" data="0" link="0" data_denominator="4" data_syncmode="0"/>
              <port10 data_numerator="4" data="301.25" data_denominator="4" data_syncmode="0"/>
              <port11 data_numerator="4" data="0" data_denominator="4" data_syncmode="0"/>
            </ladspacontrols>
            <key>
              <attribute name="file" value="mod_delay_1419"/>
              <attribute name="plugin" value="modDelay"/>
            </key>
          </effect>
        </fxchain>
        <send channel="0" amount="1"/>
      </fxchannel>
      <fxchannel num="14" muted="0" volume="0.442" soloed="0" name="bass">
        <fxchain numofeffects="1" enabled="1">
          <effect wet="1" on="0" autoquit_denominator="4" autoquit_syncmode="0" gate="0" autoquit="1" name="eq" autoquit_numerator="4">
            <Eq Peak2active="1" HighShelfres="1.4" Peak4active="1" HP24="0" HP48="0" Peak4gain="5.76" LowShelfres="1.21" Lowshelfgain="-6.477" LP48="0" Highshelfactive="0" Peak2gain="18" HP="0" LP12="1" Peak1active="0" LP24="0" AnalyseOut="1" Lowshelfactive="1" HPactive="0" Peak3active="1" HPres="0.707" Outputgain="8" Peak2bw="2.866" Peak3bw="1.828" HP12="1" Peak4bw="0.811" AnalyseIn="1" Peak3gain="18" LPres="0.707" LPactive="0" HighShelfgain="0" LP="0" Peak1bw="0.3">
              <Inputgain scale_type="log" value="0" id="1928132"/>
              <Peak1gain scale_type="log" value="0" id="5028906"/>
              <HPfreq scale_type="log" value="24.795" id="6101787"/>
              <LowShelffreq scale_type="log" value="179.84" id="5056230"/>
              <Peak1freq scale_type="log" value="120" id="3218393"/>
              <Peak2freq scale_type="log" value="8057.72" id="4083145"/>
              <Peak3freq scale_type="log" value="4557.45" id="4897974"/>
              <Peak4freq scale_type="log" value="4000" id="5404987"/>
              <Highshelffreq scale_type="log" value="12000" id="3053663"/>
              <LPfreq scale_type="log" value="18000" id="1445410"/>
            </Eq>
            <key/>
          </effect>
        </fxchain>
        <send channel="0" amount="1"/>
      </fxchannel>
      <fxchannel num="15" muted="0" volume="0.698" soloed="0" name="synthStrings">
        <fxchain numofeffects="0" enabled="0"/>
        <send channel="0" amount="1"/>
      </fxchannel>
      <fxchannel num="16" muted="0" volume="1" soloed="0" name="FX 16">
        <fxchain numofeffects="0" enabled="0"/>
        <send channel="0" amount="1"/>
      </fxchannel>
      <fxchannel num="17" muted="0" volume="1" soloed="0" name="FX 17">
        <fxchain numofeffects="0" enabled="0"/>
        <send channel="0" amount="1"/>
      </fxchannel>
      <fxchannel num="18" muted="0" volume="1" soloed="0" name="FX 18">
        <fxchain numofeffects="0" enabled="0"/>
        <send channel="0" amount="1"/>
      </fxchannel>
      <fxchannel num="19" muted="0" volume="1" soloed="0" name="FX 19">
        <fxchain numofeffects="0" enabled="0"/>
        <send channel="0" amount="1"/>
      </fxchannel>
      <fxchannel num="20" muted="0" volume="1" soloed="0" name="FX 20">
        <fxchain numofeffects="0" enabled="0"/>
        <send channel="0" amount="1"/>
      </fxchannel>
      <fxchannel num="21" muted="0" volume="1" soloed="0" name="FX 21">
        <fxchain numofeffects="0" enabled="0"/>
        <send channel="0" amount="1"/>
      </fxchannel>
      <fxchannel num="22" muted="0" volume="1" soloed="0" name="FX 22">
        <fxchain numofeffects="0" enabled="0"/>
        <send channel="0" amount="1"/>
      </fxchannel>
      <fxchannel num="23" muted="0" volume="1" soloed="0" name="FX 23">
        <fxchain numofeffects="0" enabled="0"/>
        <send channel="0" amount="1"/>
      </fxchannel>
    </fxmixer>
    <ControllerRackView x="680" y="282" width="350" height="200" maximized="0" minimized="0" visible="0"/>
    <pianoroll x="172" y="20" width="860" height="480" maximized="1" minimized="0" visible="0"/>
    <automationeditor x="395" y="78" width="860" height="400" maximized="0" minimized="0" visible="0"/>
    <projectnotes x="700" y="1" width="692" height="400" maximized="0" minimized="0" visible="0"><![CDATA[<!DOCTYPE HTML PUBLIC "-//W3C//DTD HTML 4.0//EN" "http://www.w3.org/TR/REC-html40/strict.dtd">
<html><head><meta name="qrichtext" content="1" /><style type="text/css">
p, li { white-space: pre-wrap; }
</style></head><body style=" font-family:'Sans Serif'; font-size:9pt; font-weight:400; font-style:normal;">
<p style="-qt-paragraph-type:empty; margin-top:0px; margin-bottom:0px; margin-left:0px; margin-right:0px; -qt-block-indent:0; text-indent:0px; font-family:'Ubuntu'; font-size:10pt;"><br /></p></body></html>]]></projectnotes>
    <timeline lpstate="0" lp1pos="9600" lp0pos="0"/>
    <controllers/>
  </song>
</lmms-project>
