<?xml version="1.0"?>
<!DOCTYPE lmms-project>
<lmms-project version="1.0" creator="LMMS" creatorversion="1.2.2" type="song">
  <head timesig_denominator="4" bpm="200" mastervol="48" timesig_numerator="4" masterpitch="0"/>
  <song>
    <trackcontainer x="23" width="600" minimized="0" maximized="1" height="531" y="45" type="song" visible="1">
      <track muted="0" solo="0" type="1" name="intro1">
        <bbtrack>
          <trackcontainer x="91" width="1034" minimized="0" maximized="1" height="378" y="50" type="bbtrackcontainer" visible="0">
            <track muted="0" solo="0" type="0" name="kick.wav">
              <instrumenttrack basenote="57" pitch="0" pitchrange="1" pan="0" usemasterpitch="1" fxch="1" vol="100">
                <instrument name="audiofileprocessor">
                  <audiofileprocessor looped="0" lframe="0" reversed="0" eframe="1" stutter="0" sframe="0" interp="0" src="/home/pass/samples/sillydrums/kick.wav" amp="100"/>
                </instrument>
                <eldata fwet="0" ftype="0" fcut="14000" fres="0.5">
                  <elvol lspd_denominator="4" lamt="0" amt="1" dec="2" hold="2" lshp="0" ctlenvamt="0" lspd="0.1" rel="2" pdel="0" lspd_syncmode="0" att="0" sustain="1" userwavefile="" latt="0" lspd_numerator="4" lpdel="0" x100="0"/>
                  <elcut lspd_denominator="4" lamt="0" amt="0" dec="0.5" hold="0.5" lshp="0" ctlenvamt="0" lspd="0.1" rel="0.1" pdel="0" lspd_syncmode="0" att="0" sustain="0.5" userwavefile="" latt="0" lspd_numerator="4" lpdel="0" x100="0"/>
                  <elres lspd_denominator="4" lamt="0" amt="0" dec="0.5" hold="0.5" lshp="0" ctlenvamt="0" lspd="0.1" rel="0.1" pdel="0" lspd_syncmode="0" att="0" sustain="0.5" userwavefile="" latt="0" lspd_numerator="4" lpdel="0" x100="0"/>
                </eldata>
                <chordcreator chordrange="1" chord-enabled="0" chord="0"/>
                <arpeggiator arptime_syncmode="0" arptime="200" arptime_denominator="4" arpdir="0" arp="0" arpmode="0" arpcycle="0" arpmiss="0" arptime_numerator="4" arprange="1" arp-enabled="0" arpskip="0" arpgate="100"/>
                <midiport inputcontroller="0" outputchannel="1" outputprogram="1" readable="0" outputcontroller="0" fixedoutputvelocity="-1" fixedoutputnote="-1" fixedinputvelocity="-1" writable="0" inputchannel="0" basevelocity="63"/>
                <fxchain enabled="0" numofeffects="0"/>
              </instrumenttrack>
              <pattern pos="0" muted="0" steps="64" type="0" name="kick.wav">
                <note len="-192" pos="0" pan="0" vol="100" key="57"/>
                <note len="-192" pos="192" pan="0" vol="100" key="57"/>
                <note len="-192" pos="384" pan="0" vol="100" key="57"/>
                <note len="-192" pos="720" pan="0" vol="100" key="57"/>
                <note len="-192" pos="732" pan="0" vol="100" key="57"/>
                <note len="-192" pos="744" pan="0" vol="100" key="57"/>
                <note len="-192" pos="756" pan="0" vol="100" key="57"/>
              </pattern>
              <pattern pos="192" muted="0" steps="32" type="0" name="kick.wav">
                <note len="-192" pos="0" pan="0" vol="100" key="57"/>
                <note len="-192" pos="72" pan="0" vol="100" key="57"/>
                <note len="-192" pos="96" pan="0" vol="100" key="57"/>
                <note len="-192" pos="144" pan="0" vol="100" key="57"/>
                <note len="-192" pos="192" pan="0" vol="100" key="57"/>
                <note len="-192" pos="264" pan="0" vol="100" key="57"/>
                <note len="-192" pos="288" pan="0" vol="100" key="57"/>
                <note len="-192" pos="336" pan="0" vol="100" key="57"/>
              </pattern>
              <pattern pos="384" muted="0" steps="64" type="0" name="kick.wav">
                <note len="-192" pos="0" pan="0" vol="100" key="57"/>
                <note len="-192" pos="12" pan="0" vol="100" key="57"/>
                <note len="-192" pos="24" pan="0" vol="100" key="57"/>
                <note len="-192" pos="36" pan="0" vol="100" key="57"/>
                <note len="-192" pos="48" pan="0" vol="100" key="57"/>
                <note len="-192" pos="60" pan="0" vol="100" key="57"/>
                <note len="-192" pos="72" pan="0" vol="100" key="57"/>
                <note len="-192" pos="84" pan="0" vol="100" key="57"/>
                <note len="-192" pos="96" pan="0" vol="100" key="57"/>
                <note len="-192" pos="108" pan="0" vol="100" key="57"/>
                <note len="-192" pos="120" pan="0" vol="100" key="57"/>
                <note len="-192" pos="132" pan="0" vol="100" key="57"/>
                <note len="-192" pos="144" pan="0" vol="100" key="57"/>
                <note len="-192" pos="156" pan="0" vol="100" key="57"/>
                <note len="-192" pos="168" pan="0" vol="100" key="57"/>
                <note len="-192" pos="180" pan="0" vol="100" key="57"/>
                <note len="-192" pos="192" pan="0" vol="100" key="57"/>
                <note len="-192" pos="204" pan="0" vol="100" key="57"/>
                <note len="-192" pos="216" pan="0" vol="100" key="57"/>
                <note len="-192" pos="228" pan="0" vol="100" key="57"/>
                <note len="-192" pos="240" pan="0" vol="100" key="57"/>
                <note len="-192" pos="252" pan="0" vol="100" key="57"/>
                <note len="-192" pos="264" pan="0" vol="100" key="57"/>
                <note len="-192" pos="276" pan="0" vol="100" key="57"/>
                <note len="-192" pos="288" pan="0" vol="100" key="57"/>
                <note len="-192" pos="300" pan="0" vol="100" key="57"/>
                <note len="-192" pos="312" pan="0" vol="100" key="57"/>
                <note len="-192" pos="324" pan="0" vol="100" key="57"/>
                <note len="-192" pos="336" pan="0" vol="100" key="57"/>
                <note len="-192" pos="348" pan="0" vol="100" key="57"/>
                <note len="-192" pos="360" pan="0" vol="100" key="57"/>
                <note len="-192" pos="372" pan="0" vol="100" key="57"/>
                <note len="-192" pos="384" pan="0" vol="100" key="57"/>
                <note len="-192" pos="396" pan="0" vol="100" key="57"/>
                <note len="-192" pos="408" pan="0" vol="100" key="57"/>
                <note len="-192" pos="420" pan="0" vol="100" key="57"/>
                <note len="-192" pos="432" pan="0" vol="100" key="57"/>
                <note len="-192" pos="444" pan="0" vol="100" key="57"/>
                <note len="-192" pos="456" pan="0" vol="100" key="57"/>
                <note len="-192" pos="468" pan="0" vol="100" key="57"/>
                <note len="-192" pos="480" pan="0" vol="100" key="57"/>
                <note len="-192" pos="492" pan="0" vol="100" key="57"/>
                <note len="-192" pos="504" pan="0" vol="100" key="57"/>
                <note len="-192" pos="516" pan="0" vol="100" key="57"/>
                <note len="-192" pos="528" pan="0" vol="100" key="57"/>
                <note len="-192" pos="540" pan="0" vol="100" key="57"/>
                <note len="-192" pos="552" pan="0" vol="100" key="57"/>
                <note len="-192" pos="564" pan="0" vol="100" key="57"/>
                <note len="-192" pos="576" pan="0" vol="100" key="57"/>
                <note len="-192" pos="588" pan="0" vol="100" key="57"/>
                <note len="-192" pos="600" pan="0" vol="100" key="57"/>
                <note len="-192" pos="612" pan="0" vol="100" key="57"/>
                <note len="-192" pos="624" pan="0" vol="100" key="57"/>
                <note len="-192" pos="636" pan="0" vol="100" key="57"/>
                <note len="-192" pos="648" pan="0" vol="100" key="57"/>
                <note len="-192" pos="660" pan="0" vol="100" key="57"/>
                <note len="-192" pos="672" pan="0" vol="100" key="57"/>
                <note len="-192" pos="684" pan="0" vol="100" key="57"/>
                <note len="-192" pos="696" pan="0" vol="100" key="57"/>
                <note len="-192" pos="708" pan="0" vol="100" key="57"/>
                <note len="-192" pos="720" pan="0" vol="100" key="57"/>
                <note len="-192" pos="732" pan="0" vol="100" key="57"/>
                <note len="-192" pos="744" pan="0" vol="100" key="57"/>
                <note len="-192" pos="756" pan="0" vol="100" key="57"/>
              </pattern>
              <pattern pos="576" muted="0" steps="64" type="0" name="kick.wav">
                <note len="-192" pos="0" pan="0" vol="100" key="57"/>
                <note len="-192" pos="12" pan="0" vol="100" key="57"/>
                <note len="-192" pos="24" pan="0" vol="100" key="57"/>
                <note len="-192" pos="36" pan="0" vol="100" key="57"/>
                <note len="-192" pos="48" pan="0" vol="100" key="57"/>
                <note len="-192" pos="60" pan="0" vol="100" key="57"/>
                <note len="-192" pos="72" pan="0" vol="100" key="57"/>
                <note len="-192" pos="84" pan="0" vol="100" key="57"/>
                <note len="-192" pos="96" pan="0" vol="100" key="57"/>
                <note len="-192" pos="108" pan="0" vol="100" key="57"/>
                <note len="-192" pos="120" pan="0" vol="100" key="57"/>
                <note len="-192" pos="132" pan="0" vol="100" key="57"/>
                <note len="-192" pos="144" pan="0" vol="100" key="57"/>
                <note len="-192" pos="156" pan="0" vol="100" key="57"/>
                <note len="-192" pos="168" pan="0" vol="100" key="57"/>
                <note len="-192" pos="180" pan="0" vol="100" key="57"/>
                <note len="-192" pos="192" pan="0" vol="100" key="57"/>
                <note len="-192" pos="204" pan="0" vol="100" key="57"/>
                <note len="-192" pos="216" pan="0" vol="100" key="57"/>
                <note len="-192" pos="228" pan="0" vol="100" key="57"/>
                <note len="-192" pos="240" pan="0" vol="100" key="57"/>
                <note len="-192" pos="252" pan="0" vol="100" key="57"/>
                <note len="-192" pos="264" pan="0" vol="100" key="57"/>
                <note len="-192" pos="276" pan="0" vol="100" key="57"/>
                <note len="-192" pos="288" pan="0" vol="100" key="57"/>
                <note len="-192" pos="300" pan="0" vol="100" key="57"/>
                <note len="-192" pos="312" pan="0" vol="100" key="57"/>
                <note len="-192" pos="324" pan="0" vol="100" key="57"/>
                <note len="-192" pos="336" pan="0" vol="100" key="57"/>
                <note len="-192" pos="348" pan="0" vol="100" key="57"/>
                <note len="-192" pos="360" pan="0" vol="100" key="57"/>
                <note len="-192" pos="372" pan="0" vol="100" key="57"/>
                <note len="-192" pos="384" pan="0" vol="100" key="57"/>
                <note len="-192" pos="396" pan="0" vol="100" key="57"/>
                <note len="-192" pos="408" pan="0" vol="100" key="57"/>
                <note len="-192" pos="420" pan="0" vol="100" key="57"/>
                <note len="-192" pos="432" pan="0" vol="100" key="57"/>
                <note len="-192" pos="444" pan="0" vol="100" key="57"/>
                <note len="-192" pos="456" pan="0" vol="100" key="57"/>
                <note len="-192" pos="468" pan="0" vol="100" key="57"/>
                <note len="-192" pos="480" pan="0" vol="100" key="57"/>
                <note len="-192" pos="492" pan="0" vol="100" key="57"/>
                <note len="-192" pos="504" pan="0" vol="100" key="57"/>
                <note len="-192" pos="516" pan="0" vol="100" key="57"/>
                <note len="-192" pos="528" pan="0" vol="100" key="57"/>
                <note len="-192" pos="540" pan="0" vol="100" key="57"/>
                <note len="-192" pos="552" pan="0" vol="100" key="57"/>
                <note len="-192" pos="564" pan="0" vol="100" key="57"/>
                <note len="-192" pos="576" pan="0" vol="100" key="57"/>
                <note len="-192" pos="588" pan="0" vol="100" key="57"/>
                <note len="-192" pos="600" pan="0" vol="100" key="57"/>
                <note len="-192" pos="612" pan="0" vol="100" key="57"/>
                <note len="-192" pos="624" pan="0" vol="100" key="57"/>
                <note len="-192" pos="636" pan="0" vol="100" key="57"/>
                <note len="-192" pos="648" pan="0" vol="100" key="57"/>
                <note len="-192" pos="660" pan="0" vol="100" key="57"/>
                <note len="-192" pos="672" pan="0" vol="100" key="57"/>
                <note len="-192" pos="684" pan="0" vol="100" key="57"/>
                <note len="-192" pos="696" pan="0" vol="100" key="57"/>
                <note len="-192" pos="708" pan="0" vol="100" key="57"/>
                <note len="-192" pos="720" pan="0" vol="100" key="57"/>
                <note len="-192" pos="732" pan="0" vol="100" key="57"/>
                <note len="-192" pos="744" pan="0" vol="100" key="57"/>
                <note len="-192" pos="756" pan="0" vol="100" key="57"/>
              </pattern>
              <pattern pos="768" muted="0" steps="64" type="0" name="kick.wav">
                <note len="-192" pos="0" pan="0" vol="100" key="57"/>
                <note len="-192" pos="12" pan="0" vol="100" key="57"/>
                <note len="-192" pos="24" pan="0" vol="100" key="57"/>
                <note len="-192" pos="36" pan="0" vol="100" key="57"/>
                <note len="-192" pos="48" pan="0" vol="100" key="57"/>
                <note len="-192" pos="60" pan="0" vol="100" key="57"/>
                <note len="-192" pos="72" pan="0" vol="100" key="57"/>
                <note len="-192" pos="84" pan="0" vol="100" key="57"/>
                <note len="-192" pos="96" pan="0" vol="100" key="57"/>
                <note len="-192" pos="108" pan="0" vol="100" key="57"/>
                <note len="-192" pos="120" pan="0" vol="100" key="57"/>
                <note len="-192" pos="132" pan="0" vol="100" key="57"/>
                <note len="-192" pos="144" pan="0" vol="100" key="57"/>
                <note len="-192" pos="156" pan="0" vol="100" key="57"/>
                <note len="-192" pos="168" pan="0" vol="100" key="57"/>
                <note len="-192" pos="180" pan="0" vol="100" key="57"/>
                <note len="-192" pos="192" pan="0" vol="100" key="57"/>
                <note len="-192" pos="204" pan="0" vol="100" key="57"/>
                <note len="-192" pos="216" pan="0" vol="100" key="57"/>
                <note len="-192" pos="228" pan="0" vol="100" key="57"/>
                <note len="-192" pos="240" pan="0" vol="100" key="57"/>
                <note len="-192" pos="252" pan="0" vol="100" key="57"/>
                <note len="-192" pos="264" pan="0" vol="100" key="57"/>
                <note len="-192" pos="276" pan="0" vol="100" key="57"/>
                <note len="-192" pos="288" pan="0" vol="100" key="57"/>
                <note len="-192" pos="300" pan="0" vol="100" key="57"/>
                <note len="-192" pos="312" pan="0" vol="100" key="57"/>
                <note len="-192" pos="324" pan="0" vol="100" key="57"/>
                <note len="-192" pos="336" pan="0" vol="100" key="57"/>
                <note len="-192" pos="348" pan="0" vol="100" key="57"/>
                <note len="-192" pos="360" pan="0" vol="100" key="57"/>
                <note len="-192" pos="372" pan="0" vol="100" key="57"/>
                <note len="-192" pos="384" pan="0" vol="100" key="57"/>
                <note len="-192" pos="396" pan="0" vol="100" key="57"/>
                <note len="-192" pos="408" pan="0" vol="100" key="57"/>
                <note len="-192" pos="420" pan="0" vol="100" key="57"/>
                <note len="-192" pos="432" pan="0" vol="100" key="57"/>
                <note len="-192" pos="444" pan="0" vol="100" key="57"/>
                <note len="-192" pos="456" pan="0" vol="100" key="57"/>
                <note len="-192" pos="468" pan="0" vol="100" key="57"/>
                <note len="-192" pos="480" pan="0" vol="100" key="57"/>
                <note len="-192" pos="492" pan="0" vol="100" key="57"/>
                <note len="-192" pos="504" pan="0" vol="100" key="57"/>
                <note len="-192" pos="516" pan="0" vol="100" key="57"/>
                <note len="-192" pos="528" pan="0" vol="100" key="57"/>
                <note len="-192" pos="540" pan="0" vol="100" key="57"/>
                <note len="-192" pos="552" pan="0" vol="100" key="57"/>
                <note len="-192" pos="564" pan="0" vol="100" key="57"/>
                <note len="-192" pos="576" pan="0" vol="100" key="57"/>
                <note len="-192" pos="588" pan="0" vol="100" key="57"/>
                <note len="-192" pos="600" pan="0" vol="100" key="57"/>
                <note len="-192" pos="612" pan="0" vol="100" key="57"/>
                <note len="-192" pos="624" pan="0" vol="100" key="57"/>
                <note len="-192" pos="636" pan="0" vol="100" key="57"/>
                <note len="-192" pos="648" pan="0" vol="100" key="57"/>
                <note len="-192" pos="660" pan="0" vol="100" key="57"/>
                <note len="-192" pos="672" pan="0" vol="100" key="57"/>
                <note len="-192" pos="684" pan="0" vol="100" key="57"/>
                <note len="-192" pos="696" pan="0" vol="100" key="57"/>
                <note len="-192" pos="708" pan="0" vol="100" key="57"/>
                <note len="-192" pos="720" pan="0" vol="100" key="57"/>
                <note len="-192" pos="732" pan="0" vol="100" key="57"/>
                <note len="-192" pos="744" pan="0" vol="100" key="57"/>
                <note len="-192" pos="756" pan="0" vol="100" key="57"/>
              </pattern>
              <pattern pos="960" muted="0" steps="32" type="0" name="kick.wav">
                <note len="-192" pos="0" pan="0" vol="100" key="57"/>
                <note len="-192" pos="12" pan="0" vol="100" key="57"/>
                <note len="-192" pos="24" pan="0" vol="100" key="57"/>
                <note len="-192" pos="36" pan="0" vol="100" key="57"/>
                <note len="-192" pos="48" pan="0" vol="100" key="57"/>
                <note len="-192" pos="60" pan="0" vol="100" key="57"/>
                <note len="-192" pos="72" pan="0" vol="100" key="57"/>
                <note len="-192" pos="84" pan="0" vol="100" key="57"/>
                <note len="-192" pos="96" pan="0" vol="100" key="57"/>
                <note len="-192" pos="108" pan="0" vol="100" key="57"/>
                <note len="-192" pos="120" pan="0" vol="100" key="57"/>
                <note len="-192" pos="132" pan="0" vol="100" key="57"/>
                <note len="-192" pos="144" pan="0" vol="100" key="57"/>
                <note len="-192" pos="156" pan="0" vol="100" key="57"/>
                <note len="-192" pos="168" pan="0" vol="100" key="57"/>
                <note len="-192" pos="180" pan="0" vol="100" key="57"/>
                <note len="-192" pos="192" pan="0" vol="100" key="57"/>
                <note len="-192" pos="204" pan="0" vol="100" key="57"/>
                <note len="-192" pos="216" pan="0" vol="100" key="57"/>
                <note len="-192" pos="228" pan="0" vol="100" key="57"/>
                <note len="-192" pos="240" pan="0" vol="100" key="57"/>
                <note len="-192" pos="252" pan="0" vol="100" key="57"/>
                <note len="-192" pos="264" pan="0" vol="100" key="57"/>
                <note len="-192" pos="276" pan="0" vol="100" key="57"/>
                <note len="-192" pos="288" pan="0" vol="100" key="57"/>
                <note len="-192" pos="300" pan="0" vol="100" key="57"/>
                <note len="-192" pos="312" pan="0" vol="100" key="57"/>
                <note len="-192" pos="324" pan="0" vol="100" key="57"/>
                <note len="-192" pos="336" pan="0" vol="100" key="57"/>
                <note len="-192" pos="348" pan="0" vol="100" key="57"/>
                <note len="-192" pos="360" pan="0" vol="100" key="57"/>
                <note len="-192" pos="372" pan="0" vol="100" key="57"/>
              </pattern>
              <pattern pos="1152" muted="0" steps="64" type="0" name="kick.wav">
                <note len="-192" pos="0" pan="0" vol="100" key="57"/>
                <note len="-192" pos="48" pan="0" vol="100" key="57"/>
                <note len="-192" pos="60" pan="0" vol="100" key="57"/>
                <note len="-192" pos="96" pan="0" vol="100" key="57"/>
                <note len="-192" pos="108" pan="0" vol="100" key="57"/>
                <note len="-192" pos="144" pan="0" vol="100" key="57"/>
                <note len="-192" pos="156" pan="0" vol="100" key="57"/>
                <note len="-192" pos="168" pan="0" vol="100" key="57"/>
                <note len="-192" pos="180" pan="0" vol="100" key="57"/>
                <note len="-192" pos="192" pan="0" vol="100" key="57"/>
                <note len="-192" pos="240" pan="0" vol="100" key="57"/>
                <note len="-192" pos="252" pan="0" vol="100" key="57"/>
                <note len="-192" pos="288" pan="0" vol="100" key="57"/>
                <note len="-192" pos="300" pan="0" vol="100" key="57"/>
                <note len="-192" pos="336" pan="0" vol="100" key="57"/>
                <note len="-192" pos="348" pan="0" vol="100" key="57"/>
                <note len="-192" pos="360" pan="0" vol="100" key="57"/>
                <note len="-192" pos="372" pan="0" vol="100" key="57"/>
                <note len="-192" pos="384" pan="0" vol="100" key="57"/>
                <note len="-192" pos="396" pan="0" vol="100" key="57"/>
                <note len="-192" pos="408" pan="0" vol="100" key="57"/>
                <note len="-192" pos="420" pan="0" vol="100" key="57"/>
                <note len="-192" pos="432" pan="0" vol="100" key="57"/>
                <note len="-192" pos="444" pan="0" vol="100" key="57"/>
                <note len="-192" pos="456" pan="0" vol="100" key="57"/>
                <note len="-192" pos="468" pan="0" vol="100" key="57"/>
                <note len="-192" pos="480" pan="0" vol="100" key="57"/>
                <note len="-192" pos="492" pan="0" vol="100" key="57"/>
                <note len="-192" pos="504" pan="0" vol="100" key="57"/>
                <note len="-192" pos="516" pan="0" vol="100" key="57"/>
                <note len="-192" pos="528" pan="0" vol="100" key="57"/>
                <note len="-192" pos="540" pan="0" vol="100" key="57"/>
                <note len="-192" pos="552" pan="0" vol="100" key="57"/>
                <note len="-192" pos="564" pan="0" vol="100" key="57"/>
                <note len="-192" pos="576" pan="0" vol="100" key="57"/>
                <note len="-192" pos="588" pan="0" vol="100" key="57"/>
                <note len="-192" pos="600" pan="0" vol="100" key="57"/>
                <note len="-192" pos="612" pan="0" vol="100" key="57"/>
                <note len="-192" pos="624" pan="0" vol="100" key="57"/>
                <note len="-192" pos="636" pan="0" vol="100" key="57"/>
                <note len="-192" pos="648" pan="0" vol="100" key="57"/>
                <note len="-192" pos="660" pan="0" vol="100" key="57"/>
                <note len="-192" pos="672" pan="0" vol="100" key="57"/>
                <note len="-192" pos="684" pan="0" vol="100" key="57"/>
                <note len="-192" pos="696" pan="0" vol="100" key="57"/>
                <note len="-192" pos="708" pan="0" vol="100" key="57"/>
                <note len="-192" pos="720" pan="0" vol="100" key="57"/>
                <note len="-192" pos="732" pan="0" vol="100" key="57"/>
                <note len="-192" pos="744" pan="0" vol="100" key="57"/>
                <note len="-192" pos="756" pan="0" vol="100" key="57"/>
              </pattern>
              <pattern pos="1344" muted="0" steps="32" type="0" name="kick.wav">
                <note len="-192" pos="0" pan="0" vol="100" key="57"/>
                <note len="-192" pos="48" pan="0" vol="100" key="57"/>
                <note len="-192" pos="60" pan="0" vol="100" key="57"/>
                <note len="-192" pos="96" pan="0" vol="100" key="57"/>
                <note len="-192" pos="108" pan="0" vol="100" key="57"/>
                <note len="-192" pos="144" pan="0" vol="100" key="57"/>
                <note len="-192" pos="156" pan="0" vol="100" key="57"/>
                <note len="-192" pos="168" pan="0" vol="100" key="57"/>
                <note len="-192" pos="180" pan="0" vol="100" key="57"/>
                <note len="-192" pos="192" pan="0" vol="100" key="57"/>
                <note len="-192" pos="240" pan="0" vol="100" key="57"/>
                <note len="-192" pos="252" pan="0" vol="100" key="57"/>
                <note len="-192" pos="288" pan="0" vol="100" key="57"/>
                <note len="-192" pos="300" pan="0" vol="100" key="57"/>
                <note len="-192" pos="336" pan="0" vol="100" key="57"/>
                <note len="-192" pos="348" pan="0" vol="100" key="57"/>
                <note len="-192" pos="360" pan="0" vol="100" key="57"/>
                <note len="-192" pos="372" pan="0" vol="100" key="57"/>
              </pattern>
              <pattern pos="1536" muted="0" steps="32" type="0" name="kick.wav">
                <note len="-192" pos="0" pan="0" vol="100" key="57"/>
                <note len="-192" pos="12" pan="0" vol="100" key="57"/>
                <note len="-192" pos="24" pan="0" vol="100" key="57"/>
                <note len="-192" pos="36" pan="0" vol="100" key="57"/>
                <note len="-192" pos="48" pan="0" vol="100" key="57"/>
                <note len="-192" pos="60" pan="0" vol="100" key="57"/>
                <note len="-192" pos="72" pan="0" vol="100" key="57"/>
                <note len="-192" pos="84" pan="0" vol="100" key="57"/>
                <note len="-192" pos="96" pan="0" vol="100" key="57"/>
                <note len="-192" pos="108" pan="0" vol="100" key="57"/>
                <note len="-192" pos="120" pan="0" vol="100" key="57"/>
                <note len="-192" pos="132" pan="0" vol="100" key="57"/>
                <note len="-192" pos="144" pan="0" vol="100" key="57"/>
                <note len="-192" pos="156" pan="0" vol="100" key="57"/>
                <note len="-192" pos="168" pan="0" vol="100" key="57"/>
                <note len="-192" pos="180" pan="0" vol="100" key="57"/>
                <note len="-192" pos="192" pan="0" vol="100" key="57"/>
                <note len="-192" pos="204" pan="0" vol="100" key="57"/>
                <note len="-192" pos="216" pan="0" vol="100" key="57"/>
                <note len="-192" pos="228" pan="0" vol="100" key="57"/>
                <note len="-192" pos="240" pan="0" vol="100" key="57"/>
                <note len="-192" pos="252" pan="0" vol="100" key="57"/>
                <note len="-192" pos="264" pan="0" vol="100" key="57"/>
                <note len="-192" pos="276" pan="0" vol="100" key="57"/>
                <note len="-192" pos="288" pan="0" vol="100" key="57"/>
                <note len="-192" pos="300" pan="0" vol="100" key="57"/>
                <note len="-192" pos="312" pan="0" vol="100" key="57"/>
                <note len="-192" pos="324" pan="0" vol="100" key="57"/>
                <note len="-192" pos="336" pan="0" vol="100" key="57"/>
                <note len="-192" pos="348" pan="0" vol="100" key="57"/>
                <note len="-192" pos="360" pan="0" vol="100" key="57"/>
                <note len="-192" pos="372" pan="0" vol="100" key="57"/>
              </pattern>
              <pattern pos="1728" muted="0" steps="16" type="0" name="kick.wav">
                <note len="-192" pos="0" pan="0" vol="100" key="57"/>
                <note len="-192" pos="12" pan="0" vol="100" key="57"/>
                <note len="-192" pos="24" pan="0" vol="100" key="57"/>
                <note len="-192" pos="36" pan="0" vol="100" key="57"/>
                <note len="-192" pos="48" pan="0" vol="100" key="57"/>
                <note len="-192" pos="60" pan="0" vol="100" key="57"/>
                <note len="-192" pos="72" pan="0" vol="100" key="57"/>
                <note len="-192" pos="84" pan="0" vol="100" key="57"/>
                <note len="-192" pos="96" pan="0" vol="100" key="57"/>
                <note len="-192" pos="108" pan="0" vol="100" key="57"/>
                <note len="-192" pos="120" pan="0" vol="100" key="57"/>
                <note len="-192" pos="132" pan="0" vol="100" key="57"/>
                <note len="-192" pos="144" pan="0" vol="100" key="57"/>
                <note len="-192" pos="156" pan="0" vol="100" key="57"/>
                <note len="-192" pos="168" pan="0" vol="100" key="57"/>
                <note len="-192" pos="180" pan="0" vol="100" key="57"/>
              </pattern>
              <pattern pos="1920" muted="0" steps="64" type="0" name="kick.wav">
                <note len="-192" pos="0" pan="0" vol="100" key="57"/>
                <note len="-192" pos="48" pan="0" vol="100" key="57"/>
                <note len="-192" pos="96" pan="0" vol="100" key="57"/>
                <note len="-192" pos="144" pan="0" vol="100" key="57"/>
                <note len="-192" pos="156" pan="0" vol="100" key="57"/>
                <note len="-192" pos="168" pan="0" vol="100" key="57"/>
                <note len="-192" pos="180" pan="0" vol="100" key="57"/>
                <note len="-192" pos="192" pan="0" vol="100" key="57"/>
                <note len="-192" pos="240" pan="0" vol="100" key="57"/>
                <note len="-192" pos="288" pan="0" vol="100" key="57"/>
                <note len="-192" pos="336" pan="0" vol="100" key="57"/>
                <note len="-192" pos="348" pan="0" vol="100" key="57"/>
                <note len="-192" pos="360" pan="0" vol="100" key="57"/>
                <note len="-192" pos="372" pan="0" vol="100" key="57"/>
                <note len="-192" pos="384" pan="0" vol="100" key="57"/>
                <note len="-192" pos="432" pan="0" vol="100" key="57"/>
                <note len="-192" pos="480" pan="0" vol="100" key="57"/>
                <note len="-192" pos="528" pan="0" vol="100" key="57"/>
                <note len="-192" pos="540" pan="0" vol="100" key="57"/>
                <note len="-192" pos="552" pan="0" vol="100" key="57"/>
                <note len="-192" pos="564" pan="0" vol="100" key="57"/>
                <note len="-192" pos="576" pan="0" vol="100" key="57"/>
                <note len="-192" pos="624" pan="0" vol="100" key="57"/>
                <note len="-192" pos="672" pan="0" vol="100" key="57"/>
                <note len="-192" pos="720" pan="0" vol="100" key="57"/>
                <note len="-192" pos="732" pan="0" vol="100" key="57"/>
                <note len="-192" pos="744" pan="0" vol="100" key="57"/>
                <note len="-192" pos="756" pan="0" vol="100" key="57"/>
              </pattern>
              <pattern pos="2112" muted="0" steps="64" type="0" name="kick.wav">
                <note len="-192" pos="0" pan="0" vol="100" key="57"/>
                <note len="-192" pos="48" pan="0" vol="100" key="57"/>
                <note len="-192" pos="96" pan="0" vol="100" key="57"/>
                <note len="-192" pos="144" pan="0" vol="100" key="57"/>
                <note len="-192" pos="156" pan="0" vol="100" key="57"/>
                <note len="-192" pos="168" pan="0" vol="100" key="57"/>
                <note len="-192" pos="180" pan="0" vol="100" key="57"/>
                <note len="-192" pos="192" pan="0" vol="100" key="57"/>
                <note len="-192" pos="240" pan="0" vol="100" key="57"/>
                <note len="-192" pos="288" pan="0" vol="100" key="57"/>
                <note len="-192" pos="336" pan="0" vol="100" key="57"/>
                <note len="-192" pos="348" pan="0" vol="100" key="57"/>
                <note len="-192" pos="360" pan="0" vol="100" key="57"/>
                <note len="-192" pos="372" pan="0" vol="100" key="57"/>
                <note len="-192" pos="384" pan="0" vol="100" key="57"/>
                <note len="-192" pos="432" pan="0" vol="100" key="57"/>
                <note len="-192" pos="480" pan="0" vol="100" key="57"/>
                <note len="-192" pos="528" pan="0" vol="100" key="57"/>
                <note len="-192" pos="540" pan="0" vol="100" key="57"/>
                <note len="-192" pos="552" pan="0" vol="100" key="57"/>
                <note len="-192" pos="564" pan="0" vol="100" key="57"/>
                <note len="-192" pos="576" pan="0" vol="100" key="57"/>
                <note len="-192" pos="624" pan="0" vol="100" key="57"/>
                <note len="-192" pos="672" pan="0" vol="100" key="57"/>
                <note len="-192" pos="720" pan="0" vol="100" key="57"/>
                <note len="-192" pos="732" pan="0" vol="100" key="57"/>
                <note len="-192" pos="744" pan="0" vol="100" key="57"/>
                <note len="-192" pos="756" pan="0" vol="100" key="57"/>
              </pattern>
              <pattern pos="2304" muted="0" steps="16" type="0" name="kick.wav">
                <note len="-192" pos="0" pan="0" vol="100" key="57"/>
              </pattern>
              <pattern pos="2496" muted="0" steps="32" type="0" name="kick.wav">
                <note len="-192" pos="0" pan="0" vol="100" key="57"/>
                <note len="-192" pos="48" pan="0" vol="100" key="57"/>
                <note len="-192" pos="60" pan="0" vol="100" key="57"/>
                <note len="-192" pos="72" pan="0" vol="100" key="57"/>
                <note len="-192" pos="96" pan="0" vol="100" key="57"/>
                <note len="-192" pos="108" pan="0" vol="100" key="57"/>
                <note len="-192" pos="120" pan="0" vol="100" key="57"/>
                <note len="-192" pos="144" pan="0" vol="100" key="57"/>
                <note len="-192" pos="156" pan="0" vol="100" key="57"/>
                <note len="-192" pos="168" pan="0" vol="100" key="57"/>
                <note len="-192" pos="192" pan="0" vol="100" key="57"/>
                <note len="-192" pos="240" pan="0" vol="100" key="57"/>
                <note len="-192" pos="252" pan="0" vol="100" key="57"/>
                <note len="-192" pos="264" pan="0" vol="100" key="57"/>
                <note len="-192" pos="276" pan="0" vol="100" key="57"/>
                <note len="-192" pos="288" pan="0" vol="100" key="57"/>
                <note len="-192" pos="300" pan="0" vol="100" key="57"/>
                <note len="-192" pos="312" pan="0" vol="100" key="57"/>
                <note len="-192" pos="324" pan="0" vol="100" key="57"/>
                <note len="-192" pos="336" pan="0" vol="100" key="57"/>
                <note len="-192" pos="348" pan="0" vol="100" key="57"/>
                <note len="-192" pos="360" pan="0" vol="100" key="57"/>
                <note len="-192" pos="372" pan="0" vol="100" key="57"/>
              </pattern>
              <pattern pos="2688" muted="0" steps="32" type="0" name="kick.wav">
                <note len="-192" pos="0" pan="0" vol="100" key="57"/>
                <note len="-192" pos="12" pan="0" vol="100" key="57"/>
                <note len="-192" pos="24" pan="0" vol="100" key="57"/>
                <note len="-192" pos="36" pan="0" vol="100" key="57"/>
                <note len="-192" pos="48" pan="0" vol="100" key="57"/>
                <note len="-192" pos="60" pan="0" vol="100" key="57"/>
                <note len="-192" pos="72" pan="0" vol="100" key="57"/>
                <note len="-192" pos="84" pan="0" vol="100" key="57"/>
                <note len="-192" pos="96" pan="0" vol="100" key="57"/>
                <note len="-192" pos="108" pan="0" vol="100" key="57"/>
                <note len="-192" pos="120" pan="0" vol="100" key="57"/>
                <note len="-192" pos="132" pan="0" vol="100" key="57"/>
                <note len="-192" pos="144" pan="0" vol="100" key="57"/>
                <note len="-192" pos="156" pan="0" vol="100" key="57"/>
                <note len="-192" pos="168" pan="0" vol="100" key="57"/>
                <note len="-192" pos="180" pan="0" vol="100" key="57"/>
                <note len="-192" pos="192" pan="0" vol="100" key="57"/>
                <note len="-192" pos="204" pan="0" vol="100" key="57"/>
                <note len="-192" pos="216" pan="0" vol="100" key="57"/>
                <note len="-192" pos="228" pan="0" vol="100" key="57"/>
                <note len="-192" pos="240" pan="0" vol="100" key="57"/>
                <note len="-192" pos="252" pan="0" vol="100" key="57"/>
                <note len="-192" pos="264" pan="0" vol="100" key="57"/>
                <note len="-192" pos="276" pan="0" vol="100" key="57"/>
                <note len="-192" pos="288" pan="0" vol="100" key="57"/>
                <note len="-192" pos="300" pan="0" vol="100" key="57"/>
                <note len="-192" pos="312" pan="0" vol="100" key="57"/>
                <note len="-192" pos="324" pan="0" vol="100" key="57"/>
                <note len="-192" pos="336" pan="0" vol="100" key="57"/>
                <note len="-192" pos="348" pan="0" vol="100" key="57"/>
                <note len="-192" pos="360" pan="0" vol="100" key="57"/>
                <note len="-192" pos="372" pan="0" vol="100" key="57"/>
              </pattern>
              <pattern pos="2880" muted="0" steps="16" type="0" name="kick.wav">
                <note len="-192" pos="0" pan="0" vol="100" key="57"/>
                <note len="-192" pos="12" pan="0" vol="100" key="57"/>
                <note len="-192" pos="24" pan="0" vol="100" key="57"/>
                <note len="-192" pos="72" pan="0" vol="100" key="57"/>
                <note len="-192" pos="84" pan="0" vol="100" key="57"/>
                <note len="-192" pos="96" pan="0" vol="100" key="57"/>
                <note len="-192" pos="144" pan="0" vol="100" key="57"/>
                <note len="-192" pos="168" pan="0" vol="100" key="57"/>
              </pattern>
              <pattern pos="3072" muted="0" steps="96" type="0" name="kick.wav">
                <note len="-192" pos="0" pan="0" vol="100" key="57"/>
                <note len="-192" pos="48" pan="0" vol="100" key="57"/>
                <note len="-192" pos="96" pan="0" vol="100" key="57"/>
                <note len="-192" pos="144" pan="0" vol="100" key="57"/>
                <note len="-192" pos="168" pan="0" vol="100" key="57"/>
                <note len="-192" pos="192" pan="0" vol="100" key="57"/>
                <note len="-192" pos="240" pan="0" vol="100" key="57"/>
                <note len="-192" pos="288" pan="0" vol="100" key="57"/>
                <note len="-192" pos="336" pan="0" vol="100" key="57"/>
                <note len="-192" pos="360" pan="0" vol="100" key="57"/>
                <note len="-192" pos="384" pan="0" vol="100" key="57"/>
                <note len="-192" pos="432" pan="0" vol="100" key="57"/>
                <note len="-192" pos="480" pan="0" vol="100" key="57"/>
                <note len="-192" pos="528" pan="0" vol="100" key="57"/>
                <note len="-192" pos="552" pan="0" vol="100" key="57"/>
                <note len="-192" pos="576" pan="0" vol="100" key="57"/>
                <note len="-192" pos="624" pan="0" vol="100" key="57"/>
                <note len="-192" pos="672" pan="0" vol="100" key="57"/>
                <note len="-192" pos="720" pan="0" vol="100" key="57"/>
                <note len="-192" pos="744" pan="0" vol="100" key="57"/>
                <note len="-192" pos="768" pan="0" vol="100" key="57"/>
                <note len="-192" pos="792" pan="0" vol="100" key="57"/>
                <note len="-192" pos="816" pan="0" vol="100" key="57"/>
                <note len="-192" pos="840" pan="0" vol="100" key="57"/>
                <note len="-192" pos="864" pan="0" vol="100" key="57"/>
                <note len="-192" pos="888" pan="0" vol="100" key="57"/>
                <note len="-192" pos="912" pan="0" vol="100" key="57"/>
                <note len="-192" pos="924" pan="0" vol="100" key="57"/>
                <note len="-192" pos="936" pan="0" vol="100" key="57"/>
                <note len="-192" pos="948" pan="0" vol="100" key="57"/>
                <note len="-192" pos="960" pan="0" vol="100" key="57"/>
                <note len="-192" pos="972" pan="0" vol="100" key="57"/>
                <note len="-192" pos="984" pan="0" vol="100" key="57"/>
                <note len="-192" pos="996" pan="0" vol="100" key="57"/>
                <note len="-192" pos="1008" pan="0" vol="100" key="57"/>
                <note len="-192" pos="1032" pan="0" vol="100" key="57"/>
                <note len="-192" pos="1044" pan="0" vol="100" key="57"/>
                <note len="-192" pos="1056" pan="0" vol="100" key="57"/>
                <note len="-192" pos="1068" pan="0" vol="100" key="57"/>
                <note len="-192" pos="1104" pan="0" vol="100" key="57"/>
                <note len="-192" pos="1116" pan="0" vol="100" key="57"/>
                <note len="-192" pos="1128" pan="0" vol="100" key="57"/>
                <note len="-192" pos="1140" pan="0" vol="100" key="57"/>
              </pattern>
              <pattern pos="3264" muted="0" steps="64" type="0" name="kick.wav">
                <note len="-192" pos="0" pan="0" vol="100" key="57"/>
                <note len="-192" pos="12" pan="0" vol="100" key="57"/>
                <note len="-192" pos="24" pan="0" vol="100" key="57"/>
                <note len="-192" pos="36" pan="0" vol="100" key="57"/>
                <note len="-192" pos="48" pan="0" vol="100" key="57"/>
                <note len="-192" pos="60" pan="0" vol="100" key="57"/>
                <note len="-192" pos="72" pan="0" vol="100" key="57"/>
                <note len="-192" pos="84" pan="0" vol="100" key="57"/>
                <note len="-192" pos="96" pan="0" vol="100" key="57"/>
                <note len="-192" pos="108" pan="0" vol="100" key="57"/>
                <note len="-192" pos="120" pan="0" vol="100" key="57"/>
                <note len="-192" pos="132" pan="0" vol="100" key="57"/>
                <note len="-192" pos="144" pan="0" vol="100" key="57"/>
                <note len="-192" pos="156" pan="0" vol="100" key="57"/>
                <note len="-192" pos="168" pan="0" vol="100" key="57"/>
                <note len="-192" pos="180" pan="0" vol="100" key="57"/>
                <note len="-192" pos="192" pan="0" vol="100" key="57"/>
                <note len="-192" pos="204" pan="0" vol="100" key="57"/>
                <note len="-192" pos="216" pan="0" vol="100" key="57"/>
                <note len="-192" pos="228" pan="0" vol="100" key="57"/>
                <note len="-192" pos="240" pan="0" vol="100" key="57"/>
                <note len="-192" pos="252" pan="0" vol="100" key="57"/>
                <note len="-192" pos="264" pan="0" vol="100" key="57"/>
                <note len="-192" pos="276" pan="0" vol="100" key="57"/>
                <note len="-192" pos="288" pan="0" vol="100" key="57"/>
                <note len="-192" pos="300" pan="0" vol="100" key="57"/>
                <note len="-192" pos="312" pan="0" vol="100" key="57"/>
                <note len="-192" pos="324" pan="0" vol="100" key="57"/>
                <note len="-192" pos="336" pan="0" vol="100" key="57"/>
                <note len="-192" pos="348" pan="0" vol="100" key="57"/>
                <note len="-192" pos="360" pan="0" vol="100" key="57"/>
                <note len="-192" pos="372" pan="0" vol="100" key="57"/>
                <note len="-192" pos="384" pan="0" vol="100" key="57"/>
                <note len="-192" pos="396" pan="0" vol="100" key="57"/>
                <note len="-192" pos="408" pan="0" vol="100" key="57"/>
                <note len="-192" pos="420" pan="0" vol="100" key="57"/>
                <note len="-192" pos="432" pan="0" vol="100" key="57"/>
                <note len="-192" pos="444" pan="0" vol="100" key="57"/>
                <note len="-192" pos="456" pan="0" vol="100" key="57"/>
                <note len="-192" pos="468" pan="0" vol="100" key="57"/>
                <note len="-192" pos="480" pan="0" vol="100" key="57"/>
                <note len="-192" pos="492" pan="0" vol="100" key="57"/>
                <note len="-192" pos="504" pan="0" vol="100" key="57"/>
                <note len="-192" pos="516" pan="0" vol="100" key="57"/>
                <note len="-192" pos="528" pan="0" vol="100" key="57"/>
                <note len="-192" pos="540" pan="0" vol="100" key="57"/>
                <note len="-192" pos="552" pan="0" vol="100" key="57"/>
                <note len="-192" pos="564" pan="0" vol="100" key="57"/>
                <note len="-192" pos="576" pan="0" vol="100" key="57"/>
                <note len="-192" pos="588" pan="0" vol="100" key="57"/>
                <note len="-192" pos="600" pan="0" vol="100" key="57"/>
                <note len="-192" pos="612" pan="0" vol="100" key="57"/>
                <note len="-192" pos="624" pan="0" vol="100" key="57"/>
                <note len="-192" pos="636" pan="0" vol="100" key="57"/>
                <note len="-192" pos="648" pan="0" vol="100" key="57"/>
                <note len="-192" pos="660" pan="0" vol="100" key="57"/>
                <note len="-192" pos="672" pan="0" vol="100" key="57"/>
                <note len="-192" pos="684" pan="0" vol="100" key="57"/>
                <note len="-192" pos="696" pan="0" vol="100" key="57"/>
                <note len="-192" pos="708" pan="0" vol="100" key="57"/>
                <note len="-192" pos="720" pan="0" vol="100" key="57"/>
                <note len="-192" pos="732" pan="0" vol="100" key="57"/>
                <note len="-192" pos="744" pan="0" vol="100" key="57"/>
                <note len="-192" pos="756" pan="0" vol="100" key="57"/>
              </pattern>
              <pattern pos="3456" muted="0" steps="80" type="0" name="kick.wav">
                <note len="-192" pos="0" pan="0" vol="100" key="57"/>
                <note len="-192" pos="12" pan="0" vol="100" key="57"/>
                <note len="-192" pos="24" pan="0" vol="100" key="57"/>
                <note len="-192" pos="36" pan="0" vol="100" key="57"/>
                <note len="-192" pos="48" pan="0" vol="100" key="57"/>
                <note len="-192" pos="60" pan="0" vol="100" key="57"/>
                <note len="-192" pos="72" pan="0" vol="100" key="57"/>
                <note len="-192" pos="84" pan="0" vol="100" key="57"/>
                <note len="-192" pos="96" pan="0" vol="100" key="57"/>
                <note len="-192" pos="108" pan="0" vol="100" key="57"/>
                <note len="-192" pos="120" pan="0" vol="100" key="57"/>
                <note len="-192" pos="132" pan="0" vol="100" key="57"/>
                <note len="-192" pos="144" pan="0" vol="100" key="57"/>
                <note len="-192" pos="156" pan="0" vol="100" key="57"/>
                <note len="-192" pos="168" pan="0" vol="100" key="57"/>
                <note len="-192" pos="180" pan="0" vol="100" key="57"/>
                <note len="-192" pos="192" pan="0" vol="100" key="57"/>
                <note len="-192" pos="204" pan="0" vol="100" key="57"/>
                <note len="-192" pos="216" pan="0" vol="100" key="57"/>
                <note len="-192" pos="228" pan="0" vol="100" key="57"/>
                <note len="-192" pos="240" pan="0" vol="100" key="57"/>
                <note len="-192" pos="252" pan="0" vol="100" key="57"/>
                <note len="-192" pos="264" pan="0" vol="100" key="57"/>
                <note len="-192" pos="276" pan="0" vol="100" key="57"/>
                <note len="-192" pos="288" pan="0" vol="100" key="57"/>
                <note len="-192" pos="300" pan="0" vol="100" key="57"/>
                <note len="-192" pos="312" pan="0" vol="100" key="57"/>
                <note len="-192" pos="324" pan="0" vol="100" key="57"/>
                <note len="-192" pos="336" pan="0" vol="100" key="57"/>
                <note len="-192" pos="348" pan="0" vol="100" key="57"/>
                <note len="-192" pos="360" pan="0" vol="100" key="57"/>
                <note len="-192" pos="372" pan="0" vol="100" key="57"/>
                <note len="-192" pos="384" pan="0" vol="100" key="57"/>
                <note len="-192" pos="396" pan="0" vol="100" key="57"/>
                <note len="-192" pos="408" pan="0" vol="100" key="57"/>
                <note len="-192" pos="420" pan="0" vol="100" key="57"/>
                <note len="-192" pos="432" pan="0" vol="100" key="57"/>
                <note len="-192" pos="444" pan="0" vol="100" key="57"/>
                <note len="-192" pos="456" pan="0" vol="100" key="57"/>
                <note len="-192" pos="468" pan="0" vol="100" key="57"/>
                <note len="-192" pos="480" pan="0" vol="100" key="57"/>
                <note len="-192" pos="492" pan="0" vol="100" key="57"/>
                <note len="-192" pos="504" pan="0" vol="100" key="57"/>
                <note len="-192" pos="516" pan="0" vol="100" key="57"/>
                <note len="-192" pos="528" pan="0" vol="100" key="57"/>
                <note len="-192" pos="540" pan="0" vol="100" key="57"/>
                <note len="-192" pos="552" pan="0" vol="100" key="57"/>
                <note len="-192" pos="564" pan="0" vol="100" key="57"/>
                <note len="-192" pos="576" pan="0" vol="100" key="57"/>
                <note len="-192" pos="588" pan="0" vol="100" key="57"/>
                <note len="-192" pos="600" pan="0" vol="100" key="57"/>
                <note len="-192" pos="612" pan="0" vol="100" key="57"/>
                <note len="-192" pos="624" pan="0" vol="100" key="57"/>
                <note len="-192" pos="636" pan="0" vol="100" key="57"/>
                <note len="-192" pos="648" pan="0" vol="100" key="57"/>
                <note len="-192" pos="660" pan="0" vol="100" key="57"/>
                <note len="-192" pos="672" pan="0" vol="100" key="57"/>
                <note len="-192" pos="684" pan="0" vol="100" key="57"/>
                <note len="-192" pos="696" pan="0" vol="100" key="57"/>
                <note len="-192" pos="708" pan="0" vol="100" key="57"/>
                <note len="-192" pos="720" pan="0" vol="100" key="57"/>
                <note len="-192" pos="732" pan="0" vol="100" key="57"/>
                <note len="-192" pos="744" pan="0" vol="100" key="57"/>
                <note len="-192" pos="756" pan="0" vol="100" key="57"/>
                <note len="-192" pos="768" pan="0" vol="100" key="57"/>
              </pattern>
              <pattern pos="3648" muted="0" steps="64" type="0" name="kick.wav">
                <note len="-192" pos="0" pan="0" vol="100" key="57"/>
                <note len="-192" pos="12" pan="0" vol="100" key="57"/>
                <note len="-192" pos="24" pan="0" vol="100" key="57"/>
                <note len="-192" pos="36" pan="0" vol="100" key="57"/>
                <note len="-192" pos="48" pan="0" vol="100" key="57"/>
                <note len="-192" pos="60" pan="0" vol="100" key="57"/>
                <note len="-192" pos="72" pan="0" vol="100" key="57"/>
                <note len="-192" pos="120" pan="0" vol="100" key="57"/>
                <note len="-192" pos="168" pan="0" vol="100" key="57"/>
                <note len="-192" pos="216" pan="0" vol="100" key="57"/>
                <note len="-192" pos="240" pan="0" vol="100" key="57"/>
                <note len="-192" pos="264" pan="0" vol="100" key="57"/>
                <note len="-192" pos="288" pan="0" vol="100" key="57"/>
                <note len="-192" pos="312" pan="0" vol="100" key="57"/>
                <note len="-192" pos="336" pan="0" vol="100" key="57"/>
                <note len="-192" pos="360" pan="0" vol="100" key="57"/>
                <note len="-192" pos="384" pan="0" vol="100" key="57"/>
                <note len="-192" pos="396" pan="0" vol="100" key="57"/>
                <note len="-192" pos="408" pan="0" vol="100" key="57"/>
                <note len="-192" pos="420" pan="0" vol="100" key="57"/>
                <note len="-192" pos="432" pan="0" vol="100" key="57"/>
                <note len="-192" pos="444" pan="0" vol="100" key="57"/>
                <note len="-192" pos="456" pan="0" vol="100" key="57"/>
                <note len="-192" pos="504" pan="0" vol="100" key="57"/>
                <note len="-192" pos="552" pan="0" vol="100" key="57"/>
                <note len="-192" pos="600" pan="0" vol="100" key="57"/>
                <note len="-192" pos="624" pan="0" vol="100" key="57"/>
                <note len="-192" pos="648" pan="0" vol="100" key="57"/>
                <note len="-192" pos="672" pan="0" vol="100" key="57"/>
                <note len="-192" pos="696" pan="0" vol="100" key="57"/>
                <note len="-192" pos="720" pan="0" vol="100" key="57"/>
                <note len="-192" pos="744" pan="0" vol="100" key="57"/>
              </pattern>
              <pattern pos="3840" muted="0" steps="64" type="0" name="kick.wav">
                <note len="-192" pos="0" pan="0" vol="100" key="57"/>
                <note len="-192" pos="24" pan="0" vol="100" key="57"/>
                <note len="-192" pos="48" pan="0" vol="100" key="57"/>
                <note len="-192" pos="72" pan="0" vol="100" key="57"/>
                <note len="-192" pos="96" pan="0" vol="100" key="57"/>
                <note len="-192" pos="120" pan="0" vol="100" key="57"/>
                <note len="-192" pos="144" pan="0" vol="100" key="57"/>
                <note len="-192" pos="168" pan="0" vol="100" key="57"/>
                <note len="-192" pos="192" pan="0" vol="100" key="57"/>
                <note len="-192" pos="216" pan="0" vol="100" key="57"/>
                <note len="-192" pos="240" pan="0" vol="100" key="57"/>
                <note len="-192" pos="264" pan="0" vol="100" key="57"/>
                <note len="-192" pos="288" pan="0" vol="100" key="57"/>
                <note len="-192" pos="312" pan="0" vol="100" key="57"/>
                <note len="-192" pos="336" pan="0" vol="100" key="57"/>
                <note len="-192" pos="360" pan="0" vol="100" key="57"/>
                <note len="-192" pos="384" pan="0" vol="100" key="57"/>
                <note len="-192" pos="396" pan="0" vol="100" key="57"/>
                <note len="-192" pos="408" pan="0" vol="100" key="57"/>
                <note len="-192" pos="420" pan="0" vol="100" key="57"/>
                <note len="-192" pos="432" pan="0" vol="100" key="57"/>
                <note len="-192" pos="444" pan="0" vol="100" key="57"/>
                <note len="-192" pos="456" pan="0" vol="100" key="57"/>
                <note len="-192" pos="468" pan="0" vol="100" key="57"/>
                <note len="-192" pos="480" pan="0" vol="100" key="57"/>
                <note len="-192" pos="492" pan="0" vol="100" key="57"/>
                <note len="-192" pos="504" pan="0" vol="100" key="57"/>
                <note len="-192" pos="516" pan="0" vol="100" key="57"/>
                <note len="-192" pos="528" pan="0" vol="100" key="57"/>
                <note len="-192" pos="540" pan="0" vol="100" key="57"/>
                <note len="-192" pos="552" pan="0" vol="100" key="57"/>
                <note len="-192" pos="564" pan="0" vol="100" key="57"/>
                <note len="-192" pos="576" pan="0" vol="100" key="57"/>
                <note len="-192" pos="588" pan="0" vol="100" key="57"/>
                <note len="-192" pos="600" pan="0" vol="100" key="57"/>
                <note len="-192" pos="612" pan="0" vol="100" key="57"/>
                <note len="-192" pos="624" pan="0" vol="100" key="57"/>
                <note len="-192" pos="636" pan="0" vol="100" key="57"/>
                <note len="-192" pos="648" pan="0" vol="100" key="57"/>
                <note len="-192" pos="660" pan="0" vol="100" key="57"/>
                <note len="-192" pos="672" pan="0" vol="100" key="57"/>
                <note len="-192" pos="684" pan="0" vol="100" key="57"/>
                <note len="-192" pos="696" pan="0" vol="100" key="57"/>
                <note len="-192" pos="708" pan="0" vol="100" key="57"/>
                <note len="-192" pos="720" pan="0" vol="100" key="57"/>
                <note len="-192" pos="732" pan="0" vol="100" key="57"/>
                <note len="-192" pos="744" pan="0" vol="100" key="57"/>
                <note len="-192" pos="756" pan="0" vol="100" key="57"/>
              </pattern>
            </track>
            <track muted="0" solo="0" type="0" name="hihat_opened02.ogg">
              <instrumenttrack basenote="57" pitch="0" pitchrange="1" pan="-21.6" usemasterpitch="1" fxch="2" vol="56.8">
                <instrument name="audiofileprocessor">
                  <audiofileprocessor looped="0" lframe="0" reversed="0" eframe="1" stutter="0" sframe="0" interp="1" src="drums/hihat_opened02.ogg" amp="100"/>
                </instrument>
                <eldata fwet="0" ftype="0" fcut="14000" fres="0.5">
                  <elvol lspd_denominator="4" lamt="0" amt="1" dec="2" hold="2" lshp="0" ctlenvamt="0" lspd="0.1" rel="0" pdel="0" lspd_syncmode="0" att="0" sustain="0" userwavefile="" latt="0" lspd_numerator="4" lpdel="0" x100="0"/>
                  <elcut lspd_denominator="4" lamt="0" amt="0" dec="0.5" hold="0.5" lshp="0" ctlenvamt="0" lspd="0.1" rel="0.1" pdel="0" lspd_syncmode="0" att="0" sustain="0.5" userwavefile="" latt="0" lspd_numerator="4" lpdel="0" x100="0"/>
                  <elres lspd_denominator="4" lamt="0" amt="0" dec="0.5" hold="0.5" lshp="0" ctlenvamt="0" lspd="0.1" rel="0.1" pdel="0" lspd_syncmode="0" att="0" sustain="0.5" userwavefile="" latt="0" lspd_numerator="4" lpdel="0" x100="0"/>
                </eldata>
                <chordcreator chordrange="1" chord-enabled="0" chord="0"/>
                <arpeggiator arptime_syncmode="0" arptime="200" arptime_denominator="4" arpdir="0" arp="0" arpmode="0" arpcycle="0" arpmiss="0" arptime_numerator="4" arprange="1" arp-enabled="0" arpskip="0" arpgate="100"/>
                <midiport inputcontroller="0" outputchannel="1" outputprogram="1" readable="0" outputcontroller="0" fixedoutputvelocity="-1" fixedoutputnote="-1" fixedinputvelocity="-1" writable="0" inputchannel="0" basevelocity="63"/>
                <fxchain enabled="0" numofeffects="0"/>
              </instrumenttrack>
              <pattern pos="0" muted="0" steps="16" type="0" name="hihat_opened02.ogg"/>
              <pattern pos="192" muted="0" steps="32" type="0" name="hihat_opened02.ogg">
                <note len="-192" pos="72" pan="0" vol="100" key="57"/>
                <note len="-192" pos="144" pan="0" vol="100" key="57"/>
                <note len="-192" pos="264" pan="0" vol="100" key="57"/>
              </pattern>
              <pattern pos="384" muted="0" steps="64" type="0" name="hihat_opened02.ogg">
                <note len="-192" pos="0" pan="0" vol="100" key="57"/>
                <note len="-192" pos="96" pan="0" vol="100" key="57"/>
                <note len="-192" pos="192" pan="0" vol="100" key="57"/>
                <note len="-192" pos="288" pan="0" vol="100" key="57"/>
                <note len="-192" pos="384" pan="0" vol="100" key="57"/>
                <note len="-192" pos="480" pan="0" vol="100" key="57"/>
                <note len="-192" pos="576" pan="0" vol="100" key="57"/>
                <note len="-192" pos="672" pan="0" vol="100" key="57"/>
              </pattern>
              <pattern pos="576" muted="0" steps="48" type="0" name="hihat_opened02.ogg">
                <note len="-192" pos="0" pan="0" vol="100" key="57"/>
                <note len="-192" pos="96" pan="0" vol="100" key="57"/>
                <note len="-192" pos="192" pan="0" vol="100" key="57"/>
                <note len="-192" pos="288" pan="0" vol="100" key="57"/>
                <note len="-192" pos="432" pan="0" vol="100" key="57"/>
                <note len="-192" pos="480" pan="0" vol="100" key="57"/>
                <note len="-192" pos="528" pan="0" vol="100" key="57"/>
              </pattern>
              <pattern pos="768" muted="0" steps="64" type="0" name="hihat_opened02.ogg">
                <note len="-192" pos="0" pan="0" vol="100" key="57"/>
                <note len="-192" pos="48" pan="0" vol="100" key="57"/>
                <note len="-192" pos="96" pan="0" vol="100" key="57"/>
                <note len="-192" pos="144" pan="0" vol="100" key="57"/>
                <note len="-192" pos="192" pan="0" vol="100" key="57"/>
                <note len="-192" pos="240" pan="0" vol="100" key="57"/>
                <note len="-192" pos="288" pan="0" vol="100" key="57"/>
                <note len="-192" pos="336" pan="0" vol="100" key="57"/>
                <note len="-192" pos="384" pan="0" vol="100" key="57"/>
                <note len="-192" pos="432" pan="0" vol="100" key="57"/>
                <note len="-192" pos="480" pan="0" vol="100" key="57"/>
                <note len="-192" pos="528" pan="0" vol="100" key="57"/>
                <note len="-192" pos="576" pan="0" vol="100" key="57"/>
                <note len="-192" pos="624" pan="0" vol="100" key="57"/>
                <note len="-192" pos="672" pan="0" vol="100" key="57"/>
                <note len="-192" pos="720" pan="0" vol="100" key="57"/>
              </pattern>
              <pattern pos="960" muted="0" steps="32" type="0" name="hihat_opened02.ogg">
                <note len="-192" pos="0" pan="0" vol="100" key="57"/>
                <note len="-192" pos="48" pan="0" vol="100" key="57"/>
                <note len="-192" pos="96" pan="0" vol="100" key="57"/>
                <note len="-192" pos="144" pan="0" vol="100" key="57"/>
              </pattern>
              <pattern pos="1152" muted="0" steps="64" type="0" name="hihat_opened02.ogg">
                <note len="-192" pos="0" pan="0" vol="100" key="57"/>
                <note len="-192" pos="48" pan="0" vol="100" key="57"/>
                <note len="-192" pos="96" pan="0" vol="100" key="57"/>
                <note len="-192" pos="144" pan="0" vol="100" key="57"/>
                <note len="-192" pos="192" pan="0" vol="100" key="57"/>
                <note len="-192" pos="240" pan="0" vol="100" key="57"/>
                <note len="-192" pos="288" pan="0" vol="100" key="57"/>
                <note len="-192" pos="336" pan="0" vol="100" key="57"/>
                <note len="-192" pos="384" pan="0" vol="100" key="57"/>
                <note len="-192" pos="432" pan="0" vol="100" key="57"/>
                <note len="-192" pos="480" pan="0" vol="100" key="57"/>
                <note len="-192" pos="528" pan="0" vol="100" key="57"/>
                <note len="-192" pos="576" pan="0" vol="100" key="57"/>
                <note len="-192" pos="624" pan="0" vol="100" key="57"/>
                <note len="-192" pos="672" pan="0" vol="100" key="57"/>
                <note len="-192" pos="720" pan="0" vol="100" key="57"/>
              </pattern>
              <pattern pos="1344" muted="0" steps="32" type="0" name="hihat_opened02.ogg">
                <note len="-192" pos="0" pan="0" vol="100" key="57"/>
                <note len="-192" pos="48" pan="0" vol="100" key="57"/>
                <note len="-192" pos="96" pan="0" vol="100" key="57"/>
                <note len="-192" pos="144" pan="0" vol="100" key="57"/>
                <note len="-192" pos="192" pan="0" vol="100" key="57"/>
                <note len="-192" pos="240" pan="0" vol="100" key="57"/>
                <note len="-192" pos="288" pan="0" vol="100" key="57"/>
                <note len="-192" pos="336" pan="0" vol="100" key="57"/>
              </pattern>
              <pattern pos="1536" muted="0" steps="32" type="0" name="hihat_opened02.ogg">
                <note len="-192" pos="0" pan="0" vol="100" key="57"/>
                <note len="-192" pos="48" pan="0" vol="100" key="57"/>
                <note len="-192" pos="96" pan="0" vol="100" key="57"/>
                <note len="-192" pos="144" pan="0" vol="100" key="57"/>
                <note len="-192" pos="192" pan="0" vol="100" key="57"/>
                <note len="-192" pos="240" pan="0" vol="100" key="57"/>
                <note len="-192" pos="288" pan="0" vol="100" key="57"/>
                <note len="-192" pos="336" pan="0" vol="100" key="57"/>
              </pattern>
              <pattern pos="1728" muted="0" steps="16" type="0" name="hihat_opened02.ogg"/>
              <pattern pos="1920" muted="0" steps="64" type="0" name="hihat_opened02.ogg">
                <note len="-192" pos="0" pan="0" vol="100" key="57"/>
                <note len="-192" pos="48" pan="0" vol="100" key="57"/>
                <note len="-192" pos="96" pan="0" vol="100" key="57"/>
                <note len="-192" pos="144" pan="0" vol="100" key="57"/>
                <note len="-192" pos="192" pan="0" vol="100" key="57"/>
                <note len="-192" pos="240" pan="0" vol="100" key="57"/>
                <note len="-192" pos="288" pan="0" vol="100" key="57"/>
                <note len="-192" pos="336" pan="0" vol="100" key="57"/>
                <note len="-192" pos="384" pan="0" vol="100" key="57"/>
                <note len="-192" pos="432" pan="0" vol="100" key="57"/>
                <note len="-192" pos="480" pan="0" vol="100" key="57"/>
                <note len="-192" pos="528" pan="0" vol="100" key="57"/>
                <note len="-192" pos="576" pan="0" vol="100" key="57"/>
                <note len="-192" pos="624" pan="0" vol="100" key="57"/>
                <note len="-192" pos="672" pan="0" vol="100" key="57"/>
                <note len="-192" pos="720" pan="0" vol="100" key="57"/>
              </pattern>
              <pattern pos="2112" muted="0" steps="64" type="0" name="hihat_opened02.ogg">
                <note len="-192" pos="0" pan="0" vol="100" key="57"/>
                <note len="-192" pos="48" pan="0" vol="100" key="57"/>
                <note len="-192" pos="96" pan="0" vol="100" key="57"/>
                <note len="-192" pos="144" pan="0" vol="100" key="57"/>
                <note len="-192" pos="192" pan="0" vol="100" key="57"/>
                <note len="-192" pos="240" pan="0" vol="100" key="57"/>
                <note len="-192" pos="288" pan="0" vol="100" key="57"/>
                <note len="-192" pos="336" pan="0" vol="100" key="57"/>
                <note len="-192" pos="384" pan="0" vol="100" key="57"/>
                <note len="-192" pos="432" pan="0" vol="100" key="57"/>
                <note len="-192" pos="480" pan="0" vol="100" key="57"/>
                <note len="-192" pos="528" pan="0" vol="100" key="57"/>
                <note len="-192" pos="576" pan="0" vol="100" key="57"/>
                <note len="-192" pos="624" pan="0" vol="100" key="57"/>
                <note len="-192" pos="672" pan="0" vol="100" key="57"/>
                <note len="-192" pos="720" pan="0" vol="100" key="57"/>
              </pattern>
              <pattern pos="2304" muted="0" steps="16" type="0" name="hihat_opened02.ogg"/>
              <pattern pos="2496" muted="0" steps="32" type="0" name="hihat_opened02.ogg">
                <note len="-192" pos="48" pan="0" vol="100" key="57"/>
                <note len="-192" pos="96" pan="0" vol="100" key="57"/>
                <note len="-192" pos="144" pan="0" vol="100" key="57"/>
                <note len="-192" pos="240" pan="0" vol="100" key="57"/>
                <note len="-192" pos="288" pan="0" vol="100" key="57"/>
                <note len="-192" pos="336" pan="0" vol="100" key="57"/>
              </pattern>
              <pattern pos="2688" muted="0" steps="32" type="0" name="hihat_opened02.ogg">
                <note len="-192" pos="48" pan="0" vol="100" key="57"/>
                <note len="-192" pos="96" pan="0" vol="100" key="57"/>
                <note len="-192" pos="144" pan="0" vol="100" key="57"/>
                <note len="-192" pos="192" pan="0" vol="100" key="57"/>
                <note len="-192" pos="240" pan="0" vol="100" key="57"/>
                <note len="-192" pos="288" pan="0" vol="100" key="57"/>
                <note len="-192" pos="336" pan="0" vol="100" key="57"/>
              </pattern>
              <pattern pos="2880" muted="0" steps="16" type="0" name="hihat_opened02.ogg">
                <note len="-192" pos="144" pan="0" vol="100" key="57"/>
                <note len="-192" pos="168" pan="0" vol="100" key="57"/>
              </pattern>
              <pattern pos="3072" muted="0" steps="96" type="0" name="hihat_opened02.ogg">
                <note len="-192" pos="24" pan="0" vol="100" key="57"/>
                <note len="-192" pos="72" pan="0" vol="100" key="57"/>
                <note len="-192" pos="120" pan="0" vol="100" key="57"/>
                <note len="-192" pos="168" pan="0" vol="100" key="57"/>
                <note len="-192" pos="216" pan="0" vol="100" key="57"/>
                <note len="-192" pos="264" pan="0" vol="100" key="57"/>
                <note len="-192" pos="312" pan="0" vol="100" key="57"/>
                <note len="-192" pos="360" pan="0" vol="100" key="57"/>
                <note len="-192" pos="408" pan="0" vol="100" key="57"/>
                <note len="-192" pos="456" pan="0" vol="100" key="57"/>
                <note len="-192" pos="504" pan="0" vol="100" key="57"/>
                <note len="-192" pos="552" pan="0" vol="100" key="57"/>
                <note len="-192" pos="600" pan="0" vol="100" key="57"/>
                <note len="-192" pos="648" pan="0" vol="100" key="57"/>
              </pattern>
              <pattern pos="3264" muted="0" steps="64" type="0" name="hihat_opened02.ogg">
                <note len="-192" pos="48" pan="0" vol="100" key="57"/>
                <note len="-192" pos="144" pan="0" vol="100" key="57"/>
                <note len="-192" pos="240" pan="0" vol="100" key="57"/>
                <note len="-192" pos="336" pan="0" vol="100" key="57"/>
              </pattern>
              <pattern pos="3456" muted="0" steps="80" type="0" name="hihat_opened02.ogg">
                <note len="-192" pos="48" pan="0" vol="100" key="57"/>
                <note len="-192" pos="144" pan="0" vol="100" key="57"/>
                <note len="-192" pos="240" pan="0" vol="100" key="57"/>
                <note len="-192" pos="336" pan="0" vol="100" key="57"/>
                <note len="-192" pos="432" pan="0" vol="100" key="57"/>
                <note len="-192" pos="528" pan="0" vol="100" key="57"/>
              </pattern>
              <pattern pos="3648" muted="0" steps="64" type="0" name="hihat_opened02.ogg">
                <note len="-192" pos="48" pan="0" vol="100" key="57"/>
                <note len="-192" pos="96" pan="0" vol="100" key="57"/>
                <note len="-192" pos="144" pan="0" vol="100" key="57"/>
                <note len="-192" pos="192" pan="0" vol="100" key="57"/>
                <note len="-192" pos="240" pan="0" vol="100" key="57"/>
                <note len="-192" pos="288" pan="0" vol="100" key="57"/>
                <note len="-192" pos="336" pan="0" vol="100" key="57"/>
                <note len="-192" pos="384" pan="0" vol="100" key="57"/>
                <note len="-192" pos="432" pan="0" vol="100" key="57"/>
                <note len="-192" pos="480" pan="0" vol="100" key="57"/>
                <note len="-192" pos="528" pan="0" vol="100" key="57"/>
                <note len="-192" pos="576" pan="0" vol="100" key="57"/>
                <note len="-192" pos="624" pan="0" vol="100" key="57"/>
                <note len="-192" pos="672" pan="0" vol="100" key="57"/>
                <note len="-192" pos="720" pan="0" vol="100" key="57"/>
              </pattern>
              <pattern pos="3840" muted="0" steps="64" type="0" name="hihat_opened02.ogg">
                <note len="-192" pos="0" pan="0" vol="100" key="57"/>
                <note len="-192" pos="192" pan="0" vol="100" key="57"/>
              </pattern>
            </track>
            <track muted="0" solo="0" type="0" name="snare.wav">
              <instrumenttrack basenote="57" pitch="0" pitchrange="1" pan="0" usemasterpitch="1" fxch="3" vol="200">
                <instrument name="audiofileprocessor">
                  <audiofileprocessor looped="0" lframe="0" reversed="0" eframe="1" stutter="0" sframe="0" interp="1" src="/home/pass/samples/sillydrums/snare.wav" amp="100"/>
                </instrument>
                <eldata fwet="0" ftype="0" fcut="14000" fres="0.5">
                  <elvol lspd_denominator="4" lamt="0" amt="1" dec="2" hold="2" lshp="0" ctlenvamt="0" lspd="0.1" rel="2" pdel="0" lspd_syncmode="0" att="0" sustain="1" userwavefile="" latt="0" lspd_numerator="4" lpdel="0" x100="0"/>
                  <elcut lspd_denominator="4" lamt="0" amt="0" dec="0.5" hold="0.5" lshp="0" ctlenvamt="0" lspd="0.1" rel="0.1" pdel="0" lspd_syncmode="0" att="0" sustain="0.5" userwavefile="" latt="0" lspd_numerator="4" lpdel="0" x100="0"/>
                  <elres lspd_denominator="4" lamt="0" amt="0" dec="0.5" hold="0.5" lshp="0" ctlenvamt="0" lspd="0.1" rel="0.1" pdel="0" lspd_syncmode="0" att="0" sustain="0.5" userwavefile="" latt="0" lspd_numerator="4" lpdel="0" x100="0"/>
                </eldata>
                <chordcreator chordrange="1" chord-enabled="0" chord="0"/>
                <arpeggiator arptime_syncmode="0" arptime="200" arptime_denominator="4" arpdir="0" arp="0" arpmode="0" arpcycle="0" arpmiss="0" arptime_numerator="4" arprange="1" arp-enabled="0" arpskip="0" arpgate="100"/>
                <midiport inputcontroller="0" outputchannel="1" outputprogram="1" readable="0" outputcontroller="0" fixedoutputvelocity="-1" fixedoutputnote="-1" fixedinputvelocity="-1" writable="0" inputchannel="0" basevelocity="63"/>
                <fxchain enabled="0" numofeffects="0"/>
              </instrumenttrack>
              <pattern pos="0" muted="0" steps="64" type="0" name="snare.wav">
                <note len="-192" pos="720" pan="0" vol="100" key="57"/>
                <note len="-192" pos="732" pan="0" vol="100" key="57"/>
                <note len="-192" pos="744" pan="0" vol="100" key="57"/>
                <note len="-192" pos="756" pan="0" vol="100" key="57"/>
              </pattern>
              <pattern pos="192" muted="0" steps="32" type="0" name="snare.wav">
                <note len="-192" pos="96" pan="0" vol="100" key="57"/>
                <note len="-192" pos="288" pan="0" vol="100" key="57"/>
              </pattern>
              <pattern pos="384" muted="0" steps="64" type="0" name="snare.wav">
                <note len="-192" pos="48" pan="0" vol="100" key="57"/>
                <note len="-192" pos="144" pan="0" vol="100" key="57"/>
                <note len="-192" pos="240" pan="0" vol="100" key="57"/>
                <note len="-192" pos="336" pan="0" vol="100" key="57"/>
                <note len="-192" pos="432" pan="0" vol="100" key="57"/>
                <note len="-192" pos="528" pan="0" vol="100" key="57"/>
                <note len="-192" pos="624" pan="0" vol="100" key="57"/>
                <note len="-192" pos="720" pan="0" vol="100" key="57"/>
              </pattern>
              <pattern pos="576" muted="0" steps="64" type="0" name="snare.wav">
                <note len="-192" pos="48" pan="0" vol="100" key="57"/>
                <note len="-192" pos="144" pan="0" vol="100" key="57"/>
                <note len="-192" pos="240" pan="0" vol="100" key="57"/>
                <note len="-192" pos="336" pan="0" vol="100" key="57"/>
                <note len="-192" pos="384" pan="0" vol="100" key="57"/>
                <note len="-192" pos="432" pan="0" vol="100" key="57"/>
                <note len="-192" pos="480" pan="0" vol="100" key="57"/>
                <note len="-192" pos="528" pan="0" vol="100" key="57"/>
                <note len="-192" pos="576" pan="0" vol="100" key="57"/>
                <note len="-192" pos="588" pan="0" vol="100" key="57"/>
                <note len="-192" pos="624" pan="0" vol="100" key="57"/>
                <note len="-192" pos="636" pan="0" vol="100" key="57"/>
                <note len="-192" pos="672" pan="0" vol="100" key="57"/>
                <note len="-192" pos="684" pan="0" vol="100" key="57"/>
              </pattern>
              <pattern pos="768" muted="0" steps="64" type="0" name="snare.wav">
                <note len="-192" pos="24" pan="0" vol="100" key="57"/>
                <note len="-192" pos="72" pan="0" vol="100" key="57"/>
                <note len="-192" pos="120" pan="0" vol="100" key="57"/>
                <note len="-192" pos="168" pan="0" vol="100" key="57"/>
                <note len="-192" pos="216" pan="0" vol="100" key="57"/>
                <note len="-192" pos="264" pan="0" vol="100" key="57"/>
                <note len="-192" pos="312" pan="0" vol="100" key="57"/>
                <note len="-192" pos="360" pan="0" vol="100" key="57"/>
                <note len="-192" pos="408" pan="0" vol="100" key="57"/>
                <note len="-192" pos="456" pan="0" vol="100" key="57"/>
                <note len="-192" pos="504" pan="0" vol="100" key="57"/>
                <note len="-192" pos="552" pan="0" vol="100" key="57"/>
                <note len="-192" pos="600" pan="0" vol="100" key="57"/>
                <note len="-192" pos="648" pan="0" vol="100" key="57"/>
                <note len="-192" pos="696" pan="0" vol="100" key="57"/>
                <note len="-192" pos="744" pan="0" vol="100" key="57"/>
              </pattern>
              <pattern pos="960" muted="0" steps="32" type="0" name="snare.wav">
                <note len="-192" pos="24" pan="0" vol="100" key="57"/>
                <note len="-192" pos="72" pan="0" vol="100" key="57"/>
                <note len="-192" pos="120" pan="0" vol="100" key="57"/>
                <note len="-192" pos="168" pan="0" vol="100" key="57"/>
                <note len="-192" pos="192" pan="0" vol="100" key="57"/>
                <note len="-192" pos="204" pan="0" vol="100" key="57"/>
                <note len="-192" pos="240" pan="0" vol="100" key="57"/>
                <note len="-192" pos="252" pan="0" vol="100" key="57"/>
                <note len="-192" pos="288" pan="0" vol="100" key="57"/>
                <note len="-192" pos="300" pan="0" vol="100" key="57"/>
              </pattern>
              <pattern pos="1152" muted="0" steps="64" type="0" name="snare.wav">
                <note len="-192" pos="24" pan="0" vol="100" key="57"/>
                <note len="-192" pos="72" pan="0" vol="100" key="57"/>
                <note len="-192" pos="120" pan="0" vol="100" key="57"/>
                <note len="-192" pos="168" pan="0" vol="100" key="57"/>
                <note len="-192" pos="216" pan="0" vol="100" key="57"/>
                <note len="-192" pos="264" pan="0" vol="100" key="57"/>
                <note len="-192" pos="312" pan="0" vol="100" key="57"/>
                <note len="-192" pos="360" pan="0" vol="100" key="57"/>
                <note len="-192" pos="408" pan="0" vol="100" key="57"/>
                <note len="-192" pos="456" pan="0" vol="100" key="57"/>
                <note len="-192" pos="504" pan="0" vol="100" key="57"/>
                <note len="-192" pos="552" pan="0" vol="100" key="57"/>
                <note len="-192" pos="600" pan="0" vol="100" key="57"/>
                <note len="-192" pos="648" pan="0" vol="100" key="57"/>
                <note len="-192" pos="696" pan="0" vol="100" key="57"/>
                <note len="-192" pos="744" pan="0" vol="100" key="57"/>
              </pattern>
              <pattern pos="1344" muted="0" steps="32" type="0" name="snare.wav">
                <note len="-192" pos="24" pan="0" vol="100" key="57"/>
                <note len="-192" pos="72" pan="0" vol="100" key="57"/>
                <note len="-192" pos="120" pan="0" vol="100" key="57"/>
                <note len="-192" pos="168" pan="0" vol="100" key="57"/>
                <note len="-192" pos="216" pan="0" vol="100" key="57"/>
                <note len="-192" pos="264" pan="0" vol="100" key="57"/>
                <note len="-192" pos="312" pan="0" vol="100" key="57"/>
                <note len="-192" pos="360" pan="0" vol="100" key="57"/>
              </pattern>
              <pattern pos="1536" muted="0" steps="32" type="0" name="snare.wav">
                <note len="-192" pos="24" pan="0" vol="100" key="57"/>
                <note len="-192" pos="72" pan="0" vol="100" key="57"/>
                <note len="-192" pos="120" pan="0" vol="100" key="57"/>
                <note len="-192" pos="168" pan="0" vol="100" key="57"/>
                <note len="-192" pos="216" pan="0" vol="100" key="57"/>
                <note len="-192" pos="264" pan="0" vol="100" key="57"/>
                <note len="-192" pos="312" pan="0" vol="100" key="57"/>
                <note len="-192" pos="360" pan="0" vol="100" key="57"/>
              </pattern>
              <pattern pos="1728" muted="0" steps="16" type="0" name="snare.wav">
                <note len="-192" pos="0" pan="0" vol="100" key="57"/>
                <note len="-192" pos="12" pan="0" vol="100" key="57"/>
                <note len="-192" pos="24" pan="0" vol="100" key="57"/>
                <note len="-192" pos="36" pan="0" vol="100" key="57"/>
                <note len="-192" pos="48" pan="0" vol="100" key="57"/>
                <note len="-192" pos="60" pan="0" vol="100" key="57"/>
                <note len="-192" pos="72" pan="0" vol="100" key="57"/>
                <note len="-192" pos="84" pan="0" vol="100" key="57"/>
                <note len="-192" pos="96" pan="0" vol="100" key="57"/>
                <note len="-192" pos="144" pan="0" vol="100" key="57"/>
              </pattern>
              <pattern pos="1920" muted="0" steps="64" type="0" name="snare.wav">
                <note len="-192" pos="24" pan="0" vol="100" key="57"/>
                <note len="-192" pos="72" pan="0" vol="100" key="57"/>
                <note len="-192" pos="120" pan="0" vol="100" key="57"/>
                <note len="-192" pos="168" pan="0" vol="100" key="57"/>
                <note len="-192" pos="216" pan="0" vol="100" key="57"/>
                <note len="-192" pos="264" pan="0" vol="100" key="57"/>
                <note len="-192" pos="312" pan="0" vol="100" key="57"/>
                <note len="-192" pos="360" pan="0" vol="100" key="57"/>
                <note len="-192" pos="408" pan="0" vol="100" key="57"/>
                <note len="-192" pos="456" pan="0" vol="100" key="57"/>
                <note len="-192" pos="504" pan="0" vol="100" key="57"/>
                <note len="-192" pos="552" pan="0" vol="100" key="57"/>
                <note len="-192" pos="600" pan="0" vol="100" key="57"/>
                <note len="-192" pos="648" pan="0" vol="100" key="57"/>
                <note len="-192" pos="696" pan="0" vol="100" key="57"/>
                <note len="-192" pos="744" pan="0" vol="100" key="57"/>
              </pattern>
              <pattern pos="2112" muted="0" steps="64" type="0" name="snare.wav">
                <note len="-192" pos="24" pan="0" vol="100" key="57"/>
                <note len="-192" pos="72" pan="0" vol="100" key="57"/>
                <note len="-192" pos="120" pan="0" vol="100" key="57"/>
                <note len="-192" pos="168" pan="0" vol="100" key="57"/>
                <note len="-192" pos="216" pan="0" vol="100" key="57"/>
                <note len="-192" pos="264" pan="0" vol="100" key="57"/>
                <note len="-192" pos="312" pan="0" vol="100" key="57"/>
                <note len="-192" pos="360" pan="0" vol="100" key="57"/>
                <note len="-192" pos="408" pan="0" vol="100" key="57"/>
                <note len="-192" pos="456" pan="0" vol="100" key="57"/>
                <note len="-192" pos="504" pan="0" vol="100" key="57"/>
                <note len="-192" pos="552" pan="0" vol="100" key="57"/>
                <note len="-192" pos="600" pan="0" vol="100" key="57"/>
                <note len="-192" pos="648" pan="0" vol="100" key="57"/>
                <note len="-192" pos="696" pan="0" vol="100" key="57"/>
                <note len="-192" pos="744" pan="0" vol="100" key="57"/>
              </pattern>
              <pattern pos="2304" muted="0" steps="16" type="0" name="snare.wav"/>
              <pattern pos="2496" muted="0" steps="32" type="0" name="snare.wav">
                <note len="-192" pos="0" pan="0" vol="100" key="57"/>
                <note len="-192" pos="48" pan="0" vol="100" key="57"/>
                <note len="-192" pos="96" pan="0" vol="100" key="57"/>
                <note len="-192" pos="144" pan="0" vol="100" key="57"/>
                <note len="-192" pos="192" pan="0" vol="100" key="57"/>
                <note len="-192" pos="240" pan="0" vol="100" key="57"/>
                <note len="-192" pos="288" pan="0" vol="100" key="57"/>
                <note len="-192" pos="336" pan="0" vol="100" key="57"/>
              </pattern>
              <pattern pos="2688" muted="0" steps="32" type="0" name="snare.wav">
                <note len="-192" pos="0" pan="0" vol="100" key="57"/>
                <note len="-192" pos="48" pan="0" vol="100" key="57"/>
                <note len="-192" pos="96" pan="0" vol="100" key="57"/>
                <note len="-192" pos="144" pan="0" vol="100" key="57"/>
                <note len="-192" pos="168" pan="0" vol="100" key="57"/>
                <note len="-192" pos="216" pan="0" vol="100" key="57"/>
                <note len="-192" pos="264" pan="0" vol="100" key="57"/>
                <note len="-192" pos="312" pan="0" vol="100" key="57"/>
                <note len="-192" pos="360" pan="0" vol="100" key="57"/>
              </pattern>
              <pattern pos="2880" muted="0" steps="16" type="0" name="snare.wav"/>
              <pattern pos="3072" muted="0" steps="96" type="0" name="snare.wav">
                <note len="-192" pos="48" pan="0" vol="100" key="57"/>
                <note len="-192" pos="144" pan="0" vol="100" key="57"/>
                <note len="-192" pos="240" pan="0" vol="100" key="57"/>
                <note len="-192" pos="336" pan="0" vol="100" key="57"/>
                <note len="-192" pos="432" pan="0" vol="100" key="57"/>
                <note len="-192" pos="528" pan="0" vol="100" key="57"/>
                <note len="-192" pos="624" pan="0" vol="100" key="57"/>
                <note len="-192" pos="672" pan="0" vol="100" key="57"/>
                <note len="-192" pos="768" pan="0" vol="100" key="57"/>
                <note len="-192" pos="864" pan="0" vol="100" key="57"/>
                <note len="-192" pos="960" pan="0" vol="100" key="57"/>
                <note len="-192" pos="972" pan="0" vol="100" key="57"/>
                <note len="-192" pos="1032" pan="0" vol="100" key="57"/>
                <note len="-192" pos="1044" pan="0" vol="100" key="57"/>
                <note len="-192" pos="1104" pan="0" vol="100" key="57"/>
                <note len="-192" pos="1116" pan="0" vol="100" key="57"/>
                <note len="-192" pos="1128" pan="0" vol="100" key="57"/>
                <note len="-192" pos="1140" pan="0" vol="100" key="57"/>
              </pattern>
              <pattern pos="3264" muted="0" steps="64" type="0" name="snare.wav">
                <note len="-192" pos="0" pan="0" vol="100" key="57"/>
                <note len="-192" pos="48" pan="0" vol="100" key="57"/>
                <note len="-192" pos="96" pan="0" vol="100" key="57"/>
                <note len="-192" pos="144" pan="0" vol="100" key="57"/>
                <note len="-192" pos="192" pan="0" vol="100" key="57"/>
                <note len="-192" pos="240" pan="0" vol="100" key="57"/>
                <note len="-192" pos="288" pan="0" vol="100" key="57"/>
                <note len="-192" pos="336" pan="0" vol="100" key="57"/>
                <note len="-192" pos="384" pan="0" vol="100" key="57"/>
                <note len="-192" pos="432" pan="0" vol="100" key="57"/>
                <note len="-192" pos="480" pan="0" vol="100" key="57"/>
                <note len="-192" pos="528" pan="0" vol="100" key="57"/>
                <note len="-192" pos="576" pan="0" vol="100" key="57"/>
                <note len="-192" pos="588" pan="0" vol="100" key="57"/>
                <note len="-192" pos="624" pan="0" vol="100" key="57"/>
                <note len="-192" pos="636" pan="0" vol="100" key="57"/>
                <note len="-192" pos="672" pan="0" vol="100" key="57"/>
                <note len="-192" pos="720" pan="0" vol="100" key="57"/>
                <note len="-192" pos="732" pan="0" vol="100" key="57"/>
                <note len="-192" pos="744" pan="0" vol="100" key="57"/>
                <note len="-192" pos="756" pan="0" vol="100" key="57"/>
              </pattern>
              <pattern pos="3456" muted="0" steps="80" type="0" name="snare.wav">
                <note len="-192" pos="0" pan="0" vol="100" key="57"/>
                <note len="-192" pos="48" pan="0" vol="100" key="57"/>
                <note len="-192" pos="96" pan="0" vol="100" key="57"/>
                <note len="-192" pos="144" pan="0" vol="100" key="57"/>
                <note len="-192" pos="192" pan="0" vol="100" key="57"/>
                <note len="-192" pos="240" pan="0" vol="100" key="57"/>
                <note len="-192" pos="288" pan="0" vol="100" key="57"/>
                <note len="-192" pos="336" pan="0" vol="100" key="57"/>
                <note len="-192" pos="384" pan="0" vol="100" key="57"/>
                <note len="-192" pos="432" pan="0" vol="100" key="57"/>
                <note len="-192" pos="480" pan="0" vol="100" key="57"/>
                <note len="-192" pos="528" pan="0" vol="100" key="57"/>
                <note len="-192" pos="576" pan="0" vol="100" key="57"/>
                <note len="-192" pos="588" pan="0" vol="100" key="57"/>
                <note len="-192" pos="624" pan="0" vol="100" key="57"/>
                <note len="-192" pos="636" pan="0" vol="100" key="57"/>
                <note len="-192" pos="672" pan="0" vol="100" key="57"/>
                <note len="-192" pos="720" pan="0" vol="100" key="57"/>
                <note len="-192" pos="732" pan="0" vol="100" key="57"/>
                <note len="-192" pos="744" pan="0" vol="100" key="57"/>
                <note len="-192" pos="756" pan="0" vol="100" key="57"/>
              </pattern>
              <pattern pos="3648" muted="0" steps="64" type="0" name="snare.wav">
                <note len="-192" pos="96" pan="0" vol="100" key="57"/>
                <note len="-192" pos="288" pan="0" vol="100" key="57"/>
                <note len="-192" pos="480" pan="0" vol="100" key="57"/>
                <note len="-192" pos="672" pan="0" vol="100" key="57"/>
              </pattern>
              <pattern pos="3840" muted="0" steps="64" type="0" name="snare.wav">
                <note len="-192" pos="96" pan="0" vol="100" key="57"/>
                <note len="-192" pos="288" pan="0" vol="100" key="57"/>
                <note len="-192" pos="384" pan="0" vol="100" key="57"/>
                <note len="-192" pos="432" pan="0" vol="100" key="57"/>
                <note len="-192" pos="480" pan="0" vol="100" key="57"/>
                <note len="-192" pos="528" pan="0" vol="100" key="57"/>
                <note len="-192" pos="576" pan="0" vol="100" key="57"/>
                <note len="-192" pos="624" pan="0" vol="100" key="57"/>
                <note len="-192" pos="672" pan="0" vol="100" key="57"/>
                <note len="-192" pos="720" pan="0" vol="100" key="57"/>
                <note len="-192" pos="732" pan="0" vol="100" key="57"/>
                <note len="-192" pos="744" pan="0" vol="100" key="57"/>
                <note len="-192" pos="756" pan="0" vol="100" key="57"/>
              </pattern>
            </track>
            <track muted="0" solo="0" type="0" name="crash1.wav">
              <instrumenttrack basenote="57" pitch="0" pitchrange="1" pan="0" usemasterpitch="1" fxch="4" vol="71.2">
                <instrument name="audiofileprocessor">
                  <audiofileprocessor looped="0" lframe="0" reversed="0" eframe="1" stutter="0" sframe="0" interp="1" src="/home/pass/samples/sillydrums/crash1.wav" amp="100"/>
                </instrument>
                <eldata fwet="0" ftype="0" fcut="14000" fres="0.5">
                  <elvol lspd_denominator="4" lamt="0" amt="1" dec="2" hold="2" lshp="0" ctlenvamt="0" lspd="0.1" rel="2" pdel="0" lspd_syncmode="0" att="0" sustain="1" userwavefile="" latt="0" lspd_numerator="4" lpdel="0" x100="0"/>
                  <elcut lspd_denominator="4" lamt="0" amt="0" dec="0.5" hold="0.5" lshp="0" ctlenvamt="0" lspd="0.1" rel="0.1" pdel="0" lspd_syncmode="0" att="0" sustain="0.5" userwavefile="" latt="0" lspd_numerator="4" lpdel="0" x100="0"/>
                  <elres lspd_denominator="4" lamt="0" amt="0" dec="0.5" hold="0.5" lshp="0" ctlenvamt="0" lspd="0.1" rel="0.1" pdel="0" lspd_syncmode="0" att="0" sustain="0.5" userwavefile="" latt="0" lspd_numerator="4" lpdel="0" x100="0"/>
                </eldata>
                <chordcreator chordrange="1" chord-enabled="0" chord="0"/>
                <arpeggiator arptime_syncmode="0" arptime="200" arptime_denominator="4" arpdir="0" arp="0" arpmode="0" arpcycle="0" arpmiss="0" arptime_numerator="4" arprange="1" arp-enabled="0" arpskip="0" arpgate="100"/>
                <midiport inputcontroller="0" outputchannel="1" outputprogram="1" readable="0" outputcontroller="0" fixedoutputvelocity="-1" fixedoutputnote="-1" fixedinputvelocity="-1" writable="0" inputchannel="0" basevelocity="63"/>
                <fxchain enabled="0" numofeffects="0"/>
              </instrumenttrack>
              <pattern pos="0" muted="0" steps="48" type="0" name="crash1.wav">
                <note len="-192" pos="0" pan="0" vol="100" key="57"/>
                <note len="-192" pos="384" pan="0" vol="100" key="57"/>
              </pattern>
              <pattern pos="192" muted="0" steps="16" type="0" name="crash1.wav">
                <note len="-192" pos="0" pan="0" vol="100" key="57"/>
              </pattern>
              <pattern pos="384" muted="0" steps="16" type="0" name="crash1.wav">
                <note len="-192" pos="0" pan="0" vol="100" key="57"/>
              </pattern>
              <pattern pos="576" muted="0" steps="16" type="0" name="crash1.wav">
                <note len="-192" pos="0" pan="0" vol="100" key="57"/>
              </pattern>
              <pattern pos="768" muted="0" steps="32" type="0" name="crash1.wav">
                <note len="-192" pos="0" pan="0" vol="100" key="57"/>
                <note len="-192" pos="372" pan="0" vol="20" key="57"/>
                <note len="-192" pos="384" pan="0" vol="20" key="57"/>
              </pattern>
              <pattern pos="960" muted="0" steps="32" type="0" name="crash1.wav">
                <note len="-192" pos="384" pan="0" vol="20" key="57"/>
              </pattern>
              <pattern pos="1152" muted="0" steps="16" type="0" name="crash1.wav">
                <note len="-192" pos="0" pan="0" vol="100" key="57"/>
              </pattern>
              <pattern pos="1344" muted="0" steps="32" type="0" name="crash1.wav">
                <note len="-192" pos="0" pan="0" vol="100" key="57"/>
              </pattern>
              <pattern pos="1536" muted="0" steps="32" type="0" name="crash1.wav">
                <note len="-192" pos="0" pan="0" vol="100" key="57"/>
              </pattern>
              <pattern pos="1728" muted="0" steps="16" type="0" name="crash1.wav"/>
              <pattern pos="1920" muted="0" steps="48" type="0" name="crash1.wav">
                <note len="-192" pos="0" pan="0" vol="100" key="57"/>
                <note len="-192" pos="384" pan="0" vol="100" key="57"/>
              </pattern>
              <pattern pos="2112" muted="0" steps="16" type="0" name="crash1.wav">
                <note len="-192" pos="0" pan="0" vol="100" key="57"/>
              </pattern>
              <pattern pos="2304" muted="0" steps="16" type="0" name="crash1.wav"/>
              <pattern pos="2496" muted="0" steps="16" type="0" name="crash1.wav">
                <note len="-192" pos="0" pan="0" vol="100" key="57"/>
              </pattern>
              <pattern pos="2688" muted="0" steps="16" type="0" name="crash1.wav">
                <note len="-192" pos="0" pan="0" vol="100" key="57"/>
              </pattern>
              <pattern pos="2880" muted="0" steps="16" type="0" name="crash1.wav"/>
              <pattern pos="3072" muted="0" steps="96" type="0" name="crash1.wav">
                <note len="-192" pos="0" pan="0" vol="100" key="57"/>
                <note len="-192" pos="768" pan="0" vol="100" key="57"/>
              </pattern>
              <pattern pos="3264" muted="0" steps="64" type="0" name="crash1.wav">
                <note len="-192" pos="0" pan="0" vol="100" key="57"/>
                <note len="-192" pos="192" pan="0" vol="100" key="57"/>
                <note len="-192" pos="384" pan="0" vol="100" key="57"/>
                <note len="-192" pos="480" pan="0" vol="100" key="57"/>
                <note len="-192" pos="672" pan="0" vol="100" key="57"/>
              </pattern>
              <pattern pos="3456" muted="0" steps="80" type="0" name="crash1.wav">
                <note len="-192" pos="0" pan="0" vol="100" key="57"/>
                <note len="-192" pos="384" pan="0" vol="100" key="57"/>
                <note len="-192" pos="672" pan="0" vol="100" key="57"/>
                <note len="-192" pos="768" pan="0" vol="100" key="57"/>
              </pattern>
              <pattern pos="3648" muted="0" steps="64" type="0" name="crash1.wav">
                <note len="-192" pos="0" pan="0" vol="100" key="57"/>
              </pattern>
              <pattern pos="3840" muted="0" steps="64" type="0" name="crash1.wav">
                <note len="-192" pos="0" pan="0" vol="100" key="57"/>
                <note len="-192" pos="384" pan="0" vol="100" key="57"/>
              </pattern>
            </track>
            <track muted="0" solo="0" type="0" name="crash1m">
              <instrumenttrack basenote="57" pitch="0" pitchrange="1" pan="0" usemasterpitch="1" fxch="4" vol="71.2">
                <instrument name="audiofileprocessor">
                  <audiofileprocessor looped="0" lframe="0" reversed="0" eframe="1" stutter="0" sframe="0" interp="1" src="/home/pass/samples/sillydrums/crash1.wav" amp="100"/>
                </instrument>
                <eldata fwet="0" ftype="0" fcut="14000" fres="0.5">
                  <elvol lspd_denominator="4" lamt="0" amt="1" dec="0.216" hold="0.232" lshp="0" ctlenvamt="0" lspd="0.1" rel="0.208" pdel="0" lspd_syncmode="0" att="0" sustain="0" userwavefile="" latt="0" lspd_numerator="4" lpdel="0" x100="0"/>
                  <elcut lspd_denominator="4" lamt="0" amt="0" dec="0.5" hold="0.5" lshp="0" ctlenvamt="0" lspd="0.1" rel="0.1" pdel="0" lspd_syncmode="0" att="0" sustain="0.5" userwavefile="" latt="0" lspd_numerator="4" lpdel="0" x100="0"/>
                  <elres lspd_denominator="4" lamt="0" amt="0" dec="0.5" hold="0.5" lshp="0" ctlenvamt="0" lspd="0.1" rel="0.1" pdel="0" lspd_syncmode="0" att="0" sustain="0.5" userwavefile="" latt="0" lspd_numerator="4" lpdel="0" x100="0"/>
                </eldata>
                <chordcreator chordrange="1" chord-enabled="0" chord="0"/>
                <arpeggiator arptime_syncmode="0" arptime="200" arptime_denominator="4" arpdir="0" arp="0" arpmode="0" arpcycle="0" arpmiss="0" arptime_numerator="4" arprange="1" arp-enabled="0" arpskip="0" arpgate="100"/>
                <midiport inputcontroller="0" outputchannel="1" outputprogram="1" readable="0" outputcontroller="0" fixedoutputvelocity="-1" fixedoutputnote="-1" fixedinputvelocity="-1" writable="0" inputchannel="0" basevelocity="63"/>
                <fxchain enabled="0" numofeffects="0"/>
              </instrumenttrack>
              <pattern pos="0" muted="0" steps="16" type="0" name="crash1m"/>
              <pattern pos="192" muted="0" steps="16" type="0" name="crash1m"/>
              <pattern pos="384" muted="0" steps="16" type="0" name="crash1m"/>
              <pattern pos="576" muted="0" steps="16" type="0" name="crash1m"/>
              <pattern pos="768" muted="0" steps="16" type="0" name="crash1m"/>
              <pattern pos="960" muted="0" steps="32" type="0" name="crash1m"/>
              <pattern pos="1152" muted="0" steps="16" type="0" name="crash1m"/>
              <pattern pos="1344" muted="0" steps="32" type="0" name="crash1m"/>
              <pattern pos="1536" muted="0" steps="32" type="0" name="crash1m"/>
              <pattern pos="1728" muted="0" steps="16" type="0" name="crash1m"/>
              <pattern pos="1920" muted="0" steps="16" type="0" name="crash1m"/>
              <pattern pos="2112" muted="0" steps="16" type="0" name="crash1m"/>
              <pattern pos="2304" muted="0" steps="16" type="0" name="crash1m">
                <note len="-192" pos="0" pan="0" vol="100" key="57"/>
              </pattern>
              <pattern pos="2496" muted="0" steps="16" type="0" name="crash1m"/>
              <pattern pos="2688" muted="0" steps="16" type="0" name="crash1m"/>
              <pattern pos="2880" muted="0" steps="16" type="0" name="crash1m">
                <note len="-192" pos="0" pan="0" vol="100" key="57"/>
                <note len="-192" pos="72" pan="0" vol="100" key="57"/>
              </pattern>
              <pattern pos="3072" muted="0" steps="96" type="0" name="crash1m"/>
              <pattern pos="3264" muted="0" steps="64" type="0" name="crash1m"/>
              <pattern pos="3456" muted="0" steps="80" type="0" name="crash1m"/>
              <pattern pos="3648" muted="0" steps="64" type="0" name="crash1m"/>
              <pattern pos="3840" muted="0" steps="64" type="0" name="crash1m"/>
            </track>
            <track muted="0" solo="0" type="0" name="crash2.wav">
              <instrumenttrack basenote="57" pitch="0" pitchrange="1" pan="28" usemasterpitch="1" fxch="5" vol="76.8">
                <instrument name="audiofileprocessor">
                  <audiofileprocessor looped="0" lframe="0" reversed="0" eframe="1" stutter="0" sframe="0" interp="1" src="/home/pass/samples/sillydrums/crash2.wav" amp="100"/>
                </instrument>
                <eldata fwet="0" ftype="0" fcut="14000" fres="0.5">
                  <elvol lspd_denominator="4" lamt="0" amt="1" dec="2" hold="2" lshp="0" ctlenvamt="0" lspd="0.1" rel="2" pdel="0" lspd_syncmode="0" att="0" sustain="1" userwavefile="" latt="0" lspd_numerator="4" lpdel="0" x100="0"/>
                  <elcut lspd_denominator="4" lamt="0" amt="0" dec="0.5" hold="0.5" lshp="0" ctlenvamt="0" lspd="0.1" rel="0.1" pdel="0" lspd_syncmode="0" att="0" sustain="0.5" userwavefile="" latt="0" lspd_numerator="4" lpdel="0" x100="0"/>
                  <elres lspd_denominator="4" lamt="0" amt="0" dec="0.5" hold="0.5" lshp="0" ctlenvamt="0" lspd="0.1" rel="0.1" pdel="0" lspd_syncmode="0" att="0" sustain="0.5" userwavefile="" latt="0" lspd_numerator="4" lpdel="0" x100="0"/>
                </eldata>
                <chordcreator chordrange="1" chord-enabled="0" chord="0"/>
                <arpeggiator arptime_syncmode="0" arptime="200" arptime_denominator="4" arpdir="0" arp="0" arpmode="0" arpcycle="0" arpmiss="0" arptime_numerator="4" arprange="1" arp-enabled="0" arpskip="0" arpgate="100"/>
                <midiport inputcontroller="0" outputchannel="1" outputprogram="1" readable="0" outputcontroller="0" fixedoutputvelocity="-1" fixedoutputnote="-1" fixedinputvelocity="-1" writable="0" inputchannel="0" basevelocity="63"/>
                <fxchain enabled="0" numofeffects="0"/>
              </instrumenttrack>
              <pattern pos="0" muted="0" steps="32" type="0" name="crash2.wav">
                <note len="-192" pos="192" pan="0" vol="100" key="57"/>
              </pattern>
              <pattern pos="192" muted="0" steps="32" type="0" name="crash2.wav">
                <note len="-192" pos="192" pan="0" vol="100" key="57"/>
              </pattern>
              <pattern pos="384" muted="0" steps="48" type="0" name="crash2.wav">
                <note len="-192" pos="384" pan="0" vol="100" key="57"/>
              </pattern>
              <pattern pos="576" muted="0" steps="48" type="0" name="crash2.wav">
                <note len="-192" pos="384" pan="0" vol="100" key="57"/>
              </pattern>
              <pattern pos="768" muted="0" steps="48" type="0" name="crash2.wav">
                <note len="-192" pos="384" pan="0" vol="100" key="57"/>
              </pattern>
              <pattern pos="960" muted="0" steps="32" type="0" name="crash2.wav">
                <note len="-192" pos="0" pan="0" vol="100" key="57"/>
              </pattern>
              <pattern pos="1152" muted="0" steps="48" type="0" name="crash2.wav">
                <note len="-192" pos="384" pan="0" vol="100" key="57"/>
              </pattern>
              <pattern pos="1344" muted="0" steps="32" type="0" name="crash2.wav">
                <note len="-192" pos="192" pan="0" vol="100" key="57"/>
              </pattern>
              <pattern pos="1536" muted="0" steps="32" type="0" name="crash2.wav">
                <note len="-192" pos="192" pan="0" vol="100" key="57"/>
              </pattern>
              <pattern pos="1728" muted="0" steps="16" type="0" name="crash2.wav"/>
              <pattern pos="1920" muted="0" steps="32" type="0" name="crash2.wav">
                <note len="-192" pos="192" pan="0" vol="100" key="57"/>
              </pattern>
              <pattern pos="2112" muted="0" steps="48" type="0" name="crash2.wav">
                <note len="-192" pos="384" pan="0" vol="100" key="57"/>
              </pattern>
              <pattern pos="2304" muted="0" steps="16" type="0" name="crash2.wav"/>
              <pattern pos="2496" muted="0" steps="32" type="0" name="crash2.wav">
                <note len="-192" pos="192" pan="0" vol="100" key="57"/>
              </pattern>
              <pattern pos="2688" muted="0" steps="16" type="0" name="crash2.wav">
                <note len="-192" pos="168" pan="0" vol="100" key="57"/>
              </pattern>
              <pattern pos="2880" muted="0" steps="16" type="0" name="crash2.wav"/>
              <pattern pos="3072" muted="0" steps="96" type="0" name="crash2.wav">
                <note len="-192" pos="384" pan="0" vol="100" key="57"/>
                <note len="-192" pos="864" pan="0" vol="100" key="57"/>
              </pattern>
              <pattern pos="3264" muted="0" steps="64" type="0" name="crash2.wav">
                <note len="-192" pos="96" pan="0" vol="100" key="57"/>
                <note len="-192" pos="288" pan="0" vol="100" key="57"/>
                <note len="-192" pos="432" pan="0" vol="100" key="57"/>
                <note len="-192" pos="528" pan="0" vol="100" key="57"/>
              </pattern>
              <pattern pos="3456" muted="0" steps="80" type="0" name="crash2.wav">
                <note len="-192" pos="192" pan="0" vol="100" key="57"/>
                <note len="-192" pos="480" pan="0" vol="100" key="57"/>
                <note len="-192" pos="768" pan="0" vol="100" key="57"/>
              </pattern>
              <pattern pos="3648" muted="0" steps="64" type="0" name="crash2.wav">
                <note len="-192" pos="384" pan="0" vol="100" key="57"/>
              </pattern>
              <pattern pos="3840" muted="0" steps="64" type="0" name="crash2.wav">
                <note len="-192" pos="192" pan="0" vol="100" key="57"/>
                <note len="-192" pos="480" pan="0" vol="100" key="57"/>
              </pattern>
            </track>
            <track muted="0" solo="0" type="0" name="china.wav">
              <instrumenttrack basenote="57" pitch="0" pitchrange="1" pan="0" usemasterpitch="1" fxch="6" vol="130.4">
                <instrument name="audiofileprocessor">
                  <audiofileprocessor looped="0" lframe="0" reversed="0" eframe="1" stutter="0" sframe="0" interp="1" src="/home/pass/samples/sillydrums/china.wav" amp="100"/>
                </instrument>
                <eldata fwet="0" ftype="0" fcut="14000" fres="0.5">
                  <elvol lspd_denominator="4" lamt="0" amt="1" dec="2" hold="2" lshp="0" ctlenvamt="0" lspd="0.1" rel="2" pdel="0" lspd_syncmode="0" att="0" sustain="1" userwavefile="" latt="0" lspd_numerator="4" lpdel="0" x100="0"/>
                  <elcut lspd_denominator="4" lamt="0" amt="0" dec="0.5" hold="0.5" lshp="0" ctlenvamt="0" lspd="0.1" rel="0.1" pdel="0" lspd_syncmode="0" att="0" sustain="0.5" userwavefile="" latt="0" lspd_numerator="4" lpdel="0" x100="0"/>
                  <elres lspd_denominator="4" lamt="0" amt="0" dec="0.5" hold="0.5" lshp="0" ctlenvamt="0" lspd="0.1" rel="0.1" pdel="0" lspd_syncmode="0" att="0" sustain="0.5" userwavefile="" latt="0" lspd_numerator="4" lpdel="0" x100="0"/>
                </eldata>
                <chordcreator chordrange="1" chord-enabled="0" chord="0"/>
                <arpeggiator arptime_syncmode="0" arptime="200" arptime_denominator="4" arpdir="0" arp="0" arpmode="0" arpcycle="0" arpmiss="0" arptime_numerator="4" arprange="1" arp-enabled="0" arpskip="0" arpgate="100"/>
                <midiport inputcontroller="0" outputchannel="1" outputprogram="1" readable="0" outputcontroller="0" fixedoutputvelocity="-1" fixedoutputnote="-1" fixedinputvelocity="-1" writable="0" inputchannel="0" basevelocity="63"/>
                <fxchain enabled="0" numofeffects="0"/>
              </instrumenttrack>
              <pattern pos="0" muted="0" steps="16" type="0" name="china.wav"/>
              <pattern pos="192" muted="0" steps="16" type="0" name="china.wav"/>
              <pattern pos="384" muted="0" steps="16" type="0" name="china.wav"/>
              <pattern pos="576" muted="0" steps="16" type="0" name="china.wav"/>
              <pattern pos="768" muted="0" steps="16" type="0" name="china.wav"/>
              <pattern pos="960" muted="0" steps="32" type="0" name="china.wav"/>
              <pattern pos="1152" muted="0" steps="16" type="0" name="china.wav"/>
              <pattern pos="1344" muted="0" steps="32" type="0" name="china.wav"/>
              <pattern pos="1536" muted="0" steps="32" type="0" name="china.wav"/>
              <pattern pos="1728" muted="0" steps="16" type="0" name="china.wav"/>
              <pattern pos="1920" muted="0" steps="16" type="0" name="china.wav"/>
              <pattern pos="2112" muted="0" steps="16" type="0" name="china.wav"/>
              <pattern pos="2304" muted="0" steps="16" type="0" name="china.wav"/>
              <pattern pos="2496" muted="0" steps="16" type="0" name="china.wav"/>
              <pattern pos="2688" muted="0" steps="16" type="0" name="china.wav"/>
              <pattern pos="2880" muted="0" steps="16" type="0" name="china.wav"/>
              <pattern pos="3072" muted="0" steps="96" type="0" name="china.wav"/>
              <pattern pos="3264" muted="0" steps="64" type="0" name="china.wav"/>
              <pattern pos="3456" muted="0" steps="80" type="0" name="china.wav"/>
              <pattern pos="3648" muted="0" steps="64" type="0" name="china.wav"/>
              <pattern pos="3840" muted="0" steps="64" type="0" name="china.wav"/>
            </track>
            <track muted="0" solo="0" type="0" name="hiTom.wav">
              <instrumenttrack basenote="57" pitch="0" pitchrange="1" pan="0" usemasterpitch="1" fxch="7" vol="130.4">
                <instrument name="audiofileprocessor">
                  <audiofileprocessor looped="0" lframe="0" reversed="0" eframe="1" stutter="0" sframe="0" interp="1" src="/home/pass/samples/sillydrums/hiTom.wav" amp="100"/>
                </instrument>
                <eldata fwet="0" ftype="0" fcut="14000" fres="0.5">
                  <elvol lspd_denominator="4" lamt="0" amt="1" dec="2" hold="2" lshp="0" ctlenvamt="0" lspd="0.1" rel="2" pdel="0" lspd_syncmode="0" att="0" sustain="1" userwavefile="" latt="0" lspd_numerator="4" lpdel="0" x100="0"/>
                  <elcut lspd_denominator="4" lamt="0" amt="0" dec="0.5" hold="0.5" lshp="0" ctlenvamt="0" lspd="0.1" rel="0.1" pdel="0" lspd_syncmode="0" att="0" sustain="0.5" userwavefile="" latt="0" lspd_numerator="4" lpdel="0" x100="0"/>
                  <elres lspd_denominator="4" lamt="0" amt="0" dec="0.5" hold="0.5" lshp="0" ctlenvamt="0" lspd="0.1" rel="0.1" pdel="0" lspd_syncmode="0" att="0" sustain="0.5" userwavefile="" latt="0" lspd_numerator="4" lpdel="0" x100="0"/>
                </eldata>
                <chordcreator chordrange="1" chord-enabled="0" chord="0"/>
                <arpeggiator arptime_syncmode="0" arptime="200" arptime_denominator="4" arpdir="0" arp="0" arpmode="0" arpcycle="0" arpmiss="0" arptime_numerator="4" arprange="1" arp-enabled="0" arpskip="0" arpgate="100"/>
                <midiport inputcontroller="0" outputchannel="1" outputprogram="1" readable="0" outputcontroller="0" fixedoutputvelocity="-1" fixedoutputnote="-1" fixedinputvelocity="-1" writable="0" inputchannel="0" basevelocity="63"/>
                <fxchain enabled="0" numofeffects="0"/>
              </instrumenttrack>
              <pattern pos="0" muted="0" steps="16" type="0" name="hiTom.wav"/>
              <pattern pos="192" muted="0" steps="16" type="0" name="hiTom.wav"/>
              <pattern pos="384" muted="0" steps="16" type="0" name="hiTom.wav"/>
              <pattern pos="576" muted="0" steps="64" type="0" name="hiTom.wav">
                <note len="-192" pos="696" pan="0" vol="100" key="57"/>
                <note len="-192" pos="708" pan="0" vol="100" key="57"/>
              </pattern>
              <pattern pos="768" muted="0" steps="16" type="0" name="hiTom.wav"/>
              <pattern pos="960" muted="0" steps="32" type="0" name="hiTom.wav">
                <note len="-192" pos="312" pan="0" vol="100" key="57"/>
                <note len="-192" pos="324" pan="0" vol="100" key="57"/>
              </pattern>
              <pattern pos="1152" muted="0" steps="16" type="0" name="hiTom.wav"/>
              <pattern pos="1344" muted="0" steps="32" type="0" name="hiTom.wav"/>
              <pattern pos="1536" muted="0" steps="32" type="0" name="hiTom.wav"/>
              <pattern pos="1728" muted="0" steps="16" type="0" name="hiTom.wav"/>
              <pattern pos="1920" muted="0" steps="16" type="0" name="hiTom.wav"/>
              <pattern pos="2112" muted="0" steps="16" type="0" name="hiTom.wav"/>
              <pattern pos="2304" muted="0" steps="16" type="0" name="hiTom.wav"/>
              <pattern pos="2496" muted="0" steps="16" type="0" name="hiTom.wav"/>
              <pattern pos="2688" muted="0" steps="16" type="0" name="hiTom.wav"/>
              <pattern pos="2880" muted="0" steps="16" type="0" name="hiTom.wav"/>
              <pattern pos="3072" muted="0" steps="96" type="0" name="hiTom.wav">
                <note len="-192" pos="696" pan="0" vol="100" key="57"/>
                <note len="-192" pos="792" pan="0" vol="100" key="57"/>
                <note len="-192" pos="816" pan="0" vol="100" key="57"/>
                <note len="-192" pos="840" pan="0" vol="100" key="57"/>
                <note len="-192" pos="984" pan="0" vol="100" key="57"/>
                <note len="-192" pos="996" pan="0" vol="100" key="57"/>
                <note len="-192" pos="1008" pan="0" vol="100" key="57"/>
                <note len="-192" pos="1020" pan="0" vol="100" key="57"/>
              </pattern>
              <pattern pos="3264" muted="0" steps="64" type="0" name="hiTom.wav">
                <note len="-192" pos="396" pan="0" vol="100" key="57"/>
                <note len="-192" pos="408" pan="0" vol="100" key="57"/>
                <note len="-192" pos="420" pan="0" vol="100" key="57"/>
                <note len="-192" pos="444" pan="0" vol="100" key="57"/>
                <note len="-192" pos="456" pan="0" vol="100" key="57"/>
                <note len="-192" pos="468" pan="0" vol="100" key="57"/>
                <note len="-192" pos="600" pan="0" vol="100" key="57"/>
              </pattern>
              <pattern pos="3456" muted="0" steps="80" type="0" name="hiTom.wav">
                <note len="-192" pos="396" pan="0" vol="100" key="57"/>
                <note len="-192" pos="408" pan="0" vol="100" key="57"/>
                <note len="-192" pos="420" pan="0" vol="100" key="57"/>
                <note len="-192" pos="444" pan="0" vol="100" key="57"/>
                <note len="-192" pos="456" pan="0" vol="100" key="57"/>
                <note len="-192" pos="468" pan="0" vol="100" key="57"/>
                <note len="-192" pos="600" pan="0" vol="100" key="57"/>
              </pattern>
              <pattern pos="3648" muted="0" steps="64" type="0" name="hiTom.wav"/>
              <pattern pos="3840" muted="0" steps="64" type="0" name="hiTom.wav">
                <note len="-192" pos="216" pan="0" vol="100" key="57"/>
                <note len="-192" pos="312" pan="0" vol="100" key="57"/>
                <note len="-192" pos="588" pan="0" vol="100" key="57"/>
                <note len="-192" pos="600" pan="0" vol="100" key="57"/>
                <note len="-192" pos="612" pan="0" vol="100" key="57"/>
              </pattern>
            </track>
            <track muted="0" solo="0" type="0" name="midTom.wav">
              <instrumenttrack basenote="57" pitch="0" pitchrange="1" pan="0" usemasterpitch="1" fxch="8" vol="130.4">
                <instrument name="audiofileprocessor">
                  <audiofileprocessor looped="0" lframe="0" reversed="0" eframe="1" stutter="0" sframe="0" interp="1" src="/home/pass/samples/sillydrums/midTom.wav" amp="100"/>
                </instrument>
                <eldata fwet="0" ftype="0" fcut="14000" fres="0.5">
                  <elvol lspd_denominator="4" lamt="0" amt="1" dec="2" hold="2" lshp="0" ctlenvamt="0" lspd="0.1" rel="2" pdel="0" lspd_syncmode="0" att="0" sustain="1" userwavefile="" latt="0" lspd_numerator="4" lpdel="0" x100="0"/>
                  <elcut lspd_denominator="4" lamt="0" amt="0" dec="0.5" hold="0.5" lshp="0" ctlenvamt="0" lspd="0.1" rel="0.1" pdel="0" lspd_syncmode="0" att="0" sustain="0.5" userwavefile="" latt="0" lspd_numerator="4" lpdel="0" x100="0"/>
                  <elres lspd_denominator="4" lamt="0" amt="0" dec="0.5" hold="0.5" lshp="0" ctlenvamt="0" lspd="0.1" rel="0.1" pdel="0" lspd_syncmode="0" att="0" sustain="0.5" userwavefile="" latt="0" lspd_numerator="4" lpdel="0" x100="0"/>
                </eldata>
                <chordcreator chordrange="1" chord-enabled="0" chord="0"/>
                <arpeggiator arptime_syncmode="0" arptime="200" arptime_denominator="4" arpdir="0" arp="0" arpmode="0" arpcycle="0" arpmiss="0" arptime_numerator="4" arprange="1" arp-enabled="0" arpskip="0" arpgate="100"/>
                <midiport inputcontroller="0" outputchannel="1" outputprogram="1" readable="0" outputcontroller="0" fixedoutputvelocity="-1" fixedoutputnote="-1" fixedinputvelocity="-1" writable="0" inputchannel="0" basevelocity="63"/>
                <fxchain enabled="0" numofeffects="0"/>
              </instrumenttrack>
              <pattern pos="0" muted="0" steps="32" type="0" name="midTom.wav">
                <note len="-192" pos="336" pan="0" vol="100" key="57"/>
                <note len="-192" pos="360" pan="0" vol="100" key="57"/>
              </pattern>
              <pattern pos="192" muted="0" steps="32" type="0" name="midTom.wav">
                <note len="-192" pos="336" pan="0" vol="100" key="57"/>
              </pattern>
              <pattern pos="384" muted="0" steps="16" type="0" name="midTom.wav"/>
              <pattern pos="576" muted="0" steps="64" type="0" name="midTom.wav">
                <note len="-192" pos="600" pan="0" vol="100" key="57"/>
                <note len="-192" pos="612" pan="0" vol="100" key="57"/>
                <note len="-192" pos="720" pan="0" vol="100" key="57"/>
                <note len="-192" pos="732" pan="0" vol="100" key="57"/>
              </pattern>
              <pattern pos="768" muted="0" steps="16" type="0" name="midTom.wav"/>
              <pattern pos="960" muted="0" steps="32" type="0" name="midTom.wav">
                <note len="-192" pos="216" pan="0" vol="100" key="57"/>
                <note len="-192" pos="228" pan="0" vol="100" key="57"/>
                <note len="-192" pos="264" pan="0" vol="100" key="57"/>
                <note len="-192" pos="276" pan="0" vol="100" key="57"/>
                <note len="-192" pos="336" pan="0" vol="100" key="57"/>
                <note len="-192" pos="348" pan="0" vol="100" key="57"/>
              </pattern>
              <pattern pos="1152" muted="0" steps="16" type="0" name="midTom.wav"/>
              <pattern pos="1344" muted="0" steps="32" type="0" name="midTom.wav"/>
              <pattern pos="1536" muted="0" steps="32" type="0" name="midTom.wav"/>
              <pattern pos="1728" muted="0" steps="16" type="0" name="midTom.wav">
                <note len="-192" pos="108" pan="0" vol="100" key="57"/>
                <note len="-192" pos="120" pan="0" vol="100" key="57"/>
                <note len="-192" pos="132" pan="0" vol="100" key="57"/>
              </pattern>
              <pattern pos="1920" muted="0" steps="16" type="0" name="midTom.wav"/>
              <pattern pos="2112" muted="0" steps="16" type="0" name="midTom.wav"/>
              <pattern pos="2304" muted="0" steps="16" type="0" name="midTom.wav"/>
              <pattern pos="2496" muted="0" steps="16" type="0" name="midTom.wav"/>
              <pattern pos="2688" muted="0" steps="16" type="0" name="midTom.wav"/>
              <pattern pos="2880" muted="0" steps="16" type="0" name="midTom.wav"/>
              <pattern pos="3072" muted="0" steps="96" type="0" name="midTom.wav">
                <note len="-192" pos="696" pan="0" vol="100" key="57"/>
                <note len="-192" pos="720" pan="0" vol="100" key="57"/>
                <note len="-192" pos="744" pan="0" vol="100" key="57"/>
                <note len="-192" pos="792" pan="0" vol="100" key="57"/>
                <note len="-192" pos="816" pan="0" vol="100" key="57"/>
                <note len="-192" pos="840" pan="0" vol="100" key="57"/>
                <note len="-192" pos="888" pan="0" vol="100" key="57"/>
                <note len="-192" pos="1056" pan="0" vol="100" key="57"/>
                <note len="-192" pos="1068" pan="0" vol="100" key="57"/>
                <note len="-192" pos="1080" pan="0" vol="100" key="57"/>
                <note len="-192" pos="1092" pan="0" vol="100" key="57"/>
              </pattern>
              <pattern pos="3264" muted="0" steps="64" type="0" name="midTom.wav">
                <note len="-192" pos="492" pan="0" vol="100" key="57"/>
                <note len="-192" pos="504" pan="0" vol="100" key="57"/>
                <note len="-192" pos="516" pan="0" vol="100" key="57"/>
                <note len="-192" pos="540" pan="0" vol="100" key="57"/>
                <note len="-192" pos="552" pan="0" vol="100" key="57"/>
                <note len="-192" pos="564" pan="0" vol="100" key="57"/>
                <note len="-192" pos="612" pan="0" vol="100" key="57"/>
                <note len="-192" pos="648" pan="0" vol="100" key="57"/>
              </pattern>
              <pattern pos="3456" muted="0" steps="80" type="0" name="midTom.wav">
                <note len="-192" pos="492" pan="0" vol="100" key="57"/>
                <note len="-192" pos="504" pan="0" vol="100" key="57"/>
                <note len="-192" pos="516" pan="0" vol="100" key="57"/>
                <note len="-192" pos="540" pan="0" vol="100" key="57"/>
                <note len="-192" pos="552" pan="0" vol="100" key="57"/>
                <note len="-192" pos="564" pan="0" vol="100" key="57"/>
                <note len="-192" pos="612" pan="0" vol="100" key="57"/>
                <note len="-192" pos="648" pan="0" vol="100" key="57"/>
              </pattern>
              <pattern pos="3648" muted="0" steps="64" type="0" name="midTom.wav"/>
              <pattern pos="3840" muted="0" steps="64" type="0" name="midTom.wav">
                <note len="-192" pos="240" pan="0" vol="100" key="57"/>
                <note len="-192" pos="336" pan="0" vol="100" key="57"/>
                <note len="-192" pos="636" pan="0" vol="100" key="57"/>
                <note len="-192" pos="648" pan="0" vol="100" key="57"/>
                <note len="-192" pos="660" pan="0" vol="100" key="57"/>
              </pattern>
            </track>
            <track muted="0" solo="0" type="0" name="loTom.wav">
              <instrumenttrack basenote="57" pitch="0" pitchrange="1" pan="0" usemasterpitch="1" fxch="9" vol="130.4">
                <instrument name="audiofileprocessor">
                  <audiofileprocessor looped="0" lframe="0" reversed="0" eframe="1" stutter="0" sframe="0" interp="1" src="/home/pass/samples/sillydrums/loTom.wav" amp="100"/>
                </instrument>
                <eldata fwet="0" ftype="0" fcut="14000" fres="0.5">
                  <elvol lspd_denominator="4" lamt="0" amt="1" dec="2" hold="2" lshp="0" ctlenvamt="0" lspd="0.1" rel="2" pdel="0" lspd_syncmode="0" att="0" sustain="1" userwavefile="" latt="0" lspd_numerator="4" lpdel="0" x100="0"/>
                  <elcut lspd_denominator="4" lamt="0" amt="0" dec="0.5" hold="0.5" lshp="0" ctlenvamt="0" lspd="0.1" rel="0.1" pdel="0" lspd_syncmode="0" att="0" sustain="0.5" userwavefile="" latt="0" lspd_numerator="4" lpdel="0" x100="0"/>
                  <elres lspd_denominator="4" lamt="0" amt="0" dec="0.5" hold="0.5" lshp="0" ctlenvamt="0" lspd="0.1" rel="0.1" pdel="0" lspd_syncmode="0" att="0" sustain="0.5" userwavefile="" latt="0" lspd_numerator="4" lpdel="0" x100="0"/>
                </eldata>
                <chordcreator chordrange="1" chord-enabled="0" chord="0"/>
                <arpeggiator arptime_syncmode="0" arptime="200" arptime_denominator="4" arpdir="0" arp="0" arpmode="0" arpcycle="0" arpmiss="0" arptime_numerator="4" arprange="1" arp-enabled="0" arpskip="0" arpgate="100"/>
                <midiport inputcontroller="0" outputchannel="1" outputprogram="1" readable="0" outputcontroller="0" fixedoutputvelocity="-1" fixedoutputnote="-1" fixedinputvelocity="-1" writable="0" inputchannel="0" basevelocity="63"/>
                <fxchain enabled="0" numofeffects="0"/>
              </instrumenttrack>
              <pattern pos="0" muted="0" steps="16" type="0" name="loTom.wav"/>
              <pattern pos="192" muted="0" steps="32" type="0" name="loTom.wav">
                <note len="-192" pos="360" pan="0" vol="100" key="57"/>
              </pattern>
              <pattern pos="384" muted="0" steps="16" type="0" name="loTom.wav"/>
              <pattern pos="576" muted="0" steps="64" type="0" name="loTom.wav">
                <note len="-192" pos="648" pan="0" vol="100" key="57"/>
                <note len="-192" pos="660" pan="0" vol="100" key="57"/>
                <note len="-192" pos="744" pan="0" vol="100" key="57"/>
                <note len="-192" pos="756" pan="0" vol="100" key="57"/>
              </pattern>
              <pattern pos="768" muted="0" steps="16" type="0" name="loTom.wav"/>
              <pattern pos="960" muted="0" steps="32" type="0" name="loTom.wav">
                <note len="-192" pos="360" pan="0" vol="100" key="57"/>
                <note len="-192" pos="372" pan="0" vol="100" key="57"/>
              </pattern>
              <pattern pos="1152" muted="0" steps="16" type="0" name="loTom.wav"/>
              <pattern pos="1344" muted="0" steps="32" type="0" name="loTom.wav"/>
              <pattern pos="1536" muted="0" steps="32" type="0" name="loTom.wav"/>
              <pattern pos="1728" muted="0" steps="16" type="0" name="loTom.wav">
                <note len="-192" pos="156" pan="0" vol="100" key="57"/>
                <note len="-192" pos="168" pan="0" vol="100" key="57"/>
                <note len="-192" pos="180" pan="0" vol="100" key="57"/>
              </pattern>
              <pattern pos="1920" muted="0" steps="16" type="0" name="loTom.wav"/>
              <pattern pos="2112" muted="0" steps="16" type="0" name="loTom.wav"/>
              <pattern pos="2304" muted="0" steps="16" type="0" name="loTom.wav"/>
              <pattern pos="2496" muted="0" steps="16" type="0" name="loTom.wav"/>
              <pattern pos="2688" muted="0" steps="16" type="0" name="loTom.wav"/>
              <pattern pos="2880" muted="0" steps="16" type="0" name="loTom.wav"/>
              <pattern pos="3072" muted="0" steps="96" type="0" name="loTom.wav">
                <note len="-192" pos="720" pan="0" vol="100" key="57"/>
                <note len="-192" pos="744" pan="0" vol="100" key="57"/>
                <note len="-192" pos="888" pan="0" vol="100" key="57"/>
                <note len="-192" pos="912" pan="0" vol="100" key="57"/>
                <note len="-192" pos="924" pan="0" vol="100" key="57"/>
                <note len="-192" pos="936" pan="0" vol="100" key="57"/>
                <note len="-192" pos="948" pan="0" vol="100" key="57"/>
              </pattern>
              <pattern pos="3264" muted="0" steps="64" type="0" name="loTom.wav">
                <note len="-192" pos="660" pan="0" vol="100" key="57"/>
                <note len="-192" pos="684" pan="0" vol="100" key="57"/>
                <note len="-192" pos="696" pan="0" vol="100" key="57"/>
                <note len="-192" pos="708" pan="0" vol="100" key="57"/>
              </pattern>
              <pattern pos="3456" muted="0" steps="80" type="0" name="loTom.wav">
                <note len="-192" pos="660" pan="0" vol="100" key="57"/>
                <note len="-192" pos="684" pan="0" vol="100" key="57"/>
                <note len="-192" pos="696" pan="0" vol="100" key="57"/>
                <note len="-192" pos="708" pan="0" vol="100" key="57"/>
              </pattern>
              <pattern pos="3648" muted="0" steps="64" type="0" name="loTom.wav"/>
              <pattern pos="3840" muted="0" steps="64" type="0" name="loTom.wav">
                <note len="-192" pos="264" pan="0" vol="100" key="57"/>
                <note len="-192" pos="360" pan="0" vol="100" key="57"/>
                <note len="-192" pos="684" pan="0" vol="100" key="57"/>
                <note len="-192" pos="696" pan="0" vol="100" key="57"/>
                <note len="-192" pos="708" pan="0" vol="100" key="57"/>
              </pattern>
            </track>
            <track muted="0" solo="0" type="0" name="hihat_opened02.ogg">
              <instrumenttrack basenote="57" pitch="0" pitchrange="1" pan="0" usemasterpitch="1" fxch="0" vol="100">
                <instrument name="audiofileprocessor">
                  <audiofileprocessor looped="0" lframe="0" reversed="0" eframe="1" stutter="0" sframe="0" interp="1" src="drums/hihat_opened02.ogg" amp="100"/>
                </instrument>
                <eldata fwet="0" ftype="0" fcut="14000" fres="0.5">
                  <elvol lspd_denominator="4" lamt="0" amt="0" dec="0.5" hold="0.5" lshp="0" ctlenvamt="0" lspd="0.1" rel="0.1" pdel="0" lspd_syncmode="0" att="0" sustain="0.5" userwavefile="" latt="0" lspd_numerator="4" lpdel="0" x100="0"/>
                  <elcut lspd_denominator="4" lamt="0" amt="0" dec="0.5" hold="0.5" lshp="0" ctlenvamt="0" lspd="0.1" rel="0.1" pdel="0" lspd_syncmode="0" att="0" sustain="0.5" userwavefile="" latt="0" lspd_numerator="4" lpdel="0" x100="0"/>
                  <elres lspd_denominator="4" lamt="0" amt="0" dec="0.5" hold="0.5" lshp="0" ctlenvamt="0" lspd="0.1" rel="0.1" pdel="0" lspd_syncmode="0" att="0" sustain="0.5" userwavefile="" latt="0" lspd_numerator="4" lpdel="0" x100="0"/>
                </eldata>
                <chordcreator chordrange="1" chord-enabled="0" chord="0"/>
                <arpeggiator arptime_syncmode="0" arptime="200" arptime_denominator="4" arpdir="0" arp="0" arpmode="0" arpcycle="0" arpmiss="0" arptime_numerator="4" arprange="1" arp-enabled="0" arpskip="0" arpgate="100"/>
                <midiport inputcontroller="0" outputchannel="1" outputprogram="1" readable="0" outputcontroller="0" fixedoutputvelocity="-1" fixedoutputnote="-1" fixedinputvelocity="-1" writable="0" inputchannel="0" basevelocity="63"/>
                <fxchain enabled="0" numofeffects="0"/>
              </instrumenttrack>
              <pattern pos="0" muted="0" steps="16" type="0" name="hihat_opened02.ogg"/>
              <pattern pos="192" muted="0" steps="16" type="0" name="hihat_opened02.ogg"/>
              <pattern pos="384" muted="0" steps="16" type="0" name="hihat_opened02.ogg"/>
              <pattern pos="576" muted="0" steps="16" type="0" name="hihat_opened02.ogg"/>
              <pattern pos="768" muted="0" steps="16" type="0" name="hihat_opened02.ogg"/>
              <pattern pos="960" muted="0" steps="32" type="0" name="hihat_opened02.ogg"/>
              <pattern pos="1152" muted="0" steps="16" type="0" name="hihat_opened02.ogg"/>
              <pattern pos="1344" muted="0" steps="32" type="0" name="hihat_opened02.ogg"/>
              <pattern pos="1536" muted="0" steps="32" type="0" name="hihat_opened02.ogg"/>
              <pattern pos="1728" muted="0" steps="16" type="0" name="hihat_opened02.ogg"/>
              <pattern pos="1920" muted="0" steps="16" type="0" name="hihat_opened02.ogg"/>
              <pattern pos="2112" muted="0" steps="16" type="0" name="hihat_opened02.ogg"/>
              <pattern pos="2304" muted="0" steps="16" type="0" name="hihat_opened02.ogg"/>
              <pattern pos="2496" muted="0" steps="16" type="0" name="hihat_opened02.ogg"/>
              <pattern pos="2688" muted="0" steps="16" type="0" name="hihat_opened02.ogg"/>
              <pattern pos="2880" muted="0" steps="16" type="0" name="hihat_opened02.ogg"/>
              <pattern pos="3072" muted="0" steps="96" type="0" name="hihat_opened02.ogg"/>
              <pattern pos="3264" muted="0" steps="64" type="0" name="hihat_opened02.ogg"/>
              <pattern pos="3456" muted="0" steps="80" type="0" name="hihat_opened02.ogg"/>
              <pattern pos="3648" muted="0" steps="64" type="0" name="hihat_opened02.ogg"/>
              <pattern pos="3840" muted="0" steps="64" type="0" name="hihat_opened02.ogg"/>
            </track>
          </trackcontainer>
        </bbtrack>
      </track>
      <track muted="0" solo="0" type="1" name="Clone of intro1">
        <bbtrack/>
      </track>
      <track muted="0" solo="0" type="1" name="intro2">
        <bbtrack/>
        <bbtco pos="0" len="3072" muted="0" color="4286611584" name="" usestyle="1"/>
      </track>
      <track muted="0" solo="0" type="1" name="pre-verse">
        <bbtrack/>
        <bbtco pos="8448" len="768" muted="0" color="4286611584" name="" usestyle="1"/>
        <bbtco pos="11520" len="768" muted="0" color="4286611584" name="" usestyle="1"/>
        <bbtco pos="16128" len="576" muted="0" color="4286611584" name="" usestyle="1"/>
      </track>
      <track muted="0" solo="0" type="1" name="bootcamp1">
        <bbtrack/>
        <bbtco pos="3072" len="3072" muted="0" color="4286611584" name="" usestyle="1"/>
        <bbtco pos="12288" len="1152" muted="0" color="4286611584" name="" usestyle="1"/>
        <bbtco pos="18048" len="1920" muted="0" color="4286611584" name="" usestyle="1"/>
      </track>
      <track muted="0" solo="0" type="1" name="pp">
        <bbtrack/>
        <bbtco pos="13440" len="384" muted="0" color="4286611584" name="" usestyle="1"/>
      </track>
      <track muted="0" solo="0" type="1" name="Clone of bootcamp1">
        <bbtrack/>
        <bbtco pos="9216" len="768" muted="0" color="4286611584" name="" usestyle="1"/>
        <bbtco pos="9984" len="1536" muted="0" color="4286611584" name="" usestyle="1"/>
        <bbtco pos="13824" len="768" muted="0" color="4286611584" name="" usestyle="1"/>
        <bbtco pos="14592" len="1536" muted="0" color="4286611584" name="" usestyle="1"/>
      </track>
      <track muted="0" solo="0" type="1" name="Clone of Clone of bootcamp1">
        <bbtrack/>
        <bbtco pos="20736" len="1344" muted="0" color="4286611584" name="" usestyle="1"/>
      </track>
      <track muted="0" solo="0" type="1" name="Clone of Clone of Clone of bootcamp1">
        <bbtrack/>
        <bbtco pos="22272" len="1536" muted="0" color="4286611584" name="" usestyle="1"/>
      </track>
      <track muted="0" solo="0" type="1" name="fill1">
        <bbtrack/>
        <bbtco pos="22080" len="192" muted="0" color="4286611584" name="" usestyle="1"/>
      </track>
      <track muted="0" solo="0" type="1" name="Clone of bootcamp1">
        <bbtrack/>
      </track>
      <track muted="0" solo="0" type="1" name="Clone of Clone of bootcamp1">
        <bbtrack/>
      </track>
      <track muted="0" solo="0" type="1" name="kick/mutecrash">
        <bbtrack/>
      </track>
      <track muted="0" solo="0" type="1" name="Beat/Bassline 6">
        <bbtrack/>
      </track>
      <track muted="0" solo="0" type="1" name="Clone of Beat/Bassline 6">
        <bbtrack/>
        <bbtco pos="6144" len="2304" muted="0" color="4286611584" name="" usestyle="1"/>
      </track>
      <track muted="0" solo="0" type="1" name="preprechorusbridge">
        <bbtrack/>
        <bbtco pos="16704" len="192" muted="0" color="4286611584" name="" usestyle="1"/>
      </track>
      <track muted="0" solo="0" type="1" name="kodiak alaska">
        <bbtrack/>
        <bbtco pos="16896" len="1152" muted="0" color="4286611584" name="" usestyle="1"/>
      </track>
      <track muted="0" solo="0" type="1" name="Beat/Bassline 15">
        <bbtrack/>
        <bbtco pos="19968" len="768" muted="0" color="4286611584" name="" usestyle="1"/>
      </track>
      <track muted="0" solo="0" type="1" name="Clone of Beat/Bassline 15">
        <bbtrack/>
        <bbtco pos="23808" len="960" muted="0" color="4286611584" name="" usestyle="1"/>
      </track>
      <track muted="0" solo="0" type="1" name="Beat/Bassline 19">
        <bbtrack/>
        <bbtco pos="25344" len="2304" muted="0" color="4286611584" name="" usestyle="1"/>
      </track>
      <track muted="0" solo="0" type="1" name="Beat/Bassline 20">
        <bbtrack/>
        <bbtco pos="27648" len="768" muted="0" color="4286611584" name="" usestyle="1"/>
      </track>
      <track muted="0" solo="0" type="5" name="Automation track">
        <automationtrack/>
      </track>
      <track muted="0" solo="0" type="0" name="bass fender jazz (1,379kb)">
        <instrumenttrack basenote="57" pitch="0" pitchrange="1" pan="-1.1" usemasterpitch="1" fxch="14" vol="60">
          <instrument name="sf2player">
            <sf2player chorusLevel="2" reverbRoomSize="0.2" reverbDamping="0.2" reverbWidth="0.5" reverbLevel="0.9" gain="0.98" reverbOn="0" patch="0" bank="0" chorusNum="0.9" chorusSpeed="0.3" chorusOn="0" src="/home/pass/samples/soundfonts/bass fender jazz (1,379kb).sf2" chorusDepth="8"/>
          </instrument>
          <eldata fwet="0" ftype="0" fcut="14000" fres="0.5">
            <elvol lspd_denominator="4" lamt="0" amt="0" dec="0.5" hold="0.5" lshp="0" ctlenvamt="0" lspd="0.1" rel="0.1" pdel="0" lspd_syncmode="0" att="0" sustain="0.5" userwavefile="" latt="0" lspd_numerator="4" lpdel="0" x100="0"/>
            <elcut lspd_denominator="4" lamt="0" amt="0" dec="0.5" hold="0.5" lshp="0" ctlenvamt="0" lspd="0.1" rel="0.1" pdel="0" lspd_syncmode="0" att="0" sustain="0.5" userwavefile="" latt="0" lspd_numerator="4" lpdel="0" x100="0"/>
            <elres lspd_denominator="4" lamt="0" amt="0" dec="0.5" hold="0.5" lshp="0" ctlenvamt="0" lspd="0.1" rel="0.1" pdel="0" lspd_syncmode="0" att="0" sustain="0.5" userwavefile="" latt="0" lspd_numerator="4" lpdel="0" x100="0"/>
          </eldata>
          <chordcreator chordrange="1" chord-enabled="0" chord="0"/>
          <arpeggiator arptime_syncmode="0" arptime="200" arptime_denominator="4" arpdir="0" arp="0" arpmode="0" arpcycle="0" arpmiss="0" arptime_numerator="4" arprange="1" arp-enabled="0" arpskip="0" arpgate="100"/>
          <midiport inputcontroller="0" outputchannel="1" outputprogram="1" readable="0" outputcontroller="0" fixedoutputvelocity="-1" fixedoutputnote="-1" fixedinputvelocity="-1" writable="0" inputchannel="0" basevelocity="63"/>
          <fxchain enabled="1" numofeffects="1">
            <effect autoquit_syncmode="0" autoquit="1" on="1" autoquit_numerator="4" autoquit_denominator="4" wet="1" gate="0" name="eq">
              <Eq HP12="1" Peak4bw="1.583" HighShelfres="1.4" Peak2active="1" HP48="0" LP24="0" Outputgain="0" AnalyseOut="1" Peak3bw="1.909" HighShelfgain="10.62" Peak3gain="16.02" LowShelfres="1.4" LPres="0.707" LPactive="0" LP="0" AnalyseIn="1" Highshelfactive="1" Peak4active="1" Peak1active="0" Peak2gain="15.3" HPres="0.707" HP24="0" Peak4gain="18" Peak1bw="0.3" Peak2bw="2.228" HP="0" LP48="0" LP12="1" Peak3active="1" Lowshelfgain="-7.919" HPactive="0" Lowshelfactive="1">
                <Inputgain value="0" id="4991695" scale_type="log"/>
                <Peak1gain value="0" id="5349425" scale_type="log"/>
                <HPfreq value="31" id="2856116" scale_type="log"/>
                <LowShelffreq value="24.1596" id="5210634" scale_type="log"/>
                <Peak1freq value="120" id="3031540" scale_type="log"/>
                <Peak2freq value="1839.11" id="7268578" scale_type="log"/>
                <Peak3freq value="110.765" id="3360972" scale_type="log"/>
                <Peak4freq value="1867.58" id="1884991" scale_type="log"/>
                <Highshelffreq value="4562.27" id="359124" scale_type="log"/>
                <LPfreq value="18000" id="5265379" scale_type="log"/>
              </Eq>
              <key/>
            </effect>
          </fxchain>
        </instrumenttrack>
        <pattern pos="0" muted="0" steps="16" type="1" name="bass fender jazz (1,379kb)">
          <note len="384" pos="0" pan="0" vol="193" key="18"/>
          <note len="384" pos="384" pan="0" vol="193" key="17"/>
          <note len="384" pos="768" pan="0" vol="193" key="16"/>
          <note len="384" pos="1152" pan="0" vol="193" key="15"/>
          <note len="384" pos="1536" pan="0" vol="193" key="14"/>
          <note len="384" pos="1920" pan="0" vol="193" key="13"/>
          <note len="384" pos="2304" pan="0" vol="193" key="12"/>
          <note len="192" pos="2688" pan="0" vol="193" key="13"/>
          <note len="48" pos="2880" pan="0" vol="193" key="14"/>
          <note len="48" pos="2928" pan="0" vol="193" key="13"/>
          <note len="12" pos="2976" pan="0" vol="193" key="17"/>
          <note len="12" pos="2988" pan="0" vol="193" key="17"/>
          <note len="12" pos="3000" pan="0" vol="193" key="18"/>
          <note len="12" pos="3012" pan="0" vol="193" key="18"/>
          <note len="12" pos="3024" pan="0" vol="193" key="20"/>
          <note len="12" pos="3036" pan="0" vol="193" key="20"/>
          <note len="12" pos="3048" pan="0" vol="193" key="17"/>
          <note len="12" pos="3060" pan="0" vol="193" key="17"/>
        </pattern>
        <pattern pos="3072" muted="0" steps="16" type="1" name="bass fender jazz (1,379kb)">
          <note len="12" pos="0" pan="0" vol="193" key="18"/>
          <note len="12" pos="12" pan="0" vol="193" key="18"/>
          <note len="12" pos="24" pan="0" vol="193" key="18"/>
          <note len="12" pos="36" pan="0" vol="193" key="18"/>
          <note len="12" pos="48" pan="0" vol="193" key="18"/>
          <note len="12" pos="60" pan="0" vol="193" key="18"/>
          <note len="12" pos="72" pan="0" vol="193" key="18"/>
          <note len="12" pos="84" pan="0" vol="193" key="18"/>
          <note len="12" pos="96" pan="0" vol="193" key="18"/>
          <note len="12" pos="108" pan="0" vol="193" key="18"/>
          <note len="12" pos="120" pan="0" vol="193" key="18"/>
          <note len="12" pos="132" pan="0" vol="193" key="18"/>
          <note len="12" pos="144" pan="0" vol="193" key="18"/>
          <note len="12" pos="156" pan="0" vol="193" key="18"/>
          <note len="12" pos="168" pan="0" vol="193" key="18"/>
          <note len="12" pos="180" pan="0" vol="193" key="18"/>
          <note len="12" pos="192" pan="0" vol="193" key="18"/>
          <note len="12" pos="204" pan="0" vol="193" key="18"/>
          <note len="12" pos="216" pan="0" vol="193" key="18"/>
          <note len="12" pos="228" pan="0" vol="193" key="18"/>
          <note len="12" pos="240" pan="0" vol="193" key="18"/>
          <note len="12" pos="252" pan="0" vol="193" key="18"/>
          <note len="12" pos="264" pan="0" vol="193" key="18"/>
          <note len="12" pos="276" pan="0" vol="193" key="18"/>
          <note len="12" pos="288" pan="0" vol="193" key="18"/>
          <note len="12" pos="300" pan="0" vol="193" key="18"/>
          <note len="12" pos="312" pan="0" vol="193" key="18"/>
          <note len="12" pos="324" pan="0" vol="193" key="18"/>
          <note len="12" pos="336" pan="0" vol="193" key="18"/>
          <note len="12" pos="348" pan="0" vol="193" key="18"/>
          <note len="12" pos="360" pan="0" vol="193" key="18"/>
          <note len="12" pos="372" pan="0" vol="193" key="18"/>
          <note len="12" pos="384" pan="0" vol="193" key="17"/>
          <note len="12" pos="396" pan="0" vol="193" key="17"/>
          <note len="12" pos="408" pan="0" vol="193" key="17"/>
          <note len="12" pos="420" pan="0" vol="193" key="17"/>
          <note len="12" pos="432" pan="0" vol="193" key="17"/>
          <note len="12" pos="444" pan="0" vol="193" key="17"/>
          <note len="12" pos="456" pan="0" vol="193" key="17"/>
          <note len="12" pos="468" pan="0" vol="193" key="17"/>
          <note len="12" pos="480" pan="0" vol="193" key="17"/>
          <note len="12" pos="492" pan="0" vol="193" key="17"/>
          <note len="12" pos="504" pan="0" vol="193" key="17"/>
          <note len="12" pos="516" pan="0" vol="193" key="17"/>
          <note len="12" pos="528" pan="0" vol="193" key="17"/>
          <note len="12" pos="540" pan="0" vol="193" key="17"/>
          <note len="12" pos="552" pan="0" vol="193" key="17"/>
          <note len="12" pos="564" pan="0" vol="193" key="17"/>
          <note len="12" pos="576" pan="0" vol="193" key="17"/>
          <note len="12" pos="588" pan="0" vol="193" key="17"/>
          <note len="12" pos="600" pan="0" vol="193" key="17"/>
          <note len="12" pos="612" pan="0" vol="193" key="17"/>
          <note len="12" pos="624" pan="0" vol="193" key="17"/>
          <note len="12" pos="636" pan="0" vol="193" key="17"/>
          <note len="12" pos="648" pan="0" vol="193" key="17"/>
          <note len="12" pos="660" pan="0" vol="193" key="17"/>
          <note len="12" pos="672" pan="0" vol="193" key="17"/>
          <note len="12" pos="684" pan="0" vol="193" key="17"/>
          <note len="12" pos="696" pan="0" vol="193" key="17"/>
          <note len="12" pos="708" pan="0" vol="193" key="17"/>
          <note len="12" pos="720" pan="0" vol="193" key="17"/>
          <note len="12" pos="732" pan="0" vol="193" key="17"/>
          <note len="12" pos="744" pan="0" vol="193" key="17"/>
          <note len="12" pos="756" pan="0" vol="193" key="17"/>
          <note len="12" pos="768" pan="0" vol="193" key="16"/>
          <note len="12" pos="780" pan="0" vol="193" key="16"/>
          <note len="12" pos="792" pan="0" vol="193" key="16"/>
          <note len="12" pos="804" pan="0" vol="193" key="16"/>
          <note len="12" pos="816" pan="0" vol="193" key="16"/>
          <note len="12" pos="828" pan="0" vol="193" key="16"/>
          <note len="12" pos="840" pan="0" vol="193" key="16"/>
          <note len="12" pos="852" pan="0" vol="193" key="16"/>
          <note len="12" pos="864" pan="0" vol="193" key="16"/>
          <note len="12" pos="876" pan="0" vol="193" key="16"/>
          <note len="12" pos="888" pan="0" vol="193" key="16"/>
          <note len="12" pos="900" pan="0" vol="193" key="16"/>
          <note len="12" pos="912" pan="0" vol="193" key="16"/>
          <note len="12" pos="924" pan="0" vol="193" key="16"/>
          <note len="12" pos="936" pan="0" vol="193" key="16"/>
          <note len="12" pos="948" pan="0" vol="193" key="16"/>
          <note len="12" pos="960" pan="0" vol="193" key="16"/>
          <note len="12" pos="972" pan="0" vol="193" key="16"/>
          <note len="12" pos="984" pan="0" vol="193" key="16"/>
          <note len="12" pos="996" pan="0" vol="193" key="16"/>
          <note len="12" pos="1008" pan="0" vol="193" key="16"/>
          <note len="12" pos="1020" pan="0" vol="193" key="16"/>
          <note len="12" pos="1032" pan="0" vol="193" key="16"/>
          <note len="12" pos="1044" pan="0" vol="193" key="16"/>
          <note len="12" pos="1056" pan="0" vol="193" key="16"/>
          <note len="12" pos="1068" pan="0" vol="193" key="16"/>
          <note len="12" pos="1080" pan="0" vol="193" key="16"/>
          <note len="12" pos="1092" pan="0" vol="193" key="16"/>
          <note len="12" pos="1104" pan="0" vol="193" key="16"/>
          <note len="12" pos="1116" pan="0" vol="193" key="16"/>
          <note len="12" pos="1128" pan="0" vol="193" key="16"/>
          <note len="12" pos="1140" pan="0" vol="193" key="16"/>
          <note len="12" pos="1152" pan="0" vol="193" key="15"/>
          <note len="12" pos="1164" pan="0" vol="193" key="15"/>
          <note len="12" pos="1176" pan="0" vol="193" key="15"/>
          <note len="12" pos="1188" pan="0" vol="193" key="15"/>
          <note len="12" pos="1200" pan="0" vol="193" key="15"/>
          <note len="12" pos="1212" pan="0" vol="193" key="15"/>
          <note len="12" pos="1224" pan="0" vol="193" key="15"/>
          <note len="12" pos="1236" pan="0" vol="193" key="15"/>
          <note len="12" pos="1248" pan="0" vol="193" key="15"/>
          <note len="12" pos="1260" pan="0" vol="193" key="15"/>
          <note len="12" pos="1272" pan="0" vol="193" key="15"/>
          <note len="12" pos="1284" pan="0" vol="193" key="15"/>
          <note len="12" pos="1296" pan="0" vol="193" key="15"/>
          <note len="12" pos="1308" pan="0" vol="193" key="15"/>
          <note len="12" pos="1320" pan="0" vol="193" key="15"/>
          <note len="12" pos="1332" pan="0" vol="193" key="15"/>
          <note len="12" pos="1344" pan="0" vol="193" key="15"/>
          <note len="12" pos="1356" pan="0" vol="193" key="15"/>
          <note len="12" pos="1368" pan="0" vol="193" key="15"/>
          <note len="12" pos="1380" pan="0" vol="193" key="15"/>
          <note len="12" pos="1392" pan="0" vol="193" key="15"/>
          <note len="12" pos="1404" pan="0" vol="193" key="15"/>
          <note len="12" pos="1416" pan="0" vol="193" key="15"/>
          <note len="12" pos="1428" pan="0" vol="193" key="15"/>
          <note len="12" pos="1440" pan="0" vol="193" key="15"/>
          <note len="12" pos="1452" pan="0" vol="193" key="15"/>
          <note len="12" pos="1464" pan="0" vol="193" key="15"/>
          <note len="12" pos="1476" pan="0" vol="193" key="15"/>
          <note len="12" pos="1488" pan="0" vol="193" key="15"/>
          <note len="12" pos="1500" pan="0" vol="193" key="15"/>
          <note len="12" pos="1512" pan="0" vol="193" key="15"/>
          <note len="12" pos="1524" pan="0" vol="193" key="15"/>
          <note len="12" pos="1536" pan="0" vol="193" key="14"/>
          <note len="12" pos="1548" pan="0" vol="193" key="14"/>
          <note len="12" pos="1560" pan="0" vol="193" key="14"/>
          <note len="12" pos="1572" pan="0" vol="193" key="14"/>
          <note len="12" pos="1584" pan="0" vol="193" key="14"/>
          <note len="12" pos="1596" pan="0" vol="193" key="14"/>
          <note len="12" pos="1608" pan="0" vol="193" key="14"/>
          <note len="12" pos="1620" pan="0" vol="193" key="14"/>
          <note len="12" pos="1632" pan="0" vol="193" key="14"/>
          <note len="12" pos="1644" pan="0" vol="193" key="14"/>
          <note len="12" pos="1656" pan="0" vol="193" key="14"/>
          <note len="12" pos="1668" pan="0" vol="193" key="14"/>
          <note len="12" pos="1680" pan="0" vol="193" key="14"/>
          <note len="12" pos="1692" pan="0" vol="193" key="14"/>
          <note len="12" pos="1704" pan="0" vol="193" key="14"/>
          <note len="12" pos="1716" pan="0" vol="193" key="14"/>
          <note len="12" pos="1728" pan="0" vol="193" key="14"/>
          <note len="12" pos="1740" pan="0" vol="193" key="14"/>
          <note len="12" pos="1752" pan="0" vol="193" key="14"/>
          <note len="12" pos="1764" pan="0" vol="193" key="14"/>
          <note len="12" pos="1776" pan="0" vol="193" key="14"/>
          <note len="12" pos="1788" pan="0" vol="193" key="14"/>
          <note len="12" pos="1800" pan="0" vol="193" key="14"/>
          <note len="12" pos="1812" pan="0" vol="193" key="14"/>
          <note len="12" pos="1824" pan="0" vol="193" key="14"/>
          <note len="12" pos="1836" pan="0" vol="193" key="14"/>
          <note len="12" pos="1848" pan="0" vol="193" key="14"/>
          <note len="12" pos="1860" pan="0" vol="193" key="14"/>
          <note len="12" pos="1872" pan="0" vol="193" key="14"/>
          <note len="12" pos="1884" pan="0" vol="193" key="14"/>
          <note len="12" pos="1896" pan="0" vol="193" key="14"/>
          <note len="12" pos="1908" pan="0" vol="193" key="14"/>
          <note len="12" pos="1920" pan="0" vol="193" key="13"/>
          <note len="12" pos="1932" pan="0" vol="193" key="13"/>
          <note len="12" pos="1944" pan="0" vol="193" key="13"/>
          <note len="12" pos="1956" pan="0" vol="193" key="13"/>
          <note len="12" pos="1968" pan="0" vol="193" key="13"/>
          <note len="12" pos="1980" pan="0" vol="193" key="13"/>
          <note len="12" pos="1992" pan="0" vol="193" key="13"/>
          <note len="12" pos="2004" pan="0" vol="193" key="13"/>
          <note len="12" pos="2016" pan="0" vol="193" key="13"/>
          <note len="12" pos="2028" pan="0" vol="193" key="13"/>
          <note len="12" pos="2040" pan="0" vol="193" key="13"/>
          <note len="12" pos="2052" pan="0" vol="193" key="13"/>
          <note len="12" pos="2064" pan="0" vol="193" key="13"/>
          <note len="12" pos="2076" pan="0" vol="193" key="13"/>
          <note len="12" pos="2088" pan="0" vol="193" key="13"/>
          <note len="12" pos="2100" pan="0" vol="193" key="13"/>
          <note len="12" pos="2112" pan="0" vol="193" key="13"/>
          <note len="12" pos="2124" pan="0" vol="193" key="13"/>
          <note len="12" pos="2136" pan="0" vol="193" key="13"/>
          <note len="12" pos="2148" pan="0" vol="193" key="13"/>
          <note len="12" pos="2160" pan="0" vol="193" key="13"/>
          <note len="12" pos="2172" pan="0" vol="193" key="13"/>
          <note len="12" pos="2184" pan="0" vol="193" key="13"/>
          <note len="12" pos="2196" pan="0" vol="193" key="13"/>
          <note len="12" pos="2208" pan="0" vol="193" key="13"/>
          <note len="12" pos="2220" pan="0" vol="193" key="13"/>
          <note len="12" pos="2232" pan="0" vol="193" key="13"/>
          <note len="12" pos="2244" pan="0" vol="193" key="13"/>
          <note len="12" pos="2256" pan="0" vol="193" key="13"/>
          <note len="12" pos="2268" pan="0" vol="193" key="13"/>
          <note len="12" pos="2280" pan="0" vol="193" key="13"/>
          <note len="12" pos="2292" pan="0" vol="193" key="13"/>
          <note len="12" pos="2304" pan="0" vol="193" key="12"/>
          <note len="12" pos="2316" pan="0" vol="193" key="12"/>
          <note len="12" pos="2328" pan="0" vol="193" key="12"/>
          <note len="12" pos="2340" pan="0" vol="193" key="12"/>
          <note len="12" pos="2352" pan="0" vol="193" key="12"/>
          <note len="12" pos="2364" pan="0" vol="193" key="12"/>
          <note len="12" pos="2376" pan="0" vol="193" key="12"/>
          <note len="12" pos="2388" pan="0" vol="193" key="12"/>
          <note len="12" pos="2400" pan="0" vol="193" key="12"/>
          <note len="12" pos="2412" pan="0" vol="193" key="12"/>
          <note len="12" pos="2424" pan="0" vol="193" key="12"/>
          <note len="12" pos="2436" pan="0" vol="193" key="12"/>
          <note len="12" pos="2448" pan="0" vol="193" key="12"/>
          <note len="12" pos="2460" pan="0" vol="193" key="12"/>
          <note len="12" pos="2472" pan="0" vol="193" key="12"/>
          <note len="12" pos="2484" pan="0" vol="193" key="12"/>
          <note len="12" pos="2496" pan="0" vol="193" key="12"/>
          <note len="12" pos="2508" pan="0" vol="193" key="12"/>
          <note len="12" pos="2520" pan="0" vol="193" key="12"/>
          <note len="12" pos="2532" pan="0" vol="193" key="12"/>
          <note len="12" pos="2544" pan="0" vol="193" key="12"/>
          <note len="12" pos="2556" pan="0" vol="193" key="12"/>
          <note len="12" pos="2568" pan="0" vol="193" key="12"/>
          <note len="12" pos="2580" pan="0" vol="193" key="12"/>
          <note len="12" pos="2592" pan="0" vol="193" key="12"/>
          <note len="12" pos="2604" pan="0" vol="193" key="12"/>
          <note len="12" pos="2616" pan="0" vol="193" key="12"/>
          <note len="12" pos="2628" pan="0" vol="193" key="12"/>
          <note len="12" pos="2640" pan="0" vol="193" key="12"/>
          <note len="12" pos="2652" pan="0" vol="193" key="12"/>
          <note len="12" pos="2664" pan="0" vol="193" key="12"/>
          <note len="12" pos="2676" pan="0" vol="193" key="12"/>
          <note len="192" pos="2688" pan="0" vol="193" key="13"/>
          <note len="48" pos="2880" pan="0" vol="193" key="14"/>
          <note len="48" pos="2928" pan="0" vol="193" key="13"/>
          <note len="12" pos="2976" pan="0" vol="193" key="17"/>
          <note len="12" pos="2988" pan="0" vol="193" key="17"/>
          <note len="12" pos="3000" pan="0" vol="193" key="18"/>
          <note len="12" pos="3012" pan="0" vol="193" key="18"/>
          <note len="12" pos="3024" pan="0" vol="193" key="20"/>
          <note len="12" pos="3036" pan="0" vol="193" key="20"/>
          <note len="12" pos="3048" pan="0" vol="193" key="17"/>
          <note len="12" pos="3060" pan="0" vol="193" key="17"/>
        </pattern>
        <pattern pos="6144" muted="0" steps="16" type="1" name="bass fender jazz (1,379kb)">
          <note len="12" pos="0" pan="0" vol="193" key="18"/>
          <note len="12" pos="12" pan="0" vol="193" key="18"/>
          <note len="12" pos="24" pan="0" vol="193" key="18"/>
          <note len="12" pos="36" pan="0" vol="193" key="18"/>
          <note len="12" pos="48" pan="0" vol="193" key="18"/>
          <note len="12" pos="60" pan="0" vol="193" key="18"/>
          <note len="12" pos="72" pan="0" vol="193" key="18"/>
          <note len="12" pos="84" pan="0" vol="193" key="18"/>
          <note len="12" pos="96" pan="0" vol="193" key="18"/>
          <note len="12" pos="108" pan="0" vol="193" key="18"/>
          <note len="12" pos="120" pan="0" vol="193" key="18"/>
          <note len="12" pos="132" pan="0" vol="193" key="18"/>
          <note len="12" pos="144" pan="0" vol="193" key="18"/>
          <note len="12" pos="156" pan="0" vol="193" key="18"/>
          <note len="24" pos="168" pan="0" vol="193" key="14"/>
          <note len="12" pos="192" pan="0" vol="193" key="14"/>
          <note len="12" pos="204" pan="0" vol="193" key="14"/>
          <note len="24" pos="216" pan="0" vol="193" key="14"/>
          <note len="12" pos="240" pan="0" vol="193" key="14"/>
          <note len="12" pos="252" pan="0" vol="193" key="14"/>
          <note len="48" pos="264" pan="0" vol="193" key="14"/>
          <note len="12" pos="312" pan="0" vol="193" key="14"/>
          <note len="12" pos="324" pan="0" vol="193" key="14"/>
          <note len="12" pos="336" pan="0" vol="193" key="14"/>
          <note len="12" pos="348" pan="0" vol="193" key="14"/>
          <note len="12" pos="360" pan="0" vol="193" key="14"/>
          <note len="12" pos="372" pan="0" vol="193" key="14"/>
        </pattern>
        <pattern pos="6528" muted="0" steps="16" type="1" name="bass fender jazz (1,379kb)">
          <note len="12" pos="0" pan="0" vol="193" key="16"/>
          <note len="12" pos="12" pan="0" vol="193" key="16"/>
          <note len="12" pos="24" pan="0" vol="193" key="16"/>
          <note len="12" pos="36" pan="0" vol="193" key="16"/>
          <note len="12" pos="48" pan="0" vol="193" key="16"/>
          <note len="12" pos="60" pan="0" vol="193" key="16"/>
          <note len="12" pos="72" pan="0" vol="193" key="16"/>
          <note len="12" pos="84" pan="0" vol="193" key="16"/>
          <note len="12" pos="96" pan="0" vol="193" key="16"/>
          <note len="12" pos="108" pan="0" vol="193" key="16"/>
          <note len="12" pos="120" pan="0" vol="193" key="16"/>
          <note len="12" pos="132" pan="0" vol="193" key="16"/>
          <note len="12" pos="144" pan="0" vol="193" key="16"/>
          <note len="12" pos="156" pan="0" vol="193" key="16"/>
          <note len="48" pos="168" pan="0" vol="193" key="13"/>
          <note len="24" pos="216" pan="0" vol="193" key="13"/>
          <note len="24" pos="240" pan="0" vol="193" key="13"/>
          <note len="48" pos="264" pan="0" vol="193" key="13"/>
          <note len="12" pos="312" pan="0" vol="193" key="17"/>
          <note len="12" pos="324" pan="0" vol="193" key="18"/>
          <note len="12" pos="336" pan="0" vol="193" key="20"/>
          <note len="12" pos="348" pan="0" vol="193" key="18"/>
          <note len="12" pos="360" pan="0" vol="193" key="17"/>
          <note len="12" pos="372" pan="0" vol="193" key="20"/>
        </pattern>
        <pattern pos="6912" muted="0" steps="16" type="1" name="bass fender jazz (1,379kb)">
          <note len="12" pos="0" pan="0" vol="193" key="18"/>
          <note len="12" pos="12" pan="0" vol="193" key="18"/>
          <note len="12" pos="24" pan="0" vol="193" key="18"/>
          <note len="12" pos="36" pan="0" vol="193" key="18"/>
          <note len="12" pos="48" pan="0" vol="193" key="18"/>
          <note len="12" pos="60" pan="0" vol="193" key="18"/>
          <note len="12" pos="72" pan="0" vol="193" key="18"/>
          <note len="12" pos="84" pan="0" vol="193" key="18"/>
          <note len="12" pos="96" pan="0" vol="193" key="18"/>
          <note len="12" pos="108" pan="0" vol="193" key="18"/>
          <note len="12" pos="120" pan="0" vol="193" key="18"/>
          <note len="12" pos="132" pan="0" vol="193" key="18"/>
          <note len="12" pos="144" pan="0" vol="193" key="18"/>
          <note len="12" pos="156" pan="0" vol="193" key="18"/>
          <note len="24" pos="168" pan="0" vol="193" key="14"/>
          <note len="12" pos="192" pan="0" vol="193" key="14"/>
          <note len="12" pos="204" pan="0" vol="193" key="14"/>
          <note len="24" pos="216" pan="0" vol="193" key="14"/>
          <note len="12" pos="240" pan="0" vol="193" key="14"/>
          <note len="12" pos="252" pan="0" vol="193" key="14"/>
          <note len="48" pos="264" pan="0" vol="193" key="14"/>
          <note len="12" pos="312" pan="0" vol="193" key="14"/>
          <note len="12" pos="324" pan="0" vol="193" key="14"/>
          <note len="12" pos="336" pan="0" vol="193" key="14"/>
          <note len="12" pos="348" pan="0" vol="193" key="14"/>
          <note len="12" pos="360" pan="0" vol="193" key="14"/>
          <note len="12" pos="372" pan="0" vol="193" key="14"/>
        </pattern>
        <pattern pos="7296" muted="0" steps="16" type="1" name="bass fender jazz (1,379kb)">
          <note len="12" pos="0" pan="0" vol="193" key="21"/>
          <note len="12" pos="12" pan="0" vol="193" key="21"/>
          <note len="12" pos="24" pan="0" vol="193" key="21"/>
          <note len="12" pos="36" pan="0" vol="193" key="21"/>
          <note len="12" pos="48" pan="0" vol="193" key="21"/>
          <note len="12" pos="60" pan="0" vol="193" key="21"/>
          <note len="12" pos="72" pan="0" vol="193" key="21"/>
          <note len="12" pos="84" pan="0" vol="193" key="21"/>
          <note len="12" pos="96" pan="0" vol="193" key="21"/>
          <note len="12" pos="108" pan="0" vol="193" key="21"/>
          <note len="12" pos="120" pan="0" vol="193" key="21"/>
          <note len="12" pos="132" pan="0" vol="193" key="21"/>
          <note len="12" pos="144" pan="0" vol="193" key="21"/>
          <note len="12" pos="156" pan="0" vol="193" key="21"/>
          <note len="48" pos="168" pan="0" vol="193" key="29"/>
          <note len="24" pos="216" pan="0" vol="193" key="25"/>
          <note len="24" pos="240" pan="0" vol="193" key="23"/>
          <note len="48" pos="264" pan="0" vol="193" key="25"/>
          <note len="12" pos="312" pan="0" vol="193" key="23"/>
          <note len="12" pos="324" pan="0" vol="193" key="25"/>
          <note len="12" pos="336" pan="0" vol="193" key="26"/>
          <note len="12" pos="348" pan="0" vol="193" key="25"/>
          <note len="12" pos="360" pan="0" vol="193" key="23"/>
          <note len="12" pos="372" pan="0" vol="193" key="25"/>
        </pattern>
        <pattern pos="7680" muted="0" steps="16" type="1" name="bass fender jazz (1,379kb)">
          <note len="12" pos="0" pan="0" vol="193" key="18"/>
          <note len="12" pos="12" pan="0" vol="193" key="18"/>
          <note len="12" pos="24" pan="0" vol="193" key="18"/>
          <note len="12" pos="36" pan="0" vol="193" key="18"/>
          <note len="12" pos="48" pan="0" vol="193" key="18"/>
          <note len="12" pos="60" pan="0" vol="193" key="18"/>
          <note len="12" pos="72" pan="0" vol="193" key="18"/>
          <note len="12" pos="84" pan="0" vol="193" key="18"/>
          <note len="12" pos="96" pan="0" vol="193" key="18"/>
          <note len="12" pos="108" pan="0" vol="193" key="18"/>
          <note len="12" pos="120" pan="0" vol="193" key="18"/>
          <note len="12" pos="132" pan="0" vol="193" key="18"/>
          <note len="12" pos="144" pan="0" vol="193" key="18"/>
          <note len="12" pos="156" pan="0" vol="193" key="18"/>
          <note len="24" pos="168" pan="0" vol="193" key="14"/>
          <note len="12" pos="192" pan="0" vol="193" key="14"/>
          <note len="12" pos="204" pan="0" vol="193" key="14"/>
          <note len="24" pos="216" pan="0" vol="193" key="14"/>
          <note len="12" pos="240" pan="0" vol="193" key="14"/>
          <note len="12" pos="252" pan="0" vol="193" key="14"/>
          <note len="48" pos="264" pan="0" vol="193" key="14"/>
          <note len="12" pos="312" pan="0" vol="193" key="14"/>
          <note len="12" pos="324" pan="0" vol="193" key="14"/>
          <note len="12" pos="336" pan="0" vol="193" key="14"/>
          <note len="12" pos="348" pan="0" vol="193" key="14"/>
          <note len="12" pos="360" pan="0" vol="193" key="14"/>
          <note len="12" pos="372" pan="0" vol="193" key="14"/>
        </pattern>
        <pattern pos="8064" muted="0" steps="16" type="1" name="bass fender jazz (1,379kb)">
          <note len="12" pos="0" pan="0" vol="193" key="21"/>
          <note len="12" pos="12" pan="0" vol="193" key="21"/>
          <note len="12" pos="24" pan="0" vol="193" key="21"/>
          <note len="12" pos="36" pan="0" vol="193" key="21"/>
          <note len="12" pos="48" pan="0" vol="193" key="21"/>
          <note len="12" pos="60" pan="0" vol="193" key="21"/>
          <note len="12" pos="72" pan="0" vol="193" key="21"/>
          <note len="12" pos="84" pan="0" vol="193" key="21"/>
          <note len="12" pos="96" pan="0" vol="193" key="21"/>
          <note len="12" pos="108" pan="0" vol="193" key="21"/>
          <note len="12" pos="120" pan="0" vol="193" key="21"/>
          <note len="12" pos="132" pan="0" vol="193" key="21"/>
          <note len="12" pos="144" pan="0" vol="193" key="21"/>
          <note len="12" pos="156" pan="0" vol="193" key="21"/>
          <note len="48" pos="168" pan="0" vol="193" key="29"/>
          <note len="24" pos="216" pan="0" vol="193" key="25"/>
          <note len="24" pos="240" pan="0" vol="193" key="23"/>
          <note len="48" pos="264" pan="0" vol="193" key="25"/>
          <note len="12" pos="312" pan="0" vol="193" key="23"/>
          <note len="12" pos="324" pan="0" vol="193" key="25"/>
          <note len="12" pos="336" pan="0" vol="193" key="26"/>
          <note len="12" pos="348" pan="0" vol="193" key="25"/>
          <note len="12" pos="360" pan="0" vol="193" key="23"/>
          <note len="12" pos="372" pan="0" vol="193" key="25"/>
        </pattern>
        <pattern pos="8448" muted="0" steps="16" type="1" name="bass fender jazz (1,379kb)">
          <note len="384" pos="0" pan="0" vol="197" key="14"/>
          <note len="192" pos="384" pan="0" vol="197" key="16"/>
          <note len="12" pos="576" pan="0" vol="197" key="17"/>
          <note len="12" pos="588" pan="0" vol="197" key="17"/>
          <note len="12" pos="600" pan="0" vol="197" key="13"/>
          <note len="12" pos="612" pan="0" vol="197" key="13"/>
          <note len="12" pos="624" pan="0" vol="197" key="17"/>
          <note len="12" pos="636" pan="0" vol="197" key="17"/>
          <note len="12" pos="648" pan="0" vol="197" key="18"/>
          <note len="12" pos="660" pan="0" vol="197" key="18"/>
          <note len="12" pos="672" pan="0" vol="197" key="20"/>
          <note len="12" pos="684" pan="0" vol="197" key="20"/>
          <note len="12" pos="696" pan="0" vol="197" key="18"/>
          <note len="12" pos="708" pan="0" vol="197" key="18"/>
          <note len="12" pos="720" pan="0" vol="197" key="17"/>
          <note len="12" pos="732" pan="0" vol="197" key="17"/>
          <note len="12" pos="744" pan="0" vol="197" key="13"/>
          <note len="12" pos="756" pan="0" vol="197" key="13"/>
        </pattern>
        <pattern pos="9216" muted="0" steps="16" type="1" name="bass fender jazz (1,379kb)">
          <note len="384" pos="0" pan="0" vol="193" key="18"/>
          <note len="48" pos="384" pan="0" vol="193" key="14"/>
          <note len="12" pos="432" pan="0" vol="193" key="14"/>
          <note len="12" pos="444" pan="0" vol="193" key="14"/>
          <note len="12" pos="456" pan="0" vol="193" key="14"/>
          <note len="12" pos="468" pan="0" vol="193" key="14"/>
          <note len="12" pos="480" pan="0" vol="193" key="14"/>
          <note len="12" pos="492" pan="0" vol="193" key="14"/>
          <note len="12" pos="504" pan="0" vol="193" key="14"/>
          <note len="12" pos="516" pan="0" vol="193" key="14"/>
          <note len="12" pos="528" pan="0" vol="193" key="14"/>
          <note len="12" pos="540" pan="0" vol="193" key="14"/>
          <note len="12" pos="552" pan="0" vol="193" key="14"/>
          <note len="12" pos="564" pan="0" vol="193" key="14"/>
          <note len="24" pos="576" pan="0" vol="193" key="14"/>
          <note len="12" pos="600" pan="0" vol="193" key="14"/>
          <note len="12" pos="612" pan="0" vol="193" key="14"/>
          <note len="12" pos="624" pan="0" vol="193" key="14"/>
          <note len="12" pos="636" pan="0" vol="193" key="14"/>
          <note len="24" pos="648" pan="0" vol="193" key="14"/>
          <note len="12" pos="672" pan="0" vol="193" key="14"/>
          <note len="12" pos="684" pan="0" vol="193" key="14"/>
          <note len="12" pos="696" pan="0" vol="193" key="14"/>
          <note len="12" pos="708" pan="0" vol="193" key="14"/>
          <note len="12" pos="720" pan="0" vol="193" key="14"/>
          <note len="12" pos="732" pan="0" vol="193" key="13"/>
          <note len="12" pos="744" pan="0" vol="193" key="14"/>
          <note len="12" pos="756" pan="0" vol="193" key="16"/>
        </pattern>
        <pattern pos="9984" muted="0" steps="16" type="1" name="bass fender jazz (1,379kb)">
          <note len="384" pos="0" pan="0" vol="193" key="18"/>
          <note len="48" pos="384" pan="0" vol="193" key="21"/>
          <note len="12" pos="432" pan="0" vol="193" key="21"/>
          <note len="12" pos="444" pan="0" vol="193" key="21"/>
          <note len="12" pos="456" pan="0" vol="193" key="21"/>
          <note len="12" pos="468" pan="0" vol="193" key="21"/>
          <note len="12" pos="480" pan="0" vol="193" key="21"/>
          <note len="12" pos="492" pan="0" vol="193" key="21"/>
          <note len="12" pos="504" pan="0" vol="193" key="21"/>
          <note len="12" pos="516" pan="0" vol="193" key="21"/>
          <note len="12" pos="528" pan="0" vol="193" key="21"/>
          <note len="12" pos="540" pan="0" vol="193" key="21"/>
          <note len="12" pos="552" pan="0" vol="193" key="21"/>
          <note len="12" pos="564" pan="0" vol="193" key="21"/>
          <note len="24" pos="576" pan="0" vol="193" key="13"/>
          <note len="12" pos="600" pan="0" vol="193" key="13"/>
          <note len="12" pos="612" pan="0" vol="193" key="13"/>
          <note len="12" pos="624" pan="0" vol="193" key="13"/>
          <note len="12" pos="636" pan="0" vol="193" key="13"/>
          <note len="24" pos="648" pan="0" vol="193" key="13"/>
          <note len="12" pos="672" pan="0" vol="193" key="13"/>
          <note len="12" pos="684" pan="0" vol="193" key="13"/>
          <note len="12" pos="696" pan="0" vol="193" key="13"/>
          <note len="12" pos="708" pan="0" vol="193" key="13"/>
          <note len="24" pos="720" pan="0" vol="193" key="13"/>
          <note len="12" pos="744" pan="0" vol="193" key="13"/>
          <note len="12" pos="756" pan="0" vol="193" key="13"/>
        </pattern>
        <pattern pos="10752" muted="0" steps="16" type="1" name="bass fender jazz (1,379kb)">
          <note len="384" pos="0" pan="0" vol="193" key="18"/>
          <note len="48" pos="384" pan="0" vol="193" key="11"/>
          <note len="12" pos="432" pan="0" vol="193" key="11"/>
          <note len="12" pos="444" pan="0" vol="193" key="11"/>
          <note len="12" pos="456" pan="0" vol="193" key="11"/>
          <note len="12" pos="468" pan="0" vol="193" key="11"/>
          <note len="12" pos="480" pan="0" vol="193" key="11"/>
          <note len="12" pos="492" pan="0" vol="193" key="11"/>
          <note len="12" pos="504" pan="0" vol="193" key="11"/>
          <note len="12" pos="516" pan="0" vol="193" key="11"/>
          <note len="12" pos="528" pan="0" vol="193" key="11"/>
          <note len="12" pos="540" pan="0" vol="193" key="11"/>
          <note len="12" pos="552" pan="0" vol="193" key="11"/>
          <note len="12" pos="564" pan="0" vol="193" key="11"/>
          <note len="24" pos="576" pan="0" vol="193" key="11"/>
          <note len="12" pos="600" pan="0" vol="193" key="11"/>
          <note len="12" pos="612" pan="0" vol="193" key="11"/>
          <note len="12" pos="624" pan="0" vol="193" key="11"/>
          <note len="12" pos="636" pan="0" vol="193" key="11"/>
          <note len="24" pos="648" pan="0" vol="193" key="11"/>
          <note len="12" pos="672" pan="0" vol="193" key="11"/>
          <note len="12" pos="684" pan="0" vol="193" key="11"/>
          <note len="12" pos="696" pan="0" vol="193" key="11"/>
          <note len="12" pos="708" pan="0" vol="193" key="11"/>
          <note len="12" pos="720" pan="0" vol="193" key="11"/>
          <note len="12" pos="732" pan="0" vol="193" key="10"/>
          <note len="12" pos="744" pan="0" vol="193" key="11"/>
          <note len="12" pos="756" pan="0" vol="193" key="13"/>
        </pattern>
        <pattern pos="12288" muted="0" steps="16" type="1" name="bass fender jazz (1,379kb)">
          <note len="12" pos="0" pan="0" vol="193" key="18"/>
          <note len="12" pos="12" pan="0" vol="193" key="18"/>
          <note len="12" pos="24" pan="0" vol="193" key="18"/>
          <note len="12" pos="36" pan="0" vol="193" key="18"/>
          <note len="12" pos="48" pan="0" vol="193" key="18"/>
          <note len="12" pos="60" pan="0" vol="193" key="18"/>
          <note len="12" pos="72" pan="0" vol="193" key="18"/>
          <note len="12" pos="84" pan="0" vol="193" key="18"/>
          <note len="12" pos="96" pan="0" vol="193" key="18"/>
          <note len="12" pos="108" pan="0" vol="193" key="18"/>
          <note len="12" pos="120" pan="0" vol="193" key="18"/>
          <note len="12" pos="132" pan="0" vol="193" key="18"/>
          <note len="12" pos="144" pan="0" vol="193" key="18"/>
          <note len="12" pos="156" pan="0" vol="193" key="18"/>
          <note len="12" pos="168" pan="0" vol="193" key="18"/>
          <note len="12" pos="180" pan="0" vol="193" key="18"/>
          <note len="12" pos="192" pan="0" vol="193" key="18"/>
          <note len="12" pos="204" pan="0" vol="193" key="18"/>
          <note len="12" pos="216" pan="0" vol="193" key="18"/>
          <note len="12" pos="228" pan="0" vol="193" key="18"/>
          <note len="12" pos="240" pan="0" vol="193" key="18"/>
          <note len="12" pos="252" pan="0" vol="193" key="18"/>
          <note len="12" pos="264" pan="0" vol="193" key="18"/>
          <note len="12" pos="276" pan="0" vol="193" key="18"/>
          <note len="12" pos="288" pan="0" vol="193" key="18"/>
          <note len="12" pos="300" pan="0" vol="193" key="18"/>
          <note len="12" pos="312" pan="0" vol="193" key="18"/>
          <note len="12" pos="324" pan="0" vol="193" key="18"/>
          <note len="12" pos="336" pan="0" vol="193" key="18"/>
          <note len="12" pos="348" pan="0" vol="193" key="18"/>
          <note len="12" pos="360" pan="0" vol="193" key="18"/>
          <note len="12" pos="372" pan="0" vol="193" key="18"/>
          <note len="12" pos="384" pan="0" vol="193" key="13"/>
          <note len="12" pos="396" pan="0" vol="193" key="13"/>
          <note len="12" pos="408" pan="0" vol="193" key="13"/>
          <note len="12" pos="420" pan="0" vol="193" key="13"/>
          <note len="12" pos="432" pan="0" vol="193" key="13"/>
          <note len="12" pos="444" pan="0" vol="193" key="13"/>
          <note len="12" pos="456" pan="0" vol="193" key="13"/>
          <note len="12" pos="468" pan="0" vol="193" key="13"/>
          <note len="12" pos="480" pan="0" vol="193" key="13"/>
          <note len="12" pos="492" pan="0" vol="193" key="13"/>
          <note len="12" pos="504" pan="0" vol="193" key="13"/>
          <note len="12" pos="516" pan="0" vol="193" key="13"/>
          <note len="12" pos="528" pan="0" vol="193" key="13"/>
          <note len="12" pos="540" pan="0" vol="193" key="13"/>
          <note len="12" pos="552" pan="0" vol="193" key="13"/>
          <note len="12" pos="564" pan="0" vol="193" key="13"/>
          <note len="12" pos="576" pan="0" vol="193" key="13"/>
          <note len="12" pos="588" pan="0" vol="193" key="13"/>
          <note len="12" pos="600" pan="0" vol="193" key="13"/>
          <note len="12" pos="612" pan="0" vol="193" key="13"/>
          <note len="12" pos="624" pan="0" vol="193" key="13"/>
          <note len="12" pos="636" pan="0" vol="193" key="13"/>
          <note len="12" pos="648" pan="0" vol="193" key="13"/>
          <note len="12" pos="660" pan="0" vol="193" key="13"/>
          <note len="12" pos="672" pan="0" vol="193" key="13"/>
          <note len="12" pos="684" pan="0" vol="193" key="13"/>
          <note len="12" pos="696" pan="0" vol="193" key="13"/>
          <note len="12" pos="708" pan="0" vol="193" key="13"/>
          <note len="12" pos="720" pan="0" vol="193" key="13"/>
          <note len="12" pos="732" pan="0" vol="193" key="13"/>
          <note len="12" pos="744" pan="0" vol="193" key="13"/>
          <note len="12" pos="756" pan="0" vol="193" key="13"/>
        </pattern>
        <pattern pos="13056" muted="0" steps="16" type="1" name="bass fender jazz (1,379kb)">
          <note len="12" pos="0" pan="0" vol="193" key="18"/>
          <note len="12" pos="12" pan="0" vol="193" key="18"/>
          <note len="12" pos="24" pan="0" vol="193" key="18"/>
          <note len="12" pos="36" pan="0" vol="193" key="18"/>
          <note len="12" pos="48" pan="0" vol="193" key="18"/>
          <note len="12" pos="60" pan="0" vol="193" key="18"/>
          <note len="12" pos="72" pan="0" vol="193" key="18"/>
          <note len="12" pos="84" pan="0" vol="193" key="18"/>
          <note len="12" pos="96" pan="0" vol="193" key="18"/>
          <note len="12" pos="108" pan="0" vol="193" key="18"/>
          <note len="12" pos="120" pan="0" vol="193" key="18"/>
          <note len="12" pos="132" pan="0" vol="193" key="18"/>
          <note len="12" pos="144" pan="0" vol="193" key="18"/>
          <note len="12" pos="156" pan="0" vol="193" key="18"/>
          <note len="12" pos="168" pan="0" vol="193" key="18"/>
          <note len="12" pos="180" pan="0" vol="193" key="18"/>
          <note len="12" pos="192" pan="0" vol="193" key="18"/>
          <note len="12" pos="204" pan="0" vol="193" key="18"/>
          <note len="12" pos="216" pan="0" vol="193" key="18"/>
          <note len="12" pos="228" pan="0" vol="193" key="18"/>
          <note len="12" pos="240" pan="0" vol="193" key="18"/>
          <note len="12" pos="252" pan="0" vol="193" key="18"/>
          <note len="12" pos="264" pan="0" vol="193" key="18"/>
          <note len="12" pos="276" pan="0" vol="193" key="18"/>
          <note len="12" pos="288" pan="0" vol="193" key="18"/>
          <note len="12" pos="300" pan="0" vol="193" key="18"/>
          <note len="12" pos="312" pan="0" vol="193" key="18"/>
          <note len="12" pos="324" pan="0" vol="193" key="18"/>
          <note len="12" pos="336" pan="0" vol="193" key="18"/>
          <note len="12" pos="348" pan="0" vol="193" key="18"/>
          <note len="12" pos="360" pan="0" vol="193" key="18"/>
          <note len="12" pos="372" pan="0" vol="193" key="18"/>
          <note len="12" pos="384" pan="0" vol="193" key="13"/>
          <note len="12" pos="396" pan="0" vol="193" key="13"/>
          <note len="12" pos="408" pan="0" vol="193" key="13"/>
          <note len="12" pos="420" pan="0" vol="193" key="13"/>
          <note len="12" pos="432" pan="0" vol="193" key="13"/>
          <note len="12" pos="444" pan="0" vol="193" key="13"/>
          <note len="12" pos="456" pan="0" vol="193" key="13"/>
          <note len="12" pos="468" pan="0" vol="193" key="13"/>
          <note len="12" pos="480" pan="0" vol="193" key="13"/>
          <note len="12" pos="492" pan="0" vol="193" key="13"/>
          <note len="12" pos="504" pan="0" vol="193" key="13"/>
          <note len="12" pos="516" pan="0" vol="193" key="13"/>
          <note len="12" pos="528" pan="0" vol="193" key="13"/>
          <note len="12" pos="540" pan="0" vol="193" key="13"/>
          <note len="12" pos="552" pan="0" vol="193" key="13"/>
          <note len="12" pos="564" pan="0" vol="193" key="13"/>
          <note len="12" pos="576" pan="0" vol="193" key="13"/>
          <note len="12" pos="588" pan="0" vol="193" key="13"/>
          <note len="12" pos="600" pan="0" vol="193" key="13"/>
          <note len="12" pos="612" pan="0" vol="193" key="13"/>
          <note len="12" pos="624" pan="0" vol="193" key="13"/>
          <note len="12" pos="636" pan="0" vol="193" key="13"/>
          <note len="12" pos="648" pan="0" vol="193" key="13"/>
          <note len="12" pos="660" pan="0" vol="193" key="13"/>
          <note len="12" pos="672" pan="0" vol="193" key="13"/>
          <note len="12" pos="684" pan="0" vol="193" key="13"/>
          <note len="12" pos="696" pan="0" vol="193" key="13"/>
          <note len="12" pos="708" pan="0" vol="193" key="13"/>
          <note len="12" pos="720" pan="0" vol="193" key="13"/>
          <note len="12" pos="732" pan="0" vol="193" key="13"/>
          <note len="12" pos="744" pan="0" vol="193" key="13"/>
          <note len="12" pos="756" pan="0" vol="193" key="13"/>
        </pattern>
        <pattern pos="11520" muted="0" steps="16" type="1" name="bass fender jazz (1,379kb)">
          <note len="12" pos="0" pan="0" vol="193" key="21"/>
          <note len="12" pos="0" pan="0" vol="193" key="1"/>
          <note len="12" pos="12" pan="0" vol="193" key="21"/>
          <note len="12" pos="24" pan="0" vol="193" key="21"/>
          <note len="12" pos="36" pan="0" vol="193" key="21"/>
          <note len="12" pos="48" pan="0" vol="193" key="21"/>
          <note len="12" pos="60" pan="0" vol="193" key="21"/>
          <note len="12" pos="72" pan="0" vol="193" key="21"/>
          <note len="12" pos="84" pan="0" vol="193" key="21"/>
          <note len="12" pos="96" pan="0" vol="193" key="21"/>
          <note len="12" pos="108" pan="0" vol="193" key="21"/>
          <note len="12" pos="120" pan="0" vol="193" key="21"/>
          <note len="12" pos="132" pan="0" vol="193" key="21"/>
          <note len="12" pos="144" pan="0" vol="193" key="21"/>
          <note len="12" pos="156" pan="0" vol="193" key="21"/>
          <note len="12" pos="168" pan="0" vol="193" key="21"/>
          <note len="12" pos="180" pan="0" vol="193" key="21"/>
          <note len="12" pos="192" pan="0" vol="193" key="14"/>
          <note len="12" pos="192" pan="0" vol="193" key="0"/>
          <note len="12" pos="204" pan="0" vol="193" key="13"/>
          <note len="12" pos="204" pan="0" vol="193" key="1"/>
          <note len="12" pos="216" pan="0" vol="193" key="13"/>
          <note len="12" pos="228" pan="0" vol="193" key="13"/>
          <note len="12" pos="240" pan="0" vol="193" key="13"/>
          <note len="12" pos="252" pan="0" vol="193" key="13"/>
          <note len="12" pos="264" pan="0" vol="193" key="14"/>
          <note len="12" pos="264" pan="0" vol="193" key="0"/>
          <note len="12" pos="276" pan="0" vol="193" key="13"/>
          <note len="12" pos="276" pan="0" vol="193" key="1"/>
          <note len="12" pos="288" pan="0" vol="193" key="13"/>
          <note len="12" pos="300" pan="0" vol="193" key="13"/>
          <note len="12" pos="312" pan="0" vol="193" key="13"/>
          <note len="12" pos="324" pan="0" vol="193" key="13"/>
          <note len="12" pos="336" pan="0" vol="193" key="14"/>
          <note len="12" pos="348" pan="0" vol="193" key="17"/>
          <note len="12" pos="360" pan="0" vol="193" key="18"/>
          <note len="12" pos="372" pan="0" vol="193" key="20"/>
          <note len="24" pos="384" pan="0" vol="193" key="18"/>
          <note len="12" pos="384" pan="0" vol="193" key="0"/>
          <note len="12" pos="396" pan="0" vol="193" key="1"/>
          <note len="12" pos="408" pan="0" vol="193" key="18"/>
          <note len="12" pos="420" pan="0" vol="193" key="18"/>
          <note len="12" pos="432" pan="0" vol="193" key="18"/>
          <note len="12" pos="444" pan="0" vol="193" key="18"/>
          <note len="12" pos="456" pan="0" vol="193" key="18"/>
          <note len="12" pos="468" pan="0" vol="193" key="18"/>
          <note len="24" pos="480" pan="0" vol="193" key="18"/>
          <note len="12" pos="480" pan="0" vol="193" key="0"/>
          <note len="12" pos="492" pan="0" vol="193" key="1"/>
          <note len="12" pos="504" pan="0" vol="193" key="18"/>
          <note len="12" pos="516" pan="0" vol="193" key="18"/>
          <note len="12" pos="528" pan="0" vol="193" key="18"/>
          <note len="12" pos="540" pan="0" vol="193" key="18"/>
          <note len="12" pos="552" pan="0" vol="193" key="18"/>
          <note len="12" pos="564" pan="0" vol="193" key="18"/>
          <note len="24" pos="576" pan="0" vol="193" key="18"/>
          <note len="12" pos="576" pan="0" vol="193" key="0"/>
          <note len="12" pos="588" pan="0" vol="193" key="1"/>
          <note len="12" pos="600" pan="0" vol="193" key="18"/>
          <note len="12" pos="612" pan="0" vol="193" key="18"/>
          <note len="24" pos="624" pan="0" vol="193" key="18"/>
          <note len="12" pos="624" pan="0" vol="193" key="0"/>
          <note len="12" pos="636" pan="0" vol="193" key="1"/>
          <note len="12" pos="648" pan="0" vol="193" key="18"/>
          <note len="12" pos="660" pan="0" vol="193" key="18"/>
          <note len="24" pos="672" pan="0" vol="193" key="18"/>
          <note len="12" pos="672" pan="0" vol="193" key="0"/>
          <note len="12" pos="684" pan="0" vol="193" key="1"/>
          <note len="24" pos="696" pan="0" vol="193" key="18"/>
          <note len="12" pos="720" pan="0" vol="193" key="18"/>
          <note len="12" pos="732" pan="0" vol="193" key="18"/>
          <note len="12" pos="744" pan="0" vol="193" key="18"/>
          <note len="12" pos="756" pan="0" vol="193" key="18"/>
        </pattern>
        <pattern pos="13824" muted="0" steps="16" type="1" name="bass fender jazz (1,379kb)">
          <note len="384" pos="0" pan="0" vol="193" key="18"/>
          <note len="48" pos="384" pan="0" vol="193" key="14"/>
          <note len="12" pos="432" pan="0" vol="193" key="14"/>
          <note len="12" pos="444" pan="0" vol="193" key="14"/>
          <note len="12" pos="456" pan="0" vol="193" key="14"/>
          <note len="12" pos="468" pan="0" vol="193" key="14"/>
          <note len="12" pos="480" pan="0" vol="193" key="14"/>
          <note len="12" pos="492" pan="0" vol="193" key="14"/>
          <note len="12" pos="504" pan="0" vol="193" key="14"/>
          <note len="12" pos="516" pan="0" vol="193" key="14"/>
          <note len="12" pos="528" pan="0" vol="193" key="14"/>
          <note len="12" pos="540" pan="0" vol="193" key="14"/>
          <note len="12" pos="552" pan="0" vol="193" key="14"/>
          <note len="12" pos="564" pan="0" vol="193" key="14"/>
          <note len="24" pos="576" pan="0" vol="193" key="14"/>
          <note len="12" pos="600" pan="0" vol="193" key="14"/>
          <note len="12" pos="612" pan="0" vol="193" key="14"/>
          <note len="12" pos="624" pan="0" vol="193" key="14"/>
          <note len="12" pos="636" pan="0" vol="193" key="14"/>
          <note len="24" pos="648" pan="0" vol="193" key="14"/>
          <note len="12" pos="672" pan="0" vol="193" key="14"/>
          <note len="12" pos="684" pan="0" vol="193" key="14"/>
          <note len="12" pos="696" pan="0" vol="193" key="14"/>
          <note len="12" pos="708" pan="0" vol="193" key="14"/>
          <note len="12" pos="720" pan="0" vol="193" key="14"/>
          <note len="12" pos="732" pan="0" vol="193" key="13"/>
          <note len="12" pos="744" pan="0" vol="193" key="14"/>
          <note len="12" pos="756" pan="0" vol="193" key="16"/>
        </pattern>
        <pattern pos="14592" muted="0" steps="16" type="1" name="bass fender jazz (1,379kb)">
          <note len="384" pos="0" pan="0" vol="193" key="18"/>
          <note len="48" pos="384" pan="0" vol="193" key="21"/>
          <note len="12" pos="432" pan="0" vol="193" key="21"/>
          <note len="12" pos="444" pan="0" vol="193" key="21"/>
          <note len="12" pos="456" pan="0" vol="193" key="21"/>
          <note len="12" pos="468" pan="0" vol="193" key="21"/>
          <note len="12" pos="480" pan="0" vol="193" key="21"/>
          <note len="12" pos="492" pan="0" vol="193" key="21"/>
          <note len="12" pos="504" pan="0" vol="193" key="21"/>
          <note len="12" pos="516" pan="0" vol="193" key="21"/>
          <note len="12" pos="528" pan="0" vol="193" key="21"/>
          <note len="12" pos="540" pan="0" vol="193" key="21"/>
          <note len="12" pos="552" pan="0" vol="193" key="21"/>
          <note len="12" pos="564" pan="0" vol="193" key="21"/>
          <note len="24" pos="576" pan="0" vol="193" key="13"/>
          <note len="12" pos="600" pan="0" vol="193" key="13"/>
          <note len="12" pos="612" pan="0" vol="193" key="13"/>
          <note len="12" pos="624" pan="0" vol="193" key="13"/>
          <note len="12" pos="636" pan="0" vol="193" key="13"/>
          <note len="24" pos="648" pan="0" vol="193" key="13"/>
          <note len="12" pos="672" pan="0" vol="193" key="13"/>
          <note len="12" pos="684" pan="0" vol="193" key="13"/>
          <note len="12" pos="696" pan="0" vol="193" key="13"/>
          <note len="12" pos="708" pan="0" vol="193" key="13"/>
          <note len="24" pos="720" pan="0" vol="193" key="13"/>
          <note len="12" pos="744" pan="0" vol="193" key="13"/>
          <note len="12" pos="756" pan="0" vol="193" key="13"/>
        </pattern>
        <pattern pos="15360" muted="0" steps="16" type="1" name="bass fender jazz (1,379kb)">
          <note len="384" pos="0" pan="0" vol="193" key="18"/>
          <note len="48" pos="384" pan="0" vol="193" key="11"/>
          <note len="12" pos="432" pan="0" vol="193" key="11"/>
          <note len="12" pos="444" pan="0" vol="193" key="11"/>
          <note len="12" pos="456" pan="0" vol="193" key="11"/>
          <note len="12" pos="468" pan="0" vol="193" key="11"/>
          <note len="12" pos="480" pan="0" vol="193" key="11"/>
          <note len="12" pos="492" pan="0" vol="193" key="11"/>
          <note len="12" pos="504" pan="0" vol="193" key="11"/>
          <note len="12" pos="516" pan="0" vol="193" key="11"/>
          <note len="12" pos="528" pan="0" vol="193" key="11"/>
          <note len="12" pos="540" pan="0" vol="193" key="11"/>
          <note len="12" pos="552" pan="0" vol="193" key="11"/>
          <note len="12" pos="564" pan="0" vol="193" key="11"/>
          <note len="24" pos="576" pan="0" vol="193" key="11"/>
          <note len="12" pos="600" pan="0" vol="193" key="11"/>
          <note len="12" pos="612" pan="0" vol="193" key="11"/>
          <note len="12" pos="624" pan="0" vol="193" key="11"/>
          <note len="12" pos="636" pan="0" vol="193" key="11"/>
          <note len="24" pos="648" pan="0" vol="193" key="11"/>
          <note len="12" pos="672" pan="0" vol="193" key="11"/>
          <note len="12" pos="684" pan="0" vol="193" key="11"/>
          <note len="12" pos="696" pan="0" vol="193" key="11"/>
          <note len="12" pos="708" pan="0" vol="193" key="11"/>
          <note len="12" pos="720" pan="0" vol="193" key="11"/>
          <note len="12" pos="732" pan="0" vol="193" key="10"/>
          <note len="12" pos="744" pan="0" vol="193" key="11"/>
          <note len="12" pos="756" pan="0" vol="193" key="13"/>
        </pattern>
        <pattern pos="16128" muted="0" steps="16" type="1" name="bass fender jazz (1,379kb)">
          <note len="12" pos="0" pan="0" vol="193" key="21"/>
          <note len="12" pos="0" pan="0" vol="193" key="1"/>
          <note len="12" pos="12" pan="0" vol="193" key="21"/>
          <note len="12" pos="24" pan="0" vol="193" key="21"/>
          <note len="12" pos="36" pan="0" vol="193" key="21"/>
          <note len="12" pos="48" pan="0" vol="193" key="21"/>
          <note len="12" pos="60" pan="0" vol="193" key="21"/>
          <note len="12" pos="72" pan="0" vol="193" key="21"/>
          <note len="12" pos="84" pan="0" vol="193" key="21"/>
          <note len="12" pos="96" pan="0" vol="193" key="21"/>
          <note len="12" pos="108" pan="0" vol="193" key="21"/>
          <note len="12" pos="120" pan="0" vol="193" key="21"/>
          <note len="12" pos="132" pan="0" vol="193" key="21"/>
          <note len="12" pos="144" pan="0" vol="193" key="21"/>
          <note len="12" pos="156" pan="0" vol="193" key="21"/>
          <note len="12" pos="168" pan="0" vol="193" key="21"/>
          <note len="12" pos="180" pan="0" vol="193" key="21"/>
          <note len="12" pos="192" pan="0" vol="193" key="14"/>
          <note len="12" pos="192" pan="0" vol="193" key="0"/>
          <note len="12" pos="204" pan="0" vol="193" key="13"/>
          <note len="12" pos="204" pan="0" vol="193" key="1"/>
          <note len="12" pos="216" pan="0" vol="193" key="13"/>
          <note len="12" pos="228" pan="0" vol="193" key="13"/>
          <note len="12" pos="240" pan="0" vol="193" key="13"/>
          <note len="12" pos="252" pan="0" vol="193" key="13"/>
          <note len="12" pos="264" pan="0" vol="193" key="14"/>
          <note len="12" pos="264" pan="0" vol="193" key="0"/>
          <note len="12" pos="276" pan="0" vol="193" key="13"/>
          <note len="12" pos="276" pan="0" vol="193" key="1"/>
          <note len="12" pos="288" pan="0" vol="193" key="13"/>
          <note len="12" pos="300" pan="0" vol="193" key="13"/>
          <note len="12" pos="312" pan="0" vol="193" key="13"/>
          <note len="12" pos="324" pan="0" vol="193" key="13"/>
          <note len="12" pos="336" pan="0" vol="193" key="14"/>
          <note len="12" pos="348" pan="0" vol="193" key="17"/>
          <note len="12" pos="360" pan="0" vol="193" key="18"/>
          <note len="12" pos="372" pan="0" vol="193" key="20"/>
          <note len="24" pos="384" pan="0" vol="193" key="18"/>
          <note len="12" pos="384" pan="0" vol="193" key="0"/>
          <note len="12" pos="396" pan="0" vol="193" key="1"/>
          <note len="12" pos="408" pan="0" vol="193" key="18"/>
          <note len="12" pos="420" pan="0" vol="193" key="18"/>
          <note len="12" pos="432" pan="0" vol="193" key="18"/>
          <note len="12" pos="444" pan="0" vol="193" key="18"/>
          <note len="12" pos="456" pan="0" vol="193" key="18"/>
          <note len="12" pos="468" pan="0" vol="193" key="18"/>
          <note len="24" pos="480" pan="0" vol="193" key="18"/>
          <note len="12" pos="480" pan="0" vol="193" key="0"/>
          <note len="12" pos="492" pan="0" vol="193" key="1"/>
          <note len="12" pos="504" pan="0" vol="193" key="18"/>
          <note len="12" pos="516" pan="0" vol="193" key="18"/>
          <note len="12" pos="528" pan="0" vol="193" key="18"/>
          <note len="12" pos="540" pan="0" vol="193" key="18"/>
          <note len="12" pos="552" pan="0" vol="193" key="18"/>
          <note len="12" pos="564" pan="0" vol="193" key="18"/>
          <note len="12" pos="576" pan="0" vol="193" key="18"/>
          <note len="12" pos="576" pan="0" vol="193" key="1"/>
          <note len="12" pos="588" pan="0" vol="193" key="18"/>
          <note len="12" pos="600" pan="0" vol="193" key="18"/>
          <note len="12" pos="648" pan="0" vol="193" key="18"/>
          <note len="12" pos="660" pan="0" vol="193" key="18"/>
          <note len="12" pos="672" pan="0" vol="193" key="18"/>
        </pattern>
        <pattern pos="16896" muted="0" steps="16" type="1" name="bass fender jazz (1,379kb)">
          <note len="24" pos="0" pan="0" vol="193" key="23"/>
          <note len="24" pos="48" pan="0" vol="193" key="23"/>
          <note len="24" pos="96" pan="0" vol="193" key="23"/>
          <note len="24" pos="144" pan="0" vol="193" key="23"/>
          <note len="24" pos="192" pan="0" vol="193" key="16"/>
          <note len="24" pos="240" pan="0" vol="193" key="16"/>
          <note len="24" pos="288" pan="0" vol="193" key="16"/>
          <note len="24" pos="336" pan="0" vol="193" key="16"/>
          <note len="24" pos="384" pan="0" vol="193" key="21"/>
          <note len="24" pos="432" pan="0" vol="193" key="21"/>
          <note len="24" pos="480" pan="0" vol="193" key="21"/>
          <note len="24" pos="528" pan="0" vol="193" key="21"/>
          <note len="24" pos="576" pan="0" vol="193" key="14"/>
          <note len="24" pos="624" pan="0" vol="193" key="14"/>
          <note len="24" pos="672" pan="0" vol="193" key="14"/>
          <note len="24" pos="768" pan="0" vol="193" key="20"/>
          <note len="24" pos="792" pan="0" vol="193" key="23"/>
          <note len="24" pos="816" pan="0" vol="193" key="21"/>
          <note len="24" pos="840" pan="0" vol="193" key="23"/>
          <note len="24" pos="864" pan="0" vol="193" key="17"/>
          <note len="24" pos="888" pan="0" vol="193" key="20"/>
          <note len="24" pos="912" pan="0" vol="193" key="18"/>
          <note len="24" pos="936" pan="0" vol="193" key="20"/>
        </pattern>
        <pattern pos="18432" muted="0" steps="16" type="1" name="bass fender jazz (1,379kb)">
          <note len="12" pos="0" pan="0" vol="193" key="23"/>
          <note len="12" pos="0" pan="0" vol="193" key="1"/>
          <note len="12" pos="12" pan="0" vol="193" key="23"/>
          <note len="12" pos="24" pan="0" vol="193" key="26"/>
          <note len="12" pos="36" pan="0" vol="193" key="26"/>
          <note len="12" pos="48" pan="0" vol="193" key="25"/>
          <note len="12" pos="60" pan="0" vol="193" key="25"/>
          <note len="12" pos="72" pan="0" vol="193" key="26"/>
          <note len="12" pos="84" pan="0" vol="193" key="26"/>
          <note len="12" pos="96" pan="0" vol="193" key="23"/>
          <note len="12" pos="108" pan="0" vol="193" key="23"/>
          <note len="12" pos="120" pan="0" vol="193" key="26"/>
          <note len="12" pos="132" pan="0" vol="193" key="26"/>
          <note len="12" pos="144" pan="0" vol="193" key="25"/>
          <note len="12" pos="156" pan="0" vol="193" key="25"/>
          <note len="12" pos="168" pan="0" vol="193" key="26"/>
          <note len="12" pos="180" pan="0" vol="193" key="26"/>
          <note len="12" pos="192" pan="0" vol="193" key="16"/>
          <note len="12" pos="204" pan="0" vol="193" key="16"/>
          <note len="12" pos="216" pan="0" vol="193" key="20"/>
          <note len="12" pos="228" pan="0" vol="193" key="20"/>
          <note len="12" pos="240" pan="0" vol="193" key="18"/>
          <note len="12" pos="252" pan="0" vol="193" key="18"/>
          <note len="12" pos="264" pan="0" vol="193" key="20"/>
          <note len="12" pos="276" pan="0" vol="193" key="20"/>
          <note len="12" pos="288" pan="0" vol="193" key="16"/>
          <note len="12" pos="300" pan="0" vol="193" key="16"/>
          <note len="12" pos="312" pan="0" vol="193" key="20"/>
          <note len="12" pos="324" pan="0" vol="193" key="20"/>
          <note len="12" pos="336" pan="0" vol="193" key="18"/>
          <note len="12" pos="348" pan="0" vol="193" key="18"/>
          <note len="12" pos="360" pan="0" vol="193" key="20"/>
          <note len="12" pos="372" pan="0" vol="193" key="20"/>
          <note len="12" pos="384" pan="0" vol="193" key="21"/>
          <note len="12" pos="396" pan="0" vol="193" key="21"/>
          <note len="12" pos="408" pan="0" vol="193" key="25"/>
          <note len="12" pos="420" pan="0" vol="193" key="25"/>
          <note len="12" pos="432" pan="0" vol="193" key="23"/>
          <note len="12" pos="444" pan="0" vol="193" key="23"/>
          <note len="12" pos="456" pan="0" vol="193" key="25"/>
          <note len="12" pos="468" pan="0" vol="193" key="25"/>
          <note len="12" pos="480" pan="0" vol="193" key="21"/>
          <note len="12" pos="492" pan="0" vol="193" key="21"/>
          <note len="12" pos="504" pan="0" vol="193" key="25"/>
          <note len="12" pos="516" pan="0" vol="193" key="25"/>
          <note len="12" pos="528" pan="0" vol="193" key="23"/>
          <note len="12" pos="540" pan="0" vol="193" key="23"/>
          <note len="12" pos="552" pan="0" vol="193" key="25"/>
          <note len="12" pos="564" pan="0" vol="193" key="25"/>
          <note len="12" pos="576" pan="0" vol="193" key="14"/>
          <note len="12" pos="588" pan="0" vol="193" key="14"/>
          <note len="12" pos="600" pan="0" vol="193" key="18"/>
          <note len="12" pos="612" pan="0" vol="193" key="18"/>
          <note len="12" pos="624" pan="0" vol="193" key="16"/>
          <note len="12" pos="636" pan="0" vol="193" key="16"/>
          <note len="12" pos="648" pan="0" vol="193" key="18"/>
          <note len="12" pos="660" pan="0" vol="193" key="18"/>
          <note len="12" pos="672" pan="0" vol="193" key="14"/>
          <note len="12" pos="684" pan="0" vol="193" key="14"/>
          <note len="12" pos="696" pan="0" vol="193" key="18"/>
          <note len="12" pos="708" pan="0" vol="193" key="18"/>
          <note len="12" pos="720" pan="0" vol="193" key="16"/>
          <note len="12" pos="732" pan="0" vol="193" key="16"/>
          <note len="12" pos="744" pan="0" vol="193" key="18"/>
          <note len="12" pos="756" pan="0" vol="193" key="18"/>
          <note len="12" pos="768" pan="0" vol="193" key="14"/>
          <note len="12" pos="768" pan="0" vol="193" key="0"/>
          <note len="12" pos="780" pan="0" vol="193" key="13"/>
          <note len="12" pos="780" pan="0" vol="193" key="1"/>
          <note len="12" pos="792" pan="0" vol="193" key="11"/>
          <note len="12" pos="804" pan="0" vol="193" key="11"/>
          <note len="12" pos="816" pan="0" vol="193" key="11"/>
          <note len="12" pos="828" pan="0" vol="193" key="11"/>
          <note len="12" pos="840" pan="0" vol="193" key="14"/>
          <note len="12" pos="840" pan="0" vol="193" key="0"/>
          <note len="12" pos="852" pan="0" vol="193" key="13"/>
          <note len="12" pos="852" pan="0" vol="193" key="1"/>
          <note len="12" pos="864" pan="0" vol="193" key="11"/>
          <note len="12" pos="876" pan="0" vol="193" key="11"/>
          <note len="12" pos="888" pan="0" vol="193" key="11"/>
          <note len="12" pos="900" pan="0" vol="193" key="11"/>
          <note len="12" pos="912" pan="0" vol="193" key="14"/>
          <note len="12" pos="912" pan="0" vol="193" key="0"/>
          <note len="12" pos="924" pan="0" vol="193" key="13"/>
          <note len="12" pos="924" pan="0" vol="193" key="1"/>
          <note len="12" pos="936" pan="0" vol="193" key="11"/>
          <note len="12" pos="948" pan="0" vol="193" key="11"/>
          <note len="12" pos="960" pan="0" vol="193" key="20"/>
          <note len="12" pos="972" pan="0" vol="193" key="20"/>
          <note len="12" pos="984" pan="0" vol="193" key="20"/>
          <note len="12" pos="996" pan="0" vol="193" key="20"/>
          <note len="12" pos="1008" pan="0" vol="193" key="24"/>
          <note len="12" pos="1020" pan="0" vol="193" key="24"/>
          <note len="12" pos="1032" pan="0" vol="193" key="24"/>
          <note len="12" pos="1044" pan="0" vol="193" key="24"/>
          <note len="12" pos="1056" pan="0" vol="193" key="25"/>
          <note len="12" pos="1068" pan="0" vol="193" key="25"/>
          <note len="12" pos="1080" pan="0" vol="193" key="25"/>
          <note len="12" pos="1092" pan="0" vol="193" key="25"/>
          <note len="12" pos="1104" pan="0" vol="193" key="27"/>
          <note len="12" pos="1116" pan="0" vol="193" key="27"/>
          <note len="12" pos="1128" pan="0" vol="193" key="27"/>
          <note len="12" pos="1140" pan="0" vol="193" key="27"/>
          <note len="24" pos="1152" pan="0" vol="193" key="25"/>
          <note len="12" pos="1152" pan="0" vol="193" key="0"/>
          <note len="12" pos="1164" pan="0" vol="193" key="1"/>
          <note len="12" pos="1176" pan="0" vol="193" key="13"/>
          <note len="12" pos="1188" pan="0" vol="193" key="13"/>
          <note len="12" pos="1200" pan="0" vol="193" key="13"/>
          <note len="12" pos="1212" pan="0" vol="193" key="13"/>
          <note len="12" pos="1224" pan="0" vol="193" key="13"/>
          <note len="12" pos="1236" pan="0" vol="193" key="13"/>
          <note len="12" pos="1248" pan="0" vol="193" key="13"/>
          <note len="12" pos="1260" pan="0" vol="193" key="13"/>
          <note len="24" pos="1272" pan="0" vol="193" key="25"/>
          <note len="12" pos="1272" pan="0" vol="193" key="0"/>
          <note len="12" pos="1284" pan="0" vol="193" key="1"/>
          <note len="12" pos="1296" pan="0" vol="193" key="13"/>
          <note len="12" pos="1308" pan="0" vol="193" key="13"/>
          <note len="12" pos="1320" pan="0" vol="193" key="13"/>
          <note len="12" pos="1332" pan="0" vol="193" key="13"/>
          <note len="24" pos="1344" pan="0" vol="193" key="25"/>
          <note len="12" pos="1344" pan="0" vol="193" key="0"/>
          <note len="12" pos="1356" pan="0" vol="193" key="1"/>
          <note len="12" pos="1368" pan="0" vol="193" key="13"/>
          <note len="12" pos="1380" pan="0" vol="193" key="13"/>
          <note len="12" pos="1392" pan="0" vol="193" key="13"/>
          <note len="12" pos="1404" pan="0" vol="193" key="13"/>
          <note len="12" pos="1416" pan="0" vol="193" key="13"/>
          <note len="12" pos="1428" pan="0" vol="193" key="13"/>
          <note len="12" pos="1440" pan="0" vol="193" key="13"/>
          <note len="12" pos="1452" pan="0" vol="193" key="13"/>
          <note len="24" pos="1464" pan="0" vol="193" key="25"/>
          <note len="12" pos="1464" pan="0" vol="193" key="0"/>
          <note len="12" pos="1476" pan="0" vol="193" key="1"/>
          <note len="12" pos="1488" pan="0" vol="193" key="13"/>
          <note len="12" pos="1500" pan="0" vol="193" key="13"/>
          <note len="12" pos="1512" pan="0" vol="193" key="13"/>
          <note len="12" pos="1524" pan="0" vol="193" key="13"/>
        </pattern>
        <pattern pos="19968" muted="0" steps="16" type="1" name="bass fender jazz (1,379kb)">
          <note len="12" pos="0" pan="0" vol="193" key="14"/>
          <note len="12" pos="0" pan="0" vol="193" key="0"/>
          <note len="12" pos="12" pan="0" vol="193" key="13"/>
          <note len="12" pos="24" pan="0" vol="193" key="13"/>
          <note len="12" pos="24" pan="0" vol="193" key="1"/>
          <note len="12" pos="36" pan="0" vol="193" key="13"/>
          <note len="12" pos="48" pan="0" vol="193" key="13"/>
          <note len="12" pos="60" pan="0" vol="193" key="13"/>
          <note len="12" pos="72" pan="0" vol="193" key="13"/>
          <note len="12" pos="84" pan="0" vol="193" key="13"/>
          <note len="12" pos="96" pan="0" vol="193" key="23"/>
          <note len="12" pos="96" pan="0" vol="193" key="0"/>
          <note len="12" pos="108" pan="0" vol="193" key="25"/>
          <note len="12" pos="120" pan="0" vol="193" key="13"/>
          <note len="12" pos="120" pan="0" vol="193" key="1"/>
          <note len="12" pos="132" pan="0" vol="193" key="13"/>
          <note len="12" pos="144" pan="0" vol="193" key="13"/>
          <note len="12" pos="156" pan="0" vol="193" key="13"/>
          <note len="12" pos="168" pan="0" vol="193" key="13"/>
          <note len="12" pos="180" pan="0" vol="193" key="13"/>
          <note len="12" pos="192" pan="0" vol="193" key="14"/>
          <note len="12" pos="192" pan="0" vol="193" key="0"/>
          <note len="12" pos="204" pan="0" vol="193" key="13"/>
          <note len="12" pos="216" pan="0" vol="193" key="13"/>
          <note len="12" pos="216" pan="0" vol="193" key="1"/>
          <note len="12" pos="228" pan="0" vol="193" key="13"/>
          <note len="12" pos="240" pan="0" vol="193" key="13"/>
          <note len="12" pos="252" pan="0" vol="193" key="13"/>
          <note len="12" pos="264" pan="0" vol="193" key="13"/>
          <note len="12" pos="276" pan="0" vol="193" key="13"/>
          <note len="12" pos="288" pan="0" vol="193" key="23"/>
          <note len="12" pos="288" pan="0" vol="193" key="0"/>
          <note len="12" pos="300" pan="0" vol="193" key="25"/>
          <note len="12" pos="312" pan="0" vol="193" key="13"/>
          <note len="12" pos="312" pan="0" vol="193" key="1"/>
          <note len="12" pos="324" pan="0" vol="193" key="13"/>
          <note len="12" pos="336" pan="0" vol="193" key="13"/>
          <note len="12" pos="348" pan="0" vol="193" key="13"/>
          <note len="12" pos="360" pan="0" vol="193" key="13"/>
          <note len="12" pos="372" pan="0" vol="193" key="13"/>
        </pattern>
        <pattern pos="20352" muted="0" steps="16" type="1" name="bass fender jazz (1,379kb)">
          <note len="12" pos="0" pan="0" vol="193" key="25"/>
          <note len="12" pos="12" pan="0" vol="193" key="23"/>
          <note len="12" pos="24" pan="0" vol="193" key="21"/>
          <note len="12" pos="36" pan="0" vol="193" key="20"/>
          <note len="12" pos="48" pan="0" vol="193" key="23"/>
          <note len="12" pos="60" pan="0" vol="193" key="21"/>
          <note len="12" pos="72" pan="0" vol="193" key="20"/>
          <note len="12" pos="84" pan="0" vol="193" key="18"/>
          <note len="12" pos="96" pan="0" vol="193" key="21"/>
          <note len="12" pos="108" pan="0" vol="193" key="20"/>
          <note len="12" pos="120" pan="0" vol="193" key="18"/>
          <note len="12" pos="132" pan="0" vol="193" key="17"/>
          <note len="12" pos="144" pan="0" vol="193" key="20"/>
          <note len="12" pos="156" pan="0" vol="193" key="18"/>
          <note len="12" pos="168" pan="0" vol="193" key="17"/>
          <note len="12" pos="180" pan="0" vol="193" key="14"/>
          <note len="12" pos="192" pan="0" vol="193" key="18"/>
          <note len="12" pos="204" pan="0" vol="193" key="17"/>
          <note len="12" pos="216" pan="0" vol="193" key="14"/>
          <note len="12" pos="228" pan="0" vol="193" key="13"/>
          <note len="12" pos="240" pan="0" vol="193" key="17"/>
          <note len="12" pos="252" pan="0" vol="193" key="14"/>
          <note len="12" pos="264" pan="0" vol="193" key="13"/>
          <note len="12" pos="276" pan="0" vol="193" key="12"/>
          <note len="24" pos="288" pan="0" vol="193" key="13"/>
          <note len="12" pos="312" pan="0" vol="193" key="13"/>
          <note len="12" pos="324" pan="0" vol="193" key="13"/>
          <note len="12" pos="336" pan="0" vol="193" key="13"/>
          <note len="12" pos="348" pan="0" vol="193" key="13"/>
          <note len="12" pos="360" pan="0" vol="193" key="13"/>
          <note len="12" pos="372" pan="0" vol="193" key="13"/>
        </pattern>
        <pattern pos="17856" muted="0" steps="16" type="1" name="bass fender jazz (1,379kb)">
          <note len="24" pos="0" pan="0" vol="193" key="13"/>
          <note len="12" pos="24" pan="0" vol="193" key="13"/>
          <note len="12" pos="36" pan="0" vol="193" key="13"/>
          <note len="12" pos="48" pan="0" vol="193" key="13"/>
          <note len="12" pos="60" pan="0" vol="193" key="13"/>
          <note len="24" pos="72" pan="0" vol="193" key="13"/>
          <note len="12" pos="96" pan="0" vol="193" key="13"/>
          <note len="12" pos="108" pan="0" vol="193" key="13"/>
          <note len="12" pos="120" pan="0" vol="193" key="17"/>
          <note len="12" pos="132" pan="0" vol="193" key="17"/>
          <note len="12" pos="144" pan="0" vol="193" key="18"/>
          <note len="12" pos="156" pan="0" vol="193" key="18"/>
          <note len="12" pos="168" pan="0" vol="193" key="20"/>
          <note len="12" pos="180" pan="0" vol="193" key="20"/>
          <note len="24" pos="192" pan="0" vol="193" key="18"/>
          <note len="12" pos="216" pan="0" vol="193" key="18"/>
          <note len="12" pos="228" pan="0" vol="193" key="18"/>
          <note len="12" pos="240" pan="0" vol="193" key="18"/>
          <note len="12" pos="252" pan="0" vol="193" key="18"/>
          <note len="12" pos="264" pan="0" vol="193" key="18"/>
          <note len="12" pos="276" pan="0" vol="193" key="18"/>
          <note len="24" pos="288" pan="0" vol="193" key="18"/>
          <note len="24" pos="312" pan="0" vol="193" key="18"/>
          <note len="12" pos="336" pan="0" vol="193" key="18"/>
          <note len="12" pos="348" pan="0" vol="193" key="18"/>
          <note len="12" pos="360" pan="0" vol="193" key="18"/>
          <note len="12" pos="372" pan="0" vol="193" key="18"/>
          <note len="24" pos="384" pan="0" vol="193" key="18"/>
          <note len="12" pos="408" pan="0" vol="193" key="18"/>
          <note len="12" pos="420" pan="0" vol="193" key="18"/>
          <note len="24" pos="432" pan="0" vol="193" key="18"/>
          <note len="12" pos="456" pan="0" vol="193" key="18"/>
          <note len="12" pos="468" pan="0" vol="193" key="18"/>
          <note len="24" pos="480" pan="0" vol="193" key="18"/>
          <note len="24" pos="504" pan="0" vol="193" key="18"/>
          <note len="12" pos="528" pan="0" vol="193" key="18"/>
          <note len="12" pos="540" pan="0" vol="193" key="18"/>
          <note len="12" pos="552" pan="0" vol="193" key="18"/>
          <note len="12" pos="564" pan="0" vol="193" key="18"/>
        </pattern>
        <pattern pos="20736" muted="0" steps="16" type="1" name="bass fender jazz (1,379kb)">
          <note len="192" pos="0" pan="0" vol="197" key="18"/>
          <note len="192" pos="192" pan="0" vol="197" key="17"/>
          <note len="192" pos="384" pan="0" vol="197" key="16"/>
          <note len="192" pos="576" pan="0" vol="197" key="15"/>
          <note len="192" pos="768" pan="0" vol="197" key="14"/>
          <note len="192" pos="960" pan="0" vol="197" key="13"/>
          <note len="192" pos="1152" pan="0" vol="197" key="12"/>
          <note len="12" pos="1344" pan="0" vol="197" key="20"/>
          <note len="12" pos="1356" pan="0" vol="197" key="20"/>
          <note len="12" pos="1368" pan="0" vol="197" key="13"/>
          <note len="12" pos="1380" pan="0" vol="197" key="13"/>
          <note len="12" pos="1392" pan="0" vol="197" key="14"/>
          <note len="12" pos="1404" pan="0" vol="197" key="14"/>
          <note len="12" pos="1416" pan="0" vol="197" key="13"/>
          <note len="12" pos="1428" pan="0" vol="197" key="13"/>
          <note len="12" pos="1440" pan="0" vol="197" key="21"/>
          <note len="12" pos="1452" pan="0" vol="197" key="20"/>
          <note len="12" pos="1464" pan="0" vol="197" key="21"/>
          <note len="12" pos="1476" pan="0" vol="197" key="23"/>
          <note len="12" pos="1488" pan="0" vol="197" key="25"/>
          <note len="12" pos="1500" pan="0" vol="197" key="26"/>
          <note len="12" pos="1512" pan="0" vol="197" key="29"/>
          <note len="12" pos="1524" pan="0" vol="197" key="32"/>
        </pattern>
        <pattern pos="22272" muted="0" steps="16" type="1" name="bass fender jazz (1,379kb)">
          <note len="24" pos="0" pan="0" vol="197" key="18"/>
          <note len="12" pos="24" pan="0" vol="197" key="18"/>
          <note len="12" pos="36" pan="0" vol="197" key="18"/>
          <note len="12" pos="48" pan="0" vol="197" key="18"/>
          <note len="12" pos="60" pan="0" vol="197" key="18"/>
          <note len="12" pos="72" pan="0" vol="197" key="18"/>
          <note len="12" pos="84" pan="0" vol="197" key="18"/>
          <note len="12" pos="96" pan="0" vol="197" key="18"/>
          <note len="12" pos="108" pan="0" vol="197" key="18"/>
          <note len="12" pos="120" pan="0" vol="197" key="18"/>
          <note len="12" pos="132" pan="0" vol="197" key="18"/>
          <note len="24" pos="144" pan="0" vol="197" key="18"/>
          <note len="12" pos="168" pan="0" vol="197" key="18"/>
          <note len="12" pos="180" pan="0" vol="197" key="18"/>
          <note len="24" pos="192" pan="0" vol="197" key="17"/>
          <note len="12" pos="216" pan="0" vol="197" key="17"/>
          <note len="12" pos="228" pan="0" vol="197" key="17"/>
          <note len="12" pos="240" pan="0" vol="197" key="17"/>
          <note len="12" pos="252" pan="0" vol="197" key="17"/>
          <note len="12" pos="264" pan="0" vol="197" key="17"/>
          <note len="12" pos="276" pan="0" vol="197" key="17"/>
          <note len="12" pos="288" pan="0" vol="197" key="17"/>
          <note len="12" pos="300" pan="0" vol="197" key="17"/>
          <note len="12" pos="312" pan="0" vol="197" key="17"/>
          <note len="12" pos="324" pan="0" vol="197" key="17"/>
          <note len="24" pos="336" pan="0" vol="197" key="17"/>
          <note len="12" pos="360" pan="0" vol="197" key="17"/>
          <note len="12" pos="372" pan="0" vol="197" key="17"/>
          <note len="24" pos="384" pan="0" vol="197" key="16"/>
          <note len="12" pos="408" pan="0" vol="197" key="16"/>
          <note len="12" pos="420" pan="0" vol="197" key="16"/>
          <note len="12" pos="432" pan="0" vol="197" key="16"/>
          <note len="12" pos="444" pan="0" vol="197" key="16"/>
          <note len="12" pos="456" pan="0" vol="197" key="16"/>
          <note len="12" pos="468" pan="0" vol="197" key="16"/>
          <note len="12" pos="480" pan="0" vol="197" key="16"/>
          <note len="12" pos="492" pan="0" vol="197" key="16"/>
          <note len="12" pos="504" pan="0" vol="197" key="16"/>
          <note len="12" pos="516" pan="0" vol="197" key="16"/>
          <note len="24" pos="528" pan="0" vol="197" key="16"/>
          <note len="12" pos="552" pan="0" vol="197" key="16"/>
          <note len="12" pos="564" pan="0" vol="197" key="16"/>
          <note len="24" pos="576" pan="0" vol="197" key="15"/>
          <note len="12" pos="600" pan="0" vol="197" key="15"/>
          <note len="12" pos="612" pan="0" vol="197" key="15"/>
          <note len="12" pos="624" pan="0" vol="197" key="15"/>
          <note len="12" pos="636" pan="0" vol="197" key="15"/>
          <note len="12" pos="648" pan="0" vol="197" key="15"/>
          <note len="12" pos="660" pan="0" vol="197" key="15"/>
          <note len="12" pos="672" pan="0" vol="197" key="15"/>
          <note len="12" pos="684" pan="0" vol="197" key="15"/>
          <note len="12" pos="696" pan="0" vol="197" key="15"/>
          <note len="12" pos="708" pan="0" vol="197" key="15"/>
          <note len="24" pos="720" pan="0" vol="197" key="15"/>
          <note len="12" pos="744" pan="0" vol="197" key="15"/>
          <note len="12" pos="756" pan="0" vol="197" key="15"/>
          <note len="24" pos="768" pan="0" vol="197" key="14"/>
          <note len="12" pos="792" pan="0" vol="197" key="14"/>
          <note len="12" pos="804" pan="0" vol="197" key="14"/>
          <note len="12" pos="816" pan="0" vol="197" key="14"/>
          <note len="12" pos="828" pan="0" vol="197" key="14"/>
          <note len="12" pos="840" pan="0" vol="197" key="14"/>
          <note len="12" pos="852" pan="0" vol="197" key="14"/>
          <note len="12" pos="864" pan="0" vol="197" key="14"/>
          <note len="12" pos="876" pan="0" vol="197" key="14"/>
          <note len="12" pos="888" pan="0" vol="197" key="14"/>
          <note len="12" pos="900" pan="0" vol="197" key="14"/>
          <note len="24" pos="912" pan="0" vol="197" key="14"/>
          <note len="12" pos="936" pan="0" vol="197" key="14"/>
          <note len="12" pos="948" pan="0" vol="197" key="14"/>
          <note len="24" pos="960" pan="0" vol="197" key="13"/>
          <note len="12" pos="984" pan="0" vol="197" key="13"/>
          <note len="12" pos="996" pan="0" vol="197" key="13"/>
          <note len="12" pos="1008" pan="0" vol="197" key="13"/>
          <note len="12" pos="1020" pan="0" vol="197" key="13"/>
          <note len="12" pos="1032" pan="0" vol="197" key="13"/>
          <note len="12" pos="1044" pan="0" vol="197" key="13"/>
          <note len="12" pos="1056" pan="0" vol="197" key="13"/>
          <note len="12" pos="1068" pan="0" vol="197" key="13"/>
          <note len="12" pos="1080" pan="0" vol="197" key="13"/>
          <note len="12" pos="1092" pan="0" vol="197" key="13"/>
          <note len="24" pos="1104" pan="0" vol="197" key="13"/>
          <note len="12" pos="1128" pan="0" vol="197" key="13"/>
          <note len="12" pos="1140" pan="0" vol="197" key="13"/>
          <note len="24" pos="1152" pan="0" vol="197" key="12"/>
          <note len="12" pos="1176" pan="0" vol="197" key="12"/>
          <note len="12" pos="1188" pan="0" vol="197" key="12"/>
          <note len="12" pos="1200" pan="0" vol="197" key="12"/>
          <note len="12" pos="1212" pan="0" vol="197" key="12"/>
          <note len="12" pos="1224" pan="0" vol="197" key="12"/>
          <note len="12" pos="1236" pan="0" vol="197" key="12"/>
          <note len="12" pos="1248" pan="0" vol="197" key="12"/>
          <note len="12" pos="1260" pan="0" vol="197" key="12"/>
          <note len="12" pos="1272" pan="0" vol="197" key="12"/>
          <note len="12" pos="1284" pan="0" vol="197" key="12"/>
          <note len="24" pos="1296" pan="0" vol="197" key="12"/>
          <note len="12" pos="1320" pan="0" vol="197" key="12"/>
          <note len="12" pos="1332" pan="0" vol="197" key="12"/>
          <note len="24" pos="1344" pan="0" vol="197" key="13"/>
          <note len="12" pos="1368" pan="0" vol="197" key="13"/>
          <note len="12" pos="1380" pan="0" vol="197" key="13"/>
          <note len="12" pos="1392" pan="0" vol="197" key="13"/>
          <note len="12" pos="1404" pan="0" vol="197" key="13"/>
          <note len="12" pos="1416" pan="0" vol="197" key="13"/>
          <note len="12" pos="1428" pan="0" vol="197" key="13"/>
          <note len="12" pos="1440" pan="0" vol="197" key="13"/>
          <note len="12" pos="1452" pan="0" vol="197" key="13"/>
          <note len="12" pos="1464" pan="0" vol="197" key="13"/>
          <note len="12" pos="1476" pan="0" vol="197" key="13"/>
          <note len="24" pos="1488" pan="0" vol="197" key="13"/>
          <note len="12" pos="1512" pan="0" vol="197" key="13"/>
          <note len="12" pos="1524" pan="0" vol="197" key="13"/>
        </pattern>
        <pattern pos="23808" muted="0" steps="16" type="1" name="bass fender jazz (1,379kb)">
          <note len="12" pos="0" pan="0" vol="195" key="26"/>
          <note len="12" pos="12" pan="0" vol="195" key="26"/>
          <note len="12" pos="24" pan="0" vol="195" key="26"/>
          <note len="12" pos="36" pan="0" vol="195" key="26"/>
          <note len="12" pos="48" pan="0" vol="195" key="26"/>
          <note len="12" pos="60" pan="0" vol="195" key="26"/>
          <note len="12" pos="72" pan="0" vol="195" key="26"/>
          <note len="12" pos="84" pan="0" vol="195" key="26"/>
          <note len="12" pos="96" pan="0" vol="195" key="26"/>
          <note len="12" pos="108" pan="0" vol="195" key="26"/>
          <note len="12" pos="120" pan="0" vol="195" key="26"/>
          <note len="12" pos="132" pan="0" vol="195" key="26"/>
          <note len="12" pos="144" pan="0" vol="195" key="26"/>
          <note len="12" pos="156" pan="0" vol="195" key="26"/>
          <note len="12" pos="168" pan="0" vol="195" key="26"/>
          <note len="12" pos="180" pan="0" vol="195" key="26"/>
          <note len="12" pos="192" pan="0" vol="195" key="26"/>
          <note len="12" pos="204" pan="0" vol="195" key="26"/>
          <note len="12" pos="216" pan="0" vol="195" key="26"/>
          <note len="12" pos="228" pan="0" vol="195" key="26"/>
          <note len="12" pos="240" pan="0" vol="195" key="26"/>
          <note len="12" pos="252" pan="0" vol="195" key="26"/>
          <note len="12" pos="264" pan="0" vol="195" key="26"/>
          <note len="12" pos="276" pan="0" vol="195" key="26"/>
          <note len="12" pos="288" pan="0" vol="195" key="26"/>
          <note len="12" pos="300" pan="0" vol="195" key="26"/>
          <note len="12" pos="312" pan="0" vol="195" key="26"/>
          <note len="12" pos="324" pan="0" vol="195" key="26"/>
          <note len="12" pos="336" pan="0" vol="195" key="26"/>
          <note len="12" pos="348" pan="0" vol="195" key="26"/>
          <note len="12" pos="360" pan="0" vol="195" key="26"/>
          <note len="12" pos="372" pan="0" vol="195" key="26"/>
          <note len="12" pos="384" pan="0" vol="195" key="28"/>
          <note len="12" pos="396" pan="0" vol="195" key="28"/>
          <note len="12" pos="408" pan="0" vol="195" key="28"/>
          <note len="12" pos="420" pan="0" vol="195" key="28"/>
          <note len="12" pos="432" pan="0" vol="195" key="28"/>
          <note len="12" pos="444" pan="0" vol="195" key="28"/>
          <note len="12" pos="456" pan="0" vol="195" key="28"/>
          <note len="12" pos="468" pan="0" vol="195" key="28"/>
          <note len="12" pos="480" pan="0" vol="195" key="28"/>
          <note len="12" pos="492" pan="0" vol="195" key="28"/>
          <note len="12" pos="504" pan="0" vol="195" key="28"/>
          <note len="12" pos="516" pan="0" vol="195" key="28"/>
          <note len="12" pos="528" pan="0" vol="195" key="28"/>
          <note len="12" pos="540" pan="0" vol="195" key="28"/>
          <note len="12" pos="552" pan="0" vol="195" key="28"/>
          <note len="12" pos="564" pan="0" vol="195" key="28"/>
          <note len="12" pos="576" pan="0" vol="195" key="35"/>
          <note len="12" pos="588" pan="0" vol="195" key="33"/>
          <note len="12" pos="600" pan="0" vol="195" key="32"/>
          <note len="12" pos="612" pan="0" vol="195" key="33"/>
          <note len="12" pos="624" pan="0" vol="195" key="32"/>
          <note len="12" pos="636" pan="0" vol="195" key="30"/>
          <note len="12" pos="648" pan="0" vol="195" key="29"/>
          <note len="12" pos="660" pan="0" vol="195" key="30"/>
          <note len="12" pos="672" pan="0" vol="195" key="29"/>
          <note len="12" pos="684" pan="0" vol="195" key="26"/>
          <note len="12" pos="696" pan="0" vol="195" key="25"/>
          <note len="12" pos="708" pan="0" vol="195" key="26"/>
          <note len="12" pos="720" pan="0" vol="195" key="25"/>
          <note len="12" pos="732" pan="0" vol="195" key="23"/>
          <note len="12" pos="744" pan="0" vol="195" key="21"/>
          <note len="12" pos="756" pan="0" vol="195" key="20"/>
        </pattern>
        <pattern pos="24576" muted="0" steps="16" type="1" name="bass fender jazz (1,379kb)">
          <note len="384" pos="0" pan="0" vol="195" key="18"/>
          <note len="384" pos="384" pan="0" vol="195" key="18"/>
        </pattern>
        <pattern pos="35328" muted="0" steps="16" type="1" name="bass fender jazz (1,379kb)">
          <note len="24" pos="0" pan="0" vol="195" key="6"/>
          <note len="24" pos="48" pan="0" vol="195" key="6"/>
          <note len="12" pos="96" pan="0" vol="195" key="6"/>
          <note len="12" pos="108" pan="0" vol="195" key="6"/>
          <note len="12" pos="120" pan="0" vol="195" key="6"/>
          <note len="12" pos="132" pan="0" vol="195" key="6"/>
          <note len="24" pos="144" pan="0" vol="195" key="6"/>
          <note len="48" pos="168" pan="0" vol="195" key="18"/>
          <note len="24" pos="216" pan="0" vol="195" key="6"/>
          <note len="24" pos="240" pan="0" vol="195" key="13"/>
          <note len="24" pos="264" pan="0" vol="195" key="6"/>
          <note len="24" pos="288" pan="0" vol="195" key="9"/>
          <note len="24" pos="312" pan="0" vol="195" key="6"/>
          <note len="24" pos="336" pan="0" vol="195" key="13"/>
          <note len="24" pos="360" pan="0" vol="195" key="6"/>
        </pattern>
        <pattern pos="25344" muted="0" steps="16" type="1" name="bass fender jazz (1,379kb)">
          <note len="12" pos="0" pan="0" vol="195" key="18"/>
          <note len="12" pos="12" pan="0" vol="195" key="18"/>
          <note len="12" pos="24" pan="0" vol="195" key="18"/>
          <note len="12" pos="36" pan="0" vol="195" key="18"/>
          <note len="12" pos="48" pan="0" vol="195" key="18"/>
          <note len="12" pos="60" pan="0" vol="195" key="18"/>
          <note len="48" pos="72" pan="0" vol="195" key="18"/>
          <note len="48" pos="120" pan="0" vol="195" key="18"/>
          <note len="48" pos="168" pan="0" vol="195" key="18"/>
          <note len="24" pos="216" pan="0" vol="195" key="18"/>
          <note len="24" pos="240" pan="0" vol="195" key="21"/>
          <note len="24" pos="264" pan="0" vol="195" key="18"/>
          <note len="24" pos="288" pan="0" vol="195" key="25"/>
          <note len="24" pos="312" pan="0" vol="195" key="23"/>
          <note len="24" pos="336" pan="0" vol="195" key="21"/>
          <note len="24" pos="360" pan="0" vol="195" key="25"/>
        </pattern>
        <pattern pos="25728" muted="0" steps="16" type="1" name="bass fender jazz (1,379kb)">
          <note len="12" pos="0" pan="0" vol="195" key="13"/>
          <note len="12" pos="0" pan="0" vol="195" key="1"/>
          <note len="12" pos="12" pan="0" vol="195" key="13"/>
          <note len="12" pos="24" pan="0" vol="195" key="13"/>
          <note len="12" pos="36" pan="0" vol="195" key="13"/>
          <note len="12" pos="48" pan="0" vol="195" key="13"/>
          <note len="12" pos="60" pan="0" vol="195" key="13"/>
          <note len="48" pos="72" pan="0" vol="195" key="13"/>
          <note len="48" pos="120" pan="0" vol="195" key="13"/>
          <note len="48" pos="168" pan="0" vol="195" key="13"/>
          <note len="24" pos="216" pan="0" vol="195" key="13"/>
          <note len="24" pos="240" pan="0" vol="195" key="16"/>
          <note len="24" pos="240" pan="0" vol="195" key="0"/>
          <note len="24" pos="264" pan="0" vol="195" key="13"/>
          <note len="24" pos="264" pan="0" vol="195" key="1"/>
          <note len="24" pos="288" pan="0" vol="195" key="20"/>
          <note len="24" pos="288" pan="0" vol="195" key="0"/>
          <note len="24" pos="312" pan="0" vol="195" key="18"/>
          <note len="24" pos="312" pan="0" vol="195" key="1"/>
          <note len="24" pos="336" pan="0" vol="195" key="16"/>
          <note len="24" pos="360" pan="0" vol="195" key="20"/>
          <note len="24" pos="360" pan="0" vol="195" key="0"/>
        </pattern>
        <pattern pos="26112" muted="0" steps="16" type="1" name="bass fender jazz (1,379kb)">
          <note len="12" pos="0" pan="0" vol="195" key="18"/>
          <note len="12" pos="0" pan="0" vol="195" key="1"/>
          <note len="12" pos="12" pan="0" vol="195" key="18"/>
          <note len="12" pos="24" pan="0" vol="195" key="18"/>
          <note len="12" pos="36" pan="0" vol="195" key="18"/>
          <note len="12" pos="48" pan="0" vol="195" key="18"/>
          <note len="12" pos="60" pan="0" vol="195" key="18"/>
          <note len="48" pos="72" pan="0" vol="195" key="18"/>
          <note len="48" pos="120" pan="0" vol="195" key="18"/>
          <note len="48" pos="168" pan="0" vol="195" key="18"/>
          <note len="24" pos="216" pan="0" vol="195" key="18"/>
          <note len="24" pos="240" pan="0" vol="195" key="21"/>
          <note len="24" pos="240" pan="0" vol="195" key="0"/>
          <note len="24" pos="264" pan="0" vol="195" key="18"/>
          <note len="24" pos="264" pan="0" vol="195" key="1"/>
          <note len="24" pos="288" pan="0" vol="195" key="25"/>
          <note len="24" pos="288" pan="0" vol="195" key="0"/>
          <note len="24" pos="312" pan="0" vol="195" key="23"/>
          <note len="24" pos="312" pan="0" vol="195" key="1"/>
          <note len="24" pos="336" pan="0" vol="195" key="25"/>
          <note len="24" pos="360" pan="0" vol="195" key="30"/>
          <note len="24" pos="360" pan="0" vol="195" key="0"/>
        </pattern>
        <pattern pos="26496" muted="0" steps="16" type="1" name="bass fender jazz (1,379kb)">
          <note len="12" pos="0" pan="0" vol="195" key="13"/>
          <note len="12" pos="0" pan="0" vol="195" key="1"/>
          <note len="12" pos="12" pan="0" vol="195" key="13"/>
          <note len="12" pos="24" pan="0" vol="195" key="13"/>
          <note len="12" pos="36" pan="0" vol="195" key="13"/>
          <note len="12" pos="48" pan="0" vol="195" key="13"/>
          <note len="12" pos="60" pan="0" vol="195" key="13"/>
          <note len="48" pos="72" pan="0" vol="195" key="13"/>
          <note len="48" pos="120" pan="0" vol="195" key="13"/>
          <note len="48" pos="168" pan="0" vol="195" key="13"/>
          <note len="24" pos="216" pan="0" vol="195" key="13"/>
          <note len="24" pos="240" pan="0" vol="195" key="17"/>
          <note len="24" pos="240" pan="0" vol="195" key="0"/>
          <note len="24" pos="264" pan="0" vol="195" key="13"/>
          <note len="24" pos="264" pan="0" vol="195" key="1"/>
          <note len="24" pos="288" pan="0" vol="195" key="20"/>
          <note len="24" pos="288" pan="0" vol="195" key="0"/>
          <note len="24" pos="312" pan="0" vol="195" key="18"/>
          <note len="24" pos="312" pan="0" vol="195" key="1"/>
          <note len="24" pos="336" pan="0" vol="195" key="17"/>
          <note len="24" pos="360" pan="0" vol="195" key="20"/>
          <note len="24" pos="360" pan="0" vol="195" key="0"/>
        </pattern>
        <pattern pos="26880" muted="0" steps="16" type="1" name="bass fender jazz (1,379kb)">
          <note len="12" pos="0" pan="0" vol="195" key="18"/>
          <note len="12" pos="0" pan="0" vol="195" key="1"/>
          <note len="12" pos="12" pan="0" vol="195" key="18"/>
          <note len="12" pos="24" pan="0" vol="195" key="18"/>
          <note len="12" pos="36" pan="0" vol="195" key="18"/>
          <note len="12" pos="48" pan="0" vol="195" key="18"/>
          <note len="12" pos="60" pan="0" vol="195" key="18"/>
          <note len="48" pos="72" pan="0" vol="195" key="18"/>
          <note len="48" pos="120" pan="0" vol="195" key="18"/>
          <note len="48" pos="168" pan="0" vol="195" key="18"/>
          <note len="24" pos="216" pan="0" vol="195" key="18"/>
          <note len="24" pos="240" pan="0" vol="195" key="21"/>
          <note len="24" pos="240" pan="0" vol="195" key="0"/>
          <note len="24" pos="264" pan="0" vol="195" key="18"/>
          <note len="24" pos="264" pan="0" vol="195" key="1"/>
          <note len="24" pos="288" pan="0" vol="195" key="25"/>
          <note len="24" pos="288" pan="0" vol="195" key="0"/>
          <note len="24" pos="312" pan="0" vol="195" key="23"/>
          <note len="24" pos="312" pan="0" vol="195" key="1"/>
          <note len="24" pos="336" pan="0" vol="195" key="25"/>
          <note len="24" pos="360" pan="0" vol="195" key="30"/>
          <note len="24" pos="360" pan="0" vol="195" key="0"/>
        </pattern>
        <pattern pos="27264" muted="0" steps="16" type="1" name="bass fender jazz (1,379kb)">
          <note len="12" pos="0" pan="0" vol="195" key="13"/>
          <note len="12" pos="12" pan="0" vol="195" key="13"/>
          <note len="12" pos="24" pan="0" vol="195" key="13"/>
          <note len="12" pos="36" pan="0" vol="195" key="13"/>
          <note len="12" pos="48" pan="0" vol="195" key="13"/>
          <note len="12" pos="60" pan="0" vol="195" key="13"/>
          <note len="48" pos="72" pan="0" vol="195" key="13"/>
          <note len="48" pos="120" pan="0" vol="195" key="13"/>
          <note len="48" pos="168" pan="0" vol="195" key="13"/>
          <note len="24" pos="216" pan="0" vol="195" key="13"/>
          <note len="24" pos="240" pan="0" vol="195" key="17"/>
          <note len="24" pos="264" pan="0" vol="195" key="13"/>
          <note len="24" pos="288" pan="0" vol="195" key="20"/>
          <note len="24" pos="312" pan="0" vol="195" key="18"/>
          <note len="24" pos="336" pan="0" vol="195" key="17"/>
          <note len="24" pos="360" pan="0" vol="195" key="20"/>
        </pattern>
        <pattern pos="27648" muted="0" steps="16" type="1" name="bass fender jazz (1,379kb)">
          <note len="24" pos="0" pan="0" vol="193" key="21"/>
          <note len="24" pos="0" pan="0" vol="193" key="1"/>
          <note len="24" pos="24" pan="0" vol="193" key="25"/>
          <note len="24" pos="48" pan="0" vol="193" key="23"/>
          <note len="24" pos="72" pan="0" vol="193" key="25"/>
          <note len="24" pos="96" pan="0" vol="193" key="20"/>
          <note len="24" pos="120" pan="0" vol="193" key="23"/>
          <note len="24" pos="144" pan="0" vol="193" key="21"/>
          <note len="24" pos="168" pan="0" vol="193" key="23"/>
        </pattern>
        <pattern pos="27840" muted="0" steps="16" type="1" name="bass fender jazz (1,379kb)">
          <note len="24" pos="0" pan="0" vol="193" key="18"/>
          <note len="24" pos="0" pan="0" vol="193" key="1"/>
          <note len="24" pos="24" pan="0" vol="193" key="21"/>
          <note len="24" pos="48" pan="0" vol="193" key="20"/>
          <note len="24" pos="72" pan="0" vol="193" key="21"/>
          <note len="24" pos="96" pan="0" vol="193" key="17"/>
          <note len="24" pos="120" pan="0" vol="193" key="20"/>
          <note len="24" pos="144" pan="0" vol="193" key="18"/>
          <note len="24" pos="168" pan="0" vol="193" key="20"/>
        </pattern>
        <pattern pos="28032" muted="0" steps="16" type="1" name="bass fender jazz (1,379kb)">
          <note len="24" pos="0" pan="0" vol="193" key="14"/>
          <note len="24" pos="0" pan="0" vol="193" key="0"/>
          <note len="24" pos="24" pan="0" vol="193" key="18"/>
          <note len="24" pos="48" pan="0" vol="193" key="17"/>
          <note len="24" pos="72" pan="0" vol="193" key="18"/>
          <note len="24" pos="96" pan="0" vol="193" key="13"/>
          <note len="24" pos="120" pan="0" vol="193" key="17"/>
          <note len="24" pos="144" pan="0" vol="193" key="14"/>
          <note len="24" pos="168" pan="0" vol="193" key="17"/>
        </pattern>
        <pattern pos="28224" muted="0" steps="16" type="1" name="bass fender jazz (1,379kb)">
          <note len="12" pos="0" pan="0" vol="193" key="14"/>
          <note len="12" pos="12" pan="0" vol="193" key="13"/>
          <note len="12" pos="24" pan="0" vol="193" key="11"/>
          <note len="12" pos="36" pan="0" vol="193" key="13"/>
          <note len="12" pos="48" pan="0" vol="193" key="14"/>
          <note len="12" pos="60" pan="0" vol="193" key="13"/>
          <note len="12" pos="72" pan="0" vol="193" key="14"/>
          <note len="12" pos="84" pan="0" vol="193" key="17"/>
          <note len="12" pos="96" pan="0" vol="193" key="18"/>
          <note len="12" pos="108" pan="0" vol="193" key="20"/>
          <note len="12" pos="120" pan="0" vol="193" key="21"/>
          <note len="12" pos="132" pan="0" vol="193" key="23"/>
          <note len="12" pos="144" pan="0" vol="193" key="25"/>
          <note len="12" pos="156" pan="0" vol="193" key="24"/>
          <note len="12" pos="168" pan="0" vol="193" key="25"/>
          <note len="12" pos="180" pan="0" vol="193" key="29"/>
        </pattern>
      </track>
      <track muted="0" solo="0" type="0" name="rgt1">
        <instrumenttrack basenote="57" pitch="0" pitchrange="1" pan="-100" usemasterpitch="1" fxch="11" vol="200">
          <instrument name="carlapatchbay">
            <carlapatchbay>
              <CARLA-PROJECT VERSION="2.2">
                <EngineSettings>
                  <ForceStereo>false</ForceStereo>
                  <PreferPluginBridges>false</PreferPluginBridges>
                  <PreferUiBridges>true</PreferUiBridges>
                  <UIsAlwaysOnTop>false</UIsAlwaysOnTop>
                  <MaxParameters>200</MaxParameters>
                  <UIBridgesTimeout>4000</UIBridgesTimeout>
                  <LADSPA_PATH>/home/pass/.ladspa:/usr/lib/ladspa:/usr/local/lib/ladspa</LADSPA_PATH>
                  <DSSI_PATH>/home/pass/.dssi:/usr/lib/dssi:/usr/local/lib/dssi</DSSI_PATH>
                  <LV2_PATH>/home/pass/.lv2:/usr/lib/lv2:/usr/local/lib/lv2</LV2_PATH>
                  <VST2_PATH>/home/pass/.vst:/home/pass/.wine/drive_c/Program Files (x86)/VstPlugins:/home/pass/.wine/drive_c/Program Files/VstPlugins:/home/pass/vst:/usr/lib/lxvst:/usr/lib/vst:/usr/local/lib/lxvst:/usr/local/lib/vst/home/pass/.lxvst</VST2_PATH>
                  <VST3_PATH>/home/pass/.vst3:/home/pass/.wine/drive_c/Program Files (x86)/Common Files/VST3:/home/pass/.wine/drive_c/Program Files/Common Files/VST3:/usr/lib/vst3:/usr/local/lib/vst3</VST3_PATH>
                  <SF2_PATH>/home/pass/.sounds/sf2/home/pass/.sounds/sf3:/usr/share/soundfonts:/usr/share/sounds/sf2:/usr/share/sounds/sf3:/home/pass/samples/soundfonts</SF2_PATH>
                  <SFZ_PATH>/home/pass/.sounds/sfz:/home/pass/samples:/usr/share/sounds/sfz</SFZ_PATH>
                </EngineSettings>
                <!-- sfizz -->
                <Plugin>
                  <Info>
                    <Type>LV2</Type>
                    <Name>sfizz</Name>
                    <URI>http://sfztools.github.io/sfizz</URI>
                  </Info>
                  <Data>
                    <Active>Yes</Active>
                    <ControlChannel>1</ControlChannel>
                    <Options>0x3f0</Options>
                    <Parameter>
                      <Index>0</Index>
                      <Name>Volume</Name>
                      <Symbol>volume</Symbol>
                      <Value>0</Value>
                    </Parameter>
                    <Parameter>
                      <Index>1</Index>
                      <Name>Polyphony</Name>
                      <Symbol>num_voices</Symbol>
                      <Value>64</Value>
                    </Parameter>
                    <Parameter>
                      <Index>2</Index>
                      <Name>Internal oversampling factor</Name>
                      <Symbol>oversampling</Symbol>
                      <Value>1</Value>
                    </Parameter>
                    <Parameter>
                      <Index>3</Index>
                      <Name>Preload size</Name>
                      <Symbol>preload_size</Symbol>
                      <Value>8192</Value>
                    </Parameter>
                    <CustomData>
                      <Type>http://lv2plug.in/ns/ext/atom#Path</Type>
                      <Key>http://sfztools.github.io/sfizz:sfzfile</Key>
                      <Value>/home/pass/samples/fakeguitar/_fakeguitar1_integrated.sfz</Value>
                    </CustomData>
                    <CustomData>
                      <Type>http://lv2plug.in/ns/ext/atom#Int</Type>
                      <Key>http://sfztools.github.io/sfizz:numvoices</Key>
                      <Value>QAAAAA==</Value>
                    </CustomData>
                    <CustomData>
                      <Type>http://lv2plug.in/ns/ext/atom#Int</Type>
                      <Key>http://sfztools.github.io/sfizz:preload_size</Key>
                      <Value>ACAAAA==</Value>
                    </CustomData>
                    <CustomData>
                      <Type>http://lv2plug.in/ns/ext/atom#Int</Type>
                      <Key>http://sfztools.github.io/sfizz:oversampling</Key>
                      <Value>AQAAAA==</Value>
                    </CustomData>
                  </Data>
                </Plugin>
                <Patchbay>
                  <Connection>
                    <Source>Midi Input:Capture 1</Source>
                    <Target>sfizz:events-in</Target>
                  </Connection>
                  <Connection>
                    <Source>sfizz:Left Output</Source>
                    <Target>Audio Output:Left</Target>
                  </Connection>
                  <Connection>
                    <Source>sfizz:Right Output</Source>
                    <Target>Audio Output:Left</Target>
                  </Connection>
                  <Positions>
                    <Position pluginId="0" x1="1668" y1="1297">
                      <Name>sfizz</Name>
                    </Position>
                  </Positions>
                </Patchbay>
              </CARLA-PROJECT>
            </carlapatchbay>
          </instrument>
          <eldata fwet="0" ftype="0" fcut="14000" fres="0.5">
            <elvol lspd_denominator="4" lamt="0" amt="0" dec="0.5" hold="0.5" lshp="0" ctlenvamt="0" lspd="0.1" rel="0.1" pdel="0" lspd_syncmode="0" att="0" sustain="0.5" userwavefile="" latt="0" lspd_numerator="4" lpdel="0" x100="0"/>
            <elcut lspd_denominator="4" lamt="0" amt="0" dec="0.5" hold="0.5" lshp="0" ctlenvamt="0" lspd="0.1" rel="0.1" pdel="0" lspd_syncmode="0" att="0" sustain="0.5" userwavefile="" latt="0" lspd_numerator="4" lpdel="0" x100="0"/>
            <elres lspd_denominator="4" lamt="0" amt="0" dec="0.5" hold="0.5" lshp="0" ctlenvamt="0" lspd="0.1" rel="0.1" pdel="0" lspd_syncmode="0" att="0" sustain="0.5" userwavefile="" latt="0" lspd_numerator="4" lpdel="0" x100="0"/>
          </eldata>
          <chordcreator chordrange="1" chord-enabled="0" chord="0"/>
          <arpeggiator arptime_syncmode="0" arptime="200" arptime_denominator="4" arpdir="0" arp="0" arpmode="0" arpcycle="0" arpmiss="0" arptime_numerator="4" arprange="1" arp-enabled="0" arpskip="0" arpgate="100"/>
          <midiport inputcontroller="0" outports="" outputchannel="1" outputprogram="1" readable="0" outputcontroller="0" fixedoutputvelocity="127" fixedoutputnote="-1" fixedinputvelocity="-1" writable="1" inputchannel="0" basevelocity="127"/>
          <fxchain enabled="0" numofeffects="0"/>
        </instrumenttrack>
        <pattern pos="0" muted="0" steps="16" type="1" name="rgt1">
          <note len="192" pos="0" pan="0" vol="193" key="49"/>
          <note len="192" pos="0" pan="0" vol="193" key="42"/>
          <note len="384" pos="0" pan="0" vol="193" key="0"/>
          <note len="192" pos="192" pan="0" vol="193" key="49"/>
          <note len="192" pos="192" pan="0" vol="193" key="42"/>
          <note len="192" pos="384" pan="0" vol="193" key="49"/>
          <note len="192" pos="384" pan="0" vol="193" key="41"/>
          <note len="192" pos="576" pan="0" vol="193" key="49"/>
          <note len="192" pos="576" pan="0" vol="193" key="41"/>
          <note len="192" pos="768" pan="0" vol="193" key="47"/>
          <note len="192" pos="768" pan="0" vol="193" key="40"/>
          <note len="192" pos="960" pan="0" vol="193" key="47"/>
          <note len="192" pos="960" pan="0" vol="193" key="40"/>
          <note len="192" pos="1152" pan="0" vol="193" key="47"/>
          <note len="192" pos="1152" pan="0" vol="193" key="39"/>
          <note len="192" pos="1344" pan="0" vol="193" key="47"/>
          <note len="192" pos="1344" pan="0" vol="193" key="39"/>
          <note len="192" pos="1536" pan="0" vol="193" key="45"/>
          <note len="192" pos="1536" pan="0" vol="193" key="38"/>
          <note len="192" pos="1728" pan="0" vol="193" key="45"/>
          <note len="192" pos="1728" pan="0" vol="193" key="38"/>
          <note len="192" pos="1920" pan="0" vol="193" key="45"/>
          <note len="192" pos="1920" pan="0" vol="193" key="37"/>
          <note len="192" pos="2112" pan="0" vol="193" key="45"/>
          <note len="192" pos="2112" pan="0" vol="193" key="37"/>
          <note len="192" pos="2304" pan="0" vol="193" key="44"/>
          <note len="192" pos="2304" pan="0" vol="193" key="36"/>
          <note len="192" pos="2496" pan="0" vol="193" key="44"/>
          <note len="192" pos="2496" pan="0" vol="193" key="36"/>
          <note len="192" pos="2688" pan="0" vol="193" key="44"/>
          <note len="192" pos="2688" pan="0" vol="193" key="37"/>
          <note len="48" pos="2880" pan="0" vol="193" key="45"/>
          <note len="48" pos="2880" pan="0" vol="193" key="38"/>
          <note len="48" pos="2880" pan="0" vol="193" key="0"/>
          <note len="48" pos="2928" pan="0" vol="193" key="44"/>
          <note len="48" pos="2928" pan="0" vol="193" key="37"/>
          <note len="48" pos="2952" pan="0" vol="193" key="1"/>
          <note len="12" pos="2976" pan="0" vol="193" key="41"/>
          <note len="12" pos="2988" pan="0" vol="193" key="41"/>
          <note len="12" pos="3000" pan="0" vol="193" key="42"/>
          <note len="12" pos="3012" pan="0" vol="193" key="42"/>
          <note len="12" pos="3024" pan="0" vol="193" key="44"/>
          <note len="12" pos="3036" pan="0" vol="193" key="44"/>
          <note len="12" pos="3048" pan="0" vol="193" key="41"/>
          <note len="12" pos="3060" pan="0" vol="193" key="41"/>
        </pattern>
        <pattern pos="3072" muted="0" steps="16" type="1" name="rgt1">
          <note len="24" pos="0" pan="0" vol="193" key="42"/>
          <note len="24" pos="0" pan="0" vol="193" key="0"/>
          <note len="12" pos="24" pan="0" vol="193" key="42"/>
          <note len="24" pos="24" pan="0" vol="193" key="1"/>
          <note len="12" pos="36" pan="0" vol="193" key="42"/>
          <note len="12" pos="48" pan="0" vol="193" key="42"/>
          <note len="12" pos="60" pan="0" vol="193" key="42"/>
          <note len="24" pos="72" pan="0" vol="193" key="42"/>
          <note len="24" pos="72" pan="0" vol="193" key="0"/>
          <note len="12" pos="96" pan="0" vol="193" key="42"/>
          <note len="24" pos="96" pan="0" vol="193" key="1"/>
          <note len="12" pos="108" pan="0" vol="193" key="42"/>
          <note len="12" pos="120" pan="0" vol="193" key="42"/>
          <note len="12" pos="132" pan="0" vol="193" key="42"/>
          <note len="24" pos="144" pan="0" vol="193" key="42"/>
          <note len="24" pos="144" pan="0" vol="193" key="0"/>
          <note len="12" pos="168" pan="0" vol="193" key="42"/>
          <note len="24" pos="168" pan="0" vol="193" key="1"/>
          <note len="12" pos="180" pan="0" vol="193" key="42"/>
          <note len="24" pos="192" pan="0" vol="193" key="42"/>
          <note len="24" pos="192" pan="0" vol="193" key="0"/>
          <note len="12" pos="216" pan="0" vol="193" key="42"/>
          <note len="24" pos="216" pan="0" vol="193" key="1"/>
          <note len="12" pos="228" pan="0" vol="193" key="42"/>
          <note len="12" pos="240" pan="0" vol="193" key="42"/>
          <note len="12" pos="252" pan="0" vol="193" key="42"/>
          <note len="24" pos="264" pan="0" vol="193" key="42"/>
          <note len="24" pos="264" pan="0" vol="193" key="0"/>
          <note len="12" pos="288" pan="0" vol="193" key="42"/>
          <note len="24" pos="288" pan="0" vol="193" key="1"/>
          <note len="12" pos="300" pan="0" vol="193" key="42"/>
          <note len="12" pos="312" pan="0" vol="193" key="42"/>
          <note len="12" pos="324" pan="0" vol="193" key="42"/>
          <note len="24" pos="336" pan="0" vol="193" key="42"/>
          <note len="24" pos="336" pan="0" vol="193" key="0"/>
          <note len="12" pos="360" pan="0" vol="193" key="42"/>
          <note len="24" pos="360" pan="0" vol="193" key="1"/>
          <note len="12" pos="372" pan="0" vol="193" key="42"/>
        </pattern>
        <pattern pos="3456" muted="0" steps="16" type="1" name="rgt1">
          <note len="24" pos="0" pan="0" vol="193" key="41"/>
          <note len="24" pos="0" pan="0" vol="193" key="0"/>
          <note len="12" pos="24" pan="0" vol="193" key="41"/>
          <note len="24" pos="24" pan="0" vol="193" key="1"/>
          <note len="12" pos="36" pan="0" vol="193" key="41"/>
          <note len="12" pos="48" pan="0" vol="193" key="41"/>
          <note len="12" pos="60" pan="0" vol="193" key="41"/>
          <note len="24" pos="72" pan="0" vol="193" key="41"/>
          <note len="24" pos="72" pan="0" vol="193" key="0"/>
          <note len="12" pos="96" pan="0" vol="193" key="41"/>
          <note len="24" pos="96" pan="0" vol="193" key="1"/>
          <note len="12" pos="108" pan="0" vol="193" key="41"/>
          <note len="12" pos="120" pan="0" vol="193" key="41"/>
          <note len="12" pos="132" pan="0" vol="193" key="41"/>
          <note len="24" pos="144" pan="0" vol="193" key="41"/>
          <note len="24" pos="144" pan="0" vol="193" key="0"/>
          <note len="12" pos="168" pan="0" vol="193" key="41"/>
          <note len="24" pos="168" pan="0" vol="193" key="1"/>
          <note len="12" pos="180" pan="0" vol="193" key="41"/>
          <note len="24" pos="192" pan="0" vol="193" key="41"/>
          <note len="24" pos="192" pan="0" vol="193" key="0"/>
          <note len="12" pos="216" pan="0" vol="193" key="41"/>
          <note len="24" pos="216" pan="0" vol="193" key="1"/>
          <note len="12" pos="228" pan="0" vol="193" key="41"/>
          <note len="12" pos="240" pan="0" vol="193" key="41"/>
          <note len="12" pos="252" pan="0" vol="193" key="41"/>
          <note len="24" pos="264" pan="0" vol="193" key="41"/>
          <note len="24" pos="264" pan="0" vol="193" key="0"/>
          <note len="12" pos="288" pan="0" vol="193" key="41"/>
          <note len="24" pos="288" pan="0" vol="193" key="1"/>
          <note len="12" pos="300" pan="0" vol="193" key="41"/>
          <note len="12" pos="312" pan="0" vol="193" key="41"/>
          <note len="12" pos="324" pan="0" vol="193" key="41"/>
          <note len="24" pos="336" pan="0" vol="193" key="41"/>
          <note len="24" pos="336" pan="0" vol="193" key="0"/>
          <note len="12" pos="360" pan="0" vol="193" key="41"/>
          <note len="24" pos="360" pan="0" vol="193" key="1"/>
          <note len="12" pos="372" pan="0" vol="193" key="41"/>
        </pattern>
        <pattern pos="3840" muted="0" steps="16" type="1" name="rgt1">
          <note len="24" pos="0" pan="0" vol="193" key="40"/>
          <note len="24" pos="0" pan="0" vol="193" key="0"/>
          <note len="12" pos="24" pan="0" vol="193" key="40"/>
          <note len="24" pos="24" pan="0" vol="193" key="1"/>
          <note len="12" pos="36" pan="0" vol="193" key="40"/>
          <note len="12" pos="48" pan="0" vol="193" key="40"/>
          <note len="12" pos="60" pan="0" vol="193" key="40"/>
          <note len="24" pos="72" pan="0" vol="193" key="40"/>
          <note len="24" pos="72" pan="0" vol="193" key="0"/>
          <note len="12" pos="96" pan="0" vol="193" key="40"/>
          <note len="24" pos="96" pan="0" vol="193" key="1"/>
          <note len="12" pos="108" pan="0" vol="193" key="40"/>
          <note len="12" pos="120" pan="0" vol="193" key="40"/>
          <note len="12" pos="132" pan="0" vol="193" key="40"/>
          <note len="24" pos="144" pan="0" vol="193" key="40"/>
          <note len="24" pos="144" pan="0" vol="193" key="0"/>
          <note len="12" pos="168" pan="0" vol="193" key="40"/>
          <note len="24" pos="168" pan="0" vol="193" key="1"/>
          <note len="12" pos="180" pan="0" vol="193" key="40"/>
          <note len="24" pos="192" pan="0" vol="193" key="40"/>
          <note len="24" pos="192" pan="0" vol="193" key="0"/>
          <note len="12" pos="216" pan="0" vol="193" key="40"/>
          <note len="24" pos="216" pan="0" vol="193" key="1"/>
          <note len="12" pos="228" pan="0" vol="193" key="40"/>
          <note len="12" pos="240" pan="0" vol="193" key="40"/>
          <note len="12" pos="252" pan="0" vol="193" key="40"/>
          <note len="24" pos="264" pan="0" vol="193" key="40"/>
          <note len="24" pos="264" pan="0" vol="193" key="0"/>
          <note len="12" pos="288" pan="0" vol="193" key="40"/>
          <note len="24" pos="288" pan="0" vol="193" key="1"/>
          <note len="12" pos="300" pan="0" vol="193" key="40"/>
          <note len="12" pos="312" pan="0" vol="193" key="40"/>
          <note len="12" pos="324" pan="0" vol="193" key="40"/>
          <note len="24" pos="336" pan="0" vol="193" key="40"/>
          <note len="24" pos="336" pan="0" vol="193" key="0"/>
          <note len="12" pos="360" pan="0" vol="193" key="40"/>
          <note len="24" pos="360" pan="0" vol="193" key="1"/>
          <note len="12" pos="372" pan="0" vol="193" key="40"/>
        </pattern>
        <pattern pos="4224" muted="0" steps="16" type="1" name="rgt1">
          <note len="24" pos="0" pan="0" vol="193" key="39"/>
          <note len="24" pos="0" pan="0" vol="193" key="0"/>
          <note len="12" pos="24" pan="0" vol="193" key="39"/>
          <note len="24" pos="24" pan="0" vol="193" key="1"/>
          <note len="12" pos="36" pan="0" vol="193" key="39"/>
          <note len="12" pos="48" pan="0" vol="193" key="39"/>
          <note len="12" pos="60" pan="0" vol="193" key="39"/>
          <note len="24" pos="72" pan="0" vol="193" key="39"/>
          <note len="24" pos="72" pan="0" vol="193" key="0"/>
          <note len="12" pos="96" pan="0" vol="193" key="39"/>
          <note len="24" pos="96" pan="0" vol="193" key="1"/>
          <note len="12" pos="108" pan="0" vol="193" key="39"/>
          <note len="12" pos="120" pan="0" vol="193" key="39"/>
          <note len="12" pos="132" pan="0" vol="193" key="39"/>
          <note len="24" pos="144" pan="0" vol="193" key="39"/>
          <note len="24" pos="144" pan="0" vol="193" key="0"/>
          <note len="12" pos="168" pan="0" vol="193" key="39"/>
          <note len="24" pos="168" pan="0" vol="193" key="1"/>
          <note len="12" pos="180" pan="0" vol="193" key="39"/>
          <note len="24" pos="192" pan="0" vol="193" key="39"/>
          <note len="24" pos="192" pan="0" vol="193" key="0"/>
          <note len="12" pos="216" pan="0" vol="193" key="39"/>
          <note len="24" pos="216" pan="0" vol="193" key="1"/>
          <note len="12" pos="228" pan="0" vol="193" key="39"/>
          <note len="12" pos="240" pan="0" vol="193" key="39"/>
          <note len="12" pos="252" pan="0" vol="193" key="39"/>
          <note len="24" pos="264" pan="0" vol="193" key="39"/>
          <note len="24" pos="264" pan="0" vol="193" key="0"/>
          <note len="12" pos="288" pan="0" vol="193" key="39"/>
          <note len="24" pos="288" pan="0" vol="193" key="1"/>
          <note len="12" pos="300" pan="0" vol="193" key="39"/>
          <note len="12" pos="312" pan="0" vol="193" key="39"/>
          <note len="12" pos="324" pan="0" vol="193" key="39"/>
          <note len="24" pos="336" pan="0" vol="193" key="39"/>
          <note len="24" pos="336" pan="0" vol="193" key="0"/>
          <note len="12" pos="360" pan="0" vol="193" key="39"/>
          <note len="24" pos="360" pan="0" vol="193" key="1"/>
          <note len="12" pos="372" pan="0" vol="193" key="39"/>
        </pattern>
        <pattern pos="4608" muted="0" steps="16" type="1" name="rgt1">
          <note len="24" pos="0" pan="0" vol="193" key="38"/>
          <note len="24" pos="0" pan="0" vol="193" key="0"/>
          <note len="12" pos="24" pan="0" vol="193" key="38"/>
          <note len="24" pos="24" pan="0" vol="193" key="1"/>
          <note len="12" pos="36" pan="0" vol="193" key="38"/>
          <note len="12" pos="48" pan="0" vol="193" key="38"/>
          <note len="12" pos="60" pan="0" vol="193" key="38"/>
          <note len="24" pos="72" pan="0" vol="193" key="38"/>
          <note len="24" pos="72" pan="0" vol="193" key="0"/>
          <note len="12" pos="96" pan="0" vol="193" key="38"/>
          <note len="24" pos="96" pan="0" vol="193" key="1"/>
          <note len="12" pos="108" pan="0" vol="193" key="38"/>
          <note len="12" pos="120" pan="0" vol="193" key="38"/>
          <note len="12" pos="132" pan="0" vol="193" key="38"/>
          <note len="24" pos="144" pan="0" vol="193" key="38"/>
          <note len="24" pos="144" pan="0" vol="193" key="0"/>
          <note len="12" pos="168" pan="0" vol="193" key="38"/>
          <note len="24" pos="168" pan="0" vol="193" key="1"/>
          <note len="12" pos="180" pan="0" vol="193" key="38"/>
          <note len="24" pos="192" pan="0" vol="193" key="38"/>
          <note len="24" pos="192" pan="0" vol="193" key="0"/>
          <note len="12" pos="216" pan="0" vol="193" key="38"/>
          <note len="24" pos="216" pan="0" vol="193" key="1"/>
          <note len="12" pos="228" pan="0" vol="193" key="38"/>
          <note len="12" pos="240" pan="0" vol="193" key="38"/>
          <note len="12" pos="252" pan="0" vol="193" key="38"/>
          <note len="24" pos="264" pan="0" vol="193" key="38"/>
          <note len="24" pos="264" pan="0" vol="193" key="0"/>
          <note len="12" pos="288" pan="0" vol="193" key="38"/>
          <note len="24" pos="288" pan="0" vol="193" key="1"/>
          <note len="12" pos="300" pan="0" vol="193" key="38"/>
          <note len="12" pos="312" pan="0" vol="193" key="38"/>
          <note len="12" pos="324" pan="0" vol="193" key="38"/>
          <note len="24" pos="336" pan="0" vol="193" key="38"/>
          <note len="24" pos="336" pan="0" vol="193" key="0"/>
          <note len="12" pos="360" pan="0" vol="193" key="38"/>
          <note len="24" pos="360" pan="0" vol="193" key="1"/>
          <note len="12" pos="372" pan="0" vol="193" key="38"/>
        </pattern>
        <pattern pos="4992" muted="0" steps="16" type="1" name="rgt1">
          <note len="24" pos="0" pan="0" vol="193" key="37"/>
          <note len="24" pos="0" pan="0" vol="193" key="0"/>
          <note len="12" pos="24" pan="0" vol="193" key="37"/>
          <note len="24" pos="24" pan="0" vol="193" key="1"/>
          <note len="12" pos="36" pan="0" vol="193" key="37"/>
          <note len="12" pos="48" pan="0" vol="193" key="37"/>
          <note len="12" pos="60" pan="0" vol="193" key="37"/>
          <note len="24" pos="72" pan="0" vol="193" key="37"/>
          <note len="24" pos="72" pan="0" vol="193" key="0"/>
          <note len="12" pos="96" pan="0" vol="193" key="37"/>
          <note len="24" pos="96" pan="0" vol="193" key="1"/>
          <note len="12" pos="108" pan="0" vol="193" key="37"/>
          <note len="12" pos="120" pan="0" vol="193" key="37"/>
          <note len="12" pos="132" pan="0" vol="193" key="37"/>
          <note len="24" pos="144" pan="0" vol="193" key="37"/>
          <note len="24" pos="144" pan="0" vol="193" key="0"/>
          <note len="12" pos="168" pan="0" vol="193" key="37"/>
          <note len="24" pos="168" pan="0" vol="193" key="1"/>
          <note len="12" pos="180" pan="0" vol="193" key="37"/>
          <note len="24" pos="192" pan="0" vol="193" key="37"/>
          <note len="24" pos="192" pan="0" vol="193" key="0"/>
          <note len="12" pos="216" pan="0" vol="193" key="37"/>
          <note len="24" pos="216" pan="0" vol="193" key="1"/>
          <note len="12" pos="228" pan="0" vol="193" key="37"/>
          <note len="12" pos="240" pan="0" vol="193" key="37"/>
          <note len="12" pos="252" pan="0" vol="193" key="37"/>
          <note len="24" pos="264" pan="0" vol="193" key="37"/>
          <note len="24" pos="264" pan="0" vol="193" key="0"/>
          <note len="12" pos="288" pan="0" vol="193" key="37"/>
          <note len="24" pos="288" pan="0" vol="193" key="1"/>
          <note len="12" pos="300" pan="0" vol="193" key="37"/>
          <note len="12" pos="312" pan="0" vol="193" key="37"/>
          <note len="12" pos="324" pan="0" vol="193" key="37"/>
          <note len="24" pos="336" pan="0" vol="193" key="37"/>
          <note len="24" pos="336" pan="0" vol="193" key="0"/>
          <note len="12" pos="360" pan="0" vol="193" key="37"/>
          <note len="24" pos="360" pan="0" vol="193" key="1"/>
          <note len="12" pos="372" pan="0" vol="193" key="37"/>
        </pattern>
        <pattern pos="5760" muted="0" steps="16" type="1" name="rgt1">
          <note len="24" pos="0" pan="0" vol="193" key="44"/>
          <note len="24" pos="0" pan="0" vol="193" key="37"/>
          <note len="24" pos="0" pan="0" vol="193" key="0"/>
          <note len="12" pos="24" pan="0" vol="193" key="37"/>
          <note len="24" pos="24" pan="0" vol="193" key="1"/>
          <note len="12" pos="36" pan="0" vol="193" key="37"/>
          <note len="12" pos="48" pan="0" vol="193" key="37"/>
          <note len="12" pos="60" pan="0" vol="193" key="37"/>
          <note len="24" pos="72" pan="0" vol="193" key="44"/>
          <note len="24" pos="72" pan="0" vol="193" key="37"/>
          <note len="24" pos="72" pan="0" vol="193" key="0"/>
          <note len="12" pos="96" pan="0" vol="193" key="37"/>
          <note len="24" pos="96" pan="0" vol="193" key="1"/>
          <note len="12" pos="108" pan="0" vol="193" key="37"/>
          <note len="12" pos="120" pan="0" vol="193" key="37"/>
          <note len="12" pos="132" pan="0" vol="193" key="37"/>
          <note len="24" pos="144" pan="0" vol="193" key="44"/>
          <note len="24" pos="144" pan="0" vol="193" key="37"/>
          <note len="24" pos="144" pan="0" vol="193" key="37"/>
          <note len="24" pos="144" pan="0" vol="193" key="0"/>
          <note len="12" pos="168" pan="0" vol="193" key="37"/>
          <note len="24" pos="168" pan="0" vol="193" key="1"/>
          <note len="12" pos="180" pan="0" vol="193" key="37"/>
          <note len="12" pos="192" pan="0" vol="193" key="37"/>
          <note len="12" pos="204" pan="0" vol="193" key="38"/>
          <note len="12" pos="216" pan="0" vol="193" key="41"/>
          <note len="12" pos="228" pan="0" vol="193" key="42"/>
          <note len="12" pos="240" pan="0" vol="193" key="41"/>
          <note len="12" pos="252" pan="0" vol="193" key="42"/>
          <note len="12" pos="264" pan="0" vol="193" key="44"/>
          <note len="12" pos="276" pan="0" vol="193" key="45"/>
          <note len="12" pos="288" pan="0" vol="193" key="44"/>
          <note len="12" pos="300" pan="0" vol="193" key="45"/>
          <note len="12" pos="312" pan="0" vol="193" key="47"/>
          <note len="12" pos="324" pan="0" vol="193" key="49"/>
          <note len="12" pos="336" pan="0" vol="193" key="47"/>
          <note len="12" pos="348" pan="0" vol="193" key="49"/>
          <note len="12" pos="360" pan="0" vol="193" key="50"/>
          <note len="12" pos="372" pan="0" vol="193" key="53"/>
        </pattern>
        <pattern pos="5376" muted="0" steps="16" type="1" name="rgt1">
          <note len="24" pos="0" pan="0" vol="193" key="36"/>
          <note len="24" pos="0" pan="0" vol="193" key="0"/>
          <note len="12" pos="24" pan="0" vol="193" key="36"/>
          <note len="24" pos="24" pan="0" vol="193" key="1"/>
          <note len="12" pos="36" pan="0" vol="193" key="36"/>
          <note len="12" pos="48" pan="0" vol="193" key="36"/>
          <note len="12" pos="60" pan="0" vol="193" key="36"/>
          <note len="24" pos="72" pan="0" vol="193" key="36"/>
          <note len="24" pos="72" pan="0" vol="193" key="0"/>
          <note len="12" pos="96" pan="0" vol="193" key="36"/>
          <note len="24" pos="96" pan="0" vol="193" key="1"/>
          <note len="12" pos="108" pan="0" vol="193" key="36"/>
          <note len="12" pos="120" pan="0" vol="193" key="36"/>
          <note len="12" pos="132" pan="0" vol="193" key="36"/>
          <note len="24" pos="144" pan="0" vol="193" key="36"/>
          <note len="24" pos="144" pan="0" vol="193" key="0"/>
          <note len="12" pos="168" pan="0" vol="193" key="36"/>
          <note len="24" pos="168" pan="0" vol="193" key="1"/>
          <note len="12" pos="180" pan="0" vol="193" key="36"/>
          <note len="24" pos="192" pan="0" vol="193" key="36"/>
          <note len="24" pos="192" pan="0" vol="193" key="0"/>
          <note len="12" pos="216" pan="0" vol="193" key="36"/>
          <note len="24" pos="216" pan="0" vol="193" key="1"/>
          <note len="12" pos="228" pan="0" vol="193" key="36"/>
          <note len="12" pos="240" pan="0" vol="193" key="36"/>
          <note len="12" pos="252" pan="0" vol="193" key="36"/>
          <note len="24" pos="264" pan="0" vol="193" key="36"/>
          <note len="24" pos="264" pan="0" vol="193" key="0"/>
          <note len="12" pos="288" pan="0" vol="193" key="36"/>
          <note len="24" pos="288" pan="0" vol="193" key="1"/>
          <note len="12" pos="300" pan="0" vol="193" key="36"/>
          <note len="12" pos="312" pan="0" vol="193" key="36"/>
          <note len="12" pos="324" pan="0" vol="193" key="36"/>
          <note len="24" pos="336" pan="0" vol="193" key="36"/>
          <note len="24" pos="336" pan="0" vol="193" key="0"/>
          <note len="12" pos="360" pan="0" vol="193" key="36"/>
          <note len="24" pos="360" pan="0" vol="193" key="1"/>
          <note len="12" pos="372" pan="0" vol="193" key="36"/>
        </pattern>
        <pattern pos="6144" muted="0" steps="16" type="1" name="rgt1">
          <note len="12" pos="0" pan="0" vol="193" key="54"/>
          <note len="48" pos="0" pan="0" vol="193" key="1"/>
          <note len="12" pos="12" pan="0" vol="193" key="54"/>
          <note len="12" pos="24" pan="0" vol="193" key="49"/>
          <note len="12" pos="36" pan="0" vol="193" key="49"/>
          <note len="12" pos="48" pan="0" vol="193" key="54"/>
          <note len="12" pos="60" pan="0" vol="193" key="54"/>
          <note len="12" pos="72" pan="0" vol="193" key="56"/>
          <note len="12" pos="84" pan="0" vol="193" key="56"/>
          <note len="12" pos="96" pan="0" vol="193" key="57"/>
          <note len="12" pos="108" pan="0" vol="193" key="57"/>
          <note len="12" pos="120" pan="0" vol="193" key="56"/>
          <note len="12" pos="132" pan="0" vol="193" key="56"/>
          <note len="12" pos="144" pan="0" vol="193" key="54"/>
          <note len="12" pos="156" pan="0" vol="193" key="54"/>
          <note len="24" pos="156" pan="0" vol="193" key="0"/>
          <note len="24" pos="168" pan="0" vol="193" key="57"/>
          <note len="24" pos="180" pan="0" vol="193" key="1"/>
          <note len="12" pos="192" pan="0" vol="193" key="50"/>
          <note len="12" pos="204" pan="0" vol="193" key="50"/>
          <note len="24" pos="204" pan="0" vol="193" key="0"/>
          <note len="24" pos="216" pan="0" vol="193" key="56"/>
          <note len="24" pos="228" pan="0" vol="193" key="1"/>
          <note len="12" pos="240" pan="0" vol="193" key="50"/>
          <note len="12" pos="252" pan="0" vol="193" key="50"/>
          <note len="12" pos="252" pan="0" vol="193" key="0"/>
          <note len="48" pos="264" pan="0" vol="193" key="57"/>
          <note len="12" pos="300" pan="0" vol="193" key="1"/>
          <note len="12" pos="312" pan="0" vol="193" key="54"/>
          <note len="12" pos="324" pan="0" vol="193" key="54"/>
          <note len="12" pos="336" pan="0" vol="193" key="56"/>
          <note len="12" pos="348" pan="0" vol="193" key="56"/>
          <note len="12" pos="360" pan="0" vol="193" key="57"/>
          <note len="12" pos="372" pan="0" vol="193" key="57"/>
        </pattern>
        <pattern pos="6528" muted="0" steps="16" type="1" name="rgt1">
          <note len="12" pos="0" pan="0" vol="193" key="52"/>
          <note len="48" pos="0" pan="0" vol="193" key="1"/>
          <note len="12" pos="12" pan="0" vol="193" key="52"/>
          <note len="12" pos="24" pan="0" vol="193" key="47"/>
          <note len="12" pos="36" pan="0" vol="193" key="47"/>
          <note len="12" pos="48" pan="0" vol="193" key="52"/>
          <note len="12" pos="60" pan="0" vol="193" key="52"/>
          <note len="12" pos="72" pan="0" vol="193" key="54"/>
          <note len="12" pos="84" pan="0" vol="193" key="54"/>
          <note len="12" pos="96" pan="0" vol="193" key="56"/>
          <note len="12" pos="108" pan="0" vol="193" key="56"/>
          <note len="12" pos="120" pan="0" vol="193" key="54"/>
          <note len="12" pos="132" pan="0" vol="193" key="54"/>
          <note len="12" pos="144" pan="0" vol="193" key="52"/>
          <note len="12" pos="156" pan="0" vol="193" key="52"/>
          <note len="24" pos="156" pan="0" vol="193" key="0"/>
          <note len="48" pos="168" pan="0" vol="193" key="54"/>
          <note len="24" pos="204" pan="0" vol="193" key="0"/>
          <note len="24" pos="216" pan="0" vol="193" key="56"/>
          <note len="24" pos="228" pan="0" vol="193" key="1"/>
          <note len="24" pos="240" pan="0" vol="193" key="54"/>
          <note len="12" pos="252" pan="0" vol="193" key="0"/>
          <note len="48" pos="264" pan="0" vol="193" key="53"/>
          <note len="12" pos="300" pan="0" vol="193" key="1"/>
          <note len="12" pos="312" pan="0" vol="193" key="53"/>
          <note len="12" pos="324" pan="0" vol="193" key="54"/>
          <note len="12" pos="336" pan="0" vol="193" key="56"/>
          <note len="12" pos="348" pan="0" vol="193" key="54"/>
          <note len="12" pos="360" pan="0" vol="193" key="53"/>
          <note len="12" pos="372" pan="0" vol="193" key="56"/>
        </pattern>
        <pattern pos="6912" muted="0" steps="16" type="1" name="rgt1">
          <note len="12" pos="0" pan="0" vol="193" key="54"/>
          <note len="48" pos="0" pan="0" vol="193" key="1"/>
          <note len="12" pos="12" pan="0" vol="193" key="54"/>
          <note len="12" pos="24" pan="0" vol="193" key="49"/>
          <note len="12" pos="36" pan="0" vol="193" key="49"/>
          <note len="12" pos="48" pan="0" vol="193" key="54"/>
          <note len="12" pos="60" pan="0" vol="193" key="54"/>
          <note len="12" pos="72" pan="0" vol="193" key="56"/>
          <note len="12" pos="84" pan="0" vol="193" key="56"/>
          <note len="12" pos="96" pan="0" vol="193" key="57"/>
          <note len="12" pos="108" pan="0" vol="193" key="57"/>
          <note len="12" pos="120" pan="0" vol="193" key="56"/>
          <note len="12" pos="132" pan="0" vol="193" key="56"/>
          <note len="12" pos="144" pan="0" vol="193" key="54"/>
          <note len="12" pos="156" pan="0" vol="193" key="54"/>
          <note len="24" pos="156" pan="0" vol="193" key="0"/>
          <note len="24" pos="168" pan="0" vol="193" key="57"/>
          <note len="24" pos="180" pan="0" vol="193" key="1"/>
          <note len="12" pos="192" pan="0" vol="193" key="54"/>
          <note len="12" pos="204" pan="0" vol="193" key="54"/>
          <note len="24" pos="204" pan="0" vol="193" key="0"/>
          <note len="24" pos="216" pan="0" vol="193" key="59"/>
          <note len="24" pos="228" pan="0" vol="193" key="1"/>
          <note len="12" pos="240" pan="0" vol="193" key="54"/>
          <note len="12" pos="252" pan="0" vol="193" key="54"/>
          <note len="12" pos="252" pan="0" vol="193" key="0"/>
          <note len="48" pos="264" pan="0" vol="193" key="61"/>
          <note len="12" pos="300" pan="0" vol="193" key="1"/>
          <note len="12" pos="312" pan="0" vol="193" key="57"/>
          <note len="12" pos="324" pan="0" vol="193" key="57"/>
          <note len="12" pos="336" pan="0" vol="193" key="59"/>
          <note len="12" pos="348" pan="0" vol="193" key="59"/>
          <note len="12" pos="360" pan="0" vol="193" key="61"/>
          <note len="12" pos="372" pan="0" vol="193" key="61"/>
        </pattern>
        <pattern pos="7296" muted="0" steps="16" type="1" name="rgt1">
          <note len="12" pos="0" pan="0" vol="193" key="57"/>
          <note len="48" pos="0" pan="0" vol="193" key="1"/>
          <note len="12" pos="12" pan="0" vol="193" key="57"/>
          <note len="12" pos="24" pan="0" vol="193" key="52"/>
          <note len="12" pos="36" pan="0" vol="193" key="52"/>
          <note len="12" pos="48" pan="0" vol="193" key="57"/>
          <note len="12" pos="60" pan="0" vol="193" key="57"/>
          <note len="12" pos="72" pan="0" vol="193" key="59"/>
          <note len="12" pos="84" pan="0" vol="193" key="59"/>
          <note len="12" pos="96" pan="0" vol="193" key="61"/>
          <note len="12" pos="108" pan="0" vol="193" key="61"/>
          <note len="12" pos="120" pan="0" vol="193" key="59"/>
          <note len="12" pos="132" pan="0" vol="193" key="59"/>
          <note len="12" pos="144" pan="0" vol="193" key="61"/>
          <note len="12" pos="156" pan="0" vol="193" key="61"/>
          <note len="24" pos="156" pan="0" vol="193" key="0"/>
          <note len="48" pos="168" pan="0" vol="193" key="65"/>
          <note len="24" pos="204" pan="0" vol="193" key="0"/>
          <note len="24" pos="216" pan="0" vol="193" key="61"/>
          <note len="24" pos="228" pan="0" vol="193" key="1"/>
          <note len="24" pos="240" pan="0" vol="193" key="59"/>
          <note len="12" pos="252" pan="0" vol="193" key="0"/>
          <note len="48" pos="264" pan="0" vol="193" key="61"/>
          <note len="12" pos="300" pan="0" vol="193" key="1"/>
          <note len="12" pos="312" pan="0" vol="193" key="59"/>
          <note len="12" pos="324" pan="0" vol="193" key="61"/>
          <note len="12" pos="336" pan="0" vol="193" key="62"/>
          <note len="12" pos="348" pan="0" vol="193" key="61"/>
          <note len="12" pos="360" pan="0" vol="193" key="59"/>
          <note len="12" pos="372" pan="0" vol="193" key="61"/>
        </pattern>
        <pattern pos="7680" muted="0" steps="16" type="1" name="rgt1">
          <note len="12" pos="0" pan="0" vol="193" key="57"/>
          <note len="48" pos="0" pan="0" vol="193" key="1"/>
          <note len="12" pos="12" pan="0" vol="193" key="57"/>
          <note len="12" pos="24" pan="0" vol="193" key="54"/>
          <note len="12" pos="36" pan="0" vol="193" key="54"/>
          <note len="12" pos="48" pan="0" vol="193" key="57"/>
          <note len="12" pos="60" pan="0" vol="193" key="57"/>
          <note len="12" pos="72" pan="0" vol="193" key="59"/>
          <note len="12" pos="84" pan="0" vol="193" key="59"/>
          <note len="12" pos="96" pan="0" vol="193" key="61"/>
          <note len="12" pos="108" pan="0" vol="193" key="61"/>
          <note len="12" pos="120" pan="0" vol="193" key="59"/>
          <note len="12" pos="132" pan="0" vol="193" key="59"/>
          <note len="12" pos="144" pan="0" vol="193" key="57"/>
          <note len="12" pos="156" pan="0" vol="193" key="57"/>
          <note len="24" pos="156" pan="0" vol="193" key="0"/>
          <note len="24" pos="168" pan="0" vol="193" key="61"/>
          <note len="24" pos="180" pan="0" vol="193" key="1"/>
          <note len="12" pos="192" pan="0" vol="193" key="54"/>
          <note len="12" pos="204" pan="0" vol="193" key="54"/>
          <note len="24" pos="204" pan="0" vol="193" key="0"/>
          <note len="24" pos="216" pan="0" vol="193" key="59"/>
          <note len="24" pos="228" pan="0" vol="193" key="1"/>
          <note len="12" pos="240" pan="0" vol="193" key="54"/>
          <note len="12" pos="252" pan="0" vol="193" key="54"/>
          <note len="12" pos="252" pan="0" vol="193" key="0"/>
          <note len="48" pos="264" pan="0" vol="193" key="61"/>
          <note len="12" pos="300" pan="0" vol="193" key="1"/>
          <note len="12" pos="312" pan="0" vol="193" key="57"/>
          <note len="12" pos="324" pan="0" vol="193" key="57"/>
          <note len="12" pos="336" pan="0" vol="193" key="59"/>
          <note len="12" pos="348" pan="0" vol="193" key="59"/>
          <note len="12" pos="360" pan="0" vol="193" key="61"/>
          <note len="12" pos="372" pan="0" vol="193" key="61"/>
        </pattern>
        <pattern pos="8064" muted="0" steps="16" type="1" name="rgt1">
          <note len="12" pos="0" pan="0" vol="193" key="57"/>
          <note len="48" pos="0" pan="0" vol="193" key="1"/>
          <note len="12" pos="12" pan="0" vol="193" key="57"/>
          <note len="12" pos="24" pan="0" vol="193" key="52"/>
          <note len="12" pos="36" pan="0" vol="193" key="52"/>
          <note len="12" pos="48" pan="0" vol="193" key="57"/>
          <note len="12" pos="60" pan="0" vol="193" key="57"/>
          <note len="12" pos="72" pan="0" vol="193" key="59"/>
          <note len="12" pos="84" pan="0" vol="193" key="59"/>
          <note len="12" pos="96" pan="0" vol="193" key="61"/>
          <note len="12" pos="108" pan="0" vol="193" key="61"/>
          <note len="12" pos="120" pan="0" vol="193" key="59"/>
          <note len="12" pos="132" pan="0" vol="193" key="59"/>
          <note len="12" pos="144" pan="0" vol="193" key="57"/>
          <note len="12" pos="156" pan="0" vol="193" key="57"/>
          <note len="24" pos="156" pan="0" vol="193" key="0"/>
          <note len="48" pos="168" pan="0" vol="193" key="61"/>
          <note len="12" pos="216" pan="0" vol="193" key="59"/>
          <note len="12" pos="216" pan="0" vol="193" key="1"/>
          <note len="12" pos="228" pan="0" vol="193" key="61"/>
          <note len="12" pos="240" pan="0" vol="193" key="62"/>
          <note len="12" pos="240" pan="0" vol="193" key="0"/>
          <note len="12" pos="252" pan="0" vol="193" key="61"/>
          <note len="12" pos="264" pan="0" vol="193" key="59"/>
          <note len="12" pos="264" pan="0" vol="193" key="1"/>
          <note len="12" pos="276" pan="0" vol="193" key="57"/>
          <note len="12" pos="288" pan="0" vol="193" key="61"/>
          <note len="12" pos="288" pan="0" vol="193" key="0"/>
          <note len="12" pos="300" pan="0" vol="193" key="59"/>
          <note len="12" pos="312" pan="0" vol="193" key="57"/>
          <note len="12" pos="312" pan="0" vol="193" key="1"/>
          <note len="12" pos="324" pan="0" vol="193" key="56"/>
          <note len="12" pos="336" pan="0" vol="193" key="59"/>
          <note len="12" pos="336" pan="0" vol="193" key="0"/>
          <note len="12" pos="348" pan="0" vol="193" key="57"/>
          <note len="12" pos="360" pan="0" vol="193" key="56"/>
          <note len="12" pos="360" pan="0" vol="193" key="1"/>
          <note len="12" pos="372" pan="0" vol="193" key="54"/>
        </pattern>
        <pattern pos="8448" muted="0" steps="16" type="1" name="rgt1">
          <note len="192" pos="0" pan="0" vol="100" key="45"/>
          <note len="192" pos="0" pan="0" vol="100" key="38"/>
          <note len="12" pos="0" pan="0" vol="100" key="0"/>
          <note len="192" pos="192" pan="0" vol="100" key="45"/>
          <note len="192" pos="192" pan="0" vol="100" key="38"/>
          <note len="192" pos="384" pan="0" vol="100" key="47"/>
          <note len="192" pos="384" pan="0" vol="100" key="40"/>
          <note len="12" pos="564" pan="0" vol="100" key="1"/>
          <note len="12" pos="576" pan="0" vol="100" key="41"/>
          <note len="12" pos="588" pan="0" vol="100" key="41"/>
          <note len="12" pos="600" pan="0" vol="100" key="37"/>
          <note len="12" pos="612" pan="0" vol="100" key="37"/>
          <note len="12" pos="624" pan="0" vol="100" key="41"/>
          <note len="12" pos="636" pan="0" vol="100" key="41"/>
          <note len="12" pos="648" pan="0" vol="100" key="42"/>
          <note len="12" pos="660" pan="0" vol="100" key="42"/>
          <note len="12" pos="672" pan="0" vol="100" key="44"/>
          <note len="12" pos="684" pan="0" vol="100" key="44"/>
          <note len="12" pos="696" pan="0" vol="100" key="42"/>
          <note len="12" pos="708" pan="0" vol="100" key="42"/>
          <note len="12" pos="720" pan="0" vol="100" key="41"/>
          <note len="12" pos="732" pan="0" vol="100" key="41"/>
          <note len="12" pos="744" pan="0" vol="100" key="37"/>
          <note len="12" pos="756" pan="0" vol="100" key="37"/>
        </pattern>
        <pattern pos="9216" muted="0" steps="16" type="1" name="rgt1">
          <note len="192" pos="0" pan="0" vol="193" key="49"/>
          <note len="192" pos="0" pan="0" vol="193" key="42"/>
          <note len="24" pos="0" pan="0" vol="193" key="0"/>
          <note len="192" pos="192" pan="0" vol="193" key="49"/>
          <note len="192" pos="192" pan="0" vol="193" key="42"/>
          <note len="24" pos="372" pan="0" vol="193" key="0"/>
          <note len="48" pos="384" pan="0" vol="193" key="45"/>
          <note len="48" pos="384" pan="0" vol="193" key="38"/>
          <note len="24" pos="408" pan="0" vol="193" key="1"/>
          <note len="12" pos="432" pan="0" vol="193" key="38"/>
          <note len="12" pos="444" pan="0" vol="193" key="38"/>
          <note len="12" pos="456" pan="0" vol="193" key="38"/>
          <note len="12" pos="468" pan="0" vol="193" key="38"/>
          <note len="12" pos="480" pan="0" vol="193" key="38"/>
          <note len="12" pos="492" pan="0" vol="193" key="38"/>
          <note len="12" pos="504" pan="0" vol="193" key="38"/>
          <note len="12" pos="516" pan="0" vol="193" key="38"/>
          <note len="12" pos="528" pan="0" vol="193" key="38"/>
          <note len="12" pos="540" pan="0" vol="193" key="38"/>
          <note len="12" pos="552" pan="0" vol="193" key="38"/>
          <note len="12" pos="564" pan="0" vol="193" key="38"/>
          <note len="24" pos="576" pan="0" vol="193" key="38"/>
          <note len="24" pos="576" pan="0" vol="193" key="0"/>
          <note len="24" pos="588" pan="0" vol="193" key="1"/>
          <note len="12" pos="600" pan="0" vol="193" key="38"/>
          <note len="12" pos="612" pan="0" vol="193" key="38"/>
          <note len="12" pos="624" pan="0" vol="193" key="38"/>
          <note len="12" pos="636" pan="0" vol="193" key="38"/>
          <note len="24" pos="648" pan="0" vol="193" key="38"/>
          <note len="24" pos="648" pan="0" vol="193" key="0"/>
          <note len="24" pos="660" pan="0" vol="193" key="1"/>
          <note len="12" pos="672" pan="0" vol="193" key="38"/>
          <note len="12" pos="684" pan="0" vol="193" key="38"/>
          <note len="12" pos="696" pan="0" vol="193" key="38"/>
          <note len="12" pos="708" pan="0" vol="193" key="38"/>
          <note len="12" pos="720" pan="0" vol="193" key="38"/>
          <note len="12" pos="732" pan="0" vol="193" key="37"/>
          <note len="12" pos="744" pan="0" vol="193" key="38"/>
          <note len="12" pos="756" pan="0" vol="193" key="40"/>
        </pattern>
        <pattern pos="9984" muted="0" steps="16" type="1" name="rgt1">
          <note len="192" pos="0" pan="0" vol="193" key="49"/>
          <note len="192" pos="0" pan="0" vol="193" key="42"/>
          <note len="24" pos="0" pan="0" vol="193" key="0"/>
          <note len="192" pos="192" pan="0" vol="193" key="49"/>
          <note len="192" pos="192" pan="0" vol="193" key="42"/>
          <note len="24" pos="372" pan="0" vol="193" key="0"/>
          <note len="48" pos="384" pan="0" vol="193" key="52"/>
          <note len="48" pos="384" pan="0" vol="193" key="45"/>
          <note len="24" pos="408" pan="0" vol="193" key="1"/>
          <note len="12" pos="432" pan="0" vol="193" key="45"/>
          <note len="12" pos="444" pan="0" vol="193" key="45"/>
          <note len="12" pos="456" pan="0" vol="193" key="45"/>
          <note len="12" pos="468" pan="0" vol="193" key="45"/>
          <note len="12" pos="480" pan="0" vol="193" key="45"/>
          <note len="12" pos="492" pan="0" vol="193" key="45"/>
          <note len="12" pos="504" pan="0" vol="193" key="45"/>
          <note len="12" pos="516" pan="0" vol="193" key="45"/>
          <note len="12" pos="528" pan="0" vol="193" key="45"/>
          <note len="12" pos="540" pan="0" vol="193" key="45"/>
          <note len="12" pos="552" pan="0" vol="193" key="45"/>
          <note len="12" pos="564" pan="0" vol="193" key="45"/>
          <note len="24" pos="576" pan="0" vol="193" key="37"/>
          <note len="24" pos="576" pan="0" vol="193" key="0"/>
          <note len="24" pos="588" pan="0" vol="193" key="1"/>
          <note len="12" pos="600" pan="0" vol="193" key="37"/>
          <note len="12" pos="612" pan="0" vol="193" key="37"/>
          <note len="12" pos="624" pan="0" vol="193" key="37"/>
          <note len="12" pos="636" pan="0" vol="193" key="37"/>
          <note len="24" pos="648" pan="0" vol="193" key="37"/>
          <note len="24" pos="648" pan="0" vol="193" key="0"/>
          <note len="24" pos="660" pan="0" vol="193" key="1"/>
          <note len="12" pos="672" pan="0" vol="193" key="37"/>
          <note len="12" pos="684" pan="0" vol="193" key="37"/>
          <note len="12" pos="696" pan="0" vol="193" key="37"/>
          <note len="12" pos="708" pan="0" vol="193" key="37"/>
          <note len="12" pos="720" pan="0" vol="193" key="37"/>
          <note len="12" pos="732" pan="0" vol="193" key="37"/>
          <note len="12" pos="744" pan="0" vol="193" key="37"/>
          <note len="12" pos="756" pan="0" vol="193" key="37"/>
        </pattern>
        <pattern pos="11520" muted="0" steps="16" type="1" name="rgt1">
          <note len="12" pos="0" pan="0" vol="193" key="45"/>
          <note len="12" pos="0" pan="0" vol="193" key="1"/>
          <note len="12" pos="12" pan="0" vol="193" key="45"/>
          <note len="12" pos="24" pan="0" vol="193" key="45"/>
          <note len="12" pos="36" pan="0" vol="193" key="45"/>
          <note len="12" pos="48" pan="0" vol="193" key="45"/>
          <note len="12" pos="60" pan="0" vol="193" key="45"/>
          <note len="12" pos="72" pan="0" vol="193" key="45"/>
          <note len="12" pos="84" pan="0" vol="193" key="45"/>
          <note len="12" pos="96" pan="0" vol="193" key="45"/>
          <note len="12" pos="108" pan="0" vol="193" key="45"/>
          <note len="12" pos="120" pan="0" vol="193" key="45"/>
          <note len="12" pos="132" pan="0" vol="193" key="45"/>
          <note len="12" pos="144" pan="0" vol="193" key="45"/>
          <note len="12" pos="156" pan="0" vol="193" key="45"/>
          <note len="12" pos="168" pan="0" vol="193" key="45"/>
          <note len="12" pos="180" pan="0" vol="193" key="45"/>
          <note len="12" pos="192" pan="0" vol="193" key="38"/>
          <note len="12" pos="192" pan="0" vol="193" key="0"/>
          <note len="12" pos="204" pan="0" vol="193" key="37"/>
          <note len="12" pos="204" pan="0" vol="193" key="1"/>
          <note len="12" pos="216" pan="0" vol="193" key="37"/>
          <note len="12" pos="228" pan="0" vol="193" key="37"/>
          <note len="12" pos="240" pan="0" vol="193" key="37"/>
          <note len="12" pos="252" pan="0" vol="193" key="37"/>
          <note len="12" pos="264" pan="0" vol="193" key="38"/>
          <note len="12" pos="264" pan="0" vol="193" key="0"/>
          <note len="12" pos="276" pan="0" vol="193" key="37"/>
          <note len="12" pos="276" pan="0" vol="193" key="1"/>
          <note len="12" pos="288" pan="0" vol="193" key="37"/>
          <note len="12" pos="300" pan="0" vol="193" key="37"/>
          <note len="12" pos="312" pan="0" vol="193" key="37"/>
          <note len="12" pos="324" pan="0" vol="193" key="37"/>
          <note len="12" pos="336" pan="0" vol="193" key="38"/>
          <note len="12" pos="348" pan="0" vol="193" key="41"/>
          <note len="12" pos="360" pan="0" vol="193" key="42"/>
          <note len="12" pos="372" pan="0" vol="193" key="44"/>
          <note len="24" pos="384" pan="0" vol="193" key="42"/>
          <note len="12" pos="384" pan="0" vol="193" key="0"/>
          <note len="12" pos="396" pan="0" vol="193" key="1"/>
          <note len="12" pos="408" pan="0" vol="193" key="42"/>
          <note len="12" pos="420" pan="0" vol="193" key="42"/>
          <note len="12" pos="432" pan="0" vol="193" key="42"/>
          <note len="12" pos="444" pan="0" vol="193" key="42"/>
          <note len="12" pos="456" pan="0" vol="193" key="42"/>
          <note len="12" pos="468" pan="0" vol="193" key="42"/>
          <note len="24" pos="480" pan="0" vol="193" key="42"/>
          <note len="12" pos="480" pan="0" vol="193" key="0"/>
          <note len="12" pos="492" pan="0" vol="193" key="1"/>
          <note len="12" pos="504" pan="0" vol="193" key="42"/>
          <note len="12" pos="516" pan="0" vol="193" key="42"/>
          <note len="12" pos="528" pan="0" vol="193" key="42"/>
          <note len="12" pos="540" pan="0" vol="193" key="42"/>
          <note len="12" pos="552" pan="0" vol="193" key="42"/>
          <note len="12" pos="564" pan="0" vol="193" key="42"/>
          <note len="24" pos="576" pan="0" vol="193" key="42"/>
          <note len="12" pos="576" pan="0" vol="193" key="0"/>
          <note len="12" pos="588" pan="0" vol="193" key="1"/>
          <note len="12" pos="600" pan="0" vol="193" key="42"/>
          <note len="12" pos="612" pan="0" vol="193" key="42"/>
          <note len="24" pos="624" pan="0" vol="193" key="42"/>
          <note len="12" pos="624" pan="0" vol="193" key="0"/>
          <note len="12" pos="636" pan="0" vol="193" key="1"/>
          <note len="12" pos="648" pan="0" vol="193" key="42"/>
          <note len="12" pos="660" pan="0" vol="193" key="42"/>
          <note len="24" pos="672" pan="0" vol="193" key="42"/>
          <note len="12" pos="672" pan="0" vol="193" key="0"/>
          <note len="12" pos="684" pan="0" vol="193" key="1"/>
          <note len="24" pos="696" pan="0" vol="193" key="42"/>
          <note len="12" pos="720" pan="0" vol="193" key="42"/>
          <note len="12" pos="732" pan="0" vol="193" key="42"/>
          <note len="12" pos="744" pan="0" vol="193" key="42"/>
          <note len="12" pos="756" pan="0" vol="193" key="42"/>
        </pattern>
        <pattern pos="16896" muted="0" steps="16" type="1" name="rgt1">
          <note len="24" pos="0" pan="0" vol="193" key="47"/>
          <note len="12" pos="0" pan="0" vol="193" key="1"/>
          <note len="24" pos="24" pan="0" vol="193" key="50"/>
          <note len="24" pos="48" pan="0" vol="193" key="49"/>
          <note len="24" pos="72" pan="0" vol="193" key="50"/>
          <note len="24" pos="96" pan="0" vol="193" key="47"/>
          <note len="24" pos="120" pan="0" vol="193" key="50"/>
          <note len="24" pos="144" pan="0" vol="193" key="49"/>
          <note len="24" pos="168" pan="0" vol="193" key="50"/>
          <note len="24" pos="192" pan="0" vol="193" key="40"/>
          <note len="24" pos="216" pan="0" vol="193" key="44"/>
          <note len="24" pos="240" pan="0" vol="193" key="42"/>
          <note len="24" pos="264" pan="0" vol="193" key="44"/>
          <note len="24" pos="288" pan="0" vol="193" key="40"/>
          <note len="24" pos="312" pan="0" vol="193" key="44"/>
          <note len="24" pos="336" pan="0" vol="193" key="42"/>
          <note len="24" pos="360" pan="0" vol="193" key="44"/>
          <note len="24" pos="384" pan="0" vol="193" key="45"/>
          <note len="24" pos="408" pan="0" vol="193" key="49"/>
          <note len="24" pos="432" pan="0" vol="193" key="47"/>
          <note len="24" pos="456" pan="0" vol="193" key="49"/>
          <note len="24" pos="480" pan="0" vol="193" key="45"/>
          <note len="24" pos="504" pan="0" vol="193" key="49"/>
          <note len="24" pos="528" pan="0" vol="193" key="47"/>
          <note len="24" pos="552" pan="0" vol="193" key="49"/>
          <note len="24" pos="576" pan="0" vol="193" key="38"/>
          <note len="24" pos="600" pan="0" vol="193" key="42"/>
          <note len="24" pos="624" pan="0" vol="193" key="40"/>
          <note len="24" pos="648" pan="0" vol="193" key="42"/>
          <note len="24" pos="672" pan="0" vol="193" key="38"/>
          <note len="24" pos="696" pan="0" vol="193" key="42"/>
          <note len="24" pos="720" pan="0" vol="193" key="40"/>
          <note len="24" pos="744" pan="0" vol="193" key="42"/>
          <note len="24" pos="768" pan="0" vol="193" key="44"/>
          <note len="24" pos="792" pan="0" vol="193" key="47"/>
          <note len="24" pos="816" pan="0" vol="193" key="45"/>
          <note len="24" pos="840" pan="0" vol="193" key="47"/>
          <note len="24" pos="864" pan="0" vol="193" key="41"/>
          <note len="24" pos="888" pan="0" vol="193" key="44"/>
          <note len="24" pos="912" pan="0" vol="193" key="42"/>
          <note len="24" pos="936" pan="0" vol="193" key="44"/>
          <note len="24" pos="960" pan="0" vol="193" key="37"/>
          <note len="24" pos="960" pan="0" vol="193" key="0"/>
          <note len="12" pos="984" pan="0" vol="193" key="37"/>
          <note len="24" pos="984" pan="0" vol="193" key="1"/>
          <note len="12" pos="996" pan="0" vol="193" key="37"/>
          <note len="12" pos="1008" pan="0" vol="193" key="37"/>
          <note len="12" pos="1020" pan="0" vol="193" key="37"/>
          <note len="24" pos="1032" pan="0" vol="193" key="37"/>
          <note len="24" pos="1032" pan="0" vol="193" key="0"/>
          <note len="12" pos="1056" pan="0" vol="193" key="37"/>
          <note len="24" pos="1056" pan="0" vol="193" key="1"/>
          <note len="12" pos="1068" pan="0" vol="193" key="37"/>
          <note len="12" pos="1080" pan="0" vol="193" key="41"/>
          <note len="12" pos="1092" pan="0" vol="193" key="41"/>
          <note len="12" pos="1104" pan="0" vol="193" key="42"/>
          <note len="12" pos="1116" pan="0" vol="193" key="42"/>
          <note len="12" pos="1128" pan="0" vol="193" key="44"/>
          <note len="12" pos="1140" pan="0" vol="193" key="44"/>
          <note len="24" pos="1152" pan="0" vol="193" key="42"/>
          <note len="24" pos="1152" pan="0" vol="193" key="0"/>
          <note len="12" pos="1176" pan="0" vol="193" key="42"/>
          <note len="24" pos="1176" pan="0" vol="193" key="1"/>
          <note len="12" pos="1188" pan="0" vol="193" key="42"/>
          <note len="12" pos="1200" pan="0" vol="193" key="42"/>
          <note len="12" pos="1212" pan="0" vol="193" key="42"/>
          <note len="12" pos="1224" pan="0" vol="193" key="42"/>
          <note len="12" pos="1236" pan="0" vol="193" key="42"/>
          <note len="24" pos="1248" pan="0" vol="193" key="42"/>
          <note len="24" pos="1248" pan="0" vol="193" key="0"/>
          <note len="24" pos="1272" pan="0" vol="193" key="42"/>
          <note len="12" pos="1296" pan="0" vol="193" key="42"/>
          <note len="24" pos="1296" pan="0" vol="193" key="1"/>
          <note len="12" pos="1308" pan="0" vol="193" key="42"/>
          <note len="12" pos="1320" pan="0" vol="193" key="42"/>
          <note len="12" pos="1332" pan="0" vol="193" key="42"/>
          <note len="24" pos="1344" pan="0" vol="193" key="42"/>
          <note len="24" pos="1344" pan="0" vol="193" key="0"/>
          <note len="12" pos="1368" pan="0" vol="193" key="42"/>
          <note len="24" pos="1368" pan="0" vol="193" key="1"/>
          <note len="12" pos="1380" pan="0" vol="193" key="42"/>
          <note len="24" pos="1392" pan="0" vol="193" key="42"/>
          <note len="24" pos="1392" pan="0" vol="193" key="0"/>
          <note len="12" pos="1416" pan="0" vol="193" key="42"/>
          <note len="24" pos="1416" pan="0" vol="193" key="1"/>
          <note len="12" pos="1428" pan="0" vol="193" key="42"/>
          <note len="24" pos="1440" pan="0" vol="193" key="42"/>
          <note len="24" pos="1440" pan="0" vol="193" key="0"/>
          <note len="24" pos="1464" pan="0" vol="193" key="42"/>
          <note len="12" pos="1488" pan="0" vol="193" key="42"/>
          <note len="24" pos="1488" pan="0" vol="193" key="1"/>
          <note len="12" pos="1500" pan="0" vol="193" key="42"/>
          <note len="12" pos="1512" pan="0" vol="193" key="42"/>
          <note len="12" pos="1524" pan="0" vol="193" key="42"/>
        </pattern>
        <pattern pos="10752" muted="0" steps="16" type="1" name="rgt1">
          <note len="192" pos="0" pan="0" vol="193" key="49"/>
          <note len="192" pos="0" pan="0" vol="193" key="42"/>
          <note len="24" pos="0" pan="0" vol="193" key="0"/>
          <note len="192" pos="192" pan="0" vol="193" key="49"/>
          <note len="192" pos="192" pan="0" vol="193" key="42"/>
          <note len="24" pos="372" pan="0" vol="193" key="0"/>
          <note len="48" pos="384" pan="0" vol="193" key="35"/>
          <note len="24" pos="408" pan="0" vol="193" key="1"/>
          <note len="12" pos="432" pan="0" vol="193" key="35"/>
          <note len="12" pos="444" pan="0" vol="193" key="35"/>
          <note len="12" pos="456" pan="0" vol="193" key="35"/>
          <note len="12" pos="468" pan="0" vol="193" key="35"/>
          <note len="12" pos="480" pan="0" vol="193" key="35"/>
          <note len="12" pos="492" pan="0" vol="193" key="35"/>
          <note len="12" pos="504" pan="0" vol="193" key="35"/>
          <note len="12" pos="516" pan="0" vol="193" key="35"/>
          <note len="12" pos="528" pan="0" vol="193" key="35"/>
          <note len="12" pos="540" pan="0" vol="193" key="35"/>
          <note len="12" pos="552" pan="0" vol="193" key="35"/>
          <note len="12" pos="564" pan="0" vol="193" key="35"/>
          <note len="24" pos="576" pan="0" vol="193" key="35"/>
          <note len="24" pos="576" pan="0" vol="193" key="0"/>
          <note len="24" pos="588" pan="0" vol="193" key="1"/>
          <note len="12" pos="600" pan="0" vol="193" key="35"/>
          <note len="12" pos="612" pan="0" vol="193" key="35"/>
          <note len="12" pos="624" pan="0" vol="193" key="35"/>
          <note len="12" pos="636" pan="0" vol="193" key="35"/>
          <note len="24" pos="648" pan="0" vol="193" key="35"/>
          <note len="24" pos="648" pan="0" vol="193" key="0"/>
          <note len="24" pos="660" pan="0" vol="193" key="1"/>
          <note len="12" pos="672" pan="0" vol="193" key="35"/>
          <note len="12" pos="684" pan="0" vol="193" key="35"/>
          <note len="12" pos="696" pan="0" vol="193" key="35"/>
          <note len="12" pos="708" pan="0" vol="193" key="35"/>
          <note len="12" pos="720" pan="0" vol="193" key="35"/>
          <note len="12" pos="732" pan="0" vol="193" key="34"/>
          <note len="12" pos="744" pan="0" vol="193" key="35"/>
          <note len="12" pos="756" pan="0" vol="193" key="37"/>
        </pattern>
        <pattern pos="12288" muted="0" steps="16" type="1" name="rgt1">
          <note len="12" pos="0" pan="0" vol="193" key="42"/>
          <note len="12" pos="0" pan="0" vol="193" key="1"/>
          <note len="12" pos="12" pan="0" vol="193" key="42"/>
          <note len="12" pos="24" pan="0" vol="193" key="42"/>
          <note len="12" pos="36" pan="0" vol="193" key="42"/>
          <note len="12" pos="48" pan="0" vol="193" key="42"/>
          <note len="12" pos="60" pan="0" vol="193" key="42"/>
          <note len="12" pos="72" pan="0" vol="193" key="42"/>
          <note len="12" pos="84" pan="0" vol="193" key="42"/>
          <note len="12" pos="96" pan="0" vol="193" key="42"/>
          <note len="12" pos="108" pan="0" vol="193" key="42"/>
          <note len="12" pos="120" pan="0" vol="193" key="42"/>
          <note len="12" pos="132" pan="0" vol="193" key="42"/>
          <note len="12" pos="144" pan="0" vol="193" key="42"/>
          <note len="12" pos="156" pan="0" vol="193" key="42"/>
          <note len="12" pos="168" pan="0" vol="193" key="42"/>
          <note len="12" pos="180" pan="0" vol="193" key="42"/>
          <note len="12" pos="192" pan="0" vol="193" key="42"/>
          <note len="12" pos="204" pan="0" vol="193" key="42"/>
          <note len="12" pos="216" pan="0" vol="193" key="42"/>
          <note len="12" pos="228" pan="0" vol="193" key="42"/>
          <note len="12" pos="240" pan="0" vol="193" key="42"/>
          <note len="12" pos="252" pan="0" vol="193" key="42"/>
          <note len="12" pos="264" pan="0" vol="193" key="42"/>
          <note len="12" pos="276" pan="0" vol="193" key="42"/>
          <note len="12" pos="288" pan="0" vol="193" key="42"/>
          <note len="12" pos="300" pan="0" vol="193" key="42"/>
          <note len="12" pos="312" pan="0" vol="193" key="42"/>
          <note len="12" pos="324" pan="0" vol="193" key="42"/>
          <note len="12" pos="336" pan="0" vol="193" key="42"/>
          <note len="12" pos="348" pan="0" vol="193" key="42"/>
          <note len="12" pos="360" pan="0" vol="193" key="42"/>
          <note len="12" pos="372" pan="0" vol="193" key="42"/>
          <note len="12" pos="384" pan="0" vol="193" key="37"/>
          <note len="12" pos="396" pan="0" vol="193" key="37"/>
          <note len="12" pos="408" pan="0" vol="193" key="37"/>
          <note len="12" pos="420" pan="0" vol="193" key="37"/>
          <note len="12" pos="432" pan="0" vol="193" key="37"/>
          <note len="12" pos="444" pan="0" vol="193" key="37"/>
          <note len="12" pos="456" pan="0" vol="193" key="37"/>
          <note len="12" pos="468" pan="0" vol="193" key="37"/>
          <note len="12" pos="480" pan="0" vol="193" key="37"/>
          <note len="12" pos="492" pan="0" vol="193" key="37"/>
          <note len="12" pos="504" pan="0" vol="193" key="37"/>
          <note len="12" pos="516" pan="0" vol="193" key="37"/>
          <note len="12" pos="528" pan="0" vol="193" key="37"/>
          <note len="12" pos="540" pan="0" vol="193" key="37"/>
          <note len="12" pos="552" pan="0" vol="193" key="37"/>
          <note len="12" pos="564" pan="0" vol="193" key="37"/>
          <note len="12" pos="576" pan="0" vol="193" key="37"/>
          <note len="12" pos="588" pan="0" vol="193" key="37"/>
          <note len="12" pos="600" pan="0" vol="193" key="37"/>
          <note len="12" pos="612" pan="0" vol="193" key="37"/>
          <note len="12" pos="624" pan="0" vol="193" key="37"/>
          <note len="12" pos="636" pan="0" vol="193" key="37"/>
          <note len="12" pos="648" pan="0" vol="193" key="37"/>
          <note len="12" pos="660" pan="0" vol="193" key="37"/>
          <note len="12" pos="672" pan="0" vol="193" key="37"/>
          <note len="12" pos="684" pan="0" vol="193" key="37"/>
          <note len="12" pos="696" pan="0" vol="193" key="37"/>
          <note len="12" pos="708" pan="0" vol="193" key="37"/>
          <note len="12" pos="720" pan="0" vol="193" key="37"/>
          <note len="12" pos="732" pan="0" vol="193" key="37"/>
          <note len="12" pos="744" pan="0" vol="193" key="37"/>
          <note len="12" pos="756" pan="0" vol="193" key="37"/>
        </pattern>
        <pattern pos="13056" muted="0" steps="16" type="1" name="rgt1">
          <note len="12" pos="0" pan="0" vol="193" key="42"/>
          <note len="12" pos="0" pan="0" vol="193" key="1"/>
          <note len="12" pos="12" pan="0" vol="193" key="42"/>
          <note len="12" pos="24" pan="0" vol="193" key="42"/>
          <note len="12" pos="36" pan="0" vol="193" key="42"/>
          <note len="12" pos="48" pan="0" vol="193" key="42"/>
          <note len="12" pos="60" pan="0" vol="193" key="42"/>
          <note len="12" pos="72" pan="0" vol="193" key="42"/>
          <note len="12" pos="84" pan="0" vol="193" key="42"/>
          <note len="12" pos="96" pan="0" vol="193" key="42"/>
          <note len="12" pos="108" pan="0" vol="193" key="42"/>
          <note len="12" pos="120" pan="0" vol="193" key="42"/>
          <note len="12" pos="132" pan="0" vol="193" key="42"/>
          <note len="12" pos="144" pan="0" vol="193" key="42"/>
          <note len="12" pos="156" pan="0" vol="193" key="42"/>
          <note len="12" pos="168" pan="0" vol="193" key="42"/>
          <note len="12" pos="180" pan="0" vol="193" key="42"/>
          <note len="12" pos="192" pan="0" vol="193" key="42"/>
          <note len="12" pos="204" pan="0" vol="193" key="42"/>
          <note len="12" pos="216" pan="0" vol="193" key="42"/>
          <note len="12" pos="228" pan="0" vol="193" key="42"/>
          <note len="12" pos="240" pan="0" vol="193" key="42"/>
          <note len="12" pos="252" pan="0" vol="193" key="42"/>
          <note len="12" pos="264" pan="0" vol="193" key="42"/>
          <note len="12" pos="276" pan="0" vol="193" key="42"/>
          <note len="12" pos="288" pan="0" vol="193" key="42"/>
          <note len="12" pos="300" pan="0" vol="193" key="42"/>
          <note len="12" pos="312" pan="0" vol="193" key="42"/>
          <note len="12" pos="324" pan="0" vol="193" key="42"/>
          <note len="12" pos="336" pan="0" vol="193" key="42"/>
          <note len="12" pos="348" pan="0" vol="193" key="42"/>
          <note len="12" pos="360" pan="0" vol="193" key="42"/>
          <note len="12" pos="372" pan="0" vol="193" key="42"/>
          <note len="12" pos="384" pan="0" vol="193" key="37"/>
          <note len="12" pos="396" pan="0" vol="193" key="37"/>
          <note len="12" pos="408" pan="0" vol="193" key="37"/>
          <note len="12" pos="420" pan="0" vol="193" key="37"/>
          <note len="12" pos="432" pan="0" vol="193" key="37"/>
          <note len="12" pos="444" pan="0" vol="193" key="37"/>
          <note len="12" pos="456" pan="0" vol="193" key="37"/>
          <note len="12" pos="468" pan="0" vol="193" key="37"/>
          <note len="12" pos="480" pan="0" vol="193" key="37"/>
          <note len="12" pos="492" pan="0" vol="193" key="37"/>
          <note len="12" pos="504" pan="0" vol="193" key="37"/>
          <note len="12" pos="516" pan="0" vol="193" key="37"/>
          <note len="12" pos="528" pan="0" vol="193" key="37"/>
          <note len="12" pos="540" pan="0" vol="193" key="37"/>
          <note len="12" pos="552" pan="0" vol="193" key="37"/>
          <note len="12" pos="564" pan="0" vol="193" key="37"/>
          <note len="12" pos="576" pan="0" vol="193" key="37"/>
          <note len="12" pos="588" pan="0" vol="193" key="37"/>
          <note len="12" pos="600" pan="0" vol="193" key="37"/>
          <note len="12" pos="612" pan="0" vol="193" key="37"/>
          <note len="12" pos="624" pan="0" vol="193" key="37"/>
          <note len="12" pos="636" pan="0" vol="193" key="37"/>
          <note len="12" pos="648" pan="0" vol="193" key="37"/>
          <note len="12" pos="660" pan="0" vol="193" key="37"/>
          <note len="12" pos="672" pan="0" vol="193" key="37"/>
          <note len="12" pos="684" pan="0" vol="193" key="37"/>
          <note len="12" pos="696" pan="0" vol="193" key="37"/>
          <note len="12" pos="708" pan="0" vol="193" key="37"/>
          <note len="12" pos="720" pan="0" vol="193" key="37"/>
          <note len="12" pos="732" pan="0" vol="193" key="37"/>
          <note len="12" pos="744" pan="0" vol="193" key="37"/>
          <note len="12" pos="756" pan="0" vol="193" key="37"/>
        </pattern>
        <pattern pos="16128" muted="0" steps="16" type="1" name="rgt1">
          <note len="12" pos="0" pan="0" vol="193" key="45"/>
          <note len="12" pos="0" pan="0" vol="193" key="1"/>
          <note len="12" pos="12" pan="0" vol="193" key="45"/>
          <note len="12" pos="24" pan="0" vol="193" key="45"/>
          <note len="12" pos="36" pan="0" vol="193" key="45"/>
          <note len="12" pos="48" pan="0" vol="193" key="45"/>
          <note len="12" pos="60" pan="0" vol="193" key="45"/>
          <note len="12" pos="72" pan="0" vol="193" key="45"/>
          <note len="12" pos="84" pan="0" vol="193" key="45"/>
          <note len="12" pos="96" pan="0" vol="193" key="45"/>
          <note len="12" pos="108" pan="0" vol="193" key="45"/>
          <note len="12" pos="120" pan="0" vol="193" key="45"/>
          <note len="12" pos="132" pan="0" vol="193" key="45"/>
          <note len="12" pos="144" pan="0" vol="193" key="45"/>
          <note len="12" pos="156" pan="0" vol="193" key="45"/>
          <note len="12" pos="168" pan="0" vol="193" key="45"/>
          <note len="12" pos="180" pan="0" vol="193" key="45"/>
          <note len="12" pos="192" pan="0" vol="193" key="38"/>
          <note len="12" pos="192" pan="0" vol="193" key="0"/>
          <note len="12" pos="204" pan="0" vol="193" key="37"/>
          <note len="12" pos="204" pan="0" vol="193" key="1"/>
          <note len="12" pos="216" pan="0" vol="193" key="37"/>
          <note len="12" pos="228" pan="0" vol="193" key="37"/>
          <note len="12" pos="240" pan="0" vol="193" key="37"/>
          <note len="12" pos="252" pan="0" vol="193" key="37"/>
          <note len="12" pos="264" pan="0" vol="193" key="38"/>
          <note len="12" pos="264" pan="0" vol="193" key="0"/>
          <note len="12" pos="276" pan="0" vol="193" key="37"/>
          <note len="12" pos="276" pan="0" vol="193" key="1"/>
          <note len="12" pos="288" pan="0" vol="193" key="37"/>
          <note len="12" pos="300" pan="0" vol="193" key="37"/>
          <note len="12" pos="312" pan="0" vol="193" key="37"/>
          <note len="12" pos="324" pan="0" vol="193" key="37"/>
          <note len="12" pos="336" pan="0" vol="193" key="38"/>
          <note len="12" pos="348" pan="0" vol="193" key="41"/>
          <note len="12" pos="360" pan="0" vol="193" key="42"/>
          <note len="12" pos="372" pan="0" vol="193" key="44"/>
          <note len="24" pos="384" pan="0" vol="193" key="42"/>
          <note len="12" pos="384" pan="0" vol="193" key="0"/>
          <note len="12" pos="396" pan="0" vol="193" key="1"/>
          <note len="12" pos="408" pan="0" vol="193" key="42"/>
          <note len="12" pos="420" pan="0" vol="193" key="42"/>
          <note len="12" pos="432" pan="0" vol="193" key="42"/>
          <note len="12" pos="444" pan="0" vol="193" key="42"/>
          <note len="12" pos="456" pan="0" vol="193" key="42"/>
          <note len="12" pos="468" pan="0" vol="193" key="42"/>
          <note len="24" pos="480" pan="0" vol="193" key="42"/>
          <note len="12" pos="480" pan="0" vol="193" key="0"/>
          <note len="12" pos="492" pan="0" vol="193" key="1"/>
          <note len="12" pos="504" pan="0" vol="193" key="42"/>
          <note len="12" pos="516" pan="0" vol="193" key="42"/>
          <note len="12" pos="528" pan="0" vol="193" key="42"/>
          <note len="12" pos="540" pan="0" vol="193" key="42"/>
          <note len="12" pos="552" pan="0" vol="193" key="42"/>
          <note len="12" pos="564" pan="0" vol="193" key="42"/>
          <note len="12" pos="576" pan="0" vol="193" key="42"/>
          <note len="12" pos="576" pan="0" vol="193" key="0"/>
          <note len="12" pos="588" pan="0" vol="193" key="42"/>
          <note len="12" pos="588" pan="0" vol="193" key="1"/>
          <note len="12" pos="600" pan="0" vol="193" key="42"/>
          <note len="12" pos="624" pan="0" vol="193" key="0"/>
          <note len="12" pos="636" pan="0" vol="193" key="1"/>
          <note len="12" pos="648" pan="0" vol="193" key="42"/>
          <note len="12" pos="660" pan="0" vol="193" key="42"/>
          <note len="12" pos="672" pan="0" vol="193" key="42"/>
          <note len="12" pos="672" pan="0" vol="193" key="0"/>
          <note len="12" pos="684" pan="0" vol="193" key="1"/>
        </pattern>
        <pattern pos="18432" muted="0" steps="16" type="1" name="rgt1">
          <note len="12" pos="0" pan="0" vol="193" key="47"/>
          <note len="12" pos="0" pan="0" vol="193" key="1"/>
          <note len="12" pos="12" pan="0" vol="193" key="47"/>
          <note len="12" pos="24" pan="0" vol="193" key="50"/>
          <note len="12" pos="36" pan="0" vol="193" key="50"/>
          <note len="12" pos="48" pan="0" vol="193" key="49"/>
          <note len="12" pos="60" pan="0" vol="193" key="49"/>
          <note len="12" pos="72" pan="0" vol="193" key="50"/>
          <note len="12" pos="84" pan="0" vol="193" key="50"/>
          <note len="12" pos="96" pan="0" vol="193" key="47"/>
          <note len="12" pos="108" pan="0" vol="193" key="47"/>
          <note len="12" pos="120" pan="0" vol="193" key="50"/>
          <note len="12" pos="132" pan="0" vol="193" key="50"/>
          <note len="12" pos="144" pan="0" vol="193" key="49"/>
          <note len="12" pos="156" pan="0" vol="193" key="49"/>
          <note len="12" pos="168" pan="0" vol="193" key="50"/>
          <note len="12" pos="180" pan="0" vol="193" key="50"/>
          <note len="12" pos="192" pan="0" vol="193" key="40"/>
          <note len="12" pos="204" pan="0" vol="193" key="40"/>
          <note len="12" pos="216" pan="0" vol="193" key="44"/>
          <note len="12" pos="228" pan="0" vol="193" key="44"/>
          <note len="12" pos="240" pan="0" vol="193" key="42"/>
          <note len="12" pos="252" pan="0" vol="193" key="42"/>
          <note len="12" pos="264" pan="0" vol="193" key="44"/>
          <note len="12" pos="276" pan="0" vol="193" key="44"/>
          <note len="12" pos="288" pan="0" vol="193" key="40"/>
          <note len="12" pos="300" pan="0" vol="193" key="40"/>
          <note len="12" pos="312" pan="0" vol="193" key="44"/>
          <note len="12" pos="324" pan="0" vol="193" key="44"/>
          <note len="12" pos="336" pan="0" vol="193" key="42"/>
          <note len="12" pos="348" pan="0" vol="193" key="42"/>
          <note len="12" pos="360" pan="0" vol="193" key="44"/>
          <note len="12" pos="372" pan="0" vol="193" key="44"/>
          <note len="12" pos="384" pan="0" vol="193" key="45"/>
          <note len="12" pos="396" pan="0" vol="193" key="45"/>
          <note len="12" pos="408" pan="0" vol="193" key="49"/>
          <note len="12" pos="420" pan="0" vol="193" key="49"/>
          <note len="12" pos="432" pan="0" vol="193" key="47"/>
          <note len="12" pos="444" pan="0" vol="193" key="47"/>
          <note len="12" pos="456" pan="0" vol="193" key="49"/>
          <note len="12" pos="468" pan="0" vol="193" key="49"/>
          <note len="12" pos="480" pan="0" vol="193" key="45"/>
          <note len="12" pos="492" pan="0" vol="193" key="45"/>
          <note len="12" pos="504" pan="0" vol="193" key="49"/>
          <note len="12" pos="516" pan="0" vol="193" key="49"/>
          <note len="12" pos="528" pan="0" vol="193" key="47"/>
          <note len="12" pos="540" pan="0" vol="193" key="47"/>
          <note len="12" pos="552" pan="0" vol="193" key="49"/>
          <note len="12" pos="564" pan="0" vol="193" key="49"/>
          <note len="12" pos="576" pan="0" vol="193" key="38"/>
          <note len="12" pos="588" pan="0" vol="193" key="38"/>
          <note len="12" pos="600" pan="0" vol="193" key="42"/>
          <note len="12" pos="612" pan="0" vol="193" key="42"/>
          <note len="12" pos="624" pan="0" vol="193" key="40"/>
          <note len="12" pos="636" pan="0" vol="193" key="40"/>
          <note len="12" pos="648" pan="0" vol="193" key="42"/>
          <note len="12" pos="660" pan="0" vol="193" key="42"/>
          <note len="12" pos="672" pan="0" vol="193" key="38"/>
          <note len="12" pos="684" pan="0" vol="193" key="38"/>
          <note len="12" pos="696" pan="0" vol="193" key="42"/>
          <note len="12" pos="708" pan="0" vol="193" key="42"/>
          <note len="12" pos="720" pan="0" vol="193" key="40"/>
          <note len="12" pos="732" pan="0" vol="193" key="40"/>
          <note len="12" pos="744" pan="0" vol="193" key="42"/>
          <note len="12" pos="756" pan="0" vol="193" key="42"/>
          <note len="12" pos="768" pan="0" vol="193" key="38"/>
          <note len="12" pos="768" pan="0" vol="193" key="0"/>
          <note len="12" pos="780" pan="0" vol="193" key="37"/>
          <note len="12" pos="780" pan="0" vol="193" key="1"/>
          <note len="12" pos="792" pan="0" vol="193" key="35"/>
          <note len="12" pos="804" pan="0" vol="193" key="35"/>
          <note len="12" pos="816" pan="0" vol="193" key="35"/>
          <note len="12" pos="828" pan="0" vol="193" key="35"/>
          <note len="12" pos="840" pan="0" vol="193" key="38"/>
          <note len="12" pos="840" pan="0" vol="193" key="0"/>
          <note len="12" pos="852" pan="0" vol="193" key="37"/>
          <note len="12" pos="852" pan="0" vol="193" key="1"/>
          <note len="12" pos="864" pan="0" vol="193" key="35"/>
          <note len="12" pos="876" pan="0" vol="193" key="35"/>
          <note len="12" pos="888" pan="0" vol="193" key="35"/>
          <note len="12" pos="900" pan="0" vol="193" key="35"/>
          <note len="12" pos="912" pan="0" vol="193" key="38"/>
          <note len="12" pos="912" pan="0" vol="193" key="0"/>
          <note len="12" pos="924" pan="0" vol="193" key="37"/>
          <note len="12" pos="924" pan="0" vol="193" key="1"/>
          <note len="12" pos="936" pan="0" vol="193" key="35"/>
          <note len="12" pos="948" pan="0" vol="193" key="35"/>
          <note len="12" pos="960" pan="0" vol="193" key="44"/>
          <note len="12" pos="972" pan="0" vol="193" key="44"/>
          <note len="12" pos="984" pan="0" vol="193" key="44"/>
          <note len="12" pos="996" pan="0" vol="193" key="44"/>
          <note len="12" pos="1008" pan="0" vol="193" key="48"/>
          <note len="12" pos="1020" pan="0" vol="193" key="48"/>
          <note len="12" pos="1032" pan="0" vol="193" key="48"/>
          <note len="12" pos="1044" pan="0" vol="193" key="48"/>
          <note len="12" pos="1056" pan="0" vol="193" key="49"/>
          <note len="12" pos="1068" pan="0" vol="193" key="49"/>
          <note len="12" pos="1080" pan="0" vol="193" key="49"/>
          <note len="12" pos="1092" pan="0" vol="193" key="49"/>
          <note len="12" pos="1104" pan="0" vol="193" key="51"/>
          <note len="12" pos="1116" pan="0" vol="193" key="51"/>
          <note len="12" pos="1128" pan="0" vol="193" key="51"/>
          <note len="12" pos="1140" pan="0" vol="193" key="51"/>
          <note len="24" pos="1152" pan="0" vol="193" key="49"/>
          <note len="12" pos="1152" pan="0" vol="193" key="0"/>
          <note len="12" pos="1164" pan="0" vol="193" key="1"/>
          <note len="12" pos="1176" pan="0" vol="193" key="37"/>
          <note len="12" pos="1188" pan="0" vol="193" key="37"/>
          <note len="12" pos="1200" pan="0" vol="193" key="37"/>
          <note len="12" pos="1212" pan="0" vol="193" key="37"/>
          <note len="12" pos="1224" pan="0" vol="193" key="37"/>
          <note len="12" pos="1236" pan="0" vol="193" key="37"/>
          <note len="12" pos="1248" pan="0" vol="193" key="37"/>
          <note len="12" pos="1260" pan="0" vol="193" key="37"/>
          <note len="24" pos="1272" pan="0" vol="193" key="49"/>
          <note len="12" pos="1272" pan="0" vol="193" key="0"/>
          <note len="12" pos="1284" pan="0" vol="193" key="1"/>
          <note len="12" pos="1296" pan="0" vol="193" key="37"/>
          <note len="12" pos="1308" pan="0" vol="193" key="37"/>
          <note len="12" pos="1320" pan="0" vol="193" key="37"/>
          <note len="12" pos="1332" pan="0" vol="193" key="37"/>
          <note len="24" pos="1344" pan="0" vol="193" key="49"/>
          <note len="12" pos="1344" pan="0" vol="193" key="0"/>
          <note len="12" pos="1356" pan="0" vol="193" key="1"/>
          <note len="12" pos="1368" pan="0" vol="193" key="37"/>
          <note len="12" pos="1380" pan="0" vol="193" key="37"/>
          <note len="12" pos="1392" pan="0" vol="193" key="37"/>
          <note len="12" pos="1404" pan="0" vol="193" key="37"/>
          <note len="12" pos="1416" pan="0" vol="193" key="37"/>
          <note len="12" pos="1428" pan="0" vol="193" key="37"/>
          <note len="12" pos="1440" pan="0" vol="193" key="37"/>
          <note len="12" pos="1452" pan="0" vol="193" key="37"/>
          <note len="24" pos="1464" pan="0" vol="193" key="49"/>
          <note len="12" pos="1464" pan="0" vol="193" key="0"/>
          <note len="12" pos="1476" pan="0" vol="193" key="1"/>
          <note len="12" pos="1488" pan="0" vol="193" key="37"/>
          <note len="12" pos="1500" pan="0" vol="193" key="37"/>
          <note len="12" pos="1512" pan="0" vol="193" key="37"/>
          <note len="12" pos="1524" pan="0" vol="193" key="37"/>
        </pattern>
        <pattern pos="19968" muted="0" steps="16" type="1" name="rgt1">
          <note len="12" pos="0" pan="0" vol="193" key="38"/>
          <note len="12" pos="0" pan="0" vol="193" key="0"/>
          <note len="12" pos="12" pan="0" vol="193" key="37"/>
          <note len="12" pos="24" pan="0" vol="193" key="37"/>
          <note len="12" pos="24" pan="0" vol="193" key="1"/>
          <note len="12" pos="36" pan="0" vol="193" key="37"/>
          <note len="12" pos="48" pan="0" vol="193" key="37"/>
          <note len="12" pos="60" pan="0" vol="193" key="37"/>
          <note len="12" pos="72" pan="0" vol="193" key="37"/>
          <note len="12" pos="84" pan="0" vol="193" key="37"/>
          <note len="12" pos="96" pan="0" vol="193" key="47"/>
          <note len="12" pos="96" pan="0" vol="193" key="0"/>
          <note len="12" pos="108" pan="0" vol="193" key="49"/>
          <note len="12" pos="120" pan="0" vol="193" key="37"/>
          <note len="12" pos="120" pan="0" vol="193" key="1"/>
          <note len="12" pos="132" pan="0" vol="193" key="37"/>
          <note len="12" pos="144" pan="0" vol="193" key="37"/>
          <note len="12" pos="156" pan="0" vol="193" key="37"/>
          <note len="12" pos="168" pan="0" vol="193" key="37"/>
          <note len="12" pos="180" pan="0" vol="193" key="37"/>
          <note len="12" pos="192" pan="0" vol="193" key="38"/>
          <note len="12" pos="192" pan="0" vol="193" key="0"/>
          <note len="12" pos="204" pan="0" vol="193" key="37"/>
          <note len="12" pos="216" pan="0" vol="193" key="37"/>
          <note len="12" pos="216" pan="0" vol="193" key="1"/>
          <note len="12" pos="228" pan="0" vol="193" key="37"/>
          <note len="12" pos="240" pan="0" vol="193" key="37"/>
          <note len="12" pos="252" pan="0" vol="193" key="37"/>
          <note len="12" pos="264" pan="0" vol="193" key="37"/>
          <note len="12" pos="276" pan="0" vol="193" key="37"/>
          <note len="12" pos="288" pan="0" vol="193" key="47"/>
          <note len="12" pos="288" pan="0" vol="193" key="0"/>
          <note len="12" pos="300" pan="0" vol="193" key="49"/>
          <note len="12" pos="312" pan="0" vol="193" key="37"/>
          <note len="12" pos="312" pan="0" vol="193" key="1"/>
          <note len="12" pos="324" pan="0" vol="193" key="37"/>
          <note len="12" pos="336" pan="0" vol="193" key="37"/>
          <note len="12" pos="348" pan="0" vol="193" key="37"/>
          <note len="12" pos="360" pan="0" vol="193" key="37"/>
          <note len="12" pos="372" pan="0" vol="193" key="37"/>
        </pattern>
        <pattern pos="20352" muted="0" steps="16" type="1" name="rgt1">
          <note len="12" pos="0" pan="0" vol="193" key="53"/>
          <note len="24" pos="0" pan="0" vol="193" key="1"/>
          <note len="12" pos="12" pan="0" vol="193" key="50"/>
          <note len="12" pos="24" pan="0" vol="193" key="49"/>
          <note len="12" pos="36" pan="0" vol="193" key="47"/>
          <note len="12" pos="48" pan="0" vol="193" key="50"/>
          <note len="12" pos="60" pan="0" vol="193" key="49"/>
          <note len="12" pos="72" pan="0" vol="193" key="47"/>
          <note len="12" pos="84" pan="0" vol="193" key="45"/>
          <note len="12" pos="96" pan="0" vol="193" key="49"/>
          <note len="12" pos="108" pan="0" vol="193" key="47"/>
          <note len="12" pos="120" pan="0" vol="193" key="45"/>
          <note len="12" pos="132" pan="0" vol="193" key="44"/>
          <note len="12" pos="144" pan="0" vol="193" key="47"/>
          <note len="12" pos="156" pan="0" vol="193" key="45"/>
          <note len="12" pos="168" pan="0" vol="193" key="44"/>
          <note len="12" pos="180" pan="0" vol="193" key="42"/>
          <note len="12" pos="192" pan="0" vol="193" key="45"/>
          <note len="12" pos="204" pan="0" vol="193" key="44"/>
          <note len="12" pos="216" pan="0" vol="193" key="42"/>
          <note len="12" pos="228" pan="0" vol="193" key="41"/>
          <note len="12" pos="240" pan="0" vol="193" key="44"/>
          <note len="12" pos="252" pan="0" vol="193" key="42"/>
          <note len="12" pos="264" pan="0" vol="193" key="41"/>
          <note len="12" pos="276" pan="0" vol="193" key="38"/>
          <note len="24" pos="288" pan="0" vol="193" key="37"/>
          <note len="24" pos="288" pan="0" vol="193" key="0"/>
          <note len="12" pos="312" pan="0" vol="193" key="37"/>
          <note len="12" pos="312" pan="0" vol="193" key="1"/>
          <note len="12" pos="324" pan="0" vol="193" key="37"/>
          <note len="12" pos="336" pan="0" vol="193" key="37"/>
          <note len="12" pos="348" pan="0" vol="193" key="37"/>
          <note len="12" pos="360" pan="0" vol="193" key="37"/>
          <note len="12" pos="372" pan="0" vol="193" key="37"/>
        </pattern>
        <pattern pos="13824" muted="0" steps="16" type="1" name="rgt1">
          <note len="192" pos="0" pan="0" vol="193" key="49"/>
          <note len="192" pos="0" pan="0" vol="193" key="42"/>
          <note len="24" pos="0" pan="0" vol="193" key="0"/>
          <note len="192" pos="192" pan="0" vol="193" key="49"/>
          <note len="192" pos="192" pan="0" vol="193" key="42"/>
          <note len="24" pos="372" pan="0" vol="193" key="0"/>
          <note len="48" pos="384" pan="0" vol="193" key="45"/>
          <note len="48" pos="384" pan="0" vol="193" key="38"/>
          <note len="24" pos="408" pan="0" vol="193" key="1"/>
          <note len="12" pos="432" pan="0" vol="193" key="38"/>
          <note len="12" pos="444" pan="0" vol="193" key="38"/>
          <note len="12" pos="456" pan="0" vol="193" key="38"/>
          <note len="12" pos="468" pan="0" vol="193" key="38"/>
          <note len="12" pos="480" pan="0" vol="193" key="38"/>
          <note len="12" pos="492" pan="0" vol="193" key="38"/>
          <note len="12" pos="504" pan="0" vol="193" key="38"/>
          <note len="12" pos="516" pan="0" vol="193" key="38"/>
          <note len="12" pos="528" pan="0" vol="193" key="38"/>
          <note len="12" pos="540" pan="0" vol="193" key="38"/>
          <note len="12" pos="552" pan="0" vol="193" key="38"/>
          <note len="12" pos="564" pan="0" vol="193" key="38"/>
          <note len="24" pos="576" pan="0" vol="193" key="38"/>
          <note len="24" pos="576" pan="0" vol="193" key="0"/>
          <note len="24" pos="588" pan="0" vol="193" key="1"/>
          <note len="12" pos="600" pan="0" vol="193" key="38"/>
          <note len="12" pos="612" pan="0" vol="193" key="38"/>
          <note len="12" pos="624" pan="0" vol="193" key="38"/>
          <note len="12" pos="636" pan="0" vol="193" key="38"/>
          <note len="24" pos="648" pan="0" vol="193" key="38"/>
          <note len="24" pos="648" pan="0" vol="193" key="0"/>
          <note len="24" pos="660" pan="0" vol="193" key="1"/>
          <note len="12" pos="672" pan="0" vol="193" key="38"/>
          <note len="12" pos="684" pan="0" vol="193" key="38"/>
          <note len="12" pos="696" pan="0" vol="193" key="38"/>
          <note len="12" pos="708" pan="0" vol="193" key="38"/>
          <note len="12" pos="720" pan="0" vol="193" key="38"/>
          <note len="12" pos="732" pan="0" vol="193" key="37"/>
          <note len="12" pos="744" pan="0" vol="193" key="38"/>
          <note len="12" pos="756" pan="0" vol="193" key="40"/>
        </pattern>
        <pattern pos="14592" muted="0" steps="16" type="1" name="rgt1">
          <note len="192" pos="0" pan="0" vol="193" key="49"/>
          <note len="192" pos="0" pan="0" vol="193" key="42"/>
          <note len="24" pos="0" pan="0" vol="193" key="0"/>
          <note len="192" pos="192" pan="0" vol="193" key="49"/>
          <note len="192" pos="192" pan="0" vol="193" key="42"/>
          <note len="24" pos="372" pan="0" vol="193" key="0"/>
          <note len="48" pos="384" pan="0" vol="193" key="52"/>
          <note len="48" pos="384" pan="0" vol="193" key="45"/>
          <note len="24" pos="408" pan="0" vol="193" key="1"/>
          <note len="12" pos="432" pan="0" vol="193" key="45"/>
          <note len="12" pos="444" pan="0" vol="193" key="45"/>
          <note len="12" pos="456" pan="0" vol="193" key="45"/>
          <note len="12" pos="468" pan="0" vol="193" key="45"/>
          <note len="12" pos="480" pan="0" vol="193" key="45"/>
          <note len="12" pos="492" pan="0" vol="193" key="45"/>
          <note len="12" pos="504" pan="0" vol="193" key="45"/>
          <note len="12" pos="516" pan="0" vol="193" key="45"/>
          <note len="12" pos="528" pan="0" vol="193" key="45"/>
          <note len="12" pos="540" pan="0" vol="193" key="45"/>
          <note len="12" pos="552" pan="0" vol="193" key="45"/>
          <note len="12" pos="564" pan="0" vol="193" key="45"/>
          <note len="24" pos="576" pan="0" vol="193" key="37"/>
          <note len="24" pos="576" pan="0" vol="193" key="0"/>
          <note len="24" pos="588" pan="0" vol="193" key="1"/>
          <note len="12" pos="600" pan="0" vol="193" key="37"/>
          <note len="12" pos="612" pan="0" vol="193" key="37"/>
          <note len="12" pos="624" pan="0" vol="193" key="37"/>
          <note len="12" pos="636" pan="0" vol="193" key="37"/>
          <note len="24" pos="648" pan="0" vol="193" key="37"/>
          <note len="24" pos="648" pan="0" vol="193" key="0"/>
          <note len="24" pos="660" pan="0" vol="193" key="1"/>
          <note len="12" pos="672" pan="0" vol="193" key="37"/>
          <note len="12" pos="684" pan="0" vol="193" key="37"/>
          <note len="12" pos="696" pan="0" vol="193" key="37"/>
          <note len="12" pos="708" pan="0" vol="193" key="37"/>
          <note len="12" pos="720" pan="0" vol="193" key="37"/>
          <note len="12" pos="732" pan="0" vol="193" key="37"/>
          <note len="12" pos="744" pan="0" vol="193" key="37"/>
          <note len="12" pos="756" pan="0" vol="193" key="37"/>
        </pattern>
        <pattern pos="15360" muted="0" steps="16" type="1" name="rgt1">
          <note len="192" pos="0" pan="0" vol="193" key="49"/>
          <note len="192" pos="0" pan="0" vol="193" key="42"/>
          <note len="24" pos="0" pan="0" vol="193" key="0"/>
          <note len="192" pos="192" pan="0" vol="193" key="49"/>
          <note len="192" pos="192" pan="0" vol="193" key="42"/>
          <note len="24" pos="372" pan="0" vol="193" key="0"/>
          <note len="48" pos="384" pan="0" vol="193" key="35"/>
          <note len="24" pos="408" pan="0" vol="193" key="1"/>
          <note len="12" pos="432" pan="0" vol="193" key="35"/>
          <note len="12" pos="444" pan="0" vol="193" key="35"/>
          <note len="12" pos="456" pan="0" vol="193" key="35"/>
          <note len="12" pos="468" pan="0" vol="193" key="35"/>
          <note len="12" pos="480" pan="0" vol="193" key="35"/>
          <note len="12" pos="492" pan="0" vol="193" key="35"/>
          <note len="12" pos="504" pan="0" vol="193" key="35"/>
          <note len="12" pos="516" pan="0" vol="193" key="35"/>
          <note len="12" pos="528" pan="0" vol="193" key="35"/>
          <note len="12" pos="540" pan="0" vol="193" key="35"/>
          <note len="12" pos="552" pan="0" vol="193" key="35"/>
          <note len="12" pos="564" pan="0" vol="193" key="35"/>
          <note len="24" pos="576" pan="0" vol="193" key="35"/>
          <note len="24" pos="576" pan="0" vol="193" key="0"/>
          <note len="24" pos="588" pan="0" vol="193" key="1"/>
          <note len="12" pos="600" pan="0" vol="193" key="35"/>
          <note len="12" pos="612" pan="0" vol="193" key="35"/>
          <note len="12" pos="624" pan="0" vol="193" key="35"/>
          <note len="12" pos="636" pan="0" vol="193" key="35"/>
          <note len="24" pos="648" pan="0" vol="193" key="35"/>
          <note len="24" pos="648" pan="0" vol="193" key="0"/>
          <note len="24" pos="660" pan="0" vol="193" key="1"/>
          <note len="12" pos="672" pan="0" vol="193" key="35"/>
          <note len="12" pos="684" pan="0" vol="193" key="35"/>
          <note len="12" pos="696" pan="0" vol="193" key="35"/>
          <note len="12" pos="708" pan="0" vol="193" key="35"/>
          <note len="12" pos="720" pan="0" vol="193" key="35"/>
          <note len="12" pos="732" pan="0" vol="193" key="34"/>
          <note len="12" pos="744" pan="0" vol="193" key="35"/>
          <note len="12" pos="756" pan="0" vol="193" key="37"/>
        </pattern>
        <pattern pos="20736" muted="0" steps="16" type="1" name="rgt1">
          <note len="192" pos="0" pan="0" vol="197" key="49"/>
          <note len="192" pos="0" pan="0" vol="197" key="42"/>
          <note len="12" pos="0" pan="0" vol="197" key="0"/>
          <note len="192" pos="192" pan="0" vol="197" key="49"/>
          <note len="192" pos="192" pan="0" vol="197" key="41"/>
          <note len="192" pos="384" pan="0" vol="197" key="47"/>
          <note len="192" pos="384" pan="0" vol="197" key="40"/>
          <note len="192" pos="576" pan="0" vol="197" key="47"/>
          <note len="192" pos="576" pan="0" vol="197" key="39"/>
          <note len="192" pos="768" pan="0" vol="197" key="45"/>
          <note len="192" pos="768" pan="0" vol="197" key="38"/>
          <note len="192" pos="960" pan="0" vol="197" key="45"/>
          <note len="192" pos="960" pan="0" vol="197" key="37"/>
          <note len="192" pos="1152" pan="0" vol="197" key="44"/>
          <note len="192" pos="1152" pan="0" vol="197" key="36"/>
          <note len="12" pos="1344" pan="0" vol="197" key="44"/>
          <note len="12" pos="1344" pan="0" vol="197" key="1"/>
          <note len="12" pos="1356" pan="0" vol="197" key="44"/>
          <note len="12" pos="1368" pan="0" vol="197" key="37"/>
          <note len="12" pos="1380" pan="0" vol="197" key="37"/>
          <note len="12" pos="1392" pan="0" vol="197" key="38"/>
          <note len="12" pos="1404" pan="0" vol="197" key="38"/>
          <note len="12" pos="1416" pan="0" vol="197" key="37"/>
          <note len="12" pos="1428" pan="0" vol="197" key="37"/>
          <note len="12" pos="1440" pan="0" vol="197" key="45"/>
          <note len="12" pos="1452" pan="0" vol="197" key="44"/>
          <note len="12" pos="1464" pan="0" vol="197" key="45"/>
          <note len="12" pos="1476" pan="0" vol="197" key="47"/>
          <note len="12" pos="1488" pan="0" vol="197" key="49"/>
          <note len="12" pos="1500" pan="0" vol="197" key="50"/>
          <note len="12" pos="1512" pan="0" vol="197" key="53"/>
          <note len="12" pos="1524" pan="0" vol="197" key="56"/>
        </pattern>
        <pattern pos="22272" muted="0" steps="16" type="1" name="rgt1">
          <note len="24" pos="0" pan="0" vol="197" key="49"/>
          <note len="24" pos="0" pan="0" vol="197" key="42"/>
          <note len="24" pos="0" pan="0" vol="197" key="0"/>
          <note len="12" pos="24" pan="0" vol="197" key="42"/>
          <note len="24" pos="24" pan="0" vol="197" key="1"/>
          <note len="12" pos="36" pan="0" vol="197" key="42"/>
          <note len="12" pos="48" pan="0" vol="197" key="42"/>
          <note len="12" pos="60" pan="0" vol="197" key="42"/>
          <note len="12" pos="72" pan="0" vol="197" key="42"/>
          <note len="12" pos="84" pan="0" vol="197" key="42"/>
          <note len="12" pos="96" pan="0" vol="197" key="42"/>
          <note len="12" pos="108" pan="0" vol="197" key="42"/>
          <note len="12" pos="120" pan="0" vol="197" key="42"/>
          <note len="12" pos="132" pan="0" vol="197" key="42"/>
          <note len="24" pos="144" pan="0" vol="197" key="49"/>
          <note len="24" pos="144" pan="0" vol="197" key="42"/>
          <note len="24" pos="144" pan="0" vol="197" key="0"/>
          <note len="12" pos="168" pan="0" vol="197" key="42"/>
          <note len="24" pos="168" pan="0" vol="197" key="1"/>
          <note len="12" pos="180" pan="0" vol="197" key="42"/>
          <note len="24" pos="192" pan="0" vol="197" key="48"/>
          <note len="24" pos="192" pan="0" vol="197" key="41"/>
          <note len="24" pos="192" pan="0" vol="197" key="0"/>
          <note len="12" pos="216" pan="0" vol="197" key="41"/>
          <note len="24" pos="216" pan="0" vol="197" key="1"/>
          <note len="12" pos="228" pan="0" vol="197" key="41"/>
          <note len="12" pos="240" pan="0" vol="197" key="41"/>
          <note len="12" pos="252" pan="0" vol="197" key="41"/>
          <note len="12" pos="264" pan="0" vol="197" key="41"/>
          <note len="12" pos="276" pan="0" vol="197" key="41"/>
          <note len="12" pos="288" pan="0" vol="197" key="41"/>
          <note len="12" pos="300" pan="0" vol="197" key="41"/>
          <note len="12" pos="312" pan="0" vol="197" key="41"/>
          <note len="12" pos="324" pan="0" vol="197" key="41"/>
          <note len="24" pos="336" pan="0" vol="197" key="48"/>
          <note len="24" pos="336" pan="0" vol="197" key="41"/>
          <note len="24" pos="336" pan="0" vol="197" key="0"/>
          <note len="12" pos="360" pan="0" vol="197" key="41"/>
          <note len="24" pos="360" pan="0" vol="197" key="1"/>
          <note len="12" pos="372" pan="0" vol="197" key="41"/>
          <note len="24" pos="384" pan="0" vol="197" key="47"/>
          <note len="24" pos="384" pan="0" vol="197" key="40"/>
          <note len="24" pos="384" pan="0" vol="197" key="0"/>
          <note len="12" pos="408" pan="0" vol="197" key="40"/>
          <note len="24" pos="408" pan="0" vol="197" key="1"/>
          <note len="12" pos="420" pan="0" vol="197" key="40"/>
          <note len="12" pos="432" pan="0" vol="197" key="40"/>
          <note len="12" pos="444" pan="0" vol="197" key="40"/>
          <note len="12" pos="456" pan="0" vol="197" key="40"/>
          <note len="12" pos="468" pan="0" vol="197" key="40"/>
          <note len="12" pos="480" pan="0" vol="197" key="40"/>
          <note len="12" pos="492" pan="0" vol="197" key="40"/>
          <note len="12" pos="504" pan="0" vol="197" key="40"/>
          <note len="12" pos="516" pan="0" vol="197" key="40"/>
          <note len="24" pos="528" pan="0" vol="197" key="47"/>
          <note len="24" pos="528" pan="0" vol="197" key="40"/>
          <note len="24" pos="528" pan="0" vol="197" key="0"/>
          <note len="12" pos="552" pan="0" vol="197" key="40"/>
          <note len="24" pos="552" pan="0" vol="197" key="1"/>
          <note len="12" pos="564" pan="0" vol="197" key="40"/>
          <note len="24" pos="576" pan="0" vol="197" key="47"/>
          <note len="24" pos="576" pan="0" vol="197" key="39"/>
          <note len="24" pos="576" pan="0" vol="197" key="0"/>
          <note len="12" pos="600" pan="0" vol="197" key="39"/>
          <note len="24" pos="600" pan="0" vol="197" key="1"/>
          <note len="12" pos="612" pan="0" vol="197" key="39"/>
          <note len="12" pos="624" pan="0" vol="197" key="39"/>
          <note len="12" pos="636" pan="0" vol="197" key="39"/>
          <note len="12" pos="648" pan="0" vol="197" key="39"/>
          <note len="12" pos="660" pan="0" vol="197" key="39"/>
          <note len="12" pos="672" pan="0" vol="197" key="39"/>
          <note len="12" pos="684" pan="0" vol="197" key="39"/>
          <note len="12" pos="696" pan="0" vol="197" key="39"/>
          <note len="12" pos="708" pan="0" vol="197" key="39"/>
          <note len="24" pos="720" pan="0" vol="197" key="47"/>
          <note len="24" pos="720" pan="0" vol="197" key="39"/>
          <note len="24" pos="720" pan="0" vol="197" key="0"/>
          <note len="12" pos="744" pan="0" vol="197" key="39"/>
          <note len="24" pos="744" pan="0" vol="197" key="1"/>
          <note len="12" pos="756" pan="0" vol="197" key="39"/>
          <note len="24" pos="768" pan="0" vol="197" key="45"/>
          <note len="24" pos="768" pan="0" vol="197" key="38"/>
          <note len="24" pos="768" pan="0" vol="197" key="0"/>
          <note len="12" pos="792" pan="0" vol="197" key="38"/>
          <note len="24" pos="792" pan="0" vol="197" key="1"/>
          <note len="12" pos="804" pan="0" vol="197" key="38"/>
          <note len="12" pos="816" pan="0" vol="197" key="38"/>
          <note len="12" pos="828" pan="0" vol="197" key="38"/>
          <note len="12" pos="840" pan="0" vol="197" key="38"/>
          <note len="12" pos="852" pan="0" vol="197" key="38"/>
          <note len="12" pos="864" pan="0" vol="197" key="38"/>
          <note len="12" pos="876" pan="0" vol="197" key="38"/>
          <note len="12" pos="888" pan="0" vol="197" key="38"/>
          <note len="12" pos="900" pan="0" vol="197" key="38"/>
          <note len="24" pos="912" pan="0" vol="197" key="45"/>
          <note len="24" pos="912" pan="0" vol="197" key="38"/>
          <note len="24" pos="912" pan="0" vol="197" key="0"/>
          <note len="12" pos="936" pan="0" vol="197" key="38"/>
          <note len="24" pos="936" pan="0" vol="197" key="1"/>
          <note len="12" pos="948" pan="0" vol="197" key="38"/>
          <note len="24" pos="960" pan="0" vol="197" key="45"/>
          <note len="24" pos="960" pan="0" vol="197" key="37"/>
          <note len="24" pos="960" pan="0" vol="197" key="0"/>
          <note len="12" pos="984" pan="0" vol="197" key="37"/>
          <note len="24" pos="984" pan="0" vol="197" key="1"/>
          <note len="12" pos="996" pan="0" vol="197" key="37"/>
          <note len="12" pos="1008" pan="0" vol="197" key="37"/>
          <note len="12" pos="1020" pan="0" vol="197" key="37"/>
          <note len="12" pos="1032" pan="0" vol="197" key="37"/>
          <note len="12" pos="1044" pan="0" vol="197" key="37"/>
          <note len="12" pos="1056" pan="0" vol="197" key="37"/>
          <note len="12" pos="1068" pan="0" vol="197" key="37"/>
          <note len="12" pos="1080" pan="0" vol="197" key="37"/>
          <note len="12" pos="1092" pan="0" vol="197" key="37"/>
          <note len="24" pos="1104" pan="0" vol="197" key="45"/>
          <note len="24" pos="1104" pan="0" vol="197" key="37"/>
          <note len="24" pos="1104" pan="0" vol="197" key="0"/>
          <note len="12" pos="1128" pan="0" vol="197" key="37"/>
          <note len="24" pos="1128" pan="0" vol="197" key="1"/>
          <note len="12" pos="1140" pan="0" vol="197" key="37"/>
          <note len="24" pos="1152" pan="0" vol="197" key="44"/>
          <note len="24" pos="1152" pan="0" vol="197" key="36"/>
          <note len="24" pos="1152" pan="0" vol="197" key="0"/>
          <note len="12" pos="1176" pan="0" vol="197" key="36"/>
          <note len="24" pos="1176" pan="0" vol="197" key="1"/>
          <note len="12" pos="1188" pan="0" vol="197" key="36"/>
          <note len="12" pos="1200" pan="0" vol="197" key="36"/>
          <note len="12" pos="1212" pan="0" vol="197" key="36"/>
          <note len="12" pos="1224" pan="0" vol="197" key="36"/>
          <note len="12" pos="1236" pan="0" vol="197" key="36"/>
          <note len="12" pos="1248" pan="0" vol="197" key="36"/>
          <note len="12" pos="1260" pan="0" vol="197" key="36"/>
          <note len="12" pos="1272" pan="0" vol="197" key="36"/>
          <note len="12" pos="1284" pan="0" vol="197" key="36"/>
          <note len="24" pos="1296" pan="0" vol="197" key="44"/>
          <note len="24" pos="1296" pan="0" vol="197" key="36"/>
          <note len="24" pos="1296" pan="0" vol="197" key="0"/>
          <note len="12" pos="1320" pan="0" vol="197" key="36"/>
          <note len="24" pos="1320" pan="0" vol="197" key="1"/>
          <note len="12" pos="1332" pan="0" vol="197" key="36"/>
          <note len="24" pos="1344" pan="0" vol="197" key="44"/>
          <note len="24" pos="1344" pan="0" vol="197" key="37"/>
          <note len="24" pos="1344" pan="0" vol="197" key="0"/>
          <note len="12" pos="1368" pan="0" vol="197" key="37"/>
          <note len="24" pos="1368" pan="0" vol="197" key="1"/>
          <note len="12" pos="1380" pan="0" vol="197" key="37"/>
          <note len="12" pos="1392" pan="0" vol="197" key="37"/>
          <note len="12" pos="1404" pan="0" vol="197" key="37"/>
          <note len="12" pos="1416" pan="0" vol="197" key="37"/>
          <note len="12" pos="1428" pan="0" vol="197" key="37"/>
          <note len="12" pos="1440" pan="0" vol="197" key="37"/>
          <note len="12" pos="1452" pan="0" vol="197" key="37"/>
          <note len="12" pos="1464" pan="0" vol="197" key="37"/>
          <note len="12" pos="1476" pan="0" vol="197" key="37"/>
          <note len="24" pos="1488" pan="0" vol="197" key="44"/>
          <note len="24" pos="1488" pan="0" vol="197" key="37"/>
          <note len="24" pos="1488" pan="0" vol="197" key="0"/>
          <note len="12" pos="1512" pan="0" vol="197" key="37"/>
          <note len="24" pos="1512" pan="0" vol="197" key="1"/>
          <note len="12" pos="1524" pan="0" vol="197" key="37"/>
        </pattern>
        <pattern pos="23808" muted="0" steps="16" type="1" name="rgt1">
          <note len="12" pos="0" pan="0" vol="195" key="54"/>
          <note len="12" pos="0" pan="0" vol="195" key="1"/>
          <note len="12" pos="12" pan="0" vol="195" key="52"/>
          <note len="12" pos="24" pan="0" vol="195" key="50"/>
          <note len="12" pos="36" pan="0" vol="195" key="52"/>
          <note len="12" pos="48" pan="0" vol="195" key="54"/>
          <note len="12" pos="60" pan="0" vol="195" key="52"/>
          <note len="12" pos="72" pan="0" vol="195" key="50"/>
          <note len="12" pos="84" pan="0" vol="195" key="52"/>
          <note len="12" pos="96" pan="0" vol="195" key="54"/>
          <note len="12" pos="108" pan="0" vol="195" key="52"/>
          <note len="12" pos="120" pan="0" vol="195" key="50"/>
          <note len="12" pos="132" pan="0" vol="195" key="52"/>
          <note len="12" pos="144" pan="0" vol="195" key="54"/>
          <note len="12" pos="156" pan="0" vol="195" key="52"/>
          <note len="12" pos="168" pan="0" vol="195" key="50"/>
          <note len="12" pos="180" pan="0" vol="195" key="52"/>
          <note len="12" pos="192" pan="0" vol="195" key="54"/>
          <note len="12" pos="204" pan="0" vol="195" key="52"/>
          <note len="12" pos="216" pan="0" vol="195" key="50"/>
          <note len="12" pos="228" pan="0" vol="195" key="52"/>
          <note len="12" pos="240" pan="0" vol="195" key="54"/>
          <note len="12" pos="252" pan="0" vol="195" key="52"/>
          <note len="12" pos="264" pan="0" vol="195" key="50"/>
          <note len="12" pos="276" pan="0" vol="195" key="52"/>
          <note len="12" pos="288" pan="0" vol="195" key="54"/>
          <note len="12" pos="300" pan="0" vol="195" key="52"/>
          <note len="12" pos="312" pan="0" vol="195" key="50"/>
          <note len="12" pos="324" pan="0" vol="195" key="52"/>
          <note len="12" pos="336" pan="0" vol="195" key="54"/>
          <note len="12" pos="348" pan="0" vol="195" key="52"/>
          <note len="12" pos="360" pan="0" vol="195" key="50"/>
          <note len="12" pos="372" pan="0" vol="195" key="52"/>
          <note len="12" pos="384" pan="0" vol="195" key="56"/>
          <note len="12" pos="396" pan="0" vol="195" key="54"/>
          <note len="12" pos="408" pan="0" vol="195" key="52"/>
          <note len="12" pos="420" pan="0" vol="195" key="54"/>
          <note len="12" pos="432" pan="0" vol="195" key="56"/>
          <note len="12" pos="444" pan="0" vol="195" key="54"/>
          <note len="12" pos="456" pan="0" vol="195" key="52"/>
          <note len="12" pos="468" pan="0" vol="195" key="54"/>
          <note len="12" pos="480" pan="0" vol="195" key="56"/>
          <note len="12" pos="492" pan="0" vol="195" key="54"/>
          <note len="12" pos="504" pan="0" vol="195" key="52"/>
          <note len="12" pos="516" pan="0" vol="195" key="54"/>
          <note len="12" pos="528" pan="0" vol="195" key="56"/>
          <note len="12" pos="540" pan="0" vol="195" key="54"/>
          <note len="12" pos="552" pan="0" vol="195" key="52"/>
          <note len="12" pos="564" pan="0" vol="195" key="54"/>
          <note len="12" pos="576" pan="0" vol="195" key="59"/>
          <note len="12" pos="588" pan="0" vol="195" key="57"/>
          <note len="12" pos="600" pan="0" vol="195" key="56"/>
          <note len="12" pos="612" pan="0" vol="195" key="57"/>
          <note len="12" pos="624" pan="0" vol="195" key="56"/>
          <note len="12" pos="636" pan="0" vol="195" key="54"/>
          <note len="12" pos="648" pan="0" vol="195" key="53"/>
          <note len="12" pos="660" pan="0" vol="195" key="54"/>
          <note len="12" pos="672" pan="0" vol="195" key="53"/>
          <note len="12" pos="684" pan="0" vol="195" key="50"/>
          <note len="12" pos="696" pan="0" vol="195" key="49"/>
          <note len="12" pos="708" pan="0" vol="195" key="50"/>
          <note len="12" pos="720" pan="0" vol="195" key="49"/>
          <note len="12" pos="732" pan="0" vol="195" key="47"/>
          <note len="12" pos="744" pan="0" vol="195" key="45"/>
          <note len="12" pos="756" pan="0" vol="195" key="44"/>
        </pattern>
        <pattern pos="24576" muted="0" steps="16" type="1" name="rgt1">
          <note len="192" pos="0" pan="0" vol="195" key="49"/>
          <note len="192" pos="0" pan="0" vol="195" key="42"/>
          <note len="384" pos="0" pan="0" vol="195" key="0"/>
          <note len="192" pos="192" pan="0" vol="195" key="49"/>
          <note len="192" pos="192" pan="0" vol="195" key="42"/>
          <note len="192" pos="384" pan="0" vol="195" key="49"/>
          <note len="192" pos="384" pan="0" vol="195" key="42"/>
          <note len="192" pos="576" pan="0" vol="195" key="49"/>
          <note len="192" pos="576" pan="0" vol="195" key="42"/>
        </pattern>
        <pattern pos="25344" muted="0" steps="16" type="1" name="">
          <note len="12" pos="0" pan="0" vol="195" key="42"/>
          <note len="12" pos="0" pan="0" vol="195" key="1"/>
          <note len="12" pos="12" pan="0" vol="195" key="42"/>
          <note len="12" pos="24" pan="0" vol="195" key="42"/>
          <note len="12" pos="36" pan="0" vol="195" key="42"/>
          <note len="12" pos="48" pan="0" vol="195" key="42"/>
          <note len="12" pos="60" pan="0" vol="195" key="42"/>
          <note len="48" pos="72" pan="0" vol="195" key="49"/>
          <note len="48" pos="72" pan="0" vol="195" key="42"/>
          <note len="48" pos="120" pan="0" vol="195" key="49"/>
          <note len="48" pos="120" pan="0" vol="195" key="42"/>
          <note len="48" pos="168" pan="0" vol="195" key="49"/>
          <note len="48" pos="168" pan="0" vol="195" key="42"/>
          <note len="24" pos="216" pan="0" vol="195" key="42"/>
          <note len="24" pos="240" pan="0" vol="195" key="45"/>
          <note len="24" pos="240" pan="0" vol="195" key="0"/>
          <note len="24" pos="264" pan="0" vol="195" key="42"/>
          <note len="24" pos="264" pan="0" vol="195" key="1"/>
          <note len="24" pos="288" pan="0" vol="195" key="49"/>
          <note len="24" pos="288" pan="0" vol="195" key="0"/>
          <note len="24" pos="312" pan="0" vol="195" key="47"/>
          <note len="24" pos="312" pan="0" vol="195" key="1"/>
          <note len="24" pos="336" pan="0" vol="195" key="45"/>
          <note len="24" pos="360" pan="0" vol="195" key="49"/>
          <note len="24" pos="360" pan="0" vol="195" key="0"/>
        </pattern>
        <pattern pos="25728" muted="0" steps="16" type="1" name="">
          <note len="12" pos="0" pan="0" vol="195" key="37"/>
          <note len="12" pos="0" pan="0" vol="195" key="1"/>
          <note len="12" pos="12" pan="0" vol="195" key="37"/>
          <note len="12" pos="24" pan="0" vol="195" key="37"/>
          <note len="12" pos="36" pan="0" vol="195" key="37"/>
          <note len="12" pos="48" pan="0" vol="195" key="37"/>
          <note len="12" pos="60" pan="0" vol="195" key="37"/>
          <note len="48" pos="72" pan="0" vol="195" key="44"/>
          <note len="48" pos="72" pan="0" vol="195" key="37"/>
          <note len="48" pos="120" pan="0" vol="195" key="44"/>
          <note len="48" pos="120" pan="0" vol="195" key="37"/>
          <note len="48" pos="168" pan="0" vol="195" key="44"/>
          <note len="48" pos="168" pan="0" vol="195" key="37"/>
          <note len="24" pos="216" pan="0" vol="195" key="37"/>
          <note len="24" pos="240" pan="0" vol="195" key="41"/>
          <note len="24" pos="240" pan="0" vol="195" key="0"/>
          <note len="24" pos="264" pan="0" vol="195" key="37"/>
          <note len="24" pos="264" pan="0" vol="195" key="1"/>
          <note len="24" pos="288" pan="0" vol="195" key="44"/>
          <note len="24" pos="288" pan="0" vol="195" key="0"/>
          <note len="24" pos="312" pan="0" vol="195" key="42"/>
          <note len="24" pos="312" pan="0" vol="195" key="1"/>
          <note len="24" pos="336" pan="0" vol="195" key="41"/>
          <note len="24" pos="360" pan="0" vol="195" key="44"/>
          <note len="24" pos="360" pan="0" vol="195" key="0"/>
        </pattern>
        <pattern pos="26112" muted="0" steps="16" type="1" name="">
          <note len="12" pos="0" pan="0" vol="195" key="42"/>
          <note len="12" pos="0" pan="0" vol="195" key="1"/>
          <note len="12" pos="12" pan="0" vol="195" key="42"/>
          <note len="12" pos="24" pan="0" vol="195" key="42"/>
          <note len="12" pos="36" pan="0" vol="195" key="42"/>
          <note len="12" pos="48" pan="0" vol="195" key="42"/>
          <note len="12" pos="60" pan="0" vol="195" key="42"/>
          <note len="48" pos="72" pan="0" vol="195" key="49"/>
          <note len="48" pos="72" pan="0" vol="195" key="42"/>
          <note len="48" pos="120" pan="0" vol="195" key="49"/>
          <note len="48" pos="120" pan="0" vol="195" key="42"/>
          <note len="48" pos="168" pan="0" vol="195" key="49"/>
          <note len="48" pos="168" pan="0" vol="195" key="42"/>
          <note len="24" pos="216" pan="0" vol="195" key="42"/>
          <note len="24" pos="240" pan="0" vol="195" key="45"/>
          <note len="24" pos="240" pan="0" vol="195" key="0"/>
          <note len="24" pos="264" pan="0" vol="195" key="42"/>
          <note len="24" pos="264" pan="0" vol="195" key="1"/>
          <note len="24" pos="288" pan="0" vol="195" key="49"/>
          <note len="24" pos="288" pan="0" vol="195" key="0"/>
          <note len="24" pos="312" pan="0" vol="195" key="47"/>
          <note len="24" pos="312" pan="0" vol="195" key="1"/>
          <note len="24" pos="336" pan="0" vol="195" key="49"/>
          <note len="24" pos="360" pan="0" vol="195" key="54"/>
          <note len="24" pos="360" pan="0" vol="195" key="0"/>
        </pattern>
        <pattern pos="26496" muted="0" steps="16" type="1" name="">
          <note len="12" pos="0" pan="0" vol="195" key="37"/>
          <note len="12" pos="0" pan="0" vol="195" key="1"/>
          <note len="12" pos="12" pan="0" vol="195" key="37"/>
          <note len="12" pos="24" pan="0" vol="195" key="37"/>
          <note len="12" pos="36" pan="0" vol="195" key="37"/>
          <note len="12" pos="48" pan="0" vol="195" key="37"/>
          <note len="12" pos="60" pan="0" vol="195" key="37"/>
          <note len="48" pos="72" pan="0" vol="195" key="44"/>
          <note len="48" pos="72" pan="0" vol="195" key="37"/>
          <note len="48" pos="120" pan="0" vol="195" key="44"/>
          <note len="48" pos="120" pan="0" vol="195" key="37"/>
          <note len="48" pos="168" pan="0" vol="195" key="44"/>
          <note len="48" pos="168" pan="0" vol="195" key="37"/>
          <note len="24" pos="216" pan="0" vol="195" key="41"/>
          <note len="24" pos="240" pan="0" vol="195" key="44"/>
          <note len="24" pos="240" pan="0" vol="195" key="0"/>
          <note len="24" pos="264" pan="0" vol="195" key="41"/>
          <note len="24" pos="264" pan="0" vol="195" key="1"/>
          <note len="24" pos="288" pan="0" vol="195" key="47"/>
          <note len="24" pos="288" pan="0" vol="195" key="0"/>
          <note len="24" pos="312" pan="0" vol="195" key="45"/>
          <note len="24" pos="312" pan="0" vol="195" key="1"/>
          <note len="24" pos="336" pan="0" vol="195" key="44"/>
          <note len="24" pos="360" pan="0" vol="195" key="47"/>
          <note len="24" pos="360" pan="0" vol="195" key="0"/>
        </pattern>
        <pattern pos="26880" muted="0" steps="16" type="1" name="">
          <note len="12" pos="0" pan="0" vol="195" key="45"/>
          <note len="12" pos="0" pan="0" vol="195" key="1"/>
          <note len="12" pos="12" pan="0" vol="195" key="45"/>
          <note len="12" pos="24" pan="0" vol="195" key="45"/>
          <note len="12" pos="36" pan="0" vol="195" key="45"/>
          <note len="12" pos="48" pan="0" vol="195" key="45"/>
          <note len="12" pos="60" pan="0" vol="195" key="45"/>
          <note len="48" pos="72" pan="0" vol="195" key="45"/>
          <note len="48" pos="120" pan="0" vol="195" key="45"/>
          <note len="48" pos="168" pan="0" vol="195" key="45"/>
          <note len="24" pos="216" pan="0" vol="195" key="45"/>
          <note len="24" pos="240" pan="0" vol="195" key="49"/>
          <note len="24" pos="240" pan="0" vol="195" key="0"/>
          <note len="24" pos="264" pan="0" vol="195" key="45"/>
          <note len="24" pos="264" pan="0" vol="195" key="1"/>
          <note len="24" pos="288" pan="0" vol="195" key="52"/>
          <note len="24" pos="288" pan="0" vol="195" key="0"/>
          <note len="24" pos="312" pan="0" vol="195" key="50"/>
          <note len="24" pos="312" pan="0" vol="195" key="1"/>
          <note len="24" pos="336" pan="0" vol="195" key="52"/>
          <note len="24" pos="360" pan="0" vol="195" key="57"/>
          <note len="24" pos="360" pan="0" vol="195" key="0"/>
        </pattern>
        <pattern pos="27264" muted="0" steps="16" type="1" name="">
          <note len="12" pos="0" pan="0" vol="195" key="41"/>
          <note len="12" pos="0" pan="0" vol="195" key="1"/>
          <note len="12" pos="12" pan="0" vol="195" key="41"/>
          <note len="12" pos="24" pan="0" vol="195" key="41"/>
          <note len="12" pos="36" pan="0" vol="195" key="41"/>
          <note len="12" pos="48" pan="0" vol="195" key="41"/>
          <note len="12" pos="60" pan="0" vol="195" key="41"/>
          <note len="48" pos="72" pan="0" vol="195" key="41"/>
          <note len="48" pos="120" pan="0" vol="195" key="41"/>
          <note len="48" pos="168" pan="0" vol="195" key="41"/>
          <note len="24" pos="216" pan="0" vol="195" key="41"/>
          <note len="24" pos="240" pan="0" vol="195" key="44"/>
          <note len="24" pos="240" pan="0" vol="195" key="0"/>
          <note len="24" pos="264" pan="0" vol="195" key="41"/>
          <note len="24" pos="264" pan="0" vol="195" key="1"/>
          <note len="24" pos="288" pan="0" vol="195" key="47"/>
          <note len="24" pos="288" pan="0" vol="195" key="0"/>
          <note len="24" pos="312" pan="0" vol="195" key="45"/>
          <note len="24" pos="312" pan="0" vol="195" key="1"/>
          <note len="24" pos="336" pan="0" vol="195" key="44"/>
          <note len="24" pos="360" pan="0" vol="195" key="47"/>
          <note len="24" pos="360" pan="0" vol="195" key="0"/>
        </pattern>
        <pattern pos="27840" muted="0" steps="16" type="1" name="rgt1">
          <note len="24" pos="0" pan="0" vol="193" key="38"/>
          <note len="24" pos="0" pan="0" vol="193" key="1"/>
          <note len="24" pos="24" pan="0" vol="193" key="42"/>
          <note len="24" pos="48" pan="0" vol="193" key="41"/>
          <note len="24" pos="72" pan="0" vol="193" key="42"/>
          <note len="24" pos="96" pan="0" vol="193" key="37"/>
          <note len="24" pos="120" pan="0" vol="193" key="41"/>
          <note len="24" pos="144" pan="0" vol="193" key="38"/>
          <note len="24" pos="168" pan="0" vol="193" key="41"/>
        </pattern>
        <pattern pos="28032" muted="0" steps="16" type="1" name="">
          <note len="24" pos="0" pan="0" vol="193" key="38"/>
          <note len="24" pos="0" pan="0" vol="193" key="0"/>
          <note len="24" pos="24" pan="0" vol="193" key="42"/>
          <note len="24" pos="48" pan="0" vol="193" key="41"/>
          <note len="24" pos="72" pan="0" vol="193" key="42"/>
          <note len="24" pos="96" pan="0" vol="193" key="37"/>
          <note len="24" pos="120" pan="0" vol="193" key="41"/>
          <note len="24" pos="144" pan="0" vol="193" key="38"/>
          <note len="24" pos="168" pan="0" vol="193" key="41"/>
        </pattern>
        <pattern pos="27648" muted="0" steps="16" type="1" name="">
          <note len="24" pos="0" pan="0" vol="193" key="42"/>
          <note len="24" pos="0" pan="0" vol="193" key="1"/>
          <note len="24" pos="24" pan="0" vol="193" key="45"/>
          <note len="24" pos="48" pan="0" vol="193" key="44"/>
          <note len="24" pos="72" pan="0" vol="193" key="45"/>
          <note len="24" pos="96" pan="0" vol="193" key="41"/>
          <note len="24" pos="120" pan="0" vol="193" key="44"/>
          <note len="24" pos="144" pan="0" vol="193" key="42"/>
          <note len="24" pos="168" pan="0" vol="193" key="44"/>
        </pattern>
        <pattern pos="28224" muted="0" steps="16" type="1" name="rgt1">
          <note len="12" pos="0" pan="0" vol="193" key="38"/>
          <note len="12" pos="0" pan="0" vol="193" key="0"/>
          <note len="12" pos="12" pan="0" vol="193" key="37"/>
          <note len="12" pos="24" pan="0" vol="193" key="35"/>
          <note len="12" pos="24" pan="0" vol="193" key="1"/>
          <note len="12" pos="36" pan="0" vol="193" key="37"/>
          <note len="12" pos="48" pan="0" vol="193" key="38"/>
          <note len="12" pos="60" pan="0" vol="193" key="37"/>
          <note len="12" pos="72" pan="0" vol="193" key="38"/>
          <note len="12" pos="84" pan="0" vol="193" key="41"/>
          <note len="12" pos="96" pan="0" vol="193" key="42"/>
          <note len="12" pos="108" pan="0" vol="193" key="44"/>
          <note len="12" pos="120" pan="0" vol="193" key="45"/>
          <note len="12" pos="132" pan="0" vol="193" key="47"/>
          <note len="12" pos="144" pan="0" vol="193" key="49"/>
          <note len="12" pos="156" pan="0" vol="193" key="48"/>
          <note len="12" pos="168" pan="0" vol="193" key="49"/>
          <note len="12" pos="168" pan="0" vol="193" key="0"/>
          <note len="12" pos="180" pan="0" vol="193" key="53"/>
        </pattern>
        <pattern pos="35328" muted="0" steps="16" type="1" name="">
          <note len="24" pos="0" pan="0" vol="195" key="30"/>
          <note len="24" pos="0" pan="0" vol="195" key="0"/>
          <note len="24" pos="48" pan="0" vol="195" key="30"/>
          <note len="24" pos="84" pan="0" vol="195" key="1"/>
          <note len="12" pos="96" pan="0" vol="195" key="30"/>
          <note len="12" pos="108" pan="0" vol="195" key="30"/>
          <note len="12" pos="120" pan="0" vol="195" key="30"/>
          <note len="12" pos="132" pan="0" vol="195" key="30"/>
          <note len="24" pos="144" pan="0" vol="195" key="30"/>
          <note len="24" pos="156" pan="0" vol="195" key="0"/>
          <note len="48" pos="168" pan="0" vol="195" key="42"/>
          <note len="24" pos="216" pan="0" vol="195" key="30"/>
          <note len="24" pos="240" pan="0" vol="195" key="37"/>
          <note len="24" pos="264" pan="0" vol="195" key="30"/>
          <note len="24" pos="288" pan="0" vol="195" key="33"/>
          <note len="24" pos="312" pan="0" vol="195" key="30"/>
          <note len="24" pos="336" pan="0" vol="195" key="37"/>
          <note len="24" pos="360" pan="0" vol="195" key="30"/>
        </pattern>
      </track>
      <track muted="0" solo="0" type="0" name="rgt2">
        <instrumenttrack basenote="57" pitch="0" pitchrange="1" pan="100" usemasterpitch="1" fxch="11" vol="200">
          <instrument name="carlapatchbay">
            <carlapatchbay>
              <CARLA-PROJECT VERSION="2.2">
                <EngineSettings>
                  <ForceStereo>false</ForceStereo>
                  <PreferPluginBridges>false</PreferPluginBridges>
                  <PreferUiBridges>true</PreferUiBridges>
                  <UIsAlwaysOnTop>false</UIsAlwaysOnTop>
                  <MaxParameters>200</MaxParameters>
                  <UIBridgesTimeout>4000</UIBridgesTimeout>
                  <LADSPA_PATH>/home/pass/.ladspa:/usr/lib/ladspa:/usr/local/lib/ladspa</LADSPA_PATH>
                  <DSSI_PATH>/home/pass/.dssi:/usr/lib/dssi:/usr/local/lib/dssi</DSSI_PATH>
                  <LV2_PATH>/home/pass/.lv2:/usr/lib/lv2:/usr/local/lib/lv2</LV2_PATH>
                  <VST2_PATH>/home/pass/.vst:/home/pass/.wine/drive_c/Program Files (x86)/VstPlugins:/home/pass/.wine/drive_c/Program Files/VstPlugins:/home/pass/vst:/usr/lib/lxvst:/usr/lib/vst:/usr/local/lib/lxvst:/usr/local/lib/vst/home/pass/.lxvst</VST2_PATH>
                  <VST3_PATH>/home/pass/.vst3:/home/pass/.wine/drive_c/Program Files (x86)/Common Files/VST3:/home/pass/.wine/drive_c/Program Files/Common Files/VST3:/usr/lib/vst3:/usr/local/lib/vst3</VST3_PATH>
                  <SF2_PATH>/home/pass/.sounds/sf2/home/pass/.sounds/sf3:/usr/share/soundfonts:/usr/share/sounds/sf2:/usr/share/sounds/sf3:/home/pass/samples/soundfonts</SF2_PATH>
                  <SFZ_PATH>/home/pass/.sounds/sfz:/home/pass/samples:/usr/share/sounds/sfz</SFZ_PATH>
                </EngineSettings>
                <!-- sfizz -->
                <Plugin>
                  <Info>
                    <Type>LV2</Type>
                    <Name>sfizz</Name>
                    <URI>http://sfztools.github.io/sfizz</URI>
                  </Info>
                  <Data>
                    <Active>Yes</Active>
                    <ControlChannel>1</ControlChannel>
                    <Options>0x3f0</Options>
                    <Parameter>
                      <Index>0</Index>
                      <Name>Volume</Name>
                      <Symbol>volume</Symbol>
                      <Value>0</Value>
                    </Parameter>
                    <Parameter>
                      <Index>1</Index>
                      <Name>Polyphony</Name>
                      <Symbol>num_voices</Symbol>
                      <Value>64</Value>
                    </Parameter>
                    <Parameter>
                      <Index>2</Index>
                      <Name>Internal oversampling factor</Name>
                      <Symbol>oversampling</Symbol>
                      <Value>1</Value>
                    </Parameter>
                    <Parameter>
                      <Index>3</Index>
                      <Name>Preload size</Name>
                      <Symbol>preload_size</Symbol>
                      <Value>8192</Value>
                    </Parameter>
                    <CustomData>
                      <Type>http://lv2plug.in/ns/ext/atom#Path</Type>
                      <Key>http://sfztools.github.io/sfizz:sfzfile</Key>
                      <Value>/home/pass/samples/fakeguitar/_fakeguitar2_integrated.sfz</Value>
                    </CustomData>
                    <CustomData>
                      <Type>http://lv2plug.in/ns/ext/atom#Int</Type>
                      <Key>http://sfztools.github.io/sfizz:numvoices</Key>
                      <Value>QAAAAA==</Value>
                    </CustomData>
                    <CustomData>
                      <Type>http://lv2plug.in/ns/ext/atom#Int</Type>
                      <Key>http://sfztools.github.io/sfizz:preload_size</Key>
                      <Value>ACAAAA==</Value>
                    </CustomData>
                    <CustomData>
                      <Type>http://lv2plug.in/ns/ext/atom#Int</Type>
                      <Key>http://sfztools.github.io/sfizz:oversampling</Key>
                      <Value>AQAAAA==</Value>
                    </CustomData>
                  </Data>
                </Plugin>
                <Patchbay>
                  <Connection>
                    <Source>Midi Input:Capture 1</Source>
                    <Target>sfizz:events-in</Target>
                  </Connection>
                  <Connection>
                    <Source>sfizz:Left Output</Source>
                    <Target>Audio Output:Right</Target>
                  </Connection>
                  <Connection>
                    <Source>sfizz:Right Output</Source>
                    <Target>Audio Output:Right</Target>
                  </Connection>
                  <Positions>
                    <Position pluginId="0" x1="1614" y1="1216">
                      <Name>sfizz</Name>
                    </Position>
                  </Positions>
                </Patchbay>
              </CARLA-PROJECT>
            </carlapatchbay>
          </instrument>
          <eldata fwet="0" ftype="0" fcut="14000" fres="0.5">
            <elvol lspd_denominator="4" lamt="0" amt="0" dec="0.5" hold="0.5" lshp="0" ctlenvamt="0" lspd="0.1" rel="0.1" pdel="0" lspd_syncmode="0" att="0" sustain="0.5" userwavefile="" latt="0" lspd_numerator="4" lpdel="0" x100="0"/>
            <elcut lspd_denominator="4" lamt="0" amt="0" dec="0.5" hold="0.5" lshp="0" ctlenvamt="0" lspd="0.1" rel="0.1" pdel="0" lspd_syncmode="0" att="0" sustain="0.5" userwavefile="" latt="0" lspd_numerator="4" lpdel="0" x100="0"/>
            <elres lspd_denominator="4" lamt="0" amt="0" dec="0.5" hold="0.5" lshp="0" ctlenvamt="0" lspd="0.1" rel="0.1" pdel="0" lspd_syncmode="0" att="0" sustain="0.5" userwavefile="" latt="0" lspd_numerator="4" lpdel="0" x100="0"/>
          </eldata>
          <chordcreator chordrange="1" chord-enabled="0" chord="0"/>
          <arpeggiator arptime_syncmode="0" arptime="200" arptime_denominator="4" arpdir="0" arp="0" arpmode="0" arpcycle="0" arpmiss="0" arptime_numerator="4" arprange="1" arp-enabled="0" arpskip="0" arpgate="100"/>
          <midiport inputcontroller="0" outports="" outputchannel="2" outputprogram="1" readable="0" outputcontroller="0" fixedoutputvelocity="127" fixedoutputnote="-1" fixedinputvelocity="-1" writable="1" inputchannel="0" basevelocity="127"/>
          <fxchain enabled="0" numofeffects="0"/>
        </instrumenttrack>
        <pattern pos="3072" muted="0" steps="16" type="1" name="rgt2">
          <note len="24" pos="0" pan="0" vol="193" key="42"/>
          <note len="24" pos="0" pan="0" vol="193" key="0"/>
          <note len="12" pos="24" pan="0" vol="193" key="42"/>
          <note len="24" pos="24" pan="0" vol="193" key="1"/>
          <note len="12" pos="36" pan="0" vol="193" key="42"/>
          <note len="12" pos="48" pan="0" vol="193" key="42"/>
          <note len="12" pos="60" pan="0" vol="193" key="42"/>
          <note len="24" pos="72" pan="0" vol="193" key="42"/>
          <note len="24" pos="72" pan="0" vol="193" key="0"/>
          <note len="12" pos="96" pan="0" vol="193" key="42"/>
          <note len="24" pos="96" pan="0" vol="193" key="1"/>
          <note len="12" pos="108" pan="0" vol="193" key="42"/>
          <note len="12" pos="120" pan="0" vol="193" key="42"/>
          <note len="12" pos="132" pan="0" vol="193" key="42"/>
          <note len="24" pos="144" pan="0" vol="193" key="42"/>
          <note len="24" pos="144" pan="0" vol="193" key="0"/>
          <note len="12" pos="168" pan="0" vol="193" key="42"/>
          <note len="24" pos="168" pan="0" vol="193" key="1"/>
          <note len="12" pos="180" pan="0" vol="193" key="42"/>
          <note len="24" pos="192" pan="0" vol="193" key="42"/>
          <note len="24" pos="192" pan="0" vol="193" key="0"/>
          <note len="12" pos="216" pan="0" vol="193" key="42"/>
          <note len="24" pos="216" pan="0" vol="193" key="1"/>
          <note len="12" pos="228" pan="0" vol="193" key="42"/>
          <note len="12" pos="240" pan="0" vol="193" key="42"/>
          <note len="12" pos="252" pan="0" vol="193" key="42"/>
          <note len="24" pos="264" pan="0" vol="193" key="42"/>
          <note len="24" pos="264" pan="0" vol="193" key="0"/>
          <note len="12" pos="288" pan="0" vol="193" key="42"/>
          <note len="24" pos="288" pan="0" vol="193" key="1"/>
          <note len="12" pos="300" pan="0" vol="193" key="42"/>
          <note len="12" pos="312" pan="0" vol="193" key="42"/>
          <note len="12" pos="324" pan="0" vol="193" key="42"/>
          <note len="24" pos="336" pan="0" vol="193" key="42"/>
          <note len="24" pos="336" pan="0" vol="193" key="0"/>
          <note len="12" pos="360" pan="0" vol="193" key="42"/>
          <note len="24" pos="360" pan="0" vol="193" key="1"/>
          <note len="12" pos="372" pan="0" vol="193" key="42"/>
        </pattern>
        <pattern pos="3456" muted="0" steps="16" type="1" name="rgt2">
          <note len="24" pos="0" pan="0" vol="193" key="41"/>
          <note len="24" pos="0" pan="0" vol="193" key="0"/>
          <note len="12" pos="24" pan="0" vol="193" key="41"/>
          <note len="24" pos="24" pan="0" vol="193" key="1"/>
          <note len="12" pos="36" pan="0" vol="193" key="41"/>
          <note len="12" pos="48" pan="0" vol="193" key="41"/>
          <note len="12" pos="60" pan="0" vol="193" key="41"/>
          <note len="24" pos="72" pan="0" vol="193" key="41"/>
          <note len="24" pos="72" pan="0" vol="193" key="0"/>
          <note len="12" pos="96" pan="0" vol="193" key="41"/>
          <note len="24" pos="96" pan="0" vol="193" key="1"/>
          <note len="12" pos="108" pan="0" vol="193" key="41"/>
          <note len="12" pos="120" pan="0" vol="193" key="41"/>
          <note len="12" pos="132" pan="0" vol="193" key="41"/>
          <note len="24" pos="144" pan="0" vol="193" key="41"/>
          <note len="24" pos="144" pan="0" vol="193" key="0"/>
          <note len="12" pos="168" pan="0" vol="193" key="41"/>
          <note len="24" pos="168" pan="0" vol="193" key="1"/>
          <note len="12" pos="180" pan="0" vol="193" key="41"/>
          <note len="24" pos="192" pan="0" vol="193" key="41"/>
          <note len="24" pos="192" pan="0" vol="193" key="0"/>
          <note len="12" pos="216" pan="0" vol="193" key="41"/>
          <note len="24" pos="216" pan="0" vol="193" key="1"/>
          <note len="12" pos="228" pan="0" vol="193" key="41"/>
          <note len="12" pos="240" pan="0" vol="193" key="41"/>
          <note len="12" pos="252" pan="0" vol="193" key="41"/>
          <note len="24" pos="264" pan="0" vol="193" key="41"/>
          <note len="24" pos="264" pan="0" vol="193" key="0"/>
          <note len="12" pos="288" pan="0" vol="193" key="41"/>
          <note len="24" pos="288" pan="0" vol="193" key="1"/>
          <note len="12" pos="300" pan="0" vol="193" key="41"/>
          <note len="12" pos="312" pan="0" vol="193" key="41"/>
          <note len="12" pos="324" pan="0" vol="193" key="41"/>
          <note len="24" pos="336" pan="0" vol="193" key="41"/>
          <note len="24" pos="336" pan="0" vol="193" key="0"/>
          <note len="12" pos="360" pan="0" vol="193" key="41"/>
          <note len="24" pos="360" pan="0" vol="193" key="1"/>
          <note len="12" pos="372" pan="0" vol="193" key="41"/>
        </pattern>
        <pattern pos="3840" muted="0" steps="16" type="1" name="rgt2">
          <note len="24" pos="0" pan="0" vol="193" key="40"/>
          <note len="24" pos="0" pan="0" vol="193" key="0"/>
          <note len="12" pos="24" pan="0" vol="193" key="40"/>
          <note len="24" pos="24" pan="0" vol="193" key="1"/>
          <note len="12" pos="36" pan="0" vol="193" key="40"/>
          <note len="12" pos="48" pan="0" vol="193" key="40"/>
          <note len="12" pos="60" pan="0" vol="193" key="40"/>
          <note len="24" pos="72" pan="0" vol="193" key="40"/>
          <note len="24" pos="72" pan="0" vol="193" key="0"/>
          <note len="12" pos="96" pan="0" vol="193" key="40"/>
          <note len="24" pos="96" pan="0" vol="193" key="1"/>
          <note len="12" pos="108" pan="0" vol="193" key="40"/>
          <note len="12" pos="120" pan="0" vol="193" key="40"/>
          <note len="12" pos="132" pan="0" vol="193" key="40"/>
          <note len="24" pos="144" pan="0" vol="193" key="40"/>
          <note len="24" pos="144" pan="0" vol="193" key="0"/>
          <note len="12" pos="168" pan="0" vol="193" key="40"/>
          <note len="24" pos="168" pan="0" vol="193" key="1"/>
          <note len="12" pos="180" pan="0" vol="193" key="40"/>
          <note len="24" pos="192" pan="0" vol="193" key="40"/>
          <note len="24" pos="192" pan="0" vol="193" key="0"/>
          <note len="12" pos="216" pan="0" vol="193" key="40"/>
          <note len="24" pos="216" pan="0" vol="193" key="1"/>
          <note len="12" pos="228" pan="0" vol="193" key="40"/>
          <note len="12" pos="240" pan="0" vol="193" key="40"/>
          <note len="12" pos="252" pan="0" vol="193" key="40"/>
          <note len="24" pos="264" pan="0" vol="193" key="40"/>
          <note len="24" pos="264" pan="0" vol="193" key="0"/>
          <note len="12" pos="288" pan="0" vol="193" key="40"/>
          <note len="24" pos="288" pan="0" vol="193" key="1"/>
          <note len="12" pos="300" pan="0" vol="193" key="40"/>
          <note len="12" pos="312" pan="0" vol="193" key="40"/>
          <note len="12" pos="324" pan="0" vol="193" key="40"/>
          <note len="24" pos="336" pan="0" vol="193" key="40"/>
          <note len="24" pos="336" pan="0" vol="193" key="0"/>
          <note len="12" pos="360" pan="0" vol="193" key="40"/>
          <note len="24" pos="360" pan="0" vol="193" key="1"/>
          <note len="12" pos="372" pan="0" vol="193" key="40"/>
        </pattern>
        <pattern pos="4224" muted="0" steps="16" type="1" name="rgt2">
          <note len="24" pos="0" pan="0" vol="193" key="39"/>
          <note len="24" pos="0" pan="0" vol="193" key="0"/>
          <note len="12" pos="24" pan="0" vol="193" key="39"/>
          <note len="24" pos="24" pan="0" vol="193" key="1"/>
          <note len="12" pos="36" pan="0" vol="193" key="39"/>
          <note len="12" pos="48" pan="0" vol="193" key="39"/>
          <note len="12" pos="60" pan="0" vol="193" key="39"/>
          <note len="24" pos="72" pan="0" vol="193" key="39"/>
          <note len="24" pos="72" pan="0" vol="193" key="0"/>
          <note len="12" pos="96" pan="0" vol="193" key="39"/>
          <note len="24" pos="96" pan="0" vol="193" key="1"/>
          <note len="12" pos="108" pan="0" vol="193" key="39"/>
          <note len="12" pos="120" pan="0" vol="193" key="39"/>
          <note len="12" pos="132" pan="0" vol="193" key="39"/>
          <note len="24" pos="144" pan="0" vol="193" key="39"/>
          <note len="24" pos="144" pan="0" vol="193" key="0"/>
          <note len="12" pos="168" pan="0" vol="193" key="39"/>
          <note len="24" pos="168" pan="0" vol="193" key="1"/>
          <note len="12" pos="180" pan="0" vol="193" key="39"/>
          <note len="24" pos="192" pan="0" vol="193" key="39"/>
          <note len="24" pos="192" pan="0" vol="193" key="0"/>
          <note len="12" pos="216" pan="0" vol="193" key="39"/>
          <note len="24" pos="216" pan="0" vol="193" key="1"/>
          <note len="12" pos="228" pan="0" vol="193" key="39"/>
          <note len="12" pos="240" pan="0" vol="193" key="39"/>
          <note len="12" pos="252" pan="0" vol="193" key="39"/>
          <note len="24" pos="264" pan="0" vol="193" key="39"/>
          <note len="24" pos="264" pan="0" vol="193" key="0"/>
          <note len="12" pos="288" pan="0" vol="193" key="39"/>
          <note len="24" pos="288" pan="0" vol="193" key="1"/>
          <note len="12" pos="300" pan="0" vol="193" key="39"/>
          <note len="12" pos="312" pan="0" vol="193" key="39"/>
          <note len="12" pos="324" pan="0" vol="193" key="39"/>
          <note len="24" pos="336" pan="0" vol="193" key="39"/>
          <note len="24" pos="336" pan="0" vol="193" key="0"/>
          <note len="12" pos="360" pan="0" vol="193" key="39"/>
          <note len="24" pos="360" pan="0" vol="193" key="1"/>
          <note len="12" pos="372" pan="0" vol="193" key="39"/>
        </pattern>
        <pattern pos="4608" muted="0" steps="16" type="1" name="rgt2">
          <note len="24" pos="0" pan="0" vol="193" key="38"/>
          <note len="24" pos="0" pan="0" vol="193" key="0"/>
          <note len="12" pos="24" pan="0" vol="193" key="38"/>
          <note len="24" pos="24" pan="0" vol="193" key="1"/>
          <note len="12" pos="36" pan="0" vol="193" key="38"/>
          <note len="12" pos="48" pan="0" vol="193" key="38"/>
          <note len="12" pos="60" pan="0" vol="193" key="38"/>
          <note len="24" pos="72" pan="0" vol="193" key="38"/>
          <note len="24" pos="72" pan="0" vol="193" key="0"/>
          <note len="12" pos="96" pan="0" vol="193" key="38"/>
          <note len="24" pos="96" pan="0" vol="193" key="1"/>
          <note len="12" pos="108" pan="0" vol="193" key="38"/>
          <note len="12" pos="120" pan="0" vol="193" key="38"/>
          <note len="12" pos="132" pan="0" vol="193" key="38"/>
          <note len="24" pos="144" pan="0" vol="193" key="38"/>
          <note len="24" pos="144" pan="0" vol="193" key="0"/>
          <note len="12" pos="168" pan="0" vol="193" key="38"/>
          <note len="24" pos="168" pan="0" vol="193" key="1"/>
          <note len="12" pos="180" pan="0" vol="193" key="38"/>
          <note len="24" pos="192" pan="0" vol="193" key="38"/>
          <note len="24" pos="192" pan="0" vol="193" key="0"/>
          <note len="12" pos="216" pan="0" vol="193" key="38"/>
          <note len="24" pos="216" pan="0" vol="193" key="1"/>
          <note len="12" pos="228" pan="0" vol="193" key="38"/>
          <note len="12" pos="240" pan="0" vol="193" key="38"/>
          <note len="12" pos="252" pan="0" vol="193" key="38"/>
          <note len="24" pos="264" pan="0" vol="193" key="38"/>
          <note len="24" pos="264" pan="0" vol="193" key="0"/>
          <note len="12" pos="288" pan="0" vol="193" key="38"/>
          <note len="24" pos="288" pan="0" vol="193" key="1"/>
          <note len="12" pos="300" pan="0" vol="193" key="38"/>
          <note len="12" pos="312" pan="0" vol="193" key="38"/>
          <note len="12" pos="324" pan="0" vol="193" key="38"/>
          <note len="24" pos="336" pan="0" vol="193" key="38"/>
          <note len="24" pos="336" pan="0" vol="193" key="0"/>
          <note len="12" pos="360" pan="0" vol="193" key="38"/>
          <note len="24" pos="360" pan="0" vol="193" key="1"/>
          <note len="12" pos="372" pan="0" vol="193" key="38"/>
        </pattern>
        <pattern pos="5376" muted="0" steps="16" type="1" name="rgt2">
          <note len="24" pos="0" pan="0" vol="193" key="36"/>
          <note len="24" pos="0" pan="0" vol="193" key="0"/>
          <note len="12" pos="24" pan="0" vol="193" key="36"/>
          <note len="24" pos="24" pan="0" vol="193" key="1"/>
          <note len="12" pos="36" pan="0" vol="193" key="36"/>
          <note len="12" pos="48" pan="0" vol="193" key="36"/>
          <note len="12" pos="60" pan="0" vol="193" key="36"/>
          <note len="24" pos="72" pan="0" vol="193" key="36"/>
          <note len="24" pos="72" pan="0" vol="193" key="0"/>
          <note len="12" pos="96" pan="0" vol="193" key="36"/>
          <note len="24" pos="96" pan="0" vol="193" key="1"/>
          <note len="12" pos="108" pan="0" vol="193" key="36"/>
          <note len="12" pos="120" pan="0" vol="193" key="36"/>
          <note len="12" pos="132" pan="0" vol="193" key="36"/>
          <note len="24" pos="144" pan="0" vol="193" key="36"/>
          <note len="24" pos="144" pan="0" vol="193" key="0"/>
          <note len="12" pos="168" pan="0" vol="193" key="36"/>
          <note len="24" pos="168" pan="0" vol="193" key="1"/>
          <note len="12" pos="180" pan="0" vol="193" key="36"/>
          <note len="24" pos="192" pan="0" vol="193" key="36"/>
          <note len="24" pos="192" pan="0" vol="193" key="0"/>
          <note len="12" pos="216" pan="0" vol="193" key="36"/>
          <note len="24" pos="216" pan="0" vol="193" key="1"/>
          <note len="12" pos="228" pan="0" vol="193" key="36"/>
          <note len="12" pos="240" pan="0" vol="193" key="36"/>
          <note len="12" pos="252" pan="0" vol="193" key="36"/>
          <note len="24" pos="264" pan="0" vol="193" key="36"/>
          <note len="24" pos="264" pan="0" vol="193" key="0"/>
          <note len="12" pos="288" pan="0" vol="193" key="36"/>
          <note len="24" pos="288" pan="0" vol="193" key="1"/>
          <note len="12" pos="300" pan="0" vol="193" key="36"/>
          <note len="12" pos="312" pan="0" vol="193" key="36"/>
          <note len="12" pos="324" pan="0" vol="193" key="36"/>
          <note len="24" pos="336" pan="0" vol="193" key="36"/>
          <note len="24" pos="336" pan="0" vol="193" key="0"/>
          <note len="12" pos="360" pan="0" vol="193" key="36"/>
          <note len="24" pos="360" pan="0" vol="193" key="1"/>
          <note len="12" pos="372" pan="0" vol="193" key="36"/>
        </pattern>
        <pattern pos="6144" muted="0" steps="16" type="1" name="rgt2">
          <note len="12" pos="0" pan="0" vol="193" key="54"/>
          <note len="48" pos="0" pan="0" vol="193" key="1"/>
          <note len="12" pos="12" pan="0" vol="193" key="54"/>
          <note len="12" pos="24" pan="0" vol="193" key="49"/>
          <note len="12" pos="36" pan="0" vol="193" key="49"/>
          <note len="12" pos="48" pan="0" vol="193" key="54"/>
          <note len="12" pos="60" pan="0" vol="193" key="54"/>
          <note len="12" pos="72" pan="0" vol="193" key="56"/>
          <note len="12" pos="84" pan="0" vol="193" key="56"/>
          <note len="12" pos="96" pan="0" vol="193" key="57"/>
          <note len="12" pos="108" pan="0" vol="193" key="57"/>
          <note len="12" pos="120" pan="0" vol="193" key="56"/>
          <note len="12" pos="132" pan="0" vol="193" key="56"/>
          <note len="12" pos="144" pan="0" vol="193" key="54"/>
          <note len="12" pos="156" pan="0" vol="193" key="54"/>
          <note len="24" pos="156" pan="0" vol="193" key="0"/>
          <note len="24" pos="168" pan="0" vol="193" key="57"/>
          <note len="24" pos="180" pan="0" vol="193" key="1"/>
          <note len="12" pos="192" pan="0" vol="193" key="50"/>
          <note len="12" pos="204" pan="0" vol="193" key="50"/>
          <note len="24" pos="204" pan="0" vol="193" key="0"/>
          <note len="24" pos="216" pan="0" vol="193" key="56"/>
          <note len="24" pos="228" pan="0" vol="193" key="1"/>
          <note len="12" pos="240" pan="0" vol="193" key="50"/>
          <note len="12" pos="252" pan="0" vol="193" key="50"/>
          <note len="12" pos="252" pan="0" vol="193" key="0"/>
          <note len="48" pos="264" pan="0" vol="193" key="57"/>
          <note len="12" pos="300" pan="0" vol="193" key="1"/>
          <note len="12" pos="312" pan="0" vol="193" key="54"/>
          <note len="12" pos="324" pan="0" vol="193" key="54"/>
          <note len="12" pos="336" pan="0" vol="193" key="56"/>
          <note len="12" pos="348" pan="0" vol="193" key="56"/>
          <note len="12" pos="360" pan="0" vol="193" key="57"/>
          <note len="12" pos="372" pan="0" vol="193" key="57"/>
        </pattern>
        <pattern pos="6528" muted="0" steps="16" type="1" name="rgt2">
          <note len="12" pos="0" pan="0" vol="193" key="52"/>
          <note len="48" pos="0" pan="0" vol="193" key="1"/>
          <note len="12" pos="12" pan="0" vol="193" key="52"/>
          <note len="12" pos="24" pan="0" vol="193" key="47"/>
          <note len="12" pos="36" pan="0" vol="193" key="47"/>
          <note len="12" pos="48" pan="0" vol="193" key="52"/>
          <note len="12" pos="60" pan="0" vol="193" key="52"/>
          <note len="12" pos="72" pan="0" vol="193" key="54"/>
          <note len="12" pos="84" pan="0" vol="193" key="54"/>
          <note len="12" pos="96" pan="0" vol="193" key="56"/>
          <note len="12" pos="108" pan="0" vol="193" key="56"/>
          <note len="12" pos="120" pan="0" vol="193" key="54"/>
          <note len="12" pos="132" pan="0" vol="193" key="54"/>
          <note len="12" pos="144" pan="0" vol="193" key="52"/>
          <note len="12" pos="156" pan="0" vol="193" key="52"/>
          <note len="24" pos="156" pan="0" vol="193" key="0"/>
          <note len="48" pos="168" pan="0" vol="193" key="54"/>
          <note len="24" pos="204" pan="0" vol="193" key="0"/>
          <note len="24" pos="216" pan="0" vol="193" key="56"/>
          <note len="24" pos="228" pan="0" vol="193" key="1"/>
          <note len="24" pos="240" pan="0" vol="193" key="54"/>
          <note len="12" pos="252" pan="0" vol="193" key="0"/>
          <note len="48" pos="264" pan="0" vol="193" key="53"/>
          <note len="12" pos="300" pan="0" vol="193" key="1"/>
          <note len="12" pos="312" pan="0" vol="193" key="53"/>
          <note len="12" pos="324" pan="0" vol="193" key="54"/>
          <note len="12" pos="336" pan="0" vol="193" key="56"/>
          <note len="12" pos="348" pan="0" vol="193" key="54"/>
          <note len="12" pos="360" pan="0" vol="193" key="53"/>
          <note len="12" pos="372" pan="0" vol="193" key="56"/>
        </pattern>
        <pattern pos="6912" muted="0" steps="16" type="1" name="rgt2">
          <note len="12" pos="0" pan="0" vol="193" key="54"/>
          <note len="48" pos="0" pan="0" vol="193" key="1"/>
          <note len="12" pos="12" pan="0" vol="193" key="54"/>
          <note len="12" pos="24" pan="0" vol="193" key="49"/>
          <note len="12" pos="36" pan="0" vol="193" key="49"/>
          <note len="12" pos="48" pan="0" vol="193" key="54"/>
          <note len="12" pos="60" pan="0" vol="193" key="54"/>
          <note len="12" pos="72" pan="0" vol="193" key="56"/>
          <note len="12" pos="84" pan="0" vol="193" key="56"/>
          <note len="12" pos="96" pan="0" vol="193" key="57"/>
          <note len="12" pos="108" pan="0" vol="193" key="57"/>
          <note len="12" pos="120" pan="0" vol="193" key="56"/>
          <note len="12" pos="132" pan="0" vol="193" key="56"/>
          <note len="12" pos="144" pan="0" vol="193" key="54"/>
          <note len="12" pos="156" pan="0" vol="193" key="54"/>
          <note len="24" pos="156" pan="0" vol="193" key="0"/>
          <note len="24" pos="168" pan="0" vol="193" key="54"/>
          <note len="24" pos="180" pan="0" vol="193" key="1"/>
          <note len="12" pos="192" pan="0" vol="193" key="50"/>
          <note len="12" pos="204" pan="0" vol="193" key="50"/>
          <note len="24" pos="204" pan="0" vol="193" key="0"/>
          <note len="24" pos="216" pan="0" vol="193" key="56"/>
          <note len="24" pos="228" pan="0" vol="193" key="1"/>
          <note len="12" pos="240" pan="0" vol="193" key="50"/>
          <note len="12" pos="252" pan="0" vol="193" key="50"/>
          <note len="12" pos="252" pan="0" vol="193" key="0"/>
          <note len="48" pos="264" pan="0" vol="193" key="57"/>
          <note len="12" pos="300" pan="0" vol="193" key="1"/>
          <note len="12" pos="312" pan="0" vol="193" key="54"/>
          <note len="12" pos="324" pan="0" vol="193" key="54"/>
          <note len="12" pos="336" pan="0" vol="193" key="56"/>
          <note len="12" pos="348" pan="0" vol="193" key="56"/>
          <note len="12" pos="360" pan="0" vol="193" key="57"/>
          <note len="12" pos="372" pan="0" vol="193" key="61"/>
          <note len="12" pos="372" pan="0" vol="193" key="57"/>
        </pattern>
        <pattern pos="7296" muted="0" steps="16" type="1" name="rgt2">
          <note len="12" pos="0" pan="0" vol="193" key="54"/>
          <note len="48" pos="0" pan="0" vol="193" key="1"/>
          <note len="12" pos="12" pan="0" vol="193" key="54"/>
          <note len="12" pos="24" pan="0" vol="193" key="49"/>
          <note len="12" pos="36" pan="0" vol="193" key="49"/>
          <note len="12" pos="48" pan="0" vol="193" key="54"/>
          <note len="12" pos="60" pan="0" vol="193" key="54"/>
          <note len="12" pos="72" pan="0" vol="193" key="56"/>
          <note len="12" pos="84" pan="0" vol="193" key="56"/>
          <note len="12" pos="96" pan="0" vol="193" key="57"/>
          <note len="12" pos="108" pan="0" vol="193" key="57"/>
          <note len="12" pos="120" pan="0" vol="193" key="56"/>
          <note len="12" pos="132" pan="0" vol="193" key="56"/>
          <note len="12" pos="144" pan="0" vol="193" key="57"/>
          <note len="12" pos="156" pan="0" vol="193" key="57"/>
          <note len="24" pos="156" pan="0" vol="193" key="0"/>
          <note len="48" pos="168" pan="0" vol="193" key="61"/>
          <note len="24" pos="204" pan="0" vol="193" key="0"/>
          <note len="24" pos="216" pan="0" vol="193" key="57"/>
          <note len="24" pos="228" pan="0" vol="193" key="1"/>
          <note len="24" pos="240" pan="0" vol="193" key="56"/>
          <note len="12" pos="252" pan="0" vol="193" key="0"/>
          <note len="48" pos="264" pan="0" vol="193" key="57"/>
          <note len="12" pos="300" pan="0" vol="193" key="1"/>
          <note len="12" pos="312" pan="0" vol="193" key="56"/>
          <note len="12" pos="324" pan="0" vol="193" key="57"/>
          <note len="12" pos="336" pan="0" vol="193" key="59"/>
          <note len="12" pos="348" pan="0" vol="193" key="57"/>
          <note len="12" pos="360" pan="0" vol="193" key="56"/>
          <note len="12" pos="372" pan="0" vol="193" key="57"/>
        </pattern>
        <pattern pos="7680" muted="0" steps="16" type="1" name="rgt2">
          <note len="12" pos="0" pan="0" vol="193" key="54"/>
          <note len="48" pos="0" pan="0" vol="193" key="1"/>
          <note len="12" pos="12" pan="0" vol="193" key="54"/>
          <note len="12" pos="24" pan="0" vol="193" key="49"/>
          <note len="12" pos="36" pan="0" vol="193" key="49"/>
          <note len="12" pos="48" pan="0" vol="193" key="54"/>
          <note len="12" pos="60" pan="0" vol="193" key="54"/>
          <note len="12" pos="72" pan="0" vol="193" key="56"/>
          <note len="12" pos="84" pan="0" vol="193" key="56"/>
          <note len="12" pos="96" pan="0" vol="193" key="57"/>
          <note len="12" pos="108" pan="0" vol="193" key="57"/>
          <note len="12" pos="120" pan="0" vol="193" key="56"/>
          <note len="12" pos="132" pan="0" vol="193" key="56"/>
          <note len="12" pos="144" pan="0" vol="193" key="54"/>
          <note len="12" pos="156" pan="0" vol="193" key="54"/>
          <note len="24" pos="156" pan="0" vol="193" key="0"/>
          <note len="24" pos="168" pan="0" vol="193" key="57"/>
          <note len="24" pos="180" pan="0" vol="193" key="1"/>
          <note len="12" pos="192" pan="0" vol="193" key="50"/>
          <note len="12" pos="204" pan="0" vol="193" key="50"/>
          <note len="24" pos="204" pan="0" vol="193" key="0"/>
          <note len="24" pos="216" pan="0" vol="193" key="56"/>
          <note len="24" pos="228" pan="0" vol="193" key="1"/>
          <note len="12" pos="240" pan="0" vol="193" key="50"/>
          <note len="12" pos="252" pan="0" vol="193" key="50"/>
          <note len="12" pos="252" pan="0" vol="193" key="0"/>
          <note len="48" pos="264" pan="0" vol="193" key="57"/>
          <note len="12" pos="300" pan="0" vol="193" key="1"/>
          <note len="12" pos="312" pan="0" vol="193" key="54"/>
          <note len="12" pos="324" pan="0" vol="193" key="54"/>
          <note len="12" pos="336" pan="0" vol="193" key="56"/>
          <note len="12" pos="348" pan="0" vol="193" key="56"/>
          <note len="12" pos="360" pan="0" vol="193" key="57"/>
          <note len="12" pos="372" pan="0" vol="193" key="61"/>
          <note len="12" pos="372" pan="0" vol="193" key="57"/>
        </pattern>
        <pattern pos="8064" muted="0" steps="16" type="1" name="rgt2">
          <note len="12" pos="0" pan="0" vol="193" key="52"/>
          <note len="48" pos="0" pan="0" vol="193" key="1"/>
          <note len="12" pos="12" pan="0" vol="193" key="52"/>
          <note len="12" pos="24" pan="0" vol="193" key="49"/>
          <note len="12" pos="36" pan="0" vol="193" key="49"/>
          <note len="12" pos="48" pan="0" vol="193" key="52"/>
          <note len="12" pos="60" pan="0" vol="193" key="52"/>
          <note len="12" pos="72" pan="0" vol="193" key="54"/>
          <note len="12" pos="84" pan="0" vol="193" key="54"/>
          <note len="12" pos="96" pan="0" vol="193" key="56"/>
          <note len="12" pos="108" pan="0" vol="193" key="56"/>
          <note len="12" pos="120" pan="0" vol="193" key="54"/>
          <note len="12" pos="132" pan="0" vol="193" key="54"/>
          <note len="12" pos="144" pan="0" vol="193" key="52"/>
          <note len="12" pos="156" pan="0" vol="193" key="52"/>
          <note len="24" pos="156" pan="0" vol="193" key="0"/>
          <note len="48" pos="168" pan="0" vol="193" key="61"/>
          <note len="12" pos="216" pan="0" vol="193" key="59"/>
          <note len="12" pos="216" pan="0" vol="193" key="1"/>
          <note len="12" pos="228" pan="0" vol="193" key="61"/>
          <note len="12" pos="240" pan="0" vol="193" key="62"/>
          <note len="12" pos="240" pan="0" vol="193" key="0"/>
          <note len="12" pos="252" pan="0" vol="193" key="61"/>
          <note len="12" pos="264" pan="0" vol="193" key="59"/>
          <note len="12" pos="264" pan="0" vol="193" key="1"/>
          <note len="12" pos="276" pan="0" vol="193" key="57"/>
          <note len="12" pos="288" pan="0" vol="193" key="61"/>
          <note len="12" pos="288" pan="0" vol="193" key="0"/>
          <note len="12" pos="300" pan="0" vol="193" key="59"/>
          <note len="12" pos="312" pan="0" vol="193" key="57"/>
          <note len="12" pos="312" pan="0" vol="193" key="1"/>
          <note len="12" pos="324" pan="0" vol="193" key="56"/>
          <note len="12" pos="336" pan="0" vol="193" key="59"/>
          <note len="12" pos="336" pan="0" vol="193" key="0"/>
          <note len="12" pos="348" pan="0" vol="193" key="57"/>
          <note len="12" pos="360" pan="0" vol="193" key="56"/>
          <note len="12" pos="360" pan="0" vol="193" key="1"/>
          <note len="12" pos="372" pan="0" vol="193" key="54"/>
        </pattern>
        <pattern pos="4992" muted="0" steps="16" type="1" name="rgt2">
          <note len="24" pos="0" pan="0" vol="193" key="37"/>
          <note len="24" pos="0" pan="0" vol="193" key="0"/>
          <note len="12" pos="24" pan="0" vol="193" key="37"/>
          <note len="24" pos="24" pan="0" vol="193" key="1"/>
          <note len="12" pos="36" pan="0" vol="193" key="37"/>
          <note len="12" pos="48" pan="0" vol="193" key="37"/>
          <note len="12" pos="60" pan="0" vol="193" key="37"/>
          <note len="24" pos="72" pan="0" vol="193" key="37"/>
          <note len="24" pos="72" pan="0" vol="193" key="0"/>
          <note len="12" pos="96" pan="0" vol="193" key="37"/>
          <note len="24" pos="96" pan="0" vol="193" key="1"/>
          <note len="12" pos="108" pan="0" vol="193" key="37"/>
          <note len="12" pos="120" pan="0" vol="193" key="37"/>
          <note len="12" pos="132" pan="0" vol="193" key="37"/>
          <note len="24" pos="144" pan="0" vol="193" key="37"/>
          <note len="24" pos="144" pan="0" vol="193" key="0"/>
          <note len="12" pos="168" pan="0" vol="193" key="37"/>
          <note len="24" pos="168" pan="0" vol="193" key="1"/>
          <note len="12" pos="180" pan="0" vol="193" key="37"/>
          <note len="24" pos="192" pan="0" vol="193" key="37"/>
          <note len="24" pos="192" pan="0" vol="193" key="0"/>
          <note len="12" pos="216" pan="0" vol="193" key="37"/>
          <note len="24" pos="216" pan="0" vol="193" key="1"/>
          <note len="12" pos="228" pan="0" vol="193" key="37"/>
          <note len="12" pos="240" pan="0" vol="193" key="37"/>
          <note len="12" pos="252" pan="0" vol="193" key="37"/>
          <note len="24" pos="264" pan="0" vol="193" key="37"/>
          <note len="24" pos="264" pan="0" vol="193" key="0"/>
          <note len="12" pos="288" pan="0" vol="193" key="37"/>
          <note len="24" pos="288" pan="0" vol="193" key="1"/>
          <note len="12" pos="300" pan="0" vol="193" key="37"/>
          <note len="12" pos="312" pan="0" vol="193" key="37"/>
          <note len="12" pos="324" pan="0" vol="193" key="37"/>
          <note len="24" pos="336" pan="0" vol="193" key="37"/>
          <note len="24" pos="336" pan="0" vol="193" key="0"/>
          <note len="12" pos="360" pan="0" vol="193" key="37"/>
          <note len="24" pos="360" pan="0" vol="193" key="1"/>
          <note len="12" pos="372" pan="0" vol="193" key="37"/>
        </pattern>
        <pattern pos="11520" muted="0" steps="16" type="1" name="">
          <note len="12" pos="0" pan="0" vol="193" key="45"/>
          <note len="12" pos="0" pan="0" vol="193" key="1"/>
          <note len="12" pos="12" pan="0" vol="193" key="45"/>
          <note len="12" pos="24" pan="0" vol="193" key="45"/>
          <note len="12" pos="36" pan="0" vol="193" key="45"/>
          <note len="12" pos="48" pan="0" vol="193" key="45"/>
          <note len="12" pos="60" pan="0" vol="193" key="45"/>
          <note len="12" pos="72" pan="0" vol="193" key="45"/>
          <note len="12" pos="84" pan="0" vol="193" key="45"/>
          <note len="12" pos="96" pan="0" vol="193" key="45"/>
          <note len="12" pos="108" pan="0" vol="193" key="45"/>
          <note len="12" pos="120" pan="0" vol="193" key="45"/>
          <note len="12" pos="132" pan="0" vol="193" key="45"/>
          <note len="12" pos="144" pan="0" vol="193" key="45"/>
          <note len="12" pos="156" pan="0" vol="193" key="45"/>
          <note len="12" pos="168" pan="0" vol="193" key="45"/>
          <note len="12" pos="180" pan="0" vol="193" key="45"/>
          <note len="12" pos="192" pan="0" vol="193" key="38"/>
          <note len="12" pos="192" pan="0" vol="193" key="0"/>
          <note len="12" pos="204" pan="0" vol="193" key="37"/>
          <note len="12" pos="204" pan="0" vol="193" key="1"/>
          <note len="12" pos="216" pan="0" vol="193" key="37"/>
          <note len="12" pos="228" pan="0" vol="193" key="37"/>
          <note len="12" pos="240" pan="0" vol="193" key="37"/>
          <note len="12" pos="252" pan="0" vol="193" key="37"/>
          <note len="12" pos="264" pan="0" vol="193" key="38"/>
          <note len="12" pos="264" pan="0" vol="193" key="0"/>
          <note len="12" pos="276" pan="0" vol="193" key="37"/>
          <note len="12" pos="276" pan="0" vol="193" key="1"/>
          <note len="12" pos="288" pan="0" vol="193" key="37"/>
          <note len="12" pos="300" pan="0" vol="193" key="37"/>
          <note len="12" pos="312" pan="0" vol="193" key="37"/>
          <note len="12" pos="324" pan="0" vol="193" key="37"/>
          <note len="12" pos="336" pan="0" vol="193" key="38"/>
          <note len="12" pos="348" pan="0" vol="193" key="41"/>
          <note len="12" pos="360" pan="0" vol="193" key="42"/>
          <note len="12" pos="372" pan="0" vol="193" key="44"/>
          <note len="24" pos="384" pan="0" vol="193" key="42"/>
          <note len="12" pos="384" pan="0" vol="193" key="0"/>
          <note len="12" pos="396" pan="0" vol="193" key="1"/>
          <note len="12" pos="408" pan="0" vol="193" key="42"/>
          <note len="12" pos="420" pan="0" vol="193" key="42"/>
          <note len="12" pos="432" pan="0" vol="193" key="42"/>
          <note len="12" pos="444" pan="0" vol="193" key="42"/>
          <note len="12" pos="456" pan="0" vol="193" key="42"/>
          <note len="12" pos="468" pan="0" vol="193" key="42"/>
          <note len="24" pos="480" pan="0" vol="193" key="42"/>
          <note len="12" pos="480" pan="0" vol="193" key="0"/>
          <note len="12" pos="492" pan="0" vol="193" key="1"/>
          <note len="12" pos="504" pan="0" vol="193" key="42"/>
          <note len="12" pos="516" pan="0" vol="193" key="42"/>
          <note len="12" pos="528" pan="0" vol="193" key="42"/>
          <note len="12" pos="540" pan="0" vol="193" key="42"/>
          <note len="12" pos="552" pan="0" vol="193" key="42"/>
          <note len="12" pos="564" pan="0" vol="193" key="42"/>
          <note len="24" pos="576" pan="0" vol="193" key="42"/>
          <note len="12" pos="576" pan="0" vol="193" key="0"/>
          <note len="12" pos="588" pan="0" vol="193" key="1"/>
          <note len="12" pos="600" pan="0" vol="193" key="42"/>
          <note len="12" pos="612" pan="0" vol="193" key="42"/>
          <note len="24" pos="624" pan="0" vol="193" key="42"/>
          <note len="12" pos="624" pan="0" vol="193" key="0"/>
          <note len="12" pos="636" pan="0" vol="193" key="1"/>
          <note len="12" pos="648" pan="0" vol="193" key="42"/>
          <note len="12" pos="660" pan="0" vol="193" key="42"/>
          <note len="24" pos="672" pan="0" vol="193" key="42"/>
          <note len="12" pos="672" pan="0" vol="193" key="0"/>
          <note len="12" pos="684" pan="0" vol="193" key="1"/>
          <note len="24" pos="696" pan="0" vol="193" key="42"/>
          <note len="12" pos="720" pan="0" vol="193" key="42"/>
          <note len="12" pos="732" pan="0" vol="193" key="42"/>
          <note len="12" pos="744" pan="0" vol="193" key="42"/>
          <note len="12" pos="756" pan="0" vol="193" key="42"/>
        </pattern>
        <pattern pos="12288" muted="0" steps="16" type="1" name="">
          <note len="12" pos="0" pan="0" vol="193" key="42"/>
          <note len="12" pos="0" pan="0" vol="193" key="1"/>
          <note len="12" pos="12" pan="0" vol="193" key="42"/>
          <note len="12" pos="24" pan="0" vol="193" key="42"/>
          <note len="12" pos="36" pan="0" vol="193" key="42"/>
          <note len="12" pos="48" pan="0" vol="193" key="42"/>
          <note len="12" pos="60" pan="0" vol="193" key="42"/>
          <note len="12" pos="72" pan="0" vol="193" key="42"/>
          <note len="12" pos="84" pan="0" vol="193" key="42"/>
          <note len="12" pos="96" pan="0" vol="193" key="42"/>
          <note len="12" pos="108" pan="0" vol="193" key="42"/>
          <note len="12" pos="120" pan="0" vol="193" key="42"/>
          <note len="12" pos="132" pan="0" vol="193" key="42"/>
          <note len="12" pos="144" pan="0" vol="193" key="42"/>
          <note len="12" pos="156" pan="0" vol="193" key="42"/>
          <note len="12" pos="168" pan="0" vol="193" key="42"/>
          <note len="12" pos="180" pan="0" vol="193" key="42"/>
          <note len="12" pos="192" pan="0" vol="193" key="42"/>
          <note len="12" pos="204" pan="0" vol="193" key="42"/>
          <note len="12" pos="216" pan="0" vol="193" key="42"/>
          <note len="12" pos="228" pan="0" vol="193" key="42"/>
          <note len="12" pos="240" pan="0" vol="193" key="42"/>
          <note len="12" pos="252" pan="0" vol="193" key="42"/>
          <note len="12" pos="264" pan="0" vol="193" key="42"/>
          <note len="12" pos="276" pan="0" vol="193" key="42"/>
          <note len="12" pos="288" pan="0" vol="193" key="42"/>
          <note len="12" pos="300" pan="0" vol="193" key="42"/>
          <note len="12" pos="312" pan="0" vol="193" key="42"/>
          <note len="12" pos="324" pan="0" vol="193" key="42"/>
          <note len="12" pos="336" pan="0" vol="193" key="42"/>
          <note len="12" pos="348" pan="0" vol="193" key="42"/>
          <note len="12" pos="360" pan="0" vol="193" key="42"/>
          <note len="12" pos="372" pan="0" vol="193" key="42"/>
          <note len="12" pos="384" pan="0" vol="193" key="37"/>
          <note len="12" pos="396" pan="0" vol="193" key="37"/>
          <note len="12" pos="408" pan="0" vol="193" key="37"/>
          <note len="12" pos="420" pan="0" vol="193" key="37"/>
          <note len="12" pos="432" pan="0" vol="193" key="37"/>
          <note len="12" pos="444" pan="0" vol="193" key="37"/>
          <note len="12" pos="456" pan="0" vol="193" key="37"/>
          <note len="12" pos="468" pan="0" vol="193" key="37"/>
          <note len="12" pos="480" pan="0" vol="193" key="37"/>
          <note len="12" pos="492" pan="0" vol="193" key="37"/>
          <note len="12" pos="504" pan="0" vol="193" key="37"/>
          <note len="12" pos="516" pan="0" vol="193" key="37"/>
          <note len="12" pos="528" pan="0" vol="193" key="37"/>
          <note len="12" pos="540" pan="0" vol="193" key="37"/>
          <note len="12" pos="552" pan="0" vol="193" key="37"/>
          <note len="12" pos="564" pan="0" vol="193" key="37"/>
          <note len="12" pos="576" pan="0" vol="193" key="37"/>
          <note len="12" pos="588" pan="0" vol="193" key="37"/>
          <note len="12" pos="600" pan="0" vol="193" key="37"/>
          <note len="12" pos="612" pan="0" vol="193" key="37"/>
          <note len="12" pos="624" pan="0" vol="193" key="37"/>
          <note len="12" pos="636" pan="0" vol="193" key="37"/>
          <note len="12" pos="648" pan="0" vol="193" key="37"/>
          <note len="12" pos="660" pan="0" vol="193" key="37"/>
          <note len="12" pos="672" pan="0" vol="193" key="37"/>
          <note len="12" pos="684" pan="0" vol="193" key="37"/>
          <note len="12" pos="696" pan="0" vol="193" key="37"/>
          <note len="12" pos="708" pan="0" vol="193" key="37"/>
          <note len="12" pos="720" pan="0" vol="193" key="37"/>
          <note len="12" pos="732" pan="0" vol="193" key="37"/>
          <note len="12" pos="744" pan="0" vol="193" key="37"/>
          <note len="12" pos="756" pan="0" vol="193" key="37"/>
        </pattern>
        <pattern pos="13056" muted="0" steps="16" type="1" name="">
          <note len="12" pos="0" pan="0" vol="193" key="42"/>
          <note len="12" pos="0" pan="0" vol="193" key="1"/>
          <note len="12" pos="12" pan="0" vol="193" key="42"/>
          <note len="12" pos="24" pan="0" vol="193" key="42"/>
          <note len="12" pos="36" pan="0" vol="193" key="42"/>
          <note len="12" pos="48" pan="0" vol="193" key="42"/>
          <note len="12" pos="60" pan="0" vol="193" key="42"/>
          <note len="12" pos="72" pan="0" vol="193" key="42"/>
          <note len="12" pos="84" pan="0" vol="193" key="42"/>
          <note len="12" pos="96" pan="0" vol="193" key="42"/>
          <note len="12" pos="108" pan="0" vol="193" key="42"/>
          <note len="12" pos="120" pan="0" vol="193" key="42"/>
          <note len="12" pos="132" pan="0" vol="193" key="42"/>
          <note len="12" pos="144" pan="0" vol="193" key="42"/>
          <note len="12" pos="156" pan="0" vol="193" key="42"/>
          <note len="12" pos="168" pan="0" vol="193" key="42"/>
          <note len="12" pos="180" pan="0" vol="193" key="42"/>
          <note len="12" pos="192" pan="0" vol="193" key="42"/>
          <note len="12" pos="204" pan="0" vol="193" key="42"/>
          <note len="12" pos="216" pan="0" vol="193" key="42"/>
          <note len="12" pos="228" pan="0" vol="193" key="42"/>
          <note len="12" pos="240" pan="0" vol="193" key="42"/>
          <note len="12" pos="252" pan="0" vol="193" key="42"/>
          <note len="12" pos="264" pan="0" vol="193" key="42"/>
          <note len="12" pos="276" pan="0" vol="193" key="42"/>
          <note len="12" pos="288" pan="0" vol="193" key="42"/>
          <note len="12" pos="300" pan="0" vol="193" key="42"/>
          <note len="12" pos="312" pan="0" vol="193" key="42"/>
          <note len="12" pos="324" pan="0" vol="193" key="42"/>
          <note len="12" pos="336" pan="0" vol="193" key="42"/>
          <note len="12" pos="348" pan="0" vol="193" key="42"/>
          <note len="12" pos="360" pan="0" vol="193" key="42"/>
          <note len="12" pos="372" pan="0" vol="193" key="42"/>
          <note len="12" pos="384" pan="0" vol="193" key="37"/>
          <note len="12" pos="396" pan="0" vol="193" key="37"/>
          <note len="12" pos="408" pan="0" vol="193" key="37"/>
          <note len="12" pos="420" pan="0" vol="193" key="37"/>
          <note len="12" pos="432" pan="0" vol="193" key="37"/>
          <note len="12" pos="444" pan="0" vol="193" key="37"/>
          <note len="12" pos="456" pan="0" vol="193" key="37"/>
          <note len="12" pos="468" pan="0" vol="193" key="37"/>
          <note len="12" pos="480" pan="0" vol="193" key="37"/>
          <note len="12" pos="492" pan="0" vol="193" key="37"/>
          <note len="12" pos="504" pan="0" vol="193" key="37"/>
          <note len="12" pos="516" pan="0" vol="193" key="37"/>
          <note len="12" pos="528" pan="0" vol="193" key="37"/>
          <note len="12" pos="540" pan="0" vol="193" key="37"/>
          <note len="12" pos="552" pan="0" vol="193" key="37"/>
          <note len="12" pos="564" pan="0" vol="193" key="37"/>
          <note len="12" pos="576" pan="0" vol="193" key="37"/>
          <note len="12" pos="588" pan="0" vol="193" key="37"/>
          <note len="12" pos="600" pan="0" vol="193" key="37"/>
          <note len="12" pos="612" pan="0" vol="193" key="37"/>
          <note len="12" pos="624" pan="0" vol="193" key="37"/>
          <note len="12" pos="636" pan="0" vol="193" key="37"/>
          <note len="12" pos="648" pan="0" vol="193" key="37"/>
          <note len="12" pos="660" pan="0" vol="193" key="37"/>
          <note len="12" pos="672" pan="0" vol="193" key="37"/>
          <note len="12" pos="684" pan="0" vol="193" key="37"/>
          <note len="12" pos="696" pan="0" vol="193" key="37"/>
          <note len="12" pos="708" pan="0" vol="193" key="37"/>
          <note len="12" pos="720" pan="0" vol="193" key="37"/>
          <note len="12" pos="732" pan="0" vol="193" key="37"/>
          <note len="12" pos="744" pan="0" vol="193" key="37"/>
          <note len="12" pos="756" pan="0" vol="193" key="37"/>
        </pattern>
        <pattern pos="16896" muted="0" steps="16" type="1" name="">
          <note len="24" pos="0" pan="0" vol="193" key="47"/>
          <note len="12" pos="0" pan="0" vol="193" key="1"/>
          <note len="24" pos="24" pan="0" vol="193" key="50"/>
          <note len="24" pos="48" pan="0" vol="193" key="49"/>
          <note len="24" pos="72" pan="0" vol="193" key="50"/>
          <note len="24" pos="96" pan="0" vol="193" key="47"/>
          <note len="24" pos="120" pan="0" vol="193" key="50"/>
          <note len="24" pos="144" pan="0" vol="193" key="49"/>
          <note len="24" pos="168" pan="0" vol="193" key="50"/>
          <note len="24" pos="192" pan="0" vol="193" key="40"/>
          <note len="24" pos="216" pan="0" vol="193" key="44"/>
          <note len="24" pos="240" pan="0" vol="193" key="42"/>
          <note len="24" pos="264" pan="0" vol="193" key="44"/>
          <note len="24" pos="288" pan="0" vol="193" key="40"/>
          <note len="24" pos="312" pan="0" vol="193" key="44"/>
          <note len="24" pos="336" pan="0" vol="193" key="42"/>
          <note len="24" pos="360" pan="0" vol="193" key="44"/>
          <note len="24" pos="384" pan="0" vol="193" key="45"/>
          <note len="24" pos="408" pan="0" vol="193" key="49"/>
          <note len="24" pos="432" pan="0" vol="193" key="47"/>
          <note len="24" pos="456" pan="0" vol="193" key="49"/>
          <note len="24" pos="480" pan="0" vol="193" key="45"/>
          <note len="24" pos="504" pan="0" vol="193" key="49"/>
          <note len="24" pos="528" pan="0" vol="193" key="47"/>
          <note len="24" pos="552" pan="0" vol="193" key="49"/>
          <note len="24" pos="576" pan="0" vol="193" key="38"/>
          <note len="24" pos="600" pan="0" vol="193" key="42"/>
          <note len="24" pos="624" pan="0" vol="193" key="40"/>
          <note len="24" pos="648" pan="0" vol="193" key="42"/>
          <note len="24" pos="672" pan="0" vol="193" key="38"/>
          <note len="24" pos="696" pan="0" vol="193" key="42"/>
          <note len="24" pos="720" pan="0" vol="193" key="40"/>
          <note len="24" pos="744" pan="0" vol="193" key="42"/>
          <note len="24" pos="768" pan="0" vol="193" key="44"/>
          <note len="24" pos="792" pan="0" vol="193" key="47"/>
          <note len="24" pos="816" pan="0" vol="193" key="45"/>
          <note len="24" pos="840" pan="0" vol="193" key="47"/>
          <note len="24" pos="864" pan="0" vol="193" key="41"/>
          <note len="24" pos="888" pan="0" vol="193" key="44"/>
          <note len="24" pos="912" pan="0" vol="193" key="42"/>
          <note len="24" pos="936" pan="0" vol="193" key="44"/>
          <note len="24" pos="960" pan="0" vol="193" key="37"/>
          <note len="24" pos="960" pan="0" vol="193" key="0"/>
          <note len="12" pos="984" pan="0" vol="193" key="37"/>
          <note len="24" pos="984" pan="0" vol="193" key="1"/>
          <note len="12" pos="996" pan="0" vol="193" key="37"/>
          <note len="12" pos="1008" pan="0" vol="193" key="37"/>
          <note len="12" pos="1020" pan="0" vol="193" key="37"/>
          <note len="24" pos="1032" pan="0" vol="193" key="37"/>
          <note len="24" pos="1032" pan="0" vol="193" key="0"/>
          <note len="12" pos="1056" pan="0" vol="193" key="37"/>
          <note len="24" pos="1056" pan="0" vol="193" key="1"/>
          <note len="12" pos="1068" pan="0" vol="193" key="37"/>
          <note len="12" pos="1080" pan="0" vol="193" key="41"/>
          <note len="12" pos="1092" pan="0" vol="193" key="41"/>
          <note len="12" pos="1104" pan="0" vol="193" key="42"/>
          <note len="12" pos="1116" pan="0" vol="193" key="42"/>
          <note len="12" pos="1128" pan="0" vol="193" key="44"/>
          <note len="12" pos="1140" pan="0" vol="193" key="44"/>
          <note len="24" pos="1152" pan="0" vol="193" key="42"/>
          <note len="24" pos="1152" pan="0" vol="193" key="0"/>
          <note len="12" pos="1176" pan="0" vol="193" key="42"/>
          <note len="24" pos="1176" pan="0" vol="193" key="1"/>
          <note len="12" pos="1188" pan="0" vol="193" key="42"/>
          <note len="12" pos="1200" pan="0" vol="193" key="42"/>
          <note len="12" pos="1212" pan="0" vol="193" key="42"/>
          <note len="12" pos="1224" pan="0" vol="193" key="42"/>
          <note len="12" pos="1236" pan="0" vol="193" key="42"/>
          <note len="24" pos="1248" pan="0" vol="193" key="42"/>
          <note len="24" pos="1248" pan="0" vol="193" key="0"/>
          <note len="24" pos="1272" pan="0" vol="193" key="42"/>
          <note len="12" pos="1296" pan="0" vol="193" key="42"/>
          <note len="24" pos="1296" pan="0" vol="193" key="1"/>
          <note len="12" pos="1308" pan="0" vol="193" key="42"/>
          <note len="12" pos="1320" pan="0" vol="193" key="42"/>
          <note len="12" pos="1332" pan="0" vol="193" key="42"/>
          <note len="24" pos="1344" pan="0" vol="193" key="42"/>
          <note len="24" pos="1344" pan="0" vol="193" key="0"/>
          <note len="12" pos="1368" pan="0" vol="193" key="42"/>
          <note len="24" pos="1368" pan="0" vol="193" key="1"/>
          <note len="12" pos="1380" pan="0" vol="193" key="42"/>
          <note len="24" pos="1392" pan="0" vol="193" key="42"/>
          <note len="24" pos="1392" pan="0" vol="193" key="0"/>
          <note len="12" pos="1416" pan="0" vol="193" key="42"/>
          <note len="24" pos="1416" pan="0" vol="193" key="1"/>
          <note len="12" pos="1428" pan="0" vol="193" key="42"/>
          <note len="24" pos="1440" pan="0" vol="193" key="42"/>
          <note len="24" pos="1440" pan="0" vol="193" key="0"/>
          <note len="24" pos="1464" pan="0" vol="193" key="42"/>
          <note len="12" pos="1488" pan="0" vol="193" key="42"/>
          <note len="24" pos="1488" pan="0" vol="193" key="1"/>
          <note len="12" pos="1500" pan="0" vol="193" key="42"/>
          <note len="12" pos="1512" pan="0" vol="193" key="42"/>
          <note len="12" pos="1524" pan="0" vol="193" key="42"/>
        </pattern>
        <pattern pos="16128" muted="0" steps="16" type="1" name="">
          <note len="12" pos="0" pan="0" vol="193" key="45"/>
          <note len="12" pos="0" pan="0" vol="193" key="1"/>
          <note len="12" pos="12" pan="0" vol="193" key="45"/>
          <note len="12" pos="24" pan="0" vol="193" key="45"/>
          <note len="12" pos="36" pan="0" vol="193" key="45"/>
          <note len="12" pos="48" pan="0" vol="193" key="45"/>
          <note len="12" pos="60" pan="0" vol="193" key="45"/>
          <note len="12" pos="72" pan="0" vol="193" key="45"/>
          <note len="12" pos="84" pan="0" vol="193" key="45"/>
          <note len="12" pos="96" pan="0" vol="193" key="45"/>
          <note len="12" pos="108" pan="0" vol="193" key="45"/>
          <note len="12" pos="120" pan="0" vol="193" key="45"/>
          <note len="12" pos="132" pan="0" vol="193" key="45"/>
          <note len="12" pos="144" pan="0" vol="193" key="45"/>
          <note len="12" pos="156" pan="0" vol="193" key="45"/>
          <note len="12" pos="168" pan="0" vol="193" key="45"/>
          <note len="12" pos="180" pan="0" vol="193" key="45"/>
          <note len="12" pos="192" pan="0" vol="193" key="38"/>
          <note len="12" pos="192" pan="0" vol="193" key="0"/>
          <note len="12" pos="204" pan="0" vol="193" key="37"/>
          <note len="12" pos="204" pan="0" vol="193" key="1"/>
          <note len="12" pos="216" pan="0" vol="193" key="37"/>
          <note len="12" pos="228" pan="0" vol="193" key="37"/>
          <note len="12" pos="240" pan="0" vol="193" key="37"/>
          <note len="12" pos="252" pan="0" vol="193" key="37"/>
          <note len="12" pos="264" pan="0" vol="193" key="38"/>
          <note len="12" pos="264" pan="0" vol="193" key="0"/>
          <note len="12" pos="276" pan="0" vol="193" key="37"/>
          <note len="12" pos="276" pan="0" vol="193" key="1"/>
          <note len="12" pos="288" pan="0" vol="193" key="37"/>
          <note len="12" pos="300" pan="0" vol="193" key="37"/>
          <note len="12" pos="312" pan="0" vol="193" key="37"/>
          <note len="12" pos="324" pan="0" vol="193" key="37"/>
          <note len="12" pos="336" pan="0" vol="193" key="38"/>
          <note len="12" pos="348" pan="0" vol="193" key="41"/>
          <note len="12" pos="360" pan="0" vol="193" key="42"/>
          <note len="12" pos="372" pan="0" vol="193" key="44"/>
          <note len="24" pos="384" pan="0" vol="193" key="42"/>
          <note len="12" pos="384" pan="0" vol="193" key="0"/>
          <note len="12" pos="396" pan="0" vol="193" key="1"/>
          <note len="12" pos="408" pan="0" vol="193" key="42"/>
          <note len="12" pos="420" pan="0" vol="193" key="42"/>
          <note len="12" pos="432" pan="0" vol="193" key="42"/>
          <note len="12" pos="444" pan="0" vol="193" key="42"/>
          <note len="12" pos="456" pan="0" vol="193" key="42"/>
          <note len="12" pos="468" pan="0" vol="193" key="42"/>
          <note len="24" pos="480" pan="0" vol="193" key="42"/>
          <note len="12" pos="480" pan="0" vol="193" key="0"/>
          <note len="12" pos="492" pan="0" vol="193" key="1"/>
          <note len="12" pos="504" pan="0" vol="193" key="42"/>
          <note len="12" pos="516" pan="0" vol="193" key="42"/>
          <note len="12" pos="528" pan="0" vol="193" key="42"/>
          <note len="12" pos="540" pan="0" vol="193" key="42"/>
          <note len="12" pos="552" pan="0" vol="193" key="42"/>
          <note len="12" pos="564" pan="0" vol="193" key="42"/>
          <note len="12" pos="576" pan="0" vol="193" key="42"/>
          <note len="12" pos="576" pan="0" vol="193" key="0"/>
          <note len="12" pos="588" pan="0" vol="193" key="42"/>
          <note len="12" pos="588" pan="0" vol="193" key="1"/>
          <note len="12" pos="600" pan="0" vol="193" key="42"/>
          <note len="12" pos="624" pan="0" vol="193" key="0"/>
          <note len="12" pos="636" pan="0" vol="193" key="1"/>
          <note len="12" pos="648" pan="0" vol="193" key="42"/>
          <note len="12" pos="660" pan="0" vol="193" key="42"/>
          <note len="12" pos="672" pan="0" vol="193" key="42"/>
          <note len="12" pos="672" pan="0" vol="193" key="0"/>
          <note len="12" pos="684" pan="0" vol="193" key="1"/>
        </pattern>
        <pattern pos="18432" muted="0" steps="16" type="1" name="">
          <note len="12" pos="0" pan="0" vol="193" key="47"/>
          <note len="12" pos="0" pan="0" vol="193" key="1"/>
          <note len="12" pos="12" pan="0" vol="193" key="47"/>
          <note len="12" pos="24" pan="0" vol="193" key="50"/>
          <note len="12" pos="36" pan="0" vol="193" key="50"/>
          <note len="12" pos="48" pan="0" vol="193" key="49"/>
          <note len="12" pos="60" pan="0" vol="193" key="49"/>
          <note len="12" pos="72" pan="0" vol="193" key="50"/>
          <note len="12" pos="84" pan="0" vol="193" key="50"/>
          <note len="12" pos="96" pan="0" vol="193" key="47"/>
          <note len="12" pos="108" pan="0" vol="193" key="47"/>
          <note len="12" pos="120" pan="0" vol="193" key="50"/>
          <note len="12" pos="132" pan="0" vol="193" key="50"/>
          <note len="12" pos="144" pan="0" vol="193" key="49"/>
          <note len="12" pos="156" pan="0" vol="193" key="49"/>
          <note len="12" pos="168" pan="0" vol="193" key="50"/>
          <note len="12" pos="180" pan="0" vol="193" key="50"/>
          <note len="12" pos="192" pan="0" vol="193" key="40"/>
          <note len="12" pos="204" pan="0" vol="193" key="40"/>
          <note len="12" pos="216" pan="0" vol="193" key="44"/>
          <note len="12" pos="228" pan="0" vol="193" key="44"/>
          <note len="12" pos="240" pan="0" vol="193" key="42"/>
          <note len="12" pos="252" pan="0" vol="193" key="42"/>
          <note len="12" pos="264" pan="0" vol="193" key="44"/>
          <note len="12" pos="276" pan="0" vol="193" key="44"/>
          <note len="12" pos="288" pan="0" vol="193" key="40"/>
          <note len="12" pos="300" pan="0" vol="193" key="40"/>
          <note len="12" pos="312" pan="0" vol="193" key="44"/>
          <note len="12" pos="324" pan="0" vol="193" key="44"/>
          <note len="12" pos="336" pan="0" vol="193" key="42"/>
          <note len="12" pos="348" pan="0" vol="193" key="42"/>
          <note len="12" pos="360" pan="0" vol="193" key="44"/>
          <note len="12" pos="372" pan="0" vol="193" key="44"/>
          <note len="12" pos="384" pan="0" vol="193" key="45"/>
          <note len="12" pos="396" pan="0" vol="193" key="45"/>
          <note len="12" pos="408" pan="0" vol="193" key="49"/>
          <note len="12" pos="420" pan="0" vol="193" key="49"/>
          <note len="12" pos="432" pan="0" vol="193" key="47"/>
          <note len="12" pos="444" pan="0" vol="193" key="47"/>
          <note len="12" pos="456" pan="0" vol="193" key="49"/>
          <note len="12" pos="468" pan="0" vol="193" key="49"/>
          <note len="12" pos="480" pan="0" vol="193" key="45"/>
          <note len="12" pos="492" pan="0" vol="193" key="45"/>
          <note len="12" pos="504" pan="0" vol="193" key="49"/>
          <note len="12" pos="516" pan="0" vol="193" key="49"/>
          <note len="12" pos="528" pan="0" vol="193" key="47"/>
          <note len="12" pos="540" pan="0" vol="193" key="47"/>
          <note len="12" pos="552" pan="0" vol="193" key="49"/>
          <note len="12" pos="564" pan="0" vol="193" key="49"/>
          <note len="12" pos="576" pan="0" vol="193" key="38"/>
          <note len="12" pos="588" pan="0" vol="193" key="38"/>
          <note len="12" pos="600" pan="0" vol="193" key="42"/>
          <note len="12" pos="612" pan="0" vol="193" key="42"/>
          <note len="12" pos="624" pan="0" vol="193" key="40"/>
          <note len="12" pos="636" pan="0" vol="193" key="40"/>
          <note len="12" pos="648" pan="0" vol="193" key="42"/>
          <note len="12" pos="660" pan="0" vol="193" key="42"/>
          <note len="12" pos="672" pan="0" vol="193" key="38"/>
          <note len="12" pos="684" pan="0" vol="193" key="38"/>
          <note len="12" pos="696" pan="0" vol="193" key="42"/>
          <note len="12" pos="708" pan="0" vol="193" key="42"/>
          <note len="12" pos="720" pan="0" vol="193" key="40"/>
          <note len="12" pos="732" pan="0" vol="193" key="40"/>
          <note len="12" pos="744" pan="0" vol="193" key="42"/>
          <note len="12" pos="756" pan="0" vol="193" key="42"/>
          <note len="12" pos="768" pan="0" vol="193" key="38"/>
          <note len="12" pos="768" pan="0" vol="193" key="0"/>
          <note len="12" pos="780" pan="0" vol="193" key="37"/>
          <note len="12" pos="780" pan="0" vol="193" key="1"/>
          <note len="12" pos="792" pan="0" vol="193" key="35"/>
          <note len="12" pos="804" pan="0" vol="193" key="35"/>
          <note len="12" pos="816" pan="0" vol="193" key="35"/>
          <note len="12" pos="828" pan="0" vol="193" key="35"/>
          <note len="12" pos="840" pan="0" vol="193" key="38"/>
          <note len="12" pos="840" pan="0" vol="193" key="0"/>
          <note len="12" pos="852" pan="0" vol="193" key="37"/>
          <note len="12" pos="852" pan="0" vol="193" key="1"/>
          <note len="12" pos="864" pan="0" vol="193" key="35"/>
          <note len="12" pos="876" pan="0" vol="193" key="35"/>
          <note len="12" pos="888" pan="0" vol="193" key="35"/>
          <note len="12" pos="900" pan="0" vol="193" key="35"/>
          <note len="12" pos="912" pan="0" vol="193" key="38"/>
          <note len="12" pos="912" pan="0" vol="193" key="0"/>
          <note len="12" pos="924" pan="0" vol="193" key="37"/>
          <note len="12" pos="924" pan="0" vol="193" key="1"/>
          <note len="12" pos="936" pan="0" vol="193" key="35"/>
          <note len="12" pos="948" pan="0" vol="193" key="35"/>
          <note len="12" pos="960" pan="0" vol="193" key="44"/>
          <note len="12" pos="972" pan="0" vol="193" key="44"/>
          <note len="12" pos="984" pan="0" vol="193" key="44"/>
          <note len="12" pos="996" pan="0" vol="193" key="44"/>
          <note len="12" pos="1008" pan="0" vol="193" key="48"/>
          <note len="12" pos="1020" pan="0" vol="193" key="48"/>
          <note len="12" pos="1032" pan="0" vol="193" key="48"/>
          <note len="12" pos="1044" pan="0" vol="193" key="48"/>
          <note len="12" pos="1056" pan="0" vol="193" key="49"/>
          <note len="12" pos="1068" pan="0" vol="193" key="49"/>
          <note len="12" pos="1080" pan="0" vol="193" key="49"/>
          <note len="12" pos="1092" pan="0" vol="193" key="49"/>
          <note len="12" pos="1104" pan="0" vol="193" key="51"/>
          <note len="12" pos="1116" pan="0" vol="193" key="51"/>
          <note len="12" pos="1128" pan="0" vol="193" key="51"/>
          <note len="12" pos="1140" pan="0" vol="193" key="51"/>
          <note len="24" pos="1152" pan="0" vol="193" key="49"/>
          <note len="12" pos="1152" pan="0" vol="193" key="0"/>
          <note len="12" pos="1164" pan="0" vol="193" key="1"/>
          <note len="12" pos="1176" pan="0" vol="193" key="37"/>
          <note len="12" pos="1188" pan="0" vol="193" key="37"/>
          <note len="12" pos="1200" pan="0" vol="193" key="37"/>
          <note len="12" pos="1212" pan="0" vol="193" key="37"/>
          <note len="12" pos="1224" pan="0" vol="193" key="37"/>
          <note len="12" pos="1236" pan="0" vol="193" key="37"/>
          <note len="12" pos="1248" pan="0" vol="193" key="37"/>
          <note len="12" pos="1260" pan="0" vol="193" key="37"/>
          <note len="24" pos="1272" pan="0" vol="193" key="49"/>
          <note len="12" pos="1272" pan="0" vol="193" key="0"/>
          <note len="12" pos="1284" pan="0" vol="193" key="1"/>
          <note len="12" pos="1296" pan="0" vol="193" key="37"/>
          <note len="12" pos="1308" pan="0" vol="193" key="37"/>
          <note len="12" pos="1320" pan="0" vol="193" key="37"/>
          <note len="12" pos="1332" pan="0" vol="193" key="37"/>
          <note len="24" pos="1344" pan="0" vol="193" key="49"/>
          <note len="12" pos="1344" pan="0" vol="193" key="0"/>
          <note len="12" pos="1356" pan="0" vol="193" key="1"/>
          <note len="12" pos="1368" pan="0" vol="193" key="37"/>
          <note len="12" pos="1380" pan="0" vol="193" key="37"/>
          <note len="12" pos="1392" pan="0" vol="193" key="37"/>
          <note len="12" pos="1404" pan="0" vol="193" key="37"/>
          <note len="12" pos="1416" pan="0" vol="193" key="37"/>
          <note len="12" pos="1428" pan="0" vol="193" key="37"/>
          <note len="12" pos="1440" pan="0" vol="193" key="37"/>
          <note len="12" pos="1452" pan="0" vol="193" key="37"/>
          <note len="24" pos="1464" pan="0" vol="193" key="49"/>
          <note len="12" pos="1464" pan="0" vol="193" key="0"/>
          <note len="12" pos="1476" pan="0" vol="193" key="1"/>
          <note len="12" pos="1488" pan="0" vol="193" key="37"/>
          <note len="12" pos="1500" pan="0" vol="193" key="37"/>
          <note len="12" pos="1512" pan="0" vol="193" key="37"/>
          <note len="12" pos="1524" pan="0" vol="193" key="37"/>
        </pattern>
        <pattern pos="19968" muted="0" steps="16" type="1" name="">
          <note len="12" pos="0" pan="0" vol="193" key="38"/>
          <note len="12" pos="0" pan="0" vol="193" key="0"/>
          <note len="12" pos="12" pan="0" vol="193" key="37"/>
          <note len="12" pos="24" pan="0" vol="193" key="37"/>
          <note len="12" pos="24" pan="0" vol="193" key="1"/>
          <note len="12" pos="36" pan="0" vol="193" key="37"/>
          <note len="12" pos="48" pan="0" vol="193" key="37"/>
          <note len="12" pos="60" pan="0" vol="193" key="37"/>
          <note len="12" pos="72" pan="0" vol="193" key="37"/>
          <note len="12" pos="84" pan="0" vol="193" key="37"/>
          <note len="12" pos="96" pan="0" vol="193" key="47"/>
          <note len="12" pos="96" pan="0" vol="193" key="0"/>
          <note len="12" pos="108" pan="0" vol="193" key="49"/>
          <note len="12" pos="120" pan="0" vol="193" key="37"/>
          <note len="12" pos="120" pan="0" vol="193" key="1"/>
          <note len="12" pos="132" pan="0" vol="193" key="37"/>
          <note len="12" pos="144" pan="0" vol="193" key="37"/>
          <note len="12" pos="156" pan="0" vol="193" key="37"/>
          <note len="12" pos="168" pan="0" vol="193" key="37"/>
          <note len="12" pos="180" pan="0" vol="193" key="37"/>
          <note len="12" pos="192" pan="0" vol="193" key="38"/>
          <note len="12" pos="192" pan="0" vol="193" key="0"/>
          <note len="12" pos="204" pan="0" vol="193" key="37"/>
          <note len="12" pos="216" pan="0" vol="193" key="37"/>
          <note len="12" pos="216" pan="0" vol="193" key="1"/>
          <note len="12" pos="228" pan="0" vol="193" key="37"/>
          <note len="12" pos="240" pan="0" vol="193" key="37"/>
          <note len="12" pos="252" pan="0" vol="193" key="37"/>
          <note len="12" pos="264" pan="0" vol="193" key="37"/>
          <note len="12" pos="276" pan="0" vol="193" key="37"/>
          <note len="12" pos="288" pan="0" vol="193" key="47"/>
          <note len="12" pos="288" pan="0" vol="193" key="0"/>
          <note len="12" pos="300" pan="0" vol="193" key="49"/>
          <note len="12" pos="312" pan="0" vol="193" key="37"/>
          <note len="12" pos="312" pan="0" vol="193" key="1"/>
          <note len="12" pos="324" pan="0" vol="193" key="37"/>
          <note len="12" pos="336" pan="0" vol="193" key="37"/>
          <note len="12" pos="348" pan="0" vol="193" key="37"/>
          <note len="12" pos="360" pan="0" vol="193" key="37"/>
          <note len="12" pos="372" pan="0" vol="193" key="37"/>
        </pattern>
        <pattern pos="20352" muted="0" steps="16" type="1" name="">
          <note len="12" pos="0" pan="0" vol="193" key="49"/>
          <note len="24" pos="0" pan="0" vol="193" key="1"/>
          <note len="12" pos="12" pan="0" vol="193" key="47"/>
          <note len="12" pos="24" pan="0" vol="193" key="45"/>
          <note len="12" pos="36" pan="0" vol="193" key="44"/>
          <note len="12" pos="48" pan="0" vol="193" key="47"/>
          <note len="12" pos="60" pan="0" vol="193" key="45"/>
          <note len="12" pos="72" pan="0" vol="193" key="44"/>
          <note len="12" pos="84" pan="0" vol="193" key="42"/>
          <note len="12" pos="96" pan="0" vol="193" key="45"/>
          <note len="12" pos="108" pan="0" vol="193" key="44"/>
          <note len="12" pos="120" pan="0" vol="193" key="42"/>
          <note len="12" pos="132" pan="0" vol="193" key="41"/>
          <note len="12" pos="144" pan="0" vol="193" key="44"/>
          <note len="12" pos="156" pan="0" vol="193" key="42"/>
          <note len="12" pos="168" pan="0" vol="193" key="41"/>
          <note len="12" pos="180" pan="0" vol="193" key="38"/>
          <note len="12" pos="192" pan="0" vol="193" key="42"/>
          <note len="12" pos="204" pan="0" vol="193" key="41"/>
          <note len="12" pos="216" pan="0" vol="193" key="38"/>
          <note len="12" pos="228" pan="0" vol="193" key="37"/>
          <note len="12" pos="240" pan="0" vol="193" key="41"/>
          <note len="12" pos="252" pan="0" vol="193" key="38"/>
          <note len="12" pos="264" pan="0" vol="193" key="37"/>
          <note len="12" pos="276" pan="0" vol="193" key="36"/>
          <note len="24" pos="288" pan="0" vol="193" key="37"/>
          <note len="24" pos="288" pan="0" vol="193" key="0"/>
          <note len="12" pos="312" pan="0" vol="193" key="37"/>
          <note len="12" pos="312" pan="0" vol="193" key="1"/>
          <note len="12" pos="324" pan="0" vol="193" key="37"/>
          <note len="12" pos="336" pan="0" vol="193" key="37"/>
          <note len="12" pos="348" pan="0" vol="193" key="37"/>
          <note len="12" pos="360" pan="0" vol="193" key="37"/>
          <note len="12" pos="372" pan="0" vol="193" key="37"/>
        </pattern>
        <pattern pos="5760" muted="0" steps="16" type="1" name="">
          <note len="24" pos="0" pan="0" vol="193" key="44"/>
          <note len="24" pos="0" pan="0" vol="193" key="37"/>
          <note len="24" pos="0" pan="0" vol="193" key="0"/>
          <note len="12" pos="24" pan="0" vol="193" key="37"/>
          <note len="24" pos="24" pan="0" vol="193" key="1"/>
          <note len="12" pos="36" pan="0" vol="193" key="37"/>
          <note len="12" pos="48" pan="0" vol="193" key="37"/>
          <note len="12" pos="60" pan="0" vol="193" key="37"/>
          <note len="24" pos="72" pan="0" vol="193" key="44"/>
          <note len="24" pos="72" pan="0" vol="193" key="37"/>
          <note len="24" pos="72" pan="0" vol="193" key="0"/>
          <note len="12" pos="96" pan="0" vol="193" key="37"/>
          <note len="24" pos="96" pan="0" vol="193" key="1"/>
          <note len="12" pos="108" pan="0" vol="193" key="37"/>
          <note len="12" pos="120" pan="0" vol="193" key="37"/>
          <note len="12" pos="132" pan="0" vol="193" key="37"/>
          <note len="24" pos="144" pan="0" vol="193" key="44"/>
          <note len="24" pos="144" pan="0" vol="193" key="37"/>
          <note len="24" pos="144" pan="0" vol="193" key="37"/>
          <note len="24" pos="144" pan="0" vol="193" key="0"/>
          <note len="12" pos="168" pan="0" vol="193" key="37"/>
          <note len="24" pos="168" pan="0" vol="193" key="1"/>
          <note len="12" pos="180" pan="0" vol="193" key="37"/>
          <note len="12" pos="192" pan="0" vol="193" key="37"/>
          <note len="12" pos="204" pan="0" vol="193" key="38"/>
          <note len="12" pos="216" pan="0" vol="193" key="41"/>
          <note len="12" pos="228" pan="0" vol="193" key="42"/>
          <note len="12" pos="240" pan="0" vol="193" key="41"/>
          <note len="12" pos="252" pan="0" vol="193" key="42"/>
          <note len="12" pos="264" pan="0" vol="193" key="44"/>
          <note len="12" pos="276" pan="0" vol="193" key="45"/>
          <note len="12" pos="288" pan="0" vol="193" key="44"/>
          <note len="12" pos="300" pan="0" vol="193" key="45"/>
          <note len="12" pos="312" pan="0" vol="193" key="47"/>
          <note len="12" pos="324" pan="0" vol="193" key="49"/>
          <note len="12" pos="336" pan="0" vol="193" key="47"/>
          <note len="12" pos="348" pan="0" vol="193" key="49"/>
          <note len="12" pos="360" pan="0" vol="193" key="50"/>
          <note len="12" pos="372" pan="0" vol="193" key="53"/>
        </pattern>
        <pattern pos="9216" muted="0" steps="16" type="1" name="">
          <note len="192" pos="0" pan="0" vol="193" key="49"/>
          <note len="192" pos="0" pan="0" vol="193" key="42"/>
          <note len="24" pos="0" pan="0" vol="193" key="0"/>
          <note len="192" pos="192" pan="0" vol="193" key="49"/>
          <note len="192" pos="192" pan="0" vol="193" key="42"/>
          <note len="24" pos="372" pan="0" vol="193" key="0"/>
          <note len="48" pos="384" pan="0" vol="193" key="45"/>
          <note len="48" pos="384" pan="0" vol="193" key="38"/>
          <note len="24" pos="408" pan="0" vol="193" key="1"/>
          <note len="12" pos="432" pan="0" vol="193" key="38"/>
          <note len="12" pos="444" pan="0" vol="193" key="38"/>
          <note len="12" pos="456" pan="0" vol="193" key="38"/>
          <note len="12" pos="468" pan="0" vol="193" key="38"/>
          <note len="12" pos="480" pan="0" vol="193" key="38"/>
          <note len="12" pos="492" pan="0" vol="193" key="38"/>
          <note len="12" pos="504" pan="0" vol="193" key="38"/>
          <note len="12" pos="516" pan="0" vol="193" key="38"/>
          <note len="12" pos="528" pan="0" vol="193" key="38"/>
          <note len="12" pos="540" pan="0" vol="193" key="38"/>
          <note len="12" pos="552" pan="0" vol="193" key="38"/>
          <note len="12" pos="564" pan="0" vol="193" key="38"/>
          <note len="24" pos="576" pan="0" vol="193" key="38"/>
          <note len="24" pos="576" pan="0" vol="193" key="0"/>
          <note len="24" pos="588" pan="0" vol="193" key="1"/>
          <note len="12" pos="600" pan="0" vol="193" key="38"/>
          <note len="12" pos="612" pan="0" vol="193" key="38"/>
          <note len="12" pos="624" pan="0" vol="193" key="38"/>
          <note len="12" pos="636" pan="0" vol="193" key="38"/>
          <note len="24" pos="648" pan="0" vol="193" key="38"/>
          <note len="24" pos="648" pan="0" vol="193" key="0"/>
          <note len="24" pos="660" pan="0" vol="193" key="1"/>
          <note len="12" pos="672" pan="0" vol="193" key="38"/>
          <note len="12" pos="684" pan="0" vol="193" key="38"/>
          <note len="12" pos="696" pan="0" vol="193" key="38"/>
          <note len="12" pos="708" pan="0" vol="193" key="38"/>
          <note len="12" pos="720" pan="0" vol="193" key="38"/>
          <note len="12" pos="732" pan="0" vol="193" key="37"/>
          <note len="12" pos="744" pan="0" vol="193" key="38"/>
          <note len="12" pos="756" pan="0" vol="193" key="40"/>
        </pattern>
        <pattern pos="9984" muted="0" steps="16" type="1" name="">
          <note len="192" pos="0" pan="0" vol="193" key="49"/>
          <note len="192" pos="0" pan="0" vol="193" key="42"/>
          <note len="24" pos="0" pan="0" vol="193" key="0"/>
          <note len="192" pos="192" pan="0" vol="193" key="49"/>
          <note len="192" pos="192" pan="0" vol="193" key="42"/>
          <note len="24" pos="372" pan="0" vol="193" key="0"/>
          <note len="48" pos="384" pan="0" vol="193" key="52"/>
          <note len="48" pos="384" pan="0" vol="193" key="45"/>
          <note len="24" pos="408" pan="0" vol="193" key="1"/>
          <note len="12" pos="432" pan="0" vol="193" key="45"/>
          <note len="12" pos="444" pan="0" vol="193" key="45"/>
          <note len="12" pos="456" pan="0" vol="193" key="45"/>
          <note len="12" pos="468" pan="0" vol="193" key="45"/>
          <note len="12" pos="480" pan="0" vol="193" key="45"/>
          <note len="12" pos="492" pan="0" vol="193" key="45"/>
          <note len="12" pos="504" pan="0" vol="193" key="45"/>
          <note len="12" pos="516" pan="0" vol="193" key="45"/>
          <note len="12" pos="528" pan="0" vol="193" key="45"/>
          <note len="12" pos="540" pan="0" vol="193" key="45"/>
          <note len="12" pos="552" pan="0" vol="193" key="45"/>
          <note len="12" pos="564" pan="0" vol="193" key="45"/>
          <note len="24" pos="576" pan="0" vol="193" key="37"/>
          <note len="24" pos="576" pan="0" vol="193" key="0"/>
          <note len="24" pos="588" pan="0" vol="193" key="1"/>
          <note len="12" pos="600" pan="0" vol="193" key="37"/>
          <note len="12" pos="612" pan="0" vol="193" key="37"/>
          <note len="12" pos="624" pan="0" vol="193" key="37"/>
          <note len="12" pos="636" pan="0" vol="193" key="37"/>
          <note len="24" pos="648" pan="0" vol="193" key="37"/>
          <note len="24" pos="648" pan="0" vol="193" key="0"/>
          <note len="24" pos="660" pan="0" vol="193" key="1"/>
          <note len="12" pos="672" pan="0" vol="193" key="37"/>
          <note len="12" pos="684" pan="0" vol="193" key="37"/>
          <note len="12" pos="696" pan="0" vol="193" key="37"/>
          <note len="12" pos="708" pan="0" vol="193" key="37"/>
          <note len="12" pos="720" pan="0" vol="193" key="37"/>
          <note len="12" pos="732" pan="0" vol="193" key="37"/>
          <note len="12" pos="744" pan="0" vol="193" key="37"/>
          <note len="12" pos="756" pan="0" vol="193" key="37"/>
        </pattern>
        <pattern pos="10752" muted="0" steps="16" type="1" name="">
          <note len="192" pos="0" pan="0" vol="193" key="49"/>
          <note len="192" pos="0" pan="0" vol="193" key="42"/>
          <note len="24" pos="0" pan="0" vol="193" key="0"/>
          <note len="192" pos="192" pan="0" vol="193" key="49"/>
          <note len="192" pos="192" pan="0" vol="193" key="42"/>
          <note len="24" pos="372" pan="0" vol="193" key="0"/>
          <note len="48" pos="384" pan="0" vol="193" key="35"/>
          <note len="24" pos="408" pan="0" vol="193" key="1"/>
          <note len="12" pos="432" pan="0" vol="193" key="35"/>
          <note len="12" pos="444" pan="0" vol="193" key="35"/>
          <note len="12" pos="456" pan="0" vol="193" key="35"/>
          <note len="12" pos="468" pan="0" vol="193" key="35"/>
          <note len="12" pos="480" pan="0" vol="193" key="35"/>
          <note len="12" pos="492" pan="0" vol="193" key="35"/>
          <note len="12" pos="504" pan="0" vol="193" key="35"/>
          <note len="12" pos="516" pan="0" vol="193" key="35"/>
          <note len="12" pos="528" pan="0" vol="193" key="35"/>
          <note len="12" pos="540" pan="0" vol="193" key="35"/>
          <note len="12" pos="552" pan="0" vol="193" key="35"/>
          <note len="12" pos="564" pan="0" vol="193" key="35"/>
          <note len="24" pos="576" pan="0" vol="193" key="35"/>
          <note len="24" pos="576" pan="0" vol="193" key="0"/>
          <note len="24" pos="588" pan="0" vol="193" key="1"/>
          <note len="12" pos="600" pan="0" vol="193" key="35"/>
          <note len="12" pos="612" pan="0" vol="193" key="35"/>
          <note len="12" pos="624" pan="0" vol="193" key="35"/>
          <note len="12" pos="636" pan="0" vol="193" key="35"/>
          <note len="24" pos="648" pan="0" vol="193" key="35"/>
          <note len="24" pos="648" pan="0" vol="193" key="0"/>
          <note len="24" pos="660" pan="0" vol="193" key="1"/>
          <note len="12" pos="672" pan="0" vol="193" key="35"/>
          <note len="12" pos="684" pan="0" vol="193" key="35"/>
          <note len="12" pos="696" pan="0" vol="193" key="35"/>
          <note len="12" pos="708" pan="0" vol="193" key="35"/>
          <note len="12" pos="720" pan="0" vol="193" key="35"/>
          <note len="12" pos="732" pan="0" vol="193" key="34"/>
          <note len="12" pos="744" pan="0" vol="193" key="35"/>
          <note len="12" pos="756" pan="0" vol="193" key="37"/>
        </pattern>
        <pattern pos="13824" muted="0" steps="16" type="1" name="">
          <note len="192" pos="0" pan="0" vol="193" key="49"/>
          <note len="192" pos="0" pan="0" vol="193" key="42"/>
          <note len="24" pos="0" pan="0" vol="193" key="0"/>
          <note len="192" pos="192" pan="0" vol="193" key="49"/>
          <note len="192" pos="192" pan="0" vol="193" key="42"/>
          <note len="24" pos="372" pan="0" vol="193" key="0"/>
          <note len="48" pos="384" pan="0" vol="193" key="45"/>
          <note len="48" pos="384" pan="0" vol="193" key="38"/>
          <note len="24" pos="408" pan="0" vol="193" key="1"/>
          <note len="12" pos="432" pan="0" vol="193" key="38"/>
          <note len="12" pos="444" pan="0" vol="193" key="38"/>
          <note len="12" pos="456" pan="0" vol="193" key="38"/>
          <note len="12" pos="468" pan="0" vol="193" key="38"/>
          <note len="12" pos="480" pan="0" vol="193" key="38"/>
          <note len="12" pos="492" pan="0" vol="193" key="38"/>
          <note len="12" pos="504" pan="0" vol="193" key="38"/>
          <note len="12" pos="516" pan="0" vol="193" key="38"/>
          <note len="12" pos="528" pan="0" vol="193" key="38"/>
          <note len="12" pos="540" pan="0" vol="193" key="38"/>
          <note len="12" pos="552" pan="0" vol="193" key="38"/>
          <note len="12" pos="564" pan="0" vol="193" key="38"/>
          <note len="24" pos="576" pan="0" vol="193" key="38"/>
          <note len="24" pos="576" pan="0" vol="193" key="0"/>
          <note len="24" pos="588" pan="0" vol="193" key="1"/>
          <note len="12" pos="600" pan="0" vol="193" key="38"/>
          <note len="12" pos="612" pan="0" vol="193" key="38"/>
          <note len="12" pos="624" pan="0" vol="193" key="38"/>
          <note len="12" pos="636" pan="0" vol="193" key="38"/>
          <note len="24" pos="648" pan="0" vol="193" key="38"/>
          <note len="24" pos="648" pan="0" vol="193" key="0"/>
          <note len="24" pos="660" pan="0" vol="193" key="1"/>
          <note len="12" pos="672" pan="0" vol="193" key="38"/>
          <note len="12" pos="684" pan="0" vol="193" key="38"/>
          <note len="12" pos="696" pan="0" vol="193" key="38"/>
          <note len="12" pos="708" pan="0" vol="193" key="38"/>
          <note len="12" pos="720" pan="0" vol="193" key="38"/>
          <note len="12" pos="732" pan="0" vol="193" key="37"/>
          <note len="12" pos="744" pan="0" vol="193" key="38"/>
          <note len="12" pos="756" pan="0" vol="193" key="40"/>
        </pattern>
        <pattern pos="14592" muted="0" steps="16" type="1" name="">
          <note len="192" pos="0" pan="0" vol="193" key="49"/>
          <note len="192" pos="0" pan="0" vol="193" key="42"/>
          <note len="24" pos="0" pan="0" vol="193" key="0"/>
          <note len="192" pos="192" pan="0" vol="193" key="49"/>
          <note len="192" pos="192" pan="0" vol="193" key="42"/>
          <note len="24" pos="372" pan="0" vol="193" key="0"/>
          <note len="48" pos="384" pan="0" vol="193" key="52"/>
          <note len="48" pos="384" pan="0" vol="193" key="45"/>
          <note len="24" pos="408" pan="0" vol="193" key="1"/>
          <note len="12" pos="432" pan="0" vol="193" key="45"/>
          <note len="12" pos="444" pan="0" vol="193" key="45"/>
          <note len="12" pos="456" pan="0" vol="193" key="45"/>
          <note len="12" pos="468" pan="0" vol="193" key="45"/>
          <note len="12" pos="480" pan="0" vol="193" key="45"/>
          <note len="12" pos="492" pan="0" vol="193" key="45"/>
          <note len="12" pos="504" pan="0" vol="193" key="45"/>
          <note len="12" pos="516" pan="0" vol="193" key="45"/>
          <note len="12" pos="528" pan="0" vol="193" key="45"/>
          <note len="12" pos="540" pan="0" vol="193" key="45"/>
          <note len="12" pos="552" pan="0" vol="193" key="45"/>
          <note len="12" pos="564" pan="0" vol="193" key="45"/>
          <note len="24" pos="576" pan="0" vol="193" key="37"/>
          <note len="24" pos="576" pan="0" vol="193" key="0"/>
          <note len="24" pos="588" pan="0" vol="193" key="1"/>
          <note len="12" pos="600" pan="0" vol="193" key="37"/>
          <note len="12" pos="612" pan="0" vol="193" key="37"/>
          <note len="12" pos="624" pan="0" vol="193" key="37"/>
          <note len="12" pos="636" pan="0" vol="193" key="37"/>
          <note len="24" pos="648" pan="0" vol="193" key="37"/>
          <note len="24" pos="648" pan="0" vol="193" key="0"/>
          <note len="24" pos="660" pan="0" vol="193" key="1"/>
          <note len="12" pos="672" pan="0" vol="193" key="37"/>
          <note len="12" pos="684" pan="0" vol="193" key="37"/>
          <note len="12" pos="696" pan="0" vol="193" key="37"/>
          <note len="12" pos="708" pan="0" vol="193" key="37"/>
          <note len="12" pos="720" pan="0" vol="193" key="37"/>
          <note len="12" pos="732" pan="0" vol="193" key="37"/>
          <note len="12" pos="744" pan="0" vol="193" key="37"/>
          <note len="12" pos="756" pan="0" vol="193" key="37"/>
        </pattern>
        <pattern pos="15360" muted="0" steps="16" type="1" name="">
          <note len="192" pos="0" pan="0" vol="193" key="49"/>
          <note len="192" pos="0" pan="0" vol="193" key="42"/>
          <note len="24" pos="0" pan="0" vol="193" key="0"/>
          <note len="192" pos="192" pan="0" vol="193" key="49"/>
          <note len="192" pos="192" pan="0" vol="193" key="42"/>
          <note len="24" pos="372" pan="0" vol="193" key="0"/>
          <note len="48" pos="384" pan="0" vol="193" key="35"/>
          <note len="24" pos="408" pan="0" vol="193" key="1"/>
          <note len="12" pos="432" pan="0" vol="193" key="35"/>
          <note len="12" pos="444" pan="0" vol="193" key="35"/>
          <note len="12" pos="456" pan="0" vol="193" key="35"/>
          <note len="12" pos="468" pan="0" vol="193" key="35"/>
          <note len="12" pos="480" pan="0" vol="193" key="35"/>
          <note len="12" pos="492" pan="0" vol="193" key="35"/>
          <note len="12" pos="504" pan="0" vol="193" key="35"/>
          <note len="12" pos="516" pan="0" vol="193" key="35"/>
          <note len="12" pos="528" pan="0" vol="193" key="35"/>
          <note len="12" pos="540" pan="0" vol="193" key="35"/>
          <note len="12" pos="552" pan="0" vol="193" key="35"/>
          <note len="12" pos="564" pan="0" vol="193" key="35"/>
          <note len="24" pos="576" pan="0" vol="193" key="35"/>
          <note len="24" pos="576" pan="0" vol="193" key="0"/>
          <note len="24" pos="588" pan="0" vol="193" key="1"/>
          <note len="12" pos="600" pan="0" vol="193" key="35"/>
          <note len="12" pos="612" pan="0" vol="193" key="35"/>
          <note len="12" pos="624" pan="0" vol="193" key="35"/>
          <note len="12" pos="636" pan="0" vol="193" key="35"/>
          <note len="24" pos="648" pan="0" vol="193" key="35"/>
          <note len="24" pos="648" pan="0" vol="193" key="0"/>
          <note len="24" pos="660" pan="0" vol="193" key="1"/>
          <note len="12" pos="672" pan="0" vol="193" key="35"/>
          <note len="12" pos="684" pan="0" vol="193" key="35"/>
          <note len="12" pos="696" pan="0" vol="193" key="35"/>
          <note len="12" pos="708" pan="0" vol="193" key="35"/>
          <note len="12" pos="720" pan="0" vol="193" key="35"/>
          <note len="12" pos="732" pan="0" vol="193" key="34"/>
          <note len="12" pos="744" pan="0" vol="193" key="35"/>
          <note len="12" pos="756" pan="0" vol="193" key="37"/>
        </pattern>
        <pattern pos="0" muted="0" steps="16" type="1" name="">
          <note len="192" pos="0" pan="0" vol="193" key="49"/>
          <note len="192" pos="0" pan="0" vol="193" key="42"/>
          <note len="384" pos="0" pan="0" vol="193" key="0"/>
          <note len="192" pos="192" pan="0" vol="193" key="49"/>
          <note len="192" pos="192" pan="0" vol="193" key="42"/>
          <note len="192" pos="384" pan="0" vol="193" key="49"/>
          <note len="192" pos="384" pan="0" vol="193" key="41"/>
          <note len="192" pos="576" pan="0" vol="193" key="49"/>
          <note len="192" pos="576" pan="0" vol="193" key="41"/>
          <note len="192" pos="768" pan="0" vol="193" key="47"/>
          <note len="192" pos="768" pan="0" vol="193" key="40"/>
          <note len="192" pos="960" pan="0" vol="193" key="47"/>
          <note len="192" pos="960" pan="0" vol="193" key="40"/>
          <note len="192" pos="1152" pan="0" vol="193" key="47"/>
          <note len="192" pos="1152" pan="0" vol="193" key="39"/>
          <note len="192" pos="1344" pan="0" vol="193" key="47"/>
          <note len="192" pos="1344" pan="0" vol="193" key="39"/>
          <note len="192" pos="1536" pan="0" vol="193" key="45"/>
          <note len="192" pos="1536" pan="0" vol="193" key="38"/>
          <note len="192" pos="1728" pan="0" vol="193" key="45"/>
          <note len="192" pos="1728" pan="0" vol="193" key="38"/>
          <note len="192" pos="1920" pan="0" vol="193" key="45"/>
          <note len="192" pos="1920" pan="0" vol="193" key="37"/>
          <note len="192" pos="2112" pan="0" vol="193" key="45"/>
          <note len="192" pos="2112" pan="0" vol="193" key="37"/>
          <note len="192" pos="2304" pan="0" vol="193" key="44"/>
          <note len="192" pos="2304" pan="0" vol="193" key="36"/>
          <note len="192" pos="2496" pan="0" vol="193" key="44"/>
          <note len="192" pos="2496" pan="0" vol="193" key="36"/>
          <note len="192" pos="2688" pan="0" vol="193" key="44"/>
          <note len="192" pos="2688" pan="0" vol="193" key="37"/>
          <note len="48" pos="2880" pan="0" vol="193" key="45"/>
          <note len="48" pos="2880" pan="0" vol="193" key="38"/>
          <note len="48" pos="2880" pan="0" vol="193" key="0"/>
          <note len="48" pos="2928" pan="0" vol="193" key="44"/>
          <note len="48" pos="2928" pan="0" vol="193" key="37"/>
          <note len="48" pos="2952" pan="0" vol="193" key="1"/>
          <note len="12" pos="2976" pan="0" vol="193" key="41"/>
          <note len="12" pos="2988" pan="0" vol="193" key="41"/>
          <note len="12" pos="3000" pan="0" vol="193" key="42"/>
          <note len="12" pos="3012" pan="0" vol="193" key="42"/>
          <note len="12" pos="3024" pan="0" vol="193" key="44"/>
          <note len="12" pos="3036" pan="0" vol="193" key="44"/>
          <note len="12" pos="3048" pan="0" vol="193" key="41"/>
          <note len="12" pos="3060" pan="0" vol="193" key="41"/>
        </pattern>
        <pattern pos="8448" muted="0" steps="16" type="1" name="">
          <note len="192" pos="0" pan="0" vol="100" key="45"/>
          <note len="192" pos="0" pan="0" vol="100" key="38"/>
          <note len="12" pos="0" pan="0" vol="100" key="0"/>
          <note len="192" pos="192" pan="0" vol="100" key="45"/>
          <note len="192" pos="192" pan="0" vol="100" key="38"/>
          <note len="192" pos="384" pan="0" vol="100" key="47"/>
          <note len="192" pos="384" pan="0" vol="100" key="40"/>
          <note len="12" pos="564" pan="0" vol="100" key="1"/>
          <note len="12" pos="576" pan="0" vol="100" key="41"/>
          <note len="12" pos="588" pan="0" vol="100" key="41"/>
          <note len="12" pos="600" pan="0" vol="100" key="37"/>
          <note len="12" pos="612" pan="0" vol="100" key="37"/>
          <note len="12" pos="624" pan="0" vol="100" key="41"/>
          <note len="12" pos="636" pan="0" vol="100" key="41"/>
          <note len="12" pos="648" pan="0" vol="100" key="42"/>
          <note len="12" pos="660" pan="0" vol="100" key="42"/>
          <note len="12" pos="672" pan="0" vol="100" key="44"/>
          <note len="12" pos="684" pan="0" vol="100" key="44"/>
          <note len="12" pos="696" pan="0" vol="100" key="42"/>
          <note len="12" pos="708" pan="0" vol="100" key="42"/>
          <note len="12" pos="720" pan="0" vol="100" key="41"/>
          <note len="12" pos="732" pan="0" vol="100" key="41"/>
          <note len="12" pos="744" pan="0" vol="100" key="37"/>
          <note len="12" pos="756" pan="0" vol="100" key="37"/>
        </pattern>
        <pattern pos="20736" muted="0" steps="16" type="1" name="">
          <note len="192" pos="0" pan="0" vol="197" key="49"/>
          <note len="192" pos="0" pan="0" vol="197" key="42"/>
          <note len="12" pos="0" pan="0" vol="197" key="0"/>
          <note len="192" pos="192" pan="0" vol="197" key="49"/>
          <note len="192" pos="192" pan="0" vol="197" key="41"/>
          <note len="192" pos="384" pan="0" vol="197" key="47"/>
          <note len="192" pos="384" pan="0" vol="197" key="40"/>
          <note len="192" pos="576" pan="0" vol="197" key="47"/>
          <note len="192" pos="576" pan="0" vol="197" key="39"/>
          <note len="192" pos="768" pan="0" vol="197" key="45"/>
          <note len="192" pos="768" pan="0" vol="197" key="38"/>
          <note len="192" pos="960" pan="0" vol="197" key="45"/>
          <note len="192" pos="960" pan="0" vol="197" key="37"/>
          <note len="192" pos="1152" pan="0" vol="197" key="44"/>
          <note len="192" pos="1152" pan="0" vol="197" key="36"/>
          <note len="12" pos="1344" pan="0" vol="197" key="44"/>
          <note len="12" pos="1344" pan="0" vol="197" key="1"/>
          <note len="12" pos="1356" pan="0" vol="197" key="44"/>
          <note len="12" pos="1368" pan="0" vol="197" key="37"/>
          <note len="12" pos="1380" pan="0" vol="197" key="37"/>
          <note len="12" pos="1392" pan="0" vol="197" key="38"/>
          <note len="12" pos="1404" pan="0" vol="197" key="38"/>
          <note len="12" pos="1416" pan="0" vol="197" key="37"/>
          <note len="12" pos="1428" pan="0" vol="197" key="37"/>
          <note len="12" pos="1440" pan="0" vol="197" key="45"/>
          <note len="12" pos="1452" pan="0" vol="197" key="44"/>
          <note len="12" pos="1464" pan="0" vol="197" key="45"/>
          <note len="12" pos="1476" pan="0" vol="197" key="47"/>
          <note len="12" pos="1488" pan="0" vol="197" key="49"/>
          <note len="12" pos="1500" pan="0" vol="197" key="50"/>
          <note len="12" pos="1512" pan="0" vol="197" key="53"/>
          <note len="12" pos="1524" pan="0" vol="197" key="56"/>
        </pattern>
        <pattern pos="22272" muted="0" steps="16" type="1" name="">
          <note len="24" pos="0" pan="0" vol="197" key="49"/>
          <note len="24" pos="0" pan="0" vol="197" key="42"/>
          <note len="24" pos="0" pan="0" vol="197" key="0"/>
          <note len="12" pos="24" pan="0" vol="197" key="42"/>
          <note len="24" pos="24" pan="0" vol="197" key="1"/>
          <note len="12" pos="36" pan="0" vol="197" key="42"/>
          <note len="12" pos="48" pan="0" vol="197" key="42"/>
          <note len="12" pos="60" pan="0" vol="197" key="42"/>
          <note len="12" pos="72" pan="0" vol="197" key="42"/>
          <note len="12" pos="84" pan="0" vol="197" key="42"/>
          <note len="12" pos="96" pan="0" vol="197" key="42"/>
          <note len="12" pos="108" pan="0" vol="197" key="42"/>
          <note len="12" pos="120" pan="0" vol="197" key="42"/>
          <note len="12" pos="132" pan="0" vol="197" key="42"/>
          <note len="24" pos="144" pan="0" vol="197" key="49"/>
          <note len="24" pos="144" pan="0" vol="197" key="42"/>
          <note len="24" pos="144" pan="0" vol="197" key="0"/>
          <note len="12" pos="168" pan="0" vol="197" key="42"/>
          <note len="24" pos="168" pan="0" vol="197" key="1"/>
          <note len="12" pos="180" pan="0" vol="197" key="42"/>
          <note len="24" pos="192" pan="0" vol="197" key="48"/>
          <note len="24" pos="192" pan="0" vol="197" key="41"/>
          <note len="24" pos="192" pan="0" vol="197" key="0"/>
          <note len="12" pos="216" pan="0" vol="197" key="41"/>
          <note len="24" pos="216" pan="0" vol="197" key="1"/>
          <note len="12" pos="228" pan="0" vol="197" key="41"/>
          <note len="12" pos="240" pan="0" vol="197" key="41"/>
          <note len="12" pos="252" pan="0" vol="197" key="41"/>
          <note len="12" pos="264" pan="0" vol="197" key="41"/>
          <note len="12" pos="276" pan="0" vol="197" key="41"/>
          <note len="12" pos="288" pan="0" vol="197" key="41"/>
          <note len="12" pos="300" pan="0" vol="197" key="41"/>
          <note len="12" pos="312" pan="0" vol="197" key="41"/>
          <note len="12" pos="324" pan="0" vol="197" key="41"/>
          <note len="24" pos="336" pan="0" vol="197" key="48"/>
          <note len="24" pos="336" pan="0" vol="197" key="41"/>
          <note len="24" pos="336" pan="0" vol="197" key="0"/>
          <note len="12" pos="360" pan="0" vol="197" key="41"/>
          <note len="24" pos="360" pan="0" vol="197" key="1"/>
          <note len="12" pos="372" pan="0" vol="197" key="41"/>
          <note len="24" pos="384" pan="0" vol="197" key="47"/>
          <note len="24" pos="384" pan="0" vol="197" key="40"/>
          <note len="24" pos="384" pan="0" vol="197" key="0"/>
          <note len="12" pos="408" pan="0" vol="197" key="40"/>
          <note len="24" pos="408" pan="0" vol="197" key="1"/>
          <note len="12" pos="420" pan="0" vol="197" key="40"/>
          <note len="12" pos="432" pan="0" vol="197" key="40"/>
          <note len="12" pos="444" pan="0" vol="197" key="40"/>
          <note len="12" pos="456" pan="0" vol="197" key="40"/>
          <note len="12" pos="468" pan="0" vol="197" key="40"/>
          <note len="12" pos="480" pan="0" vol="197" key="40"/>
          <note len="12" pos="492" pan="0" vol="197" key="40"/>
          <note len="12" pos="504" pan="0" vol="197" key="40"/>
          <note len="12" pos="516" pan="0" vol="197" key="40"/>
          <note len="24" pos="528" pan="0" vol="197" key="47"/>
          <note len="24" pos="528" pan="0" vol="197" key="40"/>
          <note len="24" pos="528" pan="0" vol="197" key="0"/>
          <note len="12" pos="552" pan="0" vol="197" key="40"/>
          <note len="24" pos="552" pan="0" vol="197" key="1"/>
          <note len="12" pos="564" pan="0" vol="197" key="40"/>
          <note len="24" pos="576" pan="0" vol="197" key="47"/>
          <note len="24" pos="576" pan="0" vol="197" key="39"/>
          <note len="24" pos="576" pan="0" vol="197" key="0"/>
          <note len="12" pos="600" pan="0" vol="197" key="39"/>
          <note len="24" pos="600" pan="0" vol="197" key="1"/>
          <note len="12" pos="612" pan="0" vol="197" key="39"/>
          <note len="12" pos="624" pan="0" vol="197" key="39"/>
          <note len="12" pos="636" pan="0" vol="197" key="39"/>
          <note len="12" pos="648" pan="0" vol="197" key="39"/>
          <note len="12" pos="660" pan="0" vol="197" key="39"/>
          <note len="12" pos="672" pan="0" vol="197" key="39"/>
          <note len="12" pos="684" pan="0" vol="197" key="39"/>
          <note len="12" pos="696" pan="0" vol="197" key="39"/>
          <note len="12" pos="708" pan="0" vol="197" key="39"/>
          <note len="24" pos="720" pan="0" vol="197" key="47"/>
          <note len="24" pos="720" pan="0" vol="197" key="39"/>
          <note len="24" pos="720" pan="0" vol="197" key="0"/>
          <note len="12" pos="744" pan="0" vol="197" key="39"/>
          <note len="24" pos="744" pan="0" vol="197" key="1"/>
          <note len="12" pos="756" pan="0" vol="197" key="39"/>
          <note len="24" pos="768" pan="0" vol="197" key="45"/>
          <note len="24" pos="768" pan="0" vol="197" key="38"/>
          <note len="24" pos="768" pan="0" vol="197" key="0"/>
          <note len="12" pos="792" pan="0" vol="197" key="38"/>
          <note len="24" pos="792" pan="0" vol="197" key="1"/>
          <note len="12" pos="804" pan="0" vol="197" key="38"/>
          <note len="12" pos="816" pan="0" vol="197" key="38"/>
          <note len="12" pos="828" pan="0" vol="197" key="38"/>
          <note len="12" pos="840" pan="0" vol="197" key="38"/>
          <note len="12" pos="852" pan="0" vol="197" key="38"/>
          <note len="12" pos="864" pan="0" vol="197" key="38"/>
          <note len="12" pos="876" pan="0" vol="197" key="38"/>
          <note len="12" pos="888" pan="0" vol="197" key="38"/>
          <note len="12" pos="900" pan="0" vol="197" key="38"/>
          <note len="24" pos="912" pan="0" vol="197" key="45"/>
          <note len="24" pos="912" pan="0" vol="197" key="38"/>
          <note len="24" pos="912" pan="0" vol="197" key="0"/>
          <note len="12" pos="936" pan="0" vol="197" key="38"/>
          <note len="24" pos="936" pan="0" vol="197" key="1"/>
          <note len="12" pos="948" pan="0" vol="197" key="38"/>
          <note len="24" pos="960" pan="0" vol="197" key="45"/>
          <note len="24" pos="960" pan="0" vol="197" key="37"/>
          <note len="24" pos="960" pan="0" vol="197" key="0"/>
          <note len="12" pos="984" pan="0" vol="197" key="37"/>
          <note len="24" pos="984" pan="0" vol="197" key="1"/>
          <note len="12" pos="996" pan="0" vol="197" key="37"/>
          <note len="12" pos="1008" pan="0" vol="197" key="37"/>
          <note len="12" pos="1020" pan="0" vol="197" key="37"/>
          <note len="12" pos="1032" pan="0" vol="197" key="37"/>
          <note len="12" pos="1044" pan="0" vol="197" key="37"/>
          <note len="12" pos="1056" pan="0" vol="197" key="37"/>
          <note len="12" pos="1068" pan="0" vol="197" key="37"/>
          <note len="12" pos="1080" pan="0" vol="197" key="37"/>
          <note len="12" pos="1092" pan="0" vol="197" key="37"/>
          <note len="24" pos="1104" pan="0" vol="197" key="45"/>
          <note len="24" pos="1104" pan="0" vol="197" key="37"/>
          <note len="24" pos="1104" pan="0" vol="197" key="0"/>
          <note len="12" pos="1128" pan="0" vol="197" key="37"/>
          <note len="24" pos="1128" pan="0" vol="197" key="1"/>
          <note len="12" pos="1140" pan="0" vol="197" key="37"/>
          <note len="24" pos="1152" pan="0" vol="197" key="44"/>
          <note len="24" pos="1152" pan="0" vol="197" key="36"/>
          <note len="24" pos="1152" pan="0" vol="197" key="0"/>
          <note len="12" pos="1176" pan="0" vol="197" key="36"/>
          <note len="24" pos="1176" pan="0" vol="197" key="1"/>
          <note len="12" pos="1188" pan="0" vol="197" key="36"/>
          <note len="12" pos="1200" pan="0" vol="197" key="36"/>
          <note len="12" pos="1212" pan="0" vol="197" key="36"/>
          <note len="12" pos="1224" pan="0" vol="197" key="36"/>
          <note len="12" pos="1236" pan="0" vol="197" key="36"/>
          <note len="12" pos="1248" pan="0" vol="197" key="36"/>
          <note len="12" pos="1260" pan="0" vol="197" key="36"/>
          <note len="12" pos="1272" pan="0" vol="197" key="36"/>
          <note len="12" pos="1284" pan="0" vol="197" key="36"/>
          <note len="24" pos="1296" pan="0" vol="197" key="44"/>
          <note len="24" pos="1296" pan="0" vol="197" key="36"/>
          <note len="24" pos="1296" pan="0" vol="197" key="0"/>
          <note len="12" pos="1320" pan="0" vol="197" key="36"/>
          <note len="24" pos="1320" pan="0" vol="197" key="1"/>
          <note len="12" pos="1332" pan="0" vol="197" key="36"/>
          <note len="24" pos="1344" pan="0" vol="197" key="44"/>
          <note len="24" pos="1344" pan="0" vol="197" key="37"/>
          <note len="24" pos="1344" pan="0" vol="197" key="0"/>
          <note len="12" pos="1368" pan="0" vol="197" key="37"/>
          <note len="24" pos="1368" pan="0" vol="197" key="1"/>
          <note len="12" pos="1380" pan="0" vol="197" key="37"/>
          <note len="12" pos="1392" pan="0" vol="197" key="37"/>
          <note len="12" pos="1404" pan="0" vol="197" key="37"/>
          <note len="12" pos="1416" pan="0" vol="197" key="37"/>
          <note len="12" pos="1428" pan="0" vol="197" key="37"/>
          <note len="12" pos="1440" pan="0" vol="197" key="37"/>
          <note len="12" pos="1452" pan="0" vol="197" key="37"/>
          <note len="12" pos="1464" pan="0" vol="197" key="37"/>
          <note len="12" pos="1476" pan="0" vol="197" key="37"/>
          <note len="24" pos="1488" pan="0" vol="197" key="44"/>
          <note len="24" pos="1488" pan="0" vol="197" key="37"/>
          <note len="24" pos="1488" pan="0" vol="197" key="0"/>
          <note len="12" pos="1512" pan="0" vol="197" key="37"/>
          <note len="24" pos="1512" pan="0" vol="197" key="1"/>
          <note len="12" pos="1524" pan="0" vol="197" key="37"/>
        </pattern>
        <pattern pos="23808" muted="0" steps="16" type="1" name="rgt2">
          <note len="12" pos="0" pan="0" vol="195" key="57"/>
          <note len="12" pos="0" pan="0" vol="195" key="1"/>
          <note len="12" pos="12" pan="0" vol="195" key="56"/>
          <note len="12" pos="24" pan="0" vol="195" key="54"/>
          <note len="12" pos="36" pan="0" vol="195" key="56"/>
          <note len="12" pos="48" pan="0" vol="195" key="57"/>
          <note len="12" pos="60" pan="0" vol="195" key="56"/>
          <note len="12" pos="72" pan="0" vol="195" key="54"/>
          <note len="12" pos="84" pan="0" vol="195" key="56"/>
          <note len="12" pos="96" pan="0" vol="195" key="57"/>
          <note len="12" pos="108" pan="0" vol="195" key="56"/>
          <note len="12" pos="120" pan="0" vol="195" key="54"/>
          <note len="12" pos="132" pan="0" vol="195" key="56"/>
          <note len="12" pos="144" pan="0" vol="195" key="57"/>
          <note len="12" pos="156" pan="0" vol="195" key="56"/>
          <note len="12" pos="168" pan="0" vol="195" key="54"/>
          <note len="12" pos="180" pan="0" vol="195" key="56"/>
          <note len="12" pos="192" pan="0" vol="195" key="57"/>
          <note len="12" pos="204" pan="0" vol="195" key="56"/>
          <note len="12" pos="216" pan="0" vol="195" key="54"/>
          <note len="12" pos="228" pan="0" vol="195" key="56"/>
          <note len="12" pos="240" pan="0" vol="195" key="57"/>
          <note len="12" pos="252" pan="0" vol="195" key="56"/>
          <note len="12" pos="264" pan="0" vol="195" key="54"/>
          <note len="12" pos="276" pan="0" vol="195" key="56"/>
          <note len="12" pos="288" pan="0" vol="195" key="57"/>
          <note len="12" pos="300" pan="0" vol="195" key="56"/>
          <note len="12" pos="312" pan="0" vol="195" key="54"/>
          <note len="12" pos="324" pan="0" vol="195" key="56"/>
          <note len="12" pos="336" pan="0" vol="195" key="57"/>
          <note len="12" pos="348" pan="0" vol="195" key="56"/>
          <note len="12" pos="360" pan="0" vol="195" key="54"/>
          <note len="12" pos="372" pan="0" vol="195" key="56"/>
          <note len="12" pos="384" pan="0" vol="195" key="59"/>
          <note len="12" pos="396" pan="0" vol="195" key="57"/>
          <note len="12" pos="408" pan="0" vol="195" key="56"/>
          <note len="12" pos="420" pan="0" vol="195" key="57"/>
          <note len="12" pos="432" pan="0" vol="195" key="59"/>
          <note len="12" pos="444" pan="0" vol="195" key="57"/>
          <note len="12" pos="456" pan="0" vol="195" key="56"/>
          <note len="12" pos="468" pan="0" vol="195" key="57"/>
          <note len="12" pos="480" pan="0" vol="195" key="59"/>
          <note len="12" pos="492" pan="0" vol="195" key="57"/>
          <note len="12" pos="504" pan="0" vol="195" key="56"/>
          <note len="12" pos="516" pan="0" vol="195" key="57"/>
          <note len="12" pos="528" pan="0" vol="195" key="59"/>
          <note len="12" pos="540" pan="0" vol="195" key="57"/>
          <note len="12" pos="552" pan="0" vol="195" key="56"/>
          <note len="12" pos="564" pan="0" vol="195" key="57"/>
          <note len="12" pos="576" pan="0" vol="195" key="62"/>
          <note len="12" pos="588" pan="0" vol="195" key="61"/>
          <note len="12" pos="600" pan="0" vol="195" key="59"/>
          <note len="12" pos="612" pan="0" vol="195" key="61"/>
          <note len="12" pos="624" pan="0" vol="195" key="59"/>
          <note len="12" pos="636" pan="0" vol="195" key="57"/>
          <note len="12" pos="648" pan="0" vol="195" key="56"/>
          <note len="12" pos="660" pan="0" vol="195" key="57"/>
          <note len="12" pos="672" pan="0" vol="195" key="56"/>
          <note len="12" pos="684" pan="0" vol="195" key="54"/>
          <note len="12" pos="696" pan="0" vol="195" key="53"/>
          <note len="12" pos="708" pan="0" vol="195" key="54"/>
          <note len="12" pos="720" pan="0" vol="195" key="53"/>
          <note len="12" pos="732" pan="0" vol="195" key="50"/>
          <note len="12" pos="744" pan="0" vol="195" key="49"/>
          <note len="12" pos="756" pan="0" vol="195" key="47"/>
        </pattern>
        <pattern pos="24576" muted="0" steps="16" type="1" name="">
          <note len="192" pos="0" pan="0" vol="195" key="49"/>
          <note len="192" pos="0" pan="0" vol="195" key="42"/>
          <note len="384" pos="0" pan="0" vol="195" key="0"/>
          <note len="192" pos="192" pan="0" vol="195" key="49"/>
          <note len="192" pos="192" pan="0" vol="195" key="42"/>
          <note len="192" pos="384" pan="0" vol="195" key="49"/>
          <note len="192" pos="384" pan="0" vol="195" key="42"/>
          <note len="192" pos="576" pan="0" vol="195" key="49"/>
          <note len="192" pos="576" pan="0" vol="195" key="42"/>
        </pattern>
        <pattern pos="35328" muted="0" steps="16" type="1" name="">
          <note len="24" pos="0" pan="0" vol="195" key="30"/>
          <note len="24" pos="0" pan="0" vol="195" key="0"/>
          <note len="24" pos="48" pan="0" vol="195" key="30"/>
          <note len="24" pos="84" pan="0" vol="195" key="1"/>
          <note len="12" pos="96" pan="0" vol="195" key="30"/>
          <note len="12" pos="108" pan="0" vol="195" key="30"/>
          <note len="12" pos="120" pan="0" vol="195" key="30"/>
          <note len="12" pos="132" pan="0" vol="195" key="30"/>
          <note len="24" pos="144" pan="0" vol="195" key="30"/>
          <note len="24" pos="156" pan="0" vol="195" key="0"/>
          <note len="48" pos="168" pan="0" vol="195" key="42"/>
          <note len="24" pos="216" pan="0" vol="195" key="30"/>
          <note len="24" pos="240" pan="0" vol="195" key="37"/>
          <note len="24" pos="264" pan="0" vol="195" key="30"/>
          <note len="24" pos="288" pan="0" vol="195" key="33"/>
          <note len="24" pos="312" pan="0" vol="195" key="30"/>
          <note len="24" pos="336" pan="0" vol="195" key="37"/>
          <note len="24" pos="360" pan="0" vol="195" key="30"/>
        </pattern>
        <pattern pos="25344" muted="0" steps="16" type="1" name="rgt2">
          <note len="12" pos="0" pan="0" vol="195" key="42"/>
          <note len="12" pos="0" pan="0" vol="195" key="1"/>
          <note len="12" pos="12" pan="0" vol="195" key="42"/>
          <note len="12" pos="24" pan="0" vol="195" key="42"/>
          <note len="12" pos="36" pan="0" vol="195" key="42"/>
          <note len="12" pos="48" pan="0" vol="195" key="42"/>
          <note len="12" pos="60" pan="0" vol="195" key="42"/>
          <note len="48" pos="72" pan="0" vol="195" key="49"/>
          <note len="48" pos="72" pan="0" vol="195" key="42"/>
          <note len="48" pos="120" pan="0" vol="195" key="49"/>
          <note len="48" pos="120" pan="0" vol="195" key="42"/>
          <note len="48" pos="168" pan="0" vol="195" key="49"/>
          <note len="48" pos="168" pan="0" vol="195" key="42"/>
          <note len="24" pos="216" pan="0" vol="195" key="42"/>
          <note len="24" pos="240" pan="0" vol="195" key="45"/>
          <note len="24" pos="240" pan="0" vol="195" key="0"/>
          <note len="24" pos="264" pan="0" vol="195" key="42"/>
          <note len="24" pos="264" pan="0" vol="195" key="1"/>
          <note len="24" pos="288" pan="0" vol="195" key="49"/>
          <note len="24" pos="288" pan="0" vol="195" key="0"/>
          <note len="24" pos="312" pan="0" vol="195" key="47"/>
          <note len="24" pos="312" pan="0" vol="195" key="1"/>
          <note len="24" pos="336" pan="0" vol="195" key="45"/>
          <note len="24" pos="360" pan="0" vol="195" key="49"/>
          <note len="24" pos="360" pan="0" vol="195" key="0"/>
        </pattern>
        <pattern pos="25728" muted="0" steps="16" type="1" name="">
          <note len="12" pos="0" pan="0" vol="195" key="37"/>
          <note len="12" pos="0" pan="0" vol="195" key="1"/>
          <note len="12" pos="12" pan="0" vol="195" key="37"/>
          <note len="12" pos="24" pan="0" vol="195" key="37"/>
          <note len="12" pos="36" pan="0" vol="195" key="37"/>
          <note len="12" pos="48" pan="0" vol="195" key="37"/>
          <note len="12" pos="60" pan="0" vol="195" key="37"/>
          <note len="48" pos="72" pan="0" vol="195" key="44"/>
          <note len="48" pos="72" pan="0" vol="195" key="37"/>
          <note len="48" pos="120" pan="0" vol="195" key="44"/>
          <note len="48" pos="120" pan="0" vol="195" key="37"/>
          <note len="48" pos="168" pan="0" vol="195" key="44"/>
          <note len="48" pos="168" pan="0" vol="195" key="37"/>
          <note len="24" pos="216" pan="0" vol="195" key="37"/>
          <note len="24" pos="240" pan="0" vol="195" key="41"/>
          <note len="24" pos="240" pan="0" vol="195" key="0"/>
          <note len="24" pos="264" pan="0" vol="195" key="37"/>
          <note len="24" pos="264" pan="0" vol="195" key="1"/>
          <note len="24" pos="288" pan="0" vol="195" key="44"/>
          <note len="24" pos="288" pan="0" vol="195" key="0"/>
          <note len="24" pos="312" pan="0" vol="195" key="42"/>
          <note len="24" pos="312" pan="0" vol="195" key="1"/>
          <note len="24" pos="336" pan="0" vol="195" key="41"/>
          <note len="24" pos="360" pan="0" vol="195" key="44"/>
          <note len="24" pos="360" pan="0" vol="195" key="0"/>
        </pattern>
        <pattern pos="26112" muted="0" steps="16" type="1" name="">
          <note len="12" pos="0" pan="0" vol="195" key="42"/>
          <note len="12" pos="0" pan="0" vol="195" key="1"/>
          <note len="12" pos="12" pan="0" vol="195" key="42"/>
          <note len="12" pos="24" pan="0" vol="195" key="42"/>
          <note len="12" pos="36" pan="0" vol="195" key="42"/>
          <note len="12" pos="48" pan="0" vol="195" key="42"/>
          <note len="12" pos="60" pan="0" vol="195" key="42"/>
          <note len="48" pos="72" pan="0" vol="195" key="49"/>
          <note len="48" pos="72" pan="0" vol="195" key="42"/>
          <note len="48" pos="120" pan="0" vol="195" key="49"/>
          <note len="48" pos="120" pan="0" vol="195" key="42"/>
          <note len="48" pos="168" pan="0" vol="195" key="49"/>
          <note len="48" pos="168" pan="0" vol="195" key="42"/>
          <note len="24" pos="216" pan="0" vol="195" key="42"/>
          <note len="24" pos="240" pan="0" vol="195" key="45"/>
          <note len="24" pos="240" pan="0" vol="195" key="0"/>
          <note len="24" pos="264" pan="0" vol="195" key="42"/>
          <note len="24" pos="264" pan="0" vol="195" key="1"/>
          <note len="24" pos="288" pan="0" vol="195" key="49"/>
          <note len="24" pos="288" pan="0" vol="195" key="0"/>
          <note len="24" pos="312" pan="0" vol="195" key="47"/>
          <note len="24" pos="312" pan="0" vol="195" key="1"/>
          <note len="24" pos="336" pan="0" vol="195" key="49"/>
          <note len="24" pos="360" pan="0" vol="195" key="54"/>
          <note len="24" pos="360" pan="0" vol="195" key="0"/>
        </pattern>
        <pattern pos="26496" muted="0" steps="16" type="1" name="">
          <note len="12" pos="0" pan="0" vol="195" key="37"/>
          <note len="12" pos="0" pan="0" vol="195" key="1"/>
          <note len="12" pos="12" pan="0" vol="195" key="37"/>
          <note len="12" pos="24" pan="0" vol="195" key="37"/>
          <note len="12" pos="36" pan="0" vol="195" key="37"/>
          <note len="12" pos="48" pan="0" vol="195" key="37"/>
          <note len="12" pos="60" pan="0" vol="195" key="37"/>
          <note len="48" pos="72" pan="0" vol="195" key="44"/>
          <note len="48" pos="72" pan="0" vol="195" key="37"/>
          <note len="48" pos="120" pan="0" vol="195" key="44"/>
          <note len="48" pos="120" pan="0" vol="195" key="37"/>
          <note len="48" pos="168" pan="0" vol="195" key="44"/>
          <note len="48" pos="168" pan="0" vol="195" key="37"/>
          <note len="24" pos="216" pan="0" vol="195" key="37"/>
          <note len="24" pos="240" pan="0" vol="195" key="41"/>
          <note len="24" pos="240" pan="0" vol="195" key="0"/>
          <note len="24" pos="264" pan="0" vol="195" key="37"/>
          <note len="24" pos="264" pan="0" vol="195" key="1"/>
          <note len="24" pos="288" pan="0" vol="195" key="44"/>
          <note len="24" pos="288" pan="0" vol="195" key="0"/>
          <note len="24" pos="312" pan="0" vol="195" key="42"/>
          <note len="24" pos="312" pan="0" vol="195" key="1"/>
          <note len="24" pos="336" pan="0" vol="195" key="41"/>
          <note len="24" pos="360" pan="0" vol="195" key="44"/>
          <note len="24" pos="360" pan="0" vol="195" key="0"/>
        </pattern>
        <pattern pos="26880" muted="0" steps="16" type="1" name="">
          <note len="12" pos="0" pan="0" vol="195" key="42"/>
          <note len="12" pos="0" pan="0" vol="195" key="1"/>
          <note len="12" pos="12" pan="0" vol="195" key="42"/>
          <note len="12" pos="24" pan="0" vol="195" key="42"/>
          <note len="12" pos="36" pan="0" vol="195" key="42"/>
          <note len="12" pos="48" pan="0" vol="195" key="42"/>
          <note len="12" pos="60" pan="0" vol="195" key="42"/>
          <note len="48" pos="72" pan="0" vol="195" key="42"/>
          <note len="48" pos="120" pan="0" vol="195" key="42"/>
          <note len="48" pos="168" pan="0" vol="195" key="42"/>
          <note len="24" pos="216" pan="0" vol="195" key="42"/>
          <note len="24" pos="240" pan="0" vol="195" key="45"/>
          <note len="24" pos="240" pan="0" vol="195" key="0"/>
          <note len="24" pos="264" pan="0" vol="195" key="42"/>
          <note len="24" pos="264" pan="0" vol="195" key="1"/>
          <note len="24" pos="288" pan="0" vol="195" key="49"/>
          <note len="24" pos="288" pan="0" vol="195" key="0"/>
          <note len="24" pos="312" pan="0" vol="195" key="47"/>
          <note len="24" pos="312" pan="0" vol="195" key="1"/>
          <note len="24" pos="336" pan="0" vol="195" key="49"/>
          <note len="24" pos="360" pan="0" vol="195" key="54"/>
          <note len="24" pos="360" pan="0" vol="195" key="0"/>
        </pattern>
        <pattern pos="27264" muted="0" steps="16" type="1" name="">
          <note len="12" pos="0" pan="0" vol="195" key="37"/>
          <note len="12" pos="0" pan="0" vol="195" key="1"/>
          <note len="12" pos="12" pan="0" vol="195" key="37"/>
          <note len="12" pos="24" pan="0" vol="195" key="37"/>
          <note len="12" pos="36" pan="0" vol="195" key="37"/>
          <note len="12" pos="48" pan="0" vol="195" key="37"/>
          <note len="12" pos="60" pan="0" vol="195" key="37"/>
          <note len="48" pos="72" pan="0" vol="195" key="37"/>
          <note len="48" pos="120" pan="0" vol="195" key="37"/>
          <note len="48" pos="168" pan="0" vol="195" key="37"/>
          <note len="24" pos="216" pan="0" vol="195" key="37"/>
          <note len="24" pos="240" pan="0" vol="195" key="41"/>
          <note len="24" pos="240" pan="0" vol="195" key="0"/>
          <note len="24" pos="264" pan="0" vol="195" key="37"/>
          <note len="24" pos="264" pan="0" vol="195" key="1"/>
          <note len="24" pos="288" pan="0" vol="195" key="44"/>
          <note len="24" pos="288" pan="0" vol="195" key="0"/>
          <note len="24" pos="312" pan="0" vol="195" key="42"/>
          <note len="24" pos="312" pan="0" vol="195" key="1"/>
          <note len="24" pos="336" pan="0" vol="195" key="41"/>
          <note len="24" pos="360" pan="0" vol="195" key="44"/>
          <note len="24" pos="360" pan="0" vol="195" key="0"/>
        </pattern>
        <pattern pos="27840" muted="0" steps="16" type="1" name="">
          <note len="24" pos="0" pan="0" vol="193" key="42"/>
          <note len="24" pos="0" pan="0" vol="193" key="1"/>
          <note len="24" pos="24" pan="0" vol="193" key="45"/>
          <note len="24" pos="48" pan="0" vol="193" key="44"/>
          <note len="24" pos="72" pan="0" vol="193" key="45"/>
          <note len="24" pos="96" pan="0" vol="193" key="41"/>
          <note len="24" pos="120" pan="0" vol="193" key="44"/>
          <note len="24" pos="144" pan="0" vol="193" key="42"/>
          <note len="24" pos="168" pan="0" vol="193" key="44"/>
        </pattern>
        <pattern pos="28032" muted="0" steps="16" type="1" name="">
          <note len="24" pos="0" pan="0" vol="193" key="38"/>
          <note len="24" pos="0" pan="0" vol="193" key="0"/>
          <note len="24" pos="24" pan="0" vol="193" key="42"/>
          <note len="24" pos="48" pan="0" vol="193" key="41"/>
          <note len="24" pos="72" pan="0" vol="193" key="42"/>
          <note len="24" pos="96" pan="0" vol="193" key="37"/>
          <note len="24" pos="120" pan="0" vol="193" key="41"/>
          <note len="24" pos="144" pan="0" vol="193" key="38"/>
          <note len="24" pos="168" pan="0" vol="193" key="41"/>
        </pattern>
        <pattern pos="27648" muted="0" steps="16" type="1" name="">
          <note len="24" pos="0" pan="0" vol="193" key="45"/>
          <note len="24" pos="0" pan="0" vol="193" key="1"/>
          <note len="24" pos="24" pan="0" vol="193" key="49"/>
          <note len="24" pos="48" pan="0" vol="193" key="47"/>
          <note len="24" pos="72" pan="0" vol="193" key="49"/>
          <note len="24" pos="96" pan="0" vol="193" key="44"/>
          <note len="24" pos="120" pan="0" vol="193" key="47"/>
          <note len="24" pos="144" pan="0" vol="193" key="45"/>
          <note len="24" pos="168" pan="0" vol="193" key="47"/>
        </pattern>
        <pattern pos="28224" muted="0" steps="16" type="1" name="">
          <note len="12" pos="0" pan="0" vol="193" key="38"/>
          <note len="12" pos="0" pan="0" vol="193" key="0"/>
          <note len="12" pos="12" pan="0" vol="193" key="37"/>
          <note len="12" pos="24" pan="0" vol="193" key="35"/>
          <note len="12" pos="24" pan="0" vol="193" key="1"/>
          <note len="12" pos="36" pan="0" vol="193" key="37"/>
          <note len="12" pos="48" pan="0" vol="193" key="38"/>
          <note len="12" pos="60" pan="0" vol="193" key="37"/>
          <note len="12" pos="72" pan="0" vol="193" key="38"/>
          <note len="12" pos="84" pan="0" vol="193" key="41"/>
          <note len="12" pos="96" pan="0" vol="193" key="42"/>
          <note len="12" pos="108" pan="0" vol="193" key="44"/>
          <note len="12" pos="120" pan="0" vol="193" key="45"/>
          <note len="12" pos="132" pan="0" vol="193" key="47"/>
          <note len="12" pos="144" pan="0" vol="193" key="49"/>
          <note len="12" pos="156" pan="0" vol="193" key="48"/>
          <note len="12" pos="168" pan="0" vol="193" key="49"/>
          <note len="12" pos="168" pan="0" vol="193" key="0"/>
          <note len="12" pos="180" pan="0" vol="193" key="53"/>
        </pattern>
      </track>
      <track muted="0" solo="0" type="0" name="Lead Guitar S">
        <instrumenttrack basenote="57" pitch="0" pitchrange="1" pan="0" usemasterpitch="1" fxch="12" vol="200">
          <instrument name="carlapatchbay">
            <carlapatchbay>
              <CARLA-PROJECT VERSION="2.2">
                <EngineSettings>
                  <ForceStereo>false</ForceStereo>
                  <PreferPluginBridges>false</PreferPluginBridges>
                  <PreferUiBridges>true</PreferUiBridges>
                  <UIsAlwaysOnTop>false</UIsAlwaysOnTop>
                  <MaxParameters>200</MaxParameters>
                  <UIBridgesTimeout>4000</UIBridgesTimeout>
                  <LADSPA_PATH>/home/pass/.ladspa:/usr/lib/ladspa:/usr/local/lib/ladspa</LADSPA_PATH>
                  <DSSI_PATH>/home/pass/.dssi:/usr/lib/dssi:/usr/local/lib/dssi</DSSI_PATH>
                  <LV2_PATH>/home/pass/.lv2:/usr/lib/lv2:/usr/local/lib/lv2</LV2_PATH>
                  <VST2_PATH>/home/pass/.vst:/home/pass/.wine/drive_c/Program Files (x86)/VstPlugins:/home/pass/.wine/drive_c/Program Files/VstPlugins:/usr/lib/lxvst:/usr/lib/vst:/usr/local/lib/lxvst:/usr/local/lib/vst/home/pass/.lxvst:/home/pass/vst</VST2_PATH>
                  <VST3_PATH>/home/pass/.vst3:/home/pass/.wine/drive_c/Program Files (x86)/Common Files/VST3:/home/pass/.wine/drive_c/Program Files/Common Files/VST3:/usr/lib/vst3:/usr/local/lib/vst3</VST3_PATH>
                  <SF2_PATH>/home/pass/.sounds/sf2/home/pass/.sounds/sf3:/usr/share/soundfonts:/usr/share/sounds/sf2:/usr/share/sounds/sf3</SF2_PATH>
                  <SFZ_PATH>/home/pass/.sounds/sfz:/home/pass/samples:/usr/share/sounds/sfz</SFZ_PATH>
                </EngineSettings>
                <!-- sfizz -->
                <Plugin>
                  <Info>
                    <Type>LV2</Type>
                    <Name>sfizz</Name>
                    <URI>http://sfztools.github.io/sfizz</URI>
                  </Info>
                  <Data>
                    <Active>Yes</Active>
                    <ControlChannel>1</ControlChannel>
                    <Options>0x3f0</Options>
                    <Parameter>
                      <Index>0</Index>
                      <Name>Volume</Name>
                      <Symbol>volume</Symbol>
                      <Value>0</Value>
                    </Parameter>
                    <Parameter>
                      <Index>1</Index>
                      <Name>Polyphony</Name>
                      <Symbol>num_voices</Symbol>
                      <Value>64</Value>
                    </Parameter>
                    <Parameter>
                      <Index>2</Index>
                      <Name>Internal oversampling factor</Name>
                      <Symbol>oversampling</Symbol>
                      <Value>1</Value>
                    </Parameter>
                    <Parameter>
                      <Index>3</Index>
                      <Name>Preload size</Name>
                      <Symbol>preload_size</Symbol>
                      <Value>8192</Value>
                    </Parameter>
                    <CustomData>
                      <Type>http://lv2plug.in/ns/ext/atom#Path</Type>
                      <Key>http://sfztools.github.io/sfizz:sfzfile</Key>
                      <Value>/home/pass/samples/fakeguitar/_fakeguitar1_integrated.sfz</Value>
                    </CustomData>
                    <CustomData>
                      <Type>http://lv2plug.in/ns/ext/atom#Int</Type>
                      <Key>http://sfztools.github.io/sfizz:numvoices</Key>
                      <Value>QAAAAA==</Value>
                    </CustomData>
                    <CustomData>
                      <Type>http://lv2plug.in/ns/ext/atom#Int</Type>
                      <Key>http://sfztools.github.io/sfizz:preload_size</Key>
                      <Value>ACAAAA==</Value>
                    </CustomData>
                    <CustomData>
                      <Type>http://lv2plug.in/ns/ext/atom#Int</Type>
                      <Key>http://sfztools.github.io/sfizz:oversampling</Key>
                      <Value>AQAAAA==</Value>
                    </CustomData>
                  </Data>
                </Plugin>
                <Patchbay>
                  <Connection>
                    <Source>Midi Input:Capture 1</Source>
                    <Target>sfizz:events-in</Target>
                  </Connection>
                  <Connection>
                    <Source>sfizz:Left Output</Source>
                    <Target>Audio Output:Left</Target>
                  </Connection>
                  <Connection>
                    <Source>sfizz:Right Output</Source>
                    <Target>Audio Output:Right</Target>
                  </Connection>
                  <Positions>
                    <Position pluginId="0" x1="1693" y1="1353">
                      <Name>sfizz</Name>
                    </Position>
                  </Positions>
                </Patchbay>
              </CARLA-PROJECT>
            </carlapatchbay>
          </instrument>
          <eldata fwet="0" ftype="0" fcut="14000" fres="0.5">
            <elvol lspd_denominator="4" lamt="0" amt="0" dec="0.5" hold="0.5" lshp="0" ctlenvamt="0" lspd="0.1" rel="0.1" pdel="0" lspd_syncmode="0" att="0" sustain="0.5" userwavefile="" latt="0" lspd_numerator="4" lpdel="0" x100="0"/>
            <elcut lspd_denominator="4" lamt="0" amt="0" dec="0.5" hold="0.5" lshp="0" ctlenvamt="0" lspd="0.1" rel="0.1" pdel="0" lspd_syncmode="0" att="0" sustain="0.5" userwavefile="" latt="0" lspd_numerator="4" lpdel="0" x100="0"/>
            <elres lspd_denominator="4" lamt="0" amt="0" dec="0.5" hold="0.5" lshp="0" ctlenvamt="0" lspd="0.1" rel="0.1" pdel="0" lspd_syncmode="0" att="0" sustain="0.5" userwavefile="" latt="0" lspd_numerator="4" lpdel="0" x100="0"/>
          </eldata>
          <chordcreator chordrange="1" chord-enabled="0" chord="0"/>
          <arpeggiator arptime_syncmode="0" arptime="200" arptime_denominator="4" arpdir="0" arp="0" arpmode="0" arpcycle="0" arpmiss="0" arptime_numerator="4" arprange="1" arp-enabled="0" arpskip="0" arpgate="100"/>
          <midiport inputcontroller="0" outputchannel="1" outputprogram="1" readable="0" outputcontroller="0" fixedoutputvelocity="-1" fixedoutputnote="-1" fixedinputvelocity="-1" writable="0" inputchannel="0" basevelocity="63"/>
          <fxchain enabled="0" numofeffects="0"/>
        </instrumenttrack>
        <pattern pos="9216" muted="0" steps="16" type="1" name="Lead Guitar S">
          <note len="24" pos="0" pan="0" vol="193" key="0"/>
          <note len="48" pos="48" pan="0" vol="193" key="69"/>
          <note len="48" pos="96" pan="0" vol="193" key="68"/>
          <note len="48" pos="144" pan="0" vol="193" key="61"/>
          <note len="72" pos="192" pan="0" vol="193" key="68"/>
          <note len="72" pos="264" pan="0" vol="193" key="69"/>
          <note len="48" pos="336" pan="0" vol="193" key="61"/>
          <note len="48" pos="384" pan="0" vol="193" key="68"/>
          <note len="24" pos="432" pan="0" vol="193" key="69"/>
          <note len="312" pos="456" pan="0" vol="193" key="66"/>
          <note len="48" pos="768" pan="0" vol="193" key="61"/>
          <note len="48" pos="816" pan="0" vol="193" key="69"/>
          <note len="48" pos="864" pan="0" vol="193" key="68"/>
          <note len="48" pos="912" pan="0" vol="193" key="61"/>
          <note len="72" pos="960" pan="0" vol="193" key="68"/>
          <note len="48" pos="1032" pan="0" vol="193" key="69"/>
          <note len="24" pos="1068" pan="0" vol="193" key="1"/>
          <note len="12" pos="1080" pan="0" vol="193" key="66"/>
          <note len="12" pos="1092" pan="0" vol="193" key="66"/>
          <note len="12" pos="1104" pan="0" vol="193" key="68"/>
          <note len="12" pos="1116" pan="0" vol="193" key="68"/>
          <note len="12" pos="1128" pan="0" vol="193" key="69"/>
          <note len="12" pos="1140" pan="0" vol="193" key="69"/>
          <note len="120" pos="1152" pan="0" vol="193" key="73"/>
          <note len="24" pos="1152" pan="0" vol="193" key="0"/>
          <note len="12" pos="1236" pan="0" vol="193" key="1"/>
          <note len="12" pos="1272" pan="0" vol="193" key="71"/>
          <note len="12" pos="1284" pan="0" vol="193" key="71"/>
          <note len="12" pos="1296" pan="0" vol="193" key="69"/>
          <note len="12" pos="1308" pan="0" vol="193" key="69"/>
          <note len="12" pos="1320" pan="0" vol="193" key="68"/>
          <note len="12" pos="1332" pan="0" vol="193" key="68"/>
          <note len="48" pos="1344" pan="0" vol="193" key="65"/>
          <note len="12" pos="1344" pan="0" vol="193" key="0"/>
          <note len="48" pos="1392" pan="0" vol="193" key="66"/>
          <note len="48" pos="1440" pan="0" vol="193" key="68"/>
          <note len="48" pos="1488" pan="0" vol="193" key="61"/>
        </pattern>
        <pattern pos="10752" muted="0" steps="16" type="1" name="">
          <note len="48" pos="0" pan="0" vol="193" key="66"/>
          <note len="24" pos="0" pan="0" vol="193" key="0"/>
          <note len="48" pos="48" pan="0" vol="193" key="69"/>
          <note len="48" pos="96" pan="0" vol="193" key="68"/>
          <note len="48" pos="144" pan="0" vol="193" key="61"/>
          <note len="72" pos="192" pan="0" vol="193" key="68"/>
          <note len="72" pos="264" pan="0" vol="193" key="69"/>
          <note len="48" pos="336" pan="0" vol="193" key="61"/>
          <note len="48" pos="384" pan="0" vol="193" key="71"/>
          <note len="24" pos="432" pan="0" vol="193" key="73"/>
          <note len="240" pos="456" pan="0" vol="193" key="66"/>
          <note len="24" pos="696" pan="0" vol="193" key="68"/>
          <note len="24" pos="720" pan="0" vol="193" key="69"/>
          <note len="24" pos="744" pan="0" vol="193" key="71"/>
          <note len="120" pos="768" pan="0" vol="193" key="73"/>
          <note len="24" pos="888" pan="0" vol="193" key="73"/>
          <note len="24" pos="912" pan="0" vol="193" key="71"/>
          <note len="24" pos="936" pan="0" vol="193" key="69"/>
          <note len="24" pos="960" pan="0" vol="193" key="68"/>
          <note len="24" pos="984" pan="0" vol="193" key="61"/>
          <note len="24" pos="1008" pan="0" vol="193" key="65"/>
          <note len="24" pos="1032" pan="0" vol="193" key="61"/>
          <note len="24" pos="1056" pan="0" vol="193" key="71"/>
          <note len="24" pos="1080" pan="0" vol="193" key="69"/>
          <note len="24" pos="1104" pan="0" vol="193" key="68"/>
          <note len="24" pos="1128" pan="0" vol="193" key="65"/>
          <note len="168" pos="1152" pan="0" vol="193" key="66"/>
          <note len="24" pos="1320" pan="0" vol="193" key="61"/>
          <note len="12" pos="1332" pan="0" vol="193" key="1"/>
          <note len="12" pos="1344" pan="0" vol="193" key="69"/>
          <note len="12" pos="1356" pan="0" vol="193" key="68"/>
          <note len="12" pos="1368" pan="0" vol="193" key="69"/>
          <note len="12" pos="1380" pan="0" vol="193" key="71"/>
          <note len="12" pos="1392" pan="0" vol="193" key="73"/>
          <note len="12" pos="1404" pan="0" vol="193" key="71"/>
          <note len="12" pos="1404" pan="0" vol="193" key="0"/>
          <note len="12" pos="1416" pan="0" vol="193" key="73"/>
          <note len="12" pos="1428" pan="0" vol="193" key="76"/>
          <note len="12" pos="1440" pan="0" vol="193" key="81"/>
          <note len="12" pos="1452" pan="0" vol="193" key="80"/>
          <note len="12" pos="1464" pan="0" vol="193" key="78"/>
          <note len="12" pos="1476" pan="0" vol="193" key="76"/>
          <note len="12" pos="1488" pan="0" vol="193" key="78"/>
          <note len="12" pos="1500" pan="0" vol="193" key="76"/>
          <note len="12" pos="1512" pan="0" vol="193" key="73"/>
          <note len="12" pos="1524" pan="0" vol="193" key="76"/>
        </pattern>
        <pattern pos="15360" muted="0" steps="16" type="1" name="">
          <note len="48" pos="0" pan="0" vol="193" key="66"/>
          <note len="24" pos="0" pan="0" vol="193" key="0"/>
          <note len="48" pos="48" pan="0" vol="193" key="69"/>
          <note len="48" pos="96" pan="0" vol="193" key="68"/>
          <note len="48" pos="144" pan="0" vol="193" key="61"/>
          <note len="72" pos="192" pan="0" vol="193" key="68"/>
          <note len="72" pos="264" pan="0" vol="193" key="69"/>
          <note len="48" pos="336" pan="0" vol="193" key="61"/>
          <note len="48" pos="384" pan="0" vol="193" key="71"/>
          <note len="24" pos="432" pan="0" vol="193" key="73"/>
          <note len="240" pos="456" pan="0" vol="193" key="66"/>
          <note len="24" pos="696" pan="0" vol="193" key="68"/>
          <note len="24" pos="720" pan="0" vol="193" key="69"/>
          <note len="24" pos="744" pan="0" vol="193" key="71"/>
          <note len="120" pos="768" pan="0" vol="193" key="73"/>
          <note len="24" pos="888" pan="0" vol="193" key="73"/>
          <note len="24" pos="912" pan="0" vol="193" key="71"/>
          <note len="24" pos="936" pan="0" vol="193" key="73"/>
          <note len="24" pos="960" pan="0" vol="193" key="77"/>
          <note len="24" pos="984" pan="0" vol="193" key="73"/>
          <note len="24" pos="1008" pan="0" vol="193" key="77"/>
          <note len="24" pos="1032" pan="0" vol="193" key="80"/>
          <note len="24" pos="1056" pan="0" vol="193" key="83"/>
          <note len="24" pos="1080" pan="0" vol="193" key="81"/>
          <note len="24" pos="1104" pan="0" vol="193" key="80"/>
          <note len="24" pos="1128" pan="0" vol="193" key="77"/>
          <note len="192" pos="1152" pan="0" vol="193" key="78"/>
          <note len="12" pos="1332" pan="0" vol="193" key="1"/>
          <note len="12" pos="1344" pan="0" vol="193" key="78"/>
          <note len="12" pos="1356" pan="0" vol="193" key="78"/>
          <note len="24" pos="1368" pan="0" vol="193" key="78"/>
          <note len="12" pos="1404" pan="0" vol="193" key="0"/>
          <note len="12" pos="1416" pan="0" vol="193" key="78"/>
          <note len="12" pos="1428" pan="0" vol="193" key="78"/>
          <note len="24" pos="1440" pan="0" vol="193" key="78"/>
        </pattern>
        <pattern pos="13824" muted="0" steps="16" type="1" name="">
          <note len="24" pos="0" pan="0" vol="193" key="0"/>
          <note len="48" pos="48" pan="0" vol="193" key="69"/>
          <note len="48" pos="96" pan="0" vol="193" key="68"/>
          <note len="48" pos="144" pan="0" vol="193" key="61"/>
          <note len="72" pos="192" pan="0" vol="193" key="68"/>
          <note len="72" pos="264" pan="0" vol="193" key="69"/>
          <note len="48" pos="336" pan="0" vol="193" key="61"/>
          <note len="48" pos="384" pan="0" vol="193" key="68"/>
          <note len="24" pos="432" pan="0" vol="193" key="69"/>
          <note len="312" pos="456" pan="0" vol="193" key="66"/>
          <note len="48" pos="768" pan="0" vol="193" key="61"/>
          <note len="48" pos="816" pan="0" vol="193" key="69"/>
          <note len="48" pos="864" pan="0" vol="193" key="68"/>
          <note len="48" pos="912" pan="0" vol="193" key="61"/>
          <note len="72" pos="960" pan="0" vol="193" key="68"/>
          <note len="48" pos="1032" pan="0" vol="193" key="69"/>
          <note len="24" pos="1068" pan="0" vol="193" key="1"/>
          <note len="12" pos="1080" pan="0" vol="193" key="66"/>
          <note len="12" pos="1092" pan="0" vol="193" key="66"/>
          <note len="12" pos="1104" pan="0" vol="193" key="68"/>
          <note len="12" pos="1116" pan="0" vol="193" key="68"/>
          <note len="12" pos="1128" pan="0" vol="193" key="69"/>
          <note len="12" pos="1140" pan="0" vol="193" key="69"/>
          <note len="120" pos="1152" pan="0" vol="193" key="73"/>
          <note len="24" pos="1152" pan="0" vol="193" key="0"/>
          <note len="12" pos="1260" pan="0" vol="193" key="1"/>
          <note len="12" pos="1272" pan="0" vol="193" key="71"/>
          <note len="12" pos="1284" pan="0" vol="193" key="71"/>
          <note len="12" pos="1296" pan="0" vol="193" key="69"/>
          <note len="12" pos="1308" pan="0" vol="193" key="69"/>
          <note len="12" pos="1320" pan="0" vol="193" key="68"/>
          <note len="12" pos="1332" pan="0" vol="193" key="68"/>
          <note len="48" pos="1344" pan="0" vol="193" key="65"/>
          <note len="12" pos="1344" pan="0" vol="193" key="0"/>
          <note len="48" pos="1392" pan="0" vol="193" key="66"/>
          <note len="48" pos="1440" pan="0" vol="193" key="68"/>
          <note len="48" pos="1488" pan="0" vol="193" key="61"/>
        </pattern>
        <pattern pos="19968" muted="0" steps="16" type="1" name="Lead Guitar S">
          <note len="12" pos="0" pan="0" vol="100" key="62"/>
          <note len="12" pos="0" pan="0" vol="100" key="1"/>
          <note len="12" pos="12" pan="0" vol="100" key="61"/>
          <note len="12" pos="24" pan="0" vol="100" key="60"/>
          <note len="12" pos="36" pan="0" vol="100" key="61"/>
          <note len="12" pos="48" pan="0" vol="100" key="62"/>
          <note len="12" pos="60" pan="0" vol="100" key="61"/>
          <note len="12" pos="72" pan="0" vol="100" key="60"/>
          <note len="12" pos="84" pan="0" vol="100" key="61"/>
        </pattern>
        <pattern pos="20160" muted="0" steps="16" type="1" name="Lead Guitar S">
          <note len="12" pos="0" pan="0" vol="100" key="78"/>
          <note len="72" pos="0" pan="0" vol="193" key="1"/>
          <note len="12" pos="12" pan="0" vol="100" key="77"/>
          <note len="12" pos="24" pan="0" vol="100" key="73"/>
          <note len="12" pos="36" pan="0" vol="100" key="77"/>
          <note len="12" pos="48" pan="0" vol="100" key="78"/>
          <note len="12" pos="60" pan="0" vol="100" key="77"/>
          <note len="12" pos="72" pan="0" vol="100" key="73"/>
          <note len="12" pos="84" pan="0" vol="100" key="77"/>
          <note len="72" pos="192" pan="0" vol="193" key="0"/>
        </pattern>
        <pattern pos="35712" muted="0" steps="16" type="1" name="Lead Guitar S">
          <note len="192" pos="0" pan="0" vol="193" key="81"/>
          <note len="96" pos="192" pan="0" vol="193" key="80"/>
          <note len="96" pos="288" pan="0" vol="193" key="76"/>
          <note len="192" pos="384" pan="0" vol="193" key="73"/>
        </pattern>
        <pattern pos="37056" muted="0" steps="16" type="1" name="Lead Guitar S">
          <note len="24" pos="0" pan="0" vol="193" key="78"/>
          <note len="24" pos="24" pan="0" vol="193" key="73"/>
          <note len="24" pos="48" pan="0" vol="193" key="78"/>
          <note len="48" pos="72" pan="0" vol="193" key="81"/>
          <note len="24" pos="120" pan="0" vol="193" key="81"/>
          <note len="24" pos="144" pan="0" vol="193" key="80"/>
          <note len="24" pos="168" pan="0" vol="193" key="78"/>
          <note len="24" pos="192" pan="0" vol="193" key="80"/>
          <note len="24" pos="216" pan="0" vol="193" key="76"/>
          <note len="24" pos="240" pan="0" vol="193" key="78"/>
          <note len="120" pos="264" pan="0" vol="193" key="80"/>
          <note len="24" pos="384" pan="0" vol="193" key="80"/>
          <note len="24" pos="408" pan="0" vol="193" key="76"/>
          <note len="24" pos="432" pan="0" vol="193" key="80"/>
          <note len="48" pos="456" pan="0" vol="193" key="83"/>
          <note len="24" pos="504" pan="0" vol="193" key="83"/>
          <note len="24" pos="528" pan="0" vol="193" key="81"/>
          <note len="24" pos="552" pan="0" vol="193" key="80"/>
          <note len="24" pos="576" pan="0" vol="193" key="81"/>
          <note len="24" pos="600" pan="0" vol="193" key="78"/>
          <note len="24" pos="624" pan="0" vol="193" key="80"/>
          <note len="120" pos="648" pan="0" vol="193" key="81"/>
        </pattern>
        <pattern pos="25152" muted="0" steps="16" type="1" name="">
          <note len="48" pos="0" pan="0" vol="100" key="0"/>
          <note len="48" pos="144" pan="0" vol="193" key="61"/>
          <note len="144" pos="192" pan="0" vol="193" key="66"/>
          <note len="24" pos="336" pan="0" vol="193" key="61"/>
          <note len="24" pos="360" pan="0" vol="193" key="66"/>
          <note len="48" pos="384" pan="0" vol="193" key="69"/>
          <note len="48" pos="432" pan="0" vol="193" key="68"/>
          <note len="48" pos="480" pan="0" vol="193" key="66"/>
          <note len="48" pos="528" pan="0" vol="193" key="69"/>
          <note len="144" pos="576" pan="0" vol="193" key="68"/>
          <note len="48" pos="720" pan="0" vol="193" key="65"/>
          <note len="144" pos="768" pan="0" vol="193" key="61"/>
          <note len="48" pos="912" pan="0" vol="193" key="61"/>
          <note len="144" pos="960" pan="0" vol="193" key="66"/>
          <note len="24" pos="1104" pan="0" vol="193" key="61"/>
          <note len="24" pos="1128" pan="0" vol="193" key="66"/>
          <note len="48" pos="1152" pan="0" vol="193" key="69"/>
          <note len="48" pos="1200" pan="0" vol="193" key="68"/>
          <note len="48" pos="1248" pan="0" vol="193" key="66"/>
          <note len="48" pos="1296" pan="0" vol="193" key="73"/>
          <note len="144" pos="1344" pan="0" vol="193" key="77"/>
          <note len="48" pos="1488" pan="0" vol="193" key="73"/>
          <note len="144" pos="1536" pan="0" vol="193" key="73"/>
        </pattern>
      </track>
      <track muted="0" solo="0" type="0" name="lgtH1">
        <instrumenttrack basenote="57" pitch="0" pitchrange="1" pan="0" usemasterpitch="1" fxch="12" vol="200">
          <instrument name="carlapatchbay">
            <carlapatchbay>
              <CARLA-PROJECT VERSION="2.2">
                <EngineSettings>
                  <ForceStereo>false</ForceStereo>
                  <PreferPluginBridges>false</PreferPluginBridges>
                  <PreferUiBridges>true</PreferUiBridges>
                  <UIsAlwaysOnTop>false</UIsAlwaysOnTop>
                  <MaxParameters>200</MaxParameters>
                  <UIBridgesTimeout>4000</UIBridgesTimeout>
                  <LADSPA_PATH>/home/pass/.ladspa:/usr/lib/ladspa:/usr/local/lib/ladspa</LADSPA_PATH>
                  <DSSI_PATH>/home/pass/.dssi:/usr/lib/dssi:/usr/local/lib/dssi</DSSI_PATH>
                  <LV2_PATH>/home/pass/.lv2:/usr/lib/lv2:/usr/local/lib/lv2</LV2_PATH>
                  <VST2_PATH>/home/pass/.vst:/home/pass/.wine/drive_c/Program Files (x86)/VstPlugins:/home/pass/.wine/drive_c/Program Files/VstPlugins:/home/pass/vst:/usr/lib/lxvst:/usr/lib/vst:/usr/local/lib/lxvst:/usr/local/lib/vst/home/pass/.lxvst</VST2_PATH>
                  <VST3_PATH>/home/pass/.vst3:/home/pass/.wine/drive_c/Program Files (x86)/Common Files/VST3:/home/pass/.wine/drive_c/Program Files/Common Files/VST3:/usr/lib/vst3:/usr/local/lib/vst3</VST3_PATH>
                  <SF2_PATH>/home/pass/.sounds/sf2/home/pass/.sounds/sf3:/usr/share/soundfonts:/usr/share/sounds/sf2:/usr/share/sounds/sf3:/home/pass/samples/soundfonts</SF2_PATH>
                  <SFZ_PATH>/home/pass/.sounds/sfz:/home/pass/samples:/usr/share/sounds/sfz</SFZ_PATH>
                </EngineSettings>
                <!-- sfizz -->
                <Plugin>
                  <Info>
                    <Type>LV2</Type>
                    <Name>sfizz</Name>
                    <URI>http://sfztools.github.io/sfizz</URI>
                  </Info>
                  <Data>
                    <Active>Yes</Active>
                    <ControlChannel>1</ControlChannel>
                    <Options>0x3f0</Options>
                    <Parameter>
                      <Index>0</Index>
                      <Name>Volume</Name>
                      <Symbol>volume</Symbol>
                      <Value>0</Value>
                    </Parameter>
                    <Parameter>
                      <Index>1</Index>
                      <Name>Polyphony</Name>
                      <Symbol>num_voices</Symbol>
                      <Value>64</Value>
                    </Parameter>
                    <Parameter>
                      <Index>2</Index>
                      <Name>Internal oversampling factor</Name>
                      <Symbol>oversampling</Symbol>
                      <Value>1</Value>
                    </Parameter>
                    <Parameter>
                      <Index>3</Index>
                      <Name>Preload size</Name>
                      <Symbol>preload_size</Symbol>
                      <Value>8192</Value>
                    </Parameter>
                    <CustomData>
                      <Type>http://lv2plug.in/ns/ext/atom#Path</Type>
                      <Key>http://sfztools.github.io/sfizz:sfzfile</Key>
                      <Value>/home/pass/samples/fakeguitar/_fakeguitar1_integrated.sfz</Value>
                    </CustomData>
                    <CustomData>
                      <Type>http://lv2plug.in/ns/ext/atom#Int</Type>
                      <Key>http://sfztools.github.io/sfizz:numvoices</Key>
                      <Value>QAAAAA==</Value>
                    </CustomData>
                    <CustomData>
                      <Type>http://lv2plug.in/ns/ext/atom#Int</Type>
                      <Key>http://sfztools.github.io/sfizz:preload_size</Key>
                      <Value>ACAAAA==</Value>
                    </CustomData>
                    <CustomData>
                      <Type>http://lv2plug.in/ns/ext/atom#Int</Type>
                      <Key>http://sfztools.github.io/sfizz:oversampling</Key>
                      <Value>AQAAAA==</Value>
                    </CustomData>
                  </Data>
                </Plugin>
                <Patchbay>
                  <Connection>
                    <Source>Midi Input:Capture 1</Source>
                    <Target>sfizz:events-in</Target>
                  </Connection>
                  <Connection>
                    <Source>sfizz:Left Output</Source>
                    <Target>Audio Output:Right</Target>
                  </Connection>
                  <Connection>
                    <Source>sfizz:Right Output</Source>
                    <Target>Audio Output:Right</Target>
                  </Connection>
                  <Positions>
                    <Position pluginId="0" x1="1693" y1="1353">
                      <Name>sfizz</Name>
                    </Position>
                  </Positions>
                </Patchbay>
              </CARLA-PROJECT>
            </carlapatchbay>
          </instrument>
          <eldata fwet="0" ftype="0" fcut="14000" fres="0.5">
            <elvol lspd_denominator="4" lamt="0" amt="0" dec="0.5" hold="0.5" lshp="0" ctlenvamt="0" lspd="0.1" rel="0.1" pdel="0" lspd_syncmode="0" att="0" sustain="0.5" userwavefile="" latt="0" lspd_numerator="4" lpdel="0" x100="0"/>
            <elcut lspd_denominator="4" lamt="0" amt="0" dec="0.5" hold="0.5" lshp="0" ctlenvamt="0" lspd="0.1" rel="0.1" pdel="0" lspd_syncmode="0" att="0" sustain="0.5" userwavefile="" latt="0" lspd_numerator="4" lpdel="0" x100="0"/>
            <elres lspd_denominator="4" lamt="0" amt="0" dec="0.5" hold="0.5" lshp="0" ctlenvamt="0" lspd="0.1" rel="0.1" pdel="0" lspd_syncmode="0" att="0" sustain="0.5" userwavefile="" latt="0" lspd_numerator="4" lpdel="0" x100="0"/>
          </eldata>
          <chordcreator chordrange="1" chord-enabled="0" chord="0"/>
          <arpeggiator arptime_syncmode="0" arptime="200" arptime_denominator="4" arpdir="0" arp="0" arpmode="0" arpcycle="0" arpmiss="0" arptime_numerator="4" arprange="1" arp-enabled="0" arpskip="0" arpgate="100"/>
          <midiport inputcontroller="0" outputchannel="1" outputprogram="1" readable="0" outputcontroller="0" fixedoutputvelocity="-1" fixedoutputnote="-1" fixedinputvelocity="-1" writable="0" inputchannel="0" basevelocity="63"/>
          <fxchain enabled="0" numofeffects="0"/>
        </instrumenttrack>
        <pattern pos="0" muted="0" steps="16" type="1" name="lgtH1">
          <note len="144" pos="0" pan="0" vol="193" key="81"/>
          <note len="48" pos="0" pan="0" vol="193" key="0"/>
          <note len="48" pos="144" pan="0" vol="193" key="78"/>
          <note len="144" pos="192" pan="0" vol="193" key="85"/>
          <note len="48" pos="336" pan="0" vol="193" key="81"/>
          <note len="144" pos="384" pan="0" vol="193" key="80"/>
          <note len="48" pos="528" pan="0" vol="193" key="77"/>
          <note len="144" pos="576" pan="0" vol="193" key="85"/>
          <note len="48" pos="720" pan="0" vol="193" key="81"/>
          <note len="144" pos="768" pan="0" vol="193" key="80"/>
          <note len="48" pos="912" pan="0" vol="193" key="76"/>
          <note len="96" pos="960" pan="0" vol="193" key="83"/>
          <note len="48" pos="1056" pan="0" vol="193" key="81"/>
          <note len="48" pos="1104" pan="0" vol="193" key="80"/>
          <note len="192" pos="1152" pan="0" vol="193" key="78"/>
          <note len="192" pos="1344" pan="0" vol="193" key="83"/>
        </pattern>
        <pattern pos="1536" muted="0" steps="16" type="1" name="lgtH1">
          <note len="144" pos="0" pan="0" vol="193" key="81"/>
          <note len="48" pos="0" pan="0" vol="193" key="0"/>
          <note len="48" pos="144" pan="0" vol="193" key="78"/>
          <note len="144" pos="192" pan="0" vol="193" key="85"/>
          <note len="48" pos="336" pan="0" vol="193" key="83"/>
          <note len="144" pos="384" pan="0" vol="193" key="81"/>
          <note len="48" pos="528" pan="0" vol="193" key="76"/>
          <note len="144" pos="576" pan="0" vol="193" key="85"/>
          <note len="48" pos="720" pan="0" vol="193" key="81"/>
          <note len="144" pos="768" pan="0" vol="193" key="80"/>
          <note len="48" pos="912" pan="0" vol="193" key="77"/>
          <note len="72" pos="960" pan="0" vol="193" key="83"/>
          <note len="72" pos="1032" pan="0" vol="193" key="85"/>
          <note len="48" pos="1104" pan="0" vol="193" key="86"/>
          <note len="72" pos="1152" pan="0" vol="193" key="85"/>
          <note len="12" pos="1224" pan="0" vol="193" key="86"/>
          <note len="12" pos="1236" pan="0" vol="193" key="85"/>
          <note len="72" pos="1248" pan="0" vol="193" key="83"/>
          <note len="12" pos="1320" pan="0" vol="193" key="85"/>
          <note len="12" pos="1332" pan="0" vol="193" key="83"/>
          <note len="24" pos="1344" pan="0" vol="193" key="81"/>
          <note len="12" pos="1368" pan="0" vol="193" key="83"/>
          <note len="12" pos="1380" pan="0" vol="193" key="81"/>
          <note len="24" pos="1392" pan="0" vol="193" key="80"/>
          <note len="12" pos="1416" pan="0" vol="193" key="81"/>
          <note len="12" pos="1428" pan="0" vol="193" key="80"/>
          <note len="12" pos="1440" pan="0" vol="193" key="78"/>
          <note len="12" pos="1452" pan="0" vol="193" key="80"/>
          <note len="12" pos="1464" pan="0" vol="193" key="78"/>
          <note len="12" pos="1476" pan="0" vol="193" key="77"/>
          <note len="12" pos="1488" pan="0" vol="193" key="78"/>
          <note len="12" pos="1500" pan="0" vol="193" key="80"/>
          <note len="12" pos="1512" pan="0" vol="193" key="81"/>
          <note len="12" pos="1524" pan="0" vol="193" key="83"/>
        </pattern>
        <pattern pos="3072" muted="0" steps="16" type="1" name="lgtH1">
          <note len="144" pos="0" pan="0" vol="193" key="81"/>
          <note len="48" pos="0" pan="0" vol="193" key="0"/>
          <note len="48" pos="144" pan="0" vol="193" key="78"/>
          <note len="144" pos="192" pan="0" vol="193" key="85"/>
          <note len="48" pos="336" pan="0" vol="193" key="81"/>
          <note len="144" pos="384" pan="0" vol="193" key="80"/>
          <note len="48" pos="528" pan="0" vol="193" key="77"/>
          <note len="144" pos="576" pan="0" vol="193" key="85"/>
          <note len="48" pos="720" pan="0" vol="193" key="81"/>
          <note len="144" pos="768" pan="0" vol="193" key="80"/>
          <note len="48" pos="912" pan="0" vol="193" key="76"/>
          <note len="96" pos="960" pan="0" vol="193" key="83"/>
          <note len="48" pos="1056" pan="0" vol="193" key="81"/>
          <note len="48" pos="1104" pan="0" vol="193" key="80"/>
          <note len="192" pos="1152" pan="0" vol="193" key="78"/>
          <note len="192" pos="1344" pan="0" vol="193" key="83"/>
        </pattern>
        <pattern pos="4608" muted="0" steps="16" type="1" name="lgtH1">
          <note len="144" pos="0" pan="0" vol="193" key="81"/>
          <note len="48" pos="0" pan="0" vol="193" key="0"/>
          <note len="48" pos="144" pan="0" vol="193" key="78"/>
          <note len="144" pos="192" pan="0" vol="193" key="85"/>
          <note len="48" pos="336" pan="0" vol="193" key="83"/>
          <note len="144" pos="384" pan="0" vol="193" key="81"/>
          <note len="48" pos="528" pan="0" vol="193" key="76"/>
          <note len="144" pos="576" pan="0" vol="193" key="85"/>
          <note len="48" pos="720" pan="0" vol="193" key="81"/>
          <note len="144" pos="768" pan="0" vol="193" key="80"/>
          <note len="48" pos="912" pan="0" vol="193" key="77"/>
          <note len="72" pos="960" pan="0" vol="193" key="83"/>
          <note len="72" pos="1032" pan="0" vol="193" key="85"/>
          <note len="48" pos="1104" pan="0" vol="193" key="86"/>
          <note len="72" pos="1152" pan="0" vol="193" key="85"/>
          <note len="12" pos="1224" pan="0" vol="193" key="86"/>
          <note len="12" pos="1236" pan="0" vol="193" key="85"/>
          <note len="72" pos="1248" pan="0" vol="193" key="83"/>
          <note len="12" pos="1320" pan="0" vol="193" key="85"/>
          <note len="12" pos="1332" pan="0" vol="193" key="83"/>
          <note len="24" pos="1344" pan="0" vol="193" key="81"/>
          <note len="12" pos="1368" pan="0" vol="193" key="83"/>
          <note len="12" pos="1380" pan="0" vol="193" key="81"/>
          <note len="24" pos="1392" pan="0" vol="193" key="80"/>
          <note len="12" pos="1416" pan="0" vol="193" key="81"/>
          <note len="12" pos="1428" pan="0" vol="193" key="80"/>
          <note len="12" pos="1440" pan="0" vol="193" key="78"/>
          <note len="12" pos="1452" pan="0" vol="193" key="80"/>
          <note len="12" pos="1464" pan="0" vol="193" key="78"/>
          <note len="12" pos="1476" pan="0" vol="193" key="77"/>
          <note len="12" pos="1488" pan="0" vol="193" key="78"/>
          <note len="12" pos="1500" pan="0" vol="193" key="80"/>
          <note len="12" pos="1512" pan="0" vol="193" key="81"/>
          <note len="12" pos="1524" pan="0" vol="193" key="83"/>
        </pattern>
        <pattern pos="8448" muted="0" steps="16" type="1" name="lgtH1">
          <note len="12" pos="0" pan="0" vol="100" key="66"/>
          <note len="12" pos="0" pan="0" vol="100" key="0"/>
          <note len="12" pos="12" pan="0" vol="100" key="64"/>
          <note len="12" pos="12" pan="0" vol="100" key="1"/>
          <note len="12" pos="24" pan="0" vol="100" key="62"/>
          <note len="12" pos="36" pan="0" vol="100" key="64"/>
          <note len="12" pos="48" pan="0" vol="100" key="66"/>
          <note len="12" pos="60" pan="0" vol="100" key="68"/>
          <note len="12" pos="72" pan="0" vol="100" key="69"/>
          <note len="12" pos="84" pan="0" vol="100" key="71"/>
          <note len="12" pos="96" pan="0" vol="100" key="73"/>
          <note len="12" pos="96" pan="0" vol="100" key="0"/>
          <note len="12" pos="108" pan="0" vol="100" key="71"/>
          <note len="12" pos="108" pan="0" vol="100" key="1"/>
          <note len="12" pos="120" pan="0" vol="100" key="69"/>
          <note len="12" pos="132" pan="0" vol="100" key="68"/>
          <note len="12" pos="144" pan="0" vol="100" key="66"/>
          <note len="12" pos="144" pan="0" vol="100" key="0"/>
          <note len="12" pos="156" pan="0" vol="100" key="64"/>
          <note len="12" pos="168" pan="0" vol="100" key="62"/>
          <note len="12" pos="168" pan="0" vol="100" key="1"/>
          <note len="12" pos="180" pan="0" vol="100" key="64"/>
          <note len="12" pos="192" pan="0" vol="100" key="66"/>
          <note len="12" pos="204" pan="0" vol="100" key="68"/>
          <note len="12" pos="216" pan="0" vol="100" key="69"/>
          <note len="12" pos="228" pan="0" vol="100" key="71"/>
          <note len="12" pos="240" pan="0" vol="100" key="68"/>
          <note len="12" pos="252" pan="0" vol="100" key="69"/>
          <note len="12" pos="264" pan="0" vol="100" key="71"/>
          <note len="12" pos="276" pan="0" vol="100" key="73"/>
          <note len="12" pos="288" pan="0" vol="100" key="69"/>
          <note len="12" pos="300" pan="0" vol="100" key="71"/>
          <note len="12" pos="312" pan="0" vol="100" key="73"/>
          <note len="12" pos="324" pan="0" vol="100" key="74"/>
          <note len="12" pos="336" pan="0" vol="100" key="71"/>
          <note len="12" pos="348" pan="0" vol="100" key="73"/>
          <note len="12" pos="360" pan="0" vol="100" key="74"/>
          <note len="12" pos="372" pan="0" vol="100" key="76"/>
          <note len="12" pos="384" pan="0" vol="100" key="80"/>
          <note len="192" pos="384" pan="0" vol="100" key="0"/>
          <note len="12" pos="396" pan="0" vol="100" key="78"/>
          <note len="12" pos="408" pan="0" vol="100" key="76"/>
          <note len="12" pos="420" pan="0" vol="100" key="74"/>
          <note len="12" pos="432" pan="0" vol="100" key="81"/>
          <note len="12" pos="444" pan="0" vol="100" key="80"/>
          <note len="12" pos="456" pan="0" vol="100" key="78"/>
          <note len="12" pos="468" pan="0" vol="100" key="76"/>
          <note len="12" pos="480" pan="0" vol="100" key="83"/>
          <note len="12" pos="492" pan="0" vol="100" key="81"/>
          <note len="12" pos="504" pan="0" vol="100" key="80"/>
          <note len="12" pos="516" pan="0" vol="100" key="78"/>
          <note len="12" pos="528" pan="0" vol="100" key="85"/>
          <note len="12" pos="540" pan="0" vol="100" key="83"/>
          <note len="12" pos="552" pan="0" vol="100" key="81"/>
          <note len="12" pos="564" pan="0" vol="100" key="80"/>
          <note len="12" pos="576" pan="0" vol="100" key="85"/>
          <note len="12" pos="576" pan="0" vol="100" key="0"/>
          <note len="12" pos="588" pan="0" vol="100" key="86"/>
          <note len="12" pos="600" pan="0" vol="100" key="85"/>
          <note len="12" pos="600" pan="0" vol="100" key="1"/>
          <note len="12" pos="612" pan="0" vol="100" key="83"/>
          <note len="12" pos="624" pan="0" vol="100" key="85"/>
          <note len="12" pos="624" pan="0" vol="100" key="0"/>
          <note len="12" pos="636" pan="0" vol="100" key="83"/>
          <note len="12" pos="636" pan="0" vol="100" key="1"/>
          <note len="12" pos="648" pan="0" vol="100" key="81"/>
          <note len="12" pos="660" pan="0" vol="100" key="80"/>
          <note len="12" pos="672" pan="0" vol="100" key="81"/>
          <note len="12" pos="672" pan="0" vol="100" key="0"/>
          <note len="12" pos="684" pan="0" vol="100" key="83"/>
          <note len="12" pos="684" pan="0" vol="100" key="1"/>
          <note len="12" pos="696" pan="0" vol="100" key="81"/>
          <note len="12" pos="708" pan="0" vol="100" key="80"/>
          <note len="12" pos="720" pan="0" vol="100" key="81"/>
          <note len="12" pos="720" pan="0" vol="100" key="0"/>
          <note len="12" pos="732" pan="0" vol="100" key="80"/>
          <note len="12" pos="744" pan="0" vol="100" key="78"/>
          <note len="12" pos="756" pan="0" vol="100" key="77"/>
          <note len="192" pos="768" pan="0" vol="100" key="81"/>
        </pattern>
        <pattern pos="12288" muted="0" steps="16" type="1" name="lgtH1">
          <note len="12" pos="0" pan="0" vol="197" key="69"/>
          <note len="12" pos="0" pan="0" vol="100" key="1"/>
          <note len="12" pos="12" pan="0" vol="197" key="69"/>
          <note len="12" pos="24" pan="0" vol="197" key="66"/>
          <note len="12" pos="36" pan="0" vol="197" key="66"/>
          <note len="12" pos="48" pan="0" vol="197" key="61"/>
          <note len="12" pos="60" pan="0" vol="197" key="61"/>
          <note len="12" pos="72" pan="0" vol="197" key="68"/>
          <note len="12" pos="84" pan="0" vol="197" key="68"/>
          <note len="12" pos="96" pan="0" vol="197" key="61"/>
          <note len="12" pos="108" pan="0" vol="197" key="61"/>
          <note len="12" pos="120" pan="0" vol="197" key="69"/>
          <note len="12" pos="132" pan="0" vol="197" key="69"/>
          <note len="12" pos="144" pan="0" vol="197" key="66"/>
          <note len="12" pos="156" pan="0" vol="197" key="66"/>
          <note len="12" pos="168" pan="0" vol="197" key="61"/>
          <note len="12" pos="180" pan="0" vol="197" key="61"/>
          <note len="12" pos="192" pan="0" vol="197" key="69"/>
          <note len="12" pos="204" pan="0" vol="197" key="69"/>
          <note len="12" pos="216" pan="0" vol="197" key="66"/>
          <note len="12" pos="228" pan="0" vol="197" key="66"/>
          <note len="12" pos="240" pan="0" vol="197" key="61"/>
          <note len="12" pos="252" pan="0" vol="197" key="61"/>
          <note len="12" pos="264" pan="0" vol="197" key="68"/>
          <note len="12" pos="276" pan="0" vol="197" key="68"/>
          <note len="12" pos="288" pan="0" vol="197" key="61"/>
          <note len="12" pos="300" pan="0" vol="197" key="61"/>
          <note len="12" pos="312" pan="0" vol="197" key="71"/>
          <note len="12" pos="324" pan="0" vol="197" key="71"/>
          <note len="12" pos="336" pan="0" vol="197" key="69"/>
          <note len="12" pos="348" pan="0" vol="197" key="69"/>
          <note len="12" pos="360" pan="0" vol="197" key="68"/>
          <note len="12" pos="372" pan="0" vol="197" key="68"/>
          <note len="12" pos="384" pan="0" vol="197" key="73"/>
          <note len="12" pos="396" pan="0" vol="197" key="73"/>
          <note len="12" pos="408" pan="0" vol="197" key="68"/>
          <note len="12" pos="420" pan="0" vol="197" key="68"/>
          <note len="12" pos="432" pan="0" vol="197" key="64"/>
          <note len="12" pos="444" pan="0" vol="197" key="64"/>
          <note len="12" pos="456" pan="0" vol="197" key="68"/>
          <note len="12" pos="468" pan="0" vol="197" key="68"/>
          <note len="12" pos="480" pan="0" vol="197" key="61"/>
          <note len="12" pos="492" pan="0" vol="197" key="61"/>
          <note len="12" pos="504" pan="0" vol="197" key="64"/>
          <note len="12" pos="516" pan="0" vol="197" key="64"/>
          <note len="12" pos="528" pan="0" vol="197" key="56"/>
          <note len="12" pos="540" pan="0" vol="197" key="56"/>
          <note len="12" pos="552" pan="0" vol="197" key="61"/>
          <note len="12" pos="564" pan="0" vol="197" key="61"/>
          <note len="12" pos="576" pan="0" vol="197" key="64"/>
          <note len="12" pos="588" pan="0" vol="197" key="64"/>
          <note len="12" pos="600" pan="0" vol="197" key="61"/>
          <note len="12" pos="612" pan="0" vol="197" key="61"/>
          <note len="12" pos="624" pan="0" vol="197" key="68"/>
          <note len="12" pos="636" pan="0" vol="197" key="68"/>
          <note len="12" pos="648" pan="0" vol="197" key="64"/>
          <note len="12" pos="660" pan="0" vol="197" key="64"/>
          <note len="12" pos="672" pan="0" vol="197" key="73"/>
          <note len="12" pos="672" pan="0" vol="197" key="0"/>
          <note len="12" pos="684" pan="0" vol="197" key="68"/>
          <note len="12" pos="696" pan="0" vol="197" key="64"/>
          <note len="12" pos="708" pan="0" vol="197" key="61"/>
          <note len="12" pos="708" pan="0" vol="197" key="1"/>
          <note len="12" pos="720" pan="0" vol="197" key="56"/>
          <note len="12" pos="732" pan="0" vol="197" key="61"/>
          <note len="12" pos="744" pan="0" vol="197" key="64"/>
          <note len="12" pos="756" pan="0" vol="197" key="68"/>
        </pattern>
        <pattern pos="13056" muted="0" steps="16" type="1" name="">
          <note len="12" pos="0" pan="0" vol="197" key="69"/>
          <note len="12" pos="0" pan="0" vol="100" key="1"/>
          <note len="12" pos="12" pan="0" vol="197" key="69"/>
          <note len="12" pos="24" pan="0" vol="197" key="66"/>
          <note len="12" pos="36" pan="0" vol="197" key="66"/>
          <note len="12" pos="48" pan="0" vol="197" key="61"/>
          <note len="12" pos="60" pan="0" vol="197" key="61"/>
          <note len="12" pos="72" pan="0" vol="197" key="68"/>
          <note len="12" pos="84" pan="0" vol="197" key="68"/>
          <note len="12" pos="96" pan="0" vol="197" key="61"/>
          <note len="12" pos="108" pan="0" vol="197" key="61"/>
          <note len="12" pos="120" pan="0" vol="197" key="69"/>
          <note len="12" pos="132" pan="0" vol="197" key="69"/>
          <note len="12" pos="144" pan="0" vol="197" key="66"/>
          <note len="12" pos="156" pan="0" vol="197" key="66"/>
          <note len="12" pos="168" pan="0" vol="197" key="61"/>
          <note len="12" pos="180" pan="0" vol="197" key="61"/>
          <note len="12" pos="192" pan="0" vol="197" key="69"/>
          <note len="12" pos="204" pan="0" vol="197" key="69"/>
          <note len="12" pos="216" pan="0" vol="197" key="66"/>
          <note len="12" pos="228" pan="0" vol="197" key="66"/>
          <note len="12" pos="240" pan="0" vol="197" key="61"/>
          <note len="12" pos="252" pan="0" vol="197" key="61"/>
          <note len="12" pos="264" pan="0" vol="197" key="68"/>
          <note len="12" pos="276" pan="0" vol="197" key="68"/>
          <note len="12" pos="288" pan="0" vol="197" key="61"/>
          <note len="12" pos="300" pan="0" vol="197" key="61"/>
          <note len="12" pos="312" pan="0" vol="197" key="71"/>
          <note len="12" pos="324" pan="0" vol="197" key="71"/>
          <note len="12" pos="336" pan="0" vol="197" key="69"/>
          <note len="12" pos="348" pan="0" vol="197" key="69"/>
          <note len="12" pos="360" pan="0" vol="197" key="68"/>
          <note len="12" pos="372" pan="0" vol="197" key="68"/>
          <note len="12" pos="384" pan="0" vol="197" key="73"/>
          <note len="12" pos="396" pan="0" vol="197" key="73"/>
          <note len="12" pos="408" pan="0" vol="197" key="68"/>
          <note len="12" pos="420" pan="0" vol="197" key="68"/>
          <note len="12" pos="432" pan="0" vol="197" key="64"/>
          <note len="12" pos="444" pan="0" vol="197" key="64"/>
          <note len="12" pos="456" pan="0" vol="197" key="68"/>
          <note len="12" pos="468" pan="0" vol="197" key="68"/>
          <note len="12" pos="480" pan="0" vol="197" key="61"/>
          <note len="12" pos="492" pan="0" vol="197" key="61"/>
          <note len="12" pos="504" pan="0" vol="197" key="64"/>
          <note len="12" pos="516" pan="0" vol="197" key="64"/>
          <note len="12" pos="528" pan="0" vol="197" key="56"/>
          <note len="12" pos="540" pan="0" vol="197" key="56"/>
          <note len="12" pos="552" pan="0" vol="197" key="61"/>
          <note len="12" pos="564" pan="0" vol="197" key="61"/>
          <note len="12" pos="576" pan="0" vol="197" key="68"/>
          <note len="12" pos="588" pan="0" vol="197" key="64"/>
          <note len="12" pos="600" pan="0" vol="197" key="61"/>
          <note len="12" pos="612" pan="0" vol="197" key="64"/>
          <note len="12" pos="624" pan="0" vol="197" key="73"/>
          <note len="12" pos="636" pan="0" vol="197" key="68"/>
          <note len="12" pos="648" pan="0" vol="197" key="64"/>
          <note len="12" pos="660" pan="0" vol="197" key="68"/>
          <note len="12" pos="672" pan="0" vol="197" key="76"/>
          <note len="12" pos="672" pan="0" vol="197" key="0"/>
          <note len="12" pos="684" pan="0" vol="197" key="73"/>
          <note len="12" pos="696" pan="0" vol="197" key="68"/>
          <note len="12" pos="708" pan="0" vol="197" key="73"/>
          <note len="12" pos="708" pan="0" vol="197" key="1"/>
          <note len="12" pos="720" pan="0" vol="197" key="80"/>
          <note len="12" pos="732" pan="0" vol="197" key="76"/>
          <note len="12" pos="744" pan="0" vol="197" key="73"/>
          <note len="12" pos="756" pan="0" vol="197" key="68"/>
        </pattern>
        <pattern pos="16896" muted="0" steps="16" type="1" name="lgtH1">
          <note len="120" pos="0" pan="0" vol="193" key="74"/>
          <note len="48" pos="0" pan="0" vol="193" key="0"/>
          <note len="24" pos="120" pan="0" vol="193" key="73"/>
          <note len="24" pos="144" pan="0" vol="193" key="71"/>
          <note len="24" pos="168" pan="0" vol="193" key="69"/>
          <note len="48" pos="192" pan="0" vol="193" key="68"/>
          <note len="48" pos="240" pan="0" vol="193" key="64"/>
          <note len="24" pos="288" pan="0" vol="193" key="68"/>
          <note len="24" pos="312" pan="0" vol="193" key="64"/>
          <note len="24" pos="336" pan="0" vol="193" key="69"/>
          <note len="24" pos="360" pan="0" vol="193" key="71"/>
          <note len="120" pos="384" pan="0" vol="193" key="73"/>
          <note len="24" pos="504" pan="0" vol="193" key="71"/>
          <note len="24" pos="528" pan="0" vol="193" key="69"/>
          <note len="24" pos="552" pan="0" vol="193" key="68"/>
          <note len="48" pos="576" pan="0" vol="193" key="66"/>
          <note len="48" pos="624" pan="0" vol="193" key="62"/>
          <note len="24" pos="672" pan="0" vol="193" key="66"/>
          <note len="24" pos="696" pan="0" vol="193" key="62"/>
          <note len="24" pos="720" pan="0" vol="193" key="68"/>
          <note len="24" pos="744" pan="0" vol="193" key="69"/>
          <note len="24" pos="768" pan="0" vol="193" key="71"/>
          <note len="24" pos="792" pan="0" vol="193" key="69"/>
          <note len="24" pos="816" pan="0" vol="193" key="68"/>
          <note len="24" pos="840" pan="0" vol="193" key="66"/>
          <note len="24" pos="864" pan="0" vol="193" key="68"/>
          <note len="24" pos="888" pan="0" vol="193" key="66"/>
          <note len="24" pos="912" pan="0" vol="193" key="65"/>
          <note len="24" pos="936" pan="0" vol="193" key="61"/>
          <note len="12" pos="960" pan="0" vol="193" key="65"/>
          <note len="12" pos="960" pan="0" vol="193" key="0"/>
          <note len="12" pos="972" pan="0" vol="193" key="61"/>
          <note len="12" pos="972" pan="0" vol="193" key="1"/>
          <note len="12" pos="984" pan="0" vol="193" key="56"/>
          <note len="12" pos="996" pan="0" vol="193" key="53"/>
          <note len="12" pos="1008" pan="0" vol="193" key="56"/>
          <note len="12" pos="1020" pan="0" vol="193" key="61"/>
          <note len="12" pos="1032" pan="0" vol="193" key="68"/>
          <note len="12" pos="1032" pan="0" vol="193" key="0"/>
          <note len="12" pos="1044" pan="0" vol="193" key="65"/>
          <note len="12" pos="1044" pan="0" vol="193" key="1"/>
          <note len="12" pos="1056" pan="0" vol="193" key="61"/>
          <note len="12" pos="1068" pan="0" vol="193" key="56"/>
          <note len="12" pos="1080" pan="0" vol="193" key="61"/>
          <note len="12" pos="1092" pan="0" vol="193" key="65"/>
          <note len="12" pos="1104" pan="0" vol="193" key="68"/>
          <note len="12" pos="1116" pan="0" vol="193" key="69"/>
          <note len="12" pos="1128" pan="0" vol="193" key="71"/>
          <note len="12" pos="1140" pan="0" vol="193" key="73"/>
          <note len="12" pos="1140" pan="0" vol="193" key="0"/>
          <note len="168" pos="1152" pan="0" vol="193" key="78"/>
          <note len="12" pos="1320" pan="0" vol="193" key="78"/>
          <note len="12" pos="1332" pan="0" vol="193" key="80"/>
          <note len="12" pos="1344" pan="0" vol="193" key="81"/>
          <note len="12" pos="1356" pan="0" vol="193" key="78"/>
          <note len="12" pos="1368" pan="0" vol="193" key="80"/>
          <note len="12" pos="1380" pan="0" vol="193" key="81"/>
          <note len="12" pos="1392" pan="0" vol="193" key="83"/>
          <note len="12" pos="1404" pan="0" vol="193" key="80"/>
          <note len="12" pos="1416" pan="0" vol="193" key="81"/>
          <note len="12" pos="1428" pan="0" vol="193" key="83"/>
          <note len="12" pos="1440" pan="0" vol="193" key="85"/>
          <note len="12" pos="1452" pan="0" vol="193" key="83"/>
          <note len="12" pos="1464" pan="0" vol="193" key="81"/>
          <note len="12" pos="1476" pan="0" vol="193" key="80"/>
          <note len="12" pos="1488" pan="0" vol="193" key="83"/>
          <note len="12" pos="1500" pan="0" vol="193" key="81"/>
          <note len="12" pos="1512" pan="0" vol="193" key="80"/>
          <note len="12" pos="1524" pan="0" vol="193" key="78"/>
        </pattern>
        <pattern pos="16704" muted="0" steps="16" type="1" name="lgtH1">
          <note len="24" pos="132" pan="0" vol="193" key="1"/>
          <note len="24" pos="144" pan="0" vol="193" key="71"/>
          <note len="24" pos="168" pan="0" vol="193" key="73"/>
        </pattern>
        <pattern pos="18432" muted="0" steps="16" type="1" name="">
          <note len="120" pos="0" pan="0" vol="193" key="74"/>
          <note len="48" pos="0" pan="0" vol="193" key="0"/>
          <note len="24" pos="120" pan="0" vol="193" key="76"/>
          <note len="24" pos="144" pan="0" vol="193" key="76"/>
          <note len="24" pos="168" pan="0" vol="193" key="78"/>
          <note len="48" pos="192" pan="0" vol="193" key="76"/>
          <note len="48" pos="240" pan="0" vol="193" key="71"/>
          <note len="24" pos="288" pan="0" vol="193" key="76"/>
          <note len="24" pos="312" pan="0" vol="193" key="78"/>
          <note len="24" pos="336" pan="0" vol="193" key="80"/>
          <note len="24" pos="360" pan="0" vol="193" key="76"/>
          <note len="120" pos="384" pan="0" vol="193" key="81"/>
          <note len="24" pos="504" pan="0" vol="193" key="81"/>
          <note len="24" pos="528" pan="0" vol="193" key="83"/>
          <note len="24" pos="552" pan="0" vol="193" key="85"/>
          <note len="48" pos="576" pan="0" vol="193" key="85"/>
          <note len="48" pos="624" pan="0" vol="193" key="78"/>
          <note len="24" pos="672" pan="0" vol="193" key="80"/>
          <note len="24" pos="696" pan="0" vol="193" key="78"/>
          <note len="24" pos="720" pan="0" vol="193" key="80"/>
          <note len="24" pos="744" pan="0" vol="193" key="81"/>
          <note len="72" pos="768" pan="0" vol="193" key="83"/>
          <note len="24" pos="840" pan="0" vol="193" key="78"/>
          <note len="48" pos="864" pan="0" vol="193" key="78"/>
          <note len="48" pos="912" pan="0" vol="193" key="78"/>
          <note len="48" pos="960" pan="0" vol="193" key="84"/>
          <note len="48" pos="1008" pan="0" vol="193" key="80"/>
          <note len="48" pos="1056" pan="0" vol="193" key="84"/>
          <note len="48" pos="1104" pan="0" vol="193" key="87"/>
          <note len="192" pos="1152" pan="0" vol="193" key="85"/>
          <note len="48" pos="1344" pan="0" vol="193" key="85"/>
          <note len="48" pos="1392" pan="0" vol="193" key="81"/>
          <note len="48" pos="1440" pan="0" vol="193" key="78"/>
          <note len="48" pos="1488" pan="0" vol="193" key="77"/>
        </pattern>
        <pattern pos="19968" muted="0" steps="16" type="1" name="lgtH1">
          <note len="12" pos="96" pan="0" vol="100" key="62"/>
          <note len="12" pos="96" pan="0" vol="100" key="1"/>
          <note len="12" pos="108" pan="0" vol="100" key="65"/>
          <note len="12" pos="120" pan="0" vol="100" key="66"/>
          <note len="12" pos="132" pan="0" vol="100" key="68"/>
          <note len="12" pos="144" pan="0" vol="100" key="69"/>
          <note len="12" pos="156" pan="0" vol="100" key="71"/>
          <note len="12" pos="168" pan="0" vol="100" key="73"/>
          <note len="12" pos="180" pan="0" vol="100" key="77"/>
        </pattern>
        <pattern pos="20160" muted="0" steps="16" type="1" name="lgtH1">
          <note len="12" pos="0" pan="0" vol="100" key="1"/>
          <note len="12" pos="96" pan="0" vol="100" key="78"/>
          <note len="12" pos="108" pan="0" vol="100" key="80"/>
          <note len="12" pos="120" pan="0" vol="100" key="81"/>
          <note len="12" pos="132" pan="0" vol="100" key="83"/>
          <note len="12" pos="144" pan="0" vol="100" key="80"/>
          <note len="12" pos="156" pan="0" vol="100" key="81"/>
          <note len="12" pos="168" pan="0" vol="100" key="83"/>
          <note len="12" pos="180" pan="0" vol="100" key="85"/>
        </pattern>
        <pattern pos="20352" muted="0" steps="16" type="1" name="lgtH1">
          <note len="12" pos="0" pan="0" vol="100" key="86"/>
          <note len="12" pos="0" pan="0" vol="100" key="0"/>
          <note len="12" pos="12" pan="0" vol="100" key="85"/>
          <note len="12" pos="12" pan="0" vol="100" key="1"/>
          <note len="12" pos="24" pan="0" vol="100" key="83"/>
          <note len="12" pos="36" pan="0" vol="100" key="81"/>
          <note len="12" pos="48" pan="0" vol="100" key="85"/>
          <note len="12" pos="48" pan="0" vol="100" key="0"/>
          <note len="12" pos="60" pan="0" vol="100" key="83"/>
          <note len="12" pos="60" pan="0" vol="100" key="1"/>
          <note len="12" pos="72" pan="0" vol="100" key="81"/>
          <note len="12" pos="84" pan="0" vol="100" key="80"/>
          <note len="12" pos="96" pan="0" vol="100" key="83"/>
          <note len="12" pos="96" pan="0" vol="100" key="0"/>
          <note len="12" pos="108" pan="0" vol="100" key="81"/>
          <note len="12" pos="108" pan="0" vol="100" key="1"/>
          <note len="12" pos="120" pan="0" vol="100" key="80"/>
          <note len="12" pos="132" pan="0" vol="100" key="78"/>
          <note len="12" pos="144" pan="0" vol="100" key="81"/>
          <note len="12" pos="144" pan="0" vol="100" key="0"/>
          <note len="12" pos="156" pan="0" vol="100" key="80"/>
          <note len="12" pos="156" pan="0" vol="100" key="1"/>
          <note len="12" pos="168" pan="0" vol="100" key="78"/>
          <note len="12" pos="180" pan="0" vol="100" key="77"/>
          <note len="12" pos="192" pan="0" vol="193" key="78"/>
          <note len="12" pos="204" pan="0" vol="193" key="77"/>
          <note len="12" pos="216" pan="0" vol="193" key="74"/>
          <note len="12" pos="228" pan="0" vol="193" key="77"/>
          <note len="12" pos="240" pan="0" vol="193" key="78"/>
          <note len="12" pos="252" pan="0" vol="193" key="80"/>
          <note len="12" pos="264" pan="0" vol="193" key="81"/>
          <note len="12" pos="276" pan="0" vol="193" key="83"/>
          <note len="12" pos="288" pan="0" vol="193" key="85"/>
          <note len="48" pos="288" pan="0" vol="193" key="1"/>
          <note len="12" pos="300" pan="0" vol="193" key="80"/>
          <note len="12" pos="312" pan="0" vol="193" key="77"/>
          <note len="12" pos="324" pan="0" vol="193" key="73"/>
          <note len="12" pos="336" pan="0" vol="193" key="68"/>
          <note len="12" pos="348" pan="0" vol="193" key="73"/>
          <note len="12" pos="360" pan="0" vol="193" key="77"/>
          <note len="12" pos="372" pan="0" vol="193" key="80"/>
        </pattern>
        <pattern pos="20736" muted="0" steps="16" type="1" name="">
          <note len="48" pos="0" pan="0" vol="100" key="81"/>
          <note len="48" pos="0" pan="0" vol="193" key="0"/>
          <note len="24" pos="48" pan="0" vol="100" key="80"/>
          <note len="48" pos="72" pan="0" vol="100" key="81"/>
          <note len="24" pos="120" pan="0" vol="100" key="73"/>
          <note len="24" pos="144" pan="0" vol="100" key="78"/>
          <note len="24" pos="168" pan="0" vol="100" key="80"/>
          <note len="48" pos="192" pan="0" vol="100" key="81"/>
          <note len="24" pos="240" pan="0" vol="100" key="80"/>
          <note len="48" pos="264" pan="0" vol="100" key="81"/>
          <note len="24" pos="312" pan="0" vol="100" key="73"/>
          <note len="24" pos="336" pan="0" vol="100" key="78"/>
          <note len="24" pos="360" pan="0" vol="100" key="80"/>
          <note len="48" pos="384" pan="0" vol="100" key="81"/>
          <note len="24" pos="432" pan="0" vol="100" key="80"/>
          <note len="48" pos="456" pan="0" vol="100" key="85"/>
          <note len="24" pos="504" pan="0" vol="100" key="81"/>
          <note len="24" pos="528" pan="0" vol="100" key="80"/>
          <note len="24" pos="552" pan="0" vol="100" key="78"/>
          <note len="24" pos="576" pan="0" vol="100" key="83"/>
          <note len="24" pos="600" pan="0" vol="100" key="85"/>
          <note len="72" pos="624" pan="0" vol="100" key="78"/>
          <note len="24" pos="696" pan="0" vol="100" key="78"/>
          <note len="24" pos="720" pan="0" vol="100" key="80"/>
          <note len="24" pos="744" pan="0" vol="100" key="73"/>
          <note len="48" pos="768" pan="0" vol="100" key="81"/>
          <note len="24" pos="816" pan="0" vol="100" key="80"/>
          <note len="48" pos="840" pan="0" vol="100" key="81"/>
          <note len="24" pos="888" pan="0" vol="100" key="73"/>
          <note len="24" pos="912" pan="0" vol="100" key="78"/>
          <note len="24" pos="936" pan="0" vol="100" key="80"/>
          <note len="48" pos="960" pan="0" vol="100" key="81"/>
          <note len="24" pos="1008" pan="0" vol="100" key="80"/>
          <note len="48" pos="1032" pan="0" vol="100" key="81"/>
          <note len="24" pos="1080" pan="0" vol="100" key="73"/>
          <note len="24" pos="1104" pan="0" vol="100" key="78"/>
          <note len="24" pos="1128" pan="0" vol="100" key="73"/>
          <note len="48" pos="1152" pan="0" vol="100" key="81"/>
          <note len="24" pos="1200" pan="0" vol="100" key="80"/>
          <note len="48" pos="1224" pan="0" vol="100" key="81"/>
          <note len="24" pos="1272" pan="0" vol="100" key="83"/>
          <note len="24" pos="1296" pan="0" vol="100" key="81"/>
          <note len="24" pos="1320" pan="0" vol="100" key="80"/>
          <note len="48" pos="1344" pan="0" vol="100" key="77"/>
          <note len="48" pos="1392" pan="0" vol="100" key="78"/>
          <note len="48" pos="1440" pan="0" vol="100" key="80"/>
          <note len="48" pos="1488" pan="0" vol="100" key="77"/>
        </pattern>
        <pattern pos="22272" muted="0" steps="16" type="1" name="">
          <note len="48" pos="0" pan="0" vol="100" key="81"/>
          <note len="48" pos="0" pan="0" vol="193" key="0"/>
          <note len="24" pos="48" pan="0" vol="100" key="80"/>
          <note len="48" pos="72" pan="0" vol="100" key="81"/>
          <note len="24" pos="120" pan="0" vol="100" key="73"/>
          <note len="24" pos="144" pan="0" vol="100" key="78"/>
          <note len="24" pos="168" pan="0" vol="100" key="80"/>
          <note len="48" pos="192" pan="0" vol="100" key="81"/>
          <note len="24" pos="240" pan="0" vol="100" key="80"/>
          <note len="48" pos="264" pan="0" vol="100" key="81"/>
          <note len="24" pos="312" pan="0" vol="100" key="73"/>
          <note len="24" pos="336" pan="0" vol="100" key="78"/>
          <note len="24" pos="360" pan="0" vol="100" key="80"/>
          <note len="48" pos="384" pan="0" vol="100" key="81"/>
          <note len="24" pos="432" pan="0" vol="100" key="80"/>
          <note len="48" pos="456" pan="0" vol="100" key="85"/>
          <note len="24" pos="504" pan="0" vol="100" key="81"/>
          <note len="24" pos="528" pan="0" vol="100" key="80"/>
          <note len="24" pos="552" pan="0" vol="100" key="78"/>
          <note len="24" pos="576" pan="0" vol="100" key="78"/>
          <note len="24" pos="600" pan="0" vol="100" key="81"/>
          <note len="72" pos="624" pan="0" vol="100" key="78"/>
          <note len="24" pos="696" pan="0" vol="100" key="80"/>
          <note len="24" pos="720" pan="0" vol="100" key="78"/>
          <note len="24" pos="744" pan="0" vol="100" key="76"/>
          <note len="48" pos="768" pan="0" vol="100" key="78"/>
          <note len="24" pos="816" pan="0" vol="100" key="76"/>
          <note len="48" pos="840" pan="0" vol="100" key="78"/>
          <note len="24" pos="888" pan="0" vol="100" key="78"/>
          <note len="24" pos="912" pan="0" vol="100" key="80"/>
          <note len="24" pos="936" pan="0" vol="100" key="81"/>
          <note len="48" pos="960" pan="0" vol="100" key="73"/>
          <note len="48" pos="1008" pan="0" vol="100" key="81"/>
          <note len="48" pos="1056" pan="0" vol="100" key="80"/>
          <note len="48" pos="1104" pan="0" vol="100" key="78"/>
          <note len="48" pos="1152" pan="0" vol="100" key="80"/>
          <note len="48" pos="1200" pan="0" vol="100" key="77"/>
          <note len="48" pos="1248" pan="0" vol="100" key="73"/>
          <note len="48" pos="1296" pan="0" vol="100" key="84"/>
          <note len="72" pos="1344" pan="0" vol="100" key="80"/>
          <note len="12" pos="1416" pan="0" vol="100" key="80"/>
          <note len="12" pos="1428" pan="0" vol="100" key="81"/>
          <note len="12" pos="1440" pan="0" vol="100" key="83"/>
          <note len="12" pos="1452" pan="0" vol="100" key="81"/>
          <note len="12" pos="1464" pan="0" vol="100" key="80"/>
          <note len="12" pos="1476" pan="0" vol="100" key="78"/>
          <note len="12" pos="1488" pan="0" vol="100" key="81"/>
          <note len="12" pos="1500" pan="0" vol="100" key="80"/>
          <note len="12" pos="1512" pan="0" vol="100" key="78"/>
          <note len="12" pos="1524" pan="0" vol="100" key="77"/>
        </pattern>
        <pattern pos="23808" muted="0" steps="16" type="1" name="lgtH1">
          <note len="96" pos="0" pan="0" vol="100" key="81"/>
          <note len="48" pos="96" pan="0" vol="100" key="80"/>
          <note len="48" pos="144" pan="0" vol="100" key="78"/>
          <note len="48" pos="192" pan="0" vol="100" key="81"/>
          <note len="48" pos="240" pan="0" vol="100" key="78"/>
          <note len="48" pos="288" pan="0" vol="100" key="81"/>
          <note len="48" pos="336" pan="0" vol="100" key="85"/>
          <note len="96" pos="384" pan="0" vol="100" key="83"/>
          <note len="96" pos="480" pan="0" vol="100" key="81"/>
          <note len="96" pos="576" pan="0" vol="100" key="80"/>
          <note len="96" pos="672" pan="0" vol="100" key="83"/>
          <note len="96" pos="768" pan="0" vol="100" key="81"/>
        </pattern>
        <pattern pos="26688" muted="0" steps="16" type="1" name="">
          <note len="48" pos="0" pan="0" vol="100" key="0"/>
          <note len="48" pos="144" pan="0" vol="193" key="73"/>
          <note len="144" pos="192" pan="0" vol="193" key="78"/>
          <note len="24" pos="336" pan="0" vol="193" key="73"/>
          <note len="24" pos="360" pan="0" vol="193" key="78"/>
          <note len="48" pos="384" pan="0" vol="193" key="81"/>
          <note len="48" pos="432" pan="0" vol="193" key="80"/>
          <note len="48" pos="480" pan="0" vol="193" key="78"/>
          <note len="48" pos="528" pan="0" vol="193" key="81"/>
          <note len="144" pos="576" pan="0" vol="193" key="80"/>
          <note len="48" pos="720" pan="0" vol="193" key="77"/>
          <note len="144" pos="768" pan="0" vol="193" key="73"/>
          <note len="48" pos="912" pan="0" vol="193" key="73"/>
        </pattern>
      </track>
      <track muted="0" solo="0" type="0" name="lgtH2">
        <instrumenttrack basenote="57" pitch="0" pitchrange="1" pan="0" usemasterpitch="1" fxch="12" vol="200">
          <instrument name="carlapatchbay">
            <carlapatchbay>
              <CARLA-PROJECT VERSION="2.2">
                <EngineSettings>
                  <ForceStereo>false</ForceStereo>
                  <PreferPluginBridges>false</PreferPluginBridges>
                  <PreferUiBridges>true</PreferUiBridges>
                  <UIsAlwaysOnTop>false</UIsAlwaysOnTop>
                  <MaxParameters>200</MaxParameters>
                  <UIBridgesTimeout>4000</UIBridgesTimeout>
                  <LADSPA_PATH>/home/pass/.ladspa:/usr/lib/ladspa:/usr/local/lib/ladspa</LADSPA_PATH>
                  <DSSI_PATH>/home/pass/.dssi:/usr/lib/dssi:/usr/local/lib/dssi</DSSI_PATH>
                  <LV2_PATH>/home/pass/.lv2:/usr/lib/lv2:/usr/local/lib/lv2</LV2_PATH>
                  <VST2_PATH>/home/pass/.vst:/home/pass/.wine/drive_c/Program Files (x86)/VstPlugins:/home/pass/.wine/drive_c/Program Files/VstPlugins:/home/pass/vst:/usr/lib/lxvst:/usr/lib/vst:/usr/local/lib/lxvst:/usr/local/lib/vst/home/pass/.lxvst</VST2_PATH>
                  <VST3_PATH>/home/pass/.vst3:/home/pass/.wine/drive_c/Program Files (x86)/Common Files/VST3:/home/pass/.wine/drive_c/Program Files/Common Files/VST3:/usr/lib/vst3:/usr/local/lib/vst3</VST3_PATH>
                  <SF2_PATH>/home/pass/.sounds/sf2/home/pass/.sounds/sf3:/usr/share/soundfonts:/usr/share/sounds/sf2:/usr/share/sounds/sf3:/home/pass/samples/soundfonts</SF2_PATH>
                  <SFZ_PATH>/home/pass/.sounds/sfz:/home/pass/samples:/usr/share/sounds/sfz</SFZ_PATH>
                </EngineSettings>
                <!-- sfizz -->
                <Plugin>
                  <Info>
                    <Type>LV2</Type>
                    <Name>sfizz</Name>
                    <URI>http://sfztools.github.io/sfizz</URI>
                  </Info>
                  <Data>
                    <Active>Yes</Active>
                    <ControlChannel>1</ControlChannel>
                    <Options>0x3f0</Options>
                    <Parameter>
                      <Index>0</Index>
                      <Name>Volume</Name>
                      <Symbol>volume</Symbol>
                      <Value>0</Value>
                    </Parameter>
                    <Parameter>
                      <Index>1</Index>
                      <Name>Polyphony</Name>
                      <Symbol>num_voices</Symbol>
                      <Value>64</Value>
                    </Parameter>
                    <Parameter>
                      <Index>2</Index>
                      <Name>Internal oversampling factor</Name>
                      <Symbol>oversampling</Symbol>
                      <Value>1</Value>
                    </Parameter>
                    <Parameter>
                      <Index>3</Index>
                      <Name>Preload size</Name>
                      <Symbol>preload_size</Symbol>
                      <Value>8192</Value>
                    </Parameter>
                    <CustomData>
                      <Type>http://lv2plug.in/ns/ext/atom#Path</Type>
                      <Key>http://sfztools.github.io/sfizz:sfzfile</Key>
                      <Value>/home/pass/samples/fakeguitar/_fakeguitar2_integrated.sfz</Value>
                    </CustomData>
                    <CustomData>
                      <Type>http://lv2plug.in/ns/ext/atom#Int</Type>
                      <Key>http://sfztools.github.io/sfizz:numvoices</Key>
                      <Value>QAAAAA==</Value>
                    </CustomData>
                    <CustomData>
                      <Type>http://lv2plug.in/ns/ext/atom#Int</Type>
                      <Key>http://sfztools.github.io/sfizz:preload_size</Key>
                      <Value>ACAAAA==</Value>
                    </CustomData>
                    <CustomData>
                      <Type>http://lv2plug.in/ns/ext/atom#Int</Type>
                      <Key>http://sfztools.github.io/sfizz:oversampling</Key>
                      <Value>AQAAAA==</Value>
                    </CustomData>
                  </Data>
                </Plugin>
                <Patchbay>
                  <Connection>
                    <Source>Midi Input:Capture 1</Source>
                    <Target>sfizz:events-in</Target>
                  </Connection>
                  <Connection>
                    <Source>sfizz:Left Output</Source>
                    <Target>Audio Output:Left</Target>
                  </Connection>
                  <Connection>
                    <Source>sfizz:Right Output</Source>
                    <Target>Audio Output:Left</Target>
                  </Connection>
                  <Positions>
                    <Position pluginId="0" x1="1675" y1="1298">
                      <Name>sfizz</Name>
                    </Position>
                  </Positions>
                </Patchbay>
              </CARLA-PROJECT>
            </carlapatchbay>
          </instrument>
          <eldata fwet="0" ftype="0" fcut="14000" fres="0.5">
            <elvol lspd_denominator="4" lamt="0" amt="0" dec="0.5" hold="0.5" lshp="0" ctlenvamt="0" lspd="0.1" rel="0.1" pdel="0" lspd_syncmode="0" att="0" sustain="0.5" userwavefile="" latt="0" lspd_numerator="4" lpdel="0" x100="0"/>
            <elcut lspd_denominator="4" lamt="0" amt="0" dec="0.5" hold="0.5" lshp="0" ctlenvamt="0" lspd="0.1" rel="0.1" pdel="0" lspd_syncmode="0" att="0" sustain="0.5" userwavefile="" latt="0" lspd_numerator="4" lpdel="0" x100="0"/>
            <elres lspd_denominator="4" lamt="0" amt="0" dec="0.5" hold="0.5" lshp="0" ctlenvamt="0" lspd="0.1" rel="0.1" pdel="0" lspd_syncmode="0" att="0" sustain="0.5" userwavefile="" latt="0" lspd_numerator="4" lpdel="0" x100="0"/>
          </eldata>
          <chordcreator chordrange="1" chord-enabled="0" chord="0"/>
          <arpeggiator arptime_syncmode="0" arptime="200" arptime_denominator="4" arpdir="0" arp="0" arpmode="0" arpcycle="0" arpmiss="0" arptime_numerator="4" arprange="1" arp-enabled="0" arpskip="0" arpgate="100"/>
          <midiport inputcontroller="0" outputchannel="1" outputprogram="1" readable="0" outputcontroller="0" fixedoutputvelocity="-1" fixedoutputnote="-1" fixedinputvelocity="-1" writable="0" inputchannel="0" basevelocity="63"/>
          <fxchain enabled="0" numofeffects="0"/>
        </instrumenttrack>
        <pattern pos="0" muted="0" steps="16" type="1" name="lgtH2">
          <note len="144" pos="0" pan="0" vol="193" key="78"/>
          <note len="48" pos="0" pan="0" vol="193" key="0"/>
          <note len="48" pos="144" pan="0" vol="193" key="73"/>
          <note len="144" pos="192" pan="0" vol="193" key="81"/>
          <note len="48" pos="336" pan="0" vol="193" key="78"/>
          <note len="144" pos="384" pan="0" vol="193" key="77"/>
          <note len="48" pos="528" pan="0" vol="193" key="73"/>
          <note len="144" pos="576" pan="0" vol="193" key="80"/>
          <note len="48" pos="720" pan="0" vol="193" key="78"/>
          <note len="144" pos="768" pan="0" vol="193" key="76"/>
          <note len="48" pos="912" pan="0" vol="193" key="73"/>
          <note len="96" pos="960" pan="0" vol="193" key="80"/>
          <note len="48" pos="1056" pan="0" vol="193" key="78"/>
          <note len="48" pos="1104" pan="0" vol="193" key="76"/>
          <note len="192" pos="1152" pan="0" vol="193" key="75"/>
          <note len="192" pos="1344" pan="0" vol="193" key="78"/>
        </pattern>
        <pattern pos="1536" muted="0" steps="16" type="1" name="lgtH2">
          <note len="144" pos="0" pan="0" vol="193" key="78"/>
          <note len="48" pos="0" pan="0" vol="193" key="0"/>
          <note len="48" pos="144" pan="0" vol="193" key="74"/>
          <note len="144" pos="192" pan="0" vol="193" key="81"/>
          <note len="48" pos="336" pan="0" vol="193" key="80"/>
          <note len="144" pos="384" pan="0" vol="193" key="76"/>
          <note len="48" pos="528" pan="0" vol="193" key="73"/>
          <note len="144" pos="576" pan="0" vol="193" key="81"/>
          <note len="48" pos="720" pan="0" vol="193" key="76"/>
          <note len="144" pos="768" pan="0" vol="193" key="77"/>
          <note len="48" pos="912" pan="0" vol="193" key="73"/>
          <note len="72" pos="960" pan="0" vol="193" key="80"/>
          <note len="72" pos="1032" pan="0" vol="193" key="81"/>
          <note len="48" pos="1104" pan="0" vol="193" key="83"/>
          <note len="72" pos="1152" pan="0" vol="193" key="81"/>
          <note len="12" pos="1224" pan="0" vol="193" key="83"/>
          <note len="12" pos="1236" pan="0" vol="193" key="81"/>
          <note len="72" pos="1248" pan="0" vol="193" key="80"/>
          <note len="12" pos="1320" pan="0" vol="193" key="81"/>
          <note len="12" pos="1332" pan="0" vol="193" key="80"/>
          <note len="24" pos="1344" pan="0" vol="193" key="78"/>
          <note len="12" pos="1368" pan="0" vol="193" key="80"/>
          <note len="12" pos="1380" pan="0" vol="193" key="78"/>
          <note len="24" pos="1392" pan="0" vol="193" key="77"/>
          <note len="12" pos="1416" pan="0" vol="193" key="78"/>
          <note len="12" pos="1428" pan="0" vol="193" key="77"/>
          <note len="12" pos="1428" pan="0" vol="193" key="0"/>
          <note len="12" pos="1440" pan="0" vol="193" key="73"/>
          <note len="12" pos="1440" pan="0" vol="193" key="1"/>
          <note len="12" pos="1452" pan="0" vol="193" key="77"/>
          <note len="12" pos="1464" pan="0" vol="193" key="73"/>
          <note len="12" pos="1476" pan="0" vol="193" key="73"/>
          <note len="12" pos="1488" pan="0" vol="193" key="74"/>
          <note len="12" pos="1488" pan="0" vol="193" key="0"/>
          <note len="12" pos="1500" pan="0" vol="193" key="77"/>
          <note len="12" pos="1512" pan="0" vol="193" key="78"/>
          <note len="12" pos="1524" pan="0" vol="193" key="80"/>
        </pattern>
        <pattern pos="3072" muted="0" steps="16" type="1" name="lgtH2">
          <note len="144" pos="0" pan="0" vol="193" key="78"/>
          <note len="48" pos="0" pan="0" vol="193" key="0"/>
          <note len="48" pos="144" pan="0" vol="193" key="73"/>
          <note len="144" pos="192" pan="0" vol="193" key="81"/>
          <note len="48" pos="336" pan="0" vol="193" key="78"/>
          <note len="144" pos="384" pan="0" vol="193" key="77"/>
          <note len="48" pos="528" pan="0" vol="193" key="73"/>
          <note len="144" pos="576" pan="0" vol="193" key="80"/>
          <note len="48" pos="720" pan="0" vol="193" key="78"/>
          <note len="144" pos="768" pan="0" vol="193" key="76"/>
          <note len="48" pos="912" pan="0" vol="193" key="73"/>
          <note len="96" pos="960" pan="0" vol="193" key="80"/>
          <note len="48" pos="1056" pan="0" vol="193" key="78"/>
          <note len="48" pos="1104" pan="0" vol="193" key="76"/>
          <note len="192" pos="1152" pan="0" vol="193" key="75"/>
          <note len="192" pos="1344" pan="0" vol="193" key="78"/>
        </pattern>
        <pattern pos="4608" muted="0" steps="16" type="1" name="lgtH2">
          <note len="144" pos="0" pan="0" vol="193" key="78"/>
          <note len="48" pos="0" pan="0" vol="193" key="0"/>
          <note len="48" pos="144" pan="0" vol="193" key="74"/>
          <note len="144" pos="192" pan="0" vol="193" key="81"/>
          <note len="48" pos="336" pan="0" vol="193" key="80"/>
          <note len="144" pos="384" pan="0" vol="193" key="76"/>
          <note len="48" pos="528" pan="0" vol="193" key="73"/>
          <note len="144" pos="576" pan="0" vol="193" key="81"/>
          <note len="48" pos="720" pan="0" vol="193" key="76"/>
          <note len="144" pos="768" pan="0" vol="193" key="77"/>
          <note len="48" pos="912" pan="0" vol="193" key="73"/>
          <note len="72" pos="960" pan="0" vol="193" key="80"/>
          <note len="72" pos="1032" pan="0" vol="193" key="81"/>
          <note len="48" pos="1104" pan="0" vol="193" key="83"/>
          <note len="72" pos="1152" pan="0" vol="193" key="81"/>
          <note len="12" pos="1224" pan="0" vol="193" key="83"/>
          <note len="12" pos="1236" pan="0" vol="193" key="81"/>
          <note len="72" pos="1248" pan="0" vol="193" key="80"/>
          <note len="12" pos="1320" pan="0" vol="193" key="81"/>
          <note len="12" pos="1332" pan="0" vol="193" key="80"/>
          <note len="24" pos="1344" pan="0" vol="193" key="78"/>
          <note len="12" pos="1368" pan="0" vol="193" key="80"/>
          <note len="12" pos="1380" pan="0" vol="193" key="78"/>
          <note len="24" pos="1392" pan="0" vol="193" key="77"/>
          <note len="12" pos="1416" pan="0" vol="193" key="78"/>
          <note len="12" pos="1428" pan="0" vol="193" key="77"/>
          <note len="12" pos="1428" pan="0" vol="193" key="0"/>
          <note len="12" pos="1440" pan="0" vol="193" key="73"/>
          <note len="12" pos="1440" pan="0" vol="193" key="1"/>
          <note len="12" pos="1452" pan="0" vol="193" key="77"/>
          <note len="12" pos="1464" pan="0" vol="193" key="73"/>
          <note len="12" pos="1476" pan="0" vol="193" key="73"/>
          <note len="12" pos="1488" pan="0" vol="193" key="74"/>
          <note len="12" pos="1488" pan="0" vol="193" key="0"/>
          <note len="12" pos="1500" pan="0" vol="193" key="77"/>
          <note len="12" pos="1512" pan="0" vol="193" key="78"/>
          <note len="12" pos="1524" pan="0" vol="193" key="80"/>
        </pattern>
        <pattern pos="8448" muted="0" steps="16" type="1" name="lgtH2">
          <note len="12" pos="0" pan="0" vol="100" key="62"/>
          <note len="12" pos="0" pan="0" vol="100" key="0"/>
          <note len="12" pos="12" pan="0" vol="100" key="61"/>
          <note len="12" pos="12" pan="0" vol="100" key="1"/>
          <note len="12" pos="24" pan="0" vol="100" key="57"/>
          <note len="12" pos="36" pan="0" vol="100" key="61"/>
          <note len="12" pos="48" pan="0" vol="100" key="62"/>
          <note len="12" pos="60" pan="0" vol="100" key="64"/>
          <note len="12" pos="72" pan="0" vol="100" key="66"/>
          <note len="12" pos="84" pan="0" vol="100" key="68"/>
          <note len="12" pos="96" pan="0" vol="100" key="69"/>
          <note len="12" pos="96" pan="0" vol="100" key="0"/>
          <note len="12" pos="108" pan="0" vol="100" key="68"/>
          <note len="12" pos="108" pan="0" vol="100" key="1"/>
          <note len="12" pos="120" pan="0" vol="100" key="66"/>
          <note len="12" pos="132" pan="0" vol="100" key="64"/>
          <note len="12" pos="144" pan="0" vol="100" key="62"/>
          <note len="12" pos="144" pan="0" vol="100" key="0"/>
          <note len="12" pos="156" pan="0" vol="100" key="61"/>
          <note len="12" pos="168" pan="0" vol="100" key="59"/>
          <note len="12" pos="168" pan="0" vol="100" key="1"/>
          <note len="12" pos="180" pan="0" vol="100" key="61"/>
          <note len="12" pos="192" pan="0" vol="100" key="62"/>
          <note len="12" pos="204" pan="0" vol="100" key="64"/>
          <note len="12" pos="216" pan="0" vol="100" key="66"/>
          <note len="12" pos="228" pan="0" vol="100" key="68"/>
          <note len="12" pos="240" pan="0" vol="100" key="64"/>
          <note len="12" pos="252" pan="0" vol="100" key="66"/>
          <note len="12" pos="264" pan="0" vol="100" key="68"/>
          <note len="12" pos="276" pan="0" vol="100" key="69"/>
          <note len="12" pos="288" pan="0" vol="100" key="66"/>
          <note len="12" pos="300" pan="0" vol="100" key="68"/>
          <note len="12" pos="312" pan="0" vol="100" key="69"/>
          <note len="12" pos="324" pan="0" vol="100" key="71"/>
          <note len="12" pos="336" pan="0" vol="100" key="68"/>
          <note len="12" pos="348" pan="0" vol="100" key="69"/>
          <note len="12" pos="360" pan="0" vol="100" key="71"/>
          <note len="12" pos="372" pan="0" vol="100" key="73"/>
          <note len="12" pos="384" pan="0" vol="100" key="76"/>
          <note len="192" pos="384" pan="0" vol="100" key="0"/>
          <note len="12" pos="396" pan="0" vol="100" key="74"/>
          <note len="12" pos="408" pan="0" vol="100" key="73"/>
          <note len="12" pos="420" pan="0" vol="100" key="71"/>
          <note len="12" pos="432" pan="0" vol="100" key="78"/>
          <note len="12" pos="444" pan="0" vol="100" key="76"/>
          <note len="12" pos="456" pan="0" vol="100" key="74"/>
          <note len="12" pos="468" pan="0" vol="100" key="73"/>
          <note len="12" pos="480" pan="0" vol="100" key="80"/>
          <note len="12" pos="492" pan="0" vol="100" key="78"/>
          <note len="12" pos="504" pan="0" vol="100" key="76"/>
          <note len="12" pos="516" pan="0" vol="100" key="74"/>
          <note len="12" pos="528" pan="0" vol="100" key="81"/>
          <note len="12" pos="540" pan="0" vol="100" key="80"/>
          <note len="12" pos="552" pan="0" vol="100" key="78"/>
          <note len="12" pos="564" pan="0" vol="100" key="76"/>
          <note len="12" pos="576" pan="0" vol="100" key="81"/>
          <note len="12" pos="576" pan="0" vol="100" key="0"/>
          <note len="12" pos="588" pan="0" vol="100" key="83"/>
          <note len="12" pos="600" pan="0" vol="100" key="81"/>
          <note len="12" pos="600" pan="0" vol="100" key="1"/>
          <note len="12" pos="612" pan="0" vol="100" key="80"/>
          <note len="12" pos="624" pan="0" vol="100" key="81"/>
          <note len="12" pos="624" pan="0" vol="100" key="0"/>
          <note len="12" pos="636" pan="0" vol="100" key="80"/>
          <note len="12" pos="636" pan="0" vol="100" key="1"/>
          <note len="12" pos="648" pan="0" vol="100" key="78"/>
          <note len="12" pos="660" pan="0" vol="100" key="77"/>
          <note len="12" pos="672" pan="0" vol="100" key="78"/>
          <note len="12" pos="672" pan="0" vol="100" key="0"/>
          <note len="12" pos="684" pan="0" vol="100" key="80"/>
          <note len="12" pos="684" pan="0" vol="100" key="1"/>
          <note len="12" pos="696" pan="0" vol="100" key="78"/>
          <note len="12" pos="708" pan="0" vol="100" key="77"/>
          <note len="12" pos="720" pan="0" vol="100" key="78"/>
          <note len="12" pos="720" pan="0" vol="100" key="0"/>
          <note len="12" pos="732" pan="0" vol="100" key="77"/>
          <note len="12" pos="744" pan="0" vol="100" key="74"/>
          <note len="12" pos="756" pan="0" vol="100" key="73"/>
          <note len="192" pos="768" pan="0" vol="100" key="78"/>
        </pattern>
        <pattern pos="12288" muted="0" steps="16" type="1" name="">
          <note len="12" pos="0" pan="0" vol="197" key="66"/>
          <note len="12" pos="0" pan="0" vol="100" key="1"/>
          <note len="12" pos="12" pan="0" vol="197" key="66"/>
          <note len="12" pos="24" pan="0" vol="197" key="61"/>
          <note len="12" pos="36" pan="0" vol="197" key="61"/>
          <note len="12" pos="48" pan="0" vol="197" key="57"/>
          <note len="12" pos="60" pan="0" vol="197" key="57"/>
          <note len="12" pos="72" pan="0" vol="197" key="64"/>
          <note len="12" pos="84" pan="0" vol="197" key="64"/>
          <note len="12" pos="96" pan="0" vol="197" key="57"/>
          <note len="12" pos="108" pan="0" vol="197" key="57"/>
          <note len="12" pos="120" pan="0" vol="197" key="66"/>
          <note len="12" pos="132" pan="0" vol="197" key="66"/>
          <note len="12" pos="144" pan="0" vol="197" key="61"/>
          <note len="12" pos="156" pan="0" vol="197" key="61"/>
          <note len="12" pos="168" pan="0" vol="197" key="57"/>
          <note len="12" pos="180" pan="0" vol="197" key="57"/>
          <note len="12" pos="192" pan="0" vol="197" key="66"/>
          <note len="12" pos="204" pan="0" vol="197" key="66"/>
          <note len="12" pos="216" pan="0" vol="197" key="61"/>
          <note len="12" pos="228" pan="0" vol="197" key="61"/>
          <note len="12" pos="240" pan="0" vol="197" key="57"/>
          <note len="12" pos="252" pan="0" vol="197" key="57"/>
          <note len="12" pos="264" pan="0" vol="197" key="64"/>
          <note len="12" pos="276" pan="0" vol="197" key="64"/>
          <note len="12" pos="288" pan="0" vol="197" key="57"/>
          <note len="12" pos="300" pan="0" vol="197" key="57"/>
          <note len="12" pos="312" pan="0" vol="197" key="68"/>
          <note len="12" pos="324" pan="0" vol="197" key="68"/>
          <note len="12" pos="336" pan="0" vol="197" key="66"/>
          <note len="12" pos="348" pan="0" vol="197" key="66"/>
          <note len="12" pos="360" pan="0" vol="197" key="64"/>
          <note len="12" pos="372" pan="0" vol="197" key="64"/>
          <note len="12" pos="384" pan="0" vol="197" key="68"/>
          <note len="12" pos="396" pan="0" vol="197" key="68"/>
          <note len="12" pos="408" pan="0" vol="197" key="64"/>
          <note len="12" pos="420" pan="0" vol="197" key="64"/>
          <note len="12" pos="432" pan="0" vol="197" key="61"/>
          <note len="12" pos="444" pan="0" vol="197" key="61"/>
          <note len="12" pos="456" pan="0" vol="197" key="64"/>
          <note len="12" pos="468" pan="0" vol="197" key="64"/>
          <note len="12" pos="480" pan="0" vol="197" key="56"/>
          <note len="12" pos="492" pan="0" vol="197" key="56"/>
          <note len="12" pos="504" pan="0" vol="197" key="61"/>
          <note len="12" pos="516" pan="0" vol="197" key="61"/>
          <note len="12" pos="528" pan="0" vol="197" key="52"/>
          <note len="12" pos="540" pan="0" vol="197" key="52"/>
          <note len="12" pos="552" pan="0" vol="197" key="56"/>
          <note len="12" pos="564" pan="0" vol="197" key="56"/>
          <note len="12" pos="576" pan="0" vol="197" key="61"/>
          <note len="12" pos="588" pan="0" vol="197" key="61"/>
          <note len="12" pos="600" pan="0" vol="197" key="56"/>
          <note len="12" pos="612" pan="0" vol="197" key="56"/>
          <note len="12" pos="624" pan="0" vol="197" key="64"/>
          <note len="12" pos="636" pan="0" vol="197" key="64"/>
          <note len="12" pos="648" pan="0" vol="197" key="61"/>
          <note len="12" pos="660" pan="0" vol="197" key="61"/>
          <note len="12" pos="672" pan="0" vol="197" key="68"/>
          <note len="12" pos="672" pan="0" vol="197" key="0"/>
          <note len="12" pos="684" pan="0" vol="197" key="64"/>
          <note len="12" pos="696" pan="0" vol="197" key="61"/>
          <note len="12" pos="708" pan="0" vol="197" key="56"/>
          <note len="12" pos="708" pan="0" vol="197" key="1"/>
          <note len="12" pos="720" pan="0" vol="197" key="52"/>
          <note len="12" pos="732" pan="0" vol="197" key="56"/>
          <note len="12" pos="744" pan="0" vol="197" key="61"/>
          <note len="12" pos="756" pan="0" vol="197" key="64"/>
        </pattern>
        <pattern pos="13056" muted="0" steps="16" type="1" name="">
          <note len="12" pos="0" pan="0" vol="197" key="78"/>
          <note len="12" pos="0" pan="0" vol="100" key="1"/>
          <note len="12" pos="12" pan="0" vol="197" key="78"/>
          <note len="12" pos="24" pan="0" vol="197" key="73"/>
          <note len="12" pos="36" pan="0" vol="197" key="73"/>
          <note len="12" pos="48" pan="0" vol="197" key="69"/>
          <note len="12" pos="60" pan="0" vol="197" key="69"/>
          <note len="12" pos="72" pan="0" vol="197" key="76"/>
          <note len="12" pos="84" pan="0" vol="197" key="76"/>
          <note len="12" pos="96" pan="0" vol="197" key="69"/>
          <note len="12" pos="108" pan="0" vol="197" key="69"/>
          <note len="12" pos="120" pan="0" vol="197" key="78"/>
          <note len="12" pos="132" pan="0" vol="197" key="78"/>
          <note len="12" pos="144" pan="0" vol="197" key="73"/>
          <note len="12" pos="156" pan="0" vol="197" key="73"/>
          <note len="12" pos="168" pan="0" vol="197" key="69"/>
          <note len="12" pos="180" pan="0" vol="197" key="69"/>
          <note len="12" pos="192" pan="0" vol="197" key="78"/>
          <note len="12" pos="204" pan="0" vol="197" key="78"/>
          <note len="12" pos="216" pan="0" vol="197" key="73"/>
          <note len="12" pos="228" pan="0" vol="197" key="73"/>
          <note len="12" pos="240" pan="0" vol="197" key="69"/>
          <note len="12" pos="252" pan="0" vol="197" key="69"/>
          <note len="12" pos="264" pan="0" vol="197" key="76"/>
          <note len="12" pos="276" pan="0" vol="197" key="76"/>
          <note len="12" pos="288" pan="0" vol="197" key="69"/>
          <note len="12" pos="300" pan="0" vol="197" key="69"/>
          <note len="12" pos="312" pan="0" vol="197" key="80"/>
          <note len="12" pos="324" pan="0" vol="197" key="80"/>
          <note len="12" pos="336" pan="0" vol="197" key="78"/>
          <note len="12" pos="348" pan="0" vol="197" key="78"/>
          <note len="12" pos="360" pan="0" vol="197" key="76"/>
          <note len="12" pos="372" pan="0" vol="197" key="76"/>
          <note len="12" pos="384" pan="0" vol="197" key="80"/>
          <note len="12" pos="396" pan="0" vol="197" key="80"/>
          <note len="12" pos="408" pan="0" vol="197" key="76"/>
          <note len="12" pos="420" pan="0" vol="197" key="76"/>
          <note len="12" pos="432" pan="0" vol="197" key="73"/>
          <note len="12" pos="444" pan="0" vol="197" key="73"/>
          <note len="12" pos="456" pan="0" vol="197" key="76"/>
          <note len="12" pos="468" pan="0" vol="197" key="76"/>
          <note len="12" pos="480" pan="0" vol="197" key="68"/>
          <note len="12" pos="492" pan="0" vol="197" key="68"/>
          <note len="12" pos="504" pan="0" vol="197" key="73"/>
          <note len="12" pos="516" pan="0" vol="197" key="73"/>
          <note len="12" pos="528" pan="0" vol="197" key="64"/>
          <note len="12" pos="540" pan="0" vol="197" key="64"/>
          <note len="12" pos="552" pan="0" vol="197" key="68"/>
          <note len="12" pos="564" pan="0" vol="197" key="68"/>
          <note len="12" pos="576" pan="0" vol="197" key="73"/>
          <note len="12" pos="588" pan="0" vol="197" key="68"/>
          <note len="12" pos="600" pan="0" vol="197" key="64"/>
          <note len="12" pos="612" pan="0" vol="197" key="68"/>
          <note len="12" pos="624" pan="0" vol="197" key="76"/>
          <note len="12" pos="636" pan="0" vol="197" key="73"/>
          <note len="12" pos="648" pan="0" vol="197" key="68"/>
          <note len="12" pos="660" pan="0" vol="197" key="73"/>
          <note len="12" pos="672" pan="0" vol="197" key="80"/>
          <note len="12" pos="672" pan="0" vol="197" key="0"/>
          <note len="12" pos="684" pan="0" vol="197" key="76"/>
          <note len="12" pos="696" pan="0" vol="197" key="73"/>
          <note len="12" pos="708" pan="0" vol="197" key="76"/>
          <note len="12" pos="708" pan="0" vol="197" key="1"/>
          <note len="12" pos="720" pan="0" vol="197" key="85"/>
          <note len="12" pos="732" pan="0" vol="197" key="80"/>
          <note len="12" pos="744" pan="0" vol="197" key="76"/>
          <note len="12" pos="756" pan="0" vol="197" key="73"/>
        </pattern>
        <pattern pos="16896" muted="0" steps="16" type="1" name="">
          <note len="120" pos="0" pan="0" vol="193" key="71"/>
          <note len="48" pos="0" pan="0" vol="193" key="0"/>
          <note len="24" pos="120" pan="0" vol="193" key="69"/>
          <note len="24" pos="144" pan="0" vol="193" key="68"/>
          <note len="24" pos="168" pan="0" vol="193" key="66"/>
          <note len="48" pos="192" pan="0" vol="193" key="64"/>
          <note len="48" pos="240" pan="0" vol="193" key="59"/>
          <note len="24" pos="288" pan="0" vol="193" key="64"/>
          <note len="24" pos="312" pan="0" vol="193" key="59"/>
          <note len="24" pos="336" pan="0" vol="193" key="66"/>
          <note len="24" pos="360" pan="0" vol="193" key="68"/>
          <note len="120" pos="384" pan="0" vol="193" key="69"/>
          <note len="24" pos="504" pan="0" vol="193" key="68"/>
          <note len="24" pos="528" pan="0" vol="193" key="66"/>
          <note len="24" pos="552" pan="0" vol="193" key="64"/>
          <note len="48" pos="576" pan="0" vol="193" key="62"/>
          <note len="48" pos="624" pan="0" vol="193" key="57"/>
          <note len="24" pos="672" pan="0" vol="193" key="62"/>
          <note len="24" pos="696" pan="0" vol="193" key="57"/>
          <note len="24" pos="720" pan="0" vol="193" key="64"/>
          <note len="24" pos="744" pan="0" vol="193" key="66"/>
          <note len="24" pos="768" pan="0" vol="193" key="68"/>
          <note len="24" pos="792" pan="0" vol="193" key="66"/>
          <note len="24" pos="816" pan="0" vol="193" key="65"/>
          <note len="24" pos="840" pan="0" vol="193" key="62"/>
          <note len="24" pos="864" pan="0" vol="193" key="65"/>
          <note len="24" pos="888" pan="0" vol="193" key="62"/>
          <note len="24" pos="912" pan="0" vol="193" key="61"/>
          <note len="24" pos="936" pan="0" vol="193" key="57"/>
          <note len="12" pos="960" pan="0" vol="193" key="68"/>
          <note len="12" pos="960" pan="0" vol="193" key="0"/>
          <note len="12" pos="972" pan="0" vol="193" key="65"/>
          <note len="12" pos="972" pan="0" vol="193" key="1"/>
          <note len="12" pos="984" pan="0" vol="193" key="61"/>
          <note len="12" pos="996" pan="0" vol="193" key="56"/>
          <note len="12" pos="1008" pan="0" vol="193" key="61"/>
          <note len="12" pos="1020" pan="0" vol="193" key="65"/>
          <note len="12" pos="1032" pan="0" vol="193" key="73"/>
          <note len="12" pos="1032" pan="0" vol="193" key="0"/>
          <note len="12" pos="1044" pan="0" vol="193" key="68"/>
          <note len="12" pos="1044" pan="0" vol="193" key="1"/>
          <note len="12" pos="1056" pan="0" vol="193" key="65"/>
          <note len="12" pos="1068" pan="0" vol="193" key="61"/>
          <note len="12" pos="1080" pan="0" vol="193" key="65"/>
          <note len="12" pos="1092" pan="0" vol="193" key="68"/>
          <note len="12" pos="1104" pan="0" vol="193" key="73"/>
          <note len="12" pos="1116" pan="0" vol="193" key="74"/>
          <note len="12" pos="1128" pan="0" vol="193" key="77"/>
          <note len="12" pos="1140" pan="0" vol="193" key="80"/>
          <note len="12" pos="1140" pan="0" vol="193" key="0"/>
          <note len="168" pos="1152" pan="0" vol="193" key="81"/>
          <note len="12" pos="1320" pan="0" vol="193" key="81"/>
          <note len="12" pos="1332" pan="0" vol="193" key="83"/>
          <note len="12" pos="1344" pan="0" vol="193" key="85"/>
          <note len="12" pos="1356" pan="0" vol="193" key="81"/>
          <note len="12" pos="1368" pan="0" vol="193" key="83"/>
          <note len="12" pos="1380" pan="0" vol="193" key="85"/>
          <note len="12" pos="1392" pan="0" vol="193" key="86"/>
          <note len="12" pos="1404" pan="0" vol="193" key="83"/>
          <note len="12" pos="1416" pan="0" vol="193" key="85"/>
          <note len="12" pos="1428" pan="0" vol="193" key="86"/>
          <note len="12" pos="1440" pan="0" vol="193" key="88"/>
          <note len="12" pos="1452" pan="0" vol="193" key="86"/>
          <note len="12" pos="1464" pan="0" vol="193" key="85"/>
          <note len="12" pos="1476" pan="0" vol="193" key="83"/>
          <note len="12" pos="1488" pan="0" vol="193" key="86"/>
          <note len="12" pos="1500" pan="0" vol="193" key="85"/>
          <note len="12" pos="1512" pan="0" vol="193" key="83"/>
          <note len="12" pos="1524" pan="0" vol="193" key="81"/>
        </pattern>
        <pattern pos="16704" muted="0" steps="16" type="1" name="lgtH2">
          <note len="24" pos="132" pan="0" vol="193" key="1"/>
          <note len="24" pos="144" pan="0" vol="193" key="68"/>
          <note len="24" pos="168" pan="0" vol="193" key="69"/>
        </pattern>
        <pattern pos="18432" muted="0" steps="16" type="1" name="">
          <note len="120" pos="0" pan="0" vol="193" key="71"/>
          <note len="48" pos="0" pan="0" vol="193" key="0"/>
          <note len="24" pos="120" pan="0" vol="193" key="73"/>
          <note len="24" pos="144" pan="0" vol="193" key="73"/>
          <note len="24" pos="168" pan="0" vol="193" key="74"/>
          <note len="48" pos="192" pan="0" vol="193" key="71"/>
          <note len="48" pos="240" pan="0" vol="193" key="68"/>
          <note len="24" pos="288" pan="0" vol="193" key="71"/>
          <note len="24" pos="312" pan="0" vol="193" key="74"/>
          <note len="24" pos="336" pan="0" vol="193" key="76"/>
          <note len="24" pos="360" pan="0" vol="193" key="71"/>
          <note len="120" pos="384" pan="0" vol="193" key="76"/>
          <note len="24" pos="504" pan="0" vol="193" key="76"/>
          <note len="24" pos="528" pan="0" vol="193" key="80"/>
          <note len="24" pos="552" pan="0" vol="193" key="81"/>
          <note len="48" pos="576" pan="0" vol="193" key="81"/>
          <note len="48" pos="624" pan="0" vol="193" key="74"/>
          <note len="24" pos="672" pan="0" vol="193" key="76"/>
          <note len="24" pos="696" pan="0" vol="193" key="74"/>
          <note len="24" pos="720" pan="0" vol="193" key="76"/>
          <note len="24" pos="744" pan="0" vol="193" key="78"/>
          <note len="72" pos="768" pan="0" vol="193" key="80"/>
          <note len="24" pos="840" pan="0" vol="193" key="74"/>
          <note len="48" pos="864" pan="0" vol="193" key="74"/>
          <note len="48" pos="912" pan="0" vol="193" key="74"/>
          <note len="48" pos="960" pan="0" vol="193" key="80"/>
          <note len="48" pos="1008" pan="0" vol="193" key="77"/>
          <note len="48" pos="1056" pan="0" vol="193" key="80"/>
          <note len="48" pos="1104" pan="0" vol="193" key="84"/>
          <note len="192" pos="1152" pan="0" vol="193" key="80"/>
          <note len="48" pos="1344" pan="0" vol="193" key="80"/>
          <note len="48" pos="1392" pan="0" vol="193" key="78"/>
          <note len="48" pos="1440" pan="0" vol="193" key="74"/>
          <note len="48" pos="1488" pan="0" vol="193" key="73"/>
        </pattern>
        <pattern pos="19968" muted="0" steps="16" type="1" name="">
          <note len="12" pos="96" pan="0" vol="100" key="60"/>
          <note len="12" pos="96" pan="0" vol="100" key="1"/>
          <note len="12" pos="108" pan="0" vol="100" key="61"/>
          <note len="12" pos="120" pan="0" vol="100" key="62"/>
          <note len="12" pos="132" pan="0" vol="100" key="65"/>
          <note len="12" pos="144" pan="0" vol="100" key="66"/>
          <note len="12" pos="156" pan="0" vol="100" key="68"/>
          <note len="12" pos="168" pan="0" vol="100" key="69"/>
          <note len="12" pos="180" pan="0" vol="100" key="73"/>
        </pattern>
        <pattern pos="20160" muted="0" steps="16" type="1" name="">
          <note len="12" pos="0" pan="0" vol="100" key="1"/>
          <note len="12" pos="96" pan="0" vol="100" key="73"/>
          <note len="12" pos="108" pan="0" vol="100" key="77"/>
          <note len="12" pos="120" pan="0" vol="100" key="78"/>
          <note len="12" pos="132" pan="0" vol="100" key="80"/>
          <note len="12" pos="144" pan="0" vol="100" key="77"/>
          <note len="12" pos="156" pan="0" vol="100" key="78"/>
          <note len="12" pos="168" pan="0" vol="100" key="80"/>
          <note len="12" pos="180" pan="0" vol="100" key="81"/>
        </pattern>
        <pattern pos="20352" muted="0" steps="16" type="1" name="">
          <note len="12" pos="0" pan="0" vol="100" key="83"/>
          <note len="12" pos="0" pan="0" vol="100" key="0"/>
          <note len="12" pos="12" pan="0" vol="100" key="81"/>
          <note len="12" pos="12" pan="0" vol="100" key="1"/>
          <note len="12" pos="24" pan="0" vol="100" key="80"/>
          <note len="12" pos="36" pan="0" vol="100" key="78"/>
          <note len="12" pos="48" pan="0" vol="100" key="81"/>
          <note len="12" pos="48" pan="0" vol="100" key="0"/>
          <note len="12" pos="60" pan="0" vol="100" key="80"/>
          <note len="12" pos="60" pan="0" vol="100" key="1"/>
          <note len="12" pos="72" pan="0" vol="100" key="78"/>
          <note len="12" pos="84" pan="0" vol="100" key="77"/>
          <note len="12" pos="96" pan="0" vol="100" key="80"/>
          <note len="12" pos="96" pan="0" vol="100" key="0"/>
          <note len="12" pos="108" pan="0" vol="100" key="78"/>
          <note len="12" pos="108" pan="0" vol="100" key="1"/>
          <note len="12" pos="120" pan="0" vol="100" key="77"/>
          <note len="12" pos="132" pan="0" vol="100" key="74"/>
          <note len="12" pos="144" pan="0" vol="100" key="78"/>
          <note len="12" pos="144" pan="0" vol="100" key="0"/>
          <note len="12" pos="156" pan="0" vol="100" key="77"/>
          <note len="12" pos="156" pan="0" vol="100" key="1"/>
          <note len="12" pos="168" pan="0" vol="100" key="74"/>
          <note len="12" pos="180" pan="0" vol="100" key="73"/>
          <note len="12" pos="192" pan="0" vol="193" key="74"/>
          <note len="12" pos="204" pan="0" vol="193" key="73"/>
          <note len="12" pos="216" pan="0" vol="193" key="71"/>
          <note len="12" pos="228" pan="0" vol="193" key="73"/>
          <note len="12" pos="240" pan="0" vol="193" key="74"/>
          <note len="12" pos="252" pan="0" vol="193" key="77"/>
          <note len="12" pos="264" pan="0" vol="193" key="78"/>
          <note len="12" pos="276" pan="0" vol="193" key="80"/>
          <note len="12" pos="288" pan="0" vol="193" key="80"/>
          <note len="48" pos="288" pan="0" vol="193" key="1"/>
          <note len="12" pos="300" pan="0" vol="193" key="77"/>
          <note len="12" pos="312" pan="0" vol="193" key="73"/>
          <note len="12" pos="324" pan="0" vol="193" key="68"/>
          <note len="12" pos="336" pan="0" vol="193" key="65"/>
          <note len="12" pos="348" pan="0" vol="193" key="68"/>
          <note len="12" pos="360" pan="0" vol="193" key="73"/>
          <note len="12" pos="372" pan="0" vol="193" key="77"/>
        </pattern>
        <pattern pos="39744" muted="0" steps="16" type="1" name="lgtH2">
          <note len="48" pos="0" pan="0" vol="193" key="0"/>
          <note len="24" pos="144" pan="0" vol="193" key="81"/>
          <note len="24" pos="168" pan="0" vol="193" key="83"/>
          <note len="96" pos="192" pan="0" vol="193" key="85"/>
          <note len="48" pos="288" pan="0" vol="193" key="86"/>
          <note len="48" pos="336" pan="0" vol="193" key="85"/>
          <note len="48" pos="384" pan="0" vol="193" key="83"/>
          <note len="48" pos="432" pan="0" vol="193" key="81"/>
          <note len="48" pos="480" pan="0" vol="193" key="80"/>
          <note len="48" pos="528" pan="0" vol="193" key="83"/>
          <note len="96" pos="576" pan="0" vol="193" key="81"/>
          <note len="48" pos="672" pan="0" vol="193" key="81"/>
          <note len="48" pos="720" pan="0" vol="193" key="80"/>
          <note len="48" pos="768" pan="0" vol="193" key="76"/>
          <note len="48" pos="816" pan="0" vol="193" key="73"/>
          <note len="48" pos="864" pan="0" vol="193" key="76"/>
          <note len="48" pos="912" pan="0" vol="193" key="78"/>
          <note len="72" pos="960" pan="0" vol="193" key="86"/>
          <note len="72" pos="1032" pan="0" vol="193" key="88"/>
          <note len="48" pos="1104" pan="0" vol="193" key="90"/>
        </pattern>
        <pattern pos="20736" muted="0" steps="16" type="1" name="">
          <note len="48" pos="0" pan="0" vol="100" key="85"/>
          <note len="48" pos="0" pan="0" vol="193" key="0"/>
          <note len="24" pos="48" pan="0" vol="100" key="83"/>
          <note len="48" pos="72" pan="0" vol="100" key="85"/>
          <note len="24" pos="120" pan="0" vol="100" key="78"/>
          <note len="24" pos="144" pan="0" vol="100" key="81"/>
          <note len="24" pos="168" pan="0" vol="100" key="83"/>
          <note len="48" pos="192" pan="0" vol="100" key="85"/>
          <note len="24" pos="240" pan="0" vol="100" key="83"/>
          <note len="48" pos="264" pan="0" vol="100" key="85"/>
          <note len="24" pos="312" pan="0" vol="100" key="78"/>
          <note len="24" pos="336" pan="0" vol="100" key="81"/>
          <note len="24" pos="360" pan="0" vol="100" key="83"/>
          <note len="48" pos="384" pan="0" vol="100" key="85"/>
          <note len="24" pos="432" pan="0" vol="100" key="83"/>
          <note len="48" pos="456" pan="0" vol="100" key="88"/>
          <note len="24" pos="504" pan="0" vol="100" key="85"/>
          <note len="24" pos="528" pan="0" vol="100" key="83"/>
          <note len="24" pos="552" pan="0" vol="100" key="81"/>
          <note len="24" pos="576" pan="0" vol="100" key="80"/>
          <note len="24" pos="600" pan="0" vol="100" key="81"/>
          <note len="72" pos="624" pan="0" vol="100" key="75"/>
          <note len="24" pos="696" pan="0" vol="100" key="75"/>
          <note len="24" pos="720" pan="0" vol="100" key="76"/>
          <note len="24" pos="744" pan="0" vol="100" key="69"/>
          <note len="48" pos="768" pan="0" vol="100" key="78"/>
          <note len="24" pos="816" pan="0" vol="100" key="76"/>
          <note len="48" pos="840" pan="0" vol="100" key="78"/>
          <note len="24" pos="888" pan="0" vol="100" key="69"/>
          <note len="24" pos="912" pan="0" vol="100" key="73"/>
          <note len="24" pos="936" pan="0" vol="100" key="76"/>
          <note len="48" pos="960" pan="0" vol="100" key="78"/>
          <note len="24" pos="1008" pan="0" vol="100" key="76"/>
          <note len="48" pos="1032" pan="0" vol="100" key="78"/>
          <note len="24" pos="1080" pan="0" vol="100" key="69"/>
          <note len="24" pos="1104" pan="0" vol="100" key="73"/>
          <note len="24" pos="1128" pan="0" vol="100" key="69"/>
          <note len="48" pos="1152" pan="0" vol="100" key="78"/>
          <note len="24" pos="1200" pan="0" vol="100" key="77"/>
          <note len="48" pos="1224" pan="0" vol="100" key="78"/>
          <note len="24" pos="1272" pan="0" vol="100" key="80"/>
          <note len="24" pos="1296" pan="0" vol="100" key="78"/>
          <note len="24" pos="1320" pan="0" vol="100" key="77"/>
          <note len="48" pos="1344" pan="0" vol="100" key="73"/>
          <note len="48" pos="1392" pan="0" vol="100" key="74"/>
          <note len="48" pos="1440" pan="0" vol="100" key="77"/>
          <note len="48" pos="1488" pan="0" vol="100" key="73"/>
        </pattern>
        <pattern pos="22272" muted="0" steps="16" type="1" name="">
          <note len="48" pos="0" pan="0" vol="100" key="85"/>
          <note len="48" pos="0" pan="0" vol="193" key="0"/>
          <note len="24" pos="48" pan="0" vol="100" key="83"/>
          <note len="48" pos="72" pan="0" vol="100" key="85"/>
          <note len="24" pos="120" pan="0" vol="100" key="78"/>
          <note len="24" pos="144" pan="0" vol="100" key="81"/>
          <note len="24" pos="168" pan="0" vol="100" key="83"/>
          <note len="48" pos="192" pan="0" vol="100" key="85"/>
          <note len="24" pos="240" pan="0" vol="100" key="83"/>
          <note len="48" pos="264" pan="0" vol="100" key="85"/>
          <note len="24" pos="312" pan="0" vol="100" key="78"/>
          <note len="24" pos="336" pan="0" vol="100" key="81"/>
          <note len="24" pos="360" pan="0" vol="100" key="83"/>
          <note len="48" pos="384" pan="0" vol="100" key="85"/>
          <note len="24" pos="432" pan="0" vol="100" key="83"/>
          <note len="48" pos="456" pan="0" vol="100" key="90"/>
          <note len="24" pos="504" pan="0" vol="100" key="85"/>
          <note len="24" pos="528" pan="0" vol="100" key="83"/>
          <note len="24" pos="552" pan="0" vol="100" key="81"/>
          <note len="24" pos="576" pan="0" vol="100" key="83"/>
          <note len="24" pos="600" pan="0" vol="100" key="85"/>
          <note len="72" pos="624" pan="0" vol="100" key="83"/>
          <note len="24" pos="696" pan="0" vol="100" key="83"/>
          <note len="24" pos="720" pan="0" vol="100" key="81"/>
          <note len="24" pos="744" pan="0" vol="100" key="80"/>
          <note len="48" pos="768" pan="0" vol="100" key="81"/>
          <note len="24" pos="816" pan="0" vol="100" key="80"/>
          <note len="48" pos="840" pan="0" vol="100" key="81"/>
          <note len="24" pos="888" pan="0" vol="100" key="81"/>
          <note len="24" pos="912" pan="0" vol="100" key="83"/>
          <note len="24" pos="936" pan="0" vol="100" key="85"/>
          <note len="48" pos="960" pan="0" vol="100" key="78"/>
          <note len="48" pos="1008" pan="0" vol="100" key="85"/>
          <note len="48" pos="1056" pan="0" vol="100" key="83"/>
          <note len="48" pos="1104" pan="0" vol="100" key="81"/>
          <note len="48" pos="1152" pan="0" vol="100" key="84"/>
          <note len="48" pos="1200" pan="0" vol="100" key="80"/>
          <note len="48" pos="1248" pan="0" vol="100" key="77"/>
          <note len="48" pos="1296" pan="0" vol="100" key="86"/>
          <note len="72" pos="1344" pan="0" vol="100" key="85"/>
          <note len="12" pos="1416" pan="0" vol="100" key="83"/>
          <note len="12" pos="1428" pan="0" vol="100" key="85"/>
          <note len="12" pos="1440" pan="0" vol="100" key="86"/>
          <note len="12" pos="1452" pan="0" vol="100" key="85"/>
          <note len="12" pos="1464" pan="0" vol="100" key="83"/>
          <note len="12" pos="1476" pan="0" vol="100" key="81"/>
          <note len="12" pos="1488" pan="0" vol="100" key="85"/>
          <note len="12" pos="1500" pan="0" vol="100" key="83"/>
          <note len="12" pos="1512" pan="0" vol="100" key="81"/>
          <note len="12" pos="1524" pan="0" vol="100" key="80"/>
        </pattern>
        <pattern pos="23808" muted="0" steps="16" type="1" name="">
          <note len="96" pos="0" pan="0" vol="100" key="78"/>
          <note len="48" pos="96" pan="0" vol="100" key="76"/>
          <note len="48" pos="144" pan="0" vol="100" key="74"/>
          <note len="48" pos="192" pan="0" vol="100" key="78"/>
          <note len="48" pos="240" pan="0" vol="100" key="74"/>
          <note len="48" pos="288" pan="0" vol="100" key="78"/>
          <note len="48" pos="336" pan="0" vol="100" key="81"/>
          <note len="96" pos="384" pan="0" vol="100" key="80"/>
          <note len="96" pos="480" pan="0" vol="100" key="78"/>
          <note len="96" pos="576" pan="0" vol="100" key="77"/>
          <note len="96" pos="672" pan="0" vol="100" key="80"/>
          <note len="96" pos="768" pan="0" vol="100" key="78"/>
        </pattern>
        <pattern pos="26688" muted="0" steps="16" type="1" name="">
          <note len="48" pos="0" pan="0" vol="100" key="0"/>
          <note len="48" pos="144" pan="0" vol="193" key="78"/>
          <note len="144" pos="192" pan="0" vol="193" key="81"/>
          <note len="24" pos="336" pan="0" vol="193" key="78"/>
          <note len="24" pos="360" pan="0" vol="193" key="81"/>
          <note len="48" pos="384" pan="0" vol="193" key="85"/>
          <note len="48" pos="432" pan="0" vol="193" key="83"/>
          <note len="48" pos="480" pan="0" vol="193" key="81"/>
          <note len="48" pos="528" pan="0" vol="193" key="85"/>
          <note len="144" pos="576" pan="0" vol="193" key="83"/>
          <note len="48" pos="720" pan="0" vol="193" key="80"/>
          <note len="144" pos="768" pan="0" vol="193" key="77"/>
          <note len="48" pos="912" pan="0" vol="193" key="77"/>
        </pattern>
      </track>
      <track muted="0" solo="0" type="0" name="ZynAddSubFX">
        <instrumenttrack basenote="57" pitch="0" pitchrange="1" pan="0" usemasterpitch="1" fxch="15" vol="66.4">
          <instrument name="zynaddsubfx">
            <zynaddsubfx bandwidth="64" fmgain="127" rescenterfreq="64" resbandwidth="64" filterq="64" modifiedcontrollers="" forwardmidicc="1" filterfreq="64" portamento="0">
              <ZynAddSubFX-data version-minor="4" ZynAddSubFX-author="Nasca Octavian Paul" version-revision="1" version-major="2">
                <INFORMATION>
                  <par_bool value="yes" name="PADsynth_used"/>
                  <par_bool value="yes" name="PADsynth_used"/>
                </INFORMATION>
                <BASE_PARAMETERS>
                  <par value="16" name="max_midi_parts"/>
                  <par value="16" name="max_kit_items_per_instrument"/>
                  <par value="4" name="max_system_effects"/>
                  <par value="8" name="max_insertion_effects"/>
                  <par value="3" name="max_instrument_effects"/>
                  <par value="8" name="max_addsynth_voices"/>
                </BASE_PARAMETERS>
                <MASTER>
                  <par value="80" name="volume"/>
                  <par value="64" name="key_shift"/>
                  <par_bool value="yes" name="nrpn_receive"/>
                  <MICROTONAL>
                    <string name="name">12tET</string>
                    <string name="comment">Equal Temperament 12 notes per octave</string>
                    <par_bool value="no" name="invert_up_down"/>
                    <par value="60" name="invert_up_down_center"/>
                    <par_bool value="no" name="enabled"/>
                    <par value="64" name="global_fine_detune"/>
                    <par value="69" name="a_note"/>
                    <par_real value="440.000000" name="a_freq"/>
                  </MICROTONAL>
                  <PART id="0">
                    <par_bool value="yes" name="enabled"/>
                    <par value="98" name="volume"/>
                    <par value="64" name="panning"/>
                    <par value="0" name="min_key"/>
                    <par value="127" name="max_key"/>
                    <par value="76" name="key_shift"/>
                    <par value="0" name="rcv_chn"/>
                    <par value="64" name="velocity_sensing"/>
                    <par value="64" name="velocity_offset"/>
                    <par_bool value="yes" name="note_on"/>
                    <par_bool value="yes" name="poly_mode"/>
                    <par value="0" name="legato_mode"/>
                    <par value="15" name="key_limit"/>
                    <INSTRUMENT>
                      <INFO>
                        <string name="name">Full Strings</string>
                        <string name="author">Will Godfrey
GPL V 2 or later</string>
                        <string name="comments">Developed from Paul's Strings Pad5</string>
                        <par value="12" name="type"/>
                      </INFO>
                      <INSTRUMENT_KIT>
                        <par value="1" name="kit_mode"/>
                        <par_bool value="no" name="drum_mode"/>
                        <INSTRUMENT_KIT_ITEM id="0">
                          <par_bool value="yes" name="enabled"/>
                          <string name="name"/>
                          <par_bool value="no" name="muted"/>
                          <par value="0" name="min_key"/>
                          <par value="127" name="max_key"/>
                          <par value="0" name="send_to_instrument_effect"/>
                          <par_bool value="no" name="add_enabled"/>
                          <par_bool value="no" name="sub_enabled"/>
                          <par_bool value="yes" name="pad_enabled"/>
                          <PAD_SYNTH_PARAMETERS>
                            <par_bool value="yes" name="stereo"/>
                            <par value="0" name="mode"/>
                            <par value="620" name="bandwidth"/>
                            <par value="0" name="bandwidth_scale"/>
                            <HARMONIC_PROFILE>
                              <par value="0" name="base_type"/>
                              <par value="99" name="base_par1"/>
                              <par value="8" name="frequency_multiplier"/>
                              <par value="0" name="modulator_par1"/>
                              <par value="55" name="modulator_frequency"/>
                              <par value="127" name="width"/>
                              <par value="0" name="amplitude_multiplier_type"/>
                              <par value="2" name="amplitude_multiplier_mode"/>
                              <par value="80" name="amplitude_multiplier_par1"/>
                              <par value="4" name="amplitude_multiplier_par2"/>
                              <par_bool value="yes" name="autoscale"/>
                              <par value="0" name="one_half"/>
                            </HARMONIC_PROFILE>
                            <OSCIL>
                              <par value="0" name="harmonic_mag_type"/>
                              <par value="4" name="base_function"/>
                              <par value="51" name="base_function_par"/>
                              <par value="0" name="base_function_modulation"/>
                              <par value="64" name="base_function_modulation_par1"/>
                              <par value="64" name="base_function_modulation_par2"/>
                              <par value="32" name="base_function_modulation_par3"/>
                              <par value="0" name="modulation"/>
                              <par value="64" name="modulation_par1"/>
                              <par value="64" name="modulation_par2"/>
                              <par value="32" name="modulation_par3"/>
                              <par value="64" name="wave_shaping"/>
                              <par value="0" name="wave_shaping_function"/>
                              <par value="0" name="filter_type"/>
                              <par value="37" name="filter_par1"/>
                              <par value="64" name="filter_par2"/>
                              <par value="0" name="filter_before_wave_shaping"/>
                              <par value="0" name="spectrum_adjust_type"/>
                              <par value="64" name="spectrum_adjust_par"/>
                              <par value="64" name="rand"/>
                              <par value="0" name="amp_rand_type"/>
                              <par value="64" name="amp_rand_power"/>
                              <par value="0" name="harmonic_shift"/>
                              <par_bool value="no" name="harmonic_shift_first"/>
                              <par value="0" name="adaptive_harmonics"/>
                              <par value="128" name="adaptive_harmonics_base_frequency"/>
                              <par value="100" name="adaptive_harmonics_power"/>
                              <HARMONICS>
                                <HARMONIC id="1">
                                  <par value="83" name="mag"/>
                                  <par value="64" name="phase"/>
                                </HARMONIC>
                                <HARMONIC id="2">
                                  <par value="127" name="mag"/>
                                  <par value="64" name="phase"/>
                                </HARMONIC>
                              </HARMONICS>
                            </OSCIL>
                            <RESONANCE>
                              <par_bool value="no" name="enabled"/>
                            </RESONANCE>
                            <HARMONIC_POSITION>
                              <par value="0" name="type"/>
                              <par value="255" name="parameter1"/>
                              <par value="64" name="parameter2"/>
                              <par value="0" name="parameter3"/>
                            </HARMONIC_POSITION>
                            <SAMPLE_QUALITY>
                              <par value="4" name="samplesize"/>
                              <par value="4" name="basenote"/>
                              <par value="5" name="octaves"/>
                              <par value="2" name="samples_per_octave"/>
                            </SAMPLE_QUALITY>
                            <AMPLITUDE_PARAMETERS>
                              <par value="94" name="volume"/>
                              <par value="67" name="panning"/>
                              <par value="70" name="velocity_sensing"/>
                              <par value="0" name="punch_strength"/>
                              <par value="60" name="punch_time"/>
                              <par value="64" name="punch_stretch"/>
                              <par value="72" name="punch_velocity_sensing"/>
                              <AMPLITUDE_ENVELOPE>
                                <par_bool value="no" name="free_mode"/>
                                <par value="4" name="env_points"/>
                                <par value="2" name="env_sustain"/>
                                <par value="0" name="env_stretch"/>
                                <par_bool value="no" name="forced_release"/>
                                <par_bool value="no" name="linear_envelope"/>
                                <par value="5" name="A_dt"/>
                                <par value="39" name="D_dt"/>
                                <par value="33" name="R_dt"/>
                                <par value="64" name="A_val"/>
                                <par value="64" name="D_val"/>
                                <par value="127" name="S_val"/>
                                <par value="64" name="R_val"/>
                              </AMPLITUDE_ENVELOPE>
                              <AMPLITUDE_LFO>
                                <par_real value="0.629921" name="freq"/>
                                <par value="0" name="intensity"/>
                                <par value="64" name="start_phase"/>
                                <par value="0" name="lfo_type"/>
                                <par value="0" name="randomness_amplitude"/>
                                <par value="0" name="randomness_frequency"/>
                                <par value="0" name="delay"/>
                                <par value="64" name="stretch"/>
                                <par_bool value="no" name="continous"/>
                              </AMPLITUDE_LFO>
                            </AMPLITUDE_PARAMETERS>
                            <FREQUENCY_PARAMETERS>
                              <par value="0" name="fixed_freq"/>
                              <par value="0" name="fixed_freq_et"/>
                              <par value="8192" name="detune"/>
                              <par value="15360" name="coarse_detune"/>
                              <par value="1" name="detune_type"/>
                              <FREQUENCY_ENVELOPE>
                                <par_bool value="no" name="free_mode"/>
                                <par value="3" name="env_points"/>
                                <par value="1" name="env_sustain"/>
                                <par value="0" name="env_stretch"/>
                                <par_bool value="no" name="forced_release"/>
                                <par_bool value="no" name="linear_envelope"/>
                                <par value="50" name="A_dt"/>
                                <par value="10" name="D_dt"/>
                                <par value="60" name="R_dt"/>
                                <par value="64" name="A_val"/>
                                <par value="64" name="D_val"/>
                                <par value="64" name="S_val"/>
                                <par value="64" name="R_val"/>
                              </FREQUENCY_ENVELOPE>
                              <FREQUENCY_LFO>
                                <par_real value="0.621181" name="freq"/>
                                <par value="0" name="intensity"/>
                                <par value="64" name="start_phase"/>
                                <par value="0" name="lfo_type"/>
                                <par value="0" name="randomness_amplitude"/>
                                <par value="0" name="randomness_frequency"/>
                                <par value="0" name="delay"/>
                                <par value="64" name="stretch"/>
                                <par_bool value="no" name="continous"/>
                              </FREQUENCY_LFO>
                            </FREQUENCY_PARAMETERS>
                            <FILTER_PARAMETERS>
                              <par value="25" name="velocity_sensing_amplitude"/>
                              <par value="64" name="velocity_sensing"/>
                              <FILTER>
                                <par value="0" name="category"/>
                                <par value="2" name="type"/>
                                <par value="108" name="freq"/>
                                <par value="28" name="q"/>
                                <par value="1" name="stages"/>
                                <par value="97" name="freq_track"/>
                                <par value="64" name="gain"/>
                              </FILTER>
                              <FILTER_ENVELOPE>
                                <par_bool value="no" name="free_mode"/>
                                <par value="4" name="env_points"/>
                                <par value="2" name="env_sustain"/>
                                <par value="0" name="env_stretch"/>
                                <par_bool value="yes" name="forced_release"/>
                                <par_bool value="no" name="linear_envelope"/>
                                <par value="17" name="A_dt"/>
                                <par value="70" name="D_dt"/>
                                <par value="98" name="R_dt"/>
                                <par value="37" name="A_val"/>
                                <par value="64" name="D_val"/>
                                <par value="64" name="S_val"/>
                                <par value="43" name="R_val"/>
                              </FILTER_ENVELOPE>
                              <FILTER_LFO>
                                <par_real value="0.629921" name="freq"/>
                                <par value="0" name="intensity"/>
                                <par value="64" name="start_phase"/>
                                <par value="0" name="lfo_type"/>
                                <par value="0" name="randomness_amplitude"/>
                                <par value="0" name="randomness_frequency"/>
                                <par value="0" name="delay"/>
                                <par value="64" name="stretch"/>
                                <par_bool value="no" name="continous"/>
                              </FILTER_LFO>
                            </FILTER_PARAMETERS>
                          </PAD_SYNTH_PARAMETERS>
                        </INSTRUMENT_KIT_ITEM>
                        <INSTRUMENT_KIT_ITEM id="1">
                          <par_bool value="no" name="enabled"/>
                        </INSTRUMENT_KIT_ITEM>
                        <INSTRUMENT_KIT_ITEM id="2">
                          <par_bool value="no" name="enabled"/>
                        </INSTRUMENT_KIT_ITEM>
                        <INSTRUMENT_KIT_ITEM id="3">
                          <par_bool value="no" name="enabled"/>
                        </INSTRUMENT_KIT_ITEM>
                        <INSTRUMENT_KIT_ITEM id="4">
                          <par_bool value="no" name="enabled"/>
                        </INSTRUMENT_KIT_ITEM>
                        <INSTRUMENT_KIT_ITEM id="5">
                          <par_bool value="no" name="enabled"/>
                        </INSTRUMENT_KIT_ITEM>
                        <INSTRUMENT_KIT_ITEM id="6">
                          <par_bool value="no" name="enabled"/>
                        </INSTRUMENT_KIT_ITEM>
                        <INSTRUMENT_KIT_ITEM id="7">
                          <par_bool value="no" name="enabled"/>
                        </INSTRUMENT_KIT_ITEM>
                        <INSTRUMENT_KIT_ITEM id="8">
                          <par_bool value="no" name="enabled"/>
                        </INSTRUMENT_KIT_ITEM>
                        <INSTRUMENT_KIT_ITEM id="9">
                          <par_bool value="no" name="enabled"/>
                        </INSTRUMENT_KIT_ITEM>
                        <INSTRUMENT_KIT_ITEM id="10">
                          <par_bool value="no" name="enabled"/>
                        </INSTRUMENT_KIT_ITEM>
                        <INSTRUMENT_KIT_ITEM id="11">
                          <par_bool value="no" name="enabled"/>
                        </INSTRUMENT_KIT_ITEM>
                        <INSTRUMENT_KIT_ITEM id="12">
                          <par_bool value="no" name="enabled"/>
                        </INSTRUMENT_KIT_ITEM>
                        <INSTRUMENT_KIT_ITEM id="13">
                          <par_bool value="no" name="enabled"/>
                        </INSTRUMENT_KIT_ITEM>
                        <INSTRUMENT_KIT_ITEM id="14">
                          <par_bool value="no" name="enabled"/>
                        </INSTRUMENT_KIT_ITEM>
                        <INSTRUMENT_KIT_ITEM id="15">
                          <par_bool value="no" name="enabled"/>
                        </INSTRUMENT_KIT_ITEM>
                      </INSTRUMENT_KIT>
                      <INSTRUMENT_EFFECTS>
                        <INSTRUMENT_EFFECT id="0">
                          <EFFECT>
                            <par value="3" name="type"/>
                            <par value="0" name="preset"/>
                            <EFFECT_PARAMETERS>
                              <par_no id="0">
                                <par value="64" name="par"/>
                              </par_no>
                              <par_no id="1">
                                <par value="64" name="par"/>
                              </par_no>
                              <par_no id="2">
                                <par value="50" name="par"/>
                              </par_no>
                              <par_no id="5">
                                <par value="90" name="par"/>
                              </par_no>
                              <par_no id="6">
                                <par value="40" name="par"/>
                              </par_no>
                              <par_no id="7">
                                <par value="85" name="par"/>
                              </par_no>
                              <par_no id="8">
                                <par value="67" name="par"/>
                              </par_no>
                              <par_no id="9">
                                <par value="119" name="par"/>
                              </par_no>
                            </EFFECT_PARAMETERS>
                          </EFFECT>
                          <par value="0" name="route"/>
                          <par_bool value="no" name="bypass"/>
                        </INSTRUMENT_EFFECT>
                        <INSTRUMENT_EFFECT id="1">
                          <EFFECT>
                            <par value="1" name="type"/>
                            <par value="0" name="preset"/>
                            <EFFECT_PARAMETERS>
                              <par_no id="0">
                                <par value="40" name="par"/>
                              </par_no>
                              <par_no id="1">
                                <par value="64" name="par"/>
                              </par_no>
                              <par_no id="2">
                                <par value="63" name="par"/>
                              </par_no>
                              <par_no id="3">
                                <par value="24" name="par"/>
                              </par_no>
                              <par_no id="7">
                                <par value="85" name="par"/>
                              </par_no>
                              <par_no id="8">
                                <par value="5" name="par"/>
                              </par_no>
                              <par_no id="9">
                                <par value="83" name="par"/>
                              </par_no>
                              <par_no id="10">
                                <par value="1" name="par"/>
                              </par_no>
                              <par_no id="11">
                                <par value="64" name="par"/>
                              </par_no>
                            </EFFECT_PARAMETERS>
                          </EFFECT>
                          <par value="0" name="route"/>
                          <par_bool value="no" name="bypass"/>
                        </INSTRUMENT_EFFECT>
                        <INSTRUMENT_EFFECT id="2">
                          <EFFECT>
                            <par value="0" name="type"/>
                          </EFFECT>
                          <par value="0" name="route"/>
                          <par_bool value="no" name="bypass"/>
                        </INSTRUMENT_EFFECT>
                      </INSTRUMENT_EFFECTS>
                    </INSTRUMENT>
                    <CONTROLLER>
                      <par value="100" name="pitchwheel_bendrange"/>
                      <par_bool value="yes" name="expression_receive"/>
                      <par value="64" name="panning_depth"/>
                      <par value="64" name="filter_cutoff_depth"/>
                      <par value="64" name="filter_q_depth"/>
                      <par value="64" name="bandwidth_depth"/>
                      <par value="80" name="mod_wheel_depth"/>
                      <par_bool value="no" name="mod_wheel_exponential"/>
                      <par_bool value="yes" name="fm_amp_receive"/>
                      <par_bool value="yes" name="volume_receive"/>
                      <par_bool value="yes" name="sustain_receive"/>
                      <par_bool value="yes" name="portamento_receive"/>
                      <par value="64" name="portamento_time"/>
                      <par value="3" name="portamento_pitchthresh"/>
                      <par value="1" name="portamento_pitchthreshtype"/>
                      <par value="0" name="portamento_portamento"/>
                      <par value="64" name="portamento_updowntimestretch"/>
                      <par value="0" name="portamento_proportional"/>
                      <par value="80" name="portamento_proprate"/>
                      <par value="90" name="portamento_propdepth"/>
                      <par value="64" name="resonance_center_depth"/>
                      <par value="64" name="resonance_bandwidth_depth"/>
                    </CONTROLLER>
                  </PART>
                  <PART id="1">
                    <par_bool value="yes" name="enabled"/>
                    <par value="88" name="volume"/>
                    <par value="64" name="panning"/>
                    <par value="0" name="min_key"/>
                    <par value="127" name="max_key"/>
                    <par value="52" name="key_shift"/>
                    <par value="0" name="rcv_chn"/>
                    <par value="64" name="velocity_sensing"/>
                    <par value="64" name="velocity_offset"/>
                    <par_bool value="yes" name="note_on"/>
                    <par_bool value="yes" name="poly_mode"/>
                    <par value="0" name="legato_mode"/>
                    <par value="15" name="key_limit"/>
                    <INSTRUMENT>
                      <INFO>
                        <string name="name">Brass Pad2</string>
                        <string name="author"/>
                        <string name="comments"/>
                        <par value="0" name="type"/>
                      </INFO>
                      <INSTRUMENT_KIT>
                        <par value="0" name="kit_mode"/>
                        <par_bool value="no" name="drum_mode"/>
                        <INSTRUMENT_KIT_ITEM id="0">
                          <par_bool value="yes" name="enabled"/>
                          <string name="name"/>
                          <par_bool value="no" name="muted"/>
                          <par value="0" name="min_key"/>
                          <par value="127" name="max_key"/>
                          <par value="0" name="send_to_instrument_effect"/>
                          <par_bool value="no" name="add_enabled"/>
                          <par_bool value="no" name="sub_enabled"/>
                          <par_bool value="yes" name="pad_enabled"/>
                          <PAD_SYNTH_PARAMETERS>
                            <par_bool value="yes" name="stereo"/>
                            <par value="0" name="mode"/>
                            <par value="460" name="bandwidth"/>
                            <par value="0" name="bandwidth_scale"/>
                            <HARMONIC_PROFILE>
                              <par value="1" name="base_type"/>
                              <par value="109" name="base_par1"/>
                              <par value="63" name="frequency_multiplier"/>
                              <par value="0" name="modulator_par1"/>
                              <par value="30" name="modulator_frequency"/>
                              <par value="127" name="width"/>
                              <par value="0" name="amplitude_multiplier_type"/>
                              <par value="0" name="amplitude_multiplier_mode"/>
                              <par value="80" name="amplitude_multiplier_par1"/>
                              <par value="64" name="amplitude_multiplier_par2"/>
                              <par_bool value="yes" name="autoscale"/>
                              <par value="0" name="one_half"/>
                            </HARMONIC_PROFILE>
                            <OSCIL>
                              <par value="0" name="harmonic_mag_type"/>
                              <par value="4" name="base_function"/>
                              <par value="61" name="base_function_par"/>
                              <par value="0" name="base_function_modulation"/>
                              <par value="64" name="base_function_modulation_par1"/>
                              <par value="64" name="base_function_modulation_par2"/>
                              <par value="32" name="base_function_modulation_par3"/>
                              <par value="0" name="modulation"/>
                              <par value="64" name="modulation_par1"/>
                              <par value="64" name="modulation_par2"/>
                              <par value="32" name="modulation_par3"/>
                              <par value="68" name="wave_shaping"/>
                              <par value="1" name="wave_shaping_function"/>
                              <par value="0" name="filter_type"/>
                              <par value="64" name="filter_par1"/>
                              <par value="64" name="filter_par2"/>
                              <par value="0" name="filter_before_wave_shaping"/>
                              <par value="0" name="spectrum_adjust_type"/>
                              <par value="57" name="spectrum_adjust_par"/>
                              <par value="0" name="rand"/>
                              <par value="0" name="amp_rand_type"/>
                              <par value="64" name="amp_rand_power"/>
                              <par value="0" name="harmonic_shift"/>
                              <par_bool value="no" name="harmonic_shift_first"/>
                              <par value="0" name="adaptive_harmonics"/>
                              <par value="128" name="adaptive_harmonics_base_frequency"/>
                              <par value="100" name="adaptive_harmonics_power"/>
                              <HARMONICS>
                                <HARMONIC id="1">
                                  <par value="127" name="mag"/>
                                  <par value="64" name="phase"/>
                                </HARMONIC>
                                <HARMONIC id="2">
                                  <par value="104" name="mag"/>
                                  <par value="64" name="phase"/>
                                </HARMONIC>
                              </HARMONICS>
                            </OSCIL>
                            <RESONANCE>
                              <par_bool value="no" name="enabled"/>
                            </RESONANCE>
                            <HARMONIC_POSITION>
                              <par value="0" name="type"/>
                              <par value="97" name="parameter1"/>
                              <par value="64" name="parameter2"/>
                              <par value="0" name="parameter3"/>
                            </HARMONIC_POSITION>
                            <SAMPLE_QUALITY>
                              <par value="3" name="samplesize"/>
                              <par value="4" name="basenote"/>
                              <par value="3" name="octaves"/>
                              <par value="2" name="samples_per_octave"/>
                            </SAMPLE_QUALITY>
                            <AMPLITUDE_PARAMETERS>
                              <par value="98" name="volume"/>
                              <par value="64" name="panning"/>
                              <par value="96" name="velocity_sensing"/>
                              <par value="0" name="punch_strength"/>
                              <par value="60" name="punch_time"/>
                              <par value="64" name="punch_stretch"/>
                              <par value="72" name="punch_velocity_sensing"/>
                              <AMPLITUDE_ENVELOPE>
                                <par_bool value="no" name="free_mode"/>
                                <par value="4" name="env_points"/>
                                <par value="2" name="env_sustain"/>
                                <par value="0" name="env_stretch"/>
                                <par_bool value="yes" name="forced_release"/>
                                <par_bool value="no" name="linear_envelope"/>
                                <par value="0" name="A_dt"/>
                                <par value="40" name="D_dt"/>
                                <par value="63" name="R_dt"/>
                                <par value="64" name="A_val"/>
                                <par value="64" name="D_val"/>
                                <par value="127" name="S_val"/>
                                <par value="64" name="R_val"/>
                              </AMPLITUDE_ENVELOPE>
                              <AMPLITUDE_LFO>
                                <par_real value="0.629921" name="freq"/>
                                <par value="0" name="intensity"/>
                                <par value="64" name="start_phase"/>
                                <par value="0" name="lfo_type"/>
                                <par value="0" name="randomness_amplitude"/>
                                <par value="0" name="randomness_frequency"/>
                                <par value="0" name="delay"/>
                                <par value="64" name="stretch"/>
                                <par_bool value="no" name="continous"/>
                              </AMPLITUDE_LFO>
                            </AMPLITUDE_PARAMETERS>
                            <FREQUENCY_PARAMETERS>
                              <par value="0" name="fixed_freq"/>
                              <par value="0" name="fixed_freq_et"/>
                              <par value="8192" name="detune"/>
                              <par value="0" name="coarse_detune"/>
                              <par value="1" name="detune_type"/>
                              <FREQUENCY_ENVELOPE>
                                <par_bool value="no" name="free_mode"/>
                                <par value="3" name="env_points"/>
                                <par value="1" name="env_sustain"/>
                                <par value="23" name="env_stretch"/>
                                <par_bool value="no" name="forced_release"/>
                                <par_bool value="no" name="linear_envelope"/>
                                <par value="26" name="A_dt"/>
                                <par value="10" name="D_dt"/>
                                <par value="60" name="R_dt"/>
                                <par value="44" name="A_val"/>
                                <par value="64" name="D_val"/>
                                <par value="64" name="S_val"/>
                                <par value="64" name="R_val"/>
                              </FREQUENCY_ENVELOPE>
                              <FREQUENCY_LFO>
                                <par_real value="0.582677" name="freq"/>
                                <par value="0" name="intensity"/>
                                <par value="64" name="start_phase"/>
                                <par value="0" name="lfo_type"/>
                                <par value="0" name="randomness_amplitude"/>
                                <par value="27" name="randomness_frequency"/>
                                <par value="0" name="delay"/>
                                <par value="64" name="stretch"/>
                                <par_bool value="no" name="continous"/>
                              </FREQUENCY_LFO>
                            </FREQUENCY_PARAMETERS>
                            <FILTER_PARAMETERS>
                              <par value="64" name="velocity_sensing_amplitude"/>
                              <par value="64" name="velocity_sensing"/>
                              <FILTER>
                                <par value="0" name="category"/>
                                <par value="2" name="type"/>
                                <par value="74" name="freq"/>
                                <par value="24" name="q"/>
                                <par value="2" name="stages"/>
                                <par value="65" name="freq_track"/>
                                <par value="64" name="gain"/>
                              </FILTER>
                              <FILTER_ENVELOPE>
                                <par_bool value="no" name="free_mode"/>
                                <par value="4" name="env_points"/>
                                <par value="2" name="env_sustain"/>
                                <par value="0" name="env_stretch"/>
                                <par_bool value="yes" name="forced_release"/>
                                <par_bool value="no" name="linear_envelope"/>
                                <par value="32" name="A_dt"/>
                                <par value="86" name="D_dt"/>
                                <par value="62" name="R_dt"/>
                                <par value="37" name="A_val"/>
                                <par value="110" name="D_val"/>
                                <par value="64" name="S_val"/>
                                <par value="53" name="R_val"/>
                              </FILTER_ENVELOPE>
                              <FILTER_LFO>
                                <par_real value="0.629921" name="freq"/>
                                <par value="0" name="intensity"/>
                                <par value="64" name="start_phase"/>
                                <par value="0" name="lfo_type"/>
                                <par value="0" name="randomness_amplitude"/>
                                <par value="0" name="randomness_frequency"/>
                                <par value="0" name="delay"/>
                                <par value="64" name="stretch"/>
                                <par_bool value="no" name="continous"/>
                              </FILTER_LFO>
                            </FILTER_PARAMETERS>
                          </PAD_SYNTH_PARAMETERS>
                        </INSTRUMENT_KIT_ITEM>
                        <INSTRUMENT_KIT_ITEM id="1">
                          <par_bool value="no" name="enabled"/>
                        </INSTRUMENT_KIT_ITEM>
                        <INSTRUMENT_KIT_ITEM id="2">
                          <par_bool value="no" name="enabled"/>
                        </INSTRUMENT_KIT_ITEM>
                        <INSTRUMENT_KIT_ITEM id="3">
                          <par_bool value="no" name="enabled"/>
                        </INSTRUMENT_KIT_ITEM>
                        <INSTRUMENT_KIT_ITEM id="4">
                          <par_bool value="no" name="enabled"/>
                        </INSTRUMENT_KIT_ITEM>
                        <INSTRUMENT_KIT_ITEM id="5">
                          <par_bool value="no" name="enabled"/>
                        </INSTRUMENT_KIT_ITEM>
                        <INSTRUMENT_KIT_ITEM id="6">
                          <par_bool value="no" name="enabled"/>
                        </INSTRUMENT_KIT_ITEM>
                        <INSTRUMENT_KIT_ITEM id="7">
                          <par_bool value="no" name="enabled"/>
                        </INSTRUMENT_KIT_ITEM>
                        <INSTRUMENT_KIT_ITEM id="8">
                          <par_bool value="no" name="enabled"/>
                        </INSTRUMENT_KIT_ITEM>
                        <INSTRUMENT_KIT_ITEM id="9">
                          <par_bool value="no" name="enabled"/>
                        </INSTRUMENT_KIT_ITEM>
                        <INSTRUMENT_KIT_ITEM id="10">
                          <par_bool value="no" name="enabled"/>
                        </INSTRUMENT_KIT_ITEM>
                        <INSTRUMENT_KIT_ITEM id="11">
                          <par_bool value="no" name="enabled"/>
                        </INSTRUMENT_KIT_ITEM>
                        <INSTRUMENT_KIT_ITEM id="12">
                          <par_bool value="no" name="enabled"/>
                        </INSTRUMENT_KIT_ITEM>
                        <INSTRUMENT_KIT_ITEM id="13">
                          <par_bool value="no" name="enabled"/>
                        </INSTRUMENT_KIT_ITEM>
                        <INSTRUMENT_KIT_ITEM id="14">
                          <par_bool value="no" name="enabled"/>
                        </INSTRUMENT_KIT_ITEM>
                        <INSTRUMENT_KIT_ITEM id="15">
                          <par_bool value="no" name="enabled"/>
                        </INSTRUMENT_KIT_ITEM>
                      </INSTRUMENT_KIT>
                      <INSTRUMENT_EFFECTS>
                        <INSTRUMENT_EFFECT id="0">
                          <EFFECT>
                            <par value="3" name="type"/>
                            <par value="0" name="preset"/>
                            <EFFECT_PARAMETERS>
                              <par_no id="0">
                                <par value="64" name="par"/>
                              </par_no>
                              <par_no id="1">
                                <par value="64" name="par"/>
                              </par_no>
                              <par_no id="2">
                                <par value="50" name="par"/>
                              </par_no>
                              <par_no id="5">
                                <par value="90" name="par"/>
                              </par_no>
                              <par_no id="6">
                                <par value="40" name="par"/>
                              </par_no>
                              <par_no id="7">
                                <par value="17" name="par"/>
                              </par_no>
                              <par_no id="8">
                                <par value="64" name="par"/>
                              </par_no>
                              <par_no id="9">
                                <par value="119" name="par"/>
                              </par_no>
                            </EFFECT_PARAMETERS>
                          </EFFECT>
                          <par value="0" name="route"/>
                          <par_bool value="yes" name="bypass"/>
                        </INSTRUMENT_EFFECT>
                        <INSTRUMENT_EFFECT id="1">
                          <EFFECT>
                            <par value="3" name="type"/>
                            <par value="0" name="preset"/>
                            <EFFECT_PARAMETERS>
                              <par_no id="0">
                                <par value="64" name="par"/>
                              </par_no>
                              <par_no id="1">
                                <par value="64" name="par"/>
                              </par_no>
                              <par_no id="2">
                                <par value="50" name="par"/>
                              </par_no>
                              <par_no id="5">
                                <par value="90" name="par"/>
                              </par_no>
                              <par_no id="6">
                                <par value="58" name="par"/>
                              </par_no>
                              <par_no id="7">
                                <par value="102" name="par"/>
                              </par_no>
                              <par_no id="8">
                                <par value="64" name="par"/>
                              </par_no>
                              <par_no id="9">
                                <par value="119" name="par"/>
                              </par_no>
                            </EFFECT_PARAMETERS>
                          </EFFECT>
                          <par value="0" name="route"/>
                          <par_bool value="yes" name="bypass"/>
                        </INSTRUMENT_EFFECT>
                        <INSTRUMENT_EFFECT id="2">
                          <EFFECT>
                            <par value="3" name="type"/>
                            <par value="0" name="preset"/>
                            <EFFECT_PARAMETERS>
                              <par_no id="0">
                                <par value="64" name="par"/>
                              </par_no>
                              <par_no id="1">
                                <par value="64" name="par"/>
                              </par_no>
                              <par_no id="2">
                                <par value="65" name="par"/>
                              </par_no>
                              <par_no id="5">
                                <par value="90" name="par"/>
                              </par_no>
                              <par_no id="6">
                                <par value="40" name="par"/>
                              </par_no>
                              <par_no id="7">
                                <par value="19" name="par"/>
                              </par_no>
                              <par_no id="8">
                                <par value="64" name="par"/>
                              </par_no>
                              <par_no id="9">
                                <par value="119" name="par"/>
                              </par_no>
                            </EFFECT_PARAMETERS>
                          </EFFECT>
                          <par value="0" name="route"/>
                          <par_bool value="yes" name="bypass"/>
                        </INSTRUMENT_EFFECT>
                      </INSTRUMENT_EFFECTS>
                    </INSTRUMENT>
                    <CONTROLLER>
                      <par value="100" name="pitchwheel_bendrange"/>
                      <par_bool value="yes" name="expression_receive"/>
                      <par value="64" name="panning_depth"/>
                      <par value="64" name="filter_cutoff_depth"/>
                      <par value="64" name="filter_q_depth"/>
                      <par value="64" name="bandwidth_depth"/>
                      <par value="80" name="mod_wheel_depth"/>
                      <par_bool value="no" name="mod_wheel_exponential"/>
                      <par_bool value="yes" name="fm_amp_receive"/>
                      <par_bool value="yes" name="volume_receive"/>
                      <par_bool value="yes" name="sustain_receive"/>
                      <par_bool value="yes" name="portamento_receive"/>
                      <par value="64" name="portamento_time"/>
                      <par value="3" name="portamento_pitchthresh"/>
                      <par value="1" name="portamento_pitchthreshtype"/>
                      <par value="0" name="portamento_portamento"/>
                      <par value="64" name="portamento_updowntimestretch"/>
                      <par value="0" name="portamento_proportional"/>
                      <par value="80" name="portamento_proprate"/>
                      <par value="90" name="portamento_propdepth"/>
                      <par value="64" name="resonance_center_depth"/>
                      <par value="64" name="resonance_bandwidth_depth"/>
                    </CONTROLLER>
                  </PART>
                  <PART id="2">
                    <par_bool value="no" name="enabled"/>
                  </PART>
                  <PART id="3">
                    <par_bool value="no" name="enabled"/>
                  </PART>
                  <PART id="4">
                    <par_bool value="no" name="enabled"/>
                  </PART>
                  <PART id="5">
                    <par_bool value="no" name="enabled"/>
                  </PART>
                  <PART id="6">
                    <par_bool value="no" name="enabled"/>
                  </PART>
                  <PART id="7">
                    <par_bool value="no" name="enabled"/>
                  </PART>
                  <PART id="8">
                    <par_bool value="no" name="enabled"/>
                  </PART>
                  <PART id="9">
                    <par_bool value="no" name="enabled"/>
                  </PART>
                  <PART id="10">
                    <par_bool value="no" name="enabled"/>
                  </PART>
                  <PART id="11">
                    <par_bool value="no" name="enabled"/>
                  </PART>
                  <PART id="12">
                    <par_bool value="no" name="enabled"/>
                  </PART>
                  <PART id="13">
                    <par_bool value="no" name="enabled"/>
                  </PART>
                  <PART id="14">
                    <par_bool value="no" name="enabled"/>
                  </PART>
                  <PART id="15">
                    <par_bool value="no" name="enabled"/>
                  </PART>
                  <SYSTEM_EFFECTS>
                    <SYSTEM_EFFECT id="0">
                      <EFFECT>
                        <par value="0" name="type"/>
                      </EFFECT>
                      <VOLUME id="0">
                        <par value="0" name="vol"/>
                      </VOLUME>
                      <VOLUME id="1">
                        <par value="0" name="vol"/>
                      </VOLUME>
                      <VOLUME id="2">
                        <par value="0" name="vol"/>
                      </VOLUME>
                      <VOLUME id="3">
                        <par value="0" name="vol"/>
                      </VOLUME>
                      <VOLUME id="4">
                        <par value="0" name="vol"/>
                      </VOLUME>
                      <VOLUME id="5">
                        <par value="0" name="vol"/>
                      </VOLUME>
                      <VOLUME id="6">
                        <par value="0" name="vol"/>
                      </VOLUME>
                      <VOLUME id="7">
                        <par value="0" name="vol"/>
                      </VOLUME>
                      <VOLUME id="8">
                        <par value="0" name="vol"/>
                      </VOLUME>
                      <VOLUME id="9">
                        <par value="0" name="vol"/>
                      </VOLUME>
                      <VOLUME id="10">
                        <par value="0" name="vol"/>
                      </VOLUME>
                      <VOLUME id="11">
                        <par value="0" name="vol"/>
                      </VOLUME>
                      <VOLUME id="12">
                        <par value="0" name="vol"/>
                      </VOLUME>
                      <VOLUME id="13">
                        <par value="0" name="vol"/>
                      </VOLUME>
                      <VOLUME id="14">
                        <par value="0" name="vol"/>
                      </VOLUME>
                      <VOLUME id="15">
                        <par value="0" name="vol"/>
                      </VOLUME>
                      <SENDTO id="1">
                        <par value="0" name="send_vol"/>
                      </SENDTO>
                      <SENDTO id="2">
                        <par value="0" name="send_vol"/>
                      </SENDTO>
                      <SENDTO id="3">
                        <par value="0" name="send_vol"/>
                      </SENDTO>
                    </SYSTEM_EFFECT>
                    <SYSTEM_EFFECT id="1">
                      <EFFECT>
                        <par value="0" name="type"/>
                      </EFFECT>
                      <VOLUME id="0">
                        <par value="0" name="vol"/>
                      </VOLUME>
                      <VOLUME id="1">
                        <par value="0" name="vol"/>
                      </VOLUME>
                      <VOLUME id="2">
                        <par value="0" name="vol"/>
                      </VOLUME>
                      <VOLUME id="3">
                        <par value="0" name="vol"/>
                      </VOLUME>
                      <VOLUME id="4">
                        <par value="0" name="vol"/>
                      </VOLUME>
                      <VOLUME id="5">
                        <par value="0" name="vol"/>
                      </VOLUME>
                      <VOLUME id="6">
                        <par value="0" name="vol"/>
                      </VOLUME>
                      <VOLUME id="7">
                        <par value="0" name="vol"/>
                      </VOLUME>
                      <VOLUME id="8">
                        <par value="0" name="vol"/>
                      </VOLUME>
                      <VOLUME id="9">
                        <par value="0" name="vol"/>
                      </VOLUME>
                      <VOLUME id="10">
                        <par value="0" name="vol"/>
                      </VOLUME>
                      <VOLUME id="11">
                        <par value="0" name="vol"/>
                      </VOLUME>
                      <VOLUME id="12">
                        <par value="0" name="vol"/>
                      </VOLUME>
                      <VOLUME id="13">
                        <par value="0" name="vol"/>
                      </VOLUME>
                      <VOLUME id="14">
                        <par value="0" name="vol"/>
                      </VOLUME>
                      <VOLUME id="15">
                        <par value="0" name="vol"/>
                      </VOLUME>
                      <SENDTO id="2">
                        <par value="0" name="send_vol"/>
                      </SENDTO>
                      <SENDTO id="3">
                        <par value="0" name="send_vol"/>
                      </SENDTO>
                    </SYSTEM_EFFECT>
                    <SYSTEM_EFFECT id="2">
                      <EFFECT>
                        <par value="0" name="type"/>
                      </EFFECT>
                      <VOLUME id="0">
                        <par value="0" name="vol"/>
                      </VOLUME>
                      <VOLUME id="1">
                        <par value="0" name="vol"/>
                      </VOLUME>
                      <VOLUME id="2">
                        <par value="0" name="vol"/>
                      </VOLUME>
                      <VOLUME id="3">
                        <par value="0" name="vol"/>
                      </VOLUME>
                      <VOLUME id="4">
                        <par value="0" name="vol"/>
                      </VOLUME>
                      <VOLUME id="5">
                        <par value="0" name="vol"/>
                      </VOLUME>
                      <VOLUME id="6">
                        <par value="0" name="vol"/>
                      </VOLUME>
                      <VOLUME id="7">
                        <par value="0" name="vol"/>
                      </VOLUME>
                      <VOLUME id="8">
                        <par value="0" name="vol"/>
                      </VOLUME>
                      <VOLUME id="9">
                        <par value="0" name="vol"/>
                      </VOLUME>
                      <VOLUME id="10">
                        <par value="0" name="vol"/>
                      </VOLUME>
                      <VOLUME id="11">
                        <par value="0" name="vol"/>
                      </VOLUME>
                      <VOLUME id="12">
                        <par value="0" name="vol"/>
                      </VOLUME>
                      <VOLUME id="13">
                        <par value="0" name="vol"/>
                      </VOLUME>
                      <VOLUME id="14">
                        <par value="0" name="vol"/>
                      </VOLUME>
                      <VOLUME id="15">
                        <par value="0" name="vol"/>
                      </VOLUME>
                      <SENDTO id="3">
                        <par value="0" name="send_vol"/>
                      </SENDTO>
                    </SYSTEM_EFFECT>
                    <SYSTEM_EFFECT id="3">
                      <EFFECT>
                        <par value="0" name="type"/>
                      </EFFECT>
                      <VOLUME id="0">
                        <par value="0" name="vol"/>
                      </VOLUME>
                      <VOLUME id="1">
                        <par value="0" name="vol"/>
                      </VOLUME>
                      <VOLUME id="2">
                        <par value="0" name="vol"/>
                      </VOLUME>
                      <VOLUME id="3">
                        <par value="0" name="vol"/>
                      </VOLUME>
                      <VOLUME id="4">
                        <par value="0" name="vol"/>
                      </VOLUME>
                      <VOLUME id="5">
                        <par value="0" name="vol"/>
                      </VOLUME>
                      <VOLUME id="6">
                        <par value="0" name="vol"/>
                      </VOLUME>
                      <VOLUME id="7">
                        <par value="0" name="vol"/>
                      </VOLUME>
                      <VOLUME id="8">
                        <par value="0" name="vol"/>
                      </VOLUME>
                      <VOLUME id="9">
                        <par value="0" name="vol"/>
                      </VOLUME>
                      <VOLUME id="10">
                        <par value="0" name="vol"/>
                      </VOLUME>
                      <VOLUME id="11">
                        <par value="0" name="vol"/>
                      </VOLUME>
                      <VOLUME id="12">
                        <par value="0" name="vol"/>
                      </VOLUME>
                      <VOLUME id="13">
                        <par value="0" name="vol"/>
                      </VOLUME>
                      <VOLUME id="14">
                        <par value="0" name="vol"/>
                      </VOLUME>
                      <VOLUME id="15">
                        <par value="0" name="vol"/>
                      </VOLUME>
                    </SYSTEM_EFFECT>
                  </SYSTEM_EFFECTS>
                  <INSERTION_EFFECTS>
                    <INSERTION_EFFECT id="0">
                      <par value="-1" name="part"/>
                      <EFFECT>
                        <par value="0" name="type"/>
                      </EFFECT>
                    </INSERTION_EFFECT>
                    <INSERTION_EFFECT id="1">
                      <par value="-1" name="part"/>
                      <EFFECT>
                        <par value="0" name="type"/>
                      </EFFECT>
                    </INSERTION_EFFECT>
                    <INSERTION_EFFECT id="2">
                      <par value="-1" name="part"/>
                      <EFFECT>
                        <par value="0" name="type"/>
                      </EFFECT>
                    </INSERTION_EFFECT>
                    <INSERTION_EFFECT id="3">
                      <par value="-1" name="part"/>
                      <EFFECT>
                        <par value="0" name="type"/>
                      </EFFECT>
                    </INSERTION_EFFECT>
                    <INSERTION_EFFECT id="4">
                      <par value="-1" name="part"/>
                      <EFFECT>
                        <par value="0" name="type"/>
                      </EFFECT>
                    </INSERTION_EFFECT>
                    <INSERTION_EFFECT id="5">
                      <par value="-1" name="part"/>
                      <EFFECT>
                        <par value="0" name="type"/>
                      </EFFECT>
                    </INSERTION_EFFECT>
                    <INSERTION_EFFECT id="6">
                      <par value="-1" name="part"/>
                      <EFFECT>
                        <par value="0" name="type"/>
                      </EFFECT>
                    </INSERTION_EFFECT>
                    <INSERTION_EFFECT id="7">
                      <par value="-1" name="part"/>
                      <EFFECT>
                        <par value="0" name="type"/>
                      </EFFECT>
                    </INSERTION_EFFECT>
                  </INSERTION_EFFECTS>
                </MASTER>
              </ZynAddSubFX-data>
            </zynaddsubfx>
          </instrument>
          <eldata fwet="0" ftype="0" fcut="14000" fres="0.5">
            <elvol lspd_denominator="4" lamt="0" amt="0" dec="0.5" hold="0.5" lshp="0" ctlenvamt="0" lspd="0.1" rel="0.1" pdel="0" lspd_syncmode="0" att="0" sustain="0.5" userwavefile="" latt="0" lspd_numerator="4" lpdel="0" x100="0"/>
            <elcut lspd_denominator="4" lamt="0" amt="0" dec="0.5" hold="0.5" lshp="0" ctlenvamt="0" lspd="0.1" rel="0.1" pdel="0" lspd_syncmode="0" att="0" sustain="0.5" userwavefile="" latt="0" lspd_numerator="4" lpdel="0" x100="0"/>
            <elres lspd_denominator="4" lamt="0" amt="0" dec="0.5" hold="0.5" lshp="0" ctlenvamt="0" lspd="0.1" rel="0.1" pdel="0" lspd_syncmode="0" att="0" sustain="0.5" userwavefile="" latt="0" lspd_numerator="4" lpdel="0" x100="0"/>
          </eldata>
          <chordcreator chordrange="1" chord-enabled="0" chord="0"/>
          <arpeggiator arptime_syncmode="0" arptime="200" arptime_denominator="4" arpdir="0" arp="0" arpmode="0" arpcycle="0" arpmiss="0" arptime_numerator="4" arprange="1" arp-enabled="0" arpskip="0" arpgate="100"/>
          <midiport inputcontroller="0" outports="" outputchannel="1" outputprogram="1" readable="0" outputcontroller="0" fixedoutputvelocity="-1" fixedoutputnote="-1" fixedinputvelocity="-1" writable="1" inputchannel="0" basevelocity="63"/>
          <fxchain enabled="0" numofeffects="0"/>
        </instrumenttrack>
        <pattern pos="3072" muted="0" steps="16" type="1" name="ZynAddSubFX">
          <note len="384" pos="0" pan="0" vol="142" key="73"/>
          <note len="384" pos="0" pan="0" vol="142" key="69"/>
          <note len="384" pos="0" pan="0" vol="142" key="66"/>
          <note len="384" pos="384" pan="0" vol="142" key="73"/>
          <note len="384" pos="384" pan="0" vol="142" key="68"/>
          <note len="384" pos="384" pan="0" vol="142" key="65"/>
          <note len="384" pos="768" pan="0" vol="142" key="71"/>
          <note len="384" pos="768" pan="0" vol="142" key="68"/>
          <note len="384" pos="768" pan="0" vol="142" key="64"/>
          <note len="384" pos="1152" pan="0" vol="142" key="71"/>
          <note len="384" pos="1152" pan="0" vol="142" key="66"/>
          <note len="384" pos="1152" pan="0" vol="142" key="63"/>
          <note len="384" pos="1536" pan="0" vol="142" key="69"/>
          <note len="384" pos="1536" pan="0" vol="142" key="66"/>
          <note len="384" pos="1536" pan="0" vol="142" key="62"/>
          <note len="384" pos="1920" pan="0" vol="142" key="69"/>
          <note len="384" pos="1920" pan="0" vol="142" key="64"/>
          <note len="384" pos="1920" pan="0" vol="142" key="61"/>
          <note len="384" pos="2304" pan="0" vol="142" key="72"/>
          <note len="384" pos="2304" pan="0" vol="142" key="68"/>
          <note len="384" pos="2304" pan="0" vol="142" key="60"/>
          <note len="192" pos="2688" pan="0" vol="142" key="73"/>
          <note len="192" pos="2688" pan="0" vol="142" key="68"/>
          <note len="192" pos="2688" pan="0" vol="142" key="65"/>
          <note len="12" pos="2880" pan="0" vol="193" key="61"/>
          <note len="12" pos="2880" pan="0" vol="193" key="56"/>
          <note len="12" pos="2892" pan="0" vol="193" key="62"/>
          <note len="12" pos="2892" pan="0" vol="193" key="59"/>
          <note len="12" pos="2904" pan="0" vol="193" key="65"/>
          <note len="12" pos="2904" pan="0" vol="193" key="61"/>
          <note len="12" pos="2916" pan="0" vol="193" key="66"/>
          <note len="12" pos="2916" pan="0" vol="193" key="62"/>
          <note len="12" pos="2928" pan="0" vol="193" key="65"/>
          <note len="12" pos="2928" pan="0" vol="193" key="61"/>
          <note len="12" pos="2940" pan="0" vol="193" key="66"/>
          <note len="12" pos="2940" pan="0" vol="193" key="62"/>
          <note len="12" pos="2952" pan="0" vol="193" key="68"/>
          <note len="12" pos="2952" pan="0" vol="193" key="65"/>
          <note len="12" pos="2964" pan="0" vol="193" key="69"/>
          <note len="12" pos="2964" pan="0" vol="193" key="66"/>
          <note len="12" pos="2976" pan="0" vol="193" key="68"/>
          <note len="12" pos="2976" pan="0" vol="193" key="65"/>
          <note len="12" pos="2988" pan="0" vol="193" key="69"/>
          <note len="12" pos="2988" pan="0" vol="193" key="66"/>
          <note len="12" pos="3000" pan="0" vol="193" key="71"/>
          <note len="12" pos="3000" pan="0" vol="193" key="68"/>
          <note len="12" pos="3012" pan="0" vol="193" key="73"/>
          <note len="12" pos="3012" pan="0" vol="193" key="69"/>
          <note len="12" pos="3024" pan="0" vol="193" key="71"/>
          <note len="12" pos="3024" pan="0" vol="193" key="68"/>
          <note len="12" pos="3036" pan="0" vol="193" key="73"/>
          <note len="12" pos="3036" pan="0" vol="193" key="69"/>
          <note len="12" pos="3048" pan="0" vol="193" key="74"/>
          <note len="12" pos="3048" pan="0" vol="193" key="71"/>
          <note len="12" pos="3060" pan="0" vol="193" key="77"/>
          <note len="12" pos="3060" pan="0" vol="193" key="73"/>
        </pattern>
        <pattern pos="6144" muted="0" steps="16" type="1" name="ZynAddSubFX">
          <note len="12" pos="0" pan="0" vol="193" key="66"/>
          <note len="12" pos="0" pan="0" vol="193" key="54"/>
          <note len="48" pos="0" pan="0" vol="193" key="1"/>
          <note len="12" pos="12" pan="0" vol="193" key="66"/>
          <note len="12" pos="12" pan="0" vol="193" key="54"/>
          <note len="12" pos="24" pan="0" vol="193" key="61"/>
          <note len="12" pos="24" pan="0" vol="193" key="49"/>
          <note len="12" pos="36" pan="0" vol="193" key="61"/>
          <note len="12" pos="36" pan="0" vol="193" key="49"/>
          <note len="12" pos="48" pan="0" vol="193" key="66"/>
          <note len="12" pos="48" pan="0" vol="193" key="54"/>
          <note len="12" pos="60" pan="0" vol="193" key="66"/>
          <note len="12" pos="60" pan="0" vol="193" key="54"/>
          <note len="12" pos="72" pan="0" vol="193" key="68"/>
          <note len="12" pos="72" pan="0" vol="193" key="56"/>
          <note len="12" pos="84" pan="0" vol="193" key="68"/>
          <note len="12" pos="84" pan="0" vol="193" key="56"/>
          <note len="12" pos="96" pan="0" vol="193" key="69"/>
          <note len="12" pos="96" pan="0" vol="193" key="57"/>
          <note len="12" pos="108" pan="0" vol="193" key="69"/>
          <note len="12" pos="108" pan="0" vol="193" key="57"/>
          <note len="12" pos="120" pan="0" vol="193" key="68"/>
          <note len="12" pos="120" pan="0" vol="193" key="56"/>
          <note len="12" pos="132" pan="0" vol="193" key="68"/>
          <note len="12" pos="132" pan="0" vol="193" key="56"/>
          <note len="12" pos="144" pan="0" vol="193" key="66"/>
          <note len="12" pos="144" pan="0" vol="193" key="54"/>
          <note len="12" pos="156" pan="0" vol="193" key="66"/>
          <note len="12" pos="156" pan="0" vol="193" key="54"/>
          <note len="24" pos="156" pan="0" vol="193" key="0"/>
          <note len="24" pos="168" pan="0" vol="193" key="69"/>
          <note len="24" pos="168" pan="0" vol="193" key="57"/>
          <note len="24" pos="180" pan="0" vol="193" key="1"/>
          <note len="12" pos="192" pan="0" vol="193" key="62"/>
          <note len="12" pos="192" pan="0" vol="193" key="50"/>
          <note len="12" pos="204" pan="0" vol="193" key="62"/>
          <note len="12" pos="204" pan="0" vol="193" key="50"/>
          <note len="24" pos="204" pan="0" vol="193" key="0"/>
          <note len="24" pos="216" pan="0" vol="193" key="68"/>
          <note len="24" pos="216" pan="0" vol="193" key="56"/>
          <note len="24" pos="228" pan="0" vol="193" key="1"/>
          <note len="12" pos="240" pan="0" vol="193" key="62"/>
          <note len="12" pos="240" pan="0" vol="193" key="50"/>
          <note len="12" pos="252" pan="0" vol="193" key="62"/>
          <note len="12" pos="252" pan="0" vol="193" key="50"/>
          <note len="12" pos="252" pan="0" vol="193" key="0"/>
          <note len="48" pos="264" pan="0" vol="193" key="69"/>
          <note len="48" pos="264" pan="0" vol="193" key="57"/>
          <note len="12" pos="300" pan="0" vol="193" key="1"/>
          <note len="12" pos="312" pan="0" vol="193" key="66"/>
          <note len="12" pos="312" pan="0" vol="193" key="54"/>
          <note len="12" pos="324" pan="0" vol="193" key="66"/>
          <note len="12" pos="324" pan="0" vol="193" key="54"/>
          <note len="12" pos="336" pan="0" vol="193" key="68"/>
          <note len="12" pos="336" pan="0" vol="193" key="56"/>
          <note len="12" pos="348" pan="0" vol="193" key="68"/>
          <note len="12" pos="348" pan="0" vol="193" key="56"/>
          <note len="12" pos="360" pan="0" vol="193" key="69"/>
          <note len="12" pos="360" pan="0" vol="193" key="57"/>
          <note len="12" pos="372" pan="0" vol="193" key="69"/>
        </pattern>
        <pattern pos="6528" muted="0" steps="16" type="1" name="ZynAddSubFX">
          <note len="12" pos="0" pan="0" vol="193" key="64"/>
          <note len="12" pos="0" pan="0" vol="193" key="52"/>
          <note len="48" pos="0" pan="0" vol="193" key="1"/>
          <note len="12" pos="12" pan="0" vol="193" key="64"/>
          <note len="12" pos="12" pan="0" vol="193" key="52"/>
          <note len="12" pos="24" pan="0" vol="193" key="59"/>
          <note len="12" pos="24" pan="0" vol="193" key="47"/>
          <note len="12" pos="36" pan="0" vol="193" key="59"/>
          <note len="12" pos="36" pan="0" vol="193" key="47"/>
          <note len="12" pos="48" pan="0" vol="193" key="64"/>
          <note len="12" pos="48" pan="0" vol="193" key="52"/>
          <note len="12" pos="60" pan="0" vol="193" key="64"/>
          <note len="12" pos="60" pan="0" vol="193" key="52"/>
          <note len="12" pos="72" pan="0" vol="193" key="66"/>
          <note len="12" pos="72" pan="0" vol="193" key="54"/>
          <note len="12" pos="84" pan="0" vol="193" key="66"/>
          <note len="12" pos="84" pan="0" vol="193" key="54"/>
          <note len="12" pos="96" pan="0" vol="193" key="68"/>
          <note len="12" pos="96" pan="0" vol="193" key="56"/>
          <note len="12" pos="108" pan="0" vol="193" key="68"/>
          <note len="12" pos="108" pan="0" vol="193" key="56"/>
          <note len="12" pos="120" pan="0" vol="193" key="66"/>
          <note len="12" pos="120" pan="0" vol="193" key="54"/>
          <note len="12" pos="132" pan="0" vol="193" key="66"/>
          <note len="12" pos="132" pan="0" vol="193" key="54"/>
          <note len="12" pos="144" pan="0" vol="193" key="64"/>
          <note len="12" pos="144" pan="0" vol="193" key="52"/>
          <note len="12" pos="156" pan="0" vol="193" key="64"/>
          <note len="12" pos="156" pan="0" vol="193" key="52"/>
          <note len="24" pos="156" pan="0" vol="193" key="0"/>
          <note len="48" pos="168" pan="0" vol="193" key="66"/>
          <note len="48" pos="168" pan="0" vol="193" key="54"/>
          <note len="24" pos="204" pan="0" vol="193" key="0"/>
          <note len="24" pos="216" pan="0" vol="193" key="68"/>
          <note len="24" pos="216" pan="0" vol="193" key="56"/>
          <note len="24" pos="228" pan="0" vol="193" key="1"/>
          <note len="24" pos="240" pan="0" vol="193" key="66"/>
          <note len="24" pos="240" pan="0" vol="193" key="54"/>
          <note len="12" pos="252" pan="0" vol="193" key="0"/>
          <note len="48" pos="264" pan="0" vol="193" key="65"/>
          <note len="48" pos="264" pan="0" vol="193" key="53"/>
          <note len="12" pos="300" pan="0" vol="193" key="1"/>
          <note len="12" pos="312" pan="0" vol="193" key="65"/>
          <note len="12" pos="312" pan="0" vol="193" key="53"/>
          <note len="12" pos="324" pan="0" vol="193" key="66"/>
          <note len="12" pos="324" pan="0" vol="193" key="54"/>
          <note len="12" pos="336" pan="0" vol="193" key="68"/>
          <note len="12" pos="336" pan="0" vol="193" key="56"/>
          <note len="12" pos="348" pan="0" vol="193" key="66"/>
          <note len="12" pos="348" pan="0" vol="193" key="54"/>
          <note len="12" pos="360" pan="0" vol="193" key="65"/>
          <note len="12" pos="360" pan="0" vol="193" key="53"/>
          <note len="12" pos="372" pan="0" vol="193" key="68"/>
          <note len="12" pos="372" pan="0" vol="193" key="56"/>
        </pattern>
        <pattern pos="6912" muted="0" steps="16" type="1" name="ZynAddSubFX">
          <note len="12" pos="0" pan="0" vol="193" key="66"/>
          <note len="12" pos="0" pan="0" vol="193" key="54"/>
          <note len="48" pos="0" pan="0" vol="193" key="1"/>
          <note len="12" pos="12" pan="0" vol="193" key="66"/>
          <note len="12" pos="12" pan="0" vol="193" key="54"/>
          <note len="12" pos="24" pan="0" vol="193" key="61"/>
          <note len="12" pos="24" pan="0" vol="193" key="49"/>
          <note len="12" pos="36" pan="0" vol="193" key="61"/>
          <note len="12" pos="36" pan="0" vol="193" key="49"/>
          <note len="12" pos="48" pan="0" vol="193" key="66"/>
          <note len="12" pos="48" pan="0" vol="193" key="54"/>
          <note len="12" pos="60" pan="0" vol="193" key="66"/>
          <note len="12" pos="60" pan="0" vol="193" key="54"/>
          <note len="12" pos="72" pan="0" vol="193" key="68"/>
          <note len="12" pos="72" pan="0" vol="193" key="56"/>
          <note len="12" pos="84" pan="0" vol="193" key="68"/>
          <note len="12" pos="84" pan="0" vol="193" key="56"/>
          <note len="12" pos="96" pan="0" vol="193" key="69"/>
          <note len="12" pos="96" pan="0" vol="193" key="57"/>
          <note len="12" pos="108" pan="0" vol="193" key="69"/>
          <note len="12" pos="108" pan="0" vol="193" key="57"/>
          <note len="12" pos="120" pan="0" vol="193" key="68"/>
          <note len="12" pos="120" pan="0" vol="193" key="56"/>
          <note len="12" pos="132" pan="0" vol="193" key="68"/>
          <note len="12" pos="132" pan="0" vol="193" key="56"/>
          <note len="12" pos="144" pan="0" vol="193" key="66"/>
          <note len="12" pos="144" pan="0" vol="193" key="54"/>
          <note len="12" pos="156" pan="0" vol="193" key="66"/>
          <note len="12" pos="156" pan="0" vol="193" key="54"/>
          <note len="24" pos="156" pan="0" vol="193" key="0"/>
          <note len="24" pos="168" pan="0" vol="193" key="69"/>
          <note len="24" pos="168" pan="0" vol="193" key="66"/>
          <note len="24" pos="180" pan="0" vol="193" key="1"/>
          <note len="12" pos="192" pan="0" vol="193" key="66"/>
          <note len="12" pos="192" pan="0" vol="193" key="62"/>
          <note len="12" pos="204" pan="0" vol="193" key="66"/>
          <note len="12" pos="204" pan="0" vol="193" key="62"/>
          <note len="24" pos="204" pan="0" vol="193" key="0"/>
          <note len="24" pos="216" pan="0" vol="193" key="71"/>
          <note len="24" pos="216" pan="0" vol="193" key="68"/>
          <note len="24" pos="228" pan="0" vol="193" key="1"/>
          <note len="12" pos="240" pan="0" vol="193" key="66"/>
          <note len="12" pos="240" pan="0" vol="193" key="62"/>
          <note len="12" pos="252" pan="0" vol="193" key="66"/>
          <note len="12" pos="252" pan="0" vol="193" key="62"/>
          <note len="12" pos="252" pan="0" vol="193" key="0"/>
          <note len="48" pos="264" pan="0" vol="193" key="73"/>
          <note len="48" pos="264" pan="0" vol="193" key="69"/>
          <note len="12" pos="300" pan="0" vol="193" key="1"/>
          <note len="12" pos="312" pan="0" vol="193" key="69"/>
          <note len="12" pos="312" pan="0" vol="193" key="66"/>
          <note len="12" pos="324" pan="0" vol="193" key="69"/>
          <note len="12" pos="324" pan="0" vol="193" key="66"/>
          <note len="12" pos="336" pan="0" vol="193" key="71"/>
          <note len="12" pos="336" pan="0" vol="193" key="68"/>
          <note len="12" pos="348" pan="0" vol="193" key="71"/>
          <note len="12" pos="348" pan="0" vol="193" key="68"/>
          <note len="12" pos="360" pan="0" vol="193" key="73"/>
          <note len="12" pos="360" pan="0" vol="193" key="69"/>
          <note len="12" pos="372" pan="0" vol="193" key="73"/>
          <note len="12" pos="372" pan="0" vol="193" key="69"/>
        </pattern>
        <pattern pos="9216" muted="0" steps="16" type="1" name="ZynAddSubFX">
          <note len="384" pos="0" pan="0" vol="193" key="69"/>
          <note len="384" pos="0" pan="0" vol="193" key="66"/>
          <note len="384" pos="384" pan="0" vol="193" key="66"/>
          <note len="384" pos="384" pan="0" vol="193" key="62"/>
        </pattern>
        <pattern pos="7296" muted="0" steps="16" type="1" name="ZynAddSubFX">
          <note len="12" pos="0" pan="0" vol="193" key="69"/>
          <note len="12" pos="0" pan="0" vol="193" key="64"/>
          <note len="48" pos="0" pan="0" vol="193" key="1"/>
          <note len="12" pos="12" pan="0" vol="193" key="69"/>
          <note len="12" pos="12" pan="0" vol="193" key="64"/>
          <note len="12" pos="24" pan="0" vol="193" key="64"/>
          <note len="12" pos="24" pan="0" vol="193" key="61"/>
          <note len="12" pos="36" pan="0" vol="193" key="64"/>
          <note len="12" pos="36" pan="0" vol="193" key="61"/>
          <note len="12" pos="48" pan="0" vol="193" key="69"/>
          <note len="12" pos="48" pan="0" vol="193" key="64"/>
          <note len="12" pos="60" pan="0" vol="193" key="69"/>
          <note len="12" pos="60" pan="0" vol="193" key="64"/>
          <note len="12" pos="72" pan="0" vol="193" key="71"/>
          <note len="12" pos="72" pan="0" vol="193" key="68"/>
          <note len="12" pos="84" pan="0" vol="193" key="71"/>
          <note len="12" pos="84" pan="0" vol="193" key="68"/>
          <note len="12" pos="96" pan="0" vol="193" key="73"/>
          <note len="12" pos="96" pan="0" vol="193" key="69"/>
          <note len="12" pos="108" pan="0" vol="193" key="73"/>
          <note len="12" pos="108" pan="0" vol="193" key="69"/>
          <note len="12" pos="120" pan="0" vol="193" key="71"/>
          <note len="12" pos="120" pan="0" vol="193" key="68"/>
          <note len="12" pos="132" pan="0" vol="193" key="71"/>
          <note len="12" pos="132" pan="0" vol="193" key="68"/>
          <note len="12" pos="144" pan="0" vol="193" key="73"/>
          <note len="12" pos="144" pan="0" vol="193" key="69"/>
          <note len="12" pos="156" pan="0" vol="193" key="73"/>
          <note len="12" pos="156" pan="0" vol="193" key="69"/>
          <note len="24" pos="156" pan="0" vol="193" key="0"/>
          <note len="48" pos="168" pan="0" vol="193" key="77"/>
          <note len="48" pos="168" pan="0" vol="193" key="73"/>
          <note len="24" pos="204" pan="0" vol="193" key="0"/>
          <note len="24" pos="216" pan="0" vol="193" key="73"/>
          <note len="24" pos="216" pan="0" vol="193" key="69"/>
          <note len="24" pos="228" pan="0" vol="193" key="1"/>
          <note len="24" pos="240" pan="0" vol="193" key="71"/>
          <note len="24" pos="240" pan="0" vol="193" key="68"/>
          <note len="12" pos="252" pan="0" vol="193" key="0"/>
          <note len="48" pos="264" pan="0" vol="193" key="73"/>
          <note len="48" pos="264" pan="0" vol="193" key="69"/>
          <note len="12" pos="300" pan="0" vol="193" key="1"/>
          <note len="12" pos="312" pan="0" vol="193" key="71"/>
          <note len="12" pos="312" pan="0" vol="193" key="68"/>
          <note len="12" pos="324" pan="0" vol="193" key="73"/>
          <note len="12" pos="324" pan="0" vol="193" key="69"/>
          <note len="12" pos="336" pan="0" vol="193" key="74"/>
          <note len="12" pos="336" pan="0" vol="193" key="71"/>
          <note len="12" pos="348" pan="0" vol="193" key="73"/>
          <note len="12" pos="348" pan="0" vol="193" key="69"/>
          <note len="12" pos="360" pan="0" vol="193" key="71"/>
          <note len="12" pos="360" pan="0" vol="193" key="68"/>
          <note len="12" pos="372" pan="0" vol="193" key="73"/>
          <note len="12" pos="372" pan="0" vol="193" key="69"/>
        </pattern>
        <pattern pos="9984" muted="0" steps="16" type="1" name="ZynAddSubFX">
          <note len="384" pos="0" pan="0" vol="193" key="69"/>
          <note len="384" pos="0" pan="0" vol="193" key="66"/>
          <note len="192" pos="384" pan="0" vol="193" key="73"/>
          <note len="192" pos="384" pan="0" vol="193" key="69"/>
          <note len="192" pos="576" pan="0" vol="193" key="73"/>
          <note len="192" pos="576" pan="0" vol="193" key="65"/>
        </pattern>
        <pattern pos="7680" muted="0" steps="16" type="1" name="ZynAddSubFX">
          <note len="12" pos="0" pan="0" vol="193" key="69"/>
          <note len="12" pos="0" pan="0" vol="193" key="66"/>
          <note len="48" pos="0" pan="0" vol="193" key="1"/>
          <note len="12" pos="12" pan="0" vol="193" key="69"/>
          <note len="12" pos="12" pan="0" vol="193" key="66"/>
          <note len="12" pos="24" pan="0" vol="193" key="66"/>
          <note len="12" pos="24" pan="0" vol="193" key="61"/>
          <note len="12" pos="36" pan="0" vol="193" key="66"/>
          <note len="12" pos="36" pan="0" vol="193" key="61"/>
          <note len="12" pos="48" pan="0" vol="193" key="69"/>
          <note len="12" pos="48" pan="0" vol="193" key="66"/>
          <note len="12" pos="60" pan="0" vol="193" key="69"/>
          <note len="12" pos="60" pan="0" vol="193" key="66"/>
          <note len="12" pos="72" pan="0" vol="193" key="71"/>
          <note len="12" pos="72" pan="0" vol="193" key="68"/>
          <note len="12" pos="84" pan="0" vol="193" key="71"/>
          <note len="12" pos="84" pan="0" vol="193" key="68"/>
          <note len="12" pos="96" pan="0" vol="193" key="73"/>
          <note len="12" pos="96" pan="0" vol="193" key="69"/>
          <note len="12" pos="108" pan="0" vol="193" key="73"/>
          <note len="12" pos="108" pan="0" vol="193" key="69"/>
          <note len="12" pos="120" pan="0" vol="193" key="71"/>
          <note len="12" pos="120" pan="0" vol="193" key="68"/>
          <note len="12" pos="132" pan="0" vol="193" key="71"/>
          <note len="12" pos="132" pan="0" vol="193" key="68"/>
          <note len="12" pos="144" pan="0" vol="193" key="69"/>
          <note len="12" pos="144" pan="0" vol="193" key="66"/>
          <note len="12" pos="156" pan="0" vol="193" key="69"/>
          <note len="12" pos="156" pan="0" vol="193" key="66"/>
          <note len="24" pos="156" pan="0" vol="193" key="0"/>
          <note len="24" pos="168" pan="0" vol="193" key="73"/>
          <note len="24" pos="168" pan="0" vol="193" key="69"/>
          <note len="24" pos="180" pan="0" vol="193" key="1"/>
          <note len="12" pos="192" pan="0" vol="193" key="66"/>
          <note len="12" pos="192" pan="0" vol="193" key="62"/>
          <note len="12" pos="204" pan="0" vol="193" key="66"/>
          <note len="12" pos="204" pan="0" vol="193" key="62"/>
          <note len="24" pos="204" pan="0" vol="193" key="0"/>
          <note len="24" pos="216" pan="0" vol="193" key="71"/>
          <note len="24" pos="216" pan="0" vol="193" key="68"/>
          <note len="24" pos="228" pan="0" vol="193" key="1"/>
          <note len="12" pos="240" pan="0" vol="193" key="66"/>
          <note len="12" pos="240" pan="0" vol="193" key="62"/>
          <note len="12" pos="252" pan="0" vol="193" key="66"/>
          <note len="12" pos="252" pan="0" vol="193" key="62"/>
          <note len="12" pos="252" pan="0" vol="193" key="0"/>
          <note len="48" pos="264" pan="0" vol="193" key="73"/>
          <note len="48" pos="264" pan="0" vol="193" key="69"/>
          <note len="12" pos="300" pan="0" vol="193" key="1"/>
          <note len="12" pos="312" pan="0" vol="193" key="69"/>
          <note len="12" pos="312" pan="0" vol="193" key="66"/>
          <note len="12" pos="324" pan="0" vol="193" key="69"/>
          <note len="12" pos="324" pan="0" vol="193" key="66"/>
          <note len="12" pos="336" pan="0" vol="193" key="71"/>
          <note len="12" pos="336" pan="0" vol="193" key="68"/>
          <note len="12" pos="348" pan="0" vol="193" key="71"/>
          <note len="12" pos="348" pan="0" vol="193" key="68"/>
          <note len="12" pos="360" pan="0" vol="193" key="73"/>
          <note len="12" pos="360" pan="0" vol="193" key="69"/>
          <note len="12" pos="372" pan="0" vol="193" key="73"/>
          <note len="12" pos="372" pan="0" vol="193" key="69"/>
        </pattern>
        <pattern pos="8064" muted="0" steps="16" type="1" name="ZynAddSubFX">
          <note len="12" pos="0" pan="0" vol="193" key="69"/>
          <note len="12" pos="0" pan="0" vol="193" key="64"/>
          <note len="48" pos="0" pan="0" vol="193" key="1"/>
          <note len="12" pos="12" pan="0" vol="193" key="69"/>
          <note len="12" pos="12" pan="0" vol="193" key="64"/>
          <note len="12" pos="24" pan="0" vol="193" key="64"/>
          <note len="12" pos="24" pan="0" vol="193" key="61"/>
          <note len="12" pos="36" pan="0" vol="193" key="64"/>
          <note len="12" pos="36" pan="0" vol="193" key="61"/>
          <note len="12" pos="48" pan="0" vol="193" key="69"/>
          <note len="12" pos="48" pan="0" vol="193" key="64"/>
          <note len="12" pos="60" pan="0" vol="193" key="69"/>
          <note len="12" pos="60" pan="0" vol="193" key="64"/>
          <note len="12" pos="72" pan="0" vol="193" key="71"/>
          <note len="12" pos="72" pan="0" vol="193" key="68"/>
          <note len="12" pos="84" pan="0" vol="193" key="71"/>
          <note len="12" pos="84" pan="0" vol="193" key="68"/>
          <note len="12" pos="96" pan="0" vol="193" key="73"/>
          <note len="12" pos="96" pan="0" vol="193" key="69"/>
          <note len="12" pos="108" pan="0" vol="193" key="73"/>
          <note len="12" pos="108" pan="0" vol="193" key="69"/>
          <note len="12" pos="120" pan="0" vol="193" key="71"/>
          <note len="12" pos="120" pan="0" vol="193" key="68"/>
          <note len="12" pos="132" pan="0" vol="193" key="71"/>
          <note len="12" pos="132" pan="0" vol="193" key="68"/>
          <note len="12" pos="144" pan="0" vol="193" key="69"/>
          <note len="12" pos="144" pan="0" vol="193" key="64"/>
          <note len="12" pos="156" pan="0" vol="193" key="69"/>
          <note len="12" pos="156" pan="0" vol="193" key="64"/>
          <note len="24" pos="156" pan="0" vol="193" key="0"/>
          <note len="48" pos="168" pan="0" vol="193" key="73"/>
          <note len="48" pos="168" pan="0" vol="193" key="68"/>
          <note len="12" pos="216" pan="0" vol="193" key="71"/>
          <note len="12" pos="216" pan="0" vol="193" key="68"/>
          <note len="12" pos="216" pan="0" vol="193" key="1"/>
          <note len="12" pos="228" pan="0" vol="193" key="73"/>
          <note len="12" pos="228" pan="0" vol="193" key="69"/>
          <note len="12" pos="240" pan="0" vol="193" key="74"/>
          <note len="12" pos="240" pan="0" vol="193" key="71"/>
          <note len="12" pos="240" pan="0" vol="193" key="0"/>
          <note len="12" pos="252" pan="0" vol="193" key="73"/>
          <note len="12" pos="252" pan="0" vol="193" key="69"/>
          <note len="12" pos="264" pan="0" vol="193" key="71"/>
          <note len="12" pos="264" pan="0" vol="193" key="68"/>
          <note len="12" pos="264" pan="0" vol="193" key="1"/>
          <note len="12" pos="276" pan="0" vol="193" key="69"/>
          <note len="12" pos="276" pan="0" vol="193" key="66"/>
          <note len="12" pos="288" pan="0" vol="193" key="73"/>
          <note len="12" pos="288" pan="0" vol="193" key="69"/>
          <note len="12" pos="288" pan="0" vol="193" key="0"/>
          <note len="12" pos="300" pan="0" vol="193" key="71"/>
          <note len="12" pos="300" pan="0" vol="193" key="68"/>
          <note len="12" pos="312" pan="0" vol="193" key="69"/>
          <note len="12" pos="312" pan="0" vol="193" key="66"/>
          <note len="12" pos="312" pan="0" vol="193" key="1"/>
          <note len="12" pos="324" pan="0" vol="193" key="68"/>
          <note len="12" pos="324" pan="0" vol="193" key="65"/>
          <note len="12" pos="336" pan="0" vol="193" key="71"/>
          <note len="12" pos="336" pan="0" vol="193" key="68"/>
          <note len="12" pos="336" pan="0" vol="193" key="0"/>
          <note len="12" pos="348" pan="0" vol="193" key="69"/>
          <note len="12" pos="348" pan="0" vol="193" key="66"/>
          <note len="12" pos="360" pan="0" vol="193" key="68"/>
          <note len="12" pos="360" pan="0" vol="193" key="65"/>
          <note len="12" pos="360" pan="0" vol="193" key="1"/>
          <note len="12" pos="372" pan="0" vol="193" key="66"/>
          <note len="12" pos="372" pan="0" vol="193" key="62"/>
        </pattern>
        <pattern pos="8448" muted="0" steps="16" type="1" name="ZynAddSubFX">
          <note len="384" pos="0" pan="0" vol="193" key="74"/>
          <note len="384" pos="0" pan="0" vol="193" key="69"/>
          <note len="384" pos="0" pan="0" vol="193" key="66"/>
          <note len="192" pos="384" pan="0" vol="193" key="76"/>
          <note len="192" pos="384" pan="0" vol="193" key="71"/>
          <note len="192" pos="384" pan="0" vol="193" key="68"/>
          <note len="24" pos="576" pan="0" vol="193" key="80"/>
          <note len="24" pos="576" pan="0" vol="193" key="77"/>
          <note len="24" pos="576" pan="0" vol="193" key="71"/>
          <note len="24" pos="600" pan="0" vol="193" key="77"/>
          <note len="24" pos="600" pan="0" vol="193" key="73"/>
          <note len="24" pos="600" pan="0" vol="193" key="68"/>
          <note len="24" pos="624" pan="0" vol="193" key="80"/>
          <note len="24" pos="624" pan="0" vol="193" key="77"/>
          <note len="24" pos="624" pan="0" vol="193" key="71"/>
          <note len="24" pos="648" pan="0" vol="193" key="81"/>
          <note len="24" pos="648" pan="0" vol="193" key="78"/>
          <note len="24" pos="648" pan="0" vol="193" key="73"/>
          <note len="24" pos="672" pan="0" vol="193" key="83"/>
          <note len="24" pos="672" pan="0" vol="193" key="80"/>
          <note len="24" pos="672" pan="0" vol="193" key="77"/>
          <note len="24" pos="696" pan="0" vol="193" key="81"/>
          <note len="24" pos="696" pan="0" vol="193" key="78"/>
          <note len="24" pos="696" pan="0" vol="193" key="73"/>
          <note len="24" pos="720" pan="0" vol="193" key="80"/>
          <note len="24" pos="720" pan="0" vol="193" key="77"/>
          <note len="24" pos="720" pan="0" vol="193" key="71"/>
          <note len="24" pos="744" pan="0" vol="193" key="77"/>
          <note len="24" pos="744" pan="0" vol="193" key="73"/>
          <note len="24" pos="744" pan="0" vol="193" key="68"/>
        </pattern>
        <pattern pos="0" muted="0" steps="16" type="1" name="ZynAddSubFX">
          <note len="384" pos="0" pan="0" vol="142" key="73"/>
          <note len="384" pos="0" pan="0" vol="142" key="69"/>
          <note len="384" pos="0" pan="0" vol="142" key="66"/>
          <note len="384" pos="384" pan="0" vol="142" key="73"/>
          <note len="384" pos="384" pan="0" vol="142" key="68"/>
          <note len="384" pos="384" pan="0" vol="142" key="65"/>
          <note len="384" pos="768" pan="0" vol="142" key="71"/>
          <note len="384" pos="768" pan="0" vol="142" key="68"/>
          <note len="384" pos="768" pan="0" vol="142" key="64"/>
          <note len="384" pos="1152" pan="0" vol="142" key="71"/>
          <note len="384" pos="1152" pan="0" vol="142" key="66"/>
          <note len="384" pos="1152" pan="0" vol="142" key="63"/>
          <note len="384" pos="1536" pan="0" vol="142" key="69"/>
          <note len="384" pos="1536" pan="0" vol="142" key="66"/>
          <note len="384" pos="1536" pan="0" vol="142" key="62"/>
          <note len="384" pos="1920" pan="0" vol="142" key="69"/>
          <note len="384" pos="1920" pan="0" vol="142" key="64"/>
          <note len="384" pos="1920" pan="0" vol="142" key="61"/>
          <note len="384" pos="2304" pan="0" vol="142" key="72"/>
          <note len="384" pos="2304" pan="0" vol="142" key="68"/>
          <note len="384" pos="2304" pan="0" vol="142" key="60"/>
          <note len="384" pos="2688" pan="0" vol="142" key="73"/>
          <note len="384" pos="2688" pan="0" vol="142" key="68"/>
          <note len="384" pos="2688" pan="0" vol="142" key="65"/>
        </pattern>
        <pattern pos="10752" muted="0" steps="16" type="1" name="ZynAddSubFX">
          <note len="24" pos="0" pan="0" vol="193" key="69"/>
          <note len="24" pos="0" pan="0" vol="193" key="66"/>
          <note len="24" pos="24" pan="0" vol="193" key="66"/>
          <note len="24" pos="24" pan="0" vol="193" key="61"/>
          <note len="24" pos="48" pan="0" vol="193" key="73"/>
          <note len="24" pos="48" pan="0" vol="193" key="69"/>
          <note len="24" pos="72" pan="0" vol="193" key="66"/>
          <note len="24" pos="72" pan="0" vol="193" key="61"/>
          <note len="24" pos="96" pan="0" vol="193" key="69"/>
          <note len="24" pos="96" pan="0" vol="193" key="66"/>
          <note len="24" pos="120" pan="0" vol="193" key="66"/>
          <note len="24" pos="120" pan="0" vol="193" key="61"/>
          <note len="24" pos="144" pan="0" vol="193" key="61"/>
          <note len="24" pos="144" pan="0" vol="193" key="57"/>
          <note len="24" pos="168" pan="0" vol="193" key="66"/>
          <note len="24" pos="168" pan="0" vol="193" key="61"/>
          <note len="24" pos="192" pan="0" vol="193" key="69"/>
          <note len="24" pos="192" pan="0" vol="193" key="66"/>
          <note len="24" pos="216" pan="0" vol="193" key="66"/>
          <note len="24" pos="216" pan="0" vol="193" key="61"/>
          <note len="24" pos="240" pan="0" vol="193" key="73"/>
          <note len="24" pos="240" pan="0" vol="193" key="69"/>
          <note len="24" pos="264" pan="0" vol="193" key="66"/>
          <note len="24" pos="264" pan="0" vol="193" key="61"/>
          <note len="24" pos="288" pan="0" vol="193" key="69"/>
          <note len="24" pos="288" pan="0" vol="193" key="66"/>
          <note len="24" pos="312" pan="0" vol="193" key="66"/>
          <note len="24" pos="312" pan="0" vol="193" key="61"/>
          <note len="24" pos="336" pan="0" vol="193" key="61"/>
          <note len="24" pos="336" pan="0" vol="193" key="57"/>
          <note len="24" pos="360" pan="0" vol="193" key="66"/>
          <note len="24" pos="360" pan="0" vol="193" key="61"/>
          <note len="24" pos="384" pan="0" vol="193" key="74"/>
          <note len="24" pos="384" pan="0" vol="193" key="71"/>
          <note len="24" pos="408" pan="0" vol="193" key="71"/>
          <note len="24" pos="408" pan="0" vol="193" key="66"/>
          <note len="24" pos="432" pan="0" vol="193" key="78"/>
          <note len="24" pos="432" pan="0" vol="193" key="74"/>
          <note len="24" pos="456" pan="0" vol="193" key="71"/>
          <note len="24" pos="456" pan="0" vol="193" key="66"/>
          <note len="24" pos="480" pan="0" vol="193" key="74"/>
          <note len="24" pos="480" pan="0" vol="193" key="71"/>
          <note len="24" pos="504" pan="0" vol="193" key="71"/>
          <note len="24" pos="504" pan="0" vol="193" key="66"/>
          <note len="24" pos="528" pan="0" vol="193" key="66"/>
          <note len="24" pos="528" pan="0" vol="193" key="62"/>
          <note len="24" pos="552" pan="0" vol="193" key="71"/>
          <note len="24" pos="552" pan="0" vol="193" key="66"/>
          <note len="24" pos="576" pan="0" vol="193" key="74"/>
          <note len="24" pos="576" pan="0" vol="193" key="71"/>
          <note len="24" pos="600" pan="0" vol="193" key="71"/>
          <note len="24" pos="600" pan="0" vol="193" key="66"/>
          <note len="24" pos="624" pan="0" vol="193" key="78"/>
          <note len="24" pos="624" pan="0" vol="193" key="74"/>
          <note len="24" pos="648" pan="0" vol="193" key="71"/>
          <note len="24" pos="648" pan="0" vol="193" key="66"/>
          <note len="24" pos="672" pan="0" vol="193" key="74"/>
          <note len="24" pos="672" pan="0" vol="193" key="71"/>
          <note len="24" pos="696" pan="0" vol="193" key="71"/>
          <note len="24" pos="696" pan="0" vol="193" key="66"/>
          <note len="24" pos="720" pan="0" vol="193" key="66"/>
          <note len="24" pos="720" pan="0" vol="193" key="62"/>
          <note len="24" pos="744" pan="0" vol="193" key="71"/>
          <note len="24" pos="744" pan="0" vol="193" key="66"/>
        </pattern>
        <pattern pos="11520" muted="0" steps="16" type="1" name="ZynAddSubFX">
          <note len="24" pos="0" pan="0" vol="193" key="73"/>
          <note len="24" pos="0" pan="0" vol="193" key="69"/>
          <note len="24" pos="24" pan="0" vol="193" key="69"/>
          <note len="24" pos="24" pan="0" vol="193" key="64"/>
          <note len="24" pos="48" pan="0" vol="193" key="69"/>
          <note len="24" pos="48" pan="0" vol="193" key="64"/>
          <note len="24" pos="72" pan="0" vol="193" key="73"/>
          <note len="24" pos="72" pan="0" vol="193" key="69"/>
          <note len="24" pos="96" pan="0" vol="193" key="76"/>
          <note len="24" pos="96" pan="0" vol="193" key="73"/>
          <note len="24" pos="120" pan="0" vol="193" key="73"/>
          <note len="24" pos="120" pan="0" vol="193" key="69"/>
          <note len="24" pos="144" pan="0" vol="193" key="69"/>
          <note len="24" pos="144" pan="0" vol="193" key="64"/>
          <note len="24" pos="168" pan="0" vol="193" key="73"/>
          <note len="24" pos="168" pan="0" vol="193" key="69"/>
        </pattern>
        <pattern pos="11712" muted="0" steps="16" type="1" name="ZynAddSubFX">
          <note len="24" pos="0" pan="0" vol="193" key="73"/>
          <note len="24" pos="0" pan="0" vol="193" key="68"/>
          <note len="24" pos="24" pan="0" vol="193" key="68"/>
          <note len="24" pos="24" pan="0" vol="193" key="65"/>
          <note len="24" pos="48" pan="0" vol="193" key="68"/>
          <note len="24" pos="48" pan="0" vol="193" key="65"/>
          <note len="24" pos="72" pan="0" vol="193" key="73"/>
          <note len="24" pos="72" pan="0" vol="193" key="68"/>
          <note len="24" pos="96" pan="0" vol="193" key="77"/>
          <note len="24" pos="96" pan="0" vol="193" key="73"/>
          <note len="24" pos="120" pan="0" vol="193" key="73"/>
          <note len="24" pos="120" pan="0" vol="193" key="68"/>
          <note len="24" pos="144" pan="0" vol="193" key="77"/>
          <note len="24" pos="144" pan="0" vol="193" key="68"/>
          <note len="24" pos="168" pan="0" vol="193" key="73"/>
          <note len="24" pos="168" pan="0" vol="193" key="68"/>
        </pattern>
        <pattern pos="11904" muted="0" steps="16" type="1" name="ZynAddSubFX">
          <note len="24" pos="0" pan="0" vol="193" key="81"/>
          <note len="24" pos="0" pan="0" vol="193" key="78"/>
          <note len="24" pos="0" pan="0" vol="193" key="73"/>
          <note len="24" pos="24" pan="0" vol="193" key="78"/>
          <note len="24" pos="24" pan="0" vol="193" key="73"/>
          <note len="24" pos="24" pan="0" vol="193" key="69"/>
          <note len="24" pos="48" pan="0" vol="193" key="78"/>
          <note len="24" pos="48" pan="0" vol="193" key="73"/>
          <note len="24" pos="48" pan="0" vol="193" key="69"/>
          <note len="24" pos="72" pan="0" vol="193" key="85"/>
          <note len="24" pos="72" pan="0" vol="193" key="81"/>
          <note len="24" pos="72" pan="0" vol="193" key="78"/>
          <note len="24" pos="96" pan="0" vol="193" key="81"/>
          <note len="24" pos="96" pan="0" vol="193" key="78"/>
          <note len="24" pos="96" pan="0" vol="193" key="73"/>
          <note len="24" pos="120" pan="0" vol="193" key="78"/>
          <note len="24" pos="120" pan="0" vol="193" key="73"/>
          <note len="24" pos="120" pan="0" vol="193" key="69"/>
          <note len="24" pos="144" pan="0" vol="193" key="81"/>
          <note len="24" pos="144" pan="0" vol="193" key="78"/>
          <note len="24" pos="144" pan="0" vol="193" key="73"/>
          <note len="24" pos="168" pan="0" vol="193" key="78"/>
          <note len="24" pos="168" pan="0" vol="193" key="73"/>
          <note len="24" pos="168" pan="0" vol="193" key="69"/>
        </pattern>
        <pattern pos="12096" muted="0" steps="16" type="1" name="ZynAddSubFX">
          <note len="24" pos="0" pan="0" vol="193" key="81"/>
          <note len="24" pos="0" pan="0" vol="193" key="78"/>
          <note len="24" pos="0" pan="0" vol="193" key="73"/>
          <note len="24" pos="24" pan="0" vol="193" key="78"/>
          <note len="24" pos="24" pan="0" vol="193" key="73"/>
          <note len="24" pos="24" pan="0" vol="193" key="69"/>
          <note len="24" pos="48" pan="0" vol="193" key="78"/>
          <note len="24" pos="48" pan="0" vol="193" key="73"/>
          <note len="24" pos="48" pan="0" vol="193" key="69"/>
          <note len="24" pos="72" pan="0" vol="193" key="85"/>
          <note len="24" pos="72" pan="0" vol="193" key="81"/>
          <note len="24" pos="72" pan="0" vol="193" key="78"/>
          <note len="24" pos="96" pan="0" vol="193" key="81"/>
          <note len="24" pos="96" pan="0" vol="193" key="78"/>
          <note len="24" pos="96" pan="0" vol="193" key="73"/>
          <note len="24" pos="120" pan="0" vol="193" key="78"/>
          <note len="24" pos="120" pan="0" vol="193" key="73"/>
          <note len="24" pos="120" pan="0" vol="193" key="69"/>
          <note len="24" pos="144" pan="0" vol="193" key="81"/>
          <note len="24" pos="144" pan="0" vol="193" key="78"/>
          <note len="24" pos="144" pan="0" vol="193" key="73"/>
          <note len="24" pos="168" pan="0" vol="193" key="78"/>
          <note len="24" pos="168" pan="0" vol="193" key="73"/>
          <note len="24" pos="168" pan="0" vol="193" key="69"/>
        </pattern>
        <pattern pos="12288" muted="0" steps="16" type="1" name="ZynAddSubFX">
          <note len="384" pos="0" pan="0" vol="193" key="69"/>
          <note len="384" pos="0" pan="0" vol="193" key="66"/>
          <note len="384" pos="0" pan="0" vol="193" key="61"/>
          <note len="384" pos="384" pan="0" vol="193" key="68"/>
          <note len="384" pos="384" pan="0" vol="193" key="64"/>
          <note len="384" pos="384" pan="0" vol="193" key="61"/>
        </pattern>
        <pattern pos="13056" muted="0" steps="16" type="1" name="ZynAddSubFX">
          <note len="384" pos="0" pan="0" vol="193" key="69"/>
          <note len="384" pos="0" pan="0" vol="193" key="66"/>
          <note len="384" pos="0" pan="0" vol="193" key="61"/>
          <note len="384" pos="384" pan="0" vol="193" key="68"/>
          <note len="384" pos="384" pan="0" vol="193" key="64"/>
          <note len="384" pos="384" pan="0" vol="193" key="61"/>
        </pattern>
        <pattern pos="13824" muted="0" steps="16" type="1" name="ZynAddSubFX">
          <note len="384" pos="0" pan="0" vol="193" key="69"/>
          <note len="384" pos="0" pan="0" vol="193" key="66"/>
          <note len="384" pos="384" pan="0" vol="193" key="66"/>
          <note len="384" pos="384" pan="0" vol="193" key="62"/>
        </pattern>
        <pattern pos="14592" muted="0" steps="16" type="1" name="ZynAddSubFX">
          <note len="384" pos="0" pan="0" vol="193" key="69"/>
          <note len="384" pos="0" pan="0" vol="193" key="66"/>
          <note len="192" pos="384" pan="0" vol="193" key="73"/>
          <note len="192" pos="384" pan="0" vol="193" key="69"/>
          <note len="192" pos="576" pan="0" vol="193" key="73"/>
          <note len="192" pos="576" pan="0" vol="193" key="65"/>
        </pattern>
        <pattern pos="15360" muted="0" steps="16" type="1" name="ZynAddSubFX">
          <note len="24" pos="0" pan="0" vol="193" key="69"/>
          <note len="24" pos="0" pan="0" vol="193" key="66"/>
          <note len="24" pos="24" pan="0" vol="193" key="66"/>
          <note len="24" pos="24" pan="0" vol="193" key="61"/>
          <note len="24" pos="48" pan="0" vol="193" key="73"/>
          <note len="24" pos="48" pan="0" vol="193" key="69"/>
          <note len="24" pos="72" pan="0" vol="193" key="66"/>
          <note len="24" pos="72" pan="0" vol="193" key="61"/>
          <note len="24" pos="96" pan="0" vol="193" key="69"/>
          <note len="24" pos="96" pan="0" vol="193" key="66"/>
          <note len="24" pos="120" pan="0" vol="193" key="66"/>
          <note len="24" pos="120" pan="0" vol="193" key="61"/>
          <note len="24" pos="144" pan="0" vol="193" key="61"/>
          <note len="24" pos="144" pan="0" vol="193" key="57"/>
          <note len="24" pos="168" pan="0" vol="193" key="66"/>
          <note len="24" pos="168" pan="0" vol="193" key="61"/>
          <note len="24" pos="192" pan="0" vol="193" key="69"/>
          <note len="24" pos="192" pan="0" vol="193" key="66"/>
          <note len="24" pos="216" pan="0" vol="193" key="66"/>
          <note len="24" pos="216" pan="0" vol="193" key="61"/>
          <note len="24" pos="240" pan="0" vol="193" key="73"/>
          <note len="24" pos="240" pan="0" vol="193" key="69"/>
          <note len="24" pos="264" pan="0" vol="193" key="66"/>
          <note len="24" pos="264" pan="0" vol="193" key="61"/>
          <note len="24" pos="288" pan="0" vol="193" key="69"/>
          <note len="24" pos="288" pan="0" vol="193" key="66"/>
          <note len="24" pos="312" pan="0" vol="193" key="66"/>
          <note len="24" pos="312" pan="0" vol="193" key="61"/>
          <note len="24" pos="336" pan="0" vol="193" key="61"/>
          <note len="24" pos="336" pan="0" vol="193" key="57"/>
          <note len="24" pos="360" pan="0" vol="193" key="66"/>
          <note len="24" pos="360" pan="0" vol="193" key="61"/>
          <note len="24" pos="384" pan="0" vol="193" key="74"/>
          <note len="24" pos="384" pan="0" vol="193" key="71"/>
          <note len="24" pos="408" pan="0" vol="193" key="71"/>
          <note len="24" pos="408" pan="0" vol="193" key="66"/>
          <note len="24" pos="432" pan="0" vol="193" key="78"/>
          <note len="24" pos="432" pan="0" vol="193" key="74"/>
          <note len="24" pos="456" pan="0" vol="193" key="71"/>
          <note len="24" pos="456" pan="0" vol="193" key="66"/>
          <note len="24" pos="480" pan="0" vol="193" key="74"/>
          <note len="24" pos="480" pan="0" vol="193" key="71"/>
          <note len="24" pos="504" pan="0" vol="193" key="71"/>
          <note len="24" pos="504" pan="0" vol="193" key="66"/>
          <note len="24" pos="528" pan="0" vol="193" key="66"/>
          <note len="24" pos="528" pan="0" vol="193" key="62"/>
          <note len="24" pos="552" pan="0" vol="193" key="71"/>
          <note len="24" pos="552" pan="0" vol="193" key="66"/>
          <note len="24" pos="576" pan="0" vol="193" key="74"/>
          <note len="24" pos="576" pan="0" vol="193" key="71"/>
          <note len="24" pos="600" pan="0" vol="193" key="71"/>
          <note len="24" pos="600" pan="0" vol="193" key="66"/>
          <note len="24" pos="624" pan="0" vol="193" key="78"/>
          <note len="24" pos="624" pan="0" vol="193" key="74"/>
          <note len="24" pos="648" pan="0" vol="193" key="71"/>
          <note len="24" pos="648" pan="0" vol="193" key="66"/>
          <note len="24" pos="672" pan="0" vol="193" key="74"/>
          <note len="24" pos="672" pan="0" vol="193" key="71"/>
          <note len="24" pos="696" pan="0" vol="193" key="71"/>
          <note len="24" pos="696" pan="0" vol="193" key="66"/>
          <note len="24" pos="720" pan="0" vol="193" key="66"/>
          <note len="24" pos="720" pan="0" vol="193" key="62"/>
          <note len="24" pos="744" pan="0" vol="193" key="71"/>
          <note len="24" pos="744" pan="0" vol="193" key="66"/>
        </pattern>
        <pattern pos="16128" muted="0" steps="16" type="1" name="ZynAddSubFX">
          <note len="24" pos="0" pan="0" vol="193" key="73"/>
          <note len="24" pos="0" pan="0" vol="193" key="69"/>
          <note len="24" pos="24" pan="0" vol="193" key="69"/>
          <note len="24" pos="24" pan="0" vol="193" key="64"/>
          <note len="24" pos="48" pan="0" vol="193" key="69"/>
          <note len="24" pos="48" pan="0" vol="193" key="64"/>
          <note len="24" pos="72" pan="0" vol="193" key="73"/>
          <note len="24" pos="72" pan="0" vol="193" key="69"/>
          <note len="24" pos="96" pan="0" vol="193" key="76"/>
          <note len="24" pos="96" pan="0" vol="193" key="73"/>
          <note len="24" pos="120" pan="0" vol="193" key="73"/>
          <note len="24" pos="120" pan="0" vol="193" key="69"/>
          <note len="24" pos="144" pan="0" vol="193" key="69"/>
          <note len="24" pos="144" pan="0" vol="193" key="64"/>
          <note len="24" pos="168" pan="0" vol="193" key="73"/>
          <note len="24" pos="168" pan="0" vol="193" key="69"/>
        </pattern>
        <pattern pos="16320" muted="0" steps="16" type="1" name="ZynAddSubFX">
          <note len="24" pos="0" pan="0" vol="193" key="73"/>
          <note len="24" pos="0" pan="0" vol="193" key="68"/>
          <note len="24" pos="24" pan="0" vol="193" key="68"/>
          <note len="24" pos="24" pan="0" vol="193" key="65"/>
          <note len="24" pos="48" pan="0" vol="193" key="68"/>
          <note len="24" pos="48" pan="0" vol="193" key="65"/>
          <note len="24" pos="72" pan="0" vol="193" key="73"/>
          <note len="24" pos="72" pan="0" vol="193" key="68"/>
          <note len="24" pos="96" pan="0" vol="193" key="77"/>
          <note len="24" pos="96" pan="0" vol="193" key="73"/>
          <note len="24" pos="120" pan="0" vol="193" key="73"/>
          <note len="24" pos="120" pan="0" vol="193" key="68"/>
          <note len="24" pos="144" pan="0" vol="193" key="77"/>
          <note len="24" pos="144" pan="0" vol="193" key="68"/>
          <note len="24" pos="168" pan="0" vol="193" key="73"/>
          <note len="24" pos="168" pan="0" vol="193" key="68"/>
        </pattern>
        <pattern pos="16512" muted="0" steps="16" type="1" name="ZynAddSubFX">
          <note len="24" pos="0" pan="0" vol="193" key="81"/>
          <note len="24" pos="0" pan="0" vol="193" key="78"/>
          <note len="24" pos="0" pan="0" vol="193" key="73"/>
          <note len="24" pos="24" pan="0" vol="193" key="78"/>
          <note len="24" pos="24" pan="0" vol="193" key="73"/>
          <note len="24" pos="24" pan="0" vol="193" key="69"/>
          <note len="24" pos="48" pan="0" vol="193" key="78"/>
          <note len="24" pos="48" pan="0" vol="193" key="73"/>
          <note len="24" pos="48" pan="0" vol="193" key="69"/>
          <note len="24" pos="72" pan="0" vol="193" key="85"/>
          <note len="24" pos="72" pan="0" vol="193" key="81"/>
          <note len="24" pos="72" pan="0" vol="193" key="78"/>
          <note len="24" pos="96" pan="0" vol="193" key="81"/>
          <note len="24" pos="96" pan="0" vol="193" key="78"/>
          <note len="24" pos="96" pan="0" vol="193" key="73"/>
          <note len="24" pos="120" pan="0" vol="193" key="78"/>
          <note len="24" pos="120" pan="0" vol="193" key="73"/>
          <note len="24" pos="120" pan="0" vol="193" key="69"/>
          <note len="24" pos="144" pan="0" vol="193" key="81"/>
          <note len="24" pos="144" pan="0" vol="193" key="78"/>
          <note len="24" pos="144" pan="0" vol="193" key="73"/>
          <note len="24" pos="168" pan="0" vol="193" key="78"/>
          <note len="24" pos="168" pan="0" vol="193" key="73"/>
          <note len="24" pos="168" pan="0" vol="193" key="69"/>
        </pattern>
        <pattern pos="16704" muted="0" steps="16" type="1" name="ZynAddSubFX">
          <note len="24" pos="0" pan="0" vol="193" key="81"/>
          <note len="24" pos="0" pan="0" vol="193" key="78"/>
          <note len="24" pos="0" pan="0" vol="193" key="73"/>
          <note len="24" pos="72" pan="0" vol="193" key="85"/>
          <note len="24" pos="72" pan="0" vol="193" key="81"/>
          <note len="24" pos="72" pan="0" vol="193" key="78"/>
        </pattern>
        <pattern pos="16896" muted="0" steps="16" type="1" name="ZynAddSubFX">
          <note len="24" pos="0" pan="0" vol="193" key="74"/>
          <note len="24" pos="0" pan="0" vol="193" key="71"/>
          <note len="24" pos="0" pan="0" vol="193" key="66"/>
          <note len="24" pos="48" pan="0" vol="193" key="78"/>
          <note len="24" pos="48" pan="0" vol="193" key="74"/>
          <note len="24" pos="48" pan="0" vol="193" key="69"/>
          <note len="24" pos="96" pan="0" vol="193" key="74"/>
          <note len="24" pos="96" pan="0" vol="193" key="71"/>
          <note len="24" pos="96" pan="0" vol="193" key="66"/>
          <note len="24" pos="144" pan="0" vol="193" key="71"/>
          <note len="24" pos="144" pan="0" vol="193" key="66"/>
          <note len="24" pos="144" pan="0" vol="193" key="62"/>
          <note len="24" pos="192" pan="0" vol="193" key="71"/>
          <note len="24" pos="192" pan="0" vol="193" key="68"/>
          <note len="24" pos="192" pan="0" vol="193" key="64"/>
          <note len="24" pos="240" pan="0" vol="193" key="78"/>
          <note len="24" pos="240" pan="0" vol="193" key="74"/>
          <note len="24" pos="240" pan="0" vol="193" key="71"/>
          <note len="24" pos="288" pan="0" vol="193" key="76"/>
          <note len="24" pos="288" pan="0" vol="193" key="71"/>
          <note len="24" pos="288" pan="0" vol="193" key="68"/>
          <note len="24" pos="336" pan="0" vol="193" key="71"/>
          <note len="24" pos="336" pan="0" vol="193" key="68"/>
          <note len="24" pos="336" pan="0" vol="193" key="64"/>
          <note len="24" pos="384" pan="0" vol="193" key="73"/>
          <note len="24" pos="384" pan="0" vol="193" key="69"/>
          <note len="24" pos="384" pan="0" vol="193" key="64"/>
          <note len="24" pos="432" pan="0" vol="193" key="74"/>
          <note len="24" pos="432" pan="0" vol="193" key="69"/>
          <note len="24" pos="432" pan="0" vol="193" key="66"/>
          <note len="24" pos="480" pan="0" vol="193" key="73"/>
          <note len="24" pos="480" pan="0" vol="193" key="69"/>
          <note len="24" pos="480" pan="0" vol="193" key="64"/>
          <note len="24" pos="528" pan="0" vol="193" key="69"/>
          <note len="24" pos="528" pan="0" vol="193" key="64"/>
          <note len="24" pos="528" pan="0" vol="193" key="61"/>
          <note len="24" pos="576" pan="0" vol="193" key="66"/>
          <note len="24" pos="576" pan="0" vol="193" key="62"/>
          <note len="24" pos="576" pan="0" vol="193" key="57"/>
          <note len="24" pos="624" pan="0" vol="193" key="76"/>
          <note len="24" pos="624" pan="0" vol="193" key="71"/>
          <note len="24" pos="624" pan="0" vol="193" key="66"/>
          <note len="24" pos="672" pan="0" vol="193" key="74"/>
          <note len="24" pos="672" pan="0" vol="193" key="69"/>
          <note len="24" pos="672" pan="0" vol="193" key="66"/>
          <note len="24" pos="720" pan="0" vol="193" key="69"/>
          <note len="24" pos="720" pan="0" vol="193" key="66"/>
          <note len="24" pos="720" pan="0" vol="193" key="62"/>
          <note len="48" pos="768" pan="0" vol="193" key="71"/>
          <note len="48" pos="768" pan="0" vol="193" key="68"/>
          <note len="48" pos="768" pan="0" vol="193" key="64"/>
          <note len="48" pos="816" pan="0" vol="193" key="74"/>
          <note len="48" pos="816" pan="0" vol="193" key="71"/>
          <note len="48" pos="816" pan="0" vol="193" key="68"/>
          <note len="48" pos="864" pan="0" vol="193" key="71"/>
          <note len="48" pos="864" pan="0" vol="193" key="68"/>
          <note len="48" pos="864" pan="0" vol="193" key="65"/>
          <note len="48" pos="912" pan="0" vol="193" key="68"/>
          <note len="48" pos="912" pan="0" vol="193" key="65"/>
          <note len="48" pos="912" pan="0" vol="193" key="61"/>
          <note len="24" pos="960" pan="0" vol="193" key="73"/>
          <note len="24" pos="960" pan="0" vol="193" key="68"/>
          <note len="24" pos="960" pan="0" vol="193" key="65"/>
          <note len="24" pos="984" pan="0" vol="193" key="68"/>
          <note len="24" pos="984" pan="0" vol="193" key="65"/>
          <note len="24" pos="984" pan="0" vol="193" key="61"/>
          <note len="24" pos="1008" pan="0" vol="193" key="73"/>
          <note len="24" pos="1008" pan="0" vol="193" key="68"/>
          <note len="24" pos="1008" pan="0" vol="193" key="65"/>
          <note len="24" pos="1032" pan="0" vol="193" key="73"/>
          <note len="24" pos="1032" pan="0" vol="193" key="69"/>
          <note len="24" pos="1032" pan="0" vol="193" key="66"/>
          <note len="24" pos="1056" pan="0" vol="193" key="77"/>
          <note len="24" pos="1056" pan="0" vol="193" key="71"/>
          <note len="24" pos="1056" pan="0" vol="193" key="68"/>
          <note len="24" pos="1080" pan="0" vol="193" key="73"/>
          <note len="24" pos="1080" pan="0" vol="193" key="69"/>
          <note len="24" pos="1080" pan="0" vol="193" key="66"/>
          <note len="24" pos="1104" pan="0" vol="193" key="73"/>
          <note len="24" pos="1104" pan="0" vol="193" key="68"/>
          <note len="24" pos="1104" pan="0" vol="193" key="65"/>
          <note len="24" pos="1128" pan="0" vol="193" key="68"/>
          <note len="24" pos="1128" pan="0" vol="193" key="65"/>
          <note len="24" pos="1128" pan="0" vol="193" key="61"/>
        </pattern>
        <pattern pos="18432" muted="0" steps="16" type="1" name="ZynAddSubFX">
          <note len="48" pos="0" pan="0" vol="193" key="74"/>
          <note len="48" pos="0" pan="0" vol="193" key="71"/>
          <note len="48" pos="0" pan="0" vol="193" key="66"/>
          <note len="48" pos="48" pan="0" vol="193" key="78"/>
          <note len="48" pos="48" pan="0" vol="193" key="74"/>
          <note len="48" pos="48" pan="0" vol="193" key="69"/>
          <note len="48" pos="96" pan="0" vol="193" key="74"/>
          <note len="48" pos="96" pan="0" vol="193" key="71"/>
          <note len="48" pos="96" pan="0" vol="193" key="66"/>
          <note len="48" pos="144" pan="0" vol="193" key="71"/>
          <note len="48" pos="144" pan="0" vol="193" key="66"/>
          <note len="48" pos="144" pan="0" vol="193" key="62"/>
          <note len="48" pos="192" pan="0" vol="193" key="71"/>
          <note len="48" pos="192" pan="0" vol="193" key="68"/>
          <note len="48" pos="192" pan="0" vol="193" key="64"/>
          <note len="48" pos="240" pan="0" vol="193" key="78"/>
          <note len="48" pos="240" pan="0" vol="193" key="74"/>
          <note len="48" pos="240" pan="0" vol="193" key="71"/>
          <note len="48" pos="288" pan="0" vol="193" key="76"/>
          <note len="48" pos="288" pan="0" vol="193" key="71"/>
          <note len="48" pos="288" pan="0" vol="193" key="68"/>
          <note len="48" pos="336" pan="0" vol="193" key="71"/>
          <note len="48" pos="336" pan="0" vol="193" key="68"/>
          <note len="48" pos="336" pan="0" vol="193" key="64"/>
          <note len="48" pos="384" pan="0" vol="193" key="73"/>
          <note len="48" pos="384" pan="0" vol="193" key="69"/>
          <note len="48" pos="384" pan="0" vol="193" key="64"/>
          <note len="48" pos="432" pan="0" vol="193" key="74"/>
          <note len="48" pos="432" pan="0" vol="193" key="69"/>
          <note len="48" pos="432" pan="0" vol="193" key="66"/>
          <note len="48" pos="480" pan="0" vol="193" key="73"/>
          <note len="48" pos="480" pan="0" vol="193" key="69"/>
          <note len="48" pos="480" pan="0" vol="193" key="64"/>
          <note len="48" pos="528" pan="0" vol="193" key="69"/>
          <note len="48" pos="528" pan="0" vol="193" key="64"/>
          <note len="48" pos="528" pan="0" vol="193" key="61"/>
          <note len="48" pos="576" pan="0" vol="193" key="69"/>
          <note len="48" pos="576" pan="0" vol="193" key="66"/>
          <note len="48" pos="576" pan="0" vol="193" key="62"/>
          <note len="48" pos="624" pan="0" vol="193" key="76"/>
          <note len="48" pos="624" pan="0" vol="193" key="71"/>
          <note len="48" pos="624" pan="0" vol="193" key="66"/>
          <note len="48" pos="672" pan="0" vol="193" key="78"/>
          <note len="48" pos="672" pan="0" vol="193" key="74"/>
          <note len="48" pos="672" pan="0" vol="193" key="69"/>
          <note len="48" pos="720" pan="0" vol="193" key="81"/>
          <note len="48" pos="720" pan="0" vol="193" key="78"/>
          <note len="48" pos="720" pan="0" vol="193" key="74"/>
          <note len="192" pos="768" pan="0" vol="193" key="74"/>
          <note len="192" pos="768" pan="0" vol="193" key="71"/>
          <note len="192" pos="768" pan="0" vol="193" key="66"/>
          <note len="192" pos="960" pan="0" vol="193" key="75"/>
          <note len="192" pos="960" pan="0" vol="193" key="72"/>
          <note len="192" pos="960" pan="0" vol="193" key="66"/>
          <note len="192" pos="1152" pan="0" vol="193" key="77"/>
          <note len="192" pos="1152" pan="0" vol="193" key="73"/>
          <note len="192" pos="1152" pan="0" vol="193" key="68"/>
          <note len="192" pos="1344" pan="0" vol="193" key="80"/>
          <note len="192" pos="1344" pan="0" vol="193" key="77"/>
          <note len="192" pos="1344" pan="0" vol="193" key="73"/>
        </pattern>
        <pattern pos="18048" muted="0" steps="16" type="1" name="ZynAddSubFX">
          <note len="24" pos="0" pan="0" vol="193" key="73"/>
          <note len="24" pos="0" pan="0" vol="193" key="69"/>
          <note len="24" pos="0" pan="0" vol="193" key="66"/>
          <note len="24" pos="24" pan="0" vol="193" key="66"/>
          <note len="24" pos="24" pan="0" vol="193" key="61"/>
          <note len="24" pos="24" pan="0" vol="193" key="57"/>
          <note len="24" pos="48" pan="0" vol="193" key="69"/>
          <note len="24" pos="48" pan="0" vol="193" key="66"/>
          <note len="24" pos="48" pan="0" vol="193" key="61"/>
          <note len="24" pos="72" pan="0" vol="193" key="66"/>
          <note len="24" pos="72" pan="0" vol="193" key="61"/>
          <note len="24" pos="72" pan="0" vol="193" key="57"/>
          <note len="24" pos="96" pan="0" vol="193" key="73"/>
          <note len="24" pos="96" pan="0" vol="193" key="69"/>
          <note len="24" pos="96" pan="0" vol="193" key="66"/>
          <note len="24" pos="120" pan="0" vol="193" key="66"/>
          <note len="24" pos="120" pan="0" vol="193" key="61"/>
          <note len="24" pos="120" pan="0" vol="193" key="57"/>
          <note len="24" pos="144" pan="0" vol="193" key="69"/>
          <note len="24" pos="144" pan="0" vol="193" key="66"/>
          <note len="24" pos="144" pan="0" vol="193" key="61"/>
          <note len="24" pos="168" pan="0" vol="193" key="66"/>
          <note len="24" pos="168" pan="0" vol="193" key="61"/>
          <note len="24" pos="168" pan="0" vol="193" key="57"/>
        </pattern>
        <pattern pos="18240" muted="0" steps="16" type="1" name="ZynAddSubFX">
          <note len="24" pos="0" pan="0" vol="193" key="73"/>
          <note len="24" pos="0" pan="0" vol="193" key="69"/>
          <note len="24" pos="0" pan="0" vol="193" key="66"/>
          <note len="24" pos="24" pan="0" vol="193" key="66"/>
          <note len="24" pos="24" pan="0" vol="193" key="61"/>
          <note len="24" pos="24" pan="0" vol="193" key="57"/>
          <note len="24" pos="48" pan="0" vol="193" key="69"/>
          <note len="24" pos="48" pan="0" vol="193" key="66"/>
          <note len="24" pos="48" pan="0" vol="193" key="61"/>
          <note len="24" pos="72" pan="0" vol="193" key="66"/>
          <note len="24" pos="72" pan="0" vol="193" key="61"/>
          <note len="24" pos="72" pan="0" vol="193" key="57"/>
          <note len="24" pos="96" pan="0" vol="193" key="73"/>
          <note len="24" pos="96" pan="0" vol="193" key="69"/>
          <note len="24" pos="96" pan="0" vol="193" key="66"/>
          <note len="24" pos="120" pan="0" vol="193" key="66"/>
          <note len="24" pos="120" pan="0" vol="193" key="61"/>
          <note len="24" pos="120" pan="0" vol="193" key="57"/>
          <note len="24" pos="144" pan="0" vol="193" key="69"/>
          <note len="24" pos="144" pan="0" vol="193" key="66"/>
          <note len="24" pos="144" pan="0" vol="193" key="61"/>
          <note len="24" pos="168" pan="0" vol="193" key="66"/>
          <note len="24" pos="168" pan="0" vol="193" key="61"/>
          <note len="24" pos="168" pan="0" vol="193" key="57"/>
        </pattern>
        <pattern pos="19968" muted="0" steps="16" type="1" name="ZynAddSubFX">
          <note len="96" pos="0" pan="0" vol="193" key="56"/>
          <note len="96" pos="0" pan="0" vol="193" key="53"/>
          <note len="96" pos="0" pan="0" vol="193" key="49"/>
          <note len="96" pos="96" pan="0" vol="193" key="61"/>
          <note len="96" pos="96" pan="0" vol="193" key="56"/>
          <note len="96" pos="96" pan="0" vol="193" key="53"/>
          <note len="96" pos="192" pan="0" vol="193" key="65"/>
          <note len="96" pos="192" pan="0" vol="193" key="61"/>
          <note len="96" pos="192" pan="0" vol="193" key="56"/>
          <note len="96" pos="288" pan="0" vol="193" key="68"/>
          <note len="96" pos="288" pan="0" vol="193" key="65"/>
          <note len="96" pos="288" pan="0" vol="193" key="61"/>
        </pattern>
        <pattern pos="20352" muted="0" steps="16" type="1" name="ZynAddSubFX">
          <note len="24" pos="0" pan="0" vol="193" key="73"/>
          <note len="24" pos="0" pan="0" vol="193" key="68"/>
          <note len="24" pos="0" pan="0" vol="193" key="65"/>
          <note len="24" pos="24" pan="0" vol="193" key="68"/>
          <note len="24" pos="24" pan="0" vol="193" key="65"/>
          <note len="24" pos="24" pan="0" vol="193" key="61"/>
          <note len="24" pos="48" pan="0" vol="193" key="71"/>
          <note len="24" pos="48" pan="0" vol="193" key="68"/>
          <note len="24" pos="48" pan="0" vol="193" key="65"/>
          <note len="24" pos="72" pan="0" vol="193" key="68"/>
          <note len="24" pos="72" pan="0" vol="193" key="65"/>
          <note len="24" pos="72" pan="0" vol="193" key="59"/>
          <note len="24" pos="96" pan="0" vol="193" key="69"/>
          <note len="24" pos="96" pan="0" vol="193" key="66"/>
          <note len="24" pos="96" pan="0" vol="193" key="62"/>
          <note len="24" pos="120" pan="0" vol="193" key="66"/>
          <note len="24" pos="120" pan="0" vol="193" key="62"/>
          <note len="24" pos="120" pan="0" vol="193" key="57"/>
          <note len="24" pos="144" pan="0" vol="193" key="68"/>
          <note len="24" pos="144" pan="0" vol="193" key="65"/>
          <note len="24" pos="144" pan="0" vol="193" key="62"/>
          <note len="24" pos="168" pan="0" vol="193" key="65"/>
          <note len="24" pos="168" pan="0" vol="193" key="62"/>
          <note len="24" pos="168" pan="0" vol="193" key="56"/>
          <note len="24" pos="192" pan="0" vol="193" key="66"/>
          <note len="24" pos="192" pan="0" vol="193" key="62"/>
          <note len="24" pos="192" pan="0" vol="193" key="57"/>
          <note len="24" pos="216" pan="0" vol="193" key="62"/>
          <note len="24" pos="216" pan="0" vol="193" key="57"/>
          <note len="24" pos="216" pan="0" vol="193" key="54"/>
          <note len="24" pos="240" pan="0" vol="193" key="65"/>
          <note len="24" pos="240" pan="0" vol="193" key="61"/>
          <note len="24" pos="240" pan="0" vol="193" key="56"/>
          <note len="24" pos="264" pan="0" vol="193" key="61"/>
          <note len="24" pos="264" pan="0" vol="193" key="56"/>
          <note len="24" pos="264" pan="0" vol="193" key="53"/>
          <note len="48" pos="288" pan="0" vol="193" key="73"/>
          <note len="48" pos="288" pan="0" vol="193" key="68"/>
          <note len="48" pos="288" pan="0" vol="193" key="65"/>
          <note len="48" pos="336" pan="0" vol="193" key="77"/>
          <note len="48" pos="336" pan="0" vol="193" key="73"/>
          <note len="48" pos="336" pan="0" vol="193" key="68"/>
        </pattern>
        <pattern pos="20736" muted="0" steps="16" type="1" name="ZynAddSubFX">
          <note len="192" pos="0" pan="0" vol="195" key="69"/>
          <note len="192" pos="0" pan="0" vol="195" key="66"/>
          <note len="192" pos="0" pan="0" vol="195" key="61"/>
          <note len="192" pos="192" pan="0" vol="195" key="68"/>
          <note len="192" pos="192" pan="0" vol="195" key="65"/>
          <note len="192" pos="192" pan="0" vol="195" key="61"/>
          <note len="192" pos="384" pan="0" vol="195" key="68"/>
          <note len="192" pos="384" pan="0" vol="195" key="64"/>
          <note len="192" pos="384" pan="0" vol="195" key="59"/>
          <note len="192" pos="576" pan="0" vol="195" key="66"/>
          <note len="192" pos="576" pan="0" vol="195" key="63"/>
          <note len="192" pos="576" pan="0" vol="195" key="59"/>
          <note len="192" pos="768" pan="0" vol="195" key="66"/>
          <note len="192" pos="768" pan="0" vol="195" key="62"/>
          <note len="192" pos="768" pan="0" vol="195" key="57"/>
          <note len="192" pos="960" pan="0" vol="195" key="66"/>
          <note len="192" pos="960" pan="0" vol="195" key="61"/>
          <note len="192" pos="960" pan="0" vol="195" key="57"/>
          <note len="192" pos="1152" pan="0" vol="195" key="65"/>
          <note len="192" pos="1152" pan="0" vol="195" key="60"/>
          <note len="192" pos="1152" pan="0" vol="195" key="56"/>
          <note len="192" pos="1344" pan="0" vol="195" key="65"/>
          <note len="192" pos="1344" pan="0" vol="195" key="61"/>
          <note len="192" pos="1344" pan="0" vol="195" key="56"/>
        </pattern>
        <pattern pos="22272" muted="0" steps="16" type="1" name="">
          <note len="192" pos="0" pan="0" vol="195" key="73"/>
          <note len="192" pos="0" pan="0" vol="195" key="69"/>
          <note len="192" pos="0" pan="0" vol="195" key="66"/>
          <note len="192" pos="192" pan="0" vol="195" key="73"/>
          <note len="192" pos="192" pan="0" vol="195" key="68"/>
          <note len="192" pos="192" pan="0" vol="195" key="65"/>
          <note len="192" pos="384" pan="0" vol="195" key="71"/>
          <note len="192" pos="384" pan="0" vol="195" key="68"/>
          <note len="192" pos="384" pan="0" vol="195" key="64"/>
          <note len="192" pos="576" pan="0" vol="195" key="71"/>
          <note len="192" pos="576" pan="0" vol="195" key="66"/>
          <note len="192" pos="576" pan="0" vol="195" key="63"/>
          <note len="192" pos="768" pan="0" vol="195" key="69"/>
          <note len="192" pos="768" pan="0" vol="195" key="66"/>
          <note len="192" pos="768" pan="0" vol="195" key="62"/>
          <note len="192" pos="960" pan="0" vol="195" key="69"/>
          <note len="192" pos="960" pan="0" vol="195" key="66"/>
          <note len="192" pos="960" pan="0" vol="195" key="61"/>
          <note len="192" pos="1152" pan="0" vol="195" key="73"/>
          <note len="192" pos="1152" pan="0" vol="195" key="68"/>
          <note len="192" pos="1152" pan="0" vol="195" key="60"/>
          <note len="192" pos="1344" pan="0" vol="195" key="73"/>
          <note len="192" pos="1344" pan="0" vol="195" key="68"/>
          <note len="192" pos="1344" pan="0" vol="195" key="65"/>
        </pattern>
        <pattern pos="23808" muted="0" steps="16" type="1" name="ZynAddSubFX">
          <note len="384" pos="0" pan="0" vol="195" key="74"/>
          <note len="384" pos="0" pan="0" vol="195" key="69"/>
          <note len="384" pos="0" pan="0" vol="195" key="66"/>
          <note len="192" pos="384" pan="0" vol="195" key="76"/>
          <note len="384" pos="384" pan="0" vol="195" key="71"/>
          <note len="384" pos="384" pan="0" vol="195" key="68"/>
          <note len="192" pos="576" pan="0" vol="195" key="77"/>
        </pattern>
      </track>
      <track muted="0" solo="0" type="0" name="Blanchet-1720">
        <instrumenttrack basenote="57" pitch="0" pitchrange="1" pan="16.8" usemasterpitch="1" fxch="16" vol="63.9">
          <instrument name="sf2player">
            <sf2player chorusLevel="2" reverbRoomSize="0.2" reverbDamping="0" reverbWidth="0.5" reverbLevel="0.9" gain="0.76" reverbOn="0" patch="1" bank="1" chorusNum="3" chorusSpeed="0.3" chorusOn="0" src="/home/pass/samples/soundfonts/Blanchet-1720.sf2" chorusDepth="8"/>
          </instrument>
          <eldata fwet="0" ftype="0" fcut="14000" fres="0.5">
            <elvol lspd_denominator="4" lamt="0" amt="0" dec="0.5" hold="0.5" lshp="0" ctlenvamt="0" lspd="0.1" rel="0.1" pdel="0" lspd_syncmode="0" att="0" sustain="0.5" userwavefile="" latt="0" lspd_numerator="4" lpdel="0" x100="0"/>
            <elcut lspd_denominator="4" lamt="0" amt="0" dec="0.5" hold="0.5" lshp="0" ctlenvamt="0" lspd="0.1" rel="0.1" pdel="0" lspd_syncmode="0" att="0" sustain="0.5" userwavefile="" latt="0" lspd_numerator="4" lpdel="0" x100="0"/>
            <elres lspd_denominator="4" lamt="0" amt="0" dec="0.5" hold="0.5" lshp="0" ctlenvamt="0" lspd="0.1" rel="0.1" pdel="0" lspd_syncmode="0" att="0" sustain="0.5" userwavefile="" latt="0" lspd_numerator="4" lpdel="0" x100="0"/>
          </eldata>
          <chordcreator chordrange="1" chord-enabled="0" chord="0"/>
          <arpeggiator arptime_syncmode="0" arptime="200" arptime_denominator="4" arpdir="0" arp="0" arpmode="0" arpcycle="0" arpmiss="0" arptime_numerator="4" arprange="1" arp-enabled="0" arpskip="0" arpgate="100"/>
          <midiport inputcontroller="0" outputchannel="1" outputprogram="1" readable="0" outputcontroller="0" fixedoutputvelocity="-1" fixedoutputnote="-1" fixedinputvelocity="-1" writable="0" inputchannel="0" basevelocity="63"/>
          <fxchain enabled="0" numofeffects="0"/>
        </instrumenttrack>
        <pattern pos="6144" muted="0" steps="16" type="0" name="Blanchet-1720"/>
        <pattern pos="20736" muted="0" steps="16" type="1" name="Blanchet-1720">
          <note len="24" pos="0" pan="0" vol="195" key="54"/>
          <note len="24" pos="24" pan="0" vol="195" key="61"/>
          <note len="24" pos="48" pan="0" vol="195" key="59"/>
          <note len="24" pos="72" pan="0" vol="195" key="61"/>
          <note len="24" pos="96" pan="0" vol="195" key="54"/>
          <note len="24" pos="120" pan="0" vol="195" key="61"/>
          <note len="24" pos="144" pan="0" vol="195" key="59"/>
          <note len="24" pos="168" pan="0" vol="195" key="61"/>
          <note len="24" pos="192" pan="0" vol="195" key="53"/>
          <note len="24" pos="216" pan="0" vol="195" key="61"/>
          <note len="24" pos="240" pan="0" vol="195" key="59"/>
          <note len="24" pos="264" pan="0" vol="195" key="61"/>
          <note len="24" pos="288" pan="0" vol="195" key="53"/>
          <note len="24" pos="312" pan="0" vol="195" key="61"/>
          <note len="24" pos="336" pan="0" vol="195" key="59"/>
          <note len="24" pos="360" pan="0" vol="195" key="61"/>
          <note len="24" pos="384" pan="0" vol="195" key="52"/>
          <note len="24" pos="408" pan="0" vol="195" key="59"/>
          <note len="24" pos="432" pan="0" vol="195" key="57"/>
          <note len="24" pos="456" pan="0" vol="195" key="59"/>
          <note len="24" pos="480" pan="0" vol="195" key="52"/>
          <note len="24" pos="504" pan="0" vol="195" key="59"/>
          <note len="24" pos="528" pan="0" vol="195" key="57"/>
          <note len="24" pos="552" pan="0" vol="195" key="59"/>
          <note len="24" pos="576" pan="0" vol="195" key="51"/>
          <note len="24" pos="600" pan="0" vol="195" key="59"/>
          <note len="24" pos="624" pan="0" vol="195" key="57"/>
          <note len="24" pos="648" pan="0" vol="195" key="59"/>
          <note len="24" pos="672" pan="0" vol="195" key="51"/>
          <note len="24" pos="696" pan="0" vol="195" key="59"/>
          <note len="24" pos="720" pan="0" vol="195" key="57"/>
          <note len="24" pos="744" pan="0" vol="195" key="59"/>
          <note len="24" pos="768" pan="0" vol="195" key="50"/>
          <note len="24" pos="792" pan="0" vol="195" key="57"/>
          <note len="24" pos="816" pan="0" vol="195" key="56"/>
          <note len="24" pos="840" pan="0" vol="195" key="57"/>
          <note len="24" pos="864" pan="0" vol="195" key="50"/>
          <note len="24" pos="888" pan="0" vol="195" key="57"/>
          <note len="24" pos="912" pan="0" vol="195" key="56"/>
          <note len="24" pos="936" pan="0" vol="195" key="57"/>
          <note len="24" pos="960" pan="0" vol="195" key="49"/>
          <note len="24" pos="984" pan="0" vol="195" key="57"/>
          <note len="24" pos="1008" pan="0" vol="195" key="56"/>
          <note len="24" pos="1032" pan="0" vol="195" key="57"/>
          <note len="24" pos="1056" pan="0" vol="195" key="49"/>
          <note len="24" pos="1080" pan="0" vol="195" key="57"/>
          <note len="24" pos="1104" pan="0" vol="195" key="56"/>
          <note len="24" pos="1128" pan="0" vol="195" key="57"/>
          <note len="24" pos="1152" pan="0" vol="195" key="48"/>
          <note len="24" pos="1176" pan="0" vol="195" key="56"/>
          <note len="24" pos="1200" pan="0" vol="195" key="54"/>
          <note len="24" pos="1224" pan="0" vol="195" key="56"/>
          <note len="24" pos="1248" pan="0" vol="195" key="48"/>
          <note len="24" pos="1272" pan="0" vol="195" key="56"/>
          <note len="24" pos="1296" pan="0" vol="195" key="54"/>
          <note len="24" pos="1320" pan="0" vol="195" key="56"/>
          <note len="24" pos="1344" pan="0" vol="195" key="49"/>
          <note len="24" pos="1368" pan="0" vol="195" key="56"/>
          <note len="24" pos="1392" pan="0" vol="195" key="54"/>
          <note len="24" pos="1416" pan="0" vol="195" key="56"/>
          <note len="24" pos="1440" pan="0" vol="195" key="53"/>
          <note len="24" pos="1464" pan="0" vol="195" key="49"/>
          <note len="24" pos="1488" pan="0" vol="195" key="53"/>
          <note len="24" pos="1512" pan="0" vol="195" key="56"/>
        </pattern>
        <pattern pos="22272" muted="0" steps="16" type="1" name="Blanchet-1720">
          <note len="24" pos="0" pan="0" vol="195" key="54"/>
          <note len="24" pos="24" pan="0" vol="195" key="61"/>
          <note len="24" pos="48" pan="0" vol="195" key="59"/>
          <note len="24" pos="72" pan="0" vol="195" key="61"/>
          <note len="24" pos="96" pan="0" vol="195" key="54"/>
          <note len="24" pos="120" pan="0" vol="195" key="61"/>
          <note len="24" pos="144" pan="0" vol="195" key="59"/>
          <note len="24" pos="168" pan="0" vol="195" key="61"/>
          <note len="24" pos="192" pan="0" vol="195" key="53"/>
          <note len="24" pos="216" pan="0" vol="195" key="61"/>
          <note len="24" pos="240" pan="0" vol="195" key="59"/>
          <note len="24" pos="264" pan="0" vol="195" key="61"/>
          <note len="24" pos="288" pan="0" vol="195" key="53"/>
          <note len="24" pos="312" pan="0" vol="195" key="61"/>
          <note len="24" pos="336" pan="0" vol="195" key="59"/>
          <note len="24" pos="360" pan="0" vol="195" key="61"/>
          <note len="24" pos="384" pan="0" vol="195" key="52"/>
          <note len="24" pos="408" pan="0" vol="195" key="59"/>
          <note len="24" pos="432" pan="0" vol="195" key="57"/>
          <note len="24" pos="456" pan="0" vol="195" key="59"/>
          <note len="24" pos="480" pan="0" vol="195" key="52"/>
          <note len="24" pos="504" pan="0" vol="195" key="59"/>
          <note len="24" pos="528" pan="0" vol="195" key="57"/>
          <note len="24" pos="552" pan="0" vol="195" key="59"/>
          <note len="24" pos="576" pan="0" vol="195" key="51"/>
          <note len="24" pos="600" pan="0" vol="195" key="59"/>
          <note len="24" pos="624" pan="0" vol="195" key="57"/>
          <note len="24" pos="648" pan="0" vol="195" key="59"/>
          <note len="24" pos="672" pan="0" vol="195" key="51"/>
          <note len="24" pos="696" pan="0" vol="195" key="59"/>
          <note len="24" pos="720" pan="0" vol="195" key="57"/>
          <note len="24" pos="744" pan="0" vol="195" key="59"/>
          <note len="24" pos="768" pan="0" vol="195" key="50"/>
          <note len="24" pos="792" pan="0" vol="195" key="57"/>
          <note len="24" pos="816" pan="0" vol="195" key="56"/>
          <note len="24" pos="840" pan="0" vol="195" key="57"/>
          <note len="24" pos="864" pan="0" vol="195" key="50"/>
          <note len="24" pos="888" pan="0" vol="195" key="57"/>
          <note len="24" pos="912" pan="0" vol="195" key="56"/>
          <note len="24" pos="936" pan="0" vol="195" key="57"/>
          <note len="24" pos="960" pan="0" vol="195" key="49"/>
          <note len="24" pos="984" pan="0" vol="195" key="57"/>
          <note len="24" pos="1008" pan="0" vol="195" key="56"/>
          <note len="24" pos="1032" pan="0" vol="195" key="57"/>
          <note len="24" pos="1056" pan="0" vol="195" key="49"/>
          <note len="24" pos="1080" pan="0" vol="195" key="57"/>
          <note len="24" pos="1104" pan="0" vol="195" key="56"/>
          <note len="24" pos="1128" pan="0" vol="195" key="57"/>
          <note len="24" pos="1152" pan="0" vol="195" key="48"/>
          <note len="24" pos="1176" pan="0" vol="195" key="56"/>
          <note len="24" pos="1200" pan="0" vol="195" key="54"/>
          <note len="24" pos="1224" pan="0" vol="195" key="56"/>
          <note len="24" pos="1248" pan="0" vol="195" key="48"/>
          <note len="24" pos="1272" pan="0" vol="195" key="56"/>
          <note len="24" pos="1296" pan="0" vol="195" key="54"/>
          <note len="24" pos="1320" pan="0" vol="195" key="56"/>
          <note len="24" pos="1344" pan="0" vol="195" key="49"/>
          <note len="24" pos="1368" pan="0" vol="195" key="56"/>
          <note len="24" pos="1392" pan="0" vol="195" key="54"/>
          <note len="24" pos="1416" pan="0" vol="195" key="56"/>
          <note len="24" pos="1440" pan="0" vol="195" key="53"/>
          <note len="24" pos="1464" pan="0" vol="195" key="49"/>
          <note len="24" pos="1488" pan="0" vol="195" key="53"/>
          <note len="24" pos="1512" pan="0" vol="195" key="56"/>
        </pattern>
        <pattern pos="23808" muted="0" steps="16" type="1" name="Blanchet-1720">
          <note len="12" pos="0" pan="0" vol="195" key="54"/>
          <note len="12" pos="12" pan="0" vol="195" key="52"/>
          <note len="12" pos="24" pan="0" vol="195" key="50"/>
          <note len="12" pos="36" pan="0" vol="195" key="52"/>
          <note len="12" pos="48" pan="0" vol="195" key="54"/>
          <note len="12" pos="60" pan="0" vol="195" key="52"/>
          <note len="12" pos="72" pan="0" vol="195" key="50"/>
          <note len="12" pos="84" pan="0" vol="195" key="52"/>
          <note len="12" pos="96" pan="0" vol="195" key="54"/>
          <note len="12" pos="108" pan="0" vol="195" key="52"/>
          <note len="12" pos="120" pan="0" vol="195" key="50"/>
          <note len="12" pos="132" pan="0" vol="195" key="52"/>
          <note len="12" pos="144" pan="0" vol="195" key="54"/>
          <note len="12" pos="156" pan="0" vol="195" key="52"/>
          <note len="12" pos="168" pan="0" vol="195" key="50"/>
          <note len="12" pos="180" pan="0" vol="195" key="52"/>
          <note len="12" pos="192" pan="0" vol="195" key="54"/>
          <note len="12" pos="204" pan="0" vol="195" key="52"/>
          <note len="12" pos="216" pan="0" vol="195" key="50"/>
          <note len="12" pos="228" pan="0" vol="195" key="52"/>
          <note len="12" pos="240" pan="0" vol="195" key="54"/>
          <note len="12" pos="252" pan="0" vol="195" key="52"/>
          <note len="12" pos="264" pan="0" vol="195" key="50"/>
          <note len="12" pos="276" pan="0" vol="195" key="52"/>
          <note len="12" pos="288" pan="0" vol="195" key="54"/>
          <note len="12" pos="300" pan="0" vol="195" key="52"/>
          <note len="12" pos="312" pan="0" vol="195" key="50"/>
          <note len="12" pos="324" pan="0" vol="195" key="52"/>
          <note len="12" pos="336" pan="0" vol="195" key="54"/>
          <note len="12" pos="348" pan="0" vol="195" key="52"/>
          <note len="12" pos="360" pan="0" vol="195" key="50"/>
          <note len="12" pos="372" pan="0" vol="195" key="52"/>
          <note len="12" pos="384" pan="0" vol="195" key="56"/>
          <note len="12" pos="396" pan="0" vol="195" key="54"/>
          <note len="12" pos="408" pan="0" vol="195" key="52"/>
          <note len="12" pos="420" pan="0" vol="195" key="54"/>
          <note len="12" pos="432" pan="0" vol="195" key="56"/>
          <note len="12" pos="444" pan="0" vol="195" key="54"/>
          <note len="12" pos="456" pan="0" vol="195" key="52"/>
          <note len="12" pos="468" pan="0" vol="195" key="54"/>
          <note len="12" pos="480" pan="0" vol="195" key="56"/>
          <note len="12" pos="492" pan="0" vol="195" key="54"/>
          <note len="12" pos="504" pan="0" vol="195" key="52"/>
          <note len="12" pos="516" pan="0" vol="195" key="54"/>
          <note len="12" pos="528" pan="0" vol="195" key="56"/>
          <note len="12" pos="540" pan="0" vol="195" key="54"/>
          <note len="12" pos="552" pan="0" vol="195" key="52"/>
          <note len="12" pos="564" pan="0" vol="195" key="54"/>
          <note len="12" pos="576" pan="0" vol="195" key="59"/>
          <note len="12" pos="588" pan="0" vol="195" key="57"/>
          <note len="12" pos="600" pan="0" vol="195" key="56"/>
          <note len="12" pos="612" pan="0" vol="195" key="57"/>
          <note len="12" pos="624" pan="0" vol="195" key="56"/>
          <note len="12" pos="636" pan="0" vol="195" key="54"/>
          <note len="12" pos="648" pan="0" vol="195" key="53"/>
          <note len="12" pos="660" pan="0" vol="195" key="54"/>
          <note len="12" pos="672" pan="0" vol="195" key="53"/>
          <note len="12" pos="684" pan="0" vol="195" key="50"/>
          <note len="12" pos="696" pan="0" vol="195" key="49"/>
          <note len="12" pos="708" pan="0" vol="195" key="50"/>
          <note len="12" pos="720" pan="0" vol="195" key="49"/>
          <note len="12" pos="732" pan="0" vol="195" key="47"/>
          <note len="12" pos="744" pan="0" vol="195" key="45"/>
          <note len="12" pos="756" pan="0" vol="195" key="44"/>
        </pattern>
        <pattern pos="10752" muted="0" steps="16" type="1" name="">
          <note len="24" pos="0" pan="0" vol="193" key="57"/>
          <note len="24" pos="0" pan="0" vol="193" key="54"/>
          <note len="24" pos="24" pan="0" vol="193" key="54"/>
          <note len="24" pos="24" pan="0" vol="193" key="49"/>
          <note len="24" pos="48" pan="0" vol="193" key="61"/>
          <note len="24" pos="48" pan="0" vol="193" key="57"/>
          <note len="24" pos="72" pan="0" vol="193" key="54"/>
          <note len="24" pos="72" pan="0" vol="193" key="49"/>
          <note len="24" pos="96" pan="0" vol="193" key="57"/>
          <note len="24" pos="96" pan="0" vol="193" key="54"/>
          <note len="24" pos="120" pan="0" vol="193" key="54"/>
          <note len="24" pos="120" pan="0" vol="193" key="49"/>
          <note len="24" pos="144" pan="0" vol="193" key="49"/>
          <note len="24" pos="144" pan="0" vol="193" key="45"/>
          <note len="24" pos="168" pan="0" vol="193" key="54"/>
          <note len="24" pos="168" pan="0" vol="193" key="49"/>
          <note len="24" pos="192" pan="0" vol="193" key="57"/>
          <note len="24" pos="192" pan="0" vol="193" key="54"/>
          <note len="24" pos="216" pan="0" vol="193" key="54"/>
          <note len="24" pos="216" pan="0" vol="193" key="49"/>
          <note len="24" pos="240" pan="0" vol="193" key="61"/>
          <note len="24" pos="240" pan="0" vol="193" key="57"/>
          <note len="24" pos="264" pan="0" vol="193" key="54"/>
          <note len="24" pos="264" pan="0" vol="193" key="49"/>
          <note len="24" pos="288" pan="0" vol="193" key="57"/>
          <note len="24" pos="288" pan="0" vol="193" key="54"/>
          <note len="24" pos="312" pan="0" vol="193" key="54"/>
          <note len="24" pos="312" pan="0" vol="193" key="49"/>
          <note len="24" pos="336" pan="0" vol="193" key="49"/>
          <note len="24" pos="336" pan="0" vol="193" key="45"/>
          <note len="24" pos="360" pan="0" vol="193" key="54"/>
          <note len="24" pos="360" pan="0" vol="193" key="49"/>
          <note len="24" pos="384" pan="0" vol="193" key="62"/>
          <note len="24" pos="384" pan="0" vol="193" key="59"/>
          <note len="24" pos="408" pan="0" vol="193" key="59"/>
          <note len="24" pos="408" pan="0" vol="193" key="54"/>
          <note len="24" pos="432" pan="0" vol="193" key="66"/>
          <note len="24" pos="432" pan="0" vol="193" key="62"/>
          <note len="24" pos="456" pan="0" vol="193" key="59"/>
          <note len="24" pos="456" pan="0" vol="193" key="54"/>
          <note len="24" pos="480" pan="0" vol="193" key="62"/>
          <note len="24" pos="480" pan="0" vol="193" key="59"/>
          <note len="24" pos="504" pan="0" vol="193" key="59"/>
          <note len="24" pos="504" pan="0" vol="193" key="54"/>
          <note len="24" pos="528" pan="0" vol="193" key="54"/>
          <note len="24" pos="528" pan="0" vol="193" key="50"/>
          <note len="24" pos="552" pan="0" vol="193" key="59"/>
          <note len="24" pos="552" pan="0" vol="193" key="54"/>
          <note len="24" pos="576" pan="0" vol="193" key="62"/>
          <note len="24" pos="576" pan="0" vol="193" key="59"/>
          <note len="24" pos="600" pan="0" vol="193" key="59"/>
          <note len="24" pos="600" pan="0" vol="193" key="54"/>
          <note len="24" pos="624" pan="0" vol="193" key="66"/>
          <note len="24" pos="624" pan="0" vol="193" key="62"/>
          <note len="24" pos="648" pan="0" vol="193" key="59"/>
          <note len="24" pos="648" pan="0" vol="193" key="54"/>
          <note len="24" pos="672" pan="0" vol="193" key="62"/>
          <note len="24" pos="672" pan="0" vol="193" key="59"/>
          <note len="24" pos="696" pan="0" vol="193" key="59"/>
          <note len="24" pos="696" pan="0" vol="193" key="54"/>
          <note len="24" pos="720" pan="0" vol="193" key="54"/>
          <note len="24" pos="720" pan="0" vol="193" key="50"/>
          <note len="24" pos="744" pan="0" vol="193" key="59"/>
          <note len="24" pos="744" pan="0" vol="193" key="54"/>
        </pattern>
        <pattern pos="11520" muted="0" steps="16" type="1" name="">
          <note len="24" pos="0" pan="0" vol="193" key="61"/>
          <note len="24" pos="0" pan="0" vol="193" key="57"/>
          <note len="24" pos="24" pan="0" vol="193" key="57"/>
          <note len="24" pos="24" pan="0" vol="193" key="52"/>
          <note len="24" pos="48" pan="0" vol="193" key="57"/>
          <note len="24" pos="48" pan="0" vol="193" key="52"/>
          <note len="24" pos="72" pan="0" vol="193" key="61"/>
          <note len="24" pos="72" pan="0" vol="193" key="57"/>
          <note len="24" pos="96" pan="0" vol="193" key="64"/>
          <note len="24" pos="96" pan="0" vol="193" key="61"/>
          <note len="24" pos="120" pan="0" vol="193" key="61"/>
          <note len="24" pos="120" pan="0" vol="193" key="57"/>
          <note len="24" pos="144" pan="0" vol="193" key="57"/>
          <note len="24" pos="144" pan="0" vol="193" key="52"/>
          <note len="24" pos="168" pan="0" vol="193" key="61"/>
          <note len="24" pos="168" pan="0" vol="193" key="57"/>
        </pattern>
        <pattern pos="11712" muted="0" steps="16" type="1" name="">
          <note len="24" pos="0" pan="0" vol="193" key="61"/>
          <note len="24" pos="0" pan="0" vol="193" key="56"/>
          <note len="24" pos="24" pan="0" vol="193" key="56"/>
          <note len="24" pos="24" pan="0" vol="193" key="53"/>
          <note len="24" pos="48" pan="0" vol="193" key="56"/>
          <note len="24" pos="48" pan="0" vol="193" key="53"/>
          <note len="24" pos="72" pan="0" vol="193" key="61"/>
          <note len="24" pos="72" pan="0" vol="193" key="56"/>
          <note len="24" pos="96" pan="0" vol="193" key="65"/>
          <note len="24" pos="96" pan="0" vol="193" key="61"/>
          <note len="24" pos="120" pan="0" vol="193" key="61"/>
          <note len="24" pos="120" pan="0" vol="193" key="56"/>
          <note len="24" pos="144" pan="0" vol="193" key="65"/>
          <note len="24" pos="144" pan="0" vol="193" key="56"/>
          <note len="24" pos="168" pan="0" vol="193" key="61"/>
          <note len="24" pos="168" pan="0" vol="193" key="56"/>
        </pattern>
        <pattern pos="11904" muted="0" steps="16" type="1" name="">
          <note len="24" pos="0" pan="0" vol="193" key="69"/>
          <note len="24" pos="0" pan="0" vol="193" key="66"/>
          <note len="24" pos="0" pan="0" vol="193" key="61"/>
          <note len="24" pos="24" pan="0" vol="193" key="66"/>
          <note len="24" pos="24" pan="0" vol="193" key="61"/>
          <note len="24" pos="24" pan="0" vol="193" key="57"/>
          <note len="24" pos="48" pan="0" vol="193" key="66"/>
          <note len="24" pos="48" pan="0" vol="193" key="61"/>
          <note len="24" pos="48" pan="0" vol="193" key="57"/>
          <note len="24" pos="72" pan="0" vol="193" key="73"/>
          <note len="24" pos="72" pan="0" vol="193" key="69"/>
          <note len="24" pos="72" pan="0" vol="193" key="66"/>
          <note len="24" pos="96" pan="0" vol="193" key="69"/>
          <note len="24" pos="96" pan="0" vol="193" key="66"/>
          <note len="24" pos="96" pan="0" vol="193" key="61"/>
          <note len="24" pos="120" pan="0" vol="193" key="66"/>
          <note len="24" pos="120" pan="0" vol="193" key="61"/>
          <note len="24" pos="120" pan="0" vol="193" key="57"/>
          <note len="24" pos="144" pan="0" vol="193" key="69"/>
          <note len="24" pos="144" pan="0" vol="193" key="66"/>
          <note len="24" pos="144" pan="0" vol="193" key="61"/>
          <note len="24" pos="168" pan="0" vol="193" key="66"/>
          <note len="24" pos="168" pan="0" vol="193" key="61"/>
          <note len="24" pos="168" pan="0" vol="193" key="57"/>
        </pattern>
        <pattern pos="12096" muted="0" steps="16" type="1" name="">
          <note len="24" pos="0" pan="0" vol="193" key="69"/>
          <note len="24" pos="0" pan="0" vol="193" key="66"/>
          <note len="24" pos="0" pan="0" vol="193" key="61"/>
          <note len="24" pos="24" pan="0" vol="193" key="66"/>
          <note len="24" pos="24" pan="0" vol="193" key="61"/>
          <note len="24" pos="24" pan="0" vol="193" key="57"/>
          <note len="24" pos="48" pan="0" vol="193" key="66"/>
          <note len="24" pos="48" pan="0" vol="193" key="61"/>
          <note len="24" pos="48" pan="0" vol="193" key="57"/>
          <note len="24" pos="72" pan="0" vol="193" key="73"/>
          <note len="24" pos="72" pan="0" vol="193" key="69"/>
          <note len="24" pos="72" pan="0" vol="193" key="66"/>
          <note len="24" pos="96" pan="0" vol="193" key="69"/>
          <note len="24" pos="96" pan="0" vol="193" key="66"/>
          <note len="24" pos="96" pan="0" vol="193" key="61"/>
          <note len="24" pos="120" pan="0" vol="193" key="66"/>
          <note len="24" pos="120" pan="0" vol="193" key="61"/>
          <note len="24" pos="120" pan="0" vol="193" key="57"/>
          <note len="24" pos="144" pan="0" vol="193" key="69"/>
          <note len="24" pos="144" pan="0" vol="193" key="66"/>
          <note len="24" pos="144" pan="0" vol="193" key="61"/>
          <note len="24" pos="168" pan="0" vol="193" key="66"/>
          <note len="24" pos="168" pan="0" vol="193" key="61"/>
          <note len="24" pos="168" pan="0" vol="193" key="57"/>
        </pattern>
        <pattern pos="15360" muted="0" steps="16" type="1" name="">
          <note len="24" pos="0" pan="0" vol="193" key="57"/>
          <note len="24" pos="0" pan="0" vol="193" key="54"/>
          <note len="24" pos="24" pan="0" vol="193" key="54"/>
          <note len="24" pos="24" pan="0" vol="193" key="49"/>
          <note len="24" pos="48" pan="0" vol="193" key="61"/>
          <note len="24" pos="48" pan="0" vol="193" key="57"/>
          <note len="24" pos="72" pan="0" vol="193" key="54"/>
          <note len="24" pos="72" pan="0" vol="193" key="49"/>
          <note len="24" pos="96" pan="0" vol="193" key="57"/>
          <note len="24" pos="96" pan="0" vol="193" key="54"/>
          <note len="24" pos="120" pan="0" vol="193" key="54"/>
          <note len="24" pos="120" pan="0" vol="193" key="49"/>
          <note len="24" pos="144" pan="0" vol="193" key="49"/>
          <note len="24" pos="144" pan="0" vol="193" key="45"/>
          <note len="24" pos="168" pan="0" vol="193" key="54"/>
          <note len="24" pos="168" pan="0" vol="193" key="49"/>
          <note len="24" pos="192" pan="0" vol="193" key="57"/>
          <note len="24" pos="192" pan="0" vol="193" key="54"/>
          <note len="24" pos="216" pan="0" vol="193" key="54"/>
          <note len="24" pos="216" pan="0" vol="193" key="49"/>
          <note len="24" pos="240" pan="0" vol="193" key="61"/>
          <note len="24" pos="240" pan="0" vol="193" key="57"/>
          <note len="24" pos="264" pan="0" vol="193" key="54"/>
          <note len="24" pos="264" pan="0" vol="193" key="49"/>
          <note len="24" pos="288" pan="0" vol="193" key="57"/>
          <note len="24" pos="288" pan="0" vol="193" key="54"/>
          <note len="24" pos="312" pan="0" vol="193" key="54"/>
          <note len="24" pos="312" pan="0" vol="193" key="49"/>
          <note len="24" pos="336" pan="0" vol="193" key="49"/>
          <note len="24" pos="336" pan="0" vol="193" key="45"/>
          <note len="24" pos="360" pan="0" vol="193" key="54"/>
          <note len="24" pos="360" pan="0" vol="193" key="49"/>
          <note len="24" pos="384" pan="0" vol="193" key="62"/>
          <note len="24" pos="384" pan="0" vol="193" key="59"/>
          <note len="24" pos="408" pan="0" vol="193" key="59"/>
          <note len="24" pos="408" pan="0" vol="193" key="54"/>
          <note len="24" pos="432" pan="0" vol="193" key="66"/>
          <note len="24" pos="432" pan="0" vol="193" key="62"/>
          <note len="24" pos="456" pan="0" vol="193" key="59"/>
          <note len="24" pos="456" pan="0" vol="193" key="54"/>
          <note len="24" pos="480" pan="0" vol="193" key="62"/>
          <note len="24" pos="480" pan="0" vol="193" key="59"/>
          <note len="24" pos="504" pan="0" vol="193" key="59"/>
          <note len="24" pos="504" pan="0" vol="193" key="54"/>
          <note len="24" pos="528" pan="0" vol="193" key="54"/>
          <note len="24" pos="528" pan="0" vol="193" key="50"/>
          <note len="24" pos="552" pan="0" vol="193" key="59"/>
          <note len="24" pos="552" pan="0" vol="193" key="54"/>
          <note len="24" pos="576" pan="0" vol="193" key="62"/>
          <note len="24" pos="576" pan="0" vol="193" key="59"/>
          <note len="24" pos="600" pan="0" vol="193" key="59"/>
          <note len="24" pos="600" pan="0" vol="193" key="54"/>
          <note len="24" pos="624" pan="0" vol="193" key="66"/>
          <note len="24" pos="624" pan="0" vol="193" key="62"/>
          <note len="24" pos="648" pan="0" vol="193" key="59"/>
          <note len="24" pos="648" pan="0" vol="193" key="54"/>
          <note len="24" pos="672" pan="0" vol="193" key="62"/>
          <note len="24" pos="672" pan="0" vol="193" key="59"/>
          <note len="24" pos="696" pan="0" vol="193" key="59"/>
          <note len="24" pos="696" pan="0" vol="193" key="54"/>
          <note len="24" pos="720" pan="0" vol="193" key="54"/>
          <note len="24" pos="720" pan="0" vol="193" key="50"/>
          <note len="24" pos="744" pan="0" vol="193" key="59"/>
          <note len="24" pos="744" pan="0" vol="193" key="54"/>
        </pattern>
        <pattern pos="16128" muted="0" steps="16" type="1" name="">
          <note len="24" pos="0" pan="0" vol="193" key="61"/>
          <note len="24" pos="0" pan="0" vol="193" key="57"/>
          <note len="24" pos="24" pan="0" vol="193" key="57"/>
          <note len="24" pos="24" pan="0" vol="193" key="52"/>
          <note len="24" pos="48" pan="0" vol="193" key="57"/>
          <note len="24" pos="48" pan="0" vol="193" key="52"/>
          <note len="24" pos="72" pan="0" vol="193" key="61"/>
          <note len="24" pos="72" pan="0" vol="193" key="57"/>
          <note len="24" pos="96" pan="0" vol="193" key="64"/>
          <note len="24" pos="96" pan="0" vol="193" key="61"/>
          <note len="24" pos="120" pan="0" vol="193" key="61"/>
          <note len="24" pos="120" pan="0" vol="193" key="57"/>
          <note len="24" pos="144" pan="0" vol="193" key="57"/>
          <note len="24" pos="144" pan="0" vol="193" key="52"/>
          <note len="24" pos="168" pan="0" vol="193" key="61"/>
          <note len="24" pos="168" pan="0" vol="193" key="57"/>
        </pattern>
        <pattern pos="16320" muted="0" steps="16" type="1" name="">
          <note len="24" pos="0" pan="0" vol="193" key="61"/>
          <note len="24" pos="0" pan="0" vol="193" key="56"/>
          <note len="24" pos="24" pan="0" vol="193" key="56"/>
          <note len="24" pos="24" pan="0" vol="193" key="53"/>
          <note len="24" pos="48" pan="0" vol="193" key="56"/>
          <note len="24" pos="48" pan="0" vol="193" key="53"/>
          <note len="24" pos="72" pan="0" vol="193" key="61"/>
          <note len="24" pos="72" pan="0" vol="193" key="56"/>
          <note len="24" pos="96" pan="0" vol="193" key="65"/>
          <note len="24" pos="96" pan="0" vol="193" key="61"/>
          <note len="24" pos="120" pan="0" vol="193" key="61"/>
          <note len="24" pos="120" pan="0" vol="193" key="56"/>
          <note len="24" pos="144" pan="0" vol="193" key="65"/>
          <note len="24" pos="144" pan="0" vol="193" key="56"/>
          <note len="24" pos="168" pan="0" vol="193" key="61"/>
          <note len="24" pos="168" pan="0" vol="193" key="56"/>
        </pattern>
        <pattern pos="16512" muted="0" steps="16" type="1" name="">
          <note len="24" pos="0" pan="0" vol="193" key="69"/>
          <note len="24" pos="0" pan="0" vol="193" key="66"/>
          <note len="24" pos="0" pan="0" vol="193" key="61"/>
          <note len="24" pos="24" pan="0" vol="193" key="66"/>
          <note len="24" pos="24" pan="0" vol="193" key="61"/>
          <note len="24" pos="24" pan="0" vol="193" key="57"/>
          <note len="24" pos="48" pan="0" vol="193" key="66"/>
          <note len="24" pos="48" pan="0" vol="193" key="61"/>
          <note len="24" pos="48" pan="0" vol="193" key="57"/>
          <note len="24" pos="72" pan="0" vol="193" key="73"/>
          <note len="24" pos="72" pan="0" vol="193" key="69"/>
          <note len="24" pos="72" pan="0" vol="193" key="66"/>
          <note len="24" pos="96" pan="0" vol="193" key="69"/>
          <note len="24" pos="96" pan="0" vol="193" key="66"/>
          <note len="24" pos="96" pan="0" vol="193" key="61"/>
          <note len="24" pos="120" pan="0" vol="193" key="66"/>
          <note len="24" pos="120" pan="0" vol="193" key="61"/>
          <note len="24" pos="120" pan="0" vol="193" key="57"/>
          <note len="24" pos="144" pan="0" vol="193" key="69"/>
          <note len="24" pos="144" pan="0" vol="193" key="66"/>
          <note len="24" pos="144" pan="0" vol="193" key="61"/>
          <note len="24" pos="168" pan="0" vol="193" key="66"/>
          <note len="24" pos="168" pan="0" vol="193" key="61"/>
          <note len="24" pos="168" pan="0" vol="193" key="57"/>
        </pattern>
        <pattern pos="16704" muted="0" steps="16" type="1" name="">
          <note len="24" pos="0" pan="0" vol="193" key="69"/>
          <note len="24" pos="0" pan="0" vol="193" key="66"/>
          <note len="24" pos="0" pan="0" vol="193" key="61"/>
          <note len="24" pos="72" pan="0" vol="193" key="73"/>
          <note len="24" pos="72" pan="0" vol="193" key="69"/>
          <note len="24" pos="72" pan="0" vol="193" key="66"/>
        </pattern>
        <pattern pos="16896" muted="0" steps="16" type="1" name="">
          <note len="24" pos="0" pan="0" vol="193" key="59"/>
          <note len="12" pos="0" pan="0" vol="193" key="1"/>
          <note len="24" pos="24" pan="0" vol="193" key="62"/>
          <note len="24" pos="48" pan="0" vol="193" key="61"/>
          <note len="24" pos="72" pan="0" vol="193" key="62"/>
          <note len="24" pos="96" pan="0" vol="193" key="59"/>
          <note len="24" pos="120" pan="0" vol="193" key="62"/>
          <note len="24" pos="144" pan="0" vol="193" key="61"/>
          <note len="24" pos="168" pan="0" vol="193" key="62"/>
          <note len="24" pos="192" pan="0" vol="193" key="52"/>
          <note len="24" pos="216" pan="0" vol="193" key="56"/>
          <note len="24" pos="240" pan="0" vol="193" key="54"/>
          <note len="24" pos="264" pan="0" vol="193" key="56"/>
          <note len="24" pos="288" pan="0" vol="193" key="52"/>
          <note len="24" pos="312" pan="0" vol="193" key="56"/>
          <note len="24" pos="336" pan="0" vol="193" key="54"/>
          <note len="24" pos="360" pan="0" vol="193" key="56"/>
          <note len="24" pos="384" pan="0" vol="193" key="57"/>
          <note len="24" pos="408" pan="0" vol="193" key="61"/>
          <note len="24" pos="432" pan="0" vol="193" key="59"/>
          <note len="24" pos="456" pan="0" vol="193" key="61"/>
          <note len="24" pos="480" pan="0" vol="193" key="57"/>
          <note len="24" pos="504" pan="0" vol="193" key="61"/>
          <note len="24" pos="528" pan="0" vol="193" key="59"/>
          <note len="24" pos="552" pan="0" vol="193" key="61"/>
          <note len="24" pos="576" pan="0" vol="193" key="50"/>
          <note len="24" pos="600" pan="0" vol="193" key="54"/>
          <note len="24" pos="624" pan="0" vol="193" key="52"/>
          <note len="24" pos="648" pan="0" vol="193" key="54"/>
          <note len="24" pos="672" pan="0" vol="193" key="50"/>
          <note len="24" pos="696" pan="0" vol="193" key="54"/>
          <note len="24" pos="720" pan="0" vol="193" key="52"/>
          <note len="24" pos="744" pan="0" vol="193" key="54"/>
          <note len="24" pos="768" pan="0" vol="193" key="56"/>
          <note len="24" pos="792" pan="0" vol="193" key="59"/>
          <note len="24" pos="816" pan="0" vol="193" key="57"/>
          <note len="24" pos="840" pan="0" vol="193" key="59"/>
          <note len="24" pos="864" pan="0" vol="193" key="53"/>
          <note len="24" pos="888" pan="0" vol="193" key="56"/>
          <note len="24" pos="912" pan="0" vol="193" key="54"/>
          <note len="24" pos="936" pan="0" vol="193" key="56"/>
          <note len="24" pos="960" pan="0" vol="193" key="0"/>
          <note len="24" pos="984" pan="0" vol="193" key="1"/>
          <note len="24" pos="1032" pan="0" vol="193" key="0"/>
          <note len="24" pos="1056" pan="0" vol="193" key="1"/>
          <note len="24" pos="1152" pan="0" vol="193" key="0"/>
          <note len="24" pos="1176" pan="0" vol="193" key="1"/>
          <note len="24" pos="1248" pan="0" vol="193" key="0"/>
          <note len="24" pos="1296" pan="0" vol="193" key="1"/>
          <note len="24" pos="1344" pan="0" vol="193" key="0"/>
          <note len="24" pos="1368" pan="0" vol="193" key="1"/>
          <note len="24" pos="1392" pan="0" vol="193" key="0"/>
          <note len="24" pos="1416" pan="0" vol="193" key="1"/>
          <note len="24" pos="1440" pan="0" vol="193" key="0"/>
          <note len="24" pos="1488" pan="0" vol="193" key="1"/>
        </pattern>
        <pattern pos="19968" muted="0" steps="16" type="1" name="">
          <note len="12" pos="0" pan="0" vol="195" key="50"/>
          <note len="12" pos="12" pan="0" vol="195" key="49"/>
          <note len="12" pos="24" pan="0" vol="195" key="48"/>
          <note len="12" pos="36" pan="0" vol="195" key="49"/>
          <note len="12" pos="48" pan="0" vol="195" key="50"/>
          <note len="12" pos="60" pan="0" vol="195" key="49"/>
          <note len="12" pos="72" pan="0" vol="195" key="48"/>
          <note len="12" pos="84" pan="0" vol="195" key="49"/>
        </pattern>
        <pattern pos="20160" muted="0" steps="16" type="1" name="">
          <note len="12" pos="0" pan="0" vol="197" key="66"/>
          <note len="12" pos="12" pan="0" vol="197" key="65"/>
          <note len="12" pos="24" pan="0" vol="197" key="61"/>
          <note len="12" pos="36" pan="0" vol="197" key="65"/>
          <note len="12" pos="48" pan="0" vol="197" key="66"/>
          <note len="12" pos="60" pan="0" vol="197" key="65"/>
          <note len="12" pos="72" pan="0" vol="197" key="61"/>
          <note len="12" pos="84" pan="0" vol="197" key="65"/>
        </pattern>
        <pattern pos="20352" muted="0" steps="16" type="1" name="">
          <note len="12" pos="0" pan="0" vol="195" key="74"/>
          <note len="12" pos="12" pan="0" vol="195" key="73"/>
          <note len="12" pos="24" pan="0" vol="195" key="71"/>
          <note len="12" pos="36" pan="0" vol="195" key="69"/>
          <note len="12" pos="48" pan="0" vol="195" key="73"/>
          <note len="12" pos="60" pan="0" vol="195" key="71"/>
          <note len="12" pos="72" pan="0" vol="195" key="69"/>
          <note len="12" pos="84" pan="0" vol="195" key="68"/>
          <note len="12" pos="96" pan="0" vol="195" key="71"/>
          <note len="12" pos="108" pan="0" vol="195" key="69"/>
          <note len="12" pos="120" pan="0" vol="195" key="68"/>
          <note len="12" pos="132" pan="0" vol="195" key="66"/>
          <note len="12" pos="144" pan="0" vol="195" key="69"/>
          <note len="12" pos="156" pan="0" vol="195" key="68"/>
          <note len="12" pos="168" pan="0" vol="195" key="66"/>
          <note len="12" pos="180" pan="0" vol="195" key="65"/>
          <note len="12" pos="192" pan="0" vol="193" key="66"/>
          <note len="12" pos="204" pan="0" vol="193" key="65"/>
          <note len="12" pos="216" pan="0" vol="193" key="62"/>
          <note len="12" pos="228" pan="0" vol="193" key="65"/>
          <note len="12" pos="240" pan="0" vol="193" key="66"/>
          <note len="12" pos="252" pan="0" vol="193" key="68"/>
          <note len="12" pos="264" pan="0" vol="193" key="69"/>
          <note len="12" pos="276" pan="0" vol="193" key="71"/>
          <note len="12" pos="288" pan="0" vol="193" key="73"/>
          <note len="12" pos="300" pan="0" vol="193" key="68"/>
          <note len="12" pos="312" pan="0" vol="193" key="65"/>
          <note len="12" pos="324" pan="0" vol="193" key="61"/>
          <note len="12" pos="336" pan="0" vol="193" key="56"/>
          <note len="12" pos="348" pan="0" vol="193" key="61"/>
          <note len="12" pos="360" pan="0" vol="193" key="65"/>
          <note len="12" pos="372" pan="0" vol="193" key="68"/>
        </pattern>
        <pattern pos="28224" muted="0" steps="16" type="1" name="">
          <note len="12" pos="0" pan="0" vol="193" key="50"/>
          <note len="12" pos="0" pan="0" vol="193" key="0"/>
          <note len="12" pos="12" pan="0" vol="193" key="49"/>
          <note len="12" pos="24" pan="0" vol="193" key="47"/>
          <note len="12" pos="24" pan="0" vol="193" key="1"/>
          <note len="12" pos="36" pan="0" vol="193" key="49"/>
          <note len="12" pos="48" pan="0" vol="193" key="50"/>
          <note len="12" pos="60" pan="0" vol="193" key="49"/>
          <note len="12" pos="72" pan="0" vol="193" key="50"/>
          <note len="12" pos="84" pan="0" vol="193" key="53"/>
          <note len="12" pos="96" pan="0" vol="193" key="54"/>
          <note len="12" pos="108" pan="0" vol="193" key="56"/>
          <note len="12" pos="120" pan="0" vol="193" key="57"/>
          <note len="12" pos="132" pan="0" vol="193" key="59"/>
          <note len="12" pos="144" pan="0" vol="193" key="61"/>
          <note len="12" pos="156" pan="0" vol="193" key="60"/>
          <note len="12" pos="168" pan="0" vol="193" key="61"/>
          <note len="12" pos="168" pan="0" vol="193" key="0"/>
          <note len="12" pos="180" pan="0" vol="193" key="65"/>
        </pattern>
      </track>
      <track muted="0" solo="0" type="0" name="Orchestra Soundfont 2 COMBO">
        <instrumenttrack basenote="57" pitch="0" pitchrange="1" pan="0" usemasterpitch="1" fxch="17" vol="64.8">
          <instrument name="sf2player">
            <sf2player chorusLevel="2" reverbRoomSize="0.2" reverbDamping="0" reverbWidth="0.5" reverbLevel="0.9" gain="0.76" reverbOn="0" patch="52" bank="0" chorusNum="3" chorusSpeed="0.3" chorusOn="0" src="/home/pass/samples/soundfonts/Orchestra Soundfont 2 COMBO.sf2" chorusDepth="8"/>
          </instrument>
          <eldata fwet="0" ftype="0" fcut="14000" fres="0.5">
            <elvol lspd_denominator="4" lamt="0" amt="0" dec="0.5" hold="0.5" lshp="0" ctlenvamt="0" lspd="0.1" rel="0.1" pdel="0" lspd_syncmode="0" att="0" sustain="0.5" userwavefile="" latt="0" lspd_numerator="4" lpdel="0" x100="0"/>
            <elcut lspd_denominator="4" lamt="0" amt="0" dec="0.5" hold="0.5" lshp="0" ctlenvamt="0" lspd="0.1" rel="0.1" pdel="0" lspd_syncmode="0" att="0" sustain="0.5" userwavefile="" latt="0" lspd_numerator="4" lpdel="0" x100="0"/>
            <elres lspd_denominator="4" lamt="0" amt="0" dec="0.5" hold="0.5" lshp="0" ctlenvamt="0" lspd="0.1" rel="0.1" pdel="0" lspd_syncmode="0" att="0" sustain="0.5" userwavefile="" latt="0" lspd_numerator="4" lpdel="0" x100="0"/>
          </eldata>
          <chordcreator chordrange="1" chord-enabled="0" chord="0"/>
          <arpeggiator arptime_syncmode="0" arptime="200" arptime_denominator="4" arpdir="0" arp="0" arpmode="0" arpcycle="0" arpmiss="0" arptime_numerator="4" arprange="1" arp-enabled="0" arpskip="0" arpgate="100"/>
          <midiport inputcontroller="0" outputchannel="1" outputprogram="1" readable="0" outputcontroller="0" fixedoutputvelocity="-1" fixedoutputnote="-1" fixedinputvelocity="-1" writable="0" inputchannel="0" basevelocity="63"/>
          <fxchain enabled="0" numofeffects="0"/>
        </instrumenttrack>
        <pattern pos="6144" muted="0" steps="16" type="0" name="Orchestra Soundfont 2 COMBO"/>
        <pattern pos="20736" muted="0" steps="16" type="1" name="">
          <note len="192" pos="0" pan="0" vol="195" key="57"/>
          <note len="192" pos="0" pan="0" vol="195" key="54"/>
          <note len="192" pos="0" pan="0" vol="195" key="49"/>
          <note len="192" pos="192" pan="0" vol="195" key="56"/>
          <note len="192" pos="192" pan="0" vol="195" key="53"/>
          <note len="192" pos="192" pan="0" vol="195" key="49"/>
          <note len="192" pos="384" pan="0" vol="195" key="56"/>
          <note len="192" pos="384" pan="0" vol="195" key="52"/>
          <note len="192" pos="384" pan="0" vol="195" key="47"/>
          <note len="192" pos="576" pan="0" vol="195" key="54"/>
          <note len="192" pos="576" pan="0" vol="195" key="51"/>
          <note len="192" pos="576" pan="0" vol="195" key="47"/>
          <note len="192" pos="768" pan="0" vol="195" key="54"/>
          <note len="192" pos="768" pan="0" vol="195" key="50"/>
          <note len="192" pos="768" pan="0" vol="195" key="45"/>
          <note len="192" pos="960" pan="0" vol="195" key="54"/>
          <note len="192" pos="960" pan="0" vol="195" key="49"/>
          <note len="192" pos="960" pan="0" vol="195" key="45"/>
          <note len="192" pos="1152" pan="0" vol="195" key="53"/>
          <note len="192" pos="1152" pan="0" vol="195" key="48"/>
          <note len="192" pos="1152" pan="0" vol="195" key="44"/>
          <note len="192" pos="1344" pan="0" vol="195" key="53"/>
          <note len="192" pos="1344" pan="0" vol="195" key="49"/>
          <note len="192" pos="1344" pan="0" vol="195" key="44"/>
        </pattern>
        <pattern pos="22272" muted="0" steps="16" type="1" name="">
          <note len="192" pos="0" pan="0" vol="195" key="73"/>
          <note len="192" pos="0" pan="0" vol="195" key="69"/>
          <note len="192" pos="0" pan="0" vol="195" key="66"/>
          <note len="192" pos="192" pan="0" vol="195" key="73"/>
          <note len="192" pos="192" pan="0" vol="195" key="68"/>
          <note len="192" pos="192" pan="0" vol="195" key="65"/>
          <note len="192" pos="384" pan="0" vol="195" key="71"/>
          <note len="192" pos="384" pan="0" vol="195" key="68"/>
          <note len="192" pos="384" pan="0" vol="195" key="64"/>
          <note len="192" pos="576" pan="0" vol="195" key="71"/>
          <note len="192" pos="576" pan="0" vol="195" key="66"/>
          <note len="192" pos="576" pan="0" vol="195" key="63"/>
          <note len="192" pos="768" pan="0" vol="195" key="69"/>
          <note len="192" pos="768" pan="0" vol="195" key="66"/>
          <note len="192" pos="768" pan="0" vol="195" key="62"/>
          <note len="192" pos="960" pan="0" vol="195" key="73"/>
          <note len="192" pos="960" pan="0" vol="195" key="69"/>
          <note len="192" pos="960" pan="0" vol="195" key="66"/>
          <note len="192" pos="1152" pan="0" vol="195" key="72"/>
          <note len="192" pos="1152" pan="0" vol="195" key="68"/>
          <note len="192" pos="1152" pan="0" vol="195" key="65"/>
          <note len="192" pos="1344" pan="0" vol="195" key="73"/>
          <note len="192" pos="1344" pan="0" vol="195" key="68"/>
          <note len="192" pos="1344" pan="0" vol="195" key="65"/>
        </pattern>
        <pattern pos="8448" muted="0" steps="16" type="1" name="Orchestra Soundfont 2 COMBO">
          <note len="384" pos="0" pan="0" vol="195" key="66"/>
          <note len="384" pos="0" pan="0" vol="195" key="62"/>
          <note len="384" pos="384" pan="0" vol="195" key="68"/>
          <note len="192" pos="384" pan="0" vol="195" key="64"/>
          <note len="192" pos="576" pan="0" vol="195" key="65"/>
        </pattern>
        <pattern pos="12288" muted="0" steps="16" type="1" name="Orchestra Soundfont 2 COMBO">
          <note len="384" pos="0" pan="0" vol="195" key="69"/>
          <note len="384" pos="0" pan="0" vol="195" key="66"/>
          <note len="384" pos="0" pan="0" vol="195" key="61"/>
          <note len="384" pos="384" pan="0" vol="195" key="68"/>
          <note len="384" pos="384" pan="0" vol="195" key="64"/>
          <note len="384" pos="384" pan="0" vol="195" key="61"/>
        </pattern>
        <pattern pos="13056" muted="0" steps="16" type="1" name="">
          <note len="384" pos="0" pan="0" vol="195" key="69"/>
          <note len="384" pos="0" pan="0" vol="195" key="66"/>
          <note len="384" pos="0" pan="0" vol="195" key="61"/>
          <note len="384" pos="384" pan="0" vol="195" key="68"/>
          <note len="384" pos="384" pan="0" vol="195" key="64"/>
          <note len="384" pos="384" pan="0" vol="195" key="61"/>
        </pattern>
      </track>
      <track muted="0" solo="0" type="0" name="TripleOscillator">
        <instrumenttrack basenote="57" pitch="0" pitchrange="1" pan="0" usemasterpitch="1" fxch="0" vol="100.8">
          <instrument name="tripleoscillator">
            <tripleoscillator pan0="0" modalgo2="2" userwavefile0="" userwavefile1="" finer2="0" phoffset2="0" stphdetun1="0" phoffset0="0" pan1="0" finel2="0" wavetype2="0" modalgo1="2" vol0="33" wavetype0="3" vol1="0" phoffset1="0" wavetype1="0" pan2="0" userwavefile2="" coarse0="0" modalgo3="2" coarse1="-12" finel1="0" stphdetun2="0" finer1="0" finer0="0" coarse2="-24" stphdetun0="0" finel0="0" vol2="0"/>
          </instrument>
          <eldata fwet="1" ftype="0" fcut="7840" fres="0.18">
            <elvol lspd_denominator="4" lamt="0" amt="0" dec="0.5" hold="0.5" lshp="0" ctlenvamt="0" lspd="0.1" rel="0.1" pdel="0" lspd_syncmode="0" att="0" sustain="0.5" userwavefile="" latt="0" lspd_numerator="4" lpdel="0" x100="0"/>
            <elcut lspd_denominator="4" lamt="0" amt="0" dec="0.5" hold="0.5" lshp="0" ctlenvamt="0" lspd="0.1" rel="0.1" pdel="0" lspd_syncmode="0" att="0" sustain="0.5" userwavefile="" latt="0" lspd_numerator="4" lpdel="0" x100="0"/>
            <elres lspd_denominator="4" lamt="0" amt="0" dec="0.5" hold="0.5" lshp="0" ctlenvamt="0" lspd="0.1" rel="0.1" pdel="0" lspd_syncmode="0" att="0" sustain="0.5" userwavefile="" latt="0" lspd_numerator="4" lpdel="0" x100="0"/>
          </eldata>
          <chordcreator chordrange="1" chord-enabled="0" chord="0"/>
          <arpeggiator arptime_syncmode="0" arptime="200" arptime_denominator="4" arpdir="0" arp="0" arpmode="0" arpcycle="0" arpmiss="0" arptime_numerator="4" arprange="1" arp-enabled="0" arpskip="0" arpgate="100"/>
          <midiport inputcontroller="0" outputchannel="1" outputprogram="1" readable="0" outputcontroller="0" fixedoutputvelocity="-1" fixedoutputnote="-1" fixedinputvelocity="-1" writable="0" inputchannel="0" basevelocity="63"/>
          <fxchain enabled="0" numofeffects="0"/>
        </instrumenttrack>
      </track>
      <track muted="0" solo="0" type="0" name="Mystery Dungeon">
        <instrumenttrack basenote="57" pitch="0" pitchrange="1" pan="-32" usemasterpitch="1" fxch="0" vol="39.3">
          <instrument name="sf2player">
            <sf2player chorusLevel="2" reverbRoomSize="0.2" reverbDamping="0" reverbWidth="0.5" reverbLevel="0.9" gain="1" reverbOn="0" patch="5" bank="0" chorusNum="3" chorusSpeed="0.3" chorusOn="0" src="/home/pass/samples/soundfonts/Mystery Dungeon.sf2" chorusDepth="8"/>
          </instrument>
          <eldata fwet="0" ftype="0" fcut="14000" fres="0.5">
            <elvol lspd_denominator="4" lamt="0" amt="0" dec="0.5" hold="0.5" lshp="0" ctlenvamt="0" lspd="0.1" rel="0.1" pdel="0" lspd_syncmode="0" att="0" sustain="0.5" userwavefile="" latt="0" lspd_numerator="4" lpdel="0" x100="0"/>
            <elcut lspd_denominator="4" lamt="0" amt="0" dec="0.5" hold="0.5" lshp="0" ctlenvamt="0" lspd="0.1" rel="0.1" pdel="0" lspd_syncmode="0" att="0" sustain="0.5" userwavefile="" latt="0" lspd_numerator="4" lpdel="0" x100="0"/>
            <elres lspd_denominator="4" lamt="0" amt="0" dec="0.5" hold="0.5" lshp="0" ctlenvamt="0" lspd="0.1" rel="0.1" pdel="0" lspd_syncmode="0" att="0" sustain="0.5" userwavefile="" latt="0" lspd_numerator="4" lpdel="0" x100="0"/>
          </eldata>
          <chordcreator chordrange="1" chord-enabled="0" chord="0"/>
          <arpeggiator arptime_syncmode="0" arptime="200" arptime_denominator="4" arpdir="0" arp="0" arpmode="0" arpcycle="0" arpmiss="0" arptime_numerator="4" arprange="1" arp-enabled="0" arpskip="0" arpgate="100"/>
          <midiport inputcontroller="0" outputchannel="1" outputprogram="1" readable="0" outputcontroller="0" fixedoutputvelocity="-1" fixedoutputnote="-1" fixedinputvelocity="-1" writable="0" inputchannel="0" basevelocity="63"/>
          <fxchain enabled="0" numofeffects="0"/>
        </instrumenttrack>
        <pattern pos="12288" muted="0" steps="16" type="1" name="Mystery Dungeon">
          <note len="24" pos="0" pan="0" vol="193" key="66"/>
          <note len="24" pos="24" pan="0" vol="193" key="61"/>
          <note len="24" pos="48" pan="0" vol="193" key="59"/>
          <note len="24" pos="72" pan="0" vol="193" key="61"/>
          <note len="24" pos="96" pan="0" vol="193" key="57"/>
          <note len="24" pos="120" pan="0" vol="193" key="54"/>
          <note len="24" pos="144" pan="0" vol="193" key="57"/>
          <note len="24" pos="168" pan="0" vol="193" key="61"/>
          <note len="24" pos="192" pan="0" vol="193" key="59"/>
          <note len="24" pos="216" pan="0" vol="193" key="61"/>
          <note len="24" pos="240" pan="0" vol="193" key="59"/>
          <note len="24" pos="264" pan="0" vol="193" key="61"/>
          <note len="24" pos="288" pan="0" vol="193" key="66"/>
          <note len="24" pos="312" pan="0" vol="193" key="61"/>
          <note len="24" pos="336" pan="0" vol="193" key="59"/>
          <note len="24" pos="360" pan="0" vol="193" key="61"/>
        </pattern>
        <pattern pos="12672" muted="0" steps="16" type="1" name="Mystery Dungeon">
          <note len="24" pos="0" pan="0" vol="193" key="64"/>
          <note len="24" pos="24" pan="0" vol="193" key="61"/>
          <note len="24" pos="48" pan="0" vol="193" key="59"/>
          <note len="24" pos="72" pan="0" vol="193" key="61"/>
          <note len="24" pos="96" pan="0" vol="193" key="56"/>
          <note len="24" pos="120" pan="0" vol="193" key="52"/>
          <note len="24" pos="144" pan="0" vol="193" key="56"/>
          <note len="24" pos="168" pan="0" vol="193" key="61"/>
          <note len="24" pos="192" pan="0" vol="193" key="59"/>
          <note len="24" pos="216" pan="0" vol="193" key="61"/>
          <note len="24" pos="240" pan="0" vol="193" key="59"/>
          <note len="24" pos="264" pan="0" vol="193" key="61"/>
          <note len="24" pos="288" pan="0" vol="193" key="64"/>
          <note len="24" pos="312" pan="0" vol="193" key="61"/>
          <note len="24" pos="336" pan="0" vol="193" key="59"/>
          <note len="24" pos="360" pan="0" vol="193" key="61"/>
        </pattern>
        <pattern pos="13056" muted="0" steps="16" type="1" name="Mystery Dungeon">
          <note len="24" pos="0" pan="0" vol="193" key="66"/>
          <note len="24" pos="24" pan="0" vol="193" key="61"/>
          <note len="24" pos="48" pan="0" vol="193" key="59"/>
          <note len="24" pos="72" pan="0" vol="193" key="61"/>
          <note len="24" pos="96" pan="0" vol="193" key="57"/>
          <note len="24" pos="120" pan="0" vol="193" key="54"/>
          <note len="24" pos="144" pan="0" vol="193" key="57"/>
          <note len="24" pos="168" pan="0" vol="193" key="61"/>
          <note len="24" pos="192" pan="0" vol="193" key="59"/>
          <note len="24" pos="216" pan="0" vol="193" key="61"/>
          <note len="24" pos="240" pan="0" vol="193" key="59"/>
          <note len="24" pos="264" pan="0" vol="193" key="61"/>
          <note len="24" pos="288" pan="0" vol="193" key="66"/>
          <note len="24" pos="312" pan="0" vol="193" key="61"/>
          <note len="24" pos="336" pan="0" vol="193" key="59"/>
          <note len="24" pos="360" pan="0" vol="193" key="61"/>
        </pattern>
        <pattern pos="13440" muted="0" steps="16" type="1" name="Mystery Dungeon">
          <note len="24" pos="0" pan="0" vol="193" key="64"/>
          <note len="24" pos="24" pan="0" vol="193" key="61"/>
          <note len="24" pos="48" pan="0" vol="193" key="59"/>
          <note len="24" pos="72" pan="0" vol="193" key="61"/>
          <note len="24" pos="96" pan="0" vol="193" key="56"/>
          <note len="24" pos="120" pan="0" vol="193" key="52"/>
          <note len="24" pos="144" pan="0" vol="193" key="56"/>
          <note len="24" pos="168" pan="0" vol="193" key="61"/>
          <note len="24" pos="192" pan="0" vol="193" key="59"/>
          <note len="24" pos="216" pan="0" vol="193" key="61"/>
          <note len="24" pos="240" pan="0" vol="193" key="59"/>
          <note len="24" pos="264" pan="0" vol="193" key="61"/>
          <note len="24" pos="288" pan="0" vol="193" key="64"/>
          <note len="24" pos="312" pan="0" vol="193" key="61"/>
          <note len="24" pos="336" pan="0" vol="193" key="59"/>
          <note len="24" pos="360" pan="0" vol="193" key="61"/>
        </pattern>
      </track>
      <track muted="0" solo="0" type="0" name="md choir">
        <instrumenttrack basenote="57" pitch="0" pitchrange="1" pan="14.4" usemasterpitch="1" fxch="19" vol="31.4">
          <instrument name="sf2player">
            <sf2player chorusLevel="2" reverbRoomSize="0.2" reverbDamping="0" reverbWidth="0.5" reverbLevel="0.9" gain="1" reverbOn="0" patch="4" bank="0" chorusNum="3" chorusSpeed="0.3" chorusOn="0" src="/home/pass/samples/soundfonts/Mystery Dungeon.sf2" chorusDepth="8"/>
          </instrument>
          <eldata fwet="0" ftype="0" fcut="14000" fres="0.5">
            <elvol lspd_denominator="4" lamt="0" amt="0" dec="0.5" hold="0.5" lshp="0" ctlenvamt="0" lspd="0.1" rel="0.1" pdel="0" lspd_syncmode="0" att="0" sustain="0.5" userwavefile="" latt="0" lspd_numerator="4" lpdel="0" x100="0"/>
            <elcut lspd_denominator="4" lamt="0" amt="0" dec="0.5" hold="0.5" lshp="0" ctlenvamt="0" lspd="0.1" rel="0.1" pdel="0" lspd_syncmode="0" att="0" sustain="0.5" userwavefile="" latt="0" lspd_numerator="4" lpdel="0" x100="0"/>
            <elres lspd_denominator="4" lamt="0" amt="0" dec="0.5" hold="0.5" lshp="0" ctlenvamt="0" lspd="0.1" rel="0.1" pdel="0" lspd_syncmode="0" att="0" sustain="0.5" userwavefile="" latt="0" lspd_numerator="4" lpdel="0" x100="0"/>
          </eldata>
          <chordcreator chordrange="1" chord-enabled="0" chord="0"/>
          <arpeggiator arptime_syncmode="0" arptime="200" arptime_denominator="4" arpdir="0" arp="0" arpmode="0" arpcycle="0" arpmiss="0" arptime_numerator="4" arprange="1" arp-enabled="0" arpskip="0" arpgate="100"/>
          <midiport inputcontroller="0" outputchannel="1" outputprogram="1" readable="0" outputcontroller="0" fixedoutputvelocity="-1" fixedoutputnote="-1" fixedinputvelocity="-1" writable="0" inputchannel="0" basevelocity="63"/>
          <fxchain enabled="0" numofeffects="0"/>
        </instrumenttrack>
        <pattern pos="12288" muted="0" steps="16" type="1" name="md choir">
          <note len="384" pos="0" pan="0" vol="195" key="69"/>
          <note len="384" pos="0" pan="0" vol="195" key="66"/>
          <note len="384" pos="0" pan="0" vol="195" key="61"/>
          <note len="384" pos="384" pan="0" vol="195" key="68"/>
          <note len="384" pos="384" pan="0" vol="195" key="64"/>
          <note len="384" pos="384" pan="0" vol="195" key="61"/>
        </pattern>
        <pattern pos="13056" muted="0" steps="16" type="1" name="">
          <note len="384" pos="0" pan="0" vol="195" key="69"/>
          <note len="384" pos="0" pan="0" vol="195" key="66"/>
          <note len="384" pos="0" pan="0" vol="195" key="61"/>
          <note len="384" pos="384" pan="0" vol="195" key="73"/>
          <note len="384" pos="384" pan="0" vol="195" key="68"/>
          <note len="384" pos="384" pan="0" vol="195" key="64"/>
        </pattern>
        <pattern pos="20736" muted="0" steps="16" type="1" name="">
          <note len="192" pos="0" pan="0" vol="195" key="57"/>
          <note len="192" pos="0" pan="0" vol="195" key="54"/>
          <note len="192" pos="0" pan="0" vol="195" key="49"/>
          <note len="192" pos="192" pan="0" vol="195" key="56"/>
          <note len="192" pos="192" pan="0" vol="195" key="53"/>
          <note len="192" pos="192" pan="0" vol="195" key="49"/>
          <note len="192" pos="384" pan="0" vol="195" key="56"/>
          <note len="192" pos="384" pan="0" vol="195" key="52"/>
          <note len="192" pos="384" pan="0" vol="195" key="47"/>
          <note len="192" pos="576" pan="0" vol="195" key="54"/>
          <note len="192" pos="576" pan="0" vol="195" key="51"/>
          <note len="192" pos="576" pan="0" vol="195" key="47"/>
          <note len="192" pos="768" pan="0" vol="195" key="54"/>
          <note len="192" pos="768" pan="0" vol="195" key="50"/>
          <note len="192" pos="768" pan="0" vol="195" key="45"/>
          <note len="192" pos="960" pan="0" vol="195" key="54"/>
          <note len="192" pos="960" pan="0" vol="195" key="49"/>
          <note len="192" pos="960" pan="0" vol="195" key="45"/>
          <note len="192" pos="1152" pan="0" vol="195" key="53"/>
          <note len="192" pos="1152" pan="0" vol="195" key="48"/>
          <note len="192" pos="1152" pan="0" vol="195" key="44"/>
          <note len="192" pos="1344" pan="0" vol="195" key="53"/>
          <note len="192" pos="1344" pan="0" vol="195" key="49"/>
          <note len="192" pos="1344" pan="0" vol="195" key="44"/>
        </pattern>
        <pattern pos="22272" muted="0" steps="16" type="1" name="">
          <note len="192" pos="0" pan="0" vol="195" key="73"/>
          <note len="192" pos="0" pan="0" vol="195" key="69"/>
          <note len="192" pos="0" pan="0" vol="195" key="66"/>
          <note len="192" pos="192" pan="0" vol="195" key="73"/>
          <note len="192" pos="192" pan="0" vol="195" key="68"/>
          <note len="192" pos="192" pan="0" vol="195" key="65"/>
          <note len="192" pos="384" pan="0" vol="195" key="71"/>
          <note len="192" pos="384" pan="0" vol="195" key="68"/>
          <note len="192" pos="384" pan="0" vol="195" key="64"/>
          <note len="192" pos="576" pan="0" vol="195" key="71"/>
          <note len="192" pos="576" pan="0" vol="195" key="66"/>
          <note len="192" pos="576" pan="0" vol="195" key="63"/>
          <note len="192" pos="768" pan="0" vol="195" key="69"/>
          <note len="192" pos="768" pan="0" vol="195" key="66"/>
          <note len="192" pos="768" pan="0" vol="195" key="62"/>
          <note len="192" pos="960" pan="0" vol="195" key="73"/>
          <note len="192" pos="960" pan="0" vol="195" key="69"/>
          <note len="192" pos="960" pan="0" vol="195" key="66"/>
          <note len="192" pos="1152" pan="0" vol="195" key="72"/>
          <note len="192" pos="1152" pan="0" vol="195" key="68"/>
          <note len="192" pos="1152" pan="0" vol="195" key="65"/>
          <note len="192" pos="1344" pan="0" vol="195" key="73"/>
          <note len="192" pos="1344" pan="0" vol="195" key="68"/>
          <note len="192" pos="1344" pan="0" vol="195" key="65"/>
        </pattern>
      </track>
      <track muted="0" solo="0" type="0" name="alter_ego">
        <instrumenttrack basenote="57" pitch="0" pitchrange="1" pan="0" usemasterpitch="1" fxch="0" vol="100">
          <instrument name="audiofileprocessor">
            <audiofileprocessor looped="0" lframe="0" sampledata="AAAAAAAAAAA=" reversed="0" eframe="1" stutter="0" sframe="0" interp="1" src="" amp="100"/>
          </instrument>
          <eldata fwet="0" ftype="0" fcut="14000" fres="0.5">
            <elvol lspd_denominator="4" lamt="0" amt="0" dec="0.5" hold="0.5" lshp="0" ctlenvamt="0" lspd="0.1" rel="0.1" pdel="0" lspd_syncmode="0" att="0" sustain="0.5" userwavefile="" latt="0" lspd_numerator="4" lpdel="0" x100="0"/>
            <elcut lspd_denominator="4" lamt="0" amt="0" dec="0.5" hold="0.5" lshp="0" ctlenvamt="0" lspd="0.1" rel="0.1" pdel="0" lspd_syncmode="0" att="0" sustain="0.5" userwavefile="" latt="0" lspd_numerator="4" lpdel="0" x100="0"/>
            <elres lspd_denominator="4" lamt="0" amt="0" dec="0.5" hold="0.5" lshp="0" ctlenvamt="0" lspd="0.1" rel="0.1" pdel="0" lspd_syncmode="0" att="0" sustain="0.5" userwavefile="" latt="0" lspd_numerator="4" lpdel="0" x100="0"/>
          </eldata>
          <chordcreator chordrange="1" chord-enabled="0" chord="0"/>
          <arpeggiator arptime_syncmode="0" arptime="200" arptime_denominator="4" arpdir="0" arp="0" arpmode="0" arpcycle="0" arpmiss="0" arptime_numerator="4" arprange="1" arp-enabled="0" arpskip="0" arpgate="100"/>
          <midiport inputcontroller="0" outports="14:0 Midi Through:Midi Through Port-0" outputchannel="4" outputprogram="1" readable="0" outputcontroller="0" fixedoutputvelocity="127" fixedoutputnote="-1" fixedinputvelocity="-1" writable="1" inputchannel="0" basevelocity="63"/>
          <fxchain enabled="0" numofeffects="0"/>
        </instrumenttrack>
      </track>
      <track muted="1" solo="0" type="2" name="rgt">
        <sampletrack pan="0" vol="150.1">
          <fxchain enabled="1" numofeffects="1">
            <effect autoquit_syncmode="0" autoquit="1" on="1" autoquit_numerator="4" autoquit_denominator="4" wet="1" gate="0" name="eq">
              <Eq HP12="1" Peak4bw="0.3" HighShelfres="1.4" Peak2active="0" HP48="0" LP24="0" Outputgain="0" AnalyseOut="1" Peak3bw="0.3" HighShelfgain="0" Peak3gain="0" LowShelfres="1.4" LPres="0.707" LPactive="1" LP="0" AnalyseIn="1" Highshelfactive="0" Peak4active="0" Peak1active="0" Peak2gain="0" HPres="0.707" HP24="0" Peak4gain="0" Peak1bw="0.3" Peak2bw="0.3" HP="0" LP48="0" LP12="1" Peak3active="0" Lowshelfgain="0" HPactive="1" Lowshelfactive="0">
                <Inputgain value="0" id="37668" scale_type="log"/>
                <Peak1gain value="0" id="2522314" scale_type="log"/>
                <HPfreq value="155.368" id="6401706" scale_type="log"/>
                <LowShelffreq value="80" id="2138131" scale_type="log"/>
                <Peak1freq value="120" id="8222291" scale_type="log"/>
                <Peak2freq value="250" id="6454722" scale_type="log"/>
                <Peak3freq value="2000" id="2669996" scale_type="log"/>
                <Peak4freq value="4000" id="4569009" scale_type="log"/>
                <Highshelffreq value="12000" id="3971153" scale_type="log"/>
                <LPfreq value="4521.39" id="6061019" scale_type="log"/>
              </Eq>
              <key/>
            </effect>
          </fxchain>
        </sampletrack>
      </track>
      <track muted="1" solo="0" type="2" name="lgt">
        <sampletrack pan="0" vol="112.6">
          <fxchain enabled="1" numofeffects="1">
            <effect autoquit_syncmode="0" autoquit="1" on="1" autoquit_numerator="4" autoquit_denominator="4" wet="1" gate="0" name="eq">
              <Eq HP12="1" Peak4bw="0.3" HighShelfres="1.4" Peak2active="0" HP48="0" LP24="0" Outputgain="0" AnalyseOut="1" Peak3bw="2.288" HighShelfgain="0" Peak3gain="3.06" LowShelfres="1.4" LPres="0.707" LPactive="1" LP="0" AnalyseIn="1" Highshelfactive="0" Peak4active="0" Peak1active="0" Peak2gain="0" HPres="0.707" HP24="0" Peak4gain="0" Peak1bw="0.3" Peak2bw="0.3" HP="0" LP48="0" LP12="1" Peak3active="1" Lowshelfgain="0" HPactive="1" Lowshelfactive="0">
                <Inputgain value="0" id="6722737" scale_type="log"/>
                <Peak1gain value="0" id="6429895" scale_type="log"/>
                <HPfreq value="85.3811" id="5476839" scale_type="log"/>
                <LowShelffreq value="80" id="2646304" scale_type="log"/>
                <Peak1freq value="120" id="5041919" scale_type="log"/>
                <Peak2freq value="250" id="5134077" scale_type="log"/>
                <Peak3freq value="1588.66" id="4164036" scale_type="log"/>
                <Peak4freq value="4000" id="2538962" scale_type="log"/>
                <Highshelffreq value="12000" id="3273371" scale_type="log"/>
                <LPfreq value="6435.85" id="556540" scale_type="log"/>
              </Eq>
              <key/>
            </effect>
          </fxchain>
        </sampletrack>
      </track>
    </trackcontainer>
    <track muted="0" solo="0" type="6" name="Automation track">
      <automationtrack/>
      <automationpattern pos="0" len="192" prog="0" name="Numerator" mute="0" tens="1"/>
      <automationpattern pos="0" len="192" prog="0" name="Denominator" mute="0" tens="1"/>
      <automationpattern pos="0" len="192" prog="0" name="Tempo" mute="0" tens="1"/>
      <automationpattern pos="0" len="192" prog="0" name="Master volume" mute="0" tens="1"/>
      <automationpattern pos="0" len="192" prog="0" name="Master pitch" mute="0" tens="1"/>
    </track>
    <fxmixer x="1" width="1260" minimized="0" maximized="0" height="333" y="190" visible="0">
      <fxchannel num="0" soloed="0" muted="0" volume="0.907" name="Master">
        <fxchain enabled="0" numofeffects="0"/>
      </fxchannel>
      <fxchannel num="1" soloed="0" muted="0" volume="0.698" name="kick">
        <fxchain enabled="0" numofeffects="0"/>
        <send channel="0" amount="1"/>
        <send channel="10" amount="0.512"/>
      </fxchannel>
      <fxchannel num="2" soloed="0" muted="0" volume="0.28" name="hat">
        <fxchain enabled="0" numofeffects="0"/>
        <send channel="0" amount="1"/>
        <send channel="10" amount="0.416"/>
      </fxchannel>
      <fxchannel num="3" soloed="0" muted="0" volume="0.674" name="snare">
        <fxchain enabled="1" numofeffects="1">
          <effect autoquit_syncmode="0" autoquit="1" on="1" autoquit_numerator="4" autoquit_denominator="4" wet="1" gate="0" name="eq">
            <Eq HP12="1" Peak4bw="0.3" HighShelfres="1.435" Peak2active="0" HP48="0" LP24="0" Outputgain="0" AnalyseOut="1" Peak3bw="0.3" HighShelfgain="5.04" Peak3gain="0" LowShelfres="1.4" LPres="0.707" LPactive="1" LP="0" AnalyseIn="1" Highshelfactive="1" Peak4active="1" Peak1active="0" Peak2gain="0" HPres="0.707" HP24="0" Peak4gain="-0.718001" Peak1bw="0.3" Peak2bw="0.3" HP="0" LP48="0" LP12="1" Peak3active="0" Lowshelfgain="0" HPactive="0" Lowshelfactive="0">
              <Inputgain value="0" id="6753652" scale_type="log"/>
              <Peak1gain value="0" id="8257704" scale_type="log"/>
              <HPfreq value="31" id="2234845" scale_type="log"/>
              <LowShelffreq value="80" id="5016811" scale_type="log"/>
              <Peak1freq value="120" id="5537746" scale_type="log"/>
              <Peak2freq value="250" id="6539813" scale_type="log"/>
              <Peak3freq value="2000" id="6999518" scale_type="log"/>
              <Peak4freq value="4000" id="770028" scale_type="log"/>
              <Highshelffreq value="2497.52" id="3686018" scale_type="log"/>
              <LPfreq value="13865.6" id="7588449" scale_type="log"/>
            </Eq>
            <key/>
          </effect>
        </fxchain>
        <send channel="0" amount="1"/>
        <send channel="10" amount="0.292"/>
      </fxchannel>
      <fxchannel num="4" soloed="0" muted="0" volume="0.651" name="crash1">
        <fxchain enabled="0" numofeffects="0"/>
        <send channel="0" amount="1"/>
        <send channel="10" amount="0.724"/>
      </fxchannel>
      <fxchannel num="5" soloed="0" muted="0" volume="0.767" name="crash2">
        <fxchain enabled="0" numofeffects="0"/>
        <send channel="0" amount="1"/>
        <send channel="10" amount="0.76"/>
      </fxchannel>
      <fxchannel num="6" soloed="0" muted="0" volume="1" name="china">
        <fxchain enabled="0" numofeffects="0"/>
        <send channel="0" amount="1"/>
        <send channel="10" amount="1"/>
      </fxchannel>
      <fxchannel num="7" soloed="0" muted="0" volume="0.512" name="hitom">
        <fxchain enabled="0" numofeffects="0"/>
        <send channel="0" amount="1"/>
        <send channel="10" amount="0.42"/>
      </fxchannel>
      <fxchannel num="8" soloed="0" muted="0" volume="0.534" name="midtom">
        <fxchain enabled="0" numofeffects="0"/>
        <send channel="0" amount="1"/>
        <send channel="10" amount="0.412"/>
      </fxchannel>
      <fxchannel num="9" soloed="0" muted="0" volume="0.418" name="lotom">
        <fxchain enabled="0" numofeffects="0"/>
        <send channel="0" amount="1"/>
        <send channel="10" amount="0.432"/>
      </fxchannel>
      <fxchannel num="10" soloed="0" muted="0" volume="0.814" name="DRUM PLATE">
        <fxchain enabled="1" numofeffects="2">
          <effect autoquit_syncmode="0" autoquit="1" on="1" autoquit_numerator="4" autoquit_denominator="4" wet="1" gate="0" name="ladspaeffect">
            <ladspacontrols ports="4">
              <port02 data="0.76538"/>
              <port03 data="0.145119"/>
              <port04 data="0.0005"/>
              <port05 data="1"/>
            </ladspacontrols>
            <key>
              <attribute value="caps" name="file"/>
              <attribute value="Plate2x2" name="plugin"/>
            </key>
          </effect>
          <effect autoquit_syncmode="0" autoquit="1" on="1" autoquit_numerator="4" autoquit_denominator="4" wet="1" gate="0" name="eq">
            <Eq HP12="1" Peak4bw="0.3" HighShelfres="1.4" Peak2active="0" HP48="0" LP24="0" Outputgain="0" AnalyseOut="1" Peak3bw="0.3" HighShelfgain="1.62" Peak3gain="0" LowShelfres="1.4" LPres="0.707" LPactive="0" LP="0" AnalyseIn="1" Highshelfactive="1" Peak4active="1" Peak1active="0" Peak2gain="0" HPres="0.707" HP24="0" Peak4gain="0.36" Peak1bw="0.3" Peak2bw="0.3" HP="0" LP48="0" LP12="1" Peak3active="0" Lowshelfgain="0" HPactive="1" Lowshelfactive="0">
              <Inputgain value="0" id="217936" scale_type="log"/>
              <Peak1gain value="0" id="1412862" scale_type="log"/>
              <HPfreq value="175.669" id="7725025" scale_type="log"/>
              <LowShelffreq value="80" id="399642" scale_type="log"/>
              <Peak1freq value="120" id="3213708" scale_type="log"/>
              <Peak2freq value="250" id="1180890" scale_type="log"/>
              <Peak3freq value="2000" id="5654965" scale_type="log"/>
              <Peak4freq value="3592.47" id="757114" scale_type="log"/>
              <Highshelffreq value="610.728" id="3326661" scale_type="log"/>
              <LPfreq value="18000" id="825391" scale_type="log"/>
            </Eq>
            <key/>
          </effect>
        </fxchain>
        <send channel="0" amount="1"/>
      </fxchannel>
      <fxchannel num="11" soloed="0" muted="0" volume="0.401" name="rhythm guitar">
        <fxchain enabled="1" numofeffects="4">
          <effect autoquit_syncmode="0" autoquit="1" on="1" autoquit_numerator="4" autoquit_denominator="4" wet="1" gate="0" name="eq">
            <Eq HP12="1" Peak4bw="0.3" HighShelfres="1.4" Peak2active="1" HP48="0" LP24="0" Outputgain="0" AnalyseOut="1" Peak3bw="1.077" HighShelfgain="0" Peak3gain="11.52" LowShelfres="0.716" LPres="0.707" LPactive="0" LP="0" AnalyseIn="1" Highshelfactive="0" Peak4active="0" Peak1active="0" Peak2gain="-0.36" HPres="0.707" HP24="0" Peak4gain="0" Peak1bw="0.3" Peak2bw="0.3" HP="0" LP48="0" LP12="1" Peak3active="1" Lowshelfgain="-10.425" HPactive="1" Lowshelfactive="1">
              <Inputgain value="0" id="2214616" scale_type="log"/>
              <Peak1gain value="0" id="8008574" scale_type="log"/>
              <HPfreq value="20" id="3965735" scale_type="log"/>
              <LowShelffreq value="297.157" id="111881" scale_type="log"/>
              <Peak1freq value="120" id="2695568" scale_type="log"/>
              <Peak2freq value="274.12" id="6906443" scale_type="log"/>
              <Peak3freq value="1108.17" id="6973747" scale_type="log"/>
              <Peak4freq value="4000" id="6598814" scale_type="log"/>
              <Highshelffreq value="12000" id="2892502" scale_type="log"/>
              <LPfreq value="18000" id="8281859" scale_type="log"/>
            </Eq>
            <key/>
          </effect>
          <effect autoquit_syncmode="0" autoquit="1" on="1" autoquit_numerator="4" autoquit_denominator="4" wet="1" gate="0" name="ladspaeffect">
            <ladspacontrols ports="2" link="1">
              <port01 data="72" link="1"/>
              <port11 data="72"/>
            </ladspacontrols>
            <key>
              <attribute value="caps" name="file"/>
              <attribute value="Clip" name="plugin"/>
            </key>
          </effect>
          <effect autoquit_syncmode="0" autoquit="1" on="1" autoquit_numerator="4" autoquit_denominator="4" wet="1" gate="0" name="ladspaeffect">
            <ladspacontrols ports="4" link="1">
              <port01 data="5" link="1"/>
              <port02 data="0" link="1"/>
              <port11 data="5"/>
              <port12 data="0"/>
            </ladspacontrols>
            <key>
              <attribute value="caps" name="file"/>
              <attribute value="CabinetI" name="plugin"/>
            </key>
          </effect>
          <effect autoquit_syncmode="0" autoquit="1" on="1" autoquit_numerator="4" autoquit_denominator="4" wet="1" gate="0" name="ladspaeffect">
            <ladspacontrols ports="31">
              <port04 data="0"/>
              <port05 data="1"/>
              <port06 data="1"/>
              <port015 data="1"/>
              <port016>
                <data value="72.4687" id="3863622" scale_type="log"/>
              </port016>
              <port017 data="1"/>
              <port018 data="1"/>
              <port019>
                <data value="8170.91" id="4005330" scale_type="log"/>
              </port019>
              <port020 data="1"/>
              <port021 data="0"/>
              <port022 data="1"/>
              <port023>
                <data value="447.214" id="41574" scale_type="log"/>
              </port023>
              <port024 data="0"/>
              <port025 data="1"/>
              <port026>
                <data value="2990.7" id="7836918" scale_type="log"/>
              </port026>
              <port027 data="0"/>
              <port028 data="1"/>
              <port029>
                <data value="447.214" id="2429363" scale_type="log"/>
              </port029>
              <port030>
                <data value="1" id="1646137" scale_type="log"/>
              </port030>
              <port031 data="1"/>
              <port032 data="0.415527"/>
              <port033>
                <data value="874.561" id="7249335" scale_type="log"/>
              </port033>
              <port034>
                <data value="1.42357" id="6950726" scale_type="log"/>
              </port034>
              <port035 data="0"/>
              <port036 data="1"/>
              <port037>
                <data value="2990.7" id="7188483" scale_type="log"/>
              </port037>
              <port038>
                <data value="1" id="4403266" scale_type="log"/>
              </port038>
              <port039 data="0"/>
              <port040 data="1"/>
              <port041>
                <data value="2990.7" id="3127968" scale_type="log"/>
              </port041>
              <port042>
                <data value="1" id="3252933" scale_type="log"/>
              </port042>
            </ladspacontrols>
            <key>
              <attribute value="calf" name="file"/>
              <attribute value="Equalizer8Band" name="plugin"/>
            </key>
          </effect>
        </fxchain>
        <send channel="0" amount="1"/>
      </fxchannel>
      <fxchannel num="12" soloed="0" muted="0" volume="0.325001" name="lgt">
        <fxchain enabled="1" numofeffects="3">
          <effect autoquit_syncmode="0" autoquit="1" on="1" autoquit_numerator="4" autoquit_denominator="4" wet="1" gate="0" name="ladspaeffect">
            <ladspacontrols ports="2" link="1">
              <port01 data="72" link="1"/>
              <port11 data="72"/>
            </ladspacontrols>
            <key>
              <attribute value="caps" name="file"/>
              <attribute value="Clip" name="plugin"/>
            </key>
          </effect>
          <effect autoquit_syncmode="0" autoquit="1" on="1" autoquit_numerator="4" autoquit_denominator="4" wet="1" gate="0" name="ladspaeffect">
            <ladspacontrols ports="4" link="1">
              <port01 data="5" link="1"/>
              <port02 data="0" link="1"/>
              <port11 data="5"/>
              <port12 data="0"/>
            </ladspacontrols>
            <key>
              <attribute value="caps" name="file"/>
              <attribute value="CabinetI" name="plugin"/>
            </key>
          </effect>
          <effect autoquit_syncmode="0" autoquit="1" on="0" autoquit_numerator="4" autoquit_denominator="4" wet="1" gate="0" name="ladspaeffect">
            <ladspacontrols ports="1">
              <port02 data="0.69875"/>
            </ladspacontrols>
            <key>
              <attribute value="caps" name="file"/>
              <attribute value="Narrower" name="plugin"/>
            </key>
          </effect>
        </fxchain>
        <send channel="0" amount="1"/>
        <send channel="13" amount="0.424"/>
      </fxchannel>
      <fxchannel num="13" soloed="0" muted="0" volume="0.535" name="gt-delay">
        <fxchain enabled="1" numofeffects="1">
          <effect autoquit_syncmode="0" autoquit="1" on="1" autoquit_numerator="4" autoquit_denominator="4" wet="1" gate="0" name="ladspaeffect">
            <ladspacontrols ports="4" link="0">
              <port00 data_denominator="4" data="112.5" data_syncmode="0" link="0" data_numerator="4"/>
              <port01 data_denominator="4" data="0" data_syncmode="0" link="0" data_numerator="4"/>
              <port10 data_denominator="4" data="301.25" data_syncmode="0" data_numerator="4"/>
              <port11 data_denominator="4" data="0" data_syncmode="0" data_numerator="4"/>
            </ladspacontrols>
            <key>
              <attribute value="mod_delay_1419" name="file"/>
              <attribute value="modDelay" name="plugin"/>
            </key>
          </effect>
        </fxchain>
        <send channel="0" amount="1"/>
      </fxchannel>
      <fxchannel num="14" soloed="0" muted="0" volume="0.442" name="bass">
        <fxchain enabled="1" numofeffects="1">
          <effect autoquit_syncmode="0" autoquit="1" on="0" autoquit_numerator="4" autoquit_denominator="4" wet="1" gate="0" name="eq">
            <Eq HP12="1" Peak4bw="0.811" HighShelfres="1.4" Peak2active="1" HP48="0" LP24="0" Outputgain="8" AnalyseOut="1" Peak3bw="1.828" HighShelfgain="0" Peak3gain="18" LowShelfres="1.21" LPres="0.707" LPactive="0" LP="0" AnalyseIn="1" Highshelfactive="0" Peak4active="1" Peak1active="0" Peak2gain="18" HPres="0.707" HP24="0" Peak4gain="5.76" Peak1bw="0.3" Peak2bw="2.866" HP="0" LP48="0" LP12="1" Peak3active="1" Lowshelfgain="-6.477" HPactive="0" Lowshelfactive="1">
              <Inputgain value="0" id="1928132" scale_type="log"/>
              <Peak1gain value="0" id="5028906" scale_type="log"/>
              <HPfreq value="24.795" id="6101787" scale_type="log"/>
              <LowShelffreq value="179.84" id="5056230" scale_type="log"/>
              <Peak1freq value="120" id="3218393" scale_type="log"/>
              <Peak2freq value="8057.72" id="4083145" scale_type="log"/>
              <Peak3freq value="4557.45" id="4897974" scale_type="log"/>
              <Peak4freq value="4000" id="5404987" scale_type="log"/>
              <Highshelffreq value="12000" id="3053663" scale_type="log"/>
              <LPfreq value="18000" id="1445410" scale_type="log"/>
            </Eq>
            <key/>
          </effect>
        </fxchain>
        <send channel="0" amount="1"/>
      </fxchannel>
      <fxchannel num="15" soloed="0" muted="0" volume="0.698" name="synthStrings">
        <fxchain enabled="0" numofeffects="0"/>
        <send channel="0" amount="1"/>
      </fxchannel>
      <fxchannel num="16" soloed="0" muted="0" volume="1.256" name="harpsichord">
        <fxchain enabled="0" numofeffects="0"/>
        <send channel="0" amount="1"/>
      </fxchannel>
      <fxchannel num="17" soloed="0" muted="0" volume="0.465" name="choir">
        <fxchain enabled="1" numofeffects="0"/>
        <send channel="0" amount="1"/>
        <send channel="18" amount="0.732"/>
      </fxchannel>
      <fxchannel num="18" soloed="0" muted="0" volume="1" name="big reverb">
        <fxchain enabled="1" numofeffects="2">
          <effect autoquit_syncmode="0" autoquit="1" on="1" autoquit_numerator="4" autoquit_denominator="4" wet="1" gate="0" name="reverbsc">
            <ReverbSCControls output_gain="0" size="0.87" input_gain="0" color="15000"/>
            <key/>
          </effect>
          <effect autoquit_syncmode="0" autoquit="1" on="1" autoquit_numerator="4" autoquit_denominator="4" wet="1" gate="0" name="eq">
            <Eq HP12="1" Peak4bw="0.3" HighShelfres="1.4" Peak2active="0" HP48="0" LP24="0" Outputgain="0" AnalyseOut="1" Peak3bw="0.3" HighShelfgain="0" Peak3gain="0" LowShelfres="1.4" LPres="0.707" LPactive="0" LP="0" AnalyseIn="1" Highshelfactive="0" Peak4active="0" Peak1active="0" Peak2gain="0" HPres="0.707" HP24="0" Peak4gain="0" Peak1bw="0.3" Peak2bw="0.3" HP="0" LP48="0" LP12="1" Peak3active="0" Lowshelfgain="0" HPactive="0" Lowshelfactive="0">
              <Inputgain value="0" id="4605592" scale_type="log"/>
              <Peak1gain value="0" id="5490530" scale_type="log"/>
              <HPfreq value="31" id="2706061" scale_type="log"/>
              <LowShelffreq value="80" id="862253" scale_type="log"/>
              <Peak1freq value="120" id="5770048" scale_type="log"/>
              <Peak2freq value="250" id="5721543" scale_type="log"/>
              <Peak3freq value="2000" id="671869" scale_type="log"/>
              <Peak4freq value="4000" id="6382357" scale_type="log"/>
              <Highshelffreq value="12000" id="6607481" scale_type="log"/>
              <LPfreq value="18000" id="1570481" scale_type="log"/>
            </Eq>
            <key/>
          </effect>
        </fxchain>
        <send channel="0" amount="1"/>
      </fxchannel>
      <fxchannel num="19" soloed="0" muted="0" volume="0.758" name="md choir">
        <fxchain enabled="0" numofeffects="0"/>
        <send channel="0" amount="1"/>
        <send channel="18" amount="0.544"/>
      </fxchannel>
      <fxchannel num="20" soloed="0" muted="0" volume="1" name="FX 20">
        <fxchain enabled="0" numofeffects="0"/>
        <send channel="0" amount="1"/>
      </fxchannel>
      <fxchannel num="21" soloed="0" muted="0" volume="1" name="FX 21">
        <fxchain enabled="0" numofeffects="0"/>
        <send channel="0" amount="1"/>
      </fxchannel>
      <fxchannel num="22" soloed="0" muted="0" volume="1" name="FX 22">
        <fxchain enabled="0" numofeffects="0"/>
        <send channel="0" amount="1"/>
      </fxchannel>
      <fxchannel num="23" soloed="0" muted="0" volume="1" name="FX 23">
        <fxchain enabled="0" numofeffects="0"/>
        <send channel="0" amount="1"/>
      </fxchannel>
    </fxmixer>
    <ControllerRackView x="680" width="350" minimized="0" maximized="0" height="200" y="282" visible="0"/>
    <pianoroll x="172" width="860" minimized="0" maximized="1" height="480" y="20" visible="0"/>
    <automationeditor x="395" width="860" minimized="0" maximized="0" height="400" y="78" visible="0"/>
    <projectnotes x="700" width="692" minimized="0" maximized="0" height="400" y="1" visible="0"><![CDATA[<!DOCTYPE HTML PUBLIC "-//W3C//DTD HTML 4.0//EN" "http://www.w3.org/TR/REC-html40/strict.dtd">
<html><head><meta name="qrichtext" content="1" /><style type="text/css">
p, li { white-space: pre-wrap; }
</style></head><body style=" font-family:'Sans Serif'; font-size:9pt; font-weight:400; font-style:normal;">
<p style="-qt-paragraph-type:empty; margin-top:0px; margin-bottom:0px; margin-left:0px; margin-right:0px; -qt-block-indent:0; text-indent:0px; font-family:'Ubuntu'; font-size:10pt;"><br /></p></body></html>]]></projectnotes>
    <timeline lp1pos="9600" lp0pos="0" lpstate="0"/>
    <controllers/>
  </song>
</lmms-project>
