<?xml version="1.0"?>
<!DOCTYPE lmms-project>
<lmms-project creatorversion="1.2.2" version="1.0" creator="LMMS" type="song">
  <head timesig_numerator="4" mastervol="70" timesig_denominator="4" masterpitch="0" bpm="210"/>
  <song>
    <trackcontainer height="499" y="41" width="854" minimized="0" type="song" x="166" visible="1" maximized="1">
      <track muted="0" name="intro1" solo="0" type="1">
        <bbtrack>
          <trackcontainer height="378" y="110" width="1042" minimized="0" type="bbtrackcontainer" x="1" visible="0" maximized="0">
            <track muted="0" name="kick.wav" solo="0" type="0">
              <instrumenttrack pitch="0" fxch="1" basenote="57" vol="100" pitchrange="1" usemasterpitch="1" pan="0">
                <instrument name="audiofileprocessor">
                  <audiofileprocessor sframe="0" src="/home/pass/samples/sillydrums/kick.wav" lframe="0" reversed="0" interp="0" looped="0" amp="100" stutter="0" eframe="1"/>
                </instrument>
                <eldata ftype="0" fcut="14000" fres="0.5" fwet="0">
                  <elvol userwavefile="" hold="2" lspd_numerator="4" lspd="0.1" lspd_denominator="4" lshp="0" latt="0" rel="2" x100="0" pdel="0" lpdel="0" amt="1" lspd_syncmode="0" dec="2" lamt="0" sustain="1" ctlenvamt="0" att="0"/>
                  <elcut userwavefile="" hold="0.5" lspd_numerator="4" lspd="0.1" lspd_denominator="4" lshp="0" latt="0" rel="0.1" x100="0" pdel="0" lpdel="0" amt="0" lspd_syncmode="0" dec="0.5" lamt="0" sustain="0.5" ctlenvamt="0" att="0"/>
                  <elres userwavefile="" hold="0.5" lspd_numerator="4" lspd="0.1" lspd_denominator="4" lshp="0" latt="0" rel="0.1" x100="0" pdel="0" lpdel="0" amt="0" lspd_syncmode="0" dec="0.5" lamt="0" sustain="0.5" ctlenvamt="0" att="0"/>
                </eldata>
                <chordcreator chord-enabled="0" chordrange="1" chord="0"/>
                <arpeggiator arpcycle="0" arptime_syncmode="0" arptime_numerator="4" arpgate="100" arpmode="0" arp-enabled="0" arptime="200" arp="0" arpskip="0" arpmiss="0" arprange="1" arpdir="0" arptime_denominator="4"/>
                <midiport inputchannel="0" outputprogram="1" basevelocity="63" outputchannel="1" fixedinputvelocity="-1" inputcontroller="0" readable="0" writable="0" outputcontroller="0" fixedoutputvelocity="-1" fixedoutputnote="-1"/>
                <fxchain numofeffects="0" enabled="0"/>
              </instrumenttrack>
              <pattern muted="0" name="kick.wav" pos="0" type="0" steps="64">
                <note len="-192" key="57" vol="100" pos="0" pan="0"/>
                <note len="-192" key="57" vol="100" pos="12" pan="0"/>
                <note len="-192" key="57" vol="100" pos="24" pan="0"/>
                <note len="-192" key="57" vol="100" pos="36" pan="0"/>
                <note len="-192" key="57" vol="100" pos="48" pan="0"/>
                <note len="-192" key="57" vol="100" pos="96" pan="0"/>
                <note len="-192" key="57" vol="100" pos="120" pan="0"/>
                <note len="-192" key="57" vol="100" pos="144" pan="0"/>
                <note len="-192" key="57" vol="100" pos="168" pan="0"/>
                <note len="-192" key="57" vol="100" pos="192" pan="0"/>
                <note len="-192" key="57" vol="100" pos="384" pan="0"/>
                <note len="-192" key="57" vol="100" pos="396" pan="0"/>
                <note len="-192" key="57" vol="100" pos="408" pan="0"/>
                <note len="-192" key="57" vol="100" pos="420" pan="0"/>
                <note len="-192" key="57" vol="100" pos="432" pan="0"/>
                <note len="-192" key="57" vol="100" pos="480" pan="0"/>
                <note len="-192" key="57" vol="100" pos="504" pan="0"/>
                <note len="-192" key="57" vol="100" pos="528" pan="0"/>
                <note len="-192" key="57" vol="100" pos="552" pan="0"/>
                <note len="-192" key="57" vol="100" pos="576" pan="0"/>
                <note len="-192" key="57" vol="100" pos="624" pan="0"/>
                <note len="-192" key="57" vol="100" pos="672" pan="0"/>
                <note len="-192" key="57" vol="100" pos="684" pan="0"/>
                <note len="-192" key="57" vol="100" pos="696" pan="0"/>
                <note len="-192" key="57" vol="100" pos="708" pan="0"/>
                <note len="-192" key="57" vol="100" pos="720" pan="0"/>
                <note len="-192" key="57" vol="100" pos="732" pan="0"/>
                <note len="-192" key="57" vol="100" pos="744" pan="0"/>
                <note len="-192" key="57" vol="100" pos="756" pan="0"/>
              </pattern>
              <pattern muted="0" name="kick.wav" pos="192" type="0" steps="64">
                <note len="-192" key="57" vol="100" pos="0" pan="0"/>
                <note len="-192" key="57" vol="100" pos="12" pan="0"/>
                <note len="-192" key="57" vol="100" pos="24" pan="0"/>
                <note len="-192" key="57" vol="100" pos="36" pan="0"/>
                <note len="-192" key="57" vol="100" pos="48" pan="0"/>
                <note len="-192" key="57" vol="100" pos="72" pan="0"/>
                <note len="-192" key="57" vol="100" pos="96" pan="0"/>
                <note len="-192" key="57" vol="100" pos="120" pan="0"/>
                <note len="-192" key="57" vol="100" pos="144" pan="0"/>
                <note len="-192" key="57" vol="100" pos="168" pan="0"/>
                <note len="-192" key="57" vol="100" pos="192" pan="0"/>
                <note len="-192" key="57" vol="100" pos="204" pan="0"/>
                <note len="-192" key="57" vol="100" pos="216" pan="0"/>
                <note len="-192" key="57" vol="100" pos="228" pan="0"/>
                <note len="-192" key="57" vol="100" pos="240" pan="0"/>
                <note len="-192" key="57" vol="100" pos="252" pan="0"/>
                <note len="-192" key="57" vol="100" pos="264" pan="0"/>
                <note len="-192" key="57" vol="100" pos="276" pan="0"/>
                <note len="-192" key="57" vol="100" pos="288" pan="0"/>
                <note len="-192" key="57" vol="100" pos="300" pan="0"/>
                <note len="-192" key="57" vol="100" pos="312" pan="0"/>
                <note len="-192" key="57" vol="100" pos="324" pan="0"/>
                <note len="-192" key="57" vol="100" pos="336" pan="0"/>
                <note len="-192" key="57" vol="100" pos="348" pan="0"/>
                <note len="-192" key="57" vol="100" pos="360" pan="0"/>
                <note len="-192" key="57" vol="100" pos="372" pan="0"/>
                <note len="-192" key="57" vol="100" pos="384" pan="0"/>
                <note len="-192" key="57" vol="100" pos="396" pan="0"/>
                <note len="-192" key="57" vol="100" pos="408" pan="0"/>
                <note len="-192" key="57" vol="100" pos="420" pan="0"/>
                <note len="-192" key="57" vol="100" pos="432" pan="0"/>
                <note len="-192" key="57" vol="100" pos="444" pan="0"/>
                <note len="-192" key="57" vol="100" pos="456" pan="0"/>
                <note len="-192" key="57" vol="100" pos="468" pan="0"/>
                <note len="-192" key="57" vol="100" pos="480" pan="0"/>
                <note len="-192" key="57" vol="100" pos="492" pan="0"/>
                <note len="-192" key="57" vol="100" pos="504" pan="0"/>
                <note len="-192" key="57" vol="100" pos="516" pan="0"/>
                <note len="-192" key="57" vol="100" pos="528" pan="0"/>
                <note len="-192" key="57" vol="100" pos="540" pan="0"/>
                <note len="-192" key="57" vol="100" pos="552" pan="0"/>
                <note len="-192" key="57" vol="100" pos="564" pan="0"/>
                <note len="-192" key="57" vol="100" pos="576" pan="0"/>
                <note len="-192" key="57" vol="100" pos="624" pan="0"/>
                <note len="-192" key="57" vol="100" pos="672" pan="0"/>
              </pattern>
              <pattern muted="0" name="kick.wav" pos="384" type="0" steps="64">
                <note len="-192" key="57" vol="100" pos="0" pan="0"/>
                <note len="-192" key="57" vol="100" pos="12" pan="0"/>
                <note len="-192" key="57" vol="100" pos="24" pan="0"/>
                <note len="-192" key="57" vol="100" pos="36" pan="0"/>
                <note len="-192" key="57" vol="100" pos="48" pan="0"/>
                <note len="-192" key="57" vol="100" pos="60" pan="0"/>
                <note len="-192" key="57" vol="100" pos="72" pan="0"/>
                <note len="-192" key="57" vol="100" pos="84" pan="0"/>
                <note len="-192" key="57" vol="100" pos="96" pan="0"/>
                <note len="-192" key="57" vol="100" pos="108" pan="0"/>
                <note len="-192" key="57" vol="100" pos="120" pan="0"/>
                <note len="-192" key="57" vol="100" pos="132" pan="0"/>
                <note len="-192" key="57" vol="100" pos="144" pan="0"/>
                <note len="-192" key="57" vol="100" pos="156" pan="0"/>
                <note len="-192" key="57" vol="100" pos="168" pan="0"/>
                <note len="-192" key="57" vol="100" pos="180" pan="0"/>
                <note len="-192" key="57" vol="100" pos="192" pan="0"/>
                <note len="-192" key="57" vol="100" pos="204" pan="0"/>
                <note len="-192" key="57" vol="100" pos="216" pan="0"/>
                <note len="-192" key="57" vol="100" pos="228" pan="0"/>
                <note len="-192" key="57" vol="100" pos="240" pan="0"/>
                <note len="-192" key="57" vol="100" pos="252" pan="0"/>
                <note len="-192" key="57" vol="100" pos="264" pan="0"/>
                <note len="-192" key="57" vol="100" pos="276" pan="0"/>
                <note len="-192" key="57" vol="100" pos="288" pan="0"/>
                <note len="-192" key="57" vol="100" pos="300" pan="0"/>
                <note len="-192" key="57" vol="100" pos="312" pan="0"/>
                <note len="-192" key="57" vol="100" pos="324" pan="0"/>
                <note len="-192" key="57" vol="100" pos="336" pan="0"/>
                <note len="-192" key="57" vol="100" pos="348" pan="0"/>
                <note len="-192" key="57" vol="100" pos="360" pan="0"/>
                <note len="-192" key="57" vol="100" pos="372" pan="0"/>
                <note len="-192" key="57" vol="100" pos="384" pan="0"/>
                <note len="-192" key="57" vol="100" pos="396" pan="0"/>
                <note len="-192" key="57" vol="100" pos="408" pan="0"/>
                <note len="-192" key="57" vol="100" pos="420" pan="0"/>
                <note len="-192" key="57" vol="100" pos="432" pan="0"/>
                <note len="-192" key="57" vol="100" pos="444" pan="0"/>
                <note len="-192" key="57" vol="100" pos="456" pan="0"/>
                <note len="-192" key="57" vol="100" pos="468" pan="0"/>
                <note len="-192" key="57" vol="100" pos="480" pan="0"/>
                <note len="-192" key="57" vol="100" pos="492" pan="0"/>
                <note len="-192" key="57" vol="100" pos="504" pan="0"/>
                <note len="-192" key="57" vol="100" pos="516" pan="0"/>
                <note len="-192" key="57" vol="100" pos="528" pan="0"/>
                <note len="-192" key="57" vol="100" pos="540" pan="0"/>
                <note len="-192" key="57" vol="100" pos="552" pan="0"/>
                <note len="-192" key="57" vol="100" pos="564" pan="0"/>
                <note len="-192" key="57" vol="100" pos="576" pan="0"/>
                <note len="-192" key="57" vol="100" pos="588" pan="0"/>
                <note len="-192" key="57" vol="100" pos="600" pan="0"/>
                <note len="-192" key="57" vol="100" pos="612" pan="0"/>
                <note len="-192" key="57" vol="100" pos="624" pan="0"/>
                <note len="-192" key="57" vol="100" pos="636" pan="0"/>
                <note len="-192" key="57" vol="100" pos="648" pan="0"/>
                <note len="-192" key="57" vol="100" pos="660" pan="0"/>
                <note len="-192" key="57" vol="100" pos="672" pan="0"/>
                <note len="-192" key="57" vol="100" pos="684" pan="0"/>
                <note len="-192" key="57" vol="100" pos="696" pan="0"/>
                <note len="-192" key="57" vol="100" pos="708" pan="0"/>
                <note len="-192" key="57" vol="100" pos="720" pan="0"/>
                <note len="-192" key="57" vol="100" pos="732" pan="0"/>
                <note len="-192" key="57" vol="100" pos="744" pan="0"/>
                <note len="-192" key="57" vol="100" pos="756" pan="0"/>
              </pattern>
              <pattern muted="0" name="kick.wav" pos="576" type="0" steps="64">
                <note len="-192" key="57" vol="100" pos="0" pan="0"/>
                <note len="-192" key="57" vol="100" pos="12" pan="0"/>
                <note len="-192" key="57" vol="100" pos="24" pan="0"/>
                <note len="-192" key="57" vol="100" pos="36" pan="0"/>
                <note len="-192" key="57" vol="100" pos="48" pan="0"/>
                <note len="-192" key="57" vol="100" pos="60" pan="0"/>
                <note len="-192" key="57" vol="100" pos="72" pan="0"/>
                <note len="-192" key="57" vol="100" pos="84" pan="0"/>
                <note len="-192" key="57" vol="100" pos="96" pan="0"/>
                <note len="-192" key="57" vol="100" pos="108" pan="0"/>
                <note len="-192" key="57" vol="100" pos="120" pan="0"/>
                <note len="-192" key="57" vol="100" pos="132" pan="0"/>
                <note len="-192" key="57" vol="100" pos="144" pan="0"/>
                <note len="-192" key="57" vol="100" pos="156" pan="0"/>
                <note len="-192" key="57" vol="100" pos="168" pan="0"/>
                <note len="-192" key="57" vol="100" pos="180" pan="0"/>
                <note len="-192" key="57" vol="100" pos="192" pan="0"/>
                <note len="-192" key="57" vol="100" pos="204" pan="0"/>
                <note len="-192" key="57" vol="100" pos="216" pan="0"/>
                <note len="-192" key="57" vol="100" pos="228" pan="0"/>
                <note len="-192" key="57" vol="100" pos="240" pan="0"/>
                <note len="-192" key="57" vol="100" pos="252" pan="0"/>
                <note len="-192" key="57" vol="100" pos="264" pan="0"/>
                <note len="-192" key="57" vol="100" pos="276" pan="0"/>
                <note len="-192" key="57" vol="100" pos="288" pan="0"/>
                <note len="-192" key="57" vol="100" pos="300" pan="0"/>
                <note len="-192" key="57" vol="100" pos="312" pan="0"/>
                <note len="-192" key="57" vol="100" pos="324" pan="0"/>
                <note len="-192" key="57" vol="100" pos="336" pan="0"/>
                <note len="-192" key="57" vol="100" pos="348" pan="0"/>
                <note len="-192" key="57" vol="100" pos="360" pan="0"/>
                <note len="-192" key="57" vol="100" pos="372" pan="0"/>
                <note len="-192" key="57" vol="100" pos="384" pan="0"/>
                <note len="-192" key="57" vol="100" pos="396" pan="0"/>
                <note len="-192" key="57" vol="100" pos="408" pan="0"/>
                <note len="-192" key="57" vol="100" pos="420" pan="0"/>
                <note len="-192" key="57" vol="100" pos="432" pan="0"/>
                <note len="-192" key="57" vol="100" pos="444" pan="0"/>
                <note len="-192" key="57" vol="100" pos="456" pan="0"/>
                <note len="-192" key="57" vol="100" pos="468" pan="0"/>
                <note len="-192" key="57" vol="100" pos="480" pan="0"/>
                <note len="-192" key="57" vol="100" pos="492" pan="0"/>
                <note len="-192" key="57" vol="100" pos="504" pan="0"/>
                <note len="-192" key="57" vol="100" pos="516" pan="0"/>
                <note len="-192" key="57" vol="100" pos="528" pan="0"/>
                <note len="-192" key="57" vol="100" pos="540" pan="0"/>
                <note len="-192" key="57" vol="100" pos="552" pan="0"/>
                <note len="-192" key="57" vol="100" pos="564" pan="0"/>
                <note len="-192" key="57" vol="100" pos="576" pan="0"/>
                <note len="-192" key="57" vol="100" pos="588" pan="0"/>
                <note len="-192" key="57" vol="100" pos="600" pan="0"/>
                <note len="-192" key="57" vol="100" pos="612" pan="0"/>
                <note len="-192" key="57" vol="100" pos="624" pan="0"/>
                <note len="-192" key="57" vol="100" pos="636" pan="0"/>
                <note len="-192" key="57" vol="100" pos="648" pan="0"/>
                <note len="-192" key="57" vol="100" pos="660" pan="0"/>
                <note len="-192" key="57" vol="100" pos="672" pan="0"/>
                <note len="-192" key="57" vol="100" pos="684" pan="0"/>
                <note len="-192" key="57" vol="100" pos="696" pan="0"/>
                <note len="-192" key="57" vol="100" pos="708" pan="0"/>
                <note len="-192" key="57" vol="100" pos="720" pan="0"/>
                <note len="-192" key="57" vol="100" pos="732" pan="0"/>
                <note len="-192" key="57" vol="100" pos="744" pan="0"/>
                <note len="-192" key="57" vol="100" pos="756" pan="0"/>
              </pattern>
              <pattern muted="0" name="kick.wav" pos="768" type="0" steps="16">
                <note len="-192" key="57" vol="100" pos="0" pan="0"/>
                <note len="-192" key="57" vol="100" pos="12" pan="0"/>
                <note len="-192" key="57" vol="100" pos="24" pan="0"/>
                <note len="-192" key="57" vol="100" pos="36" pan="0"/>
                <note len="-192" key="57" vol="100" pos="48" pan="0"/>
                <note len="-192" key="57" vol="100" pos="60" pan="0"/>
                <note len="-192" key="57" vol="100" pos="72" pan="0"/>
                <note len="-192" key="57" vol="100" pos="84" pan="0"/>
                <note len="-192" key="57" vol="100" pos="96" pan="0"/>
                <note len="-192" key="57" vol="100" pos="108" pan="0"/>
                <note len="-192" key="57" vol="100" pos="120" pan="0"/>
                <note len="-192" key="57" vol="100" pos="132" pan="0"/>
                <note len="-192" key="57" vol="100" pos="144" pan="0"/>
                <note len="-192" key="57" vol="100" pos="156" pan="0"/>
                <note len="-192" key="57" vol="100" pos="168" pan="0"/>
                <note len="-192" key="57" vol="100" pos="180" pan="0"/>
              </pattern>
              <pattern muted="0" name="kick.wav" pos="960" type="0" steps="32">
                <note len="-192" key="57" vol="100" pos="0" pan="0"/>
                <note len="-192" key="57" vol="100" pos="12" pan="0"/>
                <note len="-192" key="57" vol="100" pos="24" pan="0"/>
                <note len="-192" key="57" vol="100" pos="36" pan="0"/>
                <note len="-192" key="57" vol="100" pos="48" pan="0"/>
                <note len="-192" key="57" vol="100" pos="60" pan="0"/>
                <note len="-192" key="57" vol="100" pos="72" pan="0"/>
                <note len="-192" key="57" vol="100" pos="84" pan="0"/>
                <note len="-192" key="57" vol="100" pos="96" pan="0"/>
                <note len="-192" key="57" vol="100" pos="108" pan="0"/>
                <note len="-192" key="57" vol="100" pos="120" pan="0"/>
                <note len="-192" key="57" vol="100" pos="132" pan="0"/>
                <note len="-192" key="57" vol="100" pos="144" pan="0"/>
                <note len="-192" key="57" vol="100" pos="156" pan="0"/>
                <note len="-192" key="57" vol="100" pos="168" pan="0"/>
                <note len="-192" key="57" vol="100" pos="180" pan="0"/>
                <note len="-192" key="57" vol="100" pos="192" pan="0"/>
                <note len="-192" key="57" vol="100" pos="240" pan="0"/>
                <note len="-192" key="57" vol="100" pos="288" pan="0"/>
                <note len="-192" key="57" vol="100" pos="336" pan="0"/>
              </pattern>
              <pattern muted="0" name="kick.wav" pos="1152" type="0" steps="64">
                <note len="-192" key="57" vol="100" pos="0" pan="0"/>
                <note len="-192" key="57" vol="100" pos="48" pan="0"/>
                <note len="-192" key="57" vol="100" pos="96" pan="0"/>
                <note len="-192" key="57" vol="100" pos="144" pan="0"/>
                <note len="-192" key="57" vol="100" pos="156" pan="0"/>
                <note len="-192" key="57" vol="100" pos="168" pan="0"/>
                <note len="-192" key="57" vol="100" pos="180" pan="0"/>
                <note len="-192" key="57" vol="100" pos="192" pan="0"/>
                <note len="-192" key="57" vol="100" pos="240" pan="0"/>
                <note len="-192" key="57" vol="100" pos="288" pan="0"/>
                <note len="-192" key="57" vol="100" pos="336" pan="0"/>
                <note len="-192" key="57" vol="100" pos="348" pan="0"/>
                <note len="-192" key="57" vol="100" pos="360" pan="0"/>
                <note len="-192" key="57" vol="100" pos="372" pan="0"/>
                <note len="-192" key="57" vol="100" pos="384" pan="0"/>
                <note len="-192" key="57" vol="100" pos="432" pan="0"/>
                <note len="-192" key="57" vol="100" pos="480" pan="0"/>
                <note len="-192" key="57" vol="100" pos="528" pan="0"/>
                <note len="-192" key="57" vol="100" pos="540" pan="0"/>
                <note len="-192" key="57" vol="100" pos="552" pan="0"/>
                <note len="-192" key="57" vol="100" pos="564" pan="0"/>
                <note len="-192" key="57" vol="100" pos="576" pan="0"/>
                <note len="-192" key="57" vol="100" pos="624" pan="0"/>
                <note len="-192" key="57" vol="100" pos="672" pan="0"/>
                <note len="-192" key="57" vol="100" pos="720" pan="0"/>
                <note len="-192" key="57" vol="100" pos="732" pan="0"/>
                <note len="-192" key="57" vol="100" pos="744" pan="0"/>
                <note len="-192" key="57" vol="100" pos="756" pan="0"/>
              </pattern>
              <pattern muted="0" name="kick.wav" pos="1344" type="0" steps="64">
                <note len="-192" key="57" vol="100" pos="0" pan="0"/>
                <note len="-192" key="57" vol="100" pos="12" pan="0"/>
                <note len="-192" key="57" vol="100" pos="24" pan="0"/>
                <note len="-192" key="57" vol="100" pos="36" pan="0"/>
                <note len="-192" key="57" vol="100" pos="48" pan="0"/>
                <note len="-192" key="57" vol="100" pos="60" pan="0"/>
                <note len="-192" key="57" vol="100" pos="72" pan="0"/>
                <note len="-192" key="57" vol="100" pos="84" pan="0"/>
                <note len="-192" key="57" vol="100" pos="96" pan="0"/>
                <note len="-192" key="57" vol="100" pos="108" pan="0"/>
                <note len="-192" key="57" vol="100" pos="120" pan="0"/>
                <note len="-192" key="57" vol="100" pos="132" pan="0"/>
                <note len="-192" key="57" vol="100" pos="144" pan="0"/>
                <note len="-192" key="57" vol="100" pos="156" pan="0"/>
                <note len="-192" key="57" vol="100" pos="168" pan="0"/>
                <note len="-192" key="57" vol="100" pos="180" pan="0"/>
                <note len="-192" key="57" vol="100" pos="192" pan="0"/>
                <note len="-192" key="57" vol="100" pos="204" pan="0"/>
                <note len="-192" key="57" vol="100" pos="216" pan="0"/>
                <note len="-192" key="57" vol="100" pos="228" pan="0"/>
                <note len="-192" key="57" vol="100" pos="240" pan="0"/>
                <note len="-192" key="57" vol="100" pos="252" pan="0"/>
                <note len="-192" key="57" vol="100" pos="264" pan="0"/>
                <note len="-192" key="57" vol="100" pos="276" pan="0"/>
                <note len="-192" key="57" vol="100" pos="288" pan="0"/>
                <note len="-192" key="57" vol="100" pos="300" pan="0"/>
                <note len="-192" key="57" vol="100" pos="312" pan="0"/>
                <note len="-192" key="57" vol="100" pos="324" pan="0"/>
                <note len="-192" key="57" vol="100" pos="336" pan="0"/>
                <note len="-192" key="57" vol="100" pos="348" pan="0"/>
                <note len="-192" key="57" vol="100" pos="360" pan="0"/>
                <note len="-192" key="57" vol="100" pos="372" pan="0"/>
                <note len="-192" key="57" vol="100" pos="396" pan="0"/>
                <note len="-192" key="57" vol="100" pos="420" pan="0"/>
                <note len="-192" key="57" vol="100" pos="444" pan="0"/>
                <note len="-192" key="57" vol="100" pos="468" pan="0"/>
                <note len="-192" key="57" vol="100" pos="492" pan="0"/>
                <note len="-192" key="57" vol="100" pos="516" pan="0"/>
                <note len="-192" key="57" vol="100" pos="540" pan="0"/>
                <note len="-192" key="57" vol="100" pos="564" pan="0"/>
                <note len="-192" key="57" vol="100" pos="576" pan="0"/>
              </pattern>
              <pattern muted="0" name="kick.wav" pos="1536" type="0" steps="64">
                <note len="-192" key="57" vol="100" pos="0" pan="0"/>
                <note len="-192" key="57" vol="100" pos="12" pan="0"/>
                <note len="-192" key="57" vol="100" pos="24" pan="0"/>
                <note len="-192" key="57" vol="100" pos="36" pan="0"/>
                <note len="-192" key="57" vol="100" pos="48" pan="0"/>
                <note len="-192" key="57" vol="100" pos="60" pan="0"/>
                <note len="-192" key="57" vol="100" pos="72" pan="0"/>
                <note len="-192" key="57" vol="100" pos="84" pan="0"/>
                <note len="-192" key="57" vol="100" pos="96" pan="0"/>
                <note len="-192" key="57" vol="100" pos="108" pan="0"/>
                <note len="-192" key="57" vol="100" pos="120" pan="0"/>
                <note len="-192" key="57" vol="100" pos="132" pan="0"/>
                <note len="-192" key="57" vol="100" pos="144" pan="0"/>
                <note len="-192" key="57" vol="100" pos="156" pan="0"/>
                <note len="-192" key="57" vol="100" pos="168" pan="0"/>
                <note len="-192" key="57" vol="100" pos="180" pan="0"/>
                <note len="-192" key="57" vol="100" pos="192" pan="0"/>
                <note len="-192" key="57" vol="100" pos="204" pan="0"/>
                <note len="-192" key="57" vol="100" pos="216" pan="0"/>
                <note len="-192" key="57" vol="100" pos="228" pan="0"/>
                <note len="-192" key="57" vol="100" pos="240" pan="0"/>
                <note len="-192" key="57" vol="100" pos="252" pan="0"/>
                <note len="-192" key="57" vol="100" pos="264" pan="0"/>
                <note len="-192" key="57" vol="100" pos="276" pan="0"/>
                <note len="-192" key="57" vol="100" pos="288" pan="0"/>
                <note len="-192" key="57" vol="100" pos="300" pan="0"/>
                <note len="-192" key="57" vol="100" pos="312" pan="0"/>
                <note len="-192" key="57" vol="100" pos="324" pan="0"/>
                <note len="-192" key="57" vol="100" pos="336" pan="0"/>
                <note len="-192" key="57" vol="100" pos="348" pan="0"/>
                <note len="-192" key="57" vol="100" pos="360" pan="0"/>
                <note len="-192" key="57" vol="100" pos="372" pan="0"/>
                <note len="-192" key="57" vol="100" pos="396" pan="0"/>
                <note len="-192" key="57" vol="100" pos="420" pan="0"/>
                <note len="-192" key="57" vol="100" pos="444" pan="0"/>
                <note len="-192" key="57" vol="100" pos="468" pan="0"/>
                <note len="-192" key="57" vol="100" pos="492" pan="0"/>
                <note len="-192" key="57" vol="100" pos="516" pan="0"/>
                <note len="-192" key="57" vol="100" pos="540" pan="0"/>
                <note len="-192" key="57" vol="100" pos="564" pan="0"/>
                <note len="-192" key="57" vol="100" pos="576" pan="0"/>
                <note len="-192" key="57" vol="100" pos="588" pan="0"/>
                <note len="-192" key="57" vol="100" pos="600" pan="0"/>
                <note len="-192" key="57" vol="100" pos="612" pan="0"/>
                <note len="-192" key="57" vol="100" pos="624" pan="0"/>
                <note len="-192" key="57" vol="100" pos="636" pan="0"/>
                <note len="-192" key="57" vol="100" pos="648" pan="0"/>
                <note len="-192" key="57" vol="100" pos="660" pan="0"/>
                <note len="-192" key="57" vol="100" pos="672" pan="0"/>
                <note len="-192" key="57" vol="100" pos="684" pan="0"/>
                <note len="-192" key="57" vol="100" pos="696" pan="0"/>
                <note len="-192" key="57" vol="100" pos="708" pan="0"/>
                <note len="-192" key="57" vol="100" pos="720" pan="0"/>
                <note len="-192" key="57" vol="100" pos="732" pan="0"/>
                <note len="-192" key="57" vol="100" pos="744" pan="0"/>
                <note len="-192" key="57" vol="100" pos="756" pan="0"/>
              </pattern>
              <pattern muted="0" name="kick.wav" pos="1728" type="0" steps="64">
                <note len="-192" key="57" vol="100" pos="0" pan="0"/>
                <note len="-192" key="57" vol="100" pos="12" pan="0"/>
                <note len="-192" key="57" vol="100" pos="24" pan="0"/>
                <note len="-192" key="57" vol="100" pos="36" pan="0"/>
                <note len="-192" key="57" vol="100" pos="48" pan="0"/>
                <note len="-192" key="57" vol="100" pos="60" pan="0"/>
                <note len="-192" key="57" vol="100" pos="72" pan="0"/>
                <note len="-192" key="57" vol="100" pos="84" pan="0"/>
                <note len="-192" key="57" vol="100" pos="96" pan="0"/>
                <note len="-192" key="57" vol="100" pos="108" pan="0"/>
                <note len="-192" key="57" vol="100" pos="120" pan="0"/>
                <note len="-192" key="57" vol="100" pos="132" pan="0"/>
                <note len="-192" key="57" vol="100" pos="144" pan="0"/>
                <note len="-192" key="57" vol="100" pos="156" pan="0"/>
                <note len="-192" key="57" vol="100" pos="168" pan="0"/>
                <note len="-192" key="57" vol="100" pos="180" pan="0"/>
                <note len="-192" key="57" vol="100" pos="192" pan="0"/>
                <note len="-192" key="57" vol="100" pos="204" pan="0"/>
                <note len="-192" key="57" vol="100" pos="216" pan="0"/>
                <note len="-192" key="57" vol="100" pos="228" pan="0"/>
                <note len="-192" key="57" vol="100" pos="240" pan="0"/>
                <note len="-192" key="57" vol="100" pos="252" pan="0"/>
                <note len="-192" key="57" vol="100" pos="264" pan="0"/>
                <note len="-192" key="57" vol="100" pos="276" pan="0"/>
                <note len="-192" key="57" vol="100" pos="288" pan="0"/>
                <note len="-192" key="57" vol="100" pos="300" pan="0"/>
                <note len="-192" key="57" vol="100" pos="312" pan="0"/>
                <note len="-192" key="57" vol="100" pos="324" pan="0"/>
                <note len="-192" key="57" vol="100" pos="336" pan="0"/>
                <note len="-192" key="57" vol="100" pos="348" pan="0"/>
                <note len="-192" key="57" vol="100" pos="360" pan="0"/>
                <note len="-192" key="57" vol="100" pos="372" pan="0"/>
                <note len="-192" key="57" vol="100" pos="384" pan="0"/>
                <note len="-192" key="57" vol="100" pos="396" pan="0"/>
                <note len="-192" key="57" vol="100" pos="408" pan="0"/>
                <note len="-192" key="57" vol="100" pos="420" pan="0"/>
                <note len="-192" key="57" vol="100" pos="432" pan="0"/>
                <note len="-192" key="57" vol="100" pos="444" pan="0"/>
                <note len="-192" key="57" vol="100" pos="456" pan="0"/>
                <note len="-192" key="57" vol="100" pos="468" pan="0"/>
                <note len="-192" key="57" vol="100" pos="480" pan="0"/>
                <note len="-192" key="57" vol="100" pos="492" pan="0"/>
                <note len="-192" key="57" vol="100" pos="504" pan="0"/>
                <note len="-192" key="57" vol="100" pos="516" pan="0"/>
                <note len="-192" key="57" vol="100" pos="528" pan="0"/>
                <note len="-192" key="57" vol="100" pos="540" pan="0"/>
                <note len="-192" key="57" vol="100" pos="552" pan="0"/>
                <note len="-192" key="57" vol="100" pos="564" pan="0"/>
                <note len="-192" key="57" vol="100" pos="576" pan="0"/>
                <note len="-192" key="57" vol="100" pos="588" pan="0"/>
                <note len="-192" key="57" vol="100" pos="600" pan="0"/>
                <note len="-192" key="57" vol="100" pos="612" pan="0"/>
                <note len="-192" key="57" vol="100" pos="624" pan="0"/>
                <note len="-192" key="57" vol="100" pos="636" pan="0"/>
                <note len="-192" key="57" vol="100" pos="648" pan="0"/>
                <note len="-192" key="57" vol="100" pos="660" pan="0"/>
                <note len="-192" key="57" vol="100" pos="672" pan="0"/>
                <note len="-192" key="57" vol="100" pos="684" pan="0"/>
                <note len="-192" key="57" vol="100" pos="696" pan="0"/>
                <note len="-192" key="57" vol="100" pos="708" pan="0"/>
                <note len="-192" key="57" vol="100" pos="720" pan="0"/>
                <note len="-192" key="57" vol="100" pos="732" pan="0"/>
                <note len="-192" key="57" vol="100" pos="744" pan="0"/>
                <note len="-192" key="57" vol="100" pos="756" pan="0"/>
              </pattern>
              <pattern muted="0" name="kick.wav" pos="1920" type="0" steps="64">
                <note len="-192" key="57" vol="100" pos="0" pan="0"/>
                <note len="-192" key="57" vol="100" pos="48" pan="0"/>
                <note len="-192" key="57" vol="100" pos="96" pan="0"/>
                <note len="-192" key="57" vol="100" pos="144" pan="0"/>
                <note len="-192" key="57" vol="100" pos="156" pan="0"/>
                <note len="-192" key="57" vol="100" pos="168" pan="0"/>
                <note len="-192" key="57" vol="100" pos="180" pan="0"/>
                <note len="-192" key="57" vol="100" pos="192" pan="0"/>
                <note len="-192" key="57" vol="100" pos="240" pan="0"/>
                <note len="-192" key="57" vol="100" pos="288" pan="0"/>
                <note len="-192" key="57" vol="100" pos="336" pan="0"/>
                <note len="-192" key="57" vol="100" pos="348" pan="0"/>
                <note len="-192" key="57" vol="100" pos="360" pan="0"/>
                <note len="-192" key="57" vol="100" pos="372" pan="0"/>
                <note len="-192" key="57" vol="100" pos="384" pan="0"/>
                <note len="-192" key="57" vol="100" pos="432" pan="0"/>
                <note len="-192" key="57" vol="100" pos="480" pan="0"/>
                <note len="-192" key="57" vol="100" pos="528" pan="0"/>
                <note len="-192" key="57" vol="100" pos="540" pan="0"/>
                <note len="-192" key="57" vol="100" pos="552" pan="0"/>
                <note len="-192" key="57" vol="100" pos="564" pan="0"/>
                <note len="-192" key="57" vol="100" pos="576" pan="0"/>
                <note len="-192" key="57" vol="100" pos="624" pan="0"/>
                <note len="-192" key="57" vol="100" pos="672" pan="0"/>
                <note len="-192" key="57" vol="100" pos="720" pan="0"/>
                <note len="-192" key="57" vol="100" pos="732" pan="0"/>
                <note len="-192" key="57" vol="100" pos="744" pan="0"/>
                <note len="-192" key="57" vol="100" pos="756" pan="0"/>
              </pattern>
              <pattern muted="0" name="kick.wav" pos="2112" type="0" steps="32">
                <note len="-192" key="57" vol="100" pos="0" pan="0"/>
                <note len="-192" key="57" vol="100" pos="12" pan="0"/>
                <note len="-192" key="57" vol="100" pos="24" pan="0"/>
                <note len="-192" key="57" vol="100" pos="36" pan="0"/>
                <note len="-192" key="57" vol="100" pos="48" pan="0"/>
                <note len="-192" key="57" vol="100" pos="60" pan="0"/>
                <note len="-192" key="57" vol="100" pos="72" pan="0"/>
                <note len="-192" key="57" vol="100" pos="84" pan="0"/>
                <note len="-192" key="57" vol="100" pos="96" pan="0"/>
                <note len="-192" key="57" vol="100" pos="108" pan="0"/>
                <note len="-192" key="57" vol="100" pos="120" pan="0"/>
                <note len="-192" key="57" vol="100" pos="132" pan="0"/>
                <note len="-192" key="57" vol="100" pos="144" pan="0"/>
                <note len="-192" key="57" vol="100" pos="156" pan="0"/>
                <note len="-192" key="57" vol="100" pos="168" pan="0"/>
                <note len="-192" key="57" vol="100" pos="180" pan="0"/>
                <note len="-192" key="57" vol="100" pos="192" pan="0"/>
                <note len="-192" key="57" vol="100" pos="204" pan="0"/>
                <note len="-192" key="57" vol="100" pos="216" pan="0"/>
                <note len="-192" key="57" vol="100" pos="228" pan="0"/>
                <note len="-192" key="57" vol="100" pos="240" pan="0"/>
                <note len="-192" key="57" vol="100" pos="252" pan="0"/>
                <note len="-192" key="57" vol="100" pos="264" pan="0"/>
                <note len="-192" key="57" vol="100" pos="276" pan="0"/>
                <note len="-192" key="57" vol="100" pos="288" pan="0"/>
                <note len="-192" key="57" vol="100" pos="300" pan="0"/>
                <note len="-192" key="57" vol="100" pos="312" pan="0"/>
                <note len="-192" key="57" vol="100" pos="324" pan="0"/>
                <note len="-192" key="57" vol="100" pos="336" pan="0"/>
                <note len="-192" key="57" vol="100" pos="348" pan="0"/>
                <note len="-192" key="57" vol="100" pos="360" pan="0"/>
                <note len="-192" key="57" vol="100" pos="372" pan="0"/>
              </pattern>
              <pattern muted="0" name="kick.wav" pos="2304" type="0" steps="32">
                <note len="-192" key="57" vol="100" pos="0" pan="0"/>
                <note len="-192" key="57" vol="100" pos="24" pan="0"/>
                <note len="-192" key="57" vol="100" pos="192" pan="0"/>
                <note len="-192" key="57" vol="100" pos="240" pan="0"/>
                <note len="-192" key="57" vol="100" pos="264" pan="0"/>
                <note len="-192" key="57" vol="100" pos="312" pan="0"/>
                <note len="-192" key="57" vol="100" pos="336" pan="0"/>
                <note len="-192" key="57" vol="100" pos="348" pan="0"/>
                <note len="-192" key="57" vol="100" pos="360" pan="0"/>
                <note len="-192" key="57" vol="100" pos="372" pan="0"/>
              </pattern>
              <pattern muted="0" name="kick.wav" pos="2496" type="0" steps="32">
                <note len="-192" key="57" vol="100" pos="0" pan="0"/>
              </pattern>
              <pattern muted="0" name="kick.wav" pos="2688" type="0" steps="32">
                <note len="-192" key="57" vol="100" pos="0" pan="0"/>
                <note len="-192" key="57" vol="100" pos="12" pan="0"/>
                <note len="-192" key="57" vol="100" pos="24" pan="0"/>
                <note len="-192" key="57" vol="100" pos="36" pan="0"/>
                <note len="-192" key="57" vol="100" pos="48" pan="0"/>
                <note len="-192" key="57" vol="100" pos="60" pan="0"/>
                <note len="-192" key="57" vol="100" pos="72" pan="0"/>
                <note len="-192" key="57" vol="100" pos="84" pan="0"/>
                <note len="-192" key="57" vol="100" pos="96" pan="0"/>
                <note len="-192" key="57" vol="100" pos="108" pan="0"/>
                <note len="-192" key="57" vol="100" pos="120" pan="0"/>
                <note len="-192" key="57" vol="100" pos="132" pan="0"/>
                <note len="-192" key="57" vol="100" pos="144" pan="0"/>
                <note len="-192" key="57" vol="100" pos="156" pan="0"/>
                <note len="-192" key="57" vol="100" pos="168" pan="0"/>
                <note len="-192" key="57" vol="100" pos="180" pan="0"/>
                <note len="-192" key="57" vol="100" pos="192" pan="0"/>
                <note len="-192" key="57" vol="100" pos="204" pan="0"/>
                <note len="-192" key="57" vol="100" pos="216" pan="0"/>
                <note len="-192" key="57" vol="100" pos="228" pan="0"/>
                <note len="-192" key="57" vol="100" pos="240" pan="0"/>
                <note len="-192" key="57" vol="100" pos="252" pan="0"/>
                <note len="-192" key="57" vol="100" pos="264" pan="0"/>
                <note len="-192" key="57" vol="100" pos="276" pan="0"/>
                <note len="-192" key="57" vol="100" pos="288" pan="0"/>
                <note len="-192" key="57" vol="100" pos="300" pan="0"/>
                <note len="-192" key="57" vol="100" pos="312" pan="0"/>
                <note len="-192" key="57" vol="100" pos="324" pan="0"/>
                <note len="-192" key="57" vol="100" pos="336" pan="0"/>
                <note len="-192" key="57" vol="100" pos="348" pan="0"/>
                <note len="-192" key="57" vol="100" pos="360" pan="0"/>
                <note len="-192" key="57" vol="100" pos="372" pan="0"/>
              </pattern>
              <pattern muted="0" name="kick.wav" pos="2880" type="0" steps="32">
                <note len="-192" key="57" vol="100" pos="0" pan="0"/>
                <note len="-192" key="57" vol="100" pos="12" pan="0"/>
                <note len="-192" key="57" vol="100" pos="24" pan="0"/>
                <note len="-192" key="57" vol="100" pos="36" pan="0"/>
                <note len="-192" key="57" vol="100" pos="48" pan="0"/>
                <note len="-192" key="57" vol="100" pos="60" pan="0"/>
                <note len="-192" key="57" vol="100" pos="72" pan="0"/>
                <note len="-192" key="57" vol="100" pos="84" pan="0"/>
                <note len="-192" key="57" vol="100" pos="96" pan="0"/>
                <note len="-192" key="57" vol="100" pos="108" pan="0"/>
                <note len="-192" key="57" vol="100" pos="120" pan="0"/>
                <note len="-192" key="57" vol="100" pos="132" pan="0"/>
                <note len="-192" key="57" vol="100" pos="144" pan="0"/>
                <note len="-192" key="57" vol="100" pos="156" pan="0"/>
                <note len="-192" key="57" vol="100" pos="168" pan="0"/>
                <note len="-192" key="57" vol="100" pos="180" pan="0"/>
                <note len="-192" key="57" vol="100" pos="192" pan="0"/>
                <note len="-192" key="57" vol="100" pos="204" pan="0"/>
                <note len="-192" key="57" vol="100" pos="216" pan="0"/>
                <note len="-192" key="57" vol="100" pos="228" pan="0"/>
                <note len="-192" key="57" vol="100" pos="240" pan="0"/>
                <note len="-192" key="57" vol="100" pos="252" pan="0"/>
                <note len="-192" key="57" vol="100" pos="264" pan="0"/>
                <note len="-192" key="57" vol="100" pos="276" pan="0"/>
                <note len="-192" key="57" vol="100" pos="288" pan="0"/>
                <note len="-192" key="57" vol="100" pos="300" pan="0"/>
                <note len="-192" key="57" vol="100" pos="312" pan="0"/>
                <note len="-192" key="57" vol="100" pos="324" pan="0"/>
                <note len="-192" key="57" vol="100" pos="336" pan="0"/>
                <note len="-192" key="57" vol="100" pos="348" pan="0"/>
                <note len="-192" key="57" vol="100" pos="360" pan="0"/>
                <note len="-192" key="57" vol="100" pos="372" pan="0"/>
              </pattern>
              <pattern muted="0" name="kick.wav" pos="3072" type="0" steps="16"/>
              <pattern muted="0" name="kick.wav" pos="3264" type="0" steps="64">
                <note len="-192" key="57" vol="100" pos="0" pan="0"/>
                <note len="-192" key="57" vol="100" pos="48" pan="0"/>
                <note len="-192" key="57" vol="100" pos="96" pan="0"/>
                <note len="-192" key="57" vol="100" pos="120" pan="0"/>
                <note len="-192" key="57" vol="100" pos="144" pan="0"/>
                <note len="-192" key="57" vol="100" pos="168" pan="0"/>
                <note len="-192" key="57" vol="100" pos="192" pan="0"/>
                <note len="-192" key="57" vol="100" pos="240" pan="0"/>
                <note len="-192" key="57" vol="100" pos="288" pan="0"/>
                <note len="-192" key="57" vol="100" pos="312" pan="0"/>
                <note len="-192" key="57" vol="100" pos="336" pan="0"/>
                <note len="-192" key="57" vol="100" pos="360" pan="0"/>
                <note len="-192" key="57" vol="100" pos="384" pan="0"/>
                <note len="-192" key="57" vol="100" pos="408" pan="0"/>
                <note len="-192" key="57" vol="100" pos="420" pan="0"/>
                <note len="-192" key="57" vol="100" pos="432" pan="0"/>
                <note len="-192" key="57" vol="100" pos="456" pan="0"/>
                <note len="-192" key="57" vol="100" pos="468" pan="0"/>
                <note len="-192" key="57" vol="100" pos="480" pan="0"/>
                <note len="-192" key="57" vol="100" pos="504" pan="0"/>
                <note len="-192" key="57" vol="100" pos="516" pan="0"/>
                <note len="-192" key="57" vol="100" pos="528" pan="0"/>
                <note len="-192" key="57" vol="100" pos="552" pan="0"/>
                <note len="-192" key="57" vol="100" pos="564" pan="0"/>
                <note len="-192" key="57" vol="100" pos="576" pan="0"/>
                <note len="-192" key="57" vol="100" pos="588" pan="0"/>
                <note len="-192" key="57" vol="100" pos="600" pan="0"/>
                <note len="-192" key="57" vol="100" pos="612" pan="0"/>
                <note len="-192" key="57" vol="100" pos="624" pan="0"/>
                <note len="-192" key="57" vol="100" pos="636" pan="0"/>
                <note len="-192" key="57" vol="100" pos="648" pan="0"/>
                <note len="-192" key="57" vol="100" pos="660" pan="0"/>
                <note len="-192" key="57" vol="100" pos="672" pan="0"/>
                <note len="-192" key="57" vol="100" pos="684" pan="0"/>
                <note len="-192" key="57" vol="100" pos="696" pan="0"/>
                <note len="-192" key="57" vol="100" pos="708" pan="0"/>
                <note len="-192" key="57" vol="100" pos="720" pan="0"/>
                <note len="-192" key="57" vol="100" pos="732" pan="0"/>
                <note len="-192" key="57" vol="100" pos="744" pan="0"/>
                <note len="-192" key="57" vol="100" pos="756" pan="0"/>
              </pattern>
              <pattern muted="0" name="kick.wav" pos="3456" type="0" steps="16">
                <note len="-192" key="57" vol="100" pos="0" pan="0"/>
                <note len="-192" key="57" vol="100" pos="24" pan="0"/>
              </pattern>
              <pattern muted="0" name="kick.wav" pos="3648" type="0" steps="64">
                <note len="-192" key="57" vol="100" pos="0" pan="0"/>
                <note len="-192" key="57" vol="100" pos="384" pan="0"/>
                <note len="-192" key="57" vol="100" pos="576" pan="0"/>
                <note len="-192" key="57" vol="100" pos="672" pan="0"/>
                <note len="-192" key="57" vol="100" pos="696" pan="0"/>
                <note len="-192" key="57" vol="100" pos="720" pan="0"/>
                <note len="-192" key="57" vol="100" pos="744" pan="0"/>
              </pattern>
              <pattern muted="0" name="kick.wav" pos="3840" type="0" steps="32">
                <note len="-192" key="57" vol="100" pos="0" pan="0"/>
                <note len="-192" key="57" vol="100" pos="24" pan="0"/>
                <note len="-192" key="57" vol="100" pos="48" pan="0"/>
                <note len="-192" key="57" vol="100" pos="72" pan="0"/>
                <note len="-192" key="57" vol="100" pos="96" pan="0"/>
                <note len="-192" key="57" vol="100" pos="120" pan="0"/>
                <note len="-192" key="57" vol="100" pos="144" pan="0"/>
                <note len="-192" key="57" vol="100" pos="168" pan="0"/>
                <note len="-192" key="57" vol="100" pos="192" pan="0"/>
                <note len="-192" key="57" vol="100" pos="216" pan="0"/>
                <note len="-192" key="57" vol="100" pos="240" pan="0"/>
                <note len="-192" key="57" vol="100" pos="264" pan="0"/>
                <note len="-192" key="57" vol="100" pos="288" pan="0"/>
                <note len="-192" key="57" vol="100" pos="300" pan="0"/>
                <note len="-192" key="57" vol="100" pos="312" pan="0"/>
                <note len="-192" key="57" vol="100" pos="324" pan="0"/>
                <note len="-192" key="57" vol="100" pos="336" pan="0"/>
                <note len="-192" key="57" vol="100" pos="348" pan="0"/>
                <note len="-192" key="57" vol="100" pos="360" pan="0"/>
                <note len="-192" key="57" vol="100" pos="372" pan="0"/>
              </pattern>
              <pattern muted="0" name="kick.wav" pos="4032" type="0" steps="64">
                <note len="-192" key="57" vol="100" pos="0" pan="0"/>
                <note len="-192" key="57" vol="100" pos="24" pan="0"/>
                <note len="-192" key="57" vol="100" pos="48" pan="0"/>
                <note len="-192" key="57" vol="100" pos="72" pan="0"/>
                <note len="-192" key="57" vol="100" pos="96" pan="0"/>
                <note len="-192" key="57" vol="100" pos="120" pan="0"/>
                <note len="-192" key="57" vol="100" pos="144" pan="0"/>
                <note len="-192" key="57" vol="100" pos="168" pan="0"/>
                <note len="-192" key="57" vol="100" pos="192" pan="0"/>
                <note len="-192" key="57" vol="100" pos="216" pan="0"/>
                <note len="-192" key="57" vol="100" pos="240" pan="0"/>
                <note len="-192" key="57" vol="100" pos="264" pan="0"/>
                <note len="-192" key="57" vol="100" pos="288" pan="0"/>
                <note len="-192" key="57" vol="100" pos="300" pan="0"/>
                <note len="-192" key="57" vol="100" pos="312" pan="0"/>
                <note len="-192" key="57" vol="100" pos="324" pan="0"/>
                <note len="-192" key="57" vol="100" pos="336" pan="0"/>
                <note len="-192" key="57" vol="100" pos="348" pan="0"/>
                <note len="-192" key="57" vol="100" pos="360" pan="0"/>
                <note len="-192" key="57" vol="100" pos="372" pan="0"/>
                <note len="-192" key="57" vol="100" pos="384" pan="0"/>
                <note len="-192" key="57" vol="100" pos="408" pan="0"/>
                <note len="-192" key="57" vol="100" pos="432" pan="0"/>
                <note len="-192" key="57" vol="100" pos="456" pan="0"/>
                <note len="-192" key="57" vol="100" pos="480" pan="0"/>
                <note len="-192" key="57" vol="100" pos="504" pan="0"/>
                <note len="-192" key="57" vol="100" pos="528" pan="0"/>
                <note len="-192" key="57" vol="100" pos="552" pan="0"/>
                <note len="-192" key="57" vol="100" pos="576" pan="0"/>
                <note len="-192" key="57" vol="100" pos="600" pan="0"/>
                <note len="-192" key="57" vol="100" pos="624" pan="0"/>
                <note len="-192" key="57" vol="100" pos="648" pan="0"/>
                <note len="-192" key="57" vol="100" pos="672" pan="0"/>
                <note len="-192" key="57" vol="100" pos="684" pan="0"/>
                <note len="-192" key="57" vol="100" pos="696" pan="0"/>
                <note len="-192" key="57" vol="100" pos="708" pan="0"/>
                <note len="-192" key="57" vol="100" pos="720" pan="0"/>
                <note len="-192" key="57" vol="100" pos="732" pan="0"/>
                <note len="-192" key="57" vol="100" pos="744" pan="0"/>
                <note len="-192" key="57" vol="100" pos="756" pan="0"/>
              </pattern>
              <pattern muted="0" name="kick.wav" pos="4224" type="0" steps="32">
                <note len="-192" key="57" vol="100" pos="24" pan="0"/>
                <note len="-192" key="57" vol="100" pos="36" pan="0"/>
                <note len="-192" key="57" vol="100" pos="72" pan="0"/>
                <note len="-192" key="57" vol="100" pos="120" pan="0"/>
                <note len="-192" key="57" vol="100" pos="132" pan="0"/>
                <note len="-192" key="57" vol="100" pos="168" pan="0"/>
                <note len="-192" key="57" vol="100" pos="216" pan="0"/>
                <note len="-192" key="57" vol="100" pos="228" pan="0"/>
                <note len="-192" key="57" vol="100" pos="264" pan="0"/>
                <note len="-192" key="57" vol="100" pos="312" pan="0"/>
                <note len="-192" key="57" vol="100" pos="324" pan="0"/>
                <note len="-192" key="57" vol="100" pos="360" pan="0"/>
              </pattern>
              <pattern muted="0" name="kick.wav" pos="4416" type="0" steps="32">
                <note len="-192" key="57" vol="100" pos="0" pan="0"/>
                <note len="-192" key="57" vol="100" pos="192" pan="0"/>
              </pattern>
            </track>
            <track muted="0" name="hihat_opened02.ogg" solo="0" type="0">
              <instrumenttrack pitch="0" fxch="2" basenote="57" vol="56.8" pitchrange="1" usemasterpitch="1" pan="-42.4">
                <instrument name="audiofileprocessor">
                  <audiofileprocessor sframe="0" src="drums/hihat_opened02.ogg" lframe="0" reversed="0" interp="1" looped="0" amp="100" stutter="0" eframe="1"/>
                </instrument>
                <eldata ftype="0" fcut="14000" fres="0.5" fwet="0">
                  <elvol userwavefile="" hold="2" lspd_numerator="4" lspd="0.1" lspd_denominator="4" lshp="0" latt="0" rel="0" x100="0" pdel="0" lpdel="0" amt="1" lspd_syncmode="0" dec="2" lamt="0" sustain="0" ctlenvamt="0" att="0"/>
                  <elcut userwavefile="" hold="0.5" lspd_numerator="4" lspd="0.1" lspd_denominator="4" lshp="0" latt="0" rel="0.1" x100="0" pdel="0" lpdel="0" amt="0" lspd_syncmode="0" dec="0.5" lamt="0" sustain="0.5" ctlenvamt="0" att="0"/>
                  <elres userwavefile="" hold="0.5" lspd_numerator="4" lspd="0.1" lspd_denominator="4" lshp="0" latt="0" rel="0.1" x100="0" pdel="0" lpdel="0" amt="0" lspd_syncmode="0" dec="0.5" lamt="0" sustain="0.5" ctlenvamt="0" att="0"/>
                </eldata>
                <chordcreator chord-enabled="0" chordrange="1" chord="0"/>
                <arpeggiator arpcycle="0" arptime_syncmode="0" arptime_numerator="4" arpgate="100" arpmode="0" arp-enabled="0" arptime="200" arp="0" arpskip="0" arpmiss="0" arprange="1" arpdir="0" arptime_denominator="4"/>
                <midiport inputchannel="0" outputprogram="1" basevelocity="63" outputchannel="1" fixedinputvelocity="-1" inputcontroller="0" readable="0" writable="0" outputcontroller="0" fixedoutputvelocity="-1" fixedoutputnote="-1"/>
                <fxchain numofeffects="0" enabled="0"/>
              </instrumenttrack>
              <pattern muted="0" name="hihat_opened02.ogg" pos="0" type="0" steps="64"/>
              <pattern muted="0" name="hihat_opened02.ogg" pos="192" type="0" steps="64">
                <note len="-192" key="57" vol="100" pos="432" pan="0"/>
                <note len="-192" key="57" vol="100" pos="480" pan="0"/>
              </pattern>
              <pattern muted="0" name="hihat_opened02.ogg" pos="384" type="0" steps="64">
                <note len="-192" key="57" vol="100" pos="0" pan="0"/>
                <note len="-192" key="57" vol="100" pos="96" pan="0"/>
                <note len="-192" key="57" vol="100" pos="192" pan="0"/>
                <note len="-192" key="57" vol="100" pos="288" pan="0"/>
                <note len="-192" key="57" vol="100" pos="384" pan="0"/>
                <note len="-192" key="57" vol="100" pos="480" pan="0"/>
                <note len="-192" key="57" vol="100" pos="576" pan="0"/>
                <note len="-192" key="57" vol="100" pos="672" pan="0"/>
              </pattern>
              <pattern muted="0" name="hihat_opened02.ogg" pos="576" type="0" steps="64">
                <note len="-192" key="57" vol="100" pos="0" pan="0"/>
                <note len="-192" key="57" vol="100" pos="48" pan="0"/>
                <note len="-192" key="57" vol="100" pos="96" pan="0"/>
                <note len="-192" key="57" vol="100" pos="144" pan="0"/>
                <note len="-192" key="57" vol="100" pos="192" pan="0"/>
                <note len="-192" key="57" vol="100" pos="240" pan="0"/>
                <note len="-192" key="57" vol="100" pos="288" pan="0"/>
                <note len="-192" key="57" vol="100" pos="336" pan="0"/>
                <note len="-192" key="57" vol="100" pos="384" pan="0"/>
                <note len="-192" key="57" vol="100" pos="432" pan="0"/>
                <note len="-192" key="57" vol="100" pos="480" pan="0"/>
                <note len="-192" key="57" vol="100" pos="528" pan="0"/>
                <note len="-192" key="57" vol="100" pos="576" pan="0"/>
                <note len="-192" key="57" vol="100" pos="624" pan="0"/>
                <note len="-192" key="57" vol="100" pos="672" pan="0"/>
                <note len="-192" key="57" vol="100" pos="720" pan="0"/>
              </pattern>
              <pattern muted="0" name="hihat_opened02.ogg" pos="768" type="0" steps="16"/>
              <pattern muted="0" name="hihat_opened02.ogg" pos="960" type="0" steps="32"/>
              <pattern muted="0" name="hihat_opened02.ogg" pos="1152" type="0" steps="64">
                <note len="-192" key="57" vol="100" pos="0" pan="0"/>
                <note len="-192" key="57" vol="100" pos="48" pan="0"/>
                <note len="-192" key="57" vol="100" pos="96" pan="0"/>
                <note len="-192" key="57" vol="100" pos="144" pan="0"/>
                <note len="-192" key="57" vol="100" pos="192" pan="0"/>
                <note len="-192" key="57" vol="100" pos="240" pan="0"/>
                <note len="-192" key="57" vol="100" pos="288" pan="0"/>
                <note len="-192" key="57" vol="100" pos="336" pan="0"/>
                <note len="-192" key="57" vol="100" pos="384" pan="0"/>
                <note len="-192" key="57" vol="100" pos="432" pan="0"/>
                <note len="-192" key="57" vol="100" pos="480" pan="0"/>
                <note len="-192" key="57" vol="100" pos="528" pan="0"/>
                <note len="-192" key="57" vol="100" pos="576" pan="0"/>
                <note len="-192" key="57" vol="100" pos="624" pan="0"/>
                <note len="-192" key="57" vol="100" pos="672" pan="0"/>
                <note len="-192" key="57" vol="100" pos="720" pan="0"/>
              </pattern>
              <pattern muted="0" name="hihat_opened02.ogg" pos="1344" type="0" steps="64">
                <note len="-192" key="57" vol="100" pos="0" pan="0"/>
                <note len="-192" key="57" vol="100" pos="48" pan="0"/>
                <note len="-192" key="57" vol="100" pos="96" pan="0"/>
                <note len="-192" key="57" vol="100" pos="144" pan="0"/>
                <note len="-192" key="57" vol="100" pos="192" pan="0"/>
                <note len="-192" key="57" vol="100" pos="240" pan="0"/>
                <note len="-192" key="57" vol="100" pos="288" pan="0"/>
                <note len="-192" key="57" vol="100" pos="336" pan="0"/>
              </pattern>
              <pattern muted="0" name="hihat_opened02.ogg" pos="1536" type="0" steps="64">
                <note len="-192" key="57" vol="100" pos="0" pan="0"/>
                <note len="-192" key="57" vol="100" pos="48" pan="0"/>
                <note len="-192" key="57" vol="100" pos="96" pan="0"/>
                <note len="-192" key="57" vol="100" pos="144" pan="0"/>
                <note len="-192" key="57" vol="100" pos="192" pan="0"/>
                <note len="-192" key="57" vol="100" pos="240" pan="0"/>
                <note len="-192" key="57" vol="100" pos="288" pan="0"/>
                <note len="-192" key="57" vol="100" pos="336" pan="0"/>
              </pattern>
              <pattern muted="0" name="hihat_opened02.ogg" pos="1728" type="0" steps="64">
                <note len="-192" key="57" vol="100" pos="0" pan="0"/>
                <note len="-192" key="57" vol="100" pos="48" pan="0"/>
                <note len="-192" key="57" vol="100" pos="96" pan="0"/>
                <note len="-192" key="57" vol="100" pos="144" pan="0"/>
                <note len="-192" key="57" vol="100" pos="192" pan="0"/>
                <note len="-192" key="57" vol="100" pos="240" pan="0"/>
                <note len="-192" key="57" vol="100" pos="288" pan="0"/>
                <note len="-192" key="57" vol="100" pos="336" pan="0"/>
                <note len="-192" key="57" vol="100" pos="384" pan="0"/>
                <note len="-192" key="57" vol="100" pos="432" pan="0"/>
                <note len="-192" key="57" vol="100" pos="480" pan="0"/>
                <note len="-192" key="57" vol="100" pos="528" pan="0"/>
                <note len="-192" key="57" vol="100" pos="576" pan="0"/>
                <note len="-192" key="57" vol="100" pos="624" pan="0"/>
                <note len="-192" key="57" vol="100" pos="672" pan="0"/>
                <note len="-192" key="57" vol="100" pos="720" pan="0"/>
              </pattern>
              <pattern muted="0" name="hihat_opened02.ogg" pos="1920" type="0" steps="64">
                <note len="-192" key="57" vol="100" pos="0" pan="0"/>
                <note len="-192" key="57" vol="100" pos="48" pan="0"/>
                <note len="-192" key="57" vol="100" pos="96" pan="0"/>
                <note len="-192" key="57" vol="100" pos="144" pan="0"/>
                <note len="-192" key="57" vol="100" pos="192" pan="0"/>
                <note len="-192" key="57" vol="100" pos="240" pan="0"/>
                <note len="-192" key="57" vol="100" pos="288" pan="0"/>
                <note len="-192" key="57" vol="100" pos="336" pan="0"/>
                <note len="-192" key="57" vol="100" pos="384" pan="0"/>
                <note len="-192" key="57" vol="100" pos="432" pan="0"/>
                <note len="-192" key="57" vol="100" pos="480" pan="0"/>
                <note len="-192" key="57" vol="100" pos="528" pan="0"/>
                <note len="-192" key="57" vol="100" pos="576" pan="0"/>
                <note len="-192" key="57" vol="100" pos="624" pan="0"/>
                <note len="-192" key="57" vol="100" pos="672" pan="0"/>
                <note len="-192" key="57" vol="100" pos="720" pan="0"/>
              </pattern>
              <pattern muted="0" name="hihat_opened02.ogg" pos="2112" type="0" steps="32">
                <note len="-192" key="57" vol="100" pos="0" pan="0"/>
                <note len="-192" key="57" vol="100" pos="48" pan="0"/>
                <note len="-192" key="57" vol="100" pos="96" pan="0"/>
                <note len="-192" key="57" vol="100" pos="144" pan="0"/>
              </pattern>
              <pattern muted="0" name="hihat_opened02.ogg" pos="2304" type="0" steps="32"/>
              <pattern muted="0" name="hihat_opened02.ogg" pos="2496" type="0" steps="32"/>
              <pattern muted="0" name="hihat_opened02.ogg" pos="2688" type="0" steps="32">
                <note len="-192" key="57" vol="100" pos="48" pan="0"/>
                <note len="-192" key="57" vol="100" pos="96" pan="0"/>
                <note len="-192" key="57" vol="100" pos="144" pan="0"/>
                <note len="-192" key="57" vol="100" pos="192" pan="0"/>
                <note len="-192" key="57" vol="100" pos="240" pan="0"/>
                <note len="-192" key="57" vol="100" pos="288" pan="0"/>
                <note len="-192" key="57" vol="100" pos="336" pan="0"/>
              </pattern>
              <pattern muted="0" name="hihat_opened02.ogg" pos="2880" type="0" steps="32">
                <note len="-192" key="57" vol="100" pos="48" pan="0"/>
                <note len="-192" key="57" vol="100" pos="96" pan="0"/>
                <note len="-192" key="57" vol="100" pos="144" pan="0"/>
              </pattern>
              <pattern muted="0" name="hihat_opened02.ogg" pos="3072" type="0" steps="16"/>
              <pattern muted="0" name="hihat_opened02.ogg" pos="3264" type="0" steps="64">
                <note len="-192" key="57" vol="100" pos="0" pan="0"/>
                <note len="-192" key="57" vol="100" pos="48" pan="0"/>
                <note len="-192" key="57" vol="100" pos="120" pan="0"/>
                <note len="-192" key="57" vol="100" pos="144" pan="0"/>
                <note len="-192" key="57" vol="100" pos="168" pan="0"/>
                <note len="-192" key="57" vol="100" pos="192" pan="0"/>
                <note len="-192" key="57" vol="100" pos="240" pan="0"/>
                <note len="-192" key="57" vol="100" pos="312" pan="0"/>
                <note len="-192" key="57" vol="100" pos="336" pan="0"/>
                <note len="-192" key="57" vol="100" pos="360" pan="0"/>
                <note len="-192" key="57" vol="100" pos="384" pan="0"/>
                <note len="-192" key="57" vol="100" pos="480" pan="0"/>
              </pattern>
              <pattern muted="0" name="hihat_opened02.ogg" pos="3456" type="0" steps="16"/>
              <pattern muted="0" name="hihat_opened02.ogg" pos="3648" type="0" steps="64"/>
              <pattern muted="0" name="hihat_opened02.ogg" pos="3840" type="0" steps="32"/>
              <pattern muted="0" name="hihat_opened02.ogg" pos="4032" type="0" steps="64"/>
              <pattern muted="0" name="hihat_opened02.ogg" pos="4224" type="0" steps="32">
                <note len="-192" key="57" vol="100" pos="0" pan="0"/>
                <note len="-192" key="57" vol="100" pos="48" pan="0"/>
                <note len="-192" key="57" vol="100" pos="96" pan="0"/>
                <note len="-192" key="57" vol="100" pos="144" pan="0"/>
                <note len="-192" key="57" vol="100" pos="192" pan="0"/>
                <note len="-192" key="57" vol="100" pos="240" pan="0"/>
                <note len="-192" key="57" vol="100" pos="288" pan="0"/>
                <note len="-192" key="57" vol="100" pos="336" pan="0"/>
              </pattern>
              <pattern muted="0" name="hihat_opened02.ogg" pos="4416" type="0" steps="32"/>
            </track>
            <track muted="0" name="snare.wav" solo="0" type="0">
              <instrumenttrack pitch="0" fxch="3" basenote="57" vol="200" pitchrange="1" usemasterpitch="1" pan="0">
                <instrument name="audiofileprocessor">
                  <audiofileprocessor sframe="0" src="/home/pass/samples/sillydrums/snare.wav" lframe="0" reversed="0" interp="1" looped="0" amp="100" stutter="0" eframe="1"/>
                </instrument>
                <eldata ftype="0" fcut="14000" fres="0.5" fwet="0">
                  <elvol userwavefile="" hold="2" lspd_numerator="4" lspd="0.1" lspd_denominator="4" lshp="0" latt="0" rel="2" x100="0" pdel="0" lpdel="0" amt="1" lspd_syncmode="0" dec="2" lamt="0" sustain="1" ctlenvamt="0" att="0"/>
                  <elcut userwavefile="" hold="0.5" lspd_numerator="4" lspd="0.1" lspd_denominator="4" lshp="0" latt="0" rel="0.1" x100="0" pdel="0" lpdel="0" amt="0" lspd_syncmode="0" dec="0.5" lamt="0" sustain="0.5" ctlenvamt="0" att="0"/>
                  <elres userwavefile="" hold="0.5" lspd_numerator="4" lspd="0.1" lspd_denominator="4" lshp="0" latt="0" rel="0.1" x100="0" pdel="0" lpdel="0" amt="0" lspd_syncmode="0" dec="0.5" lamt="0" sustain="0.5" ctlenvamt="0" att="0"/>
                </eldata>
                <chordcreator chord-enabled="0" chordrange="1" chord="0"/>
                <arpeggiator arpcycle="0" arptime_syncmode="0" arptime_numerator="4" arpgate="100" arpmode="0" arp-enabled="0" arptime="200" arp="0" arpskip="0" arpmiss="0" arprange="1" arpdir="0" arptime_denominator="4"/>
                <midiport inputchannel="0" outputprogram="1" basevelocity="63" outputchannel="1" fixedinputvelocity="-1" inputcontroller="0" readable="0" writable="0" outputcontroller="0" fixedoutputvelocity="-1" fixedoutputnote="-1"/>
                <fxchain numofeffects="0" enabled="0"/>
              </instrumenttrack>
              <pattern muted="0" name="snare.wav" pos="0" type="0" steps="64">
                <note len="-192" key="57" vol="100" pos="0" pan="0"/>
                <note len="-192" key="57" vol="100" pos="12" pan="0"/>
                <note len="-192" key="57" vol="100" pos="24" pan="0"/>
                <note len="-192" key="57" vol="100" pos="36" pan="0"/>
                <note len="-192" key="57" vol="100" pos="96" pan="0"/>
                <note len="-192" key="57" vol="100" pos="384" pan="0"/>
                <note len="-192" key="57" vol="100" pos="396" pan="0"/>
                <note len="-192" key="57" vol="100" pos="408" pan="0"/>
                <note len="-192" key="57" vol="100" pos="420" pan="0"/>
                <note len="-192" key="57" vol="100" pos="480" pan="0"/>
                <note len="-192" key="57" vol="100" pos="672" pan="0"/>
                <note len="-192" key="57" vol="100" pos="684" pan="0"/>
                <note len="-192" key="57" vol="100" pos="720" pan="0"/>
                <note len="-192" key="57" vol="100" pos="732" pan="0"/>
              </pattern>
              <pattern muted="0" name="snare.wav" pos="192" type="0" steps="64">
                <note len="-192" key="57" vol="100" pos="0" pan="0"/>
                <note len="-192" key="57" vol="100" pos="12" pan="0"/>
                <note len="-192" key="57" vol="100" pos="24" pan="0"/>
                <note len="-192" key="57" vol="100" pos="36" pan="0"/>
                <note len="-192" key="57" vol="100" pos="48" pan="0"/>
                <note len="-192" key="57" vol="100" pos="96" pan="0"/>
                <note len="-192" key="57" vol="100" pos="192" pan="0"/>
                <note len="-192" key="57" vol="100" pos="288" pan="0"/>
                <note len="-192" key="57" vol="100" pos="384" pan="0"/>
                <note len="-192" key="57" vol="100" pos="432" pan="0"/>
                <note len="-192" key="57" vol="100" pos="480" pan="0"/>
              </pattern>
              <pattern muted="0" name="snare.wav" pos="384" type="0" steps="64">
                <note len="-192" key="57" vol="100" pos="48" pan="0"/>
                <note len="-192" key="57" vol="100" pos="144" pan="0"/>
                <note len="-192" key="57" vol="100" pos="240" pan="0"/>
                <note len="-192" key="57" vol="100" pos="336" pan="0"/>
                <note len="-192" key="57" vol="100" pos="432" pan="0"/>
                <note len="-192" key="57" vol="100" pos="528" pan="0"/>
                <note len="-192" key="57" vol="100" pos="624" pan="0"/>
                <note len="-192" key="57" vol="100" pos="720" pan="0"/>
              </pattern>
              <pattern muted="0" name="snare.wav" pos="576" type="0" steps="64">
                <note len="-192" key="57" vol="100" pos="24" pan="0"/>
                <note len="-192" key="57" vol="100" pos="72" pan="0"/>
                <note len="-192" key="57" vol="100" pos="120" pan="0"/>
                <note len="-192" key="57" vol="100" pos="168" pan="0"/>
                <note len="-192" key="57" vol="100" pos="216" pan="0"/>
                <note len="-192" key="57" vol="100" pos="264" pan="0"/>
                <note len="-192" key="57" vol="100" pos="312" pan="0"/>
                <note len="-192" key="57" vol="100" pos="360" pan="0"/>
                <note len="-192" key="57" vol="100" pos="408" pan="0"/>
                <note len="-192" key="57" vol="100" pos="456" pan="0"/>
                <note len="-192" key="57" vol="100" pos="504" pan="0"/>
                <note len="-192" key="57" vol="100" pos="552" pan="0"/>
                <note len="-192" key="57" vol="100" pos="600" pan="0"/>
                <note len="-192" key="57" vol="100" pos="648" pan="0"/>
                <note len="-192" key="57" vol="100" pos="696" pan="0"/>
                <note len="-192" key="57" vol="100" pos="744" pan="0"/>
              </pattern>
              <pattern muted="0" name="snare.wav" pos="768" type="0" steps="16">
                <note len="-192" key="57" vol="100" pos="0" pan="0"/>
                <note len="-192" key="57" vol="100" pos="12" pan="0"/>
                <note len="-192" key="57" vol="100" pos="24" pan="0"/>
                <note len="-192" key="57" vol="100" pos="36" pan="0"/>
                <note len="-192" key="57" vol="100" pos="48" pan="0"/>
                <note len="-192" key="57" vol="100" pos="60" pan="0"/>
                <note len="-192" key="57" vol="100" pos="72" pan="0"/>
                <note len="-192" key="57" vol="100" pos="84" pan="0"/>
                <note len="-192" key="57" vol="100" pos="96" pan="0"/>
                <note len="-192" key="57" vol="100" pos="144" pan="0"/>
              </pattern>
              <pattern muted="0" name="snare.wav" pos="960" type="0" steps="32">
                <note len="-192" key="57" vol="100" pos="0" pan="0"/>
                <note len="-192" key="57" vol="100" pos="12" pan="0"/>
                <note len="-192" key="57" vol="100" pos="72" pan="0"/>
                <note len="-192" key="57" vol="100" pos="84" pan="0"/>
                <note len="-192" key="57" vol="100" pos="144" pan="0"/>
                <note len="-192" key="57" vol="100" pos="156" pan="0"/>
              </pattern>
              <pattern muted="0" name="snare.wav" pos="1152" type="0" steps="64">
                <note len="-192" key="57" vol="100" pos="24" pan="0"/>
                <note len="-192" key="57" vol="100" pos="72" pan="0"/>
                <note len="-192" key="57" vol="100" pos="120" pan="0"/>
                <note len="-192" key="57" vol="100" pos="168" pan="0"/>
                <note len="-192" key="57" vol="100" pos="216" pan="0"/>
                <note len="-192" key="57" vol="100" pos="264" pan="0"/>
                <note len="-192" key="57" vol="100" pos="312" pan="0"/>
                <note len="-192" key="57" vol="100" pos="360" pan="0"/>
                <note len="-192" key="57" vol="100" pos="408" pan="0"/>
                <note len="-192" key="57" vol="100" pos="456" pan="0"/>
                <note len="-192" key="57" vol="100" pos="504" pan="0"/>
                <note len="-192" key="57" vol="100" pos="552" pan="0"/>
                <note len="-192" key="57" vol="100" pos="600" pan="0"/>
                <note len="-192" key="57" vol="100" pos="648" pan="0"/>
                <note len="-192" key="57" vol="100" pos="696" pan="0"/>
                <note len="-192" key="57" vol="100" pos="744" pan="0"/>
              </pattern>
              <pattern muted="0" name="snare.wav" pos="1344" type="0" steps="64">
                <note len="-192" key="57" vol="100" pos="24" pan="0"/>
                <note len="-192" key="57" vol="100" pos="72" pan="0"/>
                <note len="-192" key="57" vol="100" pos="120" pan="0"/>
                <note len="-192" key="57" vol="100" pos="168" pan="0"/>
                <note len="-192" key="57" vol="100" pos="216" pan="0"/>
                <note len="-192" key="57" vol="100" pos="264" pan="0"/>
                <note len="-192" key="57" vol="100" pos="312" pan="0"/>
                <note len="-192" key="57" vol="100" pos="360" pan="0"/>
                <note len="-192" key="57" vol="100" pos="384" pan="0"/>
                <note len="-192" key="57" vol="100" pos="408" pan="0"/>
                <note len="-192" key="57" vol="100" pos="432" pan="0"/>
                <note len="-192" key="57" vol="100" pos="456" pan="0"/>
                <note len="-192" key="57" vol="100" pos="480" pan="0"/>
                <note len="-192" key="57" vol="100" pos="504" pan="0"/>
                <note len="-192" key="57" vol="100" pos="528" pan="0"/>
                <note len="-192" key="57" vol="100" pos="552" pan="0"/>
              </pattern>
              <pattern muted="0" name="snare.wav" pos="1536" type="0" steps="64">
                <note len="-192" key="57" vol="100" pos="24" pan="0"/>
                <note len="-192" key="57" vol="100" pos="72" pan="0"/>
                <note len="-192" key="57" vol="100" pos="120" pan="0"/>
                <note len="-192" key="57" vol="100" pos="168" pan="0"/>
                <note len="-192" key="57" vol="100" pos="216" pan="0"/>
                <note len="-192" key="57" vol="100" pos="264" pan="0"/>
                <note len="-192" key="57" vol="100" pos="312" pan="0"/>
                <note len="-192" key="57" vol="100" pos="360" pan="0"/>
                <note len="-192" key="57" vol="100" pos="384" pan="0"/>
                <note len="-192" key="57" vol="100" pos="408" pan="0"/>
                <note len="-192" key="57" vol="100" pos="432" pan="0"/>
                <note len="-192" key="57" vol="100" pos="456" pan="0"/>
                <note len="-192" key="57" vol="100" pos="480" pan="0"/>
                <note len="-192" key="57" vol="100" pos="504" pan="0"/>
                <note len="-192" key="57" vol="100" pos="528" pan="0"/>
                <note len="-192" key="57" vol="100" pos="552" pan="0"/>
                <note len="-192" key="57" vol="100" pos="576" pan="0"/>
                <note len="-192" key="57" vol="100" pos="624" pan="0"/>
                <note len="-192" key="57" vol="100" pos="672" pan="0"/>
                <note len="-192" key="57" vol="100" pos="720" pan="0"/>
                <note len="-192" key="57" vol="100" pos="732" pan="0"/>
                <note len="-192" key="57" vol="100" pos="744" pan="0"/>
                <note len="-192" key="57" vol="100" pos="756" pan="0"/>
              </pattern>
              <pattern muted="0" name="snare.wav" pos="1728" type="0" steps="64">
                <note len="-192" key="57" vol="100" pos="24" pan="0"/>
                <note len="-192" key="57" vol="100" pos="72" pan="0"/>
                <note len="-192" key="57" vol="100" pos="120" pan="0"/>
                <note len="-192" key="57" vol="100" pos="168" pan="0"/>
                <note len="-192" key="57" vol="100" pos="216" pan="0"/>
                <note len="-192" key="57" vol="100" pos="264" pan="0"/>
                <note len="-192" key="57" vol="100" pos="312" pan="0"/>
                <note len="-192" key="57" vol="100" pos="360" pan="0"/>
                <note len="-192" key="57" vol="100" pos="408" pan="0"/>
                <note len="-192" key="57" vol="100" pos="456" pan="0"/>
                <note len="-192" key="57" vol="100" pos="504" pan="0"/>
                <note len="-192" key="57" vol="100" pos="552" pan="0"/>
                <note len="-192" key="57" vol="100" pos="600" pan="0"/>
                <note len="-192" key="57" vol="100" pos="648" pan="0"/>
                <note len="-192" key="57" vol="100" pos="696" pan="0"/>
                <note len="-192" key="57" vol="100" pos="744" pan="0"/>
              </pattern>
              <pattern muted="0" name="snare.wav" pos="1920" type="0" steps="64">
                <note len="-192" key="57" vol="100" pos="24" pan="0"/>
                <note len="-192" key="57" vol="100" pos="72" pan="0"/>
                <note len="-192" key="57" vol="100" pos="120" pan="0"/>
                <note len="-192" key="57" vol="100" pos="168" pan="0"/>
                <note len="-192" key="57" vol="100" pos="216" pan="0"/>
                <note len="-192" key="57" vol="100" pos="264" pan="0"/>
                <note len="-192" key="57" vol="100" pos="312" pan="0"/>
                <note len="-192" key="57" vol="100" pos="360" pan="0"/>
                <note len="-192" key="57" vol="100" pos="408" pan="0"/>
                <note len="-192" key="57" vol="100" pos="456" pan="0"/>
                <note len="-192" key="57" vol="100" pos="504" pan="0"/>
                <note len="-192" key="57" vol="100" pos="552" pan="0"/>
                <note len="-192" key="57" vol="100" pos="600" pan="0"/>
                <note len="-192" key="57" vol="100" pos="648" pan="0"/>
                <note len="-192" key="57" vol="100" pos="696" pan="0"/>
                <note len="-192" key="57" vol="100" pos="744" pan="0"/>
              </pattern>
              <pattern muted="0" name="snare.wav" pos="2112" type="0" steps="32">
                <note len="-192" key="57" vol="100" pos="24" pan="0"/>
                <note len="-192" key="57" vol="100" pos="72" pan="0"/>
                <note len="-192" key="57" vol="100" pos="120" pan="0"/>
                <note len="-192" key="57" vol="100" pos="168" pan="0"/>
                <note len="-192" key="57" vol="100" pos="192" pan="0"/>
                <note len="-192" key="57" vol="100" pos="288" pan="0"/>
                <note len="-192" key="57" vol="100" pos="300" pan="0"/>
              </pattern>
              <pattern muted="0" name="snare.wav" pos="2304" type="0" steps="32">
                <note len="-192" key="57" vol="100" pos="264" pan="0"/>
                <note len="-192" key="57" vol="100" pos="336" pan="0"/>
                <note len="-192" key="57" vol="100" pos="348" pan="0"/>
                <note len="-192" key="57" vol="100" pos="360" pan="0"/>
                <note len="-192" key="57" vol="100" pos="372" pan="0"/>
              </pattern>
              <pattern muted="0" name="snare.wav" pos="2496" type="0" steps="32"/>
              <pattern muted="0" name="snare.wav" pos="2688" type="0" steps="32">
                <note len="-192" key="57" vol="100" pos="0" pan="0"/>
                <note len="-192" key="57" vol="100" pos="48" pan="0"/>
                <note len="-192" key="57" vol="100" pos="96" pan="0"/>
                <note len="-192" key="57" vol="100" pos="144" pan="0"/>
                <note len="-192" key="57" vol="100" pos="192" pan="0"/>
                <note len="-192" key="57" vol="100" pos="240" pan="0"/>
                <note len="-192" key="57" vol="100" pos="288" pan="0"/>
                <note len="-192" key="57" vol="100" pos="336" pan="0"/>
              </pattern>
              <pattern muted="0" name="snare.wav" pos="2880" type="0" steps="32">
                <note len="-192" key="57" vol="100" pos="0" pan="0"/>
                <note len="-192" key="57" vol="100" pos="48" pan="0"/>
                <note len="-192" key="57" vol="100" pos="96" pan="0"/>
                <note len="-192" key="57" vol="100" pos="144" pan="0"/>
                <note len="-192" key="57" vol="100" pos="192" pan="0"/>
                <note len="-192" key="57" vol="100" pos="240" pan="0"/>
                <note len="-192" key="57" vol="100" pos="288" pan="0"/>
                <note len="-192" key="57" vol="100" pos="300" pan="0"/>
                <note len="-192" key="57" vol="100" pos="312" pan="0"/>
                <note len="-192" key="57" vol="100" pos="324" pan="0"/>
                <note len="-192" key="57" vol="100" pos="336" pan="0"/>
                <note len="-192" key="57" vol="100" pos="348" pan="0"/>
                <note len="-192" key="57" vol="100" pos="360" pan="0"/>
                <note len="-192" key="57" vol="100" pos="372" pan="0"/>
              </pattern>
              <pattern muted="0" name="snare.wav" pos="3072" type="0" steps="16"/>
              <pattern muted="0" name="snare.wav" pos="3264" type="0" steps="64">
                <note len="-192" key="57" vol="100" pos="96" pan="0"/>
                <note len="-192" key="57" vol="100" pos="288" pan="0"/>
                <note len="-192" key="57" vol="100" pos="432" pan="0"/>
                <note len="-192" key="57" vol="100" pos="528" pan="0"/>
                <note len="-192" key="57" vol="100" pos="576" pan="0"/>
                <note len="-192" key="57" vol="100" pos="588" pan="0"/>
                <note len="-192" key="57" vol="100" pos="624" pan="0"/>
                <note len="-192" key="57" vol="100" pos="636" pan="0"/>
                <note len="-192" key="57" vol="100" pos="672" pan="0"/>
                <note len="-192" key="57" vol="100" pos="684" pan="0"/>
                <note len="-192" key="57" vol="100" pos="720" pan="0"/>
                <note len="-192" key="57" vol="100" pos="732" pan="0"/>
                <note len="-192" key="57" vol="100" pos="744" pan="0"/>
                <note len="-192" key="57" vol="100" pos="756" pan="0"/>
              </pattern>
              <pattern muted="0" name="snare.wav" pos="3456" type="0" steps="16"/>
              <pattern muted="0" name="snare.wav" pos="3648" type="0" steps="64">
                <note len="-192" key="57" vol="100" pos="672" pan="0"/>
              </pattern>
              <pattern muted="0" name="snare.wav" pos="3840" type="0" steps="32">
                <note len="-192" key="57" vol="100" pos="96" pan="0"/>
                <note len="-192" key="57" vol="100" pos="288" pan="0"/>
              </pattern>
              <pattern muted="0" name="snare.wav" pos="4032" type="0" steps="64">
                <note len="-192" key="57" vol="100" pos="48" pan="0"/>
                <note len="-192" key="57" vol="100" pos="144" pan="0"/>
                <note len="-192" key="57" vol="100" pos="240" pan="0"/>
                <note len="-192" key="57" vol="100" pos="336" pan="0"/>
                <note len="-192" key="57" vol="100" pos="432" pan="0"/>
                <note len="-192" key="57" vol="100" pos="528" pan="0"/>
                <note len="-192" key="57" vol="100" pos="624" pan="0"/>
                <note len="-192" key="57" vol="100" pos="672" pan="0"/>
                <note len="-192" key="57" vol="100" pos="720" pan="0"/>
              </pattern>
              <pattern muted="0" name="snare.wav" pos="4224" type="0" steps="32">
                <note len="-192" key="57" vol="100" pos="0" pan="0"/>
                <note len="-192" key="57" vol="100" pos="48" pan="0"/>
                <note len="-192" key="57" vol="100" pos="96" pan="0"/>
                <note len="-192" key="57" vol="100" pos="144" pan="0"/>
                <note len="-192" key="57" vol="100" pos="192" pan="0"/>
                <note len="-192" key="57" vol="100" pos="240" pan="0"/>
                <note len="-192" key="57" vol="100" pos="288" pan="0"/>
                <note len="-192" key="57" vol="100" pos="336" pan="0"/>
              </pattern>
              <pattern muted="0" name="snare.wav" pos="4416" type="0" steps="32"/>
            </track>
            <track muted="0" name="crash1.wav" solo="0" type="0">
              <instrumenttrack pitch="0" fxch="4" basenote="57" vol="71.2" pitchrange="1" usemasterpitch="1" pan="0">
                <instrument name="audiofileprocessor">
                  <audiofileprocessor sframe="0" src="/home/pass/samples/sillydrums/crash1.wav" lframe="0" reversed="0" interp="1" looped="0" amp="100" stutter="0" eframe="1"/>
                </instrument>
                <eldata ftype="0" fcut="14000" fres="0.5" fwet="0">
                  <elvol userwavefile="" hold="2" lspd_numerator="4" lspd="0.1" lspd_denominator="4" lshp="0" latt="0" rel="2" x100="0" pdel="0" lpdel="0" amt="1" lspd_syncmode="0" dec="2" lamt="0" sustain="1" ctlenvamt="0" att="0"/>
                  <elcut userwavefile="" hold="0.5" lspd_numerator="4" lspd="0.1" lspd_denominator="4" lshp="0" latt="0" rel="0.1" x100="0" pdel="0" lpdel="0" amt="0" lspd_syncmode="0" dec="0.5" lamt="0" sustain="0.5" ctlenvamt="0" att="0"/>
                  <elres userwavefile="" hold="0.5" lspd_numerator="4" lspd="0.1" lspd_denominator="4" lshp="0" latt="0" rel="0.1" x100="0" pdel="0" lpdel="0" amt="0" lspd_syncmode="0" dec="0.5" lamt="0" sustain="0.5" ctlenvamt="0" att="0"/>
                </eldata>
                <chordcreator chord-enabled="0" chordrange="1" chord="0"/>
                <arpeggiator arpcycle="0" arptime_syncmode="0" arptime_numerator="4" arpgate="100" arpmode="0" arp-enabled="0" arptime="200" arp="0" arpskip="0" arpmiss="0" arprange="1" arpdir="0" arptime_denominator="4"/>
                <midiport inputchannel="0" outputprogram="1" basevelocity="63" outputchannel="1" fixedinputvelocity="-1" inputcontroller="0" readable="0" writable="0" outputcontroller="0" fixedoutputvelocity="-1" fixedoutputnote="-1"/>
                <fxchain numofeffects="0" enabled="0"/>
              </instrumenttrack>
              <pattern muted="0" name="crash1.wav" pos="0" type="0" steps="64">
                <note len="-192" key="57" vol="100" pos="96" pan="0"/>
                <note len="-192" key="57" vol="100" pos="480" pan="0"/>
              </pattern>
              <pattern muted="0" name="crash1.wav" pos="192" type="0" steps="64">
                <note len="-192" key="57" vol="100" pos="48" pan="0"/>
                <note len="-192" key="57" vol="100" pos="576" pan="0"/>
                <note len="-192" key="57" vol="100" pos="672" pan="0"/>
              </pattern>
              <pattern muted="0" name="crash1.wav" pos="384" type="0" steps="64">
                <note len="-192" key="57" vol="100" pos="0" pan="0"/>
              </pattern>
              <pattern muted="0" name="crash1.wav" pos="576" type="0" steps="64">
                <note len="-192" key="57" vol="100" pos="0" pan="0"/>
              </pattern>
              <pattern muted="0" name="crash1.wav" pos="768" type="0" steps="16"/>
              <pattern muted="0" name="crash1.wav" pos="960" type="0" steps="32">
                <note len="-192" key="57" vol="100" pos="192" pan="0"/>
                <note len="-192" key="57" vol="100" pos="288" pan="0"/>
              </pattern>
              <pattern muted="0" name="crash1.wav" pos="1152" type="0" steps="64">
                <note len="-192" key="57" vol="100" pos="0" pan="0"/>
                <note len="-192" key="57" vol="100" pos="384" pan="0"/>
              </pattern>
              <pattern muted="0" name="crash1.wav" pos="1344" type="0" steps="64">
                <note len="-192" key="57" vol="100" pos="0" pan="0"/>
              </pattern>
              <pattern muted="0" name="crash1.wav" pos="1536" type="0" steps="64">
                <note len="-192" key="57" vol="100" pos="0" pan="0"/>
              </pattern>
              <pattern muted="0" name="crash1.wav" pos="1728" type="0" steps="64">
                <note len="-192" key="57" vol="100" pos="0" pan="0"/>
              </pattern>
              <pattern muted="0" name="crash1.wav" pos="1920" type="0" steps="64">
                <note len="-192" key="57" vol="100" pos="0" pan="0"/>
              </pattern>
              <pattern muted="0" name="crash1.wav" pos="2112" type="0" steps="32">
                <note len="-192" key="57" vol="100" pos="0" pan="0"/>
              </pattern>
              <pattern muted="0" name="crash1.wav" pos="2304" type="0" steps="32">
                <note len="-192" key="57" vol="100" pos="192" pan="0"/>
              </pattern>
              <pattern muted="0" name="crash1.wav" pos="2496" type="0" steps="32"/>
              <pattern muted="0" name="crash1.wav" pos="2688" type="0" steps="32">
                <note len="-192" key="57" vol="100" pos="0" pan="0"/>
              </pattern>
              <pattern muted="0" name="crash1.wav" pos="2880" type="0" steps="32">
                <note len="-192" key="57" vol="100" pos="0" pan="0"/>
              </pattern>
              <pattern muted="0" name="crash1.wav" pos="3072" type="0" steps="16"/>
              <pattern muted="0" name="crash1.wav" pos="3264" type="0" steps="64">
                <note len="-192" key="57" vol="100" pos="0" pan="0"/>
                <note len="-192" key="57" vol="100" pos="384" pan="0"/>
              </pattern>
              <pattern muted="0" name="crash1.wav" pos="3456" type="0" steps="16"/>
              <pattern muted="0" name="crash1.wav" pos="3648" type="0" steps="64">
                <note len="-192" key="57" vol="100" pos="0" pan="0"/>
                <note len="-192" key="57" vol="100" pos="384" pan="0"/>
              </pattern>
              <pattern muted="0" name="crash1.wav" pos="3840" type="0" steps="32">
                <note len="-192" key="57" vol="100" pos="0" pan="0"/>
              </pattern>
              <pattern muted="0" name="crash1.wav" pos="4032" type="0" steps="64">
                <note len="-192" key="57" vol="100" pos="0" pan="0"/>
                <note len="-192" key="57" vol="100" pos="384" pan="0"/>
              </pattern>
              <pattern muted="0" name="crash1.wav" pos="4224" type="0" steps="32">
                <note len="-192" key="57" vol="100" pos="0" pan="0"/>
              </pattern>
              <pattern muted="0" name="crash1.wav" pos="4416" type="0" steps="32">
                <note len="-192" key="57" vol="100" pos="0" pan="0"/>
              </pattern>
            </track>
            <track muted="0" name="crash1m" solo="0" type="0">
              <instrumenttrack pitch="0" fxch="4" basenote="57" vol="71.2" pitchrange="1" usemasterpitch="1" pan="0">
                <instrument name="audiofileprocessor">
                  <audiofileprocessor sframe="0" src="/home/pass/samples/sillydrums/crash1.wav" lframe="0" reversed="0" interp="1" looped="0" amp="100" stutter="0" eframe="1"/>
                </instrument>
                <eldata ftype="0" fcut="14000" fres="0.5" fwet="0">
                  <elvol userwavefile="" hold="0.232" lspd_numerator="4" lspd="0.1" lspd_denominator="4" lshp="0" latt="0" rel="0.208" x100="0" pdel="0" lpdel="0" amt="1" lspd_syncmode="0" dec="0.216" lamt="0" sustain="0" ctlenvamt="0" att="0"/>
                  <elcut userwavefile="" hold="0.5" lspd_numerator="4" lspd="0.1" lspd_denominator="4" lshp="0" latt="0" rel="0.1" x100="0" pdel="0" lpdel="0" amt="0" lspd_syncmode="0" dec="0.5" lamt="0" sustain="0.5" ctlenvamt="0" att="0"/>
                  <elres userwavefile="" hold="0.5" lspd_numerator="4" lspd="0.1" lspd_denominator="4" lshp="0" latt="0" rel="0.1" x100="0" pdel="0" lpdel="0" amt="0" lspd_syncmode="0" dec="0.5" lamt="0" sustain="0.5" ctlenvamt="0" att="0"/>
                </eldata>
                <chordcreator chord-enabled="0" chordrange="1" chord="0"/>
                <arpeggiator arpcycle="0" arptime_syncmode="0" arptime_numerator="4" arpgate="100" arpmode="0" arp-enabled="0" arptime="200" arp="0" arpskip="0" arpmiss="0" arprange="1" arpdir="0" arptime_denominator="4"/>
                <midiport inputchannel="0" outputprogram="1" basevelocity="63" outputchannel="1" fixedinputvelocity="-1" inputcontroller="0" readable="0" writable="0" outputcontroller="0" fixedoutputvelocity="-1" fixedoutputnote="-1"/>
                <fxchain numofeffects="0" enabled="0"/>
              </instrumenttrack>
              <pattern muted="0" name="crash1m" pos="0" type="0" steps="64">
                <note len="-192" key="57" vol="100" pos="48" pan="0"/>
                <note len="-192" key="57" vol="100" pos="432" pan="0"/>
              </pattern>
              <pattern muted="0" name="crash1m" pos="192" type="0" steps="64"/>
              <pattern muted="0" name="crash1m" pos="384" type="0" steps="64"/>
              <pattern muted="0" name="crash1m" pos="576" type="0" steps="64"/>
              <pattern muted="0" name="crash1m" pos="768" type="0" steps="16"/>
              <pattern muted="0" name="crash1m" pos="960" type="0" steps="32"/>
              <pattern muted="0" name="crash1m" pos="1152" type="0" steps="64"/>
              <pattern muted="0" name="crash1m" pos="1344" type="0" steps="64">
                <note len="-192" key="57" vol="100" pos="576" pan="0"/>
              </pattern>
              <pattern muted="0" name="crash1m" pos="1536" type="0" steps="64"/>
              <pattern muted="0" name="crash1m" pos="1728" type="0" steps="64"/>
              <pattern muted="0" name="crash1m" pos="1920" type="0" steps="64"/>
              <pattern muted="0" name="crash1m" pos="2112" type="0" steps="32"/>
              <pattern muted="0" name="crash1m" pos="2304" type="0" steps="32">
                <note len="-192" key="57" vol="100" pos="0" pan="0"/>
                <note len="-192" key="57" vol="100" pos="24" pan="0"/>
              </pattern>
              <pattern muted="0" name="crash1m" pos="2496" type="0" steps="32">
                <note len="-192" key="57" vol="100" pos="0" pan="0"/>
              </pattern>
              <pattern muted="0" name="crash1m" pos="2688" type="0" steps="32"/>
              <pattern muted="0" name="crash1m" pos="2880" type="0" steps="32"/>
              <pattern muted="0" name="crash1m" pos="3072" type="0" steps="16"/>
              <pattern muted="0" name="crash1m" pos="3264" type="0" steps="64"/>
              <pattern muted="0" name="crash1m" pos="3456" type="0" steps="16">
                <note len="-192" key="57" vol="100" pos="0" pan="0"/>
                <note len="-192" key="57" vol="100" pos="24" pan="0"/>
              </pattern>
              <pattern muted="0" name="crash1m" pos="3648" type="0" steps="64"/>
              <pattern muted="0" name="crash1m" pos="3840" type="0" steps="32"/>
              <pattern muted="0" name="crash1m" pos="4032" type="0" steps="64"/>
              <pattern muted="0" name="crash1m" pos="4224" type="0" steps="32"/>
              <pattern muted="0" name="crash1m" pos="4416" type="0" steps="32">
                <note len="-192" key="57" vol="100" pos="192" pan="0"/>
              </pattern>
            </track>
            <track muted="0" name="crash2.wav" solo="0" type="0">
              <instrumenttrack pitch="0" fxch="5" basenote="57" vol="76.8" pitchrange="1" usemasterpitch="1" pan="28">
                <instrument name="audiofileprocessor">
                  <audiofileprocessor sframe="0" src="/home/pass/samples/sillydrums/crash2.wav" lframe="0" reversed="0" interp="1" looped="0" amp="100" stutter="0" eframe="1"/>
                </instrument>
                <eldata ftype="0" fcut="14000" fres="0.5" fwet="0">
                  <elvol userwavefile="" hold="2" lspd_numerator="4" lspd="0.1" lspd_denominator="4" lshp="0" latt="0" rel="2" x100="0" pdel="0" lpdel="0" amt="1" lspd_syncmode="0" dec="2" lamt="0" sustain="1" ctlenvamt="0" att="0"/>
                  <elcut userwavefile="" hold="0.5" lspd_numerator="4" lspd="0.1" lspd_denominator="4" lshp="0" latt="0" rel="0.1" x100="0" pdel="0" lpdel="0" amt="0" lspd_syncmode="0" dec="0.5" lamt="0" sustain="0.5" ctlenvamt="0" att="0"/>
                  <elres userwavefile="" hold="0.5" lspd_numerator="4" lspd="0.1" lspd_denominator="4" lshp="0" latt="0" rel="0.1" x100="0" pdel="0" lpdel="0" amt="0" lspd_syncmode="0" dec="0.5" lamt="0" sustain="0.5" ctlenvamt="0" att="0"/>
                </eldata>
                <chordcreator chord-enabled="0" chordrange="1" chord="0"/>
                <arpeggiator arpcycle="0" arptime_syncmode="0" arptime_numerator="4" arpgate="100" arpmode="0" arp-enabled="0" arptime="200" arp="0" arpskip="0" arpmiss="0" arprange="1" arpdir="0" arptime_denominator="4"/>
                <midiport inputchannel="0" outputprogram="1" basevelocity="63" outputchannel="1" fixedinputvelocity="-1" inputcontroller="0" readable="0" writable="0" outputcontroller="0" fixedoutputvelocity="-1" fixedoutputnote="-1"/>
                <fxchain numofeffects="0" enabled="0"/>
              </instrumenttrack>
              <pattern muted="0" name="crash2.wav" pos="0" type="0" steps="64">
                <note len="-192" key="57" vol="100" pos="192" pan="0"/>
                <note len="-192" key="57" vol="100" pos="576" pan="0"/>
              </pattern>
              <pattern muted="0" name="crash2.wav" pos="192" type="0" steps="64">
                <note len="-192" key="57" vol="100" pos="384" pan="0"/>
                <note len="-192" key="57" vol="100" pos="624" pan="0"/>
                <note len="-192" key="57" vol="100" pos="672" pan="0"/>
              </pattern>
              <pattern muted="0" name="crash2.wav" pos="384" type="0" steps="64">
                <note len="-192" key="57" vol="100" pos="384" pan="0"/>
              </pattern>
              <pattern muted="0" name="crash2.wav" pos="576" type="0" steps="64">
                <note len="-192" key="57" vol="100" pos="384" pan="0"/>
              </pattern>
              <pattern muted="0" name="crash2.wav" pos="768" type="0" steps="16"/>
              <pattern muted="0" name="crash2.wav" pos="960" type="0" steps="32">
                <note len="-192" key="57" vol="100" pos="240" pan="0"/>
                <note len="-192" key="57" vol="100" pos="336" pan="0"/>
              </pattern>
              <pattern muted="0" name="crash2.wav" pos="1152" type="0" steps="64">
                <note len="-192" key="57" vol="100" pos="192" pan="0"/>
                <note len="-192" key="57" vol="100" pos="576" pan="0"/>
              </pattern>
              <pattern muted="0" name="crash2.wav" pos="1344" type="0" steps="64">
                <note len="-192" key="57" vol="100" pos="192" pan="0"/>
              </pattern>
              <pattern muted="0" name="crash2.wav" pos="1536" type="0" steps="64">
                <note len="-192" key="57" vol="100" pos="192" pan="0"/>
              </pattern>
              <pattern muted="0" name="crash2.wav" pos="1728" type="0" steps="64">
                <note len="-192" key="57" vol="100" pos="384" pan="0"/>
              </pattern>
              <pattern muted="0" name="crash2.wav" pos="1920" type="0" steps="64">
                <note len="-192" key="57" vol="100" pos="384" pan="0"/>
              </pattern>
              <pattern muted="0" name="crash2.wav" pos="2112" type="0" steps="32">
                <note len="-192" key="57" vol="100" pos="192" pan="0"/>
              </pattern>
              <pattern muted="0" name="crash2.wav" pos="2304" type="0" steps="32">
                <note len="-192" key="57" vol="100" pos="264" pan="0"/>
              </pattern>
              <pattern muted="0" name="crash2.wav" pos="2496" type="0" steps="32"/>
              <pattern muted="0" name="crash2.wav" pos="2688" type="0" steps="32">
                <note len="-192" key="57" vol="100" pos="192" pan="0"/>
              </pattern>
              <pattern muted="0" name="crash2.wav" pos="2880" type="0" steps="32"/>
              <pattern muted="0" name="crash2.wav" pos="3072" type="0" steps="16"/>
              <pattern muted="0" name="crash2.wav" pos="3264" type="0" steps="64">
                <note len="-192" key="57" vol="100" pos="192" pan="0"/>
              </pattern>
              <pattern muted="0" name="crash2.wav" pos="3456" type="0" steps="16"/>
              <pattern muted="0" name="crash2.wav" pos="3648" type="0" steps="64">
                <note len="-192" key="57" vol="100" pos="0" pan="0"/>
                <note len="-192" key="57" vol="100" pos="576" pan="0"/>
              </pattern>
              <pattern muted="0" name="crash2.wav" pos="3840" type="0" steps="32"/>
              <pattern muted="0" name="crash2.wav" pos="4032" type="0" steps="64"/>
              <pattern muted="0" name="crash2.wav" pos="4224" type="0" steps="32">
                <note len="-192" key="57" vol="100" pos="192" pan="0"/>
              </pattern>
              <pattern muted="0" name="crash2.wav" pos="4416" type="0" steps="32">
                <note len="-192" key="57" vol="100" pos="0" pan="0"/>
              </pattern>
            </track>
            <track muted="0" name="china.wav" solo="0" type="0">
              <instrumenttrack pitch="0" fxch="6" basenote="57" vol="66.4" pitchrange="1" usemasterpitch="1" pan="20">
                <instrument name="audiofileprocessor">
                  <audiofileprocessor sframe="0" src="/home/pass/samples/sillydrums/china.wav" lframe="0" reversed="0" interp="1" looped="0" amp="100" stutter="0" eframe="1"/>
                </instrument>
                <eldata ftype="0" fcut="14000" fres="0.5" fwet="0">
                  <elvol userwavefile="" hold="2" lspd_numerator="4" lspd="0.1" lspd_denominator="4" lshp="0" latt="0" rel="2" x100="0" pdel="0" lpdel="0" amt="1" lspd_syncmode="0" dec="2" lamt="0" sustain="1" ctlenvamt="0" att="0"/>
                  <elcut userwavefile="" hold="0.5" lspd_numerator="4" lspd="0.1" lspd_denominator="4" lshp="0" latt="0" rel="0.1" x100="0" pdel="0" lpdel="0" amt="0" lspd_syncmode="0" dec="0.5" lamt="0" sustain="0.5" ctlenvamt="0" att="0"/>
                  <elres userwavefile="" hold="0.5" lspd_numerator="4" lspd="0.1" lspd_denominator="4" lshp="0" latt="0" rel="0.1" x100="0" pdel="0" lpdel="0" amt="0" lspd_syncmode="0" dec="0.5" lamt="0" sustain="0.5" ctlenvamt="0" att="0"/>
                </eldata>
                <chordcreator chord-enabled="0" chordrange="1" chord="0"/>
                <arpeggiator arpcycle="0" arptime_syncmode="0" arptime_numerator="4" arpgate="100" arpmode="0" arp-enabled="0" arptime="200" arp="0" arpskip="0" arpmiss="0" arprange="1" arpdir="0" arptime_denominator="4"/>
                <midiport inputchannel="0" outputprogram="1" basevelocity="63" outputchannel="1" fixedinputvelocity="-1" inputcontroller="0" readable="0" writable="0" outputcontroller="0" fixedoutputvelocity="-1" fixedoutputnote="-1"/>
                <fxchain numofeffects="0" enabled="0"/>
              </instrumenttrack>
              <pattern muted="0" name="china.wav" pos="0" type="0" steps="64">
                <note len="-192" key="57" vol="100" pos="624" pan="0"/>
              </pattern>
              <pattern muted="0" name="china.wav" pos="192" type="0" steps="64"/>
              <pattern muted="0" name="china.wav" pos="384" type="0" steps="64"/>
              <pattern muted="0" name="china.wav" pos="576" type="0" steps="64"/>
              <pattern muted="0" name="china.wav" pos="768" type="0" steps="16"/>
              <pattern muted="0" name="china.wav" pos="960" type="0" steps="32"/>
              <pattern muted="0" name="china.wav" pos="1152" type="0" steps="64"/>
              <pattern muted="0" name="china.wav" pos="1344" type="0" steps="64"/>
              <pattern muted="0" name="china.wav" pos="1536" type="0" steps="64"/>
              <pattern muted="0" name="china.wav" pos="1728" type="0" steps="64"/>
              <pattern muted="0" name="china.wav" pos="1920" type="0" steps="64"/>
              <pattern muted="0" name="china.wav" pos="2112" type="0" steps="32"/>
              <pattern muted="0" name="china.wav" pos="2304" type="0" steps="32"/>
              <pattern muted="0" name="china.wav" pos="2496" type="0" steps="32"/>
              <pattern muted="0" name="china.wav" pos="2688" type="0" steps="32"/>
              <pattern muted="0" name="china.wav" pos="2880" type="0" steps="32"/>
              <pattern muted="0" name="china.wav" pos="3072" type="0" steps="16"/>
              <pattern muted="0" name="china.wav" pos="3264" type="0" steps="64"/>
              <pattern muted="0" name="china.wav" pos="3456" type="0" steps="16"/>
              <pattern muted="0" name="china.wav" pos="3648" type="0" steps="64">
                <note len="-192" key="57" vol="100" pos="696" pan="0"/>
              </pattern>
              <pattern muted="0" name="china.wav" pos="3840" type="0" steps="32">
                <note len="-192" key="57" vol="100" pos="0" pan="0"/>
                <note len="-192" key="57" vol="100" pos="96" pan="0"/>
                <note len="-192" key="57" vol="100" pos="192" pan="0"/>
                <note len="-192" key="57" vol="100" pos="288" pan="0"/>
              </pattern>
              <pattern muted="0" name="china.wav" pos="4032" type="0" steps="64">
                <note len="-192" key="57" vol="100" pos="0" pan="0"/>
                <note len="-192" key="57" vol="100" pos="96" pan="0"/>
                <note len="-192" key="57" vol="100" pos="192" pan="0"/>
                <note len="-192" key="57" vol="100" pos="288" pan="0"/>
                <note len="-192" key="57" vol="100" pos="384" pan="0"/>
                <note len="-192" key="57" vol="100" pos="480" pan="0"/>
                <note len="-192" key="57" vol="100" pos="576" pan="0"/>
              </pattern>
              <pattern muted="0" name="china.wav" pos="4224" type="0" steps="32"/>
              <pattern muted="0" name="china.wav" pos="4416" type="0" steps="32"/>
            </track>
            <track muted="0" name="hiTom.wav" solo="0" type="0">
              <instrumenttrack pitch="0" fxch="7" basenote="57" vol="130.4" pitchrange="1" usemasterpitch="1" pan="0">
                <instrument name="audiofileprocessor">
                  <audiofileprocessor sframe="0" src="/home/pass/samples/sillydrums/hiTom.wav" lframe="0" reversed="0" interp="1" looped="0" amp="100" stutter="0" eframe="1"/>
                </instrument>
                <eldata ftype="0" fcut="14000" fres="0.5" fwet="0">
                  <elvol userwavefile="" hold="2" lspd_numerator="4" lspd="0.1" lspd_denominator="4" lshp="0" latt="0" rel="2" x100="0" pdel="0" lpdel="0" amt="1" lspd_syncmode="0" dec="2" lamt="0" sustain="1" ctlenvamt="0" att="0"/>
                  <elcut userwavefile="" hold="0.5" lspd_numerator="4" lspd="0.1" lspd_denominator="4" lshp="0" latt="0" rel="0.1" x100="0" pdel="0" lpdel="0" amt="0" lspd_syncmode="0" dec="0.5" lamt="0" sustain="0.5" ctlenvamt="0" att="0"/>
                  <elres userwavefile="" hold="0.5" lspd_numerator="4" lspd="0.1" lspd_denominator="4" lshp="0" latt="0" rel="0.1" x100="0" pdel="0" lpdel="0" amt="0" lspd_syncmode="0" dec="0.5" lamt="0" sustain="0.5" ctlenvamt="0" att="0"/>
                </eldata>
                <chordcreator chord-enabled="0" chordrange="1" chord="0"/>
                <arpeggiator arpcycle="0" arptime_syncmode="0" arptime_numerator="4" arpgate="100" arpmode="0" arp-enabled="0" arptime="200" arp="0" arpskip="0" arpmiss="0" arprange="1" arpdir="0" arptime_denominator="4"/>
                <midiport inputchannel="0" outputprogram="1" basevelocity="63" outputchannel="1" fixedinputvelocity="-1" inputcontroller="0" readable="0" writable="0" outputcontroller="0" fixedoutputvelocity="-1" fixedoutputnote="-1"/>
                <fxchain numofeffects="0" enabled="0"/>
              </instrumenttrack>
              <pattern muted="0" name="hiTom.wav" pos="0" type="0" steps="64">
                <note len="-192" key="57" vol="100" pos="120" pan="0"/>
                <note len="-192" key="57" vol="100" pos="504" pan="0"/>
              </pattern>
              <pattern muted="0" name="hiTom.wav" pos="192" type="0" steps="64">
                <note len="-192" key="57" vol="100" pos="120" pan="0"/>
                <note len="-192" key="57" vol="100" pos="204" pan="0"/>
                <note len="-192" key="57" vol="100" pos="216" pan="0"/>
                <note len="-192" key="57" vol="100" pos="228" pan="0"/>
              </pattern>
              <pattern muted="0" name="hiTom.wav" pos="384" type="0" steps="64"/>
              <pattern muted="0" name="hiTom.wav" pos="576" type="0" steps="64"/>
              <pattern muted="0" name="hiTom.wav" pos="768" type="0" steps="16"/>
              <pattern muted="0" name="hiTom.wav" pos="960" type="0" steps="32">
                <note len="-192" key="57" vol="100" pos="24" pan="0"/>
                <note len="-192" key="57" vol="100" pos="36" pan="0"/>
                <note len="-192" key="57" vol="100" pos="48" pan="0"/>
                <note len="-192" key="57" vol="100" pos="60" pan="0"/>
              </pattern>
              <pattern muted="0" name="hiTom.wav" pos="1152" type="0" steps="64"/>
              <pattern muted="0" name="hiTom.wav" pos="1344" type="0" steps="64"/>
              <pattern muted="0" name="hiTom.wav" pos="1536" type="0" steps="64">
                <note len="-192" key="57" vol="100" pos="588" pan="0"/>
                <note len="-192" key="57" vol="100" pos="600" pan="0"/>
                <note len="-192" key="57" vol="100" pos="612" pan="0"/>
              </pattern>
              <pattern muted="0" name="hiTom.wav" pos="1728" type="0" steps="64"/>
              <pattern muted="0" name="hiTom.wav" pos="1920" type="0" steps="64"/>
              <pattern muted="0" name="hiTom.wav" pos="2112" type="0" steps="32">
                <note len="-192" key="57" vol="100" pos="216" pan="0"/>
                <note len="-192" key="57" vol="100" pos="228" pan="0"/>
                <note len="-192" key="57" vol="100" pos="312" pan="0"/>
                <note len="-192" key="57" vol="100" pos="324" pan="0"/>
              </pattern>
              <pattern muted="0" name="hiTom.wav" pos="2304" type="0" steps="32"/>
              <pattern muted="0" name="hiTom.wav" pos="2496" type="0" steps="32"/>
              <pattern muted="0" name="hiTom.wav" pos="2688" type="0" steps="32"/>
              <pattern muted="0" name="hiTom.wav" pos="2880" type="0" steps="32">
                <note len="-192" key="57" vol="100" pos="204" pan="0"/>
                <note len="-192" key="57" vol="100" pos="252" pan="0"/>
              </pattern>
              <pattern muted="0" name="hiTom.wav" pos="3072" type="0" steps="16"/>
              <pattern muted="0" name="hiTom.wav" pos="3264" type="0" steps="64">
                <note len="-192" key="57" vol="100" pos="600" pan="0"/>
                <note len="-192" key="57" vol="100" pos="612" pan="0"/>
              </pattern>
              <pattern muted="0" name="hiTom.wav" pos="3456" type="0" steps="16"/>
              <pattern muted="0" name="hiTom.wav" pos="3648" type="0" steps="64">
                <note len="-192" key="57" vol="100" pos="696" pan="0"/>
                <note len="-192" key="57" vol="100" pos="720" pan="0"/>
                <note len="-192" key="57" vol="100" pos="744" pan="0"/>
              </pattern>
              <pattern muted="0" name="hiTom.wav" pos="3840" type="0" steps="32"/>
              <pattern muted="0" name="hiTom.wav" pos="4032" type="0" steps="64">
                <note len="-192" key="57" vol="100" pos="684" pan="0"/>
                <note len="-192" key="57" vol="100" pos="732" pan="0"/>
              </pattern>
              <pattern muted="0" name="hiTom.wav" pos="4224" type="0" steps="32"/>
              <pattern muted="0" name="hiTom.wav" pos="4416" type="0" steps="32"/>
            </track>
            <track muted="0" name="midTom.wav" solo="0" type="0">
              <instrumenttrack pitch="0" fxch="8" basenote="57" vol="130.4" pitchrange="1" usemasterpitch="1" pan="0">
                <instrument name="audiofileprocessor">
                  <audiofileprocessor sframe="0" src="/home/pass/samples/sillydrums/midTom.wav" lframe="0" reversed="0" interp="1" looped="0" amp="100" stutter="0" eframe="1"/>
                </instrument>
                <eldata ftype="0" fcut="14000" fres="0.5" fwet="0">
                  <elvol userwavefile="" hold="2" lspd_numerator="4" lspd="0.1" lspd_denominator="4" lshp="0" latt="0" rel="2" x100="0" pdel="0" lpdel="0" amt="1" lspd_syncmode="0" dec="2" lamt="0" sustain="1" ctlenvamt="0" att="0"/>
                  <elcut userwavefile="" hold="0.5" lspd_numerator="4" lspd="0.1" lspd_denominator="4" lshp="0" latt="0" rel="0.1" x100="0" pdel="0" lpdel="0" amt="0" lspd_syncmode="0" dec="0.5" lamt="0" sustain="0.5" ctlenvamt="0" att="0"/>
                  <elres userwavefile="" hold="0.5" lspd_numerator="4" lspd="0.1" lspd_denominator="4" lshp="0" latt="0" rel="0.1" x100="0" pdel="0" lpdel="0" amt="0" lspd_syncmode="0" dec="0.5" lamt="0" sustain="0.5" ctlenvamt="0" att="0"/>
                </eldata>
                <chordcreator chord-enabled="0" chordrange="1" chord="0"/>
                <arpeggiator arpcycle="0" arptime_syncmode="0" arptime_numerator="4" arpgate="100" arpmode="0" arp-enabled="0" arptime="200" arp="0" arpskip="0" arpmiss="0" arprange="1" arpdir="0" arptime_denominator="4"/>
                <midiport inputchannel="0" outputprogram="1" basevelocity="63" outputchannel="1" fixedinputvelocity="-1" inputcontroller="0" readable="0" writable="0" outputcontroller="0" fixedoutputvelocity="-1" fixedoutputnote="-1"/>
                <fxchain numofeffects="0" enabled="0"/>
              </instrumenttrack>
              <pattern muted="0" name="midTom.wav" pos="0" type="0" steps="64">
                <note len="-192" key="57" vol="100" pos="120" pan="0"/>
                <note len="-192" key="57" vol="100" pos="144" pan="0"/>
                <note len="-192" key="57" vol="100" pos="168" pan="0"/>
                <note len="-192" key="57" vol="100" pos="504" pan="0"/>
                <note len="-192" key="57" vol="100" pos="528" pan="0"/>
                <note len="-192" key="57" vol="100" pos="552" pan="0"/>
                <note len="-192" key="57" vol="100" pos="696" pan="0"/>
                <note len="-192" key="57" vol="100" pos="708" pan="0"/>
                <note len="-192" key="57" vol="100" pos="744" pan="0"/>
                <note len="-192" key="57" vol="100" pos="756" pan="0"/>
              </pattern>
              <pattern muted="0" name="midTom.wav" pos="192" type="0" steps="64">
                <note len="-192" key="57" vol="100" pos="72" pan="0"/>
                <note len="-192" key="57" vol="100" pos="120" pan="0"/>
                <note len="-192" key="57" vol="100" pos="144" pan="0"/>
                <note len="-192" key="57" vol="100" pos="168" pan="0"/>
                <note len="-192" key="57" vol="100" pos="240" pan="0"/>
                <note len="-192" key="57" vol="100" pos="252" pan="0"/>
                <note len="-192" key="57" vol="100" pos="264" pan="0"/>
                <note len="-192" key="57" vol="100" pos="276" pan="0"/>
                <note len="-192" key="57" vol="100" pos="300" pan="0"/>
                <note len="-192" key="57" vol="100" pos="312" pan="0"/>
                <note len="-192" key="57" vol="100" pos="324" pan="0"/>
                <note len="-192" key="57" vol="100" pos="492" pan="0"/>
                <note len="-192" key="57" vol="100" pos="504" pan="0"/>
                <note len="-192" key="57" vol="100" pos="516" pan="0"/>
              </pattern>
              <pattern muted="0" name="midTom.wav" pos="384" type="0" steps="64"/>
              <pattern muted="0" name="midTom.wav" pos="576" type="0" steps="64"/>
              <pattern muted="0" name="midTom.wav" pos="768" type="0" steps="16">
                <note len="-192" key="57" vol="100" pos="108" pan="0"/>
                <note len="-192" key="57" vol="100" pos="120" pan="0"/>
                <note len="-192" key="57" vol="100" pos="132" pan="0"/>
              </pattern>
              <pattern muted="0" name="midTom.wav" pos="960" type="0" steps="32">
                <note len="-192" key="57" vol="100" pos="96" pan="0"/>
                <note len="-192" key="57" vol="100" pos="108" pan="0"/>
                <note len="-192" key="57" vol="100" pos="120" pan="0"/>
                <note len="-192" key="57" vol="100" pos="132" pan="0"/>
              </pattern>
              <pattern muted="0" name="midTom.wav" pos="1152" type="0" steps="64"/>
              <pattern muted="0" name="midTom.wav" pos="1344" type="0" steps="64"/>
              <pattern muted="0" name="midTom.wav" pos="1536" type="0" steps="64">
                <note len="-192" key="57" vol="100" pos="636" pan="0"/>
                <note len="-192" key="57" vol="100" pos="648" pan="0"/>
                <note len="-192" key="57" vol="100" pos="660" pan="0"/>
              </pattern>
              <pattern muted="0" name="midTom.wav" pos="1728" type="0" steps="64"/>
              <pattern muted="0" name="midTom.wav" pos="1920" type="0" steps="64"/>
              <pattern muted="0" name="midTom.wav" pos="2112" type="0" steps="32">
                <note len="-192" key="57" vol="100" pos="240" pan="0"/>
                <note len="-192" key="57" vol="100" pos="252" pan="0"/>
                <note len="-192" key="57" vol="100" pos="336" pan="0"/>
                <note len="-192" key="57" vol="100" pos="348" pan="0"/>
              </pattern>
              <pattern muted="0" name="midTom.wav" pos="2304" type="0" steps="32">
                <note len="-192" key="57" vol="100" pos="240" pan="0"/>
              </pattern>
              <pattern muted="0" name="midTom.wav" pos="2496" type="0" steps="32"/>
              <pattern muted="0" name="midTom.wav" pos="2688" type="0" steps="32"/>
              <pattern muted="0" name="midTom.wav" pos="2880" type="0" steps="32">
                <note len="-192" key="57" vol="100" pos="216" pan="0"/>
                <note len="-192" key="57" vol="100" pos="264" pan="0"/>
              </pattern>
              <pattern muted="0" name="midTom.wav" pos="3072" type="0" steps="16"/>
              <pattern muted="0" name="midTom.wav" pos="3264" type="0" steps="64">
                <note len="-192" key="57" vol="100" pos="648" pan="0"/>
                <note len="-192" key="57" vol="100" pos="660" pan="0"/>
              </pattern>
              <pattern muted="0" name="midTom.wav" pos="3456" type="0" steps="16"/>
              <pattern muted="0" name="midTom.wav" pos="3648" type="0" steps="64">
                <note len="-192" key="57" vol="100" pos="720" pan="0"/>
                <note len="-192" key="57" vol="100" pos="744" pan="0"/>
              </pattern>
              <pattern muted="0" name="midTom.wav" pos="3840" type="0" steps="32"/>
              <pattern muted="0" name="midTom.wav" pos="4032" type="0" steps="64">
                <note len="-192" key="57" vol="100" pos="696" pan="0"/>
                <note len="-192" key="57" vol="100" pos="744" pan="0"/>
              </pattern>
              <pattern muted="0" name="midTom.wav" pos="4224" type="0" steps="32"/>
              <pattern muted="0" name="midTom.wav" pos="4416" type="0" steps="32"/>
            </track>
            <track muted="0" name="loTom.wav" solo="0" type="0">
              <instrumenttrack pitch="0" fxch="9" basenote="57" vol="130.4" pitchrange="1" usemasterpitch="1" pan="0">
                <instrument name="audiofileprocessor">
                  <audiofileprocessor sframe="0" src="/home/pass/samples/sillydrums/loTom.wav" lframe="0" reversed="0" interp="1" looped="0" amp="100" stutter="0" eframe="1"/>
                </instrument>
                <eldata ftype="0" fcut="14000" fres="0.5" fwet="0">
                  <elvol userwavefile="" hold="2" lspd_numerator="4" lspd="0.1" lspd_denominator="4" lshp="0" latt="0" rel="2" x100="0" pdel="0" lpdel="0" amt="1" lspd_syncmode="0" dec="2" lamt="0" sustain="1" ctlenvamt="0" att="0"/>
                  <elcut userwavefile="" hold="0.5" lspd_numerator="4" lspd="0.1" lspd_denominator="4" lshp="0" latt="0" rel="0.1" x100="0" pdel="0" lpdel="0" amt="0" lspd_syncmode="0" dec="0.5" lamt="0" sustain="0.5" ctlenvamt="0" att="0"/>
                  <elres userwavefile="" hold="0.5" lspd_numerator="4" lspd="0.1" lspd_denominator="4" lshp="0" latt="0" rel="0.1" x100="0" pdel="0" lpdel="0" amt="0" lspd_syncmode="0" dec="0.5" lamt="0" sustain="0.5" ctlenvamt="0" att="0"/>
                </eldata>
                <chordcreator chord-enabled="0" chordrange="1" chord="0"/>
                <arpeggiator arpcycle="0" arptime_syncmode="0" arptime_numerator="4" arpgate="100" arpmode="0" arp-enabled="0" arptime="200" arp="0" arpskip="0" arpmiss="0" arprange="1" arpdir="0" arptime_denominator="4"/>
                <midiport inputchannel="0" outputprogram="1" basevelocity="63" outputchannel="1" fixedinputvelocity="-1" inputcontroller="0" readable="0" writable="0" outputcontroller="0" fixedoutputvelocity="-1" fixedoutputnote="-1"/>
                <fxchain numofeffects="0" enabled="0"/>
              </instrumenttrack>
              <pattern muted="0" name="loTom.wav" pos="0" type="0" steps="64">
                <note len="-192" key="57" vol="100" pos="144" pan="0"/>
                <note len="-192" key="57" vol="100" pos="168" pan="0"/>
                <note len="-192" key="57" vol="100" pos="240" pan="0"/>
                <note len="-192" key="57" vol="100" pos="288" pan="0"/>
                <note len="-192" key="57" vol="100" pos="336" pan="0"/>
                <note len="-192" key="57" vol="100" pos="528" pan="0"/>
                <note len="-192" key="57" vol="100" pos="552" pan="0"/>
              </pattern>
              <pattern muted="0" name="loTom.wav" pos="192" type="0" steps="64">
                <note len="-192" key="57" vol="100" pos="144" pan="0"/>
                <note len="-192" key="57" vol="100" pos="168" pan="0"/>
                <note len="-192" key="57" vol="100" pos="336" pan="0"/>
                <note len="-192" key="57" vol="100" pos="348" pan="0"/>
                <note len="-192" key="57" vol="100" pos="360" pan="0"/>
                <note len="-192" key="57" vol="100" pos="372" pan="0"/>
                <note len="-192" key="57" vol="100" pos="528" pan="0"/>
                <note len="-192" key="57" vol="100" pos="540" pan="0"/>
                <note len="-192" key="57" vol="100" pos="552" pan="0"/>
                <note len="-192" key="57" vol="100" pos="564" pan="0"/>
              </pattern>
              <pattern muted="0" name="loTom.wav" pos="384" type="0" steps="64"/>
              <pattern muted="0" name="loTom.wav" pos="576" type="0" steps="64"/>
              <pattern muted="0" name="loTom.wav" pos="768" type="0" steps="16">
                <note len="-192" key="57" vol="100" pos="156" pan="0"/>
                <note len="-192" key="57" vol="100" pos="168" pan="0"/>
                <note len="-192" key="57" vol="100" pos="180" pan="0"/>
              </pattern>
              <pattern muted="0" name="loTom.wav" pos="960" type="0" steps="32">
                <note len="-192" key="57" vol="100" pos="168" pan="0"/>
                <note len="-192" key="57" vol="100" pos="180" pan="0"/>
              </pattern>
              <pattern muted="0" name="loTom.wav" pos="1152" type="0" steps="64"/>
              <pattern muted="0" name="loTom.wav" pos="1344" type="0" steps="64"/>
              <pattern muted="0" name="loTom.wav" pos="1536" type="0" steps="64">
                <note len="-192" key="57" vol="100" pos="684" pan="0"/>
                <note len="-192" key="57" vol="100" pos="696" pan="0"/>
                <note len="-192" key="57" vol="100" pos="708" pan="0"/>
              </pattern>
              <pattern muted="0" name="loTom.wav" pos="1728" type="0" steps="64"/>
              <pattern muted="0" name="loTom.wav" pos="1920" type="0" steps="64"/>
              <pattern muted="0" name="loTom.wav" pos="2112" type="0" steps="32">
                <note len="-192" key="57" vol="100" pos="264" pan="0"/>
                <note len="-192" key="57" vol="100" pos="276" pan="0"/>
                <note len="-192" key="57" vol="100" pos="360" pan="0"/>
                <note len="-192" key="57" vol="100" pos="372" pan="0"/>
              </pattern>
              <pattern muted="0" name="loTom.wav" pos="2304" type="0" steps="32">
                <note len="-192" key="57" vol="100" pos="312" pan="0"/>
              </pattern>
              <pattern muted="0" name="loTom.wav" pos="2496" type="0" steps="32"/>
              <pattern muted="0" name="loTom.wav" pos="2688" type="0" steps="32"/>
              <pattern muted="0" name="loTom.wav" pos="2880" type="0" steps="32">
                <note len="-192" key="57" vol="100" pos="228" pan="0"/>
                <note len="-192" key="57" vol="100" pos="276" pan="0"/>
              </pattern>
              <pattern muted="0" name="loTom.wav" pos="3072" type="0" steps="16"/>
              <pattern muted="0" name="loTom.wav" pos="3264" type="0" steps="64">
                <note len="-192" key="57" vol="100" pos="696" pan="0"/>
                <note len="-192" key="57" vol="100" pos="708" pan="0"/>
              </pattern>
              <pattern muted="0" name="loTom.wav" pos="3456" type="0" steps="16"/>
              <pattern muted="0" name="loTom.wav" pos="3648" type="0" steps="64"/>
              <pattern muted="0" name="loTom.wav" pos="3840" type="0" steps="32"/>
              <pattern muted="0" name="loTom.wav" pos="4032" type="0" steps="64">
                <note len="-192" key="57" vol="100" pos="708" pan="0"/>
                <note len="-192" key="57" vol="100" pos="756" pan="0"/>
              </pattern>
              <pattern muted="0" name="loTom.wav" pos="4224" type="0" steps="32"/>
              <pattern muted="0" name="loTom.wav" pos="4416" type="0" steps="32"/>
            </track>
            <track muted="0" name="hihat_opened02.ogg" solo="0" type="0">
              <instrumenttrack pitch="0" fxch="0" basenote="57" vol="100" pitchrange="1" usemasterpitch="1" pan="0">
                <instrument name="audiofileprocessor">
                  <audiofileprocessor sframe="0" src="drums/hihat_opened02.ogg" lframe="0" reversed="0" interp="1" looped="0" amp="100" stutter="0" eframe="1"/>
                </instrument>
                <eldata ftype="0" fcut="14000" fres="0.5" fwet="0">
                  <elvol userwavefile="" hold="0.5" lspd_numerator="4" lspd="0.1" lspd_denominator="4" lshp="0" latt="0" rel="0.1" x100="0" pdel="0" lpdel="0" amt="0" lspd_syncmode="0" dec="0.5" lamt="0" sustain="0.5" ctlenvamt="0" att="0"/>
                  <elcut userwavefile="" hold="0.5" lspd_numerator="4" lspd="0.1" lspd_denominator="4" lshp="0" latt="0" rel="0.1" x100="0" pdel="0" lpdel="0" amt="0" lspd_syncmode="0" dec="0.5" lamt="0" sustain="0.5" ctlenvamt="0" att="0"/>
                  <elres userwavefile="" hold="0.5" lspd_numerator="4" lspd="0.1" lspd_denominator="4" lshp="0" latt="0" rel="0.1" x100="0" pdel="0" lpdel="0" amt="0" lspd_syncmode="0" dec="0.5" lamt="0" sustain="0.5" ctlenvamt="0" att="0"/>
                </eldata>
                <chordcreator chord-enabled="0" chordrange="1" chord="0"/>
                <arpeggiator arpcycle="0" arptime_syncmode="0" arptime_numerator="4" arpgate="100" arpmode="0" arp-enabled="0" arptime="200" arp="0" arpskip="0" arpmiss="0" arprange="1" arpdir="0" arptime_denominator="4"/>
                <midiport inputchannel="0" outputprogram="1" basevelocity="63" outputchannel="1" fixedinputvelocity="-1" inputcontroller="0" readable="0" writable="0" outputcontroller="0" fixedoutputvelocity="-1" fixedoutputnote="-1"/>
                <fxchain numofeffects="0" enabled="0"/>
              </instrumenttrack>
              <pattern muted="0" name="hihat_opened02.ogg" pos="0" type="0" steps="64"/>
              <pattern muted="0" name="hihat_opened02.ogg" pos="192" type="0" steps="64"/>
              <pattern muted="0" name="hihat_opened02.ogg" pos="384" type="0" steps="64"/>
              <pattern muted="0" name="hihat_opened02.ogg" pos="576" type="0" steps="64"/>
              <pattern muted="0" name="hihat_opened02.ogg" pos="768" type="0" steps="16"/>
              <pattern muted="0" name="hihat_opened02.ogg" pos="960" type="0" steps="32"/>
              <pattern muted="0" name="hihat_opened02.ogg" pos="1152" type="0" steps="64"/>
              <pattern muted="0" name="hihat_opened02.ogg" pos="1344" type="0" steps="64"/>
              <pattern muted="0" name="hihat_opened02.ogg" pos="1536" type="0" steps="64"/>
              <pattern muted="0" name="hihat_opened02.ogg" pos="1728" type="0" steps="64"/>
              <pattern muted="0" name="hihat_opened02.ogg" pos="1920" type="0" steps="64"/>
              <pattern muted="0" name="hihat_opened02.ogg" pos="2112" type="0" steps="32"/>
              <pattern muted="0" name="hihat_opened02.ogg" pos="2304" type="0" steps="32"/>
              <pattern muted="0" name="hihat_opened02.ogg" pos="2496" type="0" steps="32"/>
              <pattern muted="0" name="hihat_opened02.ogg" pos="2688" type="0" steps="32"/>
              <pattern muted="0" name="hihat_opened02.ogg" pos="2880" type="0" steps="32"/>
              <pattern muted="0" name="hihat_opened02.ogg" pos="3072" type="0" steps="16"/>
              <pattern muted="0" name="hihat_opened02.ogg" pos="3264" type="0" steps="64"/>
              <pattern muted="0" name="hihat_opened02.ogg" pos="3456" type="0" steps="16"/>
              <pattern muted="0" name="hihat_opened02.ogg" pos="3648" type="0" steps="64"/>
              <pattern muted="0" name="hihat_opened02.ogg" pos="3840" type="0" steps="32"/>
              <pattern muted="0" name="hihat_opened02.ogg" pos="4032" type="0" steps="64"/>
              <pattern muted="0" name="hihat_opened02.ogg" pos="4224" type="0" steps="32"/>
              <pattern muted="0" name="hihat_opened02.ogg" pos="4416" type="0" steps="32"/>
            </track>
            <track muted="0" name="Trap kick" solo="0" type="0">
              <instrumenttrack pitch="0" fxch="0" basenote="98" vol="127.2" pitchrange="1" usemasterpitch="1" pan="0">
                <instrument name="kicker">
                  <kicker decay_numerator="4" decay_denominator="4" env="0.3" noise="0.11" decay="1714" startnote="1" gain="0.9" version="1" decay_syncmode="0" dist="2.5" distend="3.3" click="0.25" endfreq="5" endnote="1" startfreq="5" slope="0.484"/>
                </instrument>
                <eldata ftype="1" fcut="281" fres="0.5" fwet="1">
                  <elvol userwavefile="" hold="0.5" lspd_numerator="4" lspd="0.1" lspd_denominator="4" lshp="0" latt="0" rel="0.1" x100="0" pdel="0" lpdel="0" amt="0" lspd_syncmode="0" dec="0.5" lamt="0" sustain="0.5" ctlenvamt="0" att="0"/>
                  <elcut userwavefile="" hold="0.5" lspd_numerator="4" lspd="0.1" lspd_denominator="4" lshp="0" latt="0" rel="0.1" x100="0" pdel="0" lpdel="0" amt="0" lspd_syncmode="0" dec="0.5" lamt="0" sustain="0.5" ctlenvamt="0" att="0"/>
                  <elres userwavefile="" hold="0.5" lspd_numerator="4" lspd="0.1" lspd_denominator="4" lshp="0" latt="0" rel="0.1" x100="0" pdel="0" lpdel="0" amt="0" lspd_syncmode="0" dec="0.5" lamt="0" sustain="0.5" ctlenvamt="0" att="0"/>
                </eldata>
                <chordcreator chord-enabled="0" chordrange="1" chord="0"/>
                <arpeggiator arpcycle="0" arptime_syncmode="0" arptime_numerator="4" arpgate="100" arpmode="0" arp-enabled="0" arptime="100" arp="0" arpskip="0" arpmiss="0" arprange="1" arpdir="0" arptime_denominator="4"/>
                <midiport inputchannel="0" outputprogram="1" basevelocity="63" outputchannel="1" fixedinputvelocity="-1" inputcontroller="0" readable="0" writable="0" outputcontroller="0" fixedoutputvelocity="-1" fixedoutputnote="-1"/>
                <fxchain numofeffects="0" enabled="0"/>
              </instrumenttrack>
              <pattern muted="0" name="Trap kick" pos="0" type="0" steps="64"/>
              <pattern muted="0" name="Trap kick" pos="192" type="0" steps="64"/>
              <pattern muted="0" name="Trap kick" pos="384" type="0" steps="64"/>
              <pattern muted="0" name="Trap kick" pos="576" type="0" steps="64"/>
              <pattern muted="0" name="Trap kick" pos="768" type="0" steps="16"/>
              <pattern muted="0" name="Trap kick" pos="960" type="0" steps="32"/>
              <pattern muted="0" name="Trap kick" pos="1152" type="0" steps="64"/>
              <pattern muted="0" name="Trap kick" pos="1344" type="0" steps="64"/>
              <pattern muted="0" name="Trap kick" pos="1536" type="0" steps="64"/>
              <pattern muted="0" name="Trap kick" pos="1728" type="0" steps="64"/>
              <pattern muted="0" name="Trap kick" pos="1920" type="0" steps="64"/>
              <pattern muted="0" name="Trap kick" pos="2112" type="0" steps="32"/>
              <pattern muted="0" name="Trap kick" pos="2304" type="0" steps="32"/>
              <pattern muted="0" name="Trap kick" pos="2496" type="0" steps="32"/>
              <pattern muted="0" name="Trap kick" pos="2688" type="0" steps="32"/>
              <pattern muted="0" name="Trap kick" pos="2880" type="0" steps="32"/>
              <pattern muted="0" name="Trap kick" pos="3072" type="0" steps="16">
                <note len="-192" key="57" vol="100" pos="0" pan="0"/>
                <note len="-192" key="57" vol="100" pos="168" pan="0"/>
              </pattern>
              <pattern muted="0" name="Trap kick" pos="3264" type="0" steps="64"/>
              <pattern muted="0" name="Trap kick" pos="3456" type="0" steps="16"/>
              <pattern muted="0" name="Trap kick" pos="3648" type="0" steps="64"/>
              <pattern muted="0" name="Trap kick" pos="3840" type="0" steps="32"/>
              <pattern muted="0" name="Trap kick" pos="4032" type="0" steps="64"/>
              <pattern muted="0" name="Trap kick" pos="4224" type="0" steps="32"/>
              <pattern muted="0" name="Trap kick" pos="4416" type="0" steps="32"/>
            </track>
            <track muted="0" name="basic_hh.ds" solo="0" type="0">
              <instrumenttrack pitch="0" fxch="0" basenote="57" vol="100" pitchrange="1" usemasterpitch="1" pan="0">
                <instrument name="audiofileprocessor">
                  <audiofileprocessor sframe="0" src="drumsynth/misc_hats/basic_hh.ds" lframe="0" reversed="0" interp="1" looped="0" amp="100" stutter="0" eframe="1"/>
                </instrument>
                <eldata ftype="0" fcut="14000" fres="0.5" fwet="0">
                  <elvol userwavefile="" hold="0.5" lspd_numerator="4" lspd="0.1" lspd_denominator="4" lshp="0" latt="0" rel="0.1" x100="0" pdel="0" lpdel="0" amt="0" lspd_syncmode="0" dec="0.5" lamt="0" sustain="0.5" ctlenvamt="0" att="0"/>
                  <elcut userwavefile="" hold="0.5" lspd_numerator="4" lspd="0.1" lspd_denominator="4" lshp="0" latt="0" rel="0.1" x100="0" pdel="0" lpdel="0" amt="0" lspd_syncmode="0" dec="0.5" lamt="0" sustain="0.5" ctlenvamt="0" att="0"/>
                  <elres userwavefile="" hold="0.5" lspd_numerator="4" lspd="0.1" lspd_denominator="4" lshp="0" latt="0" rel="0.1" x100="0" pdel="0" lpdel="0" amt="0" lspd_syncmode="0" dec="0.5" lamt="0" sustain="0.5" ctlenvamt="0" att="0"/>
                </eldata>
                <chordcreator chord-enabled="0" chordrange="1" chord="0"/>
                <arpeggiator arpcycle="0" arptime_syncmode="0" arptime_numerator="4" arpgate="100" arpmode="0" arp-enabled="0" arptime="200" arp="0" arpskip="0" arpmiss="0" arprange="1" arpdir="0" arptime_denominator="4"/>
                <midiport inputchannel="0" outputprogram="1" basevelocity="63" outputchannel="1" fixedinputvelocity="-1" inputcontroller="0" readable="0" writable="0" outputcontroller="0" fixedoutputvelocity="-1" fixedoutputnote="-1"/>
                <fxchain numofeffects="0" enabled="0"/>
              </instrumenttrack>
              <pattern muted="0" name="basic_hh.ds" pos="0" type="0" steps="64"/>
              <pattern muted="0" name="basic_hh.ds" pos="192" type="0" steps="64"/>
              <pattern muted="0" name="basic_hh.ds" pos="384" type="0" steps="64"/>
              <pattern muted="0" name="basic_hh.ds" pos="576" type="0" steps="64"/>
              <pattern muted="0" name="basic_hh.ds" pos="768" type="0" steps="16"/>
              <pattern muted="0" name="basic_hh.ds" pos="960" type="0" steps="32"/>
              <pattern muted="0" name="basic_hh.ds" pos="1152" type="0" steps="64"/>
              <pattern muted="0" name="basic_hh.ds" pos="1344" type="0" steps="64"/>
              <pattern muted="0" name="basic_hh.ds" pos="1536" type="0" steps="64"/>
              <pattern muted="0" name="basic_hh.ds" pos="1728" type="0" steps="64"/>
              <pattern muted="0" name="basic_hh.ds" pos="1920" type="0" steps="64"/>
              <pattern muted="0" name="basic_hh.ds" pos="2112" type="0" steps="32"/>
              <pattern muted="0" name="basic_hh.ds" pos="2304" type="0" steps="32"/>
              <pattern muted="0" name="basic_hh.ds" pos="2496" type="0" steps="32"/>
              <pattern muted="0" name="basic_hh.ds" pos="2688" type="0" steps="32"/>
              <pattern muted="0" name="basic_hh.ds" pos="2880" type="0" steps="32"/>
              <pattern muted="0" name="basic_hh.ds" pos="3072" type="0" steps="16">
                <note len="-192" key="57" vol="100" pos="24" pan="0"/>
                <note len="-192" key="57" vol="100" pos="48" pan="0"/>
                <note len="-192" key="57" vol="100" pos="60" pan="0"/>
                <note len="-192" key="57" vol="100" pos="72" pan="0"/>
                <note len="-192" key="57" vol="100" pos="96" pan="0"/>
                <note len="-192" key="57" vol="100" pos="108" pan="0"/>
                <note len="-192" key="57" vol="100" pos="120" pan="0"/>
                <note len="-192" key="57" vol="100" pos="132" pan="0"/>
                <note len="-192" key="57" vol="100" pos="144" pan="0"/>
                <note len="-192" key="57" vol="100" pos="168" pan="0"/>
              </pattern>
              <pattern muted="0" name="basic_hh.ds" pos="3264" type="0" steps="64"/>
              <pattern muted="0" name="basic_hh.ds" pos="3456" type="0" steps="16"/>
              <pattern muted="0" name="basic_hh.ds" pos="3648" type="0" steps="64"/>
              <pattern muted="0" name="basic_hh.ds" pos="3840" type="0" steps="32"/>
              <pattern muted="0" name="basic_hh.ds" pos="4032" type="0" steps="64"/>
              <pattern muted="0" name="basic_hh.ds" pos="4224" type="0" steps="32"/>
              <pattern muted="0" name="basic_hh.ds" pos="4416" type="0" steps="32"/>
            </track>
            <track muted="0" name="clap2.ds" solo="0" type="0">
              <instrumenttrack pitch="0" fxch="0" basenote="57" vol="100.1" pitchrange="1" usemasterpitch="1" pan="-1.2">
                <instrument name="audiofileprocessor">
                  <audiofileprocessor sframe="0" src="drumsynth/misc_claps/clap2.ds" lframe="0" reversed="0" interp="1" looped="0" amp="100" stutter="0" eframe="1"/>
                </instrument>
                <eldata ftype="0" fcut="14000" fres="0.5" fwet="0">
                  <elvol userwavefile="" hold="0.5" lspd_numerator="4" lspd="0.1" lspd_denominator="4" lshp="0" latt="0" rel="0.1" x100="0" pdel="0" lpdel="0" amt="0" lspd_syncmode="0" dec="0.5" lamt="0" sustain="0.5" ctlenvamt="0" att="0"/>
                  <elcut userwavefile="" hold="0.5" lspd_numerator="4" lspd="0.1" lspd_denominator="4" lshp="0" latt="0" rel="0.1" x100="0" pdel="0" lpdel="0" amt="0" lspd_syncmode="0" dec="0.5" lamt="0" sustain="0.5" ctlenvamt="0" att="0"/>
                  <elres userwavefile="" hold="0.5" lspd_numerator="4" lspd="0.1" lspd_denominator="4" lshp="0" latt="0" rel="0.1" x100="0" pdel="0" lpdel="0" amt="0" lspd_syncmode="0" dec="0.5" lamt="0" sustain="0.5" ctlenvamt="0" att="0"/>
                </eldata>
                <chordcreator chord-enabled="0" chordrange="1" chord="0"/>
                <arpeggiator arpcycle="0" arptime_syncmode="0" arptime_numerator="4" arpgate="100" arpmode="0" arp-enabled="0" arptime="200" arp="0" arpskip="0" arpmiss="0" arprange="1" arpdir="0" arptime_denominator="4"/>
                <midiport inputchannel="0" outputprogram="1" basevelocity="63" outputchannel="1" fixedinputvelocity="-1" inputcontroller="0" readable="0" writable="0" outputcontroller="0" fixedoutputvelocity="-1" fixedoutputnote="-1"/>
                <fxchain numofeffects="0" enabled="0"/>
              </instrumenttrack>
              <pattern muted="0" name="clap2.ds" pos="0" type="0" steps="64"/>
              <pattern muted="0" name="clap2.ds" pos="192" type="0" steps="64"/>
              <pattern muted="0" name="clap2.ds" pos="384" type="0" steps="64"/>
              <pattern muted="0" name="clap2.ds" pos="576" type="0" steps="64"/>
              <pattern muted="0" name="clap2.ds" pos="768" type="0" steps="16"/>
              <pattern muted="0" name="clap2.ds" pos="960" type="0" steps="32"/>
              <pattern muted="0" name="clap2.ds" pos="1152" type="0" steps="64"/>
              <pattern muted="0" name="clap2.ds" pos="1344" type="0" steps="64"/>
              <pattern muted="0" name="clap2.ds" pos="1536" type="0" steps="64"/>
              <pattern muted="0" name="clap2.ds" pos="1728" type="0" steps="64"/>
              <pattern muted="0" name="clap2.ds" pos="1920" type="0" steps="64"/>
              <pattern muted="0" name="clap2.ds" pos="2112" type="0" steps="32"/>
              <pattern muted="0" name="clap2.ds" pos="2304" type="0" steps="32"/>
              <pattern muted="0" name="clap2.ds" pos="2496" type="0" steps="32"/>
              <pattern muted="0" name="clap2.ds" pos="2688" type="0" steps="32"/>
              <pattern muted="0" name="clap2.ds" pos="2880" type="0" steps="32"/>
              <pattern muted="0" name="clap2.ds" pos="3072" type="0" steps="16">
                <note len="-192" key="57" vol="100" pos="96" pan="0"/>
                <note len="-192" key="57" vol="100" pos="168" pan="0"/>
              </pattern>
              <pattern muted="0" name="clap2.ds" pos="3264" type="0" steps="64"/>
              <pattern muted="0" name="clap2.ds" pos="3456" type="0" steps="16"/>
              <pattern muted="0" name="clap2.ds" pos="3648" type="0" steps="64"/>
              <pattern muted="0" name="clap2.ds" pos="3840" type="0" steps="32"/>
              <pattern muted="0" name="clap2.ds" pos="4032" type="0" steps="64"/>
              <pattern muted="0" name="clap2.ds" pos="4224" type="0" steps="32"/>
              <pattern muted="0" name="clap2.ds" pos="4416" type="0" steps="32"/>
            </track>
            <track muted="0" name="bassdrum04.ogg" solo="0" type="0">
              <instrumenttrack pitch="0" fxch="0" basenote="57" vol="100" pitchrange="1" usemasterpitch="1" pan="0">
                <instrument name="audiofileprocessor">
                  <audiofileprocessor sframe="0" src="drums/bassdrum04.ogg" lframe="0" reversed="0" interp="1" looped="0" amp="100" stutter="0" eframe="1"/>
                </instrument>
                <eldata ftype="0" fcut="14000" fres="0.5" fwet="0">
                  <elvol userwavefile="" hold="0.5" lspd_numerator="4" lspd="0.1" lspd_denominator="4" lshp="0" latt="0" rel="0.1" x100="0" pdel="0" lpdel="0" amt="0" lspd_syncmode="0" dec="0.5" lamt="0" sustain="0.5" ctlenvamt="0" att="0"/>
                  <elcut userwavefile="" hold="0.5" lspd_numerator="4" lspd="0.1" lspd_denominator="4" lshp="0" latt="0" rel="0.1" x100="0" pdel="0" lpdel="0" amt="0" lspd_syncmode="0" dec="0.5" lamt="0" sustain="0.5" ctlenvamt="0" att="0"/>
                  <elres userwavefile="" hold="0.5" lspd_numerator="4" lspd="0.1" lspd_denominator="4" lshp="0" latt="0" rel="0.1" x100="0" pdel="0" lpdel="0" amt="0" lspd_syncmode="0" dec="0.5" lamt="0" sustain="0.5" ctlenvamt="0" att="0"/>
                </eldata>
                <chordcreator chord-enabled="0" chordrange="1" chord="0"/>
                <arpeggiator arpcycle="0" arptime_syncmode="0" arptime_numerator="4" arpgate="100" arpmode="0" arp-enabled="0" arptime="200" arp="0" arpskip="0" arpmiss="0" arprange="1" arpdir="0" arptime_denominator="4"/>
                <midiport inputchannel="0" outputprogram="1" basevelocity="63" outputchannel="1" fixedinputvelocity="-1" inputcontroller="0" readable="0" writable="0" outputcontroller="0" fixedoutputvelocity="-1" fixedoutputnote="-1"/>
                <fxchain numofeffects="0" enabled="0"/>
              </instrumenttrack>
              <pattern muted="0" name="bassdrum04.ogg" pos="0" type="0" steps="64"/>
              <pattern muted="0" name="bassdrum04.ogg" pos="192" type="0" steps="64"/>
              <pattern muted="0" name="bassdrum04.ogg" pos="384" type="0" steps="64"/>
              <pattern muted="0" name="bassdrum04.ogg" pos="576" type="0" steps="64"/>
              <pattern muted="0" name="bassdrum04.ogg" pos="768" type="0" steps="16"/>
              <pattern muted="0" name="bassdrum04.ogg" pos="960" type="0" steps="32"/>
              <pattern muted="0" name="bassdrum04.ogg" pos="1152" type="0" steps="64"/>
              <pattern muted="0" name="bassdrum04.ogg" pos="1344" type="0" steps="64"/>
              <pattern muted="0" name="bassdrum04.ogg" pos="1536" type="0" steps="64"/>
              <pattern muted="0" name="bassdrum04.ogg" pos="1728" type="0" steps="64"/>
              <pattern muted="0" name="bassdrum04.ogg" pos="1920" type="0" steps="64"/>
              <pattern muted="0" name="bassdrum04.ogg" pos="2112" type="0" steps="32"/>
              <pattern muted="0" name="bassdrum04.ogg" pos="2304" type="0" steps="32"/>
              <pattern muted="0" name="bassdrum04.ogg" pos="2496" type="0" steps="32"/>
              <pattern muted="0" name="bassdrum04.ogg" pos="2688" type="0" steps="32"/>
              <pattern muted="0" name="bassdrum04.ogg" pos="2880" type="0" steps="32"/>
              <pattern muted="0" name="bassdrum04.ogg" pos="3072" type="0" steps="16"/>
              <pattern muted="0" name="bassdrum04.ogg" pos="3264" type="0" steps="64"/>
              <pattern muted="0" name="bassdrum04.ogg" pos="3456" type="0" steps="16"/>
              <pattern muted="0" name="bassdrum04.ogg" pos="3648" type="0" steps="64"/>
              <pattern muted="0" name="bassdrum04.ogg" pos="3840" type="0" steps="32"/>
              <pattern muted="0" name="bassdrum04.ogg" pos="4032" type="0" steps="64"/>
              <pattern muted="0" name="bassdrum04.ogg" pos="4224" type="0" steps="32"/>
              <pattern muted="0" name="bassdrum04.ogg" pos="4416" type="0" steps="32"/>
            </track>
            <track muted="0" name="basic_hh.ds" solo="0" type="0">
              <instrumenttrack pitch="0" fxch="0" basenote="57" vol="100" pitchrange="1" usemasterpitch="1" pan="0">
                <instrument name="audiofileprocessor">
                  <audiofileprocessor sframe="0" src="drumsynth/misc_hats/basic_hh.ds" lframe="0" reversed="0" interp="1" looped="0" amp="100" stutter="0" eframe="1"/>
                </instrument>
                <eldata ftype="0" fcut="14000" fres="0.5" fwet="0">
                  <elvol userwavefile="" hold="0.5" lspd_numerator="4" lspd="0.1" lspd_denominator="4" lshp="0" latt="0" rel="0.1" x100="0" pdel="0" lpdel="0" amt="0" lspd_syncmode="0" dec="0.5" lamt="0" sustain="0.5" ctlenvamt="0" att="0"/>
                  <elcut userwavefile="" hold="0.5" lspd_numerator="4" lspd="0.1" lspd_denominator="4" lshp="0" latt="0" rel="0.1" x100="0" pdel="0" lpdel="0" amt="0" lspd_syncmode="0" dec="0.5" lamt="0" sustain="0.5" ctlenvamt="0" att="0"/>
                  <elres userwavefile="" hold="0.5" lspd_numerator="4" lspd="0.1" lspd_denominator="4" lshp="0" latt="0" rel="0.1" x100="0" pdel="0" lpdel="0" amt="0" lspd_syncmode="0" dec="0.5" lamt="0" sustain="0.5" ctlenvamt="0" att="0"/>
                </eldata>
                <chordcreator chord-enabled="0" chordrange="1" chord="0"/>
                <arpeggiator arpcycle="0" arptime_syncmode="0" arptime_numerator="4" arpgate="100" arpmode="0" arp-enabled="0" arptime="200" arp="0" arpskip="0" arpmiss="0" arprange="1" arpdir="0" arptime_denominator="4"/>
                <midiport inputchannel="0" outputprogram="1" basevelocity="63" outputchannel="1" fixedinputvelocity="-1" inputcontroller="0" readable="0" writable="0" outputcontroller="0" fixedoutputvelocity="-1" fixedoutputnote="-1"/>
                <fxchain numofeffects="0" enabled="0"/>
              </instrumenttrack>
              <pattern muted="0" name="basic_hh.ds" pos="0" type="0" steps="64"/>
              <pattern muted="0" name="basic_hh.ds" pos="192" type="0" steps="64"/>
              <pattern muted="0" name="basic_hh.ds" pos="384" type="0" steps="64"/>
              <pattern muted="0" name="basic_hh.ds" pos="576" type="0" steps="64"/>
              <pattern muted="0" name="basic_hh.ds" pos="768" type="0" steps="16"/>
              <pattern muted="0" name="basic_hh.ds" pos="960" type="0" steps="32"/>
              <pattern muted="0" name="basic_hh.ds" pos="1152" type="0" steps="64"/>
              <pattern muted="0" name="basic_hh.ds" pos="1344" type="0" steps="64"/>
              <pattern muted="0" name="basic_hh.ds" pos="1536" type="0" steps="64"/>
              <pattern muted="0" name="basic_hh.ds" pos="1728" type="0" steps="64"/>
              <pattern muted="0" name="basic_hh.ds" pos="1920" type="0" steps="64"/>
              <pattern muted="0" name="basic_hh.ds" pos="2112" type="0" steps="32"/>
              <pattern muted="0" name="basic_hh.ds" pos="2304" type="0" steps="32"/>
              <pattern muted="0" name="basic_hh.ds" pos="2496" type="0" steps="32"/>
              <pattern muted="0" name="basic_hh.ds" pos="2688" type="0" steps="32"/>
              <pattern muted="0" name="basic_hh.ds" pos="2880" type="0" steps="32"/>
              <pattern muted="0" name="basic_hh.ds" pos="3072" type="0" steps="16"/>
              <pattern muted="0" name="basic_hh.ds" pos="3264" type="0" steps="64"/>
              <pattern muted="0" name="basic_hh.ds" pos="3456" type="0" steps="16"/>
              <pattern muted="0" name="basic_hh.ds" pos="3648" type="0" steps="64"/>
              <pattern muted="0" name="basic_hh.ds" pos="3840" type="0" steps="32"/>
              <pattern muted="0" name="basic_hh.ds" pos="4032" type="0" steps="64"/>
              <pattern muted="0" name="basic_hh.ds" pos="4224" type="0" steps="32"/>
              <pattern muted="0" name="basic_hh.ds" pos="4416" type="0" steps="32"/>
            </track>
            <track muted="0" name="clap2.ds" solo="0" type="0">
              <instrumenttrack pitch="0" fxch="0" basenote="57" vol="100" pitchrange="1" usemasterpitch="1" pan="0">
                <instrument name="audiofileprocessor">
                  <audiofileprocessor sframe="0" src="drumsynth/misc_claps/clap2.ds" lframe="0" reversed="0" interp="1" looped="0" amp="100" stutter="0" eframe="1"/>
                </instrument>
                <eldata ftype="0" fcut="14000" fres="0.5" fwet="0">
                  <elvol userwavefile="" hold="0.5" lspd_numerator="4" lspd="0.1" lspd_denominator="4" lshp="0" latt="0" rel="0.1" x100="0" pdel="0" lpdel="0" amt="0" lspd_syncmode="0" dec="0.5" lamt="0" sustain="0.5" ctlenvamt="0" att="0"/>
                  <elcut userwavefile="" hold="0.5" lspd_numerator="4" lspd="0.1" lspd_denominator="4" lshp="0" latt="0" rel="0.1" x100="0" pdel="0" lpdel="0" amt="0" lspd_syncmode="0" dec="0.5" lamt="0" sustain="0.5" ctlenvamt="0" att="0"/>
                  <elres userwavefile="" hold="0.5" lspd_numerator="4" lspd="0.1" lspd_denominator="4" lshp="0" latt="0" rel="0.1" x100="0" pdel="0" lpdel="0" amt="0" lspd_syncmode="0" dec="0.5" lamt="0" sustain="0.5" ctlenvamt="0" att="0"/>
                </eldata>
                <chordcreator chord-enabled="0" chordrange="1" chord="0"/>
                <arpeggiator arpcycle="0" arptime_syncmode="0" arptime_numerator="4" arpgate="100" arpmode="0" arp-enabled="0" arptime="200" arp="0" arpskip="0" arpmiss="0" arprange="1" arpdir="0" arptime_denominator="4"/>
                <midiport inputchannel="0" outputprogram="1" basevelocity="63" outputchannel="1" fixedinputvelocity="-1" inputcontroller="0" readable="0" writable="0" outputcontroller="0" fixedoutputvelocity="-1" fixedoutputnote="-1"/>
                <fxchain numofeffects="0" enabled="0"/>
              </instrumenttrack>
              <pattern muted="0" name="clap2.ds" pos="0" type="0" steps="64"/>
              <pattern muted="0" name="clap2.ds" pos="192" type="0" steps="64"/>
              <pattern muted="0" name="clap2.ds" pos="384" type="0" steps="64"/>
              <pattern muted="0" name="clap2.ds" pos="576" type="0" steps="64"/>
              <pattern muted="0" name="clap2.ds" pos="768" type="0" steps="16"/>
              <pattern muted="0" name="clap2.ds" pos="960" type="0" steps="32"/>
              <pattern muted="0" name="clap2.ds" pos="1152" type="0" steps="64"/>
              <pattern muted="0" name="clap2.ds" pos="1344" type="0" steps="64"/>
              <pattern muted="0" name="clap2.ds" pos="1536" type="0" steps="64"/>
              <pattern muted="0" name="clap2.ds" pos="1728" type="0" steps="64"/>
              <pattern muted="0" name="clap2.ds" pos="1920" type="0" steps="64"/>
              <pattern muted="0" name="clap2.ds" pos="2112" type="0" steps="32"/>
              <pattern muted="0" name="clap2.ds" pos="2304" type="0" steps="32"/>
              <pattern muted="0" name="clap2.ds" pos="2496" type="0" steps="32"/>
              <pattern muted="0" name="clap2.ds" pos="2688" type="0" steps="32"/>
              <pattern muted="0" name="clap2.ds" pos="2880" type="0" steps="32"/>
              <pattern muted="0" name="clap2.ds" pos="3072" type="0" steps="16"/>
              <pattern muted="0" name="clap2.ds" pos="3264" type="0" steps="64"/>
              <pattern muted="0" name="clap2.ds" pos="3456" type="0" steps="16"/>
              <pattern muted="0" name="clap2.ds" pos="3648" type="0" steps="64"/>
              <pattern muted="0" name="clap2.ds" pos="3840" type="0" steps="32"/>
              <pattern muted="0" name="clap2.ds" pos="4032" type="0" steps="64"/>
              <pattern muted="0" name="clap2.ds" pos="4224" type="0" steps="32"/>
              <pattern muted="0" name="clap2.ds" pos="4416" type="0" steps="32"/>
            </track>
          </trackcontainer>
        </bbtrack>
        <bbtco len="768" muted="0" usestyle="1" color="4286611584" name="" pos="0"/>
      </track>
      <track muted="0" name="Clone of intro1" solo="0" type="1">
        <bbtrack/>
        <bbtco len="768" muted="0" usestyle="1" color="4286611584" name="" pos="768"/>
        <bbtco len="576" muted="0" usestyle="1" color="4286611584" name="" pos="16320"/>
      </track>
      <track muted="0" name="intro2" solo="0" type="1">
        <bbtrack/>
        <bbtco len="384" muted="0" usestyle="1" color="4286611584" name="" pos="13056"/>
        <bbtco len="768" muted="0" usestyle="1" color="4286611584" name="" pos="14208"/>
        <bbtco len="768" muted="0" usestyle="1" color="4286611584" name="" pos="29184"/>
      </track>
      <track muted="0" name="bootcamp1" solo="0" type="1">
        <bbtrack/>
      </track>
      <track muted="0" name="fill1" solo="0" type="1">
        <bbtrack/>
        <bbtco len="192" muted="0" usestyle="1" color="4286611584" name="" pos="10560"/>
        <bbtco len="192" muted="0" usestyle="1" color="4286611584" name="" pos="25920"/>
        <bbtco len="192" muted="0" usestyle="1" color="4286611584" name="" pos="30528"/>
        <bbtco len="192" muted="0" usestyle="1" color="4286611584" name="" pos="33600"/>
      </track>
      <track muted="0" name="Clone of fill1" solo="0" type="1">
        <bbtrack/>
        <bbtco len="384" muted="0" usestyle="1" color="4286611584" name="" pos="4224"/>
        <bbtco len="192" muted="0" usestyle="1" color="4286611584" name="" pos="13632"/>
        <bbtco len="192" muted="0" usestyle="1" color="4286611584" name="" pos="19776"/>
        <bbtco len="192" muted="0" usestyle="1" color="4286611584" name="" pos="32064"/>
      </track>
      <track muted="0" name="Clone of bootcamp1" solo="0" type="1">
        <bbtrack/>
        <bbtco len="1152" muted="0" usestyle="1" color="4286611584" name="" pos="3072"/>
      </track>
      <track muted="0" name="Clone of Clone of bootcamp1" solo="0" type="1">
        <bbtrack/>
        <bbtco len="768" muted="0" usestyle="1" color="4286611584" name="" pos="8448"/>
        <bbtco len="384" muted="0" usestyle="1" color="4286611584" name="" pos="5760"/>
        <bbtco len="576" muted="0" usestyle="1" color="4286611584" name="" pos="29952"/>
      </track>
      <track muted="0" name="Clone of Clone of Clone of bootcamp1" solo="0" type="1">
        <bbtrack/>
        <bbtco len="768" muted="0" usestyle="1" color="4286611584" name="" pos="17664"/>
        <bbtco len="384" muted="0" usestyle="1" color="4286611584" name="" pos="36096"/>
      </track>
      <track muted="0" name="Clone of Clone of Clone of Clone of bootcamp1" solo="0" type="1">
        <bbtrack/>
        <bbtco len="768" muted="0" usestyle="1" color="4286611584" name="" pos="35328"/>
      </track>
      <track muted="0" name="Clone of Clone of bootcamp1" solo="0" type="1">
        <bbtrack/>
        <bbtco len="1152" muted="0" usestyle="1" color="4286611584" name="" pos="4608"/>
        <bbtco len="1152" muted="0" usestyle="1" color="4286611584" name="" pos="6144"/>
        <bbtco len="768" muted="0" usestyle="1" color="4286611584" name="" pos="7680"/>
        <bbtco len="1344" muted="0" usestyle="1" color="4286611584" name="" pos="9216"/>
        <bbtco len="1920" muted="0" usestyle="1" color="4286611584" name="" pos="10752"/>
        <bbtco len="1344" muted="0" usestyle="1" color="4286611584" name="" pos="18432"/>
        <bbtco len="1536" muted="0" usestyle="1" color="4286611584" name="" pos="19968"/>
        <bbtco len="2688" muted="0" usestyle="1" color="4286611584" name="" pos="26112"/>
        <bbtco len="1344" muted="0" usestyle="1" color="4286611584" name="" pos="30720"/>
        <bbtco len="1344" muted="0" usestyle="1" color="4286611584" name="" pos="32256"/>
        <bbtco len="1536" muted="0" usestyle="1" color="4286611584" name="" pos="33792"/>
      </track>
      <track muted="0" name="Clone of Clone of Clone of bootcamp1" solo="0" type="1">
        <bbtrack/>
        <bbtco len="384" muted="0" usestyle="1" color="4286611584" name="" pos="7296"/>
        <bbtco len="384" muted="0" usestyle="1" color="4286611584" name="" pos="28800"/>
        <bbtco len="384" muted="0" usestyle="1" color="4286611584" name="" pos="36480"/>
      </track>
      <track muted="0" name="kick/mutecrash" solo="0" type="1">
        <bbtrack/>
        <bbtco len="384" muted="0" usestyle="1" color="4286611584" name="" pos="13824"/>
      </track>
      <track muted="0" name="Clone of kick/mutecrash" solo="0" type="1">
        <bbtrack/>
      </track>
      <track muted="0" name="Beat/Bassline 6" solo="0" type="1">
        <bbtrack/>
        <bbtco len="1536" muted="0" usestyle="1" color="4286611584" name="" pos="1536"/>
        <bbtco len="384" muted="0" usestyle="1" color="4286611584" name="" pos="12672"/>
        <bbtco len="192" muted="0" usestyle="1" color="4286611584" name="" pos="13440"/>
        <bbtco len="192" muted="0" usestyle="1" color="4286611584" name="" pos="25728"/>
      </track>
      <track muted="0" name="Clone of Beat/Bassline 6" solo="0" type="1">
        <bbtrack/>
        <bbtco len="384" muted="0" usestyle="1" color="4286611584" name="" pos="14976"/>
      </track>
      <track muted="0" name="Beat/Bassline 14" solo="0" type="1">
        <bbtrack/>
        <bbtco len="960" muted="0" usestyle="1" color="4286611584" name="" pos="15360"/>
      </track>
      <track muted="0" name="Beat/Bassline 15" solo="0" type="1">
        <bbtrack/>
        <bbtco len="768" muted="0" usestyle="1" color="4286611584" name="" pos="16896"/>
      </track>
      <track muted="0" name="Beat/Bassline 17" solo="0" type="1">
        <bbtrack/>
        <bbtco len="192" muted="0" usestyle="1" color="4286611584" name="" pos="21504"/>
        <bbtco len="192" muted="0" usestyle="1" color="4286611584" name="" pos="21888"/>
      </track>
      <track muted="0" name="Beat/Bassline 18" solo="0" type="1">
        <bbtrack/>
        <bbtco len="768" muted="0" usestyle="1" color="4286611584" name="" pos="22272"/>
      </track>
      <track muted="0" name="Clone of Beat/Bassline 18" solo="0" type="1">
        <bbtrack/>
        <bbtco len="768" muted="0" usestyle="1" color="4286611584" name="" pos="23040"/>
        <bbtco len="768" muted="0" usestyle="1" color="4286611584" name="" pos="23808"/>
      </track>
      <track muted="0" name="Clone of Clone of Beat/Bassline 18" solo="0" type="1">
        <bbtrack/>
        <bbtco len="768" muted="0" usestyle="1" color="4286611584" name="" pos="24576"/>
      </track>
      <track muted="0" name="Beat/Bassline 21" solo="0" type="1">
        <bbtrack/>
        <bbtco len="384" muted="0" usestyle="1" color="4286611584" name="" pos="25344"/>
      </track>
      <track muted="0" name="Beat/Bassline 22" solo="0" type="1">
        <bbtrack/>
        <bbtco len="384" muted="0" usestyle="1" color="4286611584" name="" pos="36864"/>
      </track>
      <track muted="0" name="bass fender jazz (1,379kb)" solo="0" type="0">
        <instrumenttrack pitch="0" fxch="15" basenote="81" vol="43.6002" pitchrange="1" usemasterpitch="1" pan="0">
          <instrument name="sf2player">
            <sf2player reverbOn="0" src="/home/pass/samples/soundfonts/bass fender jazz (1,379kb).sf2" chorusSpeed="0.3" chorusOn="0" chorusNum="0.9" reverbWidth="0.5" patch="0" reverbDamping="0.2" chorusDepth="8" gain="3.86" bank="0" reverbRoomSize="0.2" chorusLevel="2" reverbLevel="0.9"/>
          </instrument>
          <eldata ftype="0" fcut="14000" fres="0.5" fwet="0">
            <elvol userwavefile="" hold="0.5" lspd_numerator="4" lspd="0.1" lspd_denominator="4" lshp="0" latt="0" rel="0.1" x100="0" pdel="0" lpdel="0" amt="0" lspd_syncmode="0" dec="0.5" lamt="0" sustain="0.5" ctlenvamt="0" att="0"/>
            <elcut userwavefile="" hold="0.5" lspd_numerator="4" lspd="0.1" lspd_denominator="4" lshp="0" latt="0" rel="0.1" x100="0" pdel="0" lpdel="0" amt="0" lspd_syncmode="0" dec="0.5" lamt="0" sustain="0.5" ctlenvamt="0" att="0"/>
            <elres userwavefile="" hold="0.5" lspd_numerator="4" lspd="0.1" lspd_denominator="4" lshp="0" latt="0" rel="0.1" x100="0" pdel="0" lpdel="0" amt="0" lspd_syncmode="0" dec="0.5" lamt="0" sustain="0.5" ctlenvamt="0" att="0"/>
          </eldata>
          <chordcreator chord-enabled="0" chordrange="1" chord="0"/>
          <arpeggiator arpcycle="0" arptime_syncmode="0" arptime_numerator="4" arpgate="100" arpmode="0" arp-enabled="0" arptime="200" arp="0" arpskip="0" arpmiss="0" arprange="1" arpdir="0" arptime_denominator="4"/>
          <midiport inputchannel="0" outputprogram="1" basevelocity="63" outputchannel="1" fixedinputvelocity="-1" inputcontroller="0" readable="0" writable="0" outputcontroller="0" fixedoutputvelocity="-1" fixedoutputnote="-1"/>
          <fxchain numofeffects="0" enabled="1"/>
        </instrumenttrack>
        <pattern muted="0" name="bass fender jazz (1,379kb)" pos="0" type="1" steps="16">
          <note len="12" key="40" vol="197" pos="0" pan="0"/>
          <note len="12" key="40" vol="197" pos="12" pan="0"/>
          <note len="12" key="40" vol="197" pos="24" pan="0"/>
          <note len="12" key="40" vol="197" pos="36" pan="0"/>
          <note len="24" key="40" vol="197" pos="48" pan="0"/>
          <note len="24" key="43" vol="197" pos="96" pan="0"/>
          <note len="24" key="42" vol="197" pos="120" pan="0"/>
          <note len="24" key="40" vol="197" pos="144" pan="0"/>
          <note len="24" key="42" vol="197" pos="168" pan="0"/>
          <note len="192" key="38" vol="197" pos="192" pan="0"/>
        </pattern>
        <pattern muted="0" name="bass fender jazz (1,379kb)" pos="384" type="1" steps="16">
          <note len="12" key="38" vol="197" pos="0" pan="0"/>
          <note len="12" key="38" vol="197" pos="12" pan="0"/>
          <note len="12" key="38" vol="197" pos="24" pan="0"/>
          <note len="12" key="38" vol="197" pos="36" pan="0"/>
          <note len="24" key="42" vol="197" pos="48" pan="0"/>
          <note len="24" key="38" vol="197" pos="72" pan="0"/>
          <note len="24" key="43" vol="197" pos="120" pan="0"/>
          <note len="24" key="42" vol="197" pos="144" pan="0"/>
          <note len="24" key="38" vol="197" pos="168" pan="0"/>
          <note len="48" key="40" vol="197" pos="192" pan="0"/>
          <note len="48" key="40" vol="197" pos="240" pan="0"/>
          <note len="12" key="40" vol="197" pos="288" pan="0"/>
          <note len="12" key="40" vol="197" pos="300" pan="0"/>
          <note len="12" key="40" vol="197" pos="312" pan="0"/>
          <note len="12" key="40" vol="197" pos="324" pan="0"/>
          <note len="12" key="40" vol="197" pos="336" pan="0"/>
          <note len="12" key="40" vol="197" pos="348" pan="0"/>
          <note len="12" key="40" vol="197" pos="360" pan="0"/>
          <note len="12" key="40" vol="197" pos="372" pan="0"/>
        </pattern>
        <pattern muted="0" name="bass fender jazz (1,379kb)" pos="768" type="1" steps="16">
          <note len="12" key="40" vol="197" pos="0" pan="0"/>
          <note len="12" key="40" vol="197" pos="12" pan="0"/>
          <note len="12" key="40" vol="197" pos="24" pan="0"/>
          <note len="24" key="43" vol="197" pos="48" pan="0"/>
          <note len="24" key="40" vol="197" pos="72" pan="0"/>
          <note len="12" key="43" vol="197" pos="96" pan="0"/>
          <note len="12" key="40" vol="197" pos="108" pan="0"/>
          <note len="12" key="40" vol="197" pos="120" pan="0"/>
          <note len="12" key="40" vol="197" pos="132" pan="0"/>
          <note len="12" key="47" vol="197" pos="144" pan="0"/>
          <note len="12" key="40" vol="197" pos="156" pan="0"/>
          <note len="12" key="40" vol="197" pos="168" pan="0"/>
          <note len="12" key="40" vol="197" pos="180" pan="0"/>
        </pattern>
        <pattern muted="0" name="bass fender jazz (1,379kb)" pos="960" type="1" steps="16">
          <note len="12" key="36" vol="197" pos="0" pan="0"/>
          <note len="12" key="36" vol="197" pos="12" pan="0"/>
          <note len="12" key="36" vol="197" pos="24" pan="0"/>
          <note len="12" key="36" vol="197" pos="36" pan="0"/>
          <note len="12" key="36" vol="197" pos="48" pan="0"/>
          <note len="12" key="36" vol="197" pos="60" pan="0"/>
          <note len="12" key="36" vol="197" pos="72" pan="0"/>
          <note len="12" key="36" vol="197" pos="84" pan="0"/>
          <note len="12" key="36" vol="197" pos="96" pan="0"/>
          <note len="12" key="36" vol="197" pos="108" pan="0"/>
          <note len="12" key="36" vol="197" pos="120" pan="0"/>
          <note len="12" key="36" vol="197" pos="132" pan="0"/>
          <note len="12" key="36" vol="197" pos="144" pan="0"/>
          <note len="12" key="36" vol="197" pos="156" pan="0"/>
          <note len="12" key="36" vol="197" pos="168" pan="0"/>
          <note len="12" key="36" vol="197" pos="180" pan="0"/>
          <note len="12" key="38" vol="197" pos="192" pan="0"/>
          <note len="12" key="38" vol="197" pos="204" pan="0"/>
          <note len="12" key="38" vol="197" pos="216" pan="0"/>
          <note len="12" key="38" vol="197" pos="228" pan="0"/>
          <note len="12" key="38" vol="197" pos="240" pan="0"/>
          <note len="12" key="38" vol="197" pos="252" pan="0"/>
          <note len="12" key="38" vol="197" pos="264" pan="0"/>
          <note len="12" key="38" vol="197" pos="276" pan="0"/>
          <note len="12" key="38" vol="197" pos="288" pan="0"/>
          <note len="12" key="38" vol="197" pos="300" pan="0"/>
          <note len="12" key="38" vol="197" pos="312" pan="0"/>
          <note len="12" key="38" vol="197" pos="324" pan="0"/>
          <note len="12" key="38" vol="197" pos="336" pan="0"/>
          <note len="12" key="38" vol="197" pos="348" pan="0"/>
          <note len="12" key="38" vol="197" pos="360" pan="0"/>
          <note len="12" key="38" vol="197" pos="372" pan="0"/>
        </pattern>
        <pattern muted="0" name="bass fender jazz (1,379kb)" pos="1344" type="1" steps="16">
          <note len="48" key="40" vol="197" pos="0" pan="0"/>
          <note len="48" key="40" vol="197" pos="48" pan="0"/>
          <note len="96" key="40" vol="197" pos="96" pan="0"/>
        </pattern>
        <pattern muted="0" name="bass fender jazz (1,379kb)" pos="1536" type="1" steps="16">
          <note len="12" key="40" vol="197" pos="0" pan="0"/>
          <note len="12" key="40" vol="197" pos="12" pan="0"/>
          <note len="12" key="40" vol="197" pos="24" pan="0"/>
          <note len="12" key="40" vol="197" pos="36" pan="0"/>
          <note len="12" key="40" vol="197" pos="48" pan="0"/>
          <note len="12" key="40" vol="197" pos="60" pan="0"/>
          <note len="12" key="40" vol="197" pos="72" pan="0"/>
          <note len="12" key="40" vol="197" pos="84" pan="0"/>
          <note len="12" key="40" vol="197" pos="96" pan="0"/>
          <note len="12" key="40" vol="197" pos="108" pan="0"/>
          <note len="12" key="40" vol="197" pos="120" pan="0"/>
          <note len="12" key="40" vol="197" pos="132" pan="0"/>
          <note len="12" key="40" vol="197" pos="144" pan="0"/>
          <note len="12" key="40" vol="197" pos="156" pan="0"/>
          <note len="12" key="40" vol="197" pos="168" pan="0"/>
          <note len="12" key="40" vol="197" pos="180" pan="0"/>
          <note len="12" key="36" vol="197" pos="192" pan="0"/>
          <note len="12" key="36" vol="197" pos="204" pan="0"/>
          <note len="12" key="36" vol="197" pos="216" pan="0"/>
          <note len="12" key="36" vol="197" pos="228" pan="0"/>
          <note len="12" key="36" vol="197" pos="240" pan="0"/>
          <note len="12" key="36" vol="197" pos="252" pan="0"/>
          <note len="12" key="36" vol="197" pos="264" pan="0"/>
          <note len="12" key="36" vol="197" pos="276" pan="0"/>
          <note len="12" key="36" vol="197" pos="288" pan="0"/>
          <note len="12" key="36" vol="197" pos="300" pan="0"/>
          <note len="12" key="36" vol="197" pos="312" pan="0"/>
          <note len="12" key="36" vol="197" pos="324" pan="0"/>
          <note len="12" key="36" vol="197" pos="336" pan="0"/>
          <note len="12" key="36" vol="197" pos="348" pan="0"/>
          <note len="12" key="36" vol="197" pos="360" pan="0"/>
          <note len="12" key="36" vol="197" pos="372" pan="0"/>
          <note len="12" key="43" vol="197" pos="384" pan="0"/>
          <note len="12" key="43" vol="197" pos="396" pan="0"/>
          <note len="12" key="43" vol="197" pos="408" pan="0"/>
          <note len="12" key="43" vol="197" pos="420" pan="0"/>
          <note len="12" key="43" vol="197" pos="432" pan="0"/>
          <note len="12" key="43" vol="197" pos="444" pan="0"/>
          <note len="12" key="43" vol="197" pos="456" pan="0"/>
          <note len="12" key="43" vol="197" pos="468" pan="0"/>
          <note len="12" key="43" vol="197" pos="480" pan="0"/>
          <note len="12" key="43" vol="197" pos="492" pan="0"/>
          <note len="12" key="43" vol="197" pos="504" pan="0"/>
          <note len="12" key="43" vol="197" pos="516" pan="0"/>
          <note len="12" key="43" vol="197" pos="528" pan="0"/>
          <note len="12" key="43" vol="197" pos="540" pan="0"/>
          <note len="12" key="43" vol="197" pos="552" pan="0"/>
          <note len="12" key="43" vol="197" pos="564" pan="0"/>
          <note len="12" key="38" vol="197" pos="576" pan="0"/>
          <note len="12" key="38" vol="197" pos="588" pan="0"/>
          <note len="12" key="38" vol="197" pos="600" pan="0"/>
          <note len="12" key="38" vol="197" pos="612" pan="0"/>
          <note len="12" key="38" vol="197" pos="624" pan="0"/>
          <note len="12" key="38" vol="197" pos="636" pan="0"/>
          <note len="12" key="38" vol="197" pos="648" pan="0"/>
          <note len="12" key="38" vol="197" pos="660" pan="0"/>
          <note len="12" key="38" vol="197" pos="672" pan="0"/>
          <note len="12" key="38" vol="197" pos="684" pan="0"/>
          <note len="12" key="38" vol="197" pos="696" pan="0"/>
          <note len="12" key="38" vol="197" pos="708" pan="0"/>
          <note len="12" key="38" vol="197" pos="720" pan="0"/>
          <note len="12" key="38" vol="197" pos="732" pan="0"/>
          <note len="12" key="38" vol="197" pos="744" pan="0"/>
          <note len="12" key="38" vol="197" pos="756" pan="0"/>
        </pattern>
        <pattern muted="0" name="bass fender jazz (1,379kb)" pos="2304" type="1" steps="16">
          <note len="12" key="40" vol="197" pos="0" pan="0"/>
          <note len="12" key="40" vol="197" pos="12" pan="0"/>
          <note len="12" key="40" vol="197" pos="24" pan="0"/>
          <note len="12" key="40" vol="197" pos="36" pan="0"/>
          <note len="12" key="40" vol="197" pos="48" pan="0"/>
          <note len="12" key="40" vol="197" pos="60" pan="0"/>
          <note len="12" key="40" vol="197" pos="72" pan="0"/>
          <note len="12" key="40" vol="197" pos="84" pan="0"/>
          <note len="12" key="40" vol="197" pos="96" pan="0"/>
          <note len="12" key="40" vol="197" pos="108" pan="0"/>
          <note len="12" key="40" vol="197" pos="120" pan="0"/>
          <note len="12" key="40" vol="197" pos="132" pan="0"/>
          <note len="12" key="40" vol="197" pos="144" pan="0"/>
          <note len="12" key="40" vol="197" pos="156" pan="0"/>
          <note len="12" key="40" vol="197" pos="168" pan="0"/>
          <note len="12" key="40" vol="197" pos="180" pan="0"/>
          <note len="12" key="36" vol="197" pos="192" pan="0"/>
          <note len="12" key="36" vol="197" pos="204" pan="0"/>
          <note len="12" key="36" vol="197" pos="216" pan="0"/>
          <note len="12" key="36" vol="197" pos="228" pan="0"/>
          <note len="12" key="36" vol="197" pos="240" pan="0"/>
          <note len="12" key="36" vol="197" pos="252" pan="0"/>
          <note len="12" key="36" vol="197" pos="264" pan="0"/>
          <note len="12" key="36" vol="197" pos="276" pan="0"/>
          <note len="12" key="36" vol="197" pos="288" pan="0"/>
          <note len="12" key="36" vol="197" pos="300" pan="0"/>
          <note len="12" key="36" vol="197" pos="312" pan="0"/>
          <note len="12" key="36" vol="197" pos="324" pan="0"/>
          <note len="12" key="36" vol="197" pos="336" pan="0"/>
          <note len="12" key="36" vol="197" pos="348" pan="0"/>
          <note len="12" key="36" vol="197" pos="360" pan="0"/>
          <note len="12" key="36" vol="197" pos="372" pan="0"/>
          <note len="12" key="43" vol="197" pos="384" pan="0"/>
          <note len="12" key="43" vol="197" pos="396" pan="0"/>
          <note len="12" key="43" vol="197" pos="408" pan="0"/>
          <note len="12" key="43" vol="197" pos="420" pan="0"/>
          <note len="12" key="43" vol="197" pos="432" pan="0"/>
          <note len="12" key="43" vol="197" pos="444" pan="0"/>
          <note len="12" key="43" vol="197" pos="456" pan="0"/>
          <note len="12" key="43" vol="197" pos="468" pan="0"/>
          <note len="12" key="43" vol="197" pos="480" pan="0"/>
          <note len="12" key="43" vol="197" pos="492" pan="0"/>
          <note len="12" key="43" vol="197" pos="504" pan="0"/>
          <note len="12" key="43" vol="197" pos="516" pan="0"/>
          <note len="12" key="43" vol="197" pos="528" pan="0"/>
          <note len="12" key="43" vol="197" pos="540" pan="0"/>
          <note len="12" key="43" vol="197" pos="552" pan="0"/>
          <note len="12" key="43" vol="197" pos="564" pan="0"/>
          <note len="12" key="48" vol="197" pos="576" pan="0"/>
          <note len="12" key="48" vol="197" pos="588" pan="0"/>
          <note len="12" key="48" vol="197" pos="600" pan="0"/>
          <note len="12" key="48" vol="197" pos="612" pan="0"/>
          <note len="12" key="48" vol="197" pos="624" pan="0"/>
          <note len="12" key="48" vol="197" pos="636" pan="0"/>
          <note len="12" key="48" vol="197" pos="648" pan="0"/>
          <note len="12" key="48" vol="197" pos="660" pan="0"/>
          <note len="12" key="48" vol="197" pos="672" pan="0"/>
          <note len="12" key="45" vol="197" pos="684" pan="0"/>
          <note len="12" key="47" vol="197" pos="696" pan="0"/>
          <note len="12" key="48" vol="197" pos="708" pan="0"/>
          <note len="12" key="50" vol="197" pos="720" pan="0"/>
          <note len="12" key="47" vol="197" pos="732" pan="0"/>
          <note len="12" key="48" vol="197" pos="744" pan="0"/>
          <note len="12" key="50" vol="197" pos="756" pan="0"/>
        </pattern>
        <pattern muted="0" name="bass fender jazz (1,379kb)" pos="3072" type="1" steps="16">
          <note len="12" key="52" vol="197" pos="0" pan="0"/>
          <note len="12" key="52" vol="197" pos="12" pan="0"/>
          <note len="12" key="52" vol="197" pos="24" pan="0"/>
          <note len="12" key="52" vol="197" pos="36" pan="0"/>
          <note len="12" key="52" vol="197" pos="48" pan="0"/>
          <note len="12" key="52" vol="197" pos="60" pan="0"/>
          <note len="12" key="52" vol="197" pos="72" pan="0"/>
          <note len="12" key="52" vol="197" pos="84" pan="0"/>
          <note len="12" key="52" vol="197" pos="96" pan="0"/>
          <note len="12" key="52" vol="197" pos="108" pan="0"/>
          <note len="12" key="52" vol="197" pos="120" pan="0"/>
          <note len="12" key="52" vol="197" pos="132" pan="0"/>
          <note len="12" key="52" vol="197" pos="144" pan="0"/>
          <note len="12" key="52" vol="197" pos="156" pan="0"/>
          <note len="12" key="52" vol="197" pos="168" pan="0"/>
          <note len="12" key="52" vol="197" pos="180" pan="0"/>
          <note len="12" key="48" vol="197" pos="192" pan="0"/>
          <note len="12" key="48" vol="197" pos="204" pan="0"/>
          <note len="12" key="48" vol="197" pos="216" pan="0"/>
          <note len="12" key="48" vol="197" pos="228" pan="0"/>
          <note len="12" key="48" vol="197" pos="240" pan="0"/>
          <note len="12" key="48" vol="197" pos="252" pan="0"/>
          <note len="12" key="48" vol="197" pos="264" pan="0"/>
          <note len="12" key="48" vol="197" pos="276" pan="0"/>
          <note len="12" key="48" vol="197" pos="288" pan="0"/>
          <note len="12" key="48" vol="197" pos="300" pan="0"/>
          <note len="12" key="48" vol="197" pos="312" pan="0"/>
          <note len="12" key="48" vol="197" pos="324" pan="0"/>
          <note len="12" key="48" vol="197" pos="336" pan="0"/>
          <note len="12" key="48" vol="197" pos="348" pan="0"/>
          <note len="12" key="48" vol="197" pos="360" pan="0"/>
          <note len="12" key="48" vol="197" pos="372" pan="0"/>
          <note len="12" key="55" vol="197" pos="384" pan="0"/>
          <note len="12" key="55" vol="197" pos="396" pan="0"/>
          <note len="12" key="55" vol="197" pos="408" pan="0"/>
          <note len="12" key="55" vol="197" pos="420" pan="0"/>
          <note len="12" key="55" vol="197" pos="432" pan="0"/>
          <note len="12" key="55" vol="197" pos="444" pan="0"/>
          <note len="12" key="55" vol="197" pos="456" pan="0"/>
          <note len="12" key="55" vol="197" pos="468" pan="0"/>
          <note len="12" key="55" vol="197" pos="480" pan="0"/>
          <note len="12" key="55" vol="197" pos="492" pan="0"/>
          <note len="12" key="55" vol="197" pos="504" pan="0"/>
          <note len="12" key="55" vol="197" pos="516" pan="0"/>
          <note len="12" key="55" vol="197" pos="528" pan="0"/>
          <note len="12" key="55" vol="197" pos="540" pan="0"/>
          <note len="12" key="55" vol="197" pos="552" pan="0"/>
          <note len="12" key="55" vol="197" pos="564" pan="0"/>
          <note len="12" key="50" vol="197" pos="576" pan="0"/>
          <note len="12" key="50" vol="197" pos="588" pan="0"/>
          <note len="12" key="50" vol="197" pos="600" pan="0"/>
          <note len="12" key="50" vol="197" pos="612" pan="0"/>
          <note len="12" key="50" vol="197" pos="624" pan="0"/>
          <note len="12" key="50" vol="197" pos="636" pan="0"/>
          <note len="12" key="50" vol="197" pos="648" pan="0"/>
          <note len="12" key="50" vol="197" pos="660" pan="0"/>
          <note len="12" key="50" vol="197" pos="672" pan="0"/>
          <note len="12" key="50" vol="197" pos="684" pan="0"/>
          <note len="12" key="50" vol="197" pos="696" pan="0"/>
          <note len="12" key="50" vol="197" pos="708" pan="0"/>
          <note len="12" key="50" vol="197" pos="720" pan="0"/>
          <note len="12" key="50" vol="197" pos="732" pan="0"/>
          <note len="12" key="50" vol="197" pos="744" pan="0"/>
          <note len="12" key="50" vol="197" pos="756" pan="0"/>
        </pattern>
        <pattern muted="0" name="bass fender jazz (1,379kb)" pos="3840" type="1" steps="16">
          <note len="12" key="52" vol="197" pos="0" pan="0"/>
          <note len="12" key="52" vol="197" pos="12" pan="0"/>
          <note len="12" key="52" vol="197" pos="24" pan="0"/>
          <note len="12" key="52" vol="197" pos="36" pan="0"/>
          <note len="12" key="52" vol="197" pos="48" pan="0"/>
          <note len="12" key="52" vol="197" pos="60" pan="0"/>
          <note len="12" key="52" vol="197" pos="72" pan="0"/>
          <note len="12" key="52" vol="197" pos="84" pan="0"/>
          <note len="12" key="52" vol="197" pos="96" pan="0"/>
          <note len="12" key="52" vol="197" pos="108" pan="0"/>
          <note len="12" key="52" vol="197" pos="120" pan="0"/>
          <note len="12" key="52" vol="197" pos="132" pan="0"/>
          <note len="12" key="52" vol="197" pos="144" pan="0"/>
          <note len="12" key="52" vol="197" pos="156" pan="0"/>
          <note len="12" key="52" vol="197" pos="168" pan="0"/>
          <note len="12" key="52" vol="197" pos="180" pan="0"/>
          <note len="12" key="48" vol="197" pos="192" pan="0"/>
          <note len="12" key="48" vol="197" pos="204" pan="0"/>
          <note len="12" key="48" vol="197" pos="216" pan="0"/>
          <note len="12" key="48" vol="197" pos="228" pan="0"/>
          <note len="12" key="48" vol="197" pos="240" pan="0"/>
          <note len="12" key="48" vol="197" pos="252" pan="0"/>
          <note len="12" key="48" vol="197" pos="264" pan="0"/>
          <note len="12" key="48" vol="197" pos="276" pan="0"/>
          <note len="12" key="48" vol="197" pos="288" pan="0"/>
          <note len="12" key="48" vol="197" pos="300" pan="0"/>
          <note len="12" key="48" vol="197" pos="312" pan="0"/>
          <note len="12" key="48" vol="197" pos="324" pan="0"/>
          <note len="12" key="48" vol="197" pos="336" pan="0"/>
          <note len="12" key="48" vol="197" pos="348" pan="0"/>
          <note len="12" key="48" vol="197" pos="360" pan="0"/>
          <note len="12" key="48" vol="197" pos="372" pan="0"/>
          <note len="12" key="55" vol="197" pos="384" pan="0"/>
          <note len="12" key="55" vol="197" pos="396" pan="0"/>
          <note len="12" key="55" vol="197" pos="408" pan="0"/>
          <note len="12" key="55" vol="197" pos="420" pan="0"/>
          <note len="12" key="55" vol="197" pos="432" pan="0"/>
          <note len="12" key="55" vol="197" pos="444" pan="0"/>
          <note len="12" key="55" vol="197" pos="456" pan="0"/>
          <note len="12" key="55" vol="197" pos="468" pan="0"/>
          <note len="12" key="55" vol="197" pos="480" pan="0"/>
          <note len="12" key="55" vol="197" pos="492" pan="0"/>
          <note len="12" key="55" vol="197" pos="504" pan="0"/>
          <note len="12" key="55" vol="197" pos="516" pan="0"/>
          <note len="12" key="55" vol="197" pos="528" pan="0"/>
          <note len="12" key="55" vol="197" pos="540" pan="0"/>
          <note len="12" key="55" vol="197" pos="552" pan="0"/>
          <note len="12" key="55" vol="197" pos="564" pan="0"/>
          <note len="12" key="59" vol="197" pos="576" pan="0"/>
          <note len="12" key="59" vol="197" pos="588" pan="0"/>
          <note len="12" key="59" vol="197" pos="600" pan="0"/>
          <note len="12" key="59" vol="197" pos="612" pan="0"/>
          <note len="12" key="57" vol="197" pos="624" pan="0"/>
          <note len="12" key="57" vol="197" pos="636" pan="0"/>
          <note len="12" key="57" vol="197" pos="648" pan="0"/>
          <note len="12" key="57" vol="197" pos="660" pan="0"/>
          <note len="12" key="55" vol="197" pos="672" pan="0"/>
          <note len="12" key="55" vol="197" pos="684" pan="0"/>
          <note len="12" key="55" vol="197" pos="696" pan="0"/>
          <note len="12" key="55" vol="197" pos="708" pan="0"/>
          <note len="12" key="54" vol="197" pos="720" pan="0"/>
          <note len="12" key="54" vol="197" pos="732" pan="0"/>
          <note len="12" key="54" vol="197" pos="744" pan="0"/>
          <note len="12" key="54" vol="197" pos="756" pan="0"/>
        </pattern>
        <pattern muted="0" name="bass fender jazz (1,379kb)" pos="4608" type="1" steps="16">
          <note len="24" key="40" vol="197" pos="0" pan="0"/>
          <note len="24" key="40" vol="197" pos="24" pan="0"/>
          <note len="24" key="55" vol="197" pos="48" pan="0"/>
          <note len="24" key="40" vol="197" pos="72" pan="0"/>
          <note len="24" key="54" vol="197" pos="96" pan="0"/>
          <note len="24" key="40" vol="197" pos="120" pan="0"/>
          <note len="24" key="50" vol="197" pos="144" pan="0"/>
          <note len="24" key="52" vol="197" pos="192" pan="0"/>
          <note len="24" key="40" vol="197" pos="216" pan="0"/>
          <note len="24" key="40" vol="197" pos="240" pan="0"/>
          <note len="24" key="40" vol="197" pos="264" pan="0"/>
          <note len="12" key="40" vol="197" pos="288" pan="0"/>
          <note len="12" key="40" vol="197" pos="300" pan="0"/>
          <note len="12" key="40" vol="197" pos="312" pan="0"/>
          <note len="12" key="40" vol="197" pos="324" pan="0"/>
          <note len="12" key="40" vol="197" pos="336" pan="0"/>
          <note len="12" key="40" vol="197" pos="348" pan="0"/>
          <note len="12" key="40" vol="197" pos="360" pan="0"/>
          <note len="12" key="40" vol="197" pos="372" pan="0"/>
        </pattern>
        <pattern muted="0" name="bass fender jazz (1,379kb)" pos="4992" type="1" steps="16">
          <note len="24" key="40" vol="197" pos="0" pan="0"/>
          <note len="24" key="40" vol="197" pos="24" pan="0"/>
          <note len="24" key="55" vol="197" pos="48" pan="0"/>
          <note len="24" key="40" vol="197" pos="72" pan="0"/>
          <note len="24" key="54" vol="197" pos="96" pan="0"/>
          <note len="24" key="40" vol="197" pos="120" pan="0"/>
          <note len="24" key="50" vol="197" pos="144" pan="0"/>
          <note len="24" key="40" vol="197" pos="168" pan="0"/>
          <note len="24" key="52" vol="197" pos="192" pan="0"/>
          <note len="24" key="40" vol="197" pos="216" pan="0"/>
          <note len="24" key="40" vol="197" pos="240" pan="0"/>
          <note len="24" key="40" vol="197" pos="264" pan="0"/>
          <note len="12" key="40" vol="197" pos="288" pan="0"/>
          <note len="12" key="40" vol="197" pos="300" pan="0"/>
          <note len="12" key="40" vol="197" pos="312" pan="0"/>
          <note len="12" key="40" vol="197" pos="324" pan="0"/>
          <note len="12" key="40" vol="197" pos="336" pan="0"/>
          <note len="12" key="40" vol="197" pos="348" pan="0"/>
          <note len="12" key="40" vol="197" pos="360" pan="0"/>
          <note len="12" key="40" vol="197" pos="372" pan="0"/>
        </pattern>
        <pattern muted="0" name="bass fender jazz (1,379kb)" pos="5376" type="1" steps="16">
          <note len="24" key="40" vol="197" pos="0" pan="0"/>
          <note len="24" key="40" vol="197" pos="24" pan="0"/>
          <note len="24" key="55" vol="197" pos="48" pan="0"/>
          <note len="24" key="40" vol="197" pos="72" pan="0"/>
          <note len="24" key="54" vol="197" pos="96" pan="0"/>
          <note len="24" key="40" vol="197" pos="120" pan="0"/>
          <note len="24" key="50" vol="197" pos="144" pan="0"/>
          <note len="24" key="40" vol="197" pos="168" pan="0"/>
          <note len="12" key="40" vol="197" pos="192" pan="0"/>
          <note len="12" key="40" vol="197" pos="204" pan="0"/>
          <note len="12" key="40" vol="197" pos="216" pan="0"/>
          <note len="12" key="40" vol="197" pos="228" pan="0"/>
          <note len="12" key="40" vol="197" pos="240" pan="0"/>
          <note len="12" key="40" vol="197" pos="252" pan="0"/>
          <note len="12" key="40" vol="197" pos="264" pan="0"/>
          <note len="12" key="40" vol="197" pos="276" pan="0"/>
          <note len="12" key="40" vol="197" pos="288" pan="0"/>
          <note len="12" key="40" vol="197" pos="300" pan="0"/>
          <note len="12" key="40" vol="197" pos="312" pan="0"/>
          <note len="12" key="40" vol="197" pos="324" pan="0"/>
          <note len="12" key="40" vol="197" pos="336" pan="0"/>
          <note len="12" key="40" vol="197" pos="348" pan="0"/>
          <note len="12" key="40" vol="197" pos="360" pan="0"/>
          <note len="12" key="40" vol="197" pos="372" pan="0"/>
        </pattern>
        <pattern muted="0" name="bass fender jazz (1,379kb)" pos="5760" type="1" steps="16">
          <note len="12" key="48" vol="197" pos="0" pan="0"/>
          <note len="12" key="48" vol="197" pos="12" pan="0"/>
          <note len="12" key="48" vol="197" pos="24" pan="0"/>
          <note len="12" key="48" vol="197" pos="36" pan="0"/>
          <note len="12" key="48" vol="197" pos="48" pan="0"/>
          <note len="12" key="48" vol="197" pos="60" pan="0"/>
          <note len="12" key="48" vol="197" pos="72" pan="0"/>
          <note len="12" key="48" vol="197" pos="84" pan="0"/>
          <note len="12" key="48" vol="197" pos="96" pan="0"/>
          <note len="12" key="48" vol="197" pos="108" pan="0"/>
          <note len="12" key="48" vol="197" pos="120" pan="0"/>
          <note len="12" key="48" vol="197" pos="132" pan="0"/>
          <note len="12" key="48" vol="197" pos="144" pan="0"/>
          <note len="12" key="48" vol="197" pos="156" pan="0"/>
          <note len="12" key="48" vol="197" pos="168" pan="0"/>
          <note len="12" key="48" vol="197" pos="180" pan="0"/>
          <note len="12" key="50" vol="197" pos="192" pan="0"/>
          <note len="12" key="50" vol="197" pos="204" pan="0"/>
          <note len="12" key="50" vol="197" pos="216" pan="0"/>
          <note len="12" key="50" vol="197" pos="228" pan="0"/>
          <note len="12" key="50" vol="197" pos="240" pan="0"/>
          <note len="12" key="50" vol="197" pos="252" pan="0"/>
          <note len="12" key="50" vol="197" pos="264" pan="0"/>
          <note len="12" key="50" vol="197" pos="276" pan="0"/>
          <note len="12" key="50" vol="197" pos="288" pan="0"/>
          <note len="12" key="50" vol="197" pos="300" pan="0"/>
          <note len="12" key="50" vol="197" pos="312" pan="0"/>
          <note len="12" key="50" vol="197" pos="324" pan="0"/>
          <note len="12" key="50" vol="197" pos="336" pan="0"/>
          <note len="12" key="50" vol="197" pos="348" pan="0"/>
          <note len="12" key="50" vol="197" pos="360" pan="0"/>
          <note len="12" key="50" vol="197" pos="372" pan="0"/>
        </pattern>
        <pattern muted="0" name="bass fender jazz (1,379kb)" pos="6144" type="1" steps="16">
          <note len="24" key="52" vol="197" pos="0" pan="0"/>
          <note len="24" key="52" vol="197" pos="24" pan="0"/>
          <note len="24" key="59" vol="197" pos="48" pan="0"/>
          <note len="24" key="52" vol="197" pos="72" pan="0"/>
          <note len="24" key="57" vol="197" pos="96" pan="0"/>
          <note len="24" key="52" vol="197" pos="120" pan="0"/>
          <note len="24" key="54" vol="197" pos="144" pan="0"/>
          <note len="24" key="52" vol="197" pos="168" pan="0"/>
          <note len="24" key="55" vol="197" pos="192" pan="0"/>
          <note len="24" key="52" vol="197" pos="216" pan="0"/>
          <note len="24" key="52" vol="197" pos="240" pan="0"/>
          <note len="24" key="52" vol="197" pos="264" pan="0"/>
          <note len="12" key="52" vol="197" pos="288" pan="0"/>
          <note len="12" key="52" vol="197" pos="300" pan="0"/>
          <note len="12" key="52" vol="197" pos="312" pan="0"/>
          <note len="12" key="52" vol="197" pos="324" pan="0"/>
          <note len="12" key="52" vol="197" pos="336" pan="0"/>
          <note len="12" key="52" vol="197" pos="348" pan="0"/>
          <note len="12" key="52" vol="197" pos="360" pan="0"/>
          <note len="12" key="52" vol="197" pos="372" pan="0"/>
        </pattern>
        <pattern muted="0" name="bass fender jazz (1,379kb)" pos="6528" type="1" steps="16">
          <note len="24" key="52" vol="197" pos="0" pan="0"/>
          <note len="24" key="52" vol="197" pos="24" pan="0"/>
          <note len="24" key="59" vol="197" pos="48" pan="0"/>
          <note len="24" key="52" vol="197" pos="72" pan="0"/>
          <note len="24" key="57" vol="197" pos="96" pan="0"/>
          <note len="24" key="52" vol="197" pos="120" pan="0"/>
          <note len="24" key="52" vol="197" pos="168" pan="0"/>
          <note len="24" key="52" vol="197" pos="216" pan="0"/>
          <note len="24" key="52" vol="197" pos="240" pan="0"/>
          <note len="24" key="52" vol="197" pos="264" pan="0"/>
          <note len="12" key="52" vol="197" pos="288" pan="0"/>
          <note len="12" key="52" vol="197" pos="300" pan="0"/>
          <note len="12" key="52" vol="197" pos="312" pan="0"/>
          <note len="12" key="52" vol="197" pos="324" pan="0"/>
          <note len="12" key="52" vol="197" pos="336" pan="0"/>
          <note len="12" key="52" vol="197" pos="348" pan="0"/>
          <note len="12" key="52" vol="197" pos="360" pan="0"/>
          <note len="12" key="52" vol="197" pos="372" pan="0"/>
        </pattern>
        <pattern muted="0" name="bass fender jazz (1,379kb)" pos="6912" type="1" steps="16">
          <note len="24" key="52" vol="197" pos="0" pan="0"/>
          <note len="24" key="52" vol="197" pos="24" pan="0"/>
          <note len="24" key="59" vol="197" pos="48" pan="0"/>
          <note len="24" key="52" vol="197" pos="72" pan="0"/>
          <note len="24" key="57" vol="197" pos="96" pan="0"/>
          <note len="24" key="52" vol="197" pos="120" pan="0"/>
          <note len="24" key="54" vol="197" pos="144" pan="0"/>
          <note len="24" key="52" vol="197" pos="168" pan="0"/>
          <note len="12" key="52" vol="197" pos="192" pan="0"/>
          <note len="12" key="52" vol="197" pos="204" pan="0"/>
          <note len="12" key="52" vol="197" pos="216" pan="0"/>
          <note len="12" key="52" vol="197" pos="228" pan="0"/>
          <note len="12" key="52" vol="197" pos="240" pan="0"/>
          <note len="12" key="52" vol="197" pos="252" pan="0"/>
          <note len="12" key="52" vol="197" pos="264" pan="0"/>
          <note len="12" key="52" vol="197" pos="276" pan="0"/>
          <note len="12" key="52" vol="197" pos="288" pan="0"/>
          <note len="12" key="52" vol="197" pos="300" pan="0"/>
          <note len="12" key="52" vol="197" pos="312" pan="0"/>
          <note len="12" key="52" vol="197" pos="324" pan="0"/>
          <note len="12" key="52" vol="197" pos="336" pan="0"/>
          <note len="12" key="52" vol="197" pos="348" pan="0"/>
          <note len="12" key="52" vol="197" pos="360" pan="0"/>
          <note len="12" key="52" vol="197" pos="372" pan="0"/>
        </pattern>
        <pattern muted="0" name="bass fender jazz (1,379kb)" pos="7296" type="1" steps="16">
          <note len="12" key="48" vol="197" pos="0" pan="0"/>
          <note len="12" key="48" vol="197" pos="12" pan="0"/>
          <note len="12" key="48" vol="197" pos="24" pan="0"/>
          <note len="12" key="48" vol="197" pos="36" pan="0"/>
          <note len="12" key="48" vol="197" pos="48" pan="0"/>
          <note len="12" key="48" vol="197" pos="60" pan="0"/>
          <note len="12" key="48" vol="197" pos="72" pan="0"/>
          <note len="12" key="48" vol="197" pos="84" pan="0"/>
          <note len="12" key="48" vol="197" pos="96" pan="0"/>
          <note len="12" key="48" vol="197" pos="108" pan="0"/>
          <note len="12" key="48" vol="197" pos="120" pan="0"/>
          <note len="12" key="48" vol="197" pos="132" pan="0"/>
          <note len="12" key="48" vol="197" pos="144" pan="0"/>
          <note len="12" key="48" vol="197" pos="156" pan="0"/>
          <note len="12" key="48" vol="197" pos="168" pan="0"/>
          <note len="12" key="48" vol="197" pos="180" pan="0"/>
          <note len="12" key="50" vol="197" pos="192" pan="0"/>
          <note len="12" key="50" vol="197" pos="204" pan="0"/>
          <note len="12" key="50" vol="197" pos="216" pan="0"/>
          <note len="12" key="50" vol="197" pos="228" pan="0"/>
          <note len="12" key="50" vol="197" pos="240" pan="0"/>
          <note len="12" key="50" vol="197" pos="252" pan="0"/>
          <note len="12" key="50" vol="197" pos="264" pan="0"/>
          <note len="12" key="50" vol="197" pos="276" pan="0"/>
          <note len="12" key="50" vol="197" pos="288" pan="0"/>
          <note len="12" key="50" vol="197" pos="300" pan="0"/>
          <note len="12" key="50" vol="197" pos="312" pan="0"/>
          <note len="12" key="50" vol="197" pos="324" pan="0"/>
          <note len="12" key="50" vol="197" pos="336" pan="0"/>
          <note len="12" key="50" vol="197" pos="348" pan="0"/>
          <note len="12" key="50" vol="197" pos="360" pan="0"/>
          <note len="12" key="50" vol="197" pos="372" pan="0"/>
        </pattern>
        <pattern muted="0" name="bass fender jazz (1,379kb)" pos="9216" type="1" steps="16">
          <note len="384" key="43" vol="197" pos="0" pan="0"/>
          <note len="384" key="38" vol="197" pos="384" pan="0"/>
          <note len="192" key="40" vol="197" pos="768" pan="0"/>
          <note len="192" key="38" vol="197" pos="960" pan="0"/>
          <note len="192" key="36" vol="197" pos="1152" pan="0"/>
          <note len="192" key="38" vol="197" pos="1344" pan="0"/>
        </pattern>
        <pattern muted="0" name="bass fender jazz (1,379kb)" pos="10752" type="1" steps="16">
          <note len="384" key="43" vol="197" pos="0" pan="0"/>
          <note len="384" key="38" vol="197" pos="384" pan="0"/>
          <note len="192" key="40" vol="197" pos="768" pan="0"/>
          <note len="192" key="38" vol="197" pos="960" pan="0"/>
          <note len="192" key="36" vol="197" pos="1152" pan="0"/>
          <note len="192" key="38" vol="197" pos="1344" pan="0"/>
        </pattern>
        <pattern muted="0" name="bass fender jazz (1,379kb)" pos="7680" type="1" steps="16">
          <note len="192" key="36" vol="195" pos="0" pan="0"/>
          <note len="192" key="43" vol="195" pos="192" pan="0"/>
          <note len="192" key="50" vol="195" pos="384" pan="0"/>
          <note len="192" key="40" vol="195" pos="576" pan="0"/>
        </pattern>
        <pattern muted="0" name="bass fender jazz (1,379kb)" pos="8448" type="1" steps="16">
          <note len="24" key="48" vol="195" pos="0" pan="0"/>
          <note len="24" key="48" vol="195" pos="24" pan="0"/>
          <note len="24" key="55" vol="195" pos="48" pan="0"/>
          <note len="24" key="48" vol="195" pos="72" pan="0"/>
          <note len="24" key="54" vol="195" pos="96" pan="0"/>
          <note len="24" key="48" vol="195" pos="120" pan="0"/>
          <note len="24" key="50" vol="195" pos="144" pan="0"/>
          <note len="24" key="48" vol="195" pos="168" pan="0"/>
          <note len="12" key="43" vol="195" pos="192" pan="0"/>
          <note len="12" key="43" vol="195" pos="204" pan="0"/>
          <note len="12" key="43" vol="195" pos="216" pan="0"/>
          <note len="12" key="43" vol="195" pos="228" pan="0"/>
          <note len="12" key="43" vol="195" pos="240" pan="0"/>
          <note len="12" key="43" vol="195" pos="252" pan="0"/>
          <note len="12" key="43" vol="195" pos="264" pan="0"/>
          <note len="12" key="43" vol="195" pos="276" pan="0"/>
          <note len="12" key="43" vol="195" pos="288" pan="0"/>
          <note len="12" key="43" vol="195" pos="300" pan="0"/>
          <note len="12" key="43" vol="195" pos="312" pan="0"/>
          <note len="12" key="43" vol="195" pos="324" pan="0"/>
          <note len="12" key="43" vol="195" pos="336" pan="0"/>
          <note len="12" key="43" vol="195" pos="348" pan="0"/>
          <note len="12" key="43" vol="195" pos="360" pan="0"/>
          <note len="12" key="43" vol="195" pos="372" pan="0"/>
        </pattern>
        <pattern muted="0" name="bass fender jazz (1,379kb)" pos="12288" type="1" steps="16">
          <note len="24" key="52" vol="197" pos="0" pan="0"/>
          <note len="12" key="40" vol="197" pos="24" pan="0"/>
          <note len="12" key="40" vol="197" pos="36" pan="0"/>
          <note len="12" key="40" vol="197" pos="48" pan="0"/>
          <note len="12" key="40" vol="197" pos="60" pan="0"/>
          <note len="12" key="40" vol="197" pos="72" pan="0"/>
          <note len="12" key="40" vol="197" pos="84" pan="0"/>
          <note len="12" key="40" vol="197" pos="96" pan="0"/>
          <note len="12" key="40" vol="197" pos="108" pan="0"/>
          <note len="12" key="42" vol="197" pos="120" pan="0"/>
          <note len="12" key="43" vol="197" pos="132" pan="0"/>
          <note len="12" key="40" vol="197" pos="144" pan="0"/>
          <note len="12" key="40" vol="197" pos="156" pan="0"/>
          <note len="12" key="40" vol="197" pos="168" pan="0"/>
          <note len="12" key="40" vol="197" pos="180" pan="0"/>
        </pattern>
        <pattern muted="0" name="bass fender jazz (1,379kb)" pos="12480" type="1" steps="16">
          <note len="24" key="52" vol="197" pos="0" pan="0"/>
          <note len="12" key="40" vol="197" pos="24" pan="0"/>
          <note len="12" key="40" vol="197" pos="36" pan="0"/>
          <note len="12" key="40" vol="197" pos="48" pan="0"/>
          <note len="12" key="40" vol="197" pos="60" pan="0"/>
          <note len="12" key="40" vol="197" pos="72" pan="0"/>
          <note len="12" key="40" vol="197" pos="84" pan="0"/>
          <note len="12" key="40" vol="197" pos="96" pan="0"/>
          <note len="12" key="40" vol="197" pos="108" pan="0"/>
          <note len="12" key="42" vol="197" pos="120" pan="0"/>
          <note len="12" key="43" vol="197" pos="132" pan="0"/>
          <note len="12" key="40" vol="197" pos="144" pan="0"/>
          <note len="12" key="40" vol="197" pos="156" pan="0"/>
          <note len="12" key="40" vol="197" pos="168" pan="0"/>
          <note len="12" key="40" vol="197" pos="180" pan="0"/>
        </pattern>
        <pattern muted="0" name="bass fender jazz (1,379kb)" pos="12672" type="1" steps="16">
          <note len="24" key="43" vol="197" pos="0" pan="0"/>
          <note len="24" key="43" vol="197" pos="24" pan="0"/>
          <note len="24" key="43" vol="197" pos="48" pan="0"/>
          <note len="48" key="43" vol="197" pos="72" pan="0"/>
          <note len="24" key="43" vol="197" pos="120" pan="0"/>
          <note len="24" key="43" vol="197" pos="144" pan="0"/>
          <note len="48" key="43" vol="197" pos="168" pan="0"/>
          <note len="24" key="43" vol="197" pos="216" pan="0"/>
          <note len="24" key="45" vol="197" pos="240" pan="0"/>
          <note len="24" key="43" vol="197" pos="264" pan="0"/>
          <note len="24" key="45" vol="197" pos="288" pan="0"/>
          <note len="24" key="47" vol="197" pos="312" pan="0"/>
          <note len="24" key="45" vol="197" pos="336" pan="0"/>
          <note len="24" key="43" vol="197" pos="360" pan="0"/>
        </pattern>
        <pattern muted="0" name="bass fender jazz (1,379kb)" pos="13056" type="1" steps="16">
          <note len="12" key="48" vol="195" pos="0" pan="0"/>
          <note len="12" key="48" vol="195" pos="12" pan="0"/>
          <note len="12" key="48" vol="195" pos="24" pan="0"/>
          <note len="12" key="48" vol="195" pos="36" pan="0"/>
          <note len="12" key="48" vol="195" pos="48" pan="0"/>
          <note len="12" key="48" vol="195" pos="60" pan="0"/>
          <note len="12" key="48" vol="195" pos="72" pan="0"/>
          <note len="12" key="48" vol="195" pos="84" pan="0"/>
          <note len="12" key="48" vol="195" pos="96" pan="0"/>
          <note len="12" key="48" vol="195" pos="108" pan="0"/>
          <note len="12" key="48" vol="195" pos="120" pan="0"/>
          <note len="12" key="48" vol="195" pos="132" pan="0"/>
          <note len="12" key="48" vol="195" pos="144" pan="0"/>
          <note len="12" key="48" vol="195" pos="156" pan="0"/>
          <note len="12" key="48" vol="195" pos="168" pan="0"/>
          <note len="12" key="48" vol="195" pos="180" pan="0"/>
        </pattern>
        <pattern muted="0" name="bass fender jazz (1,379kb)" pos="13440" type="1" steps="16">
          <note len="12" key="43" vol="197" pos="0" pan="0"/>
          <note len="12" key="43" vol="197" pos="12" pan="0"/>
          <note len="12" key="43" vol="197" pos="24" pan="0"/>
          <note len="12" key="43" vol="197" pos="36" pan="0"/>
          <note len="12" key="43" vol="197" pos="48" pan="0"/>
          <note len="12" key="43" vol="197" pos="60" pan="0"/>
          <note len="12" key="43" vol="197" pos="72" pan="0"/>
          <note len="12" key="43" vol="197" pos="84" pan="0"/>
          <note len="12" key="43" vol="197" pos="96" pan="0"/>
          <note len="12" key="43" vol="197" pos="108" pan="0"/>
          <note len="12" key="43" vol="197" pos="120" pan="0"/>
          <note len="12" key="43" vol="197" pos="132" pan="0"/>
          <note len="12" key="43" vol="197" pos="144" pan="0"/>
          <note len="12" key="43" vol="197" pos="156" pan="0"/>
          <note len="12" key="43" vol="197" pos="168" pan="0"/>
          <note len="12" key="43" vol="197" pos="180" pan="0"/>
          <note len="12" key="50" vol="197" pos="192" pan="0"/>
          <note len="12" key="50" vol="197" pos="204" pan="0"/>
          <note len="12" key="50" vol="197" pos="216" pan="0"/>
          <note len="12" key="50" vol="197" pos="228" pan="0"/>
          <note len="12" key="50" vol="197" pos="240" pan="0"/>
          <note len="12" key="50" vol="197" pos="252" pan="0"/>
          <note len="12" key="50" vol="197" pos="264" pan="0"/>
          <note len="12" key="50" vol="197" pos="276" pan="0"/>
          <note len="12" key="50" vol="197" pos="288" pan="0"/>
          <note len="12" key="50" vol="197" pos="300" pan="0"/>
          <note len="12" key="50" vol="197" pos="312" pan="0"/>
          <note len="12" key="50" vol="197" pos="324" pan="0"/>
          <note len="48" key="50" vol="197" pos="336" pan="0"/>
        </pattern>
        <pattern muted="0" name="bass fender jazz (1,379kb)" pos="13248" type="1" steps="16">
          <note len="12" key="48" vol="195" pos="0" pan="0"/>
          <note len="12" key="48" vol="195" pos="12" pan="0"/>
          <note len="12" key="48" vol="195" pos="24" pan="0"/>
          <note len="12" key="48" vol="195" pos="36" pan="0"/>
          <note len="12" key="48" vol="195" pos="48" pan="0"/>
          <note len="12" key="48" vol="195" pos="60" pan="0"/>
          <note len="12" key="48" vol="195" pos="72" pan="0"/>
          <note len="12" key="48" vol="195" pos="84" pan="0"/>
          <note len="12" key="48" vol="195" pos="96" pan="0"/>
          <note len="12" key="48" vol="195" pos="108" pan="0"/>
          <note len="12" key="48" vol="195" pos="120" pan="0"/>
          <note len="12" key="48" vol="195" pos="132" pan="0"/>
          <note len="12" key="48" vol="195" pos="144" pan="0"/>
          <note len="12" key="48" vol="195" pos="156" pan="0"/>
          <note len="12" key="48" vol="195" pos="168" pan="0"/>
          <note len="12" key="48" vol="195" pos="180" pan="0"/>
        </pattern>
        <pattern muted="0" name="bass fender jazz (1,379kb)" pos="13824" type="1" steps="16">
          <note len="24" key="40" vol="197" pos="0" pan="0"/>
          <note len="24" key="40" vol="197" pos="24" pan="0"/>
          <note len="48" key="40" vol="197" pos="192" pan="0"/>
          <note len="24" key="40" vol="197" pos="240" pan="0"/>
          <note len="48" key="38" vol="197" pos="264" pan="0"/>
          <note len="24" key="38" vol="197" pos="312" pan="0"/>
          <note len="48" key="40" vol="197" pos="336" pan="0"/>
        </pattern>
        <pattern muted="0" name="bass fender jazz (1,379kb)" pos="14208" type="1" steps="16">
          <note len="24" key="40" vol="197" pos="0" pan="0"/>
          <note len="24" key="40" vol="197" pos="24" pan="0"/>
          <note len="48" key="40" vol="197" pos="48" pan="0"/>
          <note len="48" key="36" vol="197" pos="96" pan="0"/>
          <note len="48" key="35" vol="197" pos="144" pan="0"/>
          <note len="24" key="40" vol="197" pos="192" pan="0"/>
          <note len="12" key="40" vol="197" pos="216" pan="0"/>
          <note len="12" key="40" vol="197" pos="228" pan="0"/>
          <note len="12" key="40" vol="197" pos="240" pan="0"/>
          <note len="12" key="40" vol="197" pos="252" pan="0"/>
          <note len="24" key="38" vol="197" pos="264" pan="0"/>
          <note len="12" key="38" vol="197" pos="288" pan="0"/>
          <note len="12" key="38" vol="197" pos="300" pan="0"/>
          <note len="12" key="38" vol="197" pos="312" pan="0"/>
          <note len="12" key="38" vol="197" pos="324" pan="0"/>
          <note len="24" key="40" vol="197" pos="336" pan="0"/>
          <note len="24" key="43" vol="197" pos="360" pan="0"/>
        </pattern>
        <pattern muted="0" name="bass fender jazz (1,379kb)" pos="14592" type="1" steps="16">
          <note len="24" key="40" vol="197" pos="0" pan="0"/>
          <note len="24" key="40" vol="197" pos="24" pan="0"/>
          <note len="48" key="40" vol="197" pos="48" pan="0"/>
          <note len="48" key="36" vol="197" pos="96" pan="0"/>
          <note len="48" key="35" vol="197" pos="144" pan="0"/>
          <note len="24" key="40" vol="197" pos="192" pan="0"/>
          <note len="12" key="40" vol="197" pos="216" pan="0"/>
          <note len="12" key="40" vol="197" pos="228" pan="0"/>
          <note len="12" key="40" vol="197" pos="240" pan="0"/>
          <note len="12" key="40" vol="197" pos="252" pan="0"/>
          <note len="24" key="38" vol="197" pos="264" pan="0"/>
          <note len="12" key="38" vol="197" pos="288" pan="0"/>
          <note len="12" key="38" vol="197" pos="300" pan="0"/>
          <note len="12" key="38" vol="197" pos="312" pan="0"/>
          <note len="12" key="38" vol="197" pos="324" pan="0"/>
          <note len="24" key="43" vol="197" pos="336" pan="0"/>
          <note len="24" key="47" vol="197" pos="360" pan="0"/>
        </pattern>
        <pattern muted="0" name="bass fender jazz (1,379kb)" pos="14976" type="1" steps="16">
          <note len="12" key="42" vol="197" pos="0" pan="0"/>
          <note len="12" key="43" vol="197" pos="12" pan="0"/>
          <note len="12" key="45" vol="197" pos="24" pan="0"/>
          <note len="12" key="47" vol="197" pos="36" pan="0"/>
          <note len="12" key="48" vol="197" pos="48" pan="0"/>
          <note len="12" key="47" vol="197" pos="60" pan="0"/>
          <note len="12" key="48" vol="197" pos="72" pan="0"/>
          <note len="12" key="50" vol="197" pos="84" pan="0"/>
          <note len="12" key="55" vol="197" pos="96" pan="0"/>
          <note len="12" key="54" vol="197" pos="108" pan="0"/>
          <note len="12" key="52" vol="197" pos="120" pan="0"/>
          <note len="12" key="50" vol="197" pos="132" pan="0"/>
          <note len="12" key="48" vol="197" pos="144" pan="0"/>
          <note len="12" key="47" vol="197" pos="156" pan="0"/>
          <note len="12" key="48" vol="197" pos="168" pan="0"/>
          <note len="12" key="47" vol="197" pos="180" pan="0"/>
          <note len="24" key="50" vol="197" pos="192" pan="0"/>
          <note len="12" key="50" vol="197" pos="216" pan="0"/>
          <note len="12" key="50" vol="197" pos="228" pan="0"/>
          <note len="12" key="50" vol="197" pos="240" pan="0"/>
          <note len="12" key="50" vol="197" pos="252" pan="0"/>
          <note len="24" key="50" vol="197" pos="264" pan="0"/>
          <note len="12" key="50" vol="197" pos="288" pan="0"/>
          <note len="12" key="50" vol="197" pos="300" pan="0"/>
          <note len="12" key="50" vol="197" pos="312" pan="0"/>
          <note len="12" key="50" vol="197" pos="324" pan="0"/>
          <note len="24" key="50" vol="197" pos="336" pan="0"/>
          <note len="12" key="50" vol="197" pos="360" pan="0"/>
          <note len="12" key="50" vol="197" pos="372" pan="0"/>
        </pattern>
        <pattern muted="0" name="bass fender jazz (1,379kb)" pos="16128" type="1" steps="16">
          <note len="24" key="40" vol="199" pos="192" pan="0"/>
          <note len="12" key="40" vol="199" pos="216" pan="0"/>
          <note len="12" key="40" vol="199" pos="228" pan="0"/>
          <note len="12" key="40" vol="199" pos="240" pan="0"/>
          <note len="12" key="40" vol="199" pos="252" pan="0"/>
          <note len="24" key="38" vol="199" pos="264" pan="0"/>
          <note len="12" key="38" vol="199" pos="288" pan="0"/>
          <note len="12" key="38" vol="199" pos="300" pan="0"/>
          <note len="12" key="38" vol="199" pos="312" pan="0"/>
          <note len="12" key="38" vol="199" pos="324" pan="0"/>
          <note len="24" key="43" vol="199" pos="336" pan="0"/>
          <note len="24" key="47" vol="199" pos="360" pan="0"/>
        </pattern>
        <pattern muted="0" name="bass fender jazz (1,379kb)" pos="16512" type="1" steps="16">
          <note len="12" key="48" vol="199" pos="0" pan="0"/>
          <note len="12" key="48" vol="199" pos="12" pan="0"/>
          <note len="12" key="48" vol="199" pos="24" pan="0"/>
          <note len="12" key="48" vol="199" pos="36" pan="0"/>
          <note len="12" key="48" vol="199" pos="48" pan="0"/>
          <note len="12" key="48" vol="199" pos="60" pan="0"/>
          <note len="12" key="48" vol="199" pos="72" pan="0"/>
          <note len="12" key="48" vol="199" pos="84" pan="0"/>
          <note len="12" key="48" vol="199" pos="96" pan="0"/>
          <note len="12" key="48" vol="199" pos="108" pan="0"/>
          <note len="12" key="48" vol="199" pos="120" pan="0"/>
          <note len="12" key="48" vol="199" pos="132" pan="0"/>
          <note len="12" key="48" vol="199" pos="144" pan="0"/>
          <note len="12" key="48" vol="199" pos="156" pan="0"/>
          <note len="12" key="48" vol="199" pos="168" pan="0"/>
          <note len="12" key="48" vol="199" pos="180" pan="0"/>
          <note len="12" key="50" vol="199" pos="192" pan="0"/>
          <note len="12" key="50" vol="199" pos="204" pan="0"/>
          <note len="12" key="50" vol="199" pos="216" pan="0"/>
          <note len="12" key="50" vol="199" pos="228" pan="0"/>
          <note len="12" key="50" vol="199" pos="240" pan="0"/>
          <note len="12" key="50" vol="199" pos="252" pan="0"/>
          <note len="12" key="50" vol="199" pos="264" pan="0"/>
          <note len="12" key="50" vol="199" pos="276" pan="0"/>
          <note len="12" key="50" vol="199" pos="288" pan="0"/>
          <note len="12" key="50" vol="199" pos="300" pan="0"/>
          <note len="12" key="50" vol="199" pos="312" pan="0"/>
          <note len="12" key="50" vol="199" pos="324" pan="0"/>
          <note len="12" key="50" vol="199" pos="336" pan="0"/>
          <note len="12" key="50" vol="199" pos="348" pan="0"/>
          <note len="12" key="50" vol="199" pos="360" pan="0"/>
          <note len="12" key="50" vol="199" pos="372" pan="0"/>
        </pattern>
        <pattern muted="0" name="bass fender jazz (1,379kb)" pos="16896" type="1" steps="16">
          <note len="192" key="36" vol="199" pos="0" pan="0"/>
          <note len="192" key="43" vol="199" pos="192" pan="0"/>
          <note len="192" key="50" vol="199" pos="384" pan="0"/>
          <note len="192" key="40" vol="199" pos="576" pan="0"/>
        </pattern>
        <pattern muted="0" name="bass fender jazz (1,379kb)" pos="19968" type="1" steps="16">
          <note len="384" key="43" vol="197" pos="0" pan="0"/>
          <note len="384" key="38" vol="197" pos="384" pan="0"/>
          <note len="192" key="40" vol="197" pos="768" pan="0"/>
          <note len="192" key="38" vol="197" pos="960" pan="0"/>
          <note len="192" key="36" vol="197" pos="1152" pan="0"/>
          <note len="192" key="38" vol="197" pos="1344" pan="0"/>
        </pattern>
        <pattern muted="0" name="bass fender jazz (1,379kb)" pos="17664" type="1" steps="16">
          <note len="24" key="48" vol="199" pos="0" pan="0"/>
          <note len="12" key="48" vol="199" pos="24" pan="0"/>
          <note len="12" key="48" vol="199" pos="36" pan="0"/>
          <note len="12" key="48" vol="199" pos="48" pan="0"/>
          <note len="12" key="48" vol="199" pos="60" pan="0"/>
          <note len="12" key="48" vol="199" pos="72" pan="0"/>
          <note len="12" key="48" vol="199" pos="84" pan="0"/>
          <note len="24" key="48" vol="199" pos="96" pan="0"/>
          <note len="12" key="48" vol="199" pos="120" pan="0"/>
          <note len="12" key="48" vol="199" pos="132" pan="0"/>
          <note len="24" key="48" vol="199" pos="144" pan="0"/>
          <note len="12" key="48" vol="199" pos="168" pan="0"/>
          <note len="12" key="48" vol="199" pos="180" pan="0"/>
          <note len="24" key="43" vol="199" pos="192" pan="0"/>
          <note len="12" key="43" vol="199" pos="216" pan="0"/>
          <note len="12" key="43" vol="199" pos="228" pan="0"/>
          <note len="12" key="43" vol="199" pos="240" pan="0"/>
          <note len="12" key="43" vol="199" pos="252" pan="0"/>
          <note len="12" key="43" vol="199" pos="264" pan="0"/>
          <note len="12" key="43" vol="199" pos="276" pan="0"/>
          <note len="24" key="43" vol="199" pos="288" pan="0"/>
          <note len="12" key="43" vol="199" pos="312" pan="0"/>
          <note len="12" key="43" vol="199" pos="324" pan="0"/>
          <note len="24" key="43" vol="199" pos="336" pan="0"/>
          <note len="12" key="43" vol="199" pos="360" pan="0"/>
          <note len="12" key="43" vol="199" pos="372" pan="0"/>
          <note len="12" key="50" vol="199" pos="384" pan="0"/>
          <note len="12" key="50" vol="199" pos="396" pan="0"/>
          <note len="12" key="50" vol="199" pos="408" pan="0"/>
          <note len="12" key="50" vol="199" pos="420" pan="0"/>
          <note len="12" key="50" vol="199" pos="432" pan="0"/>
          <note len="12" key="50" vol="199" pos="444" pan="0"/>
          <note len="12" key="50" vol="199" pos="456" pan="0"/>
          <note len="12" key="50" vol="199" pos="468" pan="0"/>
          <note len="12" key="50" vol="199" pos="480" pan="0"/>
          <note len="12" key="50" vol="199" pos="492" pan="0"/>
          <note len="12" key="50" vol="199" pos="504" pan="0"/>
          <note len="12" key="50" vol="199" pos="516" pan="0"/>
          <note len="12" key="50" vol="199" pos="528" pan="0"/>
          <note len="12" key="50" vol="199" pos="540" pan="0"/>
          <note len="12" key="50" vol="199" pos="552" pan="0"/>
          <note len="12" key="50" vol="199" pos="564" pan="0"/>
          <note len="12" key="50" vol="199" pos="576" pan="0"/>
          <note len="12" key="48" vol="199" pos="588" pan="0"/>
          <note len="12" key="47" vol="199" pos="600" pan="0"/>
          <note len="12" key="45" vol="199" pos="612" pan="0"/>
          <note len="12" key="48" vol="199" pos="624" pan="0"/>
          <note len="12" key="47" vol="199" pos="636" pan="0"/>
          <note len="12" key="45" vol="199" pos="648" pan="0"/>
          <note len="12" key="43" vol="199" pos="660" pan="0"/>
          <note len="12" key="45" vol="199" pos="672" pan="0"/>
          <note len="12" key="43" vol="199" pos="684" pan="0"/>
          <note len="12" key="42" vol="199" pos="696" pan="0"/>
          <note len="12" key="40" vol="199" pos="708" pan="0"/>
          <note len="12" key="42" vol="199" pos="720" pan="0"/>
          <note len="12" key="43" vol="199" pos="732" pan="0"/>
          <note len="12" key="45" vol="199" pos="744" pan="0"/>
          <note len="12" key="47" vol="199" pos="756" pan="0"/>
        </pattern>
        <pattern muted="0" name="bass fender jazz (1,379kb)" pos="21504" type="1" steps="16">
          <note len="24" key="40" vol="191" pos="0" pan="0"/>
          <note len="48" key="40" vol="191" pos="24" pan="0"/>
        </pattern>
        <pattern muted="0" name="bass fender jazz (1,379kb)" pos="21888" type="1" steps="16">
          <note len="24" key="40" vol="191" pos="0" pan="0"/>
          <note len="48" key="40" vol="191" pos="24" pan="0"/>
        </pattern>
        <pattern muted="0" name="bass fender jazz (1,379kb)" pos="22272" type="1" steps="16">
          <note len="384" key="40" vol="191" pos="0" pan="0"/>
        </pattern>
        <pattern muted="0" name="bass fender jazz (1,379kb)" pos="23040" type="1" steps="16">
          <note len="24" key="40" vol="197" pos="0" pan="0"/>
          <note len="24" key="40" vol="197" pos="24" pan="0"/>
          <note len="24" key="40" vol="197" pos="48" pan="0"/>
          <note len="24" key="40" vol="197" pos="72" pan="0"/>
          <note len="24" key="47" vol="197" pos="96" pan="0"/>
          <note len="24" key="40" vol="197" pos="120" pan="0"/>
          <note len="24" key="40" vol="197" pos="144" pan="0"/>
          <note len="24" key="40" vol="197" pos="168" pan="0"/>
          <note len="24" key="40" vol="197" pos="192" pan="0"/>
          <note len="24" key="47" vol="197" pos="216" pan="0"/>
          <note len="24" key="45" vol="197" pos="240" pan="0"/>
          <note len="24" key="47" vol="197" pos="264" pan="0"/>
          <note len="24" key="43" vol="197" pos="288" pan="0"/>
          <note len="24" key="50" vol="197" pos="312" pan="0"/>
          <note len="24" key="45" vol="197" pos="336" pan="0"/>
          <note len="24" key="47" vol="197" pos="360" pan="0"/>
        </pattern>
        <pattern muted="0" name="bass fender jazz (1,379kb)" pos="23424" type="1" steps="16">
          <note len="24" key="40" vol="197" pos="0" pan="0"/>
          <note len="24" key="40" vol="197" pos="24" pan="0"/>
          <note len="24" key="40" vol="197" pos="48" pan="0"/>
          <note len="24" key="40" vol="197" pos="72" pan="0"/>
          <note len="24" key="47" vol="197" pos="96" pan="0"/>
          <note len="24" key="40" vol="197" pos="120" pan="0"/>
          <note len="24" key="40" vol="197" pos="144" pan="0"/>
          <note len="24" key="40" vol="197" pos="168" pan="0"/>
          <note len="24" key="40" vol="197" pos="192" pan="0"/>
          <note len="24" key="47" vol="197" pos="216" pan="0"/>
          <note len="24" key="45" vol="197" pos="240" pan="0"/>
          <note len="24" key="47" vol="197" pos="264" pan="0"/>
          <note len="24" key="43" vol="197" pos="288" pan="0"/>
          <note len="24" key="50" vol="197" pos="312" pan="0"/>
          <note len="24" key="45" vol="197" pos="336" pan="0"/>
          <note len="24" key="47" vol="197" pos="360" pan="0"/>
        </pattern>
        <pattern muted="0" name="bass fender jazz (1,379kb)" pos="23808" type="1" steps="16">
          <note len="24" key="40" vol="197" pos="0" pan="0"/>
          <note len="24" key="40" vol="197" pos="24" pan="0"/>
          <note len="24" key="40" vol="197" pos="48" pan="0"/>
          <note len="24" key="40" vol="197" pos="72" pan="0"/>
          <note len="24" key="47" vol="197" pos="96" pan="0"/>
          <note len="24" key="40" vol="197" pos="120" pan="0"/>
          <note len="24" key="40" vol="197" pos="144" pan="0"/>
          <note len="24" key="40" vol="197" pos="168" pan="0"/>
          <note len="24" key="40" vol="197" pos="192" pan="0"/>
          <note len="24" key="47" vol="197" pos="216" pan="0"/>
          <note len="24" key="45" vol="197" pos="240" pan="0"/>
          <note len="24" key="47" vol="197" pos="264" pan="0"/>
          <note len="24" key="43" vol="197" pos="288" pan="0"/>
          <note len="24" key="50" vol="197" pos="312" pan="0"/>
          <note len="24" key="45" vol="197" pos="336" pan="0"/>
          <note len="24" key="47" vol="197" pos="360" pan="0"/>
        </pattern>
        <pattern muted="0" name="bass fender jazz (1,379kb)" pos="24192" type="1" steps="16">
          <note len="192" key="48" vol="197" pos="0" pan="0"/>
          <note len="96" key="43" vol="197" pos="192" pan="0"/>
          <note len="96" key="47" vol="197" pos="288" pan="0"/>
        </pattern>
        <pattern muted="0" name="bass fender jazz (1,379kb)" pos="24576" type="1" steps="16">
          <note len="24" key="40" vol="197" pos="0" pan="0"/>
          <note len="24" key="40" vol="197" pos="24" pan="0"/>
          <note len="24" key="40" vol="197" pos="48" pan="0"/>
          <note len="24" key="40" vol="197" pos="72" pan="0"/>
          <note len="24" key="47" vol="197" pos="96" pan="0"/>
          <note len="24" key="40" vol="197" pos="120" pan="0"/>
          <note len="24" key="40" vol="197" pos="144" pan="0"/>
          <note len="24" key="40" vol="197" pos="168" pan="0"/>
          <note len="24" key="40" vol="197" pos="192" pan="0"/>
          <note len="24" key="47" vol="197" pos="216" pan="0"/>
          <note len="24" key="45" vol="197" pos="240" pan="0"/>
          <note len="24" key="47" vol="197" pos="264" pan="0"/>
          <note len="24" key="43" vol="197" pos="288" pan="0"/>
          <note len="24" key="50" vol="197" pos="312" pan="0"/>
          <note len="24" key="45" vol="197" pos="336" pan="0"/>
          <note len="24" key="47" vol="197" pos="360" pan="0"/>
        </pattern>
        <pattern muted="0" name="bass fender jazz (1,379kb)" pos="24960" type="1" steps="16">
          <note len="24" key="40" vol="197" pos="0" pan="0"/>
          <note len="24" key="40" vol="197" pos="24" pan="0"/>
          <note len="24" key="40" vol="197" pos="48" pan="0"/>
          <note len="24" key="40" vol="197" pos="72" pan="0"/>
          <note len="24" key="47" vol="197" pos="96" pan="0"/>
          <note len="24" key="40" vol="197" pos="120" pan="0"/>
          <note len="24" key="40" vol="197" pos="144" pan="0"/>
          <note len="24" key="40" vol="197" pos="168" pan="0"/>
          <note len="24" key="40" vol="197" pos="192" pan="0"/>
          <note len="24" key="47" vol="197" pos="216" pan="0"/>
          <note len="24" key="45" vol="197" pos="240" pan="0"/>
          <note len="24" key="47" vol="197" pos="264" pan="0"/>
          <note len="24" key="43" vol="197" pos="288" pan="0"/>
          <note len="24" key="50" vol="197" pos="312" pan="0"/>
          <note len="24" key="45" vol="197" pos="336" pan="0"/>
          <note len="24" key="47" vol="197" pos="360" pan="0"/>
        </pattern>
        <pattern muted="0" name="bass fender jazz (1,379kb)" pos="25344" type="1" steps="16">
          <note len="24" key="40" vol="197" pos="0" pan="0"/>
          <note len="24" key="40" vol="197" pos="24" pan="0"/>
          <note len="24" key="40" vol="197" pos="48" pan="0"/>
          <note len="24" key="40" vol="197" pos="72" pan="0"/>
          <note len="24" key="47" vol="197" pos="96" pan="0"/>
          <note len="24" key="40" vol="197" pos="120" pan="0"/>
          <note len="24" key="40" vol="197" pos="144" pan="0"/>
          <note len="24" key="40" vol="197" pos="168" pan="0"/>
          <note len="24" key="40" vol="197" pos="192" pan="0"/>
          <note len="24" key="47" vol="197" pos="216" pan="0"/>
          <note len="24" key="45" vol="197" pos="240" pan="0"/>
          <note len="24" key="47" vol="197" pos="264" pan="0"/>
          <note len="24" key="43" vol="197" pos="288" pan="0"/>
          <note len="24" key="50" vol="197" pos="312" pan="0"/>
          <note len="24" key="45" vol="197" pos="336" pan="0"/>
          <note len="24" key="47" vol="197" pos="360" pan="0"/>
        </pattern>
        <pattern muted="0" name="bass fender jazz (1,379kb)" pos="25728" type="1" steps="16">
          <note len="24" key="48" vol="197" pos="0" pan="0"/>
          <note len="12" key="48" vol="197" pos="24" pan="0"/>
          <note len="12" key="48" vol="197" pos="36" pan="0"/>
          <note len="12" key="48" vol="197" pos="48" pan="0"/>
          <note len="12" key="48" vol="197" pos="60" pan="0"/>
          <note len="12" key="48" vol="197" pos="72" pan="0"/>
          <note len="12" key="48" vol="197" pos="84" pan="0"/>
          <note len="12" key="48" vol="197" pos="96" pan="0"/>
          <note len="12" key="48" vol="197" pos="108" pan="0"/>
          <note len="12" key="48" vol="197" pos="120" pan="0"/>
          <note len="12" key="48" vol="197" pos="132" pan="0"/>
          <note len="12" key="48" vol="197" pos="144" pan="0"/>
          <note len="12" key="48" vol="197" pos="156" pan="0"/>
          <note len="12" key="48" vol="197" pos="168" pan="0"/>
          <note len="12" key="48" vol="197" pos="180" pan="0"/>
          <note len="24" key="50" vol="197" pos="192" pan="0"/>
          <note len="12" key="50" vol="197" pos="216" pan="0"/>
          <note len="12" key="50" vol="197" pos="228" pan="0"/>
          <note len="12" key="50" vol="197" pos="240" pan="0"/>
          <note len="12" key="50" vol="197" pos="252" pan="0"/>
          <note len="12" key="50" vol="197" pos="264" pan="0"/>
          <note len="12" key="50" vol="197" pos="276" pan="0"/>
          <note len="12" key="50" vol="197" pos="288" pan="0"/>
          <note len="12" key="50" vol="197" pos="300" pan="0"/>
          <note len="12" key="50" vol="197" pos="312" pan="0"/>
          <note len="12" key="50" vol="197" pos="324" pan="0"/>
          <note len="12" key="50" vol="197" pos="336" pan="0"/>
          <note len="12" key="50" vol="197" pos="348" pan="0"/>
          <note len="12" key="50" vol="197" pos="360" pan="0"/>
          <note len="12" key="50" vol="197" pos="372" pan="0"/>
        </pattern>
        <pattern muted="0" name="bass fender jazz (1,379kb)" pos="18432" type="1" steps="16">
          <note len="384" key="43" vol="197" pos="0" pan="0"/>
          <note len="384" key="38" vol="197" pos="384" pan="0"/>
          <note len="192" key="40" vol="197" pos="768" pan="0"/>
          <note len="192" key="38" vol="197" pos="960" pan="0"/>
          <note len="192" key="36" vol="197" pos="1152" pan="0"/>
          <note len="192" key="38" vol="197" pos="1344" pan="0"/>
        </pattern>
        <pattern muted="0" name="bass fender jazz (1,379kb)" pos="22656" type="1" steps="16">
          <note len="192" key="48" vol="191" pos="0" pan="0"/>
          <note len="192" key="50" vol="191" pos="192" pan="0"/>
        </pattern>
        <pattern muted="0" name="bass fender jazz (1,379kb)" pos="26112" type="1" steps="16">
          <note len="24" key="40" vol="199" pos="0" pan="0"/>
          <note len="12" key="40" vol="199" pos="24" pan="0"/>
          <note len="12" key="40" vol="199" pos="36" pan="0"/>
          <note len="12" key="40" vol="199" pos="48" pan="0"/>
          <note len="12" key="40" vol="199" pos="60" pan="0"/>
          <note len="12" key="40" vol="199" pos="72" pan="0"/>
          <note len="12" key="40" vol="199" pos="84" pan="0"/>
          <note len="12" key="40" vol="199" pos="96" pan="0"/>
          <note len="12" key="40" vol="199" pos="108" pan="0"/>
          <note len="24" key="40" vol="199" pos="120" pan="0"/>
          <note len="12" key="40" vol="199" pos="144" pan="0"/>
          <note len="12" key="40" vol="199" pos="156" pan="0"/>
          <note len="12" key="40" vol="199" pos="168" pan="0"/>
          <note len="12" key="40" vol="199" pos="180" pan="0"/>
          <note len="24" key="40" vol="199" pos="192" pan="0"/>
          <note len="12" key="40" vol="199" pos="216" pan="0"/>
          <note len="12" key="40" vol="199" pos="228" pan="0"/>
          <note len="24" key="40" vol="199" pos="240" pan="0"/>
          <note len="12" key="40" vol="199" pos="264" pan="0"/>
          <note len="12" key="40" vol="199" pos="276" pan="0"/>
          <note len="12" key="40" vol="199" pos="288" pan="0"/>
          <note len="12" key="40" vol="199" pos="300" pan="0"/>
          <note len="12" key="40" vol="199" pos="312" pan="0"/>
          <note len="12" key="40" vol="199" pos="324" pan="0"/>
          <note len="24" key="40" vol="199" pos="336" pan="0"/>
          <note len="12" key="40" vol="199" pos="360" pan="0"/>
          <note len="12" key="40" vol="199" pos="372" pan="0"/>
        </pattern>
        <pattern muted="0" name="bass fender jazz (1,379kb)" pos="26496" type="1" steps="16">
          <note len="24" key="40" vol="199" pos="0" pan="0"/>
          <note len="12" key="40" vol="199" pos="24" pan="0"/>
          <note len="12" key="40" vol="199" pos="36" pan="0"/>
          <note len="12" key="40" vol="199" pos="48" pan="0"/>
          <note len="12" key="40" vol="199" pos="60" pan="0"/>
          <note len="12" key="40" vol="199" pos="72" pan="0"/>
          <note len="12" key="40" vol="199" pos="84" pan="0"/>
          <note len="12" key="40" vol="199" pos="96" pan="0"/>
          <note len="12" key="40" vol="199" pos="108" pan="0"/>
          <note len="24" key="40" vol="199" pos="120" pan="0"/>
          <note len="12" key="40" vol="199" pos="144" pan="0"/>
          <note len="12" key="40" vol="199" pos="156" pan="0"/>
          <note len="12" key="40" vol="199" pos="168" pan="0"/>
          <note len="12" key="40" vol="199" pos="180" pan="0"/>
          <note len="24" key="40" vol="199" pos="192" pan="0"/>
          <note len="12" key="40" vol="199" pos="216" pan="0"/>
          <note len="12" key="40" vol="199" pos="228" pan="0"/>
          <note len="24" key="40" vol="199" pos="240" pan="0"/>
          <note len="12" key="40" vol="199" pos="264" pan="0"/>
          <note len="12" key="40" vol="199" pos="276" pan="0"/>
          <note len="12" key="40" vol="199" pos="288" pan="0"/>
          <note len="12" key="40" vol="199" pos="300" pan="0"/>
          <note len="12" key="40" vol="199" pos="312" pan="0"/>
          <note len="12" key="40" vol="199" pos="324" pan="0"/>
          <note len="24" key="40" vol="199" pos="336" pan="0"/>
          <note len="12" key="40" vol="199" pos="360" pan="0"/>
          <note len="12" key="40" vol="199" pos="372" pan="0"/>
        </pattern>
        <pattern muted="0" name="bass fender jazz (1,379kb)" pos="26880" type="1" steps="16">
          <note len="24" key="40" vol="199" pos="0" pan="0"/>
          <note len="12" key="40" vol="199" pos="24" pan="0"/>
          <note len="12" key="40" vol="199" pos="36" pan="0"/>
          <note len="12" key="40" vol="199" pos="48" pan="0"/>
          <note len="12" key="40" vol="199" pos="60" pan="0"/>
          <note len="12" key="40" vol="199" pos="72" pan="0"/>
          <note len="12" key="40" vol="199" pos="84" pan="0"/>
          <note len="12" key="40" vol="199" pos="96" pan="0"/>
          <note len="12" key="40" vol="199" pos="108" pan="0"/>
          <note len="24" key="40" vol="199" pos="120" pan="0"/>
          <note len="12" key="40" vol="199" pos="144" pan="0"/>
          <note len="12" key="40" vol="199" pos="156" pan="0"/>
          <note len="12" key="40" vol="199" pos="168" pan="0"/>
          <note len="12" key="40" vol="199" pos="180" pan="0"/>
          <note len="24" key="40" vol="199" pos="192" pan="0"/>
          <note len="12" key="40" vol="199" pos="216" pan="0"/>
          <note len="12" key="40" vol="199" pos="228" pan="0"/>
          <note len="24" key="40" vol="199" pos="240" pan="0"/>
          <note len="12" key="40" vol="199" pos="264" pan="0"/>
          <note len="12" key="40" vol="199" pos="276" pan="0"/>
          <note len="12" key="40" vol="199" pos="288" pan="0"/>
          <note len="12" key="40" vol="199" pos="300" pan="0"/>
          <note len="12" key="40" vol="199" pos="312" pan="0"/>
          <note len="12" key="40" vol="199" pos="324" pan="0"/>
          <note len="24" key="40" vol="199" pos="336" pan="0"/>
          <note len="12" key="40" vol="199" pos="360" pan="0"/>
          <note len="12" key="40" vol="199" pos="372" pan="0"/>
        </pattern>
        <pattern muted="0" name="bass fender jazz (1,379kb)" pos="27264" type="1" steps="16">
          <note len="24" key="48" vol="199" pos="0" pan="0"/>
          <note len="12" key="48" vol="199" pos="24" pan="0"/>
          <note len="12" key="48" vol="199" pos="36" pan="0"/>
          <note len="12" key="48" vol="199" pos="48" pan="0"/>
          <note len="12" key="48" vol="199" pos="60" pan="0"/>
          <note len="12" key="48" vol="199" pos="72" pan="0"/>
          <note len="12" key="48" vol="199" pos="84" pan="0"/>
          <note len="12" key="48" vol="199" pos="96" pan="0"/>
          <note len="12" key="48" vol="199" pos="108" pan="0"/>
          <note len="24" key="48" vol="199" pos="120" pan="0"/>
          <note len="12" key="48" vol="199" pos="144" pan="0"/>
          <note len="12" key="48" vol="199" pos="156" pan="0"/>
          <note len="12" key="48" vol="199" pos="168" pan="0"/>
          <note len="12" key="48" vol="199" pos="180" pan="0"/>
          <note len="24" key="50" vol="199" pos="192" pan="0"/>
          <note len="12" key="50" vol="199" pos="216" pan="0"/>
          <note len="12" key="50" vol="199" pos="228" pan="0"/>
          <note len="24" key="50" vol="199" pos="240" pan="0"/>
          <note len="12" key="50" vol="199" pos="264" pan="0"/>
          <note len="12" key="50" vol="199" pos="276" pan="0"/>
          <note len="12" key="50" vol="199" pos="288" pan="0"/>
          <note len="12" key="50" vol="199" pos="300" pan="0"/>
          <note len="12" key="50" vol="199" pos="312" pan="0"/>
          <note len="12" key="50" vol="199" pos="324" pan="0"/>
          <note len="24" key="50" vol="199" pos="336" pan="0"/>
          <note len="12" key="50" vol="199" pos="360" pan="0"/>
          <note len="12" key="50" vol="199" pos="372" pan="0"/>
        </pattern>
        <pattern muted="0" name="bass fender jazz (1,379kb)" pos="27648" type="1" steps="16">
          <note len="24" key="40" vol="199" pos="0" pan="0"/>
          <note len="12" key="40" vol="199" pos="24" pan="0"/>
          <note len="12" key="40" vol="199" pos="36" pan="0"/>
          <note len="12" key="40" vol="199" pos="48" pan="0"/>
          <note len="12" key="40" vol="199" pos="60" pan="0"/>
          <note len="12" key="40" vol="199" pos="72" pan="0"/>
          <note len="12" key="40" vol="199" pos="84" pan="0"/>
          <note len="12" key="40" vol="199" pos="96" pan="0"/>
          <note len="12" key="40" vol="199" pos="108" pan="0"/>
          <note len="24" key="40" vol="199" pos="120" pan="0"/>
          <note len="12" key="40" vol="199" pos="144" pan="0"/>
          <note len="12" key="40" vol="199" pos="156" pan="0"/>
          <note len="12" key="40" vol="199" pos="168" pan="0"/>
          <note len="12" key="40" vol="199" pos="180" pan="0"/>
          <note len="24" key="40" vol="199" pos="192" pan="0"/>
          <note len="12" key="40" vol="199" pos="216" pan="0"/>
          <note len="12" key="40" vol="199" pos="228" pan="0"/>
          <note len="24" key="40" vol="199" pos="240" pan="0"/>
          <note len="12" key="40" vol="199" pos="264" pan="0"/>
          <note len="12" key="40" vol="199" pos="276" pan="0"/>
          <note len="12" key="40" vol="199" pos="288" pan="0"/>
          <note len="12" key="40" vol="199" pos="300" pan="0"/>
          <note len="12" key="40" vol="199" pos="312" pan="0"/>
          <note len="12" key="40" vol="199" pos="324" pan="0"/>
          <note len="24" key="40" vol="199" pos="336" pan="0"/>
          <note len="12" key="40" vol="199" pos="360" pan="0"/>
          <note len="12" key="40" vol="199" pos="372" pan="0"/>
        </pattern>
        <pattern muted="0" name="bass fender jazz (1,379kb)" pos="28032" type="1" steps="16">
          <note len="24" key="40" vol="199" pos="0" pan="0"/>
          <note len="12" key="40" vol="199" pos="24" pan="0"/>
          <note len="12" key="40" vol="199" pos="36" pan="0"/>
          <note len="12" key="40" vol="199" pos="48" pan="0"/>
          <note len="12" key="40" vol="199" pos="60" pan="0"/>
          <note len="12" key="40" vol="199" pos="72" pan="0"/>
          <note len="12" key="40" vol="199" pos="84" pan="0"/>
          <note len="12" key="40" vol="199" pos="96" pan="0"/>
          <note len="12" key="40" vol="199" pos="108" pan="0"/>
          <note len="24" key="40" vol="199" pos="120" pan="0"/>
          <note len="12" key="40" vol="199" pos="144" pan="0"/>
          <note len="12" key="40" vol="199" pos="156" pan="0"/>
          <note len="12" key="40" vol="199" pos="168" pan="0"/>
          <note len="12" key="40" vol="199" pos="180" pan="0"/>
          <note len="24" key="40" vol="199" pos="192" pan="0"/>
          <note len="12" key="40" vol="199" pos="216" pan="0"/>
          <note len="12" key="40" vol="199" pos="228" pan="0"/>
          <note len="24" key="40" vol="199" pos="240" pan="0"/>
          <note len="12" key="40" vol="199" pos="264" pan="0"/>
          <note len="12" key="40" vol="199" pos="276" pan="0"/>
          <note len="12" key="40" vol="199" pos="288" pan="0"/>
          <note len="12" key="40" vol="199" pos="300" pan="0"/>
          <note len="12" key="40" vol="199" pos="312" pan="0"/>
          <note len="12" key="40" vol="199" pos="324" pan="0"/>
          <note len="24" key="40" vol="199" pos="336" pan="0"/>
          <note len="12" key="40" vol="199" pos="360" pan="0"/>
          <note len="12" key="40" vol="199" pos="372" pan="0"/>
        </pattern>
        <pattern muted="0" name="bass fender jazz (1,379kb)" pos="28416" type="1" steps="16">
          <note len="24" key="40" vol="199" pos="0" pan="0"/>
          <note len="12" key="40" vol="199" pos="24" pan="0"/>
          <note len="12" key="40" vol="199" pos="36" pan="0"/>
          <note len="12" key="40" vol="199" pos="48" pan="0"/>
          <note len="12" key="40" vol="199" pos="60" pan="0"/>
          <note len="12" key="40" vol="199" pos="72" pan="0"/>
          <note len="12" key="40" vol="199" pos="84" pan="0"/>
          <note len="12" key="40" vol="199" pos="96" pan="0"/>
          <note len="12" key="40" vol="199" pos="108" pan="0"/>
          <note len="24" key="40" vol="199" pos="120" pan="0"/>
          <note len="12" key="40" vol="199" pos="144" pan="0"/>
          <note len="12" key="40" vol="199" pos="156" pan="0"/>
          <note len="12" key="40" vol="199" pos="168" pan="0"/>
          <note len="12" key="40" vol="199" pos="180" pan="0"/>
          <note len="24" key="40" vol="199" pos="192" pan="0"/>
          <note len="12" key="40" vol="199" pos="216" pan="0"/>
          <note len="12" key="40" vol="199" pos="228" pan="0"/>
          <note len="24" key="40" vol="199" pos="240" pan="0"/>
          <note len="12" key="40" vol="199" pos="264" pan="0"/>
          <note len="12" key="40" vol="199" pos="276" pan="0"/>
          <note len="12" key="40" vol="199" pos="288" pan="0"/>
          <note len="12" key="40" vol="199" pos="300" pan="0"/>
          <note len="12" key="40" vol="199" pos="312" pan="0"/>
          <note len="12" key="40" vol="199" pos="324" pan="0"/>
          <note len="24" key="40" vol="199" pos="336" pan="0"/>
          <note len="12" key="40" vol="199" pos="360" pan="0"/>
          <note len="12" key="40" vol="199" pos="372" pan="0"/>
        </pattern>
        <pattern muted="0" name="bass fender jazz (1,379kb)" pos="28800" type="1" steps="16">
          <note len="24" key="48" vol="199" pos="0" pan="0"/>
          <note len="12" key="48" vol="199" pos="24" pan="0"/>
          <note len="12" key="48" vol="199" pos="36" pan="0"/>
          <note len="12" key="48" vol="199" pos="48" pan="0"/>
          <note len="12" key="48" vol="199" pos="60" pan="0"/>
          <note len="12" key="48" vol="199" pos="72" pan="0"/>
          <note len="12" key="48" vol="199" pos="84" pan="0"/>
          <note len="12" key="48" vol="199" pos="96" pan="0"/>
          <note len="12" key="48" vol="199" pos="108" pan="0"/>
          <note len="24" key="48" vol="199" pos="120" pan="0"/>
          <note len="12" key="48" vol="199" pos="144" pan="0"/>
          <note len="12" key="48" vol="199" pos="156" pan="0"/>
          <note len="12" key="48" vol="199" pos="168" pan="0"/>
          <note len="12" key="48" vol="199" pos="180" pan="0"/>
          <note len="24" key="50" vol="199" pos="192" pan="0"/>
          <note len="12" key="50" vol="199" pos="216" pan="0"/>
          <note len="12" key="50" vol="199" pos="228" pan="0"/>
          <note len="24" key="50" vol="199" pos="240" pan="0"/>
          <note len="12" key="50" vol="199" pos="264" pan="0"/>
          <note len="12" key="50" vol="199" pos="276" pan="0"/>
          <note len="12" key="50" vol="199" pos="288" pan="0"/>
          <note len="12" key="50" vol="199" pos="300" pan="0"/>
          <note len="12" key="50" vol="199" pos="312" pan="0"/>
          <note len="12" key="50" vol="199" pos="324" pan="0"/>
          <note len="24" key="50" vol="199" pos="336" pan="0"/>
          <note len="12" key="50" vol="199" pos="360" pan="0"/>
          <note len="12" key="50" vol="199" pos="372" pan="0"/>
        </pattern>
        <pattern muted="0" name="bass fender jazz (1,379kb)" pos="30720" type="1" steps="16">
          <note len="384" key="43" vol="197" pos="0" pan="0"/>
          <note len="384" key="38" vol="197" pos="384" pan="0"/>
          <note len="192" key="40" vol="197" pos="768" pan="0"/>
          <note len="192" key="38" vol="197" pos="960" pan="0"/>
          <note len="192" key="36" vol="197" pos="1152" pan="0"/>
          <note len="192" key="38" vol="197" pos="1344" pan="0"/>
        </pattern>
        <pattern muted="0" name="bass fender jazz (1,379kb)" pos="32256" type="1" steps="16">
          <note len="384" key="43" vol="197" pos="0" pan="0"/>
          <note len="384" key="38" vol="197" pos="384" pan="0"/>
          <note len="192" key="40" vol="197" pos="768" pan="0"/>
          <note len="192" key="38" vol="197" pos="960" pan="0"/>
          <note len="192" key="36" vol="197" pos="1152" pan="0"/>
          <note len="192" key="38" vol="197" pos="1344" pan="0"/>
        </pattern>
        <pattern muted="0" name="bass fender jazz (1,379kb)" pos="29184" type="1" steps="16">
          <note len="192" key="36" vol="199" pos="0" pan="0"/>
          <note len="192" key="43" vol="199" pos="192" pan="0"/>
          <note len="192" key="50" vol="199" pos="384" pan="0"/>
          <note len="192" key="40" vol="199" pos="576" pan="0"/>
        </pattern>
        <pattern muted="0" name="bass fender jazz (1,379kb)" pos="29952" type="1" steps="16">
          <note len="24" key="48" vol="199" pos="0" pan="0"/>
          <note len="12" key="48" vol="199" pos="24" pan="0"/>
          <note len="12" key="48" vol="199" pos="36" pan="0"/>
          <note len="12" key="48" vol="199" pos="48" pan="0"/>
          <note len="12" key="48" vol="199" pos="60" pan="0"/>
          <note len="12" key="48" vol="199" pos="72" pan="0"/>
          <note len="12" key="48" vol="199" pos="84" pan="0"/>
          <note len="24" key="48" vol="199" pos="96" pan="0"/>
          <note len="12" key="48" vol="199" pos="120" pan="0"/>
          <note len="12" key="48" vol="199" pos="132" pan="0"/>
          <note len="24" key="48" vol="199" pos="144" pan="0"/>
          <note len="12" key="48" vol="199" pos="168" pan="0"/>
          <note len="12" key="48" vol="199" pos="180" pan="0"/>
          <note len="24" key="43" vol="199" pos="192" pan="0"/>
          <note len="12" key="43" vol="199" pos="216" pan="0"/>
          <note len="12" key="43" vol="199" pos="228" pan="0"/>
          <note len="12" key="43" vol="199" pos="240" pan="0"/>
          <note len="12" key="43" vol="199" pos="252" pan="0"/>
          <note len="12" key="43" vol="199" pos="264" pan="0"/>
          <note len="12" key="43" vol="199" pos="276" pan="0"/>
          <note len="24" key="43" vol="199" pos="288" pan="0"/>
          <note len="12" key="43" vol="199" pos="312" pan="0"/>
          <note len="12" key="43" vol="199" pos="324" pan="0"/>
          <note len="24" key="43" vol="199" pos="336" pan="0"/>
          <note len="12" key="43" vol="199" pos="360" pan="0"/>
          <note len="12" key="43" vol="199" pos="372" pan="0"/>
          <note len="12" key="50" vol="199" pos="384" pan="0"/>
          <note len="12" key="50" vol="199" pos="396" pan="0"/>
          <note len="12" key="50" vol="199" pos="408" pan="0"/>
          <note len="12" key="50" vol="199" pos="420" pan="0"/>
          <note len="12" key="50" vol="199" pos="432" pan="0"/>
          <note len="12" key="50" vol="199" pos="444" pan="0"/>
          <note len="12" key="50" vol="199" pos="456" pan="0"/>
          <note len="12" key="50" vol="199" pos="468" pan="0"/>
          <note len="12" key="50" vol="199" pos="480" pan="0"/>
          <note len="12" key="50" vol="199" pos="492" pan="0"/>
          <note len="12" key="50" vol="199" pos="504" pan="0"/>
          <note len="12" key="50" vol="199" pos="516" pan="0"/>
          <note len="12" key="50" vol="199" pos="528" pan="0"/>
          <note len="12" key="50" vol="199" pos="540" pan="0"/>
          <note len="12" key="50" vol="199" pos="552" pan="0"/>
          <note len="12" key="50" vol="199" pos="564" pan="0"/>
          <note len="12" key="50" vol="199" pos="576" pan="0"/>
          <note len="12" key="48" vol="199" pos="588" pan="0"/>
          <note len="12" key="47" vol="199" pos="600" pan="0"/>
          <note len="12" key="45" vol="199" pos="612" pan="0"/>
          <note len="12" key="48" vol="199" pos="624" pan="0"/>
          <note len="12" key="47" vol="199" pos="636" pan="0"/>
          <note len="12" key="45" vol="199" pos="648" pan="0"/>
          <note len="12" key="43" vol="199" pos="660" pan="0"/>
          <note len="12" key="45" vol="199" pos="672" pan="0"/>
          <note len="12" key="43" vol="199" pos="684" pan="0"/>
          <note len="12" key="42" vol="199" pos="696" pan="0"/>
          <note len="12" key="40" vol="199" pos="708" pan="0"/>
          <note len="12" key="42" vol="199" pos="720" pan="0"/>
          <note len="12" key="43" vol="199" pos="732" pan="0"/>
          <note len="12" key="45" vol="199" pos="744" pan="0"/>
          <note len="12" key="47" vol="199" pos="756" pan="0"/>
        </pattern>
        <pattern muted="0" name="bass fender jazz (1,379kb)" pos="33792" type="1" steps="16">
          <note len="384" key="43" vol="197" pos="0" pan="0"/>
          <note len="384" key="38" vol="197" pos="384" pan="0"/>
          <note len="192" key="40" vol="197" pos="768" pan="0"/>
          <note len="192" key="38" vol="197" pos="960" pan="0"/>
          <note len="192" key="36" vol="197" pos="1152" pan="0"/>
          <note len="192" key="38" vol="197" pos="1344" pan="0"/>
        </pattern>
        <pattern muted="0" name="bass fender jazz (1,379kb)" pos="35328" type="1" steps="16">
          <note len="384" key="43" vol="197" pos="0" pan="0"/>
          <note len="384" key="38" vol="197" pos="384" pan="0"/>
          <note len="192" key="40" vol="197" pos="768" pan="0"/>
          <note len="192" key="38" vol="197" pos="960" pan="0"/>
          <note len="192" key="36" vol="197" pos="1152" pan="0"/>
          <note len="192" key="38" vol="197" pos="1344" pan="0"/>
        </pattern>
        <pattern muted="0" name="bass fender jazz (1,379kb)" pos="36864" type="1" steps="16">
          <note len="192" key="43" vol="155" pos="0" pan="0"/>
        </pattern>
        <pattern muted="0" name="bass fender jazz (1,379kb)" pos="8832" type="1" steps="16">
          <note len="12" key="50" vol="197" pos="0" pan="0"/>
          <note len="12" key="50" vol="197" pos="12" pan="0"/>
          <note len="12" key="50" vol="197" pos="24" pan="0"/>
          <note len="12" key="50" vol="197" pos="36" pan="0"/>
          <note len="12" key="50" vol="197" pos="48" pan="0"/>
          <note len="12" key="50" vol="197" pos="60" pan="0"/>
          <note len="12" key="50" vol="197" pos="72" pan="0"/>
          <note len="12" key="50" vol="197" pos="84" pan="0"/>
          <note len="12" key="50" vol="197" pos="96" pan="0"/>
          <note len="12" key="50" vol="197" pos="108" pan="0"/>
          <note len="12" key="50" vol="197" pos="120" pan="0"/>
          <note len="12" key="50" vol="197" pos="132" pan="0"/>
          <note len="12" key="50" vol="197" pos="144" pan="0"/>
          <note len="12" key="50" vol="197" pos="156" pan="0"/>
          <note len="12" key="50" vol="197" pos="168" pan="0"/>
          <note len="12" key="50" vol="197" pos="180" pan="0"/>
          <note len="48" key="50" vol="197" pos="192" pan="0"/>
        </pattern>
      </track>
      <track muted="1" name="Rhythm Guitar" solo="0" type="0">
        <instrumenttrack pitch="0" fxch="12" basenote="57" vol="199.9" pitchrange="1" usemasterpitch="1" pan="0">
          <instrument name="carlapatchbay">
            <carlapatchbay>
              <CARLA-PROJECT VERSION="2.2">
                <EngineSettings>
                  <ForceStereo>false</ForceStereo>
                  <PreferPluginBridges>false</PreferPluginBridges>
                  <PreferUiBridges>true</PreferUiBridges>
                  <UIsAlwaysOnTop>false</UIsAlwaysOnTop>
                  <MaxParameters>200</MaxParameters>
                  <UIBridgesTimeout>4000</UIBridgesTimeout>
                  <LADSPA_PATH>/home/pass/.ladspa:/usr/lib/ladspa:/usr/local/lib/ladspa</LADSPA_PATH>
                  <DSSI_PATH>/home/pass/.dssi:/usr/lib/dssi:/usr/local/lib/dssi</DSSI_PATH>
                  <LV2_PATH>/home/pass/.lv2:/usr/lib/lv2:/usr/local/lib/lv2</LV2_PATH>
                  <VST2_PATH>/home/pass/.vst:/home/pass/.wine/drive_c/Program Files (x86)/VstPlugins:/home/pass/.wine/drive_c/Program Files/VstPlugins:/home/pass/vst:/usr/lib/lxvst:/usr/lib/vst:/usr/local/lib/lxvst:/usr/local/lib/vst/home/pass/.lxvst</VST2_PATH>
                  <VST3_PATH>/home/pass/.vst3:/home/pass/.wine/drive_c/Program Files (x86)/Common Files/VST3:/home/pass/.wine/drive_c/Program Files/Common Files/VST3:/usr/lib/vst3:/usr/local/lib/vst3</VST3_PATH>
                  <SF2_PATH>/home/pass/.sounds/sf2/home/pass/.sounds/sf3:/home/pass/samples/soundfonts:/usr/share/soundfonts:/usr/share/sounds/sf2:/usr/share/sounds/sf3</SF2_PATH>
                  <SFZ_PATH>/home/pass/.sounds/sfz:/home/pass/samples:/usr/share/sounds/sfz</SFZ_PATH>
                </EngineSettings>
                <!-- sfizz -->
                <Plugin>
                  <Info>
                    <Type>LV2</Type>
                    <Name>sfizz</Name>
                    <URI>http://sfztools.github.io/sfizz</URI>
                  </Info>
                  <Data>
                    <Active>Yes</Active>
                    <ControlChannel>1</ControlChannel>
                    <Options>0x3f0</Options>
                    <Parameter>
                      <Index>0</Index>
                      <Name>Volume</Name>
                      <Symbol>volume</Symbol>
                      <Value>0</Value>
                    </Parameter>
                    <Parameter>
                      <Index>1</Index>
                      <Name>Polyphony</Name>
                      <Symbol>num_voices</Symbol>
                      <Value>64</Value>
                    </Parameter>
                    <Parameter>
                      <Index>2</Index>
                      <Name>Internal oversampling factor</Name>
                      <Symbol>oversampling</Symbol>
                      <Value>1</Value>
                    </Parameter>
                    <Parameter>
                      <Index>3</Index>
                      <Name>Preload size</Name>
                      <Symbol>preload_size</Symbol>
                      <Value>8192</Value>
                    </Parameter>
                    <CustomData>
                      <Type>http://lv2plug.in/ns/ext/atom#Path</Type>
                      <Key>http://sfztools.github.io/sfizz:sfzfile</Key>
                      <Value>/home/pass/samples/fakeguitar/_fakeguitar1_integrated.sfz</Value>
                    </CustomData>
                    <CustomData>
                      <Type>http://lv2plug.in/ns/ext/atom#Int</Type>
                      <Key>http://sfztools.github.io/sfizz:numvoices</Key>
                      <Value>QAAAAA==</Value>
                    </CustomData>
                    <CustomData>
                      <Type>http://lv2plug.in/ns/ext/atom#Int</Type>
                      <Key>http://sfztools.github.io/sfizz:preload_size</Key>
                      <Value>ACAAAA==</Value>
                    </CustomData>
                    <CustomData>
                      <Type>http://lv2plug.in/ns/ext/atom#Int</Type>
                      <Key>http://sfztools.github.io/sfizz:oversampling</Key>
                      <Value>AQAAAA==</Value>
                    </CustomData>
                  </Data>
                </Plugin>
                <!-- sfizz -->
                <Plugin>
                  <Info>
                    <Type>LV2</Type>
                    <Name>sfizz (2)</Name>
                    <URI>http://sfztools.github.io/sfizz</URI>
                  </Info>
                  <Data>
                    <Active>Yes</Active>
                    <ControlChannel>1</ControlChannel>
                    <Options>0x3f0</Options>
                    <Parameter>
                      <Index>0</Index>
                      <Name>Volume</Name>
                      <Symbol>volume</Symbol>
                      <Value>0</Value>
                    </Parameter>
                    <Parameter>
                      <Index>1</Index>
                      <Name>Polyphony</Name>
                      <Symbol>num_voices</Symbol>
                      <Value>64</Value>
                    </Parameter>
                    <Parameter>
                      <Index>2</Index>
                      <Name>Internal oversampling factor</Name>
                      <Symbol>oversampling</Symbol>
                      <Value>1</Value>
                    </Parameter>
                    <Parameter>
                      <Index>3</Index>
                      <Name>Preload size</Name>
                      <Symbol>preload_size</Symbol>
                      <Value>8192</Value>
                    </Parameter>
                    <CustomData>
                      <Type>http://lv2plug.in/ns/ext/atom#Path</Type>
                      <Key>http://sfztools.github.io/sfizz:sfzfile</Key>
                      <Value>/home/pass/samples/fakeguitar/_fakeguitar2_integrated.sfz</Value>
                    </CustomData>
                    <CustomData>
                      <Type>http://lv2plug.in/ns/ext/atom#Int</Type>
                      <Key>http://sfztools.github.io/sfizz:numvoices</Key>
                      <Value>QAAAAA==</Value>
                    </CustomData>
                    <CustomData>
                      <Type>http://lv2plug.in/ns/ext/atom#Int</Type>
                      <Key>http://sfztools.github.io/sfizz:preload_size</Key>
                      <Value>ACAAAA==</Value>
                    </CustomData>
                    <CustomData>
                      <Type>http://lv2plug.in/ns/ext/atom#Int</Type>
                      <Key>http://sfztools.github.io/sfizz:oversampling</Key>
                      <Value>AQAAAA==</Value>
                    </CustomData>
                  </Data>
                </Plugin>
                <Patchbay>
                  <Connection>
                    <Source>Midi Input:Capture 1</Source>
                    <Target>sfizz:events-in</Target>
                  </Connection>
                  <Connection>
                    <Source>Midi Input:Capture 1</Source>
                    <Target>sfizz (2):events-in</Target>
                  </Connection>
                  <Connection>
                    <Source>sfizz:Left Output</Source>
                    <Target>Audio Output:Left</Target>
                  </Connection>
                  <Connection>
                    <Source>sfizz:Right Output</Source>
                    <Target>Audio Output:Left</Target>
                  </Connection>
                  <Connection>
                    <Source>sfizz (2):Left Output</Source>
                    <Target>Audio Output:Right</Target>
                  </Connection>
                  <Connection>
                    <Source>sfizz (2):Right Output</Source>
                    <Target>Audio Output:Right</Target>
                  </Connection>
                  <Positions>
                    <Position x1="1711" pluginId="1" y1="1350">
                      <Name>sfizz (2)</Name>
                    </Position>
                    <Position x1="1704" pluginId="0" y1="1297">
                      <Name>sfizz</Name>
                    </Position>
                  </Positions>
                </Patchbay>
              </CARLA-PROJECT>
            </carlapatchbay>
          </instrument>
          <eldata ftype="0" fcut="14000" fres="0.5" fwet="0">
            <elvol userwavefile="" hold="0.5" lspd_numerator="4" lspd="0.1" lspd_denominator="4" lshp="0" latt="0" rel="0.1" x100="0" pdel="0" lpdel="0" amt="0" lspd_syncmode="0" dec="0.5" lamt="0" sustain="0.5" ctlenvamt="0" att="0"/>
            <elcut userwavefile="" hold="0.5" lspd_numerator="4" lspd="0.1" lspd_denominator="4" lshp="0" latt="0" rel="0.1" x100="0" pdel="0" lpdel="0" amt="0" lspd_syncmode="0" dec="0.5" lamt="0" sustain="0.5" ctlenvamt="0" att="0"/>
            <elres userwavefile="" hold="0.5" lspd_numerator="4" lspd="0.1" lspd_denominator="4" lshp="0" latt="0" rel="0.1" x100="0" pdel="0" lpdel="0" amt="0" lspd_syncmode="0" dec="0.5" lamt="0" sustain="0.5" ctlenvamt="0" att="0"/>
          </eldata>
          <chordcreator chord-enabled="0" chordrange="1" chord="0"/>
          <arpeggiator arpcycle="0" arptime_syncmode="0" arptime_numerator="4" arpgate="100" arpmode="0" arp-enabled="0" arptime="200" arp="0" arpskip="0" arpmiss="0" arprange="1" arpdir="0" arptime_denominator="4"/>
          <midiport inputchannel="0" outputprogram="1" basevelocity="127" outputchannel="1" fixedinputvelocity="-1" inputcontroller="0" readable="0" writable="0" outputcontroller="0" fixedoutputvelocity="-1" fixedoutputnote="-1"/>
          <fxchain numofeffects="0" enabled="0"/>
        </instrumenttrack>
        <pattern muted="0" name="Rhythm Guitar" pos="0" type="1" steps="16">
          <note len="12" key="40" vol="100" pos="0" pan="0"/>
          <note len="12" key="1" vol="100" pos="0" pan="0"/>
          <note len="12" key="40" vol="100" pos="12" pan="0"/>
          <note len="12" key="40" vol="100" pos="24" pan="0"/>
          <note len="12" key="40" vol="100" pos="36" pan="0"/>
          <note len="12" key="0" vol="100" pos="36" pan="0"/>
          <note len="24" key="47" vol="100" pos="48" pan="0"/>
          <note len="24" key="40" vol="100" pos="48" pan="0"/>
          <note len="24" key="43" vol="100" pos="96" pan="0"/>
          <note len="24" key="42" vol="100" pos="120" pan="0"/>
          <note len="24" key="40" vol="100" pos="144" pan="0"/>
          <note len="24" key="1" vol="100" pos="144" pan="0"/>
          <note len="24" key="42" vol="100" pos="168" pan="0"/>
          <note len="192" key="45" vol="100" pos="192" pan="0"/>
          <note len="192" key="38" vol="100" pos="192" pan="0"/>
          <note len="24" key="0" vol="100" pos="192" pan="0"/>
        </pattern>
        <pattern muted="0" name="Rhythm Guitar" pos="384" type="1" steps="16">
          <note len="12" key="38" vol="100" pos="0" pan="0"/>
          <note len="24" key="0" vol="100" pos="0" pan="0"/>
          <note len="12" key="38" vol="100" pos="12" pan="0"/>
          <note len="12" key="38" vol="100" pos="24" pan="0"/>
          <note len="12" key="38" vol="100" pos="36" pan="0"/>
          <note len="24" key="1" vol="100" pos="36" pan="0"/>
          <note len="24" key="42" vol="100" pos="48" pan="0"/>
          <note len="24" key="38" vol="100" pos="72" pan="0"/>
          <note len="24" key="45" vol="100" pos="96" pan="0"/>
          <note len="24" key="0" vol="100" pos="96" pan="0"/>
          <note len="24" key="43" vol="100" pos="120" pan="0"/>
          <note len="24" key="42" vol="100" pos="144" pan="0"/>
          <note len="24" key="1" vol="100" pos="144" pan="0"/>
          <note len="24" key="38" vol="100" pos="168" pan="0"/>
          <note len="48" key="47" vol="100" pos="192" pan="0"/>
          <note len="48" key="40" vol="100" pos="192" pan="0"/>
          <note len="24" key="0" vol="100" pos="192" pan="0"/>
          <note len="48" key="47" vol="100" pos="240" pan="0"/>
          <note len="48" key="40" vol="100" pos="240" pan="0"/>
          <note len="12" key="40" vol="100" pos="288" pan="0"/>
          <note len="12" key="1" vol="100" pos="288" pan="0"/>
          <note len="12" key="40" vol="100" pos="300" pan="0"/>
          <note len="12" key="40" vol="100" pos="312" pan="0"/>
          <note len="12" key="40" vol="100" pos="324" pan="0"/>
          <note len="12" key="40" vol="100" pos="336" pan="0"/>
          <note len="12" key="40" vol="100" pos="348" pan="0"/>
          <note len="12" key="40" vol="100" pos="360" pan="0"/>
          <note len="12" key="40" vol="100" pos="372" pan="0"/>
        </pattern>
        <pattern muted="0" name="Rhythm Guitar" pos="1536" type="1" steps="16">
          <note len="12" key="40" vol="100" pos="0" pan="0"/>
          <note len="12" key="1" vol="100" pos="0" pan="0"/>
          <note len="12" key="40" vol="100" pos="12" pan="0"/>
          <note len="12" key="40" vol="100" pos="24" pan="0"/>
          <note len="12" key="40" vol="100" pos="36" pan="0"/>
          <note len="12" key="40" vol="100" pos="48" pan="0"/>
          <note len="12" key="40" vol="100" pos="60" pan="0"/>
          <note len="12" key="40" vol="100" pos="72" pan="0"/>
          <note len="12" key="40" vol="100" pos="84" pan="0"/>
          <note len="12" key="40" vol="100" pos="96" pan="0"/>
          <note len="12" key="40" vol="100" pos="108" pan="0"/>
          <note len="12" key="40" vol="100" pos="120" pan="0"/>
          <note len="12" key="40" vol="100" pos="132" pan="0"/>
          <note len="12" key="40" vol="100" pos="144" pan="0"/>
          <note len="12" key="40" vol="100" pos="156" pan="0"/>
          <note len="12" key="40" vol="100" pos="168" pan="0"/>
          <note len="12" key="40" vol="100" pos="180" pan="0"/>
          <note len="12" key="36" vol="100" pos="192" pan="0"/>
          <note len="12" key="36" vol="100" pos="204" pan="0"/>
          <note len="12" key="36" vol="100" pos="216" pan="0"/>
          <note len="12" key="36" vol="100" pos="228" pan="0"/>
          <note len="12" key="36" vol="100" pos="240" pan="0"/>
          <note len="12" key="36" vol="100" pos="252" pan="0"/>
          <note len="12" key="36" vol="100" pos="264" pan="0"/>
          <note len="12" key="36" vol="100" pos="276" pan="0"/>
          <note len="12" key="36" vol="100" pos="288" pan="0"/>
          <note len="12" key="36" vol="100" pos="300" pan="0"/>
          <note len="12" key="36" vol="100" pos="312" pan="0"/>
          <note len="12" key="36" vol="100" pos="324" pan="0"/>
          <note len="12" key="36" vol="100" pos="336" pan="0"/>
          <note len="12" key="36" vol="100" pos="348" pan="0"/>
          <note len="12" key="36" vol="100" pos="360" pan="0"/>
          <note len="12" key="36" vol="100" pos="372" pan="0"/>
          <note len="12" key="43" vol="100" pos="384" pan="0"/>
          <note len="12" key="43" vol="100" pos="396" pan="0"/>
          <note len="12" key="43" vol="100" pos="408" pan="0"/>
          <note len="12" key="43" vol="100" pos="420" pan="0"/>
          <note len="12" key="43" vol="100" pos="432" pan="0"/>
          <note len="12" key="43" vol="100" pos="444" pan="0"/>
          <note len="12" key="43" vol="100" pos="456" pan="0"/>
          <note len="12" key="43" vol="100" pos="468" pan="0"/>
          <note len="12" key="43" vol="100" pos="480" pan="0"/>
          <note len="12" key="43" vol="100" pos="492" pan="0"/>
          <note len="12" key="43" vol="100" pos="504" pan="0"/>
          <note len="12" key="43" vol="100" pos="516" pan="0"/>
          <note len="12" key="43" vol="100" pos="528" pan="0"/>
          <note len="12" key="43" vol="100" pos="540" pan="0"/>
          <note len="12" key="43" vol="100" pos="552" pan="0"/>
          <note len="12" key="43" vol="100" pos="564" pan="0"/>
          <note len="12" key="38" vol="100" pos="576" pan="0"/>
          <note len="12" key="38" vol="100" pos="588" pan="0"/>
          <note len="12" key="38" vol="100" pos="600" pan="0"/>
          <note len="12" key="38" vol="100" pos="612" pan="0"/>
          <note len="12" key="38" vol="100" pos="624" pan="0"/>
          <note len="12" key="38" vol="100" pos="636" pan="0"/>
          <note len="12" key="38" vol="100" pos="648" pan="0"/>
          <note len="12" key="38" vol="100" pos="660" pan="0"/>
          <note len="12" key="38" vol="100" pos="672" pan="0"/>
          <note len="12" key="38" vol="100" pos="684" pan="0"/>
          <note len="12" key="38" vol="100" pos="696" pan="0"/>
          <note len="12" key="38" vol="100" pos="708" pan="0"/>
          <note len="12" key="38" vol="100" pos="720" pan="0"/>
          <note len="12" key="38" vol="100" pos="732" pan="0"/>
          <note len="12" key="38" vol="100" pos="744" pan="0"/>
          <note len="12" key="38" vol="100" pos="756" pan="0"/>
        </pattern>
        <pattern muted="0" name="Rhythm Guitar" pos="2304" type="1" steps="16">
          <note len="12" key="40" vol="100" pos="0" pan="0"/>
          <note len="12" key="1" vol="100" pos="0" pan="0"/>
          <note len="12" key="40" vol="100" pos="12" pan="0"/>
          <note len="12" key="40" vol="100" pos="24" pan="0"/>
          <note len="12" key="40" vol="100" pos="36" pan="0"/>
          <note len="12" key="40" vol="100" pos="48" pan="0"/>
          <note len="12" key="40" vol="100" pos="60" pan="0"/>
          <note len="12" key="40" vol="100" pos="72" pan="0"/>
          <note len="12" key="40" vol="100" pos="84" pan="0"/>
          <note len="12" key="40" vol="100" pos="96" pan="0"/>
          <note len="12" key="40" vol="100" pos="108" pan="0"/>
          <note len="12" key="40" vol="100" pos="120" pan="0"/>
          <note len="12" key="40" vol="100" pos="132" pan="0"/>
          <note len="12" key="40" vol="100" pos="144" pan="0"/>
          <note len="12" key="40" vol="100" pos="156" pan="0"/>
          <note len="12" key="40" vol="100" pos="168" pan="0"/>
          <note len="12" key="40" vol="100" pos="180" pan="0"/>
          <note len="12" key="36" vol="100" pos="192" pan="0"/>
          <note len="12" key="36" vol="100" pos="204" pan="0"/>
          <note len="12" key="36" vol="100" pos="216" pan="0"/>
          <note len="12" key="36" vol="100" pos="228" pan="0"/>
          <note len="12" key="36" vol="100" pos="240" pan="0"/>
          <note len="12" key="36" vol="100" pos="252" pan="0"/>
          <note len="12" key="36" vol="100" pos="264" pan="0"/>
          <note len="12" key="36" vol="100" pos="276" pan="0"/>
          <note len="12" key="36" vol="100" pos="288" pan="0"/>
          <note len="12" key="36" vol="100" pos="300" pan="0"/>
          <note len="12" key="36" vol="100" pos="312" pan="0"/>
          <note len="12" key="36" vol="100" pos="324" pan="0"/>
          <note len="12" key="36" vol="100" pos="336" pan="0"/>
          <note len="12" key="36" vol="100" pos="348" pan="0"/>
          <note len="12" key="36" vol="100" pos="360" pan="0"/>
          <note len="12" key="36" vol="100" pos="372" pan="0"/>
          <note len="12" key="43" vol="100" pos="384" pan="0"/>
          <note len="12" key="43" vol="100" pos="396" pan="0"/>
          <note len="12" key="43" vol="100" pos="408" pan="0"/>
          <note len="12" key="43" vol="100" pos="420" pan="0"/>
          <note len="12" key="43" vol="100" pos="432" pan="0"/>
          <note len="12" key="43" vol="100" pos="444" pan="0"/>
          <note len="12" key="43" vol="100" pos="456" pan="0"/>
          <note len="12" key="43" vol="100" pos="468" pan="0"/>
          <note len="12" key="43" vol="100" pos="480" pan="0"/>
          <note len="12" key="43" vol="100" pos="492" pan="0"/>
          <note len="12" key="43" vol="100" pos="504" pan="0"/>
          <note len="12" key="43" vol="100" pos="516" pan="0"/>
          <note len="12" key="43" vol="100" pos="528" pan="0"/>
          <note len="12" key="43" vol="100" pos="540" pan="0"/>
          <note len="12" key="43" vol="100" pos="552" pan="0"/>
          <note len="12" key="43" vol="100" pos="564" pan="0"/>
          <note len="12" key="48" vol="100" pos="576" pan="0"/>
          <note len="12" key="48" vol="100" pos="588" pan="0"/>
          <note len="12" key="48" vol="100" pos="600" pan="0"/>
          <note len="12" key="48" vol="100" pos="612" pan="0"/>
          <note len="12" key="48" vol="100" pos="624" pan="0"/>
          <note len="12" key="48" vol="100" pos="636" pan="0"/>
          <note len="12" key="48" vol="100" pos="648" pan="0"/>
          <note len="12" key="48" vol="100" pos="660" pan="0"/>
          <note len="12" key="48" vol="100" pos="672" pan="0"/>
          <note len="12" key="45" vol="100" pos="684" pan="0"/>
          <note len="12" key="47" vol="100" pos="696" pan="0"/>
          <note len="12" key="48" vol="100" pos="708" pan="0"/>
          <note len="12" key="50" vol="100" pos="720" pan="0"/>
          <note len="12" key="47" vol="100" pos="732" pan="0"/>
          <note len="12" key="48" vol="100" pos="744" pan="0"/>
          <note len="12" key="50" vol="100" pos="756" pan="0"/>
        </pattern>
        <pattern muted="0" name="Rhythm Guitar" pos="3072" type="1" steps="16">
          <note len="12" key="52" vol="100" pos="0" pan="0"/>
          <note len="12" key="1" vol="100" pos="0" pan="0"/>
          <note len="12" key="52" vol="100" pos="12" pan="0"/>
          <note len="12" key="52" vol="100" pos="24" pan="0"/>
          <note len="12" key="52" vol="100" pos="36" pan="0"/>
          <note len="12" key="52" vol="100" pos="48" pan="0"/>
          <note len="12" key="52" vol="100" pos="60" pan="0"/>
          <note len="12" key="52" vol="100" pos="72" pan="0"/>
          <note len="12" key="52" vol="100" pos="84" pan="0"/>
          <note len="12" key="52" vol="100" pos="96" pan="0"/>
          <note len="12" key="52" vol="100" pos="108" pan="0"/>
          <note len="12" key="52" vol="100" pos="120" pan="0"/>
          <note len="12" key="52" vol="100" pos="132" pan="0"/>
          <note len="12" key="52" vol="100" pos="144" pan="0"/>
          <note len="12" key="52" vol="100" pos="156" pan="0"/>
          <note len="12" key="52" vol="100" pos="168" pan="0"/>
          <note len="12" key="52" vol="100" pos="180" pan="0"/>
          <note len="12" key="48" vol="100" pos="192" pan="0"/>
          <note len="12" key="48" vol="100" pos="204" pan="0"/>
          <note len="12" key="48" vol="100" pos="216" pan="0"/>
          <note len="12" key="48" vol="100" pos="228" pan="0"/>
          <note len="12" key="48" vol="100" pos="240" pan="0"/>
          <note len="12" key="48" vol="100" pos="252" pan="0"/>
          <note len="12" key="48" vol="100" pos="264" pan="0"/>
          <note len="12" key="48" vol="100" pos="276" pan="0"/>
          <note len="12" key="48" vol="100" pos="288" pan="0"/>
          <note len="12" key="48" vol="100" pos="300" pan="0"/>
          <note len="12" key="48" vol="100" pos="312" pan="0"/>
          <note len="12" key="48" vol="100" pos="324" pan="0"/>
          <note len="12" key="48" vol="100" pos="336" pan="0"/>
          <note len="12" key="48" vol="100" pos="348" pan="0"/>
          <note len="12" key="48" vol="100" pos="360" pan="0"/>
          <note len="12" key="48" vol="100" pos="372" pan="0"/>
          <note len="12" key="55" vol="100" pos="384" pan="0"/>
          <note len="12" key="55" vol="100" pos="396" pan="0"/>
          <note len="12" key="55" vol="100" pos="408" pan="0"/>
          <note len="12" key="55" vol="100" pos="420" pan="0"/>
          <note len="12" key="55" vol="100" pos="432" pan="0"/>
          <note len="12" key="55" vol="100" pos="444" pan="0"/>
          <note len="12" key="55" vol="100" pos="456" pan="0"/>
          <note len="12" key="55" vol="100" pos="468" pan="0"/>
          <note len="12" key="55" vol="100" pos="480" pan="0"/>
          <note len="12" key="55" vol="100" pos="492" pan="0"/>
          <note len="12" key="55" vol="100" pos="504" pan="0"/>
          <note len="12" key="55" vol="100" pos="516" pan="0"/>
          <note len="12" key="55" vol="100" pos="528" pan="0"/>
          <note len="12" key="55" vol="100" pos="540" pan="0"/>
          <note len="12" key="55" vol="100" pos="552" pan="0"/>
          <note len="12" key="55" vol="100" pos="564" pan="0"/>
          <note len="12" key="50" vol="100" pos="576" pan="0"/>
          <note len="12" key="50" vol="100" pos="588" pan="0"/>
          <note len="12" key="50" vol="100" pos="600" pan="0"/>
          <note len="12" key="50" vol="100" pos="612" pan="0"/>
          <note len="12" key="50" vol="100" pos="624" pan="0"/>
          <note len="12" key="50" vol="100" pos="636" pan="0"/>
          <note len="12" key="50" vol="100" pos="648" pan="0"/>
          <note len="12" key="50" vol="100" pos="660" pan="0"/>
          <note len="12" key="50" vol="100" pos="672" pan="0"/>
          <note len="12" key="50" vol="100" pos="684" pan="0"/>
          <note len="12" key="50" vol="100" pos="696" pan="0"/>
          <note len="12" key="50" vol="100" pos="708" pan="0"/>
          <note len="12" key="50" vol="100" pos="720" pan="0"/>
          <note len="12" key="50" vol="100" pos="732" pan="0"/>
          <note len="12" key="50" vol="100" pos="744" pan="0"/>
          <note len="12" key="50" vol="100" pos="756" pan="0"/>
        </pattern>
        <pattern muted="0" name="Rhythm Guitar" pos="768" type="1" steps="16">
          <note len="12" key="40" vol="100" pos="0" pan="0"/>
          <note len="12" key="1" vol="100" pos="0" pan="0"/>
          <note len="12" key="40" vol="100" pos="12" pan="0"/>
          <note len="12" key="40" vol="100" pos="24" pan="0"/>
          <note len="12" key="40" vol="100" pos="36" pan="0"/>
          <note len="12" key="0" vol="100" pos="36" pan="0"/>
          <note len="24" key="43" vol="100" pos="48" pan="0"/>
          <note len="24" key="40" vol="100" pos="72" pan="0"/>
          <note len="24" key="1" vol="100" pos="72" pan="0"/>
          <note len="12" key="43" vol="100" pos="96" pan="0"/>
          <note len="12" key="1" vol="100" pos="96" pan="0"/>
          <note len="12" key="40" vol="100" pos="108" pan="0"/>
          <note len="12" key="0" vol="100" pos="108" pan="0"/>
          <note len="12" key="40" vol="100" pos="120" pan="0"/>
          <note len="12" key="40" vol="100" pos="132" pan="0"/>
          <note len="12" key="47" vol="100" pos="144" pan="0"/>
          <note len="12" key="1" vol="100" pos="144" pan="0"/>
          <note len="12" key="40" vol="100" pos="156" pan="0"/>
          <note len="12" key="0" vol="100" pos="156" pan="0"/>
          <note len="12" key="40" vol="100" pos="168" pan="0"/>
          <note len="12" key="40" vol="100" pos="180" pan="0"/>
        </pattern>
        <pattern muted="0" name="Rhythm Guitar" pos="960" type="1" steps="16">
          <note len="12" key="36" vol="100" pos="0" pan="0"/>
          <note len="12" key="1" vol="100" pos="0" pan="0"/>
          <note len="12" key="36" vol="100" pos="12" pan="0"/>
          <note len="12" key="36" vol="100" pos="24" pan="0"/>
          <note len="12" key="36" vol="100" pos="36" pan="0"/>
          <note len="12" key="36" vol="100" pos="48" pan="0"/>
          <note len="12" key="36" vol="100" pos="60" pan="0"/>
          <note len="12" key="36" vol="100" pos="72" pan="0"/>
          <note len="12" key="36" vol="100" pos="84" pan="0"/>
          <note len="12" key="36" vol="100" pos="96" pan="0"/>
          <note len="12" key="36" vol="100" pos="108" pan="0"/>
          <note len="12" key="36" vol="100" pos="120" pan="0"/>
          <note len="12" key="36" vol="100" pos="132" pan="0"/>
          <note len="12" key="36" vol="100" pos="144" pan="0"/>
          <note len="12" key="36" vol="100" pos="156" pan="0"/>
          <note len="12" key="36" vol="100" pos="168" pan="0"/>
          <note len="12" key="36" vol="100" pos="180" pan="0"/>
          <note len="12" key="38" vol="100" pos="192" pan="0"/>
          <note len="12" key="38" vol="100" pos="204" pan="0"/>
          <note len="12" key="38" vol="100" pos="216" pan="0"/>
          <note len="12" key="38" vol="100" pos="228" pan="0"/>
          <note len="12" key="38" vol="100" pos="240" pan="0"/>
          <note len="12" key="38" vol="100" pos="252" pan="0"/>
          <note len="12" key="38" vol="100" pos="264" pan="0"/>
          <note len="12" key="38" vol="100" pos="276" pan="0"/>
          <note len="12" key="38" vol="100" pos="288" pan="0"/>
          <note len="12" key="38" vol="100" pos="300" pan="0"/>
          <note len="12" key="38" vol="100" pos="312" pan="0"/>
          <note len="12" key="38" vol="100" pos="324" pan="0"/>
          <note len="12" key="38" vol="100" pos="336" pan="0"/>
          <note len="12" key="38" vol="100" pos="348" pan="0"/>
          <note len="12" key="38" vol="100" pos="360" pan="0"/>
          <note len="12" key="38" vol="100" pos="372" pan="0"/>
        </pattern>
        <pattern muted="0" name="Rhythm Guitar" pos="1344" type="1" steps="16">
          <note len="48" key="47" vol="100" pos="0" pan="0"/>
          <note len="48" key="40" vol="100" pos="0" pan="0"/>
          <note len="48" key="0" vol="100" pos="0" pan="0"/>
          <note len="48" key="47" vol="100" pos="48" pan="0"/>
          <note len="48" key="40" vol="100" pos="48" pan="0"/>
          <note len="96" key="47" vol="100" pos="96" pan="0"/>
          <note len="96" key="40" vol="100" pos="96" pan="0"/>
        </pattern>
        <pattern muted="0" name="Rhythm Guitar" pos="3840" type="1" steps="16">
          <note len="12" key="52" vol="100" pos="0" pan="0"/>
          <note len="12" key="1" vol="100" pos="0" pan="0"/>
          <note len="12" key="52" vol="100" pos="12" pan="0"/>
          <note len="12" key="52" vol="100" pos="24" pan="0"/>
          <note len="12" key="52" vol="100" pos="36" pan="0"/>
          <note len="12" key="52" vol="100" pos="48" pan="0"/>
          <note len="12" key="52" vol="100" pos="60" pan="0"/>
          <note len="12" key="52" vol="100" pos="72" pan="0"/>
          <note len="12" key="52" vol="100" pos="84" pan="0"/>
          <note len="12" key="52" vol="100" pos="96" pan="0"/>
          <note len="12" key="52" vol="100" pos="108" pan="0"/>
          <note len="12" key="52" vol="100" pos="120" pan="0"/>
          <note len="12" key="52" vol="100" pos="132" pan="0"/>
          <note len="12" key="52" vol="100" pos="144" pan="0"/>
          <note len="12" key="52" vol="100" pos="156" pan="0"/>
          <note len="12" key="52" vol="100" pos="168" pan="0"/>
          <note len="12" key="52" vol="100" pos="180" pan="0"/>
          <note len="12" key="48" vol="100" pos="192" pan="0"/>
          <note len="12" key="48" vol="100" pos="204" pan="0"/>
          <note len="12" key="48" vol="100" pos="216" pan="0"/>
          <note len="12" key="48" vol="100" pos="228" pan="0"/>
          <note len="12" key="48" vol="100" pos="240" pan="0"/>
          <note len="12" key="48" vol="100" pos="252" pan="0"/>
          <note len="12" key="48" vol="100" pos="264" pan="0"/>
          <note len="12" key="48" vol="100" pos="276" pan="0"/>
          <note len="12" key="48" vol="100" pos="288" pan="0"/>
          <note len="12" key="48" vol="100" pos="300" pan="0"/>
          <note len="12" key="48" vol="100" pos="312" pan="0"/>
          <note len="12" key="48" vol="100" pos="324" pan="0"/>
          <note len="12" key="48" vol="100" pos="336" pan="0"/>
          <note len="12" key="48" vol="100" pos="348" pan="0"/>
          <note len="12" key="48" vol="100" pos="360" pan="0"/>
          <note len="12" key="48" vol="100" pos="372" pan="0"/>
          <note len="12" key="55" vol="100" pos="384" pan="0"/>
          <note len="12" key="55" vol="100" pos="396" pan="0"/>
          <note len="12" key="55" vol="100" pos="408" pan="0"/>
          <note len="12" key="55" vol="100" pos="420" pan="0"/>
          <note len="12" key="55" vol="100" pos="432" pan="0"/>
          <note len="12" key="55" vol="100" pos="444" pan="0"/>
          <note len="12" key="55" vol="100" pos="456" pan="0"/>
          <note len="12" key="55" vol="100" pos="468" pan="0"/>
          <note len="12" key="55" vol="100" pos="480" pan="0"/>
          <note len="12" key="55" vol="100" pos="492" pan="0"/>
          <note len="12" key="55" vol="100" pos="504" pan="0"/>
          <note len="12" key="55" vol="100" pos="516" pan="0"/>
          <note len="12" key="55" vol="100" pos="528" pan="0"/>
          <note len="12" key="55" vol="100" pos="540" pan="0"/>
          <note len="12" key="55" vol="100" pos="552" pan="0"/>
          <note len="12" key="55" vol="100" pos="564" pan="0"/>
          <note len="12" key="59" vol="100" pos="576" pan="0"/>
          <note len="12" key="59" vol="100" pos="588" pan="0"/>
          <note len="12" key="59" vol="100" pos="600" pan="0"/>
          <note len="12" key="59" vol="100" pos="612" pan="0"/>
          <note len="12" key="57" vol="100" pos="624" pan="0"/>
          <note len="12" key="57" vol="100" pos="636" pan="0"/>
          <note len="12" key="57" vol="100" pos="648" pan="0"/>
          <note len="12" key="57" vol="100" pos="660" pan="0"/>
          <note len="12" key="55" vol="100" pos="672" pan="0"/>
          <note len="12" key="55" vol="100" pos="684" pan="0"/>
          <note len="12" key="55" vol="100" pos="696" pan="0"/>
          <note len="12" key="55" vol="100" pos="708" pan="0"/>
          <note len="12" key="54" vol="100" pos="720" pan="0"/>
          <note len="12" key="54" vol="100" pos="732" pan="0"/>
          <note len="12" key="54" vol="100" pos="744" pan="0"/>
          <note len="12" key="54" vol="100" pos="756" pan="0"/>
        </pattern>
        <pattern muted="0" name="Rhythm Guitar" pos="4608" type="1" steps="16">
          <note len="24" key="40" vol="100" pos="0" pan="0"/>
          <note len="24" key="1" vol="100" pos="0" pan="0"/>
          <note len="24" key="40" vol="100" pos="24" pan="0"/>
          <note len="24" key="55" vol="100" pos="48" pan="0"/>
          <note len="24" key="0" vol="100" pos="48" pan="0"/>
          <note len="24" key="40" vol="100" pos="72" pan="0"/>
          <note len="24" key="1" vol="100" pos="72" pan="0"/>
          <note len="24" key="54" vol="100" pos="96" pan="0"/>
          <note len="24" key="0" vol="100" pos="96" pan="0"/>
          <note len="24" key="40" vol="100" pos="120" pan="0"/>
          <note len="24" key="1" vol="100" pos="120" pan="0"/>
          <note len="24" key="50" vol="100" pos="144" pan="0"/>
          <note len="24" key="0" vol="100" pos="144" pan="0"/>
          <note len="24" key="40" vol="100" pos="168" pan="0"/>
          <note len="24" key="1" vol="100" pos="168" pan="0"/>
          <note len="24" key="52" vol="100" pos="192" pan="0"/>
          <note len="24" key="0" vol="100" pos="192" pan="0"/>
          <note len="24" key="40" vol="100" pos="216" pan="0"/>
          <note len="24" key="1" vol="100" pos="216" pan="0"/>
          <note len="24" key="40" vol="100" pos="240" pan="0"/>
          <note len="24" key="40" vol="100" pos="264" pan="0"/>
          <note len="12" key="40" vol="100" pos="288" pan="0"/>
          <note len="12" key="40" vol="100" pos="300" pan="0"/>
          <note len="12" key="40" vol="100" pos="312" pan="0"/>
          <note len="12" key="40" vol="100" pos="324" pan="0"/>
          <note len="12" key="40" vol="100" pos="336" pan="0"/>
          <note len="12" key="40" vol="100" pos="348" pan="0"/>
          <note len="12" key="40" vol="100" pos="360" pan="0"/>
          <note len="12" key="40" vol="100" pos="372" pan="0"/>
        </pattern>
        <pattern muted="0" name="Rhythm Guitar" pos="4992" type="1" steps="16">
          <note len="24" key="40" vol="100" pos="0" pan="0"/>
          <note len="24" key="1" vol="100" pos="0" pan="0"/>
          <note len="24" key="40" vol="100" pos="24" pan="0"/>
          <note len="24" key="55" vol="100" pos="48" pan="0"/>
          <note len="24" key="0" vol="100" pos="48" pan="0"/>
          <note len="24" key="40" vol="100" pos="72" pan="0"/>
          <note len="24" key="1" vol="100" pos="72" pan="0"/>
          <note len="24" key="54" vol="100" pos="96" pan="0"/>
          <note len="24" key="0" vol="100" pos="96" pan="0"/>
          <note len="24" key="40" vol="100" pos="120" pan="0"/>
          <note len="24" key="1" vol="100" pos="120" pan="0"/>
          <note len="24" key="50" vol="100" pos="144" pan="0"/>
          <note len="24" key="0" vol="100" pos="144" pan="0"/>
          <note len="24" key="40" vol="100" pos="168" pan="0"/>
          <note len="24" key="1" vol="100" pos="168" pan="0"/>
          <note len="24" key="52" vol="100" pos="192" pan="0"/>
          <note len="24" key="0" vol="100" pos="192" pan="0"/>
          <note len="24" key="40" vol="100" pos="216" pan="0"/>
          <note len="24" key="1" vol="100" pos="216" pan="0"/>
          <note len="24" key="40" vol="100" pos="240" pan="0"/>
          <note len="24" key="40" vol="100" pos="264" pan="0"/>
          <note len="12" key="40" vol="100" pos="288" pan="0"/>
          <note len="12" key="40" vol="100" pos="300" pan="0"/>
          <note len="12" key="40" vol="100" pos="312" pan="0"/>
          <note len="12" key="40" vol="100" pos="324" pan="0"/>
          <note len="12" key="40" vol="100" pos="336" pan="0"/>
          <note len="12" key="40" vol="100" pos="348" pan="0"/>
          <note len="12" key="40" vol="100" pos="360" pan="0"/>
          <note len="12" key="40" vol="100" pos="372" pan="0"/>
        </pattern>
        <pattern muted="0" name="Rhythm Guitar" pos="5376" type="1" steps="16">
          <note len="24" key="40" vol="100" pos="0" pan="0"/>
          <note len="24" key="1" vol="100" pos="0" pan="0"/>
          <note len="24" key="40" vol="100" pos="24" pan="0"/>
          <note len="24" key="55" vol="100" pos="48" pan="0"/>
          <note len="24" key="0" vol="100" pos="48" pan="0"/>
          <note len="24" key="40" vol="100" pos="72" pan="0"/>
          <note len="24" key="1" vol="100" pos="72" pan="0"/>
          <note len="24" key="54" vol="100" pos="96" pan="0"/>
          <note len="24" key="0" vol="100" pos="96" pan="0"/>
          <note len="24" key="40" vol="100" pos="120" pan="0"/>
          <note len="24" key="1" vol="100" pos="120" pan="0"/>
          <note len="24" key="50" vol="100" pos="144" pan="0"/>
          <note len="24" key="0" vol="100" pos="144" pan="0"/>
          <note len="24" key="40" vol="100" pos="168" pan="0"/>
          <note len="24" key="1" vol="100" pos="168" pan="0"/>
          <note len="12" key="40" vol="100" pos="192" pan="0"/>
          <note len="12" key="40" vol="100" pos="204" pan="0"/>
          <note len="12" key="40" vol="100" pos="216" pan="0"/>
          <note len="12" key="40" vol="100" pos="228" pan="0"/>
          <note len="12" key="40" vol="100" pos="240" pan="0"/>
          <note len="12" key="40" vol="100" pos="252" pan="0"/>
          <note len="12" key="40" vol="100" pos="264" pan="0"/>
          <note len="12" key="40" vol="100" pos="276" pan="0"/>
          <note len="12" key="40" vol="100" pos="288" pan="0"/>
          <note len="12" key="40" vol="100" pos="300" pan="0"/>
          <note len="12" key="40" vol="100" pos="312" pan="0"/>
          <note len="12" key="40" vol="100" pos="324" pan="0"/>
          <note len="12" key="40" vol="100" pos="336" pan="0"/>
          <note len="12" key="40" vol="100" pos="348" pan="0"/>
          <note len="12" key="40" vol="100" pos="360" pan="0"/>
          <note len="12" key="40" vol="100" pos="372" pan="0"/>
        </pattern>
        <pattern muted="0" name="Rhythm Guitar" pos="5760" type="1" steps="16">
          <note len="12" key="48" vol="100" pos="0" pan="0"/>
          <note len="12" key="48" vol="100" pos="12" pan="0"/>
          <note len="12" key="48" vol="100" pos="24" pan="0"/>
          <note len="12" key="48" vol="100" pos="36" pan="0"/>
          <note len="12" key="48" vol="100" pos="48" pan="0"/>
          <note len="12" key="48" vol="100" pos="60" pan="0"/>
          <note len="12" key="48" vol="100" pos="72" pan="0"/>
          <note len="12" key="48" vol="100" pos="84" pan="0"/>
          <note len="12" key="48" vol="100" pos="96" pan="0"/>
          <note len="12" key="48" vol="100" pos="108" pan="0"/>
          <note len="12" key="48" vol="100" pos="120" pan="0"/>
          <note len="12" key="48" vol="100" pos="132" pan="0"/>
          <note len="12" key="48" vol="100" pos="144" pan="0"/>
          <note len="12" key="48" vol="100" pos="156" pan="0"/>
          <note len="12" key="48" vol="100" pos="168" pan="0"/>
          <note len="12" key="48" vol="100" pos="180" pan="0"/>
          <note len="12" key="50" vol="100" pos="192" pan="0"/>
          <note len="12" key="50" vol="100" pos="204" pan="0"/>
          <note len="12" key="50" vol="100" pos="216" pan="0"/>
          <note len="12" key="50" vol="100" pos="228" pan="0"/>
          <note len="12" key="50" vol="100" pos="240" pan="0"/>
          <note len="12" key="50" vol="100" pos="252" pan="0"/>
          <note len="12" key="50" vol="100" pos="264" pan="0"/>
          <note len="12" key="50" vol="100" pos="276" pan="0"/>
          <note len="12" key="50" vol="100" pos="288" pan="0"/>
          <note len="12" key="50" vol="100" pos="300" pan="0"/>
          <note len="12" key="50" vol="100" pos="312" pan="0"/>
          <note len="12" key="50" vol="100" pos="324" pan="0"/>
          <note len="12" key="50" vol="100" pos="336" pan="0"/>
          <note len="12" key="50" vol="100" pos="348" pan="0"/>
          <note len="12" key="50" vol="100" pos="360" pan="0"/>
          <note len="12" key="50" vol="100" pos="372" pan="0"/>
        </pattern>
        <pattern muted="0" name="Rhythm Guitar" pos="6144" type="1" steps="16">
          <note len="24" key="52" vol="100" pos="0" pan="0"/>
          <note len="24" key="1" vol="100" pos="0" pan="0"/>
          <note len="24" key="52" vol="100" pos="24" pan="0"/>
          <note len="24" key="59" vol="100" pos="48" pan="0"/>
          <note len="24" key="0" vol="100" pos="48" pan="0"/>
          <note len="24" key="52" vol="100" pos="72" pan="0"/>
          <note len="24" key="1" vol="100" pos="72" pan="0"/>
          <note len="24" key="57" vol="100" pos="96" pan="0"/>
          <note len="24" key="0" vol="100" pos="96" pan="0"/>
          <note len="24" key="52" vol="100" pos="120" pan="0"/>
          <note len="24" key="1" vol="100" pos="120" pan="0"/>
          <note len="24" key="54" vol="100" pos="144" pan="0"/>
          <note len="24" key="0" vol="100" pos="144" pan="0"/>
          <note len="24" key="52" vol="100" pos="168" pan="0"/>
          <note len="24" key="1" vol="100" pos="168" pan="0"/>
          <note len="24" key="55" vol="100" pos="192" pan="0"/>
          <note len="24" key="0" vol="100" pos="192" pan="0"/>
          <note len="24" key="52" vol="100" pos="216" pan="0"/>
          <note len="24" key="1" vol="100" pos="216" pan="0"/>
          <note len="24" key="52" vol="100" pos="240" pan="0"/>
          <note len="24" key="52" vol="100" pos="264" pan="0"/>
          <note len="12" key="52" vol="100" pos="288" pan="0"/>
          <note len="12" key="52" vol="100" pos="300" pan="0"/>
          <note len="12" key="52" vol="100" pos="312" pan="0"/>
          <note len="12" key="52" vol="100" pos="324" pan="0"/>
          <note len="12" key="52" vol="100" pos="336" pan="0"/>
          <note len="12" key="52" vol="100" pos="348" pan="0"/>
          <note len="12" key="52" vol="100" pos="360" pan="0"/>
          <note len="12" key="52" vol="100" pos="372" pan="0"/>
        </pattern>
        <pattern muted="0" name="Rhythm Guitar" pos="6528" type="1" steps="16">
          <note len="24" key="52" vol="100" pos="0" pan="0"/>
          <note len="24" key="1" vol="100" pos="0" pan="0"/>
          <note len="24" key="52" vol="100" pos="24" pan="0"/>
          <note len="24" key="59" vol="100" pos="48" pan="0"/>
          <note len="24" key="0" vol="100" pos="48" pan="0"/>
          <note len="24" key="52" vol="100" pos="72" pan="0"/>
          <note len="24" key="1" vol="100" pos="72" pan="0"/>
          <note len="24" key="57" vol="100" pos="96" pan="0"/>
          <note len="24" key="0" vol="100" pos="96" pan="0"/>
          <note len="24" key="52" vol="100" pos="120" pan="0"/>
          <note len="24" key="1" vol="100" pos="120" pan="0"/>
          <note len="24" key="54" vol="100" pos="144" pan="0"/>
          <note len="24" key="0" vol="100" pos="144" pan="0"/>
          <note len="24" key="52" vol="100" pos="168" pan="0"/>
          <note len="24" key="1" vol="100" pos="168" pan="0"/>
          <note len="24" key="55" vol="100" pos="192" pan="0"/>
          <note len="24" key="0" vol="100" pos="192" pan="0"/>
          <note len="24" key="52" vol="100" pos="216" pan="0"/>
          <note len="24" key="1" vol="100" pos="216" pan="0"/>
          <note len="24" key="52" vol="100" pos="240" pan="0"/>
          <note len="24" key="52" vol="100" pos="264" pan="0"/>
          <note len="12" key="52" vol="100" pos="288" pan="0"/>
          <note len="12" key="52" vol="100" pos="300" pan="0"/>
          <note len="12" key="52" vol="100" pos="312" pan="0"/>
          <note len="12" key="52" vol="100" pos="324" pan="0"/>
          <note len="12" key="52" vol="100" pos="336" pan="0"/>
          <note len="12" key="52" vol="100" pos="348" pan="0"/>
          <note len="12" key="52" vol="100" pos="360" pan="0"/>
          <note len="12" key="52" vol="100" pos="372" pan="0"/>
        </pattern>
        <pattern muted="0" name="Rhythm Guitar" pos="6912" type="1" steps="16">
          <note len="24" key="52" vol="100" pos="0" pan="0"/>
          <note len="24" key="1" vol="100" pos="0" pan="0"/>
          <note len="24" key="52" vol="100" pos="24" pan="0"/>
          <note len="24" key="59" vol="100" pos="48" pan="0"/>
          <note len="24" key="0" vol="100" pos="48" pan="0"/>
          <note len="24" key="52" vol="100" pos="72" pan="0"/>
          <note len="24" key="1" vol="100" pos="72" pan="0"/>
          <note len="24" key="57" vol="100" pos="96" pan="0"/>
          <note len="24" key="0" vol="100" pos="96" pan="0"/>
          <note len="24" key="52" vol="100" pos="120" pan="0"/>
          <note len="24" key="1" vol="100" pos="120" pan="0"/>
          <note len="24" key="54" vol="100" pos="144" pan="0"/>
          <note len="24" key="0" vol="100" pos="144" pan="0"/>
          <note len="24" key="52" vol="100" pos="168" pan="0"/>
          <note len="24" key="1" vol="100" pos="168" pan="0"/>
          <note len="12" key="52" vol="100" pos="192" pan="0"/>
          <note len="12" key="52" vol="100" pos="204" pan="0"/>
          <note len="12" key="52" vol="100" pos="216" pan="0"/>
          <note len="12" key="52" vol="100" pos="228" pan="0"/>
          <note len="12" key="52" vol="100" pos="240" pan="0"/>
          <note len="12" key="52" vol="100" pos="252" pan="0"/>
          <note len="12" key="52" vol="100" pos="264" pan="0"/>
          <note len="12" key="52" vol="100" pos="276" pan="0"/>
          <note len="12" key="52" vol="100" pos="288" pan="0"/>
          <note len="12" key="52" vol="100" pos="300" pan="0"/>
          <note len="12" key="52" vol="100" pos="312" pan="0"/>
          <note len="12" key="52" vol="100" pos="324" pan="0"/>
          <note len="12" key="52" vol="100" pos="336" pan="0"/>
          <note len="12" key="52" vol="100" pos="348" pan="0"/>
          <note len="12" key="52" vol="100" pos="360" pan="0"/>
          <note len="12" key="52" vol="100" pos="372" pan="0"/>
        </pattern>
        <pattern muted="0" name="Rhythm Guitar" pos="7296" type="1" steps="16">
          <note len="12" key="48" vol="100" pos="0" pan="0"/>
          <note len="12" key="48" vol="100" pos="12" pan="0"/>
          <note len="12" key="48" vol="100" pos="24" pan="0"/>
          <note len="12" key="48" vol="100" pos="36" pan="0"/>
          <note len="12" key="48" vol="100" pos="48" pan="0"/>
          <note len="12" key="48" vol="100" pos="60" pan="0"/>
          <note len="12" key="48" vol="100" pos="72" pan="0"/>
          <note len="12" key="48" vol="100" pos="84" pan="0"/>
          <note len="12" key="48" vol="100" pos="96" pan="0"/>
          <note len="12" key="48" vol="100" pos="108" pan="0"/>
          <note len="12" key="48" vol="100" pos="120" pan="0"/>
          <note len="12" key="48" vol="100" pos="132" pan="0"/>
          <note len="12" key="48" vol="100" pos="144" pan="0"/>
          <note len="12" key="48" vol="100" pos="156" pan="0"/>
          <note len="12" key="48" vol="100" pos="168" pan="0"/>
          <note len="12" key="48" vol="100" pos="180" pan="0"/>
          <note len="12" key="50" vol="100" pos="192" pan="0"/>
          <note len="12" key="50" vol="100" pos="204" pan="0"/>
          <note len="12" key="50" vol="100" pos="216" pan="0"/>
          <note len="12" key="50" vol="100" pos="228" pan="0"/>
          <note len="12" key="50" vol="100" pos="240" pan="0"/>
          <note len="12" key="50" vol="100" pos="252" pan="0"/>
          <note len="12" key="50" vol="100" pos="264" pan="0"/>
          <note len="12" key="50" vol="100" pos="276" pan="0"/>
          <note len="12" key="50" vol="100" pos="288" pan="0"/>
          <note len="12" key="50" vol="100" pos="300" pan="0"/>
          <note len="12" key="50" vol="100" pos="312" pan="0"/>
          <note len="12" key="50" vol="100" pos="324" pan="0"/>
          <note len="12" key="50" vol="100" pos="336" pan="0"/>
          <note len="12" key="50" vol="100" pos="348" pan="0"/>
          <note len="12" key="50" vol="100" pos="360" pan="0"/>
          <note len="12" key="50" vol="100" pos="372" pan="0"/>
        </pattern>
        <pattern muted="0" name="Rhythm Guitar" pos="7680" type="1" steps="16">
          <note len="192" key="43" vol="100" pos="0" pan="0"/>
          <note len="192" key="36" vol="100" pos="0" pan="0"/>
          <note len="48" key="0" vol="100" pos="0" pan="0"/>
          <note len="192" key="50" vol="100" pos="192" pan="0"/>
          <note len="192" key="43" vol="100" pos="192" pan="0"/>
          <note len="192" key="57" vol="100" pos="384" pan="0"/>
          <note len="192" key="50" vol="100" pos="384" pan="0"/>
          <note len="192" key="47" vol="100" pos="576" pan="0"/>
          <note len="192" key="40" vol="100" pos="576" pan="0"/>
        </pattern>
        <pattern muted="0" name="Rhythm Guitar" pos="8448" type="1" steps="16">
          <note len="24" key="55" vol="100" pos="0" pan="0"/>
          <note len="24" key="48" vol="100" pos="0" pan="0"/>
          <note len="24" key="0" vol="100" pos="0" pan="0"/>
          <note len="12" key="48" vol="100" pos="24" pan="0"/>
          <note len="24" key="1" vol="100" pos="24" pan="0"/>
          <note len="12" key="48" vol="100" pos="36" pan="0"/>
          <note len="12" key="48" vol="100" pos="48" pan="0"/>
          <note len="12" key="48" vol="100" pos="60" pan="0"/>
          <note len="12" key="48" vol="100" pos="72" pan="0"/>
          <note len="12" key="48" vol="100" pos="84" pan="0"/>
          <note len="24" key="55" vol="100" pos="96" pan="0"/>
          <note len="24" key="48" vol="100" pos="96" pan="0"/>
          <note len="24" key="0" vol="100" pos="96" pan="0"/>
          <note len="12" key="48" vol="100" pos="120" pan="0"/>
          <note len="24" key="1" vol="100" pos="120" pan="0"/>
          <note len="12" key="48" vol="100" pos="132" pan="0"/>
          <note len="24" key="55" vol="100" pos="144" pan="0"/>
          <note len="24" key="48" vol="100" pos="144" pan="0"/>
          <note len="24" key="0" vol="100" pos="144" pan="0"/>
          <note len="12" key="48" vol="100" pos="168" pan="0"/>
          <note len="24" key="1" vol="100" pos="168" pan="0"/>
          <note len="12" key="48" vol="100" pos="180" pan="0"/>
          <note len="24" key="50" vol="100" pos="192" pan="0"/>
          <note len="24" key="43" vol="100" pos="192" pan="0"/>
          <note len="24" key="0" vol="100" pos="192" pan="0"/>
          <note len="12" key="43" vol="100" pos="216" pan="0"/>
          <note len="24" key="1" vol="100" pos="216" pan="0"/>
          <note len="12" key="43" vol="100" pos="228" pan="0"/>
          <note len="12" key="43" vol="100" pos="240" pan="0"/>
          <note len="12" key="43" vol="100" pos="252" pan="0"/>
          <note len="12" key="43" vol="100" pos="264" pan="0"/>
          <note len="12" key="43" vol="100" pos="276" pan="0"/>
          <note len="24" key="50" vol="100" pos="288" pan="0"/>
          <note len="24" key="43" vol="100" pos="288" pan="0"/>
          <note len="24" key="0" vol="100" pos="288" pan="0"/>
          <note len="12" key="43" vol="100" pos="312" pan="0"/>
          <note len="24" key="1" vol="100" pos="312" pan="0"/>
          <note len="12" key="43" vol="100" pos="324" pan="0"/>
          <note len="24" key="50" vol="100" pos="336" pan="0"/>
          <note len="24" key="43" vol="100" pos="336" pan="0"/>
          <note len="24" key="0" vol="100" pos="336" pan="0"/>
          <note len="12" key="43" vol="100" pos="360" pan="0"/>
          <note len="24" key="1" vol="100" pos="360" pan="0"/>
          <note len="12" key="43" vol="100" pos="372" pan="0"/>
          <note len="12" key="50" vol="100" pos="384" pan="0"/>
          <note len="12" key="50" vol="100" pos="396" pan="0"/>
          <note len="12" key="50" vol="100" pos="408" pan="0"/>
          <note len="12" key="50" vol="100" pos="420" pan="0"/>
          <note len="12" key="50" vol="100" pos="432" pan="0"/>
          <note len="12" key="50" vol="100" pos="444" pan="0"/>
          <note len="12" key="50" vol="100" pos="456" pan="0"/>
          <note len="12" key="50" vol="100" pos="468" pan="0"/>
          <note len="12" key="50" vol="100" pos="480" pan="0"/>
          <note len="12" key="50" vol="100" pos="492" pan="0"/>
          <note len="12" key="50" vol="100" pos="504" pan="0"/>
          <note len="12" key="50" vol="100" pos="516" pan="0"/>
          <note len="12" key="50" vol="100" pos="528" pan="0"/>
          <note len="12" key="50" vol="100" pos="540" pan="0"/>
          <note len="12" key="50" vol="100" pos="552" pan="0"/>
          <note len="12" key="50" vol="100" pos="564" pan="0"/>
          <note len="48" key="57" vol="100" pos="576" pan="0"/>
          <note len="48" key="50" vol="100" pos="576" pan="0"/>
          <note len="12" key="0" vol="100" pos="576" pan="0"/>
        </pattern>
        <pattern muted="0" name="Rhythm Guitar" pos="12288" type="1" steps="16">
          <note len="24" key="52" vol="100" pos="0" pan="0"/>
          <note len="12" key="0" vol="100" pos="0" pan="0"/>
          <note len="12" key="1" vol="100" pos="12" pan="0"/>
          <note len="12" key="40" vol="100" pos="24" pan="0"/>
          <note len="12" key="40" vol="100" pos="36" pan="0"/>
          <note len="12" key="40" vol="100" pos="48" pan="0"/>
          <note len="12" key="40" vol="100" pos="60" pan="0"/>
          <note len="12" key="40" vol="100" pos="72" pan="0"/>
          <note len="12" key="40" vol="100" pos="84" pan="0"/>
          <note len="12" key="40" vol="100" pos="96" pan="0"/>
          <note len="12" key="40" vol="100" pos="108" pan="0"/>
          <note len="12" key="42" vol="100" pos="120" pan="0"/>
          <note len="12" key="0" vol="100" pos="120" pan="0"/>
          <note len="12" key="43" vol="100" pos="132" pan="0"/>
          <note len="12" key="1" vol="100" pos="132" pan="0"/>
          <note len="12" key="40" vol="100" pos="144" pan="0"/>
          <note len="12" key="40" vol="100" pos="156" pan="0"/>
          <note len="12" key="40" vol="100" pos="168" pan="0"/>
          <note len="12" key="40" vol="100" pos="180" pan="0"/>
        </pattern>
        <pattern muted="0" name="Rhythm Guitar" pos="12480" type="1" steps="16">
          <note len="24" key="52" vol="100" pos="0" pan="0"/>
          <note len="12" key="0" vol="100" pos="0" pan="0"/>
          <note len="12" key="1" vol="100" pos="12" pan="0"/>
          <note len="12" key="40" vol="100" pos="24" pan="0"/>
          <note len="12" key="40" vol="100" pos="36" pan="0"/>
          <note len="12" key="40" vol="100" pos="48" pan="0"/>
          <note len="12" key="40" vol="100" pos="60" pan="0"/>
          <note len="12" key="40" vol="100" pos="72" pan="0"/>
          <note len="12" key="40" vol="100" pos="84" pan="0"/>
          <note len="12" key="40" vol="100" pos="96" pan="0"/>
          <note len="12" key="40" vol="100" pos="108" pan="0"/>
          <note len="12" key="42" vol="100" pos="120" pan="0"/>
          <note len="12" key="0" vol="100" pos="120" pan="0"/>
          <note len="12" key="43" vol="100" pos="132" pan="0"/>
          <note len="12" key="1" vol="100" pos="132" pan="0"/>
          <note len="12" key="40" vol="100" pos="144" pan="0"/>
          <note len="12" key="40" vol="100" pos="156" pan="0"/>
          <note len="12" key="40" vol="100" pos="168" pan="0"/>
          <note len="12" key="40" vol="100" pos="180" pan="0"/>
        </pattern>
        <pattern muted="0" name="Rhythm Guitar" pos="12672" type="1" steps="16">
          <note len="24" key="50" vol="100" pos="0" pan="0"/>
          <note len="24" key="43" vol="100" pos="0" pan="0"/>
          <note len="24" key="1" vol="100" pos="0" pan="0"/>
          <note len="24" key="50" vol="100" pos="24" pan="0"/>
          <note len="24" key="43" vol="100" pos="24" pan="0"/>
          <note len="24" key="50" vol="100" pos="48" pan="0"/>
          <note len="24" key="43" vol="100" pos="48" pan="0"/>
          <note len="48" key="50" vol="100" pos="72" pan="0"/>
          <note len="48" key="43" vol="100" pos="72" pan="0"/>
          <note len="24" key="0" vol="100" pos="72" pan="0"/>
          <note len="24" key="50" vol="100" pos="120" pan="0"/>
          <note len="24" key="43" vol="100" pos="120" pan="0"/>
          <note len="24" key="1" vol="100" pos="120" pan="0"/>
          <note len="24" key="50" vol="100" pos="144" pan="0"/>
          <note len="24" key="43" vol="100" pos="144" pan="0"/>
          <note len="48" key="50" vol="100" pos="168" pan="0"/>
          <note len="48" key="43" vol="100" pos="168" pan="0"/>
          <note len="24" key="0" vol="100" pos="168" pan="0"/>
          <note len="24" key="50" vol="100" pos="216" pan="0"/>
          <note len="24" key="43" vol="100" pos="216" pan="0"/>
          <note len="24" key="1" vol="100" pos="216" pan="0"/>
          <note len="24" key="45" vol="100" pos="240" pan="0"/>
          <note len="24" key="43" vol="100" pos="264" pan="0"/>
          <note len="24" key="45" vol="100" pos="288" pan="0"/>
          <note len="24" key="0" vol="100" pos="288" pan="0"/>
          <note len="24" key="47" vol="100" pos="312" pan="0"/>
          <note len="24" key="45" vol="100" pos="336" pan="0"/>
          <note len="24" key="43" vol="100" pos="360" pan="0"/>
        </pattern>
        <pattern muted="0" name="Rhythm Guitar" pos="13056" type="1" steps="16">
          <note len="12" key="48" vol="100" pos="0" pan="0"/>
          <note len="12" key="1" vol="100" pos="0" pan="0"/>
          <note len="12" key="48" vol="100" pos="12" pan="0"/>
          <note len="12" key="48" vol="100" pos="24" pan="0"/>
          <note len="12" key="48" vol="100" pos="36" pan="0"/>
          <note len="12" key="48" vol="100" pos="48" pan="0"/>
          <note len="12" key="48" vol="100" pos="60" pan="0"/>
          <note len="12" key="48" vol="100" pos="72" pan="0"/>
          <note len="12" key="48" vol="100" pos="84" pan="0"/>
          <note len="12" key="48" vol="100" pos="96" pan="0"/>
          <note len="12" key="48" vol="100" pos="108" pan="0"/>
          <note len="12" key="48" vol="100" pos="120" pan="0"/>
          <note len="12" key="48" vol="100" pos="132" pan="0"/>
          <note len="12" key="48" vol="100" pos="144" pan="0"/>
          <note len="12" key="48" vol="100" pos="156" pan="0"/>
          <note len="12" key="48" vol="100" pos="168" pan="0"/>
          <note len="12" key="48" vol="100" pos="180" pan="0"/>
        </pattern>
        <pattern muted="0" name="Rhythm Guitar" pos="13248" type="1" steps="16">
          <note len="12" key="48" vol="100" pos="0" pan="0"/>
          <note len="12" key="1" vol="100" pos="0" pan="0"/>
          <note len="12" key="48" vol="100" pos="12" pan="0"/>
          <note len="12" key="48" vol="100" pos="24" pan="0"/>
          <note len="12" key="48" vol="100" pos="36" pan="0"/>
          <note len="12" key="48" vol="100" pos="48" pan="0"/>
          <note len="12" key="48" vol="100" pos="60" pan="0"/>
          <note len="12" key="48" vol="100" pos="72" pan="0"/>
          <note len="12" key="48" vol="100" pos="84" pan="0"/>
          <note len="12" key="48" vol="100" pos="96" pan="0"/>
          <note len="12" key="48" vol="100" pos="108" pan="0"/>
          <note len="12" key="48" vol="100" pos="120" pan="0"/>
          <note len="12" key="48" vol="100" pos="132" pan="0"/>
          <note len="12" key="48" vol="100" pos="144" pan="0"/>
          <note len="12" key="48" vol="100" pos="156" pan="0"/>
          <note len="12" key="48" vol="100" pos="168" pan="0"/>
          <note len="12" key="48" vol="100" pos="180" pan="0"/>
        </pattern>
        <pattern muted="0" name="Rhythm Guitar" pos="13440" type="1" steps="16">
          <note len="12" key="43" vol="100" pos="0" pan="0"/>
          <note len="12" key="1" vol="100" pos="0" pan="0"/>
          <note len="12" key="43" vol="100" pos="12" pan="0"/>
          <note len="12" key="43" vol="100" pos="24" pan="0"/>
          <note len="12" key="43" vol="100" pos="36" pan="0"/>
          <note len="12" key="43" vol="100" pos="48" pan="0"/>
          <note len="12" key="43" vol="100" pos="60" pan="0"/>
          <note len="12" key="43" vol="100" pos="72" pan="0"/>
          <note len="12" key="43" vol="100" pos="84" pan="0"/>
          <note len="12" key="43" vol="100" pos="96" pan="0"/>
          <note len="12" key="43" vol="100" pos="108" pan="0"/>
          <note len="12" key="43" vol="100" pos="120" pan="0"/>
          <note len="12" key="43" vol="100" pos="132" pan="0"/>
          <note len="12" key="43" vol="100" pos="144" pan="0"/>
          <note len="12" key="43" vol="100" pos="156" pan="0"/>
          <note len="12" key="43" vol="100" pos="168" pan="0"/>
          <note len="12" key="43" vol="100" pos="180" pan="0"/>
          <note len="12" key="50" vol="100" pos="192" pan="0"/>
          <note len="12" key="50" vol="100" pos="204" pan="0"/>
          <note len="12" key="50" vol="100" pos="216" pan="0"/>
          <note len="12" key="50" vol="100" pos="228" pan="0"/>
          <note len="12" key="50" vol="100" pos="240" pan="0"/>
          <note len="12" key="50" vol="100" pos="252" pan="0"/>
          <note len="12" key="50" vol="100" pos="264" pan="0"/>
          <note len="12" key="50" vol="100" pos="276" pan="0"/>
          <note len="12" key="50" vol="100" pos="288" pan="0"/>
          <note len="12" key="50" vol="100" pos="300" pan="0"/>
          <note len="12" key="50" vol="100" pos="312" pan="0"/>
          <note len="12" key="50" vol="100" pos="324" pan="0"/>
          <note len="48" key="57" vol="100" pos="336" pan="0"/>
          <note len="48" key="50" vol="100" pos="336" pan="0"/>
          <note len="48" key="0" vol="100" pos="336" pan="0"/>
        </pattern>
        <pattern muted="0" name="Rhythm Guitar" pos="13824" type="1" steps="16">
          <note len="24" key="47" vol="100" pos="0" pan="0"/>
          <note len="24" key="40" vol="100" pos="0" pan="0"/>
          <note len="24" key="1" vol="100" pos="0" pan="0"/>
          <note len="24" key="47" vol="100" pos="24" pan="0"/>
          <note len="24" key="40" vol="100" pos="24" pan="0"/>
          <note len="48" key="47" vol="100" pos="192" pan="0"/>
          <note len="48" key="40" vol="100" pos="192" pan="0"/>
          <note len="24" key="0" vol="100" pos="192" pan="0"/>
          <note len="24" key="1" vol="100" pos="216" pan="0"/>
          <note len="24" key="47" vol="100" pos="240" pan="0"/>
          <note len="24" key="40" vol="100" pos="240" pan="0"/>
          <note len="48" key="45" vol="100" pos="264" pan="0"/>
          <note len="48" key="38" vol="100" pos="264" pan="0"/>
          <note len="24" key="0" vol="100" pos="264" pan="0"/>
          <note len="24" key="45" vol="100" pos="312" pan="0"/>
          <note len="24" key="38" vol="100" pos="312" pan="0"/>
          <note len="24" key="1" vol="100" pos="312" pan="0"/>
          <note len="48" key="47" vol="100" pos="336" pan="0"/>
          <note len="48" key="40" vol="100" pos="336" pan="0"/>
          <note len="24" key="0" vol="100" pos="336" pan="0"/>
        </pattern>
        <pattern muted="0" name="" pos="14208" type="1" steps="16">
          <note len="24" key="47" vol="100" pos="0" pan="0"/>
          <note len="24" key="40" vol="100" pos="0" pan="0"/>
          <note len="24" key="1" vol="100" pos="0" pan="0"/>
          <note len="24" key="47" vol="100" pos="24" pan="0"/>
          <note len="24" key="40" vol="100" pos="24" pan="0"/>
          <note len="48" key="47" vol="100" pos="48" pan="0"/>
          <note len="48" key="40" vol="100" pos="48" pan="0"/>
          <note len="48" key="0" vol="100" pos="48" pan="0"/>
          <note len="48" key="43" vol="100" pos="96" pan="0"/>
          <note len="48" key="36" vol="100" pos="96" pan="0"/>
          <note len="48" key="42" vol="100" pos="144" pan="0"/>
          <note len="48" key="35" vol="100" pos="144" pan="0"/>
          <note len="24" key="47" vol="100" pos="192" pan="0"/>
          <note len="24" key="40" vol="100" pos="192" pan="0"/>
          <note len="24" key="0" vol="100" pos="192" pan="0"/>
          <note len="12" key="40" vol="100" pos="216" pan="0"/>
          <note len="24" key="1" vol="100" pos="216" pan="0"/>
          <note len="12" key="40" vol="100" pos="228" pan="0"/>
          <note len="12" key="40" vol="100" pos="240" pan="0"/>
          <note len="12" key="40" vol="100" pos="252" pan="0"/>
          <note len="24" key="45" vol="100" pos="264" pan="0"/>
          <note len="24" key="38" vol="100" pos="264" pan="0"/>
          <note len="24" key="0" vol="100" pos="264" pan="0"/>
          <note len="12" key="38" vol="100" pos="288" pan="0"/>
          <note len="24" key="1" vol="100" pos="288" pan="0"/>
          <note len="12" key="38" vol="100" pos="300" pan="0"/>
          <note len="12" key="38" vol="100" pos="312" pan="0"/>
          <note len="12" key="38" vol="100" pos="324" pan="0"/>
          <note len="24" key="40" vol="100" pos="336" pan="0"/>
          <note len="24" key="0" vol="100" pos="336" pan="0"/>
          <note len="24" key="43" vol="100" pos="360" pan="0"/>
        </pattern>
        <pattern muted="0" name="" pos="14592" type="1" steps="16">
          <note len="24" key="47" vol="100" pos="0" pan="0"/>
          <note len="24" key="40" vol="100" pos="0" pan="0"/>
          <note len="24" key="1" vol="100" pos="0" pan="0"/>
          <note len="24" key="47" vol="100" pos="24" pan="0"/>
          <note len="24" key="40" vol="100" pos="24" pan="0"/>
          <note len="48" key="47" vol="100" pos="48" pan="0"/>
          <note len="48" key="40" vol="100" pos="48" pan="0"/>
          <note len="48" key="0" vol="100" pos="48" pan="0"/>
          <note len="48" key="43" vol="100" pos="96" pan="0"/>
          <note len="48" key="36" vol="100" pos="96" pan="0"/>
          <note len="48" key="42" vol="100" pos="144" pan="0"/>
          <note len="48" key="35" vol="100" pos="144" pan="0"/>
          <note len="24" key="47" vol="100" pos="192" pan="0"/>
          <note len="24" key="40" vol="100" pos="192" pan="0"/>
          <note len="24" key="0" vol="100" pos="192" pan="0"/>
          <note len="12" key="40" vol="100" pos="216" pan="0"/>
          <note len="24" key="1" vol="100" pos="216" pan="0"/>
          <note len="12" key="40" vol="100" pos="228" pan="0"/>
          <note len="12" key="40" vol="100" pos="240" pan="0"/>
          <note len="12" key="40" vol="100" pos="252" pan="0"/>
          <note len="24" key="45" vol="100" pos="264" pan="0"/>
          <note len="24" key="38" vol="100" pos="264" pan="0"/>
          <note len="24" key="0" vol="100" pos="264" pan="0"/>
          <note len="12" key="38" vol="100" pos="288" pan="0"/>
          <note len="24" key="1" vol="100" pos="288" pan="0"/>
          <note len="12" key="38" vol="100" pos="300" pan="0"/>
          <note len="12" key="38" vol="100" pos="312" pan="0"/>
          <note len="12" key="38" vol="100" pos="324" pan="0"/>
          <note len="24" key="43" vol="100" pos="336" pan="0"/>
          <note len="24" key="0" vol="100" pos="336" pan="0"/>
          <note len="24" key="47" vol="100" pos="360" pan="0"/>
        </pattern>
        <pattern muted="0" name="Rhythm Guitar" pos="14976" type="1" steps="16">
          <note len="12" key="42" vol="100" pos="0" pan="0"/>
          <note len="12" key="0" vol="100" pos="0" pan="0"/>
          <note len="12" key="43" vol="100" pos="12" pan="0"/>
          <note len="12" key="45" vol="100" pos="24" pan="0"/>
          <note len="12" key="47" vol="100" pos="36" pan="0"/>
          <note len="12" key="48" vol="100" pos="48" pan="0"/>
          <note len="12" key="47" vol="100" pos="60" pan="0"/>
          <note len="12" key="48" vol="100" pos="72" pan="0"/>
          <note len="12" key="50" vol="100" pos="84" pan="0"/>
          <note len="12" key="55" vol="100" pos="96" pan="0"/>
          <note len="12" key="54" vol="100" pos="108" pan="0"/>
          <note len="12" key="52" vol="100" pos="120" pan="0"/>
          <note len="12" key="50" vol="100" pos="132" pan="0"/>
          <note len="12" key="48" vol="100" pos="144" pan="0"/>
          <note len="12" key="47" vol="100" pos="156" pan="0"/>
          <note len="12" key="48" vol="100" pos="168" pan="0"/>
          <note len="12" key="47" vol="100" pos="180" pan="0"/>
          <note len="24" key="57" vol="100" pos="192" pan="0"/>
          <note len="24" key="50" vol="100" pos="192" pan="0"/>
          <note len="12" key="0" vol="100" pos="192" pan="0"/>
          <note len="12" key="50" vol="100" pos="216" pan="0"/>
          <note len="12" key="1" vol="100" pos="216" pan="0"/>
          <note len="12" key="50" vol="100" pos="228" pan="0"/>
          <note len="12" key="50" vol="100" pos="240" pan="0"/>
          <note len="12" key="50" vol="100" pos="252" pan="0"/>
          <note len="24" key="57" vol="100" pos="264" pan="0"/>
          <note len="24" key="50" vol="100" pos="264" pan="0"/>
          <note len="24" key="0" vol="100" pos="264" pan="0"/>
          <note len="12" key="50" vol="100" pos="288" pan="0"/>
          <note len="24" key="1" vol="100" pos="288" pan="0"/>
          <note len="12" key="50" vol="100" pos="300" pan="0"/>
          <note len="12" key="50" vol="100" pos="312" pan="0"/>
          <note len="12" key="50" vol="100" pos="324" pan="0"/>
          <note len="24" key="57" vol="100" pos="336" pan="0"/>
          <note len="24" key="50" vol="100" pos="336" pan="0"/>
          <note len="24" key="0" vol="100" pos="336" pan="0"/>
          <note len="12" key="50" vol="100" pos="360" pan="0"/>
          <note len="24" key="1" vol="100" pos="360" pan="0"/>
          <note len="12" key="50" vol="100" pos="372" pan="0"/>
          <note len="12" key="53" vol="100" pos="432" pan="0"/>
        </pattern>
        <pattern muted="0" name="" pos="16128" type="1" steps="16">
          <note len="24" key="1" vol="100" pos="0" pan="0"/>
          <note len="24" key="0" vol="100" pos="48" pan="0"/>
          <note len="24" key="1" vol="100" pos="72" pan="0"/>
          <note len="24" key="0" vol="100" pos="96" pan="0"/>
          <note len="24" key="1" vol="100" pos="120" pan="0"/>
          <note len="24" key="0" vol="100" pos="144" pan="0"/>
          <note len="24" key="1" vol="100" pos="168" pan="0"/>
          <note len="12" key="52" vol="100" pos="192" pan="0"/>
          <note len="12" key="52" vol="100" pos="204" pan="0"/>
          <note len="12" key="52" vol="100" pos="216" pan="0"/>
          <note len="12" key="52" vol="100" pos="228" pan="0"/>
          <note len="12" key="52" vol="100" pos="240" pan="0"/>
          <note len="12" key="52" vol="100" pos="252" pan="0"/>
          <note len="12" key="52" vol="100" pos="264" pan="0"/>
          <note len="12" key="52" vol="100" pos="276" pan="0"/>
          <note len="12" key="52" vol="100" pos="288" pan="0"/>
          <note len="12" key="52" vol="100" pos="300" pan="0"/>
          <note len="12" key="52" vol="100" pos="312" pan="0"/>
          <note len="12" key="52" vol="100" pos="324" pan="0"/>
          <note len="12" key="52" vol="100" pos="336" pan="0"/>
          <note len="12" key="52" vol="100" pos="348" pan="0"/>
          <note len="12" key="52" vol="100" pos="360" pan="0"/>
          <note len="12" key="52" vol="100" pos="372" pan="0"/>
        </pattern>
        <pattern muted="0" name="" pos="16512" type="1" steps="16">
          <note len="12" key="48" vol="100" pos="0" pan="0"/>
          <note len="12" key="48" vol="100" pos="12" pan="0"/>
          <note len="12" key="48" vol="100" pos="24" pan="0"/>
          <note len="12" key="48" vol="100" pos="36" pan="0"/>
          <note len="12" key="48" vol="100" pos="48" pan="0"/>
          <note len="12" key="48" vol="100" pos="60" pan="0"/>
          <note len="12" key="48" vol="100" pos="72" pan="0"/>
          <note len="12" key="48" vol="100" pos="84" pan="0"/>
          <note len="12" key="48" vol="100" pos="96" pan="0"/>
          <note len="12" key="48" vol="100" pos="108" pan="0"/>
          <note len="12" key="48" vol="100" pos="120" pan="0"/>
          <note len="12" key="48" vol="100" pos="132" pan="0"/>
          <note len="12" key="48" vol="100" pos="144" pan="0"/>
          <note len="12" key="48" vol="100" pos="156" pan="0"/>
          <note len="12" key="48" vol="100" pos="168" pan="0"/>
          <note len="12" key="48" vol="100" pos="180" pan="0"/>
          <note len="12" key="50" vol="100" pos="192" pan="0"/>
          <note len="12" key="50" vol="100" pos="204" pan="0"/>
          <note len="12" key="50" vol="100" pos="216" pan="0"/>
          <note len="12" key="50" vol="100" pos="228" pan="0"/>
          <note len="12" key="50" vol="100" pos="240" pan="0"/>
          <note len="12" key="50" vol="100" pos="252" pan="0"/>
          <note len="12" key="50" vol="100" pos="264" pan="0"/>
          <note len="12" key="50" vol="100" pos="276" pan="0"/>
          <note len="12" key="50" vol="100" pos="288" pan="0"/>
          <note len="12" key="50" vol="100" pos="300" pan="0"/>
          <note len="12" key="50" vol="100" pos="312" pan="0"/>
          <note len="12" key="50" vol="100" pos="324" pan="0"/>
          <note len="12" key="50" vol="100" pos="336" pan="0"/>
          <note len="12" key="50" vol="100" pos="348" pan="0"/>
          <note len="12" key="50" vol="100" pos="360" pan="0"/>
          <note len="12" key="50" vol="100" pos="372" pan="0"/>
        </pattern>
        <pattern muted="0" name="" pos="16896" type="1" steps="16">
          <note len="192" key="43" vol="100" pos="0" pan="0"/>
          <note len="192" key="36" vol="100" pos="0" pan="0"/>
          <note len="48" key="0" vol="100" pos="0" pan="0"/>
          <note len="192" key="50" vol="100" pos="192" pan="0"/>
          <note len="192" key="43" vol="100" pos="192" pan="0"/>
          <note len="192" key="57" vol="100" pos="384" pan="0"/>
          <note len="192" key="50" vol="100" pos="384" pan="0"/>
          <note len="192" key="47" vol="100" pos="576" pan="0"/>
          <note len="192" key="40" vol="100" pos="576" pan="0"/>
        </pattern>
        <pattern muted="0" name="" pos="17664" type="1" steps="16">
          <note len="24" key="55" vol="100" pos="0" pan="0"/>
          <note len="24" key="48" vol="100" pos="0" pan="0"/>
          <note len="24" key="0" vol="100" pos="0" pan="0"/>
          <note len="12" key="48" vol="100" pos="24" pan="0"/>
          <note len="24" key="1" vol="100" pos="24" pan="0"/>
          <note len="12" key="48" vol="100" pos="36" pan="0"/>
          <note len="12" key="48" vol="100" pos="48" pan="0"/>
          <note len="12" key="48" vol="100" pos="60" pan="0"/>
          <note len="12" key="48" vol="100" pos="72" pan="0"/>
          <note len="12" key="48" vol="100" pos="84" pan="0"/>
          <note len="24" key="55" vol="100" pos="96" pan="0"/>
          <note len="24" key="48" vol="100" pos="96" pan="0"/>
          <note len="24" key="0" vol="100" pos="96" pan="0"/>
          <note len="12" key="48" vol="100" pos="120" pan="0"/>
          <note len="24" key="1" vol="100" pos="120" pan="0"/>
          <note len="12" key="48" vol="100" pos="132" pan="0"/>
          <note len="24" key="55" vol="100" pos="144" pan="0"/>
          <note len="24" key="48" vol="100" pos="144" pan="0"/>
          <note len="24" key="0" vol="100" pos="144" pan="0"/>
          <note len="12" key="48" vol="100" pos="168" pan="0"/>
          <note len="24" key="1" vol="100" pos="168" pan="0"/>
          <note len="12" key="48" vol="100" pos="180" pan="0"/>
          <note len="24" key="50" vol="100" pos="192" pan="0"/>
          <note len="24" key="43" vol="100" pos="192" pan="0"/>
          <note len="24" key="0" vol="100" pos="192" pan="0"/>
          <note len="12" key="43" vol="100" pos="216" pan="0"/>
          <note len="24" key="1" vol="100" pos="216" pan="0"/>
          <note len="12" key="43" vol="100" pos="228" pan="0"/>
          <note len="12" key="43" vol="100" pos="240" pan="0"/>
          <note len="12" key="43" vol="100" pos="252" pan="0"/>
          <note len="12" key="43" vol="100" pos="264" pan="0"/>
          <note len="12" key="43" vol="100" pos="276" pan="0"/>
          <note len="24" key="50" vol="100" pos="288" pan="0"/>
          <note len="24" key="43" vol="100" pos="288" pan="0"/>
          <note len="24" key="0" vol="100" pos="288" pan="0"/>
          <note len="12" key="43" vol="100" pos="312" pan="0"/>
          <note len="24" key="1" vol="100" pos="312" pan="0"/>
          <note len="12" key="43" vol="100" pos="324" pan="0"/>
          <note len="24" key="50" vol="100" pos="336" pan="0"/>
          <note len="24" key="43" vol="100" pos="336" pan="0"/>
          <note len="24" key="0" vol="100" pos="336" pan="0"/>
          <note len="12" key="43" vol="100" pos="360" pan="0"/>
          <note len="24" key="1" vol="100" pos="360" pan="0"/>
          <note len="12" key="43" vol="100" pos="372" pan="0"/>
          <note len="12" key="50" vol="100" pos="384" pan="0"/>
          <note len="12" key="50" vol="100" pos="396" pan="0"/>
          <note len="12" key="50" vol="100" pos="408" pan="0"/>
          <note len="12" key="50" vol="100" pos="420" pan="0"/>
          <note len="12" key="50" vol="100" pos="432" pan="0"/>
          <note len="12" key="50" vol="100" pos="444" pan="0"/>
          <note len="12" key="50" vol="100" pos="456" pan="0"/>
          <note len="12" key="50" vol="100" pos="468" pan="0"/>
          <note len="12" key="50" vol="100" pos="480" pan="0"/>
          <note len="12" key="50" vol="100" pos="492" pan="0"/>
          <note len="12" key="50" vol="100" pos="504" pan="0"/>
          <note len="12" key="50" vol="100" pos="516" pan="0"/>
          <note len="12" key="50" vol="100" pos="528" pan="0"/>
          <note len="12" key="50" vol="100" pos="540" pan="0"/>
          <note len="12" key="50" vol="100" pos="552" pan="0"/>
          <note len="12" key="50" vol="100" pos="564" pan="0"/>
          <note len="12" key="50" vol="100" pos="576" pan="0"/>
          <note len="12" key="1" vol="100" pos="576" pan="0"/>
          <note len="12" key="48" vol="100" pos="588" pan="0"/>
          <note len="12" key="47" vol="100" pos="600" pan="0"/>
          <note len="12" key="45" vol="100" pos="612" pan="0"/>
          <note len="12" key="48" vol="100" pos="624" pan="0"/>
          <note len="12" key="47" vol="100" pos="636" pan="0"/>
          <note len="12" key="45" vol="100" pos="648" pan="0"/>
          <note len="12" key="43" vol="100" pos="660" pan="0"/>
          <note len="12" key="45" vol="100" pos="672" pan="0"/>
          <note len="12" key="43" vol="100" pos="684" pan="0"/>
          <note len="12" key="42" vol="100" pos="696" pan="0"/>
          <note len="12" key="40" vol="100" pos="708" pan="0"/>
          <note len="12" key="42" vol="100" pos="720" pan="0"/>
          <note len="12" key="43" vol="100" pos="732" pan="0"/>
          <note len="12" key="45" vol="100" pos="744" pan="0"/>
          <note len="12" key="47" vol="100" pos="756" pan="0"/>
        </pattern>
        <pattern muted="0" name="" pos="18432" type="1" steps="16">
          <note len="192" key="50" vol="100" pos="0" pan="0"/>
          <note len="192" key="43" vol="100" pos="0" pan="0"/>
          <note len="384" key="0" vol="100" pos="0" pan="0"/>
          <note len="192" key="50" vol="100" pos="192" pan="0"/>
          <note len="192" key="43" vol="100" pos="192" pan="0"/>
          <note len="192" key="45" vol="100" pos="384" pan="0"/>
          <note len="192" key="38" vol="100" pos="384" pan="0"/>
          <note len="192" key="45" vol="100" pos="576" pan="0"/>
          <note len="192" key="38" vol="100" pos="576" pan="0"/>
          <note len="192" key="47" vol="100" pos="768" pan="0"/>
          <note len="192" key="40" vol="100" pos="768" pan="0"/>
          <note len="192" key="45" vol="100" pos="960" pan="0"/>
          <note len="192" key="38" vol="100" pos="960" pan="0"/>
          <note len="192" key="43" vol="100" pos="1152" pan="0"/>
          <note len="192" key="36" vol="100" pos="1152" pan="0"/>
          <note len="192" key="45" vol="100" pos="1344" pan="0"/>
          <note len="192" key="38" vol="100" pos="1344" pan="0"/>
        </pattern>
        <pattern muted="0" name="Rhythm Guitar" pos="21504" type="1" steps="16">
          <note len="24" key="47" vol="191" pos="0" pan="0"/>
          <note len="24" key="40" vol="191" pos="0" pan="0"/>
          <note len="24" key="0" vol="191" pos="0" pan="0"/>
          <note len="48" key="47" vol="191" pos="24" pan="0"/>
          <note len="48" key="40" vol="191" pos="24" pan="0"/>
        </pattern>
        <pattern muted="0" name="" pos="21888" type="1" steps="16">
          <note len="24" key="47" vol="191" pos="0" pan="0"/>
          <note len="24" key="40" vol="191" pos="0" pan="0"/>
          <note len="24" key="0" vol="191" pos="0" pan="0"/>
          <note len="48" key="47" vol="191" pos="24" pan="0"/>
          <note len="48" key="40" vol="191" pos="24" pan="0"/>
        </pattern>
        <pattern muted="0" name="Rhythm Guitar" pos="22272" type="1" steps="16">
          <note len="192" key="47" vol="197" pos="0" pan="0"/>
          <note len="192" key="40" vol="197" pos="0" pan="0"/>
          <note len="192" key="47" vol="197" pos="192" pan="0"/>
          <note len="192" key="40" vol="197" pos="192" pan="0"/>
        </pattern>
        <pattern muted="0" name="Rhythm Guitar" pos="22656" type="1" steps="16">
          <note len="192" key="55" vol="191" pos="0" pan="0"/>
          <note len="192" key="48" vol="191" pos="0" pan="0"/>
          <note len="192" key="57" vol="191" pos="192" pan="0"/>
          <note len="192" key="50" vol="191" pos="192" pan="0"/>
        </pattern>
        <pattern muted="0" name="Rhythm Guitar" pos="23040" type="1" steps="16">
          <note len="24" key="47" vol="197" pos="0" pan="0"/>
          <note len="24" key="40" vol="197" pos="0" pan="0"/>
          <note len="24" key="1" vol="197" pos="0" pan="0"/>
          <note len="24" key="40" vol="197" pos="24" pan="0"/>
          <note len="24" key="40" vol="197" pos="48" pan="0"/>
          <note len="24" key="40" vol="197" pos="72" pan="0"/>
          <note len="24" key="47" vol="197" pos="96" pan="0"/>
          <note len="24" key="0" vol="197" pos="96" pan="0"/>
          <note len="24" key="47" vol="197" pos="120" pan="0"/>
          <note len="24" key="40" vol="197" pos="120" pan="0"/>
          <note len="24" key="1" vol="197" pos="120" pan="0"/>
          <note len="24" key="47" vol="197" pos="144" pan="0"/>
          <note len="24" key="40" vol="197" pos="144" pan="0"/>
          <note len="24" key="47" vol="197" pos="168" pan="0"/>
          <note len="24" key="40" vol="197" pos="168" pan="0"/>
          <note len="24" key="40" vol="197" pos="192" pan="0"/>
          <note len="24" key="1" vol="197" pos="192" pan="0"/>
          <note len="24" key="47" vol="197" pos="216" pan="0"/>
          <note len="24" key="0" vol="197" pos="216" pan="0"/>
          <note len="24" key="45" vol="197" pos="240" pan="0"/>
          <note len="24" key="47" vol="197" pos="264" pan="0"/>
          <note len="24" key="43" vol="197" pos="288" pan="0"/>
          <note len="24" key="1" vol="197" pos="288" pan="0"/>
          <note len="24" key="50" vol="197" pos="312" pan="0"/>
          <note len="24" key="0" vol="197" pos="312" pan="0"/>
          <note len="24" key="45" vol="197" pos="336" pan="0"/>
          <note len="24" key="47" vol="197" pos="360" pan="0"/>
        </pattern>
        <pattern muted="0" name="" pos="23424" type="1" steps="16">
          <note len="24" key="47" vol="197" pos="0" pan="0"/>
          <note len="24" key="40" vol="197" pos="0" pan="0"/>
          <note len="24" key="1" vol="197" pos="0" pan="0"/>
          <note len="24" key="40" vol="197" pos="24" pan="0"/>
          <note len="24" key="40" vol="197" pos="48" pan="0"/>
          <note len="24" key="40" vol="197" pos="72" pan="0"/>
          <note len="24" key="47" vol="197" pos="96" pan="0"/>
          <note len="24" key="0" vol="197" pos="96" pan="0"/>
          <note len="24" key="47" vol="197" pos="120" pan="0"/>
          <note len="24" key="40" vol="197" pos="120" pan="0"/>
          <note len="24" key="1" vol="197" pos="120" pan="0"/>
          <note len="24" key="47" vol="197" pos="144" pan="0"/>
          <note len="24" key="40" vol="197" pos="144" pan="0"/>
          <note len="24" key="47" vol="197" pos="168" pan="0"/>
          <note len="24" key="40" vol="197" pos="168" pan="0"/>
          <note len="24" key="40" vol="197" pos="192" pan="0"/>
          <note len="24" key="1" vol="197" pos="192" pan="0"/>
          <note len="24" key="47" vol="197" pos="216" pan="0"/>
          <note len="24" key="0" vol="197" pos="216" pan="0"/>
          <note len="24" key="45" vol="197" pos="240" pan="0"/>
          <note len="24" key="47" vol="197" pos="264" pan="0"/>
          <note len="24" key="43" vol="197" pos="288" pan="0"/>
          <note len="24" key="1" vol="197" pos="288" pan="0"/>
          <note len="24" key="50" vol="197" pos="312" pan="0"/>
          <note len="24" key="0" vol="197" pos="312" pan="0"/>
          <note len="24" key="45" vol="197" pos="336" pan="0"/>
          <note len="24" key="47" vol="197" pos="360" pan="0"/>
        </pattern>
        <pattern muted="0" name="" pos="23808" type="1" steps="16">
          <note len="24" key="47" vol="197" pos="0" pan="0"/>
          <note len="24" key="40" vol="197" pos="0" pan="0"/>
          <note len="24" key="1" vol="197" pos="0" pan="0"/>
          <note len="24" key="40" vol="197" pos="24" pan="0"/>
          <note len="24" key="40" vol="197" pos="48" pan="0"/>
          <note len="24" key="40" vol="197" pos="72" pan="0"/>
          <note len="24" key="47" vol="197" pos="96" pan="0"/>
          <note len="24" key="0" vol="197" pos="96" pan="0"/>
          <note len="24" key="47" vol="197" pos="120" pan="0"/>
          <note len="24" key="40" vol="197" pos="120" pan="0"/>
          <note len="24" key="1" vol="197" pos="120" pan="0"/>
          <note len="24" key="47" vol="197" pos="144" pan="0"/>
          <note len="24" key="40" vol="197" pos="144" pan="0"/>
          <note len="24" key="47" vol="197" pos="168" pan="0"/>
          <note len="24" key="40" vol="197" pos="168" pan="0"/>
          <note len="24" key="40" vol="197" pos="192" pan="0"/>
          <note len="24" key="1" vol="197" pos="192" pan="0"/>
          <note len="24" key="47" vol="197" pos="216" pan="0"/>
          <note len="24" key="0" vol="197" pos="216" pan="0"/>
          <note len="24" key="45" vol="197" pos="240" pan="0"/>
          <note len="24" key="47" vol="197" pos="264" pan="0"/>
          <note len="24" key="43" vol="197" pos="288" pan="0"/>
          <note len="24" key="1" vol="197" pos="288" pan="0"/>
          <note len="24" key="50" vol="197" pos="312" pan="0"/>
          <note len="24" key="0" vol="197" pos="312" pan="0"/>
          <note len="24" key="45" vol="197" pos="336" pan="0"/>
          <note len="24" key="47" vol="197" pos="360" pan="0"/>
        </pattern>
        <pattern muted="0" name="Rhythm Guitar" pos="24192" type="1" steps="16">
          <note len="192" key="55" vol="100" pos="0" pan="0"/>
          <note len="192" key="48" vol="100" pos="0" pan="0"/>
          <note len="96" key="50" vol="100" pos="192" pan="0"/>
          <note len="96" key="43" vol="100" pos="192" pan="0"/>
          <note len="96" key="54" vol="100" pos="288" pan="0"/>
          <note len="96" key="47" vol="100" pos="288" pan="0"/>
        </pattern>
        <pattern muted="0" name="" pos="19968" type="1" steps="16">
          <note len="192" key="50" vol="100" pos="0" pan="0"/>
          <note len="192" key="43" vol="100" pos="0" pan="0"/>
          <note len="384" key="0" vol="100" pos="0" pan="0"/>
          <note len="192" key="50" vol="100" pos="192" pan="0"/>
          <note len="192" key="43" vol="100" pos="192" pan="0"/>
          <note len="192" key="45" vol="100" pos="384" pan="0"/>
          <note len="192" key="38" vol="100" pos="384" pan="0"/>
          <note len="192" key="45" vol="100" pos="576" pan="0"/>
          <note len="192" key="38" vol="100" pos="576" pan="0"/>
          <note len="192" key="47" vol="100" pos="768" pan="0"/>
          <note len="192" key="40" vol="100" pos="768" pan="0"/>
          <note len="192" key="45" vol="100" pos="960" pan="0"/>
          <note len="192" key="38" vol="100" pos="960" pan="0"/>
          <note len="192" key="43" vol="100" pos="1152" pan="0"/>
          <note len="192" key="36" vol="100" pos="1152" pan="0"/>
          <note len="192" key="45" vol="100" pos="1344" pan="0"/>
          <note len="192" key="38" vol="100" pos="1344" pan="0"/>
        </pattern>
        <pattern muted="0" name="" pos="10752" type="1" steps="16">
          <note len="192" key="50" vol="100" pos="0" pan="0"/>
          <note len="192" key="43" vol="100" pos="0" pan="0"/>
          <note len="384" key="0" vol="100" pos="0" pan="0"/>
          <note len="192" key="50" vol="100" pos="192" pan="0"/>
          <note len="192" key="43" vol="100" pos="192" pan="0"/>
          <note len="192" key="45" vol="100" pos="384" pan="0"/>
          <note len="192" key="38" vol="100" pos="384" pan="0"/>
          <note len="192" key="45" vol="100" pos="576" pan="0"/>
          <note len="192" key="38" vol="100" pos="576" pan="0"/>
          <note len="192" key="47" vol="100" pos="768" pan="0"/>
          <note len="192" key="40" vol="100" pos="768" pan="0"/>
          <note len="192" key="45" vol="100" pos="960" pan="0"/>
          <note len="192" key="38" vol="100" pos="960" pan="0"/>
          <note len="192" key="43" vol="100" pos="1152" pan="0"/>
          <note len="192" key="36" vol="100" pos="1152" pan="0"/>
          <note len="192" key="45" vol="100" pos="1344" pan="0"/>
          <note len="192" key="38" vol="100" pos="1344" pan="0"/>
        </pattern>
        <pattern muted="0" name="" pos="9216" type="1" steps="16">
          <note len="192" key="50" vol="100" pos="0" pan="0"/>
          <note len="192" key="43" vol="100" pos="0" pan="0"/>
          <note len="384" key="0" vol="100" pos="0" pan="0"/>
          <note len="192" key="50" vol="100" pos="192" pan="0"/>
          <note len="192" key="43" vol="100" pos="192" pan="0"/>
          <note len="192" key="45" vol="100" pos="384" pan="0"/>
          <note len="192" key="38" vol="100" pos="384" pan="0"/>
          <note len="192" key="45" vol="100" pos="576" pan="0"/>
          <note len="192" key="38" vol="100" pos="576" pan="0"/>
          <note len="192" key="47" vol="100" pos="768" pan="0"/>
          <note len="192" key="40" vol="100" pos="768" pan="0"/>
          <note len="192" key="45" vol="100" pos="960" pan="0"/>
          <note len="192" key="38" vol="100" pos="960" pan="0"/>
          <note len="192" key="43" vol="100" pos="1152" pan="0"/>
          <note len="192" key="36" vol="100" pos="1152" pan="0"/>
          <note len="192" key="45" vol="100" pos="1344" pan="0"/>
          <note len="192" key="38" vol="100" pos="1344" pan="0"/>
        </pattern>
        <pattern muted="0" name="" pos="24576" type="1" steps="16">
          <note len="24" key="47" vol="197" pos="0" pan="0"/>
          <note len="24" key="40" vol="197" pos="0" pan="0"/>
          <note len="24" key="1" vol="197" pos="0" pan="0"/>
          <note len="24" key="40" vol="197" pos="24" pan="0"/>
          <note len="24" key="40" vol="197" pos="48" pan="0"/>
          <note len="24" key="40" vol="197" pos="72" pan="0"/>
          <note len="24" key="47" vol="197" pos="96" pan="0"/>
          <note len="24" key="0" vol="197" pos="96" pan="0"/>
          <note len="24" key="47" vol="197" pos="120" pan="0"/>
          <note len="24" key="40" vol="197" pos="120" pan="0"/>
          <note len="24" key="1" vol="197" pos="120" pan="0"/>
          <note len="24" key="47" vol="197" pos="144" pan="0"/>
          <note len="24" key="40" vol="197" pos="144" pan="0"/>
          <note len="24" key="47" vol="197" pos="168" pan="0"/>
          <note len="24" key="40" vol="197" pos="168" pan="0"/>
          <note len="24" key="40" vol="197" pos="192" pan="0"/>
          <note len="24" key="1" vol="197" pos="192" pan="0"/>
          <note len="24" key="47" vol="197" pos="216" pan="0"/>
          <note len="24" key="0" vol="197" pos="216" pan="0"/>
          <note len="24" key="45" vol="197" pos="240" pan="0"/>
          <note len="24" key="47" vol="197" pos="264" pan="0"/>
          <note len="24" key="43" vol="197" pos="288" pan="0"/>
          <note len="24" key="1" vol="197" pos="288" pan="0"/>
          <note len="24" key="50" vol="197" pos="312" pan="0"/>
          <note len="24" key="0" vol="197" pos="312" pan="0"/>
          <note len="24" key="45" vol="197" pos="336" pan="0"/>
          <note len="24" key="47" vol="197" pos="360" pan="0"/>
        </pattern>
        <pattern muted="0" name="" pos="24960" type="1" steps="16">
          <note len="24" key="47" vol="197" pos="0" pan="0"/>
          <note len="24" key="40" vol="197" pos="0" pan="0"/>
          <note len="24" key="1" vol="197" pos="0" pan="0"/>
          <note len="24" key="40" vol="197" pos="24" pan="0"/>
          <note len="24" key="40" vol="197" pos="48" pan="0"/>
          <note len="24" key="40" vol="197" pos="72" pan="0"/>
          <note len="24" key="47" vol="197" pos="96" pan="0"/>
          <note len="24" key="0" vol="197" pos="96" pan="0"/>
          <note len="24" key="47" vol="197" pos="120" pan="0"/>
          <note len="24" key="40" vol="197" pos="120" pan="0"/>
          <note len="24" key="1" vol="197" pos="120" pan="0"/>
          <note len="24" key="47" vol="197" pos="144" pan="0"/>
          <note len="24" key="40" vol="197" pos="144" pan="0"/>
          <note len="24" key="47" vol="197" pos="168" pan="0"/>
          <note len="24" key="40" vol="197" pos="168" pan="0"/>
          <note len="24" key="40" vol="197" pos="192" pan="0"/>
          <note len="24" key="1" vol="197" pos="192" pan="0"/>
          <note len="24" key="47" vol="197" pos="216" pan="0"/>
          <note len="24" key="0" vol="197" pos="216" pan="0"/>
          <note len="24" key="45" vol="197" pos="240" pan="0"/>
          <note len="24" key="47" vol="197" pos="264" pan="0"/>
          <note len="24" key="43" vol="197" pos="288" pan="0"/>
          <note len="24" key="1" vol="197" pos="288" pan="0"/>
          <note len="24" key="50" vol="197" pos="312" pan="0"/>
          <note len="24" key="0" vol="197" pos="312" pan="0"/>
          <note len="24" key="45" vol="197" pos="336" pan="0"/>
          <note len="24" key="47" vol="197" pos="360" pan="0"/>
        </pattern>
        <pattern muted="0" name="" pos="25344" type="1" steps="16">
          <note len="24" key="47" vol="197" pos="0" pan="0"/>
          <note len="24" key="40" vol="197" pos="0" pan="0"/>
          <note len="24" key="1" vol="197" pos="0" pan="0"/>
          <note len="24" key="40" vol="197" pos="24" pan="0"/>
          <note len="24" key="40" vol="197" pos="48" pan="0"/>
          <note len="24" key="40" vol="197" pos="72" pan="0"/>
          <note len="24" key="47" vol="197" pos="96" pan="0"/>
          <note len="24" key="0" vol="197" pos="96" pan="0"/>
          <note len="24" key="47" vol="197" pos="120" pan="0"/>
          <note len="24" key="40" vol="197" pos="120" pan="0"/>
          <note len="24" key="1" vol="197" pos="120" pan="0"/>
          <note len="24" key="47" vol="197" pos="144" pan="0"/>
          <note len="24" key="40" vol="197" pos="144" pan="0"/>
          <note len="24" key="47" vol="197" pos="168" pan="0"/>
          <note len="24" key="40" vol="197" pos="168" pan="0"/>
          <note len="24" key="40" vol="197" pos="192" pan="0"/>
          <note len="24" key="1" vol="197" pos="192" pan="0"/>
          <note len="24" key="47" vol="197" pos="216" pan="0"/>
          <note len="24" key="0" vol="197" pos="216" pan="0"/>
          <note len="24" key="45" vol="197" pos="240" pan="0"/>
          <note len="24" key="47" vol="197" pos="264" pan="0"/>
          <note len="24" key="43" vol="197" pos="288" pan="0"/>
          <note len="24" key="1" vol="197" pos="288" pan="0"/>
          <note len="24" key="50" vol="197" pos="312" pan="0"/>
          <note len="24" key="0" vol="197" pos="312" pan="0"/>
          <note len="24" key="45" vol="197" pos="336" pan="0"/>
          <note len="24" key="47" vol="197" pos="360" pan="0"/>
        </pattern>
        <pattern muted="0" name="" pos="25728" type="1" steps="16">
          <note len="24" key="55" vol="197" pos="0" pan="0"/>
          <note len="24" key="48" vol="197" pos="0" pan="0"/>
          <note len="12" key="0" vol="197" pos="0" pan="0"/>
          <note len="12" key="48" vol="197" pos="24" pan="0"/>
          <note len="12" key="1" vol="197" pos="24" pan="0"/>
          <note len="12" key="48" vol="197" pos="36" pan="0"/>
          <note len="12" key="48" vol="197" pos="48" pan="0"/>
          <note len="12" key="48" vol="197" pos="60" pan="0"/>
          <note len="12" key="48" vol="197" pos="72" pan="0"/>
          <note len="12" key="48" vol="197" pos="84" pan="0"/>
          <note len="12" key="48" vol="197" pos="96" pan="0"/>
          <note len="12" key="48" vol="197" pos="108" pan="0"/>
          <note len="12" key="48" vol="197" pos="120" pan="0"/>
          <note len="12" key="48" vol="197" pos="132" pan="0"/>
          <note len="12" key="48" vol="197" pos="144" pan="0"/>
          <note len="12" key="48" vol="197" pos="156" pan="0"/>
          <note len="12" key="48" vol="197" pos="168" pan="0"/>
          <note len="12" key="48" vol="197" pos="180" pan="0"/>
          <note len="24" key="57" vol="197" pos="192" pan="0"/>
          <note len="24" key="50" vol="197" pos="192" pan="0"/>
          <note len="24" key="0" vol="197" pos="192" pan="0"/>
          <note len="12" key="50" vol="197" pos="216" pan="0"/>
          <note len="24" key="1" vol="197" pos="216" pan="0"/>
          <note len="12" key="50" vol="197" pos="228" pan="0"/>
          <note len="12" key="50" vol="197" pos="240" pan="0"/>
          <note len="12" key="50" vol="197" pos="252" pan="0"/>
          <note len="12" key="50" vol="197" pos="264" pan="0"/>
          <note len="12" key="50" vol="197" pos="276" pan="0"/>
          <note len="12" key="50" vol="197" pos="288" pan="0"/>
          <note len="12" key="50" vol="197" pos="300" pan="0"/>
          <note len="12" key="50" vol="197" pos="312" pan="0"/>
          <note len="12" key="50" vol="197" pos="324" pan="0"/>
          <note len="12" key="50" vol="197" pos="336" pan="0"/>
          <note len="12" key="50" vol="197" pos="348" pan="0"/>
          <note len="12" key="50" vol="197" pos="360" pan="0"/>
          <note len="12" key="50" vol="197" pos="372" pan="0"/>
        </pattern>
        <pattern muted="0" name="Rhythm Guitar" pos="26112" type="1" steps="16">
          <note len="24" key="47" vol="199" pos="0" pan="0"/>
          <note len="24" key="40" vol="199" pos="0" pan="0"/>
          <note len="24" key="0" vol="199" pos="0" pan="0"/>
          <note len="12" key="40" vol="199" pos="24" pan="0"/>
          <note len="24" key="1" vol="199" pos="24" pan="0"/>
          <note len="12" key="40" vol="199" pos="36" pan="0"/>
          <note len="12" key="40" vol="199" pos="48" pan="0"/>
          <note len="12" key="40" vol="199" pos="60" pan="0"/>
          <note len="12" key="40" vol="199" pos="72" pan="0"/>
          <note len="12" key="40" vol="199" pos="84" pan="0"/>
          <note len="12" key="40" vol="199" pos="96" pan="0"/>
          <note len="12" key="40" vol="199" pos="108" pan="0"/>
          <note len="24" key="47" vol="199" pos="120" pan="0"/>
          <note len="24" key="40" vol="199" pos="120" pan="0"/>
          <note len="24" key="0" vol="199" pos="120" pan="0"/>
          <note len="12" key="40" vol="199" pos="144" pan="0"/>
          <note len="24" key="1" vol="199" pos="144" pan="0"/>
          <note len="12" key="40" vol="199" pos="156" pan="0"/>
          <note len="12" key="40" vol="199" pos="168" pan="0"/>
          <note len="12" key="40" vol="199" pos="180" pan="0"/>
          <note len="24" key="47" vol="199" pos="192" pan="0"/>
          <note len="24" key="40" vol="199" pos="192" pan="0"/>
          <note len="24" key="0" vol="199" pos="192" pan="0"/>
          <note len="12" key="40" vol="199" pos="216" pan="0"/>
          <note len="24" key="1" vol="199" pos="216" pan="0"/>
          <note len="12" key="40" vol="199" pos="228" pan="0"/>
          <note len="24" key="47" vol="199" pos="240" pan="0"/>
          <note len="24" key="40" vol="199" pos="240" pan="0"/>
          <note len="24" key="0" vol="199" pos="240" pan="0"/>
          <note len="12" key="40" vol="199" pos="264" pan="0"/>
          <note len="24" key="1" vol="199" pos="264" pan="0"/>
          <note len="12" key="40" vol="199" pos="276" pan="0"/>
          <note len="12" key="40" vol="199" pos="288" pan="0"/>
          <note len="12" key="40" vol="199" pos="300" pan="0"/>
          <note len="12" key="40" vol="199" pos="312" pan="0"/>
          <note len="12" key="40" vol="199" pos="324" pan="0"/>
          <note len="24" key="47" vol="199" pos="336" pan="0"/>
          <note len="24" key="40" vol="199" pos="336" pan="0"/>
          <note len="24" key="0" vol="199" pos="336" pan="0"/>
          <note len="12" key="40" vol="199" pos="360" pan="0"/>
          <note len="24" key="1" vol="199" pos="360" pan="0"/>
          <note len="12" key="40" vol="199" pos="372" pan="0"/>
        </pattern>
        <pattern muted="0" name="" pos="26496" type="1" steps="16">
          <note len="24" key="47" vol="199" pos="0" pan="0"/>
          <note len="24" key="40" vol="199" pos="0" pan="0"/>
          <note len="24" key="0" vol="199" pos="0" pan="0"/>
          <note len="12" key="40" vol="199" pos="24" pan="0"/>
          <note len="24" key="1" vol="199" pos="24" pan="0"/>
          <note len="12" key="40" vol="199" pos="36" pan="0"/>
          <note len="12" key="40" vol="199" pos="48" pan="0"/>
          <note len="12" key="40" vol="199" pos="60" pan="0"/>
          <note len="12" key="40" vol="199" pos="72" pan="0"/>
          <note len="12" key="40" vol="199" pos="84" pan="0"/>
          <note len="12" key="40" vol="199" pos="96" pan="0"/>
          <note len="12" key="40" vol="199" pos="108" pan="0"/>
          <note len="24" key="47" vol="199" pos="120" pan="0"/>
          <note len="24" key="40" vol="199" pos="120" pan="0"/>
          <note len="24" key="0" vol="199" pos="120" pan="0"/>
          <note len="12" key="40" vol="199" pos="144" pan="0"/>
          <note len="24" key="1" vol="199" pos="144" pan="0"/>
          <note len="12" key="40" vol="199" pos="156" pan="0"/>
          <note len="12" key="40" vol="199" pos="168" pan="0"/>
          <note len="12" key="40" vol="199" pos="180" pan="0"/>
          <note len="24" key="47" vol="199" pos="192" pan="0"/>
          <note len="24" key="40" vol="199" pos="192" pan="0"/>
          <note len="24" key="0" vol="199" pos="192" pan="0"/>
          <note len="12" key="40" vol="199" pos="216" pan="0"/>
          <note len="24" key="1" vol="199" pos="216" pan="0"/>
          <note len="12" key="40" vol="199" pos="228" pan="0"/>
          <note len="24" key="47" vol="199" pos="240" pan="0"/>
          <note len="24" key="40" vol="199" pos="240" pan="0"/>
          <note len="24" key="0" vol="199" pos="240" pan="0"/>
          <note len="12" key="40" vol="199" pos="264" pan="0"/>
          <note len="24" key="1" vol="199" pos="264" pan="0"/>
          <note len="12" key="40" vol="199" pos="276" pan="0"/>
          <note len="12" key="40" vol="199" pos="288" pan="0"/>
          <note len="12" key="40" vol="199" pos="300" pan="0"/>
          <note len="12" key="40" vol="199" pos="312" pan="0"/>
          <note len="12" key="40" vol="199" pos="324" pan="0"/>
          <note len="24" key="47" vol="199" pos="336" pan="0"/>
          <note len="24" key="40" vol="199" pos="336" pan="0"/>
          <note len="24" key="0" vol="199" pos="336" pan="0"/>
          <note len="12" key="40" vol="199" pos="360" pan="0"/>
          <note len="24" key="1" vol="199" pos="360" pan="0"/>
          <note len="12" key="40" vol="199" pos="372" pan="0"/>
        </pattern>
        <pattern muted="0" name="" pos="26880" type="1" steps="16">
          <note len="24" key="47" vol="199" pos="0" pan="0"/>
          <note len="24" key="40" vol="199" pos="0" pan="0"/>
          <note len="24" key="0" vol="199" pos="0" pan="0"/>
          <note len="12" key="40" vol="199" pos="24" pan="0"/>
          <note len="24" key="1" vol="199" pos="24" pan="0"/>
          <note len="12" key="40" vol="199" pos="36" pan="0"/>
          <note len="12" key="40" vol="199" pos="48" pan="0"/>
          <note len="12" key="40" vol="199" pos="60" pan="0"/>
          <note len="12" key="40" vol="199" pos="72" pan="0"/>
          <note len="12" key="40" vol="199" pos="84" pan="0"/>
          <note len="12" key="40" vol="199" pos="96" pan="0"/>
          <note len="12" key="40" vol="199" pos="108" pan="0"/>
          <note len="24" key="47" vol="199" pos="120" pan="0"/>
          <note len="24" key="40" vol="199" pos="120" pan="0"/>
          <note len="24" key="0" vol="199" pos="120" pan="0"/>
          <note len="12" key="40" vol="199" pos="144" pan="0"/>
          <note len="24" key="1" vol="199" pos="144" pan="0"/>
          <note len="12" key="40" vol="199" pos="156" pan="0"/>
          <note len="12" key="40" vol="199" pos="168" pan="0"/>
          <note len="12" key="40" vol="199" pos="180" pan="0"/>
          <note len="24" key="47" vol="199" pos="192" pan="0"/>
          <note len="24" key="40" vol="199" pos="192" pan="0"/>
          <note len="24" key="0" vol="199" pos="192" pan="0"/>
          <note len="12" key="40" vol="199" pos="216" pan="0"/>
          <note len="24" key="1" vol="199" pos="216" pan="0"/>
          <note len="12" key="40" vol="199" pos="228" pan="0"/>
          <note len="24" key="47" vol="199" pos="240" pan="0"/>
          <note len="24" key="40" vol="199" pos="240" pan="0"/>
          <note len="24" key="0" vol="199" pos="240" pan="0"/>
          <note len="12" key="40" vol="199" pos="264" pan="0"/>
          <note len="24" key="1" vol="199" pos="264" pan="0"/>
          <note len="12" key="40" vol="199" pos="276" pan="0"/>
          <note len="12" key="40" vol="199" pos="288" pan="0"/>
          <note len="12" key="40" vol="199" pos="300" pan="0"/>
          <note len="12" key="40" vol="199" pos="312" pan="0"/>
          <note len="12" key="40" vol="199" pos="324" pan="0"/>
          <note len="24" key="47" vol="199" pos="336" pan="0"/>
          <note len="24" key="40" vol="199" pos="336" pan="0"/>
          <note len="24" key="0" vol="199" pos="336" pan="0"/>
          <note len="12" key="40" vol="199" pos="360" pan="0"/>
          <note len="24" key="1" vol="199" pos="360" pan="0"/>
          <note len="12" key="40" vol="199" pos="372" pan="0"/>
        </pattern>
        <pattern muted="0" name="" pos="27264" type="1" steps="16">
          <note len="24" key="55" vol="199" pos="0" pan="0"/>
          <note len="24" key="48" vol="199" pos="0" pan="0"/>
          <note len="24" key="0" vol="199" pos="0" pan="0"/>
          <note len="12" key="48" vol="199" pos="24" pan="0"/>
          <note len="24" key="1" vol="199" pos="24" pan="0"/>
          <note len="12" key="48" vol="199" pos="36" pan="0"/>
          <note len="12" key="48" vol="199" pos="48" pan="0"/>
          <note len="12" key="48" vol="199" pos="60" pan="0"/>
          <note len="12" key="48" vol="199" pos="72" pan="0"/>
          <note len="12" key="48" vol="199" pos="84" pan="0"/>
          <note len="12" key="48" vol="199" pos="96" pan="0"/>
          <note len="12" key="48" vol="199" pos="108" pan="0"/>
          <note len="24" key="55" vol="199" pos="120" pan="0"/>
          <note len="24" key="48" vol="199" pos="120" pan="0"/>
          <note len="24" key="0" vol="199" pos="120" pan="0"/>
          <note len="12" key="48" vol="199" pos="144" pan="0"/>
          <note len="24" key="1" vol="199" pos="144" pan="0"/>
          <note len="12" key="48" vol="199" pos="156" pan="0"/>
          <note len="12" key="48" vol="199" pos="168" pan="0"/>
          <note len="12" key="48" vol="199" pos="180" pan="0"/>
          <note len="24" key="57" vol="199" pos="192" pan="0"/>
          <note len="24" key="50" vol="199" pos="192" pan="0"/>
          <note len="24" key="0" vol="199" pos="192" pan="0"/>
          <note len="12" key="50" vol="199" pos="216" pan="0"/>
          <note len="24" key="1" vol="199" pos="216" pan="0"/>
          <note len="12" key="50" vol="199" pos="228" pan="0"/>
          <note len="24" key="57" vol="199" pos="240" pan="0"/>
          <note len="24" key="50" vol="199" pos="240" pan="0"/>
          <note len="24" key="0" vol="199" pos="240" pan="0"/>
          <note len="12" key="50" vol="199" pos="264" pan="0"/>
          <note len="24" key="1" vol="199" pos="264" pan="0"/>
          <note len="12" key="50" vol="199" pos="276" pan="0"/>
          <note len="12" key="50" vol="199" pos="288" pan="0"/>
          <note len="12" key="50" vol="199" pos="300" pan="0"/>
          <note len="12" key="50" vol="199" pos="312" pan="0"/>
          <note len="12" key="50" vol="199" pos="324" pan="0"/>
          <note len="24" key="57" vol="199" pos="336" pan="0"/>
          <note len="24" key="50" vol="199" pos="336" pan="0"/>
          <note len="24" key="0" vol="199" pos="336" pan="0"/>
          <note len="12" key="50" vol="199" pos="360" pan="0"/>
          <note len="24" key="1" vol="199" pos="360" pan="0"/>
          <note len="12" key="50" vol="199" pos="372" pan="0"/>
        </pattern>
        <pattern muted="0" name="" pos="27648" type="1" steps="16">
          <note len="24" key="47" vol="199" pos="0" pan="0"/>
          <note len="24" key="40" vol="199" pos="0" pan="0"/>
          <note len="24" key="0" vol="199" pos="0" pan="0"/>
          <note len="12" key="40" vol="199" pos="24" pan="0"/>
          <note len="24" key="1" vol="199" pos="24" pan="0"/>
          <note len="12" key="40" vol="199" pos="36" pan="0"/>
          <note len="12" key="40" vol="199" pos="48" pan="0"/>
          <note len="12" key="40" vol="199" pos="60" pan="0"/>
          <note len="12" key="40" vol="199" pos="72" pan="0"/>
          <note len="12" key="40" vol="199" pos="84" pan="0"/>
          <note len="12" key="40" vol="199" pos="96" pan="0"/>
          <note len="12" key="40" vol="199" pos="108" pan="0"/>
          <note len="24" key="47" vol="199" pos="120" pan="0"/>
          <note len="24" key="40" vol="199" pos="120" pan="0"/>
          <note len="24" key="0" vol="199" pos="120" pan="0"/>
          <note len="12" key="40" vol="199" pos="144" pan="0"/>
          <note len="24" key="1" vol="199" pos="144" pan="0"/>
          <note len="12" key="40" vol="199" pos="156" pan="0"/>
          <note len="12" key="40" vol="199" pos="168" pan="0"/>
          <note len="12" key="40" vol="199" pos="180" pan="0"/>
          <note len="24" key="47" vol="199" pos="192" pan="0"/>
          <note len="24" key="40" vol="199" pos="192" pan="0"/>
          <note len="24" key="0" vol="199" pos="192" pan="0"/>
          <note len="12" key="40" vol="199" pos="216" pan="0"/>
          <note len="24" key="1" vol="199" pos="216" pan="0"/>
          <note len="12" key="40" vol="199" pos="228" pan="0"/>
          <note len="24" key="47" vol="199" pos="240" pan="0"/>
          <note len="24" key="40" vol="199" pos="240" pan="0"/>
          <note len="24" key="0" vol="199" pos="240" pan="0"/>
          <note len="12" key="40" vol="199" pos="264" pan="0"/>
          <note len="24" key="1" vol="199" pos="264" pan="0"/>
          <note len="12" key="40" vol="199" pos="276" pan="0"/>
          <note len="12" key="40" vol="199" pos="288" pan="0"/>
          <note len="12" key="40" vol="199" pos="300" pan="0"/>
          <note len="12" key="40" vol="199" pos="312" pan="0"/>
          <note len="12" key="40" vol="199" pos="324" pan="0"/>
          <note len="24" key="47" vol="199" pos="336" pan="0"/>
          <note len="24" key="40" vol="199" pos="336" pan="0"/>
          <note len="24" key="0" vol="199" pos="336" pan="0"/>
          <note len="12" key="40" vol="199" pos="360" pan="0"/>
          <note len="24" key="1" vol="199" pos="360" pan="0"/>
          <note len="12" key="40" vol="199" pos="372" pan="0"/>
        </pattern>
        <pattern muted="0" name="" pos="28032" type="1" steps="16">
          <note len="24" key="47" vol="199" pos="0" pan="0"/>
          <note len="24" key="40" vol="199" pos="0" pan="0"/>
          <note len="24" key="0" vol="199" pos="0" pan="0"/>
          <note len="12" key="40" vol="199" pos="24" pan="0"/>
          <note len="24" key="1" vol="199" pos="24" pan="0"/>
          <note len="12" key="40" vol="199" pos="36" pan="0"/>
          <note len="12" key="40" vol="199" pos="48" pan="0"/>
          <note len="12" key="40" vol="199" pos="60" pan="0"/>
          <note len="12" key="40" vol="199" pos="72" pan="0"/>
          <note len="12" key="40" vol="199" pos="84" pan="0"/>
          <note len="12" key="40" vol="199" pos="96" pan="0"/>
          <note len="12" key="40" vol="199" pos="108" pan="0"/>
          <note len="24" key="47" vol="199" pos="120" pan="0"/>
          <note len="24" key="40" vol="199" pos="120" pan="0"/>
          <note len="24" key="0" vol="199" pos="120" pan="0"/>
          <note len="12" key="40" vol="199" pos="144" pan="0"/>
          <note len="24" key="1" vol="199" pos="144" pan="0"/>
          <note len="12" key="40" vol="199" pos="156" pan="0"/>
          <note len="12" key="40" vol="199" pos="168" pan="0"/>
          <note len="12" key="40" vol="199" pos="180" pan="0"/>
          <note len="24" key="47" vol="199" pos="192" pan="0"/>
          <note len="24" key="40" vol="199" pos="192" pan="0"/>
          <note len="24" key="0" vol="199" pos="192" pan="0"/>
          <note len="12" key="40" vol="199" pos="216" pan="0"/>
          <note len="24" key="1" vol="199" pos="216" pan="0"/>
          <note len="12" key="40" vol="199" pos="228" pan="0"/>
          <note len="24" key="47" vol="199" pos="240" pan="0"/>
          <note len="24" key="40" vol="199" pos="240" pan="0"/>
          <note len="24" key="0" vol="199" pos="240" pan="0"/>
          <note len="12" key="40" vol="199" pos="264" pan="0"/>
          <note len="24" key="1" vol="199" pos="264" pan="0"/>
          <note len="12" key="40" vol="199" pos="276" pan="0"/>
          <note len="12" key="40" vol="199" pos="288" pan="0"/>
          <note len="12" key="40" vol="199" pos="300" pan="0"/>
          <note len="12" key="40" vol="199" pos="312" pan="0"/>
          <note len="12" key="40" vol="199" pos="324" pan="0"/>
          <note len="24" key="47" vol="199" pos="336" pan="0"/>
          <note len="24" key="40" vol="199" pos="336" pan="0"/>
          <note len="24" key="0" vol="199" pos="336" pan="0"/>
          <note len="12" key="40" vol="199" pos="360" pan="0"/>
          <note len="24" key="1" vol="199" pos="360" pan="0"/>
          <note len="12" key="40" vol="199" pos="372" pan="0"/>
        </pattern>
        <pattern muted="0" name="" pos="28416" type="1" steps="16">
          <note len="24" key="47" vol="199" pos="0" pan="0"/>
          <note len="24" key="40" vol="199" pos="0" pan="0"/>
          <note len="24" key="0" vol="199" pos="0" pan="0"/>
          <note len="12" key="40" vol="199" pos="24" pan="0"/>
          <note len="24" key="1" vol="199" pos="24" pan="0"/>
          <note len="12" key="40" vol="199" pos="36" pan="0"/>
          <note len="12" key="40" vol="199" pos="48" pan="0"/>
          <note len="12" key="40" vol="199" pos="60" pan="0"/>
          <note len="12" key="40" vol="199" pos="72" pan="0"/>
          <note len="12" key="40" vol="199" pos="84" pan="0"/>
          <note len="12" key="40" vol="199" pos="96" pan="0"/>
          <note len="12" key="40" vol="199" pos="108" pan="0"/>
          <note len="24" key="47" vol="199" pos="120" pan="0"/>
          <note len="24" key="40" vol="199" pos="120" pan="0"/>
          <note len="24" key="0" vol="199" pos="120" pan="0"/>
          <note len="12" key="40" vol="199" pos="144" pan="0"/>
          <note len="24" key="1" vol="199" pos="144" pan="0"/>
          <note len="12" key="40" vol="199" pos="156" pan="0"/>
          <note len="12" key="40" vol="199" pos="168" pan="0"/>
          <note len="12" key="40" vol="199" pos="180" pan="0"/>
          <note len="24" key="47" vol="199" pos="192" pan="0"/>
          <note len="24" key="40" vol="199" pos="192" pan="0"/>
          <note len="24" key="0" vol="199" pos="192" pan="0"/>
          <note len="12" key="40" vol="199" pos="216" pan="0"/>
          <note len="24" key="1" vol="199" pos="216" pan="0"/>
          <note len="12" key="40" vol="199" pos="228" pan="0"/>
          <note len="24" key="47" vol="199" pos="240" pan="0"/>
          <note len="24" key="40" vol="199" pos="240" pan="0"/>
          <note len="24" key="0" vol="199" pos="240" pan="0"/>
          <note len="12" key="40" vol="199" pos="264" pan="0"/>
          <note len="24" key="1" vol="199" pos="264" pan="0"/>
          <note len="12" key="40" vol="199" pos="276" pan="0"/>
          <note len="12" key="40" vol="199" pos="288" pan="0"/>
          <note len="12" key="40" vol="199" pos="300" pan="0"/>
          <note len="12" key="40" vol="199" pos="312" pan="0"/>
          <note len="12" key="40" vol="199" pos="324" pan="0"/>
          <note len="24" key="47" vol="199" pos="336" pan="0"/>
          <note len="24" key="40" vol="199" pos="336" pan="0"/>
          <note len="24" key="0" vol="199" pos="336" pan="0"/>
          <note len="12" key="40" vol="199" pos="360" pan="0"/>
          <note len="24" key="1" vol="199" pos="360" pan="0"/>
          <note len="12" key="40" vol="199" pos="372" pan="0"/>
        </pattern>
        <pattern muted="0" name="" pos="28800" type="1" steps="16">
          <note len="24" key="55" vol="199" pos="0" pan="0"/>
          <note len="24" key="48" vol="199" pos="0" pan="0"/>
          <note len="24" key="0" vol="199" pos="0" pan="0"/>
          <note len="12" key="48" vol="199" pos="24" pan="0"/>
          <note len="24" key="1" vol="199" pos="24" pan="0"/>
          <note len="12" key="48" vol="199" pos="36" pan="0"/>
          <note len="12" key="48" vol="199" pos="48" pan="0"/>
          <note len="12" key="48" vol="199" pos="60" pan="0"/>
          <note len="12" key="48" vol="199" pos="72" pan="0"/>
          <note len="12" key="48" vol="199" pos="84" pan="0"/>
          <note len="12" key="48" vol="199" pos="96" pan="0"/>
          <note len="12" key="48" vol="199" pos="108" pan="0"/>
          <note len="24" key="55" vol="199" pos="120" pan="0"/>
          <note len="24" key="48" vol="199" pos="120" pan="0"/>
          <note len="24" key="0" vol="199" pos="120" pan="0"/>
          <note len="12" key="48" vol="199" pos="144" pan="0"/>
          <note len="24" key="1" vol="199" pos="144" pan="0"/>
          <note len="12" key="48" vol="199" pos="156" pan="0"/>
          <note len="12" key="48" vol="199" pos="168" pan="0"/>
          <note len="12" key="48" vol="199" pos="180" pan="0"/>
          <note len="24" key="57" vol="199" pos="192" pan="0"/>
          <note len="24" key="50" vol="199" pos="192" pan="0"/>
          <note len="24" key="0" vol="199" pos="192" pan="0"/>
          <note len="12" key="50" vol="199" pos="216" pan="0"/>
          <note len="24" key="1" vol="199" pos="216" pan="0"/>
          <note len="12" key="50" vol="199" pos="228" pan="0"/>
          <note len="24" key="57" vol="199" pos="240" pan="0"/>
          <note len="24" key="50" vol="199" pos="240" pan="0"/>
          <note len="24" key="0" vol="199" pos="240" pan="0"/>
          <note len="12" key="50" vol="199" pos="264" pan="0"/>
          <note len="24" key="1" vol="199" pos="264" pan="0"/>
          <note len="12" key="50" vol="199" pos="276" pan="0"/>
          <note len="12" key="50" vol="199" pos="288" pan="0"/>
          <note len="12" key="50" vol="199" pos="300" pan="0"/>
          <note len="12" key="50" vol="199" pos="312" pan="0"/>
          <note len="12" key="50" vol="199" pos="324" pan="0"/>
          <note len="24" key="57" vol="199" pos="336" pan="0"/>
          <note len="24" key="50" vol="199" pos="336" pan="0"/>
          <note len="24" key="0" vol="199" pos="336" pan="0"/>
          <note len="12" key="50" vol="199" pos="360" pan="0"/>
          <note len="24" key="1" vol="199" pos="360" pan="0"/>
          <note len="12" key="50" vol="199" pos="372" pan="0"/>
        </pattern>
        <pattern muted="0" name="" pos="30720" type="1" steps="16">
          <note len="192" key="50" vol="100" pos="0" pan="0"/>
          <note len="192" key="43" vol="100" pos="0" pan="0"/>
          <note len="384" key="0" vol="100" pos="0" pan="0"/>
          <note len="192" key="50" vol="100" pos="192" pan="0"/>
          <note len="192" key="43" vol="100" pos="192" pan="0"/>
          <note len="192" key="45" vol="100" pos="384" pan="0"/>
          <note len="192" key="38" vol="100" pos="384" pan="0"/>
          <note len="192" key="45" vol="100" pos="576" pan="0"/>
          <note len="192" key="38" vol="100" pos="576" pan="0"/>
          <note len="192" key="47" vol="100" pos="768" pan="0"/>
          <note len="192" key="40" vol="100" pos="768" pan="0"/>
          <note len="192" key="45" vol="100" pos="960" pan="0"/>
          <note len="192" key="38" vol="100" pos="960" pan="0"/>
          <note len="192" key="43" vol="100" pos="1152" pan="0"/>
          <note len="192" key="36" vol="100" pos="1152" pan="0"/>
          <note len="192" key="45" vol="100" pos="1344" pan="0"/>
          <note len="192" key="38" vol="100" pos="1344" pan="0"/>
        </pattern>
        <pattern muted="0" name="" pos="32256" type="1" steps="16">
          <note len="192" key="50" vol="100" pos="0" pan="0"/>
          <note len="192" key="43" vol="100" pos="0" pan="0"/>
          <note len="384" key="0" vol="100" pos="0" pan="0"/>
          <note len="192" key="50" vol="100" pos="192" pan="0"/>
          <note len="192" key="43" vol="100" pos="192" pan="0"/>
          <note len="192" key="45" vol="100" pos="384" pan="0"/>
          <note len="192" key="38" vol="100" pos="384" pan="0"/>
          <note len="192" key="45" vol="100" pos="576" pan="0"/>
          <note len="192" key="38" vol="100" pos="576" pan="0"/>
          <note len="192" key="47" vol="100" pos="768" pan="0"/>
          <note len="192" key="40" vol="100" pos="768" pan="0"/>
          <note len="192" key="45" vol="100" pos="960" pan="0"/>
          <note len="192" key="38" vol="100" pos="960" pan="0"/>
          <note len="192" key="43" vol="100" pos="1152" pan="0"/>
          <note len="192" key="36" vol="100" pos="1152" pan="0"/>
          <note len="192" key="45" vol="100" pos="1344" pan="0"/>
          <note len="192" key="38" vol="100" pos="1344" pan="0"/>
        </pattern>
        <pattern muted="0" name="" pos="29184" type="1" steps="16">
          <note len="192" key="43" vol="100" pos="0" pan="0"/>
          <note len="192" key="36" vol="100" pos="0" pan="0"/>
          <note len="48" key="0" vol="100" pos="0" pan="0"/>
          <note len="192" key="50" vol="100" pos="192" pan="0"/>
          <note len="192" key="43" vol="100" pos="192" pan="0"/>
          <note len="192" key="57" vol="100" pos="384" pan="0"/>
          <note len="192" key="50" vol="100" pos="384" pan="0"/>
          <note len="192" key="47" vol="100" pos="576" pan="0"/>
          <note len="192" key="40" vol="100" pos="576" pan="0"/>
        </pattern>
        <pattern muted="0" name="" pos="29952" type="1" steps="16">
          <note len="24" key="55" vol="100" pos="0" pan="0"/>
          <note len="24" key="48" vol="100" pos="0" pan="0"/>
          <note len="24" key="0" vol="100" pos="0" pan="0"/>
          <note len="12" key="48" vol="100" pos="24" pan="0"/>
          <note len="24" key="1" vol="100" pos="24" pan="0"/>
          <note len="12" key="48" vol="100" pos="36" pan="0"/>
          <note len="12" key="48" vol="100" pos="48" pan="0"/>
          <note len="12" key="48" vol="100" pos="60" pan="0"/>
          <note len="12" key="48" vol="100" pos="72" pan="0"/>
          <note len="12" key="48" vol="100" pos="84" pan="0"/>
          <note len="24" key="55" vol="100" pos="96" pan="0"/>
          <note len="24" key="48" vol="100" pos="96" pan="0"/>
          <note len="24" key="0" vol="100" pos="96" pan="0"/>
          <note len="12" key="48" vol="100" pos="120" pan="0"/>
          <note len="24" key="1" vol="100" pos="120" pan="0"/>
          <note len="12" key="48" vol="100" pos="132" pan="0"/>
          <note len="24" key="55" vol="100" pos="144" pan="0"/>
          <note len="24" key="48" vol="100" pos="144" pan="0"/>
          <note len="24" key="0" vol="100" pos="144" pan="0"/>
          <note len="12" key="48" vol="100" pos="168" pan="0"/>
          <note len="24" key="1" vol="100" pos="168" pan="0"/>
          <note len="12" key="48" vol="100" pos="180" pan="0"/>
          <note len="24" key="50" vol="100" pos="192" pan="0"/>
          <note len="24" key="43" vol="100" pos="192" pan="0"/>
          <note len="24" key="0" vol="100" pos="192" pan="0"/>
          <note len="12" key="43" vol="100" pos="216" pan="0"/>
          <note len="24" key="1" vol="100" pos="216" pan="0"/>
          <note len="12" key="43" vol="100" pos="228" pan="0"/>
          <note len="12" key="43" vol="100" pos="240" pan="0"/>
          <note len="12" key="43" vol="100" pos="252" pan="0"/>
          <note len="12" key="43" vol="100" pos="264" pan="0"/>
          <note len="12" key="43" vol="100" pos="276" pan="0"/>
          <note len="24" key="50" vol="100" pos="288" pan="0"/>
          <note len="24" key="43" vol="100" pos="288" pan="0"/>
          <note len="24" key="0" vol="100" pos="288" pan="0"/>
          <note len="12" key="43" vol="100" pos="312" pan="0"/>
          <note len="24" key="1" vol="100" pos="312" pan="0"/>
          <note len="12" key="43" vol="100" pos="324" pan="0"/>
          <note len="24" key="50" vol="100" pos="336" pan="0"/>
          <note len="24" key="43" vol="100" pos="336" pan="0"/>
          <note len="24" key="0" vol="100" pos="336" pan="0"/>
          <note len="12" key="43" vol="100" pos="360" pan="0"/>
          <note len="24" key="1" vol="100" pos="360" pan="0"/>
          <note len="12" key="43" vol="100" pos="372" pan="0"/>
          <note len="12" key="50" vol="100" pos="384" pan="0"/>
          <note len="12" key="50" vol="100" pos="396" pan="0"/>
          <note len="12" key="50" vol="100" pos="408" pan="0"/>
          <note len="12" key="50" vol="100" pos="420" pan="0"/>
          <note len="12" key="50" vol="100" pos="432" pan="0"/>
          <note len="12" key="50" vol="100" pos="444" pan="0"/>
          <note len="12" key="50" vol="100" pos="456" pan="0"/>
          <note len="12" key="50" vol="100" pos="468" pan="0"/>
          <note len="12" key="50" vol="100" pos="480" pan="0"/>
          <note len="12" key="50" vol="100" pos="492" pan="0"/>
          <note len="12" key="50" vol="100" pos="504" pan="0"/>
          <note len="12" key="50" vol="100" pos="516" pan="0"/>
          <note len="12" key="50" vol="100" pos="528" pan="0"/>
          <note len="12" key="50" vol="100" pos="540" pan="0"/>
          <note len="12" key="50" vol="100" pos="552" pan="0"/>
          <note len="12" key="50" vol="100" pos="564" pan="0"/>
          <note len="12" key="50" vol="100" pos="576" pan="0"/>
          <note len="12" key="1" vol="100" pos="576" pan="0"/>
          <note len="12" key="48" vol="100" pos="588" pan="0"/>
          <note len="12" key="47" vol="100" pos="600" pan="0"/>
          <note len="12" key="45" vol="100" pos="612" pan="0"/>
          <note len="12" key="48" vol="100" pos="624" pan="0"/>
          <note len="12" key="47" vol="100" pos="636" pan="0"/>
          <note len="12" key="45" vol="100" pos="648" pan="0"/>
          <note len="12" key="43" vol="100" pos="660" pan="0"/>
          <note len="12" key="45" vol="100" pos="672" pan="0"/>
          <note len="12" key="43" vol="100" pos="684" pan="0"/>
          <note len="12" key="42" vol="100" pos="696" pan="0"/>
          <note len="12" key="40" vol="100" pos="708" pan="0"/>
          <note len="12" key="42" vol="100" pos="720" pan="0"/>
          <note len="12" key="43" vol="100" pos="732" pan="0"/>
          <note len="12" key="45" vol="100" pos="744" pan="0"/>
          <note len="12" key="47" vol="100" pos="756" pan="0"/>
        </pattern>
        <pattern muted="0" name="" pos="33792" type="1" steps="16">
          <note len="192" key="50" vol="100" pos="0" pan="0"/>
          <note len="192" key="43" vol="100" pos="0" pan="0"/>
          <note len="384" key="0" vol="100" pos="0" pan="0"/>
          <note len="192" key="50" vol="100" pos="192" pan="0"/>
          <note len="192" key="43" vol="100" pos="192" pan="0"/>
          <note len="192" key="45" vol="100" pos="384" pan="0"/>
          <note len="192" key="38" vol="100" pos="384" pan="0"/>
          <note len="192" key="45" vol="100" pos="576" pan="0"/>
          <note len="192" key="38" vol="100" pos="576" pan="0"/>
          <note len="192" key="47" vol="100" pos="768" pan="0"/>
          <note len="192" key="40" vol="100" pos="768" pan="0"/>
          <note len="192" key="45" vol="100" pos="960" pan="0"/>
          <note len="192" key="38" vol="100" pos="960" pan="0"/>
          <note len="192" key="43" vol="100" pos="1152" pan="0"/>
          <note len="192" key="36" vol="100" pos="1152" pan="0"/>
          <note len="192" key="45" vol="100" pos="1344" pan="0"/>
          <note len="192" key="38" vol="100" pos="1344" pan="0"/>
        </pattern>
        <pattern muted="0" name="" pos="35328" type="1" steps="16">
          <note len="192" key="50" vol="100" pos="0" pan="0"/>
          <note len="192" key="43" vol="100" pos="0" pan="0"/>
          <note len="384" key="0" vol="100" pos="0" pan="0"/>
          <note len="192" key="50" vol="100" pos="192" pan="0"/>
          <note len="192" key="43" vol="100" pos="192" pan="0"/>
          <note len="192" key="45" vol="100" pos="384" pan="0"/>
          <note len="192" key="38" vol="100" pos="384" pan="0"/>
          <note len="192" key="45" vol="100" pos="576" pan="0"/>
          <note len="192" key="38" vol="100" pos="576" pan="0"/>
          <note len="192" key="47" vol="100" pos="768" pan="0"/>
          <note len="192" key="40" vol="100" pos="768" pan="0"/>
          <note len="192" key="45" vol="100" pos="960" pan="0"/>
          <note len="192" key="38" vol="100" pos="960" pan="0"/>
          <note len="192" key="43" vol="100" pos="1152" pan="0"/>
          <note len="192" key="36" vol="100" pos="1152" pan="0"/>
          <note len="192" key="45" vol="100" pos="1344" pan="0"/>
          <note len="192" key="38" vol="100" pos="1344" pan="0"/>
        </pattern>
        <pattern muted="0" name="Rhythm Guitar" pos="36864" type="1" steps="16">
          <note len="192" key="50" vol="100" pos="0" pan="0"/>
          <note len="192" key="43" vol="100" pos="0" pan="0"/>
          <note len="192" key="0" vol="100" pos="0" pan="0"/>
        </pattern>
      </track>
      <track muted="1" name="Lead Guitar S" solo="0" type="0">
        <instrumenttrack pitch="0" fxch="13" basenote="57" vol="200" pitchrange="1" usemasterpitch="1" pan="0.1">
          <instrument name="carlapatchbay">
            <carlapatchbay>
              <CARLA-PROJECT VERSION="2.2">
                <EngineSettings>
                  <ForceStereo>false</ForceStereo>
                  <PreferPluginBridges>false</PreferPluginBridges>
                  <PreferUiBridges>true</PreferUiBridges>
                  <UIsAlwaysOnTop>false</UIsAlwaysOnTop>
                  <MaxParameters>200</MaxParameters>
                  <UIBridgesTimeout>4000</UIBridgesTimeout>
                  <LADSPA_PATH>/home/pass/.ladspa:/usr/lib/ladspa:/usr/local/lib/ladspa</LADSPA_PATH>
                  <DSSI_PATH>/home/pass/.dssi:/usr/lib/dssi:/usr/local/lib/dssi</DSSI_PATH>
                  <LV2_PATH>/home/pass/.lv2:/usr/lib/lv2:/usr/local/lib/lv2</LV2_PATH>
                  <VST2_PATH>/home/pass/.vst:/home/pass/.wine/drive_c/Program Files (x86)/VstPlugins:/home/pass/.wine/drive_c/Program Files/VstPlugins:/usr/lib/lxvst:/usr/lib/vst:/usr/local/lib/lxvst:/usr/local/lib/vst/home/pass/.lxvst:/home/pass/vst</VST2_PATH>
                  <VST3_PATH>/home/pass/.vst3:/home/pass/.wine/drive_c/Program Files (x86)/Common Files/VST3:/home/pass/.wine/drive_c/Program Files/Common Files/VST3:/usr/lib/vst3:/usr/local/lib/vst3</VST3_PATH>
                  <SF2_PATH>/home/pass/.sounds/sf2/home/pass/.sounds/sf3:/usr/share/soundfonts:/usr/share/sounds/sf2:/usr/share/sounds/sf3</SF2_PATH>
                  <SFZ_PATH>/home/pass/.sounds/sfz:/home/pass/samples:/usr/share/sounds/sfz</SFZ_PATH>
                </EngineSettings>
                <!-- sfizz -->
                <Plugin>
                  <Info>
                    <Type>LV2</Type>
                    <Name>sfizz</Name>
                    <URI>http://sfztools.github.io/sfizz</URI>
                  </Info>
                  <Data>
                    <Active>Yes</Active>
                    <ControlChannel>1</ControlChannel>
                    <Options>0x3f0</Options>
                    <Parameter>
                      <Index>0</Index>
                      <Name>Volume</Name>
                      <Symbol>volume</Symbol>
                      <Value>0</Value>
                    </Parameter>
                    <Parameter>
                      <Index>1</Index>
                      <Name>Polyphony</Name>
                      <Symbol>num_voices</Symbol>
                      <Value>64</Value>
                    </Parameter>
                    <Parameter>
                      <Index>2</Index>
                      <Name>Internal oversampling factor</Name>
                      <Symbol>oversampling</Symbol>
                      <Value>1</Value>
                    </Parameter>
                    <Parameter>
                      <Index>3</Index>
                      <Name>Preload size</Name>
                      <Symbol>preload_size</Symbol>
                      <Value>8192</Value>
                    </Parameter>
                    <CustomData>
                      <Type>http://lv2plug.in/ns/ext/atom#Path</Type>
                      <Key>http://sfztools.github.io/sfizz:sfzfile</Key>
                      <Value>/home/pass/samples/fakeguitar/_fakeguitar1_integrated.sfz</Value>
                    </CustomData>
                    <CustomData>
                      <Type>http://lv2plug.in/ns/ext/atom#Int</Type>
                      <Key>http://sfztools.github.io/sfizz:numvoices</Key>
                      <Value>QAAAAA==</Value>
                    </CustomData>
                    <CustomData>
                      <Type>http://lv2plug.in/ns/ext/atom#Int</Type>
                      <Key>http://sfztools.github.io/sfizz:preload_size</Key>
                      <Value>ACAAAA==</Value>
                    </CustomData>
                    <CustomData>
                      <Type>http://lv2plug.in/ns/ext/atom#Int</Type>
                      <Key>http://sfztools.github.io/sfizz:oversampling</Key>
                      <Value>AQAAAA==</Value>
                    </CustomData>
                  </Data>
                </Plugin>
                <Patchbay>
                  <Connection>
                    <Source>Midi Input:Capture 1</Source>
                    <Target>sfizz:events-in</Target>
                  </Connection>
                  <Connection>
                    <Source>sfizz:Left Output</Source>
                    <Target>Audio Output:Left</Target>
                  </Connection>
                  <Connection>
                    <Source>sfizz:Right Output</Source>
                    <Target>Audio Output:Right</Target>
                  </Connection>
                  <Positions>
                    <Position x1="1693" pluginId="0" y1="1353">
                      <Name>sfizz</Name>
                    </Position>
                  </Positions>
                </Patchbay>
              </CARLA-PROJECT>
            </carlapatchbay>
          </instrument>
          <eldata ftype="0" fcut="14000" fres="0.5" fwet="0">
            <elvol userwavefile="" hold="0.5" lspd_numerator="4" lspd="0.1" lspd_denominator="4" lshp="0" latt="0" rel="0.1" x100="0" pdel="0" lpdel="0" amt="0" lspd_syncmode="0" dec="0.5" lamt="0" sustain="0.5" ctlenvamt="0" att="0"/>
            <elcut userwavefile="" hold="0.5" lspd_numerator="4" lspd="0.1" lspd_denominator="4" lshp="0" latt="0" rel="0.1" x100="0" pdel="0" lpdel="0" amt="0" lspd_syncmode="0" dec="0.5" lamt="0" sustain="0.5" ctlenvamt="0" att="0"/>
            <elres userwavefile="" hold="0.5" lspd_numerator="4" lspd="0.1" lspd_denominator="4" lshp="0" latt="0" rel="0.1" x100="0" pdel="0" lpdel="0" amt="0" lspd_syncmode="0" dec="0.5" lamt="0" sustain="0.5" ctlenvamt="0" att="0"/>
          </eldata>
          <chordcreator chord-enabled="0" chordrange="1" chord="0"/>
          <arpeggiator arpcycle="0" arptime_syncmode="0" arptime_numerator="4" arpgate="100" arpmode="0" arp-enabled="0" arptime="200" arp="0" arpskip="0" arpmiss="0" arprange="1" arpdir="0" arptime_denominator="4"/>
          <midiport inputchannel="0" outputprogram="1" basevelocity="63" outputchannel="1" fixedinputvelocity="-1" inputcontroller="0" readable="0" writable="0" outputcontroller="0" fixedoutputvelocity="-1" fixedoutputnote="-1"/>
          <fxchain numofeffects="0" enabled="0"/>
        </instrumenttrack>
        <pattern muted="0" name="Lead Guitar S" pos="1536" type="1" steps="16">
          <note len="12" key="67" vol="100" pos="0" pan="0"/>
          <note len="24" key="0" vol="100" pos="0" pan="0"/>
          <note len="12" key="66" vol="100" pos="12" pan="0"/>
          <note len="12" key="64" vol="100" pos="24" pan="0"/>
          <note len="24" key="1" vol="100" pos="24" pan="0"/>
          <note len="12" key="64" vol="100" pos="36" pan="0"/>
          <note len="12" key="64" vol="100" pos="48" pan="0"/>
          <note len="12" key="64" vol="100" pos="60" pan="0"/>
          <note len="12" key="66" vol="100" pos="72" pan="0"/>
          <note len="24" key="0" vol="100" pos="72" pan="0"/>
          <note len="12" key="64" vol="100" pos="84" pan="0"/>
          <note len="12" key="64" vol="100" pos="96" pan="0"/>
          <note len="24" key="1" vol="100" pos="96" pan="0"/>
          <note len="12" key="64" vol="100" pos="108" pan="0"/>
          <note len="12" key="64" vol="100" pos="120" pan="0"/>
          <note len="12" key="64" vol="100" pos="132" pan="0"/>
          <note len="12" key="67" vol="100" pos="144" pan="0"/>
          <note len="12" key="0" vol="100" pos="144" pan="0"/>
          <note len="12" key="66" vol="100" pos="156" pan="0"/>
          <note len="12" key="64" vol="100" pos="168" pan="0"/>
          <note len="12" key="1" vol="100" pos="168" pan="0"/>
          <note len="12" key="64" vol="100" pos="180" pan="0"/>
          <note len="12" key="67" vol="100" pos="192" pan="0"/>
          <note len="12" key="0" vol="100" pos="192" pan="0"/>
          <note len="12" key="66" vol="100" pos="204" pan="0"/>
          <note len="12" key="64" vol="100" pos="216" pan="0"/>
          <note len="12" key="1" vol="100" pos="216" pan="0"/>
          <note len="12" key="64" vol="100" pos="228" pan="0"/>
          <note len="12" key="64" vol="100" pos="240" pan="0"/>
          <note len="12" key="64" vol="100" pos="252" pan="0"/>
          <note len="12" key="66" vol="100" pos="264" pan="0"/>
          <note len="12" key="0" vol="100" pos="264" pan="0"/>
          <note len="12" key="64" vol="100" pos="276" pan="0"/>
          <note len="12" key="64" vol="100" pos="288" pan="0"/>
          <note len="12" key="1" vol="100" pos="288" pan="0"/>
          <note len="12" key="64" vol="100" pos="300" pan="0"/>
          <note len="12" key="64" vol="100" pos="312" pan="0"/>
          <note len="12" key="64" vol="100" pos="324" pan="0"/>
          <note len="12" key="67" vol="100" pos="336" pan="0"/>
          <note len="12" key="0" vol="100" pos="336" pan="0"/>
          <note len="12" key="66" vol="100" pos="348" pan="0"/>
          <note len="12" key="64" vol="100" pos="360" pan="0"/>
          <note len="12" key="1" vol="100" pos="360" pan="0"/>
          <note len="12" key="64" vol="100" pos="372" pan="0"/>
          <note len="12" key="71" vol="100" pos="384" pan="0"/>
          <note len="12" key="0" vol="100" pos="384" pan="0"/>
          <note len="12" key="69" vol="100" pos="396" pan="0"/>
          <note len="12" key="67" vol="100" pos="408" pan="0"/>
          <note len="12" key="1" vol="100" pos="408" pan="0"/>
          <note len="12" key="67" vol="100" pos="420" pan="0"/>
          <note len="12" key="67" vol="100" pos="432" pan="0"/>
          <note len="12" key="67" vol="100" pos="444" pan="0"/>
          <note len="12" key="69" vol="100" pos="456" pan="0"/>
          <note len="12" key="0" vol="100" pos="456" pan="0"/>
          <note len="12" key="67" vol="100" pos="468" pan="0"/>
          <note len="12" key="67" vol="100" pos="480" pan="0"/>
          <note len="12" key="1" vol="100" pos="480" pan="0"/>
          <note len="12" key="67" vol="100" pos="492" pan="0"/>
          <note len="12" key="67" vol="100" pos="504" pan="0"/>
          <note len="12" key="67" vol="100" pos="516" pan="0"/>
          <note len="12" key="71" vol="100" pos="528" pan="0"/>
          <note len="12" key="0" vol="100" pos="528" pan="0"/>
          <note len="12" key="69" vol="100" pos="540" pan="0"/>
          <note len="12" key="67" vol="100" pos="552" pan="0"/>
          <note len="12" key="1" vol="100" pos="552" pan="0"/>
          <note len="12" key="67" vol="100" pos="564" pan="0"/>
          <note len="12" key="69" vol="100" pos="576" pan="0"/>
          <note len="12" key="69" vol="100" pos="588" pan="0"/>
          <note len="12" key="67" vol="100" pos="600" pan="0"/>
          <note len="12" key="67" vol="100" pos="612" pan="0"/>
          <note len="12" key="66" vol="100" pos="624" pan="0"/>
          <note len="12" key="66" vol="100" pos="636" pan="0"/>
          <note len="12" key="67" vol="100" pos="648" pan="0"/>
          <note len="12" key="67" vol="100" pos="660" pan="0"/>
          <note len="12" key="66" vol="100" pos="672" pan="0"/>
          <note len="12" key="66" vol="100" pos="684" pan="0"/>
          <note len="12" key="64" vol="100" pos="696" pan="0"/>
          <note len="12" key="64" vol="100" pos="708" pan="0"/>
          <note len="12" key="62" vol="100" pos="720" pan="0"/>
          <note len="12" key="62" vol="100" pos="732" pan="0"/>
          <note len="12" key="66" vol="100" pos="744" pan="0"/>
          <note len="12" key="66" vol="100" pos="756" pan="0"/>
        </pattern>
        <pattern muted="0" name="" pos="2304" type="1" steps="16">
          <note len="12" key="67" vol="100" pos="0" pan="0"/>
          <note len="24" key="0" vol="100" pos="0" pan="0"/>
          <note len="12" key="66" vol="100" pos="12" pan="0"/>
          <note len="12" key="64" vol="100" pos="24" pan="0"/>
          <note len="24" key="1" vol="100" pos="24" pan="0"/>
          <note len="12" key="64" vol="100" pos="36" pan="0"/>
          <note len="12" key="64" vol="100" pos="48" pan="0"/>
          <note len="12" key="64" vol="100" pos="60" pan="0"/>
          <note len="12" key="66" vol="100" pos="72" pan="0"/>
          <note len="24" key="0" vol="100" pos="72" pan="0"/>
          <note len="12" key="64" vol="100" pos="84" pan="0"/>
          <note len="12" key="64" vol="100" pos="96" pan="0"/>
          <note len="24" key="1" vol="100" pos="96" pan="0"/>
          <note len="12" key="64" vol="100" pos="108" pan="0"/>
          <note len="12" key="64" vol="100" pos="120" pan="0"/>
          <note len="12" key="64" vol="100" pos="132" pan="0"/>
          <note len="12" key="67" vol="100" pos="144" pan="0"/>
          <note len="12" key="0" vol="100" pos="144" pan="0"/>
          <note len="12" key="66" vol="100" pos="156" pan="0"/>
          <note len="12" key="64" vol="100" pos="168" pan="0"/>
          <note len="12" key="1" vol="100" pos="168" pan="0"/>
          <note len="12" key="64" vol="100" pos="180" pan="0"/>
          <note len="12" key="67" vol="100" pos="192" pan="0"/>
          <note len="12" key="0" vol="100" pos="192" pan="0"/>
          <note len="12" key="64" vol="100" pos="204" pan="0"/>
          <note len="12" key="59" vol="100" pos="216" pan="0"/>
          <note len="12" key="1" vol="100" pos="216" pan="0"/>
          <note len="12" key="55" vol="100" pos="228" pan="0"/>
          <note len="12" key="59" vol="100" pos="240" pan="0"/>
          <note len="12" key="64" vol="100" pos="252" pan="0"/>
          <note len="12" key="66" vol="100" pos="264" pan="0"/>
          <note len="12" key="0" vol="100" pos="264" pan="0"/>
          <note len="12" key="64" vol="100" pos="276" pan="0"/>
          <note len="12" key="59" vol="100" pos="288" pan="0"/>
          <note len="12" key="1" vol="100" pos="288" pan="0"/>
          <note len="12" key="55" vol="100" pos="300" pan="0"/>
          <note len="12" key="59" vol="100" pos="312" pan="0"/>
          <note len="12" key="64" vol="100" pos="324" pan="0"/>
          <note len="12" key="67" vol="100" pos="336" pan="0"/>
          <note len="12" key="0" vol="100" pos="336" pan="0"/>
          <note len="12" key="66" vol="100" pos="348" pan="0"/>
          <note len="12" key="64" vol="100" pos="360" pan="0"/>
          <note len="12" key="1" vol="100" pos="360" pan="0"/>
          <note len="12" key="64" vol="100" pos="372" pan="0"/>
          <note len="12" key="0" vol="100" pos="384" pan="0"/>
          <note len="12" key="1" vol="100" pos="408" pan="0"/>
          <note len="12" key="0" vol="100" pos="456" pan="0"/>
          <note len="12" key="1" vol="100" pos="480" pan="0"/>
          <note len="12" key="0" vol="100" pos="528" pan="0"/>
          <note len="12" key="1" vol="100" pos="552" pan="0"/>
        </pattern>
        <pattern muted="0" name="" pos="4608" type="1" steps="16">
          <note len="48" key="67" vol="100" pos="48" pan="0"/>
          <note len="12" key="0" vol="100" pos="48" pan="0"/>
          <note len="48" key="66" vol="100" pos="96" pan="0"/>
          <note len="48" key="62" vol="100" pos="144" pan="0"/>
          <note len="48" key="66" vol="100" pos="192" pan="0"/>
          <note len="24" key="67" vol="100" pos="240" pan="0"/>
          <note len="48" key="66" vol="100" pos="264" pan="0"/>
          <note len="24" key="64" vol="100" pos="312" pan="0"/>
          <note len="48" key="64" vol="100" pos="336" pan="0"/>
          <note len="12" key="64" vol="100" pos="384" pan="0"/>
          <note len="12" key="1" vol="100" pos="384" pan="0"/>
          <note len="12" key="64" vol="100" pos="396" pan="0"/>
          <note len="12" key="64" vol="100" pos="408" pan="0"/>
          <note len="12" key="64" vol="100" pos="420" pan="0"/>
          <note len="48" key="67" vol="100" pos="432" pan="0"/>
          <note len="12" key="0" vol="100" pos="432" pan="0"/>
          <note len="48" key="66" vol="100" pos="480" pan="0"/>
          <note len="48" key="64" vol="100" pos="528" pan="0"/>
          <note len="48" key="69" vol="100" pos="576" pan="0"/>
          <note len="24" key="71" vol="100" pos="624" pan="0"/>
          <note len="48" key="67" vol="100" pos="648" pan="0"/>
          <note len="24" key="71" vol="100" pos="696" pan="0"/>
          <note len="24" key="74" vol="100" pos="720" pan="0"/>
          <note len="24" key="71" vol="100" pos="744" pan="0"/>
          <note len="12" key="64" vol="100" pos="768" pan="0"/>
          <note len="24" key="1" vol="100" pos="768" pan="0"/>
          <note len="12" key="64" vol="100" pos="780" pan="0"/>
          <note len="12" key="64" vol="100" pos="792" pan="0"/>
          <note len="12" key="64" vol="100" pos="804" pan="0"/>
          <note len="48" key="67" vol="100" pos="816" pan="0"/>
          <note len="24" key="0" vol="100" pos="816" pan="0"/>
          <note len="48" key="69" vol="100" pos="864" pan="0"/>
          <note len="48" key="71" vol="100" pos="912" pan="0"/>
          <note len="24" key="74" vol="100" pos="960" pan="0"/>
          <note len="24" key="71" vol="100" pos="984" pan="0"/>
          <note len="24" key="74" vol="100" pos="1008" pan="0"/>
          <note len="48" key="76" vol="100" pos="1032" pan="0"/>
          <note len="24" key="74" vol="100" pos="1080" pan="0"/>
          <note len="24" key="78" vol="100" pos="1104" pan="0"/>
          <note len="24" key="79" vol="100" pos="1128" pan="0"/>
          <note len="24" key="83" vol="100" pos="1152" pan="0"/>
          <note len="12" key="0" vol="100" pos="1152" pan="0"/>
          <note len="12" key="1" vol="100" pos="1164" pan="0"/>
          <note len="12" key="76" vol="100" pos="1176" pan="0"/>
          <note len="12" key="76" vol="100" pos="1188" pan="0"/>
          <note len="12" key="76" vol="100" pos="1200" pan="0"/>
          <note len="12" key="76" vol="100" pos="1212" pan="0"/>
          <note len="48" key="81" vol="100" pos="1224" pan="0"/>
          <note len="48" key="0" vol="100" pos="1224" pan="0"/>
          <note len="24" key="79" vol="100" pos="1272" pan="0"/>
          <note len="24" key="78" vol="100" pos="1296" pan="0"/>
          <note len="24" key="76" vol="100" pos="1320" pan="0"/>
          <note len="48" key="74" vol="100" pos="1344" pan="0"/>
          <note len="12" key="78" vol="100" pos="1392" pan="0"/>
          <note len="12" key="2" vol="100" pos="1392" pan="0"/>
          <note len="12" key="74" vol="100" pos="1404" pan="0"/>
          <note len="12" key="78" vol="100" pos="1416" pan="0"/>
          <note len="12" key="74" vol="100" pos="1428" pan="0"/>
          <note len="12" key="79" vol="100" pos="1440" pan="0"/>
          <note len="12" key="74" vol="100" pos="1452" pan="0"/>
          <note len="12" key="79" vol="100" pos="1464" pan="0"/>
          <note len="12" key="74" vol="100" pos="1476" pan="0"/>
          <note len="12" key="81" vol="100" pos="1488" pan="0"/>
          <note len="12" key="74" vol="100" pos="1500" pan="0"/>
          <note len="12" key="81" vol="100" pos="1512" pan="0"/>
          <note len="12" key="74" vol="100" pos="1524" pan="0"/>
        </pattern>
        <pattern muted="0" name="Lead Guitar S" pos="12288" type="1" steps="16">
          <note len="12" key="76" vol="100" pos="0" pan="0"/>
          <note len="12" key="0" vol="100" pos="0" pan="0"/>
          <note len="12" key="71" vol="100" pos="12" pan="0"/>
          <note len="12" key="1" vol="100" pos="12" pan="0"/>
          <note len="12" key="67" vol="100" pos="24" pan="0"/>
          <note len="12" key="64" vol="100" pos="36" pan="0"/>
          <note len="12" key="59" vol="100" pos="48" pan="0"/>
          <note len="12" key="64" vol="100" pos="60" pan="0"/>
          <note len="12" key="67" vol="100" pos="72" pan="0"/>
          <note len="12" key="71" vol="100" pos="84" pan="0"/>
          <note len="12" key="79" vol="100" pos="96" pan="0"/>
          <note len="12" key="0" vol="100" pos="96" pan="0"/>
          <note len="12" key="76" vol="100" pos="108" pan="0"/>
          <note len="12" key="71" vol="100" pos="120" pan="0"/>
          <note len="12" key="1" vol="100" pos="120" pan="0"/>
          <note len="12" key="67" vol="100" pos="132" pan="0"/>
          <note len="12" key="64" vol="100" pos="144" pan="0"/>
          <note len="12" key="67" vol="100" pos="156" pan="0"/>
          <note len="12" key="71" vol="100" pos="168" pan="0"/>
          <note len="12" key="76" vol="100" pos="180" pan="0"/>
        </pattern>
        <pattern muted="0" name="Lead Guitar S" pos="13056" type="1" steps="16">
          <note len="12" key="64" vol="100" pos="0" pan="0"/>
          <note len="12" key="1" vol="100" pos="0" pan="0"/>
          <note len="12" key="64" vol="100" pos="12" pan="0"/>
          <note len="12" key="66" vol="100" pos="24" pan="0"/>
          <note len="12" key="66" vol="100" pos="36" pan="0"/>
          <note len="12" key="67" vol="100" pos="48" pan="0"/>
          <note len="12" key="67" vol="100" pos="60" pan="0"/>
          <note len="12" key="64" vol="100" pos="72" pan="0"/>
          <note len="12" key="64" vol="100" pos="84" pan="0"/>
        </pattern>
        <pattern muted="0" name="Lead Guitar S" pos="13248" type="1" steps="16">
          <note len="12" key="76" vol="100" pos="0" pan="0"/>
          <note len="12" key="1" vol="100" pos="0" pan="0"/>
          <note len="12" key="76" vol="100" pos="12" pan="0"/>
          <note len="12" key="74" vol="100" pos="24" pan="0"/>
          <note len="12" key="74" vol="100" pos="36" pan="0"/>
          <note len="12" key="76" vol="100" pos="48" pan="0"/>
          <note len="12" key="76" vol="100" pos="60" pan="0"/>
          <note len="12" key="78" vol="100" pos="72" pan="0"/>
          <note len="12" key="78" vol="100" pos="84" pan="0"/>
        </pattern>
        <pattern muted="0" name="" pos="13824" type="1" steps="16">
          <note len="48" key="67" vol="100" pos="48" pan="0"/>
          <note len="12" key="0" vol="100" pos="48" pan="0"/>
          <note len="48" key="66" vol="100" pos="96" pan="0"/>
          <note len="48" key="62" vol="100" pos="144" pan="0"/>
          <note len="48" key="66" vol="100" pos="192" pan="0"/>
          <note len="24" key="67" vol="100" pos="240" pan="0"/>
          <note len="48" key="66" vol="100" pos="264" pan="0"/>
          <note len="24" key="64" vol="100" pos="312" pan="0"/>
          <note len="48" key="64" vol="100" pos="336" pan="0"/>
          <note len="12" key="64" vol="100" pos="384" pan="0"/>
          <note len="12" key="1" vol="100" pos="384" pan="0"/>
          <note len="12" key="64" vol="100" pos="396" pan="0"/>
          <note len="12" key="64" vol="100" pos="408" pan="0"/>
          <note len="12" key="64" vol="100" pos="420" pan="0"/>
          <note len="48" key="67" vol="100" pos="432" pan="0"/>
          <note len="12" key="0" vol="100" pos="432" pan="0"/>
          <note len="48" key="66" vol="100" pos="480" pan="0"/>
          <note len="48" key="64" vol="100" pos="528" pan="0"/>
          <note len="48" key="69" vol="100" pos="576" pan="0"/>
          <note len="24" key="71" vol="100" pos="624" pan="0"/>
          <note len="48" key="67" vol="100" pos="648" pan="0"/>
          <note len="24" key="71" vol="100" pos="696" pan="0"/>
          <note len="24" key="74" vol="100" pos="720" pan="0"/>
          <note len="24" key="71" vol="100" pos="744" pan="0"/>
          <note len="12" key="64" vol="100" pos="768" pan="0"/>
          <note len="24" key="1" vol="100" pos="768" pan="0"/>
          <note len="12" key="64" vol="100" pos="780" pan="0"/>
          <note len="12" key="64" vol="100" pos="792" pan="0"/>
          <note len="12" key="64" vol="100" pos="804" pan="0"/>
          <note len="48" key="67" vol="100" pos="816" pan="0"/>
          <note len="24" key="0" vol="100" pos="816" pan="0"/>
          <note len="48" key="69" vol="100" pos="864" pan="0"/>
          <note len="48" key="71" vol="100" pos="912" pan="0"/>
          <note len="24" key="74" vol="100" pos="960" pan="0"/>
          <note len="24" key="71" vol="100" pos="984" pan="0"/>
          <note len="24" key="74" vol="100" pos="1008" pan="0"/>
          <note len="48" key="76" vol="100" pos="1032" pan="0"/>
          <note len="24" key="74" vol="100" pos="1080" pan="0"/>
          <note len="24" key="78" vol="100" pos="1104" pan="0"/>
          <note len="24" key="79" vol="100" pos="1128" pan="0"/>
          <note len="24" key="83" vol="100" pos="1152" pan="0"/>
          <note len="12" key="0" vol="100" pos="1152" pan="0"/>
          <note len="12" key="1" vol="100" pos="1164" pan="0"/>
          <note len="12" key="76" vol="100" pos="1176" pan="0"/>
          <note len="12" key="76" vol="100" pos="1188" pan="0"/>
          <note len="12" key="76" vol="100" pos="1200" pan="0"/>
          <note len="12" key="76" vol="100" pos="1212" pan="0"/>
          <note len="48" key="81" vol="100" pos="1224" pan="0"/>
          <note len="48" key="0" vol="100" pos="1224" pan="0"/>
          <note len="24" key="79" vol="100" pos="1272" pan="0"/>
          <note len="24" key="78" vol="100" pos="1296" pan="0"/>
          <note len="24" key="76" vol="100" pos="1320" pan="0"/>
          <note len="48" key="74" vol="100" pos="1344" pan="0"/>
          <note len="12" key="78" vol="100" pos="1392" pan="0"/>
          <note len="12" key="2" vol="100" pos="1392" pan="0"/>
          <note len="12" key="74" vol="100" pos="1404" pan="0"/>
          <note len="12" key="78" vol="100" pos="1416" pan="0"/>
          <note len="12" key="74" vol="100" pos="1428" pan="0"/>
          <note len="12" key="79" vol="100" pos="1440" pan="0"/>
          <note len="12" key="74" vol="100" pos="1452" pan="0"/>
          <note len="12" key="79" vol="100" pos="1464" pan="0"/>
          <note len="12" key="74" vol="100" pos="1476" pan="0"/>
          <note len="12" key="81" vol="100" pos="1488" pan="0"/>
          <note len="12" key="74" vol="100" pos="1500" pan="0"/>
          <note len="12" key="81" vol="100" pos="1512" pan="0"/>
          <note len="12" key="74" vol="100" pos="1524" pan="0"/>
        </pattern>
        <pattern muted="0" name="Lead Guitar S" pos="23040" type="1" steps="16">
          <note len="24" key="64" vol="197" pos="0" pan="0"/>
          <note len="24" key="1" vol="197" pos="0" pan="0"/>
          <note len="24" key="64" vol="197" pos="24" pan="0"/>
          <note len="24" key="71" vol="197" pos="48" pan="0"/>
          <note len="24" key="0" vol="197" pos="48" pan="0"/>
          <note len="24" key="64" vol="197" pos="72" pan="0"/>
          <note len="24" key="1" vol="197" pos="72" pan="0"/>
          <note len="24" key="69" vol="197" pos="96" pan="0"/>
          <note len="24" key="0" vol="197" pos="96" pan="0"/>
          <note len="24" key="64" vol="197" pos="120" pan="0"/>
          <note len="24" key="1" vol="197" pos="120" pan="0"/>
          <note len="24" key="74" vol="197" pos="144" pan="0"/>
          <note len="24" key="0" vol="197" pos="144" pan="0"/>
          <note len="24" key="64" vol="197" pos="168" pan="0"/>
          <note len="24" key="1" vol="197" pos="168" pan="0"/>
          <note len="24" key="69" vol="197" pos="192" pan="0"/>
          <note len="24" key="0" vol="197" pos="192" pan="0"/>
          <note len="24" key="64" vol="197" pos="216" pan="0"/>
          <note len="24" key="1" vol="197" pos="216" pan="0"/>
          <note len="24" key="67" vol="197" pos="240" pan="0"/>
          <note len="24" key="0" vol="197" pos="240" pan="0"/>
          <note len="24" key="64" vol="197" pos="264" pan="0"/>
          <note len="24" key="1" vol="197" pos="264" pan="0"/>
          <note len="24" key="71" vol="197" pos="288" pan="0"/>
          <note len="24" key="0" vol="197" pos="288" pan="0"/>
          <note len="24" key="69" vol="197" pos="312" pan="0"/>
          <note len="24" key="67" vol="197" pos="336" pan="0"/>
          <note len="24" key="69" vol="197" pos="360" pan="0"/>
        </pattern>
        <pattern muted="0" name="" pos="23424" type="1" steps="16">
          <note len="24" key="64" vol="197" pos="0" pan="0"/>
          <note len="24" key="1" vol="197" pos="0" pan="0"/>
          <note len="24" key="64" vol="197" pos="24" pan="0"/>
          <note len="24" key="71" vol="197" pos="48" pan="0"/>
          <note len="24" key="0" vol="197" pos="48" pan="0"/>
          <note len="24" key="64" vol="197" pos="72" pan="0"/>
          <note len="24" key="1" vol="197" pos="72" pan="0"/>
          <note len="24" key="69" vol="197" pos="96" pan="0"/>
          <note len="24" key="0" vol="197" pos="96" pan="0"/>
          <note len="24" key="64" vol="197" pos="120" pan="0"/>
          <note len="24" key="1" vol="197" pos="120" pan="0"/>
          <note len="24" key="74" vol="197" pos="144" pan="0"/>
          <note len="24" key="0" vol="197" pos="144" pan="0"/>
          <note len="24" key="64" vol="197" pos="168" pan="0"/>
          <note len="24" key="1" vol="197" pos="168" pan="0"/>
          <note len="24" key="69" vol="197" pos="192" pan="0"/>
          <note len="24" key="0" vol="197" pos="192" pan="0"/>
          <note len="24" key="64" vol="197" pos="216" pan="0"/>
          <note len="24" key="1" vol="197" pos="216" pan="0"/>
          <note len="24" key="67" vol="197" pos="240" pan="0"/>
          <note len="24" key="0" vol="197" pos="240" pan="0"/>
          <note len="24" key="64" vol="197" pos="264" pan="0"/>
          <note len="24" key="1" vol="197" pos="264" pan="0"/>
          <note len="12" key="71" vol="197" pos="288" pan="0"/>
          <note len="12" key="0" vol="197" pos="288" pan="0"/>
          <note len="12" key="69" vol="197" pos="300" pan="0"/>
          <note len="12" key="1" vol="197" pos="300" pan="0"/>
          <note len="12" key="71" vol="197" pos="312" pan="0"/>
          <note len="12" key="74" vol="197" pos="324" pan="0"/>
          <note len="12" key="76" vol="197" pos="336" pan="0"/>
          <note len="12" key="0" vol="197" pos="336" pan="0"/>
          <note len="12" key="74" vol="197" pos="348" pan="0"/>
          <note len="12" key="1" vol="197" pos="348" pan="0"/>
          <note len="12" key="71" vol="197" pos="360" pan="0"/>
          <note len="12" key="74" vol="197" pos="372" pan="0"/>
        </pattern>
        <pattern muted="0" name="Lead Guitar S" pos="26112" type="1" steps="16">
          <note len="12" key="64" vol="197" pos="0" pan="0"/>
          <note len="24" key="1" vol="197" pos="0" pan="0"/>
          <note len="12" key="64" vol="197" pos="12" pan="0"/>
          <note len="12" key="59" vol="197" pos="24" pan="0"/>
          <note len="12" key="59" vol="197" pos="36" pan="0"/>
          <note len="12" key="64" vol="197" pos="48" pan="0"/>
          <note len="12" key="64" vol="197" pos="60" pan="0"/>
          <note len="12" key="67" vol="197" pos="72" pan="0"/>
          <note len="12" key="67" vol="197" pos="84" pan="0"/>
          <note len="12" key="66" vol="197" pos="96" pan="0"/>
          <note len="12" key="66" vol="197" pos="108" pan="0"/>
          <note len="12" key="62" vol="197" pos="120" pan="0"/>
          <note len="12" key="62" vol="197" pos="132" pan="0"/>
          <note len="12" key="57" vol="197" pos="144" pan="0"/>
          <note len="12" key="57" vol="197" pos="156" pan="0"/>
          <note len="12" key="55" vol="197" pos="168" pan="0"/>
          <note len="12" key="55" vol="197" pos="180" pan="0"/>
          <note len="24" key="57" vol="197" pos="192" pan="0"/>
          <note len="24" key="0" vol="197" pos="192" pan="0"/>
          <note len="12" key="59" vol="197" pos="216" pan="0"/>
          <note len="12" key="2" vol="197" pos="216" pan="0"/>
          <note len="12" key="62" vol="197" pos="228" pan="0"/>
          <note len="12" key="59" vol="197" pos="240" pan="0"/>
          <note len="12" key="57" vol="197" pos="252" pan="0"/>
          <note len="12" key="59" vol="197" pos="264" pan="0"/>
          <note len="12" key="62" vol="197" pos="276" pan="0"/>
          <note len="72" key="64" vol="197" pos="288" pan="0"/>
          <note len="12" key="0" vol="197" pos="288" pan="0"/>
          <note len="12" key="66" vol="197" pos="360" pan="0"/>
          <note len="12" key="1" vol="197" pos="360" pan="0"/>
          <note len="12" key="67" vol="197" pos="372" pan="0"/>
        </pattern>
        <pattern muted="0" name="Lead Guitar S" pos="26496" type="1" steps="16">
          <note len="12" key="71" vol="100" pos="0" pan="0"/>
          <note len="12" key="0" vol="100" pos="0" pan="0"/>
          <note len="12" key="67" vol="100" pos="12" pan="0"/>
          <note len="12" key="1" vol="100" pos="12" pan="0"/>
          <note len="12" key="64" vol="100" pos="24" pan="0"/>
          <note len="12" key="59" vol="100" pos="36" pan="0"/>
          <note len="12" key="55" vol="100" pos="48" pan="0"/>
          <note len="12" key="59" vol="100" pos="60" pan="0"/>
          <note len="12" key="74" vol="100" pos="72" pan="0"/>
          <note len="12" key="0" vol="100" pos="72" pan="0"/>
          <note len="12" key="71" vol="100" pos="84" pan="0"/>
          <note len="12" key="1" vol="100" pos="84" pan="0"/>
          <note len="12" key="67" vol="100" pos="96" pan="0"/>
          <note len="12" key="64" vol="100" pos="108" pan="0"/>
          <note len="12" key="59" vol="100" pos="120" pan="0"/>
          <note len="12" key="64" vol="100" pos="132" pan="0"/>
          <note len="12" key="71" vol="100" pos="144" pan="0"/>
          <note len="12" key="0" vol="100" pos="144" pan="0"/>
          <note len="12" key="67" vol="100" pos="156" pan="0"/>
          <note len="12" key="1" vol="100" pos="156" pan="0"/>
          <note len="12" key="64" vol="100" pos="168" pan="0"/>
          <note len="12" key="67" vol="100" pos="180" pan="0"/>
          <note len="12" key="76" vol="100" pos="192" pan="0"/>
          <note len="12" key="0" vol="100" pos="192" pan="0"/>
          <note len="12" key="74" vol="100" pos="204" pan="0"/>
          <note len="12" key="76" vol="100" pos="216" pan="0"/>
          <note len="12" key="78" vol="100" pos="228" pan="0"/>
          <note len="12" key="79" vol="100" pos="240" pan="0"/>
          <note len="12" key="76" vol="100" pos="252" pan="0"/>
          <note len="12" key="78" vol="100" pos="264" pan="0"/>
          <note len="12" key="79" vol="100" pos="276" pan="0"/>
          <note len="12" key="81" vol="100" pos="288" pan="0"/>
          <note len="12" key="79" vol="100" pos="300" pan="0"/>
          <note len="12" key="81" vol="100" pos="312" pan="0"/>
          <note len="12" key="83" vol="100" pos="324" pan="0"/>
          <note len="12" key="88" vol="100" pos="336" pan="0"/>
          <note len="12" key="2" vol="100" pos="336" pan="0"/>
          <note len="12" key="79" vol="100" pos="348" pan="0"/>
          <note len="12" key="83" vol="100" pos="360" pan="0"/>
          <note len="12" key="79" vol="100" pos="372" pan="0"/>
        </pattern>
        <pattern muted="0" name="Lead Guitar S" pos="27648" type="1" steps="16">
          <note len="12" key="83" vol="199" pos="0" pan="0"/>
          <note len="24" key="0" vol="199" pos="0" pan="0"/>
          <note len="12" key="81" vol="199" pos="12" pan="0"/>
          <note len="12" key="79" vol="199" pos="24" pan="0"/>
          <note len="12" key="1" vol="199" pos="24" pan="0"/>
          <note len="12" key="76" vol="199" pos="36" pan="0"/>
          <note len="12" key="71" vol="199" pos="48" pan="0"/>
          <note len="12" key="67" vol="199" pos="60" pan="0"/>
          <note len="12" key="71" vol="199" pos="72" pan="0"/>
          <note len="12" key="76" vol="199" pos="84" pan="0"/>
          <note len="12" key="0" vol="199" pos="96" pan="0"/>
          <note len="12" key="1" vol="199" pos="120" pan="0"/>
          <note len="12" key="0" vol="199" pos="192" pan="0"/>
        </pattern>
        <pattern muted="0" name="" pos="28416" type="1" steps="16">
          <note len="12" key="83" vol="199" pos="0" pan="0"/>
          <note len="24" key="0" vol="199" pos="0" pan="0"/>
          <note len="12" key="81" vol="199" pos="12" pan="0"/>
          <note len="12" key="79" vol="199" pos="24" pan="0"/>
          <note len="12" key="1" vol="199" pos="24" pan="0"/>
          <note len="12" key="76" vol="199" pos="36" pan="0"/>
          <note len="12" key="71" vol="199" pos="48" pan="0"/>
          <note len="12" key="67" vol="199" pos="60" pan="0"/>
          <note len="12" key="71" vol="199" pos="72" pan="0"/>
          <note len="12" key="76" vol="199" pos="84" pan="0"/>
          <note len="12" key="0" vol="199" pos="96" pan="0"/>
          <note len="12" key="1" vol="199" pos="120" pan="0"/>
          <note len="12" key="0" vol="199" pos="192" pan="0"/>
        </pattern>
        <pattern muted="0" name="Lead Guitar S" pos="29184" type="1" steps="16">
          <note len="12" key="60" vol="199" pos="0" pan="0"/>
          <note len="12" key="1" vol="199" pos="0" pan="0"/>
          <note len="12" key="60" vol="199" pos="12" pan="0"/>
          <note len="12" key="62" vol="199" pos="24" pan="0"/>
          <note len="12" key="62" vol="199" pos="36" pan="0"/>
          <note len="12" key="64" vol="199" pos="48" pan="0"/>
          <note len="12" key="64" vol="199" pos="60" pan="0"/>
          <note len="12" key="60" vol="199" pos="72" pan="0"/>
          <note len="12" key="60" vol="199" pos="84" pan="0"/>
          <note len="12" key="67" vol="199" pos="96" pan="0"/>
          <note len="12" key="67" vol="199" pos="108" pan="0"/>
          <note len="12" key="66" vol="199" pos="120" pan="0"/>
          <note len="12" key="66" vol="199" pos="132" pan="0"/>
          <note len="12" key="64" vol="199" pos="144" pan="0"/>
          <note len="12" key="64" vol="199" pos="156" pan="0"/>
          <note len="24" key="69" vol="199" pos="168" pan="0"/>
          <note len="24" key="0" vol="199" pos="168" pan="0"/>
          <note len="24" key="2" vol="199" pos="240" pan="0"/>
          <note len="12" key="81" vol="199" pos="384" pan="0"/>
          <note len="12" key="0" vol="199" pos="384" pan="0"/>
          <note len="12" key="79" vol="199" pos="396" pan="0"/>
          <note len="12" key="78" vol="199" pos="408" pan="0"/>
          <note len="12" key="76" vol="199" pos="420" pan="0"/>
          <note len="12" key="79" vol="199" pos="432" pan="0"/>
          <note len="12" key="78" vol="199" pos="444" pan="0"/>
          <note len="12" key="76" vol="199" pos="456" pan="0"/>
          <note len="12" key="74" vol="199" pos="468" pan="0"/>
          <note len="12" key="78" vol="199" pos="480" pan="0"/>
          <note len="12" key="74" vol="199" pos="492" pan="0"/>
          <note len="12" key="69" vol="199" pos="504" pan="0"/>
          <note len="12" key="1" vol="199" pos="504" pan="0"/>
          <note len="12" key="66" vol="199" pos="516" pan="0"/>
          <note len="12" key="62" vol="199" pos="528" pan="0"/>
          <note len="12" key="66" vol="199" pos="540" pan="0"/>
          <note len="12" key="69" vol="199" pos="552" pan="0"/>
          <note len="12" key="0" vol="199" pos="552" pan="0"/>
          <note len="12" key="74" vol="199" pos="564" pan="0"/>
        </pattern>
        <pattern muted="0" name="" pos="33792" type="1" steps="16">
          <note len="120" key="71" vol="100" pos="0" pan="0"/>
          <note len="12" key="0" vol="100" pos="0" pan="0"/>
          <note len="24" key="67" vol="100" pos="120" pan="0"/>
          <note len="24" key="72" vol="100" pos="144" pan="0"/>
          <note len="24" key="0" vol="100" pos="144" pan="0"/>
          <note len="24" key="55" vol="100" pos="168" pan="0"/>
          <note len="24" key="2" vol="100" pos="168" pan="0"/>
          <note len="24" key="71" vol="100" pos="192" pan="0"/>
          <note len="24" key="0" vol="100" pos="192" pan="0"/>
          <note len="24" key="55" vol="100" pos="216" pan="0"/>
          <note len="24" key="2" vol="100" pos="216" pan="0"/>
          <note len="24" key="69" vol="100" pos="240" pan="0"/>
          <note len="24" key="0" vol="100" pos="240" pan="0"/>
          <note len="24" key="55" vol="100" pos="264" pan="0"/>
          <note len="24" key="2" vol="100" pos="264" pan="0"/>
          <note len="24" key="67" vol="100" pos="288" pan="0"/>
          <note len="24" key="0" vol="100" pos="288" pan="0"/>
          <note len="24" key="55" vol="100" pos="312" pan="0"/>
          <note len="12" key="2" vol="100" pos="312" pan="0"/>
          <note len="12" key="1" vol="100" pos="324" pan="0"/>
          <note len="12" key="71" vol="100" pos="336" pan="0"/>
          <note len="12" key="72" vol="100" pos="348" pan="0"/>
          <note len="12" key="71" vol="100" pos="360" pan="0"/>
          <note len="12" key="67" vol="100" pos="372" pan="0"/>
          <note len="12" key="69" vol="100" pos="384" pan="0"/>
          <note len="12" key="0" vol="100" pos="384" pan="0"/>
          <note len="12" key="67" vol="100" pos="396" pan="0"/>
          <note len="12" key="66" vol="100" pos="408" pan="0"/>
          <note len="12" key="1" vol="100" pos="408" pan="0"/>
          <note len="12" key="67" vol="100" pos="420" pan="0"/>
          <note len="12" key="69" vol="100" pos="432" pan="0"/>
          <note len="12" key="71" vol="100" pos="444" pan="0"/>
          <note len="12" key="74" vol="100" pos="456" pan="0"/>
          <note len="12" key="0" vol="100" pos="456" pan="0"/>
          <note len="12" key="69" vol="100" pos="468" pan="0"/>
          <note len="12" key="66" vol="100" pos="480" pan="0"/>
          <note len="12" key="1" vol="100" pos="480" pan="0"/>
          <note len="12" key="62" vol="100" pos="492" pan="0"/>
          <note len="12" key="66" vol="100" pos="504" pan="0"/>
          <note len="12" key="69" vol="100" pos="516" pan="0"/>
          <note len="12" key="78" vol="100" pos="528" pan="0"/>
          <note len="12" key="0" vol="100" pos="528" pan="0"/>
          <note len="12" key="74" vol="100" pos="540" pan="0"/>
          <note len="12" key="1" vol="100" pos="540" pan="0"/>
          <note len="12" key="69" vol="100" pos="552" pan="0"/>
          <note len="12" key="74" vol="100" pos="564" pan="0"/>
          <note len="24" key="79" vol="100" pos="576" pan="0"/>
          <note len="12" key="0" vol="100" pos="576" pan="0"/>
          <note len="12" key="81" vol="100" pos="600" pan="0"/>
          <note len="12" key="79" vol="100" pos="612" pan="0"/>
          <note len="24" key="78" vol="100" pos="624" pan="0"/>
          <note len="12" key="79" vol="100" pos="648" pan="0"/>
          <note len="12" key="78" vol="100" pos="660" pan="0"/>
          <note len="24" key="76" vol="100" pos="672" pan="0"/>
          <note len="12" key="78" vol="100" pos="696" pan="0"/>
          <note len="12" key="76" vol="100" pos="708" pan="0"/>
          <note len="24" key="74" vol="100" pos="720" pan="0"/>
          <note len="12" key="76" vol="100" pos="744" pan="0"/>
          <note len="12" key="74" vol="100" pos="756" pan="0"/>
        </pattern>
        <pattern muted="0" name="Lead Guitar S" pos="36096" type="1" steps="16">
          <note len="12" key="67" vol="100" pos="0" pan="0"/>
          <note len="12" key="1" vol="100" pos="0" pan="0"/>
          <note len="12" key="71" vol="100" pos="12" pan="0"/>
          <note len="12" key="76" vol="100" pos="24" pan="0"/>
          <note len="12" key="79" vol="100" pos="36" pan="0"/>
          <note len="12" key="0" vol="100" pos="36" pan="0"/>
          <note len="12" key="83" vol="100" pos="48" pan="0"/>
          <note len="12" key="79" vol="100" pos="60" pan="0"/>
          <note len="12" key="1" vol="100" pos="60" pan="0"/>
          <note len="12" key="76" vol="100" pos="72" pan="0"/>
          <note len="12" key="79" vol="100" pos="84" pan="0"/>
          <note len="12" key="83" vol="100" pos="96" pan="0"/>
          <note len="12" key="2" vol="100" pos="96" pan="0"/>
          <note len="12" key="84" vol="100" pos="108" pan="0"/>
          <note len="12" key="83" vol="100" pos="120" pan="0"/>
          <note len="12" key="84" vol="100" pos="132" pan="0"/>
          <note len="12" key="83" vol="100" pos="144" pan="0"/>
          <note len="12" key="0" vol="100" pos="144" pan="0"/>
          <note len="12" key="81" vol="100" pos="156" pan="0"/>
          <note len="12" key="79" vol="100" pos="168" pan="0"/>
          <note len="12" key="76" vol="100" pos="180" pan="0"/>
          <note len="12" key="81" vol="100" pos="192" pan="0"/>
          <note len="12" key="79" vol="100" pos="204" pan="0"/>
          <note len="12" key="76" vol="100" pos="216" pan="0"/>
          <note len="12" key="74" vol="100" pos="228" pan="0"/>
          <note len="12" key="79" vol="100" pos="240" pan="0"/>
          <note len="12" key="76" vol="100" pos="252" pan="0"/>
          <note len="12" key="74" vol="100" pos="264" pan="0"/>
          <note len="12" key="76" vol="100" pos="276" pan="0"/>
          <note len="12" key="78" vol="100" pos="288" pan="0"/>
          <note len="12" key="79" vol="100" pos="300" pan="0"/>
          <note len="12" key="81" vol="100" pos="312" pan="0"/>
          <note len="12" key="83" vol="100" pos="324" pan="0"/>
          <note len="12" key="81" vol="100" pos="336" pan="0"/>
          <note len="12" key="79" vol="100" pos="348" pan="0"/>
          <note len="12" key="78" vol="100" pos="360" pan="0"/>
          <note len="12" key="79" vol="100" pos="372" pan="0"/>
        </pattern>
      </track>
      <track muted="1" name="lgtH1" solo="0" type="0">
        <instrumenttrack pitch="0" fxch="13" basenote="57" vol="200" pitchrange="1" usemasterpitch="1" pan="-100">
          <instrument name="carlapatchbay">
            <carlapatchbay>
              <CARLA-PROJECT VERSION="2.2">
                <EngineSettings>
                  <ForceStereo>false</ForceStereo>
                  <PreferPluginBridges>false</PreferPluginBridges>
                  <PreferUiBridges>true</PreferUiBridges>
                  <UIsAlwaysOnTop>false</UIsAlwaysOnTop>
                  <MaxParameters>200</MaxParameters>
                  <UIBridgesTimeout>4000</UIBridgesTimeout>
                  <LADSPA_PATH>/home/pass/.ladspa:/usr/lib/ladspa:/usr/local/lib/ladspa</LADSPA_PATH>
                  <DSSI_PATH>/home/pass/.dssi:/usr/lib/dssi:/usr/local/lib/dssi</DSSI_PATH>
                  <LV2_PATH>/home/pass/.lv2:/usr/lib/lv2:/usr/local/lib/lv2</LV2_PATH>
                  <VST2_PATH>/home/pass/.vst:/home/pass/.wine/drive_c/Program Files (x86)/VstPlugins:/home/pass/.wine/drive_c/Program Files/VstPlugins:/usr/lib/lxvst:/usr/lib/vst:/usr/local/lib/lxvst:/usr/local/lib/vst/home/pass/.lxvst:/home/pass/vst</VST2_PATH>
                  <VST3_PATH>/home/pass/.vst3:/home/pass/.wine/drive_c/Program Files (x86)/Common Files/VST3:/home/pass/.wine/drive_c/Program Files/Common Files/VST3:/usr/lib/vst3:/usr/local/lib/vst3</VST3_PATH>
                  <SF2_PATH>/home/pass/.sounds/sf2/home/pass/.sounds/sf3:/usr/share/soundfonts:/usr/share/sounds/sf2:/usr/share/sounds/sf3</SF2_PATH>
                  <SFZ_PATH>/home/pass/.sounds/sfz:/home/pass/samples:/usr/share/sounds/sfz</SFZ_PATH>
                </EngineSettings>
                <!-- sfizz -->
                <Plugin>
                  <Info>
                    <Type>LV2</Type>
                    <Name>sfizz</Name>
                    <URI>http://sfztools.github.io/sfizz</URI>
                  </Info>
                  <Data>
                    <Active>Yes</Active>
                    <ControlChannel>1</ControlChannel>
                    <Options>0x3f0</Options>
                    <Parameter>
                      <Index>0</Index>
                      <Name>Volume</Name>
                      <Symbol>volume</Symbol>
                      <Value>0</Value>
                    </Parameter>
                    <Parameter>
                      <Index>1</Index>
                      <Name>Polyphony</Name>
                      <Symbol>num_voices</Symbol>
                      <Value>64</Value>
                    </Parameter>
                    <Parameter>
                      <Index>2</Index>
                      <Name>Internal oversampling factor</Name>
                      <Symbol>oversampling</Symbol>
                      <Value>1</Value>
                    </Parameter>
                    <Parameter>
                      <Index>3</Index>
                      <Name>Preload size</Name>
                      <Symbol>preload_size</Symbol>
                      <Value>8192</Value>
                    </Parameter>
                    <CustomData>
                      <Type>http://lv2plug.in/ns/ext/atom#Path</Type>
                      <Key>http://sfztools.github.io/sfizz:sfzfile</Key>
                      <Value>/home/pass/samples/fakeguitar/_fakeguitar1_integrated.sfz</Value>
                    </CustomData>
                    <CustomData>
                      <Type>http://lv2plug.in/ns/ext/atom#Int</Type>
                      <Key>http://sfztools.github.io/sfizz:numvoices</Key>
                      <Value>QAAAAA==</Value>
                    </CustomData>
                    <CustomData>
                      <Type>http://lv2plug.in/ns/ext/atom#Int</Type>
                      <Key>http://sfztools.github.io/sfizz:preload_size</Key>
                      <Value>ACAAAA==</Value>
                    </CustomData>
                    <CustomData>
                      <Type>http://lv2plug.in/ns/ext/atom#Int</Type>
                      <Key>http://sfztools.github.io/sfizz:oversampling</Key>
                      <Value>AQAAAA==</Value>
                    </CustomData>
                  </Data>
                </Plugin>
                <Patchbay>
                  <Connection>
                    <Source>Midi Input:Capture 1</Source>
                    <Target>sfizz:events-in</Target>
                  </Connection>
                  <Connection>
                    <Source>sfizz:Left Output</Source>
                    <Target>Audio Output:Left</Target>
                  </Connection>
                  <Connection>
                    <Source>sfizz:Right Output</Source>
                    <Target>Audio Output:Right</Target>
                  </Connection>
                  <Positions>
                    <Position x1="1693" pluginId="0" y1="1353">
                      <Name>sfizz</Name>
                    </Position>
                  </Positions>
                </Patchbay>
              </CARLA-PROJECT>
            </carlapatchbay>
          </instrument>
          <eldata ftype="0" fcut="14000" fres="0.5" fwet="0">
            <elvol userwavefile="" hold="0.5" lspd_numerator="4" lspd="0.1" lspd_denominator="4" lshp="0" latt="0" rel="0.1" x100="0" pdel="0" lpdel="0" amt="0" lspd_syncmode="0" dec="0.5" lamt="0" sustain="0.5" ctlenvamt="0" att="0"/>
            <elcut userwavefile="" hold="0.5" lspd_numerator="4" lspd="0.1" lspd_denominator="4" lshp="0" latt="0" rel="0.1" x100="0" pdel="0" lpdel="0" amt="0" lspd_syncmode="0" dec="0.5" lamt="0" sustain="0.5" ctlenvamt="0" att="0"/>
            <elres userwavefile="" hold="0.5" lspd_numerator="4" lspd="0.1" lspd_denominator="4" lshp="0" latt="0" rel="0.1" x100="0" pdel="0" lpdel="0" amt="0" lspd_syncmode="0" dec="0.5" lamt="0" sustain="0.5" ctlenvamt="0" att="0"/>
          </eldata>
          <chordcreator chord-enabled="0" chordrange="1" chord="0"/>
          <arpeggiator arpcycle="0" arptime_syncmode="0" arptime_numerator="4" arpgate="100" arpmode="0" arp-enabled="0" arptime="200" arp="0" arpskip="0" arpmiss="0" arprange="1" arpdir="0" arptime_denominator="4"/>
          <midiport inputchannel="0" outputprogram="1" basevelocity="63" outputchannel="1" fixedinputvelocity="-1" inputcontroller="0" readable="0" writable="0" outputcontroller="0" fixedoutputvelocity="-1" fixedoutputnote="-1"/>
          <fxchain numofeffects="0" enabled="0"/>
        </instrumenttrack>
        <pattern muted="0" name="lgtH1" pos="0" type="1" steps="16">
          <note len="12" key="64" vol="100" pos="0" pan="0"/>
          <note len="48" key="1" vol="100" pos="0" pan="0"/>
          <note len="12" key="64" vol="100" pos="12" pan="0"/>
          <note len="12" key="64" vol="100" pos="24" pan="0"/>
          <note len="12" key="64" vol="100" pos="36" pan="0"/>
          <note len="48" key="64" vol="100" pos="48" pan="0"/>
          <note len="48" key="0" vol="100" pos="48" pan="0"/>
          <note len="24" key="71" vol="100" pos="96" pan="0"/>
          <note len="24" key="69" vol="100" pos="120" pan="0"/>
          <note len="24" key="67" vol="100" pos="144" pan="0"/>
          <note len="24" key="71" vol="100" pos="168" pan="0"/>
          <note len="48" key="69" vol="100" pos="192" pan="0"/>
          <note len="48" key="66" vol="100" pos="240" pan="0"/>
          <note len="48" key="62" vol="100" pos="288" pan="0"/>
          <note len="48" key="69" vol="100" pos="336" pan="0"/>
          <note len="12" key="62" vol="100" pos="384" pan="0"/>
          <note len="12" key="1" vol="100" pos="384" pan="0"/>
          <note len="12" key="62" vol="100" pos="396" pan="0"/>
          <note len="12" key="62" vol="100" pos="408" pan="0"/>
          <note len="12" key="62" vol="100" pos="420" pan="0"/>
          <note len="48" key="62" vol="100" pos="432" pan="0"/>
          <note len="12" key="0" vol="100" pos="432" pan="0"/>
          <note len="24" key="69" vol="100" pos="480" pan="0"/>
          <note len="24" key="67" vol="100" pos="504" pan="0"/>
          <note len="24" key="66" vol="100" pos="528" pan="0"/>
          <note len="24" key="69" vol="100" pos="552" pan="0"/>
          <note len="48" key="71" vol="100" pos="576" pan="0"/>
          <note len="48" key="69" vol="100" pos="624" pan="0"/>
          <note len="12" key="67" vol="100" pos="672" pan="0"/>
          <note len="12" key="1" vol="100" pos="672" pan="0"/>
          <note len="12" key="69" vol="100" pos="684" pan="0"/>
          <note len="12" key="67" vol="100" pos="696" pan="0"/>
          <note len="12" key="66" vol="100" pos="708" pan="0"/>
          <note len="12" key="64" vol="100" pos="720" pan="0"/>
          <note len="12" key="66" vol="100" pos="732" pan="0"/>
          <note len="12" key="67" vol="100" pos="744" pan="0"/>
          <note len="12" key="66" vol="100" pos="756" pan="0"/>
          <note len="12" key="64" vol="100" pos="768" pan="0"/>
          <note len="24" key="1" vol="100" pos="768" pan="0"/>
          <note len="12" key="64" vol="100" pos="780" pan="0"/>
          <note len="12" key="64" vol="100" pos="792" pan="0"/>
          <note len="12" key="64" vol="100" pos="804" pan="0"/>
          <note len="24" key="67" vol="100" pos="816" pan="0"/>
          <note len="24" key="0" vol="100" pos="816" pan="0"/>
          <note len="24" key="64" vol="100" pos="840" pan="0"/>
          <note len="24" key="1" vol="100" pos="840" pan="0"/>
          <note len="12" key="71" vol="100" pos="864" pan="0"/>
          <note len="24" key="0" vol="100" pos="864" pan="0"/>
          <note len="12" key="69" vol="100" pos="876" pan="0"/>
          <note len="12" key="67" vol="100" pos="888" pan="0"/>
          <note len="12" key="1" vol="100" pos="888" pan="0"/>
          <note len="12" key="64" vol="100" pos="900" pan="0"/>
          <note len="12" key="62" vol="100" pos="912" pan="0"/>
          <note len="12" key="64" vol="100" pos="924" pan="0"/>
          <note len="12" key="67" vol="100" pos="936" pan="0"/>
          <note len="12" key="69" vol="100" pos="948" pan="0"/>
          <note len="12" key="74" vol="100" pos="960" pan="0"/>
          <note len="12" key="0" vol="100" pos="960" pan="0"/>
          <note len="12" key="71" vol="100" pos="972" pan="0"/>
          <note len="12" key="69" vol="100" pos="984" pan="0"/>
          <note len="12" key="71" vol="100" pos="996" pan="0"/>
          <note len="12" key="74" vol="100" pos="1008" pan="0"/>
          <note len="12" key="71" vol="100" pos="1020" pan="0"/>
          <note len="12" key="74" vol="100" pos="1032" pan="0"/>
          <note len="12" key="76" vol="100" pos="1044" pan="0"/>
          <note len="12" key="79" vol="100" pos="1056" pan="0"/>
          <note len="12" key="76" vol="100" pos="1068" pan="0"/>
          <note len="12" key="79" vol="100" pos="1080" pan="0"/>
          <note len="12" key="81" vol="100" pos="1092" pan="0"/>
          <note len="12" key="83" vol="100" pos="1104" pan="0"/>
          <note len="12" key="81" vol="100" pos="1116" pan="0"/>
          <note len="12" key="83" vol="100" pos="1128" pan="0"/>
          <note len="12" key="86" vol="100" pos="1140" pan="0"/>
          <note len="24" key="84" vol="100" pos="1152" pan="0"/>
          <note len="12" key="0" vol="100" pos="1152" pan="0"/>
          <note len="24" key="86" vol="100" pos="1176" pan="0"/>
          <note len="24" key="88" vol="100" pos="1200" pan="0"/>
          <note len="24" key="86" vol="100" pos="1224" pan="0"/>
          <note len="24" key="83" vol="100" pos="1248" pan="0"/>
          <note len="24" key="81" vol="100" pos="1272" pan="0"/>
          <note len="24" key="79" vol="100" pos="1296" pan="0"/>
          <note len="24" key="78" vol="100" pos="1320" pan="0"/>
          <note len="48" key="79" vol="100" pos="1344" pan="0"/>
          <note len="48" key="83" vol="100" pos="1392" pan="0"/>
          <note len="96" key="88" vol="100" pos="1440" pan="0"/>
        </pattern>
        <pattern muted="0" name="" pos="2304" type="1" steps="16">
          <note len="24" key="0" vol="100" pos="0" pan="0"/>
          <note len="24" key="1" vol="100" pos="24" pan="0"/>
          <note len="24" key="0" vol="100" pos="72" pan="0"/>
          <note len="24" key="1" vol="100" pos="96" pan="0"/>
          <note len="12" key="0" vol="100" pos="144" pan="0"/>
          <note len="12" key="1" vol="100" pos="168" pan="0"/>
          <note len="12" key="0" vol="100" pos="192" pan="0"/>
          <note len="12" key="1" vol="100" pos="216" pan="0"/>
          <note len="12" key="0" vol="100" pos="264" pan="0"/>
          <note len="12" key="1" vol="100" pos="288" pan="0"/>
          <note len="12" key="0" vol="100" pos="336" pan="0"/>
          <note len="12" key="1" vol="100" pos="360" pan="0"/>
          <note len="12" key="71" vol="100" pos="384" pan="0"/>
          <note len="12" key="0" vol="100" pos="384" pan="0"/>
          <note len="12" key="69" vol="100" pos="396" pan="0"/>
          <note len="12" key="67" vol="100" pos="408" pan="0"/>
          <note len="12" key="1" vol="100" pos="408" pan="0"/>
          <note len="12" key="67" vol="100" pos="420" pan="0"/>
          <note len="12" key="67" vol="100" pos="432" pan="0"/>
          <note len="12" key="67" vol="100" pos="444" pan="0"/>
          <note len="12" key="69" vol="100" pos="456" pan="0"/>
          <note len="12" key="0" vol="100" pos="456" pan="0"/>
          <note len="12" key="67" vol="100" pos="468" pan="0"/>
          <note len="12" key="67" vol="100" pos="480" pan="0"/>
          <note len="12" key="1" vol="100" pos="480" pan="0"/>
          <note len="12" key="67" vol="100" pos="492" pan="0"/>
          <note len="12" key="67" vol="100" pos="504" pan="0"/>
          <note len="12" key="67" vol="100" pos="516" pan="0"/>
          <note len="12" key="71" vol="100" pos="528" pan="0"/>
          <note len="12" key="0" vol="100" pos="528" pan="0"/>
          <note len="12" key="69" vol="100" pos="540" pan="0"/>
          <note len="12" key="67" vol="100" pos="552" pan="0"/>
          <note len="12" key="1" vol="100" pos="552" pan="0"/>
          <note len="12" key="67" vol="100" pos="564" pan="0"/>
          <note len="12" key="72" vol="100" pos="576" pan="0"/>
          <note len="12" key="72" vol="100" pos="588" pan="0"/>
          <note len="12" key="67" vol="100" pos="600" pan="0"/>
          <note len="12" key="67" vol="100" pos="612" pan="0"/>
          <note len="12" key="64" vol="100" pos="624" pan="0"/>
          <note len="12" key="64" vol="100" pos="636" pan="0"/>
          <note len="12" key="67" vol="100" pos="648" pan="0"/>
          <note len="12" key="67" vol="100" pos="660" pan="0"/>
          <note len="12" key="72" vol="100" pos="672" pan="0"/>
          <note len="12" key="0" vol="100" pos="672" pan="0"/>
          <note len="12" key="69" vol="100" pos="684" pan="0"/>
          <note len="12" key="71" vol="100" pos="696" pan="0"/>
          <note len="12" key="72" vol="100" pos="708" pan="0"/>
          <note len="12" key="74" vol="100" pos="720" pan="0"/>
          <note len="12" key="71" vol="100" pos="732" pan="0"/>
          <note len="12" key="72" vol="100" pos="744" pan="0"/>
          <note len="12" key="74" vol="100" pos="756" pan="0"/>
        </pattern>
        <pattern muted="0" name="" pos="3072" type="1" steps="16">
          <note len="12" key="79" vol="100" pos="0" pan="0"/>
          <note len="24" key="2" vol="100" pos="0" pan="0"/>
          <note len="12" key="71" vol="100" pos="12" pan="0"/>
          <note len="12" key="78" vol="100" pos="24" pan="0"/>
          <note len="12" key="71" vol="100" pos="36" pan="0"/>
          <note len="12" key="76" vol="100" pos="48" pan="0"/>
          <note len="12" key="71" vol="100" pos="60" pan="0"/>
          <note len="12" key="79" vol="100" pos="72" pan="0"/>
          <note len="12" key="71" vol="100" pos="84" pan="0"/>
          <note len="12" key="78" vol="100" pos="96" pan="0"/>
          <note len="12" key="71" vol="100" pos="108" pan="0"/>
          <note len="12" key="76" vol="100" pos="120" pan="0"/>
          <note len="12" key="71" vol="100" pos="132" pan="0"/>
          <note len="12" key="79" vol="100" pos="144" pan="0"/>
          <note len="12" key="71" vol="100" pos="156" pan="0"/>
          <note len="12" key="78" vol="100" pos="168" pan="0"/>
          <note len="12" key="71" vol="100" pos="180" pan="0"/>
          <note len="12" key="79" vol="100" pos="192" pan="0"/>
          <note len="12" key="72" vol="100" pos="204" pan="0"/>
          <note len="12" key="78" vol="100" pos="216" pan="0"/>
          <note len="12" key="72" vol="100" pos="228" pan="0"/>
          <note len="12" key="76" vol="100" pos="240" pan="0"/>
          <note len="12" key="72" vol="100" pos="252" pan="0"/>
          <note len="12" key="79" vol="100" pos="264" pan="0"/>
          <note len="12" key="72" vol="100" pos="276" pan="0"/>
          <note len="12" key="78" vol="100" pos="288" pan="0"/>
          <note len="12" key="72" vol="100" pos="300" pan="0"/>
          <note len="12" key="76" vol="100" pos="312" pan="0"/>
          <note len="12" key="72" vol="100" pos="324" pan="0"/>
          <note len="12" key="79" vol="100" pos="336" pan="0"/>
          <note len="12" key="72" vol="100" pos="348" pan="0"/>
          <note len="12" key="78" vol="100" pos="360" pan="0"/>
          <note len="12" key="72" vol="100" pos="372" pan="0"/>
          <note len="12" key="83" vol="100" pos="384" pan="0"/>
          <note len="12" key="74" vol="100" pos="396" pan="0"/>
          <note len="12" key="81" vol="100" pos="408" pan="0"/>
          <note len="12" key="74" vol="100" pos="420" pan="0"/>
          <note len="12" key="79" vol="100" pos="432" pan="0"/>
          <note len="12" key="74" vol="100" pos="444" pan="0"/>
          <note len="12" key="83" vol="100" pos="456" pan="0"/>
          <note len="12" key="74" vol="100" pos="468" pan="0"/>
          <note len="12" key="81" vol="100" pos="480" pan="0"/>
          <note len="12" key="74" vol="100" pos="492" pan="0"/>
          <note len="12" key="79" vol="100" pos="504" pan="0"/>
          <note len="12" key="74" vol="100" pos="516" pan="0"/>
          <note len="12" key="83" vol="100" pos="528" pan="0"/>
          <note len="12" key="74" vol="100" pos="540" pan="0"/>
          <note len="12" key="79" vol="100" pos="552" pan="0"/>
          <note len="12" key="74" vol="100" pos="564" pan="0"/>
          <note len="12" key="81" vol="100" pos="576" pan="0"/>
          <note len="12" key="74" vol="100" pos="588" pan="0"/>
          <note len="12" key="79" vol="100" pos="600" pan="0"/>
          <note len="12" key="74" vol="100" pos="612" pan="0"/>
          <note len="12" key="78" vol="100" pos="624" pan="0"/>
          <note len="12" key="74" vol="100" pos="636" pan="0"/>
          <note len="12" key="81" vol="100" pos="648" pan="0"/>
          <note len="12" key="74" vol="100" pos="660" pan="0"/>
          <note len="12" key="79" vol="100" pos="672" pan="0"/>
          <note len="12" key="74" vol="100" pos="684" pan="0"/>
          <note len="12" key="78" vol="100" pos="696" pan="0"/>
          <note len="12" key="74" vol="100" pos="708" pan="0"/>
          <note len="12" key="81" vol="100" pos="720" pan="0"/>
          <note len="12" key="74" vol="100" pos="732" pan="0"/>
          <note len="12" key="78" vol="100" pos="744" pan="0"/>
          <note len="12" key="74" vol="100" pos="756" pan="0"/>
        </pattern>
        <pattern muted="0" name="" pos="6144" type="1" steps="16">
          <note len="12" key="64" vol="100" pos="0" pan="0"/>
          <note len="12" key="1" vol="100" pos="0" pan="0"/>
          <note len="12" key="64" vol="100" pos="12" pan="0"/>
          <note len="12" key="64" vol="100" pos="24" pan="0"/>
          <note len="12" key="64" vol="100" pos="36" pan="0"/>
          <note len="48" key="67" vol="100" pos="48" pan="0"/>
          <note len="12" key="0" vol="100" pos="48" pan="0"/>
          <note len="48" key="66" vol="100" pos="96" pan="0"/>
          <note len="48" key="62" vol="100" pos="144" pan="0"/>
          <note len="48" key="66" vol="100" pos="192" pan="0"/>
          <note len="24" key="67" vol="100" pos="240" pan="0"/>
          <note len="48" key="66" vol="100" pos="264" pan="0"/>
          <note len="24" key="64" vol="100" pos="312" pan="0"/>
          <note len="48" key="64" vol="100" pos="336" pan="0"/>
          <note len="12" key="76" vol="100" pos="384" pan="0"/>
          <note len="12" key="1" vol="100" pos="384" pan="0"/>
          <note len="12" key="76" vol="100" pos="396" pan="0"/>
          <note len="12" key="76" vol="100" pos="408" pan="0"/>
          <note len="12" key="76" vol="100" pos="420" pan="0"/>
          <note len="48" key="79" vol="100" pos="432" pan="0"/>
          <note len="12" key="0" vol="100" pos="432" pan="0"/>
          <note len="48" key="78" vol="100" pos="480" pan="0"/>
          <note len="48" key="76" vol="100" pos="528" pan="0"/>
          <note len="48" key="81" vol="100" pos="576" pan="0"/>
          <note len="24" key="83" vol="100" pos="624" pan="0"/>
          <note len="48" key="79" vol="100" pos="648" pan="0"/>
          <note len="24" key="83" vol="100" pos="696" pan="0"/>
          <note len="24" key="86" vol="100" pos="720" pan="0"/>
          <note len="24" key="83" vol="100" pos="744" pan="0"/>
          <note len="12" key="76" vol="100" pos="768" pan="0"/>
          <note len="24" key="1" vol="100" pos="768" pan="0"/>
          <note len="12" key="76" vol="100" pos="780" pan="0"/>
          <note len="12" key="76" vol="100" pos="792" pan="0"/>
          <note len="12" key="76" vol="100" pos="804" pan="0"/>
          <note len="48" key="79" vol="100" pos="816" pan="0"/>
          <note len="24" key="0" vol="100" pos="816" pan="0"/>
          <note len="48" key="81" vol="100" pos="864" pan="0"/>
          <note len="48" key="83" vol="100" pos="912" pan="0"/>
          <note len="24" key="86" vol="100" pos="960" pan="0"/>
          <note len="24" key="83" vol="100" pos="984" pan="0"/>
          <note len="24" key="86" vol="100" pos="1008" pan="0"/>
          <note len="48" key="88" vol="100" pos="1032" pan="0"/>
          <note len="24" key="86" vol="100" pos="1080" pan="0"/>
          <note len="24" key="78" vol="100" pos="1104" pan="0"/>
          <note len="24" key="79" vol="100" pos="1128" pan="0"/>
          <note len="12" key="83" vol="100" pos="1152" pan="0"/>
          <note len="12" key="0" vol="100" pos="1152" pan="0"/>
          <note len="12" key="79" vol="100" pos="1164" pan="0"/>
          <note len="12" key="1" vol="100" pos="1164" pan="0"/>
          <note len="12" key="81" vol="100" pos="1176" pan="0"/>
          <note len="12" key="83" vol="100" pos="1188" pan="0"/>
          <note len="12" key="86" vol="100" pos="1200" pan="0"/>
          <note len="12" key="83" vol="100" pos="1212" pan="0"/>
          <note len="12" key="81" vol="100" pos="1224" pan="0"/>
          <note len="12" key="83" vol="100" pos="1236" pan="0"/>
          <note len="12" key="81" vol="100" pos="1248" pan="0"/>
          <note len="12" key="79" vol="100" pos="1260" pan="0"/>
          <note len="12" key="78" vol="100" pos="1272" pan="0"/>
          <note len="12" key="79" vol="100" pos="1284" pan="0"/>
          <note len="12" key="78" vol="100" pos="1296" pan="0"/>
          <note len="12" key="76" vol="100" pos="1308" pan="0"/>
          <note len="12" key="74" vol="100" pos="1320" pan="0"/>
          <note len="12" key="76" vol="100" pos="1332" pan="0"/>
          <note len="12" key="79" vol="100" pos="1344" pan="0"/>
          <note len="12" key="1" vol="100" pos="1344" pan="0"/>
          <note len="12" key="79" vol="100" pos="1356" pan="0"/>
          <note len="12" key="76" vol="100" pos="1368" pan="0"/>
          <note len="12" key="76" vol="100" pos="1380" pan="0"/>
          <note len="12" key="83" vol="100" pos="1392" pan="0"/>
          <note len="12" key="83" vol="100" pos="1404" pan="0"/>
          <note len="12" key="76" vol="100" pos="1416" pan="0"/>
          <note len="12" key="76" vol="100" pos="1428" pan="0"/>
          <note len="12" key="79" vol="100" pos="1440" pan="0"/>
          <note len="12" key="79" vol="100" pos="1452" pan="0"/>
          <note len="12" key="71" vol="100" pos="1464" pan="0"/>
          <note len="12" key="71" vol="100" pos="1476" pan="0"/>
          <note len="12" key="79" vol="100" pos="1488" pan="0"/>
          <note len="12" key="78" vol="100" pos="1500" pan="0"/>
          <note len="12" key="76" vol="100" pos="1512" pan="0"/>
          <note len="12" key="74" vol="100" pos="1524" pan="0"/>
        </pattern>
        <pattern muted="0" name="" pos="7680" type="1" steps="16">
          <note len="96" key="64" vol="100" pos="0" pan="0"/>
          <note len="72" key="0" vol="100" pos="0" pan="0"/>
          <note len="48" key="66" vol="100" pos="96" pan="0"/>
          <note len="48" key="67" vol="100" pos="144" pan="0"/>
          <note len="48" key="71" vol="100" pos="192" pan="0"/>
          <note len="12" key="62" vol="100" pos="240" pan="0"/>
          <note len="12" key="1" vol="100" pos="240" pan="0"/>
          <note len="12" key="62" vol="100" pos="252" pan="0"/>
          <note len="12" key="62" vol="100" pos="264" pan="0"/>
          <note len="12" key="62" vol="100" pos="276" pan="0"/>
          <note len="12" key="67" vol="100" pos="288" pan="0"/>
          <note len="12" key="67" vol="100" pos="300" pan="0"/>
          <note len="12" key="67" vol="100" pos="312" pan="0"/>
          <note len="12" key="67" vol="100" pos="324" pan="0"/>
          <note len="12" key="71" vol="100" pos="336" pan="0"/>
          <note len="12" key="71" vol="100" pos="348" pan="0"/>
          <note len="12" key="71" vol="100" pos="360" pan="0"/>
          <note len="12" key="71" vol="100" pos="372" pan="0"/>
          <note len="72" key="74" vol="100" pos="384" pan="0"/>
          <note len="12" key="0" vol="100" pos="384" pan="0"/>
          <note len="72" key="81" vol="100" pos="456" pan="0"/>
          <note len="48" key="83" vol="100" pos="528" pan="0"/>
          <note len="144" key="79" vol="100" pos="576" pan="0"/>
          <note len="24" key="81" vol="100" pos="720" pan="0"/>
          <note len="24" key="83" vol="100" pos="744" pan="0"/>
        </pattern>
        <pattern muted="0" name="lgtH1" pos="8448" type="1" steps="16">
          <note len="12" key="84" vol="100" pos="0" pan="0"/>
          <note len="12" key="1" vol="100" pos="0" pan="0"/>
          <note len="12" key="84" vol="100" pos="12" pan="0"/>
          <note len="12" key="79" vol="100" pos="24" pan="0"/>
          <note len="12" key="79" vol="100" pos="36" pan="0"/>
          <note len="12" key="76" vol="100" pos="48" pan="0"/>
          <note len="12" key="76" vol="100" pos="60" pan="0"/>
          <note len="12" key="79" vol="100" pos="72" pan="0"/>
          <note len="12" key="79" vol="100" pos="84" pan="0"/>
          <note len="12" key="76" vol="100" pos="96" pan="0"/>
          <note len="12" key="76" vol="100" pos="108" pan="0"/>
          <note len="12" key="72" vol="100" pos="120" pan="0"/>
          <note len="12" key="72" vol="100" pos="132" pan="0"/>
          <note len="12" key="76" vol="100" pos="144" pan="0"/>
          <note len="12" key="76" vol="100" pos="156" pan="0"/>
          <note len="12" key="79" vol="100" pos="168" pan="0"/>
          <note len="12" key="79" vol="100" pos="180" pan="0"/>
          <note len="12" key="84" vol="100" pos="192" pan="0"/>
          <note len="12" key="0" vol="100" pos="192" pan="0"/>
          <note len="12" key="83" vol="100" pos="204" pan="0"/>
          <note len="12" key="81" vol="100" pos="216" pan="0"/>
          <note len="12" key="1" vol="100" pos="216" pan="0"/>
          <note len="12" key="79" vol="100" pos="228" pan="0"/>
          <note len="12" key="83" vol="100" pos="240" pan="0"/>
          <note len="12" key="0" vol="100" pos="240" pan="0"/>
          <note len="12" key="81" vol="100" pos="252" pan="0"/>
          <note len="12" key="79" vol="100" pos="264" pan="0"/>
          <note len="12" key="1" vol="100" pos="264" pan="0"/>
          <note len="12" key="78" vol="100" pos="276" pan="0"/>
          <note len="12" key="76" vol="100" pos="288" pan="0"/>
          <note len="12" key="0" vol="100" pos="288" pan="0"/>
          <note len="12" key="78" vol="100" pos="300" pan="0"/>
          <note len="12" key="79" vol="100" pos="312" pan="0"/>
          <note len="12" key="1" vol="100" pos="312" pan="0"/>
          <note len="12" key="81" vol="100" pos="324" pan="0"/>
          <note len="12" key="78" vol="100" pos="336" pan="0"/>
          <note len="12" key="0" vol="100" pos="336" pan="0"/>
          <note len="12" key="79" vol="100" pos="348" pan="0"/>
          <note len="12" key="81" vol="100" pos="360" pan="0"/>
          <note len="12" key="1" vol="100" pos="360" pan="0"/>
          <note len="12" key="83" vol="100" pos="372" pan="0"/>
          <note len="12" key="86" vol="100" pos="384" pan="0"/>
          <note len="12" key="2" vol="100" pos="384" pan="0"/>
          <note len="12" key="78" vol="100" pos="396" pan="0"/>
          <note len="12" key="86" vol="100" pos="408" pan="0"/>
          <note len="12" key="78" vol="100" pos="420" pan="0"/>
          <note len="12" key="81" vol="100" pos="432" pan="0"/>
          <note len="12" key="74" vol="100" pos="444" pan="0"/>
          <note len="12" key="81" vol="100" pos="456" pan="0"/>
          <note len="12" key="74" vol="100" pos="468" pan="0"/>
          <note len="12" key="78" vol="100" pos="480" pan="0"/>
          <note len="12" key="69" vol="100" pos="492" pan="0"/>
          <note len="12" key="78" vol="100" pos="504" pan="0"/>
          <note len="12" key="69" vol="100" pos="516" pan="0"/>
          <note len="12" key="81" vol="100" pos="528" pan="0"/>
          <note len="12" key="74" vol="100" pos="540" pan="0"/>
          <note len="12" key="81" vol="100" pos="552" pan="0"/>
          <note len="12" key="74" vol="100" pos="564" pan="0"/>
          <note len="24" key="81" vol="100" pos="576" pan="0"/>
          <note len="12" key="0" vol="100" pos="576" pan="0"/>
          <note len="48" key="67" vol="94" pos="672" pan="0"/>
          <note len="48" key="69" vol="100" pos="720" pan="0"/>
        </pattern>
        <pattern muted="0" name="" pos="9216" type="1" steps="16">
          <note len="144" key="71" vol="100" pos="0" pan="0"/>
          <note len="48" key="72" vol="100" pos="144" pan="0"/>
          <note len="48" key="71" vol="100" pos="192" pan="0"/>
          <note len="48" key="69" vol="100" pos="240" pan="0"/>
          <note len="48" key="67" vol="100" pos="288" pan="0"/>
          <note len="48" key="71" vol="100" pos="336" pan="0"/>
          <note len="72" key="69" vol="100" pos="384" pan="0"/>
          <note len="72" key="74" vol="100" pos="456" pan="0"/>
          <note len="48" key="78" vol="100" pos="528" pan="0"/>
          <note len="48" key="79" vol="100" pos="576" pan="0"/>
          <note len="48" key="78" vol="100" pos="624" pan="0"/>
          <note len="48" key="76" vol="100" pos="672" pan="0"/>
          <note len="48" key="74" vol="100" pos="720" pan="0"/>
          <note len="144" key="83" vol="100" pos="768" pan="0"/>
          <note len="24" key="84" vol="100" pos="912" pan="0"/>
          <note len="24" key="83" vol="100" pos="936" pan="0"/>
          <note len="72" key="81" vol="100" pos="960" pan="0"/>
          <note len="72" key="79" vol="100" pos="1032" pan="0"/>
          <note len="48" key="78" vol="100" pos="1104" pan="0"/>
          <note len="96" key="79" vol="100" pos="1152" pan="0"/>
          <note len="48" key="81" vol="100" pos="1248" pan="0"/>
          <note len="48" key="83" vol="100" pos="1296" pan="0"/>
          <note len="48" key="81" vol="100" pos="1344" pan="0"/>
          <note len="12" key="78" vol="100" pos="1392" pan="0"/>
          <note len="12" key="78" vol="100" pos="1404" pan="0"/>
          <note len="12" key="78" vol="100" pos="1416" pan="0"/>
          <note len="12" key="78" vol="100" pos="1428" pan="0"/>
          <note len="12" key="79" vol="100" pos="1440" pan="0"/>
          <note len="12" key="79" vol="100" pos="1452" pan="0"/>
          <note len="12" key="79" vol="100" pos="1464" pan="0"/>
          <note len="12" key="79" vol="100" pos="1476" pan="0"/>
          <note len="12" key="81" vol="100" pos="1488" pan="0"/>
          <note len="12" key="81" vol="100" pos="1500" pan="0"/>
          <note len="12" key="81" vol="100" pos="1512" pan="0"/>
          <note len="12" key="81" vol="100" pos="1524" pan="0"/>
        </pattern>
        <pattern muted="0" name="" pos="10752" type="1" steps="16">
          <note len="144" key="79" vol="100" pos="0" pan="0"/>
          <note len="144" key="0" vol="100" pos="0" pan="0"/>
          <note len="48" key="81" vol="100" pos="144" pan="0"/>
          <note len="48" key="79" vol="100" pos="192" pan="0"/>
          <note len="48" key="78" vol="100" pos="240" pan="0"/>
          <note len="48" key="74" vol="100" pos="288" pan="0"/>
          <note len="48" key="79" vol="100" pos="336" pan="0"/>
          <note len="72" key="78" vol="100" pos="384" pan="0"/>
          <note len="72" key="81" vol="100" pos="456" pan="0"/>
          <note len="48" key="74" vol="100" pos="528" pan="0"/>
          <note len="48" key="76" vol="100" pos="576" pan="0"/>
          <note len="48" key="74" vol="100" pos="624" pan="0"/>
          <note len="48" key="71" vol="100" pos="672" pan="0"/>
          <note len="48" key="69" vol="100" pos="720" pan="0"/>
          <note len="144" key="79" vol="100" pos="768" pan="0"/>
          <note len="24" key="81" vol="100" pos="912" pan="0"/>
          <note len="24" key="79" vol="100" pos="936" pan="0"/>
          <note len="72" key="78" vol="100" pos="960" pan="0"/>
          <note len="72" key="76" vol="100" pos="1032" pan="0"/>
          <note len="48" key="74" vol="100" pos="1104" pan="0"/>
          <note len="96" key="76" vol="100" pos="1152" pan="0"/>
          <note len="48" key="78" vol="100" pos="1248" pan="0"/>
          <note len="48" key="79" vol="100" pos="1296" pan="0"/>
          <note len="48" key="78" vol="100" pos="1344" pan="0"/>
          <note len="12" key="74" vol="100" pos="1392" pan="0"/>
          <note len="12" key="72" vol="100" pos="1404" pan="0"/>
          <note len="12" key="71" vol="100" pos="1416" pan="0"/>
          <note len="12" key="72" vol="100" pos="1428" pan="0"/>
          <note len="12" key="76" vol="100" pos="1440" pan="0"/>
          <note len="12" key="74" vol="100" pos="1452" pan="0"/>
          <note len="12" key="72" vol="100" pos="1464" pan="0"/>
          <note len="12" key="74" vol="100" pos="1476" pan="0"/>
          <note len="12" key="78" vol="100" pos="1488" pan="0"/>
          <note len="12" key="76" vol="100" pos="1500" pan="0"/>
          <note len="12" key="74" vol="100" pos="1512" pan="0"/>
          <note len="12" key="76" vol="100" pos="1524" pan="0"/>
        </pattern>
        <pattern muted="0" name="lgtH1" pos="12480" type="1" steps="16">
          <note len="12" key="83" vol="100" pos="0" pan="0"/>
          <note len="12" key="0" vol="100" pos="0" pan="0"/>
          <note len="12" key="64" vol="100" pos="12" pan="0"/>
          <note len="12" key="2" vol="100" pos="12" pan="0"/>
          <note len="12" key="81" vol="100" pos="24" pan="0"/>
          <note len="12" key="0" vol="100" pos="24" pan="0"/>
          <note len="12" key="64" vol="100" pos="36" pan="0"/>
          <note len="12" key="2" vol="100" pos="36" pan="0"/>
          <note len="12" key="79" vol="100" pos="48" pan="0"/>
          <note len="12" key="0" vol="100" pos="48" pan="0"/>
          <note len="12" key="64" vol="100" pos="60" pan="0"/>
          <note len="12" key="2" vol="100" pos="60" pan="0"/>
          <note len="12" key="83" vol="100" pos="72" pan="0"/>
          <note len="12" key="0" vol="100" pos="72" pan="0"/>
          <note len="12" key="64" vol="100" pos="84" pan="0"/>
          <note len="12" key="2" vol="100" pos="84" pan="0"/>
          <note len="12" key="83" vol="100" pos="96" pan="0"/>
          <note len="12" key="0" vol="100" pos="96" pan="0"/>
          <note len="12" key="81" vol="100" pos="108" pan="0"/>
          <note len="12" key="79" vol="100" pos="120" pan="0"/>
          <note len="12" key="76" vol="100" pos="132" pan="0"/>
          <note len="12" key="79" vol="100" pos="144" pan="0"/>
          <note len="12" key="76" vol="100" pos="156" pan="0"/>
          <note len="12" key="74" vol="100" pos="168" pan="0"/>
          <note len="12" key="71" vol="100" pos="180" pan="0"/>
        </pattern>
        <pattern muted="0" name="lgtH1" pos="12672" type="1" steps="16">
          <note len="24" key="86" vol="100" pos="0" pan="0"/>
          <note len="24" key="86" vol="100" pos="24" pan="0"/>
          <note len="24" key="79" vol="100" pos="48" pan="0"/>
          <note len="48" key="86" vol="100" pos="72" pan="0"/>
          <note len="24" key="79" vol="100" pos="120" pan="0"/>
          <note len="24" key="79" vol="100" pos="144" pan="0"/>
          <note len="48" key="83" vol="100" pos="168" pan="0"/>
          <note len="24" key="79" vol="100" pos="216" pan="0"/>
          <note len="24" key="81" vol="100" pos="240" pan="0"/>
          <note len="24" key="79" vol="100" pos="264" pan="0"/>
          <note len="24" key="74" vol="100" pos="288" pan="0"/>
          <note len="24" key="83" vol="100" pos="312" pan="0"/>
          <note len="12" key="79" vol="100" pos="336" pan="0"/>
          <note len="12" key="83" vol="100" pos="348" pan="0"/>
          <note len="12" key="81" vol="100" pos="360" pan="0"/>
          <note len="12" key="79" vol="100" pos="372" pan="0"/>
        </pattern>
        <pattern muted="0" name="lgtH1" pos="13056" type="1" steps="16">
          <note len="12" key="67" vol="100" pos="96" pan="0"/>
          <note len="12" key="1" vol="100" pos="96" pan="0"/>
          <note len="12" key="67" vol="100" pos="108" pan="0"/>
          <note len="12" key="69" vol="100" pos="120" pan="0"/>
          <note len="12" key="69" vol="100" pos="132" pan="0"/>
          <note len="12" key="71" vol="100" pos="144" pan="0"/>
          <note len="12" key="71" vol="100" pos="156" pan="0"/>
          <note len="12" key="67" vol="100" pos="168" pan="0"/>
          <note len="12" key="67" vol="100" pos="180" pan="0"/>
        </pattern>
        <pattern muted="0" name="" pos="13248" type="1" steps="16">
          <note len="12" key="1" vol="100" pos="0" pan="0"/>
          <note len="12" key="79" vol="100" pos="96" pan="0"/>
          <note len="12" key="81" vol="100" pos="108" pan="0"/>
          <note len="12" key="83" vol="100" pos="120" pan="0"/>
          <note len="12" key="84" vol="100" pos="132" pan="0"/>
          <note len="12" key="83" vol="100" pos="144" pan="0"/>
          <note len="12" key="84" vol="100" pos="156" pan="0"/>
          <note len="12" key="86" vol="100" pos="168" pan="0"/>
          <note len="12" key="88" vol="100" pos="180" pan="0"/>
        </pattern>
        <pattern muted="0" name="lgtH1" pos="13440" type="1" steps="16">
          <note len="12" key="86" vol="100" pos="0" pan="0"/>
          <note len="12" key="1" vol="100" pos="0" pan="0"/>
          <note len="12" key="86" vol="100" pos="12" pan="0"/>
          <note len="12" key="83" vol="100" pos="24" pan="0"/>
          <note len="12" key="83" vol="100" pos="36" pan="0"/>
          <note len="12" key="81" vol="100" pos="48" pan="0"/>
          <note len="12" key="81" vol="100" pos="60" pan="0"/>
          <note len="12" key="79" vol="100" pos="72" pan="0"/>
          <note len="12" key="79" vol="100" pos="84" pan="0"/>
          <note len="12" key="83" vol="100" pos="96" pan="0"/>
          <note len="12" key="81" vol="100" pos="108" pan="0"/>
          <note len="12" key="79" vol="100" pos="120" pan="0"/>
          <note len="12" key="76" vol="100" pos="132" pan="0"/>
          <note len="12" key="81" vol="100" pos="144" pan="0"/>
          <note len="12" key="79" vol="100" pos="156" pan="0"/>
          <note len="12" key="76" vol="100" pos="168" pan="0"/>
          <note len="12" key="74" vol="100" pos="180" pan="0"/>
          <note len="12" key="78" vol="100" pos="192" pan="0"/>
          <note len="12" key="2" vol="100" pos="192" pan="0"/>
          <note len="12" key="74" vol="100" pos="204" pan="0"/>
          <note len="12" key="78" vol="100" pos="216" pan="0"/>
          <note len="12" key="74" vol="100" pos="228" pan="0"/>
          <note len="12" key="79" vol="100" pos="240" pan="0"/>
          <note len="12" key="74" vol="100" pos="252" pan="0"/>
          <note len="12" key="79" vol="100" pos="264" pan="0"/>
          <note len="12" key="74" vol="100" pos="276" pan="0"/>
          <note len="12" key="81" vol="100" pos="288" pan="0"/>
          <note len="12" key="74" vol="100" pos="300" pan="0"/>
          <note len="12" key="81" vol="100" pos="312" pan="0"/>
          <note len="12" key="74" vol="100" pos="324" pan="0"/>
          <note len="48" key="83" vol="100" pos="336" pan="0"/>
        </pattern>
        <pattern muted="0" name="" pos="15360" type="1" steps="16">
          <note len="12" key="64" vol="100" pos="0" pan="0"/>
          <note len="12" key="1" vol="100" pos="0" pan="0"/>
          <note len="12" key="64" vol="100" pos="12" pan="0"/>
          <note len="12" key="64" vol="100" pos="24" pan="0"/>
          <note len="12" key="64" vol="100" pos="36" pan="0"/>
          <note len="48" key="67" vol="100" pos="48" pan="0"/>
          <note len="12" key="0" vol="100" pos="48" pan="0"/>
          <note len="48" key="66" vol="100" pos="96" pan="0"/>
          <note len="48" key="62" vol="100" pos="144" pan="0"/>
          <note len="48" key="66" vol="100" pos="192" pan="0"/>
          <note len="24" key="67" vol="100" pos="240" pan="0"/>
          <note len="48" key="66" vol="100" pos="264" pan="0"/>
          <note len="24" key="64" vol="100" pos="312" pan="0"/>
          <note len="48" key="64" vol="100" pos="336" pan="0"/>
          <note len="12" key="76" vol="100" pos="384" pan="0"/>
          <note len="12" key="1" vol="100" pos="384" pan="0"/>
          <note len="12" key="76" vol="100" pos="396" pan="0"/>
          <note len="12" key="76" vol="100" pos="408" pan="0"/>
          <note len="12" key="76" vol="100" pos="420" pan="0"/>
          <note len="48" key="79" vol="100" pos="432" pan="0"/>
          <note len="12" key="0" vol="100" pos="432" pan="0"/>
          <note len="48" key="78" vol="100" pos="480" pan="0"/>
          <note len="48" key="76" vol="100" pos="528" pan="0"/>
          <note len="48" key="81" vol="100" pos="576" pan="0"/>
          <note len="24" key="83" vol="100" pos="624" pan="0"/>
          <note len="48" key="79" vol="100" pos="648" pan="0"/>
          <note len="24" key="83" vol="100" pos="696" pan="0"/>
          <note len="24" key="86" vol="100" pos="720" pan="0"/>
          <note len="24" key="83" vol="100" pos="744" pan="0"/>
          <note len="12" key="76" vol="100" pos="768" pan="0"/>
          <note len="24" key="1" vol="100" pos="768" pan="0"/>
          <note len="12" key="76" vol="100" pos="780" pan="0"/>
          <note len="12" key="76" vol="100" pos="792" pan="0"/>
          <note len="12" key="76" vol="100" pos="804" pan="0"/>
          <note len="48" key="79" vol="100" pos="816" pan="0"/>
          <note len="24" key="0" vol="100" pos="816" pan="0"/>
          <note len="48" key="81" vol="100" pos="864" pan="0"/>
          <note len="48" key="83" vol="100" pos="912" pan="0"/>
          <note len="24" key="86" vol="100" pos="960" pan="0"/>
          <note len="24" key="83" vol="100" pos="984" pan="0"/>
          <note len="24" key="86" vol="100" pos="1008" pan="0"/>
          <note len="48" key="88" vol="100" pos="1032" pan="0"/>
          <note len="24" key="86" vol="100" pos="1080" pan="0"/>
          <note len="24" key="78" vol="100" pos="1104" pan="0"/>
          <note len="24" key="79" vol="100" pos="1128" pan="0"/>
          <note len="12" key="83" vol="100" pos="1152" pan="0"/>
          <note len="12" key="0" vol="100" pos="1152" pan="0"/>
          <note len="12" key="79" vol="100" pos="1164" pan="0"/>
          <note len="12" key="1" vol="100" pos="1164" pan="0"/>
          <note len="12" key="81" vol="100" pos="1176" pan="0"/>
          <note len="12" key="83" vol="100" pos="1188" pan="0"/>
          <note len="12" key="86" vol="100" pos="1200" pan="0"/>
          <note len="12" key="83" vol="100" pos="1212" pan="0"/>
          <note len="12" key="81" vol="100" pos="1224" pan="0"/>
          <note len="12" key="83" vol="100" pos="1236" pan="0"/>
          <note len="12" key="81" vol="100" pos="1248" pan="0"/>
          <note len="12" key="79" vol="100" pos="1260" pan="0"/>
          <note len="12" key="78" vol="100" pos="1272" pan="0"/>
          <note len="12" key="79" vol="100" pos="1284" pan="0"/>
          <note len="12" key="78" vol="100" pos="1296" pan="0"/>
          <note len="12" key="76" vol="100" pos="1308" pan="0"/>
          <note len="12" key="74" vol="100" pos="1320" pan="0"/>
          <note len="12" key="76" vol="100" pos="1332" pan="0"/>
          <note len="12" key="78" vol="100" pos="1344" pan="0"/>
          <note len="12" key="1" vol="100" pos="1344" pan="0"/>
          <note len="12" key="74" vol="100" pos="1356" pan="0"/>
          <note len="12" key="69" vol="100" pos="1368" pan="0"/>
          <note len="12" key="66" vol="100" pos="1380" pan="0"/>
          <note len="12" key="69" vol="100" pos="1392" pan="0"/>
          <note len="12" key="74" vol="100" pos="1404" pan="0"/>
          <note len="12" key="81" vol="100" pos="1416" pan="0"/>
          <note len="12" key="78" vol="100" pos="1428" pan="0"/>
          <note len="12" key="74" vol="100" pos="1440" pan="0"/>
          <note len="12" key="69" vol="100" pos="1452" pan="0"/>
          <note len="12" key="74" vol="100" pos="1464" pan="0"/>
          <note len="12" key="78" vol="100" pos="1476" pan="0"/>
          <note len="12" key="86" vol="100" pos="1488" pan="0"/>
          <note len="12" key="2" vol="100" pos="1488" pan="0"/>
          <note len="12" key="81" vol="100" pos="1500" pan="0"/>
          <note len="12" key="86" vol="100" pos="1512" pan="0"/>
          <note len="12" key="81" vol="100" pos="1524" pan="0"/>
        </pattern>
        <pattern muted="0" name="" pos="16896" type="1" steps="16">
          <note len="96" key="64" vol="100" pos="0" pan="0"/>
          <note len="72" key="0" vol="100" pos="0" pan="0"/>
          <note len="24" key="66" vol="100" pos="96" pan="0"/>
          <note len="24" key="64" vol="100" pos="120" pan="0"/>
          <note len="24" key="67" vol="100" pos="144" pan="0"/>
          <note len="24" key="64" vol="100" pos="168" pan="0"/>
          <note len="48" key="71" vol="100" pos="192" pan="0"/>
          <note len="12" key="62" vol="100" pos="240" pan="0"/>
          <note len="12" key="1" vol="100" pos="240" pan="0"/>
          <note len="12" key="62" vol="100" pos="252" pan="0"/>
          <note len="12" key="62" vol="100" pos="264" pan="0"/>
          <note len="12" key="62" vol="100" pos="276" pan="0"/>
          <note len="12" key="67" vol="100" pos="288" pan="0"/>
          <note len="12" key="67" vol="100" pos="300" pan="0"/>
          <note len="12" key="67" vol="100" pos="312" pan="0"/>
          <note len="12" key="67" vol="100" pos="324" pan="0"/>
          <note len="12" key="71" vol="100" pos="336" pan="0"/>
          <note len="12" key="71" vol="100" pos="348" pan="0"/>
          <note len="12" key="71" vol="100" pos="360" pan="0"/>
          <note len="12" key="71" vol="100" pos="372" pan="0"/>
          <note len="24" key="74" vol="100" pos="384" pan="0"/>
          <note len="12" key="0" vol="100" pos="384" pan="0"/>
          <note len="12" key="1" vol="100" pos="396" pan="0"/>
          <note len="12" key="74" vol="100" pos="408" pan="0"/>
          <note len="12" key="74" vol="100" pos="420" pan="0"/>
          <note len="12" key="74" vol="100" pos="432" pan="0"/>
          <note len="12" key="74" vol="100" pos="444" pan="0"/>
          <note len="24" key="81" vol="100" pos="456" pan="0"/>
          <note len="12" key="0" vol="100" pos="456" pan="0"/>
          <note len="24" key="83" vol="100" pos="480" pan="0"/>
          <note len="24" key="81" vol="100" pos="504" pan="0"/>
          <note len="24" key="79" vol="100" pos="528" pan="0"/>
          <note len="24" key="78" vol="100" pos="552" pan="0"/>
          <note len="12" key="79" vol="100" pos="576" pan="0"/>
          <note len="12" key="79" vol="100" pos="588" pan="0"/>
          <note len="12" key="71" vol="100" pos="600" pan="0"/>
          <note len="12" key="71" vol="100" pos="612" pan="0"/>
          <note len="12" key="78" vol="100" pos="624" pan="0"/>
          <note len="12" key="78" vol="100" pos="636" pan="0"/>
          <note len="12" key="74" vol="100" pos="648" pan="0"/>
          <note len="12" key="74" vol="100" pos="660" pan="0"/>
          <note len="12" key="76" vol="100" pos="672" pan="0"/>
          <note len="12" key="76" vol="100" pos="684" pan="0"/>
          <note len="12" key="74" vol="100" pos="696" pan="0"/>
          <note len="12" key="74" vol="100" pos="708" pan="0"/>
          <note len="12" key="71" vol="100" pos="720" pan="0"/>
          <note len="12" key="71" vol="100" pos="732" pan="0"/>
          <note len="12" key="74" vol="100" pos="744" pan="0"/>
          <note len="12" key="74" vol="100" pos="756" pan="0"/>
        </pattern>
        <pattern muted="0" name="lgtH1" pos="17664" type="1" steps="16">
          <note len="12" key="64" vol="100" pos="0" pan="0"/>
          <note len="12" key="1" vol="100" pos="0" pan="0"/>
          <note len="12" key="67" vol="100" pos="12" pan="0"/>
          <note len="12" key="66" vol="100" pos="24" pan="0"/>
          <note len="12" key="67" vol="100" pos="36" pan="0"/>
          <note len="12" key="64" vol="100" pos="48" pan="0"/>
          <note len="12" key="67" vol="100" pos="60" pan="0"/>
          <note len="12" key="66" vol="100" pos="72" pan="0"/>
          <note len="12" key="67" vol="100" pos="84" pan="0"/>
          <note len="12" key="64" vol="100" pos="96" pan="0"/>
          <note len="12" key="66" vol="100" pos="108" pan="0"/>
          <note len="12" key="67" vol="100" pos="120" pan="0"/>
          <note len="12" key="69" vol="100" pos="132" pan="0"/>
          <note len="12" key="71" vol="100" pos="144" pan="0"/>
          <note len="12" key="69" vol="100" pos="156" pan="0"/>
          <note len="12" key="67" vol="100" pos="168" pan="0"/>
          <note len="12" key="66" vol="100" pos="180" pan="0"/>
          <note len="12" key="67" vol="100" pos="192" pan="0"/>
          <note len="12" key="71" vol="100" pos="204" pan="0"/>
          <note len="12" key="69" vol="100" pos="216" pan="0"/>
          <note len="12" key="71" vol="100" pos="228" pan="0"/>
          <note len="12" key="67" vol="100" pos="240" pan="0"/>
          <note len="12" key="71" vol="100" pos="252" pan="0"/>
          <note len="12" key="69" vol="100" pos="264" pan="0"/>
          <note len="12" key="71" vol="100" pos="276" pan="0"/>
          <note len="12" key="67" vol="100" pos="288" pan="0"/>
          <note len="12" key="69" vol="100" pos="300" pan="0"/>
          <note len="12" key="71" vol="100" pos="312" pan="0"/>
          <note len="12" key="72" vol="100" pos="324" pan="0"/>
          <note len="12" key="0" vol="100" pos="324" pan="0"/>
          <note len="12" key="74" vol="100" pos="336" pan="0"/>
          <note len="12" key="72" vol="100" pos="348" pan="0"/>
          <note len="12" key="71" vol="100" pos="360" pan="0"/>
          <note len="12" key="1" vol="100" pos="360" pan="0"/>
          <note len="12" key="69" vol="100" pos="372" pan="0"/>
          <note len="12" key="71" vol="100" pos="384" pan="0"/>
          <note len="12" key="69" vol="100" pos="396" pan="0"/>
          <note len="12" key="71" vol="100" pos="408" pan="0"/>
          <note len="12" key="72" vol="100" pos="420" pan="0"/>
          <note len="12" key="74" vol="100" pos="432" pan="0"/>
          <note len="12" key="72" vol="100" pos="444" pan="0"/>
          <note len="12" key="74" vol="100" pos="456" pan="0"/>
          <note len="12" key="76" vol="100" pos="468" pan="0"/>
          <note len="12" key="78" vol="100" pos="480" pan="0"/>
          <note len="12" key="76" vol="100" pos="492" pan="0"/>
          <note len="12" key="78" vol="100" pos="504" pan="0"/>
          <note len="12" key="79" vol="100" pos="516" pan="0"/>
          <note len="12" key="81" vol="100" pos="528" pan="0"/>
          <note len="12" key="79" vol="100" pos="540" pan="0"/>
          <note len="12" key="81" vol="100" pos="552" pan="0"/>
          <note len="12" key="83" vol="100" pos="564" pan="0"/>
          <note len="12" key="86" vol="100" pos="576" pan="0"/>
          <note len="12" key="0" vol="100" pos="576" pan="0"/>
          <note len="12" key="84" vol="100" pos="588" pan="0"/>
          <note len="12" key="83" vol="100" pos="600" pan="0"/>
          <note len="12" key="1" vol="100" pos="600" pan="0"/>
          <note len="12" key="81" vol="100" pos="612" pan="0"/>
          <note len="12" key="84" vol="100" pos="624" pan="0"/>
          <note len="12" key="0" vol="100" pos="624" pan="0"/>
          <note len="12" key="83" vol="100" pos="636" pan="0"/>
          <note len="12" key="81" vol="100" pos="648" pan="0"/>
          <note len="12" key="1" vol="100" pos="648" pan="0"/>
          <note len="12" key="79" vol="100" pos="660" pan="0"/>
          <note len="12" key="81" vol="100" pos="672" pan="0"/>
          <note len="12" key="0" vol="100" pos="672" pan="0"/>
          <note len="12" key="79" vol="100" pos="684" pan="0"/>
          <note len="12" key="78" vol="100" pos="696" pan="0"/>
          <note len="12" key="1" vol="100" pos="696" pan="0"/>
          <note len="12" key="76" vol="100" pos="708" pan="0"/>
          <note len="12" key="78" vol="100" pos="720" pan="0"/>
          <note len="12" key="79" vol="100" pos="732" pan="0"/>
          <note len="12" key="81" vol="100" pos="744" pan="0"/>
          <note len="12" key="83" vol="100" pos="756" pan="0"/>
        </pattern>
        <pattern muted="0" name="" pos="18432" type="1" steps="16">
          <note len="144" key="71" vol="100" pos="0" pan="0"/>
          <note len="12" key="0" vol="100" pos="0" pan="0"/>
          <note len="48" key="72" vol="100" pos="144" pan="0"/>
          <note len="48" key="71" vol="100" pos="192" pan="0"/>
          <note len="48" key="69" vol="100" pos="240" pan="0"/>
          <note len="48" key="67" vol="100" pos="288" pan="0"/>
          <note len="48" key="71" vol="100" pos="336" pan="0"/>
          <note len="72" key="69" vol="100" pos="384" pan="0"/>
          <note len="72" key="74" vol="100" pos="456" pan="0"/>
          <note len="48" key="78" vol="100" pos="528" pan="0"/>
          <note len="48" key="79" vol="100" pos="576" pan="0"/>
          <note len="48" key="78" vol="100" pos="624" pan="0"/>
          <note len="48" key="76" vol="100" pos="672" pan="0"/>
          <note len="48" key="74" vol="100" pos="720" pan="0"/>
          <note len="144" key="83" vol="100" pos="768" pan="0"/>
          <note len="24" key="84" vol="100" pos="912" pan="0"/>
          <note len="24" key="83" vol="100" pos="936" pan="0"/>
          <note len="72" key="81" vol="100" pos="960" pan="0"/>
          <note len="72" key="79" vol="100" pos="1032" pan="0"/>
          <note len="48" key="78" vol="100" pos="1104" pan="0"/>
          <note len="96" key="79" vol="100" pos="1152" pan="0"/>
          <note len="48" key="81" vol="100" pos="1248" pan="0"/>
          <note len="48" key="83" vol="100" pos="1296" pan="0"/>
          <note len="48" key="81" vol="100" pos="1344" pan="0"/>
          <note len="12" key="78" vol="100" pos="1392" pan="0"/>
          <note len="12" key="78" vol="100" pos="1404" pan="0"/>
          <note len="12" key="78" vol="100" pos="1416" pan="0"/>
          <note len="12" key="78" vol="100" pos="1428" pan="0"/>
          <note len="12" key="79" vol="100" pos="1440" pan="0"/>
          <note len="12" key="79" vol="100" pos="1452" pan="0"/>
          <note len="12" key="79" vol="100" pos="1464" pan="0"/>
          <note len="12" key="79" vol="100" pos="1476" pan="0"/>
          <note len="12" key="81" vol="100" pos="1488" pan="0"/>
          <note len="12" key="81" vol="100" pos="1500" pan="0"/>
          <note len="12" key="81" vol="100" pos="1512" pan="0"/>
          <note len="12" key="81" vol="100" pos="1524" pan="0"/>
        </pattern>
        <pattern muted="0" name="" pos="19968" type="1" steps="16">
          <note len="144" key="79" vol="100" pos="0" pan="0"/>
          <note len="144" key="0" vol="100" pos="0" pan="0"/>
          <note len="48" key="81" vol="100" pos="144" pan="0"/>
          <note len="48" key="79" vol="100" pos="192" pan="0"/>
          <note len="48" key="78" vol="100" pos="240" pan="0"/>
          <note len="48" key="74" vol="100" pos="288" pan="0"/>
          <note len="48" key="79" vol="100" pos="336" pan="0"/>
          <note len="72" key="78" vol="100" pos="384" pan="0"/>
          <note len="72" key="81" vol="100" pos="456" pan="0"/>
          <note len="48" key="74" vol="100" pos="528" pan="0"/>
          <note len="48" key="76" vol="100" pos="576" pan="0"/>
          <note len="48" key="74" vol="100" pos="624" pan="0"/>
          <note len="48" key="71" vol="100" pos="672" pan="0"/>
          <note len="48" key="69" vol="100" pos="720" pan="0"/>
          <note len="144" key="79" vol="100" pos="768" pan="0"/>
          <note len="24" key="81" vol="100" pos="912" pan="0"/>
          <note len="24" key="79" vol="100" pos="936" pan="0"/>
          <note len="72" key="78" vol="100" pos="960" pan="0"/>
          <note len="72" key="76" vol="100" pos="1032" pan="0"/>
          <note len="48" key="74" vol="100" pos="1104" pan="0"/>
          <note len="96" key="76" vol="100" pos="1152" pan="0"/>
          <note len="48" key="78" vol="100" pos="1248" pan="0"/>
          <note len="48" key="79" vol="100" pos="1296" pan="0"/>
          <note len="48" key="78" vol="100" pos="1344" pan="0"/>
          <note len="12" key="74" vol="100" pos="1392" pan="0"/>
          <note len="12" key="72" vol="100" pos="1404" pan="0"/>
          <note len="12" key="71" vol="100" pos="1416" pan="0"/>
          <note len="12" key="72" vol="100" pos="1428" pan="0"/>
          <note len="12" key="76" vol="100" pos="1440" pan="0"/>
          <note len="12" key="74" vol="100" pos="1452" pan="0"/>
          <note len="12" key="72" vol="100" pos="1464" pan="0"/>
          <note len="12" key="74" vol="100" pos="1476" pan="0"/>
          <note len="12" key="78" vol="100" pos="1488" pan="0"/>
          <note len="12" key="76" vol="100" pos="1500" pan="0"/>
          <note len="12" key="74" vol="100" pos="1512" pan="0"/>
          <note len="12" key="76" vol="100" pos="1524" pan="0"/>
        </pattern>
        <pattern muted="0" name="lgtH1" pos="21504" type="0" steps="16"/>
        <pattern muted="0" name="" pos="23808" type="1" steps="16">
          <note len="24" key="64" vol="197" pos="0" pan="0"/>
          <note len="24" key="1" vol="197" pos="0" pan="0"/>
          <note len="24" key="64" vol="197" pos="24" pan="0"/>
          <note len="24" key="71" vol="197" pos="48" pan="0"/>
          <note len="24" key="0" vol="197" pos="48" pan="0"/>
          <note len="24" key="64" vol="197" pos="72" pan="0"/>
          <note len="24" key="1" vol="197" pos="72" pan="0"/>
          <note len="24" key="69" vol="197" pos="96" pan="0"/>
          <note len="24" key="0" vol="197" pos="96" pan="0"/>
          <note len="24" key="64" vol="197" pos="120" pan="0"/>
          <note len="24" key="1" vol="197" pos="120" pan="0"/>
          <note len="24" key="74" vol="197" pos="144" pan="0"/>
          <note len="24" key="0" vol="197" pos="144" pan="0"/>
          <note len="24" key="64" vol="197" pos="168" pan="0"/>
          <note len="24" key="1" vol="197" pos="168" pan="0"/>
          <note len="24" key="69" vol="197" pos="192" pan="0"/>
          <note len="24" key="0" vol="197" pos="192" pan="0"/>
          <note len="24" key="64" vol="197" pos="216" pan="0"/>
          <note len="24" key="1" vol="197" pos="216" pan="0"/>
          <note len="24" key="67" vol="197" pos="240" pan="0"/>
          <note len="24" key="0" vol="197" pos="240" pan="0"/>
          <note len="24" key="64" vol="197" pos="264" pan="0"/>
          <note len="24" key="1" vol="197" pos="264" pan="0"/>
          <note len="24" key="71" vol="197" pos="288" pan="0"/>
          <note len="24" key="0" vol="197" pos="288" pan="0"/>
          <note len="24" key="69" vol="197" pos="312" pan="0"/>
          <note len="24" key="67" vol="197" pos="336" pan="0"/>
          <note len="24" key="69" vol="197" pos="360" pan="0"/>
        </pattern>
        <pattern muted="0" name="lgtH1" pos="24192" type="1" steps="16">
          <note len="24" key="79" vol="100" pos="0" pan="0"/>
          <note len="24" key="0" vol="100" pos="0" pan="0"/>
          <note len="24" key="76" vol="100" pos="24" pan="0"/>
          <note len="24" key="72" vol="100" pos="48" pan="0"/>
          <note len="24" key="76" vol="100" pos="72" pan="0"/>
          <note len="24" key="79" vol="100" pos="96" pan="0"/>
          <note len="24" key="76" vol="100" pos="120" pan="0"/>
          <note len="24" key="79" vol="100" pos="144" pan="0"/>
          <note len="24" key="84" vol="100" pos="168" pan="0"/>
          <note len="24" key="86" vol="100" pos="192" pan="0"/>
          <note len="24" key="1" vol="100" pos="192" pan="0"/>
          <note len="24" key="86" vol="100" pos="216" pan="0"/>
          <note len="24" key="83" vol="100" pos="240" pan="0"/>
          <note len="24" key="81" vol="100" pos="264" pan="0"/>
          <note len="24" key="83" vol="100" pos="288" pan="0"/>
          <note len="24" key="81" vol="100" pos="312" pan="0"/>
          <note len="24" key="79" vol="100" pos="336" pan="0"/>
          <note len="24" key="81" vol="100" pos="360" pan="0"/>
        </pattern>
        <pattern muted="0" name="" pos="24576" type="1" steps="16">
          <note len="24" key="64" vol="197" pos="0" pan="0"/>
          <note len="24" key="1" vol="197" pos="0" pan="0"/>
          <note len="24" key="64" vol="197" pos="24" pan="0"/>
          <note len="24" key="71" vol="197" pos="48" pan="0"/>
          <note len="24" key="0" vol="197" pos="48" pan="0"/>
          <note len="24" key="64" vol="197" pos="72" pan="0"/>
          <note len="24" key="1" vol="197" pos="72" pan="0"/>
          <note len="24" key="69" vol="197" pos="96" pan="0"/>
          <note len="24" key="0" vol="197" pos="96" pan="0"/>
          <note len="24" key="64" vol="197" pos="120" pan="0"/>
          <note len="24" key="1" vol="197" pos="120" pan="0"/>
          <note len="24" key="74" vol="197" pos="144" pan="0"/>
          <note len="24" key="0" vol="197" pos="144" pan="0"/>
          <note len="24" key="64" vol="197" pos="168" pan="0"/>
          <note len="24" key="1" vol="197" pos="168" pan="0"/>
          <note len="24" key="69" vol="197" pos="192" pan="0"/>
          <note len="24" key="0" vol="197" pos="192" pan="0"/>
          <note len="24" key="64" vol="197" pos="216" pan="0"/>
          <note len="24" key="1" vol="197" pos="216" pan="0"/>
          <note len="24" key="67" vol="197" pos="240" pan="0"/>
          <note len="24" key="0" vol="197" pos="240" pan="0"/>
          <note len="24" key="64" vol="197" pos="264" pan="0"/>
          <note len="24" key="1" vol="197" pos="264" pan="0"/>
          <note len="24" key="71" vol="197" pos="288" pan="0"/>
          <note len="24" key="0" vol="197" pos="288" pan="0"/>
          <note len="24" key="69" vol="197" pos="312" pan="0"/>
          <note len="24" key="67" vol="197" pos="336" pan="0"/>
          <note len="24" key="69" vol="197" pos="360" pan="0"/>
        </pattern>
        <pattern muted="0" name="" pos="24960" type="1" steps="16">
          <note len="24" key="64" vol="197" pos="0" pan="0"/>
          <note len="24" key="1" vol="197" pos="0" pan="0"/>
          <note len="24" key="64" vol="197" pos="24" pan="0"/>
          <note len="24" key="71" vol="197" pos="48" pan="0"/>
          <note len="24" key="0" vol="197" pos="48" pan="0"/>
          <note len="24" key="64" vol="197" pos="72" pan="0"/>
          <note len="24" key="1" vol="197" pos="72" pan="0"/>
          <note len="24" key="69" vol="197" pos="96" pan="0"/>
          <note len="24" key="0" vol="197" pos="96" pan="0"/>
          <note len="24" key="64" vol="197" pos="120" pan="0"/>
          <note len="24" key="1" vol="197" pos="120" pan="0"/>
          <note len="24" key="74" vol="197" pos="144" pan="0"/>
          <note len="24" key="0" vol="197" pos="144" pan="0"/>
          <note len="24" key="64" vol="197" pos="168" pan="0"/>
          <note len="24" key="1" vol="197" pos="168" pan="0"/>
          <note len="24" key="69" vol="197" pos="192" pan="0"/>
          <note len="24" key="0" vol="197" pos="192" pan="0"/>
          <note len="24" key="64" vol="197" pos="216" pan="0"/>
          <note len="24" key="1" vol="197" pos="216" pan="0"/>
          <note len="24" key="67" vol="197" pos="240" pan="0"/>
          <note len="24" key="0" vol="197" pos="240" pan="0"/>
          <note len="24" key="64" vol="197" pos="264" pan="0"/>
          <note len="24" key="1" vol="197" pos="264" pan="0"/>
          <note len="12" key="71" vol="197" pos="288" pan="0"/>
          <note len="12" key="0" vol="197" pos="288" pan="0"/>
          <note len="12" key="69" vol="197" pos="300" pan="0"/>
          <note len="12" key="1" vol="197" pos="300" pan="0"/>
          <note len="12" key="71" vol="197" pos="312" pan="0"/>
          <note len="12" key="74" vol="197" pos="324" pan="0"/>
          <note len="12" key="76" vol="197" pos="336" pan="0"/>
          <note len="12" key="0" vol="197" pos="336" pan="0"/>
          <note len="12" key="74" vol="197" pos="348" pan="0"/>
          <note len="12" key="1" vol="197" pos="348" pan="0"/>
          <note len="12" key="71" vol="197" pos="360" pan="0"/>
          <note len="12" key="74" vol="197" pos="372" pan="0"/>
        </pattern>
        <pattern muted="0" name="" pos="25344" type="1" steps="16">
          <note len="24" key="64" vol="197" pos="0" pan="0"/>
          <note len="24" key="0" vol="197" pos="0" pan="0"/>
          <note len="24" key="64" vol="197" pos="24" pan="0"/>
          <note len="24" key="71" vol="197" pos="48" pan="0"/>
          <note len="24" key="64" vol="197" pos="72" pan="0"/>
          <note len="24" key="76" vol="197" pos="96" pan="0"/>
          <note len="24" key="64" vol="197" pos="120" pan="0"/>
          <note len="24" key="71" vol="197" pos="144" pan="0"/>
          <note len="24" key="64" vol="197" pos="168" pan="0"/>
          <note len="24" key="79" vol="197" pos="192" pan="0"/>
          <note len="24" key="64" vol="197" pos="216" pan="0"/>
          <note len="24" key="78" vol="197" pos="240" pan="0"/>
          <note len="24" key="64" vol="197" pos="264" pan="0"/>
          <note len="24" key="83" vol="197" pos="288" pan="0"/>
          <note len="24" key="81" vol="197" pos="312" pan="0"/>
          <note len="24" key="79" vol="197" pos="336" pan="0"/>
          <note len="24" key="83" vol="197" pos="360" pan="0"/>
        </pattern>
        <pattern muted="0" name="lgtH1" pos="25728" type="1" steps="16">
          <note len="12" key="84" vol="197" pos="0" pan="0"/>
          <note len="12" key="0" vol="197" pos="0" pan="0"/>
          <note len="12" key="79" vol="197" pos="12" pan="0"/>
          <note len="12" key="1" vol="197" pos="12" pan="0"/>
          <note len="12" key="76" vol="197" pos="24" pan="0"/>
          <note len="12" key="72" vol="197" pos="36" pan="0"/>
          <note len="12" key="67" vol="197" pos="48" pan="0"/>
          <note len="12" key="72" vol="197" pos="60" pan="0"/>
          <note len="12" key="79" vol="197" pos="72" pan="0"/>
          <note len="12" key="0" vol="197" pos="72" pan="0"/>
          <note len="12" key="76" vol="197" pos="84" pan="0"/>
          <note len="12" key="1" vol="197" pos="84" pan="0"/>
          <note len="12" key="72" vol="197" pos="96" pan="0"/>
          <note len="12" key="67" vol="197" pos="108" pan="0"/>
          <note len="12" key="72" vol="197" pos="120" pan="0"/>
          <note len="12" key="76" vol="197" pos="132" pan="0"/>
          <note len="12" key="84" vol="197" pos="144" pan="0"/>
          <note len="12" key="0" vol="197" pos="144" pan="0"/>
          <note len="12" key="79" vol="197" pos="156" pan="0"/>
          <note len="12" key="1" vol="197" pos="156" pan="0"/>
          <note len="12" key="76" vol="197" pos="168" pan="0"/>
          <note len="12" key="72" vol="197" pos="180" pan="0"/>
          <note len="12" key="76" vol="197" pos="192" pan="0"/>
          <note len="12" key="0" vol="197" pos="192" pan="0"/>
          <note len="12" key="72" vol="197" pos="204" pan="0"/>
          <note len="12" key="74" vol="197" pos="216" pan="0"/>
          <note len="12" key="76" vol="197" pos="228" pan="0"/>
          <note len="12" key="78" vol="197" pos="240" pan="0"/>
          <note len="12" key="74" vol="197" pos="252" pan="0"/>
          <note len="12" key="76" vol="197" pos="264" pan="0"/>
          <note len="12" key="78" vol="197" pos="276" pan="0"/>
          <note len="12" key="79" vol="197" pos="288" pan="0"/>
          <note len="12" key="76" vol="197" pos="300" pan="0"/>
          <note len="12" key="78" vol="197" pos="312" pan="0"/>
          <note len="12" key="79" vol="197" pos="324" pan="0"/>
          <note len="12" key="81" vol="197" pos="336" pan="0"/>
          <note len="12" key="78" vol="197" pos="348" pan="0"/>
          <note len="12" key="79" vol="197" pos="360" pan="0"/>
          <note len="12" key="81" vol="197" pos="372" pan="0"/>
        </pattern>
        <pattern muted="0" name="lgtH1" pos="26880" type="1" steps="16">
          <note len="12" key="83" vol="100" pos="0" pan="0"/>
          <note len="12" key="64" vol="100" pos="12" pan="0"/>
          <note len="12" key="64" vol="100" pos="24" pan="0"/>
          <note len="12" key="64" vol="100" pos="36" pan="0"/>
          <note len="12" key="81" vol="100" pos="48" pan="0"/>
          <note len="12" key="64" vol="100" pos="60" pan="0"/>
          <note len="12" key="83" vol="100" pos="72" pan="0"/>
          <note len="12" key="64" vol="100" pos="84" pan="0"/>
          <note len="12" key="64" vol="100" pos="96" pan="0"/>
          <note len="12" key="64" vol="100" pos="108" pan="0"/>
          <note len="12" key="81" vol="100" pos="120" pan="0"/>
          <note len="12" key="64" vol="100" pos="132" pan="0"/>
          <note len="12" key="83" vol="100" pos="144" pan="0"/>
          <note len="12" key="64" vol="100" pos="156" pan="0"/>
          <note len="12" key="81" vol="100" pos="168" pan="0"/>
          <note len="12" key="64" vol="100" pos="180" pan="0"/>
          <note len="12" key="86" vol="100" pos="192" pan="0"/>
          <note len="12" key="64" vol="100" pos="204" pan="0"/>
          <note len="12" key="64" vol="100" pos="216" pan="0"/>
          <note len="12" key="64" vol="100" pos="228" pan="0"/>
          <note len="12" key="81" vol="100" pos="240" pan="0"/>
          <note len="12" key="64" vol="100" pos="252" pan="0"/>
          <note len="12" key="83" vol="100" pos="264" pan="0"/>
          <note len="12" key="64" vol="100" pos="276" pan="0"/>
          <note len="12" key="64" vol="100" pos="288" pan="0"/>
          <note len="12" key="64" vol="100" pos="300" pan="0"/>
          <note len="12" key="78" vol="100" pos="312" pan="0"/>
          <note len="12" key="64" vol="100" pos="324" pan="0"/>
          <note len="12" key="79" vol="100" pos="336" pan="0"/>
          <note len="12" key="64" vol="100" pos="348" pan="0"/>
          <note len="12" key="76" vol="100" pos="360" pan="0"/>
          <note len="12" key="64" vol="100" pos="372" pan="0"/>
        </pattern>
        <pattern muted="0" name="lgtH1" pos="27264" type="1" steps="16">
          <note len="48" key="64" vol="100" pos="0" pan="0"/>
          <note len="12" key="0" vol="100" pos="0" pan="0"/>
          <note len="24" key="67" vol="100" pos="48" pan="0"/>
          <note len="48" key="66" vol="100" pos="72" pan="0"/>
          <note len="24" key="67" vol="100" pos="120" pan="0"/>
          <note len="24" key="69" vol="100" pos="144" pan="0"/>
          <note len="24" key="71" vol="100" pos="168" pan="0"/>
          <note len="12" key="86" vol="100" pos="192" pan="0"/>
          <note len="12" key="2" vol="100" pos="192" pan="0"/>
          <note len="12" key="78" vol="100" pos="204" pan="0"/>
          <note len="12" key="81" vol="100" pos="216" pan="0"/>
          <note len="12" key="74" vol="100" pos="228" pan="0"/>
          <note len="12" key="78" vol="100" pos="240" pan="0"/>
          <note len="12" key="74" vol="100" pos="252" pan="0"/>
          <note len="12" key="81" vol="100" pos="264" pan="0"/>
          <note len="12" key="78" vol="100" pos="276" pan="0"/>
          <note len="12" key="86" vol="100" pos="288" pan="0"/>
          <note len="12" key="78" vol="100" pos="300" pan="0"/>
          <note len="12" key="81" vol="100" pos="312" pan="0"/>
          <note len="12" key="78" vol="100" pos="324" pan="0"/>
          <note len="12" key="86" vol="100" pos="336" pan="0"/>
          <note len="12" key="78" vol="100" pos="348" pan="0"/>
          <note len="12" key="90" vol="100" pos="360" pan="0"/>
          <note len="12" key="78" vol="100" pos="372" pan="0"/>
        </pattern>
        <pattern muted="0" name="" pos="27648" type="1" steps="16">
          <note len="24" key="0" vol="199" pos="0" pan="0"/>
          <note len="12" key="1" vol="199" pos="24" pan="0"/>
          <note len="12" key="83" vol="199" pos="96" pan="0"/>
          <note len="12" key="0" vol="199" pos="96" pan="0"/>
          <note len="12" key="81" vol="199" pos="108" pan="0"/>
          <note len="12" key="79" vol="199" pos="120" pan="0"/>
          <note len="12" key="1" vol="199" pos="120" pan="0"/>
          <note len="12" key="76" vol="199" pos="132" pan="0"/>
          <note len="12" key="71" vol="199" pos="144" pan="0"/>
          <note len="12" key="67" vol="199" pos="156" pan="0"/>
          <note len="12" key="71" vol="199" pos="168" pan="0"/>
          <note len="12" key="76" vol="199" pos="180" pan="0"/>
          <note len="12" key="83" vol="199" pos="192" pan="0"/>
          <note len="12" key="0" vol="199" pos="192" pan="0"/>
          <note len="12" key="81" vol="199" pos="204" pan="0"/>
          <note len="12" key="79" vol="199" pos="216" pan="0"/>
          <note len="12" key="76" vol="199" pos="228" pan="0"/>
          <note len="12" key="79" vol="199" pos="240" pan="0"/>
          <note len="12" key="81" vol="199" pos="252" pan="0"/>
          <note len="12" key="83" vol="199" pos="264" pan="0"/>
          <note len="12" key="86" vol="199" pos="276" pan="0"/>
          <note len="12" key="88" vol="199" pos="288" pan="0"/>
          <note len="12" key="86" vol="199" pos="300" pan="0"/>
          <note len="12" key="83" vol="199" pos="312" pan="0"/>
          <note len="12" key="81" vol="199" pos="324" pan="0"/>
          <note len="12" key="86" vol="199" pos="336" pan="0"/>
          <note len="12" key="83" vol="199" pos="348" pan="0"/>
          <note len="12" key="81" vol="199" pos="360" pan="0"/>
          <note len="12" key="83" vol="199" pos="372" pan="0"/>
        </pattern>
        <pattern muted="0" name="" pos="28032" type="1" steps="16">
          <note len="12" key="88" vol="199" pos="0" pan="0"/>
          <note len="24" key="0" vol="199" pos="0" pan="0"/>
          <note len="12" key="86" vol="199" pos="12" pan="0"/>
          <note len="12" key="83" vol="199" pos="24" pan="0"/>
          <note len="12" key="1" vol="199" pos="24" pan="0"/>
          <note len="12" key="81" vol="199" pos="36" pan="0"/>
          <note len="12" key="79" vol="199" pos="48" pan="0"/>
          <note len="12" key="76" vol="199" pos="60" pan="0"/>
          <note len="12" key="71" vol="199" pos="72" pan="0"/>
          <note len="12" key="76" vol="199" pos="84" pan="0"/>
          <note len="12" key="88" vol="199" pos="96" pan="0"/>
          <note len="12" key="0" vol="199" pos="96" pan="0"/>
          <note len="12" key="86" vol="199" pos="108" pan="0"/>
          <note len="12" key="83" vol="199" pos="120" pan="0"/>
          <note len="12" key="1" vol="199" pos="120" pan="0"/>
          <note len="12" key="81" vol="199" pos="132" pan="0"/>
          <note len="12" key="79" vol="199" pos="144" pan="0"/>
          <note len="12" key="76" vol="199" pos="156" pan="0"/>
          <note len="12" key="71" vol="199" pos="168" pan="0"/>
          <note len="12" key="76" vol="199" pos="180" pan="0"/>
          <note len="24" key="86" vol="199" pos="192" pan="0"/>
          <note len="12" key="0" vol="199" pos="192" pan="0"/>
          <note len="24" key="84" vol="199" pos="216" pan="0"/>
          <note len="48" key="83" vol="199" pos="264" pan="0"/>
          <note len="24" key="81" vol="199" pos="312" pan="0"/>
          <note len="24" key="79" vol="199" pos="336" pan="0"/>
          <note len="24" key="83" vol="199" pos="360" pan="0"/>
        </pattern>
        <pattern muted="0" name="" pos="28416" type="1" steps="16">
          <note len="24" key="0" vol="199" pos="0" pan="0"/>
          <note len="12" key="1" vol="199" pos="24" pan="0"/>
          <note len="12" key="83" vol="199" pos="96" pan="0"/>
          <note len="12" key="0" vol="199" pos="96" pan="0"/>
          <note len="12" key="81" vol="199" pos="108" pan="0"/>
          <note len="12" key="79" vol="199" pos="120" pan="0"/>
          <note len="12" key="1" vol="199" pos="120" pan="0"/>
          <note len="12" key="76" vol="199" pos="132" pan="0"/>
          <note len="12" key="71" vol="199" pos="144" pan="0"/>
          <note len="12" key="67" vol="199" pos="156" pan="0"/>
          <note len="12" key="71" vol="199" pos="168" pan="0"/>
          <note len="12" key="76" vol="199" pos="180" pan="0"/>
          <note len="12" key="83" vol="199" pos="192" pan="0"/>
          <note len="12" key="0" vol="199" pos="192" pan="0"/>
          <note len="12" key="81" vol="199" pos="204" pan="0"/>
          <note len="12" key="79" vol="199" pos="216" pan="0"/>
          <note len="12" key="76" vol="199" pos="228" pan="0"/>
          <note len="12" key="79" vol="199" pos="240" pan="0"/>
          <note len="12" key="81" vol="199" pos="252" pan="0"/>
          <note len="12" key="83" vol="199" pos="264" pan="0"/>
          <note len="12" key="86" vol="199" pos="276" pan="0"/>
          <note len="12" key="88" vol="199" pos="288" pan="0"/>
          <note len="12" key="88" vol="199" pos="300" pan="0"/>
          <note len="12" key="83" vol="199" pos="312" pan="0"/>
          <note len="12" key="83" vol="199" pos="324" pan="0"/>
          <note len="12" key="81" vol="199" pos="336" pan="0"/>
          <note len="12" key="81" vol="199" pos="348" pan="0"/>
          <note len="12" key="86" vol="199" pos="360" pan="0"/>
          <note len="12" key="86" vol="199" pos="372" pan="0"/>
        </pattern>
        <pattern muted="0" name="lgtH1" pos="28800" type="1" steps="16">
          <note len="12" key="60" vol="199" pos="0" pan="0"/>
          <note len="12" key="1" vol="199" pos="0" pan="0"/>
          <note len="12" key="64" vol="199" pos="12" pan="0"/>
          <note len="12" key="62" vol="199" pos="24" pan="0"/>
          <note len="12" key="64" vol="199" pos="36" pan="0"/>
          <note len="12" key="67" vol="199" pos="48" pan="0"/>
          <note len="12" key="64" vol="199" pos="60" pan="0"/>
          <note len="12" key="62" vol="199" pos="72" pan="0"/>
          <note len="12" key="64" vol="199" pos="84" pan="0"/>
          <note len="12" key="69" vol="199" pos="96" pan="0"/>
          <note len="12" key="0" vol="199" pos="96" pan="0"/>
          <note len="12" key="67" vol="199" pos="108" pan="0"/>
          <note len="12" key="64" vol="199" pos="120" pan="0"/>
          <note len="12" key="1" vol="199" pos="120" pan="0"/>
          <note len="12" key="69" vol="199" pos="132" pan="0"/>
          <note len="12" key="67" vol="199" pos="144" pan="0"/>
          <note len="12" key="0" vol="199" pos="144" pan="0"/>
          <note len="12" key="64" vol="199" pos="156" pan="0"/>
          <note len="12" key="62" vol="199" pos="168" pan="0"/>
          <note len="12" key="1" vol="199" pos="168" pan="0"/>
          <note len="12" key="64" vol="199" pos="180" pan="0"/>
          <note len="12" key="62" vol="199" pos="192" pan="0"/>
          <note len="12" key="67" vol="199" pos="204" pan="0"/>
          <note len="12" key="64" vol="199" pos="216" pan="0"/>
          <note len="12" key="67" vol="199" pos="228" pan="0"/>
          <note len="12" key="69" vol="199" pos="240" pan="0"/>
          <note len="12" key="67" vol="199" pos="252" pan="0"/>
          <note len="12" key="64" vol="199" pos="264" pan="0"/>
          <note len="12" key="67" vol="199" pos="276" pan="0"/>
          <note len="12" key="71" vol="199" pos="288" pan="0"/>
          <note len="12" key="0" vol="199" pos="288" pan="0"/>
          <note len="12" key="69" vol="199" pos="300" pan="0"/>
          <note len="12" key="67" vol="199" pos="312" pan="0"/>
          <note len="12" key="1" vol="199" pos="312" pan="0"/>
          <note len="12" key="71" vol="199" pos="324" pan="0"/>
          <note len="12" key="74" vol="199" pos="336" pan="0"/>
          <note len="12" key="2" vol="199" pos="336" pan="0"/>
          <note len="12" key="78" vol="199" pos="348" pan="0"/>
          <note len="12" key="81" vol="199" pos="360" pan="0"/>
          <note len="12" key="86" vol="199" pos="372" pan="0"/>
        </pattern>
        <pattern muted="0" name="lgtH1" pos="29760" type="1" steps="16">
          <note len="24" key="83" vol="199" pos="0" pan="0"/>
          <note len="24" key="0" vol="199" pos="0" pan="0"/>
          <note len="24" key="88" vol="199" pos="24" pan="0"/>
          <note len="24" key="81" vol="199" pos="48" pan="0"/>
          <note len="24" key="86" vol="199" pos="72" pan="0"/>
          <note len="48" key="83" vol="199" pos="96" pan="0"/>
          <note len="24" key="81" vol="199" pos="144" pan="0"/>
          <note len="24" key="83" vol="199" pos="168" pan="0"/>
        </pattern>
        <pattern muted="0" name="lgtH1" pos="29952" type="1" steps="16">
          <note len="12" key="84" vol="100" pos="0" pan="0"/>
          <note len="12" key="0" vol="100" pos="0" pan="0"/>
          <note len="12" key="79" vol="100" pos="12" pan="0"/>
          <note len="12" key="78" vol="100" pos="24" pan="0"/>
          <note len="12" key="79" vol="100" pos="36" pan="0"/>
          <note len="12" key="84" vol="100" pos="48" pan="0"/>
          <note len="12" key="79" vol="100" pos="60" pan="0"/>
          <note len="12" key="78" vol="100" pos="72" pan="0"/>
          <note len="12" key="79" vol="100" pos="84" pan="0"/>
          <note len="12" key="84" vol="100" pos="96" pan="0"/>
          <note len="12" key="79" vol="100" pos="108" pan="0"/>
          <note len="12" key="78" vol="100" pos="120" pan="0"/>
          <note len="12" key="79" vol="100" pos="132" pan="0"/>
          <note len="12" key="78" vol="100" pos="144" pan="0"/>
          <note len="12" key="76" vol="100" pos="156" pan="0"/>
          <note len="12" key="74" vol="100" pos="168" pan="0"/>
          <note len="12" key="76" vol="100" pos="180" pan="0"/>
          <note len="12" key="83" vol="100" pos="192" pan="0"/>
          <note len="12" key="79" vol="100" pos="204" pan="0"/>
          <note len="12" key="78" vol="100" pos="216" pan="0"/>
          <note len="12" key="79" vol="100" pos="228" pan="0"/>
          <note len="12" key="83" vol="100" pos="240" pan="0"/>
          <note len="12" key="79" vol="100" pos="252" pan="0"/>
          <note len="12" key="78" vol="100" pos="264" pan="0"/>
          <note len="12" key="79" vol="100" pos="276" pan="0"/>
          <note len="12" key="74" vol="100" pos="288" pan="0"/>
          <note len="12" key="76" vol="100" pos="300" pan="0"/>
          <note len="12" key="78" vol="100" pos="312" pan="0"/>
          <note len="12" key="79" vol="100" pos="324" pan="0"/>
          <note len="12" key="83" vol="100" pos="336" pan="0"/>
          <note len="12" key="79" vol="100" pos="348" pan="0"/>
          <note len="12" key="78" vol="100" pos="360" pan="0"/>
          <note len="12" key="79" vol="100" pos="372" pan="0"/>
        </pattern>
        <pattern muted="0" name="" pos="29184" type="1" steps="16">
          <note len="12" key="1" vol="199" pos="0" pan="0"/>
          <note len="24" key="0" vol="199" pos="168" pan="0"/>
          <note len="48" key="67" vol="199" pos="192" pan="0"/>
          <note len="12" key="66" vol="199" pos="240" pan="0"/>
          <note len="24" key="2" vol="199" pos="240" pan="0"/>
          <note len="12" key="67" vol="199" pos="252" pan="0"/>
          <note len="12" key="66" vol="199" pos="264" pan="0"/>
          <note len="12" key="67" vol="199" pos="276" pan="0"/>
          <note len="12" key="71" vol="199" pos="288" pan="0"/>
          <note len="12" key="62" vol="199" pos="300" pan="0"/>
          <note len="12" key="67" vol="199" pos="312" pan="0"/>
          <note len="12" key="62" vol="199" pos="324" pan="0"/>
          <note len="12" key="71" vol="199" pos="336" pan="0"/>
          <note len="12" key="67" vol="199" pos="348" pan="0"/>
          <note len="12" key="74" vol="199" pos="360" pan="0"/>
          <note len="12" key="67" vol="199" pos="372" pan="0"/>
          <note len="12" key="0" vol="199" pos="384" pan="0"/>
          <note len="12" key="1" vol="199" pos="504" pan="0"/>
          <note len="12" key="0" vol="199" pos="552" pan="0"/>
        </pattern>
        <pattern muted="0" name="lgtH1" pos="30336" type="1" steps="16">
          <note len="6" key="74" vol="199" pos="0" pan="0"/>
          <note len="48" key="2" vol="199" pos="0" pan="0"/>
          <note len="6" key="66" vol="199" pos="6" pan="0"/>
          <note len="6" key="74" vol="199" pos="12" pan="0"/>
          <note len="6" key="66" vol="199" pos="18" pan="0"/>
          <note len="6" key="69" vol="199" pos="24" pan="0"/>
          <note len="6" key="62" vol="199" pos="30" pan="0"/>
          <note len="6" key="69" vol="199" pos="36" pan="0"/>
          <note len="6" key="62" vol="199" pos="42" pan="0"/>
          <note len="6" key="78" vol="199" pos="48" pan="0"/>
          <note len="6" key="69" vol="199" pos="54" pan="0"/>
          <note len="6" key="78" vol="199" pos="60" pan="0"/>
          <note len="6" key="69" vol="199" pos="66" pan="0"/>
          <note len="6" key="74" vol="199" pos="72" pan="0"/>
          <note len="6" key="66" vol="199" pos="78" pan="0"/>
          <note len="6" key="74" vol="199" pos="84" pan="0"/>
          <note len="6" key="66" vol="199" pos="90" pan="0"/>
          <note len="6" key="81" vol="199" pos="96" pan="0"/>
          <note len="6" key="74" vol="199" pos="102" pan="0"/>
          <note len="6" key="81" vol="199" pos="108" pan="0"/>
          <note len="6" key="74" vol="199" pos="114" pan="0"/>
          <note len="6" key="78" vol="199" pos="120" pan="0"/>
          <note len="6" key="69" vol="199" pos="126" pan="0"/>
          <note len="6" key="78" vol="199" pos="132" pan="0"/>
          <note len="6" key="69" vol="199" pos="138" pan="0"/>
          <note len="6" key="86" vol="199" pos="144" pan="0"/>
          <note len="6" key="78" vol="199" pos="150" pan="0"/>
          <note len="6" key="86" vol="199" pos="156" pan="0"/>
          <note len="6" key="78" vol="199" pos="162" pan="0"/>
          <note len="6" key="81" vol="199" pos="168" pan="0"/>
          <note len="6" key="74" vol="199" pos="174" pan="0"/>
          <note len="6" key="81" vol="199" pos="180" pan="0"/>
          <note len="6" key="74" vol="199" pos="186" pan="0"/>
          <note len="6" key="90" vol="199" pos="192" pan="0"/>
          <note len="6" key="81" vol="199" pos="198" pan="0"/>
          <note len="6" key="90" vol="199" pos="204" pan="0"/>
          <note len="6" key="81" vol="199" pos="210" pan="0"/>
          <note len="6" key="86" vol="199" pos="216" pan="0"/>
          <note len="6" key="78" vol="199" pos="222" pan="0"/>
          <note len="6" key="86" vol="199" pos="228" pan="0"/>
          <note len="6" key="78" vol="199" pos="234" pan="0"/>
          <note len="6" key="93" vol="199" pos="240" pan="0"/>
          <note len="6" key="86" vol="199" pos="246" pan="0"/>
          <note len="6" key="93" vol="199" pos="252" pan="0"/>
          <note len="6" key="86" vol="199" pos="258" pan="0"/>
          <note len="6" key="90" vol="199" pos="264" pan="0"/>
          <note len="6" key="81" vol="199" pos="270" pan="0"/>
          <note len="6" key="90" vol="199" pos="276" pan="0"/>
          <note len="6" key="81" vol="199" pos="282" pan="0"/>
          <note len="12" key="86" vol="199" pos="288" pan="0"/>
          <note len="6" key="0" vol="199" pos="288" pan="0"/>
          <note len="12" key="84" vol="199" pos="300" pan="0"/>
          <note len="12" key="83" vol="199" pos="312" pan="0"/>
          <note len="12" key="81" vol="199" pos="324" pan="0"/>
          <note len="12" key="84" vol="199" pos="336" pan="0"/>
          <note len="12" key="83" vol="199" pos="348" pan="0"/>
          <note len="12" key="81" vol="199" pos="360" pan="0"/>
          <note len="12" key="79" vol="199" pos="372" pan="0"/>
        </pattern>
        <pattern muted="0" name="" pos="30720" type="1" steps="16">
          <note len="144" key="71" vol="100" pos="0" pan="0"/>
          <note len="12" key="0" vol="100" pos="0" pan="0"/>
          <note len="48" key="72" vol="100" pos="144" pan="0"/>
          <note len="48" key="71" vol="100" pos="192" pan="0"/>
          <note len="48" key="69" vol="100" pos="240" pan="0"/>
          <note len="48" key="67" vol="100" pos="288" pan="0"/>
          <note len="48" key="71" vol="100" pos="336" pan="0"/>
          <note len="72" key="69" vol="100" pos="384" pan="0"/>
          <note len="72" key="74" vol="100" pos="456" pan="0"/>
          <note len="48" key="78" vol="100" pos="528" pan="0"/>
          <note len="48" key="79" vol="100" pos="576" pan="0"/>
          <note len="48" key="78" vol="100" pos="624" pan="0"/>
          <note len="48" key="76" vol="100" pos="672" pan="0"/>
          <note len="48" key="74" vol="100" pos="720" pan="0"/>
          <note len="144" key="83" vol="100" pos="768" pan="0"/>
          <note len="24" key="84" vol="100" pos="912" pan="0"/>
          <note len="24" key="83" vol="100" pos="936" pan="0"/>
          <note len="72" key="81" vol="100" pos="960" pan="0"/>
          <note len="72" key="79" vol="100" pos="1032" pan="0"/>
          <note len="48" key="78" vol="100" pos="1104" pan="0"/>
          <note len="96" key="79" vol="100" pos="1152" pan="0"/>
          <note len="48" key="81" vol="100" pos="1248" pan="0"/>
          <note len="48" key="83" vol="100" pos="1296" pan="0"/>
          <note len="48" key="81" vol="100" pos="1344" pan="0"/>
          <note len="12" key="78" vol="100" pos="1392" pan="0"/>
          <note len="12" key="78" vol="100" pos="1404" pan="0"/>
          <note len="12" key="78" vol="100" pos="1416" pan="0"/>
          <note len="12" key="78" vol="100" pos="1428" pan="0"/>
          <note len="12" key="79" vol="100" pos="1440" pan="0"/>
          <note len="12" key="79" vol="100" pos="1452" pan="0"/>
          <note len="12" key="79" vol="100" pos="1464" pan="0"/>
          <note len="12" key="79" vol="100" pos="1476" pan="0"/>
          <note len="12" key="81" vol="100" pos="1488" pan="0"/>
          <note len="12" key="81" vol="100" pos="1500" pan="0"/>
          <note len="12" key="81" vol="100" pos="1512" pan="0"/>
          <note len="12" key="81" vol="100" pos="1524" pan="0"/>
        </pattern>
        <pattern muted="0" name="" pos="32256" type="1" steps="16">
          <note len="144" key="79" vol="100" pos="0" pan="0"/>
          <note len="144" key="0" vol="100" pos="0" pan="0"/>
          <note len="48" key="81" vol="100" pos="144" pan="0"/>
          <note len="48" key="79" vol="100" pos="192" pan="0"/>
          <note len="48" key="78" vol="100" pos="240" pan="0"/>
          <note len="48" key="74" vol="100" pos="288" pan="0"/>
          <note len="48" key="79" vol="100" pos="336" pan="0"/>
          <note len="72" key="78" vol="100" pos="384" pan="0"/>
          <note len="72" key="81" vol="100" pos="456" pan="0"/>
          <note len="48" key="74" vol="100" pos="528" pan="0"/>
          <note len="48" key="76" vol="100" pos="576" pan="0"/>
          <note len="48" key="74" vol="100" pos="624" pan="0"/>
          <note len="48" key="71" vol="100" pos="672" pan="0"/>
          <note len="48" key="69" vol="100" pos="720" pan="0"/>
          <note len="144" key="79" vol="100" pos="768" pan="0"/>
          <note len="24" key="81" vol="100" pos="912" pan="0"/>
          <note len="24" key="79" vol="100" pos="936" pan="0"/>
          <note len="72" key="78" vol="100" pos="960" pan="0"/>
          <note len="72" key="76" vol="100" pos="1032" pan="0"/>
          <note len="48" key="74" vol="100" pos="1104" pan="0"/>
          <note len="96" key="76" vol="100" pos="1152" pan="0"/>
          <note len="48" key="78" vol="100" pos="1248" pan="0"/>
          <note len="48" key="79" vol="100" pos="1296" pan="0"/>
          <note len="48" key="78" vol="100" pos="1344" pan="0"/>
          <note len="12" key="74" vol="100" pos="1392" pan="0"/>
          <note len="12" key="72" vol="100" pos="1404" pan="0"/>
          <note len="12" key="71" vol="100" pos="1416" pan="0"/>
          <note len="12" key="72" vol="100" pos="1428" pan="0"/>
          <note len="12" key="76" vol="100" pos="1440" pan="0"/>
          <note len="12" key="74" vol="100" pos="1452" pan="0"/>
          <note len="12" key="72" vol="100" pos="1464" pan="0"/>
          <note len="12" key="74" vol="100" pos="1476" pan="0"/>
          <note len="12" key="78" vol="100" pos="1488" pan="0"/>
          <note len="12" key="76" vol="100" pos="1500" pan="0"/>
          <note len="12" key="74" vol="100" pos="1512" pan="0"/>
          <note len="12" key="76" vol="100" pos="1524" pan="0"/>
        </pattern>
        <pattern muted="0" name="" pos="3840" type="1" steps="16">
          <note len="12" key="79" vol="100" pos="0" pan="0"/>
          <note len="24" key="2" vol="100" pos="0" pan="0"/>
          <note len="12" key="71" vol="100" pos="12" pan="0"/>
          <note len="12" key="78" vol="100" pos="24" pan="0"/>
          <note len="12" key="71" vol="100" pos="36" pan="0"/>
          <note len="12" key="76" vol="100" pos="48" pan="0"/>
          <note len="12" key="71" vol="100" pos="60" pan="0"/>
          <note len="12" key="79" vol="100" pos="72" pan="0"/>
          <note len="12" key="71" vol="100" pos="84" pan="0"/>
          <note len="12" key="78" vol="100" pos="96" pan="0"/>
          <note len="12" key="71" vol="100" pos="108" pan="0"/>
          <note len="12" key="76" vol="100" pos="120" pan="0"/>
          <note len="12" key="71" vol="100" pos="132" pan="0"/>
          <note len="12" key="79" vol="100" pos="144" pan="0"/>
          <note len="12" key="71" vol="100" pos="156" pan="0"/>
          <note len="12" key="78" vol="100" pos="168" pan="0"/>
          <note len="12" key="71" vol="100" pos="180" pan="0"/>
          <note len="12" key="79" vol="100" pos="192" pan="0"/>
          <note len="12" key="72" vol="100" pos="204" pan="0"/>
          <note len="12" key="78" vol="100" pos="216" pan="0"/>
          <note len="12" key="72" vol="100" pos="228" pan="0"/>
          <note len="12" key="76" vol="100" pos="240" pan="0"/>
          <note len="12" key="72" vol="100" pos="252" pan="0"/>
          <note len="12" key="79" vol="100" pos="264" pan="0"/>
          <note len="12" key="72" vol="100" pos="276" pan="0"/>
          <note len="12" key="78" vol="100" pos="288" pan="0"/>
          <note len="12" key="72" vol="100" pos="300" pan="0"/>
          <note len="12" key="76" vol="100" pos="312" pan="0"/>
          <note len="12" key="72" vol="100" pos="324" pan="0"/>
          <note len="12" key="79" vol="100" pos="336" pan="0"/>
          <note len="12" key="72" vol="100" pos="348" pan="0"/>
          <note len="12" key="78" vol="100" pos="360" pan="0"/>
          <note len="12" key="72" vol="100" pos="372" pan="0"/>
          <note len="12" key="83" vol="100" pos="384" pan="0"/>
          <note len="12" key="74" vol="100" pos="396" pan="0"/>
          <note len="12" key="81" vol="100" pos="408" pan="0"/>
          <note len="12" key="74" vol="100" pos="420" pan="0"/>
          <note len="12" key="79" vol="100" pos="432" pan="0"/>
          <note len="12" key="74" vol="100" pos="444" pan="0"/>
          <note len="12" key="83" vol="100" pos="456" pan="0"/>
          <note len="12" key="74" vol="100" pos="468" pan="0"/>
          <note len="12" key="81" vol="100" pos="480" pan="0"/>
          <note len="12" key="74" vol="100" pos="492" pan="0"/>
          <note len="12" key="79" vol="100" pos="504" pan="0"/>
          <note len="12" key="74" vol="100" pos="516" pan="0"/>
          <note len="12" key="83" vol="100" pos="528" pan="0"/>
          <note len="12" key="74" vol="100" pos="540" pan="0"/>
          <note len="12" key="79" vol="100" pos="552" pan="0"/>
          <note len="12" key="74" vol="100" pos="564" pan="0"/>
          <note len="12" key="83" vol="191" pos="576" pan="0"/>
          <note len="12" key="1" vol="191" pos="576" pan="0"/>
          <note len="12" key="83" vol="191" pos="588" pan="0"/>
          <note len="12" key="81" vol="191" pos="600" pan="0"/>
          <note len="12" key="81" vol="191" pos="612" pan="0"/>
          <note len="12" key="86" vol="191" pos="624" pan="0"/>
          <note len="12" key="86" vol="191" pos="636" pan="0"/>
          <note len="12" key="83" vol="191" pos="648" pan="0"/>
          <note len="12" key="83" vol="191" pos="660" pan="0"/>
          <note len="12" key="88" vol="191" pos="672" pan="0"/>
          <note len="12" key="88" vol="191" pos="684" pan="0"/>
          <note len="12" key="86" vol="191" pos="696" pan="0"/>
          <note len="12" key="86" vol="191" pos="708" pan="0"/>
          <note len="12" key="83" vol="191" pos="720" pan="0"/>
          <note len="12" key="83" vol="191" pos="732" pan="0"/>
          <note len="12" key="86" vol="191" pos="744" pan="0"/>
          <note len="12" key="86" vol="191" pos="756" pan="0"/>
        </pattern>
        <pattern muted="0" name="" pos="33792" type="1" steps="16">
          <note len="12" key="0" vol="100" pos="0" pan="0"/>
          <note len="24" key="0" vol="100" pos="144" pan="0"/>
          <note len="24" key="2" vol="100" pos="168" pan="0"/>
          <note len="24" key="0" vol="100" pos="192" pan="0"/>
          <note len="24" key="2" vol="100" pos="216" pan="0"/>
          <note len="24" key="0" vol="100" pos="240" pan="0"/>
          <note len="24" key="2" vol="100" pos="264" pan="0"/>
          <note len="24" key="0" vol="100" pos="288" pan="0"/>
          <note len="12" key="2" vol="100" pos="312" pan="0"/>
          <note len="12" key="1" vol="100" pos="324" pan="0"/>
          <note len="12" key="0" vol="100" pos="384" pan="0"/>
          <note len="12" key="1" vol="100" pos="408" pan="0"/>
          <note len="12" key="0" vol="100" pos="456" pan="0"/>
          <note len="12" key="1" vol="100" pos="480" pan="0"/>
          <note len="12" key="0" vol="100" pos="528" pan="0"/>
          <note len="12" key="1" vol="100" pos="540" pan="0"/>
          <note len="12" key="0" vol="100" pos="576" pan="0"/>
          <note len="12" key="83" vol="100" pos="768" pan="0"/>
          <note len="12" key="1" vol="100" pos="768" pan="0"/>
          <note len="12" key="83" vol="100" pos="780" pan="0"/>
          <note len="12" key="79" vol="100" pos="792" pan="0"/>
          <note len="12" key="79" vol="100" pos="804" pan="0"/>
          <note len="12" key="76" vol="100" pos="816" pan="0"/>
          <note len="12" key="76" vol="100" pos="828" pan="0"/>
          <note len="12" key="79" vol="100" pos="840" pan="0"/>
          <note len="12" key="79" vol="100" pos="852" pan="0"/>
          <note len="12" key="83" vol="100" pos="864" pan="0"/>
          <note len="12" key="83" vol="100" pos="876" pan="0"/>
          <note len="12" key="79" vol="100" pos="888" pan="0"/>
          <note len="12" key="79" vol="100" pos="900" pan="0"/>
          <note len="12" key="84" vol="100" pos="912" pan="0"/>
          <note len="12" key="84" vol="100" pos="924" pan="0"/>
          <note len="12" key="83" vol="100" pos="936" pan="0"/>
          <note len="12" key="83" vol="100" pos="948" pan="0"/>
          <note len="12" key="81" vol="100" pos="960" pan="0"/>
          <note len="12" key="81" vol="100" pos="972" pan="0"/>
          <note len="12" key="78" vol="100" pos="984" pan="0"/>
          <note len="12" key="78" vol="100" pos="996" pan="0"/>
          <note len="12" key="74" vol="100" pos="1008" pan="0"/>
          <note len="12" key="74" vol="100" pos="1020" pan="0"/>
          <note len="12" key="78" vol="100" pos="1032" pan="0"/>
          <note len="12" key="78" vol="100" pos="1044" pan="0"/>
          <note len="12" key="79" vol="100" pos="1056" pan="0"/>
          <note len="12" key="79" vol="100" pos="1068" pan="0"/>
          <note len="12" key="78" vol="100" pos="1080" pan="0"/>
          <note len="12" key="78" vol="100" pos="1092" pan="0"/>
          <note len="12" key="76" vol="100" pos="1104" pan="0"/>
          <note len="12" key="76" vol="100" pos="1116" pan="0"/>
          <note len="12" key="78" vol="100" pos="1128" pan="0"/>
          <note len="12" key="78" vol="100" pos="1140" pan="0"/>
          <note len="96" key="79" vol="100" pos="1152" pan="0"/>
          <note len="12" key="0" vol="100" pos="1152" pan="0"/>
          <note len="48" key="81" vol="100" pos="1248" pan="0"/>
          <note len="48" key="83" vol="100" pos="1296" pan="0"/>
          <note len="48" key="81" vol="100" pos="1344" pan="0"/>
          <note len="12" key="69" vol="100" pos="1392" pan="0"/>
          <note len="12" key="0" vol="100" pos="1392" pan="0"/>
          <note len="12" key="74" vol="100" pos="1404" pan="0"/>
          <note len="12" key="78" vol="100" pos="1416" pan="0"/>
          <note len="12" key="81" vol="100" pos="1428" pan="0"/>
          <note len="12" key="1" vol="100" pos="1428" pan="0"/>
          <note len="12" key="86" vol="100" pos="1440" pan="0"/>
          <note len="12" key="81" vol="100" pos="1452" pan="0"/>
          <note len="12" key="0" vol="100" pos="1452" pan="0"/>
          <note len="12" key="78" vol="100" pos="1464" pan="0"/>
          <note len="12" key="74" vol="100" pos="1476" pan="0"/>
          <note len="12" key="69" vol="100" pos="1488" pan="0"/>
          <note len="12" key="1" vol="100" pos="1488" pan="0"/>
          <note len="12" key="74" vol="100" pos="1500" pan="0"/>
          <note len="12" key="78" vol="100" pos="1512" pan="0"/>
          <note len="12" key="81" vol="100" pos="1524" pan="0"/>
          <note len="12" key="0" vol="100" pos="1524" pan="0"/>
        </pattern>
        <pattern muted="0" name="" pos="35328" type="1" steps="16">
          <note len="24" key="79" vol="100" pos="0" pan="0"/>
          <note len="12" key="0" vol="100" pos="0" pan="0"/>
          <note len="24" key="78" vol="100" pos="24" pan="0"/>
          <note len="24" key="74" vol="100" pos="48" pan="0"/>
          <note len="24" key="79" vol="100" pos="72" pan="0"/>
          <note len="24" key="78" vol="100" pos="96" pan="0"/>
          <note len="24" key="74" vol="100" pos="120" pan="0"/>
          <note len="24" key="79" vol="100" pos="144" pan="0"/>
          <note len="24" key="78" vol="100" pos="168" pan="0"/>
          <note len="24" key="79" vol="100" pos="192" pan="0"/>
          <note len="24" key="78" vol="100" pos="216" pan="0"/>
          <note len="24" key="74" vol="100" pos="240" pan="0"/>
          <note len="24" key="79" vol="100" pos="264" pan="0"/>
          <note len="24" key="78" vol="100" pos="288" pan="0"/>
          <note len="24" key="74" vol="100" pos="312" pan="0"/>
          <note len="24" key="78" vol="100" pos="336" pan="0"/>
          <note len="24" key="79" vol="100" pos="360" pan="0"/>
          <note len="12" key="81" vol="100" pos="384" pan="0"/>
          <note len="12" key="2" vol="100" pos="384" pan="0"/>
          <note len="12" key="74" vol="100" pos="396" pan="0"/>
          <note len="12" key="79" vol="100" pos="408" pan="0"/>
          <note len="12" key="74" vol="100" pos="420" pan="0"/>
          <note len="12" key="78" vol="100" pos="432" pan="0"/>
          <note len="12" key="74" vol="100" pos="444" pan="0"/>
          <note len="12" key="81" vol="100" pos="456" pan="0"/>
          <note len="12" key="74" vol="100" pos="468" pan="0"/>
          <note len="12" key="79" vol="100" pos="480" pan="0"/>
          <note len="12" key="74" vol="100" pos="492" pan="0"/>
          <note len="12" key="78" vol="100" pos="504" pan="0"/>
          <note len="12" key="74" vol="100" pos="516" pan="0"/>
          <note len="12" key="79" vol="100" pos="528" pan="0"/>
          <note len="12" key="74" vol="100" pos="540" pan="0"/>
          <note len="12" key="81" vol="100" pos="552" pan="0"/>
          <note len="12" key="74" vol="100" pos="564" pan="0"/>
          <note len="12" key="86" vol="100" pos="576" pan="0"/>
          <note len="12" key="74" vol="100" pos="588" pan="0"/>
          <note len="12" key="81" vol="100" pos="600" pan="0"/>
          <note len="12" key="74" vol="100" pos="612" pan="0"/>
          <note len="12" key="78" vol="100" pos="624" pan="0"/>
          <note len="12" key="74" vol="100" pos="636" pan="0"/>
          <note len="12" key="86" vol="100" pos="648" pan="0"/>
          <note len="12" key="74" vol="100" pos="660" pan="0"/>
          <note len="12" key="81" vol="100" pos="672" pan="0"/>
          <note len="12" key="74" vol="100" pos="684" pan="0"/>
          <note len="12" key="78" vol="100" pos="696" pan="0"/>
          <note len="12" key="74" vol="100" pos="708" pan="0"/>
          <note len="12" key="81" vol="100" pos="720" pan="0"/>
          <note len="12" key="74" vol="100" pos="732" pan="0"/>
          <note len="12" key="86" vol="100" pos="744" pan="0"/>
          <note len="12" key="74" vol="100" pos="756" pan="0"/>
        </pattern>
        <pattern muted="0" name="lgtH1" pos="36480" type="1" steps="16">
          <note len="12" key="76" vol="100" pos="0" pan="0"/>
          <note len="12" key="1" vol="100" pos="0" pan="0"/>
          <note len="12" key="78" vol="100" pos="12" pan="0"/>
          <note len="12" key="79" vol="100" pos="24" pan="0"/>
          <note len="12" key="81" vol="100" pos="36" pan="0"/>
          <note len="12" key="78" vol="100" pos="48" pan="0"/>
          <note len="12" key="79" vol="100" pos="60" pan="0"/>
          <note len="12" key="81" vol="100" pos="72" pan="0"/>
          <note len="12" key="83" vol="100" pos="84" pan="0"/>
          <note len="12" key="79" vol="100" pos="96" pan="0"/>
          <note len="12" key="81" vol="100" pos="108" pan="0"/>
          <note len="12" key="83" vol="100" pos="120" pan="0"/>
          <note len="12" key="84" vol="100" pos="132" pan="0"/>
          <note len="12" key="83" vol="100" pos="144" pan="0"/>
          <note len="12" key="81" vol="100" pos="156" pan="0"/>
          <note len="12" key="79" vol="100" pos="168" pan="0"/>
          <note len="12" key="78" vol="100" pos="180" pan="0"/>
        </pattern>
        <pattern muted="0" name="lgtH1" pos="36672" type="1" steps="16">
          <note len="12" key="81" vol="100" pos="0" pan="0"/>
          <note len="12" key="0" vol="100" pos="0" pan="0"/>
          <note len="12" key="78" vol="100" pos="12" pan="0"/>
          <note len="12" key="74" vol="100" pos="24" pan="0"/>
          <note len="12" key="1" vol="100" pos="24" pan="0"/>
          <note len="12" key="69" vol="100" pos="36" pan="0"/>
          <note len="12" key="74" vol="100" pos="48" pan="0"/>
          <note len="12" key="78" vol="100" pos="60" pan="0"/>
          <note len="12" key="86" vol="100" pos="72" pan="0"/>
          <note len="12" key="0" vol="100" pos="72" pan="0"/>
          <note len="12" key="81" vol="100" pos="84" pan="0"/>
          <note len="12" key="78" vol="100" pos="96" pan="0"/>
          <note len="12" key="1" vol="100" pos="96" pan="0"/>
          <note len="12" key="74" vol="100" pos="108" pan="0"/>
          <note len="12" key="69" vol="100" pos="120" pan="0"/>
          <note len="12" key="74" vol="100" pos="132" pan="0"/>
          <note len="12" key="83" vol="100" pos="144" pan="0"/>
          <note len="12" key="0" vol="100" pos="144" pan="0"/>
          <note len="12" key="84" vol="100" pos="156" pan="0"/>
          <note len="12" key="83" vol="100" pos="168" pan="0"/>
          <note len="12" key="81" vol="100" pos="180" pan="0"/>
          <note len="192" key="83" vol="100" pos="192" pan="0"/>
        </pattern>
      </track>
      <track muted="1" name="lgtH2" solo="0" type="0">
        <instrumenttrack pitch="0" fxch="13" basenote="57" vol="200" pitchrange="1" usemasterpitch="1" pan="100">
          <instrument name="carlapatchbay">
            <carlapatchbay>
              <CARLA-PROJECT VERSION="2.2">
                <EngineSettings>
                  <ForceStereo>false</ForceStereo>
                  <PreferPluginBridges>false</PreferPluginBridges>
                  <PreferUiBridges>true</PreferUiBridges>
                  <UIsAlwaysOnTop>false</UIsAlwaysOnTop>
                  <MaxParameters>200</MaxParameters>
                  <UIBridgesTimeout>4000</UIBridgesTimeout>
                  <LADSPA_PATH>/home/pass/.ladspa:/usr/lib/ladspa:/usr/local/lib/ladspa</LADSPA_PATH>
                  <DSSI_PATH>/home/pass/.dssi:/usr/lib/dssi:/usr/local/lib/dssi</DSSI_PATH>
                  <LV2_PATH>/home/pass/.lv2:/usr/lib/lv2:/usr/local/lib/lv2</LV2_PATH>
                  <VST2_PATH>/home/pass/.vst:/home/pass/.wine/drive_c/Program Files (x86)/VstPlugins:/home/pass/.wine/drive_c/Program Files/VstPlugins:/usr/lib/lxvst:/usr/lib/vst:/usr/local/lib/lxvst:/usr/local/lib/vst/home/pass/.lxvst:/home/pass/vst</VST2_PATH>
                  <VST3_PATH>/home/pass/.vst3:/home/pass/.wine/drive_c/Program Files (x86)/Common Files/VST3:/home/pass/.wine/drive_c/Program Files/Common Files/VST3:/usr/lib/vst3:/usr/local/lib/vst3</VST3_PATH>
                  <SF2_PATH>/home/pass/.sounds/sf2/home/pass/.sounds/sf3:/usr/share/soundfonts:/usr/share/sounds/sf2:/usr/share/sounds/sf3</SF2_PATH>
                  <SFZ_PATH>/home/pass/.sounds/sfz:/home/pass/samples:/usr/share/sounds/sfz</SFZ_PATH>
                </EngineSettings>
                <!-- sfizz -->
                <Plugin>
                  <Info>
                    <Type>LV2</Type>
                    <Name>sfizz</Name>
                    <URI>http://sfztools.github.io/sfizz</URI>
                  </Info>
                  <Data>
                    <Active>Yes</Active>
                    <ControlChannel>1</ControlChannel>
                    <Options>0x3f0</Options>
                    <Parameter>
                      <Index>0</Index>
                      <Name>Volume</Name>
                      <Symbol>volume</Symbol>
                      <Value>0</Value>
                    </Parameter>
                    <Parameter>
                      <Index>1</Index>
                      <Name>Polyphony</Name>
                      <Symbol>num_voices</Symbol>
                      <Value>64</Value>
                    </Parameter>
                    <Parameter>
                      <Index>2</Index>
                      <Name>Internal oversampling factor</Name>
                      <Symbol>oversampling</Symbol>
                      <Value>1</Value>
                    </Parameter>
                    <Parameter>
                      <Index>3</Index>
                      <Name>Preload size</Name>
                      <Symbol>preload_size</Symbol>
                      <Value>8192</Value>
                    </Parameter>
                    <CustomData>
                      <Type>http://lv2plug.in/ns/ext/atom#Path</Type>
                      <Key>http://sfztools.github.io/sfizz:sfzfile</Key>
                      <Value>/home/pass/samples/fakeguitar/_fakeguitar2_integrated.sfz</Value>
                    </CustomData>
                    <CustomData>
                      <Type>http://lv2plug.in/ns/ext/atom#Int</Type>
                      <Key>http://sfztools.github.io/sfizz:numvoices</Key>
                      <Value>QAAAAA==</Value>
                    </CustomData>
                    <CustomData>
                      <Type>http://lv2plug.in/ns/ext/atom#Int</Type>
                      <Key>http://sfztools.github.io/sfizz:preload_size</Key>
                      <Value>ACAAAA==</Value>
                    </CustomData>
                    <CustomData>
                      <Type>http://lv2plug.in/ns/ext/atom#Int</Type>
                      <Key>http://sfztools.github.io/sfizz:oversampling</Key>
                      <Value>AQAAAA==</Value>
                    </CustomData>
                  </Data>
                </Plugin>
                <Patchbay>
                  <Connection>
                    <Source>Midi Input:Capture 1</Source>
                    <Target>sfizz:events-in</Target>
                  </Connection>
                  <Connection>
                    <Source>sfizz:Left Output</Source>
                    <Target>Audio Output:Left</Target>
                  </Connection>
                  <Connection>
                    <Source>sfizz:Right Output</Source>
                    <Target>Audio Output:Right</Target>
                  </Connection>
                  <Positions>
                    <Position x1="1693" pluginId="0" y1="1353">
                      <Name>sfizz</Name>
                    </Position>
                  </Positions>
                </Patchbay>
              </CARLA-PROJECT>
            </carlapatchbay>
          </instrument>
          <eldata ftype="0" fcut="14000" fres="0.5" fwet="0">
            <elvol userwavefile="" hold="0.5" lspd_numerator="4" lspd="0.1" lspd_denominator="4" lshp="0" latt="0" rel="0.1" x100="0" pdel="0" lpdel="0" amt="0" lspd_syncmode="0" dec="0.5" lamt="0" sustain="0.5" ctlenvamt="0" att="0"/>
            <elcut userwavefile="" hold="0.5" lspd_numerator="4" lspd="0.1" lspd_denominator="4" lshp="0" latt="0" rel="0.1" x100="0" pdel="0" lpdel="0" amt="0" lspd_syncmode="0" dec="0.5" lamt="0" sustain="0.5" ctlenvamt="0" att="0"/>
            <elres userwavefile="" hold="0.5" lspd_numerator="4" lspd="0.1" lspd_denominator="4" lshp="0" latt="0" rel="0.1" x100="0" pdel="0" lpdel="0" amt="0" lspd_syncmode="0" dec="0.5" lamt="0" sustain="0.5" ctlenvamt="0" att="0"/>
          </eldata>
          <chordcreator chord-enabled="0" chordrange="1" chord="0"/>
          <arpeggiator arpcycle="0" arptime_syncmode="0" arptime_numerator="4" arpgate="100" arpmode="0" arp-enabled="0" arptime="200" arp="0" arpskip="0" arpmiss="0" arprange="1" arpdir="0" arptime_denominator="4"/>
          <midiport inputchannel="0" outputprogram="1" basevelocity="63" outputchannel="1" fixedinputvelocity="-1" inputcontroller="0" readable="0" writable="0" outputcontroller="0" fixedoutputvelocity="-1" fixedoutputnote="-1"/>
          <fxchain numofeffects="0" enabled="0"/>
        </instrumenttrack>
        <pattern muted="0" name="" pos="0" type="1" steps="16">
          <note len="12" key="59" vol="100" pos="0" pan="0"/>
          <note len="48" key="1" vol="100" pos="0" pan="0"/>
          <note len="12" key="59" vol="100" pos="12" pan="0"/>
          <note len="12" key="59" vol="100" pos="24" pan="0"/>
          <note len="12" key="59" vol="100" pos="36" pan="0"/>
          <note len="48" key="59" vol="100" pos="48" pan="0"/>
          <note len="48" key="0" vol="100" pos="48" pan="0"/>
          <note len="24" key="67" vol="100" pos="96" pan="0"/>
          <note len="24" key="66" vol="100" pos="120" pan="0"/>
          <note len="24" key="64" vol="100" pos="144" pan="0"/>
          <note len="24" key="67" vol="100" pos="168" pan="0"/>
          <note len="48" key="66" vol="100" pos="192" pan="0"/>
          <note len="48" key="62" vol="100" pos="240" pan="0"/>
          <note len="48" key="57" vol="100" pos="288" pan="0"/>
          <note len="48" key="66" vol="100" pos="336" pan="0"/>
          <note len="12" key="57" vol="100" pos="384" pan="0"/>
          <note len="12" key="1" vol="100" pos="384" pan="0"/>
          <note len="12" key="57" vol="100" pos="396" pan="0"/>
          <note len="12" key="57" vol="100" pos="408" pan="0"/>
          <note len="12" key="57" vol="100" pos="420" pan="0"/>
          <note len="48" key="57" vol="100" pos="432" pan="0"/>
          <note len="12" key="0" vol="100" pos="432" pan="0"/>
          <note len="24" key="66" vol="100" pos="480" pan="0"/>
          <note len="24" key="64" vol="100" pos="504" pan="0"/>
          <note len="24" key="62" vol="100" pos="528" pan="0"/>
          <note len="24" key="66" vol="100" pos="552" pan="0"/>
          <note len="48" key="67" vol="100" pos="576" pan="0"/>
          <note len="48" key="66" vol="100" pos="624" pan="0"/>
          <note len="12" key="64" vol="100" pos="672" pan="0"/>
          <note len="12" key="1" vol="100" pos="672" pan="0"/>
          <note len="12" key="66" vol="100" pos="684" pan="0"/>
          <note len="12" key="64" vol="100" pos="696" pan="0"/>
          <note len="12" key="62" vol="100" pos="708" pan="0"/>
          <note len="12" key="60" vol="100" pos="720" pan="0"/>
          <note len="12" key="62" vol="100" pos="732" pan="0"/>
          <note len="12" key="64" vol="100" pos="744" pan="0"/>
          <note len="12" key="62" vol="100" pos="756" pan="0"/>
          <note len="12" key="59" vol="100" pos="768" pan="0"/>
          <note len="24" key="1" vol="100" pos="768" pan="0"/>
          <note len="12" key="59" vol="100" pos="780" pan="0"/>
          <note len="12" key="59" vol="100" pos="792" pan="0"/>
          <note len="12" key="59" vol="100" pos="804" pan="0"/>
          <note len="24" key="62" vol="100" pos="816" pan="0"/>
          <note len="24" key="0" vol="100" pos="816" pan="0"/>
          <note len="24" key="59" vol="100" pos="840" pan="0"/>
          <note len="24" key="1" vol="100" pos="840" pan="0"/>
          <note len="12" key="59" vol="100" pos="864" pan="0"/>
          <note len="24" key="0" vol="100" pos="864" pan="0"/>
          <note len="12" key="57" vol="100" pos="876" pan="0"/>
          <note len="12" key="55" vol="100" pos="888" pan="0"/>
          <note len="12" key="1" vol="100" pos="888" pan="0"/>
          <note len="12" key="52" vol="100" pos="900" pan="0"/>
          <note len="12" key="50" vol="100" pos="912" pan="0"/>
          <note len="12" key="52" vol="100" pos="924" pan="0"/>
          <note len="12" key="55" vol="100" pos="936" pan="0"/>
          <note len="12" key="57" vol="100" pos="948" pan="0"/>
          <note len="12" key="62" vol="100" pos="960" pan="0"/>
          <note len="12" key="0" vol="100" pos="960" pan="0"/>
          <note len="12" key="59" vol="100" pos="972" pan="0"/>
          <note len="12" key="57" vol="100" pos="984" pan="0"/>
          <note len="12" key="59" vol="100" pos="996" pan="0"/>
          <note len="12" key="62" vol="100" pos="1008" pan="0"/>
          <note len="12" key="59" vol="100" pos="1020" pan="0"/>
          <note len="12" key="62" vol="100" pos="1032" pan="0"/>
          <note len="12" key="64" vol="100" pos="1044" pan="0"/>
          <note len="12" key="67" vol="100" pos="1056" pan="0"/>
          <note len="12" key="64" vol="100" pos="1068" pan="0"/>
          <note len="12" key="67" vol="100" pos="1080" pan="0"/>
          <note len="12" key="69" vol="100" pos="1092" pan="0"/>
          <note len="12" key="71" vol="100" pos="1104" pan="0"/>
          <note len="12" key="69" vol="100" pos="1116" pan="0"/>
          <note len="12" key="71" vol="100" pos="1128" pan="0"/>
          <note len="12" key="74" vol="100" pos="1140" pan="0"/>
          <note len="24" key="72" vol="100" pos="1152" pan="0"/>
          <note len="12" key="0" vol="100" pos="1152" pan="0"/>
          <note len="24" key="74" vol="100" pos="1176" pan="0"/>
          <note len="24" key="76" vol="100" pos="1200" pan="0"/>
          <note len="24" key="74" vol="100" pos="1224" pan="0"/>
          <note len="24" key="79" vol="100" pos="1248" pan="0"/>
          <note len="24" key="78" vol="100" pos="1272" pan="0"/>
          <note len="24" key="76" vol="100" pos="1296" pan="0"/>
          <note len="24" key="74" vol="100" pos="1320" pan="0"/>
          <note len="48" key="76" vol="100" pos="1344" pan="0"/>
          <note len="48" key="79" vol="100" pos="1392" pan="0"/>
          <note len="96" key="83" vol="100" pos="1440" pan="0"/>
        </pattern>
        <pattern muted="0" name="" pos="2304" type="1" steps="16">
          <note len="24" key="0" vol="100" pos="0" pan="0"/>
          <note len="24" key="1" vol="100" pos="24" pan="0"/>
          <note len="24" key="0" vol="100" pos="72" pan="0"/>
          <note len="24" key="1" vol="100" pos="96" pan="0"/>
          <note len="12" key="0" vol="100" pos="144" pan="0"/>
          <note len="12" key="1" vol="100" pos="168" pan="0"/>
          <note len="12" key="0" vol="100" pos="192" pan="0"/>
          <note len="12" key="1" vol="100" pos="216" pan="0"/>
          <note len="12" key="0" vol="100" pos="264" pan="0"/>
          <note len="12" key="1" vol="100" pos="288" pan="0"/>
          <note len="12" key="0" vol="100" pos="336" pan="0"/>
          <note len="12" key="1" vol="100" pos="360" pan="0"/>
          <note len="12" key="67" vol="100" pos="384" pan="0"/>
          <note len="12" key="0" vol="100" pos="384" pan="0"/>
          <note len="12" key="66" vol="100" pos="396" pan="0"/>
          <note len="12" key="62" vol="100" pos="408" pan="0"/>
          <note len="12" key="1" vol="100" pos="408" pan="0"/>
          <note len="12" key="62" vol="100" pos="420" pan="0"/>
          <note len="12" key="62" vol="100" pos="432" pan="0"/>
          <note len="12" key="62" vol="100" pos="444" pan="0"/>
          <note len="12" key="66" vol="100" pos="456" pan="0"/>
          <note len="12" key="0" vol="100" pos="456" pan="0"/>
          <note len="12" key="62" vol="100" pos="468" pan="0"/>
          <note len="12" key="62" vol="100" pos="480" pan="0"/>
          <note len="12" key="1" vol="100" pos="480" pan="0"/>
          <note len="12" key="62" vol="100" pos="492" pan="0"/>
          <note len="12" key="62" vol="100" pos="504" pan="0"/>
          <note len="12" key="62" vol="100" pos="516" pan="0"/>
          <note len="12" key="67" vol="100" pos="528" pan="0"/>
          <note len="12" key="0" vol="100" pos="528" pan="0"/>
          <note len="12" key="66" vol="100" pos="540" pan="0"/>
          <note len="12" key="62" vol="100" pos="552" pan="0"/>
          <note len="12" key="1" vol="100" pos="552" pan="0"/>
          <note len="12" key="62" vol="100" pos="564" pan="0"/>
          <note len="12" key="67" vol="100" pos="576" pan="0"/>
          <note len="12" key="67" vol="100" pos="588" pan="0"/>
          <note len="12" key="64" vol="100" pos="600" pan="0"/>
          <note len="12" key="64" vol="100" pos="612" pan="0"/>
          <note len="12" key="60" vol="100" pos="624" pan="0"/>
          <note len="12" key="60" vol="100" pos="636" pan="0"/>
          <note len="12" key="64" vol="100" pos="648" pan="0"/>
          <note len="12" key="64" vol="100" pos="660" pan="0"/>
          <note len="12" key="67" vol="100" pos="672" pan="0"/>
          <note len="12" key="0" vol="100" pos="672" pan="0"/>
          <note len="12" key="66" vol="100" pos="684" pan="0"/>
          <note len="12" key="67" vol="100" pos="696" pan="0"/>
          <note len="12" key="69" vol="100" pos="708" pan="0"/>
          <note len="12" key="71" vol="100" pos="720" pan="0"/>
          <note len="12" key="67" vol="100" pos="732" pan="0"/>
          <note len="12" key="69" vol="100" pos="744" pan="0"/>
          <note len="12" key="71" vol="100" pos="756" pan="0"/>
        </pattern>
        <pattern muted="0" name="" pos="6144" type="1" steps="16">
          <note len="12" key="71" vol="100" pos="0" pan="0"/>
          <note len="12" key="1" vol="100" pos="0" pan="0"/>
          <note len="12" key="71" vol="100" pos="12" pan="0"/>
          <note len="12" key="71" vol="100" pos="24" pan="0"/>
          <note len="12" key="71" vol="100" pos="36" pan="0"/>
          <note len="48" key="76" vol="100" pos="48" pan="0"/>
          <note len="12" key="0" vol="100" pos="48" pan="0"/>
          <note len="48" key="74" vol="100" pos="96" pan="0"/>
          <note len="48" key="71" vol="100" pos="144" pan="0"/>
          <note len="48" key="74" vol="100" pos="192" pan="0"/>
          <note len="24" key="76" vol="100" pos="240" pan="0"/>
          <note len="48" key="74" vol="100" pos="264" pan="0"/>
          <note len="24" key="71" vol="100" pos="312" pan="0"/>
          <note len="48" key="71" vol="100" pos="336" pan="0"/>
          <note len="12" key="71" vol="100" pos="384" pan="0"/>
          <note len="12" key="1" vol="100" pos="384" pan="0"/>
          <note len="12" key="71" vol="100" pos="396" pan="0"/>
          <note len="12" key="71" vol="100" pos="408" pan="0"/>
          <note len="12" key="71" vol="100" pos="420" pan="0"/>
          <note len="48" key="76" vol="100" pos="432" pan="0"/>
          <note len="12" key="0" vol="100" pos="432" pan="0"/>
          <note len="48" key="74" vol="100" pos="480" pan="0"/>
          <note len="48" key="71" vol="100" pos="528" pan="0"/>
          <note len="48" key="78" vol="100" pos="576" pan="0"/>
          <note len="24" key="79" vol="100" pos="624" pan="0"/>
          <note len="48" key="76" vol="100" pos="648" pan="0"/>
          <note len="24" key="79" vol="100" pos="696" pan="0"/>
          <note len="24" key="83" vol="100" pos="720" pan="0"/>
          <note len="24" key="79" vol="100" pos="744" pan="0"/>
          <note len="12" key="64" vol="100" pos="768" pan="0"/>
          <note len="24" key="1" vol="100" pos="768" pan="0"/>
          <note len="12" key="64" vol="100" pos="780" pan="0"/>
          <note len="12" key="64" vol="100" pos="792" pan="0"/>
          <note len="12" key="64" vol="100" pos="804" pan="0"/>
          <note len="48" key="67" vol="100" pos="816" pan="0"/>
          <note len="24" key="0" vol="100" pos="816" pan="0"/>
          <note len="48" key="69" vol="100" pos="864" pan="0"/>
          <note len="48" key="71" vol="100" pos="912" pan="0"/>
          <note len="24" key="74" vol="100" pos="960" pan="0"/>
          <note len="24" key="71" vol="100" pos="984" pan="0"/>
          <note len="24" key="74" vol="100" pos="1008" pan="0"/>
          <note len="48" key="76" vol="100" pos="1032" pan="0"/>
          <note len="24" key="74" vol="100" pos="1080" pan="0"/>
          <note len="24" key="74" vol="100" pos="1104" pan="0"/>
          <note len="24" key="76" vol="100" pos="1128" pan="0"/>
          <note len="12" key="86" vol="100" pos="1152" pan="0"/>
          <note len="12" key="0" vol="100" pos="1152" pan="0"/>
          <note len="12" key="83" vol="100" pos="1164" pan="0"/>
          <note len="12" key="1" vol="100" pos="1164" pan="0"/>
          <note len="12" key="84" vol="100" pos="1176" pan="0"/>
          <note len="12" key="86" vol="100" pos="1188" pan="0"/>
          <note len="12" key="90" vol="100" pos="1200" pan="0"/>
          <note len="12" key="86" vol="100" pos="1212" pan="0"/>
          <note len="12" key="84" vol="100" pos="1224" pan="0"/>
          <note len="12" key="86" vol="100" pos="1236" pan="0"/>
          <note len="12" key="84" vol="100" pos="1248" pan="0"/>
          <note len="12" key="83" vol="100" pos="1260" pan="0"/>
          <note len="12" key="81" vol="100" pos="1272" pan="0"/>
          <note len="12" key="83" vol="100" pos="1284" pan="0"/>
          <note len="12" key="81" vol="100" pos="1296" pan="0"/>
          <note len="12" key="79" vol="100" pos="1308" pan="0"/>
          <note len="12" key="78" vol="100" pos="1320" pan="0"/>
          <note len="12" key="79" vol="100" pos="1332" pan="0"/>
          <note len="12" key="83" vol="100" pos="1344" pan="0"/>
          <note len="12" key="1" vol="100" pos="1344" pan="0"/>
          <note len="12" key="83" vol="100" pos="1356" pan="0"/>
          <note len="12" key="79" vol="100" pos="1368" pan="0"/>
          <note len="12" key="79" vol="100" pos="1380" pan="0"/>
          <note len="12" key="86" vol="100" pos="1392" pan="0"/>
          <note len="12" key="86" vol="100" pos="1404" pan="0"/>
          <note len="12" key="79" vol="100" pos="1416" pan="0"/>
          <note len="12" key="79" vol="100" pos="1428" pan="0"/>
          <note len="12" key="83" vol="100" pos="1440" pan="0"/>
          <note len="12" key="83" vol="100" pos="1452" pan="0"/>
          <note len="12" key="71" vol="100" pos="1464" pan="0"/>
          <note len="12" key="71" vol="100" pos="1476" pan="0"/>
          <note len="12" key="83" vol="100" pos="1488" pan="0"/>
          <note len="12" key="81" vol="100" pos="1500" pan="0"/>
          <note len="12" key="79" vol="100" pos="1512" pan="0"/>
          <note len="12" key="78" vol="100" pos="1524" pan="0"/>
        </pattern>
        <pattern muted="0" name="" pos="7680" type="1" steps="16">
          <note len="96" key="60" vol="100" pos="0" pan="0"/>
          <note len="72" key="0" vol="100" pos="0" pan="0"/>
          <note len="48" key="62" vol="100" pos="96" pan="0"/>
          <note len="48" key="64" vol="100" pos="144" pan="0"/>
          <note len="48" key="67" vol="100" pos="192" pan="0"/>
          <note len="12" key="59" vol="100" pos="240" pan="0"/>
          <note len="12" key="1" vol="100" pos="240" pan="0"/>
          <note len="12" key="59" vol="100" pos="252" pan="0"/>
          <note len="12" key="59" vol="100" pos="264" pan="0"/>
          <note len="12" key="59" vol="100" pos="276" pan="0"/>
          <note len="12" key="62" vol="100" pos="288" pan="0"/>
          <note len="12" key="62" vol="100" pos="300" pan="0"/>
          <note len="12" key="62" vol="100" pos="312" pan="0"/>
          <note len="12" key="62" vol="100" pos="324" pan="0"/>
          <note len="12" key="67" vol="100" pos="336" pan="0"/>
          <note len="12" key="67" vol="100" pos="348" pan="0"/>
          <note len="12" key="67" vol="100" pos="360" pan="0"/>
          <note len="12" key="67" vol="100" pos="372" pan="0"/>
          <note len="72" key="62" vol="100" pos="384" pan="0"/>
          <note len="12" key="0" vol="100" pos="384" pan="0"/>
          <note len="72" key="69" vol="100" pos="456" pan="0"/>
          <note len="48" key="71" vol="100" pos="528" pan="0"/>
          <note len="144" key="67" vol="100" pos="576" pan="0"/>
          <note len="24" key="78" vol="100" pos="720" pan="0"/>
          <note len="24" key="1" vol="100" pos="720" pan="0"/>
          <note len="24" key="79" vol="100" pos="744" pan="0"/>
        </pattern>
        <pattern muted="0" name="" pos="8448" type="1" steps="16">
          <note len="12" key="79" vol="100" pos="0" pan="0"/>
          <note len="12" key="1" vol="100" pos="0" pan="0"/>
          <note len="12" key="79" vol="100" pos="12" pan="0"/>
          <note len="12" key="76" vol="100" pos="24" pan="0"/>
          <note len="12" key="76" vol="100" pos="36" pan="0"/>
          <note len="12" key="72" vol="100" pos="48" pan="0"/>
          <note len="12" key="72" vol="100" pos="60" pan="0"/>
          <note len="12" key="76" vol="100" pos="72" pan="0"/>
          <note len="12" key="76" vol="100" pos="84" pan="0"/>
          <note len="12" key="72" vol="100" pos="96" pan="0"/>
          <note len="12" key="72" vol="100" pos="108" pan="0"/>
          <note len="12" key="67" vol="100" pos="120" pan="0"/>
          <note len="12" key="67" vol="100" pos="132" pan="0"/>
          <note len="12" key="72" vol="100" pos="144" pan="0"/>
          <note len="12" key="72" vol="100" pos="156" pan="0"/>
          <note len="12" key="76" vol="100" pos="168" pan="0"/>
          <note len="12" key="76" vol="100" pos="180" pan="0"/>
          <note len="12" key="81" vol="100" pos="192" pan="0"/>
          <note len="12" key="0" vol="100" pos="192" pan="0"/>
          <note len="12" key="79" vol="100" pos="204" pan="0"/>
          <note len="12" key="78" vol="100" pos="216" pan="0"/>
          <note len="12" key="1" vol="100" pos="216" pan="0"/>
          <note len="12" key="76" vol="100" pos="228" pan="0"/>
          <note len="12" key="79" vol="100" pos="240" pan="0"/>
          <note len="12" key="0" vol="100" pos="240" pan="0"/>
          <note len="12" key="78" vol="100" pos="252" pan="0"/>
          <note len="12" key="76" vol="100" pos="264" pan="0"/>
          <note len="12" key="1" vol="100" pos="264" pan="0"/>
          <note len="12" key="74" vol="100" pos="276" pan="0"/>
          <note len="12" key="72" vol="100" pos="288" pan="0"/>
          <note len="12" key="0" vol="100" pos="288" pan="0"/>
          <note len="12" key="74" vol="100" pos="300" pan="0"/>
          <note len="12" key="76" vol="100" pos="312" pan="0"/>
          <note len="12" key="1" vol="100" pos="312" pan="0"/>
          <note len="12" key="78" vol="100" pos="324" pan="0"/>
          <note len="12" key="74" vol="100" pos="336" pan="0"/>
          <note len="12" key="0" vol="100" pos="336" pan="0"/>
          <note len="12" key="76" vol="100" pos="348" pan="0"/>
          <note len="12" key="78" vol="100" pos="360" pan="0"/>
          <note len="12" key="1" vol="100" pos="360" pan="0"/>
          <note len="12" key="79" vol="100" pos="372" pan="0"/>
          <note len="12" key="81" vol="100" pos="384" pan="0"/>
          <note len="12" key="2" vol="100" pos="384" pan="0"/>
          <note len="12" key="74" vol="100" pos="396" pan="0"/>
          <note len="12" key="81" vol="100" pos="408" pan="0"/>
          <note len="12" key="74" vol="100" pos="420" pan="0"/>
          <note len="12" key="78" vol="100" pos="432" pan="0"/>
          <note len="12" key="69" vol="100" pos="444" pan="0"/>
          <note len="12" key="78" vol="100" pos="456" pan="0"/>
          <note len="12" key="69" vol="100" pos="468" pan="0"/>
          <note len="12" key="74" vol="100" pos="480" pan="0"/>
          <note len="12" key="66" vol="100" pos="492" pan="0"/>
          <note len="12" key="74" vol="100" pos="504" pan="0"/>
          <note len="12" key="66" vol="100" pos="516" pan="0"/>
          <note len="12" key="78" vol="100" pos="528" pan="0"/>
          <note len="12" key="69" vol="100" pos="540" pan="0"/>
          <note len="12" key="78" vol="100" pos="552" pan="0"/>
          <note len="12" key="69" vol="100" pos="564" pan="0"/>
          <note len="24" key="86" vol="100" pos="576" pan="0"/>
          <note len="12" key="0" vol="100" pos="576" pan="0"/>
          <note len="48" key="62" vol="100" pos="672" pan="0"/>
          <note len="48" key="66" vol="100" pos="720" pan="0"/>
        </pattern>
        <pattern muted="0" name="" pos="9216" type="1" steps="16">
          <note len="144" key="67" vol="100" pos="0" pan="0"/>
          <note len="48" key="69" vol="100" pos="144" pan="0"/>
          <note len="48" key="67" vol="100" pos="192" pan="0"/>
          <note len="48" key="66" vol="100" pos="240" pan="0"/>
          <note len="48" key="62" vol="100" pos="288" pan="0"/>
          <note len="48" key="67" vol="100" pos="336" pan="0"/>
          <note len="72" key="66" vol="100" pos="384" pan="0"/>
          <note len="72" key="69" vol="100" pos="456" pan="0"/>
          <note len="48" key="74" vol="100" pos="528" pan="0"/>
          <note len="48" key="76" vol="100" pos="576" pan="0"/>
          <note len="48" key="74" vol="100" pos="624" pan="0"/>
          <note len="48" key="71" vol="100" pos="672" pan="0"/>
          <note len="48" key="69" vol="100" pos="720" pan="0"/>
          <note len="144" key="79" vol="100" pos="768" pan="0"/>
          <note len="24" key="81" vol="100" pos="912" pan="0"/>
          <note len="24" key="79" vol="100" pos="936" pan="0"/>
          <note len="72" key="78" vol="100" pos="960" pan="0"/>
          <note len="72" key="76" vol="100" pos="1032" pan="0"/>
          <note len="48" key="74" vol="100" pos="1104" pan="0"/>
          <note len="96" key="76" vol="100" pos="1152" pan="0"/>
          <note len="48" key="78" vol="100" pos="1248" pan="0"/>
          <note len="48" key="79" vol="100" pos="1296" pan="0"/>
          <note len="48" key="78" vol="100" pos="1344" pan="0"/>
          <note len="12" key="74" vol="100" pos="1392" pan="0"/>
          <note len="12" key="74" vol="100" pos="1404" pan="0"/>
          <note len="12" key="74" vol="100" pos="1416" pan="0"/>
          <note len="12" key="74" vol="100" pos="1428" pan="0"/>
          <note len="12" key="76" vol="100" pos="1440" pan="0"/>
          <note len="12" key="76" vol="100" pos="1452" pan="0"/>
          <note len="12" key="76" vol="100" pos="1464" pan="0"/>
          <note len="12" key="76" vol="100" pos="1476" pan="0"/>
          <note len="12" key="78" vol="100" pos="1488" pan="0"/>
          <note len="12" key="78" vol="100" pos="1500" pan="0"/>
          <note len="12" key="78" vol="100" pos="1512" pan="0"/>
          <note len="12" key="78" vol="100" pos="1524" pan="0"/>
        </pattern>
        <pattern muted="0" name="" pos="10752" type="1" steps="16">
          <note len="144" key="71" vol="100" pos="0" pan="0"/>
          <note len="12" key="0" vol="100" pos="0" pan="0"/>
          <note len="48" key="72" vol="100" pos="144" pan="0"/>
          <note len="48" key="71" vol="100" pos="192" pan="0"/>
          <note len="48" key="69" vol="100" pos="240" pan="0"/>
          <note len="48" key="67" vol="100" pos="288" pan="0"/>
          <note len="48" key="71" vol="100" pos="336" pan="0"/>
          <note len="72" key="69" vol="100" pos="384" pan="0"/>
          <note len="72" key="74" vol="100" pos="456" pan="0"/>
          <note len="48" key="78" vol="100" pos="528" pan="0"/>
          <note len="48" key="79" vol="100" pos="576" pan="0"/>
          <note len="48" key="78" vol="100" pos="624" pan="0"/>
          <note len="48" key="76" vol="100" pos="672" pan="0"/>
          <note len="48" key="74" vol="100" pos="720" pan="0"/>
          <note len="144" key="83" vol="100" pos="768" pan="0"/>
          <note len="24" key="84" vol="100" pos="912" pan="0"/>
          <note len="24" key="83" vol="100" pos="936" pan="0"/>
          <note len="72" key="81" vol="100" pos="960" pan="0"/>
          <note len="72" key="79" vol="100" pos="1032" pan="0"/>
          <note len="48" key="78" vol="100" pos="1104" pan="0"/>
          <note len="96" key="79" vol="100" pos="1152" pan="0"/>
          <note len="48" key="81" vol="100" pos="1248" pan="0"/>
          <note len="48" key="83" vol="100" pos="1296" pan="0"/>
          <note len="48" key="81" vol="100" pos="1344" pan="0"/>
          <note len="12" key="78" vol="100" pos="1392" pan="0"/>
          <note len="12" key="76" vol="100" pos="1404" pan="0"/>
          <note len="12" key="74" vol="100" pos="1416" pan="0"/>
          <note len="12" key="76" vol="100" pos="1428" pan="0"/>
          <note len="12" key="79" vol="100" pos="1440" pan="0"/>
          <note len="12" key="78" vol="100" pos="1452" pan="0"/>
          <note len="12" key="76" vol="100" pos="1464" pan="0"/>
          <note len="12" key="78" vol="100" pos="1476" pan="0"/>
          <note len="12" key="81" vol="100" pos="1488" pan="0"/>
          <note len="12" key="79" vol="100" pos="1500" pan="0"/>
          <note len="12" key="78" vol="100" pos="1512" pan="0"/>
          <note len="12" key="79" vol="100" pos="1524" pan="0"/>
        </pattern>
        <pattern muted="0" name="" pos="12480" type="1" steps="16">
          <note len="12" key="79" vol="100" pos="0" pan="0"/>
          <note len="12" key="0" vol="100" pos="0" pan="0"/>
          <note len="12" key="59" vol="100" pos="12" pan="0"/>
          <note len="12" key="2" vol="100" pos="12" pan="0"/>
          <note len="12" key="78" vol="100" pos="24" pan="0"/>
          <note len="12" key="0" vol="100" pos="24" pan="0"/>
          <note len="12" key="59" vol="100" pos="36" pan="0"/>
          <note len="12" key="2" vol="100" pos="36" pan="0"/>
          <note len="12" key="76" vol="100" pos="48" pan="0"/>
          <note len="12" key="0" vol="100" pos="48" pan="0"/>
          <note len="12" key="59" vol="100" pos="60" pan="0"/>
          <note len="12" key="2" vol="100" pos="60" pan="0"/>
          <note len="12" key="79" vol="100" pos="72" pan="0"/>
          <note len="12" key="0" vol="100" pos="72" pan="0"/>
          <note len="12" key="59" vol="100" pos="84" pan="0"/>
          <note len="12" key="2" vol="100" pos="84" pan="0"/>
          <note len="12" key="79" vol="100" pos="96" pan="0"/>
          <note len="12" key="0" vol="100" pos="96" pan="0"/>
          <note len="12" key="76" vol="100" pos="108" pan="0"/>
          <note len="12" key="74" vol="100" pos="120" pan="0"/>
          <note len="12" key="71" vol="100" pos="132" pan="0"/>
          <note len="12" key="74" vol="100" pos="144" pan="0"/>
          <note len="12" key="71" vol="100" pos="156" pan="0"/>
          <note len="12" key="69" vol="100" pos="168" pan="0"/>
          <note len="12" key="67" vol="100" pos="180" pan="0"/>
        </pattern>
        <pattern muted="0" name="" pos="12672" type="1" steps="16">
          <note len="24" key="83" vol="100" pos="0" pan="0"/>
          <note len="24" key="83" vol="100" pos="24" pan="0"/>
          <note len="24" key="74" vol="100" pos="48" pan="0"/>
          <note len="48" key="83" vol="100" pos="72" pan="0"/>
          <note len="24" key="74" vol="100" pos="120" pan="0"/>
          <note len="24" key="74" vol="100" pos="144" pan="0"/>
          <note len="48" key="79" vol="100" pos="168" pan="0"/>
          <note len="24" key="67" vol="100" pos="216" pan="0"/>
          <note len="24" key="69" vol="100" pos="240" pan="0"/>
          <note len="24" key="67" vol="100" pos="264" pan="0"/>
          <note len="24" key="62" vol="100" pos="288" pan="0"/>
          <note len="24" key="71" vol="100" pos="312" pan="0"/>
          <note len="12" key="74" vol="100" pos="336" pan="0"/>
          <note len="12" key="79" vol="100" pos="348" pan="0"/>
          <note len="12" key="78" vol="100" pos="360" pan="0"/>
          <note len="12" key="74" vol="100" pos="372" pan="0"/>
        </pattern>
        <pattern muted="0" name="" pos="13056" type="1" steps="16">
          <note len="12" key="71" vol="100" pos="96" pan="0"/>
          <note len="12" key="1" vol="100" pos="96" pan="0"/>
          <note len="12" key="71" vol="100" pos="108" pan="0"/>
          <note len="12" key="72" vol="100" pos="120" pan="0"/>
          <note len="12" key="72" vol="100" pos="132" pan="0"/>
          <note len="12" key="74" vol="100" pos="144" pan="0"/>
          <note len="12" key="74" vol="100" pos="156" pan="0"/>
          <note len="12" key="71" vol="100" pos="168" pan="0"/>
          <note len="12" key="71" vol="100" pos="180" pan="0"/>
        </pattern>
        <pattern muted="0" name="" pos="13248" type="1" steps="16">
          <note len="12" key="1" vol="100" pos="0" pan="0"/>
          <note len="12" key="76" vol="100" pos="96" pan="0"/>
          <note len="12" key="78" vol="100" pos="108" pan="0"/>
          <note len="12" key="79" vol="100" pos="120" pan="0"/>
          <note len="12" key="81" vol="100" pos="132" pan="0"/>
          <note len="12" key="79" vol="100" pos="144" pan="0"/>
          <note len="12" key="81" vol="100" pos="156" pan="0"/>
          <note len="12" key="83" vol="100" pos="168" pan="0"/>
          <note len="12" key="84" vol="100" pos="180" pan="0"/>
        </pattern>
        <pattern muted="0" name="" pos="13440" type="1" steps="16">
          <note len="12" key="81" vol="100" pos="0" pan="0"/>
          <note len="12" key="1" vol="100" pos="0" pan="0"/>
          <note len="12" key="81" vol="100" pos="12" pan="0"/>
          <note len="12" key="79" vol="100" pos="24" pan="0"/>
          <note len="12" key="79" vol="100" pos="36" pan="0"/>
          <note len="12" key="76" vol="100" pos="48" pan="0"/>
          <note len="12" key="76" vol="100" pos="60" pan="0"/>
          <note len="12" key="74" vol="100" pos="72" pan="0"/>
          <note len="12" key="74" vol="100" pos="84" pan="0"/>
          <note len="12" key="79" vol="100" pos="96" pan="0"/>
          <note len="12" key="76" vol="100" pos="108" pan="0"/>
          <note len="12" key="74" vol="100" pos="120" pan="0"/>
          <note len="12" key="71" vol="100" pos="132" pan="0"/>
          <note len="12" key="76" vol="100" pos="144" pan="0"/>
          <note len="12" key="74" vol="100" pos="156" pan="0"/>
          <note len="12" key="71" vol="100" pos="168" pan="0"/>
          <note len="12" key="69" vol="100" pos="180" pan="0"/>
          <note len="12" key="74" vol="100" pos="192" pan="0"/>
          <note len="12" key="2" vol="100" pos="192" pan="0"/>
          <note len="12" key="69" vol="100" pos="204" pan="0"/>
          <note len="12" key="74" vol="100" pos="216" pan="0"/>
          <note len="12" key="69" vol="100" pos="228" pan="0"/>
          <note len="12" key="76" vol="100" pos="240" pan="0"/>
          <note len="12" key="69" vol="100" pos="252" pan="0"/>
          <note len="12" key="76" vol="100" pos="264" pan="0"/>
          <note len="12" key="69" vol="100" pos="276" pan="0"/>
          <note len="12" key="78" vol="100" pos="288" pan="0"/>
          <note len="12" key="69" vol="100" pos="300" pan="0"/>
          <note len="12" key="78" vol="100" pos="312" pan="0"/>
          <note len="12" key="69" vol="100" pos="324" pan="0"/>
          <note len="48" key="79" vol="100" pos="336" pan="0"/>
        </pattern>
        <pattern muted="0" name="" pos="15360" type="1" steps="16">
          <note len="12" key="71" vol="100" pos="0" pan="0"/>
          <note len="12" key="1" vol="100" pos="0" pan="0"/>
          <note len="12" key="71" vol="100" pos="12" pan="0"/>
          <note len="12" key="71" vol="100" pos="24" pan="0"/>
          <note len="12" key="71" vol="100" pos="36" pan="0"/>
          <note len="48" key="76" vol="100" pos="48" pan="0"/>
          <note len="12" key="0" vol="100" pos="48" pan="0"/>
          <note len="48" key="74" vol="100" pos="96" pan="0"/>
          <note len="48" key="71" vol="100" pos="144" pan="0"/>
          <note len="48" key="74" vol="100" pos="192" pan="0"/>
          <note len="24" key="76" vol="100" pos="240" pan="0"/>
          <note len="48" key="74" vol="100" pos="264" pan="0"/>
          <note len="24" key="71" vol="100" pos="312" pan="0"/>
          <note len="48" key="71" vol="100" pos="336" pan="0"/>
          <note len="12" key="71" vol="100" pos="384" pan="0"/>
          <note len="12" key="1" vol="100" pos="384" pan="0"/>
          <note len="12" key="71" vol="100" pos="396" pan="0"/>
          <note len="12" key="71" vol="100" pos="408" pan="0"/>
          <note len="12" key="71" vol="100" pos="420" pan="0"/>
          <note len="48" key="76" vol="100" pos="432" pan="0"/>
          <note len="12" key="0" vol="100" pos="432" pan="0"/>
          <note len="48" key="74" vol="100" pos="480" pan="0"/>
          <note len="48" key="71" vol="100" pos="528" pan="0"/>
          <note len="48" key="78" vol="100" pos="576" pan="0"/>
          <note len="24" key="79" vol="100" pos="624" pan="0"/>
          <note len="48" key="76" vol="100" pos="648" pan="0"/>
          <note len="24" key="79" vol="100" pos="696" pan="0"/>
          <note len="24" key="83" vol="100" pos="720" pan="0"/>
          <note len="24" key="79" vol="100" pos="744" pan="0"/>
          <note len="12" key="64" vol="100" pos="768" pan="0"/>
          <note len="24" key="1" vol="100" pos="768" pan="0"/>
          <note len="12" key="64" vol="100" pos="780" pan="0"/>
          <note len="12" key="64" vol="100" pos="792" pan="0"/>
          <note len="12" key="64" vol="100" pos="804" pan="0"/>
          <note len="48" key="67" vol="100" pos="816" pan="0"/>
          <note len="24" key="0" vol="100" pos="816" pan="0"/>
          <note len="48" key="69" vol="100" pos="864" pan="0"/>
          <note len="48" key="71" vol="100" pos="912" pan="0"/>
          <note len="24" key="74" vol="100" pos="960" pan="0"/>
          <note len="24" key="71" vol="100" pos="984" pan="0"/>
          <note len="24" key="74" vol="100" pos="1008" pan="0"/>
          <note len="48" key="76" vol="100" pos="1032" pan="0"/>
          <note len="24" key="74" vol="100" pos="1080" pan="0"/>
          <note len="24" key="74" vol="100" pos="1104" pan="0"/>
          <note len="24" key="76" vol="100" pos="1128" pan="0"/>
          <note len="12" key="86" vol="100" pos="1152" pan="0"/>
          <note len="12" key="0" vol="100" pos="1152" pan="0"/>
          <note len="12" key="83" vol="100" pos="1164" pan="0"/>
          <note len="12" key="1" vol="100" pos="1164" pan="0"/>
          <note len="12" key="84" vol="100" pos="1176" pan="0"/>
          <note len="12" key="86" vol="100" pos="1188" pan="0"/>
          <note len="12" key="90" vol="100" pos="1200" pan="0"/>
          <note len="12" key="86" vol="100" pos="1212" pan="0"/>
          <note len="12" key="84" vol="100" pos="1224" pan="0"/>
          <note len="12" key="86" vol="100" pos="1236" pan="0"/>
          <note len="12" key="84" vol="100" pos="1248" pan="0"/>
          <note len="12" key="83" vol="100" pos="1260" pan="0"/>
          <note len="12" key="81" vol="100" pos="1272" pan="0"/>
          <note len="12" key="83" vol="100" pos="1284" pan="0"/>
          <note len="12" key="81" vol="100" pos="1296" pan="0"/>
          <note len="12" key="79" vol="100" pos="1308" pan="0"/>
          <note len="12" key="78" vol="100" pos="1320" pan="0"/>
          <note len="12" key="79" vol="100" pos="1332" pan="0"/>
          <note len="12" key="74" vol="100" pos="1344" pan="0"/>
          <note len="12" key="1" vol="100" pos="1344" pan="0"/>
          <note len="12" key="69" vol="100" pos="1356" pan="0"/>
          <note len="12" key="66" vol="100" pos="1368" pan="0"/>
          <note len="12" key="62" vol="100" pos="1380" pan="0"/>
          <note len="12" key="66" vol="100" pos="1392" pan="0"/>
          <note len="12" key="69" vol="100" pos="1404" pan="0"/>
          <note len="12" key="78" vol="100" pos="1416" pan="0"/>
          <note len="12" key="74" vol="100" pos="1428" pan="0"/>
          <note len="12" key="69" vol="100" pos="1440" pan="0"/>
          <note len="12" key="66" vol="100" pos="1452" pan="0"/>
          <note len="12" key="69" vol="100" pos="1464" pan="0"/>
          <note len="12" key="74" vol="100" pos="1476" pan="0"/>
          <note len="12" key="81" vol="100" pos="1488" pan="0"/>
          <note len="12" key="78" vol="100" pos="1500" pan="0"/>
          <note len="12" key="81" vol="100" pos="1512" pan="0"/>
          <note len="12" key="78" vol="100" pos="1524" pan="0"/>
        </pattern>
        <pattern muted="0" name="" pos="16896" type="1" steps="16">
          <note len="96" key="60" vol="100" pos="0" pan="0"/>
          <note len="72" key="0" vol="100" pos="0" pan="0"/>
          <note len="24" key="62" vol="100" pos="96" pan="0"/>
          <note len="24" key="60" vol="100" pos="120" pan="0"/>
          <note len="24" key="64" vol="100" pos="144" pan="0"/>
          <note len="24" key="60" vol="100" pos="168" pan="0"/>
          <note len="48" key="67" vol="100" pos="192" pan="0"/>
          <note len="12" key="59" vol="100" pos="240" pan="0"/>
          <note len="12" key="1" vol="100" pos="240" pan="0"/>
          <note len="12" key="59" vol="100" pos="252" pan="0"/>
          <note len="12" key="59" vol="100" pos="264" pan="0"/>
          <note len="12" key="59" vol="100" pos="276" pan="0"/>
          <note len="12" key="64" vol="100" pos="288" pan="0"/>
          <note len="12" key="64" vol="100" pos="300" pan="0"/>
          <note len="12" key="64" vol="100" pos="312" pan="0"/>
          <note len="12" key="64" vol="100" pos="324" pan="0"/>
          <note len="12" key="67" vol="100" pos="336" pan="0"/>
          <note len="12" key="67" vol="100" pos="348" pan="0"/>
          <note len="12" key="67" vol="100" pos="360" pan="0"/>
          <note len="12" key="67" vol="100" pos="372" pan="0"/>
          <note len="24" key="69" vol="100" pos="384" pan="0"/>
          <note len="12" key="0" vol="100" pos="384" pan="0"/>
          <note len="12" key="1" vol="100" pos="396" pan="0"/>
          <note len="12" key="69" vol="100" pos="408" pan="0"/>
          <note len="12" key="69" vol="100" pos="420" pan="0"/>
          <note len="12" key="69" vol="100" pos="432" pan="0"/>
          <note len="12" key="69" vol="100" pos="444" pan="0"/>
          <note len="24" key="78" vol="100" pos="456" pan="0"/>
          <note len="12" key="0" vol="100" pos="456" pan="0"/>
          <note len="24" key="79" vol="100" pos="480" pan="0"/>
          <note len="24" key="78" vol="100" pos="504" pan="0"/>
          <note len="24" key="76" vol="100" pos="528" pan="0"/>
          <note len="24" key="74" vol="100" pos="552" pan="0"/>
          <note len="12" key="67" vol="100" pos="576" pan="0"/>
          <note len="12" key="67" vol="100" pos="588" pan="0"/>
          <note len="12" key="59" vol="100" pos="600" pan="0"/>
          <note len="12" key="59" vol="100" pos="612" pan="0"/>
          <note len="12" key="66" vol="100" pos="624" pan="0"/>
          <note len="12" key="66" vol="100" pos="636" pan="0"/>
          <note len="12" key="62" vol="100" pos="648" pan="0"/>
          <note len="12" key="62" vol="100" pos="660" pan="0"/>
          <note len="12" key="64" vol="100" pos="672" pan="0"/>
          <note len="12" key="64" vol="100" pos="684" pan="0"/>
          <note len="12" key="62" vol="100" pos="696" pan="0"/>
          <note len="12" key="62" vol="100" pos="708" pan="0"/>
          <note len="12" key="59" vol="100" pos="720" pan="0"/>
          <note len="12" key="59" vol="100" pos="732" pan="0"/>
          <note len="12" key="62" vol="100" pos="744" pan="0"/>
          <note len="12" key="62" vol="100" pos="756" pan="0"/>
        </pattern>
        <pattern muted="0" name="" pos="17664" type="1" steps="16">
          <note len="12" key="60" vol="100" pos="0" pan="0"/>
          <note len="12" key="1" vol="100" pos="0" pan="0"/>
          <note len="12" key="64" vol="100" pos="12" pan="0"/>
          <note len="12" key="62" vol="100" pos="24" pan="0"/>
          <note len="12" key="64" vol="100" pos="36" pan="0"/>
          <note len="12" key="60" vol="100" pos="48" pan="0"/>
          <note len="12" key="64" vol="100" pos="60" pan="0"/>
          <note len="12" key="62" vol="100" pos="72" pan="0"/>
          <note len="12" key="64" vol="100" pos="84" pan="0"/>
          <note len="12" key="60" vol="100" pos="96" pan="0"/>
          <note len="12" key="62" vol="100" pos="108" pan="0"/>
          <note len="12" key="64" vol="100" pos="120" pan="0"/>
          <note len="12" key="66" vol="100" pos="132" pan="0"/>
          <note len="12" key="67" vol="100" pos="144" pan="0"/>
          <note len="12" key="66" vol="100" pos="156" pan="0"/>
          <note len="12" key="64" vol="100" pos="168" pan="0"/>
          <note len="12" key="62" vol="100" pos="180" pan="0"/>
          <note len="12" key="74" vol="100" pos="192" pan="0"/>
          <note len="12" key="79" vol="100" pos="204" pan="0"/>
          <note len="12" key="78" vol="100" pos="216" pan="0"/>
          <note len="12" key="79" vol="100" pos="228" pan="0"/>
          <note len="12" key="74" vol="100" pos="240" pan="0"/>
          <note len="12" key="79" vol="100" pos="252" pan="0"/>
          <note len="12" key="78" vol="100" pos="264" pan="0"/>
          <note len="12" key="79" vol="100" pos="276" pan="0"/>
          <note len="12" key="74" vol="100" pos="288" pan="0"/>
          <note len="12" key="78" vol="100" pos="300" pan="0"/>
          <note len="12" key="79" vol="100" pos="312" pan="0"/>
          <note len="12" key="81" vol="100" pos="324" pan="0"/>
          <note len="12" key="0" vol="100" pos="324" pan="0"/>
          <note len="12" key="83" vol="100" pos="336" pan="0"/>
          <note len="12" key="81" vol="100" pos="348" pan="0"/>
          <note len="12" key="79" vol="100" pos="360" pan="0"/>
          <note len="12" key="1" vol="100" pos="360" pan="0"/>
          <note len="12" key="78" vol="100" pos="372" pan="0"/>
          <note len="12" key="67" vol="100" pos="384" pan="0"/>
          <note len="12" key="66" vol="100" pos="396" pan="0"/>
          <note len="12" key="67" vol="100" pos="408" pan="0"/>
          <note len="12" key="69" vol="100" pos="420" pan="0"/>
          <note len="12" key="71" vol="100" pos="432" pan="0"/>
          <note len="12" key="69" vol="100" pos="444" pan="0"/>
          <note len="12" key="71" vol="100" pos="456" pan="0"/>
          <note len="12" key="72" vol="100" pos="468" pan="0"/>
          <note len="12" key="74" vol="100" pos="480" pan="0"/>
          <note len="12" key="72" vol="100" pos="492" pan="0"/>
          <note len="12" key="74" vol="100" pos="504" pan="0"/>
          <note len="12" key="76" vol="100" pos="516" pan="0"/>
          <note len="12" key="78" vol="100" pos="528" pan="0"/>
          <note len="12" key="76" vol="100" pos="540" pan="0"/>
          <note len="12" key="78" vol="100" pos="552" pan="0"/>
          <note len="12" key="79" vol="100" pos="564" pan="0"/>
          <note len="12" key="83" vol="100" pos="576" pan="0"/>
          <note len="36" key="0" vol="100" pos="576" pan="0"/>
          <note len="12" key="81" vol="100" pos="588" pan="0"/>
          <note len="12" key="79" vol="100" pos="600" pan="0"/>
          <note len="12" key="78" vol="100" pos="612" pan="0"/>
          <note len="12" key="81" vol="100" pos="624" pan="0"/>
          <note len="12" key="79" vol="100" pos="636" pan="0"/>
          <note len="12" key="76" vol="100" pos="636" pan="0"/>
          <note len="12" key="78" vol="100" pos="648" pan="0"/>
          <note len="12" key="76" vol="100" pos="660" pan="0"/>
          <note len="12" key="78" vol="100" pos="672" pan="0"/>
          <note len="12" key="76" vol="100" pos="684" pan="0"/>
          <note len="12" key="74" vol="100" pos="696" pan="0"/>
          <note len="12" key="72" vol="100" pos="708" pan="0"/>
          <note len="12" key="74" vol="100" pos="720" pan="0"/>
          <note len="12" key="76" vol="100" pos="732" pan="0"/>
          <note len="12" key="78" vol="100" pos="744" pan="0"/>
          <note len="12" key="79" vol="100" pos="756" pan="0"/>
        </pattern>
        <pattern muted="0" name="" pos="18432" type="1" steps="16">
          <note len="144" key="67" vol="100" pos="0" pan="0"/>
          <note len="12" key="0" vol="100" pos="0" pan="0"/>
          <note len="48" key="69" vol="100" pos="144" pan="0"/>
          <note len="48" key="67" vol="100" pos="192" pan="0"/>
          <note len="48" key="66" vol="100" pos="240" pan="0"/>
          <note len="48" key="62" vol="100" pos="288" pan="0"/>
          <note len="48" key="67" vol="100" pos="336" pan="0"/>
          <note len="72" key="66" vol="100" pos="384" pan="0"/>
          <note len="72" key="69" vol="100" pos="456" pan="0"/>
          <note len="48" key="74" vol="100" pos="528" pan="0"/>
          <note len="48" key="76" vol="100" pos="576" pan="0"/>
          <note len="48" key="74" vol="100" pos="624" pan="0"/>
          <note len="48" key="71" vol="100" pos="672" pan="0"/>
          <note len="48" key="69" vol="100" pos="720" pan="0"/>
          <note len="144" key="79" vol="100" pos="768" pan="0"/>
          <note len="24" key="81" vol="100" pos="912" pan="0"/>
          <note len="24" key="79" vol="100" pos="936" pan="0"/>
          <note len="72" key="78" vol="100" pos="960" pan="0"/>
          <note len="72" key="76" vol="100" pos="1032" pan="0"/>
          <note len="48" key="74" vol="100" pos="1104" pan="0"/>
          <note len="96" key="76" vol="100" pos="1152" pan="0"/>
          <note len="48" key="78" vol="100" pos="1248" pan="0"/>
          <note len="48" key="79" vol="100" pos="1296" pan="0"/>
          <note len="48" key="78" vol="100" pos="1344" pan="0"/>
          <note len="12" key="74" vol="100" pos="1392" pan="0"/>
          <note len="12" key="74" vol="100" pos="1404" pan="0"/>
          <note len="12" key="74" vol="100" pos="1416" pan="0"/>
          <note len="12" key="74" vol="100" pos="1428" pan="0"/>
          <note len="12" key="76" vol="100" pos="1440" pan="0"/>
          <note len="12" key="76" vol="100" pos="1452" pan="0"/>
          <note len="12" key="76" vol="100" pos="1464" pan="0"/>
          <note len="12" key="76" vol="100" pos="1476" pan="0"/>
          <note len="12" key="78" vol="100" pos="1488" pan="0"/>
          <note len="12" key="78" vol="100" pos="1500" pan="0"/>
          <note len="12" key="78" vol="100" pos="1512" pan="0"/>
          <note len="12" key="78" vol="100" pos="1524" pan="0"/>
        </pattern>
        <pattern muted="0" name="" pos="19968" type="1" steps="16">
          <note len="144" key="71" vol="100" pos="0" pan="0"/>
          <note len="12" key="0" vol="100" pos="0" pan="0"/>
          <note len="48" key="72" vol="100" pos="144" pan="0"/>
          <note len="48" key="71" vol="100" pos="192" pan="0"/>
          <note len="48" key="69" vol="100" pos="240" pan="0"/>
          <note len="48" key="67" vol="100" pos="288" pan="0"/>
          <note len="48" key="71" vol="100" pos="336" pan="0"/>
          <note len="72" key="69" vol="100" pos="384" pan="0"/>
          <note len="72" key="74" vol="100" pos="456" pan="0"/>
          <note len="48" key="78" vol="100" pos="528" pan="0"/>
          <note len="48" key="79" vol="100" pos="576" pan="0"/>
          <note len="48" key="78" vol="100" pos="624" pan="0"/>
          <note len="48" key="76" vol="100" pos="672" pan="0"/>
          <note len="48" key="74" vol="100" pos="720" pan="0"/>
          <note len="144" key="83" vol="100" pos="768" pan="0"/>
          <note len="24" key="84" vol="100" pos="912" pan="0"/>
          <note len="24" key="83" vol="100" pos="936" pan="0"/>
          <note len="72" key="81" vol="100" pos="960" pan="0"/>
          <note len="72" key="79" vol="100" pos="1032" pan="0"/>
          <note len="48" key="78" vol="100" pos="1104" pan="0"/>
          <note len="96" key="79" vol="100" pos="1152" pan="0"/>
          <note len="48" key="81" vol="100" pos="1248" pan="0"/>
          <note len="48" key="83" vol="100" pos="1296" pan="0"/>
          <note len="48" key="81" vol="100" pos="1344" pan="0"/>
          <note len="12" key="78" vol="100" pos="1392" pan="0"/>
          <note len="12" key="76" vol="100" pos="1404" pan="0"/>
          <note len="12" key="74" vol="100" pos="1416" pan="0"/>
          <note len="12" key="76" vol="100" pos="1428" pan="0"/>
          <note len="12" key="79" vol="100" pos="1440" pan="0"/>
          <note len="12" key="78" vol="100" pos="1452" pan="0"/>
          <note len="12" key="76" vol="100" pos="1464" pan="0"/>
          <note len="12" key="78" vol="100" pos="1476" pan="0"/>
          <note len="12" key="81" vol="100" pos="1488" pan="0"/>
          <note len="12" key="79" vol="100" pos="1500" pan="0"/>
          <note len="12" key="78" vol="100" pos="1512" pan="0"/>
          <note len="12" key="79" vol="100" pos="1524" pan="0"/>
        </pattern>
        <pattern muted="0" name="" pos="23808" type="1" steps="16">
          <note len="24" key="71" vol="197" pos="0" pan="0"/>
          <note len="24" key="1" vol="197" pos="0" pan="0"/>
          <note len="24" key="71" vol="197" pos="24" pan="0"/>
          <note len="24" key="79" vol="197" pos="48" pan="0"/>
          <note len="24" key="0" vol="197" pos="48" pan="0"/>
          <note len="24" key="71" vol="197" pos="72" pan="0"/>
          <note len="24" key="1" vol="197" pos="72" pan="0"/>
          <note len="24" key="78" vol="197" pos="96" pan="0"/>
          <note len="24" key="0" vol="197" pos="96" pan="0"/>
          <note len="24" key="71" vol="197" pos="120" pan="0"/>
          <note len="24" key="1" vol="197" pos="120" pan="0"/>
          <note len="24" key="83" vol="197" pos="144" pan="0"/>
          <note len="24" key="0" vol="197" pos="144" pan="0"/>
          <note len="24" key="71" vol="197" pos="168" pan="0"/>
          <note len="24" key="1" vol="197" pos="168" pan="0"/>
          <note len="24" key="78" vol="197" pos="192" pan="0"/>
          <note len="24" key="0" vol="197" pos="192" pan="0"/>
          <note len="24" key="71" vol="197" pos="216" pan="0"/>
          <note len="24" key="1" vol="197" pos="216" pan="0"/>
          <note len="24" key="76" vol="197" pos="240" pan="0"/>
          <note len="24" key="0" vol="197" pos="240" pan="0"/>
          <note len="24" key="71" vol="197" pos="264" pan="0"/>
          <note len="24" key="1" vol="197" pos="264" pan="0"/>
          <note len="24" key="79" vol="197" pos="288" pan="0"/>
          <note len="24" key="0" vol="197" pos="288" pan="0"/>
          <note len="24" key="78" vol="197" pos="312" pan="0"/>
          <note len="24" key="76" vol="197" pos="336" pan="0"/>
          <note len="24" key="78" vol="197" pos="360" pan="0"/>
        </pattern>
        <pattern muted="0" name="" pos="24192" type="1" steps="16">
          <note len="24" key="76" vol="100" pos="0" pan="0"/>
          <note len="24" key="0" vol="100" pos="0" pan="0"/>
          <note len="24" key="72" vol="100" pos="24" pan="0"/>
          <note len="24" key="67" vol="100" pos="48" pan="0"/>
          <note len="24" key="72" vol="100" pos="72" pan="0"/>
          <note len="24" key="76" vol="100" pos="96" pan="0"/>
          <note len="24" key="72" vol="100" pos="120" pan="0"/>
          <note len="24" key="76" vol="100" pos="144" pan="0"/>
          <note len="24" key="79" vol="100" pos="168" pan="0"/>
          <note len="24" key="83" vol="100" pos="192" pan="0"/>
          <note len="24" key="1" vol="100" pos="192" pan="0"/>
          <note len="24" key="83" vol="100" pos="216" pan="0"/>
          <note len="24" key="79" vol="100" pos="240" pan="0"/>
          <note len="24" key="76" vol="100" pos="264" pan="0"/>
          <note len="24" key="79" vol="100" pos="288" pan="0"/>
          <note len="24" key="76" vol="100" pos="312" pan="0"/>
          <note len="24" key="74" vol="100" pos="336" pan="0"/>
          <note len="24" key="76" vol="100" pos="360" pan="0"/>
        </pattern>
        <pattern muted="0" name="" pos="24576" type="1" steps="16">
          <note len="24" key="59" vol="197" pos="0" pan="0"/>
          <note len="24" key="1" vol="197" pos="0" pan="0"/>
          <note len="24" key="59" vol="197" pos="24" pan="0"/>
          <note len="24" key="67" vol="197" pos="48" pan="0"/>
          <note len="24" key="0" vol="197" pos="48" pan="0"/>
          <note len="24" key="59" vol="197" pos="72" pan="0"/>
          <note len="24" key="1" vol="197" pos="72" pan="0"/>
          <note len="24" key="66" vol="197" pos="96" pan="0"/>
          <note len="24" key="0" vol="197" pos="96" pan="0"/>
          <note len="24" key="59" vol="197" pos="120" pan="0"/>
          <note len="24" key="1" vol="197" pos="120" pan="0"/>
          <note len="24" key="71" vol="197" pos="144" pan="0"/>
          <note len="24" key="0" vol="197" pos="144" pan="0"/>
          <note len="24" key="59" vol="197" pos="168" pan="0"/>
          <note len="24" key="1" vol="197" pos="168" pan="0"/>
          <note len="24" key="66" vol="197" pos="192" pan="0"/>
          <note len="24" key="0" vol="197" pos="192" pan="0"/>
          <note len="24" key="59" vol="197" pos="216" pan="0"/>
          <note len="24" key="1" vol="197" pos="216" pan="0"/>
          <note len="24" key="64" vol="197" pos="240" pan="0"/>
          <note len="24" key="0" vol="197" pos="240" pan="0"/>
          <note len="24" key="59" vol="197" pos="264" pan="0"/>
          <note len="24" key="1" vol="197" pos="264" pan="0"/>
          <note len="24" key="67" vol="197" pos="288" pan="0"/>
          <note len="24" key="0" vol="197" pos="288" pan="0"/>
          <note len="24" key="66" vol="197" pos="312" pan="0"/>
          <note len="24" key="64" vol="197" pos="336" pan="0"/>
          <note len="24" key="66" vol="197" pos="360" pan="0"/>
        </pattern>
        <pattern muted="0" name="" pos="24960" type="1" steps="16">
          <note len="24" key="71" vol="197" pos="0" pan="0"/>
          <note len="24" key="1" vol="197" pos="0" pan="0"/>
          <note len="24" key="71" vol="197" pos="24" pan="0"/>
          <note len="24" key="79" vol="197" pos="48" pan="0"/>
          <note len="24" key="0" vol="197" pos="48" pan="0"/>
          <note len="24" key="71" vol="197" pos="72" pan="0"/>
          <note len="24" key="1" vol="197" pos="72" pan="0"/>
          <note len="24" key="78" vol="197" pos="96" pan="0"/>
          <note len="24" key="0" vol="197" pos="96" pan="0"/>
          <note len="24" key="71" vol="197" pos="120" pan="0"/>
          <note len="24" key="1" vol="197" pos="120" pan="0"/>
          <note len="24" key="83" vol="197" pos="144" pan="0"/>
          <note len="24" key="0" vol="197" pos="144" pan="0"/>
          <note len="24" key="71" vol="197" pos="168" pan="0"/>
          <note len="24" key="1" vol="197" pos="168" pan="0"/>
          <note len="24" key="78" vol="197" pos="192" pan="0"/>
          <note len="24" key="0" vol="197" pos="192" pan="0"/>
          <note len="24" key="71" vol="197" pos="216" pan="0"/>
          <note len="24" key="1" vol="197" pos="216" pan="0"/>
          <note len="24" key="76" vol="197" pos="240" pan="0"/>
          <note len="24" key="0" vol="197" pos="240" pan="0"/>
          <note len="24" key="71" vol="197" pos="264" pan="0"/>
          <note len="24" key="1" vol="197" pos="264" pan="0"/>
          <note len="12" key="83" vol="197" pos="288" pan="0"/>
          <note len="12" key="0" vol="197" pos="288" pan="0"/>
          <note len="12" key="81" vol="197" pos="300" pan="0"/>
          <note len="12" key="1" vol="197" pos="300" pan="0"/>
          <note len="12" key="83" vol="197" pos="312" pan="0"/>
          <note len="12" key="86" vol="197" pos="324" pan="0"/>
          <note len="12" key="88" vol="197" pos="336" pan="0"/>
          <note len="12" key="0" vol="197" pos="336" pan="0"/>
          <note len="12" key="86" vol="197" pos="348" pan="0"/>
          <note len="12" key="1" vol="197" pos="348" pan="0"/>
          <note len="12" key="83" vol="197" pos="360" pan="0"/>
          <note len="12" key="86" vol="197" pos="372" pan="0"/>
        </pattern>
        <pattern muted="0" name="" pos="25344" type="1" steps="16">
          <note len="24" key="59" vol="197" pos="0" pan="0"/>
          <note len="24" key="0" vol="197" pos="0" pan="0"/>
          <note len="24" key="59" vol="197" pos="24" pan="0"/>
          <note len="24" key="67" vol="197" pos="48" pan="0"/>
          <note len="24" key="59" vol="197" pos="72" pan="0"/>
          <note len="24" key="71" vol="197" pos="96" pan="0"/>
          <note len="24" key="59" vol="197" pos="120" pan="0"/>
          <note len="24" key="67" vol="197" pos="144" pan="0"/>
          <note len="24" key="59" vol="197" pos="168" pan="0"/>
          <note len="24" key="76" vol="197" pos="192" pan="0"/>
          <note len="24" key="59" vol="197" pos="216" pan="0"/>
          <note len="24" key="74" vol="197" pos="240" pan="0"/>
          <note len="24" key="59" vol="197" pos="264" pan="0"/>
          <note len="24" key="79" vol="197" pos="288" pan="0"/>
          <note len="24" key="78" vol="197" pos="312" pan="0"/>
          <note len="24" key="76" vol="197" pos="336" pan="0"/>
          <note len="24" key="79" vol="197" pos="360" pan="0"/>
        </pattern>
        <pattern muted="0" name="" pos="25728" type="1" steps="16">
          <note len="12" key="79" vol="197" pos="0" pan="0"/>
          <note len="12" key="0" vol="197" pos="0" pan="0"/>
          <note len="12" key="76" vol="197" pos="12" pan="0"/>
          <note len="12" key="1" vol="197" pos="12" pan="0"/>
          <note len="12" key="72" vol="197" pos="24" pan="0"/>
          <note len="12" key="67" vol="197" pos="36" pan="0"/>
          <note len="12" key="64" vol="197" pos="48" pan="0"/>
          <note len="12" key="67" vol="197" pos="60" pan="0"/>
          <note len="12" key="76" vol="197" pos="72" pan="0"/>
          <note len="12" key="0" vol="197" pos="72" pan="0"/>
          <note len="12" key="72" vol="197" pos="84" pan="0"/>
          <note len="12" key="1" vol="197" pos="84" pan="0"/>
          <note len="12" key="67" vol="197" pos="96" pan="0"/>
          <note len="12" key="64" vol="197" pos="108" pan="0"/>
          <note len="12" key="67" vol="197" pos="120" pan="0"/>
          <note len="12" key="72" vol="197" pos="132" pan="0"/>
          <note len="12" key="79" vol="197" pos="144" pan="0"/>
          <note len="12" key="0" vol="197" pos="144" pan="0"/>
          <note len="12" key="76" vol="197" pos="156" pan="0"/>
          <note len="12" key="1" vol="197" pos="156" pan="0"/>
          <note len="12" key="72" vol="197" pos="168" pan="0"/>
          <note len="12" key="67" vol="197" pos="180" pan="0"/>
          <note len="12" key="64" vol="197" pos="192" pan="0"/>
          <note len="12" key="0" vol="197" pos="192" pan="0"/>
          <note len="12" key="60" vol="197" pos="204" pan="0"/>
          <note len="12" key="62" vol="197" pos="216" pan="0"/>
          <note len="12" key="64" vol="197" pos="228" pan="0"/>
          <note len="12" key="66" vol="197" pos="240" pan="0"/>
          <note len="12" key="62" vol="197" pos="252" pan="0"/>
          <note len="12" key="64" vol="197" pos="264" pan="0"/>
          <note len="12" key="66" vol="197" pos="276" pan="0"/>
          <note len="12" key="67" vol="197" pos="288" pan="0"/>
          <note len="12" key="64" vol="197" pos="300" pan="0"/>
          <note len="12" key="66" vol="197" pos="312" pan="0"/>
          <note len="12" key="67" vol="197" pos="324" pan="0"/>
          <note len="12" key="69" vol="197" pos="336" pan="0"/>
          <note len="12" key="66" vol="197" pos="348" pan="0"/>
          <note len="12" key="67" vol="197" pos="360" pan="0"/>
          <note len="12" key="69" vol="197" pos="372" pan="0"/>
        </pattern>
        <pattern muted="0" name="" pos="26880" type="1" steps="16">
          <note len="12" key="79" vol="100" pos="0" pan="0"/>
          <note len="12" key="59" vol="100" pos="12" pan="0"/>
          <note len="12" key="59" vol="100" pos="24" pan="0"/>
          <note len="12" key="59" vol="100" pos="36" pan="0"/>
          <note len="12" key="78" vol="100" pos="48" pan="0"/>
          <note len="12" key="59" vol="100" pos="60" pan="0"/>
          <note len="12" key="79" vol="100" pos="72" pan="0"/>
          <note len="12" key="59" vol="100" pos="84" pan="0"/>
          <note len="12" key="59" vol="100" pos="96" pan="0"/>
          <note len="12" key="59" vol="100" pos="108" pan="0"/>
          <note len="12" key="78" vol="100" pos="120" pan="0"/>
          <note len="12" key="59" vol="100" pos="132" pan="0"/>
          <note len="12" key="79" vol="100" pos="144" pan="0"/>
          <note len="12" key="59" vol="100" pos="156" pan="0"/>
          <note len="12" key="78" vol="100" pos="168" pan="0"/>
          <note len="12" key="59" vol="100" pos="180" pan="0"/>
          <note len="12" key="83" vol="100" pos="192" pan="0"/>
          <note len="12" key="59" vol="100" pos="204" pan="0"/>
          <note len="12" key="59" vol="100" pos="216" pan="0"/>
          <note len="12" key="59" vol="100" pos="228" pan="0"/>
          <note len="12" key="78" vol="100" pos="240" pan="0"/>
          <note len="12" key="59" vol="100" pos="252" pan="0"/>
          <note len="12" key="79" vol="100" pos="264" pan="0"/>
          <note len="12" key="59" vol="100" pos="276" pan="0"/>
          <note len="12" key="59" vol="100" pos="288" pan="0"/>
          <note len="12" key="59" vol="100" pos="300" pan="0"/>
          <note len="12" key="74" vol="100" pos="312" pan="0"/>
          <note len="12" key="59" vol="100" pos="324" pan="0"/>
          <note len="12" key="76" vol="100" pos="336" pan="0"/>
          <note len="12" key="59" vol="100" pos="348" pan="0"/>
          <note len="12" key="71" vol="100" pos="360" pan="0"/>
          <note len="12" key="59" vol="100" pos="372" pan="0"/>
        </pattern>
        <pattern muted="0" name="" pos="27264" type="1" steps="16">
          <note len="48" key="60" vol="100" pos="0" pan="0"/>
          <note len="12" key="0" vol="100" pos="0" pan="0"/>
          <note len="24" key="64" vol="100" pos="48" pan="0"/>
          <note len="48" key="62" vol="100" pos="72" pan="0"/>
          <note len="24" key="64" vol="100" pos="120" pan="0"/>
          <note len="24" key="66" vol="100" pos="144" pan="0"/>
          <note len="24" key="67" vol="100" pos="168" pan="0"/>
          <note len="12" key="81" vol="100" pos="192" pan="0"/>
          <note len="12" key="2" vol="100" pos="192" pan="0"/>
          <note len="12" key="74" vol="100" pos="204" pan="0"/>
          <note len="12" key="78" vol="100" pos="216" pan="0"/>
          <note len="12" key="69" vol="100" pos="228" pan="0"/>
          <note len="12" key="74" vol="100" pos="240" pan="0"/>
          <note len="12" key="69" vol="100" pos="252" pan="0"/>
          <note len="12" key="78" vol="100" pos="264" pan="0"/>
          <note len="12" key="74" vol="100" pos="276" pan="0"/>
          <note len="12" key="81" vol="100" pos="288" pan="0"/>
          <note len="12" key="74" vol="100" pos="300" pan="0"/>
          <note len="12" key="78" vol="100" pos="312" pan="0"/>
          <note len="12" key="74" vol="100" pos="324" pan="0"/>
          <note len="12" key="81" vol="100" pos="336" pan="0"/>
          <note len="12" key="74" vol="100" pos="348" pan="0"/>
          <note len="12" key="86" vol="100" pos="360" pan="0"/>
          <note len="12" key="74" vol="100" pos="372" pan="0"/>
        </pattern>
        <pattern muted="0" name="" pos="27648" type="1" steps="16">
          <note len="24" key="0" vol="199" pos="0" pan="0"/>
          <note len="12" key="1" vol="199" pos="24" pan="0"/>
          <note len="12" key="71" vol="199" pos="96" pan="0"/>
          <note len="12" key="0" vol="199" pos="96" pan="0"/>
          <note len="12" key="69" vol="199" pos="108" pan="0"/>
          <note len="12" key="67" vol="199" pos="120" pan="0"/>
          <note len="12" key="1" vol="199" pos="120" pan="0"/>
          <note len="12" key="64" vol="199" pos="132" pan="0"/>
          <note len="12" key="59" vol="199" pos="144" pan="0"/>
          <note len="12" key="55" vol="199" pos="156" pan="0"/>
          <note len="12" key="59" vol="199" pos="168" pan="0"/>
          <note len="12" key="64" vol="199" pos="180" pan="0"/>
          <note len="12" key="79" vol="199" pos="192" pan="0"/>
          <note len="12" key="0" vol="199" pos="192" pan="0"/>
          <note len="12" key="76" vol="199" pos="204" pan="0"/>
          <note len="12" key="74" vol="199" pos="216" pan="0"/>
          <note len="12" key="71" vol="199" pos="228" pan="0"/>
          <note len="12" key="74" vol="199" pos="240" pan="0"/>
          <note len="12" key="76" vol="199" pos="252" pan="0"/>
          <note len="12" key="79" vol="199" pos="264" pan="0"/>
          <note len="12" key="81" vol="199" pos="276" pan="0"/>
          <note len="12" key="83" vol="199" pos="288" pan="0"/>
          <note len="12" key="81" vol="199" pos="300" pan="0"/>
          <note len="12" key="79" vol="199" pos="312" pan="0"/>
          <note len="12" key="76" vol="199" pos="324" pan="0"/>
          <note len="12" key="81" vol="199" pos="336" pan="0"/>
          <note len="12" key="79" vol="199" pos="348" pan="0"/>
          <note len="12" key="76" vol="199" pos="360" pan="0"/>
          <note len="12" key="79" vol="199" pos="372" pan="0"/>
        </pattern>
        <pattern muted="0" name="" pos="28032" type="1" steps="16">
          <note len="12" key="83" vol="199" pos="0" pan="0"/>
          <note len="24" key="0" vol="199" pos="0" pan="0"/>
          <note len="12" key="81" vol="199" pos="12" pan="0"/>
          <note len="12" key="79" vol="199" pos="24" pan="0"/>
          <note len="12" key="1" vol="199" pos="24" pan="0"/>
          <note len="12" key="76" vol="199" pos="36" pan="0"/>
          <note len="12" key="76" vol="199" pos="48" pan="0"/>
          <note len="12" key="71" vol="199" pos="60" pan="0"/>
          <note len="12" key="67" vol="199" pos="72" pan="0"/>
          <note len="12" key="71" vol="199" pos="84" pan="0"/>
          <note len="12" key="83" vol="199" pos="96" pan="0"/>
          <note len="12" key="0" vol="199" pos="96" pan="0"/>
          <note len="12" key="81" vol="199" pos="108" pan="0"/>
          <note len="12" key="79" vol="199" pos="120" pan="0"/>
          <note len="12" key="1" vol="199" pos="120" pan="0"/>
          <note len="12" key="76" vol="199" pos="132" pan="0"/>
          <note len="12" key="76" vol="199" pos="144" pan="0"/>
          <note len="12" key="71" vol="199" pos="156" pan="0"/>
          <note len="12" key="67" vol="199" pos="168" pan="0"/>
          <note len="12" key="71" vol="199" pos="180" pan="0"/>
          <note len="24" key="83" vol="199" pos="192" pan="0"/>
          <note len="12" key="0" vol="199" pos="192" pan="0"/>
          <note len="24" key="81" vol="199" pos="216" pan="0"/>
          <note len="48" key="79" vol="199" pos="264" pan="0"/>
          <note len="24" key="78" vol="199" pos="312" pan="0"/>
          <note len="24" key="76" vol="199" pos="336" pan="0"/>
          <note len="24" key="79" vol="199" pos="360" pan="0"/>
        </pattern>
        <pattern muted="0" name="" pos="28416" type="1" steps="16">
          <note len="24" key="0" vol="199" pos="0" pan="0"/>
          <note len="12" key="1" vol="199" pos="24" pan="0"/>
          <note len="12" key="71" vol="199" pos="96" pan="0"/>
          <note len="12" key="0" vol="199" pos="96" pan="0"/>
          <note len="12" key="69" vol="199" pos="108" pan="0"/>
          <note len="12" key="67" vol="199" pos="120" pan="0"/>
          <note len="12" key="1" vol="199" pos="120" pan="0"/>
          <note len="12" key="64" vol="199" pos="132" pan="0"/>
          <note len="12" key="59" vol="199" pos="144" pan="0"/>
          <note len="12" key="55" vol="199" pos="156" pan="0"/>
          <note len="12" key="59" vol="199" pos="168" pan="0"/>
          <note len="12" key="64" vol="199" pos="180" pan="0"/>
          <note len="12" key="79" vol="199" pos="192" pan="0"/>
          <note len="12" key="0" vol="199" pos="192" pan="0"/>
          <note len="12" key="76" vol="199" pos="204" pan="0"/>
          <note len="12" key="74" vol="199" pos="216" pan="0"/>
          <note len="12" key="71" vol="199" pos="228" pan="0"/>
          <note len="12" key="74" vol="199" pos="240" pan="0"/>
          <note len="12" key="76" vol="199" pos="252" pan="0"/>
          <note len="12" key="79" vol="199" pos="264" pan="0"/>
          <note len="12" key="81" vol="199" pos="276" pan="0"/>
          <note len="12" key="83" vol="199" pos="288" pan="0"/>
          <note len="12" key="83" vol="199" pos="300" pan="0"/>
          <note len="12" key="79" vol="199" pos="312" pan="0"/>
          <note len="12" key="79" vol="199" pos="324" pan="0"/>
          <note len="12" key="78" vol="199" pos="336" pan="0"/>
          <note len="12" key="78" vol="199" pos="348" pan="0"/>
          <note len="12" key="81" vol="199" pos="360" pan="0"/>
          <note len="12" key="81" vol="199" pos="372" pan="0"/>
        </pattern>
        <pattern muted="0" name="" pos="28800" type="1" steps="16">
          <note len="12" key="55" vol="199" pos="0" pan="0"/>
          <note len="12" key="1" vol="199" pos="0" pan="0"/>
          <note len="12" key="59" vol="199" pos="12" pan="0"/>
          <note len="12" key="57" vol="199" pos="24" pan="0"/>
          <note len="12" key="59" vol="199" pos="36" pan="0"/>
          <note len="12" key="62" vol="199" pos="48" pan="0"/>
          <note len="12" key="59" vol="199" pos="60" pan="0"/>
          <note len="12" key="57" vol="199" pos="72" pan="0"/>
          <note len="12" key="59" vol="199" pos="84" pan="0"/>
          <note len="12" key="64" vol="199" pos="96" pan="0"/>
          <note len="12" key="0" vol="199" pos="96" pan="0"/>
          <note len="12" key="62" vol="199" pos="108" pan="0"/>
          <note len="12" key="59" vol="199" pos="120" pan="0"/>
          <note len="12" key="1" vol="199" pos="120" pan="0"/>
          <note len="12" key="64" vol="199" pos="132" pan="0"/>
          <note len="12" key="62" vol="199" pos="144" pan="0"/>
          <note len="12" key="0" vol="199" pos="144" pan="0"/>
          <note len="12" key="59" vol="199" pos="156" pan="0"/>
          <note len="12" key="57" vol="199" pos="168" pan="0"/>
          <note len="12" key="1" vol="199" pos="168" pan="0"/>
          <note len="12" key="59" vol="199" pos="180" pan="0"/>
          <note len="12" key="57" vol="199" pos="192" pan="0"/>
          <note len="12" key="62" vol="199" pos="204" pan="0"/>
          <note len="12" key="59" vol="199" pos="216" pan="0"/>
          <note len="12" key="62" vol="199" pos="228" pan="0"/>
          <note len="12" key="64" vol="199" pos="240" pan="0"/>
          <note len="12" key="62" vol="199" pos="252" pan="0"/>
          <note len="12" key="59" vol="199" pos="264" pan="0"/>
          <note len="12" key="62" vol="199" pos="276" pan="0"/>
          <note len="12" key="67" vol="199" pos="288" pan="0"/>
          <note len="12" key="0" vol="199" pos="288" pan="0"/>
          <note len="12" key="64" vol="199" pos="300" pan="0"/>
          <note len="12" key="62" vol="199" pos="312" pan="0"/>
          <note len="12" key="1" vol="199" pos="312" pan="0"/>
          <note len="12" key="67" vol="199" pos="324" pan="0"/>
          <note len="12" key="69" vol="199" pos="336" pan="0"/>
          <note len="12" key="2" vol="199" pos="336" pan="0"/>
          <note len="12" key="74" vol="199" pos="348" pan="0"/>
          <note len="12" key="78" vol="199" pos="360" pan="0"/>
          <note len="12" key="81" vol="199" pos="372" pan="0"/>
        </pattern>
        <pattern muted="0" name="" pos="29760" type="1" steps="16">
          <note len="24" key="79" vol="199" pos="0" pan="0"/>
          <note len="24" key="0" vol="199" pos="0" pan="0"/>
          <note len="24" key="83" vol="199" pos="24" pan="0"/>
          <note len="24" key="78" vol="199" pos="48" pan="0"/>
          <note len="24" key="83" vol="199" pos="72" pan="0"/>
          <note len="48" key="79" vol="199" pos="96" pan="0"/>
          <note len="24" key="78" vol="199" pos="144" pan="0"/>
          <note len="24" key="79" vol="199" pos="168" pan="0"/>
        </pattern>
        <pattern muted="0" name="" pos="29952" type="1" steps="16">
          <note len="12" key="79" vol="100" pos="0" pan="0"/>
          <note len="12" key="0" vol="100" pos="0" pan="0"/>
          <note len="12" key="76" vol="100" pos="12" pan="0"/>
          <note len="12" key="74" vol="100" pos="24" pan="0"/>
          <note len="12" key="76" vol="100" pos="36" pan="0"/>
          <note len="12" key="79" vol="100" pos="48" pan="0"/>
          <note len="12" key="76" vol="100" pos="60" pan="0"/>
          <note len="12" key="74" vol="100" pos="72" pan="0"/>
          <note len="12" key="76" vol="100" pos="84" pan="0"/>
          <note len="12" key="79" vol="100" pos="96" pan="0"/>
          <note len="12" key="76" vol="100" pos="108" pan="0"/>
          <note len="12" key="74" vol="100" pos="120" pan="0"/>
          <note len="12" key="76" vol="100" pos="132" pan="0"/>
          <note len="12" key="74" vol="100" pos="144" pan="0"/>
          <note len="12" key="72" vol="100" pos="156" pan="0"/>
          <note len="12" key="71" vol="100" pos="168" pan="0"/>
          <note len="12" key="72" vol="100" pos="180" pan="0"/>
          <note len="12" key="79" vol="100" pos="192" pan="0"/>
          <note len="12" key="76" vol="100" pos="204" pan="0"/>
          <note len="12" key="74" vol="100" pos="216" pan="0"/>
          <note len="12" key="76" vol="100" pos="228" pan="0"/>
          <note len="12" key="79" vol="100" pos="240" pan="0"/>
          <note len="12" key="76" vol="100" pos="252" pan="0"/>
          <note len="12" key="74" vol="100" pos="264" pan="0"/>
          <note len="12" key="76" vol="100" pos="276" pan="0"/>
          <note len="12" key="62" vol="100" pos="288" pan="0"/>
          <note len="12" key="64" vol="100" pos="300" pan="0"/>
          <note len="12" key="66" vol="100" pos="312" pan="0"/>
          <note len="12" key="67" vol="100" pos="324" pan="0"/>
          <note len="12" key="71" vol="100" pos="336" pan="0"/>
          <note len="12" key="67" vol="100" pos="348" pan="0"/>
          <note len="12" key="66" vol="100" pos="360" pan="0"/>
          <note len="12" key="67" vol="100" pos="372" pan="0"/>
        </pattern>
        <pattern muted="0" name="" pos="29184" type="1" steps="16">
          <note len="12" key="1" vol="199" pos="0" pan="0"/>
          <note len="24" key="0" vol="199" pos="168" pan="0"/>
          <note len="48" key="62" vol="199" pos="192" pan="0"/>
          <note len="12" key="57" vol="199" pos="240" pan="0"/>
          <note len="24" key="2" vol="199" pos="240" pan="0"/>
          <note len="12" key="62" vol="199" pos="252" pan="0"/>
          <note len="12" key="57" vol="199" pos="264" pan="0"/>
          <note len="12" key="62" vol="199" pos="276" pan="0"/>
          <note len="12" key="67" vol="199" pos="288" pan="0"/>
          <note len="12" key="59" vol="199" pos="300" pan="0"/>
          <note len="12" key="62" vol="199" pos="312" pan="0"/>
          <note len="12" key="59" vol="199" pos="324" pan="0"/>
          <note len="12" key="67" vol="199" pos="336" pan="0"/>
          <note len="12" key="62" vol="199" pos="348" pan="0"/>
          <note len="12" key="71" vol="199" pos="360" pan="0"/>
          <note len="12" key="62" vol="199" pos="372" pan="0"/>
          <note len="12" key="0" vol="199" pos="384" pan="0"/>
          <note len="12" key="1" vol="199" pos="504" pan="0"/>
          <note len="12" key="0" vol="199" pos="552" pan="0"/>
        </pattern>
        <pattern muted="0" name="" pos="30336" type="1" steps="16">
          <note len="6" key="69" vol="199" pos="0" pan="0"/>
          <note len="48" key="2" vol="199" pos="0" pan="0"/>
          <note len="6" key="62" vol="199" pos="6" pan="0"/>
          <note len="6" key="69" vol="199" pos="12" pan="0"/>
          <note len="6" key="62" vol="199" pos="18" pan="0"/>
          <note len="6" key="66" vol="199" pos="24" pan="0"/>
          <note len="6" key="57" vol="199" pos="30" pan="0"/>
          <note len="6" key="66" vol="199" pos="36" pan="0"/>
          <note len="6" key="57" vol="199" pos="42" pan="0"/>
          <note len="6" key="74" vol="199" pos="48" pan="0"/>
          <note len="6" key="66" vol="199" pos="54" pan="0"/>
          <note len="6" key="74" vol="199" pos="60" pan="0"/>
          <note len="6" key="66" vol="199" pos="66" pan="0"/>
          <note len="6" key="69" vol="199" pos="72" pan="0"/>
          <note len="6" key="62" vol="199" pos="78" pan="0"/>
          <note len="6" key="69" vol="199" pos="84" pan="0"/>
          <note len="6" key="62" vol="199" pos="90" pan="0"/>
          <note len="6" key="78" vol="199" pos="96" pan="0"/>
          <note len="6" key="69" vol="199" pos="102" pan="0"/>
          <note len="6" key="78" vol="199" pos="108" pan="0"/>
          <note len="6" key="69" vol="199" pos="114" pan="0"/>
          <note len="6" key="74" vol="199" pos="120" pan="0"/>
          <note len="6" key="66" vol="199" pos="126" pan="0"/>
          <note len="6" key="74" vol="199" pos="132" pan="0"/>
          <note len="6" key="66" vol="199" pos="138" pan="0"/>
          <note len="6" key="81" vol="199" pos="144" pan="0"/>
          <note len="6" key="74" vol="199" pos="150" pan="0"/>
          <note len="6" key="81" vol="199" pos="156" pan="0"/>
          <note len="6" key="74" vol="199" pos="162" pan="0"/>
          <note len="6" key="78" vol="199" pos="168" pan="0"/>
          <note len="6" key="69" vol="199" pos="174" pan="0"/>
          <note len="6" key="78" vol="199" pos="180" pan="0"/>
          <note len="6" key="69" vol="199" pos="186" pan="0"/>
          <note len="6" key="86" vol="199" pos="192" pan="0"/>
          <note len="6" key="78" vol="199" pos="198" pan="0"/>
          <note len="6" key="86" vol="199" pos="204" pan="0"/>
          <note len="6" key="78" vol="199" pos="210" pan="0"/>
          <note len="6" key="81" vol="199" pos="216" pan="0"/>
          <note len="6" key="74" vol="199" pos="222" pan="0"/>
          <note len="6" key="81" vol="199" pos="228" pan="0"/>
          <note len="6" key="74" vol="199" pos="234" pan="0"/>
          <note len="6" key="90" vol="199" pos="240" pan="0"/>
          <note len="6" key="81" vol="199" pos="246" pan="0"/>
          <note len="6" key="90" vol="199" pos="252" pan="0"/>
          <note len="6" key="81" vol="199" pos="258" pan="0"/>
          <note len="6" key="86" vol="199" pos="264" pan="0"/>
          <note len="6" key="78" vol="199" pos="270" pan="0"/>
          <note len="6" key="86" vol="199" pos="276" pan="0"/>
          <note len="6" key="78" vol="199" pos="282" pan="0"/>
          <note len="12" key="83" vol="199" pos="288" pan="0"/>
          <note len="12" key="0" vol="199" pos="288" pan="0"/>
          <note len="12" key="81" vol="199" pos="300" pan="0"/>
          <note len="12" key="79" vol="199" pos="312" pan="0"/>
          <note len="12" key="78" vol="199" pos="324" pan="0"/>
          <note len="12" key="81" vol="199" pos="336" pan="0"/>
          <note len="12" key="79" vol="199" pos="348" pan="0"/>
          <note len="12" key="78" vol="199" pos="360" pan="0"/>
          <note len="12" key="74" vol="199" pos="372" pan="0"/>
        </pattern>
        <pattern muted="0" name="" pos="30720" type="1" steps="16">
          <note len="144" key="67" vol="100" pos="0" pan="0"/>
          <note len="12" key="0" vol="100" pos="0" pan="0"/>
          <note len="48" key="69" vol="100" pos="144" pan="0"/>
          <note len="48" key="67" vol="100" pos="192" pan="0"/>
          <note len="48" key="66" vol="100" pos="240" pan="0"/>
          <note len="48" key="62" vol="100" pos="288" pan="0"/>
          <note len="48" key="67" vol="100" pos="336" pan="0"/>
          <note len="72" key="66" vol="100" pos="384" pan="0"/>
          <note len="72" key="69" vol="100" pos="456" pan="0"/>
          <note len="48" key="74" vol="100" pos="528" pan="0"/>
          <note len="48" key="76" vol="100" pos="576" pan="0"/>
          <note len="48" key="74" vol="100" pos="624" pan="0"/>
          <note len="48" key="71" vol="100" pos="672" pan="0"/>
          <note len="48" key="69" vol="100" pos="720" pan="0"/>
          <note len="144" key="79" vol="100" pos="768" pan="0"/>
          <note len="24" key="81" vol="100" pos="912" pan="0"/>
          <note len="24" key="79" vol="100" pos="936" pan="0"/>
          <note len="72" key="78" vol="100" pos="960" pan="0"/>
          <note len="72" key="76" vol="100" pos="1032" pan="0"/>
          <note len="48" key="74" vol="100" pos="1104" pan="0"/>
          <note len="96" key="76" vol="100" pos="1152" pan="0"/>
          <note len="48" key="78" vol="100" pos="1248" pan="0"/>
          <note len="48" key="79" vol="100" pos="1296" pan="0"/>
          <note len="48" key="78" vol="100" pos="1344" pan="0"/>
          <note len="12" key="74" vol="100" pos="1392" pan="0"/>
          <note len="12" key="74" vol="100" pos="1404" pan="0"/>
          <note len="12" key="74" vol="100" pos="1416" pan="0"/>
          <note len="12" key="74" vol="100" pos="1428" pan="0"/>
          <note len="12" key="76" vol="100" pos="1440" pan="0"/>
          <note len="12" key="76" vol="100" pos="1452" pan="0"/>
          <note len="12" key="76" vol="100" pos="1464" pan="0"/>
          <note len="12" key="76" vol="100" pos="1476" pan="0"/>
          <note len="12" key="78" vol="100" pos="1488" pan="0"/>
          <note len="12" key="78" vol="100" pos="1500" pan="0"/>
          <note len="12" key="78" vol="100" pos="1512" pan="0"/>
          <note len="12" key="78" vol="100" pos="1524" pan="0"/>
        </pattern>
        <pattern muted="0" name="" pos="32256" type="1" steps="16">
          <note len="144" key="71" vol="100" pos="0" pan="0"/>
          <note len="12" key="0" vol="100" pos="0" pan="0"/>
          <note len="48" key="72" vol="100" pos="144" pan="0"/>
          <note len="48" key="71" vol="100" pos="192" pan="0"/>
          <note len="48" key="69" vol="100" pos="240" pan="0"/>
          <note len="48" key="67" vol="100" pos="288" pan="0"/>
          <note len="48" key="71" vol="100" pos="336" pan="0"/>
          <note len="72" key="69" vol="100" pos="384" pan="0"/>
          <note len="72" key="74" vol="100" pos="456" pan="0"/>
          <note len="48" key="78" vol="100" pos="528" pan="0"/>
          <note len="48" key="79" vol="100" pos="576" pan="0"/>
          <note len="48" key="78" vol="100" pos="624" pan="0"/>
          <note len="48" key="76" vol="100" pos="672" pan="0"/>
          <note len="48" key="74" vol="100" pos="720" pan="0"/>
          <note len="144" key="83" vol="100" pos="768" pan="0"/>
          <note len="24" key="84" vol="100" pos="912" pan="0"/>
          <note len="24" key="83" vol="100" pos="936" pan="0"/>
          <note len="72" key="81" vol="100" pos="960" pan="0"/>
          <note len="72" key="79" vol="100" pos="1032" pan="0"/>
          <note len="48" key="78" vol="100" pos="1104" pan="0"/>
          <note len="96" key="79" vol="100" pos="1152" pan="0"/>
          <note len="48" key="81" vol="100" pos="1248" pan="0"/>
          <note len="48" key="83" vol="100" pos="1296" pan="0"/>
          <note len="48" key="81" vol="100" pos="1344" pan="0"/>
          <note len="12" key="78" vol="100" pos="1392" pan="0"/>
          <note len="12" key="76" vol="100" pos="1404" pan="0"/>
          <note len="12" key="74" vol="100" pos="1416" pan="0"/>
          <note len="12" key="76" vol="100" pos="1428" pan="0"/>
          <note len="12" key="79" vol="100" pos="1440" pan="0"/>
          <note len="12" key="78" vol="100" pos="1452" pan="0"/>
          <note len="12" key="76" vol="100" pos="1464" pan="0"/>
          <note len="12" key="78" vol="100" pos="1476" pan="0"/>
          <note len="12" key="81" vol="100" pos="1488" pan="0"/>
          <note len="12" key="79" vol="100" pos="1500" pan="0"/>
          <note len="12" key="78" vol="100" pos="1512" pan="0"/>
          <note len="12" key="79" vol="100" pos="1524" pan="0"/>
        </pattern>
        <pattern muted="0" name="" pos="3072" type="1" steps="16">
          <note len="12" key="76" vol="100" pos="0" pan="0"/>
          <note len="24" key="2" vol="100" pos="0" pan="0"/>
          <note len="12" key="67" vol="100" pos="12" pan="0"/>
          <note len="12" key="74" vol="100" pos="24" pan="0"/>
          <note len="12" key="67" vol="100" pos="36" pan="0"/>
          <note len="12" key="71" vol="100" pos="48" pan="0"/>
          <note len="12" key="67" vol="100" pos="60" pan="0"/>
          <note len="12" key="76" vol="100" pos="72" pan="0"/>
          <note len="12" key="67" vol="100" pos="84" pan="0"/>
          <note len="12" key="74" vol="100" pos="96" pan="0"/>
          <note len="12" key="67" vol="100" pos="108" pan="0"/>
          <note len="12" key="71" vol="100" pos="120" pan="0"/>
          <note len="12" key="67" vol="100" pos="132" pan="0"/>
          <note len="12" key="76" vol="100" pos="144" pan="0"/>
          <note len="12" key="67" vol="100" pos="156" pan="0"/>
          <note len="12" key="74" vol="100" pos="168" pan="0"/>
          <note len="12" key="67" vol="100" pos="180" pan="0"/>
          <note len="12" key="76" vol="100" pos="192" pan="0"/>
          <note len="12" key="67" vol="100" pos="204" pan="0"/>
          <note len="12" key="74" vol="100" pos="216" pan="0"/>
          <note len="12" key="67" vol="100" pos="228" pan="0"/>
          <note len="12" key="72" vol="100" pos="240" pan="0"/>
          <note len="12" key="67" vol="100" pos="252" pan="0"/>
          <note len="12" key="76" vol="100" pos="264" pan="0"/>
          <note len="12" key="67" vol="100" pos="276" pan="0"/>
          <note len="12" key="74" vol="100" pos="288" pan="0"/>
          <note len="12" key="67" vol="100" pos="300" pan="0"/>
          <note len="12" key="72" vol="100" pos="312" pan="0"/>
          <note len="12" key="67" vol="100" pos="324" pan="0"/>
          <note len="12" key="76" vol="100" pos="336" pan="0"/>
          <note len="12" key="67" vol="100" pos="348" pan="0"/>
          <note len="12" key="74" vol="100" pos="360" pan="0"/>
          <note len="12" key="67" vol="100" pos="372" pan="0"/>
          <note len="12" key="79" vol="100" pos="384" pan="0"/>
          <note len="12" key="71" vol="100" pos="396" pan="0"/>
          <note len="12" key="78" vol="100" pos="408" pan="0"/>
          <note len="12" key="71" vol="100" pos="420" pan="0"/>
          <note len="12" key="76" vol="100" pos="432" pan="0"/>
          <note len="12" key="71" vol="100" pos="444" pan="0"/>
          <note len="12" key="79" vol="100" pos="456" pan="0"/>
          <note len="12" key="71" vol="100" pos="468" pan="0"/>
          <note len="12" key="78" vol="100" pos="480" pan="0"/>
          <note len="12" key="71" vol="100" pos="492" pan="0"/>
          <note len="12" key="76" vol="100" pos="504" pan="0"/>
          <note len="12" key="71" vol="100" pos="516" pan="0"/>
          <note len="12" key="79" vol="100" pos="528" pan="0"/>
          <note len="12" key="71" vol="100" pos="540" pan="0"/>
          <note len="12" key="76" vol="100" pos="552" pan="0"/>
          <note len="12" key="71" vol="100" pos="564" pan="0"/>
          <note len="12" key="78" vol="100" pos="576" pan="0"/>
          <note len="12" key="69" vol="100" pos="588" pan="0"/>
          <note len="12" key="76" vol="100" pos="600" pan="0"/>
          <note len="12" key="69" vol="100" pos="612" pan="0"/>
          <note len="12" key="74" vol="100" pos="624" pan="0"/>
          <note len="12" key="69" vol="100" pos="636" pan="0"/>
          <note len="12" key="78" vol="100" pos="648" pan="0"/>
          <note len="12" key="69" vol="100" pos="660" pan="0"/>
          <note len="12" key="76" vol="100" pos="672" pan="0"/>
          <note len="12" key="69" vol="100" pos="684" pan="0"/>
          <note len="12" key="74" vol="100" pos="696" pan="0"/>
          <note len="12" key="69" vol="100" pos="708" pan="0"/>
          <note len="12" key="78" vol="100" pos="720" pan="0"/>
          <note len="12" key="69" vol="100" pos="732" pan="0"/>
          <note len="12" key="74" vol="100" pos="744" pan="0"/>
          <note len="12" key="69" vol="100" pos="756" pan="0"/>
        </pattern>
        <pattern muted="0" name="" pos="3840" type="1" steps="16">
          <note len="12" key="76" vol="100" pos="0" pan="0"/>
          <note len="24" key="2" vol="100" pos="0" pan="0"/>
          <note len="12" key="67" vol="100" pos="12" pan="0"/>
          <note len="12" key="74" vol="100" pos="24" pan="0"/>
          <note len="12" key="67" vol="100" pos="36" pan="0"/>
          <note len="12" key="71" vol="100" pos="48" pan="0"/>
          <note len="12" key="67" vol="100" pos="60" pan="0"/>
          <note len="12" key="76" vol="100" pos="72" pan="0"/>
          <note len="12" key="67" vol="100" pos="84" pan="0"/>
          <note len="12" key="74" vol="100" pos="96" pan="0"/>
          <note len="12" key="67" vol="100" pos="108" pan="0"/>
          <note len="12" key="71" vol="100" pos="120" pan="0"/>
          <note len="12" key="67" vol="100" pos="132" pan="0"/>
          <note len="12" key="76" vol="100" pos="144" pan="0"/>
          <note len="12" key="67" vol="100" pos="156" pan="0"/>
          <note len="12" key="74" vol="100" pos="168" pan="0"/>
          <note len="12" key="67" vol="100" pos="180" pan="0"/>
          <note len="12" key="76" vol="100" pos="192" pan="0"/>
          <note len="12" key="67" vol="100" pos="204" pan="0"/>
          <note len="12" key="74" vol="100" pos="216" pan="0"/>
          <note len="12" key="67" vol="100" pos="228" pan="0"/>
          <note len="12" key="72" vol="100" pos="240" pan="0"/>
          <note len="12" key="67" vol="100" pos="252" pan="0"/>
          <note len="12" key="76" vol="100" pos="264" pan="0"/>
          <note len="12" key="67" vol="100" pos="276" pan="0"/>
          <note len="12" key="74" vol="100" pos="288" pan="0"/>
          <note len="12" key="67" vol="100" pos="300" pan="0"/>
          <note len="12" key="72" vol="100" pos="312" pan="0"/>
          <note len="12" key="67" vol="100" pos="324" pan="0"/>
          <note len="12" key="76" vol="100" pos="336" pan="0"/>
          <note len="12" key="67" vol="100" pos="348" pan="0"/>
          <note len="12" key="74" vol="100" pos="360" pan="0"/>
          <note len="12" key="67" vol="100" pos="372" pan="0"/>
          <note len="12" key="79" vol="100" pos="384" pan="0"/>
          <note len="12" key="71" vol="100" pos="396" pan="0"/>
          <note len="12" key="78" vol="100" pos="408" pan="0"/>
          <note len="12" key="71" vol="100" pos="420" pan="0"/>
          <note len="12" key="76" vol="100" pos="432" pan="0"/>
          <note len="12" key="71" vol="100" pos="444" pan="0"/>
          <note len="12" key="79" vol="100" pos="456" pan="0"/>
          <note len="12" key="71" vol="100" pos="468" pan="0"/>
          <note len="12" key="78" vol="100" pos="480" pan="0"/>
          <note len="12" key="71" vol="100" pos="492" pan="0"/>
          <note len="12" key="76" vol="100" pos="504" pan="0"/>
          <note len="12" key="71" vol="100" pos="516" pan="0"/>
          <note len="12" key="79" vol="100" pos="528" pan="0"/>
          <note len="12" key="71" vol="100" pos="540" pan="0"/>
          <note len="12" key="76" vol="100" pos="552" pan="0"/>
          <note len="12" key="71" vol="100" pos="564" pan="0"/>
          <note len="12" key="71" vol="191" pos="576" pan="0"/>
          <note len="12" key="1" vol="191" pos="576" pan="0"/>
          <note len="12" key="71" vol="191" pos="588" pan="0"/>
          <note len="12" key="69" vol="191" pos="600" pan="0"/>
          <note len="12" key="69" vol="191" pos="612" pan="0"/>
          <note len="12" key="74" vol="191" pos="624" pan="0"/>
          <note len="12" key="74" vol="191" pos="636" pan="0"/>
          <note len="12" key="71" vol="191" pos="648" pan="0"/>
          <note len="12" key="71" vol="191" pos="660" pan="0"/>
          <note len="12" key="76" vol="191" pos="672" pan="0"/>
          <note len="12" key="76" vol="191" pos="684" pan="0"/>
          <note len="12" key="74" vol="191" pos="696" pan="0"/>
          <note len="12" key="74" vol="191" pos="708" pan="0"/>
          <note len="12" key="71" vol="191" pos="720" pan="0"/>
          <note len="12" key="71" vol="191" pos="732" pan="0"/>
          <note len="12" key="74" vol="191" pos="744" pan="0"/>
          <note len="12" key="74" vol="191" pos="756" pan="0"/>
        </pattern>
        <pattern muted="0" name="" pos="33792" type="1" steps="16">
          <note len="12" key="0" vol="100" pos="0" pan="0"/>
          <note len="24" key="0" vol="100" pos="144" pan="0"/>
          <note len="24" key="2" vol="100" pos="168" pan="0"/>
          <note len="24" key="0" vol="100" pos="192" pan="0"/>
          <note len="24" key="2" vol="100" pos="216" pan="0"/>
          <note len="24" key="0" vol="100" pos="240" pan="0"/>
          <note len="24" key="2" vol="100" pos="264" pan="0"/>
          <note len="24" key="0" vol="100" pos="288" pan="0"/>
          <note len="12" key="2" vol="100" pos="312" pan="0"/>
          <note len="12" key="1" vol="100" pos="324" pan="0"/>
          <note len="12" key="0" vol="100" pos="384" pan="0"/>
          <note len="12" key="1" vol="100" pos="408" pan="0"/>
          <note len="12" key="0" vol="100" pos="456" pan="0"/>
          <note len="12" key="1" vol="100" pos="480" pan="0"/>
          <note len="12" key="0" vol="100" pos="528" pan="0"/>
          <note len="12" key="1" vol="100" pos="540" pan="0"/>
          <note len="12" key="0" vol="100" pos="576" pan="0"/>
          <note len="12" key="79" vol="100" pos="768" pan="0"/>
          <note len="12" key="1" vol="100" pos="768" pan="0"/>
          <note len="12" key="79" vol="100" pos="780" pan="0"/>
          <note len="12" key="76" vol="100" pos="792" pan="0"/>
          <note len="12" key="76" vol="100" pos="804" pan="0"/>
          <note len="12" key="71" vol="100" pos="816" pan="0"/>
          <note len="12" key="71" vol="100" pos="828" pan="0"/>
          <note len="12" key="76" vol="100" pos="840" pan="0"/>
          <note len="12" key="76" vol="100" pos="852" pan="0"/>
          <note len="12" key="79" vol="100" pos="864" pan="0"/>
          <note len="12" key="79" vol="100" pos="876" pan="0"/>
          <note len="12" key="76" vol="100" pos="888" pan="0"/>
          <note len="12" key="76" vol="100" pos="900" pan="0"/>
          <note len="12" key="81" vol="100" pos="912" pan="0"/>
          <note len="12" key="81" vol="100" pos="924" pan="0"/>
          <note len="12" key="79" vol="100" pos="936" pan="0"/>
          <note len="12" key="79" vol="100" pos="948" pan="0"/>
          <note len="12" key="78" vol="100" pos="960" pan="0"/>
          <note len="12" key="78" vol="100" pos="972" pan="0"/>
          <note len="12" key="74" vol="100" pos="984" pan="0"/>
          <note len="12" key="74" vol="100" pos="996" pan="0"/>
          <note len="12" key="69" vol="100" pos="1008" pan="0"/>
          <note len="12" key="69" vol="100" pos="1020" pan="0"/>
          <note len="12" key="74" vol="100" pos="1032" pan="0"/>
          <note len="12" key="74" vol="100" pos="1044" pan="0"/>
          <note len="12" key="76" vol="100" pos="1056" pan="0"/>
          <note len="12" key="76" vol="100" pos="1068" pan="0"/>
          <note len="12" key="74" vol="100" pos="1080" pan="0"/>
          <note len="12" key="74" vol="100" pos="1092" pan="0"/>
          <note len="12" key="71" vol="100" pos="1104" pan="0"/>
          <note len="12" key="71" vol="100" pos="1116" pan="0"/>
          <note len="12" key="74" vol="100" pos="1128" pan="0"/>
          <note len="12" key="74" vol="100" pos="1140" pan="0"/>
          <note len="96" key="76" vol="100" pos="1152" pan="0"/>
          <note len="12" key="0" vol="100" pos="1152" pan="0"/>
          <note len="48" key="78" vol="100" pos="1248" pan="0"/>
          <note len="48" key="79" vol="100" pos="1296" pan="0"/>
          <note len="48" key="78" vol="100" pos="1344" pan="0"/>
          <note len="12" key="66" vol="100" pos="1392" pan="0"/>
          <note len="12" key="0" vol="100" pos="1392" pan="0"/>
          <note len="12" key="69" vol="100" pos="1404" pan="0"/>
          <note len="12" key="74" vol="100" pos="1416" pan="0"/>
          <note len="12" key="78" vol="100" pos="1428" pan="0"/>
          <note len="12" key="1" vol="100" pos="1428" pan="0"/>
          <note len="12" key="81" vol="100" pos="1440" pan="0"/>
          <note len="12" key="78" vol="100" pos="1452" pan="0"/>
          <note len="12" key="0" vol="100" pos="1452" pan="0"/>
          <note len="12" key="74" vol="100" pos="1464" pan="0"/>
          <note len="12" key="69" vol="100" pos="1476" pan="0"/>
          <note len="12" key="66" vol="100" pos="1488" pan="0"/>
          <note len="12" key="1" vol="100" pos="1488" pan="0"/>
          <note len="12" key="69" vol="100" pos="1500" pan="0"/>
          <note len="12" key="74" vol="100" pos="1512" pan="0"/>
          <note len="12" key="78" vol="100" pos="1524" pan="0"/>
          <note len="12" key="0" vol="100" pos="1524" pan="0"/>
        </pattern>
        <pattern muted="0" name="" pos="35328" type="1" steps="16">
          <note len="24" key="83" vol="100" pos="0" pan="0"/>
          <note len="12" key="0" vol="100" pos="0" pan="0"/>
          <note len="24" key="81" vol="100" pos="24" pan="0"/>
          <note len="24" key="79" vol="100" pos="48" pan="0"/>
          <note len="24" key="83" vol="100" pos="72" pan="0"/>
          <note len="24" key="81" vol="100" pos="96" pan="0"/>
          <note len="24" key="79" vol="100" pos="120" pan="0"/>
          <note len="24" key="83" vol="100" pos="144" pan="0"/>
          <note len="24" key="81" vol="100" pos="168" pan="0"/>
          <note len="24" key="83" vol="100" pos="192" pan="0"/>
          <note len="24" key="81" vol="100" pos="216" pan="0"/>
          <note len="24" key="79" vol="100" pos="240" pan="0"/>
          <note len="24" key="83" vol="100" pos="264" pan="0"/>
          <note len="24" key="81" vol="100" pos="288" pan="0"/>
          <note len="24" key="79" vol="100" pos="312" pan="0"/>
          <note len="24" key="81" vol="100" pos="336" pan="0"/>
          <note len="24" key="83" vol="100" pos="360" pan="0"/>
          <note len="12" key="78" vol="100" pos="384" pan="0"/>
          <note len="12" key="2" vol="100" pos="384" pan="0"/>
          <note len="12" key="69" vol="100" pos="396" pan="0"/>
          <note len="12" key="76" vol="100" pos="408" pan="0"/>
          <note len="12" key="69" vol="100" pos="420" pan="0"/>
          <note len="12" key="74" vol="100" pos="432" pan="0"/>
          <note len="12" key="69" vol="100" pos="444" pan="0"/>
          <note len="12" key="78" vol="100" pos="456" pan="0"/>
          <note len="12" key="69" vol="100" pos="468" pan="0"/>
          <note len="12" key="76" vol="100" pos="480" pan="0"/>
          <note len="12" key="69" vol="100" pos="492" pan="0"/>
          <note len="12" key="74" vol="100" pos="504" pan="0"/>
          <note len="12" key="69" vol="100" pos="516" pan="0"/>
          <note len="12" key="76" vol="100" pos="528" pan="0"/>
          <note len="12" key="69" vol="100" pos="540" pan="0"/>
          <note len="12" key="78" vol="100" pos="552" pan="0"/>
          <note len="12" key="69" vol="100" pos="564" pan="0"/>
          <note len="12" key="81" vol="100" pos="576" pan="0"/>
          <note len="12" key="69" vol="100" pos="588" pan="0"/>
          <note len="12" key="78" vol="100" pos="600" pan="0"/>
          <note len="12" key="69" vol="100" pos="612" pan="0"/>
          <note len="12" key="74" vol="100" pos="624" pan="0"/>
          <note len="12" key="69" vol="100" pos="636" pan="0"/>
          <note len="12" key="81" vol="100" pos="648" pan="0"/>
          <note len="12" key="69" vol="100" pos="660" pan="0"/>
          <note len="12" key="78" vol="100" pos="672" pan="0"/>
          <note len="12" key="69" vol="100" pos="684" pan="0"/>
          <note len="12" key="74" vol="100" pos="696" pan="0"/>
          <note len="12" key="69" vol="100" pos="708" pan="0"/>
          <note len="12" key="78" vol="100" pos="720" pan="0"/>
          <note len="12" key="69" vol="100" pos="732" pan="0"/>
          <note len="12" key="81" vol="100" pos="744" pan="0"/>
          <note len="12" key="69" vol="100" pos="756" pan="0"/>
        </pattern>
        <pattern muted="0" name="" pos="36480" type="1" steps="16">
          <note len="12" key="64" vol="100" pos="0" pan="0"/>
          <note len="12" key="1" vol="100" pos="0" pan="0"/>
          <note len="12" key="66" vol="100" pos="12" pan="0"/>
          <note len="12" key="67" vol="100" pos="24" pan="0"/>
          <note len="12" key="69" vol="100" pos="36" pan="0"/>
          <note len="12" key="66" vol="100" pos="48" pan="0"/>
          <note len="12" key="67" vol="100" pos="60" pan="0"/>
          <note len="12" key="69" vol="100" pos="72" pan="0"/>
          <note len="12" key="71" vol="100" pos="84" pan="0"/>
          <note len="12" key="67" vol="100" pos="96" pan="0"/>
          <note len="12" key="69" vol="100" pos="108" pan="0"/>
          <note len="12" key="71" vol="100" pos="120" pan="0"/>
          <note len="12" key="72" vol="100" pos="132" pan="0"/>
          <note len="12" key="71" vol="100" pos="144" pan="0"/>
          <note len="12" key="69" vol="100" pos="156" pan="0"/>
          <note len="12" key="67" vol="100" pos="168" pan="0"/>
          <note len="12" key="66" vol="100" pos="180" pan="0"/>
        </pattern>
        <pattern muted="0" name="" pos="36672" type="1" steps="16">
          <note len="12" key="78" vol="100" pos="0" pan="0"/>
          <note len="12" key="0" vol="100" pos="0" pan="0"/>
          <note len="12" key="74" vol="100" pos="12" pan="0"/>
          <note len="12" key="69" vol="100" pos="24" pan="0"/>
          <note len="12" key="1" vol="100" pos="24" pan="0"/>
          <note len="12" key="66" vol="100" pos="36" pan="0"/>
          <note len="12" key="69" vol="100" pos="48" pan="0"/>
          <note len="12" key="74" vol="100" pos="60" pan="0"/>
          <note len="12" key="81" vol="100" pos="72" pan="0"/>
          <note len="12" key="0" vol="100" pos="72" pan="0"/>
          <note len="12" key="78" vol="100" pos="84" pan="0"/>
          <note len="12" key="74" vol="100" pos="96" pan="0"/>
          <note len="12" key="1" vol="100" pos="96" pan="0"/>
          <note len="12" key="69" vol="100" pos="108" pan="0"/>
          <note len="12" key="66" vol="100" pos="120" pan="0"/>
          <note len="12" key="69" vol="100" pos="132" pan="0"/>
          <note len="12" key="79" vol="100" pos="144" pan="0"/>
          <note len="12" key="0" vol="100" pos="144" pan="0"/>
          <note len="12" key="81" vol="100" pos="156" pan="0"/>
          <note len="12" key="79" vol="100" pos="168" pan="0"/>
          <note len="12" key="78" vol="100" pos="180" pan="0"/>
          <note len="192" key="79" vol="100" pos="192" pan="0"/>
        </pattern>
      </track>
      <track muted="0" name="ZynAddSubFX" solo="0" type="0">
        <instrumenttrack pitch="0" fxch="16" basenote="57" vol="37.5" pitchrange="1" usemasterpitch="1" pan="0">
          <instrument name="zynaddsubfx">
            <zynaddsubfx portamento="0" bandwidth="64" rescenterfreq="64" modifiedcontrollers="" resbandwidth="64" filterq="64" forwardmidicc="1" fmgain="127" filterfreq="64">
              <ZynAddSubFX-data ZynAddSubFX-author="Nasca Octavian Paul" version-major="2" version-minor="4" version-revision="1">
                <INFORMATION>
                  <par_bool name="PADsynth_used" value="yes"/>
                </INFORMATION>
                <BASE_PARAMETERS>
                  <par name="max_midi_parts" value="16"/>
                  <par name="max_kit_items_per_instrument" value="16"/>
                  <par name="max_system_effects" value="4"/>
                  <par name="max_insertion_effects" value="8"/>
                  <par name="max_instrument_effects" value="3"/>
                  <par name="max_addsynth_voices" value="8"/>
                </BASE_PARAMETERS>
                <MASTER>
                  <par name="volume" value="100"/>
                  <par name="key_shift" value="64"/>
                  <par_bool name="nrpn_receive" value="yes"/>
                  <MICROTONAL>
                    <string name="name">12tET</string>
                    <string name="comment">Equal Temperament 12 notes per octave</string>
                    <par_bool name="invert_up_down" value="no"/>
                    <par name="invert_up_down_center" value="60"/>
                    <par_bool name="enabled" value="no"/>
                    <par name="global_fine_detune" value="64"/>
                    <par name="a_note" value="69"/>
                    <par_real name="a_freq" value="440.000000"/>
                  </MICROTONAL>
                  <PART id="0">
                    <par_bool name="enabled" value="yes"/>
                    <par name="volume" value="96"/>
                    <par name="panning" value="64"/>
                    <par name="min_key" value="0"/>
                    <par name="max_key" value="127"/>
                    <par name="key_shift" value="88"/>
                    <par name="rcv_chn" value="0"/>
                    <par name="velocity_sensing" value="64"/>
                    <par name="velocity_offset" value="64"/>
                    <par_bool name="note_on" value="yes"/>
                    <par_bool name="poly_mode" value="yes"/>
                    <par name="legato_mode" value="0"/>
                    <par name="key_limit" value="15"/>
                    <INSTRUMENT>
                      <INFO>
                        <string name="name">Full Strings</string>
                        <string name="author">Will Godfrey
GPL V 2 or later</string>
                        <string name="comments">Developed from Paul's Strings Pad5</string>
                        <par name="type" value="12"/>
                      </INFO>
                      <INSTRUMENT_KIT>
                        <par name="kit_mode" value="1"/>
                        <par_bool name="drum_mode" value="no"/>
                        <INSTRUMENT_KIT_ITEM id="0">
                          <par_bool name="enabled" value="yes"/>
                          <string name="name"/>
                          <par_bool name="muted" value="no"/>
                          <par name="min_key" value="0"/>
                          <par name="max_key" value="127"/>
                          <par name="send_to_instrument_effect" value="0"/>
                          <par_bool name="add_enabled" value="no"/>
                          <par_bool name="sub_enabled" value="no"/>
                          <par_bool name="pad_enabled" value="yes"/>
                          <PAD_SYNTH_PARAMETERS>
                            <par_bool name="stereo" value="yes"/>
                            <par name="mode" value="0"/>
                            <par name="bandwidth" value="620"/>
                            <par name="bandwidth_scale" value="0"/>
                            <HARMONIC_PROFILE>
                              <par name="base_type" value="0"/>
                              <par name="base_par1" value="99"/>
                              <par name="frequency_multiplier" value="8"/>
                              <par name="modulator_par1" value="0"/>
                              <par name="modulator_frequency" value="55"/>
                              <par name="width" value="127"/>
                              <par name="amplitude_multiplier_type" value="0"/>
                              <par name="amplitude_multiplier_mode" value="2"/>
                              <par name="amplitude_multiplier_par1" value="80"/>
                              <par name="amplitude_multiplier_par2" value="4"/>
                              <par_bool name="autoscale" value="yes"/>
                              <par name="one_half" value="0"/>
                            </HARMONIC_PROFILE>
                            <OSCIL>
                              <par name="harmonic_mag_type" value="0"/>
                              <par name="base_function" value="4"/>
                              <par name="base_function_par" value="51"/>
                              <par name="base_function_modulation" value="0"/>
                              <par name="base_function_modulation_par1" value="64"/>
                              <par name="base_function_modulation_par2" value="64"/>
                              <par name="base_function_modulation_par3" value="32"/>
                              <par name="modulation" value="0"/>
                              <par name="modulation_par1" value="64"/>
                              <par name="modulation_par2" value="64"/>
                              <par name="modulation_par3" value="32"/>
                              <par name="wave_shaping" value="64"/>
                              <par name="wave_shaping_function" value="0"/>
                              <par name="filter_type" value="0"/>
                              <par name="filter_par1" value="37"/>
                              <par name="filter_par2" value="64"/>
                              <par name="filter_before_wave_shaping" value="0"/>
                              <par name="spectrum_adjust_type" value="0"/>
                              <par name="spectrum_adjust_par" value="64"/>
                              <par name="rand" value="64"/>
                              <par name="amp_rand_type" value="0"/>
                              <par name="amp_rand_power" value="64"/>
                              <par name="harmonic_shift" value="0"/>
                              <par_bool name="harmonic_shift_first" value="no"/>
                              <par name="adaptive_harmonics" value="0"/>
                              <par name="adaptive_harmonics_base_frequency" value="128"/>
                              <par name="adaptive_harmonics_power" value="100"/>
                              <HARMONICS>
                                <HARMONIC id="1">
                                  <par name="mag" value="83"/>
                                  <par name="phase" value="64"/>
                                </HARMONIC>
                                <HARMONIC id="2">
                                  <par name="mag" value="127"/>
                                  <par name="phase" value="64"/>
                                </HARMONIC>
                              </HARMONICS>
                            </OSCIL>
                            <RESONANCE>
                              <par_bool name="enabled" value="no"/>
                            </RESONANCE>
                            <HARMONIC_POSITION>
                              <par name="type" value="0"/>
                              <par name="parameter1" value="255"/>
                              <par name="parameter2" value="64"/>
                              <par name="parameter3" value="0"/>
                            </HARMONIC_POSITION>
                            <SAMPLE_QUALITY>
                              <par name="samplesize" value="4"/>
                              <par name="basenote" value="4"/>
                              <par name="octaves" value="5"/>
                              <par name="samples_per_octave" value="2"/>
                            </SAMPLE_QUALITY>
                            <AMPLITUDE_PARAMETERS>
                              <par name="volume" value="94"/>
                              <par name="panning" value="67"/>
                              <par name="velocity_sensing" value="70"/>
                              <par name="punch_strength" value="0"/>
                              <par name="punch_time" value="60"/>
                              <par name="punch_stretch" value="64"/>
                              <par name="punch_velocity_sensing" value="72"/>
                              <AMPLITUDE_ENVELOPE>
                                <par_bool name="free_mode" value="no"/>
                                <par name="env_points" value="4"/>
                                <par name="env_sustain" value="2"/>
                                <par name="env_stretch" value="0"/>
                                <par_bool name="forced_release" value="no"/>
                                <par_bool name="linear_envelope" value="no"/>
                                <par name="A_dt" value="12"/>
                                <par name="D_dt" value="39"/>
                                <par name="R_dt" value="32"/>
                                <par name="A_val" value="64"/>
                                <par name="D_val" value="64"/>
                                <par name="S_val" value="127"/>
                                <par name="R_val" value="64"/>
                              </AMPLITUDE_ENVELOPE>
                              <AMPLITUDE_LFO>
                                <par_real name="freq" value="0.629921"/>
                                <par name="intensity" value="0"/>
                                <par name="start_phase" value="64"/>
                                <par name="lfo_type" value="0"/>
                                <par name="randomness_amplitude" value="0"/>
                                <par name="randomness_frequency" value="0"/>
                                <par name="delay" value="0"/>
                                <par name="stretch" value="64"/>
                                <par_bool name="continous" value="no"/>
                              </AMPLITUDE_LFO>
                            </AMPLITUDE_PARAMETERS>
                            <FREQUENCY_PARAMETERS>
                              <par name="fixed_freq" value="0"/>
                              <par name="fixed_freq_et" value="0"/>
                              <par name="detune" value="8192"/>
                              <par name="coarse_detune" value="15360"/>
                              <par name="detune_type" value="1"/>
                              <FREQUENCY_ENVELOPE>
                                <par_bool name="free_mode" value="no"/>
                                <par name="env_points" value="3"/>
                                <par name="env_sustain" value="1"/>
                                <par name="env_stretch" value="0"/>
                                <par_bool name="forced_release" value="no"/>
                                <par_bool name="linear_envelope" value="no"/>
                                <par name="A_dt" value="50"/>
                                <par name="D_dt" value="10"/>
                                <par name="R_dt" value="60"/>
                                <par name="A_val" value="64"/>
                                <par name="D_val" value="64"/>
                                <par name="S_val" value="64"/>
                                <par name="R_val" value="64"/>
                              </FREQUENCY_ENVELOPE>
                              <FREQUENCY_LFO>
                                <par_real name="freq" value="0.621181"/>
                                <par name="intensity" value="0"/>
                                <par name="start_phase" value="64"/>
                                <par name="lfo_type" value="0"/>
                                <par name="randomness_amplitude" value="0"/>
                                <par name="randomness_frequency" value="0"/>
                                <par name="delay" value="0"/>
                                <par name="stretch" value="64"/>
                                <par_bool name="continous" value="no"/>
                              </FREQUENCY_LFO>
                            </FREQUENCY_PARAMETERS>
                            <FILTER_PARAMETERS>
                              <par name="velocity_sensing_amplitude" value="25"/>
                              <par name="velocity_sensing" value="64"/>
                              <FILTER>
                                <par name="category" value="0"/>
                                <par name="type" value="2"/>
                                <par name="freq" value="99"/>
                                <par name="q" value="28"/>
                                <par name="stages" value="1"/>
                                <par name="freq_track" value="97"/>
                                <par name="gain" value="64"/>
                              </FILTER>
                              <FILTER_ENVELOPE>
                                <par_bool name="free_mode" value="no"/>
                                <par name="env_points" value="4"/>
                                <par name="env_sustain" value="2"/>
                                <par name="env_stretch" value="0"/>
                                <par_bool name="forced_release" value="yes"/>
                                <par_bool name="linear_envelope" value="no"/>
                                <par name="A_dt" value="17"/>
                                <par name="D_dt" value="70"/>
                                <par name="R_dt" value="98"/>
                                <par name="A_val" value="37"/>
                                <par name="D_val" value="64"/>
                                <par name="S_val" value="64"/>
                                <par name="R_val" value="43"/>
                              </FILTER_ENVELOPE>
                              <FILTER_LFO>
                                <par_real name="freq" value="0.629921"/>
                                <par name="intensity" value="0"/>
                                <par name="start_phase" value="64"/>
                                <par name="lfo_type" value="0"/>
                                <par name="randomness_amplitude" value="0"/>
                                <par name="randomness_frequency" value="0"/>
                                <par name="delay" value="0"/>
                                <par name="stretch" value="64"/>
                                <par_bool name="continous" value="no"/>
                              </FILTER_LFO>
                            </FILTER_PARAMETERS>
                          </PAD_SYNTH_PARAMETERS>
                        </INSTRUMENT_KIT_ITEM>
                        <INSTRUMENT_KIT_ITEM id="1">
                          <par_bool name="enabled" value="no"/>
                        </INSTRUMENT_KIT_ITEM>
                        <INSTRUMENT_KIT_ITEM id="2">
                          <par_bool name="enabled" value="no"/>
                        </INSTRUMENT_KIT_ITEM>
                        <INSTRUMENT_KIT_ITEM id="3">
                          <par_bool name="enabled" value="no"/>
                        </INSTRUMENT_KIT_ITEM>
                        <INSTRUMENT_KIT_ITEM id="4">
                          <par_bool name="enabled" value="no"/>
                        </INSTRUMENT_KIT_ITEM>
                        <INSTRUMENT_KIT_ITEM id="5">
                          <par_bool name="enabled" value="no"/>
                        </INSTRUMENT_KIT_ITEM>
                        <INSTRUMENT_KIT_ITEM id="6">
                          <par_bool name="enabled" value="no"/>
                        </INSTRUMENT_KIT_ITEM>
                        <INSTRUMENT_KIT_ITEM id="7">
                          <par_bool name="enabled" value="no"/>
                        </INSTRUMENT_KIT_ITEM>
                        <INSTRUMENT_KIT_ITEM id="8">
                          <par_bool name="enabled" value="no"/>
                        </INSTRUMENT_KIT_ITEM>
                        <INSTRUMENT_KIT_ITEM id="9">
                          <par_bool name="enabled" value="no"/>
                        </INSTRUMENT_KIT_ITEM>
                        <INSTRUMENT_KIT_ITEM id="10">
                          <par_bool name="enabled" value="no"/>
                        </INSTRUMENT_KIT_ITEM>
                        <INSTRUMENT_KIT_ITEM id="11">
                          <par_bool name="enabled" value="no"/>
                        </INSTRUMENT_KIT_ITEM>
                        <INSTRUMENT_KIT_ITEM id="12">
                          <par_bool name="enabled" value="no"/>
                        </INSTRUMENT_KIT_ITEM>
                        <INSTRUMENT_KIT_ITEM id="13">
                          <par_bool name="enabled" value="no"/>
                        </INSTRUMENT_KIT_ITEM>
                        <INSTRUMENT_KIT_ITEM id="14">
                          <par_bool name="enabled" value="no"/>
                        </INSTRUMENT_KIT_ITEM>
                        <INSTRUMENT_KIT_ITEM id="15">
                          <par_bool name="enabled" value="no"/>
                        </INSTRUMENT_KIT_ITEM>
                      </INSTRUMENT_KIT>
                      <INSTRUMENT_EFFECTS>
                        <INSTRUMENT_EFFECT id="0">
                          <EFFECT>
                            <par name="type" value="3"/>
                            <par name="preset" value="0"/>
                            <EFFECT_PARAMETERS>
                              <par_no id="0">
                                <par name="par" value="64"/>
                              </par_no>
                              <par_no id="1">
                                <par name="par" value="64"/>
                              </par_no>
                              <par_no id="2">
                                <par name="par" value="50"/>
                              </par_no>
                              <par_no id="5">
                                <par name="par" value="90"/>
                              </par_no>
                              <par_no id="6">
                                <par name="par" value="40"/>
                              </par_no>
                              <par_no id="7">
                                <par name="par" value="85"/>
                              </par_no>
                              <par_no id="8">
                                <par name="par" value="67"/>
                              </par_no>
                              <par_no id="9">
                                <par name="par" value="119"/>
                              </par_no>
                            </EFFECT_PARAMETERS>
                          </EFFECT>
                          <par name="route" value="0"/>
                          <par_bool name="bypass" value="no"/>
                        </INSTRUMENT_EFFECT>
                        <INSTRUMENT_EFFECT id="1">
                          <EFFECT>
                            <par name="type" value="1"/>
                            <par name="preset" value="0"/>
                            <EFFECT_PARAMETERS>
                              <par_no id="0">
                                <par name="par" value="40"/>
                              </par_no>
                              <par_no id="1">
                                <par name="par" value="64"/>
                              </par_no>
                              <par_no id="2">
                                <par name="par" value="63"/>
                              </par_no>
                              <par_no id="3">
                                <par name="par" value="24"/>
                              </par_no>
                              <par_no id="7">
                                <par name="par" value="85"/>
                              </par_no>
                              <par_no id="8">
                                <par name="par" value="5"/>
                              </par_no>
                              <par_no id="9">
                                <par name="par" value="83"/>
                              </par_no>
                              <par_no id="10">
                                <par name="par" value="1"/>
                              </par_no>
                              <par_no id="11">
                                <par name="par" value="64"/>
                              </par_no>
                            </EFFECT_PARAMETERS>
                          </EFFECT>
                          <par name="route" value="0"/>
                          <par_bool name="bypass" value="no"/>
                        </INSTRUMENT_EFFECT>
                        <INSTRUMENT_EFFECT id="2">
                          <EFFECT>
                            <par name="type" value="0"/>
                          </EFFECT>
                          <par name="route" value="0"/>
                          <par_bool name="bypass" value="no"/>
                        </INSTRUMENT_EFFECT>
                      </INSTRUMENT_EFFECTS>
                    </INSTRUMENT>
                    <CONTROLLER>
                      <par name="pitchwheel_bendrange" value="100"/>
                      <par_bool name="expression_receive" value="yes"/>
                      <par name="panning_depth" value="64"/>
                      <par name="filter_cutoff_depth" value="64"/>
                      <par name="filter_q_depth" value="64"/>
                      <par name="bandwidth_depth" value="64"/>
                      <par name="mod_wheel_depth" value="80"/>
                      <par_bool name="mod_wheel_exponential" value="no"/>
                      <par_bool name="fm_amp_receive" value="yes"/>
                      <par_bool name="volume_receive" value="yes"/>
                      <par_bool name="sustain_receive" value="yes"/>
                      <par_bool name="portamento_receive" value="yes"/>
                      <par name="portamento_time" value="64"/>
                      <par name="portamento_pitchthresh" value="3"/>
                      <par name="portamento_pitchthreshtype" value="1"/>
                      <par name="portamento_portamento" value="0"/>
                      <par name="portamento_updowntimestretch" value="64"/>
                      <par name="portamento_proportional" value="0"/>
                      <par name="portamento_proprate" value="80"/>
                      <par name="portamento_propdepth" value="90"/>
                      <par name="resonance_center_depth" value="64"/>
                      <par name="resonance_bandwidth_depth" value="64"/>
                    </CONTROLLER>
                  </PART>
                  <PART id="1">
                    <par_bool name="enabled" value="no"/>
                  </PART>
                  <PART id="2">
                    <par_bool name="enabled" value="no"/>
                  </PART>
                  <PART id="3">
                    <par_bool name="enabled" value="no"/>
                  </PART>
                  <PART id="4">
                    <par_bool name="enabled" value="no"/>
                  </PART>
                  <PART id="5">
                    <par_bool name="enabled" value="no"/>
                  </PART>
                  <PART id="6">
                    <par_bool name="enabled" value="no"/>
                  </PART>
                  <PART id="7">
                    <par_bool name="enabled" value="no"/>
                  </PART>
                  <PART id="8">
                    <par_bool name="enabled" value="no"/>
                  </PART>
                  <PART id="9">
                    <par_bool name="enabled" value="no"/>
                  </PART>
                  <PART id="10">
                    <par_bool name="enabled" value="no"/>
                  </PART>
                  <PART id="11">
                    <par_bool name="enabled" value="no"/>
                  </PART>
                  <PART id="12">
                    <par_bool name="enabled" value="no"/>
                  </PART>
                  <PART id="13">
                    <par_bool name="enabled" value="no"/>
                  </PART>
                  <PART id="14">
                    <par_bool name="enabled" value="no"/>
                  </PART>
                  <PART id="15">
                    <par_bool name="enabled" value="no"/>
                  </PART>
                  <SYSTEM_EFFECTS>
                    <SYSTEM_EFFECT id="0">
                      <EFFECT>
                        <par name="type" value="0"/>
                      </EFFECT>
                      <VOLUME id="0">
                        <par name="vol" value="0"/>
                      </VOLUME>
                      <VOLUME id="1">
                        <par name="vol" value="0"/>
                      </VOLUME>
                      <VOLUME id="2">
                        <par name="vol" value="0"/>
                      </VOLUME>
                      <VOLUME id="3">
                        <par name="vol" value="0"/>
                      </VOLUME>
                      <VOLUME id="4">
                        <par name="vol" value="0"/>
                      </VOLUME>
                      <VOLUME id="5">
                        <par name="vol" value="0"/>
                      </VOLUME>
                      <VOLUME id="6">
                        <par name="vol" value="0"/>
                      </VOLUME>
                      <VOLUME id="7">
                        <par name="vol" value="0"/>
                      </VOLUME>
                      <VOLUME id="8">
                        <par name="vol" value="0"/>
                      </VOLUME>
                      <VOLUME id="9">
                        <par name="vol" value="0"/>
                      </VOLUME>
                      <VOLUME id="10">
                        <par name="vol" value="0"/>
                      </VOLUME>
                      <VOLUME id="11">
                        <par name="vol" value="0"/>
                      </VOLUME>
                      <VOLUME id="12">
                        <par name="vol" value="0"/>
                      </VOLUME>
                      <VOLUME id="13">
                        <par name="vol" value="0"/>
                      </VOLUME>
                      <VOLUME id="14">
                        <par name="vol" value="0"/>
                      </VOLUME>
                      <VOLUME id="15">
                        <par name="vol" value="0"/>
                      </VOLUME>
                      <SENDTO id="1">
                        <par name="send_vol" value="0"/>
                      </SENDTO>
                      <SENDTO id="2">
                        <par name="send_vol" value="0"/>
                      </SENDTO>
                      <SENDTO id="3">
                        <par name="send_vol" value="0"/>
                      </SENDTO>
                    </SYSTEM_EFFECT>
                    <SYSTEM_EFFECT id="1">
                      <EFFECT>
                        <par name="type" value="0"/>
                      </EFFECT>
                      <VOLUME id="0">
                        <par name="vol" value="0"/>
                      </VOLUME>
                      <VOLUME id="1">
                        <par name="vol" value="0"/>
                      </VOLUME>
                      <VOLUME id="2">
                        <par name="vol" value="0"/>
                      </VOLUME>
                      <VOLUME id="3">
                        <par name="vol" value="0"/>
                      </VOLUME>
                      <VOLUME id="4">
                        <par name="vol" value="0"/>
                      </VOLUME>
                      <VOLUME id="5">
                        <par name="vol" value="0"/>
                      </VOLUME>
                      <VOLUME id="6">
                        <par name="vol" value="0"/>
                      </VOLUME>
                      <VOLUME id="7">
                        <par name="vol" value="0"/>
                      </VOLUME>
                      <VOLUME id="8">
                        <par name="vol" value="0"/>
                      </VOLUME>
                      <VOLUME id="9">
                        <par name="vol" value="0"/>
                      </VOLUME>
                      <VOLUME id="10">
                        <par name="vol" value="0"/>
                      </VOLUME>
                      <VOLUME id="11">
                        <par name="vol" value="0"/>
                      </VOLUME>
                      <VOLUME id="12">
                        <par name="vol" value="0"/>
                      </VOLUME>
                      <VOLUME id="13">
                        <par name="vol" value="0"/>
                      </VOLUME>
                      <VOLUME id="14">
                        <par name="vol" value="0"/>
                      </VOLUME>
                      <VOLUME id="15">
                        <par name="vol" value="0"/>
                      </VOLUME>
                      <SENDTO id="2">
                        <par name="send_vol" value="0"/>
                      </SENDTO>
                      <SENDTO id="3">
                        <par name="send_vol" value="0"/>
                      </SENDTO>
                    </SYSTEM_EFFECT>
                    <SYSTEM_EFFECT id="2">
                      <EFFECT>
                        <par name="type" value="0"/>
                      </EFFECT>
                      <VOLUME id="0">
                        <par name="vol" value="0"/>
                      </VOLUME>
                      <VOLUME id="1">
                        <par name="vol" value="0"/>
                      </VOLUME>
                      <VOLUME id="2">
                        <par name="vol" value="0"/>
                      </VOLUME>
                      <VOLUME id="3">
                        <par name="vol" value="0"/>
                      </VOLUME>
                      <VOLUME id="4">
                        <par name="vol" value="0"/>
                      </VOLUME>
                      <VOLUME id="5">
                        <par name="vol" value="0"/>
                      </VOLUME>
                      <VOLUME id="6">
                        <par name="vol" value="0"/>
                      </VOLUME>
                      <VOLUME id="7">
                        <par name="vol" value="0"/>
                      </VOLUME>
                      <VOLUME id="8">
                        <par name="vol" value="0"/>
                      </VOLUME>
                      <VOLUME id="9">
                        <par name="vol" value="0"/>
                      </VOLUME>
                      <VOLUME id="10">
                        <par name="vol" value="0"/>
                      </VOLUME>
                      <VOLUME id="11">
                        <par name="vol" value="0"/>
                      </VOLUME>
                      <VOLUME id="12">
                        <par name="vol" value="0"/>
                      </VOLUME>
                      <VOLUME id="13">
                        <par name="vol" value="0"/>
                      </VOLUME>
                      <VOLUME id="14">
                        <par name="vol" value="0"/>
                      </VOLUME>
                      <VOLUME id="15">
                        <par name="vol" value="0"/>
                      </VOLUME>
                      <SENDTO id="3">
                        <par name="send_vol" value="0"/>
                      </SENDTO>
                    </SYSTEM_EFFECT>
                    <SYSTEM_EFFECT id="3">
                      <EFFECT>
                        <par name="type" value="0"/>
                      </EFFECT>
                      <VOLUME id="0">
                        <par name="vol" value="0"/>
                      </VOLUME>
                      <VOLUME id="1">
                        <par name="vol" value="0"/>
                      </VOLUME>
                      <VOLUME id="2">
                        <par name="vol" value="0"/>
                      </VOLUME>
                      <VOLUME id="3">
                        <par name="vol" value="0"/>
                      </VOLUME>
                      <VOLUME id="4">
                        <par name="vol" value="0"/>
                      </VOLUME>
                      <VOLUME id="5">
                        <par name="vol" value="0"/>
                      </VOLUME>
                      <VOLUME id="6">
                        <par name="vol" value="0"/>
                      </VOLUME>
                      <VOLUME id="7">
                        <par name="vol" value="0"/>
                      </VOLUME>
                      <VOLUME id="8">
                        <par name="vol" value="0"/>
                      </VOLUME>
                      <VOLUME id="9">
                        <par name="vol" value="0"/>
                      </VOLUME>
                      <VOLUME id="10">
                        <par name="vol" value="0"/>
                      </VOLUME>
                      <VOLUME id="11">
                        <par name="vol" value="0"/>
                      </VOLUME>
                      <VOLUME id="12">
                        <par name="vol" value="0"/>
                      </VOLUME>
                      <VOLUME id="13">
                        <par name="vol" value="0"/>
                      </VOLUME>
                      <VOLUME id="14">
                        <par name="vol" value="0"/>
                      </VOLUME>
                      <VOLUME id="15">
                        <par name="vol" value="0"/>
                      </VOLUME>
                    </SYSTEM_EFFECT>
                  </SYSTEM_EFFECTS>
                  <INSERTION_EFFECTS>
                    <INSERTION_EFFECT id="0">
                      <par name="part" value="-1"/>
                      <EFFECT>
                        <par name="type" value="0"/>
                      </EFFECT>
                    </INSERTION_EFFECT>
                    <INSERTION_EFFECT id="1">
                      <par name="part" value="-1"/>
                      <EFFECT>
                        <par name="type" value="0"/>
                      </EFFECT>
                    </INSERTION_EFFECT>
                    <INSERTION_EFFECT id="2">
                      <par name="part" value="-1"/>
                      <EFFECT>
                        <par name="type" value="0"/>
                      </EFFECT>
                    </INSERTION_EFFECT>
                    <INSERTION_EFFECT id="3">
                      <par name="part" value="-1"/>
                      <EFFECT>
                        <par name="type" value="0"/>
                      </EFFECT>
                    </INSERTION_EFFECT>
                    <INSERTION_EFFECT id="4">
                      <par name="part" value="-1"/>
                      <EFFECT>
                        <par name="type" value="0"/>
                      </EFFECT>
                    </INSERTION_EFFECT>
                    <INSERTION_EFFECT id="5">
                      <par name="part" value="-1"/>
                      <EFFECT>
                        <par name="type" value="0"/>
                      </EFFECT>
                    </INSERTION_EFFECT>
                    <INSERTION_EFFECT id="6">
                      <par name="part" value="-1"/>
                      <EFFECT>
                        <par name="type" value="0"/>
                      </EFFECT>
                    </INSERTION_EFFECT>
                    <INSERTION_EFFECT id="7">
                      <par name="part" value="-1"/>
                      <EFFECT>
                        <par name="type" value="0"/>
                      </EFFECT>
                    </INSERTION_EFFECT>
                  </INSERTION_EFFECTS>
                </MASTER>
              </ZynAddSubFX-data>
            </zynaddsubfx>
          </instrument>
          <eldata ftype="0" fcut="14000" fres="0.5" fwet="0">
            <elvol userwavefile="" hold="0.5" lspd_numerator="4" lspd="0.1" lspd_denominator="4" lshp="0" latt="0" rel="0.1" x100="0" pdel="0" lpdel="0" amt="0" lspd_syncmode="0" dec="0.5" lamt="0" sustain="0.5" ctlenvamt="0" att="0"/>
            <elcut userwavefile="" hold="0.5" lspd_numerator="4" lspd="0.1" lspd_denominator="4" lshp="0" latt="0" rel="0.1" x100="0" pdel="0" lpdel="0" amt="0" lspd_syncmode="0" dec="0.5" lamt="0" sustain="0.5" ctlenvamt="0" att="0"/>
            <elres userwavefile="" hold="0.5" lspd_numerator="4" lspd="0.1" lspd_denominator="4" lshp="0" latt="0" rel="0.1" x100="0" pdel="0" lpdel="0" amt="0" lspd_syncmode="0" dec="0.5" lamt="0" sustain="0.5" ctlenvamt="0" att="0"/>
          </eldata>
          <chordcreator chord-enabled="0" chordrange="1" chord="0"/>
          <arpeggiator arpcycle="0" arptime_syncmode="0" arptime_numerator="4" arpgate="100" arpmode="0" arp-enabled="0" arptime="200" arp="0" arpskip="0" arpmiss="0" arprange="1" arpdir="0" arptime_denominator="4"/>
          <midiport inputchannel="0" outputprogram="1" basevelocity="63" outputchannel="1" fixedinputvelocity="-1" inputcontroller="0" readable="0" writable="0" outputcontroller="0" fixedoutputvelocity="-1" fixedoutputnote="-1"/>
          <fxchain numofeffects="0" enabled="0"/>
        </instrumenttrack>
        <pattern muted="0" name="ZynAddSubFX" pos="0" type="1" steps="16">
          <note len="72" key="59" vol="191" pos="0" pan="0"/>
          <note len="72" key="55" vol="191" pos="0" pan="0"/>
          <note len="72" key="52" vol="191" pos="0" pan="0"/>
          <note len="264" key="57" vol="191" pos="192" pan="0"/>
          <note len="264" key="54" vol="191" pos="192" pan="0"/>
          <note len="264" key="50" vol="191" pos="192" pan="0"/>
          <note len="384" key="59" vol="191" pos="576" pan="0"/>
          <note len="384" key="55" vol="191" pos="576" pan="0"/>
          <note len="384" key="52" vol="191" pos="576" pan="0"/>
          <note len="192" key="60" vol="191" pos="960" pan="0"/>
          <note len="192" key="55" vol="191" pos="960" pan="0"/>
          <note len="192" key="52" vol="191" pos="960" pan="0"/>
          <note len="192" key="62" vol="191" pos="1152" pan="0"/>
          <note len="192" key="57" vol="191" pos="1152" pan="0"/>
          <note len="192" key="54" vol="191" pos="1152" pan="0"/>
          <note len="192" key="64" vol="191" pos="1344" pan="0"/>
          <note len="192" key="59" vol="191" pos="1344" pan="0"/>
          <note len="192" key="55" vol="191" pos="1344" pan="0"/>
        </pattern>
        <pattern muted="0" name="ZynAddSubFX" pos="7680" type="1" steps="16">
          <note len="48" key="64" vol="193" pos="0" pan="0"/>
          <note len="48" key="60" vol="193" pos="0" pan="0"/>
          <note len="48" key="60" vol="193" pos="48" pan="0"/>
          <note len="48" key="55" vol="193" pos="48" pan="0"/>
          <note len="48" key="64" vol="193" pos="96" pan="0"/>
          <note len="48" key="60" vol="193" pos="96" pan="0"/>
          <note len="48" key="67" vol="193" pos="144" pan="0"/>
          <note len="48" key="64" vol="193" pos="144" pan="0"/>
          <note len="48" key="62" vol="193" pos="192" pan="0"/>
          <note len="48" key="59" vol="193" pos="192" pan="0"/>
          <note len="48" key="59" vol="193" pos="240" pan="0"/>
          <note len="48" key="55" vol="193" pos="240" pan="0"/>
          <note len="48" key="62" vol="193" pos="288" pan="0"/>
          <note len="48" key="59" vol="193" pos="288" pan="0"/>
          <note len="48" key="67" vol="193" pos="336" pan="0"/>
          <note len="48" key="62" vol="193" pos="336" pan="0"/>
          <note len="48" key="66" vol="193" pos="384" pan="0"/>
          <note len="48" key="62" vol="193" pos="384" pan="0"/>
          <note len="48" key="62" vol="193" pos="432" pan="0"/>
          <note len="48" key="57" vol="193" pos="432" pan="0"/>
          <note len="48" key="69" vol="193" pos="480" pan="0"/>
          <note len="48" key="66" vol="193" pos="480" pan="0"/>
          <note len="48" key="66" vol="193" pos="528" pan="0"/>
          <note len="48" key="62" vol="193" pos="528" pan="0"/>
          <note len="48" key="71" vol="193" pos="576" pan="0"/>
          <note len="48" key="67" vol="193" pos="576" pan="0"/>
          <note len="48" key="64" vol="193" pos="624" pan="0"/>
          <note len="48" key="59" vol="193" pos="624" pan="0"/>
          <note len="48" key="67" vol="193" pos="672" pan="0"/>
          <note len="48" key="64" vol="193" pos="672" pan="0"/>
          <note len="48" key="64" vol="193" pos="720" pan="0"/>
          <note len="48" key="59" vol="193" pos="720" pan="0"/>
        </pattern>
        <pattern muted="0" name="ZynAddSubFX" pos="8448" type="1" steps="16">
          <note len="48" key="64" vol="193" pos="0" pan="0"/>
          <note len="48" key="60" vol="193" pos="0" pan="0"/>
          <note len="48" key="60" vol="193" pos="48" pan="0"/>
          <note len="48" key="55" vol="193" pos="48" pan="0"/>
          <note len="48" key="64" vol="193" pos="96" pan="0"/>
          <note len="48" key="60" vol="193" pos="96" pan="0"/>
          <note len="48" key="67" vol="193" pos="144" pan="0"/>
          <note len="48" key="64" vol="193" pos="144" pan="0"/>
          <note len="48" key="62" vol="193" pos="192" pan="0"/>
          <note len="48" key="59" vol="193" pos="192" pan="0"/>
          <note len="48" key="59" vol="193" pos="240" pan="0"/>
          <note len="48" key="55" vol="193" pos="240" pan="0"/>
          <note len="48" key="62" vol="193" pos="288" pan="0"/>
          <note len="48" key="59" vol="193" pos="288" pan="0"/>
          <note len="48" key="67" vol="193" pos="336" pan="0"/>
          <note len="48" key="62" vol="193" pos="336" pan="0"/>
          <note len="48" key="66" vol="193" pos="384" pan="0"/>
          <note len="48" key="62" vol="193" pos="384" pan="0"/>
          <note len="48" key="62" vol="193" pos="432" pan="0"/>
          <note len="48" key="57" vol="193" pos="432" pan="0"/>
          <note len="48" key="69" vol="193" pos="480" pan="0"/>
          <note len="48" key="66" vol="193" pos="480" pan="0"/>
          <note len="48" key="66" vol="193" pos="528" pan="0"/>
          <note len="48" key="62" vol="193" pos="528" pan="0"/>
          <note len="48" key="74" vol="193" pos="576" pan="0"/>
          <note len="48" key="69" vol="193" pos="576" pan="0"/>
        </pattern>
        <pattern muted="0" name="ZynAddSubFX" pos="9216" type="1" steps="16">
          <note len="144" key="71" vol="191" pos="0" pan="0"/>
          <note len="384" key="62" vol="191" pos="0" pan="0"/>
          <note len="384" key="59" vol="191" pos="0" pan="0"/>
          <note len="384" key="55" vol="191" pos="0" pan="0"/>
          <note len="48" key="72" vol="191" pos="144" pan="0"/>
          <note len="48" key="71" vol="191" pos="192" pan="0"/>
          <note len="48" key="69" vol="191" pos="240" pan="0"/>
          <note len="48" key="67" vol="191" pos="288" pan="0"/>
          <note len="48" key="71" vol="191" pos="336" pan="0"/>
          <note len="72" key="69" vol="191" pos="384" pan="0"/>
          <note len="384" key="62" vol="191" pos="384" pan="0"/>
          <note len="384" key="57" vol="191" pos="384" pan="0"/>
          <note len="384" key="54" vol="191" pos="384" pan="0"/>
          <note len="72" key="74" vol="191" pos="456" pan="0"/>
          <note len="48" key="78" vol="191" pos="528" pan="0"/>
          <note len="48" key="79" vol="191" pos="576" pan="0"/>
          <note len="48" key="78" vol="191" pos="624" pan="0"/>
          <note len="48" key="76" vol="191" pos="672" pan="0"/>
          <note len="48" key="74" vol="191" pos="720" pan="0"/>
          <note len="144" key="71" vol="191" pos="768" pan="0"/>
          <note len="192" key="64" vol="191" pos="768" pan="0"/>
          <note len="192" key="59" vol="191" pos="768" pan="0"/>
          <note len="192" key="55" vol="191" pos="768" pan="0"/>
          <note len="24" key="72" vol="191" pos="912" pan="0"/>
          <note len="24" key="71" vol="191" pos="936" pan="0"/>
          <note len="72" key="69" vol="191" pos="960" pan="0"/>
          <note len="192" key="62" vol="191" pos="960" pan="0"/>
          <note len="192" key="57" vol="191" pos="960" pan="0"/>
          <note len="192" key="54" vol="191" pos="960" pan="0"/>
          <note len="72" key="67" vol="191" pos="1032" pan="0"/>
          <note len="48" key="66" vol="191" pos="1104" pan="0"/>
          <note len="96" key="67" vol="191" pos="1152" pan="0"/>
          <note len="192" key="60" vol="191" pos="1152" pan="0"/>
          <note len="192" key="55" vol="191" pos="1152" pan="0"/>
          <note len="192" key="52" vol="191" pos="1152" pan="0"/>
          <note len="48" key="69" vol="191" pos="1248" pan="0"/>
          <note len="48" key="71" vol="191" pos="1296" pan="0"/>
          <note len="48" key="69" vol="191" pos="1344" pan="0"/>
          <note len="192" key="62" vol="191" pos="1344" pan="0"/>
          <note len="192" key="57" vol="191" pos="1344" pan="0"/>
          <note len="192" key="54" vol="191" pos="1344" pan="0"/>
          <note len="12" key="66" vol="191" pos="1392" pan="0"/>
          <note len="12" key="66" vol="191" pos="1404" pan="0"/>
          <note len="12" key="66" vol="191" pos="1416" pan="0"/>
          <note len="12" key="66" vol="191" pos="1428" pan="0"/>
          <note len="12" key="67" vol="191" pos="1440" pan="0"/>
          <note len="12" key="67" vol="191" pos="1452" pan="0"/>
          <note len="12" key="67" vol="191" pos="1464" pan="0"/>
          <note len="12" key="67" vol="191" pos="1476" pan="0"/>
          <note len="12" key="69" vol="191" pos="1488" pan="0"/>
          <note len="12" key="69" vol="191" pos="1500" pan="0"/>
          <note len="12" key="69" vol="191" pos="1512" pan="0"/>
          <note len="12" key="69" vol="191" pos="1524" pan="0"/>
        </pattern>
        <pattern muted="0" name="ZynAddSubFX" pos="10752" type="1" steps="16">
          <note len="144" key="71" vol="191" pos="0" pan="0"/>
          <note len="384" key="62" vol="191" pos="0" pan="0"/>
          <note len="384" key="59" vol="191" pos="0" pan="0"/>
          <note len="384" key="55" vol="191" pos="0" pan="0"/>
          <note len="48" key="72" vol="191" pos="144" pan="0"/>
          <note len="48" key="71" vol="191" pos="192" pan="0"/>
          <note len="48" key="69" vol="191" pos="240" pan="0"/>
          <note len="48" key="67" vol="191" pos="288" pan="0"/>
          <note len="48" key="71" vol="191" pos="336" pan="0"/>
          <note len="72" key="69" vol="191" pos="384" pan="0"/>
          <note len="384" key="62" vol="191" pos="384" pan="0"/>
          <note len="384" key="57" vol="191" pos="384" pan="0"/>
          <note len="384" key="54" vol="191" pos="384" pan="0"/>
          <note len="72" key="74" vol="191" pos="456" pan="0"/>
          <note len="48" key="78" vol="191" pos="528" pan="0"/>
          <note len="48" key="79" vol="191" pos="576" pan="0"/>
          <note len="48" key="78" vol="191" pos="624" pan="0"/>
          <note len="48" key="76" vol="191" pos="672" pan="0"/>
          <note len="48" key="74" vol="191" pos="720" pan="0"/>
          <note len="144" key="71" vol="191" pos="768" pan="0"/>
          <note len="192" key="64" vol="191" pos="768" pan="0"/>
          <note len="192" key="59" vol="191" pos="768" pan="0"/>
          <note len="192" key="55" vol="191" pos="768" pan="0"/>
          <note len="24" key="72" vol="191" pos="912" pan="0"/>
          <note len="24" key="71" vol="191" pos="936" pan="0"/>
          <note len="72" key="69" vol="191" pos="960" pan="0"/>
          <note len="192" key="62" vol="191" pos="960" pan="0"/>
          <note len="192" key="57" vol="191" pos="960" pan="0"/>
          <note len="192" key="54" vol="191" pos="960" pan="0"/>
          <note len="72" key="67" vol="191" pos="1032" pan="0"/>
          <note len="48" key="66" vol="191" pos="1104" pan="0"/>
          <note len="96" key="67" vol="191" pos="1152" pan="0"/>
          <note len="192" key="60" vol="191" pos="1152" pan="0"/>
          <note len="192" key="55" vol="191" pos="1152" pan="0"/>
          <note len="192" key="52" vol="191" pos="1152" pan="0"/>
          <note len="48" key="69" vol="191" pos="1248" pan="0"/>
          <note len="48" key="71" vol="191" pos="1296" pan="0"/>
          <note len="48" key="69" vol="191" pos="1344" pan="0"/>
          <note len="192" key="62" vol="191" pos="1344" pan="0"/>
          <note len="192" key="57" vol="191" pos="1344" pan="0"/>
          <note len="192" key="54" vol="191" pos="1344" pan="0"/>
          <note len="12" key="66" vol="191" pos="1392" pan="0"/>
          <note len="12" key="66" vol="191" pos="1404" pan="0"/>
          <note len="12" key="66" vol="191" pos="1416" pan="0"/>
          <note len="12" key="66" vol="191" pos="1428" pan="0"/>
          <note len="12" key="67" vol="191" pos="1440" pan="0"/>
          <note len="12" key="67" vol="191" pos="1452" pan="0"/>
          <note len="12" key="67" vol="191" pos="1464" pan="0"/>
          <note len="12" key="67" vol="191" pos="1476" pan="0"/>
          <note len="12" key="69" vol="191" pos="1488" pan="0"/>
          <note len="12" key="69" vol="191" pos="1500" pan="0"/>
          <note len="12" key="69" vol="191" pos="1512" pan="0"/>
          <note len="12" key="69" vol="191" pos="1524" pan="0"/>
        </pattern>
        <pattern muted="0" name="ZynAddSubFX" pos="1536" type="1" steps="16">
          <note len="192" key="52" vol="191" pos="0" pan="0"/>
          <note len="192" key="43" vol="191" pos="0" pan="0"/>
          <note len="192" key="48" vol="191" pos="192" pan="0"/>
          <note len="192" key="40" vol="191" pos="192" pan="0"/>
          <note len="192" key="55" vol="191" pos="384" pan="0"/>
          <note len="192" key="47" vol="191" pos="384" pan="0"/>
          <note len="192" key="50" vol="191" pos="576" pan="0"/>
          <note len="192" key="42" vol="191" pos="576" pan="0"/>
        </pattern>
        <pattern muted="0" name="ZynAddSubFX" pos="2304" type="1" steps="16">
          <note len="192" key="52" vol="191" pos="0" pan="0"/>
          <note len="192" key="43" vol="191" pos="0" pan="0"/>
          <note len="192" key="48" vol="191" pos="192" pan="0"/>
          <note len="192" key="40" vol="191" pos="192" pan="0"/>
          <note len="192" key="47" vol="191" pos="384" pan="0"/>
          <note len="192" key="43" vol="191" pos="384" pan="0"/>
          <note len="144" key="52" vol="191" pos="576" pan="0"/>
          <note len="144" key="48" vol="191" pos="576" pan="0"/>
          <note len="48" key="54" vol="191" pos="720" pan="0"/>
          <note len="48" key="50" vol="191" pos="720" pan="0"/>
        </pattern>
        <pattern muted="0" name="ZynAddSubFX" pos="3072" type="1" steps="16">
          <note len="192" key="55" vol="191" pos="0" pan="0"/>
          <note len="192" key="52" vol="191" pos="0" pan="0"/>
          <note len="192" key="52" vol="191" pos="192" pan="0"/>
          <note len="192" key="48" vol="191" pos="192" pan="0"/>
          <note len="192" key="59" vol="191" pos="384" pan="0"/>
          <note len="192" key="55" vol="191" pos="384" pan="0"/>
          <note len="192" key="54" vol="191" pos="576" pan="0"/>
          <note len="192" key="50" vol="191" pos="576" pan="0"/>
        </pattern>
        <pattern muted="0" name="ZynAddSubFX" pos="3840" type="1" steps="16">
          <note len="192" key="55" vol="191" pos="0" pan="0"/>
          <note len="192" key="52" vol="191" pos="0" pan="0"/>
          <note len="192" key="52" vol="191" pos="192" pan="0"/>
          <note len="192" key="48" vol="191" pos="192" pan="0"/>
          <note len="192" key="59" vol="191" pos="384" pan="0"/>
          <note len="192" key="55" vol="191" pos="384" pan="0"/>
          <note len="48" key="59" vol="191" pos="576" pan="0"/>
          <note len="48" key="55" vol="191" pos="576" pan="0"/>
          <note len="48" key="57" vol="191" pos="624" pan="0"/>
          <note len="48" key="54" vol="191" pos="624" pan="0"/>
          <note len="48" key="55" vol="191" pos="672" pan="0"/>
          <note len="48" key="52" vol="191" pos="672" pan="0"/>
          <note len="48" key="54" vol="191" pos="720" pan="0"/>
          <note len="48" key="50" vol="191" pos="720" pan="0"/>
        </pattern>
        <pattern muted="0" name="ZynAddSubFX" pos="12288" type="1" steps="16">
          <note len="384" key="59" vol="193" pos="0" pan="0"/>
          <note len="384" key="52" vol="193" pos="0" pan="0"/>
          <note len="384" key="62" vol="193" pos="384" pan="0"/>
          <note len="384" key="55" vol="193" pos="384" pan="0"/>
          <note len="384" key="55" vol="193" pos="768" pan="0"/>
          <note len="384" key="48" vol="193" pos="768" pan="0"/>
          <note len="192" key="62" vol="193" pos="1152" pan="0"/>
          <note len="192" key="55" vol="193" pos="1152" pan="0"/>
          <note len="192" key="62" vol="193" pos="1344" pan="0"/>
          <note len="192" key="57" vol="193" pos="1344" pan="0"/>
        </pattern>
        <pattern muted="0" name="ZynAddSubFX" pos="13824" type="1" steps="16">
          <note len="24" key="76" vol="189" pos="0" pan="0"/>
          <note len="24" key="64" vol="189" pos="0" pan="0"/>
          <note len="24" key="76" vol="189" pos="24" pan="0"/>
          <note len="24" key="64" vol="189" pos="24" pan="0"/>
          <note len="24" key="76" vol="189" pos="192" pan="0"/>
          <note len="24" key="67" vol="189" pos="192" pan="0"/>
          <note len="24" key="74" vol="189" pos="264" pan="0"/>
          <note len="24" key="66" vol="189" pos="264" pan="0"/>
          <note len="24" key="76" vol="189" pos="336" pan="0"/>
          <note len="24" key="67" vol="189" pos="336" pan="0"/>
        </pattern>
        <pattern muted="0" name="ZynAddSubFX" pos="18432" type="1" steps="16">
          <note len="144" key="71" vol="191" pos="0" pan="0"/>
          <note len="384" key="62" vol="191" pos="0" pan="0"/>
          <note len="384" key="59" vol="191" pos="0" pan="0"/>
          <note len="384" key="55" vol="191" pos="0" pan="0"/>
          <note len="48" key="72" vol="191" pos="144" pan="0"/>
          <note len="48" key="71" vol="191" pos="192" pan="0"/>
          <note len="48" key="69" vol="191" pos="240" pan="0"/>
          <note len="48" key="67" vol="191" pos="288" pan="0"/>
          <note len="48" key="71" vol="191" pos="336" pan="0"/>
          <note len="72" key="69" vol="191" pos="384" pan="0"/>
          <note len="384" key="62" vol="191" pos="384" pan="0"/>
          <note len="384" key="57" vol="191" pos="384" pan="0"/>
          <note len="384" key="54" vol="191" pos="384" pan="0"/>
          <note len="72" key="74" vol="191" pos="456" pan="0"/>
          <note len="48" key="78" vol="191" pos="528" pan="0"/>
          <note len="48" key="79" vol="191" pos="576" pan="0"/>
          <note len="48" key="78" vol="191" pos="624" pan="0"/>
          <note len="48" key="76" vol="191" pos="672" pan="0"/>
          <note len="48" key="74" vol="191" pos="720" pan="0"/>
          <note len="144" key="71" vol="191" pos="768" pan="0"/>
          <note len="192" key="64" vol="191" pos="768" pan="0"/>
          <note len="192" key="59" vol="191" pos="768" pan="0"/>
          <note len="192" key="55" vol="191" pos="768" pan="0"/>
          <note len="24" key="72" vol="191" pos="912" pan="0"/>
          <note len="24" key="71" vol="191" pos="936" pan="0"/>
          <note len="72" key="69" vol="191" pos="960" pan="0"/>
          <note len="192" key="62" vol="191" pos="960" pan="0"/>
          <note len="192" key="57" vol="191" pos="960" pan="0"/>
          <note len="192" key="54" vol="191" pos="960" pan="0"/>
          <note len="72" key="67" vol="191" pos="1032" pan="0"/>
          <note len="48" key="66" vol="191" pos="1104" pan="0"/>
          <note len="96" key="67" vol="191" pos="1152" pan="0"/>
          <note len="192" key="60" vol="191" pos="1152" pan="0"/>
          <note len="192" key="55" vol="191" pos="1152" pan="0"/>
          <note len="192" key="52" vol="191" pos="1152" pan="0"/>
          <note len="48" key="69" vol="191" pos="1248" pan="0"/>
          <note len="48" key="71" vol="191" pos="1296" pan="0"/>
          <note len="48" key="69" vol="191" pos="1344" pan="0"/>
          <note len="192" key="62" vol="191" pos="1344" pan="0"/>
          <note len="192" key="57" vol="191" pos="1344" pan="0"/>
          <note len="192" key="54" vol="191" pos="1344" pan="0"/>
          <note len="12" key="66" vol="191" pos="1392" pan="0"/>
          <note len="12" key="66" vol="191" pos="1404" pan="0"/>
          <note len="12" key="66" vol="191" pos="1416" pan="0"/>
          <note len="12" key="66" vol="191" pos="1428" pan="0"/>
          <note len="12" key="67" vol="191" pos="1440" pan="0"/>
          <note len="12" key="67" vol="191" pos="1452" pan="0"/>
          <note len="12" key="67" vol="191" pos="1464" pan="0"/>
          <note len="12" key="67" vol="191" pos="1476" pan="0"/>
          <note len="12" key="69" vol="191" pos="1488" pan="0"/>
          <note len="12" key="69" vol="191" pos="1500" pan="0"/>
          <note len="12" key="69" vol="191" pos="1512" pan="0"/>
          <note len="12" key="69" vol="191" pos="1524" pan="0"/>
        </pattern>
        <pattern muted="0" name="ZynAddSubFX" pos="19968" type="1" steps="16">
          <note len="144" key="71" vol="191" pos="0" pan="0"/>
          <note len="384" key="62" vol="191" pos="0" pan="0"/>
          <note len="384" key="59" vol="191" pos="0" pan="0"/>
          <note len="384" key="55" vol="191" pos="0" pan="0"/>
          <note len="48" key="72" vol="191" pos="144" pan="0"/>
          <note len="48" key="71" vol="191" pos="192" pan="0"/>
          <note len="48" key="69" vol="191" pos="240" pan="0"/>
          <note len="48" key="67" vol="191" pos="288" pan="0"/>
          <note len="48" key="71" vol="191" pos="336" pan="0"/>
          <note len="72" key="69" vol="191" pos="384" pan="0"/>
          <note len="384" key="62" vol="191" pos="384" pan="0"/>
          <note len="384" key="57" vol="191" pos="384" pan="0"/>
          <note len="384" key="54" vol="191" pos="384" pan="0"/>
          <note len="72" key="74" vol="191" pos="456" pan="0"/>
          <note len="48" key="78" vol="191" pos="528" pan="0"/>
          <note len="48" key="79" vol="191" pos="576" pan="0"/>
          <note len="48" key="78" vol="191" pos="624" pan="0"/>
          <note len="48" key="76" vol="191" pos="672" pan="0"/>
          <note len="48" key="74" vol="191" pos="720" pan="0"/>
          <note len="144" key="71" vol="191" pos="768" pan="0"/>
          <note len="192" key="64" vol="191" pos="768" pan="0"/>
          <note len="192" key="59" vol="191" pos="768" pan="0"/>
          <note len="192" key="55" vol="191" pos="768" pan="0"/>
          <note len="24" key="72" vol="191" pos="912" pan="0"/>
          <note len="24" key="71" vol="191" pos="936" pan="0"/>
          <note len="72" key="69" vol="191" pos="960" pan="0"/>
          <note len="192" key="62" vol="191" pos="960" pan="0"/>
          <note len="192" key="57" vol="191" pos="960" pan="0"/>
          <note len="192" key="54" vol="191" pos="960" pan="0"/>
          <note len="72" key="67" vol="191" pos="1032" pan="0"/>
          <note len="48" key="66" vol="191" pos="1104" pan="0"/>
          <note len="96" key="67" vol="191" pos="1152" pan="0"/>
          <note len="192" key="60" vol="191" pos="1152" pan="0"/>
          <note len="192" key="55" vol="191" pos="1152" pan="0"/>
          <note len="192" key="52" vol="191" pos="1152" pan="0"/>
          <note len="48" key="69" vol="191" pos="1248" pan="0"/>
          <note len="48" key="71" vol="191" pos="1296" pan="0"/>
          <note len="48" key="69" vol="191" pos="1344" pan="0"/>
          <note len="192" key="62" vol="191" pos="1344" pan="0"/>
          <note len="192" key="57" vol="191" pos="1344" pan="0"/>
          <note len="192" key="54" vol="191" pos="1344" pan="0"/>
          <note len="12" key="66" vol="191" pos="1392" pan="0"/>
          <note len="12" key="66" vol="191" pos="1404" pan="0"/>
          <note len="12" key="66" vol="191" pos="1416" pan="0"/>
          <note len="12" key="66" vol="191" pos="1428" pan="0"/>
          <note len="12" key="67" vol="191" pos="1440" pan="0"/>
          <note len="12" key="67" vol="191" pos="1452" pan="0"/>
          <note len="12" key="67" vol="191" pos="1464" pan="0"/>
          <note len="12" key="67" vol="191" pos="1476" pan="0"/>
          <note len="12" key="69" vol="191" pos="1488" pan="0"/>
          <note len="12" key="69" vol="191" pos="1500" pan="0"/>
          <note len="12" key="69" vol="191" pos="1512" pan="0"/>
          <note len="12" key="69" vol="191" pos="1524" pan="0"/>
        </pattern>
        <pattern muted="0" name="ZynAddSubFX" pos="16896" type="1" steps="16">
          <note len="48" key="64" vol="193" pos="0" pan="0"/>
          <note len="48" key="60" vol="193" pos="0" pan="0"/>
          <note len="48" key="60" vol="193" pos="48" pan="0"/>
          <note len="48" key="55" vol="193" pos="48" pan="0"/>
          <note len="48" key="64" vol="193" pos="96" pan="0"/>
          <note len="48" key="60" vol="193" pos="96" pan="0"/>
          <note len="48" key="67" vol="193" pos="144" pan="0"/>
          <note len="48" key="64" vol="193" pos="144" pan="0"/>
          <note len="48" key="62" vol="193" pos="192" pan="0"/>
          <note len="48" key="59" vol="193" pos="192" pan="0"/>
          <note len="48" key="59" vol="193" pos="240" pan="0"/>
          <note len="48" key="55" vol="193" pos="240" pan="0"/>
          <note len="48" key="62" vol="193" pos="288" pan="0"/>
          <note len="48" key="59" vol="193" pos="288" pan="0"/>
          <note len="48" key="67" vol="193" pos="336" pan="0"/>
          <note len="48" key="62" vol="193" pos="336" pan="0"/>
          <note len="48" key="66" vol="193" pos="384" pan="0"/>
          <note len="48" key="62" vol="193" pos="384" pan="0"/>
          <note len="48" key="62" vol="193" pos="432" pan="0"/>
          <note len="48" key="57" vol="193" pos="432" pan="0"/>
          <note len="48" key="69" vol="193" pos="480" pan="0"/>
          <note len="48" key="66" vol="193" pos="480" pan="0"/>
          <note len="48" key="66" vol="193" pos="528" pan="0"/>
          <note len="48" key="62" vol="193" pos="528" pan="0"/>
          <note len="48" key="71" vol="193" pos="576" pan="0"/>
          <note len="48" key="67" vol="193" pos="576" pan="0"/>
          <note len="48" key="64" vol="193" pos="624" pan="0"/>
          <note len="48" key="59" vol="193" pos="624" pan="0"/>
          <note len="48" key="67" vol="193" pos="672" pan="0"/>
          <note len="48" key="64" vol="193" pos="672" pan="0"/>
          <note len="48" key="64" vol="193" pos="720" pan="0"/>
          <note len="48" key="59" vol="193" pos="720" pan="0"/>
        </pattern>
        <pattern muted="0" name="ZynAddSubFX" pos="17664" type="1" steps="16">
          <note len="48" key="64" vol="193" pos="0" pan="0"/>
          <note len="48" key="60" vol="193" pos="0" pan="0"/>
          <note len="48" key="60" vol="193" pos="48" pan="0"/>
          <note len="48" key="55" vol="193" pos="48" pan="0"/>
          <note len="48" key="64" vol="193" pos="96" pan="0"/>
          <note len="48" key="60" vol="193" pos="96" pan="0"/>
          <note len="48" key="67" vol="193" pos="144" pan="0"/>
          <note len="48" key="64" vol="193" pos="144" pan="0"/>
          <note len="48" key="62" vol="193" pos="192" pan="0"/>
          <note len="48" key="59" vol="193" pos="192" pan="0"/>
          <note len="48" key="59" vol="193" pos="240" pan="0"/>
          <note len="48" key="55" vol="193" pos="240" pan="0"/>
          <note len="48" key="62" vol="193" pos="288" pan="0"/>
          <note len="48" key="59" vol="193" pos="288" pan="0"/>
          <note len="48" key="67" vol="193" pos="336" pan="0"/>
          <note len="48" key="62" vol="193" pos="336" pan="0"/>
          <note len="48" key="66" vol="193" pos="384" pan="0"/>
          <note len="48" key="62" vol="193" pos="384" pan="0"/>
          <note len="48" key="62" vol="193" pos="432" pan="0"/>
          <note len="48" key="57" vol="193" pos="432" pan="0"/>
          <note len="48" key="69" vol="193" pos="480" pan="0"/>
          <note len="48" key="66" vol="193" pos="480" pan="0"/>
          <note len="48" key="66" vol="193" pos="528" pan="0"/>
          <note len="48" key="62" vol="193" pos="528" pan="0"/>
          <note len="48" key="69" vol="193" pos="576" pan="0"/>
          <note len="48" key="66" vol="193" pos="576" pan="0"/>
          <note len="48" key="66" vol="193" pos="624" pan="0"/>
          <note len="48" key="62" vol="193" pos="624" pan="0"/>
          <note len="48" key="62" vol="193" pos="672" pan="0"/>
          <note len="48" key="57" vol="193" pos="672" pan="0"/>
          <note len="48" key="66" vol="193" pos="720" pan="0"/>
          <note len="48" key="62" vol="193" pos="720" pan="0"/>
        </pattern>
        <pattern muted="0" name="ZynAddSubFX" pos="22272" type="1" steps="16">
          <note len="384" key="59" vol="197" pos="0" pan="0"/>
          <note len="384" key="55" vol="197" pos="0" pan="0"/>
          <note len="384" key="52" vol="197" pos="0" pan="0"/>
          <note len="192" key="60" vol="197" pos="384" pan="0"/>
          <note len="192" key="55" vol="197" pos="384" pan="0"/>
          <note len="192" key="52" vol="197" pos="384" pan="0"/>
          <note len="192" key="62" vol="197" pos="576" pan="0"/>
          <note len="192" key="57" vol="197" pos="576" pan="0"/>
          <note len="192" key="54" vol="197" pos="576" pan="0"/>
        </pattern>
        <pattern muted="0" name="ZynAddSubFX" pos="23040" type="1" steps="16">
          <note len="384" key="52" vol="197" pos="0" pan="0"/>
          <note len="384" key="47" vol="197" pos="0" pan="0"/>
          <note len="384" key="43" vol="197" pos="0" pan="0"/>
          <note len="384" key="55" vol="197" pos="384" pan="0"/>
          <note len="384" key="52" vol="197" pos="384" pan="0"/>
          <note len="384" key="47" vol="197" pos="384" pan="0"/>
        </pattern>
        <pattern muted="0" name="ZynAddSubFX" pos="23808" type="1" steps="16">
          <note len="384" key="52" vol="197" pos="0" pan="0"/>
          <note len="384" key="47" vol="197" pos="0" pan="0"/>
          <note len="384" key="43" vol="197" pos="0" pan="0"/>
          <note len="192" key="55" vol="197" pos="384" pan="0"/>
          <note len="192" key="52" vol="197" pos="384" pan="0"/>
          <note len="192" key="48" vol="197" pos="384" pan="0"/>
          <note len="96" key="55" vol="197" pos="576" pan="0"/>
          <note len="96" key="50" vol="197" pos="576" pan="0"/>
          <note len="96" key="47" vol="197" pos="576" pan="0"/>
          <note len="96" key="54" vol="197" pos="672" pan="0"/>
          <note len="96" key="50" vol="197" pos="672" pan="0"/>
          <note len="96" key="47" vol="197" pos="672" pan="0"/>
        </pattern>
        <pattern muted="0" name="ZynAddSubFX" pos="21504" type="1" steps="16">
          <note len="48" key="59" vol="193" pos="0" pan="0"/>
          <note len="48" key="55" vol="193" pos="0" pan="0"/>
          <note len="48" key="52" vol="193" pos="0" pan="0"/>
        </pattern>
        <pattern muted="0" name="ZynAddSubFX" pos="21888" type="1" steps="16">
          <note len="48" key="59" vol="193" pos="0" pan="0"/>
          <note len="48" key="55" vol="193" pos="0" pan="0"/>
          <note len="48" key="52" vol="193" pos="0" pan="0"/>
        </pattern>
        <pattern muted="0" name="ZynAddSubFX" pos="24576" type="1" steps="16">
          <note len="384" key="52" vol="197" pos="0" pan="0"/>
          <note len="384" key="47" vol="197" pos="0" pan="0"/>
          <note len="384" key="43" vol="197" pos="0" pan="0"/>
          <note len="384" key="55" vol="197" pos="384" pan="0"/>
          <note len="384" key="52" vol="197" pos="384" pan="0"/>
          <note len="384" key="47" vol="197" pos="384" pan="0"/>
        </pattern>
        <pattern muted="0" name="ZynAddSubFX" pos="25344" type="1" steps="16">
          <note len="384" key="52" vol="197" pos="0" pan="0"/>
          <note len="384" key="47" vol="197" pos="0" pan="0"/>
          <note len="384" key="43" vol="197" pos="0" pan="0"/>
          <note len="192" key="55" vol="197" pos="384" pan="0"/>
          <note len="192" key="52" vol="197" pos="384" pan="0"/>
          <note len="192" key="48" vol="197" pos="384" pan="0"/>
          <note len="192" key="57" vol="197" pos="576" pan="0"/>
          <note len="192" key="54" vol="197" pos="576" pan="0"/>
          <note len="192" key="50" vol="197" pos="576" pan="0"/>
        </pattern>
        <pattern muted="0" name="ZynAddSubFX" pos="29184" type="1" steps="16">
          <note len="48" key="64" vol="193" pos="0" pan="0"/>
          <note len="48" key="60" vol="193" pos="0" pan="0"/>
          <note len="48" key="60" vol="193" pos="48" pan="0"/>
          <note len="48" key="55" vol="193" pos="48" pan="0"/>
          <note len="48" key="64" vol="193" pos="96" pan="0"/>
          <note len="48" key="60" vol="193" pos="96" pan="0"/>
          <note len="48" key="67" vol="193" pos="144" pan="0"/>
          <note len="48" key="64" vol="193" pos="144" pan="0"/>
          <note len="48" key="62" vol="193" pos="192" pan="0"/>
          <note len="48" key="59" vol="193" pos="192" pan="0"/>
          <note len="48" key="59" vol="193" pos="240" pan="0"/>
          <note len="48" key="55" vol="193" pos="240" pan="0"/>
          <note len="48" key="62" vol="193" pos="288" pan="0"/>
          <note len="48" key="59" vol="193" pos="288" pan="0"/>
          <note len="48" key="67" vol="193" pos="336" pan="0"/>
          <note len="48" key="62" vol="193" pos="336" pan="0"/>
          <note len="48" key="66" vol="193" pos="384" pan="0"/>
          <note len="48" key="62" vol="193" pos="384" pan="0"/>
          <note len="48" key="62" vol="193" pos="432" pan="0"/>
          <note len="48" key="57" vol="193" pos="432" pan="0"/>
          <note len="48" key="69" vol="193" pos="480" pan="0"/>
          <note len="48" key="66" vol="193" pos="480" pan="0"/>
          <note len="48" key="66" vol="193" pos="528" pan="0"/>
          <note len="48" key="62" vol="193" pos="528" pan="0"/>
          <note len="48" key="71" vol="193" pos="576" pan="0"/>
          <note len="48" key="67" vol="193" pos="576" pan="0"/>
          <note len="48" key="64" vol="193" pos="624" pan="0"/>
          <note len="48" key="59" vol="193" pos="624" pan="0"/>
          <note len="48" key="67" vol="193" pos="672" pan="0"/>
          <note len="48" key="64" vol="193" pos="672" pan="0"/>
          <note len="48" key="64" vol="193" pos="720" pan="0"/>
          <note len="48" key="59" vol="193" pos="720" pan="0"/>
        </pattern>
        <pattern muted="0" name="ZynAddSubFX" pos="29952" type="1" steps="16">
          <note len="48" key="64" vol="193" pos="0" pan="0"/>
          <note len="48" key="60" vol="193" pos="0" pan="0"/>
          <note len="48" key="60" vol="193" pos="48" pan="0"/>
          <note len="48" key="55" vol="193" pos="48" pan="0"/>
          <note len="48" key="64" vol="193" pos="96" pan="0"/>
          <note len="48" key="60" vol="193" pos="96" pan="0"/>
          <note len="48" key="67" vol="193" pos="144" pan="0"/>
          <note len="48" key="64" vol="193" pos="144" pan="0"/>
          <note len="48" key="62" vol="193" pos="192" pan="0"/>
          <note len="48" key="59" vol="193" pos="192" pan="0"/>
          <note len="48" key="59" vol="193" pos="240" pan="0"/>
          <note len="48" key="55" vol="193" pos="240" pan="0"/>
          <note len="48" key="62" vol="193" pos="288" pan="0"/>
          <note len="48" key="59" vol="193" pos="288" pan="0"/>
          <note len="48" key="67" vol="193" pos="336" pan="0"/>
          <note len="48" key="62" vol="193" pos="336" pan="0"/>
          <note len="48" key="66" vol="193" pos="384" pan="0"/>
          <note len="48" key="62" vol="193" pos="384" pan="0"/>
          <note len="48" key="62" vol="193" pos="432" pan="0"/>
          <note len="48" key="57" vol="193" pos="432" pan="0"/>
          <note len="48" key="69" vol="193" pos="480" pan="0"/>
          <note len="48" key="66" vol="193" pos="480" pan="0"/>
          <note len="48" key="66" vol="193" pos="528" pan="0"/>
          <note len="48" key="62" vol="193" pos="528" pan="0"/>
          <note len="48" key="69" vol="193" pos="576" pan="0"/>
          <note len="48" key="66" vol="193" pos="576" pan="0"/>
          <note len="48" key="66" vol="193" pos="624" pan="0"/>
          <note len="48" key="62" vol="193" pos="624" pan="0"/>
          <note len="48" key="62" vol="193" pos="672" pan="0"/>
          <note len="48" key="57" vol="193" pos="672" pan="0"/>
          <note len="48" key="66" vol="193" pos="720" pan="0"/>
          <note len="48" key="62" vol="193" pos="720" pan="0"/>
        </pattern>
        <pattern muted="0" name="ZynAddSubFX" pos="30720" type="1" steps="16">
          <note len="144" key="71" vol="191" pos="0" pan="0"/>
          <note len="384" key="62" vol="191" pos="0" pan="0"/>
          <note len="384" key="59" vol="191" pos="0" pan="0"/>
          <note len="384" key="55" vol="191" pos="0" pan="0"/>
          <note len="48" key="72" vol="191" pos="144" pan="0"/>
          <note len="48" key="71" vol="191" pos="192" pan="0"/>
          <note len="48" key="69" vol="191" pos="240" pan="0"/>
          <note len="48" key="67" vol="191" pos="288" pan="0"/>
          <note len="48" key="71" vol="191" pos="336" pan="0"/>
          <note len="72" key="69" vol="191" pos="384" pan="0"/>
          <note len="384" key="62" vol="191" pos="384" pan="0"/>
          <note len="384" key="57" vol="191" pos="384" pan="0"/>
          <note len="384" key="54" vol="191" pos="384" pan="0"/>
          <note len="72" key="74" vol="191" pos="456" pan="0"/>
          <note len="48" key="78" vol="191" pos="528" pan="0"/>
          <note len="48" key="79" vol="191" pos="576" pan="0"/>
          <note len="48" key="78" vol="191" pos="624" pan="0"/>
          <note len="48" key="76" vol="191" pos="672" pan="0"/>
          <note len="48" key="74" vol="191" pos="720" pan="0"/>
          <note len="144" key="71" vol="191" pos="768" pan="0"/>
          <note len="192" key="64" vol="191" pos="768" pan="0"/>
          <note len="192" key="59" vol="191" pos="768" pan="0"/>
          <note len="192" key="55" vol="191" pos="768" pan="0"/>
          <note len="24" key="72" vol="191" pos="912" pan="0"/>
          <note len="24" key="71" vol="191" pos="936" pan="0"/>
          <note len="72" key="69" vol="191" pos="960" pan="0"/>
          <note len="192" key="62" vol="191" pos="960" pan="0"/>
          <note len="192" key="57" vol="191" pos="960" pan="0"/>
          <note len="192" key="54" vol="191" pos="960" pan="0"/>
          <note len="72" key="67" vol="191" pos="1032" pan="0"/>
          <note len="48" key="66" vol="191" pos="1104" pan="0"/>
          <note len="96" key="67" vol="191" pos="1152" pan="0"/>
          <note len="192" key="60" vol="191" pos="1152" pan="0"/>
          <note len="192" key="55" vol="191" pos="1152" pan="0"/>
          <note len="192" key="52" vol="191" pos="1152" pan="0"/>
          <note len="48" key="69" vol="191" pos="1248" pan="0"/>
          <note len="48" key="71" vol="191" pos="1296" pan="0"/>
          <note len="48" key="69" vol="191" pos="1344" pan="0"/>
          <note len="192" key="62" vol="191" pos="1344" pan="0"/>
          <note len="192" key="57" vol="191" pos="1344" pan="0"/>
          <note len="192" key="54" vol="191" pos="1344" pan="0"/>
          <note len="12" key="66" vol="191" pos="1392" pan="0"/>
          <note len="12" key="66" vol="191" pos="1404" pan="0"/>
          <note len="12" key="66" vol="191" pos="1416" pan="0"/>
          <note len="12" key="66" vol="191" pos="1428" pan="0"/>
          <note len="12" key="67" vol="191" pos="1440" pan="0"/>
          <note len="12" key="67" vol="191" pos="1452" pan="0"/>
          <note len="12" key="67" vol="191" pos="1464" pan="0"/>
          <note len="12" key="67" vol="191" pos="1476" pan="0"/>
          <note len="12" key="69" vol="191" pos="1488" pan="0"/>
          <note len="12" key="69" vol="191" pos="1500" pan="0"/>
          <note len="12" key="69" vol="191" pos="1512" pan="0"/>
          <note len="12" key="69" vol="191" pos="1524" pan="0"/>
        </pattern>
        <pattern muted="0" name="ZynAddSubFX" pos="32256" type="1" steps="16">
          <note len="144" key="71" vol="191" pos="0" pan="0"/>
          <note len="384" key="62" vol="191" pos="0" pan="0"/>
          <note len="384" key="59" vol="191" pos="0" pan="0"/>
          <note len="384" key="55" vol="191" pos="0" pan="0"/>
          <note len="48" key="72" vol="191" pos="144" pan="0"/>
          <note len="48" key="71" vol="191" pos="192" pan="0"/>
          <note len="48" key="69" vol="191" pos="240" pan="0"/>
          <note len="48" key="67" vol="191" pos="288" pan="0"/>
          <note len="48" key="71" vol="191" pos="336" pan="0"/>
          <note len="72" key="69" vol="191" pos="384" pan="0"/>
          <note len="384" key="62" vol="191" pos="384" pan="0"/>
          <note len="384" key="57" vol="191" pos="384" pan="0"/>
          <note len="384" key="54" vol="191" pos="384" pan="0"/>
          <note len="72" key="74" vol="191" pos="456" pan="0"/>
          <note len="48" key="78" vol="191" pos="528" pan="0"/>
          <note len="48" key="79" vol="191" pos="576" pan="0"/>
          <note len="48" key="78" vol="191" pos="624" pan="0"/>
          <note len="48" key="76" vol="191" pos="672" pan="0"/>
          <note len="48" key="74" vol="191" pos="720" pan="0"/>
          <note len="144" key="71" vol="191" pos="768" pan="0"/>
          <note len="192" key="64" vol="191" pos="768" pan="0"/>
          <note len="192" key="59" vol="191" pos="768" pan="0"/>
          <note len="192" key="55" vol="191" pos="768" pan="0"/>
          <note len="24" key="72" vol="191" pos="912" pan="0"/>
          <note len="24" key="71" vol="191" pos="936" pan="0"/>
          <note len="72" key="69" vol="191" pos="960" pan="0"/>
          <note len="192" key="62" vol="191" pos="960" pan="0"/>
          <note len="192" key="57" vol="191" pos="960" pan="0"/>
          <note len="192" key="54" vol="191" pos="960" pan="0"/>
          <note len="72" key="67" vol="191" pos="1032" pan="0"/>
          <note len="48" key="66" vol="191" pos="1104" pan="0"/>
          <note len="96" key="67" vol="191" pos="1152" pan="0"/>
          <note len="192" key="60" vol="191" pos="1152" pan="0"/>
          <note len="192" key="55" vol="191" pos="1152" pan="0"/>
          <note len="192" key="52" vol="191" pos="1152" pan="0"/>
          <note len="48" key="69" vol="191" pos="1248" pan="0"/>
          <note len="48" key="71" vol="191" pos="1296" pan="0"/>
          <note len="48" key="69" vol="191" pos="1344" pan="0"/>
          <note len="192" key="62" vol="191" pos="1344" pan="0"/>
          <note len="192" key="57" vol="191" pos="1344" pan="0"/>
          <note len="192" key="54" vol="191" pos="1344" pan="0"/>
          <note len="12" key="66" vol="191" pos="1392" pan="0"/>
          <note len="12" key="66" vol="191" pos="1404" pan="0"/>
          <note len="12" key="66" vol="191" pos="1416" pan="0"/>
          <note len="12" key="66" vol="191" pos="1428" pan="0"/>
          <note len="12" key="67" vol="191" pos="1440" pan="0"/>
          <note len="12" key="67" vol="191" pos="1452" pan="0"/>
          <note len="12" key="67" vol="191" pos="1464" pan="0"/>
          <note len="12" key="67" vol="191" pos="1476" pan="0"/>
          <note len="12" key="69" vol="191" pos="1488" pan="0"/>
          <note len="12" key="69" vol="191" pos="1500" pan="0"/>
          <note len="12" key="69" vol="191" pos="1512" pan="0"/>
          <note len="12" key="69" vol="191" pos="1524" pan="0"/>
        </pattern>
        <pattern muted="0" name="ZynAddSubFX" pos="33792" type="1" steps="16">
          <note len="384" key="62" vol="191" pos="0" pan="0"/>
          <note len="384" key="59" vol="191" pos="0" pan="0"/>
          <note len="384" key="55" vol="191" pos="0" pan="0"/>
          <note len="384" key="62" vol="191" pos="384" pan="0"/>
          <note len="384" key="57" vol="191" pos="384" pan="0"/>
          <note len="384" key="54" vol="191" pos="384" pan="0"/>
          <note len="192" key="64" vol="191" pos="768" pan="0"/>
          <note len="192" key="59" vol="191" pos="768" pan="0"/>
          <note len="192" key="55" vol="191" pos="768" pan="0"/>
          <note len="192" key="62" vol="191" pos="960" pan="0"/>
          <note len="192" key="57" vol="191" pos="960" pan="0"/>
          <note len="192" key="54" vol="191" pos="960" pan="0"/>
          <note len="192" key="60" vol="191" pos="1152" pan="0"/>
          <note len="192" key="55" vol="191" pos="1152" pan="0"/>
          <note len="192" key="52" vol="191" pos="1152" pan="0"/>
          <note len="192" key="62" vol="191" pos="1344" pan="0"/>
          <note len="192" key="57" vol="191" pos="1344" pan="0"/>
          <note len="192" key="54" vol="191" pos="1344" pan="0"/>
        </pattern>
        <pattern muted="0" name="ZynAddSubFX" pos="35328" type="1" steps="16">
          <note len="384" key="62" vol="191" pos="0" pan="0"/>
          <note len="384" key="59" vol="191" pos="0" pan="0"/>
          <note len="384" key="55" vol="191" pos="0" pan="0"/>
          <note len="384" key="62" vol="191" pos="384" pan="0"/>
          <note len="384" key="57" vol="191" pos="384" pan="0"/>
          <note len="384" key="54" vol="191" pos="384" pan="0"/>
          <note len="192" key="64" vol="191" pos="768" pan="0"/>
          <note len="192" key="59" vol="191" pos="768" pan="0"/>
          <note len="192" key="55" vol="191" pos="768" pan="0"/>
          <note len="192" key="62" vol="191" pos="960" pan="0"/>
          <note len="192" key="57" vol="191" pos="960" pan="0"/>
          <note len="192" key="54" vol="191" pos="960" pan="0"/>
          <note len="192" key="60" vol="191" pos="1152" pan="0"/>
          <note len="192" key="55" vol="191" pos="1152" pan="0"/>
          <note len="192" key="52" vol="191" pos="1152" pan="0"/>
          <note len="192" key="62" vol="191" pos="1344" pan="0"/>
          <note len="192" key="57" vol="191" pos="1344" pan="0"/>
          <note len="192" key="54" vol="191" pos="1344" pan="0"/>
        </pattern>
        <pattern muted="0" name="ZynAddSubFX" pos="36864" type="1" steps="16">
          <note len="192" key="62" vol="191" pos="0" pan="0"/>
          <note len="192" key="59" vol="191" pos="0" pan="0"/>
          <note len="192" key="55" vol="191" pos="0" pan="0"/>
        </pattern>
      </track>
      <track muted="1" name="Orchestra Soundfont 2 COMBO" solo="0" type="0">
        <instrumenttrack pitch="0" fxch="0" basenote="57" vol="56.9" pitchrange="1" usemasterpitch="1" pan="0">
          <instrument name="sf2player">
            <sf2player reverbOn="0" src="/home/pass/samples/soundfonts/Orchestra Soundfont 2 COMBO.sf2" chorusSpeed="0.3" chorusOn="0" chorusNum="3" reverbWidth="0.5" patch="48" reverbDamping="0" chorusDepth="8" gain="0.9" bank="0" reverbRoomSize="0.2" chorusLevel="2" reverbLevel="0.9"/>
          </instrument>
          <eldata ftype="0" fcut="14000" fres="0.5" fwet="0">
            <elvol userwavefile="" hold="0.5" lspd_numerator="4" lspd="0.1" lspd_denominator="4" lshp="0" latt="0" rel="0.1" x100="0" pdel="0" lpdel="0" amt="0" lspd_syncmode="0" dec="0.5" lamt="0" sustain="0.5" ctlenvamt="0" att="0"/>
            <elcut userwavefile="" hold="0.5" lspd_numerator="4" lspd="0.1" lspd_denominator="4" lshp="0" latt="0" rel="0.1" x100="0" pdel="0" lpdel="0" amt="0" lspd_syncmode="0" dec="0.5" lamt="0" sustain="0.5" ctlenvamt="0" att="0"/>
            <elres userwavefile="" hold="0.5" lspd_numerator="4" lspd="0.1" lspd_denominator="4" lshp="0" latt="0" rel="0.1" x100="0" pdel="0" lpdel="0" amt="0" lspd_syncmode="0" dec="0.5" lamt="0" sustain="0.5" ctlenvamt="0" att="0"/>
          </eldata>
          <chordcreator chord-enabled="0" chordrange="1" chord="0"/>
          <arpeggiator arpcycle="0" arptime_syncmode="0" arptime_numerator="4" arpgate="100" arpmode="0" arp-enabled="0" arptime="200" arp="0" arpskip="0" arpmiss="0" arprange="1" arpdir="0" arptime_denominator="4"/>
          <midiport inputchannel="0" outputprogram="1" basevelocity="63" outputchannel="1" fixedinputvelocity="-1" inputcontroller="0" readable="0" writable="0" outputcontroller="0" fixedoutputvelocity="-1" fixedoutputnote="-1"/>
          <fxchain numofeffects="0" enabled="0"/>
        </instrumenttrack>
        <pattern muted="0" name="Orchestra Soundfont 2 COMBO" pos="7680" type="1" steps="16">
          <note len="48" key="64" vol="193" pos="0" pan="0"/>
          <note len="48" key="60" vol="193" pos="0" pan="0"/>
          <note len="48" key="60" vol="193" pos="48" pan="0"/>
          <note len="48" key="55" vol="193" pos="48" pan="0"/>
          <note len="48" key="64" vol="193" pos="96" pan="0"/>
          <note len="48" key="60" vol="193" pos="96" pan="0"/>
          <note len="48" key="67" vol="193" pos="144" pan="0"/>
          <note len="48" key="64" vol="193" pos="144" pan="0"/>
          <note len="48" key="62" vol="193" pos="192" pan="0"/>
          <note len="48" key="59" vol="193" pos="192" pan="0"/>
          <note len="48" key="59" vol="193" pos="240" pan="0"/>
          <note len="48" key="55" vol="193" pos="240" pan="0"/>
          <note len="48" key="62" vol="193" pos="288" pan="0"/>
          <note len="48" key="59" vol="193" pos="288" pan="0"/>
          <note len="48" key="67" vol="193" pos="336" pan="0"/>
          <note len="48" key="62" vol="193" pos="336" pan="0"/>
          <note len="48" key="66" vol="193" pos="384" pan="0"/>
          <note len="48" key="62" vol="193" pos="384" pan="0"/>
          <note len="48" key="62" vol="193" pos="432" pan="0"/>
          <note len="48" key="57" vol="193" pos="432" pan="0"/>
          <note len="48" key="69" vol="193" pos="480" pan="0"/>
          <note len="48" key="66" vol="193" pos="480" pan="0"/>
          <note len="48" key="66" vol="193" pos="528" pan="0"/>
          <note len="48" key="62" vol="193" pos="528" pan="0"/>
          <note len="48" key="71" vol="193" pos="576" pan="0"/>
          <note len="48" key="67" vol="193" pos="576" pan="0"/>
          <note len="48" key="64" vol="193" pos="624" pan="0"/>
          <note len="48" key="59" vol="193" pos="624" pan="0"/>
          <note len="48" key="67" vol="193" pos="672" pan="0"/>
          <note len="48" key="64" vol="193" pos="672" pan="0"/>
          <note len="48" key="64" vol="193" pos="720" pan="0"/>
          <note len="48" key="59" vol="193" pos="720" pan="0"/>
        </pattern>
        <pattern muted="0" name="Orchestra Soundfont 2 COMBO" pos="8448" type="1" steps="16">
          <note len="48" key="64" vol="193" pos="0" pan="0"/>
          <note len="48" key="60" vol="193" pos="0" pan="0"/>
          <note len="48" key="60" vol="193" pos="48" pan="0"/>
          <note len="48" key="55" vol="193" pos="48" pan="0"/>
          <note len="48" key="64" vol="193" pos="96" pan="0"/>
          <note len="48" key="60" vol="193" pos="96" pan="0"/>
          <note len="48" key="67" vol="193" pos="144" pan="0"/>
          <note len="48" key="64" vol="193" pos="144" pan="0"/>
          <note len="48" key="62" vol="193" pos="192" pan="0"/>
          <note len="48" key="59" vol="193" pos="192" pan="0"/>
          <note len="48" key="59" vol="193" pos="240" pan="0"/>
          <note len="48" key="55" vol="193" pos="240" pan="0"/>
          <note len="48" key="62" vol="193" pos="288" pan="0"/>
          <note len="48" key="59" vol="193" pos="288" pan="0"/>
          <note len="48" key="67" vol="193" pos="336" pan="0"/>
          <note len="48" key="62" vol="193" pos="336" pan="0"/>
          <note len="48" key="66" vol="193" pos="384" pan="0"/>
          <note len="48" key="62" vol="193" pos="384" pan="0"/>
          <note len="48" key="62" vol="193" pos="432" pan="0"/>
          <note len="48" key="57" vol="193" pos="432" pan="0"/>
          <note len="48" key="69" vol="193" pos="480" pan="0"/>
          <note len="48" key="66" vol="193" pos="480" pan="0"/>
          <note len="48" key="66" vol="193" pos="528" pan="0"/>
          <note len="48" key="62" vol="193" pos="528" pan="0"/>
          <note len="48" key="74" vol="193" pos="576" pan="0"/>
          <note len="48" key="69" vol="193" pos="576" pan="0"/>
        </pattern>
        <pattern muted="0" name="Orchestra Soundfont 2 COMBO" pos="9216" type="1" steps="16">
          <note len="144" key="71" vol="191" pos="0" pan="0"/>
          <note len="384" key="62" vol="191" pos="0" pan="0"/>
          <note len="384" key="59" vol="191" pos="0" pan="0"/>
          <note len="384" key="55" vol="191" pos="0" pan="0"/>
          <note len="48" key="72" vol="191" pos="144" pan="0"/>
          <note len="48" key="71" vol="191" pos="192" pan="0"/>
          <note len="48" key="69" vol="191" pos="240" pan="0"/>
          <note len="48" key="67" vol="191" pos="288" pan="0"/>
          <note len="48" key="71" vol="191" pos="336" pan="0"/>
          <note len="72" key="69" vol="191" pos="384" pan="0"/>
          <note len="384" key="62" vol="191" pos="384" pan="0"/>
          <note len="384" key="57" vol="191" pos="384" pan="0"/>
          <note len="384" key="54" vol="191" pos="384" pan="0"/>
          <note len="72" key="74" vol="191" pos="456" pan="0"/>
          <note len="48" key="78" vol="191" pos="528" pan="0"/>
          <note len="48" key="79" vol="191" pos="576" pan="0"/>
          <note len="48" key="78" vol="191" pos="624" pan="0"/>
          <note len="48" key="76" vol="191" pos="672" pan="0"/>
          <note len="48" key="74" vol="191" pos="720" pan="0"/>
          <note len="144" key="71" vol="191" pos="768" pan="0"/>
          <note len="192" key="64" vol="191" pos="768" pan="0"/>
          <note len="192" key="59" vol="191" pos="768" pan="0"/>
          <note len="192" key="55" vol="191" pos="768" pan="0"/>
          <note len="24" key="72" vol="191" pos="912" pan="0"/>
          <note len="24" key="71" vol="191" pos="936" pan="0"/>
          <note len="72" key="69" vol="191" pos="960" pan="0"/>
          <note len="192" key="62" vol="191" pos="960" pan="0"/>
          <note len="192" key="57" vol="191" pos="960" pan="0"/>
          <note len="192" key="54" vol="191" pos="960" pan="0"/>
          <note len="72" key="67" vol="191" pos="1032" pan="0"/>
          <note len="48" key="66" vol="191" pos="1104" pan="0"/>
          <note len="96" key="67" vol="191" pos="1152" pan="0"/>
          <note len="192" key="60" vol="191" pos="1152" pan="0"/>
          <note len="192" key="55" vol="191" pos="1152" pan="0"/>
          <note len="192" key="52" vol="191" pos="1152" pan="0"/>
          <note len="48" key="69" vol="191" pos="1248" pan="0"/>
          <note len="48" key="71" vol="191" pos="1296" pan="0"/>
          <note len="48" key="69" vol="191" pos="1344" pan="0"/>
          <note len="192" key="62" vol="191" pos="1344" pan="0"/>
          <note len="192" key="57" vol="191" pos="1344" pan="0"/>
          <note len="192" key="54" vol="191" pos="1344" pan="0"/>
          <note len="12" key="66" vol="191" pos="1392" pan="0"/>
          <note len="12" key="66" vol="191" pos="1404" pan="0"/>
          <note len="12" key="66" vol="191" pos="1416" pan="0"/>
          <note len="12" key="66" vol="191" pos="1428" pan="0"/>
          <note len="12" key="67" vol="191" pos="1440" pan="0"/>
          <note len="12" key="67" vol="191" pos="1452" pan="0"/>
          <note len="12" key="67" vol="191" pos="1464" pan="0"/>
          <note len="12" key="67" vol="191" pos="1476" pan="0"/>
          <note len="12" key="69" vol="191" pos="1488" pan="0"/>
          <note len="12" key="69" vol="191" pos="1500" pan="0"/>
          <note len="12" key="69" vol="191" pos="1512" pan="0"/>
          <note len="12" key="69" vol="191" pos="1524" pan="0"/>
        </pattern>
        <pattern muted="0" name="Orchestra Soundfont 2 COMBO" pos="10752" type="1" steps="16">
          <note len="144" key="71" vol="191" pos="0" pan="0"/>
          <note len="384" key="62" vol="191" pos="0" pan="0"/>
          <note len="384" key="59" vol="191" pos="0" pan="0"/>
          <note len="384" key="55" vol="191" pos="0" pan="0"/>
          <note len="48" key="72" vol="191" pos="144" pan="0"/>
          <note len="48" key="71" vol="191" pos="192" pan="0"/>
          <note len="48" key="69" vol="191" pos="240" pan="0"/>
          <note len="48" key="67" vol="191" pos="288" pan="0"/>
          <note len="48" key="71" vol="191" pos="336" pan="0"/>
          <note len="72" key="69" vol="191" pos="384" pan="0"/>
          <note len="384" key="62" vol="191" pos="384" pan="0"/>
          <note len="384" key="57" vol="191" pos="384" pan="0"/>
          <note len="384" key="54" vol="191" pos="384" pan="0"/>
          <note len="72" key="74" vol="191" pos="456" pan="0"/>
          <note len="48" key="78" vol="191" pos="528" pan="0"/>
          <note len="48" key="79" vol="191" pos="576" pan="0"/>
          <note len="48" key="78" vol="191" pos="624" pan="0"/>
          <note len="48" key="76" vol="191" pos="672" pan="0"/>
          <note len="48" key="74" vol="191" pos="720" pan="0"/>
          <note len="144" key="71" vol="191" pos="768" pan="0"/>
          <note len="192" key="64" vol="191" pos="768" pan="0"/>
          <note len="192" key="59" vol="191" pos="768" pan="0"/>
          <note len="192" key="55" vol="191" pos="768" pan="0"/>
          <note len="24" key="72" vol="191" pos="912" pan="0"/>
          <note len="24" key="71" vol="191" pos="936" pan="0"/>
          <note len="72" key="69" vol="191" pos="960" pan="0"/>
          <note len="192" key="62" vol="191" pos="960" pan="0"/>
          <note len="192" key="57" vol="191" pos="960" pan="0"/>
          <note len="192" key="54" vol="191" pos="960" pan="0"/>
          <note len="72" key="67" vol="191" pos="1032" pan="0"/>
          <note len="48" key="66" vol="191" pos="1104" pan="0"/>
          <note len="96" key="67" vol="191" pos="1152" pan="0"/>
          <note len="192" key="60" vol="191" pos="1152" pan="0"/>
          <note len="192" key="55" vol="191" pos="1152" pan="0"/>
          <note len="192" key="52" vol="191" pos="1152" pan="0"/>
          <note len="48" key="69" vol="191" pos="1248" pan="0"/>
          <note len="48" key="71" vol="191" pos="1296" pan="0"/>
          <note len="48" key="69" vol="191" pos="1344" pan="0"/>
          <note len="192" key="62" vol="191" pos="1344" pan="0"/>
          <note len="192" key="57" vol="191" pos="1344" pan="0"/>
          <note len="192" key="54" vol="191" pos="1344" pan="0"/>
          <note len="12" key="66" vol="191" pos="1392" pan="0"/>
          <note len="12" key="66" vol="191" pos="1404" pan="0"/>
          <note len="12" key="66" vol="191" pos="1416" pan="0"/>
          <note len="12" key="66" vol="191" pos="1428" pan="0"/>
          <note len="12" key="67" vol="191" pos="1440" pan="0"/>
          <note len="12" key="67" vol="191" pos="1452" pan="0"/>
          <note len="12" key="67" vol="191" pos="1464" pan="0"/>
          <note len="12" key="67" vol="191" pos="1476" pan="0"/>
          <note len="12" key="69" vol="191" pos="1488" pan="0"/>
          <note len="12" key="69" vol="191" pos="1500" pan="0"/>
          <note len="12" key="69" vol="191" pos="1512" pan="0"/>
          <note len="12" key="69" vol="191" pos="1524" pan="0"/>
        </pattern>
        <pattern muted="0" name="Orchestra Soundfont 2 COMBO" pos="0" type="1" steps="16">
          <note len="72" key="59" vol="191" pos="0" pan="0"/>
          <note len="72" key="55" vol="191" pos="0" pan="0"/>
          <note len="72" key="52" vol="191" pos="0" pan="0"/>
          <note len="264" key="57" vol="191" pos="192" pan="0"/>
          <note len="264" key="54" vol="191" pos="192" pan="0"/>
          <note len="264" key="50" vol="191" pos="192" pan="0"/>
          <note len="384" key="59" vol="191" pos="576" pan="0"/>
          <note len="384" key="55" vol="191" pos="576" pan="0"/>
          <note len="384" key="52" vol="191" pos="576" pan="0"/>
          <note len="192" key="60" vol="191" pos="960" pan="0"/>
          <note len="192" key="55" vol="191" pos="960" pan="0"/>
          <note len="192" key="52" vol="191" pos="960" pan="0"/>
          <note len="192" key="62" vol="191" pos="1152" pan="0"/>
          <note len="192" key="57" vol="191" pos="1152" pan="0"/>
          <note len="192" key="54" vol="191" pos="1152" pan="0"/>
          <note len="192" key="64" vol="191" pos="1344" pan="0"/>
          <note len="192" key="59" vol="191" pos="1344" pan="0"/>
          <note len="192" key="55" vol="191" pos="1344" pan="0"/>
        </pattern>
        <pattern muted="0" name="Orchestra Soundfont 2 COMBO" pos="13056" type="1" steps="16">
          <note len="12" key="84" vol="100" pos="0" pan="0"/>
          <note len="48" key="0" vol="100" pos="0" pan="0"/>
          <note len="12" key="83" vol="100" pos="12" pan="0"/>
          <note len="12" key="81" vol="100" pos="24" pan="0"/>
          <note len="12" key="79" vol="100" pos="36" pan="0"/>
          <note len="12" key="83" vol="100" pos="48" pan="0"/>
          <note len="12" key="81" vol="100" pos="60" pan="0"/>
          <note len="12" key="79" vol="100" pos="72" pan="0"/>
          <note len="12" key="78" vol="100" pos="84" pan="0"/>
          <note len="12" key="81" vol="100" pos="96" pan="0"/>
          <note len="12" key="79" vol="100" pos="108" pan="0"/>
          <note len="12" key="78" vol="100" pos="120" pan="0"/>
          <note len="12" key="76" vol="100" pos="132" pan="0"/>
          <note len="12" key="79" vol="100" pos="144" pan="0"/>
          <note len="12" key="78" vol="100" pos="156" pan="0"/>
          <note len="12" key="76" vol="100" pos="168" pan="0"/>
          <note len="12" key="74" vol="100" pos="180" pan="0"/>
          <note len="12" key="76" vol="100" pos="192" pan="0"/>
          <note len="12" key="74" vol="100" pos="204" pan="0"/>
          <note len="12" key="72" vol="100" pos="216" pan="0"/>
          <note len="12" key="72" vol="100" pos="228" pan="0"/>
          <note len="12" key="74" vol="100" pos="240" pan="0"/>
          <note len="12" key="72" vol="100" pos="252" pan="0"/>
          <note len="12" key="72" vol="100" pos="264" pan="0"/>
          <note len="12" key="72" vol="100" pos="276" pan="0"/>
          <note len="12" key="76" vol="100" pos="288" pan="0"/>
          <note len="12" key="74" vol="100" pos="300" pan="0"/>
          <note len="12" key="72" vol="100" pos="312" pan="0"/>
          <note len="12" key="72" vol="100" pos="324" pan="0"/>
          <note len="12" key="74" vol="100" pos="336" pan="0"/>
          <note len="12" key="76" vol="100" pos="348" pan="0"/>
          <note len="12" key="78" vol="100" pos="360" pan="0"/>
          <note len="12" key="79" vol="100" pos="372" pan="0"/>
          <note len="12" key="84" vol="100" pos="384" pan="0"/>
          <note len="12" key="81" vol="100" pos="396" pan="0"/>
          <note len="12" key="83" vol="100" pos="408" pan="0"/>
          <note len="12" key="84" vol="100" pos="420" pan="0"/>
          <note len="12" key="86" vol="100" pos="432" pan="0"/>
          <note len="12" key="83" vol="100" pos="444" pan="0"/>
          <note len="12" key="84" vol="100" pos="456" pan="0"/>
          <note len="12" key="86" vol="100" pos="468" pan="0"/>
          <note len="12" key="88" vol="100" pos="480" pan="0"/>
          <note len="12" key="86" vol="100" pos="492" pan="0"/>
          <note len="12" key="84" vol="100" pos="504" pan="0"/>
          <note len="12" key="83" vol="100" pos="516" pan="0"/>
          <note len="12" key="81" vol="100" pos="528" pan="0"/>
          <note len="12" key="79" vol="100" pos="540" pan="0"/>
          <note len="12" key="78" vol="100" pos="552" pan="0"/>
          <note len="12" key="76" vol="100" pos="564" pan="0"/>
          <note len="48" key="74" vol="100" pos="576" pan="0"/>
          <note len="48" key="78" vol="100" pos="624" pan="0"/>
          <note len="48" key="79" vol="100" pos="672" pan="0"/>
          <note len="48" key="83" vol="100" pos="720" pan="0"/>
        </pattern>
        <pattern muted="0" name="Orchestra Soundfont 2 COMBO" pos="14208" type="1" steps="16">
          <note len="72" key="76" vol="100" pos="0" pan="0"/>
          <note len="24" key="71" vol="100" pos="72" pan="0"/>
          <note len="48" key="76" vol="100" pos="96" pan="0"/>
          <note len="48" key="78" vol="100" pos="144" pan="0"/>
          <note len="12" key="79" vol="100" pos="192" pan="0"/>
          <note len="12" key="79" vol="100" pos="204" pan="0"/>
          <note len="12" key="79" vol="100" pos="216" pan="0"/>
          <note len="12" key="79" vol="100" pos="228" pan="0"/>
          <note len="12" key="78" vol="100" pos="240" pan="0"/>
          <note len="12" key="78" vol="100" pos="252" pan="0"/>
          <note len="12" key="78" vol="100" pos="264" pan="0"/>
          <note len="12" key="78" vol="100" pos="276" pan="0"/>
          <note len="12" key="76" vol="100" pos="288" pan="0"/>
          <note len="12" key="76" vol="100" pos="300" pan="0"/>
          <note len="12" key="76" vol="100" pos="312" pan="0"/>
          <note len="12" key="76" vol="100" pos="324" pan="0"/>
          <note len="24" key="74" vol="100" pos="336" pan="0"/>
          <note len="24" key="71" vol="100" pos="360" pan="0"/>
          <note len="72" key="83" vol="100" pos="384" pan="0"/>
          <note len="24" key="79" vol="100" pos="456" pan="0"/>
          <note len="48" key="83" vol="100" pos="480" pan="0"/>
          <note len="24" key="85" vol="100" pos="528" pan="0"/>
          <note len="24" key="86" vol="100" pos="552" pan="0"/>
          <note len="72" key="85" vol="100" pos="576" pan="0"/>
          <note len="24" key="81" vol="100" pos="648" pan="0"/>
          <note len="48" key="81" vol="100" pos="672" pan="0"/>
          <note len="24" key="81" vol="100" pos="720" pan="0"/>
          <note len="24" key="83" vol="100" pos="744" pan="0"/>
          <note len="12" key="84" vol="100" pos="768" pan="0"/>
          <note len="12" key="79" vol="100" pos="780" pan="0"/>
          <note len="12" key="76" vol="100" pos="792" pan="0"/>
          <note len="12" key="79" vol="100" pos="804" pan="0"/>
          <note len="12" key="84" vol="100" pos="816" pan="0"/>
          <note len="12" key="79" vol="100" pos="828" pan="0"/>
          <note len="12" key="84" vol="100" pos="840" pan="0"/>
          <note len="12" key="88" vol="100" pos="852" pan="0"/>
          <note len="12" key="86" vol="100" pos="864" pan="0"/>
          <note len="12" key="81" vol="100" pos="876" pan="0"/>
          <note len="12" key="78" vol="100" pos="888" pan="0"/>
          <note len="12" key="74" vol="100" pos="900" pan="0"/>
          <note len="12" key="69" vol="100" pos="912" pan="0"/>
          <note len="12" key="74" vol="100" pos="924" pan="0"/>
          <note len="12" key="78" vol="100" pos="936" pan="0"/>
          <note len="12" key="81" vol="100" pos="948" pan="0"/>
        </pattern>
        <pattern muted="0" name="Orchestra Soundfont 2 COMBO" pos="15552" type="1" steps="16">
          <note len="12" key="88" vol="100" pos="0" pan="0"/>
          <note len="48" key="0" vol="100" pos="0" pan="0"/>
          <note len="12" key="86" vol="100" pos="12" pan="0"/>
          <note len="12" key="84" vol="100" pos="24" pan="0"/>
          <note len="12" key="83" vol="100" pos="36" pan="0"/>
          <note len="12" key="86" vol="100" pos="48" pan="0"/>
          <note len="12" key="84" vol="100" pos="60" pan="0"/>
          <note len="12" key="83" vol="100" pos="72" pan="0"/>
          <note len="12" key="81" vol="100" pos="84" pan="0"/>
          <note len="12" key="84" vol="100" pos="96" pan="0"/>
          <note len="12" key="83" vol="100" pos="108" pan="0"/>
          <note len="12" key="81" vol="100" pos="120" pan="0"/>
          <note len="12" key="79" vol="100" pos="132" pan="0"/>
          <note len="12" key="83" vol="100" pos="144" pan="0"/>
          <note len="12" key="81" vol="100" pos="156" pan="0"/>
          <note len="12" key="79" vol="100" pos="168" pan="0"/>
          <note len="12" key="78" vol="100" pos="180" pan="0"/>
          <note len="12" key="79" vol="100" pos="192" pan="0"/>
          <note len="12" key="78" vol="100" pos="204" pan="0"/>
          <note len="12" key="76" vol="100" pos="216" pan="0"/>
          <note len="12" key="76" vol="100" pos="228" pan="0"/>
          <note len="12" key="78" vol="100" pos="240" pan="0"/>
          <note len="12" key="76" vol="100" pos="252" pan="0"/>
          <note len="12" key="76" vol="100" pos="264" pan="0"/>
          <note len="12" key="76" vol="100" pos="276" pan="0"/>
          <note len="12" key="79" vol="100" pos="288" pan="0"/>
          <note len="12" key="78" vol="100" pos="300" pan="0"/>
          <note len="12" key="76" vol="100" pos="312" pan="0"/>
          <note len="12" key="76" vol="100" pos="324" pan="0"/>
          <note len="12" key="78" vol="100" pos="336" pan="0"/>
          <note len="12" key="79" vol="100" pos="348" pan="0"/>
          <note len="12" key="81" vol="100" pos="360" pan="0"/>
          <note len="12" key="83" vol="100" pos="372" pan="0"/>
          <note len="12" key="72" vol="100" pos="384" pan="0"/>
          <note len="12" key="69" vol="100" pos="396" pan="0"/>
          <note len="12" key="71" vol="100" pos="408" pan="0"/>
          <note len="12" key="72" vol="100" pos="420" pan="0"/>
          <note len="12" key="74" vol="100" pos="432" pan="0"/>
          <note len="12" key="71" vol="100" pos="444" pan="0"/>
          <note len="12" key="72" vol="100" pos="456" pan="0"/>
          <note len="12" key="74" vol="100" pos="468" pan="0"/>
          <note len="12" key="76" vol="100" pos="480" pan="0"/>
          <note len="12" key="74" vol="100" pos="492" pan="0"/>
          <note len="12" key="72" vol="100" pos="504" pan="0"/>
          <note len="12" key="71" vol="100" pos="516" pan="0"/>
          <note len="12" key="69" vol="100" pos="528" pan="0"/>
          <note len="12" key="67" vol="100" pos="540" pan="0"/>
          <note len="12" key="66" vol="100" pos="552" pan="0"/>
          <note len="12" key="64" vol="100" pos="564" pan="0"/>
          <note len="48" key="74" vol="100" pos="576" pan="0"/>
          <note len="48" key="78" vol="100" pos="624" pan="0"/>
          <note len="48" key="79" vol="100" pos="672" pan="0"/>
          <note len="48" key="83" vol="100" pos="720" pan="0"/>
        </pattern>
        <pattern muted="0" name="" pos="27456" type="1" steps="16">
          <note len="1152" key="59" vol="127" pos="0" pan="0"/>
          <note len="1152" key="52" vol="127" pos="0" pan="0"/>
          <note len="192" key="55" vol="127" pos="1152" pan="0"/>
          <note len="192" key="48" vol="127" pos="1152" pan="0"/>
          <note len="192" key="57" vol="127" pos="1344" pan="0"/>
          <note len="192" key="50" vol="127" pos="1344" pan="0"/>
        </pattern>
        <pattern muted="0" name="" pos="2112" type="1" steps="16">
          <note len="12" key="67" vol="100" pos="0" pan="0"/>
          <note len="24" key="0" vol="100" pos="0" pan="0"/>
          <note len="12" key="66" vol="100" pos="12" pan="0"/>
          <note len="12" key="64" vol="100" pos="24" pan="0"/>
          <note len="24" key="1" vol="100" pos="24" pan="0"/>
          <note len="12" key="64" vol="100" pos="36" pan="0"/>
          <note len="12" key="64" vol="100" pos="48" pan="0"/>
          <note len="12" key="64" vol="100" pos="60" pan="0"/>
          <note len="12" key="66" vol="100" pos="72" pan="0"/>
          <note len="24" key="0" vol="100" pos="72" pan="0"/>
          <note len="12" key="64" vol="100" pos="84" pan="0"/>
          <note len="12" key="64" vol="100" pos="96" pan="0"/>
          <note len="24" key="1" vol="100" pos="96" pan="0"/>
          <note len="12" key="64" vol="100" pos="108" pan="0"/>
          <note len="12" key="64" vol="100" pos="120" pan="0"/>
          <note len="12" key="64" vol="100" pos="132" pan="0"/>
          <note len="12" key="67" vol="100" pos="144" pan="0"/>
          <note len="12" key="0" vol="100" pos="144" pan="0"/>
          <note len="12" key="66" vol="100" pos="156" pan="0"/>
          <note len="12" key="64" vol="100" pos="168" pan="0"/>
          <note len="12" key="1" vol="100" pos="168" pan="0"/>
          <note len="12" key="64" vol="100" pos="180" pan="0"/>
          <note len="12" key="67" vol="100" pos="192" pan="0"/>
          <note len="12" key="0" vol="100" pos="192" pan="0"/>
          <note len="12" key="66" vol="100" pos="204" pan="0"/>
          <note len="12" key="64" vol="100" pos="216" pan="0"/>
          <note len="12" key="1" vol="100" pos="216" pan="0"/>
          <note len="12" key="64" vol="100" pos="228" pan="0"/>
          <note len="12" key="64" vol="100" pos="240" pan="0"/>
          <note len="12" key="64" vol="100" pos="252" pan="0"/>
          <note len="12" key="66" vol="100" pos="264" pan="0"/>
          <note len="12" key="0" vol="100" pos="264" pan="0"/>
          <note len="12" key="64" vol="100" pos="276" pan="0"/>
          <note len="12" key="64" vol="100" pos="288" pan="0"/>
          <note len="12" key="1" vol="100" pos="288" pan="0"/>
          <note len="12" key="64" vol="100" pos="300" pan="0"/>
          <note len="12" key="64" vol="100" pos="312" pan="0"/>
          <note len="12" key="64" vol="100" pos="324" pan="0"/>
          <note len="12" key="67" vol="100" pos="336" pan="0"/>
          <note len="12" key="0" vol="100" pos="336" pan="0"/>
          <note len="12" key="66" vol="100" pos="348" pan="0"/>
          <note len="12" key="64" vol="100" pos="360" pan="0"/>
          <note len="12" key="1" vol="100" pos="360" pan="0"/>
          <note len="12" key="64" vol="100" pos="372" pan="0"/>
          <note len="12" key="71" vol="100" pos="384" pan="0"/>
          <note len="12" key="0" vol="100" pos="384" pan="0"/>
          <note len="12" key="69" vol="100" pos="396" pan="0"/>
          <note len="12" key="67" vol="100" pos="408" pan="0"/>
          <note len="12" key="1" vol="100" pos="408" pan="0"/>
          <note len="12" key="67" vol="100" pos="420" pan="0"/>
          <note len="12" key="67" vol="100" pos="432" pan="0"/>
          <note len="12" key="67" vol="100" pos="444" pan="0"/>
          <note len="12" key="69" vol="100" pos="456" pan="0"/>
          <note len="12" key="0" vol="100" pos="456" pan="0"/>
          <note len="12" key="67" vol="100" pos="468" pan="0"/>
          <note len="12" key="67" vol="100" pos="480" pan="0"/>
          <note len="12" key="1" vol="100" pos="480" pan="0"/>
          <note len="12" key="67" vol="100" pos="492" pan="0"/>
          <note len="12" key="67" vol="100" pos="504" pan="0"/>
          <note len="12" key="67" vol="100" pos="516" pan="0"/>
          <note len="12" key="71" vol="100" pos="528" pan="0"/>
          <note len="12" key="0" vol="100" pos="528" pan="0"/>
          <note len="12" key="69" vol="100" pos="540" pan="0"/>
          <note len="12" key="67" vol="100" pos="552" pan="0"/>
          <note len="12" key="1" vol="100" pos="552" pan="0"/>
          <note len="12" key="67" vol="100" pos="564" pan="0"/>
          <note len="12" key="74" vol="100" pos="576" pan="0"/>
          <note len="12" key="74" vol="100" pos="588" pan="0"/>
          <note len="12" key="71" vol="100" pos="600" pan="0"/>
          <note len="12" key="71" vol="100" pos="612" pan="0"/>
          <note len="12" key="69" vol="100" pos="624" pan="0"/>
          <note len="12" key="69" vol="100" pos="636" pan="0"/>
          <note len="12" key="71" vol="100" pos="648" pan="0"/>
          <note len="12" key="71" vol="100" pos="660" pan="0"/>
          <note len="12" key="69" vol="100" pos="672" pan="0"/>
          <note len="12" key="69" vol="100" pos="684" pan="0"/>
          <note len="12" key="67" vol="100" pos="696" pan="0"/>
          <note len="12" key="67" vol="100" pos="708" pan="0"/>
          <note len="12" key="66" vol="100" pos="720" pan="0"/>
          <note len="12" key="66" vol="100" pos="732" pan="0"/>
          <note len="12" key="69" vol="100" pos="744" pan="0"/>
          <note len="12" key="69" vol="100" pos="756" pan="0"/>
        </pattern>
        <pattern muted="0" name="" pos="2880" type="1" steps="16">
          <note len="12" key="67" vol="100" pos="0" pan="0"/>
          <note len="24" key="0" vol="100" pos="0" pan="0"/>
          <note len="12" key="66" vol="100" pos="12" pan="0"/>
          <note len="12" key="64" vol="100" pos="24" pan="0"/>
          <note len="24" key="1" vol="100" pos="24" pan="0"/>
          <note len="12" key="64" vol="100" pos="36" pan="0"/>
          <note len="12" key="64" vol="100" pos="48" pan="0"/>
          <note len="12" key="64" vol="100" pos="60" pan="0"/>
          <note len="12" key="66" vol="100" pos="72" pan="0"/>
          <note len="24" key="0" vol="100" pos="72" pan="0"/>
          <note len="12" key="64" vol="100" pos="84" pan="0"/>
          <note len="12" key="64" vol="100" pos="96" pan="0"/>
          <note len="24" key="1" vol="100" pos="96" pan="0"/>
          <note len="12" key="64" vol="100" pos="108" pan="0"/>
          <note len="12" key="64" vol="100" pos="120" pan="0"/>
          <note len="12" key="64" vol="100" pos="132" pan="0"/>
          <note len="12" key="67" vol="100" pos="144" pan="0"/>
          <note len="12" key="0" vol="100" pos="144" pan="0"/>
          <note len="12" key="66" vol="100" pos="156" pan="0"/>
          <note len="12" key="64" vol="100" pos="168" pan="0"/>
          <note len="12" key="1" vol="100" pos="168" pan="0"/>
          <note len="12" key="64" vol="100" pos="180" pan="0"/>
          <note len="12" key="67" vol="100" pos="192" pan="0"/>
          <note len="12" key="0" vol="100" pos="192" pan="0"/>
          <note len="12" key="66" vol="100" pos="204" pan="0"/>
          <note len="12" key="64" vol="100" pos="216" pan="0"/>
          <note len="12" key="1" vol="100" pos="216" pan="0"/>
          <note len="12" key="64" vol="100" pos="228" pan="0"/>
          <note len="12" key="64" vol="100" pos="240" pan="0"/>
          <note len="12" key="64" vol="100" pos="252" pan="0"/>
          <note len="12" key="66" vol="100" pos="264" pan="0"/>
          <note len="12" key="0" vol="100" pos="264" pan="0"/>
          <note len="12" key="64" vol="100" pos="276" pan="0"/>
          <note len="12" key="64" vol="100" pos="288" pan="0"/>
          <note len="12" key="1" vol="100" pos="288" pan="0"/>
          <note len="12" key="64" vol="100" pos="300" pan="0"/>
          <note len="12" key="64" vol="100" pos="312" pan="0"/>
          <note len="12" key="64" vol="100" pos="324" pan="0"/>
          <note len="12" key="67" vol="100" pos="336" pan="0"/>
          <note len="12" key="0" vol="100" pos="336" pan="0"/>
          <note len="12" key="66" vol="100" pos="348" pan="0"/>
          <note len="12" key="64" vol="100" pos="360" pan="0"/>
          <note len="12" key="1" vol="100" pos="360" pan="0"/>
          <note len="12" key="64" vol="100" pos="372" pan="0"/>
          <note len="12" key="71" vol="100" pos="384" pan="0"/>
          <note len="12" key="0" vol="100" pos="384" pan="0"/>
          <note len="12" key="67" vol="100" pos="396" pan="0"/>
          <note len="12" key="62" vol="100" pos="408" pan="0"/>
          <note len="12" key="1" vol="100" pos="408" pan="0"/>
          <note len="12" key="59" vol="100" pos="420" pan="0"/>
          <note len="12" key="62" vol="100" pos="432" pan="0"/>
          <note len="12" key="67" vol="100" pos="444" pan="0"/>
          <note len="12" key="69" vol="100" pos="456" pan="0"/>
          <note len="12" key="0" vol="100" pos="456" pan="0"/>
          <note len="12" key="67" vol="100" pos="468" pan="0"/>
          <note len="12" key="62" vol="100" pos="480" pan="0"/>
          <note len="12" key="1" vol="100" pos="480" pan="0"/>
          <note len="12" key="59" vol="100" pos="492" pan="0"/>
          <note len="12" key="62" vol="100" pos="504" pan="0"/>
          <note len="12" key="67" vol="100" pos="516" pan="0"/>
          <note len="12" key="71" vol="100" pos="528" pan="0"/>
          <note len="12" key="0" vol="100" pos="528" pan="0"/>
          <note len="12" key="69" vol="100" pos="540" pan="0"/>
          <note len="12" key="67" vol="100" pos="552" pan="0"/>
          <note len="12" key="1" vol="100" pos="552" pan="0"/>
          <note len="12" key="66" vol="100" pos="564" pan="0"/>
          <note len="48" key="79" vol="100" pos="576" pan="0"/>
          <note len="48" key="0" vol="100" pos="576" pan="0"/>
          <note len="48" key="78" vol="100" pos="624" pan="0"/>
          <note len="48" key="76" vol="100" pos="672" pan="0"/>
          <note len="48" key="74" vol="100" pos="720" pan="0"/>
        </pattern>
        <pattern muted="0" name="" pos="3648" type="1" steps="16">
          <note len="12" key="76" vol="100" pos="0" pan="0"/>
          <note len="24" key="0" vol="100" pos="0" pan="0"/>
          <note len="12" key="74" vol="100" pos="12" pan="0"/>
          <note len="12" key="71" vol="100" pos="24" pan="0"/>
          <note len="24" key="1" vol="100" pos="24" pan="0"/>
          <note len="12" key="71" vol="100" pos="36" pan="0"/>
          <note len="12" key="71" vol="100" pos="48" pan="0"/>
          <note len="12" key="71" vol="100" pos="60" pan="0"/>
          <note len="12" key="74" vol="100" pos="72" pan="0"/>
          <note len="24" key="0" vol="100" pos="72" pan="0"/>
          <note len="12" key="71" vol="100" pos="84" pan="0"/>
          <note len="12" key="71" vol="100" pos="96" pan="0"/>
          <note len="24" key="1" vol="100" pos="96" pan="0"/>
          <note len="12" key="71" vol="100" pos="108" pan="0"/>
          <note len="12" key="71" vol="100" pos="120" pan="0"/>
          <note len="12" key="71" vol="100" pos="132" pan="0"/>
          <note len="12" key="76" vol="100" pos="144" pan="0"/>
          <note len="12" key="0" vol="100" pos="144" pan="0"/>
          <note len="12" key="74" vol="100" pos="156" pan="0"/>
          <note len="12" key="71" vol="100" pos="168" pan="0"/>
          <note len="12" key="1" vol="100" pos="168" pan="0"/>
          <note len="12" key="71" vol="100" pos="180" pan="0"/>
          <note len="12" key="76" vol="100" pos="192" pan="0"/>
          <note len="12" key="0" vol="100" pos="192" pan="0"/>
          <note len="12" key="74" vol="100" pos="204" pan="0"/>
          <note len="12" key="71" vol="100" pos="216" pan="0"/>
          <note len="12" key="1" vol="100" pos="216" pan="0"/>
          <note len="12" key="71" vol="100" pos="228" pan="0"/>
          <note len="12" key="71" vol="100" pos="240" pan="0"/>
          <note len="12" key="71" vol="100" pos="252" pan="0"/>
          <note len="12" key="74" vol="100" pos="264" pan="0"/>
          <note len="12" key="0" vol="100" pos="264" pan="0"/>
          <note len="12" key="71" vol="100" pos="276" pan="0"/>
          <note len="12" key="71" vol="100" pos="288" pan="0"/>
          <note len="12" key="1" vol="100" pos="288" pan="0"/>
          <note len="12" key="71" vol="100" pos="300" pan="0"/>
          <note len="12" key="71" vol="100" pos="312" pan="0"/>
          <note len="12" key="71" vol="100" pos="324" pan="0"/>
          <note len="12" key="76" vol="100" pos="336" pan="0"/>
          <note len="12" key="0" vol="100" pos="336" pan="0"/>
          <note len="12" key="74" vol="100" pos="348" pan="0"/>
          <note len="12" key="71" vol="100" pos="360" pan="0"/>
          <note len="12" key="1" vol="100" pos="360" pan="0"/>
          <note len="12" key="71" vol="100" pos="372" pan="0"/>
          <note len="12" key="79" vol="100" pos="384" pan="0"/>
          <note len="12" key="0" vol="100" pos="384" pan="0"/>
          <note len="12" key="78" vol="100" pos="396" pan="0"/>
          <note len="12" key="74" vol="100" pos="408" pan="0"/>
          <note len="12" key="1" vol="100" pos="408" pan="0"/>
          <note len="12" key="74" vol="100" pos="420" pan="0"/>
          <note len="12" key="74" vol="100" pos="432" pan="0"/>
          <note len="12" key="74" vol="100" pos="444" pan="0"/>
          <note len="12" key="78" vol="100" pos="456" pan="0"/>
          <note len="12" key="0" vol="100" pos="456" pan="0"/>
          <note len="12" key="74" vol="100" pos="468" pan="0"/>
          <note len="12" key="74" vol="100" pos="480" pan="0"/>
          <note len="12" key="1" vol="100" pos="480" pan="0"/>
          <note len="12" key="74" vol="100" pos="492" pan="0"/>
          <note len="12" key="74" vol="100" pos="504" pan="0"/>
          <note len="12" key="74" vol="100" pos="516" pan="0"/>
          <note len="12" key="79" vol="100" pos="528" pan="0"/>
          <note len="12" key="0" vol="100" pos="528" pan="0"/>
          <note len="12" key="78" vol="100" pos="540" pan="0"/>
          <note len="12" key="74" vol="100" pos="552" pan="0"/>
          <note len="12" key="1" vol="100" pos="552" pan="0"/>
          <note len="12" key="74" vol="100" pos="564" pan="0"/>
          <note len="12" key="69" vol="100" pos="576" pan="0"/>
          <note len="12" key="69" vol="100" pos="588" pan="0"/>
          <note len="12" key="67" vol="100" pos="600" pan="0"/>
          <note len="12" key="67" vol="100" pos="612" pan="0"/>
          <note len="12" key="66" vol="100" pos="624" pan="0"/>
          <note len="12" key="66" vol="100" pos="636" pan="0"/>
          <note len="12" key="67" vol="100" pos="648" pan="0"/>
          <note len="12" key="67" vol="100" pos="660" pan="0"/>
          <note len="12" key="66" vol="100" pos="672" pan="0"/>
          <note len="12" key="66" vol="100" pos="684" pan="0"/>
          <note len="12" key="64" vol="100" pos="696" pan="0"/>
          <note len="12" key="64" vol="100" pos="708" pan="0"/>
          <note len="12" key="62" vol="100" pos="720" pan="0"/>
          <note len="12" key="62" vol="100" pos="732" pan="0"/>
          <note len="12" key="66" vol="100" pos="744" pan="0"/>
          <note len="12" key="66" vol="100" pos="756" pan="0"/>
        </pattern>
        <pattern muted="0" name="" pos="4416" type="1" steps="16">
          <note len="12" key="76" vol="100" pos="0" pan="0"/>
          <note len="24" key="0" vol="100" pos="0" pan="0"/>
          <note len="12" key="74" vol="100" pos="12" pan="0"/>
          <note len="12" key="71" vol="100" pos="24" pan="0"/>
          <note len="24" key="1" vol="100" pos="24" pan="0"/>
          <note len="12" key="71" vol="100" pos="36" pan="0"/>
          <note len="12" key="71" vol="100" pos="48" pan="0"/>
          <note len="12" key="71" vol="100" pos="60" pan="0"/>
          <note len="12" key="74" vol="100" pos="72" pan="0"/>
          <note len="24" key="0" vol="100" pos="72" pan="0"/>
          <note len="12" key="71" vol="100" pos="84" pan="0"/>
          <note len="12" key="71" vol="100" pos="96" pan="0"/>
          <note len="24" key="1" vol="100" pos="96" pan="0"/>
          <note len="12" key="71" vol="100" pos="108" pan="0"/>
          <note len="12" key="71" vol="100" pos="120" pan="0"/>
          <note len="12" key="71" vol="100" pos="132" pan="0"/>
          <note len="12" key="76" vol="100" pos="144" pan="0"/>
          <note len="12" key="0" vol="100" pos="144" pan="0"/>
          <note len="12" key="74" vol="100" pos="156" pan="0"/>
          <note len="12" key="71" vol="100" pos="168" pan="0"/>
          <note len="12" key="1" vol="100" pos="168" pan="0"/>
          <note len="12" key="71" vol="100" pos="180" pan="0"/>
          <note len="12" key="76" vol="100" pos="192" pan="0"/>
          <note len="12" key="0" vol="100" pos="192" pan="0"/>
          <note len="12" key="74" vol="100" pos="204" pan="0"/>
          <note len="12" key="71" vol="100" pos="216" pan="0"/>
          <note len="12" key="1" vol="100" pos="216" pan="0"/>
          <note len="12" key="71" vol="100" pos="228" pan="0"/>
          <note len="12" key="71" vol="100" pos="240" pan="0"/>
          <note len="12" key="71" vol="100" pos="252" pan="0"/>
          <note len="12" key="74" vol="100" pos="264" pan="0"/>
          <note len="12" key="0" vol="100" pos="264" pan="0"/>
          <note len="12" key="71" vol="100" pos="276" pan="0"/>
          <note len="12" key="71" vol="100" pos="288" pan="0"/>
          <note len="12" key="1" vol="100" pos="288" pan="0"/>
          <note len="12" key="71" vol="100" pos="300" pan="0"/>
          <note len="12" key="71" vol="100" pos="312" pan="0"/>
          <note len="12" key="71" vol="100" pos="324" pan="0"/>
          <note len="12" key="76" vol="100" pos="336" pan="0"/>
          <note len="12" key="0" vol="100" pos="336" pan="0"/>
          <note len="12" key="74" vol="100" pos="348" pan="0"/>
          <note len="12" key="71" vol="100" pos="360" pan="0"/>
          <note len="12" key="1" vol="100" pos="360" pan="0"/>
          <note len="12" key="71" vol="100" pos="372" pan="0"/>
          <note len="12" key="79" vol="100" pos="384" pan="0"/>
          <note len="12" key="0" vol="100" pos="384" pan="0"/>
          <note len="12" key="74" vol="100" pos="396" pan="0"/>
          <note len="12" key="71" vol="100" pos="408" pan="0"/>
          <note len="12" key="1" vol="100" pos="408" pan="0"/>
          <note len="12" key="67" vol="100" pos="420" pan="0"/>
          <note len="12" key="71" vol="100" pos="432" pan="0"/>
          <note len="12" key="74" vol="100" pos="444" pan="0"/>
          <note len="12" key="78" vol="100" pos="456" pan="0"/>
          <note len="12" key="0" vol="100" pos="456" pan="0"/>
          <note len="12" key="74" vol="100" pos="468" pan="0"/>
          <note len="12" key="71" vol="100" pos="480" pan="0"/>
          <note len="12" key="1" vol="100" pos="480" pan="0"/>
          <note len="12" key="67" vol="100" pos="492" pan="0"/>
          <note len="12" key="71" vol="100" pos="504" pan="0"/>
          <note len="12" key="74" vol="100" pos="516" pan="0"/>
          <note len="12" key="79" vol="100" pos="528" pan="0"/>
          <note len="12" key="0" vol="100" pos="528" pan="0"/>
          <note len="12" key="78" vol="100" pos="540" pan="0"/>
          <note len="12" key="76" vol="100" pos="552" pan="0"/>
          <note len="12" key="1" vol="100" pos="552" pan="0"/>
          <note len="12" key="74" vol="100" pos="564" pan="0"/>
          <note len="48" key="76" vol="100" pos="576" pan="0"/>
          <note len="48" key="0" vol="100" pos="576" pan="0"/>
          <note len="48" key="74" vol="100" pos="624" pan="0"/>
          <note len="48" key="71" vol="100" pos="672" pan="0"/>
          <note len="48" key="69" vol="100" pos="720" pan="0"/>
        </pattern>
        <pattern muted="0" name="" pos="36480" type="1" steps="16">
          <note len="1152" key="59" vol="127" pos="0" pan="0"/>
          <note len="1152" key="52" vol="127" pos="0" pan="0"/>
          <note len="192" key="55" vol="127" pos="1152" pan="0"/>
          <note len="192" key="48" vol="127" pos="1152" pan="0"/>
          <note len="192" key="57" vol="127" pos="1344" pan="0"/>
          <note len="192" key="50" vol="127" pos="1344" pan="0"/>
        </pattern>
      </track>
      <track muted="0" name="ohit" solo="0" type="0">
        <instrumenttrack pitch="0" fxch="0" basenote="57" vol="46.6001" pitchrange="1" usemasterpitch="1" pan="0">
          <instrument name="sf2player">
            <sf2player reverbOn="0" src="/home/pass/samples/soundfonts/Orchestra Soundfont 2 COMBO.sf2" chorusSpeed="0.3" chorusOn="0" chorusNum="3" reverbWidth="0.5" patch="55" reverbDamping="0" chorusDepth="8" gain="1.92" bank="0" reverbRoomSize="0.2" chorusLevel="2" reverbLevel="0.9"/>
          </instrument>
          <eldata ftype="0" fcut="14000" fres="0.5" fwet="0">
            <elvol userwavefile="" hold="0.5" lspd_numerator="4" lspd="0.1" lspd_denominator="4" lshp="0" latt="0" rel="0.1" x100="0" pdel="0" lpdel="0" amt="0" lspd_syncmode="0" dec="0.5" lamt="0" sustain="0.5" ctlenvamt="0" att="0"/>
            <elcut userwavefile="" hold="0.5" lspd_numerator="4" lspd="0.1" lspd_denominator="4" lshp="0" latt="0" rel="0.1" x100="0" pdel="0" lpdel="0" amt="0" lspd_syncmode="0" dec="0.5" lamt="0" sustain="0.5" ctlenvamt="0" att="0"/>
            <elres userwavefile="" hold="0.5" lspd_numerator="4" lspd="0.1" lspd_denominator="4" lshp="0" latt="0" rel="0.1" x100="0" pdel="0" lpdel="0" amt="0" lspd_syncmode="0" dec="0.5" lamt="0" sustain="0.5" ctlenvamt="0" att="0"/>
          </eldata>
          <chordcreator chord-enabled="0" chordrange="1" chord="0"/>
          <arpeggiator arpcycle="0" arptime_syncmode="0" arptime_numerator="4" arpgate="100" arpmode="0" arp-enabled="0" arptime="200" arp="0" arpskip="0" arpmiss="0" arprange="1" arpdir="0" arptime_denominator="4"/>
          <midiport inputchannel="0" outputprogram="1" basevelocity="63" outputchannel="1" fixedinputvelocity="-1" inputcontroller="0" readable="0" writable="0" outputcontroller="0" fixedoutputvelocity="-1" fixedoutputnote="-1"/>
          <fxchain numofeffects="0" enabled="0"/>
        </instrumenttrack>
        <pattern muted="0" name="ohit" pos="13824" type="1" steps="16">
          <note len="24" key="76" vol="193" pos="0" pan="0"/>
          <note len="24" key="64" vol="193" pos="0" pan="0"/>
          <note len="72" key="76" vol="193" pos="24" pan="0"/>
          <note len="72" key="64" vol="193" pos="24" pan="0"/>
          <note len="72" key="76" vol="193" pos="192" pan="0"/>
          <note len="72" key="67" vol="193" pos="192" pan="0"/>
          <note len="72" key="74" vol="193" pos="264" pan="0"/>
          <note len="72" key="66" vol="193" pos="264" pan="0"/>
          <note len="72" key="76" vol="193" pos="336" pan="0"/>
          <note len="72" key="67" vol="193" pos="336" pan="0"/>
        </pattern>
        <pattern muted="0" name="ohit" pos="21888" type="1" steps="16">
          <note len="24" key="76" vol="197" pos="0" pan="0"/>
          <note len="24" key="52" vol="197" pos="0" pan="0"/>
          <note len="168" key="76" vol="197" pos="24" pan="0"/>
          <note len="168" key="52" vol="197" pos="24" pan="0"/>
        </pattern>
      </track>
      <track muted="0" name="choir" solo="0" type="0">
        <instrumenttrack pitch="0" fxch="0" basenote="57" vol="57.3" pitchrange="1" usemasterpitch="1" pan="0">
          <instrument name="sf2player">
            <sf2player reverbOn="0" src="/home/pass/samples/soundfonts/Orchestra Soundfont 2 COMBO.sf2" chorusSpeed="0.3" chorusOn="0" chorusNum="3" reverbWidth="0.5" patch="52" reverbDamping="0" chorusDepth="8" gain="1" bank="0" reverbRoomSize="0.2" chorusLevel="2" reverbLevel="0.9"/>
          </instrument>
          <eldata ftype="0" fcut="14000" fres="0.5" fwet="0">
            <elvol userwavefile="" hold="0.5" lspd_numerator="4" lspd="0.1" lspd_denominator="4" lshp="0" latt="0" rel="0.1" x100="0" pdel="0" lpdel="0" amt="0" lspd_syncmode="0" dec="0.5" lamt="0" sustain="0.5" ctlenvamt="0" att="0"/>
            <elcut userwavefile="" hold="0.5" lspd_numerator="4" lspd="0.1" lspd_denominator="4" lshp="0" latt="0" rel="0.1" x100="0" pdel="0" lpdel="0" amt="0" lspd_syncmode="0" dec="0.5" lamt="0" sustain="0.5" ctlenvamt="0" att="0"/>
            <elres userwavefile="" hold="0.5" lspd_numerator="4" lspd="0.1" lspd_denominator="4" lshp="0" latt="0" rel="0.1" x100="0" pdel="0" lpdel="0" amt="0" lspd_syncmode="0" dec="0.5" lamt="0" sustain="0.5" ctlenvamt="0" att="0"/>
          </eldata>
          <chordcreator chord-enabled="0" chordrange="1" chord="0"/>
          <arpeggiator arpcycle="0" arptime_syncmode="0" arptime_numerator="4" arpgate="100" arpmode="0" arp-enabled="0" arptime="200" arp="0" arpskip="0" arpmiss="0" arprange="1" arpdir="0" arptime_denominator="4"/>
          <midiport inputchannel="0" outputprogram="1" basevelocity="63" outputchannel="1" fixedinputvelocity="-1" inputcontroller="0" readable="0" writable="0" outputcontroller="0" fixedoutputvelocity="-1" fixedoutputnote="-1"/>
          <fxchain numofeffects="3" enabled="1">
            <effect autoquit_syncmode="0" name="eq" wet="1" autoquit_denominator="4" autoquit_numerator="4" autoquit="1" on="0" gate="0">
              <Eq Peak3bw="0.3" Outputgain="0" LP24="0" Peak4bw="0.3" Peak2gain="-0.54" Peak1active="1" LP12="1" Peak2bw="0.3" HighShelfres="1.4" HPres="0.707" AnalyseIn="1" LowShelfres="1.4" LPactive="1" HP12="1" Lowshelfgain="0" HPactive="1" LP48="0" Peak2active="1" HP48="0" Lowshelfactive="0" Peak4active="1" HP24="0" Peak4gain="0" Peak3gain="0" LPres="0.707" Peak3active="1" Highshelfactive="1" LP="0" HP="0" AnalyseOut="1" Peak1bw="0.3" HighShelfgain="5.22">
                <Inputgain id="793314" scale_type="log" value="0"/>
                <Peak1gain id="761043" scale_type="log" value="0"/>
                <HPfreq id="5926095" scale_type="log" value="31"/>
                <LowShelffreq id="4909335" scale_type="log" value="80"/>
                <Peak1freq id="894702" scale_type="log" value="120"/>
                <Peak2freq id="527757" scale_type="log" value="378.39"/>
                <Peak3freq id="1147338" scale_type="log" value="2000"/>
                <Peak4freq id="6364747" scale_type="log" value="4000"/>
                <Highshelffreq id="5790661" scale_type="log" value="1275.99"/>
                <LPfreq id="5585940" scale_type="log" value="18000"/>
              </Eq>
              <key/>
            </effect>
            <effect autoquit_syncmode="0" name="stereoenhancer" wet="1" autoquit_denominator="4" autoquit_numerator="4" autoquit="1" on="1" gate="0">
              <stereoenhancercontrols width="142"/>
              <key/>
            </effect>
            <effect autoquit_syncmode="0" name="reverbsc" wet="1" autoquit_denominator="4" autoquit_numerator="4" autoquit="1" on="1" gate="0">
              <ReverbSCControls size="0.89" color="10000" input_gain="0" output_gain="-7.8"/>
              <key/>
            </effect>
          </fxchain>
        </instrumenttrack>
        <pattern muted="0" name="choir" pos="9216" type="1" steps="16">
          <note len="384" key="62" vol="191" pos="0" pan="0"/>
          <note len="384" key="59" vol="191" pos="0" pan="0"/>
          <note len="384" key="55" vol="191" pos="0" pan="0"/>
          <note len="384" key="62" vol="191" pos="384" pan="0"/>
          <note len="384" key="57" vol="191" pos="384" pan="0"/>
          <note len="384" key="54" vol="191" pos="384" pan="0"/>
          <note len="192" key="64" vol="191" pos="768" pan="0"/>
          <note len="192" key="59" vol="191" pos="768" pan="0"/>
          <note len="192" key="55" vol="191" pos="768" pan="0"/>
          <note len="192" key="62" vol="191" pos="960" pan="0"/>
          <note len="192" key="57" vol="191" pos="960" pan="0"/>
          <note len="192" key="54" vol="191" pos="960" pan="0"/>
          <note len="192" key="60" vol="191" pos="1152" pan="0"/>
          <note len="192" key="55" vol="191" pos="1152" pan="0"/>
          <note len="192" key="52" vol="191" pos="1152" pan="0"/>
          <note len="192" key="62" vol="191" pos="1344" pan="0"/>
          <note len="192" key="57" vol="191" pos="1344" pan="0"/>
          <note len="192" key="54" vol="191" pos="1344" pan="0"/>
        </pattern>
        <pattern muted="0" name="choir" pos="10752" type="1" steps="16">
          <note len="384" key="67" vol="191" pos="0" pan="0"/>
          <note len="384" key="62" vol="191" pos="0" pan="0"/>
          <note len="384" key="59" vol="191" pos="0" pan="0"/>
          <note len="384" key="69" vol="191" pos="384" pan="0"/>
          <note len="384" key="66" vol="191" pos="384" pan="0"/>
          <note len="384" key="62" vol="191" pos="384" pan="0"/>
          <note len="192" key="71" vol="191" pos="768" pan="0"/>
          <note len="192" key="67" vol="191" pos="768" pan="0"/>
          <note len="192" key="64" vol="191" pos="768" pan="0"/>
          <note len="192" key="69" vol="191" pos="960" pan="0"/>
          <note len="192" key="66" vol="191" pos="960" pan="0"/>
          <note len="192" key="62" vol="191" pos="960" pan="0"/>
          <note len="192" key="67" vol="191" pos="1152" pan="0"/>
          <note len="192" key="64" vol="191" pos="1152" pan="0"/>
          <note len="192" key="60" vol="191" pos="1152" pan="0"/>
          <note len="192" key="69" vol="191" pos="1344" pan="0"/>
          <note len="192" key="66" vol="191" pos="1344" pan="0"/>
          <note len="192" key="62" vol="191" pos="1344" pan="0"/>
        </pattern>
        <pattern muted="0" name="choir" pos="18432" type="1" steps="16">
          <note len="384" key="62" vol="191" pos="0" pan="0"/>
          <note len="384" key="59" vol="191" pos="0" pan="0"/>
          <note len="384" key="55" vol="191" pos="0" pan="0"/>
          <note len="384" key="62" vol="191" pos="384" pan="0"/>
          <note len="384" key="57" vol="191" pos="384" pan="0"/>
          <note len="384" key="54" vol="191" pos="384" pan="0"/>
          <note len="192" key="64" vol="191" pos="768" pan="0"/>
          <note len="192" key="59" vol="191" pos="768" pan="0"/>
          <note len="192" key="55" vol="191" pos="768" pan="0"/>
          <note len="192" key="62" vol="191" pos="960" pan="0"/>
          <note len="192" key="57" vol="191" pos="960" pan="0"/>
          <note len="192" key="54" vol="191" pos="960" pan="0"/>
          <note len="192" key="60" vol="191" pos="1152" pan="0"/>
          <note len="192" key="55" vol="191" pos="1152" pan="0"/>
          <note len="192" key="52" vol="191" pos="1152" pan="0"/>
          <note len="192" key="62" vol="191" pos="1344" pan="0"/>
          <note len="192" key="57" vol="191" pos="1344" pan="0"/>
          <note len="192" key="54" vol="191" pos="1344" pan="0"/>
        </pattern>
        <pattern muted="0" name="choir" pos="19968" type="1" steps="16">
          <note len="384" key="67" vol="191" pos="0" pan="0"/>
          <note len="384" key="62" vol="191" pos="0" pan="0"/>
          <note len="384" key="59" vol="191" pos="0" pan="0"/>
          <note len="384" key="69" vol="191" pos="384" pan="0"/>
          <note len="384" key="66" vol="191" pos="384" pan="0"/>
          <note len="384" key="62" vol="191" pos="384" pan="0"/>
          <note len="192" key="71" vol="191" pos="768" pan="0"/>
          <note len="192" key="67" vol="191" pos="768" pan="0"/>
          <note len="192" key="64" vol="191" pos="768" pan="0"/>
          <note len="192" key="69" vol="191" pos="960" pan="0"/>
          <note len="192" key="66" vol="191" pos="960" pan="0"/>
          <note len="192" key="62" vol="191" pos="960" pan="0"/>
          <note len="192" key="67" vol="191" pos="1152" pan="0"/>
          <note len="192" key="64" vol="191" pos="1152" pan="0"/>
          <note len="192" key="60" vol="191" pos="1152" pan="0"/>
          <note len="192" key="69" vol="191" pos="1344" pan="0"/>
          <note len="192" key="66" vol="191" pos="1344" pan="0"/>
          <note len="192" key="62" vol="191" pos="1344" pan="0"/>
        </pattern>
        <pattern muted="0" name="" pos="30720" type="1" steps="16">
          <note len="384" key="62" vol="191" pos="0" pan="0"/>
          <note len="384" key="59" vol="191" pos="0" pan="0"/>
          <note len="384" key="55" vol="191" pos="0" pan="0"/>
          <note len="384" key="62" vol="191" pos="384" pan="0"/>
          <note len="384" key="57" vol="191" pos="384" pan="0"/>
          <note len="384" key="54" vol="191" pos="384" pan="0"/>
          <note len="192" key="64" vol="191" pos="768" pan="0"/>
          <note len="192" key="59" vol="191" pos="768" pan="0"/>
          <note len="192" key="55" vol="191" pos="768" pan="0"/>
          <note len="192" key="62" vol="191" pos="960" pan="0"/>
          <note len="192" key="57" vol="191" pos="960" pan="0"/>
          <note len="192" key="54" vol="191" pos="960" pan="0"/>
          <note len="192" key="60" vol="191" pos="1152" pan="0"/>
          <note len="192" key="55" vol="191" pos="1152" pan="0"/>
          <note len="192" key="52" vol="191" pos="1152" pan="0"/>
          <note len="192" key="62" vol="191" pos="1344" pan="0"/>
          <note len="192" key="57" vol="191" pos="1344" pan="0"/>
          <note len="192" key="54" vol="191" pos="1344" pan="0"/>
        </pattern>
        <pattern muted="0" name="" pos="32256" type="1" steps="16">
          <note len="384" key="67" vol="191" pos="0" pan="0"/>
          <note len="384" key="62" vol="191" pos="0" pan="0"/>
          <note len="384" key="59" vol="191" pos="0" pan="0"/>
          <note len="384" key="69" vol="191" pos="384" pan="0"/>
          <note len="384" key="66" vol="191" pos="384" pan="0"/>
          <note len="384" key="62" vol="191" pos="384" pan="0"/>
          <note len="192" key="71" vol="191" pos="768" pan="0"/>
          <note len="192" key="67" vol="191" pos="768" pan="0"/>
          <note len="192" key="64" vol="191" pos="768" pan="0"/>
          <note len="192" key="69" vol="191" pos="960" pan="0"/>
          <note len="192" key="66" vol="191" pos="960" pan="0"/>
          <note len="192" key="62" vol="191" pos="960" pan="0"/>
          <note len="192" key="67" vol="191" pos="1152" pan="0"/>
          <note len="192" key="64" vol="191" pos="1152" pan="0"/>
          <note len="192" key="60" vol="191" pos="1152" pan="0"/>
          <note len="192" key="69" vol="191" pos="1344" pan="0"/>
          <note len="192" key="66" vol="191" pos="1344" pan="0"/>
          <note len="192" key="62" vol="191" pos="1344" pan="0"/>
        </pattern>
      </track>
      <track muted="0" name="Blanchet-1720" solo="0" type="0">
        <instrumenttrack pitch="0" fxch="17" basenote="57" vol="58.4" pitchrange="1" usemasterpitch="1" pan="0">
          <instrument name="sf2player">
            <sf2player reverbOn="0" src="/home/pass/samples/soundfonts/Blanchet-1720.sf2" chorusSpeed="0.3" chorusOn="0" chorusNum="3" reverbWidth="0.5" patch="1" reverbDamping="0" chorusDepth="8" gain="1.92" bank="1" reverbRoomSize="0.2" chorusLevel="2" reverbLevel="0.9"/>
          </instrument>
          <eldata ftype="0" fcut="14000" fres="0.5" fwet="0">
            <elvol userwavefile="" hold="0.5" lspd_numerator="4" lspd="0.1" lspd_denominator="4" lshp="0" latt="0" rel="0.1" x100="0" pdel="0" lpdel="0" amt="0" lspd_syncmode="0" dec="0.5" lamt="0" sustain="0.5" ctlenvamt="0" att="0"/>
            <elcut userwavefile="" hold="0.5" lspd_numerator="4" lspd="0.1" lspd_denominator="4" lshp="0" latt="0" rel="0.1" x100="0" pdel="0" lpdel="0" amt="0" lspd_syncmode="0" dec="0.5" lamt="0" sustain="0.5" ctlenvamt="0" att="0"/>
            <elres userwavefile="" hold="0.5" lspd_numerator="4" lspd="0.1" lspd_denominator="4" lshp="0" latt="0" rel="0.1" x100="0" pdel="0" lpdel="0" amt="0" lspd_syncmode="0" dec="0.5" lamt="0" sustain="0.5" ctlenvamt="0" att="0"/>
          </eldata>
          <chordcreator chord-enabled="0" chordrange="1" chord="0"/>
          <arpeggiator arpcycle="0" arptime_syncmode="0" arptime_numerator="4" arpgate="100" arpmode="0" arp-enabled="0" arptime="200" arp="0" arpskip="0" arpmiss="0" arprange="1" arpdir="0" arptime_denominator="4"/>
          <midiport inputchannel="0" outputprogram="1" basevelocity="63" outputchannel="1" fixedinputvelocity="-1" inputcontroller="0" readable="0" writable="0" outputcontroller="0" fixedoutputvelocity="-1" fixedoutputnote="-1"/>
          <fxchain numofeffects="0" enabled="0"/>
        </instrumenttrack>
        <pattern muted="0" name="Blanchet-1720" pos="7680" type="1" steps="16">
          <note len="24" key="55" vol="197" pos="0" pan="0"/>
          <note len="24" key="52" vol="197" pos="24" pan="0"/>
          <note len="24" key="60" vol="197" pos="48" pan="0"/>
          <note len="24" key="52" vol="197" pos="72" pan="0"/>
          <note len="24" key="55" vol="197" pos="96" pan="0"/>
          <note len="24" key="52" vol="197" pos="120" pan="0"/>
          <note len="24" key="48" vol="197" pos="144" pan="0"/>
          <note len="24" key="52" vol="197" pos="168" pan="0"/>
          <note len="24" key="55" vol="197" pos="192" pan="0"/>
          <note len="24" key="50" vol="197" pos="216" pan="0"/>
          <note len="24" key="59" vol="197" pos="240" pan="0"/>
          <note len="24" key="50" vol="197" pos="264" pan="0"/>
          <note len="24" key="55" vol="197" pos="288" pan="0"/>
          <note len="24" key="50" vol="197" pos="312" pan="0"/>
          <note len="24" key="47" vol="197" pos="336" pan="0"/>
          <note len="24" key="50" vol="197" pos="360" pan="0"/>
          <note len="24" key="54" vol="197" pos="384" pan="0"/>
          <note len="24" key="50" vol="197" pos="408" pan="0"/>
          <note len="24" key="57" vol="197" pos="432" pan="0"/>
          <note len="24" key="50" vol="197" pos="456" pan="0"/>
          <note len="24" key="54" vol="197" pos="480" pan="0"/>
          <note len="24" key="50" vol="197" pos="504" pan="0"/>
          <note len="24" key="45" vol="197" pos="528" pan="0"/>
          <note len="24" key="50" vol="197" pos="552" pan="0"/>
          <note len="24" key="55" vol="197" pos="576" pan="0"/>
          <note len="24" key="52" vol="197" pos="600" pan="0"/>
          <note len="24" key="59" vol="197" pos="624" pan="0"/>
          <note len="24" key="52" vol="197" pos="648" pan="0"/>
          <note len="24" key="55" vol="197" pos="672" pan="0"/>
          <note len="24" key="52" vol="197" pos="696" pan="0"/>
          <note len="24" key="47" vol="197" pos="720" pan="0"/>
          <note len="24" key="52" vol="197" pos="744" pan="0"/>
        </pattern>
        <pattern muted="0" name="Blanchet-1720" pos="8448" type="1" steps="16">
          <note len="24" key="55" vol="197" pos="0" pan="0"/>
          <note len="24" key="52" vol="197" pos="24" pan="0"/>
          <note len="24" key="60" vol="197" pos="48" pan="0"/>
          <note len="24" key="52" vol="197" pos="72" pan="0"/>
          <note len="24" key="55" vol="197" pos="96" pan="0"/>
          <note len="24" key="52" vol="197" pos="120" pan="0"/>
          <note len="24" key="48" vol="197" pos="144" pan="0"/>
          <note len="24" key="52" vol="197" pos="168" pan="0"/>
          <note len="24" key="55" vol="197" pos="192" pan="0"/>
          <note len="24" key="50" vol="197" pos="216" pan="0"/>
          <note len="24" key="59" vol="197" pos="240" pan="0"/>
          <note len="24" key="50" vol="197" pos="264" pan="0"/>
          <note len="24" key="55" vol="197" pos="288" pan="0"/>
          <note len="24" key="50" vol="197" pos="312" pan="0"/>
          <note len="24" key="47" vol="197" pos="336" pan="0"/>
          <note len="24" key="50" vol="197" pos="360" pan="0"/>
          <note len="12" key="54" vol="197" pos="384" pan="0"/>
          <note len="12" key="50" vol="197" pos="396" pan="0"/>
          <note len="12" key="54" vol="197" pos="408" pan="0"/>
          <note len="12" key="50" vol="197" pos="420" pan="0"/>
          <note len="12" key="55" vol="197" pos="432" pan="0"/>
          <note len="12" key="50" vol="197" pos="444" pan="0"/>
          <note len="12" key="55" vol="197" pos="456" pan="0"/>
          <note len="12" key="50" vol="197" pos="468" pan="0"/>
          <note len="12" key="57" vol="197" pos="480" pan="0"/>
          <note len="12" key="54" vol="197" pos="492" pan="0"/>
          <note len="12" key="57" vol="197" pos="504" pan="0"/>
          <note len="12" key="54" vol="197" pos="516" pan="0"/>
          <note len="12" key="62" vol="197" pos="528" pan="0"/>
          <note len="12" key="54" vol="197" pos="540" pan="0"/>
          <note len="12" key="62" vol="197" pos="552" pan="0"/>
          <note len="12" key="54" vol="197" pos="564" pan="0"/>
          <note len="24" key="62" vol="197" pos="576" pan="0"/>
          <note len="24" key="57" vol="197" pos="576" pan="0"/>
          <note len="24" key="54" vol="197" pos="576" pan="0"/>
        </pattern>
        <pattern muted="0" name="Blanchet-1720" pos="16896" type="1" steps="16">
          <note len="24" key="55" vol="197" pos="0" pan="0"/>
          <note len="24" key="52" vol="197" pos="24" pan="0"/>
          <note len="24" key="60" vol="197" pos="48" pan="0"/>
          <note len="24" key="52" vol="197" pos="72" pan="0"/>
          <note len="24" key="55" vol="197" pos="96" pan="0"/>
          <note len="24" key="52" vol="197" pos="120" pan="0"/>
          <note len="24" key="48" vol="197" pos="144" pan="0"/>
          <note len="24" key="52" vol="197" pos="168" pan="0"/>
          <note len="24" key="55" vol="197" pos="192" pan="0"/>
          <note len="24" key="50" vol="197" pos="216" pan="0"/>
          <note len="24" key="59" vol="197" pos="240" pan="0"/>
          <note len="24" key="50" vol="197" pos="264" pan="0"/>
          <note len="24" key="55" vol="197" pos="288" pan="0"/>
          <note len="24" key="50" vol="197" pos="312" pan="0"/>
          <note len="24" key="47" vol="197" pos="336" pan="0"/>
          <note len="24" key="50" vol="197" pos="360" pan="0"/>
          <note len="24" key="54" vol="197" pos="384" pan="0"/>
          <note len="24" key="50" vol="197" pos="408" pan="0"/>
          <note len="24" key="57" vol="197" pos="432" pan="0"/>
          <note len="24" key="50" vol="197" pos="456" pan="0"/>
          <note len="24" key="54" vol="197" pos="480" pan="0"/>
          <note len="24" key="50" vol="197" pos="504" pan="0"/>
          <note len="24" key="45" vol="197" pos="528" pan="0"/>
          <note len="24" key="50" vol="197" pos="552" pan="0"/>
          <note len="24" key="55" vol="197" pos="576" pan="0"/>
          <note len="24" key="52" vol="197" pos="600" pan="0"/>
          <note len="24" key="59" vol="197" pos="624" pan="0"/>
          <note len="24" key="52" vol="197" pos="648" pan="0"/>
          <note len="24" key="55" vol="197" pos="672" pan="0"/>
          <note len="24" key="52" vol="197" pos="696" pan="0"/>
          <note len="24" key="47" vol="197" pos="720" pan="0"/>
          <note len="24" key="52" vol="197" pos="744" pan="0"/>
        </pattern>
        <pattern muted="0" name="Blanchet-1720" pos="17664" type="1" steps="16">
          <note len="24" key="55" vol="197" pos="0" pan="0"/>
          <note len="24" key="52" vol="197" pos="24" pan="0"/>
          <note len="24" key="60" vol="197" pos="48" pan="0"/>
          <note len="24" key="52" vol="197" pos="72" pan="0"/>
          <note len="24" key="55" vol="197" pos="96" pan="0"/>
          <note len="24" key="52" vol="197" pos="120" pan="0"/>
          <note len="24" key="48" vol="197" pos="144" pan="0"/>
          <note len="24" key="52" vol="197" pos="168" pan="0"/>
          <note len="24" key="55" vol="197" pos="192" pan="0"/>
          <note len="24" key="50" vol="197" pos="216" pan="0"/>
          <note len="24" key="59" vol="197" pos="240" pan="0"/>
          <note len="24" key="50" vol="197" pos="264" pan="0"/>
          <note len="24" key="55" vol="197" pos="288" pan="0"/>
          <note len="24" key="50" vol="197" pos="312" pan="0"/>
          <note len="24" key="47" vol="197" pos="336" pan="0"/>
          <note len="24" key="50" vol="197" pos="360" pan="0"/>
          <note len="12" key="54" vol="197" pos="384" pan="0"/>
          <note len="12" key="50" vol="197" pos="396" pan="0"/>
          <note len="12" key="54" vol="197" pos="408" pan="0"/>
          <note len="12" key="50" vol="197" pos="420" pan="0"/>
          <note len="12" key="55" vol="197" pos="432" pan="0"/>
          <note len="12" key="50" vol="197" pos="444" pan="0"/>
          <note len="12" key="55" vol="197" pos="456" pan="0"/>
          <note len="12" key="50" vol="197" pos="468" pan="0"/>
          <note len="12" key="57" vol="197" pos="480" pan="0"/>
          <note len="12" key="54" vol="197" pos="492" pan="0"/>
          <note len="12" key="57" vol="197" pos="504" pan="0"/>
          <note len="12" key="54" vol="197" pos="516" pan="0"/>
          <note len="12" key="62" vol="197" pos="528" pan="0"/>
          <note len="12" key="54" vol="197" pos="540" pan="0"/>
          <note len="12" key="62" vol="197" pos="552" pan="0"/>
          <note len="12" key="54" vol="197" pos="564" pan="0"/>
          <note len="24" key="62" vol="189" pos="576" pan="0"/>
          <note len="24" key="59" vol="189" pos="600" pan="0"/>
          <note len="24" key="60" vol="189" pos="624" pan="0"/>
          <note len="24" key="57" vol="189" pos="648" pan="0"/>
          <note len="24" key="59" vol="189" pos="672" pan="0"/>
          <note len="24" key="55" vol="189" pos="696" pan="0"/>
          <note len="24" key="54" vol="189" pos="720" pan="0"/>
          <note len="24" key="55" vol="189" pos="744" pan="0"/>
        </pattern>
        <pattern muted="0" name="Blanchet-1720" pos="0" type="1" steps="16">
          <note len="24" key="43" vol="197" pos="0" pan="0"/>
          <note len="24" key="47" vol="197" pos="24" pan="0"/>
          <note len="24" key="52" vol="197" pos="48" pan="0"/>
          <note len="24" key="47" vol="197" pos="72" pan="0"/>
          <note len="24" key="55" vol="197" pos="96" pan="0"/>
          <note len="24" key="54" vol="197" pos="120" pan="0"/>
          <note len="24" key="52" vol="197" pos="144" pan="0"/>
          <note len="24" key="47" vol="197" pos="168" pan="0"/>
          <note len="24" key="50" vol="197" pos="192" pan="0"/>
          <note len="24" key="45" vol="197" pos="216" pan="0"/>
          <note len="24" key="42" vol="197" pos="240" pan="0"/>
          <note len="24" key="45" vol="197" pos="264" pan="0"/>
          <note len="24" key="54" vol="197" pos="288" pan="0"/>
          <note len="24" key="50" vol="197" pos="312" pan="0"/>
          <note len="24" key="45" vol="197" pos="336" pan="0"/>
          <note len="24" key="50" vol="197" pos="360" pan="0"/>
        </pattern>
        <pattern muted="0" name="Blanchet-1720" pos="384" type="1" steps="16">
          <note len="24" key="42" vol="197" pos="0" pan="0"/>
          <note len="24" key="45" vol="197" pos="24" pan="0"/>
          <note len="24" key="50" vol="197" pos="48" pan="0"/>
          <note len="24" key="45" vol="197" pos="72" pan="0"/>
          <note len="24" key="54" vol="197" pos="96" pan="0"/>
          <note len="24" key="52" vol="197" pos="120" pan="0"/>
          <note len="24" key="50" vol="197" pos="144" pan="0"/>
          <note len="24" key="45" vol="197" pos="168" pan="0"/>
          <note len="24" key="52" vol="197" pos="192" pan="0"/>
          <note len="24" key="47" vol="197" pos="216" pan="0"/>
          <note len="24" key="43" vol="197" pos="240" pan="0"/>
          <note len="24" key="47" vol="197" pos="264" pan="0"/>
          <note len="24" key="55" vol="197" pos="288" pan="0"/>
          <note len="24" key="52" vol="197" pos="312" pan="0"/>
          <note len="24" key="47" vol="197" pos="336" pan="0"/>
          <note len="24" key="52" vol="197" pos="360" pan="0"/>
        </pattern>
      </track>
      <track muted="0" name="rgt" solo="0" type="2">
        <sampletrack vol="41.0001" pan="0">
          <fxchain numofeffects="2" enabled="1">
            <effect autoquit_syncmode="0" name="eq" wet="1" autoquit_denominator="4" autoquit_numerator="4" autoquit="1" on="1" gate="0">
              <Eq Peak3bw="1.855" Outputgain="0" LP24="0" Peak4bw="0.3" Peak2gain="-6.766" Peak1active="1" LP12="1" Peak2bw="0.721" HighShelfres="1.4" HPres="0.827" AnalyseIn="1" LowShelfres="1.4" LPactive="1" HP12="1" Lowshelfgain="0.9" HPactive="1" LP48="0" Peak2active="1" HP48="0" Lowshelfactive="1" Peak4active="0" HP24="0" Peak4gain="0" Peak3gain="4.5" LPres="0.707" Peak3active="1" Highshelfactive="1" LP="0" HP="0" AnalyseOut="1" Peak1bw="0.3" HighShelfgain="0">
                <Inputgain id="4431845" scale_type="log" value="0"/>
                <Peak1gain id="8257337" scale_type="log" value="0.36"/>
                <HPfreq id="4505796" scale_type="log" value="197.258"/>
                <LowShelffreq id="1978134" scale_type="log" value="22.7208"/>
                <Peak1freq id="5483975" scale_type="log" value="163.123"/>
                <Peak2freq id="7113364" scale_type="log" value="840.636"/>
                <Peak3freq id="2323412" scale_type="log" value="1341.83"/>
                <Peak4freq id="2621403" scale_type="log" value="4000"/>
                <Highshelffreq id="5453662" scale_type="log" value="2357.83"/>
                <LPfreq id="5468545" scale_type="log" value="8484.13"/>
              </Eq>
              <key/>
            </effect>
            <effect autoquit_syncmode="0" name="amplifier" wet="1" autoquit_denominator="4" autoquit_numerator="4" autoquit="1" on="1" gate="0">
              <AmplifierControls right="100" left="100" volume="168" pan="0"/>
              <key/>
            </effect>
          </fxchain>
        </sampletrack>
        <sampletco len="38016" muted="0" src="/home/pass/my_scripts/learningGuitar/idk2/rgt_bounced.wav" sample_rate="44100" pos="0"/>
      </track>
      <track muted="0" name="lgt" solo="0" type="2">
        <sampletrack vol="53.6" pan="0">
          <fxchain numofeffects="3" enabled="1">
            <effect autoquit_syncmode="0" name="ladspaeffect" wet="1" autoquit_denominator="4" autoquit_numerator="4" autoquit="1" on="1" gate="0">
              <ladspacontrols link="0" ports="4">
                <port00 data="231.25" data_numerator="4" link="0" data_syncmode="0" data_denominator="4"/>
                <port01 data="0.2025" link="1"/>
                <port10 data="718.75" data_numerator="4" data_syncmode="0" data_denominator="4"/>
                <port11 data="0.2025"/>
              </ladspacontrols>
              <key>
                <attribute name="file" value="cmt"/>
                <attribute name="plugin" value="delay_5s"/>
              </key>
            </effect>
            <effect autoquit_syncmode="0" name="stereomatrix" wet="1" autoquit_denominator="4" autoquit_numerator="4" autoquit="1" on="0" gate="0">
              <stereomatrixcontrols l-r="0.37" l-l="1" r-r="1" r-l="0.36"/>
              <key/>
            </effect>
            <effect autoquit_syncmode="0" name="eq" wet="1" autoquit_denominator="4" autoquit_numerator="4" autoquit="1" on="1" gate="0">
              <Eq Peak3bw="0.3" Outputgain="0" LP24="0" Peak4bw="1.726" Peak2gain="0" Peak1active="0" LP12="1" Peak2bw="0.3" HighShelfres="0.892" HPres="0.707" AnalyseIn="1" LowShelfres="1.4" LPactive="1" HP12="1" Lowshelfgain="0" HPactive="1" LP48="0" Peak2active="0" HP48="0" Lowshelfactive="0" Peak4active="1" HP24="0" Peak4gain="5.94" Peak3gain="0" LPres="0.707" Peak3active="0" Highshelfactive="1" LP="0" HP="0" AnalyseOut="1" Peak1bw="0.3" HighShelfgain="1.44">
                <Inputgain id="2819298" scale_type="log" value="0"/>
                <Peak1gain id="4357689" scale_type="log" value="0"/>
                <HPfreq id="4353674" scale_type="log" value="186.793"/>
                <LowShelffreq id="6052938" scale_type="log" value="80"/>
                <Peak1freq id="5470553" scale_type="log" value="120"/>
                <Peak2freq id="294676" scale_type="log" value="250"/>
                <Peak3freq id="2411954" scale_type="log" value="2000"/>
                <Peak4freq id="4187085" scale_type="log" value="1324.53"/>
                <Highshelffreq id="3418752" scale_type="log" value="1844.37"/>
                <LPfreq id="6066756" scale_type="log" value="18848.3"/>
              </Eq>
              <key/>
            </effect>
          </fxchain>
        </sampletrack>
        <sampletco len="37440" muted="0" src="/home/pass/my_scripts/learningGuitar/idk2/lgt_bounced.wav" sample_rate="44100" pos="0"/>
      </track>
      <track muted="0" name="TranceLead" solo="0" type="0">
        <instrumenttrack pitch="0" fxch="18" basenote="57" vol="10.7" pitchrange="1" usemasterpitch="1" pan="0">
          <instrument name="tripleoscillator">
            <tripleoscillator vol2="33" phoffset0="0" finer0="0" modalgo3="2" wavetype1="2" pan0="0" stphdetun2="94" coarse0="0" stphdetun0="130" userwavefile1="" phoffset2="87" wavetype0="2" pan1="33" modalgo2="2" wavetype2="2" coarse1="0" finer1="36" userwavefile0="" phoffset1="244" vol1="33" coarse2="0" modalgo1="2" userwavefile2="" vol0="33" finel2="-13" finer2="-36" pan2="-33" finel1="15" stphdetun1="261" finel0="0"/>
          </instrument>
          <eldata ftype="0" fcut="6720" fres="0.84" fwet="0">
            <elvol userwavefile="" hold="0" lspd_numerator="4" lspd="0.1" lspd_denominator="4" lshp="0" latt="0" rel="0.1" x100="0" pdel="0" lpdel="0" amt="1" lspd_syncmode="0" dec="0.5" lamt="0" sustain="1" ctlenvamt="0" att="0"/>
            <elcut userwavefile="" hold="0.5" lspd_numerator="4" lspd="0.1" lspd_denominator="4" lshp="0" latt="0" rel="0.1" x100="0" pdel="0" lpdel="0" amt="0" lspd_syncmode="0" dec="0.5" lamt="0" sustain="0.5" ctlenvamt="0" att="0.5"/>
            <elres userwavefile="" hold="0.5" lspd_numerator="4" lspd="0.1" lspd_denominator="4" lshp="0" latt="0" rel="0.1" x100="0" pdel="0" lpdel="0" amt="0" lspd_syncmode="0" dec="0.5" lamt="0" sustain="0.5" ctlenvamt="0" att="0.5"/>
          </eldata>
          <chordcreator chord-enabled="1" chordrange="2" chord="0"/>
          <arpeggiator arpcycle="0" arptime_syncmode="0" arptime_numerator="4" arpgate="100" arpmode="0" arp-enabled="0" arptime="119" arp="8" arpskip="0" arpmiss="0" arprange="2" arpdir="0" arptime_denominator="4"/>
          <midiport inputchannel="0" outputprogram="1" basevelocity="127" outputchannel="1" fixedinputvelocity="-1" inputcontroller="0" readable="0" writable="0" outputcontroller="0" fixedoutputvelocity="-1" fixedoutputnote="-1"/>
          <fxchain numofeffects="0" enabled="0"/>
        </instrumenttrack>
        <pattern muted="0" name="TranceLead" pos="14784" type="1" steps="16">
          <note len="12" key="40" vol="191" pos="0" pan="0"/>
          <note len="12" key="40" vol="191" pos="24" pan="0"/>
          <note len="24" key="52" vol="191" pos="48" pan="0"/>
          <note len="24" key="47" vol="191" pos="72" pan="0"/>
          <note len="24" key="50" vol="191" pos="96" pan="0"/>
          <note len="24" key="45" vol="191" pos="120" pan="0"/>
          <note len="12" key="43" vol="191" pos="144" pan="0"/>
          <note len="12" key="47" vol="191" pos="168" pan="0"/>
        </pattern>
        <pattern muted="0" name="TranceLead" pos="14976" type="1" steps="16">
          <note len="24" key="55" vol="197" pos="0" pan="0"/>
          <note len="24" key="52" vol="197" pos="24" pan="0"/>
          <note len="24" key="48" vol="197" pos="48" pan="0"/>
          <note len="24" key="54" vol="197" pos="72" pan="0"/>
          <note len="24" key="48" vol="197" pos="96" pan="0"/>
          <note len="24" key="55" vol="197" pos="120" pan="0"/>
          <note len="24" key="48" vol="197" pos="144" pan="0"/>
          <note len="24" key="60" vol="197" pos="168" pan="0"/>
          <note len="24" key="62" vol="197" pos="192" pan="0"/>
          <note len="24" key="57" vol="197" pos="216" pan="0"/>
          <note len="24" key="50" vol="197" pos="240" pan="0"/>
          <note len="24" key="54" vol="197" pos="264" pan="0"/>
          <note len="24" key="50" vol="197" pos="288" pan="0"/>
          <note len="24" key="55" vol="197" pos="312" pan="0"/>
          <note len="24" key="50" vol="197" pos="336" pan="0"/>
          <note len="24" key="62" vol="197" pos="360" pan="0"/>
        </pattern>
        <pattern muted="0" name="TranceLead" pos="14592" type="1" steps="16">
          <note len="12" key="40" vol="191" pos="0" pan="0"/>
          <note len="12" key="40" vol="191" pos="24" pan="0"/>
          <note len="24" key="52" vol="191" pos="48" pan="0"/>
          <note len="24" key="47" vol="191" pos="72" pan="0"/>
          <note len="24" key="50" vol="191" pos="96" pan="0"/>
          <note len="24" key="45" vol="191" pos="120" pan="0"/>
          <note len="12" key="43" vol="191" pos="144" pan="0"/>
          <note len="12" key="47" vol="191" pos="168" pan="0"/>
        </pattern>
        <pattern muted="0" name="TranceLead" pos="14400" type="1" steps="16">
          <note len="12" key="40" vol="191" pos="0" pan="0"/>
          <note len="12" key="40" vol="191" pos="24" pan="0"/>
          <note len="24" key="52" vol="191" pos="48" pan="0"/>
          <note len="24" key="47" vol="191" pos="72" pan="0"/>
          <note len="24" key="50" vol="191" pos="96" pan="0"/>
          <note len="24" key="45" vol="191" pos="120" pan="0"/>
          <note len="12" key="43" vol="191" pos="144" pan="0"/>
          <note len="12" key="47" vol="191" pos="168" pan="0"/>
        </pattern>
        <pattern muted="0" name="TranceLead" pos="14208" type="1" steps="16">
          <note len="12" key="40" vol="191" pos="0" pan="0"/>
          <note len="12" key="40" vol="191" pos="24" pan="0"/>
          <note len="24" key="52" vol="191" pos="48" pan="0"/>
          <note len="24" key="47" vol="191" pos="72" pan="0"/>
          <note len="24" key="50" vol="191" pos="96" pan="0"/>
          <note len="24" key="45" vol="191" pos="120" pan="0"/>
          <note len="12" key="43" vol="191" pos="144" pan="0"/>
          <note len="12" key="47" vol="191" pos="168" pan="0"/>
        </pattern>
        <pattern muted="0" name="TranceLead" pos="12288" type="1" steps="16">
          <note len="24" key="55" vol="197" pos="0" pan="0"/>
          <note len="24" key="52" vol="197" pos="24" pan="0"/>
          <note len="24" key="47" vol="197" pos="48" pan="0"/>
          <note len="24" key="52" vol="197" pos="72" pan="0"/>
          <note len="24" key="54" vol="197" pos="96" pan="0"/>
          <note len="24" key="47" vol="197" pos="120" pan="0"/>
          <note len="24" key="55" vol="197" pos="144" pan="0"/>
          <note len="24" key="52" vol="197" pos="168" pan="0"/>
        </pattern>
        <pattern muted="0" name="TranceLead" pos="12480" type="1" steps="16">
          <note len="24" key="55" vol="197" pos="0" pan="0"/>
          <note len="24" key="52" vol="197" pos="24" pan="0"/>
          <note len="24" key="47" vol="197" pos="48" pan="0"/>
          <note len="24" key="52" vol="197" pos="72" pan="0"/>
          <note len="24" key="54" vol="197" pos="96" pan="0"/>
          <note len="24" key="47" vol="197" pos="120" pan="0"/>
          <note len="24" key="55" vol="197" pos="144" pan="0"/>
          <note len="24" key="52" vol="197" pos="168" pan="0"/>
        </pattern>
        <pattern muted="0" name="TranceLead" pos="12672" type="1" steps="16">
          <note len="24" key="59" vol="197" pos="0" pan="0"/>
          <note len="24" key="55" vol="197" pos="24" pan="0"/>
          <note len="24" key="50" vol="197" pos="48" pan="0"/>
          <note len="24" key="55" vol="197" pos="72" pan="0"/>
          <note len="24" key="57" vol="197" pos="96" pan="0"/>
          <note len="24" key="50" vol="197" pos="120" pan="0"/>
          <note len="24" key="59" vol="197" pos="144" pan="0"/>
          <note len="24" key="55" vol="197" pos="168" pan="0"/>
        </pattern>
        <pattern muted="0" name="TranceLead" pos="12864" type="1" steps="16">
          <note len="24" key="59" vol="197" pos="0" pan="0"/>
          <note len="24" key="55" vol="197" pos="24" pan="0"/>
          <note len="24" key="50" vol="197" pos="48" pan="0"/>
          <note len="24" key="55" vol="197" pos="72" pan="0"/>
          <note len="24" key="57" vol="197" pos="96" pan="0"/>
          <note len="24" key="50" vol="197" pos="120" pan="0"/>
          <note len="24" key="59" vol="197" pos="144" pan="0"/>
          <note len="24" key="55" vol="197" pos="168" pan="0"/>
        </pattern>
        <pattern muted="0" name="TranceLead" pos="3072" type="1" steps="16">
          <note len="24" key="55" vol="191" pos="0" pan="0"/>
          <note len="24" key="52" vol="191" pos="24" pan="0"/>
          <note len="24" key="47" vol="191" pos="48" pan="0"/>
          <note len="24" key="54" vol="191" pos="72" pan="0"/>
          <note len="24" key="52" vol="191" pos="96" pan="0"/>
          <note len="24" key="47" vol="191" pos="120" pan="0"/>
          <note len="24" key="55" vol="191" pos="144" pan="0"/>
          <note len="24" key="52" vol="191" pos="168" pan="0"/>
          <note len="24" key="55" vol="191" pos="192" pan="0"/>
          <note len="24" key="52" vol="191" pos="216" pan="0"/>
          <note len="24" key="48" vol="191" pos="240" pan="0"/>
          <note len="24" key="54" vol="191" pos="264" pan="0"/>
          <note len="24" key="52" vol="191" pos="288" pan="0"/>
          <note len="24" key="48" vol="191" pos="312" pan="0"/>
          <note len="24" key="55" vol="191" pos="336" pan="0"/>
          <note len="24" key="52" vol="191" pos="360" pan="0"/>
          <note len="24" key="59" vol="191" pos="384" pan="0"/>
          <note len="24" key="55" vol="191" pos="408" pan="0"/>
          <note len="24" key="50" vol="191" pos="432" pan="0"/>
          <note len="24" key="57" vol="191" pos="456" pan="0"/>
          <note len="24" key="55" vol="191" pos="480" pan="0"/>
          <note len="24" key="50" vol="191" pos="504" pan="0"/>
          <note len="24" key="59" vol="191" pos="528" pan="0"/>
          <note len="24" key="55" vol="191" pos="552" pan="0"/>
          <note len="24" key="57" vol="191" pos="576" pan="0"/>
          <note len="24" key="54" vol="191" pos="600" pan="0"/>
          <note len="24" key="50" vol="191" pos="624" pan="0"/>
          <note len="24" key="55" vol="191" pos="648" pan="0"/>
          <note len="24" key="54" vol="191" pos="672" pan="0"/>
          <note len="24" key="50" vol="191" pos="696" pan="0"/>
          <note len="24" key="57" vol="191" pos="720" pan="0"/>
          <note len="24" key="54" vol="191" pos="744" pan="0"/>
        </pattern>
        <pattern muted="0" name="TranceLead" pos="3840" type="1" steps="16">
          <note len="24" key="55" vol="191" pos="0" pan="0"/>
          <note len="24" key="52" vol="191" pos="24" pan="0"/>
          <note len="24" key="47" vol="191" pos="48" pan="0"/>
          <note len="24" key="54" vol="191" pos="72" pan="0"/>
          <note len="24" key="52" vol="191" pos="96" pan="0"/>
          <note len="24" key="47" vol="191" pos="120" pan="0"/>
          <note len="24" key="55" vol="191" pos="144" pan="0"/>
          <note len="24" key="52" vol="191" pos="168" pan="0"/>
          <note len="24" key="55" vol="191" pos="192" pan="0"/>
          <note len="24" key="52" vol="191" pos="216" pan="0"/>
          <note len="24" key="48" vol="191" pos="240" pan="0"/>
          <note len="24" key="54" vol="191" pos="264" pan="0"/>
          <note len="24" key="52" vol="191" pos="288" pan="0"/>
          <note len="24" key="48" vol="191" pos="312" pan="0"/>
          <note len="24" key="55" vol="191" pos="336" pan="0"/>
          <note len="24" key="52" vol="191" pos="360" pan="0"/>
          <note len="24" key="59" vol="191" pos="384" pan="0"/>
          <note len="24" key="55" vol="191" pos="408" pan="0"/>
          <note len="24" key="50" vol="191" pos="432" pan="0"/>
          <note len="24" key="57" vol="191" pos="456" pan="0"/>
          <note len="24" key="55" vol="191" pos="480" pan="0"/>
          <note len="24" key="50" vol="191" pos="504" pan="0"/>
          <note len="24" key="59" vol="191" pos="528" pan="0"/>
          <note len="24" key="55" vol="191" pos="552" pan="0"/>
          <note len="24" key="59" vol="191" pos="576" pan="0"/>
          <note len="24" key="57" vol="191" pos="600" pan="0"/>
          <note len="24" key="62" vol="191" pos="624" pan="0"/>
          <note len="24" key="59" vol="191" pos="648" pan="0"/>
          <note len="24" key="64" vol="191" pos="672" pan="0"/>
          <note len="24" key="62" vol="191" pos="696" pan="0"/>
          <note len="24" key="59" vol="191" pos="720" pan="0"/>
          <note len="24" key="62" vol="191" pos="744" pan="0"/>
        </pattern>
        <pattern muted="0" name="TranceLead" pos="17472" type="1" steps="16">
          <note len="24" key="67" vol="100" pos="0" pan="0"/>
          <note len="24" key="59" vol="100" pos="24" pan="0"/>
          <note len="24" key="66" vol="100" pos="48" pan="0"/>
          <note len="24" key="62" vol="100" pos="72" pan="0"/>
          <note len="24" key="64" vol="100" pos="96" pan="0"/>
          <note len="24" key="62" vol="100" pos="120" pan="0"/>
          <note len="24" key="59" vol="100" pos="144" pan="0"/>
          <note len="24" key="62" vol="100" pos="168" pan="0"/>
        </pattern>
      </track>
      <track muted="0" name="Extreme" solo="0" type="0">
        <instrumenttrack pitch="0" fxch="19" basenote="57" vol="45.6" pitchrange="1" usemasterpitch="1" pan="0">
          <instrument name="zynaddsubfx">
            <zynaddsubfx portamento="0" bandwidth="64" rescenterfreq="64" modifiedcontrollers="" resbandwidth="64" filterq="64" forwardmidicc="1" fmgain="127" filterfreq="64">
              <ZynAddSubFX-data ZynAddSubFX-author="Nasca Octavian Paul" version-major="2" version-minor="4" version-revision="1">
                <INFORMATION/>
                <BASE_PARAMETERS>
                  <par name="max_midi_parts" value="16"/>
                  <par name="max_kit_items_per_instrument" value="16"/>
                  <par name="max_system_effects" value="4"/>
                  <par name="max_insertion_effects" value="8"/>
                  <par name="max_instrument_effects" value="3"/>
                  <par name="max_addsynth_voices" value="8"/>
                </BASE_PARAMETERS>
                <MASTER>
                  <par name="volume" value="80"/>
                  <par name="key_shift" value="64"/>
                  <par_bool name="nrpn_receive" value="yes"/>
                  <MICROTONAL>
                    <string name="name">12tET</string>
                    <string name="comment">Equal Temperament 12 notes per octave</string>
                    <par_bool name="invert_up_down" value="no"/>
                    <par name="invert_up_down_center" value="60"/>
                    <par_bool name="enabled" value="no"/>
                    <par name="global_fine_detune" value="64"/>
                    <par name="a_note" value="69"/>
                    <par_real name="a_freq" value="440.000000"/>
                  </MICROTONAL>
                  <PART id="0">
                    <par_bool name="enabled" value="yes"/>
                    <par name="volume" value="96"/>
                    <par name="panning" value="64"/>
                    <par name="min_key" value="0"/>
                    <par name="max_key" value="127"/>
                    <par name="key_shift" value="64"/>
                    <par name="rcv_chn" value="0"/>
                    <par name="velocity_sensing" value="64"/>
                    <par name="velocity_offset" value="64"/>
                    <par_bool name="note_on" value="yes"/>
                    <par_bool name="poly_mode" value="yes"/>
                    <par name="legato_mode" value="0"/>
                    <par name="key_limit" value="15"/>
                    <INSTRUMENT>
                      <INFO>
                        <string name="name">Extreme</string>
                        <string name="author">Will Godfrey
GPL V 2 or later</string>
                        <string name="comments"/>
                        <par name="type" value="2"/>
                      </INFO>
                      <INSTRUMENT_KIT>
                        <par name="kit_mode" value="0"/>
                        <par_bool name="drum_mode" value="no"/>
                        <INSTRUMENT_KIT_ITEM id="0">
                          <par_bool name="enabled" value="yes"/>
                          <string name="name">Analog Piano 3</string>
                          <par_bool name="muted" value="no"/>
                          <par name="min_key" value="0"/>
                          <par name="max_key" value="127"/>
                          <par name="send_to_instrument_effect" value="0"/>
                          <par_bool name="add_enabled" value="yes"/>
                          <ADD_SYNTH_PARAMETERS>
                            <par_bool name="stereo" value="yes"/>
                            <AMPLITUDE_PARAMETERS>
                              <par name="volume" value="90"/>
                              <par name="panning" value="64"/>
                              <par name="velocity_sensing" value="70"/>
                              <par name="punch_strength" value="0"/>
                              <par name="punch_time" value="60"/>
                              <par name="punch_stretch" value="64"/>
                              <par name="punch_velocity_sensing" value="72"/>
                              <par name="harmonic_randomness_grouping" value="0"/>
                              <AMPLITUDE_ENVELOPE>
                                <par_bool name="free_mode" value="no"/>
                                <par name="env_points" value="4"/>
                                <par name="env_sustain" value="2"/>
                                <par name="env_stretch" value="3"/>
                                <par_bool name="forced_release" value="yes"/>
                                <par_bool name="linear_envelope" value="no"/>
                                <par name="A_dt" value="0"/>
                                <par name="D_dt" value="88"/>
                                <par name="R_dt" value="78"/>
                                <par name="A_val" value="64"/>
                                <par name="D_val" value="64"/>
                                <par name="S_val" value="0"/>
                                <par name="R_val" value="64"/>
                              </AMPLITUDE_ENVELOPE>
                              <AMPLITUDE_LFO>
                                <par_real name="freq" value="0.630000"/>
                                <par name="intensity" value="0"/>
                                <par name="start_phase" value="64"/>
                                <par name="lfo_type" value="0"/>
                                <par name="randomness_amplitude" value="0"/>
                                <par name="randomness_frequency" value="0"/>
                                <par name="delay" value="0"/>
                                <par name="stretch" value="64"/>
                                <par_bool name="continous" value="no"/>
                              </AMPLITUDE_LFO>
                            </AMPLITUDE_PARAMETERS>
                            <FREQUENCY_PARAMETERS>
                              <par name="detune" value="8192"/>
                              <par name="coarse_detune" value="0"/>
                              <par name="detune_type" value="1"/>
                              <par name="bandwidth" value="64"/>
                              <FREQUENCY_ENVELOPE>
                                <par_bool name="free_mode" value="no"/>
                                <par name="env_points" value="3"/>
                                <par name="env_sustain" value="1"/>
                                <par name="env_stretch" value="0"/>
                                <par_bool name="forced_release" value="no"/>
                                <par_bool name="linear_envelope" value="no"/>
                                <par name="A_dt" value="50"/>
                                <par name="D_dt" value="10"/>
                                <par name="R_dt" value="60"/>
                                <par name="A_val" value="64"/>
                                <par name="D_val" value="64"/>
                                <par name="S_val" value="64"/>
                                <par name="R_val" value="64"/>
                              </FREQUENCY_ENVELOPE>
                              <FREQUENCY_LFO>
                                <par_real name="freq" value="0.614000"/>
                                <par name="intensity" value="26"/>
                                <par name="start_phase" value="64"/>
                                <par name="lfo_type" value="0"/>
                                <par name="randomness_amplitude" value="0"/>
                                <par name="randomness_frequency" value="0"/>
                                <par name="delay" value="0"/>
                                <par name="stretch" value="64"/>
                                <par_bool name="continous" value="no"/>
                              </FREQUENCY_LFO>
                            </FREQUENCY_PARAMETERS>
                            <FILTER_PARAMETERS>
                              <par name="velocity_sensing_amplitude" value="26"/>
                              <par name="velocity_sensing" value="64"/>
                              <FILTER>
                                <par name="category" value="0"/>
                                <par name="type" value="2"/>
                                <par name="freq" value="76"/>
                                <par name="q" value="32"/>
                                <par name="stages" value="0"/>
                                <par name="freq_track" value="64"/>
                                <par name="gain" value="64"/>
                              </FILTER>
                              <FILTER_ENVELOPE>
                                <par_bool name="free_mode" value="no"/>
                                <par name="env_points" value="4"/>
                                <par name="env_sustain" value="2"/>
                                <par name="env_stretch" value="0"/>
                                <par_bool name="forced_release" value="yes"/>
                                <par_bool name="linear_envelope" value="no"/>
                                <par name="A_dt" value="32"/>
                                <par name="D_dt" value="50"/>
                                <par name="R_dt" value="60"/>
                                <par name="A_val" value="103"/>
                                <par name="D_val" value="90"/>
                                <par name="S_val" value="64"/>
                                <par name="R_val" value="64"/>
                              </FILTER_ENVELOPE>
                              <FILTER_LFO>
                                <par_real name="freq" value="0.630000"/>
                                <par name="intensity" value="0"/>
                                <par name="start_phase" value="64"/>
                                <par name="lfo_type" value="0"/>
                                <par name="randomness_amplitude" value="0"/>
                                <par name="randomness_frequency" value="0"/>
                                <par name="delay" value="0"/>
                                <par name="stretch" value="64"/>
                                <par_bool name="continous" value="no"/>
                              </FILTER_LFO>
                            </FILTER_PARAMETERS>
                            <RESONANCE>
                              <par_bool name="enabled" value="no"/>
                            </RESONANCE>
                            <VOICE id="0">
                              <par_bool name="enabled" value="yes"/>
                              <par name="type" value="0"/>
                              <par name="unison_size" value="1"/>
                              <par name="unison_frequency_spread" value="60"/>
                              <par name="unison_stereo_spread" value="64"/>
                              <par name="unison_vibratto" value="64"/>
                              <par name="unison_vibratto_speed" value="64"/>
                              <par name="unison_invert_phase" value="0"/>
                              <par name="unison_phase_randomness" value="127"/>
                              <par name="delay" value="0"/>
                              <par_bool name="resonance" value="yes"/>
                              <par name="ext_oscil" value="-1"/>
                              <par name="ext_fm_oscil" value="-1"/>
                              <par name="oscil_phase" value="64"/>
                              <par name="oscil_fm_phase" value="64"/>
                              <par_bool name="filter_enabled" value="no"/>
                              <par_bool name="filter_bypass" value="no"/>
                              <par name="fm_enabled" value="0"/>
                              <OSCIL>
                                <par name="harmonic_mag_type" value="0"/>
                                <par name="base_function" value="4"/>
                                <par name="base_function_par" value="51"/>
                                <par name="base_function_modulation" value="0"/>
                                <par name="base_function_modulation_par1" value="64"/>
                                <par name="base_function_modulation_par2" value="64"/>
                                <par name="base_function_modulation_par3" value="32"/>
                                <par name="modulation" value="0"/>
                                <par name="modulation_par1" value="64"/>
                                <par name="modulation_par2" value="64"/>
                                <par name="modulation_par3" value="32"/>
                                <par name="wave_shaping" value="64"/>
                                <par name="wave_shaping_function" value="0"/>
                                <par name="filter_type" value="0"/>
                                <par name="filter_par1" value="64"/>
                                <par name="filter_par2" value="64"/>
                                <par name="filter_before_wave_shaping" value="0"/>
                                <par name="spectrum_adjust_type" value="0"/>
                                <par name="spectrum_adjust_par" value="64"/>
                                <par name="rand" value="0"/>
                                <par name="amp_rand_type" value="0"/>
                                <par name="amp_rand_power" value="64"/>
                                <par name="harmonic_shift" value="0"/>
                                <par_bool name="harmonic_shift_first" value="no"/>
                                <par name="adaptive_harmonics" value="0"/>
                                <par name="adaptive_harmonics_base_frequency" value="128"/>
                                <par name="adaptive_harmonics_power" value="100"/>
                                <HARMONICS>
                                  <HARMONIC id="1">
                                    <par name="mag" value="127"/>
                                    <par name="phase" value="64"/>
                                  </HARMONIC>
                                </HARMONICS>
                              </OSCIL>
                              <AMPLITUDE_PARAMETERS>
                                <par name="panning" value="32"/>
                                <par name="volume" value="100"/>
                                <par_bool name="volume_minus" value="no"/>
                                <par name="velocity_sensing" value="127"/>
                                <par_bool name="amp_envelope_enabled" value="no"/>
                                <par_bool name="amp_lfo_enabled" value="no"/>
                              </AMPLITUDE_PARAMETERS>
                              <FREQUENCY_PARAMETERS>
                                <par_bool name="fixed_freq" value="no"/>
                                <par name="fixed_freq_et" value="0"/>
                                <par name="detune" value="7095"/>
                                <par name="coarse_detune" value="0"/>
                                <par name="detune_type" value="0"/>
                                <par_bool name="freq_envelope_enabled" value="no"/>
                                <par_bool name="freq_lfo_enabled" value="no"/>
                              </FREQUENCY_PARAMETERS>
                            </VOICE>
                            <VOICE id="1">
                              <par_bool name="enabled" value="yes"/>
                              <par name="type" value="0"/>
                              <par name="unison_size" value="1"/>
                              <par name="unison_frequency_spread" value="60"/>
                              <par name="unison_stereo_spread" value="64"/>
                              <par name="unison_vibratto" value="64"/>
                              <par name="unison_vibratto_speed" value="64"/>
                              <par name="unison_invert_phase" value="0"/>
                              <par name="unison_phase_randomness" value="127"/>
                              <par name="delay" value="0"/>
                              <par_bool name="resonance" value="yes"/>
                              <par name="ext_oscil" value="0"/>
                              <par name="ext_fm_oscil" value="-1"/>
                              <par name="oscil_phase" value="64"/>
                              <par name="oscil_fm_phase" value="64"/>
                              <par_bool name="filter_enabled" value="no"/>
                              <par_bool name="filter_bypass" value="no"/>
                              <par name="fm_enabled" value="0"/>
                              <OSCIL>
                                <par name="harmonic_mag_type" value="0"/>
                                <par name="base_function" value="10"/>
                                <par name="base_function_par" value="64"/>
                                <par name="base_function_modulation" value="0"/>
                                <par name="base_function_modulation_par1" value="64"/>
                                <par name="base_function_modulation_par2" value="64"/>
                                <par name="base_function_modulation_par3" value="32"/>
                                <par name="modulation" value="0"/>
                                <par name="modulation_par1" value="64"/>
                                <par name="modulation_par2" value="64"/>
                                <par name="modulation_par3" value="32"/>
                                <par name="wave_shaping" value="64"/>
                                <par name="wave_shaping_function" value="0"/>
                                <par name="filter_type" value="0"/>
                                <par name="filter_par1" value="64"/>
                                <par name="filter_par2" value="64"/>
                                <par name="filter_before_wave_shaping" value="0"/>
                                <par name="spectrum_adjust_type" value="0"/>
                                <par name="spectrum_adjust_par" value="64"/>
                                <par name="rand" value="64"/>
                                <par name="amp_rand_type" value="0"/>
                                <par name="amp_rand_power" value="64"/>
                                <par name="harmonic_shift" value="0"/>
                                <par_bool name="harmonic_shift_first" value="no"/>
                                <par name="adaptive_harmonics" value="0"/>
                                <par name="adaptive_harmonics_base_frequency" value="128"/>
                                <par name="adaptive_harmonics_power" value="100"/>
                                <HARMONICS>
                                  <HARMONIC id="1">
                                    <par name="mag" value="127"/>
                                    <par name="phase" value="64"/>
                                  </HARMONIC>
                                </HARMONICS>
                              </OSCIL>
                              <AMPLITUDE_PARAMETERS>
                                <par name="panning" value="96"/>
                                <par name="volume" value="100"/>
                                <par_bool name="volume_minus" value="no"/>
                                <par name="velocity_sensing" value="127"/>
                                <par_bool name="amp_envelope_enabled" value="no"/>
                                <par_bool name="amp_lfo_enabled" value="no"/>
                              </AMPLITUDE_PARAMETERS>
                              <FREQUENCY_PARAMETERS>
                                <par_bool name="fixed_freq" value="no"/>
                                <par name="fixed_freq_et" value="0"/>
                                <par name="detune" value="8514"/>
                                <par name="coarse_detune" value="0"/>
                                <par name="detune_type" value="0"/>
                                <par_bool name="freq_envelope_enabled" value="no"/>
                                <par_bool name="freq_lfo_enabled" value="no"/>
                              </FREQUENCY_PARAMETERS>
                            </VOICE>
                            <VOICE id="2">
                              <par_bool name="enabled" value="yes"/>
                              <par name="type" value="0"/>
                              <par name="unison_size" value="1"/>
                              <par name="unison_frequency_spread" value="60"/>
                              <par name="unison_stereo_spread" value="64"/>
                              <par name="unison_vibratto" value="64"/>
                              <par name="unison_vibratto_speed" value="64"/>
                              <par name="unison_invert_phase" value="0"/>
                              <par name="unison_phase_randomness" value="127"/>
                              <par name="delay" value="0"/>
                              <par_bool name="resonance" value="yes"/>
                              <par name="ext_oscil" value="0"/>
                              <par name="ext_fm_oscil" value="-1"/>
                              <par name="oscil_phase" value="64"/>
                              <par name="oscil_fm_phase" value="64"/>
                              <par_bool name="filter_enabled" value="no"/>
                              <par_bool name="filter_bypass" value="no"/>
                              <par name="fm_enabled" value="0"/>
                              <OSCIL>
                                <par name="harmonic_mag_type" value="0"/>
                                <par name="base_function" value="0"/>
                                <par name="base_function_par" value="64"/>
                                <par name="base_function_modulation" value="0"/>
                                <par name="base_function_modulation_par1" value="64"/>
                                <par name="base_function_modulation_par2" value="64"/>
                                <par name="base_function_modulation_par3" value="32"/>
                                <par name="modulation" value="0"/>
                                <par name="modulation_par1" value="64"/>
                                <par name="modulation_par2" value="64"/>
                                <par name="modulation_par3" value="32"/>
                                <par name="wave_shaping" value="64"/>
                                <par name="wave_shaping_function" value="0"/>
                                <par name="filter_type" value="0"/>
                                <par name="filter_par1" value="64"/>
                                <par name="filter_par2" value="64"/>
                                <par name="filter_before_wave_shaping" value="0"/>
                                <par name="spectrum_adjust_type" value="0"/>
                                <par name="spectrum_adjust_par" value="64"/>
                                <par name="rand" value="64"/>
                                <par name="amp_rand_type" value="0"/>
                                <par name="amp_rand_power" value="64"/>
                                <par name="harmonic_shift" value="0"/>
                                <par_bool name="harmonic_shift_first" value="no"/>
                                <par name="adaptive_harmonics" value="0"/>
                                <par name="adaptive_harmonics_base_frequency" value="128"/>
                                <par name="adaptive_harmonics_power" value="100"/>
                                <HARMONICS>
                                  <HARMONIC id="1">
                                    <par name="mag" value="127"/>
                                    <par name="phase" value="64"/>
                                  </HARMONIC>
                                </HARMONICS>
                              </OSCIL>
                              <AMPLITUDE_PARAMETERS>
                                <par name="panning" value="0"/>
                                <par name="volume" value="100"/>
                                <par_bool name="volume_minus" value="no"/>
                                <par name="velocity_sensing" value="127"/>
                                <par_bool name="amp_envelope_enabled" value="no"/>
                                <par_bool name="amp_lfo_enabled" value="no"/>
                              </AMPLITUDE_PARAMETERS>
                              <FREQUENCY_PARAMETERS>
                                <par_bool name="fixed_freq" value="no"/>
                                <par name="fixed_freq_et" value="0"/>
                                <par name="detune" value="9890"/>
                                <par name="coarse_detune" value="15360"/>
                                <par name="detune_type" value="0"/>
                                <par_bool name="freq_envelope_enabled" value="no"/>
                                <par_bool name="freq_lfo_enabled" value="no"/>
                              </FREQUENCY_PARAMETERS>
                            </VOICE>
                            <VOICE id="3">
                              <par_bool name="enabled" value="yes"/>
                              <par name="type" value="0"/>
                              <par name="unison_size" value="1"/>
                              <par name="unison_frequency_spread" value="60"/>
                              <par name="unison_stereo_spread" value="64"/>
                              <par name="unison_vibratto" value="64"/>
                              <par name="unison_vibratto_speed" value="64"/>
                              <par name="unison_invert_phase" value="0"/>
                              <par name="unison_phase_randomness" value="127"/>
                              <par name="delay" value="0"/>
                              <par_bool name="resonance" value="yes"/>
                              <par name="ext_oscil" value="1"/>
                              <par name="ext_fm_oscil" value="-1"/>
                              <par name="oscil_phase" value="64"/>
                              <par name="oscil_fm_phase" value="64"/>
                              <par_bool name="filter_enabled" value="no"/>
                              <par_bool name="filter_bypass" value="yes"/>
                              <par name="fm_enabled" value="0"/>
                              <OSCIL>
                                <par name="harmonic_mag_type" value="0"/>
                                <par name="base_function" value="0"/>
                                <par name="base_function_par" value="64"/>
                                <par name="base_function_modulation" value="0"/>
                                <par name="base_function_modulation_par1" value="64"/>
                                <par name="base_function_modulation_par2" value="64"/>
                                <par name="base_function_modulation_par3" value="32"/>
                                <par name="modulation" value="0"/>
                                <par name="modulation_par1" value="64"/>
                                <par name="modulation_par2" value="64"/>
                                <par name="modulation_par3" value="32"/>
                                <par name="wave_shaping" value="64"/>
                                <par name="wave_shaping_function" value="0"/>
                                <par name="filter_type" value="0"/>
                                <par name="filter_par1" value="64"/>
                                <par name="filter_par2" value="64"/>
                                <par name="filter_before_wave_shaping" value="0"/>
                                <par name="spectrum_adjust_type" value="0"/>
                                <par name="spectrum_adjust_par" value="64"/>
                                <par name="rand" value="64"/>
                                <par name="amp_rand_type" value="0"/>
                                <par name="amp_rand_power" value="64"/>
                                <par name="harmonic_shift" value="0"/>
                                <par_bool name="harmonic_shift_first" value="no"/>
                                <par name="adaptive_harmonics" value="0"/>
                                <par name="adaptive_harmonics_base_frequency" value="128"/>
                                <par name="adaptive_harmonics_power" value="100"/>
                                <HARMONICS>
                                  <HARMONIC id="1">
                                    <par name="mag" value="127"/>
                                    <par name="phase" value="64"/>
                                  </HARMONIC>
                                </HARMONICS>
                              </OSCIL>
                              <AMPLITUDE_PARAMETERS>
                                <par name="panning" value="102"/>
                                <par name="volume" value="107"/>
                                <par_bool name="volume_minus" value="no"/>
                                <par name="velocity_sensing" value="127"/>
                                <par_bool name="amp_envelope_enabled" value="yes"/>
                                <AMPLITUDE_ENVELOPE>
                                  <par_bool name="free_mode" value="no"/>
                                  <par name="env_points" value="4"/>
                                  <par name="env_sustain" value="2"/>
                                  <par name="env_stretch" value="75"/>
                                  <par_bool name="forced_release" value="yes"/>
                                  <par_bool name="linear_envelope" value="no"/>
                                  <par name="A_dt" value="66"/>
                                  <par name="D_dt" value="127"/>
                                  <par name="R_dt" value="127"/>
                                  <par name="A_val" value="64"/>
                                  <par name="D_val" value="64"/>
                                  <par name="S_val" value="127"/>
                                  <par name="R_val" value="64"/>
                                </AMPLITUDE_ENVELOPE>
                                <par_bool name="amp_lfo_enabled" value="no"/>
                              </AMPLITUDE_PARAMETERS>
                              <FREQUENCY_PARAMETERS>
                                <par_bool name="fixed_freq" value="no"/>
                                <par name="fixed_freq_et" value="0"/>
                                <par name="detune" value="8192"/>
                                <par name="coarse_detune" value="1024"/>
                                <par name="detune_type" value="0"/>
                                <par_bool name="freq_envelope_enabled" value="no"/>
                                <par_bool name="freq_lfo_enabled" value="no"/>
                              </FREQUENCY_PARAMETERS>
                            </VOICE>
                            <VOICE id="4">
                              <par_bool name="enabled" value="no"/>
                            </VOICE>
                            <VOICE id="5">
                              <par_bool name="enabled" value="no"/>
                            </VOICE>
                            <VOICE id="6">
                              <par_bool name="enabled" value="no"/>
                            </VOICE>
                            <VOICE id="7">
                              <par_bool name="enabled" value="no"/>
                            </VOICE>
                          </ADD_SYNTH_PARAMETERS>
                          <par_bool name="sub_enabled" value="yes"/>
                          <SUB_SYNTH_PARAMETERS>
                            <par name="num_stages" value="2"/>
                            <par name="harmonic_mag_type" value="0"/>
                            <par name="start" value="1"/>
                            <HARMONICS>
                              <HARMONIC id="7">
                                <par name="mag" value="97"/>
                                <par name="relbw" value="98"/>
                              </HARMONIC>
                              <HARMONIC id="11">
                                <par name="mag" value="71"/>
                                <par name="relbw" value="100"/>
                              </HARMONIC>
                              <HARMONIC id="15">
                                <par name="mag" value="69"/>
                                <par name="relbw" value="94"/>
                              </HARMONIC>
                              <HARMONIC id="23">
                                <par name="mag" value="71"/>
                                <par name="relbw" value="92"/>
                              </HARMONIC>
                            </HARMONICS>
                            <AMPLITUDE_PARAMETERS>
                              <par_bool name="stereo" value="yes"/>
                              <par name="volume" value="86"/>
                              <par name="panning" value="33"/>
                              <par name="velocity_sensing" value="70"/>
                              <AMPLITUDE_ENVELOPE>
                                <par_bool name="free_mode" value="no"/>
                                <par name="env_points" value="4"/>
                                <par name="env_sustain" value="2"/>
                                <par name="env_stretch" value="64"/>
                                <par_bool name="forced_release" value="yes"/>
                                <par_bool name="linear_envelope" value="no"/>
                                <par name="A_dt" value="59"/>
                                <par name="D_dt" value="76"/>
                                <par name="R_dt" value="85"/>
                                <par name="A_val" value="64"/>
                                <par name="D_val" value="64"/>
                                <par name="S_val" value="0"/>
                                <par name="R_val" value="64"/>
                              </AMPLITUDE_ENVELOPE>
                            </AMPLITUDE_PARAMETERS>
                            <FREQUENCY_PARAMETERS>
                              <par_bool name="fixed_freq" value="no"/>
                              <par name="fixed_freq_et" value="0"/>
                              <par name="detune" value="8192"/>
                              <par name="coarse_detune" value="0"/>
                              <par name="overtone_spread_type" value="0"/>
                              <par name="overtone_spread_par1" value="0"/>
                              <par name="overtone_spread_par2" value="0"/>
                              <par name="overtone_spread_par3" value="0"/>
                              <par name="detune_type" value="1"/>
                              <par name="bandwidth" value="40"/>
                              <par name="bandwidth_scale" value="64"/>
                              <par_bool name="freq_envelope_enabled" value="no"/>
                              <par_bool name="band_width_envelope_enabled" value="no"/>
                            </FREQUENCY_PARAMETERS>
                            <FILTER_PARAMETERS>
                              <par_bool name="enabled" value="yes"/>
                              <FILTER>
                                <par name="category" value="0"/>
                                <par name="type" value="1"/>
                                <par name="freq" value="80"/>
                                <par name="q" value="40"/>
                                <par name="stages" value="2"/>
                                <par name="freq_track" value="64"/>
                                <par name="gain" value="64"/>
                              </FILTER>
                              <par name="filter_velocity_sensing" value="64"/>
                              <par name="filter_velocity_sensing_amplitude" value="64"/>
                              <FILTER_ENVELOPE>
                                <par_bool name="free_mode" value="no"/>
                                <par name="env_points" value="4"/>
                                <par name="env_sustain" value="2"/>
                                <par name="env_stretch" value="0"/>
                                <par_bool name="forced_release" value="yes"/>
                                <par_bool name="linear_envelope" value="no"/>
                                <par name="A_dt" value="40"/>
                                <par name="D_dt" value="70"/>
                                <par name="R_dt" value="60"/>
                                <par name="A_val" value="64"/>
                                <par name="D_val" value="64"/>
                                <par name="S_val" value="64"/>
                                <par name="R_val" value="64"/>
                              </FILTER_ENVELOPE>
                            </FILTER_PARAMETERS>
                          </SUB_SYNTH_PARAMETERS>
                          <par_bool name="pad_enabled" value="no"/>
                        </INSTRUMENT_KIT_ITEM>
                        <INSTRUMENT_KIT_ITEM id="1">
                          <par_bool name="enabled" value="no"/>
                        </INSTRUMENT_KIT_ITEM>
                        <INSTRUMENT_KIT_ITEM id="2">
                          <par_bool name="enabled" value="no"/>
                        </INSTRUMENT_KIT_ITEM>
                        <INSTRUMENT_KIT_ITEM id="3">
                          <par_bool name="enabled" value="no"/>
                        </INSTRUMENT_KIT_ITEM>
                        <INSTRUMENT_KIT_ITEM id="4">
                          <par_bool name="enabled" value="no"/>
                        </INSTRUMENT_KIT_ITEM>
                        <INSTRUMENT_KIT_ITEM id="5">
                          <par_bool name="enabled" value="no"/>
                        </INSTRUMENT_KIT_ITEM>
                        <INSTRUMENT_KIT_ITEM id="6">
                          <par_bool name="enabled" value="no"/>
                        </INSTRUMENT_KIT_ITEM>
                        <INSTRUMENT_KIT_ITEM id="7">
                          <par_bool name="enabled" value="no"/>
                        </INSTRUMENT_KIT_ITEM>
                        <INSTRUMENT_KIT_ITEM id="8">
                          <par_bool name="enabled" value="no"/>
                        </INSTRUMENT_KIT_ITEM>
                        <INSTRUMENT_KIT_ITEM id="9">
                          <par_bool name="enabled" value="no"/>
                        </INSTRUMENT_KIT_ITEM>
                        <INSTRUMENT_KIT_ITEM id="10">
                          <par_bool name="enabled" value="no"/>
                        </INSTRUMENT_KIT_ITEM>
                        <INSTRUMENT_KIT_ITEM id="11">
                          <par_bool name="enabled" value="no"/>
                        </INSTRUMENT_KIT_ITEM>
                        <INSTRUMENT_KIT_ITEM id="12">
                          <par_bool name="enabled" value="no"/>
                        </INSTRUMENT_KIT_ITEM>
                        <INSTRUMENT_KIT_ITEM id="13">
                          <par_bool name="enabled" value="no"/>
                        </INSTRUMENT_KIT_ITEM>
                        <INSTRUMENT_KIT_ITEM id="14">
                          <par_bool name="enabled" value="no"/>
                        </INSTRUMENT_KIT_ITEM>
                        <INSTRUMENT_KIT_ITEM id="15">
                          <par_bool name="enabled" value="no"/>
                        </INSTRUMENT_KIT_ITEM>
                      </INSTRUMENT_KIT>
                      <INSTRUMENT_EFFECTS>
                        <INSTRUMENT_EFFECT id="0">
                          <EFFECT>
                            <par name="type" value="1"/>
                            <par name="preset" value="0"/>
                            <EFFECT_PARAMETERS>
                              <par_no id="0">
                                <par name="par" value="40"/>
                              </par_no>
                              <par_no id="1">
                                <par name="par" value="64"/>
                              </par_no>
                              <par_no id="2">
                                <par name="par" value="63"/>
                              </par_no>
                              <par_no id="3">
                                <par name="par" value="24"/>
                              </par_no>
                              <par_no id="7">
                                <par name="par" value="85"/>
                              </par_no>
                              <par_no id="8">
                                <par name="par" value="5"/>
                              </par_no>
                              <par_no id="9">
                                <par name="par" value="83"/>
                              </par_no>
                              <par_no id="10">
                                <par name="par" value="1"/>
                              </par_no>
                              <par_no id="11">
                                <par name="par" value="64"/>
                              </par_no>
                            </EFFECT_PARAMETERS>
                          </EFFECT>
                          <par name="route" value="0"/>
                          <par_bool name="bypass" value="no"/>
                        </INSTRUMENT_EFFECT>
                        <INSTRUMENT_EFFECT id="1">
                          <EFFECT>
                            <par name="type" value="7"/>
                            <par name="preset" value="0"/>
                            <EFFECT_PARAMETERS>
                              <par_no id="0">
                                <par name="par" value="72"/>
                              </par_no>
                              <par_no id="10">
                                <par name="par" value="3"/>
                              </par_no>
                              <par_no id="11">
                                <par name="par" value="120"/>
                              </par_no>
                              <par_no id="12">
                                <par name="par" value="64"/>
                              </par_no>
                              <par_no id="13">
                                <par name="par" value="51"/>
                              </par_no>
                              <par_no id="16">
                                <par name="par" value="64"/>
                              </par_no>
                              <par_no id="17">
                                <par name="par" value="64"/>
                              </par_no>
                              <par_no id="18">
                                <par name="par" value="64"/>
                              </par_no>
                              <par_no id="21">
                                <par name="par" value="64"/>
                              </par_no>
                              <par_no id="22">
                                <par name="par" value="64"/>
                              </par_no>
                              <par_no id="23">
                                <par name="par" value="64"/>
                              </par_no>
                              <par_no id="26">
                                <par name="par" value="64"/>
                              </par_no>
                              <par_no id="27">
                                <par name="par" value="64"/>
                              </par_no>
                              <par_no id="28">
                                <par name="par" value="64"/>
                              </par_no>
                              <par_no id="31">
                                <par name="par" value="64"/>
                              </par_no>
                              <par_no id="32">
                                <par name="par" value="64"/>
                              </par_no>
                              <par_no id="33">
                                <par name="par" value="64"/>
                              </par_no>
                              <par_no id="36">
                                <par name="par" value="64"/>
                              </par_no>
                              <par_no id="37">
                                <par name="par" value="64"/>
                              </par_no>
                              <par_no id="38">
                                <par name="par" value="64"/>
                              </par_no>
                              <par_no id="41">
                                <par name="par" value="64"/>
                              </par_no>
                              <par_no id="42">
                                <par name="par" value="64"/>
                              </par_no>
                              <par_no id="43">
                                <par name="par" value="64"/>
                              </par_no>
                              <par_no id="46">
                                <par name="par" value="64"/>
                              </par_no>
                              <par_no id="47">
                                <par name="par" value="64"/>
                              </par_no>
                              <par_no id="48">
                                <par name="par" value="64"/>
                              </par_no>
                            </EFFECT_PARAMETERS>
                          </EFFECT>
                          <par name="route" value="0"/>
                          <par_bool name="bypass" value="no"/>
                        </INSTRUMENT_EFFECT>
                        <INSTRUMENT_EFFECT id="2">
                          <EFFECT>
                            <par name="type" value="0"/>
                          </EFFECT>
                          <par name="route" value="0"/>
                          <par_bool name="bypass" value="no"/>
                        </INSTRUMENT_EFFECT>
                      </INSTRUMENT_EFFECTS>
                    </INSTRUMENT>
                    <CONTROLLER>
                      <par name="pitchwheel_bendrange" value="100"/>
                      <par_bool name="expression_receive" value="yes"/>
                      <par name="panning_depth" value="64"/>
                      <par name="filter_cutoff_depth" value="64"/>
                      <par name="filter_q_depth" value="64"/>
                      <par name="bandwidth_depth" value="64"/>
                      <par name="mod_wheel_depth" value="80"/>
                      <par_bool name="mod_wheel_exponential" value="no"/>
                      <par_bool name="fm_amp_receive" value="yes"/>
                      <par_bool name="volume_receive" value="yes"/>
                      <par_bool name="sustain_receive" value="yes"/>
                      <par_bool name="portamento_receive" value="yes"/>
                      <par name="portamento_time" value="64"/>
                      <par name="portamento_pitchthresh" value="3"/>
                      <par name="portamento_pitchthreshtype" value="1"/>
                      <par name="portamento_portamento" value="0"/>
                      <par name="portamento_updowntimestretch" value="64"/>
                      <par name="portamento_proportional" value="0"/>
                      <par name="portamento_proprate" value="80"/>
                      <par name="portamento_propdepth" value="90"/>
                      <par name="resonance_center_depth" value="64"/>
                      <par name="resonance_bandwidth_depth" value="64"/>
                    </CONTROLLER>
                  </PART>
                  <PART id="1">
                    <par_bool name="enabled" value="no"/>
                  </PART>
                  <PART id="2">
                    <par_bool name="enabled" value="no"/>
                  </PART>
                  <PART id="3">
                    <par_bool name="enabled" value="no"/>
                  </PART>
                  <PART id="4">
                    <par_bool name="enabled" value="no"/>
                  </PART>
                  <PART id="5">
                    <par_bool name="enabled" value="no"/>
                  </PART>
                  <PART id="6">
                    <par_bool name="enabled" value="no"/>
                  </PART>
                  <PART id="7">
                    <par_bool name="enabled" value="no"/>
                  </PART>
                  <PART id="8">
                    <par_bool name="enabled" value="no"/>
                  </PART>
                  <PART id="9">
                    <par_bool name="enabled" value="no"/>
                  </PART>
                  <PART id="10">
                    <par_bool name="enabled" value="no"/>
                  </PART>
                  <PART id="11">
                    <par_bool name="enabled" value="no"/>
                  </PART>
                  <PART id="12">
                    <par_bool name="enabled" value="no"/>
                  </PART>
                  <PART id="13">
                    <par_bool name="enabled" value="no"/>
                  </PART>
                  <PART id="14">
                    <par_bool name="enabled" value="no"/>
                  </PART>
                  <PART id="15">
                    <par_bool name="enabled" value="no"/>
                  </PART>
                  <SYSTEM_EFFECTS>
                    <SYSTEM_EFFECT id="0">
                      <EFFECT>
                        <par name="type" value="0"/>
                      </EFFECT>
                      <VOLUME id="0">
                        <par name="vol" value="0"/>
                      </VOLUME>
                      <VOLUME id="1">
                        <par name="vol" value="0"/>
                      </VOLUME>
                      <VOLUME id="2">
                        <par name="vol" value="0"/>
                      </VOLUME>
                      <VOLUME id="3">
                        <par name="vol" value="0"/>
                      </VOLUME>
                      <VOLUME id="4">
                        <par name="vol" value="0"/>
                      </VOLUME>
                      <VOLUME id="5">
                        <par name="vol" value="0"/>
                      </VOLUME>
                      <VOLUME id="6">
                        <par name="vol" value="0"/>
                      </VOLUME>
                      <VOLUME id="7">
                        <par name="vol" value="0"/>
                      </VOLUME>
                      <VOLUME id="8">
                        <par name="vol" value="0"/>
                      </VOLUME>
                      <VOLUME id="9">
                        <par name="vol" value="0"/>
                      </VOLUME>
                      <VOLUME id="10">
                        <par name="vol" value="0"/>
                      </VOLUME>
                      <VOLUME id="11">
                        <par name="vol" value="0"/>
                      </VOLUME>
                      <VOLUME id="12">
                        <par name="vol" value="0"/>
                      </VOLUME>
                      <VOLUME id="13">
                        <par name="vol" value="0"/>
                      </VOLUME>
                      <VOLUME id="14">
                        <par name="vol" value="0"/>
                      </VOLUME>
                      <VOLUME id="15">
                        <par name="vol" value="0"/>
                      </VOLUME>
                      <SENDTO id="1">
                        <par name="send_vol" value="0"/>
                      </SENDTO>
                      <SENDTO id="2">
                        <par name="send_vol" value="0"/>
                      </SENDTO>
                      <SENDTO id="3">
                        <par name="send_vol" value="0"/>
                      </SENDTO>
                    </SYSTEM_EFFECT>
                    <SYSTEM_EFFECT id="1">
                      <EFFECT>
                        <par name="type" value="0"/>
                      </EFFECT>
                      <VOLUME id="0">
                        <par name="vol" value="0"/>
                      </VOLUME>
                      <VOLUME id="1">
                        <par name="vol" value="0"/>
                      </VOLUME>
                      <VOLUME id="2">
                        <par name="vol" value="0"/>
                      </VOLUME>
                      <VOLUME id="3">
                        <par name="vol" value="0"/>
                      </VOLUME>
                      <VOLUME id="4">
                        <par name="vol" value="0"/>
                      </VOLUME>
                      <VOLUME id="5">
                        <par name="vol" value="0"/>
                      </VOLUME>
                      <VOLUME id="6">
                        <par name="vol" value="0"/>
                      </VOLUME>
                      <VOLUME id="7">
                        <par name="vol" value="0"/>
                      </VOLUME>
                      <VOLUME id="8">
                        <par name="vol" value="0"/>
                      </VOLUME>
                      <VOLUME id="9">
                        <par name="vol" value="0"/>
                      </VOLUME>
                      <VOLUME id="10">
                        <par name="vol" value="0"/>
                      </VOLUME>
                      <VOLUME id="11">
                        <par name="vol" value="0"/>
                      </VOLUME>
                      <VOLUME id="12">
                        <par name="vol" value="0"/>
                      </VOLUME>
                      <VOLUME id="13">
                        <par name="vol" value="0"/>
                      </VOLUME>
                      <VOLUME id="14">
                        <par name="vol" value="0"/>
                      </VOLUME>
                      <VOLUME id="15">
                        <par name="vol" value="0"/>
                      </VOLUME>
                      <SENDTO id="2">
                        <par name="send_vol" value="0"/>
                      </SENDTO>
                      <SENDTO id="3">
                        <par name="send_vol" value="0"/>
                      </SENDTO>
                    </SYSTEM_EFFECT>
                    <SYSTEM_EFFECT id="2">
                      <EFFECT>
                        <par name="type" value="0"/>
                      </EFFECT>
                      <VOLUME id="0">
                        <par name="vol" value="0"/>
                      </VOLUME>
                      <VOLUME id="1">
                        <par name="vol" value="0"/>
                      </VOLUME>
                      <VOLUME id="2">
                        <par name="vol" value="0"/>
                      </VOLUME>
                      <VOLUME id="3">
                        <par name="vol" value="0"/>
                      </VOLUME>
                      <VOLUME id="4">
                        <par name="vol" value="0"/>
                      </VOLUME>
                      <VOLUME id="5">
                        <par name="vol" value="0"/>
                      </VOLUME>
                      <VOLUME id="6">
                        <par name="vol" value="0"/>
                      </VOLUME>
                      <VOLUME id="7">
                        <par name="vol" value="0"/>
                      </VOLUME>
                      <VOLUME id="8">
                        <par name="vol" value="0"/>
                      </VOLUME>
                      <VOLUME id="9">
                        <par name="vol" value="0"/>
                      </VOLUME>
                      <VOLUME id="10">
                        <par name="vol" value="0"/>
                      </VOLUME>
                      <VOLUME id="11">
                        <par name="vol" value="0"/>
                      </VOLUME>
                      <VOLUME id="12">
                        <par name="vol" value="0"/>
                      </VOLUME>
                      <VOLUME id="13">
                        <par name="vol" value="0"/>
                      </VOLUME>
                      <VOLUME id="14">
                        <par name="vol" value="0"/>
                      </VOLUME>
                      <VOLUME id="15">
                        <par name="vol" value="0"/>
                      </VOLUME>
                      <SENDTO id="3">
                        <par name="send_vol" value="0"/>
                      </SENDTO>
                    </SYSTEM_EFFECT>
                    <SYSTEM_EFFECT id="3">
                      <EFFECT>
                        <par name="type" value="0"/>
                      </EFFECT>
                      <VOLUME id="0">
                        <par name="vol" value="0"/>
                      </VOLUME>
                      <VOLUME id="1">
                        <par name="vol" value="0"/>
                      </VOLUME>
                      <VOLUME id="2">
                        <par name="vol" value="0"/>
                      </VOLUME>
                      <VOLUME id="3">
                        <par name="vol" value="0"/>
                      </VOLUME>
                      <VOLUME id="4">
                        <par name="vol" value="0"/>
                      </VOLUME>
                      <VOLUME id="5">
                        <par name="vol" value="0"/>
                      </VOLUME>
                      <VOLUME id="6">
                        <par name="vol" value="0"/>
                      </VOLUME>
                      <VOLUME id="7">
                        <par name="vol" value="0"/>
                      </VOLUME>
                      <VOLUME id="8">
                        <par name="vol" value="0"/>
                      </VOLUME>
                      <VOLUME id="9">
                        <par name="vol" value="0"/>
                      </VOLUME>
                      <VOLUME id="10">
                        <par name="vol" value="0"/>
                      </VOLUME>
                      <VOLUME id="11">
                        <par name="vol" value="0"/>
                      </VOLUME>
                      <VOLUME id="12">
                        <par name="vol" value="0"/>
                      </VOLUME>
                      <VOLUME id="13">
                        <par name="vol" value="0"/>
                      </VOLUME>
                      <VOLUME id="14">
                        <par name="vol" value="0"/>
                      </VOLUME>
                      <VOLUME id="15">
                        <par name="vol" value="0"/>
                      </VOLUME>
                    </SYSTEM_EFFECT>
                  </SYSTEM_EFFECTS>
                  <INSERTION_EFFECTS>
                    <INSERTION_EFFECT id="0">
                      <par name="part" value="-1"/>
                      <EFFECT>
                        <par name="type" value="0"/>
                      </EFFECT>
                    </INSERTION_EFFECT>
                    <INSERTION_EFFECT id="1">
                      <par name="part" value="-1"/>
                      <EFFECT>
                        <par name="type" value="0"/>
                      </EFFECT>
                    </INSERTION_EFFECT>
                    <INSERTION_EFFECT id="2">
                      <par name="part" value="-1"/>
                      <EFFECT>
                        <par name="type" value="0"/>
                      </EFFECT>
                    </INSERTION_EFFECT>
                    <INSERTION_EFFECT id="3">
                      <par name="part" value="-1"/>
                      <EFFECT>
                        <par name="type" value="0"/>
                      </EFFECT>
                    </INSERTION_EFFECT>
                    <INSERTION_EFFECT id="4">
                      <par name="part" value="-1"/>
                      <EFFECT>
                        <par name="type" value="0"/>
                      </EFFECT>
                    </INSERTION_EFFECT>
                    <INSERTION_EFFECT id="5">
                      <par name="part" value="-1"/>
                      <EFFECT>
                        <par name="type" value="0"/>
                      </EFFECT>
                    </INSERTION_EFFECT>
                    <INSERTION_EFFECT id="6">
                      <par name="part" value="-1"/>
                      <EFFECT>
                        <par name="type" value="0"/>
                      </EFFECT>
                    </INSERTION_EFFECT>
                    <INSERTION_EFFECT id="7">
                      <par name="part" value="-1"/>
                      <EFFECT>
                        <par name="type" value="0"/>
                      </EFFECT>
                    </INSERTION_EFFECT>
                  </INSERTION_EFFECTS>
                </MASTER>
              </ZynAddSubFX-data>
            </zynaddsubfx>
          </instrument>
          <eldata ftype="0" fcut="14000" fres="0.5" fwet="0">
            <elvol userwavefile="" hold="0.056" lspd_numerator="4" lspd="0.1" lspd_denominator="4" lshp="0" latt="0" rel="0.1" x100="0" pdel="0" lpdel="0" amt="1" lspd_syncmode="0" dec="0.494" lamt="0" sustain="0.281" ctlenvamt="0" att="0"/>
            <elcut userwavefile="" hold="0.5" lspd_numerator="4" lspd="0.1" lspd_denominator="4" lshp="0" latt="0" rel="0.1" x100="0" pdel="0" lpdel="0" amt="0" lspd_syncmode="0" dec="0.5" lamt="0" sustain="0.5" ctlenvamt="0" att="0"/>
            <elres userwavefile="" hold="0.5" lspd_numerator="4" lspd="0.1" lspd_denominator="4" lshp="0" latt="0" rel="0.1" x100="0" pdel="0" lpdel="0" amt="0" lspd_syncmode="0" dec="0.5" lamt="0" sustain="0.5" ctlenvamt="0" att="0"/>
          </eldata>
          <chordcreator chord-enabled="0" chordrange="3" chord="0"/>
          <arpeggiator arpcycle="0" arptime_syncmode="0" arptime_numerator="4" arpgate="100" arpmode="0" arp-enabled="0" arptime="200" arp="0" arpskip="0" arpmiss="0" arprange="1" arpdir="0" arptime_denominator="4"/>
          <midiport inputchannel="0" outputprogram="1" basevelocity="63" outputchannel="1" fixedinputvelocity="-1" inputcontroller="0" readable="0" writable="0" outputcontroller="0" fixedoutputvelocity="-1" fixedoutputnote="-1"/>
          <fxchain numofeffects="0" enabled="0"/>
        </instrumenttrack>
        <pattern muted="0" name="Extreme" pos="21504" type="1" steps="16">
          <note len="48" key="79" vol="197" pos="0" pan="0"/>
          <note len="48" key="71" vol="197" pos="48" pan="0"/>
          <note len="48" key="78" vol="197" pos="96" pan="0"/>
          <note len="48" key="71" vol="197" pos="144" pan="0"/>
          <note len="48" key="76" vol="197" pos="192" pan="0"/>
          <note len="48" key="78" vol="197" pos="240" pan="0"/>
          <note len="48" key="79" vol="197" pos="288" pan="0"/>
          <note len="48" key="71" vol="197" pos="336" pan="0"/>
        </pattern>
        <pattern muted="0" name="Extreme" pos="21888" type="1" steps="16">
          <note len="48" key="76" vol="197" pos="0" pan="0"/>
          <note len="48" key="83" vol="197" pos="48" pan="0"/>
          <note len="48" key="81" vol="197" pos="96" pan="0"/>
          <note len="48" key="86" vol="197" pos="144" pan="0"/>
          <note len="48" key="81" vol="197" pos="192" pan="0"/>
          <note len="48" key="79" vol="197" pos="240" pan="0"/>
          <note len="48" key="78" vol="197" pos="288" pan="0"/>
          <note len="48" key="83" vol="197" pos="336" pan="0"/>
        </pattern>
        <pattern muted="0" name="Extreme" pos="22272" type="1" steps="16">
          <note len="48" key="79" vol="197" pos="0" pan="0"/>
          <note len="48" key="71" vol="197" pos="48" pan="0"/>
          <note len="48" key="78" vol="197" pos="96" pan="0"/>
          <note len="48" key="71" vol="197" pos="144" pan="0"/>
          <note len="48" key="76" vol="197" pos="192" pan="0"/>
          <note len="48" key="78" vol="197" pos="240" pan="0"/>
          <note len="48" key="79" vol="197" pos="288" pan="0"/>
          <note len="48" key="71" vol="197" pos="336" pan="0"/>
        </pattern>
        <pattern muted="0" name="Extreme" pos="22656" type="1" steps="16">
          <note len="24" key="79" vol="197" pos="0" pan="0"/>
          <note len="24" key="72" vol="197" pos="48" pan="0"/>
          <note len="24" key="78" vol="197" pos="96" pan="0"/>
          <note len="24" key="79" vol="197" pos="144" pan="0"/>
          <note len="24" key="81" vol="197" pos="192" pan="0"/>
          <note len="24" key="83" vol="197" pos="240" pan="0"/>
          <note len="24" key="81" vol="197" pos="288" pan="0"/>
          <note len="24" key="86" vol="197" pos="336" pan="0"/>
        </pattern>
      </track>
      <track muted="0" name="gibbs" solo="0" type="0">
        <instrumenttrack pitch="0" fxch="20" basenote="57" vol="5.3" pitchrange="1" usemasterpitch="1" pan="-42.4">
          <instrument name="organic">
            <organic newdetune3="3" pan2="0" wavetype4="4" newdetune7="-4" pan3="0" newdetune0="3" newdetune5="-5" vol3="70" newdetune2="-3" pan4="0" newharmonic0="0" foldback="0.51" newharmonic6="6" vol7="7" vol4="59" newharmonic2="2" wavetype1="2" wavetype0="0" wavetype3="0" newharmonic5="5" newdetune4="-4" num_osc="8" pan6="0" pan1="0" wavetype5="2" vol1="39" pan0="0" pan7="0" wavetype6="4" newharmonic4="4" vol2="62" newdetune1="-1" newharmonic7="7" vol5="52" vol6="88" newdetune6="3" newharmonic3="3" newharmonic1="1" vol="100" vol0="58" wavetype2="3" pan5="0" wavetype7="2"/>
          </instrument>
          <eldata ftype="0" fcut="10472" fres="0.5" fwet="0">
            <elvol userwavefile="" hold="0.5" lspd_numerator="4" lspd="0.1" lspd_denominator="4" lshp="0" latt="0" rel="0.1" x100="0" pdel="0" lpdel="0" amt="0" lspd_syncmode="0" dec="0.5" lamt="0" sustain="0.5" ctlenvamt="0" att="0"/>
            <elcut userwavefile="" hold="0.5" lspd_numerator="4" lspd="0.1" lspd_denominator="4" lshp="0" latt="0" rel="0.1" x100="0" pdel="0" lpdel="0" amt="0" lspd_syncmode="0" dec="0.5" lamt="0" sustain="0.5" ctlenvamt="0" att="0"/>
            <elres userwavefile="" hold="0.5" lspd_numerator="4" lspd="0.1" lspd_denominator="4" lshp="0" latt="0" rel="0.1" x100="0" pdel="0" lpdel="0" amt="0" lspd_syncmode="0" dec="0.5" lamt="0" sustain="0.5" ctlenvamt="0" att="0"/>
          </eldata>
          <chordcreator chord-enabled="0" chordrange="1" chord="0"/>
          <arpeggiator arpcycle="0" arptime_syncmode="0" arptime_numerator="4" arpgate="100" arpmode="0" arp-enabled="0" arptime="200" arp="0" arpskip="0" arpmiss="0" arprange="1" arpdir="0" arptime_denominator="4"/>
          <midiport inputchannel="0" outputprogram="1" basevelocity="63" outputchannel="1" fixedinputvelocity="-1" inputcontroller="0" readable="0" writable="0" outputcontroller="0" fixedoutputvelocity="-1" fixedoutputnote="-1"/>
          <fxchain numofeffects="0" enabled="0"/>
        </instrumenttrack>
        <pattern muted="0" name="gibbs" pos="13056" type="1" steps="16">
          <note len="24" key="107" vol="197" pos="0" pan="0"/>
          <note len="24" key="106" vol="197" pos="24" pan="0"/>
          <note len="24" key="104" vol="197" pos="48" pan="0"/>
          <note len="24" key="106" vol="197" pos="72" pan="0"/>
          <note len="24" key="105" vol="197" pos="96" pan="0"/>
          <note len="24" key="102" vol="197" pos="120" pan="0"/>
          <note len="24" key="98" vol="197" pos="144" pan="0"/>
          <note len="24" key="104" vol="197" pos="168" pan="0"/>
          <note len="24" key="102" vol="197" pos="192" pan="0"/>
          <note len="24" key="99" vol="197" pos="216" pan="0"/>
          <note len="24" key="102" vol="197" pos="240" pan="0"/>
          <note len="24" key="105" vol="197" pos="264" pan="0"/>
          <note len="24" key="103" vol="197" pos="288" pan="0"/>
          <note len="24" key="98" vol="197" pos="312" pan="0"/>
          <note len="24" key="102" vol="197" pos="336" pan="0"/>
          <note len="24" key="99" vol="197" pos="360" pan="0"/>
        </pattern>
        <pattern muted="0" name="gibbs" pos="13440" type="1" steps="16">
          <note len="24" key="107" vol="197" pos="0" pan="0"/>
          <note len="24" key="106" vol="197" pos="24" pan="0"/>
          <note len="24" key="104" vol="197" pos="48" pan="0"/>
          <note len="24" key="106" vol="197" pos="72" pan="0"/>
          <note len="24" key="105" vol="197" pos="96" pan="0"/>
          <note len="24" key="102" vol="197" pos="120" pan="0"/>
          <note len="24" key="98" vol="197" pos="144" pan="0"/>
          <note len="24" key="104" vol="197" pos="168" pan="0"/>
          <note len="24" key="102" vol="197" pos="192" pan="0"/>
          <note len="24" key="99" vol="197" pos="216" pan="0"/>
          <note len="24" key="102" vol="197" pos="240" pan="0"/>
          <note len="24" key="105" vol="197" pos="264" pan="0"/>
          <note len="24" key="103" vol="197" pos="288" pan="0"/>
          <note len="24" key="98" vol="197" pos="312" pan="0"/>
          <note len="24" key="102" vol="197" pos="336" pan="0"/>
          <note len="24" key="99" vol="197" pos="360" pan="0"/>
        </pattern>
      </track>
    </trackcontainer>
    <track muted="0" name="Automation track" solo="0" type="6">
      <automationtrack/>
      <automationpattern len="192" tens="1" name="Numerator" mute="0" pos="0" prog="0"/>
      <automationpattern len="192" tens="1" name="Denominator" mute="0" pos="0" prog="0"/>
      <automationpattern len="192" tens="1" name="Tempo" mute="0" pos="0" prog="0"/>
      <automationpattern len="192" tens="1" name="Master volume" mute="0" pos="0" prog="0"/>
      <automationpattern len="192" tens="1" name="Master pitch" mute="0" pos="0" prog="0"/>
    </track>
    <fxmixer height="333" y="269" width="1260" minimized="0" x="-102" visible="1" maximized="0">
      <fxchannel muted="0" name="Master" volume="0.469" num="0" soloed="0">
        <fxchain numofeffects="1" enabled="1">
          <effect autoquit_syncmode="0" name="eq" wet="1" autoquit_denominator="4" autoquit_numerator="4" autoquit="1" on="1" gate="0">
            <Eq Peak3bw="0.3" Outputgain="-0.2" LP24="0" Peak4bw="0.3" Peak2gain="0.18" Peak1active="0" LP12="1" Peak2bw="1.646" HighShelfres="0.95" HPres="0.707" AnalyseIn="1" LowShelfres="1.4" LPactive="0" HP12="1" Lowshelfgain="-2.34" HPactive="0" LP48="0" Peak2active="0" HP48="0" Lowshelfactive="1" Peak4active="0" HP24="0" Peak4gain="0" Peak3gain="0" LPres="0.707" Peak3active="0" Highshelfactive="1" LP="0" HP="0" AnalyseOut="1" Peak1bw="0.3" HighShelfgain="1.184">
              <Inputgain id="6960990" scale_type="log" value="0"/>
              <Peak1gain id="5499558" scale_type="log" value="0"/>
              <HPfreq id="1383758" scale_type="log" value="31"/>
              <LowShelffreq id="5833631" scale_type="log" value="75.2356"/>
              <Peak1freq id="1691703" scale_type="log" value="120"/>
              <Peak2freq id="3624547" scale_type="log" value="581.577"/>
              <Peak3freq id="2850306" scale_type="log" value="2000"/>
              <Peak4freq id="3346118" scale_type="log" value="4000"/>
              <Highshelffreq id="6208759" scale_type="log" value="2625.31"/>
              <LPfreq id="6863395" scale_type="log" value="18000"/>
            </Eq>
            <key/>
          </effect>
        </fxchain>
      </fxchannel>
      <fxchannel muted="0" name="kick" volume="0.814" num="1" soloed="0">
        <fxchain numofeffects="0" enabled="1"/>
        <send channel="10" amount="0.512"/>
        <send channel="11" amount="1"/>
      </fxchannel>
      <fxchannel muted="0" name="hat" volume="0.345" num="2" soloed="0">
        <fxchain numofeffects="0" enabled="0"/>
        <send channel="10" amount="0.532"/>
        <send channel="11" amount="1"/>
      </fxchannel>
      <fxchannel muted="0" name="snare" volume="0.715001" num="3" soloed="0">
        <fxchain numofeffects="1" enabled="1">
          <effect autoquit_syncmode="0" name="eq" wet="1" autoquit_denominator="4" autoquit_numerator="4" autoquit="1" on="1" gate="0">
            <Eq Peak3bw="0.3" Outputgain="0" LP24="0" Peak4bw="0.3" Peak2gain="0" Peak1active="0" LP12="1" Peak2bw="0.3" HighShelfres="1.435" HPres="0.707" AnalyseIn="1" LowShelfres="1.4" LPactive="1" HP12="1" Lowshelfgain="0" HPactive="0" LP48="0" Peak2active="0" HP48="0" Lowshelfactive="0" Peak4active="1" HP24="0" Peak4gain="-0.718001" Peak3gain="0" LPres="0.707" Peak3active="0" Highshelfactive="1" LP="0" HP="0" AnalyseOut="1" Peak1bw="0.3" HighShelfgain="5.04">
              <Inputgain id="6753652" scale_type="log" value="0"/>
              <Peak1gain id="8257704" scale_type="log" value="0"/>
              <HPfreq id="2234845" scale_type="log" value="31"/>
              <LowShelffreq id="5016811" scale_type="log" value="80"/>
              <Peak1freq id="5537746" scale_type="log" value="120"/>
              <Peak2freq id="6539813" scale_type="log" value="250"/>
              <Peak3freq id="6999518" scale_type="log" value="2000"/>
              <Peak4freq id="770028" scale_type="log" value="4000"/>
              <Highshelffreq id="3686018" scale_type="log" value="2497.52"/>
              <LPfreq id="7588449" scale_type="log" value="13865.6"/>
            </Eq>
            <key/>
          </effect>
        </fxchain>
        <send channel="10" amount="0.784"/>
        <send channel="11" amount="1"/>
      </fxchannel>
      <fxchannel muted="0" name="crash1" volume="0.719" num="4" soloed="0">
        <fxchain numofeffects="0" enabled="0"/>
        <send channel="10" amount="0.724"/>
        <send channel="11" amount="1"/>
      </fxchannel>
      <fxchannel muted="0" name="crash2" volume="0.674" num="5" soloed="0">
        <fxchain numofeffects="0" enabled="0"/>
        <send channel="10" amount="0.76"/>
        <send channel="11" amount="1"/>
      </fxchannel>
      <fxchannel muted="0" name="china" volume="1.046" num="6" soloed="0">
        <fxchain numofeffects="0" enabled="0"/>
        <send channel="10" amount="0"/>
        <send channel="11" amount="1"/>
      </fxchannel>
      <fxchannel muted="0" name="hitom" volume="0.512" num="7" soloed="0">
        <fxchain numofeffects="0" enabled="0"/>
        <send channel="10" amount="0.325"/>
        <send channel="11" amount="1"/>
      </fxchannel>
      <fxchannel muted="0" name="midtom" volume="0.534" num="8" soloed="0">
        <fxchain numofeffects="0" enabled="0"/>
        <send channel="10" amount="0.312"/>
        <send channel="11" amount="1"/>
      </fxchannel>
      <fxchannel muted="0" name="lotom" volume="0.418" num="9" soloed="0">
        <fxchain numofeffects="0" enabled="0"/>
        <send channel="10" amount="0.316"/>
        <send channel="11" amount="1"/>
      </fxchannel>
      <fxchannel muted="0" name="DRUM PLATE" volume="0.657" num="10" soloed="0">
        <fxchain numofeffects="2" enabled="1">
          <effect autoquit_syncmode="0" name="ladspaeffect" wet="1" autoquit_denominator="4" autoquit_numerator="4" autoquit="1" on="1" gate="0">
            <ladspacontrols ports="4">
              <port02 data="0.76538"/>
              <port03 data="0.145119"/>
              <port04 data="0.0005"/>
              <port05 data="1"/>
            </ladspacontrols>
            <key>
              <attribute name="file" value="caps"/>
              <attribute name="plugin" value="Plate2x2"/>
            </key>
          </effect>
          <effect autoquit_syncmode="0" name="eq" wet="1" autoquit_denominator="4" autoquit_numerator="4" autoquit="1" on="1" gate="0">
            <Eq Peak3bw="0.3" Outputgain="0" LP24="0" Peak4bw="0.3" Peak2gain="0" Peak1active="0" LP12="1" Peak2bw="0.3" HighShelfres="1.4" HPres="0.707" AnalyseIn="1" LowShelfres="1.4" LPactive="0" HP12="1" Lowshelfgain="0" HPactive="1" LP48="0" Peak2active="0" HP48="0" Lowshelfactive="0" Peak4active="1" HP24="0" Peak4gain="0.36" Peak3gain="0" LPres="0.707" Peak3active="0" Highshelfactive="1" LP="0" HP="0" AnalyseOut="1" Peak1bw="0.3" HighShelfgain="1.62">
              <Inputgain id="217936" scale_type="log" value="0"/>
              <Peak1gain id="1412862" scale_type="log" value="0"/>
              <HPfreq id="7725025" scale_type="log" value="175.669"/>
              <LowShelffreq id="399642" scale_type="log" value="80"/>
              <Peak1freq id="3213708" scale_type="log" value="120"/>
              <Peak2freq id="1180890" scale_type="log" value="250"/>
              <Peak3freq id="5654965" scale_type="log" value="2000"/>
              <Peak4freq id="757114" scale_type="log" value="3592.47"/>
              <Highshelffreq id="3326661" scale_type="log" value="610.728"/>
              <LPfreq id="825391" scale_type="log" value="18000"/>
            </Eq>
            <key/>
          </effect>
        </fxchain>
        <send channel="0" amount="1"/>
      </fxchannel>
      <fxchannel muted="0" name="drums" volume="0.871" num="11" soloed="0">
        <fxchain numofeffects="0" enabled="0"/>
        <send channel="0" amount="1"/>
      </fxchannel>
      <fxchannel muted="0" name="rhythm guitar" volume="1.256" num="12" soloed="0">
        <fxchain numofeffects="2" enabled="1">
          <effect autoquit_syncmode="0" name="ladspaeffect" wet="1" autoquit_denominator="4" autoquit_numerator="4" autoquit="1" on="0" gate="0">
            <ladspacontrols link="1" ports="2">
              <port01 data="72" link="1"/>
              <port11 data="72"/>
            </ladspacontrols>
            <key>
              <attribute name="file" value="caps"/>
              <attribute name="plugin" value="Clip"/>
            </key>
          </effect>
          <effect autoquit_syncmode="0" name="ladspaeffect" wet="1" autoquit_denominator="4" autoquit_numerator="4" autoquit="1" on="0" gate="0">
            <ladspacontrols link="1" ports="4">
              <port01 data="5" link="1"/>
              <port02 data="-10.14" link="1"/>
              <port11 data="5"/>
              <port12 data="-10.14"/>
            </ladspacontrols>
            <key>
              <attribute name="file" value="caps"/>
              <attribute name="plugin" value="CabinetI"/>
            </key>
          </effect>
        </fxchain>
        <send channel="0" amount="1"/>
      </fxchannel>
      <fxchannel muted="0" name="lgt" volume="1.563" num="13" soloed="0">
        <fxchain numofeffects="4" enabled="1">
          <effect autoquit_syncmode="0" name="ladspaeffect" wet="1" autoquit_denominator="4" autoquit_numerator="4" autoquit="1" on="0" gate="0">
            <ladspacontrols link="1" ports="4">
              <port00 link="1">
                <data id="354059" scale_type="log" value="13230"/>
              </port00>
              <port01 data="1" link="1"/>
              <port10>
                <data id="451672" scale_type="log" value="13230"/>
              </port10>
              <port11 data="1"/>
            </ladspacontrols>
            <key>
              <attribute name="file" value="pointer_cast_1910"/>
              <attribute name="plugin" value="pointerCastDistortion"/>
            </key>
          </effect>
          <effect autoquit_syncmode="0" name="ladspaeffect" wet="1" autoquit_denominator="4" autoquit_numerator="4" autoquit="1" on="0" gate="0">
            <ladspacontrols link="1" ports="4">
              <port01 data="10" link="1"/>
              <port02 data="1" link="1"/>
              <port11 data="10"/>
              <port12 data="1"/>
            </ladspacontrols>
            <key>
              <attribute name="file" value="caps"/>
              <attribute name="plugin" value="PreampIII"/>
            </key>
          </effect>
          <effect autoquit_syncmode="0" name="ladspaeffect" wet="1" autoquit_denominator="4" autoquit_numerator="4" autoquit="1" on="0" gate="0">
            <ladspacontrols link="0" ports="4">
              <port01 data="1" link="1"/>
              <port02 data="0" link="1"/>
              <port11 data="1"/>
              <port12 data="0"/>
            </ladspacontrols>
            <key>
              <attribute name="file" value="caps"/>
              <attribute name="plugin" value="CabinetII"/>
            </key>
          </effect>
          <effect autoquit_syncmode="0" name="ladspaeffect" wet="1" autoquit_denominator="4" autoquit_numerator="4" autoquit="1" on="0" gate="0">
            <ladspacontrols ports="1">
              <port02 data="0.29125"/>
            </ladspacontrols>
            <key>
              <attribute name="file" value="caps"/>
              <attribute name="plugin" value="Narrower"/>
            </key>
          </effect>
        </fxchain>
        <send channel="0" amount="1"/>
        <send channel="14" amount="0.484"/>
      </fxchannel>
      <fxchannel muted="0" name="FX 14" volume="0.372" num="14" soloed="0">
        <fxchain numofeffects="1" enabled="1">
          <effect autoquit_syncmode="0" name="ladspaeffect" wet="1" autoquit_denominator="4" autoquit_numerator="4" autoquit="1" on="1" gate="0">
            <ladspacontrols link="0" ports="4">
              <port00 data="112.5" data_numerator="4" link="0" data_syncmode="0" data_denominator="4"/>
              <port01 data="0" data_numerator="4" link="0" data_syncmode="0" data_denominator="4"/>
              <port10 data="301.25" data_numerator="4" data_syncmode="0" data_denominator="4"/>
              <port11 data="0" data_numerator="4" data_syncmode="0" data_denominator="4"/>
            </ladspacontrols>
            <key>
              <attribute name="file" value="mod_delay_1419"/>
              <attribute name="plugin" value="modDelay"/>
            </key>
          </effect>
        </fxchain>
        <send channel="0" amount="1"/>
      </fxchannel>
      <fxchannel muted="0" name="bass" volume="0.395" num="15" soloed="0">
        <fxchain numofeffects="1" enabled="1">
          <effect autoquit_syncmode="0" name="eq" wet="1" autoquit_denominator="4" autoquit_numerator="4" autoquit="1" on="0" gate="0">
            <Eq Peak3bw="1.828" Outputgain="8" LP24="0" Peak4bw="0.811" Peak2gain="18" Peak1active="0" LP12="1" Peak2bw="2.866" HighShelfres="1.4" HPres="0.707" AnalyseIn="1" LowShelfres="1.21" LPactive="0" HP12="1" Lowshelfgain="-6.477" HPactive="0" LP48="0" Peak2active="1" HP48="0" Lowshelfactive="1" Peak4active="1" HP24="0" Peak4gain="5.76" Peak3gain="18" LPres="0.707" Peak3active="1" Highshelfactive="0" LP="0" HP="0" AnalyseOut="1" Peak1bw="0.3" HighShelfgain="0">
              <Inputgain id="1928132" scale_type="log" value="0"/>
              <Peak1gain id="5028906" scale_type="log" value="0"/>
              <HPfreq id="6101787" scale_type="log" value="24.795"/>
              <LowShelffreq id="5056230" scale_type="log" value="179.84"/>
              <Peak1freq id="3218393" scale_type="log" value="120"/>
              <Peak2freq id="4083145" scale_type="log" value="8057.72"/>
              <Peak3freq id="4897974" scale_type="log" value="4557.45"/>
              <Peak4freq id="5404987" scale_type="log" value="4000"/>
              <Highshelffreq id="3053663" scale_type="log" value="12000"/>
              <LPfreq id="1445410" scale_type="log" value="18000"/>
            </Eq>
            <key/>
          </effect>
        </fxchain>
        <send channel="0" amount="1"/>
      </fxchannel>
      <fxchannel muted="0" name="synthStrings" volume="0.558" num="16" soloed="0">
        <fxchain numofeffects="0" enabled="0"/>
        <send channel="0" amount="1"/>
      </fxchannel>
      <fxchannel muted="0" name="harpsichord" volume="1" num="17" soloed="0">
        <fxchain numofeffects="0" enabled="0"/>
        <send channel="0" amount="1"/>
      </fxchannel>
      <fxchannel muted="0" name="supersaw" volume="1" num="18" soloed="0">
        <fxchain numofeffects="0" enabled="0"/>
        <send channel="0" amount="1"/>
      </fxchannel>
      <fxchannel muted="0" name="thingy" volume="1" num="19" soloed="0">
        <fxchain numofeffects="0" enabled="0"/>
        <send channel="0" amount="1"/>
      </fxchannel>
      <fxchannel muted="0" name="tweedle deedle" volume="1" num="20" soloed="0">
        <fxchain numofeffects="0" enabled="0"/>
        <send channel="0" amount="1"/>
      </fxchannel>
      <fxchannel muted="0" name="FX 21" volume="1" num="21" soloed="0">
        <fxchain numofeffects="0" enabled="0"/>
        <send channel="0" amount="1"/>
      </fxchannel>
      <fxchannel muted="0" name="FX 22" volume="1" num="22" soloed="0">
        <fxchain numofeffects="0" enabled="0"/>
        <send channel="0" amount="1"/>
      </fxchannel>
      <fxchannel muted="0" name="FX 23" volume="1" num="23" soloed="0">
        <fxchain numofeffects="0" enabled="0"/>
        <send channel="0" amount="1"/>
      </fxchannel>
      <fxchannel muted="0" name="FX 24" volume="1" num="24" soloed="0">
        <fxchain numofeffects="0" enabled="0"/>
        <send channel="0" amount="1"/>
      </fxchannel>
      <fxchannel muted="0" name="FX 25" volume="1" num="25" soloed="0">
        <fxchain numofeffects="0" enabled="0"/>
        <send channel="0" amount="1"/>
      </fxchannel>
      <fxchannel muted="0" name="FX 26" volume="1" num="26" soloed="0">
        <fxchain numofeffects="0" enabled="0"/>
        <send channel="0" amount="1"/>
      </fxchannel>
      <fxchannel muted="0" name="FX 27" volume="1" num="27" soloed="0">
        <fxchain numofeffects="0" enabled="0"/>
        <send channel="0" amount="1"/>
      </fxchannel>
      <fxchannel muted="0" name="FX 28" volume="1" num="28" soloed="0">
        <fxchain numofeffects="0" enabled="0"/>
        <send channel="0" amount="1"/>
      </fxchannel>
      <fxchannel muted="0" name="FX 29" volume="1" num="29" soloed="0">
        <fxchain numofeffects="0" enabled="0"/>
        <send channel="0" amount="1"/>
      </fxchannel>
      <fxchannel muted="0" name="FX 30" volume="1" num="30" soloed="0">
        <fxchain numofeffects="0" enabled="0"/>
        <send channel="0" amount="1"/>
      </fxchannel>
    </fxmixer>
    <ControllerRackView height="200" y="282" width="350" minimized="0" x="680" visible="0" maximized="0"/>
    <pianoroll height="480" y="51" width="860" minimized="0" x="119" visible="0" maximized="1"/>
    <automationeditor height="400" y="78" width="860" minimized="0" x="395" visible="0" maximized="0"/>
    <projectnotes height="400" y="1" width="692" minimized="0" x="700" visible="0" maximized="0"><![CDATA[<!DOCTYPE HTML PUBLIC "-//W3C//DTD HTML 4.0//EN" "http://www.w3.org/TR/REC-html40/strict.dtd">
<html><head><meta name="qrichtext" content="1" /><style type="text/css">
p, li { white-space: pre-wrap; }
</style></head><body style=" font-family:'Sans Serif'; font-size:9pt; font-weight:400; font-style:normal;">
<p style="-qt-paragraph-type:empty; margin-top:0px; margin-bottom:0px; margin-left:0px; margin-right:0px; -qt-block-indent:0; text-indent:0px; font-family:'Ubuntu'; font-size:10pt;"><br /></p></body></html>]]></projectnotes>
    <timeline lp0pos="0" lp1pos="11904" lpstate="0"/>
    <controllers/>
  </song>
</lmms-project>
