<?xml version="1.0"?>
<!DOCTYPE lmms-project>
<lmms-project creator="LMMS" version="1.0" creatorversion="1.2.2" type="song">
  <head mastervol="100" timesig_numerator="4" timesig_denominator="4" bpm="220" masterpitch="0"/>
  <song>
    <trackcontainer visible="1" minimized="0" height="300" width="600" y="152" x="66" maximized="1" type="song">
      <track muted="0" solo="0" name="intro1" type="1">
        <bbtrack>
          <trackcontainer visible="0" minimized="0" height="378" width="1042" y="77" x="167" maximized="1" type="bbtrackcontainer">
            <track muted="0" solo="0" name="kick.wav" type="0">
              <instrumenttrack fxch="1" usemasterpitch="1" vol="100" pitch="0" pitchrange="1" pan="0" basenote="57">
                <instrument name="audiofileprocessor">
                  <audiofileprocessor stutter="0" reversed="0" lframe="0" interp="0" amp="100" src="/home/pass/samples/sillydrums/kick.wav" looped="0" sframe="0" eframe="1"/>
                </instrument>
                <eldata fres="0.5" fwet="0" fcut="14000" ftype="0">
                  <elvol pdel="0" latt="0" lshp="0" lspd_denominator="4" lamt="0" amt="1" sustain="1" lspd_syncmode="0" att="0" x100="0" lspd_numerator="4" lspd="0.1" ctlenvamt="0" dec="2" lpdel="0" hold="2" userwavefile="" rel="2"/>
                  <elcut pdel="0" latt="0" lshp="0" lspd_denominator="4" lamt="0" amt="0" sustain="0.5" lspd_syncmode="0" att="0" x100="0" lspd_numerator="4" lspd="0.1" ctlenvamt="0" dec="0.5" lpdel="0" hold="0.5" userwavefile="" rel="0.1"/>
                  <elres pdel="0" latt="0" lshp="0" lspd_denominator="4" lamt="0" amt="0" sustain="0.5" lspd_syncmode="0" att="0" x100="0" lspd_numerator="4" lspd="0.1" ctlenvamt="0" dec="0.5" lpdel="0" hold="0.5" userwavefile="" rel="0.1"/>
                </eldata>
                <chordcreator chordrange="1" chord="0" chord-enabled="0"/>
                <arpeggiator arptime="200" arpskip="0" arpgate="100" arptime_syncmode="0" arpmode="0" arprange="1" arp="0" arpcycle="0" arptime_denominator="4" arptime_numerator="4" arpdir="0" arp-enabled="0" arpmiss="0"/>
                <midiport outputchannel="1" inputcontroller="0" inputchannel="0" basevelocity="63" outputprogram="1" readable="0" outputcontroller="0" fixedinputvelocity="-1" fixedoutputnote="-1" writable="0" fixedoutputvelocity="-1"/>
                <fxchain numofeffects="0" enabled="0"/>
              </instrumenttrack>
              <pattern muted="0" pos="0" steps="128" name="kick.wav" type="0">
                <note key="57" vol="100" pos="0" pan="0" len="-192"/>
                <note key="57" vol="100" pos="768" pan="0" len="-192"/>
              </pattern>
              <pattern muted="0" pos="192" steps="112" name="kick.wav" type="0">
                <note key="57" vol="100" pos="0" pan="0" len="-192"/>
                <note key="57" vol="100" pos="48" pan="0" len="-192"/>
                <note key="57" vol="100" pos="96" pan="0" len="-192"/>
                <note key="57" vol="100" pos="144" pan="0" len="-192"/>
                <note key="57" vol="100" pos="192" pan="0" len="-192"/>
                <note key="57" vol="100" pos="240" pan="0" len="-192"/>
                <note key="57" vol="100" pos="288" pan="0" len="-192"/>
                <note key="57" vol="100" pos="336" pan="0" len="-192"/>
                <note key="57" vol="100" pos="384" pan="0" len="-192"/>
                <note key="57" vol="100" pos="432" pan="0" len="-192"/>
                <note key="57" vol="100" pos="480" pan="0" len="-192"/>
                <note key="57" vol="100" pos="528" pan="0" len="-192"/>
                <note key="57" vol="100" pos="576" pan="0" len="-192"/>
                <note key="57" vol="100" pos="624" pan="0" len="-192"/>
                <note key="57" vol="100" pos="672" pan="0" len="-192"/>
                <note key="57" vol="100" pos="720" pan="0" len="-192"/>
                <note key="57" vol="100" pos="768" pan="0" len="-192"/>
                <note key="57" vol="100" pos="816" pan="0" len="-192"/>
                <note key="57" vol="100" pos="864" pan="0" len="-192"/>
                <note key="57" vol="100" pos="912" pan="0" len="-192"/>
                <note key="57" vol="100" pos="960" pan="0" len="-192"/>
                <note key="57" vol="100" pos="1008" pan="0" len="-192"/>
                <note key="57" vol="100" pos="1056" pan="0" len="-192"/>
                <note key="57" vol="100" pos="1104" pan="0" len="-192"/>
                <note key="57" vol="100" pos="1152" pan="0" len="-192"/>
                <note key="57" vol="100" pos="1200" pan="0" len="-192"/>
                <note key="57" vol="100" pos="1248" pan="0" len="-192"/>
                <note key="57" vol="100" pos="1296" pan="0" len="-192"/>
                <note key="57" vol="100" pos="1320" pan="0" len="-192"/>
                <note key="57" vol="100" pos="1332" pan="0" len="-192"/>
              </pattern>
              <pattern muted="0" pos="384" steps="64" name="kick.wav" type="0">
                <note key="57" vol="100" pos="0" pan="0" len="-192"/>
                <note key="57" vol="100" pos="384" pan="0" len="-192"/>
              </pattern>
              <pattern muted="0" pos="576" steps="64" name="kick.wav" type="0">
                <note key="57" vol="100" pos="0" pan="0" len="-192"/>
                <note key="57" vol="100" pos="384" pan="0" len="-192"/>
                <note key="57" vol="100" pos="456" pan="0" len="-192"/>
                <note key="57" vol="100" pos="528" pan="0" len="-192"/>
                <note key="57" vol="100" pos="576" pan="0" len="-192"/>
                <note key="57" vol="100" pos="600" pan="0" len="-192"/>
                <note key="57" vol="100" pos="612" pan="0" len="-192"/>
                <note key="57" vol="100" pos="624" pan="0" len="-192"/>
                <note key="57" vol="100" pos="636" pan="0" len="-192"/>
                <note key="57" vol="100" pos="648" pan="0" len="-192"/>
                <note key="57" vol="100" pos="660" pan="0" len="-192"/>
                <note key="57" vol="100" pos="672" pan="0" len="-192"/>
                <note key="57" vol="100" pos="684" pan="0" len="-192"/>
                <note key="57" vol="100" pos="696" pan="0" len="-192"/>
                <note key="57" vol="100" pos="708" pan="0" len="-192"/>
                <note key="57" vol="100" pos="720" pan="0" len="-192"/>
                <note key="57" vol="100" pos="732" pan="0" len="-192"/>
                <note key="57" vol="100" pos="744" pan="0" len="-192"/>
                <note key="57" vol="100" pos="756" pan="0" len="-192"/>
              </pattern>
              <pattern muted="0" pos="768" steps="16" name="kick.wav" type="0">
                <note key="57" vol="100" pos="0" pan="0" len="-192"/>
              </pattern>
              <pattern muted="0" pos="960" steps="64" name="kick.wav" type="0">
                <note key="57" vol="100" pos="0" pan="0" len="-192"/>
                <note key="57" vol="100" pos="12" pan="0" len="-192"/>
                <note key="57" vol="100" pos="24" pan="0" len="-192"/>
                <note key="57" vol="100" pos="36" pan="0" len="-192"/>
                <note key="57" vol="100" pos="48" pan="0" len="-192"/>
                <note key="57" vol="100" pos="60" pan="0" len="-192"/>
                <note key="57" vol="100" pos="72" pan="0" len="-192"/>
                <note key="57" vol="100" pos="84" pan="0" len="-192"/>
                <note key="57" vol="100" pos="96" pan="0" len="-192"/>
                <note key="57" vol="100" pos="108" pan="0" len="-192"/>
                <note key="57" vol="100" pos="120" pan="0" len="-192"/>
                <note key="57" vol="100" pos="132" pan="0" len="-192"/>
                <note key="57" vol="100" pos="144" pan="0" len="-192"/>
                <note key="57" vol="100" pos="156" pan="0" len="-192"/>
                <note key="57" vol="100" pos="168" pan="0" len="-192"/>
                <note key="57" vol="100" pos="180" pan="0" len="-192"/>
                <note key="57" vol="100" pos="192" pan="0" len="-192"/>
                <note key="57" vol="100" pos="204" pan="0" len="-192"/>
                <note key="57" vol="100" pos="216" pan="0" len="-192"/>
                <note key="57" vol="100" pos="228" pan="0" len="-192"/>
                <note key="57" vol="100" pos="240" pan="0" len="-192"/>
                <note key="57" vol="100" pos="252" pan="0" len="-192"/>
                <note key="57" vol="100" pos="264" pan="0" len="-192"/>
                <note key="57" vol="100" pos="276" pan="0" len="-192"/>
                <note key="57" vol="100" pos="288" pan="0" len="-192"/>
                <note key="57" vol="100" pos="300" pan="0" len="-192"/>
                <note key="57" vol="100" pos="312" pan="0" len="-192"/>
                <note key="57" vol="100" pos="324" pan="0" len="-192"/>
                <note key="57" vol="100" pos="336" pan="0" len="-192"/>
                <note key="57" vol="100" pos="348" pan="0" len="-192"/>
                <note key="57" vol="100" pos="360" pan="0" len="-192"/>
                <note key="57" vol="100" pos="372" pan="0" len="-192"/>
                <note key="57" vol="100" pos="384" pan="0" len="-192"/>
                <note key="57" vol="100" pos="396" pan="0" len="-192"/>
                <note key="57" vol="100" pos="408" pan="0" len="-192"/>
                <note key="57" vol="100" pos="420" pan="0" len="-192"/>
                <note key="57" vol="100" pos="432" pan="0" len="-192"/>
                <note key="57" vol="100" pos="444" pan="0" len="-192"/>
                <note key="57" vol="100" pos="456" pan="0" len="-192"/>
                <note key="57" vol="100" pos="468" pan="0" len="-192"/>
                <note key="57" vol="100" pos="480" pan="0" len="-192"/>
                <note key="57" vol="100" pos="492" pan="0" len="-192"/>
                <note key="57" vol="100" pos="504" pan="0" len="-192"/>
                <note key="57" vol="100" pos="516" pan="0" len="-192"/>
                <note key="57" vol="100" pos="528" pan="0" len="-192"/>
                <note key="57" vol="100" pos="540" pan="0" len="-192"/>
                <note key="57" vol="100" pos="552" pan="0" len="-192"/>
                <note key="57" vol="100" pos="564" pan="0" len="-192"/>
                <note key="57" vol="100" pos="576" pan="0" len="-192"/>
                <note key="57" vol="100" pos="588" pan="0" len="-192"/>
                <note key="57" vol="100" pos="600" pan="0" len="-192"/>
                <note key="57" vol="100" pos="612" pan="0" len="-192"/>
                <note key="57" vol="100" pos="624" pan="0" len="-192"/>
                <note key="57" vol="100" pos="636" pan="0" len="-192"/>
                <note key="57" vol="100" pos="648" pan="0" len="-192"/>
                <note key="57" vol="100" pos="660" pan="0" len="-192"/>
                <note key="57" vol="100" pos="672" pan="0" len="-192"/>
                <note key="57" vol="100" pos="684" pan="0" len="-192"/>
                <note key="57" vol="100" pos="696" pan="0" len="-192"/>
                <note key="57" vol="100" pos="708" pan="0" len="-192"/>
                <note key="57" vol="100" pos="720" pan="0" len="-192"/>
                <note key="57" vol="100" pos="732" pan="0" len="-192"/>
                <note key="57" vol="100" pos="744" pan="0" len="-192"/>
                <note key="57" vol="100" pos="756" pan="0" len="-192"/>
              </pattern>
              <pattern muted="0" pos="1152" steps="64" name="kick.wav" type="0">
                <note key="57" vol="100" pos="0" pan="0" len="-192"/>
                <note key="57" vol="100" pos="12" pan="0" len="-192"/>
                <note key="57" vol="100" pos="24" pan="0" len="-192"/>
                <note key="57" vol="100" pos="36" pan="0" len="-192"/>
                <note key="57" vol="100" pos="48" pan="0" len="-192"/>
                <note key="57" vol="100" pos="60" pan="0" len="-192"/>
                <note key="57" vol="100" pos="72" pan="0" len="-192"/>
                <note key="57" vol="100" pos="84" pan="0" len="-192"/>
                <note key="57" vol="100" pos="96" pan="0" len="-192"/>
                <note key="57" vol="100" pos="108" pan="0" len="-192"/>
                <note key="57" vol="100" pos="120" pan="0" len="-192"/>
                <note key="57" vol="100" pos="132" pan="0" len="-192"/>
                <note key="57" vol="100" pos="144" pan="0" len="-192"/>
                <note key="57" vol="100" pos="156" pan="0" len="-192"/>
                <note key="57" vol="100" pos="168" pan="0" len="-192"/>
                <note key="57" vol="100" pos="180" pan="0" len="-192"/>
                <note key="57" vol="100" pos="192" pan="0" len="-192"/>
                <note key="57" vol="100" pos="204" pan="0" len="-192"/>
                <note key="57" vol="100" pos="216" pan="0" len="-192"/>
                <note key="57" vol="100" pos="228" pan="0" len="-192"/>
                <note key="57" vol="100" pos="240" pan="0" len="-192"/>
                <note key="57" vol="100" pos="252" pan="0" len="-192"/>
                <note key="57" vol="100" pos="264" pan="0" len="-192"/>
                <note key="57" vol="100" pos="276" pan="0" len="-192"/>
                <note key="57" vol="100" pos="288" pan="0" len="-192"/>
                <note key="57" vol="100" pos="300" pan="0" len="-192"/>
                <note key="57" vol="100" pos="312" pan="0" len="-192"/>
                <note key="57" vol="100" pos="324" pan="0" len="-192"/>
                <note key="57" vol="100" pos="336" pan="0" len="-192"/>
                <note key="57" vol="100" pos="348" pan="0" len="-192"/>
                <note key="57" vol="100" pos="360" pan="0" len="-192"/>
                <note key="57" vol="100" pos="372" pan="0" len="-192"/>
                <note key="57" vol="100" pos="384" pan="0" len="-192"/>
                <note key="57" vol="100" pos="396" pan="0" len="-192"/>
                <note key="57" vol="100" pos="408" pan="0" len="-192"/>
                <note key="57" vol="100" pos="420" pan="0" len="-192"/>
                <note key="57" vol="100" pos="432" pan="0" len="-192"/>
                <note key="57" vol="100" pos="444" pan="0" len="-192"/>
                <note key="57" vol="100" pos="456" pan="0" len="-192"/>
                <note key="57" vol="100" pos="468" pan="0" len="-192"/>
                <note key="57" vol="100" pos="480" pan="0" len="-192"/>
                <note key="57" vol="100" pos="492" pan="0" len="-192"/>
                <note key="57" vol="100" pos="504" pan="0" len="-192"/>
                <note key="57" vol="100" pos="516" pan="0" len="-192"/>
                <note key="57" vol="100" pos="528" pan="0" len="-192"/>
                <note key="57" vol="100" pos="540" pan="0" len="-192"/>
                <note key="57" vol="100" pos="552" pan="0" len="-192"/>
                <note key="57" vol="100" pos="564" pan="0" len="-192"/>
                <note key="57" vol="100" pos="576" pan="0" len="-192"/>
                <note key="57" vol="100" pos="588" pan="0" len="-192"/>
                <note key="57" vol="100" pos="600" pan="0" len="-192"/>
                <note key="57" vol="100" pos="612" pan="0" len="-192"/>
                <note key="57" vol="100" pos="624" pan="0" len="-192"/>
                <note key="57" vol="100" pos="636" pan="0" len="-192"/>
                <note key="57" vol="100" pos="648" pan="0" len="-192"/>
                <note key="57" vol="100" pos="660" pan="0" len="-192"/>
                <note key="57" vol="100" pos="672" pan="0" len="-192"/>
                <note key="57" vol="100" pos="684" pan="0" len="-192"/>
                <note key="57" vol="100" pos="696" pan="0" len="-192"/>
                <note key="57" vol="100" pos="708" pan="0" len="-192"/>
                <note key="57" vol="100" pos="720" pan="0" len="-192"/>
                <note key="57" vol="100" pos="732" pan="0" len="-192"/>
                <note key="57" vol="100" pos="744" pan="0" len="-192"/>
                <note key="57" vol="100" pos="756" pan="0" len="-192"/>
              </pattern>
              <pattern muted="0" pos="1344" steps="16" name="kick.wav" type="0">
                <note key="57" vol="100" pos="0" pan="0" len="-192"/>
                <note key="57" vol="100" pos="48" pan="0" len="-192"/>
                <note key="57" vol="100" pos="96" pan="0" len="-192"/>
                <note key="57" vol="100" pos="144" pan="0" len="-192"/>
                <note key="57" vol="100" pos="156" pan="0" len="-192"/>
                <note key="57" vol="100" pos="168" pan="0" len="-192"/>
                <note key="57" vol="100" pos="180" pan="0" len="-192"/>
              </pattern>
              <pattern muted="0" pos="1536" steps="64" name="kick.wav" type="0">
                <note key="57" vol="100" pos="0" pan="0" len="-192"/>
                <note key="57" vol="100" pos="48" pan="0" len="-192"/>
                <note key="57" vol="100" pos="96" pan="0" len="-192"/>
                <note key="57" vol="100" pos="144" pan="0" len="-192"/>
                <note key="57" vol="100" pos="156" pan="0" len="-192"/>
                <note key="57" vol="100" pos="168" pan="0" len="-192"/>
                <note key="57" vol="100" pos="180" pan="0" len="-192"/>
                <note key="57" vol="100" pos="192" pan="0" len="-192"/>
                <note key="57" vol="100" pos="240" pan="0" len="-192"/>
                <note key="57" vol="100" pos="288" pan="0" len="-192"/>
                <note key="57" vol="100" pos="336" pan="0" len="-192"/>
                <note key="57" vol="100" pos="348" pan="0" len="-192"/>
                <note key="57" vol="100" pos="360" pan="0" len="-192"/>
                <note key="57" vol="100" pos="372" pan="0" len="-192"/>
                <note key="57" vol="100" pos="384" pan="0" len="-192"/>
                <note key="57" vol="100" pos="432" pan="0" len="-192"/>
                <note key="57" vol="100" pos="480" pan="0" len="-192"/>
                <note key="57" vol="100" pos="528" pan="0" len="-192"/>
                <note key="57" vol="100" pos="540" pan="0" len="-192"/>
                <note key="57" vol="100" pos="552" pan="0" len="-192"/>
                <note key="57" vol="100" pos="564" pan="0" len="-192"/>
                <note key="57" vol="100" pos="576" pan="0" len="-192"/>
                <note key="57" vol="100" pos="624" pan="0" len="-192"/>
                <note key="57" vol="100" pos="672" pan="0" len="-192"/>
                <note key="57" vol="100" pos="720" pan="0" len="-192"/>
                <note key="57" vol="100" pos="732" pan="0" len="-192"/>
                <note key="57" vol="100" pos="744" pan="0" len="-192"/>
                <note key="57" vol="100" pos="756" pan="0" len="-192"/>
              </pattern>
              <pattern muted="0" pos="1728" steps="64" name="kick.wav" type="0">
                <note key="57" vol="100" pos="0" pan="0" len="-192"/>
                <note key="57" vol="100" pos="48" pan="0" len="-192"/>
                <note key="57" vol="100" pos="96" pan="0" len="-192"/>
                <note key="57" vol="100" pos="144" pan="0" len="-192"/>
                <note key="57" vol="100" pos="156" pan="0" len="-192"/>
                <note key="57" vol="100" pos="168" pan="0" len="-192"/>
                <note key="57" vol="100" pos="180" pan="0" len="-192"/>
                <note key="57" vol="100" pos="192" pan="0" len="-192"/>
                <note key="57" vol="100" pos="240" pan="0" len="-192"/>
                <note key="57" vol="100" pos="288" pan="0" len="-192"/>
                <note key="57" vol="100" pos="336" pan="0" len="-192"/>
                <note key="57" vol="100" pos="348" pan="0" len="-192"/>
                <note key="57" vol="100" pos="360" pan="0" len="-192"/>
                <note key="57" vol="100" pos="372" pan="0" len="-192"/>
                <note key="57" vol="100" pos="384" pan="0" len="-192"/>
                <note key="57" vol="100" pos="432" pan="0" len="-192"/>
                <note key="57" vol="100" pos="480" pan="0" len="-192"/>
                <note key="57" vol="100" pos="528" pan="0" len="-192"/>
                <note key="57" vol="100" pos="540" pan="0" len="-192"/>
                <note key="57" vol="100" pos="552" pan="0" len="-192"/>
                <note key="57" vol="100" pos="564" pan="0" len="-192"/>
                <note key="57" vol="100" pos="576" pan="0" len="-192"/>
                <note key="57" vol="100" pos="648" pan="0" len="-192"/>
                <note key="57" vol="100" pos="720" pan="0" len="-192"/>
              </pattern>
              <pattern muted="0" pos="1920" steps="64" name="kick.wav" type="0">
                <note key="57" vol="100" pos="0" pan="0" len="-192"/>
                <note key="57" vol="100" pos="48" pan="0" len="-192"/>
                <note key="57" vol="100" pos="96" pan="0" len="-192"/>
                <note key="57" vol="100" pos="144" pan="0" len="-192"/>
                <note key="57" vol="100" pos="156" pan="0" len="-192"/>
                <note key="57" vol="100" pos="168" pan="0" len="-192"/>
                <note key="57" vol="100" pos="180" pan="0" len="-192"/>
                <note key="57" vol="100" pos="192" pan="0" len="-192"/>
                <note key="57" vol="100" pos="240" pan="0" len="-192"/>
                <note key="57" vol="100" pos="288" pan="0" len="-192"/>
                <note key="57" vol="100" pos="336" pan="0" len="-192"/>
                <note key="57" vol="100" pos="348" pan="0" len="-192"/>
                <note key="57" vol="100" pos="360" pan="0" len="-192"/>
                <note key="57" vol="100" pos="372" pan="0" len="-192"/>
                <note key="57" vol="100" pos="384" pan="0" len="-192"/>
                <note key="57" vol="100" pos="432" pan="0" len="-192"/>
                <note key="57" vol="100" pos="480" pan="0" len="-192"/>
                <note key="57" vol="100" pos="528" pan="0" len="-192"/>
                <note key="57" vol="100" pos="540" pan="0" len="-192"/>
                <note key="57" vol="100" pos="552" pan="0" len="-192"/>
                <note key="57" vol="100" pos="564" pan="0" len="-192"/>
                <note key="57" vol="100" pos="576" pan="0" len="-192"/>
                <note key="57" vol="100" pos="624" pan="0" len="-192"/>
                <note key="57" vol="100" pos="672" pan="0" len="-192"/>
                <note key="57" vol="100" pos="720" pan="0" len="-192"/>
                <note key="57" vol="100" pos="732" pan="0" len="-192"/>
                <note key="57" vol="100" pos="744" pan="0" len="-192"/>
                <note key="57" vol="100" pos="756" pan="0" len="-192"/>
              </pattern>
              <pattern muted="0" pos="2112" steps="32" name="kick.wav" type="0">
                <note key="57" vol="100" pos="0" pan="0" len="-192"/>
              </pattern>
              <pattern muted="0" pos="2304" steps="32" name="kick.wav" type="0">
                <note key="57" vol="100" pos="0" pan="0" len="-192"/>
                <note key="57" vol="100" pos="48" pan="0" len="-192"/>
                <note key="57" vol="100" pos="60" pan="0" len="-192"/>
                <note key="57" vol="100" pos="72" pan="0" len="-192"/>
                <note key="57" vol="100" pos="96" pan="0" len="-192"/>
                <note key="57" vol="100" pos="108" pan="0" len="-192"/>
                <note key="57" vol="100" pos="120" pan="0" len="-192"/>
                <note key="57" vol="100" pos="144" pan="0" len="-192"/>
                <note key="57" vol="100" pos="156" pan="0" len="-192"/>
                <note key="57" vol="100" pos="168" pan="0" len="-192"/>
                <note key="57" vol="100" pos="192" pan="0" len="-192"/>
                <note key="57" vol="100" pos="240" pan="0" len="-192"/>
                <note key="57" vol="100" pos="252" pan="0" len="-192"/>
                <note key="57" vol="100" pos="264" pan="0" len="-192"/>
                <note key="57" vol="100" pos="276" pan="0" len="-192"/>
                <note key="57" vol="100" pos="288" pan="0" len="-192"/>
                <note key="57" vol="100" pos="300" pan="0" len="-192"/>
                <note key="57" vol="100" pos="312" pan="0" len="-192"/>
                <note key="57" vol="100" pos="324" pan="0" len="-192"/>
                <note key="57" vol="100" pos="336" pan="0" len="-192"/>
                <note key="57" vol="100" pos="348" pan="0" len="-192"/>
                <note key="57" vol="100" pos="360" pan="0" len="-192"/>
                <note key="57" vol="100" pos="372" pan="0" len="-192"/>
              </pattern>
              <pattern muted="0" pos="2496" steps="32" name="kick.wav" type="0">
                <note key="57" vol="100" pos="0" pan="0" len="-192"/>
                <note key="57" vol="100" pos="12" pan="0" len="-192"/>
                <note key="57" vol="100" pos="24" pan="0" len="-192"/>
                <note key="57" vol="100" pos="36" pan="0" len="-192"/>
                <note key="57" vol="100" pos="48" pan="0" len="-192"/>
                <note key="57" vol="100" pos="60" pan="0" len="-192"/>
                <note key="57" vol="100" pos="72" pan="0" len="-192"/>
                <note key="57" vol="100" pos="84" pan="0" len="-192"/>
                <note key="57" vol="100" pos="96" pan="0" len="-192"/>
                <note key="57" vol="100" pos="108" pan="0" len="-192"/>
                <note key="57" vol="100" pos="120" pan="0" len="-192"/>
                <note key="57" vol="100" pos="132" pan="0" len="-192"/>
                <note key="57" vol="100" pos="144" pan="0" len="-192"/>
                <note key="57" vol="100" pos="156" pan="0" len="-192"/>
                <note key="57" vol="100" pos="168" pan="0" len="-192"/>
                <note key="57" vol="100" pos="180" pan="0" len="-192"/>
                <note key="57" vol="100" pos="192" pan="0" len="-192"/>
                <note key="57" vol="100" pos="204" pan="0" len="-192"/>
                <note key="57" vol="100" pos="216" pan="0" len="-192"/>
                <note key="57" vol="100" pos="228" pan="0" len="-192"/>
                <note key="57" vol="100" pos="240" pan="0" len="-192"/>
                <note key="57" vol="100" pos="252" pan="0" len="-192"/>
                <note key="57" vol="100" pos="264" pan="0" len="-192"/>
                <note key="57" vol="100" pos="276" pan="0" len="-192"/>
                <note key="57" vol="100" pos="288" pan="0" len="-192"/>
                <note key="57" vol="100" pos="300" pan="0" len="-192"/>
                <note key="57" vol="100" pos="312" pan="0" len="-192"/>
                <note key="57" vol="100" pos="324" pan="0" len="-192"/>
                <note key="57" vol="100" pos="336" pan="0" len="-192"/>
                <note key="57" vol="100" pos="348" pan="0" len="-192"/>
                <note key="57" vol="100" pos="360" pan="0" len="-192"/>
                <note key="57" vol="100" pos="372" pan="0" len="-192"/>
              </pattern>
              <pattern muted="0" pos="2688" steps="128" name="kick.wav" type="0">
                <note key="57" vol="100" pos="0" pan="0" len="-192"/>
                <note key="57" vol="100" pos="48" pan="0" len="-192"/>
                <note key="57" vol="100" pos="96" pan="0" len="-192"/>
                <note key="57" vol="100" pos="144" pan="0" len="-192"/>
                <note key="57" vol="100" pos="192" pan="0" len="-192"/>
                <note key="57" vol="100" pos="240" pan="0" len="-192"/>
                <note key="57" vol="100" pos="288" pan="0" len="-192"/>
                <note key="57" vol="100" pos="336" pan="0" len="-192"/>
                <note key="57" vol="100" pos="384" pan="0" len="-192"/>
                <note key="57" vol="100" pos="432" pan="0" len="-192"/>
                <note key="57" vol="100" pos="480" pan="0" len="-192"/>
                <note key="57" vol="100" pos="528" pan="0" len="-192"/>
                <note key="57" vol="100" pos="576" pan="0" len="-192"/>
                <note key="57" vol="100" pos="624" pan="0" len="-192"/>
                <note key="57" vol="100" pos="672" pan="0" len="-192"/>
                <note key="57" vol="100" pos="720" pan="0" len="-192"/>
                <note key="57" vol="100" pos="768" pan="0" len="-192"/>
                <note key="57" vol="100" pos="816" pan="0" len="-192"/>
                <note key="57" vol="100" pos="864" pan="0" len="-192"/>
                <note key="57" vol="100" pos="912" pan="0" len="-192"/>
                <note key="57" vol="100" pos="960" pan="0" len="-192"/>
                <note key="57" vol="100" pos="1008" pan="0" len="-192"/>
                <note key="57" vol="100" pos="1056" pan="0" len="-192"/>
                <note key="57" vol="100" pos="1104" pan="0" len="-192"/>
                <note key="57" vol="100" pos="1152" pan="0" len="-192"/>
                <note key="57" vol="100" pos="1200" pan="0" len="-192"/>
                <note key="57" vol="100" pos="1248" pan="0" len="-192"/>
                <note key="57" vol="100" pos="1296" pan="0" len="-192"/>
                <note key="57" vol="100" pos="1344" pan="0" len="-192"/>
                <note key="57" vol="100" pos="1392" pan="0" len="-192"/>
                <note key="57" vol="100" pos="1440" pan="0" len="-192"/>
              </pattern>
              <pattern muted="0" pos="2880" steps="64" name="kick.wav" type="0">
                <note key="57" vol="100" pos="0" pan="0" len="-192"/>
                <note key="57" vol="100" pos="24" pan="0" len="-192"/>
                <note key="57" vol="100" pos="48" pan="0" len="-192"/>
                <note key="57" vol="100" pos="72" pan="0" len="-192"/>
                <note key="57" vol="100" pos="96" pan="0" len="-192"/>
                <note key="57" vol="100" pos="120" pan="0" len="-192"/>
                <note key="57" vol="100" pos="144" pan="0" len="-192"/>
                <note key="57" vol="100" pos="168" pan="0" len="-192"/>
                <note key="57" vol="100" pos="192" pan="0" len="-192"/>
                <note key="57" vol="100" pos="216" pan="0" len="-192"/>
                <note key="57" vol="100" pos="240" pan="0" len="-192"/>
                <note key="57" vol="100" pos="264" pan="0" len="-192"/>
                <note key="57" vol="100" pos="288" pan="0" len="-192"/>
                <note key="57" vol="100" pos="312" pan="0" len="-192"/>
                <note key="57" vol="100" pos="336" pan="0" len="-192"/>
                <note key="57" vol="100" pos="360" pan="0" len="-192"/>
                <note key="57" vol="100" pos="384" pan="0" len="-192"/>
                <note key="57" vol="100" pos="408" pan="0" len="-192"/>
                <note key="57" vol="100" pos="432" pan="0" len="-192"/>
                <note key="57" vol="100" pos="456" pan="0" len="-192"/>
                <note key="57" vol="100" pos="480" pan="0" len="-192"/>
                <note key="57" vol="100" pos="504" pan="0" len="-192"/>
                <note key="57" vol="100" pos="528" pan="0" len="-192"/>
                <note key="57" vol="100" pos="552" pan="0" len="-192"/>
                <note key="57" vol="100" pos="576" pan="0" len="-192"/>
                <note key="57" vol="100" pos="600" pan="0" len="-192"/>
                <note key="57" vol="100" pos="624" pan="0" len="-192"/>
                <note key="57" vol="100" pos="648" pan="0" len="-192"/>
                <note key="57" vol="100" pos="672" pan="0" len="-192"/>
                <note key="57" vol="100" pos="696" pan="0" len="-192"/>
                <note key="57" vol="100" pos="720" pan="0" len="-192"/>
                <note key="57" vol="100" pos="744" pan="0" len="-192"/>
              </pattern>
              <pattern muted="0" pos="3072" steps="64" name="kick.wav" type="0">
                <note key="57" vol="100" pos="0" pan="0" len="-192"/>
                <note key="57" vol="100" pos="24" pan="0" len="-192"/>
                <note key="57" vol="100" pos="48" pan="0" len="-192"/>
                <note key="57" vol="100" pos="72" pan="0" len="-192"/>
                <note key="57" vol="100" pos="96" pan="0" len="-192"/>
                <note key="57" vol="100" pos="120" pan="0" len="-192"/>
                <note key="57" vol="100" pos="144" pan="0" len="-192"/>
                <note key="57" vol="100" pos="168" pan="0" len="-192"/>
                <note key="57" vol="100" pos="192" pan="0" len="-192"/>
                <note key="57" vol="100" pos="216" pan="0" len="-192"/>
                <note key="57" vol="100" pos="240" pan="0" len="-192"/>
                <note key="57" vol="100" pos="264" pan="0" len="-192"/>
                <note key="57" vol="100" pos="288" pan="0" len="-192"/>
                <note key="57" vol="100" pos="312" pan="0" len="-192"/>
                <note key="57" vol="100" pos="336" pan="0" len="-192"/>
                <note key="57" vol="100" pos="360" pan="0" len="-192"/>
                <note key="57" vol="100" pos="384" pan="0" len="-192"/>
                <note key="57" vol="100" pos="408" pan="0" len="-192"/>
                <note key="57" vol="100" pos="432" pan="0" len="-192"/>
                <note key="57" vol="100" pos="456" pan="0" len="-192"/>
                <note key="57" vol="100" pos="480" pan="0" len="-192"/>
                <note key="57" vol="100" pos="504" pan="0" len="-192"/>
                <note key="57" vol="100" pos="528" pan="0" len="-192"/>
                <note key="57" vol="100" pos="552" pan="0" len="-192"/>
                <note key="57" vol="100" pos="576" pan="0" len="-192"/>
                <note key="57" vol="100" pos="588" pan="0" len="-192"/>
                <note key="57" vol="100" pos="600" pan="0" len="-192"/>
                <note key="57" vol="100" pos="612" pan="0" len="-192"/>
                <note key="57" vol="100" pos="624" pan="0" len="-192"/>
                <note key="57" vol="100" pos="636" pan="0" len="-192"/>
                <note key="57" vol="100" pos="648" pan="0" len="-192"/>
                <note key="57" vol="100" pos="660" pan="0" len="-192"/>
                <note key="57" vol="100" pos="672" pan="0" len="-192"/>
                <note key="57" vol="100" pos="720" pan="0" len="-192"/>
              </pattern>
              <pattern muted="0" pos="3264" steps="16" name="kick.wav" type="0">
                <note key="57" vol="100" pos="0" pan="0" len="-192"/>
                <note key="57" vol="100" pos="12" pan="0" len="-192"/>
                <note key="57" vol="100" pos="24" pan="0" len="-192"/>
                <note key="57" vol="100" pos="36" pan="0" len="-192"/>
                <note key="57" vol="100" pos="48" pan="0" len="-192"/>
                <note key="57" vol="100" pos="60" pan="0" len="-192"/>
                <note key="57" vol="100" pos="72" pan="0" len="-192"/>
                <note key="57" vol="100" pos="84" pan="0" len="-192"/>
                <note key="57" vol="100" pos="96" pan="0" len="-192"/>
                <note key="57" vol="100" pos="108" pan="0" len="-192"/>
                <note key="57" vol="100" pos="120" pan="0" len="-192"/>
                <note key="57" vol="100" pos="132" pan="0" len="-192"/>
                <note key="57" vol="100" pos="144" pan="0" len="-192"/>
                <note key="57" vol="100" pos="156" pan="0" len="-192"/>
                <note key="57" vol="100" pos="168" pan="0" len="-192"/>
                <note key="57" vol="100" pos="180" pan="0" len="-192"/>
              </pattern>
              <pattern muted="0" pos="3456" steps="32" name="kick.wav" type="0">
                <note key="57" vol="100" pos="0" pan="0" len="-192"/>
                <note key="57" vol="100" pos="12" pan="0" len="-192"/>
                <note key="57" vol="100" pos="24" pan="0" len="-192"/>
                <note key="57" vol="100" pos="36" pan="0" len="-192"/>
                <note key="57" vol="100" pos="48" pan="0" len="-192"/>
                <note key="57" vol="100" pos="60" pan="0" len="-192"/>
                <note key="57" vol="100" pos="72" pan="0" len="-192"/>
                <note key="57" vol="100" pos="84" pan="0" len="-192"/>
                <note key="57" vol="100" pos="96" pan="0" len="-192"/>
                <note key="57" vol="100" pos="108" pan="0" len="-192"/>
                <note key="57" vol="100" pos="120" pan="0" len="-192"/>
                <note key="57" vol="100" pos="132" pan="0" len="-192"/>
                <note key="57" vol="100" pos="144" pan="0" len="-192"/>
                <note key="57" vol="100" pos="156" pan="0" len="-192"/>
                <note key="57" vol="100" pos="168" pan="0" len="-192"/>
                <note key="57" vol="100" pos="180" pan="0" len="-192"/>
                <note key="57" vol="100" pos="192" pan="0" len="-192"/>
                <note key="57" vol="100" pos="240" pan="0" len="-192"/>
                <note key="57" vol="100" pos="288" pan="0" len="-192"/>
                <note key="57" vol="100" pos="336" pan="0" len="-192"/>
                <note key="57" vol="100" pos="348" pan="0" len="-192"/>
                <note key="57" vol="100" pos="360" pan="0" len="-192"/>
                <note key="57" vol="100" pos="372" pan="0" len="-192"/>
              </pattern>
              <pattern muted="0" pos="3648" steps="16" name="kick.wav" type="0">
                <note key="57" vol="100" pos="0" pan="0" len="-192"/>
                <note key="57" vol="100" pos="12" pan="0" len="-192"/>
                <note key="57" vol="100" pos="24" pan="0" len="-192"/>
                <note key="57" vol="100" pos="36" pan="0" len="-192"/>
                <note key="57" vol="100" pos="48" pan="0" len="-192"/>
                <note key="57" vol="100" pos="60" pan="0" len="-192"/>
                <note key="57" vol="100" pos="72" pan="0" len="-192"/>
                <note key="57" vol="100" pos="84" pan="0" len="-192"/>
                <note key="57" vol="100" pos="96" pan="0" len="-192"/>
                <note key="57" vol="100" pos="108" pan="0" len="-192"/>
                <note key="57" vol="100" pos="120" pan="0" len="-192"/>
                <note key="57" vol="100" pos="132" pan="0" len="-192"/>
                <note key="57" vol="100" pos="144" pan="0" len="-192"/>
                <note key="57" vol="100" pos="156" pan="0" len="-192"/>
                <note key="57" vol="100" pos="168" pan="0" len="-192"/>
                <note key="57" vol="100" pos="180" pan="0" len="-192"/>
              </pattern>
            </track>
            <track muted="0" solo="0" name="hihat_opened02.ogg" type="0">
              <instrumenttrack fxch="2" usemasterpitch="1" vol="53.8" pitch="0" pitchrange="1" pan="-12" basenote="57">
                <instrument name="audiofileprocessor">
                  <audiofileprocessor stutter="0" reversed="0" lframe="0" interp="1" amp="100" src="drums/hihat_opened02.ogg" looped="0" sframe="0" eframe="1"/>
                </instrument>
                <eldata fres="0.5" fwet="0" fcut="14000" ftype="0">
                  <elvol pdel="0" latt="0" lshp="0" lspd_denominator="4" lamt="0" amt="1" sustain="0" lspd_syncmode="0" att="0" x100="0" lspd_numerator="4" lspd="0.1" ctlenvamt="0" dec="2" lpdel="0" hold="2" userwavefile="" rel="0"/>
                  <elcut pdel="0" latt="0" lshp="0" lspd_denominator="4" lamt="0" amt="0" sustain="0.5" lspd_syncmode="0" att="0" x100="0" lspd_numerator="4" lspd="0.1" ctlenvamt="0" dec="0.5" lpdel="0" hold="0.5" userwavefile="" rel="0.1"/>
                  <elres pdel="0" latt="0" lshp="0" lspd_denominator="4" lamt="0" amt="0" sustain="0.5" lspd_syncmode="0" att="0" x100="0" lspd_numerator="4" lspd="0.1" ctlenvamt="0" dec="0.5" lpdel="0" hold="0.5" userwavefile="" rel="0.1"/>
                </eldata>
                <chordcreator chordrange="1" chord="0" chord-enabled="0"/>
                <arpeggiator arptime="200" arpskip="0" arpgate="100" arptime_syncmode="0" arpmode="0" arprange="1" arp="0" arpcycle="0" arptime_denominator="4" arptime_numerator="4" arpdir="0" arp-enabled="0" arpmiss="0"/>
                <midiport outputchannel="1" inputcontroller="0" inputchannel="0" basevelocity="63" outputprogram="1" readable="0" outputcontroller="0" fixedinputvelocity="-1" fixedoutputnote="-1" writable="0" fixedoutputvelocity="-1"/>
                <fxchain numofeffects="0" enabled="0"/>
              </instrumenttrack>
              <pattern muted="0" pos="0" steps="128" name="hihat_opened02.ogg" type="0"/>
              <pattern muted="0" pos="192" steps="112" name="hihat_opened02.ogg" type="0"/>
              <pattern muted="0" pos="384" steps="64" name="hihat_opened02.ogg" type="0"/>
              <pattern muted="0" pos="576" steps="64" name="hihat_opened02.ogg" type="0"/>
              <pattern muted="0" pos="768" steps="16" name="hihat_opened02.ogg" type="0"/>
              <pattern muted="0" pos="960" steps="64" name="hihat_opened02.ogg" type="0">
                <note key="57" vol="100" pos="0" pan="0" len="-192"/>
                <note key="57" vol="100" pos="96" pan="0" len="-192"/>
                <note key="57" vol="100" pos="192" pan="0" len="-192"/>
                <note key="57" vol="100" pos="288" pan="0" len="-192"/>
                <note key="57" vol="100" pos="384" pan="0" len="-192"/>
                <note key="57" vol="100" pos="480" pan="0" len="-192"/>
                <note key="57" vol="100" pos="576" pan="0" len="-192"/>
                <note key="57" vol="100" pos="672" pan="0" len="-192"/>
              </pattern>
              <pattern muted="0" pos="1152" steps="64" name="hihat_opened02.ogg" type="0">
                <note key="57" vol="100" pos="0" pan="0" len="-192"/>
                <note key="57" vol="100" pos="48" pan="0" len="-192"/>
                <note key="57" vol="100" pos="96" pan="0" len="-192"/>
                <note key="57" vol="100" pos="144" pan="0" len="-192"/>
                <note key="57" vol="100" pos="192" pan="0" len="-192"/>
                <note key="57" vol="100" pos="240" pan="0" len="-192"/>
                <note key="57" vol="100" pos="288" pan="0" len="-192"/>
                <note key="57" vol="100" pos="336" pan="0" len="-192"/>
                <note key="57" vol="100" pos="384" pan="0" len="-192"/>
                <note key="57" vol="100" pos="432" pan="0" len="-192"/>
                <note key="57" vol="100" pos="480" pan="0" len="-192"/>
                <note key="57" vol="100" pos="528" pan="0" len="-192"/>
                <note key="57" vol="100" pos="576" pan="0" len="-192"/>
                <note key="57" vol="100" pos="624" pan="0" len="-192"/>
                <note key="57" vol="100" pos="672" pan="0" len="-192"/>
                <note key="57" vol="100" pos="720" pan="0" len="-192"/>
              </pattern>
              <pattern muted="0" pos="1344" steps="16" name="hihat_opened02.ogg" type="0"/>
              <pattern muted="0" pos="1536" steps="64" name="hihat_opened02.ogg" type="0">
                <note key="57" vol="100" pos="0" pan="0" len="-192"/>
                <note key="57" vol="100" pos="48" pan="0" len="-192"/>
                <note key="57" vol="100" pos="96" pan="0" len="-192"/>
                <note key="57" vol="100" pos="144" pan="0" len="-192"/>
                <note key="57" vol="100" pos="192" pan="0" len="-192"/>
                <note key="57" vol="100" pos="240" pan="0" len="-192"/>
                <note key="57" vol="100" pos="288" pan="0" len="-192"/>
                <note key="57" vol="100" pos="336" pan="0" len="-192"/>
                <note key="57" vol="100" pos="384" pan="0" len="-192"/>
                <note key="57" vol="100" pos="432" pan="0" len="-192"/>
                <note key="57" vol="100" pos="480" pan="0" len="-192"/>
                <note key="57" vol="100" pos="528" pan="0" len="-192"/>
                <note key="57" vol="100" pos="576" pan="0" len="-192"/>
                <note key="57" vol="100" pos="624" pan="0" len="-192"/>
                <note key="57" vol="100" pos="672" pan="0" len="-192"/>
                <note key="57" vol="100" pos="720" pan="0" len="-192"/>
              </pattern>
              <pattern muted="0" pos="1728" steps="64" name="hihat_opened02.ogg" type="0">
                <note key="57" vol="100" pos="0" pan="0" len="-192"/>
                <note key="57" vol="100" pos="48" pan="0" len="-192"/>
                <note key="57" vol="100" pos="96" pan="0" len="-192"/>
                <note key="57" vol="100" pos="144" pan="0" len="-192"/>
                <note key="57" vol="100" pos="192" pan="0" len="-192"/>
                <note key="57" vol="100" pos="240" pan="0" len="-192"/>
                <note key="57" vol="100" pos="288" pan="0" len="-192"/>
                <note key="57" vol="100" pos="336" pan="0" len="-192"/>
                <note key="57" vol="100" pos="384" pan="0" len="-192"/>
                <note key="57" vol="100" pos="432" pan="0" len="-192"/>
                <note key="57" vol="100" pos="480" pan="0" len="-192"/>
                <note key="57" vol="100" pos="528" pan="0" len="-192"/>
              </pattern>
              <pattern muted="0" pos="1920" steps="64" name="hihat_opened02.ogg" type="0">
                <note key="57" vol="100" pos="0" pan="0" len="-192"/>
                <note key="57" vol="100" pos="48" pan="0" len="-192"/>
                <note key="57" vol="100" pos="96" pan="0" len="-192"/>
                <note key="57" vol="100" pos="144" pan="0" len="-192"/>
                <note key="57" vol="100" pos="192" pan="0" len="-192"/>
                <note key="57" vol="100" pos="240" pan="0" len="-192"/>
                <note key="57" vol="100" pos="288" pan="0" len="-192"/>
                <note key="57" vol="100" pos="336" pan="0" len="-192"/>
                <note key="57" vol="100" pos="384" pan="0" len="-192"/>
                <note key="57" vol="100" pos="432" pan="0" len="-192"/>
                <note key="57" vol="100" pos="480" pan="0" len="-192"/>
                <note key="57" vol="100" pos="528" pan="0" len="-192"/>
                <note key="57" vol="100" pos="576" pan="0" len="-192"/>
                <note key="57" vol="100" pos="624" pan="0" len="-192"/>
                <note key="57" vol="100" pos="672" pan="0" len="-192"/>
                <note key="57" vol="100" pos="720" pan="0" len="-192"/>
              </pattern>
              <pattern muted="0" pos="2112" steps="32" name="hihat_opened02.ogg" type="0"/>
              <pattern muted="0" pos="2304" steps="32" name="hihat_opened02.ogg" type="0">
                <note key="57" vol="100" pos="48" pan="0" len="-192"/>
                <note key="57" vol="100" pos="96" pan="0" len="-192"/>
                <note key="57" vol="100" pos="144" pan="0" len="-192"/>
                <note key="57" vol="100" pos="240" pan="0" len="-192"/>
                <note key="57" vol="100" pos="288" pan="0" len="-192"/>
                <note key="57" vol="100" pos="336" pan="0" len="-192"/>
              </pattern>
              <pattern muted="0" pos="2496" steps="32" name="hihat_opened02.ogg" type="0">
                <note key="57" vol="100" pos="48" pan="0" len="-192"/>
                <note key="57" vol="100" pos="96" pan="0" len="-192"/>
                <note key="57" vol="100" pos="144" pan="0" len="-192"/>
              </pattern>
              <pattern muted="0" pos="2688" steps="128" name="hihat_opened02.ogg" type="0"/>
              <pattern muted="0" pos="2880" steps="64" name="hihat_opened02.ogg" type="0">
                <note key="57" vol="100" pos="0" pan="0" len="-192"/>
                <note key="57" vol="100" pos="96" pan="0" len="-192"/>
                <note key="57" vol="100" pos="192" pan="0" len="-192"/>
                <note key="57" vol="100" pos="288" pan="0" len="-192"/>
                <note key="57" vol="100" pos="384" pan="0" len="-192"/>
                <note key="57" vol="100" pos="480" pan="0" len="-192"/>
                <note key="57" vol="100" pos="576" pan="0" len="-192"/>
                <note key="57" vol="100" pos="672" pan="0" len="-192"/>
              </pattern>
              <pattern muted="0" pos="3072" steps="64" name="hihat_opened02.ogg" type="0">
                <note key="57" vol="100" pos="0" pan="0" len="-192"/>
                <note key="57" vol="100" pos="96" pan="0" len="-192"/>
                <note key="57" vol="100" pos="192" pan="0" len="-192"/>
                <note key="57" vol="100" pos="288" pan="0" len="-192"/>
                <note key="57" vol="100" pos="384" pan="0" len="-192"/>
                <note key="57" vol="100" pos="432" pan="0" len="-192"/>
                <note key="57" vol="100" pos="480" pan="0" len="-192"/>
                <note key="57" vol="100" pos="528" pan="0" len="-192"/>
                <note key="57" vol="100" pos="576" pan="0" len="-192"/>
                <note key="57" vol="100" pos="624" pan="0" len="-192"/>
              </pattern>
              <pattern muted="0" pos="3264" steps="16" name="hihat_opened02.ogg" type="0"/>
              <pattern muted="0" pos="3456" steps="32" name="hihat_opened02.ogg" type="0"/>
              <pattern muted="0" pos="3648" steps="16" name="hihat_opened02.ogg" type="0"/>
            </track>
            <track muted="0" solo="0" name="snare.wav" type="0">
              <instrumenttrack fxch="3" usemasterpitch="1" vol="200" pitch="0" pitchrange="1" pan="0" basenote="57">
                <instrument name="audiofileprocessor">
                  <audiofileprocessor stutter="0" reversed="0" lframe="0" interp="1" amp="100" src="/home/pass/samples/sillydrums/snare.wav" looped="0" sframe="0" eframe="1"/>
                </instrument>
                <eldata fres="0.5" fwet="0" fcut="14000" ftype="0">
                  <elvol pdel="0" latt="0" lshp="0" lspd_denominator="4" lamt="0" amt="1" sustain="1" lspd_syncmode="0" att="0" x100="0" lspd_numerator="4" lspd="0.1" ctlenvamt="0" dec="2" lpdel="0" hold="2" userwavefile="" rel="2"/>
                  <elcut pdel="0" latt="0" lshp="0" lspd_denominator="4" lamt="0" amt="0" sustain="0.5" lspd_syncmode="0" att="0" x100="0" lspd_numerator="4" lspd="0.1" ctlenvamt="0" dec="0.5" lpdel="0" hold="0.5" userwavefile="" rel="0.1"/>
                  <elres pdel="0" latt="0" lshp="0" lspd_denominator="4" lamt="0" amt="0" sustain="0.5" lspd_syncmode="0" att="0" x100="0" lspd_numerator="4" lspd="0.1" ctlenvamt="0" dec="0.5" lpdel="0" hold="0.5" userwavefile="" rel="0.1"/>
                </eldata>
                <chordcreator chordrange="1" chord="0" chord-enabled="0"/>
                <arpeggiator arptime="200" arpskip="0" arpgate="100" arptime_syncmode="0" arpmode="0" arprange="1" arp="0" arpcycle="0" arptime_denominator="4" arptime_numerator="4" arpdir="0" arp-enabled="0" arpmiss="0"/>
                <midiport outputchannel="1" inputcontroller="0" inputchannel="0" basevelocity="63" outputprogram="1" readable="0" outputcontroller="0" fixedinputvelocity="-1" fixedoutputnote="-1" writable="0" fixedoutputvelocity="-1"/>
                <fxchain numofeffects="0" enabled="0"/>
              </instrumenttrack>
              <pattern muted="0" pos="0" steps="128" name="snare.wav" type="0"/>
              <pattern muted="0" pos="192" steps="112" name="snare.wav" type="0"/>
              <pattern muted="0" pos="384" steps="64" name="snare.wav" type="0"/>
              <pattern muted="0" pos="576" steps="64" name="snare.wav" type="0">
                <note key="57" vol="100" pos="672" pan="0" len="-192"/>
                <note key="57" vol="100" pos="684" pan="0" len="-192"/>
                <note key="57" vol="100" pos="720" pan="0" len="-192"/>
                <note key="57" vol="100" pos="732" pan="0" len="-192"/>
              </pattern>
              <pattern muted="0" pos="768" steps="16" name="snare.wav" type="0"/>
              <pattern muted="0" pos="960" steps="64" name="snare.wav" type="0">
                <note key="57" vol="100" pos="48" pan="0" len="-192"/>
                <note key="57" vol="100" pos="144" pan="0" len="-192"/>
                <note key="57" vol="100" pos="240" pan="0" len="-192"/>
                <note key="57" vol="100" pos="336" pan="0" len="-192"/>
                <note key="57" vol="100" pos="432" pan="0" len="-192"/>
                <note key="57" vol="100" pos="528" pan="0" len="-192"/>
                <note key="57" vol="100" pos="624" pan="0" len="-192"/>
                <note key="57" vol="100" pos="720" pan="0" len="-192"/>
              </pattern>
              <pattern muted="0" pos="1152" steps="64" name="snare.wav" type="0">
                <note key="57" vol="100" pos="24" pan="0" len="-192"/>
                <note key="57" vol="100" pos="72" pan="0" len="-192"/>
                <note key="57" vol="100" pos="120" pan="0" len="-192"/>
                <note key="57" vol="100" pos="168" pan="0" len="-192"/>
                <note key="57" vol="100" pos="216" pan="0" len="-192"/>
                <note key="57" vol="100" pos="264" pan="0" len="-192"/>
                <note key="57" vol="100" pos="312" pan="0" len="-192"/>
                <note key="57" vol="100" pos="360" pan="0" len="-192"/>
                <note key="57" vol="100" pos="408" pan="0" len="-192"/>
                <note key="57" vol="100" pos="456" pan="0" len="-192"/>
                <note key="57" vol="100" pos="504" pan="0" len="-192"/>
                <note key="57" vol="100" pos="552" pan="0" len="-192"/>
                <note key="57" vol="100" pos="600" pan="0" len="-192"/>
                <note key="57" vol="100" pos="648" pan="0" len="-192"/>
                <note key="57" vol="100" pos="696" pan="0" len="-192"/>
                <note key="57" vol="100" pos="744" pan="0" len="-192"/>
              </pattern>
              <pattern muted="0" pos="1344" steps="16" name="snare.wav" type="0">
                <note key="57" vol="100" pos="144" pan="0" len="-192"/>
              </pattern>
              <pattern muted="0" pos="1536" steps="64" name="snare.wav" type="0">
                <note key="57" vol="100" pos="24" pan="0" len="-192"/>
                <note key="57" vol="100" pos="72" pan="0" len="-192"/>
                <note key="57" vol="100" pos="120" pan="0" len="-192"/>
                <note key="57" vol="100" pos="168" pan="0" len="-192"/>
                <note key="57" vol="100" pos="216" pan="0" len="-192"/>
                <note key="57" vol="100" pos="264" pan="0" len="-192"/>
                <note key="57" vol="100" pos="312" pan="0" len="-192"/>
                <note key="57" vol="100" pos="360" pan="0" len="-192"/>
                <note key="57" vol="100" pos="408" pan="0" len="-192"/>
                <note key="57" vol="100" pos="456" pan="0" len="-192"/>
                <note key="57" vol="100" pos="504" pan="0" len="-192"/>
                <note key="57" vol="100" pos="552" pan="0" len="-192"/>
                <note key="57" vol="100" pos="600" pan="0" len="-192"/>
                <note key="57" vol="100" pos="648" pan="0" len="-192"/>
                <note key="57" vol="100" pos="696" pan="0" len="-192"/>
                <note key="57" vol="100" pos="744" pan="0" len="-192"/>
              </pattern>
              <pattern muted="0" pos="1728" steps="64" name="snare.wav" type="0">
                <note key="57" vol="100" pos="24" pan="0" len="-192"/>
                <note key="57" vol="100" pos="72" pan="0" len="-192"/>
                <note key="57" vol="100" pos="120" pan="0" len="-192"/>
                <note key="57" vol="100" pos="168" pan="0" len="-192"/>
                <note key="57" vol="100" pos="216" pan="0" len="-192"/>
                <note key="57" vol="100" pos="264" pan="0" len="-192"/>
                <note key="57" vol="100" pos="312" pan="0" len="-192"/>
                <note key="57" vol="100" pos="360" pan="0" len="-192"/>
                <note key="57" vol="100" pos="408" pan="0" len="-192"/>
                <note key="57" vol="100" pos="456" pan="0" len="-192"/>
                <note key="57" vol="100" pos="504" pan="0" len="-192"/>
                <note key="57" vol="100" pos="552" pan="0" len="-192"/>
                <note key="57" vol="100" pos="576" pan="0" len="-192"/>
                <note key="57" vol="100" pos="648" pan="0" len="-192"/>
                <note key="57" vol="100" pos="720" pan="0" len="-192"/>
              </pattern>
              <pattern muted="0" pos="1920" steps="64" name="snare.wav" type="0">
                <note key="57" vol="100" pos="24" pan="0" len="-192"/>
                <note key="57" vol="100" pos="72" pan="0" len="-192"/>
                <note key="57" vol="100" pos="120" pan="0" len="-192"/>
                <note key="57" vol="100" pos="168" pan="0" len="-192"/>
                <note key="57" vol="100" pos="216" pan="0" len="-192"/>
                <note key="57" vol="100" pos="264" pan="0" len="-192"/>
                <note key="57" vol="100" pos="312" pan="0" len="-192"/>
                <note key="57" vol="100" pos="360" pan="0" len="-192"/>
                <note key="57" vol="100" pos="408" pan="0" len="-192"/>
                <note key="57" vol="100" pos="456" pan="0" len="-192"/>
                <note key="57" vol="100" pos="504" pan="0" len="-192"/>
                <note key="57" vol="100" pos="552" pan="0" len="-192"/>
                <note key="57" vol="100" pos="600" pan="0" len="-192"/>
                <note key="57" vol="100" pos="648" pan="0" len="-192"/>
                <note key="57" vol="100" pos="696" pan="0" len="-192"/>
                <note key="57" vol="100" pos="744" pan="0" len="-192"/>
              </pattern>
              <pattern muted="0" pos="2112" steps="32" name="snare.wav" type="0"/>
              <pattern muted="0" pos="2304" steps="32" name="snare.wav" type="0">
                <note key="57" vol="100" pos="0" pan="0" len="-192"/>
                <note key="57" vol="100" pos="48" pan="0" len="-192"/>
                <note key="57" vol="100" pos="96" pan="0" len="-192"/>
                <note key="57" vol="100" pos="144" pan="0" len="-192"/>
                <note key="57" vol="100" pos="192" pan="0" len="-192"/>
                <note key="57" vol="100" pos="240" pan="0" len="-192"/>
                <note key="57" vol="100" pos="288" pan="0" len="-192"/>
                <note key="57" vol="100" pos="336" pan="0" len="-192"/>
              </pattern>
              <pattern muted="0" pos="2496" steps="32" name="snare.wav" type="0">
                <note key="57" vol="100" pos="0" pan="0" len="-192"/>
                <note key="57" vol="100" pos="48" pan="0" len="-192"/>
                <note key="57" vol="100" pos="96" pan="0" len="-192"/>
                <note key="57" vol="100" pos="144" pan="0" len="-192"/>
                <note key="57" vol="100" pos="192" pan="0" len="-192"/>
                <note key="57" vol="100" pos="240" pan="0" len="-192"/>
                <note key="57" vol="100" pos="288" pan="0" len="-192"/>
                <note key="57" vol="100" pos="300" pan="0" len="-192"/>
                <note key="57" vol="100" pos="312" pan="0" len="-192"/>
                <note key="57" vol="100" pos="324" pan="0" len="-192"/>
                <note key="57" vol="100" pos="336" pan="0" len="-192"/>
                <note key="57" vol="100" pos="348" pan="0" len="-192"/>
                <note key="57" vol="100" pos="360" pan="0" len="-192"/>
                <note key="57" vol="100" pos="372" pan="0" len="-192"/>
              </pattern>
              <pattern muted="0" pos="2688" steps="128" name="snare.wav" type="0"/>
              <pattern muted="0" pos="2880" steps="64" name="snare.wav" type="0">
                <note key="57" vol="100" pos="48" pan="0" len="-192"/>
                <note key="57" vol="100" pos="144" pan="0" len="-192"/>
                <note key="57" vol="100" pos="240" pan="0" len="-192"/>
                <note key="57" vol="100" pos="336" pan="0" len="-192"/>
                <note key="57" vol="100" pos="432" pan="0" len="-192"/>
                <note key="57" vol="100" pos="528" pan="0" len="-192"/>
                <note key="57" vol="100" pos="624" pan="0" len="-192"/>
                <note key="57" vol="100" pos="720" pan="0" len="-192"/>
              </pattern>
              <pattern muted="0" pos="3072" steps="64" name="snare.wav" type="0">
                <note key="57" vol="100" pos="48" pan="0" len="-192"/>
                <note key="57" vol="100" pos="144" pan="0" len="-192"/>
                <note key="57" vol="100" pos="240" pan="0" len="-192"/>
                <note key="57" vol="100" pos="336" pan="0" len="-192"/>
                <note key="57" vol="100" pos="384" pan="0" len="-192"/>
                <note key="57" vol="100" pos="432" pan="0" len="-192"/>
                <note key="57" vol="100" pos="480" pan="0" len="-192"/>
                <note key="57" vol="100" pos="528" pan="0" len="-192"/>
                <note key="57" vol="100" pos="576" pan="0" len="-192"/>
                <note key="57" vol="100" pos="624" pan="0" len="-192"/>
              </pattern>
              <pattern muted="0" pos="3264" steps="16" name="snare.wav" type="0">
                <note key="57" vol="100" pos="0" pan="0" len="-192"/>
                <note key="57" vol="100" pos="12" pan="0" len="-192"/>
                <note key="57" vol="100" pos="72" pan="0" len="-192"/>
                <note key="57" vol="100" pos="84" pan="0" len="-192"/>
                <note key="57" vol="100" pos="144" pan="0" len="-192"/>
                <note key="57" vol="100" pos="156" pan="0" len="-192"/>
                <note key="57" vol="100" pos="168" pan="0" len="-192"/>
                <note key="57" vol="100" pos="180" pan="0" len="-192"/>
              </pattern>
              <pattern muted="0" pos="3456" steps="32" name="snare.wav" type="0">
                <note key="57" vol="100" pos="0" pan="0" len="-192"/>
                <note key="57" vol="100" pos="12" pan="0" len="-192"/>
                <note key="57" vol="100" pos="24" pan="0" len="-192"/>
                <note key="57" vol="100" pos="36" pan="0" len="-192"/>
                <note key="57" vol="100" pos="48" pan="0" len="-192"/>
                <note key="57" vol="100" pos="60" pan="0" len="-192"/>
                <note key="57" vol="100" pos="72" pan="0" len="-192"/>
                <note key="57" vol="100" pos="84" pan="0" len="-192"/>
                <note key="57" vol="100" pos="96" pan="0" len="-192"/>
                <note key="57" vol="100" pos="108" pan="0" len="-192"/>
                <note key="57" vol="100" pos="144" pan="0" len="-192"/>
                <note key="57" vol="100" pos="156" pan="0" len="-192"/>
                <note key="57" vol="100" pos="336" pan="0" len="-192"/>
              </pattern>
              <pattern muted="0" pos="3648" steps="16" name="snare.wav" type="0">
                <note key="57" vol="100" pos="0" pan="0" len="-192"/>
                <note key="57" vol="100" pos="12" pan="0" len="-192"/>
                <note key="57" vol="100" pos="24" pan="0" len="-192"/>
                <note key="57" vol="100" pos="36" pan="0" len="-192"/>
                <note key="57" vol="100" pos="96" pan="0" len="-192"/>
                <note key="57" vol="100" pos="108" pan="0" len="-192"/>
                <note key="57" vol="100" pos="144" pan="0" len="-192"/>
                <note key="57" vol="100" pos="156" pan="0" len="-192"/>
                <note key="57" vol="100" pos="168" pan="0" len="-192"/>
                <note key="57" vol="100" pos="180" pan="0" len="-192"/>
              </pattern>
            </track>
            <track muted="0" solo="0" name="crash1.wav" type="0">
              <instrumenttrack fxch="4" usemasterpitch="1" vol="71.2" pitch="0" pitchrange="1" pan="0" basenote="57">
                <instrument name="audiofileprocessor">
                  <audiofileprocessor stutter="0" reversed="0" lframe="0" interp="1" amp="100" src="/home/pass/samples/sillydrums/crash1.wav" looped="0" sframe="0" eframe="1"/>
                </instrument>
                <eldata fres="0.5" fwet="0" fcut="14000" ftype="0">
                  <elvol pdel="0" latt="0" lshp="0" lspd_denominator="4" lamt="0" amt="1" sustain="1" lspd_syncmode="0" att="0" x100="0" lspd_numerator="4" lspd="0.1" ctlenvamt="0" dec="2" lpdel="0" hold="2" userwavefile="" rel="2"/>
                  <elcut pdel="0" latt="0" lshp="0" lspd_denominator="4" lamt="0" amt="0" sustain="0.5" lspd_syncmode="0" att="0" x100="0" lspd_numerator="4" lspd="0.1" ctlenvamt="0" dec="0.5" lpdel="0" hold="0.5" userwavefile="" rel="0.1"/>
                  <elres pdel="0" latt="0" lshp="0" lspd_denominator="4" lamt="0" amt="0" sustain="0.5" lspd_syncmode="0" att="0" x100="0" lspd_numerator="4" lspd="0.1" ctlenvamt="0" dec="0.5" lpdel="0" hold="0.5" userwavefile="" rel="0.1"/>
                </eldata>
                <chordcreator chordrange="1" chord="0" chord-enabled="0"/>
                <arpeggiator arptime="200" arpskip="0" arpgate="100" arptime_syncmode="0" arpmode="0" arprange="1" arp="0" arpcycle="0" arptime_denominator="4" arptime_numerator="4" arpdir="0" arp-enabled="0" arpmiss="0"/>
                <midiport outputchannel="1" inputcontroller="0" inputchannel="0" basevelocity="63" outputprogram="1" readable="0" outputcontroller="0" fixedinputvelocity="-1" fixedoutputnote="-1" writable="0" fixedoutputvelocity="-1"/>
                <fxchain numofeffects="0" enabled="0"/>
              </instrumenttrack>
              <pattern muted="0" pos="0" steps="128" name="crash1.wav" type="0">
                <note key="57" vol="100" pos="0" pan="0" len="-192"/>
              </pattern>
              <pattern muted="0" pos="192" steps="112" name="crash1.wav" type="0">
                <note key="57" vol="100" pos="0" pan="0" len="-192"/>
              </pattern>
              <pattern muted="0" pos="384" steps="64" name="crash1.wav" type="0">
                <note key="57" vol="100" pos="0" pan="0" len="-192"/>
              </pattern>
              <pattern muted="0" pos="576" steps="64" name="crash1.wav" type="0">
                <note key="57" vol="100" pos="0" pan="0" len="-192"/>
                <note key="57" vol="100" pos="384" pan="0" len="-192"/>
                <note key="57" vol="100" pos="528" pan="0" len="-192"/>
                <note key="57" vol="100" pos="576" pan="0" len="-192"/>
              </pattern>
              <pattern muted="0" pos="768" steps="16" name="crash1.wav" type="0"/>
              <pattern muted="0" pos="960" steps="64" name="crash1.wav" type="0">
                <note key="57" vol="100" pos="0" pan="0" len="-192"/>
              </pattern>
              <pattern muted="0" pos="1152" steps="64" name="crash1.wav" type="0">
                <note key="57" vol="100" pos="0" pan="0" len="-192"/>
              </pattern>
              <pattern muted="0" pos="1344" steps="16" name="crash1.wav" type="0"/>
              <pattern muted="0" pos="1536" steps="64" name="crash1.wav" type="0">
                <note key="57" vol="100" pos="0" pan="0" len="-192"/>
              </pattern>
              <pattern muted="0" pos="1728" steps="64" name="crash1.wav" type="0">
                <note key="57" vol="100" pos="0" pan="0" len="-192"/>
                <note key="57" vol="100" pos="576" pan="0" len="-192"/>
                <note key="57" vol="100" pos="720" pan="0" len="-192"/>
              </pattern>
              <pattern muted="0" pos="1920" steps="64" name="crash1.wav" type="0">
                <note key="57" vol="100" pos="0" pan="0" len="-192"/>
              </pattern>
              <pattern muted="0" pos="2112" steps="32" name="crash1.wav" type="0"/>
              <pattern muted="0" pos="2304" steps="32" name="crash1.wav" type="0">
                <note key="57" vol="100" pos="0" pan="0" len="-192"/>
              </pattern>
              <pattern muted="0" pos="2496" steps="32" name="crash1.wav" type="0">
                <note key="57" vol="100" pos="0" pan="0" len="-192"/>
              </pattern>
              <pattern muted="0" pos="2688" steps="128" name="crash1.wav" type="0"/>
              <pattern muted="0" pos="2880" steps="64" name="crash1.wav" type="0">
                <note key="57" vol="100" pos="0" pan="0" len="-192"/>
                <note key="57" vol="100" pos="384" pan="0" len="-192"/>
              </pattern>
              <pattern muted="0" pos="3072" steps="64" name="crash1.wav" type="0">
                <note key="57" vol="100" pos="0" pan="0" len="-192"/>
                <note key="57" vol="100" pos="384" pan="0" len="-192"/>
                <note key="57" vol="100" pos="672" pan="0" len="-192"/>
              </pattern>
              <pattern muted="0" pos="3264" steps="16" name="crash1.wav" type="0"/>
              <pattern muted="0" pos="3456" steps="32" name="crash1.wav" type="0"/>
              <pattern muted="0" pos="3648" steps="16" name="crash1.wav" type="0"/>
            </track>
            <track muted="0" solo="0" name="crash1m" type="0">
              <instrumenttrack fxch="4" usemasterpitch="1" vol="71.2" pitch="0" pitchrange="1" pan="0" basenote="57">
                <instrument name="audiofileprocessor">
                  <audiofileprocessor stutter="0" reversed="0" lframe="0" interp="1" amp="100" src="/home/pass/samples/sillydrums/crash1.wav" looped="0" sframe="0" eframe="1"/>
                </instrument>
                <eldata fres="0.5" fwet="0" fcut="14000" ftype="0">
                  <elvol pdel="0" latt="0" lshp="0" lspd_denominator="4" lamt="0" amt="1" sustain="0" lspd_syncmode="0" att="0" x100="0" lspd_numerator="4" lspd="0.1" ctlenvamt="0" dec="0.216" lpdel="0" hold="0.232" userwavefile="" rel="0.208"/>
                  <elcut pdel="0" latt="0" lshp="0" lspd_denominator="4" lamt="0" amt="0" sustain="0.5" lspd_syncmode="0" att="0" x100="0" lspd_numerator="4" lspd="0.1" ctlenvamt="0" dec="0.5" lpdel="0" hold="0.5" userwavefile="" rel="0.1"/>
                  <elres pdel="0" latt="0" lshp="0" lspd_denominator="4" lamt="0" amt="0" sustain="0.5" lspd_syncmode="0" att="0" x100="0" lspd_numerator="4" lspd="0.1" ctlenvamt="0" dec="0.5" lpdel="0" hold="0.5" userwavefile="" rel="0.1"/>
                </eldata>
                <chordcreator chordrange="1" chord="0" chord-enabled="0"/>
                <arpeggiator arptime="200" arpskip="0" arpgate="100" arptime_syncmode="0" arpmode="0" arprange="1" arp="0" arpcycle="0" arptime_denominator="4" arptime_numerator="4" arpdir="0" arp-enabled="0" arpmiss="0"/>
                <midiport outputchannel="1" inputcontroller="0" inputchannel="0" basevelocity="63" outputprogram="1" readable="0" outputcontroller="0" fixedinputvelocity="-1" fixedoutputnote="-1" writable="0" fixedoutputvelocity="-1"/>
                <fxchain numofeffects="0" enabled="0"/>
              </instrumenttrack>
              <pattern muted="0" pos="0" steps="128" name="crash1m" type="0"/>
              <pattern muted="0" pos="192" steps="112" name="crash1m" type="0"/>
              <pattern muted="0" pos="384" steps="64" name="crash1m" type="0"/>
              <pattern muted="0" pos="576" steps="64" name="crash1m" type="0"/>
              <pattern muted="0" pos="768" steps="16" name="crash1m" type="0">
                <note key="57" vol="100" pos="0" pan="0" len="-192"/>
              </pattern>
              <pattern muted="0" pos="960" steps="64" name="crash1m" type="0"/>
              <pattern muted="0" pos="1152" steps="64" name="crash1m" type="0"/>
              <pattern muted="0" pos="1344" steps="16" name="crash1m" type="0">
                <note key="57" vol="100" pos="0" pan="0" len="-192"/>
                <note key="57" vol="100" pos="48" pan="0" len="-192"/>
                <note key="57" vol="100" pos="96" pan="0" len="-192"/>
              </pattern>
              <pattern muted="0" pos="1536" steps="64" name="crash1m" type="0"/>
              <pattern muted="0" pos="1728" steps="64" name="crash1m" type="0"/>
              <pattern muted="0" pos="1920" steps="64" name="crash1m" type="0"/>
              <pattern muted="0" pos="2112" steps="32" name="crash1m" type="0">
                <note key="57" vol="100" pos="0" pan="0" len="-192"/>
              </pattern>
              <pattern muted="0" pos="2304" steps="32" name="crash1m" type="0"/>
              <pattern muted="0" pos="2496" steps="32" name="crash1m" type="0"/>
              <pattern muted="0" pos="2688" steps="128" name="crash1m" type="0">
                <note key="57" vol="100" pos="0" pan="0" len="-192"/>
                <note key="57" vol="100" pos="48" pan="0" len="-192"/>
                <note key="57" vol="100" pos="96" pan="0" len="-192"/>
                <note key="57" vol="100" pos="144" pan="0" len="-192"/>
                <note key="57" vol="100" pos="192" pan="0" len="-192"/>
                <note key="57" vol="100" pos="240" pan="0" len="-192"/>
                <note key="57" vol="100" pos="288" pan="0" len="-192"/>
                <note key="57" vol="100" pos="336" pan="0" len="-192"/>
                <note key="57" vol="100" pos="384" pan="0" len="-192"/>
                <note key="57" vol="100" pos="432" pan="0" len="-192"/>
                <note key="57" vol="100" pos="480" pan="0" len="-192"/>
                <note key="57" vol="100" pos="528" pan="0" len="-192"/>
                <note key="57" vol="100" pos="576" pan="0" len="-192"/>
                <note key="57" vol="100" pos="624" pan="0" len="-192"/>
                <note key="57" vol="100" pos="768" pan="0" len="-192"/>
                <note key="57" vol="100" pos="816" pan="0" len="-192"/>
                <note key="57" vol="100" pos="864" pan="0" len="-192"/>
                <note key="57" vol="100" pos="912" pan="0" len="-192"/>
                <note key="57" vol="100" pos="960" pan="0" len="-192"/>
                <note key="57" vol="100" pos="1008" pan="0" len="-192"/>
                <note key="57" vol="100" pos="1056" pan="0" len="-192"/>
                <note key="57" vol="100" pos="1104" pan="0" len="-192"/>
                <note key="57" vol="100" pos="1152" pan="0" len="-192"/>
                <note key="57" vol="100" pos="1200" pan="0" len="-192"/>
                <note key="57" vol="100" pos="1248" pan="0" len="-192"/>
                <note key="57" vol="100" pos="1296" pan="0" len="-192"/>
                <note key="57" vol="100" pos="1344" pan="0" len="-192"/>
                <note key="57" vol="100" pos="1392" pan="0" len="-192"/>
                <note key="57" vol="100" pos="1440" pan="0" len="-192"/>
              </pattern>
              <pattern muted="0" pos="2880" steps="64" name="crash1m" type="0"/>
              <pattern muted="0" pos="3072" steps="64" name="crash1m" type="0"/>
              <pattern muted="0" pos="3264" steps="16" name="crash1m" type="0"/>
              <pattern muted="0" pos="3456" steps="32" name="crash1m" type="0">
                <note key="57" vol="100" pos="192" pan="0" len="-192"/>
                <note key="57" vol="100" pos="240" pan="0" len="-192"/>
                <note key="57" vol="100" pos="288" pan="0" len="-192"/>
              </pattern>
              <pattern muted="0" pos="3648" steps="16" name="crash1m" type="0"/>
            </track>
            <track muted="0" solo="0" name="crash2.wav" type="0">
              <instrumenttrack fxch="5" usemasterpitch="1" vol="76.8" pitch="0" pitchrange="1" pan="28" basenote="57">
                <instrument name="audiofileprocessor">
                  <audiofileprocessor stutter="0" reversed="0" lframe="0" interp="1" amp="100" src="/home/pass/samples/sillydrums/crash2.wav" looped="0" sframe="0" eframe="1"/>
                </instrument>
                <eldata fres="0.5" fwet="0" fcut="14000" ftype="0">
                  <elvol pdel="0" latt="0" lshp="0" lspd_denominator="4" lamt="0" amt="1" sustain="1" lspd_syncmode="0" att="0" x100="0" lspd_numerator="4" lspd="0.1" ctlenvamt="0" dec="2" lpdel="0" hold="2" userwavefile="" rel="2"/>
                  <elcut pdel="0" latt="0" lshp="0" lspd_denominator="4" lamt="0" amt="0" sustain="0.5" lspd_syncmode="0" att="0" x100="0" lspd_numerator="4" lspd="0.1" ctlenvamt="0" dec="0.5" lpdel="0" hold="0.5" userwavefile="" rel="0.1"/>
                  <elres pdel="0" latt="0" lshp="0" lspd_denominator="4" lamt="0" amt="0" sustain="0.5" lspd_syncmode="0" att="0" x100="0" lspd_numerator="4" lspd="0.1" ctlenvamt="0" dec="0.5" lpdel="0" hold="0.5" userwavefile="" rel="0.1"/>
                </eldata>
                <chordcreator chordrange="1" chord="0" chord-enabled="0"/>
                <arpeggiator arptime="200" arpskip="0" arpgate="100" arptime_syncmode="0" arpmode="0" arprange="1" arp="0" arpcycle="0" arptime_denominator="4" arptime_numerator="4" arpdir="0" arp-enabled="0" arpmiss="0"/>
                <midiport outputchannel="1" inputcontroller="0" inputchannel="0" basevelocity="63" outputprogram="1" readable="0" outputcontroller="0" fixedinputvelocity="-1" fixedoutputnote="-1" writable="0" fixedoutputvelocity="-1"/>
                <fxchain numofeffects="0" enabled="0"/>
              </instrumenttrack>
              <pattern muted="0" pos="0" steps="128" name="crash2.wav" type="0">
                <note key="57" vol="100" pos="768" pan="0" len="-192"/>
              </pattern>
              <pattern muted="0" pos="192" steps="112" name="crash2.wav" type="0">
                <note key="57" vol="100" pos="768" pan="0" len="-192"/>
              </pattern>
              <pattern muted="0" pos="384" steps="64" name="crash2.wav" type="0">
                <note key="57" vol="100" pos="384" pan="0" len="-192"/>
              </pattern>
              <pattern muted="0" pos="576" steps="64" name="crash2.wav" type="0">
                <note key="57" vol="100" pos="456" pan="0" len="-192"/>
              </pattern>
              <pattern muted="0" pos="768" steps="16" name="crash2.wav" type="0"/>
              <pattern muted="0" pos="960" steps="64" name="crash2.wav" type="0">
                <note key="57" vol="100" pos="384" pan="0" len="-192"/>
              </pattern>
              <pattern muted="0" pos="1152" steps="64" name="crash2.wav" type="0">
                <note key="57" vol="100" pos="384" pan="0" len="-192"/>
              </pattern>
              <pattern muted="0" pos="1344" steps="16" name="crash2.wav" type="0"/>
              <pattern muted="0" pos="1536" steps="64" name="crash2.wav" type="0">
                <note key="57" vol="100" pos="384" pan="0" len="-192"/>
              </pattern>
              <pattern muted="0" pos="1728" steps="64" name="crash2.wav" type="0">
                <note key="57" vol="100" pos="384" pan="0" len="-192"/>
                <note key="57" vol="100" pos="648" pan="0" len="-192"/>
              </pattern>
              <pattern muted="0" pos="1920" steps="64" name="crash2.wav" type="0">
                <note key="57" vol="100" pos="384" pan="0" len="-192"/>
              </pattern>
              <pattern muted="0" pos="2112" steps="32" name="crash2.wav" type="0"/>
              <pattern muted="0" pos="2304" steps="32" name="crash2.wav" type="0">
                <note key="57" vol="100" pos="192" pan="0" len="-192"/>
              </pattern>
              <pattern muted="0" pos="2496" steps="32" name="crash2.wav" type="0"/>
              <pattern muted="0" pos="2688" steps="128" name="crash2.wav" type="0"/>
              <pattern muted="0" pos="2880" steps="64" name="crash2.wav" type="0">
                <note key="57" vol="100" pos="552" pan="0" len="-192"/>
              </pattern>
              <pattern muted="0" pos="3072" steps="64" name="crash2.wav" type="0">
                <note key="57" vol="100" pos="552" pan="0" len="-192"/>
                <note key="57" vol="100" pos="720" pan="0" len="-192"/>
              </pattern>
              <pattern muted="0" pos="3264" steps="16" name="crash2.wav" type="0"/>
              <pattern muted="0" pos="3456" steps="32" name="crash2.wav" type="0"/>
              <pattern muted="0" pos="3648" steps="16" name="crash2.wav" type="0"/>
            </track>
            <track muted="0" solo="0" name="china.wav" type="0">
              <instrumenttrack fxch="6" usemasterpitch="1" vol="130.4" pitch="0" pitchrange="1" pan="0" basenote="57">
                <instrument name="audiofileprocessor">
                  <audiofileprocessor stutter="0" reversed="0" lframe="0" interp="1" amp="100" src="/home/pass/samples/sillydrums/china.wav" looped="0" sframe="0" eframe="1"/>
                </instrument>
                <eldata fres="0.5" fwet="0" fcut="14000" ftype="0">
                  <elvol pdel="0" latt="0" lshp="0" lspd_denominator="4" lamt="0" amt="1" sustain="1" lspd_syncmode="0" att="0" x100="0" lspd_numerator="4" lspd="0.1" ctlenvamt="0" dec="2" lpdel="0" hold="2" userwavefile="" rel="2"/>
                  <elcut pdel="0" latt="0" lshp="0" lspd_denominator="4" lamt="0" amt="0" sustain="0.5" lspd_syncmode="0" att="0" x100="0" lspd_numerator="4" lspd="0.1" ctlenvamt="0" dec="0.5" lpdel="0" hold="0.5" userwavefile="" rel="0.1"/>
                  <elres pdel="0" latt="0" lshp="0" lspd_denominator="4" lamt="0" amt="0" sustain="0.5" lspd_syncmode="0" att="0" x100="0" lspd_numerator="4" lspd="0.1" ctlenvamt="0" dec="0.5" lpdel="0" hold="0.5" userwavefile="" rel="0.1"/>
                </eldata>
                <chordcreator chordrange="1" chord="0" chord-enabled="0"/>
                <arpeggiator arptime="200" arpskip="0" arpgate="100" arptime_syncmode="0" arpmode="0" arprange="1" arp="0" arpcycle="0" arptime_denominator="4" arptime_numerator="4" arpdir="0" arp-enabled="0" arpmiss="0"/>
                <midiport outputchannel="1" inputcontroller="0" inputchannel="0" basevelocity="63" outputprogram="1" readable="0" outputcontroller="0" fixedinputvelocity="-1" fixedoutputnote="-1" writable="0" fixedoutputvelocity="-1"/>
                <fxchain numofeffects="0" enabled="0"/>
              </instrumenttrack>
              <pattern muted="0" pos="0" steps="128" name="china.wav" type="0"/>
              <pattern muted="0" pos="192" steps="112" name="china.wav" type="0"/>
              <pattern muted="0" pos="384" steps="64" name="china.wav" type="0"/>
              <pattern muted="0" pos="576" steps="64" name="china.wav" type="0"/>
              <pattern muted="0" pos="768" steps="16" name="china.wav" type="0"/>
              <pattern muted="0" pos="960" steps="64" name="china.wav" type="0"/>
              <pattern muted="0" pos="1152" steps="64" name="china.wav" type="0"/>
              <pattern muted="0" pos="1344" steps="16" name="china.wav" type="0"/>
              <pattern muted="0" pos="1536" steps="64" name="china.wav" type="0"/>
              <pattern muted="0" pos="1728" steps="64" name="china.wav" type="0"/>
              <pattern muted="0" pos="1920" steps="64" name="china.wav" type="0"/>
              <pattern muted="0" pos="2112" steps="32" name="china.wav" type="0"/>
              <pattern muted="0" pos="2304" steps="32" name="china.wav" type="0"/>
              <pattern muted="0" pos="2496" steps="32" name="china.wav" type="0"/>
              <pattern muted="0" pos="2688" steps="128" name="china.wav" type="0">
                <note key="57" vol="100" pos="672" pan="0" len="-192"/>
                <note key="57" vol="100" pos="720" pan="0" len="-192"/>
              </pattern>
              <pattern muted="0" pos="2880" steps="64" name="china.wav" type="0"/>
              <pattern muted="0" pos="3072" steps="64" name="china.wav" type="0"/>
              <pattern muted="0" pos="3264" steps="16" name="china.wav" type="0"/>
              <pattern muted="0" pos="3456" steps="32" name="china.wav" type="0"/>
              <pattern muted="0" pos="3648" steps="16" name="china.wav" type="0"/>
            </track>
            <track muted="0" solo="0" name="hiTom.wav" type="0">
              <instrumenttrack fxch="7" usemasterpitch="1" vol="130.4" pitch="0" pitchrange="1" pan="0" basenote="57">
                <instrument name="audiofileprocessor">
                  <audiofileprocessor stutter="0" reversed="0" lframe="0" interp="1" amp="100" src="/home/pass/samples/sillydrums/hiTom.wav" looped="0" sframe="0" eframe="1"/>
                </instrument>
                <eldata fres="0.5" fwet="0" fcut="14000" ftype="0">
                  <elvol pdel="0" latt="0" lshp="0" lspd_denominator="4" lamt="0" amt="1" sustain="1" lspd_syncmode="0" att="0" x100="0" lspd_numerator="4" lspd="0.1" ctlenvamt="0" dec="2" lpdel="0" hold="2" userwavefile="" rel="2"/>
                  <elcut pdel="0" latt="0" lshp="0" lspd_denominator="4" lamt="0" amt="0" sustain="0.5" lspd_syncmode="0" att="0" x100="0" lspd_numerator="4" lspd="0.1" ctlenvamt="0" dec="0.5" lpdel="0" hold="0.5" userwavefile="" rel="0.1"/>
                  <elres pdel="0" latt="0" lshp="0" lspd_denominator="4" lamt="0" amt="0" sustain="0.5" lspd_syncmode="0" att="0" x100="0" lspd_numerator="4" lspd="0.1" ctlenvamt="0" dec="0.5" lpdel="0" hold="0.5" userwavefile="" rel="0.1"/>
                </eldata>
                <chordcreator chordrange="1" chord="0" chord-enabled="0"/>
                <arpeggiator arptime="200" arpskip="0" arpgate="100" arptime_syncmode="0" arpmode="0" arprange="1" arp="0" arpcycle="0" arptime_denominator="4" arptime_numerator="4" arpdir="0" arp-enabled="0" arpmiss="0"/>
                <midiport outputchannel="1" inputcontroller="0" inputchannel="0" basevelocity="63" outputprogram="1" readable="0" outputcontroller="0" fixedinputvelocity="-1" fixedoutputnote="-1" writable="0" fixedoutputvelocity="-1"/>
                <fxchain numofeffects="0" enabled="0"/>
              </instrumenttrack>
              <pattern muted="0" pos="0" steps="128" name="hiTom.wav" type="0"/>
              <pattern muted="0" pos="192" steps="112" name="hiTom.wav" type="0"/>
              <pattern muted="0" pos="384" steps="64" name="hiTom.wav" type="0"/>
              <pattern muted="0" pos="576" steps="64" name="hiTom.wav" type="0">
                <note key="57" vol="100" pos="600" pan="0" len="-192"/>
                <note key="57" vol="100" pos="612" pan="0" len="-192"/>
              </pattern>
              <pattern muted="0" pos="768" steps="16" name="hiTom.wav" type="0"/>
              <pattern muted="0" pos="960" steps="64" name="hiTom.wav" type="0"/>
              <pattern muted="0" pos="1152" steps="64" name="hiTom.wav" type="0"/>
              <pattern muted="0" pos="1344" steps="16" name="hiTom.wav" type="0"/>
              <pattern muted="0" pos="1536" steps="64" name="hiTom.wav" type="0"/>
              <pattern muted="0" pos="1728" steps="64" name="hiTom.wav" type="0"/>
              <pattern muted="0" pos="1920" steps="64" name="hiTom.wav" type="0"/>
              <pattern muted="0" pos="2112" steps="32" name="hiTom.wav" type="0"/>
              <pattern muted="0" pos="2304" steps="32" name="hiTom.wav" type="0"/>
              <pattern muted="0" pos="2496" steps="32" name="hiTom.wav" type="0">
                <note key="57" vol="100" pos="204" pan="0" len="-192"/>
                <note key="57" vol="100" pos="252" pan="0" len="-192"/>
              </pattern>
              <pattern muted="0" pos="2688" steps="128" name="hiTom.wav" type="0"/>
              <pattern muted="0" pos="2880" steps="64" name="hiTom.wav" type="0"/>
              <pattern muted="0" pos="3072" steps="64" name="hiTom.wav" type="0"/>
              <pattern muted="0" pos="3264" steps="16" name="hiTom.wav" type="0">
                <note key="57" vol="100" pos="24" pan="0" len="-192"/>
                <note key="57" vol="100" pos="36" pan="0" len="-192"/>
              </pattern>
              <pattern muted="0" pos="3456" steps="32" name="hiTom.wav" type="0">
                <note key="57" vol="100" pos="120" pan="0" len="-192"/>
                <note key="57" vol="100" pos="132" pan="0" len="-192"/>
              </pattern>
              <pattern muted="0" pos="3648" steps="16" name="hiTom.wav" type="0">
                <note key="57" vol="100" pos="48" pan="0" len="-192"/>
                <note key="57" vol="100" pos="60" pan="0" len="-192"/>
              </pattern>
            </track>
            <track muted="0" solo="0" name="midTom.wav" type="0">
              <instrumenttrack fxch="8" usemasterpitch="1" vol="130.4" pitch="0" pitchrange="1" pan="0" basenote="57">
                <instrument name="audiofileprocessor">
                  <audiofileprocessor stutter="0" reversed="0" lframe="0" interp="1" amp="100" src="/home/pass/samples/sillydrums/midTom.wav" looped="0" sframe="0" eframe="1"/>
                </instrument>
                <eldata fres="0.5" fwet="0" fcut="14000" ftype="0">
                  <elvol pdel="0" latt="0" lshp="0" lspd_denominator="4" lamt="0" amt="1" sustain="1" lspd_syncmode="0" att="0" x100="0" lspd_numerator="4" lspd="0.1" ctlenvamt="0" dec="2" lpdel="0" hold="2" userwavefile="" rel="2"/>
                  <elcut pdel="0" latt="0" lshp="0" lspd_denominator="4" lamt="0" amt="0" sustain="0.5" lspd_syncmode="0" att="0" x100="0" lspd_numerator="4" lspd="0.1" ctlenvamt="0" dec="0.5" lpdel="0" hold="0.5" userwavefile="" rel="0.1"/>
                  <elres pdel="0" latt="0" lshp="0" lspd_denominator="4" lamt="0" amt="0" sustain="0.5" lspd_syncmode="0" att="0" x100="0" lspd_numerator="4" lspd="0.1" ctlenvamt="0" dec="0.5" lpdel="0" hold="0.5" userwavefile="" rel="0.1"/>
                </eldata>
                <chordcreator chordrange="1" chord="0" chord-enabled="0"/>
                <arpeggiator arptime="200" arpskip="0" arpgate="100" arptime_syncmode="0" arpmode="0" arprange="1" arp="0" arpcycle="0" arptime_denominator="4" arptime_numerator="4" arpdir="0" arp-enabled="0" arpmiss="0"/>
                <midiport outputchannel="1" inputcontroller="0" inputchannel="0" basevelocity="63" outputprogram="1" readable="0" outputcontroller="0" fixedinputvelocity="-1" fixedoutputnote="-1" writable="0" fixedoutputvelocity="-1"/>
                <fxchain numofeffects="0" enabled="0"/>
              </instrumenttrack>
              <pattern muted="0" pos="0" steps="128" name="midTom.wav" type="0"/>
              <pattern muted="0" pos="192" steps="112" name="midTom.wav" type="0"/>
              <pattern muted="0" pos="384" steps="64" name="midTom.wav" type="0"/>
              <pattern muted="0" pos="576" steps="64" name="midTom.wav" type="0">
                <note key="57" vol="100" pos="624" pan="0" len="-192"/>
                <note key="57" vol="100" pos="636" pan="0" len="-192"/>
                <note key="57" vol="100" pos="696" pan="0" len="-192"/>
                <note key="57" vol="100" pos="708" pan="0" len="-192"/>
              </pattern>
              <pattern muted="0" pos="768" steps="16" name="midTom.wav" type="0"/>
              <pattern muted="0" pos="960" steps="64" name="midTom.wav" type="0"/>
              <pattern muted="0" pos="1152" steps="64" name="midTom.wav" type="0"/>
              <pattern muted="0" pos="1344" steps="16" name="midTom.wav" type="0">
                <note key="57" vol="100" pos="156" pan="0" len="-192"/>
                <note key="57" vol="100" pos="168" pan="0" len="-192"/>
                <note key="57" vol="100" pos="180" pan="0" len="-192"/>
              </pattern>
              <pattern muted="0" pos="1536" steps="64" name="midTom.wav" type="0"/>
              <pattern muted="0" pos="1728" steps="64" name="midTom.wav" type="0"/>
              <pattern muted="0" pos="1920" steps="64" name="midTom.wav" type="0"/>
              <pattern muted="0" pos="2112" steps="32" name="midTom.wav" type="0"/>
              <pattern muted="0" pos="2304" steps="32" name="midTom.wav" type="0"/>
              <pattern muted="0" pos="2496" steps="32" name="midTom.wav" type="0">
                <note key="57" vol="100" pos="216" pan="0" len="-192"/>
                <note key="57" vol="100" pos="264" pan="0" len="-192"/>
              </pattern>
              <pattern muted="0" pos="2688" steps="128" name="midTom.wav" type="0"/>
              <pattern muted="0" pos="2880" steps="64" name="midTom.wav" type="0"/>
              <pattern muted="0" pos="3072" steps="64" name="midTom.wav" type="0"/>
              <pattern muted="0" pos="3264" steps="16" name="midTom.wav" type="0">
                <note key="57" vol="100" pos="48" pan="0" len="-192"/>
                <note key="57" vol="100" pos="60" pan="0" len="-192"/>
                <note key="57" vol="100" pos="96" pan="0" len="-192"/>
                <note key="57" vol="100" pos="108" pan="0" len="-192"/>
              </pattern>
              <pattern muted="0" pos="3456" steps="32" name="midTom.wav" type="0">
                <note key="57" vol="100" pos="168" pan="0" len="-192"/>
                <note key="57" vol="100" pos="180" pan="0" len="-192"/>
                <note key="57" vol="100" pos="348" pan="0" len="-192"/>
              </pattern>
              <pattern muted="0" pos="3648" steps="16" name="midTom.wav" type="0">
                <note key="57" vol="100" pos="72" pan="0" len="-192"/>
                <note key="57" vol="100" pos="84" pan="0" len="-192"/>
              </pattern>
            </track>
            <track muted="0" solo="0" name="loTom.wav" type="0">
              <instrumenttrack fxch="9" usemasterpitch="1" vol="130.4" pitch="0" pitchrange="1" pan="0" basenote="57">
                <instrument name="audiofileprocessor">
                  <audiofileprocessor stutter="0" reversed="0" lframe="0" interp="1" amp="100" src="/home/pass/samples/sillydrums/loTom.wav" looped="0" sframe="0" eframe="1"/>
                </instrument>
                <eldata fres="0.5" fwet="0" fcut="14000" ftype="0">
                  <elvol pdel="0" latt="0" lshp="0" lspd_denominator="4" lamt="0" amt="1" sustain="1" lspd_syncmode="0" att="0" x100="0" lspd_numerator="4" lspd="0.1" ctlenvamt="0" dec="2" lpdel="0" hold="2" userwavefile="" rel="2"/>
                  <elcut pdel="0" latt="0" lshp="0" lspd_denominator="4" lamt="0" amt="0" sustain="0.5" lspd_syncmode="0" att="0" x100="0" lspd_numerator="4" lspd="0.1" ctlenvamt="0" dec="0.5" lpdel="0" hold="0.5" userwavefile="" rel="0.1"/>
                  <elres pdel="0" latt="0" lshp="0" lspd_denominator="4" lamt="0" amt="0" sustain="0.5" lspd_syncmode="0" att="0" x100="0" lspd_numerator="4" lspd="0.1" ctlenvamt="0" dec="0.5" lpdel="0" hold="0.5" userwavefile="" rel="0.1"/>
                </eldata>
                <chordcreator chordrange="1" chord="0" chord-enabled="0"/>
                <arpeggiator arptime="200" arpskip="0" arpgate="100" arptime_syncmode="0" arpmode="0" arprange="1" arp="0" arpcycle="0" arptime_denominator="4" arptime_numerator="4" arpdir="0" arp-enabled="0" arpmiss="0"/>
                <midiport outputchannel="1" inputcontroller="0" inputchannel="0" basevelocity="63" outputprogram="1" readable="0" outputcontroller="0" fixedinputvelocity="-1" fixedoutputnote="-1" writable="0" fixedoutputvelocity="-1"/>
                <fxchain numofeffects="0" enabled="0"/>
              </instrumenttrack>
              <pattern muted="0" pos="0" steps="128" name="loTom.wav" type="0"/>
              <pattern muted="0" pos="192" steps="112" name="loTom.wav" type="0">
                <note key="57" vol="100" pos="1320" pan="0" len="-192"/>
                <note key="57" vol="100" pos="1332" pan="0" len="-192"/>
              </pattern>
              <pattern muted="0" pos="384" steps="64" name="loTom.wav" type="0"/>
              <pattern muted="0" pos="576" steps="64" name="loTom.wav" type="0">
                <note key="57" vol="100" pos="648" pan="0" len="-192"/>
                <note key="57" vol="100" pos="660" pan="0" len="-192"/>
                <note key="57" vol="100" pos="744" pan="0" len="-192"/>
                <note key="57" vol="100" pos="756" pan="0" len="-192"/>
              </pattern>
              <pattern muted="0" pos="768" steps="16" name="loTom.wav" type="0"/>
              <pattern muted="0" pos="960" steps="64" name="loTom.wav" type="0"/>
              <pattern muted="0" pos="1152" steps="64" name="loTom.wav" type="0"/>
              <pattern muted="0" pos="1344" steps="16" name="loTom.wav" type="0"/>
              <pattern muted="0" pos="1536" steps="64" name="loTom.wav" type="0"/>
              <pattern muted="0" pos="1728" steps="64" name="loTom.wav" type="0"/>
              <pattern muted="0" pos="1920" steps="64" name="loTom.wav" type="0"/>
              <pattern muted="0" pos="2112" steps="32" name="loTom.wav" type="0"/>
              <pattern muted="0" pos="2304" steps="32" name="loTom.wav" type="0"/>
              <pattern muted="0" pos="2496" steps="32" name="loTom.wav" type="0">
                <note key="57" vol="100" pos="228" pan="0" len="-192"/>
                <note key="57" vol="100" pos="276" pan="0" len="-192"/>
              </pattern>
              <pattern muted="0" pos="2688" steps="128" name="loTom.wav" type="0"/>
              <pattern muted="0" pos="2880" steps="64" name="loTom.wav" type="0"/>
              <pattern muted="0" pos="3072" steps="64" name="loTom.wav" type="0"/>
              <pattern muted="0" pos="3264" steps="16" name="loTom.wav" type="0">
                <note key="57" vol="100" pos="120" pan="0" len="-192"/>
                <note key="57" vol="100" pos="132" pan="0" len="-192"/>
              </pattern>
              <pattern muted="0" pos="3456" steps="32" name="loTom.wav" type="0">
                <note key="57" vol="100" pos="360" pan="0" len="-192"/>
                <note key="57" vol="100" pos="372" pan="0" len="-192"/>
              </pattern>
              <pattern muted="0" pos="3648" steps="16" name="loTom.wav" type="0">
                <note key="57" vol="100" pos="120" pan="0" len="-192"/>
                <note key="57" vol="100" pos="132" pan="0" len="-192"/>
              </pattern>
            </track>
            <track muted="0" solo="0" name="hihat_opened02.ogg" type="0">
              <instrumenttrack fxch="0" usemasterpitch="1" vol="100" pitch="0" pitchrange="1" pan="0" basenote="57">
                <instrument name="audiofileprocessor">
                  <audiofileprocessor stutter="0" reversed="0" lframe="0" interp="1" amp="100" src="drums/hihat_opened02.ogg" looped="0" sframe="0" eframe="1"/>
                </instrument>
                <eldata fres="0.5" fwet="0" fcut="14000" ftype="0">
                  <elvol pdel="0" latt="0" lshp="0" lspd_denominator="4" lamt="0" amt="0" sustain="0.5" lspd_syncmode="0" att="0" x100="0" lspd_numerator="4" lspd="0.1" ctlenvamt="0" dec="0.5" lpdel="0" hold="0.5" userwavefile="" rel="0.1"/>
                  <elcut pdel="0" latt="0" lshp="0" lspd_denominator="4" lamt="0" amt="0" sustain="0.5" lspd_syncmode="0" att="0" x100="0" lspd_numerator="4" lspd="0.1" ctlenvamt="0" dec="0.5" lpdel="0" hold="0.5" userwavefile="" rel="0.1"/>
                  <elres pdel="0" latt="0" lshp="0" lspd_denominator="4" lamt="0" amt="0" sustain="0.5" lspd_syncmode="0" att="0" x100="0" lspd_numerator="4" lspd="0.1" ctlenvamt="0" dec="0.5" lpdel="0" hold="0.5" userwavefile="" rel="0.1"/>
                </eldata>
                <chordcreator chordrange="1" chord="0" chord-enabled="0"/>
                <arpeggiator arptime="200" arpskip="0" arpgate="100" arptime_syncmode="0" arpmode="0" arprange="1" arp="0" arpcycle="0" arptime_denominator="4" arptime_numerator="4" arpdir="0" arp-enabled="0" arpmiss="0"/>
                <midiport outputchannel="1" inputcontroller="0" inputchannel="0" basevelocity="63" outputprogram="1" readable="0" outputcontroller="0" fixedinputvelocity="-1" fixedoutputnote="-1" writable="0" fixedoutputvelocity="-1"/>
                <fxchain numofeffects="0" enabled="0"/>
              </instrumenttrack>
              <pattern muted="0" pos="0" steps="128" name="hihat_opened02.ogg" type="0"/>
              <pattern muted="0" pos="192" steps="112" name="hihat_opened02.ogg" type="0"/>
              <pattern muted="0" pos="384" steps="64" name="hihat_opened02.ogg" type="0"/>
              <pattern muted="0" pos="576" steps="64" name="hihat_opened02.ogg" type="0"/>
              <pattern muted="0" pos="768" steps="16" name="hihat_opened02.ogg" type="0"/>
              <pattern muted="0" pos="960" steps="64" name="hihat_opened02.ogg" type="0"/>
              <pattern muted="0" pos="1152" steps="64" name="hihat_opened02.ogg" type="0"/>
              <pattern muted="0" pos="1344" steps="16" name="hihat_opened02.ogg" type="0"/>
              <pattern muted="0" pos="1536" steps="64" name="hihat_opened02.ogg" type="0"/>
              <pattern muted="0" pos="1728" steps="64" name="hihat_opened02.ogg" type="0"/>
              <pattern muted="0" pos="1920" steps="64" name="hihat_opened02.ogg" type="0"/>
              <pattern muted="0" pos="2112" steps="32" name="hihat_opened02.ogg" type="0"/>
              <pattern muted="0" pos="2304" steps="32" name="hihat_opened02.ogg" type="0"/>
              <pattern muted="0" pos="2496" steps="32" name="hihat_opened02.ogg" type="0"/>
              <pattern muted="0" pos="2688" steps="128" name="hihat_opened02.ogg" type="0"/>
              <pattern muted="0" pos="2880" steps="64" name="hihat_opened02.ogg" type="0"/>
              <pattern muted="0" pos="3072" steps="64" name="hihat_opened02.ogg" type="0"/>
              <pattern muted="0" pos="3264" steps="16" name="hihat_opened02.ogg" type="0"/>
              <pattern muted="0" pos="3456" steps="32" name="hihat_opened02.ogg" type="0"/>
              <pattern muted="0" pos="3648" steps="16" name="hihat_opened02.ogg" type="0"/>
            </track>
          </trackcontainer>
        </bbtrack>
        <bbtco muted="0" color="4286611584" pos="6144" len="1536" name="" usestyle="1"/>
        <bbtco muted="0" color="4286611584" pos="46080" len="768" name="" usestyle="1"/>
      </track>
      <track muted="0" solo="0" name="Clone of intro1" type="1">
        <bbtrack/>
        <bbtco muted="0" color="4286611584" pos="7680" len="1344" name="" usestyle="1"/>
      </track>
      <track muted="0" solo="0" name="Clone of Clone of intro1" type="1">
        <bbtrack/>
        <bbtco muted="0" color="4286611584" pos="38400" len="768" name="" usestyle="1"/>
      </track>
      <track muted="0" solo="0" name="Clone of Clone of Clone of intro1" type="1">
        <bbtrack/>
        <bbtco muted="0" color="4286611584" pos="39168" len="768" name="" usestyle="1"/>
      </track>
      <track muted="0" solo="0" name="Clone of Clone of intro1" type="1">
        <bbtrack/>
        <bbtco muted="0" color="4286611584" pos="9024" len="192" name="" usestyle="1"/>
      </track>
      <track muted="0" solo="0" name="intro2" type="1">
        <bbtrack/>
      </track>
      <track muted="0" solo="0" name="bootcamp1" type="1">
        <bbtrack/>
        <bbtco muted="0" color="4286611584" pos="15360" len="2880" name="" usestyle="1"/>
        <bbtco muted="0" color="4286611584" pos="25344" len="2880" name="" usestyle="1"/>
        <bbtco muted="0" color="4286611584" pos="41472" len="1536" name="" usestyle="1"/>
        <bbtco muted="0" color="4286611584" pos="44544" len="1344" name="" usestyle="1"/>
      </track>
      <track muted="0" solo="0" name="fill1" type="1">
        <bbtrack/>
        <bbtco muted="0" color="4286611584" pos="22080" len="192" name="" usestyle="1"/>
        <bbtco muted="0" color="4286611584" pos="18240" len="192" name="" usestyle="1"/>
        <bbtco muted="0" color="4286611584" pos="28224" len="192" name="" usestyle="1"/>
        <bbtco muted="0" color="4286611584" pos="32064" len="192" name="" usestyle="1"/>
      </track>
      <track muted="0" solo="0" name="Clone of bootcamp1" type="1">
        <bbtrack/>
        <bbtco muted="0" color="4286611584" pos="18432" len="3072" name="" usestyle="1"/>
        <bbtco muted="0" color="4286611584" pos="21504" len="576" name="" usestyle="1"/>
        <bbtco muted="0" color="4286611584" pos="28416" len="3648" name="" usestyle="1"/>
        <bbtco muted="0" color="4286611584" pos="35328" len="2688" name="" usestyle="1"/>
        <bbtco muted="0" color="4286611584" pos="39936" len="1536" name="" usestyle="1"/>
        <bbtco muted="0" color="4286611584" pos="43008" len="1536" name="" usestyle="1"/>
      </track>
      <track muted="0" solo="0" name="Clone of Clone of bootcamp1" type="1">
        <bbtrack/>
        <bbtco muted="0" color="4286611584" pos="12288" len="2880" name="" usestyle="1"/>
        <bbtco muted="0" color="4286611584" pos="22272" len="3072" name="" usestyle="1"/>
      </track>
      <track muted="0" solo="0" name="Clone of Clone of bootcamp1" type="1">
        <bbtrack/>
        <bbtco muted="0" color="4286611584" pos="9216" len="3072" name="" usestyle="1"/>
      </track>
      <track muted="0" solo="0" name="kick/mutecrash" type="1">
        <bbtrack/>
      </track>
      <track muted="0" solo="0" name="Beat/Bassline 6" type="1">
        <bbtrack/>
      </track>
      <track muted="0" solo="0" name="Clone of Beat/Bassline 6" type="1">
        <bbtrack/>
      </track>
      <track muted="0" solo="0" name="Beat/Bassline 11" type="1">
        <bbtrack/>
        <bbtco muted="0" color="4286611584" pos="32256" len="1536" name="" usestyle="1"/>
      </track>
      <track muted="0" solo="0" name="Beat/Bassline 13" type="1">
        <bbtrack/>
        <bbtco muted="0" color="4286611584" pos="33792" len="768" name="" usestyle="1"/>
      </track>
      <track muted="0" solo="0" name="Clone of Beat/Bassline 13" type="1">
        <bbtrack/>
        <bbtco muted="0" color="4286611584" pos="34560" len="768" name="" usestyle="1"/>
      </track>
      <track muted="0" solo="0" name="Beat/Bassline 17" type="1">
        <bbtrack/>
        <bbtco muted="0" color="4286611584" pos="15168" len="192" name="" usestyle="1"/>
      </track>
      <track muted="0" solo="0" name="Beat/Bassline 18" type="1">
        <bbtrack/>
        <bbtco muted="0" color="4286611584" pos="38016" len="384" name="" usestyle="1"/>
      </track>
      <track muted="0" solo="0" name="bass fender jazz (1,379kb)" type="0">
        <instrumenttrack fxch="14" usemasterpitch="1" vol="113.6" pitch="0" pitchrange="1" pan="0" basenote="81">
          <instrument name="sf2player">
            <sf2player gain="1" chorusNum="0.9" reverbRoomSize="0.2" reverbDamping="0.2" chorusOn="0" bank="0" reverbLevel="0.9" reverbOn="0" reverbWidth="0.5" src="/home/pass/samples/soundfonts/bass fender jazz (1,379kb).sf2" patch="0" chorusDepth="8" chorusLevel="2" chorusSpeed="0.3"/>
          </instrument>
          <eldata fres="0.5" fwet="0" fcut="14000" ftype="0">
            <elvol pdel="0" latt="0" lshp="0" lspd_denominator="4" lamt="0" amt="0" sustain="0.5" lspd_syncmode="0" att="0" x100="0" lspd_numerator="4" lspd="0.1" ctlenvamt="0" dec="0.5" lpdel="0" hold="0.5" userwavefile="" rel="0.1"/>
            <elcut pdel="0" latt="0" lshp="0" lspd_denominator="4" lamt="0" amt="0" sustain="0.5" lspd_syncmode="0" att="0" x100="0" lspd_numerator="4" lspd="0.1" ctlenvamt="0" dec="0.5" lpdel="0" hold="0.5" userwavefile="" rel="0.1"/>
            <elres pdel="0" latt="0" lshp="0" lspd_denominator="4" lamt="0" amt="0" sustain="0.5" lspd_syncmode="0" att="0" x100="0" lspd_numerator="4" lspd="0.1" ctlenvamt="0" dec="0.5" lpdel="0" hold="0.5" userwavefile="" rel="0.1"/>
          </eldata>
          <chordcreator chordrange="1" chord="0" chord-enabled="0"/>
          <arpeggiator arptime="200" arpskip="0" arpgate="100" arptime_syncmode="0" arpmode="0" arprange="1" arp="0" arpcycle="0" arptime_denominator="4" arptime_numerator="4" arpdir="0" arp-enabled="0" arpmiss="0"/>
          <midiport outputchannel="1" inputcontroller="0" inputchannel="0" basevelocity="63" outputprogram="1" readable="0" outputcontroller="0" fixedinputvelocity="-1" fixedoutputnote="-1" writable="0" fixedoutputvelocity="-1"/>
          <fxchain numofeffects="1" enabled="1">
            <effect wet="1" autoquit_denominator="4" on="0" autoquit_numerator="4" gate="0" autoquit_syncmode="0" autoquit="1" name="eq">
              <Eq Lowshelfactive="0" Peak1bw="0.3" Peak1active="0" LP48="0" HP24="0" HP48="0" LP="0" LPres="0.707" LP12="1" Peak3bw="3.001" LowShelfres="1.4" Outputgain="0" LPactive="0" HP12="1" Peak4active="0" Peak3gain="18" HighShelfres="1.4" LP24="0" Peak2gain="0" Peak3active="0" Peak2bw="0.3" HPactive="1" Peak4bw="1.637" Highshelfactive="0" HP="0" AnalyseIn="1" Peak2active="0" Lowshelfgain="0.54" HPres="0.707" Peak4gain="18" AnalyseOut="1" HighShelfgain="0">
                <Inputgain value="0" id="4374760" scale_type="log"/>
                <Peak1gain value="0" id="2651294" scale_type="log"/>
                <HPfreq value="77.8685" id="2669995" scale_type="log"/>
                <LowShelffreq value="260.87" id="7887485" scale_type="log"/>
                <Peak1freq value="114.599" id="475330" scale_type="log"/>
                <Peak2freq value="530.404" id="4378443" scale_type="log"/>
                <Peak3freq value="5101.49" id="2229967" scale_type="log"/>
                <Peak4freq value="5354.6" id="3501645" scale_type="log"/>
                <Highshelffreq value="12000" id="1168207" scale_type="log"/>
                <LPfreq value="18000" id="6653457" scale_type="log"/>
              </Eq>
              <key/>
            </effect>
          </fxchain>
        </instrumenttrack>
        <pattern muted="0" pos="6144" steps="16" name="bass fender jazz (1,379kb)" type="1">
          <note key="35" vol="200" pos="0" pan="0" len="384"/>
          <note key="35" vol="200" pos="384" pan="0" len="384"/>
        </pattern>
        <pattern muted="0" pos="6912" steps="16" name="bass fender jazz (1,379kb)" type="1">
          <note key="43" vol="200" pos="0" pan="0" len="384"/>
          <note key="43" vol="200" pos="384" pan="0" len="384"/>
        </pattern>
        <pattern muted="0" pos="7680" steps="16" name="bass fender jazz (1,379kb)" type="1">
          <note key="35" vol="200" pos="0" pan="0" len="384"/>
          <note key="35" vol="200" pos="384" pan="0" len="384"/>
        </pattern>
        <pattern muted="0" pos="8448" steps="16" name="bass fender jazz (1,379kb)" type="1">
          <note key="43" vol="200" pos="0" pan="0" len="384"/>
          <note key="43" vol="200" pos="384" pan="0" len="192"/>
          <note key="43" vol="200" pos="576" pan="0" len="48"/>
        </pattern>
        <pattern muted="0" pos="9216" steps="16" name="bass fender jazz (1,379kb)" type="1">
          <note key="35" vol="200" pos="0" pan="0" len="384"/>
          <note key="35" vol="200" pos="384" pan="0" len="384"/>
        </pattern>
        <pattern muted="0" pos="9984" steps="16" name="bass fender jazz (1,379kb)" type="1">
          <note key="43" vol="200" pos="0" pan="0" len="384"/>
          <note key="43" vol="200" pos="384" pan="0" len="384"/>
        </pattern>
        <pattern muted="0" pos="10752" steps="16" name="bass fender jazz (1,379kb)" type="1">
          <note key="35" vol="200" pos="0" pan="0" len="384"/>
          <note key="35" vol="200" pos="384" pan="0" len="384"/>
        </pattern>
        <pattern muted="0" pos="11520" steps="16" name="bass fender jazz (1,379kb)" type="1">
          <note key="43" vol="200" pos="0" pan="0" len="384"/>
          <note key="45" vol="200" pos="384" pan="0" len="384"/>
        </pattern>
        <pattern muted="0" pos="12288" steps="16" name="bass fender jazz (1,379kb)" type="1">
          <note key="38" vol="200" pos="0" pan="0" len="72"/>
          <note key="38" vol="200" pos="72" pan="0" len="72"/>
          <note key="38" vol="200" pos="144" pan="0" len="48"/>
          <note key="38" vol="200" pos="192" pan="0" len="72"/>
          <note key="38" vol="200" pos="264" pan="0" len="72"/>
          <note key="38" vol="200" pos="336" pan="0" len="48"/>
          <note key="43" vol="200" pos="384" pan="0" len="72"/>
          <note key="43" vol="200" pos="456" pan="0" len="72"/>
          <note key="43" vol="200" pos="528" pan="0" len="48"/>
          <note key="45" vol="200" pos="576" pan="0" len="72"/>
          <note key="43" vol="200" pos="648" pan="0" len="72"/>
          <note key="45" vol="200" pos="720" pan="0" len="48"/>
        </pattern>
        <pattern muted="0" pos="13056" steps="16" name="bass fender jazz (1,379kb)" type="1">
          <note key="38" vol="200" pos="0" pan="0" len="72"/>
          <note key="38" vol="200" pos="72" pan="0" len="72"/>
          <note key="38" vol="200" pos="144" pan="0" len="48"/>
          <note key="38" vol="200" pos="192" pan="0" len="72"/>
          <note key="38" vol="200" pos="264" pan="0" len="72"/>
          <note key="38" vol="200" pos="336" pan="0" len="48"/>
          <note key="43" vol="200" pos="384" pan="0" len="72"/>
          <note key="43" vol="200" pos="456" pan="0" len="72"/>
          <note key="43" vol="200" pos="528" pan="0" len="48"/>
          <note key="45" vol="200" pos="576" pan="0" len="72"/>
          <note key="43" vol="200" pos="648" pan="0" len="72"/>
          <note key="45" vol="200" pos="720" pan="0" len="48"/>
        </pattern>
        <pattern muted="0" pos="13824" steps="16" name="bass fender jazz (1,379kb)" type="1">
          <note key="38" vol="200" pos="0" pan="0" len="72"/>
          <note key="38" vol="200" pos="72" pan="0" len="72"/>
          <note key="38" vol="200" pos="144" pan="0" len="48"/>
          <note key="38" vol="200" pos="192" pan="0" len="72"/>
          <note key="38" vol="200" pos="264" pan="0" len="72"/>
          <note key="38" vol="200" pos="336" pan="0" len="48"/>
          <note key="43" vol="200" pos="384" pan="0" len="72"/>
          <note key="43" vol="200" pos="456" pan="0" len="72"/>
          <note key="43" vol="200" pos="528" pan="0" len="48"/>
          <note key="45" vol="200" pos="576" pan="0" len="72"/>
          <note key="43" vol="200" pos="648" pan="0" len="72"/>
          <note key="45" vol="200" pos="720" pan="0" len="48"/>
        </pattern>
        <pattern muted="0" pos="14592" steps="16" name="bass fender jazz (1,379kb)" type="1">
          <note key="38" vol="200" pos="0" pan="0" len="72"/>
          <note key="38" vol="200" pos="72" pan="0" len="72"/>
          <note key="38" vol="200" pos="144" pan="0" len="48"/>
          <note key="38" vol="200" pos="192" pan="0" len="72"/>
          <note key="38" vol="200" pos="264" pan="0" len="72"/>
          <note key="38" vol="200" pos="336" pan="0" len="48"/>
          <note key="43" vol="200" pos="384" pan="0" len="72"/>
          <note key="43" vol="200" pos="456" pan="0" len="72"/>
          <note key="43" vol="200" pos="528" pan="0" len="48"/>
          <note key="45" vol="200" pos="576" pan="0" len="72"/>
          <note key="43" vol="200" pos="648" pan="0" len="72"/>
          <note key="45" vol="200" pos="720" pan="0" len="48"/>
        </pattern>
        <pattern muted="0" pos="15360" steps="16" name="bass fender jazz (1,379kb)" type="1">
          <note key="35" vol="200" pos="0" pan="0" len="24"/>
          <note key="35" vol="200" pos="24" pan="0" len="12"/>
          <note key="35" vol="200" pos="36" pan="0" len="12"/>
          <note key="35" vol="200" pos="48" pan="0" len="12"/>
          <note key="35" vol="200" pos="60" pan="0" len="12"/>
          <note key="35" vol="200" pos="72" pan="0" len="24"/>
          <note key="35" vol="200" pos="96" pan="0" len="12"/>
          <note key="35" vol="200" pos="108" pan="0" len="12"/>
          <note key="35" vol="200" pos="120" pan="0" len="12"/>
          <note key="35" vol="200" pos="132" pan="0" len="12"/>
          <note key="35" vol="200" pos="144" pan="0" len="24"/>
          <note key="35" vol="200" pos="168" pan="0" len="12"/>
          <note key="35" vol="200" pos="180" pan="0" len="12"/>
          <note key="35" vol="200" pos="192" pan="0" len="24"/>
          <note key="35" vol="200" pos="216" pan="0" len="12"/>
          <note key="35" vol="200" pos="228" pan="0" len="12"/>
          <note key="35" vol="200" pos="240" pan="0" len="12"/>
          <note key="35" vol="200" pos="252" pan="0" len="12"/>
          <note key="35" vol="200" pos="264" pan="0" len="24"/>
          <note key="35" vol="200" pos="288" pan="0" len="12"/>
          <note key="35" vol="200" pos="300" pan="0" len="12"/>
          <note key="35" vol="200" pos="312" pan="0" len="12"/>
          <note key="35" vol="200" pos="324" pan="0" len="12"/>
          <note key="35" vol="200" pos="336" pan="0" len="24"/>
          <note key="35" vol="200" pos="360" pan="0" len="12"/>
          <note key="35" vol="200" pos="372" pan="0" len="12"/>
        </pattern>
        <pattern muted="0" pos="15744" steps="16" name="bass fender jazz (1,379kb)" type="1">
          <note key="43" vol="200" pos="0" pan="0" len="24"/>
          <note key="43" vol="200" pos="24" pan="0" len="12"/>
          <note key="43" vol="200" pos="36" pan="0" len="12"/>
          <note key="43" vol="200" pos="48" pan="0" len="12"/>
          <note key="43" vol="200" pos="60" pan="0" len="12"/>
          <note key="43" vol="200" pos="72" pan="0" len="24"/>
          <note key="43" vol="200" pos="96" pan="0" len="12"/>
          <note key="43" vol="200" pos="108" pan="0" len="12"/>
          <note key="43" vol="200" pos="120" pan="0" len="12"/>
          <note key="43" vol="200" pos="132" pan="0" len="12"/>
          <note key="43" vol="200" pos="144" pan="0" len="24"/>
          <note key="43" vol="200" pos="168" pan="0" len="12"/>
          <note key="43" vol="200" pos="180" pan="0" len="12"/>
          <note key="43" vol="200" pos="192" pan="0" len="24"/>
          <note key="43" vol="200" pos="216" pan="0" len="12"/>
          <note key="43" vol="200" pos="228" pan="0" len="12"/>
          <note key="43" vol="200" pos="240" pan="0" len="12"/>
          <note key="43" vol="200" pos="252" pan="0" len="12"/>
          <note key="43" vol="200" pos="264" pan="0" len="24"/>
          <note key="43" vol="200" pos="288" pan="0" len="12"/>
          <note key="43" vol="200" pos="300" pan="0" len="12"/>
          <note key="43" vol="200" pos="312" pan="0" len="12"/>
          <note key="43" vol="200" pos="324" pan="0" len="12"/>
          <note key="43" vol="200" pos="336" pan="0" len="24"/>
          <note key="43" vol="200" pos="360" pan="0" len="12"/>
          <note key="43" vol="200" pos="372" pan="0" len="12"/>
        </pattern>
        <pattern muted="0" pos="16128" steps="16" name="bass fender jazz (1,379kb)" type="1">
          <note key="45" vol="200" pos="0" pan="0" len="24"/>
          <note key="45" vol="200" pos="24" pan="0" len="12"/>
          <note key="45" vol="200" pos="36" pan="0" len="12"/>
          <note key="45" vol="200" pos="48" pan="0" len="12"/>
          <note key="45" vol="200" pos="60" pan="0" len="12"/>
          <note key="45" vol="200" pos="72" pan="0" len="24"/>
          <note key="45" vol="200" pos="96" pan="0" len="12"/>
          <note key="45" vol="200" pos="108" pan="0" len="12"/>
          <note key="45" vol="200" pos="120" pan="0" len="12"/>
          <note key="45" vol="200" pos="132" pan="0" len="12"/>
          <note key="45" vol="200" pos="144" pan="0" len="24"/>
          <note key="45" vol="200" pos="168" pan="0" len="12"/>
          <note key="45" vol="200" pos="180" pan="0" len="12"/>
          <note key="45" vol="200" pos="192" pan="0" len="24"/>
          <note key="45" vol="200" pos="216" pan="0" len="12"/>
          <note key="45" vol="200" pos="228" pan="0" len="12"/>
          <note key="45" vol="200" pos="240" pan="0" len="12"/>
          <note key="45" vol="200" pos="252" pan="0" len="12"/>
          <note key="45" vol="200" pos="264" pan="0" len="24"/>
          <note key="45" vol="200" pos="288" pan="0" len="12"/>
          <note key="45" vol="200" pos="300" pan="0" len="12"/>
          <note key="45" vol="200" pos="312" pan="0" len="12"/>
          <note key="45" vol="200" pos="324" pan="0" len="12"/>
          <note key="45" vol="200" pos="336" pan="0" len="24"/>
          <note key="45" vol="200" pos="360" pan="0" len="12"/>
          <note key="45" vol="200" pos="372" pan="0" len="12"/>
        </pattern>
        <pattern muted="0" pos="16512" steps="16" name="bass fender jazz (1,379kb)" type="1">
          <note key="38" vol="200" pos="0" pan="0" len="24"/>
          <note key="38" vol="200" pos="24" pan="0" len="12"/>
          <note key="38" vol="200" pos="36" pan="0" len="12"/>
          <note key="38" vol="200" pos="48" pan="0" len="12"/>
          <note key="38" vol="200" pos="60" pan="0" len="12"/>
          <note key="38" vol="200" pos="72" pan="0" len="24"/>
          <note key="38" vol="200" pos="96" pan="0" len="12"/>
          <note key="38" vol="200" pos="108" pan="0" len="12"/>
          <note key="38" vol="200" pos="120" pan="0" len="12"/>
          <note key="38" vol="200" pos="132" pan="0" len="12"/>
          <note key="38" vol="200" pos="144" pan="0" len="24"/>
          <note key="38" vol="200" pos="168" pan="0" len="12"/>
          <note key="38" vol="200" pos="180" pan="0" len="12"/>
          <note key="38" vol="200" pos="192" pan="0" len="24"/>
          <note key="38" vol="200" pos="216" pan="0" len="12"/>
          <note key="38" vol="200" pos="228" pan="0" len="12"/>
          <note key="38" vol="200" pos="240" pan="0" len="12"/>
          <note key="38" vol="200" pos="252" pan="0" len="12"/>
          <note key="38" vol="200" pos="264" pan="0" len="24"/>
          <note key="38" vol="200" pos="288" pan="0" len="12"/>
          <note key="38" vol="200" pos="300" pan="0" len="12"/>
          <note key="38" vol="200" pos="312" pan="0" len="12"/>
          <note key="38" vol="200" pos="324" pan="0" len="12"/>
          <note key="38" vol="200" pos="336" pan="0" len="24"/>
          <note key="38" vol="200" pos="360" pan="0" len="12"/>
          <note key="38" vol="200" pos="372" pan="0" len="12"/>
        </pattern>
        <pattern muted="0" pos="16896" steps="16" name="bass fender jazz (1,379kb)" type="1">
          <note key="35" vol="200" pos="0" pan="0" len="24"/>
          <note key="35" vol="200" pos="24" pan="0" len="12"/>
          <note key="35" vol="200" pos="36" pan="0" len="12"/>
          <note key="35" vol="200" pos="48" pan="0" len="12"/>
          <note key="35" vol="200" pos="60" pan="0" len="12"/>
          <note key="35" vol="200" pos="72" pan="0" len="24"/>
          <note key="35" vol="200" pos="96" pan="0" len="12"/>
          <note key="35" vol="200" pos="108" pan="0" len="12"/>
          <note key="35" vol="200" pos="120" pan="0" len="12"/>
          <note key="35" vol="200" pos="132" pan="0" len="12"/>
          <note key="35" vol="200" pos="144" pan="0" len="24"/>
          <note key="35" vol="200" pos="168" pan="0" len="12"/>
          <note key="35" vol="200" pos="180" pan="0" len="12"/>
          <note key="35" vol="200" pos="192" pan="0" len="24"/>
          <note key="35" vol="200" pos="216" pan="0" len="12"/>
          <note key="35" vol="200" pos="228" pan="0" len="12"/>
          <note key="35" vol="200" pos="240" pan="0" len="12"/>
          <note key="35" vol="200" pos="252" pan="0" len="12"/>
          <note key="35" vol="200" pos="264" pan="0" len="24"/>
          <note key="35" vol="200" pos="288" pan="0" len="12"/>
          <note key="35" vol="200" pos="300" pan="0" len="12"/>
          <note key="35" vol="200" pos="312" pan="0" len="12"/>
          <note key="35" vol="200" pos="324" pan="0" len="12"/>
          <note key="35" vol="200" pos="336" pan="0" len="24"/>
          <note key="35" vol="200" pos="360" pan="0" len="12"/>
          <note key="35" vol="200" pos="372" pan="0" len="12"/>
        </pattern>
        <pattern muted="0" pos="17280" steps="16" name="bass fender jazz (1,379kb)" type="1">
          <note key="43" vol="200" pos="0" pan="0" len="24"/>
          <note key="43" vol="200" pos="24" pan="0" len="12"/>
          <note key="43" vol="200" pos="36" pan="0" len="12"/>
          <note key="43" vol="200" pos="48" pan="0" len="12"/>
          <note key="43" vol="200" pos="60" pan="0" len="12"/>
          <note key="43" vol="200" pos="72" pan="0" len="24"/>
          <note key="43" vol="200" pos="96" pan="0" len="12"/>
          <note key="43" vol="200" pos="108" pan="0" len="12"/>
          <note key="43" vol="200" pos="120" pan="0" len="12"/>
          <note key="43" vol="200" pos="132" pan="0" len="12"/>
          <note key="43" vol="200" pos="144" pan="0" len="24"/>
          <note key="43" vol="200" pos="168" pan="0" len="12"/>
          <note key="43" vol="200" pos="180" pan="0" len="12"/>
          <note key="43" vol="200" pos="192" pan="0" len="24"/>
          <note key="43" vol="200" pos="216" pan="0" len="12"/>
          <note key="43" vol="200" pos="228" pan="0" len="12"/>
          <note key="43" vol="200" pos="240" pan="0" len="12"/>
          <note key="43" vol="200" pos="252" pan="0" len="12"/>
          <note key="43" vol="200" pos="264" pan="0" len="24"/>
          <note key="43" vol="200" pos="288" pan="0" len="12"/>
          <note key="43" vol="200" pos="300" pan="0" len="12"/>
          <note key="43" vol="200" pos="312" pan="0" len="12"/>
          <note key="43" vol="200" pos="324" pan="0" len="12"/>
          <note key="43" vol="200" pos="336" pan="0" len="24"/>
          <note key="43" vol="200" pos="360" pan="0" len="12"/>
          <note key="43" vol="200" pos="372" pan="0" len="12"/>
        </pattern>
        <pattern muted="0" pos="17664" steps="16" name="bass fender jazz (1,379kb)" type="1">
          <note key="45" vol="200" pos="0" pan="0" len="24"/>
          <note key="45" vol="200" pos="24" pan="0" len="12"/>
          <note key="45" vol="200" pos="36" pan="0" len="12"/>
          <note key="45" vol="200" pos="48" pan="0" len="12"/>
          <note key="45" vol="200" pos="60" pan="0" len="12"/>
          <note key="45" vol="200" pos="72" pan="0" len="24"/>
          <note key="45" vol="200" pos="96" pan="0" len="12"/>
          <note key="45" vol="200" pos="108" pan="0" len="12"/>
          <note key="45" vol="200" pos="120" pan="0" len="12"/>
          <note key="45" vol="200" pos="132" pan="0" len="12"/>
          <note key="45" vol="200" pos="144" pan="0" len="24"/>
          <note key="45" vol="200" pos="168" pan="0" len="12"/>
          <note key="45" vol="200" pos="180" pan="0" len="12"/>
          <note key="45" vol="200" pos="192" pan="0" len="24"/>
          <note key="45" vol="200" pos="216" pan="0" len="12"/>
          <note key="45" vol="200" pos="228" pan="0" len="12"/>
          <note key="45" vol="200" pos="240" pan="0" len="12"/>
          <note key="45" vol="200" pos="252" pan="0" len="12"/>
          <note key="45" vol="200" pos="264" pan="0" len="24"/>
          <note key="45" vol="200" pos="288" pan="0" len="12"/>
          <note key="45" vol="200" pos="300" pan="0" len="12"/>
          <note key="45" vol="200" pos="312" pan="0" len="12"/>
          <note key="45" vol="200" pos="324" pan="0" len="12"/>
          <note key="45" vol="200" pos="336" pan="0" len="24"/>
          <note key="45" vol="200" pos="360" pan="0" len="12"/>
          <note key="45" vol="200" pos="372" pan="0" len="12"/>
        </pattern>
        <pattern muted="0" pos="18048" steps="16" name="bass fender jazz (1,379kb)" type="1">
          <note key="45" vol="200" pos="0" pan="0" len="24"/>
          <note key="45" vol="200" pos="24" pan="0" len="12"/>
          <note key="45" vol="200" pos="36" pan="0" len="12"/>
          <note key="45" vol="200" pos="48" pan="0" len="12"/>
          <note key="45" vol="200" pos="60" pan="0" len="12"/>
          <note key="45" vol="200" pos="72" pan="0" len="24"/>
          <note key="45" vol="200" pos="96" pan="0" len="12"/>
          <note key="45" vol="200" pos="108" pan="0" len="12"/>
          <note key="45" vol="200" pos="120" pan="0" len="12"/>
          <note key="45" vol="200" pos="132" pan="0" len="12"/>
          <note key="45" vol="200" pos="144" pan="0" len="24"/>
          <note key="45" vol="200" pos="168" pan="0" len="12"/>
          <note key="45" vol="200" pos="180" pan="0" len="12"/>
          <note key="45" vol="200" pos="192" pan="0" len="30"/>
          <note key="45" vol="200" pos="240" pan="0" len="30"/>
          <note key="45" vol="200" pos="288" pan="0" len="30"/>
          <note key="45" vol="200" pos="336" pan="0" len="30"/>
        </pattern>
        <pattern muted="0" pos="18432" steps="16" name="bass fender jazz (1,379kb)" type="1">
          <note key="38" vol="200" pos="0" pan="0" len="384"/>
          <note key="45" vol="200" pos="384" pan="0" len="384"/>
          <note key="43" vol="200" pos="768" pan="0" len="384"/>
          <note key="38" vol="200" pos="1152" pan="0" len="192"/>
          <note key="45" vol="200" pos="1344" pan="0" len="192"/>
        </pattern>
        <pattern muted="0" pos="19968" steps="16" name="bass fender jazz (1,379kb)" type="1">
          <note key="38" vol="200" pos="0" pan="0" len="384"/>
          <note key="45" vol="200" pos="384" pan="0" len="384"/>
          <note key="43" vol="200" pos="768" pan="0" len="384"/>
          <note key="38" vol="200" pos="1152" pan="0" len="192"/>
          <note key="45" vol="200" pos="1344" pan="0" len="192"/>
        </pattern>
        <pattern muted="0" pos="22272" steps="16" name="bass fender jazz (1,379kb)" type="1">
          <note key="38" vol="200" pos="0" pan="0" len="72"/>
          <note key="38" vol="200" pos="72" pan="0" len="72"/>
          <note key="38" vol="200" pos="144" pan="0" len="48"/>
          <note key="38" vol="200" pos="192" pan="0" len="72"/>
          <note key="38" vol="200" pos="264" pan="0" len="72"/>
          <note key="38" vol="200" pos="336" pan="0" len="48"/>
          <note key="43" vol="200" pos="384" pan="0" len="72"/>
          <note key="43" vol="200" pos="456" pan="0" len="72"/>
          <note key="43" vol="200" pos="528" pan="0" len="48"/>
          <note key="45" vol="200" pos="576" pan="0" len="72"/>
          <note key="43" vol="200" pos="648" pan="0" len="72"/>
          <note key="45" vol="200" pos="720" pan="0" len="48"/>
        </pattern>
        <pattern muted="0" pos="25344" steps="16" name="bass fender jazz (1,379kb)" type="1">
          <note key="35" vol="200" pos="0" pan="0" len="24"/>
          <note key="35" vol="200" pos="24" pan="0" len="12"/>
          <note key="35" vol="200" pos="36" pan="0" len="12"/>
          <note key="35" vol="200" pos="48" pan="0" len="12"/>
          <note key="35" vol="200" pos="60" pan="0" len="12"/>
          <note key="35" vol="200" pos="72" pan="0" len="24"/>
          <note key="35" vol="200" pos="96" pan="0" len="12"/>
          <note key="35" vol="200" pos="108" pan="0" len="12"/>
          <note key="35" vol="200" pos="120" pan="0" len="12"/>
          <note key="35" vol="200" pos="132" pan="0" len="12"/>
          <note key="35" vol="200" pos="144" pan="0" len="24"/>
          <note key="35" vol="200" pos="168" pan="0" len="12"/>
          <note key="35" vol="200" pos="180" pan="0" len="12"/>
          <note key="35" vol="200" pos="192" pan="0" len="24"/>
          <note key="35" vol="200" pos="216" pan="0" len="12"/>
          <note key="35" vol="200" pos="228" pan="0" len="12"/>
          <note key="35" vol="200" pos="240" pan="0" len="12"/>
          <note key="35" vol="200" pos="252" pan="0" len="12"/>
          <note key="35" vol="200" pos="264" pan="0" len="24"/>
          <note key="35" vol="200" pos="288" pan="0" len="12"/>
          <note key="35" vol="200" pos="300" pan="0" len="12"/>
          <note key="35" vol="200" pos="312" pan="0" len="12"/>
          <note key="35" vol="200" pos="324" pan="0" len="12"/>
          <note key="35" vol="200" pos="336" pan="0" len="24"/>
          <note key="35" vol="200" pos="360" pan="0" len="12"/>
          <note key="35" vol="200" pos="372" pan="0" len="12"/>
        </pattern>
        <pattern muted="0" pos="25728" steps="16" name="bass fender jazz (1,379kb)" type="1">
          <note key="43" vol="200" pos="0" pan="0" len="24"/>
          <note key="43" vol="200" pos="24" pan="0" len="12"/>
          <note key="43" vol="200" pos="36" pan="0" len="12"/>
          <note key="43" vol="200" pos="48" pan="0" len="12"/>
          <note key="43" vol="200" pos="60" pan="0" len="12"/>
          <note key="43" vol="200" pos="72" pan="0" len="24"/>
          <note key="43" vol="200" pos="96" pan="0" len="12"/>
          <note key="43" vol="200" pos="108" pan="0" len="12"/>
          <note key="43" vol="200" pos="120" pan="0" len="12"/>
          <note key="43" vol="200" pos="132" pan="0" len="12"/>
          <note key="43" vol="200" pos="144" pan="0" len="24"/>
          <note key="43" vol="200" pos="168" pan="0" len="12"/>
          <note key="43" vol="200" pos="180" pan="0" len="12"/>
          <note key="43" vol="200" pos="192" pan="0" len="24"/>
          <note key="43" vol="200" pos="216" pan="0" len="12"/>
          <note key="43" vol="200" pos="228" pan="0" len="12"/>
          <note key="43" vol="200" pos="240" pan="0" len="12"/>
          <note key="43" vol="200" pos="252" pan="0" len="12"/>
          <note key="43" vol="200" pos="264" pan="0" len="24"/>
          <note key="43" vol="200" pos="288" pan="0" len="12"/>
          <note key="43" vol="200" pos="300" pan="0" len="12"/>
          <note key="43" vol="200" pos="312" pan="0" len="12"/>
          <note key="43" vol="200" pos="324" pan="0" len="12"/>
          <note key="43" vol="200" pos="336" pan="0" len="24"/>
          <note key="43" vol="200" pos="360" pan="0" len="12"/>
          <note key="43" vol="200" pos="372" pan="0" len="12"/>
        </pattern>
        <pattern muted="0" pos="26112" steps="16" name="bass fender jazz (1,379kb)" type="1">
          <note key="45" vol="200" pos="0" pan="0" len="24"/>
          <note key="45" vol="200" pos="24" pan="0" len="12"/>
          <note key="45" vol="200" pos="36" pan="0" len="12"/>
          <note key="45" vol="200" pos="48" pan="0" len="12"/>
          <note key="45" vol="200" pos="60" pan="0" len="12"/>
          <note key="45" vol="200" pos="72" pan="0" len="24"/>
          <note key="45" vol="200" pos="96" pan="0" len="12"/>
          <note key="45" vol="200" pos="108" pan="0" len="12"/>
          <note key="45" vol="200" pos="120" pan="0" len="12"/>
          <note key="45" vol="200" pos="132" pan="0" len="12"/>
          <note key="45" vol="200" pos="144" pan="0" len="24"/>
          <note key="45" vol="200" pos="168" pan="0" len="12"/>
          <note key="45" vol="200" pos="180" pan="0" len="12"/>
          <note key="45" vol="200" pos="192" pan="0" len="24"/>
          <note key="45" vol="200" pos="216" pan="0" len="12"/>
          <note key="45" vol="200" pos="228" pan="0" len="12"/>
          <note key="45" vol="200" pos="240" pan="0" len="12"/>
          <note key="45" vol="200" pos="252" pan="0" len="12"/>
          <note key="45" vol="200" pos="264" pan="0" len="24"/>
          <note key="45" vol="200" pos="288" pan="0" len="12"/>
          <note key="45" vol="200" pos="300" pan="0" len="12"/>
          <note key="45" vol="200" pos="312" pan="0" len="12"/>
          <note key="45" vol="200" pos="324" pan="0" len="12"/>
          <note key="45" vol="200" pos="336" pan="0" len="24"/>
          <note key="45" vol="200" pos="360" pan="0" len="12"/>
          <note key="45" vol="200" pos="372" pan="0" len="12"/>
        </pattern>
        <pattern muted="0" pos="26496" steps="16" name="bass fender jazz (1,379kb)" type="1">
          <note key="38" vol="200" pos="0" pan="0" len="24"/>
          <note key="38" vol="200" pos="24" pan="0" len="12"/>
          <note key="38" vol="200" pos="36" pan="0" len="12"/>
          <note key="38" vol="200" pos="48" pan="0" len="12"/>
          <note key="38" vol="200" pos="60" pan="0" len="12"/>
          <note key="38" vol="200" pos="72" pan="0" len="24"/>
          <note key="38" vol="200" pos="96" pan="0" len="12"/>
          <note key="38" vol="200" pos="108" pan="0" len="12"/>
          <note key="38" vol="200" pos="120" pan="0" len="12"/>
          <note key="38" vol="200" pos="132" pan="0" len="12"/>
          <note key="38" vol="200" pos="144" pan="0" len="24"/>
          <note key="38" vol="200" pos="168" pan="0" len="12"/>
          <note key="38" vol="200" pos="180" pan="0" len="12"/>
          <note key="38" vol="200" pos="192" pan="0" len="24"/>
          <note key="38" vol="200" pos="216" pan="0" len="12"/>
          <note key="38" vol="200" pos="228" pan="0" len="12"/>
          <note key="38" vol="200" pos="240" pan="0" len="12"/>
          <note key="38" vol="200" pos="252" pan="0" len="12"/>
          <note key="38" vol="200" pos="264" pan="0" len="24"/>
          <note key="38" vol="200" pos="288" pan="0" len="12"/>
          <note key="38" vol="200" pos="300" pan="0" len="12"/>
          <note key="38" vol="200" pos="312" pan="0" len="12"/>
          <note key="38" vol="200" pos="324" pan="0" len="12"/>
          <note key="38" vol="200" pos="336" pan="0" len="24"/>
          <note key="38" vol="200" pos="360" pan="0" len="12"/>
          <note key="38" vol="200" pos="372" pan="0" len="12"/>
        </pattern>
        <pattern muted="0" pos="26880" steps="16" name="bass fender jazz (1,379kb)" type="1">
          <note key="35" vol="200" pos="0" pan="0" len="24"/>
          <note key="35" vol="200" pos="24" pan="0" len="12"/>
          <note key="35" vol="200" pos="36" pan="0" len="12"/>
          <note key="35" vol="200" pos="48" pan="0" len="12"/>
          <note key="35" vol="200" pos="60" pan="0" len="12"/>
          <note key="35" vol="200" pos="72" pan="0" len="24"/>
          <note key="35" vol="200" pos="96" pan="0" len="12"/>
          <note key="35" vol="200" pos="108" pan="0" len="12"/>
          <note key="35" vol="200" pos="120" pan="0" len="12"/>
          <note key="35" vol="200" pos="132" pan="0" len="12"/>
          <note key="35" vol="200" pos="144" pan="0" len="24"/>
          <note key="35" vol="200" pos="168" pan="0" len="12"/>
          <note key="35" vol="200" pos="180" pan="0" len="12"/>
          <note key="35" vol="200" pos="192" pan="0" len="24"/>
          <note key="35" vol="200" pos="216" pan="0" len="12"/>
          <note key="35" vol="200" pos="228" pan="0" len="12"/>
          <note key="35" vol="200" pos="240" pan="0" len="12"/>
          <note key="35" vol="200" pos="252" pan="0" len="12"/>
          <note key="35" vol="200" pos="264" pan="0" len="24"/>
          <note key="35" vol="200" pos="288" pan="0" len="12"/>
          <note key="35" vol="200" pos="300" pan="0" len="12"/>
          <note key="35" vol="200" pos="312" pan="0" len="12"/>
          <note key="35" vol="200" pos="324" pan="0" len="12"/>
          <note key="35" vol="200" pos="336" pan="0" len="24"/>
          <note key="35" vol="200" pos="360" pan="0" len="12"/>
          <note key="35" vol="200" pos="372" pan="0" len="12"/>
        </pattern>
        <pattern muted="0" pos="27264" steps="16" name="bass fender jazz (1,379kb)" type="1">
          <note key="43" vol="200" pos="0" pan="0" len="24"/>
          <note key="43" vol="200" pos="24" pan="0" len="12"/>
          <note key="43" vol="200" pos="36" pan="0" len="12"/>
          <note key="43" vol="200" pos="48" pan="0" len="12"/>
          <note key="43" vol="200" pos="60" pan="0" len="12"/>
          <note key="43" vol="200" pos="72" pan="0" len="24"/>
          <note key="43" vol="200" pos="96" pan="0" len="12"/>
          <note key="43" vol="200" pos="108" pan="0" len="12"/>
          <note key="43" vol="200" pos="120" pan="0" len="12"/>
          <note key="43" vol="200" pos="132" pan="0" len="12"/>
          <note key="43" vol="200" pos="144" pan="0" len="24"/>
          <note key="43" vol="200" pos="168" pan="0" len="12"/>
          <note key="43" vol="200" pos="180" pan="0" len="12"/>
          <note key="43" vol="200" pos="192" pan="0" len="24"/>
          <note key="43" vol="200" pos="216" pan="0" len="12"/>
          <note key="43" vol="200" pos="228" pan="0" len="12"/>
          <note key="43" vol="200" pos="240" pan="0" len="12"/>
          <note key="43" vol="200" pos="252" pan="0" len="12"/>
          <note key="43" vol="200" pos="264" pan="0" len="24"/>
          <note key="43" vol="200" pos="288" pan="0" len="12"/>
          <note key="43" vol="200" pos="300" pan="0" len="12"/>
          <note key="43" vol="200" pos="312" pan="0" len="12"/>
          <note key="43" vol="200" pos="324" pan="0" len="12"/>
          <note key="43" vol="200" pos="336" pan="0" len="24"/>
          <note key="43" vol="200" pos="360" pan="0" len="12"/>
          <note key="43" vol="200" pos="372" pan="0" len="12"/>
        </pattern>
        <pattern muted="0" pos="27648" steps="16" name="bass fender jazz (1,379kb)" type="1">
          <note key="45" vol="200" pos="0" pan="0" len="24"/>
          <note key="45" vol="200" pos="24" pan="0" len="12"/>
          <note key="45" vol="200" pos="36" pan="0" len="12"/>
          <note key="45" vol="200" pos="48" pan="0" len="12"/>
          <note key="45" vol="200" pos="60" pan="0" len="12"/>
          <note key="45" vol="200" pos="72" pan="0" len="24"/>
          <note key="45" vol="200" pos="96" pan="0" len="12"/>
          <note key="45" vol="200" pos="108" pan="0" len="12"/>
          <note key="45" vol="200" pos="120" pan="0" len="12"/>
          <note key="45" vol="200" pos="132" pan="0" len="12"/>
          <note key="45" vol="200" pos="144" pan="0" len="24"/>
          <note key="45" vol="200" pos="168" pan="0" len="12"/>
          <note key="45" vol="200" pos="180" pan="0" len="12"/>
          <note key="45" vol="200" pos="192" pan="0" len="24"/>
          <note key="45" vol="200" pos="216" pan="0" len="12"/>
          <note key="45" vol="200" pos="228" pan="0" len="12"/>
          <note key="45" vol="200" pos="240" pan="0" len="12"/>
          <note key="45" vol="200" pos="252" pan="0" len="12"/>
          <note key="45" vol="200" pos="264" pan="0" len="24"/>
          <note key="45" vol="200" pos="288" pan="0" len="12"/>
          <note key="45" vol="200" pos="300" pan="0" len="12"/>
          <note key="45" vol="200" pos="312" pan="0" len="12"/>
          <note key="45" vol="200" pos="324" pan="0" len="12"/>
          <note key="45" vol="200" pos="336" pan="0" len="24"/>
          <note key="45" vol="200" pos="360" pan="0" len="12"/>
          <note key="45" vol="200" pos="372" pan="0" len="12"/>
        </pattern>
        <pattern muted="0" pos="28032" steps="16" name="bass fender jazz (1,379kb)" type="1">
          <note key="45" vol="200" pos="0" pan="0" len="24"/>
          <note key="45" vol="200" pos="24" pan="0" len="12"/>
          <note key="45" vol="200" pos="36" pan="0" len="12"/>
          <note key="45" vol="200" pos="48" pan="0" len="12"/>
          <note key="45" vol="200" pos="60" pan="0" len="12"/>
          <note key="45" vol="200" pos="72" pan="0" len="24"/>
          <note key="45" vol="200" pos="96" pan="0" len="12"/>
          <note key="45" vol="200" pos="108" pan="0" len="12"/>
          <note key="45" vol="200" pos="120" pan="0" len="12"/>
          <note key="45" vol="200" pos="132" pan="0" len="12"/>
          <note key="45" vol="200" pos="144" pan="0" len="24"/>
          <note key="45" vol="200" pos="168" pan="0" len="12"/>
          <note key="45" vol="200" pos="180" pan="0" len="12"/>
          <note key="45" vol="200" pos="192" pan="0" len="30"/>
          <note key="45" vol="200" pos="240" pan="0" len="30"/>
          <note key="45" vol="200" pos="288" pan="0" len="30"/>
          <note key="45" vol="200" pos="336" pan="0" len="30"/>
        </pattern>
        <pattern muted="0" pos="23040" steps="16" name="bass fender jazz (1,379kb)" type="1">
          <note key="38" vol="200" pos="0" pan="0" len="72"/>
          <note key="38" vol="200" pos="72" pan="0" len="72"/>
          <note key="38" vol="200" pos="144" pan="0" len="48"/>
          <note key="38" vol="200" pos="192" pan="0" len="72"/>
          <note key="38" vol="200" pos="264" pan="0" len="72"/>
          <note key="38" vol="200" pos="336" pan="0" len="48"/>
          <note key="43" vol="200" pos="384" pan="0" len="72"/>
          <note key="43" vol="200" pos="456" pan="0" len="72"/>
          <note key="43" vol="200" pos="528" pan="0" len="48"/>
          <note key="45" vol="200" pos="576" pan="0" len="72"/>
          <note key="43" vol="200" pos="648" pan="0" len="72"/>
          <note key="45" vol="200" pos="720" pan="0" len="48"/>
        </pattern>
        <pattern muted="0" pos="23808" steps="16" name="bass fender jazz (1,379kb)" type="1">
          <note key="38" vol="200" pos="0" pan="0" len="72"/>
          <note key="38" vol="200" pos="72" pan="0" len="72"/>
          <note key="38" vol="200" pos="144" pan="0" len="48"/>
          <note key="38" vol="200" pos="192" pan="0" len="72"/>
          <note key="38" vol="200" pos="264" pan="0" len="72"/>
          <note key="38" vol="200" pos="336" pan="0" len="48"/>
          <note key="43" vol="200" pos="384" pan="0" len="72"/>
          <note key="43" vol="200" pos="456" pan="0" len="72"/>
          <note key="43" vol="200" pos="528" pan="0" len="48"/>
          <note key="45" vol="200" pos="576" pan="0" len="72"/>
          <note key="43" vol="200" pos="648" pan="0" len="72"/>
          <note key="45" vol="200" pos="720" pan="0" len="48"/>
        </pattern>
        <pattern muted="0" pos="24576" steps="16" name="bass fender jazz (1,379kb)" type="1">
          <note key="38" vol="200" pos="0" pan="0" len="72"/>
          <note key="38" vol="200" pos="72" pan="0" len="72"/>
          <note key="38" vol="200" pos="144" pan="0" len="48"/>
          <note key="38" vol="200" pos="192" pan="0" len="72"/>
          <note key="38" vol="200" pos="264" pan="0" len="72"/>
          <note key="38" vol="200" pos="336" pan="0" len="48"/>
          <note key="43" vol="200" pos="384" pan="0" len="72"/>
          <note key="43" vol="200" pos="456" pan="0" len="72"/>
          <note key="43" vol="200" pos="528" pan="0" len="48"/>
          <note key="45" vol="200" pos="576" pan="0" len="72"/>
          <note key="43" vol="200" pos="648" pan="0" len="72"/>
          <note key="45" vol="200" pos="720" pan="0" len="48"/>
        </pattern>
        <pattern muted="0" pos="28416" steps="16" name="bass fender jazz (1,379kb)" type="1">
          <note key="38" vol="200" pos="0" pan="0" len="384"/>
          <note key="45" vol="200" pos="384" pan="0" len="384"/>
          <note key="43" vol="200" pos="768" pan="0" len="384"/>
          <note key="38" vol="200" pos="1152" pan="0" len="192"/>
          <note key="45" vol="200" pos="1344" pan="0" len="192"/>
        </pattern>
        <pattern muted="0" pos="29952" steps="16" name="bass fender jazz (1,379kb)" type="1">
          <note key="38" vol="200" pos="0" pan="0" len="384"/>
          <note key="45" vol="200" pos="384" pan="0" len="384"/>
          <note key="43" vol="200" pos="768" pan="0" len="384"/>
          <note key="38" vol="200" pos="1152" pan="0" len="192"/>
          <note key="45" vol="200" pos="1344" pan="0" len="192"/>
        </pattern>
        <pattern muted="0" pos="21504" steps="16" name="bass fender jazz (1,379kb)" type="1">
          <note key="50" vol="200" pos="0" pan="0" len="24"/>
          <note key="50" vol="200" pos="24" pan="0" len="12"/>
          <note key="50" vol="200" pos="36" pan="0" len="12"/>
          <note key="50" vol="200" pos="48" pan="0" len="12"/>
          <note key="50" vol="200" pos="60" pan="0" len="12"/>
          <note key="50" vol="200" pos="72" pan="0" len="24"/>
          <note key="50" vol="200" pos="96" pan="0" len="12"/>
          <note key="50" vol="200" pos="108" pan="0" len="12"/>
          <note key="50" vol="200" pos="120" pan="0" len="12"/>
          <note key="50" vol="200" pos="132" pan="0" len="12"/>
          <note key="50" vol="200" pos="144" pan="0" len="24"/>
          <note key="50" vol="200" pos="168" pan="0" len="12"/>
          <note key="50" vol="200" pos="180" pan="0" len="12"/>
          <note key="50" vol="200" pos="192" pan="0" len="24"/>
          <note key="50" vol="200" pos="216" pan="0" len="12"/>
          <note key="50" vol="200" pos="228" pan="0" len="12"/>
          <note key="50" vol="200" pos="240" pan="0" len="12"/>
          <note key="50" vol="200" pos="252" pan="0" len="12"/>
          <note key="50" vol="200" pos="264" pan="0" len="24"/>
          <note key="50" vol="200" pos="288" pan="0" len="12"/>
          <note key="50" vol="200" pos="300" pan="0" len="12"/>
          <note key="50" vol="200" pos="312" pan="0" len="12"/>
          <note key="50" vol="200" pos="324" pan="0" len="12"/>
          <note key="50" vol="200" pos="336" pan="0" len="24"/>
          <note key="50" vol="200" pos="360" pan="0" len="12"/>
          <note key="50" vol="200" pos="372" pan="0" len="12"/>
        </pattern>
        <pattern muted="0" pos="21888" steps="16" name="bass fender jazz (1,379kb)" type="1">
          <note key="50" vol="200" pos="0" pan="0" len="24"/>
          <note key="50" vol="200" pos="24" pan="0" len="12"/>
          <note key="50" vol="200" pos="36" pan="0" len="12"/>
          <note key="50" vol="200" pos="48" pan="0" len="12"/>
          <note key="50" vol="200" pos="60" pan="0" len="12"/>
          <note key="50" vol="200" pos="72" pan="0" len="24"/>
          <note key="50" vol="200" pos="96" pan="0" len="12"/>
          <note key="50" vol="200" pos="108" pan="0" len="12"/>
          <note key="50" vol="200" pos="120" pan="0" len="12"/>
          <note key="50" vol="200" pos="132" pan="0" len="12"/>
          <note key="50" vol="200" pos="144" pan="0" len="24"/>
          <note key="50" vol="200" pos="168" pan="0" len="12"/>
          <note key="50" vol="200" pos="180" pan="0" len="12"/>
          <note key="45" vol="200" pos="192" pan="0" len="30"/>
          <note key="45" vol="200" pos="240" pan="0" len="30"/>
          <note key="45" vol="200" pos="288" pan="0" len="30"/>
          <note key="43" vol="200" pos="336" pan="0" len="30"/>
        </pattern>
        <pattern muted="0" pos="31488" steps="16" name="bass fender jazz (1,379kb)" type="1">
          <note key="50" vol="200" pos="0" pan="0" len="24"/>
          <note key="50" vol="200" pos="24" pan="0" len="12"/>
          <note key="50" vol="200" pos="36" pan="0" len="12"/>
          <note key="50" vol="200" pos="48" pan="0" len="12"/>
          <note key="50" vol="200" pos="60" pan="0" len="12"/>
          <note key="50" vol="200" pos="72" pan="0" len="24"/>
          <note key="50" vol="200" pos="96" pan="0" len="12"/>
          <note key="50" vol="200" pos="108" pan="0" len="12"/>
          <note key="50" vol="200" pos="120" pan="0" len="12"/>
          <note key="50" vol="200" pos="132" pan="0" len="12"/>
          <note key="50" vol="200" pos="144" pan="0" len="24"/>
          <note key="50" vol="200" pos="168" pan="0" len="12"/>
          <note key="50" vol="200" pos="180" pan="0" len="12"/>
          <note key="50" vol="200" pos="192" pan="0" len="24"/>
          <note key="50" vol="200" pos="216" pan="0" len="12"/>
          <note key="50" vol="200" pos="228" pan="0" len="12"/>
          <note key="50" vol="200" pos="240" pan="0" len="12"/>
          <note key="50" vol="200" pos="252" pan="0" len="12"/>
          <note key="50" vol="200" pos="264" pan="0" len="24"/>
          <note key="50" vol="200" pos="288" pan="0" len="12"/>
          <note key="50" vol="200" pos="300" pan="0" len="12"/>
          <note key="50" vol="200" pos="312" pan="0" len="12"/>
          <note key="50" vol="200" pos="324" pan="0" len="12"/>
          <note key="50" vol="200" pos="336" pan="0" len="24"/>
          <note key="50" vol="200" pos="360" pan="0" len="12"/>
          <note key="50" vol="200" pos="372" pan="0" len="12"/>
        </pattern>
        <pattern muted="0" pos="32256" steps="16" name="bass fender jazz (1,379kb)" type="1">
          <note key="38" vol="200" pos="0" pan="0" len="48"/>
          <note key="38" vol="200" pos="48" pan="0" len="48"/>
          <note key="38" vol="200" pos="96" pan="0" len="48"/>
          <note key="38" vol="200" pos="144" pan="0" len="24"/>
          <note key="38" vol="200" pos="168" pan="0" len="48"/>
          <note key="38" vol="200" pos="216" pan="0" len="24"/>
          <note key="38" vol="200" pos="240" pan="0" len="48"/>
          <note key="38" vol="200" pos="288" pan="0" len="24"/>
          <note key="38" vol="200" pos="312" pan="0" len="48"/>
          <note key="38" vol="200" pos="360" pan="0" len="24"/>
        </pattern>
        <pattern muted="0" pos="33024" steps="16" name="bass fender jazz (1,379kb)" type="1">
          <note key="38" vol="200" pos="0" pan="0" len="48"/>
          <note key="38" vol="200" pos="48" pan="0" len="48"/>
          <note key="38" vol="200" pos="96" pan="0" len="48"/>
          <note key="38" vol="200" pos="144" pan="0" len="24"/>
          <note key="38" vol="200" pos="168" pan="0" len="48"/>
          <note key="38" vol="200" pos="216" pan="0" len="24"/>
          <note key="38" vol="200" pos="240" pan="0" len="48"/>
          <note key="38" vol="200" pos="288" pan="0" len="24"/>
          <note key="38" vol="200" pos="312" pan="0" len="48"/>
          <note key="38" vol="200" pos="360" pan="0" len="24"/>
        </pattern>
        <pattern muted="0" pos="32640" steps="16" name="bass fender jazz (1,379kb)" type="1">
          <note key="43" vol="200" pos="0" pan="0" len="48"/>
          <note key="43" vol="200" pos="48" pan="0" len="48"/>
          <note key="43" vol="200" pos="96" pan="0" len="48"/>
          <note key="43" vol="200" pos="144" pan="0" len="24"/>
          <note key="45" vol="200" pos="168" pan="0" len="48"/>
          <note key="45" vol="200" pos="216" pan="0" len="24"/>
          <note key="45" vol="200" pos="240" pan="0" len="48"/>
          <note key="45" vol="200" pos="288" pan="0" len="24"/>
          <note key="45" vol="200" pos="312" pan="0" len="48"/>
          <note key="45" vol="200" pos="360" pan="0" len="24"/>
        </pattern>
        <pattern muted="0" pos="33408" steps="16" name="bass fender jazz (1,379kb)" type="1">
          <note key="43" vol="200" pos="0" pan="0" len="48"/>
          <note key="43" vol="200" pos="48" pan="0" len="48"/>
          <note key="43" vol="200" pos="96" pan="0" len="48"/>
          <note key="43" vol="200" pos="144" pan="0" len="24"/>
          <note key="45" vol="200" pos="168" pan="0" len="48"/>
          <note key="45" vol="200" pos="216" pan="0" len="24"/>
          <note key="45" vol="200" pos="240" pan="0" len="48"/>
          <note key="45" vol="200" pos="288" pan="0" len="48"/>
        </pattern>
        <pattern muted="0" pos="33792" steps="16" name="bass fender jazz (1,379kb)" type="1">
          <note key="38" vol="200" pos="0" pan="0" len="24"/>
          <note key="38" vol="200" pos="24" pan="0" len="24"/>
          <note key="38" vol="200" pos="48" pan="0" len="24"/>
          <note key="38" vol="200" pos="72" pan="0" len="24"/>
          <note key="38" vol="200" pos="96" pan="0" len="24"/>
          <note key="38" vol="200" pos="120" pan="0" len="24"/>
          <note key="38" vol="200" pos="144" pan="0" len="24"/>
          <note key="38" vol="200" pos="168" pan="0" len="24"/>
          <note key="38" vol="200" pos="192" pan="0" len="24"/>
          <note key="38" vol="200" pos="216" pan="0" len="24"/>
          <note key="38" vol="200" pos="240" pan="0" len="24"/>
          <note key="38" vol="200" pos="264" pan="0" len="24"/>
          <note key="38" vol="200" pos="288" pan="0" len="24"/>
          <note key="38" vol="200" pos="312" pan="0" len="24"/>
          <note key="38" vol="200" pos="336" pan="0" len="24"/>
          <note key="38" vol="200" pos="360" pan="0" len="24"/>
        </pattern>
        <pattern muted="0" pos="34176" steps="16" name="bass fender jazz (1,379kb)" type="1">
          <note key="43" vol="200" pos="0" pan="0" len="24"/>
          <note key="43" vol="200" pos="24" pan="0" len="24"/>
          <note key="43" vol="200" pos="48" pan="0" len="24"/>
          <note key="43" vol="200" pos="72" pan="0" len="24"/>
          <note key="43" vol="200" pos="96" pan="0" len="24"/>
          <note key="43" vol="200" pos="120" pan="0" len="24"/>
          <note key="43" vol="200" pos="144" pan="0" len="24"/>
          <note key="43" vol="200" pos="168" pan="0" len="24"/>
          <note key="45" vol="200" pos="192" pan="0" len="24"/>
          <note key="45" vol="200" pos="216" pan="0" len="24"/>
          <note key="45" vol="200" pos="240" pan="0" len="24"/>
          <note key="45" vol="200" pos="264" pan="0" len="24"/>
          <note key="45" vol="200" pos="288" pan="0" len="24"/>
          <note key="45" vol="200" pos="312" pan="0" len="24"/>
          <note key="45" vol="200" pos="336" pan="0" len="24"/>
          <note key="45" vol="200" pos="360" pan="0" len="24"/>
        </pattern>
        <pattern muted="0" pos="34560" steps="16" name="bass fender jazz (1,379kb)" type="1">
          <note key="38" vol="200" pos="0" pan="0" len="24"/>
          <note key="38" vol="200" pos="24" pan="0" len="24"/>
          <note key="38" vol="200" pos="48" pan="0" len="24"/>
          <note key="38" vol="200" pos="72" pan="0" len="24"/>
          <note key="38" vol="200" pos="96" pan="0" len="24"/>
          <note key="38" vol="200" pos="120" pan="0" len="24"/>
          <note key="38" vol="200" pos="144" pan="0" len="24"/>
          <note key="38" vol="200" pos="168" pan="0" len="24"/>
          <note key="38" vol="200" pos="192" pan="0" len="24"/>
          <note key="38" vol="200" pos="216" pan="0" len="24"/>
          <note key="38" vol="200" pos="240" pan="0" len="24"/>
          <note key="38" vol="200" pos="264" pan="0" len="24"/>
          <note key="38" vol="200" pos="288" pan="0" len="24"/>
          <note key="38" vol="200" pos="312" pan="0" len="24"/>
          <note key="38" vol="200" pos="336" pan="0" len="24"/>
          <note key="38" vol="200" pos="360" pan="0" len="24"/>
        </pattern>
        <pattern muted="0" pos="34944" steps="16" name="bass fender jazz (1,379kb)" type="1">
          <note key="43" vol="200" pos="0" pan="0" len="24"/>
          <note key="43" vol="200" pos="24" pan="0" len="24"/>
          <note key="43" vol="200" pos="48" pan="0" len="24"/>
          <note key="43" vol="200" pos="72" pan="0" len="24"/>
          <note key="43" vol="200" pos="96" pan="0" len="24"/>
          <note key="43" vol="200" pos="120" pan="0" len="24"/>
          <note key="43" vol="200" pos="144" pan="0" len="24"/>
          <note key="43" vol="200" pos="168" pan="0" len="24"/>
          <note key="45" vol="200" pos="192" pan="0" len="24"/>
          <note key="45" vol="200" pos="216" pan="0" len="24"/>
          <note key="45" vol="200" pos="240" pan="0" len="24"/>
          <note key="45" vol="200" pos="264" pan="0" len="24"/>
          <note key="45" vol="200" pos="288" pan="0" len="48"/>
          <note key="45" vol="200" pos="336" pan="0" len="48"/>
        </pattern>
        <pattern muted="0" pos="35328" steps="16" name="bass fender jazz (1,379kb)" type="1">
          <note key="35" vol="200" pos="0" pan="0" len="24"/>
          <note key="35" vol="200" pos="24" pan="0" len="12"/>
          <note key="35" vol="200" pos="36" pan="0" len="12"/>
          <note key="35" vol="200" pos="48" pan="0" len="12"/>
          <note key="35" vol="200" pos="60" pan="0" len="12"/>
          <note key="35" vol="200" pos="72" pan="0" len="24"/>
          <note key="35" vol="200" pos="96" pan="0" len="12"/>
          <note key="35" vol="200" pos="108" pan="0" len="12"/>
          <note key="35" vol="200" pos="120" pan="0" len="12"/>
          <note key="35" vol="200" pos="132" pan="0" len="12"/>
          <note key="35" vol="200" pos="144" pan="0" len="12"/>
          <note key="35" vol="200" pos="156" pan="0" len="12"/>
          <note key="35" vol="200" pos="168" pan="0" len="12"/>
          <note key="35" vol="200" pos="180" pan="0" len="12"/>
          <note key="35" vol="200" pos="192" pan="0" len="24"/>
          <note key="35" vol="200" pos="216" pan="0" len="12"/>
          <note key="35" vol="200" pos="228" pan="0" len="12"/>
          <note key="35" vol="200" pos="240" pan="0" len="12"/>
          <note key="35" vol="200" pos="252" pan="0" len="12"/>
          <note key="35" vol="200" pos="264" pan="0" len="24"/>
          <note key="35" vol="200" pos="288" pan="0" len="12"/>
          <note key="35" vol="200" pos="300" pan="0" len="12"/>
          <note key="35" vol="200" pos="312" pan="0" len="12"/>
          <note key="35" vol="200" pos="324" pan="0" len="12"/>
          <note key="35" vol="200" pos="336" pan="0" len="12"/>
          <note key="35" vol="200" pos="348" pan="0" len="12"/>
          <note key="35" vol="200" pos="360" pan="0" len="12"/>
          <note key="35" vol="200" pos="372" pan="0" len="12"/>
          <note key="43" vol="200" pos="384" pan="0" len="24"/>
          <note key="43" vol="200" pos="408" pan="0" len="12"/>
          <note key="43" vol="200" pos="420" pan="0" len="12"/>
          <note key="43" vol="200" pos="432" pan="0" len="12"/>
          <note key="43" vol="200" pos="444" pan="0" len="12"/>
          <note key="43" vol="200" pos="456" pan="0" len="24"/>
          <note key="43" vol="200" pos="480" pan="0" len="12"/>
          <note key="43" vol="200" pos="492" pan="0" len="12"/>
          <note key="43" vol="200" pos="504" pan="0" len="12"/>
          <note key="43" vol="200" pos="516" pan="0" len="12"/>
          <note key="43" vol="200" pos="528" pan="0" len="12"/>
          <note key="43" vol="200" pos="540" pan="0" len="12"/>
          <note key="43" vol="200" pos="552" pan="0" len="12"/>
          <note key="43" vol="200" pos="564" pan="0" len="12"/>
          <note key="43" vol="200" pos="576" pan="0" len="24"/>
          <note key="43" vol="200" pos="600" pan="0" len="12"/>
          <note key="43" vol="200" pos="612" pan="0" len="12"/>
          <note key="43" vol="200" pos="624" pan="0" len="12"/>
          <note key="43" vol="200" pos="636" pan="0" len="12"/>
          <note key="43" vol="200" pos="648" pan="0" len="24"/>
          <note key="43" vol="200" pos="672" pan="0" len="12"/>
          <note key="43" vol="200" pos="684" pan="0" len="12"/>
          <note key="43" vol="200" pos="696" pan="0" len="12"/>
          <note key="43" vol="200" pos="708" pan="0" len="12"/>
          <note key="43" vol="200" pos="720" pan="0" len="12"/>
          <note key="43" vol="200" pos="732" pan="0" len="12"/>
          <note key="43" vol="200" pos="744" pan="0" len="12"/>
          <note key="43" vol="200" pos="756" pan="0" len="12"/>
          <note key="45" vol="200" pos="768" pan="0" len="24"/>
          <note key="45" vol="200" pos="792" pan="0" len="12"/>
          <note key="45" vol="200" pos="804" pan="0" len="12"/>
          <note key="45" vol="200" pos="816" pan="0" len="12"/>
          <note key="45" vol="200" pos="828" pan="0" len="12"/>
          <note key="45" vol="200" pos="840" pan="0" len="24"/>
          <note key="45" vol="200" pos="864" pan="0" len="12"/>
          <note key="45" vol="200" pos="876" pan="0" len="12"/>
          <note key="45" vol="200" pos="888" pan="0" len="12"/>
          <note key="45" vol="200" pos="900" pan="0" len="12"/>
          <note key="45" vol="200" pos="912" pan="0" len="12"/>
          <note key="45" vol="200" pos="924" pan="0" len="12"/>
          <note key="45" vol="200" pos="936" pan="0" len="12"/>
          <note key="45" vol="200" pos="948" pan="0" len="12"/>
          <note key="45" vol="200" pos="960" pan="0" len="24"/>
          <note key="45" vol="200" pos="984" pan="0" len="12"/>
          <note key="45" vol="200" pos="996" pan="0" len="12"/>
          <note key="45" vol="200" pos="1008" pan="0" len="12"/>
          <note key="45" vol="200" pos="1020" pan="0" len="12"/>
          <note key="45" vol="200" pos="1032" pan="0" len="24"/>
          <note key="45" vol="200" pos="1056" pan="0" len="12"/>
          <note key="45" vol="200" pos="1068" pan="0" len="12"/>
          <note key="45" vol="200" pos="1080" pan="0" len="12"/>
          <note key="45" vol="200" pos="1092" pan="0" len="12"/>
          <note key="45" vol="200" pos="1104" pan="0" len="12"/>
          <note key="45" vol="200" pos="1116" pan="0" len="12"/>
          <note key="45" vol="200" pos="1128" pan="0" len="12"/>
          <note key="45" vol="200" pos="1140" pan="0" len="12"/>
          <note key="38" vol="200" pos="1152" pan="0" len="24"/>
          <note key="38" vol="200" pos="1176" pan="0" len="12"/>
          <note key="38" vol="200" pos="1188" pan="0" len="12"/>
          <note key="38" vol="200" pos="1200" pan="0" len="12"/>
          <note key="38" vol="200" pos="1212" pan="0" len="12"/>
          <note key="38" vol="200" pos="1224" pan="0" len="24"/>
          <note key="38" vol="200" pos="1248" pan="0" len="12"/>
          <note key="38" vol="200" pos="1260" pan="0" len="12"/>
          <note key="38" vol="200" pos="1272" pan="0" len="12"/>
          <note key="38" vol="200" pos="1284" pan="0" len="12"/>
          <note key="38" vol="200" pos="1296" pan="0" len="12"/>
          <note key="38" vol="200" pos="1308" pan="0" len="12"/>
          <note key="38" vol="200" pos="1320" pan="0" len="12"/>
          <note key="38" vol="200" pos="1332" pan="0" len="12"/>
          <note key="38" vol="200" pos="1344" pan="0" len="24"/>
          <note key="38" vol="200" pos="1368" pan="0" len="12"/>
          <note key="38" vol="200" pos="1380" pan="0" len="12"/>
          <note key="38" vol="200" pos="1392" pan="0" len="12"/>
          <note key="38" vol="200" pos="1404" pan="0" len="12"/>
          <note key="38" vol="200" pos="1416" pan="0" len="24"/>
          <note key="38" vol="200" pos="1440" pan="0" len="12"/>
          <note key="38" vol="200" pos="1452" pan="0" len="12"/>
          <note key="38" vol="200" pos="1464" pan="0" len="12"/>
          <note key="38" vol="200" pos="1476" pan="0" len="12"/>
          <note key="38" vol="200" pos="1488" pan="0" len="12"/>
          <note key="38" vol="200" pos="1500" pan="0" len="12"/>
          <note key="38" vol="200" pos="1512" pan="0" len="12"/>
          <note key="38" vol="200" pos="1524" pan="0" len="12"/>
        </pattern>
        <pattern muted="0" pos="36864" steps="16" name="bass fender jazz (1,379kb)" type="1">
          <note key="35" vol="200" pos="0" pan="0" len="24"/>
          <note key="35" vol="200" pos="24" pan="0" len="12"/>
          <note key="35" vol="200" pos="36" pan="0" len="12"/>
          <note key="35" vol="200" pos="48" pan="0" len="12"/>
          <note key="35" vol="200" pos="60" pan="0" len="12"/>
          <note key="35" vol="200" pos="72" pan="0" len="24"/>
          <note key="35" vol="200" pos="96" pan="0" len="12"/>
          <note key="35" vol="200" pos="108" pan="0" len="12"/>
          <note key="35" vol="200" pos="120" pan="0" len="12"/>
          <note key="35" vol="200" pos="132" pan="0" len="12"/>
          <note key="35" vol="200" pos="144" pan="0" len="12"/>
          <note key="35" vol="200" pos="156" pan="0" len="12"/>
          <note key="35" vol="200" pos="168" pan="0" len="12"/>
          <note key="35" vol="200" pos="180" pan="0" len="12"/>
          <note key="35" vol="200" pos="192" pan="0" len="24"/>
          <note key="35" vol="200" pos="216" pan="0" len="12"/>
          <note key="35" vol="200" pos="228" pan="0" len="12"/>
          <note key="35" vol="200" pos="240" pan="0" len="12"/>
          <note key="35" vol="200" pos="252" pan="0" len="12"/>
          <note key="35" vol="200" pos="264" pan="0" len="24"/>
          <note key="35" vol="200" pos="288" pan="0" len="12"/>
          <note key="35" vol="200" pos="300" pan="0" len="12"/>
          <note key="35" vol="200" pos="312" pan="0" len="12"/>
          <note key="35" vol="200" pos="324" pan="0" len="12"/>
          <note key="35" vol="200" pos="336" pan="0" len="12"/>
          <note key="35" vol="200" pos="348" pan="0" len="12"/>
          <note key="35" vol="200" pos="360" pan="0" len="12"/>
          <note key="35" vol="200" pos="372" pan="0" len="12"/>
          <note key="43" vol="200" pos="384" pan="0" len="24"/>
          <note key="43" vol="200" pos="408" pan="0" len="12"/>
          <note key="43" vol="200" pos="420" pan="0" len="12"/>
          <note key="43" vol="200" pos="432" pan="0" len="12"/>
          <note key="43" vol="200" pos="444" pan="0" len="12"/>
          <note key="43" vol="200" pos="456" pan="0" len="24"/>
          <note key="43" vol="200" pos="480" pan="0" len="12"/>
          <note key="43" vol="200" pos="492" pan="0" len="12"/>
          <note key="43" vol="200" pos="504" pan="0" len="12"/>
          <note key="43" vol="200" pos="516" pan="0" len="12"/>
          <note key="43" vol="200" pos="528" pan="0" len="12"/>
          <note key="43" vol="200" pos="540" pan="0" len="12"/>
          <note key="43" vol="200" pos="552" pan="0" len="12"/>
          <note key="43" vol="200" pos="564" pan="0" len="12"/>
          <note key="43" vol="200" pos="576" pan="0" len="24"/>
          <note key="43" vol="200" pos="600" pan="0" len="12"/>
          <note key="43" vol="200" pos="612" pan="0" len="12"/>
          <note key="43" vol="200" pos="624" pan="0" len="12"/>
          <note key="43" vol="200" pos="636" pan="0" len="12"/>
          <note key="43" vol="200" pos="648" pan="0" len="24"/>
          <note key="43" vol="200" pos="672" pan="0" len="12"/>
          <note key="43" vol="200" pos="684" pan="0" len="12"/>
          <note key="43" vol="200" pos="696" pan="0" len="12"/>
          <note key="43" vol="200" pos="708" pan="0" len="12"/>
          <note key="43" vol="200" pos="720" pan="0" len="12"/>
          <note key="43" vol="200" pos="732" pan="0" len="12"/>
          <note key="43" vol="200" pos="744" pan="0" len="12"/>
          <note key="43" vol="200" pos="756" pan="0" len="12"/>
          <note key="45" vol="200" pos="768" pan="0" len="24"/>
          <note key="45" vol="200" pos="792" pan="0" len="12"/>
          <note key="45" vol="200" pos="804" pan="0" len="12"/>
          <note key="45" vol="200" pos="816" pan="0" len="12"/>
          <note key="45" vol="200" pos="828" pan="0" len="12"/>
          <note key="45" vol="200" pos="840" pan="0" len="24"/>
          <note key="45" vol="200" pos="864" pan="0" len="12"/>
          <note key="45" vol="200" pos="876" pan="0" len="12"/>
          <note key="45" vol="200" pos="888" pan="0" len="12"/>
          <note key="45" vol="200" pos="900" pan="0" len="12"/>
          <note key="45" vol="200" pos="912" pan="0" len="12"/>
          <note key="45" vol="200" pos="924" pan="0" len="12"/>
          <note key="45" vol="200" pos="936" pan="0" len="12"/>
          <note key="45" vol="200" pos="948" pan="0" len="12"/>
          <note key="45" vol="200" pos="960" pan="0" len="24"/>
          <note key="45" vol="200" pos="984" pan="0" len="12"/>
          <note key="45" vol="200" pos="996" pan="0" len="12"/>
          <note key="45" vol="200" pos="1008" pan="0" len="12"/>
          <note key="45" vol="200" pos="1020" pan="0" len="12"/>
          <note key="45" vol="200" pos="1032" pan="0" len="24"/>
          <note key="45" vol="200" pos="1056" pan="0" len="12"/>
          <note key="45" vol="200" pos="1068" pan="0" len="12"/>
          <note key="45" vol="200" pos="1080" pan="0" len="12"/>
          <note key="45" vol="200" pos="1092" pan="0" len="12"/>
          <note key="45" vol="200" pos="1104" pan="0" len="12"/>
          <note key="45" vol="200" pos="1116" pan="0" len="12"/>
          <note key="45" vol="200" pos="1128" pan="0" len="12"/>
          <note key="45" vol="200" pos="1140" pan="0" len="12"/>
          <note key="45" vol="200" pos="1152" pan="0" len="12"/>
          <note key="45" vol="200" pos="1164" pan="0" len="12"/>
          <note key="45" vol="200" pos="1176" pan="0" len="12"/>
          <note key="45" vol="200" pos="1188" pan="0" len="12"/>
          <note key="45" vol="200" pos="1200" pan="0" len="12"/>
          <note key="45" vol="200" pos="1212" pan="0" len="12"/>
          <note key="45" vol="200" pos="1224" pan="0" len="12"/>
          <note key="45" vol="200" pos="1236" pan="0" len="12"/>
          <note key="45" vol="200" pos="1248" pan="0" len="12"/>
          <note key="45" vol="200" pos="1260" pan="0" len="12"/>
          <note key="45" vol="200" pos="1272" pan="0" len="12"/>
          <note key="45" vol="200" pos="1284" pan="0" len="12"/>
          <note key="45" vol="200" pos="1296" pan="0" len="12"/>
          <note key="45" vol="200" pos="1308" pan="0" len="12"/>
          <note key="45" vol="200" pos="1320" pan="0" len="12"/>
          <note key="45" vol="200" pos="1332" pan="0" len="12"/>
          <note key="45" vol="200" pos="1344" pan="0" len="30"/>
          <note key="45" vol="200" pos="1392" pan="0" len="30"/>
          <note key="45" vol="200" pos="1440" pan="0" len="30"/>
          <note key="45" vol="200" pos="1488" pan="0" len="30"/>
        </pattern>
        <pattern muted="0" pos="38400" steps="16" name="bass fender jazz (1,379kb)" type="1">
          <note key="38" vol="200" pos="0" pan="0" len="384"/>
          <note key="45" vol="200" pos="384" pan="0" len="384"/>
          <note key="43" vol="200" pos="768" pan="0" len="384"/>
          <note key="38" vol="200" pos="1152" pan="0" len="192"/>
          <note key="45" vol="200" pos="1344" pan="0" len="192"/>
        </pattern>
        <pattern muted="0" pos="39936" steps="16" name="bass fender jazz (1,379kb)" type="1">
          <note key="38" vol="200" pos="0" pan="0" len="384"/>
          <note key="45" vol="200" pos="384" pan="0" len="384"/>
          <note key="43" vol="200" pos="768" pan="0" len="384"/>
          <note key="38" vol="200" pos="1152" pan="0" len="192"/>
          <note key="45" vol="200" pos="1344" pan="0" len="192"/>
        </pattern>
        <pattern muted="0" pos="41472" steps="16" name="bass fender jazz (1,379kb)" type="1">
          <note key="38" vol="200" pos="0" pan="0" len="24"/>
          <note key="38" vol="200" pos="24" pan="0" len="12"/>
          <note key="38" vol="200" pos="36" pan="0" len="12"/>
          <note key="38" vol="200" pos="48" pan="0" len="12"/>
          <note key="38" vol="200" pos="60" pan="0" len="12"/>
          <note key="38" vol="200" pos="72" pan="0" len="24"/>
          <note key="38" vol="200" pos="96" pan="0" len="12"/>
          <note key="38" vol="200" pos="108" pan="0" len="12"/>
          <note key="38" vol="200" pos="120" pan="0" len="12"/>
          <note key="38" vol="200" pos="132" pan="0" len="12"/>
          <note key="38" vol="200" pos="144" pan="0" len="24"/>
          <note key="38" vol="200" pos="168" pan="0" len="12"/>
          <note key="38" vol="200" pos="180" pan="0" len="12"/>
          <note key="38" vol="200" pos="192" pan="0" len="24"/>
          <note key="38" vol="200" pos="216" pan="0" len="12"/>
          <note key="38" vol="200" pos="228" pan="0" len="12"/>
          <note key="38" vol="200" pos="240" pan="0" len="12"/>
          <note key="38" vol="200" pos="252" pan="0" len="12"/>
          <note key="38" vol="200" pos="264" pan="0" len="24"/>
          <note key="38" vol="200" pos="288" pan="0" len="12"/>
          <note key="38" vol="200" pos="300" pan="0" len="12"/>
          <note key="38" vol="200" pos="312" pan="0" len="12"/>
          <note key="38" vol="200" pos="324" pan="0" len="12"/>
          <note key="38" vol="200" pos="336" pan="0" len="24"/>
          <note key="38" vol="200" pos="360" pan="0" len="12"/>
          <note key="38" vol="200" pos="372" pan="0" len="12"/>
          <note key="45" vol="200" pos="384" pan="0" len="24"/>
          <note key="45" vol="200" pos="408" pan="0" len="12"/>
          <note key="45" vol="200" pos="420" pan="0" len="12"/>
          <note key="45" vol="200" pos="432" pan="0" len="12"/>
          <note key="45" vol="200" pos="444" pan="0" len="12"/>
          <note key="45" vol="200" pos="456" pan="0" len="24"/>
          <note key="45" vol="200" pos="480" pan="0" len="12"/>
          <note key="45" vol="200" pos="492" pan="0" len="12"/>
          <note key="45" vol="200" pos="504" pan="0" len="12"/>
          <note key="45" vol="200" pos="516" pan="0" len="12"/>
          <note key="45" vol="200" pos="528" pan="0" len="24"/>
          <note key="45" vol="200" pos="552" pan="0" len="12"/>
          <note key="45" vol="200" pos="564" pan="0" len="12"/>
          <note key="45" vol="200" pos="576" pan="0" len="24"/>
          <note key="45" vol="200" pos="600" pan="0" len="12"/>
          <note key="45" vol="200" pos="612" pan="0" len="12"/>
          <note key="45" vol="200" pos="624" pan="0" len="12"/>
          <note key="45" vol="200" pos="636" pan="0" len="12"/>
          <note key="45" vol="200" pos="648" pan="0" len="24"/>
          <note key="45" vol="200" pos="672" pan="0" len="12"/>
          <note key="45" vol="200" pos="684" pan="0" len="12"/>
          <note key="45" vol="200" pos="696" pan="0" len="12"/>
          <note key="45" vol="200" pos="708" pan="0" len="12"/>
          <note key="45" vol="200" pos="720" pan="0" len="24"/>
          <note key="45" vol="200" pos="744" pan="0" len="12"/>
          <note key="45" vol="200" pos="756" pan="0" len="12"/>
          <note key="43" vol="200" pos="768" pan="0" len="24"/>
          <note key="43" vol="200" pos="792" pan="0" len="12"/>
          <note key="43" vol="200" pos="804" pan="0" len="12"/>
          <note key="43" vol="200" pos="816" pan="0" len="12"/>
          <note key="43" vol="200" pos="828" pan="0" len="12"/>
          <note key="43" vol="200" pos="840" pan="0" len="24"/>
          <note key="43" vol="200" pos="864" pan="0" len="12"/>
          <note key="43" vol="200" pos="876" pan="0" len="12"/>
          <note key="43" vol="200" pos="888" pan="0" len="12"/>
          <note key="43" vol="200" pos="900" pan="0" len="12"/>
          <note key="43" vol="200" pos="912" pan="0" len="24"/>
          <note key="43" vol="200" pos="936" pan="0" len="12"/>
          <note key="43" vol="200" pos="948" pan="0" len="12"/>
          <note key="43" vol="200" pos="960" pan="0" len="24"/>
          <note key="43" vol="200" pos="984" pan="0" len="12"/>
          <note key="43" vol="200" pos="996" pan="0" len="12"/>
          <note key="43" vol="200" pos="1008" pan="0" len="12"/>
          <note key="43" vol="200" pos="1020" pan="0" len="12"/>
          <note key="43" vol="200" pos="1032" pan="0" len="24"/>
          <note key="43" vol="200" pos="1056" pan="0" len="12"/>
          <note key="43" vol="200" pos="1068" pan="0" len="12"/>
          <note key="43" vol="200" pos="1080" pan="0" len="12"/>
          <note key="43" vol="200" pos="1092" pan="0" len="12"/>
          <note key="43" vol="200" pos="1104" pan="0" len="24"/>
          <note key="43" vol="200" pos="1128" pan="0" len="12"/>
          <note key="43" vol="200" pos="1140" pan="0" len="12"/>
          <note key="38" vol="200" pos="1152" pan="0" len="24"/>
          <note key="38" vol="200" pos="1176" pan="0" len="12"/>
          <note key="38" vol="200" pos="1188" pan="0" len="12"/>
          <note key="38" vol="200" pos="1200" pan="0" len="12"/>
          <note key="38" vol="200" pos="1212" pan="0" len="12"/>
          <note key="38" vol="200" pos="1224" pan="0" len="24"/>
          <note key="38" vol="200" pos="1248" pan="0" len="12"/>
          <note key="38" vol="200" pos="1260" pan="0" len="12"/>
          <note key="38" vol="200" pos="1272" pan="0" len="12"/>
          <note key="38" vol="200" pos="1284" pan="0" len="12"/>
          <note key="38" vol="200" pos="1296" pan="0" len="24"/>
          <note key="38" vol="200" pos="1320" pan="0" len="12"/>
          <note key="38" vol="200" pos="1332" pan="0" len="12"/>
          <note key="45" vol="200" pos="1344" pan="0" len="24"/>
          <note key="45" vol="200" pos="1368" pan="0" len="12"/>
          <note key="45" vol="200" pos="1380" pan="0" len="12"/>
          <note key="45" vol="200" pos="1392" pan="0" len="12"/>
          <note key="45" vol="200" pos="1404" pan="0" len="12"/>
          <note key="45" vol="200" pos="1416" pan="0" len="24"/>
          <note key="45" vol="200" pos="1440" pan="0" len="12"/>
          <note key="45" vol="200" pos="1452" pan="0" len="12"/>
          <note key="45" vol="200" pos="1464" pan="0" len="12"/>
          <note key="45" vol="200" pos="1476" pan="0" len="12"/>
          <note key="45" vol="200" pos="1488" pan="0" len="24"/>
          <note key="45" vol="200" pos="1512" pan="0" len="12"/>
          <note key="45" vol="200" pos="1524" pan="0" len="12"/>
        </pattern>
        <pattern muted="0" pos="43008" steps="16" name="bass fender jazz (1,379kb)" type="1">
          <note key="35" vol="200" pos="0" pan="0" len="384"/>
          <note key="35" vol="200" pos="384" pan="0" len="384"/>
        </pattern>
        <pattern muted="0" pos="44544" steps="16" name="bass fender jazz (1,379kb)" type="1">
          <note key="35" vol="200" pos="0" pan="0" len="384"/>
          <note key="35" vol="200" pos="384" pan="0" len="384"/>
        </pattern>
        <pattern muted="0" pos="43776" steps="16" name="bass fender jazz (1,379kb)" type="1">
          <note key="43" vol="200" pos="0" pan="0" len="384"/>
          <note key="43" vol="200" pos="384" pan="0" len="384"/>
        </pattern>
        <pattern muted="0" pos="45312" steps="16" name="bass fender jazz (1,379kb)" type="1">
          <note key="43" vol="200" pos="0" pan="0" len="384"/>
          <note key="45" vol="200" pos="384" pan="0" len="384"/>
        </pattern>
        <pattern muted="0" pos="46080" steps="16" name="bass fender jazz (1,379kb)" type="1">
          <note key="35" vol="200" pos="0" pan="0" len="384"/>
        </pattern>
        <pattern muted="0" pos="31872" steps="16" name="bass fender jazz (1,379kb)" type="1">
          <note key="50" vol="200" pos="0" pan="0" len="24"/>
          <note key="50" vol="200" pos="24" pan="0" len="12"/>
          <note key="50" vol="200" pos="36" pan="0" len="12"/>
          <note key="50" vol="200" pos="48" pan="0" len="12"/>
          <note key="50" vol="200" pos="60" pan="0" len="12"/>
          <note key="50" vol="200" pos="72" pan="0" len="24"/>
          <note key="50" vol="200" pos="96" pan="0" len="12"/>
          <note key="50" vol="200" pos="108" pan="0" len="12"/>
          <note key="50" vol="200" pos="120" pan="0" len="12"/>
          <note key="50" vol="200" pos="132" pan="0" len="12"/>
          <note key="50" vol="200" pos="144" pan="0" len="24"/>
          <note key="50" vol="200" pos="168" pan="0" len="12"/>
          <note key="50" vol="200" pos="180" pan="0" len="12"/>
          <note key="45" vol="200" pos="192" pan="0" len="30"/>
          <note key="45" vol="200" pos="240" pan="0" len="30"/>
          <note key="45" vol="200" pos="288" pan="0" len="30"/>
          <note key="43" vol="200" pos="336" pan="0" len="30"/>
        </pattern>
      </track>
      <track muted="1" solo="0" name="Rhythm Guitar" type="0">
        <instrumenttrack fxch="11" usemasterpitch="1" vol="200" pitch="0" pitchrange="1" pan="0" basenote="57">
          <instrument name="carlapatchbay">
            <carlapatchbay>
              <CARLA-PROJECT VERSION="2.2">
                <EngineSettings>
                  <ForceStereo>false</ForceStereo>
                  <PreferPluginBridges>false</PreferPluginBridges>
                  <PreferUiBridges>true</PreferUiBridges>
                  <UIsAlwaysOnTop>false</UIsAlwaysOnTop>
                  <MaxParameters>200</MaxParameters>
                  <UIBridgesTimeout>4000</UIBridgesTimeout>
                  <LADSPA_PATH>/home/pass/.ladspa:/usr/lib/ladspa:/usr/local/lib/ladspa</LADSPA_PATH>
                  <DSSI_PATH>/home/pass/.dssi:/usr/lib/dssi:/usr/local/lib/dssi</DSSI_PATH>
                  <LV2_PATH>/home/pass/.lv2:/usr/lib/lv2:/usr/local/lib/lv2</LV2_PATH>
                  <VST2_PATH>/home/pass/.vst:/home/pass/.wine/drive_c/Program Files (x86)/VstPlugins:/home/pass/.wine/drive_c/Program Files/VstPlugins:/home/pass/vst:/usr/lib/lxvst:/usr/lib/vst:/usr/local/lib/lxvst:/usr/local/lib/vst/home/pass/.lxvst</VST2_PATH>
                  <VST3_PATH>/home/pass/.vst3:/home/pass/.wine/drive_c/Program Files (x86)/Common Files/VST3:/home/pass/.wine/drive_c/Program Files/Common Files/VST3:/usr/lib/vst3:/usr/local/lib/vst3</VST3_PATH>
                  <SF2_PATH>/home/pass/.sounds/sf2/home/pass/.sounds/sf3:/usr/share/soundfonts:/usr/share/sounds/sf2:/usr/share/sounds/sf3</SF2_PATH>
                  <SFZ_PATH>/home/pass/.sounds/sfz:/home/pass/samples:/usr/share/sounds/sfz</SFZ_PATH>
                </EngineSettings>
                <!-- sfizz -->
                <Plugin>
                  <Info>
                    <Type>LV2</Type>
                    <Name>sfizz</Name>
                    <URI>http://sfztools.github.io/sfizz</URI>
                  </Info>
                  <Data>
                    <Active>Yes</Active>
                    <ControlChannel>1</ControlChannel>
                    <Options>0x3f0</Options>
                    <Parameter>
                      <Index>0</Index>
                      <Name>Volume</Name>
                      <Symbol>volume</Symbol>
                      <Value>0</Value>
                    </Parameter>
                    <Parameter>
                      <Index>1</Index>
                      <Name>Polyphony</Name>
                      <Symbol>num_voices</Symbol>
                      <Value>64</Value>
                    </Parameter>
                    <Parameter>
                      <Index>2</Index>
                      <Name>Internal oversampling factor</Name>
                      <Symbol>oversampling</Symbol>
                      <Value>1</Value>
                    </Parameter>
                    <Parameter>
                      <Index>3</Index>
                      <Name>Preload size</Name>
                      <Symbol>preload_size</Symbol>
                      <Value>8192</Value>
                    </Parameter>
                    <Parameter>
                      <Index>5</Index>
                      <Name>Scala root key</Name>
                      <Symbol>scala_root_key</Symbol>
                      <Value>60</Value>
                    </Parameter>
                    <Parameter>
                      <Index>6</Index>
                      <Name>Tuning frequency</Name>
                      <Symbol>tuning_frequency</Symbol>
                      <Value>440</Value>
                    </Parameter>
                    <Parameter>
                      <Index>7</Index>
                      <Name>Stretched tuning</Name>
                      <Symbol>stretched_tuning</Symbol>
                      <Value>0</Value>
                    </Parameter>
                    <CustomData>
                      <Type>http://lv2plug.in/ns/ext/atom#Path</Type>
                      <Key>http://sfztools.github.io/sfizz:sfzfile</Key>
                      <Value>_fakeguitar1_integrated.sfz</Value>
                    </CustomData>
                    <CustomData>
                      <Type>http://lv2plug.in/ns/ext/atom#Int</Type>
                      <Key>http://sfztools.github.io/sfizz:numvoices</Key>
                      <Value>QAAAAA==</Value>
                    </CustomData>
                    <CustomData>
                      <Type>http://lv2plug.in/ns/ext/atom#Int</Type>
                      <Key>http://sfztools.github.io/sfizz:preload_size</Key>
                      <Value>ACAAAA==</Value>
                    </CustomData>
                    <CustomData>
                      <Type>http://lv2plug.in/ns/ext/atom#Int</Type>
                      <Key>http://sfztools.github.io/sfizz:oversampling</Key>
                      <Value>AQAAAA==</Value>
                    </CustomData>
                    <CustomData>
                      <Type>http://lv2plug.in/ns/ext/atom#Path</Type>
                      <Key>http://sfztools.github.io/sfizz:tuningfile</Key>
                      <Value>DefaultScale.scl</Value>
                    </CustomData>
                  </Data>
                </Plugin>
                <!-- sfizz -->
                <Plugin>
                  <Info>
                    <Type>LV2</Type>
                    <Name>sfizz (2)</Name>
                    <URI>http://sfztools.github.io/sfizz</URI>
                  </Info>
                  <Data>
                    <Active>Yes</Active>
                    <ControlChannel>1</ControlChannel>
                    <Options>0x3f0</Options>
                    <Parameter>
                      <Index>0</Index>
                      <Name>Volume</Name>
                      <Symbol>volume</Symbol>
                      <Value>0</Value>
                    </Parameter>
                    <Parameter>
                      <Index>1</Index>
                      <Name>Polyphony</Name>
                      <Symbol>num_voices</Symbol>
                      <Value>64</Value>
                    </Parameter>
                    <Parameter>
                      <Index>2</Index>
                      <Name>Internal oversampling factor</Name>
                      <Symbol>oversampling</Symbol>
                      <Value>1</Value>
                    </Parameter>
                    <Parameter>
                      <Index>3</Index>
                      <Name>Preload size</Name>
                      <Symbol>preload_size</Symbol>
                      <Value>8192</Value>
                    </Parameter>
                    <Parameter>
                      <Index>5</Index>
                      <Name>Scala root key</Name>
                      <Symbol>scala_root_key</Symbol>
                      <Value>60</Value>
                    </Parameter>
                    <Parameter>
                      <Index>6</Index>
                      <Name>Tuning frequency</Name>
                      <Symbol>tuning_frequency</Symbol>
                      <Value>440</Value>
                    </Parameter>
                    <Parameter>
                      <Index>7</Index>
                      <Name>Stretched tuning</Name>
                      <Symbol>stretched_tuning</Symbol>
                      <Value>0</Value>
                    </Parameter>
                    <CustomData>
                      <Type>http://lv2plug.in/ns/ext/atom#Path</Type>
                      <Key>http://sfztools.github.io/sfizz:sfzfile</Key>
                      <Value>_fakeguitar2_integrated.sfz</Value>
                    </CustomData>
                    <CustomData>
                      <Type>http://lv2plug.in/ns/ext/atom#Int</Type>
                      <Key>http://sfztools.github.io/sfizz:numvoices</Key>
                      <Value>QAAAAA==</Value>
                    </CustomData>
                    <CustomData>
                      <Type>http://lv2plug.in/ns/ext/atom#Int</Type>
                      <Key>http://sfztools.github.io/sfizz:preload_size</Key>
                      <Value>ACAAAA==</Value>
                    </CustomData>
                    <CustomData>
                      <Type>http://lv2plug.in/ns/ext/atom#Int</Type>
                      <Key>http://sfztools.github.io/sfizz:oversampling</Key>
                      <Value>AQAAAA==</Value>
                    </CustomData>
                    <CustomData>
                      <Type>http://lv2plug.in/ns/ext/atom#Path</Type>
                      <Key>http://sfztools.github.io/sfizz:tuningfile</Key>
                      <Value>DefaultScale.scl</Value>
                    </CustomData>
                  </Data>
                </Plugin>
                <Patchbay>
                  <Connection>
                    <Source>Midi Input:Capture 1</Source>
                    <Target>sfizz:events-in</Target>
                  </Connection>
                  <Connection>
                    <Source>sfizz:Left Output</Source>
                    <Target>Audio Output:Left</Target>
                  </Connection>
                  <Connection>
                    <Source>sfizz:Right Output</Source>
                    <Target>Audio Output:Left</Target>
                  </Connection>
                  <Connection>
                    <Source>Midi Input:Capture 1</Source>
                    <Target>sfizz (2):events-in</Target>
                  </Connection>
                  <Connection>
                    <Source>sfizz (2):Right Output</Source>
                    <Target>Audio Output:Right</Target>
                  </Connection>
                  <Connection>
                    <Source>sfizz (2):Left Output</Source>
                    <Target>Audio Output:Right</Target>
                  </Connection>
                  <Positions>
                    <Position y1="1350" pluginId="1" x1="1711">
                      <Name>sfizz (2)</Name>
                    </Position>
                    <Position y1="1297" pluginId="0" x1="1704">
                      <Name>sfizz</Name>
                    </Position>
                  </Positions>
                </Patchbay>
              </CARLA-PROJECT>
            </carlapatchbay>
          </instrument>
          <eldata fres="0.5" fwet="0" fcut="14000" ftype="0">
            <elvol pdel="0" latt="0" lshp="0" lspd_denominator="4" lamt="0" amt="0" sustain="0.5" lspd_syncmode="0" att="0" x100="0" lspd_numerator="4" lspd="0.1" ctlenvamt="0" dec="0.5" lpdel="0" hold="0.5" userwavefile="" rel="0.1"/>
            <elcut pdel="0" latt="0" lshp="0" lspd_denominator="4" lamt="0" amt="0" sustain="0.5" lspd_syncmode="0" att="0" x100="0" lspd_numerator="4" lspd="0.1" ctlenvamt="0" dec="0.5" lpdel="0" hold="0.5" userwavefile="" rel="0.1"/>
            <elres pdel="0" latt="0" lshp="0" lspd_denominator="4" lamt="0" amt="0" sustain="0.5" lspd_syncmode="0" att="0" x100="0" lspd_numerator="4" lspd="0.1" ctlenvamt="0" dec="0.5" lpdel="0" hold="0.5" userwavefile="" rel="0.1"/>
          </eldata>
          <chordcreator chordrange="1" chord="0" chord-enabled="0"/>
          <arpeggiator arptime="200" arpskip="0" arpgate="100" arptime_syncmode="0" arpmode="0" arprange="1" arp="0" arpcycle="0" arptime_denominator="4" arptime_numerator="4" arpdir="0" arp-enabled="0" arpmiss="0"/>
          <midiport outputchannel="1" inputcontroller="0" inputchannel="0" basevelocity="127" outputprogram="1" readable="0" outputcontroller="0" fixedinputvelocity="-1" fixedoutputnote="-1" writable="0" fixedoutputvelocity="-1"/>
          <fxchain numofeffects="0" enabled="0"/>
        </instrumenttrack>
        <pattern muted="0" pos="6144" steps="16" name="Rhythm Guitar" type="1">
          <note key="42" vol="100" pos="0" pan="0" len="384"/>
          <note key="35" vol="100" pos="0" pan="0" len="384"/>
          <note key="0" vol="100" pos="0" pan="0" len="24"/>
          <note key="42" vol="100" pos="384" pan="0" len="384"/>
          <note key="35" vol="100" pos="384" pan="0" len="384"/>
        </pattern>
        <pattern muted="0" pos="6912" steps="16" name="Rhythm Guitar" type="1">
          <note key="50" vol="100" pos="0" pan="0" len="384"/>
          <note key="43" vol="100" pos="0" pan="0" len="384"/>
          <note key="0" vol="100" pos="0" pan="0" len="24"/>
          <note key="50" vol="100" pos="384" pan="0" len="384"/>
          <note key="43" vol="100" pos="384" pan="0" len="384"/>
        </pattern>
        <pattern muted="0" pos="7680" steps="16" name="Rhythm Guitar" type="1">
          <note key="42" vol="100" pos="0" pan="0" len="384"/>
          <note key="35" vol="100" pos="0" pan="0" len="384"/>
          <note key="0" vol="100" pos="0" pan="0" len="24"/>
          <note key="42" vol="100" pos="384" pan="0" len="384"/>
          <note key="35" vol="100" pos="384" pan="0" len="384"/>
        </pattern>
        <pattern muted="0" pos="8448" steps="16" name="Rhythm Guitar" type="1">
          <note key="50" vol="100" pos="0" pan="0" len="384"/>
          <note key="43" vol="100" pos="0" pan="0" len="384"/>
          <note key="0" vol="100" pos="0" pan="0" len="24"/>
          <note key="50" vol="100" pos="384" pan="0" len="192"/>
          <note key="43" vol="100" pos="384" pan="0" len="192"/>
          <note key="50" vol="100" pos="576" pan="0" len="48"/>
          <note key="43" vol="100" pos="576" pan="0" len="48"/>
        </pattern>
        <pattern muted="0" pos="9216" steps="16" name="Rhythm Guitar" type="1">
          <note key="42" vol="100" pos="0" pan="0" len="384"/>
          <note key="35" vol="100" pos="0" pan="0" len="384"/>
          <note key="0" vol="100" pos="0" pan="0" len="24"/>
          <note key="42" vol="100" pos="384" pan="0" len="384"/>
          <note key="35" vol="100" pos="384" pan="0" len="384"/>
        </pattern>
        <pattern muted="0" pos="9984" steps="16" name="Rhythm Guitar" type="1">
          <note key="50" vol="100" pos="0" pan="0" len="384"/>
          <note key="43" vol="100" pos="0" pan="0" len="384"/>
          <note key="0" vol="100" pos="0" pan="0" len="24"/>
          <note key="50" vol="100" pos="384" pan="0" len="384"/>
          <note key="43" vol="100" pos="384" pan="0" len="384"/>
        </pattern>
        <pattern muted="0" pos="10752" steps="16" name="Rhythm Guitar" type="1">
          <note key="42" vol="100" pos="0" pan="0" len="384"/>
          <note key="35" vol="100" pos="0" pan="0" len="384"/>
          <note key="0" vol="100" pos="0" pan="0" len="24"/>
          <note key="42" vol="100" pos="384" pan="0" len="384"/>
          <note key="35" vol="100" pos="384" pan="0" len="384"/>
        </pattern>
        <pattern muted="0" pos="11520" steps="16" name="Rhythm Guitar" type="1">
          <note key="50" vol="100" pos="0" pan="0" len="384"/>
          <note key="43" vol="100" pos="0" pan="0" len="384"/>
          <note key="0" vol="100" pos="0" pan="0" len="24"/>
          <note key="52" vol="100" pos="384" pan="0" len="384"/>
          <note key="45" vol="100" pos="384" pan="0" len="384"/>
        </pattern>
        <pattern muted="0" pos="15360" steps="16" name="Rhythm Guitar" type="1">
          <note key="42" vol="100" pos="0" pan="0" len="24"/>
          <note key="35" vol="100" pos="0" pan="0" len="24"/>
          <note key="0" vol="100" pos="0" pan="0" len="12"/>
          <note key="1" vol="100" pos="12" pan="0" len="12"/>
          <note key="35" vol="100" pos="24" pan="0" len="12"/>
          <note key="35" vol="100" pos="36" pan="0" len="12"/>
          <note key="35" vol="100" pos="48" pan="0" len="12"/>
          <note key="35" vol="100" pos="60" pan="0" len="12"/>
          <note key="42" vol="100" pos="72" pan="0" len="24"/>
          <note key="35" vol="100" pos="72" pan="0" len="24"/>
          <note key="0" vol="100" pos="72" pan="0" len="12"/>
          <note key="1" vol="100" pos="84" pan="0" len="12"/>
          <note key="35" vol="100" pos="96" pan="0" len="12"/>
          <note key="35" vol="100" pos="108" pan="0" len="12"/>
          <note key="35" vol="100" pos="120" pan="0" len="12"/>
          <note key="35" vol="100" pos="132" pan="0" len="12"/>
          <note key="42" vol="100" pos="144" pan="0" len="24"/>
          <note key="35" vol="100" pos="144" pan="0" len="24"/>
          <note key="0" vol="100" pos="144" pan="0" len="12"/>
          <note key="1" vol="100" pos="156" pan="0" len="12"/>
          <note key="35" vol="100" pos="168" pan="0" len="12"/>
          <note key="35" vol="100" pos="180" pan="0" len="12"/>
          <note key="42" vol="100" pos="192" pan="0" len="24"/>
          <note key="35" vol="100" pos="192" pan="0" len="24"/>
          <note key="0" vol="100" pos="192" pan="0" len="12"/>
          <note key="1" vol="100" pos="204" pan="0" len="12"/>
          <note key="35" vol="100" pos="216" pan="0" len="12"/>
          <note key="35" vol="100" pos="228" pan="0" len="12"/>
          <note key="35" vol="100" pos="240" pan="0" len="12"/>
          <note key="35" vol="100" pos="252" pan="0" len="12"/>
          <note key="42" vol="100" pos="264" pan="0" len="24"/>
          <note key="35" vol="100" pos="264" pan="0" len="24"/>
          <note key="0" vol="100" pos="264" pan="0" len="12"/>
          <note key="1" vol="100" pos="276" pan="0" len="12"/>
          <note key="35" vol="100" pos="288" pan="0" len="12"/>
          <note key="35" vol="100" pos="300" pan="0" len="12"/>
          <note key="35" vol="100" pos="312" pan="0" len="12"/>
          <note key="35" vol="100" pos="324" pan="0" len="12"/>
          <note key="42" vol="100" pos="336" pan="0" len="24"/>
          <note key="35" vol="100" pos="336" pan="0" len="24"/>
          <note key="0" vol="100" pos="336" pan="0" len="12"/>
          <note key="1" vol="100" pos="348" pan="0" len="12"/>
          <note key="35" vol="100" pos="360" pan="0" len="12"/>
          <note key="35" vol="100" pos="372" pan="0" len="12"/>
        </pattern>
        <pattern muted="0" pos="15744" steps="16" name="Rhythm Guitar" type="1">
          <note key="50" vol="100" pos="0" pan="0" len="24"/>
          <note key="43" vol="100" pos="0" pan="0" len="24"/>
          <note key="0" vol="100" pos="0" pan="0" len="12"/>
          <note key="1" vol="100" pos="12" pan="0" len="12"/>
          <note key="43" vol="100" pos="24" pan="0" len="12"/>
          <note key="43" vol="100" pos="36" pan="0" len="12"/>
          <note key="43" vol="100" pos="48" pan="0" len="12"/>
          <note key="43" vol="100" pos="60" pan="0" len="12"/>
          <note key="50" vol="100" pos="72" pan="0" len="24"/>
          <note key="43" vol="100" pos="72" pan="0" len="24"/>
          <note key="0" vol="100" pos="72" pan="0" len="12"/>
          <note key="1" vol="100" pos="84" pan="0" len="12"/>
          <note key="43" vol="100" pos="96" pan="0" len="12"/>
          <note key="43" vol="100" pos="108" pan="0" len="12"/>
          <note key="43" vol="100" pos="120" pan="0" len="12"/>
          <note key="43" vol="100" pos="132" pan="0" len="12"/>
          <note key="50" vol="100" pos="144" pan="0" len="24"/>
          <note key="43" vol="100" pos="144" pan="0" len="24"/>
          <note key="0" vol="100" pos="144" pan="0" len="12"/>
          <note key="1" vol="100" pos="156" pan="0" len="12"/>
          <note key="43" vol="100" pos="168" pan="0" len="12"/>
          <note key="43" vol="100" pos="180" pan="0" len="12"/>
          <note key="50" vol="100" pos="192" pan="0" len="24"/>
          <note key="43" vol="100" pos="192" pan="0" len="24"/>
          <note key="0" vol="100" pos="192" pan="0" len="12"/>
          <note key="1" vol="100" pos="204" pan="0" len="12"/>
          <note key="43" vol="100" pos="216" pan="0" len="12"/>
          <note key="43" vol="100" pos="228" pan="0" len="12"/>
          <note key="43" vol="100" pos="240" pan="0" len="12"/>
          <note key="43" vol="100" pos="252" pan="0" len="12"/>
          <note key="50" vol="100" pos="264" pan="0" len="24"/>
          <note key="43" vol="100" pos="264" pan="0" len="24"/>
          <note key="0" vol="100" pos="264" pan="0" len="12"/>
          <note key="1" vol="100" pos="276" pan="0" len="12"/>
          <note key="43" vol="100" pos="288" pan="0" len="12"/>
          <note key="43" vol="100" pos="300" pan="0" len="12"/>
          <note key="43" vol="100" pos="312" pan="0" len="12"/>
          <note key="43" vol="100" pos="324" pan="0" len="12"/>
          <note key="50" vol="100" pos="336" pan="0" len="24"/>
          <note key="43" vol="100" pos="336" pan="0" len="24"/>
          <note key="0" vol="100" pos="336" pan="0" len="12"/>
          <note key="1" vol="100" pos="348" pan="0" len="12"/>
          <note key="43" vol="100" pos="360" pan="0" len="12"/>
          <note key="43" vol="100" pos="372" pan="0" len="12"/>
        </pattern>
        <pattern muted="0" pos="16128" steps="16" name="Rhythm Guitar" type="1">
          <note key="52" vol="100" pos="0" pan="0" len="24"/>
          <note key="45" vol="100" pos="0" pan="0" len="24"/>
          <note key="0" vol="100" pos="0" pan="0" len="12"/>
          <note key="1" vol="100" pos="12" pan="0" len="12"/>
          <note key="45" vol="100" pos="24" pan="0" len="12"/>
          <note key="45" vol="100" pos="36" pan="0" len="12"/>
          <note key="45" vol="100" pos="48" pan="0" len="12"/>
          <note key="45" vol="100" pos="60" pan="0" len="12"/>
          <note key="52" vol="100" pos="72" pan="0" len="24"/>
          <note key="45" vol="100" pos="72" pan="0" len="24"/>
          <note key="0" vol="100" pos="72" pan="0" len="12"/>
          <note key="1" vol="100" pos="84" pan="0" len="12"/>
          <note key="45" vol="100" pos="96" pan="0" len="12"/>
          <note key="45" vol="100" pos="108" pan="0" len="12"/>
          <note key="45" vol="100" pos="120" pan="0" len="12"/>
          <note key="45" vol="100" pos="132" pan="0" len="12"/>
          <note key="52" vol="100" pos="144" pan="0" len="24"/>
          <note key="45" vol="100" pos="144" pan="0" len="24"/>
          <note key="0" vol="100" pos="144" pan="0" len="12"/>
          <note key="1" vol="100" pos="156" pan="0" len="12"/>
          <note key="45" vol="100" pos="168" pan="0" len="12"/>
          <note key="45" vol="100" pos="180" pan="0" len="12"/>
          <note key="52" vol="100" pos="192" pan="0" len="24"/>
          <note key="45" vol="100" pos="192" pan="0" len="24"/>
          <note key="0" vol="100" pos="192" pan="0" len="12"/>
          <note key="1" vol="100" pos="204" pan="0" len="12"/>
          <note key="45" vol="100" pos="216" pan="0" len="12"/>
          <note key="45" vol="100" pos="228" pan="0" len="12"/>
          <note key="45" vol="100" pos="240" pan="0" len="12"/>
          <note key="45" vol="100" pos="252" pan="0" len="12"/>
          <note key="52" vol="100" pos="264" pan="0" len="24"/>
          <note key="45" vol="100" pos="264" pan="0" len="24"/>
          <note key="0" vol="100" pos="264" pan="0" len="12"/>
          <note key="1" vol="100" pos="276" pan="0" len="12"/>
          <note key="45" vol="100" pos="288" pan="0" len="12"/>
          <note key="45" vol="100" pos="300" pan="0" len="12"/>
          <note key="45" vol="100" pos="312" pan="0" len="12"/>
          <note key="45" vol="100" pos="324" pan="0" len="12"/>
          <note key="52" vol="100" pos="336" pan="0" len="24"/>
          <note key="45" vol="100" pos="336" pan="0" len="24"/>
          <note key="0" vol="100" pos="336" pan="0" len="12"/>
          <note key="1" vol="100" pos="348" pan="0" len="12"/>
          <note key="45" vol="100" pos="360" pan="0" len="12"/>
          <note key="45" vol="100" pos="372" pan="0" len="12"/>
        </pattern>
        <pattern muted="0" pos="16512" steps="16" name="Rhythm Guitar" type="1">
          <note key="45" vol="100" pos="0" pan="0" len="24"/>
          <note key="38" vol="100" pos="0" pan="0" len="24"/>
          <note key="0" vol="100" pos="0" pan="0" len="12"/>
          <note key="1" vol="100" pos="12" pan="0" len="12"/>
          <note key="38" vol="100" pos="24" pan="0" len="12"/>
          <note key="38" vol="100" pos="36" pan="0" len="12"/>
          <note key="38" vol="100" pos="48" pan="0" len="12"/>
          <note key="38" vol="100" pos="60" pan="0" len="12"/>
          <note key="45" vol="100" pos="72" pan="0" len="24"/>
          <note key="38" vol="100" pos="72" pan="0" len="24"/>
          <note key="0" vol="100" pos="72" pan="0" len="12"/>
          <note key="1" vol="100" pos="84" pan="0" len="12"/>
          <note key="38" vol="100" pos="96" pan="0" len="12"/>
          <note key="38" vol="100" pos="108" pan="0" len="12"/>
          <note key="38" vol="100" pos="120" pan="0" len="12"/>
          <note key="38" vol="100" pos="132" pan="0" len="12"/>
          <note key="45" vol="100" pos="144" pan="0" len="24"/>
          <note key="38" vol="100" pos="144" pan="0" len="24"/>
          <note key="0" vol="100" pos="144" pan="0" len="12"/>
          <note key="1" vol="100" pos="156" pan="0" len="12"/>
          <note key="38" vol="100" pos="168" pan="0" len="12"/>
          <note key="38" vol="100" pos="180" pan="0" len="12"/>
          <note key="45" vol="100" pos="192" pan="0" len="24"/>
          <note key="38" vol="100" pos="192" pan="0" len="24"/>
          <note key="0" vol="100" pos="192" pan="0" len="12"/>
          <note key="1" vol="100" pos="204" pan="0" len="12"/>
          <note key="38" vol="100" pos="216" pan="0" len="12"/>
          <note key="38" vol="100" pos="228" pan="0" len="12"/>
          <note key="38" vol="100" pos="240" pan="0" len="12"/>
          <note key="38" vol="100" pos="252" pan="0" len="12"/>
          <note key="45" vol="100" pos="264" pan="0" len="24"/>
          <note key="38" vol="100" pos="264" pan="0" len="24"/>
          <note key="0" vol="100" pos="264" pan="0" len="12"/>
          <note key="1" vol="100" pos="276" pan="0" len="12"/>
          <note key="38" vol="100" pos="288" pan="0" len="12"/>
          <note key="38" vol="100" pos="300" pan="0" len="12"/>
          <note key="38" vol="100" pos="312" pan="0" len="12"/>
          <note key="38" vol="100" pos="324" pan="0" len="12"/>
          <note key="45" vol="100" pos="336" pan="0" len="24"/>
          <note key="38" vol="100" pos="336" pan="0" len="24"/>
          <note key="0" vol="100" pos="336" pan="0" len="12"/>
          <note key="1" vol="100" pos="348" pan="0" len="12"/>
          <note key="38" vol="100" pos="360" pan="0" len="12"/>
          <note key="38" vol="100" pos="372" pan="0" len="12"/>
        </pattern>
        <pattern muted="0" pos="16896" steps="16" name="Rhythm Guitar" type="1">
          <note key="42" vol="100" pos="0" pan="0" len="24"/>
          <note key="35" vol="100" pos="0" pan="0" len="24"/>
          <note key="0" vol="100" pos="0" pan="0" len="12"/>
          <note key="1" vol="100" pos="12" pan="0" len="12"/>
          <note key="35" vol="100" pos="24" pan="0" len="12"/>
          <note key="35" vol="100" pos="36" pan="0" len="12"/>
          <note key="35" vol="100" pos="48" pan="0" len="12"/>
          <note key="35" vol="100" pos="60" pan="0" len="12"/>
          <note key="42" vol="100" pos="72" pan="0" len="24"/>
          <note key="35" vol="100" pos="72" pan="0" len="24"/>
          <note key="0" vol="100" pos="72" pan="0" len="12"/>
          <note key="1" vol="100" pos="84" pan="0" len="12"/>
          <note key="35" vol="100" pos="96" pan="0" len="12"/>
          <note key="35" vol="100" pos="108" pan="0" len="12"/>
          <note key="35" vol="100" pos="120" pan="0" len="12"/>
          <note key="35" vol="100" pos="132" pan="0" len="12"/>
          <note key="42" vol="100" pos="144" pan="0" len="24"/>
          <note key="35" vol="100" pos="144" pan="0" len="24"/>
          <note key="0" vol="100" pos="144" pan="0" len="12"/>
          <note key="1" vol="100" pos="156" pan="0" len="12"/>
          <note key="35" vol="100" pos="168" pan="0" len="12"/>
          <note key="35" vol="100" pos="180" pan="0" len="12"/>
          <note key="42" vol="100" pos="192" pan="0" len="24"/>
          <note key="35" vol="100" pos="192" pan="0" len="24"/>
          <note key="0" vol="100" pos="192" pan="0" len="12"/>
          <note key="1" vol="100" pos="204" pan="0" len="12"/>
          <note key="35" vol="100" pos="216" pan="0" len="12"/>
          <note key="35" vol="100" pos="228" pan="0" len="12"/>
          <note key="35" vol="100" pos="240" pan="0" len="12"/>
          <note key="35" vol="100" pos="252" pan="0" len="12"/>
          <note key="42" vol="100" pos="264" pan="0" len="24"/>
          <note key="35" vol="100" pos="264" pan="0" len="24"/>
          <note key="0" vol="100" pos="264" pan="0" len="12"/>
          <note key="1" vol="100" pos="276" pan="0" len="12"/>
          <note key="35" vol="100" pos="288" pan="0" len="12"/>
          <note key="35" vol="100" pos="300" pan="0" len="12"/>
          <note key="35" vol="100" pos="312" pan="0" len="12"/>
          <note key="35" vol="100" pos="324" pan="0" len="12"/>
          <note key="42" vol="100" pos="336" pan="0" len="24"/>
          <note key="35" vol="100" pos="336" pan="0" len="24"/>
          <note key="0" vol="100" pos="336" pan="0" len="12"/>
          <note key="1" vol="100" pos="348" pan="0" len="12"/>
          <note key="35" vol="100" pos="360" pan="0" len="12"/>
          <note key="35" vol="100" pos="372" pan="0" len="12"/>
        </pattern>
        <pattern muted="0" pos="17280" steps="16" name="Rhythm Guitar" type="1">
          <note key="50" vol="100" pos="0" pan="0" len="24"/>
          <note key="43" vol="100" pos="0" pan="0" len="24"/>
          <note key="0" vol="100" pos="0" pan="0" len="12"/>
          <note key="1" vol="100" pos="12" pan="0" len="12"/>
          <note key="43" vol="100" pos="24" pan="0" len="12"/>
          <note key="43" vol="100" pos="36" pan="0" len="12"/>
          <note key="43" vol="100" pos="48" pan="0" len="12"/>
          <note key="43" vol="100" pos="60" pan="0" len="12"/>
          <note key="50" vol="100" pos="72" pan="0" len="24"/>
          <note key="43" vol="100" pos="72" pan="0" len="24"/>
          <note key="0" vol="100" pos="72" pan="0" len="12"/>
          <note key="1" vol="100" pos="84" pan="0" len="12"/>
          <note key="43" vol="100" pos="96" pan="0" len="12"/>
          <note key="43" vol="100" pos="108" pan="0" len="12"/>
          <note key="43" vol="100" pos="120" pan="0" len="12"/>
          <note key="43" vol="100" pos="132" pan="0" len="12"/>
          <note key="50" vol="100" pos="144" pan="0" len="24"/>
          <note key="43" vol="100" pos="144" pan="0" len="24"/>
          <note key="0" vol="100" pos="144" pan="0" len="12"/>
          <note key="1" vol="100" pos="156" pan="0" len="12"/>
          <note key="43" vol="100" pos="168" pan="0" len="12"/>
          <note key="43" vol="100" pos="180" pan="0" len="12"/>
          <note key="50" vol="100" pos="192" pan="0" len="24"/>
          <note key="43" vol="100" pos="192" pan="0" len="24"/>
          <note key="0" vol="100" pos="192" pan="0" len="12"/>
          <note key="1" vol="100" pos="204" pan="0" len="12"/>
          <note key="43" vol="100" pos="216" pan="0" len="12"/>
          <note key="43" vol="100" pos="228" pan="0" len="12"/>
          <note key="43" vol="100" pos="240" pan="0" len="12"/>
          <note key="43" vol="100" pos="252" pan="0" len="12"/>
          <note key="50" vol="100" pos="264" pan="0" len="24"/>
          <note key="43" vol="100" pos="264" pan="0" len="24"/>
          <note key="0" vol="100" pos="264" pan="0" len="12"/>
          <note key="1" vol="100" pos="276" pan="0" len="12"/>
          <note key="43" vol="100" pos="288" pan="0" len="12"/>
          <note key="43" vol="100" pos="300" pan="0" len="12"/>
          <note key="43" vol="100" pos="312" pan="0" len="12"/>
          <note key="43" vol="100" pos="324" pan="0" len="12"/>
          <note key="50" vol="100" pos="336" pan="0" len="24"/>
          <note key="43" vol="100" pos="336" pan="0" len="24"/>
          <note key="0" vol="100" pos="336" pan="0" len="12"/>
          <note key="1" vol="100" pos="348" pan="0" len="12"/>
          <note key="43" vol="100" pos="360" pan="0" len="12"/>
          <note key="43" vol="100" pos="372" pan="0" len="12"/>
        </pattern>
        <pattern muted="0" pos="17664" steps="16" name="Rhythm Guitar" type="1">
          <note key="52" vol="100" pos="0" pan="0" len="24"/>
          <note key="45" vol="100" pos="0" pan="0" len="24"/>
          <note key="0" vol="100" pos="0" pan="0" len="12"/>
          <note key="1" vol="100" pos="12" pan="0" len="12"/>
          <note key="45" vol="100" pos="24" pan="0" len="12"/>
          <note key="45" vol="100" pos="36" pan="0" len="12"/>
          <note key="45" vol="100" pos="48" pan="0" len="12"/>
          <note key="45" vol="100" pos="60" pan="0" len="12"/>
          <note key="52" vol="100" pos="72" pan="0" len="24"/>
          <note key="45" vol="100" pos="72" pan="0" len="24"/>
          <note key="0" vol="100" pos="72" pan="0" len="12"/>
          <note key="1" vol="100" pos="84" pan="0" len="12"/>
          <note key="45" vol="100" pos="96" pan="0" len="12"/>
          <note key="45" vol="100" pos="108" pan="0" len="12"/>
          <note key="45" vol="100" pos="120" pan="0" len="12"/>
          <note key="45" vol="100" pos="132" pan="0" len="12"/>
          <note key="52" vol="100" pos="144" pan="0" len="24"/>
          <note key="45" vol="100" pos="144" pan="0" len="24"/>
          <note key="0" vol="100" pos="144" pan="0" len="12"/>
          <note key="1" vol="100" pos="156" pan="0" len="12"/>
          <note key="45" vol="100" pos="168" pan="0" len="12"/>
          <note key="45" vol="100" pos="180" pan="0" len="12"/>
          <note key="52" vol="100" pos="192" pan="0" len="24"/>
          <note key="45" vol="100" pos="192" pan="0" len="24"/>
          <note key="0" vol="100" pos="192" pan="0" len="12"/>
          <note key="1" vol="100" pos="204" pan="0" len="12"/>
          <note key="45" vol="100" pos="216" pan="0" len="12"/>
          <note key="45" vol="100" pos="228" pan="0" len="12"/>
          <note key="45" vol="100" pos="240" pan="0" len="12"/>
          <note key="45" vol="100" pos="252" pan="0" len="12"/>
          <note key="52" vol="100" pos="264" pan="0" len="24"/>
          <note key="45" vol="100" pos="264" pan="0" len="24"/>
          <note key="0" vol="100" pos="264" pan="0" len="12"/>
          <note key="1" vol="100" pos="276" pan="0" len="12"/>
          <note key="45" vol="100" pos="288" pan="0" len="12"/>
          <note key="45" vol="100" pos="300" pan="0" len="12"/>
          <note key="45" vol="100" pos="312" pan="0" len="12"/>
          <note key="45" vol="100" pos="324" pan="0" len="12"/>
          <note key="52" vol="100" pos="336" pan="0" len="24"/>
          <note key="45" vol="100" pos="336" pan="0" len="24"/>
          <note key="0" vol="100" pos="336" pan="0" len="12"/>
          <note key="1" vol="100" pos="348" pan="0" len="12"/>
          <note key="45" vol="100" pos="360" pan="0" len="12"/>
          <note key="45" vol="100" pos="372" pan="0" len="12"/>
          <note key="52" vol="100" pos="384" pan="0" len="24"/>
          <note key="45" vol="100" pos="384" pan="0" len="24"/>
          <note key="0" vol="100" pos="384" pan="0" len="12"/>
          <note key="1" vol="100" pos="396" pan="0" len="12"/>
          <note key="45" vol="100" pos="408" pan="0" len="12"/>
          <note key="45" vol="100" pos="420" pan="0" len="12"/>
          <note key="45" vol="100" pos="432" pan="0" len="12"/>
          <note key="45" vol="100" pos="444" pan="0" len="12"/>
          <note key="52" vol="100" pos="456" pan="0" len="24"/>
          <note key="45" vol="100" pos="456" pan="0" len="24"/>
          <note key="0" vol="100" pos="456" pan="0" len="12"/>
          <note key="1" vol="100" pos="468" pan="0" len="12"/>
          <note key="45" vol="100" pos="480" pan="0" len="12"/>
          <note key="45" vol="100" pos="492" pan="0" len="12"/>
          <note key="45" vol="100" pos="504" pan="0" len="12"/>
          <note key="45" vol="100" pos="516" pan="0" len="12"/>
          <note key="52" vol="100" pos="528" pan="0" len="24"/>
          <note key="45" vol="100" pos="528" pan="0" len="24"/>
          <note key="0" vol="100" pos="528" pan="0" len="12"/>
          <note key="1" vol="100" pos="540" pan="0" len="12"/>
          <note key="45" vol="100" pos="552" pan="0" len="12"/>
          <note key="45" vol="100" pos="564" pan="0" len="12"/>
          <note key="52" vol="100" pos="576" pan="0" len="24"/>
          <note key="45" vol="100" pos="576" pan="0" len="24"/>
          <note key="0" vol="100" pos="576" pan="0" len="12"/>
          <note key="52" vol="100" pos="624" pan="0" len="24"/>
          <note key="45" vol="100" pos="624" pan="0" len="24"/>
          <note key="52" vol="100" pos="672" pan="0" len="24"/>
          <note key="45" vol="100" pos="672" pan="0" len="24"/>
          <note key="52" vol="100" pos="720" pan="0" len="24"/>
          <note key="45" vol="100" pos="720" pan="0" len="24"/>
        </pattern>
        <pattern muted="0" pos="18432" steps="16" name="Rhythm Guitar" type="1">
          <note key="45" vol="100" pos="0" pan="0" len="384"/>
          <note key="38" vol="100" pos="0" pan="0" len="384"/>
          <note key="0" vol="100" pos="0" pan="0" len="384"/>
          <note key="52" vol="100" pos="384" pan="0" len="384"/>
          <note key="45" vol="100" pos="384" pan="0" len="384"/>
          <note key="50" vol="100" pos="768" pan="0" len="384"/>
          <note key="43" vol="100" pos="768" pan="0" len="384"/>
          <note key="45" vol="100" pos="1152" pan="0" len="192"/>
          <note key="38" vol="100" pos="1152" pan="0" len="192"/>
          <note key="52" vol="100" pos="1344" pan="0" len="192"/>
          <note key="45" vol="100" pos="1344" pan="0" len="192"/>
        </pattern>
        <pattern muted="0" pos="19968" steps="16" name="Rhythm Guitar" type="1">
          <note key="45" vol="100" pos="0" pan="0" len="384"/>
          <note key="38" vol="100" pos="0" pan="0" len="384"/>
          <note key="0" vol="100" pos="0" pan="0" len="384"/>
          <note key="52" vol="100" pos="384" pan="0" len="384"/>
          <note key="45" vol="100" pos="384" pan="0" len="384"/>
          <note key="50" vol="100" pos="768" pan="0" len="384"/>
          <note key="43" vol="100" pos="768" pan="0" len="384"/>
          <note key="45" vol="100" pos="1152" pan="0" len="192"/>
          <note key="38" vol="100" pos="1152" pan="0" len="192"/>
          <note key="52" vol="100" pos="1344" pan="0" len="192"/>
          <note key="45" vol="100" pos="1344" pan="0" len="192"/>
        </pattern>
        <pattern muted="0" pos="21504" steps="16" name="Rhythm Guitar" type="1">
          <note key="57" vol="100" pos="0" pan="0" len="24"/>
          <note key="50" vol="100" pos="0" pan="0" len="24"/>
          <note key="0" vol="100" pos="0" pan="0" len="12"/>
          <note key="1" vol="100" pos="12" pan="0" len="12"/>
          <note key="50" vol="100" pos="24" pan="0" len="12"/>
          <note key="50" vol="100" pos="36" pan="0" len="12"/>
          <note key="50" vol="100" pos="48" pan="0" len="12"/>
          <note key="50" vol="100" pos="60" pan="0" len="12"/>
          <note key="57" vol="100" pos="72" pan="0" len="24"/>
          <note key="50" vol="100" pos="72" pan="0" len="24"/>
          <note key="0" vol="100" pos="72" pan="0" len="12"/>
          <note key="1" vol="100" pos="84" pan="0" len="12"/>
          <note key="50" vol="100" pos="96" pan="0" len="12"/>
          <note key="50" vol="100" pos="108" pan="0" len="12"/>
          <note key="50" vol="100" pos="120" pan="0" len="12"/>
          <note key="50" vol="100" pos="132" pan="0" len="12"/>
          <note key="57" vol="100" pos="144" pan="0" len="24"/>
          <note key="50" vol="100" pos="144" pan="0" len="24"/>
          <note key="0" vol="100" pos="144" pan="0" len="12"/>
          <note key="1" vol="100" pos="156" pan="0" len="12"/>
          <note key="50" vol="100" pos="168" pan="0" len="12"/>
          <note key="50" vol="100" pos="180" pan="0" len="12"/>
          <note key="57" vol="100" pos="192" pan="0" len="24"/>
          <note key="50" vol="100" pos="192" pan="0" len="24"/>
          <note key="0" vol="100" pos="192" pan="0" len="12"/>
          <note key="1" vol="100" pos="204" pan="0" len="12"/>
          <note key="50" vol="100" pos="216" pan="0" len="12"/>
          <note key="50" vol="100" pos="228" pan="0" len="12"/>
          <note key="50" vol="100" pos="240" pan="0" len="12"/>
          <note key="50" vol="100" pos="252" pan="0" len="12"/>
          <note key="57" vol="100" pos="264" pan="0" len="24"/>
          <note key="50" vol="100" pos="264" pan="0" len="24"/>
          <note key="0" vol="100" pos="264" pan="0" len="12"/>
          <note key="1" vol="100" pos="276" pan="0" len="12"/>
          <note key="50" vol="100" pos="288" pan="0" len="12"/>
          <note key="50" vol="100" pos="300" pan="0" len="12"/>
          <note key="50" vol="100" pos="312" pan="0" len="12"/>
          <note key="50" vol="100" pos="324" pan="0" len="12"/>
          <note key="57" vol="100" pos="336" pan="0" len="24"/>
          <note key="50" vol="100" pos="336" pan="0" len="24"/>
          <note key="0" vol="100" pos="336" pan="0" len="12"/>
          <note key="1" vol="100" pos="348" pan="0" len="12"/>
          <note key="50" vol="100" pos="360" pan="0" len="12"/>
          <note key="50" vol="100" pos="372" pan="0" len="12"/>
        </pattern>
        <pattern muted="0" pos="21888" steps="16" name="Rhythm Guitar" type="1">
          <note key="57" vol="100" pos="0" pan="0" len="24"/>
          <note key="50" vol="100" pos="0" pan="0" len="24"/>
          <note key="0" vol="100" pos="0" pan="0" len="12"/>
          <note key="1" vol="100" pos="12" pan="0" len="12"/>
          <note key="50" vol="100" pos="24" pan="0" len="12"/>
          <note key="50" vol="100" pos="36" pan="0" len="12"/>
          <note key="50" vol="100" pos="48" pan="0" len="12"/>
          <note key="50" vol="100" pos="60" pan="0" len="12"/>
          <note key="57" vol="100" pos="72" pan="0" len="24"/>
          <note key="50" vol="100" pos="72" pan="0" len="24"/>
          <note key="0" vol="100" pos="72" pan="0" len="12"/>
          <note key="1" vol="100" pos="84" pan="0" len="12"/>
          <note key="50" vol="100" pos="96" pan="0" len="12"/>
          <note key="50" vol="100" pos="108" pan="0" len="12"/>
          <note key="50" vol="100" pos="120" pan="0" len="12"/>
          <note key="50" vol="100" pos="132" pan="0" len="12"/>
          <note key="57" vol="100" pos="144" pan="0" len="24"/>
          <note key="50" vol="100" pos="144" pan="0" len="24"/>
          <note key="0" vol="100" pos="144" pan="0" len="12"/>
          <note key="1" vol="100" pos="156" pan="0" len="12"/>
          <note key="50" vol="100" pos="168" pan="0" len="12"/>
          <note key="50" vol="100" pos="180" pan="0" len="12"/>
          <note key="52" vol="100" pos="192" pan="0" len="30"/>
          <note key="45" vol="100" pos="192" pan="0" len="30"/>
          <note key="0" vol="100" pos="192" pan="0" len="12"/>
          <note key="52" vol="100" pos="240" pan="0" len="30"/>
          <note key="45" vol="100" pos="240" pan="0" len="30"/>
          <note key="52" vol="100" pos="288" pan="0" len="30"/>
          <note key="45" vol="100" pos="288" pan="0" len="30"/>
          <note key="50" vol="100" pos="336" pan="0" len="30"/>
          <note key="43" vol="100" pos="336" pan="0" len="30"/>
        </pattern>
        <pattern muted="0" pos="12288" steps="16" name="Rhythm Guitar" type="1">
          <note key="45" vol="100" pos="0" pan="0" len="72"/>
          <note key="38" vol="100" pos="0" pan="0" len="72"/>
          <note key="0" vol="100" pos="0" pan="0" len="72"/>
          <note key="45" vol="100" pos="72" pan="0" len="72"/>
          <note key="38" vol="100" pos="72" pan="0" len="72"/>
          <note key="45" vol="100" pos="144" pan="0" len="48"/>
          <note key="38" vol="100" pos="144" pan="0" len="48"/>
          <note key="45" vol="100" pos="192" pan="0" len="72"/>
          <note key="38" vol="100" pos="192" pan="0" len="72"/>
          <note key="45" vol="100" pos="264" pan="0" len="72"/>
          <note key="38" vol="100" pos="264" pan="0" len="72"/>
          <note key="45" vol="100" pos="336" pan="0" len="48"/>
          <note key="38" vol="100" pos="336" pan="0" len="48"/>
          <note key="50" vol="100" pos="384" pan="0" len="72"/>
          <note key="43" vol="100" pos="384" pan="0" len="72"/>
          <note key="50" vol="100" pos="456" pan="0" len="72"/>
          <note key="43" vol="100" pos="456" pan="0" len="72"/>
          <note key="50" vol="100" pos="528" pan="0" len="48"/>
          <note key="43" vol="100" pos="528" pan="0" len="48"/>
          <note key="52" vol="100" pos="576" pan="0" len="72"/>
          <note key="45" vol="100" pos="576" pan="0" len="72"/>
          <note key="50" vol="100" pos="648" pan="0" len="72"/>
          <note key="43" vol="100" pos="648" pan="0" len="72"/>
          <note key="52" vol="100" pos="720" pan="0" len="48"/>
          <note key="45" vol="100" pos="720" pan="0" len="48"/>
        </pattern>
        <pattern muted="0" pos="13056" steps="16" name="Rhythm Guitar" type="1">
          <note key="45" vol="100" pos="0" pan="0" len="72"/>
          <note key="38" vol="100" pos="0" pan="0" len="72"/>
          <note key="0" vol="100" pos="0" pan="0" len="72"/>
          <note key="45" vol="100" pos="72" pan="0" len="72"/>
          <note key="38" vol="100" pos="72" pan="0" len="72"/>
          <note key="45" vol="100" pos="144" pan="0" len="48"/>
          <note key="38" vol="100" pos="144" pan="0" len="48"/>
          <note key="45" vol="100" pos="192" pan="0" len="72"/>
          <note key="38" vol="100" pos="192" pan="0" len="72"/>
          <note key="45" vol="100" pos="264" pan="0" len="72"/>
          <note key="38" vol="100" pos="264" pan="0" len="72"/>
          <note key="45" vol="100" pos="336" pan="0" len="48"/>
          <note key="38" vol="100" pos="336" pan="0" len="48"/>
          <note key="50" vol="100" pos="384" pan="0" len="72"/>
          <note key="43" vol="100" pos="384" pan="0" len="72"/>
          <note key="50" vol="100" pos="456" pan="0" len="72"/>
          <note key="43" vol="100" pos="456" pan="0" len="72"/>
          <note key="50" vol="100" pos="528" pan="0" len="48"/>
          <note key="43" vol="100" pos="528" pan="0" len="48"/>
          <note key="52" vol="100" pos="576" pan="0" len="72"/>
          <note key="45" vol="100" pos="576" pan="0" len="72"/>
          <note key="50" vol="100" pos="648" pan="0" len="72"/>
          <note key="43" vol="100" pos="648" pan="0" len="72"/>
          <note key="52" vol="100" pos="720" pan="0" len="48"/>
          <note key="45" vol="100" pos="720" pan="0" len="48"/>
        </pattern>
        <pattern muted="0" pos="13824" steps="16" name="Rhythm Guitar" type="1">
          <note key="45" vol="100" pos="0" pan="0" len="72"/>
          <note key="38" vol="100" pos="0" pan="0" len="72"/>
          <note key="0" vol="100" pos="0" pan="0" len="72"/>
          <note key="45" vol="100" pos="72" pan="0" len="72"/>
          <note key="38" vol="100" pos="72" pan="0" len="72"/>
          <note key="45" vol="100" pos="144" pan="0" len="48"/>
          <note key="38" vol="100" pos="144" pan="0" len="48"/>
          <note key="45" vol="100" pos="192" pan="0" len="72"/>
          <note key="38" vol="100" pos="192" pan="0" len="72"/>
          <note key="45" vol="100" pos="264" pan="0" len="72"/>
          <note key="38" vol="100" pos="264" pan="0" len="72"/>
          <note key="45" vol="100" pos="336" pan="0" len="48"/>
          <note key="38" vol="100" pos="336" pan="0" len="48"/>
          <note key="50" vol="100" pos="384" pan="0" len="72"/>
          <note key="43" vol="100" pos="384" pan="0" len="72"/>
          <note key="50" vol="100" pos="456" pan="0" len="72"/>
          <note key="43" vol="100" pos="456" pan="0" len="72"/>
          <note key="50" vol="100" pos="528" pan="0" len="48"/>
          <note key="43" vol="100" pos="528" pan="0" len="48"/>
          <note key="52" vol="100" pos="576" pan="0" len="72"/>
          <note key="45" vol="100" pos="576" pan="0" len="72"/>
          <note key="50" vol="100" pos="648" pan="0" len="72"/>
          <note key="43" vol="100" pos="648" pan="0" len="72"/>
          <note key="52" vol="100" pos="720" pan="0" len="48"/>
          <note key="45" vol="100" pos="720" pan="0" len="48"/>
        </pattern>
        <pattern muted="0" pos="14592" steps="16" name="Rhythm Guitar" type="1">
          <note key="45" vol="100" pos="0" pan="0" len="72"/>
          <note key="38" vol="100" pos="0" pan="0" len="72"/>
          <note key="0" vol="100" pos="0" pan="0" len="72"/>
          <note key="45" vol="100" pos="72" pan="0" len="72"/>
          <note key="38" vol="100" pos="72" pan="0" len="72"/>
          <note key="45" vol="100" pos="144" pan="0" len="48"/>
          <note key="38" vol="100" pos="144" pan="0" len="48"/>
          <note key="45" vol="100" pos="192" pan="0" len="72"/>
          <note key="38" vol="100" pos="192" pan="0" len="72"/>
          <note key="45" vol="100" pos="264" pan="0" len="72"/>
          <note key="38" vol="100" pos="264" pan="0" len="72"/>
          <note key="45" vol="100" pos="336" pan="0" len="48"/>
          <note key="38" vol="100" pos="336" pan="0" len="48"/>
          <note key="50" vol="100" pos="384" pan="0" len="72"/>
          <note key="43" vol="100" pos="384" pan="0" len="72"/>
          <note key="50" vol="100" pos="456" pan="0" len="72"/>
          <note key="43" vol="100" pos="456" pan="0" len="72"/>
          <note key="50" vol="100" pos="528" pan="0" len="48"/>
          <note key="43" vol="100" pos="528" pan="0" len="48"/>
          <note key="52" vol="100" pos="576" pan="0" len="72"/>
          <note key="45" vol="100" pos="576" pan="0" len="72"/>
          <note key="50" vol="100" pos="648" pan="0" len="72"/>
          <note key="43" vol="100" pos="648" pan="0" len="72"/>
          <note key="52" vol="100" pos="720" pan="0" len="48"/>
          <note key="45" vol="100" pos="720" pan="0" len="48"/>
        </pattern>
        <pattern muted="0" pos="22272" steps="16" name="Rhythm Guitar" type="1">
          <note key="45" vol="100" pos="0" pan="0" len="72"/>
          <note key="38" vol="100" pos="0" pan="0" len="72"/>
          <note key="0" vol="100" pos="0" pan="0" len="72"/>
          <note key="45" vol="100" pos="72" pan="0" len="72"/>
          <note key="38" vol="100" pos="72" pan="0" len="72"/>
          <note key="45" vol="100" pos="144" pan="0" len="48"/>
          <note key="38" vol="100" pos="144" pan="0" len="48"/>
          <note key="45" vol="100" pos="192" pan="0" len="72"/>
          <note key="38" vol="100" pos="192" pan="0" len="72"/>
          <note key="45" vol="100" pos="264" pan="0" len="72"/>
          <note key="38" vol="100" pos="264" pan="0" len="72"/>
          <note key="45" vol="100" pos="336" pan="0" len="48"/>
          <note key="38" vol="100" pos="336" pan="0" len="48"/>
          <note key="50" vol="100" pos="384" pan="0" len="72"/>
          <note key="43" vol="100" pos="384" pan="0" len="72"/>
          <note key="50" vol="100" pos="456" pan="0" len="72"/>
          <note key="43" vol="100" pos="456" pan="0" len="72"/>
          <note key="50" vol="100" pos="528" pan="0" len="48"/>
          <note key="43" vol="100" pos="528" pan="0" len="48"/>
          <note key="52" vol="100" pos="576" pan="0" len="72"/>
          <note key="45" vol="100" pos="576" pan="0" len="72"/>
          <note key="50" vol="100" pos="648" pan="0" len="72"/>
          <note key="43" vol="100" pos="648" pan="0" len="72"/>
          <note key="52" vol="100" pos="720" pan="0" len="48"/>
          <note key="45" vol="100" pos="720" pan="0" len="48"/>
        </pattern>
        <pattern muted="0" pos="23040" steps="16" name="Rhythm Guitar" type="1">
          <note key="45" vol="100" pos="0" pan="0" len="72"/>
          <note key="38" vol="100" pos="0" pan="0" len="72"/>
          <note key="0" vol="100" pos="0" pan="0" len="72"/>
          <note key="45" vol="100" pos="72" pan="0" len="72"/>
          <note key="38" vol="100" pos="72" pan="0" len="72"/>
          <note key="45" vol="100" pos="144" pan="0" len="48"/>
          <note key="38" vol="100" pos="144" pan="0" len="48"/>
          <note key="45" vol="100" pos="192" pan="0" len="72"/>
          <note key="38" vol="100" pos="192" pan="0" len="72"/>
          <note key="45" vol="100" pos="264" pan="0" len="72"/>
          <note key="38" vol="100" pos="264" pan="0" len="72"/>
          <note key="45" vol="100" pos="336" pan="0" len="48"/>
          <note key="38" vol="100" pos="336" pan="0" len="48"/>
          <note key="50" vol="100" pos="384" pan="0" len="72"/>
          <note key="43" vol="100" pos="384" pan="0" len="72"/>
          <note key="50" vol="100" pos="456" pan="0" len="72"/>
          <note key="43" vol="100" pos="456" pan="0" len="72"/>
          <note key="50" vol="100" pos="528" pan="0" len="48"/>
          <note key="43" vol="100" pos="528" pan="0" len="48"/>
          <note key="52" vol="100" pos="576" pan="0" len="72"/>
          <note key="45" vol="100" pos="576" pan="0" len="72"/>
          <note key="50" vol="100" pos="648" pan="0" len="72"/>
          <note key="43" vol="100" pos="648" pan="0" len="72"/>
          <note key="52" vol="100" pos="720" pan="0" len="48"/>
          <note key="45" vol="100" pos="720" pan="0" len="48"/>
        </pattern>
        <pattern muted="0" pos="23808" steps="16" name="Rhythm Guitar" type="1">
          <note key="45" vol="100" pos="0" pan="0" len="72"/>
          <note key="38" vol="100" pos="0" pan="0" len="72"/>
          <note key="0" vol="100" pos="0" pan="0" len="72"/>
          <note key="45" vol="100" pos="72" pan="0" len="72"/>
          <note key="38" vol="100" pos="72" pan="0" len="72"/>
          <note key="45" vol="100" pos="144" pan="0" len="48"/>
          <note key="38" vol="100" pos="144" pan="0" len="48"/>
          <note key="45" vol="100" pos="192" pan="0" len="72"/>
          <note key="38" vol="100" pos="192" pan="0" len="72"/>
          <note key="45" vol="100" pos="264" pan="0" len="72"/>
          <note key="38" vol="100" pos="264" pan="0" len="72"/>
          <note key="45" vol="100" pos="336" pan="0" len="48"/>
          <note key="38" vol="100" pos="336" pan="0" len="48"/>
          <note key="50" vol="100" pos="384" pan="0" len="72"/>
          <note key="43" vol="100" pos="384" pan="0" len="72"/>
          <note key="50" vol="100" pos="456" pan="0" len="72"/>
          <note key="43" vol="100" pos="456" pan="0" len="72"/>
          <note key="50" vol="100" pos="528" pan="0" len="48"/>
          <note key="43" vol="100" pos="528" pan="0" len="48"/>
          <note key="52" vol="100" pos="576" pan="0" len="72"/>
          <note key="45" vol="100" pos="576" pan="0" len="72"/>
          <note key="50" vol="100" pos="648" pan="0" len="72"/>
          <note key="43" vol="100" pos="648" pan="0" len="72"/>
          <note key="52" vol="100" pos="720" pan="0" len="48"/>
          <note key="45" vol="100" pos="720" pan="0" len="48"/>
        </pattern>
        <pattern muted="0" pos="24576" steps="16" name="Rhythm Guitar" type="1">
          <note key="45" vol="100" pos="0" pan="0" len="72"/>
          <note key="38" vol="100" pos="0" pan="0" len="72"/>
          <note key="0" vol="100" pos="0" pan="0" len="72"/>
          <note key="45" vol="100" pos="72" pan="0" len="72"/>
          <note key="38" vol="100" pos="72" pan="0" len="72"/>
          <note key="45" vol="100" pos="144" pan="0" len="48"/>
          <note key="38" vol="100" pos="144" pan="0" len="48"/>
          <note key="45" vol="100" pos="192" pan="0" len="72"/>
          <note key="38" vol="100" pos="192" pan="0" len="72"/>
          <note key="45" vol="100" pos="264" pan="0" len="72"/>
          <note key="38" vol="100" pos="264" pan="0" len="72"/>
          <note key="45" vol="100" pos="336" pan="0" len="48"/>
          <note key="38" vol="100" pos="336" pan="0" len="48"/>
          <note key="50" vol="100" pos="384" pan="0" len="72"/>
          <note key="43" vol="100" pos="384" pan="0" len="72"/>
          <note key="50" vol="100" pos="456" pan="0" len="72"/>
          <note key="43" vol="100" pos="456" pan="0" len="72"/>
          <note key="50" vol="100" pos="528" pan="0" len="48"/>
          <note key="43" vol="100" pos="528" pan="0" len="48"/>
          <note key="52" vol="100" pos="576" pan="0" len="72"/>
          <note key="45" vol="100" pos="576" pan="0" len="72"/>
          <note key="50" vol="100" pos="648" pan="0" len="72"/>
          <note key="43" vol="100" pos="648" pan="0" len="72"/>
          <note key="52" vol="100" pos="720" pan="0" len="48"/>
          <note key="45" vol="100" pos="720" pan="0" len="48"/>
        </pattern>
        <pattern muted="0" pos="25344" steps="16" name="Rhythm Guitar" type="1">
          <note key="42" vol="100" pos="0" pan="0" len="24"/>
          <note key="35" vol="100" pos="0" pan="0" len="24"/>
          <note key="0" vol="100" pos="0" pan="0" len="12"/>
          <note key="1" vol="100" pos="12" pan="0" len="12"/>
          <note key="35" vol="100" pos="24" pan="0" len="12"/>
          <note key="35" vol="100" pos="36" pan="0" len="12"/>
          <note key="35" vol="100" pos="48" pan="0" len="12"/>
          <note key="35" vol="100" pos="60" pan="0" len="12"/>
          <note key="42" vol="100" pos="72" pan="0" len="24"/>
          <note key="35" vol="100" pos="72" pan="0" len="24"/>
          <note key="0" vol="100" pos="72" pan="0" len="12"/>
          <note key="1" vol="100" pos="84" pan="0" len="12"/>
          <note key="35" vol="100" pos="96" pan="0" len="12"/>
          <note key="35" vol="100" pos="108" pan="0" len="12"/>
          <note key="35" vol="100" pos="120" pan="0" len="12"/>
          <note key="35" vol="100" pos="132" pan="0" len="12"/>
          <note key="42" vol="100" pos="144" pan="0" len="24"/>
          <note key="35" vol="100" pos="144" pan="0" len="24"/>
          <note key="0" vol="100" pos="144" pan="0" len="12"/>
          <note key="1" vol="100" pos="156" pan="0" len="12"/>
          <note key="35" vol="100" pos="168" pan="0" len="12"/>
          <note key="35" vol="100" pos="180" pan="0" len="12"/>
          <note key="42" vol="100" pos="192" pan="0" len="24"/>
          <note key="35" vol="100" pos="192" pan="0" len="24"/>
          <note key="0" vol="100" pos="192" pan="0" len="12"/>
          <note key="1" vol="100" pos="204" pan="0" len="12"/>
          <note key="35" vol="100" pos="216" pan="0" len="12"/>
          <note key="35" vol="100" pos="228" pan="0" len="12"/>
          <note key="35" vol="100" pos="240" pan="0" len="12"/>
          <note key="35" vol="100" pos="252" pan="0" len="12"/>
          <note key="42" vol="100" pos="264" pan="0" len="24"/>
          <note key="35" vol="100" pos="264" pan="0" len="24"/>
          <note key="0" vol="100" pos="264" pan="0" len="12"/>
          <note key="1" vol="100" pos="276" pan="0" len="12"/>
          <note key="35" vol="100" pos="288" pan="0" len="12"/>
          <note key="35" vol="100" pos="300" pan="0" len="12"/>
          <note key="35" vol="100" pos="312" pan="0" len="12"/>
          <note key="35" vol="100" pos="324" pan="0" len="12"/>
          <note key="42" vol="100" pos="336" pan="0" len="24"/>
          <note key="35" vol="100" pos="336" pan="0" len="24"/>
          <note key="0" vol="100" pos="336" pan="0" len="12"/>
          <note key="1" vol="100" pos="348" pan="0" len="12"/>
          <note key="35" vol="100" pos="360" pan="0" len="12"/>
          <note key="35" vol="100" pos="372" pan="0" len="12"/>
        </pattern>
        <pattern muted="0" pos="25728" steps="16" name="Rhythm Guitar" type="1">
          <note key="50" vol="100" pos="0" pan="0" len="24"/>
          <note key="43" vol="100" pos="0" pan="0" len="24"/>
          <note key="0" vol="100" pos="0" pan="0" len="12"/>
          <note key="1" vol="100" pos="12" pan="0" len="12"/>
          <note key="43" vol="100" pos="24" pan="0" len="12"/>
          <note key="43" vol="100" pos="36" pan="0" len="12"/>
          <note key="43" vol="100" pos="48" pan="0" len="12"/>
          <note key="43" vol="100" pos="60" pan="0" len="12"/>
          <note key="50" vol="100" pos="72" pan="0" len="24"/>
          <note key="43" vol="100" pos="72" pan="0" len="24"/>
          <note key="0" vol="100" pos="72" pan="0" len="12"/>
          <note key="1" vol="100" pos="84" pan="0" len="12"/>
          <note key="43" vol="100" pos="96" pan="0" len="12"/>
          <note key="43" vol="100" pos="108" pan="0" len="12"/>
          <note key="43" vol="100" pos="120" pan="0" len="12"/>
          <note key="43" vol="100" pos="132" pan="0" len="12"/>
          <note key="50" vol="100" pos="144" pan="0" len="24"/>
          <note key="43" vol="100" pos="144" pan="0" len="24"/>
          <note key="0" vol="100" pos="144" pan="0" len="12"/>
          <note key="1" vol="100" pos="156" pan="0" len="12"/>
          <note key="43" vol="100" pos="168" pan="0" len="12"/>
          <note key="43" vol="100" pos="180" pan="0" len="12"/>
          <note key="50" vol="100" pos="192" pan="0" len="24"/>
          <note key="43" vol="100" pos="192" pan="0" len="24"/>
          <note key="0" vol="100" pos="192" pan="0" len="12"/>
          <note key="1" vol="100" pos="204" pan="0" len="12"/>
          <note key="43" vol="100" pos="216" pan="0" len="12"/>
          <note key="43" vol="100" pos="228" pan="0" len="12"/>
          <note key="43" vol="100" pos="240" pan="0" len="12"/>
          <note key="43" vol="100" pos="252" pan="0" len="12"/>
          <note key="50" vol="100" pos="264" pan="0" len="24"/>
          <note key="43" vol="100" pos="264" pan="0" len="24"/>
          <note key="0" vol="100" pos="264" pan="0" len="12"/>
          <note key="1" vol="100" pos="276" pan="0" len="12"/>
          <note key="43" vol="100" pos="288" pan="0" len="12"/>
          <note key="43" vol="100" pos="300" pan="0" len="12"/>
          <note key="43" vol="100" pos="312" pan="0" len="12"/>
          <note key="43" vol="100" pos="324" pan="0" len="12"/>
          <note key="50" vol="100" pos="336" pan="0" len="24"/>
          <note key="43" vol="100" pos="336" pan="0" len="24"/>
          <note key="0" vol="100" pos="336" pan="0" len="12"/>
          <note key="1" vol="100" pos="348" pan="0" len="12"/>
          <note key="43" vol="100" pos="360" pan="0" len="12"/>
          <note key="43" vol="100" pos="372" pan="0" len="12"/>
        </pattern>
        <pattern muted="0" pos="26112" steps="16" name="Rhythm Guitar" type="1">
          <note key="52" vol="100" pos="0" pan="0" len="24"/>
          <note key="45" vol="100" pos="0" pan="0" len="24"/>
          <note key="0" vol="100" pos="0" pan="0" len="12"/>
          <note key="1" vol="100" pos="12" pan="0" len="12"/>
          <note key="45" vol="100" pos="24" pan="0" len="12"/>
          <note key="45" vol="100" pos="36" pan="0" len="12"/>
          <note key="45" vol="100" pos="48" pan="0" len="12"/>
          <note key="45" vol="100" pos="60" pan="0" len="12"/>
          <note key="52" vol="100" pos="72" pan="0" len="24"/>
          <note key="45" vol="100" pos="72" pan="0" len="24"/>
          <note key="0" vol="100" pos="72" pan="0" len="12"/>
          <note key="1" vol="100" pos="84" pan="0" len="12"/>
          <note key="45" vol="100" pos="96" pan="0" len="12"/>
          <note key="45" vol="100" pos="108" pan="0" len="12"/>
          <note key="45" vol="100" pos="120" pan="0" len="12"/>
          <note key="45" vol="100" pos="132" pan="0" len="12"/>
          <note key="52" vol="100" pos="144" pan="0" len="24"/>
          <note key="45" vol="100" pos="144" pan="0" len="24"/>
          <note key="0" vol="100" pos="144" pan="0" len="12"/>
          <note key="1" vol="100" pos="156" pan="0" len="12"/>
          <note key="45" vol="100" pos="168" pan="0" len="12"/>
          <note key="45" vol="100" pos="180" pan="0" len="12"/>
          <note key="52" vol="100" pos="192" pan="0" len="24"/>
          <note key="45" vol="100" pos="192" pan="0" len="24"/>
          <note key="0" vol="100" pos="192" pan="0" len="12"/>
          <note key="1" vol="100" pos="204" pan="0" len="12"/>
          <note key="45" vol="100" pos="216" pan="0" len="12"/>
          <note key="45" vol="100" pos="228" pan="0" len="12"/>
          <note key="45" vol="100" pos="240" pan="0" len="12"/>
          <note key="45" vol="100" pos="252" pan="0" len="12"/>
          <note key="52" vol="100" pos="264" pan="0" len="24"/>
          <note key="45" vol="100" pos="264" pan="0" len="24"/>
          <note key="0" vol="100" pos="264" pan="0" len="12"/>
          <note key="1" vol="100" pos="276" pan="0" len="12"/>
          <note key="45" vol="100" pos="288" pan="0" len="12"/>
          <note key="45" vol="100" pos="300" pan="0" len="12"/>
          <note key="45" vol="100" pos="312" pan="0" len="12"/>
          <note key="45" vol="100" pos="324" pan="0" len="12"/>
          <note key="52" vol="100" pos="336" pan="0" len="24"/>
          <note key="45" vol="100" pos="336" pan="0" len="24"/>
          <note key="0" vol="100" pos="336" pan="0" len="12"/>
          <note key="1" vol="100" pos="348" pan="0" len="12"/>
          <note key="45" vol="100" pos="360" pan="0" len="12"/>
          <note key="45" vol="100" pos="372" pan="0" len="12"/>
        </pattern>
        <pattern muted="0" pos="26880" steps="16" name="Rhythm Guitar" type="1">
          <note key="42" vol="100" pos="0" pan="0" len="24"/>
          <note key="35" vol="100" pos="0" pan="0" len="24"/>
          <note key="0" vol="100" pos="0" pan="0" len="12"/>
          <note key="1" vol="100" pos="12" pan="0" len="12"/>
          <note key="35" vol="100" pos="24" pan="0" len="12"/>
          <note key="35" vol="100" pos="36" pan="0" len="12"/>
          <note key="35" vol="100" pos="48" pan="0" len="12"/>
          <note key="35" vol="100" pos="60" pan="0" len="12"/>
          <note key="42" vol="100" pos="72" pan="0" len="24"/>
          <note key="35" vol="100" pos="72" pan="0" len="24"/>
          <note key="0" vol="100" pos="72" pan="0" len="12"/>
          <note key="1" vol="100" pos="84" pan="0" len="12"/>
          <note key="35" vol="100" pos="96" pan="0" len="12"/>
          <note key="35" vol="100" pos="108" pan="0" len="12"/>
          <note key="35" vol="100" pos="120" pan="0" len="12"/>
          <note key="35" vol="100" pos="132" pan="0" len="12"/>
          <note key="42" vol="100" pos="144" pan="0" len="24"/>
          <note key="35" vol="100" pos="144" pan="0" len="24"/>
          <note key="0" vol="100" pos="144" pan="0" len="12"/>
          <note key="1" vol="100" pos="156" pan="0" len="12"/>
          <note key="35" vol="100" pos="168" pan="0" len="12"/>
          <note key="35" vol="100" pos="180" pan="0" len="12"/>
          <note key="42" vol="100" pos="192" pan="0" len="24"/>
          <note key="35" vol="100" pos="192" pan="0" len="24"/>
          <note key="0" vol="100" pos="192" pan="0" len="12"/>
          <note key="1" vol="100" pos="204" pan="0" len="12"/>
          <note key="35" vol="100" pos="216" pan="0" len="12"/>
          <note key="35" vol="100" pos="228" pan="0" len="12"/>
          <note key="35" vol="100" pos="240" pan="0" len="12"/>
          <note key="35" vol="100" pos="252" pan="0" len="12"/>
          <note key="42" vol="100" pos="264" pan="0" len="24"/>
          <note key="35" vol="100" pos="264" pan="0" len="24"/>
          <note key="0" vol="100" pos="264" pan="0" len="12"/>
          <note key="1" vol="100" pos="276" pan="0" len="12"/>
          <note key="35" vol="100" pos="288" pan="0" len="12"/>
          <note key="35" vol="100" pos="300" pan="0" len="12"/>
          <note key="35" vol="100" pos="312" pan="0" len="12"/>
          <note key="35" vol="100" pos="324" pan="0" len="12"/>
          <note key="42" vol="100" pos="336" pan="0" len="24"/>
          <note key="35" vol="100" pos="336" pan="0" len="24"/>
          <note key="0" vol="100" pos="336" pan="0" len="12"/>
          <note key="1" vol="100" pos="348" pan="0" len="12"/>
          <note key="35" vol="100" pos="360" pan="0" len="12"/>
          <note key="35" vol="100" pos="372" pan="0" len="12"/>
        </pattern>
        <pattern muted="0" pos="27648" steps="16" name="Rhythm Guitar" type="1">
          <note key="52" vol="100" pos="0" pan="0" len="24"/>
          <note key="45" vol="100" pos="0" pan="0" len="24"/>
          <note key="0" vol="100" pos="0" pan="0" len="12"/>
          <note key="1" vol="100" pos="12" pan="0" len="12"/>
          <note key="45" vol="100" pos="24" pan="0" len="12"/>
          <note key="45" vol="100" pos="36" pan="0" len="12"/>
          <note key="45" vol="100" pos="48" pan="0" len="12"/>
          <note key="45" vol="100" pos="60" pan="0" len="12"/>
          <note key="52" vol="100" pos="72" pan="0" len="24"/>
          <note key="45" vol="100" pos="72" pan="0" len="24"/>
          <note key="0" vol="100" pos="72" pan="0" len="12"/>
          <note key="1" vol="100" pos="84" pan="0" len="12"/>
          <note key="45" vol="100" pos="96" pan="0" len="12"/>
          <note key="45" vol="100" pos="108" pan="0" len="12"/>
          <note key="45" vol="100" pos="120" pan="0" len="12"/>
          <note key="45" vol="100" pos="132" pan="0" len="12"/>
          <note key="52" vol="100" pos="144" pan="0" len="24"/>
          <note key="45" vol="100" pos="144" pan="0" len="24"/>
          <note key="0" vol="100" pos="144" pan="0" len="12"/>
          <note key="1" vol="100" pos="156" pan="0" len="12"/>
          <note key="45" vol="100" pos="168" pan="0" len="12"/>
          <note key="45" vol="100" pos="180" pan="0" len="12"/>
          <note key="52" vol="100" pos="192" pan="0" len="24"/>
          <note key="45" vol="100" pos="192" pan="0" len="24"/>
          <note key="0" vol="100" pos="192" pan="0" len="12"/>
          <note key="1" vol="100" pos="204" pan="0" len="12"/>
          <note key="45" vol="100" pos="216" pan="0" len="12"/>
          <note key="45" vol="100" pos="228" pan="0" len="12"/>
          <note key="45" vol="100" pos="240" pan="0" len="12"/>
          <note key="45" vol="100" pos="252" pan="0" len="12"/>
          <note key="52" vol="100" pos="264" pan="0" len="24"/>
          <note key="45" vol="100" pos="264" pan="0" len="24"/>
          <note key="0" vol="100" pos="264" pan="0" len="12"/>
          <note key="1" vol="100" pos="276" pan="0" len="12"/>
          <note key="45" vol="100" pos="288" pan="0" len="12"/>
          <note key="45" vol="100" pos="300" pan="0" len="12"/>
          <note key="45" vol="100" pos="312" pan="0" len="12"/>
          <note key="45" vol="100" pos="324" pan="0" len="12"/>
          <note key="52" vol="100" pos="336" pan="0" len="24"/>
          <note key="45" vol="100" pos="336" pan="0" len="24"/>
          <note key="0" vol="100" pos="336" pan="0" len="12"/>
          <note key="1" vol="100" pos="348" pan="0" len="12"/>
          <note key="45" vol="100" pos="360" pan="0" len="12"/>
          <note key="45" vol="100" pos="372" pan="0" len="12"/>
          <note key="52" vol="100" pos="384" pan="0" len="24"/>
          <note key="45" vol="100" pos="384" pan="0" len="24"/>
          <note key="0" vol="100" pos="384" pan="0" len="12"/>
          <note key="1" vol="100" pos="396" pan="0" len="12"/>
          <note key="45" vol="100" pos="408" pan="0" len="12"/>
          <note key="45" vol="100" pos="420" pan="0" len="12"/>
          <note key="45" vol="100" pos="432" pan="0" len="12"/>
          <note key="45" vol="100" pos="444" pan="0" len="12"/>
          <note key="52" vol="100" pos="456" pan="0" len="24"/>
          <note key="45" vol="100" pos="456" pan="0" len="24"/>
          <note key="0" vol="100" pos="456" pan="0" len="12"/>
          <note key="1" vol="100" pos="468" pan="0" len="12"/>
          <note key="45" vol="100" pos="480" pan="0" len="12"/>
          <note key="45" vol="100" pos="492" pan="0" len="12"/>
          <note key="45" vol="100" pos="504" pan="0" len="12"/>
          <note key="45" vol="100" pos="516" pan="0" len="12"/>
          <note key="52" vol="100" pos="528" pan="0" len="24"/>
          <note key="45" vol="100" pos="528" pan="0" len="24"/>
          <note key="0" vol="100" pos="528" pan="0" len="12"/>
          <note key="1" vol="100" pos="540" pan="0" len="12"/>
          <note key="45" vol="100" pos="552" pan="0" len="12"/>
          <note key="45" vol="100" pos="564" pan="0" len="12"/>
          <note key="52" vol="100" pos="576" pan="0" len="30"/>
          <note key="45" vol="100" pos="576" pan="0" len="30"/>
          <note key="0" vol="100" pos="576" pan="0" len="12"/>
          <note key="52" vol="100" pos="624" pan="0" len="30"/>
          <note key="45" vol="100" pos="624" pan="0" len="30"/>
          <note key="52" vol="100" pos="672" pan="0" len="30"/>
          <note key="45" vol="100" pos="672" pan="0" len="30"/>
          <note key="52" vol="100" pos="720" pan="0" len="30"/>
          <note key="45" vol="100" pos="720" pan="0" len="30"/>
        </pattern>
        <pattern muted="0" pos="27264" steps="16" name="Rhythm Guitar" type="1">
          <note key="50" vol="100" pos="0" pan="0" len="24"/>
          <note key="43" vol="100" pos="0" pan="0" len="24"/>
          <note key="0" vol="100" pos="0" pan="0" len="12"/>
          <note key="1" vol="100" pos="12" pan="0" len="12"/>
          <note key="43" vol="100" pos="24" pan="0" len="12"/>
          <note key="43" vol="100" pos="36" pan="0" len="12"/>
          <note key="43" vol="100" pos="48" pan="0" len="12"/>
          <note key="43" vol="100" pos="60" pan="0" len="12"/>
          <note key="50" vol="100" pos="72" pan="0" len="24"/>
          <note key="43" vol="100" pos="72" pan="0" len="24"/>
          <note key="0" vol="100" pos="72" pan="0" len="12"/>
          <note key="1" vol="100" pos="84" pan="0" len="12"/>
          <note key="43" vol="100" pos="96" pan="0" len="12"/>
          <note key="43" vol="100" pos="108" pan="0" len="12"/>
          <note key="43" vol="100" pos="120" pan="0" len="12"/>
          <note key="43" vol="100" pos="132" pan="0" len="12"/>
          <note key="50" vol="100" pos="144" pan="0" len="24"/>
          <note key="43" vol="100" pos="144" pan="0" len="24"/>
          <note key="0" vol="100" pos="144" pan="0" len="12"/>
          <note key="1" vol="100" pos="156" pan="0" len="12"/>
          <note key="43" vol="100" pos="168" pan="0" len="12"/>
          <note key="43" vol="100" pos="180" pan="0" len="12"/>
          <note key="50" vol="100" pos="192" pan="0" len="24"/>
          <note key="43" vol="100" pos="192" pan="0" len="24"/>
          <note key="0" vol="100" pos="192" pan="0" len="12"/>
          <note key="1" vol="100" pos="204" pan="0" len="12"/>
          <note key="43" vol="100" pos="216" pan="0" len="12"/>
          <note key="43" vol="100" pos="228" pan="0" len="12"/>
          <note key="43" vol="100" pos="240" pan="0" len="12"/>
          <note key="43" vol="100" pos="252" pan="0" len="12"/>
          <note key="50" vol="100" pos="264" pan="0" len="24"/>
          <note key="43" vol="100" pos="264" pan="0" len="24"/>
          <note key="0" vol="100" pos="264" pan="0" len="12"/>
          <note key="1" vol="100" pos="276" pan="0" len="12"/>
          <note key="43" vol="100" pos="288" pan="0" len="12"/>
          <note key="43" vol="100" pos="300" pan="0" len="12"/>
          <note key="43" vol="100" pos="312" pan="0" len="12"/>
          <note key="43" vol="100" pos="324" pan="0" len="12"/>
          <note key="50" vol="100" pos="336" pan="0" len="24"/>
          <note key="43" vol="100" pos="336" pan="0" len="24"/>
          <note key="0" vol="100" pos="336" pan="0" len="12"/>
          <note key="1" vol="100" pos="348" pan="0" len="12"/>
          <note key="43" vol="100" pos="360" pan="0" len="12"/>
          <note key="43" vol="100" pos="372" pan="0" len="12"/>
        </pattern>
        <pattern muted="0" pos="28416" steps="16" name="Rhythm Guitar" type="1">
          <note key="45" vol="100" pos="0" pan="0" len="384"/>
          <note key="38" vol="100" pos="0" pan="0" len="384"/>
          <note key="0" vol="100" pos="0" pan="0" len="384"/>
          <note key="52" vol="100" pos="384" pan="0" len="384"/>
          <note key="45" vol="100" pos="384" pan="0" len="384"/>
          <note key="50" vol="100" pos="768" pan="0" len="384"/>
          <note key="43" vol="100" pos="768" pan="0" len="384"/>
          <note key="45" vol="100" pos="1152" pan="0" len="192"/>
          <note key="38" vol="100" pos="1152" pan="0" len="192"/>
          <note key="52" vol="100" pos="1344" pan="0" len="192"/>
          <note key="45" vol="100" pos="1344" pan="0" len="192"/>
        </pattern>
        <pattern muted="0" pos="29952" steps="16" name="Rhythm Guitar" type="1">
          <note key="45" vol="100" pos="0" pan="0" len="384"/>
          <note key="38" vol="100" pos="0" pan="0" len="384"/>
          <note key="0" vol="100" pos="0" pan="0" len="384"/>
          <note key="52" vol="100" pos="384" pan="0" len="384"/>
          <note key="45" vol="100" pos="384" pan="0" len="384"/>
          <note key="50" vol="100" pos="768" pan="0" len="384"/>
          <note key="43" vol="100" pos="768" pan="0" len="384"/>
          <note key="45" vol="100" pos="1152" pan="0" len="192"/>
          <note key="38" vol="100" pos="1152" pan="0" len="192"/>
          <note key="52" vol="100" pos="1344" pan="0" len="192"/>
          <note key="45" vol="100" pos="1344" pan="0" len="192"/>
        </pattern>
        <pattern muted="0" pos="31488" steps="16" name="Rhythm Guitar" type="1">
          <note key="57" vol="100" pos="0" pan="0" len="24"/>
          <note key="50" vol="100" pos="0" pan="0" len="24"/>
          <note key="0" vol="100" pos="0" pan="0" len="12"/>
          <note key="1" vol="100" pos="12" pan="0" len="12"/>
          <note key="50" vol="100" pos="24" pan="0" len="12"/>
          <note key="50" vol="100" pos="36" pan="0" len="12"/>
          <note key="50" vol="100" pos="48" pan="0" len="12"/>
          <note key="50" vol="100" pos="60" pan="0" len="12"/>
          <note key="57" vol="100" pos="72" pan="0" len="24"/>
          <note key="50" vol="100" pos="72" pan="0" len="24"/>
          <note key="0" vol="100" pos="72" pan="0" len="12"/>
          <note key="1" vol="100" pos="84" pan="0" len="12"/>
          <note key="50" vol="100" pos="96" pan="0" len="12"/>
          <note key="50" vol="100" pos="108" pan="0" len="12"/>
          <note key="50" vol="100" pos="120" pan="0" len="12"/>
          <note key="50" vol="100" pos="132" pan="0" len="12"/>
          <note key="57" vol="100" pos="144" pan="0" len="24"/>
          <note key="50" vol="100" pos="144" pan="0" len="24"/>
          <note key="0" vol="100" pos="144" pan="0" len="12"/>
          <note key="1" vol="100" pos="156" pan="0" len="12"/>
          <note key="50" vol="100" pos="168" pan="0" len="12"/>
          <note key="50" vol="100" pos="180" pan="0" len="12"/>
          <note key="57" vol="100" pos="192" pan="0" len="24"/>
          <note key="50" vol="100" pos="192" pan="0" len="24"/>
          <note key="0" vol="100" pos="192" pan="0" len="12"/>
          <note key="1" vol="100" pos="204" pan="0" len="12"/>
          <note key="50" vol="100" pos="216" pan="0" len="12"/>
          <note key="50" vol="100" pos="228" pan="0" len="12"/>
          <note key="50" vol="100" pos="240" pan="0" len="12"/>
          <note key="50" vol="100" pos="252" pan="0" len="12"/>
          <note key="57" vol="100" pos="264" pan="0" len="24"/>
          <note key="50" vol="100" pos="264" pan="0" len="24"/>
          <note key="0" vol="100" pos="264" pan="0" len="12"/>
          <note key="1" vol="100" pos="276" pan="0" len="12"/>
          <note key="50" vol="100" pos="288" pan="0" len="12"/>
          <note key="50" vol="100" pos="300" pan="0" len="12"/>
          <note key="50" vol="100" pos="312" pan="0" len="12"/>
          <note key="50" vol="100" pos="324" pan="0" len="12"/>
          <note key="57" vol="100" pos="336" pan="0" len="24"/>
          <note key="50" vol="100" pos="336" pan="0" len="24"/>
          <note key="0" vol="100" pos="336" pan="0" len="12"/>
          <note key="1" vol="100" pos="348" pan="0" len="12"/>
          <note key="50" vol="100" pos="360" pan="0" len="12"/>
          <note key="50" vol="100" pos="372" pan="0" len="12"/>
        </pattern>
        <pattern muted="0" pos="26496" steps="16" name="Rhythm Guitar" type="1">
          <note key="45" vol="100" pos="0" pan="0" len="24"/>
          <note key="38" vol="100" pos="0" pan="0" len="24"/>
          <note key="0" vol="100" pos="0" pan="0" len="12"/>
          <note key="1" vol="100" pos="12" pan="0" len="12"/>
          <note key="38" vol="100" pos="24" pan="0" len="12"/>
          <note key="38" vol="100" pos="36" pan="0" len="12"/>
          <note key="38" vol="100" pos="48" pan="0" len="12"/>
          <note key="38" vol="100" pos="60" pan="0" len="12"/>
          <note key="45" vol="100" pos="72" pan="0" len="24"/>
          <note key="38" vol="100" pos="72" pan="0" len="24"/>
          <note key="0" vol="100" pos="72" pan="0" len="12"/>
          <note key="1" vol="100" pos="84" pan="0" len="12"/>
          <note key="38" vol="100" pos="96" pan="0" len="12"/>
          <note key="38" vol="100" pos="108" pan="0" len="12"/>
          <note key="38" vol="100" pos="120" pan="0" len="12"/>
          <note key="38" vol="100" pos="132" pan="0" len="12"/>
          <note key="45" vol="100" pos="144" pan="0" len="24"/>
          <note key="38" vol="100" pos="144" pan="0" len="24"/>
          <note key="0" vol="100" pos="144" pan="0" len="12"/>
          <note key="1" vol="100" pos="156" pan="0" len="12"/>
          <note key="38" vol="100" pos="168" pan="0" len="12"/>
          <note key="38" vol="100" pos="180" pan="0" len="12"/>
          <note key="45" vol="100" pos="192" pan="0" len="24"/>
          <note key="38" vol="100" pos="192" pan="0" len="24"/>
          <note key="0" vol="100" pos="192" pan="0" len="12"/>
          <note key="1" vol="100" pos="204" pan="0" len="12"/>
          <note key="38" vol="100" pos="216" pan="0" len="12"/>
          <note key="38" vol="100" pos="228" pan="0" len="12"/>
          <note key="38" vol="100" pos="240" pan="0" len="12"/>
          <note key="38" vol="100" pos="252" pan="0" len="12"/>
          <note key="45" vol="100" pos="264" pan="0" len="24"/>
          <note key="38" vol="100" pos="264" pan="0" len="24"/>
          <note key="0" vol="100" pos="264" pan="0" len="12"/>
          <note key="1" vol="100" pos="276" pan="0" len="12"/>
          <note key="38" vol="100" pos="288" pan="0" len="12"/>
          <note key="38" vol="100" pos="300" pan="0" len="12"/>
          <note key="38" vol="100" pos="312" pan="0" len="12"/>
          <note key="38" vol="100" pos="324" pan="0" len="12"/>
          <note key="45" vol="100" pos="336" pan="0" len="24"/>
          <note key="38" vol="100" pos="336" pan="0" len="24"/>
          <note key="0" vol="100" pos="336" pan="0" len="12"/>
          <note key="1" vol="100" pos="348" pan="0" len="12"/>
          <note key="38" vol="100" pos="360" pan="0" len="12"/>
          <note key="38" vol="100" pos="372" pan="0" len="12"/>
        </pattern>
        <pattern muted="0" pos="32256" steps="16" name="Rhythm Guitar" type="1">
          <note key="45" vol="200" pos="0" pan="0" len="48"/>
          <note key="38" vol="200" pos="0" pan="0" len="48"/>
          <note key="1" vol="200" pos="0" pan="0" len="48"/>
          <note key="45" vol="200" pos="48" pan="0" len="48"/>
          <note key="38" vol="200" pos="48" pan="0" len="48"/>
          <note key="45" vol="200" pos="96" pan="0" len="48"/>
          <note key="38" vol="200" pos="96" pan="0" len="48"/>
          <note key="1" vol="200" pos="132" pan="0" len="24"/>
          <note key="45" vol="200" pos="144" pan="0" len="24"/>
          <note key="38" vol="200" pos="144" pan="0" len="24"/>
          <note key="0" vol="200" pos="156" pan="0" len="24"/>
          <note key="45" vol="200" pos="168" pan="0" len="48"/>
          <note key="38" vol="200" pos="168" pan="0" len="48"/>
          <note key="1" vol="200" pos="204" pan="0" len="24"/>
          <note key="45" vol="200" pos="216" pan="0" len="24"/>
          <note key="38" vol="200" pos="216" pan="0" len="24"/>
          <note key="0" vol="200" pos="228" pan="0" len="24"/>
          <note key="45" vol="200" pos="240" pan="0" len="48"/>
          <note key="38" vol="200" pos="240" pan="0" len="48"/>
          <note key="1" vol="200" pos="276" pan="0" len="24"/>
          <note key="45" vol="200" pos="288" pan="0" len="24"/>
          <note key="38" vol="200" pos="288" pan="0" len="24"/>
          <note key="0" vol="200" pos="300" pan="0" len="24"/>
          <note key="45" vol="200" pos="312" pan="0" len="48"/>
          <note key="38" vol="200" pos="312" pan="0" len="48"/>
          <note key="1" vol="200" pos="348" pan="0" len="24"/>
          <note key="45" vol="200" pos="360" pan="0" len="24"/>
          <note key="38" vol="200" pos="360" pan="0" len="24"/>
        </pattern>
        <pattern muted="0" pos="32640" steps="16" name="Rhythm Guitar" type="1">
          <note key="50" vol="200" pos="0" pan="0" len="48"/>
          <note key="43" vol="200" pos="0" pan="0" len="48"/>
          <note key="1" vol="200" pos="0" pan="0" len="48"/>
          <note key="50" vol="200" pos="48" pan="0" len="48"/>
          <note key="43" vol="200" pos="48" pan="0" len="48"/>
          <note key="50" vol="200" pos="96" pan="0" len="48"/>
          <note key="43" vol="200" pos="96" pan="0" len="48"/>
          <note key="1" vol="200" pos="132" pan="0" len="24"/>
          <note key="50" vol="200" pos="144" pan="0" len="24"/>
          <note key="43" vol="200" pos="144" pan="0" len="24"/>
          <note key="0" vol="200" pos="156" pan="0" len="24"/>
          <note key="52" vol="200" pos="168" pan="0" len="48"/>
          <note key="45" vol="200" pos="168" pan="0" len="48"/>
          <note key="1" vol="200" pos="204" pan="0" len="24"/>
          <note key="52" vol="200" pos="216" pan="0" len="24"/>
          <note key="45" vol="200" pos="216" pan="0" len="24"/>
          <note key="0" vol="200" pos="228" pan="0" len="24"/>
          <note key="52" vol="200" pos="240" pan="0" len="48"/>
          <note key="45" vol="200" pos="240" pan="0" len="48"/>
          <note key="1" vol="200" pos="276" pan="0" len="24"/>
          <note key="52" vol="200" pos="288" pan="0" len="24"/>
          <note key="45" vol="200" pos="288" pan="0" len="24"/>
          <note key="0" vol="200" pos="300" pan="0" len="24"/>
          <note key="52" vol="200" pos="312" pan="0" len="48"/>
          <note key="45" vol="200" pos="312" pan="0" len="48"/>
          <note key="1" vol="200" pos="348" pan="0" len="24"/>
          <note key="52" vol="200" pos="360" pan="0" len="24"/>
          <note key="45" vol="200" pos="360" pan="0" len="24"/>
        </pattern>
        <pattern muted="0" pos="33024" steps="16" name="Rhythm Guitar" type="1">
          <note key="45" vol="200" pos="0" pan="0" len="48"/>
          <note key="38" vol="200" pos="0" pan="0" len="48"/>
          <note key="1" vol="200" pos="0" pan="0" len="48"/>
          <note key="45" vol="200" pos="48" pan="0" len="48"/>
          <note key="38" vol="200" pos="48" pan="0" len="48"/>
          <note key="45" vol="200" pos="96" pan="0" len="48"/>
          <note key="38" vol="200" pos="96" pan="0" len="48"/>
          <note key="1" vol="200" pos="132" pan="0" len="24"/>
          <note key="45" vol="200" pos="144" pan="0" len="24"/>
          <note key="38" vol="200" pos="144" pan="0" len="24"/>
          <note key="0" vol="200" pos="156" pan="0" len="24"/>
          <note key="45" vol="200" pos="168" pan="0" len="48"/>
          <note key="38" vol="200" pos="168" pan="0" len="48"/>
          <note key="1" vol="200" pos="204" pan="0" len="24"/>
          <note key="45" vol="200" pos="216" pan="0" len="24"/>
          <note key="38" vol="200" pos="216" pan="0" len="24"/>
          <note key="0" vol="200" pos="228" pan="0" len="24"/>
          <note key="45" vol="200" pos="240" pan="0" len="48"/>
          <note key="38" vol="200" pos="240" pan="0" len="48"/>
          <note key="1" vol="200" pos="276" pan="0" len="24"/>
          <note key="45" vol="200" pos="288" pan="0" len="24"/>
          <note key="38" vol="200" pos="288" pan="0" len="24"/>
          <note key="0" vol="200" pos="300" pan="0" len="24"/>
          <note key="45" vol="200" pos="312" pan="0" len="48"/>
          <note key="38" vol="200" pos="312" pan="0" len="48"/>
          <note key="1" vol="200" pos="348" pan="0" len="24"/>
          <note key="45" vol="200" pos="360" pan="0" len="24"/>
          <note key="38" vol="200" pos="360" pan="0" len="24"/>
        </pattern>
        <pattern muted="0" pos="33408" steps="16" name="Rhythm Guitar" type="1">
          <note key="50" vol="200" pos="0" pan="0" len="48"/>
          <note key="43" vol="200" pos="0" pan="0" len="48"/>
          <note key="1" vol="200" pos="0" pan="0" len="48"/>
          <note key="50" vol="200" pos="48" pan="0" len="48"/>
          <note key="43" vol="200" pos="48" pan="0" len="48"/>
          <note key="50" vol="200" pos="96" pan="0" len="48"/>
          <note key="43" vol="200" pos="96" pan="0" len="48"/>
          <note key="1" vol="200" pos="132" pan="0" len="24"/>
          <note key="50" vol="200" pos="144" pan="0" len="24"/>
          <note key="43" vol="200" pos="144" pan="0" len="24"/>
          <note key="0" vol="200" pos="156" pan="0" len="24"/>
          <note key="52" vol="200" pos="168" pan="0" len="48"/>
          <note key="45" vol="200" pos="168" pan="0" len="48"/>
          <note key="1" vol="200" pos="204" pan="0" len="24"/>
          <note key="52" vol="200" pos="216" pan="0" len="24"/>
          <note key="45" vol="200" pos="216" pan="0" len="24"/>
          <note key="0" vol="200" pos="228" pan="0" len="24"/>
          <note key="52" vol="200" pos="240" pan="0" len="48"/>
          <note key="45" vol="200" pos="240" pan="0" len="48"/>
          <note key="52" vol="200" pos="288" pan="0" len="48"/>
          <note key="45" vol="200" pos="288" pan="0" len="48"/>
        </pattern>
        <pattern muted="0" pos="33792" steps="16" name="Rhythm Guitar" type="1">
          <note key="45" vol="200" pos="0" pan="0" len="24"/>
          <note key="38" vol="200" pos="0" pan="0" len="24"/>
          <note key="1" vol="200" pos="0" pan="0" len="24"/>
          <note key="45" vol="200" pos="24" pan="0" len="24"/>
          <note key="38" vol="200" pos="24" pan="0" len="24"/>
          <note key="45" vol="200" pos="48" pan="0" len="24"/>
          <note key="38" vol="200" pos="48" pan="0" len="24"/>
          <note key="45" vol="200" pos="72" pan="0" len="24"/>
          <note key="38" vol="200" pos="72" pan="0" len="24"/>
          <note key="45" vol="200" pos="96" pan="0" len="24"/>
          <note key="38" vol="200" pos="96" pan="0" len="24"/>
          <note key="45" vol="200" pos="120" pan="0" len="24"/>
          <note key="38" vol="200" pos="120" pan="0" len="24"/>
          <note key="45" vol="200" pos="144" pan="0" len="24"/>
          <note key="38" vol="200" pos="144" pan="0" len="24"/>
          <note key="45" vol="200" pos="168" pan="0" len="24"/>
          <note key="38" vol="200" pos="168" pan="0" len="24"/>
          <note key="45" vol="200" pos="192" pan="0" len="24"/>
          <note key="38" vol="200" pos="192" pan="0" len="24"/>
          <note key="45" vol="200" pos="216" pan="0" len="24"/>
          <note key="38" vol="200" pos="216" pan="0" len="24"/>
          <note key="45" vol="200" pos="240" pan="0" len="24"/>
          <note key="38" vol="200" pos="240" pan="0" len="24"/>
          <note key="45" vol="200" pos="264" pan="0" len="24"/>
          <note key="38" vol="200" pos="264" pan="0" len="24"/>
          <note key="45" vol="200" pos="288" pan="0" len="24"/>
          <note key="38" vol="200" pos="288" pan="0" len="24"/>
          <note key="45" vol="200" pos="312" pan="0" len="24"/>
          <note key="38" vol="200" pos="312" pan="0" len="24"/>
          <note key="45" vol="200" pos="336" pan="0" len="24"/>
          <note key="38" vol="200" pos="336" pan="0" len="24"/>
          <note key="45" vol="200" pos="360" pan="0" len="24"/>
          <note key="38" vol="200" pos="360" pan="0" len="24"/>
        </pattern>
        <pattern muted="0" pos="34176" steps="16" name="Rhythm Guitar" type="1">
          <note key="50" vol="200" pos="0" pan="0" len="24"/>
          <note key="43" vol="200" pos="0" pan="0" len="24"/>
          <note key="1" vol="200" pos="0" pan="0" len="24"/>
          <note key="50" vol="200" pos="24" pan="0" len="24"/>
          <note key="43" vol="200" pos="24" pan="0" len="24"/>
          <note key="50" vol="200" pos="48" pan="0" len="24"/>
          <note key="43" vol="200" pos="48" pan="0" len="24"/>
          <note key="50" vol="200" pos="72" pan="0" len="24"/>
          <note key="43" vol="200" pos="72" pan="0" len="24"/>
          <note key="50" vol="200" pos="96" pan="0" len="24"/>
          <note key="43" vol="200" pos="96" pan="0" len="24"/>
          <note key="50" vol="200" pos="120" pan="0" len="24"/>
          <note key="43" vol="200" pos="120" pan="0" len="24"/>
          <note key="50" vol="200" pos="144" pan="0" len="24"/>
          <note key="43" vol="200" pos="144" pan="0" len="24"/>
          <note key="50" vol="200" pos="168" pan="0" len="24"/>
          <note key="43" vol="200" pos="168" pan="0" len="24"/>
          <note key="52" vol="200" pos="192" pan="0" len="24"/>
          <note key="45" vol="200" pos="192" pan="0" len="24"/>
          <note key="52" vol="200" pos="216" pan="0" len="24"/>
          <note key="45" vol="200" pos="216" pan="0" len="24"/>
          <note key="52" vol="200" pos="240" pan="0" len="24"/>
          <note key="45" vol="200" pos="240" pan="0" len="24"/>
          <note key="52" vol="200" pos="264" pan="0" len="24"/>
          <note key="45" vol="200" pos="264" pan="0" len="24"/>
          <note key="52" vol="200" pos="288" pan="0" len="24"/>
          <note key="45" vol="200" pos="288" pan="0" len="24"/>
          <note key="52" vol="200" pos="312" pan="0" len="24"/>
          <note key="45" vol="200" pos="312" pan="0" len="24"/>
          <note key="52" vol="200" pos="336" pan="0" len="24"/>
          <note key="45" vol="200" pos="336" pan="0" len="24"/>
          <note key="52" vol="200" pos="360" pan="0" len="24"/>
          <note key="45" vol="200" pos="360" pan="0" len="24"/>
        </pattern>
        <pattern muted="0" pos="34560" steps="16" name="Rhythm Guitar" type="1">
          <note key="45" vol="200" pos="0" pan="0" len="24"/>
          <note key="38" vol="200" pos="0" pan="0" len="24"/>
          <note key="1" vol="200" pos="0" pan="0" len="24"/>
          <note key="45" vol="200" pos="24" pan="0" len="24"/>
          <note key="38" vol="200" pos="24" pan="0" len="24"/>
          <note key="45" vol="200" pos="48" pan="0" len="24"/>
          <note key="38" vol="200" pos="48" pan="0" len="24"/>
          <note key="45" vol="200" pos="72" pan="0" len="24"/>
          <note key="38" vol="200" pos="72" pan="0" len="24"/>
          <note key="45" vol="200" pos="96" pan="0" len="24"/>
          <note key="38" vol="200" pos="96" pan="0" len="24"/>
          <note key="45" vol="200" pos="120" pan="0" len="24"/>
          <note key="38" vol="200" pos="120" pan="0" len="24"/>
          <note key="45" vol="200" pos="144" pan="0" len="24"/>
          <note key="38" vol="200" pos="144" pan="0" len="24"/>
          <note key="45" vol="200" pos="168" pan="0" len="24"/>
          <note key="38" vol="200" pos="168" pan="0" len="24"/>
          <note key="45" vol="200" pos="192" pan="0" len="24"/>
          <note key="38" vol="200" pos="192" pan="0" len="24"/>
          <note key="45" vol="200" pos="216" pan="0" len="24"/>
          <note key="38" vol="200" pos="216" pan="0" len="24"/>
          <note key="45" vol="200" pos="240" pan="0" len="24"/>
          <note key="38" vol="200" pos="240" pan="0" len="24"/>
          <note key="45" vol="200" pos="264" pan="0" len="24"/>
          <note key="38" vol="200" pos="264" pan="0" len="24"/>
          <note key="45" vol="200" pos="288" pan="0" len="24"/>
          <note key="38" vol="200" pos="288" pan="0" len="24"/>
          <note key="45" vol="200" pos="312" pan="0" len="24"/>
          <note key="38" vol="200" pos="312" pan="0" len="24"/>
          <note key="45" vol="200" pos="336" pan="0" len="24"/>
          <note key="38" vol="200" pos="336" pan="0" len="24"/>
          <note key="45" vol="200" pos="360" pan="0" len="24"/>
          <note key="38" vol="200" pos="360" pan="0" len="24"/>
        </pattern>
        <pattern muted="0" pos="34944" steps="16" name="Rhythm Guitar" type="1">
          <note key="50" vol="200" pos="0" pan="0" len="24"/>
          <note key="43" vol="200" pos="0" pan="0" len="24"/>
          <note key="1" vol="200" pos="0" pan="0" len="24"/>
          <note key="50" vol="200" pos="24" pan="0" len="24"/>
          <note key="43" vol="200" pos="24" pan="0" len="24"/>
          <note key="50" vol="200" pos="48" pan="0" len="24"/>
          <note key="43" vol="200" pos="48" pan="0" len="24"/>
          <note key="50" vol="200" pos="72" pan="0" len="24"/>
          <note key="43" vol="200" pos="72" pan="0" len="24"/>
          <note key="50" vol="200" pos="96" pan="0" len="24"/>
          <note key="43" vol="200" pos="96" pan="0" len="24"/>
          <note key="50" vol="200" pos="120" pan="0" len="24"/>
          <note key="43" vol="200" pos="120" pan="0" len="24"/>
          <note key="50" vol="200" pos="144" pan="0" len="24"/>
          <note key="43" vol="200" pos="144" pan="0" len="24"/>
          <note key="50" vol="200" pos="168" pan="0" len="24"/>
          <note key="43" vol="200" pos="168" pan="0" len="24"/>
          <note key="52" vol="200" pos="192" pan="0" len="24"/>
          <note key="45" vol="200" pos="192" pan="0" len="24"/>
          <note key="52" vol="200" pos="216" pan="0" len="24"/>
          <note key="45" vol="200" pos="216" pan="0" len="24"/>
          <note key="52" vol="200" pos="240" pan="0" len="24"/>
          <note key="45" vol="200" pos="240" pan="0" len="24"/>
          <note key="52" vol="200" pos="264" pan="0" len="24"/>
          <note key="45" vol="200" pos="264" pan="0" len="24"/>
          <note key="0" vol="200" pos="276" pan="0" len="48"/>
          <note key="52" vol="200" pos="288" pan="0" len="48"/>
          <note key="45" vol="200" pos="288" pan="0" len="48"/>
          <note key="52" vol="200" pos="336" pan="0" len="48"/>
          <note key="45" vol="200" pos="336" pan="0" len="48"/>
        </pattern>
        <pattern muted="0" pos="35328" steps="16" name="Rhythm Guitar" type="1">
          <note key="42" vol="200" pos="0" pan="0" len="24"/>
          <note key="35" vol="200" pos="0" pan="0" len="24"/>
          <note key="0" vol="200" pos="0" pan="0" len="12"/>
          <note key="1" vol="200" pos="12" pan="0" len="12"/>
          <note key="35" vol="200" pos="24" pan="0" len="12"/>
          <note key="35" vol="200" pos="36" pan="0" len="12"/>
          <note key="35" vol="200" pos="48" pan="0" len="12"/>
          <note key="35" vol="200" pos="60" pan="0" len="12"/>
          <note key="42" vol="200" pos="72" pan="0" len="24"/>
          <note key="35" vol="200" pos="72" pan="0" len="24"/>
          <note key="0" vol="200" pos="72" pan="0" len="12"/>
          <note key="1" vol="200" pos="84" pan="0" len="12"/>
          <note key="35" vol="200" pos="96" pan="0" len="12"/>
          <note key="35" vol="200" pos="108" pan="0" len="12"/>
          <note key="35" vol="200" pos="120" pan="0" len="12"/>
          <note key="35" vol="200" pos="132" pan="0" len="12"/>
          <note key="35" vol="200" pos="144" pan="0" len="12"/>
          <note key="35" vol="200" pos="156" pan="0" len="12"/>
          <note key="35" vol="200" pos="168" pan="0" len="12"/>
          <note key="35" vol="200" pos="180" pan="0" len="12"/>
          <note key="42" vol="200" pos="192" pan="0" len="24"/>
          <note key="35" vol="200" pos="192" pan="0" len="24"/>
          <note key="0" vol="200" pos="192" pan="0" len="12"/>
          <note key="1" vol="200" pos="204" pan="0" len="12"/>
          <note key="35" vol="200" pos="216" pan="0" len="12"/>
          <note key="35" vol="200" pos="228" pan="0" len="12"/>
          <note key="35" vol="200" pos="240" pan="0" len="12"/>
          <note key="35" vol="200" pos="252" pan="0" len="12"/>
          <note key="42" vol="200" pos="264" pan="0" len="24"/>
          <note key="35" vol="200" pos="264" pan="0" len="24"/>
          <note key="0" vol="200" pos="264" pan="0" len="12"/>
          <note key="1" vol="200" pos="276" pan="0" len="12"/>
          <note key="35" vol="200" pos="288" pan="0" len="12"/>
          <note key="35" vol="200" pos="300" pan="0" len="12"/>
          <note key="35" vol="200" pos="312" pan="0" len="12"/>
          <note key="35" vol="200" pos="324" pan="0" len="12"/>
          <note key="35" vol="200" pos="336" pan="0" len="12"/>
          <note key="35" vol="200" pos="348" pan="0" len="12"/>
          <note key="35" vol="200" pos="360" pan="0" len="12"/>
          <note key="35" vol="200" pos="372" pan="0" len="12"/>
        </pattern>
        <pattern muted="0" pos="35712" steps="16" name="Rhythm Guitar" type="1">
          <note key="50" vol="200" pos="0" pan="0" len="24"/>
          <note key="43" vol="200" pos="0" pan="0" len="24"/>
          <note key="0" vol="200" pos="0" pan="0" len="12"/>
          <note key="1" vol="200" pos="12" pan="0" len="12"/>
          <note key="43" vol="200" pos="24" pan="0" len="12"/>
          <note key="43" vol="200" pos="36" pan="0" len="12"/>
          <note key="43" vol="200" pos="48" pan="0" len="12"/>
          <note key="43" vol="200" pos="60" pan="0" len="12"/>
          <note key="50" vol="200" pos="72" pan="0" len="24"/>
          <note key="43" vol="200" pos="72" pan="0" len="24"/>
          <note key="0" vol="200" pos="72" pan="0" len="12"/>
          <note key="1" vol="200" pos="84" pan="0" len="12"/>
          <note key="43" vol="200" pos="96" pan="0" len="12"/>
          <note key="43" vol="200" pos="108" pan="0" len="12"/>
          <note key="43" vol="200" pos="120" pan="0" len="12"/>
          <note key="43" vol="200" pos="132" pan="0" len="12"/>
          <note key="43" vol="200" pos="144" pan="0" len="12"/>
          <note key="43" vol="200" pos="156" pan="0" len="12"/>
          <note key="43" vol="200" pos="168" pan="0" len="12"/>
          <note key="43" vol="200" pos="180" pan="0" len="12"/>
          <note key="50" vol="200" pos="192" pan="0" len="24"/>
          <note key="43" vol="200" pos="192" pan="0" len="24"/>
          <note key="0" vol="200" pos="192" pan="0" len="12"/>
          <note key="1" vol="200" pos="204" pan="0" len="12"/>
          <note key="43" vol="200" pos="216" pan="0" len="12"/>
          <note key="43" vol="200" pos="228" pan="0" len="12"/>
          <note key="43" vol="200" pos="240" pan="0" len="12"/>
          <note key="43" vol="200" pos="252" pan="0" len="12"/>
          <note key="50" vol="200" pos="264" pan="0" len="24"/>
          <note key="43" vol="200" pos="264" pan="0" len="24"/>
          <note key="0" vol="200" pos="264" pan="0" len="12"/>
          <note key="1" vol="200" pos="276" pan="0" len="12"/>
          <note key="43" vol="200" pos="288" pan="0" len="12"/>
          <note key="43" vol="200" pos="300" pan="0" len="12"/>
          <note key="43" vol="200" pos="312" pan="0" len="12"/>
          <note key="43" vol="200" pos="324" pan="0" len="12"/>
          <note key="43" vol="200" pos="336" pan="0" len="12"/>
          <note key="43" vol="200" pos="348" pan="0" len="12"/>
          <note key="43" vol="200" pos="360" pan="0" len="12"/>
          <note key="43" vol="200" pos="372" pan="0" len="12"/>
        </pattern>
        <pattern muted="0" pos="36096" steps="16" name="Rhythm Guitar" type="1">
          <note key="52" vol="200" pos="0" pan="0" len="24"/>
          <note key="45" vol="200" pos="0" pan="0" len="24"/>
          <note key="0" vol="200" pos="0" pan="0" len="12"/>
          <note key="1" vol="200" pos="12" pan="0" len="12"/>
          <note key="45" vol="200" pos="24" pan="0" len="12"/>
          <note key="45" vol="200" pos="36" pan="0" len="12"/>
          <note key="45" vol="200" pos="48" pan="0" len="12"/>
          <note key="45" vol="200" pos="60" pan="0" len="12"/>
          <note key="52" vol="200" pos="72" pan="0" len="24"/>
          <note key="45" vol="200" pos="72" pan="0" len="24"/>
          <note key="0" vol="200" pos="72" pan="0" len="12"/>
          <note key="1" vol="200" pos="84" pan="0" len="12"/>
          <note key="45" vol="200" pos="96" pan="0" len="12"/>
          <note key="45" vol="200" pos="108" pan="0" len="12"/>
          <note key="45" vol="200" pos="120" pan="0" len="12"/>
          <note key="45" vol="200" pos="132" pan="0" len="12"/>
          <note key="45" vol="200" pos="144" pan="0" len="12"/>
          <note key="45" vol="200" pos="156" pan="0" len="12"/>
          <note key="45" vol="200" pos="168" pan="0" len="12"/>
          <note key="45" vol="200" pos="180" pan="0" len="12"/>
          <note key="52" vol="200" pos="192" pan="0" len="24"/>
          <note key="45" vol="200" pos="192" pan="0" len="24"/>
          <note key="0" vol="200" pos="192" pan="0" len="12"/>
          <note key="1" vol="200" pos="204" pan="0" len="12"/>
          <note key="45" vol="200" pos="216" pan="0" len="12"/>
          <note key="45" vol="200" pos="228" pan="0" len="12"/>
          <note key="45" vol="200" pos="240" pan="0" len="12"/>
          <note key="45" vol="200" pos="252" pan="0" len="12"/>
          <note key="52" vol="200" pos="264" pan="0" len="24"/>
          <note key="45" vol="200" pos="264" pan="0" len="24"/>
          <note key="0" vol="200" pos="264" pan="0" len="12"/>
          <note key="1" vol="200" pos="276" pan="0" len="12"/>
          <note key="45" vol="200" pos="288" pan="0" len="12"/>
          <note key="45" vol="200" pos="300" pan="0" len="12"/>
          <note key="45" vol="200" pos="312" pan="0" len="12"/>
          <note key="45" vol="200" pos="324" pan="0" len="12"/>
          <note key="45" vol="200" pos="336" pan="0" len="12"/>
          <note key="45" vol="200" pos="348" pan="0" len="12"/>
          <note key="45" vol="200" pos="360" pan="0" len="12"/>
          <note key="45" vol="200" pos="372" pan="0" len="12"/>
        </pattern>
        <pattern muted="0" pos="36480" steps="16" name="Rhythm Guitar" type="1">
          <note key="45" vol="200" pos="0" pan="0" len="24"/>
          <note key="38" vol="200" pos="0" pan="0" len="24"/>
          <note key="0" vol="200" pos="0" pan="0" len="12"/>
          <note key="1" vol="200" pos="12" pan="0" len="12"/>
          <note key="38" vol="200" pos="24" pan="0" len="12"/>
          <note key="38" vol="200" pos="36" pan="0" len="12"/>
          <note key="38" vol="200" pos="48" pan="0" len="12"/>
          <note key="38" vol="200" pos="60" pan="0" len="12"/>
          <note key="45" vol="200" pos="72" pan="0" len="24"/>
          <note key="38" vol="200" pos="72" pan="0" len="24"/>
          <note key="0" vol="200" pos="72" pan="0" len="12"/>
          <note key="1" vol="200" pos="84" pan="0" len="12"/>
          <note key="38" vol="200" pos="96" pan="0" len="12"/>
          <note key="38" vol="200" pos="108" pan="0" len="12"/>
          <note key="38" vol="200" pos="120" pan="0" len="12"/>
          <note key="38" vol="200" pos="132" pan="0" len="12"/>
          <note key="38" vol="200" pos="144" pan="0" len="12"/>
          <note key="38" vol="200" pos="156" pan="0" len="12"/>
          <note key="38" vol="200" pos="168" pan="0" len="12"/>
          <note key="38" vol="200" pos="180" pan="0" len="12"/>
          <note key="45" vol="200" pos="192" pan="0" len="24"/>
          <note key="38" vol="200" pos="192" pan="0" len="24"/>
          <note key="0" vol="200" pos="192" pan="0" len="12"/>
          <note key="1" vol="200" pos="204" pan="0" len="12"/>
          <note key="38" vol="200" pos="216" pan="0" len="12"/>
          <note key="38" vol="200" pos="228" pan="0" len="12"/>
          <note key="38" vol="200" pos="240" pan="0" len="12"/>
          <note key="38" vol="200" pos="252" pan="0" len="12"/>
          <note key="45" vol="200" pos="264" pan="0" len="24"/>
          <note key="38" vol="200" pos="264" pan="0" len="24"/>
          <note key="0" vol="200" pos="264" pan="0" len="12"/>
          <note key="1" vol="200" pos="276" pan="0" len="12"/>
          <note key="38" vol="200" pos="288" pan="0" len="12"/>
          <note key="38" vol="200" pos="300" pan="0" len="12"/>
          <note key="38" vol="200" pos="312" pan="0" len="12"/>
          <note key="38" vol="200" pos="324" pan="0" len="12"/>
          <note key="38" vol="200" pos="336" pan="0" len="12"/>
          <note key="38" vol="200" pos="348" pan="0" len="12"/>
          <note key="38" vol="200" pos="360" pan="0" len="12"/>
          <note key="38" vol="200" pos="372" pan="0" len="12"/>
        </pattern>
        <pattern muted="0" pos="36864" steps="16" name="Rhythm Guitar" type="1">
          <note key="42" vol="200" pos="0" pan="0" len="24"/>
          <note key="35" vol="200" pos="0" pan="0" len="24"/>
          <note key="0" vol="200" pos="0" pan="0" len="12"/>
          <note key="1" vol="200" pos="12" pan="0" len="12"/>
          <note key="35" vol="200" pos="24" pan="0" len="12"/>
          <note key="35" vol="200" pos="36" pan="0" len="12"/>
          <note key="35" vol="200" pos="48" pan="0" len="12"/>
          <note key="35" vol="200" pos="60" pan="0" len="12"/>
          <note key="42" vol="200" pos="72" pan="0" len="24"/>
          <note key="35" vol="200" pos="72" pan="0" len="24"/>
          <note key="0" vol="200" pos="72" pan="0" len="12"/>
          <note key="1" vol="200" pos="84" pan="0" len="12"/>
          <note key="35" vol="200" pos="96" pan="0" len="12"/>
          <note key="35" vol="200" pos="108" pan="0" len="12"/>
          <note key="35" vol="200" pos="120" pan="0" len="12"/>
          <note key="35" vol="200" pos="132" pan="0" len="12"/>
          <note key="35" vol="200" pos="144" pan="0" len="12"/>
          <note key="35" vol="200" pos="156" pan="0" len="12"/>
          <note key="35" vol="200" pos="168" pan="0" len="12"/>
          <note key="35" vol="200" pos="180" pan="0" len="12"/>
          <note key="42" vol="200" pos="192" pan="0" len="24"/>
          <note key="35" vol="200" pos="192" pan="0" len="24"/>
          <note key="0" vol="200" pos="192" pan="0" len="12"/>
          <note key="1" vol="200" pos="204" pan="0" len="12"/>
          <note key="35" vol="200" pos="216" pan="0" len="12"/>
          <note key="35" vol="200" pos="228" pan="0" len="12"/>
          <note key="35" vol="200" pos="240" pan="0" len="12"/>
          <note key="35" vol="200" pos="252" pan="0" len="12"/>
          <note key="42" vol="200" pos="264" pan="0" len="24"/>
          <note key="35" vol="200" pos="264" pan="0" len="24"/>
          <note key="0" vol="200" pos="264" pan="0" len="12"/>
          <note key="1" vol="200" pos="276" pan="0" len="12"/>
          <note key="35" vol="200" pos="288" pan="0" len="12"/>
          <note key="35" vol="200" pos="300" pan="0" len="12"/>
          <note key="35" vol="200" pos="312" pan="0" len="12"/>
          <note key="35" vol="200" pos="324" pan="0" len="12"/>
          <note key="35" vol="200" pos="336" pan="0" len="12"/>
          <note key="35" vol="200" pos="348" pan="0" len="12"/>
          <note key="35" vol="200" pos="360" pan="0" len="12"/>
          <note key="35" vol="200" pos="372" pan="0" len="12"/>
        </pattern>
        <pattern muted="0" pos="37248" steps="16" name="Rhythm Guitar" type="1">
          <note key="50" vol="200" pos="0" pan="0" len="24"/>
          <note key="43" vol="200" pos="0" pan="0" len="24"/>
          <note key="0" vol="200" pos="0" pan="0" len="12"/>
          <note key="1" vol="200" pos="12" pan="0" len="12"/>
          <note key="43" vol="200" pos="24" pan="0" len="12"/>
          <note key="43" vol="200" pos="36" pan="0" len="12"/>
          <note key="43" vol="200" pos="48" pan="0" len="12"/>
          <note key="43" vol="200" pos="60" pan="0" len="12"/>
          <note key="50" vol="200" pos="72" pan="0" len="24"/>
          <note key="43" vol="200" pos="72" pan="0" len="24"/>
          <note key="0" vol="200" pos="72" pan="0" len="12"/>
          <note key="1" vol="200" pos="84" pan="0" len="12"/>
          <note key="43" vol="200" pos="96" pan="0" len="12"/>
          <note key="43" vol="200" pos="108" pan="0" len="12"/>
          <note key="43" vol="200" pos="120" pan="0" len="12"/>
          <note key="43" vol="200" pos="132" pan="0" len="12"/>
          <note key="43" vol="200" pos="144" pan="0" len="12"/>
          <note key="43" vol="200" pos="156" pan="0" len="12"/>
          <note key="43" vol="200" pos="168" pan="0" len="12"/>
          <note key="43" vol="200" pos="180" pan="0" len="12"/>
          <note key="50" vol="200" pos="192" pan="0" len="24"/>
          <note key="43" vol="200" pos="192" pan="0" len="24"/>
          <note key="0" vol="200" pos="192" pan="0" len="12"/>
          <note key="1" vol="200" pos="204" pan="0" len="12"/>
          <note key="43" vol="200" pos="216" pan="0" len="12"/>
          <note key="43" vol="200" pos="228" pan="0" len="12"/>
          <note key="43" vol="200" pos="240" pan="0" len="12"/>
          <note key="43" vol="200" pos="252" pan="0" len="12"/>
          <note key="50" vol="200" pos="264" pan="0" len="24"/>
          <note key="43" vol="200" pos="264" pan="0" len="24"/>
          <note key="0" vol="200" pos="264" pan="0" len="12"/>
          <note key="1" vol="200" pos="276" pan="0" len="12"/>
          <note key="43" vol="200" pos="288" pan="0" len="12"/>
          <note key="43" vol="200" pos="300" pan="0" len="12"/>
          <note key="43" vol="200" pos="312" pan="0" len="12"/>
          <note key="43" vol="200" pos="324" pan="0" len="12"/>
          <note key="43" vol="200" pos="336" pan="0" len="12"/>
          <note key="43" vol="200" pos="348" pan="0" len="12"/>
          <note key="43" vol="200" pos="360" pan="0" len="12"/>
          <note key="43" vol="200" pos="372" pan="0" len="12"/>
        </pattern>
        <pattern muted="0" pos="37632" steps="16" name="Rhythm Guitar" type="1">
          <note key="52" vol="200" pos="0" pan="0" len="24"/>
          <note key="45" vol="200" pos="0" pan="0" len="24"/>
          <note key="0" vol="200" pos="0" pan="0" len="12"/>
          <note key="1" vol="200" pos="12" pan="0" len="12"/>
          <note key="45" vol="200" pos="24" pan="0" len="12"/>
          <note key="45" vol="200" pos="36" pan="0" len="12"/>
          <note key="45" vol="200" pos="48" pan="0" len="12"/>
          <note key="45" vol="200" pos="60" pan="0" len="12"/>
          <note key="52" vol="200" pos="72" pan="0" len="24"/>
          <note key="45" vol="200" pos="72" pan="0" len="24"/>
          <note key="0" vol="200" pos="72" pan="0" len="12"/>
          <note key="1" vol="200" pos="84" pan="0" len="12"/>
          <note key="45" vol="200" pos="96" pan="0" len="12"/>
          <note key="45" vol="200" pos="108" pan="0" len="12"/>
          <note key="45" vol="200" pos="120" pan="0" len="12"/>
          <note key="45" vol="200" pos="132" pan="0" len="12"/>
          <note key="45" vol="200" pos="144" pan="0" len="12"/>
          <note key="45" vol="200" pos="156" pan="0" len="12"/>
          <note key="45" vol="200" pos="168" pan="0" len="12"/>
          <note key="45" vol="200" pos="180" pan="0" len="12"/>
          <note key="52" vol="200" pos="192" pan="0" len="24"/>
          <note key="45" vol="200" pos="192" pan="0" len="24"/>
          <note key="0" vol="200" pos="192" pan="0" len="12"/>
          <note key="1" vol="200" pos="204" pan="0" len="12"/>
          <note key="45" vol="200" pos="216" pan="0" len="12"/>
          <note key="45" vol="200" pos="228" pan="0" len="12"/>
          <note key="45" vol="200" pos="240" pan="0" len="12"/>
          <note key="45" vol="200" pos="252" pan="0" len="12"/>
          <note key="52" vol="200" pos="264" pan="0" len="24"/>
          <note key="45" vol="200" pos="264" pan="0" len="24"/>
          <note key="0" vol="200" pos="264" pan="0" len="12"/>
          <note key="1" vol="200" pos="276" pan="0" len="12"/>
          <note key="45" vol="200" pos="288" pan="0" len="12"/>
          <note key="45" vol="200" pos="300" pan="0" len="12"/>
          <note key="45" vol="200" pos="312" pan="0" len="12"/>
          <note key="45" vol="200" pos="324" pan="0" len="12"/>
          <note key="45" vol="200" pos="336" pan="0" len="12"/>
          <note key="45" vol="200" pos="348" pan="0" len="12"/>
          <note key="45" vol="200" pos="360" pan="0" len="12"/>
          <note key="45" vol="200" pos="372" pan="0" len="12"/>
        </pattern>
        <pattern muted="0" pos="38016" steps="16" name="Rhythm Guitar" type="1">
          <note key="45" vol="200" pos="0" pan="0" len="12"/>
          <note key="1" vol="200" pos="0" pan="0" len="12"/>
          <note key="45" vol="200" pos="12" pan="0" len="12"/>
          <note key="45" vol="200" pos="24" pan="0" len="12"/>
          <note key="45" vol="200" pos="36" pan="0" len="12"/>
          <note key="45" vol="200" pos="48" pan="0" len="12"/>
          <note key="45" vol="200" pos="60" pan="0" len="12"/>
          <note key="45" vol="200" pos="72" pan="0" len="12"/>
          <note key="45" vol="200" pos="84" pan="0" len="12"/>
          <note key="45" vol="200" pos="96" pan="0" len="12"/>
          <note key="45" vol="200" pos="108" pan="0" len="12"/>
          <note key="45" vol="200" pos="120" pan="0" len="12"/>
          <note key="45" vol="200" pos="132" pan="0" len="12"/>
          <note key="45" vol="200" pos="144" pan="0" len="12"/>
          <note key="45" vol="200" pos="156" pan="0" len="12"/>
          <note key="45" vol="200" pos="168" pan="0" len="12"/>
          <note key="45" vol="200" pos="180" pan="0" len="12"/>
          <note key="52" vol="200" pos="192" pan="0" len="30"/>
          <note key="45" vol="200" pos="192" pan="0" len="30"/>
          <note key="0" vol="200" pos="192" pan="0" len="24"/>
          <note key="52" vol="200" pos="240" pan="0" len="30"/>
          <note key="45" vol="200" pos="240" pan="0" len="30"/>
          <note key="52" vol="200" pos="288" pan="0" len="30"/>
          <note key="45" vol="200" pos="288" pan="0" len="30"/>
          <note key="52" vol="200" pos="336" pan="0" len="30"/>
          <note key="45" vol="200" pos="336" pan="0" len="30"/>
        </pattern>
        <pattern muted="0" pos="38400" steps="16" name="Rhythm Guitar" type="1">
          <note key="45" vol="100" pos="0" pan="0" len="384"/>
          <note key="38" vol="100" pos="0" pan="0" len="384"/>
          <note key="0" vol="100" pos="0" pan="0" len="384"/>
          <note key="52" vol="100" pos="384" pan="0" len="384"/>
          <note key="45" vol="100" pos="384" pan="0" len="384"/>
          <note key="50" vol="100" pos="768" pan="0" len="384"/>
          <note key="43" vol="100" pos="768" pan="0" len="384"/>
          <note key="45" vol="100" pos="1152" pan="0" len="192"/>
          <note key="38" vol="100" pos="1152" pan="0" len="192"/>
          <note key="52" vol="100" pos="1344" pan="0" len="192"/>
          <note key="45" vol="100" pos="1344" pan="0" len="192"/>
        </pattern>
        <pattern muted="0" pos="39936" steps="16" name="Rhythm Guitar" type="1">
          <note key="45" vol="100" pos="0" pan="0" len="384"/>
          <note key="38" vol="100" pos="0" pan="0" len="384"/>
          <note key="0" vol="100" pos="0" pan="0" len="384"/>
          <note key="52" vol="100" pos="384" pan="0" len="384"/>
          <note key="45" vol="100" pos="384" pan="0" len="384"/>
          <note key="50" vol="100" pos="768" pan="0" len="384"/>
          <note key="43" vol="100" pos="768" pan="0" len="384"/>
          <note key="45" vol="100" pos="1152" pan="0" len="192"/>
          <note key="38" vol="100" pos="1152" pan="0" len="192"/>
          <note key="52" vol="100" pos="1344" pan="0" len="192"/>
          <note key="45" vol="100" pos="1344" pan="0" len="192"/>
        </pattern>
        <pattern muted="0" pos="41472" steps="16" name="Rhythm Guitar" type="1">
          <note key="45" vol="100" pos="0" pan="0" len="24"/>
          <note key="38" vol="100" pos="0" pan="0" len="24"/>
          <note key="0" vol="100" pos="0" pan="0" len="24"/>
          <note key="1" vol="100" pos="12" pan="0" len="24"/>
          <note key="38" vol="100" pos="24" pan="0" len="12"/>
          <note key="38" vol="100" pos="36" pan="0" len="12"/>
          <note key="38" vol="100" pos="48" pan="0" len="12"/>
          <note key="38" vol="100" pos="60" pan="0" len="12"/>
          <note key="45" vol="100" pos="72" pan="0" len="24"/>
          <note key="38" vol="100" pos="72" pan="0" len="24"/>
          <note key="0" vol="100" pos="72" pan="0" len="24"/>
          <note key="1" vol="100" pos="84" pan="0" len="24"/>
          <note key="38" vol="100" pos="96" pan="0" len="12"/>
          <note key="38" vol="100" pos="108" pan="0" len="12"/>
          <note key="38" vol="100" pos="120" pan="0" len="12"/>
          <note key="38" vol="100" pos="132" pan="0" len="12"/>
          <note key="45" vol="100" pos="144" pan="0" len="24"/>
          <note key="38" vol="100" pos="144" pan="0" len="24"/>
          <note key="0" vol="100" pos="144" pan="0" len="24"/>
          <note key="1" vol="100" pos="156" pan="0" len="24"/>
          <note key="38" vol="100" pos="168" pan="0" len="12"/>
          <note key="38" vol="100" pos="180" pan="0" len="12"/>
          <note key="45" vol="100" pos="192" pan="0" len="24"/>
          <note key="38" vol="100" pos="192" pan="0" len="24"/>
          <note key="0" vol="100" pos="192" pan="0" len="24"/>
          <note key="1" vol="100" pos="204" pan="0" len="24"/>
          <note key="38" vol="100" pos="216" pan="0" len="12"/>
          <note key="38" vol="100" pos="228" pan="0" len="12"/>
          <note key="38" vol="100" pos="240" pan="0" len="12"/>
          <note key="38" vol="100" pos="252" pan="0" len="12"/>
          <note key="45" vol="100" pos="264" pan="0" len="24"/>
          <note key="38" vol="100" pos="264" pan="0" len="24"/>
          <note key="0" vol="100" pos="264" pan="0" len="24"/>
          <note key="1" vol="100" pos="276" pan="0" len="24"/>
          <note key="38" vol="100" pos="288" pan="0" len="12"/>
          <note key="38" vol="100" pos="300" pan="0" len="12"/>
          <note key="38" vol="100" pos="312" pan="0" len="12"/>
          <note key="38" vol="100" pos="324" pan="0" len="12"/>
          <note key="45" vol="100" pos="336" pan="0" len="24"/>
          <note key="38" vol="100" pos="336" pan="0" len="24"/>
          <note key="0" vol="100" pos="336" pan="0" len="24"/>
          <note key="1" vol="100" pos="348" pan="0" len="24"/>
          <note key="38" vol="100" pos="360" pan="0" len="12"/>
          <note key="38" vol="100" pos="372" pan="0" len="12"/>
        </pattern>
        <pattern muted="0" pos="41856" steps="16" name="Rhythm Guitar" type="1">
          <note key="52" vol="100" pos="0" pan="0" len="24"/>
          <note key="45" vol="100" pos="0" pan="0" len="24"/>
          <note key="0" vol="100" pos="0" pan="0" len="24"/>
          <note key="1" vol="100" pos="12" pan="0" len="24"/>
          <note key="45" vol="100" pos="24" pan="0" len="12"/>
          <note key="45" vol="100" pos="36" pan="0" len="12"/>
          <note key="45" vol="100" pos="48" pan="0" len="12"/>
          <note key="45" vol="100" pos="60" pan="0" len="12"/>
          <note key="52" vol="100" pos="72" pan="0" len="24"/>
          <note key="45" vol="100" pos="72" pan="0" len="24"/>
          <note key="0" vol="100" pos="72" pan="0" len="24"/>
          <note key="1" vol="100" pos="84" pan="0" len="24"/>
          <note key="45" vol="100" pos="96" pan="0" len="12"/>
          <note key="45" vol="100" pos="108" pan="0" len="12"/>
          <note key="45" vol="100" pos="120" pan="0" len="12"/>
          <note key="45" vol="100" pos="132" pan="0" len="12"/>
          <note key="52" vol="100" pos="144" pan="0" len="24"/>
          <note key="45" vol="100" pos="144" pan="0" len="24"/>
          <note key="0" vol="100" pos="144" pan="0" len="24"/>
          <note key="1" vol="100" pos="156" pan="0" len="24"/>
          <note key="45" vol="100" pos="168" pan="0" len="12"/>
          <note key="45" vol="100" pos="180" pan="0" len="12"/>
          <note key="52" vol="100" pos="192" pan="0" len="24"/>
          <note key="45" vol="100" pos="192" pan="0" len="24"/>
          <note key="0" vol="100" pos="192" pan="0" len="24"/>
          <note key="1" vol="100" pos="204" pan="0" len="24"/>
          <note key="45" vol="100" pos="216" pan="0" len="12"/>
          <note key="45" vol="100" pos="228" pan="0" len="12"/>
          <note key="45" vol="100" pos="240" pan="0" len="12"/>
          <note key="45" vol="100" pos="252" pan="0" len="12"/>
          <note key="52" vol="100" pos="264" pan="0" len="24"/>
          <note key="45" vol="100" pos="264" pan="0" len="24"/>
          <note key="0" vol="100" pos="264" pan="0" len="24"/>
          <note key="1" vol="100" pos="276" pan="0" len="24"/>
          <note key="45" vol="100" pos="288" pan="0" len="12"/>
          <note key="45" vol="100" pos="300" pan="0" len="12"/>
          <note key="45" vol="100" pos="312" pan="0" len="12"/>
          <note key="45" vol="100" pos="324" pan="0" len="12"/>
          <note key="52" vol="100" pos="336" pan="0" len="24"/>
          <note key="45" vol="100" pos="336" pan="0" len="24"/>
          <note key="0" vol="100" pos="336" pan="0" len="24"/>
          <note key="1" vol="100" pos="348" pan="0" len="24"/>
          <note key="45" vol="100" pos="360" pan="0" len="12"/>
          <note key="45" vol="100" pos="372" pan="0" len="12"/>
        </pattern>
        <pattern muted="0" pos="42240" steps="16" name="Rhythm Guitar" type="1">
          <note key="50" vol="100" pos="0" pan="0" len="24"/>
          <note key="43" vol="100" pos="0" pan="0" len="24"/>
          <note key="0" vol="100" pos="0" pan="0" len="24"/>
          <note key="1" vol="100" pos="12" pan="0" len="24"/>
          <note key="43" vol="100" pos="24" pan="0" len="12"/>
          <note key="43" vol="100" pos="36" pan="0" len="12"/>
          <note key="43" vol="100" pos="48" pan="0" len="12"/>
          <note key="43" vol="100" pos="60" pan="0" len="12"/>
          <note key="50" vol="100" pos="72" pan="0" len="24"/>
          <note key="43" vol="100" pos="72" pan="0" len="24"/>
          <note key="0" vol="100" pos="72" pan="0" len="24"/>
          <note key="1" vol="100" pos="84" pan="0" len="24"/>
          <note key="43" vol="100" pos="96" pan="0" len="12"/>
          <note key="43" vol="100" pos="108" pan="0" len="12"/>
          <note key="43" vol="100" pos="120" pan="0" len="12"/>
          <note key="43" vol="100" pos="132" pan="0" len="12"/>
          <note key="50" vol="100" pos="144" pan="0" len="24"/>
          <note key="43" vol="100" pos="144" pan="0" len="24"/>
          <note key="0" vol="100" pos="144" pan="0" len="24"/>
          <note key="1" vol="100" pos="156" pan="0" len="24"/>
          <note key="43" vol="100" pos="168" pan="0" len="12"/>
          <note key="43" vol="100" pos="180" pan="0" len="12"/>
          <note key="50" vol="100" pos="192" pan="0" len="24"/>
          <note key="43" vol="100" pos="192" pan="0" len="24"/>
          <note key="0" vol="100" pos="192" pan="0" len="24"/>
          <note key="1" vol="100" pos="204" pan="0" len="24"/>
          <note key="43" vol="100" pos="216" pan="0" len="12"/>
          <note key="43" vol="100" pos="228" pan="0" len="12"/>
          <note key="43" vol="100" pos="240" pan="0" len="12"/>
          <note key="43" vol="100" pos="252" pan="0" len="12"/>
          <note key="50" vol="100" pos="264" pan="0" len="24"/>
          <note key="43" vol="100" pos="264" pan="0" len="24"/>
          <note key="0" vol="100" pos="264" pan="0" len="24"/>
          <note key="1" vol="100" pos="276" pan="0" len="24"/>
          <note key="43" vol="100" pos="288" pan="0" len="12"/>
          <note key="43" vol="100" pos="300" pan="0" len="12"/>
          <note key="43" vol="100" pos="312" pan="0" len="12"/>
          <note key="43" vol="100" pos="324" pan="0" len="12"/>
          <note key="50" vol="100" pos="336" pan="0" len="24"/>
          <note key="43" vol="100" pos="336" pan="0" len="24"/>
          <note key="0" vol="100" pos="336" pan="0" len="24"/>
          <note key="1" vol="100" pos="348" pan="0" len="24"/>
          <note key="43" vol="100" pos="360" pan="0" len="12"/>
          <note key="43" vol="100" pos="372" pan="0" len="12"/>
        </pattern>
        <pattern muted="0" pos="42624" steps="16" name="Rhythm Guitar" type="1">
          <note key="45" vol="100" pos="0" pan="0" len="24"/>
          <note key="38" vol="100" pos="0" pan="0" len="24"/>
          <note key="0" vol="100" pos="0" pan="0" len="24"/>
          <note key="1" vol="100" pos="12" pan="0" len="24"/>
          <note key="38" vol="100" pos="24" pan="0" len="12"/>
          <note key="38" vol="100" pos="36" pan="0" len="12"/>
          <note key="38" vol="100" pos="48" pan="0" len="12"/>
          <note key="38" vol="100" pos="60" pan="0" len="12"/>
          <note key="45" vol="100" pos="72" pan="0" len="24"/>
          <note key="38" vol="100" pos="72" pan="0" len="24"/>
          <note key="0" vol="100" pos="72" pan="0" len="24"/>
          <note key="1" vol="100" pos="84" pan="0" len="24"/>
          <note key="38" vol="100" pos="96" pan="0" len="12"/>
          <note key="38" vol="100" pos="108" pan="0" len="12"/>
          <note key="38" vol="100" pos="120" pan="0" len="12"/>
          <note key="38" vol="100" pos="132" pan="0" len="12"/>
          <note key="45" vol="100" pos="144" pan="0" len="24"/>
          <note key="38" vol="100" pos="144" pan="0" len="24"/>
          <note key="0" vol="100" pos="144" pan="0" len="24"/>
          <note key="1" vol="100" pos="156" pan="0" len="24"/>
          <note key="38" vol="100" pos="168" pan="0" len="12"/>
          <note key="38" vol="100" pos="180" pan="0" len="12"/>
          <note key="52" vol="100" pos="192" pan="0" len="24"/>
          <note key="45" vol="100" pos="192" pan="0" len="24"/>
          <note key="0" vol="100" pos="192" pan="0" len="24"/>
          <note key="1" vol="100" pos="204" pan="0" len="24"/>
          <note key="45" vol="100" pos="216" pan="0" len="12"/>
          <note key="45" vol="100" pos="228" pan="0" len="12"/>
          <note key="45" vol="100" pos="240" pan="0" len="12"/>
          <note key="45" vol="100" pos="252" pan="0" len="12"/>
          <note key="52" vol="100" pos="264" pan="0" len="24"/>
          <note key="45" vol="100" pos="264" pan="0" len="24"/>
          <note key="0" vol="100" pos="264" pan="0" len="24"/>
          <note key="1" vol="100" pos="276" pan="0" len="24"/>
          <note key="45" vol="100" pos="288" pan="0" len="12"/>
          <note key="45" vol="100" pos="300" pan="0" len="12"/>
          <note key="45" vol="100" pos="312" pan="0" len="12"/>
          <note key="45" vol="100" pos="324" pan="0" len="12"/>
          <note key="52" vol="100" pos="336" pan="0" len="24"/>
          <note key="45" vol="100" pos="336" pan="0" len="24"/>
          <note key="0" vol="100" pos="336" pan="0" len="24"/>
          <note key="1" vol="100" pos="348" pan="0" len="24"/>
          <note key="45" vol="100" pos="360" pan="0" len="12"/>
          <note key="45" vol="100" pos="372" pan="0" len="12"/>
        </pattern>
        <pattern muted="0" pos="43008" steps="16" name="Rhythm Guitar" type="1">
          <note key="42" vol="100" pos="0" pan="0" len="384"/>
          <note key="35" vol="100" pos="0" pan="0" len="384"/>
          <note key="0" vol="100" pos="0" pan="0" len="24"/>
          <note key="42" vol="100" pos="384" pan="0" len="384"/>
          <note key="35" vol="100" pos="384" pan="0" len="384"/>
        </pattern>
        <pattern muted="0" pos="43776" steps="16" name="Rhythm Guitar" type="1">
          <note key="50" vol="100" pos="0" pan="0" len="384"/>
          <note key="43" vol="100" pos="0" pan="0" len="384"/>
          <note key="0" vol="100" pos="0" pan="0" len="24"/>
          <note key="50" vol="100" pos="384" pan="0" len="384"/>
          <note key="43" vol="100" pos="384" pan="0" len="384"/>
        </pattern>
        <pattern muted="0" pos="44544" steps="16" name="Rhythm Guitar" type="1">
          <note key="42" vol="100" pos="0" pan="0" len="384"/>
          <note key="35" vol="100" pos="0" pan="0" len="384"/>
          <note key="0" vol="100" pos="0" pan="0" len="24"/>
          <note key="42" vol="100" pos="384" pan="0" len="384"/>
          <note key="35" vol="100" pos="384" pan="0" len="384"/>
        </pattern>
        <pattern muted="0" pos="45312" steps="16" name="Rhythm Guitar" type="1">
          <note key="50" vol="100" pos="0" pan="0" len="384"/>
          <note key="43" vol="100" pos="0" pan="0" len="384"/>
          <note key="0" vol="100" pos="0" pan="0" len="24"/>
          <note key="52" vol="100" pos="384" pan="0" len="384"/>
          <note key="45" vol="100" pos="384" pan="0" len="384"/>
        </pattern>
        <pattern muted="0" pos="46080" steps="16" name="Rhythm Guitar" type="1">
          <note key="42" vol="195" pos="0" pan="0" len="384"/>
          <note key="35" vol="195" pos="0" pan="0" len="384"/>
          <note key="0" vol="195" pos="0" pan="0" len="48"/>
        </pattern>
        <pattern muted="0" pos="31872" steps="16" name="" type="1">
          <note key="57" vol="100" pos="0" pan="0" len="24"/>
          <note key="50" vol="100" pos="0" pan="0" len="24"/>
          <note key="0" vol="100" pos="0" pan="0" len="12"/>
          <note key="1" vol="100" pos="12" pan="0" len="12"/>
          <note key="50" vol="100" pos="24" pan="0" len="12"/>
          <note key="50" vol="100" pos="36" pan="0" len="12"/>
          <note key="50" vol="100" pos="48" pan="0" len="12"/>
          <note key="50" vol="100" pos="60" pan="0" len="12"/>
          <note key="57" vol="100" pos="72" pan="0" len="24"/>
          <note key="50" vol="100" pos="72" pan="0" len="24"/>
          <note key="0" vol="100" pos="72" pan="0" len="12"/>
          <note key="1" vol="100" pos="84" pan="0" len="12"/>
          <note key="50" vol="100" pos="96" pan="0" len="12"/>
          <note key="50" vol="100" pos="108" pan="0" len="12"/>
          <note key="50" vol="100" pos="120" pan="0" len="12"/>
          <note key="50" vol="100" pos="132" pan="0" len="12"/>
          <note key="57" vol="100" pos="144" pan="0" len="24"/>
          <note key="50" vol="100" pos="144" pan="0" len="24"/>
          <note key="0" vol="100" pos="144" pan="0" len="12"/>
          <note key="1" vol="100" pos="156" pan="0" len="12"/>
          <note key="50" vol="100" pos="168" pan="0" len="12"/>
          <note key="50" vol="100" pos="180" pan="0" len="12"/>
          <note key="52" vol="100" pos="192" pan="0" len="30"/>
          <note key="45" vol="100" pos="192" pan="0" len="30"/>
          <note key="0" vol="100" pos="192" pan="0" len="12"/>
          <note key="52" vol="100" pos="240" pan="0" len="30"/>
          <note key="45" vol="100" pos="240" pan="0" len="30"/>
          <note key="52" vol="100" pos="288" pan="0" len="30"/>
          <note key="45" vol="100" pos="288" pan="0" len="30"/>
          <note key="50" vol="100" pos="336" pan="0" len="30"/>
          <note key="43" vol="100" pos="336" pan="0" len="30"/>
        </pattern>
      </track>
      <track muted="1" solo="0" name="Lead Guitar S" type="0">
        <instrumenttrack fxch="12" usemasterpitch="1" vol="200" pitch="0" pitchrange="1" pan="0" basenote="57">
          <instrument name="carlapatchbay">
            <carlapatchbay>
              <CARLA-PROJECT VERSION="2.2">
                <EngineSettings>
                  <ForceStereo>false</ForceStereo>
                  <PreferPluginBridges>false</PreferPluginBridges>
                  <PreferUiBridges>true</PreferUiBridges>
                  <UIsAlwaysOnTop>false</UIsAlwaysOnTop>
                  <MaxParameters>200</MaxParameters>
                  <UIBridgesTimeout>4000</UIBridgesTimeout>
                  <LADSPA_PATH>/home/pass/.ladspa:/usr/lib/ladspa:/usr/local/lib/ladspa</LADSPA_PATH>
                  <DSSI_PATH>/home/pass/.dssi:/usr/lib/dssi:/usr/local/lib/dssi</DSSI_PATH>
                  <LV2_PATH>/home/pass/.lv2:/usr/lib/lv2:/usr/local/lib/lv2</LV2_PATH>
                  <VST2_PATH>/home/pass/.vst:/home/pass/.wine/drive_c/Program Files (x86)/VstPlugins:/home/pass/.wine/drive_c/Program Files/VstPlugins:/usr/lib/lxvst:/usr/lib/vst:/usr/local/lib/lxvst:/usr/local/lib/vst/home/pass/.lxvst:/home/pass/vst</VST2_PATH>
                  <VST3_PATH>/home/pass/.vst3:/home/pass/.wine/drive_c/Program Files (x86)/Common Files/VST3:/home/pass/.wine/drive_c/Program Files/Common Files/VST3:/usr/lib/vst3:/usr/local/lib/vst3</VST3_PATH>
                  <SF2_PATH>/home/pass/.sounds/sf2/home/pass/.sounds/sf3:/usr/share/soundfonts:/usr/share/sounds/sf2:/usr/share/sounds/sf3</SF2_PATH>
                  <SFZ_PATH>/home/pass/.sounds/sfz:/home/pass/samples:/usr/share/sounds/sfz</SFZ_PATH>
                </EngineSettings>
                <!-- sfizz -->
                <Plugin>
                  <Info>
                    <Type>LV2</Type>
                    <Name>sfizz</Name>
                    <URI>http://sfztools.github.io/sfizz</URI>
                  </Info>
                  <Data>
                    <Active>Yes</Active>
                    <ControlChannel>1</ControlChannel>
                    <Options>0x3f0</Options>
                    <Parameter>
                      <Index>0</Index>
                      <Name>Volume</Name>
                      <Symbol>volume</Symbol>
                      <Value>0</Value>
                    </Parameter>
                    <Parameter>
                      <Index>1</Index>
                      <Name>Polyphony</Name>
                      <Symbol>num_voices</Symbol>
                      <Value>64</Value>
                    </Parameter>
                    <Parameter>
                      <Index>2</Index>
                      <Name>Internal oversampling factor</Name>
                      <Symbol>oversampling</Symbol>
                      <Value>1</Value>
                    </Parameter>
                    <Parameter>
                      <Index>3</Index>
                      <Name>Preload size</Name>
                      <Symbol>preload_size</Symbol>
                      <Value>8192</Value>
                    </Parameter>
                    <Parameter>
                      <Index>5</Index>
                      <Name>Scala root key</Name>
                      <Symbol>scala_root_key</Symbol>
                      <Value>60</Value>
                    </Parameter>
                    <Parameter>
                      <Index>6</Index>
                      <Name>Tuning frequency</Name>
                      <Symbol>tuning_frequency</Symbol>
                      <Value>440</Value>
                    </Parameter>
                    <Parameter>
                      <Index>7</Index>
                      <Name>Stretched tuning</Name>
                      <Symbol>stretched_tuning</Symbol>
                      <Value>0</Value>
                    </Parameter>
                    <CustomData>
                      <Type>http://lv2plug.in/ns/ext/atom#Path</Type>
                      <Key>http://sfztools.github.io/sfizz:sfzfile</Key>
                      <Value>_fakeguitar1_integrated.sfz</Value>
                    </CustomData>
                    <CustomData>
                      <Type>http://lv2plug.in/ns/ext/atom#Int</Type>
                      <Key>http://sfztools.github.io/sfizz:numvoices</Key>
                      <Value>QAAAAA==</Value>
                    </CustomData>
                    <CustomData>
                      <Type>http://lv2plug.in/ns/ext/atom#Int</Type>
                      <Key>http://sfztools.github.io/sfizz:preload_size</Key>
                      <Value>ACAAAA==</Value>
                    </CustomData>
                    <CustomData>
                      <Type>http://lv2plug.in/ns/ext/atom#Int</Type>
                      <Key>http://sfztools.github.io/sfizz:oversampling</Key>
                      <Value>AQAAAA==</Value>
                    </CustomData>
                    <CustomData>
                      <Type>http://lv2plug.in/ns/ext/atom#Path</Type>
                      <Key>http://sfztools.github.io/sfizz:tuningfile</Key>
                      <Value>DefaultScale.scl</Value>
                    </CustomData>
                  </Data>
                </Plugin>
                <Patchbay>
                  <Connection>
                    <Source>Midi Input:Capture 1</Source>
                    <Target>sfizz:events-in</Target>
                  </Connection>
                  <Connection>
                    <Source>sfizz:Left Output</Source>
                    <Target>Audio Output:Left</Target>
                  </Connection>
                  <Connection>
                    <Source>sfizz:Right Output</Source>
                    <Target>Audio Output:Right</Target>
                  </Connection>
                  <Positions>
                    <Position y1="1353" pluginId="0" x1="1693">
                      <Name>sfizz</Name>
                    </Position>
                  </Positions>
                </Patchbay>
              </CARLA-PROJECT>
            </carlapatchbay>
          </instrument>
          <eldata fres="0.5" fwet="0" fcut="14000" ftype="0">
            <elvol pdel="0" latt="0" lshp="0" lspd_denominator="4" lamt="0" amt="0" sustain="0.5" lspd_syncmode="0" att="0" x100="0" lspd_numerator="4" lspd="0.1" ctlenvamt="0" dec="0.5" lpdel="0" hold="0.5" userwavefile="" rel="0.1"/>
            <elcut pdel="0" latt="0" lshp="0" lspd_denominator="4" lamt="0" amt="0" sustain="0.5" lspd_syncmode="0" att="0" x100="0" lspd_numerator="4" lspd="0.1" ctlenvamt="0" dec="0.5" lpdel="0" hold="0.5" userwavefile="" rel="0.1"/>
            <elres pdel="0" latt="0" lshp="0" lspd_denominator="4" lamt="0" amt="0" sustain="0.5" lspd_syncmode="0" att="0" x100="0" lspd_numerator="4" lspd="0.1" ctlenvamt="0" dec="0.5" lpdel="0" hold="0.5" userwavefile="" rel="0.1"/>
          </eldata>
          <chordcreator chordrange="1" chord="0" chord-enabled="0"/>
          <arpeggiator arptime="200" arpskip="0" arpgate="100" arptime_syncmode="0" arpmode="0" arprange="1" arp="0" arpcycle="0" arptime_denominator="4" arptime_numerator="4" arpdir="0" arp-enabled="0" arpmiss="0"/>
          <midiport outputchannel="1" inputcontroller="0" inputchannel="0" basevelocity="63" outputprogram="1" readable="0" outputcontroller="0" fixedinputvelocity="-1" fixedoutputnote="-1" writable="0" fixedoutputvelocity="-1"/>
          <fxchain numofeffects="0" enabled="0"/>
        </instrumenttrack>
        <pattern muted="0" pos="5760" steps="16" name="Lead Guitar S" type="1">
          <note key="62" vol="200" pos="0" pan="0" len="48"/>
          <note key="0" vol="100" pos="0" pan="0" len="24"/>
          <note key="61" vol="200" pos="48" pan="0" len="48"/>
          <note key="62" vol="200" pos="96" pan="0" len="48"/>
          <note key="64" vol="200" pos="144" pan="0" len="48"/>
          <note key="66" vol="200" pos="192" pan="0" len="48"/>
          <note key="64" vol="200" pos="240" pan="0" len="48"/>
          <note key="66" vol="200" pos="288" pan="0" len="48"/>
          <note key="69" vol="200" pos="336" pan="0" len="48"/>
        </pattern>
        <pattern muted="0" pos="9216" steps="16" name="Lead Guitar S" type="0"/>
        <pattern muted="0" pos="12288" steps="16" name="Lead Guitar S" type="1">
          <note key="66" vol="100" pos="0" pan="0" len="48"/>
          <note key="0" vol="100" pos="0" pan="0" len="48"/>
          <note key="66" vol="100" pos="48" pan="0" len="24"/>
          <note key="66" vol="100" pos="72" pan="0" len="48"/>
          <note key="66" vol="100" pos="120" pan="0" len="24"/>
          <note key="66" vol="100" pos="144" pan="0" len="24"/>
          <note key="66" vol="100" pos="168" pan="0" len="24"/>
          <note key="67" vol="100" pos="192" pan="0" len="72"/>
          <note key="66" vol="100" pos="264" pan="0" len="72"/>
          <note key="64" vol="100" pos="336" pan="0" len="48"/>
          <note key="62" vol="100" pos="384" pan="0" len="48"/>
          <note key="62" vol="100" pos="432" pan="0" len="24"/>
          <note key="62" vol="100" pos="456" pan="0" len="48"/>
          <note key="62" vol="100" pos="504" pan="0" len="24"/>
          <note key="62" vol="100" pos="528" pan="0" len="24"/>
          <note key="62" vol="100" pos="552" pan="0" len="24"/>
          <note key="64" vol="100" pos="576" pan="0" len="72"/>
          <note key="66" vol="100" pos="648" pan="0" len="72"/>
          <note key="64" vol="100" pos="720" pan="0" len="48"/>
        </pattern>
        <pattern muted="0" pos="13056" steps="16" name="Lead Guitar S" type="1">
          <note key="66" vol="100" pos="0" pan="0" len="48"/>
          <note key="0" vol="100" pos="0" pan="0" len="48"/>
          <note key="66" vol="100" pos="48" pan="0" len="24"/>
          <note key="66" vol="100" pos="72" pan="0" len="48"/>
          <note key="66" vol="100" pos="120" pan="0" len="24"/>
          <note key="66" vol="100" pos="144" pan="0" len="24"/>
          <note key="66" vol="100" pos="168" pan="0" len="24"/>
          <note key="67" vol="100" pos="192" pan="0" len="72"/>
          <note key="66" vol="100" pos="264" pan="0" len="72"/>
          <note key="64" vol="100" pos="336" pan="0" len="48"/>
          <note key="62" vol="100" pos="384" pan="0" len="72"/>
          <note key="64" vol="100" pos="456" pan="0" len="72"/>
          <note key="66" vol="100" pos="528" pan="0" len="48"/>
          <note key="64" vol="100" pos="576" pan="0" len="72"/>
          <note key="62" vol="100" pos="648" pan="0" len="72"/>
          <note key="61" vol="100" pos="720" pan="0" len="48"/>
        </pattern>
        <pattern muted="0" pos="18240" steps="16" name="Lead Guitar S" type="1">
          <note key="69" vol="100" pos="48" pan="0" len="48"/>
          <note key="67" vol="100" pos="96" pan="0" len="48"/>
          <note key="66" vol="100" pos="144" pan="0" len="48"/>
        </pattern>
        <pattern muted="0" pos="18432" steps="16" name="Lead Guitar S" type="1">
          <note key="62" vol="100" pos="0" pan="0" len="72"/>
          <note key="0" vol="100" pos="0" pan="0" len="48"/>
          <note key="64" vol="100" pos="72" pan="0" len="72"/>
          <note key="66" vol="100" pos="144" pan="0" len="48"/>
          <note key="69" vol="100" pos="192" pan="0" len="96"/>
          <note key="66" vol="100" pos="288" pan="0" len="48"/>
          <note key="69" vol="100" pos="336" pan="0" len="48"/>
          <note key="71" vol="100" pos="384" pan="0" len="72"/>
          <note key="69" vol="100" pos="456" pan="0" len="72"/>
          <note key="66" vol="100" pos="528" pan="0" len="48"/>
          <note key="69" vol="100" pos="576" pan="0" len="96"/>
          <note key="66" vol="100" pos="672" pan="0" len="48"/>
          <note key="69" vol="100" pos="720" pan="0" len="48"/>
          <note key="71" vol="100" pos="768" pan="0" len="72"/>
          <note key="69" vol="100" pos="840" pan="0" len="72"/>
          <note key="67" vol="100" pos="912" pan="0" len="48"/>
          <note key="71" vol="100" pos="960" pan="0" len="72"/>
          <note key="69" vol="100" pos="1032" pan="0" len="72"/>
          <note key="67" vol="100" pos="1104" pan="0" len="48"/>
          <note key="66" vol="100" pos="1152" pan="0" len="72"/>
          <note key="67" vol="100" pos="1224" pan="0" len="72"/>
          <note key="66" vol="100" pos="1296" pan="0" len="48"/>
          <note key="64" vol="100" pos="1344" pan="0" len="96"/>
          <note key="66" vol="100" pos="1440" pan="0" len="48"/>
          <note key="64" vol="100" pos="1488" pan="0" len="48"/>
        </pattern>
        <pattern muted="0" pos="19968" steps="16" name="Lead Guitar S" type="1">
          <note key="62" vol="100" pos="0" pan="0" len="72"/>
          <note key="64" vol="100" pos="72" pan="0" len="72"/>
          <note key="66" vol="100" pos="144" pan="0" len="48"/>
          <note key="69" vol="100" pos="192" pan="0" len="96"/>
          <note key="66" vol="100" pos="288" pan="0" len="48"/>
          <note key="69" vol="100" pos="336" pan="0" len="48"/>
          <note key="71" vol="100" pos="384" pan="0" len="72"/>
          <note key="69" vol="100" pos="456" pan="0" len="72"/>
          <note key="66" vol="100" pos="528" pan="0" len="48"/>
          <note key="69" vol="100" pos="576" pan="0" len="96"/>
          <note key="66" vol="100" pos="672" pan="0" len="48"/>
          <note key="69" vol="100" pos="720" pan="0" len="48"/>
          <note key="71" vol="100" pos="768" pan="0" len="72"/>
          <note key="69" vol="100" pos="840" pan="0" len="72"/>
          <note key="67" vol="100" pos="912" pan="0" len="48"/>
          <note key="71" vol="100" pos="960" pan="0" len="72"/>
          <note key="69" vol="100" pos="1032" pan="0" len="72"/>
          <note key="67" vol="100" pos="1104" pan="0" len="48"/>
          <note key="66" vol="100" pos="1152" pan="0" len="72"/>
          <note key="67" vol="100" pos="1224" pan="0" len="72"/>
          <note key="66" vol="100" pos="1296" pan="0" len="48"/>
          <note key="64" vol="100" pos="1344" pan="0" len="96"/>
          <note key="66" vol="100" pos="1440" pan="0" len="48"/>
          <note key="64" vol="100" pos="1488" pan="0" len="48"/>
          <note key="62" vol="100" pos="1536" pan="0" len="384"/>
        </pattern>
        <pattern muted="0" pos="22272" steps="16" name="Lead Guitar S" type="1">
          <note key="66" vol="100" pos="0" pan="0" len="48"/>
          <note key="0" vol="100" pos="0" pan="0" len="48"/>
          <note key="66" vol="100" pos="48" pan="0" len="24"/>
          <note key="66" vol="100" pos="72" pan="0" len="48"/>
          <note key="66" vol="100" pos="120" pan="0" len="24"/>
          <note key="66" vol="100" pos="144" pan="0" len="24"/>
          <note key="66" vol="100" pos="168" pan="0" len="24"/>
          <note key="67" vol="100" pos="192" pan="0" len="72"/>
          <note key="66" vol="100" pos="264" pan="0" len="72"/>
          <note key="64" vol="100" pos="336" pan="0" len="48"/>
          <note key="62" vol="100" pos="384" pan="0" len="48"/>
          <note key="62" vol="100" pos="432" pan="0" len="24"/>
          <note key="62" vol="100" pos="456" pan="0" len="48"/>
          <note key="62" vol="100" pos="504" pan="0" len="24"/>
          <note key="62" vol="100" pos="528" pan="0" len="24"/>
          <note key="62" vol="100" pos="552" pan="0" len="24"/>
          <note key="64" vol="100" pos="576" pan="0" len="72"/>
          <note key="66" vol="100" pos="648" pan="0" len="72"/>
          <note key="64" vol="100" pos="720" pan="0" len="48"/>
        </pattern>
        <pattern muted="0" pos="23040" steps="16" name="Lead Guitar S" type="1">
          <note key="66" vol="100" pos="0" pan="0" len="48"/>
          <note key="0" vol="100" pos="0" pan="0" len="48"/>
          <note key="66" vol="100" pos="48" pan="0" len="24"/>
          <note key="66" vol="100" pos="72" pan="0" len="48"/>
          <note key="66" vol="100" pos="120" pan="0" len="24"/>
          <note key="66" vol="100" pos="144" pan="0" len="24"/>
          <note key="66" vol="100" pos="168" pan="0" len="24"/>
          <note key="67" vol="100" pos="192" pan="0" len="72"/>
          <note key="66" vol="100" pos="264" pan="0" len="72"/>
          <note key="64" vol="100" pos="336" pan="0" len="48"/>
          <note key="62" vol="100" pos="384" pan="0" len="72"/>
          <note key="64" vol="100" pos="456" pan="0" len="72"/>
          <note key="66" vol="100" pos="528" pan="0" len="48"/>
          <note key="64" vol="100" pos="576" pan="0" len="72"/>
          <note key="62" vol="100" pos="648" pan="0" len="72"/>
          <note key="61" vol="100" pos="720" pan="0" len="48"/>
        </pattern>
        <pattern muted="0" pos="28224" steps="16" name="Lead Guitar S" type="1">
          <note key="69" vol="100" pos="48" pan="0" len="48"/>
          <note key="67" vol="100" pos="96" pan="0" len="48"/>
          <note key="66" vol="100" pos="144" pan="0" len="48"/>
        </pattern>
        <pattern muted="0" pos="28416" steps="16" name="Lead Guitar S" type="1">
          <note key="62" vol="100" pos="0" pan="0" len="72"/>
          <note key="64" vol="100" pos="72" pan="0" len="72"/>
          <note key="66" vol="100" pos="144" pan="0" len="48"/>
          <note key="69" vol="100" pos="192" pan="0" len="96"/>
          <note key="66" vol="100" pos="288" pan="0" len="48"/>
          <note key="69" vol="100" pos="336" pan="0" len="48"/>
          <note key="71" vol="100" pos="384" pan="0" len="72"/>
          <note key="69" vol="100" pos="456" pan="0" len="72"/>
          <note key="66" vol="100" pos="528" pan="0" len="48"/>
          <note key="69" vol="100" pos="576" pan="0" len="96"/>
          <note key="66" vol="100" pos="672" pan="0" len="48"/>
          <note key="69" vol="100" pos="720" pan="0" len="48"/>
          <note key="71" vol="100" pos="768" pan="0" len="72"/>
          <note key="69" vol="100" pos="840" pan="0" len="72"/>
          <note key="67" vol="100" pos="912" pan="0" len="48"/>
          <note key="71" vol="100" pos="960" pan="0" len="72"/>
          <note key="69" vol="100" pos="1032" pan="0" len="72"/>
          <note key="67" vol="100" pos="1104" pan="0" len="48"/>
          <note key="66" vol="100" pos="1152" pan="0" len="72"/>
          <note key="67" vol="100" pos="1224" pan="0" len="72"/>
          <note key="66" vol="100" pos="1296" pan="0" len="48"/>
          <note key="64" vol="100" pos="1344" pan="0" len="96"/>
          <note key="66" vol="100" pos="1440" pan="0" len="48"/>
          <note key="64" vol="100" pos="1488" pan="0" len="48"/>
        </pattern>
        <pattern muted="0" pos="29952" steps="16" name="Lead Guitar S" type="1">
          <note key="62" vol="100" pos="0" pan="0" len="72"/>
          <note key="64" vol="100" pos="72" pan="0" len="72"/>
          <note key="66" vol="100" pos="144" pan="0" len="48"/>
          <note key="69" vol="100" pos="192" pan="0" len="96"/>
          <note key="66" vol="100" pos="288" pan="0" len="48"/>
          <note key="69" vol="100" pos="336" pan="0" len="48"/>
          <note key="71" vol="100" pos="384" pan="0" len="72"/>
          <note key="69" vol="100" pos="456" pan="0" len="72"/>
          <note key="66" vol="100" pos="528" pan="0" len="48"/>
          <note key="69" vol="100" pos="576" pan="0" len="96"/>
          <note key="66" vol="100" pos="672" pan="0" len="48"/>
          <note key="69" vol="100" pos="720" pan="0" len="48"/>
          <note key="71" vol="100" pos="768" pan="0" len="72"/>
          <note key="69" vol="100" pos="840" pan="0" len="72"/>
          <note key="67" vol="100" pos="912" pan="0" len="48"/>
          <note key="71" vol="100" pos="960" pan="0" len="72"/>
          <note key="69" vol="100" pos="1032" pan="0" len="72"/>
          <note key="67" vol="100" pos="1104" pan="0" len="48"/>
          <note key="66" vol="100" pos="1152" pan="0" len="72"/>
          <note key="67" vol="100" pos="1224" pan="0" len="72"/>
          <note key="66" vol="100" pos="1296" pan="0" len="48"/>
          <note key="64" vol="100" pos="1344" pan="0" len="96"/>
          <note key="66" vol="100" pos="1440" pan="0" len="48"/>
          <note key="64" vol="100" pos="1488" pan="0" len="48"/>
          <note key="62" vol="100" pos="1536" pan="0" len="384"/>
        </pattern>
        <pattern muted="0" pos="32256" steps="16" name="Lead Guitar S" type="1">
          <note key="62" vol="100" pos="0" pan="0" len="24"/>
          <note key="1" vol="100" pos="0" pan="0" len="24"/>
          <note key="66" vol="100" pos="24" pan="0" len="24"/>
          <note key="0" vol="100" pos="24" pan="0" len="24"/>
          <note key="1" vol="100" pos="36" pan="0" len="24"/>
          <note key="62" vol="100" pos="48" pan="0" len="24"/>
          <note key="62" vol="100" pos="72" pan="0" len="24"/>
          <note key="0" vol="100" pos="84" pan="0" len="24"/>
          <note key="66" vol="100" pos="96" pan="0" len="24"/>
          <note key="1" vol="100" pos="108" pan="0" len="24"/>
          <note key="62" vol="100" pos="120" pan="0" len="24"/>
          <note key="62" vol="100" pos="144" pan="0" len="24"/>
          <note key="0" vol="100" pos="156" pan="0" len="24"/>
          <note key="66" vol="100" pos="168" pan="0" len="24"/>
          <note key="1" vol="100" pos="180" pan="0" len="24"/>
          <note key="62" vol="100" pos="192" pan="0" len="24"/>
          <note key="62" vol="100" pos="216" pan="0" len="24"/>
          <note key="0" vol="100" pos="228" pan="0" len="24"/>
          <note key="66" vol="100" pos="240" pan="0" len="24"/>
          <note key="1" vol="100" pos="252" pan="0" len="24"/>
          <note key="62" vol="100" pos="264" pan="0" len="24"/>
          <note key="62" vol="100" pos="288" pan="0" len="24"/>
          <note key="0" vol="100" pos="300" pan="0" len="24"/>
          <note key="66" vol="100" pos="312" pan="0" len="24"/>
          <note key="1" vol="100" pos="324" pan="0" len="24"/>
          <note key="62" vol="100" pos="336" pan="0" len="24"/>
          <note key="62" vol="100" pos="360" pan="0" len="24"/>
        </pattern>
        <pattern muted="0" pos="32640" steps="16" name="Lead Guitar S" type="1">
          <note key="62" vol="100" pos="0" pan="0" len="24"/>
          <note key="1" vol="100" pos="0" pan="0" len="24"/>
          <note key="67" vol="100" pos="24" pan="0" len="24"/>
          <note key="0" vol="100" pos="24" pan="0" len="24"/>
          <note key="1" vol="100" pos="36" pan="0" len="24"/>
          <note key="62" vol="100" pos="48" pan="0" len="24"/>
          <note key="62" vol="100" pos="72" pan="0" len="24"/>
          <note key="0" vol="100" pos="84" pan="0" len="24"/>
          <note key="67" vol="100" pos="96" pan="0" len="24"/>
          <note key="1" vol="100" pos="108" pan="0" len="24"/>
          <note key="62" vol="100" pos="120" pan="0" len="24"/>
          <note key="62" vol="100" pos="144" pan="0" len="24"/>
          <note key="0" vol="100" pos="156" pan="0" len="24"/>
          <note key="69" vol="100" pos="168" pan="0" len="24"/>
          <note key="1" vol="100" pos="180" pan="0" len="24"/>
          <note key="62" vol="100" pos="192" pan="0" len="24"/>
          <note key="62" vol="100" pos="216" pan="0" len="24"/>
          <note key="0" vol="100" pos="228" pan="0" len="24"/>
          <note key="69" vol="100" pos="240" pan="0" len="24"/>
          <note key="1" vol="100" pos="252" pan="0" len="24"/>
          <note key="62" vol="100" pos="264" pan="0" len="24"/>
          <note key="62" vol="100" pos="288" pan="0" len="24"/>
          <note key="0" vol="100" pos="300" pan="0" len="24"/>
          <note key="69" vol="100" pos="312" pan="0" len="24"/>
          <note key="1" vol="100" pos="324" pan="0" len="24"/>
          <note key="62" vol="100" pos="336" pan="0" len="24"/>
          <note key="62" vol="100" pos="360" pan="0" len="24"/>
        </pattern>
        <pattern muted="0" pos="33024" steps="16" name="Lead Guitar S" type="1">
          <note key="62" vol="100" pos="0" pan="0" len="24"/>
          <note key="1" vol="100" pos="0" pan="0" len="24"/>
          <note key="66" vol="100" pos="24" pan="0" len="24"/>
          <note key="0" vol="100" pos="24" pan="0" len="24"/>
          <note key="1" vol="100" pos="36" pan="0" len="24"/>
          <note key="62" vol="100" pos="48" pan="0" len="24"/>
          <note key="62" vol="100" pos="72" pan="0" len="24"/>
          <note key="0" vol="100" pos="84" pan="0" len="24"/>
          <note key="66" vol="100" pos="96" pan="0" len="24"/>
          <note key="1" vol="100" pos="108" pan="0" len="24"/>
          <note key="62" vol="100" pos="120" pan="0" len="24"/>
          <note key="62" vol="100" pos="144" pan="0" len="24"/>
          <note key="0" vol="100" pos="156" pan="0" len="24"/>
          <note key="66" vol="100" pos="168" pan="0" len="24"/>
          <note key="1" vol="100" pos="180" pan="0" len="24"/>
          <note key="62" vol="100" pos="192" pan="0" len="24"/>
          <note key="62" vol="100" pos="216" pan="0" len="24"/>
          <note key="0" vol="100" pos="228" pan="0" len="24"/>
          <note key="66" vol="100" pos="240" pan="0" len="24"/>
          <note key="1" vol="100" pos="252" pan="0" len="24"/>
          <note key="62" vol="100" pos="264" pan="0" len="24"/>
          <note key="62" vol="100" pos="288" pan="0" len="24"/>
          <note key="0" vol="100" pos="300" pan="0" len="24"/>
          <note key="66" vol="100" pos="312" pan="0" len="24"/>
          <note key="1" vol="100" pos="324" pan="0" len="24"/>
          <note key="62" vol="100" pos="336" pan="0" len="24"/>
          <note key="62" vol="100" pos="360" pan="0" len="24"/>
        </pattern>
        <pattern muted="0" pos="33408" steps="16" name="Lead Guitar S" type="1">
          <note key="62" vol="100" pos="0" pan="0" len="24"/>
          <note key="1" vol="100" pos="0" pan="0" len="24"/>
          <note key="67" vol="100" pos="24" pan="0" len="24"/>
          <note key="0" vol="100" pos="24" pan="0" len="24"/>
          <note key="1" vol="100" pos="36" pan="0" len="24"/>
          <note key="62" vol="100" pos="48" pan="0" len="24"/>
          <note key="62" vol="100" pos="72" pan="0" len="24"/>
          <note key="0" vol="100" pos="84" pan="0" len="24"/>
          <note key="67" vol="100" pos="96" pan="0" len="24"/>
          <note key="1" vol="100" pos="108" pan="0" len="24"/>
          <note key="62" vol="100" pos="120" pan="0" len="24"/>
          <note key="62" vol="100" pos="144" pan="0" len="24"/>
          <note key="0" vol="100" pos="156" pan="0" len="24"/>
          <note key="69" vol="100" pos="168" pan="0" len="24"/>
          <note key="1" vol="100" pos="180" pan="0" len="24"/>
          <note key="62" vol="100" pos="192" pan="0" len="24"/>
          <note key="62" vol="100" pos="216" pan="0" len="24"/>
          <note key="0" vol="100" pos="228" pan="0" len="24"/>
          <note key="69" vol="100" pos="240" pan="0" len="24"/>
          <note key="1" vol="100" pos="252" pan="0" len="24"/>
          <note key="62" vol="100" pos="264" pan="0" len="24"/>
          <note key="62" vol="100" pos="288" pan="0" len="24"/>
          <note key="0" vol="100" pos="300" pan="0" len="24"/>
        </pattern>
        <pattern muted="0" pos="35136" steps="16" name="Lead Guitar S" type="1">
          <note key="0" vol="100" pos="0" pan="0" len="30"/>
          <note key="66" vol="100" pos="96" pan="0" len="48"/>
          <note key="69" vol="100" pos="144" pan="0" len="48"/>
        </pattern>
        <pattern muted="0" pos="38400" steps="16" name="Lead Guitar S" type="1">
          <note key="62" vol="100" pos="0" pan="0" len="72"/>
          <note key="64" vol="100" pos="72" pan="0" len="72"/>
          <note key="66" vol="100" pos="144" pan="0" len="48"/>
          <note key="69" vol="100" pos="192" pan="0" len="96"/>
          <note key="66" vol="100" pos="288" pan="0" len="48"/>
          <note key="69" vol="100" pos="336" pan="0" len="48"/>
          <note key="71" vol="100" pos="384" pan="0" len="72"/>
          <note key="69" vol="100" pos="456" pan="0" len="72"/>
          <note key="66" vol="100" pos="528" pan="0" len="48"/>
          <note key="69" vol="100" pos="576" pan="0" len="96"/>
          <note key="66" vol="100" pos="672" pan="0" len="48"/>
          <note key="69" vol="100" pos="720" pan="0" len="48"/>
          <note key="71" vol="100" pos="768" pan="0" len="72"/>
          <note key="69" vol="100" pos="840" pan="0" len="72"/>
          <note key="67" vol="100" pos="912" pan="0" len="48"/>
          <note key="71" vol="100" pos="960" pan="0" len="72"/>
          <note key="69" vol="100" pos="1032" pan="0" len="72"/>
          <note key="67" vol="100" pos="1104" pan="0" len="48"/>
          <note key="66" vol="100" pos="1152" pan="0" len="72"/>
          <note key="67" vol="100" pos="1224" pan="0" len="72"/>
          <note key="66" vol="100" pos="1296" pan="0" len="48"/>
          <note key="64" vol="100" pos="1344" pan="0" len="96"/>
          <note key="66" vol="100" pos="1440" pan="0" len="48"/>
          <note key="64" vol="100" pos="1488" pan="0" len="48"/>
        </pattern>
        <pattern muted="0" pos="39936" steps="16" name="Lead Guitar S" type="1">
          <note key="62" vol="100" pos="0" pan="0" len="72"/>
          <note key="64" vol="100" pos="72" pan="0" len="72"/>
          <note key="66" vol="100" pos="144" pan="0" len="48"/>
          <note key="69" vol="100" pos="192" pan="0" len="96"/>
          <note key="66" vol="100" pos="288" pan="0" len="48"/>
          <note key="69" vol="100" pos="336" pan="0" len="48"/>
          <note key="71" vol="100" pos="384" pan="0" len="72"/>
          <note key="69" vol="100" pos="456" pan="0" len="72"/>
          <note key="66" vol="100" pos="528" pan="0" len="48"/>
          <note key="69" vol="100" pos="576" pan="0" len="96"/>
          <note key="66" vol="100" pos="672" pan="0" len="48"/>
          <note key="69" vol="100" pos="720" pan="0" len="48"/>
          <note key="71" vol="100" pos="768" pan="0" len="72"/>
          <note key="69" vol="100" pos="840" pan="0" len="72"/>
          <note key="67" vol="100" pos="912" pan="0" len="48"/>
          <note key="71" vol="100" pos="960" pan="0" len="72"/>
          <note key="69" vol="100" pos="1032" pan="0" len="72"/>
          <note key="67" vol="100" pos="1104" pan="0" len="48"/>
          <note key="66" vol="100" pos="1152" pan="0" len="72"/>
          <note key="67" vol="100" pos="1224" pan="0" len="72"/>
          <note key="66" vol="100" pos="1296" pan="0" len="48"/>
          <note key="64" vol="100" pos="1344" pan="0" len="96"/>
          <note key="66" vol="100" pos="1440" pan="0" len="48"/>
          <note key="64" vol="100" pos="1488" pan="0" len="48"/>
        </pattern>
        <pattern muted="0" pos="41472" steps="16" name="Lead Guitar S" type="1">
          <note key="62" vol="100" pos="0" pan="0" len="72"/>
          <note key="64" vol="100" pos="72" pan="0" len="72"/>
          <note key="66" vol="100" pos="144" pan="0" len="48"/>
          <note key="69" vol="100" pos="192" pan="0" len="96"/>
          <note key="66" vol="100" pos="288" pan="0" len="48"/>
          <note key="69" vol="100" pos="336" pan="0" len="48"/>
          <note key="71" vol="100" pos="384" pan="0" len="72"/>
          <note key="69" vol="100" pos="456" pan="0" len="72"/>
          <note key="66" vol="100" pos="528" pan="0" len="48"/>
          <note key="69" vol="100" pos="576" pan="0" len="96"/>
          <note key="66" vol="100" pos="672" pan="0" len="48"/>
          <note key="69" vol="100" pos="720" pan="0" len="48"/>
          <note key="71" vol="100" pos="768" pan="0" len="72"/>
          <note key="69" vol="100" pos="840" pan="0" len="72"/>
          <note key="67" vol="100" pos="912" pan="0" len="48"/>
          <note key="71" vol="100" pos="960" pan="0" len="72"/>
          <note key="69" vol="100" pos="1032" pan="0" len="72"/>
          <note key="67" vol="100" pos="1104" pan="0" len="48"/>
          <note key="66" vol="100" pos="1152" pan="0" len="72"/>
          <note key="67" vol="100" pos="1224" pan="0" len="72"/>
          <note key="66" vol="100" pos="1296" pan="0" len="48"/>
          <note key="64" vol="100" pos="1344" pan="0" len="96"/>
          <note key="66" vol="100" pos="1440" pan="0" len="48"/>
          <note key="64" vol="100" pos="1488" pan="0" len="48"/>
          <note key="62" vol="100" pos="1536" pan="0" len="768"/>
          <note key="74" vol="100" pos="2304" pan="0" len="72"/>
          <note key="73" vol="100" pos="2376" pan="0" len="72"/>
          <note key="71" vol="100" pos="2448" pan="0" len="24"/>
          <note key="69" vol="100" pos="2472" pan="0" len="24"/>
          <note key="71" vol="100" pos="2496" pan="0" len="768"/>
        </pattern>
        <pattern muted="0" pos="35328" steps="16" name="Lead Guitar S" type="1">
          <note key="71" vol="200" pos="0" pan="0" len="48"/>
          <note key="0" vol="200" pos="0" pan="0" len="24"/>
          <note key="71" vol="200" pos="48" pan="0" len="24"/>
          <note key="71" vol="200" pos="72" pan="0" len="48"/>
          <note key="69" vol="200" pos="120" pan="0" len="48"/>
          <note key="66" vol="200" pos="168" pan="0" len="24"/>
          <note key="69" vol="200" pos="192" pan="0" len="72"/>
          <note key="71" vol="200" pos="264" pan="0" len="48"/>
          <note key="73" vol="200" pos="312" pan="0" len="24"/>
          <note key="74" vol="200" pos="336" pan="0" len="24"/>
          <note key="76" vol="200" pos="360" pan="0" len="24"/>
          <note key="78" vol="200" pos="384" pan="0" len="48"/>
          <note key="78" vol="200" pos="432" pan="0" len="24"/>
          <note key="78" vol="200" pos="456" pan="0" len="48"/>
          <note key="76" vol="200" pos="504" pan="0" len="48"/>
          <note key="74" vol="200" pos="552" pan="0" len="24"/>
          <note key="73" vol="200" pos="576" pan="0" len="72"/>
          <note key="74" vol="200" pos="648" pan="0" len="48"/>
          <note key="76" vol="200" pos="696" pan="0" len="24"/>
          <note key="78" vol="200" pos="720" pan="0" len="24"/>
          <note key="79" vol="200" pos="744" pan="0" len="24"/>
          <note key="81" vol="200" pos="768" pan="0" len="24"/>
          <note key="81" vol="200" pos="792" pan="0" len="24"/>
          <note key="81" vol="200" pos="816" pan="0" len="24"/>
          <note key="79" vol="200" pos="840" pan="0" len="24"/>
          <note key="81" vol="200" pos="864" pan="0" len="24"/>
          <note key="81" vol="200" pos="888" pan="0" len="24"/>
          <note key="81" vol="200" pos="912" pan="0" len="24"/>
          <note key="79" vol="200" pos="936" pan="0" len="24"/>
          <note key="81" vol="200" pos="960" pan="0" len="12"/>
          <note key="79" vol="200" pos="972" pan="0" len="12"/>
          <note key="78" vol="200" pos="984" pan="0" len="12"/>
          <note key="79" vol="200" pos="996" pan="0" len="12"/>
          <note key="81" vol="200" pos="1008" pan="0" len="12"/>
          <note key="79" vol="200" pos="1020" pan="0" len="12"/>
          <note key="78" vol="200" pos="1032" pan="0" len="12"/>
          <note key="79" vol="200" pos="1044" pan="0" len="12"/>
          <note key="81" vol="200" pos="1056" pan="0" len="12"/>
          <note key="79" vol="200" pos="1068" pan="0" len="12"/>
          <note key="78" vol="200" pos="1080" pan="0" len="12"/>
          <note key="76" vol="200" pos="1092" pan="0" len="12"/>
          <note key="79" vol="200" pos="1104" pan="0" len="12"/>
          <note key="78" vol="200" pos="1116" pan="0" len="12"/>
          <note key="76" vol="200" pos="1128" pan="0" len="12"/>
          <note key="78" vol="200" pos="1140" pan="0" len="12"/>
          <note key="74" vol="200" pos="1152" pan="0" len="24"/>
          <note key="1" vol="200" pos="1152" pan="0" len="24"/>
          <note key="74" vol="200" pos="1176" pan="0" len="24"/>
          <note key="0" vol="200" pos="1188" pan="0" len="24"/>
          <note key="78" vol="200" pos="1200" pan="0" len="24"/>
          <note key="1" vol="200" pos="1212" pan="0" len="24"/>
          <note key="74" vol="200" pos="1224" pan="0" len="24"/>
          <note key="0" vol="200" pos="1236" pan="0" len="24"/>
          <note key="76" vol="200" pos="1248" pan="0" len="24"/>
          <note key="78" vol="200" pos="1272" pan="0" len="24"/>
          <note key="1" vol="200" pos="1284" pan="0" len="24"/>
          <note key="74" vol="200" pos="1296" pan="0" len="24"/>
          <note key="74" vol="200" pos="1320" pan="0" len="24"/>
          <note key="0" vol="200" pos="1332" pan="0" len="24"/>
          <note key="79" vol="200" pos="1344" pan="0" len="24"/>
          <note key="1" vol="200" pos="1356" pan="0" len="24"/>
          <note key="74" vol="200" pos="1368" pan="0" len="24"/>
          <note key="74" vol="200" pos="1392" pan="0" len="24"/>
          <note key="0" vol="200" pos="1404" pan="0" len="24"/>
          <note key="78" vol="200" pos="1416" pan="0" len="24"/>
          <note key="1" vol="200" pos="1428" pan="0" len="24"/>
          <note key="74" vol="200" pos="1440" pan="0" len="24"/>
          <note key="74" vol="200" pos="1464" pan="0" len="24"/>
          <note key="0" vol="200" pos="1476" pan="0" len="24"/>
          <note key="76" vol="200" pos="1488" pan="0" len="24"/>
          <note key="78" vol="200" pos="1512" pan="0" len="24"/>
        </pattern>
        <pattern muted="0" pos="38208" steps="16" name="Lead Guitar S" type="1">
          <note key="0" vol="200" pos="0" pan="0" len="48"/>
          <note key="69" vol="200" pos="48" pan="0" len="48"/>
          <note key="67" vol="200" pos="96" pan="0" len="48"/>
          <note key="66" vol="200" pos="144" pan="0" len="48"/>
        </pattern>
        <pattern muted="0" pos="6144" steps="16" name="Lead Guitar S" type="1">
          <note key="59" vol="100" pos="0" pan="0" len="24"/>
          <note key="1" vol="100" pos="0" pan="0" len="24"/>
          <note key="59" vol="100" pos="24" pan="0" len="24"/>
          <note key="0" vol="100" pos="36" pan="0" len="24"/>
          <note key="62" vol="100" pos="48" pan="0" len="24"/>
          <note key="59" vol="100" pos="72" pan="0" len="24"/>
          <note key="1" vol="100" pos="72" pan="0" len="24"/>
          <note key="59" vol="100" pos="96" pan="0" len="24"/>
          <note key="0" vol="100" pos="108" pan="0" len="24"/>
          <note key="61" vol="100" pos="120" pan="0" len="24"/>
          <note key="1" vol="100" pos="132" pan="0" len="24"/>
          <note key="59" vol="100" pos="144" pan="0" len="24"/>
          <note key="59" vol="100" pos="168" pan="0" len="24"/>
          <note key="0" vol="100" pos="180" pan="0" len="24"/>
          <note key="64" vol="100" pos="192" pan="0" len="24"/>
          <note key="1" vol="100" pos="204" pan="0" len="24"/>
          <note key="59" vol="100" pos="216" pan="0" len="24"/>
          <note key="59" vol="100" pos="240" pan="0" len="24"/>
          <note key="0" vol="100" pos="252" pan="0" len="24"/>
          <note key="62" vol="100" pos="264" pan="0" len="24"/>
          <note key="1" vol="100" pos="276" pan="0" len="24"/>
          <note key="59" vol="100" pos="288" pan="0" len="24"/>
          <note key="59" vol="100" pos="312" pan="0" len="24"/>
          <note key="0" vol="100" pos="324" pan="0" len="24"/>
          <note key="61" vol="100" pos="336" pan="0" len="24"/>
          <note key="2" vol="100" pos="348" pan="0" len="24"/>
          <note key="62" vol="100" pos="360" pan="0" len="24"/>
        </pattern>
        <pattern muted="0" pos="6528" steps="16" name="Lead Guitar S" type="1">
          <note key="59" vol="100" pos="0" pan="0" len="24"/>
          <note key="1" vol="100" pos="0" pan="0" len="24"/>
          <note key="59" vol="100" pos="24" pan="0" len="24"/>
          <note key="0" vol="100" pos="36" pan="0" len="24"/>
          <note key="62" vol="100" pos="48" pan="0" len="24"/>
          <note key="59" vol="100" pos="72" pan="0" len="24"/>
          <note key="1" vol="100" pos="72" pan="0" len="24"/>
          <note key="59" vol="100" pos="96" pan="0" len="24"/>
          <note key="0" vol="100" pos="108" pan="0" len="24"/>
          <note key="61" vol="100" pos="120" pan="0" len="24"/>
          <note key="1" vol="100" pos="132" pan="0" len="24"/>
          <note key="59" vol="100" pos="144" pan="0" len="24"/>
          <note key="59" vol="100" pos="168" pan="0" len="24"/>
          <note key="0" vol="100" pos="180" pan="0" len="24"/>
          <note key="64" vol="100" pos="192" pan="0" len="24"/>
          <note key="1" vol="100" pos="204" pan="0" len="24"/>
          <note key="59" vol="100" pos="216" pan="0" len="24"/>
          <note key="59" vol="100" pos="240" pan="0" len="24"/>
          <note key="0" vol="100" pos="252" pan="0" len="24"/>
          <note key="62" vol="100" pos="264" pan="0" len="24"/>
          <note key="1" vol="100" pos="276" pan="0" len="24"/>
          <note key="59" vol="100" pos="288" pan="0" len="24"/>
          <note key="59" vol="100" pos="312" pan="0" len="24"/>
          <note key="0" vol="100" pos="324" pan="0" len="24"/>
          <note key="61" vol="100" pos="336" pan="0" len="24"/>
          <note key="2" vol="100" pos="348" pan="0" len="24"/>
          <note key="62" vol="100" pos="360" pan="0" len="24"/>
        </pattern>
        <pattern muted="0" pos="6912" steps="16" name="Lead Guitar S" type="1">
          <note key="59" vol="100" pos="0" pan="0" len="24"/>
          <note key="1" vol="100" pos="0" pan="0" len="24"/>
          <note key="59" vol="100" pos="24" pan="0" len="24"/>
          <note key="0" vol="100" pos="36" pan="0" len="24"/>
          <note key="62" vol="100" pos="48" pan="0" len="24"/>
          <note key="59" vol="100" pos="72" pan="0" len="24"/>
          <note key="1" vol="100" pos="72" pan="0" len="24"/>
          <note key="59" vol="100" pos="96" pan="0" len="24"/>
          <note key="0" vol="100" pos="108" pan="0" len="24"/>
          <note key="61" vol="100" pos="120" pan="0" len="24"/>
          <note key="1" vol="100" pos="132" pan="0" len="24"/>
          <note key="59" vol="100" pos="144" pan="0" len="24"/>
          <note key="59" vol="100" pos="168" pan="0" len="24"/>
          <note key="0" vol="100" pos="180" pan="0" len="24"/>
          <note key="64" vol="100" pos="192" pan="0" len="24"/>
          <note key="1" vol="100" pos="204" pan="0" len="24"/>
          <note key="59" vol="100" pos="216" pan="0" len="24"/>
          <note key="59" vol="100" pos="240" pan="0" len="24"/>
          <note key="0" vol="100" pos="252" pan="0" len="24"/>
          <note key="62" vol="100" pos="264" pan="0" len="24"/>
          <note key="1" vol="100" pos="276" pan="0" len="24"/>
          <note key="59" vol="100" pos="288" pan="0" len="24"/>
          <note key="59" vol="100" pos="312" pan="0" len="24"/>
          <note key="0" vol="100" pos="324" pan="0" len="24"/>
          <note key="61" vol="100" pos="336" pan="0" len="24"/>
          <note key="2" vol="100" pos="348" pan="0" len="24"/>
          <note key="62" vol="100" pos="360" pan="0" len="24"/>
        </pattern>
        <pattern muted="0" pos="7296" steps="16" name="Lead Guitar S" type="1">
          <note key="59" vol="100" pos="0" pan="0" len="24"/>
          <note key="1" vol="100" pos="0" pan="0" len="24"/>
          <note key="59" vol="100" pos="24" pan="0" len="24"/>
          <note key="0" vol="100" pos="36" pan="0" len="24"/>
          <note key="62" vol="100" pos="48" pan="0" len="24"/>
          <note key="59" vol="100" pos="72" pan="0" len="24"/>
          <note key="1" vol="100" pos="72" pan="0" len="24"/>
          <note key="59" vol="100" pos="96" pan="0" len="24"/>
          <note key="0" vol="100" pos="108" pan="0" len="24"/>
          <note key="61" vol="100" pos="120" pan="0" len="24"/>
          <note key="1" vol="100" pos="132" pan="0" len="24"/>
          <note key="59" vol="100" pos="144" pan="0" len="24"/>
          <note key="59" vol="100" pos="168" pan="0" len="24"/>
          <note key="0" vol="100" pos="180" pan="0" len="24"/>
          <note key="64" vol="100" pos="192" pan="0" len="24"/>
          <note key="1" vol="100" pos="204" pan="0" len="24"/>
          <note key="59" vol="100" pos="216" pan="0" len="24"/>
          <note key="59" vol="100" pos="240" pan="0" len="24"/>
          <note key="0" vol="100" pos="252" pan="0" len="24"/>
          <note key="62" vol="100" pos="264" pan="0" len="24"/>
          <note key="1" vol="100" pos="276" pan="0" len="24"/>
          <note key="59" vol="100" pos="288" pan="0" len="24"/>
          <note key="59" vol="100" pos="312" pan="0" len="24"/>
          <note key="0" vol="100" pos="324" pan="0" len="24"/>
          <note key="61" vol="100" pos="336" pan="0" len="24"/>
          <note key="2" vol="100" pos="348" pan="0" len="24"/>
          <note key="62" vol="100" pos="360" pan="0" len="24"/>
        </pattern>
        <pattern muted="0" pos="13824" steps="16" name="" type="1">
          <note key="66" vol="100" pos="0" pan="0" len="48"/>
          <note key="0" vol="100" pos="0" pan="0" len="48"/>
          <note key="66" vol="100" pos="48" pan="0" len="24"/>
          <note key="66" vol="100" pos="72" pan="0" len="48"/>
          <note key="66" vol="100" pos="120" pan="0" len="24"/>
          <note key="66" vol="100" pos="144" pan="0" len="24"/>
          <note key="66" vol="100" pos="168" pan="0" len="24"/>
          <note key="67" vol="100" pos="192" pan="0" len="72"/>
          <note key="66" vol="100" pos="264" pan="0" len="72"/>
          <note key="64" vol="100" pos="336" pan="0" len="48"/>
          <note key="62" vol="100" pos="384" pan="0" len="48"/>
          <note key="62" vol="100" pos="432" pan="0" len="24"/>
          <note key="62" vol="100" pos="456" pan="0" len="48"/>
          <note key="62" vol="100" pos="504" pan="0" len="24"/>
          <note key="62" vol="100" pos="528" pan="0" len="24"/>
          <note key="62" vol="100" pos="552" pan="0" len="24"/>
          <note key="64" vol="100" pos="576" pan="0" len="72"/>
          <note key="66" vol="100" pos="648" pan="0" len="72"/>
          <note key="64" vol="100" pos="720" pan="0" len="48"/>
        </pattern>
        <pattern muted="0" pos="14592" steps="16" name="" type="1">
          <note key="62" vol="100" pos="0" pan="0" len="48"/>
          <note key="0" vol="100" pos="0" pan="0" len="48"/>
          <note key="62" vol="100" pos="48" pan="0" len="24"/>
          <note key="62" vol="100" pos="72" pan="0" len="48"/>
          <note key="62" vol="100" pos="120" pan="0" len="24"/>
          <note key="64" vol="100" pos="144" pan="0" len="48"/>
          <note key="66" vol="100" pos="192" pan="0" len="72"/>
          <note key="64" vol="100" pos="264" pan="0" len="72"/>
          <note key="62" vol="100" pos="336" pan="0" len="48"/>
          <note key="66" vol="100" pos="384" pan="0" len="72"/>
          <note key="67" vol="100" pos="456" pan="0" len="72"/>
          <note key="66" vol="100" pos="528" pan="0" len="48"/>
          <note key="64" vol="100" pos="576" pan="0" len="96"/>
          <note key="66" vol="100" pos="672" pan="0" len="96"/>
        </pattern>
        <pattern muted="0" pos="23808" steps="16" name="" type="1">
          <note key="66" vol="100" pos="0" pan="0" len="48"/>
          <note key="0" vol="100" pos="0" pan="0" len="48"/>
          <note key="66" vol="100" pos="48" pan="0" len="24"/>
          <note key="66" vol="100" pos="72" pan="0" len="48"/>
          <note key="66" vol="100" pos="120" pan="0" len="24"/>
          <note key="66" vol="100" pos="144" pan="0" len="24"/>
          <note key="66" vol="100" pos="168" pan="0" len="24"/>
          <note key="67" vol="100" pos="192" pan="0" len="72"/>
          <note key="66" vol="100" pos="264" pan="0" len="72"/>
          <note key="64" vol="100" pos="336" pan="0" len="48"/>
          <note key="62" vol="100" pos="384" pan="0" len="48"/>
          <note key="62" vol="100" pos="432" pan="0" len="24"/>
          <note key="62" vol="100" pos="456" pan="0" len="48"/>
          <note key="62" vol="100" pos="504" pan="0" len="24"/>
          <note key="62" vol="100" pos="528" pan="0" len="24"/>
          <note key="62" vol="100" pos="552" pan="0" len="24"/>
          <note key="64" vol="100" pos="576" pan="0" len="72"/>
          <note key="66" vol="100" pos="648" pan="0" len="72"/>
          <note key="64" vol="100" pos="720" pan="0" len="48"/>
        </pattern>
        <pattern muted="0" pos="24576" steps="16" name="" type="1">
          <note key="62" vol="100" pos="0" pan="0" len="48"/>
          <note key="0" vol="100" pos="0" pan="0" len="48"/>
          <note key="62" vol="100" pos="48" pan="0" len="24"/>
          <note key="62" vol="100" pos="72" pan="0" len="48"/>
          <note key="62" vol="100" pos="120" pan="0" len="24"/>
          <note key="64" vol="100" pos="144" pan="0" len="48"/>
          <note key="66" vol="100" pos="192" pan="0" len="72"/>
          <note key="64" vol="100" pos="264" pan="0" len="72"/>
          <note key="62" vol="100" pos="336" pan="0" len="48"/>
          <note key="66" vol="100" pos="384" pan="0" len="72"/>
          <note key="67" vol="100" pos="456" pan="0" len="72"/>
          <note key="66" vol="100" pos="528" pan="0" len="48"/>
          <note key="64" vol="100" pos="576" pan="0" len="96"/>
          <note key="66" vol="100" pos="672" pan="0" len="96"/>
        </pattern>
        <pattern muted="0" pos="4032" steps="16" name="Lead Guitar S" type="0"/>
      </track>
      <track muted="1" solo="0" name="lgtH1" type="0">
        <instrumenttrack fxch="12" usemasterpitch="1" vol="200" pitch="0" pitchrange="1" pan="-100" basenote="57">
          <instrument name="carlapatchbay">
            <carlapatchbay>
              <CARLA-PROJECT VERSION="2.2">
                <EngineSettings>
                  <ForceStereo>false</ForceStereo>
                  <PreferPluginBridges>false</PreferPluginBridges>
                  <PreferUiBridges>true</PreferUiBridges>
                  <UIsAlwaysOnTop>false</UIsAlwaysOnTop>
                  <MaxParameters>200</MaxParameters>
                  <UIBridgesTimeout>4000</UIBridgesTimeout>
                  <LADSPA_PATH>/home/pass/.ladspa:/usr/lib/ladspa:/usr/local/lib/ladspa</LADSPA_PATH>
                  <DSSI_PATH>/home/pass/.dssi:/usr/lib/dssi:/usr/local/lib/dssi</DSSI_PATH>
                  <LV2_PATH>/home/pass/.lv2:/usr/lib/lv2:/usr/local/lib/lv2</LV2_PATH>
                  <VST2_PATH>/home/pass/.vst:/home/pass/.wine/drive_c/Program Files (x86)/VstPlugins:/home/pass/.wine/drive_c/Program Files/VstPlugins:/usr/lib/lxvst:/usr/lib/vst:/usr/local/lib/lxvst:/usr/local/lib/vst/home/pass/.lxvst:/home/pass/vst</VST2_PATH>
                  <VST3_PATH>/home/pass/.vst3:/home/pass/.wine/drive_c/Program Files (x86)/Common Files/VST3:/home/pass/.wine/drive_c/Program Files/Common Files/VST3:/usr/lib/vst3:/usr/local/lib/vst3</VST3_PATH>
                  <SF2_PATH>/home/pass/.sounds/sf2/home/pass/.sounds/sf3:/usr/share/soundfonts:/usr/share/sounds/sf2:/usr/share/sounds/sf3</SF2_PATH>
                  <SFZ_PATH>/home/pass/.sounds/sfz:/home/pass/samples:/usr/share/sounds/sfz</SFZ_PATH>
                </EngineSettings>
                <!-- sfizz -->
                <Plugin>
                  <Info>
                    <Type>LV2</Type>
                    <Name>sfizz</Name>
                    <URI>http://sfztools.github.io/sfizz</URI>
                  </Info>
                  <Data>
                    <Active>Yes</Active>
                    <ControlChannel>1</ControlChannel>
                    <Options>0x3f0</Options>
                    <Parameter>
                      <Index>0</Index>
                      <Name>Volume</Name>
                      <Symbol>volume</Symbol>
                      <Value>0</Value>
                    </Parameter>
                    <Parameter>
                      <Index>1</Index>
                      <Name>Polyphony</Name>
                      <Symbol>num_voices</Symbol>
                      <Value>64</Value>
                    </Parameter>
                    <Parameter>
                      <Index>2</Index>
                      <Name>Internal oversampling factor</Name>
                      <Symbol>oversampling</Symbol>
                      <Value>1</Value>
                    </Parameter>
                    <Parameter>
                      <Index>3</Index>
                      <Name>Preload size</Name>
                      <Symbol>preload_size</Symbol>
                      <Value>8192</Value>
                    </Parameter>
                    <Parameter>
                      <Index>5</Index>
                      <Name>Scala root key</Name>
                      <Symbol>scala_root_key</Symbol>
                      <Value>60</Value>
                    </Parameter>
                    <Parameter>
                      <Index>6</Index>
                      <Name>Tuning frequency</Name>
                      <Symbol>tuning_frequency</Symbol>
                      <Value>440</Value>
                    </Parameter>
                    <Parameter>
                      <Index>7</Index>
                      <Name>Stretched tuning</Name>
                      <Symbol>stretched_tuning</Symbol>
                      <Value>0</Value>
                    </Parameter>
                    <CustomData>
                      <Type>http://lv2plug.in/ns/ext/atom#Path</Type>
                      <Key>http://sfztools.github.io/sfizz:sfzfile</Key>
                      <Value>_fakeguitar1_integrated.sfz</Value>
                    </CustomData>
                    <CustomData>
                      <Type>http://lv2plug.in/ns/ext/atom#Int</Type>
                      <Key>http://sfztools.github.io/sfizz:numvoices</Key>
                      <Value>QAAAAA==</Value>
                    </CustomData>
                    <CustomData>
                      <Type>http://lv2plug.in/ns/ext/atom#Int</Type>
                      <Key>http://sfztools.github.io/sfizz:preload_size</Key>
                      <Value>ACAAAA==</Value>
                    </CustomData>
                    <CustomData>
                      <Type>http://lv2plug.in/ns/ext/atom#Int</Type>
                      <Key>http://sfztools.github.io/sfizz:oversampling</Key>
                      <Value>AQAAAA==</Value>
                    </CustomData>
                    <CustomData>
                      <Type>http://lv2plug.in/ns/ext/atom#Path</Type>
                      <Key>http://sfztools.github.io/sfizz:tuningfile</Key>
                      <Value>DefaultScale.scl</Value>
                    </CustomData>
                  </Data>
                </Plugin>
                <Patchbay>
                  <Connection>
                    <Source>Midi Input:Capture 1</Source>
                    <Target>sfizz:events-in</Target>
                  </Connection>
                  <Connection>
                    <Source>sfizz:Left Output</Source>
                    <Target>Audio Output:Left</Target>
                  </Connection>
                  <Connection>
                    <Source>sfizz:Right Output</Source>
                    <Target>Audio Output:Right</Target>
                  </Connection>
                  <Positions>
                    <Position y1="1353" pluginId="0" x1="1693">
                      <Name>sfizz</Name>
                    </Position>
                  </Positions>
                </Patchbay>
              </CARLA-PROJECT>
            </carlapatchbay>
          </instrument>
          <eldata fres="0.5" fwet="0" fcut="14000" ftype="0">
            <elvol pdel="0" latt="0" lshp="0" lspd_denominator="4" lamt="0" amt="0" sustain="0.5" lspd_syncmode="0" att="0" x100="0" lspd_numerator="4" lspd="0.1" ctlenvamt="0" dec="0.5" lpdel="0" hold="0.5" userwavefile="" rel="0.1"/>
            <elcut pdel="0" latt="0" lshp="0" lspd_denominator="4" lamt="0" amt="0" sustain="0.5" lspd_syncmode="0" att="0" x100="0" lspd_numerator="4" lspd="0.1" ctlenvamt="0" dec="0.5" lpdel="0" hold="0.5" userwavefile="" rel="0.1"/>
            <elres pdel="0" latt="0" lshp="0" lspd_denominator="4" lamt="0" amt="0" sustain="0.5" lspd_syncmode="0" att="0" x100="0" lspd_numerator="4" lspd="0.1" ctlenvamt="0" dec="0.5" lpdel="0" hold="0.5" userwavefile="" rel="0.1"/>
          </eldata>
          <chordcreator chordrange="1" chord="0" chord-enabled="0"/>
          <arpeggiator arptime="200" arpskip="0" arpgate="100" arptime_syncmode="0" arpmode="0" arprange="1" arp="0" arpcycle="0" arptime_denominator="4" arptime_numerator="4" arpdir="0" arp-enabled="0" arpmiss="0"/>
          <midiport outputchannel="1" inputcontroller="0" inputchannel="0" basevelocity="63" outputprogram="1" readable="0" outputcontroller="0" fixedinputvelocity="-1" fixedoutputnote="-1" writable="0" fixedoutputvelocity="-1"/>
          <fxchain numofeffects="0" enabled="0"/>
        </instrumenttrack>
        <pattern muted="0" pos="7680" steps="16" name="lgtH1" type="1">
          <note key="59" vol="100" pos="0" pan="0" len="24"/>
          <note key="1" vol="100" pos="0" pan="0" len="24"/>
          <note key="59" vol="100" pos="24" pan="0" len="24"/>
          <note key="0" vol="100" pos="36" pan="0" len="24"/>
          <note key="62" vol="100" pos="48" pan="0" len="24"/>
          <note key="59" vol="100" pos="72" pan="0" len="24"/>
          <note key="1" vol="100" pos="72" pan="0" len="24"/>
          <note key="59" vol="100" pos="96" pan="0" len="24"/>
          <note key="0" vol="100" pos="108" pan="0" len="24"/>
          <note key="61" vol="100" pos="120" pan="0" len="24"/>
          <note key="1" vol="100" pos="132" pan="0" len="24"/>
          <note key="59" vol="100" pos="144" pan="0" len="24"/>
          <note key="59" vol="100" pos="168" pan="0" len="24"/>
          <note key="0" vol="100" pos="180" pan="0" len="24"/>
          <note key="64" vol="100" pos="192" pan="0" len="24"/>
          <note key="1" vol="100" pos="204" pan="0" len="24"/>
          <note key="59" vol="100" pos="216" pan="0" len="24"/>
          <note key="59" vol="100" pos="240" pan="0" len="24"/>
          <note key="0" vol="100" pos="252" pan="0" len="24"/>
          <note key="62" vol="100" pos="264" pan="0" len="24"/>
          <note key="1" vol="100" pos="276" pan="0" len="24"/>
          <note key="59" vol="100" pos="288" pan="0" len="24"/>
          <note key="59" vol="100" pos="312" pan="0" len="24"/>
          <note key="0" vol="100" pos="324" pan="0" len="24"/>
          <note key="61" vol="100" pos="336" pan="0" len="24"/>
          <note key="2" vol="100" pos="348" pan="0" len="24"/>
          <note key="62" vol="100" pos="360" pan="0" len="24"/>
        </pattern>
        <pattern muted="0" pos="8064" steps="16" name="lgtH1" type="1">
          <note key="59" vol="100" pos="0" pan="0" len="24"/>
          <note key="1" vol="100" pos="0" pan="0" len="24"/>
          <note key="59" vol="100" pos="24" pan="0" len="24"/>
          <note key="0" vol="100" pos="36" pan="0" len="24"/>
          <note key="62" vol="100" pos="48" pan="0" len="24"/>
          <note key="59" vol="100" pos="72" pan="0" len="24"/>
          <note key="1" vol="100" pos="72" pan="0" len="24"/>
          <note key="59" vol="100" pos="96" pan="0" len="24"/>
          <note key="0" vol="100" pos="108" pan="0" len="24"/>
          <note key="61" vol="100" pos="120" pan="0" len="24"/>
          <note key="1" vol="100" pos="132" pan="0" len="24"/>
          <note key="59" vol="100" pos="144" pan="0" len="24"/>
          <note key="59" vol="100" pos="168" pan="0" len="24"/>
          <note key="0" vol="100" pos="180" pan="0" len="24"/>
          <note key="64" vol="100" pos="192" pan="0" len="24"/>
          <note key="1" vol="100" pos="204" pan="0" len="24"/>
          <note key="59" vol="100" pos="216" pan="0" len="24"/>
          <note key="59" vol="100" pos="240" pan="0" len="24"/>
          <note key="0" vol="100" pos="252" pan="0" len="24"/>
          <note key="62" vol="100" pos="264" pan="0" len="24"/>
          <note key="1" vol="100" pos="276" pan="0" len="24"/>
          <note key="59" vol="100" pos="288" pan="0" len="24"/>
          <note key="59" vol="100" pos="312" pan="0" len="24"/>
          <note key="0" vol="100" pos="324" pan="0" len="24"/>
          <note key="61" vol="100" pos="336" pan="0" len="24"/>
          <note key="2" vol="100" pos="348" pan="0" len="24"/>
          <note key="62" vol="100" pos="360" pan="0" len="24"/>
        </pattern>
        <pattern muted="0" pos="8448" steps="16" name="lgtH1" type="1">
          <note key="59" vol="100" pos="0" pan="0" len="24"/>
          <note key="1" vol="100" pos="0" pan="0" len="24"/>
          <note key="59" vol="100" pos="24" pan="0" len="24"/>
          <note key="0" vol="100" pos="36" pan="0" len="24"/>
          <note key="62" vol="100" pos="48" pan="0" len="24"/>
          <note key="59" vol="100" pos="72" pan="0" len="24"/>
          <note key="1" vol="100" pos="72" pan="0" len="24"/>
          <note key="59" vol="100" pos="96" pan="0" len="24"/>
          <note key="0" vol="100" pos="108" pan="0" len="24"/>
          <note key="61" vol="100" pos="120" pan="0" len="24"/>
          <note key="1" vol="100" pos="132" pan="0" len="24"/>
          <note key="59" vol="100" pos="144" pan="0" len="24"/>
          <note key="59" vol="100" pos="168" pan="0" len="24"/>
          <note key="0" vol="100" pos="180" pan="0" len="24"/>
          <note key="64" vol="100" pos="192" pan="0" len="24"/>
          <note key="1" vol="100" pos="204" pan="0" len="24"/>
          <note key="59" vol="100" pos="216" pan="0" len="24"/>
          <note key="59" vol="100" pos="240" pan="0" len="24"/>
          <note key="0" vol="100" pos="252" pan="0" len="24"/>
          <note key="62" vol="100" pos="264" pan="0" len="24"/>
          <note key="1" vol="100" pos="276" pan="0" len="24"/>
          <note key="59" vol="100" pos="288" pan="0" len="24"/>
          <note key="59" vol="100" pos="312" pan="0" len="24"/>
          <note key="0" vol="100" pos="324" pan="0" len="24"/>
          <note key="61" vol="100" pos="336" pan="0" len="24"/>
          <note key="2" vol="100" pos="348" pan="0" len="24"/>
          <note key="62" vol="100" pos="360" pan="0" len="24"/>
        </pattern>
        <pattern muted="0" pos="8832" steps="16" name="lgtH1" type="1">
          <note key="59" vol="100" pos="0" pan="0" len="24"/>
          <note key="1" vol="100" pos="0" pan="0" len="24"/>
          <note key="59" vol="100" pos="24" pan="0" len="24"/>
          <note key="0" vol="100" pos="36" pan="0" len="24"/>
          <note key="62" vol="100" pos="48" pan="0" len="24"/>
          <note key="59" vol="100" pos="72" pan="0" len="24"/>
          <note key="1" vol="100" pos="72" pan="0" len="24"/>
          <note key="59" vol="100" pos="96" pan="0" len="24"/>
          <note key="0" vol="100" pos="108" pan="0" len="24"/>
          <note key="61" vol="100" pos="120" pan="0" len="24"/>
          <note key="1" vol="100" pos="132" pan="0" len="24"/>
          <note key="59" vol="100" pos="144" pan="0" len="24"/>
          <note key="59" vol="100" pos="168" pan="0" len="24"/>
          <note key="0" vol="100" pos="180" pan="0" len="24"/>
          <note key="64" vol="100" pos="192" pan="0" len="24"/>
          <note key="1" vol="100" pos="204" pan="0" len="24"/>
          <note key="59" vol="100" pos="216" pan="0" len="24"/>
          <note key="59" vol="100" pos="240" pan="0" len="24"/>
          <note key="0" vol="100" pos="252" pan="0" len="24"/>
          <note key="62" vol="100" pos="264" pan="0" len="24"/>
          <note key="1" vol="100" pos="276" pan="0" len="24"/>
          <note key="59" vol="100" pos="288" pan="0" len="24"/>
          <note key="59" vol="100" pos="312" pan="0" len="24"/>
          <note key="0" vol="100" pos="324" pan="0" len="24"/>
          <note key="61" vol="100" pos="336" pan="0" len="24"/>
          <note key="2" vol="100" pos="348" pan="0" len="24"/>
          <note key="62" vol="100" pos="360" pan="0" len="24"/>
        </pattern>
        <pattern muted="0" pos="11904" steps="16" name="lgtH1" type="1">
          <note key="59" vol="100" pos="0" pan="0" len="24"/>
          <note key="1" vol="100" pos="0" pan="0" len="24"/>
          <note key="59" vol="100" pos="24" pan="0" len="24"/>
          <note key="0" vol="100" pos="36" pan="0" len="24"/>
          <note key="62" vol="100" pos="48" pan="0" len="24"/>
          <note key="59" vol="100" pos="72" pan="0" len="24"/>
          <note key="1" vol="100" pos="72" pan="0" len="24"/>
          <note key="59" vol="100" pos="96" pan="0" len="24"/>
          <note key="0" vol="100" pos="108" pan="0" len="24"/>
          <note key="61" vol="100" pos="120" pan="0" len="24"/>
          <note key="1" vol="100" pos="132" pan="0" len="24"/>
          <note key="59" vol="100" pos="144" pan="0" len="24"/>
          <note key="59" vol="100" pos="168" pan="0" len="24"/>
          <note key="59" vol="100" pos="192" pan="0" len="24"/>
          <note key="0" vol="100" pos="192" pan="0" len="96"/>
          <note key="57" vol="100" pos="216" pan="0" len="24"/>
          <note key="59" vol="100" pos="240" pan="0" len="24"/>
          <note key="61" vol="100" pos="264" pan="0" len="24"/>
          <note key="62" vol="100" pos="288" pan="0" len="24"/>
          <note key="61" vol="100" pos="312" pan="0" len="24"/>
          <note key="59" vol="100" pos="336" pan="0" len="24"/>
          <note key="57" vol="100" pos="360" pan="0" len="24"/>
        </pattern>
        <pattern muted="0" pos="9216" steps="16" name="lgtH1" type="1">
          <note key="59" vol="100" pos="0" pan="0" len="24"/>
          <note key="1" vol="100" pos="0" pan="0" len="24"/>
          <note key="59" vol="100" pos="24" pan="0" len="24"/>
          <note key="0" vol="100" pos="36" pan="0" len="24"/>
          <note key="62" vol="100" pos="48" pan="0" len="24"/>
          <note key="59" vol="100" pos="72" pan="0" len="24"/>
          <note key="1" vol="100" pos="72" pan="0" len="24"/>
          <note key="59" vol="100" pos="96" pan="0" len="24"/>
          <note key="0" vol="100" pos="108" pan="0" len="24"/>
          <note key="61" vol="100" pos="120" pan="0" len="24"/>
          <note key="1" vol="100" pos="132" pan="0" len="24"/>
          <note key="59" vol="100" pos="144" pan="0" len="24"/>
          <note key="59" vol="100" pos="168" pan="0" len="24"/>
          <note key="0" vol="100" pos="180" pan="0" len="24"/>
          <note key="64" vol="100" pos="192" pan="0" len="24"/>
          <note key="1" vol="100" pos="204" pan="0" len="24"/>
          <note key="59" vol="100" pos="216" pan="0" len="24"/>
          <note key="59" vol="100" pos="240" pan="0" len="24"/>
          <note key="0" vol="100" pos="252" pan="0" len="24"/>
          <note key="62" vol="100" pos="264" pan="0" len="24"/>
          <note key="1" vol="100" pos="276" pan="0" len="24"/>
          <note key="59" vol="100" pos="288" pan="0" len="24"/>
          <note key="59" vol="100" pos="312" pan="0" len="24"/>
          <note key="0" vol="100" pos="324" pan="0" len="24"/>
          <note key="61" vol="100" pos="336" pan="0" len="24"/>
          <note key="2" vol="100" pos="348" pan="0" len="24"/>
          <note key="62" vol="100" pos="360" pan="0" len="24"/>
        </pattern>
        <pattern muted="0" pos="9600" steps="16" name="lgtH1" type="1">
          <note key="59" vol="100" pos="0" pan="0" len="24"/>
          <note key="1" vol="100" pos="0" pan="0" len="24"/>
          <note key="59" vol="100" pos="24" pan="0" len="24"/>
          <note key="0" vol="100" pos="36" pan="0" len="24"/>
          <note key="62" vol="100" pos="48" pan="0" len="24"/>
          <note key="59" vol="100" pos="72" pan="0" len="24"/>
          <note key="1" vol="100" pos="72" pan="0" len="24"/>
          <note key="59" vol="100" pos="96" pan="0" len="24"/>
          <note key="0" vol="100" pos="108" pan="0" len="24"/>
          <note key="61" vol="100" pos="120" pan="0" len="24"/>
          <note key="1" vol="100" pos="132" pan="0" len="24"/>
          <note key="59" vol="100" pos="144" pan="0" len="24"/>
          <note key="59" vol="100" pos="168" pan="0" len="24"/>
          <note key="0" vol="100" pos="180" pan="0" len="24"/>
          <note key="64" vol="100" pos="192" pan="0" len="24"/>
          <note key="1" vol="100" pos="204" pan="0" len="24"/>
          <note key="59" vol="100" pos="216" pan="0" len="24"/>
          <note key="59" vol="100" pos="240" pan="0" len="24"/>
          <note key="0" vol="100" pos="252" pan="0" len="24"/>
          <note key="62" vol="100" pos="264" pan="0" len="24"/>
          <note key="1" vol="100" pos="276" pan="0" len="24"/>
          <note key="59" vol="100" pos="288" pan="0" len="24"/>
          <note key="59" vol="100" pos="312" pan="0" len="24"/>
          <note key="0" vol="100" pos="324" pan="0" len="24"/>
          <note key="61" vol="100" pos="336" pan="0" len="24"/>
          <note key="2" vol="100" pos="348" pan="0" len="24"/>
          <note key="62" vol="100" pos="360" pan="0" len="24"/>
        </pattern>
        <pattern muted="0" pos="9984" steps="16" name="lgtH1" type="1">
          <note key="59" vol="100" pos="0" pan="0" len="24"/>
          <note key="1" vol="100" pos="0" pan="0" len="24"/>
          <note key="59" vol="100" pos="24" pan="0" len="24"/>
          <note key="0" vol="100" pos="36" pan="0" len="24"/>
          <note key="62" vol="100" pos="48" pan="0" len="24"/>
          <note key="59" vol="100" pos="72" pan="0" len="24"/>
          <note key="1" vol="100" pos="72" pan="0" len="24"/>
          <note key="59" vol="100" pos="96" pan="0" len="24"/>
          <note key="0" vol="100" pos="108" pan="0" len="24"/>
          <note key="61" vol="100" pos="120" pan="0" len="24"/>
          <note key="1" vol="100" pos="132" pan="0" len="24"/>
          <note key="59" vol="100" pos="144" pan="0" len="24"/>
          <note key="59" vol="100" pos="168" pan="0" len="24"/>
          <note key="0" vol="100" pos="180" pan="0" len="24"/>
          <note key="64" vol="100" pos="192" pan="0" len="24"/>
          <note key="1" vol="100" pos="204" pan="0" len="24"/>
          <note key="59" vol="100" pos="216" pan="0" len="24"/>
          <note key="59" vol="100" pos="240" pan="0" len="24"/>
          <note key="0" vol="100" pos="252" pan="0" len="24"/>
          <note key="62" vol="100" pos="264" pan="0" len="24"/>
          <note key="1" vol="100" pos="276" pan="0" len="24"/>
          <note key="59" vol="100" pos="288" pan="0" len="24"/>
          <note key="59" vol="100" pos="312" pan="0" len="24"/>
          <note key="0" vol="100" pos="324" pan="0" len="24"/>
          <note key="61" vol="100" pos="336" pan="0" len="24"/>
          <note key="2" vol="100" pos="348" pan="0" len="24"/>
          <note key="62" vol="100" pos="360" pan="0" len="24"/>
        </pattern>
        <pattern muted="0" pos="10368" steps="16" name="lgtH1" type="1">
          <note key="59" vol="100" pos="0" pan="0" len="24"/>
          <note key="1" vol="100" pos="0" pan="0" len="24"/>
          <note key="59" vol="100" pos="24" pan="0" len="24"/>
          <note key="0" vol="100" pos="36" pan="0" len="24"/>
          <note key="62" vol="100" pos="48" pan="0" len="24"/>
          <note key="59" vol="100" pos="72" pan="0" len="24"/>
          <note key="1" vol="100" pos="72" pan="0" len="24"/>
          <note key="59" vol="100" pos="96" pan="0" len="24"/>
          <note key="0" vol="100" pos="108" pan="0" len="24"/>
          <note key="61" vol="100" pos="120" pan="0" len="24"/>
          <note key="1" vol="100" pos="132" pan="0" len="24"/>
          <note key="59" vol="100" pos="144" pan="0" len="24"/>
          <note key="59" vol="100" pos="168" pan="0" len="24"/>
          <note key="0" vol="100" pos="180" pan="0" len="24"/>
          <note key="64" vol="100" pos="192" pan="0" len="24"/>
          <note key="1" vol="100" pos="204" pan="0" len="24"/>
          <note key="59" vol="100" pos="216" pan="0" len="24"/>
          <note key="59" vol="100" pos="240" pan="0" len="24"/>
          <note key="0" vol="100" pos="252" pan="0" len="24"/>
          <note key="62" vol="100" pos="264" pan="0" len="24"/>
          <note key="1" vol="100" pos="276" pan="0" len="24"/>
          <note key="59" vol="100" pos="288" pan="0" len="24"/>
          <note key="59" vol="100" pos="312" pan="0" len="24"/>
          <note key="0" vol="100" pos="324" pan="0" len="24"/>
          <note key="61" vol="100" pos="336" pan="0" len="24"/>
          <note key="2" vol="100" pos="348" pan="0" len="24"/>
          <note key="62" vol="100" pos="360" pan="0" len="24"/>
        </pattern>
        <pattern muted="0" pos="10752" steps="16" name="lgtH1" type="1">
          <note key="59" vol="100" pos="0" pan="0" len="24"/>
          <note key="1" vol="100" pos="0" pan="0" len="24"/>
          <note key="59" vol="100" pos="24" pan="0" len="24"/>
          <note key="0" vol="100" pos="36" pan="0" len="24"/>
          <note key="62" vol="100" pos="48" pan="0" len="24"/>
          <note key="59" vol="100" pos="72" pan="0" len="24"/>
          <note key="1" vol="100" pos="72" pan="0" len="24"/>
          <note key="59" vol="100" pos="96" pan="0" len="24"/>
          <note key="0" vol="100" pos="108" pan="0" len="24"/>
          <note key="61" vol="100" pos="120" pan="0" len="24"/>
          <note key="1" vol="100" pos="132" pan="0" len="24"/>
          <note key="59" vol="100" pos="144" pan="0" len="24"/>
          <note key="59" vol="100" pos="168" pan="0" len="24"/>
          <note key="0" vol="100" pos="180" pan="0" len="24"/>
          <note key="64" vol="100" pos="192" pan="0" len="24"/>
          <note key="1" vol="100" pos="204" pan="0" len="24"/>
          <note key="59" vol="100" pos="216" pan="0" len="24"/>
          <note key="59" vol="100" pos="240" pan="0" len="24"/>
          <note key="0" vol="100" pos="252" pan="0" len="24"/>
          <note key="62" vol="100" pos="264" pan="0" len="24"/>
          <note key="1" vol="100" pos="276" pan="0" len="24"/>
          <note key="59" vol="100" pos="288" pan="0" len="24"/>
          <note key="59" vol="100" pos="312" pan="0" len="24"/>
          <note key="0" vol="100" pos="324" pan="0" len="24"/>
          <note key="61" vol="100" pos="336" pan="0" len="24"/>
          <note key="2" vol="100" pos="348" pan="0" len="24"/>
          <note key="62" vol="100" pos="360" pan="0" len="24"/>
        </pattern>
        <pattern muted="0" pos="11136" steps="16" name="lgtH1" type="1">
          <note key="59" vol="100" pos="0" pan="0" len="24"/>
          <note key="1" vol="100" pos="0" pan="0" len="24"/>
          <note key="59" vol="100" pos="24" pan="0" len="24"/>
          <note key="0" vol="100" pos="36" pan="0" len="24"/>
          <note key="62" vol="100" pos="48" pan="0" len="24"/>
          <note key="59" vol="100" pos="72" pan="0" len="24"/>
          <note key="1" vol="100" pos="72" pan="0" len="24"/>
          <note key="59" vol="100" pos="96" pan="0" len="24"/>
          <note key="0" vol="100" pos="108" pan="0" len="24"/>
          <note key="61" vol="100" pos="120" pan="0" len="24"/>
          <note key="1" vol="100" pos="132" pan="0" len="24"/>
          <note key="59" vol="100" pos="144" pan="0" len="24"/>
          <note key="59" vol="100" pos="168" pan="0" len="24"/>
          <note key="0" vol="100" pos="180" pan="0" len="24"/>
          <note key="64" vol="100" pos="192" pan="0" len="24"/>
          <note key="1" vol="100" pos="204" pan="0" len="24"/>
          <note key="59" vol="100" pos="216" pan="0" len="24"/>
          <note key="59" vol="100" pos="240" pan="0" len="24"/>
          <note key="0" vol="100" pos="252" pan="0" len="24"/>
          <note key="62" vol="100" pos="264" pan="0" len="24"/>
          <note key="1" vol="100" pos="276" pan="0" len="24"/>
          <note key="59" vol="100" pos="288" pan="0" len="24"/>
          <note key="59" vol="100" pos="312" pan="0" len="24"/>
          <note key="0" vol="100" pos="324" pan="0" len="24"/>
          <note key="61" vol="100" pos="336" pan="0" len="24"/>
          <note key="2" vol="100" pos="348" pan="0" len="24"/>
          <note key="62" vol="100" pos="360" pan="0" len="24"/>
        </pattern>
        <pattern muted="0" pos="11520" steps="16" name="lgtH1" type="1">
          <note key="59" vol="100" pos="0" pan="0" len="24"/>
          <note key="1" vol="100" pos="0" pan="0" len="24"/>
          <note key="59" vol="100" pos="24" pan="0" len="24"/>
          <note key="0" vol="100" pos="36" pan="0" len="24"/>
          <note key="62" vol="100" pos="48" pan="0" len="24"/>
          <note key="59" vol="100" pos="72" pan="0" len="24"/>
          <note key="1" vol="100" pos="72" pan="0" len="24"/>
          <note key="59" vol="100" pos="96" pan="0" len="24"/>
          <note key="0" vol="100" pos="108" pan="0" len="24"/>
          <note key="61" vol="100" pos="120" pan="0" len="24"/>
          <note key="1" vol="100" pos="132" pan="0" len="24"/>
          <note key="59" vol="100" pos="144" pan="0" len="24"/>
          <note key="59" vol="100" pos="168" pan="0" len="24"/>
          <note key="0" vol="100" pos="180" pan="0" len="24"/>
          <note key="64" vol="100" pos="192" pan="0" len="24"/>
          <note key="1" vol="100" pos="204" pan="0" len="24"/>
          <note key="59" vol="100" pos="216" pan="0" len="24"/>
          <note key="59" vol="100" pos="240" pan="0" len="24"/>
          <note key="0" vol="100" pos="252" pan="0" len="24"/>
          <note key="62" vol="100" pos="264" pan="0" len="24"/>
          <note key="1" vol="100" pos="276" pan="0" len="24"/>
          <note key="59" vol="100" pos="288" pan="0" len="24"/>
          <note key="59" vol="100" pos="312" pan="0" len="24"/>
          <note key="0" vol="100" pos="324" pan="0" len="24"/>
          <note key="61" vol="100" pos="336" pan="0" len="24"/>
          <note key="2" vol="100" pos="348" pan="0" len="24"/>
          <note key="62" vol="100" pos="360" pan="0" len="24"/>
        </pattern>
        <pattern muted="0" pos="25344" steps="16" name="lgtH1" type="1">
          <note key="78" vol="100" pos="0" pan="0" len="72"/>
          <note key="0" vol="100" pos="0" pan="0" len="48"/>
          <note key="76" vol="100" pos="72" pan="0" len="72"/>
          <note key="78" vol="100" pos="144" pan="0" len="48"/>
          <note key="78" vol="100" pos="192" pan="0" len="72"/>
          <note key="76" vol="100" pos="264" pan="0" len="72"/>
          <note key="78" vol="100" pos="336" pan="0" len="48"/>
          <note key="79" vol="100" pos="384" pan="0" len="72"/>
          <note key="78" vol="100" pos="456" pan="0" len="72"/>
          <note key="76" vol="100" pos="528" pan="0" len="48"/>
          <note key="78" vol="100" pos="576" pan="0" len="72"/>
          <note key="76" vol="100" pos="648" pan="0" len="72"/>
          <note key="74" vol="100" pos="720" pan="0" len="48"/>
        </pattern>
        <pattern muted="0" pos="27648" steps="16" name="lgtH1" type="1">
          <note key="69" vol="100" pos="0" pan="0" len="72"/>
          <note key="67" vol="100" pos="72" pan="0" len="72"/>
          <note key="66" vol="100" pos="144" pan="0" len="48"/>
          <note key="69" vol="100" pos="192" pan="0" len="72"/>
          <note key="67" vol="100" pos="264" pan="0" len="72"/>
          <note key="66" vol="100" pos="336" pan="0" len="48"/>
          <note key="66" vol="100" pos="384" pan="0" len="24"/>
          <note key="64" vol="100" pos="408" pan="0" len="168"/>
        </pattern>
        <pattern muted="0" pos="33792" steps="16" name="lgtH1" type="1">
          <note key="62" vol="100" pos="0" pan="0" len="24"/>
          <note key="1" vol="100" pos="0" pan="0" len="24"/>
          <note key="66" vol="100" pos="24" pan="0" len="24"/>
          <note key="0" vol="100" pos="24" pan="0" len="24"/>
          <note key="1" vol="100" pos="36" pan="0" len="24"/>
          <note key="62" vol="100" pos="48" pan="0" len="24"/>
          <note key="62" vol="100" pos="72" pan="0" len="24"/>
          <note key="0" vol="100" pos="84" pan="0" len="24"/>
          <note key="66" vol="100" pos="96" pan="0" len="24"/>
          <note key="1" vol="100" pos="108" pan="0" len="24"/>
          <note key="62" vol="100" pos="120" pan="0" len="24"/>
          <note key="62" vol="100" pos="144" pan="0" len="24"/>
          <note key="0" vol="100" pos="156" pan="0" len="24"/>
          <note key="66" vol="100" pos="168" pan="0" len="24"/>
          <note key="1" vol="100" pos="180" pan="0" len="24"/>
          <note key="62" vol="100" pos="192" pan="0" len="24"/>
          <note key="62" vol="100" pos="216" pan="0" len="24"/>
          <note key="0" vol="100" pos="228" pan="0" len="24"/>
          <note key="66" vol="100" pos="240" pan="0" len="24"/>
          <note key="1" vol="100" pos="252" pan="0" len="24"/>
          <note key="62" vol="100" pos="264" pan="0" len="24"/>
          <note key="62" vol="100" pos="288" pan="0" len="24"/>
          <note key="0" vol="100" pos="300" pan="0" len="24"/>
          <note key="66" vol="100" pos="312" pan="0" len="24"/>
          <note key="1" vol="100" pos="324" pan="0" len="24"/>
          <note key="62" vol="100" pos="336" pan="0" len="24"/>
          <note key="62" vol="100" pos="360" pan="0" len="24"/>
        </pattern>
        <pattern muted="0" pos="34176" steps="16" name="lgtH1" type="1">
          <note key="62" vol="100" pos="0" pan="0" len="24"/>
          <note key="1" vol="100" pos="0" pan="0" len="24"/>
          <note key="67" vol="100" pos="24" pan="0" len="24"/>
          <note key="0" vol="100" pos="24" pan="0" len="24"/>
          <note key="1" vol="100" pos="36" pan="0" len="24"/>
          <note key="62" vol="100" pos="48" pan="0" len="24"/>
          <note key="62" vol="100" pos="72" pan="0" len="24"/>
          <note key="0" vol="100" pos="84" pan="0" len="24"/>
          <note key="67" vol="100" pos="96" pan="0" len="24"/>
          <note key="1" vol="100" pos="108" pan="0" len="24"/>
          <note key="62" vol="100" pos="120" pan="0" len="24"/>
          <note key="62" vol="100" pos="144" pan="0" len="24"/>
          <note key="0" vol="100" pos="156" pan="0" len="24"/>
          <note key="69" vol="100" pos="168" pan="0" len="24"/>
          <note key="1" vol="100" pos="180" pan="0" len="24"/>
          <note key="62" vol="100" pos="192" pan="0" len="24"/>
          <note key="62" vol="100" pos="216" pan="0" len="24"/>
          <note key="0" vol="100" pos="228" pan="0" len="24"/>
          <note key="69" vol="100" pos="240" pan="0" len="24"/>
          <note key="1" vol="100" pos="252" pan="0" len="24"/>
          <note key="62" vol="100" pos="264" pan="0" len="24"/>
          <note key="62" vol="100" pos="288" pan="0" len="24"/>
          <note key="0" vol="100" pos="300" pan="0" len="24"/>
          <note key="69" vol="100" pos="312" pan="0" len="24"/>
          <note key="1" vol="100" pos="324" pan="0" len="24"/>
          <note key="62" vol="100" pos="336" pan="0" len="24"/>
          <note key="62" vol="100" pos="360" pan="0" len="24"/>
        </pattern>
        <pattern muted="0" pos="34560" steps="16" name="lgtH1" type="1">
          <note key="62" vol="100" pos="0" pan="0" len="24"/>
          <note key="1" vol="100" pos="0" pan="0" len="24"/>
          <note key="66" vol="100" pos="24" pan="0" len="24"/>
          <note key="0" vol="100" pos="24" pan="0" len="24"/>
          <note key="1" vol="100" pos="36" pan="0" len="24"/>
          <note key="62" vol="100" pos="48" pan="0" len="24"/>
          <note key="62" vol="100" pos="72" pan="0" len="24"/>
          <note key="0" vol="100" pos="84" pan="0" len="24"/>
          <note key="66" vol="100" pos="96" pan="0" len="24"/>
          <note key="1" vol="100" pos="108" pan="0" len="24"/>
          <note key="62" vol="100" pos="120" pan="0" len="24"/>
          <note key="62" vol="100" pos="144" pan="0" len="24"/>
          <note key="0" vol="100" pos="156" pan="0" len="24"/>
          <note key="66" vol="100" pos="168" pan="0" len="24"/>
          <note key="1" vol="100" pos="180" pan="0" len="24"/>
          <note key="62" vol="100" pos="192" pan="0" len="24"/>
          <note key="62" vol="100" pos="216" pan="0" len="24"/>
          <note key="0" vol="100" pos="228" pan="0" len="24"/>
          <note key="66" vol="100" pos="240" pan="0" len="24"/>
          <note key="1" vol="100" pos="252" pan="0" len="24"/>
          <note key="62" vol="100" pos="264" pan="0" len="24"/>
          <note key="62" vol="100" pos="288" pan="0" len="24"/>
          <note key="0" vol="100" pos="300" pan="0" len="24"/>
          <note key="66" vol="100" pos="312" pan="0" len="24"/>
          <note key="1" vol="100" pos="324" pan="0" len="24"/>
          <note key="62" vol="100" pos="336" pan="0" len="24"/>
          <note key="62" vol="100" pos="360" pan="0" len="24"/>
        </pattern>
        <pattern muted="0" pos="34944" steps="16" name="lgtH1" type="1">
          <note key="62" vol="100" pos="0" pan="0" len="24"/>
          <note key="1" vol="100" pos="0" pan="0" len="24"/>
          <note key="67" vol="100" pos="24" pan="0" len="24"/>
          <note key="0" vol="100" pos="24" pan="0" len="24"/>
          <note key="1" vol="100" pos="36" pan="0" len="24"/>
          <note key="62" vol="100" pos="48" pan="0" len="24"/>
          <note key="62" vol="100" pos="72" pan="0" len="24"/>
          <note key="0" vol="100" pos="84" pan="0" len="24"/>
          <note key="67" vol="100" pos="96" pan="0" len="24"/>
          <note key="1" vol="100" pos="108" pan="0" len="24"/>
          <note key="62" vol="100" pos="120" pan="0" len="24"/>
          <note key="62" vol="100" pos="144" pan="0" len="24"/>
          <note key="0" vol="100" pos="156" pan="0" len="24"/>
          <note key="69" vol="100" pos="168" pan="0" len="24"/>
          <note key="1" vol="100" pos="180" pan="0" len="24"/>
          <note key="62" vol="100" pos="192" pan="0" len="24"/>
          <note key="62" vol="100" pos="216" pan="0" len="24"/>
          <note key="0" vol="100" pos="228" pan="0" len="24"/>
          <note key="69" vol="100" pos="240" pan="0" len="24"/>
          <note key="1" vol="100" pos="252" pan="0" len="24"/>
          <note key="62" vol="100" pos="264" pan="0" len="24"/>
          <note key="0" vol="100" pos="300" pan="0" len="24"/>
          <note key="1" vol="100" pos="324" pan="0" len="24"/>
        </pattern>
        <pattern muted="0" pos="43008" steps="16" name="lgtH1" type="1">
          <note key="59" vol="100" pos="0" pan="0" len="24"/>
          <note key="1" vol="100" pos="0" pan="0" len="24"/>
          <note key="59" vol="100" pos="24" pan="0" len="24"/>
          <note key="0" vol="100" pos="36" pan="0" len="24"/>
          <note key="62" vol="100" pos="48" pan="0" len="24"/>
          <note key="59" vol="100" pos="72" pan="0" len="24"/>
          <note key="1" vol="100" pos="72" pan="0" len="24"/>
          <note key="59" vol="100" pos="96" pan="0" len="24"/>
          <note key="0" vol="100" pos="108" pan="0" len="24"/>
          <note key="61" vol="100" pos="120" pan="0" len="24"/>
          <note key="1" vol="100" pos="132" pan="0" len="24"/>
          <note key="59" vol="100" pos="144" pan="0" len="24"/>
          <note key="59" vol="100" pos="168" pan="0" len="24"/>
          <note key="0" vol="100" pos="180" pan="0" len="24"/>
          <note key="64" vol="100" pos="192" pan="0" len="24"/>
          <note key="1" vol="100" pos="204" pan="0" len="24"/>
          <note key="59" vol="100" pos="216" pan="0" len="24"/>
          <note key="59" vol="100" pos="240" pan="0" len="24"/>
          <note key="0" vol="100" pos="252" pan="0" len="24"/>
          <note key="62" vol="100" pos="264" pan="0" len="24"/>
          <note key="1" vol="100" pos="276" pan="0" len="24"/>
          <note key="59" vol="100" pos="288" pan="0" len="24"/>
          <note key="59" vol="100" pos="312" pan="0" len="24"/>
          <note key="0" vol="100" pos="324" pan="0" len="24"/>
          <note key="61" vol="100" pos="336" pan="0" len="24"/>
          <note key="2" vol="100" pos="348" pan="0" len="24"/>
          <note key="62" vol="100" pos="360" pan="0" len="24"/>
        </pattern>
        <pattern muted="0" pos="36864" steps="16" name="lgtH1" type="1">
          <note key="74" vol="200" pos="0" pan="0" len="12"/>
          <note key="2" vol="200" pos="0" pan="0" len="24"/>
          <note key="71" vol="200" pos="12" pan="0" len="12"/>
          <note key="74" vol="200" pos="24" pan="0" len="12"/>
          <note key="71" vol="200" pos="36" pan="0" len="12"/>
          <note key="73" vol="200" pos="48" pan="0" len="12"/>
          <note key="71" vol="200" pos="60" pan="0" len="12"/>
          <note key="74" vol="200" pos="72" pan="0" len="12"/>
          <note key="71" vol="200" pos="84" pan="0" len="12"/>
          <note key="76" vol="200" pos="96" pan="0" len="12"/>
          <note key="71" vol="200" pos="108" pan="0" len="12"/>
          <note key="74" vol="200" pos="120" pan="0" len="12"/>
          <note key="71" vol="200" pos="132" pan="0" len="12"/>
          <note key="73" vol="200" pos="144" pan="0" len="12"/>
          <note key="71" vol="200" pos="156" pan="0" len="12"/>
          <note key="74" vol="200" pos="168" pan="0" len="12"/>
          <note key="71" vol="200" pos="180" pan="0" len="12"/>
        </pattern>
        <pattern muted="0" pos="37056" steps="16" name="lgtH1" type="1">
          <note key="74" vol="200" pos="0" pan="0" len="12"/>
          <note key="2" vol="200" pos="0" pan="0" len="24"/>
          <note key="71" vol="200" pos="12" pan="0" len="12"/>
          <note key="74" vol="200" pos="24" pan="0" len="12"/>
          <note key="71" vol="200" pos="36" pan="0" len="12"/>
          <note key="73" vol="200" pos="48" pan="0" len="12"/>
          <note key="71" vol="200" pos="60" pan="0" len="12"/>
          <note key="74" vol="200" pos="72" pan="0" len="12"/>
          <note key="71" vol="200" pos="84" pan="0" len="12"/>
          <note key="76" vol="200" pos="96" pan="0" len="12"/>
          <note key="71" vol="200" pos="108" pan="0" len="12"/>
          <note key="74" vol="200" pos="120" pan="0" len="12"/>
          <note key="71" vol="200" pos="132" pan="0" len="12"/>
          <note key="73" vol="200" pos="144" pan="0" len="12"/>
          <note key="71" vol="200" pos="156" pan="0" len="12"/>
          <note key="74" vol="200" pos="168" pan="0" len="12"/>
          <note key="71" vol="200" pos="180" pan="0" len="12"/>
        </pattern>
        <pattern muted="0" pos="37248" steps="16" name="lgtH1" type="1">
          <note key="74" vol="200" pos="0" pan="0" len="12"/>
          <note key="2" vol="200" pos="0" pan="0" len="24"/>
          <note key="71" vol="200" pos="12" pan="0" len="12"/>
          <note key="74" vol="200" pos="24" pan="0" len="12"/>
          <note key="71" vol="200" pos="36" pan="0" len="12"/>
          <note key="73" vol="200" pos="48" pan="0" len="12"/>
          <note key="71" vol="200" pos="60" pan="0" len="12"/>
          <note key="74" vol="200" pos="72" pan="0" len="12"/>
          <note key="71" vol="200" pos="84" pan="0" len="12"/>
          <note key="76" vol="200" pos="96" pan="0" len="12"/>
          <note key="71" vol="200" pos="108" pan="0" len="12"/>
          <note key="74" vol="200" pos="120" pan="0" len="12"/>
          <note key="71" vol="200" pos="132" pan="0" len="12"/>
          <note key="73" vol="200" pos="144" pan="0" len="12"/>
          <note key="71" vol="200" pos="156" pan="0" len="12"/>
          <note key="74" vol="200" pos="168" pan="0" len="12"/>
          <note key="71" vol="200" pos="180" pan="0" len="12"/>
        </pattern>
        <pattern muted="0" pos="37440" steps="16" name="lgtH1" type="1">
          <note key="74" vol="200" pos="0" pan="0" len="12"/>
          <note key="2" vol="200" pos="0" pan="0" len="24"/>
          <note key="71" vol="200" pos="12" pan="0" len="12"/>
          <note key="74" vol="200" pos="24" pan="0" len="12"/>
          <note key="71" vol="200" pos="36" pan="0" len="12"/>
          <note key="73" vol="200" pos="48" pan="0" len="12"/>
          <note key="71" vol="200" pos="60" pan="0" len="12"/>
          <note key="74" vol="200" pos="72" pan="0" len="12"/>
          <note key="71" vol="200" pos="84" pan="0" len="12"/>
          <note key="76" vol="200" pos="96" pan="0" len="12"/>
          <note key="71" vol="200" pos="108" pan="0" len="12"/>
          <note key="74" vol="200" pos="120" pan="0" len="12"/>
          <note key="71" vol="200" pos="132" pan="0" len="12"/>
          <note key="76" vol="200" pos="144" pan="0" len="24"/>
          <note key="0" vol="200" pos="144" pan="0" len="24"/>
          <note key="78" vol="200" pos="168" pan="0" len="24"/>
        </pattern>
        <pattern muted="0" pos="37632" steps="16" name="lgtH1" type="1">
          <note key="79" vol="200" pos="0" pan="0" len="48"/>
          <note key="78" vol="200" pos="48" pan="0" len="48"/>
          <note key="76" vol="200" pos="96" pan="0" len="48"/>
          <note key="74" vol="200" pos="144" pan="0" len="48"/>
          <note key="76" vol="200" pos="192" pan="0" len="24"/>
          <note key="74" vol="200" pos="216" pan="0" len="24"/>
          <note key="73" vol="200" pos="240" pan="0" len="24"/>
          <note key="74" vol="200" pos="264" pan="0" len="48"/>
          <note key="73" vol="200" pos="312" pan="0" len="12"/>
          <note key="74" vol="200" pos="324" pan="0" len="12"/>
          <note key="73" vol="200" pos="336" pan="0" len="24"/>
          <note key="74" vol="200" pos="360" pan="0" len="24"/>
        </pattern>
        <pattern muted="0" pos="38016" steps="16" name="lgtH1" type="1">
          <note key="78" vol="200" pos="0" pan="0" len="12"/>
          <note key="2" vol="200" pos="0" pan="0" len="12"/>
          <note key="79" vol="200" pos="12" pan="0" len="12"/>
          <note key="78" vol="200" pos="24" pan="0" len="12"/>
          <note key="79" vol="200" pos="36" pan="0" len="12"/>
          <note key="78" vol="200" pos="48" pan="0" len="24"/>
          <note key="0" vol="200" pos="60" pan="0" len="12"/>
          <note key="76" vol="200" pos="72" pan="0" len="24"/>
          <note key="2" vol="200" pos="84" pan="0" len="12"/>
          <note key="73" vol="200" pos="96" pan="0" len="12"/>
          <note key="74" vol="200" pos="108" pan="0" len="12"/>
          <note key="73" vol="200" pos="120" pan="0" len="12"/>
          <note key="74" vol="200" pos="132" pan="0" len="12"/>
          <note key="73" vol="200" pos="144" pan="0" len="24"/>
          <note key="0" vol="200" pos="156" pan="0" len="12"/>
          <note key="71" vol="200" pos="168" pan="0" len="24"/>
          <note key="69" vol="200" pos="192" pan="0" len="24"/>
        </pattern>
        <pattern muted="0" pos="43392" steps="16" name="lgtH1" type="1">
          <note key="59" vol="100" pos="0" pan="0" len="24"/>
          <note key="1" vol="100" pos="0" pan="0" len="24"/>
          <note key="59" vol="100" pos="24" pan="0" len="24"/>
          <note key="0" vol="100" pos="36" pan="0" len="24"/>
          <note key="62" vol="100" pos="48" pan="0" len="24"/>
          <note key="59" vol="100" pos="72" pan="0" len="24"/>
          <note key="1" vol="100" pos="72" pan="0" len="24"/>
          <note key="59" vol="100" pos="96" pan="0" len="24"/>
          <note key="0" vol="100" pos="108" pan="0" len="24"/>
          <note key="61" vol="100" pos="120" pan="0" len="24"/>
          <note key="1" vol="100" pos="132" pan="0" len="24"/>
          <note key="59" vol="100" pos="144" pan="0" len="24"/>
          <note key="59" vol="100" pos="168" pan="0" len="24"/>
          <note key="0" vol="100" pos="180" pan="0" len="24"/>
          <note key="64" vol="100" pos="192" pan="0" len="24"/>
          <note key="1" vol="100" pos="204" pan="0" len="24"/>
          <note key="59" vol="100" pos="216" pan="0" len="24"/>
          <note key="59" vol="100" pos="240" pan="0" len="24"/>
          <note key="0" vol="100" pos="252" pan="0" len="24"/>
          <note key="62" vol="100" pos="264" pan="0" len="24"/>
          <note key="1" vol="100" pos="276" pan="0" len="24"/>
          <note key="59" vol="100" pos="288" pan="0" len="24"/>
          <note key="59" vol="100" pos="312" pan="0" len="24"/>
          <note key="0" vol="100" pos="324" pan="0" len="24"/>
          <note key="61" vol="100" pos="336" pan="0" len="24"/>
          <note key="2" vol="100" pos="348" pan="0" len="24"/>
          <note key="62" vol="100" pos="360" pan="0" len="24"/>
        </pattern>
        <pattern muted="0" pos="43776" steps="16" name="lgtH1" type="1">
          <note key="59" vol="100" pos="0" pan="0" len="24"/>
          <note key="1" vol="100" pos="0" pan="0" len="24"/>
          <note key="59" vol="100" pos="24" pan="0" len="24"/>
          <note key="0" vol="100" pos="36" pan="0" len="24"/>
          <note key="62" vol="100" pos="48" pan="0" len="24"/>
          <note key="59" vol="100" pos="72" pan="0" len="24"/>
          <note key="1" vol="100" pos="72" pan="0" len="24"/>
          <note key="59" vol="100" pos="96" pan="0" len="24"/>
          <note key="0" vol="100" pos="108" pan="0" len="24"/>
          <note key="61" vol="100" pos="120" pan="0" len="24"/>
          <note key="1" vol="100" pos="132" pan="0" len="24"/>
          <note key="59" vol="100" pos="144" pan="0" len="24"/>
          <note key="59" vol="100" pos="168" pan="0" len="24"/>
          <note key="0" vol="100" pos="180" pan="0" len="24"/>
          <note key="64" vol="100" pos="192" pan="0" len="24"/>
          <note key="1" vol="100" pos="204" pan="0" len="24"/>
          <note key="59" vol="100" pos="216" pan="0" len="24"/>
          <note key="59" vol="100" pos="240" pan="0" len="24"/>
          <note key="0" vol="100" pos="252" pan="0" len="24"/>
          <note key="62" vol="100" pos="264" pan="0" len="24"/>
          <note key="1" vol="100" pos="276" pan="0" len="24"/>
          <note key="59" vol="100" pos="288" pan="0" len="24"/>
          <note key="59" vol="100" pos="312" pan="0" len="24"/>
          <note key="0" vol="100" pos="324" pan="0" len="24"/>
          <note key="61" vol="100" pos="336" pan="0" len="24"/>
          <note key="2" vol="100" pos="348" pan="0" len="24"/>
          <note key="62" vol="100" pos="360" pan="0" len="24"/>
        </pattern>
        <pattern muted="0" pos="44160" steps="16" name="lgtH1" type="1">
          <note key="59" vol="100" pos="0" pan="0" len="24"/>
          <note key="1" vol="100" pos="0" pan="0" len="24"/>
          <note key="59" vol="100" pos="24" pan="0" len="24"/>
          <note key="0" vol="100" pos="36" pan="0" len="24"/>
          <note key="62" vol="100" pos="48" pan="0" len="24"/>
          <note key="59" vol="100" pos="72" pan="0" len="24"/>
          <note key="1" vol="100" pos="72" pan="0" len="24"/>
          <note key="59" vol="100" pos="96" pan="0" len="24"/>
          <note key="0" vol="100" pos="108" pan="0" len="24"/>
          <note key="61" vol="100" pos="120" pan="0" len="24"/>
          <note key="1" vol="100" pos="132" pan="0" len="24"/>
          <note key="59" vol="100" pos="144" pan="0" len="24"/>
          <note key="59" vol="100" pos="168" pan="0" len="24"/>
          <note key="0" vol="100" pos="180" pan="0" len="24"/>
          <note key="64" vol="100" pos="192" pan="0" len="24"/>
          <note key="1" vol="100" pos="204" pan="0" len="24"/>
          <note key="59" vol="100" pos="216" pan="0" len="24"/>
          <note key="59" vol="100" pos="240" pan="0" len="24"/>
          <note key="0" vol="100" pos="252" pan="0" len="24"/>
          <note key="62" vol="100" pos="264" pan="0" len="24"/>
          <note key="1" vol="100" pos="276" pan="0" len="24"/>
          <note key="59" vol="100" pos="288" pan="0" len="24"/>
          <note key="59" vol="100" pos="312" pan="0" len="24"/>
          <note key="0" vol="100" pos="324" pan="0" len="24"/>
          <note key="61" vol="100" pos="336" pan="0" len="24"/>
          <note key="2" vol="100" pos="348" pan="0" len="24"/>
          <note key="62" vol="100" pos="360" pan="0" len="24"/>
        </pattern>
        <pattern muted="0" pos="44544" steps="16" name="lgtH1" type="1">
          <note key="59" vol="100" pos="0" pan="0" len="24"/>
          <note key="1" vol="100" pos="0" pan="0" len="24"/>
          <note key="59" vol="100" pos="24" pan="0" len="24"/>
          <note key="0" vol="100" pos="36" pan="0" len="24"/>
          <note key="62" vol="100" pos="48" pan="0" len="24"/>
          <note key="59" vol="100" pos="72" pan="0" len="24"/>
          <note key="1" vol="100" pos="72" pan="0" len="24"/>
          <note key="59" vol="100" pos="96" pan="0" len="24"/>
          <note key="0" vol="100" pos="108" pan="0" len="24"/>
          <note key="61" vol="100" pos="120" pan="0" len="24"/>
          <note key="1" vol="100" pos="132" pan="0" len="24"/>
          <note key="59" vol="100" pos="144" pan="0" len="24"/>
          <note key="59" vol="100" pos="168" pan="0" len="24"/>
          <note key="0" vol="100" pos="180" pan="0" len="24"/>
          <note key="64" vol="100" pos="192" pan="0" len="24"/>
          <note key="1" vol="100" pos="204" pan="0" len="24"/>
          <note key="59" vol="100" pos="216" pan="0" len="24"/>
          <note key="59" vol="100" pos="240" pan="0" len="24"/>
          <note key="0" vol="100" pos="252" pan="0" len="24"/>
          <note key="62" vol="100" pos="264" pan="0" len="24"/>
          <note key="1" vol="100" pos="276" pan="0" len="24"/>
          <note key="59" vol="100" pos="288" pan="0" len="24"/>
          <note key="59" vol="100" pos="312" pan="0" len="24"/>
          <note key="0" vol="100" pos="324" pan="0" len="24"/>
          <note key="61" vol="100" pos="336" pan="0" len="24"/>
          <note key="2" vol="100" pos="348" pan="0" len="24"/>
          <note key="62" vol="100" pos="360" pan="0" len="24"/>
        </pattern>
        <pattern muted="0" pos="44928" steps="16" name="lgtH1" type="1">
          <note key="59" vol="100" pos="0" pan="0" len="24"/>
          <note key="1" vol="100" pos="0" pan="0" len="24"/>
          <note key="59" vol="100" pos="24" pan="0" len="24"/>
          <note key="0" vol="100" pos="36" pan="0" len="24"/>
          <note key="62" vol="100" pos="48" pan="0" len="24"/>
          <note key="59" vol="100" pos="72" pan="0" len="24"/>
          <note key="1" vol="100" pos="72" pan="0" len="24"/>
          <note key="59" vol="100" pos="96" pan="0" len="24"/>
          <note key="0" vol="100" pos="108" pan="0" len="24"/>
          <note key="61" vol="100" pos="120" pan="0" len="24"/>
          <note key="1" vol="100" pos="132" pan="0" len="24"/>
          <note key="59" vol="100" pos="144" pan="0" len="24"/>
          <note key="59" vol="100" pos="168" pan="0" len="24"/>
          <note key="0" vol="100" pos="180" pan="0" len="24"/>
          <note key="64" vol="100" pos="192" pan="0" len="24"/>
          <note key="1" vol="100" pos="204" pan="0" len="24"/>
          <note key="59" vol="100" pos="216" pan="0" len="24"/>
          <note key="59" vol="100" pos="240" pan="0" len="24"/>
          <note key="0" vol="100" pos="252" pan="0" len="24"/>
          <note key="62" vol="100" pos="264" pan="0" len="24"/>
          <note key="1" vol="100" pos="276" pan="0" len="24"/>
          <note key="59" vol="100" pos="288" pan="0" len="24"/>
          <note key="59" vol="100" pos="312" pan="0" len="24"/>
          <note key="0" vol="100" pos="324" pan="0" len="24"/>
          <note key="61" vol="100" pos="336" pan="0" len="24"/>
          <note key="2" vol="100" pos="348" pan="0" len="24"/>
          <note key="62" vol="100" pos="360" pan="0" len="24"/>
        </pattern>
        <pattern muted="0" pos="45312" steps="16" name="lgtH1" type="1">
          <note key="59" vol="100" pos="0" pan="0" len="24"/>
          <note key="1" vol="100" pos="0" pan="0" len="24"/>
          <note key="59" vol="100" pos="24" pan="0" len="24"/>
          <note key="0" vol="100" pos="36" pan="0" len="24"/>
          <note key="62" vol="100" pos="48" pan="0" len="24"/>
          <note key="59" vol="100" pos="72" pan="0" len="24"/>
          <note key="1" vol="100" pos="72" pan="0" len="24"/>
          <note key="59" vol="100" pos="96" pan="0" len="24"/>
          <note key="0" vol="100" pos="108" pan="0" len="24"/>
          <note key="61" vol="100" pos="120" pan="0" len="24"/>
          <note key="1" vol="100" pos="132" pan="0" len="24"/>
          <note key="59" vol="100" pos="144" pan="0" len="24"/>
          <note key="59" vol="100" pos="168" pan="0" len="24"/>
          <note key="0" vol="100" pos="180" pan="0" len="24"/>
          <note key="64" vol="100" pos="192" pan="0" len="24"/>
          <note key="1" vol="100" pos="204" pan="0" len="24"/>
          <note key="59" vol="100" pos="216" pan="0" len="24"/>
          <note key="59" vol="100" pos="240" pan="0" len="24"/>
          <note key="0" vol="100" pos="252" pan="0" len="24"/>
          <note key="62" vol="100" pos="264" pan="0" len="24"/>
          <note key="1" vol="100" pos="276" pan="0" len="24"/>
          <note key="59" vol="100" pos="288" pan="0" len="24"/>
          <note key="59" vol="100" pos="312" pan="0" len="24"/>
          <note key="0" vol="100" pos="324" pan="0" len="24"/>
          <note key="61" vol="100" pos="336" pan="0" len="24"/>
          <note key="2" vol="100" pos="348" pan="0" len="24"/>
          <note key="62" vol="100" pos="360" pan="0" len="24"/>
        </pattern>
        <pattern muted="0" pos="45696" steps="16" name="lgtH1" type="1">
          <note key="59" vol="100" pos="0" pan="0" len="24"/>
          <note key="1" vol="100" pos="0" pan="0" len="24"/>
          <note key="59" vol="100" pos="24" pan="0" len="24"/>
          <note key="0" vol="100" pos="36" pan="0" len="24"/>
          <note key="62" vol="100" pos="48" pan="0" len="24"/>
          <note key="59" vol="100" pos="72" pan="0" len="24"/>
          <note key="1" vol="100" pos="72" pan="0" len="24"/>
          <note key="59" vol="100" pos="96" pan="0" len="24"/>
          <note key="0" vol="100" pos="108" pan="0" len="24"/>
          <note key="61" vol="100" pos="120" pan="0" len="24"/>
          <note key="1" vol="100" pos="132" pan="0" len="24"/>
          <note key="59" vol="100" pos="144" pan="0" len="24"/>
          <note key="59" vol="100" pos="168" pan="0" len="24"/>
          <note key="0" vol="100" pos="180" pan="0" len="24"/>
          <note key="64" vol="100" pos="192" pan="0" len="24"/>
          <note key="1" vol="100" pos="204" pan="0" len="24"/>
          <note key="59" vol="100" pos="216" pan="0" len="24"/>
          <note key="59" vol="100" pos="240" pan="0" len="24"/>
          <note key="0" vol="100" pos="252" pan="0" len="24"/>
          <note key="62" vol="100" pos="264" pan="0" len="24"/>
          <note key="1" vol="100" pos="276" pan="0" len="24"/>
          <note key="59" vol="100" pos="288" pan="0" len="24"/>
          <note key="59" vol="100" pos="312" pan="0" len="24"/>
          <note key="0" vol="100" pos="324" pan="0" len="24"/>
          <note key="61" vol="100" pos="336" pan="0" len="24"/>
          <note key="2" vol="100" pos="348" pan="0" len="24"/>
          <note key="62" vol="100" pos="360" pan="0" len="24"/>
        </pattern>
        <pattern muted="0" pos="46080" steps="16" name="lgtH1" type="1">
          <note key="59" vol="195" pos="0" pan="0" len="384"/>
          <note key="0" vol="195" pos="0" pan="0" len="384"/>
        </pattern>
        <pattern muted="0" pos="26880" steps="16" name="lgtH1" type="1">
          <note key="62" vol="100" pos="0" pan="0" len="72"/>
          <note key="62" vol="100" pos="72" pan="0" len="72"/>
          <note key="62" vol="100" pos="144" pan="0" len="48"/>
          <note key="64" vol="100" pos="192" pan="0" len="72"/>
          <note key="62" vol="100" pos="264" pan="0" len="72"/>
          <note key="64" vol="100" pos="336" pan="0" len="48"/>
          <note key="66" vol="100" pos="384" pan="0" len="144"/>
          <note key="64" vol="100" pos="528" pan="0" len="24"/>
          <note key="66" vol="100" pos="552" pan="0" len="24"/>
          <note key="67" vol="100" pos="576" pan="0" len="72"/>
          <note key="66" vol="100" pos="648" pan="0" len="72"/>
          <note key="67" vol="100" pos="720" pan="0" len="48"/>
        </pattern>
        <pattern muted="0" pos="16896" steps="16" name="lgtH1" type="1">
          <note key="62" vol="100" pos="0" pan="0" len="72"/>
          <note key="62" vol="100" pos="72" pan="0" len="72"/>
          <note key="62" vol="100" pos="144" pan="0" len="48"/>
          <note key="64" vol="100" pos="192" pan="0" len="72"/>
          <note key="62" vol="100" pos="264" pan="0" len="72"/>
          <note key="64" vol="100" pos="336" pan="0" len="48"/>
          <note key="66" vol="100" pos="384" pan="0" len="144"/>
          <note key="64" vol="100" pos="528" pan="0" len="24"/>
          <note key="66" vol="100" pos="552" pan="0" len="24"/>
          <note key="67" vol="100" pos="576" pan="0" len="72"/>
          <note key="66" vol="100" pos="648" pan="0" len="72"/>
          <note key="67" vol="100" pos="720" pan="0" len="48"/>
        </pattern>
        <pattern muted="0" pos="16128" steps="16" name="" type="1">
          <note key="0" vol="100" pos="0" pan="0" len="48"/>
          <note key="64" vol="100" pos="48" pan="0" len="48"/>
          <note key="64" vol="100" pos="96" pan="0" len="48"/>
          <note key="64" vol="100" pos="144" pan="0" len="48"/>
          <note key="64" vol="100" pos="192" pan="0" len="48"/>
          <note key="64" vol="100" pos="240" pan="0" len="24"/>
          <note key="66" vol="100" pos="264" pan="0" len="48"/>
          <note key="64" vol="100" pos="312" pan="0" len="24"/>
          <note key="62" vol="100" pos="336" pan="0" len="24"/>
          <note key="64" vol="100" pos="360" pan="0" len="24"/>
          <note key="66" vol="100" pos="384" pan="0" len="96"/>
          <note key="66" vol="100" pos="528" pan="0" len="24"/>
          <note key="67" vol="100" pos="552" pan="0" len="24"/>
          <note key="69" vol="100" pos="576" pan="0" len="72"/>
          <note key="67" vol="100" pos="648" pan="0" len="72"/>
          <note key="66" vol="100" pos="720" pan="0" len="48"/>
        </pattern>
        <pattern muted="0" pos="26112" steps="16" name="" type="1">
          <note key="64" vol="100" pos="48" pan="0" len="48"/>
          <note key="64" vol="100" pos="96" pan="0" len="48"/>
          <note key="64" vol="100" pos="144" pan="0" len="48"/>
          <note key="64" vol="100" pos="192" pan="0" len="48"/>
          <note key="64" vol="100" pos="240" pan="0" len="24"/>
          <note key="66" vol="100" pos="264" pan="0" len="48"/>
          <note key="64" vol="100" pos="312" pan="0" len="24"/>
          <note key="62" vol="100" pos="336" pan="0" len="24"/>
          <note key="64" vol="100" pos="360" pan="0" len="24"/>
          <note key="66" vol="100" pos="384" pan="0" len="96"/>
          <note key="66" vol="100" pos="528" pan="0" len="24"/>
          <note key="67" vol="100" pos="552" pan="0" len="24"/>
          <note key="69" vol="100" pos="576" pan="0" len="72"/>
          <note key="67" vol="100" pos="648" pan="0" len="72"/>
          <note key="66" vol="100" pos="720" pan="0" len="48"/>
        </pattern>
        <pattern muted="0" pos="12288" steps="16" name="lgtH1" type="1">
          <note key="66" vol="200" pos="0" pan="0" len="24"/>
          <note key="0" vol="200" pos="0" pan="0" len="24"/>
          <note key="2" vol="200" pos="12" pan="0" len="24"/>
          <note key="62" vol="200" pos="24" pan="0" len="24"/>
          <note key="0" vol="200" pos="36" pan="0" len="24"/>
          <note key="62" vol="200" pos="48" pan="0" len="24"/>
          <note key="64" vol="200" pos="72" pan="0" len="24"/>
          <note key="2" vol="200" pos="84" pan="0" len="24"/>
          <note key="62" vol="200" pos="96" pan="0" len="24"/>
          <note key="0" vol="200" pos="108" pan="0" len="24"/>
          <note key="62" vol="200" pos="120" pan="0" len="24"/>
          <note key="66" vol="200" pos="144" pan="0" len="24"/>
          <note key="2" vol="200" pos="156" pan="0" len="24"/>
          <note key="62" vol="200" pos="168" pan="0" len="24"/>
          <note key="0" vol="200" pos="180" pan="0" len="24"/>
          <note key="67" vol="200" pos="192" pan="0" len="24"/>
          <note key="2" vol="200" pos="204" pan="0" len="12"/>
          <note key="62" vol="200" pos="216" pan="0" len="24"/>
          <note key="0" vol="200" pos="228" pan="0" len="12"/>
          <note key="62" vol="200" pos="240" pan="0" len="24"/>
          <note key="66" vol="200" pos="264" pan="0" len="24"/>
          <note key="2" vol="200" pos="276" pan="0" len="12"/>
          <note key="62" vol="200" pos="288" pan="0" len="24"/>
          <note key="0" vol="200" pos="300" pan="0" len="12"/>
          <note key="62" vol="200" pos="312" pan="0" len="24"/>
          <note key="64" vol="200" pos="336" pan="0" len="24"/>
          <note key="2" vol="200" pos="348" pan="0" len="12"/>
          <note key="62" vol="200" pos="360" pan="0" len="24"/>
          <note key="0" vol="200" pos="372" pan="0" len="12"/>
        </pattern>
        <pattern muted="0" pos="12672" steps="16" name="" type="1">
          <note key="66" vol="200" pos="0" pan="0" len="24"/>
          <note key="0" vol="200" pos="0" pan="0" len="24"/>
          <note key="2" vol="200" pos="12" pan="0" len="24"/>
          <note key="62" vol="200" pos="24" pan="0" len="24"/>
          <note key="0" vol="200" pos="36" pan="0" len="24"/>
          <note key="62" vol="200" pos="48" pan="0" len="24"/>
          <note key="64" vol="200" pos="72" pan="0" len="24"/>
          <note key="2" vol="200" pos="84" pan="0" len="24"/>
          <note key="62" vol="200" pos="96" pan="0" len="24"/>
          <note key="0" vol="200" pos="108" pan="0" len="24"/>
          <note key="62" vol="200" pos="120" pan="0" len="24"/>
          <note key="66" vol="200" pos="144" pan="0" len="24"/>
          <note key="2" vol="200" pos="156" pan="0" len="24"/>
          <note key="62" vol="200" pos="168" pan="0" len="24"/>
          <note key="0" vol="200" pos="180" pan="0" len="24"/>
          <note key="67" vol="200" pos="192" pan="0" len="24"/>
          <note key="2" vol="200" pos="204" pan="0" len="12"/>
          <note key="62" vol="200" pos="216" pan="0" len="24"/>
          <note key="0" vol="200" pos="228" pan="0" len="12"/>
          <note key="62" vol="200" pos="240" pan="0" len="24"/>
          <note key="66" vol="200" pos="264" pan="0" len="24"/>
          <note key="2" vol="200" pos="276" pan="0" len="12"/>
          <note key="62" vol="200" pos="288" pan="0" len="24"/>
          <note key="0" vol="200" pos="300" pan="0" len="12"/>
          <note key="62" vol="200" pos="312" pan="0" len="24"/>
          <note key="64" vol="200" pos="336" pan="0" len="24"/>
          <note key="2" vol="200" pos="348" pan="0" len="12"/>
          <note key="62" vol="200" pos="360" pan="0" len="24"/>
          <note key="0" vol="200" pos="372" pan="0" len="12"/>
        </pattern>
        <pattern muted="0" pos="13056" steps="16" name="" type="1">
          <note key="66" vol="200" pos="0" pan="0" len="24"/>
          <note key="0" vol="200" pos="0" pan="0" len="24"/>
          <note key="2" vol="200" pos="12" pan="0" len="24"/>
          <note key="62" vol="200" pos="24" pan="0" len="24"/>
          <note key="0" vol="200" pos="36" pan="0" len="24"/>
          <note key="62" vol="200" pos="48" pan="0" len="24"/>
          <note key="64" vol="200" pos="72" pan="0" len="24"/>
          <note key="2" vol="200" pos="84" pan="0" len="24"/>
          <note key="62" vol="200" pos="96" pan="0" len="24"/>
          <note key="0" vol="200" pos="108" pan="0" len="24"/>
          <note key="62" vol="200" pos="120" pan="0" len="24"/>
          <note key="66" vol="200" pos="144" pan="0" len="24"/>
          <note key="2" vol="200" pos="156" pan="0" len="24"/>
          <note key="62" vol="200" pos="168" pan="0" len="24"/>
          <note key="0" vol="200" pos="180" pan="0" len="24"/>
          <note key="67" vol="200" pos="192" pan="0" len="24"/>
          <note key="2" vol="200" pos="204" pan="0" len="12"/>
          <note key="62" vol="200" pos="216" pan="0" len="24"/>
          <note key="0" vol="200" pos="228" pan="0" len="12"/>
          <note key="62" vol="200" pos="240" pan="0" len="24"/>
          <note key="66" vol="200" pos="264" pan="0" len="24"/>
          <note key="2" vol="200" pos="276" pan="0" len="12"/>
          <note key="62" vol="200" pos="288" pan="0" len="24"/>
          <note key="0" vol="200" pos="300" pan="0" len="12"/>
          <note key="62" vol="200" pos="312" pan="0" len="24"/>
          <note key="64" vol="200" pos="336" pan="0" len="24"/>
          <note key="2" vol="200" pos="348" pan="0" len="12"/>
          <note key="62" vol="200" pos="360" pan="0" len="24"/>
          <note key="0" vol="200" pos="372" pan="0" len="12"/>
        </pattern>
        <pattern muted="0" pos="13440" steps="16" name="" type="1">
          <note key="66" vol="200" pos="0" pan="0" len="24"/>
          <note key="0" vol="200" pos="0" pan="0" len="24"/>
          <note key="2" vol="200" pos="12" pan="0" len="24"/>
          <note key="62" vol="200" pos="24" pan="0" len="24"/>
          <note key="0" vol="200" pos="36" pan="0" len="24"/>
          <note key="62" vol="200" pos="48" pan="0" len="24"/>
          <note key="64" vol="200" pos="72" pan="0" len="24"/>
          <note key="2" vol="200" pos="84" pan="0" len="24"/>
          <note key="62" vol="200" pos="96" pan="0" len="24"/>
          <note key="0" vol="200" pos="108" pan="0" len="24"/>
          <note key="62" vol="200" pos="120" pan="0" len="24"/>
          <note key="66" vol="200" pos="144" pan="0" len="24"/>
          <note key="2" vol="200" pos="156" pan="0" len="24"/>
          <note key="62" vol="200" pos="168" pan="0" len="24"/>
          <note key="0" vol="200" pos="180" pan="0" len="24"/>
          <note key="67" vol="200" pos="192" pan="0" len="72"/>
          <note key="66" vol="200" pos="264" pan="0" len="72"/>
          <note key="64" vol="200" pos="336" pan="0" len="48"/>
        </pattern>
        <pattern muted="0" pos="13824" steps="16" name="" type="1">
          <note key="66" vol="200" pos="0" pan="0" len="24"/>
          <note key="0" vol="200" pos="0" pan="0" len="24"/>
          <note key="2" vol="200" pos="12" pan="0" len="24"/>
          <note key="62" vol="200" pos="24" pan="0" len="24"/>
          <note key="0" vol="200" pos="36" pan="0" len="24"/>
          <note key="62" vol="200" pos="48" pan="0" len="24"/>
          <note key="64" vol="200" pos="72" pan="0" len="24"/>
          <note key="2" vol="200" pos="84" pan="0" len="24"/>
          <note key="62" vol="200" pos="96" pan="0" len="24"/>
          <note key="0" vol="200" pos="108" pan="0" len="24"/>
          <note key="62" vol="200" pos="120" pan="0" len="24"/>
          <note key="66" vol="200" pos="144" pan="0" len="24"/>
          <note key="2" vol="200" pos="156" pan="0" len="24"/>
          <note key="62" vol="200" pos="168" pan="0" len="24"/>
          <note key="0" vol="200" pos="180" pan="0" len="24"/>
          <note key="67" vol="200" pos="192" pan="0" len="24"/>
          <note key="2" vol="200" pos="204" pan="0" len="12"/>
          <note key="62" vol="200" pos="216" pan="0" len="24"/>
          <note key="0" vol="200" pos="228" pan="0" len="12"/>
          <note key="62" vol="200" pos="240" pan="0" len="24"/>
          <note key="66" vol="200" pos="264" pan="0" len="24"/>
          <note key="2" vol="200" pos="276" pan="0" len="12"/>
          <note key="62" vol="200" pos="288" pan="0" len="24"/>
          <note key="0" vol="200" pos="300" pan="0" len="12"/>
          <note key="62" vol="200" pos="312" pan="0" len="24"/>
          <note key="64" vol="200" pos="336" pan="0" len="24"/>
          <note key="2" vol="200" pos="348" pan="0" len="12"/>
          <note key="62" vol="200" pos="360" pan="0" len="24"/>
          <note key="0" vol="200" pos="372" pan="0" len="12"/>
        </pattern>
        <pattern muted="0" pos="14208" steps="16" name="" type="1">
          <note key="66" vol="200" pos="0" pan="0" len="24"/>
          <note key="0" vol="200" pos="0" pan="0" len="24"/>
          <note key="2" vol="200" pos="12" pan="0" len="24"/>
          <note key="62" vol="200" pos="24" pan="0" len="24"/>
          <note key="0" vol="200" pos="36" pan="0" len="24"/>
          <note key="62" vol="200" pos="48" pan="0" len="24"/>
          <note key="64" vol="200" pos="72" pan="0" len="24"/>
          <note key="2" vol="200" pos="84" pan="0" len="24"/>
          <note key="62" vol="200" pos="96" pan="0" len="24"/>
          <note key="0" vol="200" pos="108" pan="0" len="24"/>
          <note key="62" vol="200" pos="120" pan="0" len="24"/>
          <note key="66" vol="200" pos="144" pan="0" len="24"/>
          <note key="2" vol="200" pos="156" pan="0" len="24"/>
          <note key="62" vol="200" pos="168" pan="0" len="24"/>
          <note key="0" vol="200" pos="180" pan="0" len="24"/>
          <note key="67" vol="200" pos="192" pan="0" len="24"/>
          <note key="2" vol="200" pos="204" pan="0" len="12"/>
          <note key="62" vol="200" pos="216" pan="0" len="24"/>
          <note key="0" vol="200" pos="228" pan="0" len="12"/>
          <note key="62" vol="200" pos="240" pan="0" len="24"/>
          <note key="66" vol="200" pos="264" pan="0" len="24"/>
          <note key="2" vol="200" pos="276" pan="0" len="12"/>
          <note key="62" vol="200" pos="288" pan="0" len="24"/>
          <note key="0" vol="200" pos="300" pan="0" len="12"/>
          <note key="62" vol="200" pos="312" pan="0" len="24"/>
          <note key="64" vol="200" pos="336" pan="0" len="24"/>
          <note key="2" vol="200" pos="348" pan="0" len="12"/>
          <note key="62" vol="200" pos="360" pan="0" len="24"/>
          <note key="0" vol="200" pos="372" pan="0" len="12"/>
        </pattern>
        <pattern muted="0" pos="14592" steps="16" name="" type="1">
          <note key="66" vol="200" pos="0" pan="0" len="24"/>
          <note key="0" vol="200" pos="0" pan="0" len="24"/>
          <note key="2" vol="200" pos="12" pan="0" len="24"/>
          <note key="62" vol="200" pos="24" pan="0" len="24"/>
          <note key="0" vol="200" pos="36" pan="0" len="24"/>
          <note key="62" vol="200" pos="48" pan="0" len="24"/>
          <note key="64" vol="200" pos="72" pan="0" len="24"/>
          <note key="2" vol="200" pos="84" pan="0" len="24"/>
          <note key="62" vol="200" pos="96" pan="0" len="24"/>
          <note key="0" vol="200" pos="108" pan="0" len="24"/>
          <note key="62" vol="200" pos="120" pan="0" len="24"/>
          <note key="66" vol="200" pos="144" pan="0" len="24"/>
          <note key="2" vol="200" pos="156" pan="0" len="24"/>
          <note key="62" vol="200" pos="168" pan="0" len="24"/>
          <note key="0" vol="200" pos="180" pan="0" len="24"/>
          <note key="67" vol="200" pos="192" pan="0" len="24"/>
          <note key="2" vol="200" pos="204" pan="0" len="12"/>
          <note key="62" vol="200" pos="216" pan="0" len="24"/>
          <note key="0" vol="200" pos="228" pan="0" len="12"/>
          <note key="62" vol="200" pos="240" pan="0" len="24"/>
          <note key="66" vol="200" pos="264" pan="0" len="24"/>
          <note key="2" vol="200" pos="276" pan="0" len="12"/>
          <note key="62" vol="200" pos="288" pan="0" len="24"/>
          <note key="0" vol="200" pos="300" pan="0" len="12"/>
          <note key="62" vol="200" pos="312" pan="0" len="24"/>
          <note key="64" vol="200" pos="336" pan="0" len="24"/>
          <note key="2" vol="200" pos="348" pan="0" len="12"/>
          <note key="62" vol="200" pos="360" pan="0" len="24"/>
          <note key="0" vol="200" pos="372" pan="0" len="12"/>
        </pattern>
        <pattern muted="0" pos="14976" steps="16" name="" type="1">
          <note key="66" vol="200" pos="0" pan="0" len="24"/>
          <note key="0" vol="200" pos="0" pan="0" len="24"/>
          <note key="2" vol="200" pos="12" pan="0" len="24"/>
          <note key="62" vol="200" pos="24" pan="0" len="24"/>
          <note key="0" vol="200" pos="36" pan="0" len="24"/>
          <note key="62" vol="200" pos="48" pan="0" len="24"/>
          <note key="64" vol="200" pos="72" pan="0" len="24"/>
          <note key="2" vol="200" pos="84" pan="0" len="24"/>
          <note key="62" vol="200" pos="96" pan="0" len="24"/>
          <note key="0" vol="200" pos="108" pan="0" len="24"/>
          <note key="62" vol="200" pos="120" pan="0" len="24"/>
          <note key="66" vol="200" pos="144" pan="0" len="24"/>
          <note key="2" vol="200" pos="156" pan="0" len="24"/>
          <note key="62" vol="200" pos="168" pan="0" len="24"/>
          <note key="0" vol="200" pos="180" pan="0" len="24"/>
          <note key="64" vol="200" pos="192" pan="0" len="72"/>
          <note key="66" vol="200" pos="264" pan="0" len="72"/>
          <note key="64" vol="200" pos="336" pan="0" len="48"/>
        </pattern>
        <pattern muted="0" pos="15360" steps="16" name="" type="1">
          <note key="66" vol="100" pos="0" pan="0" len="72"/>
          <note key="0" vol="100" pos="0" pan="0" len="48"/>
          <note key="64" vol="100" pos="72" pan="0" len="72"/>
          <note key="66" vol="100" pos="144" pan="0" len="48"/>
          <note key="66" vol="100" pos="192" pan="0" len="72"/>
          <note key="64" vol="100" pos="264" pan="0" len="72"/>
          <note key="66" vol="100" pos="336" pan="0" len="48"/>
          <note key="67" vol="100" pos="384" pan="0" len="72"/>
          <note key="66" vol="100" pos="456" pan="0" len="72"/>
          <note key="64" vol="100" pos="528" pan="0" len="48"/>
          <note key="66" vol="100" pos="576" pan="0" len="72"/>
          <note key="64" vol="100" pos="648" pan="0" len="72"/>
          <note key="62" vol="100" pos="720" pan="0" len="48"/>
        </pattern>
        <pattern muted="0" pos="17664" steps="16" name="" type="1">
          <note key="69" vol="100" pos="0" pan="0" len="72"/>
          <note key="67" vol="100" pos="72" pan="0" len="72"/>
          <note key="66" vol="100" pos="144" pan="0" len="48"/>
          <note key="69" vol="100" pos="192" pan="0" len="72"/>
          <note key="67" vol="100" pos="264" pan="0" len="72"/>
          <note key="66" vol="100" pos="336" pan="0" len="48"/>
          <note key="66" vol="100" pos="384" pan="0" len="24"/>
          <note key="64" vol="100" pos="408" pan="0" len="168"/>
        </pattern>
        <pattern muted="0" pos="22272" steps="16" name="" type="1">
          <note key="66" vol="200" pos="0" pan="0" len="24"/>
          <note key="0" vol="200" pos="0" pan="0" len="24"/>
          <note key="2" vol="200" pos="12" pan="0" len="24"/>
          <note key="62" vol="200" pos="24" pan="0" len="24"/>
          <note key="0" vol="200" pos="36" pan="0" len="24"/>
          <note key="62" vol="200" pos="48" pan="0" len="24"/>
          <note key="64" vol="200" pos="72" pan="0" len="24"/>
          <note key="2" vol="200" pos="84" pan="0" len="24"/>
          <note key="62" vol="200" pos="96" pan="0" len="24"/>
          <note key="0" vol="200" pos="108" pan="0" len="24"/>
          <note key="62" vol="200" pos="120" pan="0" len="24"/>
          <note key="66" vol="200" pos="144" pan="0" len="24"/>
          <note key="2" vol="200" pos="156" pan="0" len="24"/>
          <note key="62" vol="200" pos="168" pan="0" len="24"/>
          <note key="0" vol="200" pos="180" pan="0" len="24"/>
          <note key="67" vol="200" pos="192" pan="0" len="24"/>
          <note key="2" vol="200" pos="204" pan="0" len="12"/>
          <note key="62" vol="200" pos="216" pan="0" len="24"/>
          <note key="0" vol="200" pos="228" pan="0" len="12"/>
          <note key="62" vol="200" pos="240" pan="0" len="24"/>
          <note key="66" vol="200" pos="264" pan="0" len="24"/>
          <note key="2" vol="200" pos="276" pan="0" len="12"/>
          <note key="62" vol="200" pos="288" pan="0" len="24"/>
          <note key="0" vol="200" pos="300" pan="0" len="12"/>
          <note key="62" vol="200" pos="312" pan="0" len="24"/>
          <note key="64" vol="200" pos="336" pan="0" len="24"/>
          <note key="2" vol="200" pos="348" pan="0" len="12"/>
          <note key="62" vol="200" pos="360" pan="0" len="24"/>
          <note key="0" vol="200" pos="372" pan="0" len="12"/>
        </pattern>
        <pattern muted="0" pos="22656" steps="16" name="" type="1">
          <note key="66" vol="200" pos="0" pan="0" len="24"/>
          <note key="0" vol="200" pos="0" pan="0" len="24"/>
          <note key="2" vol="200" pos="12" pan="0" len="24"/>
          <note key="62" vol="200" pos="24" pan="0" len="24"/>
          <note key="0" vol="200" pos="36" pan="0" len="24"/>
          <note key="62" vol="200" pos="48" pan="0" len="24"/>
          <note key="64" vol="200" pos="72" pan="0" len="24"/>
          <note key="2" vol="200" pos="84" pan="0" len="24"/>
          <note key="62" vol="200" pos="96" pan="0" len="24"/>
          <note key="0" vol="200" pos="108" pan="0" len="24"/>
          <note key="62" vol="200" pos="120" pan="0" len="24"/>
          <note key="66" vol="200" pos="144" pan="0" len="24"/>
          <note key="2" vol="200" pos="156" pan="0" len="24"/>
          <note key="62" vol="200" pos="168" pan="0" len="24"/>
          <note key="0" vol="200" pos="180" pan="0" len="24"/>
          <note key="67" vol="200" pos="192" pan="0" len="24"/>
          <note key="2" vol="200" pos="204" pan="0" len="12"/>
          <note key="62" vol="200" pos="216" pan="0" len="24"/>
          <note key="0" vol="200" pos="228" pan="0" len="12"/>
          <note key="62" vol="200" pos="240" pan="0" len="24"/>
          <note key="66" vol="200" pos="264" pan="0" len="24"/>
          <note key="2" vol="200" pos="276" pan="0" len="12"/>
          <note key="62" vol="200" pos="288" pan="0" len="24"/>
          <note key="0" vol="200" pos="300" pan="0" len="12"/>
          <note key="62" vol="200" pos="312" pan="0" len="24"/>
          <note key="64" vol="200" pos="336" pan="0" len="24"/>
          <note key="2" vol="200" pos="348" pan="0" len="12"/>
          <note key="62" vol="200" pos="360" pan="0" len="24"/>
          <note key="0" vol="200" pos="372" pan="0" len="12"/>
        </pattern>
        <pattern muted="0" pos="23040" steps="16" name="" type="1">
          <note key="66" vol="200" pos="0" pan="0" len="24"/>
          <note key="0" vol="200" pos="0" pan="0" len="24"/>
          <note key="2" vol="200" pos="12" pan="0" len="24"/>
          <note key="62" vol="200" pos="24" pan="0" len="24"/>
          <note key="0" vol="200" pos="36" pan="0" len="24"/>
          <note key="62" vol="200" pos="48" pan="0" len="24"/>
          <note key="64" vol="200" pos="72" pan="0" len="24"/>
          <note key="2" vol="200" pos="84" pan="0" len="24"/>
          <note key="62" vol="200" pos="96" pan="0" len="24"/>
          <note key="0" vol="200" pos="108" pan="0" len="24"/>
          <note key="62" vol="200" pos="120" pan="0" len="24"/>
          <note key="66" vol="200" pos="144" pan="0" len="24"/>
          <note key="2" vol="200" pos="156" pan="0" len="24"/>
          <note key="62" vol="200" pos="168" pan="0" len="24"/>
          <note key="0" vol="200" pos="180" pan="0" len="24"/>
          <note key="67" vol="200" pos="192" pan="0" len="24"/>
          <note key="2" vol="200" pos="204" pan="0" len="12"/>
          <note key="62" vol="200" pos="216" pan="0" len="24"/>
          <note key="0" vol="200" pos="228" pan="0" len="12"/>
          <note key="62" vol="200" pos="240" pan="0" len="24"/>
          <note key="66" vol="200" pos="264" pan="0" len="24"/>
          <note key="2" vol="200" pos="276" pan="0" len="12"/>
          <note key="62" vol="200" pos="288" pan="0" len="24"/>
          <note key="0" vol="200" pos="300" pan="0" len="12"/>
          <note key="62" vol="200" pos="312" pan="0" len="24"/>
          <note key="64" vol="200" pos="336" pan="0" len="24"/>
          <note key="2" vol="200" pos="348" pan="0" len="12"/>
          <note key="62" vol="200" pos="360" pan="0" len="24"/>
          <note key="0" vol="200" pos="372" pan="0" len="12"/>
        </pattern>
        <pattern muted="0" pos="23424" steps="16" name="" type="1">
          <note key="66" vol="200" pos="0" pan="0" len="24"/>
          <note key="0" vol="200" pos="0" pan="0" len="24"/>
          <note key="2" vol="200" pos="12" pan="0" len="24"/>
          <note key="62" vol="200" pos="24" pan="0" len="24"/>
          <note key="0" vol="200" pos="36" pan="0" len="24"/>
          <note key="62" vol="200" pos="48" pan="0" len="24"/>
          <note key="64" vol="200" pos="72" pan="0" len="24"/>
          <note key="2" vol="200" pos="84" pan="0" len="24"/>
          <note key="62" vol="200" pos="96" pan="0" len="24"/>
          <note key="0" vol="200" pos="108" pan="0" len="24"/>
          <note key="62" vol="200" pos="120" pan="0" len="24"/>
          <note key="66" vol="200" pos="144" pan="0" len="24"/>
          <note key="2" vol="200" pos="156" pan="0" len="24"/>
          <note key="62" vol="200" pos="168" pan="0" len="24"/>
          <note key="0" vol="200" pos="180" pan="0" len="24"/>
          <note key="67" vol="200" pos="192" pan="0" len="72"/>
          <note key="66" vol="200" pos="264" pan="0" len="72"/>
          <note key="64" vol="200" pos="336" pan="0" len="48"/>
        </pattern>
        <pattern muted="0" pos="23808" steps="16" name="" type="1">
          <note key="66" vol="200" pos="0" pan="0" len="24"/>
          <note key="0" vol="200" pos="0" pan="0" len="24"/>
          <note key="2" vol="200" pos="12" pan="0" len="24"/>
          <note key="62" vol="200" pos="24" pan="0" len="24"/>
          <note key="0" vol="200" pos="36" pan="0" len="24"/>
          <note key="62" vol="200" pos="48" pan="0" len="24"/>
          <note key="64" vol="200" pos="72" pan="0" len="24"/>
          <note key="2" vol="200" pos="84" pan="0" len="24"/>
          <note key="62" vol="200" pos="96" pan="0" len="24"/>
          <note key="0" vol="200" pos="108" pan="0" len="24"/>
          <note key="62" vol="200" pos="120" pan="0" len="24"/>
          <note key="66" vol="200" pos="144" pan="0" len="24"/>
          <note key="2" vol="200" pos="156" pan="0" len="24"/>
          <note key="62" vol="200" pos="168" pan="0" len="24"/>
          <note key="0" vol="200" pos="180" pan="0" len="24"/>
          <note key="67" vol="200" pos="192" pan="0" len="24"/>
          <note key="2" vol="200" pos="204" pan="0" len="12"/>
          <note key="62" vol="200" pos="216" pan="0" len="24"/>
          <note key="0" vol="200" pos="228" pan="0" len="12"/>
          <note key="62" vol="200" pos="240" pan="0" len="24"/>
          <note key="66" vol="200" pos="264" pan="0" len="24"/>
          <note key="2" vol="200" pos="276" pan="0" len="12"/>
          <note key="62" vol="200" pos="288" pan="0" len="24"/>
          <note key="0" vol="200" pos="300" pan="0" len="12"/>
          <note key="62" vol="200" pos="312" pan="0" len="24"/>
          <note key="64" vol="200" pos="336" pan="0" len="24"/>
          <note key="2" vol="200" pos="348" pan="0" len="12"/>
          <note key="62" vol="200" pos="360" pan="0" len="24"/>
          <note key="0" vol="200" pos="372" pan="0" len="12"/>
        </pattern>
        <pattern muted="0" pos="24192" steps="16" name="" type="1">
          <note key="66" vol="200" pos="0" pan="0" len="24"/>
          <note key="0" vol="200" pos="0" pan="0" len="24"/>
          <note key="2" vol="200" pos="12" pan="0" len="24"/>
          <note key="62" vol="200" pos="24" pan="0" len="24"/>
          <note key="0" vol="200" pos="36" pan="0" len="24"/>
          <note key="62" vol="200" pos="48" pan="0" len="24"/>
          <note key="64" vol="200" pos="72" pan="0" len="24"/>
          <note key="2" vol="200" pos="84" pan="0" len="24"/>
          <note key="62" vol="200" pos="96" pan="0" len="24"/>
          <note key="0" vol="200" pos="108" pan="0" len="24"/>
          <note key="62" vol="200" pos="120" pan="0" len="24"/>
          <note key="66" vol="200" pos="144" pan="0" len="24"/>
          <note key="2" vol="200" pos="156" pan="0" len="24"/>
          <note key="62" vol="200" pos="168" pan="0" len="24"/>
          <note key="0" vol="200" pos="180" pan="0" len="24"/>
          <note key="67" vol="200" pos="192" pan="0" len="24"/>
          <note key="2" vol="200" pos="204" pan="0" len="12"/>
          <note key="62" vol="200" pos="216" pan="0" len="24"/>
          <note key="0" vol="200" pos="228" pan="0" len="12"/>
          <note key="62" vol="200" pos="240" pan="0" len="24"/>
          <note key="66" vol="200" pos="264" pan="0" len="24"/>
          <note key="2" vol="200" pos="276" pan="0" len="12"/>
          <note key="62" vol="200" pos="288" pan="0" len="24"/>
          <note key="0" vol="200" pos="300" pan="0" len="12"/>
          <note key="62" vol="200" pos="312" pan="0" len="24"/>
          <note key="64" vol="200" pos="336" pan="0" len="24"/>
          <note key="2" vol="200" pos="348" pan="0" len="12"/>
          <note key="62" vol="200" pos="360" pan="0" len="24"/>
          <note key="0" vol="200" pos="372" pan="0" len="12"/>
        </pattern>
        <pattern muted="0" pos="24576" steps="16" name="" type="1">
          <note key="66" vol="200" pos="0" pan="0" len="24"/>
          <note key="0" vol="200" pos="0" pan="0" len="24"/>
          <note key="2" vol="200" pos="12" pan="0" len="24"/>
          <note key="62" vol="200" pos="24" pan="0" len="24"/>
          <note key="0" vol="200" pos="36" pan="0" len="24"/>
          <note key="62" vol="200" pos="48" pan="0" len="24"/>
          <note key="64" vol="200" pos="72" pan="0" len="24"/>
          <note key="2" vol="200" pos="84" pan="0" len="24"/>
          <note key="62" vol="200" pos="96" pan="0" len="24"/>
          <note key="0" vol="200" pos="108" pan="0" len="24"/>
          <note key="62" vol="200" pos="120" pan="0" len="24"/>
          <note key="66" vol="200" pos="144" pan="0" len="24"/>
          <note key="2" vol="200" pos="156" pan="0" len="24"/>
          <note key="62" vol="200" pos="168" pan="0" len="24"/>
          <note key="0" vol="200" pos="180" pan="0" len="24"/>
          <note key="67" vol="200" pos="192" pan="0" len="24"/>
          <note key="2" vol="200" pos="204" pan="0" len="12"/>
          <note key="62" vol="200" pos="216" pan="0" len="24"/>
          <note key="0" vol="200" pos="228" pan="0" len="12"/>
          <note key="62" vol="200" pos="240" pan="0" len="24"/>
          <note key="66" vol="200" pos="264" pan="0" len="24"/>
          <note key="2" vol="200" pos="276" pan="0" len="12"/>
          <note key="62" vol="200" pos="288" pan="0" len="24"/>
          <note key="0" vol="200" pos="300" pan="0" len="12"/>
          <note key="62" vol="200" pos="312" pan="0" len="24"/>
          <note key="64" vol="200" pos="336" pan="0" len="24"/>
          <note key="2" vol="200" pos="348" pan="0" len="12"/>
          <note key="62" vol="200" pos="360" pan="0" len="24"/>
          <note key="0" vol="200" pos="372" pan="0" len="12"/>
        </pattern>
        <pattern muted="0" pos="24960" steps="16" name="" type="1">
          <note key="66" vol="200" pos="0" pan="0" len="24"/>
          <note key="0" vol="200" pos="0" pan="0" len="24"/>
          <note key="2" vol="200" pos="12" pan="0" len="24"/>
          <note key="62" vol="200" pos="24" pan="0" len="24"/>
          <note key="0" vol="200" pos="36" pan="0" len="24"/>
          <note key="62" vol="200" pos="48" pan="0" len="24"/>
          <note key="64" vol="200" pos="72" pan="0" len="24"/>
          <note key="2" vol="200" pos="84" pan="0" len="24"/>
          <note key="62" vol="200" pos="96" pan="0" len="24"/>
          <note key="0" vol="200" pos="108" pan="0" len="24"/>
          <note key="62" vol="200" pos="120" pan="0" len="24"/>
          <note key="66" vol="200" pos="144" pan="0" len="24"/>
          <note key="2" vol="200" pos="156" pan="0" len="24"/>
          <note key="62" vol="200" pos="168" pan="0" len="24"/>
          <note key="0" vol="200" pos="180" pan="0" len="24"/>
          <note key="64" vol="200" pos="192" pan="0" len="72"/>
          <note key="66" vol="200" pos="264" pan="0" len="72"/>
          <note key="64" vol="200" pos="336" pan="0" len="48"/>
        </pattern>
        <pattern muted="0" pos="5952" steps="16" name="lgtH1" type="0"/>
        <pattern muted="0" pos="46656" steps="16" name="lgtH1" type="0"/>
      </track>
      <track muted="1" solo="0" name="lgtH2" type="0">
        <instrumenttrack fxch="12" usemasterpitch="1" vol="200" pitch="0" pitchrange="1" pan="100" basenote="57">
          <instrument name="carlapatchbay">
            <carlapatchbay>
              <CARLA-PROJECT VERSION="2.2">
                <EngineSettings>
                  <ForceStereo>false</ForceStereo>
                  <PreferPluginBridges>false</PreferPluginBridges>
                  <PreferUiBridges>true</PreferUiBridges>
                  <UIsAlwaysOnTop>false</UIsAlwaysOnTop>
                  <MaxParameters>200</MaxParameters>
                  <UIBridgesTimeout>4000</UIBridgesTimeout>
                  <LADSPA_PATH>/home/pass/.ladspa:/usr/lib/ladspa:/usr/local/lib/ladspa</LADSPA_PATH>
                  <DSSI_PATH>/home/pass/.dssi:/usr/lib/dssi:/usr/local/lib/dssi</DSSI_PATH>
                  <LV2_PATH>/home/pass/.lv2:/usr/lib/lv2:/usr/local/lib/lv2</LV2_PATH>
                  <VST2_PATH>/home/pass/.vst:/home/pass/.wine/drive_c/Program Files (x86)/VstPlugins:/home/pass/.wine/drive_c/Program Files/VstPlugins:/usr/lib/lxvst:/usr/lib/vst:/usr/local/lib/lxvst:/usr/local/lib/vst/home/pass/.lxvst:/home/pass/vst</VST2_PATH>
                  <VST3_PATH>/home/pass/.vst3:/home/pass/.wine/drive_c/Program Files (x86)/Common Files/VST3:/home/pass/.wine/drive_c/Program Files/Common Files/VST3:/usr/lib/vst3:/usr/local/lib/vst3</VST3_PATH>
                  <SF2_PATH>/home/pass/.sounds/sf2/home/pass/.sounds/sf3:/usr/share/soundfonts:/usr/share/sounds/sf2:/usr/share/sounds/sf3</SF2_PATH>
                  <SFZ_PATH>/home/pass/.sounds/sfz:/home/pass/samples:/usr/share/sounds/sfz</SFZ_PATH>
                </EngineSettings>
                <!-- sfizz -->
                <Plugin>
                  <Info>
                    <Type>LV2</Type>
                    <Name>sfizz</Name>
                    <URI>http://sfztools.github.io/sfizz</URI>
                  </Info>
                  <Data>
                    <Active>Yes</Active>
                    <ControlChannel>1</ControlChannel>
                    <Options>0x3f0</Options>
                    <Parameter>
                      <Index>0</Index>
                      <Name>Volume</Name>
                      <Symbol>volume</Symbol>
                      <Value>0</Value>
                    </Parameter>
                    <Parameter>
                      <Index>1</Index>
                      <Name>Polyphony</Name>
                      <Symbol>num_voices</Symbol>
                      <Value>64</Value>
                    </Parameter>
                    <Parameter>
                      <Index>2</Index>
                      <Name>Internal oversampling factor</Name>
                      <Symbol>oversampling</Symbol>
                      <Value>1</Value>
                    </Parameter>
                    <Parameter>
                      <Index>3</Index>
                      <Name>Preload size</Name>
                      <Symbol>preload_size</Symbol>
                      <Value>8192</Value>
                    </Parameter>
                    <Parameter>
                      <Index>5</Index>
                      <Name>Scala root key</Name>
                      <Symbol>scala_root_key</Symbol>
                      <Value>60</Value>
                    </Parameter>
                    <Parameter>
                      <Index>6</Index>
                      <Name>Tuning frequency</Name>
                      <Symbol>tuning_frequency</Symbol>
                      <Value>440</Value>
                    </Parameter>
                    <Parameter>
                      <Index>7</Index>
                      <Name>Stretched tuning</Name>
                      <Symbol>stretched_tuning</Symbol>
                      <Value>0</Value>
                    </Parameter>
                    <CustomData>
                      <Type>http://lv2plug.in/ns/ext/atom#Path</Type>
                      <Key>http://sfztools.github.io/sfizz:sfzfile</Key>
                      <Value>_fakeguitar2_integrated.sfz</Value>
                    </CustomData>
                    <CustomData>
                      <Type>http://lv2plug.in/ns/ext/atom#Int</Type>
                      <Key>http://sfztools.github.io/sfizz:numvoices</Key>
                      <Value>QAAAAA==</Value>
                    </CustomData>
                    <CustomData>
                      <Type>http://lv2plug.in/ns/ext/atom#Int</Type>
                      <Key>http://sfztools.github.io/sfizz:preload_size</Key>
                      <Value>ACAAAA==</Value>
                    </CustomData>
                    <CustomData>
                      <Type>http://lv2plug.in/ns/ext/atom#Int</Type>
                      <Key>http://sfztools.github.io/sfizz:oversampling</Key>
                      <Value>AQAAAA==</Value>
                    </CustomData>
                    <CustomData>
                      <Type>http://lv2plug.in/ns/ext/atom#Path</Type>
                      <Key>http://sfztools.github.io/sfizz:tuningfile</Key>
                      <Value>DefaultScale.scl</Value>
                    </CustomData>
                  </Data>
                </Plugin>
                <Patchbay>
                  <Connection>
                    <Source>Midi Input:Capture 1</Source>
                    <Target>sfizz:events-in</Target>
                  </Connection>
                  <Connection>
                    <Source>sfizz:Left Output</Source>
                    <Target>Audio Output:Left</Target>
                  </Connection>
                  <Connection>
                    <Source>sfizz:Right Output</Source>
                    <Target>Audio Output:Right</Target>
                  </Connection>
                  <Positions>
                    <Position y1="1353" pluginId="0" x1="1693">
                      <Name>sfizz</Name>
                    </Position>
                  </Positions>
                </Patchbay>
              </CARLA-PROJECT>
            </carlapatchbay>
          </instrument>
          <eldata fres="0.5" fwet="0" fcut="14000" ftype="0">
            <elvol pdel="0" latt="0" lshp="0" lspd_denominator="4" lamt="0" amt="0" sustain="0.5" lspd_syncmode="0" att="0" x100="0" lspd_numerator="4" lspd="0.1" ctlenvamt="0" dec="0.5" lpdel="0" hold="0.5" userwavefile="" rel="0.1"/>
            <elcut pdel="0" latt="0" lshp="0" lspd_denominator="4" lamt="0" amt="0" sustain="0.5" lspd_syncmode="0" att="0" x100="0" lspd_numerator="4" lspd="0.1" ctlenvamt="0" dec="0.5" lpdel="0" hold="0.5" userwavefile="" rel="0.1"/>
            <elres pdel="0" latt="0" lshp="0" lspd_denominator="4" lamt="0" amt="0" sustain="0.5" lspd_syncmode="0" att="0" x100="0" lspd_numerator="4" lspd="0.1" ctlenvamt="0" dec="0.5" lpdel="0" hold="0.5" userwavefile="" rel="0.1"/>
          </eldata>
          <chordcreator chordrange="1" chord="0" chord-enabled="0"/>
          <arpeggiator arptime="200" arpskip="0" arpgate="100" arptime_syncmode="0" arpmode="0" arprange="1" arp="0" arpcycle="0" arptime_denominator="4" arptime_numerator="4" arpdir="0" arp-enabled="0" arpmiss="0"/>
          <midiport outputchannel="1" inputcontroller="0" inputchannel="0" basevelocity="63" outputprogram="1" readable="0" outputcontroller="0" fixedinputvelocity="-1" fixedoutputnote="-1" writable="0" fixedoutputvelocity="-1"/>
          <fxchain numofeffects="0" enabled="0"/>
        </instrumenttrack>
        <pattern muted="0" pos="7680" steps="16" name="lgtH2" type="1">
          <note key="62" vol="100" pos="0" pan="0" len="24"/>
          <note key="1" vol="100" pos="0" pan="0" len="24"/>
          <note key="62" vol="100" pos="24" pan="0" len="24"/>
          <note key="0" vol="100" pos="36" pan="0" len="24"/>
          <note key="66" vol="100" pos="48" pan="0" len="24"/>
          <note key="62" vol="100" pos="72" pan="0" len="24"/>
          <note key="1" vol="100" pos="72" pan="0" len="24"/>
          <note key="62" vol="100" pos="96" pan="0" len="24"/>
          <note key="0" vol="100" pos="108" pan="0" len="24"/>
          <note key="64" vol="100" pos="120" pan="0" len="24"/>
          <note key="1" vol="100" pos="132" pan="0" len="24"/>
          <note key="62" vol="100" pos="144" pan="0" len="24"/>
          <note key="62" vol="100" pos="168" pan="0" len="24"/>
          <note key="0" vol="100" pos="180" pan="0" len="24"/>
          <note key="67" vol="100" pos="192" pan="0" len="24"/>
          <note key="1" vol="100" pos="204" pan="0" len="24"/>
          <note key="62" vol="100" pos="216" pan="0" len="24"/>
          <note key="62" vol="100" pos="240" pan="0" len="24"/>
          <note key="0" vol="100" pos="252" pan="0" len="24"/>
          <note key="66" vol="100" pos="264" pan="0" len="24"/>
          <note key="1" vol="100" pos="276" pan="0" len="24"/>
          <note key="62" vol="100" pos="288" pan="0" len="24"/>
          <note key="62" vol="100" pos="312" pan="0" len="24"/>
          <note key="0" vol="100" pos="324" pan="0" len="24"/>
          <note key="64" vol="100" pos="336" pan="0" len="24"/>
          <note key="2" vol="100" pos="348" pan="0" len="24"/>
          <note key="66" vol="100" pos="360" pan="0" len="24"/>
        </pattern>
        <pattern muted="0" pos="8064" steps="16" name="lgtH2" type="1">
          <note key="62" vol="100" pos="0" pan="0" len="24"/>
          <note key="1" vol="100" pos="0" pan="0" len="24"/>
          <note key="62" vol="100" pos="24" pan="0" len="24"/>
          <note key="0" vol="100" pos="36" pan="0" len="24"/>
          <note key="66" vol="100" pos="48" pan="0" len="24"/>
          <note key="62" vol="100" pos="72" pan="0" len="24"/>
          <note key="1" vol="100" pos="72" pan="0" len="24"/>
          <note key="62" vol="100" pos="96" pan="0" len="24"/>
          <note key="0" vol="100" pos="108" pan="0" len="24"/>
          <note key="64" vol="100" pos="120" pan="0" len="24"/>
          <note key="1" vol="100" pos="132" pan="0" len="24"/>
          <note key="62" vol="100" pos="144" pan="0" len="24"/>
          <note key="62" vol="100" pos="168" pan="0" len="24"/>
          <note key="0" vol="100" pos="180" pan="0" len="24"/>
          <note key="67" vol="100" pos="192" pan="0" len="24"/>
          <note key="1" vol="100" pos="204" pan="0" len="24"/>
          <note key="62" vol="100" pos="216" pan="0" len="24"/>
          <note key="62" vol="100" pos="240" pan="0" len="24"/>
          <note key="0" vol="100" pos="252" pan="0" len="24"/>
          <note key="66" vol="100" pos="264" pan="0" len="24"/>
          <note key="1" vol="100" pos="276" pan="0" len="24"/>
          <note key="62" vol="100" pos="288" pan="0" len="24"/>
          <note key="62" vol="100" pos="312" pan="0" len="24"/>
          <note key="0" vol="100" pos="324" pan="0" len="24"/>
          <note key="64" vol="100" pos="336" pan="0" len="24"/>
          <note key="2" vol="100" pos="348" pan="0" len="24"/>
          <note key="66" vol="100" pos="360" pan="0" len="24"/>
        </pattern>
        <pattern muted="0" pos="8448" steps="16" name="lgtH2" type="1">
          <note key="62" vol="100" pos="0" pan="0" len="24"/>
          <note key="1" vol="100" pos="0" pan="0" len="24"/>
          <note key="62" vol="100" pos="24" pan="0" len="24"/>
          <note key="0" vol="100" pos="36" pan="0" len="24"/>
          <note key="66" vol="100" pos="48" pan="0" len="24"/>
          <note key="62" vol="100" pos="72" pan="0" len="24"/>
          <note key="1" vol="100" pos="72" pan="0" len="24"/>
          <note key="62" vol="100" pos="96" pan="0" len="24"/>
          <note key="0" vol="100" pos="108" pan="0" len="24"/>
          <note key="64" vol="100" pos="120" pan="0" len="24"/>
          <note key="1" vol="100" pos="132" pan="0" len="24"/>
          <note key="62" vol="100" pos="144" pan="0" len="24"/>
          <note key="62" vol="100" pos="168" pan="0" len="24"/>
          <note key="0" vol="100" pos="180" pan="0" len="24"/>
          <note key="67" vol="100" pos="192" pan="0" len="24"/>
          <note key="1" vol="100" pos="204" pan="0" len="24"/>
          <note key="62" vol="100" pos="216" pan="0" len="24"/>
          <note key="62" vol="100" pos="240" pan="0" len="24"/>
          <note key="0" vol="100" pos="252" pan="0" len="24"/>
          <note key="66" vol="100" pos="264" pan="0" len="24"/>
          <note key="1" vol="100" pos="276" pan="0" len="24"/>
          <note key="62" vol="100" pos="288" pan="0" len="24"/>
          <note key="62" vol="100" pos="312" pan="0" len="24"/>
          <note key="0" vol="100" pos="324" pan="0" len="24"/>
          <note key="64" vol="100" pos="336" pan="0" len="24"/>
          <note key="2" vol="100" pos="348" pan="0" len="24"/>
          <note key="66" vol="100" pos="360" pan="0" len="24"/>
        </pattern>
        <pattern muted="0" pos="8832" steps="16" name="lgtH2" type="1">
          <note key="62" vol="100" pos="0" pan="0" len="24"/>
          <note key="1" vol="100" pos="0" pan="0" len="24"/>
          <note key="62" vol="100" pos="24" pan="0" len="24"/>
          <note key="0" vol="100" pos="36" pan="0" len="24"/>
          <note key="66" vol="100" pos="48" pan="0" len="24"/>
          <note key="62" vol="100" pos="72" pan="0" len="24"/>
          <note key="1" vol="100" pos="72" pan="0" len="24"/>
          <note key="62" vol="100" pos="96" pan="0" len="24"/>
          <note key="0" vol="100" pos="108" pan="0" len="24"/>
          <note key="64" vol="100" pos="120" pan="0" len="24"/>
          <note key="1" vol="100" pos="132" pan="0" len="24"/>
          <note key="62" vol="100" pos="144" pan="0" len="24"/>
          <note key="62" vol="100" pos="168" pan="0" len="24"/>
          <note key="0" vol="100" pos="180" pan="0" len="24"/>
          <note key="67" vol="100" pos="192" pan="0" len="24"/>
          <note key="1" vol="100" pos="204" pan="0" len="24"/>
          <note key="62" vol="100" pos="216" pan="0" len="24"/>
          <note key="62" vol="100" pos="240" pan="0" len="24"/>
          <note key="0" vol="100" pos="252" pan="0" len="24"/>
          <note key="66" vol="100" pos="264" pan="0" len="24"/>
          <note key="1" vol="100" pos="276" pan="0" len="24"/>
          <note key="62" vol="100" pos="288" pan="0" len="24"/>
          <note key="62" vol="100" pos="312" pan="0" len="24"/>
          <note key="0" vol="100" pos="324" pan="0" len="24"/>
          <note key="64" vol="100" pos="336" pan="0" len="24"/>
          <note key="2" vol="100" pos="348" pan="0" len="24"/>
          <note key="66" vol="100" pos="360" pan="0" len="24"/>
        </pattern>
        <pattern muted="0" pos="9216" steps="16" name="lgtH2" type="1">
          <note key="62" vol="100" pos="0" pan="0" len="24"/>
          <note key="1" vol="100" pos="0" pan="0" len="24"/>
          <note key="62" vol="100" pos="24" pan="0" len="24"/>
          <note key="0" vol="100" pos="36" pan="0" len="24"/>
          <note key="66" vol="100" pos="48" pan="0" len="24"/>
          <note key="62" vol="100" pos="72" pan="0" len="24"/>
          <note key="1" vol="100" pos="72" pan="0" len="24"/>
          <note key="62" vol="100" pos="96" pan="0" len="24"/>
          <note key="0" vol="100" pos="108" pan="0" len="24"/>
          <note key="64" vol="100" pos="120" pan="0" len="24"/>
          <note key="1" vol="100" pos="132" pan="0" len="24"/>
          <note key="62" vol="100" pos="144" pan="0" len="24"/>
          <note key="62" vol="100" pos="168" pan="0" len="24"/>
          <note key="0" vol="100" pos="180" pan="0" len="24"/>
          <note key="67" vol="100" pos="192" pan="0" len="24"/>
          <note key="1" vol="100" pos="204" pan="0" len="24"/>
          <note key="62" vol="100" pos="216" pan="0" len="24"/>
          <note key="62" vol="100" pos="240" pan="0" len="24"/>
          <note key="0" vol="100" pos="252" pan="0" len="24"/>
          <note key="66" vol="100" pos="264" pan="0" len="24"/>
          <note key="1" vol="100" pos="276" pan="0" len="24"/>
          <note key="62" vol="100" pos="288" pan="0" len="24"/>
          <note key="62" vol="100" pos="312" pan="0" len="24"/>
          <note key="0" vol="100" pos="324" pan="0" len="24"/>
          <note key="64" vol="100" pos="336" pan="0" len="24"/>
          <note key="2" vol="100" pos="348" pan="0" len="24"/>
          <note key="66" vol="100" pos="360" pan="0" len="24"/>
        </pattern>
        <pattern muted="0" pos="9600" steps="16" name="lgtH2" type="1">
          <note key="62" vol="100" pos="0" pan="0" len="24"/>
          <note key="1" vol="100" pos="0" pan="0" len="24"/>
          <note key="62" vol="100" pos="24" pan="0" len="24"/>
          <note key="0" vol="100" pos="36" pan="0" len="24"/>
          <note key="66" vol="100" pos="48" pan="0" len="24"/>
          <note key="62" vol="100" pos="72" pan="0" len="24"/>
          <note key="1" vol="100" pos="72" pan="0" len="24"/>
          <note key="62" vol="100" pos="96" pan="0" len="24"/>
          <note key="0" vol="100" pos="108" pan="0" len="24"/>
          <note key="64" vol="100" pos="120" pan="0" len="24"/>
          <note key="1" vol="100" pos="132" pan="0" len="24"/>
          <note key="62" vol="100" pos="144" pan="0" len="24"/>
          <note key="62" vol="100" pos="168" pan="0" len="24"/>
          <note key="0" vol="100" pos="180" pan="0" len="24"/>
          <note key="67" vol="100" pos="192" pan="0" len="24"/>
          <note key="1" vol="100" pos="204" pan="0" len="24"/>
          <note key="62" vol="100" pos="216" pan="0" len="24"/>
          <note key="62" vol="100" pos="240" pan="0" len="24"/>
          <note key="0" vol="100" pos="252" pan="0" len="24"/>
          <note key="66" vol="100" pos="264" pan="0" len="24"/>
          <note key="1" vol="100" pos="276" pan="0" len="24"/>
          <note key="62" vol="100" pos="288" pan="0" len="24"/>
          <note key="62" vol="100" pos="312" pan="0" len="24"/>
          <note key="0" vol="100" pos="324" pan="0" len="24"/>
          <note key="64" vol="100" pos="336" pan="0" len="24"/>
          <note key="2" vol="100" pos="348" pan="0" len="24"/>
          <note key="66" vol="100" pos="360" pan="0" len="24"/>
        </pattern>
        <pattern muted="0" pos="9984" steps="16" name="lgtH2" type="1">
          <note key="62" vol="100" pos="0" pan="0" len="24"/>
          <note key="1" vol="100" pos="0" pan="0" len="24"/>
          <note key="62" vol="100" pos="24" pan="0" len="24"/>
          <note key="0" vol="100" pos="36" pan="0" len="24"/>
          <note key="66" vol="100" pos="48" pan="0" len="24"/>
          <note key="62" vol="100" pos="72" pan="0" len="24"/>
          <note key="1" vol="100" pos="72" pan="0" len="24"/>
          <note key="62" vol="100" pos="96" pan="0" len="24"/>
          <note key="0" vol="100" pos="108" pan="0" len="24"/>
          <note key="64" vol="100" pos="120" pan="0" len="24"/>
          <note key="1" vol="100" pos="132" pan="0" len="24"/>
          <note key="62" vol="100" pos="144" pan="0" len="24"/>
          <note key="62" vol="100" pos="168" pan="0" len="24"/>
          <note key="0" vol="100" pos="180" pan="0" len="24"/>
          <note key="67" vol="100" pos="192" pan="0" len="24"/>
          <note key="1" vol="100" pos="204" pan="0" len="24"/>
          <note key="62" vol="100" pos="216" pan="0" len="24"/>
          <note key="62" vol="100" pos="240" pan="0" len="24"/>
          <note key="0" vol="100" pos="252" pan="0" len="24"/>
          <note key="66" vol="100" pos="264" pan="0" len="24"/>
          <note key="1" vol="100" pos="276" pan="0" len="24"/>
          <note key="62" vol="100" pos="288" pan="0" len="24"/>
          <note key="62" vol="100" pos="312" pan="0" len="24"/>
          <note key="0" vol="100" pos="324" pan="0" len="24"/>
          <note key="64" vol="100" pos="336" pan="0" len="24"/>
          <note key="2" vol="100" pos="348" pan="0" len="24"/>
          <note key="66" vol="100" pos="360" pan="0" len="24"/>
        </pattern>
        <pattern muted="0" pos="10368" steps="16" name="lgtH2" type="1">
          <note key="62" vol="100" pos="0" pan="0" len="24"/>
          <note key="1" vol="100" pos="0" pan="0" len="24"/>
          <note key="62" vol="100" pos="24" pan="0" len="24"/>
          <note key="0" vol="100" pos="36" pan="0" len="24"/>
          <note key="66" vol="100" pos="48" pan="0" len="24"/>
          <note key="62" vol="100" pos="72" pan="0" len="24"/>
          <note key="1" vol="100" pos="72" pan="0" len="24"/>
          <note key="62" vol="100" pos="96" pan="0" len="24"/>
          <note key="0" vol="100" pos="108" pan="0" len="24"/>
          <note key="64" vol="100" pos="120" pan="0" len="24"/>
          <note key="1" vol="100" pos="132" pan="0" len="24"/>
          <note key="62" vol="100" pos="144" pan="0" len="24"/>
          <note key="62" vol="100" pos="168" pan="0" len="24"/>
          <note key="0" vol="100" pos="180" pan="0" len="24"/>
          <note key="67" vol="100" pos="192" pan="0" len="24"/>
          <note key="1" vol="100" pos="204" pan="0" len="24"/>
          <note key="62" vol="100" pos="216" pan="0" len="24"/>
          <note key="62" vol="100" pos="240" pan="0" len="24"/>
          <note key="0" vol="100" pos="252" pan="0" len="24"/>
          <note key="66" vol="100" pos="264" pan="0" len="24"/>
          <note key="1" vol="100" pos="276" pan="0" len="24"/>
          <note key="62" vol="100" pos="288" pan="0" len="24"/>
          <note key="62" vol="100" pos="312" pan="0" len="24"/>
          <note key="0" vol="100" pos="324" pan="0" len="24"/>
          <note key="64" vol="100" pos="336" pan="0" len="24"/>
          <note key="2" vol="100" pos="348" pan="0" len="24"/>
          <note key="66" vol="100" pos="360" pan="0" len="24"/>
        </pattern>
        <pattern muted="0" pos="10752" steps="16" name="lgtH2" type="1">
          <note key="62" vol="100" pos="0" pan="0" len="24"/>
          <note key="1" vol="100" pos="0" pan="0" len="24"/>
          <note key="62" vol="100" pos="24" pan="0" len="24"/>
          <note key="0" vol="100" pos="36" pan="0" len="24"/>
          <note key="66" vol="100" pos="48" pan="0" len="24"/>
          <note key="62" vol="100" pos="72" pan="0" len="24"/>
          <note key="1" vol="100" pos="72" pan="0" len="24"/>
          <note key="62" vol="100" pos="96" pan="0" len="24"/>
          <note key="0" vol="100" pos="108" pan="0" len="24"/>
          <note key="64" vol="100" pos="120" pan="0" len="24"/>
          <note key="1" vol="100" pos="132" pan="0" len="24"/>
          <note key="62" vol="100" pos="144" pan="0" len="24"/>
          <note key="62" vol="100" pos="168" pan="0" len="24"/>
          <note key="0" vol="100" pos="180" pan="0" len="24"/>
          <note key="67" vol="100" pos="192" pan="0" len="24"/>
          <note key="1" vol="100" pos="204" pan="0" len="24"/>
          <note key="62" vol="100" pos="216" pan="0" len="24"/>
          <note key="62" vol="100" pos="240" pan="0" len="24"/>
          <note key="0" vol="100" pos="252" pan="0" len="24"/>
          <note key="66" vol="100" pos="264" pan="0" len="24"/>
          <note key="1" vol="100" pos="276" pan="0" len="24"/>
          <note key="62" vol="100" pos="288" pan="0" len="24"/>
          <note key="62" vol="100" pos="312" pan="0" len="24"/>
          <note key="0" vol="100" pos="324" pan="0" len="24"/>
          <note key="64" vol="100" pos="336" pan="0" len="24"/>
          <note key="2" vol="100" pos="348" pan="0" len="24"/>
          <note key="66" vol="100" pos="360" pan="0" len="24"/>
        </pattern>
        <pattern muted="0" pos="11136" steps="16" name="lgtH2" type="1">
          <note key="62" vol="100" pos="0" pan="0" len="24"/>
          <note key="1" vol="100" pos="0" pan="0" len="24"/>
          <note key="62" vol="100" pos="24" pan="0" len="24"/>
          <note key="0" vol="100" pos="36" pan="0" len="24"/>
          <note key="66" vol="100" pos="48" pan="0" len="24"/>
          <note key="62" vol="100" pos="72" pan="0" len="24"/>
          <note key="1" vol="100" pos="72" pan="0" len="24"/>
          <note key="62" vol="100" pos="96" pan="0" len="24"/>
          <note key="0" vol="100" pos="108" pan="0" len="24"/>
          <note key="64" vol="100" pos="120" pan="0" len="24"/>
          <note key="1" vol="100" pos="132" pan="0" len="24"/>
          <note key="62" vol="100" pos="144" pan="0" len="24"/>
          <note key="62" vol="100" pos="168" pan="0" len="24"/>
          <note key="0" vol="100" pos="180" pan="0" len="24"/>
          <note key="67" vol="100" pos="192" pan="0" len="24"/>
          <note key="1" vol="100" pos="204" pan="0" len="24"/>
          <note key="62" vol="100" pos="216" pan="0" len="24"/>
          <note key="62" vol="100" pos="240" pan="0" len="24"/>
          <note key="0" vol="100" pos="252" pan="0" len="24"/>
          <note key="66" vol="100" pos="264" pan="0" len="24"/>
          <note key="1" vol="100" pos="276" pan="0" len="24"/>
          <note key="62" vol="100" pos="288" pan="0" len="24"/>
          <note key="62" vol="100" pos="312" pan="0" len="24"/>
          <note key="0" vol="100" pos="324" pan="0" len="24"/>
          <note key="64" vol="100" pos="336" pan="0" len="24"/>
          <note key="2" vol="100" pos="348" pan="0" len="24"/>
          <note key="66" vol="100" pos="360" pan="0" len="24"/>
        </pattern>
        <pattern muted="0" pos="11520" steps="16" name="lgtH2" type="1">
          <note key="62" vol="100" pos="0" pan="0" len="24"/>
          <note key="1" vol="100" pos="0" pan="0" len="24"/>
          <note key="62" vol="100" pos="24" pan="0" len="24"/>
          <note key="0" vol="100" pos="36" pan="0" len="24"/>
          <note key="66" vol="100" pos="48" pan="0" len="24"/>
          <note key="62" vol="100" pos="72" pan="0" len="24"/>
          <note key="1" vol="100" pos="72" pan="0" len="24"/>
          <note key="62" vol="100" pos="96" pan="0" len="24"/>
          <note key="0" vol="100" pos="108" pan="0" len="24"/>
          <note key="64" vol="100" pos="120" pan="0" len="24"/>
          <note key="1" vol="100" pos="132" pan="0" len="24"/>
          <note key="62" vol="100" pos="144" pan="0" len="24"/>
          <note key="62" vol="100" pos="168" pan="0" len="24"/>
          <note key="0" vol="100" pos="180" pan="0" len="24"/>
          <note key="67" vol="100" pos="192" pan="0" len="24"/>
          <note key="1" vol="100" pos="204" pan="0" len="24"/>
          <note key="62" vol="100" pos="216" pan="0" len="24"/>
          <note key="62" vol="100" pos="240" pan="0" len="24"/>
          <note key="0" vol="100" pos="252" pan="0" len="24"/>
          <note key="66" vol="100" pos="264" pan="0" len="24"/>
          <note key="1" vol="100" pos="276" pan="0" len="24"/>
          <note key="62" vol="100" pos="288" pan="0" len="24"/>
          <note key="62" vol="100" pos="312" pan="0" len="24"/>
          <note key="0" vol="100" pos="324" pan="0" len="24"/>
          <note key="64" vol="100" pos="336" pan="0" len="24"/>
          <note key="2" vol="100" pos="348" pan="0" len="24"/>
          <note key="66" vol="100" pos="360" pan="0" len="24"/>
        </pattern>
        <pattern muted="0" pos="11904" steps="16" name="lgtH2" type="1">
          <note key="62" vol="100" pos="0" pan="0" len="24"/>
          <note key="1" vol="100" pos="0" pan="0" len="24"/>
          <note key="62" vol="100" pos="24" pan="0" len="24"/>
          <note key="0" vol="100" pos="36" pan="0" len="24"/>
          <note key="66" vol="100" pos="48" pan="0" len="24"/>
          <note key="62" vol="100" pos="72" pan="0" len="24"/>
          <note key="1" vol="100" pos="72" pan="0" len="24"/>
          <note key="62" vol="100" pos="96" pan="0" len="24"/>
          <note key="0" vol="100" pos="108" pan="0" len="24"/>
          <note key="64" vol="100" pos="120" pan="0" len="24"/>
          <note key="1" vol="100" pos="132" pan="0" len="24"/>
          <note key="62" vol="100" pos="144" pan="0" len="24"/>
          <note key="62" vol="100" pos="168" pan="0" len="24"/>
          <note key="0" vol="100" pos="180" pan="0" len="24"/>
          <note key="62" vol="100" pos="192" pan="0" len="24"/>
          <note key="61" vol="100" pos="216" pan="0" len="24"/>
          <note key="62" vol="100" pos="240" pan="0" len="24"/>
          <note key="64" vol="100" pos="264" pan="0" len="24"/>
          <note key="66" vol="100" pos="288" pan="0" len="24"/>
          <note key="64" vol="100" pos="312" pan="0" len="24"/>
          <note key="62" vol="100" pos="336" pan="0" len="24"/>
          <note key="61" vol="100" pos="360" pan="0" len="24"/>
        </pattern>
        <pattern muted="0" pos="17664" steps="16" name="lgtH2" type="1">
          <note key="81" vol="100" pos="0" pan="0" len="72"/>
          <note key="79" vol="100" pos="72" pan="0" len="72"/>
          <note key="78" vol="100" pos="144" pan="0" len="48"/>
          <note key="81" vol="100" pos="192" pan="0" len="72"/>
          <note key="79" vol="100" pos="264" pan="0" len="72"/>
          <note key="78" vol="100" pos="336" pan="0" len="48"/>
          <note key="78" vol="100" pos="384" pan="0" len="24"/>
          <note key="76" vol="100" pos="408" pan="0" len="168"/>
        </pattern>
        <pattern muted="0" pos="25344" steps="16" name="lgtH2" type="1">
          <note key="66" vol="100" pos="0" pan="0" len="72"/>
          <note key="0" vol="100" pos="0" pan="0" len="48"/>
          <note key="64" vol="100" pos="72" pan="0" len="72"/>
          <note key="66" vol="100" pos="144" pan="0" len="48"/>
          <note key="66" vol="100" pos="192" pan="0" len="72"/>
          <note key="64" vol="100" pos="264" pan="0" len="72"/>
          <note key="66" vol="100" pos="336" pan="0" len="48"/>
          <note key="67" vol="100" pos="384" pan="0" len="72"/>
          <note key="66" vol="100" pos="456" pan="0" len="72"/>
          <note key="64" vol="100" pos="528" pan="0" len="48"/>
          <note key="66" vol="100" pos="576" pan="0" len="72"/>
          <note key="64" vol="100" pos="648" pan="0" len="72"/>
          <note key="62" vol="100" pos="720" pan="0" len="48"/>
        </pattern>
        <pattern muted="0" pos="27648" steps="16" name="lgtH2" type="1">
          <note key="81" vol="100" pos="0" pan="0" len="72"/>
          <note key="79" vol="100" pos="72" pan="0" len="72"/>
          <note key="78" vol="100" pos="144" pan="0" len="48"/>
          <note key="81" vol="100" pos="192" pan="0" len="72"/>
          <note key="79" vol="100" pos="264" pan="0" len="72"/>
          <note key="78" vol="100" pos="336" pan="0" len="48"/>
          <note key="78" vol="100" pos="384" pan="0" len="24"/>
          <note key="76" vol="100" pos="408" pan="0" len="168"/>
        </pattern>
        <pattern muted="0" pos="33792" steps="16" name="lgtH2" type="1">
          <note key="66" vol="100" pos="0" pan="0" len="24"/>
          <note key="1" vol="100" pos="0" pan="0" len="24"/>
          <note key="69" vol="100" pos="24" pan="0" len="24"/>
          <note key="0" vol="100" pos="24" pan="0" len="24"/>
          <note key="1" vol="100" pos="36" pan="0" len="24"/>
          <note key="66" vol="100" pos="48" pan="0" len="24"/>
          <note key="66" vol="100" pos="72" pan="0" len="24"/>
          <note key="0" vol="100" pos="84" pan="0" len="24"/>
          <note key="69" vol="100" pos="96" pan="0" len="24"/>
          <note key="1" vol="100" pos="108" pan="0" len="24"/>
          <note key="66" vol="100" pos="120" pan="0" len="24"/>
          <note key="66" vol="100" pos="144" pan="0" len="24"/>
          <note key="0" vol="100" pos="156" pan="0" len="24"/>
          <note key="69" vol="100" pos="168" pan="0" len="24"/>
          <note key="1" vol="100" pos="180" pan="0" len="24"/>
          <note key="66" vol="100" pos="192" pan="0" len="24"/>
          <note key="66" vol="100" pos="216" pan="0" len="24"/>
          <note key="0" vol="100" pos="228" pan="0" len="24"/>
          <note key="69" vol="100" pos="240" pan="0" len="24"/>
          <note key="1" vol="100" pos="252" pan="0" len="24"/>
          <note key="66" vol="100" pos="264" pan="0" len="24"/>
          <note key="66" vol="100" pos="288" pan="0" len="24"/>
          <note key="0" vol="100" pos="300" pan="0" len="24"/>
          <note key="69" vol="100" pos="312" pan="0" len="24"/>
          <note key="1" vol="100" pos="324" pan="0" len="24"/>
          <note key="66" vol="100" pos="336" pan="0" len="24"/>
          <note key="66" vol="100" pos="360" pan="0" len="24"/>
        </pattern>
        <pattern muted="0" pos="34176" steps="16" name="lgtH2" type="1">
          <note key="67" vol="100" pos="0" pan="0" len="24"/>
          <note key="1" vol="100" pos="0" pan="0" len="24"/>
          <note key="71" vol="100" pos="24" pan="0" len="24"/>
          <note key="0" vol="100" pos="24" pan="0" len="24"/>
          <note key="1" vol="100" pos="36" pan="0" len="24"/>
          <note key="67" vol="100" pos="48" pan="0" len="24"/>
          <note key="67" vol="100" pos="72" pan="0" len="24"/>
          <note key="0" vol="100" pos="84" pan="0" len="24"/>
          <note key="71" vol="100" pos="96" pan="0" len="24"/>
          <note key="1" vol="100" pos="108" pan="0" len="24"/>
          <note key="67" vol="100" pos="120" pan="0" len="24"/>
          <note key="67" vol="100" pos="144" pan="0" len="24"/>
          <note key="0" vol="100" pos="156" pan="0" len="24"/>
          <note key="73" vol="100" pos="168" pan="0" len="24"/>
          <note key="1" vol="100" pos="180" pan="0" len="24"/>
          <note key="69" vol="100" pos="192" pan="0" len="24"/>
          <note key="69" vol="100" pos="216" pan="0" len="24"/>
          <note key="0" vol="100" pos="228" pan="0" len="24"/>
          <note key="73" vol="100" pos="240" pan="0" len="24"/>
          <note key="1" vol="100" pos="252" pan="0" len="24"/>
          <note key="69" vol="100" pos="264" pan="0" len="24"/>
          <note key="69" vol="100" pos="288" pan="0" len="24"/>
          <note key="0" vol="100" pos="300" pan="0" len="24"/>
          <note key="73" vol="100" pos="312" pan="0" len="24"/>
          <note key="1" vol="100" pos="324" pan="0" len="24"/>
          <note key="69" vol="100" pos="336" pan="0" len="24"/>
          <note key="69" vol="100" pos="360" pan="0" len="24"/>
        </pattern>
        <pattern muted="0" pos="34560" steps="16" name="lgtH2" type="1">
          <note key="66" vol="100" pos="0" pan="0" len="24"/>
          <note key="1" vol="100" pos="0" pan="0" len="24"/>
          <note key="69" vol="100" pos="24" pan="0" len="24"/>
          <note key="0" vol="100" pos="24" pan="0" len="24"/>
          <note key="1" vol="100" pos="36" pan="0" len="24"/>
          <note key="66" vol="100" pos="48" pan="0" len="24"/>
          <note key="66" vol="100" pos="72" pan="0" len="24"/>
          <note key="0" vol="100" pos="84" pan="0" len="24"/>
          <note key="69" vol="100" pos="96" pan="0" len="24"/>
          <note key="1" vol="100" pos="108" pan="0" len="24"/>
          <note key="66" vol="100" pos="120" pan="0" len="24"/>
          <note key="66" vol="100" pos="144" pan="0" len="24"/>
          <note key="0" vol="100" pos="156" pan="0" len="24"/>
          <note key="69" vol="100" pos="168" pan="0" len="24"/>
          <note key="1" vol="100" pos="180" pan="0" len="24"/>
          <note key="66" vol="100" pos="192" pan="0" len="24"/>
          <note key="66" vol="100" pos="216" pan="0" len="24"/>
          <note key="0" vol="100" pos="228" pan="0" len="24"/>
          <note key="69" vol="100" pos="240" pan="0" len="24"/>
          <note key="1" vol="100" pos="252" pan="0" len="24"/>
          <note key="66" vol="100" pos="264" pan="0" len="24"/>
          <note key="66" vol="100" pos="288" pan="0" len="24"/>
          <note key="0" vol="100" pos="300" pan="0" len="24"/>
          <note key="69" vol="100" pos="312" pan="0" len="24"/>
          <note key="1" vol="100" pos="324" pan="0" len="24"/>
          <note key="66" vol="100" pos="336" pan="0" len="24"/>
          <note key="66" vol="100" pos="360" pan="0" len="24"/>
        </pattern>
        <pattern muted="0" pos="34944" steps="16" name="lgtH2" type="1">
          <note key="67" vol="100" pos="0" pan="0" len="24"/>
          <note key="1" vol="100" pos="0" pan="0" len="24"/>
          <note key="71" vol="100" pos="24" pan="0" len="24"/>
          <note key="0" vol="100" pos="24" pan="0" len="24"/>
          <note key="1" vol="100" pos="36" pan="0" len="24"/>
          <note key="67" vol="100" pos="48" pan="0" len="24"/>
          <note key="67" vol="100" pos="72" pan="0" len="24"/>
          <note key="0" vol="100" pos="84" pan="0" len="24"/>
          <note key="71" vol="100" pos="96" pan="0" len="24"/>
          <note key="1" vol="100" pos="108" pan="0" len="24"/>
          <note key="67" vol="100" pos="120" pan="0" len="24"/>
          <note key="67" vol="100" pos="144" pan="0" len="24"/>
          <note key="0" vol="100" pos="156" pan="0" len="24"/>
          <note key="73" vol="100" pos="168" pan="0" len="24"/>
          <note key="1" vol="100" pos="180" pan="0" len="24"/>
          <note key="69" vol="100" pos="192" pan="0" len="24"/>
          <note key="69" vol="100" pos="216" pan="0" len="24"/>
          <note key="0" vol="100" pos="228" pan="0" len="24"/>
          <note key="73" vol="100" pos="240" pan="0" len="24"/>
          <note key="1" vol="100" pos="252" pan="0" len="24"/>
          <note key="69" vol="100" pos="264" pan="0" len="24"/>
          <note key="0" vol="100" pos="300" pan="0" len="24"/>
          <note key="1" vol="100" pos="324" pan="0" len="24"/>
        </pattern>
        <pattern muted="0" pos="43008" steps="16" name="lgtH2" type="1">
          <note key="62" vol="100" pos="0" pan="0" len="24"/>
          <note key="1" vol="100" pos="0" pan="0" len="24"/>
          <note key="62" vol="100" pos="24" pan="0" len="24"/>
          <note key="0" vol="100" pos="36" pan="0" len="24"/>
          <note key="66" vol="100" pos="48" pan="0" len="24"/>
          <note key="62" vol="100" pos="72" pan="0" len="24"/>
          <note key="1" vol="100" pos="72" pan="0" len="24"/>
          <note key="62" vol="100" pos="96" pan="0" len="24"/>
          <note key="0" vol="100" pos="108" pan="0" len="24"/>
          <note key="64" vol="100" pos="120" pan="0" len="24"/>
          <note key="1" vol="100" pos="132" pan="0" len="24"/>
          <note key="62" vol="100" pos="144" pan="0" len="24"/>
          <note key="62" vol="100" pos="168" pan="0" len="24"/>
          <note key="0" vol="100" pos="180" pan="0" len="24"/>
          <note key="67" vol="100" pos="192" pan="0" len="24"/>
          <note key="1" vol="100" pos="204" pan="0" len="24"/>
          <note key="62" vol="100" pos="216" pan="0" len="24"/>
          <note key="62" vol="100" pos="240" pan="0" len="24"/>
          <note key="0" vol="100" pos="252" pan="0" len="24"/>
          <note key="66" vol="100" pos="264" pan="0" len="24"/>
          <note key="1" vol="100" pos="276" pan="0" len="24"/>
          <note key="62" vol="100" pos="288" pan="0" len="24"/>
          <note key="62" vol="100" pos="312" pan="0" len="24"/>
          <note key="0" vol="100" pos="324" pan="0" len="24"/>
          <note key="64" vol="100" pos="336" pan="0" len="24"/>
          <note key="2" vol="100" pos="348" pan="0" len="24"/>
          <note key="66" vol="100" pos="360" pan="0" len="24"/>
        </pattern>
        <pattern muted="0" pos="36864" steps="16" name="lgtH2" type="1">
          <note key="71" vol="200" pos="0" pan="0" len="12"/>
          <note key="2" vol="200" pos="0" pan="0" len="24"/>
          <note key="66" vol="200" pos="12" pan="0" len="12"/>
          <note key="71" vol="200" pos="24" pan="0" len="12"/>
          <note key="66" vol="200" pos="36" pan="0" len="12"/>
          <note key="69" vol="200" pos="48" pan="0" len="12"/>
          <note key="66" vol="200" pos="60" pan="0" len="12"/>
          <note key="71" vol="200" pos="72" pan="0" len="12"/>
          <note key="66" vol="200" pos="84" pan="0" len="12"/>
          <note key="73" vol="200" pos="96" pan="0" len="12"/>
          <note key="66" vol="200" pos="108" pan="0" len="12"/>
          <note key="71" vol="200" pos="120" pan="0" len="12"/>
          <note key="66" vol="200" pos="132" pan="0" len="12"/>
          <note key="69" vol="200" pos="144" pan="0" len="12"/>
          <note key="66" vol="200" pos="156" pan="0" len="12"/>
          <note key="71" vol="200" pos="168" pan="0" len="12"/>
          <note key="66" vol="200" pos="180" pan="0" len="12"/>
        </pattern>
        <pattern muted="0" pos="37056" steps="16" name="lgtH2" type="1">
          <note key="71" vol="200" pos="0" pan="0" len="12"/>
          <note key="2" vol="200" pos="0" pan="0" len="24"/>
          <note key="66" vol="200" pos="12" pan="0" len="12"/>
          <note key="71" vol="200" pos="24" pan="0" len="12"/>
          <note key="66" vol="200" pos="36" pan="0" len="12"/>
          <note key="69" vol="200" pos="48" pan="0" len="12"/>
          <note key="66" vol="200" pos="60" pan="0" len="12"/>
          <note key="71" vol="200" pos="72" pan="0" len="12"/>
          <note key="66" vol="200" pos="84" pan="0" len="12"/>
          <note key="73" vol="200" pos="96" pan="0" len="12"/>
          <note key="66" vol="200" pos="108" pan="0" len="12"/>
          <note key="71" vol="200" pos="120" pan="0" len="12"/>
          <note key="66" vol="200" pos="132" pan="0" len="12"/>
          <note key="69" vol="200" pos="144" pan="0" len="12"/>
          <note key="66" vol="200" pos="156" pan="0" len="12"/>
          <note key="71" vol="200" pos="168" pan="0" len="12"/>
          <note key="66" vol="200" pos="180" pan="0" len="12"/>
        </pattern>
        <pattern muted="0" pos="37248" steps="16" name="lgtH2" type="1">
          <note key="71" vol="200" pos="0" pan="0" len="12"/>
          <note key="2" vol="200" pos="0" pan="0" len="24"/>
          <note key="67" vol="200" pos="12" pan="0" len="12"/>
          <note key="71" vol="200" pos="24" pan="0" len="12"/>
          <note key="67" vol="200" pos="36" pan="0" len="12"/>
          <note key="69" vol="200" pos="48" pan="0" len="12"/>
          <note key="67" vol="200" pos="60" pan="0" len="12"/>
          <note key="71" vol="200" pos="72" pan="0" len="12"/>
          <note key="67" vol="200" pos="84" pan="0" len="12"/>
          <note key="73" vol="200" pos="96" pan="0" len="12"/>
          <note key="67" vol="200" pos="108" pan="0" len="12"/>
          <note key="71" vol="200" pos="120" pan="0" len="12"/>
          <note key="67" vol="200" pos="132" pan="0" len="12"/>
          <note key="69" vol="200" pos="144" pan="0" len="12"/>
          <note key="67" vol="200" pos="156" pan="0" len="12"/>
          <note key="71" vol="200" pos="168" pan="0" len="12"/>
          <note key="67" vol="200" pos="180" pan="0" len="12"/>
        </pattern>
        <pattern muted="0" pos="37440" steps="16" name="lgtH2" type="1">
          <note key="71" vol="200" pos="0" pan="0" len="12"/>
          <note key="2" vol="200" pos="0" pan="0" len="24"/>
          <note key="67" vol="200" pos="12" pan="0" len="12"/>
          <note key="71" vol="200" pos="24" pan="0" len="12"/>
          <note key="67" vol="200" pos="36" pan="0" len="12"/>
          <note key="69" vol="200" pos="48" pan="0" len="12"/>
          <note key="67" vol="200" pos="60" pan="0" len="12"/>
          <note key="71" vol="200" pos="72" pan="0" len="12"/>
          <note key="67" vol="200" pos="84" pan="0" len="12"/>
          <note key="73" vol="200" pos="96" pan="0" len="12"/>
          <note key="67" vol="200" pos="108" pan="0" len="12"/>
          <note key="71" vol="200" pos="120" pan="0" len="12"/>
          <note key="67" vol="200" pos="132" pan="0" len="12"/>
          <note key="73" vol="200" pos="144" pan="0" len="24"/>
          <note key="0" vol="200" pos="144" pan="0" len="24"/>
          <note key="74" vol="200" pos="168" pan="0" len="24"/>
        </pattern>
        <pattern muted="0" pos="37632" steps="16" name="lgtH2" type="1">
          <note key="76" vol="200" pos="0" pan="0" len="48"/>
          <note key="74" vol="200" pos="48" pan="0" len="48"/>
          <note key="73" vol="200" pos="96" pan="0" len="48"/>
          <note key="71" vol="200" pos="144" pan="0" len="48"/>
          <note key="73" vol="200" pos="192" pan="0" len="24"/>
          <note key="71" vol="200" pos="216" pan="0" len="24"/>
          <note key="69" vol="200" pos="240" pan="0" len="24"/>
          <note key="71" vol="200" pos="264" pan="0" len="48"/>
          <note key="69" vol="200" pos="312" pan="0" len="12"/>
          <note key="71" vol="200" pos="324" pan="0" len="12"/>
          <note key="69" vol="200" pos="336" pan="0" len="24"/>
          <note key="71" vol="200" pos="360" pan="0" len="24"/>
        </pattern>
        <pattern muted="0" pos="38016" steps="16" name="lgtH2" type="1">
          <note key="74" vol="200" pos="0" pan="0" len="12"/>
          <note key="2" vol="200" pos="0" pan="0" len="12"/>
          <note key="76" vol="200" pos="12" pan="0" len="12"/>
          <note key="74" vol="200" pos="24" pan="0" len="12"/>
          <note key="76" vol="200" pos="36" pan="0" len="12"/>
          <note key="74" vol="200" pos="48" pan="0" len="24"/>
          <note key="0" vol="200" pos="60" pan="0" len="12"/>
          <note key="73" vol="200" pos="72" pan="0" len="24"/>
          <note key="2" vol="200" pos="84" pan="0" len="12"/>
          <note key="69" vol="200" pos="96" pan="0" len="12"/>
          <note key="71" vol="200" pos="108" pan="0" len="12"/>
          <note key="69" vol="200" pos="120" pan="0" len="12"/>
          <note key="71" vol="200" pos="132" pan="0" len="12"/>
          <note key="69" vol="200" pos="144" pan="0" len="24"/>
          <note key="0" vol="200" pos="156" pan="0" len="12"/>
          <note key="67" vol="200" pos="168" pan="0" len="24"/>
          <note key="64" vol="200" pos="192" pan="0" len="24"/>
        </pattern>
        <pattern muted="0" pos="43392" steps="16" name="lgtH2" type="1">
          <note key="62" vol="100" pos="0" pan="0" len="24"/>
          <note key="1" vol="100" pos="0" pan="0" len="24"/>
          <note key="62" vol="100" pos="24" pan="0" len="24"/>
          <note key="0" vol="100" pos="36" pan="0" len="24"/>
          <note key="66" vol="100" pos="48" pan="0" len="24"/>
          <note key="62" vol="100" pos="72" pan="0" len="24"/>
          <note key="1" vol="100" pos="72" pan="0" len="24"/>
          <note key="62" vol="100" pos="96" pan="0" len="24"/>
          <note key="0" vol="100" pos="108" pan="0" len="24"/>
          <note key="64" vol="100" pos="120" pan="0" len="24"/>
          <note key="1" vol="100" pos="132" pan="0" len="24"/>
          <note key="62" vol="100" pos="144" pan="0" len="24"/>
          <note key="62" vol="100" pos="168" pan="0" len="24"/>
          <note key="0" vol="100" pos="180" pan="0" len="24"/>
          <note key="67" vol="100" pos="192" pan="0" len="24"/>
          <note key="1" vol="100" pos="204" pan="0" len="24"/>
          <note key="62" vol="100" pos="216" pan="0" len="24"/>
          <note key="62" vol="100" pos="240" pan="0" len="24"/>
          <note key="0" vol="100" pos="252" pan="0" len="24"/>
          <note key="66" vol="100" pos="264" pan="0" len="24"/>
          <note key="1" vol="100" pos="276" pan="0" len="24"/>
          <note key="62" vol="100" pos="288" pan="0" len="24"/>
          <note key="62" vol="100" pos="312" pan="0" len="24"/>
          <note key="0" vol="100" pos="324" pan="0" len="24"/>
          <note key="64" vol="100" pos="336" pan="0" len="24"/>
          <note key="2" vol="100" pos="348" pan="0" len="24"/>
          <note key="66" vol="100" pos="360" pan="0" len="24"/>
        </pattern>
        <pattern muted="0" pos="43776" steps="16" name="lgtH2" type="1">
          <note key="62" vol="100" pos="0" pan="0" len="24"/>
          <note key="1" vol="100" pos="0" pan="0" len="24"/>
          <note key="62" vol="100" pos="24" pan="0" len="24"/>
          <note key="0" vol="100" pos="36" pan="0" len="24"/>
          <note key="66" vol="100" pos="48" pan="0" len="24"/>
          <note key="62" vol="100" pos="72" pan="0" len="24"/>
          <note key="1" vol="100" pos="72" pan="0" len="24"/>
          <note key="62" vol="100" pos="96" pan="0" len="24"/>
          <note key="0" vol="100" pos="108" pan="0" len="24"/>
          <note key="64" vol="100" pos="120" pan="0" len="24"/>
          <note key="1" vol="100" pos="132" pan="0" len="24"/>
          <note key="62" vol="100" pos="144" pan="0" len="24"/>
          <note key="62" vol="100" pos="168" pan="0" len="24"/>
          <note key="0" vol="100" pos="180" pan="0" len="24"/>
          <note key="67" vol="100" pos="192" pan="0" len="24"/>
          <note key="1" vol="100" pos="204" pan="0" len="24"/>
          <note key="62" vol="100" pos="216" pan="0" len="24"/>
          <note key="62" vol="100" pos="240" pan="0" len="24"/>
          <note key="0" vol="100" pos="252" pan="0" len="24"/>
          <note key="66" vol="100" pos="264" pan="0" len="24"/>
          <note key="1" vol="100" pos="276" pan="0" len="24"/>
          <note key="62" vol="100" pos="288" pan="0" len="24"/>
          <note key="62" vol="100" pos="312" pan="0" len="24"/>
          <note key="0" vol="100" pos="324" pan="0" len="24"/>
          <note key="64" vol="100" pos="336" pan="0" len="24"/>
          <note key="2" vol="100" pos="348" pan="0" len="24"/>
          <note key="66" vol="100" pos="360" pan="0" len="24"/>
        </pattern>
        <pattern muted="0" pos="44160" steps="16" name="lgtH2" type="1">
          <note key="62" vol="100" pos="0" pan="0" len="24"/>
          <note key="1" vol="100" pos="0" pan="0" len="24"/>
          <note key="62" vol="100" pos="24" pan="0" len="24"/>
          <note key="0" vol="100" pos="36" pan="0" len="24"/>
          <note key="66" vol="100" pos="48" pan="0" len="24"/>
          <note key="62" vol="100" pos="72" pan="0" len="24"/>
          <note key="1" vol="100" pos="72" pan="0" len="24"/>
          <note key="62" vol="100" pos="96" pan="0" len="24"/>
          <note key="0" vol="100" pos="108" pan="0" len="24"/>
          <note key="64" vol="100" pos="120" pan="0" len="24"/>
          <note key="1" vol="100" pos="132" pan="0" len="24"/>
          <note key="62" vol="100" pos="144" pan="0" len="24"/>
          <note key="62" vol="100" pos="168" pan="0" len="24"/>
          <note key="0" vol="100" pos="180" pan="0" len="24"/>
          <note key="67" vol="100" pos="192" pan="0" len="24"/>
          <note key="1" vol="100" pos="204" pan="0" len="24"/>
          <note key="62" vol="100" pos="216" pan="0" len="24"/>
          <note key="62" vol="100" pos="240" pan="0" len="24"/>
          <note key="0" vol="100" pos="252" pan="0" len="24"/>
          <note key="66" vol="100" pos="264" pan="0" len="24"/>
          <note key="1" vol="100" pos="276" pan="0" len="24"/>
          <note key="62" vol="100" pos="288" pan="0" len="24"/>
          <note key="62" vol="100" pos="312" pan="0" len="24"/>
          <note key="0" vol="100" pos="324" pan="0" len="24"/>
          <note key="64" vol="100" pos="336" pan="0" len="24"/>
          <note key="2" vol="100" pos="348" pan="0" len="24"/>
          <note key="66" vol="100" pos="360" pan="0" len="24"/>
        </pattern>
        <pattern muted="0" pos="44544" steps="16" name="lgtH2" type="1">
          <note key="62" vol="100" pos="0" pan="0" len="24"/>
          <note key="1" vol="100" pos="0" pan="0" len="24"/>
          <note key="62" vol="100" pos="24" pan="0" len="24"/>
          <note key="0" vol="100" pos="36" pan="0" len="24"/>
          <note key="66" vol="100" pos="48" pan="0" len="24"/>
          <note key="62" vol="100" pos="72" pan="0" len="24"/>
          <note key="1" vol="100" pos="72" pan="0" len="24"/>
          <note key="62" vol="100" pos="96" pan="0" len="24"/>
          <note key="0" vol="100" pos="108" pan="0" len="24"/>
          <note key="64" vol="100" pos="120" pan="0" len="24"/>
          <note key="1" vol="100" pos="132" pan="0" len="24"/>
          <note key="62" vol="100" pos="144" pan="0" len="24"/>
          <note key="62" vol="100" pos="168" pan="0" len="24"/>
          <note key="0" vol="100" pos="180" pan="0" len="24"/>
          <note key="67" vol="100" pos="192" pan="0" len="24"/>
          <note key="1" vol="100" pos="204" pan="0" len="24"/>
          <note key="62" vol="100" pos="216" pan="0" len="24"/>
          <note key="62" vol="100" pos="240" pan="0" len="24"/>
          <note key="0" vol="100" pos="252" pan="0" len="24"/>
          <note key="66" vol="100" pos="264" pan="0" len="24"/>
          <note key="1" vol="100" pos="276" pan="0" len="24"/>
          <note key="62" vol="100" pos="288" pan="0" len="24"/>
          <note key="62" vol="100" pos="312" pan="0" len="24"/>
          <note key="0" vol="100" pos="324" pan="0" len="24"/>
          <note key="64" vol="100" pos="336" pan="0" len="24"/>
          <note key="2" vol="100" pos="348" pan="0" len="24"/>
          <note key="66" vol="100" pos="360" pan="0" len="24"/>
        </pattern>
        <pattern muted="0" pos="44928" steps="16" name="lgtH2" type="1">
          <note key="62" vol="100" pos="0" pan="0" len="24"/>
          <note key="1" vol="100" pos="0" pan="0" len="24"/>
          <note key="62" vol="100" pos="24" pan="0" len="24"/>
          <note key="0" vol="100" pos="36" pan="0" len="24"/>
          <note key="66" vol="100" pos="48" pan="0" len="24"/>
          <note key="62" vol="100" pos="72" pan="0" len="24"/>
          <note key="1" vol="100" pos="72" pan="0" len="24"/>
          <note key="62" vol="100" pos="96" pan="0" len="24"/>
          <note key="0" vol="100" pos="108" pan="0" len="24"/>
          <note key="64" vol="100" pos="120" pan="0" len="24"/>
          <note key="1" vol="100" pos="132" pan="0" len="24"/>
          <note key="62" vol="100" pos="144" pan="0" len="24"/>
          <note key="62" vol="100" pos="168" pan="0" len="24"/>
          <note key="0" vol="100" pos="180" pan="0" len="24"/>
          <note key="67" vol="100" pos="192" pan="0" len="24"/>
          <note key="1" vol="100" pos="204" pan="0" len="24"/>
          <note key="62" vol="100" pos="216" pan="0" len="24"/>
          <note key="62" vol="100" pos="240" pan="0" len="24"/>
          <note key="0" vol="100" pos="252" pan="0" len="24"/>
          <note key="66" vol="100" pos="264" pan="0" len="24"/>
          <note key="1" vol="100" pos="276" pan="0" len="24"/>
          <note key="62" vol="100" pos="288" pan="0" len="24"/>
          <note key="62" vol="100" pos="312" pan="0" len="24"/>
          <note key="0" vol="100" pos="324" pan="0" len="24"/>
          <note key="64" vol="100" pos="336" pan="0" len="24"/>
          <note key="2" vol="100" pos="348" pan="0" len="24"/>
          <note key="66" vol="100" pos="360" pan="0" len="24"/>
        </pattern>
        <pattern muted="0" pos="45312" steps="16" name="lgtH2" type="1">
          <note key="62" vol="100" pos="0" pan="0" len="24"/>
          <note key="1" vol="100" pos="0" pan="0" len="24"/>
          <note key="62" vol="100" pos="24" pan="0" len="24"/>
          <note key="0" vol="100" pos="36" pan="0" len="24"/>
          <note key="66" vol="100" pos="48" pan="0" len="24"/>
          <note key="62" vol="100" pos="72" pan="0" len="24"/>
          <note key="1" vol="100" pos="72" pan="0" len="24"/>
          <note key="62" vol="100" pos="96" pan="0" len="24"/>
          <note key="0" vol="100" pos="108" pan="0" len="24"/>
          <note key="64" vol="100" pos="120" pan="0" len="24"/>
          <note key="1" vol="100" pos="132" pan="0" len="24"/>
          <note key="62" vol="100" pos="144" pan="0" len="24"/>
          <note key="62" vol="100" pos="168" pan="0" len="24"/>
          <note key="0" vol="100" pos="180" pan="0" len="24"/>
          <note key="67" vol="100" pos="192" pan="0" len="24"/>
          <note key="1" vol="100" pos="204" pan="0" len="24"/>
          <note key="62" vol="100" pos="216" pan="0" len="24"/>
          <note key="62" vol="100" pos="240" pan="0" len="24"/>
          <note key="0" vol="100" pos="252" pan="0" len="24"/>
          <note key="66" vol="100" pos="264" pan="0" len="24"/>
          <note key="1" vol="100" pos="276" pan="0" len="24"/>
          <note key="62" vol="100" pos="288" pan="0" len="24"/>
          <note key="62" vol="100" pos="312" pan="0" len="24"/>
          <note key="0" vol="100" pos="324" pan="0" len="24"/>
          <note key="64" vol="100" pos="336" pan="0" len="24"/>
          <note key="2" vol="100" pos="348" pan="0" len="24"/>
          <note key="66" vol="100" pos="360" pan="0" len="24"/>
        </pattern>
        <pattern muted="0" pos="45696" steps="16" name="lgtH2" type="1">
          <note key="62" vol="100" pos="0" pan="0" len="24"/>
          <note key="1" vol="100" pos="0" pan="0" len="24"/>
          <note key="62" vol="100" pos="24" pan="0" len="24"/>
          <note key="0" vol="100" pos="36" pan="0" len="24"/>
          <note key="66" vol="100" pos="48" pan="0" len="24"/>
          <note key="62" vol="100" pos="72" pan="0" len="24"/>
          <note key="1" vol="100" pos="72" pan="0" len="24"/>
          <note key="62" vol="100" pos="96" pan="0" len="24"/>
          <note key="0" vol="100" pos="108" pan="0" len="24"/>
          <note key="64" vol="100" pos="120" pan="0" len="24"/>
          <note key="1" vol="100" pos="132" pan="0" len="24"/>
          <note key="62" vol="100" pos="144" pan="0" len="24"/>
          <note key="62" vol="100" pos="168" pan="0" len="24"/>
          <note key="0" vol="100" pos="180" pan="0" len="24"/>
          <note key="67" vol="100" pos="192" pan="0" len="24"/>
          <note key="1" vol="100" pos="204" pan="0" len="24"/>
          <note key="62" vol="100" pos="216" pan="0" len="24"/>
          <note key="62" vol="100" pos="240" pan="0" len="24"/>
          <note key="0" vol="100" pos="252" pan="0" len="24"/>
          <note key="66" vol="100" pos="264" pan="0" len="24"/>
          <note key="1" vol="100" pos="276" pan="0" len="24"/>
          <note key="62" vol="100" pos="288" pan="0" len="24"/>
          <note key="62" vol="100" pos="312" pan="0" len="24"/>
          <note key="0" vol="100" pos="324" pan="0" len="24"/>
          <note key="64" vol="100" pos="336" pan="0" len="24"/>
          <note key="2" vol="100" pos="348" pan="0" len="24"/>
          <note key="66" vol="100" pos="360" pan="0" len="24"/>
        </pattern>
        <pattern muted="0" pos="46080" steps="16" name="lgtH2" type="1">
          <note key="62" vol="195" pos="0" pan="0" len="384"/>
          <note key="0" vol="195" pos="0" pan="0" len="384"/>
        </pattern>
        <pattern muted="0" pos="26880" steps="16" name="lgtH2" type="1">
          <note key="71" vol="195" pos="0" pan="0" len="72"/>
          <note key="71" vol="195" pos="72" pan="0" len="72"/>
          <note key="71" vol="195" pos="144" pan="0" len="48"/>
          <note key="73" vol="195" pos="192" pan="0" len="72"/>
          <note key="71" vol="195" pos="264" pan="0" len="72"/>
          <note key="73" vol="195" pos="336" pan="0" len="48"/>
          <note key="74" vol="195" pos="384" pan="0" len="72"/>
          <note key="74" vol="195" pos="456" pan="0" len="72"/>
          <note key="74" vol="195" pos="528" pan="0" len="48"/>
          <note key="76" vol="195" pos="576" pan="0" len="72"/>
          <note key="78" vol="195" pos="648" pan="0" len="48"/>
          <note key="79" vol="195" pos="696" pan="0" len="24"/>
          <note key="78" vol="195" pos="720" pan="0" len="24"/>
          <note key="79" vol="195" pos="744" pan="0" len="24"/>
        </pattern>
        <pattern muted="0" pos="16896" steps="16" name="lgtH2" type="1">
          <note key="71" vol="195" pos="0" pan="0" len="72"/>
          <note key="71" vol="195" pos="72" pan="0" len="72"/>
          <note key="71" vol="195" pos="144" pan="0" len="48"/>
          <note key="73" vol="195" pos="192" pan="0" len="72"/>
          <note key="71" vol="195" pos="264" pan="0" len="72"/>
          <note key="73" vol="195" pos="336" pan="0" len="48"/>
          <note key="74" vol="195" pos="384" pan="0" len="72"/>
          <note key="74" vol="195" pos="456" pan="0" len="72"/>
          <note key="74" vol="195" pos="528" pan="0" len="48"/>
          <note key="76" vol="195" pos="576" pan="0" len="72"/>
          <note key="78" vol="195" pos="648" pan="0" len="48"/>
          <note key="79" vol="195" pos="696" pan="0" len="24"/>
          <note key="78" vol="195" pos="720" pan="0" len="24"/>
          <note key="79" vol="195" pos="744" pan="0" len="24"/>
        </pattern>
        <pattern muted="0" pos="13824" steps="16" name="lgtH2" type="1">
          <note key="74" vol="197" pos="0" pan="0" len="72"/>
          <note key="0" vol="197" pos="0" pan="0" len="48"/>
          <note key="73" vol="197" pos="72" pan="0" len="72"/>
          <note key="74" vol="197" pos="144" pan="0" len="48"/>
          <note key="74" vol="197" pos="192" pan="0" len="72"/>
          <note key="73" vol="197" pos="264" pan="0" len="72"/>
          <note key="74" vol="197" pos="336" pan="0" len="48"/>
          <note key="74" vol="197" pos="384" pan="0" len="72"/>
          <note key="73" vol="197" pos="456" pan="0" len="72"/>
          <note key="74" vol="197" pos="528" pan="0" len="48"/>
          <note key="74" vol="197" pos="576" pan="0" len="24"/>
          <note key="2" vol="197" pos="588" pan="0" len="120"/>
          <note key="76" vol="197" pos="600" pan="0" len="72"/>
          <note key="0" vol="197" pos="660" pan="0" len="48"/>
          <note key="74" vol="197" pos="672" pan="0" len="48"/>
          <note key="73" vol="197" pos="720" pan="0" len="48"/>
        </pattern>
        <pattern muted="0" pos="14592" steps="16" name="" type="1">
          <note key="74" vol="197" pos="0" pan="0" len="72"/>
          <note key="0" vol="197" pos="0" pan="0" len="48"/>
          <note key="73" vol="197" pos="72" pan="0" len="72"/>
          <note key="74" vol="197" pos="144" pan="0" len="48"/>
          <note key="74" vol="197" pos="192" pan="0" len="72"/>
          <note key="73" vol="197" pos="264" pan="0" len="72"/>
          <note key="74" vol="197" pos="336" pan="0" len="48"/>
          <note key="74" vol="197" pos="384" pan="0" len="72"/>
          <note key="73" vol="197" pos="456" pan="0" len="72"/>
          <note key="74" vol="197" pos="528" pan="0" len="48"/>
          <note key="76" vol="197" pos="576" pan="0" len="72"/>
          <note key="78" vol="197" pos="648" pan="0" len="72"/>
          <note key="76" vol="197" pos="720" pan="0" len="48"/>
        </pattern>
        <pattern muted="0" pos="15360" steps="16" name="" type="1">
          <note key="78" vol="100" pos="0" pan="0" len="72"/>
          <note key="0" vol="100" pos="0" pan="0" len="48"/>
          <note key="76" vol="100" pos="72" pan="0" len="72"/>
          <note key="78" vol="100" pos="144" pan="0" len="48"/>
          <note key="78" vol="100" pos="192" pan="0" len="72"/>
          <note key="76" vol="100" pos="264" pan="0" len="72"/>
          <note key="78" vol="100" pos="336" pan="0" len="48"/>
          <note key="79" vol="100" pos="384" pan="0" len="72"/>
          <note key="78" vol="100" pos="456" pan="0" len="72"/>
          <note key="76" vol="100" pos="528" pan="0" len="48"/>
          <note key="78" vol="100" pos="576" pan="0" len="72"/>
          <note key="76" vol="100" pos="648" pan="0" len="72"/>
          <note key="74" vol="100" pos="720" pan="0" len="48"/>
        </pattern>
        <pattern muted="0" pos="26112" steps="16" name="" type="1">
          <note key="73" vol="195" pos="0" pan="0" len="72"/>
          <note key="0" vol="195" pos="0" pan="0" len="48"/>
          <note key="69" vol="195" pos="72" pan="0" len="72"/>
          <note key="71" vol="195" pos="144" pan="0" len="48"/>
          <note key="73" vol="195" pos="192" pan="0" len="72"/>
          <note key="74" vol="195" pos="264" pan="0" len="72"/>
          <note key="73" vol="195" pos="336" pan="0" len="48"/>
          <note key="74" vol="195" pos="384" pan="0" len="48"/>
          <note key="69" vol="195" pos="432" pan="0" len="48"/>
          <note key="74" vol="195" pos="480" pan="0" len="24"/>
          <note key="1" vol="195" pos="492" pan="0" len="48"/>
          <note key="69" vol="195" pos="504" pan="0" len="24"/>
          <note key="74" vol="195" pos="528" pan="0" len="24"/>
          <note key="0" vol="195" pos="540" pan="0" len="48"/>
          <note key="76" vol="195" pos="552" pan="0" len="24"/>
          <note key="76" vol="195" pos="576" pan="0" len="24"/>
          <note key="2" vol="195" pos="588" pan="0" len="24"/>
          <note key="78" vol="195" pos="600" pan="0" len="48"/>
          <note key="0" vol="195" pos="612" pan="0" len="24"/>
          <note key="79" vol="195" pos="648" pan="0" len="48"/>
          <note key="78" vol="195" pos="696" pan="0" len="24"/>
          <note key="76" vol="195" pos="720" pan="0" len="24"/>
          <note key="74" vol="195" pos="744" pan="0" len="24"/>
        </pattern>
        <pattern muted="0" pos="16128" steps="16" name="" type="1">
          <note key="73" vol="195" pos="0" pan="0" len="72"/>
          <note key="0" vol="195" pos="0" pan="0" len="48"/>
          <note key="69" vol="195" pos="72" pan="0" len="72"/>
          <note key="71" vol="195" pos="144" pan="0" len="48"/>
          <note key="73" vol="195" pos="192" pan="0" len="72"/>
          <note key="74" vol="195" pos="264" pan="0" len="72"/>
          <note key="73" vol="195" pos="336" pan="0" len="48"/>
          <note key="74" vol="195" pos="384" pan="0" len="48"/>
          <note key="69" vol="195" pos="432" pan="0" len="48"/>
          <note key="74" vol="195" pos="480" pan="0" len="24"/>
          <note key="1" vol="195" pos="492" pan="0" len="48"/>
          <note key="69" vol="195" pos="504" pan="0" len="24"/>
          <note key="74" vol="195" pos="528" pan="0" len="24"/>
          <note key="0" vol="195" pos="540" pan="0" len="48"/>
          <note key="76" vol="195" pos="552" pan="0" len="24"/>
          <note key="76" vol="195" pos="576" pan="0" len="24"/>
          <note key="2" vol="195" pos="588" pan="0" len="24"/>
          <note key="78" vol="195" pos="600" pan="0" len="48"/>
          <note key="0" vol="195" pos="612" pan="0" len="24"/>
          <note key="79" vol="195" pos="648" pan="0" len="48"/>
          <note key="78" vol="195" pos="696" pan="0" len="24"/>
          <note key="76" vol="195" pos="720" pan="0" len="24"/>
          <note key="74" vol="195" pos="744" pan="0" len="24"/>
        </pattern>
        <pattern muted="0" pos="23808" steps="16" name="" type="1">
          <note key="74" vol="197" pos="0" pan="0" len="72"/>
          <note key="0" vol="197" pos="0" pan="0" len="48"/>
          <note key="73" vol="197" pos="72" pan="0" len="72"/>
          <note key="74" vol="197" pos="144" pan="0" len="48"/>
          <note key="74" vol="197" pos="192" pan="0" len="72"/>
          <note key="73" vol="197" pos="264" pan="0" len="72"/>
          <note key="74" vol="197" pos="336" pan="0" len="48"/>
          <note key="74" vol="197" pos="384" pan="0" len="72"/>
          <note key="73" vol="197" pos="456" pan="0" len="72"/>
          <note key="74" vol="197" pos="528" pan="0" len="48"/>
          <note key="74" vol="197" pos="576" pan="0" len="24"/>
          <note key="2" vol="197" pos="588" pan="0" len="120"/>
          <note key="76" vol="197" pos="600" pan="0" len="72"/>
          <note key="0" vol="197" pos="660" pan="0" len="48"/>
          <note key="74" vol="197" pos="672" pan="0" len="48"/>
          <note key="73" vol="197" pos="720" pan="0" len="48"/>
        </pattern>
        <pattern muted="0" pos="24576" steps="16" name="" type="1">
          <note key="74" vol="197" pos="0" pan="0" len="72"/>
          <note key="0" vol="197" pos="0" pan="0" len="48"/>
          <note key="73" vol="197" pos="72" pan="0" len="72"/>
          <note key="74" vol="197" pos="144" pan="0" len="48"/>
          <note key="74" vol="197" pos="192" pan="0" len="72"/>
          <note key="73" vol="197" pos="264" pan="0" len="72"/>
          <note key="74" vol="197" pos="336" pan="0" len="48"/>
          <note key="74" vol="197" pos="384" pan="0" len="72"/>
          <note key="73" vol="197" pos="456" pan="0" len="72"/>
          <note key="74" vol="197" pos="528" pan="0" len="48"/>
          <note key="76" vol="197" pos="576" pan="0" len="72"/>
          <note key="78" vol="197" pos="648" pan="0" len="72"/>
          <note key="76" vol="197" pos="720" pan="0" len="48"/>
        </pattern>
        <pattern muted="0" pos="28416" steps="16" name="" type="1">
          <note key="62" vol="200" pos="0" pan="0" len="48"/>
          <note key="69" vol="200" pos="48" pan="0" len="24"/>
          <note key="67" vol="200" pos="72" pan="0" len="48"/>
          <note key="66" vol="200" pos="120" pan="0" len="48"/>
          <note key="62" vol="200" pos="168" pan="0" len="96"/>
          <note key="69" vol="200" pos="264" pan="0" len="24"/>
          <note key="67" vol="200" pos="288" pan="0" len="48"/>
          <note key="66" vol="200" pos="336" pan="0" len="48"/>
          <note key="64" vol="200" pos="384" pan="0" len="48"/>
          <note key="62" vol="200" pos="432" pan="0" len="24"/>
          <note key="64" vol="200" pos="456" pan="0" len="48"/>
          <note key="66" vol="200" pos="504" pan="0" len="48"/>
          <note key="64" vol="200" pos="552" pan="0" len="96"/>
          <note key="64" vol="200" pos="648" pan="0" len="24"/>
          <note key="64" vol="200" pos="672" pan="0" len="48"/>
          <note key="66" vol="200" pos="720" pan="0" len="48"/>
          <note key="67" vol="200" pos="768" pan="0" len="48"/>
          <note key="69" vol="200" pos="816" pan="0" len="24"/>
          <note key="71" vol="200" pos="840" pan="0" len="48"/>
          <note key="74" vol="200" pos="888" pan="0" len="48"/>
          <note key="71" vol="200" pos="936" pan="0" len="72"/>
          <note key="69" vol="200" pos="1008" pan="0" len="48"/>
          <note key="67" vol="200" pos="1056" pan="0" len="48"/>
          <note key="69" vol="200" pos="1104" pan="0" len="48"/>
          <note key="69" vol="200" pos="1152" pan="0" len="48"/>
          <note key="69" vol="200" pos="1200" pan="0" len="24"/>
          <note key="69" vol="200" pos="1224" pan="0" len="48"/>
          <note key="69" vol="200" pos="1272" pan="0" len="24"/>
          <note key="69" vol="200" pos="1296" pan="0" len="24"/>
          <note key="67" vol="200" pos="1320" pan="0" len="24"/>
          <note key="66" vol="200" pos="1344" pan="0" len="48"/>
          <note key="69" vol="200" pos="1392" pan="0" len="48"/>
          <note key="67" vol="200" pos="1440" pan="0" len="48"/>
          <note key="66" vol="200" pos="1488" pan="0" len="48"/>
        </pattern>
        <pattern muted="0" pos="29952" steps="16" name="" type="1">
          <note key="62" vol="200" pos="0" pan="0" len="48"/>
          <note key="0" vol="200" pos="0" pan="0" len="48"/>
          <note key="69" vol="200" pos="48" pan="0" len="24"/>
          <note key="67" vol="200" pos="72" pan="0" len="48"/>
          <note key="66" vol="200" pos="120" pan="0" len="48"/>
          <note key="62" vol="200" pos="168" pan="0" len="96"/>
          <note key="69" vol="200" pos="264" pan="0" len="24"/>
          <note key="67" vol="200" pos="288" pan="0" len="48"/>
          <note key="66" vol="200" pos="336" pan="0" len="48"/>
          <note key="64" vol="200" pos="384" pan="0" len="48"/>
          <note key="62" vol="200" pos="432" pan="0" len="24"/>
          <note key="64" vol="200" pos="456" pan="0" len="48"/>
          <note key="66" vol="200" pos="504" pan="0" len="48"/>
          <note key="64" vol="200" pos="552" pan="0" len="96"/>
          <note key="64" vol="200" pos="648" pan="0" len="24"/>
          <note key="64" vol="200" pos="672" pan="0" len="48"/>
          <note key="66" vol="200" pos="720" pan="0" len="48"/>
          <note key="67" vol="200" pos="768" pan="0" len="48"/>
          <note key="69" vol="200" pos="816" pan="0" len="24"/>
          <note key="71" vol="200" pos="840" pan="0" len="48"/>
          <note key="74" vol="200" pos="888" pan="0" len="48"/>
          <note key="79" vol="200" pos="936" pan="0" len="72"/>
          <note key="78" vol="200" pos="1008" pan="0" len="48"/>
          <note key="76" vol="200" pos="1056" pan="0" len="48"/>
          <note key="74" vol="200" pos="1104" pan="0" len="48"/>
          <note key="78" vol="200" pos="1152" pan="0" len="48"/>
          <note key="76" vol="200" pos="1200" pan="0" len="24"/>
          <note key="76" vol="200" pos="1224" pan="0" len="48"/>
          <note key="76" vol="200" pos="1272" pan="0" len="24"/>
          <note key="76" vol="200" pos="1296" pan="0" len="24"/>
          <note key="74" vol="200" pos="1320" pan="0" len="24"/>
          <note key="73" vol="200" pos="1344" pan="0" len="72"/>
          <note key="71" vol="200" pos="1416" pan="0" len="72"/>
          <note key="73" vol="200" pos="1488" pan="0" len="48"/>
          <note key="74" vol="200" pos="1536" pan="0" len="384"/>
        </pattern>
        <pattern muted="0" pos="28224" steps="16" name="" type="1">
          <note key="81" vol="100" pos="48" pan="0" len="48"/>
          <note key="79" vol="100" pos="96" pan="0" len="48"/>
          <note key="78" vol="100" pos="144" pan="0" len="48"/>
        </pattern>
        <pattern muted="0" pos="18240" steps="16" name="" type="1">
          <note key="81" vol="100" pos="48" pan="0" len="48"/>
          <note key="79" vol="100" pos="96" pan="0" len="48"/>
          <note key="78" vol="100" pos="144" pan="0" len="48"/>
        </pattern>
        <pattern muted="0" pos="18432" steps="16" name="" type="1">
          <note key="62" vol="200" pos="0" pan="0" len="48"/>
          <note key="69" vol="200" pos="48" pan="0" len="24"/>
          <note key="67" vol="200" pos="72" pan="0" len="48"/>
          <note key="66" vol="200" pos="120" pan="0" len="48"/>
          <note key="62" vol="200" pos="168" pan="0" len="96"/>
          <note key="69" vol="200" pos="264" pan="0" len="24"/>
          <note key="67" vol="200" pos="288" pan="0" len="48"/>
          <note key="66" vol="200" pos="336" pan="0" len="48"/>
          <note key="64" vol="200" pos="384" pan="0" len="48"/>
          <note key="62" vol="200" pos="432" pan="0" len="24"/>
          <note key="64" vol="200" pos="456" pan="0" len="48"/>
          <note key="66" vol="200" pos="504" pan="0" len="48"/>
          <note key="64" vol="200" pos="552" pan="0" len="96"/>
          <note key="64" vol="200" pos="648" pan="0" len="24"/>
          <note key="64" vol="200" pos="672" pan="0" len="48"/>
          <note key="66" vol="200" pos="720" pan="0" len="48"/>
          <note key="67" vol="200" pos="768" pan="0" len="48"/>
          <note key="69" vol="200" pos="816" pan="0" len="24"/>
          <note key="71" vol="200" pos="840" pan="0" len="48"/>
          <note key="74" vol="200" pos="888" pan="0" len="48"/>
          <note key="71" vol="200" pos="936" pan="0" len="72"/>
          <note key="69" vol="200" pos="1008" pan="0" len="48"/>
          <note key="67" vol="200" pos="1056" pan="0" len="48"/>
          <note key="69" vol="200" pos="1104" pan="0" len="48"/>
          <note key="69" vol="200" pos="1152" pan="0" len="48"/>
          <note key="69" vol="200" pos="1200" pan="0" len="24"/>
          <note key="69" vol="200" pos="1224" pan="0" len="48"/>
          <note key="69" vol="200" pos="1272" pan="0" len="24"/>
          <note key="69" vol="200" pos="1296" pan="0" len="24"/>
          <note key="67" vol="200" pos="1320" pan="0" len="24"/>
          <note key="66" vol="200" pos="1344" pan="0" len="48"/>
          <note key="69" vol="200" pos="1392" pan="0" len="48"/>
          <note key="67" vol="200" pos="1440" pan="0" len="48"/>
          <note key="66" vol="200" pos="1488" pan="0" len="48"/>
        </pattern>
        <pattern muted="0" pos="19968" steps="16" name="" type="1">
          <note key="62" vol="200" pos="0" pan="0" len="48"/>
          <note key="0" vol="200" pos="0" pan="0" len="48"/>
          <note key="69" vol="200" pos="48" pan="0" len="24"/>
          <note key="67" vol="200" pos="72" pan="0" len="48"/>
          <note key="66" vol="200" pos="120" pan="0" len="48"/>
          <note key="62" vol="200" pos="168" pan="0" len="96"/>
          <note key="69" vol="200" pos="264" pan="0" len="24"/>
          <note key="67" vol="200" pos="288" pan="0" len="48"/>
          <note key="66" vol="200" pos="336" pan="0" len="48"/>
          <note key="64" vol="200" pos="384" pan="0" len="48"/>
          <note key="62" vol="200" pos="432" pan="0" len="24"/>
          <note key="64" vol="200" pos="456" pan="0" len="48"/>
          <note key="66" vol="200" pos="504" pan="0" len="48"/>
          <note key="64" vol="200" pos="552" pan="0" len="96"/>
          <note key="64" vol="200" pos="648" pan="0" len="24"/>
          <note key="64" vol="200" pos="672" pan="0" len="48"/>
          <note key="66" vol="200" pos="720" pan="0" len="48"/>
          <note key="67" vol="200" pos="768" pan="0" len="48"/>
          <note key="69" vol="200" pos="816" pan="0" len="24"/>
          <note key="71" vol="200" pos="840" pan="0" len="48"/>
          <note key="74" vol="200" pos="888" pan="0" len="48"/>
          <note key="79" vol="200" pos="936" pan="0" len="72"/>
          <note key="78" vol="200" pos="1008" pan="0" len="48"/>
          <note key="76" vol="200" pos="1056" pan="0" len="48"/>
          <note key="74" vol="200" pos="1104" pan="0" len="48"/>
          <note key="78" vol="200" pos="1152" pan="0" len="48"/>
          <note key="76" vol="200" pos="1200" pan="0" len="24"/>
          <note key="76" vol="200" pos="1224" pan="0" len="48"/>
          <note key="76" vol="200" pos="1272" pan="0" len="24"/>
          <note key="76" vol="200" pos="1296" pan="0" len="24"/>
          <note key="74" vol="200" pos="1320" pan="0" len="24"/>
          <note key="73" vol="200" pos="1344" pan="0" len="72"/>
          <note key="71" vol="200" pos="1416" pan="0" len="72"/>
          <note key="73" vol="200" pos="1488" pan="0" len="48"/>
          <note key="74" vol="200" pos="1536" pan="0" len="384"/>
        </pattern>
        <pattern muted="0" pos="39936" steps="16" name="" type="1">
          <note key="62" vol="200" pos="0" pan="0" len="48"/>
          <note key="69" vol="200" pos="48" pan="0" len="24"/>
          <note key="67" vol="200" pos="72" pan="0" len="48"/>
          <note key="66" vol="200" pos="120" pan="0" len="48"/>
          <note key="62" vol="200" pos="168" pan="0" len="96"/>
          <note key="69" vol="200" pos="264" pan="0" len="24"/>
          <note key="67" vol="200" pos="288" pan="0" len="48"/>
          <note key="66" vol="200" pos="336" pan="0" len="48"/>
          <note key="64" vol="200" pos="384" pan="0" len="48"/>
          <note key="62" vol="200" pos="432" pan="0" len="24"/>
          <note key="64" vol="200" pos="456" pan="0" len="48"/>
          <note key="66" vol="200" pos="504" pan="0" len="48"/>
          <note key="64" vol="200" pos="552" pan="0" len="96"/>
          <note key="64" vol="200" pos="648" pan="0" len="24"/>
          <note key="64" vol="200" pos="672" pan="0" len="48"/>
          <note key="66" vol="200" pos="720" pan="0" len="48"/>
          <note key="67" vol="200" pos="768" pan="0" len="48"/>
          <note key="69" vol="200" pos="816" pan="0" len="24"/>
          <note key="71" vol="200" pos="840" pan="0" len="48"/>
          <note key="74" vol="200" pos="888" pan="0" len="48"/>
          <note key="71" vol="200" pos="936" pan="0" len="72"/>
          <note key="69" vol="200" pos="1008" pan="0" len="48"/>
          <note key="67" vol="200" pos="1056" pan="0" len="48"/>
          <note key="69" vol="200" pos="1104" pan="0" len="48"/>
          <note key="69" vol="200" pos="1152" pan="0" len="48"/>
          <note key="69" vol="200" pos="1200" pan="0" len="24"/>
          <note key="69" vol="200" pos="1224" pan="0" len="48"/>
          <note key="69" vol="200" pos="1272" pan="0" len="24"/>
          <note key="69" vol="200" pos="1296" pan="0" len="24"/>
          <note key="67" vol="200" pos="1320" pan="0" len="24"/>
          <note key="66" vol="200" pos="1344" pan="0" len="48"/>
          <note key="69" vol="200" pos="1392" pan="0" len="48"/>
          <note key="67" vol="200" pos="1440" pan="0" len="48"/>
          <note key="66" vol="200" pos="1488" pan="0" len="48"/>
        </pattern>
        <pattern muted="0" pos="41472" steps="16" name="" type="1">
          <note key="62" vol="200" pos="0" pan="0" len="48"/>
          <note key="0" vol="200" pos="0" pan="0" len="48"/>
          <note key="69" vol="200" pos="48" pan="0" len="24"/>
          <note key="67" vol="200" pos="72" pan="0" len="48"/>
          <note key="66" vol="200" pos="120" pan="0" len="48"/>
          <note key="62" vol="200" pos="168" pan="0" len="96"/>
          <note key="69" vol="200" pos="264" pan="0" len="24"/>
          <note key="67" vol="200" pos="288" pan="0" len="48"/>
          <note key="66" vol="200" pos="336" pan="0" len="48"/>
          <note key="64" vol="200" pos="384" pan="0" len="48"/>
          <note key="62" vol="200" pos="432" pan="0" len="24"/>
          <note key="64" vol="200" pos="456" pan="0" len="48"/>
          <note key="66" vol="200" pos="504" pan="0" len="48"/>
          <note key="64" vol="200" pos="552" pan="0" len="96"/>
          <note key="64" vol="200" pos="648" pan="0" len="24"/>
          <note key="64" vol="200" pos="672" pan="0" len="48"/>
          <note key="66" vol="200" pos="720" pan="0" len="48"/>
          <note key="67" vol="200" pos="768" pan="0" len="48"/>
          <note key="69" vol="200" pos="816" pan="0" len="24"/>
          <note key="71" vol="200" pos="840" pan="0" len="48"/>
          <note key="74" vol="200" pos="888" pan="0" len="48"/>
          <note key="79" vol="200" pos="936" pan="0" len="72"/>
          <note key="78" vol="200" pos="1008" pan="0" len="48"/>
          <note key="76" vol="200" pos="1056" pan="0" len="48"/>
          <note key="74" vol="200" pos="1104" pan="0" len="48"/>
          <note key="78" vol="200" pos="1152" pan="0" len="48"/>
          <note key="76" vol="200" pos="1200" pan="0" len="24"/>
          <note key="76" vol="200" pos="1224" pan="0" len="48"/>
          <note key="76" vol="200" pos="1272" pan="0" len="24"/>
          <note key="76" vol="200" pos="1296" pan="0" len="24"/>
          <note key="74" vol="200" pos="1320" pan="0" len="24"/>
          <note key="73" vol="200" pos="1344" pan="0" len="72"/>
          <note key="71" vol="200" pos="1416" pan="0" len="72"/>
          <note key="73" vol="200" pos="1488" pan="0" len="48"/>
        </pattern>
      </track>
      <track muted="0" solo="0" name="clean gt" type="0">
        <instrumenttrack fxch="0" usemasterpitch="1" vol="101" pitch="0" pitchrange="1" pan="0" basenote="45">
          <instrument name="carlapatchbay">
            <carlapatchbay>
              <CARLA-PROJECT VERSION="2.2">
                <EngineSettings>
                  <ForceStereo>false</ForceStereo>
                  <PreferPluginBridges>false</PreferPluginBridges>
                  <PreferUiBridges>true</PreferUiBridges>
                  <UIsAlwaysOnTop>false</UIsAlwaysOnTop>
                  <MaxParameters>200</MaxParameters>
                  <UIBridgesTimeout>4000</UIBridgesTimeout>
                  <LADSPA_PATH>/home/pass/.ladspa:/usr/lib/ladspa:/usr/local/lib/ladspa</LADSPA_PATH>
                  <DSSI_PATH>/home/pass/.dssi:/usr/lib/dssi:/usr/local/lib/dssi</DSSI_PATH>
                  <LV2_PATH>/home/pass/.lv2:/usr/lib/lv2:/usr/local/lib/lv2</LV2_PATH>
                  <VST2_PATH>/home/pass/.vst:/home/pass/.wine/drive_c/Program Files (x86)/VstPlugins:/home/pass/.wine/drive_c/Program Files/VstPlugins:/home/pass/vst:/usr/lib/lxvst:/usr/lib/vst:/usr/local/lib/lxvst:/usr/local/lib/vst/home/pass/.lxvst</VST2_PATH>
                  <VST3_PATH>/home/pass/.vst3:/home/pass/.wine/drive_c/Program Files (x86)/Common Files/VST3:/home/pass/.wine/drive_c/Program Files/Common Files/VST3:/usr/lib/vst3:/usr/local/lib/vst3</VST3_PATH>
                  <SF2_PATH>/home/pass/.sounds/sf2/home/pass/.sounds/sf3:/home/pass/samples/soundfonts:/usr/share/soundfonts:/usr/share/sounds/sf2:/usr/share/sounds/sf3</SF2_PATH>
                  <SFZ_PATH>/home/pass/.sounds/sfz:/home/pass/samples:/usr/share/sounds/sfz</SFZ_PATH>
                </EngineSettings>
                <!-- sfizz -->
                <Plugin>
                  <Info>
                    <Type>LV2</Type>
                    <Name>sfizz</Name>
                    <URI>http://sfztools.github.io/sfizz</URI>
                  </Info>
                  <Data>
                    <Active>Yes</Active>
                    <ControlChannel>1</ControlChannel>
                    <Options>0x3f0</Options>
                    <Parameter>
                      <Index>0</Index>
                      <Name>Volume</Name>
                      <Symbol>volume</Symbol>
                      <Value>0</Value>
                    </Parameter>
                    <Parameter>
                      <Index>1</Index>
                      <Name>Polyphony</Name>
                      <Symbol>num_voices</Symbol>
                      <Value>64</Value>
                    </Parameter>
                    <Parameter>
                      <Index>2</Index>
                      <Name>Internal oversampling factor</Name>
                      <Symbol>oversampling</Symbol>
                      <Value>1</Value>
                    </Parameter>
                    <Parameter>
                      <Index>3</Index>
                      <Name>Preload size</Name>
                      <Symbol>preload_size</Symbol>
                      <Value>8192</Value>
                    </Parameter>
                    <Parameter>
                      <Index>5</Index>
                      <Name>Scala root key</Name>
                      <Symbol>scala_root_key</Symbol>
                      <Value>60</Value>
                    </Parameter>
                    <Parameter>
                      <Index>6</Index>
                      <Name>Tuning frequency</Name>
                      <Symbol>tuning_frequency</Symbol>
                      <Value>440</Value>
                    </Parameter>
                    <Parameter>
                      <Index>7</Index>
                      <Name>Stretched tuning</Name>
                      <Symbol>stretched_tuning</Symbol>
                      <Value>0</Value>
                    </Parameter>
                    <CustomData>
                      <Type>http://lv2plug.in/ns/ext/atom#Path</Type>
                      <Key>http://sfztools.github.io/sfizz:sfzfile</Key>
                      <Value>_fakeguitar1_integrated.sfz</Value>
                    </CustomData>
                    <CustomData>
                      <Type>http://lv2plug.in/ns/ext/atom#Int</Type>
                      <Key>http://sfztools.github.io/sfizz:numvoices</Key>
                      <Value>QAAAAA==</Value>
                    </CustomData>
                    <CustomData>
                      <Type>http://lv2plug.in/ns/ext/atom#Int</Type>
                      <Key>http://sfztools.github.io/sfizz:preload_size</Key>
                      <Value>ACAAAA==</Value>
                    </CustomData>
                    <CustomData>
                      <Type>http://lv2plug.in/ns/ext/atom#Int</Type>
                      <Key>http://sfztools.github.io/sfizz:oversampling</Key>
                      <Value>AQAAAA==</Value>
                    </CustomData>
                    <CustomData>
                      <Type>http://lv2plug.in/ns/ext/atom#Path</Type>
                      <Key>http://sfztools.github.io/sfizz:tuningfile</Key>
                      <Value>DefaultScale.scl</Value>
                    </CustomData>
                  </Data>
                </Plugin>
                <Patchbay>
                  <Connection>
                    <Source>Midi Input:Capture 1</Source>
                    <Target>sfizz:events-in</Target>
                  </Connection>
                  <Connection>
                    <Source>sfizz:Left Output</Source>
                    <Target>Audio Output:Left</Target>
                  </Connection>
                  <Connection>
                    <Source>sfizz:Right Output</Source>
                    <Target>Audio Output:Right</Target>
                  </Connection>
                  <Positions>
                    <Position y1="1353" pluginId="0" x1="1693">
                      <Name>sfizz</Name>
                    </Position>
                  </Positions>
                </Patchbay>
              </CARLA-PROJECT>
            </carlapatchbay>
          </instrument>
          <eldata fres="0.5" fwet="0" fcut="14000" ftype="0">
            <elvol pdel="0" latt="0" lshp="0" lspd_denominator="4" lamt="0" amt="0" sustain="0.5" lspd_syncmode="0" att="0" x100="0" lspd_numerator="4" lspd="0.1" ctlenvamt="0" dec="0.5" lpdel="0" hold="0.5" userwavefile="" rel="0.1"/>
            <elcut pdel="0" latt="0" lshp="0" lspd_denominator="4" lamt="0" amt="0" sustain="0.5" lspd_syncmode="0" att="0" x100="0" lspd_numerator="4" lspd="0.1" ctlenvamt="0" dec="0.5" lpdel="0" hold="0.5" userwavefile="" rel="0.1"/>
            <elres pdel="0" latt="0" lshp="0" lspd_denominator="4" lamt="0" amt="0" sustain="0.5" lspd_syncmode="0" att="0" x100="0" lspd_numerator="4" lspd="0.1" ctlenvamt="0" dec="0.5" lpdel="0" hold="0.5" userwavefile="" rel="0.1"/>
          </eldata>
          <chordcreator chordrange="1" chord="0" chord-enabled="0"/>
          <arpeggiator arptime="200" arpskip="0" arpgate="100" arptime_syncmode="0" arpmode="0" arprange="1" arp="0" arpcycle="0" arptime_denominator="4" arptime_numerator="4" arpdir="0" arp-enabled="0" arpmiss="0"/>
          <midiport outputchannel="1" inputcontroller="0" inports="" outports="" inputchannel="0" basevelocity="63" outputprogram="1" readable="1" outputcontroller="0" fixedinputvelocity="-1" fixedoutputnote="-1" writable="1" fixedoutputvelocity="-1"/>
          <fxchain numofeffects="3" enabled="1">
            <effect wet="1" autoquit_denominator="4" on="1" autoquit_numerator="4" gate="0" autoquit_syncmode="0" autoquit="1" name="ladspaeffect">
              <ladspacontrols ports="12" link="0">
                <port01 data_syncmode="0" link="0" data_numerator="4" data_denominator="4">
                  <data value="4.21875" id="1597417" scale_type="log"/>
                </port01>
                <port02 data_syncmode="0" link="1" data="1.95938" data_numerator="4" data_denominator="4"/>
                <port03 link="0" data="0.83125"/>
                <port04 link="1" data="1"/>
                <port05 link="0" data="0.605"/>
                <port06 link="1" data="0"/>
                <port11 data_syncmode="0" data_numerator="4" data_denominator="4">
                  <data value="5" id="8101823" scale_type="log"/>
                </port11>
                <port12 data_syncmode="0" data="1.95938" data_numerator="4" data_denominator="4"/>
                <port13 data="1.66875"/>
                <port14 data="1"/>
                <port15 data="0.43875"/>
                <port16 data="0"/>
              </ladspacontrols>
              <key>
                <attribute value="caps" name="file"/>
                <attribute value="ChorusI" name="plugin"/>
              </key>
            </effect>
            <effect wet="1" autoquit_denominator="4" on="1" autoquit_numerator="4" gate="0" autoquit_syncmode="0" autoquit="1" name="ladspaeffect">
              <ladspacontrols ports="9">
                <port07>
                  <data value="0.989846" id="6962959" scale_type="log"/>
                </port07>
                <port08>
                  <data value="6324.56" id="5691541" scale_type="log"/>
                </port08>
                <port09 data="2"/>
                <port010 data="0.5"/>
                <port011 data="0.5"/>
                <port012 data="1"/>
                <port013 data="0"/>
                <port014>
                  <data value="632.456" id="2700134" scale_type="log"/>
                </port014>
                <port015>
                  <data value="3556.56" id="3450079" scale_type="log"/>
                </port015>
              </ladspacontrols>
              <key>
                <attribute value="calf" name="file"/>
                <attribute value="Reverb" name="plugin"/>
              </key>
            </effect>
            <effect wet="1" autoquit_denominator="4" on="1" autoquit_numerator="4" gate="0" autoquit_syncmode="0" autoquit="1" name="eq">
              <Eq Lowshelfactive="0" Peak1bw="0.3" Peak1active="0" LP48="0" HP24="0" HP48="0" LP="0" LPres="0.707" LP12="1" Peak3bw="0.3" LowShelfres="1.4" Outputgain="0" LPactive="0" HP12="1" Peak4active="0" Peak3gain="0" HighShelfres="1.4" LP24="0" Peak2gain="0" Peak3active="0" Peak2bw="0.3" HPactive="0" Peak4bw="0.3" Highshelfactive="1" HP="0" AnalyseIn="1" Peak2active="0" Lowshelfgain="0" HPres="0.707" Peak4gain="0" AnalyseOut="1" HighShelfgain="2.34">
                <Inputgain value="0" id="2728854" scale_type="log"/>
                <Peak1gain value="0" id="7044872" scale_type="log"/>
                <HPfreq value="31" id="6571347" scale_type="log"/>
                <LowShelffreq value="80" id="8343197" scale_type="log"/>
                <Peak1freq value="120" id="449787" scale_type="log"/>
                <Peak2freq value="250" id="5218942" scale_type="log"/>
                <Peak3freq value="2000" id="890820" scale_type="log"/>
                <Peak4freq value="4000" id="2887760" scale_type="log"/>
                <Highshelffreq value="967.939" id="2312957" scale_type="log"/>
                <LPfreq value="18000" id="4287177" scale_type="log"/>
              </Eq>
              <key/>
            </effect>
          </fxchain>
        </instrumenttrack>
        <pattern muted="0" pos="0" steps="16" name="clean gt" type="1">
          <note key="42" vol="200" pos="0" pan="0" len="144"/>
          <note key="0" vol="191" pos="0" pan="0" len="384"/>
          <note key="47" vol="200" pos="48" pan="0" len="144"/>
          <note key="54" vol="200" pos="96" pan="0" len="144"/>
          <note key="42" vol="200" pos="144" pan="0" len="144"/>
          <note key="47" vol="200" pos="192" pan="0" len="144"/>
          <note key="52" vol="200" pos="240" pan="0" len="144"/>
          <note key="42" vol="200" pos="288" pan="0" len="144"/>
          <note key="47" vol="200" pos="336" pan="0" len="144"/>
          <note key="55" vol="200" pos="384" pan="0" len="144"/>
          <note key="42" vol="200" pos="432" pan="0" len="144"/>
          <note key="47" vol="200" pos="480" pan="0" len="144"/>
          <note key="54" vol="200" pos="528" pan="0" len="144"/>
          <note key="42" vol="200" pos="576" pan="0" len="192"/>
          <note key="47" vol="200" pos="624" pan="0" len="192"/>
          <note key="52" vol="200" pos="672" pan="0" len="336"/>
          <note key="54" vol="200" pos="720" pan="0" len="144"/>
          <note key="42" vol="200" pos="768" pan="0" len="144"/>
          <note key="47" vol="200" pos="816" pan="0" len="144"/>
          <note key="54" vol="200" pos="864" pan="0" len="144"/>
          <note key="42" vol="200" pos="912" pan="0" len="144"/>
          <note key="47" vol="200" pos="960" pan="0" len="144"/>
          <note key="52" vol="200" pos="1008" pan="0" len="144"/>
          <note key="42" vol="200" pos="1056" pan="0" len="144"/>
          <note key="47" vol="200" pos="1104" pan="0" len="144"/>
          <note key="55" vol="200" pos="1152" pan="0" len="144"/>
          <note key="42" vol="200" pos="1200" pan="0" len="144"/>
          <note key="47" vol="200" pos="1248" pan="0" len="144"/>
          <note key="54" vol="200" pos="1296" pan="0" len="144"/>
          <note key="42" vol="200" pos="1344" pan="0" len="192"/>
          <note key="47" vol="200" pos="1392" pan="0" len="192"/>
          <note key="52" vol="200" pos="1440" pan="0" len="336"/>
          <note key="54" vol="200" pos="1488" pan="0" len="144"/>
          <note key="43" vol="200" pos="1536" pan="0" len="144"/>
          <note key="47" vol="200" pos="1584" pan="0" len="144"/>
          <note key="54" vol="200" pos="1632" pan="0" len="144"/>
          <note key="43" vol="200" pos="1680" pan="0" len="144"/>
          <note key="47" vol="200" pos="1728" pan="0" len="144"/>
          <note key="52" vol="200" pos="1776" pan="0" len="144"/>
          <note key="43" vol="200" pos="1824" pan="0" len="144"/>
          <note key="47" vol="200" pos="1872" pan="0" len="144"/>
          <note key="55" vol="200" pos="1920" pan="0" len="144"/>
          <note key="43" vol="200" pos="1968" pan="0" len="144"/>
          <note key="47" vol="200" pos="2016" pan="0" len="144"/>
          <note key="54" vol="200" pos="2064" pan="0" len="144"/>
          <note key="43" vol="200" pos="2112" pan="0" len="192"/>
          <note key="47" vol="200" pos="2160" pan="0" len="192"/>
          <note key="52" vol="200" pos="2208" pan="0" len="336"/>
          <note key="54" vol="200" pos="2256" pan="0" len="144"/>
          <note key="43" vol="200" pos="2304" pan="0" len="144"/>
          <note key="47" vol="200" pos="2352" pan="0" len="144"/>
          <note key="54" vol="200" pos="2400" pan="0" len="144"/>
          <note key="43" vol="200" pos="2448" pan="0" len="144"/>
          <note key="47" vol="200" pos="2496" pan="0" len="144"/>
          <note key="52" vol="200" pos="2544" pan="0" len="144"/>
          <note key="43" vol="200" pos="2592" pan="0" len="144"/>
          <note key="47" vol="200" pos="2640" pan="0" len="144"/>
          <note key="55" vol="200" pos="2688" pan="0" len="144"/>
          <note key="43" vol="200" pos="2736" pan="0" len="144"/>
          <note key="47" vol="200" pos="2784" pan="0" len="144"/>
          <note key="54" vol="200" pos="2832" pan="0" len="144"/>
          <note key="43" vol="200" pos="2880" pan="0" len="192"/>
          <note key="47" vol="200" pos="2928" pan="0" len="192"/>
          <note key="52" vol="200" pos="2976" pan="0" len="336"/>
          <note key="54" vol="200" pos="3024" pan="0" len="144"/>
          <note key="42" vol="200" pos="3072" pan="0" len="144"/>
          <note key="47" vol="200" pos="3120" pan="0" len="144"/>
          <note key="62" vol="200" pos="3168" pan="0" len="144"/>
          <note key="54" vol="200" pos="3168" pan="0" len="144"/>
          <note key="42" vol="200" pos="3216" pan="0" len="144"/>
          <note key="47" vol="200" pos="3264" pan="0" len="144"/>
          <note key="61" vol="200" pos="3312" pan="0" len="144"/>
          <note key="52" vol="200" pos="3312" pan="0" len="144"/>
          <note key="42" vol="200" pos="3360" pan="0" len="144"/>
          <note key="47" vol="200" pos="3408" pan="0" len="144"/>
          <note key="64" vol="200" pos="3456" pan="0" len="144"/>
          <note key="55" vol="200" pos="3456" pan="0" len="144"/>
          <note key="42" vol="200" pos="3504" pan="0" len="144"/>
          <note key="47" vol="200" pos="3552" pan="0" len="144"/>
          <note key="62" vol="200" pos="3600" pan="0" len="144"/>
          <note key="54" vol="200" pos="3600" pan="0" len="144"/>
          <note key="42" vol="200" pos="3648" pan="0" len="192"/>
          <note key="47" vol="200" pos="3696" pan="0" len="192"/>
          <note key="61" vol="200" pos="3744" pan="0" len="48"/>
          <note key="52" vol="200" pos="3744" pan="0" len="336"/>
          <note key="62" vol="200" pos="3792" pan="0" len="144"/>
          <note key="54" vol="200" pos="3792" pan="0" len="144"/>
          <note key="42" vol="200" pos="3840" pan="0" len="144"/>
          <note key="47" vol="200" pos="3888" pan="0" len="144"/>
          <note key="62" vol="200" pos="3936" pan="0" len="144"/>
          <note key="54" vol="200" pos="3936" pan="0" len="144"/>
          <note key="42" vol="200" pos="3984" pan="0" len="144"/>
          <note key="47" vol="200" pos="4032" pan="0" len="144"/>
          <note key="61" vol="200" pos="4080" pan="0" len="144"/>
          <note key="52" vol="200" pos="4080" pan="0" len="144"/>
          <note key="42" vol="200" pos="4128" pan="0" len="144"/>
          <note key="47" vol="200" pos="4176" pan="0" len="144"/>
          <note key="64" vol="200" pos="4224" pan="0" len="144"/>
          <note key="55" vol="200" pos="4224" pan="0" len="144"/>
          <note key="42" vol="200" pos="4272" pan="0" len="144"/>
          <note key="47" vol="200" pos="4320" pan="0" len="144"/>
          <note key="62" vol="200" pos="4368" pan="0" len="144"/>
          <note key="54" vol="200" pos="4368" pan="0" len="144"/>
          <note key="42" vol="200" pos="4416" pan="0" len="192"/>
          <note key="47" vol="200" pos="4464" pan="0" len="192"/>
          <note key="61" vol="200" pos="4512" pan="0" len="48"/>
          <note key="52" vol="200" pos="4512" pan="0" len="336"/>
          <note key="62" vol="200" pos="4560" pan="0" len="144"/>
          <note key="54" vol="200" pos="4560" pan="0" len="144"/>
          <note key="43" vol="200" pos="4608" pan="0" len="144"/>
          <note key="47" vol="200" pos="4656" pan="0" len="144"/>
          <note key="62" vol="200" pos="4704" pan="0" len="144"/>
          <note key="54" vol="200" pos="4704" pan="0" len="144"/>
          <note key="43" vol="200" pos="4752" pan="0" len="144"/>
          <note key="47" vol="200" pos="4800" pan="0" len="144"/>
          <note key="61" vol="200" pos="4848" pan="0" len="144"/>
          <note key="52" vol="200" pos="4848" pan="0" len="144"/>
          <note key="43" vol="200" pos="4896" pan="0" len="144"/>
          <note key="47" vol="200" pos="4944" pan="0" len="144"/>
          <note key="64" vol="200" pos="4992" pan="0" len="144"/>
          <note key="55" vol="200" pos="4992" pan="0" len="144"/>
          <note key="43" vol="200" pos="5040" pan="0" len="144"/>
          <note key="47" vol="200" pos="5088" pan="0" len="144"/>
          <note key="62" vol="200" pos="5136" pan="0" len="144"/>
          <note key="54" vol="200" pos="5136" pan="0" len="144"/>
          <note key="43" vol="200" pos="5184" pan="0" len="192"/>
          <note key="47" vol="200" pos="5232" pan="0" len="192"/>
          <note key="61" vol="200" pos="5280" pan="0" len="48"/>
          <note key="52" vol="200" pos="5280" pan="0" len="336"/>
          <note key="62" vol="200" pos="5328" pan="0" len="144"/>
          <note key="54" vol="200" pos="5328" pan="0" len="144"/>
          <note key="43" vol="200" pos="5376" pan="0" len="144"/>
          <note key="47" vol="200" pos="5424" pan="0" len="144"/>
          <note key="62" vol="200" pos="5472" pan="0" len="144"/>
          <note key="54" vol="200" pos="5472" pan="0" len="144"/>
          <note key="43" vol="200" pos="5520" pan="0" len="144"/>
          <note key="47" vol="200" pos="5568" pan="0" len="144"/>
          <note key="61" vol="200" pos="5616" pan="0" len="144"/>
          <note key="52" vol="200" pos="5616" pan="0" len="144"/>
          <note key="43" vol="200" pos="5664" pan="0" len="144"/>
          <note key="47" vol="200" pos="5712" pan="0" len="144"/>
          <note key="64" vol="200" pos="5760" pan="0" len="144"/>
          <note key="55" vol="200" pos="5760" pan="0" len="144"/>
          <note key="43" vol="200" pos="5808" pan="0" len="144"/>
          <note key="47" vol="200" pos="5856" pan="0" len="144"/>
          <note key="62" vol="200" pos="5904" pan="0" len="144"/>
          <note key="54" vol="200" pos="5904" pan="0" len="144"/>
          <note key="43" vol="200" pos="5952" pan="0" len="192"/>
          <note key="47" vol="200" pos="6000" pan="0" len="144"/>
          <note key="61" vol="200" pos="6048" pan="0" len="48"/>
          <note key="52" vol="200" pos="6048" pan="0" len="96"/>
          <note key="62" vol="200" pos="6096" pan="0" len="48"/>
          <note key="54" vol="200" pos="6096" pan="0" len="48"/>
        </pattern>
      </track>
      <track muted="0" solo="0" name="lgt_s" type="2">
        <sampletrack vol="119.3" pan="0">
          <fxchain numofeffects="2" enabled="1">
            <effect wet="1" autoquit_denominator="4" on="1" autoquit_numerator="4" gate="0" autoquit_syncmode="0" autoquit="1" name="eq">
              <Eq Lowshelfactive="0" Peak1bw="0.3" Peak1active="0" LP48="0" HP24="0" HP48="0" LP="0" LPres="0.707" LP12="1" Peak3bw="0.3" LowShelfres="1.4" Outputgain="0" LPactive="1" HP12="1" Peak4active="0" Peak3gain="0" HighShelfres="1.4" LP24="0" Peak2gain="0" Peak3active="0" Peak2bw="0.3" HPactive="1" Peak4bw="0.3" Highshelfactive="0" HP="0" AnalyseIn="1" Peak2active="0" Lowshelfgain="0" HPres="0.707" Peak4gain="0" AnalyseOut="1" HighShelfgain="0">
                <Inputgain value="0" id="3129300" scale_type="log"/>
                <Peak1gain value="0" id="5334324" scale_type="log"/>
                <HPfreq value="160.212" id="749658" scale_type="log"/>
                <LowShelffreq value="80" id="6759763" scale_type="log"/>
                <Peak1freq value="120" id="4496919" scale_type="log"/>
                <Peak2freq value="250" id="221742" scale_type="log"/>
                <Peak3freq value="2000" id="170271" scale_type="log"/>
                <Peak4freq value="4000" id="4013975" scale_type="log"/>
                <Highshelffreq value="12000" id="4021003" scale_type="log"/>
                <LPfreq value="5435.91" id="6811624" scale_type="log"/>
              </Eq>
              <key/>
            </effect>
            <effect wet="1" autoquit_denominator="4" on="1" autoquit_numerator="4" gate="0" autoquit_syncmode="0" autoquit="1" name="ladspaeffect">
              <ladspacontrols ports="6" link="0">
                <port00 data_syncmode="0" link="0" data="262.5" data_numerator="4" data_denominator="4"/>
                <port01 link="1" data="0.2125"/>
                <port04 link="1" data="0.0825"/>
                <port10 data_syncmode="0" data="763.75" data_numerator="4" data_denominator="4"/>
                <port11 data="0.2125"/>
                <port14 data="0.0825"/>
              </ladspacontrols>
              <key>
                <attribute value="cmt" name="file"/>
                <attribute value="fbdelay_1s" name="plugin"/>
              </key>
            </effect>
          </fxchain>
        </sampletrack>
        <sampletco muted="0" sample_rate="44100" pos="0" src="/home/pass/my_scripts/learningGuitar/legendary shadow/lgt_s_1.wav" len="46473"/>
      </track>
      <track muted="0" solo="0" name="lgt_h" type="2">
        <sampletrack vol="137.6" pan="0">
          <fxchain numofeffects="4" enabled="1">
            <effect wet="1" autoquit_denominator="4" on="1" autoquit_numerator="4" gate="0" autoquit_syncmode="0" autoquit="1" name="eq">
              <Eq Lowshelfactive="0" Peak1bw="0.3" Peak1active="0" LP48="0" HP24="0" HP48="0" LP="0" LPres="0.707" LP12="1" Peak3bw="0.3" LowShelfres="1.4" Outputgain="0" LPactive="1" HP12="1" Peak4active="0" Peak3gain="0" HighShelfres="1.4" LP24="0" Peak2gain="0" Peak3active="0" Peak2bw="0.3" HPactive="1" Peak4bw="0.3" Highshelfactive="0" HP="0" AnalyseIn="1" Peak2active="0" Lowshelfgain="0" HPres="0.707" Peak4gain="0" AnalyseOut="1" HighShelfgain="0">
                <Inputgain value="0" id="5315346" scale_type="log"/>
                <Peak1gain value="0" id="1347710" scale_type="log"/>
                <HPfreq value="160.212" id="4541506" scale_type="log"/>
                <LowShelffreq value="80" id="4759670" scale_type="log"/>
                <Peak1freq value="120" id="2675918" scale_type="log"/>
                <Peak2freq value="250" id="7671047" scale_type="log"/>
                <Peak3freq value="2000" id="5178340" scale_type="log"/>
                <Peak4freq value="4000" id="7230591" scale_type="log"/>
                <Highshelffreq value="12000" id="8086445" scale_type="log"/>
                <LPfreq value="5780.15" id="7789806" scale_type="log"/>
              </Eq>
              <key/>
            </effect>
            <effect wet="1" autoquit_denominator="4" on="1" autoquit_numerator="4" gate="0" autoquit_syncmode="0" autoquit="1" name="ladspaeffect">
              <ladspacontrols ports="6" link="0">
                <port00 data_syncmode="0" link="0" data="262.5" data_numerator="4" data_denominator="4"/>
                <port01 link="1" data="0.2125"/>
                <port04 link="1" data="0.0825"/>
                <port10 data_syncmode="0" data="763.75" data_numerator="4" data_denominator="4"/>
                <port11 data="0.2125"/>
                <port14 data="0.0825"/>
              </ladspacontrols>
              <key>
                <attribute value="cmt" name="file"/>
                <attribute value="fbdelay_1s" name="plugin"/>
              </key>
            </effect>
            <effect wet="1" autoquit_denominator="4" on="1" autoquit_numerator="4" gate="0" autoquit_syncmode="0" autoquit="1" name="ladspaeffect">
              <ladspacontrols ports="1">
                <port02 data="0.3925"/>
              </ladspacontrols>
              <key>
                <attribute value="caps" name="file"/>
                <attribute value="Narrower" name="plugin"/>
              </key>
            </effect>
            <effect wet="1" autoquit_denominator="4" on="1" autoquit_numerator="4" gate="0" autoquit_syncmode="0" autoquit="1" name="amplifier">
              <AmplifierControls right="100" left="100" pan="0">
                <volume value="99.7667" id="2519828" scale_type="linear"/>
              </AmplifierControls>
              <key/>
            </effect>
          </fxchain>
        </sampletrack>
        <sampletco muted="0" sample_rate="44100" pos="0" src="/home/pass/my_scripts/learningGuitar/legendary shadow/lgt_h_pair_1.wav" len="46848"/>
      </track>
      <track muted="0" solo="0" name="lgt_bg" type="2">
        <sampletrack vol="98.4" pan="0">
          <fxchain numofeffects="3" enabled="1">
            <effect wet="1" autoquit_denominator="4" on="1" autoquit_numerator="4" gate="0" autoquit_syncmode="0" autoquit="1" name="eq">
              <Eq Lowshelfactive="0" Peak1bw="0.3" Peak1active="0" LP48="0" HP24="0" HP48="0" LP="0" LPres="0.707" LP12="1" Peak3bw="0.3" LowShelfres="1.4" Outputgain="0" LPactive="1" HP12="1" Peak4active="0" Peak3gain="0" HighShelfres="1.4" LP24="0" Peak2gain="0" Peak3active="0" Peak2bw="0.3" HPactive="1" Peak4bw="0.3" Highshelfactive="0" HP="0" AnalyseIn="1" Peak2active="0" Lowshelfgain="0" HPres="0.707" Peak4gain="0" AnalyseOut="1" HighShelfgain="0">
                <Inputgain value="0" id="6568110" scale_type="log"/>
                <Peak1gain value="0" id="5447954" scale_type="log"/>
                <HPfreq value="160.212" id="2850539" scale_type="log"/>
                <LowShelffreq value="80" id="7461190" scale_type="log"/>
                <Peak1freq value="120" id="280765" scale_type="log"/>
                <Peak2freq value="250" id="5148880" scale_type="log"/>
                <Peak3freq value="2000" id="936114" scale_type="log"/>
                <Peak4freq value="4000" id="8181831" scale_type="log"/>
                <Highshelffreq value="12000" id="3634077" scale_type="log"/>
                <LPfreq value="5780.15" id="1775875" scale_type="log"/>
              </Eq>
              <key/>
            </effect>
            <effect wet="1" autoquit_denominator="4" on="1" autoquit_numerator="4" gate="0" autoquit_syncmode="0" autoquit="1" name="ladspaeffect">
              <ladspacontrols ports="6" link="0">
                <port00 data_syncmode="0" link="0" data="262.5" data_numerator="4" data_denominator="4"/>
                <port01 link="1" data="0.2125"/>
                <port04 link="1" data="0.0825"/>
                <port10 data_syncmode="0" data="763.75" data_numerator="4" data_denominator="4"/>
                <port11 data="0.2125"/>
                <port14 data="0.0825"/>
              </ladspacontrols>
              <key>
                <attribute value="cmt" name="file"/>
                <attribute value="fbdelay_1s" name="plugin"/>
              </key>
            </effect>
            <effect wet="1" autoquit_denominator="4" on="1" autoquit_numerator="4" gate="0" autoquit_syncmode="0" autoquit="1" name="ladspaeffect">
              <ladspacontrols ports="1">
                <port02 data="0.29"/>
              </ladspacontrols>
              <key>
                <attribute value="caps" name="file"/>
                <attribute value="Narrower" name="plugin"/>
              </key>
            </effect>
          </fxchain>
        </sampletrack>
        <sampletco muted="0" sample_rate="44100" pos="0" src="/home/pass/my_scripts/learningGuitar/legendary shadow/lgt_h_pair_2.wav" len="46473"/>
      </track>
      <track muted="0" solo="0" name="rgt_bounced" type="2">
        <sampletrack vol="100" pan="0">
          <fxchain numofeffects="1" enabled="1">
            <effect wet="1" autoquit_denominator="4" on="1" autoquit_numerator="4" gate="0" autoquit_syncmode="0" autoquit="1" name="eq">
              <Eq Lowshelfactive="0" Peak1bw="0.3" Peak1active="0" LP48="0" HP24="0" HP48="0" LP="0" LPres="0.707" LP12="1" Peak3bw="0.863" LowShelfres="1.4" Outputgain="0" LPactive="1" HP12="1" Peak4active="1" Peak3gain="-2.16" HighShelfres="1.4" LP24="0" Peak2gain="-0.18" Peak3active="1" Peak2bw="0.3" HPactive="1" Peak4bw="0.3" Highshelfactive="0" HP="0" AnalyseIn="1" Peak2active="1" Lowshelfgain="0" HPres="0.707" Peak4gain="-0.18" AnalyseOut="1" HighShelfgain="0">
                <Inputgain value="0" id="1208948" scale_type="log"/>
                <Peak1gain value="0" id="3406630" scale_type="log"/>
                <HPfreq value="274.176" id="2685389" scale_type="log"/>
                <LowShelffreq value="80" id="6439710" scale_type="log"/>
                <Peak1freq value="120" id="7990679" scale_type="log"/>
                <Peak2freq value="105.83" id="4370715" scale_type="log"/>
                <Peak3freq value="833.739" id="4103557" scale_type="log"/>
                <Peak4freq value="3537.75" id="2073222" scale_type="log"/>
                <Highshelffreq value="12000" id="2390524" scale_type="log"/>
                <LPfreq value="7503.65" id="7312592" scale_type="log"/>
              </Eq>
              <key/>
            </effect>
          </fxchain>
        </sampletrack>
        <sampletco muted="0" sample_rate="44100" pos="0" src="/home/pass/my_scripts/learningGuitar/legendary shadow/rgt_bounced.wav" len="46848"/>
      </track>
      <track muted="0" solo="0" name="Metal Drips" type="0">
        <instrumenttrack fxch="0" usemasterpitch="1" vol="58.1" pitch="0" pitchrange="1" pan="0" basenote="57">
          <instrument name="zynaddsubfx">
            <zynaddsubfx filterfreq="64" rescenterfreq="64" filterq="64" portamento="0" resbandwidth="64" bandwidth="64" modifiedcontrollers="" fmgain="127" forwardmidicc="1">
              <ZynAddSubFX-data version-major="2" version-minor="4" version-revision="1" ZynAddSubFX-author="Nasca Octavian Paul">
                <INFORMATION/>
                <BASE_PARAMETERS>
                  <par value="16" name="max_midi_parts"/>
                  <par value="16" name="max_kit_items_per_instrument"/>
                  <par value="4" name="max_system_effects"/>
                  <par value="8" name="max_insertion_effects"/>
                  <par value="3" name="max_instrument_effects"/>
                  <par value="8" name="max_addsynth_voices"/>
                </BASE_PARAMETERS>
                <MASTER>
                  <par value="80" name="volume"/>
                  <par value="64" name="key_shift"/>
                  <par_bool value="yes" name="nrpn_receive"/>
                  <MICROTONAL>
                    <string name="name">12tET</string>
                    <string name="comment">Equal Temperament 12 notes per octave</string>
                    <par_bool value="no" name="invert_up_down"/>
                    <par value="60" name="invert_up_down_center"/>
                    <par_bool value="no" name="enabled"/>
                    <par value="64" name="global_fine_detune"/>
                    <par value="69" name="a_note"/>
                    <par_real value="440.000000" name="a_freq"/>
                  </MICROTONAL>
                  <PART id="0">
                    <par_bool value="yes" name="enabled"/>
                    <par value="96" name="volume"/>
                    <par value="64" name="panning"/>
                    <par value="0" name="min_key"/>
                    <par value="127" name="max_key"/>
                    <par value="76" name="key_shift"/>
                    <par value="0" name="rcv_chn"/>
                    <par value="64" name="velocity_sensing"/>
                    <par value="64" name="velocity_offset"/>
                    <par_bool value="yes" name="note_on"/>
                    <par_bool value="yes" name="poly_mode"/>
                    <par value="0" name="legato_mode"/>
                    <par value="15" name="key_limit"/>
                    <INSTRUMENT>
                      <INFO>
                        <string name="name">Metal Drips</string>
                        <string name="author">Will Godfrey
GPL V 2 or later</string>
                        <string name="comments">Works best mid range
high velocity</string>
                        <par value="11" name="type"/>
                      </INFO>
                      <INSTRUMENT_KIT>
                        <par value="0" name="kit_mode"/>
                        <par_bool value="no" name="drum_mode"/>
                        <INSTRUMENT_KIT_ITEM id="0">
                          <par_bool value="yes" name="enabled"/>
                          <string name="name"/>
                          <par_bool value="no" name="muted"/>
                          <par value="0" name="min_key"/>
                          <par value="127" name="max_key"/>
                          <par value="0" name="send_to_instrument_effect"/>
                          <par_bool value="yes" name="add_enabled"/>
                          <ADD_SYNTH_PARAMETERS>
                            <par_bool value="yes" name="stereo"/>
                            <AMPLITUDE_PARAMETERS>
                              <par value="90" name="volume"/>
                              <par value="62" name="panning"/>
                              <par value="70" name="velocity_sensing"/>
                              <par value="0" name="punch_strength"/>
                              <par value="60" name="punch_time"/>
                              <par value="64" name="punch_stretch"/>
                              <par value="72" name="punch_velocity_sensing"/>
                              <par value="0" name="harmonic_randomness_grouping"/>
                              <AMPLITUDE_ENVELOPE>
                                <par_bool value="no" name="free_mode"/>
                                <par value="4" name="env_points"/>
                                <par value="2" name="env_sustain"/>
                                <par value="0" name="env_stretch"/>
                                <par_bool value="yes" name="forced_release"/>
                                <par_bool value="yes" name="linear_envelope"/>
                                <par value="1" name="A_dt"/>
                                <par value="70" name="D_dt"/>
                                <par value="37" name="R_dt"/>
                                <par value="64" name="A_val"/>
                                <par value="64" name="D_val"/>
                                <par value="30" name="S_val"/>
                                <par value="64" name="R_val"/>
                              </AMPLITUDE_ENVELOPE>
                              <AMPLITUDE_LFO>
                                <par_real value="0.630000" name="freq"/>
                                <par value="0" name="intensity"/>
                                <par value="64" name="start_phase"/>
                                <par value="0" name="lfo_type"/>
                                <par value="0" name="randomness_amplitude"/>
                                <par value="0" name="randomness_frequency"/>
                                <par value="0" name="delay"/>
                                <par value="64" name="stretch"/>
                                <par_bool value="no" name="continous"/>
                              </AMPLITUDE_LFO>
                            </AMPLITUDE_PARAMETERS>
                            <FREQUENCY_PARAMETERS>
                              <par value="8192" name="detune"/>
                              <par value="0" name="coarse_detune"/>
                              <par value="1" name="detune_type"/>
                              <par value="64" name="bandwidth"/>
                              <FREQUENCY_ENVELOPE>
                                <par_bool value="no" name="free_mode"/>
                                <par value="3" name="env_points"/>
                                <par value="1" name="env_sustain"/>
                                <par value="0" name="env_stretch"/>
                                <par_bool value="no" name="forced_release"/>
                                <par_bool value="no" name="linear_envelope"/>
                                <par value="50" name="A_dt"/>
                                <par value="10" name="D_dt"/>
                                <par value="60" name="R_dt"/>
                                <par value="64" name="A_val"/>
                                <par value="64" name="D_val"/>
                                <par value="64" name="S_val"/>
                                <par value="64" name="R_val"/>
                              </FREQUENCY_ENVELOPE>
                              <FREQUENCY_LFO>
                                <par_real value="0.545000" name="freq"/>
                                <par value="41" name="intensity"/>
                                <par value="64" name="start_phase"/>
                                <par value="0" name="lfo_type"/>
                                <par value="0" name="randomness_amplitude"/>
                                <par value="0" name="randomness_frequency"/>
                                <par value="27" name="delay"/>
                                <par value="64" name="stretch"/>
                                <par_bool value="no" name="continous"/>
                              </FREQUENCY_LFO>
                            </FREQUENCY_PARAMETERS>
                            <FILTER_PARAMETERS>
                              <par value="53" name="velocity_sensing_amplitude"/>
                              <par value="93" name="velocity_sensing"/>
                              <FILTER>
                                <par value="0" name="category"/>
                                <par value="0" name="type"/>
                                <par value="99" name="freq"/>
                                <par value="24" name="q"/>
                                <par value="0" name="stages"/>
                                <par value="64" name="freq_track"/>
                                <par value="64" name="gain"/>
                              </FILTER>
                              <FILTER_ENVELOPE>
                                <par_bool value="no" name="free_mode"/>
                                <par value="4" name="env_points"/>
                                <par value="2" name="env_sustain"/>
                                <par value="0" name="env_stretch"/>
                                <par_bool value="yes" name="forced_release"/>
                                <par_bool value="no" name="linear_envelope"/>
                                <par value="28" name="A_dt"/>
                                <par value="70" name="D_dt"/>
                                <par value="60" name="R_dt"/>
                                <par value="65" name="A_val"/>
                                <par value="64" name="D_val"/>
                                <par value="64" name="S_val"/>
                                <par value="64" name="R_val"/>
                              </FILTER_ENVELOPE>
                              <FILTER_LFO>
                                <par_real value="0.630000" name="freq"/>
                                <par value="0" name="intensity"/>
                                <par value="64" name="start_phase"/>
                                <par value="0" name="lfo_type"/>
                                <par value="0" name="randomness_amplitude"/>
                                <par value="0" name="randomness_frequency"/>
                                <par value="0" name="delay"/>
                                <par value="64" name="stretch"/>
                                <par_bool value="no" name="continous"/>
                              </FILTER_LFO>
                            </FILTER_PARAMETERS>
                            <RESONANCE>
                              <par_bool value="no" name="enabled"/>
                            </RESONANCE>
                            <VOICE id="0">
                              <par_bool value="yes" name="enabled"/>
                              <par value="0" name="type"/>
                              <par value="1" name="unison_size"/>
                              <par value="60" name="unison_frequency_spread"/>
                              <par value="64" name="unison_stereo_spread"/>
                              <par value="64" name="unison_vibratto"/>
                              <par value="64" name="unison_vibratto_speed"/>
                              <par value="0" name="unison_invert_phase"/>
                              <par value="127" name="unison_phase_randomness"/>
                              <par value="0" name="delay"/>
                              <par_bool value="yes" name="resonance"/>
                              <par value="-1" name="ext_oscil"/>
                              <par value="-1" name="ext_fm_oscil"/>
                              <par value="64" name="oscil_phase"/>
                              <par value="64" name="oscil_fm_phase"/>
                              <par_bool value="no" name="filter_enabled"/>
                              <par_bool value="no" name="filter_bypass"/>
                              <par value="0" name="fm_enabled"/>
                              <OSCIL>
                                <par value="0" name="harmonic_mag_type"/>
                                <par value="4" name="base_function"/>
                                <par value="78" name="base_function_par"/>
                                <par value="0" name="base_function_modulation"/>
                                <par value="64" name="base_function_modulation_par1"/>
                                <par value="64" name="base_function_modulation_par2"/>
                                <par value="32" name="base_function_modulation_par3"/>
                                <par value="0" name="modulation"/>
                                <par value="64" name="modulation_par1"/>
                                <par value="64" name="modulation_par2"/>
                                <par value="32" name="modulation_par3"/>
                                <par value="64" name="wave_shaping"/>
                                <par value="0" name="wave_shaping_function"/>
                                <par value="1" name="filter_type"/>
                                <par value="64" name="filter_par1"/>
                                <par value="64" name="filter_par2"/>
                                <par value="0" name="filter_before_wave_shaping"/>
                                <par value="0" name="spectrum_adjust_type"/>
                                <par value="64" name="spectrum_adjust_par"/>
                                <par value="42" name="rand"/>
                                <par value="2" name="amp_rand_type"/>
                                <par value="64" name="amp_rand_power"/>
                                <par value="0" name="harmonic_shift"/>
                                <par_bool value="no" name="harmonic_shift_first"/>
                                <par value="0" name="adaptive_harmonics"/>
                                <par value="128" name="adaptive_harmonics_base_frequency"/>
                                <par value="100" name="adaptive_harmonics_power"/>
                                <HARMONICS>
                                  <HARMONIC id="1">
                                    <par value="127" name="mag"/>
                                    <par value="64" name="phase"/>
                                  </HARMONIC>
                                </HARMONICS>
                              </OSCIL>
                              <AMPLITUDE_PARAMETERS>
                                <par value="82" name="panning"/>
                                <par value="100" name="volume"/>
                                <par_bool value="no" name="volume_minus"/>
                                <par value="127" name="velocity_sensing"/>
                                <par_bool value="no" name="amp_envelope_enabled"/>
                                <par_bool value="no" name="amp_lfo_enabled"/>
                              </AMPLITUDE_PARAMETERS>
                              <FREQUENCY_PARAMETERS>
                                <par_bool value="no" name="fixed_freq"/>
                                <par value="0" name="fixed_freq_et"/>
                                <par value="5493" name="detune"/>
                                <par value="0" name="coarse_detune"/>
                                <par value="0" name="detune_type"/>
                                <par_bool value="no" name="freq_envelope_enabled"/>
                                <par_bool value="yes" name="freq_lfo_enabled"/>
                                <FREQUENCY_LFO>
                                  <par_real value="0.599000" name="freq"/>
                                  <par value="25" name="intensity"/>
                                  <par value="0" name="start_phase"/>
                                  <par value="0" name="lfo_type"/>
                                  <par value="0" name="randomness_amplitude"/>
                                  <par value="27" name="randomness_frequency"/>
                                  <par value="0" name="delay"/>
                                  <par value="64" name="stretch"/>
                                  <par_bool value="no" name="continous"/>
                                </FREQUENCY_LFO>
                              </FREQUENCY_PARAMETERS>
                            </VOICE>
                            <VOICE id="1">
                              <par_bool value="yes" name="enabled"/>
                              <par value="0" name="type"/>
                              <par value="1" name="unison_size"/>
                              <par value="60" name="unison_frequency_spread"/>
                              <par value="64" name="unison_stereo_spread"/>
                              <par value="64" name="unison_vibratto"/>
                              <par value="64" name="unison_vibratto_speed"/>
                              <par value="0" name="unison_invert_phase"/>
                              <par value="127" name="unison_phase_randomness"/>
                              <par value="0" name="delay"/>
                              <par_bool value="yes" name="resonance"/>
                              <par value="-1" name="ext_oscil"/>
                              <par value="-1" name="ext_fm_oscil"/>
                              <par value="64" name="oscil_phase"/>
                              <par value="64" name="oscil_fm_phase"/>
                              <par_bool value="no" name="filter_enabled"/>
                              <par_bool value="no" name="filter_bypass"/>
                              <par value="0" name="fm_enabled"/>
                              <OSCIL>
                                <par value="0" name="harmonic_mag_type"/>
                                <par value="4" name="base_function"/>
                                <par value="64" name="base_function_par"/>
                                <par value="0" name="base_function_modulation"/>
                                <par value="64" name="base_function_modulation_par1"/>
                                <par value="64" name="base_function_modulation_par2"/>
                                <par value="32" name="base_function_modulation_par3"/>
                                <par value="0" name="modulation"/>
                                <par value="64" name="modulation_par1"/>
                                <par value="64" name="modulation_par2"/>
                                <par value="32" name="modulation_par3"/>
                                <par value="64" name="wave_shaping"/>
                                <par value="0" name="wave_shaping_function"/>
                                <par value="0" name="filter_type"/>
                                <par value="64" name="filter_par1"/>
                                <par value="64" name="filter_par2"/>
                                <par value="0" name="filter_before_wave_shaping"/>
                                <par value="0" name="spectrum_adjust_type"/>
                                <par value="64" name="spectrum_adjust_par"/>
                                <par value="64" name="rand"/>
                                <par value="1" name="amp_rand_type"/>
                                <par value="64" name="amp_rand_power"/>
                                <par value="0" name="harmonic_shift"/>
                                <par_bool value="no" name="harmonic_shift_first"/>
                                <par value="0" name="adaptive_harmonics"/>
                                <par value="128" name="adaptive_harmonics_base_frequency"/>
                                <par value="100" name="adaptive_harmonics_power"/>
                                <HARMONICS>
                                  <HARMONIC id="1">
                                    <par value="127" name="mag"/>
                                    <par value="64" name="phase"/>
                                  </HARMONIC>
                                </HARMONICS>
                              </OSCIL>
                              <AMPLITUDE_PARAMETERS>
                                <par value="49" name="panning"/>
                                <par value="100" name="volume"/>
                                <par_bool value="no" name="volume_minus"/>
                                <par value="127" name="velocity_sensing"/>
                                <par_bool value="no" name="amp_envelope_enabled"/>
                                <par_bool value="no" name="amp_lfo_enabled"/>
                              </AMPLITUDE_PARAMETERS>
                              <FREQUENCY_PARAMETERS>
                                <par_bool value="no" name="fixed_freq"/>
                                <par value="0" name="fixed_freq_et"/>
                                <par value="7035" name="detune"/>
                                <par value="0" name="coarse_detune"/>
                                <par value="0" name="detune_type"/>
                                <par_bool value="no" name="freq_envelope_enabled"/>
                                <par_bool value="no" name="freq_lfo_enabled"/>
                              </FREQUENCY_PARAMETERS>
                            </VOICE>
                            <VOICE id="2">
                              <par_bool value="yes" name="enabled"/>
                              <par value="0" name="type"/>
                              <par value="1" name="unison_size"/>
                              <par value="60" name="unison_frequency_spread"/>
                              <par value="64" name="unison_stereo_spread"/>
                              <par value="64" name="unison_vibratto"/>
                              <par value="64" name="unison_vibratto_speed"/>
                              <par value="0" name="unison_invert_phase"/>
                              <par value="127" name="unison_phase_randomness"/>
                              <par value="0" name="delay"/>
                              <par_bool value="yes" name="resonance"/>
                              <par value="-1" name="ext_oscil"/>
                              <par value="-1" name="ext_fm_oscil"/>
                              <par value="64" name="oscil_phase"/>
                              <par value="64" name="oscil_fm_phase"/>
                              <par_bool value="no" name="filter_enabled"/>
                              <par_bool value="no" name="filter_bypass"/>
                              <par value="0" name="fm_enabled"/>
                              <OSCIL>
                                <par value="0" name="harmonic_mag_type"/>
                                <par value="13" name="base_function"/>
                                <par value="64" name="base_function_par"/>
                                <par value="0" name="base_function_modulation"/>
                                <par value="64" name="base_function_modulation_par1"/>
                                <par value="64" name="base_function_modulation_par2"/>
                                <par value="32" name="base_function_modulation_par3"/>
                                <par value="0" name="modulation"/>
                                <par value="64" name="modulation_par1"/>
                                <par value="64" name="modulation_par2"/>
                                <par value="32" name="modulation_par3"/>
                                <par value="64" name="wave_shaping"/>
                                <par value="0" name="wave_shaping_function"/>
                                <par value="0" name="filter_type"/>
                                <par value="64" name="filter_par1"/>
                                <par value="64" name="filter_par2"/>
                                <par value="0" name="filter_before_wave_shaping"/>
                                <par value="0" name="spectrum_adjust_type"/>
                                <par value="64" name="spectrum_adjust_par"/>
                                <par value="64" name="rand"/>
                                <par value="0" name="amp_rand_type"/>
                                <par value="64" name="amp_rand_power"/>
                                <par value="0" name="harmonic_shift"/>
                                <par_bool value="no" name="harmonic_shift_first"/>
                                <par value="0" name="adaptive_harmonics"/>
                                <par value="128" name="adaptive_harmonics_base_frequency"/>
                                <par value="100" name="adaptive_harmonics_power"/>
                                <HARMONICS>
                                  <HARMONIC id="1">
                                    <par value="127" name="mag"/>
                                    <par value="64" name="phase"/>
                                  </HARMONIC>
                                </HARMONICS>
                              </OSCIL>
                              <AMPLITUDE_PARAMETERS>
                                <par value="64" name="panning"/>
                                <par value="87" name="volume"/>
                                <par_bool value="no" name="volume_minus"/>
                                <par value="127" name="velocity_sensing"/>
                                <par_bool value="no" name="amp_envelope_enabled"/>
                                <par_bool value="no" name="amp_lfo_enabled"/>
                              </AMPLITUDE_PARAMETERS>
                              <FREQUENCY_PARAMETERS>
                                <par_bool value="no" name="fixed_freq"/>
                                <par value="0" name="fixed_freq_et"/>
                                <par value="8192" name="detune"/>
                                <par value="15360" name="coarse_detune"/>
                                <par value="0" name="detune_type"/>
                                <par_bool value="no" name="freq_envelope_enabled"/>
                                <par_bool value="no" name="freq_lfo_enabled"/>
                              </FREQUENCY_PARAMETERS>
                            </VOICE>
                            <VOICE id="3">
                              <par_bool value="no" name="enabled"/>
                            </VOICE>
                            <VOICE id="4">
                              <par_bool value="no" name="enabled"/>
                            </VOICE>
                            <VOICE id="5">
                              <par_bool value="no" name="enabled"/>
                            </VOICE>
                            <VOICE id="6">
                              <par_bool value="no" name="enabled"/>
                            </VOICE>
                            <VOICE id="7">
                              <par_bool value="no" name="enabled"/>
                            </VOICE>
                          </ADD_SYNTH_PARAMETERS>
                          <par_bool value="no" name="sub_enabled"/>
                          <par_bool value="no" name="pad_enabled"/>
                        </INSTRUMENT_KIT_ITEM>
                        <INSTRUMENT_KIT_ITEM id="1">
                          <par_bool value="no" name="enabled"/>
                        </INSTRUMENT_KIT_ITEM>
                        <INSTRUMENT_KIT_ITEM id="2">
                          <par_bool value="no" name="enabled"/>
                        </INSTRUMENT_KIT_ITEM>
                        <INSTRUMENT_KIT_ITEM id="3">
                          <par_bool value="no" name="enabled"/>
                        </INSTRUMENT_KIT_ITEM>
                        <INSTRUMENT_KIT_ITEM id="4">
                          <par_bool value="no" name="enabled"/>
                        </INSTRUMENT_KIT_ITEM>
                        <INSTRUMENT_KIT_ITEM id="5">
                          <par_bool value="no" name="enabled"/>
                        </INSTRUMENT_KIT_ITEM>
                        <INSTRUMENT_KIT_ITEM id="6">
                          <par_bool value="no" name="enabled"/>
                        </INSTRUMENT_KIT_ITEM>
                        <INSTRUMENT_KIT_ITEM id="7">
                          <par_bool value="no" name="enabled"/>
                        </INSTRUMENT_KIT_ITEM>
                        <INSTRUMENT_KIT_ITEM id="8">
                          <par_bool value="no" name="enabled"/>
                        </INSTRUMENT_KIT_ITEM>
                        <INSTRUMENT_KIT_ITEM id="9">
                          <par_bool value="no" name="enabled"/>
                        </INSTRUMENT_KIT_ITEM>
                        <INSTRUMENT_KIT_ITEM id="10">
                          <par_bool value="no" name="enabled"/>
                        </INSTRUMENT_KIT_ITEM>
                        <INSTRUMENT_KIT_ITEM id="11">
                          <par_bool value="no" name="enabled"/>
                        </INSTRUMENT_KIT_ITEM>
                        <INSTRUMENT_KIT_ITEM id="12">
                          <par_bool value="no" name="enabled"/>
                        </INSTRUMENT_KIT_ITEM>
                        <INSTRUMENT_KIT_ITEM id="13">
                          <par_bool value="no" name="enabled"/>
                        </INSTRUMENT_KIT_ITEM>
                        <INSTRUMENT_KIT_ITEM id="14">
                          <par_bool value="no" name="enabled"/>
                        </INSTRUMENT_KIT_ITEM>
                        <INSTRUMENT_KIT_ITEM id="15">
                          <par_bool value="no" name="enabled"/>
                        </INSTRUMENT_KIT_ITEM>
                      </INSTRUMENT_KIT>
                      <INSTRUMENT_EFFECTS>
                        <INSTRUMENT_EFFECT id="0">
                          <EFFECT>
                            <par value="4" name="type"/>
                            <par value="0" name="preset"/>
                            <EFFECT_PARAMETERS>
                              <par_no id="0">
                                <par value="64" name="par"/>
                              </par_no>
                              <par_no id="2">
                                <par value="36" name="par"/>
                              </par_no>
                              <par_no id="5">
                                <par value="64" name="par"/>
                              </par_no>
                              <par_no id="6">
                                <par value="110" name="par"/>
                              </par_no>
                              <par_no id="7">
                                <par value="64" name="par"/>
                              </par_no>
                              <par_no id="8">
                                <par value="1" name="par"/>
                              </par_no>
                              <par_no id="11">
                                <par value="20" name="par"/>
                              </par_no>
                            </EFFECT_PARAMETERS>
                          </EFFECT>
                          <par value="0" name="route"/>
                          <par_bool value="yes" name="bypass"/>
                        </INSTRUMENT_EFFECT>
                        <INSTRUMENT_EFFECT id="1">
                          <EFFECT>
                            <par value="1" name="type"/>
                            <par value="3" name="preset"/>
                            <EFFECT_PARAMETERS>
                              <par_no id="0">
                                <par value="45" name="par"/>
                              </par_no>
                              <par_no id="1">
                                <par value="64" name="par"/>
                              </par_no>
                              <par_no id="2">
                                <par value="42" name="par"/>
                              </par_no>
                              <par_no id="3">
                                <par value="10" name="par"/>
                              </par_no>
                              <par_no id="7">
                                <par value="127" name="par"/>
                              </par_no>
                              <par_no id="8">
                                <par value="21" name="par"/>
                              </par_no>
                              <par_no id="9">
                                <par value="78" name="par"/>
                              </par_no>
                              <par_no id="10">
                                <par value="1" name="par"/>
                              </par_no>
                              <par_no id="11">
                                <par value="64" name="par"/>
                              </par_no>
                              <par_no id="12">
                                <par value="20" name="par"/>
                              </par_no>
                            </EFFECT_PARAMETERS>
                          </EFFECT>
                          <par value="0" name="route"/>
                          <par_bool value="no" name="bypass"/>
                        </INSTRUMENT_EFFECT>
                        <INSTRUMENT_EFFECT id="2">
                          <EFFECT>
                            <par value="7" name="type"/>
                            <par value="0" name="preset"/>
                            <EFFECT_PARAMETERS>
                              <par_no id="0">
                                <par value="73" name="par"/>
                              </par_no>
                              <par_no id="10">
                                <par value="3" name="par"/>
                              </par_no>
                              <par_no id="11">
                                <par value="114" name="par"/>
                              </par_no>
                              <par_no id="12">
                                <par value="64" name="par"/>
                              </par_no>
                              <par_no id="13">
                                <par value="50" name="par"/>
                              </par_no>
                              <par_no id="16">
                                <par value="64" name="par"/>
                              </par_no>
                              <par_no id="17">
                                <par value="64" name="par"/>
                              </par_no>
                              <par_no id="18">
                                <par value="64" name="par"/>
                              </par_no>
                              <par_no id="21">
                                <par value="64" name="par"/>
                              </par_no>
                              <par_no id="22">
                                <par value="64" name="par"/>
                              </par_no>
                              <par_no id="23">
                                <par value="64" name="par"/>
                              </par_no>
                              <par_no id="26">
                                <par value="64" name="par"/>
                              </par_no>
                              <par_no id="27">
                                <par value="64" name="par"/>
                              </par_no>
                              <par_no id="28">
                                <par value="64" name="par"/>
                              </par_no>
                              <par_no id="31">
                                <par value="64" name="par"/>
                              </par_no>
                              <par_no id="32">
                                <par value="64" name="par"/>
                              </par_no>
                              <par_no id="33">
                                <par value="64" name="par"/>
                              </par_no>
                              <par_no id="36">
                                <par value="64" name="par"/>
                              </par_no>
                              <par_no id="37">
                                <par value="64" name="par"/>
                              </par_no>
                              <par_no id="38">
                                <par value="64" name="par"/>
                              </par_no>
                              <par_no id="41">
                                <par value="64" name="par"/>
                              </par_no>
                              <par_no id="42">
                                <par value="64" name="par"/>
                              </par_no>
                              <par_no id="43">
                                <par value="64" name="par"/>
                              </par_no>
                              <par_no id="46">
                                <par value="64" name="par"/>
                              </par_no>
                              <par_no id="47">
                                <par value="64" name="par"/>
                              </par_no>
                              <par_no id="48">
                                <par value="64" name="par"/>
                              </par_no>
                            </EFFECT_PARAMETERS>
                          </EFFECT>
                          <par value="0" name="route"/>
                          <par_bool value="no" name="bypass"/>
                        </INSTRUMENT_EFFECT>
                      </INSTRUMENT_EFFECTS>
                    </INSTRUMENT>
                    <CONTROLLER>
                      <par value="100" name="pitchwheel_bendrange"/>
                      <par_bool value="yes" name="expression_receive"/>
                      <par value="64" name="panning_depth"/>
                      <par value="64" name="filter_cutoff_depth"/>
                      <par value="64" name="filter_q_depth"/>
                      <par value="64" name="bandwidth_depth"/>
                      <par value="80" name="mod_wheel_depth"/>
                      <par_bool value="no" name="mod_wheel_exponential"/>
                      <par_bool value="yes" name="fm_amp_receive"/>
                      <par_bool value="yes" name="volume_receive"/>
                      <par_bool value="yes" name="sustain_receive"/>
                      <par_bool value="yes" name="portamento_receive"/>
                      <par value="64" name="portamento_time"/>
                      <par value="3" name="portamento_pitchthresh"/>
                      <par value="1" name="portamento_pitchthreshtype"/>
                      <par value="0" name="portamento_portamento"/>
                      <par value="64" name="portamento_updowntimestretch"/>
                      <par value="0" name="portamento_proportional"/>
                      <par value="80" name="portamento_proprate"/>
                      <par value="90" name="portamento_propdepth"/>
                      <par value="64" name="resonance_center_depth"/>
                      <par value="64" name="resonance_bandwidth_depth"/>
                    </CONTROLLER>
                  </PART>
                  <PART id="1">
                    <par_bool value="no" name="enabled"/>
                  </PART>
                  <PART id="2">
                    <par_bool value="no" name="enabled"/>
                  </PART>
                  <PART id="3">
                    <par_bool value="no" name="enabled"/>
                  </PART>
                  <PART id="4">
                    <par_bool value="no" name="enabled"/>
                  </PART>
                  <PART id="5">
                    <par_bool value="no" name="enabled"/>
                  </PART>
                  <PART id="6">
                    <par_bool value="no" name="enabled"/>
                  </PART>
                  <PART id="7">
                    <par_bool value="no" name="enabled"/>
                  </PART>
                  <PART id="8">
                    <par_bool value="no" name="enabled"/>
                  </PART>
                  <PART id="9">
                    <par_bool value="no" name="enabled"/>
                  </PART>
                  <PART id="10">
                    <par_bool value="no" name="enabled"/>
                  </PART>
                  <PART id="11">
                    <par_bool value="no" name="enabled"/>
                  </PART>
                  <PART id="12">
                    <par_bool value="no" name="enabled"/>
                  </PART>
                  <PART id="13">
                    <par_bool value="no" name="enabled"/>
                  </PART>
                  <PART id="14">
                    <par_bool value="no" name="enabled"/>
                  </PART>
                  <PART id="15">
                    <par_bool value="no" name="enabled"/>
                  </PART>
                  <SYSTEM_EFFECTS>
                    <SYSTEM_EFFECT id="0">
                      <EFFECT>
                        <par value="0" name="type"/>
                      </EFFECT>
                      <VOLUME id="0">
                        <par value="0" name="vol"/>
                      </VOLUME>
                      <VOLUME id="1">
                        <par value="0" name="vol"/>
                      </VOLUME>
                      <VOLUME id="2">
                        <par value="0" name="vol"/>
                      </VOLUME>
                      <VOLUME id="3">
                        <par value="0" name="vol"/>
                      </VOLUME>
                      <VOLUME id="4">
                        <par value="0" name="vol"/>
                      </VOLUME>
                      <VOLUME id="5">
                        <par value="0" name="vol"/>
                      </VOLUME>
                      <VOLUME id="6">
                        <par value="0" name="vol"/>
                      </VOLUME>
                      <VOLUME id="7">
                        <par value="0" name="vol"/>
                      </VOLUME>
                      <VOLUME id="8">
                        <par value="0" name="vol"/>
                      </VOLUME>
                      <VOLUME id="9">
                        <par value="0" name="vol"/>
                      </VOLUME>
                      <VOLUME id="10">
                        <par value="0" name="vol"/>
                      </VOLUME>
                      <VOLUME id="11">
                        <par value="0" name="vol"/>
                      </VOLUME>
                      <VOLUME id="12">
                        <par value="0" name="vol"/>
                      </VOLUME>
                      <VOLUME id="13">
                        <par value="0" name="vol"/>
                      </VOLUME>
                      <VOLUME id="14">
                        <par value="0" name="vol"/>
                      </VOLUME>
                      <VOLUME id="15">
                        <par value="0" name="vol"/>
                      </VOLUME>
                      <SENDTO id="1">
                        <par value="0" name="send_vol"/>
                      </SENDTO>
                      <SENDTO id="2">
                        <par value="0" name="send_vol"/>
                      </SENDTO>
                      <SENDTO id="3">
                        <par value="0" name="send_vol"/>
                      </SENDTO>
                    </SYSTEM_EFFECT>
                    <SYSTEM_EFFECT id="1">
                      <EFFECT>
                        <par value="0" name="type"/>
                      </EFFECT>
                      <VOLUME id="0">
                        <par value="0" name="vol"/>
                      </VOLUME>
                      <VOLUME id="1">
                        <par value="0" name="vol"/>
                      </VOLUME>
                      <VOLUME id="2">
                        <par value="0" name="vol"/>
                      </VOLUME>
                      <VOLUME id="3">
                        <par value="0" name="vol"/>
                      </VOLUME>
                      <VOLUME id="4">
                        <par value="0" name="vol"/>
                      </VOLUME>
                      <VOLUME id="5">
                        <par value="0" name="vol"/>
                      </VOLUME>
                      <VOLUME id="6">
                        <par value="0" name="vol"/>
                      </VOLUME>
                      <VOLUME id="7">
                        <par value="0" name="vol"/>
                      </VOLUME>
                      <VOLUME id="8">
                        <par value="0" name="vol"/>
                      </VOLUME>
                      <VOLUME id="9">
                        <par value="0" name="vol"/>
                      </VOLUME>
                      <VOLUME id="10">
                        <par value="0" name="vol"/>
                      </VOLUME>
                      <VOLUME id="11">
                        <par value="0" name="vol"/>
                      </VOLUME>
                      <VOLUME id="12">
                        <par value="0" name="vol"/>
                      </VOLUME>
                      <VOLUME id="13">
                        <par value="0" name="vol"/>
                      </VOLUME>
                      <VOLUME id="14">
                        <par value="0" name="vol"/>
                      </VOLUME>
                      <VOLUME id="15">
                        <par value="0" name="vol"/>
                      </VOLUME>
                      <SENDTO id="2">
                        <par value="0" name="send_vol"/>
                      </SENDTO>
                      <SENDTO id="3">
                        <par value="0" name="send_vol"/>
                      </SENDTO>
                    </SYSTEM_EFFECT>
                    <SYSTEM_EFFECT id="2">
                      <EFFECT>
                        <par value="0" name="type"/>
                      </EFFECT>
                      <VOLUME id="0">
                        <par value="0" name="vol"/>
                      </VOLUME>
                      <VOLUME id="1">
                        <par value="0" name="vol"/>
                      </VOLUME>
                      <VOLUME id="2">
                        <par value="0" name="vol"/>
                      </VOLUME>
                      <VOLUME id="3">
                        <par value="0" name="vol"/>
                      </VOLUME>
                      <VOLUME id="4">
                        <par value="0" name="vol"/>
                      </VOLUME>
                      <VOLUME id="5">
                        <par value="0" name="vol"/>
                      </VOLUME>
                      <VOLUME id="6">
                        <par value="0" name="vol"/>
                      </VOLUME>
                      <VOLUME id="7">
                        <par value="0" name="vol"/>
                      </VOLUME>
                      <VOLUME id="8">
                        <par value="0" name="vol"/>
                      </VOLUME>
                      <VOLUME id="9">
                        <par value="0" name="vol"/>
                      </VOLUME>
                      <VOLUME id="10">
                        <par value="0" name="vol"/>
                      </VOLUME>
                      <VOLUME id="11">
                        <par value="0" name="vol"/>
                      </VOLUME>
                      <VOLUME id="12">
                        <par value="0" name="vol"/>
                      </VOLUME>
                      <VOLUME id="13">
                        <par value="0" name="vol"/>
                      </VOLUME>
                      <VOLUME id="14">
                        <par value="0" name="vol"/>
                      </VOLUME>
                      <VOLUME id="15">
                        <par value="0" name="vol"/>
                      </VOLUME>
                      <SENDTO id="3">
                        <par value="0" name="send_vol"/>
                      </SENDTO>
                    </SYSTEM_EFFECT>
                    <SYSTEM_EFFECT id="3">
                      <EFFECT>
                        <par value="0" name="type"/>
                      </EFFECT>
                      <VOLUME id="0">
                        <par value="0" name="vol"/>
                      </VOLUME>
                      <VOLUME id="1">
                        <par value="0" name="vol"/>
                      </VOLUME>
                      <VOLUME id="2">
                        <par value="0" name="vol"/>
                      </VOLUME>
                      <VOLUME id="3">
                        <par value="0" name="vol"/>
                      </VOLUME>
                      <VOLUME id="4">
                        <par value="0" name="vol"/>
                      </VOLUME>
                      <VOLUME id="5">
                        <par value="0" name="vol"/>
                      </VOLUME>
                      <VOLUME id="6">
                        <par value="0" name="vol"/>
                      </VOLUME>
                      <VOLUME id="7">
                        <par value="0" name="vol"/>
                      </VOLUME>
                      <VOLUME id="8">
                        <par value="0" name="vol"/>
                      </VOLUME>
                      <VOLUME id="9">
                        <par value="0" name="vol"/>
                      </VOLUME>
                      <VOLUME id="10">
                        <par value="0" name="vol"/>
                      </VOLUME>
                      <VOLUME id="11">
                        <par value="0" name="vol"/>
                      </VOLUME>
                      <VOLUME id="12">
                        <par value="0" name="vol"/>
                      </VOLUME>
                      <VOLUME id="13">
                        <par value="0" name="vol"/>
                      </VOLUME>
                      <VOLUME id="14">
                        <par value="0" name="vol"/>
                      </VOLUME>
                      <VOLUME id="15">
                        <par value="0" name="vol"/>
                      </VOLUME>
                    </SYSTEM_EFFECT>
                  </SYSTEM_EFFECTS>
                  <INSERTION_EFFECTS>
                    <INSERTION_EFFECT id="0">
                      <par value="-1" name="part"/>
                      <EFFECT>
                        <par value="0" name="type"/>
                      </EFFECT>
                    </INSERTION_EFFECT>
                    <INSERTION_EFFECT id="1">
                      <par value="-1" name="part"/>
                      <EFFECT>
                        <par value="0" name="type"/>
                      </EFFECT>
                    </INSERTION_EFFECT>
                    <INSERTION_EFFECT id="2">
                      <par value="-1" name="part"/>
                      <EFFECT>
                        <par value="0" name="type"/>
                      </EFFECT>
                    </INSERTION_EFFECT>
                    <INSERTION_EFFECT id="3">
                      <par value="-1" name="part"/>
                      <EFFECT>
                        <par value="0" name="type"/>
                      </EFFECT>
                    </INSERTION_EFFECT>
                    <INSERTION_EFFECT id="4">
                      <par value="-1" name="part"/>
                      <EFFECT>
                        <par value="0" name="type"/>
                      </EFFECT>
                    </INSERTION_EFFECT>
                    <INSERTION_EFFECT id="5">
                      <par value="-1" name="part"/>
                      <EFFECT>
                        <par value="0" name="type"/>
                      </EFFECT>
                    </INSERTION_EFFECT>
                    <INSERTION_EFFECT id="6">
                      <par value="-1" name="part"/>
                      <EFFECT>
                        <par value="0" name="type"/>
                      </EFFECT>
                    </INSERTION_EFFECT>
                    <INSERTION_EFFECT id="7">
                      <par value="-1" name="part"/>
                      <EFFECT>
                        <par value="0" name="type"/>
                      </EFFECT>
                    </INSERTION_EFFECT>
                  </INSERTION_EFFECTS>
                </MASTER>
              </ZynAddSubFX-data>
            </zynaddsubfx>
          </instrument>
          <eldata fres="0.5" fwet="0" fcut="14000" ftype="0">
            <elvol pdel="0" latt="0" lshp="0" lspd_denominator="4" lamt="0" amt="0" sustain="0.5" lspd_syncmode="0" att="0" x100="0" lspd_numerator="4" lspd="0.1" ctlenvamt="0" dec="0.5" lpdel="0" hold="0.5" userwavefile="" rel="0.1"/>
            <elcut pdel="0" latt="0" lshp="0" lspd_denominator="4" lamt="0" amt="0" sustain="0.5" lspd_syncmode="0" att="0" x100="0" lspd_numerator="4" lspd="0.1" ctlenvamt="0" dec="0.5" lpdel="0" hold="0.5" userwavefile="" rel="0.1"/>
            <elres pdel="0" latt="0" lshp="0" lspd_denominator="4" lamt="0" amt="0" sustain="0.5" lspd_syncmode="0" att="0" x100="0" lspd_numerator="4" lspd="0.1" ctlenvamt="0" dec="0.5" lpdel="0" hold="0.5" userwavefile="" rel="0.1"/>
          </eldata>
          <chordcreator chordrange="1" chord="0" chord-enabled="0"/>
          <arpeggiator arptime="200" arpskip="0" arpgate="100" arptime_syncmode="0" arpmode="0" arprange="1" arp="0" arpcycle="0" arptime_denominator="4" arptime_numerator="4" arpdir="0" arp-enabled="0" arpmiss="0"/>
          <midiport outputchannel="1" inputcontroller="0" inputchannel="0" basevelocity="63" outputprogram="1" readable="0" outputcontroller="0" fixedinputvelocity="-1" fixedoutputnote="-1" writable="0" fixedoutputvelocity="-1"/>
          <fxchain numofeffects="0" enabled="0"/>
        </instrumenttrack>
        <pattern muted="0" pos="28416" steps="16" name="Metal Drips" type="1">
          <note key="62" vol="200" pos="0" pan="0" len="48"/>
          <note key="69" vol="200" pos="48" pan="0" len="24"/>
          <note key="67" vol="200" pos="72" pan="0" len="48"/>
          <note key="66" vol="200" pos="120" pan="0" len="48"/>
          <note key="62" vol="200" pos="168" pan="0" len="96"/>
          <note key="69" vol="200" pos="264" pan="0" len="24"/>
          <note key="67" vol="200" pos="288" pan="0" len="48"/>
          <note key="66" vol="200" pos="336" pan="0" len="48"/>
          <note key="64" vol="200" pos="384" pan="0" len="48"/>
          <note key="62" vol="200" pos="432" pan="0" len="24"/>
          <note key="64" vol="200" pos="456" pan="0" len="48"/>
          <note key="66" vol="200" pos="504" pan="0" len="48"/>
          <note key="64" vol="200" pos="552" pan="0" len="96"/>
          <note key="64" vol="200" pos="648" pan="0" len="24"/>
          <note key="64" vol="200" pos="672" pan="0" len="48"/>
          <note key="66" vol="200" pos="720" pan="0" len="48"/>
          <note key="67" vol="200" pos="768" pan="0" len="48"/>
          <note key="69" vol="200" pos="816" pan="0" len="24"/>
          <note key="71" vol="200" pos="840" pan="0" len="48"/>
          <note key="74" vol="200" pos="888" pan="0" len="48"/>
          <note key="71" vol="200" pos="936" pan="0" len="72"/>
          <note key="69" vol="200" pos="1008" pan="0" len="48"/>
          <note key="67" vol="200" pos="1056" pan="0" len="48"/>
          <note key="69" vol="200" pos="1104" pan="0" len="48"/>
          <note key="69" vol="200" pos="1152" pan="0" len="48"/>
          <note key="69" vol="200" pos="1200" pan="0" len="24"/>
          <note key="69" vol="200" pos="1224" pan="0" len="48"/>
          <note key="69" vol="200" pos="1272" pan="0" len="24"/>
          <note key="69" vol="200" pos="1296" pan="0" len="24"/>
          <note key="67" vol="200" pos="1320" pan="0" len="24"/>
          <note key="66" vol="200" pos="1344" pan="0" len="48"/>
          <note key="69" vol="200" pos="1392" pan="0" len="48"/>
          <note key="67" vol="200" pos="1440" pan="0" len="48"/>
          <note key="66" vol="200" pos="1488" pan="0" len="48"/>
        </pattern>
        <pattern muted="0" pos="29952" steps="16" name="Metal Drips" type="1">
          <note key="62" vol="200" pos="0" pan="0" len="48"/>
          <note key="0" vol="200" pos="0" pan="0" len="48"/>
          <note key="69" vol="200" pos="48" pan="0" len="24"/>
          <note key="67" vol="200" pos="72" pan="0" len="48"/>
          <note key="66" vol="200" pos="120" pan="0" len="48"/>
          <note key="62" vol="200" pos="168" pan="0" len="96"/>
          <note key="69" vol="200" pos="264" pan="0" len="24"/>
          <note key="67" vol="200" pos="288" pan="0" len="48"/>
          <note key="66" vol="200" pos="336" pan="0" len="48"/>
          <note key="64" vol="200" pos="384" pan="0" len="48"/>
          <note key="62" vol="200" pos="432" pan="0" len="24"/>
          <note key="64" vol="200" pos="456" pan="0" len="48"/>
          <note key="66" vol="200" pos="504" pan="0" len="48"/>
          <note key="64" vol="200" pos="552" pan="0" len="96"/>
          <note key="64" vol="200" pos="648" pan="0" len="24"/>
          <note key="64" vol="200" pos="672" pan="0" len="48"/>
          <note key="66" vol="200" pos="720" pan="0" len="48"/>
          <note key="67" vol="200" pos="768" pan="0" len="48"/>
          <note key="69" vol="200" pos="816" pan="0" len="24"/>
          <note key="71" vol="200" pos="840" pan="0" len="48"/>
          <note key="74" vol="200" pos="888" pan="0" len="48"/>
          <note key="79" vol="200" pos="936" pan="0" len="72"/>
          <note key="78" vol="200" pos="1008" pan="0" len="48"/>
          <note key="76" vol="200" pos="1056" pan="0" len="48"/>
          <note key="74" vol="200" pos="1104" pan="0" len="48"/>
          <note key="78" vol="200" pos="1152" pan="0" len="48"/>
          <note key="76" vol="200" pos="1200" pan="0" len="24"/>
          <note key="76" vol="200" pos="1224" pan="0" len="48"/>
          <note key="76" vol="200" pos="1272" pan="0" len="24"/>
          <note key="76" vol="200" pos="1296" pan="0" len="24"/>
          <note key="74" vol="200" pos="1320" pan="0" len="24"/>
          <note key="73" vol="200" pos="1344" pan="0" len="72"/>
          <note key="71" vol="200" pos="1416" pan="0" len="72"/>
          <note key="73" vol="200" pos="1488" pan="0" len="48"/>
          <note key="74" vol="200" pos="1536" pan="0" len="384"/>
        </pattern>
        <pattern muted="0" pos="18432" steps="16" name="Metal Drips" type="1">
          <note key="62" vol="200" pos="0" pan="0" len="48"/>
          <note key="69" vol="200" pos="48" pan="0" len="24"/>
          <note key="67" vol="200" pos="72" pan="0" len="48"/>
          <note key="66" vol="200" pos="120" pan="0" len="48"/>
          <note key="62" vol="200" pos="168" pan="0" len="96"/>
          <note key="69" vol="200" pos="264" pan="0" len="24"/>
          <note key="67" vol="200" pos="288" pan="0" len="48"/>
          <note key="66" vol="200" pos="336" pan="0" len="48"/>
          <note key="64" vol="200" pos="384" pan="0" len="48"/>
          <note key="62" vol="200" pos="432" pan="0" len="24"/>
          <note key="64" vol="200" pos="456" pan="0" len="48"/>
          <note key="66" vol="200" pos="504" pan="0" len="48"/>
          <note key="64" vol="200" pos="552" pan="0" len="96"/>
          <note key="64" vol="200" pos="648" pan="0" len="24"/>
          <note key="64" vol="200" pos="672" pan="0" len="48"/>
          <note key="66" vol="200" pos="720" pan="0" len="48"/>
          <note key="67" vol="200" pos="768" pan="0" len="48"/>
          <note key="69" vol="200" pos="816" pan="0" len="24"/>
          <note key="71" vol="200" pos="840" pan="0" len="48"/>
          <note key="74" vol="200" pos="888" pan="0" len="48"/>
          <note key="71" vol="200" pos="936" pan="0" len="72"/>
          <note key="69" vol="200" pos="1008" pan="0" len="48"/>
          <note key="67" vol="200" pos="1056" pan="0" len="48"/>
          <note key="69" vol="200" pos="1104" pan="0" len="48"/>
          <note key="69" vol="200" pos="1152" pan="0" len="48"/>
          <note key="69" vol="200" pos="1200" pan="0" len="24"/>
          <note key="69" vol="200" pos="1224" pan="0" len="48"/>
          <note key="69" vol="200" pos="1272" pan="0" len="24"/>
          <note key="69" vol="200" pos="1296" pan="0" len="24"/>
          <note key="67" vol="200" pos="1320" pan="0" len="24"/>
          <note key="66" vol="200" pos="1344" pan="0" len="48"/>
          <note key="69" vol="200" pos="1392" pan="0" len="48"/>
          <note key="67" vol="200" pos="1440" pan="0" len="48"/>
          <note key="66" vol="200" pos="1488" pan="0" len="48"/>
        </pattern>
        <pattern muted="0" pos="19968" steps="16" name="Metal Drips" type="1">
          <note key="62" vol="200" pos="0" pan="0" len="48"/>
          <note key="69" vol="200" pos="48" pan="0" len="24"/>
          <note key="67" vol="200" pos="72" pan="0" len="48"/>
          <note key="66" vol="200" pos="120" pan="0" len="48"/>
          <note key="62" vol="200" pos="168" pan="0" len="96"/>
          <note key="69" vol="200" pos="264" pan="0" len="24"/>
          <note key="67" vol="200" pos="288" pan="0" len="48"/>
          <note key="66" vol="200" pos="336" pan="0" len="48"/>
          <note key="64" vol="200" pos="384" pan="0" len="48"/>
          <note key="62" vol="200" pos="432" pan="0" len="24"/>
          <note key="64" vol="200" pos="456" pan="0" len="48"/>
          <note key="66" vol="200" pos="504" pan="0" len="48"/>
          <note key="64" vol="200" pos="552" pan="0" len="96"/>
          <note key="64" vol="200" pos="648" pan="0" len="24"/>
          <note key="64" vol="200" pos="672" pan="0" len="48"/>
          <note key="66" vol="200" pos="720" pan="0" len="48"/>
          <note key="67" vol="200" pos="768" pan="0" len="48"/>
          <note key="69" vol="200" pos="816" pan="0" len="24"/>
          <note key="71" vol="200" pos="840" pan="0" len="48"/>
          <note key="74" vol="200" pos="888" pan="0" len="48"/>
          <note key="79" vol="200" pos="936" pan="0" len="72"/>
          <note key="78" vol="200" pos="1008" pan="0" len="48"/>
          <note key="76" vol="200" pos="1056" pan="0" len="48"/>
          <note key="74" vol="200" pos="1104" pan="0" len="48"/>
          <note key="78" vol="200" pos="1152" pan="0" len="48"/>
          <note key="76" vol="200" pos="1200" pan="0" len="24"/>
          <note key="76" vol="200" pos="1224" pan="0" len="48"/>
          <note key="76" vol="200" pos="1272" pan="0" len="24"/>
          <note key="76" vol="200" pos="1296" pan="0" len="24"/>
          <note key="74" vol="200" pos="1320" pan="0" len="24"/>
          <note key="73" vol="200" pos="1344" pan="0" len="72"/>
          <note key="71" vol="200" pos="1416" pan="0" len="72"/>
          <note key="73" vol="200" pos="1488" pan="0" len="48"/>
          <note key="74" vol="200" pos="1536" pan="0" len="384"/>
        </pattern>
        <pattern muted="0" pos="38400" steps="16" name="Metal Drips" type="1">
          <note key="62" vol="200" pos="0" pan="0" len="48"/>
          <note key="69" vol="200" pos="48" pan="0" len="24"/>
          <note key="67" vol="200" pos="72" pan="0" len="48"/>
          <note key="66" vol="200" pos="120" pan="0" len="48"/>
          <note key="62" vol="200" pos="168" pan="0" len="96"/>
          <note key="69" vol="200" pos="264" pan="0" len="24"/>
          <note key="67" vol="200" pos="288" pan="0" len="48"/>
          <note key="66" vol="200" pos="336" pan="0" len="48"/>
          <note key="64" vol="200" pos="384" pan="0" len="48"/>
          <note key="62" vol="200" pos="432" pan="0" len="24"/>
          <note key="64" vol="200" pos="456" pan="0" len="48"/>
          <note key="66" vol="200" pos="504" pan="0" len="48"/>
          <note key="64" vol="200" pos="552" pan="0" len="96"/>
          <note key="64" vol="200" pos="648" pan="0" len="24"/>
          <note key="64" vol="200" pos="672" pan="0" len="48"/>
          <note key="66" vol="200" pos="720" pan="0" len="48"/>
          <note key="67" vol="200" pos="768" pan="0" len="48"/>
          <note key="69" vol="200" pos="816" pan="0" len="24"/>
          <note key="71" vol="200" pos="840" pan="0" len="48"/>
          <note key="74" vol="200" pos="888" pan="0" len="48"/>
          <note key="71" vol="200" pos="936" pan="0" len="72"/>
          <note key="69" vol="200" pos="1008" pan="0" len="48"/>
          <note key="67" vol="200" pos="1056" pan="0" len="48"/>
          <note key="69" vol="200" pos="1104" pan="0" len="48"/>
          <note key="69" vol="200" pos="1152" pan="0" len="48"/>
          <note key="69" vol="200" pos="1200" pan="0" len="24"/>
          <note key="69" vol="200" pos="1224" pan="0" len="48"/>
          <note key="69" vol="200" pos="1272" pan="0" len="24"/>
          <note key="69" vol="200" pos="1296" pan="0" len="24"/>
          <note key="67" vol="200" pos="1320" pan="0" len="24"/>
          <note key="66" vol="200" pos="1344" pan="0" len="48"/>
          <note key="69" vol="200" pos="1392" pan="0" len="48"/>
          <note key="67" vol="200" pos="1440" pan="0" len="48"/>
          <note key="66" vol="200" pos="1488" pan="0" len="48"/>
        </pattern>
        <pattern muted="0" pos="41472" steps="16" name="Metal Drips" type="1">
          <note key="62" vol="200" pos="0" pan="0" len="48"/>
          <note key="0" vol="200" pos="0" pan="0" len="48"/>
          <note key="69" vol="200" pos="48" pan="0" len="24"/>
          <note key="67" vol="200" pos="72" pan="0" len="48"/>
          <note key="66" vol="200" pos="120" pan="0" len="48"/>
          <note key="62" vol="200" pos="168" pan="0" len="96"/>
          <note key="69" vol="200" pos="264" pan="0" len="24"/>
          <note key="67" vol="200" pos="288" pan="0" len="48"/>
          <note key="66" vol="200" pos="336" pan="0" len="48"/>
          <note key="64" vol="200" pos="384" pan="0" len="48"/>
          <note key="62" vol="200" pos="432" pan="0" len="24"/>
          <note key="64" vol="200" pos="456" pan="0" len="48"/>
          <note key="66" vol="200" pos="504" pan="0" len="48"/>
          <note key="64" vol="200" pos="552" pan="0" len="96"/>
          <note key="64" vol="200" pos="648" pan="0" len="24"/>
          <note key="64" vol="200" pos="672" pan="0" len="48"/>
          <note key="66" vol="200" pos="720" pan="0" len="48"/>
          <note key="67" vol="200" pos="768" pan="0" len="48"/>
          <note key="69" vol="200" pos="816" pan="0" len="24"/>
          <note key="71" vol="200" pos="840" pan="0" len="48"/>
          <note key="74" vol="200" pos="888" pan="0" len="48"/>
          <note key="79" vol="200" pos="936" pan="0" len="72"/>
          <note key="78" vol="200" pos="1008" pan="0" len="48"/>
          <note key="76" vol="200" pos="1056" pan="0" len="48"/>
          <note key="74" vol="200" pos="1104" pan="0" len="48"/>
          <note key="78" vol="200" pos="1152" pan="0" len="48"/>
          <note key="76" vol="200" pos="1200" pan="0" len="24"/>
          <note key="76" vol="200" pos="1224" pan="0" len="48"/>
          <note key="76" vol="200" pos="1272" pan="0" len="24"/>
          <note key="76" vol="200" pos="1296" pan="0" len="24"/>
          <note key="74" vol="200" pos="1320" pan="0" len="24"/>
          <note key="73" vol="200" pos="1344" pan="0" len="72"/>
          <note key="71" vol="200" pos="1416" pan="0" len="72"/>
          <note key="73" vol="200" pos="1488" pan="0" len="48"/>
          <note key="74" vol="200" pos="1536" pan="0" len="384"/>
        </pattern>
        <pattern muted="0" pos="39936" steps="16" name="Metal Drips" type="1">
          <note key="62" vol="200" pos="0" pan="0" len="48"/>
          <note key="69" vol="200" pos="48" pan="0" len="24"/>
          <note key="67" vol="200" pos="72" pan="0" len="48"/>
          <note key="66" vol="200" pos="120" pan="0" len="48"/>
          <note key="62" vol="200" pos="168" pan="0" len="96"/>
          <note key="69" vol="200" pos="264" pan="0" len="24"/>
          <note key="67" vol="200" pos="288" pan="0" len="48"/>
          <note key="66" vol="200" pos="336" pan="0" len="48"/>
          <note key="64" vol="200" pos="384" pan="0" len="48"/>
          <note key="62" vol="200" pos="432" pan="0" len="24"/>
          <note key="64" vol="200" pos="456" pan="0" len="48"/>
          <note key="66" vol="200" pos="504" pan="0" len="48"/>
          <note key="64" vol="200" pos="552" pan="0" len="96"/>
          <note key="64" vol="200" pos="648" pan="0" len="24"/>
          <note key="64" vol="200" pos="672" pan="0" len="48"/>
          <note key="66" vol="200" pos="720" pan="0" len="48"/>
          <note key="67" vol="200" pos="768" pan="0" len="48"/>
          <note key="69" vol="200" pos="816" pan="0" len="24"/>
          <note key="71" vol="200" pos="840" pan="0" len="48"/>
          <note key="74" vol="200" pos="888" pan="0" len="48"/>
          <note key="71" vol="200" pos="936" pan="0" len="72"/>
          <note key="69" vol="200" pos="1008" pan="0" len="48"/>
          <note key="67" vol="200" pos="1056" pan="0" len="48"/>
          <note key="69" vol="200" pos="1104" pan="0" len="48"/>
          <note key="69" vol="200" pos="1152" pan="0" len="48"/>
          <note key="69" vol="200" pos="1200" pan="0" len="24"/>
          <note key="69" vol="200" pos="1224" pan="0" len="48"/>
          <note key="69" vol="200" pos="1272" pan="0" len="24"/>
          <note key="69" vol="200" pos="1296" pan="0" len="24"/>
          <note key="67" vol="200" pos="1320" pan="0" len="24"/>
          <note key="66" vol="200" pos="1344" pan="0" len="48"/>
          <note key="69" vol="200" pos="1392" pan="0" len="48"/>
          <note key="67" vol="200" pos="1440" pan="0" len="48"/>
          <note key="66" vol="200" pos="1488" pan="0" len="48"/>
        </pattern>
        <pattern muted="0" pos="33792" steps="16" name="Metal Drips" type="1">
          <note key="86" vol="200" pos="0" pan="0" len="48"/>
          <note key="81" vol="200" pos="48" pan="0" len="48"/>
          <note key="85" vol="200" pos="96" pan="0" len="48"/>
          <note key="81" vol="200" pos="144" pan="0" len="48"/>
          <note key="86" vol="200" pos="192" pan="0" len="48"/>
          <note key="81" vol="200" pos="240" pan="0" len="48"/>
          <note key="85" vol="200" pos="288" pan="0" len="48"/>
          <note key="81" vol="200" pos="336" pan="0" len="48"/>
          <note key="86" vol="200" pos="384" pan="0" len="48"/>
          <note key="81" vol="200" pos="432" pan="0" len="48"/>
          <note key="85" vol="200" pos="480" pan="0" len="48"/>
          <note key="81" vol="200" pos="528" pan="0" len="48"/>
          <note key="86" vol="200" pos="576" pan="0" len="48"/>
          <note key="81" vol="200" pos="624" pan="0" len="48"/>
          <note key="85" vol="200" pos="672" pan="0" len="48"/>
          <note key="81" vol="200" pos="720" pan="0" len="48"/>
        </pattern>
        <pattern muted="0" pos="34560" steps="16" name="Metal Drips" type="1">
          <note key="86" vol="200" pos="0" pan="0" len="48"/>
          <note key="81" vol="200" pos="48" pan="0" len="48"/>
          <note key="85" vol="200" pos="96" pan="0" len="48"/>
          <note key="81" vol="200" pos="144" pan="0" len="48"/>
          <note key="86" vol="200" pos="192" pan="0" len="48"/>
          <note key="81" vol="200" pos="240" pan="0" len="48"/>
          <note key="85" vol="200" pos="288" pan="0" len="48"/>
          <note key="81" vol="200" pos="336" pan="0" len="48"/>
          <note key="86" vol="200" pos="384" pan="0" len="48"/>
          <note key="81" vol="200" pos="432" pan="0" len="48"/>
          <note key="85" vol="200" pos="480" pan="0" len="48"/>
          <note key="81" vol="200" pos="528" pan="0" len="48"/>
          <note key="86" vol="200" pos="576" pan="0" len="48"/>
          <note key="81" vol="200" pos="624" pan="0" len="48"/>
          <note key="85" vol="200" pos="672" pan="0" len="48"/>
          <note key="81" vol="200" pos="720" pan="0" len="48"/>
        </pattern>
        <pattern muted="0" pos="32256" steps="16" name="Metal Drips" type="1">
          <note key="86" vol="200" pos="0" pan="0" len="384"/>
          <note key="81" vol="200" pos="0" pan="0" len="384"/>
          <note key="78" vol="200" pos="0" pan="0" len="384"/>
          <note key="86" vol="200" pos="384" pan="0" len="168"/>
          <note key="83" vol="200" pos="384" pan="0" len="168"/>
          <note key="79" vol="200" pos="384" pan="0" len="168"/>
          <note key="88" vol="200" pos="552" pan="0" len="216"/>
          <note key="85" vol="200" pos="552" pan="0" len="216"/>
          <note key="81" vol="200" pos="552" pan="0" len="216"/>
        </pattern>
        <pattern muted="0" pos="33024" steps="16" name="Metal Drips" type="1">
          <note key="86" vol="200" pos="0" pan="0" len="384"/>
          <note key="81" vol="200" pos="0" pan="0" len="384"/>
          <note key="78" vol="200" pos="0" pan="0" len="384"/>
          <note key="86" vol="200" pos="384" pan="0" len="168"/>
          <note key="83" vol="200" pos="384" pan="0" len="168"/>
          <note key="79" vol="200" pos="384" pan="0" len="168"/>
          <note key="88" vol="200" pos="552" pan="0" len="120"/>
          <note key="85" vol="200" pos="552" pan="0" len="120"/>
          <note key="81" vol="200" pos="552" pan="0" len="120"/>
        </pattern>
        <pattern muted="0" pos="36864" steps="16" name="Metal Drips" type="1">
          <note key="74" vol="200" pos="0" pan="0" len="12"/>
          <note key="71" vol="200" pos="12" pan="0" len="12"/>
          <note key="74" vol="200" pos="24" pan="0" len="12"/>
          <note key="71" vol="200" pos="36" pan="0" len="12"/>
          <note key="73" vol="200" pos="48" pan="0" len="12"/>
          <note key="71" vol="200" pos="60" pan="0" len="12"/>
          <note key="74" vol="200" pos="72" pan="0" len="12"/>
          <note key="71" vol="200" pos="84" pan="0" len="12"/>
          <note key="76" vol="200" pos="96" pan="0" len="12"/>
          <note key="71" vol="200" pos="108" pan="0" len="12"/>
          <note key="74" vol="200" pos="120" pan="0" len="12"/>
          <note key="71" vol="200" pos="132" pan="0" len="12"/>
          <note key="73" vol="200" pos="144" pan="0" len="12"/>
          <note key="71" vol="200" pos="156" pan="0" len="12"/>
          <note key="74" vol="200" pos="168" pan="0" len="12"/>
          <note key="71" vol="200" pos="180" pan="0" len="12"/>
        </pattern>
        <pattern muted="0" pos="37056" steps="16" name="Metal Drips" type="1">
          <note key="74" vol="200" pos="0" pan="0" len="12"/>
          <note key="71" vol="200" pos="12" pan="0" len="12"/>
          <note key="74" vol="200" pos="24" pan="0" len="12"/>
          <note key="71" vol="200" pos="36" pan="0" len="12"/>
          <note key="73" vol="200" pos="48" pan="0" len="12"/>
          <note key="71" vol="200" pos="60" pan="0" len="12"/>
          <note key="74" vol="200" pos="72" pan="0" len="12"/>
          <note key="71" vol="200" pos="84" pan="0" len="12"/>
          <note key="76" vol="200" pos="96" pan="0" len="12"/>
          <note key="71" vol="200" pos="108" pan="0" len="12"/>
          <note key="74" vol="200" pos="120" pan="0" len="12"/>
          <note key="71" vol="200" pos="132" pan="0" len="12"/>
          <note key="73" vol="200" pos="144" pan="0" len="12"/>
          <note key="71" vol="200" pos="156" pan="0" len="12"/>
          <note key="74" vol="200" pos="168" pan="0" len="12"/>
          <note key="71" vol="200" pos="180" pan="0" len="12"/>
        </pattern>
        <pattern muted="0" pos="37248" steps="16" name="Metal Drips" type="1">
          <note key="74" vol="200" pos="0" pan="0" len="12"/>
          <note key="71" vol="200" pos="12" pan="0" len="12"/>
          <note key="74" vol="200" pos="24" pan="0" len="12"/>
          <note key="71" vol="200" pos="36" pan="0" len="12"/>
          <note key="73" vol="200" pos="48" pan="0" len="12"/>
          <note key="71" vol="200" pos="60" pan="0" len="12"/>
          <note key="74" vol="200" pos="72" pan="0" len="12"/>
          <note key="71" vol="200" pos="84" pan="0" len="12"/>
          <note key="76" vol="200" pos="96" pan="0" len="12"/>
          <note key="71" vol="200" pos="108" pan="0" len="12"/>
          <note key="74" vol="200" pos="120" pan="0" len="12"/>
          <note key="71" vol="200" pos="132" pan="0" len="12"/>
          <note key="73" vol="200" pos="144" pan="0" len="12"/>
          <note key="71" vol="200" pos="156" pan="0" len="12"/>
          <note key="74" vol="200" pos="168" pan="0" len="12"/>
          <note key="71" vol="200" pos="180" pan="0" len="12"/>
        </pattern>
        <pattern muted="0" pos="37440" steps="16" name="Metal Drips" type="1">
          <note key="74" vol="200" pos="0" pan="0" len="12"/>
          <note key="71" vol="200" pos="12" pan="0" len="12"/>
          <note key="74" vol="200" pos="24" pan="0" len="12"/>
          <note key="71" vol="200" pos="36" pan="0" len="12"/>
          <note key="73" vol="200" pos="48" pan="0" len="12"/>
          <note key="71" vol="200" pos="60" pan="0" len="12"/>
          <note key="74" vol="200" pos="72" pan="0" len="12"/>
          <note key="71" vol="200" pos="84" pan="0" len="12"/>
          <note key="76" vol="200" pos="96" pan="0" len="12"/>
          <note key="71" vol="200" pos="108" pan="0" len="12"/>
          <note key="74" vol="200" pos="120" pan="0" len="12"/>
          <note key="71" vol="200" pos="132" pan="0" len="12"/>
          <note key="76" vol="200" pos="144" pan="0" len="24"/>
          <note key="78" vol="200" pos="168" pan="0" len="24"/>
        </pattern>
        <pattern muted="0" pos="37632" steps="16" name="Metal Drips" type="1">
          <note key="79" vol="200" pos="0" pan="0" len="48"/>
          <note key="78" vol="200" pos="48" pan="0" len="48"/>
          <note key="76" vol="200" pos="96" pan="0" len="48"/>
          <note key="74" vol="200" pos="144" pan="0" len="48"/>
          <note key="76" vol="200" pos="192" pan="0" len="24"/>
          <note key="74" vol="200" pos="216" pan="0" len="24"/>
          <note key="73" vol="200" pos="240" pan="0" len="24"/>
          <note key="74" vol="200" pos="264" pan="0" len="48"/>
          <note key="73" vol="200" pos="312" pan="0" len="12"/>
          <note key="74" vol="200" pos="324" pan="0" len="12"/>
          <note key="73" vol="200" pos="336" pan="0" len="24"/>
          <note key="74" vol="200" pos="360" pan="0" len="24"/>
        </pattern>
        <pattern muted="0" pos="38016" steps="16" name="Metal Drips" type="1">
          <note key="78" vol="200" pos="0" pan="0" len="12"/>
          <note key="79" vol="200" pos="12" pan="0" len="12"/>
          <note key="78" vol="200" pos="24" pan="0" len="12"/>
          <note key="79" vol="200" pos="36" pan="0" len="12"/>
          <note key="78" vol="200" pos="48" pan="0" len="24"/>
          <note key="76" vol="200" pos="72" pan="0" len="24"/>
          <note key="73" vol="200" pos="96" pan="0" len="12"/>
          <note key="74" vol="200" pos="108" pan="0" len="12"/>
          <note key="73" vol="200" pos="120" pan="0" len="12"/>
          <note key="74" vol="200" pos="132" pan="0" len="12"/>
          <note key="73" vol="200" pos="144" pan="0" len="24"/>
          <note key="71" vol="200" pos="168" pan="0" len="24"/>
          <note key="69" vol="200" pos="192" pan="0" len="24"/>
        </pattern>
        <pattern muted="0" pos="35328" steps="16" name="Metal Drips" type="1">
          <note key="71" vol="200" pos="0" pan="0" len="384"/>
          <note key="67" vol="200" pos="384" pan="0" len="384"/>
          <note key="69" vol="200" pos="768" pan="0" len="384"/>
          <note key="74" vol="200" pos="1152" pan="0" len="384"/>
        </pattern>
        <pattern muted="0" pos="43584" steps="16" name="Metal Drips" type="1">
          <note key="74" vol="200" pos="0" pan="0" len="72"/>
          <note key="73" vol="200" pos="72" pan="0" len="72"/>
          <note key="71" vol="200" pos="144" pan="0" len="24"/>
          <note key="69" vol="200" pos="168" pan="0" len="24"/>
          <note key="71" vol="200" pos="192" pan="0" len="768"/>
        </pattern>
      </track>
      <track muted="0" solo="0" name="detuned saw" type="0">
        <instrumenttrack fxch="0" usemasterpitch="1" vol="5.8" pitch="0" pitchrange="1" pan="0" basenote="57">
          <instrument name="tripleoscillator">
            <tripleoscillator vol1="21" userwavefile0="" stphdetun0="0" finer1="3" phoffset2="0" wavetype2="2" pan0="0" finer2="0" modalgo3="2" vol0="33" userwavefile1="" finel1="-6" vol2="33" phoffset0="0" wavetype0="2" finer0="7" modalgo2="2" pan2="0" coarse1="-12" modalgo1="2" stphdetun2="0" coarse2="0" phoffset1="0" finel2="0" stphdetun1="0" finel0="-11" wavetype1="2" pan1="0" userwavefile2="" coarse0="0"/>
          </instrument>
          <eldata fres="0.5" fwet="1" fcut="6886" ftype="0">
            <elvol pdel="0" latt="0" lshp="0" lspd_denominator="4" lamt="0" amt="1" sustain="1" lspd_syncmode="0" att="0.0559997" x100="0" lspd_numerator="4" lspd="0.1" ctlenvamt="0" dec="1.496" lpdel="0" hold="0.5" userwavefile="" rel="0.1"/>
            <elcut pdel="0" latt="0" lshp="0" lspd_denominator="4" lamt="0" amt="0" sustain="0.5" lspd_syncmode="0" att="0" x100="0" lspd_numerator="4" lspd="0.1" ctlenvamt="0" dec="0.5" lpdel="0" hold="0.5" userwavefile="" rel="0.1"/>
            <elres pdel="0" latt="0" lshp="0" lspd_denominator="4" lamt="0" amt="0" sustain="0.5" lspd_syncmode="0" att="0" x100="0" lspd_numerator="4" lspd="0.1" ctlenvamt="0" dec="0.5" lpdel="0" hold="0.5" userwavefile="" rel="0.1"/>
          </eldata>
          <chordcreator chordrange="1" chord="0" chord-enabled="0"/>
          <arpeggiator arptime="200" arpskip="0" arpgate="100" arptime_syncmode="0" arpmode="0" arprange="1" arp="0" arpcycle="0" arptime_denominator="4" arptime_numerator="4" arpdir="0" arp-enabled="0" arpmiss="0"/>
          <midiport outputchannel="1" inputcontroller="0" inputchannel="0" basevelocity="63" outputprogram="1" readable="0" outputcontroller="0" fixedinputvelocity="-1" fixedoutputnote="-1" writable="0" fixedoutputvelocity="-1"/>
          <fxchain numofeffects="1" enabled="1">
            <effect wet="1" autoquit_denominator="4" on="1" autoquit_numerator="4" gate="0" autoquit_syncmode="0" autoquit="1" name="ladspaeffect">
              <ladspacontrols ports="9">
                <port07>
                  <data value="3.61715" id="3548553" scale_type="log"/>
                </port07>
                <port08>
                  <data value="4520.25" id="2960956" scale_type="log"/>
                </port08>
                <port09 data="1"/>
                <port010 data="0.88625"/>
                <port011 data="0.8475"/>
                <port012 data="0.8875"/>
                <port013 data="0"/>
                <port014>
                  <data value="20" id="2720770" scale_type="log"/>
                </port014>
                <port015>
                  <data value="11928.1" id="6862329" scale_type="log"/>
                </port015>
              </ladspacontrols>
              <key>
                <attribute value="calf" name="file"/>
                <attribute value="Reverb" name="plugin"/>
              </key>
            </effect>
          </fxchain>
        </instrumenttrack>
        <pattern muted="0" pos="7680" steps="16" name="detuned saw" type="1">
          <note key="62" vol="200" pos="0" pan="0" len="768"/>
          <note key="59" vol="200" pos="0" pan="0" len="768"/>
          <note key="54" vol="200" pos="0" pan="0" len="768"/>
        </pattern>
        <pattern muted="0" pos="8448" steps="16" name="detuned saw" type="1">
          <note key="62" vol="200" pos="0" pan="0" len="600"/>
          <note key="59" vol="200" pos="0" pan="0" len="600"/>
          <note key="55" vol="200" pos="0" pan="0" len="600"/>
        </pattern>
        <pattern muted="0" pos="9216" steps="16" name="detuned saw" type="1">
          <note key="62" vol="200" pos="0" pan="0" len="768"/>
          <note key="59" vol="200" pos="0" pan="0" len="768"/>
          <note key="54" vol="200" pos="0" pan="0" len="768"/>
        </pattern>
        <pattern muted="0" pos="9984" steps="16" name="detuned saw" type="1">
          <note key="62" vol="200" pos="0" pan="0" len="768"/>
          <note key="59" vol="200" pos="0" pan="0" len="768"/>
          <note key="55" vol="200" pos="0" pan="0" len="768"/>
        </pattern>
        <pattern muted="0" pos="10752" steps="16" name="detuned saw" type="1">
          <note key="66" vol="200" pos="0" pan="0" len="768"/>
          <note key="62" vol="200" pos="0" pan="0" len="768"/>
          <note key="59" vol="200" pos="0" pan="0" len="768"/>
        </pattern>
        <pattern muted="0" pos="11520" steps="16" name="detuned saw" type="1">
          <note key="67" vol="200" pos="0" pan="0" len="384"/>
          <note key="62" vol="200" pos="0" pan="0" len="384"/>
          <note key="59" vol="200" pos="0" pan="0" len="384"/>
          <note key="69" vol="200" pos="384" pan="0" len="384"/>
          <note key="64" vol="200" pos="384" pan="0" len="384"/>
          <note key="61" vol="200" pos="384" pan="0" len="384"/>
        </pattern>
        <pattern muted="0" pos="6144" steps="16" name="detuned saw" type="1">
          <note key="59" vol="200" pos="0" pan="0" len="768"/>
          <note key="54" vol="200" pos="0" pan="0" len="768"/>
          <note key="50" vol="200" pos="0" pan="0" len="768"/>
        </pattern>
        <pattern muted="0" pos="6912" steps="16" name="detuned saw" type="1">
          <note key="59" vol="200" pos="0" pan="0" len="768"/>
          <note key="55" vol="200" pos="0" pan="0" len="768"/>
          <note key="50" vol="200" pos="0" pan="0" len="768"/>
        </pattern>
        <pattern muted="0" pos="22272" steps="16" name="detuned saw" type="1">
          <note key="54" vol="200" pos="0" pan="0" len="384"/>
          <note key="50" vol="200" pos="0" pan="0" len="384"/>
          <note key="55" vol="200" pos="384" pan="0" len="192"/>
          <note key="50" vol="200" pos="384" pan="0" len="192"/>
          <note key="57" vol="200" pos="576" pan="0" len="192"/>
          <note key="52" vol="200" pos="576" pan="0" len="192"/>
        </pattern>
        <pattern muted="0" pos="29952" steps="16" name="detuned saw" type="1">
          <note key="74" vol="200" pos="0" pan="0" len="72"/>
          <note key="69" vol="200" pos="0" pan="0" len="384"/>
          <note key="66" vol="200" pos="0" pan="0" len="384"/>
          <note key="62" vol="200" pos="0" pan="0" len="384"/>
          <note key="76" vol="200" pos="72" pan="0" len="72"/>
          <note key="78" vol="200" pos="144" pan="0" len="48"/>
          <note key="81" vol="200" pos="192" pan="0" len="96"/>
          <note key="78" vol="200" pos="288" pan="0" len="48"/>
          <note key="81" vol="200" pos="336" pan="0" len="48"/>
          <note key="83" vol="200" pos="384" pan="0" len="72"/>
          <note key="69" vol="200" pos="384" pan="0" len="384"/>
          <note key="64" vol="200" pos="384" pan="0" len="384"/>
          <note key="61" vol="200" pos="384" pan="0" len="384"/>
          <note key="81" vol="200" pos="456" pan="0" len="72"/>
          <note key="78" vol="200" pos="528" pan="0" len="48"/>
          <note key="81" vol="200" pos="576" pan="0" len="96"/>
          <note key="78" vol="200" pos="672" pan="0" len="48"/>
          <note key="81" vol="200" pos="720" pan="0" len="48"/>
          <note key="83" vol="200" pos="768" pan="0" len="72"/>
          <note key="71" vol="200" pos="768" pan="0" len="384"/>
          <note key="67" vol="200" pos="768" pan="0" len="384"/>
          <note key="62" vol="200" pos="768" pan="0" len="384"/>
          <note key="81" vol="200" pos="840" pan="0" len="72"/>
          <note key="79" vol="200" pos="912" pan="0" len="48"/>
          <note key="83" vol="200" pos="960" pan="0" len="72"/>
          <note key="81" vol="200" pos="1032" pan="0" len="72"/>
          <note key="79" vol="200" pos="1104" pan="0" len="48"/>
          <note key="78" vol="200" pos="1152" pan="0" len="72"/>
          <note key="74" vol="200" pos="1152" pan="0" len="192"/>
          <note key="69" vol="200" pos="1152" pan="0" len="192"/>
          <note key="66" vol="200" pos="1152" pan="0" len="192"/>
          <note key="79" vol="200" pos="1224" pan="0" len="72"/>
          <note key="78" vol="200" pos="1296" pan="0" len="48"/>
          <note key="76" vol="200" pos="1344" pan="0" len="96"/>
          <note key="73" vol="200" pos="1344" pan="0" len="192"/>
          <note key="69" vol="200" pos="1344" pan="0" len="192"/>
          <note key="64" vol="200" pos="1344" pan="0" len="192"/>
          <note key="78" vol="200" pos="1440" pan="0" len="48"/>
          <note key="76" vol="200" pos="1488" pan="0" len="48"/>
        </pattern>
        <pattern muted="0" pos="31488" steps="16" name="detuned saw" type="1">
          <note key="74" vol="200" pos="0" pan="0" len="384"/>
          <note key="69" vol="200" pos="0" pan="0" len="384"/>
          <note key="66" vol="200" pos="0" pan="0" len="384"/>
        </pattern>
        <pattern muted="0" pos="31872" steps="16" name="detuned saw" type="1">
          <note key="74" vol="200" pos="0" pan="0" len="192"/>
          <note key="69" vol="200" pos="0" pan="0" len="192"/>
          <note key="66" vol="200" pos="0" pan="0" len="192"/>
        </pattern>
        <pattern muted="0" pos="38400" steps="16" name="detuned saw" type="1">
          <note key="74" vol="187" pos="0" pan="0" len="72"/>
          <note key="69" vol="200" pos="0" pan="0" len="384"/>
          <note key="66" vol="200" pos="0" pan="0" len="384"/>
          <note key="62" vol="200" pos="0" pan="0" len="384"/>
          <note key="76" vol="187" pos="72" pan="0" len="72"/>
          <note key="78" vol="187" pos="144" pan="0" len="48"/>
          <note key="81" vol="187" pos="192" pan="0" len="96"/>
          <note key="78" vol="187" pos="288" pan="0" len="48"/>
          <note key="81" vol="187" pos="336" pan="0" len="48"/>
          <note key="83" vol="187" pos="384" pan="0" len="72"/>
          <note key="69" vol="200" pos="384" pan="0" len="384"/>
          <note key="64" vol="200" pos="384" pan="0" len="384"/>
          <note key="61" vol="200" pos="384" pan="0" len="384"/>
          <note key="81" vol="187" pos="456" pan="0" len="72"/>
          <note key="78" vol="187" pos="528" pan="0" len="48"/>
          <note key="81" vol="187" pos="576" pan="0" len="96"/>
          <note key="78" vol="187" pos="672" pan="0" len="48"/>
          <note key="81" vol="187" pos="720" pan="0" len="48"/>
          <note key="83" vol="187" pos="768" pan="0" len="72"/>
          <note key="71" vol="200" pos="768" pan="0" len="384"/>
          <note key="67" vol="200" pos="768" pan="0" len="384"/>
          <note key="62" vol="200" pos="768" pan="0" len="384"/>
          <note key="81" vol="187" pos="840" pan="0" len="72"/>
          <note key="79" vol="187" pos="912" pan="0" len="48"/>
          <note key="83" vol="187" pos="960" pan="0" len="72"/>
          <note key="81" vol="187" pos="1032" pan="0" len="72"/>
          <note key="79" vol="187" pos="1104" pan="0" len="48"/>
          <note key="78" vol="187" pos="1152" pan="0" len="72"/>
          <note key="69" vol="200" pos="1152" pan="0" len="192"/>
          <note key="66" vol="200" pos="1152" pan="0" len="192"/>
          <note key="62" vol="200" pos="1152" pan="0" len="192"/>
          <note key="79" vol="187" pos="1224" pan="0" len="72"/>
          <note key="78" vol="187" pos="1296" pan="0" len="48"/>
          <note key="76" vol="187" pos="1344" pan="0" len="96"/>
          <note key="69" vol="200" pos="1344" pan="0" len="192"/>
          <note key="64" vol="200" pos="1344" pan="0" len="192"/>
          <note key="61" vol="200" pos="1344" pan="0" len="192"/>
          <note key="78" vol="187" pos="1440" pan="0" len="48"/>
          <note key="76" vol="187" pos="1488" pan="0" len="48"/>
        </pattern>
        <pattern muted="0" pos="41472" steps="16" name="detuned saw" type="1">
          <note key="74" vol="200" pos="0" pan="0" len="72"/>
          <note key="69" vol="200" pos="0" pan="0" len="384"/>
          <note key="66" vol="200" pos="0" pan="0" len="384"/>
          <note key="62" vol="200" pos="0" pan="0" len="384"/>
          <note key="76" vol="200" pos="72" pan="0" len="72"/>
          <note key="78" vol="200" pos="144" pan="0" len="48"/>
          <note key="81" vol="200" pos="192" pan="0" len="96"/>
          <note key="78" vol="200" pos="288" pan="0" len="48"/>
          <note key="81" vol="200" pos="336" pan="0" len="48"/>
          <note key="83" vol="200" pos="384" pan="0" len="72"/>
          <note key="69" vol="200" pos="384" pan="0" len="384"/>
          <note key="64" vol="200" pos="384" pan="0" len="384"/>
          <note key="61" vol="200" pos="384" pan="0" len="384"/>
          <note key="81" vol="200" pos="456" pan="0" len="72"/>
          <note key="78" vol="200" pos="528" pan="0" len="48"/>
          <note key="81" vol="200" pos="576" pan="0" len="96"/>
          <note key="78" vol="200" pos="672" pan="0" len="48"/>
          <note key="81" vol="200" pos="720" pan="0" len="48"/>
          <note key="83" vol="200" pos="768" pan="0" len="72"/>
          <note key="71" vol="200" pos="768" pan="0" len="384"/>
          <note key="67" vol="200" pos="768" pan="0" len="384"/>
          <note key="62" vol="200" pos="768" pan="0" len="384"/>
          <note key="81" vol="200" pos="840" pan="0" len="72"/>
          <note key="79" vol="200" pos="912" pan="0" len="48"/>
          <note key="83" vol="200" pos="960" pan="0" len="72"/>
          <note key="81" vol="200" pos="1032" pan="0" len="72"/>
          <note key="79" vol="200" pos="1104" pan="0" len="48"/>
          <note key="78" vol="200" pos="1152" pan="0" len="72"/>
          <note key="74" vol="200" pos="1152" pan="0" len="192"/>
          <note key="69" vol="200" pos="1152" pan="0" len="192"/>
          <note key="66" vol="200" pos="1152" pan="0" len="192"/>
          <note key="79" vol="200" pos="1224" pan="0" len="72"/>
          <note key="78" vol="200" pos="1296" pan="0" len="48"/>
          <note key="76" vol="200" pos="1344" pan="0" len="96"/>
          <note key="73" vol="200" pos="1344" pan="0" len="192"/>
          <note key="69" vol="200" pos="1344" pan="0" len="192"/>
          <note key="64" vol="200" pos="1344" pan="0" len="192"/>
          <note key="78" vol="200" pos="1440" pan="0" len="48"/>
          <note key="76" vol="200" pos="1488" pan="0" len="48"/>
        </pattern>
        <pattern muted="0" pos="39936" steps="16" name="detuned saw" type="1">
          <note key="74" vol="200" pos="0" pan="0" len="72"/>
          <note key="69" vol="200" pos="0" pan="0" len="384"/>
          <note key="66" vol="200" pos="0" pan="0" len="384"/>
          <note key="62" vol="200" pos="0" pan="0" len="384"/>
          <note key="76" vol="200" pos="72" pan="0" len="72"/>
          <note key="78" vol="200" pos="144" pan="0" len="48"/>
          <note key="81" vol="200" pos="192" pan="0" len="96"/>
          <note key="78" vol="200" pos="288" pan="0" len="48"/>
          <note key="81" vol="200" pos="336" pan="0" len="48"/>
          <note key="83" vol="200" pos="384" pan="0" len="72"/>
          <note key="69" vol="200" pos="384" pan="0" len="384"/>
          <note key="64" vol="200" pos="384" pan="0" len="384"/>
          <note key="61" vol="200" pos="384" pan="0" len="384"/>
          <note key="81" vol="200" pos="456" pan="0" len="72"/>
          <note key="78" vol="200" pos="528" pan="0" len="48"/>
          <note key="81" vol="200" pos="576" pan="0" len="96"/>
          <note key="78" vol="200" pos="672" pan="0" len="48"/>
          <note key="81" vol="200" pos="720" pan="0" len="48"/>
          <note key="83" vol="200" pos="768" pan="0" len="72"/>
          <note key="71" vol="200" pos="768" pan="0" len="384"/>
          <note key="67" vol="200" pos="768" pan="0" len="384"/>
          <note key="62" vol="200" pos="768" pan="0" len="384"/>
          <note key="81" vol="200" pos="840" pan="0" len="72"/>
          <note key="79" vol="200" pos="912" pan="0" len="48"/>
          <note key="83" vol="200" pos="960" pan="0" len="72"/>
          <note key="81" vol="200" pos="1032" pan="0" len="72"/>
          <note key="79" vol="200" pos="1104" pan="0" len="48"/>
          <note key="78" vol="200" pos="1152" pan="0" len="72"/>
          <note key="69" vol="200" pos="1152" pan="0" len="192"/>
          <note key="66" vol="200" pos="1152" pan="0" len="192"/>
          <note key="62" vol="200" pos="1152" pan="0" len="192"/>
          <note key="79" vol="200" pos="1224" pan="0" len="72"/>
          <note key="78" vol="200" pos="1296" pan="0" len="48"/>
          <note key="76" vol="200" pos="1344" pan="0" len="96"/>
          <note key="69" vol="200" pos="1344" pan="0" len="192"/>
          <note key="64" vol="200" pos="1344" pan="0" len="192"/>
          <note key="61" vol="200" pos="1344" pan="0" len="192"/>
          <note key="78" vol="200" pos="1440" pan="0" len="48"/>
          <note key="76" vol="200" pos="1488" pan="0" len="48"/>
        </pattern>
        <pattern muted="0" pos="43008" steps="16" name="detuned saw" type="1">
          <note key="62" vol="200" pos="0" pan="0" len="768"/>
          <note key="59" vol="200" pos="0" pan="0" len="768"/>
          <note key="54" vol="200" pos="0" pan="0" len="768"/>
        </pattern>
        <pattern muted="0" pos="43776" steps="16" name="detuned saw" type="1">
          <note key="62" vol="200" pos="0" pan="0" len="768"/>
          <note key="59" vol="200" pos="0" pan="0" len="768"/>
          <note key="55" vol="200" pos="0" pan="0" len="768"/>
        </pattern>
        <pattern muted="0" pos="21504" steps="16" name="detuned saw" type="1">
          <note key="74" vol="200" pos="0" pan="0" len="384"/>
          <note key="69" vol="200" pos="0" pan="0" len="384"/>
          <note key="66" vol="200" pos="0" pan="0" len="384"/>
        </pattern>
        <pattern muted="0" pos="21888" steps="16" name="detuned saw" type="1">
          <note key="74" vol="200" pos="0" pan="0" len="192"/>
          <note key="69" vol="200" pos="0" pan="0" len="192"/>
          <note key="66" vol="200" pos="0" pan="0" len="192"/>
        </pattern>
        <pattern muted="0" pos="44544" steps="16" name="detuned saw" type="1">
          <note key="66" vol="200" pos="0" pan="0" len="768"/>
          <note key="62" vol="200" pos="0" pan="0" len="768"/>
          <note key="59" vol="200" pos="0" pan="0" len="768"/>
        </pattern>
        <pattern muted="0" pos="45312" steps="16" name="detuned saw" type="1">
          <note key="67" vol="200" pos="0" pan="0" len="384"/>
          <note key="62" vol="200" pos="0" pan="0" len="384"/>
          <note key="59" vol="200" pos="0" pan="0" len="384"/>
        </pattern>
        <pattern muted="0" pos="46080" steps="16" name="detuned saw" type="1">
          <note key="71" vol="200" pos="0" pan="0" len="384"/>
          <note key="66" vol="200" pos="0" pan="0" len="384"/>
          <note key="62" vol="200" pos="0" pan="0" len="384"/>
        </pattern>
        <pattern muted="0" pos="15360" steps="16" name="detuned saw" type="1">
          <note key="62" vol="142" pos="0" pan="0" len="384"/>
          <note key="59" vol="142" pos="0" pan="0" len="384"/>
          <note key="62" vol="142" pos="384" pan="0" len="384"/>
          <note key="55" vol="142" pos="384" pan="0" len="384"/>
          <note key="61" vol="142" pos="768" pan="0" len="384"/>
          <note key="57" vol="142" pos="768" pan="0" len="384"/>
          <note key="62" vol="142" pos="1152" pan="0" len="384"/>
          <note key="57" vol="142" pos="1152" pan="0" len="384"/>
          <note key="62" vol="142" pos="1536" pan="0" len="384"/>
          <note key="59" vol="142" pos="1536" pan="0" len="384"/>
          <note key="62" vol="142" pos="1920" pan="0" len="384"/>
          <note key="55" vol="142" pos="1920" pan="0" len="384"/>
          <note key="61" vol="142" pos="2304" pan="0" len="600"/>
          <note key="57" vol="142" pos="2304" pan="0" len="600"/>
        </pattern>
        <pattern muted="0" pos="25344" steps="16" name="detuned saw" type="1">
          <note key="62" vol="142" pos="0" pan="0" len="384"/>
          <note key="59" vol="142" pos="0" pan="0" len="384"/>
          <note key="62" vol="142" pos="384" pan="0" len="384"/>
          <note key="55" vol="142" pos="384" pan="0" len="384"/>
          <note key="61" vol="142" pos="768" pan="0" len="384"/>
          <note key="57" vol="142" pos="768" pan="0" len="384"/>
          <note key="62" vol="142" pos="1152" pan="0" len="384"/>
          <note key="57" vol="142" pos="1152" pan="0" len="384"/>
          <note key="62" vol="142" pos="1536" pan="0" len="384"/>
          <note key="59" vol="142" pos="1536" pan="0" len="384"/>
          <note key="62" vol="142" pos="1920" pan="0" len="384"/>
          <note key="55" vol="142" pos="1920" pan="0" len="384"/>
          <note key="61" vol="142" pos="2304" pan="0" len="600"/>
          <note key="57" vol="142" pos="2304" pan="0" len="600"/>
        </pattern>
        <pattern muted="0" pos="45696" steps="16" name="detuned saw" type="1">
          <note key="69" vol="200" pos="0" pan="0" len="384"/>
          <note key="64" vol="200" pos="0" pan="0" len="384"/>
          <note key="61" vol="200" pos="0" pan="0" len="384"/>
        </pattern>
        <pattern muted="0" pos="36864" steps="16" name="detuned saw" type="1">
          <note key="71" vol="100" pos="0" pan="0" len="384"/>
          <note key="66" vol="100" pos="0" pan="0" len="384"/>
          <note key="62" vol="100" pos="0" pan="0" len="384"/>
        </pattern>
        <pattern muted="0" pos="37248" steps="16" name="detuned saw" type="1">
          <note key="71" vol="100" pos="0" pan="0" len="384"/>
          <note key="67" vol="100" pos="0" pan="0" len="384"/>
          <note key="62" vol="100" pos="0" pan="0" len="384"/>
        </pattern>
        <pattern muted="0" pos="37632" steps="16" name="detuned saw" type="1">
          <note key="73" vol="100" pos="0" pan="0" len="384"/>
          <note key="69" vol="100" pos="0" pan="0" len="384"/>
          <note key="64" vol="100" pos="0" pan="0" len="384"/>
        </pattern>
        <pattern muted="0" pos="33792" steps="16" name="detuned saw" type="1">
          <note key="86" vol="157" pos="0" pan="0" len="48"/>
          <note key="81" vol="157" pos="48" pan="0" len="48"/>
          <note key="85" vol="157" pos="96" pan="0" len="48"/>
          <note key="81" vol="157" pos="144" pan="0" len="48"/>
          <note key="86" vol="157" pos="192" pan="0" len="48"/>
          <note key="81" vol="157" pos="240" pan="0" len="48"/>
          <note key="85" vol="157" pos="288" pan="0" len="48"/>
          <note key="81" vol="157" pos="336" pan="0" len="48"/>
          <note key="86" vol="157" pos="384" pan="0" len="48"/>
          <note key="81" vol="157" pos="432" pan="0" len="48"/>
          <note key="85" vol="157" pos="480" pan="0" len="48"/>
          <note key="81" vol="157" pos="528" pan="0" len="48"/>
          <note key="86" vol="157" pos="576" pan="0" len="48"/>
          <note key="81" vol="157" pos="624" pan="0" len="48"/>
          <note key="85" vol="157" pos="672" pan="0" len="48"/>
          <note key="81" vol="157" pos="720" pan="0" len="48"/>
        </pattern>
        <pattern muted="0" pos="35328" steps="16" name="detuned saw" type="1">
          <note key="71" vol="136" pos="0" pan="0" len="384"/>
          <note key="67" vol="136" pos="384" pan="0" len="384"/>
          <note key="69" vol="136" pos="768" pan="0" len="384"/>
          <note key="74" vol="136" pos="1152" pan="0" len="384"/>
        </pattern>
        <pattern muted="0" pos="38016" steps="16" name="detuned saw" type="1">
          <note key="73" vol="100" pos="0" pan="0" len="216"/>
          <note key="69" vol="100" pos="0" pan="0" len="216"/>
          <note key="64" vol="100" pos="0" pan="0" len="216"/>
        </pattern>
        <pattern muted="0" pos="28416" steps="16" name="detuned saw" type="1">
          <note key="74" vol="187" pos="0" pan="0" len="72"/>
          <note key="69" vol="200" pos="0" pan="0" len="384"/>
          <note key="66" vol="200" pos="0" pan="0" len="384"/>
          <note key="62" vol="200" pos="0" pan="0" len="384"/>
          <note key="76" vol="187" pos="72" pan="0" len="72"/>
          <note key="78" vol="187" pos="144" pan="0" len="48"/>
          <note key="81" vol="187" pos="192" pan="0" len="96"/>
          <note key="78" vol="187" pos="288" pan="0" len="48"/>
          <note key="81" vol="187" pos="336" pan="0" len="48"/>
          <note key="83" vol="187" pos="384" pan="0" len="72"/>
          <note key="69" vol="200" pos="384" pan="0" len="384"/>
          <note key="64" vol="200" pos="384" pan="0" len="384"/>
          <note key="61" vol="200" pos="384" pan="0" len="384"/>
          <note key="81" vol="187" pos="456" pan="0" len="72"/>
          <note key="78" vol="187" pos="528" pan="0" len="48"/>
          <note key="81" vol="187" pos="576" pan="0" len="96"/>
          <note key="78" vol="187" pos="672" pan="0" len="48"/>
          <note key="81" vol="187" pos="720" pan="0" len="48"/>
          <note key="83" vol="187" pos="768" pan="0" len="72"/>
          <note key="71" vol="200" pos="768" pan="0" len="384"/>
          <note key="67" vol="200" pos="768" pan="0" len="384"/>
          <note key="62" vol="200" pos="768" pan="0" len="384"/>
          <note key="81" vol="187" pos="840" pan="0" len="72"/>
          <note key="79" vol="187" pos="912" pan="0" len="48"/>
          <note key="83" vol="187" pos="960" pan="0" len="72"/>
          <note key="81" vol="187" pos="1032" pan="0" len="72"/>
          <note key="79" vol="187" pos="1104" pan="0" len="48"/>
          <note key="78" vol="187" pos="1152" pan="0" len="72"/>
          <note key="69" vol="200" pos="1152" pan="0" len="192"/>
          <note key="66" vol="200" pos="1152" pan="0" len="192"/>
          <note key="62" vol="200" pos="1152" pan="0" len="192"/>
          <note key="79" vol="187" pos="1224" pan="0" len="72"/>
          <note key="78" vol="187" pos="1296" pan="0" len="48"/>
          <note key="76" vol="187" pos="1344" pan="0" len="96"/>
          <note key="69" vol="200" pos="1344" pan="0" len="192"/>
          <note key="64" vol="200" pos="1344" pan="0" len="192"/>
          <note key="61" vol="200" pos="1344" pan="0" len="192"/>
          <note key="78" vol="187" pos="1440" pan="0" len="48"/>
          <note key="76" vol="187" pos="1488" pan="0" len="48"/>
        </pattern>
        <pattern muted="0" pos="18432" steps="16" name="detuned saw" type="1">
          <note key="74" vol="187" pos="0" pan="0" len="72"/>
          <note key="69" vol="200" pos="0" pan="0" len="384"/>
          <note key="66" vol="200" pos="0" pan="0" len="384"/>
          <note key="62" vol="200" pos="0" pan="0" len="384"/>
          <note key="76" vol="187" pos="72" pan="0" len="72"/>
          <note key="78" vol="187" pos="144" pan="0" len="48"/>
          <note key="81" vol="187" pos="192" pan="0" len="96"/>
          <note key="78" vol="187" pos="288" pan="0" len="48"/>
          <note key="81" vol="187" pos="336" pan="0" len="48"/>
          <note key="83" vol="187" pos="384" pan="0" len="72"/>
          <note key="69" vol="200" pos="384" pan="0" len="384"/>
          <note key="64" vol="200" pos="384" pan="0" len="384"/>
          <note key="61" vol="200" pos="384" pan="0" len="384"/>
          <note key="81" vol="187" pos="456" pan="0" len="72"/>
          <note key="78" vol="187" pos="528" pan="0" len="48"/>
          <note key="81" vol="187" pos="576" pan="0" len="96"/>
          <note key="78" vol="187" pos="672" pan="0" len="48"/>
          <note key="81" vol="187" pos="720" pan="0" len="48"/>
          <note key="83" vol="187" pos="768" pan="0" len="72"/>
          <note key="71" vol="200" pos="768" pan="0" len="384"/>
          <note key="67" vol="200" pos="768" pan="0" len="384"/>
          <note key="62" vol="200" pos="768" pan="0" len="384"/>
          <note key="81" vol="187" pos="840" pan="0" len="72"/>
          <note key="79" vol="187" pos="912" pan="0" len="48"/>
          <note key="83" vol="187" pos="960" pan="0" len="72"/>
          <note key="81" vol="187" pos="1032" pan="0" len="72"/>
          <note key="79" vol="187" pos="1104" pan="0" len="48"/>
          <note key="78" vol="187" pos="1152" pan="0" len="72"/>
          <note key="69" vol="200" pos="1152" pan="0" len="192"/>
          <note key="66" vol="200" pos="1152" pan="0" len="192"/>
          <note key="62" vol="200" pos="1152" pan="0" len="192"/>
          <note key="79" vol="187" pos="1224" pan="0" len="72"/>
          <note key="78" vol="187" pos="1296" pan="0" len="48"/>
          <note key="76" vol="187" pos="1344" pan="0" len="96"/>
          <note key="69" vol="200" pos="1344" pan="0" len="192"/>
          <note key="64" vol="200" pos="1344" pan="0" len="192"/>
          <note key="61" vol="200" pos="1344" pan="0" len="192"/>
          <note key="78" vol="187" pos="1440" pan="0" len="48"/>
          <note key="76" vol="187" pos="1488" pan="0" len="48"/>
        </pattern>
        <pattern muted="0" pos="19968" steps="16" name="detuned saw" type="1">
          <note key="74" vol="200" pos="0" pan="0" len="72"/>
          <note key="69" vol="200" pos="0" pan="0" len="384"/>
          <note key="66" vol="200" pos="0" pan="0" len="384"/>
          <note key="62" vol="200" pos="0" pan="0" len="384"/>
          <note key="76" vol="200" pos="72" pan="0" len="72"/>
          <note key="78" vol="200" pos="144" pan="0" len="48"/>
          <note key="81" vol="200" pos="192" pan="0" len="96"/>
          <note key="78" vol="200" pos="288" pan="0" len="48"/>
          <note key="81" vol="200" pos="336" pan="0" len="48"/>
          <note key="83" vol="200" pos="384" pan="0" len="72"/>
          <note key="69" vol="200" pos="384" pan="0" len="384"/>
          <note key="64" vol="200" pos="384" pan="0" len="384"/>
          <note key="61" vol="200" pos="384" pan="0" len="384"/>
          <note key="81" vol="200" pos="456" pan="0" len="72"/>
          <note key="78" vol="200" pos="528" pan="0" len="48"/>
          <note key="81" vol="200" pos="576" pan="0" len="96"/>
          <note key="78" vol="200" pos="672" pan="0" len="48"/>
          <note key="81" vol="200" pos="720" pan="0" len="48"/>
          <note key="83" vol="200" pos="768" pan="0" len="72"/>
          <note key="71" vol="200" pos="768" pan="0" len="384"/>
          <note key="67" vol="200" pos="768" pan="0" len="384"/>
          <note key="62" vol="200" pos="768" pan="0" len="384"/>
          <note key="81" vol="200" pos="840" pan="0" len="72"/>
          <note key="79" vol="200" pos="912" pan="0" len="48"/>
          <note key="83" vol="200" pos="960" pan="0" len="72"/>
          <note key="81" vol="200" pos="1032" pan="0" len="72"/>
          <note key="79" vol="200" pos="1104" pan="0" len="48"/>
          <note key="78" vol="200" pos="1152" pan="0" len="72"/>
          <note key="74" vol="200" pos="1152" pan="0" len="192"/>
          <note key="69" vol="200" pos="1152" pan="0" len="192"/>
          <note key="66" vol="200" pos="1152" pan="0" len="192"/>
          <note key="79" vol="200" pos="1224" pan="0" len="72"/>
          <note key="78" vol="200" pos="1296" pan="0" len="48"/>
          <note key="76" vol="200" pos="1344" pan="0" len="96"/>
          <note key="73" vol="200" pos="1344" pan="0" len="192"/>
          <note key="69" vol="200" pos="1344" pan="0" len="192"/>
          <note key="64" vol="200" pos="1344" pan="0" len="192"/>
          <note key="78" vol="200" pos="1440" pan="0" len="48"/>
          <note key="76" vol="200" pos="1488" pan="0" len="48"/>
        </pattern>
        <pattern muted="0" pos="23040" steps="16" name="detuned saw" type="1">
          <note key="54" vol="200" pos="0" pan="0" len="384"/>
          <note key="50" vol="200" pos="0" pan="0" len="384"/>
          <note key="55" vol="200" pos="384" pan="0" len="192"/>
          <note key="50" vol="200" pos="384" pan="0" len="192"/>
          <note key="57" vol="200" pos="576" pan="0" len="192"/>
          <note key="52" vol="200" pos="576" pan="0" len="192"/>
        </pattern>
        <pattern muted="0" pos="23808" steps="16" name="detuned saw" type="1">
          <note key="54" vol="200" pos="0" pan="0" len="384"/>
          <note key="50" vol="200" pos="0" pan="0" len="384"/>
          <note key="55" vol="200" pos="384" pan="0" len="192"/>
          <note key="50" vol="200" pos="384" pan="0" len="192"/>
          <note key="57" vol="200" pos="576" pan="0" len="192"/>
          <note key="52" vol="200" pos="576" pan="0" len="192"/>
        </pattern>
        <pattern muted="0" pos="24576" steps="16" name="detuned saw" type="1">
          <note key="54" vol="200" pos="0" pan="0" len="384"/>
          <note key="50" vol="200" pos="0" pan="0" len="384"/>
          <note key="55" vol="200" pos="384" pan="0" len="192"/>
          <note key="50" vol="200" pos="384" pan="0" len="192"/>
          <note key="57" vol="200" pos="576" pan="0" len="192"/>
          <note key="52" vol="200" pos="576" pan="0" len="192"/>
        </pattern>
        <pattern muted="0" pos="34560" steps="16" name="detuned saw" type="1">
          <note key="86" vol="157" pos="0" pan="0" len="48"/>
          <note key="81" vol="157" pos="48" pan="0" len="48"/>
          <note key="85" vol="157" pos="96" pan="0" len="48"/>
          <note key="81" vol="157" pos="144" pan="0" len="48"/>
          <note key="86" vol="157" pos="192" pan="0" len="48"/>
          <note key="81" vol="157" pos="240" pan="0" len="48"/>
          <note key="85" vol="157" pos="288" pan="0" len="48"/>
          <note key="81" vol="157" pos="336" pan="0" len="48"/>
          <note key="86" vol="157" pos="384" pan="0" len="48"/>
          <note key="81" vol="157" pos="432" pan="0" len="48"/>
          <note key="85" vol="157" pos="480" pan="0" len="48"/>
          <note key="81" vol="157" pos="528" pan="0" len="48"/>
          <note key="86" vol="157" pos="576" pan="0" len="48"/>
          <note key="81" vol="157" pos="624" pan="0" len="48"/>
          <note key="85" vol="157" pos="672" pan="0" len="48"/>
          <note key="81" vol="157" pos="720" pan="0" len="48"/>
        </pattern>
        <pattern muted="0" pos="14592" steps="16" name="detuned saw" type="1">
          <note key="54" vol="200" pos="0" pan="0" len="384"/>
          <note key="50" vol="200" pos="0" pan="0" len="384"/>
          <note key="55" vol="200" pos="384" pan="0" len="192"/>
          <note key="50" vol="200" pos="384" pan="0" len="192"/>
          <note key="57" vol="200" pos="576" pan="0" len="192"/>
          <note key="52" vol="200" pos="576" pan="0" len="192"/>
        </pattern>
        <pattern muted="0" pos="12288" steps="16" name="detuned saw" type="1">
          <note key="54" vol="200" pos="0" pan="0" len="384"/>
          <note key="50" vol="200" pos="0" pan="0" len="384"/>
          <note key="55" vol="200" pos="384" pan="0" len="192"/>
          <note key="50" vol="200" pos="384" pan="0" len="192"/>
          <note key="57" vol="200" pos="576" pan="0" len="192"/>
          <note key="52" vol="200" pos="576" pan="0" len="192"/>
        </pattern>
        <pattern muted="0" pos="13056" steps="16" name="detuned saw" type="1">
          <note key="54" vol="200" pos="0" pan="0" len="384"/>
          <note key="50" vol="200" pos="0" pan="0" len="384"/>
          <note key="55" vol="200" pos="384" pan="0" len="192"/>
          <note key="50" vol="200" pos="384" pan="0" len="192"/>
          <note key="57" vol="200" pos="576" pan="0" len="192"/>
          <note key="52" vol="200" pos="576" pan="0" len="192"/>
        </pattern>
        <pattern muted="0" pos="13824" steps="16" name="detuned saw" type="1">
          <note key="54" vol="200" pos="0" pan="0" len="384"/>
          <note key="50" vol="200" pos="0" pan="0" len="384"/>
          <note key="55" vol="200" pos="384" pan="0" len="192"/>
          <note key="50" vol="200" pos="384" pan="0" len="192"/>
          <note key="57" vol="200" pos="576" pan="0" len="192"/>
          <note key="52" vol="200" pos="576" pan="0" len="192"/>
        </pattern>
      </track>
      <track muted="0" solo="0" name="wind" type="0">
        <instrumenttrack fxch="0" usemasterpitch="1" vol="22.9" pitch="0" pitchrange="1" pan="0" basenote="57">
          <instrument name="tripleoscillator">
            <tripleoscillator vol1="8" userwavefile0="" stphdetun0="179" finer1="0" phoffset2="0" wavetype2="0" pan0="0" finer2="0" modalgo3="2" vol0="33" userwavefile1="" finel1="0" vol2="0" phoffset0="0" wavetype0="6" finer0="0" modalgo2="2" pan2="0" coarse1="-12" modalgo1="2" stphdetun2="0" coarse2="-24" phoffset1="0" finel2="0" stphdetun1="100" finel0="0" wavetype1="6" pan1="0" userwavefile2="" coarse0="0"/>
          </instrument>
          <eldata fres="5.7" fwet="0" fcut="1289" ftype="12">
            <elvol pdel="0" latt="0" lshp="0" lspd_denominator="4" lamt="0" amt="0" sustain="0.5" lspd_syncmode="0" att="0" x100="0" lspd_numerator="4" lspd="0.1" ctlenvamt="0" dec="0.5" lpdel="0" hold="0.5" userwavefile="" rel="0.1"/>
            <elcut pdel="0" latt="0" lshp="0" lspd_denominator="4" lamt="0" amt="0" sustain="0.5" lspd_syncmode="0" att="0" x100="0" lspd_numerator="4" lspd="0.1" ctlenvamt="0" dec="0.5" lpdel="0" hold="0.5" userwavefile="" rel="0.1"/>
            <elres pdel="0" latt="0" lshp="0" lspd_denominator="4" lamt="0" amt="0" sustain="0.5" lspd_syncmode="0" att="0" x100="0" lspd_numerator="4" lspd="0.1" ctlenvamt="0" dec="0.5" lpdel="0" hold="0.5" userwavefile="" rel="0.1"/>
          </eldata>
          <chordcreator chordrange="1" chord="0" chord-enabled="0"/>
          <arpeggiator arptime="200" arpskip="0" arpgate="100" arptime_syncmode="0" arpmode="0" arprange="1" arp="0" arpcycle="0" arptime_denominator="4" arptime_numerator="4" arpdir="0" arp-enabled="0" arpmiss="0"/>
          <midiport outputchannel="1" inputcontroller="0" inputchannel="0" basevelocity="63" outputprogram="1" readable="0" outputcontroller="0" fixedinputvelocity="-1" fixedoutputnote="-1" writable="0" fixedoutputvelocity="-1"/>
          <fxchain numofeffects="2" enabled="1">
            <effect wet="1" autoquit_denominator="4" on="1" autoquit_numerator="4" gate="0" autoquit_syncmode="0" autoquit="1" name="eq">
              <Eq Lowshelfactive="0" Peak1bw="0.3" Peak1active="0" LP48="0" HP24="0" HP48="0" LP="0" LPres="0.707" LP12="1" Peak3bw="0.3" LowShelfres="1.4" Outputgain="0" LPactive="1" HP12="1" Peak4active="0" Peak3gain="0" HighShelfres="1.4" LP24="0" Peak2gain="18" Peak3active="0" Peak2bw="1.155" HPactive="1" Peak4bw="0.3" Highshelfactive="1" HP="0" AnalyseIn="1" Peak2active="1" Lowshelfgain="0" HPres="0.707" Peak4gain="0" AnalyseOut="1" HighShelfgain="-0.18">
                <Inputgain value="0" id="4777799" scale_type="log"/>
                <Peak1gain value="0" id="2931356" scale_type="log"/>
                <HPfreq value="156.446" id="1624396" scale_type="log"/>
                <LowShelffreq value="80" id="5104681" scale_type="log"/>
                <Peak1freq value="120" id="1701353" scale_type="log"/>
                <Peak2freq value="271.307" id="4272662" scale_type="log"/>
                <connection>
                  <Peak2freq id="0"/>
                </connection>
                <Peak3freq value="2000" id="7224349" scale_type="log"/>
                <Peak4freq value="4000" id="6292008" scale_type="log"/>
                <Highshelffreq value="7688.61" id="4508732" scale_type="log"/>
                <LPfreq value="1264.56" id="4862397" scale_type="log"/>
              </Eq>
              <key/>
            </effect>
            <effect wet="1" autoquit_denominator="4" on="1" autoquit_numerator="4" gate="0" autoquit_syncmode="0" autoquit="1" name="ladspaeffect">
              <ladspacontrols ports="4">
                <port02 data="0.86478"/>
                <port03 data="0.3745"/>
                <port04 data="0.0874562"/>
                <port05 data="0.86875"/>
              </ladspacontrols>
              <key>
                <attribute value="caps" name="file"/>
                <attribute value="Plate2x2" name="plugin"/>
              </key>
            </effect>
          </fxchain>
        </instrumenttrack>
        <pattern muted="0" pos="0" steps="16" name="wind" type="1">
          <note key="67" vol="200" pos="0" pan="0" len="384"/>
        </pattern>
        <pattern muted="0" pos="384" steps="16" name="" type="1">
          <note key="67" vol="200" pos="0" pan="0" len="384"/>
        </pattern>
        <pattern muted="0" pos="768" steps="16" name="" type="1">
          <note key="67" vol="200" pos="0" pan="0" len="384"/>
        </pattern>
        <pattern muted="0" pos="1152" steps="16" name="" type="1">
          <note key="67" vol="200" pos="0" pan="0" len="384"/>
        </pattern>
        <pattern muted="0" pos="1536" steps="16" name="" type="1">
          <note key="67" vol="200" pos="0" pan="0" len="384"/>
        </pattern>
        <pattern muted="0" pos="1920" steps="16" name="" type="1">
          <note key="67" vol="200" pos="0" pan="0" len="384"/>
        </pattern>
        <pattern muted="0" pos="2304" steps="16" name="" type="1">
          <note key="67" vol="200" pos="0" pan="0" len="384"/>
        </pattern>
        <pattern muted="0" pos="2688" steps="16" name="" type="1">
          <note key="67" vol="200" pos="0" pan="0" len="384"/>
        </pattern>
        <pattern muted="0" pos="3072" steps="16" name="" type="1">
          <note key="67" vol="200" pos="0" pan="0" len="384"/>
        </pattern>
        <pattern muted="0" pos="3456" steps="16" name="" type="1">
          <note key="67" vol="200" pos="0" pan="0" len="384"/>
        </pattern>
        <pattern muted="0" pos="3840" steps="16" name="" type="1">
          <note key="67" vol="200" pos="0" pan="0" len="384"/>
        </pattern>
        <pattern muted="0" pos="4224" steps="16" name="" type="1">
          <note key="67" vol="200" pos="0" pan="0" len="384"/>
        </pattern>
        <pattern muted="0" pos="4608" steps="16" name="" type="1">
          <note key="67" vol="200" pos="0" pan="0" len="384"/>
        </pattern>
        <pattern muted="0" pos="4992" steps="16" name="" type="1">
          <note key="67" vol="200" pos="0" pan="0" len="384"/>
        </pattern>
        <pattern muted="0" pos="5376" steps="16" name="" type="1">
          <note key="67" vol="200" pos="0" pan="0" len="384"/>
        </pattern>
        <pattern muted="0" pos="5760" steps="16" name="" type="1">
          <note key="67" vol="200" pos="0" pan="0" len="384"/>
        </pattern>
      </track>
      <track muted="0" solo="0" name="not rozen maiden" type="0">
        <instrumenttrack fxch="0" usemasterpitch="1" vol="46.9" pitch="0" pitchrange="1" pan="0" basenote="57">
          <instrument name="sf2player">
            <sf2player gain="1" chorusNum="3" reverbRoomSize="0.2" reverbDamping="0" chorusOn="0" bank="1" reverbLevel="0.9" reverbOn="0" reverbWidth="0.5" src="/home/pass/samples/soundfonts/Blanchet-1720.sf2" patch="1" chorusDepth="8" chorusLevel="2" chorusSpeed="0.3"/>
          </instrument>
          <eldata fres="0.5" fwet="0" fcut="14000" ftype="0">
            <elvol pdel="0" latt="0" lshp="0" lspd_denominator="4" lamt="0" amt="0" sustain="0.5" lspd_syncmode="0" att="0" x100="0" lspd_numerator="4" lspd="0.1" ctlenvamt="0" dec="0.5" lpdel="0" hold="0.5" userwavefile="" rel="0.1"/>
            <elcut pdel="0" latt="0" lshp="0" lspd_denominator="4" lamt="0" amt="0" sustain="0.5" lspd_syncmode="0" att="0" x100="0" lspd_numerator="4" lspd="0.1" ctlenvamt="0" dec="0.5" lpdel="0" hold="0.5" userwavefile="" rel="0.1"/>
            <elres pdel="0" latt="0" lshp="0" lspd_denominator="4" lamt="0" amt="0" sustain="0.5" lspd_syncmode="0" att="0" x100="0" lspd_numerator="4" lspd="0.1" ctlenvamt="0" dec="0.5" lpdel="0" hold="0.5" userwavefile="" rel="0.1"/>
          </eldata>
          <chordcreator chordrange="1" chord="0" chord-enabled="0"/>
          <arpeggiator arptime="200" arpskip="0" arpgate="100" arptime_syncmode="0" arpmode="0" arprange="1" arp="0" arpcycle="0" arptime_denominator="4" arptime_numerator="4" arpdir="0" arp-enabled="0" arpmiss="0"/>
          <midiport outputchannel="1" inputcontroller="0" inputchannel="0" basevelocity="63" outputprogram="1" readable="0" outputcontroller="0" fixedinputvelocity="-1" fixedoutputnote="-1" writable="0" fixedoutputvelocity="-1"/>
          <fxchain numofeffects="1" enabled="1">
            <effect wet="1" autoquit_denominator="4" on="1" autoquit_numerator="4" gate="0" autoquit_syncmode="0" autoquit="1" name="ladspaeffect">
              <ladspacontrols ports="4">
                <port02 data="0.502"/>
                <port03 data="0.278066"/>
                <port04 data="0.250375"/>
                <port05 data="0.57375"/>
              </ladspacontrols>
              <key>
                <attribute value="caps" name="file"/>
                <attribute value="Plate2x2" name="plugin"/>
              </key>
            </effect>
          </fxchain>
        </instrumenttrack>
        <pattern muted="0" pos="3072" steps="16" name="not rozen maiden" type="1">
          <note key="54" vol="192" pos="0" pan="0" len="48"/>
          <note key="47" vol="192" pos="0" pan="0" len="48"/>
          <note key="59" vol="192" pos="48" pan="0" len="48"/>
          <note key="42" vol="192" pos="48" pan="0" len="48"/>
          <note key="61" vol="192" pos="96" pan="0" len="48"/>
          <note key="47" vol="192" pos="96" pan="0" len="48"/>
          <note key="54" vol="192" pos="144" pan="0" len="48"/>
          <note key="50" vol="192" pos="144" pan="0" len="48"/>
          <note key="62" vol="192" pos="192" pan="0" len="48"/>
          <note key="47" vol="192" pos="192" pan="0" len="48"/>
          <note key="47" vol="192" pos="240" pan="0" len="48"/>
          <note key="42" vol="192" pos="240" pan="0" len="48"/>
          <note key="54" vol="192" pos="288" pan="0" len="48"/>
          <note key="47" vol="192" pos="288" pan="0" len="48"/>
          <note key="59" vol="192" pos="336" pan="0" len="48"/>
          <note key="50" vol="192" pos="336" pan="0" len="48"/>
          <note key="61" vol="192" pos="384" pan="0" len="48"/>
          <note key="47" vol="192" pos="384" pan="0" len="48"/>
          <note key="62" vol="192" pos="432" pan="0" len="48"/>
          <note key="42" vol="192" pos="432" pan="0" len="48"/>
          <note key="61" vol="192" pos="480" pan="0" len="48"/>
          <note key="47" vol="192" pos="480" pan="0" len="48"/>
          <note key="54" vol="192" pos="528" pan="0" len="48"/>
          <note key="50" vol="192" pos="528" pan="0" len="48"/>
          <note key="66" vol="192" pos="576" pan="0" len="48"/>
          <note key="47" vol="192" pos="576" pan="0" len="48"/>
          <note key="54" vol="192" pos="624" pan="0" len="48"/>
          <note key="42" vol="192" pos="624" pan="0" len="48"/>
          <note key="59" vol="192" pos="672" pan="0" len="48"/>
          <note key="47" vol="192" pos="672" pan="0" len="48"/>
          <note key="61" vol="192" pos="720" pan="0" len="48"/>
          <note key="50" vol="192" pos="720" pan="0" len="48"/>
        </pattern>
        <pattern muted="0" pos="3840" steps="16" name="not rozen maiden" type="1">
          <note key="54" vol="192" pos="0" pan="0" len="48"/>
          <note key="47" vol="192" pos="0" pan="0" len="48"/>
          <note key="59" vol="192" pos="48" pan="0" len="48"/>
          <note key="42" vol="192" pos="48" pan="0" len="48"/>
          <note key="61" vol="192" pos="96" pan="0" len="48"/>
          <note key="47" vol="192" pos="96" pan="0" len="48"/>
          <note key="54" vol="192" pos="144" pan="0" len="48"/>
          <note key="50" vol="192" pos="144" pan="0" len="48"/>
          <note key="62" vol="192" pos="192" pan="0" len="48"/>
          <note key="47" vol="192" pos="192" pan="0" len="48"/>
          <note key="47" vol="192" pos="240" pan="0" len="48"/>
          <note key="42" vol="192" pos="240" pan="0" len="48"/>
          <note key="54" vol="192" pos="288" pan="0" len="48"/>
          <note key="47" vol="192" pos="288" pan="0" len="48"/>
          <note key="59" vol="192" pos="336" pan="0" len="48"/>
          <note key="50" vol="192" pos="336" pan="0" len="48"/>
          <note key="61" vol="192" pos="384" pan="0" len="48"/>
          <note key="47" vol="192" pos="384" pan="0" len="48"/>
          <note key="62" vol="192" pos="432" pan="0" len="48"/>
          <note key="42" vol="192" pos="432" pan="0" len="48"/>
          <note key="61" vol="192" pos="480" pan="0" len="48"/>
          <note key="47" vol="192" pos="480" pan="0" len="48"/>
          <note key="54" vol="192" pos="528" pan="0" len="48"/>
          <note key="50" vol="192" pos="528" pan="0" len="48"/>
          <note key="66" vol="192" pos="576" pan="0" len="48"/>
          <note key="47" vol="192" pos="576" pan="0" len="48"/>
          <note key="54" vol="192" pos="624" pan="0" len="48"/>
          <note key="42" vol="192" pos="624" pan="0" len="48"/>
          <note key="59" vol="192" pos="672" pan="0" len="48"/>
          <note key="47" vol="192" pos="672" pan="0" len="48"/>
          <note key="61" vol="192" pos="720" pan="0" len="48"/>
          <note key="50" vol="192" pos="720" pan="0" len="48"/>
        </pattern>
        <pattern muted="0" pos="4608" steps="16" name="not rozen maiden" type="1">
          <note key="54" vol="192" pos="0" pan="0" len="48"/>
          <note key="47" vol="192" pos="0" pan="0" len="48"/>
          <note key="59" vol="192" pos="48" pan="0" len="48"/>
          <note key="43" vol="192" pos="48" pan="0" len="48"/>
          <note key="61" vol="192" pos="96" pan="0" len="48"/>
          <note key="47" vol="192" pos="96" pan="0" len="48"/>
          <note key="54" vol="192" pos="144" pan="0" len="48"/>
          <note key="50" vol="192" pos="144" pan="0" len="48"/>
          <note key="62" vol="192" pos="192" pan="0" len="48"/>
          <note key="47" vol="192" pos="192" pan="0" len="48"/>
          <note key="47" vol="192" pos="240" pan="0" len="48"/>
          <note key="43" vol="192" pos="240" pan="0" len="48"/>
          <note key="54" vol="192" pos="288" pan="0" len="48"/>
          <note key="47" vol="192" pos="288" pan="0" len="48"/>
          <note key="59" vol="192" pos="336" pan="0" len="48"/>
          <note key="50" vol="192" pos="336" pan="0" len="48"/>
          <note key="61" vol="192" pos="384" pan="0" len="48"/>
          <note key="47" vol="192" pos="384" pan="0" len="48"/>
          <note key="62" vol="192" pos="432" pan="0" len="48"/>
          <note key="43" vol="192" pos="432" pan="0" len="48"/>
          <note key="61" vol="192" pos="480" pan="0" len="48"/>
          <note key="47" vol="192" pos="480" pan="0" len="48"/>
          <note key="54" vol="192" pos="528" pan="0" len="48"/>
          <note key="50" vol="192" pos="528" pan="0" len="48"/>
          <note key="66" vol="192" pos="576" pan="0" len="48"/>
          <note key="47" vol="192" pos="576" pan="0" len="48"/>
          <note key="54" vol="192" pos="624" pan="0" len="48"/>
          <note key="43" vol="192" pos="624" pan="0" len="48"/>
          <note key="59" vol="192" pos="672" pan="0" len="48"/>
          <note key="47" vol="192" pos="672" pan="0" len="48"/>
          <note key="61" vol="192" pos="720" pan="0" len="48"/>
          <note key="50" vol="192" pos="720" pan="0" len="48"/>
        </pattern>
        <pattern muted="0" pos="5376" steps="16" name="not rozen maiden" type="1">
          <note key="54" vol="192" pos="0" pan="0" len="48"/>
          <note key="47" vol="192" pos="0" pan="0" len="48"/>
          <note key="59" vol="192" pos="48" pan="0" len="48"/>
          <note key="43" vol="192" pos="48" pan="0" len="48"/>
          <note key="61" vol="192" pos="96" pan="0" len="48"/>
          <note key="47" vol="192" pos="96" pan="0" len="48"/>
          <note key="54" vol="192" pos="144" pan="0" len="48"/>
          <note key="50" vol="192" pos="144" pan="0" len="48"/>
          <note key="62" vol="192" pos="192" pan="0" len="48"/>
          <note key="47" vol="192" pos="192" pan="0" len="48"/>
          <note key="47" vol="192" pos="240" pan="0" len="48"/>
          <note key="43" vol="192" pos="240" pan="0" len="48"/>
          <note key="54" vol="192" pos="288" pan="0" len="48"/>
          <note key="47" vol="192" pos="288" pan="0" len="48"/>
          <note key="59" vol="192" pos="336" pan="0" len="48"/>
          <note key="50" vol="192" pos="336" pan="0" len="48"/>
          <note key="61" vol="192" pos="384" pan="0" len="48"/>
          <note key="47" vol="192" pos="384" pan="0" len="48"/>
          <note key="62" vol="192" pos="432" pan="0" len="48"/>
          <note key="43" vol="192" pos="432" pan="0" len="48"/>
          <note key="61" vol="192" pos="480" pan="0" len="48"/>
          <note key="47" vol="192" pos="480" pan="0" len="48"/>
          <note key="54" vol="192" pos="528" pan="0" len="48"/>
          <note key="50" vol="192" pos="528" pan="0" len="48"/>
          <note key="66" vol="192" pos="576" pan="0" len="48"/>
          <note key="47" vol="192" pos="576" pan="0" len="48"/>
          <note key="54" vol="192" pos="624" pan="0" len="48"/>
          <note key="43" vol="192" pos="624" pan="0" len="48"/>
          <note key="59" vol="192" pos="672" pan="0" len="48"/>
          <note key="47" vol="192" pos="672" pan="0" len="48"/>
          <note key="61" vol="192" pos="720" pan="0" len="48"/>
          <note key="50" vol="192" pos="720" pan="0" len="48"/>
        </pattern>
      </track>
      <track muted="0" solo="0" name="rev_c" type="0">
        <instrumenttrack fxch="0" usemasterpitch="1" vol="57.2" pitch="0" pitchrange="1" pan="0" basenote="57">
          <instrument name="audiofileprocessor">
            <audiofileprocessor stutter="0" reversed="1" lframe="1.41491e-5" interp="1" amp="100" src="/home/pass/samples/sillydrums/crash1.wav" looped="0" sframe="7.07454e-6" eframe="1"/>
          </instrument>
          <eldata fres="0.5" fwet="0" fcut="14000" ftype="0">
            <elvol pdel="0" latt="0" lshp="0" lspd_denominator="4" lamt="0" amt="0" sustain="0.5" lspd_syncmode="0" att="0" x100="0" lspd_numerator="4" lspd="0.1" ctlenvamt="0" dec="0.5" lpdel="0" hold="0.5" userwavefile="" rel="0.1"/>
            <elcut pdel="0" latt="0" lshp="0" lspd_denominator="4" lamt="0" amt="0" sustain="0.5" lspd_syncmode="0" att="0" x100="0" lspd_numerator="4" lspd="0.1" ctlenvamt="0" dec="0.5" lpdel="0" hold="0.5" userwavefile="" rel="0.1"/>
            <elres pdel="0" latt="0" lshp="0" lspd_denominator="4" lamt="0" amt="0" sustain="0.5" lspd_syncmode="0" att="0" x100="0" lspd_numerator="4" lspd="0.1" ctlenvamt="0" dec="0.5" lpdel="0" hold="0.5" userwavefile="" rel="0.1"/>
          </eldata>
          <chordcreator chordrange="1" chord="0" chord-enabled="0"/>
          <arpeggiator arptime="200" arpskip="0" arpgate="100" arptime_syncmode="0" arpmode="0" arprange="1" arp="0" arpcycle="0" arptime_denominator="4" arptime_numerator="4" arpdir="0" arp-enabled="0" arpmiss="0"/>
          <midiport outputchannel="1" inputcontroller="0" inputchannel="0" basevelocity="63" outputprogram="1" readable="0" outputcontroller="0" fixedinputvelocity="-1" fixedoutputnote="-1" writable="0" fixedoutputvelocity="-1"/>
          <fxchain numofeffects="1" enabled="1">
            <effect wet="1" autoquit_denominator="4" on="1" autoquit_numerator="4" gate="0" autoquit_syncmode="0" autoquit="1" name="ladspaeffect">
              <ladspacontrols ports="4">
                <port02 data="0.502"/>
                <port03 data="0.3745"/>
                <port04 data="0.250375"/>
                <port05 data="0.25"/>
              </ladspacontrols>
              <key>
                <attribute value="caps" name="file"/>
                <attribute value="Plate2x2" name="plugin"/>
              </key>
            </effect>
          </fxchain>
        </instrumenttrack>
        <pattern muted="0" pos="5184" steps="16" name="rev_c" type="1">
          <note key="57" vol="192" pos="96" pan="0" len="864"/>
        </pattern>
      </track>
      <track muted="0" solo="0" name="Beat/Bassline 19" type="1">
        <bbtrack/>
        <bbtco muted="0" color="4286611584" pos="45888" len="192" name="" usestyle="1"/>
      </track>
      <track muted="0" solo="0" name="Automation track" type="5">
        <automationtrack/>
        <automationpattern prog="0" pos="45888" mute="0" len="1152" tens="1" name="Amplifier>>Volume">
          <time value="100" pos="0"/>
          <time value="0" pos="576"/>
          <time value="0" pos="624"/>
          <object id="2519828"/>
          <object id="2519828"/>
        </automationpattern>
        <automationpattern prog="1" pos="0" mute="0" len="192" tens="1" name="Amplifier>>Volume">
          <time value="100" pos="0"/>
          <time value="99.3" pos="576"/>
          <time value="0" pos="624"/>
          <object id="2519828"/>
        </automationpattern>
      </track>
    </trackcontainer>
    <track muted="0" solo="0" name="Automation track" type="6">
      <automationtrack/>
      <automationpattern prog="0" pos="0" mute="0" len="192" tens="1" name="Numerator"/>
      <automationpattern prog="0" pos="0" mute="0" len="192" tens="1" name="Denominator"/>
      <automationpattern prog="0" pos="0" mute="0" len="192" tens="1" name="Tempo"/>
      <automationpattern prog="0" pos="0" mute="0" len="192" tens="1" name="Master volume"/>
      <automationpattern prog="0" pos="0" mute="0" len="192" tens="1" name="Master pitch"/>
    </track>
    <fxmixer visible="0" minimized="0" height="333" width="1260" y="167" x="1" maximized="0">
      <fxchannel muted="0" num="0" soloed="0" volume="0.614" name="Master">
        <fxchain numofeffects="2" enabled="1">
          <effect wet="1" autoquit_denominator="4" on="1" autoquit_numerator="4" gate="0" autoquit_syncmode="0" autoquit="1" name="eq">
            <Eq Lowshelfactive="0" Peak1bw="0.3" Peak1active="0" LP48="0" HP24="0" HP48="0" LP="0" LPres="0.707" LP12="1" Peak3bw="0.3" LowShelfres="1.4" Outputgain="-3.35" LPactive="1" HP12="1" Peak4active="0" Peak3gain="0" HighShelfres="1.4" LP24="0" Peak2gain="0" Peak3active="0" Peak2bw="0.3" HPactive="0" Peak4bw="0.3" Highshelfactive="1" HP="0" AnalyseIn="1" Peak2active="0" Lowshelfgain="0" HPres="0.707" Peak4gain="0" AnalyseOut="1" HighShelfgain="0.9">
              <Inputgain value="0" id="5201925" scale_type="log"/>
              <Peak1gain value="0" id="5954615" scale_type="log"/>
              <HPfreq value="31" id="603149" scale_type="log"/>
              <LowShelffreq value="80" id="1571870" scale_type="log"/>
              <Peak1freq value="120" id="2461635" scale_type="log"/>
              <Peak2freq value="250" id="3060952" scale_type="log"/>
              <Peak3freq value="2000" id="2015472" scale_type="log"/>
              <Peak4freq value="4000" id="893191" scale_type="log"/>
              <Highshelffreq value="1487.7" id="6056756" scale_type="log"/>
              <LPfreq value="11357.2" id="660392" scale_type="log"/>
            </Eq>
            <key/>
          </effect>
          <effect wet="1" autoquit_denominator="4" on="0" autoquit_numerator="4" gate="0" autoquit_syncmode="0" autoquit="1" name="ladspaeffect">
            <ladspacontrols ports="8">
              <port04 data="0"/>
              <port05 data="0.8"/>
              <port06 data="0.84"/>
              <port015 data="1"/>
              <port016 data="5.05"/>
              <port017>
                <data value="31.6228" id="6575078" scale_type="log"/>
              </port017>
              <port019 data="1"/>
              <port021 data="0.5"/>
            </ladspacontrols>
            <key>
              <attribute value="calf" name="file"/>
              <attribute value="Limiter" name="plugin"/>
            </key>
          </effect>
        </fxchain>
      </fxchannel>
      <fxchannel muted="0" num="1" soloed="0" volume="0.535" name="kick">
        <fxchain numofeffects="0" enabled="0"/>
        <send channel="0" amount="1"/>
        <send channel="10" amount="0.512"/>
      </fxchannel>
      <fxchannel muted="0" num="2" soloed="0" volume="0.232" name="hat">
        <fxchain numofeffects="0" enabled="0"/>
        <send channel="0" amount="1"/>
        <send channel="10" amount="0.548"/>
      </fxchannel>
      <fxchannel muted="0" num="3" soloed="0" volume="0.65" name="snare">
        <fxchain numofeffects="1" enabled="1">
          <effect wet="1" autoquit_denominator="4" on="1" autoquit_numerator="4" gate="0" autoquit_syncmode="0" autoquit="1" name="eq">
            <Eq Lowshelfactive="0" Peak1bw="0.3" Peak1active="0" LP48="0" HP24="0" HP48="0" LP="0" LPres="0.707" LP12="1" Peak3bw="0.3" LowShelfres="1.4" Outputgain="0" LPactive="1" HP12="1" Peak4active="1" Peak3gain="0" HighShelfres="1.435" LP24="0" Peak2gain="0" Peak3active="0" Peak2bw="0.3" HPactive="0" Peak4bw="0.3" Highshelfactive="1" HP="0" AnalyseIn="1" Peak2active="0" Lowshelfgain="0" HPres="0.707" Peak4gain="-0.718001" AnalyseOut="1" HighShelfgain="5.04">
              <Inputgain value="0" id="6753652" scale_type="log"/>
              <Peak1gain value="0" id="8257704" scale_type="log"/>
              <HPfreq value="31" id="2234845" scale_type="log"/>
              <LowShelffreq value="80" id="5016811" scale_type="log"/>
              <Peak1freq value="120" id="5537746" scale_type="log"/>
              <Peak2freq value="250" id="6539813" scale_type="log"/>
              <Peak3freq value="2000" id="6999518" scale_type="log"/>
              <Peak4freq value="4000" id="770028" scale_type="log"/>
              <Highshelffreq value="2497.52" id="3686018" scale_type="log"/>
              <LPfreq value="13865.6" id="7588449" scale_type="log"/>
            </Eq>
            <key/>
          </effect>
        </fxchain>
        <send channel="0" amount="1"/>
        <send channel="10" amount="0.784"/>
      </fxchannel>
      <fxchannel muted="0" num="4" soloed="0" volume="0.698" name="crash1">
        <fxchain numofeffects="0" enabled="0"/>
        <send channel="0" amount="1"/>
        <send channel="10" amount="0.724"/>
      </fxchannel>
      <fxchannel muted="0" num="5" soloed="0" volume="0.697" name="crash2">
        <fxchain numofeffects="0" enabled="0"/>
        <send channel="0" amount="1"/>
        <send channel="10" amount="0.76"/>
      </fxchannel>
      <fxchannel muted="0" num="6" soloed="0" volume="1" name="china">
        <fxchain numofeffects="0" enabled="0"/>
        <send channel="0" amount="1"/>
        <send channel="10" amount="0"/>
      </fxchannel>
      <fxchannel muted="0" num="7" soloed="0" volume="0.512" name="hitom">
        <fxchain numofeffects="0" enabled="0"/>
        <send channel="0" amount="1"/>
        <send channel="10" amount="0.42"/>
      </fxchannel>
      <fxchannel muted="0" num="8" soloed="0" volume="0.534" name="midtom">
        <fxchain numofeffects="0" enabled="0"/>
        <send channel="0" amount="1"/>
        <send channel="10" amount="0.412"/>
      </fxchannel>
      <fxchannel muted="0" num="9" soloed="0" volume="0.418" name="lotom">
        <fxchain numofeffects="0" enabled="0"/>
        <send channel="0" amount="1"/>
        <send channel="10" amount="0.432"/>
      </fxchannel>
      <fxchannel muted="0" num="10" soloed="0" volume="0.674" name="DRUM PLATE">
        <fxchain numofeffects="2" enabled="1">
          <effect wet="1" autoquit_denominator="4" on="1" autoquit_numerator="4" gate="0" autoquit_syncmode="0" autoquit="1" name="ladspaeffect">
            <ladspacontrols ports="4">
              <port02 data="0.76538"/>
              <port03 data="0.145119"/>
              <port04 data="0.0005"/>
              <port05 data="1"/>
            </ladspacontrols>
            <key>
              <attribute value="caps" name="file"/>
              <attribute value="Plate2x2" name="plugin"/>
            </key>
          </effect>
          <effect wet="1" autoquit_denominator="4" on="1" autoquit_numerator="4" gate="0" autoquit_syncmode="0" autoquit="1" name="eq">
            <Eq Lowshelfactive="0" Peak1bw="0.3" Peak1active="0" LP48="0" HP24="0" HP48="0" LP="0" LPres="0.707" LP12="1" Peak3bw="0.3" LowShelfres="1.4" Outputgain="0" LPactive="0" HP12="1" Peak4active="1" Peak3gain="0" HighShelfres="1.4" LP24="0" Peak2gain="0" Peak3active="0" Peak2bw="0.3" HPactive="1" Peak4bw="0.3" Highshelfactive="1" HP="0" AnalyseIn="1" Peak2active="0" Lowshelfgain="0" HPres="0.707" Peak4gain="0.36" AnalyseOut="1" HighShelfgain="1.62">
              <Inputgain value="0" id="217936" scale_type="log"/>
              <Peak1gain value="0" id="1412862" scale_type="log"/>
              <HPfreq value="175.669" id="7725025" scale_type="log"/>
              <LowShelffreq value="80" id="399642" scale_type="log"/>
              <Peak1freq value="120" id="3213708" scale_type="log"/>
              <Peak2freq value="250" id="1180890" scale_type="log"/>
              <Peak3freq value="2000" id="5654965" scale_type="log"/>
              <Peak4freq value="3592.47" id="757114" scale_type="log"/>
              <Highshelffreq value="610.728" id="3326661" scale_type="log"/>
              <LPfreq value="18000" id="825391" scale_type="log"/>
            </Eq>
            <key/>
          </effect>
        </fxchain>
        <send channel="0" amount="1"/>
      </fxchannel>
      <fxchannel muted="0" num="11" soloed="0" volume="0.0919999" name="rhythm guitar">
        <fxchain numofeffects="2" enabled="1">
          <effect wet="1" autoquit_denominator="4" on="1" autoquit_numerator="4" gate="0" autoquit_syncmode="0" autoquit="1" name="ladspaeffect">
            <ladspacontrols ports="22" link="1">
              <port02 link="1" data="0"/>
              <port03 link="1" data="-16.35"/>
              <port04 link="1" data="50"/>
              <port05 link="1" data="50"/>
              <port06 link="1" data="50"/>
              <port07 link="1" data="50"/>
              <port08 link="1" data="50"/>
              <port09 link="1" data="0"/>
              <port010 link="1" data="0"/>
              <port011 link="1" data="0"/>
              <port012 link="1" data="0"/>
              <port12 data="0"/>
              <port13 data="-16.35"/>
              <port14 data="50"/>
              <port15 data="50"/>
              <port16 data="50"/>
              <port17 data="50"/>
              <port18 data="50"/>
              <port19 data="0"/>
              <port110 data="0"/>
              <port111 data="0"/>
              <port112 data="0"/>
            </ladspacontrols>
            <key>
              <attribute value="ladspa_guitarix" name="file"/>
              <attribute value="guitarix-amp" name="plugin"/>
            </key>
          </effect>
          <effect wet="1" autoquit_denominator="4" on="0" autoquit_numerator="4" gate="0" autoquit_syncmode="0" autoquit="1" name="stereoenhancer">
            <stereoenhancercontrols width="180"/>
            <key/>
          </effect>
        </fxchain>
        <send channel="0" amount="1"/>
      </fxchannel>
      <fxchannel muted="0" num="12" soloed="0" volume="1.489" name="lgt">
        <fxchain numofeffects="4" enabled="1">
          <effect wet="1" autoquit_denominator="4" on="1" autoquit_numerator="4" gate="0" autoquit_syncmode="0" autoquit="1" name="ladspaeffect">
            <ladspacontrols ports="4" link="1">
              <port00 link="1">
                <data value="13230" id="354059" scale_type="log"/>
              </port00>
              <port01 link="1" data="1"/>
              <port10>
                <data value="13230" id="451672" scale_type="log"/>
              </port10>
              <port11 data="1"/>
            </ladspacontrols>
            <key>
              <attribute value="pointer_cast_1910" name="file"/>
              <attribute value="pointerCastDistortion" name="plugin"/>
            </key>
          </effect>
          <effect wet="1" autoquit_denominator="4" on="1" autoquit_numerator="4" gate="0" autoquit_syncmode="0" autoquit="1" name="ladspaeffect">
            <ladspacontrols ports="4" link="1">
              <port01 link="1" data="10"/>
              <port02 link="1" data="1"/>
              <port11 data="10"/>
              <port12 data="1"/>
            </ladspacontrols>
            <key>
              <attribute value="caps" name="file"/>
              <attribute value="PreampIII" name="plugin"/>
            </key>
          </effect>
          <effect wet="1" autoquit_denominator="4" on="1" autoquit_numerator="4" gate="0" autoquit_syncmode="0" autoquit="1" name="ladspaeffect">
            <ladspacontrols ports="4" link="1">
              <port01 link="1" data="1"/>
              <port02 link="1" data="0"/>
              <port11 data="1"/>
              <port12 data="0"/>
            </ladspacontrols>
            <key>
              <attribute value="caps" name="file"/>
              <attribute value="CabinetII" name="plugin"/>
            </key>
          </effect>
          <effect wet="1" autoquit_denominator="4" on="0" autoquit_numerator="4" gate="0" autoquit_syncmode="0" autoquit="1" name="ladspaeffect">
            <ladspacontrols ports="1">
              <port02 data="1"/>
            </ladspacontrols>
            <key>
              <attribute value="caps" name="file"/>
              <attribute value="Narrower" name="plugin"/>
            </key>
          </effect>
        </fxchain>
        <send channel="0" amount="1"/>
        <send channel="13" amount="0.484"/>
      </fxchannel>
      <fxchannel muted="0" num="13" soloed="0" volume="0.535" name="FX 14">
        <fxchain numofeffects="1" enabled="1">
          <effect wet="1" autoquit_denominator="4" on="1" autoquit_numerator="4" gate="0" autoquit_syncmode="0" autoquit="1" name="ladspaeffect">
            <ladspacontrols ports="4" link="0">
              <port00 data_syncmode="0" link="0" data="112.5" data_numerator="4" data_denominator="4"/>
              <port01 data_syncmode="0" link="0" data="0" data_numerator="4" data_denominator="4"/>
              <port10 data_syncmode="0" data="301.25" data_numerator="4" data_denominator="4"/>
              <port11 data_syncmode="0" data="0" data_numerator="4" data_denominator="4"/>
            </ladspacontrols>
            <key>
              <attribute value="mod_delay_1419" name="file"/>
              <attribute value="modDelay" name="plugin"/>
            </key>
          </effect>
        </fxchain>
        <send channel="0" amount="1"/>
      </fxchannel>
      <fxchannel muted="0" num="14" soloed="0" volume="1" name="bass">
        <fxchain numofeffects="1" enabled="1">
          <effect wet="1" autoquit_denominator="4" on="0" autoquit_numerator="4" gate="0" autoquit_syncmode="0" autoquit="1" name="eq">
            <Eq Lowshelfactive="1" Peak1bw="0.3" Peak1active="0" LP48="0" HP24="0" HP48="0" LP="0" LPres="0.707" LP12="1" Peak3bw="1.828" LowShelfres="1.21" Outputgain="4.73" LPactive="0" HP12="1" Peak4active="1" Peak3gain="0.9" HighShelfres="1.4" LP24="0" Peak2gain="2.16" Peak3active="1" Peak2bw="2.866" HPactive="0" Peak4bw="0.811" Highshelfactive="0" HP="0" AnalyseIn="1" Peak2active="1" Lowshelfgain="-5.757" HPres="0.707" Peak4gain="4.86" AnalyseOut="1" HighShelfgain="0">
              <Inputgain value="0" id="1928132" scale_type="log"/>
              <Peak1gain value="0" id="5028906" scale_type="log"/>
              <HPfreq value="24.795" id="6101787" scale_type="log"/>
              <LowShelffreq value="174.403" id="5056230" scale_type="log"/>
              <Peak1freq value="120" id="3218393" scale_type="log"/>
              <Peak2freq value="5748.38" id="4083145" scale_type="log"/>
              <Peak3freq value="3457.18" id="4897974" scale_type="log"/>
              <Peak4freq value="4000" id="5404987" scale_type="log"/>
              <Highshelffreq value="12000" id="3053663" scale_type="log"/>
              <LPfreq value="18000" id="1445410" scale_type="log"/>
            </Eq>
            <key/>
          </effect>
        </fxchain>
        <send channel="0" amount="1"/>
      </fxchannel>
      <fxchannel muted="0" num="15" soloed="0" volume="1" name="synthStrings">
        <fxchain numofeffects="0" enabled="0"/>
        <send channel="0" amount="1"/>
      </fxchannel>
      <fxchannel muted="0" num="16" soloed="0" volume="1" name="FX 16">
        <fxchain numofeffects="0" enabled="0"/>
        <send channel="0" amount="1"/>
      </fxchannel>
      <fxchannel muted="0" num="17" soloed="0" volume="1" name="FX 17">
        <fxchain numofeffects="0" enabled="0"/>
        <send channel="0" amount="1"/>
      </fxchannel>
      <fxchannel muted="0" num="18" soloed="0" volume="1" name="FX 18">
        <fxchain numofeffects="0" enabled="0"/>
        <send channel="0" amount="1"/>
      </fxchannel>
      <fxchannel muted="0" num="19" soloed="0" volume="1" name="FX 19">
        <fxchain numofeffects="0" enabled="0"/>
        <send channel="0" amount="1"/>
      </fxchannel>
      <fxchannel muted="0" num="20" soloed="0" volume="1" name="FX 20">
        <fxchain numofeffects="0" enabled="0"/>
        <send channel="0" amount="1"/>
      </fxchannel>
    </fxmixer>
    <ControllerRackView visible="0" minimized="0" height="200" width="350" y="261" x="447" maximized="0"/>
    <pianoroll visible="0" minimized="0" height="479" width="860" y="203" x="1" maximized="1"/>
    <automationeditor visible="0" minimized="0" height="400" width="860" y="34" x="318" maximized="0"/>
    <projectnotes visible="0" minimized="0" height="400" width="692" y="1" x="700" maximized="0"><![CDATA[<!DOCTYPE HTML PUBLIC "-//W3C//DTD HTML 4.0//EN" "http://www.w3.org/TR/REC-html40/strict.dtd">
<html><head><meta name="qrichtext" content="1" /><style type="text/css">
p, li { white-space: pre-wrap; }
</style></head><body style=" font-family:'Sans Serif'; font-size:9pt; font-weight:400; font-style:normal;">
<p style="-qt-paragraph-type:empty; margin-top:0px; margin-bottom:0px; margin-left:0px; margin-right:0px; -qt-block-indent:0; text-indent:0px; font-family:'Ubuntu'; font-size:10pt;"><br /></p></body></html>]]></projectnotes>
    <timeline lp1pos="9600" lp0pos="0" lpstate="0"/>
    <controllers>
      <lfocontroller wave="0" speed_syncmode="0" speed_numerator="4" multiplier="0" userwavefile="" speed="6.5681" amount="0.13" phase="0" speed_denominator="4" name="Controller 1" base="0.264" type="1"/>
    </controllers>
  </song>
</lmms-project>
