<?xml version="1.0"?>
<!DOCTYPE lmms-project>
<lmms-project type="song" creatorversion="1.2.2" version="1.0" creator="LMMS">
  <head bpm="220" timesig_numerator="4" masterpitch="0" timesig_denominator="4" mastervol="100"/>
  <song>
    <trackcontainer type="song" x="66" y="152" width="600" height="300" maximized="1" visible="1" minimized="0">
      <track type="1" name="intro1" muted="0" solo="0">
        <bbtrack>
          <trackcontainer type="bbtrackcontainer" x="167" y="77" width="1042" height="378" maximized="1" visible="0" minimized="0">
            <track type="0" name="kick.wav" muted="0" solo="0">
              <instrumenttrack pitch="0" usemasterpitch="1" pitchrange="1" pan="0" fxch="1" vol="100" basenote="57">
                <instrument name="audiofileprocessor">
                  <audiofileprocessor src="/home/pass/samples/sillydrums/kick.wav" amp="100" looped="0" lframe="0" eframe="1" stutter="0" sframe="0" interp="0" reversed="0"/>
                </instrument>
                <eldata fcut="14000" fres="0.5" fwet="0" ftype="0">
                  <elvol sustain="1" lspd_denominator="4" rel="2" lspd_numerator="4" lspd_syncmode="0" x100="0" pdel="0" amt="1" userwavefile="" hold="2" dec="2" lspd="0.1" lamt="0" latt="0" lpdel="0" ctlenvamt="0" att="0" lshp="0"/>
                  <elcut sustain="0.5" lspd_denominator="4" rel="0.1" lspd_numerator="4" lspd_syncmode="0" x100="0" pdel="0" amt="0" userwavefile="" hold="0.5" dec="0.5" lspd="0.1" lamt="0" latt="0" lpdel="0" ctlenvamt="0" att="0" lshp="0"/>
                  <elres sustain="0.5" lspd_denominator="4" rel="0.1" lspd_numerator="4" lspd_syncmode="0" x100="0" pdel="0" amt="0" userwavefile="" hold="0.5" dec="0.5" lspd="0.1" lamt="0" latt="0" lpdel="0" ctlenvamt="0" att="0" lshp="0"/>
                </eldata>
                <chordcreator chordrange="1" chord="0" chord-enabled="0"/>
                <arpeggiator arpgate="100" arpskip="0" arp-enabled="0" arpmiss="0" arptime_denominator="4" arpdir="0" arpmode="0" arptime_numerator="4" arp="0" arptime="200" arprange="1" arpcycle="0" arptime_syncmode="0"/>
                <midiport fixedinputvelocity="-1" outputcontroller="0" inputchannel="0" outputchannel="1" basevelocity="63" fixedoutputnote="-1" inputcontroller="0" outputprogram="1" readable="0" writable="0" fixedoutputvelocity="-1"/>
                <fxchain numofeffects="0" enabled="0"/>
              </instrumenttrack>
              <pattern type="0" name="kick.wav" steps="128" pos="0" muted="0">
                <note len="-192" pan="0" vol="100" pos="0" key="57"/>
                <note len="-192" pan="0" vol="100" pos="768" key="57"/>
              </pattern>
              <pattern type="0" name="kick.wav" steps="112" pos="192" muted="0">
                <note len="-192" pan="0" vol="100" pos="0" key="57"/>
                <note len="-192" pan="0" vol="100" pos="48" key="57"/>
                <note len="-192" pan="0" vol="100" pos="96" key="57"/>
                <note len="-192" pan="0" vol="100" pos="144" key="57"/>
                <note len="-192" pan="0" vol="100" pos="192" key="57"/>
                <note len="-192" pan="0" vol="100" pos="240" key="57"/>
                <note len="-192" pan="0" vol="100" pos="288" key="57"/>
                <note len="-192" pan="0" vol="100" pos="336" key="57"/>
                <note len="-192" pan="0" vol="100" pos="384" key="57"/>
                <note len="-192" pan="0" vol="100" pos="432" key="57"/>
                <note len="-192" pan="0" vol="100" pos="480" key="57"/>
                <note len="-192" pan="0" vol="100" pos="528" key="57"/>
                <note len="-192" pan="0" vol="100" pos="576" key="57"/>
                <note len="-192" pan="0" vol="100" pos="624" key="57"/>
                <note len="-192" pan="0" vol="100" pos="672" key="57"/>
                <note len="-192" pan="0" vol="100" pos="720" key="57"/>
                <note len="-192" pan="0" vol="100" pos="768" key="57"/>
                <note len="-192" pan="0" vol="100" pos="816" key="57"/>
                <note len="-192" pan="0" vol="100" pos="864" key="57"/>
                <note len="-192" pan="0" vol="100" pos="912" key="57"/>
                <note len="-192" pan="0" vol="100" pos="960" key="57"/>
                <note len="-192" pan="0" vol="100" pos="1008" key="57"/>
                <note len="-192" pan="0" vol="100" pos="1056" key="57"/>
                <note len="-192" pan="0" vol="100" pos="1104" key="57"/>
                <note len="-192" pan="0" vol="100" pos="1152" key="57"/>
                <note len="-192" pan="0" vol="100" pos="1200" key="57"/>
                <note len="-192" pan="0" vol="100" pos="1248" key="57"/>
                <note len="-192" pan="0" vol="100" pos="1296" key="57"/>
                <note len="-192" pan="0" vol="100" pos="1320" key="57"/>
                <note len="-192" pan="0" vol="100" pos="1332" key="57"/>
              </pattern>
              <pattern type="0" name="kick.wav" steps="64" pos="384" muted="0">
                <note len="-192" pan="0" vol="100" pos="0" key="57"/>
                <note len="-192" pan="0" vol="100" pos="384" key="57"/>
              </pattern>
              <pattern type="0" name="kick.wav" steps="64" pos="576" muted="0">
                <note len="-192" pan="0" vol="100" pos="0" key="57"/>
                <note len="-192" pan="0" vol="100" pos="384" key="57"/>
                <note len="-192" pan="0" vol="100" pos="456" key="57"/>
                <note len="-192" pan="0" vol="100" pos="528" key="57"/>
                <note len="-192" pan="0" vol="100" pos="576" key="57"/>
                <note len="-192" pan="0" vol="100" pos="600" key="57"/>
                <note len="-192" pan="0" vol="100" pos="612" key="57"/>
                <note len="-192" pan="0" vol="100" pos="624" key="57"/>
                <note len="-192" pan="0" vol="100" pos="636" key="57"/>
                <note len="-192" pan="0" vol="100" pos="648" key="57"/>
                <note len="-192" pan="0" vol="100" pos="660" key="57"/>
                <note len="-192" pan="0" vol="100" pos="672" key="57"/>
                <note len="-192" pan="0" vol="100" pos="684" key="57"/>
                <note len="-192" pan="0" vol="100" pos="696" key="57"/>
                <note len="-192" pan="0" vol="100" pos="708" key="57"/>
                <note len="-192" pan="0" vol="100" pos="720" key="57"/>
                <note len="-192" pan="0" vol="100" pos="732" key="57"/>
                <note len="-192" pan="0" vol="100" pos="744" key="57"/>
                <note len="-192" pan="0" vol="100" pos="756" key="57"/>
              </pattern>
              <pattern type="0" name="kick.wav" steps="16" pos="768" muted="0">
                <note len="-192" pan="0" vol="100" pos="0" key="57"/>
              </pattern>
              <pattern type="0" name="kick.wav" steps="64" pos="960" muted="0">
                <note len="-192" pan="0" vol="100" pos="0" key="57"/>
                <note len="-192" pan="0" vol="100" pos="12" key="57"/>
                <note len="-192" pan="0" vol="100" pos="24" key="57"/>
                <note len="-192" pan="0" vol="100" pos="36" key="57"/>
                <note len="-192" pan="0" vol="100" pos="48" key="57"/>
                <note len="-192" pan="0" vol="100" pos="60" key="57"/>
                <note len="-192" pan="0" vol="100" pos="72" key="57"/>
                <note len="-192" pan="0" vol="100" pos="84" key="57"/>
                <note len="-192" pan="0" vol="100" pos="96" key="57"/>
                <note len="-192" pan="0" vol="100" pos="108" key="57"/>
                <note len="-192" pan="0" vol="100" pos="120" key="57"/>
                <note len="-192" pan="0" vol="100" pos="132" key="57"/>
                <note len="-192" pan="0" vol="100" pos="144" key="57"/>
                <note len="-192" pan="0" vol="100" pos="156" key="57"/>
                <note len="-192" pan="0" vol="100" pos="168" key="57"/>
                <note len="-192" pan="0" vol="100" pos="180" key="57"/>
                <note len="-192" pan="0" vol="100" pos="192" key="57"/>
                <note len="-192" pan="0" vol="100" pos="204" key="57"/>
                <note len="-192" pan="0" vol="100" pos="216" key="57"/>
                <note len="-192" pan="0" vol="100" pos="228" key="57"/>
                <note len="-192" pan="0" vol="100" pos="240" key="57"/>
                <note len="-192" pan="0" vol="100" pos="252" key="57"/>
                <note len="-192" pan="0" vol="100" pos="264" key="57"/>
                <note len="-192" pan="0" vol="100" pos="276" key="57"/>
                <note len="-192" pan="0" vol="100" pos="288" key="57"/>
                <note len="-192" pan="0" vol="100" pos="300" key="57"/>
                <note len="-192" pan="0" vol="100" pos="312" key="57"/>
                <note len="-192" pan="0" vol="100" pos="324" key="57"/>
                <note len="-192" pan="0" vol="100" pos="336" key="57"/>
                <note len="-192" pan="0" vol="100" pos="348" key="57"/>
                <note len="-192" pan="0" vol="100" pos="360" key="57"/>
                <note len="-192" pan="0" vol="100" pos="372" key="57"/>
                <note len="-192" pan="0" vol="100" pos="384" key="57"/>
                <note len="-192" pan="0" vol="100" pos="396" key="57"/>
                <note len="-192" pan="0" vol="100" pos="408" key="57"/>
                <note len="-192" pan="0" vol="100" pos="420" key="57"/>
                <note len="-192" pan="0" vol="100" pos="432" key="57"/>
                <note len="-192" pan="0" vol="100" pos="444" key="57"/>
                <note len="-192" pan="0" vol="100" pos="456" key="57"/>
                <note len="-192" pan="0" vol="100" pos="468" key="57"/>
                <note len="-192" pan="0" vol="100" pos="480" key="57"/>
                <note len="-192" pan="0" vol="100" pos="492" key="57"/>
                <note len="-192" pan="0" vol="100" pos="504" key="57"/>
                <note len="-192" pan="0" vol="100" pos="516" key="57"/>
                <note len="-192" pan="0" vol="100" pos="528" key="57"/>
                <note len="-192" pan="0" vol="100" pos="540" key="57"/>
                <note len="-192" pan="0" vol="100" pos="552" key="57"/>
                <note len="-192" pan="0" vol="100" pos="564" key="57"/>
                <note len="-192" pan="0" vol="100" pos="576" key="57"/>
                <note len="-192" pan="0" vol="100" pos="588" key="57"/>
                <note len="-192" pan="0" vol="100" pos="600" key="57"/>
                <note len="-192" pan="0" vol="100" pos="612" key="57"/>
                <note len="-192" pan="0" vol="100" pos="624" key="57"/>
                <note len="-192" pan="0" vol="100" pos="636" key="57"/>
                <note len="-192" pan="0" vol="100" pos="648" key="57"/>
                <note len="-192" pan="0" vol="100" pos="660" key="57"/>
                <note len="-192" pan="0" vol="100" pos="672" key="57"/>
                <note len="-192" pan="0" vol="100" pos="684" key="57"/>
                <note len="-192" pan="0" vol="100" pos="696" key="57"/>
                <note len="-192" pan="0" vol="100" pos="708" key="57"/>
                <note len="-192" pan="0" vol="100" pos="720" key="57"/>
                <note len="-192" pan="0" vol="100" pos="732" key="57"/>
                <note len="-192" pan="0" vol="100" pos="744" key="57"/>
                <note len="-192" pan="0" vol="100" pos="756" key="57"/>
              </pattern>
              <pattern type="0" name="kick.wav" steps="64" pos="1152" muted="0">
                <note len="-192" pan="0" vol="100" pos="0" key="57"/>
                <note len="-192" pan="0" vol="100" pos="12" key="57"/>
                <note len="-192" pan="0" vol="100" pos="24" key="57"/>
                <note len="-192" pan="0" vol="100" pos="36" key="57"/>
                <note len="-192" pan="0" vol="100" pos="48" key="57"/>
                <note len="-192" pan="0" vol="100" pos="60" key="57"/>
                <note len="-192" pan="0" vol="100" pos="72" key="57"/>
                <note len="-192" pan="0" vol="100" pos="84" key="57"/>
                <note len="-192" pan="0" vol="100" pos="96" key="57"/>
                <note len="-192" pan="0" vol="100" pos="108" key="57"/>
                <note len="-192" pan="0" vol="100" pos="120" key="57"/>
                <note len="-192" pan="0" vol="100" pos="132" key="57"/>
                <note len="-192" pan="0" vol="100" pos="144" key="57"/>
                <note len="-192" pan="0" vol="100" pos="156" key="57"/>
                <note len="-192" pan="0" vol="100" pos="168" key="57"/>
                <note len="-192" pan="0" vol="100" pos="180" key="57"/>
                <note len="-192" pan="0" vol="100" pos="192" key="57"/>
                <note len="-192" pan="0" vol="100" pos="204" key="57"/>
                <note len="-192" pan="0" vol="100" pos="216" key="57"/>
                <note len="-192" pan="0" vol="100" pos="228" key="57"/>
                <note len="-192" pan="0" vol="100" pos="240" key="57"/>
                <note len="-192" pan="0" vol="100" pos="252" key="57"/>
                <note len="-192" pan="0" vol="100" pos="264" key="57"/>
                <note len="-192" pan="0" vol="100" pos="276" key="57"/>
                <note len="-192" pan="0" vol="100" pos="288" key="57"/>
                <note len="-192" pan="0" vol="100" pos="300" key="57"/>
                <note len="-192" pan="0" vol="100" pos="312" key="57"/>
                <note len="-192" pan="0" vol="100" pos="324" key="57"/>
                <note len="-192" pan="0" vol="100" pos="336" key="57"/>
                <note len="-192" pan="0" vol="100" pos="348" key="57"/>
                <note len="-192" pan="0" vol="100" pos="360" key="57"/>
                <note len="-192" pan="0" vol="100" pos="372" key="57"/>
                <note len="-192" pan="0" vol="100" pos="384" key="57"/>
                <note len="-192" pan="0" vol="100" pos="396" key="57"/>
                <note len="-192" pan="0" vol="100" pos="408" key="57"/>
                <note len="-192" pan="0" vol="100" pos="420" key="57"/>
                <note len="-192" pan="0" vol="100" pos="432" key="57"/>
                <note len="-192" pan="0" vol="100" pos="444" key="57"/>
                <note len="-192" pan="0" vol="100" pos="456" key="57"/>
                <note len="-192" pan="0" vol="100" pos="468" key="57"/>
                <note len="-192" pan="0" vol="100" pos="480" key="57"/>
                <note len="-192" pan="0" vol="100" pos="492" key="57"/>
                <note len="-192" pan="0" vol="100" pos="504" key="57"/>
                <note len="-192" pan="0" vol="100" pos="516" key="57"/>
                <note len="-192" pan="0" vol="100" pos="528" key="57"/>
                <note len="-192" pan="0" vol="100" pos="540" key="57"/>
                <note len="-192" pan="0" vol="100" pos="552" key="57"/>
                <note len="-192" pan="0" vol="100" pos="564" key="57"/>
                <note len="-192" pan="0" vol="100" pos="576" key="57"/>
                <note len="-192" pan="0" vol="100" pos="588" key="57"/>
                <note len="-192" pan="0" vol="100" pos="600" key="57"/>
                <note len="-192" pan="0" vol="100" pos="612" key="57"/>
                <note len="-192" pan="0" vol="100" pos="624" key="57"/>
                <note len="-192" pan="0" vol="100" pos="636" key="57"/>
                <note len="-192" pan="0" vol="100" pos="648" key="57"/>
                <note len="-192" pan="0" vol="100" pos="660" key="57"/>
                <note len="-192" pan="0" vol="100" pos="672" key="57"/>
                <note len="-192" pan="0" vol="100" pos="684" key="57"/>
                <note len="-192" pan="0" vol="100" pos="696" key="57"/>
                <note len="-192" pan="0" vol="100" pos="708" key="57"/>
                <note len="-192" pan="0" vol="100" pos="720" key="57"/>
                <note len="-192" pan="0" vol="100" pos="732" key="57"/>
                <note len="-192" pan="0" vol="100" pos="744" key="57"/>
                <note len="-192" pan="0" vol="100" pos="756" key="57"/>
              </pattern>
              <pattern type="0" name="kick.wav" steps="16" pos="1344" muted="0">
                <note len="-192" pan="0" vol="100" pos="0" key="57"/>
                <note len="-192" pan="0" vol="100" pos="48" key="57"/>
                <note len="-192" pan="0" vol="100" pos="96" key="57"/>
                <note len="-192" pan="0" vol="100" pos="144" key="57"/>
                <note len="-192" pan="0" vol="100" pos="156" key="57"/>
                <note len="-192" pan="0" vol="100" pos="168" key="57"/>
                <note len="-192" pan="0" vol="100" pos="180" key="57"/>
              </pattern>
              <pattern type="0" name="kick.wav" steps="64" pos="1536" muted="0">
                <note len="-192" pan="0" vol="100" pos="0" key="57"/>
                <note len="-192" pan="0" vol="100" pos="48" key="57"/>
                <note len="-192" pan="0" vol="100" pos="96" key="57"/>
                <note len="-192" pan="0" vol="100" pos="144" key="57"/>
                <note len="-192" pan="0" vol="100" pos="156" key="57"/>
                <note len="-192" pan="0" vol="100" pos="168" key="57"/>
                <note len="-192" pan="0" vol="100" pos="180" key="57"/>
                <note len="-192" pan="0" vol="100" pos="192" key="57"/>
                <note len="-192" pan="0" vol="100" pos="240" key="57"/>
                <note len="-192" pan="0" vol="100" pos="288" key="57"/>
                <note len="-192" pan="0" vol="100" pos="336" key="57"/>
                <note len="-192" pan="0" vol="100" pos="348" key="57"/>
                <note len="-192" pan="0" vol="100" pos="360" key="57"/>
                <note len="-192" pan="0" vol="100" pos="372" key="57"/>
                <note len="-192" pan="0" vol="100" pos="384" key="57"/>
                <note len="-192" pan="0" vol="100" pos="432" key="57"/>
                <note len="-192" pan="0" vol="100" pos="480" key="57"/>
                <note len="-192" pan="0" vol="100" pos="528" key="57"/>
                <note len="-192" pan="0" vol="100" pos="540" key="57"/>
                <note len="-192" pan="0" vol="100" pos="552" key="57"/>
                <note len="-192" pan="0" vol="100" pos="564" key="57"/>
                <note len="-192" pan="0" vol="100" pos="576" key="57"/>
                <note len="-192" pan="0" vol="100" pos="624" key="57"/>
                <note len="-192" pan="0" vol="100" pos="672" key="57"/>
                <note len="-192" pan="0" vol="100" pos="720" key="57"/>
                <note len="-192" pan="0" vol="100" pos="732" key="57"/>
                <note len="-192" pan="0" vol="100" pos="744" key="57"/>
                <note len="-192" pan="0" vol="100" pos="756" key="57"/>
              </pattern>
              <pattern type="0" name="kick.wav" steps="64" pos="1728" muted="0">
                <note len="-192" pan="0" vol="100" pos="0" key="57"/>
                <note len="-192" pan="0" vol="100" pos="48" key="57"/>
                <note len="-192" pan="0" vol="100" pos="96" key="57"/>
                <note len="-192" pan="0" vol="100" pos="144" key="57"/>
                <note len="-192" pan="0" vol="100" pos="156" key="57"/>
                <note len="-192" pan="0" vol="100" pos="168" key="57"/>
                <note len="-192" pan="0" vol="100" pos="180" key="57"/>
                <note len="-192" pan="0" vol="100" pos="192" key="57"/>
                <note len="-192" pan="0" vol="100" pos="240" key="57"/>
                <note len="-192" pan="0" vol="100" pos="288" key="57"/>
                <note len="-192" pan="0" vol="100" pos="336" key="57"/>
                <note len="-192" pan="0" vol="100" pos="348" key="57"/>
                <note len="-192" pan="0" vol="100" pos="360" key="57"/>
                <note len="-192" pan="0" vol="100" pos="372" key="57"/>
                <note len="-192" pan="0" vol="100" pos="384" key="57"/>
                <note len="-192" pan="0" vol="100" pos="432" key="57"/>
                <note len="-192" pan="0" vol="100" pos="480" key="57"/>
                <note len="-192" pan="0" vol="100" pos="528" key="57"/>
                <note len="-192" pan="0" vol="100" pos="540" key="57"/>
                <note len="-192" pan="0" vol="100" pos="552" key="57"/>
                <note len="-192" pan="0" vol="100" pos="564" key="57"/>
                <note len="-192" pan="0" vol="100" pos="576" key="57"/>
                <note len="-192" pan="0" vol="100" pos="648" key="57"/>
                <note len="-192" pan="0" vol="100" pos="720" key="57"/>
              </pattern>
              <pattern type="0" name="kick.wav" steps="64" pos="1920" muted="0">
                <note len="-192" pan="0" vol="100" pos="0" key="57"/>
                <note len="-192" pan="0" vol="100" pos="48" key="57"/>
                <note len="-192" pan="0" vol="100" pos="96" key="57"/>
                <note len="-192" pan="0" vol="100" pos="144" key="57"/>
                <note len="-192" pan="0" vol="100" pos="156" key="57"/>
                <note len="-192" pan="0" vol="100" pos="168" key="57"/>
                <note len="-192" pan="0" vol="100" pos="180" key="57"/>
                <note len="-192" pan="0" vol="100" pos="192" key="57"/>
                <note len="-192" pan="0" vol="100" pos="240" key="57"/>
                <note len="-192" pan="0" vol="100" pos="288" key="57"/>
                <note len="-192" pan="0" vol="100" pos="336" key="57"/>
                <note len="-192" pan="0" vol="100" pos="348" key="57"/>
                <note len="-192" pan="0" vol="100" pos="360" key="57"/>
                <note len="-192" pan="0" vol="100" pos="372" key="57"/>
                <note len="-192" pan="0" vol="100" pos="384" key="57"/>
                <note len="-192" pan="0" vol="100" pos="432" key="57"/>
                <note len="-192" pan="0" vol="100" pos="480" key="57"/>
                <note len="-192" pan="0" vol="100" pos="528" key="57"/>
                <note len="-192" pan="0" vol="100" pos="540" key="57"/>
                <note len="-192" pan="0" vol="100" pos="552" key="57"/>
                <note len="-192" pan="0" vol="100" pos="564" key="57"/>
                <note len="-192" pan="0" vol="100" pos="576" key="57"/>
                <note len="-192" pan="0" vol="100" pos="624" key="57"/>
                <note len="-192" pan="0" vol="100" pos="672" key="57"/>
                <note len="-192" pan="0" vol="100" pos="720" key="57"/>
                <note len="-192" pan="0" vol="100" pos="732" key="57"/>
                <note len="-192" pan="0" vol="100" pos="744" key="57"/>
                <note len="-192" pan="0" vol="100" pos="756" key="57"/>
              </pattern>
              <pattern type="0" name="kick.wav" steps="32" pos="2112" muted="0">
                <note len="-192" pan="0" vol="100" pos="0" key="57"/>
              </pattern>
              <pattern type="0" name="kick.wav" steps="32" pos="2304" muted="0">
                <note len="-192" pan="0" vol="100" pos="0" key="57"/>
                <note len="-192" pan="0" vol="100" pos="48" key="57"/>
                <note len="-192" pan="0" vol="100" pos="60" key="57"/>
                <note len="-192" pan="0" vol="100" pos="72" key="57"/>
                <note len="-192" pan="0" vol="100" pos="96" key="57"/>
                <note len="-192" pan="0" vol="100" pos="108" key="57"/>
                <note len="-192" pan="0" vol="100" pos="120" key="57"/>
                <note len="-192" pan="0" vol="100" pos="144" key="57"/>
                <note len="-192" pan="0" vol="100" pos="156" key="57"/>
                <note len="-192" pan="0" vol="100" pos="168" key="57"/>
                <note len="-192" pan="0" vol="100" pos="192" key="57"/>
                <note len="-192" pan="0" vol="100" pos="240" key="57"/>
                <note len="-192" pan="0" vol="100" pos="252" key="57"/>
                <note len="-192" pan="0" vol="100" pos="264" key="57"/>
                <note len="-192" pan="0" vol="100" pos="276" key="57"/>
                <note len="-192" pan="0" vol="100" pos="288" key="57"/>
                <note len="-192" pan="0" vol="100" pos="300" key="57"/>
                <note len="-192" pan="0" vol="100" pos="312" key="57"/>
                <note len="-192" pan="0" vol="100" pos="324" key="57"/>
                <note len="-192" pan="0" vol="100" pos="336" key="57"/>
                <note len="-192" pan="0" vol="100" pos="348" key="57"/>
                <note len="-192" pan="0" vol="100" pos="360" key="57"/>
                <note len="-192" pan="0" vol="100" pos="372" key="57"/>
              </pattern>
              <pattern type="0" name="kick.wav" steps="32" pos="2496" muted="0">
                <note len="-192" pan="0" vol="100" pos="0" key="57"/>
                <note len="-192" pan="0" vol="100" pos="12" key="57"/>
                <note len="-192" pan="0" vol="100" pos="24" key="57"/>
                <note len="-192" pan="0" vol="100" pos="36" key="57"/>
                <note len="-192" pan="0" vol="100" pos="48" key="57"/>
                <note len="-192" pan="0" vol="100" pos="60" key="57"/>
                <note len="-192" pan="0" vol="100" pos="72" key="57"/>
                <note len="-192" pan="0" vol="100" pos="84" key="57"/>
                <note len="-192" pan="0" vol="100" pos="96" key="57"/>
                <note len="-192" pan="0" vol="100" pos="108" key="57"/>
                <note len="-192" pan="0" vol="100" pos="120" key="57"/>
                <note len="-192" pan="0" vol="100" pos="132" key="57"/>
                <note len="-192" pan="0" vol="100" pos="144" key="57"/>
                <note len="-192" pan="0" vol="100" pos="156" key="57"/>
                <note len="-192" pan="0" vol="100" pos="168" key="57"/>
                <note len="-192" pan="0" vol="100" pos="180" key="57"/>
                <note len="-192" pan="0" vol="100" pos="192" key="57"/>
                <note len="-192" pan="0" vol="100" pos="204" key="57"/>
                <note len="-192" pan="0" vol="100" pos="216" key="57"/>
                <note len="-192" pan="0" vol="100" pos="228" key="57"/>
                <note len="-192" pan="0" vol="100" pos="240" key="57"/>
                <note len="-192" pan="0" vol="100" pos="252" key="57"/>
                <note len="-192" pan="0" vol="100" pos="264" key="57"/>
                <note len="-192" pan="0" vol="100" pos="276" key="57"/>
                <note len="-192" pan="0" vol="100" pos="288" key="57"/>
                <note len="-192" pan="0" vol="100" pos="300" key="57"/>
                <note len="-192" pan="0" vol="100" pos="312" key="57"/>
                <note len="-192" pan="0" vol="100" pos="324" key="57"/>
                <note len="-192" pan="0" vol="100" pos="336" key="57"/>
                <note len="-192" pan="0" vol="100" pos="348" key="57"/>
                <note len="-192" pan="0" vol="100" pos="360" key="57"/>
                <note len="-192" pan="0" vol="100" pos="372" key="57"/>
              </pattern>
              <pattern type="0" name="kick.wav" steps="128" pos="2688" muted="0">
                <note len="-192" pan="0" vol="100" pos="0" key="57"/>
                <note len="-192" pan="0" vol="100" pos="48" key="57"/>
                <note len="-192" pan="0" vol="100" pos="96" key="57"/>
                <note len="-192" pan="0" vol="100" pos="144" key="57"/>
                <note len="-192" pan="0" vol="100" pos="192" key="57"/>
                <note len="-192" pan="0" vol="100" pos="240" key="57"/>
                <note len="-192" pan="0" vol="100" pos="288" key="57"/>
                <note len="-192" pan="0" vol="100" pos="336" key="57"/>
                <note len="-192" pan="0" vol="100" pos="384" key="57"/>
                <note len="-192" pan="0" vol="100" pos="432" key="57"/>
                <note len="-192" pan="0" vol="100" pos="480" key="57"/>
                <note len="-192" pan="0" vol="100" pos="528" key="57"/>
                <note len="-192" pan="0" vol="100" pos="576" key="57"/>
                <note len="-192" pan="0" vol="100" pos="624" key="57"/>
                <note len="-192" pan="0" vol="100" pos="672" key="57"/>
                <note len="-192" pan="0" vol="100" pos="720" key="57"/>
                <note len="-192" pan="0" vol="100" pos="768" key="57"/>
                <note len="-192" pan="0" vol="100" pos="816" key="57"/>
                <note len="-192" pan="0" vol="100" pos="864" key="57"/>
                <note len="-192" pan="0" vol="100" pos="912" key="57"/>
                <note len="-192" pan="0" vol="100" pos="960" key="57"/>
                <note len="-192" pan="0" vol="100" pos="1008" key="57"/>
                <note len="-192" pan="0" vol="100" pos="1056" key="57"/>
                <note len="-192" pan="0" vol="100" pos="1104" key="57"/>
                <note len="-192" pan="0" vol="100" pos="1152" key="57"/>
                <note len="-192" pan="0" vol="100" pos="1200" key="57"/>
                <note len="-192" pan="0" vol="100" pos="1248" key="57"/>
                <note len="-192" pan="0" vol="100" pos="1296" key="57"/>
                <note len="-192" pan="0" vol="100" pos="1344" key="57"/>
                <note len="-192" pan="0" vol="100" pos="1392" key="57"/>
                <note len="-192" pan="0" vol="100" pos="1440" key="57"/>
              </pattern>
              <pattern type="0" name="kick.wav" steps="64" pos="2880" muted="0">
                <note len="-192" pan="0" vol="100" pos="0" key="57"/>
                <note len="-192" pan="0" vol="100" pos="24" key="57"/>
                <note len="-192" pan="0" vol="100" pos="48" key="57"/>
                <note len="-192" pan="0" vol="100" pos="72" key="57"/>
                <note len="-192" pan="0" vol="100" pos="96" key="57"/>
                <note len="-192" pan="0" vol="100" pos="120" key="57"/>
                <note len="-192" pan="0" vol="100" pos="144" key="57"/>
                <note len="-192" pan="0" vol="100" pos="168" key="57"/>
                <note len="-192" pan="0" vol="100" pos="192" key="57"/>
                <note len="-192" pan="0" vol="100" pos="216" key="57"/>
                <note len="-192" pan="0" vol="100" pos="240" key="57"/>
                <note len="-192" pan="0" vol="100" pos="264" key="57"/>
                <note len="-192" pan="0" vol="100" pos="288" key="57"/>
                <note len="-192" pan="0" vol="100" pos="312" key="57"/>
                <note len="-192" pan="0" vol="100" pos="336" key="57"/>
                <note len="-192" pan="0" vol="100" pos="360" key="57"/>
                <note len="-192" pan="0" vol="100" pos="384" key="57"/>
                <note len="-192" pan="0" vol="100" pos="408" key="57"/>
                <note len="-192" pan="0" vol="100" pos="432" key="57"/>
                <note len="-192" pan="0" vol="100" pos="456" key="57"/>
                <note len="-192" pan="0" vol="100" pos="480" key="57"/>
                <note len="-192" pan="0" vol="100" pos="504" key="57"/>
                <note len="-192" pan="0" vol="100" pos="528" key="57"/>
                <note len="-192" pan="0" vol="100" pos="552" key="57"/>
                <note len="-192" pan="0" vol="100" pos="576" key="57"/>
                <note len="-192" pan="0" vol="100" pos="600" key="57"/>
                <note len="-192" pan="0" vol="100" pos="624" key="57"/>
                <note len="-192" pan="0" vol="100" pos="648" key="57"/>
                <note len="-192" pan="0" vol="100" pos="672" key="57"/>
                <note len="-192" pan="0" vol="100" pos="696" key="57"/>
                <note len="-192" pan="0" vol="100" pos="720" key="57"/>
                <note len="-192" pan="0" vol="100" pos="744" key="57"/>
              </pattern>
              <pattern type="0" name="kick.wav" steps="64" pos="3072" muted="0">
                <note len="-192" pan="0" vol="100" pos="0" key="57"/>
                <note len="-192" pan="0" vol="100" pos="24" key="57"/>
                <note len="-192" pan="0" vol="100" pos="48" key="57"/>
                <note len="-192" pan="0" vol="100" pos="72" key="57"/>
                <note len="-192" pan="0" vol="100" pos="96" key="57"/>
                <note len="-192" pan="0" vol="100" pos="120" key="57"/>
                <note len="-192" pan="0" vol="100" pos="144" key="57"/>
                <note len="-192" pan="0" vol="100" pos="168" key="57"/>
                <note len="-192" pan="0" vol="100" pos="192" key="57"/>
                <note len="-192" pan="0" vol="100" pos="216" key="57"/>
                <note len="-192" pan="0" vol="100" pos="240" key="57"/>
                <note len="-192" pan="0" vol="100" pos="264" key="57"/>
                <note len="-192" pan="0" vol="100" pos="288" key="57"/>
                <note len="-192" pan="0" vol="100" pos="312" key="57"/>
                <note len="-192" pan="0" vol="100" pos="336" key="57"/>
                <note len="-192" pan="0" vol="100" pos="360" key="57"/>
                <note len="-192" pan="0" vol="100" pos="384" key="57"/>
                <note len="-192" pan="0" vol="100" pos="408" key="57"/>
                <note len="-192" pan="0" vol="100" pos="432" key="57"/>
                <note len="-192" pan="0" vol="100" pos="456" key="57"/>
                <note len="-192" pan="0" vol="100" pos="480" key="57"/>
                <note len="-192" pan="0" vol="100" pos="504" key="57"/>
                <note len="-192" pan="0" vol="100" pos="528" key="57"/>
                <note len="-192" pan="0" vol="100" pos="552" key="57"/>
                <note len="-192" pan="0" vol="100" pos="576" key="57"/>
                <note len="-192" pan="0" vol="100" pos="588" key="57"/>
                <note len="-192" pan="0" vol="100" pos="600" key="57"/>
                <note len="-192" pan="0" vol="100" pos="612" key="57"/>
                <note len="-192" pan="0" vol="100" pos="624" key="57"/>
                <note len="-192" pan="0" vol="100" pos="636" key="57"/>
                <note len="-192" pan="0" vol="100" pos="648" key="57"/>
                <note len="-192" pan="0" vol="100" pos="660" key="57"/>
                <note len="-192" pan="0" vol="100" pos="672" key="57"/>
                <note len="-192" pan="0" vol="100" pos="720" key="57"/>
              </pattern>
              <pattern type="0" name="kick.wav" steps="16" pos="3264" muted="0">
                <note len="-192" pan="0" vol="100" pos="0" key="57"/>
                <note len="-192" pan="0" vol="100" pos="12" key="57"/>
                <note len="-192" pan="0" vol="100" pos="24" key="57"/>
                <note len="-192" pan="0" vol="100" pos="36" key="57"/>
                <note len="-192" pan="0" vol="100" pos="48" key="57"/>
                <note len="-192" pan="0" vol="100" pos="60" key="57"/>
                <note len="-192" pan="0" vol="100" pos="72" key="57"/>
                <note len="-192" pan="0" vol="100" pos="84" key="57"/>
                <note len="-192" pan="0" vol="100" pos="96" key="57"/>
                <note len="-192" pan="0" vol="100" pos="108" key="57"/>
                <note len="-192" pan="0" vol="100" pos="120" key="57"/>
                <note len="-192" pan="0" vol="100" pos="132" key="57"/>
                <note len="-192" pan="0" vol="100" pos="144" key="57"/>
                <note len="-192" pan="0" vol="100" pos="156" key="57"/>
                <note len="-192" pan="0" vol="100" pos="168" key="57"/>
                <note len="-192" pan="0" vol="100" pos="180" key="57"/>
              </pattern>
              <pattern type="0" name="kick.wav" steps="32" pos="3456" muted="0">
                <note len="-192" pan="0" vol="100" pos="0" key="57"/>
                <note len="-192" pan="0" vol="100" pos="12" key="57"/>
                <note len="-192" pan="0" vol="100" pos="24" key="57"/>
                <note len="-192" pan="0" vol="100" pos="36" key="57"/>
                <note len="-192" pan="0" vol="100" pos="48" key="57"/>
                <note len="-192" pan="0" vol="100" pos="60" key="57"/>
                <note len="-192" pan="0" vol="100" pos="72" key="57"/>
                <note len="-192" pan="0" vol="100" pos="84" key="57"/>
                <note len="-192" pan="0" vol="100" pos="96" key="57"/>
                <note len="-192" pan="0" vol="100" pos="108" key="57"/>
                <note len="-192" pan="0" vol="100" pos="120" key="57"/>
                <note len="-192" pan="0" vol="100" pos="132" key="57"/>
                <note len="-192" pan="0" vol="100" pos="144" key="57"/>
                <note len="-192" pan="0" vol="100" pos="156" key="57"/>
                <note len="-192" pan="0" vol="100" pos="168" key="57"/>
                <note len="-192" pan="0" vol="100" pos="180" key="57"/>
                <note len="-192" pan="0" vol="100" pos="192" key="57"/>
                <note len="-192" pan="0" vol="100" pos="240" key="57"/>
                <note len="-192" pan="0" vol="100" pos="288" key="57"/>
                <note len="-192" pan="0" vol="100" pos="336" key="57"/>
                <note len="-192" pan="0" vol="100" pos="348" key="57"/>
                <note len="-192" pan="0" vol="100" pos="360" key="57"/>
                <note len="-192" pan="0" vol="100" pos="372" key="57"/>
              </pattern>
              <pattern type="0" name="kick.wav" steps="16" pos="3648" muted="0">
                <note len="-192" pan="0" vol="100" pos="0" key="57"/>
                <note len="-192" pan="0" vol="100" pos="12" key="57"/>
                <note len="-192" pan="0" vol="100" pos="24" key="57"/>
                <note len="-192" pan="0" vol="100" pos="36" key="57"/>
                <note len="-192" pan="0" vol="100" pos="48" key="57"/>
                <note len="-192" pan="0" vol="100" pos="60" key="57"/>
                <note len="-192" pan="0" vol="100" pos="72" key="57"/>
                <note len="-192" pan="0" vol="100" pos="84" key="57"/>
                <note len="-192" pan="0" vol="100" pos="96" key="57"/>
                <note len="-192" pan="0" vol="100" pos="108" key="57"/>
                <note len="-192" pan="0" vol="100" pos="120" key="57"/>
                <note len="-192" pan="0" vol="100" pos="132" key="57"/>
                <note len="-192" pan="0" vol="100" pos="144" key="57"/>
                <note len="-192" pan="0" vol="100" pos="156" key="57"/>
                <note len="-192" pan="0" vol="100" pos="168" key="57"/>
                <note len="-192" pan="0" vol="100" pos="180" key="57"/>
              </pattern>
            </track>
            <track type="0" name="hihat_opened02.ogg" muted="0" solo="0">
              <instrumenttrack pitch="0" usemasterpitch="1" pitchrange="1" pan="-42.4" fxch="2" vol="56.8" basenote="57">
                <instrument name="audiofileprocessor">
                  <audiofileprocessor src="drums/hihat_opened02.ogg" amp="100" looped="0" lframe="0" eframe="1" stutter="0" sframe="0" interp="1" reversed="0"/>
                </instrument>
                <eldata fcut="14000" fres="0.5" fwet="0" ftype="0">
                  <elvol sustain="0" lspd_denominator="4" rel="0" lspd_numerator="4" lspd_syncmode="0" x100="0" pdel="0" amt="1" userwavefile="" hold="2" dec="2" lspd="0.1" lamt="0" latt="0" lpdel="0" ctlenvamt="0" att="0" lshp="0"/>
                  <elcut sustain="0.5" lspd_denominator="4" rel="0.1" lspd_numerator="4" lspd_syncmode="0" x100="0" pdel="0" amt="0" userwavefile="" hold="0.5" dec="0.5" lspd="0.1" lamt="0" latt="0" lpdel="0" ctlenvamt="0" att="0" lshp="0"/>
                  <elres sustain="0.5" lspd_denominator="4" rel="0.1" lspd_numerator="4" lspd_syncmode="0" x100="0" pdel="0" amt="0" userwavefile="" hold="0.5" dec="0.5" lspd="0.1" lamt="0" latt="0" lpdel="0" ctlenvamt="0" att="0" lshp="0"/>
                </eldata>
                <chordcreator chordrange="1" chord="0" chord-enabled="0"/>
                <arpeggiator arpgate="100" arpskip="0" arp-enabled="0" arpmiss="0" arptime_denominator="4" arpdir="0" arpmode="0" arptime_numerator="4" arp="0" arptime="200" arprange="1" arpcycle="0" arptime_syncmode="0"/>
                <midiport fixedinputvelocity="-1" outputcontroller="0" inputchannel="0" outputchannel="1" basevelocity="63" fixedoutputnote="-1" inputcontroller="0" outputprogram="1" readable="0" writable="0" fixedoutputvelocity="-1"/>
                <fxchain numofeffects="0" enabled="0"/>
              </instrumenttrack>
              <pattern type="0" name="hihat_opened02.ogg" steps="128" pos="0" muted="0"/>
              <pattern type="0" name="hihat_opened02.ogg" steps="112" pos="192" muted="0"/>
              <pattern type="0" name="hihat_opened02.ogg" steps="64" pos="384" muted="0"/>
              <pattern type="0" name="hihat_opened02.ogg" steps="64" pos="576" muted="0"/>
              <pattern type="0" name="hihat_opened02.ogg" steps="16" pos="768" muted="0"/>
              <pattern type="0" name="hihat_opened02.ogg" steps="64" pos="960" muted="0">
                <note len="-192" pan="0" vol="100" pos="0" key="57"/>
                <note len="-192" pan="0" vol="100" pos="96" key="57"/>
                <note len="-192" pan="0" vol="100" pos="192" key="57"/>
                <note len="-192" pan="0" vol="100" pos="288" key="57"/>
                <note len="-192" pan="0" vol="100" pos="384" key="57"/>
                <note len="-192" pan="0" vol="100" pos="480" key="57"/>
                <note len="-192" pan="0" vol="100" pos="576" key="57"/>
                <note len="-192" pan="0" vol="100" pos="672" key="57"/>
              </pattern>
              <pattern type="0" name="hihat_opened02.ogg" steps="64" pos="1152" muted="0">
                <note len="-192" pan="0" vol="100" pos="0" key="57"/>
                <note len="-192" pan="0" vol="100" pos="48" key="57"/>
                <note len="-192" pan="0" vol="100" pos="96" key="57"/>
                <note len="-192" pan="0" vol="100" pos="144" key="57"/>
                <note len="-192" pan="0" vol="100" pos="192" key="57"/>
                <note len="-192" pan="0" vol="100" pos="240" key="57"/>
                <note len="-192" pan="0" vol="100" pos="288" key="57"/>
                <note len="-192" pan="0" vol="100" pos="336" key="57"/>
                <note len="-192" pan="0" vol="100" pos="384" key="57"/>
                <note len="-192" pan="0" vol="100" pos="432" key="57"/>
                <note len="-192" pan="0" vol="100" pos="480" key="57"/>
                <note len="-192" pan="0" vol="100" pos="528" key="57"/>
                <note len="-192" pan="0" vol="100" pos="576" key="57"/>
                <note len="-192" pan="0" vol="100" pos="624" key="57"/>
                <note len="-192" pan="0" vol="100" pos="672" key="57"/>
                <note len="-192" pan="0" vol="100" pos="720" key="57"/>
              </pattern>
              <pattern type="0" name="hihat_opened02.ogg" steps="16" pos="1344" muted="0"/>
              <pattern type="0" name="hihat_opened02.ogg" steps="64" pos="1536" muted="0">
                <note len="-192" pan="0" vol="100" pos="0" key="57"/>
                <note len="-192" pan="0" vol="100" pos="48" key="57"/>
                <note len="-192" pan="0" vol="100" pos="96" key="57"/>
                <note len="-192" pan="0" vol="100" pos="144" key="57"/>
                <note len="-192" pan="0" vol="100" pos="192" key="57"/>
                <note len="-192" pan="0" vol="100" pos="240" key="57"/>
                <note len="-192" pan="0" vol="100" pos="288" key="57"/>
                <note len="-192" pan="0" vol="100" pos="336" key="57"/>
                <note len="-192" pan="0" vol="100" pos="384" key="57"/>
                <note len="-192" pan="0" vol="100" pos="432" key="57"/>
                <note len="-192" pan="0" vol="100" pos="480" key="57"/>
                <note len="-192" pan="0" vol="100" pos="528" key="57"/>
                <note len="-192" pan="0" vol="100" pos="576" key="57"/>
                <note len="-192" pan="0" vol="100" pos="624" key="57"/>
                <note len="-192" pan="0" vol="100" pos="672" key="57"/>
                <note len="-192" pan="0" vol="100" pos="720" key="57"/>
              </pattern>
              <pattern type="0" name="hihat_opened02.ogg" steps="64" pos="1728" muted="0">
                <note len="-192" pan="0" vol="100" pos="0" key="57"/>
                <note len="-192" pan="0" vol="100" pos="48" key="57"/>
                <note len="-192" pan="0" vol="100" pos="96" key="57"/>
                <note len="-192" pan="0" vol="100" pos="144" key="57"/>
                <note len="-192" pan="0" vol="100" pos="192" key="57"/>
                <note len="-192" pan="0" vol="100" pos="240" key="57"/>
                <note len="-192" pan="0" vol="100" pos="288" key="57"/>
                <note len="-192" pan="0" vol="100" pos="336" key="57"/>
                <note len="-192" pan="0" vol="100" pos="384" key="57"/>
                <note len="-192" pan="0" vol="100" pos="432" key="57"/>
                <note len="-192" pan="0" vol="100" pos="480" key="57"/>
                <note len="-192" pan="0" vol="100" pos="528" key="57"/>
              </pattern>
              <pattern type="0" name="hihat_opened02.ogg" steps="64" pos="1920" muted="0">
                <note len="-192" pan="0" vol="100" pos="0" key="57"/>
                <note len="-192" pan="0" vol="100" pos="48" key="57"/>
                <note len="-192" pan="0" vol="100" pos="96" key="57"/>
                <note len="-192" pan="0" vol="100" pos="144" key="57"/>
                <note len="-192" pan="0" vol="100" pos="192" key="57"/>
                <note len="-192" pan="0" vol="100" pos="240" key="57"/>
                <note len="-192" pan="0" vol="100" pos="288" key="57"/>
                <note len="-192" pan="0" vol="100" pos="336" key="57"/>
                <note len="-192" pan="0" vol="100" pos="384" key="57"/>
                <note len="-192" pan="0" vol="100" pos="432" key="57"/>
                <note len="-192" pan="0" vol="100" pos="480" key="57"/>
                <note len="-192" pan="0" vol="100" pos="528" key="57"/>
                <note len="-192" pan="0" vol="100" pos="576" key="57"/>
                <note len="-192" pan="0" vol="100" pos="624" key="57"/>
                <note len="-192" pan="0" vol="100" pos="672" key="57"/>
                <note len="-192" pan="0" vol="100" pos="720" key="57"/>
              </pattern>
              <pattern type="0" name="hihat_opened02.ogg" steps="32" pos="2112" muted="0"/>
              <pattern type="0" name="hihat_opened02.ogg" steps="32" pos="2304" muted="0">
                <note len="-192" pan="0" vol="100" pos="48" key="57"/>
                <note len="-192" pan="0" vol="100" pos="96" key="57"/>
                <note len="-192" pan="0" vol="100" pos="144" key="57"/>
                <note len="-192" pan="0" vol="100" pos="240" key="57"/>
                <note len="-192" pan="0" vol="100" pos="288" key="57"/>
                <note len="-192" pan="0" vol="100" pos="336" key="57"/>
              </pattern>
              <pattern type="0" name="hihat_opened02.ogg" steps="32" pos="2496" muted="0">
                <note len="-192" pan="0" vol="100" pos="48" key="57"/>
                <note len="-192" pan="0" vol="100" pos="96" key="57"/>
                <note len="-192" pan="0" vol="100" pos="144" key="57"/>
              </pattern>
              <pattern type="0" name="hihat_opened02.ogg" steps="128" pos="2688" muted="0"/>
              <pattern type="0" name="hihat_opened02.ogg" steps="64" pos="2880" muted="0">
                <note len="-192" pan="0" vol="100" pos="0" key="57"/>
                <note len="-192" pan="0" vol="100" pos="96" key="57"/>
                <note len="-192" pan="0" vol="100" pos="192" key="57"/>
                <note len="-192" pan="0" vol="100" pos="288" key="57"/>
                <note len="-192" pan="0" vol="100" pos="384" key="57"/>
                <note len="-192" pan="0" vol="100" pos="480" key="57"/>
                <note len="-192" pan="0" vol="100" pos="576" key="57"/>
                <note len="-192" pan="0" vol="100" pos="672" key="57"/>
              </pattern>
              <pattern type="0" name="hihat_opened02.ogg" steps="64" pos="3072" muted="0">
                <note len="-192" pan="0" vol="100" pos="0" key="57"/>
                <note len="-192" pan="0" vol="100" pos="96" key="57"/>
                <note len="-192" pan="0" vol="100" pos="192" key="57"/>
                <note len="-192" pan="0" vol="100" pos="288" key="57"/>
                <note len="-192" pan="0" vol="100" pos="384" key="57"/>
                <note len="-192" pan="0" vol="100" pos="432" key="57"/>
                <note len="-192" pan="0" vol="100" pos="480" key="57"/>
                <note len="-192" pan="0" vol="100" pos="528" key="57"/>
                <note len="-192" pan="0" vol="100" pos="576" key="57"/>
                <note len="-192" pan="0" vol="100" pos="624" key="57"/>
              </pattern>
              <pattern type="0" name="hihat_opened02.ogg" steps="16" pos="3264" muted="0"/>
              <pattern type="0" name="hihat_opened02.ogg" steps="32" pos="3456" muted="0"/>
              <pattern type="0" name="hihat_opened02.ogg" steps="16" pos="3648" muted="0"/>
            </track>
            <track type="0" name="snare.wav" muted="0" solo="0">
              <instrumenttrack pitch="0" usemasterpitch="1" pitchrange="1" pan="0" fxch="3" vol="200" basenote="57">
                <instrument name="audiofileprocessor">
                  <audiofileprocessor src="/home/pass/samples/sillydrums/snare.wav" amp="100" looped="0" lframe="0" eframe="1" stutter="0" sframe="0" interp="1" reversed="0"/>
                </instrument>
                <eldata fcut="14000" fres="0.5" fwet="0" ftype="0">
                  <elvol sustain="1" lspd_denominator="4" rel="2" lspd_numerator="4" lspd_syncmode="0" x100="0" pdel="0" amt="1" userwavefile="" hold="2" dec="2" lspd="0.1" lamt="0" latt="0" lpdel="0" ctlenvamt="0" att="0" lshp="0"/>
                  <elcut sustain="0.5" lspd_denominator="4" rel="0.1" lspd_numerator="4" lspd_syncmode="0" x100="0" pdel="0" amt="0" userwavefile="" hold="0.5" dec="0.5" lspd="0.1" lamt="0" latt="0" lpdel="0" ctlenvamt="0" att="0" lshp="0"/>
                  <elres sustain="0.5" lspd_denominator="4" rel="0.1" lspd_numerator="4" lspd_syncmode="0" x100="0" pdel="0" amt="0" userwavefile="" hold="0.5" dec="0.5" lspd="0.1" lamt="0" latt="0" lpdel="0" ctlenvamt="0" att="0" lshp="0"/>
                </eldata>
                <chordcreator chordrange="1" chord="0" chord-enabled="0"/>
                <arpeggiator arpgate="100" arpskip="0" arp-enabled="0" arpmiss="0" arptime_denominator="4" arpdir="0" arpmode="0" arptime_numerator="4" arp="0" arptime="200" arprange="1" arpcycle="0" arptime_syncmode="0"/>
                <midiport fixedinputvelocity="-1" outputcontroller="0" inputchannel="0" outputchannel="1" basevelocity="63" fixedoutputnote="-1" inputcontroller="0" outputprogram="1" readable="0" writable="0" fixedoutputvelocity="-1"/>
                <fxchain numofeffects="0" enabled="0"/>
              </instrumenttrack>
              <pattern type="0" name="snare.wav" steps="128" pos="0" muted="0"/>
              <pattern type="0" name="snare.wav" steps="112" pos="192" muted="0"/>
              <pattern type="0" name="snare.wav" steps="64" pos="384" muted="0"/>
              <pattern type="0" name="snare.wav" steps="64" pos="576" muted="0">
                <note len="-192" pan="0" vol="100" pos="672" key="57"/>
                <note len="-192" pan="0" vol="100" pos="684" key="57"/>
                <note len="-192" pan="0" vol="100" pos="720" key="57"/>
                <note len="-192" pan="0" vol="100" pos="732" key="57"/>
              </pattern>
              <pattern type="0" name="snare.wav" steps="16" pos="768" muted="0"/>
              <pattern type="0" name="snare.wav" steps="64" pos="960" muted="0">
                <note len="-192" pan="0" vol="100" pos="48" key="57"/>
                <note len="-192" pan="0" vol="100" pos="144" key="57"/>
                <note len="-192" pan="0" vol="100" pos="240" key="57"/>
                <note len="-192" pan="0" vol="100" pos="336" key="57"/>
                <note len="-192" pan="0" vol="100" pos="432" key="57"/>
                <note len="-192" pan="0" vol="100" pos="528" key="57"/>
                <note len="-192" pan="0" vol="100" pos="624" key="57"/>
                <note len="-192" pan="0" vol="100" pos="720" key="57"/>
              </pattern>
              <pattern type="0" name="snare.wav" steps="64" pos="1152" muted="0">
                <note len="-192" pan="0" vol="100" pos="24" key="57"/>
                <note len="-192" pan="0" vol="100" pos="72" key="57"/>
                <note len="-192" pan="0" vol="100" pos="120" key="57"/>
                <note len="-192" pan="0" vol="100" pos="168" key="57"/>
                <note len="-192" pan="0" vol="100" pos="216" key="57"/>
                <note len="-192" pan="0" vol="100" pos="264" key="57"/>
                <note len="-192" pan="0" vol="100" pos="312" key="57"/>
                <note len="-192" pan="0" vol="100" pos="360" key="57"/>
                <note len="-192" pan="0" vol="100" pos="408" key="57"/>
                <note len="-192" pan="0" vol="100" pos="456" key="57"/>
                <note len="-192" pan="0" vol="100" pos="504" key="57"/>
                <note len="-192" pan="0" vol="100" pos="552" key="57"/>
                <note len="-192" pan="0" vol="100" pos="600" key="57"/>
                <note len="-192" pan="0" vol="100" pos="648" key="57"/>
                <note len="-192" pan="0" vol="100" pos="696" key="57"/>
                <note len="-192" pan="0" vol="100" pos="744" key="57"/>
              </pattern>
              <pattern type="0" name="snare.wav" steps="16" pos="1344" muted="0">
                <note len="-192" pan="0" vol="100" pos="144" key="57"/>
              </pattern>
              <pattern type="0" name="snare.wav" steps="64" pos="1536" muted="0">
                <note len="-192" pan="0" vol="100" pos="24" key="57"/>
                <note len="-192" pan="0" vol="100" pos="72" key="57"/>
                <note len="-192" pan="0" vol="100" pos="120" key="57"/>
                <note len="-192" pan="0" vol="100" pos="168" key="57"/>
                <note len="-192" pan="0" vol="100" pos="216" key="57"/>
                <note len="-192" pan="0" vol="100" pos="264" key="57"/>
                <note len="-192" pan="0" vol="100" pos="312" key="57"/>
                <note len="-192" pan="0" vol="100" pos="360" key="57"/>
                <note len="-192" pan="0" vol="100" pos="408" key="57"/>
                <note len="-192" pan="0" vol="100" pos="456" key="57"/>
                <note len="-192" pan="0" vol="100" pos="504" key="57"/>
                <note len="-192" pan="0" vol="100" pos="552" key="57"/>
                <note len="-192" pan="0" vol="100" pos="600" key="57"/>
                <note len="-192" pan="0" vol="100" pos="648" key="57"/>
                <note len="-192" pan="0" vol="100" pos="696" key="57"/>
                <note len="-192" pan="0" vol="100" pos="744" key="57"/>
              </pattern>
              <pattern type="0" name="snare.wav" steps="64" pos="1728" muted="0">
                <note len="-192" pan="0" vol="100" pos="24" key="57"/>
                <note len="-192" pan="0" vol="100" pos="72" key="57"/>
                <note len="-192" pan="0" vol="100" pos="120" key="57"/>
                <note len="-192" pan="0" vol="100" pos="168" key="57"/>
                <note len="-192" pan="0" vol="100" pos="216" key="57"/>
                <note len="-192" pan="0" vol="100" pos="264" key="57"/>
                <note len="-192" pan="0" vol="100" pos="312" key="57"/>
                <note len="-192" pan="0" vol="100" pos="360" key="57"/>
                <note len="-192" pan="0" vol="100" pos="408" key="57"/>
                <note len="-192" pan="0" vol="100" pos="456" key="57"/>
                <note len="-192" pan="0" vol="100" pos="504" key="57"/>
                <note len="-192" pan="0" vol="100" pos="552" key="57"/>
                <note len="-192" pan="0" vol="100" pos="576" key="57"/>
                <note len="-192" pan="0" vol="100" pos="648" key="57"/>
                <note len="-192" pan="0" vol="100" pos="720" key="57"/>
              </pattern>
              <pattern type="0" name="snare.wav" steps="64" pos="1920" muted="0">
                <note len="-192" pan="0" vol="100" pos="24" key="57"/>
                <note len="-192" pan="0" vol="100" pos="72" key="57"/>
                <note len="-192" pan="0" vol="100" pos="120" key="57"/>
                <note len="-192" pan="0" vol="100" pos="168" key="57"/>
                <note len="-192" pan="0" vol="100" pos="216" key="57"/>
                <note len="-192" pan="0" vol="100" pos="264" key="57"/>
                <note len="-192" pan="0" vol="100" pos="312" key="57"/>
                <note len="-192" pan="0" vol="100" pos="360" key="57"/>
                <note len="-192" pan="0" vol="100" pos="408" key="57"/>
                <note len="-192" pan="0" vol="100" pos="456" key="57"/>
                <note len="-192" pan="0" vol="100" pos="504" key="57"/>
                <note len="-192" pan="0" vol="100" pos="552" key="57"/>
                <note len="-192" pan="0" vol="100" pos="600" key="57"/>
                <note len="-192" pan="0" vol="100" pos="648" key="57"/>
                <note len="-192" pan="0" vol="100" pos="696" key="57"/>
                <note len="-192" pan="0" vol="100" pos="744" key="57"/>
              </pattern>
              <pattern type="0" name="snare.wav" steps="32" pos="2112" muted="0"/>
              <pattern type="0" name="snare.wav" steps="32" pos="2304" muted="0">
                <note len="-192" pan="0" vol="100" pos="0" key="57"/>
                <note len="-192" pan="0" vol="100" pos="48" key="57"/>
                <note len="-192" pan="0" vol="100" pos="96" key="57"/>
                <note len="-192" pan="0" vol="100" pos="144" key="57"/>
                <note len="-192" pan="0" vol="100" pos="192" key="57"/>
                <note len="-192" pan="0" vol="100" pos="240" key="57"/>
                <note len="-192" pan="0" vol="100" pos="288" key="57"/>
                <note len="-192" pan="0" vol="100" pos="336" key="57"/>
              </pattern>
              <pattern type="0" name="snare.wav" steps="32" pos="2496" muted="0">
                <note len="-192" pan="0" vol="100" pos="0" key="57"/>
                <note len="-192" pan="0" vol="100" pos="48" key="57"/>
                <note len="-192" pan="0" vol="100" pos="96" key="57"/>
                <note len="-192" pan="0" vol="100" pos="144" key="57"/>
                <note len="-192" pan="0" vol="100" pos="192" key="57"/>
                <note len="-192" pan="0" vol="100" pos="240" key="57"/>
                <note len="-192" pan="0" vol="100" pos="288" key="57"/>
                <note len="-192" pan="0" vol="100" pos="300" key="57"/>
                <note len="-192" pan="0" vol="100" pos="312" key="57"/>
                <note len="-192" pan="0" vol="100" pos="324" key="57"/>
                <note len="-192" pan="0" vol="100" pos="336" key="57"/>
                <note len="-192" pan="0" vol="100" pos="348" key="57"/>
                <note len="-192" pan="0" vol="100" pos="360" key="57"/>
                <note len="-192" pan="0" vol="100" pos="372" key="57"/>
              </pattern>
              <pattern type="0" name="snare.wav" steps="128" pos="2688" muted="0"/>
              <pattern type="0" name="snare.wav" steps="64" pos="2880" muted="0">
                <note len="-192" pan="0" vol="100" pos="48" key="57"/>
                <note len="-192" pan="0" vol="100" pos="144" key="57"/>
                <note len="-192" pan="0" vol="100" pos="240" key="57"/>
                <note len="-192" pan="0" vol="100" pos="336" key="57"/>
                <note len="-192" pan="0" vol="100" pos="432" key="57"/>
                <note len="-192" pan="0" vol="100" pos="528" key="57"/>
                <note len="-192" pan="0" vol="100" pos="624" key="57"/>
                <note len="-192" pan="0" vol="100" pos="720" key="57"/>
              </pattern>
              <pattern type="0" name="snare.wav" steps="64" pos="3072" muted="0">
                <note len="-192" pan="0" vol="100" pos="48" key="57"/>
                <note len="-192" pan="0" vol="100" pos="144" key="57"/>
                <note len="-192" pan="0" vol="100" pos="240" key="57"/>
                <note len="-192" pan="0" vol="100" pos="336" key="57"/>
                <note len="-192" pan="0" vol="100" pos="384" key="57"/>
                <note len="-192" pan="0" vol="100" pos="432" key="57"/>
                <note len="-192" pan="0" vol="100" pos="480" key="57"/>
                <note len="-192" pan="0" vol="100" pos="528" key="57"/>
                <note len="-192" pan="0" vol="100" pos="576" key="57"/>
                <note len="-192" pan="0" vol="100" pos="624" key="57"/>
              </pattern>
              <pattern type="0" name="snare.wav" steps="16" pos="3264" muted="0">
                <note len="-192" pan="0" vol="100" pos="0" key="57"/>
                <note len="-192" pan="0" vol="100" pos="12" key="57"/>
                <note len="-192" pan="0" vol="100" pos="72" key="57"/>
                <note len="-192" pan="0" vol="100" pos="84" key="57"/>
                <note len="-192" pan="0" vol="100" pos="144" key="57"/>
                <note len="-192" pan="0" vol="100" pos="156" key="57"/>
                <note len="-192" pan="0" vol="100" pos="168" key="57"/>
                <note len="-192" pan="0" vol="100" pos="180" key="57"/>
              </pattern>
              <pattern type="0" name="snare.wav" steps="32" pos="3456" muted="0">
                <note len="-192" pan="0" vol="100" pos="0" key="57"/>
                <note len="-192" pan="0" vol="100" pos="12" key="57"/>
                <note len="-192" pan="0" vol="100" pos="24" key="57"/>
                <note len="-192" pan="0" vol="100" pos="36" key="57"/>
                <note len="-192" pan="0" vol="100" pos="48" key="57"/>
                <note len="-192" pan="0" vol="100" pos="60" key="57"/>
                <note len="-192" pan="0" vol="100" pos="72" key="57"/>
                <note len="-192" pan="0" vol="100" pos="84" key="57"/>
                <note len="-192" pan="0" vol="100" pos="96" key="57"/>
                <note len="-192" pan="0" vol="100" pos="108" key="57"/>
                <note len="-192" pan="0" vol="100" pos="144" key="57"/>
                <note len="-192" pan="0" vol="100" pos="156" key="57"/>
                <note len="-192" pan="0" vol="100" pos="336" key="57"/>
              </pattern>
              <pattern type="0" name="snare.wav" steps="16" pos="3648" muted="0">
                <note len="-192" pan="0" vol="100" pos="0" key="57"/>
                <note len="-192" pan="0" vol="100" pos="12" key="57"/>
                <note len="-192" pan="0" vol="100" pos="24" key="57"/>
                <note len="-192" pan="0" vol="100" pos="36" key="57"/>
                <note len="-192" pan="0" vol="100" pos="96" key="57"/>
                <note len="-192" pan="0" vol="100" pos="108" key="57"/>
                <note len="-192" pan="0" vol="100" pos="144" key="57"/>
                <note len="-192" pan="0" vol="100" pos="156" key="57"/>
                <note len="-192" pan="0" vol="100" pos="168" key="57"/>
                <note len="-192" pan="0" vol="100" pos="180" key="57"/>
              </pattern>
            </track>
            <track type="0" name="crash1.wav" muted="0" solo="0">
              <instrumenttrack pitch="0" usemasterpitch="1" pitchrange="1" pan="0" fxch="4" vol="71.2" basenote="57">
                <instrument name="audiofileprocessor">
                  <audiofileprocessor src="/home/pass/samples/sillydrums/crash1.wav" amp="100" looped="0" lframe="0" eframe="1" stutter="0" sframe="0" interp="1" reversed="0"/>
                </instrument>
                <eldata fcut="14000" fres="0.5" fwet="0" ftype="0">
                  <elvol sustain="1" lspd_denominator="4" rel="2" lspd_numerator="4" lspd_syncmode="0" x100="0" pdel="0" amt="1" userwavefile="" hold="2" dec="2" lspd="0.1" lamt="0" latt="0" lpdel="0" ctlenvamt="0" att="0" lshp="0"/>
                  <elcut sustain="0.5" lspd_denominator="4" rel="0.1" lspd_numerator="4" lspd_syncmode="0" x100="0" pdel="0" amt="0" userwavefile="" hold="0.5" dec="0.5" lspd="0.1" lamt="0" latt="0" lpdel="0" ctlenvamt="0" att="0" lshp="0"/>
                  <elres sustain="0.5" lspd_denominator="4" rel="0.1" lspd_numerator="4" lspd_syncmode="0" x100="0" pdel="0" amt="0" userwavefile="" hold="0.5" dec="0.5" lspd="0.1" lamt="0" latt="0" lpdel="0" ctlenvamt="0" att="0" lshp="0"/>
                </eldata>
                <chordcreator chordrange="1" chord="0" chord-enabled="0"/>
                <arpeggiator arpgate="100" arpskip="0" arp-enabled="0" arpmiss="0" arptime_denominator="4" arpdir="0" arpmode="0" arptime_numerator="4" arp="0" arptime="200" arprange="1" arpcycle="0" arptime_syncmode="0"/>
                <midiport fixedinputvelocity="-1" outputcontroller="0" inputchannel="0" outputchannel="1" basevelocity="63" fixedoutputnote="-1" inputcontroller="0" outputprogram="1" readable="0" writable="0" fixedoutputvelocity="-1"/>
                <fxchain numofeffects="0" enabled="0"/>
              </instrumenttrack>
              <pattern type="0" name="crash1.wav" steps="128" pos="0" muted="0">
                <note len="-192" pan="0" vol="100" pos="0" key="57"/>
              </pattern>
              <pattern type="0" name="crash1.wav" steps="112" pos="192" muted="0">
                <note len="-192" pan="0" vol="100" pos="0" key="57"/>
              </pattern>
              <pattern type="0" name="crash1.wav" steps="64" pos="384" muted="0">
                <note len="-192" pan="0" vol="100" pos="0" key="57"/>
              </pattern>
              <pattern type="0" name="crash1.wav" steps="64" pos="576" muted="0">
                <note len="-192" pan="0" vol="100" pos="0" key="57"/>
                <note len="-192" pan="0" vol="100" pos="384" key="57"/>
                <note len="-192" pan="0" vol="100" pos="528" key="57"/>
                <note len="-192" pan="0" vol="100" pos="576" key="57"/>
              </pattern>
              <pattern type="0" name="crash1.wav" steps="16" pos="768" muted="0"/>
              <pattern type="0" name="crash1.wav" steps="64" pos="960" muted="0">
                <note len="-192" pan="0" vol="100" pos="0" key="57"/>
              </pattern>
              <pattern type="0" name="crash1.wav" steps="64" pos="1152" muted="0">
                <note len="-192" pan="0" vol="100" pos="0" key="57"/>
              </pattern>
              <pattern type="0" name="crash1.wav" steps="16" pos="1344" muted="0"/>
              <pattern type="0" name="crash1.wav" steps="64" pos="1536" muted="0">
                <note len="-192" pan="0" vol="100" pos="0" key="57"/>
              </pattern>
              <pattern type="0" name="crash1.wav" steps="64" pos="1728" muted="0">
                <note len="-192" pan="0" vol="100" pos="0" key="57"/>
                <note len="-192" pan="0" vol="100" pos="576" key="57"/>
                <note len="-192" pan="0" vol="100" pos="720" key="57"/>
              </pattern>
              <pattern type="0" name="crash1.wav" steps="64" pos="1920" muted="0">
                <note len="-192" pan="0" vol="100" pos="0" key="57"/>
              </pattern>
              <pattern type="0" name="crash1.wav" steps="32" pos="2112" muted="0"/>
              <pattern type="0" name="crash1.wav" steps="32" pos="2304" muted="0">
                <note len="-192" pan="0" vol="100" pos="0" key="57"/>
              </pattern>
              <pattern type="0" name="crash1.wav" steps="32" pos="2496" muted="0">
                <note len="-192" pan="0" vol="100" pos="0" key="57"/>
              </pattern>
              <pattern type="0" name="crash1.wav" steps="128" pos="2688" muted="0"/>
              <pattern type="0" name="crash1.wav" steps="64" pos="2880" muted="0">
                <note len="-192" pan="0" vol="100" pos="0" key="57"/>
                <note len="-192" pan="0" vol="100" pos="384" key="57"/>
              </pattern>
              <pattern type="0" name="crash1.wav" steps="64" pos="3072" muted="0">
                <note len="-192" pan="0" vol="100" pos="0" key="57"/>
                <note len="-192" pan="0" vol="100" pos="384" key="57"/>
                <note len="-192" pan="0" vol="100" pos="672" key="57"/>
              </pattern>
              <pattern type="0" name="crash1.wav" steps="16" pos="3264" muted="0"/>
              <pattern type="0" name="crash1.wav" steps="32" pos="3456" muted="0"/>
              <pattern type="0" name="crash1.wav" steps="16" pos="3648" muted="0"/>
            </track>
            <track type="0" name="crash1m" muted="0" solo="0">
              <instrumenttrack pitch="0" usemasterpitch="1" pitchrange="1" pan="0" fxch="4" vol="71.2" basenote="57">
                <instrument name="audiofileprocessor">
                  <audiofileprocessor src="/home/pass/samples/sillydrums/crash1.wav" amp="100" looped="0" lframe="0" eframe="1" stutter="0" sframe="0" interp="1" reversed="0"/>
                </instrument>
                <eldata fcut="14000" fres="0.5" fwet="0" ftype="0">
                  <elvol sustain="0" lspd_denominator="4" rel="0.208" lspd_numerator="4" lspd_syncmode="0" x100="0" pdel="0" amt="1" userwavefile="" hold="0.232" dec="0.216" lspd="0.1" lamt="0" latt="0" lpdel="0" ctlenvamt="0" att="0" lshp="0"/>
                  <elcut sustain="0.5" lspd_denominator="4" rel="0.1" lspd_numerator="4" lspd_syncmode="0" x100="0" pdel="0" amt="0" userwavefile="" hold="0.5" dec="0.5" lspd="0.1" lamt="0" latt="0" lpdel="0" ctlenvamt="0" att="0" lshp="0"/>
                  <elres sustain="0.5" lspd_denominator="4" rel="0.1" lspd_numerator="4" lspd_syncmode="0" x100="0" pdel="0" amt="0" userwavefile="" hold="0.5" dec="0.5" lspd="0.1" lamt="0" latt="0" lpdel="0" ctlenvamt="0" att="0" lshp="0"/>
                </eldata>
                <chordcreator chordrange="1" chord="0" chord-enabled="0"/>
                <arpeggiator arpgate="100" arpskip="0" arp-enabled="0" arpmiss="0" arptime_denominator="4" arpdir="0" arpmode="0" arptime_numerator="4" arp="0" arptime="200" arprange="1" arpcycle="0" arptime_syncmode="0"/>
                <midiport fixedinputvelocity="-1" outputcontroller="0" inputchannel="0" outputchannel="1" basevelocity="63" fixedoutputnote="-1" inputcontroller="0" outputprogram="1" readable="0" writable="0" fixedoutputvelocity="-1"/>
                <fxchain numofeffects="0" enabled="0"/>
              </instrumenttrack>
              <pattern type="0" name="crash1m" steps="128" pos="0" muted="0"/>
              <pattern type="0" name="crash1m" steps="112" pos="192" muted="0"/>
              <pattern type="0" name="crash1m" steps="64" pos="384" muted="0"/>
              <pattern type="0" name="crash1m" steps="64" pos="576" muted="0"/>
              <pattern type="0" name="crash1m" steps="16" pos="768" muted="0">
                <note len="-192" pan="0" vol="100" pos="0" key="57"/>
              </pattern>
              <pattern type="0" name="crash1m" steps="64" pos="960" muted="0"/>
              <pattern type="0" name="crash1m" steps="64" pos="1152" muted="0"/>
              <pattern type="0" name="crash1m" steps="16" pos="1344" muted="0">
                <note len="-192" pan="0" vol="100" pos="0" key="57"/>
                <note len="-192" pan="0" vol="100" pos="48" key="57"/>
                <note len="-192" pan="0" vol="100" pos="96" key="57"/>
              </pattern>
              <pattern type="0" name="crash1m" steps="64" pos="1536" muted="0"/>
              <pattern type="0" name="crash1m" steps="64" pos="1728" muted="0"/>
              <pattern type="0" name="crash1m" steps="64" pos="1920" muted="0"/>
              <pattern type="0" name="crash1m" steps="32" pos="2112" muted="0">
                <note len="-192" pan="0" vol="100" pos="0" key="57"/>
              </pattern>
              <pattern type="0" name="crash1m" steps="32" pos="2304" muted="0"/>
              <pattern type="0" name="crash1m" steps="32" pos="2496" muted="0"/>
              <pattern type="0" name="crash1m" steps="128" pos="2688" muted="0">
                <note len="-192" pan="0" vol="100" pos="0" key="57"/>
                <note len="-192" pan="0" vol="100" pos="48" key="57"/>
                <note len="-192" pan="0" vol="100" pos="96" key="57"/>
                <note len="-192" pan="0" vol="100" pos="144" key="57"/>
                <note len="-192" pan="0" vol="100" pos="192" key="57"/>
                <note len="-192" pan="0" vol="100" pos="240" key="57"/>
                <note len="-192" pan="0" vol="100" pos="288" key="57"/>
                <note len="-192" pan="0" vol="100" pos="336" key="57"/>
                <note len="-192" pan="0" vol="100" pos="384" key="57"/>
                <note len="-192" pan="0" vol="100" pos="432" key="57"/>
                <note len="-192" pan="0" vol="100" pos="480" key="57"/>
                <note len="-192" pan="0" vol="100" pos="528" key="57"/>
                <note len="-192" pan="0" vol="100" pos="576" key="57"/>
                <note len="-192" pan="0" vol="100" pos="624" key="57"/>
                <note len="-192" pan="0" vol="100" pos="768" key="57"/>
                <note len="-192" pan="0" vol="100" pos="816" key="57"/>
                <note len="-192" pan="0" vol="100" pos="864" key="57"/>
                <note len="-192" pan="0" vol="100" pos="912" key="57"/>
                <note len="-192" pan="0" vol="100" pos="960" key="57"/>
                <note len="-192" pan="0" vol="100" pos="1008" key="57"/>
                <note len="-192" pan="0" vol="100" pos="1056" key="57"/>
                <note len="-192" pan="0" vol="100" pos="1104" key="57"/>
                <note len="-192" pan="0" vol="100" pos="1152" key="57"/>
                <note len="-192" pan="0" vol="100" pos="1200" key="57"/>
                <note len="-192" pan="0" vol="100" pos="1248" key="57"/>
                <note len="-192" pan="0" vol="100" pos="1296" key="57"/>
                <note len="-192" pan="0" vol="100" pos="1344" key="57"/>
                <note len="-192" pan="0" vol="100" pos="1392" key="57"/>
                <note len="-192" pan="0" vol="100" pos="1440" key="57"/>
              </pattern>
              <pattern type="0" name="crash1m" steps="64" pos="2880" muted="0"/>
              <pattern type="0" name="crash1m" steps="64" pos="3072" muted="0"/>
              <pattern type="0" name="crash1m" steps="16" pos="3264" muted="0"/>
              <pattern type="0" name="crash1m" steps="32" pos="3456" muted="0">
                <note len="-192" pan="0" vol="100" pos="192" key="57"/>
                <note len="-192" pan="0" vol="100" pos="240" key="57"/>
                <note len="-192" pan="0" vol="100" pos="288" key="57"/>
              </pattern>
              <pattern type="0" name="crash1m" steps="16" pos="3648" muted="0"/>
            </track>
            <track type="0" name="crash2.wav" muted="0" solo="0">
              <instrumenttrack pitch="0" usemasterpitch="1" pitchrange="1" pan="28" fxch="5" vol="76.8" basenote="57">
                <instrument name="audiofileprocessor">
                  <audiofileprocessor src="/home/pass/samples/sillydrums/crash2.wav" amp="100" looped="0" lframe="0" eframe="1" stutter="0" sframe="0" interp="1" reversed="0"/>
                </instrument>
                <eldata fcut="14000" fres="0.5" fwet="0" ftype="0">
                  <elvol sustain="1" lspd_denominator="4" rel="2" lspd_numerator="4" lspd_syncmode="0" x100="0" pdel="0" amt="1" userwavefile="" hold="2" dec="2" lspd="0.1" lamt="0" latt="0" lpdel="0" ctlenvamt="0" att="0" lshp="0"/>
                  <elcut sustain="0.5" lspd_denominator="4" rel="0.1" lspd_numerator="4" lspd_syncmode="0" x100="0" pdel="0" amt="0" userwavefile="" hold="0.5" dec="0.5" lspd="0.1" lamt="0" latt="0" lpdel="0" ctlenvamt="0" att="0" lshp="0"/>
                  <elres sustain="0.5" lspd_denominator="4" rel="0.1" lspd_numerator="4" lspd_syncmode="0" x100="0" pdel="0" amt="0" userwavefile="" hold="0.5" dec="0.5" lspd="0.1" lamt="0" latt="0" lpdel="0" ctlenvamt="0" att="0" lshp="0"/>
                </eldata>
                <chordcreator chordrange="1" chord="0" chord-enabled="0"/>
                <arpeggiator arpgate="100" arpskip="0" arp-enabled="0" arpmiss="0" arptime_denominator="4" arpdir="0" arpmode="0" arptime_numerator="4" arp="0" arptime="200" arprange="1" arpcycle="0" arptime_syncmode="0"/>
                <midiport fixedinputvelocity="-1" outputcontroller="0" inputchannel="0" outputchannel="1" basevelocity="63" fixedoutputnote="-1" inputcontroller="0" outputprogram="1" readable="0" writable="0" fixedoutputvelocity="-1"/>
                <fxchain numofeffects="0" enabled="0"/>
              </instrumenttrack>
              <pattern type="0" name="crash2.wav" steps="128" pos="0" muted="0">
                <note len="-192" pan="0" vol="100" pos="768" key="57"/>
              </pattern>
              <pattern type="0" name="crash2.wav" steps="112" pos="192" muted="0">
                <note len="-192" pan="0" vol="100" pos="768" key="57"/>
              </pattern>
              <pattern type="0" name="crash2.wav" steps="64" pos="384" muted="0">
                <note len="-192" pan="0" vol="100" pos="384" key="57"/>
              </pattern>
              <pattern type="0" name="crash2.wav" steps="64" pos="576" muted="0">
                <note len="-192" pan="0" vol="100" pos="456" key="57"/>
              </pattern>
              <pattern type="0" name="crash2.wav" steps="16" pos="768" muted="0"/>
              <pattern type="0" name="crash2.wav" steps="64" pos="960" muted="0">
                <note len="-192" pan="0" vol="100" pos="384" key="57"/>
              </pattern>
              <pattern type="0" name="crash2.wav" steps="64" pos="1152" muted="0">
                <note len="-192" pan="0" vol="100" pos="384" key="57"/>
              </pattern>
              <pattern type="0" name="crash2.wav" steps="16" pos="1344" muted="0"/>
              <pattern type="0" name="crash2.wav" steps="64" pos="1536" muted="0">
                <note len="-192" pan="0" vol="100" pos="384" key="57"/>
              </pattern>
              <pattern type="0" name="crash2.wav" steps="64" pos="1728" muted="0">
                <note len="-192" pan="0" vol="100" pos="384" key="57"/>
                <note len="-192" pan="0" vol="100" pos="648" key="57"/>
              </pattern>
              <pattern type="0" name="crash2.wav" steps="64" pos="1920" muted="0">
                <note len="-192" pan="0" vol="100" pos="384" key="57"/>
              </pattern>
              <pattern type="0" name="crash2.wav" steps="32" pos="2112" muted="0"/>
              <pattern type="0" name="crash2.wav" steps="32" pos="2304" muted="0">
                <note len="-192" pan="0" vol="100" pos="192" key="57"/>
              </pattern>
              <pattern type="0" name="crash2.wav" steps="32" pos="2496" muted="0"/>
              <pattern type="0" name="crash2.wav" steps="128" pos="2688" muted="0"/>
              <pattern type="0" name="crash2.wav" steps="64" pos="2880" muted="0">
                <note len="-192" pan="0" vol="100" pos="552" key="57"/>
              </pattern>
              <pattern type="0" name="crash2.wav" steps="64" pos="3072" muted="0">
                <note len="-192" pan="0" vol="100" pos="552" key="57"/>
                <note len="-192" pan="0" vol="100" pos="720" key="57"/>
              </pattern>
              <pattern type="0" name="crash2.wav" steps="16" pos="3264" muted="0"/>
              <pattern type="0" name="crash2.wav" steps="32" pos="3456" muted="0"/>
              <pattern type="0" name="crash2.wav" steps="16" pos="3648" muted="0"/>
            </track>
            <track type="0" name="china.wav" muted="0" solo="0">
              <instrumenttrack pitch="0" usemasterpitch="1" pitchrange="1" pan="0" fxch="6" vol="130.4" basenote="57">
                <instrument name="audiofileprocessor">
                  <audiofileprocessor src="/home/pass/samples/sillydrums/china.wav" amp="100" looped="0" lframe="0" eframe="1" stutter="0" sframe="0" interp="1" reversed="0"/>
                </instrument>
                <eldata fcut="14000" fres="0.5" fwet="0" ftype="0">
                  <elvol sustain="1" lspd_denominator="4" rel="2" lspd_numerator="4" lspd_syncmode="0" x100="0" pdel="0" amt="1" userwavefile="" hold="2" dec="2" lspd="0.1" lamt="0" latt="0" lpdel="0" ctlenvamt="0" att="0" lshp="0"/>
                  <elcut sustain="0.5" lspd_denominator="4" rel="0.1" lspd_numerator="4" lspd_syncmode="0" x100="0" pdel="0" amt="0" userwavefile="" hold="0.5" dec="0.5" lspd="0.1" lamt="0" latt="0" lpdel="0" ctlenvamt="0" att="0" lshp="0"/>
                  <elres sustain="0.5" lspd_denominator="4" rel="0.1" lspd_numerator="4" lspd_syncmode="0" x100="0" pdel="0" amt="0" userwavefile="" hold="0.5" dec="0.5" lspd="0.1" lamt="0" latt="0" lpdel="0" ctlenvamt="0" att="0" lshp="0"/>
                </eldata>
                <chordcreator chordrange="1" chord="0" chord-enabled="0"/>
                <arpeggiator arpgate="100" arpskip="0" arp-enabled="0" arpmiss="0" arptime_denominator="4" arpdir="0" arpmode="0" arptime_numerator="4" arp="0" arptime="200" arprange="1" arpcycle="0" arptime_syncmode="0"/>
                <midiport fixedinputvelocity="-1" outputcontroller="0" inputchannel="0" outputchannel="1" basevelocity="63" fixedoutputnote="-1" inputcontroller="0" outputprogram="1" readable="0" writable="0" fixedoutputvelocity="-1"/>
                <fxchain numofeffects="0" enabled="0"/>
              </instrumenttrack>
              <pattern type="0" name="china.wav" steps="128" pos="0" muted="0"/>
              <pattern type="0" name="china.wav" steps="112" pos="192" muted="0"/>
              <pattern type="0" name="china.wav" steps="64" pos="384" muted="0"/>
              <pattern type="0" name="china.wav" steps="64" pos="576" muted="0"/>
              <pattern type="0" name="china.wav" steps="16" pos="768" muted="0"/>
              <pattern type="0" name="china.wav" steps="64" pos="960" muted="0"/>
              <pattern type="0" name="china.wav" steps="64" pos="1152" muted="0"/>
              <pattern type="0" name="china.wav" steps="16" pos="1344" muted="0"/>
              <pattern type="0" name="china.wav" steps="64" pos="1536" muted="0"/>
              <pattern type="0" name="china.wav" steps="64" pos="1728" muted="0"/>
              <pattern type="0" name="china.wav" steps="64" pos="1920" muted="0"/>
              <pattern type="0" name="china.wav" steps="32" pos="2112" muted="0"/>
              <pattern type="0" name="china.wav" steps="32" pos="2304" muted="0"/>
              <pattern type="0" name="china.wav" steps="32" pos="2496" muted="0"/>
              <pattern type="0" name="china.wav" steps="128" pos="2688" muted="0">
                <note len="-192" pan="0" vol="100" pos="672" key="57"/>
                <note len="-192" pan="0" vol="100" pos="720" key="57"/>
              </pattern>
              <pattern type="0" name="china.wav" steps="64" pos="2880" muted="0"/>
              <pattern type="0" name="china.wav" steps="64" pos="3072" muted="0"/>
              <pattern type="0" name="china.wav" steps="16" pos="3264" muted="0"/>
              <pattern type="0" name="china.wav" steps="32" pos="3456" muted="0"/>
              <pattern type="0" name="china.wav" steps="16" pos="3648" muted="0"/>
            </track>
            <track type="0" name="hiTom.wav" muted="0" solo="0">
              <instrumenttrack pitch="0" usemasterpitch="1" pitchrange="1" pan="0" fxch="7" vol="130.4" basenote="57">
                <instrument name="audiofileprocessor">
                  <audiofileprocessor src="/home/pass/samples/sillydrums/hiTom.wav" amp="100" looped="0" lframe="0" eframe="1" stutter="0" sframe="0" interp="1" reversed="0"/>
                </instrument>
                <eldata fcut="14000" fres="0.5" fwet="0" ftype="0">
                  <elvol sustain="1" lspd_denominator="4" rel="2" lspd_numerator="4" lspd_syncmode="0" x100="0" pdel="0" amt="1" userwavefile="" hold="2" dec="2" lspd="0.1" lamt="0" latt="0" lpdel="0" ctlenvamt="0" att="0" lshp="0"/>
                  <elcut sustain="0.5" lspd_denominator="4" rel="0.1" lspd_numerator="4" lspd_syncmode="0" x100="0" pdel="0" amt="0" userwavefile="" hold="0.5" dec="0.5" lspd="0.1" lamt="0" latt="0" lpdel="0" ctlenvamt="0" att="0" lshp="0"/>
                  <elres sustain="0.5" lspd_denominator="4" rel="0.1" lspd_numerator="4" lspd_syncmode="0" x100="0" pdel="0" amt="0" userwavefile="" hold="0.5" dec="0.5" lspd="0.1" lamt="0" latt="0" lpdel="0" ctlenvamt="0" att="0" lshp="0"/>
                </eldata>
                <chordcreator chordrange="1" chord="0" chord-enabled="0"/>
                <arpeggiator arpgate="100" arpskip="0" arp-enabled="0" arpmiss="0" arptime_denominator="4" arpdir="0" arpmode="0" arptime_numerator="4" arp="0" arptime="200" arprange="1" arpcycle="0" arptime_syncmode="0"/>
                <midiport fixedinputvelocity="-1" outputcontroller="0" inputchannel="0" outputchannel="1" basevelocity="63" fixedoutputnote="-1" inputcontroller="0" outputprogram="1" readable="0" writable="0" fixedoutputvelocity="-1"/>
                <fxchain numofeffects="0" enabled="0"/>
              </instrumenttrack>
              <pattern type="0" name="hiTom.wav" steps="128" pos="0" muted="0"/>
              <pattern type="0" name="hiTom.wav" steps="112" pos="192" muted="0"/>
              <pattern type="0" name="hiTom.wav" steps="64" pos="384" muted="0"/>
              <pattern type="0" name="hiTom.wav" steps="64" pos="576" muted="0">
                <note len="-192" pan="0" vol="100" pos="600" key="57"/>
                <note len="-192" pan="0" vol="100" pos="612" key="57"/>
              </pattern>
              <pattern type="0" name="hiTom.wav" steps="16" pos="768" muted="0"/>
              <pattern type="0" name="hiTom.wav" steps="64" pos="960" muted="0"/>
              <pattern type="0" name="hiTom.wav" steps="64" pos="1152" muted="0"/>
              <pattern type="0" name="hiTom.wav" steps="16" pos="1344" muted="0"/>
              <pattern type="0" name="hiTom.wav" steps="64" pos="1536" muted="0"/>
              <pattern type="0" name="hiTom.wav" steps="64" pos="1728" muted="0"/>
              <pattern type="0" name="hiTom.wav" steps="64" pos="1920" muted="0"/>
              <pattern type="0" name="hiTom.wav" steps="32" pos="2112" muted="0"/>
              <pattern type="0" name="hiTom.wav" steps="32" pos="2304" muted="0"/>
              <pattern type="0" name="hiTom.wav" steps="32" pos="2496" muted="0">
                <note len="-192" pan="0" vol="100" pos="204" key="57"/>
                <note len="-192" pan="0" vol="100" pos="252" key="57"/>
              </pattern>
              <pattern type="0" name="hiTom.wav" steps="128" pos="2688" muted="0"/>
              <pattern type="0" name="hiTom.wav" steps="64" pos="2880" muted="0"/>
              <pattern type="0" name="hiTom.wav" steps="64" pos="3072" muted="0"/>
              <pattern type="0" name="hiTom.wav" steps="16" pos="3264" muted="0">
                <note len="-192" pan="0" vol="100" pos="24" key="57"/>
                <note len="-192" pan="0" vol="100" pos="36" key="57"/>
              </pattern>
              <pattern type="0" name="hiTom.wav" steps="32" pos="3456" muted="0">
                <note len="-192" pan="0" vol="100" pos="120" key="57"/>
                <note len="-192" pan="0" vol="100" pos="132" key="57"/>
              </pattern>
              <pattern type="0" name="hiTom.wav" steps="16" pos="3648" muted="0">
                <note len="-192" pan="0" vol="100" pos="48" key="57"/>
                <note len="-192" pan="0" vol="100" pos="60" key="57"/>
              </pattern>
            </track>
            <track type="0" name="midTom.wav" muted="0" solo="0">
              <instrumenttrack pitch="0" usemasterpitch="1" pitchrange="1" pan="0" fxch="8" vol="130.4" basenote="57">
                <instrument name="audiofileprocessor">
                  <audiofileprocessor src="/home/pass/samples/sillydrums/midTom.wav" amp="100" looped="0" lframe="0" eframe="1" stutter="0" sframe="0" interp="1" reversed="0"/>
                </instrument>
                <eldata fcut="14000" fres="0.5" fwet="0" ftype="0">
                  <elvol sustain="1" lspd_denominator="4" rel="2" lspd_numerator="4" lspd_syncmode="0" x100="0" pdel="0" amt="1" userwavefile="" hold="2" dec="2" lspd="0.1" lamt="0" latt="0" lpdel="0" ctlenvamt="0" att="0" lshp="0"/>
                  <elcut sustain="0.5" lspd_denominator="4" rel="0.1" lspd_numerator="4" lspd_syncmode="0" x100="0" pdel="0" amt="0" userwavefile="" hold="0.5" dec="0.5" lspd="0.1" lamt="0" latt="0" lpdel="0" ctlenvamt="0" att="0" lshp="0"/>
                  <elres sustain="0.5" lspd_denominator="4" rel="0.1" lspd_numerator="4" lspd_syncmode="0" x100="0" pdel="0" amt="0" userwavefile="" hold="0.5" dec="0.5" lspd="0.1" lamt="0" latt="0" lpdel="0" ctlenvamt="0" att="0" lshp="0"/>
                </eldata>
                <chordcreator chordrange="1" chord="0" chord-enabled="0"/>
                <arpeggiator arpgate="100" arpskip="0" arp-enabled="0" arpmiss="0" arptime_denominator="4" arpdir="0" arpmode="0" arptime_numerator="4" arp="0" arptime="200" arprange="1" arpcycle="0" arptime_syncmode="0"/>
                <midiport fixedinputvelocity="-1" outputcontroller="0" inputchannel="0" outputchannel="1" basevelocity="63" fixedoutputnote="-1" inputcontroller="0" outputprogram="1" readable="0" writable="0" fixedoutputvelocity="-1"/>
                <fxchain numofeffects="0" enabled="0"/>
              </instrumenttrack>
              <pattern type="0" name="midTom.wav" steps="128" pos="0" muted="0"/>
              <pattern type="0" name="midTom.wav" steps="112" pos="192" muted="0"/>
              <pattern type="0" name="midTom.wav" steps="64" pos="384" muted="0"/>
              <pattern type="0" name="midTom.wav" steps="64" pos="576" muted="0">
                <note len="-192" pan="0" vol="100" pos="624" key="57"/>
                <note len="-192" pan="0" vol="100" pos="636" key="57"/>
                <note len="-192" pan="0" vol="100" pos="696" key="57"/>
                <note len="-192" pan="0" vol="100" pos="708" key="57"/>
              </pattern>
              <pattern type="0" name="midTom.wav" steps="16" pos="768" muted="0"/>
              <pattern type="0" name="midTom.wav" steps="64" pos="960" muted="0"/>
              <pattern type="0" name="midTom.wav" steps="64" pos="1152" muted="0"/>
              <pattern type="0" name="midTom.wav" steps="16" pos="1344" muted="0">
                <note len="-192" pan="0" vol="100" pos="156" key="57"/>
                <note len="-192" pan="0" vol="100" pos="168" key="57"/>
                <note len="-192" pan="0" vol="100" pos="180" key="57"/>
              </pattern>
              <pattern type="0" name="midTom.wav" steps="64" pos="1536" muted="0"/>
              <pattern type="0" name="midTom.wav" steps="64" pos="1728" muted="0"/>
              <pattern type="0" name="midTom.wav" steps="64" pos="1920" muted="0"/>
              <pattern type="0" name="midTom.wav" steps="32" pos="2112" muted="0"/>
              <pattern type="0" name="midTom.wav" steps="32" pos="2304" muted="0"/>
              <pattern type="0" name="midTom.wav" steps="32" pos="2496" muted="0">
                <note len="-192" pan="0" vol="100" pos="216" key="57"/>
                <note len="-192" pan="0" vol="100" pos="264" key="57"/>
              </pattern>
              <pattern type="0" name="midTom.wav" steps="128" pos="2688" muted="0"/>
              <pattern type="0" name="midTom.wav" steps="64" pos="2880" muted="0"/>
              <pattern type="0" name="midTom.wav" steps="64" pos="3072" muted="0"/>
              <pattern type="0" name="midTom.wav" steps="16" pos="3264" muted="0">
                <note len="-192" pan="0" vol="100" pos="48" key="57"/>
                <note len="-192" pan="0" vol="100" pos="60" key="57"/>
                <note len="-192" pan="0" vol="100" pos="96" key="57"/>
                <note len="-192" pan="0" vol="100" pos="108" key="57"/>
              </pattern>
              <pattern type="0" name="midTom.wav" steps="32" pos="3456" muted="0">
                <note len="-192" pan="0" vol="100" pos="168" key="57"/>
                <note len="-192" pan="0" vol="100" pos="180" key="57"/>
                <note len="-192" pan="0" vol="100" pos="348" key="57"/>
              </pattern>
              <pattern type="0" name="midTom.wav" steps="16" pos="3648" muted="0">
                <note len="-192" pan="0" vol="100" pos="72" key="57"/>
                <note len="-192" pan="0" vol="100" pos="84" key="57"/>
              </pattern>
            </track>
            <track type="0" name="loTom.wav" muted="0" solo="0">
              <instrumenttrack pitch="0" usemasterpitch="1" pitchrange="1" pan="0" fxch="9" vol="130.4" basenote="57">
                <instrument name="audiofileprocessor">
                  <audiofileprocessor src="/home/pass/samples/sillydrums/loTom.wav" amp="100" looped="0" lframe="0" eframe="1" stutter="0" sframe="0" interp="1" reversed="0"/>
                </instrument>
                <eldata fcut="14000" fres="0.5" fwet="0" ftype="0">
                  <elvol sustain="1" lspd_denominator="4" rel="2" lspd_numerator="4" lspd_syncmode="0" x100="0" pdel="0" amt="1" userwavefile="" hold="2" dec="2" lspd="0.1" lamt="0" latt="0" lpdel="0" ctlenvamt="0" att="0" lshp="0"/>
                  <elcut sustain="0.5" lspd_denominator="4" rel="0.1" lspd_numerator="4" lspd_syncmode="0" x100="0" pdel="0" amt="0" userwavefile="" hold="0.5" dec="0.5" lspd="0.1" lamt="0" latt="0" lpdel="0" ctlenvamt="0" att="0" lshp="0"/>
                  <elres sustain="0.5" lspd_denominator="4" rel="0.1" lspd_numerator="4" lspd_syncmode="0" x100="0" pdel="0" amt="0" userwavefile="" hold="0.5" dec="0.5" lspd="0.1" lamt="0" latt="0" lpdel="0" ctlenvamt="0" att="0" lshp="0"/>
                </eldata>
                <chordcreator chordrange="1" chord="0" chord-enabled="0"/>
                <arpeggiator arpgate="100" arpskip="0" arp-enabled="0" arpmiss="0" arptime_denominator="4" arpdir="0" arpmode="0" arptime_numerator="4" arp="0" arptime="200" arprange="1" arpcycle="0" arptime_syncmode="0"/>
                <midiport fixedinputvelocity="-1" outputcontroller="0" inputchannel="0" outputchannel="1" basevelocity="63" fixedoutputnote="-1" inputcontroller="0" outputprogram="1" readable="0" writable="0" fixedoutputvelocity="-1"/>
                <fxchain numofeffects="0" enabled="0"/>
              </instrumenttrack>
              <pattern type="0" name="loTom.wav" steps="128" pos="0" muted="0"/>
              <pattern type="0" name="loTom.wav" steps="112" pos="192" muted="0">
                <note len="-192" pan="0" vol="100" pos="1320" key="57"/>
                <note len="-192" pan="0" vol="100" pos="1332" key="57"/>
              </pattern>
              <pattern type="0" name="loTom.wav" steps="64" pos="384" muted="0"/>
              <pattern type="0" name="loTom.wav" steps="64" pos="576" muted="0">
                <note len="-192" pan="0" vol="100" pos="648" key="57"/>
                <note len="-192" pan="0" vol="100" pos="660" key="57"/>
                <note len="-192" pan="0" vol="100" pos="744" key="57"/>
                <note len="-192" pan="0" vol="100" pos="756" key="57"/>
              </pattern>
              <pattern type="0" name="loTom.wav" steps="16" pos="768" muted="0"/>
              <pattern type="0" name="loTom.wav" steps="64" pos="960" muted="0"/>
              <pattern type="0" name="loTom.wav" steps="64" pos="1152" muted="0"/>
              <pattern type="0" name="loTom.wav" steps="16" pos="1344" muted="0"/>
              <pattern type="0" name="loTom.wav" steps="64" pos="1536" muted="0"/>
              <pattern type="0" name="loTom.wav" steps="64" pos="1728" muted="0"/>
              <pattern type="0" name="loTom.wav" steps="64" pos="1920" muted="0"/>
              <pattern type="0" name="loTom.wav" steps="32" pos="2112" muted="0"/>
              <pattern type="0" name="loTom.wav" steps="32" pos="2304" muted="0"/>
              <pattern type="0" name="loTom.wav" steps="32" pos="2496" muted="0">
                <note len="-192" pan="0" vol="100" pos="228" key="57"/>
                <note len="-192" pan="0" vol="100" pos="276" key="57"/>
              </pattern>
              <pattern type="0" name="loTom.wav" steps="128" pos="2688" muted="0"/>
              <pattern type="0" name="loTom.wav" steps="64" pos="2880" muted="0"/>
              <pattern type="0" name="loTom.wav" steps="64" pos="3072" muted="0"/>
              <pattern type="0" name="loTom.wav" steps="16" pos="3264" muted="0">
                <note len="-192" pan="0" vol="100" pos="120" key="57"/>
                <note len="-192" pan="0" vol="100" pos="132" key="57"/>
              </pattern>
              <pattern type="0" name="loTom.wav" steps="32" pos="3456" muted="0">
                <note len="-192" pan="0" vol="100" pos="360" key="57"/>
                <note len="-192" pan="0" vol="100" pos="372" key="57"/>
              </pattern>
              <pattern type="0" name="loTom.wav" steps="16" pos="3648" muted="0">
                <note len="-192" pan="0" vol="100" pos="120" key="57"/>
                <note len="-192" pan="0" vol="100" pos="132" key="57"/>
              </pattern>
            </track>
            <track type="0" name="hihat_opened02.ogg" muted="0" solo="0">
              <instrumenttrack pitch="0" usemasterpitch="1" pitchrange="1" pan="0" fxch="0" vol="100" basenote="57">
                <instrument name="audiofileprocessor">
                  <audiofileprocessor src="drums/hihat_opened02.ogg" amp="100" looped="0" lframe="0" eframe="1" stutter="0" sframe="0" interp="1" reversed="0"/>
                </instrument>
                <eldata fcut="14000" fres="0.5" fwet="0" ftype="0">
                  <elvol sustain="0.5" lspd_denominator="4" rel="0.1" lspd_numerator="4" lspd_syncmode="0" x100="0" pdel="0" amt="0" userwavefile="" hold="0.5" dec="0.5" lspd="0.1" lamt="0" latt="0" lpdel="0" ctlenvamt="0" att="0" lshp="0"/>
                  <elcut sustain="0.5" lspd_denominator="4" rel="0.1" lspd_numerator="4" lspd_syncmode="0" x100="0" pdel="0" amt="0" userwavefile="" hold="0.5" dec="0.5" lspd="0.1" lamt="0" latt="0" lpdel="0" ctlenvamt="0" att="0" lshp="0"/>
                  <elres sustain="0.5" lspd_denominator="4" rel="0.1" lspd_numerator="4" lspd_syncmode="0" x100="0" pdel="0" amt="0" userwavefile="" hold="0.5" dec="0.5" lspd="0.1" lamt="0" latt="0" lpdel="0" ctlenvamt="0" att="0" lshp="0"/>
                </eldata>
                <chordcreator chordrange="1" chord="0" chord-enabled="0"/>
                <arpeggiator arpgate="100" arpskip="0" arp-enabled="0" arpmiss="0" arptime_denominator="4" arpdir="0" arpmode="0" arptime_numerator="4" arp="0" arptime="200" arprange="1" arpcycle="0" arptime_syncmode="0"/>
                <midiport fixedinputvelocity="-1" outputcontroller="0" inputchannel="0" outputchannel="1" basevelocity="63" fixedoutputnote="-1" inputcontroller="0" outputprogram="1" readable="0" writable="0" fixedoutputvelocity="-1"/>
                <fxchain numofeffects="0" enabled="0"/>
              </instrumenttrack>
              <pattern type="0" name="hihat_opened02.ogg" steps="128" pos="0" muted="0"/>
              <pattern type="0" name="hihat_opened02.ogg" steps="112" pos="192" muted="0"/>
              <pattern type="0" name="hihat_opened02.ogg" steps="64" pos="384" muted="0"/>
              <pattern type="0" name="hihat_opened02.ogg" steps="64" pos="576" muted="0"/>
              <pattern type="0" name="hihat_opened02.ogg" steps="16" pos="768" muted="0"/>
              <pattern type="0" name="hihat_opened02.ogg" steps="64" pos="960" muted="0"/>
              <pattern type="0" name="hihat_opened02.ogg" steps="64" pos="1152" muted="0"/>
              <pattern type="0" name="hihat_opened02.ogg" steps="16" pos="1344" muted="0"/>
              <pattern type="0" name="hihat_opened02.ogg" steps="64" pos="1536" muted="0"/>
              <pattern type="0" name="hihat_opened02.ogg" steps="64" pos="1728" muted="0"/>
              <pattern type="0" name="hihat_opened02.ogg" steps="64" pos="1920" muted="0"/>
              <pattern type="0" name="hihat_opened02.ogg" steps="32" pos="2112" muted="0"/>
              <pattern type="0" name="hihat_opened02.ogg" steps="32" pos="2304" muted="0"/>
              <pattern type="0" name="hihat_opened02.ogg" steps="32" pos="2496" muted="0"/>
              <pattern type="0" name="hihat_opened02.ogg" steps="128" pos="2688" muted="0"/>
              <pattern type="0" name="hihat_opened02.ogg" steps="64" pos="2880" muted="0"/>
              <pattern type="0" name="hihat_opened02.ogg" steps="64" pos="3072" muted="0"/>
              <pattern type="0" name="hihat_opened02.ogg" steps="16" pos="3264" muted="0"/>
              <pattern type="0" name="hihat_opened02.ogg" steps="32" pos="3456" muted="0"/>
              <pattern type="0" name="hihat_opened02.ogg" steps="16" pos="3648" muted="0"/>
            </track>
          </trackcontainer>
        </bbtrack>
        <bbtco len="1536" name="" usestyle="1" pos="6144" muted="0" color="4286611584"/>
        <bbtco len="768" name="" usestyle="1" pos="46080" muted="0" color="4286611584"/>
      </track>
      <track type="1" name="Clone of intro1" muted="0" solo="0">
        <bbtrack/>
        <bbtco len="1344" name="" usestyle="1" pos="7680" muted="0" color="4286611584"/>
      </track>
      <track type="1" name="Clone of Clone of intro1" muted="0" solo="0">
        <bbtrack/>
        <bbtco len="768" name="" usestyle="1" pos="38400" muted="0" color="4286611584"/>
      </track>
      <track type="1" name="Clone of Clone of Clone of intro1" muted="0" solo="0">
        <bbtrack/>
        <bbtco len="768" name="" usestyle="1" pos="39168" muted="0" color="4286611584"/>
      </track>
      <track type="1" name="Clone of Clone of intro1" muted="0" solo="0">
        <bbtrack/>
        <bbtco len="192" name="" usestyle="1" pos="9024" muted="0" color="4286611584"/>
      </track>
      <track type="1" name="intro2" muted="0" solo="0">
        <bbtrack/>
      </track>
      <track type="1" name="bootcamp1" muted="0" solo="0">
        <bbtrack/>
        <bbtco len="2880" name="" usestyle="1" pos="15360" muted="0" color="4286611584"/>
        <bbtco len="2880" name="" usestyle="1" pos="25344" muted="0" color="4286611584"/>
        <bbtco len="1536" name="" usestyle="1" pos="41472" muted="0" color="4286611584"/>
        <bbtco len="1344" name="" usestyle="1" pos="44544" muted="0" color="4286611584"/>
      </track>
      <track type="1" name="fill1" muted="0" solo="0">
        <bbtrack/>
        <bbtco len="192" name="" usestyle="1" pos="22080" muted="0" color="4286611584"/>
        <bbtco len="192" name="" usestyle="1" pos="18240" muted="0" color="4286611584"/>
        <bbtco len="192" name="" usestyle="1" pos="28224" muted="0" color="4286611584"/>
        <bbtco len="192" name="" usestyle="1" pos="32064" muted="0" color="4286611584"/>
      </track>
      <track type="1" name="Clone of bootcamp1" muted="0" solo="0">
        <bbtrack/>
        <bbtco len="3072" name="" usestyle="1" pos="18432" muted="0" color="4286611584"/>
        <bbtco len="576" name="" usestyle="1" pos="21504" muted="0" color="4286611584"/>
        <bbtco len="3648" name="" usestyle="1" pos="28416" muted="0" color="4286611584"/>
        <bbtco len="2688" name="" usestyle="1" pos="35328" muted="0" color="4286611584"/>
        <bbtco len="1536" name="" usestyle="1" pos="39936" muted="0" color="4286611584"/>
        <bbtco len="1536" name="" usestyle="1" pos="43008" muted="0" color="4286611584"/>
      </track>
      <track type="1" name="Clone of Clone of bootcamp1" muted="0" solo="0">
        <bbtrack/>
        <bbtco len="2880" name="" usestyle="1" pos="12288" muted="0" color="4286611584"/>
        <bbtco len="3072" name="" usestyle="1" pos="22272" muted="0" color="4286611584"/>
      </track>
      <track type="1" name="Clone of Clone of bootcamp1" muted="0" solo="0">
        <bbtrack/>
        <bbtco len="3072" name="" usestyle="1" pos="9216" muted="0" color="4286611584"/>
      </track>
      <track type="1" name="kick/mutecrash" muted="0" solo="0">
        <bbtrack/>
      </track>
      <track type="1" name="Beat/Bassline 6" muted="0" solo="0">
        <bbtrack/>
      </track>
      <track type="1" name="Clone of Beat/Bassline 6" muted="0" solo="0">
        <bbtrack/>
      </track>
      <track type="1" name="Beat/Bassline 11" muted="0" solo="0">
        <bbtrack/>
        <bbtco len="1536" name="" usestyle="1" pos="32256" muted="0" color="4286611584"/>
      </track>
      <track type="1" name="Beat/Bassline 13" muted="0" solo="0">
        <bbtrack/>
        <bbtco len="768" name="" usestyle="1" pos="33792" muted="0" color="4286611584"/>
      </track>
      <track type="1" name="Clone of Beat/Bassline 13" muted="0" solo="0">
        <bbtrack/>
        <bbtco len="768" name="" usestyle="1" pos="34560" muted="0" color="4286611584"/>
      </track>
      <track type="1" name="Beat/Bassline 17" muted="0" solo="0">
        <bbtrack/>
        <bbtco len="192" name="" usestyle="1" pos="15168" muted="0" color="4286611584"/>
      </track>
      <track type="1" name="Beat/Bassline 18" muted="0" solo="0">
        <bbtrack/>
        <bbtco len="384" name="" usestyle="1" pos="38016" muted="0" color="4286611584"/>
      </track>
      <track type="0" name="bass fender jazz (1,379kb)" muted="0" solo="0">
        <instrumenttrack pitch="0" usemasterpitch="1" pitchrange="1" pan="0" fxch="14" vol="113.6" basenote="81">
          <instrument name="sf2player">
            <sf2player src="/home/pass/samples/soundfonts/bass fender jazz (1,379kb).sf2" patch="0" chorusNum="0.9" reverbRoomSize="0.2" chorusLevel="2" gain="1" chorusDepth="8" bank="0" chorusOn="0" chorusSpeed="0.3" reverbLevel="0.9" reverbOn="0" reverbDamping="0.2" reverbWidth="0.5"/>
          </instrument>
          <eldata fcut="14000" fres="0.5" fwet="0" ftype="0">
            <elvol sustain="0.5" lspd_denominator="4" rel="0.1" lspd_numerator="4" lspd_syncmode="0" x100="0" pdel="0" amt="0" userwavefile="" hold="0.5" dec="0.5" lspd="0.1" lamt="0" latt="0" lpdel="0" ctlenvamt="0" att="0" lshp="0"/>
            <elcut sustain="0.5" lspd_denominator="4" rel="0.1" lspd_numerator="4" lspd_syncmode="0" x100="0" pdel="0" amt="0" userwavefile="" hold="0.5" dec="0.5" lspd="0.1" lamt="0" latt="0" lpdel="0" ctlenvamt="0" att="0" lshp="0"/>
            <elres sustain="0.5" lspd_denominator="4" rel="0.1" lspd_numerator="4" lspd_syncmode="0" x100="0" pdel="0" amt="0" userwavefile="" hold="0.5" dec="0.5" lspd="0.1" lamt="0" latt="0" lpdel="0" ctlenvamt="0" att="0" lshp="0"/>
          </eldata>
          <chordcreator chordrange="1" chord="0" chord-enabled="0"/>
          <arpeggiator arpgate="100" arpskip="0" arp-enabled="0" arpmiss="0" arptime_denominator="4" arpdir="0" arpmode="0" arptime_numerator="4" arp="0" arptime="200" arprange="1" arpcycle="0" arptime_syncmode="0"/>
          <midiport fixedinputvelocity="-1" outputcontroller="0" inputchannel="0" outputchannel="1" basevelocity="63" fixedoutputnote="-1" inputcontroller="0" outputprogram="1" readable="0" writable="0" fixedoutputvelocity="-1"/>
          <fxchain numofeffects="1" enabled="1">
            <effect name="eq" autoquit_syncmode="0" autoquit_denominator="4" autoquit_numerator="4" autoquit="1" wet="1" on="0" gate="0">
              <Eq Peak1bw="0.3" Peak3bw="3.001" Peak2bw="0.3" AnalyseIn="1" AnalyseOut="1" Peak3gain="18" HP24="0" LPactive="0" Peak4active="0" LP24="0" HP12="1" HP48="0" HPactive="1" HighShelfres="1.4" LP12="1" Peak1active="0" LPres="0.707" Peak3active="0" Peak4gain="18" Highshelfactive="0" HP="0" LowShelfres="1.4" Lowshelfgain="0.54" Outputgain="0" LP48="0" HPres="0.707" HighShelfgain="0" Lowshelfactive="0" LP="0" Peak2gain="0" Peak4bw="1.637" Peak2active="0">
                <Inputgain id="4374760" value="0" scale_type="log"/>
                <Peak1gain id="2651294" value="0" scale_type="log"/>
                <HPfreq id="2669995" value="77.8685" scale_type="log"/>
                <LowShelffreq id="7887485" value="260.87" scale_type="log"/>
                <Peak1freq id="475330" value="114.599" scale_type="log"/>
                <Peak2freq id="4378443" value="530.404" scale_type="log"/>
                <Peak3freq id="2229967" value="5101.49" scale_type="log"/>
                <Peak4freq id="3501645" value="5354.6" scale_type="log"/>
                <Highshelffreq id="1168207" value="12000" scale_type="log"/>
                <LPfreq id="6653457" value="18000" scale_type="log"/>
              </Eq>
              <key/>
            </effect>
          </fxchain>
        </instrumenttrack>
        <pattern type="1" name="bass fender jazz (1,379kb)" steps="16" pos="6144" muted="0">
          <note len="384" pan="0" vol="200" pos="0" key="35"/>
          <note len="384" pan="0" vol="200" pos="384" key="35"/>
        </pattern>
        <pattern type="1" name="bass fender jazz (1,379kb)" steps="16" pos="6912" muted="0">
          <note len="384" pan="0" vol="200" pos="0" key="43"/>
          <note len="384" pan="0" vol="200" pos="384" key="43"/>
        </pattern>
        <pattern type="1" name="bass fender jazz (1,379kb)" steps="16" pos="7680" muted="0">
          <note len="384" pan="0" vol="200" pos="0" key="35"/>
          <note len="384" pan="0" vol="200" pos="384" key="35"/>
        </pattern>
        <pattern type="1" name="bass fender jazz (1,379kb)" steps="16" pos="8448" muted="0">
          <note len="384" pan="0" vol="200" pos="0" key="43"/>
          <note len="192" pan="0" vol="200" pos="384" key="43"/>
          <note len="48" pan="0" vol="200" pos="576" key="43"/>
        </pattern>
        <pattern type="1" name="bass fender jazz (1,379kb)" steps="16" pos="9216" muted="0">
          <note len="384" pan="0" vol="200" pos="0" key="35"/>
          <note len="384" pan="0" vol="200" pos="384" key="35"/>
        </pattern>
        <pattern type="1" name="bass fender jazz (1,379kb)" steps="16" pos="9984" muted="0">
          <note len="384" pan="0" vol="200" pos="0" key="43"/>
          <note len="384" pan="0" vol="200" pos="384" key="43"/>
        </pattern>
        <pattern type="1" name="bass fender jazz (1,379kb)" steps="16" pos="10752" muted="0">
          <note len="384" pan="0" vol="200" pos="0" key="35"/>
          <note len="384" pan="0" vol="200" pos="384" key="35"/>
        </pattern>
        <pattern type="1" name="bass fender jazz (1,379kb)" steps="16" pos="11520" muted="0">
          <note len="384" pan="0" vol="200" pos="0" key="43"/>
          <note len="384" pan="0" vol="200" pos="384" key="45"/>
        </pattern>
        <pattern type="1" name="bass fender jazz (1,379kb)" steps="16" pos="12288" muted="0">
          <note len="72" pan="0" vol="200" pos="0" key="38"/>
          <note len="72" pan="0" vol="200" pos="72" key="38"/>
          <note len="48" pan="0" vol="200" pos="144" key="38"/>
          <note len="72" pan="0" vol="200" pos="192" key="38"/>
          <note len="72" pan="0" vol="200" pos="264" key="38"/>
          <note len="48" pan="0" vol="200" pos="336" key="38"/>
          <note len="72" pan="0" vol="200" pos="384" key="43"/>
          <note len="72" pan="0" vol="200" pos="456" key="43"/>
          <note len="48" pan="0" vol="200" pos="528" key="43"/>
          <note len="72" pan="0" vol="200" pos="576" key="45"/>
          <note len="72" pan="0" vol="200" pos="648" key="43"/>
          <note len="48" pan="0" vol="200" pos="720" key="45"/>
        </pattern>
        <pattern type="1" name="bass fender jazz (1,379kb)" steps="16" pos="13056" muted="0">
          <note len="72" pan="0" vol="200" pos="0" key="38"/>
          <note len="72" pan="0" vol="200" pos="72" key="38"/>
          <note len="48" pan="0" vol="200" pos="144" key="38"/>
          <note len="72" pan="0" vol="200" pos="192" key="38"/>
          <note len="72" pan="0" vol="200" pos="264" key="38"/>
          <note len="48" pan="0" vol="200" pos="336" key="38"/>
          <note len="72" pan="0" vol="200" pos="384" key="43"/>
          <note len="72" pan="0" vol="200" pos="456" key="43"/>
          <note len="48" pan="0" vol="200" pos="528" key="43"/>
          <note len="72" pan="0" vol="200" pos="576" key="45"/>
          <note len="72" pan="0" vol="200" pos="648" key="43"/>
          <note len="48" pan="0" vol="200" pos="720" key="45"/>
        </pattern>
        <pattern type="1" name="bass fender jazz (1,379kb)" steps="16" pos="13824" muted="0">
          <note len="72" pan="0" vol="200" pos="0" key="38"/>
          <note len="72" pan="0" vol="200" pos="72" key="38"/>
          <note len="48" pan="0" vol="200" pos="144" key="38"/>
          <note len="72" pan="0" vol="200" pos="192" key="38"/>
          <note len="72" pan="0" vol="200" pos="264" key="38"/>
          <note len="48" pan="0" vol="200" pos="336" key="38"/>
          <note len="72" pan="0" vol="200" pos="384" key="43"/>
          <note len="72" pan="0" vol="200" pos="456" key="43"/>
          <note len="48" pan="0" vol="200" pos="528" key="43"/>
          <note len="72" pan="0" vol="200" pos="576" key="45"/>
          <note len="72" pan="0" vol="200" pos="648" key="43"/>
          <note len="48" pan="0" vol="200" pos="720" key="45"/>
        </pattern>
        <pattern type="1" name="bass fender jazz (1,379kb)" steps="16" pos="14592" muted="0">
          <note len="72" pan="0" vol="200" pos="0" key="38"/>
          <note len="72" pan="0" vol="200" pos="72" key="38"/>
          <note len="48" pan="0" vol="200" pos="144" key="38"/>
          <note len="72" pan="0" vol="200" pos="192" key="38"/>
          <note len="72" pan="0" vol="200" pos="264" key="38"/>
          <note len="48" pan="0" vol="200" pos="336" key="38"/>
          <note len="72" pan="0" vol="200" pos="384" key="43"/>
          <note len="72" pan="0" vol="200" pos="456" key="43"/>
          <note len="48" pan="0" vol="200" pos="528" key="43"/>
          <note len="72" pan="0" vol="200" pos="576" key="45"/>
          <note len="72" pan="0" vol="200" pos="648" key="43"/>
          <note len="48" pan="0" vol="200" pos="720" key="45"/>
        </pattern>
        <pattern type="1" name="bass fender jazz (1,379kb)" steps="16" pos="15360" muted="0">
          <note len="24" pan="0" vol="200" pos="0" key="35"/>
          <note len="12" pan="0" vol="200" pos="24" key="35"/>
          <note len="12" pan="0" vol="200" pos="36" key="35"/>
          <note len="12" pan="0" vol="200" pos="48" key="35"/>
          <note len="12" pan="0" vol="200" pos="60" key="35"/>
          <note len="24" pan="0" vol="200" pos="72" key="35"/>
          <note len="12" pan="0" vol="200" pos="96" key="35"/>
          <note len="12" pan="0" vol="200" pos="108" key="35"/>
          <note len="12" pan="0" vol="200" pos="120" key="35"/>
          <note len="12" pan="0" vol="200" pos="132" key="35"/>
          <note len="24" pan="0" vol="200" pos="144" key="35"/>
          <note len="12" pan="0" vol="200" pos="168" key="35"/>
          <note len="12" pan="0" vol="200" pos="180" key="35"/>
          <note len="24" pan="0" vol="200" pos="192" key="35"/>
          <note len="12" pan="0" vol="200" pos="216" key="35"/>
          <note len="12" pan="0" vol="200" pos="228" key="35"/>
          <note len="12" pan="0" vol="200" pos="240" key="35"/>
          <note len="12" pan="0" vol="200" pos="252" key="35"/>
          <note len="24" pan="0" vol="200" pos="264" key="35"/>
          <note len="12" pan="0" vol="200" pos="288" key="35"/>
          <note len="12" pan="0" vol="200" pos="300" key="35"/>
          <note len="12" pan="0" vol="200" pos="312" key="35"/>
          <note len="12" pan="0" vol="200" pos="324" key="35"/>
          <note len="24" pan="0" vol="200" pos="336" key="35"/>
          <note len="12" pan="0" vol="200" pos="360" key="35"/>
          <note len="12" pan="0" vol="200" pos="372" key="35"/>
        </pattern>
        <pattern type="1" name="bass fender jazz (1,379kb)" steps="16" pos="15744" muted="0">
          <note len="24" pan="0" vol="200" pos="0" key="43"/>
          <note len="12" pan="0" vol="200" pos="24" key="43"/>
          <note len="12" pan="0" vol="200" pos="36" key="43"/>
          <note len="12" pan="0" vol="200" pos="48" key="43"/>
          <note len="12" pan="0" vol="200" pos="60" key="43"/>
          <note len="24" pan="0" vol="200" pos="72" key="43"/>
          <note len="12" pan="0" vol="200" pos="96" key="43"/>
          <note len="12" pan="0" vol="200" pos="108" key="43"/>
          <note len="12" pan="0" vol="200" pos="120" key="43"/>
          <note len="12" pan="0" vol="200" pos="132" key="43"/>
          <note len="24" pan="0" vol="200" pos="144" key="43"/>
          <note len="12" pan="0" vol="200" pos="168" key="43"/>
          <note len="12" pan="0" vol="200" pos="180" key="43"/>
          <note len="24" pan="0" vol="200" pos="192" key="43"/>
          <note len="12" pan="0" vol="200" pos="216" key="43"/>
          <note len="12" pan="0" vol="200" pos="228" key="43"/>
          <note len="12" pan="0" vol="200" pos="240" key="43"/>
          <note len="12" pan="0" vol="200" pos="252" key="43"/>
          <note len="24" pan="0" vol="200" pos="264" key="43"/>
          <note len="12" pan="0" vol="200" pos="288" key="43"/>
          <note len="12" pan="0" vol="200" pos="300" key="43"/>
          <note len="12" pan="0" vol="200" pos="312" key="43"/>
          <note len="12" pan="0" vol="200" pos="324" key="43"/>
          <note len="24" pan="0" vol="200" pos="336" key="43"/>
          <note len="12" pan="0" vol="200" pos="360" key="43"/>
          <note len="12" pan="0" vol="200" pos="372" key="43"/>
        </pattern>
        <pattern type="1" name="bass fender jazz (1,379kb)" steps="16" pos="16128" muted="0">
          <note len="24" pan="0" vol="200" pos="0" key="45"/>
          <note len="12" pan="0" vol="200" pos="24" key="45"/>
          <note len="12" pan="0" vol="200" pos="36" key="45"/>
          <note len="12" pan="0" vol="200" pos="48" key="45"/>
          <note len="12" pan="0" vol="200" pos="60" key="45"/>
          <note len="24" pan="0" vol="200" pos="72" key="45"/>
          <note len="12" pan="0" vol="200" pos="96" key="45"/>
          <note len="12" pan="0" vol="200" pos="108" key="45"/>
          <note len="12" pan="0" vol="200" pos="120" key="45"/>
          <note len="12" pan="0" vol="200" pos="132" key="45"/>
          <note len="24" pan="0" vol="200" pos="144" key="45"/>
          <note len="12" pan="0" vol="200" pos="168" key="45"/>
          <note len="12" pan="0" vol="200" pos="180" key="45"/>
          <note len="24" pan="0" vol="200" pos="192" key="45"/>
          <note len="12" pan="0" vol="200" pos="216" key="45"/>
          <note len="12" pan="0" vol="200" pos="228" key="45"/>
          <note len="12" pan="0" vol="200" pos="240" key="45"/>
          <note len="12" pan="0" vol="200" pos="252" key="45"/>
          <note len="24" pan="0" vol="200" pos="264" key="45"/>
          <note len="12" pan="0" vol="200" pos="288" key="45"/>
          <note len="12" pan="0" vol="200" pos="300" key="45"/>
          <note len="12" pan="0" vol="200" pos="312" key="45"/>
          <note len="12" pan="0" vol="200" pos="324" key="45"/>
          <note len="24" pan="0" vol="200" pos="336" key="45"/>
          <note len="12" pan="0" vol="200" pos="360" key="45"/>
          <note len="12" pan="0" vol="200" pos="372" key="45"/>
        </pattern>
        <pattern type="1" name="bass fender jazz (1,379kb)" steps="16" pos="16512" muted="0">
          <note len="24" pan="0" vol="200" pos="0" key="38"/>
          <note len="12" pan="0" vol="200" pos="24" key="38"/>
          <note len="12" pan="0" vol="200" pos="36" key="38"/>
          <note len="12" pan="0" vol="200" pos="48" key="38"/>
          <note len="12" pan="0" vol="200" pos="60" key="38"/>
          <note len="24" pan="0" vol="200" pos="72" key="38"/>
          <note len="12" pan="0" vol="200" pos="96" key="38"/>
          <note len="12" pan="0" vol="200" pos="108" key="38"/>
          <note len="12" pan="0" vol="200" pos="120" key="38"/>
          <note len="12" pan="0" vol="200" pos="132" key="38"/>
          <note len="24" pan="0" vol="200" pos="144" key="38"/>
          <note len="12" pan="0" vol="200" pos="168" key="38"/>
          <note len="12" pan="0" vol="200" pos="180" key="38"/>
          <note len="24" pan="0" vol="200" pos="192" key="38"/>
          <note len="12" pan="0" vol="200" pos="216" key="38"/>
          <note len="12" pan="0" vol="200" pos="228" key="38"/>
          <note len="12" pan="0" vol="200" pos="240" key="38"/>
          <note len="12" pan="0" vol="200" pos="252" key="38"/>
          <note len="24" pan="0" vol="200" pos="264" key="38"/>
          <note len="12" pan="0" vol="200" pos="288" key="38"/>
          <note len="12" pan="0" vol="200" pos="300" key="38"/>
          <note len="12" pan="0" vol="200" pos="312" key="38"/>
          <note len="12" pan="0" vol="200" pos="324" key="38"/>
          <note len="24" pan="0" vol="200" pos="336" key="38"/>
          <note len="12" pan="0" vol="200" pos="360" key="38"/>
          <note len="12" pan="0" vol="200" pos="372" key="38"/>
        </pattern>
        <pattern type="1" name="bass fender jazz (1,379kb)" steps="16" pos="16896" muted="0">
          <note len="24" pan="0" vol="200" pos="0" key="35"/>
          <note len="12" pan="0" vol="200" pos="24" key="35"/>
          <note len="12" pan="0" vol="200" pos="36" key="35"/>
          <note len="12" pan="0" vol="200" pos="48" key="35"/>
          <note len="12" pan="0" vol="200" pos="60" key="35"/>
          <note len="24" pan="0" vol="200" pos="72" key="35"/>
          <note len="12" pan="0" vol="200" pos="96" key="35"/>
          <note len="12" pan="0" vol="200" pos="108" key="35"/>
          <note len="12" pan="0" vol="200" pos="120" key="35"/>
          <note len="12" pan="0" vol="200" pos="132" key="35"/>
          <note len="24" pan="0" vol="200" pos="144" key="35"/>
          <note len="12" pan="0" vol="200" pos="168" key="35"/>
          <note len="12" pan="0" vol="200" pos="180" key="35"/>
          <note len="24" pan="0" vol="200" pos="192" key="35"/>
          <note len="12" pan="0" vol="200" pos="216" key="35"/>
          <note len="12" pan="0" vol="200" pos="228" key="35"/>
          <note len="12" pan="0" vol="200" pos="240" key="35"/>
          <note len="12" pan="0" vol="200" pos="252" key="35"/>
          <note len="24" pan="0" vol="200" pos="264" key="35"/>
          <note len="12" pan="0" vol="200" pos="288" key="35"/>
          <note len="12" pan="0" vol="200" pos="300" key="35"/>
          <note len="12" pan="0" vol="200" pos="312" key="35"/>
          <note len="12" pan="0" vol="200" pos="324" key="35"/>
          <note len="24" pan="0" vol="200" pos="336" key="35"/>
          <note len="12" pan="0" vol="200" pos="360" key="35"/>
          <note len="12" pan="0" vol="200" pos="372" key="35"/>
        </pattern>
        <pattern type="1" name="bass fender jazz (1,379kb)" steps="16" pos="17280" muted="0">
          <note len="24" pan="0" vol="200" pos="0" key="43"/>
          <note len="12" pan="0" vol="200" pos="24" key="43"/>
          <note len="12" pan="0" vol="200" pos="36" key="43"/>
          <note len="12" pan="0" vol="200" pos="48" key="43"/>
          <note len="12" pan="0" vol="200" pos="60" key="43"/>
          <note len="24" pan="0" vol="200" pos="72" key="43"/>
          <note len="12" pan="0" vol="200" pos="96" key="43"/>
          <note len="12" pan="0" vol="200" pos="108" key="43"/>
          <note len="12" pan="0" vol="200" pos="120" key="43"/>
          <note len="12" pan="0" vol="200" pos="132" key="43"/>
          <note len="24" pan="0" vol="200" pos="144" key="43"/>
          <note len="12" pan="0" vol="200" pos="168" key="43"/>
          <note len="12" pan="0" vol="200" pos="180" key="43"/>
          <note len="24" pan="0" vol="200" pos="192" key="43"/>
          <note len="12" pan="0" vol="200" pos="216" key="43"/>
          <note len="12" pan="0" vol="200" pos="228" key="43"/>
          <note len="12" pan="0" vol="200" pos="240" key="43"/>
          <note len="12" pan="0" vol="200" pos="252" key="43"/>
          <note len="24" pan="0" vol="200" pos="264" key="43"/>
          <note len="12" pan="0" vol="200" pos="288" key="43"/>
          <note len="12" pan="0" vol="200" pos="300" key="43"/>
          <note len="12" pan="0" vol="200" pos="312" key="43"/>
          <note len="12" pan="0" vol="200" pos="324" key="43"/>
          <note len="24" pan="0" vol="200" pos="336" key="43"/>
          <note len="12" pan="0" vol="200" pos="360" key="43"/>
          <note len="12" pan="0" vol="200" pos="372" key="43"/>
        </pattern>
        <pattern type="1" name="bass fender jazz (1,379kb)" steps="16" pos="17664" muted="0">
          <note len="24" pan="0" vol="200" pos="0" key="45"/>
          <note len="12" pan="0" vol="200" pos="24" key="45"/>
          <note len="12" pan="0" vol="200" pos="36" key="45"/>
          <note len="12" pan="0" vol="200" pos="48" key="45"/>
          <note len="12" pan="0" vol="200" pos="60" key="45"/>
          <note len="24" pan="0" vol="200" pos="72" key="45"/>
          <note len="12" pan="0" vol="200" pos="96" key="45"/>
          <note len="12" pan="0" vol="200" pos="108" key="45"/>
          <note len="12" pan="0" vol="200" pos="120" key="45"/>
          <note len="12" pan="0" vol="200" pos="132" key="45"/>
          <note len="24" pan="0" vol="200" pos="144" key="45"/>
          <note len="12" pan="0" vol="200" pos="168" key="45"/>
          <note len="12" pan="0" vol="200" pos="180" key="45"/>
          <note len="24" pan="0" vol="200" pos="192" key="45"/>
          <note len="12" pan="0" vol="200" pos="216" key="45"/>
          <note len="12" pan="0" vol="200" pos="228" key="45"/>
          <note len="12" pan="0" vol="200" pos="240" key="45"/>
          <note len="12" pan="0" vol="200" pos="252" key="45"/>
          <note len="24" pan="0" vol="200" pos="264" key="45"/>
          <note len="12" pan="0" vol="200" pos="288" key="45"/>
          <note len="12" pan="0" vol="200" pos="300" key="45"/>
          <note len="12" pan="0" vol="200" pos="312" key="45"/>
          <note len="12" pan="0" vol="200" pos="324" key="45"/>
          <note len="24" pan="0" vol="200" pos="336" key="45"/>
          <note len="12" pan="0" vol="200" pos="360" key="45"/>
          <note len="12" pan="0" vol="200" pos="372" key="45"/>
        </pattern>
        <pattern type="1" name="bass fender jazz (1,379kb)" steps="16" pos="18048" muted="0">
          <note len="24" pan="0" vol="200" pos="0" key="45"/>
          <note len="12" pan="0" vol="200" pos="24" key="45"/>
          <note len="12" pan="0" vol="200" pos="36" key="45"/>
          <note len="12" pan="0" vol="200" pos="48" key="45"/>
          <note len="12" pan="0" vol="200" pos="60" key="45"/>
          <note len="24" pan="0" vol="200" pos="72" key="45"/>
          <note len="12" pan="0" vol="200" pos="96" key="45"/>
          <note len="12" pan="0" vol="200" pos="108" key="45"/>
          <note len="12" pan="0" vol="200" pos="120" key="45"/>
          <note len="12" pan="0" vol="200" pos="132" key="45"/>
          <note len="24" pan="0" vol="200" pos="144" key="45"/>
          <note len="12" pan="0" vol="200" pos="168" key="45"/>
          <note len="12" pan="0" vol="200" pos="180" key="45"/>
          <note len="30" pan="0" vol="200" pos="192" key="45"/>
          <note len="30" pan="0" vol="200" pos="240" key="45"/>
          <note len="30" pan="0" vol="200" pos="288" key="45"/>
          <note len="30" pan="0" vol="200" pos="336" key="45"/>
        </pattern>
        <pattern type="1" name="bass fender jazz (1,379kb)" steps="16" pos="18432" muted="0">
          <note len="384" pan="0" vol="200" pos="0" key="38"/>
          <note len="384" pan="0" vol="200" pos="384" key="45"/>
          <note len="384" pan="0" vol="200" pos="768" key="43"/>
          <note len="192" pan="0" vol="200" pos="1152" key="38"/>
          <note len="192" pan="0" vol="200" pos="1344" key="45"/>
        </pattern>
        <pattern type="1" name="bass fender jazz (1,379kb)" steps="16" pos="19968" muted="0">
          <note len="384" pan="0" vol="200" pos="0" key="38"/>
          <note len="384" pan="0" vol="200" pos="384" key="45"/>
          <note len="384" pan="0" vol="200" pos="768" key="43"/>
          <note len="192" pan="0" vol="200" pos="1152" key="38"/>
          <note len="192" pan="0" vol="200" pos="1344" key="45"/>
        </pattern>
        <pattern type="1" name="bass fender jazz (1,379kb)" steps="16" pos="22272" muted="0">
          <note len="72" pan="0" vol="200" pos="0" key="38"/>
          <note len="72" pan="0" vol="200" pos="72" key="38"/>
          <note len="48" pan="0" vol="200" pos="144" key="38"/>
          <note len="72" pan="0" vol="200" pos="192" key="38"/>
          <note len="72" pan="0" vol="200" pos="264" key="38"/>
          <note len="48" pan="0" vol="200" pos="336" key="38"/>
          <note len="72" pan="0" vol="200" pos="384" key="43"/>
          <note len="72" pan="0" vol="200" pos="456" key="43"/>
          <note len="48" pan="0" vol="200" pos="528" key="43"/>
          <note len="72" pan="0" vol="200" pos="576" key="45"/>
          <note len="72" pan="0" vol="200" pos="648" key="43"/>
          <note len="48" pan="0" vol="200" pos="720" key="45"/>
        </pattern>
        <pattern type="1" name="bass fender jazz (1,379kb)" steps="16" pos="25344" muted="0">
          <note len="24" pan="0" vol="200" pos="0" key="35"/>
          <note len="12" pan="0" vol="200" pos="24" key="35"/>
          <note len="12" pan="0" vol="200" pos="36" key="35"/>
          <note len="12" pan="0" vol="200" pos="48" key="35"/>
          <note len="12" pan="0" vol="200" pos="60" key="35"/>
          <note len="24" pan="0" vol="200" pos="72" key="35"/>
          <note len="12" pan="0" vol="200" pos="96" key="35"/>
          <note len="12" pan="0" vol="200" pos="108" key="35"/>
          <note len="12" pan="0" vol="200" pos="120" key="35"/>
          <note len="12" pan="0" vol="200" pos="132" key="35"/>
          <note len="24" pan="0" vol="200" pos="144" key="35"/>
          <note len="12" pan="0" vol="200" pos="168" key="35"/>
          <note len="12" pan="0" vol="200" pos="180" key="35"/>
          <note len="24" pan="0" vol="200" pos="192" key="35"/>
          <note len="12" pan="0" vol="200" pos="216" key="35"/>
          <note len="12" pan="0" vol="200" pos="228" key="35"/>
          <note len="12" pan="0" vol="200" pos="240" key="35"/>
          <note len="12" pan="0" vol="200" pos="252" key="35"/>
          <note len="24" pan="0" vol="200" pos="264" key="35"/>
          <note len="12" pan="0" vol="200" pos="288" key="35"/>
          <note len="12" pan="0" vol="200" pos="300" key="35"/>
          <note len="12" pan="0" vol="200" pos="312" key="35"/>
          <note len="12" pan="0" vol="200" pos="324" key="35"/>
          <note len="24" pan="0" vol="200" pos="336" key="35"/>
          <note len="12" pan="0" vol="200" pos="360" key="35"/>
          <note len="12" pan="0" vol="200" pos="372" key="35"/>
        </pattern>
        <pattern type="1" name="bass fender jazz (1,379kb)" steps="16" pos="25728" muted="0">
          <note len="24" pan="0" vol="200" pos="0" key="43"/>
          <note len="12" pan="0" vol="200" pos="24" key="43"/>
          <note len="12" pan="0" vol="200" pos="36" key="43"/>
          <note len="12" pan="0" vol="200" pos="48" key="43"/>
          <note len="12" pan="0" vol="200" pos="60" key="43"/>
          <note len="24" pan="0" vol="200" pos="72" key="43"/>
          <note len="12" pan="0" vol="200" pos="96" key="43"/>
          <note len="12" pan="0" vol="200" pos="108" key="43"/>
          <note len="12" pan="0" vol="200" pos="120" key="43"/>
          <note len="12" pan="0" vol="200" pos="132" key="43"/>
          <note len="24" pan="0" vol="200" pos="144" key="43"/>
          <note len="12" pan="0" vol="200" pos="168" key="43"/>
          <note len="12" pan="0" vol="200" pos="180" key="43"/>
          <note len="24" pan="0" vol="200" pos="192" key="43"/>
          <note len="12" pan="0" vol="200" pos="216" key="43"/>
          <note len="12" pan="0" vol="200" pos="228" key="43"/>
          <note len="12" pan="0" vol="200" pos="240" key="43"/>
          <note len="12" pan="0" vol="200" pos="252" key="43"/>
          <note len="24" pan="0" vol="200" pos="264" key="43"/>
          <note len="12" pan="0" vol="200" pos="288" key="43"/>
          <note len="12" pan="0" vol="200" pos="300" key="43"/>
          <note len="12" pan="0" vol="200" pos="312" key="43"/>
          <note len="12" pan="0" vol="200" pos="324" key="43"/>
          <note len="24" pan="0" vol="200" pos="336" key="43"/>
          <note len="12" pan="0" vol="200" pos="360" key="43"/>
          <note len="12" pan="0" vol="200" pos="372" key="43"/>
        </pattern>
        <pattern type="1" name="bass fender jazz (1,379kb)" steps="16" pos="26112" muted="0">
          <note len="24" pan="0" vol="200" pos="0" key="45"/>
          <note len="12" pan="0" vol="200" pos="24" key="45"/>
          <note len="12" pan="0" vol="200" pos="36" key="45"/>
          <note len="12" pan="0" vol="200" pos="48" key="45"/>
          <note len="12" pan="0" vol="200" pos="60" key="45"/>
          <note len="24" pan="0" vol="200" pos="72" key="45"/>
          <note len="12" pan="0" vol="200" pos="96" key="45"/>
          <note len="12" pan="0" vol="200" pos="108" key="45"/>
          <note len="12" pan="0" vol="200" pos="120" key="45"/>
          <note len="12" pan="0" vol="200" pos="132" key="45"/>
          <note len="24" pan="0" vol="200" pos="144" key="45"/>
          <note len="12" pan="0" vol="200" pos="168" key="45"/>
          <note len="12" pan="0" vol="200" pos="180" key="45"/>
          <note len="24" pan="0" vol="200" pos="192" key="45"/>
          <note len="12" pan="0" vol="200" pos="216" key="45"/>
          <note len="12" pan="0" vol="200" pos="228" key="45"/>
          <note len="12" pan="0" vol="200" pos="240" key="45"/>
          <note len="12" pan="0" vol="200" pos="252" key="45"/>
          <note len="24" pan="0" vol="200" pos="264" key="45"/>
          <note len="12" pan="0" vol="200" pos="288" key="45"/>
          <note len="12" pan="0" vol="200" pos="300" key="45"/>
          <note len="12" pan="0" vol="200" pos="312" key="45"/>
          <note len="12" pan="0" vol="200" pos="324" key="45"/>
          <note len="24" pan="0" vol="200" pos="336" key="45"/>
          <note len="12" pan="0" vol="200" pos="360" key="45"/>
          <note len="12" pan="0" vol="200" pos="372" key="45"/>
        </pattern>
        <pattern type="1" name="bass fender jazz (1,379kb)" steps="16" pos="26496" muted="0">
          <note len="24" pan="0" vol="200" pos="0" key="38"/>
          <note len="12" pan="0" vol="200" pos="24" key="38"/>
          <note len="12" pan="0" vol="200" pos="36" key="38"/>
          <note len="12" pan="0" vol="200" pos="48" key="38"/>
          <note len="12" pan="0" vol="200" pos="60" key="38"/>
          <note len="24" pan="0" vol="200" pos="72" key="38"/>
          <note len="12" pan="0" vol="200" pos="96" key="38"/>
          <note len="12" pan="0" vol="200" pos="108" key="38"/>
          <note len="12" pan="0" vol="200" pos="120" key="38"/>
          <note len="12" pan="0" vol="200" pos="132" key="38"/>
          <note len="24" pan="0" vol="200" pos="144" key="38"/>
          <note len="12" pan="0" vol="200" pos="168" key="38"/>
          <note len="12" pan="0" vol="200" pos="180" key="38"/>
          <note len="24" pan="0" vol="200" pos="192" key="38"/>
          <note len="12" pan="0" vol="200" pos="216" key="38"/>
          <note len="12" pan="0" vol="200" pos="228" key="38"/>
          <note len="12" pan="0" vol="200" pos="240" key="38"/>
          <note len="12" pan="0" vol="200" pos="252" key="38"/>
          <note len="24" pan="0" vol="200" pos="264" key="38"/>
          <note len="12" pan="0" vol="200" pos="288" key="38"/>
          <note len="12" pan="0" vol="200" pos="300" key="38"/>
          <note len="12" pan="0" vol="200" pos="312" key="38"/>
          <note len="12" pan="0" vol="200" pos="324" key="38"/>
          <note len="24" pan="0" vol="200" pos="336" key="38"/>
          <note len="12" pan="0" vol="200" pos="360" key="38"/>
          <note len="12" pan="0" vol="200" pos="372" key="38"/>
        </pattern>
        <pattern type="1" name="bass fender jazz (1,379kb)" steps="16" pos="26880" muted="0">
          <note len="24" pan="0" vol="200" pos="0" key="35"/>
          <note len="12" pan="0" vol="200" pos="24" key="35"/>
          <note len="12" pan="0" vol="200" pos="36" key="35"/>
          <note len="12" pan="0" vol="200" pos="48" key="35"/>
          <note len="12" pan="0" vol="200" pos="60" key="35"/>
          <note len="24" pan="0" vol="200" pos="72" key="35"/>
          <note len="12" pan="0" vol="200" pos="96" key="35"/>
          <note len="12" pan="0" vol="200" pos="108" key="35"/>
          <note len="12" pan="0" vol="200" pos="120" key="35"/>
          <note len="12" pan="0" vol="200" pos="132" key="35"/>
          <note len="24" pan="0" vol="200" pos="144" key="35"/>
          <note len="12" pan="0" vol="200" pos="168" key="35"/>
          <note len="12" pan="0" vol="200" pos="180" key="35"/>
          <note len="24" pan="0" vol="200" pos="192" key="35"/>
          <note len="12" pan="0" vol="200" pos="216" key="35"/>
          <note len="12" pan="0" vol="200" pos="228" key="35"/>
          <note len="12" pan="0" vol="200" pos="240" key="35"/>
          <note len="12" pan="0" vol="200" pos="252" key="35"/>
          <note len="24" pan="0" vol="200" pos="264" key="35"/>
          <note len="12" pan="0" vol="200" pos="288" key="35"/>
          <note len="12" pan="0" vol="200" pos="300" key="35"/>
          <note len="12" pan="0" vol="200" pos="312" key="35"/>
          <note len="12" pan="0" vol="200" pos="324" key="35"/>
          <note len="24" pan="0" vol="200" pos="336" key="35"/>
          <note len="12" pan="0" vol="200" pos="360" key="35"/>
          <note len="12" pan="0" vol="200" pos="372" key="35"/>
        </pattern>
        <pattern type="1" name="bass fender jazz (1,379kb)" steps="16" pos="27264" muted="0">
          <note len="24" pan="0" vol="200" pos="0" key="43"/>
          <note len="12" pan="0" vol="200" pos="24" key="43"/>
          <note len="12" pan="0" vol="200" pos="36" key="43"/>
          <note len="12" pan="0" vol="200" pos="48" key="43"/>
          <note len="12" pan="0" vol="200" pos="60" key="43"/>
          <note len="24" pan="0" vol="200" pos="72" key="43"/>
          <note len="12" pan="0" vol="200" pos="96" key="43"/>
          <note len="12" pan="0" vol="200" pos="108" key="43"/>
          <note len="12" pan="0" vol="200" pos="120" key="43"/>
          <note len="12" pan="0" vol="200" pos="132" key="43"/>
          <note len="24" pan="0" vol="200" pos="144" key="43"/>
          <note len="12" pan="0" vol="200" pos="168" key="43"/>
          <note len="12" pan="0" vol="200" pos="180" key="43"/>
          <note len="24" pan="0" vol="200" pos="192" key="43"/>
          <note len="12" pan="0" vol="200" pos="216" key="43"/>
          <note len="12" pan="0" vol="200" pos="228" key="43"/>
          <note len="12" pan="0" vol="200" pos="240" key="43"/>
          <note len="12" pan="0" vol="200" pos="252" key="43"/>
          <note len="24" pan="0" vol="200" pos="264" key="43"/>
          <note len="12" pan="0" vol="200" pos="288" key="43"/>
          <note len="12" pan="0" vol="200" pos="300" key="43"/>
          <note len="12" pan="0" vol="200" pos="312" key="43"/>
          <note len="12" pan="0" vol="200" pos="324" key="43"/>
          <note len="24" pan="0" vol="200" pos="336" key="43"/>
          <note len="12" pan="0" vol="200" pos="360" key="43"/>
          <note len="12" pan="0" vol="200" pos="372" key="43"/>
        </pattern>
        <pattern type="1" name="bass fender jazz (1,379kb)" steps="16" pos="27648" muted="0">
          <note len="24" pan="0" vol="200" pos="0" key="45"/>
          <note len="12" pan="0" vol="200" pos="24" key="45"/>
          <note len="12" pan="0" vol="200" pos="36" key="45"/>
          <note len="12" pan="0" vol="200" pos="48" key="45"/>
          <note len="12" pan="0" vol="200" pos="60" key="45"/>
          <note len="24" pan="0" vol="200" pos="72" key="45"/>
          <note len="12" pan="0" vol="200" pos="96" key="45"/>
          <note len="12" pan="0" vol="200" pos="108" key="45"/>
          <note len="12" pan="0" vol="200" pos="120" key="45"/>
          <note len="12" pan="0" vol="200" pos="132" key="45"/>
          <note len="24" pan="0" vol="200" pos="144" key="45"/>
          <note len="12" pan="0" vol="200" pos="168" key="45"/>
          <note len="12" pan="0" vol="200" pos="180" key="45"/>
          <note len="24" pan="0" vol="200" pos="192" key="45"/>
          <note len="12" pan="0" vol="200" pos="216" key="45"/>
          <note len="12" pan="0" vol="200" pos="228" key="45"/>
          <note len="12" pan="0" vol="200" pos="240" key="45"/>
          <note len="12" pan="0" vol="200" pos="252" key="45"/>
          <note len="24" pan="0" vol="200" pos="264" key="45"/>
          <note len="12" pan="0" vol="200" pos="288" key="45"/>
          <note len="12" pan="0" vol="200" pos="300" key="45"/>
          <note len="12" pan="0" vol="200" pos="312" key="45"/>
          <note len="12" pan="0" vol="200" pos="324" key="45"/>
          <note len="24" pan="0" vol="200" pos="336" key="45"/>
          <note len="12" pan="0" vol="200" pos="360" key="45"/>
          <note len="12" pan="0" vol="200" pos="372" key="45"/>
        </pattern>
        <pattern type="1" name="bass fender jazz (1,379kb)" steps="16" pos="28032" muted="0">
          <note len="24" pan="0" vol="200" pos="0" key="45"/>
          <note len="12" pan="0" vol="200" pos="24" key="45"/>
          <note len="12" pan="0" vol="200" pos="36" key="45"/>
          <note len="12" pan="0" vol="200" pos="48" key="45"/>
          <note len="12" pan="0" vol="200" pos="60" key="45"/>
          <note len="24" pan="0" vol="200" pos="72" key="45"/>
          <note len="12" pan="0" vol="200" pos="96" key="45"/>
          <note len="12" pan="0" vol="200" pos="108" key="45"/>
          <note len="12" pan="0" vol="200" pos="120" key="45"/>
          <note len="12" pan="0" vol="200" pos="132" key="45"/>
          <note len="24" pan="0" vol="200" pos="144" key="45"/>
          <note len="12" pan="0" vol="200" pos="168" key="45"/>
          <note len="12" pan="0" vol="200" pos="180" key="45"/>
          <note len="30" pan="0" vol="200" pos="192" key="45"/>
          <note len="30" pan="0" vol="200" pos="240" key="45"/>
          <note len="30" pan="0" vol="200" pos="288" key="45"/>
          <note len="30" pan="0" vol="200" pos="336" key="45"/>
        </pattern>
        <pattern type="1" name="bass fender jazz (1,379kb)" steps="16" pos="23040" muted="0">
          <note len="72" pan="0" vol="200" pos="0" key="38"/>
          <note len="72" pan="0" vol="200" pos="72" key="38"/>
          <note len="48" pan="0" vol="200" pos="144" key="38"/>
          <note len="72" pan="0" vol="200" pos="192" key="38"/>
          <note len="72" pan="0" vol="200" pos="264" key="38"/>
          <note len="48" pan="0" vol="200" pos="336" key="38"/>
          <note len="72" pan="0" vol="200" pos="384" key="43"/>
          <note len="72" pan="0" vol="200" pos="456" key="43"/>
          <note len="48" pan="0" vol="200" pos="528" key="43"/>
          <note len="72" pan="0" vol="200" pos="576" key="45"/>
          <note len="72" pan="0" vol="200" pos="648" key="43"/>
          <note len="48" pan="0" vol="200" pos="720" key="45"/>
        </pattern>
        <pattern type="1" name="bass fender jazz (1,379kb)" steps="16" pos="23808" muted="0">
          <note len="72" pan="0" vol="200" pos="0" key="38"/>
          <note len="72" pan="0" vol="200" pos="72" key="38"/>
          <note len="48" pan="0" vol="200" pos="144" key="38"/>
          <note len="72" pan="0" vol="200" pos="192" key="38"/>
          <note len="72" pan="0" vol="200" pos="264" key="38"/>
          <note len="48" pan="0" vol="200" pos="336" key="38"/>
          <note len="72" pan="0" vol="200" pos="384" key="43"/>
          <note len="72" pan="0" vol="200" pos="456" key="43"/>
          <note len="48" pan="0" vol="200" pos="528" key="43"/>
          <note len="72" pan="0" vol="200" pos="576" key="45"/>
          <note len="72" pan="0" vol="200" pos="648" key="43"/>
          <note len="48" pan="0" vol="200" pos="720" key="45"/>
        </pattern>
        <pattern type="1" name="bass fender jazz (1,379kb)" steps="16" pos="24576" muted="0">
          <note len="72" pan="0" vol="200" pos="0" key="38"/>
          <note len="72" pan="0" vol="200" pos="72" key="38"/>
          <note len="48" pan="0" vol="200" pos="144" key="38"/>
          <note len="72" pan="0" vol="200" pos="192" key="38"/>
          <note len="72" pan="0" vol="200" pos="264" key="38"/>
          <note len="48" pan="0" vol="200" pos="336" key="38"/>
          <note len="72" pan="0" vol="200" pos="384" key="43"/>
          <note len="72" pan="0" vol="200" pos="456" key="43"/>
          <note len="48" pan="0" vol="200" pos="528" key="43"/>
          <note len="72" pan="0" vol="200" pos="576" key="45"/>
          <note len="72" pan="0" vol="200" pos="648" key="43"/>
          <note len="48" pan="0" vol="200" pos="720" key="45"/>
        </pattern>
        <pattern type="1" name="bass fender jazz (1,379kb)" steps="16" pos="28416" muted="0">
          <note len="384" pan="0" vol="200" pos="0" key="38"/>
          <note len="384" pan="0" vol="200" pos="384" key="45"/>
          <note len="384" pan="0" vol="200" pos="768" key="43"/>
          <note len="192" pan="0" vol="200" pos="1152" key="38"/>
          <note len="192" pan="0" vol="200" pos="1344" key="45"/>
        </pattern>
        <pattern type="1" name="bass fender jazz (1,379kb)" steps="16" pos="29952" muted="0">
          <note len="384" pan="0" vol="200" pos="0" key="38"/>
          <note len="384" pan="0" vol="200" pos="384" key="45"/>
          <note len="384" pan="0" vol="200" pos="768" key="43"/>
          <note len="192" pan="0" vol="200" pos="1152" key="38"/>
          <note len="192" pan="0" vol="200" pos="1344" key="45"/>
        </pattern>
        <pattern type="1" name="bass fender jazz (1,379kb)" steps="16" pos="21504" muted="0">
          <note len="24" pan="0" vol="200" pos="0" key="50"/>
          <note len="12" pan="0" vol="200" pos="24" key="50"/>
          <note len="12" pan="0" vol="200" pos="36" key="50"/>
          <note len="12" pan="0" vol="200" pos="48" key="50"/>
          <note len="12" pan="0" vol="200" pos="60" key="50"/>
          <note len="24" pan="0" vol="200" pos="72" key="50"/>
          <note len="12" pan="0" vol="200" pos="96" key="50"/>
          <note len="12" pan="0" vol="200" pos="108" key="50"/>
          <note len="12" pan="0" vol="200" pos="120" key="50"/>
          <note len="12" pan="0" vol="200" pos="132" key="50"/>
          <note len="24" pan="0" vol="200" pos="144" key="50"/>
          <note len="12" pan="0" vol="200" pos="168" key="50"/>
          <note len="12" pan="0" vol="200" pos="180" key="50"/>
          <note len="24" pan="0" vol="200" pos="192" key="50"/>
          <note len="12" pan="0" vol="200" pos="216" key="50"/>
          <note len="12" pan="0" vol="200" pos="228" key="50"/>
          <note len="12" pan="0" vol="200" pos="240" key="50"/>
          <note len="12" pan="0" vol="200" pos="252" key="50"/>
          <note len="24" pan="0" vol="200" pos="264" key="50"/>
          <note len="12" pan="0" vol="200" pos="288" key="50"/>
          <note len="12" pan="0" vol="200" pos="300" key="50"/>
          <note len="12" pan="0" vol="200" pos="312" key="50"/>
          <note len="12" pan="0" vol="200" pos="324" key="50"/>
          <note len="24" pan="0" vol="200" pos="336" key="50"/>
          <note len="12" pan="0" vol="200" pos="360" key="50"/>
          <note len="12" pan="0" vol="200" pos="372" key="50"/>
        </pattern>
        <pattern type="1" name="bass fender jazz (1,379kb)" steps="16" pos="21888" muted="0">
          <note len="24" pan="0" vol="200" pos="0" key="50"/>
          <note len="12" pan="0" vol="200" pos="24" key="50"/>
          <note len="12" pan="0" vol="200" pos="36" key="50"/>
          <note len="12" pan="0" vol="200" pos="48" key="50"/>
          <note len="12" pan="0" vol="200" pos="60" key="50"/>
          <note len="24" pan="0" vol="200" pos="72" key="50"/>
          <note len="12" pan="0" vol="200" pos="96" key="50"/>
          <note len="12" pan="0" vol="200" pos="108" key="50"/>
          <note len="12" pan="0" vol="200" pos="120" key="50"/>
          <note len="12" pan="0" vol="200" pos="132" key="50"/>
          <note len="24" pan="0" vol="200" pos="144" key="50"/>
          <note len="12" pan="0" vol="200" pos="168" key="50"/>
          <note len="12" pan="0" vol="200" pos="180" key="50"/>
          <note len="30" pan="0" vol="200" pos="192" key="45"/>
          <note len="30" pan="0" vol="200" pos="240" key="45"/>
          <note len="30" pan="0" vol="200" pos="288" key="45"/>
          <note len="30" pan="0" vol="200" pos="336" key="43"/>
        </pattern>
        <pattern type="1" name="bass fender jazz (1,379kb)" steps="16" pos="31488" muted="0">
          <note len="24" pan="0" vol="200" pos="0" key="50"/>
          <note len="12" pan="0" vol="200" pos="24" key="50"/>
          <note len="12" pan="0" vol="200" pos="36" key="50"/>
          <note len="12" pan="0" vol="200" pos="48" key="50"/>
          <note len="12" pan="0" vol="200" pos="60" key="50"/>
          <note len="24" pan="0" vol="200" pos="72" key="50"/>
          <note len="12" pan="0" vol="200" pos="96" key="50"/>
          <note len="12" pan="0" vol="200" pos="108" key="50"/>
          <note len="12" pan="0" vol="200" pos="120" key="50"/>
          <note len="12" pan="0" vol="200" pos="132" key="50"/>
          <note len="24" pan="0" vol="200" pos="144" key="50"/>
          <note len="12" pan="0" vol="200" pos="168" key="50"/>
          <note len="12" pan="0" vol="200" pos="180" key="50"/>
          <note len="24" pan="0" vol="200" pos="192" key="50"/>
          <note len="12" pan="0" vol="200" pos="216" key="50"/>
          <note len="12" pan="0" vol="200" pos="228" key="50"/>
          <note len="12" pan="0" vol="200" pos="240" key="50"/>
          <note len="12" pan="0" vol="200" pos="252" key="50"/>
          <note len="24" pan="0" vol="200" pos="264" key="50"/>
          <note len="12" pan="0" vol="200" pos="288" key="50"/>
          <note len="12" pan="0" vol="200" pos="300" key="50"/>
          <note len="12" pan="0" vol="200" pos="312" key="50"/>
          <note len="12" pan="0" vol="200" pos="324" key="50"/>
          <note len="24" pan="0" vol="200" pos="336" key="50"/>
          <note len="12" pan="0" vol="200" pos="360" key="50"/>
          <note len="12" pan="0" vol="200" pos="372" key="50"/>
        </pattern>
        <pattern type="1" name="bass fender jazz (1,379kb)" steps="16" pos="32256" muted="0">
          <note len="48" pan="0" vol="200" pos="0" key="38"/>
          <note len="48" pan="0" vol="200" pos="48" key="38"/>
          <note len="48" pan="0" vol="200" pos="96" key="38"/>
          <note len="24" pan="0" vol="200" pos="144" key="38"/>
          <note len="48" pan="0" vol="200" pos="168" key="38"/>
          <note len="24" pan="0" vol="200" pos="216" key="38"/>
          <note len="48" pan="0" vol="200" pos="240" key="38"/>
          <note len="24" pan="0" vol="200" pos="288" key="38"/>
          <note len="48" pan="0" vol="200" pos="312" key="38"/>
          <note len="24" pan="0" vol="200" pos="360" key="38"/>
        </pattern>
        <pattern type="1" name="bass fender jazz (1,379kb)" steps="16" pos="33024" muted="0">
          <note len="48" pan="0" vol="200" pos="0" key="38"/>
          <note len="48" pan="0" vol="200" pos="48" key="38"/>
          <note len="48" pan="0" vol="200" pos="96" key="38"/>
          <note len="24" pan="0" vol="200" pos="144" key="38"/>
          <note len="48" pan="0" vol="200" pos="168" key="38"/>
          <note len="24" pan="0" vol="200" pos="216" key="38"/>
          <note len="48" pan="0" vol="200" pos="240" key="38"/>
          <note len="24" pan="0" vol="200" pos="288" key="38"/>
          <note len="48" pan="0" vol="200" pos="312" key="38"/>
          <note len="24" pan="0" vol="200" pos="360" key="38"/>
        </pattern>
        <pattern type="1" name="bass fender jazz (1,379kb)" steps="16" pos="32640" muted="0">
          <note len="48" pan="0" vol="200" pos="0" key="43"/>
          <note len="48" pan="0" vol="200" pos="48" key="43"/>
          <note len="48" pan="0" vol="200" pos="96" key="43"/>
          <note len="24" pan="0" vol="200" pos="144" key="43"/>
          <note len="48" pan="0" vol="200" pos="168" key="45"/>
          <note len="24" pan="0" vol="200" pos="216" key="45"/>
          <note len="48" pan="0" vol="200" pos="240" key="45"/>
          <note len="24" pan="0" vol="200" pos="288" key="45"/>
          <note len="48" pan="0" vol="200" pos="312" key="45"/>
          <note len="24" pan="0" vol="200" pos="360" key="45"/>
        </pattern>
        <pattern type="1" name="bass fender jazz (1,379kb)" steps="16" pos="33408" muted="0">
          <note len="48" pan="0" vol="200" pos="0" key="43"/>
          <note len="48" pan="0" vol="200" pos="48" key="43"/>
          <note len="48" pan="0" vol="200" pos="96" key="43"/>
          <note len="24" pan="0" vol="200" pos="144" key="43"/>
          <note len="48" pan="0" vol="200" pos="168" key="45"/>
          <note len="24" pan="0" vol="200" pos="216" key="45"/>
          <note len="48" pan="0" vol="200" pos="240" key="45"/>
          <note len="48" pan="0" vol="200" pos="288" key="45"/>
        </pattern>
        <pattern type="1" name="bass fender jazz (1,379kb)" steps="16" pos="33792" muted="0">
          <note len="24" pan="0" vol="200" pos="0" key="38"/>
          <note len="24" pan="0" vol="200" pos="24" key="38"/>
          <note len="24" pan="0" vol="200" pos="48" key="38"/>
          <note len="24" pan="0" vol="200" pos="72" key="38"/>
          <note len="24" pan="0" vol="200" pos="96" key="38"/>
          <note len="24" pan="0" vol="200" pos="120" key="38"/>
          <note len="24" pan="0" vol="200" pos="144" key="38"/>
          <note len="24" pan="0" vol="200" pos="168" key="38"/>
          <note len="24" pan="0" vol="200" pos="192" key="38"/>
          <note len="24" pan="0" vol="200" pos="216" key="38"/>
          <note len="24" pan="0" vol="200" pos="240" key="38"/>
          <note len="24" pan="0" vol="200" pos="264" key="38"/>
          <note len="24" pan="0" vol="200" pos="288" key="38"/>
          <note len="24" pan="0" vol="200" pos="312" key="38"/>
          <note len="24" pan="0" vol="200" pos="336" key="38"/>
          <note len="24" pan="0" vol="200" pos="360" key="38"/>
        </pattern>
        <pattern type="1" name="bass fender jazz (1,379kb)" steps="16" pos="34176" muted="0">
          <note len="24" pan="0" vol="200" pos="0" key="43"/>
          <note len="24" pan="0" vol="200" pos="24" key="43"/>
          <note len="24" pan="0" vol="200" pos="48" key="43"/>
          <note len="24" pan="0" vol="200" pos="72" key="43"/>
          <note len="24" pan="0" vol="200" pos="96" key="43"/>
          <note len="24" pan="0" vol="200" pos="120" key="43"/>
          <note len="24" pan="0" vol="200" pos="144" key="43"/>
          <note len="24" pan="0" vol="200" pos="168" key="43"/>
          <note len="24" pan="0" vol="200" pos="192" key="45"/>
          <note len="24" pan="0" vol="200" pos="216" key="45"/>
          <note len="24" pan="0" vol="200" pos="240" key="45"/>
          <note len="24" pan="0" vol="200" pos="264" key="45"/>
          <note len="24" pan="0" vol="200" pos="288" key="45"/>
          <note len="24" pan="0" vol="200" pos="312" key="45"/>
          <note len="24" pan="0" vol="200" pos="336" key="45"/>
          <note len="24" pan="0" vol="200" pos="360" key="45"/>
        </pattern>
        <pattern type="1" name="bass fender jazz (1,379kb)" steps="16" pos="34560" muted="0">
          <note len="24" pan="0" vol="200" pos="0" key="38"/>
          <note len="24" pan="0" vol="200" pos="24" key="38"/>
          <note len="24" pan="0" vol="200" pos="48" key="38"/>
          <note len="24" pan="0" vol="200" pos="72" key="38"/>
          <note len="24" pan="0" vol="200" pos="96" key="38"/>
          <note len="24" pan="0" vol="200" pos="120" key="38"/>
          <note len="24" pan="0" vol="200" pos="144" key="38"/>
          <note len="24" pan="0" vol="200" pos="168" key="38"/>
          <note len="24" pan="0" vol="200" pos="192" key="38"/>
          <note len="24" pan="0" vol="200" pos="216" key="38"/>
          <note len="24" pan="0" vol="200" pos="240" key="38"/>
          <note len="24" pan="0" vol="200" pos="264" key="38"/>
          <note len="24" pan="0" vol="200" pos="288" key="38"/>
          <note len="24" pan="0" vol="200" pos="312" key="38"/>
          <note len="24" pan="0" vol="200" pos="336" key="38"/>
          <note len="24" pan="0" vol="200" pos="360" key="38"/>
        </pattern>
        <pattern type="1" name="bass fender jazz (1,379kb)" steps="16" pos="34944" muted="0">
          <note len="24" pan="0" vol="200" pos="0" key="43"/>
          <note len="24" pan="0" vol="200" pos="24" key="43"/>
          <note len="24" pan="0" vol="200" pos="48" key="43"/>
          <note len="24" pan="0" vol="200" pos="72" key="43"/>
          <note len="24" pan="0" vol="200" pos="96" key="43"/>
          <note len="24" pan="0" vol="200" pos="120" key="43"/>
          <note len="24" pan="0" vol="200" pos="144" key="43"/>
          <note len="24" pan="0" vol="200" pos="168" key="43"/>
          <note len="24" pan="0" vol="200" pos="192" key="45"/>
          <note len="24" pan="0" vol="200" pos="216" key="45"/>
          <note len="24" pan="0" vol="200" pos="240" key="45"/>
          <note len="24" pan="0" vol="200" pos="264" key="45"/>
          <note len="48" pan="0" vol="200" pos="288" key="45"/>
          <note len="48" pan="0" vol="200" pos="336" key="45"/>
        </pattern>
        <pattern type="1" name="bass fender jazz (1,379kb)" steps="16" pos="35328" muted="0">
          <note len="24" pan="0" vol="200" pos="0" key="35"/>
          <note len="12" pan="0" vol="200" pos="24" key="35"/>
          <note len="12" pan="0" vol="200" pos="36" key="35"/>
          <note len="12" pan="0" vol="200" pos="48" key="35"/>
          <note len="12" pan="0" vol="200" pos="60" key="35"/>
          <note len="24" pan="0" vol="200" pos="72" key="35"/>
          <note len="12" pan="0" vol="200" pos="96" key="35"/>
          <note len="12" pan="0" vol="200" pos="108" key="35"/>
          <note len="12" pan="0" vol="200" pos="120" key="35"/>
          <note len="12" pan="0" vol="200" pos="132" key="35"/>
          <note len="12" pan="0" vol="200" pos="144" key="35"/>
          <note len="12" pan="0" vol="200" pos="156" key="35"/>
          <note len="12" pan="0" vol="200" pos="168" key="35"/>
          <note len="12" pan="0" vol="200" pos="180" key="35"/>
          <note len="24" pan="0" vol="200" pos="192" key="35"/>
          <note len="12" pan="0" vol="200" pos="216" key="35"/>
          <note len="12" pan="0" vol="200" pos="228" key="35"/>
          <note len="12" pan="0" vol="200" pos="240" key="35"/>
          <note len="12" pan="0" vol="200" pos="252" key="35"/>
          <note len="24" pan="0" vol="200" pos="264" key="35"/>
          <note len="12" pan="0" vol="200" pos="288" key="35"/>
          <note len="12" pan="0" vol="200" pos="300" key="35"/>
          <note len="12" pan="0" vol="200" pos="312" key="35"/>
          <note len="12" pan="0" vol="200" pos="324" key="35"/>
          <note len="12" pan="0" vol="200" pos="336" key="35"/>
          <note len="12" pan="0" vol="200" pos="348" key="35"/>
          <note len="12" pan="0" vol="200" pos="360" key="35"/>
          <note len="12" pan="0" vol="200" pos="372" key="35"/>
          <note len="24" pan="0" vol="200" pos="384" key="43"/>
          <note len="12" pan="0" vol="200" pos="408" key="43"/>
          <note len="12" pan="0" vol="200" pos="420" key="43"/>
          <note len="12" pan="0" vol="200" pos="432" key="43"/>
          <note len="12" pan="0" vol="200" pos="444" key="43"/>
          <note len="24" pan="0" vol="200" pos="456" key="43"/>
          <note len="12" pan="0" vol="200" pos="480" key="43"/>
          <note len="12" pan="0" vol="200" pos="492" key="43"/>
          <note len="12" pan="0" vol="200" pos="504" key="43"/>
          <note len="12" pan="0" vol="200" pos="516" key="43"/>
          <note len="12" pan="0" vol="200" pos="528" key="43"/>
          <note len="12" pan="0" vol="200" pos="540" key="43"/>
          <note len="12" pan="0" vol="200" pos="552" key="43"/>
          <note len="12" pan="0" vol="200" pos="564" key="43"/>
          <note len="24" pan="0" vol="200" pos="576" key="43"/>
          <note len="12" pan="0" vol="200" pos="600" key="43"/>
          <note len="12" pan="0" vol="200" pos="612" key="43"/>
          <note len="12" pan="0" vol="200" pos="624" key="43"/>
          <note len="12" pan="0" vol="200" pos="636" key="43"/>
          <note len="24" pan="0" vol="200" pos="648" key="43"/>
          <note len="12" pan="0" vol="200" pos="672" key="43"/>
          <note len="12" pan="0" vol="200" pos="684" key="43"/>
          <note len="12" pan="0" vol="200" pos="696" key="43"/>
          <note len="12" pan="0" vol="200" pos="708" key="43"/>
          <note len="12" pan="0" vol="200" pos="720" key="43"/>
          <note len="12" pan="0" vol="200" pos="732" key="43"/>
          <note len="12" pan="0" vol="200" pos="744" key="43"/>
          <note len="12" pan="0" vol="200" pos="756" key="43"/>
          <note len="24" pan="0" vol="200" pos="768" key="45"/>
          <note len="12" pan="0" vol="200" pos="792" key="45"/>
          <note len="12" pan="0" vol="200" pos="804" key="45"/>
          <note len="12" pan="0" vol="200" pos="816" key="45"/>
          <note len="12" pan="0" vol="200" pos="828" key="45"/>
          <note len="24" pan="0" vol="200" pos="840" key="45"/>
          <note len="12" pan="0" vol="200" pos="864" key="45"/>
          <note len="12" pan="0" vol="200" pos="876" key="45"/>
          <note len="12" pan="0" vol="200" pos="888" key="45"/>
          <note len="12" pan="0" vol="200" pos="900" key="45"/>
          <note len="12" pan="0" vol="200" pos="912" key="45"/>
          <note len="12" pan="0" vol="200" pos="924" key="45"/>
          <note len="12" pan="0" vol="200" pos="936" key="45"/>
          <note len="12" pan="0" vol="200" pos="948" key="45"/>
          <note len="24" pan="0" vol="200" pos="960" key="45"/>
          <note len="12" pan="0" vol="200" pos="984" key="45"/>
          <note len="12" pan="0" vol="200" pos="996" key="45"/>
          <note len="12" pan="0" vol="200" pos="1008" key="45"/>
          <note len="12" pan="0" vol="200" pos="1020" key="45"/>
          <note len="24" pan="0" vol="200" pos="1032" key="45"/>
          <note len="12" pan="0" vol="200" pos="1056" key="45"/>
          <note len="12" pan="0" vol="200" pos="1068" key="45"/>
          <note len="12" pan="0" vol="200" pos="1080" key="45"/>
          <note len="12" pan="0" vol="200" pos="1092" key="45"/>
          <note len="12" pan="0" vol="200" pos="1104" key="45"/>
          <note len="12" pan="0" vol="200" pos="1116" key="45"/>
          <note len="12" pan="0" vol="200" pos="1128" key="45"/>
          <note len="12" pan="0" vol="200" pos="1140" key="45"/>
          <note len="24" pan="0" vol="200" pos="1152" key="38"/>
          <note len="12" pan="0" vol="200" pos="1176" key="38"/>
          <note len="12" pan="0" vol="200" pos="1188" key="38"/>
          <note len="12" pan="0" vol="200" pos="1200" key="38"/>
          <note len="12" pan="0" vol="200" pos="1212" key="38"/>
          <note len="24" pan="0" vol="200" pos="1224" key="38"/>
          <note len="12" pan="0" vol="200" pos="1248" key="38"/>
          <note len="12" pan="0" vol="200" pos="1260" key="38"/>
          <note len="12" pan="0" vol="200" pos="1272" key="38"/>
          <note len="12" pan="0" vol="200" pos="1284" key="38"/>
          <note len="12" pan="0" vol="200" pos="1296" key="38"/>
          <note len="12" pan="0" vol="200" pos="1308" key="38"/>
          <note len="12" pan="0" vol="200" pos="1320" key="38"/>
          <note len="12" pan="0" vol="200" pos="1332" key="38"/>
          <note len="24" pan="0" vol="200" pos="1344" key="38"/>
          <note len="12" pan="0" vol="200" pos="1368" key="38"/>
          <note len="12" pan="0" vol="200" pos="1380" key="38"/>
          <note len="12" pan="0" vol="200" pos="1392" key="38"/>
          <note len="12" pan="0" vol="200" pos="1404" key="38"/>
          <note len="24" pan="0" vol="200" pos="1416" key="38"/>
          <note len="12" pan="0" vol="200" pos="1440" key="38"/>
          <note len="12" pan="0" vol="200" pos="1452" key="38"/>
          <note len="12" pan="0" vol="200" pos="1464" key="38"/>
          <note len="12" pan="0" vol="200" pos="1476" key="38"/>
          <note len="12" pan="0" vol="200" pos="1488" key="38"/>
          <note len="12" pan="0" vol="200" pos="1500" key="38"/>
          <note len="12" pan="0" vol="200" pos="1512" key="38"/>
          <note len="12" pan="0" vol="200" pos="1524" key="38"/>
        </pattern>
        <pattern type="1" name="bass fender jazz (1,379kb)" steps="16" pos="36864" muted="0">
          <note len="24" pan="0" vol="200" pos="0" key="35"/>
          <note len="12" pan="0" vol="200" pos="24" key="35"/>
          <note len="12" pan="0" vol="200" pos="36" key="35"/>
          <note len="12" pan="0" vol="200" pos="48" key="35"/>
          <note len="12" pan="0" vol="200" pos="60" key="35"/>
          <note len="24" pan="0" vol="200" pos="72" key="35"/>
          <note len="12" pan="0" vol="200" pos="96" key="35"/>
          <note len="12" pan="0" vol="200" pos="108" key="35"/>
          <note len="12" pan="0" vol="200" pos="120" key="35"/>
          <note len="12" pan="0" vol="200" pos="132" key="35"/>
          <note len="12" pan="0" vol="200" pos="144" key="35"/>
          <note len="12" pan="0" vol="200" pos="156" key="35"/>
          <note len="12" pan="0" vol="200" pos="168" key="35"/>
          <note len="12" pan="0" vol="200" pos="180" key="35"/>
          <note len="24" pan="0" vol="200" pos="192" key="35"/>
          <note len="12" pan="0" vol="200" pos="216" key="35"/>
          <note len="12" pan="0" vol="200" pos="228" key="35"/>
          <note len="12" pan="0" vol="200" pos="240" key="35"/>
          <note len="12" pan="0" vol="200" pos="252" key="35"/>
          <note len="24" pan="0" vol="200" pos="264" key="35"/>
          <note len="12" pan="0" vol="200" pos="288" key="35"/>
          <note len="12" pan="0" vol="200" pos="300" key="35"/>
          <note len="12" pan="0" vol="200" pos="312" key="35"/>
          <note len="12" pan="0" vol="200" pos="324" key="35"/>
          <note len="12" pan="0" vol="200" pos="336" key="35"/>
          <note len="12" pan="0" vol="200" pos="348" key="35"/>
          <note len="12" pan="0" vol="200" pos="360" key="35"/>
          <note len="12" pan="0" vol="200" pos="372" key="35"/>
          <note len="24" pan="0" vol="200" pos="384" key="43"/>
          <note len="12" pan="0" vol="200" pos="408" key="43"/>
          <note len="12" pan="0" vol="200" pos="420" key="43"/>
          <note len="12" pan="0" vol="200" pos="432" key="43"/>
          <note len="12" pan="0" vol="200" pos="444" key="43"/>
          <note len="24" pan="0" vol="200" pos="456" key="43"/>
          <note len="12" pan="0" vol="200" pos="480" key="43"/>
          <note len="12" pan="0" vol="200" pos="492" key="43"/>
          <note len="12" pan="0" vol="200" pos="504" key="43"/>
          <note len="12" pan="0" vol="200" pos="516" key="43"/>
          <note len="12" pan="0" vol="200" pos="528" key="43"/>
          <note len="12" pan="0" vol="200" pos="540" key="43"/>
          <note len="12" pan="0" vol="200" pos="552" key="43"/>
          <note len="12" pan="0" vol="200" pos="564" key="43"/>
          <note len="24" pan="0" vol="200" pos="576" key="43"/>
          <note len="12" pan="0" vol="200" pos="600" key="43"/>
          <note len="12" pan="0" vol="200" pos="612" key="43"/>
          <note len="12" pan="0" vol="200" pos="624" key="43"/>
          <note len="12" pan="0" vol="200" pos="636" key="43"/>
          <note len="24" pan="0" vol="200" pos="648" key="43"/>
          <note len="12" pan="0" vol="200" pos="672" key="43"/>
          <note len="12" pan="0" vol="200" pos="684" key="43"/>
          <note len="12" pan="0" vol="200" pos="696" key="43"/>
          <note len="12" pan="0" vol="200" pos="708" key="43"/>
          <note len="12" pan="0" vol="200" pos="720" key="43"/>
          <note len="12" pan="0" vol="200" pos="732" key="43"/>
          <note len="12" pan="0" vol="200" pos="744" key="43"/>
          <note len="12" pan="0" vol="200" pos="756" key="43"/>
          <note len="24" pan="0" vol="200" pos="768" key="45"/>
          <note len="12" pan="0" vol="200" pos="792" key="45"/>
          <note len="12" pan="0" vol="200" pos="804" key="45"/>
          <note len="12" pan="0" vol="200" pos="816" key="45"/>
          <note len="12" pan="0" vol="200" pos="828" key="45"/>
          <note len="24" pan="0" vol="200" pos="840" key="45"/>
          <note len="12" pan="0" vol="200" pos="864" key="45"/>
          <note len="12" pan="0" vol="200" pos="876" key="45"/>
          <note len="12" pan="0" vol="200" pos="888" key="45"/>
          <note len="12" pan="0" vol="200" pos="900" key="45"/>
          <note len="12" pan="0" vol="200" pos="912" key="45"/>
          <note len="12" pan="0" vol="200" pos="924" key="45"/>
          <note len="12" pan="0" vol="200" pos="936" key="45"/>
          <note len="12" pan="0" vol="200" pos="948" key="45"/>
          <note len="24" pan="0" vol="200" pos="960" key="45"/>
          <note len="12" pan="0" vol="200" pos="984" key="45"/>
          <note len="12" pan="0" vol="200" pos="996" key="45"/>
          <note len="12" pan="0" vol="200" pos="1008" key="45"/>
          <note len="12" pan="0" vol="200" pos="1020" key="45"/>
          <note len="24" pan="0" vol="200" pos="1032" key="45"/>
          <note len="12" pan="0" vol="200" pos="1056" key="45"/>
          <note len="12" pan="0" vol="200" pos="1068" key="45"/>
          <note len="12" pan="0" vol="200" pos="1080" key="45"/>
          <note len="12" pan="0" vol="200" pos="1092" key="45"/>
          <note len="12" pan="0" vol="200" pos="1104" key="45"/>
          <note len="12" pan="0" vol="200" pos="1116" key="45"/>
          <note len="12" pan="0" vol="200" pos="1128" key="45"/>
          <note len="12" pan="0" vol="200" pos="1140" key="45"/>
          <note len="12" pan="0" vol="200" pos="1152" key="45"/>
          <note len="12" pan="0" vol="200" pos="1164" key="45"/>
          <note len="12" pan="0" vol="200" pos="1176" key="45"/>
          <note len="12" pan="0" vol="200" pos="1188" key="45"/>
          <note len="12" pan="0" vol="200" pos="1200" key="45"/>
          <note len="12" pan="0" vol="200" pos="1212" key="45"/>
          <note len="12" pan="0" vol="200" pos="1224" key="45"/>
          <note len="12" pan="0" vol="200" pos="1236" key="45"/>
          <note len="12" pan="0" vol="200" pos="1248" key="45"/>
          <note len="12" pan="0" vol="200" pos="1260" key="45"/>
          <note len="12" pan="0" vol="200" pos="1272" key="45"/>
          <note len="12" pan="0" vol="200" pos="1284" key="45"/>
          <note len="12" pan="0" vol="200" pos="1296" key="45"/>
          <note len="12" pan="0" vol="200" pos="1308" key="45"/>
          <note len="12" pan="0" vol="200" pos="1320" key="45"/>
          <note len="12" pan="0" vol="200" pos="1332" key="45"/>
          <note len="30" pan="0" vol="200" pos="1344" key="45"/>
          <note len="30" pan="0" vol="200" pos="1392" key="45"/>
          <note len="30" pan="0" vol="200" pos="1440" key="45"/>
          <note len="30" pan="0" vol="200" pos="1488" key="45"/>
        </pattern>
        <pattern type="1" name="bass fender jazz (1,379kb)" steps="16" pos="38400" muted="0">
          <note len="384" pan="0" vol="200" pos="0" key="38"/>
          <note len="384" pan="0" vol="200" pos="384" key="45"/>
          <note len="384" pan="0" vol="200" pos="768" key="43"/>
          <note len="192" pan="0" vol="200" pos="1152" key="38"/>
          <note len="192" pan="0" vol="200" pos="1344" key="45"/>
        </pattern>
        <pattern type="1" name="bass fender jazz (1,379kb)" steps="16" pos="39936" muted="0">
          <note len="384" pan="0" vol="200" pos="0" key="38"/>
          <note len="384" pan="0" vol="200" pos="384" key="45"/>
          <note len="384" pan="0" vol="200" pos="768" key="43"/>
          <note len="192" pan="0" vol="200" pos="1152" key="38"/>
          <note len="192" pan="0" vol="200" pos="1344" key="45"/>
        </pattern>
        <pattern type="1" name="bass fender jazz (1,379kb)" steps="16" pos="41472" muted="0">
          <note len="24" pan="0" vol="200" pos="0" key="38"/>
          <note len="12" pan="0" vol="200" pos="24" key="38"/>
          <note len="12" pan="0" vol="200" pos="36" key="38"/>
          <note len="12" pan="0" vol="200" pos="48" key="38"/>
          <note len="12" pan="0" vol="200" pos="60" key="38"/>
          <note len="24" pan="0" vol="200" pos="72" key="38"/>
          <note len="12" pan="0" vol="200" pos="96" key="38"/>
          <note len="12" pan="0" vol="200" pos="108" key="38"/>
          <note len="12" pan="0" vol="200" pos="120" key="38"/>
          <note len="12" pan="0" vol="200" pos="132" key="38"/>
          <note len="24" pan="0" vol="200" pos="144" key="38"/>
          <note len="12" pan="0" vol="200" pos="168" key="38"/>
          <note len="12" pan="0" vol="200" pos="180" key="38"/>
          <note len="24" pan="0" vol="200" pos="192" key="38"/>
          <note len="12" pan="0" vol="200" pos="216" key="38"/>
          <note len="12" pan="0" vol="200" pos="228" key="38"/>
          <note len="12" pan="0" vol="200" pos="240" key="38"/>
          <note len="12" pan="0" vol="200" pos="252" key="38"/>
          <note len="24" pan="0" vol="200" pos="264" key="38"/>
          <note len="12" pan="0" vol="200" pos="288" key="38"/>
          <note len="12" pan="0" vol="200" pos="300" key="38"/>
          <note len="12" pan="0" vol="200" pos="312" key="38"/>
          <note len="12" pan="0" vol="200" pos="324" key="38"/>
          <note len="24" pan="0" vol="200" pos="336" key="38"/>
          <note len="12" pan="0" vol="200" pos="360" key="38"/>
          <note len="12" pan="0" vol="200" pos="372" key="38"/>
          <note len="24" pan="0" vol="200" pos="384" key="45"/>
          <note len="12" pan="0" vol="200" pos="408" key="45"/>
          <note len="12" pan="0" vol="200" pos="420" key="45"/>
          <note len="12" pan="0" vol="200" pos="432" key="45"/>
          <note len="12" pan="0" vol="200" pos="444" key="45"/>
          <note len="24" pan="0" vol="200" pos="456" key="45"/>
          <note len="12" pan="0" vol="200" pos="480" key="45"/>
          <note len="12" pan="0" vol="200" pos="492" key="45"/>
          <note len="12" pan="0" vol="200" pos="504" key="45"/>
          <note len="12" pan="0" vol="200" pos="516" key="45"/>
          <note len="24" pan="0" vol="200" pos="528" key="45"/>
          <note len="12" pan="0" vol="200" pos="552" key="45"/>
          <note len="12" pan="0" vol="200" pos="564" key="45"/>
          <note len="24" pan="0" vol="200" pos="576" key="45"/>
          <note len="12" pan="0" vol="200" pos="600" key="45"/>
          <note len="12" pan="0" vol="200" pos="612" key="45"/>
          <note len="12" pan="0" vol="200" pos="624" key="45"/>
          <note len="12" pan="0" vol="200" pos="636" key="45"/>
          <note len="24" pan="0" vol="200" pos="648" key="45"/>
          <note len="12" pan="0" vol="200" pos="672" key="45"/>
          <note len="12" pan="0" vol="200" pos="684" key="45"/>
          <note len="12" pan="0" vol="200" pos="696" key="45"/>
          <note len="12" pan="0" vol="200" pos="708" key="45"/>
          <note len="24" pan="0" vol="200" pos="720" key="45"/>
          <note len="12" pan="0" vol="200" pos="744" key="45"/>
          <note len="12" pan="0" vol="200" pos="756" key="45"/>
          <note len="24" pan="0" vol="200" pos="768" key="43"/>
          <note len="12" pan="0" vol="200" pos="792" key="43"/>
          <note len="12" pan="0" vol="200" pos="804" key="43"/>
          <note len="12" pan="0" vol="200" pos="816" key="43"/>
          <note len="12" pan="0" vol="200" pos="828" key="43"/>
          <note len="24" pan="0" vol="200" pos="840" key="43"/>
          <note len="12" pan="0" vol="200" pos="864" key="43"/>
          <note len="12" pan="0" vol="200" pos="876" key="43"/>
          <note len="12" pan="0" vol="200" pos="888" key="43"/>
          <note len="12" pan="0" vol="200" pos="900" key="43"/>
          <note len="24" pan="0" vol="200" pos="912" key="43"/>
          <note len="12" pan="0" vol="200" pos="936" key="43"/>
          <note len="12" pan="0" vol="200" pos="948" key="43"/>
          <note len="24" pan="0" vol="200" pos="960" key="43"/>
          <note len="12" pan="0" vol="200" pos="984" key="43"/>
          <note len="12" pan="0" vol="200" pos="996" key="43"/>
          <note len="12" pan="0" vol="200" pos="1008" key="43"/>
          <note len="12" pan="0" vol="200" pos="1020" key="43"/>
          <note len="24" pan="0" vol="200" pos="1032" key="43"/>
          <note len="12" pan="0" vol="200" pos="1056" key="43"/>
          <note len="12" pan="0" vol="200" pos="1068" key="43"/>
          <note len="12" pan="0" vol="200" pos="1080" key="43"/>
          <note len="12" pan="0" vol="200" pos="1092" key="43"/>
          <note len="24" pan="0" vol="200" pos="1104" key="43"/>
          <note len="12" pan="0" vol="200" pos="1128" key="43"/>
          <note len="12" pan="0" vol="200" pos="1140" key="43"/>
          <note len="24" pan="0" vol="200" pos="1152" key="38"/>
          <note len="12" pan="0" vol="200" pos="1176" key="38"/>
          <note len="12" pan="0" vol="200" pos="1188" key="38"/>
          <note len="12" pan="0" vol="200" pos="1200" key="38"/>
          <note len="12" pan="0" vol="200" pos="1212" key="38"/>
          <note len="24" pan="0" vol="200" pos="1224" key="38"/>
          <note len="12" pan="0" vol="200" pos="1248" key="38"/>
          <note len="12" pan="0" vol="200" pos="1260" key="38"/>
          <note len="12" pan="0" vol="200" pos="1272" key="38"/>
          <note len="12" pan="0" vol="200" pos="1284" key="38"/>
          <note len="24" pan="0" vol="200" pos="1296" key="38"/>
          <note len="12" pan="0" vol="200" pos="1320" key="38"/>
          <note len="12" pan="0" vol="200" pos="1332" key="38"/>
          <note len="24" pan="0" vol="200" pos="1344" key="45"/>
          <note len="12" pan="0" vol="200" pos="1368" key="45"/>
          <note len="12" pan="0" vol="200" pos="1380" key="45"/>
          <note len="12" pan="0" vol="200" pos="1392" key="45"/>
          <note len="12" pan="0" vol="200" pos="1404" key="45"/>
          <note len="24" pan="0" vol="200" pos="1416" key="45"/>
          <note len="12" pan="0" vol="200" pos="1440" key="45"/>
          <note len="12" pan="0" vol="200" pos="1452" key="45"/>
          <note len="12" pan="0" vol="200" pos="1464" key="45"/>
          <note len="12" pan="0" vol="200" pos="1476" key="45"/>
          <note len="24" pan="0" vol="200" pos="1488" key="45"/>
          <note len="12" pan="0" vol="200" pos="1512" key="45"/>
          <note len="12" pan="0" vol="200" pos="1524" key="45"/>
        </pattern>
        <pattern type="1" name="bass fender jazz (1,379kb)" steps="16" pos="43008" muted="0">
          <note len="384" pan="0" vol="200" pos="0" key="35"/>
          <note len="384" pan="0" vol="200" pos="384" key="35"/>
        </pattern>
        <pattern type="1" name="bass fender jazz (1,379kb)" steps="16" pos="44544" muted="0">
          <note len="384" pan="0" vol="200" pos="0" key="35"/>
          <note len="384" pan="0" vol="200" pos="384" key="35"/>
        </pattern>
        <pattern type="1" name="bass fender jazz (1,379kb)" steps="16" pos="43776" muted="0">
          <note len="384" pan="0" vol="200" pos="0" key="43"/>
          <note len="384" pan="0" vol="200" pos="384" key="43"/>
        </pattern>
        <pattern type="1" name="bass fender jazz (1,379kb)" steps="16" pos="45312" muted="0">
          <note len="384" pan="0" vol="200" pos="0" key="43"/>
          <note len="384" pan="0" vol="200" pos="384" key="45"/>
        </pattern>
        <pattern type="1" name="bass fender jazz (1,379kb)" steps="16" pos="46080" muted="0">
          <note len="384" pan="0" vol="200" pos="0" key="35"/>
        </pattern>
        <pattern type="1" name="bass fender jazz (1,379kb)" steps="16" pos="31872" muted="0">
          <note len="24" pan="0" vol="200" pos="0" key="50"/>
          <note len="12" pan="0" vol="200" pos="24" key="50"/>
          <note len="12" pan="0" vol="200" pos="36" key="50"/>
          <note len="12" pan="0" vol="200" pos="48" key="50"/>
          <note len="12" pan="0" vol="200" pos="60" key="50"/>
          <note len="24" pan="0" vol="200" pos="72" key="50"/>
          <note len="12" pan="0" vol="200" pos="96" key="50"/>
          <note len="12" pan="0" vol="200" pos="108" key="50"/>
          <note len="12" pan="0" vol="200" pos="120" key="50"/>
          <note len="12" pan="0" vol="200" pos="132" key="50"/>
          <note len="24" pan="0" vol="200" pos="144" key="50"/>
          <note len="12" pan="0" vol="200" pos="168" key="50"/>
          <note len="12" pan="0" vol="200" pos="180" key="50"/>
          <note len="30" pan="0" vol="200" pos="192" key="45"/>
          <note len="30" pan="0" vol="200" pos="240" key="45"/>
          <note len="30" pan="0" vol="200" pos="288" key="45"/>
          <note len="30" pan="0" vol="200" pos="336" key="43"/>
        </pattern>
      </track>
      <track type="0" name="Rhythm Guitar" muted="1" solo="0">
        <instrumenttrack pitch="0" usemasterpitch="1" pitchrange="1" pan="0" fxch="11" vol="200" basenote="57">
          <instrument name="carlapatchbay">
            <carlapatchbay>
              <CARLA-PROJECT VERSION="2.2">
                <EngineSettings>
                  <ForceStereo>false</ForceStereo>
                  <PreferPluginBridges>false</PreferPluginBridges>
                  <PreferUiBridges>true</PreferUiBridges>
                  <UIsAlwaysOnTop>false</UIsAlwaysOnTop>
                  <MaxParameters>200</MaxParameters>
                  <UIBridgesTimeout>4000</UIBridgesTimeout>
                  <LADSPA_PATH>/home/pass/.ladspa:/usr/lib/ladspa:/usr/local/lib/ladspa</LADSPA_PATH>
                  <DSSI_PATH>/home/pass/.dssi:/usr/lib/dssi:/usr/local/lib/dssi</DSSI_PATH>
                  <LV2_PATH>/home/pass/.lv2:/usr/lib/lv2:/usr/local/lib/lv2</LV2_PATH>
                  <VST2_PATH>/home/pass/.vst:/home/pass/.wine/drive_c/Program Files (x86)/VstPlugins:/home/pass/.wine/drive_c/Program Files/VstPlugins:/home/pass/vst:/usr/lib/lxvst:/usr/lib/vst:/usr/local/lib/lxvst:/usr/local/lib/vst/home/pass/.lxvst</VST2_PATH>
                  <VST3_PATH>/home/pass/.vst3:/home/pass/.wine/drive_c/Program Files (x86)/Common Files/VST3:/home/pass/.wine/drive_c/Program Files/Common Files/VST3:/usr/lib/vst3:/usr/local/lib/vst3</VST3_PATH>
                  <SF2_PATH>/home/pass/.sounds/sf2/home/pass/.sounds/sf3:/usr/share/soundfonts:/usr/share/sounds/sf2:/usr/share/sounds/sf3</SF2_PATH>
                  <SFZ_PATH>/home/pass/.sounds/sfz:/home/pass/samples:/usr/share/sounds/sfz</SFZ_PATH>
                </EngineSettings>
                <!-- sfizz -->
                <Plugin>
                  <Info>
                    <Type>LV2</Type>
                    <Name>sfizz</Name>
                    <URI>http://sfztools.github.io/sfizz</URI>
                  </Info>
                  <Data>
                    <Active>Yes</Active>
                    <ControlChannel>1</ControlChannel>
                    <Options>0x3f0</Options>
                    <Parameter>
                      <Index>0</Index>
                      <Name>Volume</Name>
                      <Symbol>volume</Symbol>
                      <Value>0</Value>
                    </Parameter>
                    <Parameter>
                      <Index>1</Index>
                      <Name>Polyphony</Name>
                      <Symbol>num_voices</Symbol>
                      <Value>64</Value>
                    </Parameter>
                    <Parameter>
                      <Index>2</Index>
                      <Name>Internal oversampling factor</Name>
                      <Symbol>oversampling</Symbol>
                      <Value>1</Value>
                    </Parameter>
                    <Parameter>
                      <Index>3</Index>
                      <Name>Preload size</Name>
                      <Symbol>preload_size</Symbol>
                      <Value>8192</Value>
                    </Parameter>
                    <CustomData>
                      <Type>http://lv2plug.in/ns/ext/atom#Path</Type>
                      <Key>http://sfztools.github.io/sfizz:sfzfile</Key>
                      <Value>/home/pass/samples/fakeguitar/_fakeguitar1_integrated.sfz</Value>
                    </CustomData>
                    <CustomData>
                      <Type>http://lv2plug.in/ns/ext/atom#Int</Type>
                      <Key>http://sfztools.github.io/sfizz:numvoices</Key>
                      <Value>QAAAAA==</Value>
                    </CustomData>
                    <CustomData>
                      <Type>http://lv2plug.in/ns/ext/atom#Int</Type>
                      <Key>http://sfztools.github.io/sfizz:preload_size</Key>
                      <Value>ACAAAA==</Value>
                    </CustomData>
                    <CustomData>
                      <Type>http://lv2plug.in/ns/ext/atom#Int</Type>
                      <Key>http://sfztools.github.io/sfizz:oversampling</Key>
                      <Value>AQAAAA==</Value>
                    </CustomData>
                  </Data>
                </Plugin>
                <!-- sfizz -->
                <Plugin>
                  <Info>
                    <Type>LV2</Type>
                    <Name>sfizz (2)</Name>
                    <URI>http://sfztools.github.io/sfizz</URI>
                  </Info>
                  <Data>
                    <Active>Yes</Active>
                    <ControlChannel>1</ControlChannel>
                    <Options>0x3f0</Options>
                    <Parameter>
                      <Index>0</Index>
                      <Name>Volume</Name>
                      <Symbol>volume</Symbol>
                      <Value>0</Value>
                    </Parameter>
                    <Parameter>
                      <Index>1</Index>
                      <Name>Polyphony</Name>
                      <Symbol>num_voices</Symbol>
                      <Value>64</Value>
                    </Parameter>
                    <Parameter>
                      <Index>2</Index>
                      <Name>Internal oversampling factor</Name>
                      <Symbol>oversampling</Symbol>
                      <Value>1</Value>
                    </Parameter>
                    <Parameter>
                      <Index>3</Index>
                      <Name>Preload size</Name>
                      <Symbol>preload_size</Symbol>
                      <Value>8192</Value>
                    </Parameter>
                    <CustomData>
                      <Type>http://lv2plug.in/ns/ext/atom#Path</Type>
                      <Key>http://sfztools.github.io/sfizz:sfzfile</Key>
                      <Value>/home/pass/samples/fakeguitar/_fakeguitar2_integrated.sfz</Value>
                    </CustomData>
                    <CustomData>
                      <Type>http://lv2plug.in/ns/ext/atom#Int</Type>
                      <Key>http://sfztools.github.io/sfizz:numvoices</Key>
                      <Value>QAAAAA==</Value>
                    </CustomData>
                    <CustomData>
                      <Type>http://lv2plug.in/ns/ext/atom#Int</Type>
                      <Key>http://sfztools.github.io/sfizz:preload_size</Key>
                      <Value>ACAAAA==</Value>
                    </CustomData>
                    <CustomData>
                      <Type>http://lv2plug.in/ns/ext/atom#Int</Type>
                      <Key>http://sfztools.github.io/sfizz:oversampling</Key>
                      <Value>AQAAAA==</Value>
                    </CustomData>
                  </Data>
                </Plugin>
                <Patchbay>
                  <Connection>
                    <Source>Midi Input:Capture 1</Source>
                    <Target>sfizz:events-in</Target>
                  </Connection>
                  <Connection>
                    <Source>sfizz:Left Output</Source>
                    <Target>Audio Output:Left</Target>
                  </Connection>
                  <Connection>
                    <Source>sfizz:Right Output</Source>
                    <Target>Audio Output:Left</Target>
                  </Connection>
                  <Connection>
                    <Source>Midi Input:Capture 1</Source>
                    <Target>sfizz (2):events-in</Target>
                  </Connection>
                  <Connection>
                    <Source>sfizz (2):Right Output</Source>
                    <Target>Audio Output:Right</Target>
                  </Connection>
                  <Connection>
                    <Source>sfizz (2):Left Output</Source>
                    <Target>Audio Output:Right</Target>
                  </Connection>
                  <Positions>
                    <Position x1="1711" y1="1350" pluginId="1">
                      <Name>sfizz (2)</Name>
                    </Position>
                    <Position x1="1704" y1="1297" pluginId="0">
                      <Name>sfizz</Name>
                    </Position>
                  </Positions>
                </Patchbay>
              </CARLA-PROJECT>
            </carlapatchbay>
          </instrument>
          <eldata fcut="14000" fres="0.5" fwet="0" ftype="0">
            <elvol sustain="0.5" lspd_denominator="4" rel="0.1" lspd_numerator="4" lspd_syncmode="0" x100="0" pdel="0" amt="0" userwavefile="" hold="0.5" dec="0.5" lspd="0.1" lamt="0" latt="0" lpdel="0" ctlenvamt="0" att="0" lshp="0"/>
            <elcut sustain="0.5" lspd_denominator="4" rel="0.1" lspd_numerator="4" lspd_syncmode="0" x100="0" pdel="0" amt="0" userwavefile="" hold="0.5" dec="0.5" lspd="0.1" lamt="0" latt="0" lpdel="0" ctlenvamt="0" att="0" lshp="0"/>
            <elres sustain="0.5" lspd_denominator="4" rel="0.1" lspd_numerator="4" lspd_syncmode="0" x100="0" pdel="0" amt="0" userwavefile="" hold="0.5" dec="0.5" lspd="0.1" lamt="0" latt="0" lpdel="0" ctlenvamt="0" att="0" lshp="0"/>
          </eldata>
          <chordcreator chordrange="1" chord="0" chord-enabled="0"/>
          <arpeggiator arpgate="100" arpskip="0" arp-enabled="0" arpmiss="0" arptime_denominator="4" arpdir="0" arpmode="0" arptime_numerator="4" arp="0" arptime="200" arprange="1" arpcycle="0" arptime_syncmode="0"/>
          <midiport fixedinputvelocity="-1" outputcontroller="0" inputchannel="0" outputchannel="1" basevelocity="127" fixedoutputnote="-1" inputcontroller="0" outputprogram="1" readable="0" writable="0" fixedoutputvelocity="-1"/>
          <fxchain numofeffects="0" enabled="0"/>
        </instrumenttrack>
        <pattern type="1" name="Rhythm Guitar" steps="16" pos="6144" muted="0">
          <note len="384" pan="0" vol="100" pos="0" key="42"/>
          <note len="384" pan="0" vol="100" pos="0" key="35"/>
          <note len="24" pan="0" vol="100" pos="0" key="0"/>
          <note len="384" pan="0" vol="100" pos="384" key="42"/>
          <note len="384" pan="0" vol="100" pos="384" key="35"/>
        </pattern>
        <pattern type="1" name="Rhythm Guitar" steps="16" pos="6912" muted="0">
          <note len="384" pan="0" vol="100" pos="0" key="50"/>
          <note len="384" pan="0" vol="100" pos="0" key="43"/>
          <note len="24" pan="0" vol="100" pos="0" key="0"/>
          <note len="384" pan="0" vol="100" pos="384" key="50"/>
          <note len="384" pan="0" vol="100" pos="384" key="43"/>
        </pattern>
        <pattern type="1" name="Rhythm Guitar" steps="16" pos="7680" muted="0">
          <note len="384" pan="0" vol="100" pos="0" key="42"/>
          <note len="384" pan="0" vol="100" pos="0" key="35"/>
          <note len="24" pan="0" vol="100" pos="0" key="0"/>
          <note len="384" pan="0" vol="100" pos="384" key="42"/>
          <note len="384" pan="0" vol="100" pos="384" key="35"/>
        </pattern>
        <pattern type="1" name="Rhythm Guitar" steps="16" pos="8448" muted="0">
          <note len="384" pan="0" vol="100" pos="0" key="50"/>
          <note len="384" pan="0" vol="100" pos="0" key="43"/>
          <note len="24" pan="0" vol="100" pos="0" key="0"/>
          <note len="192" pan="0" vol="100" pos="384" key="50"/>
          <note len="192" pan="0" vol="100" pos="384" key="43"/>
          <note len="48" pan="0" vol="100" pos="576" key="50"/>
          <note len="48" pan="0" vol="100" pos="576" key="43"/>
        </pattern>
        <pattern type="1" name="Rhythm Guitar" steps="16" pos="9216" muted="0">
          <note len="384" pan="0" vol="100" pos="0" key="42"/>
          <note len="384" pan="0" vol="100" pos="0" key="35"/>
          <note len="24" pan="0" vol="100" pos="0" key="0"/>
          <note len="384" pan="0" vol="100" pos="384" key="42"/>
          <note len="384" pan="0" vol="100" pos="384" key="35"/>
        </pattern>
        <pattern type="1" name="Rhythm Guitar" steps="16" pos="9984" muted="0">
          <note len="384" pan="0" vol="100" pos="0" key="50"/>
          <note len="384" pan="0" vol="100" pos="0" key="43"/>
          <note len="24" pan="0" vol="100" pos="0" key="0"/>
          <note len="384" pan="0" vol="100" pos="384" key="50"/>
          <note len="384" pan="0" vol="100" pos="384" key="43"/>
        </pattern>
        <pattern type="1" name="Rhythm Guitar" steps="16" pos="10752" muted="0">
          <note len="384" pan="0" vol="100" pos="0" key="42"/>
          <note len="384" pan="0" vol="100" pos="0" key="35"/>
          <note len="24" pan="0" vol="100" pos="0" key="0"/>
          <note len="384" pan="0" vol="100" pos="384" key="42"/>
          <note len="384" pan="0" vol="100" pos="384" key="35"/>
        </pattern>
        <pattern type="1" name="Rhythm Guitar" steps="16" pos="11520" muted="0">
          <note len="384" pan="0" vol="100" pos="0" key="50"/>
          <note len="384" pan="0" vol="100" pos="0" key="43"/>
          <note len="24" pan="0" vol="100" pos="0" key="0"/>
          <note len="384" pan="0" vol="100" pos="384" key="52"/>
          <note len="384" pan="0" vol="100" pos="384" key="45"/>
        </pattern>
        <pattern type="1" name="Rhythm Guitar" steps="16" pos="15360" muted="0">
          <note len="24" pan="0" vol="100" pos="0" key="42"/>
          <note len="24" pan="0" vol="100" pos="0" key="35"/>
          <note len="12" pan="0" vol="100" pos="0" key="0"/>
          <note len="12" pan="0" vol="100" pos="12" key="1"/>
          <note len="12" pan="0" vol="100" pos="24" key="35"/>
          <note len="12" pan="0" vol="100" pos="36" key="35"/>
          <note len="12" pan="0" vol="100" pos="48" key="35"/>
          <note len="12" pan="0" vol="100" pos="60" key="35"/>
          <note len="24" pan="0" vol="100" pos="72" key="42"/>
          <note len="24" pan="0" vol="100" pos="72" key="35"/>
          <note len="12" pan="0" vol="100" pos="72" key="0"/>
          <note len="12" pan="0" vol="100" pos="84" key="1"/>
          <note len="12" pan="0" vol="100" pos="96" key="35"/>
          <note len="12" pan="0" vol="100" pos="108" key="35"/>
          <note len="12" pan="0" vol="100" pos="120" key="35"/>
          <note len="12" pan="0" vol="100" pos="132" key="35"/>
          <note len="24" pan="0" vol="100" pos="144" key="42"/>
          <note len="24" pan="0" vol="100" pos="144" key="35"/>
          <note len="12" pan="0" vol="100" pos="144" key="0"/>
          <note len="12" pan="0" vol="100" pos="156" key="1"/>
          <note len="12" pan="0" vol="100" pos="168" key="35"/>
          <note len="12" pan="0" vol="100" pos="180" key="35"/>
          <note len="24" pan="0" vol="100" pos="192" key="42"/>
          <note len="24" pan="0" vol="100" pos="192" key="35"/>
          <note len="12" pan="0" vol="100" pos="192" key="0"/>
          <note len="12" pan="0" vol="100" pos="204" key="1"/>
          <note len="12" pan="0" vol="100" pos="216" key="35"/>
          <note len="12" pan="0" vol="100" pos="228" key="35"/>
          <note len="12" pan="0" vol="100" pos="240" key="35"/>
          <note len="12" pan="0" vol="100" pos="252" key="35"/>
          <note len="24" pan="0" vol="100" pos="264" key="42"/>
          <note len="24" pan="0" vol="100" pos="264" key="35"/>
          <note len="12" pan="0" vol="100" pos="264" key="0"/>
          <note len="12" pan="0" vol="100" pos="276" key="1"/>
          <note len="12" pan="0" vol="100" pos="288" key="35"/>
          <note len="12" pan="0" vol="100" pos="300" key="35"/>
          <note len="12" pan="0" vol="100" pos="312" key="35"/>
          <note len="12" pan="0" vol="100" pos="324" key="35"/>
          <note len="24" pan="0" vol="100" pos="336" key="42"/>
          <note len="24" pan="0" vol="100" pos="336" key="35"/>
          <note len="12" pan="0" vol="100" pos="336" key="0"/>
          <note len="12" pan="0" vol="100" pos="348" key="1"/>
          <note len="12" pan="0" vol="100" pos="360" key="35"/>
          <note len="12" pan="0" vol="100" pos="372" key="35"/>
        </pattern>
        <pattern type="1" name="Rhythm Guitar" steps="16" pos="15744" muted="0">
          <note len="24" pan="0" vol="100" pos="0" key="50"/>
          <note len="24" pan="0" vol="100" pos="0" key="43"/>
          <note len="12" pan="0" vol="100" pos="0" key="0"/>
          <note len="12" pan="0" vol="100" pos="12" key="1"/>
          <note len="12" pan="0" vol="100" pos="24" key="43"/>
          <note len="12" pan="0" vol="100" pos="36" key="43"/>
          <note len="12" pan="0" vol="100" pos="48" key="43"/>
          <note len="12" pan="0" vol="100" pos="60" key="43"/>
          <note len="24" pan="0" vol="100" pos="72" key="50"/>
          <note len="24" pan="0" vol="100" pos="72" key="43"/>
          <note len="12" pan="0" vol="100" pos="72" key="0"/>
          <note len="12" pan="0" vol="100" pos="84" key="1"/>
          <note len="12" pan="0" vol="100" pos="96" key="43"/>
          <note len="12" pan="0" vol="100" pos="108" key="43"/>
          <note len="12" pan="0" vol="100" pos="120" key="43"/>
          <note len="12" pan="0" vol="100" pos="132" key="43"/>
          <note len="24" pan="0" vol="100" pos="144" key="50"/>
          <note len="24" pan="0" vol="100" pos="144" key="43"/>
          <note len="12" pan="0" vol="100" pos="144" key="0"/>
          <note len="12" pan="0" vol="100" pos="156" key="1"/>
          <note len="12" pan="0" vol="100" pos="168" key="43"/>
          <note len="12" pan="0" vol="100" pos="180" key="43"/>
          <note len="24" pan="0" vol="100" pos="192" key="50"/>
          <note len="24" pan="0" vol="100" pos="192" key="43"/>
          <note len="12" pan="0" vol="100" pos="192" key="0"/>
          <note len="12" pan="0" vol="100" pos="204" key="1"/>
          <note len="12" pan="0" vol="100" pos="216" key="43"/>
          <note len="12" pan="0" vol="100" pos="228" key="43"/>
          <note len="12" pan="0" vol="100" pos="240" key="43"/>
          <note len="12" pan="0" vol="100" pos="252" key="43"/>
          <note len="24" pan="0" vol="100" pos="264" key="50"/>
          <note len="24" pan="0" vol="100" pos="264" key="43"/>
          <note len="12" pan="0" vol="100" pos="264" key="0"/>
          <note len="12" pan="0" vol="100" pos="276" key="1"/>
          <note len="12" pan="0" vol="100" pos="288" key="43"/>
          <note len="12" pan="0" vol="100" pos="300" key="43"/>
          <note len="12" pan="0" vol="100" pos="312" key="43"/>
          <note len="12" pan="0" vol="100" pos="324" key="43"/>
          <note len="24" pan="0" vol="100" pos="336" key="50"/>
          <note len="24" pan="0" vol="100" pos="336" key="43"/>
          <note len="12" pan="0" vol="100" pos="336" key="0"/>
          <note len="12" pan="0" vol="100" pos="348" key="1"/>
          <note len="12" pan="0" vol="100" pos="360" key="43"/>
          <note len="12" pan="0" vol="100" pos="372" key="43"/>
        </pattern>
        <pattern type="1" name="Rhythm Guitar" steps="16" pos="16128" muted="0">
          <note len="24" pan="0" vol="100" pos="0" key="52"/>
          <note len="24" pan="0" vol="100" pos="0" key="45"/>
          <note len="12" pan="0" vol="100" pos="0" key="0"/>
          <note len="12" pan="0" vol="100" pos="12" key="1"/>
          <note len="12" pan="0" vol="100" pos="24" key="45"/>
          <note len="12" pan="0" vol="100" pos="36" key="45"/>
          <note len="12" pan="0" vol="100" pos="48" key="45"/>
          <note len="12" pan="0" vol="100" pos="60" key="45"/>
          <note len="24" pan="0" vol="100" pos="72" key="52"/>
          <note len="24" pan="0" vol="100" pos="72" key="45"/>
          <note len="12" pan="0" vol="100" pos="72" key="0"/>
          <note len="12" pan="0" vol="100" pos="84" key="1"/>
          <note len="12" pan="0" vol="100" pos="96" key="45"/>
          <note len="12" pan="0" vol="100" pos="108" key="45"/>
          <note len="12" pan="0" vol="100" pos="120" key="45"/>
          <note len="12" pan="0" vol="100" pos="132" key="45"/>
          <note len="24" pan="0" vol="100" pos="144" key="52"/>
          <note len="24" pan="0" vol="100" pos="144" key="45"/>
          <note len="12" pan="0" vol="100" pos="144" key="0"/>
          <note len="12" pan="0" vol="100" pos="156" key="1"/>
          <note len="12" pan="0" vol="100" pos="168" key="45"/>
          <note len="12" pan="0" vol="100" pos="180" key="45"/>
          <note len="24" pan="0" vol="100" pos="192" key="52"/>
          <note len="24" pan="0" vol="100" pos="192" key="45"/>
          <note len="12" pan="0" vol="100" pos="192" key="0"/>
          <note len="12" pan="0" vol="100" pos="204" key="1"/>
          <note len="12" pan="0" vol="100" pos="216" key="45"/>
          <note len="12" pan="0" vol="100" pos="228" key="45"/>
          <note len="12" pan="0" vol="100" pos="240" key="45"/>
          <note len="12" pan="0" vol="100" pos="252" key="45"/>
          <note len="24" pan="0" vol="100" pos="264" key="52"/>
          <note len="24" pan="0" vol="100" pos="264" key="45"/>
          <note len="12" pan="0" vol="100" pos="264" key="0"/>
          <note len="12" pan="0" vol="100" pos="276" key="1"/>
          <note len="12" pan="0" vol="100" pos="288" key="45"/>
          <note len="12" pan="0" vol="100" pos="300" key="45"/>
          <note len="12" pan="0" vol="100" pos="312" key="45"/>
          <note len="12" pan="0" vol="100" pos="324" key="45"/>
          <note len="24" pan="0" vol="100" pos="336" key="52"/>
          <note len="24" pan="0" vol="100" pos="336" key="45"/>
          <note len="12" pan="0" vol="100" pos="336" key="0"/>
          <note len="12" pan="0" vol="100" pos="348" key="1"/>
          <note len="12" pan="0" vol="100" pos="360" key="45"/>
          <note len="12" pan="0" vol="100" pos="372" key="45"/>
        </pattern>
        <pattern type="1" name="Rhythm Guitar" steps="16" pos="16512" muted="0">
          <note len="24" pan="0" vol="100" pos="0" key="45"/>
          <note len="24" pan="0" vol="100" pos="0" key="38"/>
          <note len="12" pan="0" vol="100" pos="0" key="0"/>
          <note len="12" pan="0" vol="100" pos="12" key="1"/>
          <note len="12" pan="0" vol="100" pos="24" key="38"/>
          <note len="12" pan="0" vol="100" pos="36" key="38"/>
          <note len="12" pan="0" vol="100" pos="48" key="38"/>
          <note len="12" pan="0" vol="100" pos="60" key="38"/>
          <note len="24" pan="0" vol="100" pos="72" key="45"/>
          <note len="24" pan="0" vol="100" pos="72" key="38"/>
          <note len="12" pan="0" vol="100" pos="72" key="0"/>
          <note len="12" pan="0" vol="100" pos="84" key="1"/>
          <note len="12" pan="0" vol="100" pos="96" key="38"/>
          <note len="12" pan="0" vol="100" pos="108" key="38"/>
          <note len="12" pan="0" vol="100" pos="120" key="38"/>
          <note len="12" pan="0" vol="100" pos="132" key="38"/>
          <note len="24" pan="0" vol="100" pos="144" key="45"/>
          <note len="24" pan="0" vol="100" pos="144" key="38"/>
          <note len="12" pan="0" vol="100" pos="144" key="0"/>
          <note len="12" pan="0" vol="100" pos="156" key="1"/>
          <note len="12" pan="0" vol="100" pos="168" key="38"/>
          <note len="12" pan="0" vol="100" pos="180" key="38"/>
          <note len="24" pan="0" vol="100" pos="192" key="45"/>
          <note len="24" pan="0" vol="100" pos="192" key="38"/>
          <note len="12" pan="0" vol="100" pos="192" key="0"/>
          <note len="12" pan="0" vol="100" pos="204" key="1"/>
          <note len="12" pan="0" vol="100" pos="216" key="38"/>
          <note len="12" pan="0" vol="100" pos="228" key="38"/>
          <note len="12" pan="0" vol="100" pos="240" key="38"/>
          <note len="12" pan="0" vol="100" pos="252" key="38"/>
          <note len="24" pan="0" vol="100" pos="264" key="45"/>
          <note len="24" pan="0" vol="100" pos="264" key="38"/>
          <note len="12" pan="0" vol="100" pos="264" key="0"/>
          <note len="12" pan="0" vol="100" pos="276" key="1"/>
          <note len="12" pan="0" vol="100" pos="288" key="38"/>
          <note len="12" pan="0" vol="100" pos="300" key="38"/>
          <note len="12" pan="0" vol="100" pos="312" key="38"/>
          <note len="12" pan="0" vol="100" pos="324" key="38"/>
          <note len="24" pan="0" vol="100" pos="336" key="45"/>
          <note len="24" pan="0" vol="100" pos="336" key="38"/>
          <note len="12" pan="0" vol="100" pos="336" key="0"/>
          <note len="12" pan="0" vol="100" pos="348" key="1"/>
          <note len="12" pan="0" vol="100" pos="360" key="38"/>
          <note len="12" pan="0" vol="100" pos="372" key="38"/>
        </pattern>
        <pattern type="1" name="Rhythm Guitar" steps="16" pos="16896" muted="0">
          <note len="24" pan="0" vol="100" pos="0" key="42"/>
          <note len="24" pan="0" vol="100" pos="0" key="35"/>
          <note len="12" pan="0" vol="100" pos="0" key="0"/>
          <note len="12" pan="0" vol="100" pos="12" key="1"/>
          <note len="12" pan="0" vol="100" pos="24" key="35"/>
          <note len="12" pan="0" vol="100" pos="36" key="35"/>
          <note len="12" pan="0" vol="100" pos="48" key="35"/>
          <note len="12" pan="0" vol="100" pos="60" key="35"/>
          <note len="24" pan="0" vol="100" pos="72" key="42"/>
          <note len="24" pan="0" vol="100" pos="72" key="35"/>
          <note len="12" pan="0" vol="100" pos="72" key="0"/>
          <note len="12" pan="0" vol="100" pos="84" key="1"/>
          <note len="12" pan="0" vol="100" pos="96" key="35"/>
          <note len="12" pan="0" vol="100" pos="108" key="35"/>
          <note len="12" pan="0" vol="100" pos="120" key="35"/>
          <note len="12" pan="0" vol="100" pos="132" key="35"/>
          <note len="24" pan="0" vol="100" pos="144" key="42"/>
          <note len="24" pan="0" vol="100" pos="144" key="35"/>
          <note len="12" pan="0" vol="100" pos="144" key="0"/>
          <note len="12" pan="0" vol="100" pos="156" key="1"/>
          <note len="12" pan="0" vol="100" pos="168" key="35"/>
          <note len="12" pan="0" vol="100" pos="180" key="35"/>
          <note len="24" pan="0" vol="100" pos="192" key="42"/>
          <note len="24" pan="0" vol="100" pos="192" key="35"/>
          <note len="12" pan="0" vol="100" pos="192" key="0"/>
          <note len="12" pan="0" vol="100" pos="204" key="1"/>
          <note len="12" pan="0" vol="100" pos="216" key="35"/>
          <note len="12" pan="0" vol="100" pos="228" key="35"/>
          <note len="12" pan="0" vol="100" pos="240" key="35"/>
          <note len="12" pan="0" vol="100" pos="252" key="35"/>
          <note len="24" pan="0" vol="100" pos="264" key="42"/>
          <note len="24" pan="0" vol="100" pos="264" key="35"/>
          <note len="12" pan="0" vol="100" pos="264" key="0"/>
          <note len="12" pan="0" vol="100" pos="276" key="1"/>
          <note len="12" pan="0" vol="100" pos="288" key="35"/>
          <note len="12" pan="0" vol="100" pos="300" key="35"/>
          <note len="12" pan="0" vol="100" pos="312" key="35"/>
          <note len="12" pan="0" vol="100" pos="324" key="35"/>
          <note len="24" pan="0" vol="100" pos="336" key="42"/>
          <note len="24" pan="0" vol="100" pos="336" key="35"/>
          <note len="12" pan="0" vol="100" pos="336" key="0"/>
          <note len="12" pan="0" vol="100" pos="348" key="1"/>
          <note len="12" pan="0" vol="100" pos="360" key="35"/>
          <note len="12" pan="0" vol="100" pos="372" key="35"/>
        </pattern>
        <pattern type="1" name="Rhythm Guitar" steps="16" pos="17280" muted="0">
          <note len="24" pan="0" vol="100" pos="0" key="50"/>
          <note len="24" pan="0" vol="100" pos="0" key="43"/>
          <note len="12" pan="0" vol="100" pos="0" key="0"/>
          <note len="12" pan="0" vol="100" pos="12" key="1"/>
          <note len="12" pan="0" vol="100" pos="24" key="43"/>
          <note len="12" pan="0" vol="100" pos="36" key="43"/>
          <note len="12" pan="0" vol="100" pos="48" key="43"/>
          <note len="12" pan="0" vol="100" pos="60" key="43"/>
          <note len="24" pan="0" vol="100" pos="72" key="50"/>
          <note len="24" pan="0" vol="100" pos="72" key="43"/>
          <note len="12" pan="0" vol="100" pos="72" key="0"/>
          <note len="12" pan="0" vol="100" pos="84" key="1"/>
          <note len="12" pan="0" vol="100" pos="96" key="43"/>
          <note len="12" pan="0" vol="100" pos="108" key="43"/>
          <note len="12" pan="0" vol="100" pos="120" key="43"/>
          <note len="12" pan="0" vol="100" pos="132" key="43"/>
          <note len="24" pan="0" vol="100" pos="144" key="50"/>
          <note len="24" pan="0" vol="100" pos="144" key="43"/>
          <note len="12" pan="0" vol="100" pos="144" key="0"/>
          <note len="12" pan="0" vol="100" pos="156" key="1"/>
          <note len="12" pan="0" vol="100" pos="168" key="43"/>
          <note len="12" pan="0" vol="100" pos="180" key="43"/>
          <note len="24" pan="0" vol="100" pos="192" key="50"/>
          <note len="24" pan="0" vol="100" pos="192" key="43"/>
          <note len="12" pan="0" vol="100" pos="192" key="0"/>
          <note len="12" pan="0" vol="100" pos="204" key="1"/>
          <note len="12" pan="0" vol="100" pos="216" key="43"/>
          <note len="12" pan="0" vol="100" pos="228" key="43"/>
          <note len="12" pan="0" vol="100" pos="240" key="43"/>
          <note len="12" pan="0" vol="100" pos="252" key="43"/>
          <note len="24" pan="0" vol="100" pos="264" key="50"/>
          <note len="24" pan="0" vol="100" pos="264" key="43"/>
          <note len="12" pan="0" vol="100" pos="264" key="0"/>
          <note len="12" pan="0" vol="100" pos="276" key="1"/>
          <note len="12" pan="0" vol="100" pos="288" key="43"/>
          <note len="12" pan="0" vol="100" pos="300" key="43"/>
          <note len="12" pan="0" vol="100" pos="312" key="43"/>
          <note len="12" pan="0" vol="100" pos="324" key="43"/>
          <note len="24" pan="0" vol="100" pos="336" key="50"/>
          <note len="24" pan="0" vol="100" pos="336" key="43"/>
          <note len="12" pan="0" vol="100" pos="336" key="0"/>
          <note len="12" pan="0" vol="100" pos="348" key="1"/>
          <note len="12" pan="0" vol="100" pos="360" key="43"/>
          <note len="12" pan="0" vol="100" pos="372" key="43"/>
        </pattern>
        <pattern type="1" name="Rhythm Guitar" steps="16" pos="17664" muted="0">
          <note len="24" pan="0" vol="100" pos="0" key="52"/>
          <note len="24" pan="0" vol="100" pos="0" key="45"/>
          <note len="12" pan="0" vol="100" pos="0" key="0"/>
          <note len="12" pan="0" vol="100" pos="12" key="1"/>
          <note len="12" pan="0" vol="100" pos="24" key="45"/>
          <note len="12" pan="0" vol="100" pos="36" key="45"/>
          <note len="12" pan="0" vol="100" pos="48" key="45"/>
          <note len="12" pan="0" vol="100" pos="60" key="45"/>
          <note len="24" pan="0" vol="100" pos="72" key="52"/>
          <note len="24" pan="0" vol="100" pos="72" key="45"/>
          <note len="12" pan="0" vol="100" pos="72" key="0"/>
          <note len="12" pan="0" vol="100" pos="84" key="1"/>
          <note len="12" pan="0" vol="100" pos="96" key="45"/>
          <note len="12" pan="0" vol="100" pos="108" key="45"/>
          <note len="12" pan="0" vol="100" pos="120" key="45"/>
          <note len="12" pan="0" vol="100" pos="132" key="45"/>
          <note len="24" pan="0" vol="100" pos="144" key="52"/>
          <note len="24" pan="0" vol="100" pos="144" key="45"/>
          <note len="12" pan="0" vol="100" pos="144" key="0"/>
          <note len="12" pan="0" vol="100" pos="156" key="1"/>
          <note len="12" pan="0" vol="100" pos="168" key="45"/>
          <note len="12" pan="0" vol="100" pos="180" key="45"/>
          <note len="24" pan="0" vol="100" pos="192" key="52"/>
          <note len="24" pan="0" vol="100" pos="192" key="45"/>
          <note len="12" pan="0" vol="100" pos="192" key="0"/>
          <note len="12" pan="0" vol="100" pos="204" key="1"/>
          <note len="12" pan="0" vol="100" pos="216" key="45"/>
          <note len="12" pan="0" vol="100" pos="228" key="45"/>
          <note len="12" pan="0" vol="100" pos="240" key="45"/>
          <note len="12" pan="0" vol="100" pos="252" key="45"/>
          <note len="24" pan="0" vol="100" pos="264" key="52"/>
          <note len="24" pan="0" vol="100" pos="264" key="45"/>
          <note len="12" pan="0" vol="100" pos="264" key="0"/>
          <note len="12" pan="0" vol="100" pos="276" key="1"/>
          <note len="12" pan="0" vol="100" pos="288" key="45"/>
          <note len="12" pan="0" vol="100" pos="300" key="45"/>
          <note len="12" pan="0" vol="100" pos="312" key="45"/>
          <note len="12" pan="0" vol="100" pos="324" key="45"/>
          <note len="24" pan="0" vol="100" pos="336" key="52"/>
          <note len="24" pan="0" vol="100" pos="336" key="45"/>
          <note len="12" pan="0" vol="100" pos="336" key="0"/>
          <note len="12" pan="0" vol="100" pos="348" key="1"/>
          <note len="12" pan="0" vol="100" pos="360" key="45"/>
          <note len="12" pan="0" vol="100" pos="372" key="45"/>
          <note len="24" pan="0" vol="100" pos="384" key="52"/>
          <note len="24" pan="0" vol="100" pos="384" key="45"/>
          <note len="12" pan="0" vol="100" pos="384" key="0"/>
          <note len="12" pan="0" vol="100" pos="396" key="1"/>
          <note len="12" pan="0" vol="100" pos="408" key="45"/>
          <note len="12" pan="0" vol="100" pos="420" key="45"/>
          <note len="12" pan="0" vol="100" pos="432" key="45"/>
          <note len="12" pan="0" vol="100" pos="444" key="45"/>
          <note len="24" pan="0" vol="100" pos="456" key="52"/>
          <note len="24" pan="0" vol="100" pos="456" key="45"/>
          <note len="12" pan="0" vol="100" pos="456" key="0"/>
          <note len="12" pan="0" vol="100" pos="468" key="1"/>
          <note len="12" pan="0" vol="100" pos="480" key="45"/>
          <note len="12" pan="0" vol="100" pos="492" key="45"/>
          <note len="12" pan="0" vol="100" pos="504" key="45"/>
          <note len="12" pan="0" vol="100" pos="516" key="45"/>
          <note len="24" pan="0" vol="100" pos="528" key="52"/>
          <note len="24" pan="0" vol="100" pos="528" key="45"/>
          <note len="12" pan="0" vol="100" pos="528" key="0"/>
          <note len="12" pan="0" vol="100" pos="540" key="1"/>
          <note len="12" pan="0" vol="100" pos="552" key="45"/>
          <note len="12" pan="0" vol="100" pos="564" key="45"/>
          <note len="24" pan="0" vol="100" pos="576" key="52"/>
          <note len="24" pan="0" vol="100" pos="576" key="45"/>
          <note len="12" pan="0" vol="100" pos="576" key="0"/>
          <note len="24" pan="0" vol="100" pos="624" key="52"/>
          <note len="24" pan="0" vol="100" pos="624" key="45"/>
          <note len="24" pan="0" vol="100" pos="672" key="52"/>
          <note len="24" pan="0" vol="100" pos="672" key="45"/>
          <note len="24" pan="0" vol="100" pos="720" key="52"/>
          <note len="24" pan="0" vol="100" pos="720" key="45"/>
        </pattern>
        <pattern type="1" name="Rhythm Guitar" steps="16" pos="18432" muted="0">
          <note len="384" pan="0" vol="100" pos="0" key="45"/>
          <note len="384" pan="0" vol="100" pos="0" key="38"/>
          <note len="384" pan="0" vol="100" pos="0" key="0"/>
          <note len="384" pan="0" vol="100" pos="384" key="52"/>
          <note len="384" pan="0" vol="100" pos="384" key="45"/>
          <note len="384" pan="0" vol="100" pos="768" key="50"/>
          <note len="384" pan="0" vol="100" pos="768" key="43"/>
          <note len="192" pan="0" vol="100" pos="1152" key="45"/>
          <note len="192" pan="0" vol="100" pos="1152" key="38"/>
          <note len="192" pan="0" vol="100" pos="1344" key="52"/>
          <note len="192" pan="0" vol="100" pos="1344" key="45"/>
        </pattern>
        <pattern type="1" name="Rhythm Guitar" steps="16" pos="19968" muted="0">
          <note len="384" pan="0" vol="100" pos="0" key="45"/>
          <note len="384" pan="0" vol="100" pos="0" key="38"/>
          <note len="384" pan="0" vol="100" pos="0" key="0"/>
          <note len="384" pan="0" vol="100" pos="384" key="52"/>
          <note len="384" pan="0" vol="100" pos="384" key="45"/>
          <note len="384" pan="0" vol="100" pos="768" key="50"/>
          <note len="384" pan="0" vol="100" pos="768" key="43"/>
          <note len="192" pan="0" vol="100" pos="1152" key="45"/>
          <note len="192" pan="0" vol="100" pos="1152" key="38"/>
          <note len="192" pan="0" vol="100" pos="1344" key="52"/>
          <note len="192" pan="0" vol="100" pos="1344" key="45"/>
        </pattern>
        <pattern type="1" name="Rhythm Guitar" steps="16" pos="21504" muted="0">
          <note len="24" pan="0" vol="100" pos="0" key="57"/>
          <note len="24" pan="0" vol="100" pos="0" key="50"/>
          <note len="12" pan="0" vol="100" pos="0" key="0"/>
          <note len="12" pan="0" vol="100" pos="12" key="1"/>
          <note len="12" pan="0" vol="100" pos="24" key="50"/>
          <note len="12" pan="0" vol="100" pos="36" key="50"/>
          <note len="12" pan="0" vol="100" pos="48" key="50"/>
          <note len="12" pan="0" vol="100" pos="60" key="50"/>
          <note len="24" pan="0" vol="100" pos="72" key="57"/>
          <note len="24" pan="0" vol="100" pos="72" key="50"/>
          <note len="12" pan="0" vol="100" pos="72" key="0"/>
          <note len="12" pan="0" vol="100" pos="84" key="1"/>
          <note len="12" pan="0" vol="100" pos="96" key="50"/>
          <note len="12" pan="0" vol="100" pos="108" key="50"/>
          <note len="12" pan="0" vol="100" pos="120" key="50"/>
          <note len="12" pan="0" vol="100" pos="132" key="50"/>
          <note len="24" pan="0" vol="100" pos="144" key="57"/>
          <note len="24" pan="0" vol="100" pos="144" key="50"/>
          <note len="12" pan="0" vol="100" pos="144" key="0"/>
          <note len="12" pan="0" vol="100" pos="156" key="1"/>
          <note len="12" pan="0" vol="100" pos="168" key="50"/>
          <note len="12" pan="0" vol="100" pos="180" key="50"/>
          <note len="24" pan="0" vol="100" pos="192" key="57"/>
          <note len="24" pan="0" vol="100" pos="192" key="50"/>
          <note len="12" pan="0" vol="100" pos="192" key="0"/>
          <note len="12" pan="0" vol="100" pos="204" key="1"/>
          <note len="12" pan="0" vol="100" pos="216" key="50"/>
          <note len="12" pan="0" vol="100" pos="228" key="50"/>
          <note len="12" pan="0" vol="100" pos="240" key="50"/>
          <note len="12" pan="0" vol="100" pos="252" key="50"/>
          <note len="24" pan="0" vol="100" pos="264" key="57"/>
          <note len="24" pan="0" vol="100" pos="264" key="50"/>
          <note len="12" pan="0" vol="100" pos="264" key="0"/>
          <note len="12" pan="0" vol="100" pos="276" key="1"/>
          <note len="12" pan="0" vol="100" pos="288" key="50"/>
          <note len="12" pan="0" vol="100" pos="300" key="50"/>
          <note len="12" pan="0" vol="100" pos="312" key="50"/>
          <note len="12" pan="0" vol="100" pos="324" key="50"/>
          <note len="24" pan="0" vol="100" pos="336" key="57"/>
          <note len="24" pan="0" vol="100" pos="336" key="50"/>
          <note len="12" pan="0" vol="100" pos="336" key="0"/>
          <note len="12" pan="0" vol="100" pos="348" key="1"/>
          <note len="12" pan="0" vol="100" pos="360" key="50"/>
          <note len="12" pan="0" vol="100" pos="372" key="50"/>
        </pattern>
        <pattern type="1" name="Rhythm Guitar" steps="16" pos="21888" muted="0">
          <note len="24" pan="0" vol="100" pos="0" key="57"/>
          <note len="24" pan="0" vol="100" pos="0" key="50"/>
          <note len="12" pan="0" vol="100" pos="0" key="0"/>
          <note len="12" pan="0" vol="100" pos="12" key="1"/>
          <note len="12" pan="0" vol="100" pos="24" key="50"/>
          <note len="12" pan="0" vol="100" pos="36" key="50"/>
          <note len="12" pan="0" vol="100" pos="48" key="50"/>
          <note len="12" pan="0" vol="100" pos="60" key="50"/>
          <note len="24" pan="0" vol="100" pos="72" key="57"/>
          <note len="24" pan="0" vol="100" pos="72" key="50"/>
          <note len="12" pan="0" vol="100" pos="72" key="0"/>
          <note len="12" pan="0" vol="100" pos="84" key="1"/>
          <note len="12" pan="0" vol="100" pos="96" key="50"/>
          <note len="12" pan="0" vol="100" pos="108" key="50"/>
          <note len="12" pan="0" vol="100" pos="120" key="50"/>
          <note len="12" pan="0" vol="100" pos="132" key="50"/>
          <note len="24" pan="0" vol="100" pos="144" key="57"/>
          <note len="24" pan="0" vol="100" pos="144" key="50"/>
          <note len="12" pan="0" vol="100" pos="144" key="0"/>
          <note len="12" pan="0" vol="100" pos="156" key="1"/>
          <note len="12" pan="0" vol="100" pos="168" key="50"/>
          <note len="12" pan="0" vol="100" pos="180" key="50"/>
          <note len="30" pan="0" vol="100" pos="192" key="52"/>
          <note len="30" pan="0" vol="100" pos="192" key="45"/>
          <note len="12" pan="0" vol="100" pos="192" key="0"/>
          <note len="30" pan="0" vol="100" pos="240" key="52"/>
          <note len="30" pan="0" vol="100" pos="240" key="45"/>
          <note len="30" pan="0" vol="100" pos="288" key="52"/>
          <note len="30" pan="0" vol="100" pos="288" key="45"/>
          <note len="30" pan="0" vol="100" pos="336" key="50"/>
          <note len="30" pan="0" vol="100" pos="336" key="43"/>
        </pattern>
        <pattern type="1" name="Rhythm Guitar" steps="16" pos="12288" muted="0">
          <note len="72" pan="0" vol="100" pos="0" key="45"/>
          <note len="72" pan="0" vol="100" pos="0" key="38"/>
          <note len="72" pan="0" vol="100" pos="0" key="0"/>
          <note len="72" pan="0" vol="100" pos="72" key="45"/>
          <note len="72" pan="0" vol="100" pos="72" key="38"/>
          <note len="48" pan="0" vol="100" pos="144" key="45"/>
          <note len="48" pan="0" vol="100" pos="144" key="38"/>
          <note len="72" pan="0" vol="100" pos="192" key="45"/>
          <note len="72" pan="0" vol="100" pos="192" key="38"/>
          <note len="72" pan="0" vol="100" pos="264" key="45"/>
          <note len="72" pan="0" vol="100" pos="264" key="38"/>
          <note len="48" pan="0" vol="100" pos="336" key="45"/>
          <note len="48" pan="0" vol="100" pos="336" key="38"/>
          <note len="72" pan="0" vol="100" pos="384" key="50"/>
          <note len="72" pan="0" vol="100" pos="384" key="43"/>
          <note len="72" pan="0" vol="100" pos="456" key="50"/>
          <note len="72" pan="0" vol="100" pos="456" key="43"/>
          <note len="48" pan="0" vol="100" pos="528" key="50"/>
          <note len="48" pan="0" vol="100" pos="528" key="43"/>
          <note len="72" pan="0" vol="100" pos="576" key="52"/>
          <note len="72" pan="0" vol="100" pos="576" key="45"/>
          <note len="72" pan="0" vol="100" pos="648" key="50"/>
          <note len="72" pan="0" vol="100" pos="648" key="43"/>
          <note len="48" pan="0" vol="100" pos="720" key="52"/>
          <note len="48" pan="0" vol="100" pos="720" key="45"/>
        </pattern>
        <pattern type="1" name="Rhythm Guitar" steps="16" pos="13056" muted="0">
          <note len="72" pan="0" vol="100" pos="0" key="45"/>
          <note len="72" pan="0" vol="100" pos="0" key="38"/>
          <note len="72" pan="0" vol="100" pos="0" key="0"/>
          <note len="72" pan="0" vol="100" pos="72" key="45"/>
          <note len="72" pan="0" vol="100" pos="72" key="38"/>
          <note len="48" pan="0" vol="100" pos="144" key="45"/>
          <note len="48" pan="0" vol="100" pos="144" key="38"/>
          <note len="72" pan="0" vol="100" pos="192" key="45"/>
          <note len="72" pan="0" vol="100" pos="192" key="38"/>
          <note len="72" pan="0" vol="100" pos="264" key="45"/>
          <note len="72" pan="0" vol="100" pos="264" key="38"/>
          <note len="48" pan="0" vol="100" pos="336" key="45"/>
          <note len="48" pan="0" vol="100" pos="336" key="38"/>
          <note len="72" pan="0" vol="100" pos="384" key="50"/>
          <note len="72" pan="0" vol="100" pos="384" key="43"/>
          <note len="72" pan="0" vol="100" pos="456" key="50"/>
          <note len="72" pan="0" vol="100" pos="456" key="43"/>
          <note len="48" pan="0" vol="100" pos="528" key="50"/>
          <note len="48" pan="0" vol="100" pos="528" key="43"/>
          <note len="72" pan="0" vol="100" pos="576" key="52"/>
          <note len="72" pan="0" vol="100" pos="576" key="45"/>
          <note len="72" pan="0" vol="100" pos="648" key="50"/>
          <note len="72" pan="0" vol="100" pos="648" key="43"/>
          <note len="48" pan="0" vol="100" pos="720" key="52"/>
          <note len="48" pan="0" vol="100" pos="720" key="45"/>
        </pattern>
        <pattern type="1" name="Rhythm Guitar" steps="16" pos="13824" muted="0">
          <note len="72" pan="0" vol="100" pos="0" key="45"/>
          <note len="72" pan="0" vol="100" pos="0" key="38"/>
          <note len="72" pan="0" vol="100" pos="0" key="0"/>
          <note len="72" pan="0" vol="100" pos="72" key="45"/>
          <note len="72" pan="0" vol="100" pos="72" key="38"/>
          <note len="48" pan="0" vol="100" pos="144" key="45"/>
          <note len="48" pan="0" vol="100" pos="144" key="38"/>
          <note len="72" pan="0" vol="100" pos="192" key="45"/>
          <note len="72" pan="0" vol="100" pos="192" key="38"/>
          <note len="72" pan="0" vol="100" pos="264" key="45"/>
          <note len="72" pan="0" vol="100" pos="264" key="38"/>
          <note len="48" pan="0" vol="100" pos="336" key="45"/>
          <note len="48" pan="0" vol="100" pos="336" key="38"/>
          <note len="72" pan="0" vol="100" pos="384" key="50"/>
          <note len="72" pan="0" vol="100" pos="384" key="43"/>
          <note len="72" pan="0" vol="100" pos="456" key="50"/>
          <note len="72" pan="0" vol="100" pos="456" key="43"/>
          <note len="48" pan="0" vol="100" pos="528" key="50"/>
          <note len="48" pan="0" vol="100" pos="528" key="43"/>
          <note len="72" pan="0" vol="100" pos="576" key="52"/>
          <note len="72" pan="0" vol="100" pos="576" key="45"/>
          <note len="72" pan="0" vol="100" pos="648" key="50"/>
          <note len="72" pan="0" vol="100" pos="648" key="43"/>
          <note len="48" pan="0" vol="100" pos="720" key="52"/>
          <note len="48" pan="0" vol="100" pos="720" key="45"/>
        </pattern>
        <pattern type="1" name="Rhythm Guitar" steps="16" pos="14592" muted="0">
          <note len="72" pan="0" vol="100" pos="0" key="45"/>
          <note len="72" pan="0" vol="100" pos="0" key="38"/>
          <note len="72" pan="0" vol="100" pos="0" key="0"/>
          <note len="72" pan="0" vol="100" pos="72" key="45"/>
          <note len="72" pan="0" vol="100" pos="72" key="38"/>
          <note len="48" pan="0" vol="100" pos="144" key="45"/>
          <note len="48" pan="0" vol="100" pos="144" key="38"/>
          <note len="72" pan="0" vol="100" pos="192" key="45"/>
          <note len="72" pan="0" vol="100" pos="192" key="38"/>
          <note len="72" pan="0" vol="100" pos="264" key="45"/>
          <note len="72" pan="0" vol="100" pos="264" key="38"/>
          <note len="48" pan="0" vol="100" pos="336" key="45"/>
          <note len="48" pan="0" vol="100" pos="336" key="38"/>
          <note len="72" pan="0" vol="100" pos="384" key="50"/>
          <note len="72" pan="0" vol="100" pos="384" key="43"/>
          <note len="72" pan="0" vol="100" pos="456" key="50"/>
          <note len="72" pan="0" vol="100" pos="456" key="43"/>
          <note len="48" pan="0" vol="100" pos="528" key="50"/>
          <note len="48" pan="0" vol="100" pos="528" key="43"/>
          <note len="72" pan="0" vol="100" pos="576" key="52"/>
          <note len="72" pan="0" vol="100" pos="576" key="45"/>
          <note len="72" pan="0" vol="100" pos="648" key="50"/>
          <note len="72" pan="0" vol="100" pos="648" key="43"/>
          <note len="48" pan="0" vol="100" pos="720" key="52"/>
          <note len="48" pan="0" vol="100" pos="720" key="45"/>
        </pattern>
        <pattern type="1" name="Rhythm Guitar" steps="16" pos="22272" muted="0">
          <note len="72" pan="0" vol="100" pos="0" key="45"/>
          <note len="72" pan="0" vol="100" pos="0" key="38"/>
          <note len="72" pan="0" vol="100" pos="0" key="0"/>
          <note len="72" pan="0" vol="100" pos="72" key="45"/>
          <note len="72" pan="0" vol="100" pos="72" key="38"/>
          <note len="48" pan="0" vol="100" pos="144" key="45"/>
          <note len="48" pan="0" vol="100" pos="144" key="38"/>
          <note len="72" pan="0" vol="100" pos="192" key="45"/>
          <note len="72" pan="0" vol="100" pos="192" key="38"/>
          <note len="72" pan="0" vol="100" pos="264" key="45"/>
          <note len="72" pan="0" vol="100" pos="264" key="38"/>
          <note len="48" pan="0" vol="100" pos="336" key="45"/>
          <note len="48" pan="0" vol="100" pos="336" key="38"/>
          <note len="72" pan="0" vol="100" pos="384" key="50"/>
          <note len="72" pan="0" vol="100" pos="384" key="43"/>
          <note len="72" pan="0" vol="100" pos="456" key="50"/>
          <note len="72" pan="0" vol="100" pos="456" key="43"/>
          <note len="48" pan="0" vol="100" pos="528" key="50"/>
          <note len="48" pan="0" vol="100" pos="528" key="43"/>
          <note len="72" pan="0" vol="100" pos="576" key="52"/>
          <note len="72" pan="0" vol="100" pos="576" key="45"/>
          <note len="72" pan="0" vol="100" pos="648" key="50"/>
          <note len="72" pan="0" vol="100" pos="648" key="43"/>
          <note len="48" pan="0" vol="100" pos="720" key="52"/>
          <note len="48" pan="0" vol="100" pos="720" key="45"/>
        </pattern>
        <pattern type="1" name="Rhythm Guitar" steps="16" pos="23040" muted="0">
          <note len="72" pan="0" vol="100" pos="0" key="45"/>
          <note len="72" pan="0" vol="100" pos="0" key="38"/>
          <note len="72" pan="0" vol="100" pos="0" key="0"/>
          <note len="72" pan="0" vol="100" pos="72" key="45"/>
          <note len="72" pan="0" vol="100" pos="72" key="38"/>
          <note len="48" pan="0" vol="100" pos="144" key="45"/>
          <note len="48" pan="0" vol="100" pos="144" key="38"/>
          <note len="72" pan="0" vol="100" pos="192" key="45"/>
          <note len="72" pan="0" vol="100" pos="192" key="38"/>
          <note len="72" pan="0" vol="100" pos="264" key="45"/>
          <note len="72" pan="0" vol="100" pos="264" key="38"/>
          <note len="48" pan="0" vol="100" pos="336" key="45"/>
          <note len="48" pan="0" vol="100" pos="336" key="38"/>
          <note len="72" pan="0" vol="100" pos="384" key="50"/>
          <note len="72" pan="0" vol="100" pos="384" key="43"/>
          <note len="72" pan="0" vol="100" pos="456" key="50"/>
          <note len="72" pan="0" vol="100" pos="456" key="43"/>
          <note len="48" pan="0" vol="100" pos="528" key="50"/>
          <note len="48" pan="0" vol="100" pos="528" key="43"/>
          <note len="72" pan="0" vol="100" pos="576" key="52"/>
          <note len="72" pan="0" vol="100" pos="576" key="45"/>
          <note len="72" pan="0" vol="100" pos="648" key="50"/>
          <note len="72" pan="0" vol="100" pos="648" key="43"/>
          <note len="48" pan="0" vol="100" pos="720" key="52"/>
          <note len="48" pan="0" vol="100" pos="720" key="45"/>
        </pattern>
        <pattern type="1" name="Rhythm Guitar" steps="16" pos="23808" muted="0">
          <note len="72" pan="0" vol="100" pos="0" key="45"/>
          <note len="72" pan="0" vol="100" pos="0" key="38"/>
          <note len="72" pan="0" vol="100" pos="0" key="0"/>
          <note len="72" pan="0" vol="100" pos="72" key="45"/>
          <note len="72" pan="0" vol="100" pos="72" key="38"/>
          <note len="48" pan="0" vol="100" pos="144" key="45"/>
          <note len="48" pan="0" vol="100" pos="144" key="38"/>
          <note len="72" pan="0" vol="100" pos="192" key="45"/>
          <note len="72" pan="0" vol="100" pos="192" key="38"/>
          <note len="72" pan="0" vol="100" pos="264" key="45"/>
          <note len="72" pan="0" vol="100" pos="264" key="38"/>
          <note len="48" pan="0" vol="100" pos="336" key="45"/>
          <note len="48" pan="0" vol="100" pos="336" key="38"/>
          <note len="72" pan="0" vol="100" pos="384" key="50"/>
          <note len="72" pan="0" vol="100" pos="384" key="43"/>
          <note len="72" pan="0" vol="100" pos="456" key="50"/>
          <note len="72" pan="0" vol="100" pos="456" key="43"/>
          <note len="48" pan="0" vol="100" pos="528" key="50"/>
          <note len="48" pan="0" vol="100" pos="528" key="43"/>
          <note len="72" pan="0" vol="100" pos="576" key="52"/>
          <note len="72" pan="0" vol="100" pos="576" key="45"/>
          <note len="72" pan="0" vol="100" pos="648" key="50"/>
          <note len="72" pan="0" vol="100" pos="648" key="43"/>
          <note len="48" pan="0" vol="100" pos="720" key="52"/>
          <note len="48" pan="0" vol="100" pos="720" key="45"/>
        </pattern>
        <pattern type="1" name="Rhythm Guitar" steps="16" pos="24576" muted="0">
          <note len="72" pan="0" vol="100" pos="0" key="45"/>
          <note len="72" pan="0" vol="100" pos="0" key="38"/>
          <note len="72" pan="0" vol="100" pos="0" key="0"/>
          <note len="72" pan="0" vol="100" pos="72" key="45"/>
          <note len="72" pan="0" vol="100" pos="72" key="38"/>
          <note len="48" pan="0" vol="100" pos="144" key="45"/>
          <note len="48" pan="0" vol="100" pos="144" key="38"/>
          <note len="72" pan="0" vol="100" pos="192" key="45"/>
          <note len="72" pan="0" vol="100" pos="192" key="38"/>
          <note len="72" pan="0" vol="100" pos="264" key="45"/>
          <note len="72" pan="0" vol="100" pos="264" key="38"/>
          <note len="48" pan="0" vol="100" pos="336" key="45"/>
          <note len="48" pan="0" vol="100" pos="336" key="38"/>
          <note len="72" pan="0" vol="100" pos="384" key="50"/>
          <note len="72" pan="0" vol="100" pos="384" key="43"/>
          <note len="72" pan="0" vol="100" pos="456" key="50"/>
          <note len="72" pan="0" vol="100" pos="456" key="43"/>
          <note len="48" pan="0" vol="100" pos="528" key="50"/>
          <note len="48" pan="0" vol="100" pos="528" key="43"/>
          <note len="72" pan="0" vol="100" pos="576" key="52"/>
          <note len="72" pan="0" vol="100" pos="576" key="45"/>
          <note len="72" pan="0" vol="100" pos="648" key="50"/>
          <note len="72" pan="0" vol="100" pos="648" key="43"/>
          <note len="48" pan="0" vol="100" pos="720" key="52"/>
          <note len="48" pan="0" vol="100" pos="720" key="45"/>
        </pattern>
        <pattern type="1" name="Rhythm Guitar" steps="16" pos="25344" muted="0">
          <note len="24" pan="0" vol="100" pos="0" key="42"/>
          <note len="24" pan="0" vol="100" pos="0" key="35"/>
          <note len="12" pan="0" vol="100" pos="0" key="0"/>
          <note len="12" pan="0" vol="100" pos="12" key="1"/>
          <note len="12" pan="0" vol="100" pos="24" key="35"/>
          <note len="12" pan="0" vol="100" pos="36" key="35"/>
          <note len="12" pan="0" vol="100" pos="48" key="35"/>
          <note len="12" pan="0" vol="100" pos="60" key="35"/>
          <note len="24" pan="0" vol="100" pos="72" key="42"/>
          <note len="24" pan="0" vol="100" pos="72" key="35"/>
          <note len="12" pan="0" vol="100" pos="72" key="0"/>
          <note len="12" pan="0" vol="100" pos="84" key="1"/>
          <note len="12" pan="0" vol="100" pos="96" key="35"/>
          <note len="12" pan="0" vol="100" pos="108" key="35"/>
          <note len="12" pan="0" vol="100" pos="120" key="35"/>
          <note len="12" pan="0" vol="100" pos="132" key="35"/>
          <note len="24" pan="0" vol="100" pos="144" key="42"/>
          <note len="24" pan="0" vol="100" pos="144" key="35"/>
          <note len="12" pan="0" vol="100" pos="144" key="0"/>
          <note len="12" pan="0" vol="100" pos="156" key="1"/>
          <note len="12" pan="0" vol="100" pos="168" key="35"/>
          <note len="12" pan="0" vol="100" pos="180" key="35"/>
          <note len="24" pan="0" vol="100" pos="192" key="42"/>
          <note len="24" pan="0" vol="100" pos="192" key="35"/>
          <note len="12" pan="0" vol="100" pos="192" key="0"/>
          <note len="12" pan="0" vol="100" pos="204" key="1"/>
          <note len="12" pan="0" vol="100" pos="216" key="35"/>
          <note len="12" pan="0" vol="100" pos="228" key="35"/>
          <note len="12" pan="0" vol="100" pos="240" key="35"/>
          <note len="12" pan="0" vol="100" pos="252" key="35"/>
          <note len="24" pan="0" vol="100" pos="264" key="42"/>
          <note len="24" pan="0" vol="100" pos="264" key="35"/>
          <note len="12" pan="0" vol="100" pos="264" key="0"/>
          <note len="12" pan="0" vol="100" pos="276" key="1"/>
          <note len="12" pan="0" vol="100" pos="288" key="35"/>
          <note len="12" pan="0" vol="100" pos="300" key="35"/>
          <note len="12" pan="0" vol="100" pos="312" key="35"/>
          <note len="12" pan="0" vol="100" pos="324" key="35"/>
          <note len="24" pan="0" vol="100" pos="336" key="42"/>
          <note len="24" pan="0" vol="100" pos="336" key="35"/>
          <note len="12" pan="0" vol="100" pos="336" key="0"/>
          <note len="12" pan="0" vol="100" pos="348" key="1"/>
          <note len="12" pan="0" vol="100" pos="360" key="35"/>
          <note len="12" pan="0" vol="100" pos="372" key="35"/>
        </pattern>
        <pattern type="1" name="Rhythm Guitar" steps="16" pos="25728" muted="0">
          <note len="24" pan="0" vol="100" pos="0" key="50"/>
          <note len="24" pan="0" vol="100" pos="0" key="43"/>
          <note len="12" pan="0" vol="100" pos="0" key="0"/>
          <note len="12" pan="0" vol="100" pos="12" key="1"/>
          <note len="12" pan="0" vol="100" pos="24" key="43"/>
          <note len="12" pan="0" vol="100" pos="36" key="43"/>
          <note len="12" pan="0" vol="100" pos="48" key="43"/>
          <note len="12" pan="0" vol="100" pos="60" key="43"/>
          <note len="24" pan="0" vol="100" pos="72" key="50"/>
          <note len="24" pan="0" vol="100" pos="72" key="43"/>
          <note len="12" pan="0" vol="100" pos="72" key="0"/>
          <note len="12" pan="0" vol="100" pos="84" key="1"/>
          <note len="12" pan="0" vol="100" pos="96" key="43"/>
          <note len="12" pan="0" vol="100" pos="108" key="43"/>
          <note len="12" pan="0" vol="100" pos="120" key="43"/>
          <note len="12" pan="0" vol="100" pos="132" key="43"/>
          <note len="24" pan="0" vol="100" pos="144" key="50"/>
          <note len="24" pan="0" vol="100" pos="144" key="43"/>
          <note len="12" pan="0" vol="100" pos="144" key="0"/>
          <note len="12" pan="0" vol="100" pos="156" key="1"/>
          <note len="12" pan="0" vol="100" pos="168" key="43"/>
          <note len="12" pan="0" vol="100" pos="180" key="43"/>
          <note len="24" pan="0" vol="100" pos="192" key="50"/>
          <note len="24" pan="0" vol="100" pos="192" key="43"/>
          <note len="12" pan="0" vol="100" pos="192" key="0"/>
          <note len="12" pan="0" vol="100" pos="204" key="1"/>
          <note len="12" pan="0" vol="100" pos="216" key="43"/>
          <note len="12" pan="0" vol="100" pos="228" key="43"/>
          <note len="12" pan="0" vol="100" pos="240" key="43"/>
          <note len="12" pan="0" vol="100" pos="252" key="43"/>
          <note len="24" pan="0" vol="100" pos="264" key="50"/>
          <note len="24" pan="0" vol="100" pos="264" key="43"/>
          <note len="12" pan="0" vol="100" pos="264" key="0"/>
          <note len="12" pan="0" vol="100" pos="276" key="1"/>
          <note len="12" pan="0" vol="100" pos="288" key="43"/>
          <note len="12" pan="0" vol="100" pos="300" key="43"/>
          <note len="12" pan="0" vol="100" pos="312" key="43"/>
          <note len="12" pan="0" vol="100" pos="324" key="43"/>
          <note len="24" pan="0" vol="100" pos="336" key="50"/>
          <note len="24" pan="0" vol="100" pos="336" key="43"/>
          <note len="12" pan="0" vol="100" pos="336" key="0"/>
          <note len="12" pan="0" vol="100" pos="348" key="1"/>
          <note len="12" pan="0" vol="100" pos="360" key="43"/>
          <note len="12" pan="0" vol="100" pos="372" key="43"/>
        </pattern>
        <pattern type="1" name="Rhythm Guitar" steps="16" pos="26112" muted="0">
          <note len="24" pan="0" vol="100" pos="0" key="52"/>
          <note len="24" pan="0" vol="100" pos="0" key="45"/>
          <note len="12" pan="0" vol="100" pos="0" key="0"/>
          <note len="12" pan="0" vol="100" pos="12" key="1"/>
          <note len="12" pan="0" vol="100" pos="24" key="45"/>
          <note len="12" pan="0" vol="100" pos="36" key="45"/>
          <note len="12" pan="0" vol="100" pos="48" key="45"/>
          <note len="12" pan="0" vol="100" pos="60" key="45"/>
          <note len="24" pan="0" vol="100" pos="72" key="52"/>
          <note len="24" pan="0" vol="100" pos="72" key="45"/>
          <note len="12" pan="0" vol="100" pos="72" key="0"/>
          <note len="12" pan="0" vol="100" pos="84" key="1"/>
          <note len="12" pan="0" vol="100" pos="96" key="45"/>
          <note len="12" pan="0" vol="100" pos="108" key="45"/>
          <note len="12" pan="0" vol="100" pos="120" key="45"/>
          <note len="12" pan="0" vol="100" pos="132" key="45"/>
          <note len="24" pan="0" vol="100" pos="144" key="52"/>
          <note len="24" pan="0" vol="100" pos="144" key="45"/>
          <note len="12" pan="0" vol="100" pos="144" key="0"/>
          <note len="12" pan="0" vol="100" pos="156" key="1"/>
          <note len="12" pan="0" vol="100" pos="168" key="45"/>
          <note len="12" pan="0" vol="100" pos="180" key="45"/>
          <note len="24" pan="0" vol="100" pos="192" key="52"/>
          <note len="24" pan="0" vol="100" pos="192" key="45"/>
          <note len="12" pan="0" vol="100" pos="192" key="0"/>
          <note len="12" pan="0" vol="100" pos="204" key="1"/>
          <note len="12" pan="0" vol="100" pos="216" key="45"/>
          <note len="12" pan="0" vol="100" pos="228" key="45"/>
          <note len="12" pan="0" vol="100" pos="240" key="45"/>
          <note len="12" pan="0" vol="100" pos="252" key="45"/>
          <note len="24" pan="0" vol="100" pos="264" key="52"/>
          <note len="24" pan="0" vol="100" pos="264" key="45"/>
          <note len="12" pan="0" vol="100" pos="264" key="0"/>
          <note len="12" pan="0" vol="100" pos="276" key="1"/>
          <note len="12" pan="0" vol="100" pos="288" key="45"/>
          <note len="12" pan="0" vol="100" pos="300" key="45"/>
          <note len="12" pan="0" vol="100" pos="312" key="45"/>
          <note len="12" pan="0" vol="100" pos="324" key="45"/>
          <note len="24" pan="0" vol="100" pos="336" key="52"/>
          <note len="24" pan="0" vol="100" pos="336" key="45"/>
          <note len="12" pan="0" vol="100" pos="336" key="0"/>
          <note len="12" pan="0" vol="100" pos="348" key="1"/>
          <note len="12" pan="0" vol="100" pos="360" key="45"/>
          <note len="12" pan="0" vol="100" pos="372" key="45"/>
        </pattern>
        <pattern type="1" name="Rhythm Guitar" steps="16" pos="26880" muted="0">
          <note len="24" pan="0" vol="100" pos="0" key="42"/>
          <note len="24" pan="0" vol="100" pos="0" key="35"/>
          <note len="12" pan="0" vol="100" pos="0" key="0"/>
          <note len="12" pan="0" vol="100" pos="12" key="1"/>
          <note len="12" pan="0" vol="100" pos="24" key="35"/>
          <note len="12" pan="0" vol="100" pos="36" key="35"/>
          <note len="12" pan="0" vol="100" pos="48" key="35"/>
          <note len="12" pan="0" vol="100" pos="60" key="35"/>
          <note len="24" pan="0" vol="100" pos="72" key="42"/>
          <note len="24" pan="0" vol="100" pos="72" key="35"/>
          <note len="12" pan="0" vol="100" pos="72" key="0"/>
          <note len="12" pan="0" vol="100" pos="84" key="1"/>
          <note len="12" pan="0" vol="100" pos="96" key="35"/>
          <note len="12" pan="0" vol="100" pos="108" key="35"/>
          <note len="12" pan="0" vol="100" pos="120" key="35"/>
          <note len="12" pan="0" vol="100" pos="132" key="35"/>
          <note len="24" pan="0" vol="100" pos="144" key="42"/>
          <note len="24" pan="0" vol="100" pos="144" key="35"/>
          <note len="12" pan="0" vol="100" pos="144" key="0"/>
          <note len="12" pan="0" vol="100" pos="156" key="1"/>
          <note len="12" pan="0" vol="100" pos="168" key="35"/>
          <note len="12" pan="0" vol="100" pos="180" key="35"/>
          <note len="24" pan="0" vol="100" pos="192" key="42"/>
          <note len="24" pan="0" vol="100" pos="192" key="35"/>
          <note len="12" pan="0" vol="100" pos="192" key="0"/>
          <note len="12" pan="0" vol="100" pos="204" key="1"/>
          <note len="12" pan="0" vol="100" pos="216" key="35"/>
          <note len="12" pan="0" vol="100" pos="228" key="35"/>
          <note len="12" pan="0" vol="100" pos="240" key="35"/>
          <note len="12" pan="0" vol="100" pos="252" key="35"/>
          <note len="24" pan="0" vol="100" pos="264" key="42"/>
          <note len="24" pan="0" vol="100" pos="264" key="35"/>
          <note len="12" pan="0" vol="100" pos="264" key="0"/>
          <note len="12" pan="0" vol="100" pos="276" key="1"/>
          <note len="12" pan="0" vol="100" pos="288" key="35"/>
          <note len="12" pan="0" vol="100" pos="300" key="35"/>
          <note len="12" pan="0" vol="100" pos="312" key="35"/>
          <note len="12" pan="0" vol="100" pos="324" key="35"/>
          <note len="24" pan="0" vol="100" pos="336" key="42"/>
          <note len="24" pan="0" vol="100" pos="336" key="35"/>
          <note len="12" pan="0" vol="100" pos="336" key="0"/>
          <note len="12" pan="0" vol="100" pos="348" key="1"/>
          <note len="12" pan="0" vol="100" pos="360" key="35"/>
          <note len="12" pan="0" vol="100" pos="372" key="35"/>
        </pattern>
        <pattern type="1" name="Rhythm Guitar" steps="16" pos="27648" muted="0">
          <note len="24" pan="0" vol="100" pos="0" key="52"/>
          <note len="24" pan="0" vol="100" pos="0" key="45"/>
          <note len="12" pan="0" vol="100" pos="0" key="0"/>
          <note len="12" pan="0" vol="100" pos="12" key="1"/>
          <note len="12" pan="0" vol="100" pos="24" key="45"/>
          <note len="12" pan="0" vol="100" pos="36" key="45"/>
          <note len="12" pan="0" vol="100" pos="48" key="45"/>
          <note len="12" pan="0" vol="100" pos="60" key="45"/>
          <note len="24" pan="0" vol="100" pos="72" key="52"/>
          <note len="24" pan="0" vol="100" pos="72" key="45"/>
          <note len="12" pan="0" vol="100" pos="72" key="0"/>
          <note len="12" pan="0" vol="100" pos="84" key="1"/>
          <note len="12" pan="0" vol="100" pos="96" key="45"/>
          <note len="12" pan="0" vol="100" pos="108" key="45"/>
          <note len="12" pan="0" vol="100" pos="120" key="45"/>
          <note len="12" pan="0" vol="100" pos="132" key="45"/>
          <note len="24" pan="0" vol="100" pos="144" key="52"/>
          <note len="24" pan="0" vol="100" pos="144" key="45"/>
          <note len="12" pan="0" vol="100" pos="144" key="0"/>
          <note len="12" pan="0" vol="100" pos="156" key="1"/>
          <note len="12" pan="0" vol="100" pos="168" key="45"/>
          <note len="12" pan="0" vol="100" pos="180" key="45"/>
          <note len="24" pan="0" vol="100" pos="192" key="52"/>
          <note len="24" pan="0" vol="100" pos="192" key="45"/>
          <note len="12" pan="0" vol="100" pos="192" key="0"/>
          <note len="12" pan="0" vol="100" pos="204" key="1"/>
          <note len="12" pan="0" vol="100" pos="216" key="45"/>
          <note len="12" pan="0" vol="100" pos="228" key="45"/>
          <note len="12" pan="0" vol="100" pos="240" key="45"/>
          <note len="12" pan="0" vol="100" pos="252" key="45"/>
          <note len="24" pan="0" vol="100" pos="264" key="52"/>
          <note len="24" pan="0" vol="100" pos="264" key="45"/>
          <note len="12" pan="0" vol="100" pos="264" key="0"/>
          <note len="12" pan="0" vol="100" pos="276" key="1"/>
          <note len="12" pan="0" vol="100" pos="288" key="45"/>
          <note len="12" pan="0" vol="100" pos="300" key="45"/>
          <note len="12" pan="0" vol="100" pos="312" key="45"/>
          <note len="12" pan="0" vol="100" pos="324" key="45"/>
          <note len="24" pan="0" vol="100" pos="336" key="52"/>
          <note len="24" pan="0" vol="100" pos="336" key="45"/>
          <note len="12" pan="0" vol="100" pos="336" key="0"/>
          <note len="12" pan="0" vol="100" pos="348" key="1"/>
          <note len="12" pan="0" vol="100" pos="360" key="45"/>
          <note len="12" pan="0" vol="100" pos="372" key="45"/>
          <note len="24" pan="0" vol="100" pos="384" key="52"/>
          <note len="24" pan="0" vol="100" pos="384" key="45"/>
          <note len="12" pan="0" vol="100" pos="384" key="0"/>
          <note len="12" pan="0" vol="100" pos="396" key="1"/>
          <note len="12" pan="0" vol="100" pos="408" key="45"/>
          <note len="12" pan="0" vol="100" pos="420" key="45"/>
          <note len="12" pan="0" vol="100" pos="432" key="45"/>
          <note len="12" pan="0" vol="100" pos="444" key="45"/>
          <note len="24" pan="0" vol="100" pos="456" key="52"/>
          <note len="24" pan="0" vol="100" pos="456" key="45"/>
          <note len="12" pan="0" vol="100" pos="456" key="0"/>
          <note len="12" pan="0" vol="100" pos="468" key="1"/>
          <note len="12" pan="0" vol="100" pos="480" key="45"/>
          <note len="12" pan="0" vol="100" pos="492" key="45"/>
          <note len="12" pan="0" vol="100" pos="504" key="45"/>
          <note len="12" pan="0" vol="100" pos="516" key="45"/>
          <note len="24" pan="0" vol="100" pos="528" key="52"/>
          <note len="24" pan="0" vol="100" pos="528" key="45"/>
          <note len="12" pan="0" vol="100" pos="528" key="0"/>
          <note len="12" pan="0" vol="100" pos="540" key="1"/>
          <note len="12" pan="0" vol="100" pos="552" key="45"/>
          <note len="12" pan="0" vol="100" pos="564" key="45"/>
          <note len="30" pan="0" vol="100" pos="576" key="52"/>
          <note len="30" pan="0" vol="100" pos="576" key="45"/>
          <note len="12" pan="0" vol="100" pos="576" key="0"/>
          <note len="30" pan="0" vol="100" pos="624" key="52"/>
          <note len="30" pan="0" vol="100" pos="624" key="45"/>
          <note len="30" pan="0" vol="100" pos="672" key="52"/>
          <note len="30" pan="0" vol="100" pos="672" key="45"/>
          <note len="30" pan="0" vol="100" pos="720" key="52"/>
          <note len="30" pan="0" vol="100" pos="720" key="45"/>
        </pattern>
        <pattern type="1" name="Rhythm Guitar" steps="16" pos="27264" muted="0">
          <note len="24" pan="0" vol="100" pos="0" key="50"/>
          <note len="24" pan="0" vol="100" pos="0" key="43"/>
          <note len="12" pan="0" vol="100" pos="0" key="0"/>
          <note len="12" pan="0" vol="100" pos="12" key="1"/>
          <note len="12" pan="0" vol="100" pos="24" key="43"/>
          <note len="12" pan="0" vol="100" pos="36" key="43"/>
          <note len="12" pan="0" vol="100" pos="48" key="43"/>
          <note len="12" pan="0" vol="100" pos="60" key="43"/>
          <note len="24" pan="0" vol="100" pos="72" key="50"/>
          <note len="24" pan="0" vol="100" pos="72" key="43"/>
          <note len="12" pan="0" vol="100" pos="72" key="0"/>
          <note len="12" pan="0" vol="100" pos="84" key="1"/>
          <note len="12" pan="0" vol="100" pos="96" key="43"/>
          <note len="12" pan="0" vol="100" pos="108" key="43"/>
          <note len="12" pan="0" vol="100" pos="120" key="43"/>
          <note len="12" pan="0" vol="100" pos="132" key="43"/>
          <note len="24" pan="0" vol="100" pos="144" key="50"/>
          <note len="24" pan="0" vol="100" pos="144" key="43"/>
          <note len="12" pan="0" vol="100" pos="144" key="0"/>
          <note len="12" pan="0" vol="100" pos="156" key="1"/>
          <note len="12" pan="0" vol="100" pos="168" key="43"/>
          <note len="12" pan="0" vol="100" pos="180" key="43"/>
          <note len="24" pan="0" vol="100" pos="192" key="50"/>
          <note len="24" pan="0" vol="100" pos="192" key="43"/>
          <note len="12" pan="0" vol="100" pos="192" key="0"/>
          <note len="12" pan="0" vol="100" pos="204" key="1"/>
          <note len="12" pan="0" vol="100" pos="216" key="43"/>
          <note len="12" pan="0" vol="100" pos="228" key="43"/>
          <note len="12" pan="0" vol="100" pos="240" key="43"/>
          <note len="12" pan="0" vol="100" pos="252" key="43"/>
          <note len="24" pan="0" vol="100" pos="264" key="50"/>
          <note len="24" pan="0" vol="100" pos="264" key="43"/>
          <note len="12" pan="0" vol="100" pos="264" key="0"/>
          <note len="12" pan="0" vol="100" pos="276" key="1"/>
          <note len="12" pan="0" vol="100" pos="288" key="43"/>
          <note len="12" pan="0" vol="100" pos="300" key="43"/>
          <note len="12" pan="0" vol="100" pos="312" key="43"/>
          <note len="12" pan="0" vol="100" pos="324" key="43"/>
          <note len="24" pan="0" vol="100" pos="336" key="50"/>
          <note len="24" pan="0" vol="100" pos="336" key="43"/>
          <note len="12" pan="0" vol="100" pos="336" key="0"/>
          <note len="12" pan="0" vol="100" pos="348" key="1"/>
          <note len="12" pan="0" vol="100" pos="360" key="43"/>
          <note len="12" pan="0" vol="100" pos="372" key="43"/>
        </pattern>
        <pattern type="1" name="Rhythm Guitar" steps="16" pos="28416" muted="0">
          <note len="384" pan="0" vol="100" pos="0" key="45"/>
          <note len="384" pan="0" vol="100" pos="0" key="38"/>
          <note len="384" pan="0" vol="100" pos="0" key="0"/>
          <note len="384" pan="0" vol="100" pos="384" key="52"/>
          <note len="384" pan="0" vol="100" pos="384" key="45"/>
          <note len="384" pan="0" vol="100" pos="768" key="50"/>
          <note len="384" pan="0" vol="100" pos="768" key="43"/>
          <note len="192" pan="0" vol="100" pos="1152" key="45"/>
          <note len="192" pan="0" vol="100" pos="1152" key="38"/>
          <note len="192" pan="0" vol="100" pos="1344" key="52"/>
          <note len="192" pan="0" vol="100" pos="1344" key="45"/>
        </pattern>
        <pattern type="1" name="Rhythm Guitar" steps="16" pos="29952" muted="0">
          <note len="384" pan="0" vol="100" pos="0" key="45"/>
          <note len="384" pan="0" vol="100" pos="0" key="38"/>
          <note len="384" pan="0" vol="100" pos="0" key="0"/>
          <note len="384" pan="0" vol="100" pos="384" key="52"/>
          <note len="384" pan="0" vol="100" pos="384" key="45"/>
          <note len="384" pan="0" vol="100" pos="768" key="50"/>
          <note len="384" pan="0" vol="100" pos="768" key="43"/>
          <note len="192" pan="0" vol="100" pos="1152" key="45"/>
          <note len="192" pan="0" vol="100" pos="1152" key="38"/>
          <note len="192" pan="0" vol="100" pos="1344" key="52"/>
          <note len="192" pan="0" vol="100" pos="1344" key="45"/>
        </pattern>
        <pattern type="1" name="Rhythm Guitar" steps="16" pos="31488" muted="0">
          <note len="24" pan="0" vol="100" pos="0" key="57"/>
          <note len="24" pan="0" vol="100" pos="0" key="50"/>
          <note len="12" pan="0" vol="100" pos="0" key="0"/>
          <note len="12" pan="0" vol="100" pos="12" key="1"/>
          <note len="12" pan="0" vol="100" pos="24" key="50"/>
          <note len="12" pan="0" vol="100" pos="36" key="50"/>
          <note len="12" pan="0" vol="100" pos="48" key="50"/>
          <note len="12" pan="0" vol="100" pos="60" key="50"/>
          <note len="24" pan="0" vol="100" pos="72" key="57"/>
          <note len="24" pan="0" vol="100" pos="72" key="50"/>
          <note len="12" pan="0" vol="100" pos="72" key="0"/>
          <note len="12" pan="0" vol="100" pos="84" key="1"/>
          <note len="12" pan="0" vol="100" pos="96" key="50"/>
          <note len="12" pan="0" vol="100" pos="108" key="50"/>
          <note len="12" pan="0" vol="100" pos="120" key="50"/>
          <note len="12" pan="0" vol="100" pos="132" key="50"/>
          <note len="24" pan="0" vol="100" pos="144" key="57"/>
          <note len="24" pan="0" vol="100" pos="144" key="50"/>
          <note len="12" pan="0" vol="100" pos="144" key="0"/>
          <note len="12" pan="0" vol="100" pos="156" key="1"/>
          <note len="12" pan="0" vol="100" pos="168" key="50"/>
          <note len="12" pan="0" vol="100" pos="180" key="50"/>
          <note len="24" pan="0" vol="100" pos="192" key="57"/>
          <note len="24" pan="0" vol="100" pos="192" key="50"/>
          <note len="12" pan="0" vol="100" pos="192" key="0"/>
          <note len="12" pan="0" vol="100" pos="204" key="1"/>
          <note len="12" pan="0" vol="100" pos="216" key="50"/>
          <note len="12" pan="0" vol="100" pos="228" key="50"/>
          <note len="12" pan="0" vol="100" pos="240" key="50"/>
          <note len="12" pan="0" vol="100" pos="252" key="50"/>
          <note len="24" pan="0" vol="100" pos="264" key="57"/>
          <note len="24" pan="0" vol="100" pos="264" key="50"/>
          <note len="12" pan="0" vol="100" pos="264" key="0"/>
          <note len="12" pan="0" vol="100" pos="276" key="1"/>
          <note len="12" pan="0" vol="100" pos="288" key="50"/>
          <note len="12" pan="0" vol="100" pos="300" key="50"/>
          <note len="12" pan="0" vol="100" pos="312" key="50"/>
          <note len="12" pan="0" vol="100" pos="324" key="50"/>
          <note len="24" pan="0" vol="100" pos="336" key="57"/>
          <note len="24" pan="0" vol="100" pos="336" key="50"/>
          <note len="12" pan="0" vol="100" pos="336" key="0"/>
          <note len="12" pan="0" vol="100" pos="348" key="1"/>
          <note len="12" pan="0" vol="100" pos="360" key="50"/>
          <note len="12" pan="0" vol="100" pos="372" key="50"/>
        </pattern>
        <pattern type="1" name="Rhythm Guitar" steps="16" pos="26496" muted="0">
          <note len="24" pan="0" vol="100" pos="0" key="45"/>
          <note len="24" pan="0" vol="100" pos="0" key="38"/>
          <note len="12" pan="0" vol="100" pos="0" key="0"/>
          <note len="12" pan="0" vol="100" pos="12" key="1"/>
          <note len="12" pan="0" vol="100" pos="24" key="38"/>
          <note len="12" pan="0" vol="100" pos="36" key="38"/>
          <note len="12" pan="0" vol="100" pos="48" key="38"/>
          <note len="12" pan="0" vol="100" pos="60" key="38"/>
          <note len="24" pan="0" vol="100" pos="72" key="45"/>
          <note len="24" pan="0" vol="100" pos="72" key="38"/>
          <note len="12" pan="0" vol="100" pos="72" key="0"/>
          <note len="12" pan="0" vol="100" pos="84" key="1"/>
          <note len="12" pan="0" vol="100" pos="96" key="38"/>
          <note len="12" pan="0" vol="100" pos="108" key="38"/>
          <note len="12" pan="0" vol="100" pos="120" key="38"/>
          <note len="12" pan="0" vol="100" pos="132" key="38"/>
          <note len="24" pan="0" vol="100" pos="144" key="45"/>
          <note len="24" pan="0" vol="100" pos="144" key="38"/>
          <note len="12" pan="0" vol="100" pos="144" key="0"/>
          <note len="12" pan="0" vol="100" pos="156" key="1"/>
          <note len="12" pan="0" vol="100" pos="168" key="38"/>
          <note len="12" pan="0" vol="100" pos="180" key="38"/>
          <note len="24" pan="0" vol="100" pos="192" key="45"/>
          <note len="24" pan="0" vol="100" pos="192" key="38"/>
          <note len="12" pan="0" vol="100" pos="192" key="0"/>
          <note len="12" pan="0" vol="100" pos="204" key="1"/>
          <note len="12" pan="0" vol="100" pos="216" key="38"/>
          <note len="12" pan="0" vol="100" pos="228" key="38"/>
          <note len="12" pan="0" vol="100" pos="240" key="38"/>
          <note len="12" pan="0" vol="100" pos="252" key="38"/>
          <note len="24" pan="0" vol="100" pos="264" key="45"/>
          <note len="24" pan="0" vol="100" pos="264" key="38"/>
          <note len="12" pan="0" vol="100" pos="264" key="0"/>
          <note len="12" pan="0" vol="100" pos="276" key="1"/>
          <note len="12" pan="0" vol="100" pos="288" key="38"/>
          <note len="12" pan="0" vol="100" pos="300" key="38"/>
          <note len="12" pan="0" vol="100" pos="312" key="38"/>
          <note len="12" pan="0" vol="100" pos="324" key="38"/>
          <note len="24" pan="0" vol="100" pos="336" key="45"/>
          <note len="24" pan="0" vol="100" pos="336" key="38"/>
          <note len="12" pan="0" vol="100" pos="336" key="0"/>
          <note len="12" pan="0" vol="100" pos="348" key="1"/>
          <note len="12" pan="0" vol="100" pos="360" key="38"/>
          <note len="12" pan="0" vol="100" pos="372" key="38"/>
        </pattern>
        <pattern type="1" name="Rhythm Guitar" steps="16" pos="32256" muted="0">
          <note len="48" pan="0" vol="200" pos="0" key="45"/>
          <note len="48" pan="0" vol="200" pos="0" key="38"/>
          <note len="48" pan="0" vol="200" pos="0" key="1"/>
          <note len="48" pan="0" vol="200" pos="48" key="45"/>
          <note len="48" pan="0" vol="200" pos="48" key="38"/>
          <note len="48" pan="0" vol="200" pos="96" key="45"/>
          <note len="48" pan="0" vol="200" pos="96" key="38"/>
          <note len="24" pan="0" vol="200" pos="132" key="1"/>
          <note len="24" pan="0" vol="200" pos="144" key="45"/>
          <note len="24" pan="0" vol="200" pos="144" key="38"/>
          <note len="24" pan="0" vol="200" pos="156" key="0"/>
          <note len="48" pan="0" vol="200" pos="168" key="45"/>
          <note len="48" pan="0" vol="200" pos="168" key="38"/>
          <note len="24" pan="0" vol="200" pos="204" key="1"/>
          <note len="24" pan="0" vol="200" pos="216" key="45"/>
          <note len="24" pan="0" vol="200" pos="216" key="38"/>
          <note len="24" pan="0" vol="200" pos="228" key="0"/>
          <note len="48" pan="0" vol="200" pos="240" key="45"/>
          <note len="48" pan="0" vol="200" pos="240" key="38"/>
          <note len="24" pan="0" vol="200" pos="276" key="1"/>
          <note len="24" pan="0" vol="200" pos="288" key="45"/>
          <note len="24" pan="0" vol="200" pos="288" key="38"/>
          <note len="24" pan="0" vol="200" pos="300" key="0"/>
          <note len="48" pan="0" vol="200" pos="312" key="45"/>
          <note len="48" pan="0" vol="200" pos="312" key="38"/>
          <note len="24" pan="0" vol="200" pos="348" key="1"/>
          <note len="24" pan="0" vol="200" pos="360" key="45"/>
          <note len="24" pan="0" vol="200" pos="360" key="38"/>
        </pattern>
        <pattern type="1" name="Rhythm Guitar" steps="16" pos="32640" muted="0">
          <note len="48" pan="0" vol="200" pos="0" key="50"/>
          <note len="48" pan="0" vol="200" pos="0" key="43"/>
          <note len="48" pan="0" vol="200" pos="0" key="1"/>
          <note len="48" pan="0" vol="200" pos="48" key="50"/>
          <note len="48" pan="0" vol="200" pos="48" key="43"/>
          <note len="48" pan="0" vol="200" pos="96" key="50"/>
          <note len="48" pan="0" vol="200" pos="96" key="43"/>
          <note len="24" pan="0" vol="200" pos="132" key="1"/>
          <note len="24" pan="0" vol="200" pos="144" key="50"/>
          <note len="24" pan="0" vol="200" pos="144" key="43"/>
          <note len="24" pan="0" vol="200" pos="156" key="0"/>
          <note len="48" pan="0" vol="200" pos="168" key="52"/>
          <note len="48" pan="0" vol="200" pos="168" key="45"/>
          <note len="24" pan="0" vol="200" pos="204" key="1"/>
          <note len="24" pan="0" vol="200" pos="216" key="52"/>
          <note len="24" pan="0" vol="200" pos="216" key="45"/>
          <note len="24" pan="0" vol="200" pos="228" key="0"/>
          <note len="48" pan="0" vol="200" pos="240" key="52"/>
          <note len="48" pan="0" vol="200" pos="240" key="45"/>
          <note len="24" pan="0" vol="200" pos="276" key="1"/>
          <note len="24" pan="0" vol="200" pos="288" key="52"/>
          <note len="24" pan="0" vol="200" pos="288" key="45"/>
          <note len="24" pan="0" vol="200" pos="300" key="0"/>
          <note len="48" pan="0" vol="200" pos="312" key="52"/>
          <note len="48" pan="0" vol="200" pos="312" key="45"/>
          <note len="24" pan="0" vol="200" pos="348" key="1"/>
          <note len="24" pan="0" vol="200" pos="360" key="52"/>
          <note len="24" pan="0" vol="200" pos="360" key="45"/>
        </pattern>
        <pattern type="1" name="Rhythm Guitar" steps="16" pos="33024" muted="0">
          <note len="48" pan="0" vol="200" pos="0" key="45"/>
          <note len="48" pan="0" vol="200" pos="0" key="38"/>
          <note len="48" pan="0" vol="200" pos="0" key="1"/>
          <note len="48" pan="0" vol="200" pos="48" key="45"/>
          <note len="48" pan="0" vol="200" pos="48" key="38"/>
          <note len="48" pan="0" vol="200" pos="96" key="45"/>
          <note len="48" pan="0" vol="200" pos="96" key="38"/>
          <note len="24" pan="0" vol="200" pos="132" key="1"/>
          <note len="24" pan="0" vol="200" pos="144" key="45"/>
          <note len="24" pan="0" vol="200" pos="144" key="38"/>
          <note len="24" pan="0" vol="200" pos="156" key="0"/>
          <note len="48" pan="0" vol="200" pos="168" key="45"/>
          <note len="48" pan="0" vol="200" pos="168" key="38"/>
          <note len="24" pan="0" vol="200" pos="204" key="1"/>
          <note len="24" pan="0" vol="200" pos="216" key="45"/>
          <note len="24" pan="0" vol="200" pos="216" key="38"/>
          <note len="24" pan="0" vol="200" pos="228" key="0"/>
          <note len="48" pan="0" vol="200" pos="240" key="45"/>
          <note len="48" pan="0" vol="200" pos="240" key="38"/>
          <note len="24" pan="0" vol="200" pos="276" key="1"/>
          <note len="24" pan="0" vol="200" pos="288" key="45"/>
          <note len="24" pan="0" vol="200" pos="288" key="38"/>
          <note len="24" pan="0" vol="200" pos="300" key="0"/>
          <note len="48" pan="0" vol="200" pos="312" key="45"/>
          <note len="48" pan="0" vol="200" pos="312" key="38"/>
          <note len="24" pan="0" vol="200" pos="348" key="1"/>
          <note len="24" pan="0" vol="200" pos="360" key="45"/>
          <note len="24" pan="0" vol="200" pos="360" key="38"/>
        </pattern>
        <pattern type="1" name="Rhythm Guitar" steps="16" pos="33408" muted="0">
          <note len="48" pan="0" vol="200" pos="0" key="50"/>
          <note len="48" pan="0" vol="200" pos="0" key="43"/>
          <note len="48" pan="0" vol="200" pos="0" key="1"/>
          <note len="48" pan="0" vol="200" pos="48" key="50"/>
          <note len="48" pan="0" vol="200" pos="48" key="43"/>
          <note len="48" pan="0" vol="200" pos="96" key="50"/>
          <note len="48" pan="0" vol="200" pos="96" key="43"/>
          <note len="24" pan="0" vol="200" pos="132" key="1"/>
          <note len="24" pan="0" vol="200" pos="144" key="50"/>
          <note len="24" pan="0" vol="200" pos="144" key="43"/>
          <note len="24" pan="0" vol="200" pos="156" key="0"/>
          <note len="48" pan="0" vol="200" pos="168" key="52"/>
          <note len="48" pan="0" vol="200" pos="168" key="45"/>
          <note len="24" pan="0" vol="200" pos="204" key="1"/>
          <note len="24" pan="0" vol="200" pos="216" key="52"/>
          <note len="24" pan="0" vol="200" pos="216" key="45"/>
          <note len="24" pan="0" vol="200" pos="228" key="0"/>
          <note len="48" pan="0" vol="200" pos="240" key="52"/>
          <note len="48" pan="0" vol="200" pos="240" key="45"/>
          <note len="48" pan="0" vol="200" pos="288" key="52"/>
          <note len="48" pan="0" vol="200" pos="288" key="45"/>
        </pattern>
        <pattern type="1" name="Rhythm Guitar" steps="16" pos="33792" muted="0">
          <note len="24" pan="0" vol="200" pos="0" key="45"/>
          <note len="24" pan="0" vol="200" pos="0" key="38"/>
          <note len="24" pan="0" vol="200" pos="0" key="1"/>
          <note len="24" pan="0" vol="200" pos="24" key="45"/>
          <note len="24" pan="0" vol="200" pos="24" key="38"/>
          <note len="24" pan="0" vol="200" pos="48" key="45"/>
          <note len="24" pan="0" vol="200" pos="48" key="38"/>
          <note len="24" pan="0" vol="200" pos="72" key="45"/>
          <note len="24" pan="0" vol="200" pos="72" key="38"/>
          <note len="24" pan="0" vol="200" pos="96" key="45"/>
          <note len="24" pan="0" vol="200" pos="96" key="38"/>
          <note len="24" pan="0" vol="200" pos="120" key="45"/>
          <note len="24" pan="0" vol="200" pos="120" key="38"/>
          <note len="24" pan="0" vol="200" pos="144" key="45"/>
          <note len="24" pan="0" vol="200" pos="144" key="38"/>
          <note len="24" pan="0" vol="200" pos="168" key="45"/>
          <note len="24" pan="0" vol="200" pos="168" key="38"/>
          <note len="24" pan="0" vol="200" pos="192" key="45"/>
          <note len="24" pan="0" vol="200" pos="192" key="38"/>
          <note len="24" pan="0" vol="200" pos="216" key="45"/>
          <note len="24" pan="0" vol="200" pos="216" key="38"/>
          <note len="24" pan="0" vol="200" pos="240" key="45"/>
          <note len="24" pan="0" vol="200" pos="240" key="38"/>
          <note len="24" pan="0" vol="200" pos="264" key="45"/>
          <note len="24" pan="0" vol="200" pos="264" key="38"/>
          <note len="24" pan="0" vol="200" pos="288" key="45"/>
          <note len="24" pan="0" vol="200" pos="288" key="38"/>
          <note len="24" pan="0" vol="200" pos="312" key="45"/>
          <note len="24" pan="0" vol="200" pos="312" key="38"/>
          <note len="24" pan="0" vol="200" pos="336" key="45"/>
          <note len="24" pan="0" vol="200" pos="336" key="38"/>
          <note len="24" pan="0" vol="200" pos="360" key="45"/>
          <note len="24" pan="0" vol="200" pos="360" key="38"/>
        </pattern>
        <pattern type="1" name="Rhythm Guitar" steps="16" pos="34176" muted="0">
          <note len="24" pan="0" vol="200" pos="0" key="50"/>
          <note len="24" pan="0" vol="200" pos="0" key="43"/>
          <note len="24" pan="0" vol="200" pos="0" key="1"/>
          <note len="24" pan="0" vol="200" pos="24" key="50"/>
          <note len="24" pan="0" vol="200" pos="24" key="43"/>
          <note len="24" pan="0" vol="200" pos="48" key="50"/>
          <note len="24" pan="0" vol="200" pos="48" key="43"/>
          <note len="24" pan="0" vol="200" pos="72" key="50"/>
          <note len="24" pan="0" vol="200" pos="72" key="43"/>
          <note len="24" pan="0" vol="200" pos="96" key="50"/>
          <note len="24" pan="0" vol="200" pos="96" key="43"/>
          <note len="24" pan="0" vol="200" pos="120" key="50"/>
          <note len="24" pan="0" vol="200" pos="120" key="43"/>
          <note len="24" pan="0" vol="200" pos="144" key="50"/>
          <note len="24" pan="0" vol="200" pos="144" key="43"/>
          <note len="24" pan="0" vol="200" pos="168" key="50"/>
          <note len="24" pan="0" vol="200" pos="168" key="43"/>
          <note len="24" pan="0" vol="200" pos="192" key="52"/>
          <note len="24" pan="0" vol="200" pos="192" key="45"/>
          <note len="24" pan="0" vol="200" pos="216" key="52"/>
          <note len="24" pan="0" vol="200" pos="216" key="45"/>
          <note len="24" pan="0" vol="200" pos="240" key="52"/>
          <note len="24" pan="0" vol="200" pos="240" key="45"/>
          <note len="24" pan="0" vol="200" pos="264" key="52"/>
          <note len="24" pan="0" vol="200" pos="264" key="45"/>
          <note len="24" pan="0" vol="200" pos="288" key="52"/>
          <note len="24" pan="0" vol="200" pos="288" key="45"/>
          <note len="24" pan="0" vol="200" pos="312" key="52"/>
          <note len="24" pan="0" vol="200" pos="312" key="45"/>
          <note len="24" pan="0" vol="200" pos="336" key="52"/>
          <note len="24" pan="0" vol="200" pos="336" key="45"/>
          <note len="24" pan="0" vol="200" pos="360" key="52"/>
          <note len="24" pan="0" vol="200" pos="360" key="45"/>
        </pattern>
        <pattern type="1" name="Rhythm Guitar" steps="16" pos="34560" muted="0">
          <note len="24" pan="0" vol="200" pos="0" key="45"/>
          <note len="24" pan="0" vol="200" pos="0" key="38"/>
          <note len="24" pan="0" vol="200" pos="0" key="1"/>
          <note len="24" pan="0" vol="200" pos="24" key="45"/>
          <note len="24" pan="0" vol="200" pos="24" key="38"/>
          <note len="24" pan="0" vol="200" pos="48" key="45"/>
          <note len="24" pan="0" vol="200" pos="48" key="38"/>
          <note len="24" pan="0" vol="200" pos="72" key="45"/>
          <note len="24" pan="0" vol="200" pos="72" key="38"/>
          <note len="24" pan="0" vol="200" pos="96" key="45"/>
          <note len="24" pan="0" vol="200" pos="96" key="38"/>
          <note len="24" pan="0" vol="200" pos="120" key="45"/>
          <note len="24" pan="0" vol="200" pos="120" key="38"/>
          <note len="24" pan="0" vol="200" pos="144" key="45"/>
          <note len="24" pan="0" vol="200" pos="144" key="38"/>
          <note len="24" pan="0" vol="200" pos="168" key="45"/>
          <note len="24" pan="0" vol="200" pos="168" key="38"/>
          <note len="24" pan="0" vol="200" pos="192" key="45"/>
          <note len="24" pan="0" vol="200" pos="192" key="38"/>
          <note len="24" pan="0" vol="200" pos="216" key="45"/>
          <note len="24" pan="0" vol="200" pos="216" key="38"/>
          <note len="24" pan="0" vol="200" pos="240" key="45"/>
          <note len="24" pan="0" vol="200" pos="240" key="38"/>
          <note len="24" pan="0" vol="200" pos="264" key="45"/>
          <note len="24" pan="0" vol="200" pos="264" key="38"/>
          <note len="24" pan="0" vol="200" pos="288" key="45"/>
          <note len="24" pan="0" vol="200" pos="288" key="38"/>
          <note len="24" pan="0" vol="200" pos="312" key="45"/>
          <note len="24" pan="0" vol="200" pos="312" key="38"/>
          <note len="24" pan="0" vol="200" pos="336" key="45"/>
          <note len="24" pan="0" vol="200" pos="336" key="38"/>
          <note len="24" pan="0" vol="200" pos="360" key="45"/>
          <note len="24" pan="0" vol="200" pos="360" key="38"/>
        </pattern>
        <pattern type="1" name="Rhythm Guitar" steps="16" pos="34944" muted="0">
          <note len="24" pan="0" vol="200" pos="0" key="50"/>
          <note len="24" pan="0" vol="200" pos="0" key="43"/>
          <note len="24" pan="0" vol="200" pos="0" key="1"/>
          <note len="24" pan="0" vol="200" pos="24" key="50"/>
          <note len="24" pan="0" vol="200" pos="24" key="43"/>
          <note len="24" pan="0" vol="200" pos="48" key="50"/>
          <note len="24" pan="0" vol="200" pos="48" key="43"/>
          <note len="24" pan="0" vol="200" pos="72" key="50"/>
          <note len="24" pan="0" vol="200" pos="72" key="43"/>
          <note len="24" pan="0" vol="200" pos="96" key="50"/>
          <note len="24" pan="0" vol="200" pos="96" key="43"/>
          <note len="24" pan="0" vol="200" pos="120" key="50"/>
          <note len="24" pan="0" vol="200" pos="120" key="43"/>
          <note len="24" pan="0" vol="200" pos="144" key="50"/>
          <note len="24" pan="0" vol="200" pos="144" key="43"/>
          <note len="24" pan="0" vol="200" pos="168" key="50"/>
          <note len="24" pan="0" vol="200" pos="168" key="43"/>
          <note len="24" pan="0" vol="200" pos="192" key="52"/>
          <note len="24" pan="0" vol="200" pos="192" key="45"/>
          <note len="24" pan="0" vol="200" pos="216" key="52"/>
          <note len="24" pan="0" vol="200" pos="216" key="45"/>
          <note len="24" pan="0" vol="200" pos="240" key="52"/>
          <note len="24" pan="0" vol="200" pos="240" key="45"/>
          <note len="24" pan="0" vol="200" pos="264" key="52"/>
          <note len="24" pan="0" vol="200" pos="264" key="45"/>
          <note len="48" pan="0" vol="200" pos="276" key="0"/>
          <note len="48" pan="0" vol="200" pos="288" key="52"/>
          <note len="48" pan="0" vol="200" pos="288" key="45"/>
          <note len="48" pan="0" vol="200" pos="336" key="52"/>
          <note len="48" pan="0" vol="200" pos="336" key="45"/>
        </pattern>
        <pattern type="1" name="Rhythm Guitar" steps="16" pos="35328" muted="0">
          <note len="24" pan="0" vol="200" pos="0" key="42"/>
          <note len="24" pan="0" vol="200" pos="0" key="35"/>
          <note len="12" pan="0" vol="200" pos="0" key="0"/>
          <note len="12" pan="0" vol="200" pos="12" key="1"/>
          <note len="12" pan="0" vol="200" pos="24" key="35"/>
          <note len="12" pan="0" vol="200" pos="36" key="35"/>
          <note len="12" pan="0" vol="200" pos="48" key="35"/>
          <note len="12" pan="0" vol="200" pos="60" key="35"/>
          <note len="24" pan="0" vol="200" pos="72" key="42"/>
          <note len="24" pan="0" vol="200" pos="72" key="35"/>
          <note len="12" pan="0" vol="200" pos="72" key="0"/>
          <note len="12" pan="0" vol="200" pos="84" key="1"/>
          <note len="12" pan="0" vol="200" pos="96" key="35"/>
          <note len="12" pan="0" vol="200" pos="108" key="35"/>
          <note len="12" pan="0" vol="200" pos="120" key="35"/>
          <note len="12" pan="0" vol="200" pos="132" key="35"/>
          <note len="12" pan="0" vol="200" pos="144" key="35"/>
          <note len="12" pan="0" vol="200" pos="156" key="35"/>
          <note len="12" pan="0" vol="200" pos="168" key="35"/>
          <note len="12" pan="0" vol="200" pos="180" key="35"/>
          <note len="24" pan="0" vol="200" pos="192" key="42"/>
          <note len="24" pan="0" vol="200" pos="192" key="35"/>
          <note len="12" pan="0" vol="200" pos="192" key="0"/>
          <note len="12" pan="0" vol="200" pos="204" key="1"/>
          <note len="12" pan="0" vol="200" pos="216" key="35"/>
          <note len="12" pan="0" vol="200" pos="228" key="35"/>
          <note len="12" pan="0" vol="200" pos="240" key="35"/>
          <note len="12" pan="0" vol="200" pos="252" key="35"/>
          <note len="24" pan="0" vol="200" pos="264" key="42"/>
          <note len="24" pan="0" vol="200" pos="264" key="35"/>
          <note len="12" pan="0" vol="200" pos="264" key="0"/>
          <note len="12" pan="0" vol="200" pos="276" key="1"/>
          <note len="12" pan="0" vol="200" pos="288" key="35"/>
          <note len="12" pan="0" vol="200" pos="300" key="35"/>
          <note len="12" pan="0" vol="200" pos="312" key="35"/>
          <note len="12" pan="0" vol="200" pos="324" key="35"/>
          <note len="12" pan="0" vol="200" pos="336" key="35"/>
          <note len="12" pan="0" vol="200" pos="348" key="35"/>
          <note len="12" pan="0" vol="200" pos="360" key="35"/>
          <note len="12" pan="0" vol="200" pos="372" key="35"/>
        </pattern>
        <pattern type="1" name="Rhythm Guitar" steps="16" pos="35712" muted="0">
          <note len="24" pan="0" vol="200" pos="0" key="50"/>
          <note len="24" pan="0" vol="200" pos="0" key="43"/>
          <note len="12" pan="0" vol="200" pos="0" key="0"/>
          <note len="12" pan="0" vol="200" pos="12" key="1"/>
          <note len="12" pan="0" vol="200" pos="24" key="43"/>
          <note len="12" pan="0" vol="200" pos="36" key="43"/>
          <note len="12" pan="0" vol="200" pos="48" key="43"/>
          <note len="12" pan="0" vol="200" pos="60" key="43"/>
          <note len="24" pan="0" vol="200" pos="72" key="50"/>
          <note len="24" pan="0" vol="200" pos="72" key="43"/>
          <note len="12" pan="0" vol="200" pos="72" key="0"/>
          <note len="12" pan="0" vol="200" pos="84" key="1"/>
          <note len="12" pan="0" vol="200" pos="96" key="43"/>
          <note len="12" pan="0" vol="200" pos="108" key="43"/>
          <note len="12" pan="0" vol="200" pos="120" key="43"/>
          <note len="12" pan="0" vol="200" pos="132" key="43"/>
          <note len="12" pan="0" vol="200" pos="144" key="43"/>
          <note len="12" pan="0" vol="200" pos="156" key="43"/>
          <note len="12" pan="0" vol="200" pos="168" key="43"/>
          <note len="12" pan="0" vol="200" pos="180" key="43"/>
          <note len="24" pan="0" vol="200" pos="192" key="50"/>
          <note len="24" pan="0" vol="200" pos="192" key="43"/>
          <note len="12" pan="0" vol="200" pos="192" key="0"/>
          <note len="12" pan="0" vol="200" pos="204" key="1"/>
          <note len="12" pan="0" vol="200" pos="216" key="43"/>
          <note len="12" pan="0" vol="200" pos="228" key="43"/>
          <note len="12" pan="0" vol="200" pos="240" key="43"/>
          <note len="12" pan="0" vol="200" pos="252" key="43"/>
          <note len="24" pan="0" vol="200" pos="264" key="50"/>
          <note len="24" pan="0" vol="200" pos="264" key="43"/>
          <note len="12" pan="0" vol="200" pos="264" key="0"/>
          <note len="12" pan="0" vol="200" pos="276" key="1"/>
          <note len="12" pan="0" vol="200" pos="288" key="43"/>
          <note len="12" pan="0" vol="200" pos="300" key="43"/>
          <note len="12" pan="0" vol="200" pos="312" key="43"/>
          <note len="12" pan="0" vol="200" pos="324" key="43"/>
          <note len="12" pan="0" vol="200" pos="336" key="43"/>
          <note len="12" pan="0" vol="200" pos="348" key="43"/>
          <note len="12" pan="0" vol="200" pos="360" key="43"/>
          <note len="12" pan="0" vol="200" pos="372" key="43"/>
        </pattern>
        <pattern type="1" name="Rhythm Guitar" steps="16" pos="36096" muted="0">
          <note len="24" pan="0" vol="200" pos="0" key="52"/>
          <note len="24" pan="0" vol="200" pos="0" key="45"/>
          <note len="12" pan="0" vol="200" pos="0" key="0"/>
          <note len="12" pan="0" vol="200" pos="12" key="1"/>
          <note len="12" pan="0" vol="200" pos="24" key="45"/>
          <note len="12" pan="0" vol="200" pos="36" key="45"/>
          <note len="12" pan="0" vol="200" pos="48" key="45"/>
          <note len="12" pan="0" vol="200" pos="60" key="45"/>
          <note len="24" pan="0" vol="200" pos="72" key="52"/>
          <note len="24" pan="0" vol="200" pos="72" key="45"/>
          <note len="12" pan="0" vol="200" pos="72" key="0"/>
          <note len="12" pan="0" vol="200" pos="84" key="1"/>
          <note len="12" pan="0" vol="200" pos="96" key="45"/>
          <note len="12" pan="0" vol="200" pos="108" key="45"/>
          <note len="12" pan="0" vol="200" pos="120" key="45"/>
          <note len="12" pan="0" vol="200" pos="132" key="45"/>
          <note len="12" pan="0" vol="200" pos="144" key="45"/>
          <note len="12" pan="0" vol="200" pos="156" key="45"/>
          <note len="12" pan="0" vol="200" pos="168" key="45"/>
          <note len="12" pan="0" vol="200" pos="180" key="45"/>
          <note len="24" pan="0" vol="200" pos="192" key="52"/>
          <note len="24" pan="0" vol="200" pos="192" key="45"/>
          <note len="12" pan="0" vol="200" pos="192" key="0"/>
          <note len="12" pan="0" vol="200" pos="204" key="1"/>
          <note len="12" pan="0" vol="200" pos="216" key="45"/>
          <note len="12" pan="0" vol="200" pos="228" key="45"/>
          <note len="12" pan="0" vol="200" pos="240" key="45"/>
          <note len="12" pan="0" vol="200" pos="252" key="45"/>
          <note len="24" pan="0" vol="200" pos="264" key="52"/>
          <note len="24" pan="0" vol="200" pos="264" key="45"/>
          <note len="12" pan="0" vol="200" pos="264" key="0"/>
          <note len="12" pan="0" vol="200" pos="276" key="1"/>
          <note len="12" pan="0" vol="200" pos="288" key="45"/>
          <note len="12" pan="0" vol="200" pos="300" key="45"/>
          <note len="12" pan="0" vol="200" pos="312" key="45"/>
          <note len="12" pan="0" vol="200" pos="324" key="45"/>
          <note len="12" pan="0" vol="200" pos="336" key="45"/>
          <note len="12" pan="0" vol="200" pos="348" key="45"/>
          <note len="12" pan="0" vol="200" pos="360" key="45"/>
          <note len="12" pan="0" vol="200" pos="372" key="45"/>
        </pattern>
        <pattern type="1" name="Rhythm Guitar" steps="16" pos="36480" muted="0">
          <note len="24" pan="0" vol="200" pos="0" key="45"/>
          <note len="24" pan="0" vol="200" pos="0" key="38"/>
          <note len="12" pan="0" vol="200" pos="0" key="0"/>
          <note len="12" pan="0" vol="200" pos="12" key="1"/>
          <note len="12" pan="0" vol="200" pos="24" key="38"/>
          <note len="12" pan="0" vol="200" pos="36" key="38"/>
          <note len="12" pan="0" vol="200" pos="48" key="38"/>
          <note len="12" pan="0" vol="200" pos="60" key="38"/>
          <note len="24" pan="0" vol="200" pos="72" key="45"/>
          <note len="24" pan="0" vol="200" pos="72" key="38"/>
          <note len="12" pan="0" vol="200" pos="72" key="0"/>
          <note len="12" pan="0" vol="200" pos="84" key="1"/>
          <note len="12" pan="0" vol="200" pos="96" key="38"/>
          <note len="12" pan="0" vol="200" pos="108" key="38"/>
          <note len="12" pan="0" vol="200" pos="120" key="38"/>
          <note len="12" pan="0" vol="200" pos="132" key="38"/>
          <note len="12" pan="0" vol="200" pos="144" key="38"/>
          <note len="12" pan="0" vol="200" pos="156" key="38"/>
          <note len="12" pan="0" vol="200" pos="168" key="38"/>
          <note len="12" pan="0" vol="200" pos="180" key="38"/>
          <note len="24" pan="0" vol="200" pos="192" key="45"/>
          <note len="24" pan="0" vol="200" pos="192" key="38"/>
          <note len="12" pan="0" vol="200" pos="192" key="0"/>
          <note len="12" pan="0" vol="200" pos="204" key="1"/>
          <note len="12" pan="0" vol="200" pos="216" key="38"/>
          <note len="12" pan="0" vol="200" pos="228" key="38"/>
          <note len="12" pan="0" vol="200" pos="240" key="38"/>
          <note len="12" pan="0" vol="200" pos="252" key="38"/>
          <note len="24" pan="0" vol="200" pos="264" key="45"/>
          <note len="24" pan="0" vol="200" pos="264" key="38"/>
          <note len="12" pan="0" vol="200" pos="264" key="0"/>
          <note len="12" pan="0" vol="200" pos="276" key="1"/>
          <note len="12" pan="0" vol="200" pos="288" key="38"/>
          <note len="12" pan="0" vol="200" pos="300" key="38"/>
          <note len="12" pan="0" vol="200" pos="312" key="38"/>
          <note len="12" pan="0" vol="200" pos="324" key="38"/>
          <note len="12" pan="0" vol="200" pos="336" key="38"/>
          <note len="12" pan="0" vol="200" pos="348" key="38"/>
          <note len="12" pan="0" vol="200" pos="360" key="38"/>
          <note len="12" pan="0" vol="200" pos="372" key="38"/>
        </pattern>
        <pattern type="1" name="Rhythm Guitar" steps="16" pos="36864" muted="0">
          <note len="24" pan="0" vol="200" pos="0" key="42"/>
          <note len="24" pan="0" vol="200" pos="0" key="35"/>
          <note len="12" pan="0" vol="200" pos="0" key="0"/>
          <note len="12" pan="0" vol="200" pos="12" key="1"/>
          <note len="12" pan="0" vol="200" pos="24" key="35"/>
          <note len="12" pan="0" vol="200" pos="36" key="35"/>
          <note len="12" pan="0" vol="200" pos="48" key="35"/>
          <note len="12" pan="0" vol="200" pos="60" key="35"/>
          <note len="24" pan="0" vol="200" pos="72" key="42"/>
          <note len="24" pan="0" vol="200" pos="72" key="35"/>
          <note len="12" pan="0" vol="200" pos="72" key="0"/>
          <note len="12" pan="0" vol="200" pos="84" key="1"/>
          <note len="12" pan="0" vol="200" pos="96" key="35"/>
          <note len="12" pan="0" vol="200" pos="108" key="35"/>
          <note len="12" pan="0" vol="200" pos="120" key="35"/>
          <note len="12" pan="0" vol="200" pos="132" key="35"/>
          <note len="12" pan="0" vol="200" pos="144" key="35"/>
          <note len="12" pan="0" vol="200" pos="156" key="35"/>
          <note len="12" pan="0" vol="200" pos="168" key="35"/>
          <note len="12" pan="0" vol="200" pos="180" key="35"/>
          <note len="24" pan="0" vol="200" pos="192" key="42"/>
          <note len="24" pan="0" vol="200" pos="192" key="35"/>
          <note len="12" pan="0" vol="200" pos="192" key="0"/>
          <note len="12" pan="0" vol="200" pos="204" key="1"/>
          <note len="12" pan="0" vol="200" pos="216" key="35"/>
          <note len="12" pan="0" vol="200" pos="228" key="35"/>
          <note len="12" pan="0" vol="200" pos="240" key="35"/>
          <note len="12" pan="0" vol="200" pos="252" key="35"/>
          <note len="24" pan="0" vol="200" pos="264" key="42"/>
          <note len="24" pan="0" vol="200" pos="264" key="35"/>
          <note len="12" pan="0" vol="200" pos="264" key="0"/>
          <note len="12" pan="0" vol="200" pos="276" key="1"/>
          <note len="12" pan="0" vol="200" pos="288" key="35"/>
          <note len="12" pan="0" vol="200" pos="300" key="35"/>
          <note len="12" pan="0" vol="200" pos="312" key="35"/>
          <note len="12" pan="0" vol="200" pos="324" key="35"/>
          <note len="12" pan="0" vol="200" pos="336" key="35"/>
          <note len="12" pan="0" vol="200" pos="348" key="35"/>
          <note len="12" pan="0" vol="200" pos="360" key="35"/>
          <note len="12" pan="0" vol="200" pos="372" key="35"/>
        </pattern>
        <pattern type="1" name="Rhythm Guitar" steps="16" pos="37248" muted="0">
          <note len="24" pan="0" vol="200" pos="0" key="50"/>
          <note len="24" pan="0" vol="200" pos="0" key="43"/>
          <note len="12" pan="0" vol="200" pos="0" key="0"/>
          <note len="12" pan="0" vol="200" pos="12" key="1"/>
          <note len="12" pan="0" vol="200" pos="24" key="43"/>
          <note len="12" pan="0" vol="200" pos="36" key="43"/>
          <note len="12" pan="0" vol="200" pos="48" key="43"/>
          <note len="12" pan="0" vol="200" pos="60" key="43"/>
          <note len="24" pan="0" vol="200" pos="72" key="50"/>
          <note len="24" pan="0" vol="200" pos="72" key="43"/>
          <note len="12" pan="0" vol="200" pos="72" key="0"/>
          <note len="12" pan="0" vol="200" pos="84" key="1"/>
          <note len="12" pan="0" vol="200" pos="96" key="43"/>
          <note len="12" pan="0" vol="200" pos="108" key="43"/>
          <note len="12" pan="0" vol="200" pos="120" key="43"/>
          <note len="12" pan="0" vol="200" pos="132" key="43"/>
          <note len="12" pan="0" vol="200" pos="144" key="43"/>
          <note len="12" pan="0" vol="200" pos="156" key="43"/>
          <note len="12" pan="0" vol="200" pos="168" key="43"/>
          <note len="12" pan="0" vol="200" pos="180" key="43"/>
          <note len="24" pan="0" vol="200" pos="192" key="50"/>
          <note len="24" pan="0" vol="200" pos="192" key="43"/>
          <note len="12" pan="0" vol="200" pos="192" key="0"/>
          <note len="12" pan="0" vol="200" pos="204" key="1"/>
          <note len="12" pan="0" vol="200" pos="216" key="43"/>
          <note len="12" pan="0" vol="200" pos="228" key="43"/>
          <note len="12" pan="0" vol="200" pos="240" key="43"/>
          <note len="12" pan="0" vol="200" pos="252" key="43"/>
          <note len="24" pan="0" vol="200" pos="264" key="50"/>
          <note len="24" pan="0" vol="200" pos="264" key="43"/>
          <note len="12" pan="0" vol="200" pos="264" key="0"/>
          <note len="12" pan="0" vol="200" pos="276" key="1"/>
          <note len="12" pan="0" vol="200" pos="288" key="43"/>
          <note len="12" pan="0" vol="200" pos="300" key="43"/>
          <note len="12" pan="0" vol="200" pos="312" key="43"/>
          <note len="12" pan="0" vol="200" pos="324" key="43"/>
          <note len="12" pan="0" vol="200" pos="336" key="43"/>
          <note len="12" pan="0" vol="200" pos="348" key="43"/>
          <note len="12" pan="0" vol="200" pos="360" key="43"/>
          <note len="12" pan="0" vol="200" pos="372" key="43"/>
        </pattern>
        <pattern type="1" name="Rhythm Guitar" steps="16" pos="37632" muted="0">
          <note len="24" pan="0" vol="200" pos="0" key="52"/>
          <note len="24" pan="0" vol="200" pos="0" key="45"/>
          <note len="12" pan="0" vol="200" pos="0" key="0"/>
          <note len="12" pan="0" vol="200" pos="12" key="1"/>
          <note len="12" pan="0" vol="200" pos="24" key="45"/>
          <note len="12" pan="0" vol="200" pos="36" key="45"/>
          <note len="12" pan="0" vol="200" pos="48" key="45"/>
          <note len="12" pan="0" vol="200" pos="60" key="45"/>
          <note len="24" pan="0" vol="200" pos="72" key="52"/>
          <note len="24" pan="0" vol="200" pos="72" key="45"/>
          <note len="12" pan="0" vol="200" pos="72" key="0"/>
          <note len="12" pan="0" vol="200" pos="84" key="1"/>
          <note len="12" pan="0" vol="200" pos="96" key="45"/>
          <note len="12" pan="0" vol="200" pos="108" key="45"/>
          <note len="12" pan="0" vol="200" pos="120" key="45"/>
          <note len="12" pan="0" vol="200" pos="132" key="45"/>
          <note len="12" pan="0" vol="200" pos="144" key="45"/>
          <note len="12" pan="0" vol="200" pos="156" key="45"/>
          <note len="12" pan="0" vol="200" pos="168" key="45"/>
          <note len="12" pan="0" vol="200" pos="180" key="45"/>
          <note len="24" pan="0" vol="200" pos="192" key="52"/>
          <note len="24" pan="0" vol="200" pos="192" key="45"/>
          <note len="12" pan="0" vol="200" pos="192" key="0"/>
          <note len="12" pan="0" vol="200" pos="204" key="1"/>
          <note len="12" pan="0" vol="200" pos="216" key="45"/>
          <note len="12" pan="0" vol="200" pos="228" key="45"/>
          <note len="12" pan="0" vol="200" pos="240" key="45"/>
          <note len="12" pan="0" vol="200" pos="252" key="45"/>
          <note len="24" pan="0" vol="200" pos="264" key="52"/>
          <note len="24" pan="0" vol="200" pos="264" key="45"/>
          <note len="12" pan="0" vol="200" pos="264" key="0"/>
          <note len="12" pan="0" vol="200" pos="276" key="1"/>
          <note len="12" pan="0" vol="200" pos="288" key="45"/>
          <note len="12" pan="0" vol="200" pos="300" key="45"/>
          <note len="12" pan="0" vol="200" pos="312" key="45"/>
          <note len="12" pan="0" vol="200" pos="324" key="45"/>
          <note len="12" pan="0" vol="200" pos="336" key="45"/>
          <note len="12" pan="0" vol="200" pos="348" key="45"/>
          <note len="12" pan="0" vol="200" pos="360" key="45"/>
          <note len="12" pan="0" vol="200" pos="372" key="45"/>
        </pattern>
        <pattern type="1" name="Rhythm Guitar" steps="16" pos="38016" muted="0">
          <note len="12" pan="0" vol="200" pos="0" key="45"/>
          <note len="12" pan="0" vol="200" pos="0" key="1"/>
          <note len="12" pan="0" vol="200" pos="12" key="45"/>
          <note len="12" pan="0" vol="200" pos="24" key="45"/>
          <note len="12" pan="0" vol="200" pos="36" key="45"/>
          <note len="12" pan="0" vol="200" pos="48" key="45"/>
          <note len="12" pan="0" vol="200" pos="60" key="45"/>
          <note len="12" pan="0" vol="200" pos="72" key="45"/>
          <note len="12" pan="0" vol="200" pos="84" key="45"/>
          <note len="12" pan="0" vol="200" pos="96" key="45"/>
          <note len="12" pan="0" vol="200" pos="108" key="45"/>
          <note len="12" pan="0" vol="200" pos="120" key="45"/>
          <note len="12" pan="0" vol="200" pos="132" key="45"/>
          <note len="12" pan="0" vol="200" pos="144" key="45"/>
          <note len="12" pan="0" vol="200" pos="156" key="45"/>
          <note len="12" pan="0" vol="200" pos="168" key="45"/>
          <note len="12" pan="0" vol="200" pos="180" key="45"/>
          <note len="30" pan="0" vol="200" pos="192" key="52"/>
          <note len="30" pan="0" vol="200" pos="192" key="45"/>
          <note len="24" pan="0" vol="200" pos="192" key="0"/>
          <note len="30" pan="0" vol="200" pos="240" key="52"/>
          <note len="30" pan="0" vol="200" pos="240" key="45"/>
          <note len="30" pan="0" vol="200" pos="288" key="52"/>
          <note len="30" pan="0" vol="200" pos="288" key="45"/>
          <note len="30" pan="0" vol="200" pos="336" key="52"/>
          <note len="30" pan="0" vol="200" pos="336" key="45"/>
        </pattern>
        <pattern type="1" name="Rhythm Guitar" steps="16" pos="38400" muted="0">
          <note len="384" pan="0" vol="100" pos="0" key="45"/>
          <note len="384" pan="0" vol="100" pos="0" key="38"/>
          <note len="384" pan="0" vol="100" pos="0" key="0"/>
          <note len="384" pan="0" vol="100" pos="384" key="52"/>
          <note len="384" pan="0" vol="100" pos="384" key="45"/>
          <note len="384" pan="0" vol="100" pos="768" key="50"/>
          <note len="384" pan="0" vol="100" pos="768" key="43"/>
          <note len="192" pan="0" vol="100" pos="1152" key="45"/>
          <note len="192" pan="0" vol="100" pos="1152" key="38"/>
          <note len="192" pan="0" vol="100" pos="1344" key="52"/>
          <note len="192" pan="0" vol="100" pos="1344" key="45"/>
        </pattern>
        <pattern type="1" name="Rhythm Guitar" steps="16" pos="39936" muted="0">
          <note len="384" pan="0" vol="100" pos="0" key="45"/>
          <note len="384" pan="0" vol="100" pos="0" key="38"/>
          <note len="384" pan="0" vol="100" pos="0" key="0"/>
          <note len="384" pan="0" vol="100" pos="384" key="52"/>
          <note len="384" pan="0" vol="100" pos="384" key="45"/>
          <note len="384" pan="0" vol="100" pos="768" key="50"/>
          <note len="384" pan="0" vol="100" pos="768" key="43"/>
          <note len="192" pan="0" vol="100" pos="1152" key="45"/>
          <note len="192" pan="0" vol="100" pos="1152" key="38"/>
          <note len="192" pan="0" vol="100" pos="1344" key="52"/>
          <note len="192" pan="0" vol="100" pos="1344" key="45"/>
        </pattern>
        <pattern type="1" name="Rhythm Guitar" steps="16" pos="41472" muted="0">
          <note len="24" pan="0" vol="100" pos="0" key="45"/>
          <note len="24" pan="0" vol="100" pos="0" key="38"/>
          <note len="24" pan="0" vol="100" pos="0" key="0"/>
          <note len="24" pan="0" vol="100" pos="12" key="1"/>
          <note len="12" pan="0" vol="100" pos="24" key="38"/>
          <note len="12" pan="0" vol="100" pos="36" key="38"/>
          <note len="12" pan="0" vol="100" pos="48" key="38"/>
          <note len="12" pan="0" vol="100" pos="60" key="38"/>
          <note len="24" pan="0" vol="100" pos="72" key="45"/>
          <note len="24" pan="0" vol="100" pos="72" key="38"/>
          <note len="24" pan="0" vol="100" pos="72" key="0"/>
          <note len="24" pan="0" vol="100" pos="84" key="1"/>
          <note len="12" pan="0" vol="100" pos="96" key="38"/>
          <note len="12" pan="0" vol="100" pos="108" key="38"/>
          <note len="12" pan="0" vol="100" pos="120" key="38"/>
          <note len="12" pan="0" vol="100" pos="132" key="38"/>
          <note len="24" pan="0" vol="100" pos="144" key="45"/>
          <note len="24" pan="0" vol="100" pos="144" key="38"/>
          <note len="24" pan="0" vol="100" pos="144" key="0"/>
          <note len="24" pan="0" vol="100" pos="156" key="1"/>
          <note len="12" pan="0" vol="100" pos="168" key="38"/>
          <note len="12" pan="0" vol="100" pos="180" key="38"/>
          <note len="24" pan="0" vol="100" pos="192" key="45"/>
          <note len="24" pan="0" vol="100" pos="192" key="38"/>
          <note len="24" pan="0" vol="100" pos="192" key="0"/>
          <note len="24" pan="0" vol="100" pos="204" key="1"/>
          <note len="12" pan="0" vol="100" pos="216" key="38"/>
          <note len="12" pan="0" vol="100" pos="228" key="38"/>
          <note len="12" pan="0" vol="100" pos="240" key="38"/>
          <note len="12" pan="0" vol="100" pos="252" key="38"/>
          <note len="24" pan="0" vol="100" pos="264" key="45"/>
          <note len="24" pan="0" vol="100" pos="264" key="38"/>
          <note len="24" pan="0" vol="100" pos="264" key="0"/>
          <note len="24" pan="0" vol="100" pos="276" key="1"/>
          <note len="12" pan="0" vol="100" pos="288" key="38"/>
          <note len="12" pan="0" vol="100" pos="300" key="38"/>
          <note len="12" pan="0" vol="100" pos="312" key="38"/>
          <note len="12" pan="0" vol="100" pos="324" key="38"/>
          <note len="24" pan="0" vol="100" pos="336" key="45"/>
          <note len="24" pan="0" vol="100" pos="336" key="38"/>
          <note len="24" pan="0" vol="100" pos="336" key="0"/>
          <note len="24" pan="0" vol="100" pos="348" key="1"/>
          <note len="12" pan="0" vol="100" pos="360" key="38"/>
          <note len="12" pan="0" vol="100" pos="372" key="38"/>
        </pattern>
        <pattern type="1" name="Rhythm Guitar" steps="16" pos="41856" muted="0">
          <note len="24" pan="0" vol="100" pos="0" key="52"/>
          <note len="24" pan="0" vol="100" pos="0" key="45"/>
          <note len="24" pan="0" vol="100" pos="0" key="0"/>
          <note len="24" pan="0" vol="100" pos="12" key="1"/>
          <note len="12" pan="0" vol="100" pos="24" key="45"/>
          <note len="12" pan="0" vol="100" pos="36" key="45"/>
          <note len="12" pan="0" vol="100" pos="48" key="45"/>
          <note len="12" pan="0" vol="100" pos="60" key="45"/>
          <note len="24" pan="0" vol="100" pos="72" key="52"/>
          <note len="24" pan="0" vol="100" pos="72" key="45"/>
          <note len="24" pan="0" vol="100" pos="72" key="0"/>
          <note len="24" pan="0" vol="100" pos="84" key="1"/>
          <note len="12" pan="0" vol="100" pos="96" key="45"/>
          <note len="12" pan="0" vol="100" pos="108" key="45"/>
          <note len="12" pan="0" vol="100" pos="120" key="45"/>
          <note len="12" pan="0" vol="100" pos="132" key="45"/>
          <note len="24" pan="0" vol="100" pos="144" key="52"/>
          <note len="24" pan="0" vol="100" pos="144" key="45"/>
          <note len="24" pan="0" vol="100" pos="144" key="0"/>
          <note len="24" pan="0" vol="100" pos="156" key="1"/>
          <note len="12" pan="0" vol="100" pos="168" key="45"/>
          <note len="12" pan="0" vol="100" pos="180" key="45"/>
          <note len="24" pan="0" vol="100" pos="192" key="52"/>
          <note len="24" pan="0" vol="100" pos="192" key="45"/>
          <note len="24" pan="0" vol="100" pos="192" key="0"/>
          <note len="24" pan="0" vol="100" pos="204" key="1"/>
          <note len="12" pan="0" vol="100" pos="216" key="45"/>
          <note len="12" pan="0" vol="100" pos="228" key="45"/>
          <note len="12" pan="0" vol="100" pos="240" key="45"/>
          <note len="12" pan="0" vol="100" pos="252" key="45"/>
          <note len="24" pan="0" vol="100" pos="264" key="52"/>
          <note len="24" pan="0" vol="100" pos="264" key="45"/>
          <note len="24" pan="0" vol="100" pos="264" key="0"/>
          <note len="24" pan="0" vol="100" pos="276" key="1"/>
          <note len="12" pan="0" vol="100" pos="288" key="45"/>
          <note len="12" pan="0" vol="100" pos="300" key="45"/>
          <note len="12" pan="0" vol="100" pos="312" key="45"/>
          <note len="12" pan="0" vol="100" pos="324" key="45"/>
          <note len="24" pan="0" vol="100" pos="336" key="52"/>
          <note len="24" pan="0" vol="100" pos="336" key="45"/>
          <note len="24" pan="0" vol="100" pos="336" key="0"/>
          <note len="24" pan="0" vol="100" pos="348" key="1"/>
          <note len="12" pan="0" vol="100" pos="360" key="45"/>
          <note len="12" pan="0" vol="100" pos="372" key="45"/>
        </pattern>
        <pattern type="1" name="Rhythm Guitar" steps="16" pos="42240" muted="0">
          <note len="24" pan="0" vol="100" pos="0" key="50"/>
          <note len="24" pan="0" vol="100" pos="0" key="43"/>
          <note len="24" pan="0" vol="100" pos="0" key="0"/>
          <note len="24" pan="0" vol="100" pos="12" key="1"/>
          <note len="12" pan="0" vol="100" pos="24" key="43"/>
          <note len="12" pan="0" vol="100" pos="36" key="43"/>
          <note len="12" pan="0" vol="100" pos="48" key="43"/>
          <note len="12" pan="0" vol="100" pos="60" key="43"/>
          <note len="24" pan="0" vol="100" pos="72" key="50"/>
          <note len="24" pan="0" vol="100" pos="72" key="43"/>
          <note len="24" pan="0" vol="100" pos="72" key="0"/>
          <note len="24" pan="0" vol="100" pos="84" key="1"/>
          <note len="12" pan="0" vol="100" pos="96" key="43"/>
          <note len="12" pan="0" vol="100" pos="108" key="43"/>
          <note len="12" pan="0" vol="100" pos="120" key="43"/>
          <note len="12" pan="0" vol="100" pos="132" key="43"/>
          <note len="24" pan="0" vol="100" pos="144" key="50"/>
          <note len="24" pan="0" vol="100" pos="144" key="43"/>
          <note len="24" pan="0" vol="100" pos="144" key="0"/>
          <note len="24" pan="0" vol="100" pos="156" key="1"/>
          <note len="12" pan="0" vol="100" pos="168" key="43"/>
          <note len="12" pan="0" vol="100" pos="180" key="43"/>
          <note len="24" pan="0" vol="100" pos="192" key="50"/>
          <note len="24" pan="0" vol="100" pos="192" key="43"/>
          <note len="24" pan="0" vol="100" pos="192" key="0"/>
          <note len="24" pan="0" vol="100" pos="204" key="1"/>
          <note len="12" pan="0" vol="100" pos="216" key="43"/>
          <note len="12" pan="0" vol="100" pos="228" key="43"/>
          <note len="12" pan="0" vol="100" pos="240" key="43"/>
          <note len="12" pan="0" vol="100" pos="252" key="43"/>
          <note len="24" pan="0" vol="100" pos="264" key="50"/>
          <note len="24" pan="0" vol="100" pos="264" key="43"/>
          <note len="24" pan="0" vol="100" pos="264" key="0"/>
          <note len="24" pan="0" vol="100" pos="276" key="1"/>
          <note len="12" pan="0" vol="100" pos="288" key="43"/>
          <note len="12" pan="0" vol="100" pos="300" key="43"/>
          <note len="12" pan="0" vol="100" pos="312" key="43"/>
          <note len="12" pan="0" vol="100" pos="324" key="43"/>
          <note len="24" pan="0" vol="100" pos="336" key="50"/>
          <note len="24" pan="0" vol="100" pos="336" key="43"/>
          <note len="24" pan="0" vol="100" pos="336" key="0"/>
          <note len="24" pan="0" vol="100" pos="348" key="1"/>
          <note len="12" pan="0" vol="100" pos="360" key="43"/>
          <note len="12" pan="0" vol="100" pos="372" key="43"/>
        </pattern>
        <pattern type="1" name="Rhythm Guitar" steps="16" pos="42624" muted="0">
          <note len="24" pan="0" vol="100" pos="0" key="45"/>
          <note len="24" pan="0" vol="100" pos="0" key="38"/>
          <note len="24" pan="0" vol="100" pos="0" key="0"/>
          <note len="24" pan="0" vol="100" pos="12" key="1"/>
          <note len="12" pan="0" vol="100" pos="24" key="38"/>
          <note len="12" pan="0" vol="100" pos="36" key="38"/>
          <note len="12" pan="0" vol="100" pos="48" key="38"/>
          <note len="12" pan="0" vol="100" pos="60" key="38"/>
          <note len="24" pan="0" vol="100" pos="72" key="45"/>
          <note len="24" pan="0" vol="100" pos="72" key="38"/>
          <note len="24" pan="0" vol="100" pos="72" key="0"/>
          <note len="24" pan="0" vol="100" pos="84" key="1"/>
          <note len="12" pan="0" vol="100" pos="96" key="38"/>
          <note len="12" pan="0" vol="100" pos="108" key="38"/>
          <note len="12" pan="0" vol="100" pos="120" key="38"/>
          <note len="12" pan="0" vol="100" pos="132" key="38"/>
          <note len="24" pan="0" vol="100" pos="144" key="45"/>
          <note len="24" pan="0" vol="100" pos="144" key="38"/>
          <note len="24" pan="0" vol="100" pos="144" key="0"/>
          <note len="24" pan="0" vol="100" pos="156" key="1"/>
          <note len="12" pan="0" vol="100" pos="168" key="38"/>
          <note len="12" pan="0" vol="100" pos="180" key="38"/>
          <note len="24" pan="0" vol="100" pos="192" key="52"/>
          <note len="24" pan="0" vol="100" pos="192" key="45"/>
          <note len="24" pan="0" vol="100" pos="192" key="0"/>
          <note len="24" pan="0" vol="100" pos="204" key="1"/>
          <note len="12" pan="0" vol="100" pos="216" key="45"/>
          <note len="12" pan="0" vol="100" pos="228" key="45"/>
          <note len="12" pan="0" vol="100" pos="240" key="45"/>
          <note len="12" pan="0" vol="100" pos="252" key="45"/>
          <note len="24" pan="0" vol="100" pos="264" key="52"/>
          <note len="24" pan="0" vol="100" pos="264" key="45"/>
          <note len="24" pan="0" vol="100" pos="264" key="0"/>
          <note len="24" pan="0" vol="100" pos="276" key="1"/>
          <note len="12" pan="0" vol="100" pos="288" key="45"/>
          <note len="12" pan="0" vol="100" pos="300" key="45"/>
          <note len="12" pan="0" vol="100" pos="312" key="45"/>
          <note len="12" pan="0" vol="100" pos="324" key="45"/>
          <note len="24" pan="0" vol="100" pos="336" key="52"/>
          <note len="24" pan="0" vol="100" pos="336" key="45"/>
          <note len="24" pan="0" vol="100" pos="336" key="0"/>
          <note len="24" pan="0" vol="100" pos="348" key="1"/>
          <note len="12" pan="0" vol="100" pos="360" key="45"/>
          <note len="12" pan="0" vol="100" pos="372" key="45"/>
        </pattern>
        <pattern type="1" name="Rhythm Guitar" steps="16" pos="43008" muted="0">
          <note len="384" pan="0" vol="100" pos="0" key="42"/>
          <note len="384" pan="0" vol="100" pos="0" key="35"/>
          <note len="24" pan="0" vol="100" pos="0" key="0"/>
          <note len="384" pan="0" vol="100" pos="384" key="42"/>
          <note len="384" pan="0" vol="100" pos="384" key="35"/>
        </pattern>
        <pattern type="1" name="Rhythm Guitar" steps="16" pos="43776" muted="0">
          <note len="384" pan="0" vol="100" pos="0" key="50"/>
          <note len="384" pan="0" vol="100" pos="0" key="43"/>
          <note len="24" pan="0" vol="100" pos="0" key="0"/>
          <note len="384" pan="0" vol="100" pos="384" key="50"/>
          <note len="384" pan="0" vol="100" pos="384" key="43"/>
        </pattern>
        <pattern type="1" name="Rhythm Guitar" steps="16" pos="44544" muted="0">
          <note len="384" pan="0" vol="100" pos="0" key="42"/>
          <note len="384" pan="0" vol="100" pos="0" key="35"/>
          <note len="24" pan="0" vol="100" pos="0" key="0"/>
          <note len="384" pan="0" vol="100" pos="384" key="42"/>
          <note len="384" pan="0" vol="100" pos="384" key="35"/>
        </pattern>
        <pattern type="1" name="Rhythm Guitar" steps="16" pos="45312" muted="0">
          <note len="384" pan="0" vol="100" pos="0" key="50"/>
          <note len="384" pan="0" vol="100" pos="0" key="43"/>
          <note len="24" pan="0" vol="100" pos="0" key="0"/>
          <note len="384" pan="0" vol="100" pos="384" key="52"/>
          <note len="384" pan="0" vol="100" pos="384" key="45"/>
        </pattern>
        <pattern type="1" name="Rhythm Guitar" steps="16" pos="46080" muted="0">
          <note len="384" pan="0" vol="195" pos="0" key="42"/>
          <note len="384" pan="0" vol="195" pos="0" key="35"/>
          <note len="48" pan="0" vol="195" pos="0" key="0"/>
        </pattern>
        <pattern type="1" name="" steps="16" pos="31872" muted="0">
          <note len="24" pan="0" vol="100" pos="0" key="57"/>
          <note len="24" pan="0" vol="100" pos="0" key="50"/>
          <note len="12" pan="0" vol="100" pos="0" key="0"/>
          <note len="12" pan="0" vol="100" pos="12" key="1"/>
          <note len="12" pan="0" vol="100" pos="24" key="50"/>
          <note len="12" pan="0" vol="100" pos="36" key="50"/>
          <note len="12" pan="0" vol="100" pos="48" key="50"/>
          <note len="12" pan="0" vol="100" pos="60" key="50"/>
          <note len="24" pan="0" vol="100" pos="72" key="57"/>
          <note len="24" pan="0" vol="100" pos="72" key="50"/>
          <note len="12" pan="0" vol="100" pos="72" key="0"/>
          <note len="12" pan="0" vol="100" pos="84" key="1"/>
          <note len="12" pan="0" vol="100" pos="96" key="50"/>
          <note len="12" pan="0" vol="100" pos="108" key="50"/>
          <note len="12" pan="0" vol="100" pos="120" key="50"/>
          <note len="12" pan="0" vol="100" pos="132" key="50"/>
          <note len="24" pan="0" vol="100" pos="144" key="57"/>
          <note len="24" pan="0" vol="100" pos="144" key="50"/>
          <note len="12" pan="0" vol="100" pos="144" key="0"/>
          <note len="12" pan="0" vol="100" pos="156" key="1"/>
          <note len="12" pan="0" vol="100" pos="168" key="50"/>
          <note len="12" pan="0" vol="100" pos="180" key="50"/>
          <note len="30" pan="0" vol="100" pos="192" key="52"/>
          <note len="30" pan="0" vol="100" pos="192" key="45"/>
          <note len="12" pan="0" vol="100" pos="192" key="0"/>
          <note len="30" pan="0" vol="100" pos="240" key="52"/>
          <note len="30" pan="0" vol="100" pos="240" key="45"/>
          <note len="30" pan="0" vol="100" pos="288" key="52"/>
          <note len="30" pan="0" vol="100" pos="288" key="45"/>
          <note len="30" pan="0" vol="100" pos="336" key="50"/>
          <note len="30" pan="0" vol="100" pos="336" key="43"/>
        </pattern>
      </track>
      <track type="0" name="Lead Guitar S" muted="1" solo="0">
        <instrumenttrack pitch="0" usemasterpitch="1" pitchrange="1" pan="0" fxch="12" vol="200" basenote="57">
          <instrument name="carlapatchbay">
            <carlapatchbay>
              <CARLA-PROJECT VERSION="2.2">
                <EngineSettings>
                  <ForceStereo>false</ForceStereo>
                  <PreferPluginBridges>false</PreferPluginBridges>
                  <PreferUiBridges>true</PreferUiBridges>
                  <UIsAlwaysOnTop>false</UIsAlwaysOnTop>
                  <MaxParameters>200</MaxParameters>
                  <UIBridgesTimeout>4000</UIBridgesTimeout>
                  <LADSPA_PATH>/home/pass/.ladspa:/usr/lib/ladspa:/usr/local/lib/ladspa</LADSPA_PATH>
                  <DSSI_PATH>/home/pass/.dssi:/usr/lib/dssi:/usr/local/lib/dssi</DSSI_PATH>
                  <LV2_PATH>/home/pass/.lv2:/usr/lib/lv2:/usr/local/lib/lv2</LV2_PATH>
                  <VST2_PATH>/home/pass/.vst:/home/pass/.wine/drive_c/Program Files (x86)/VstPlugins:/home/pass/.wine/drive_c/Program Files/VstPlugins:/usr/lib/lxvst:/usr/lib/vst:/usr/local/lib/lxvst:/usr/local/lib/vst/home/pass/.lxvst:/home/pass/vst</VST2_PATH>
                  <VST3_PATH>/home/pass/.vst3:/home/pass/.wine/drive_c/Program Files (x86)/Common Files/VST3:/home/pass/.wine/drive_c/Program Files/Common Files/VST3:/usr/lib/vst3:/usr/local/lib/vst3</VST3_PATH>
                  <SF2_PATH>/home/pass/.sounds/sf2/home/pass/.sounds/sf3:/usr/share/soundfonts:/usr/share/sounds/sf2:/usr/share/sounds/sf3</SF2_PATH>
                  <SFZ_PATH>/home/pass/.sounds/sfz:/home/pass/samples:/usr/share/sounds/sfz</SFZ_PATH>
                </EngineSettings>
                <!-- sfizz -->
                <Plugin>
                  <Info>
                    <Type>LV2</Type>
                    <Name>sfizz</Name>
                    <URI>http://sfztools.github.io/sfizz</URI>
                  </Info>
                  <Data>
                    <Active>Yes</Active>
                    <ControlChannel>1</ControlChannel>
                    <Options>0x3f0</Options>
                    <Parameter>
                      <Index>0</Index>
                      <Name>Volume</Name>
                      <Symbol>volume</Symbol>
                      <Value>0</Value>
                    </Parameter>
                    <Parameter>
                      <Index>1</Index>
                      <Name>Polyphony</Name>
                      <Symbol>num_voices</Symbol>
                      <Value>64</Value>
                    </Parameter>
                    <Parameter>
                      <Index>2</Index>
                      <Name>Internal oversampling factor</Name>
                      <Symbol>oversampling</Symbol>
                      <Value>1</Value>
                    </Parameter>
                    <Parameter>
                      <Index>3</Index>
                      <Name>Preload size</Name>
                      <Symbol>preload_size</Symbol>
                      <Value>8192</Value>
                    </Parameter>
                    <CustomData>
                      <Type>http://lv2plug.in/ns/ext/atom#Path</Type>
                      <Key>http://sfztools.github.io/sfizz:sfzfile</Key>
                      <Value>/home/pass/samples/fakeguitar/_fakeguitar1_integrated.sfz</Value>
                    </CustomData>
                    <CustomData>
                      <Type>http://lv2plug.in/ns/ext/atom#Int</Type>
                      <Key>http://sfztools.github.io/sfizz:numvoices</Key>
                      <Value>QAAAAA==</Value>
                    </CustomData>
                    <CustomData>
                      <Type>http://lv2plug.in/ns/ext/atom#Int</Type>
                      <Key>http://sfztools.github.io/sfizz:preload_size</Key>
                      <Value>ACAAAA==</Value>
                    </CustomData>
                    <CustomData>
                      <Type>http://lv2plug.in/ns/ext/atom#Int</Type>
                      <Key>http://sfztools.github.io/sfizz:oversampling</Key>
                      <Value>AQAAAA==</Value>
                    </CustomData>
                  </Data>
                </Plugin>
                <Patchbay>
                  <Connection>
                    <Source>Midi Input:Capture 1</Source>
                    <Target>sfizz:events-in</Target>
                  </Connection>
                  <Connection>
                    <Source>sfizz:Left Output</Source>
                    <Target>Audio Output:Left</Target>
                  </Connection>
                  <Connection>
                    <Source>sfizz:Right Output</Source>
                    <Target>Audio Output:Right</Target>
                  </Connection>
                  <Positions>
                    <Position x1="1693" y1="1353" pluginId="0">
                      <Name>sfizz</Name>
                    </Position>
                  </Positions>
                </Patchbay>
              </CARLA-PROJECT>
            </carlapatchbay>
          </instrument>
          <eldata fcut="14000" fres="0.5" fwet="0" ftype="0">
            <elvol sustain="0.5" lspd_denominator="4" rel="0.1" lspd_numerator="4" lspd_syncmode="0" x100="0" pdel="0" amt="0" userwavefile="" hold="0.5" dec="0.5" lspd="0.1" lamt="0" latt="0" lpdel="0" ctlenvamt="0" att="0" lshp="0"/>
            <elcut sustain="0.5" lspd_denominator="4" rel="0.1" lspd_numerator="4" lspd_syncmode="0" x100="0" pdel="0" amt="0" userwavefile="" hold="0.5" dec="0.5" lspd="0.1" lamt="0" latt="0" lpdel="0" ctlenvamt="0" att="0" lshp="0"/>
            <elres sustain="0.5" lspd_denominator="4" rel="0.1" lspd_numerator="4" lspd_syncmode="0" x100="0" pdel="0" amt="0" userwavefile="" hold="0.5" dec="0.5" lspd="0.1" lamt="0" latt="0" lpdel="0" ctlenvamt="0" att="0" lshp="0"/>
          </eldata>
          <chordcreator chordrange="1" chord="0" chord-enabled="0"/>
          <arpeggiator arpgate="100" arpskip="0" arp-enabled="0" arpmiss="0" arptime_denominator="4" arpdir="0" arpmode="0" arptime_numerator="4" arp="0" arptime="200" arprange="1" arpcycle="0" arptime_syncmode="0"/>
          <midiport fixedinputvelocity="-1" outputcontroller="0" inputchannel="0" outputchannel="1" basevelocity="63" fixedoutputnote="-1" inputcontroller="0" outputprogram="1" readable="0" writable="0" fixedoutputvelocity="-1"/>
          <fxchain numofeffects="0" enabled="0"/>
        </instrumenttrack>
        <pattern type="1" name="Lead Guitar S" steps="16" pos="5760" muted="0">
          <note len="48" pan="0" vol="200" pos="0" key="62"/>
          <note len="24" pan="0" vol="100" pos="0" key="0"/>
          <note len="48" pan="0" vol="200" pos="48" key="61"/>
          <note len="48" pan="0" vol="200" pos="96" key="62"/>
          <note len="48" pan="0" vol="200" pos="144" key="64"/>
          <note len="48" pan="0" vol="200" pos="192" key="66"/>
          <note len="48" pan="0" vol="200" pos="240" key="64"/>
          <note len="48" pan="0" vol="200" pos="288" key="66"/>
          <note len="48" pan="0" vol="200" pos="336" key="69"/>
        </pattern>
        <pattern type="0" name="Lead Guitar S" steps="16" pos="9216" muted="0"/>
        <pattern type="1" name="Lead Guitar S" steps="16" pos="12288" muted="0">
          <note len="48" pan="0" vol="100" pos="0" key="66"/>
          <note len="48" pan="0" vol="100" pos="0" key="0"/>
          <note len="24" pan="0" vol="100" pos="48" key="66"/>
          <note len="48" pan="0" vol="100" pos="72" key="66"/>
          <note len="24" pan="0" vol="100" pos="120" key="66"/>
          <note len="24" pan="0" vol="100" pos="144" key="66"/>
          <note len="24" pan="0" vol="100" pos="168" key="66"/>
          <note len="72" pan="0" vol="100" pos="192" key="67"/>
          <note len="72" pan="0" vol="100" pos="264" key="66"/>
          <note len="48" pan="0" vol="100" pos="336" key="64"/>
          <note len="48" pan="0" vol="100" pos="384" key="62"/>
          <note len="24" pan="0" vol="100" pos="432" key="62"/>
          <note len="48" pan="0" vol="100" pos="456" key="62"/>
          <note len="24" pan="0" vol="100" pos="504" key="62"/>
          <note len="24" pan="0" vol="100" pos="528" key="62"/>
          <note len="24" pan="0" vol="100" pos="552" key="62"/>
          <note len="72" pan="0" vol="100" pos="576" key="64"/>
          <note len="72" pan="0" vol="100" pos="648" key="66"/>
          <note len="48" pan="0" vol="100" pos="720" key="64"/>
        </pattern>
        <pattern type="1" name="Lead Guitar S" steps="16" pos="13056" muted="0">
          <note len="48" pan="0" vol="100" pos="0" key="66"/>
          <note len="48" pan="0" vol="100" pos="0" key="0"/>
          <note len="24" pan="0" vol="100" pos="48" key="66"/>
          <note len="48" pan="0" vol="100" pos="72" key="66"/>
          <note len="24" pan="0" vol="100" pos="120" key="66"/>
          <note len="24" pan="0" vol="100" pos="144" key="66"/>
          <note len="24" pan="0" vol="100" pos="168" key="66"/>
          <note len="72" pan="0" vol="100" pos="192" key="67"/>
          <note len="72" pan="0" vol="100" pos="264" key="66"/>
          <note len="48" pan="0" vol="100" pos="336" key="64"/>
          <note len="72" pan="0" vol="100" pos="384" key="62"/>
          <note len="72" pan="0" vol="100" pos="456" key="64"/>
          <note len="48" pan="0" vol="100" pos="528" key="66"/>
          <note len="72" pan="0" vol="100" pos="576" key="64"/>
          <note len="72" pan="0" vol="100" pos="648" key="62"/>
          <note len="48" pan="0" vol="100" pos="720" key="61"/>
        </pattern>
        <pattern type="1" name="Lead Guitar S" steps="16" pos="18240" muted="0">
          <note len="48" pan="0" vol="100" pos="48" key="69"/>
          <note len="48" pan="0" vol="100" pos="96" key="67"/>
          <note len="48" pan="0" vol="100" pos="144" key="66"/>
        </pattern>
        <pattern type="1" name="Lead Guitar S" steps="16" pos="18432" muted="0">
          <note len="72" pan="0" vol="100" pos="0" key="62"/>
          <note len="48" pan="0" vol="100" pos="0" key="0"/>
          <note len="72" pan="0" vol="100" pos="72" key="64"/>
          <note len="48" pan="0" vol="100" pos="144" key="66"/>
          <note len="96" pan="0" vol="100" pos="192" key="69"/>
          <note len="48" pan="0" vol="100" pos="288" key="66"/>
          <note len="48" pan="0" vol="100" pos="336" key="69"/>
          <note len="72" pan="0" vol="100" pos="384" key="71"/>
          <note len="72" pan="0" vol="100" pos="456" key="69"/>
          <note len="48" pan="0" vol="100" pos="528" key="66"/>
          <note len="96" pan="0" vol="100" pos="576" key="69"/>
          <note len="48" pan="0" vol="100" pos="672" key="66"/>
          <note len="48" pan="0" vol="100" pos="720" key="69"/>
          <note len="72" pan="0" vol="100" pos="768" key="71"/>
          <note len="72" pan="0" vol="100" pos="840" key="69"/>
          <note len="48" pan="0" vol="100" pos="912" key="67"/>
          <note len="72" pan="0" vol="100" pos="960" key="71"/>
          <note len="72" pan="0" vol="100" pos="1032" key="69"/>
          <note len="48" pan="0" vol="100" pos="1104" key="67"/>
          <note len="72" pan="0" vol="100" pos="1152" key="66"/>
          <note len="72" pan="0" vol="100" pos="1224" key="67"/>
          <note len="48" pan="0" vol="100" pos="1296" key="66"/>
          <note len="96" pan="0" vol="100" pos="1344" key="64"/>
          <note len="48" pan="0" vol="100" pos="1440" key="66"/>
          <note len="48" pan="0" vol="100" pos="1488" key="64"/>
        </pattern>
        <pattern type="1" name="Lead Guitar S" steps="16" pos="19968" muted="0">
          <note len="72" pan="0" vol="100" pos="0" key="62"/>
          <note len="72" pan="0" vol="100" pos="72" key="64"/>
          <note len="48" pan="0" vol="100" pos="144" key="66"/>
          <note len="96" pan="0" vol="100" pos="192" key="69"/>
          <note len="48" pan="0" vol="100" pos="288" key="66"/>
          <note len="48" pan="0" vol="100" pos="336" key="69"/>
          <note len="72" pan="0" vol="100" pos="384" key="71"/>
          <note len="72" pan="0" vol="100" pos="456" key="69"/>
          <note len="48" pan="0" vol="100" pos="528" key="66"/>
          <note len="96" pan="0" vol="100" pos="576" key="69"/>
          <note len="48" pan="0" vol="100" pos="672" key="66"/>
          <note len="48" pan="0" vol="100" pos="720" key="69"/>
          <note len="72" pan="0" vol="100" pos="768" key="71"/>
          <note len="72" pan="0" vol="100" pos="840" key="69"/>
          <note len="48" pan="0" vol="100" pos="912" key="67"/>
          <note len="72" pan="0" vol="100" pos="960" key="71"/>
          <note len="72" pan="0" vol="100" pos="1032" key="69"/>
          <note len="48" pan="0" vol="100" pos="1104" key="67"/>
          <note len="72" pan="0" vol="100" pos="1152" key="66"/>
          <note len="72" pan="0" vol="100" pos="1224" key="67"/>
          <note len="48" pan="0" vol="100" pos="1296" key="66"/>
          <note len="96" pan="0" vol="100" pos="1344" key="64"/>
          <note len="48" pan="0" vol="100" pos="1440" key="66"/>
          <note len="48" pan="0" vol="100" pos="1488" key="64"/>
          <note len="384" pan="0" vol="100" pos="1536" key="62"/>
        </pattern>
        <pattern type="1" name="Lead Guitar S" steps="16" pos="22272" muted="0">
          <note len="48" pan="0" vol="100" pos="0" key="66"/>
          <note len="48" pan="0" vol="100" pos="0" key="0"/>
          <note len="24" pan="0" vol="100" pos="48" key="66"/>
          <note len="48" pan="0" vol="100" pos="72" key="66"/>
          <note len="24" pan="0" vol="100" pos="120" key="66"/>
          <note len="24" pan="0" vol="100" pos="144" key="66"/>
          <note len="24" pan="0" vol="100" pos="168" key="66"/>
          <note len="72" pan="0" vol="100" pos="192" key="67"/>
          <note len="72" pan="0" vol="100" pos="264" key="66"/>
          <note len="48" pan="0" vol="100" pos="336" key="64"/>
          <note len="48" pan="0" vol="100" pos="384" key="62"/>
          <note len="24" pan="0" vol="100" pos="432" key="62"/>
          <note len="48" pan="0" vol="100" pos="456" key="62"/>
          <note len="24" pan="0" vol="100" pos="504" key="62"/>
          <note len="24" pan="0" vol="100" pos="528" key="62"/>
          <note len="24" pan="0" vol="100" pos="552" key="62"/>
          <note len="72" pan="0" vol="100" pos="576" key="64"/>
          <note len="72" pan="0" vol="100" pos="648" key="66"/>
          <note len="48" pan="0" vol="100" pos="720" key="64"/>
        </pattern>
        <pattern type="1" name="Lead Guitar S" steps="16" pos="23040" muted="0">
          <note len="48" pan="0" vol="100" pos="0" key="66"/>
          <note len="48" pan="0" vol="100" pos="0" key="0"/>
          <note len="24" pan="0" vol="100" pos="48" key="66"/>
          <note len="48" pan="0" vol="100" pos="72" key="66"/>
          <note len="24" pan="0" vol="100" pos="120" key="66"/>
          <note len="24" pan="0" vol="100" pos="144" key="66"/>
          <note len="24" pan="0" vol="100" pos="168" key="66"/>
          <note len="72" pan="0" vol="100" pos="192" key="67"/>
          <note len="72" pan="0" vol="100" pos="264" key="66"/>
          <note len="48" pan="0" vol="100" pos="336" key="64"/>
          <note len="72" pan="0" vol="100" pos="384" key="62"/>
          <note len="72" pan="0" vol="100" pos="456" key="64"/>
          <note len="48" pan="0" vol="100" pos="528" key="66"/>
          <note len="72" pan="0" vol="100" pos="576" key="64"/>
          <note len="72" pan="0" vol="100" pos="648" key="62"/>
          <note len="48" pan="0" vol="100" pos="720" key="61"/>
        </pattern>
        <pattern type="1" name="Lead Guitar S" steps="16" pos="28224" muted="0">
          <note len="48" pan="0" vol="100" pos="48" key="69"/>
          <note len="48" pan="0" vol="100" pos="96" key="67"/>
          <note len="48" pan="0" vol="100" pos="144" key="66"/>
        </pattern>
        <pattern type="1" name="Lead Guitar S" steps="16" pos="28416" muted="0">
          <note len="72" pan="0" vol="100" pos="0" key="62"/>
          <note len="72" pan="0" vol="100" pos="72" key="64"/>
          <note len="48" pan="0" vol="100" pos="144" key="66"/>
          <note len="96" pan="0" vol="100" pos="192" key="69"/>
          <note len="48" pan="0" vol="100" pos="288" key="66"/>
          <note len="48" pan="0" vol="100" pos="336" key="69"/>
          <note len="72" pan="0" vol="100" pos="384" key="71"/>
          <note len="72" pan="0" vol="100" pos="456" key="69"/>
          <note len="48" pan="0" vol="100" pos="528" key="66"/>
          <note len="96" pan="0" vol="100" pos="576" key="69"/>
          <note len="48" pan="0" vol="100" pos="672" key="66"/>
          <note len="48" pan="0" vol="100" pos="720" key="69"/>
          <note len="72" pan="0" vol="100" pos="768" key="71"/>
          <note len="72" pan="0" vol="100" pos="840" key="69"/>
          <note len="48" pan="0" vol="100" pos="912" key="67"/>
          <note len="72" pan="0" vol="100" pos="960" key="71"/>
          <note len="72" pan="0" vol="100" pos="1032" key="69"/>
          <note len="48" pan="0" vol="100" pos="1104" key="67"/>
          <note len="72" pan="0" vol="100" pos="1152" key="66"/>
          <note len="72" pan="0" vol="100" pos="1224" key="67"/>
          <note len="48" pan="0" vol="100" pos="1296" key="66"/>
          <note len="96" pan="0" vol="100" pos="1344" key="64"/>
          <note len="48" pan="0" vol="100" pos="1440" key="66"/>
          <note len="48" pan="0" vol="100" pos="1488" key="64"/>
        </pattern>
        <pattern type="1" name="Lead Guitar S" steps="16" pos="29952" muted="0">
          <note len="72" pan="0" vol="100" pos="0" key="62"/>
          <note len="72" pan="0" vol="100" pos="72" key="64"/>
          <note len="48" pan="0" vol="100" pos="144" key="66"/>
          <note len="96" pan="0" vol="100" pos="192" key="69"/>
          <note len="48" pan="0" vol="100" pos="288" key="66"/>
          <note len="48" pan="0" vol="100" pos="336" key="69"/>
          <note len="72" pan="0" vol="100" pos="384" key="71"/>
          <note len="72" pan="0" vol="100" pos="456" key="69"/>
          <note len="48" pan="0" vol="100" pos="528" key="66"/>
          <note len="96" pan="0" vol="100" pos="576" key="69"/>
          <note len="48" pan="0" vol="100" pos="672" key="66"/>
          <note len="48" pan="0" vol="100" pos="720" key="69"/>
          <note len="72" pan="0" vol="100" pos="768" key="71"/>
          <note len="72" pan="0" vol="100" pos="840" key="69"/>
          <note len="48" pan="0" vol="100" pos="912" key="67"/>
          <note len="72" pan="0" vol="100" pos="960" key="71"/>
          <note len="72" pan="0" vol="100" pos="1032" key="69"/>
          <note len="48" pan="0" vol="100" pos="1104" key="67"/>
          <note len="72" pan="0" vol="100" pos="1152" key="66"/>
          <note len="72" pan="0" vol="100" pos="1224" key="67"/>
          <note len="48" pan="0" vol="100" pos="1296" key="66"/>
          <note len="96" pan="0" vol="100" pos="1344" key="64"/>
          <note len="48" pan="0" vol="100" pos="1440" key="66"/>
          <note len="48" pan="0" vol="100" pos="1488" key="64"/>
          <note len="384" pan="0" vol="100" pos="1536" key="62"/>
        </pattern>
        <pattern type="1" name="Lead Guitar S" steps="16" pos="32256" muted="0">
          <note len="24" pan="0" vol="100" pos="0" key="62"/>
          <note len="24" pan="0" vol="100" pos="0" key="1"/>
          <note len="24" pan="0" vol="100" pos="24" key="66"/>
          <note len="24" pan="0" vol="100" pos="24" key="0"/>
          <note len="24" pan="0" vol="100" pos="36" key="1"/>
          <note len="24" pan="0" vol="100" pos="48" key="62"/>
          <note len="24" pan="0" vol="100" pos="72" key="62"/>
          <note len="24" pan="0" vol="100" pos="84" key="0"/>
          <note len="24" pan="0" vol="100" pos="96" key="66"/>
          <note len="24" pan="0" vol="100" pos="108" key="1"/>
          <note len="24" pan="0" vol="100" pos="120" key="62"/>
          <note len="24" pan="0" vol="100" pos="144" key="62"/>
          <note len="24" pan="0" vol="100" pos="156" key="0"/>
          <note len="24" pan="0" vol="100" pos="168" key="66"/>
          <note len="24" pan="0" vol="100" pos="180" key="1"/>
          <note len="24" pan="0" vol="100" pos="192" key="62"/>
          <note len="24" pan="0" vol="100" pos="216" key="62"/>
          <note len="24" pan="0" vol="100" pos="228" key="0"/>
          <note len="24" pan="0" vol="100" pos="240" key="66"/>
          <note len="24" pan="0" vol="100" pos="252" key="1"/>
          <note len="24" pan="0" vol="100" pos="264" key="62"/>
          <note len="24" pan="0" vol="100" pos="288" key="62"/>
          <note len="24" pan="0" vol="100" pos="300" key="0"/>
          <note len="24" pan="0" vol="100" pos="312" key="66"/>
          <note len="24" pan="0" vol="100" pos="324" key="1"/>
          <note len="24" pan="0" vol="100" pos="336" key="62"/>
          <note len="24" pan="0" vol="100" pos="360" key="62"/>
        </pattern>
        <pattern type="1" name="Lead Guitar S" steps="16" pos="32640" muted="0">
          <note len="24" pan="0" vol="100" pos="0" key="62"/>
          <note len="24" pan="0" vol="100" pos="0" key="1"/>
          <note len="24" pan="0" vol="100" pos="24" key="67"/>
          <note len="24" pan="0" vol="100" pos="24" key="0"/>
          <note len="24" pan="0" vol="100" pos="36" key="1"/>
          <note len="24" pan="0" vol="100" pos="48" key="62"/>
          <note len="24" pan="0" vol="100" pos="72" key="62"/>
          <note len="24" pan="0" vol="100" pos="84" key="0"/>
          <note len="24" pan="0" vol="100" pos="96" key="67"/>
          <note len="24" pan="0" vol="100" pos="108" key="1"/>
          <note len="24" pan="0" vol="100" pos="120" key="62"/>
          <note len="24" pan="0" vol="100" pos="144" key="62"/>
          <note len="24" pan="0" vol="100" pos="156" key="0"/>
          <note len="24" pan="0" vol="100" pos="168" key="69"/>
          <note len="24" pan="0" vol="100" pos="180" key="1"/>
          <note len="24" pan="0" vol="100" pos="192" key="62"/>
          <note len="24" pan="0" vol="100" pos="216" key="62"/>
          <note len="24" pan="0" vol="100" pos="228" key="0"/>
          <note len="24" pan="0" vol="100" pos="240" key="69"/>
          <note len="24" pan="0" vol="100" pos="252" key="1"/>
          <note len="24" pan="0" vol="100" pos="264" key="62"/>
          <note len="24" pan="0" vol="100" pos="288" key="62"/>
          <note len="24" pan="0" vol="100" pos="300" key="0"/>
          <note len="24" pan="0" vol="100" pos="312" key="69"/>
          <note len="24" pan="0" vol="100" pos="324" key="1"/>
          <note len="24" pan="0" vol="100" pos="336" key="62"/>
          <note len="24" pan="0" vol="100" pos="360" key="62"/>
        </pattern>
        <pattern type="1" name="Lead Guitar S" steps="16" pos="33024" muted="0">
          <note len="24" pan="0" vol="100" pos="0" key="62"/>
          <note len="24" pan="0" vol="100" pos="0" key="1"/>
          <note len="24" pan="0" vol="100" pos="24" key="66"/>
          <note len="24" pan="0" vol="100" pos="24" key="0"/>
          <note len="24" pan="0" vol="100" pos="36" key="1"/>
          <note len="24" pan="0" vol="100" pos="48" key="62"/>
          <note len="24" pan="0" vol="100" pos="72" key="62"/>
          <note len="24" pan="0" vol="100" pos="84" key="0"/>
          <note len="24" pan="0" vol="100" pos="96" key="66"/>
          <note len="24" pan="0" vol="100" pos="108" key="1"/>
          <note len="24" pan="0" vol="100" pos="120" key="62"/>
          <note len="24" pan="0" vol="100" pos="144" key="62"/>
          <note len="24" pan="0" vol="100" pos="156" key="0"/>
          <note len="24" pan="0" vol="100" pos="168" key="66"/>
          <note len="24" pan="0" vol="100" pos="180" key="1"/>
          <note len="24" pan="0" vol="100" pos="192" key="62"/>
          <note len="24" pan="0" vol="100" pos="216" key="62"/>
          <note len="24" pan="0" vol="100" pos="228" key="0"/>
          <note len="24" pan="0" vol="100" pos="240" key="66"/>
          <note len="24" pan="0" vol="100" pos="252" key="1"/>
          <note len="24" pan="0" vol="100" pos="264" key="62"/>
          <note len="24" pan="0" vol="100" pos="288" key="62"/>
          <note len="24" pan="0" vol="100" pos="300" key="0"/>
          <note len="24" pan="0" vol="100" pos="312" key="66"/>
          <note len="24" pan="0" vol="100" pos="324" key="1"/>
          <note len="24" pan="0" vol="100" pos="336" key="62"/>
          <note len="24" pan="0" vol="100" pos="360" key="62"/>
        </pattern>
        <pattern type="1" name="Lead Guitar S" steps="16" pos="33408" muted="0">
          <note len="24" pan="0" vol="100" pos="0" key="62"/>
          <note len="24" pan="0" vol="100" pos="0" key="1"/>
          <note len="24" pan="0" vol="100" pos="24" key="67"/>
          <note len="24" pan="0" vol="100" pos="24" key="0"/>
          <note len="24" pan="0" vol="100" pos="36" key="1"/>
          <note len="24" pan="0" vol="100" pos="48" key="62"/>
          <note len="24" pan="0" vol="100" pos="72" key="62"/>
          <note len="24" pan="0" vol="100" pos="84" key="0"/>
          <note len="24" pan="0" vol="100" pos="96" key="67"/>
          <note len="24" pan="0" vol="100" pos="108" key="1"/>
          <note len="24" pan="0" vol="100" pos="120" key="62"/>
          <note len="24" pan="0" vol="100" pos="144" key="62"/>
          <note len="24" pan="0" vol="100" pos="156" key="0"/>
          <note len="24" pan="0" vol="100" pos="168" key="69"/>
          <note len="24" pan="0" vol="100" pos="180" key="1"/>
          <note len="24" pan="0" vol="100" pos="192" key="62"/>
          <note len="24" pan="0" vol="100" pos="216" key="62"/>
          <note len="24" pan="0" vol="100" pos="228" key="0"/>
          <note len="24" pan="0" vol="100" pos="240" key="69"/>
          <note len="24" pan="0" vol="100" pos="252" key="1"/>
          <note len="24" pan="0" vol="100" pos="264" key="62"/>
          <note len="24" pan="0" vol="100" pos="288" key="62"/>
          <note len="24" pan="0" vol="100" pos="300" key="0"/>
        </pattern>
        <pattern type="1" name="Lead Guitar S" steps="16" pos="35136" muted="0">
          <note len="30" pan="0" vol="100" pos="0" key="0"/>
          <note len="48" pan="0" vol="100" pos="96" key="66"/>
          <note len="48" pan="0" vol="100" pos="144" key="69"/>
        </pattern>
        <pattern type="1" name="Lead Guitar S" steps="16" pos="38400" muted="0">
          <note len="72" pan="0" vol="100" pos="0" key="62"/>
          <note len="72" pan="0" vol="100" pos="72" key="64"/>
          <note len="48" pan="0" vol="100" pos="144" key="66"/>
          <note len="96" pan="0" vol="100" pos="192" key="69"/>
          <note len="48" pan="0" vol="100" pos="288" key="66"/>
          <note len="48" pan="0" vol="100" pos="336" key="69"/>
          <note len="72" pan="0" vol="100" pos="384" key="71"/>
          <note len="72" pan="0" vol="100" pos="456" key="69"/>
          <note len="48" pan="0" vol="100" pos="528" key="66"/>
          <note len="96" pan="0" vol="100" pos="576" key="69"/>
          <note len="48" pan="0" vol="100" pos="672" key="66"/>
          <note len="48" pan="0" vol="100" pos="720" key="69"/>
          <note len="72" pan="0" vol="100" pos="768" key="71"/>
          <note len="72" pan="0" vol="100" pos="840" key="69"/>
          <note len="48" pan="0" vol="100" pos="912" key="67"/>
          <note len="72" pan="0" vol="100" pos="960" key="71"/>
          <note len="72" pan="0" vol="100" pos="1032" key="69"/>
          <note len="48" pan="0" vol="100" pos="1104" key="67"/>
          <note len="72" pan="0" vol="100" pos="1152" key="66"/>
          <note len="72" pan="0" vol="100" pos="1224" key="67"/>
          <note len="48" pan="0" vol="100" pos="1296" key="66"/>
          <note len="96" pan="0" vol="100" pos="1344" key="64"/>
          <note len="48" pan="0" vol="100" pos="1440" key="66"/>
          <note len="48" pan="0" vol="100" pos="1488" key="64"/>
        </pattern>
        <pattern type="1" name="Lead Guitar S" steps="16" pos="39936" muted="0">
          <note len="72" pan="0" vol="100" pos="0" key="62"/>
          <note len="72" pan="0" vol="100" pos="72" key="64"/>
          <note len="48" pan="0" vol="100" pos="144" key="66"/>
          <note len="96" pan="0" vol="100" pos="192" key="69"/>
          <note len="48" pan="0" vol="100" pos="288" key="66"/>
          <note len="48" pan="0" vol="100" pos="336" key="69"/>
          <note len="72" pan="0" vol="100" pos="384" key="71"/>
          <note len="72" pan="0" vol="100" pos="456" key="69"/>
          <note len="48" pan="0" vol="100" pos="528" key="66"/>
          <note len="96" pan="0" vol="100" pos="576" key="69"/>
          <note len="48" pan="0" vol="100" pos="672" key="66"/>
          <note len="48" pan="0" vol="100" pos="720" key="69"/>
          <note len="72" pan="0" vol="100" pos="768" key="71"/>
          <note len="72" pan="0" vol="100" pos="840" key="69"/>
          <note len="48" pan="0" vol="100" pos="912" key="67"/>
          <note len="72" pan="0" vol="100" pos="960" key="71"/>
          <note len="72" pan="0" vol="100" pos="1032" key="69"/>
          <note len="48" pan="0" vol="100" pos="1104" key="67"/>
          <note len="72" pan="0" vol="100" pos="1152" key="66"/>
          <note len="72" pan="0" vol="100" pos="1224" key="67"/>
          <note len="48" pan="0" vol="100" pos="1296" key="66"/>
          <note len="96" pan="0" vol="100" pos="1344" key="64"/>
          <note len="48" pan="0" vol="100" pos="1440" key="66"/>
          <note len="48" pan="0" vol="100" pos="1488" key="64"/>
        </pattern>
        <pattern type="1" name="Lead Guitar S" steps="16" pos="41472" muted="0">
          <note len="72" pan="0" vol="100" pos="0" key="62"/>
          <note len="72" pan="0" vol="100" pos="72" key="64"/>
          <note len="48" pan="0" vol="100" pos="144" key="66"/>
          <note len="96" pan="0" vol="100" pos="192" key="69"/>
          <note len="48" pan="0" vol="100" pos="288" key="66"/>
          <note len="48" pan="0" vol="100" pos="336" key="69"/>
          <note len="72" pan="0" vol="100" pos="384" key="71"/>
          <note len="72" pan="0" vol="100" pos="456" key="69"/>
          <note len="48" pan="0" vol="100" pos="528" key="66"/>
          <note len="96" pan="0" vol="100" pos="576" key="69"/>
          <note len="48" pan="0" vol="100" pos="672" key="66"/>
          <note len="48" pan="0" vol="100" pos="720" key="69"/>
          <note len="72" pan="0" vol="100" pos="768" key="71"/>
          <note len="72" pan="0" vol="100" pos="840" key="69"/>
          <note len="48" pan="0" vol="100" pos="912" key="67"/>
          <note len="72" pan="0" vol="100" pos="960" key="71"/>
          <note len="72" pan="0" vol="100" pos="1032" key="69"/>
          <note len="48" pan="0" vol="100" pos="1104" key="67"/>
          <note len="72" pan="0" vol="100" pos="1152" key="66"/>
          <note len="72" pan="0" vol="100" pos="1224" key="67"/>
          <note len="48" pan="0" vol="100" pos="1296" key="66"/>
          <note len="96" pan="0" vol="100" pos="1344" key="64"/>
          <note len="48" pan="0" vol="100" pos="1440" key="66"/>
          <note len="48" pan="0" vol="100" pos="1488" key="64"/>
          <note len="768" pan="0" vol="100" pos="1536" key="62"/>
          <note len="72" pan="0" vol="100" pos="2304" key="74"/>
          <note len="72" pan="0" vol="100" pos="2376" key="73"/>
          <note len="24" pan="0" vol="100" pos="2448" key="71"/>
          <note len="24" pan="0" vol="100" pos="2472" key="69"/>
          <note len="768" pan="0" vol="100" pos="2496" key="71"/>
        </pattern>
        <pattern type="1" name="Lead Guitar S" steps="16" pos="35328" muted="0">
          <note len="48" pan="0" vol="200" pos="0" key="71"/>
          <note len="24" pan="0" vol="200" pos="0" key="0"/>
          <note len="24" pan="0" vol="200" pos="48" key="71"/>
          <note len="48" pan="0" vol="200" pos="72" key="71"/>
          <note len="48" pan="0" vol="200" pos="120" key="69"/>
          <note len="24" pan="0" vol="200" pos="168" key="66"/>
          <note len="72" pan="0" vol="200" pos="192" key="69"/>
          <note len="48" pan="0" vol="200" pos="264" key="71"/>
          <note len="24" pan="0" vol="200" pos="312" key="73"/>
          <note len="24" pan="0" vol="200" pos="336" key="74"/>
          <note len="24" pan="0" vol="200" pos="360" key="76"/>
          <note len="48" pan="0" vol="200" pos="384" key="78"/>
          <note len="24" pan="0" vol="200" pos="432" key="78"/>
          <note len="48" pan="0" vol="200" pos="456" key="78"/>
          <note len="48" pan="0" vol="200" pos="504" key="76"/>
          <note len="24" pan="0" vol="200" pos="552" key="74"/>
          <note len="72" pan="0" vol="200" pos="576" key="73"/>
          <note len="48" pan="0" vol="200" pos="648" key="74"/>
          <note len="24" pan="0" vol="200" pos="696" key="76"/>
          <note len="24" pan="0" vol="200" pos="720" key="78"/>
          <note len="24" pan="0" vol="200" pos="744" key="79"/>
          <note len="24" pan="0" vol="200" pos="768" key="81"/>
          <note len="24" pan="0" vol="200" pos="792" key="81"/>
          <note len="24" pan="0" vol="200" pos="816" key="81"/>
          <note len="24" pan="0" vol="200" pos="840" key="79"/>
          <note len="24" pan="0" vol="200" pos="864" key="81"/>
          <note len="24" pan="0" vol="200" pos="888" key="81"/>
          <note len="24" pan="0" vol="200" pos="912" key="81"/>
          <note len="24" pan="0" vol="200" pos="936" key="79"/>
          <note len="12" pan="0" vol="200" pos="960" key="81"/>
          <note len="12" pan="0" vol="200" pos="972" key="79"/>
          <note len="12" pan="0" vol="200" pos="984" key="78"/>
          <note len="12" pan="0" vol="200" pos="996" key="79"/>
          <note len="12" pan="0" vol="200" pos="1008" key="81"/>
          <note len="12" pan="0" vol="200" pos="1020" key="79"/>
          <note len="12" pan="0" vol="200" pos="1032" key="78"/>
          <note len="12" pan="0" vol="200" pos="1044" key="79"/>
          <note len="12" pan="0" vol="200" pos="1056" key="81"/>
          <note len="12" pan="0" vol="200" pos="1068" key="79"/>
          <note len="12" pan="0" vol="200" pos="1080" key="78"/>
          <note len="12" pan="0" vol="200" pos="1092" key="76"/>
          <note len="12" pan="0" vol="200" pos="1104" key="79"/>
          <note len="12" pan="0" vol="200" pos="1116" key="78"/>
          <note len="12" pan="0" vol="200" pos="1128" key="76"/>
          <note len="12" pan="0" vol="200" pos="1140" key="78"/>
          <note len="24" pan="0" vol="200" pos="1152" key="74"/>
          <note len="24" pan="0" vol="200" pos="1152" key="1"/>
          <note len="24" pan="0" vol="200" pos="1176" key="74"/>
          <note len="24" pan="0" vol="200" pos="1188" key="0"/>
          <note len="24" pan="0" vol="200" pos="1200" key="78"/>
          <note len="24" pan="0" vol="200" pos="1212" key="1"/>
          <note len="24" pan="0" vol="200" pos="1224" key="74"/>
          <note len="24" pan="0" vol="200" pos="1236" key="0"/>
          <note len="24" pan="0" vol="200" pos="1248" key="76"/>
          <note len="24" pan="0" vol="200" pos="1272" key="78"/>
          <note len="24" pan="0" vol="200" pos="1284" key="1"/>
          <note len="24" pan="0" vol="200" pos="1296" key="74"/>
          <note len="24" pan="0" vol="200" pos="1320" key="74"/>
          <note len="24" pan="0" vol="200" pos="1332" key="0"/>
          <note len="24" pan="0" vol="200" pos="1344" key="79"/>
          <note len="24" pan="0" vol="200" pos="1356" key="1"/>
          <note len="24" pan="0" vol="200" pos="1368" key="74"/>
          <note len="24" pan="0" vol="200" pos="1392" key="74"/>
          <note len="24" pan="0" vol="200" pos="1404" key="0"/>
          <note len="24" pan="0" vol="200" pos="1416" key="78"/>
          <note len="24" pan="0" vol="200" pos="1428" key="1"/>
          <note len="24" pan="0" vol="200" pos="1440" key="74"/>
          <note len="24" pan="0" vol="200" pos="1464" key="74"/>
          <note len="24" pan="0" vol="200" pos="1476" key="0"/>
          <note len="24" pan="0" vol="200" pos="1488" key="76"/>
          <note len="24" pan="0" vol="200" pos="1512" key="78"/>
        </pattern>
        <pattern type="1" name="Lead Guitar S" steps="16" pos="38208" muted="0">
          <note len="48" pan="0" vol="200" pos="0" key="0"/>
          <note len="48" pan="0" vol="200" pos="48" key="69"/>
          <note len="48" pan="0" vol="200" pos="96" key="67"/>
          <note len="48" pan="0" vol="200" pos="144" key="66"/>
        </pattern>
        <pattern type="1" name="Lead Guitar S" steps="16" pos="6144" muted="0">
          <note len="24" pan="0" vol="100" pos="0" key="59"/>
          <note len="24" pan="0" vol="100" pos="0" key="1"/>
          <note len="24" pan="0" vol="100" pos="24" key="59"/>
          <note len="24" pan="0" vol="100" pos="36" key="0"/>
          <note len="24" pan="0" vol="100" pos="48" key="62"/>
          <note len="24" pan="0" vol="100" pos="72" key="59"/>
          <note len="24" pan="0" vol="100" pos="72" key="1"/>
          <note len="24" pan="0" vol="100" pos="96" key="59"/>
          <note len="24" pan="0" vol="100" pos="108" key="0"/>
          <note len="24" pan="0" vol="100" pos="120" key="61"/>
          <note len="24" pan="0" vol="100" pos="132" key="1"/>
          <note len="24" pan="0" vol="100" pos="144" key="59"/>
          <note len="24" pan="0" vol="100" pos="168" key="59"/>
          <note len="24" pan="0" vol="100" pos="180" key="0"/>
          <note len="24" pan="0" vol="100" pos="192" key="64"/>
          <note len="24" pan="0" vol="100" pos="204" key="1"/>
          <note len="24" pan="0" vol="100" pos="216" key="59"/>
          <note len="24" pan="0" vol="100" pos="240" key="59"/>
          <note len="24" pan="0" vol="100" pos="252" key="0"/>
          <note len="24" pan="0" vol="100" pos="264" key="62"/>
          <note len="24" pan="0" vol="100" pos="276" key="1"/>
          <note len="24" pan="0" vol="100" pos="288" key="59"/>
          <note len="24" pan="0" vol="100" pos="312" key="59"/>
          <note len="24" pan="0" vol="100" pos="324" key="0"/>
          <note len="24" pan="0" vol="100" pos="336" key="61"/>
          <note len="24" pan="0" vol="100" pos="348" key="2"/>
          <note len="24" pan="0" vol="100" pos="360" key="62"/>
        </pattern>
        <pattern type="1" name="Lead Guitar S" steps="16" pos="6528" muted="0">
          <note len="24" pan="0" vol="100" pos="0" key="59"/>
          <note len="24" pan="0" vol="100" pos="0" key="1"/>
          <note len="24" pan="0" vol="100" pos="24" key="59"/>
          <note len="24" pan="0" vol="100" pos="36" key="0"/>
          <note len="24" pan="0" vol="100" pos="48" key="62"/>
          <note len="24" pan="0" vol="100" pos="72" key="59"/>
          <note len="24" pan="0" vol="100" pos="72" key="1"/>
          <note len="24" pan="0" vol="100" pos="96" key="59"/>
          <note len="24" pan="0" vol="100" pos="108" key="0"/>
          <note len="24" pan="0" vol="100" pos="120" key="61"/>
          <note len="24" pan="0" vol="100" pos="132" key="1"/>
          <note len="24" pan="0" vol="100" pos="144" key="59"/>
          <note len="24" pan="0" vol="100" pos="168" key="59"/>
          <note len="24" pan="0" vol="100" pos="180" key="0"/>
          <note len="24" pan="0" vol="100" pos="192" key="64"/>
          <note len="24" pan="0" vol="100" pos="204" key="1"/>
          <note len="24" pan="0" vol="100" pos="216" key="59"/>
          <note len="24" pan="0" vol="100" pos="240" key="59"/>
          <note len="24" pan="0" vol="100" pos="252" key="0"/>
          <note len="24" pan="0" vol="100" pos="264" key="62"/>
          <note len="24" pan="0" vol="100" pos="276" key="1"/>
          <note len="24" pan="0" vol="100" pos="288" key="59"/>
          <note len="24" pan="0" vol="100" pos="312" key="59"/>
          <note len="24" pan="0" vol="100" pos="324" key="0"/>
          <note len="24" pan="0" vol="100" pos="336" key="61"/>
          <note len="24" pan="0" vol="100" pos="348" key="2"/>
          <note len="24" pan="0" vol="100" pos="360" key="62"/>
        </pattern>
        <pattern type="1" name="Lead Guitar S" steps="16" pos="6912" muted="0">
          <note len="24" pan="0" vol="100" pos="0" key="59"/>
          <note len="24" pan="0" vol="100" pos="0" key="1"/>
          <note len="24" pan="0" vol="100" pos="24" key="59"/>
          <note len="24" pan="0" vol="100" pos="36" key="0"/>
          <note len="24" pan="0" vol="100" pos="48" key="62"/>
          <note len="24" pan="0" vol="100" pos="72" key="59"/>
          <note len="24" pan="0" vol="100" pos="72" key="1"/>
          <note len="24" pan="0" vol="100" pos="96" key="59"/>
          <note len="24" pan="0" vol="100" pos="108" key="0"/>
          <note len="24" pan="0" vol="100" pos="120" key="61"/>
          <note len="24" pan="0" vol="100" pos="132" key="1"/>
          <note len="24" pan="0" vol="100" pos="144" key="59"/>
          <note len="24" pan="0" vol="100" pos="168" key="59"/>
          <note len="24" pan="0" vol="100" pos="180" key="0"/>
          <note len="24" pan="0" vol="100" pos="192" key="64"/>
          <note len="24" pan="0" vol="100" pos="204" key="1"/>
          <note len="24" pan="0" vol="100" pos="216" key="59"/>
          <note len="24" pan="0" vol="100" pos="240" key="59"/>
          <note len="24" pan="0" vol="100" pos="252" key="0"/>
          <note len="24" pan="0" vol="100" pos="264" key="62"/>
          <note len="24" pan="0" vol="100" pos="276" key="1"/>
          <note len="24" pan="0" vol="100" pos="288" key="59"/>
          <note len="24" pan="0" vol="100" pos="312" key="59"/>
          <note len="24" pan="0" vol="100" pos="324" key="0"/>
          <note len="24" pan="0" vol="100" pos="336" key="61"/>
          <note len="24" pan="0" vol="100" pos="348" key="2"/>
          <note len="24" pan="0" vol="100" pos="360" key="62"/>
        </pattern>
        <pattern type="1" name="Lead Guitar S" steps="16" pos="7296" muted="0">
          <note len="24" pan="0" vol="100" pos="0" key="59"/>
          <note len="24" pan="0" vol="100" pos="0" key="1"/>
          <note len="24" pan="0" vol="100" pos="24" key="59"/>
          <note len="24" pan="0" vol="100" pos="36" key="0"/>
          <note len="24" pan="0" vol="100" pos="48" key="62"/>
          <note len="24" pan="0" vol="100" pos="72" key="59"/>
          <note len="24" pan="0" vol="100" pos="72" key="1"/>
          <note len="24" pan="0" vol="100" pos="96" key="59"/>
          <note len="24" pan="0" vol="100" pos="108" key="0"/>
          <note len="24" pan="0" vol="100" pos="120" key="61"/>
          <note len="24" pan="0" vol="100" pos="132" key="1"/>
          <note len="24" pan="0" vol="100" pos="144" key="59"/>
          <note len="24" pan="0" vol="100" pos="168" key="59"/>
          <note len="24" pan="0" vol="100" pos="180" key="0"/>
          <note len="24" pan="0" vol="100" pos="192" key="64"/>
          <note len="24" pan="0" vol="100" pos="204" key="1"/>
          <note len="24" pan="0" vol="100" pos="216" key="59"/>
          <note len="24" pan="0" vol="100" pos="240" key="59"/>
          <note len="24" pan="0" vol="100" pos="252" key="0"/>
          <note len="24" pan="0" vol="100" pos="264" key="62"/>
          <note len="24" pan="0" vol="100" pos="276" key="1"/>
          <note len="24" pan="0" vol="100" pos="288" key="59"/>
          <note len="24" pan="0" vol="100" pos="312" key="59"/>
          <note len="24" pan="0" vol="100" pos="324" key="0"/>
          <note len="24" pan="0" vol="100" pos="336" key="61"/>
          <note len="24" pan="0" vol="100" pos="348" key="2"/>
          <note len="24" pan="0" vol="100" pos="360" key="62"/>
        </pattern>
        <pattern type="1" name="" steps="16" pos="13824" muted="0">
          <note len="48" pan="0" vol="100" pos="0" key="66"/>
          <note len="48" pan="0" vol="100" pos="0" key="0"/>
          <note len="24" pan="0" vol="100" pos="48" key="66"/>
          <note len="48" pan="0" vol="100" pos="72" key="66"/>
          <note len="24" pan="0" vol="100" pos="120" key="66"/>
          <note len="24" pan="0" vol="100" pos="144" key="66"/>
          <note len="24" pan="0" vol="100" pos="168" key="66"/>
          <note len="72" pan="0" vol="100" pos="192" key="67"/>
          <note len="72" pan="0" vol="100" pos="264" key="66"/>
          <note len="48" pan="0" vol="100" pos="336" key="64"/>
          <note len="48" pan="0" vol="100" pos="384" key="62"/>
          <note len="24" pan="0" vol="100" pos="432" key="62"/>
          <note len="48" pan="0" vol="100" pos="456" key="62"/>
          <note len="24" pan="0" vol="100" pos="504" key="62"/>
          <note len="24" pan="0" vol="100" pos="528" key="62"/>
          <note len="24" pan="0" vol="100" pos="552" key="62"/>
          <note len="72" pan="0" vol="100" pos="576" key="64"/>
          <note len="72" pan="0" vol="100" pos="648" key="66"/>
          <note len="48" pan="0" vol="100" pos="720" key="64"/>
        </pattern>
        <pattern type="1" name="" steps="16" pos="14592" muted="0">
          <note len="48" pan="0" vol="100" pos="0" key="62"/>
          <note len="48" pan="0" vol="100" pos="0" key="0"/>
          <note len="24" pan="0" vol="100" pos="48" key="62"/>
          <note len="48" pan="0" vol="100" pos="72" key="62"/>
          <note len="24" pan="0" vol="100" pos="120" key="62"/>
          <note len="48" pan="0" vol="100" pos="144" key="64"/>
          <note len="72" pan="0" vol="100" pos="192" key="66"/>
          <note len="72" pan="0" vol="100" pos="264" key="64"/>
          <note len="48" pan="0" vol="100" pos="336" key="62"/>
          <note len="72" pan="0" vol="100" pos="384" key="66"/>
          <note len="72" pan="0" vol="100" pos="456" key="67"/>
          <note len="48" pan="0" vol="100" pos="528" key="66"/>
          <note len="96" pan="0" vol="100" pos="576" key="64"/>
          <note len="96" pan="0" vol="100" pos="672" key="66"/>
        </pattern>
        <pattern type="1" name="" steps="16" pos="23808" muted="0">
          <note len="48" pan="0" vol="100" pos="0" key="66"/>
          <note len="48" pan="0" vol="100" pos="0" key="0"/>
          <note len="24" pan="0" vol="100" pos="48" key="66"/>
          <note len="48" pan="0" vol="100" pos="72" key="66"/>
          <note len="24" pan="0" vol="100" pos="120" key="66"/>
          <note len="24" pan="0" vol="100" pos="144" key="66"/>
          <note len="24" pan="0" vol="100" pos="168" key="66"/>
          <note len="72" pan="0" vol="100" pos="192" key="67"/>
          <note len="72" pan="0" vol="100" pos="264" key="66"/>
          <note len="48" pan="0" vol="100" pos="336" key="64"/>
          <note len="48" pan="0" vol="100" pos="384" key="62"/>
          <note len="24" pan="0" vol="100" pos="432" key="62"/>
          <note len="48" pan="0" vol="100" pos="456" key="62"/>
          <note len="24" pan="0" vol="100" pos="504" key="62"/>
          <note len="24" pan="0" vol="100" pos="528" key="62"/>
          <note len="24" pan="0" vol="100" pos="552" key="62"/>
          <note len="72" pan="0" vol="100" pos="576" key="64"/>
          <note len="72" pan="0" vol="100" pos="648" key="66"/>
          <note len="48" pan="0" vol="100" pos="720" key="64"/>
        </pattern>
        <pattern type="1" name="" steps="16" pos="24576" muted="0">
          <note len="48" pan="0" vol="100" pos="0" key="62"/>
          <note len="48" pan="0" vol="100" pos="0" key="0"/>
          <note len="24" pan="0" vol="100" pos="48" key="62"/>
          <note len="48" pan="0" vol="100" pos="72" key="62"/>
          <note len="24" pan="0" vol="100" pos="120" key="62"/>
          <note len="48" pan="0" vol="100" pos="144" key="64"/>
          <note len="72" pan="0" vol="100" pos="192" key="66"/>
          <note len="72" pan="0" vol="100" pos="264" key="64"/>
          <note len="48" pan="0" vol="100" pos="336" key="62"/>
          <note len="72" pan="0" vol="100" pos="384" key="66"/>
          <note len="72" pan="0" vol="100" pos="456" key="67"/>
          <note len="48" pan="0" vol="100" pos="528" key="66"/>
          <note len="96" pan="0" vol="100" pos="576" key="64"/>
          <note len="96" pan="0" vol="100" pos="672" key="66"/>
        </pattern>
        <pattern type="0" name="Lead Guitar S" steps="16" pos="4032" muted="0"/>
      </track>
      <track type="0" name="lgtH1" muted="1" solo="0">
        <instrumenttrack pitch="0" usemasterpitch="1" pitchrange="1" pan="-100" fxch="12" vol="200" basenote="57">
          <instrument name="carlapatchbay">
            <carlapatchbay>
              <CARLA-PROJECT VERSION="2.2">
                <EngineSettings>
                  <ForceStereo>false</ForceStereo>
                  <PreferPluginBridges>false</PreferPluginBridges>
                  <PreferUiBridges>true</PreferUiBridges>
                  <UIsAlwaysOnTop>false</UIsAlwaysOnTop>
                  <MaxParameters>200</MaxParameters>
                  <UIBridgesTimeout>4000</UIBridgesTimeout>
                  <LADSPA_PATH>/home/pass/.ladspa:/usr/lib/ladspa:/usr/local/lib/ladspa</LADSPA_PATH>
                  <DSSI_PATH>/home/pass/.dssi:/usr/lib/dssi:/usr/local/lib/dssi</DSSI_PATH>
                  <LV2_PATH>/home/pass/.lv2:/usr/lib/lv2:/usr/local/lib/lv2</LV2_PATH>
                  <VST2_PATH>/home/pass/.vst:/home/pass/.wine/drive_c/Program Files (x86)/VstPlugins:/home/pass/.wine/drive_c/Program Files/VstPlugins:/usr/lib/lxvst:/usr/lib/vst:/usr/local/lib/lxvst:/usr/local/lib/vst/home/pass/.lxvst:/home/pass/vst</VST2_PATH>
                  <VST3_PATH>/home/pass/.vst3:/home/pass/.wine/drive_c/Program Files (x86)/Common Files/VST3:/home/pass/.wine/drive_c/Program Files/Common Files/VST3:/usr/lib/vst3:/usr/local/lib/vst3</VST3_PATH>
                  <SF2_PATH>/home/pass/.sounds/sf2/home/pass/.sounds/sf3:/usr/share/soundfonts:/usr/share/sounds/sf2:/usr/share/sounds/sf3</SF2_PATH>
                  <SFZ_PATH>/home/pass/.sounds/sfz:/home/pass/samples:/usr/share/sounds/sfz</SFZ_PATH>
                </EngineSettings>
                <!-- sfizz -->
                <Plugin>
                  <Info>
                    <Type>LV2</Type>
                    <Name>sfizz</Name>
                    <URI>http://sfztools.github.io/sfizz</URI>
                  </Info>
                  <Data>
                    <Active>Yes</Active>
                    <ControlChannel>1</ControlChannel>
                    <Options>0x3f0</Options>
                    <Parameter>
                      <Index>0</Index>
                      <Name>Volume</Name>
                      <Symbol>volume</Symbol>
                      <Value>0</Value>
                    </Parameter>
                    <Parameter>
                      <Index>1</Index>
                      <Name>Polyphony</Name>
                      <Symbol>num_voices</Symbol>
                      <Value>64</Value>
                    </Parameter>
                    <Parameter>
                      <Index>2</Index>
                      <Name>Internal oversampling factor</Name>
                      <Symbol>oversampling</Symbol>
                      <Value>1</Value>
                    </Parameter>
                    <Parameter>
                      <Index>3</Index>
                      <Name>Preload size</Name>
                      <Symbol>preload_size</Symbol>
                      <Value>8192</Value>
                    </Parameter>
                    <CustomData>
                      <Type>http://lv2plug.in/ns/ext/atom#Path</Type>
                      <Key>http://sfztools.github.io/sfizz:sfzfile</Key>
                      <Value>/home/pass/samples/fakeguitar/_fakeguitar1_integrated.sfz</Value>
                    </CustomData>
                    <CustomData>
                      <Type>http://lv2plug.in/ns/ext/atom#Int</Type>
                      <Key>http://sfztools.github.io/sfizz:numvoices</Key>
                      <Value>QAAAAA==</Value>
                    </CustomData>
                    <CustomData>
                      <Type>http://lv2plug.in/ns/ext/atom#Int</Type>
                      <Key>http://sfztools.github.io/sfizz:preload_size</Key>
                      <Value>ACAAAA==</Value>
                    </CustomData>
                    <CustomData>
                      <Type>http://lv2plug.in/ns/ext/atom#Int</Type>
                      <Key>http://sfztools.github.io/sfizz:oversampling</Key>
                      <Value>AQAAAA==</Value>
                    </CustomData>
                  </Data>
                </Plugin>
                <Patchbay>
                  <Connection>
                    <Source>Midi Input:Capture 1</Source>
                    <Target>sfizz:events-in</Target>
                  </Connection>
                  <Connection>
                    <Source>sfizz:Left Output</Source>
                    <Target>Audio Output:Left</Target>
                  </Connection>
                  <Connection>
                    <Source>sfizz:Right Output</Source>
                    <Target>Audio Output:Right</Target>
                  </Connection>
                  <Positions>
                    <Position x1="1693" y1="1353" pluginId="0">
                      <Name>sfizz</Name>
                    </Position>
                  </Positions>
                </Patchbay>
              </CARLA-PROJECT>
            </carlapatchbay>
          </instrument>
          <eldata fcut="14000" fres="0.5" fwet="0" ftype="0">
            <elvol sustain="0.5" lspd_denominator="4" rel="0.1" lspd_numerator="4" lspd_syncmode="0" x100="0" pdel="0" amt="0" userwavefile="" hold="0.5" dec="0.5" lspd="0.1" lamt="0" latt="0" lpdel="0" ctlenvamt="0" att="0" lshp="0"/>
            <elcut sustain="0.5" lspd_denominator="4" rel="0.1" lspd_numerator="4" lspd_syncmode="0" x100="0" pdel="0" amt="0" userwavefile="" hold="0.5" dec="0.5" lspd="0.1" lamt="0" latt="0" lpdel="0" ctlenvamt="0" att="0" lshp="0"/>
            <elres sustain="0.5" lspd_denominator="4" rel="0.1" lspd_numerator="4" lspd_syncmode="0" x100="0" pdel="0" amt="0" userwavefile="" hold="0.5" dec="0.5" lspd="0.1" lamt="0" latt="0" lpdel="0" ctlenvamt="0" att="0" lshp="0"/>
          </eldata>
          <chordcreator chordrange="1" chord="0" chord-enabled="0"/>
          <arpeggiator arpgate="100" arpskip="0" arp-enabled="0" arpmiss="0" arptime_denominator="4" arpdir="0" arpmode="0" arptime_numerator="4" arp="0" arptime="200" arprange="1" arpcycle="0" arptime_syncmode="0"/>
          <midiport fixedinputvelocity="-1" outputcontroller="0" inputchannel="0" outputchannel="1" basevelocity="63" fixedoutputnote="-1" inputcontroller="0" outputprogram="1" readable="0" writable="0" fixedoutputvelocity="-1"/>
          <fxchain numofeffects="0" enabled="0"/>
        </instrumenttrack>
        <pattern type="1" name="lgtH1" steps="16" pos="7680" muted="0">
          <note len="24" pan="0" vol="100" pos="0" key="59"/>
          <note len="24" pan="0" vol="100" pos="0" key="1"/>
          <note len="24" pan="0" vol="100" pos="24" key="59"/>
          <note len="24" pan="0" vol="100" pos="36" key="0"/>
          <note len="24" pan="0" vol="100" pos="48" key="62"/>
          <note len="24" pan="0" vol="100" pos="72" key="59"/>
          <note len="24" pan="0" vol="100" pos="72" key="1"/>
          <note len="24" pan="0" vol="100" pos="96" key="59"/>
          <note len="24" pan="0" vol="100" pos="108" key="0"/>
          <note len="24" pan="0" vol="100" pos="120" key="61"/>
          <note len="24" pan="0" vol="100" pos="132" key="1"/>
          <note len="24" pan="0" vol="100" pos="144" key="59"/>
          <note len="24" pan="0" vol="100" pos="168" key="59"/>
          <note len="24" pan="0" vol="100" pos="180" key="0"/>
          <note len="24" pan="0" vol="100" pos="192" key="64"/>
          <note len="24" pan="0" vol="100" pos="204" key="1"/>
          <note len="24" pan="0" vol="100" pos="216" key="59"/>
          <note len="24" pan="0" vol="100" pos="240" key="59"/>
          <note len="24" pan="0" vol="100" pos="252" key="0"/>
          <note len="24" pan="0" vol="100" pos="264" key="62"/>
          <note len="24" pan="0" vol="100" pos="276" key="1"/>
          <note len="24" pan="0" vol="100" pos="288" key="59"/>
          <note len="24" pan="0" vol="100" pos="312" key="59"/>
          <note len="24" pan="0" vol="100" pos="324" key="0"/>
          <note len="24" pan="0" vol="100" pos="336" key="61"/>
          <note len="24" pan="0" vol="100" pos="348" key="2"/>
          <note len="24" pan="0" vol="100" pos="360" key="62"/>
        </pattern>
        <pattern type="1" name="lgtH1" steps="16" pos="8064" muted="0">
          <note len="24" pan="0" vol="100" pos="0" key="59"/>
          <note len="24" pan="0" vol="100" pos="0" key="1"/>
          <note len="24" pan="0" vol="100" pos="24" key="59"/>
          <note len="24" pan="0" vol="100" pos="36" key="0"/>
          <note len="24" pan="0" vol="100" pos="48" key="62"/>
          <note len="24" pan="0" vol="100" pos="72" key="59"/>
          <note len="24" pan="0" vol="100" pos="72" key="1"/>
          <note len="24" pan="0" vol="100" pos="96" key="59"/>
          <note len="24" pan="0" vol="100" pos="108" key="0"/>
          <note len="24" pan="0" vol="100" pos="120" key="61"/>
          <note len="24" pan="0" vol="100" pos="132" key="1"/>
          <note len="24" pan="0" vol="100" pos="144" key="59"/>
          <note len="24" pan="0" vol="100" pos="168" key="59"/>
          <note len="24" pan="0" vol="100" pos="180" key="0"/>
          <note len="24" pan="0" vol="100" pos="192" key="64"/>
          <note len="24" pan="0" vol="100" pos="204" key="1"/>
          <note len="24" pan="0" vol="100" pos="216" key="59"/>
          <note len="24" pan="0" vol="100" pos="240" key="59"/>
          <note len="24" pan="0" vol="100" pos="252" key="0"/>
          <note len="24" pan="0" vol="100" pos="264" key="62"/>
          <note len="24" pan="0" vol="100" pos="276" key="1"/>
          <note len="24" pan="0" vol="100" pos="288" key="59"/>
          <note len="24" pan="0" vol="100" pos="312" key="59"/>
          <note len="24" pan="0" vol="100" pos="324" key="0"/>
          <note len="24" pan="0" vol="100" pos="336" key="61"/>
          <note len="24" pan="0" vol="100" pos="348" key="2"/>
          <note len="24" pan="0" vol="100" pos="360" key="62"/>
        </pattern>
        <pattern type="1" name="lgtH1" steps="16" pos="8448" muted="0">
          <note len="24" pan="0" vol="100" pos="0" key="59"/>
          <note len="24" pan="0" vol="100" pos="0" key="1"/>
          <note len="24" pan="0" vol="100" pos="24" key="59"/>
          <note len="24" pan="0" vol="100" pos="36" key="0"/>
          <note len="24" pan="0" vol="100" pos="48" key="62"/>
          <note len="24" pan="0" vol="100" pos="72" key="59"/>
          <note len="24" pan="0" vol="100" pos="72" key="1"/>
          <note len="24" pan="0" vol="100" pos="96" key="59"/>
          <note len="24" pan="0" vol="100" pos="108" key="0"/>
          <note len="24" pan="0" vol="100" pos="120" key="61"/>
          <note len="24" pan="0" vol="100" pos="132" key="1"/>
          <note len="24" pan="0" vol="100" pos="144" key="59"/>
          <note len="24" pan="0" vol="100" pos="168" key="59"/>
          <note len="24" pan="0" vol="100" pos="180" key="0"/>
          <note len="24" pan="0" vol="100" pos="192" key="64"/>
          <note len="24" pan="0" vol="100" pos="204" key="1"/>
          <note len="24" pan="0" vol="100" pos="216" key="59"/>
          <note len="24" pan="0" vol="100" pos="240" key="59"/>
          <note len="24" pan="0" vol="100" pos="252" key="0"/>
          <note len="24" pan="0" vol="100" pos="264" key="62"/>
          <note len="24" pan="0" vol="100" pos="276" key="1"/>
          <note len="24" pan="0" vol="100" pos="288" key="59"/>
          <note len="24" pan="0" vol="100" pos="312" key="59"/>
          <note len="24" pan="0" vol="100" pos="324" key="0"/>
          <note len="24" pan="0" vol="100" pos="336" key="61"/>
          <note len="24" pan="0" vol="100" pos="348" key="2"/>
          <note len="24" pan="0" vol="100" pos="360" key="62"/>
        </pattern>
        <pattern type="1" name="lgtH1" steps="16" pos="8832" muted="0">
          <note len="24" pan="0" vol="100" pos="0" key="59"/>
          <note len="24" pan="0" vol="100" pos="0" key="1"/>
          <note len="24" pan="0" vol="100" pos="24" key="59"/>
          <note len="24" pan="0" vol="100" pos="36" key="0"/>
          <note len="24" pan="0" vol="100" pos="48" key="62"/>
          <note len="24" pan="0" vol="100" pos="72" key="59"/>
          <note len="24" pan="0" vol="100" pos="72" key="1"/>
          <note len="24" pan="0" vol="100" pos="96" key="59"/>
          <note len="24" pan="0" vol="100" pos="108" key="0"/>
          <note len="24" pan="0" vol="100" pos="120" key="61"/>
          <note len="24" pan="0" vol="100" pos="132" key="1"/>
          <note len="24" pan="0" vol="100" pos="144" key="59"/>
          <note len="24" pan="0" vol="100" pos="168" key="59"/>
          <note len="24" pan="0" vol="100" pos="180" key="0"/>
          <note len="24" pan="0" vol="100" pos="192" key="64"/>
          <note len="24" pan="0" vol="100" pos="204" key="1"/>
          <note len="24" pan="0" vol="100" pos="216" key="59"/>
          <note len="24" pan="0" vol="100" pos="240" key="59"/>
          <note len="24" pan="0" vol="100" pos="252" key="0"/>
          <note len="24" pan="0" vol="100" pos="264" key="62"/>
          <note len="24" pan="0" vol="100" pos="276" key="1"/>
          <note len="24" pan="0" vol="100" pos="288" key="59"/>
          <note len="24" pan="0" vol="100" pos="312" key="59"/>
          <note len="24" pan="0" vol="100" pos="324" key="0"/>
          <note len="24" pan="0" vol="100" pos="336" key="61"/>
          <note len="24" pan="0" vol="100" pos="348" key="2"/>
          <note len="24" pan="0" vol="100" pos="360" key="62"/>
        </pattern>
        <pattern type="1" name="lgtH1" steps="16" pos="11904" muted="0">
          <note len="24" pan="0" vol="100" pos="0" key="59"/>
          <note len="24" pan="0" vol="100" pos="0" key="1"/>
          <note len="24" pan="0" vol="100" pos="24" key="59"/>
          <note len="24" pan="0" vol="100" pos="36" key="0"/>
          <note len="24" pan="0" vol="100" pos="48" key="62"/>
          <note len="24" pan="0" vol="100" pos="72" key="59"/>
          <note len="24" pan="0" vol="100" pos="72" key="1"/>
          <note len="24" pan="0" vol="100" pos="96" key="59"/>
          <note len="24" pan="0" vol="100" pos="108" key="0"/>
          <note len="24" pan="0" vol="100" pos="120" key="61"/>
          <note len="24" pan="0" vol="100" pos="132" key="1"/>
          <note len="24" pan="0" vol="100" pos="144" key="59"/>
          <note len="24" pan="0" vol="100" pos="168" key="59"/>
          <note len="24" pan="0" vol="100" pos="192" key="59"/>
          <note len="96" pan="0" vol="100" pos="192" key="0"/>
          <note len="24" pan="0" vol="100" pos="216" key="57"/>
          <note len="24" pan="0" vol="100" pos="240" key="59"/>
          <note len="24" pan="0" vol="100" pos="264" key="61"/>
          <note len="24" pan="0" vol="100" pos="288" key="62"/>
          <note len="24" pan="0" vol="100" pos="312" key="61"/>
          <note len="24" pan="0" vol="100" pos="336" key="59"/>
          <note len="24" pan="0" vol="100" pos="360" key="57"/>
        </pattern>
        <pattern type="1" name="lgtH1" steps="16" pos="9216" muted="0">
          <note len="24" pan="0" vol="100" pos="0" key="59"/>
          <note len="24" pan="0" vol="100" pos="0" key="1"/>
          <note len="24" pan="0" vol="100" pos="24" key="59"/>
          <note len="24" pan="0" vol="100" pos="36" key="0"/>
          <note len="24" pan="0" vol="100" pos="48" key="62"/>
          <note len="24" pan="0" vol="100" pos="72" key="59"/>
          <note len="24" pan="0" vol="100" pos="72" key="1"/>
          <note len="24" pan="0" vol="100" pos="96" key="59"/>
          <note len="24" pan="0" vol="100" pos="108" key="0"/>
          <note len="24" pan="0" vol="100" pos="120" key="61"/>
          <note len="24" pan="0" vol="100" pos="132" key="1"/>
          <note len="24" pan="0" vol="100" pos="144" key="59"/>
          <note len="24" pan="0" vol="100" pos="168" key="59"/>
          <note len="24" pan="0" vol="100" pos="180" key="0"/>
          <note len="24" pan="0" vol="100" pos="192" key="64"/>
          <note len="24" pan="0" vol="100" pos="204" key="1"/>
          <note len="24" pan="0" vol="100" pos="216" key="59"/>
          <note len="24" pan="0" vol="100" pos="240" key="59"/>
          <note len="24" pan="0" vol="100" pos="252" key="0"/>
          <note len="24" pan="0" vol="100" pos="264" key="62"/>
          <note len="24" pan="0" vol="100" pos="276" key="1"/>
          <note len="24" pan="0" vol="100" pos="288" key="59"/>
          <note len="24" pan="0" vol="100" pos="312" key="59"/>
          <note len="24" pan="0" vol="100" pos="324" key="0"/>
          <note len="24" pan="0" vol="100" pos="336" key="61"/>
          <note len="24" pan="0" vol="100" pos="348" key="2"/>
          <note len="24" pan="0" vol="100" pos="360" key="62"/>
        </pattern>
        <pattern type="1" name="lgtH1" steps="16" pos="9600" muted="0">
          <note len="24" pan="0" vol="100" pos="0" key="59"/>
          <note len="24" pan="0" vol="100" pos="0" key="1"/>
          <note len="24" pan="0" vol="100" pos="24" key="59"/>
          <note len="24" pan="0" vol="100" pos="36" key="0"/>
          <note len="24" pan="0" vol="100" pos="48" key="62"/>
          <note len="24" pan="0" vol="100" pos="72" key="59"/>
          <note len="24" pan="0" vol="100" pos="72" key="1"/>
          <note len="24" pan="0" vol="100" pos="96" key="59"/>
          <note len="24" pan="0" vol="100" pos="108" key="0"/>
          <note len="24" pan="0" vol="100" pos="120" key="61"/>
          <note len="24" pan="0" vol="100" pos="132" key="1"/>
          <note len="24" pan="0" vol="100" pos="144" key="59"/>
          <note len="24" pan="0" vol="100" pos="168" key="59"/>
          <note len="24" pan="0" vol="100" pos="180" key="0"/>
          <note len="24" pan="0" vol="100" pos="192" key="64"/>
          <note len="24" pan="0" vol="100" pos="204" key="1"/>
          <note len="24" pan="0" vol="100" pos="216" key="59"/>
          <note len="24" pan="0" vol="100" pos="240" key="59"/>
          <note len="24" pan="0" vol="100" pos="252" key="0"/>
          <note len="24" pan="0" vol="100" pos="264" key="62"/>
          <note len="24" pan="0" vol="100" pos="276" key="1"/>
          <note len="24" pan="0" vol="100" pos="288" key="59"/>
          <note len="24" pan="0" vol="100" pos="312" key="59"/>
          <note len="24" pan="0" vol="100" pos="324" key="0"/>
          <note len="24" pan="0" vol="100" pos="336" key="61"/>
          <note len="24" pan="0" vol="100" pos="348" key="2"/>
          <note len="24" pan="0" vol="100" pos="360" key="62"/>
        </pattern>
        <pattern type="1" name="lgtH1" steps="16" pos="9984" muted="0">
          <note len="24" pan="0" vol="100" pos="0" key="59"/>
          <note len="24" pan="0" vol="100" pos="0" key="1"/>
          <note len="24" pan="0" vol="100" pos="24" key="59"/>
          <note len="24" pan="0" vol="100" pos="36" key="0"/>
          <note len="24" pan="0" vol="100" pos="48" key="62"/>
          <note len="24" pan="0" vol="100" pos="72" key="59"/>
          <note len="24" pan="0" vol="100" pos="72" key="1"/>
          <note len="24" pan="0" vol="100" pos="96" key="59"/>
          <note len="24" pan="0" vol="100" pos="108" key="0"/>
          <note len="24" pan="0" vol="100" pos="120" key="61"/>
          <note len="24" pan="0" vol="100" pos="132" key="1"/>
          <note len="24" pan="0" vol="100" pos="144" key="59"/>
          <note len="24" pan="0" vol="100" pos="168" key="59"/>
          <note len="24" pan="0" vol="100" pos="180" key="0"/>
          <note len="24" pan="0" vol="100" pos="192" key="64"/>
          <note len="24" pan="0" vol="100" pos="204" key="1"/>
          <note len="24" pan="0" vol="100" pos="216" key="59"/>
          <note len="24" pan="0" vol="100" pos="240" key="59"/>
          <note len="24" pan="0" vol="100" pos="252" key="0"/>
          <note len="24" pan="0" vol="100" pos="264" key="62"/>
          <note len="24" pan="0" vol="100" pos="276" key="1"/>
          <note len="24" pan="0" vol="100" pos="288" key="59"/>
          <note len="24" pan="0" vol="100" pos="312" key="59"/>
          <note len="24" pan="0" vol="100" pos="324" key="0"/>
          <note len="24" pan="0" vol="100" pos="336" key="61"/>
          <note len="24" pan="0" vol="100" pos="348" key="2"/>
          <note len="24" pan="0" vol="100" pos="360" key="62"/>
        </pattern>
        <pattern type="1" name="lgtH1" steps="16" pos="10368" muted="0">
          <note len="24" pan="0" vol="100" pos="0" key="59"/>
          <note len="24" pan="0" vol="100" pos="0" key="1"/>
          <note len="24" pan="0" vol="100" pos="24" key="59"/>
          <note len="24" pan="0" vol="100" pos="36" key="0"/>
          <note len="24" pan="0" vol="100" pos="48" key="62"/>
          <note len="24" pan="0" vol="100" pos="72" key="59"/>
          <note len="24" pan="0" vol="100" pos="72" key="1"/>
          <note len="24" pan="0" vol="100" pos="96" key="59"/>
          <note len="24" pan="0" vol="100" pos="108" key="0"/>
          <note len="24" pan="0" vol="100" pos="120" key="61"/>
          <note len="24" pan="0" vol="100" pos="132" key="1"/>
          <note len="24" pan="0" vol="100" pos="144" key="59"/>
          <note len="24" pan="0" vol="100" pos="168" key="59"/>
          <note len="24" pan="0" vol="100" pos="180" key="0"/>
          <note len="24" pan="0" vol="100" pos="192" key="64"/>
          <note len="24" pan="0" vol="100" pos="204" key="1"/>
          <note len="24" pan="0" vol="100" pos="216" key="59"/>
          <note len="24" pan="0" vol="100" pos="240" key="59"/>
          <note len="24" pan="0" vol="100" pos="252" key="0"/>
          <note len="24" pan="0" vol="100" pos="264" key="62"/>
          <note len="24" pan="0" vol="100" pos="276" key="1"/>
          <note len="24" pan="0" vol="100" pos="288" key="59"/>
          <note len="24" pan="0" vol="100" pos="312" key="59"/>
          <note len="24" pan="0" vol="100" pos="324" key="0"/>
          <note len="24" pan="0" vol="100" pos="336" key="61"/>
          <note len="24" pan="0" vol="100" pos="348" key="2"/>
          <note len="24" pan="0" vol="100" pos="360" key="62"/>
        </pattern>
        <pattern type="1" name="lgtH1" steps="16" pos="10752" muted="0">
          <note len="24" pan="0" vol="100" pos="0" key="59"/>
          <note len="24" pan="0" vol="100" pos="0" key="1"/>
          <note len="24" pan="0" vol="100" pos="24" key="59"/>
          <note len="24" pan="0" vol="100" pos="36" key="0"/>
          <note len="24" pan="0" vol="100" pos="48" key="62"/>
          <note len="24" pan="0" vol="100" pos="72" key="59"/>
          <note len="24" pan="0" vol="100" pos="72" key="1"/>
          <note len="24" pan="0" vol="100" pos="96" key="59"/>
          <note len="24" pan="0" vol="100" pos="108" key="0"/>
          <note len="24" pan="0" vol="100" pos="120" key="61"/>
          <note len="24" pan="0" vol="100" pos="132" key="1"/>
          <note len="24" pan="0" vol="100" pos="144" key="59"/>
          <note len="24" pan="0" vol="100" pos="168" key="59"/>
          <note len="24" pan="0" vol="100" pos="180" key="0"/>
          <note len="24" pan="0" vol="100" pos="192" key="64"/>
          <note len="24" pan="0" vol="100" pos="204" key="1"/>
          <note len="24" pan="0" vol="100" pos="216" key="59"/>
          <note len="24" pan="0" vol="100" pos="240" key="59"/>
          <note len="24" pan="0" vol="100" pos="252" key="0"/>
          <note len="24" pan="0" vol="100" pos="264" key="62"/>
          <note len="24" pan="0" vol="100" pos="276" key="1"/>
          <note len="24" pan="0" vol="100" pos="288" key="59"/>
          <note len="24" pan="0" vol="100" pos="312" key="59"/>
          <note len="24" pan="0" vol="100" pos="324" key="0"/>
          <note len="24" pan="0" vol="100" pos="336" key="61"/>
          <note len="24" pan="0" vol="100" pos="348" key="2"/>
          <note len="24" pan="0" vol="100" pos="360" key="62"/>
        </pattern>
        <pattern type="1" name="lgtH1" steps="16" pos="11136" muted="0">
          <note len="24" pan="0" vol="100" pos="0" key="59"/>
          <note len="24" pan="0" vol="100" pos="0" key="1"/>
          <note len="24" pan="0" vol="100" pos="24" key="59"/>
          <note len="24" pan="0" vol="100" pos="36" key="0"/>
          <note len="24" pan="0" vol="100" pos="48" key="62"/>
          <note len="24" pan="0" vol="100" pos="72" key="59"/>
          <note len="24" pan="0" vol="100" pos="72" key="1"/>
          <note len="24" pan="0" vol="100" pos="96" key="59"/>
          <note len="24" pan="0" vol="100" pos="108" key="0"/>
          <note len="24" pan="0" vol="100" pos="120" key="61"/>
          <note len="24" pan="0" vol="100" pos="132" key="1"/>
          <note len="24" pan="0" vol="100" pos="144" key="59"/>
          <note len="24" pan="0" vol="100" pos="168" key="59"/>
          <note len="24" pan="0" vol="100" pos="180" key="0"/>
          <note len="24" pan="0" vol="100" pos="192" key="64"/>
          <note len="24" pan="0" vol="100" pos="204" key="1"/>
          <note len="24" pan="0" vol="100" pos="216" key="59"/>
          <note len="24" pan="0" vol="100" pos="240" key="59"/>
          <note len="24" pan="0" vol="100" pos="252" key="0"/>
          <note len="24" pan="0" vol="100" pos="264" key="62"/>
          <note len="24" pan="0" vol="100" pos="276" key="1"/>
          <note len="24" pan="0" vol="100" pos="288" key="59"/>
          <note len="24" pan="0" vol="100" pos="312" key="59"/>
          <note len="24" pan="0" vol="100" pos="324" key="0"/>
          <note len="24" pan="0" vol="100" pos="336" key="61"/>
          <note len="24" pan="0" vol="100" pos="348" key="2"/>
          <note len="24" pan="0" vol="100" pos="360" key="62"/>
        </pattern>
        <pattern type="1" name="lgtH1" steps="16" pos="11520" muted="0">
          <note len="24" pan="0" vol="100" pos="0" key="59"/>
          <note len="24" pan="0" vol="100" pos="0" key="1"/>
          <note len="24" pan="0" vol="100" pos="24" key="59"/>
          <note len="24" pan="0" vol="100" pos="36" key="0"/>
          <note len="24" pan="0" vol="100" pos="48" key="62"/>
          <note len="24" pan="0" vol="100" pos="72" key="59"/>
          <note len="24" pan="0" vol="100" pos="72" key="1"/>
          <note len="24" pan="0" vol="100" pos="96" key="59"/>
          <note len="24" pan="0" vol="100" pos="108" key="0"/>
          <note len="24" pan="0" vol="100" pos="120" key="61"/>
          <note len="24" pan="0" vol="100" pos="132" key="1"/>
          <note len="24" pan="0" vol="100" pos="144" key="59"/>
          <note len="24" pan="0" vol="100" pos="168" key="59"/>
          <note len="24" pan="0" vol="100" pos="180" key="0"/>
          <note len="24" pan="0" vol="100" pos="192" key="64"/>
          <note len="24" pan="0" vol="100" pos="204" key="1"/>
          <note len="24" pan="0" vol="100" pos="216" key="59"/>
          <note len="24" pan="0" vol="100" pos="240" key="59"/>
          <note len="24" pan="0" vol="100" pos="252" key="0"/>
          <note len="24" pan="0" vol="100" pos="264" key="62"/>
          <note len="24" pan="0" vol="100" pos="276" key="1"/>
          <note len="24" pan="0" vol="100" pos="288" key="59"/>
          <note len="24" pan="0" vol="100" pos="312" key="59"/>
          <note len="24" pan="0" vol="100" pos="324" key="0"/>
          <note len="24" pan="0" vol="100" pos="336" key="61"/>
          <note len="24" pan="0" vol="100" pos="348" key="2"/>
          <note len="24" pan="0" vol="100" pos="360" key="62"/>
        </pattern>
        <pattern type="1" name="lgtH1" steps="16" pos="25344" muted="0">
          <note len="72" pan="0" vol="100" pos="0" key="78"/>
          <note len="48" pan="0" vol="100" pos="0" key="0"/>
          <note len="72" pan="0" vol="100" pos="72" key="76"/>
          <note len="48" pan="0" vol="100" pos="144" key="78"/>
          <note len="72" pan="0" vol="100" pos="192" key="78"/>
          <note len="72" pan="0" vol="100" pos="264" key="76"/>
          <note len="48" pan="0" vol="100" pos="336" key="78"/>
          <note len="72" pan="0" vol="100" pos="384" key="79"/>
          <note len="72" pan="0" vol="100" pos="456" key="78"/>
          <note len="48" pan="0" vol="100" pos="528" key="76"/>
          <note len="72" pan="0" vol="100" pos="576" key="78"/>
          <note len="72" pan="0" vol="100" pos="648" key="76"/>
          <note len="48" pan="0" vol="100" pos="720" key="74"/>
        </pattern>
        <pattern type="1" name="lgtH1" steps="16" pos="27648" muted="0">
          <note len="72" pan="0" vol="100" pos="0" key="69"/>
          <note len="72" pan="0" vol="100" pos="72" key="67"/>
          <note len="48" pan="0" vol="100" pos="144" key="66"/>
          <note len="72" pan="0" vol="100" pos="192" key="69"/>
          <note len="72" pan="0" vol="100" pos="264" key="67"/>
          <note len="48" pan="0" vol="100" pos="336" key="66"/>
          <note len="24" pan="0" vol="100" pos="384" key="66"/>
          <note len="168" pan="0" vol="100" pos="408" key="64"/>
        </pattern>
        <pattern type="1" name="lgtH1" steps="16" pos="33792" muted="0">
          <note len="24" pan="0" vol="100" pos="0" key="62"/>
          <note len="24" pan="0" vol="100" pos="0" key="1"/>
          <note len="24" pan="0" vol="100" pos="24" key="66"/>
          <note len="24" pan="0" vol="100" pos="24" key="0"/>
          <note len="24" pan="0" vol="100" pos="36" key="1"/>
          <note len="24" pan="0" vol="100" pos="48" key="62"/>
          <note len="24" pan="0" vol="100" pos="72" key="62"/>
          <note len="24" pan="0" vol="100" pos="84" key="0"/>
          <note len="24" pan="0" vol="100" pos="96" key="66"/>
          <note len="24" pan="0" vol="100" pos="108" key="1"/>
          <note len="24" pan="0" vol="100" pos="120" key="62"/>
          <note len="24" pan="0" vol="100" pos="144" key="62"/>
          <note len="24" pan="0" vol="100" pos="156" key="0"/>
          <note len="24" pan="0" vol="100" pos="168" key="66"/>
          <note len="24" pan="0" vol="100" pos="180" key="1"/>
          <note len="24" pan="0" vol="100" pos="192" key="62"/>
          <note len="24" pan="0" vol="100" pos="216" key="62"/>
          <note len="24" pan="0" vol="100" pos="228" key="0"/>
          <note len="24" pan="0" vol="100" pos="240" key="66"/>
          <note len="24" pan="0" vol="100" pos="252" key="1"/>
          <note len="24" pan="0" vol="100" pos="264" key="62"/>
          <note len="24" pan="0" vol="100" pos="288" key="62"/>
          <note len="24" pan="0" vol="100" pos="300" key="0"/>
          <note len="24" pan="0" vol="100" pos="312" key="66"/>
          <note len="24" pan="0" vol="100" pos="324" key="1"/>
          <note len="24" pan="0" vol="100" pos="336" key="62"/>
          <note len="24" pan="0" vol="100" pos="360" key="62"/>
        </pattern>
        <pattern type="1" name="lgtH1" steps="16" pos="34176" muted="0">
          <note len="24" pan="0" vol="100" pos="0" key="62"/>
          <note len="24" pan="0" vol="100" pos="0" key="1"/>
          <note len="24" pan="0" vol="100" pos="24" key="67"/>
          <note len="24" pan="0" vol="100" pos="24" key="0"/>
          <note len="24" pan="0" vol="100" pos="36" key="1"/>
          <note len="24" pan="0" vol="100" pos="48" key="62"/>
          <note len="24" pan="0" vol="100" pos="72" key="62"/>
          <note len="24" pan="0" vol="100" pos="84" key="0"/>
          <note len="24" pan="0" vol="100" pos="96" key="67"/>
          <note len="24" pan="0" vol="100" pos="108" key="1"/>
          <note len="24" pan="0" vol="100" pos="120" key="62"/>
          <note len="24" pan="0" vol="100" pos="144" key="62"/>
          <note len="24" pan="0" vol="100" pos="156" key="0"/>
          <note len="24" pan="0" vol="100" pos="168" key="69"/>
          <note len="24" pan="0" vol="100" pos="180" key="1"/>
          <note len="24" pan="0" vol="100" pos="192" key="62"/>
          <note len="24" pan="0" vol="100" pos="216" key="62"/>
          <note len="24" pan="0" vol="100" pos="228" key="0"/>
          <note len="24" pan="0" vol="100" pos="240" key="69"/>
          <note len="24" pan="0" vol="100" pos="252" key="1"/>
          <note len="24" pan="0" vol="100" pos="264" key="62"/>
          <note len="24" pan="0" vol="100" pos="288" key="62"/>
          <note len="24" pan="0" vol="100" pos="300" key="0"/>
          <note len="24" pan="0" vol="100" pos="312" key="69"/>
          <note len="24" pan="0" vol="100" pos="324" key="1"/>
          <note len="24" pan="0" vol="100" pos="336" key="62"/>
          <note len="24" pan="0" vol="100" pos="360" key="62"/>
        </pattern>
        <pattern type="1" name="lgtH1" steps="16" pos="34560" muted="0">
          <note len="24" pan="0" vol="100" pos="0" key="62"/>
          <note len="24" pan="0" vol="100" pos="0" key="1"/>
          <note len="24" pan="0" vol="100" pos="24" key="66"/>
          <note len="24" pan="0" vol="100" pos="24" key="0"/>
          <note len="24" pan="0" vol="100" pos="36" key="1"/>
          <note len="24" pan="0" vol="100" pos="48" key="62"/>
          <note len="24" pan="0" vol="100" pos="72" key="62"/>
          <note len="24" pan="0" vol="100" pos="84" key="0"/>
          <note len="24" pan="0" vol="100" pos="96" key="66"/>
          <note len="24" pan="0" vol="100" pos="108" key="1"/>
          <note len="24" pan="0" vol="100" pos="120" key="62"/>
          <note len="24" pan="0" vol="100" pos="144" key="62"/>
          <note len="24" pan="0" vol="100" pos="156" key="0"/>
          <note len="24" pan="0" vol="100" pos="168" key="66"/>
          <note len="24" pan="0" vol="100" pos="180" key="1"/>
          <note len="24" pan="0" vol="100" pos="192" key="62"/>
          <note len="24" pan="0" vol="100" pos="216" key="62"/>
          <note len="24" pan="0" vol="100" pos="228" key="0"/>
          <note len="24" pan="0" vol="100" pos="240" key="66"/>
          <note len="24" pan="0" vol="100" pos="252" key="1"/>
          <note len="24" pan="0" vol="100" pos="264" key="62"/>
          <note len="24" pan="0" vol="100" pos="288" key="62"/>
          <note len="24" pan="0" vol="100" pos="300" key="0"/>
          <note len="24" pan="0" vol="100" pos="312" key="66"/>
          <note len="24" pan="0" vol="100" pos="324" key="1"/>
          <note len="24" pan="0" vol="100" pos="336" key="62"/>
          <note len="24" pan="0" vol="100" pos="360" key="62"/>
        </pattern>
        <pattern type="1" name="lgtH1" steps="16" pos="34944" muted="0">
          <note len="24" pan="0" vol="100" pos="0" key="62"/>
          <note len="24" pan="0" vol="100" pos="0" key="1"/>
          <note len="24" pan="0" vol="100" pos="24" key="67"/>
          <note len="24" pan="0" vol="100" pos="24" key="0"/>
          <note len="24" pan="0" vol="100" pos="36" key="1"/>
          <note len="24" pan="0" vol="100" pos="48" key="62"/>
          <note len="24" pan="0" vol="100" pos="72" key="62"/>
          <note len="24" pan="0" vol="100" pos="84" key="0"/>
          <note len="24" pan="0" vol="100" pos="96" key="67"/>
          <note len="24" pan="0" vol="100" pos="108" key="1"/>
          <note len="24" pan="0" vol="100" pos="120" key="62"/>
          <note len="24" pan="0" vol="100" pos="144" key="62"/>
          <note len="24" pan="0" vol="100" pos="156" key="0"/>
          <note len="24" pan="0" vol="100" pos="168" key="69"/>
          <note len="24" pan="0" vol="100" pos="180" key="1"/>
          <note len="24" pan="0" vol="100" pos="192" key="62"/>
          <note len="24" pan="0" vol="100" pos="216" key="62"/>
          <note len="24" pan="0" vol="100" pos="228" key="0"/>
          <note len="24" pan="0" vol="100" pos="240" key="69"/>
          <note len="24" pan="0" vol="100" pos="252" key="1"/>
          <note len="24" pan="0" vol="100" pos="264" key="62"/>
          <note len="24" pan="0" vol="100" pos="300" key="0"/>
          <note len="24" pan="0" vol="100" pos="324" key="1"/>
        </pattern>
        <pattern type="1" name="lgtH1" steps="16" pos="43008" muted="0">
          <note len="24" pan="0" vol="100" pos="0" key="59"/>
          <note len="24" pan="0" vol="100" pos="0" key="1"/>
          <note len="24" pan="0" vol="100" pos="24" key="59"/>
          <note len="24" pan="0" vol="100" pos="36" key="0"/>
          <note len="24" pan="0" vol="100" pos="48" key="62"/>
          <note len="24" pan="0" vol="100" pos="72" key="59"/>
          <note len="24" pan="0" vol="100" pos="72" key="1"/>
          <note len="24" pan="0" vol="100" pos="96" key="59"/>
          <note len="24" pan="0" vol="100" pos="108" key="0"/>
          <note len="24" pan="0" vol="100" pos="120" key="61"/>
          <note len="24" pan="0" vol="100" pos="132" key="1"/>
          <note len="24" pan="0" vol="100" pos="144" key="59"/>
          <note len="24" pan="0" vol="100" pos="168" key="59"/>
          <note len="24" pan="0" vol="100" pos="180" key="0"/>
          <note len="24" pan="0" vol="100" pos="192" key="64"/>
          <note len="24" pan="0" vol="100" pos="204" key="1"/>
          <note len="24" pan="0" vol="100" pos="216" key="59"/>
          <note len="24" pan="0" vol="100" pos="240" key="59"/>
          <note len="24" pan="0" vol="100" pos="252" key="0"/>
          <note len="24" pan="0" vol="100" pos="264" key="62"/>
          <note len="24" pan="0" vol="100" pos="276" key="1"/>
          <note len="24" pan="0" vol="100" pos="288" key="59"/>
          <note len="24" pan="0" vol="100" pos="312" key="59"/>
          <note len="24" pan="0" vol="100" pos="324" key="0"/>
          <note len="24" pan="0" vol="100" pos="336" key="61"/>
          <note len="24" pan="0" vol="100" pos="348" key="2"/>
          <note len="24" pan="0" vol="100" pos="360" key="62"/>
        </pattern>
        <pattern type="1" name="lgtH1" steps="16" pos="36864" muted="0">
          <note len="12" pan="0" vol="200" pos="0" key="74"/>
          <note len="24" pan="0" vol="200" pos="0" key="2"/>
          <note len="12" pan="0" vol="200" pos="12" key="71"/>
          <note len="12" pan="0" vol="200" pos="24" key="74"/>
          <note len="12" pan="0" vol="200" pos="36" key="71"/>
          <note len="12" pan="0" vol="200" pos="48" key="73"/>
          <note len="12" pan="0" vol="200" pos="60" key="71"/>
          <note len="12" pan="0" vol="200" pos="72" key="74"/>
          <note len="12" pan="0" vol="200" pos="84" key="71"/>
          <note len="12" pan="0" vol="200" pos="96" key="76"/>
          <note len="12" pan="0" vol="200" pos="108" key="71"/>
          <note len="12" pan="0" vol="200" pos="120" key="74"/>
          <note len="12" pan="0" vol="200" pos="132" key="71"/>
          <note len="12" pan="0" vol="200" pos="144" key="73"/>
          <note len="12" pan="0" vol="200" pos="156" key="71"/>
          <note len="12" pan="0" vol="200" pos="168" key="74"/>
          <note len="12" pan="0" vol="200" pos="180" key="71"/>
        </pattern>
        <pattern type="1" name="lgtH1" steps="16" pos="37056" muted="0">
          <note len="12" pan="0" vol="200" pos="0" key="74"/>
          <note len="24" pan="0" vol="200" pos="0" key="2"/>
          <note len="12" pan="0" vol="200" pos="12" key="71"/>
          <note len="12" pan="0" vol="200" pos="24" key="74"/>
          <note len="12" pan="0" vol="200" pos="36" key="71"/>
          <note len="12" pan="0" vol="200" pos="48" key="73"/>
          <note len="12" pan="0" vol="200" pos="60" key="71"/>
          <note len="12" pan="0" vol="200" pos="72" key="74"/>
          <note len="12" pan="0" vol="200" pos="84" key="71"/>
          <note len="12" pan="0" vol="200" pos="96" key="76"/>
          <note len="12" pan="0" vol="200" pos="108" key="71"/>
          <note len="12" pan="0" vol="200" pos="120" key="74"/>
          <note len="12" pan="0" vol="200" pos="132" key="71"/>
          <note len="12" pan="0" vol="200" pos="144" key="73"/>
          <note len="12" pan="0" vol="200" pos="156" key="71"/>
          <note len="12" pan="0" vol="200" pos="168" key="74"/>
          <note len="12" pan="0" vol="200" pos="180" key="71"/>
        </pattern>
        <pattern type="1" name="lgtH1" steps="16" pos="37248" muted="0">
          <note len="12" pan="0" vol="200" pos="0" key="74"/>
          <note len="24" pan="0" vol="200" pos="0" key="2"/>
          <note len="12" pan="0" vol="200" pos="12" key="71"/>
          <note len="12" pan="0" vol="200" pos="24" key="74"/>
          <note len="12" pan="0" vol="200" pos="36" key="71"/>
          <note len="12" pan="0" vol="200" pos="48" key="73"/>
          <note len="12" pan="0" vol="200" pos="60" key="71"/>
          <note len="12" pan="0" vol="200" pos="72" key="74"/>
          <note len="12" pan="0" vol="200" pos="84" key="71"/>
          <note len="12" pan="0" vol="200" pos="96" key="76"/>
          <note len="12" pan="0" vol="200" pos="108" key="71"/>
          <note len="12" pan="0" vol="200" pos="120" key="74"/>
          <note len="12" pan="0" vol="200" pos="132" key="71"/>
          <note len="12" pan="0" vol="200" pos="144" key="73"/>
          <note len="12" pan="0" vol="200" pos="156" key="71"/>
          <note len="12" pan="0" vol="200" pos="168" key="74"/>
          <note len="12" pan="0" vol="200" pos="180" key="71"/>
        </pattern>
        <pattern type="1" name="lgtH1" steps="16" pos="37440" muted="0">
          <note len="12" pan="0" vol="200" pos="0" key="74"/>
          <note len="24" pan="0" vol="200" pos="0" key="2"/>
          <note len="12" pan="0" vol="200" pos="12" key="71"/>
          <note len="12" pan="0" vol="200" pos="24" key="74"/>
          <note len="12" pan="0" vol="200" pos="36" key="71"/>
          <note len="12" pan="0" vol="200" pos="48" key="73"/>
          <note len="12" pan="0" vol="200" pos="60" key="71"/>
          <note len="12" pan="0" vol="200" pos="72" key="74"/>
          <note len="12" pan="0" vol="200" pos="84" key="71"/>
          <note len="12" pan="0" vol="200" pos="96" key="76"/>
          <note len="12" pan="0" vol="200" pos="108" key="71"/>
          <note len="12" pan="0" vol="200" pos="120" key="74"/>
          <note len="12" pan="0" vol="200" pos="132" key="71"/>
          <note len="24" pan="0" vol="200" pos="144" key="76"/>
          <note len="24" pan="0" vol="200" pos="144" key="0"/>
          <note len="24" pan="0" vol="200" pos="168" key="78"/>
        </pattern>
        <pattern type="1" name="lgtH1" steps="16" pos="37632" muted="0">
          <note len="48" pan="0" vol="200" pos="0" key="79"/>
          <note len="48" pan="0" vol="200" pos="48" key="78"/>
          <note len="48" pan="0" vol="200" pos="96" key="76"/>
          <note len="48" pan="0" vol="200" pos="144" key="74"/>
          <note len="24" pan="0" vol="200" pos="192" key="76"/>
          <note len="24" pan="0" vol="200" pos="216" key="74"/>
          <note len="24" pan="0" vol="200" pos="240" key="73"/>
          <note len="48" pan="0" vol="200" pos="264" key="74"/>
          <note len="12" pan="0" vol="200" pos="312" key="73"/>
          <note len="12" pan="0" vol="200" pos="324" key="74"/>
          <note len="24" pan="0" vol="200" pos="336" key="73"/>
          <note len="24" pan="0" vol="200" pos="360" key="74"/>
        </pattern>
        <pattern type="1" name="lgtH1" steps="16" pos="38016" muted="0">
          <note len="12" pan="0" vol="200" pos="0" key="78"/>
          <note len="12" pan="0" vol="200" pos="0" key="2"/>
          <note len="12" pan="0" vol="200" pos="12" key="79"/>
          <note len="12" pan="0" vol="200" pos="24" key="78"/>
          <note len="12" pan="0" vol="200" pos="36" key="79"/>
          <note len="24" pan="0" vol="200" pos="48" key="78"/>
          <note len="12" pan="0" vol="200" pos="60" key="0"/>
          <note len="24" pan="0" vol="200" pos="72" key="76"/>
          <note len="12" pan="0" vol="200" pos="84" key="2"/>
          <note len="12" pan="0" vol="200" pos="96" key="73"/>
          <note len="12" pan="0" vol="200" pos="108" key="74"/>
          <note len="12" pan="0" vol="200" pos="120" key="73"/>
          <note len="12" pan="0" vol="200" pos="132" key="74"/>
          <note len="24" pan="0" vol="200" pos="144" key="73"/>
          <note len="12" pan="0" vol="200" pos="156" key="0"/>
          <note len="24" pan="0" vol="200" pos="168" key="71"/>
          <note len="24" pan="0" vol="200" pos="192" key="69"/>
        </pattern>
        <pattern type="1" name="lgtH1" steps="16" pos="43392" muted="0">
          <note len="24" pan="0" vol="100" pos="0" key="59"/>
          <note len="24" pan="0" vol="100" pos="0" key="1"/>
          <note len="24" pan="0" vol="100" pos="24" key="59"/>
          <note len="24" pan="0" vol="100" pos="36" key="0"/>
          <note len="24" pan="0" vol="100" pos="48" key="62"/>
          <note len="24" pan="0" vol="100" pos="72" key="59"/>
          <note len="24" pan="0" vol="100" pos="72" key="1"/>
          <note len="24" pan="0" vol="100" pos="96" key="59"/>
          <note len="24" pan="0" vol="100" pos="108" key="0"/>
          <note len="24" pan="0" vol="100" pos="120" key="61"/>
          <note len="24" pan="0" vol="100" pos="132" key="1"/>
          <note len="24" pan="0" vol="100" pos="144" key="59"/>
          <note len="24" pan="0" vol="100" pos="168" key="59"/>
          <note len="24" pan="0" vol="100" pos="180" key="0"/>
          <note len="24" pan="0" vol="100" pos="192" key="64"/>
          <note len="24" pan="0" vol="100" pos="204" key="1"/>
          <note len="24" pan="0" vol="100" pos="216" key="59"/>
          <note len="24" pan="0" vol="100" pos="240" key="59"/>
          <note len="24" pan="0" vol="100" pos="252" key="0"/>
          <note len="24" pan="0" vol="100" pos="264" key="62"/>
          <note len="24" pan="0" vol="100" pos="276" key="1"/>
          <note len="24" pan="0" vol="100" pos="288" key="59"/>
          <note len="24" pan="0" vol="100" pos="312" key="59"/>
          <note len="24" pan="0" vol="100" pos="324" key="0"/>
          <note len="24" pan="0" vol="100" pos="336" key="61"/>
          <note len="24" pan="0" vol="100" pos="348" key="2"/>
          <note len="24" pan="0" vol="100" pos="360" key="62"/>
        </pattern>
        <pattern type="1" name="lgtH1" steps="16" pos="43776" muted="0">
          <note len="24" pan="0" vol="100" pos="0" key="59"/>
          <note len="24" pan="0" vol="100" pos="0" key="1"/>
          <note len="24" pan="0" vol="100" pos="24" key="59"/>
          <note len="24" pan="0" vol="100" pos="36" key="0"/>
          <note len="24" pan="0" vol="100" pos="48" key="62"/>
          <note len="24" pan="0" vol="100" pos="72" key="59"/>
          <note len="24" pan="0" vol="100" pos="72" key="1"/>
          <note len="24" pan="0" vol="100" pos="96" key="59"/>
          <note len="24" pan="0" vol="100" pos="108" key="0"/>
          <note len="24" pan="0" vol="100" pos="120" key="61"/>
          <note len="24" pan="0" vol="100" pos="132" key="1"/>
          <note len="24" pan="0" vol="100" pos="144" key="59"/>
          <note len="24" pan="0" vol="100" pos="168" key="59"/>
          <note len="24" pan="0" vol="100" pos="180" key="0"/>
          <note len="24" pan="0" vol="100" pos="192" key="64"/>
          <note len="24" pan="0" vol="100" pos="204" key="1"/>
          <note len="24" pan="0" vol="100" pos="216" key="59"/>
          <note len="24" pan="0" vol="100" pos="240" key="59"/>
          <note len="24" pan="0" vol="100" pos="252" key="0"/>
          <note len="24" pan="0" vol="100" pos="264" key="62"/>
          <note len="24" pan="0" vol="100" pos="276" key="1"/>
          <note len="24" pan="0" vol="100" pos="288" key="59"/>
          <note len="24" pan="0" vol="100" pos="312" key="59"/>
          <note len="24" pan="0" vol="100" pos="324" key="0"/>
          <note len="24" pan="0" vol="100" pos="336" key="61"/>
          <note len="24" pan="0" vol="100" pos="348" key="2"/>
          <note len="24" pan="0" vol="100" pos="360" key="62"/>
        </pattern>
        <pattern type="1" name="lgtH1" steps="16" pos="44160" muted="0">
          <note len="24" pan="0" vol="100" pos="0" key="59"/>
          <note len="24" pan="0" vol="100" pos="0" key="1"/>
          <note len="24" pan="0" vol="100" pos="24" key="59"/>
          <note len="24" pan="0" vol="100" pos="36" key="0"/>
          <note len="24" pan="0" vol="100" pos="48" key="62"/>
          <note len="24" pan="0" vol="100" pos="72" key="59"/>
          <note len="24" pan="0" vol="100" pos="72" key="1"/>
          <note len="24" pan="0" vol="100" pos="96" key="59"/>
          <note len="24" pan="0" vol="100" pos="108" key="0"/>
          <note len="24" pan="0" vol="100" pos="120" key="61"/>
          <note len="24" pan="0" vol="100" pos="132" key="1"/>
          <note len="24" pan="0" vol="100" pos="144" key="59"/>
          <note len="24" pan="0" vol="100" pos="168" key="59"/>
          <note len="24" pan="0" vol="100" pos="180" key="0"/>
          <note len="24" pan="0" vol="100" pos="192" key="64"/>
          <note len="24" pan="0" vol="100" pos="204" key="1"/>
          <note len="24" pan="0" vol="100" pos="216" key="59"/>
          <note len="24" pan="0" vol="100" pos="240" key="59"/>
          <note len="24" pan="0" vol="100" pos="252" key="0"/>
          <note len="24" pan="0" vol="100" pos="264" key="62"/>
          <note len="24" pan="0" vol="100" pos="276" key="1"/>
          <note len="24" pan="0" vol="100" pos="288" key="59"/>
          <note len="24" pan="0" vol="100" pos="312" key="59"/>
          <note len="24" pan="0" vol="100" pos="324" key="0"/>
          <note len="24" pan="0" vol="100" pos="336" key="61"/>
          <note len="24" pan="0" vol="100" pos="348" key="2"/>
          <note len="24" pan="0" vol="100" pos="360" key="62"/>
        </pattern>
        <pattern type="1" name="lgtH1" steps="16" pos="44544" muted="0">
          <note len="24" pan="0" vol="100" pos="0" key="59"/>
          <note len="24" pan="0" vol="100" pos="0" key="1"/>
          <note len="24" pan="0" vol="100" pos="24" key="59"/>
          <note len="24" pan="0" vol="100" pos="36" key="0"/>
          <note len="24" pan="0" vol="100" pos="48" key="62"/>
          <note len="24" pan="0" vol="100" pos="72" key="59"/>
          <note len="24" pan="0" vol="100" pos="72" key="1"/>
          <note len="24" pan="0" vol="100" pos="96" key="59"/>
          <note len="24" pan="0" vol="100" pos="108" key="0"/>
          <note len="24" pan="0" vol="100" pos="120" key="61"/>
          <note len="24" pan="0" vol="100" pos="132" key="1"/>
          <note len="24" pan="0" vol="100" pos="144" key="59"/>
          <note len="24" pan="0" vol="100" pos="168" key="59"/>
          <note len="24" pan="0" vol="100" pos="180" key="0"/>
          <note len="24" pan="0" vol="100" pos="192" key="64"/>
          <note len="24" pan="0" vol="100" pos="204" key="1"/>
          <note len="24" pan="0" vol="100" pos="216" key="59"/>
          <note len="24" pan="0" vol="100" pos="240" key="59"/>
          <note len="24" pan="0" vol="100" pos="252" key="0"/>
          <note len="24" pan="0" vol="100" pos="264" key="62"/>
          <note len="24" pan="0" vol="100" pos="276" key="1"/>
          <note len="24" pan="0" vol="100" pos="288" key="59"/>
          <note len="24" pan="0" vol="100" pos="312" key="59"/>
          <note len="24" pan="0" vol="100" pos="324" key="0"/>
          <note len="24" pan="0" vol="100" pos="336" key="61"/>
          <note len="24" pan="0" vol="100" pos="348" key="2"/>
          <note len="24" pan="0" vol="100" pos="360" key="62"/>
        </pattern>
        <pattern type="1" name="lgtH1" steps="16" pos="44928" muted="0">
          <note len="24" pan="0" vol="100" pos="0" key="59"/>
          <note len="24" pan="0" vol="100" pos="0" key="1"/>
          <note len="24" pan="0" vol="100" pos="24" key="59"/>
          <note len="24" pan="0" vol="100" pos="36" key="0"/>
          <note len="24" pan="0" vol="100" pos="48" key="62"/>
          <note len="24" pan="0" vol="100" pos="72" key="59"/>
          <note len="24" pan="0" vol="100" pos="72" key="1"/>
          <note len="24" pan="0" vol="100" pos="96" key="59"/>
          <note len="24" pan="0" vol="100" pos="108" key="0"/>
          <note len="24" pan="0" vol="100" pos="120" key="61"/>
          <note len="24" pan="0" vol="100" pos="132" key="1"/>
          <note len="24" pan="0" vol="100" pos="144" key="59"/>
          <note len="24" pan="0" vol="100" pos="168" key="59"/>
          <note len="24" pan="0" vol="100" pos="180" key="0"/>
          <note len="24" pan="0" vol="100" pos="192" key="64"/>
          <note len="24" pan="0" vol="100" pos="204" key="1"/>
          <note len="24" pan="0" vol="100" pos="216" key="59"/>
          <note len="24" pan="0" vol="100" pos="240" key="59"/>
          <note len="24" pan="0" vol="100" pos="252" key="0"/>
          <note len="24" pan="0" vol="100" pos="264" key="62"/>
          <note len="24" pan="0" vol="100" pos="276" key="1"/>
          <note len="24" pan="0" vol="100" pos="288" key="59"/>
          <note len="24" pan="0" vol="100" pos="312" key="59"/>
          <note len="24" pan="0" vol="100" pos="324" key="0"/>
          <note len="24" pan="0" vol="100" pos="336" key="61"/>
          <note len="24" pan="0" vol="100" pos="348" key="2"/>
          <note len="24" pan="0" vol="100" pos="360" key="62"/>
        </pattern>
        <pattern type="1" name="lgtH1" steps="16" pos="45312" muted="0">
          <note len="24" pan="0" vol="100" pos="0" key="59"/>
          <note len="24" pan="0" vol="100" pos="0" key="1"/>
          <note len="24" pan="0" vol="100" pos="24" key="59"/>
          <note len="24" pan="0" vol="100" pos="36" key="0"/>
          <note len="24" pan="0" vol="100" pos="48" key="62"/>
          <note len="24" pan="0" vol="100" pos="72" key="59"/>
          <note len="24" pan="0" vol="100" pos="72" key="1"/>
          <note len="24" pan="0" vol="100" pos="96" key="59"/>
          <note len="24" pan="0" vol="100" pos="108" key="0"/>
          <note len="24" pan="0" vol="100" pos="120" key="61"/>
          <note len="24" pan="0" vol="100" pos="132" key="1"/>
          <note len="24" pan="0" vol="100" pos="144" key="59"/>
          <note len="24" pan="0" vol="100" pos="168" key="59"/>
          <note len="24" pan="0" vol="100" pos="180" key="0"/>
          <note len="24" pan="0" vol="100" pos="192" key="64"/>
          <note len="24" pan="0" vol="100" pos="204" key="1"/>
          <note len="24" pan="0" vol="100" pos="216" key="59"/>
          <note len="24" pan="0" vol="100" pos="240" key="59"/>
          <note len="24" pan="0" vol="100" pos="252" key="0"/>
          <note len="24" pan="0" vol="100" pos="264" key="62"/>
          <note len="24" pan="0" vol="100" pos="276" key="1"/>
          <note len="24" pan="0" vol="100" pos="288" key="59"/>
          <note len="24" pan="0" vol="100" pos="312" key="59"/>
          <note len="24" pan="0" vol="100" pos="324" key="0"/>
          <note len="24" pan="0" vol="100" pos="336" key="61"/>
          <note len="24" pan="0" vol="100" pos="348" key="2"/>
          <note len="24" pan="0" vol="100" pos="360" key="62"/>
        </pattern>
        <pattern type="1" name="lgtH1" steps="16" pos="45696" muted="0">
          <note len="24" pan="0" vol="100" pos="0" key="59"/>
          <note len="24" pan="0" vol="100" pos="0" key="1"/>
          <note len="24" pan="0" vol="100" pos="24" key="59"/>
          <note len="24" pan="0" vol="100" pos="36" key="0"/>
          <note len="24" pan="0" vol="100" pos="48" key="62"/>
          <note len="24" pan="0" vol="100" pos="72" key="59"/>
          <note len="24" pan="0" vol="100" pos="72" key="1"/>
          <note len="24" pan="0" vol="100" pos="96" key="59"/>
          <note len="24" pan="0" vol="100" pos="108" key="0"/>
          <note len="24" pan="0" vol="100" pos="120" key="61"/>
          <note len="24" pan="0" vol="100" pos="132" key="1"/>
          <note len="24" pan="0" vol="100" pos="144" key="59"/>
          <note len="24" pan="0" vol="100" pos="168" key="59"/>
          <note len="24" pan="0" vol="100" pos="180" key="0"/>
          <note len="24" pan="0" vol="100" pos="192" key="64"/>
          <note len="24" pan="0" vol="100" pos="204" key="1"/>
          <note len="24" pan="0" vol="100" pos="216" key="59"/>
          <note len="24" pan="0" vol="100" pos="240" key="59"/>
          <note len="24" pan="0" vol="100" pos="252" key="0"/>
          <note len="24" pan="0" vol="100" pos="264" key="62"/>
          <note len="24" pan="0" vol="100" pos="276" key="1"/>
          <note len="24" pan="0" vol="100" pos="288" key="59"/>
          <note len="24" pan="0" vol="100" pos="312" key="59"/>
          <note len="24" pan="0" vol="100" pos="324" key="0"/>
          <note len="24" pan="0" vol="100" pos="336" key="61"/>
          <note len="24" pan="0" vol="100" pos="348" key="2"/>
          <note len="24" pan="0" vol="100" pos="360" key="62"/>
        </pattern>
        <pattern type="1" name="lgtH1" steps="16" pos="46080" muted="0">
          <note len="384" pan="0" vol="195" pos="0" key="59"/>
          <note len="384" pan="0" vol="195" pos="0" key="0"/>
        </pattern>
        <pattern type="1" name="lgtH1" steps="16" pos="26880" muted="0">
          <note len="72" pan="0" vol="100" pos="0" key="62"/>
          <note len="72" pan="0" vol="100" pos="72" key="62"/>
          <note len="48" pan="0" vol="100" pos="144" key="62"/>
          <note len="72" pan="0" vol="100" pos="192" key="64"/>
          <note len="72" pan="0" vol="100" pos="264" key="62"/>
          <note len="48" pan="0" vol="100" pos="336" key="64"/>
          <note len="144" pan="0" vol="100" pos="384" key="66"/>
          <note len="24" pan="0" vol="100" pos="528" key="64"/>
          <note len="24" pan="0" vol="100" pos="552" key="66"/>
          <note len="72" pan="0" vol="100" pos="576" key="67"/>
          <note len="72" pan="0" vol="100" pos="648" key="66"/>
          <note len="48" pan="0" vol="100" pos="720" key="67"/>
        </pattern>
        <pattern type="1" name="lgtH1" steps="16" pos="16896" muted="0">
          <note len="72" pan="0" vol="100" pos="0" key="62"/>
          <note len="72" pan="0" vol="100" pos="72" key="62"/>
          <note len="48" pan="0" vol="100" pos="144" key="62"/>
          <note len="72" pan="0" vol="100" pos="192" key="64"/>
          <note len="72" pan="0" vol="100" pos="264" key="62"/>
          <note len="48" pan="0" vol="100" pos="336" key="64"/>
          <note len="144" pan="0" vol="100" pos="384" key="66"/>
          <note len="24" pan="0" vol="100" pos="528" key="64"/>
          <note len="24" pan="0" vol="100" pos="552" key="66"/>
          <note len="72" pan="0" vol="100" pos="576" key="67"/>
          <note len="72" pan="0" vol="100" pos="648" key="66"/>
          <note len="48" pan="0" vol="100" pos="720" key="67"/>
        </pattern>
        <pattern type="1" name="" steps="16" pos="16128" muted="0">
          <note len="48" pan="0" vol="100" pos="0" key="0"/>
          <note len="48" pan="0" vol="100" pos="48" key="64"/>
          <note len="48" pan="0" vol="100" pos="96" key="64"/>
          <note len="48" pan="0" vol="100" pos="144" key="64"/>
          <note len="48" pan="0" vol="100" pos="192" key="64"/>
          <note len="24" pan="0" vol="100" pos="240" key="64"/>
          <note len="48" pan="0" vol="100" pos="264" key="66"/>
          <note len="24" pan="0" vol="100" pos="312" key="64"/>
          <note len="24" pan="0" vol="100" pos="336" key="62"/>
          <note len="24" pan="0" vol="100" pos="360" key="64"/>
          <note len="96" pan="0" vol="100" pos="384" key="66"/>
          <note len="24" pan="0" vol="100" pos="528" key="66"/>
          <note len="24" pan="0" vol="100" pos="552" key="67"/>
          <note len="72" pan="0" vol="100" pos="576" key="69"/>
          <note len="72" pan="0" vol="100" pos="648" key="67"/>
          <note len="48" pan="0" vol="100" pos="720" key="66"/>
        </pattern>
        <pattern type="1" name="" steps="16" pos="26112" muted="0">
          <note len="48" pan="0" vol="100" pos="48" key="64"/>
          <note len="48" pan="0" vol="100" pos="96" key="64"/>
          <note len="48" pan="0" vol="100" pos="144" key="64"/>
          <note len="48" pan="0" vol="100" pos="192" key="64"/>
          <note len="24" pan="0" vol="100" pos="240" key="64"/>
          <note len="48" pan="0" vol="100" pos="264" key="66"/>
          <note len="24" pan="0" vol="100" pos="312" key="64"/>
          <note len="24" pan="0" vol="100" pos="336" key="62"/>
          <note len="24" pan="0" vol="100" pos="360" key="64"/>
          <note len="96" pan="0" vol="100" pos="384" key="66"/>
          <note len="24" pan="0" vol="100" pos="528" key="66"/>
          <note len="24" pan="0" vol="100" pos="552" key="67"/>
          <note len="72" pan="0" vol="100" pos="576" key="69"/>
          <note len="72" pan="0" vol="100" pos="648" key="67"/>
          <note len="48" pan="0" vol="100" pos="720" key="66"/>
        </pattern>
        <pattern type="1" name="lgtH1" steps="16" pos="12288" muted="0">
          <note len="24" pan="0" vol="200" pos="0" key="66"/>
          <note len="24" pan="0" vol="200" pos="0" key="0"/>
          <note len="24" pan="0" vol="200" pos="12" key="2"/>
          <note len="24" pan="0" vol="200" pos="24" key="62"/>
          <note len="24" pan="0" vol="200" pos="36" key="0"/>
          <note len="24" pan="0" vol="200" pos="48" key="62"/>
          <note len="24" pan="0" vol="200" pos="72" key="64"/>
          <note len="24" pan="0" vol="200" pos="84" key="2"/>
          <note len="24" pan="0" vol="200" pos="96" key="62"/>
          <note len="24" pan="0" vol="200" pos="108" key="0"/>
          <note len="24" pan="0" vol="200" pos="120" key="62"/>
          <note len="24" pan="0" vol="200" pos="144" key="66"/>
          <note len="24" pan="0" vol="200" pos="156" key="2"/>
          <note len="24" pan="0" vol="200" pos="168" key="62"/>
          <note len="24" pan="0" vol="200" pos="180" key="0"/>
          <note len="24" pan="0" vol="200" pos="192" key="67"/>
          <note len="12" pan="0" vol="200" pos="204" key="2"/>
          <note len="24" pan="0" vol="200" pos="216" key="62"/>
          <note len="12" pan="0" vol="200" pos="228" key="0"/>
          <note len="24" pan="0" vol="200" pos="240" key="62"/>
          <note len="24" pan="0" vol="200" pos="264" key="66"/>
          <note len="12" pan="0" vol="200" pos="276" key="2"/>
          <note len="24" pan="0" vol="200" pos="288" key="62"/>
          <note len="12" pan="0" vol="200" pos="300" key="0"/>
          <note len="24" pan="0" vol="200" pos="312" key="62"/>
          <note len="24" pan="0" vol="200" pos="336" key="64"/>
          <note len="12" pan="0" vol="200" pos="348" key="2"/>
          <note len="24" pan="0" vol="200" pos="360" key="62"/>
          <note len="12" pan="0" vol="200" pos="372" key="0"/>
        </pattern>
        <pattern type="1" name="" steps="16" pos="12672" muted="0">
          <note len="24" pan="0" vol="200" pos="0" key="66"/>
          <note len="24" pan="0" vol="200" pos="0" key="0"/>
          <note len="24" pan="0" vol="200" pos="12" key="2"/>
          <note len="24" pan="0" vol="200" pos="24" key="62"/>
          <note len="24" pan="0" vol="200" pos="36" key="0"/>
          <note len="24" pan="0" vol="200" pos="48" key="62"/>
          <note len="24" pan="0" vol="200" pos="72" key="64"/>
          <note len="24" pan="0" vol="200" pos="84" key="2"/>
          <note len="24" pan="0" vol="200" pos="96" key="62"/>
          <note len="24" pan="0" vol="200" pos="108" key="0"/>
          <note len="24" pan="0" vol="200" pos="120" key="62"/>
          <note len="24" pan="0" vol="200" pos="144" key="66"/>
          <note len="24" pan="0" vol="200" pos="156" key="2"/>
          <note len="24" pan="0" vol="200" pos="168" key="62"/>
          <note len="24" pan="0" vol="200" pos="180" key="0"/>
          <note len="24" pan="0" vol="200" pos="192" key="67"/>
          <note len="12" pan="0" vol="200" pos="204" key="2"/>
          <note len="24" pan="0" vol="200" pos="216" key="62"/>
          <note len="12" pan="0" vol="200" pos="228" key="0"/>
          <note len="24" pan="0" vol="200" pos="240" key="62"/>
          <note len="24" pan="0" vol="200" pos="264" key="66"/>
          <note len="12" pan="0" vol="200" pos="276" key="2"/>
          <note len="24" pan="0" vol="200" pos="288" key="62"/>
          <note len="12" pan="0" vol="200" pos="300" key="0"/>
          <note len="24" pan="0" vol="200" pos="312" key="62"/>
          <note len="24" pan="0" vol="200" pos="336" key="64"/>
          <note len="12" pan="0" vol="200" pos="348" key="2"/>
          <note len="24" pan="0" vol="200" pos="360" key="62"/>
          <note len="12" pan="0" vol="200" pos="372" key="0"/>
        </pattern>
        <pattern type="1" name="" steps="16" pos="13056" muted="0">
          <note len="24" pan="0" vol="200" pos="0" key="66"/>
          <note len="24" pan="0" vol="200" pos="0" key="0"/>
          <note len="24" pan="0" vol="200" pos="12" key="2"/>
          <note len="24" pan="0" vol="200" pos="24" key="62"/>
          <note len="24" pan="0" vol="200" pos="36" key="0"/>
          <note len="24" pan="0" vol="200" pos="48" key="62"/>
          <note len="24" pan="0" vol="200" pos="72" key="64"/>
          <note len="24" pan="0" vol="200" pos="84" key="2"/>
          <note len="24" pan="0" vol="200" pos="96" key="62"/>
          <note len="24" pan="0" vol="200" pos="108" key="0"/>
          <note len="24" pan="0" vol="200" pos="120" key="62"/>
          <note len="24" pan="0" vol="200" pos="144" key="66"/>
          <note len="24" pan="0" vol="200" pos="156" key="2"/>
          <note len="24" pan="0" vol="200" pos="168" key="62"/>
          <note len="24" pan="0" vol="200" pos="180" key="0"/>
          <note len="24" pan="0" vol="200" pos="192" key="67"/>
          <note len="12" pan="0" vol="200" pos="204" key="2"/>
          <note len="24" pan="0" vol="200" pos="216" key="62"/>
          <note len="12" pan="0" vol="200" pos="228" key="0"/>
          <note len="24" pan="0" vol="200" pos="240" key="62"/>
          <note len="24" pan="0" vol="200" pos="264" key="66"/>
          <note len="12" pan="0" vol="200" pos="276" key="2"/>
          <note len="24" pan="0" vol="200" pos="288" key="62"/>
          <note len="12" pan="0" vol="200" pos="300" key="0"/>
          <note len="24" pan="0" vol="200" pos="312" key="62"/>
          <note len="24" pan="0" vol="200" pos="336" key="64"/>
          <note len="12" pan="0" vol="200" pos="348" key="2"/>
          <note len="24" pan="0" vol="200" pos="360" key="62"/>
          <note len="12" pan="0" vol="200" pos="372" key="0"/>
        </pattern>
        <pattern type="1" name="" steps="16" pos="13440" muted="0">
          <note len="24" pan="0" vol="200" pos="0" key="66"/>
          <note len="24" pan="0" vol="200" pos="0" key="0"/>
          <note len="24" pan="0" vol="200" pos="12" key="2"/>
          <note len="24" pan="0" vol="200" pos="24" key="62"/>
          <note len="24" pan="0" vol="200" pos="36" key="0"/>
          <note len="24" pan="0" vol="200" pos="48" key="62"/>
          <note len="24" pan="0" vol="200" pos="72" key="64"/>
          <note len="24" pan="0" vol="200" pos="84" key="2"/>
          <note len="24" pan="0" vol="200" pos="96" key="62"/>
          <note len="24" pan="0" vol="200" pos="108" key="0"/>
          <note len="24" pan="0" vol="200" pos="120" key="62"/>
          <note len="24" pan="0" vol="200" pos="144" key="66"/>
          <note len="24" pan="0" vol="200" pos="156" key="2"/>
          <note len="24" pan="0" vol="200" pos="168" key="62"/>
          <note len="24" pan="0" vol="200" pos="180" key="0"/>
          <note len="72" pan="0" vol="200" pos="192" key="67"/>
          <note len="72" pan="0" vol="200" pos="264" key="66"/>
          <note len="48" pan="0" vol="200" pos="336" key="64"/>
        </pattern>
        <pattern type="1" name="" steps="16" pos="13824" muted="0">
          <note len="24" pan="0" vol="200" pos="0" key="66"/>
          <note len="24" pan="0" vol="200" pos="0" key="0"/>
          <note len="24" pan="0" vol="200" pos="12" key="2"/>
          <note len="24" pan="0" vol="200" pos="24" key="62"/>
          <note len="24" pan="0" vol="200" pos="36" key="0"/>
          <note len="24" pan="0" vol="200" pos="48" key="62"/>
          <note len="24" pan="0" vol="200" pos="72" key="64"/>
          <note len="24" pan="0" vol="200" pos="84" key="2"/>
          <note len="24" pan="0" vol="200" pos="96" key="62"/>
          <note len="24" pan="0" vol="200" pos="108" key="0"/>
          <note len="24" pan="0" vol="200" pos="120" key="62"/>
          <note len="24" pan="0" vol="200" pos="144" key="66"/>
          <note len="24" pan="0" vol="200" pos="156" key="2"/>
          <note len="24" pan="0" vol="200" pos="168" key="62"/>
          <note len="24" pan="0" vol="200" pos="180" key="0"/>
          <note len="24" pan="0" vol="200" pos="192" key="67"/>
          <note len="12" pan="0" vol="200" pos="204" key="2"/>
          <note len="24" pan="0" vol="200" pos="216" key="62"/>
          <note len="12" pan="0" vol="200" pos="228" key="0"/>
          <note len="24" pan="0" vol="200" pos="240" key="62"/>
          <note len="24" pan="0" vol="200" pos="264" key="66"/>
          <note len="12" pan="0" vol="200" pos="276" key="2"/>
          <note len="24" pan="0" vol="200" pos="288" key="62"/>
          <note len="12" pan="0" vol="200" pos="300" key="0"/>
          <note len="24" pan="0" vol="200" pos="312" key="62"/>
          <note len="24" pan="0" vol="200" pos="336" key="64"/>
          <note len="12" pan="0" vol="200" pos="348" key="2"/>
          <note len="24" pan="0" vol="200" pos="360" key="62"/>
          <note len="12" pan="0" vol="200" pos="372" key="0"/>
        </pattern>
        <pattern type="1" name="" steps="16" pos="14208" muted="0">
          <note len="24" pan="0" vol="200" pos="0" key="66"/>
          <note len="24" pan="0" vol="200" pos="0" key="0"/>
          <note len="24" pan="0" vol="200" pos="12" key="2"/>
          <note len="24" pan="0" vol="200" pos="24" key="62"/>
          <note len="24" pan="0" vol="200" pos="36" key="0"/>
          <note len="24" pan="0" vol="200" pos="48" key="62"/>
          <note len="24" pan="0" vol="200" pos="72" key="64"/>
          <note len="24" pan="0" vol="200" pos="84" key="2"/>
          <note len="24" pan="0" vol="200" pos="96" key="62"/>
          <note len="24" pan="0" vol="200" pos="108" key="0"/>
          <note len="24" pan="0" vol="200" pos="120" key="62"/>
          <note len="24" pan="0" vol="200" pos="144" key="66"/>
          <note len="24" pan="0" vol="200" pos="156" key="2"/>
          <note len="24" pan="0" vol="200" pos="168" key="62"/>
          <note len="24" pan="0" vol="200" pos="180" key="0"/>
          <note len="24" pan="0" vol="200" pos="192" key="67"/>
          <note len="12" pan="0" vol="200" pos="204" key="2"/>
          <note len="24" pan="0" vol="200" pos="216" key="62"/>
          <note len="12" pan="0" vol="200" pos="228" key="0"/>
          <note len="24" pan="0" vol="200" pos="240" key="62"/>
          <note len="24" pan="0" vol="200" pos="264" key="66"/>
          <note len="12" pan="0" vol="200" pos="276" key="2"/>
          <note len="24" pan="0" vol="200" pos="288" key="62"/>
          <note len="12" pan="0" vol="200" pos="300" key="0"/>
          <note len="24" pan="0" vol="200" pos="312" key="62"/>
          <note len="24" pan="0" vol="200" pos="336" key="64"/>
          <note len="12" pan="0" vol="200" pos="348" key="2"/>
          <note len="24" pan="0" vol="200" pos="360" key="62"/>
          <note len="12" pan="0" vol="200" pos="372" key="0"/>
        </pattern>
        <pattern type="1" name="" steps="16" pos="14592" muted="0">
          <note len="24" pan="0" vol="200" pos="0" key="66"/>
          <note len="24" pan="0" vol="200" pos="0" key="0"/>
          <note len="24" pan="0" vol="200" pos="12" key="2"/>
          <note len="24" pan="0" vol="200" pos="24" key="62"/>
          <note len="24" pan="0" vol="200" pos="36" key="0"/>
          <note len="24" pan="0" vol="200" pos="48" key="62"/>
          <note len="24" pan="0" vol="200" pos="72" key="64"/>
          <note len="24" pan="0" vol="200" pos="84" key="2"/>
          <note len="24" pan="0" vol="200" pos="96" key="62"/>
          <note len="24" pan="0" vol="200" pos="108" key="0"/>
          <note len="24" pan="0" vol="200" pos="120" key="62"/>
          <note len="24" pan="0" vol="200" pos="144" key="66"/>
          <note len="24" pan="0" vol="200" pos="156" key="2"/>
          <note len="24" pan="0" vol="200" pos="168" key="62"/>
          <note len="24" pan="0" vol="200" pos="180" key="0"/>
          <note len="24" pan="0" vol="200" pos="192" key="67"/>
          <note len="12" pan="0" vol="200" pos="204" key="2"/>
          <note len="24" pan="0" vol="200" pos="216" key="62"/>
          <note len="12" pan="0" vol="200" pos="228" key="0"/>
          <note len="24" pan="0" vol="200" pos="240" key="62"/>
          <note len="24" pan="0" vol="200" pos="264" key="66"/>
          <note len="12" pan="0" vol="200" pos="276" key="2"/>
          <note len="24" pan="0" vol="200" pos="288" key="62"/>
          <note len="12" pan="0" vol="200" pos="300" key="0"/>
          <note len="24" pan="0" vol="200" pos="312" key="62"/>
          <note len="24" pan="0" vol="200" pos="336" key="64"/>
          <note len="12" pan="0" vol="200" pos="348" key="2"/>
          <note len="24" pan="0" vol="200" pos="360" key="62"/>
          <note len="12" pan="0" vol="200" pos="372" key="0"/>
        </pattern>
        <pattern type="1" name="" steps="16" pos="14976" muted="0">
          <note len="24" pan="0" vol="200" pos="0" key="66"/>
          <note len="24" pan="0" vol="200" pos="0" key="0"/>
          <note len="24" pan="0" vol="200" pos="12" key="2"/>
          <note len="24" pan="0" vol="200" pos="24" key="62"/>
          <note len="24" pan="0" vol="200" pos="36" key="0"/>
          <note len="24" pan="0" vol="200" pos="48" key="62"/>
          <note len="24" pan="0" vol="200" pos="72" key="64"/>
          <note len="24" pan="0" vol="200" pos="84" key="2"/>
          <note len="24" pan="0" vol="200" pos="96" key="62"/>
          <note len="24" pan="0" vol="200" pos="108" key="0"/>
          <note len="24" pan="0" vol="200" pos="120" key="62"/>
          <note len="24" pan="0" vol="200" pos="144" key="66"/>
          <note len="24" pan="0" vol="200" pos="156" key="2"/>
          <note len="24" pan="0" vol="200" pos="168" key="62"/>
          <note len="24" pan="0" vol="200" pos="180" key="0"/>
          <note len="72" pan="0" vol="200" pos="192" key="64"/>
          <note len="72" pan="0" vol="200" pos="264" key="66"/>
          <note len="48" pan="0" vol="200" pos="336" key="64"/>
        </pattern>
        <pattern type="1" name="" steps="16" pos="15360" muted="0">
          <note len="72" pan="0" vol="100" pos="0" key="66"/>
          <note len="48" pan="0" vol="100" pos="0" key="0"/>
          <note len="72" pan="0" vol="100" pos="72" key="64"/>
          <note len="48" pan="0" vol="100" pos="144" key="66"/>
          <note len="72" pan="0" vol="100" pos="192" key="66"/>
          <note len="72" pan="0" vol="100" pos="264" key="64"/>
          <note len="48" pan="0" vol="100" pos="336" key="66"/>
          <note len="72" pan="0" vol="100" pos="384" key="67"/>
          <note len="72" pan="0" vol="100" pos="456" key="66"/>
          <note len="48" pan="0" vol="100" pos="528" key="64"/>
          <note len="72" pan="0" vol="100" pos="576" key="66"/>
          <note len="72" pan="0" vol="100" pos="648" key="64"/>
          <note len="48" pan="0" vol="100" pos="720" key="62"/>
        </pattern>
        <pattern type="1" name="" steps="16" pos="17664" muted="0">
          <note len="72" pan="0" vol="100" pos="0" key="69"/>
          <note len="72" pan="0" vol="100" pos="72" key="67"/>
          <note len="48" pan="0" vol="100" pos="144" key="66"/>
          <note len="72" pan="0" vol="100" pos="192" key="69"/>
          <note len="72" pan="0" vol="100" pos="264" key="67"/>
          <note len="48" pan="0" vol="100" pos="336" key="66"/>
          <note len="24" pan="0" vol="100" pos="384" key="66"/>
          <note len="168" pan="0" vol="100" pos="408" key="64"/>
        </pattern>
        <pattern type="1" name="" steps="16" pos="22272" muted="0">
          <note len="24" pan="0" vol="200" pos="0" key="66"/>
          <note len="24" pan="0" vol="200" pos="0" key="0"/>
          <note len="24" pan="0" vol="200" pos="12" key="2"/>
          <note len="24" pan="0" vol="200" pos="24" key="62"/>
          <note len="24" pan="0" vol="200" pos="36" key="0"/>
          <note len="24" pan="0" vol="200" pos="48" key="62"/>
          <note len="24" pan="0" vol="200" pos="72" key="64"/>
          <note len="24" pan="0" vol="200" pos="84" key="2"/>
          <note len="24" pan="0" vol="200" pos="96" key="62"/>
          <note len="24" pan="0" vol="200" pos="108" key="0"/>
          <note len="24" pan="0" vol="200" pos="120" key="62"/>
          <note len="24" pan="0" vol="200" pos="144" key="66"/>
          <note len="24" pan="0" vol="200" pos="156" key="2"/>
          <note len="24" pan="0" vol="200" pos="168" key="62"/>
          <note len="24" pan="0" vol="200" pos="180" key="0"/>
          <note len="24" pan="0" vol="200" pos="192" key="67"/>
          <note len="12" pan="0" vol="200" pos="204" key="2"/>
          <note len="24" pan="0" vol="200" pos="216" key="62"/>
          <note len="12" pan="0" vol="200" pos="228" key="0"/>
          <note len="24" pan="0" vol="200" pos="240" key="62"/>
          <note len="24" pan="0" vol="200" pos="264" key="66"/>
          <note len="12" pan="0" vol="200" pos="276" key="2"/>
          <note len="24" pan="0" vol="200" pos="288" key="62"/>
          <note len="12" pan="0" vol="200" pos="300" key="0"/>
          <note len="24" pan="0" vol="200" pos="312" key="62"/>
          <note len="24" pan="0" vol="200" pos="336" key="64"/>
          <note len="12" pan="0" vol="200" pos="348" key="2"/>
          <note len="24" pan="0" vol="200" pos="360" key="62"/>
          <note len="12" pan="0" vol="200" pos="372" key="0"/>
        </pattern>
        <pattern type="1" name="" steps="16" pos="22656" muted="0">
          <note len="24" pan="0" vol="200" pos="0" key="66"/>
          <note len="24" pan="0" vol="200" pos="0" key="0"/>
          <note len="24" pan="0" vol="200" pos="12" key="2"/>
          <note len="24" pan="0" vol="200" pos="24" key="62"/>
          <note len="24" pan="0" vol="200" pos="36" key="0"/>
          <note len="24" pan="0" vol="200" pos="48" key="62"/>
          <note len="24" pan="0" vol="200" pos="72" key="64"/>
          <note len="24" pan="0" vol="200" pos="84" key="2"/>
          <note len="24" pan="0" vol="200" pos="96" key="62"/>
          <note len="24" pan="0" vol="200" pos="108" key="0"/>
          <note len="24" pan="0" vol="200" pos="120" key="62"/>
          <note len="24" pan="0" vol="200" pos="144" key="66"/>
          <note len="24" pan="0" vol="200" pos="156" key="2"/>
          <note len="24" pan="0" vol="200" pos="168" key="62"/>
          <note len="24" pan="0" vol="200" pos="180" key="0"/>
          <note len="24" pan="0" vol="200" pos="192" key="67"/>
          <note len="12" pan="0" vol="200" pos="204" key="2"/>
          <note len="24" pan="0" vol="200" pos="216" key="62"/>
          <note len="12" pan="0" vol="200" pos="228" key="0"/>
          <note len="24" pan="0" vol="200" pos="240" key="62"/>
          <note len="24" pan="0" vol="200" pos="264" key="66"/>
          <note len="12" pan="0" vol="200" pos="276" key="2"/>
          <note len="24" pan="0" vol="200" pos="288" key="62"/>
          <note len="12" pan="0" vol="200" pos="300" key="0"/>
          <note len="24" pan="0" vol="200" pos="312" key="62"/>
          <note len="24" pan="0" vol="200" pos="336" key="64"/>
          <note len="12" pan="0" vol="200" pos="348" key="2"/>
          <note len="24" pan="0" vol="200" pos="360" key="62"/>
          <note len="12" pan="0" vol="200" pos="372" key="0"/>
        </pattern>
        <pattern type="1" name="" steps="16" pos="23040" muted="0">
          <note len="24" pan="0" vol="200" pos="0" key="66"/>
          <note len="24" pan="0" vol="200" pos="0" key="0"/>
          <note len="24" pan="0" vol="200" pos="12" key="2"/>
          <note len="24" pan="0" vol="200" pos="24" key="62"/>
          <note len="24" pan="0" vol="200" pos="36" key="0"/>
          <note len="24" pan="0" vol="200" pos="48" key="62"/>
          <note len="24" pan="0" vol="200" pos="72" key="64"/>
          <note len="24" pan="0" vol="200" pos="84" key="2"/>
          <note len="24" pan="0" vol="200" pos="96" key="62"/>
          <note len="24" pan="0" vol="200" pos="108" key="0"/>
          <note len="24" pan="0" vol="200" pos="120" key="62"/>
          <note len="24" pan="0" vol="200" pos="144" key="66"/>
          <note len="24" pan="0" vol="200" pos="156" key="2"/>
          <note len="24" pan="0" vol="200" pos="168" key="62"/>
          <note len="24" pan="0" vol="200" pos="180" key="0"/>
          <note len="24" pan="0" vol="200" pos="192" key="67"/>
          <note len="12" pan="0" vol="200" pos="204" key="2"/>
          <note len="24" pan="0" vol="200" pos="216" key="62"/>
          <note len="12" pan="0" vol="200" pos="228" key="0"/>
          <note len="24" pan="0" vol="200" pos="240" key="62"/>
          <note len="24" pan="0" vol="200" pos="264" key="66"/>
          <note len="12" pan="0" vol="200" pos="276" key="2"/>
          <note len="24" pan="0" vol="200" pos="288" key="62"/>
          <note len="12" pan="0" vol="200" pos="300" key="0"/>
          <note len="24" pan="0" vol="200" pos="312" key="62"/>
          <note len="24" pan="0" vol="200" pos="336" key="64"/>
          <note len="12" pan="0" vol="200" pos="348" key="2"/>
          <note len="24" pan="0" vol="200" pos="360" key="62"/>
          <note len="12" pan="0" vol="200" pos="372" key="0"/>
        </pattern>
        <pattern type="1" name="" steps="16" pos="23424" muted="0">
          <note len="24" pan="0" vol="200" pos="0" key="66"/>
          <note len="24" pan="0" vol="200" pos="0" key="0"/>
          <note len="24" pan="0" vol="200" pos="12" key="2"/>
          <note len="24" pan="0" vol="200" pos="24" key="62"/>
          <note len="24" pan="0" vol="200" pos="36" key="0"/>
          <note len="24" pan="0" vol="200" pos="48" key="62"/>
          <note len="24" pan="0" vol="200" pos="72" key="64"/>
          <note len="24" pan="0" vol="200" pos="84" key="2"/>
          <note len="24" pan="0" vol="200" pos="96" key="62"/>
          <note len="24" pan="0" vol="200" pos="108" key="0"/>
          <note len="24" pan="0" vol="200" pos="120" key="62"/>
          <note len="24" pan="0" vol="200" pos="144" key="66"/>
          <note len="24" pan="0" vol="200" pos="156" key="2"/>
          <note len="24" pan="0" vol="200" pos="168" key="62"/>
          <note len="24" pan="0" vol="200" pos="180" key="0"/>
          <note len="72" pan="0" vol="200" pos="192" key="67"/>
          <note len="72" pan="0" vol="200" pos="264" key="66"/>
          <note len="48" pan="0" vol="200" pos="336" key="64"/>
        </pattern>
        <pattern type="1" name="" steps="16" pos="23808" muted="0">
          <note len="24" pan="0" vol="200" pos="0" key="66"/>
          <note len="24" pan="0" vol="200" pos="0" key="0"/>
          <note len="24" pan="0" vol="200" pos="12" key="2"/>
          <note len="24" pan="0" vol="200" pos="24" key="62"/>
          <note len="24" pan="0" vol="200" pos="36" key="0"/>
          <note len="24" pan="0" vol="200" pos="48" key="62"/>
          <note len="24" pan="0" vol="200" pos="72" key="64"/>
          <note len="24" pan="0" vol="200" pos="84" key="2"/>
          <note len="24" pan="0" vol="200" pos="96" key="62"/>
          <note len="24" pan="0" vol="200" pos="108" key="0"/>
          <note len="24" pan="0" vol="200" pos="120" key="62"/>
          <note len="24" pan="0" vol="200" pos="144" key="66"/>
          <note len="24" pan="0" vol="200" pos="156" key="2"/>
          <note len="24" pan="0" vol="200" pos="168" key="62"/>
          <note len="24" pan="0" vol="200" pos="180" key="0"/>
          <note len="24" pan="0" vol="200" pos="192" key="67"/>
          <note len="12" pan="0" vol="200" pos="204" key="2"/>
          <note len="24" pan="0" vol="200" pos="216" key="62"/>
          <note len="12" pan="0" vol="200" pos="228" key="0"/>
          <note len="24" pan="0" vol="200" pos="240" key="62"/>
          <note len="24" pan="0" vol="200" pos="264" key="66"/>
          <note len="12" pan="0" vol="200" pos="276" key="2"/>
          <note len="24" pan="0" vol="200" pos="288" key="62"/>
          <note len="12" pan="0" vol="200" pos="300" key="0"/>
          <note len="24" pan="0" vol="200" pos="312" key="62"/>
          <note len="24" pan="0" vol="200" pos="336" key="64"/>
          <note len="12" pan="0" vol="200" pos="348" key="2"/>
          <note len="24" pan="0" vol="200" pos="360" key="62"/>
          <note len="12" pan="0" vol="200" pos="372" key="0"/>
        </pattern>
        <pattern type="1" name="" steps="16" pos="24192" muted="0">
          <note len="24" pan="0" vol="200" pos="0" key="66"/>
          <note len="24" pan="0" vol="200" pos="0" key="0"/>
          <note len="24" pan="0" vol="200" pos="12" key="2"/>
          <note len="24" pan="0" vol="200" pos="24" key="62"/>
          <note len="24" pan="0" vol="200" pos="36" key="0"/>
          <note len="24" pan="0" vol="200" pos="48" key="62"/>
          <note len="24" pan="0" vol="200" pos="72" key="64"/>
          <note len="24" pan="0" vol="200" pos="84" key="2"/>
          <note len="24" pan="0" vol="200" pos="96" key="62"/>
          <note len="24" pan="0" vol="200" pos="108" key="0"/>
          <note len="24" pan="0" vol="200" pos="120" key="62"/>
          <note len="24" pan="0" vol="200" pos="144" key="66"/>
          <note len="24" pan="0" vol="200" pos="156" key="2"/>
          <note len="24" pan="0" vol="200" pos="168" key="62"/>
          <note len="24" pan="0" vol="200" pos="180" key="0"/>
          <note len="24" pan="0" vol="200" pos="192" key="67"/>
          <note len="12" pan="0" vol="200" pos="204" key="2"/>
          <note len="24" pan="0" vol="200" pos="216" key="62"/>
          <note len="12" pan="0" vol="200" pos="228" key="0"/>
          <note len="24" pan="0" vol="200" pos="240" key="62"/>
          <note len="24" pan="0" vol="200" pos="264" key="66"/>
          <note len="12" pan="0" vol="200" pos="276" key="2"/>
          <note len="24" pan="0" vol="200" pos="288" key="62"/>
          <note len="12" pan="0" vol="200" pos="300" key="0"/>
          <note len="24" pan="0" vol="200" pos="312" key="62"/>
          <note len="24" pan="0" vol="200" pos="336" key="64"/>
          <note len="12" pan="0" vol="200" pos="348" key="2"/>
          <note len="24" pan="0" vol="200" pos="360" key="62"/>
          <note len="12" pan="0" vol="200" pos="372" key="0"/>
        </pattern>
        <pattern type="1" name="" steps="16" pos="24576" muted="0">
          <note len="24" pan="0" vol="200" pos="0" key="66"/>
          <note len="24" pan="0" vol="200" pos="0" key="0"/>
          <note len="24" pan="0" vol="200" pos="12" key="2"/>
          <note len="24" pan="0" vol="200" pos="24" key="62"/>
          <note len="24" pan="0" vol="200" pos="36" key="0"/>
          <note len="24" pan="0" vol="200" pos="48" key="62"/>
          <note len="24" pan="0" vol="200" pos="72" key="64"/>
          <note len="24" pan="0" vol="200" pos="84" key="2"/>
          <note len="24" pan="0" vol="200" pos="96" key="62"/>
          <note len="24" pan="0" vol="200" pos="108" key="0"/>
          <note len="24" pan="0" vol="200" pos="120" key="62"/>
          <note len="24" pan="0" vol="200" pos="144" key="66"/>
          <note len="24" pan="0" vol="200" pos="156" key="2"/>
          <note len="24" pan="0" vol="200" pos="168" key="62"/>
          <note len="24" pan="0" vol="200" pos="180" key="0"/>
          <note len="24" pan="0" vol="200" pos="192" key="67"/>
          <note len="12" pan="0" vol="200" pos="204" key="2"/>
          <note len="24" pan="0" vol="200" pos="216" key="62"/>
          <note len="12" pan="0" vol="200" pos="228" key="0"/>
          <note len="24" pan="0" vol="200" pos="240" key="62"/>
          <note len="24" pan="0" vol="200" pos="264" key="66"/>
          <note len="12" pan="0" vol="200" pos="276" key="2"/>
          <note len="24" pan="0" vol="200" pos="288" key="62"/>
          <note len="12" pan="0" vol="200" pos="300" key="0"/>
          <note len="24" pan="0" vol="200" pos="312" key="62"/>
          <note len="24" pan="0" vol="200" pos="336" key="64"/>
          <note len="12" pan="0" vol="200" pos="348" key="2"/>
          <note len="24" pan="0" vol="200" pos="360" key="62"/>
          <note len="12" pan="0" vol="200" pos="372" key="0"/>
        </pattern>
        <pattern type="1" name="" steps="16" pos="24960" muted="0">
          <note len="24" pan="0" vol="200" pos="0" key="66"/>
          <note len="24" pan="0" vol="200" pos="0" key="0"/>
          <note len="24" pan="0" vol="200" pos="12" key="2"/>
          <note len="24" pan="0" vol="200" pos="24" key="62"/>
          <note len="24" pan="0" vol="200" pos="36" key="0"/>
          <note len="24" pan="0" vol="200" pos="48" key="62"/>
          <note len="24" pan="0" vol="200" pos="72" key="64"/>
          <note len="24" pan="0" vol="200" pos="84" key="2"/>
          <note len="24" pan="0" vol="200" pos="96" key="62"/>
          <note len="24" pan="0" vol="200" pos="108" key="0"/>
          <note len="24" pan="0" vol="200" pos="120" key="62"/>
          <note len="24" pan="0" vol="200" pos="144" key="66"/>
          <note len="24" pan="0" vol="200" pos="156" key="2"/>
          <note len="24" pan="0" vol="200" pos="168" key="62"/>
          <note len="24" pan="0" vol="200" pos="180" key="0"/>
          <note len="72" pan="0" vol="200" pos="192" key="64"/>
          <note len="72" pan="0" vol="200" pos="264" key="66"/>
          <note len="48" pan="0" vol="200" pos="336" key="64"/>
        </pattern>
        <pattern type="0" name="lgtH1" steps="16" pos="5952" muted="0"/>
        <pattern type="0" name="lgtH1" steps="16" pos="46656" muted="0"/>
      </track>
      <track type="0" name="lgtH2" muted="1" solo="0">
        <instrumenttrack pitch="0" usemasterpitch="1" pitchrange="1" pan="100" fxch="12" vol="200" basenote="57">
          <instrument name="carlapatchbay">
            <carlapatchbay>
              <CARLA-PROJECT VERSION="2.2">
                <EngineSettings>
                  <ForceStereo>false</ForceStereo>
                  <PreferPluginBridges>false</PreferPluginBridges>
                  <PreferUiBridges>true</PreferUiBridges>
                  <UIsAlwaysOnTop>false</UIsAlwaysOnTop>
                  <MaxParameters>200</MaxParameters>
                  <UIBridgesTimeout>4000</UIBridgesTimeout>
                  <LADSPA_PATH>/home/pass/.ladspa:/usr/lib/ladspa:/usr/local/lib/ladspa</LADSPA_PATH>
                  <DSSI_PATH>/home/pass/.dssi:/usr/lib/dssi:/usr/local/lib/dssi</DSSI_PATH>
                  <LV2_PATH>/home/pass/.lv2:/usr/lib/lv2:/usr/local/lib/lv2</LV2_PATH>
                  <VST2_PATH>/home/pass/.vst:/home/pass/.wine/drive_c/Program Files (x86)/VstPlugins:/home/pass/.wine/drive_c/Program Files/VstPlugins:/usr/lib/lxvst:/usr/lib/vst:/usr/local/lib/lxvst:/usr/local/lib/vst/home/pass/.lxvst:/home/pass/vst</VST2_PATH>
                  <VST3_PATH>/home/pass/.vst3:/home/pass/.wine/drive_c/Program Files (x86)/Common Files/VST3:/home/pass/.wine/drive_c/Program Files/Common Files/VST3:/usr/lib/vst3:/usr/local/lib/vst3</VST3_PATH>
                  <SF2_PATH>/home/pass/.sounds/sf2/home/pass/.sounds/sf3:/usr/share/soundfonts:/usr/share/sounds/sf2:/usr/share/sounds/sf3</SF2_PATH>
                  <SFZ_PATH>/home/pass/.sounds/sfz:/home/pass/samples:/usr/share/sounds/sfz</SFZ_PATH>
                </EngineSettings>
                <!-- sfizz -->
                <Plugin>
                  <Info>
                    <Type>LV2</Type>
                    <Name>sfizz</Name>
                    <URI>http://sfztools.github.io/sfizz</URI>
                  </Info>
                  <Data>
                    <Active>Yes</Active>
                    <ControlChannel>1</ControlChannel>
                    <Options>0x3f0</Options>
                    <Parameter>
                      <Index>0</Index>
                      <Name>Volume</Name>
                      <Symbol>volume</Symbol>
                      <Value>0</Value>
                    </Parameter>
                    <Parameter>
                      <Index>1</Index>
                      <Name>Polyphony</Name>
                      <Symbol>num_voices</Symbol>
                      <Value>64</Value>
                    </Parameter>
                    <Parameter>
                      <Index>2</Index>
                      <Name>Internal oversampling factor</Name>
                      <Symbol>oversampling</Symbol>
                      <Value>1</Value>
                    </Parameter>
                    <Parameter>
                      <Index>3</Index>
                      <Name>Preload size</Name>
                      <Symbol>preload_size</Symbol>
                      <Value>8192</Value>
                    </Parameter>
                    <CustomData>
                      <Type>http://lv2plug.in/ns/ext/atom#Path</Type>
                      <Key>http://sfztools.github.io/sfizz:sfzfile</Key>
                      <Value>/home/pass/samples/fakeguitar/_fakeguitar2_integrated.sfz</Value>
                    </CustomData>
                    <CustomData>
                      <Type>http://lv2plug.in/ns/ext/atom#Int</Type>
                      <Key>http://sfztools.github.io/sfizz:numvoices</Key>
                      <Value>QAAAAA==</Value>
                    </CustomData>
                    <CustomData>
                      <Type>http://lv2plug.in/ns/ext/atom#Int</Type>
                      <Key>http://sfztools.github.io/sfizz:preload_size</Key>
                      <Value>ACAAAA==</Value>
                    </CustomData>
                    <CustomData>
                      <Type>http://lv2plug.in/ns/ext/atom#Int</Type>
                      <Key>http://sfztools.github.io/sfizz:oversampling</Key>
                      <Value>AQAAAA==</Value>
                    </CustomData>
                  </Data>
                </Plugin>
                <Patchbay>
                  <Connection>
                    <Source>Midi Input:Capture 1</Source>
                    <Target>sfizz:events-in</Target>
                  </Connection>
                  <Connection>
                    <Source>sfizz:Left Output</Source>
                    <Target>Audio Output:Left</Target>
                  </Connection>
                  <Connection>
                    <Source>sfizz:Right Output</Source>
                    <Target>Audio Output:Right</Target>
                  </Connection>
                  <Positions>
                    <Position x1="1693" y1="1353" pluginId="0">
                      <Name>sfizz</Name>
                    </Position>
                  </Positions>
                </Patchbay>
              </CARLA-PROJECT>
            </carlapatchbay>
          </instrument>
          <eldata fcut="14000" fres="0.5" fwet="0" ftype="0">
            <elvol sustain="0.5" lspd_denominator="4" rel="0.1" lspd_numerator="4" lspd_syncmode="0" x100="0" pdel="0" amt="0" userwavefile="" hold="0.5" dec="0.5" lspd="0.1" lamt="0" latt="0" lpdel="0" ctlenvamt="0" att="0" lshp="0"/>
            <elcut sustain="0.5" lspd_denominator="4" rel="0.1" lspd_numerator="4" lspd_syncmode="0" x100="0" pdel="0" amt="0" userwavefile="" hold="0.5" dec="0.5" lspd="0.1" lamt="0" latt="0" lpdel="0" ctlenvamt="0" att="0" lshp="0"/>
            <elres sustain="0.5" lspd_denominator="4" rel="0.1" lspd_numerator="4" lspd_syncmode="0" x100="0" pdel="0" amt="0" userwavefile="" hold="0.5" dec="0.5" lspd="0.1" lamt="0" latt="0" lpdel="0" ctlenvamt="0" att="0" lshp="0"/>
          </eldata>
          <chordcreator chordrange="1" chord="0" chord-enabled="0"/>
          <arpeggiator arpgate="100" arpskip="0" arp-enabled="0" arpmiss="0" arptime_denominator="4" arpdir="0" arpmode="0" arptime_numerator="4" arp="0" arptime="200" arprange="1" arpcycle="0" arptime_syncmode="0"/>
          <midiport fixedinputvelocity="-1" outputcontroller="0" inputchannel="0" outputchannel="1" basevelocity="63" fixedoutputnote="-1" inputcontroller="0" outputprogram="1" readable="0" writable="0" fixedoutputvelocity="-1"/>
          <fxchain numofeffects="0" enabled="0"/>
        </instrumenttrack>
        <pattern type="1" name="lgtH2" steps="16" pos="7680" muted="0">
          <note len="24" pan="0" vol="100" pos="0" key="62"/>
          <note len="24" pan="0" vol="100" pos="0" key="1"/>
          <note len="24" pan="0" vol="100" pos="24" key="62"/>
          <note len="24" pan="0" vol="100" pos="36" key="0"/>
          <note len="24" pan="0" vol="100" pos="48" key="66"/>
          <note len="24" pan="0" vol="100" pos="72" key="62"/>
          <note len="24" pan="0" vol="100" pos="72" key="1"/>
          <note len="24" pan="0" vol="100" pos="96" key="62"/>
          <note len="24" pan="0" vol="100" pos="108" key="0"/>
          <note len="24" pan="0" vol="100" pos="120" key="64"/>
          <note len="24" pan="0" vol="100" pos="132" key="1"/>
          <note len="24" pan="0" vol="100" pos="144" key="62"/>
          <note len="24" pan="0" vol="100" pos="168" key="62"/>
          <note len="24" pan="0" vol="100" pos="180" key="0"/>
          <note len="24" pan="0" vol="100" pos="192" key="67"/>
          <note len="24" pan="0" vol="100" pos="204" key="1"/>
          <note len="24" pan="0" vol="100" pos="216" key="62"/>
          <note len="24" pan="0" vol="100" pos="240" key="62"/>
          <note len="24" pan="0" vol="100" pos="252" key="0"/>
          <note len="24" pan="0" vol="100" pos="264" key="66"/>
          <note len="24" pan="0" vol="100" pos="276" key="1"/>
          <note len="24" pan="0" vol="100" pos="288" key="62"/>
          <note len="24" pan="0" vol="100" pos="312" key="62"/>
          <note len="24" pan="0" vol="100" pos="324" key="0"/>
          <note len="24" pan="0" vol="100" pos="336" key="64"/>
          <note len="24" pan="0" vol="100" pos="348" key="2"/>
          <note len="24" pan="0" vol="100" pos="360" key="66"/>
        </pattern>
        <pattern type="1" name="lgtH2" steps="16" pos="8064" muted="0">
          <note len="24" pan="0" vol="100" pos="0" key="62"/>
          <note len="24" pan="0" vol="100" pos="0" key="1"/>
          <note len="24" pan="0" vol="100" pos="24" key="62"/>
          <note len="24" pan="0" vol="100" pos="36" key="0"/>
          <note len="24" pan="0" vol="100" pos="48" key="66"/>
          <note len="24" pan="0" vol="100" pos="72" key="62"/>
          <note len="24" pan="0" vol="100" pos="72" key="1"/>
          <note len="24" pan="0" vol="100" pos="96" key="62"/>
          <note len="24" pan="0" vol="100" pos="108" key="0"/>
          <note len="24" pan="0" vol="100" pos="120" key="64"/>
          <note len="24" pan="0" vol="100" pos="132" key="1"/>
          <note len="24" pan="0" vol="100" pos="144" key="62"/>
          <note len="24" pan="0" vol="100" pos="168" key="62"/>
          <note len="24" pan="0" vol="100" pos="180" key="0"/>
          <note len="24" pan="0" vol="100" pos="192" key="67"/>
          <note len="24" pan="0" vol="100" pos="204" key="1"/>
          <note len="24" pan="0" vol="100" pos="216" key="62"/>
          <note len="24" pan="0" vol="100" pos="240" key="62"/>
          <note len="24" pan="0" vol="100" pos="252" key="0"/>
          <note len="24" pan="0" vol="100" pos="264" key="66"/>
          <note len="24" pan="0" vol="100" pos="276" key="1"/>
          <note len="24" pan="0" vol="100" pos="288" key="62"/>
          <note len="24" pan="0" vol="100" pos="312" key="62"/>
          <note len="24" pan="0" vol="100" pos="324" key="0"/>
          <note len="24" pan="0" vol="100" pos="336" key="64"/>
          <note len="24" pan="0" vol="100" pos="348" key="2"/>
          <note len="24" pan="0" vol="100" pos="360" key="66"/>
        </pattern>
        <pattern type="1" name="lgtH2" steps="16" pos="8448" muted="0">
          <note len="24" pan="0" vol="100" pos="0" key="62"/>
          <note len="24" pan="0" vol="100" pos="0" key="1"/>
          <note len="24" pan="0" vol="100" pos="24" key="62"/>
          <note len="24" pan="0" vol="100" pos="36" key="0"/>
          <note len="24" pan="0" vol="100" pos="48" key="66"/>
          <note len="24" pan="0" vol="100" pos="72" key="62"/>
          <note len="24" pan="0" vol="100" pos="72" key="1"/>
          <note len="24" pan="0" vol="100" pos="96" key="62"/>
          <note len="24" pan="0" vol="100" pos="108" key="0"/>
          <note len="24" pan="0" vol="100" pos="120" key="64"/>
          <note len="24" pan="0" vol="100" pos="132" key="1"/>
          <note len="24" pan="0" vol="100" pos="144" key="62"/>
          <note len="24" pan="0" vol="100" pos="168" key="62"/>
          <note len="24" pan="0" vol="100" pos="180" key="0"/>
          <note len="24" pan="0" vol="100" pos="192" key="67"/>
          <note len="24" pan="0" vol="100" pos="204" key="1"/>
          <note len="24" pan="0" vol="100" pos="216" key="62"/>
          <note len="24" pan="0" vol="100" pos="240" key="62"/>
          <note len="24" pan="0" vol="100" pos="252" key="0"/>
          <note len="24" pan="0" vol="100" pos="264" key="66"/>
          <note len="24" pan="0" vol="100" pos="276" key="1"/>
          <note len="24" pan="0" vol="100" pos="288" key="62"/>
          <note len="24" pan="0" vol="100" pos="312" key="62"/>
          <note len="24" pan="0" vol="100" pos="324" key="0"/>
          <note len="24" pan="0" vol="100" pos="336" key="64"/>
          <note len="24" pan="0" vol="100" pos="348" key="2"/>
          <note len="24" pan="0" vol="100" pos="360" key="66"/>
        </pattern>
        <pattern type="1" name="lgtH2" steps="16" pos="8832" muted="0">
          <note len="24" pan="0" vol="100" pos="0" key="62"/>
          <note len="24" pan="0" vol="100" pos="0" key="1"/>
          <note len="24" pan="0" vol="100" pos="24" key="62"/>
          <note len="24" pan="0" vol="100" pos="36" key="0"/>
          <note len="24" pan="0" vol="100" pos="48" key="66"/>
          <note len="24" pan="0" vol="100" pos="72" key="62"/>
          <note len="24" pan="0" vol="100" pos="72" key="1"/>
          <note len="24" pan="0" vol="100" pos="96" key="62"/>
          <note len="24" pan="0" vol="100" pos="108" key="0"/>
          <note len="24" pan="0" vol="100" pos="120" key="64"/>
          <note len="24" pan="0" vol="100" pos="132" key="1"/>
          <note len="24" pan="0" vol="100" pos="144" key="62"/>
          <note len="24" pan="0" vol="100" pos="168" key="62"/>
          <note len="24" pan="0" vol="100" pos="180" key="0"/>
          <note len="24" pan="0" vol="100" pos="192" key="67"/>
          <note len="24" pan="0" vol="100" pos="204" key="1"/>
          <note len="24" pan="0" vol="100" pos="216" key="62"/>
          <note len="24" pan="0" vol="100" pos="240" key="62"/>
          <note len="24" pan="0" vol="100" pos="252" key="0"/>
          <note len="24" pan="0" vol="100" pos="264" key="66"/>
          <note len="24" pan="0" vol="100" pos="276" key="1"/>
          <note len="24" pan="0" vol="100" pos="288" key="62"/>
          <note len="24" pan="0" vol="100" pos="312" key="62"/>
          <note len="24" pan="0" vol="100" pos="324" key="0"/>
          <note len="24" pan="0" vol="100" pos="336" key="64"/>
          <note len="24" pan="0" vol="100" pos="348" key="2"/>
          <note len="24" pan="0" vol="100" pos="360" key="66"/>
        </pattern>
        <pattern type="1" name="lgtH2" steps="16" pos="9216" muted="0">
          <note len="24" pan="0" vol="100" pos="0" key="62"/>
          <note len="24" pan="0" vol="100" pos="0" key="1"/>
          <note len="24" pan="0" vol="100" pos="24" key="62"/>
          <note len="24" pan="0" vol="100" pos="36" key="0"/>
          <note len="24" pan="0" vol="100" pos="48" key="66"/>
          <note len="24" pan="0" vol="100" pos="72" key="62"/>
          <note len="24" pan="0" vol="100" pos="72" key="1"/>
          <note len="24" pan="0" vol="100" pos="96" key="62"/>
          <note len="24" pan="0" vol="100" pos="108" key="0"/>
          <note len="24" pan="0" vol="100" pos="120" key="64"/>
          <note len="24" pan="0" vol="100" pos="132" key="1"/>
          <note len="24" pan="0" vol="100" pos="144" key="62"/>
          <note len="24" pan="0" vol="100" pos="168" key="62"/>
          <note len="24" pan="0" vol="100" pos="180" key="0"/>
          <note len="24" pan="0" vol="100" pos="192" key="67"/>
          <note len="24" pan="0" vol="100" pos="204" key="1"/>
          <note len="24" pan="0" vol="100" pos="216" key="62"/>
          <note len="24" pan="0" vol="100" pos="240" key="62"/>
          <note len="24" pan="0" vol="100" pos="252" key="0"/>
          <note len="24" pan="0" vol="100" pos="264" key="66"/>
          <note len="24" pan="0" vol="100" pos="276" key="1"/>
          <note len="24" pan="0" vol="100" pos="288" key="62"/>
          <note len="24" pan="0" vol="100" pos="312" key="62"/>
          <note len="24" pan="0" vol="100" pos="324" key="0"/>
          <note len="24" pan="0" vol="100" pos="336" key="64"/>
          <note len="24" pan="0" vol="100" pos="348" key="2"/>
          <note len="24" pan="0" vol="100" pos="360" key="66"/>
        </pattern>
        <pattern type="1" name="lgtH2" steps="16" pos="9600" muted="0">
          <note len="24" pan="0" vol="100" pos="0" key="62"/>
          <note len="24" pan="0" vol="100" pos="0" key="1"/>
          <note len="24" pan="0" vol="100" pos="24" key="62"/>
          <note len="24" pan="0" vol="100" pos="36" key="0"/>
          <note len="24" pan="0" vol="100" pos="48" key="66"/>
          <note len="24" pan="0" vol="100" pos="72" key="62"/>
          <note len="24" pan="0" vol="100" pos="72" key="1"/>
          <note len="24" pan="0" vol="100" pos="96" key="62"/>
          <note len="24" pan="0" vol="100" pos="108" key="0"/>
          <note len="24" pan="0" vol="100" pos="120" key="64"/>
          <note len="24" pan="0" vol="100" pos="132" key="1"/>
          <note len="24" pan="0" vol="100" pos="144" key="62"/>
          <note len="24" pan="0" vol="100" pos="168" key="62"/>
          <note len="24" pan="0" vol="100" pos="180" key="0"/>
          <note len="24" pan="0" vol="100" pos="192" key="67"/>
          <note len="24" pan="0" vol="100" pos="204" key="1"/>
          <note len="24" pan="0" vol="100" pos="216" key="62"/>
          <note len="24" pan="0" vol="100" pos="240" key="62"/>
          <note len="24" pan="0" vol="100" pos="252" key="0"/>
          <note len="24" pan="0" vol="100" pos="264" key="66"/>
          <note len="24" pan="0" vol="100" pos="276" key="1"/>
          <note len="24" pan="0" vol="100" pos="288" key="62"/>
          <note len="24" pan="0" vol="100" pos="312" key="62"/>
          <note len="24" pan="0" vol="100" pos="324" key="0"/>
          <note len="24" pan="0" vol="100" pos="336" key="64"/>
          <note len="24" pan="0" vol="100" pos="348" key="2"/>
          <note len="24" pan="0" vol="100" pos="360" key="66"/>
        </pattern>
        <pattern type="1" name="lgtH2" steps="16" pos="9984" muted="0">
          <note len="24" pan="0" vol="100" pos="0" key="62"/>
          <note len="24" pan="0" vol="100" pos="0" key="1"/>
          <note len="24" pan="0" vol="100" pos="24" key="62"/>
          <note len="24" pan="0" vol="100" pos="36" key="0"/>
          <note len="24" pan="0" vol="100" pos="48" key="66"/>
          <note len="24" pan="0" vol="100" pos="72" key="62"/>
          <note len="24" pan="0" vol="100" pos="72" key="1"/>
          <note len="24" pan="0" vol="100" pos="96" key="62"/>
          <note len="24" pan="0" vol="100" pos="108" key="0"/>
          <note len="24" pan="0" vol="100" pos="120" key="64"/>
          <note len="24" pan="0" vol="100" pos="132" key="1"/>
          <note len="24" pan="0" vol="100" pos="144" key="62"/>
          <note len="24" pan="0" vol="100" pos="168" key="62"/>
          <note len="24" pan="0" vol="100" pos="180" key="0"/>
          <note len="24" pan="0" vol="100" pos="192" key="67"/>
          <note len="24" pan="0" vol="100" pos="204" key="1"/>
          <note len="24" pan="0" vol="100" pos="216" key="62"/>
          <note len="24" pan="0" vol="100" pos="240" key="62"/>
          <note len="24" pan="0" vol="100" pos="252" key="0"/>
          <note len="24" pan="0" vol="100" pos="264" key="66"/>
          <note len="24" pan="0" vol="100" pos="276" key="1"/>
          <note len="24" pan="0" vol="100" pos="288" key="62"/>
          <note len="24" pan="0" vol="100" pos="312" key="62"/>
          <note len="24" pan="0" vol="100" pos="324" key="0"/>
          <note len="24" pan="0" vol="100" pos="336" key="64"/>
          <note len="24" pan="0" vol="100" pos="348" key="2"/>
          <note len="24" pan="0" vol="100" pos="360" key="66"/>
        </pattern>
        <pattern type="1" name="lgtH2" steps="16" pos="10368" muted="0">
          <note len="24" pan="0" vol="100" pos="0" key="62"/>
          <note len="24" pan="0" vol="100" pos="0" key="1"/>
          <note len="24" pan="0" vol="100" pos="24" key="62"/>
          <note len="24" pan="0" vol="100" pos="36" key="0"/>
          <note len="24" pan="0" vol="100" pos="48" key="66"/>
          <note len="24" pan="0" vol="100" pos="72" key="62"/>
          <note len="24" pan="0" vol="100" pos="72" key="1"/>
          <note len="24" pan="0" vol="100" pos="96" key="62"/>
          <note len="24" pan="0" vol="100" pos="108" key="0"/>
          <note len="24" pan="0" vol="100" pos="120" key="64"/>
          <note len="24" pan="0" vol="100" pos="132" key="1"/>
          <note len="24" pan="0" vol="100" pos="144" key="62"/>
          <note len="24" pan="0" vol="100" pos="168" key="62"/>
          <note len="24" pan="0" vol="100" pos="180" key="0"/>
          <note len="24" pan="0" vol="100" pos="192" key="67"/>
          <note len="24" pan="0" vol="100" pos="204" key="1"/>
          <note len="24" pan="0" vol="100" pos="216" key="62"/>
          <note len="24" pan="0" vol="100" pos="240" key="62"/>
          <note len="24" pan="0" vol="100" pos="252" key="0"/>
          <note len="24" pan="0" vol="100" pos="264" key="66"/>
          <note len="24" pan="0" vol="100" pos="276" key="1"/>
          <note len="24" pan="0" vol="100" pos="288" key="62"/>
          <note len="24" pan="0" vol="100" pos="312" key="62"/>
          <note len="24" pan="0" vol="100" pos="324" key="0"/>
          <note len="24" pan="0" vol="100" pos="336" key="64"/>
          <note len="24" pan="0" vol="100" pos="348" key="2"/>
          <note len="24" pan="0" vol="100" pos="360" key="66"/>
        </pattern>
        <pattern type="1" name="lgtH2" steps="16" pos="10752" muted="0">
          <note len="24" pan="0" vol="100" pos="0" key="62"/>
          <note len="24" pan="0" vol="100" pos="0" key="1"/>
          <note len="24" pan="0" vol="100" pos="24" key="62"/>
          <note len="24" pan="0" vol="100" pos="36" key="0"/>
          <note len="24" pan="0" vol="100" pos="48" key="66"/>
          <note len="24" pan="0" vol="100" pos="72" key="62"/>
          <note len="24" pan="0" vol="100" pos="72" key="1"/>
          <note len="24" pan="0" vol="100" pos="96" key="62"/>
          <note len="24" pan="0" vol="100" pos="108" key="0"/>
          <note len="24" pan="0" vol="100" pos="120" key="64"/>
          <note len="24" pan="0" vol="100" pos="132" key="1"/>
          <note len="24" pan="0" vol="100" pos="144" key="62"/>
          <note len="24" pan="0" vol="100" pos="168" key="62"/>
          <note len="24" pan="0" vol="100" pos="180" key="0"/>
          <note len="24" pan="0" vol="100" pos="192" key="67"/>
          <note len="24" pan="0" vol="100" pos="204" key="1"/>
          <note len="24" pan="0" vol="100" pos="216" key="62"/>
          <note len="24" pan="0" vol="100" pos="240" key="62"/>
          <note len="24" pan="0" vol="100" pos="252" key="0"/>
          <note len="24" pan="0" vol="100" pos="264" key="66"/>
          <note len="24" pan="0" vol="100" pos="276" key="1"/>
          <note len="24" pan="0" vol="100" pos="288" key="62"/>
          <note len="24" pan="0" vol="100" pos="312" key="62"/>
          <note len="24" pan="0" vol="100" pos="324" key="0"/>
          <note len="24" pan="0" vol="100" pos="336" key="64"/>
          <note len="24" pan="0" vol="100" pos="348" key="2"/>
          <note len="24" pan="0" vol="100" pos="360" key="66"/>
        </pattern>
        <pattern type="1" name="lgtH2" steps="16" pos="11136" muted="0">
          <note len="24" pan="0" vol="100" pos="0" key="62"/>
          <note len="24" pan="0" vol="100" pos="0" key="1"/>
          <note len="24" pan="0" vol="100" pos="24" key="62"/>
          <note len="24" pan="0" vol="100" pos="36" key="0"/>
          <note len="24" pan="0" vol="100" pos="48" key="66"/>
          <note len="24" pan="0" vol="100" pos="72" key="62"/>
          <note len="24" pan="0" vol="100" pos="72" key="1"/>
          <note len="24" pan="0" vol="100" pos="96" key="62"/>
          <note len="24" pan="0" vol="100" pos="108" key="0"/>
          <note len="24" pan="0" vol="100" pos="120" key="64"/>
          <note len="24" pan="0" vol="100" pos="132" key="1"/>
          <note len="24" pan="0" vol="100" pos="144" key="62"/>
          <note len="24" pan="0" vol="100" pos="168" key="62"/>
          <note len="24" pan="0" vol="100" pos="180" key="0"/>
          <note len="24" pan="0" vol="100" pos="192" key="67"/>
          <note len="24" pan="0" vol="100" pos="204" key="1"/>
          <note len="24" pan="0" vol="100" pos="216" key="62"/>
          <note len="24" pan="0" vol="100" pos="240" key="62"/>
          <note len="24" pan="0" vol="100" pos="252" key="0"/>
          <note len="24" pan="0" vol="100" pos="264" key="66"/>
          <note len="24" pan="0" vol="100" pos="276" key="1"/>
          <note len="24" pan="0" vol="100" pos="288" key="62"/>
          <note len="24" pan="0" vol="100" pos="312" key="62"/>
          <note len="24" pan="0" vol="100" pos="324" key="0"/>
          <note len="24" pan="0" vol="100" pos="336" key="64"/>
          <note len="24" pan="0" vol="100" pos="348" key="2"/>
          <note len="24" pan="0" vol="100" pos="360" key="66"/>
        </pattern>
        <pattern type="1" name="lgtH2" steps="16" pos="11520" muted="0">
          <note len="24" pan="0" vol="100" pos="0" key="62"/>
          <note len="24" pan="0" vol="100" pos="0" key="1"/>
          <note len="24" pan="0" vol="100" pos="24" key="62"/>
          <note len="24" pan="0" vol="100" pos="36" key="0"/>
          <note len="24" pan="0" vol="100" pos="48" key="66"/>
          <note len="24" pan="0" vol="100" pos="72" key="62"/>
          <note len="24" pan="0" vol="100" pos="72" key="1"/>
          <note len="24" pan="0" vol="100" pos="96" key="62"/>
          <note len="24" pan="0" vol="100" pos="108" key="0"/>
          <note len="24" pan="0" vol="100" pos="120" key="64"/>
          <note len="24" pan="0" vol="100" pos="132" key="1"/>
          <note len="24" pan="0" vol="100" pos="144" key="62"/>
          <note len="24" pan="0" vol="100" pos="168" key="62"/>
          <note len="24" pan="0" vol="100" pos="180" key="0"/>
          <note len="24" pan="0" vol="100" pos="192" key="67"/>
          <note len="24" pan="0" vol="100" pos="204" key="1"/>
          <note len="24" pan="0" vol="100" pos="216" key="62"/>
          <note len="24" pan="0" vol="100" pos="240" key="62"/>
          <note len="24" pan="0" vol="100" pos="252" key="0"/>
          <note len="24" pan="0" vol="100" pos="264" key="66"/>
          <note len="24" pan="0" vol="100" pos="276" key="1"/>
          <note len="24" pan="0" vol="100" pos="288" key="62"/>
          <note len="24" pan="0" vol="100" pos="312" key="62"/>
          <note len="24" pan="0" vol="100" pos="324" key="0"/>
          <note len="24" pan="0" vol="100" pos="336" key="64"/>
          <note len="24" pan="0" vol="100" pos="348" key="2"/>
          <note len="24" pan="0" vol="100" pos="360" key="66"/>
        </pattern>
        <pattern type="1" name="lgtH2" steps="16" pos="11904" muted="0">
          <note len="24" pan="0" vol="100" pos="0" key="62"/>
          <note len="24" pan="0" vol="100" pos="0" key="1"/>
          <note len="24" pan="0" vol="100" pos="24" key="62"/>
          <note len="24" pan="0" vol="100" pos="36" key="0"/>
          <note len="24" pan="0" vol="100" pos="48" key="66"/>
          <note len="24" pan="0" vol="100" pos="72" key="62"/>
          <note len="24" pan="0" vol="100" pos="72" key="1"/>
          <note len="24" pan="0" vol="100" pos="96" key="62"/>
          <note len="24" pan="0" vol="100" pos="108" key="0"/>
          <note len="24" pan="0" vol="100" pos="120" key="64"/>
          <note len="24" pan="0" vol="100" pos="132" key="1"/>
          <note len="24" pan="0" vol="100" pos="144" key="62"/>
          <note len="24" pan="0" vol="100" pos="168" key="62"/>
          <note len="24" pan="0" vol="100" pos="180" key="0"/>
          <note len="24" pan="0" vol="100" pos="192" key="62"/>
          <note len="24" pan="0" vol="100" pos="216" key="61"/>
          <note len="24" pan="0" vol="100" pos="240" key="62"/>
          <note len="24" pan="0" vol="100" pos="264" key="64"/>
          <note len="24" pan="0" vol="100" pos="288" key="66"/>
          <note len="24" pan="0" vol="100" pos="312" key="64"/>
          <note len="24" pan="0" vol="100" pos="336" key="62"/>
          <note len="24" pan="0" vol="100" pos="360" key="61"/>
        </pattern>
        <pattern type="1" name="lgtH2" steps="16" pos="17664" muted="0">
          <note len="72" pan="0" vol="100" pos="0" key="81"/>
          <note len="72" pan="0" vol="100" pos="72" key="79"/>
          <note len="48" pan="0" vol="100" pos="144" key="78"/>
          <note len="72" pan="0" vol="100" pos="192" key="81"/>
          <note len="72" pan="0" vol="100" pos="264" key="79"/>
          <note len="48" pan="0" vol="100" pos="336" key="78"/>
          <note len="24" pan="0" vol="100" pos="384" key="78"/>
          <note len="168" pan="0" vol="100" pos="408" key="76"/>
        </pattern>
        <pattern type="1" name="lgtH2" steps="16" pos="25344" muted="0">
          <note len="72" pan="0" vol="100" pos="0" key="66"/>
          <note len="48" pan="0" vol="100" pos="0" key="0"/>
          <note len="72" pan="0" vol="100" pos="72" key="64"/>
          <note len="48" pan="0" vol="100" pos="144" key="66"/>
          <note len="72" pan="0" vol="100" pos="192" key="66"/>
          <note len="72" pan="0" vol="100" pos="264" key="64"/>
          <note len="48" pan="0" vol="100" pos="336" key="66"/>
          <note len="72" pan="0" vol="100" pos="384" key="67"/>
          <note len="72" pan="0" vol="100" pos="456" key="66"/>
          <note len="48" pan="0" vol="100" pos="528" key="64"/>
          <note len="72" pan="0" vol="100" pos="576" key="66"/>
          <note len="72" pan="0" vol="100" pos="648" key="64"/>
          <note len="48" pan="0" vol="100" pos="720" key="62"/>
        </pattern>
        <pattern type="1" name="lgtH2" steps="16" pos="27648" muted="0">
          <note len="72" pan="0" vol="100" pos="0" key="81"/>
          <note len="72" pan="0" vol="100" pos="72" key="79"/>
          <note len="48" pan="0" vol="100" pos="144" key="78"/>
          <note len="72" pan="0" vol="100" pos="192" key="81"/>
          <note len="72" pan="0" vol="100" pos="264" key="79"/>
          <note len="48" pan="0" vol="100" pos="336" key="78"/>
          <note len="24" pan="0" vol="100" pos="384" key="78"/>
          <note len="168" pan="0" vol="100" pos="408" key="76"/>
        </pattern>
        <pattern type="1" name="lgtH2" steps="16" pos="33792" muted="0">
          <note len="24" pan="0" vol="100" pos="0" key="66"/>
          <note len="24" pan="0" vol="100" pos="0" key="1"/>
          <note len="24" pan="0" vol="100" pos="24" key="69"/>
          <note len="24" pan="0" vol="100" pos="24" key="0"/>
          <note len="24" pan="0" vol="100" pos="36" key="1"/>
          <note len="24" pan="0" vol="100" pos="48" key="66"/>
          <note len="24" pan="0" vol="100" pos="72" key="66"/>
          <note len="24" pan="0" vol="100" pos="84" key="0"/>
          <note len="24" pan="0" vol="100" pos="96" key="69"/>
          <note len="24" pan="0" vol="100" pos="108" key="1"/>
          <note len="24" pan="0" vol="100" pos="120" key="66"/>
          <note len="24" pan="0" vol="100" pos="144" key="66"/>
          <note len="24" pan="0" vol="100" pos="156" key="0"/>
          <note len="24" pan="0" vol="100" pos="168" key="69"/>
          <note len="24" pan="0" vol="100" pos="180" key="1"/>
          <note len="24" pan="0" vol="100" pos="192" key="66"/>
          <note len="24" pan="0" vol="100" pos="216" key="66"/>
          <note len="24" pan="0" vol="100" pos="228" key="0"/>
          <note len="24" pan="0" vol="100" pos="240" key="69"/>
          <note len="24" pan="0" vol="100" pos="252" key="1"/>
          <note len="24" pan="0" vol="100" pos="264" key="66"/>
          <note len="24" pan="0" vol="100" pos="288" key="66"/>
          <note len="24" pan="0" vol="100" pos="300" key="0"/>
          <note len="24" pan="0" vol="100" pos="312" key="69"/>
          <note len="24" pan="0" vol="100" pos="324" key="1"/>
          <note len="24" pan="0" vol="100" pos="336" key="66"/>
          <note len="24" pan="0" vol="100" pos="360" key="66"/>
        </pattern>
        <pattern type="1" name="lgtH2" steps="16" pos="34176" muted="0">
          <note len="24" pan="0" vol="100" pos="0" key="67"/>
          <note len="24" pan="0" vol="100" pos="0" key="1"/>
          <note len="24" pan="0" vol="100" pos="24" key="71"/>
          <note len="24" pan="0" vol="100" pos="24" key="0"/>
          <note len="24" pan="0" vol="100" pos="36" key="1"/>
          <note len="24" pan="0" vol="100" pos="48" key="67"/>
          <note len="24" pan="0" vol="100" pos="72" key="67"/>
          <note len="24" pan="0" vol="100" pos="84" key="0"/>
          <note len="24" pan="0" vol="100" pos="96" key="71"/>
          <note len="24" pan="0" vol="100" pos="108" key="1"/>
          <note len="24" pan="0" vol="100" pos="120" key="67"/>
          <note len="24" pan="0" vol="100" pos="144" key="67"/>
          <note len="24" pan="0" vol="100" pos="156" key="0"/>
          <note len="24" pan="0" vol="100" pos="168" key="73"/>
          <note len="24" pan="0" vol="100" pos="180" key="1"/>
          <note len="24" pan="0" vol="100" pos="192" key="69"/>
          <note len="24" pan="0" vol="100" pos="216" key="69"/>
          <note len="24" pan="0" vol="100" pos="228" key="0"/>
          <note len="24" pan="0" vol="100" pos="240" key="73"/>
          <note len="24" pan="0" vol="100" pos="252" key="1"/>
          <note len="24" pan="0" vol="100" pos="264" key="69"/>
          <note len="24" pan="0" vol="100" pos="288" key="69"/>
          <note len="24" pan="0" vol="100" pos="300" key="0"/>
          <note len="24" pan="0" vol="100" pos="312" key="73"/>
          <note len="24" pan="0" vol="100" pos="324" key="1"/>
          <note len="24" pan="0" vol="100" pos="336" key="69"/>
          <note len="24" pan="0" vol="100" pos="360" key="69"/>
        </pattern>
        <pattern type="1" name="lgtH2" steps="16" pos="34560" muted="0">
          <note len="24" pan="0" vol="100" pos="0" key="66"/>
          <note len="24" pan="0" vol="100" pos="0" key="1"/>
          <note len="24" pan="0" vol="100" pos="24" key="69"/>
          <note len="24" pan="0" vol="100" pos="24" key="0"/>
          <note len="24" pan="0" vol="100" pos="36" key="1"/>
          <note len="24" pan="0" vol="100" pos="48" key="66"/>
          <note len="24" pan="0" vol="100" pos="72" key="66"/>
          <note len="24" pan="0" vol="100" pos="84" key="0"/>
          <note len="24" pan="0" vol="100" pos="96" key="69"/>
          <note len="24" pan="0" vol="100" pos="108" key="1"/>
          <note len="24" pan="0" vol="100" pos="120" key="66"/>
          <note len="24" pan="0" vol="100" pos="144" key="66"/>
          <note len="24" pan="0" vol="100" pos="156" key="0"/>
          <note len="24" pan="0" vol="100" pos="168" key="69"/>
          <note len="24" pan="0" vol="100" pos="180" key="1"/>
          <note len="24" pan="0" vol="100" pos="192" key="66"/>
          <note len="24" pan="0" vol="100" pos="216" key="66"/>
          <note len="24" pan="0" vol="100" pos="228" key="0"/>
          <note len="24" pan="0" vol="100" pos="240" key="69"/>
          <note len="24" pan="0" vol="100" pos="252" key="1"/>
          <note len="24" pan="0" vol="100" pos="264" key="66"/>
          <note len="24" pan="0" vol="100" pos="288" key="66"/>
          <note len="24" pan="0" vol="100" pos="300" key="0"/>
          <note len="24" pan="0" vol="100" pos="312" key="69"/>
          <note len="24" pan="0" vol="100" pos="324" key="1"/>
          <note len="24" pan="0" vol="100" pos="336" key="66"/>
          <note len="24" pan="0" vol="100" pos="360" key="66"/>
        </pattern>
        <pattern type="1" name="lgtH2" steps="16" pos="34944" muted="0">
          <note len="24" pan="0" vol="100" pos="0" key="67"/>
          <note len="24" pan="0" vol="100" pos="0" key="1"/>
          <note len="24" pan="0" vol="100" pos="24" key="71"/>
          <note len="24" pan="0" vol="100" pos="24" key="0"/>
          <note len="24" pan="0" vol="100" pos="36" key="1"/>
          <note len="24" pan="0" vol="100" pos="48" key="67"/>
          <note len="24" pan="0" vol="100" pos="72" key="67"/>
          <note len="24" pan="0" vol="100" pos="84" key="0"/>
          <note len="24" pan="0" vol="100" pos="96" key="71"/>
          <note len="24" pan="0" vol="100" pos="108" key="1"/>
          <note len="24" pan="0" vol="100" pos="120" key="67"/>
          <note len="24" pan="0" vol="100" pos="144" key="67"/>
          <note len="24" pan="0" vol="100" pos="156" key="0"/>
          <note len="24" pan="0" vol="100" pos="168" key="73"/>
          <note len="24" pan="0" vol="100" pos="180" key="1"/>
          <note len="24" pan="0" vol="100" pos="192" key="69"/>
          <note len="24" pan="0" vol="100" pos="216" key="69"/>
          <note len="24" pan="0" vol="100" pos="228" key="0"/>
          <note len="24" pan="0" vol="100" pos="240" key="73"/>
          <note len="24" pan="0" vol="100" pos="252" key="1"/>
          <note len="24" pan="0" vol="100" pos="264" key="69"/>
          <note len="24" pan="0" vol="100" pos="300" key="0"/>
          <note len="24" pan="0" vol="100" pos="324" key="1"/>
        </pattern>
        <pattern type="1" name="lgtH2" steps="16" pos="43008" muted="0">
          <note len="24" pan="0" vol="100" pos="0" key="62"/>
          <note len="24" pan="0" vol="100" pos="0" key="1"/>
          <note len="24" pan="0" vol="100" pos="24" key="62"/>
          <note len="24" pan="0" vol="100" pos="36" key="0"/>
          <note len="24" pan="0" vol="100" pos="48" key="66"/>
          <note len="24" pan="0" vol="100" pos="72" key="62"/>
          <note len="24" pan="0" vol="100" pos="72" key="1"/>
          <note len="24" pan="0" vol="100" pos="96" key="62"/>
          <note len="24" pan="0" vol="100" pos="108" key="0"/>
          <note len="24" pan="0" vol="100" pos="120" key="64"/>
          <note len="24" pan="0" vol="100" pos="132" key="1"/>
          <note len="24" pan="0" vol="100" pos="144" key="62"/>
          <note len="24" pan="0" vol="100" pos="168" key="62"/>
          <note len="24" pan="0" vol="100" pos="180" key="0"/>
          <note len="24" pan="0" vol="100" pos="192" key="67"/>
          <note len="24" pan="0" vol="100" pos="204" key="1"/>
          <note len="24" pan="0" vol="100" pos="216" key="62"/>
          <note len="24" pan="0" vol="100" pos="240" key="62"/>
          <note len="24" pan="0" vol="100" pos="252" key="0"/>
          <note len="24" pan="0" vol="100" pos="264" key="66"/>
          <note len="24" pan="0" vol="100" pos="276" key="1"/>
          <note len="24" pan="0" vol="100" pos="288" key="62"/>
          <note len="24" pan="0" vol="100" pos="312" key="62"/>
          <note len="24" pan="0" vol="100" pos="324" key="0"/>
          <note len="24" pan="0" vol="100" pos="336" key="64"/>
          <note len="24" pan="0" vol="100" pos="348" key="2"/>
          <note len="24" pan="0" vol="100" pos="360" key="66"/>
        </pattern>
        <pattern type="1" name="lgtH2" steps="16" pos="36864" muted="0">
          <note len="12" pan="0" vol="200" pos="0" key="71"/>
          <note len="24" pan="0" vol="200" pos="0" key="2"/>
          <note len="12" pan="0" vol="200" pos="12" key="66"/>
          <note len="12" pan="0" vol="200" pos="24" key="71"/>
          <note len="12" pan="0" vol="200" pos="36" key="66"/>
          <note len="12" pan="0" vol="200" pos="48" key="69"/>
          <note len="12" pan="0" vol="200" pos="60" key="66"/>
          <note len="12" pan="0" vol="200" pos="72" key="71"/>
          <note len="12" pan="0" vol="200" pos="84" key="66"/>
          <note len="12" pan="0" vol="200" pos="96" key="73"/>
          <note len="12" pan="0" vol="200" pos="108" key="66"/>
          <note len="12" pan="0" vol="200" pos="120" key="71"/>
          <note len="12" pan="0" vol="200" pos="132" key="66"/>
          <note len="12" pan="0" vol="200" pos="144" key="69"/>
          <note len="12" pan="0" vol="200" pos="156" key="66"/>
          <note len="12" pan="0" vol="200" pos="168" key="71"/>
          <note len="12" pan="0" vol="200" pos="180" key="66"/>
        </pattern>
        <pattern type="1" name="lgtH2" steps="16" pos="37056" muted="0">
          <note len="12" pan="0" vol="200" pos="0" key="71"/>
          <note len="24" pan="0" vol="200" pos="0" key="2"/>
          <note len="12" pan="0" vol="200" pos="12" key="66"/>
          <note len="12" pan="0" vol="200" pos="24" key="71"/>
          <note len="12" pan="0" vol="200" pos="36" key="66"/>
          <note len="12" pan="0" vol="200" pos="48" key="69"/>
          <note len="12" pan="0" vol="200" pos="60" key="66"/>
          <note len="12" pan="0" vol="200" pos="72" key="71"/>
          <note len="12" pan="0" vol="200" pos="84" key="66"/>
          <note len="12" pan="0" vol="200" pos="96" key="73"/>
          <note len="12" pan="0" vol="200" pos="108" key="66"/>
          <note len="12" pan="0" vol="200" pos="120" key="71"/>
          <note len="12" pan="0" vol="200" pos="132" key="66"/>
          <note len="12" pan="0" vol="200" pos="144" key="69"/>
          <note len="12" pan="0" vol="200" pos="156" key="66"/>
          <note len="12" pan="0" vol="200" pos="168" key="71"/>
          <note len="12" pan="0" vol="200" pos="180" key="66"/>
        </pattern>
        <pattern type="1" name="lgtH2" steps="16" pos="37248" muted="0">
          <note len="12" pan="0" vol="200" pos="0" key="71"/>
          <note len="24" pan="0" vol="200" pos="0" key="2"/>
          <note len="12" pan="0" vol="200" pos="12" key="67"/>
          <note len="12" pan="0" vol="200" pos="24" key="71"/>
          <note len="12" pan="0" vol="200" pos="36" key="67"/>
          <note len="12" pan="0" vol="200" pos="48" key="69"/>
          <note len="12" pan="0" vol="200" pos="60" key="67"/>
          <note len="12" pan="0" vol="200" pos="72" key="71"/>
          <note len="12" pan="0" vol="200" pos="84" key="67"/>
          <note len="12" pan="0" vol="200" pos="96" key="73"/>
          <note len="12" pan="0" vol="200" pos="108" key="67"/>
          <note len="12" pan="0" vol="200" pos="120" key="71"/>
          <note len="12" pan="0" vol="200" pos="132" key="67"/>
          <note len="12" pan="0" vol="200" pos="144" key="69"/>
          <note len="12" pan="0" vol="200" pos="156" key="67"/>
          <note len="12" pan="0" vol="200" pos="168" key="71"/>
          <note len="12" pan="0" vol="200" pos="180" key="67"/>
        </pattern>
        <pattern type="1" name="lgtH2" steps="16" pos="37440" muted="0">
          <note len="12" pan="0" vol="200" pos="0" key="71"/>
          <note len="24" pan="0" vol="200" pos="0" key="2"/>
          <note len="12" pan="0" vol="200" pos="12" key="67"/>
          <note len="12" pan="0" vol="200" pos="24" key="71"/>
          <note len="12" pan="0" vol="200" pos="36" key="67"/>
          <note len="12" pan="0" vol="200" pos="48" key="69"/>
          <note len="12" pan="0" vol="200" pos="60" key="67"/>
          <note len="12" pan="0" vol="200" pos="72" key="71"/>
          <note len="12" pan="0" vol="200" pos="84" key="67"/>
          <note len="12" pan="0" vol="200" pos="96" key="73"/>
          <note len="12" pan="0" vol="200" pos="108" key="67"/>
          <note len="12" pan="0" vol="200" pos="120" key="71"/>
          <note len="12" pan="0" vol="200" pos="132" key="67"/>
          <note len="24" pan="0" vol="200" pos="144" key="73"/>
          <note len="24" pan="0" vol="200" pos="144" key="0"/>
          <note len="24" pan="0" vol="200" pos="168" key="74"/>
        </pattern>
        <pattern type="1" name="lgtH2" steps="16" pos="37632" muted="0">
          <note len="48" pan="0" vol="200" pos="0" key="76"/>
          <note len="48" pan="0" vol="200" pos="48" key="74"/>
          <note len="48" pan="0" vol="200" pos="96" key="73"/>
          <note len="48" pan="0" vol="200" pos="144" key="71"/>
          <note len="24" pan="0" vol="200" pos="192" key="73"/>
          <note len="24" pan="0" vol="200" pos="216" key="71"/>
          <note len="24" pan="0" vol="200" pos="240" key="69"/>
          <note len="48" pan="0" vol="200" pos="264" key="71"/>
          <note len="12" pan="0" vol="200" pos="312" key="69"/>
          <note len="12" pan="0" vol="200" pos="324" key="71"/>
          <note len="24" pan="0" vol="200" pos="336" key="69"/>
          <note len="24" pan="0" vol="200" pos="360" key="71"/>
        </pattern>
        <pattern type="1" name="lgtH2" steps="16" pos="38016" muted="0">
          <note len="12" pan="0" vol="200" pos="0" key="74"/>
          <note len="12" pan="0" vol="200" pos="0" key="2"/>
          <note len="12" pan="0" vol="200" pos="12" key="76"/>
          <note len="12" pan="0" vol="200" pos="24" key="74"/>
          <note len="12" pan="0" vol="200" pos="36" key="76"/>
          <note len="24" pan="0" vol="200" pos="48" key="74"/>
          <note len="12" pan="0" vol="200" pos="60" key="0"/>
          <note len="24" pan="0" vol="200" pos="72" key="73"/>
          <note len="12" pan="0" vol="200" pos="84" key="2"/>
          <note len="12" pan="0" vol="200" pos="96" key="69"/>
          <note len="12" pan="0" vol="200" pos="108" key="71"/>
          <note len="12" pan="0" vol="200" pos="120" key="69"/>
          <note len="12" pan="0" vol="200" pos="132" key="71"/>
          <note len="24" pan="0" vol="200" pos="144" key="69"/>
          <note len="12" pan="0" vol="200" pos="156" key="0"/>
          <note len="24" pan="0" vol="200" pos="168" key="67"/>
          <note len="24" pan="0" vol="200" pos="192" key="64"/>
        </pattern>
        <pattern type="1" name="lgtH2" steps="16" pos="43392" muted="0">
          <note len="24" pan="0" vol="100" pos="0" key="62"/>
          <note len="24" pan="0" vol="100" pos="0" key="1"/>
          <note len="24" pan="0" vol="100" pos="24" key="62"/>
          <note len="24" pan="0" vol="100" pos="36" key="0"/>
          <note len="24" pan="0" vol="100" pos="48" key="66"/>
          <note len="24" pan="0" vol="100" pos="72" key="62"/>
          <note len="24" pan="0" vol="100" pos="72" key="1"/>
          <note len="24" pan="0" vol="100" pos="96" key="62"/>
          <note len="24" pan="0" vol="100" pos="108" key="0"/>
          <note len="24" pan="0" vol="100" pos="120" key="64"/>
          <note len="24" pan="0" vol="100" pos="132" key="1"/>
          <note len="24" pan="0" vol="100" pos="144" key="62"/>
          <note len="24" pan="0" vol="100" pos="168" key="62"/>
          <note len="24" pan="0" vol="100" pos="180" key="0"/>
          <note len="24" pan="0" vol="100" pos="192" key="67"/>
          <note len="24" pan="0" vol="100" pos="204" key="1"/>
          <note len="24" pan="0" vol="100" pos="216" key="62"/>
          <note len="24" pan="0" vol="100" pos="240" key="62"/>
          <note len="24" pan="0" vol="100" pos="252" key="0"/>
          <note len="24" pan="0" vol="100" pos="264" key="66"/>
          <note len="24" pan="0" vol="100" pos="276" key="1"/>
          <note len="24" pan="0" vol="100" pos="288" key="62"/>
          <note len="24" pan="0" vol="100" pos="312" key="62"/>
          <note len="24" pan="0" vol="100" pos="324" key="0"/>
          <note len="24" pan="0" vol="100" pos="336" key="64"/>
          <note len="24" pan="0" vol="100" pos="348" key="2"/>
          <note len="24" pan="0" vol="100" pos="360" key="66"/>
        </pattern>
        <pattern type="1" name="lgtH2" steps="16" pos="43776" muted="0">
          <note len="24" pan="0" vol="100" pos="0" key="62"/>
          <note len="24" pan="0" vol="100" pos="0" key="1"/>
          <note len="24" pan="0" vol="100" pos="24" key="62"/>
          <note len="24" pan="0" vol="100" pos="36" key="0"/>
          <note len="24" pan="0" vol="100" pos="48" key="66"/>
          <note len="24" pan="0" vol="100" pos="72" key="62"/>
          <note len="24" pan="0" vol="100" pos="72" key="1"/>
          <note len="24" pan="0" vol="100" pos="96" key="62"/>
          <note len="24" pan="0" vol="100" pos="108" key="0"/>
          <note len="24" pan="0" vol="100" pos="120" key="64"/>
          <note len="24" pan="0" vol="100" pos="132" key="1"/>
          <note len="24" pan="0" vol="100" pos="144" key="62"/>
          <note len="24" pan="0" vol="100" pos="168" key="62"/>
          <note len="24" pan="0" vol="100" pos="180" key="0"/>
          <note len="24" pan="0" vol="100" pos="192" key="67"/>
          <note len="24" pan="0" vol="100" pos="204" key="1"/>
          <note len="24" pan="0" vol="100" pos="216" key="62"/>
          <note len="24" pan="0" vol="100" pos="240" key="62"/>
          <note len="24" pan="0" vol="100" pos="252" key="0"/>
          <note len="24" pan="0" vol="100" pos="264" key="66"/>
          <note len="24" pan="0" vol="100" pos="276" key="1"/>
          <note len="24" pan="0" vol="100" pos="288" key="62"/>
          <note len="24" pan="0" vol="100" pos="312" key="62"/>
          <note len="24" pan="0" vol="100" pos="324" key="0"/>
          <note len="24" pan="0" vol="100" pos="336" key="64"/>
          <note len="24" pan="0" vol="100" pos="348" key="2"/>
          <note len="24" pan="0" vol="100" pos="360" key="66"/>
        </pattern>
        <pattern type="1" name="lgtH2" steps="16" pos="44160" muted="0">
          <note len="24" pan="0" vol="100" pos="0" key="62"/>
          <note len="24" pan="0" vol="100" pos="0" key="1"/>
          <note len="24" pan="0" vol="100" pos="24" key="62"/>
          <note len="24" pan="0" vol="100" pos="36" key="0"/>
          <note len="24" pan="0" vol="100" pos="48" key="66"/>
          <note len="24" pan="0" vol="100" pos="72" key="62"/>
          <note len="24" pan="0" vol="100" pos="72" key="1"/>
          <note len="24" pan="0" vol="100" pos="96" key="62"/>
          <note len="24" pan="0" vol="100" pos="108" key="0"/>
          <note len="24" pan="0" vol="100" pos="120" key="64"/>
          <note len="24" pan="0" vol="100" pos="132" key="1"/>
          <note len="24" pan="0" vol="100" pos="144" key="62"/>
          <note len="24" pan="0" vol="100" pos="168" key="62"/>
          <note len="24" pan="0" vol="100" pos="180" key="0"/>
          <note len="24" pan="0" vol="100" pos="192" key="67"/>
          <note len="24" pan="0" vol="100" pos="204" key="1"/>
          <note len="24" pan="0" vol="100" pos="216" key="62"/>
          <note len="24" pan="0" vol="100" pos="240" key="62"/>
          <note len="24" pan="0" vol="100" pos="252" key="0"/>
          <note len="24" pan="0" vol="100" pos="264" key="66"/>
          <note len="24" pan="0" vol="100" pos="276" key="1"/>
          <note len="24" pan="0" vol="100" pos="288" key="62"/>
          <note len="24" pan="0" vol="100" pos="312" key="62"/>
          <note len="24" pan="0" vol="100" pos="324" key="0"/>
          <note len="24" pan="0" vol="100" pos="336" key="64"/>
          <note len="24" pan="0" vol="100" pos="348" key="2"/>
          <note len="24" pan="0" vol="100" pos="360" key="66"/>
        </pattern>
        <pattern type="1" name="lgtH2" steps="16" pos="44544" muted="0">
          <note len="24" pan="0" vol="100" pos="0" key="62"/>
          <note len="24" pan="0" vol="100" pos="0" key="1"/>
          <note len="24" pan="0" vol="100" pos="24" key="62"/>
          <note len="24" pan="0" vol="100" pos="36" key="0"/>
          <note len="24" pan="0" vol="100" pos="48" key="66"/>
          <note len="24" pan="0" vol="100" pos="72" key="62"/>
          <note len="24" pan="0" vol="100" pos="72" key="1"/>
          <note len="24" pan="0" vol="100" pos="96" key="62"/>
          <note len="24" pan="0" vol="100" pos="108" key="0"/>
          <note len="24" pan="0" vol="100" pos="120" key="64"/>
          <note len="24" pan="0" vol="100" pos="132" key="1"/>
          <note len="24" pan="0" vol="100" pos="144" key="62"/>
          <note len="24" pan="0" vol="100" pos="168" key="62"/>
          <note len="24" pan="0" vol="100" pos="180" key="0"/>
          <note len="24" pan="0" vol="100" pos="192" key="67"/>
          <note len="24" pan="0" vol="100" pos="204" key="1"/>
          <note len="24" pan="0" vol="100" pos="216" key="62"/>
          <note len="24" pan="0" vol="100" pos="240" key="62"/>
          <note len="24" pan="0" vol="100" pos="252" key="0"/>
          <note len="24" pan="0" vol="100" pos="264" key="66"/>
          <note len="24" pan="0" vol="100" pos="276" key="1"/>
          <note len="24" pan="0" vol="100" pos="288" key="62"/>
          <note len="24" pan="0" vol="100" pos="312" key="62"/>
          <note len="24" pan="0" vol="100" pos="324" key="0"/>
          <note len="24" pan="0" vol="100" pos="336" key="64"/>
          <note len="24" pan="0" vol="100" pos="348" key="2"/>
          <note len="24" pan="0" vol="100" pos="360" key="66"/>
        </pattern>
        <pattern type="1" name="lgtH2" steps="16" pos="44928" muted="0">
          <note len="24" pan="0" vol="100" pos="0" key="62"/>
          <note len="24" pan="0" vol="100" pos="0" key="1"/>
          <note len="24" pan="0" vol="100" pos="24" key="62"/>
          <note len="24" pan="0" vol="100" pos="36" key="0"/>
          <note len="24" pan="0" vol="100" pos="48" key="66"/>
          <note len="24" pan="0" vol="100" pos="72" key="62"/>
          <note len="24" pan="0" vol="100" pos="72" key="1"/>
          <note len="24" pan="0" vol="100" pos="96" key="62"/>
          <note len="24" pan="0" vol="100" pos="108" key="0"/>
          <note len="24" pan="0" vol="100" pos="120" key="64"/>
          <note len="24" pan="0" vol="100" pos="132" key="1"/>
          <note len="24" pan="0" vol="100" pos="144" key="62"/>
          <note len="24" pan="0" vol="100" pos="168" key="62"/>
          <note len="24" pan="0" vol="100" pos="180" key="0"/>
          <note len="24" pan="0" vol="100" pos="192" key="67"/>
          <note len="24" pan="0" vol="100" pos="204" key="1"/>
          <note len="24" pan="0" vol="100" pos="216" key="62"/>
          <note len="24" pan="0" vol="100" pos="240" key="62"/>
          <note len="24" pan="0" vol="100" pos="252" key="0"/>
          <note len="24" pan="0" vol="100" pos="264" key="66"/>
          <note len="24" pan="0" vol="100" pos="276" key="1"/>
          <note len="24" pan="0" vol="100" pos="288" key="62"/>
          <note len="24" pan="0" vol="100" pos="312" key="62"/>
          <note len="24" pan="0" vol="100" pos="324" key="0"/>
          <note len="24" pan="0" vol="100" pos="336" key="64"/>
          <note len="24" pan="0" vol="100" pos="348" key="2"/>
          <note len="24" pan="0" vol="100" pos="360" key="66"/>
        </pattern>
        <pattern type="1" name="lgtH2" steps="16" pos="45312" muted="0">
          <note len="24" pan="0" vol="100" pos="0" key="62"/>
          <note len="24" pan="0" vol="100" pos="0" key="1"/>
          <note len="24" pan="0" vol="100" pos="24" key="62"/>
          <note len="24" pan="0" vol="100" pos="36" key="0"/>
          <note len="24" pan="0" vol="100" pos="48" key="66"/>
          <note len="24" pan="0" vol="100" pos="72" key="62"/>
          <note len="24" pan="0" vol="100" pos="72" key="1"/>
          <note len="24" pan="0" vol="100" pos="96" key="62"/>
          <note len="24" pan="0" vol="100" pos="108" key="0"/>
          <note len="24" pan="0" vol="100" pos="120" key="64"/>
          <note len="24" pan="0" vol="100" pos="132" key="1"/>
          <note len="24" pan="0" vol="100" pos="144" key="62"/>
          <note len="24" pan="0" vol="100" pos="168" key="62"/>
          <note len="24" pan="0" vol="100" pos="180" key="0"/>
          <note len="24" pan="0" vol="100" pos="192" key="67"/>
          <note len="24" pan="0" vol="100" pos="204" key="1"/>
          <note len="24" pan="0" vol="100" pos="216" key="62"/>
          <note len="24" pan="0" vol="100" pos="240" key="62"/>
          <note len="24" pan="0" vol="100" pos="252" key="0"/>
          <note len="24" pan="0" vol="100" pos="264" key="66"/>
          <note len="24" pan="0" vol="100" pos="276" key="1"/>
          <note len="24" pan="0" vol="100" pos="288" key="62"/>
          <note len="24" pan="0" vol="100" pos="312" key="62"/>
          <note len="24" pan="0" vol="100" pos="324" key="0"/>
          <note len="24" pan="0" vol="100" pos="336" key="64"/>
          <note len="24" pan="0" vol="100" pos="348" key="2"/>
          <note len="24" pan="0" vol="100" pos="360" key="66"/>
        </pattern>
        <pattern type="1" name="lgtH2" steps="16" pos="45696" muted="0">
          <note len="24" pan="0" vol="100" pos="0" key="62"/>
          <note len="24" pan="0" vol="100" pos="0" key="1"/>
          <note len="24" pan="0" vol="100" pos="24" key="62"/>
          <note len="24" pan="0" vol="100" pos="36" key="0"/>
          <note len="24" pan="0" vol="100" pos="48" key="66"/>
          <note len="24" pan="0" vol="100" pos="72" key="62"/>
          <note len="24" pan="0" vol="100" pos="72" key="1"/>
          <note len="24" pan="0" vol="100" pos="96" key="62"/>
          <note len="24" pan="0" vol="100" pos="108" key="0"/>
          <note len="24" pan="0" vol="100" pos="120" key="64"/>
          <note len="24" pan="0" vol="100" pos="132" key="1"/>
          <note len="24" pan="0" vol="100" pos="144" key="62"/>
          <note len="24" pan="0" vol="100" pos="168" key="62"/>
          <note len="24" pan="0" vol="100" pos="180" key="0"/>
          <note len="24" pan="0" vol="100" pos="192" key="67"/>
          <note len="24" pan="0" vol="100" pos="204" key="1"/>
          <note len="24" pan="0" vol="100" pos="216" key="62"/>
          <note len="24" pan="0" vol="100" pos="240" key="62"/>
          <note len="24" pan="0" vol="100" pos="252" key="0"/>
          <note len="24" pan="0" vol="100" pos="264" key="66"/>
          <note len="24" pan="0" vol="100" pos="276" key="1"/>
          <note len="24" pan="0" vol="100" pos="288" key="62"/>
          <note len="24" pan="0" vol="100" pos="312" key="62"/>
          <note len="24" pan="0" vol="100" pos="324" key="0"/>
          <note len="24" pan="0" vol="100" pos="336" key="64"/>
          <note len="24" pan="0" vol="100" pos="348" key="2"/>
          <note len="24" pan="0" vol="100" pos="360" key="66"/>
        </pattern>
        <pattern type="1" name="lgtH2" steps="16" pos="46080" muted="0">
          <note len="384" pan="0" vol="195" pos="0" key="62"/>
          <note len="384" pan="0" vol="195" pos="0" key="0"/>
        </pattern>
        <pattern type="1" name="lgtH2" steps="16" pos="26880" muted="0">
          <note len="72" pan="0" vol="195" pos="0" key="71"/>
          <note len="72" pan="0" vol="195" pos="72" key="71"/>
          <note len="48" pan="0" vol="195" pos="144" key="71"/>
          <note len="72" pan="0" vol="195" pos="192" key="73"/>
          <note len="72" pan="0" vol="195" pos="264" key="71"/>
          <note len="48" pan="0" vol="195" pos="336" key="73"/>
          <note len="72" pan="0" vol="195" pos="384" key="74"/>
          <note len="72" pan="0" vol="195" pos="456" key="74"/>
          <note len="48" pan="0" vol="195" pos="528" key="74"/>
          <note len="72" pan="0" vol="195" pos="576" key="76"/>
          <note len="48" pan="0" vol="195" pos="648" key="78"/>
          <note len="24" pan="0" vol="195" pos="696" key="79"/>
          <note len="24" pan="0" vol="195" pos="720" key="78"/>
          <note len="24" pan="0" vol="195" pos="744" key="79"/>
        </pattern>
        <pattern type="1" name="lgtH2" steps="16" pos="16896" muted="0">
          <note len="72" pan="0" vol="195" pos="0" key="71"/>
          <note len="72" pan="0" vol="195" pos="72" key="71"/>
          <note len="48" pan="0" vol="195" pos="144" key="71"/>
          <note len="72" pan="0" vol="195" pos="192" key="73"/>
          <note len="72" pan="0" vol="195" pos="264" key="71"/>
          <note len="48" pan="0" vol="195" pos="336" key="73"/>
          <note len="72" pan="0" vol="195" pos="384" key="74"/>
          <note len="72" pan="0" vol="195" pos="456" key="74"/>
          <note len="48" pan="0" vol="195" pos="528" key="74"/>
          <note len="72" pan="0" vol="195" pos="576" key="76"/>
          <note len="48" pan="0" vol="195" pos="648" key="78"/>
          <note len="24" pan="0" vol="195" pos="696" key="79"/>
          <note len="24" pan="0" vol="195" pos="720" key="78"/>
          <note len="24" pan="0" vol="195" pos="744" key="79"/>
        </pattern>
        <pattern type="1" name="lgtH2" steps="16" pos="13824" muted="0">
          <note len="72" pan="0" vol="197" pos="0" key="74"/>
          <note len="48" pan="0" vol="197" pos="0" key="0"/>
          <note len="72" pan="0" vol="197" pos="72" key="73"/>
          <note len="48" pan="0" vol="197" pos="144" key="74"/>
          <note len="72" pan="0" vol="197" pos="192" key="74"/>
          <note len="72" pan="0" vol="197" pos="264" key="73"/>
          <note len="48" pan="0" vol="197" pos="336" key="74"/>
          <note len="72" pan="0" vol="197" pos="384" key="74"/>
          <note len="72" pan="0" vol="197" pos="456" key="73"/>
          <note len="48" pan="0" vol="197" pos="528" key="74"/>
          <note len="24" pan="0" vol="197" pos="576" key="74"/>
          <note len="120" pan="0" vol="197" pos="588" key="2"/>
          <note len="72" pan="0" vol="197" pos="600" key="76"/>
          <note len="48" pan="0" vol="197" pos="660" key="0"/>
          <note len="48" pan="0" vol="197" pos="672" key="74"/>
          <note len="48" pan="0" vol="197" pos="720" key="73"/>
        </pattern>
        <pattern type="1" name="" steps="16" pos="14592" muted="0">
          <note len="72" pan="0" vol="197" pos="0" key="74"/>
          <note len="48" pan="0" vol="197" pos="0" key="0"/>
          <note len="72" pan="0" vol="197" pos="72" key="73"/>
          <note len="48" pan="0" vol="197" pos="144" key="74"/>
          <note len="72" pan="0" vol="197" pos="192" key="74"/>
          <note len="72" pan="0" vol="197" pos="264" key="73"/>
          <note len="48" pan="0" vol="197" pos="336" key="74"/>
          <note len="72" pan="0" vol="197" pos="384" key="74"/>
          <note len="72" pan="0" vol="197" pos="456" key="73"/>
          <note len="48" pan="0" vol="197" pos="528" key="74"/>
          <note len="72" pan="0" vol="197" pos="576" key="76"/>
          <note len="72" pan="0" vol="197" pos="648" key="78"/>
          <note len="48" pan="0" vol="197" pos="720" key="76"/>
        </pattern>
        <pattern type="1" name="" steps="16" pos="15360" muted="0">
          <note len="72" pan="0" vol="100" pos="0" key="78"/>
          <note len="48" pan="0" vol="100" pos="0" key="0"/>
          <note len="72" pan="0" vol="100" pos="72" key="76"/>
          <note len="48" pan="0" vol="100" pos="144" key="78"/>
          <note len="72" pan="0" vol="100" pos="192" key="78"/>
          <note len="72" pan="0" vol="100" pos="264" key="76"/>
          <note len="48" pan="0" vol="100" pos="336" key="78"/>
          <note len="72" pan="0" vol="100" pos="384" key="79"/>
          <note len="72" pan="0" vol="100" pos="456" key="78"/>
          <note len="48" pan="0" vol="100" pos="528" key="76"/>
          <note len="72" pan="0" vol="100" pos="576" key="78"/>
          <note len="72" pan="0" vol="100" pos="648" key="76"/>
          <note len="48" pan="0" vol="100" pos="720" key="74"/>
        </pattern>
        <pattern type="1" name="" steps="16" pos="26112" muted="0">
          <note len="72" pan="0" vol="195" pos="0" key="73"/>
          <note len="48" pan="0" vol="195" pos="0" key="0"/>
          <note len="72" pan="0" vol="195" pos="72" key="69"/>
          <note len="48" pan="0" vol="195" pos="144" key="71"/>
          <note len="72" pan="0" vol="195" pos="192" key="73"/>
          <note len="72" pan="0" vol="195" pos="264" key="74"/>
          <note len="48" pan="0" vol="195" pos="336" key="73"/>
          <note len="48" pan="0" vol="195" pos="384" key="74"/>
          <note len="48" pan="0" vol="195" pos="432" key="69"/>
          <note len="24" pan="0" vol="195" pos="480" key="74"/>
          <note len="48" pan="0" vol="195" pos="492" key="1"/>
          <note len="24" pan="0" vol="195" pos="504" key="69"/>
          <note len="24" pan="0" vol="195" pos="528" key="74"/>
          <note len="48" pan="0" vol="195" pos="540" key="0"/>
          <note len="24" pan="0" vol="195" pos="552" key="76"/>
          <note len="24" pan="0" vol="195" pos="576" key="76"/>
          <note len="24" pan="0" vol="195" pos="588" key="2"/>
          <note len="48" pan="0" vol="195" pos="600" key="78"/>
          <note len="24" pan="0" vol="195" pos="612" key="0"/>
          <note len="48" pan="0" vol="195" pos="648" key="79"/>
          <note len="24" pan="0" vol="195" pos="696" key="78"/>
          <note len="24" pan="0" vol="195" pos="720" key="76"/>
          <note len="24" pan="0" vol="195" pos="744" key="74"/>
        </pattern>
        <pattern type="1" name="" steps="16" pos="16128" muted="0">
          <note len="72" pan="0" vol="195" pos="0" key="73"/>
          <note len="48" pan="0" vol="195" pos="0" key="0"/>
          <note len="72" pan="0" vol="195" pos="72" key="69"/>
          <note len="48" pan="0" vol="195" pos="144" key="71"/>
          <note len="72" pan="0" vol="195" pos="192" key="73"/>
          <note len="72" pan="0" vol="195" pos="264" key="74"/>
          <note len="48" pan="0" vol="195" pos="336" key="73"/>
          <note len="48" pan="0" vol="195" pos="384" key="74"/>
          <note len="48" pan="0" vol="195" pos="432" key="69"/>
          <note len="24" pan="0" vol="195" pos="480" key="74"/>
          <note len="48" pan="0" vol="195" pos="492" key="1"/>
          <note len="24" pan="0" vol="195" pos="504" key="69"/>
          <note len="24" pan="0" vol="195" pos="528" key="74"/>
          <note len="48" pan="0" vol="195" pos="540" key="0"/>
          <note len="24" pan="0" vol="195" pos="552" key="76"/>
          <note len="24" pan="0" vol="195" pos="576" key="76"/>
          <note len="24" pan="0" vol="195" pos="588" key="2"/>
          <note len="48" pan="0" vol="195" pos="600" key="78"/>
          <note len="24" pan="0" vol="195" pos="612" key="0"/>
          <note len="48" pan="0" vol="195" pos="648" key="79"/>
          <note len="24" pan="0" vol="195" pos="696" key="78"/>
          <note len="24" pan="0" vol="195" pos="720" key="76"/>
          <note len="24" pan="0" vol="195" pos="744" key="74"/>
        </pattern>
        <pattern type="1" name="" steps="16" pos="23808" muted="0">
          <note len="72" pan="0" vol="197" pos="0" key="74"/>
          <note len="48" pan="0" vol="197" pos="0" key="0"/>
          <note len="72" pan="0" vol="197" pos="72" key="73"/>
          <note len="48" pan="0" vol="197" pos="144" key="74"/>
          <note len="72" pan="0" vol="197" pos="192" key="74"/>
          <note len="72" pan="0" vol="197" pos="264" key="73"/>
          <note len="48" pan="0" vol="197" pos="336" key="74"/>
          <note len="72" pan="0" vol="197" pos="384" key="74"/>
          <note len="72" pan="0" vol="197" pos="456" key="73"/>
          <note len="48" pan="0" vol="197" pos="528" key="74"/>
          <note len="24" pan="0" vol="197" pos="576" key="74"/>
          <note len="120" pan="0" vol="197" pos="588" key="2"/>
          <note len="72" pan="0" vol="197" pos="600" key="76"/>
          <note len="48" pan="0" vol="197" pos="660" key="0"/>
          <note len="48" pan="0" vol="197" pos="672" key="74"/>
          <note len="48" pan="0" vol="197" pos="720" key="73"/>
        </pattern>
        <pattern type="1" name="" steps="16" pos="24576" muted="0">
          <note len="72" pan="0" vol="197" pos="0" key="74"/>
          <note len="48" pan="0" vol="197" pos="0" key="0"/>
          <note len="72" pan="0" vol="197" pos="72" key="73"/>
          <note len="48" pan="0" vol="197" pos="144" key="74"/>
          <note len="72" pan="0" vol="197" pos="192" key="74"/>
          <note len="72" pan="0" vol="197" pos="264" key="73"/>
          <note len="48" pan="0" vol="197" pos="336" key="74"/>
          <note len="72" pan="0" vol="197" pos="384" key="74"/>
          <note len="72" pan="0" vol="197" pos="456" key="73"/>
          <note len="48" pan="0" vol="197" pos="528" key="74"/>
          <note len="72" pan="0" vol="197" pos="576" key="76"/>
          <note len="72" pan="0" vol="197" pos="648" key="78"/>
          <note len="48" pan="0" vol="197" pos="720" key="76"/>
        </pattern>
        <pattern type="1" name="" steps="16" pos="28416" muted="0">
          <note len="48" pan="0" vol="200" pos="0" key="62"/>
          <note len="24" pan="0" vol="200" pos="48" key="69"/>
          <note len="48" pan="0" vol="200" pos="72" key="67"/>
          <note len="48" pan="0" vol="200" pos="120" key="66"/>
          <note len="96" pan="0" vol="200" pos="168" key="62"/>
          <note len="24" pan="0" vol="200" pos="264" key="69"/>
          <note len="48" pan="0" vol="200" pos="288" key="67"/>
          <note len="48" pan="0" vol="200" pos="336" key="66"/>
          <note len="48" pan="0" vol="200" pos="384" key="64"/>
          <note len="24" pan="0" vol="200" pos="432" key="62"/>
          <note len="48" pan="0" vol="200" pos="456" key="64"/>
          <note len="48" pan="0" vol="200" pos="504" key="66"/>
          <note len="96" pan="0" vol="200" pos="552" key="64"/>
          <note len="24" pan="0" vol="200" pos="648" key="64"/>
          <note len="48" pan="0" vol="200" pos="672" key="64"/>
          <note len="48" pan="0" vol="200" pos="720" key="66"/>
          <note len="48" pan="0" vol="200" pos="768" key="67"/>
          <note len="24" pan="0" vol="200" pos="816" key="69"/>
          <note len="48" pan="0" vol="200" pos="840" key="71"/>
          <note len="48" pan="0" vol="200" pos="888" key="74"/>
          <note len="72" pan="0" vol="200" pos="936" key="71"/>
          <note len="48" pan="0" vol="200" pos="1008" key="69"/>
          <note len="48" pan="0" vol="200" pos="1056" key="67"/>
          <note len="48" pan="0" vol="200" pos="1104" key="69"/>
          <note len="48" pan="0" vol="200" pos="1152" key="69"/>
          <note len="24" pan="0" vol="200" pos="1200" key="69"/>
          <note len="48" pan="0" vol="200" pos="1224" key="69"/>
          <note len="24" pan="0" vol="200" pos="1272" key="69"/>
          <note len="24" pan="0" vol="200" pos="1296" key="69"/>
          <note len="24" pan="0" vol="200" pos="1320" key="67"/>
          <note len="48" pan="0" vol="200" pos="1344" key="66"/>
          <note len="48" pan="0" vol="200" pos="1392" key="69"/>
          <note len="48" pan="0" vol="200" pos="1440" key="67"/>
          <note len="48" pan="0" vol="200" pos="1488" key="66"/>
        </pattern>
        <pattern type="1" name="" steps="16" pos="29952" muted="0">
          <note len="48" pan="0" vol="200" pos="0" key="62"/>
          <note len="48" pan="0" vol="200" pos="0" key="0"/>
          <note len="24" pan="0" vol="200" pos="48" key="69"/>
          <note len="48" pan="0" vol="200" pos="72" key="67"/>
          <note len="48" pan="0" vol="200" pos="120" key="66"/>
          <note len="96" pan="0" vol="200" pos="168" key="62"/>
          <note len="24" pan="0" vol="200" pos="264" key="69"/>
          <note len="48" pan="0" vol="200" pos="288" key="67"/>
          <note len="48" pan="0" vol="200" pos="336" key="66"/>
          <note len="48" pan="0" vol="200" pos="384" key="64"/>
          <note len="24" pan="0" vol="200" pos="432" key="62"/>
          <note len="48" pan="0" vol="200" pos="456" key="64"/>
          <note len="48" pan="0" vol="200" pos="504" key="66"/>
          <note len="96" pan="0" vol="200" pos="552" key="64"/>
          <note len="24" pan="0" vol="200" pos="648" key="64"/>
          <note len="48" pan="0" vol="200" pos="672" key="64"/>
          <note len="48" pan="0" vol="200" pos="720" key="66"/>
          <note len="48" pan="0" vol="200" pos="768" key="67"/>
          <note len="24" pan="0" vol="200" pos="816" key="69"/>
          <note len="48" pan="0" vol="200" pos="840" key="71"/>
          <note len="48" pan="0" vol="200" pos="888" key="74"/>
          <note len="72" pan="0" vol="200" pos="936" key="79"/>
          <note len="48" pan="0" vol="200" pos="1008" key="78"/>
          <note len="48" pan="0" vol="200" pos="1056" key="76"/>
          <note len="48" pan="0" vol="200" pos="1104" key="74"/>
          <note len="48" pan="0" vol="200" pos="1152" key="78"/>
          <note len="24" pan="0" vol="200" pos="1200" key="76"/>
          <note len="48" pan="0" vol="200" pos="1224" key="76"/>
          <note len="24" pan="0" vol="200" pos="1272" key="76"/>
          <note len="24" pan="0" vol="200" pos="1296" key="76"/>
          <note len="24" pan="0" vol="200" pos="1320" key="74"/>
          <note len="72" pan="0" vol="200" pos="1344" key="73"/>
          <note len="72" pan="0" vol="200" pos="1416" key="71"/>
          <note len="48" pan="0" vol="200" pos="1488" key="73"/>
          <note len="384" pan="0" vol="200" pos="1536" key="74"/>
        </pattern>
        <pattern type="1" name="" steps="16" pos="28224" muted="0">
          <note len="48" pan="0" vol="100" pos="48" key="81"/>
          <note len="48" pan="0" vol="100" pos="96" key="79"/>
          <note len="48" pan="0" vol="100" pos="144" key="78"/>
        </pattern>
        <pattern type="1" name="" steps="16" pos="18240" muted="0">
          <note len="48" pan="0" vol="100" pos="48" key="81"/>
          <note len="48" pan="0" vol="100" pos="96" key="79"/>
          <note len="48" pan="0" vol="100" pos="144" key="78"/>
        </pattern>
        <pattern type="1" name="" steps="16" pos="18432" muted="0">
          <note len="48" pan="0" vol="200" pos="0" key="62"/>
          <note len="24" pan="0" vol="200" pos="48" key="69"/>
          <note len="48" pan="0" vol="200" pos="72" key="67"/>
          <note len="48" pan="0" vol="200" pos="120" key="66"/>
          <note len="96" pan="0" vol="200" pos="168" key="62"/>
          <note len="24" pan="0" vol="200" pos="264" key="69"/>
          <note len="48" pan="0" vol="200" pos="288" key="67"/>
          <note len="48" pan="0" vol="200" pos="336" key="66"/>
          <note len="48" pan="0" vol="200" pos="384" key="64"/>
          <note len="24" pan="0" vol="200" pos="432" key="62"/>
          <note len="48" pan="0" vol="200" pos="456" key="64"/>
          <note len="48" pan="0" vol="200" pos="504" key="66"/>
          <note len="96" pan="0" vol="200" pos="552" key="64"/>
          <note len="24" pan="0" vol="200" pos="648" key="64"/>
          <note len="48" pan="0" vol="200" pos="672" key="64"/>
          <note len="48" pan="0" vol="200" pos="720" key="66"/>
          <note len="48" pan="0" vol="200" pos="768" key="67"/>
          <note len="24" pan="0" vol="200" pos="816" key="69"/>
          <note len="48" pan="0" vol="200" pos="840" key="71"/>
          <note len="48" pan="0" vol="200" pos="888" key="74"/>
          <note len="72" pan="0" vol="200" pos="936" key="71"/>
          <note len="48" pan="0" vol="200" pos="1008" key="69"/>
          <note len="48" pan="0" vol="200" pos="1056" key="67"/>
          <note len="48" pan="0" vol="200" pos="1104" key="69"/>
          <note len="48" pan="0" vol="200" pos="1152" key="69"/>
          <note len="24" pan="0" vol="200" pos="1200" key="69"/>
          <note len="48" pan="0" vol="200" pos="1224" key="69"/>
          <note len="24" pan="0" vol="200" pos="1272" key="69"/>
          <note len="24" pan="0" vol="200" pos="1296" key="69"/>
          <note len="24" pan="0" vol="200" pos="1320" key="67"/>
          <note len="48" pan="0" vol="200" pos="1344" key="66"/>
          <note len="48" pan="0" vol="200" pos="1392" key="69"/>
          <note len="48" pan="0" vol="200" pos="1440" key="67"/>
          <note len="48" pan="0" vol="200" pos="1488" key="66"/>
        </pattern>
        <pattern type="1" name="" steps="16" pos="19968" muted="0">
          <note len="48" pan="0" vol="200" pos="0" key="62"/>
          <note len="48" pan="0" vol="200" pos="0" key="0"/>
          <note len="24" pan="0" vol="200" pos="48" key="69"/>
          <note len="48" pan="0" vol="200" pos="72" key="67"/>
          <note len="48" pan="0" vol="200" pos="120" key="66"/>
          <note len="96" pan="0" vol="200" pos="168" key="62"/>
          <note len="24" pan="0" vol="200" pos="264" key="69"/>
          <note len="48" pan="0" vol="200" pos="288" key="67"/>
          <note len="48" pan="0" vol="200" pos="336" key="66"/>
          <note len="48" pan="0" vol="200" pos="384" key="64"/>
          <note len="24" pan="0" vol="200" pos="432" key="62"/>
          <note len="48" pan="0" vol="200" pos="456" key="64"/>
          <note len="48" pan="0" vol="200" pos="504" key="66"/>
          <note len="96" pan="0" vol="200" pos="552" key="64"/>
          <note len="24" pan="0" vol="200" pos="648" key="64"/>
          <note len="48" pan="0" vol="200" pos="672" key="64"/>
          <note len="48" pan="0" vol="200" pos="720" key="66"/>
          <note len="48" pan="0" vol="200" pos="768" key="67"/>
          <note len="24" pan="0" vol="200" pos="816" key="69"/>
          <note len="48" pan="0" vol="200" pos="840" key="71"/>
          <note len="48" pan="0" vol="200" pos="888" key="74"/>
          <note len="72" pan="0" vol="200" pos="936" key="79"/>
          <note len="48" pan="0" vol="200" pos="1008" key="78"/>
          <note len="48" pan="0" vol="200" pos="1056" key="76"/>
          <note len="48" pan="0" vol="200" pos="1104" key="74"/>
          <note len="48" pan="0" vol="200" pos="1152" key="78"/>
          <note len="24" pan="0" vol="200" pos="1200" key="76"/>
          <note len="48" pan="0" vol="200" pos="1224" key="76"/>
          <note len="24" pan="0" vol="200" pos="1272" key="76"/>
          <note len="24" pan="0" vol="200" pos="1296" key="76"/>
          <note len="24" pan="0" vol="200" pos="1320" key="74"/>
          <note len="72" pan="0" vol="200" pos="1344" key="73"/>
          <note len="72" pan="0" vol="200" pos="1416" key="71"/>
          <note len="48" pan="0" vol="200" pos="1488" key="73"/>
          <note len="384" pan="0" vol="200" pos="1536" key="74"/>
        </pattern>
        <pattern type="1" name="" steps="16" pos="39936" muted="0">
          <note len="48" pan="0" vol="200" pos="0" key="62"/>
          <note len="24" pan="0" vol="200" pos="48" key="69"/>
          <note len="48" pan="0" vol="200" pos="72" key="67"/>
          <note len="48" pan="0" vol="200" pos="120" key="66"/>
          <note len="96" pan="0" vol="200" pos="168" key="62"/>
          <note len="24" pan="0" vol="200" pos="264" key="69"/>
          <note len="48" pan="0" vol="200" pos="288" key="67"/>
          <note len="48" pan="0" vol="200" pos="336" key="66"/>
          <note len="48" pan="0" vol="200" pos="384" key="64"/>
          <note len="24" pan="0" vol="200" pos="432" key="62"/>
          <note len="48" pan="0" vol="200" pos="456" key="64"/>
          <note len="48" pan="0" vol="200" pos="504" key="66"/>
          <note len="96" pan="0" vol="200" pos="552" key="64"/>
          <note len="24" pan="0" vol="200" pos="648" key="64"/>
          <note len="48" pan="0" vol="200" pos="672" key="64"/>
          <note len="48" pan="0" vol="200" pos="720" key="66"/>
          <note len="48" pan="0" vol="200" pos="768" key="67"/>
          <note len="24" pan="0" vol="200" pos="816" key="69"/>
          <note len="48" pan="0" vol="200" pos="840" key="71"/>
          <note len="48" pan="0" vol="200" pos="888" key="74"/>
          <note len="72" pan="0" vol="200" pos="936" key="71"/>
          <note len="48" pan="0" vol="200" pos="1008" key="69"/>
          <note len="48" pan="0" vol="200" pos="1056" key="67"/>
          <note len="48" pan="0" vol="200" pos="1104" key="69"/>
          <note len="48" pan="0" vol="200" pos="1152" key="69"/>
          <note len="24" pan="0" vol="200" pos="1200" key="69"/>
          <note len="48" pan="0" vol="200" pos="1224" key="69"/>
          <note len="24" pan="0" vol="200" pos="1272" key="69"/>
          <note len="24" pan="0" vol="200" pos="1296" key="69"/>
          <note len="24" pan="0" vol="200" pos="1320" key="67"/>
          <note len="48" pan="0" vol="200" pos="1344" key="66"/>
          <note len="48" pan="0" vol="200" pos="1392" key="69"/>
          <note len="48" pan="0" vol="200" pos="1440" key="67"/>
          <note len="48" pan="0" vol="200" pos="1488" key="66"/>
        </pattern>
        <pattern type="1" name="" steps="16" pos="41472" muted="0">
          <note len="48" pan="0" vol="200" pos="0" key="62"/>
          <note len="48" pan="0" vol="200" pos="0" key="0"/>
          <note len="24" pan="0" vol="200" pos="48" key="69"/>
          <note len="48" pan="0" vol="200" pos="72" key="67"/>
          <note len="48" pan="0" vol="200" pos="120" key="66"/>
          <note len="96" pan="0" vol="200" pos="168" key="62"/>
          <note len="24" pan="0" vol="200" pos="264" key="69"/>
          <note len="48" pan="0" vol="200" pos="288" key="67"/>
          <note len="48" pan="0" vol="200" pos="336" key="66"/>
          <note len="48" pan="0" vol="200" pos="384" key="64"/>
          <note len="24" pan="0" vol="200" pos="432" key="62"/>
          <note len="48" pan="0" vol="200" pos="456" key="64"/>
          <note len="48" pan="0" vol="200" pos="504" key="66"/>
          <note len="96" pan="0" vol="200" pos="552" key="64"/>
          <note len="24" pan="0" vol="200" pos="648" key="64"/>
          <note len="48" pan="0" vol="200" pos="672" key="64"/>
          <note len="48" pan="0" vol="200" pos="720" key="66"/>
          <note len="48" pan="0" vol="200" pos="768" key="67"/>
          <note len="24" pan="0" vol="200" pos="816" key="69"/>
          <note len="48" pan="0" vol="200" pos="840" key="71"/>
          <note len="48" pan="0" vol="200" pos="888" key="74"/>
          <note len="72" pan="0" vol="200" pos="936" key="79"/>
          <note len="48" pan="0" vol="200" pos="1008" key="78"/>
          <note len="48" pan="0" vol="200" pos="1056" key="76"/>
          <note len="48" pan="0" vol="200" pos="1104" key="74"/>
          <note len="48" pan="0" vol="200" pos="1152" key="78"/>
          <note len="24" pan="0" vol="200" pos="1200" key="76"/>
          <note len="48" pan="0" vol="200" pos="1224" key="76"/>
          <note len="24" pan="0" vol="200" pos="1272" key="76"/>
          <note len="24" pan="0" vol="200" pos="1296" key="76"/>
          <note len="24" pan="0" vol="200" pos="1320" key="74"/>
          <note len="72" pan="0" vol="200" pos="1344" key="73"/>
          <note len="72" pan="0" vol="200" pos="1416" key="71"/>
          <note len="48" pan="0" vol="200" pos="1488" key="73"/>
        </pattern>
      </track>
      <track type="0" name="clean gt" muted="0" solo="0">
        <instrumenttrack pitch="0" usemasterpitch="1" pitchrange="1" pan="0" fxch="0" vol="101" basenote="45">
          <instrument name="carlapatchbay">
            <carlapatchbay>
              <CARLA-PROJECT VERSION="2.2">
                <EngineSettings>
                  <ForceStereo>false</ForceStereo>
                  <PreferPluginBridges>false</PreferPluginBridges>
                  <PreferUiBridges>true</PreferUiBridges>
                  <UIsAlwaysOnTop>false</UIsAlwaysOnTop>
                  <MaxParameters>200</MaxParameters>
                  <UIBridgesTimeout>4000</UIBridgesTimeout>
                  <LADSPA_PATH>/home/pass/.ladspa:/usr/lib/ladspa:/usr/local/lib/ladspa</LADSPA_PATH>
                  <DSSI_PATH>/home/pass/.dssi:/usr/lib/dssi:/usr/local/lib/dssi</DSSI_PATH>
                  <LV2_PATH>/home/pass/.lv2:/usr/lib/lv2:/usr/local/lib/lv2</LV2_PATH>
                  <VST2_PATH>/home/pass/.vst:/home/pass/.wine/drive_c/Program Files (x86)/VstPlugins:/home/pass/.wine/drive_c/Program Files/VstPlugins:/home/pass/vst:/usr/lib/lxvst:/usr/lib/vst:/usr/local/lib/lxvst:/usr/local/lib/vst/home/pass/.lxvst</VST2_PATH>
                  <VST3_PATH>/home/pass/.vst3:/home/pass/.wine/drive_c/Program Files (x86)/Common Files/VST3:/home/pass/.wine/drive_c/Program Files/Common Files/VST3:/usr/lib/vst3:/usr/local/lib/vst3</VST3_PATH>
                  <SF2_PATH>/home/pass/.sounds/sf2/home/pass/.sounds/sf3:/home/pass/samples/soundfonts:/usr/share/soundfonts:/usr/share/sounds/sf2:/usr/share/sounds/sf3</SF2_PATH>
                  <SFZ_PATH>/home/pass/.sounds/sfz:/home/pass/samples:/usr/share/sounds/sfz</SFZ_PATH>
                </EngineSettings>
                <!-- sfizz -->
                <Plugin>
                  <Info>
                    <Type>LV2</Type>
                    <Name>sfizz</Name>
                    <URI>http://sfztools.github.io/sfizz</URI>
                  </Info>
                  <Data>
                    <Active>Yes</Active>
                    <ControlChannel>1</ControlChannel>
                    <Options>0x3f0</Options>
                    <Parameter>
                      <Index>0</Index>
                      <Name>Volume</Name>
                      <Symbol>volume</Symbol>
                      <Value>0</Value>
                    </Parameter>
                    <Parameter>
                      <Index>1</Index>
                      <Name>Polyphony</Name>
                      <Symbol>num_voices</Symbol>
                      <Value>64</Value>
                    </Parameter>
                    <Parameter>
                      <Index>2</Index>
                      <Name>Internal oversampling factor</Name>
                      <Symbol>oversampling</Symbol>
                      <Value>1</Value>
                    </Parameter>
                    <Parameter>
                      <Index>3</Index>
                      <Name>Preload size</Name>
                      <Symbol>preload_size</Symbol>
                      <Value>8192</Value>
                    </Parameter>
                    <CustomData>
                      <Type>http://lv2plug.in/ns/ext/atom#Path</Type>
                      <Key>http://sfztools.github.io/sfizz:sfzfile</Key>
                      <Value>/home/pass/samples/fakeguitar/_fakeguitar1_integrated.sfz</Value>
                    </CustomData>
                    <CustomData>
                      <Type>http://lv2plug.in/ns/ext/atom#Int</Type>
                      <Key>http://sfztools.github.io/sfizz:numvoices</Key>
                      <Value>QAAAAA==</Value>
                    </CustomData>
                    <CustomData>
                      <Type>http://lv2plug.in/ns/ext/atom#Int</Type>
                      <Key>http://sfztools.github.io/sfizz:preload_size</Key>
                      <Value>ACAAAA==</Value>
                    </CustomData>
                    <CustomData>
                      <Type>http://lv2plug.in/ns/ext/atom#Int</Type>
                      <Key>http://sfztools.github.io/sfizz:oversampling</Key>
                      <Value>AQAAAA==</Value>
                    </CustomData>
                  </Data>
                </Plugin>
                <Patchbay>
                  <Connection>
                    <Source>Midi Input:Capture 1</Source>
                    <Target>sfizz:events-in</Target>
                  </Connection>
                  <Connection>
                    <Source>sfizz:Left Output</Source>
                    <Target>Audio Output:Left</Target>
                  </Connection>
                  <Connection>
                    <Source>sfizz:Right Output</Source>
                    <Target>Audio Output:Right</Target>
                  </Connection>
                  <Positions>
                    <Position x1="1693" y1="1353" pluginId="0">
                      <Name>sfizz</Name>
                    </Position>
                  </Positions>
                </Patchbay>
              </CARLA-PROJECT>
            </carlapatchbay>
          </instrument>
          <eldata fcut="14000" fres="0.5" fwet="0" ftype="0">
            <elvol sustain="0.5" lspd_denominator="4" rel="0.1" lspd_numerator="4" lspd_syncmode="0" x100="0" pdel="0" amt="0" userwavefile="" hold="0.5" dec="0.5" lspd="0.1" lamt="0" latt="0" lpdel="0" ctlenvamt="0" att="0" lshp="0"/>
            <elcut sustain="0.5" lspd_denominator="4" rel="0.1" lspd_numerator="4" lspd_syncmode="0" x100="0" pdel="0" amt="0" userwavefile="" hold="0.5" dec="0.5" lspd="0.1" lamt="0" latt="0" lpdel="0" ctlenvamt="0" att="0" lshp="0"/>
            <elres sustain="0.5" lspd_denominator="4" rel="0.1" lspd_numerator="4" lspd_syncmode="0" x100="0" pdel="0" amt="0" userwavefile="" hold="0.5" dec="0.5" lspd="0.1" lamt="0" latt="0" lpdel="0" ctlenvamt="0" att="0" lshp="0"/>
          </eldata>
          <chordcreator chordrange="1" chord="0" chord-enabled="0"/>
          <arpeggiator arpgate="100" arpskip="0" arp-enabled="0" arpmiss="0" arptime_denominator="4" arpdir="0" arpmode="0" arptime_numerator="4" arp="0" arptime="200" arprange="1" arpcycle="0" arptime_syncmode="0"/>
          <midiport fixedinputvelocity="-1" outputcontroller="0" inputchannel="0" outputchannel="1" basevelocity="63" inports="" fixedoutputnote="-1" outports="" inputcontroller="0" outputprogram="1" readable="1" writable="1" fixedoutputvelocity="-1"/>
          <fxchain numofeffects="3" enabled="1">
            <effect name="ladspaeffect" autoquit_syncmode="0" autoquit_denominator="4" autoquit_numerator="4" autoquit="1" wet="1" on="1" gate="0">
              <ladspacontrols ports="12" link="0">
                <port01 data_denominator="4" data_numerator="4" link="0" data_syncmode="0">
                  <data id="1597417" value="4.21875" scale_type="log"/>
                </port01>
                <port02 data_denominator="4" data="1.95938" data_numerator="4" link="1" data_syncmode="0"/>
                <port03 data="0.83125" link="0"/>
                <port04 data="1" link="1"/>
                <port05 data="0.605" link="0"/>
                <port06 data="0" link="1"/>
                <port11 data_denominator="4" data_numerator="4" data_syncmode="0">
                  <data id="8101823" value="5" scale_type="log"/>
                </port11>
                <port12 data_denominator="4" data="1.95938" data_numerator="4" data_syncmode="0"/>
                <port13 data="1.66875"/>
                <port14 data="1"/>
                <port15 data="0.43875"/>
                <port16 data="0"/>
              </ladspacontrols>
              <key>
                <attribute name="file" value="caps"/>
                <attribute name="plugin" value="ChorusI"/>
              </key>
            </effect>
            <effect name="ladspaeffect" autoquit_syncmode="0" autoquit_denominator="4" autoquit_numerator="4" autoquit="1" wet="1" on="1" gate="0">
              <ladspacontrols ports="9">
                <port07>
                  <data id="6962959" value="0.989846" scale_type="log"/>
                </port07>
                <port08>
                  <data id="5691541" value="6324.56" scale_type="log"/>
                </port08>
                <port09 data="2"/>
                <port010 data="0.5"/>
                <port011 data="0.5"/>
                <port012 data="1"/>
                <port013 data="0"/>
                <port014>
                  <data id="2700134" value="632.456" scale_type="log"/>
                </port014>
                <port015>
                  <data id="3450079" value="3556.56" scale_type="log"/>
                </port015>
              </ladspacontrols>
              <key>
                <attribute name="file" value="calf"/>
                <attribute name="plugin" value="Reverb"/>
              </key>
            </effect>
            <effect name="eq" autoquit_syncmode="0" autoquit_denominator="4" autoquit_numerator="4" autoquit="1" wet="1" on="1" gate="0">
              <Eq Peak1bw="0.3" Peak3bw="0.3" Peak2bw="0.3" AnalyseIn="1" AnalyseOut="1" Peak3gain="0" HP24="0" LPactive="0" Peak4active="0" LP24="0" HP12="1" HP48="0" HPactive="0" HighShelfres="1.4" LP12="1" Peak1active="0" LPres="0.707" Peak3active="0" Peak4gain="0" Highshelfactive="1" HP="0" LowShelfres="1.4" Lowshelfgain="0" Outputgain="0" LP48="0" HPres="0.707" HighShelfgain="2.34" Lowshelfactive="0" LP="0" Peak2gain="0" Peak4bw="0.3" Peak2active="0">
                <Inputgain id="2728854" value="0" scale_type="log"/>
                <Peak1gain id="7044872" value="0" scale_type="log"/>
                <HPfreq id="6571347" value="31" scale_type="log"/>
                <LowShelffreq id="8343197" value="80" scale_type="log"/>
                <Peak1freq id="449787" value="120" scale_type="log"/>
                <Peak2freq id="5218942" value="250" scale_type="log"/>
                <Peak3freq id="890820" value="2000" scale_type="log"/>
                <Peak4freq id="2887760" value="4000" scale_type="log"/>
                <Highshelffreq id="2312957" value="967.939" scale_type="log"/>
                <LPfreq id="4287177" value="18000" scale_type="log"/>
              </Eq>
              <key/>
            </effect>
          </fxchain>
        </instrumenttrack>
        <pattern type="1" name="clean gt" steps="16" pos="0" muted="0">
          <note len="144" pan="0" vol="200" pos="0" key="42"/>
          <note len="384" pan="0" vol="191" pos="0" key="0"/>
          <note len="144" pan="0" vol="200" pos="48" key="47"/>
          <note len="144" pan="0" vol="200" pos="96" key="54"/>
          <note len="144" pan="0" vol="200" pos="144" key="42"/>
          <note len="144" pan="0" vol="200" pos="192" key="47"/>
          <note len="144" pan="0" vol="200" pos="240" key="52"/>
          <note len="144" pan="0" vol="200" pos="288" key="42"/>
          <note len="144" pan="0" vol="200" pos="336" key="47"/>
          <note len="144" pan="0" vol="200" pos="384" key="55"/>
          <note len="144" pan="0" vol="200" pos="432" key="42"/>
          <note len="144" pan="0" vol="200" pos="480" key="47"/>
          <note len="144" pan="0" vol="200" pos="528" key="54"/>
          <note len="192" pan="0" vol="200" pos="576" key="42"/>
          <note len="192" pan="0" vol="200" pos="624" key="47"/>
          <note len="336" pan="0" vol="200" pos="672" key="52"/>
          <note len="144" pan="0" vol="200" pos="720" key="54"/>
          <note len="144" pan="0" vol="200" pos="768" key="42"/>
          <note len="144" pan="0" vol="200" pos="816" key="47"/>
          <note len="144" pan="0" vol="200" pos="864" key="54"/>
          <note len="144" pan="0" vol="200" pos="912" key="42"/>
          <note len="144" pan="0" vol="200" pos="960" key="47"/>
          <note len="144" pan="0" vol="200" pos="1008" key="52"/>
          <note len="144" pan="0" vol="200" pos="1056" key="42"/>
          <note len="144" pan="0" vol="200" pos="1104" key="47"/>
          <note len="144" pan="0" vol="200" pos="1152" key="55"/>
          <note len="144" pan="0" vol="200" pos="1200" key="42"/>
          <note len="144" pan="0" vol="200" pos="1248" key="47"/>
          <note len="144" pan="0" vol="200" pos="1296" key="54"/>
          <note len="192" pan="0" vol="200" pos="1344" key="42"/>
          <note len="192" pan="0" vol="200" pos="1392" key="47"/>
          <note len="336" pan="0" vol="200" pos="1440" key="52"/>
          <note len="144" pan="0" vol="200" pos="1488" key="54"/>
          <note len="144" pan="0" vol="200" pos="1536" key="43"/>
          <note len="144" pan="0" vol="200" pos="1584" key="47"/>
          <note len="144" pan="0" vol="200" pos="1632" key="54"/>
          <note len="144" pan="0" vol="200" pos="1680" key="43"/>
          <note len="144" pan="0" vol="200" pos="1728" key="47"/>
          <note len="144" pan="0" vol="200" pos="1776" key="52"/>
          <note len="144" pan="0" vol="200" pos="1824" key="43"/>
          <note len="144" pan="0" vol="200" pos="1872" key="47"/>
          <note len="144" pan="0" vol="200" pos="1920" key="55"/>
          <note len="144" pan="0" vol="200" pos="1968" key="43"/>
          <note len="144" pan="0" vol="200" pos="2016" key="47"/>
          <note len="144" pan="0" vol="200" pos="2064" key="54"/>
          <note len="192" pan="0" vol="200" pos="2112" key="43"/>
          <note len="192" pan="0" vol="200" pos="2160" key="47"/>
          <note len="336" pan="0" vol="200" pos="2208" key="52"/>
          <note len="144" pan="0" vol="200" pos="2256" key="54"/>
          <note len="144" pan="0" vol="200" pos="2304" key="43"/>
          <note len="144" pan="0" vol="200" pos="2352" key="47"/>
          <note len="144" pan="0" vol="200" pos="2400" key="54"/>
          <note len="144" pan="0" vol="200" pos="2448" key="43"/>
          <note len="144" pan="0" vol="200" pos="2496" key="47"/>
          <note len="144" pan="0" vol="200" pos="2544" key="52"/>
          <note len="144" pan="0" vol="200" pos="2592" key="43"/>
          <note len="144" pan="0" vol="200" pos="2640" key="47"/>
          <note len="144" pan="0" vol="200" pos="2688" key="55"/>
          <note len="144" pan="0" vol="200" pos="2736" key="43"/>
          <note len="144" pan="0" vol="200" pos="2784" key="47"/>
          <note len="144" pan="0" vol="200" pos="2832" key="54"/>
          <note len="192" pan="0" vol="200" pos="2880" key="43"/>
          <note len="192" pan="0" vol="200" pos="2928" key="47"/>
          <note len="336" pan="0" vol="200" pos="2976" key="52"/>
          <note len="144" pan="0" vol="200" pos="3024" key="54"/>
          <note len="144" pan="0" vol="200" pos="3072" key="42"/>
          <note len="144" pan="0" vol="200" pos="3120" key="47"/>
          <note len="144" pan="0" vol="200" pos="3168" key="62"/>
          <note len="144" pan="0" vol="200" pos="3168" key="54"/>
          <note len="144" pan="0" vol="200" pos="3216" key="42"/>
          <note len="144" pan="0" vol="200" pos="3264" key="47"/>
          <note len="144" pan="0" vol="200" pos="3312" key="61"/>
          <note len="144" pan="0" vol="200" pos="3312" key="52"/>
          <note len="144" pan="0" vol="200" pos="3360" key="42"/>
          <note len="144" pan="0" vol="200" pos="3408" key="47"/>
          <note len="144" pan="0" vol="200" pos="3456" key="64"/>
          <note len="144" pan="0" vol="200" pos="3456" key="55"/>
          <note len="144" pan="0" vol="200" pos="3504" key="42"/>
          <note len="144" pan="0" vol="200" pos="3552" key="47"/>
          <note len="144" pan="0" vol="200" pos="3600" key="62"/>
          <note len="144" pan="0" vol="200" pos="3600" key="54"/>
          <note len="192" pan="0" vol="200" pos="3648" key="42"/>
          <note len="192" pan="0" vol="200" pos="3696" key="47"/>
          <note len="48" pan="0" vol="200" pos="3744" key="61"/>
          <note len="336" pan="0" vol="200" pos="3744" key="52"/>
          <note len="144" pan="0" vol="200" pos="3792" key="62"/>
          <note len="144" pan="0" vol="200" pos="3792" key="54"/>
          <note len="144" pan="0" vol="200" pos="3840" key="42"/>
          <note len="144" pan="0" vol="200" pos="3888" key="47"/>
          <note len="144" pan="0" vol="200" pos="3936" key="62"/>
          <note len="144" pan="0" vol="200" pos="3936" key="54"/>
          <note len="144" pan="0" vol="200" pos="3984" key="42"/>
          <note len="144" pan="0" vol="200" pos="4032" key="47"/>
          <note len="144" pan="0" vol="200" pos="4080" key="61"/>
          <note len="144" pan="0" vol="200" pos="4080" key="52"/>
          <note len="144" pan="0" vol="200" pos="4128" key="42"/>
          <note len="144" pan="0" vol="200" pos="4176" key="47"/>
          <note len="144" pan="0" vol="200" pos="4224" key="64"/>
          <note len="144" pan="0" vol="200" pos="4224" key="55"/>
          <note len="144" pan="0" vol="200" pos="4272" key="42"/>
          <note len="144" pan="0" vol="200" pos="4320" key="47"/>
          <note len="144" pan="0" vol="200" pos="4368" key="62"/>
          <note len="144" pan="0" vol="200" pos="4368" key="54"/>
          <note len="192" pan="0" vol="200" pos="4416" key="42"/>
          <note len="192" pan="0" vol="200" pos="4464" key="47"/>
          <note len="48" pan="0" vol="200" pos="4512" key="61"/>
          <note len="336" pan="0" vol="200" pos="4512" key="52"/>
          <note len="144" pan="0" vol="200" pos="4560" key="62"/>
          <note len="144" pan="0" vol="200" pos="4560" key="54"/>
          <note len="144" pan="0" vol="200" pos="4608" key="43"/>
          <note len="144" pan="0" vol="200" pos="4656" key="47"/>
          <note len="144" pan="0" vol="200" pos="4704" key="62"/>
          <note len="144" pan="0" vol="200" pos="4704" key="54"/>
          <note len="144" pan="0" vol="200" pos="4752" key="43"/>
          <note len="144" pan="0" vol="200" pos="4800" key="47"/>
          <note len="144" pan="0" vol="200" pos="4848" key="61"/>
          <note len="144" pan="0" vol="200" pos="4848" key="52"/>
          <note len="144" pan="0" vol="200" pos="4896" key="43"/>
          <note len="144" pan="0" vol="200" pos="4944" key="47"/>
          <note len="144" pan="0" vol="200" pos="4992" key="64"/>
          <note len="144" pan="0" vol="200" pos="4992" key="55"/>
          <note len="144" pan="0" vol="200" pos="5040" key="43"/>
          <note len="144" pan="0" vol="200" pos="5088" key="47"/>
          <note len="144" pan="0" vol="200" pos="5136" key="62"/>
          <note len="144" pan="0" vol="200" pos="5136" key="54"/>
          <note len="192" pan="0" vol="200" pos="5184" key="43"/>
          <note len="192" pan="0" vol="200" pos="5232" key="47"/>
          <note len="48" pan="0" vol="200" pos="5280" key="61"/>
          <note len="336" pan="0" vol="200" pos="5280" key="52"/>
          <note len="144" pan="0" vol="200" pos="5328" key="62"/>
          <note len="144" pan="0" vol="200" pos="5328" key="54"/>
          <note len="144" pan="0" vol="200" pos="5376" key="43"/>
          <note len="144" pan="0" vol="200" pos="5424" key="47"/>
          <note len="144" pan="0" vol="200" pos="5472" key="62"/>
          <note len="144" pan="0" vol="200" pos="5472" key="54"/>
          <note len="144" pan="0" vol="200" pos="5520" key="43"/>
          <note len="144" pan="0" vol="200" pos="5568" key="47"/>
          <note len="144" pan="0" vol="200" pos="5616" key="61"/>
          <note len="144" pan="0" vol="200" pos="5616" key="52"/>
          <note len="144" pan="0" vol="200" pos="5664" key="43"/>
          <note len="144" pan="0" vol="200" pos="5712" key="47"/>
          <note len="144" pan="0" vol="200" pos="5760" key="64"/>
          <note len="144" pan="0" vol="200" pos="5760" key="55"/>
          <note len="144" pan="0" vol="200" pos="5808" key="43"/>
          <note len="144" pan="0" vol="200" pos="5856" key="47"/>
          <note len="144" pan="0" vol="200" pos="5904" key="62"/>
          <note len="144" pan="0" vol="200" pos="5904" key="54"/>
          <note len="192" pan="0" vol="200" pos="5952" key="43"/>
          <note len="144" pan="0" vol="200" pos="6000" key="47"/>
          <note len="48" pan="0" vol="200" pos="6048" key="61"/>
          <note len="96" pan="0" vol="200" pos="6048" key="52"/>
          <note len="48" pan="0" vol="200" pos="6096" key="62"/>
          <note len="48" pan="0" vol="200" pos="6096" key="54"/>
        </pattern>
      </track>
      <track type="2" name="lgt_s" muted="0" solo="0">
        <sampletrack pan="0" vol="119.3">
          <fxchain numofeffects="2" enabled="1">
            <effect name="eq" autoquit_syncmode="0" autoquit_denominator="4" autoquit_numerator="4" autoquit="1" wet="1" on="1" gate="0">
              <Eq Peak1bw="0.3" Peak3bw="0.3" Peak2bw="0.3" AnalyseIn="1" AnalyseOut="1" Peak3gain="0" HP24="0" LPactive="1" Peak4active="0" LP24="0" HP12="1" HP48="0" HPactive="1" HighShelfres="1.4" LP12="1" Peak1active="0" LPres="0.707" Peak3active="0" Peak4gain="0" Highshelfactive="0" HP="0" LowShelfres="1.4" Lowshelfgain="0" Outputgain="0" LP48="0" HPres="0.707" HighShelfgain="0" Lowshelfactive="0" LP="0" Peak2gain="0" Peak4bw="0.3" Peak2active="0">
                <Inputgain id="3129300" value="0" scale_type="log"/>
                <Peak1gain id="5334324" value="0" scale_type="log"/>
                <HPfreq id="749658" value="160.212" scale_type="log"/>
                <LowShelffreq id="6759763" value="80" scale_type="log"/>
                <Peak1freq id="4496919" value="120" scale_type="log"/>
                <Peak2freq id="221742" value="250" scale_type="log"/>
                <Peak3freq id="170271" value="2000" scale_type="log"/>
                <Peak4freq id="4013975" value="4000" scale_type="log"/>
                <Highshelffreq id="4021003" value="12000" scale_type="log"/>
                <LPfreq id="6811624" value="5435.91" scale_type="log"/>
              </Eq>
              <key/>
            </effect>
            <effect name="ladspaeffect" autoquit_syncmode="0" autoquit_denominator="4" autoquit_numerator="4" autoquit="1" wet="1" on="1" gate="0">
              <ladspacontrols ports="6" link="0">
                <port00 data_denominator="4" data="262.5" data_numerator="4" link="0" data_syncmode="0"/>
                <port01 data="0.2125" link="1"/>
                <port04 data="0.0825" link="1"/>
                <port10 data_denominator="4" data="763.75" data_numerator="4" data_syncmode="0"/>
                <port11 data="0.2125"/>
                <port14 data="0.0825"/>
              </ladspacontrols>
              <key>
                <attribute name="file" value="cmt"/>
                <attribute name="plugin" value="fbdelay_1s"/>
              </key>
            </effect>
          </fxchain>
        </sampletrack>
        <sampletco len="46473" src="/home/pass/my_scripts/learningGuitar/legendary shadow/lgt_s_1.wav" sample_rate="44100" pos="0" muted="0"/>
      </track>
      <track type="2" name="lgt_h" muted="0" solo="0">
        <sampletrack pan="0" vol="137.6">
          <fxchain numofeffects="4" enabled="1">
            <effect name="eq" autoquit_syncmode="0" autoquit_denominator="4" autoquit_numerator="4" autoquit="1" wet="1" on="1" gate="0">
              <Eq Peak1bw="0.3" Peak3bw="0.3" Peak2bw="0.3" AnalyseIn="1" AnalyseOut="1" Peak3gain="0" HP24="0" LPactive="1" Peak4active="0" LP24="0" HP12="1" HP48="0" HPactive="1" HighShelfres="1.4" LP12="1" Peak1active="0" LPres="0.707" Peak3active="0" Peak4gain="0" Highshelfactive="0" HP="0" LowShelfres="1.4" Lowshelfgain="0" Outputgain="0" LP48="0" HPres="0.707" HighShelfgain="0" Lowshelfactive="0" LP="0" Peak2gain="0" Peak4bw="0.3" Peak2active="0">
                <Inputgain id="5315346" value="0" scale_type="log"/>
                <Peak1gain id="1347710" value="0" scale_type="log"/>
                <HPfreq id="4541506" value="160.212" scale_type="log"/>
                <LowShelffreq id="4759670" value="80" scale_type="log"/>
                <Peak1freq id="2675918" value="120" scale_type="log"/>
                <Peak2freq id="7671047" value="250" scale_type="log"/>
                <Peak3freq id="5178340" value="2000" scale_type="log"/>
                <Peak4freq id="7230591" value="4000" scale_type="log"/>
                <Highshelffreq id="8086445" value="12000" scale_type="log"/>
                <LPfreq id="7789806" value="5780.15" scale_type="log"/>
              </Eq>
              <key/>
            </effect>
            <effect name="ladspaeffect" autoquit_syncmode="0" autoquit_denominator="4" autoquit_numerator="4" autoquit="1" wet="1" on="1" gate="0">
              <ladspacontrols ports="6" link="0">
                <port00 data_denominator="4" data="262.5" data_numerator="4" link="0" data_syncmode="0"/>
                <port01 data="0.2125" link="1"/>
                <port04 data="0.0825" link="1"/>
                <port10 data_denominator="4" data="763.75" data_numerator="4" data_syncmode="0"/>
                <port11 data="0.2125"/>
                <port14 data="0.0825"/>
              </ladspacontrols>
              <key>
                <attribute name="file" value="cmt"/>
                <attribute name="plugin" value="fbdelay_1s"/>
              </key>
            </effect>
            <effect name="ladspaeffect" autoquit_syncmode="0" autoquit_denominator="4" autoquit_numerator="4" autoquit="1" wet="1" on="1" gate="0">
              <ladspacontrols ports="1">
                <port02 data="0.3925"/>
              </ladspacontrols>
              <key>
                <attribute name="file" value="caps"/>
                <attribute name="plugin" value="Narrower"/>
              </key>
            </effect>
            <effect name="amplifier" autoquit_syncmode="0" autoquit_denominator="4" autoquit_numerator="4" autoquit="1" wet="1" on="1" gate="0">
              <AmplifierControls right="100" left="100" pan="0">
                <volume id="2519828" value="99.7667" scale_type="linear"/>
              </AmplifierControls>
              <key/>
            </effect>
          </fxchain>
        </sampletrack>
        <sampletco len="46848" src="/home/pass/my_scripts/learningGuitar/legendary shadow/lgt_h_pair_1.wav" sample_rate="44100" pos="0" muted="0"/>
      </track>
      <track type="2" name="lgt_bg" muted="0" solo="0">
        <sampletrack pan="0" vol="98.4">
          <fxchain numofeffects="3" enabled="1">
            <effect name="eq" autoquit_syncmode="0" autoquit_denominator="4" autoquit_numerator="4" autoquit="1" wet="1" on="1" gate="0">
              <Eq Peak1bw="0.3" Peak3bw="0.3" Peak2bw="0.3" AnalyseIn="1" AnalyseOut="1" Peak3gain="0" HP24="0" LPactive="1" Peak4active="0" LP24="0" HP12="1" HP48="0" HPactive="1" HighShelfres="1.4" LP12="1" Peak1active="0" LPres="0.707" Peak3active="0" Peak4gain="0" Highshelfactive="0" HP="0" LowShelfres="1.4" Lowshelfgain="0" Outputgain="0" LP48="0" HPres="0.707" HighShelfgain="0" Lowshelfactive="0" LP="0" Peak2gain="0" Peak4bw="0.3" Peak2active="0">
                <Inputgain id="6568110" value="0" scale_type="log"/>
                <Peak1gain id="5447954" value="0" scale_type="log"/>
                <HPfreq id="2850539" value="160.212" scale_type="log"/>
                <LowShelffreq id="7461190" value="80" scale_type="log"/>
                <Peak1freq id="280765" value="120" scale_type="log"/>
                <Peak2freq id="5148880" value="250" scale_type="log"/>
                <Peak3freq id="936114" value="2000" scale_type="log"/>
                <Peak4freq id="8181831" value="4000" scale_type="log"/>
                <Highshelffreq id="3634077" value="12000" scale_type="log"/>
                <LPfreq id="1775875" value="5780.15" scale_type="log"/>
              </Eq>
              <key/>
            </effect>
            <effect name="ladspaeffect" autoquit_syncmode="0" autoquit_denominator="4" autoquit_numerator="4" autoquit="1" wet="1" on="1" gate="0">
              <ladspacontrols ports="6" link="0">
                <port00 data_denominator="4" data="262.5" data_numerator="4" link="0" data_syncmode="0"/>
                <port01 data="0.2125" link="1"/>
                <port04 data="0.0825" link="1"/>
                <port10 data_denominator="4" data="763.75" data_numerator="4" data_syncmode="0"/>
                <port11 data="0.2125"/>
                <port14 data="0.0825"/>
              </ladspacontrols>
              <key>
                <attribute name="file" value="cmt"/>
                <attribute name="plugin" value="fbdelay_1s"/>
              </key>
            </effect>
            <effect name="ladspaeffect" autoquit_syncmode="0" autoquit_denominator="4" autoquit_numerator="4" autoquit="1" wet="1" on="1" gate="0">
              <ladspacontrols ports="1">
                <port02 data="0.29"/>
              </ladspacontrols>
              <key>
                <attribute name="file" value="caps"/>
                <attribute name="plugin" value="Narrower"/>
              </key>
            </effect>
          </fxchain>
        </sampletrack>
        <sampletco len="46473" src="/home/pass/my_scripts/learningGuitar/legendary shadow/lgt_h_pair_2.wav" sample_rate="44100" pos="0" muted="0"/>
      </track>
      <track type="2" name="rgt_bounced" muted="0" solo="0">
        <sampletrack pan="0" vol="100">
          <fxchain numofeffects="1" enabled="1">
            <effect name="eq" autoquit_syncmode="0" autoquit_denominator="4" autoquit_numerator="4" autoquit="1" wet="1" on="1" gate="0">
              <Eq Peak1bw="0.3" Peak3bw="0.863" Peak2bw="0.3" AnalyseIn="1" AnalyseOut="1" Peak3gain="-2.16" HP24="0" LPactive="1" Peak4active="1" LP24="0" HP12="1" HP48="0" HPactive="1" HighShelfres="1.4" LP12="1" Peak1active="0" LPres="0.707" Peak3active="1" Peak4gain="-0.18" Highshelfactive="0" HP="0" LowShelfres="1.4" Lowshelfgain="0" Outputgain="0" LP48="0" HPres="0.707" HighShelfgain="0" Lowshelfactive="0" LP="0" Peak2gain="-0.18" Peak4bw="0.3" Peak2active="1">
                <Inputgain id="1208948" value="0" scale_type="log"/>
                <Peak1gain id="3406630" value="0" scale_type="log"/>
                <HPfreq id="2685389" value="274.176" scale_type="log"/>
                <LowShelffreq id="6439710" value="80" scale_type="log"/>
                <Peak1freq id="7990679" value="120" scale_type="log"/>
                <Peak2freq id="4370715" value="105.83" scale_type="log"/>
                <Peak3freq id="4103557" value="833.739" scale_type="log"/>
                <Peak4freq id="2073222" value="3537.75" scale_type="log"/>
                <Highshelffreq id="2390524" value="12000" scale_type="log"/>
                <LPfreq id="7312592" value="7503.65" scale_type="log"/>
              </Eq>
              <key/>
            </effect>
          </fxchain>
        </sampletrack>
        <sampletco len="46848" src="/home/pass/my_scripts/learningGuitar/legendary shadow/rgt_bounced.wav" sample_rate="44100" pos="0" muted="0"/>
      </track>
      <track type="0" name="Metal Drips" muted="0" solo="0">
        <instrumenttrack pitch="0" usemasterpitch="1" pitchrange="1" pan="0" fxch="0" vol="58.1" basenote="57">
          <instrument name="zynaddsubfx">
            <zynaddsubfx filterfreq="64" filterq="64" portamento="0" bandwidth="64" rescenterfreq="64" resbandwidth="64" forwardmidicc="1" modifiedcontrollers="" fmgain="127">
              <ZynAddSubFX-data version-major="2" version-revision="1" version-minor="4" ZynAddSubFX-author="Nasca Octavian Paul">
                <INFORMATION/>
                <BASE_PARAMETERS>
                  <par name="max_midi_parts" value="16"/>
                  <par name="max_kit_items_per_instrument" value="16"/>
                  <par name="max_system_effects" value="4"/>
                  <par name="max_insertion_effects" value="8"/>
                  <par name="max_instrument_effects" value="3"/>
                  <par name="max_addsynth_voices" value="8"/>
                </BASE_PARAMETERS>
                <MASTER>
                  <par name="volume" value="80"/>
                  <par name="key_shift" value="64"/>
                  <par_bool name="nrpn_receive" value="yes"/>
                  <MICROTONAL>
                    <string name="name">12tET</string>
                    <string name="comment">Equal Temperament 12 notes per octave</string>
                    <par_bool name="invert_up_down" value="no"/>
                    <par name="invert_up_down_center" value="60"/>
                    <par_bool name="enabled" value="no"/>
                    <par name="global_fine_detune" value="64"/>
                    <par name="a_note" value="69"/>
                    <par_real name="a_freq" value="440.000000"/>
                  </MICROTONAL>
                  <PART id="0">
                    <par_bool name="enabled" value="yes"/>
                    <par name="volume" value="96"/>
                    <par name="panning" value="64"/>
                    <par name="min_key" value="0"/>
                    <par name="max_key" value="127"/>
                    <par name="key_shift" value="76"/>
                    <par name="rcv_chn" value="0"/>
                    <par name="velocity_sensing" value="64"/>
                    <par name="velocity_offset" value="64"/>
                    <par_bool name="note_on" value="yes"/>
                    <par_bool name="poly_mode" value="yes"/>
                    <par name="legato_mode" value="0"/>
                    <par name="key_limit" value="15"/>
                    <INSTRUMENT>
                      <INFO>
                        <string name="name">Metal Drips</string>
                        <string name="author">Will Godfrey
GPL V 2 or later</string>
                        <string name="comments">Works best mid range
high velocity</string>
                        <par name="type" value="11"/>
                      </INFO>
                      <INSTRUMENT_KIT>
                        <par name="kit_mode" value="0"/>
                        <par_bool name="drum_mode" value="no"/>
                        <INSTRUMENT_KIT_ITEM id="0">
                          <par_bool name="enabled" value="yes"/>
                          <string name="name"/>
                          <par_bool name="muted" value="no"/>
                          <par name="min_key" value="0"/>
                          <par name="max_key" value="127"/>
                          <par name="send_to_instrument_effect" value="0"/>
                          <par_bool name="add_enabled" value="yes"/>
                          <ADD_SYNTH_PARAMETERS>
                            <par_bool name="stereo" value="yes"/>
                            <AMPLITUDE_PARAMETERS>
                              <par name="volume" value="90"/>
                              <par name="panning" value="62"/>
                              <par name="velocity_sensing" value="70"/>
                              <par name="punch_strength" value="0"/>
                              <par name="punch_time" value="60"/>
                              <par name="punch_stretch" value="64"/>
                              <par name="punch_velocity_sensing" value="72"/>
                              <par name="harmonic_randomness_grouping" value="0"/>
                              <AMPLITUDE_ENVELOPE>
                                <par_bool name="free_mode" value="no"/>
                                <par name="env_points" value="4"/>
                                <par name="env_sustain" value="2"/>
                                <par name="env_stretch" value="0"/>
                                <par_bool name="forced_release" value="yes"/>
                                <par_bool name="linear_envelope" value="yes"/>
                                <par name="A_dt" value="1"/>
                                <par name="D_dt" value="70"/>
                                <par name="R_dt" value="37"/>
                                <par name="A_val" value="64"/>
                                <par name="D_val" value="64"/>
                                <par name="S_val" value="30"/>
                                <par name="R_val" value="64"/>
                              </AMPLITUDE_ENVELOPE>
                              <AMPLITUDE_LFO>
                                <par_real name="freq" value="0.630000"/>
                                <par name="intensity" value="0"/>
                                <par name="start_phase" value="64"/>
                                <par name="lfo_type" value="0"/>
                                <par name="randomness_amplitude" value="0"/>
                                <par name="randomness_frequency" value="0"/>
                                <par name="delay" value="0"/>
                                <par name="stretch" value="64"/>
                                <par_bool name="continous" value="no"/>
                              </AMPLITUDE_LFO>
                            </AMPLITUDE_PARAMETERS>
                            <FREQUENCY_PARAMETERS>
                              <par name="detune" value="8192"/>
                              <par name="coarse_detune" value="0"/>
                              <par name="detune_type" value="1"/>
                              <par name="bandwidth" value="64"/>
                              <FREQUENCY_ENVELOPE>
                                <par_bool name="free_mode" value="no"/>
                                <par name="env_points" value="3"/>
                                <par name="env_sustain" value="1"/>
                                <par name="env_stretch" value="0"/>
                                <par_bool name="forced_release" value="no"/>
                                <par_bool name="linear_envelope" value="no"/>
                                <par name="A_dt" value="50"/>
                                <par name="D_dt" value="10"/>
                                <par name="R_dt" value="60"/>
                                <par name="A_val" value="64"/>
                                <par name="D_val" value="64"/>
                                <par name="S_val" value="64"/>
                                <par name="R_val" value="64"/>
                              </FREQUENCY_ENVELOPE>
                              <FREQUENCY_LFO>
                                <par_real name="freq" value="0.545000"/>
                                <par name="intensity" value="41"/>
                                <par name="start_phase" value="64"/>
                                <par name="lfo_type" value="0"/>
                                <par name="randomness_amplitude" value="0"/>
                                <par name="randomness_frequency" value="0"/>
                                <par name="delay" value="27"/>
                                <par name="stretch" value="64"/>
                                <par_bool name="continous" value="no"/>
                              </FREQUENCY_LFO>
                            </FREQUENCY_PARAMETERS>
                            <FILTER_PARAMETERS>
                              <par name="velocity_sensing_amplitude" value="53"/>
                              <par name="velocity_sensing" value="93"/>
                              <FILTER>
                                <par name="category" value="0"/>
                                <par name="type" value="0"/>
                                <par name="freq" value="99"/>
                                <par name="q" value="24"/>
                                <par name="stages" value="0"/>
                                <par name="freq_track" value="64"/>
                                <par name="gain" value="64"/>
                              </FILTER>
                              <FILTER_ENVELOPE>
                                <par_bool name="free_mode" value="no"/>
                                <par name="env_points" value="4"/>
                                <par name="env_sustain" value="2"/>
                                <par name="env_stretch" value="0"/>
                                <par_bool name="forced_release" value="yes"/>
                                <par_bool name="linear_envelope" value="no"/>
                                <par name="A_dt" value="28"/>
                                <par name="D_dt" value="70"/>
                                <par name="R_dt" value="60"/>
                                <par name="A_val" value="65"/>
                                <par name="D_val" value="64"/>
                                <par name="S_val" value="64"/>
                                <par name="R_val" value="64"/>
                              </FILTER_ENVELOPE>
                              <FILTER_LFO>
                                <par_real name="freq" value="0.630000"/>
                                <par name="intensity" value="0"/>
                                <par name="start_phase" value="64"/>
                                <par name="lfo_type" value="0"/>
                                <par name="randomness_amplitude" value="0"/>
                                <par name="randomness_frequency" value="0"/>
                                <par name="delay" value="0"/>
                                <par name="stretch" value="64"/>
                                <par_bool name="continous" value="no"/>
                              </FILTER_LFO>
                            </FILTER_PARAMETERS>
                            <RESONANCE>
                              <par_bool name="enabled" value="no"/>
                            </RESONANCE>
                            <VOICE id="0">
                              <par_bool name="enabled" value="yes"/>
                              <par name="type" value="0"/>
                              <par name="unison_size" value="1"/>
                              <par name="unison_frequency_spread" value="60"/>
                              <par name="unison_stereo_spread" value="64"/>
                              <par name="unison_vibratto" value="64"/>
                              <par name="unison_vibratto_speed" value="64"/>
                              <par name="unison_invert_phase" value="0"/>
                              <par name="unison_phase_randomness" value="127"/>
                              <par name="delay" value="0"/>
                              <par_bool name="resonance" value="yes"/>
                              <par name="ext_oscil" value="-1"/>
                              <par name="ext_fm_oscil" value="-1"/>
                              <par name="oscil_phase" value="64"/>
                              <par name="oscil_fm_phase" value="64"/>
                              <par_bool name="filter_enabled" value="no"/>
                              <par_bool name="filter_bypass" value="no"/>
                              <par name="fm_enabled" value="0"/>
                              <OSCIL>
                                <par name="harmonic_mag_type" value="0"/>
                                <par name="base_function" value="4"/>
                                <par name="base_function_par" value="78"/>
                                <par name="base_function_modulation" value="0"/>
                                <par name="base_function_modulation_par1" value="64"/>
                                <par name="base_function_modulation_par2" value="64"/>
                                <par name="base_function_modulation_par3" value="32"/>
                                <par name="modulation" value="0"/>
                                <par name="modulation_par1" value="64"/>
                                <par name="modulation_par2" value="64"/>
                                <par name="modulation_par3" value="32"/>
                                <par name="wave_shaping" value="64"/>
                                <par name="wave_shaping_function" value="0"/>
                                <par name="filter_type" value="1"/>
                                <par name="filter_par1" value="64"/>
                                <par name="filter_par2" value="64"/>
                                <par name="filter_before_wave_shaping" value="0"/>
                                <par name="spectrum_adjust_type" value="0"/>
                                <par name="spectrum_adjust_par" value="64"/>
                                <par name="rand" value="42"/>
                                <par name="amp_rand_type" value="2"/>
                                <par name="amp_rand_power" value="64"/>
                                <par name="harmonic_shift" value="0"/>
                                <par_bool name="harmonic_shift_first" value="no"/>
                                <par name="adaptive_harmonics" value="0"/>
                                <par name="adaptive_harmonics_base_frequency" value="128"/>
                                <par name="adaptive_harmonics_power" value="100"/>
                                <HARMONICS>
                                  <HARMONIC id="1">
                                    <par name="mag" value="127"/>
                                    <par name="phase" value="64"/>
                                  </HARMONIC>
                                </HARMONICS>
                              </OSCIL>
                              <AMPLITUDE_PARAMETERS>
                                <par name="panning" value="82"/>
                                <par name="volume" value="100"/>
                                <par_bool name="volume_minus" value="no"/>
                                <par name="velocity_sensing" value="127"/>
                                <par_bool name="amp_envelope_enabled" value="no"/>
                                <par_bool name="amp_lfo_enabled" value="no"/>
                              </AMPLITUDE_PARAMETERS>
                              <FREQUENCY_PARAMETERS>
                                <par_bool name="fixed_freq" value="no"/>
                                <par name="fixed_freq_et" value="0"/>
                                <par name="detune" value="5493"/>
                                <par name="coarse_detune" value="0"/>
                                <par name="detune_type" value="0"/>
                                <par_bool name="freq_envelope_enabled" value="no"/>
                                <par_bool name="freq_lfo_enabled" value="yes"/>
                                <FREQUENCY_LFO>
                                  <par_real name="freq" value="0.599000"/>
                                  <par name="intensity" value="25"/>
                                  <par name="start_phase" value="0"/>
                                  <par name="lfo_type" value="0"/>
                                  <par name="randomness_amplitude" value="0"/>
                                  <par name="randomness_frequency" value="27"/>
                                  <par name="delay" value="0"/>
                                  <par name="stretch" value="64"/>
                                  <par_bool name="continous" value="no"/>
                                </FREQUENCY_LFO>
                              </FREQUENCY_PARAMETERS>
                            </VOICE>
                            <VOICE id="1">
                              <par_bool name="enabled" value="yes"/>
                              <par name="type" value="0"/>
                              <par name="unison_size" value="1"/>
                              <par name="unison_frequency_spread" value="60"/>
                              <par name="unison_stereo_spread" value="64"/>
                              <par name="unison_vibratto" value="64"/>
                              <par name="unison_vibratto_speed" value="64"/>
                              <par name="unison_invert_phase" value="0"/>
                              <par name="unison_phase_randomness" value="127"/>
                              <par name="delay" value="0"/>
                              <par_bool name="resonance" value="yes"/>
                              <par name="ext_oscil" value="-1"/>
                              <par name="ext_fm_oscil" value="-1"/>
                              <par name="oscil_phase" value="64"/>
                              <par name="oscil_fm_phase" value="64"/>
                              <par_bool name="filter_enabled" value="no"/>
                              <par_bool name="filter_bypass" value="no"/>
                              <par name="fm_enabled" value="0"/>
                              <OSCIL>
                                <par name="harmonic_mag_type" value="0"/>
                                <par name="base_function" value="4"/>
                                <par name="base_function_par" value="64"/>
                                <par name="base_function_modulation" value="0"/>
                                <par name="base_function_modulation_par1" value="64"/>
                                <par name="base_function_modulation_par2" value="64"/>
                                <par name="base_function_modulation_par3" value="32"/>
                                <par name="modulation" value="0"/>
                                <par name="modulation_par1" value="64"/>
                                <par name="modulation_par2" value="64"/>
                                <par name="modulation_par3" value="32"/>
                                <par name="wave_shaping" value="64"/>
                                <par name="wave_shaping_function" value="0"/>
                                <par name="filter_type" value="0"/>
                                <par name="filter_par1" value="64"/>
                                <par name="filter_par2" value="64"/>
                                <par name="filter_before_wave_shaping" value="0"/>
                                <par name="spectrum_adjust_type" value="0"/>
                                <par name="spectrum_adjust_par" value="64"/>
                                <par name="rand" value="64"/>
                                <par name="amp_rand_type" value="1"/>
                                <par name="amp_rand_power" value="64"/>
                                <par name="harmonic_shift" value="0"/>
                                <par_bool name="harmonic_shift_first" value="no"/>
                                <par name="adaptive_harmonics" value="0"/>
                                <par name="adaptive_harmonics_base_frequency" value="128"/>
                                <par name="adaptive_harmonics_power" value="100"/>
                                <HARMONICS>
                                  <HARMONIC id="1">
                                    <par name="mag" value="127"/>
                                    <par name="phase" value="64"/>
                                  </HARMONIC>
                                </HARMONICS>
                              </OSCIL>
                              <AMPLITUDE_PARAMETERS>
                                <par name="panning" value="49"/>
                                <par name="volume" value="100"/>
                                <par_bool name="volume_minus" value="no"/>
                                <par name="velocity_sensing" value="127"/>
                                <par_bool name="amp_envelope_enabled" value="no"/>
                                <par_bool name="amp_lfo_enabled" value="no"/>
                              </AMPLITUDE_PARAMETERS>
                              <FREQUENCY_PARAMETERS>
                                <par_bool name="fixed_freq" value="no"/>
                                <par name="fixed_freq_et" value="0"/>
                                <par name="detune" value="7035"/>
                                <par name="coarse_detune" value="0"/>
                                <par name="detune_type" value="0"/>
                                <par_bool name="freq_envelope_enabled" value="no"/>
                                <par_bool name="freq_lfo_enabled" value="no"/>
                              </FREQUENCY_PARAMETERS>
                            </VOICE>
                            <VOICE id="2">
                              <par_bool name="enabled" value="yes"/>
                              <par name="type" value="0"/>
                              <par name="unison_size" value="1"/>
                              <par name="unison_frequency_spread" value="60"/>
                              <par name="unison_stereo_spread" value="64"/>
                              <par name="unison_vibratto" value="64"/>
                              <par name="unison_vibratto_speed" value="64"/>
                              <par name="unison_invert_phase" value="0"/>
                              <par name="unison_phase_randomness" value="127"/>
                              <par name="delay" value="0"/>
                              <par_bool name="resonance" value="yes"/>
                              <par name="ext_oscil" value="-1"/>
                              <par name="ext_fm_oscil" value="-1"/>
                              <par name="oscil_phase" value="64"/>
                              <par name="oscil_fm_phase" value="64"/>
                              <par_bool name="filter_enabled" value="no"/>
                              <par_bool name="filter_bypass" value="no"/>
                              <par name="fm_enabled" value="0"/>
                              <OSCIL>
                                <par name="harmonic_mag_type" value="0"/>
                                <par name="base_function" value="13"/>
                                <par name="base_function_par" value="64"/>
                                <par name="base_function_modulation" value="0"/>
                                <par name="base_function_modulation_par1" value="64"/>
                                <par name="base_function_modulation_par2" value="64"/>
                                <par name="base_function_modulation_par3" value="32"/>
                                <par name="modulation" value="0"/>
                                <par name="modulation_par1" value="64"/>
                                <par name="modulation_par2" value="64"/>
                                <par name="modulation_par3" value="32"/>
                                <par name="wave_shaping" value="64"/>
                                <par name="wave_shaping_function" value="0"/>
                                <par name="filter_type" value="0"/>
                                <par name="filter_par1" value="64"/>
                                <par name="filter_par2" value="64"/>
                                <par name="filter_before_wave_shaping" value="0"/>
                                <par name="spectrum_adjust_type" value="0"/>
                                <par name="spectrum_adjust_par" value="64"/>
                                <par name="rand" value="64"/>
                                <par name="amp_rand_type" value="0"/>
                                <par name="amp_rand_power" value="64"/>
                                <par name="harmonic_shift" value="0"/>
                                <par_bool name="harmonic_shift_first" value="no"/>
                                <par name="adaptive_harmonics" value="0"/>
                                <par name="adaptive_harmonics_base_frequency" value="128"/>
                                <par name="adaptive_harmonics_power" value="100"/>
                                <HARMONICS>
                                  <HARMONIC id="1">
                                    <par name="mag" value="127"/>
                                    <par name="phase" value="64"/>
                                  </HARMONIC>
                                </HARMONICS>
                              </OSCIL>
                              <AMPLITUDE_PARAMETERS>
                                <par name="panning" value="64"/>
                                <par name="volume" value="87"/>
                                <par_bool name="volume_minus" value="no"/>
                                <par name="velocity_sensing" value="127"/>
                                <par_bool name="amp_envelope_enabled" value="no"/>
                                <par_bool name="amp_lfo_enabled" value="no"/>
                              </AMPLITUDE_PARAMETERS>
                              <FREQUENCY_PARAMETERS>
                                <par_bool name="fixed_freq" value="no"/>
                                <par name="fixed_freq_et" value="0"/>
                                <par name="detune" value="8192"/>
                                <par name="coarse_detune" value="15360"/>
                                <par name="detune_type" value="0"/>
                                <par_bool name="freq_envelope_enabled" value="no"/>
                                <par_bool name="freq_lfo_enabled" value="no"/>
                              </FREQUENCY_PARAMETERS>
                            </VOICE>
                            <VOICE id="3">
                              <par_bool name="enabled" value="no"/>
                            </VOICE>
                            <VOICE id="4">
                              <par_bool name="enabled" value="no"/>
                            </VOICE>
                            <VOICE id="5">
                              <par_bool name="enabled" value="no"/>
                            </VOICE>
                            <VOICE id="6">
                              <par_bool name="enabled" value="no"/>
                            </VOICE>
                            <VOICE id="7">
                              <par_bool name="enabled" value="no"/>
                            </VOICE>
                          </ADD_SYNTH_PARAMETERS>
                          <par_bool name="sub_enabled" value="no"/>
                          <par_bool name="pad_enabled" value="no"/>
                        </INSTRUMENT_KIT_ITEM>
                        <INSTRUMENT_KIT_ITEM id="1">
                          <par_bool name="enabled" value="no"/>
                        </INSTRUMENT_KIT_ITEM>
                        <INSTRUMENT_KIT_ITEM id="2">
                          <par_bool name="enabled" value="no"/>
                        </INSTRUMENT_KIT_ITEM>
                        <INSTRUMENT_KIT_ITEM id="3">
                          <par_bool name="enabled" value="no"/>
                        </INSTRUMENT_KIT_ITEM>
                        <INSTRUMENT_KIT_ITEM id="4">
                          <par_bool name="enabled" value="no"/>
                        </INSTRUMENT_KIT_ITEM>
                        <INSTRUMENT_KIT_ITEM id="5">
                          <par_bool name="enabled" value="no"/>
                        </INSTRUMENT_KIT_ITEM>
                        <INSTRUMENT_KIT_ITEM id="6">
                          <par_bool name="enabled" value="no"/>
                        </INSTRUMENT_KIT_ITEM>
                        <INSTRUMENT_KIT_ITEM id="7">
                          <par_bool name="enabled" value="no"/>
                        </INSTRUMENT_KIT_ITEM>
                        <INSTRUMENT_KIT_ITEM id="8">
                          <par_bool name="enabled" value="no"/>
                        </INSTRUMENT_KIT_ITEM>
                        <INSTRUMENT_KIT_ITEM id="9">
                          <par_bool name="enabled" value="no"/>
                        </INSTRUMENT_KIT_ITEM>
                        <INSTRUMENT_KIT_ITEM id="10">
                          <par_bool name="enabled" value="no"/>
                        </INSTRUMENT_KIT_ITEM>
                        <INSTRUMENT_KIT_ITEM id="11">
                          <par_bool name="enabled" value="no"/>
                        </INSTRUMENT_KIT_ITEM>
                        <INSTRUMENT_KIT_ITEM id="12">
                          <par_bool name="enabled" value="no"/>
                        </INSTRUMENT_KIT_ITEM>
                        <INSTRUMENT_KIT_ITEM id="13">
                          <par_bool name="enabled" value="no"/>
                        </INSTRUMENT_KIT_ITEM>
                        <INSTRUMENT_KIT_ITEM id="14">
                          <par_bool name="enabled" value="no"/>
                        </INSTRUMENT_KIT_ITEM>
                        <INSTRUMENT_KIT_ITEM id="15">
                          <par_bool name="enabled" value="no"/>
                        </INSTRUMENT_KIT_ITEM>
                      </INSTRUMENT_KIT>
                      <INSTRUMENT_EFFECTS>
                        <INSTRUMENT_EFFECT id="0">
                          <EFFECT>
                            <par name="type" value="4"/>
                            <par name="preset" value="0"/>
                            <EFFECT_PARAMETERS>
                              <par_no id="0">
                                <par name="par" value="64"/>
                              </par_no>
                              <par_no id="2">
                                <par name="par" value="36"/>
                              </par_no>
                              <par_no id="5">
                                <par name="par" value="64"/>
                              </par_no>
                              <par_no id="6">
                                <par name="par" value="110"/>
                              </par_no>
                              <par_no id="7">
                                <par name="par" value="64"/>
                              </par_no>
                              <par_no id="8">
                                <par name="par" value="1"/>
                              </par_no>
                              <par_no id="11">
                                <par name="par" value="20"/>
                              </par_no>
                            </EFFECT_PARAMETERS>
                          </EFFECT>
                          <par name="route" value="0"/>
                          <par_bool name="bypass" value="yes"/>
                        </INSTRUMENT_EFFECT>
                        <INSTRUMENT_EFFECT id="1">
                          <EFFECT>
                            <par name="type" value="1"/>
                            <par name="preset" value="3"/>
                            <EFFECT_PARAMETERS>
                              <par_no id="0">
                                <par name="par" value="45"/>
                              </par_no>
                              <par_no id="1">
                                <par name="par" value="64"/>
                              </par_no>
                              <par_no id="2">
                                <par name="par" value="42"/>
                              </par_no>
                              <par_no id="3">
                                <par name="par" value="10"/>
                              </par_no>
                              <par_no id="7">
                                <par name="par" value="127"/>
                              </par_no>
                              <par_no id="8">
                                <par name="par" value="21"/>
                              </par_no>
                              <par_no id="9">
                                <par name="par" value="78"/>
                              </par_no>
                              <par_no id="10">
                                <par name="par" value="1"/>
                              </par_no>
                              <par_no id="11">
                                <par name="par" value="64"/>
                              </par_no>
                              <par_no id="12">
                                <par name="par" value="20"/>
                              </par_no>
                            </EFFECT_PARAMETERS>
                          </EFFECT>
                          <par name="route" value="0"/>
                          <par_bool name="bypass" value="no"/>
                        </INSTRUMENT_EFFECT>
                        <INSTRUMENT_EFFECT id="2">
                          <EFFECT>
                            <par name="type" value="7"/>
                            <par name="preset" value="0"/>
                            <EFFECT_PARAMETERS>
                              <par_no id="0">
                                <par name="par" value="73"/>
                              </par_no>
                              <par_no id="10">
                                <par name="par" value="3"/>
                              </par_no>
                              <par_no id="11">
                                <par name="par" value="114"/>
                              </par_no>
                              <par_no id="12">
                                <par name="par" value="64"/>
                              </par_no>
                              <par_no id="13">
                                <par name="par" value="50"/>
                              </par_no>
                              <par_no id="16">
                                <par name="par" value="64"/>
                              </par_no>
                              <par_no id="17">
                                <par name="par" value="64"/>
                              </par_no>
                              <par_no id="18">
                                <par name="par" value="64"/>
                              </par_no>
                              <par_no id="21">
                                <par name="par" value="64"/>
                              </par_no>
                              <par_no id="22">
                                <par name="par" value="64"/>
                              </par_no>
                              <par_no id="23">
                                <par name="par" value="64"/>
                              </par_no>
                              <par_no id="26">
                                <par name="par" value="64"/>
                              </par_no>
                              <par_no id="27">
                                <par name="par" value="64"/>
                              </par_no>
                              <par_no id="28">
                                <par name="par" value="64"/>
                              </par_no>
                              <par_no id="31">
                                <par name="par" value="64"/>
                              </par_no>
                              <par_no id="32">
                                <par name="par" value="64"/>
                              </par_no>
                              <par_no id="33">
                                <par name="par" value="64"/>
                              </par_no>
                              <par_no id="36">
                                <par name="par" value="64"/>
                              </par_no>
                              <par_no id="37">
                                <par name="par" value="64"/>
                              </par_no>
                              <par_no id="38">
                                <par name="par" value="64"/>
                              </par_no>
                              <par_no id="41">
                                <par name="par" value="64"/>
                              </par_no>
                              <par_no id="42">
                                <par name="par" value="64"/>
                              </par_no>
                              <par_no id="43">
                                <par name="par" value="64"/>
                              </par_no>
                              <par_no id="46">
                                <par name="par" value="64"/>
                              </par_no>
                              <par_no id="47">
                                <par name="par" value="64"/>
                              </par_no>
                              <par_no id="48">
                                <par name="par" value="64"/>
                              </par_no>
                            </EFFECT_PARAMETERS>
                          </EFFECT>
                          <par name="route" value="0"/>
                          <par_bool name="bypass" value="no"/>
                        </INSTRUMENT_EFFECT>
                      </INSTRUMENT_EFFECTS>
                    </INSTRUMENT>
                    <CONTROLLER>
                      <par name="pitchwheel_bendrange" value="100"/>
                      <par_bool name="expression_receive" value="yes"/>
                      <par name="panning_depth" value="64"/>
                      <par name="filter_cutoff_depth" value="64"/>
                      <par name="filter_q_depth" value="64"/>
                      <par name="bandwidth_depth" value="64"/>
                      <par name="mod_wheel_depth" value="80"/>
                      <par_bool name="mod_wheel_exponential" value="no"/>
                      <par_bool name="fm_amp_receive" value="yes"/>
                      <par_bool name="volume_receive" value="yes"/>
                      <par_bool name="sustain_receive" value="yes"/>
                      <par_bool name="portamento_receive" value="yes"/>
                      <par name="portamento_time" value="64"/>
                      <par name="portamento_pitchthresh" value="3"/>
                      <par name="portamento_pitchthreshtype" value="1"/>
                      <par name="portamento_portamento" value="0"/>
                      <par name="portamento_updowntimestretch" value="64"/>
                      <par name="portamento_proportional" value="0"/>
                      <par name="portamento_proprate" value="80"/>
                      <par name="portamento_propdepth" value="90"/>
                      <par name="resonance_center_depth" value="64"/>
                      <par name="resonance_bandwidth_depth" value="64"/>
                    </CONTROLLER>
                  </PART>
                  <PART id="1">
                    <par_bool name="enabled" value="no"/>
                  </PART>
                  <PART id="2">
                    <par_bool name="enabled" value="no"/>
                  </PART>
                  <PART id="3">
                    <par_bool name="enabled" value="no"/>
                  </PART>
                  <PART id="4">
                    <par_bool name="enabled" value="no"/>
                  </PART>
                  <PART id="5">
                    <par_bool name="enabled" value="no"/>
                  </PART>
                  <PART id="6">
                    <par_bool name="enabled" value="no"/>
                  </PART>
                  <PART id="7">
                    <par_bool name="enabled" value="no"/>
                  </PART>
                  <PART id="8">
                    <par_bool name="enabled" value="no"/>
                  </PART>
                  <PART id="9">
                    <par_bool name="enabled" value="no"/>
                  </PART>
                  <PART id="10">
                    <par_bool name="enabled" value="no"/>
                  </PART>
                  <PART id="11">
                    <par_bool name="enabled" value="no"/>
                  </PART>
                  <PART id="12">
                    <par_bool name="enabled" value="no"/>
                  </PART>
                  <PART id="13">
                    <par_bool name="enabled" value="no"/>
                  </PART>
                  <PART id="14">
                    <par_bool name="enabled" value="no"/>
                  </PART>
                  <PART id="15">
                    <par_bool name="enabled" value="no"/>
                  </PART>
                  <SYSTEM_EFFECTS>
                    <SYSTEM_EFFECT id="0">
                      <EFFECT>
                        <par name="type" value="0"/>
                      </EFFECT>
                      <VOLUME id="0">
                        <par name="vol" value="0"/>
                      </VOLUME>
                      <VOLUME id="1">
                        <par name="vol" value="0"/>
                      </VOLUME>
                      <VOLUME id="2">
                        <par name="vol" value="0"/>
                      </VOLUME>
                      <VOLUME id="3">
                        <par name="vol" value="0"/>
                      </VOLUME>
                      <VOLUME id="4">
                        <par name="vol" value="0"/>
                      </VOLUME>
                      <VOLUME id="5">
                        <par name="vol" value="0"/>
                      </VOLUME>
                      <VOLUME id="6">
                        <par name="vol" value="0"/>
                      </VOLUME>
                      <VOLUME id="7">
                        <par name="vol" value="0"/>
                      </VOLUME>
                      <VOLUME id="8">
                        <par name="vol" value="0"/>
                      </VOLUME>
                      <VOLUME id="9">
                        <par name="vol" value="0"/>
                      </VOLUME>
                      <VOLUME id="10">
                        <par name="vol" value="0"/>
                      </VOLUME>
                      <VOLUME id="11">
                        <par name="vol" value="0"/>
                      </VOLUME>
                      <VOLUME id="12">
                        <par name="vol" value="0"/>
                      </VOLUME>
                      <VOLUME id="13">
                        <par name="vol" value="0"/>
                      </VOLUME>
                      <VOLUME id="14">
                        <par name="vol" value="0"/>
                      </VOLUME>
                      <VOLUME id="15">
                        <par name="vol" value="0"/>
                      </VOLUME>
                      <SENDTO id="1">
                        <par name="send_vol" value="0"/>
                      </SENDTO>
                      <SENDTO id="2">
                        <par name="send_vol" value="0"/>
                      </SENDTO>
                      <SENDTO id="3">
                        <par name="send_vol" value="0"/>
                      </SENDTO>
                    </SYSTEM_EFFECT>
                    <SYSTEM_EFFECT id="1">
                      <EFFECT>
                        <par name="type" value="0"/>
                      </EFFECT>
                      <VOLUME id="0">
                        <par name="vol" value="0"/>
                      </VOLUME>
                      <VOLUME id="1">
                        <par name="vol" value="0"/>
                      </VOLUME>
                      <VOLUME id="2">
                        <par name="vol" value="0"/>
                      </VOLUME>
                      <VOLUME id="3">
                        <par name="vol" value="0"/>
                      </VOLUME>
                      <VOLUME id="4">
                        <par name="vol" value="0"/>
                      </VOLUME>
                      <VOLUME id="5">
                        <par name="vol" value="0"/>
                      </VOLUME>
                      <VOLUME id="6">
                        <par name="vol" value="0"/>
                      </VOLUME>
                      <VOLUME id="7">
                        <par name="vol" value="0"/>
                      </VOLUME>
                      <VOLUME id="8">
                        <par name="vol" value="0"/>
                      </VOLUME>
                      <VOLUME id="9">
                        <par name="vol" value="0"/>
                      </VOLUME>
                      <VOLUME id="10">
                        <par name="vol" value="0"/>
                      </VOLUME>
                      <VOLUME id="11">
                        <par name="vol" value="0"/>
                      </VOLUME>
                      <VOLUME id="12">
                        <par name="vol" value="0"/>
                      </VOLUME>
                      <VOLUME id="13">
                        <par name="vol" value="0"/>
                      </VOLUME>
                      <VOLUME id="14">
                        <par name="vol" value="0"/>
                      </VOLUME>
                      <VOLUME id="15">
                        <par name="vol" value="0"/>
                      </VOLUME>
                      <SENDTO id="2">
                        <par name="send_vol" value="0"/>
                      </SENDTO>
                      <SENDTO id="3">
                        <par name="send_vol" value="0"/>
                      </SENDTO>
                    </SYSTEM_EFFECT>
                    <SYSTEM_EFFECT id="2">
                      <EFFECT>
                        <par name="type" value="0"/>
                      </EFFECT>
                      <VOLUME id="0">
                        <par name="vol" value="0"/>
                      </VOLUME>
                      <VOLUME id="1">
                        <par name="vol" value="0"/>
                      </VOLUME>
                      <VOLUME id="2">
                        <par name="vol" value="0"/>
                      </VOLUME>
                      <VOLUME id="3">
                        <par name="vol" value="0"/>
                      </VOLUME>
                      <VOLUME id="4">
                        <par name="vol" value="0"/>
                      </VOLUME>
                      <VOLUME id="5">
                        <par name="vol" value="0"/>
                      </VOLUME>
                      <VOLUME id="6">
                        <par name="vol" value="0"/>
                      </VOLUME>
                      <VOLUME id="7">
                        <par name="vol" value="0"/>
                      </VOLUME>
                      <VOLUME id="8">
                        <par name="vol" value="0"/>
                      </VOLUME>
                      <VOLUME id="9">
                        <par name="vol" value="0"/>
                      </VOLUME>
                      <VOLUME id="10">
                        <par name="vol" value="0"/>
                      </VOLUME>
                      <VOLUME id="11">
                        <par name="vol" value="0"/>
                      </VOLUME>
                      <VOLUME id="12">
                        <par name="vol" value="0"/>
                      </VOLUME>
                      <VOLUME id="13">
                        <par name="vol" value="0"/>
                      </VOLUME>
                      <VOLUME id="14">
                        <par name="vol" value="0"/>
                      </VOLUME>
                      <VOLUME id="15">
                        <par name="vol" value="0"/>
                      </VOLUME>
                      <SENDTO id="3">
                        <par name="send_vol" value="0"/>
                      </SENDTO>
                    </SYSTEM_EFFECT>
                    <SYSTEM_EFFECT id="3">
                      <EFFECT>
                        <par name="type" value="0"/>
                      </EFFECT>
                      <VOLUME id="0">
                        <par name="vol" value="0"/>
                      </VOLUME>
                      <VOLUME id="1">
                        <par name="vol" value="0"/>
                      </VOLUME>
                      <VOLUME id="2">
                        <par name="vol" value="0"/>
                      </VOLUME>
                      <VOLUME id="3">
                        <par name="vol" value="0"/>
                      </VOLUME>
                      <VOLUME id="4">
                        <par name="vol" value="0"/>
                      </VOLUME>
                      <VOLUME id="5">
                        <par name="vol" value="0"/>
                      </VOLUME>
                      <VOLUME id="6">
                        <par name="vol" value="0"/>
                      </VOLUME>
                      <VOLUME id="7">
                        <par name="vol" value="0"/>
                      </VOLUME>
                      <VOLUME id="8">
                        <par name="vol" value="0"/>
                      </VOLUME>
                      <VOLUME id="9">
                        <par name="vol" value="0"/>
                      </VOLUME>
                      <VOLUME id="10">
                        <par name="vol" value="0"/>
                      </VOLUME>
                      <VOLUME id="11">
                        <par name="vol" value="0"/>
                      </VOLUME>
                      <VOLUME id="12">
                        <par name="vol" value="0"/>
                      </VOLUME>
                      <VOLUME id="13">
                        <par name="vol" value="0"/>
                      </VOLUME>
                      <VOLUME id="14">
                        <par name="vol" value="0"/>
                      </VOLUME>
                      <VOLUME id="15">
                        <par name="vol" value="0"/>
                      </VOLUME>
                    </SYSTEM_EFFECT>
                  </SYSTEM_EFFECTS>
                  <INSERTION_EFFECTS>
                    <INSERTION_EFFECT id="0">
                      <par name="part" value="-1"/>
                      <EFFECT>
                        <par name="type" value="0"/>
                      </EFFECT>
                    </INSERTION_EFFECT>
                    <INSERTION_EFFECT id="1">
                      <par name="part" value="-1"/>
                      <EFFECT>
                        <par name="type" value="0"/>
                      </EFFECT>
                    </INSERTION_EFFECT>
                    <INSERTION_EFFECT id="2">
                      <par name="part" value="-1"/>
                      <EFFECT>
                        <par name="type" value="0"/>
                      </EFFECT>
                    </INSERTION_EFFECT>
                    <INSERTION_EFFECT id="3">
                      <par name="part" value="-1"/>
                      <EFFECT>
                        <par name="type" value="0"/>
                      </EFFECT>
                    </INSERTION_EFFECT>
                    <INSERTION_EFFECT id="4">
                      <par name="part" value="-1"/>
                      <EFFECT>
                        <par name="type" value="0"/>
                      </EFFECT>
                    </INSERTION_EFFECT>
                    <INSERTION_EFFECT id="5">
                      <par name="part" value="-1"/>
                      <EFFECT>
                        <par name="type" value="0"/>
                      </EFFECT>
                    </INSERTION_EFFECT>
                    <INSERTION_EFFECT id="6">
                      <par name="part" value="-1"/>
                      <EFFECT>
                        <par name="type" value="0"/>
                      </EFFECT>
                    </INSERTION_EFFECT>
                    <INSERTION_EFFECT id="7">
                      <par name="part" value="-1"/>
                      <EFFECT>
                        <par name="type" value="0"/>
                      </EFFECT>
                    </INSERTION_EFFECT>
                  </INSERTION_EFFECTS>
                </MASTER>
              </ZynAddSubFX-data>
            </zynaddsubfx>
          </instrument>
          <eldata fcut="14000" fres="0.5" fwet="0" ftype="0">
            <elvol sustain="0.5" lspd_denominator="4" rel="0.1" lspd_numerator="4" lspd_syncmode="0" x100="0" pdel="0" amt="0" userwavefile="" hold="0.5" dec="0.5" lspd="0.1" lamt="0" latt="0" lpdel="0" ctlenvamt="0" att="0" lshp="0"/>
            <elcut sustain="0.5" lspd_denominator="4" rel="0.1" lspd_numerator="4" lspd_syncmode="0" x100="0" pdel="0" amt="0" userwavefile="" hold="0.5" dec="0.5" lspd="0.1" lamt="0" latt="0" lpdel="0" ctlenvamt="0" att="0" lshp="0"/>
            <elres sustain="0.5" lspd_denominator="4" rel="0.1" lspd_numerator="4" lspd_syncmode="0" x100="0" pdel="0" amt="0" userwavefile="" hold="0.5" dec="0.5" lspd="0.1" lamt="0" latt="0" lpdel="0" ctlenvamt="0" att="0" lshp="0"/>
          </eldata>
          <chordcreator chordrange="1" chord="0" chord-enabled="0"/>
          <arpeggiator arpgate="100" arpskip="0" arp-enabled="0" arpmiss="0" arptime_denominator="4" arpdir="0" arpmode="0" arptime_numerator="4" arp="0" arptime="200" arprange="1" arpcycle="0" arptime_syncmode="0"/>
          <midiport fixedinputvelocity="-1" outputcontroller="0" inputchannel="0" outputchannel="1" basevelocity="63" fixedoutputnote="-1" inputcontroller="0" outputprogram="1" readable="0" writable="0" fixedoutputvelocity="-1"/>
          <fxchain numofeffects="0" enabled="0"/>
        </instrumenttrack>
        <pattern type="1" name="Metal Drips" steps="16" pos="28416" muted="0">
          <note len="48" pan="0" vol="200" pos="0" key="62"/>
          <note len="24" pan="0" vol="200" pos="48" key="69"/>
          <note len="48" pan="0" vol="200" pos="72" key="67"/>
          <note len="48" pan="0" vol="200" pos="120" key="66"/>
          <note len="96" pan="0" vol="200" pos="168" key="62"/>
          <note len="24" pan="0" vol="200" pos="264" key="69"/>
          <note len="48" pan="0" vol="200" pos="288" key="67"/>
          <note len="48" pan="0" vol="200" pos="336" key="66"/>
          <note len="48" pan="0" vol="200" pos="384" key="64"/>
          <note len="24" pan="0" vol="200" pos="432" key="62"/>
          <note len="48" pan="0" vol="200" pos="456" key="64"/>
          <note len="48" pan="0" vol="200" pos="504" key="66"/>
          <note len="96" pan="0" vol="200" pos="552" key="64"/>
          <note len="24" pan="0" vol="200" pos="648" key="64"/>
          <note len="48" pan="0" vol="200" pos="672" key="64"/>
          <note len="48" pan="0" vol="200" pos="720" key="66"/>
          <note len="48" pan="0" vol="200" pos="768" key="67"/>
          <note len="24" pan="0" vol="200" pos="816" key="69"/>
          <note len="48" pan="0" vol="200" pos="840" key="71"/>
          <note len="48" pan="0" vol="200" pos="888" key="74"/>
          <note len="72" pan="0" vol="200" pos="936" key="71"/>
          <note len="48" pan="0" vol="200" pos="1008" key="69"/>
          <note len="48" pan="0" vol="200" pos="1056" key="67"/>
          <note len="48" pan="0" vol="200" pos="1104" key="69"/>
          <note len="48" pan="0" vol="200" pos="1152" key="69"/>
          <note len="24" pan="0" vol="200" pos="1200" key="69"/>
          <note len="48" pan="0" vol="200" pos="1224" key="69"/>
          <note len="24" pan="0" vol="200" pos="1272" key="69"/>
          <note len="24" pan="0" vol="200" pos="1296" key="69"/>
          <note len="24" pan="0" vol="200" pos="1320" key="67"/>
          <note len="48" pan="0" vol="200" pos="1344" key="66"/>
          <note len="48" pan="0" vol="200" pos="1392" key="69"/>
          <note len="48" pan="0" vol="200" pos="1440" key="67"/>
          <note len="48" pan="0" vol="200" pos="1488" key="66"/>
        </pattern>
        <pattern type="1" name="Metal Drips" steps="16" pos="29952" muted="0">
          <note len="48" pan="0" vol="200" pos="0" key="62"/>
          <note len="48" pan="0" vol="200" pos="0" key="0"/>
          <note len="24" pan="0" vol="200" pos="48" key="69"/>
          <note len="48" pan="0" vol="200" pos="72" key="67"/>
          <note len="48" pan="0" vol="200" pos="120" key="66"/>
          <note len="96" pan="0" vol="200" pos="168" key="62"/>
          <note len="24" pan="0" vol="200" pos="264" key="69"/>
          <note len="48" pan="0" vol="200" pos="288" key="67"/>
          <note len="48" pan="0" vol="200" pos="336" key="66"/>
          <note len="48" pan="0" vol="200" pos="384" key="64"/>
          <note len="24" pan="0" vol="200" pos="432" key="62"/>
          <note len="48" pan="0" vol="200" pos="456" key="64"/>
          <note len="48" pan="0" vol="200" pos="504" key="66"/>
          <note len="96" pan="0" vol="200" pos="552" key="64"/>
          <note len="24" pan="0" vol="200" pos="648" key="64"/>
          <note len="48" pan="0" vol="200" pos="672" key="64"/>
          <note len="48" pan="0" vol="200" pos="720" key="66"/>
          <note len="48" pan="0" vol="200" pos="768" key="67"/>
          <note len="24" pan="0" vol="200" pos="816" key="69"/>
          <note len="48" pan="0" vol="200" pos="840" key="71"/>
          <note len="48" pan="0" vol="200" pos="888" key="74"/>
          <note len="72" pan="0" vol="200" pos="936" key="79"/>
          <note len="48" pan="0" vol="200" pos="1008" key="78"/>
          <note len="48" pan="0" vol="200" pos="1056" key="76"/>
          <note len="48" pan="0" vol="200" pos="1104" key="74"/>
          <note len="48" pan="0" vol="200" pos="1152" key="78"/>
          <note len="24" pan="0" vol="200" pos="1200" key="76"/>
          <note len="48" pan="0" vol="200" pos="1224" key="76"/>
          <note len="24" pan="0" vol="200" pos="1272" key="76"/>
          <note len="24" pan="0" vol="200" pos="1296" key="76"/>
          <note len="24" pan="0" vol="200" pos="1320" key="74"/>
          <note len="72" pan="0" vol="200" pos="1344" key="73"/>
          <note len="72" pan="0" vol="200" pos="1416" key="71"/>
          <note len="48" pan="0" vol="200" pos="1488" key="73"/>
          <note len="384" pan="0" vol="200" pos="1536" key="74"/>
        </pattern>
        <pattern type="1" name="Metal Drips" steps="16" pos="18432" muted="0">
          <note len="48" pan="0" vol="200" pos="0" key="62"/>
          <note len="24" pan="0" vol="200" pos="48" key="69"/>
          <note len="48" pan="0" vol="200" pos="72" key="67"/>
          <note len="48" pan="0" vol="200" pos="120" key="66"/>
          <note len="96" pan="0" vol="200" pos="168" key="62"/>
          <note len="24" pan="0" vol="200" pos="264" key="69"/>
          <note len="48" pan="0" vol="200" pos="288" key="67"/>
          <note len="48" pan="0" vol="200" pos="336" key="66"/>
          <note len="48" pan="0" vol="200" pos="384" key="64"/>
          <note len="24" pan="0" vol="200" pos="432" key="62"/>
          <note len="48" pan="0" vol="200" pos="456" key="64"/>
          <note len="48" pan="0" vol="200" pos="504" key="66"/>
          <note len="96" pan="0" vol="200" pos="552" key="64"/>
          <note len="24" pan="0" vol="200" pos="648" key="64"/>
          <note len="48" pan="0" vol="200" pos="672" key="64"/>
          <note len="48" pan="0" vol="200" pos="720" key="66"/>
          <note len="48" pan="0" vol="200" pos="768" key="67"/>
          <note len="24" pan="0" vol="200" pos="816" key="69"/>
          <note len="48" pan="0" vol="200" pos="840" key="71"/>
          <note len="48" pan="0" vol="200" pos="888" key="74"/>
          <note len="72" pan="0" vol="200" pos="936" key="71"/>
          <note len="48" pan="0" vol="200" pos="1008" key="69"/>
          <note len="48" pan="0" vol="200" pos="1056" key="67"/>
          <note len="48" pan="0" vol="200" pos="1104" key="69"/>
          <note len="48" pan="0" vol="200" pos="1152" key="69"/>
          <note len="24" pan="0" vol="200" pos="1200" key="69"/>
          <note len="48" pan="0" vol="200" pos="1224" key="69"/>
          <note len="24" pan="0" vol="200" pos="1272" key="69"/>
          <note len="24" pan="0" vol="200" pos="1296" key="69"/>
          <note len="24" pan="0" vol="200" pos="1320" key="67"/>
          <note len="48" pan="0" vol="200" pos="1344" key="66"/>
          <note len="48" pan="0" vol="200" pos="1392" key="69"/>
          <note len="48" pan="0" vol="200" pos="1440" key="67"/>
          <note len="48" pan="0" vol="200" pos="1488" key="66"/>
        </pattern>
        <pattern type="1" name="Metal Drips" steps="16" pos="19968" muted="0">
          <note len="48" pan="0" vol="200" pos="0" key="62"/>
          <note len="24" pan="0" vol="200" pos="48" key="69"/>
          <note len="48" pan="0" vol="200" pos="72" key="67"/>
          <note len="48" pan="0" vol="200" pos="120" key="66"/>
          <note len="96" pan="0" vol="200" pos="168" key="62"/>
          <note len="24" pan="0" vol="200" pos="264" key="69"/>
          <note len="48" pan="0" vol="200" pos="288" key="67"/>
          <note len="48" pan="0" vol="200" pos="336" key="66"/>
          <note len="48" pan="0" vol="200" pos="384" key="64"/>
          <note len="24" pan="0" vol="200" pos="432" key="62"/>
          <note len="48" pan="0" vol="200" pos="456" key="64"/>
          <note len="48" pan="0" vol="200" pos="504" key="66"/>
          <note len="96" pan="0" vol="200" pos="552" key="64"/>
          <note len="24" pan="0" vol="200" pos="648" key="64"/>
          <note len="48" pan="0" vol="200" pos="672" key="64"/>
          <note len="48" pan="0" vol="200" pos="720" key="66"/>
          <note len="48" pan="0" vol="200" pos="768" key="67"/>
          <note len="24" pan="0" vol="200" pos="816" key="69"/>
          <note len="48" pan="0" vol="200" pos="840" key="71"/>
          <note len="48" pan="0" vol="200" pos="888" key="74"/>
          <note len="72" pan="0" vol="200" pos="936" key="79"/>
          <note len="48" pan="0" vol="200" pos="1008" key="78"/>
          <note len="48" pan="0" vol="200" pos="1056" key="76"/>
          <note len="48" pan="0" vol="200" pos="1104" key="74"/>
          <note len="48" pan="0" vol="200" pos="1152" key="78"/>
          <note len="24" pan="0" vol="200" pos="1200" key="76"/>
          <note len="48" pan="0" vol="200" pos="1224" key="76"/>
          <note len="24" pan="0" vol="200" pos="1272" key="76"/>
          <note len="24" pan="0" vol="200" pos="1296" key="76"/>
          <note len="24" pan="0" vol="200" pos="1320" key="74"/>
          <note len="72" pan="0" vol="200" pos="1344" key="73"/>
          <note len="72" pan="0" vol="200" pos="1416" key="71"/>
          <note len="48" pan="0" vol="200" pos="1488" key="73"/>
          <note len="384" pan="0" vol="200" pos="1536" key="74"/>
        </pattern>
        <pattern type="1" name="Metal Drips" steps="16" pos="38400" muted="0">
          <note len="48" pan="0" vol="200" pos="0" key="62"/>
          <note len="24" pan="0" vol="200" pos="48" key="69"/>
          <note len="48" pan="0" vol="200" pos="72" key="67"/>
          <note len="48" pan="0" vol="200" pos="120" key="66"/>
          <note len="96" pan="0" vol="200" pos="168" key="62"/>
          <note len="24" pan="0" vol="200" pos="264" key="69"/>
          <note len="48" pan="0" vol="200" pos="288" key="67"/>
          <note len="48" pan="0" vol="200" pos="336" key="66"/>
          <note len="48" pan="0" vol="200" pos="384" key="64"/>
          <note len="24" pan="0" vol="200" pos="432" key="62"/>
          <note len="48" pan="0" vol="200" pos="456" key="64"/>
          <note len="48" pan="0" vol="200" pos="504" key="66"/>
          <note len="96" pan="0" vol="200" pos="552" key="64"/>
          <note len="24" pan="0" vol="200" pos="648" key="64"/>
          <note len="48" pan="0" vol="200" pos="672" key="64"/>
          <note len="48" pan="0" vol="200" pos="720" key="66"/>
          <note len="48" pan="0" vol="200" pos="768" key="67"/>
          <note len="24" pan="0" vol="200" pos="816" key="69"/>
          <note len="48" pan="0" vol="200" pos="840" key="71"/>
          <note len="48" pan="0" vol="200" pos="888" key="74"/>
          <note len="72" pan="0" vol="200" pos="936" key="71"/>
          <note len="48" pan="0" vol="200" pos="1008" key="69"/>
          <note len="48" pan="0" vol="200" pos="1056" key="67"/>
          <note len="48" pan="0" vol="200" pos="1104" key="69"/>
          <note len="48" pan="0" vol="200" pos="1152" key="69"/>
          <note len="24" pan="0" vol="200" pos="1200" key="69"/>
          <note len="48" pan="0" vol="200" pos="1224" key="69"/>
          <note len="24" pan="0" vol="200" pos="1272" key="69"/>
          <note len="24" pan="0" vol="200" pos="1296" key="69"/>
          <note len="24" pan="0" vol="200" pos="1320" key="67"/>
          <note len="48" pan="0" vol="200" pos="1344" key="66"/>
          <note len="48" pan="0" vol="200" pos="1392" key="69"/>
          <note len="48" pan="0" vol="200" pos="1440" key="67"/>
          <note len="48" pan="0" vol="200" pos="1488" key="66"/>
        </pattern>
        <pattern type="1" name="Metal Drips" steps="16" pos="41472" muted="0">
          <note len="48" pan="0" vol="200" pos="0" key="62"/>
          <note len="48" pan="0" vol="200" pos="0" key="0"/>
          <note len="24" pan="0" vol="200" pos="48" key="69"/>
          <note len="48" pan="0" vol="200" pos="72" key="67"/>
          <note len="48" pan="0" vol="200" pos="120" key="66"/>
          <note len="96" pan="0" vol="200" pos="168" key="62"/>
          <note len="24" pan="0" vol="200" pos="264" key="69"/>
          <note len="48" pan="0" vol="200" pos="288" key="67"/>
          <note len="48" pan="0" vol="200" pos="336" key="66"/>
          <note len="48" pan="0" vol="200" pos="384" key="64"/>
          <note len="24" pan="0" vol="200" pos="432" key="62"/>
          <note len="48" pan="0" vol="200" pos="456" key="64"/>
          <note len="48" pan="0" vol="200" pos="504" key="66"/>
          <note len="96" pan="0" vol="200" pos="552" key="64"/>
          <note len="24" pan="0" vol="200" pos="648" key="64"/>
          <note len="48" pan="0" vol="200" pos="672" key="64"/>
          <note len="48" pan="0" vol="200" pos="720" key="66"/>
          <note len="48" pan="0" vol="200" pos="768" key="67"/>
          <note len="24" pan="0" vol="200" pos="816" key="69"/>
          <note len="48" pan="0" vol="200" pos="840" key="71"/>
          <note len="48" pan="0" vol="200" pos="888" key="74"/>
          <note len="72" pan="0" vol="200" pos="936" key="79"/>
          <note len="48" pan="0" vol="200" pos="1008" key="78"/>
          <note len="48" pan="0" vol="200" pos="1056" key="76"/>
          <note len="48" pan="0" vol="200" pos="1104" key="74"/>
          <note len="48" pan="0" vol="200" pos="1152" key="78"/>
          <note len="24" pan="0" vol="200" pos="1200" key="76"/>
          <note len="48" pan="0" vol="200" pos="1224" key="76"/>
          <note len="24" pan="0" vol="200" pos="1272" key="76"/>
          <note len="24" pan="0" vol="200" pos="1296" key="76"/>
          <note len="24" pan="0" vol="200" pos="1320" key="74"/>
          <note len="72" pan="0" vol="200" pos="1344" key="73"/>
          <note len="72" pan="0" vol="200" pos="1416" key="71"/>
          <note len="48" pan="0" vol="200" pos="1488" key="73"/>
          <note len="384" pan="0" vol="200" pos="1536" key="74"/>
        </pattern>
        <pattern type="1" name="Metal Drips" steps="16" pos="39936" muted="0">
          <note len="48" pan="0" vol="200" pos="0" key="62"/>
          <note len="24" pan="0" vol="200" pos="48" key="69"/>
          <note len="48" pan="0" vol="200" pos="72" key="67"/>
          <note len="48" pan="0" vol="200" pos="120" key="66"/>
          <note len="96" pan="0" vol="200" pos="168" key="62"/>
          <note len="24" pan="0" vol="200" pos="264" key="69"/>
          <note len="48" pan="0" vol="200" pos="288" key="67"/>
          <note len="48" pan="0" vol="200" pos="336" key="66"/>
          <note len="48" pan="0" vol="200" pos="384" key="64"/>
          <note len="24" pan="0" vol="200" pos="432" key="62"/>
          <note len="48" pan="0" vol="200" pos="456" key="64"/>
          <note len="48" pan="0" vol="200" pos="504" key="66"/>
          <note len="96" pan="0" vol="200" pos="552" key="64"/>
          <note len="24" pan="0" vol="200" pos="648" key="64"/>
          <note len="48" pan="0" vol="200" pos="672" key="64"/>
          <note len="48" pan="0" vol="200" pos="720" key="66"/>
          <note len="48" pan="0" vol="200" pos="768" key="67"/>
          <note len="24" pan="0" vol="200" pos="816" key="69"/>
          <note len="48" pan="0" vol="200" pos="840" key="71"/>
          <note len="48" pan="0" vol="200" pos="888" key="74"/>
          <note len="72" pan="0" vol="200" pos="936" key="71"/>
          <note len="48" pan="0" vol="200" pos="1008" key="69"/>
          <note len="48" pan="0" vol="200" pos="1056" key="67"/>
          <note len="48" pan="0" vol="200" pos="1104" key="69"/>
          <note len="48" pan="0" vol="200" pos="1152" key="69"/>
          <note len="24" pan="0" vol="200" pos="1200" key="69"/>
          <note len="48" pan="0" vol="200" pos="1224" key="69"/>
          <note len="24" pan="0" vol="200" pos="1272" key="69"/>
          <note len="24" pan="0" vol="200" pos="1296" key="69"/>
          <note len="24" pan="0" vol="200" pos="1320" key="67"/>
          <note len="48" pan="0" vol="200" pos="1344" key="66"/>
          <note len="48" pan="0" vol="200" pos="1392" key="69"/>
          <note len="48" pan="0" vol="200" pos="1440" key="67"/>
          <note len="48" pan="0" vol="200" pos="1488" key="66"/>
        </pattern>
        <pattern type="1" name="Metal Drips" steps="16" pos="33792" muted="0">
          <note len="48" pan="0" vol="200" pos="0" key="86"/>
          <note len="48" pan="0" vol="200" pos="48" key="81"/>
          <note len="48" pan="0" vol="200" pos="96" key="85"/>
          <note len="48" pan="0" vol="200" pos="144" key="81"/>
          <note len="48" pan="0" vol="200" pos="192" key="86"/>
          <note len="48" pan="0" vol="200" pos="240" key="81"/>
          <note len="48" pan="0" vol="200" pos="288" key="85"/>
          <note len="48" pan="0" vol="200" pos="336" key="81"/>
          <note len="48" pan="0" vol="200" pos="384" key="86"/>
          <note len="48" pan="0" vol="200" pos="432" key="81"/>
          <note len="48" pan="0" vol="200" pos="480" key="85"/>
          <note len="48" pan="0" vol="200" pos="528" key="81"/>
          <note len="48" pan="0" vol="200" pos="576" key="86"/>
          <note len="48" pan="0" vol="200" pos="624" key="81"/>
          <note len="48" pan="0" vol="200" pos="672" key="85"/>
          <note len="48" pan="0" vol="200" pos="720" key="81"/>
        </pattern>
        <pattern type="1" name="Metal Drips" steps="16" pos="34560" muted="0">
          <note len="48" pan="0" vol="200" pos="0" key="86"/>
          <note len="48" pan="0" vol="200" pos="48" key="81"/>
          <note len="48" pan="0" vol="200" pos="96" key="85"/>
          <note len="48" pan="0" vol="200" pos="144" key="81"/>
          <note len="48" pan="0" vol="200" pos="192" key="86"/>
          <note len="48" pan="0" vol="200" pos="240" key="81"/>
          <note len="48" pan="0" vol="200" pos="288" key="85"/>
          <note len="48" pan="0" vol="200" pos="336" key="81"/>
          <note len="48" pan="0" vol="200" pos="384" key="86"/>
          <note len="48" pan="0" vol="200" pos="432" key="81"/>
          <note len="48" pan="0" vol="200" pos="480" key="85"/>
          <note len="48" pan="0" vol="200" pos="528" key="81"/>
          <note len="48" pan="0" vol="200" pos="576" key="86"/>
          <note len="48" pan="0" vol="200" pos="624" key="81"/>
          <note len="48" pan="0" vol="200" pos="672" key="85"/>
          <note len="48" pan="0" vol="200" pos="720" key="81"/>
        </pattern>
        <pattern type="1" name="Metal Drips" steps="16" pos="32256" muted="0">
          <note len="384" pan="0" vol="200" pos="0" key="86"/>
          <note len="384" pan="0" vol="200" pos="0" key="81"/>
          <note len="384" pan="0" vol="200" pos="0" key="78"/>
          <note len="168" pan="0" vol="200" pos="384" key="86"/>
          <note len="168" pan="0" vol="200" pos="384" key="83"/>
          <note len="168" pan="0" vol="200" pos="384" key="79"/>
          <note len="216" pan="0" vol="200" pos="552" key="88"/>
          <note len="216" pan="0" vol="200" pos="552" key="85"/>
          <note len="216" pan="0" vol="200" pos="552" key="81"/>
        </pattern>
        <pattern type="1" name="Metal Drips" steps="16" pos="33024" muted="0">
          <note len="384" pan="0" vol="200" pos="0" key="86"/>
          <note len="384" pan="0" vol="200" pos="0" key="81"/>
          <note len="384" pan="0" vol="200" pos="0" key="78"/>
          <note len="168" pan="0" vol="200" pos="384" key="86"/>
          <note len="168" pan="0" vol="200" pos="384" key="83"/>
          <note len="168" pan="0" vol="200" pos="384" key="79"/>
          <note len="120" pan="0" vol="200" pos="552" key="88"/>
          <note len="120" pan="0" vol="200" pos="552" key="85"/>
          <note len="120" pan="0" vol="200" pos="552" key="81"/>
        </pattern>
        <pattern type="1" name="Metal Drips" steps="16" pos="36864" muted="0">
          <note len="12" pan="0" vol="200" pos="0" key="74"/>
          <note len="12" pan="0" vol="200" pos="12" key="71"/>
          <note len="12" pan="0" vol="200" pos="24" key="74"/>
          <note len="12" pan="0" vol="200" pos="36" key="71"/>
          <note len="12" pan="0" vol="200" pos="48" key="73"/>
          <note len="12" pan="0" vol="200" pos="60" key="71"/>
          <note len="12" pan="0" vol="200" pos="72" key="74"/>
          <note len="12" pan="0" vol="200" pos="84" key="71"/>
          <note len="12" pan="0" vol="200" pos="96" key="76"/>
          <note len="12" pan="0" vol="200" pos="108" key="71"/>
          <note len="12" pan="0" vol="200" pos="120" key="74"/>
          <note len="12" pan="0" vol="200" pos="132" key="71"/>
          <note len="12" pan="0" vol="200" pos="144" key="73"/>
          <note len="12" pan="0" vol="200" pos="156" key="71"/>
          <note len="12" pan="0" vol="200" pos="168" key="74"/>
          <note len="12" pan="0" vol="200" pos="180" key="71"/>
        </pattern>
        <pattern type="1" name="Metal Drips" steps="16" pos="37056" muted="0">
          <note len="12" pan="0" vol="200" pos="0" key="74"/>
          <note len="12" pan="0" vol="200" pos="12" key="71"/>
          <note len="12" pan="0" vol="200" pos="24" key="74"/>
          <note len="12" pan="0" vol="200" pos="36" key="71"/>
          <note len="12" pan="0" vol="200" pos="48" key="73"/>
          <note len="12" pan="0" vol="200" pos="60" key="71"/>
          <note len="12" pan="0" vol="200" pos="72" key="74"/>
          <note len="12" pan="0" vol="200" pos="84" key="71"/>
          <note len="12" pan="0" vol="200" pos="96" key="76"/>
          <note len="12" pan="0" vol="200" pos="108" key="71"/>
          <note len="12" pan="0" vol="200" pos="120" key="74"/>
          <note len="12" pan="0" vol="200" pos="132" key="71"/>
          <note len="12" pan="0" vol="200" pos="144" key="73"/>
          <note len="12" pan="0" vol="200" pos="156" key="71"/>
          <note len="12" pan="0" vol="200" pos="168" key="74"/>
          <note len="12" pan="0" vol="200" pos="180" key="71"/>
        </pattern>
        <pattern type="1" name="Metal Drips" steps="16" pos="37248" muted="0">
          <note len="12" pan="0" vol="200" pos="0" key="74"/>
          <note len="12" pan="0" vol="200" pos="12" key="71"/>
          <note len="12" pan="0" vol="200" pos="24" key="74"/>
          <note len="12" pan="0" vol="200" pos="36" key="71"/>
          <note len="12" pan="0" vol="200" pos="48" key="73"/>
          <note len="12" pan="0" vol="200" pos="60" key="71"/>
          <note len="12" pan="0" vol="200" pos="72" key="74"/>
          <note len="12" pan="0" vol="200" pos="84" key="71"/>
          <note len="12" pan="0" vol="200" pos="96" key="76"/>
          <note len="12" pan="0" vol="200" pos="108" key="71"/>
          <note len="12" pan="0" vol="200" pos="120" key="74"/>
          <note len="12" pan="0" vol="200" pos="132" key="71"/>
          <note len="12" pan="0" vol="200" pos="144" key="73"/>
          <note len="12" pan="0" vol="200" pos="156" key="71"/>
          <note len="12" pan="0" vol="200" pos="168" key="74"/>
          <note len="12" pan="0" vol="200" pos="180" key="71"/>
        </pattern>
        <pattern type="1" name="Metal Drips" steps="16" pos="37440" muted="0">
          <note len="12" pan="0" vol="200" pos="0" key="74"/>
          <note len="12" pan="0" vol="200" pos="12" key="71"/>
          <note len="12" pan="0" vol="200" pos="24" key="74"/>
          <note len="12" pan="0" vol="200" pos="36" key="71"/>
          <note len="12" pan="0" vol="200" pos="48" key="73"/>
          <note len="12" pan="0" vol="200" pos="60" key="71"/>
          <note len="12" pan="0" vol="200" pos="72" key="74"/>
          <note len="12" pan="0" vol="200" pos="84" key="71"/>
          <note len="12" pan="0" vol="200" pos="96" key="76"/>
          <note len="12" pan="0" vol="200" pos="108" key="71"/>
          <note len="12" pan="0" vol="200" pos="120" key="74"/>
          <note len="12" pan="0" vol="200" pos="132" key="71"/>
          <note len="24" pan="0" vol="200" pos="144" key="76"/>
          <note len="24" pan="0" vol="200" pos="168" key="78"/>
        </pattern>
        <pattern type="1" name="Metal Drips" steps="16" pos="37632" muted="0">
          <note len="48" pan="0" vol="200" pos="0" key="79"/>
          <note len="48" pan="0" vol="200" pos="48" key="78"/>
          <note len="48" pan="0" vol="200" pos="96" key="76"/>
          <note len="48" pan="0" vol="200" pos="144" key="74"/>
          <note len="24" pan="0" vol="200" pos="192" key="76"/>
          <note len="24" pan="0" vol="200" pos="216" key="74"/>
          <note len="24" pan="0" vol="200" pos="240" key="73"/>
          <note len="48" pan="0" vol="200" pos="264" key="74"/>
          <note len="12" pan="0" vol="200" pos="312" key="73"/>
          <note len="12" pan="0" vol="200" pos="324" key="74"/>
          <note len="24" pan="0" vol="200" pos="336" key="73"/>
          <note len="24" pan="0" vol="200" pos="360" key="74"/>
        </pattern>
        <pattern type="1" name="Metal Drips" steps="16" pos="38016" muted="0">
          <note len="12" pan="0" vol="200" pos="0" key="78"/>
          <note len="12" pan="0" vol="200" pos="12" key="79"/>
          <note len="12" pan="0" vol="200" pos="24" key="78"/>
          <note len="12" pan="0" vol="200" pos="36" key="79"/>
          <note len="24" pan="0" vol="200" pos="48" key="78"/>
          <note len="24" pan="0" vol="200" pos="72" key="76"/>
          <note len="12" pan="0" vol="200" pos="96" key="73"/>
          <note len="12" pan="0" vol="200" pos="108" key="74"/>
          <note len="12" pan="0" vol="200" pos="120" key="73"/>
          <note len="12" pan="0" vol="200" pos="132" key="74"/>
          <note len="24" pan="0" vol="200" pos="144" key="73"/>
          <note len="24" pan="0" vol="200" pos="168" key="71"/>
          <note len="24" pan="0" vol="200" pos="192" key="69"/>
        </pattern>
        <pattern type="1" name="Metal Drips" steps="16" pos="35328" muted="0">
          <note len="384" pan="0" vol="200" pos="0" key="71"/>
          <note len="384" pan="0" vol="200" pos="384" key="67"/>
          <note len="384" pan="0" vol="200" pos="768" key="69"/>
          <note len="384" pan="0" vol="200" pos="1152" key="74"/>
        </pattern>
        <pattern type="1" name="Metal Drips" steps="16" pos="43584" muted="0">
          <note len="72" pan="0" vol="200" pos="0" key="74"/>
          <note len="72" pan="0" vol="200" pos="72" key="73"/>
          <note len="24" pan="0" vol="200" pos="144" key="71"/>
          <note len="24" pan="0" vol="200" pos="168" key="69"/>
          <note len="768" pan="0" vol="200" pos="192" key="71"/>
        </pattern>
      </track>
      <track type="0" name="detuned saw" muted="0" solo="0">
        <instrumenttrack pitch="0" usemasterpitch="1" pitchrange="1" pan="0" fxch="0" vol="5.8" basenote="57">
          <instrument name="tripleoscillator">
            <tripleoscillator modalgo2="2" wavetype0="2" stphdetun1="0" phoffset1="0" userwavefile2="" vol2="33" pan2="0" userwavefile0="" finer1="3" pan0="0" finel2="0" wavetype2="2" stphdetun0="0" phoffset2="0" coarse1="-12" coarse0="0" finer0="7" coarse2="0" userwavefile1="" finel0="-11" phoffset0="0" wavetype1="2" finel1="-6" stphdetun2="0" pan1="0" modalgo1="2" vol1="21" vol0="33" finer2="0" modalgo3="2"/>
          </instrument>
          <eldata fcut="6886" fres="0.5" fwet="1" ftype="0">
            <elvol sustain="1" lspd_denominator="4" rel="0.1" lspd_numerator="4" lspd_syncmode="0" x100="0" pdel="0" amt="1" userwavefile="" hold="0.5" dec="1.496" lspd="0.1" lamt="0" latt="0" lpdel="0" ctlenvamt="0" att="0.0559997" lshp="0"/>
            <elcut sustain="0.5" lspd_denominator="4" rel="0.1" lspd_numerator="4" lspd_syncmode="0" x100="0" pdel="0" amt="0" userwavefile="" hold="0.5" dec="0.5" lspd="0.1" lamt="0" latt="0" lpdel="0" ctlenvamt="0" att="0" lshp="0"/>
            <elres sustain="0.5" lspd_denominator="4" rel="0.1" lspd_numerator="4" lspd_syncmode="0" x100="0" pdel="0" amt="0" userwavefile="" hold="0.5" dec="0.5" lspd="0.1" lamt="0" latt="0" lpdel="0" ctlenvamt="0" att="0" lshp="0"/>
          </eldata>
          <chordcreator chordrange="1" chord="0" chord-enabled="0"/>
          <arpeggiator arpgate="100" arpskip="0" arp-enabled="0" arpmiss="0" arptime_denominator="4" arpdir="0" arpmode="0" arptime_numerator="4" arp="0" arptime="200" arprange="1" arpcycle="0" arptime_syncmode="0"/>
          <midiport fixedinputvelocity="-1" outputcontroller="0" inputchannel="0" outputchannel="1" basevelocity="63" fixedoutputnote="-1" inputcontroller="0" outputprogram="1" readable="0" writable="0" fixedoutputvelocity="-1"/>
          <fxchain numofeffects="1" enabled="1">
            <effect name="ladspaeffect" autoquit_syncmode="0" autoquit_denominator="4" autoquit_numerator="4" autoquit="1" wet="1" on="1" gate="0">
              <ladspacontrols ports="9">
                <port07>
                  <data id="3548553" value="3.61715" scale_type="log"/>
                </port07>
                <port08>
                  <data id="2960956" value="4520.25" scale_type="log"/>
                </port08>
                <port09 data="1"/>
                <port010 data="0.88625"/>
                <port011 data="0.8475"/>
                <port012 data="0.8875"/>
                <port013 data="0"/>
                <port014>
                  <data id="2720770" value="20" scale_type="log"/>
                </port014>
                <port015>
                  <data id="6862329" value="11928.1" scale_type="log"/>
                </port015>
              </ladspacontrols>
              <key>
                <attribute name="file" value="calf"/>
                <attribute name="plugin" value="Reverb"/>
              </key>
            </effect>
          </fxchain>
        </instrumenttrack>
        <pattern type="1" name="detuned saw" steps="16" pos="7680" muted="0">
          <note len="768" pan="0" vol="200" pos="0" key="62"/>
          <note len="768" pan="0" vol="200" pos="0" key="59"/>
          <note len="768" pan="0" vol="200" pos="0" key="54"/>
        </pattern>
        <pattern type="1" name="detuned saw" steps="16" pos="8448" muted="0">
          <note len="600" pan="0" vol="200" pos="0" key="62"/>
          <note len="600" pan="0" vol="200" pos="0" key="59"/>
          <note len="600" pan="0" vol="200" pos="0" key="55"/>
        </pattern>
        <pattern type="1" name="detuned saw" steps="16" pos="9216" muted="0">
          <note len="768" pan="0" vol="200" pos="0" key="62"/>
          <note len="768" pan="0" vol="200" pos="0" key="59"/>
          <note len="768" pan="0" vol="200" pos="0" key="54"/>
        </pattern>
        <pattern type="1" name="detuned saw" steps="16" pos="9984" muted="0">
          <note len="768" pan="0" vol="200" pos="0" key="62"/>
          <note len="768" pan="0" vol="200" pos="0" key="59"/>
          <note len="768" pan="0" vol="200" pos="0" key="55"/>
        </pattern>
        <pattern type="1" name="detuned saw" steps="16" pos="10752" muted="0">
          <note len="768" pan="0" vol="200" pos="0" key="66"/>
          <note len="768" pan="0" vol="200" pos="0" key="62"/>
          <note len="768" pan="0" vol="200" pos="0" key="59"/>
        </pattern>
        <pattern type="1" name="detuned saw" steps="16" pos="11520" muted="0">
          <note len="384" pan="0" vol="200" pos="0" key="67"/>
          <note len="384" pan="0" vol="200" pos="0" key="62"/>
          <note len="384" pan="0" vol="200" pos="0" key="59"/>
          <note len="384" pan="0" vol="200" pos="384" key="69"/>
          <note len="384" pan="0" vol="200" pos="384" key="64"/>
          <note len="384" pan="0" vol="200" pos="384" key="61"/>
        </pattern>
        <pattern type="1" name="detuned saw" steps="16" pos="6144" muted="0">
          <note len="768" pan="0" vol="200" pos="0" key="59"/>
          <note len="768" pan="0" vol="200" pos="0" key="54"/>
          <note len="768" pan="0" vol="200" pos="0" key="50"/>
        </pattern>
        <pattern type="1" name="detuned saw" steps="16" pos="6912" muted="0">
          <note len="768" pan="0" vol="200" pos="0" key="59"/>
          <note len="768" pan="0" vol="200" pos="0" key="55"/>
          <note len="768" pan="0" vol="200" pos="0" key="50"/>
        </pattern>
        <pattern type="1" name="detuned saw" steps="16" pos="22272" muted="0">
          <note len="384" pan="0" vol="200" pos="0" key="54"/>
          <note len="384" pan="0" vol="200" pos="0" key="50"/>
          <note len="192" pan="0" vol="200" pos="384" key="55"/>
          <note len="192" pan="0" vol="200" pos="384" key="50"/>
          <note len="192" pan="0" vol="200" pos="576" key="57"/>
          <note len="192" pan="0" vol="200" pos="576" key="52"/>
        </pattern>
        <pattern type="1" name="detuned saw" steps="16" pos="29952" muted="0">
          <note len="72" pan="0" vol="200" pos="0" key="74"/>
          <note len="384" pan="0" vol="200" pos="0" key="69"/>
          <note len="384" pan="0" vol="200" pos="0" key="66"/>
          <note len="384" pan="0" vol="200" pos="0" key="62"/>
          <note len="72" pan="0" vol="200" pos="72" key="76"/>
          <note len="48" pan="0" vol="200" pos="144" key="78"/>
          <note len="96" pan="0" vol="200" pos="192" key="81"/>
          <note len="48" pan="0" vol="200" pos="288" key="78"/>
          <note len="48" pan="0" vol="200" pos="336" key="81"/>
          <note len="72" pan="0" vol="200" pos="384" key="83"/>
          <note len="384" pan="0" vol="200" pos="384" key="69"/>
          <note len="384" pan="0" vol="200" pos="384" key="64"/>
          <note len="384" pan="0" vol="200" pos="384" key="61"/>
          <note len="72" pan="0" vol="200" pos="456" key="81"/>
          <note len="48" pan="0" vol="200" pos="528" key="78"/>
          <note len="96" pan="0" vol="200" pos="576" key="81"/>
          <note len="48" pan="0" vol="200" pos="672" key="78"/>
          <note len="48" pan="0" vol="200" pos="720" key="81"/>
          <note len="72" pan="0" vol="200" pos="768" key="83"/>
          <note len="384" pan="0" vol="200" pos="768" key="71"/>
          <note len="384" pan="0" vol="200" pos="768" key="67"/>
          <note len="384" pan="0" vol="200" pos="768" key="62"/>
          <note len="72" pan="0" vol="200" pos="840" key="81"/>
          <note len="48" pan="0" vol="200" pos="912" key="79"/>
          <note len="72" pan="0" vol="200" pos="960" key="83"/>
          <note len="72" pan="0" vol="200" pos="1032" key="81"/>
          <note len="48" pan="0" vol="200" pos="1104" key="79"/>
          <note len="72" pan="0" vol="200" pos="1152" key="78"/>
          <note len="192" pan="0" vol="200" pos="1152" key="74"/>
          <note len="192" pan="0" vol="200" pos="1152" key="69"/>
          <note len="192" pan="0" vol="200" pos="1152" key="66"/>
          <note len="72" pan="0" vol="200" pos="1224" key="79"/>
          <note len="48" pan="0" vol="200" pos="1296" key="78"/>
          <note len="96" pan="0" vol="200" pos="1344" key="76"/>
          <note len="192" pan="0" vol="200" pos="1344" key="73"/>
          <note len="192" pan="0" vol="200" pos="1344" key="69"/>
          <note len="192" pan="0" vol="200" pos="1344" key="64"/>
          <note len="48" pan="0" vol="200" pos="1440" key="78"/>
          <note len="48" pan="0" vol="200" pos="1488" key="76"/>
        </pattern>
        <pattern type="1" name="detuned saw" steps="16" pos="31488" muted="0">
          <note len="384" pan="0" vol="200" pos="0" key="74"/>
          <note len="384" pan="0" vol="200" pos="0" key="69"/>
          <note len="384" pan="0" vol="200" pos="0" key="66"/>
        </pattern>
        <pattern type="1" name="detuned saw" steps="16" pos="31872" muted="0">
          <note len="192" pan="0" vol="200" pos="0" key="74"/>
          <note len="192" pan="0" vol="200" pos="0" key="69"/>
          <note len="192" pan="0" vol="200" pos="0" key="66"/>
        </pattern>
        <pattern type="1" name="detuned saw" steps="16" pos="38400" muted="0">
          <note len="72" pan="0" vol="187" pos="0" key="74"/>
          <note len="384" pan="0" vol="200" pos="0" key="69"/>
          <note len="384" pan="0" vol="200" pos="0" key="66"/>
          <note len="384" pan="0" vol="200" pos="0" key="62"/>
          <note len="72" pan="0" vol="187" pos="72" key="76"/>
          <note len="48" pan="0" vol="187" pos="144" key="78"/>
          <note len="96" pan="0" vol="187" pos="192" key="81"/>
          <note len="48" pan="0" vol="187" pos="288" key="78"/>
          <note len="48" pan="0" vol="187" pos="336" key="81"/>
          <note len="72" pan="0" vol="187" pos="384" key="83"/>
          <note len="384" pan="0" vol="200" pos="384" key="69"/>
          <note len="384" pan="0" vol="200" pos="384" key="64"/>
          <note len="384" pan="0" vol="200" pos="384" key="61"/>
          <note len="72" pan="0" vol="187" pos="456" key="81"/>
          <note len="48" pan="0" vol="187" pos="528" key="78"/>
          <note len="96" pan="0" vol="187" pos="576" key="81"/>
          <note len="48" pan="0" vol="187" pos="672" key="78"/>
          <note len="48" pan="0" vol="187" pos="720" key="81"/>
          <note len="72" pan="0" vol="187" pos="768" key="83"/>
          <note len="384" pan="0" vol="200" pos="768" key="71"/>
          <note len="384" pan="0" vol="200" pos="768" key="67"/>
          <note len="384" pan="0" vol="200" pos="768" key="62"/>
          <note len="72" pan="0" vol="187" pos="840" key="81"/>
          <note len="48" pan="0" vol="187" pos="912" key="79"/>
          <note len="72" pan="0" vol="187" pos="960" key="83"/>
          <note len="72" pan="0" vol="187" pos="1032" key="81"/>
          <note len="48" pan="0" vol="187" pos="1104" key="79"/>
          <note len="72" pan="0" vol="187" pos="1152" key="78"/>
          <note len="192" pan="0" vol="200" pos="1152" key="69"/>
          <note len="192" pan="0" vol="200" pos="1152" key="66"/>
          <note len="192" pan="0" vol="200" pos="1152" key="62"/>
          <note len="72" pan="0" vol="187" pos="1224" key="79"/>
          <note len="48" pan="0" vol="187" pos="1296" key="78"/>
          <note len="96" pan="0" vol="187" pos="1344" key="76"/>
          <note len="192" pan="0" vol="200" pos="1344" key="69"/>
          <note len="192" pan="0" vol="200" pos="1344" key="64"/>
          <note len="192" pan="0" vol="200" pos="1344" key="61"/>
          <note len="48" pan="0" vol="187" pos="1440" key="78"/>
          <note len="48" pan="0" vol="187" pos="1488" key="76"/>
        </pattern>
        <pattern type="1" name="detuned saw" steps="16" pos="41472" muted="0">
          <note len="72" pan="0" vol="200" pos="0" key="74"/>
          <note len="384" pan="0" vol="200" pos="0" key="69"/>
          <note len="384" pan="0" vol="200" pos="0" key="66"/>
          <note len="384" pan="0" vol="200" pos="0" key="62"/>
          <note len="72" pan="0" vol="200" pos="72" key="76"/>
          <note len="48" pan="0" vol="200" pos="144" key="78"/>
          <note len="96" pan="0" vol="200" pos="192" key="81"/>
          <note len="48" pan="0" vol="200" pos="288" key="78"/>
          <note len="48" pan="0" vol="200" pos="336" key="81"/>
          <note len="72" pan="0" vol="200" pos="384" key="83"/>
          <note len="384" pan="0" vol="200" pos="384" key="69"/>
          <note len="384" pan="0" vol="200" pos="384" key="64"/>
          <note len="384" pan="0" vol="200" pos="384" key="61"/>
          <note len="72" pan="0" vol="200" pos="456" key="81"/>
          <note len="48" pan="0" vol="200" pos="528" key="78"/>
          <note len="96" pan="0" vol="200" pos="576" key="81"/>
          <note len="48" pan="0" vol="200" pos="672" key="78"/>
          <note len="48" pan="0" vol="200" pos="720" key="81"/>
          <note len="72" pan="0" vol="200" pos="768" key="83"/>
          <note len="384" pan="0" vol="200" pos="768" key="71"/>
          <note len="384" pan="0" vol="200" pos="768" key="67"/>
          <note len="384" pan="0" vol="200" pos="768" key="62"/>
          <note len="72" pan="0" vol="200" pos="840" key="81"/>
          <note len="48" pan="0" vol="200" pos="912" key="79"/>
          <note len="72" pan="0" vol="200" pos="960" key="83"/>
          <note len="72" pan="0" vol="200" pos="1032" key="81"/>
          <note len="48" pan="0" vol="200" pos="1104" key="79"/>
          <note len="72" pan="0" vol="200" pos="1152" key="78"/>
          <note len="192" pan="0" vol="200" pos="1152" key="74"/>
          <note len="192" pan="0" vol="200" pos="1152" key="69"/>
          <note len="192" pan="0" vol="200" pos="1152" key="66"/>
          <note len="72" pan="0" vol="200" pos="1224" key="79"/>
          <note len="48" pan="0" vol="200" pos="1296" key="78"/>
          <note len="96" pan="0" vol="200" pos="1344" key="76"/>
          <note len="192" pan="0" vol="200" pos="1344" key="73"/>
          <note len="192" pan="0" vol="200" pos="1344" key="69"/>
          <note len="192" pan="0" vol="200" pos="1344" key="64"/>
          <note len="48" pan="0" vol="200" pos="1440" key="78"/>
          <note len="48" pan="0" vol="200" pos="1488" key="76"/>
        </pattern>
        <pattern type="1" name="detuned saw" steps="16" pos="39936" muted="0">
          <note len="72" pan="0" vol="200" pos="0" key="74"/>
          <note len="384" pan="0" vol="200" pos="0" key="69"/>
          <note len="384" pan="0" vol="200" pos="0" key="66"/>
          <note len="384" pan="0" vol="200" pos="0" key="62"/>
          <note len="72" pan="0" vol="200" pos="72" key="76"/>
          <note len="48" pan="0" vol="200" pos="144" key="78"/>
          <note len="96" pan="0" vol="200" pos="192" key="81"/>
          <note len="48" pan="0" vol="200" pos="288" key="78"/>
          <note len="48" pan="0" vol="200" pos="336" key="81"/>
          <note len="72" pan="0" vol="200" pos="384" key="83"/>
          <note len="384" pan="0" vol="200" pos="384" key="69"/>
          <note len="384" pan="0" vol="200" pos="384" key="64"/>
          <note len="384" pan="0" vol="200" pos="384" key="61"/>
          <note len="72" pan="0" vol="200" pos="456" key="81"/>
          <note len="48" pan="0" vol="200" pos="528" key="78"/>
          <note len="96" pan="0" vol="200" pos="576" key="81"/>
          <note len="48" pan="0" vol="200" pos="672" key="78"/>
          <note len="48" pan="0" vol="200" pos="720" key="81"/>
          <note len="72" pan="0" vol="200" pos="768" key="83"/>
          <note len="384" pan="0" vol="200" pos="768" key="71"/>
          <note len="384" pan="0" vol="200" pos="768" key="67"/>
          <note len="384" pan="0" vol="200" pos="768" key="62"/>
          <note len="72" pan="0" vol="200" pos="840" key="81"/>
          <note len="48" pan="0" vol="200" pos="912" key="79"/>
          <note len="72" pan="0" vol="200" pos="960" key="83"/>
          <note len="72" pan="0" vol="200" pos="1032" key="81"/>
          <note len="48" pan="0" vol="200" pos="1104" key="79"/>
          <note len="72" pan="0" vol="200" pos="1152" key="78"/>
          <note len="192" pan="0" vol="200" pos="1152" key="69"/>
          <note len="192" pan="0" vol="200" pos="1152" key="66"/>
          <note len="192" pan="0" vol="200" pos="1152" key="62"/>
          <note len="72" pan="0" vol="200" pos="1224" key="79"/>
          <note len="48" pan="0" vol="200" pos="1296" key="78"/>
          <note len="96" pan="0" vol="200" pos="1344" key="76"/>
          <note len="192" pan="0" vol="200" pos="1344" key="69"/>
          <note len="192" pan="0" vol="200" pos="1344" key="64"/>
          <note len="192" pan="0" vol="200" pos="1344" key="61"/>
          <note len="48" pan="0" vol="200" pos="1440" key="78"/>
          <note len="48" pan="0" vol="200" pos="1488" key="76"/>
        </pattern>
        <pattern type="1" name="detuned saw" steps="16" pos="43008" muted="0">
          <note len="768" pan="0" vol="200" pos="0" key="62"/>
          <note len="768" pan="0" vol="200" pos="0" key="59"/>
          <note len="768" pan="0" vol="200" pos="0" key="54"/>
        </pattern>
        <pattern type="1" name="detuned saw" steps="16" pos="43776" muted="0">
          <note len="768" pan="0" vol="200" pos="0" key="62"/>
          <note len="768" pan="0" vol="200" pos="0" key="59"/>
          <note len="768" pan="0" vol="200" pos="0" key="55"/>
        </pattern>
        <pattern type="1" name="detuned saw" steps="16" pos="21504" muted="0">
          <note len="384" pan="0" vol="200" pos="0" key="74"/>
          <note len="384" pan="0" vol="200" pos="0" key="69"/>
          <note len="384" pan="0" vol="200" pos="0" key="66"/>
        </pattern>
        <pattern type="1" name="detuned saw" steps="16" pos="21888" muted="0">
          <note len="192" pan="0" vol="200" pos="0" key="74"/>
          <note len="192" pan="0" vol="200" pos="0" key="69"/>
          <note len="192" pan="0" vol="200" pos="0" key="66"/>
        </pattern>
        <pattern type="1" name="detuned saw" steps="16" pos="44544" muted="0">
          <note len="768" pan="0" vol="200" pos="0" key="66"/>
          <note len="768" pan="0" vol="200" pos="0" key="62"/>
          <note len="768" pan="0" vol="200" pos="0" key="59"/>
        </pattern>
        <pattern type="1" name="detuned saw" steps="16" pos="45312" muted="0">
          <note len="384" pan="0" vol="200" pos="0" key="67"/>
          <note len="384" pan="0" vol="200" pos="0" key="62"/>
          <note len="384" pan="0" vol="200" pos="0" key="59"/>
        </pattern>
        <pattern type="1" name="detuned saw" steps="16" pos="46080" muted="0">
          <note len="384" pan="0" vol="200" pos="0" key="71"/>
          <note len="384" pan="0" vol="200" pos="0" key="66"/>
          <note len="384" pan="0" vol="200" pos="0" key="62"/>
        </pattern>
        <pattern type="1" name="detuned saw" steps="16" pos="15360" muted="0">
          <note len="384" pan="0" vol="142" pos="0" key="62"/>
          <note len="384" pan="0" vol="142" pos="0" key="59"/>
          <note len="384" pan="0" vol="142" pos="384" key="62"/>
          <note len="384" pan="0" vol="142" pos="384" key="55"/>
          <note len="384" pan="0" vol="142" pos="768" key="61"/>
          <note len="384" pan="0" vol="142" pos="768" key="57"/>
          <note len="384" pan="0" vol="142" pos="1152" key="62"/>
          <note len="384" pan="0" vol="142" pos="1152" key="57"/>
          <note len="384" pan="0" vol="142" pos="1536" key="62"/>
          <note len="384" pan="0" vol="142" pos="1536" key="59"/>
          <note len="384" pan="0" vol="142" pos="1920" key="62"/>
          <note len="384" pan="0" vol="142" pos="1920" key="55"/>
          <note len="600" pan="0" vol="142" pos="2304" key="61"/>
          <note len="600" pan="0" vol="142" pos="2304" key="57"/>
        </pattern>
        <pattern type="1" name="detuned saw" steps="16" pos="25344" muted="0">
          <note len="384" pan="0" vol="142" pos="0" key="62"/>
          <note len="384" pan="0" vol="142" pos="0" key="59"/>
          <note len="384" pan="0" vol="142" pos="384" key="62"/>
          <note len="384" pan="0" vol="142" pos="384" key="55"/>
          <note len="384" pan="0" vol="142" pos="768" key="61"/>
          <note len="384" pan="0" vol="142" pos="768" key="57"/>
          <note len="384" pan="0" vol="142" pos="1152" key="62"/>
          <note len="384" pan="0" vol="142" pos="1152" key="57"/>
          <note len="384" pan="0" vol="142" pos="1536" key="62"/>
          <note len="384" pan="0" vol="142" pos="1536" key="59"/>
          <note len="384" pan="0" vol="142" pos="1920" key="62"/>
          <note len="384" pan="0" vol="142" pos="1920" key="55"/>
          <note len="600" pan="0" vol="142" pos="2304" key="61"/>
          <note len="600" pan="0" vol="142" pos="2304" key="57"/>
        </pattern>
        <pattern type="1" name="detuned saw" steps="16" pos="45696" muted="0">
          <note len="384" pan="0" vol="200" pos="0" key="69"/>
          <note len="384" pan="0" vol="200" pos="0" key="64"/>
          <note len="384" pan="0" vol="200" pos="0" key="61"/>
        </pattern>
        <pattern type="1" name="detuned saw" steps="16" pos="36864" muted="0">
          <note len="384" pan="0" vol="100" pos="0" key="71"/>
          <note len="384" pan="0" vol="100" pos="0" key="66"/>
          <note len="384" pan="0" vol="100" pos="0" key="62"/>
        </pattern>
        <pattern type="1" name="detuned saw" steps="16" pos="37248" muted="0">
          <note len="384" pan="0" vol="100" pos="0" key="71"/>
          <note len="384" pan="0" vol="100" pos="0" key="67"/>
          <note len="384" pan="0" vol="100" pos="0" key="62"/>
        </pattern>
        <pattern type="1" name="detuned saw" steps="16" pos="37632" muted="0">
          <note len="384" pan="0" vol="100" pos="0" key="73"/>
          <note len="384" pan="0" vol="100" pos="0" key="69"/>
          <note len="384" pan="0" vol="100" pos="0" key="64"/>
        </pattern>
        <pattern type="1" name="detuned saw" steps="16" pos="33792" muted="0">
          <note len="48" pan="0" vol="157" pos="0" key="86"/>
          <note len="48" pan="0" vol="157" pos="48" key="81"/>
          <note len="48" pan="0" vol="157" pos="96" key="85"/>
          <note len="48" pan="0" vol="157" pos="144" key="81"/>
          <note len="48" pan="0" vol="157" pos="192" key="86"/>
          <note len="48" pan="0" vol="157" pos="240" key="81"/>
          <note len="48" pan="0" vol="157" pos="288" key="85"/>
          <note len="48" pan="0" vol="157" pos="336" key="81"/>
          <note len="48" pan="0" vol="157" pos="384" key="86"/>
          <note len="48" pan="0" vol="157" pos="432" key="81"/>
          <note len="48" pan="0" vol="157" pos="480" key="85"/>
          <note len="48" pan="0" vol="157" pos="528" key="81"/>
          <note len="48" pan="0" vol="157" pos="576" key="86"/>
          <note len="48" pan="0" vol="157" pos="624" key="81"/>
          <note len="48" pan="0" vol="157" pos="672" key="85"/>
          <note len="48" pan="0" vol="157" pos="720" key="81"/>
        </pattern>
        <pattern type="1" name="detuned saw" steps="16" pos="35328" muted="0">
          <note len="384" pan="0" vol="136" pos="0" key="71"/>
          <note len="384" pan="0" vol="136" pos="384" key="67"/>
          <note len="384" pan="0" vol="136" pos="768" key="69"/>
          <note len="384" pan="0" vol="136" pos="1152" key="74"/>
        </pattern>
        <pattern type="1" name="detuned saw" steps="16" pos="38016" muted="0">
          <note len="216" pan="0" vol="100" pos="0" key="73"/>
          <note len="216" pan="0" vol="100" pos="0" key="69"/>
          <note len="216" pan="0" vol="100" pos="0" key="64"/>
        </pattern>
        <pattern type="1" name="detuned saw" steps="16" pos="28416" muted="0">
          <note len="72" pan="0" vol="187" pos="0" key="74"/>
          <note len="384" pan="0" vol="200" pos="0" key="69"/>
          <note len="384" pan="0" vol="200" pos="0" key="66"/>
          <note len="384" pan="0" vol="200" pos="0" key="62"/>
          <note len="72" pan="0" vol="187" pos="72" key="76"/>
          <note len="48" pan="0" vol="187" pos="144" key="78"/>
          <note len="96" pan="0" vol="187" pos="192" key="81"/>
          <note len="48" pan="0" vol="187" pos="288" key="78"/>
          <note len="48" pan="0" vol="187" pos="336" key="81"/>
          <note len="72" pan="0" vol="187" pos="384" key="83"/>
          <note len="384" pan="0" vol="200" pos="384" key="69"/>
          <note len="384" pan="0" vol="200" pos="384" key="64"/>
          <note len="384" pan="0" vol="200" pos="384" key="61"/>
          <note len="72" pan="0" vol="187" pos="456" key="81"/>
          <note len="48" pan="0" vol="187" pos="528" key="78"/>
          <note len="96" pan="0" vol="187" pos="576" key="81"/>
          <note len="48" pan="0" vol="187" pos="672" key="78"/>
          <note len="48" pan="0" vol="187" pos="720" key="81"/>
          <note len="72" pan="0" vol="187" pos="768" key="83"/>
          <note len="384" pan="0" vol="200" pos="768" key="71"/>
          <note len="384" pan="0" vol="200" pos="768" key="67"/>
          <note len="384" pan="0" vol="200" pos="768" key="62"/>
          <note len="72" pan="0" vol="187" pos="840" key="81"/>
          <note len="48" pan="0" vol="187" pos="912" key="79"/>
          <note len="72" pan="0" vol="187" pos="960" key="83"/>
          <note len="72" pan="0" vol="187" pos="1032" key="81"/>
          <note len="48" pan="0" vol="187" pos="1104" key="79"/>
          <note len="72" pan="0" vol="187" pos="1152" key="78"/>
          <note len="192" pan="0" vol="200" pos="1152" key="69"/>
          <note len="192" pan="0" vol="200" pos="1152" key="66"/>
          <note len="192" pan="0" vol="200" pos="1152" key="62"/>
          <note len="72" pan="0" vol="187" pos="1224" key="79"/>
          <note len="48" pan="0" vol="187" pos="1296" key="78"/>
          <note len="96" pan="0" vol="187" pos="1344" key="76"/>
          <note len="192" pan="0" vol="200" pos="1344" key="69"/>
          <note len="192" pan="0" vol="200" pos="1344" key="64"/>
          <note len="192" pan="0" vol="200" pos="1344" key="61"/>
          <note len="48" pan="0" vol="187" pos="1440" key="78"/>
          <note len="48" pan="0" vol="187" pos="1488" key="76"/>
        </pattern>
        <pattern type="1" name="detuned saw" steps="16" pos="18432" muted="0">
          <note len="72" pan="0" vol="187" pos="0" key="74"/>
          <note len="384" pan="0" vol="200" pos="0" key="69"/>
          <note len="384" pan="0" vol="200" pos="0" key="66"/>
          <note len="384" pan="0" vol="200" pos="0" key="62"/>
          <note len="72" pan="0" vol="187" pos="72" key="76"/>
          <note len="48" pan="0" vol="187" pos="144" key="78"/>
          <note len="96" pan="0" vol="187" pos="192" key="81"/>
          <note len="48" pan="0" vol="187" pos="288" key="78"/>
          <note len="48" pan="0" vol="187" pos="336" key="81"/>
          <note len="72" pan="0" vol="187" pos="384" key="83"/>
          <note len="384" pan="0" vol="200" pos="384" key="69"/>
          <note len="384" pan="0" vol="200" pos="384" key="64"/>
          <note len="384" pan="0" vol="200" pos="384" key="61"/>
          <note len="72" pan="0" vol="187" pos="456" key="81"/>
          <note len="48" pan="0" vol="187" pos="528" key="78"/>
          <note len="96" pan="0" vol="187" pos="576" key="81"/>
          <note len="48" pan="0" vol="187" pos="672" key="78"/>
          <note len="48" pan="0" vol="187" pos="720" key="81"/>
          <note len="72" pan="0" vol="187" pos="768" key="83"/>
          <note len="384" pan="0" vol="200" pos="768" key="71"/>
          <note len="384" pan="0" vol="200" pos="768" key="67"/>
          <note len="384" pan="0" vol="200" pos="768" key="62"/>
          <note len="72" pan="0" vol="187" pos="840" key="81"/>
          <note len="48" pan="0" vol="187" pos="912" key="79"/>
          <note len="72" pan="0" vol="187" pos="960" key="83"/>
          <note len="72" pan="0" vol="187" pos="1032" key="81"/>
          <note len="48" pan="0" vol="187" pos="1104" key="79"/>
          <note len="72" pan="0" vol="187" pos="1152" key="78"/>
          <note len="192" pan="0" vol="200" pos="1152" key="69"/>
          <note len="192" pan="0" vol="200" pos="1152" key="66"/>
          <note len="192" pan="0" vol="200" pos="1152" key="62"/>
          <note len="72" pan="0" vol="187" pos="1224" key="79"/>
          <note len="48" pan="0" vol="187" pos="1296" key="78"/>
          <note len="96" pan="0" vol="187" pos="1344" key="76"/>
          <note len="192" pan="0" vol="200" pos="1344" key="69"/>
          <note len="192" pan="0" vol="200" pos="1344" key="64"/>
          <note len="192" pan="0" vol="200" pos="1344" key="61"/>
          <note len="48" pan="0" vol="187" pos="1440" key="78"/>
          <note len="48" pan="0" vol="187" pos="1488" key="76"/>
        </pattern>
        <pattern type="1" name="detuned saw" steps="16" pos="19968" muted="0">
          <note len="72" pan="0" vol="200" pos="0" key="74"/>
          <note len="384" pan="0" vol="200" pos="0" key="69"/>
          <note len="384" pan="0" vol="200" pos="0" key="66"/>
          <note len="384" pan="0" vol="200" pos="0" key="62"/>
          <note len="72" pan="0" vol="200" pos="72" key="76"/>
          <note len="48" pan="0" vol="200" pos="144" key="78"/>
          <note len="96" pan="0" vol="200" pos="192" key="81"/>
          <note len="48" pan="0" vol="200" pos="288" key="78"/>
          <note len="48" pan="0" vol="200" pos="336" key="81"/>
          <note len="72" pan="0" vol="200" pos="384" key="83"/>
          <note len="384" pan="0" vol="200" pos="384" key="69"/>
          <note len="384" pan="0" vol="200" pos="384" key="64"/>
          <note len="384" pan="0" vol="200" pos="384" key="61"/>
          <note len="72" pan="0" vol="200" pos="456" key="81"/>
          <note len="48" pan="0" vol="200" pos="528" key="78"/>
          <note len="96" pan="0" vol="200" pos="576" key="81"/>
          <note len="48" pan="0" vol="200" pos="672" key="78"/>
          <note len="48" pan="0" vol="200" pos="720" key="81"/>
          <note len="72" pan="0" vol="200" pos="768" key="83"/>
          <note len="384" pan="0" vol="200" pos="768" key="71"/>
          <note len="384" pan="0" vol="200" pos="768" key="67"/>
          <note len="384" pan="0" vol="200" pos="768" key="62"/>
          <note len="72" pan="0" vol="200" pos="840" key="81"/>
          <note len="48" pan="0" vol="200" pos="912" key="79"/>
          <note len="72" pan="0" vol="200" pos="960" key="83"/>
          <note len="72" pan="0" vol="200" pos="1032" key="81"/>
          <note len="48" pan="0" vol="200" pos="1104" key="79"/>
          <note len="72" pan="0" vol="200" pos="1152" key="78"/>
          <note len="192" pan="0" vol="200" pos="1152" key="74"/>
          <note len="192" pan="0" vol="200" pos="1152" key="69"/>
          <note len="192" pan="0" vol="200" pos="1152" key="66"/>
          <note len="72" pan="0" vol="200" pos="1224" key="79"/>
          <note len="48" pan="0" vol="200" pos="1296" key="78"/>
          <note len="96" pan="0" vol="200" pos="1344" key="76"/>
          <note len="192" pan="0" vol="200" pos="1344" key="73"/>
          <note len="192" pan="0" vol="200" pos="1344" key="69"/>
          <note len="192" pan="0" vol="200" pos="1344" key="64"/>
          <note len="48" pan="0" vol="200" pos="1440" key="78"/>
          <note len="48" pan="0" vol="200" pos="1488" key="76"/>
        </pattern>
        <pattern type="1" name="detuned saw" steps="16" pos="23040" muted="0">
          <note len="384" pan="0" vol="200" pos="0" key="54"/>
          <note len="384" pan="0" vol="200" pos="0" key="50"/>
          <note len="192" pan="0" vol="200" pos="384" key="55"/>
          <note len="192" pan="0" vol="200" pos="384" key="50"/>
          <note len="192" pan="0" vol="200" pos="576" key="57"/>
          <note len="192" pan="0" vol="200" pos="576" key="52"/>
        </pattern>
        <pattern type="1" name="detuned saw" steps="16" pos="23808" muted="0">
          <note len="384" pan="0" vol="200" pos="0" key="54"/>
          <note len="384" pan="0" vol="200" pos="0" key="50"/>
          <note len="192" pan="0" vol="200" pos="384" key="55"/>
          <note len="192" pan="0" vol="200" pos="384" key="50"/>
          <note len="192" pan="0" vol="200" pos="576" key="57"/>
          <note len="192" pan="0" vol="200" pos="576" key="52"/>
        </pattern>
        <pattern type="1" name="detuned saw" steps="16" pos="24576" muted="0">
          <note len="384" pan="0" vol="200" pos="0" key="54"/>
          <note len="384" pan="0" vol="200" pos="0" key="50"/>
          <note len="192" pan="0" vol="200" pos="384" key="55"/>
          <note len="192" pan="0" vol="200" pos="384" key="50"/>
          <note len="192" pan="0" vol="200" pos="576" key="57"/>
          <note len="192" pan="0" vol="200" pos="576" key="52"/>
        </pattern>
        <pattern type="1" name="detuned saw" steps="16" pos="34560" muted="0">
          <note len="48" pan="0" vol="157" pos="0" key="86"/>
          <note len="48" pan="0" vol="157" pos="48" key="81"/>
          <note len="48" pan="0" vol="157" pos="96" key="85"/>
          <note len="48" pan="0" vol="157" pos="144" key="81"/>
          <note len="48" pan="0" vol="157" pos="192" key="86"/>
          <note len="48" pan="0" vol="157" pos="240" key="81"/>
          <note len="48" pan="0" vol="157" pos="288" key="85"/>
          <note len="48" pan="0" vol="157" pos="336" key="81"/>
          <note len="48" pan="0" vol="157" pos="384" key="86"/>
          <note len="48" pan="0" vol="157" pos="432" key="81"/>
          <note len="48" pan="0" vol="157" pos="480" key="85"/>
          <note len="48" pan="0" vol="157" pos="528" key="81"/>
          <note len="48" pan="0" vol="157" pos="576" key="86"/>
          <note len="48" pan="0" vol="157" pos="624" key="81"/>
          <note len="48" pan="0" vol="157" pos="672" key="85"/>
          <note len="48" pan="0" vol="157" pos="720" key="81"/>
        </pattern>
        <pattern type="1" name="detuned saw" steps="16" pos="14592" muted="0">
          <note len="384" pan="0" vol="200" pos="0" key="54"/>
          <note len="384" pan="0" vol="200" pos="0" key="50"/>
          <note len="192" pan="0" vol="200" pos="384" key="55"/>
          <note len="192" pan="0" vol="200" pos="384" key="50"/>
          <note len="192" pan="0" vol="200" pos="576" key="57"/>
          <note len="192" pan="0" vol="200" pos="576" key="52"/>
        </pattern>
        <pattern type="1" name="detuned saw" steps="16" pos="12288" muted="0">
          <note len="384" pan="0" vol="200" pos="0" key="54"/>
          <note len="384" pan="0" vol="200" pos="0" key="50"/>
          <note len="192" pan="0" vol="200" pos="384" key="55"/>
          <note len="192" pan="0" vol="200" pos="384" key="50"/>
          <note len="192" pan="0" vol="200" pos="576" key="57"/>
          <note len="192" pan="0" vol="200" pos="576" key="52"/>
        </pattern>
        <pattern type="1" name="detuned saw" steps="16" pos="13056" muted="0">
          <note len="384" pan="0" vol="200" pos="0" key="54"/>
          <note len="384" pan="0" vol="200" pos="0" key="50"/>
          <note len="192" pan="0" vol="200" pos="384" key="55"/>
          <note len="192" pan="0" vol="200" pos="384" key="50"/>
          <note len="192" pan="0" vol="200" pos="576" key="57"/>
          <note len="192" pan="0" vol="200" pos="576" key="52"/>
        </pattern>
        <pattern type="1" name="detuned saw" steps="16" pos="13824" muted="0">
          <note len="384" pan="0" vol="200" pos="0" key="54"/>
          <note len="384" pan="0" vol="200" pos="0" key="50"/>
          <note len="192" pan="0" vol="200" pos="384" key="55"/>
          <note len="192" pan="0" vol="200" pos="384" key="50"/>
          <note len="192" pan="0" vol="200" pos="576" key="57"/>
          <note len="192" pan="0" vol="200" pos="576" key="52"/>
        </pattern>
      </track>
      <track type="0" name="wind" muted="0" solo="0">
        <instrumenttrack pitch="0" usemasterpitch="1" pitchrange="1" pan="0" fxch="0" vol="22.9" basenote="57">
          <instrument name="tripleoscillator">
            <tripleoscillator modalgo2="2" wavetype0="6" stphdetun1="100" phoffset1="0" userwavefile2="" vol2="0" pan2="0" userwavefile0="" finer1="0" pan0="0" finel2="0" wavetype2="0" stphdetun0="179" phoffset2="0" coarse1="-12" coarse0="0" finer0="0" coarse2="-24" userwavefile1="" finel0="0" phoffset0="0" wavetype1="6" finel1="0" stphdetun2="0" pan1="0" modalgo1="2" vol1="8" vol0="33" finer2="0" modalgo3="2"/>
          </instrument>
          <eldata fcut="1289" fres="5.7" fwet="0" ftype="12">
            <elvol sustain="0.5" lspd_denominator="4" rel="0.1" lspd_numerator="4" lspd_syncmode="0" x100="0" pdel="0" amt="0" userwavefile="" hold="0.5" dec="0.5" lspd="0.1" lamt="0" latt="0" lpdel="0" ctlenvamt="0" att="0" lshp="0"/>
            <elcut sustain="0.5" lspd_denominator="4" rel="0.1" lspd_numerator="4" lspd_syncmode="0" x100="0" pdel="0" amt="0" userwavefile="" hold="0.5" dec="0.5" lspd="0.1" lamt="0" latt="0" lpdel="0" ctlenvamt="0" att="0" lshp="0"/>
            <elres sustain="0.5" lspd_denominator="4" rel="0.1" lspd_numerator="4" lspd_syncmode="0" x100="0" pdel="0" amt="0" userwavefile="" hold="0.5" dec="0.5" lspd="0.1" lamt="0" latt="0" lpdel="0" ctlenvamt="0" att="0" lshp="0"/>
          </eldata>
          <chordcreator chordrange="1" chord="0" chord-enabled="0"/>
          <arpeggiator arpgate="100" arpskip="0" arp-enabled="0" arpmiss="0" arptime_denominator="4" arpdir="0" arpmode="0" arptime_numerator="4" arp="0" arptime="200" arprange="1" arpcycle="0" arptime_syncmode="0"/>
          <midiport fixedinputvelocity="-1" outputcontroller="0" inputchannel="0" outputchannel="1" basevelocity="63" fixedoutputnote="-1" inputcontroller="0" outputprogram="1" readable="0" writable="0" fixedoutputvelocity="-1"/>
          <fxchain numofeffects="2" enabled="1">
            <effect name="eq" autoquit_syncmode="0" autoquit_denominator="4" autoquit_numerator="4" autoquit="1" wet="1" on="1" gate="0">
              <Eq Peak1bw="0.3" Peak3bw="0.3" Peak2bw="1.155" AnalyseIn="1" AnalyseOut="1" Peak3gain="0" HP24="0" LPactive="1" Peak4active="0" LP24="0" HP12="1" HP48="0" HPactive="1" HighShelfres="1.4" LP12="1" Peak1active="0" LPres="0.707" Peak3active="0" Peak4gain="0" Highshelfactive="1" HP="0" LowShelfres="1.4" Lowshelfgain="0" Outputgain="0" LP48="0" HPres="0.707" HighShelfgain="-0.18" Lowshelfactive="0" LP="0" Peak2gain="18" Peak4bw="0.3" Peak2active="1">
                <Inputgain id="4777799" value="0" scale_type="log"/>
                <Peak1gain id="2931356" value="0" scale_type="log"/>
                <HPfreq id="1624396" value="156.446" scale_type="log"/>
                <LowShelffreq id="5104681" value="80" scale_type="log"/>
                <Peak1freq id="1701353" value="120" scale_type="log"/>
                <Peak2freq id="4272662" value="271.307" scale_type="log"/>
                <connection>
                  <Peak2freq id="0"/>
                </connection>
                <Peak3freq id="7224349" value="2000" scale_type="log"/>
                <Peak4freq id="6292008" value="4000" scale_type="log"/>
                <Highshelffreq id="4508732" value="7688.61" scale_type="log"/>
                <LPfreq id="4862397" value="1264.56" scale_type="log"/>
              </Eq>
              <key/>
            </effect>
            <effect name="ladspaeffect" autoquit_syncmode="0" autoquit_denominator="4" autoquit_numerator="4" autoquit="1" wet="1" on="1" gate="0">
              <ladspacontrols ports="4">
                <port02 data="0.86478"/>
                <port03 data="0.3745"/>
                <port04 data="0.0874562"/>
                <port05 data="0.86875"/>
              </ladspacontrols>
              <key>
                <attribute name="file" value="caps"/>
                <attribute name="plugin" value="Plate2x2"/>
              </key>
            </effect>
          </fxchain>
        </instrumenttrack>
        <pattern type="1" name="wind" steps="16" pos="0" muted="0">
          <note len="384" pan="0" vol="200" pos="0" key="67"/>
        </pattern>
        <pattern type="1" name="" steps="16" pos="384" muted="0">
          <note len="384" pan="0" vol="200" pos="0" key="67"/>
        </pattern>
        <pattern type="1" name="" steps="16" pos="768" muted="0">
          <note len="384" pan="0" vol="200" pos="0" key="67"/>
        </pattern>
        <pattern type="1" name="" steps="16" pos="1152" muted="0">
          <note len="384" pan="0" vol="200" pos="0" key="67"/>
        </pattern>
        <pattern type="1" name="" steps="16" pos="1536" muted="0">
          <note len="384" pan="0" vol="200" pos="0" key="67"/>
        </pattern>
        <pattern type="1" name="" steps="16" pos="1920" muted="0">
          <note len="384" pan="0" vol="200" pos="0" key="67"/>
        </pattern>
        <pattern type="1" name="" steps="16" pos="2304" muted="0">
          <note len="384" pan="0" vol="200" pos="0" key="67"/>
        </pattern>
        <pattern type="1" name="" steps="16" pos="2688" muted="0">
          <note len="384" pan="0" vol="200" pos="0" key="67"/>
        </pattern>
        <pattern type="1" name="" steps="16" pos="3072" muted="0">
          <note len="384" pan="0" vol="200" pos="0" key="67"/>
        </pattern>
        <pattern type="1" name="" steps="16" pos="3456" muted="0">
          <note len="384" pan="0" vol="200" pos="0" key="67"/>
        </pattern>
        <pattern type="1" name="" steps="16" pos="3840" muted="0">
          <note len="384" pan="0" vol="200" pos="0" key="67"/>
        </pattern>
        <pattern type="1" name="" steps="16" pos="4224" muted="0">
          <note len="384" pan="0" vol="200" pos="0" key="67"/>
        </pattern>
        <pattern type="1" name="" steps="16" pos="4608" muted="0">
          <note len="384" pan="0" vol="200" pos="0" key="67"/>
        </pattern>
        <pattern type="1" name="" steps="16" pos="4992" muted="0">
          <note len="384" pan="0" vol="200" pos="0" key="67"/>
        </pattern>
        <pattern type="1" name="" steps="16" pos="5376" muted="0">
          <note len="384" pan="0" vol="200" pos="0" key="67"/>
        </pattern>
        <pattern type="1" name="" steps="16" pos="5760" muted="0">
          <note len="384" pan="0" vol="200" pos="0" key="67"/>
        </pattern>
      </track>
      <track type="0" name="not rozen maiden" muted="0" solo="0">
        <instrumenttrack pitch="0" usemasterpitch="1" pitchrange="1" pan="0" fxch="0" vol="46.9" basenote="57">
          <instrument name="sf2player">
            <sf2player src="/home/pass/samples/soundfonts/Blanchet-1720.sf2" patch="1" chorusNum="3" reverbRoomSize="0.2" chorusLevel="2" gain="1" chorusDepth="8" bank="1" chorusOn="0" chorusSpeed="0.3" reverbLevel="0.9" reverbOn="0" reverbDamping="0" reverbWidth="0.5"/>
          </instrument>
          <eldata fcut="14000" fres="0.5" fwet="0" ftype="0">
            <elvol sustain="0.5" lspd_denominator="4" rel="0.1" lspd_numerator="4" lspd_syncmode="0" x100="0" pdel="0" amt="0" userwavefile="" hold="0.5" dec="0.5" lspd="0.1" lamt="0" latt="0" lpdel="0" ctlenvamt="0" att="0" lshp="0"/>
            <elcut sustain="0.5" lspd_denominator="4" rel="0.1" lspd_numerator="4" lspd_syncmode="0" x100="0" pdel="0" amt="0" userwavefile="" hold="0.5" dec="0.5" lspd="0.1" lamt="0" latt="0" lpdel="0" ctlenvamt="0" att="0" lshp="0"/>
            <elres sustain="0.5" lspd_denominator="4" rel="0.1" lspd_numerator="4" lspd_syncmode="0" x100="0" pdel="0" amt="0" userwavefile="" hold="0.5" dec="0.5" lspd="0.1" lamt="0" latt="0" lpdel="0" ctlenvamt="0" att="0" lshp="0"/>
          </eldata>
          <chordcreator chordrange="1" chord="0" chord-enabled="0"/>
          <arpeggiator arpgate="100" arpskip="0" arp-enabled="0" arpmiss="0" arptime_denominator="4" arpdir="0" arpmode="0" arptime_numerator="4" arp="0" arptime="200" arprange="1" arpcycle="0" arptime_syncmode="0"/>
          <midiport fixedinputvelocity="-1" outputcontroller="0" inputchannel="0" outputchannel="1" basevelocity="63" fixedoutputnote="-1" inputcontroller="0" outputprogram="1" readable="0" writable="0" fixedoutputvelocity="-1"/>
          <fxchain numofeffects="1" enabled="1">
            <effect name="ladspaeffect" autoquit_syncmode="0" autoquit_denominator="4" autoquit_numerator="4" autoquit="1" wet="1" on="1" gate="0">
              <ladspacontrols ports="4">
                <port02 data="0.502"/>
                <port03 data="0.278066"/>
                <port04 data="0.250375"/>
                <port05 data="0.57375"/>
              </ladspacontrols>
              <key>
                <attribute name="file" value="caps"/>
                <attribute name="plugin" value="Plate2x2"/>
              </key>
            </effect>
          </fxchain>
        </instrumenttrack>
        <pattern type="1" name="not rozen maiden" steps="16" pos="3072" muted="0">
          <note len="48" pan="0" vol="192" pos="0" key="54"/>
          <note len="48" pan="0" vol="192" pos="0" key="47"/>
          <note len="48" pan="0" vol="192" pos="48" key="59"/>
          <note len="48" pan="0" vol="192" pos="48" key="42"/>
          <note len="48" pan="0" vol="192" pos="96" key="61"/>
          <note len="48" pan="0" vol="192" pos="96" key="47"/>
          <note len="48" pan="0" vol="192" pos="144" key="54"/>
          <note len="48" pan="0" vol="192" pos="144" key="50"/>
          <note len="48" pan="0" vol="192" pos="192" key="62"/>
          <note len="48" pan="0" vol="192" pos="192" key="47"/>
          <note len="48" pan="0" vol="192" pos="240" key="47"/>
          <note len="48" pan="0" vol="192" pos="240" key="42"/>
          <note len="48" pan="0" vol="192" pos="288" key="54"/>
          <note len="48" pan="0" vol="192" pos="288" key="47"/>
          <note len="48" pan="0" vol="192" pos="336" key="59"/>
          <note len="48" pan="0" vol="192" pos="336" key="50"/>
          <note len="48" pan="0" vol="192" pos="384" key="61"/>
          <note len="48" pan="0" vol="192" pos="384" key="47"/>
          <note len="48" pan="0" vol="192" pos="432" key="62"/>
          <note len="48" pan="0" vol="192" pos="432" key="42"/>
          <note len="48" pan="0" vol="192" pos="480" key="61"/>
          <note len="48" pan="0" vol="192" pos="480" key="47"/>
          <note len="48" pan="0" vol="192" pos="528" key="54"/>
          <note len="48" pan="0" vol="192" pos="528" key="50"/>
          <note len="48" pan="0" vol="192" pos="576" key="66"/>
          <note len="48" pan="0" vol="192" pos="576" key="47"/>
          <note len="48" pan="0" vol="192" pos="624" key="54"/>
          <note len="48" pan="0" vol="192" pos="624" key="42"/>
          <note len="48" pan="0" vol="192" pos="672" key="59"/>
          <note len="48" pan="0" vol="192" pos="672" key="47"/>
          <note len="48" pan="0" vol="192" pos="720" key="61"/>
          <note len="48" pan="0" vol="192" pos="720" key="50"/>
        </pattern>
        <pattern type="1" name="not rozen maiden" steps="16" pos="3840" muted="0">
          <note len="48" pan="0" vol="192" pos="0" key="54"/>
          <note len="48" pan="0" vol="192" pos="0" key="47"/>
          <note len="48" pan="0" vol="192" pos="48" key="59"/>
          <note len="48" pan="0" vol="192" pos="48" key="42"/>
          <note len="48" pan="0" vol="192" pos="96" key="61"/>
          <note len="48" pan="0" vol="192" pos="96" key="47"/>
          <note len="48" pan="0" vol="192" pos="144" key="54"/>
          <note len="48" pan="0" vol="192" pos="144" key="50"/>
          <note len="48" pan="0" vol="192" pos="192" key="62"/>
          <note len="48" pan="0" vol="192" pos="192" key="47"/>
          <note len="48" pan="0" vol="192" pos="240" key="47"/>
          <note len="48" pan="0" vol="192" pos="240" key="42"/>
          <note len="48" pan="0" vol="192" pos="288" key="54"/>
          <note len="48" pan="0" vol="192" pos="288" key="47"/>
          <note len="48" pan="0" vol="192" pos="336" key="59"/>
          <note len="48" pan="0" vol="192" pos="336" key="50"/>
          <note len="48" pan="0" vol="192" pos="384" key="61"/>
          <note len="48" pan="0" vol="192" pos="384" key="47"/>
          <note len="48" pan="0" vol="192" pos="432" key="62"/>
          <note len="48" pan="0" vol="192" pos="432" key="42"/>
          <note len="48" pan="0" vol="192" pos="480" key="61"/>
          <note len="48" pan="0" vol="192" pos="480" key="47"/>
          <note len="48" pan="0" vol="192" pos="528" key="54"/>
          <note len="48" pan="0" vol="192" pos="528" key="50"/>
          <note len="48" pan="0" vol="192" pos="576" key="66"/>
          <note len="48" pan="0" vol="192" pos="576" key="47"/>
          <note len="48" pan="0" vol="192" pos="624" key="54"/>
          <note len="48" pan="0" vol="192" pos="624" key="42"/>
          <note len="48" pan="0" vol="192" pos="672" key="59"/>
          <note len="48" pan="0" vol="192" pos="672" key="47"/>
          <note len="48" pan="0" vol="192" pos="720" key="61"/>
          <note len="48" pan="0" vol="192" pos="720" key="50"/>
        </pattern>
        <pattern type="1" name="not rozen maiden" steps="16" pos="4608" muted="0">
          <note len="48" pan="0" vol="192" pos="0" key="54"/>
          <note len="48" pan="0" vol="192" pos="0" key="47"/>
          <note len="48" pan="0" vol="192" pos="48" key="59"/>
          <note len="48" pan="0" vol="192" pos="48" key="43"/>
          <note len="48" pan="0" vol="192" pos="96" key="61"/>
          <note len="48" pan="0" vol="192" pos="96" key="47"/>
          <note len="48" pan="0" vol="192" pos="144" key="54"/>
          <note len="48" pan="0" vol="192" pos="144" key="50"/>
          <note len="48" pan="0" vol="192" pos="192" key="62"/>
          <note len="48" pan="0" vol="192" pos="192" key="47"/>
          <note len="48" pan="0" vol="192" pos="240" key="47"/>
          <note len="48" pan="0" vol="192" pos="240" key="43"/>
          <note len="48" pan="0" vol="192" pos="288" key="54"/>
          <note len="48" pan="0" vol="192" pos="288" key="47"/>
          <note len="48" pan="0" vol="192" pos="336" key="59"/>
          <note len="48" pan="0" vol="192" pos="336" key="50"/>
          <note len="48" pan="0" vol="192" pos="384" key="61"/>
          <note len="48" pan="0" vol="192" pos="384" key="47"/>
          <note len="48" pan="0" vol="192" pos="432" key="62"/>
          <note len="48" pan="0" vol="192" pos="432" key="43"/>
          <note len="48" pan="0" vol="192" pos="480" key="61"/>
          <note len="48" pan="0" vol="192" pos="480" key="47"/>
          <note len="48" pan="0" vol="192" pos="528" key="54"/>
          <note len="48" pan="0" vol="192" pos="528" key="50"/>
          <note len="48" pan="0" vol="192" pos="576" key="66"/>
          <note len="48" pan="0" vol="192" pos="576" key="47"/>
          <note len="48" pan="0" vol="192" pos="624" key="54"/>
          <note len="48" pan="0" vol="192" pos="624" key="43"/>
          <note len="48" pan="0" vol="192" pos="672" key="59"/>
          <note len="48" pan="0" vol="192" pos="672" key="47"/>
          <note len="48" pan="0" vol="192" pos="720" key="61"/>
          <note len="48" pan="0" vol="192" pos="720" key="50"/>
        </pattern>
        <pattern type="1" name="not rozen maiden" steps="16" pos="5376" muted="0">
          <note len="48" pan="0" vol="192" pos="0" key="54"/>
          <note len="48" pan="0" vol="192" pos="0" key="47"/>
          <note len="48" pan="0" vol="192" pos="48" key="59"/>
          <note len="48" pan="0" vol="192" pos="48" key="43"/>
          <note len="48" pan="0" vol="192" pos="96" key="61"/>
          <note len="48" pan="0" vol="192" pos="96" key="47"/>
          <note len="48" pan="0" vol="192" pos="144" key="54"/>
          <note len="48" pan="0" vol="192" pos="144" key="50"/>
          <note len="48" pan="0" vol="192" pos="192" key="62"/>
          <note len="48" pan="0" vol="192" pos="192" key="47"/>
          <note len="48" pan="0" vol="192" pos="240" key="47"/>
          <note len="48" pan="0" vol="192" pos="240" key="43"/>
          <note len="48" pan="0" vol="192" pos="288" key="54"/>
          <note len="48" pan="0" vol="192" pos="288" key="47"/>
          <note len="48" pan="0" vol="192" pos="336" key="59"/>
          <note len="48" pan="0" vol="192" pos="336" key="50"/>
          <note len="48" pan="0" vol="192" pos="384" key="61"/>
          <note len="48" pan="0" vol="192" pos="384" key="47"/>
          <note len="48" pan="0" vol="192" pos="432" key="62"/>
          <note len="48" pan="0" vol="192" pos="432" key="43"/>
          <note len="48" pan="0" vol="192" pos="480" key="61"/>
          <note len="48" pan="0" vol="192" pos="480" key="47"/>
          <note len="48" pan="0" vol="192" pos="528" key="54"/>
          <note len="48" pan="0" vol="192" pos="528" key="50"/>
          <note len="48" pan="0" vol="192" pos="576" key="66"/>
          <note len="48" pan="0" vol="192" pos="576" key="47"/>
          <note len="48" pan="0" vol="192" pos="624" key="54"/>
          <note len="48" pan="0" vol="192" pos="624" key="43"/>
          <note len="48" pan="0" vol="192" pos="672" key="59"/>
          <note len="48" pan="0" vol="192" pos="672" key="47"/>
          <note len="48" pan="0" vol="192" pos="720" key="61"/>
          <note len="48" pan="0" vol="192" pos="720" key="50"/>
        </pattern>
      </track>
      <track type="0" name="rev_c" muted="0" solo="0">
        <instrumenttrack pitch="0" usemasterpitch="1" pitchrange="1" pan="0" fxch="0" vol="57.2" basenote="57">
          <instrument name="audiofileprocessor">
            <audiofileprocessor src="/home/pass/samples/sillydrums/crash1.wav" amp="100" looped="0" lframe="1.41491e-5" eframe="1" stutter="0" sframe="7.07454e-6" interp="1" reversed="1"/>
          </instrument>
          <eldata fcut="14000" fres="0.5" fwet="0" ftype="0">
            <elvol sustain="0.5" lspd_denominator="4" rel="0.1" lspd_numerator="4" lspd_syncmode="0" x100="0" pdel="0" amt="0" userwavefile="" hold="0.5" dec="0.5" lspd="0.1" lamt="0" latt="0" lpdel="0" ctlenvamt="0" att="0" lshp="0"/>
            <elcut sustain="0.5" lspd_denominator="4" rel="0.1" lspd_numerator="4" lspd_syncmode="0" x100="0" pdel="0" amt="0" userwavefile="" hold="0.5" dec="0.5" lspd="0.1" lamt="0" latt="0" lpdel="0" ctlenvamt="0" att="0" lshp="0"/>
            <elres sustain="0.5" lspd_denominator="4" rel="0.1" lspd_numerator="4" lspd_syncmode="0" x100="0" pdel="0" amt="0" userwavefile="" hold="0.5" dec="0.5" lspd="0.1" lamt="0" latt="0" lpdel="0" ctlenvamt="0" att="0" lshp="0"/>
          </eldata>
          <chordcreator chordrange="1" chord="0" chord-enabled="0"/>
          <arpeggiator arpgate="100" arpskip="0" arp-enabled="0" arpmiss="0" arptime_denominator="4" arpdir="0" arpmode="0" arptime_numerator="4" arp="0" arptime="200" arprange="1" arpcycle="0" arptime_syncmode="0"/>
          <midiport fixedinputvelocity="-1" outputcontroller="0" inputchannel="0" outputchannel="1" basevelocity="63" fixedoutputnote="-1" inputcontroller="0" outputprogram="1" readable="0" writable="0" fixedoutputvelocity="-1"/>
          <fxchain numofeffects="1" enabled="1">
            <effect name="ladspaeffect" autoquit_syncmode="0" autoquit_denominator="4" autoquit_numerator="4" autoquit="1" wet="1" on="1" gate="0">
              <ladspacontrols ports="4">
                <port02 data="0.502"/>
                <port03 data="0.3745"/>
                <port04 data="0.250375"/>
                <port05 data="0.25"/>
              </ladspacontrols>
              <key>
                <attribute name="file" value="caps"/>
                <attribute name="plugin" value="Plate2x2"/>
              </key>
            </effect>
          </fxchain>
        </instrumenttrack>
        <pattern type="1" name="rev_c" steps="16" pos="5184" muted="0">
          <note len="864" pan="0" vol="192" pos="96" key="57"/>
        </pattern>
      </track>
      <track type="1" name="Beat/Bassline 19" muted="0" solo="0">
        <bbtrack/>
        <bbtco len="192" name="" usestyle="1" pos="45888" muted="0" color="4286611584"/>
      </track>
      <track type="5" name="Automation track" muted="0" solo="0">
        <automationtrack/>
        <automationpattern len="1152" tens="1" mute="0" name="Amplifier>>Volume" pos="45888" prog="0">
          <time value="100" pos="0"/>
          <time value="0" pos="576"/>
          <time value="0" pos="624"/>
          <object id="2519828"/>
          <object id="2519828"/>
        </automationpattern>
        <automationpattern len="192" tens="1" mute="0" name="Amplifier>>Volume" pos="0" prog="1">
          <time value="100" pos="0"/>
          <time value="99.3" pos="576"/>
          <time value="0" pos="624"/>
          <object id="2519828"/>
        </automationpattern>
      </track>
    </trackcontainer>
    <track type="6" name="Automation track" muted="0" solo="0">
      <automationtrack/>
      <automationpattern len="192" tens="1" mute="0" name="Numerator" pos="0" prog="0"/>
      <automationpattern len="192" tens="1" mute="0" name="Denominator" pos="0" prog="0"/>
      <automationpattern len="192" tens="1" mute="0" name="Tempo" pos="0" prog="0"/>
      <automationpattern len="192" tens="1" mute="0" name="Master volume" pos="0" prog="0"/>
      <automationpattern len="192" tens="1" mute="0" name="Master pitch" pos="0" prog="0"/>
    </track>
    <fxmixer x="-38" y="167" width="1260" height="333" maximized="0" visible="0" minimized="0">
      <fxchannel volume="0.614" name="Master" soloed="0" num="0" muted="0">
        <fxchain numofeffects="2" enabled="1">
          <effect name="eq" autoquit_syncmode="0" autoquit_denominator="4" autoquit_numerator="4" autoquit="1" wet="1" on="1" gate="0">
            <Eq Peak1bw="0.3" Peak3bw="0.3" Peak2bw="0.3" AnalyseIn="1" AnalyseOut="1" Peak3gain="0" HP24="0" LPactive="1" Peak4active="0" LP24="0" HP12="1" HP48="0" HPactive="0" HighShelfres="1.4" LP12="1" Peak1active="0" LPres="0.707" Peak3active="0" Peak4gain="0" Highshelfactive="1" HP="0" LowShelfres="1.4" Lowshelfgain="0" Outputgain="-3.35" LP48="0" HPres="0.707" HighShelfgain="0.9" Lowshelfactive="0" LP="0" Peak2gain="0" Peak4bw="0.3" Peak2active="0">
              <Inputgain id="5201925" value="0" scale_type="log"/>
              <Peak1gain id="5954615" value="0" scale_type="log"/>
              <HPfreq id="603149" value="31" scale_type="log"/>
              <LowShelffreq id="1571870" value="80" scale_type="log"/>
              <Peak1freq id="2461635" value="120" scale_type="log"/>
              <Peak2freq id="3060952" value="250" scale_type="log"/>
              <Peak3freq id="2015472" value="2000" scale_type="log"/>
              <Peak4freq id="893191" value="4000" scale_type="log"/>
              <Highshelffreq id="6056756" value="1487.7" scale_type="log"/>
              <LPfreq id="660392" value="11357.2" scale_type="log"/>
            </Eq>
            <key/>
          </effect>
          <effect name="ladspaeffect" autoquit_syncmode="0" autoquit_denominator="4" autoquit_numerator="4" autoquit="1" wet="1" on="0" gate="0">
            <ladspacontrols ports="8">
              <port04 data="0"/>
              <port05 data="0.8"/>
              <port06 data="0.84"/>
              <port015 data="1"/>
              <port016 data="5.05"/>
              <port017>
                <data id="6575078" value="31.6228" scale_type="log"/>
              </port017>
              <port019 data="1"/>
              <port021 data="0.5"/>
            </ladspacontrols>
            <key>
              <attribute name="file" value="calf"/>
              <attribute name="plugin" value="Limiter"/>
            </key>
          </effect>
        </fxchain>
      </fxchannel>
      <fxchannel volume="0.535" name="kick" soloed="0" num="1" muted="0">
        <fxchain numofeffects="0" enabled="0"/>
        <send channel="0" amount="1"/>
        <send channel="10" amount="0.512"/>
      </fxchannel>
      <fxchannel volume="0.232" name="hat" soloed="0" num="2" muted="0">
        <fxchain numofeffects="0" enabled="0"/>
        <send channel="0" amount="1"/>
        <send channel="10" amount="0.548"/>
      </fxchannel>
      <fxchannel volume="0.65" name="snare" soloed="0" num="3" muted="0">
        <fxchain numofeffects="1" enabled="1">
          <effect name="eq" autoquit_syncmode="0" autoquit_denominator="4" autoquit_numerator="4" autoquit="1" wet="1" on="1" gate="0">
            <Eq Peak1bw="0.3" Peak3bw="0.3" Peak2bw="0.3" AnalyseIn="1" AnalyseOut="1" Peak3gain="0" HP24="0" LPactive="1" Peak4active="1" LP24="0" HP12="1" HP48="0" HPactive="0" HighShelfres="1.435" LP12="1" Peak1active="0" LPres="0.707" Peak3active="0" Peak4gain="-0.718001" Highshelfactive="1" HP="0" LowShelfres="1.4" Lowshelfgain="0" Outputgain="0" LP48="0" HPres="0.707" HighShelfgain="5.04" Lowshelfactive="0" LP="0" Peak2gain="0" Peak4bw="0.3" Peak2active="0">
              <Inputgain id="6753652" value="0" scale_type="log"/>
              <Peak1gain id="8257704" value="0" scale_type="log"/>
              <HPfreq id="2234845" value="31" scale_type="log"/>
              <LowShelffreq id="5016811" value="80" scale_type="log"/>
              <Peak1freq id="5537746" value="120" scale_type="log"/>
              <Peak2freq id="6539813" value="250" scale_type="log"/>
              <Peak3freq id="6999518" value="2000" scale_type="log"/>
              <Peak4freq id="770028" value="4000" scale_type="log"/>
              <Highshelffreq id="3686018" value="2497.52" scale_type="log"/>
              <LPfreq id="7588449" value="13865.6" scale_type="log"/>
            </Eq>
            <key/>
          </effect>
        </fxchain>
        <send channel="0" amount="1"/>
        <send channel="10" amount="0.784"/>
      </fxchannel>
      <fxchannel volume="0.698" name="crash1" soloed="0" num="4" muted="0">
        <fxchain numofeffects="0" enabled="0"/>
        <send channel="0" amount="1"/>
        <send channel="10" amount="0.724"/>
      </fxchannel>
      <fxchannel volume="0.697" name="crash2" soloed="0" num="5" muted="0">
        <fxchain numofeffects="0" enabled="0"/>
        <send channel="0" amount="1"/>
        <send channel="10" amount="0.76"/>
      </fxchannel>
      <fxchannel volume="1" name="china" soloed="0" num="6" muted="0">
        <fxchain numofeffects="0" enabled="0"/>
        <send channel="0" amount="1"/>
        <send channel="10" amount="0"/>
      </fxchannel>
      <fxchannel volume="0.512" name="hitom" soloed="0" num="7" muted="0">
        <fxchain numofeffects="0" enabled="0"/>
        <send channel="0" amount="1"/>
        <send channel="10" amount="0.42"/>
      </fxchannel>
      <fxchannel volume="0.534" name="midtom" soloed="0" num="8" muted="0">
        <fxchain numofeffects="0" enabled="0"/>
        <send channel="0" amount="1"/>
        <send channel="10" amount="0.412"/>
      </fxchannel>
      <fxchannel volume="0.418" name="lotom" soloed="0" num="9" muted="0">
        <fxchain numofeffects="0" enabled="0"/>
        <send channel="0" amount="1"/>
        <send channel="10" amount="0.432"/>
      </fxchannel>
      <fxchannel volume="0.674" name="DRUM PLATE" soloed="0" num="10" muted="0">
        <fxchain numofeffects="2" enabled="1">
          <effect name="ladspaeffect" autoquit_syncmode="0" autoquit_denominator="4" autoquit_numerator="4" autoquit="1" wet="1" on="1" gate="0">
            <ladspacontrols ports="4">
              <port02 data="0.76538"/>
              <port03 data="0.145119"/>
              <port04 data="0.0005"/>
              <port05 data="1"/>
            </ladspacontrols>
            <key>
              <attribute name="file" value="caps"/>
              <attribute name="plugin" value="Plate2x2"/>
            </key>
          </effect>
          <effect name="eq" autoquit_syncmode="0" autoquit_denominator="4" autoquit_numerator="4" autoquit="1" wet="1" on="1" gate="0">
            <Eq Peak1bw="0.3" Peak3bw="0.3" Peak2bw="0.3" AnalyseIn="1" AnalyseOut="1" Peak3gain="0" HP24="0" LPactive="0" Peak4active="1" LP24="0" HP12="1" HP48="0" HPactive="1" HighShelfres="1.4" LP12="1" Peak1active="0" LPres="0.707" Peak3active="0" Peak4gain="0.36" Highshelfactive="1" HP="0" LowShelfres="1.4" Lowshelfgain="0" Outputgain="0" LP48="0" HPres="0.707" HighShelfgain="1.62" Lowshelfactive="0" LP="0" Peak2gain="0" Peak4bw="0.3" Peak2active="0">
              <Inputgain id="217936" value="0" scale_type="log"/>
              <Peak1gain id="1412862" value="0" scale_type="log"/>
              <HPfreq id="7725025" value="175.669" scale_type="log"/>
              <LowShelffreq id="399642" value="80" scale_type="log"/>
              <Peak1freq id="3213708" value="120" scale_type="log"/>
              <Peak2freq id="1180890" value="250" scale_type="log"/>
              <Peak3freq id="5654965" value="2000" scale_type="log"/>
              <Peak4freq id="757114" value="3592.47" scale_type="log"/>
              <Highshelffreq id="3326661" value="610.728" scale_type="log"/>
              <LPfreq id="825391" value="18000" scale_type="log"/>
            </Eq>
            <key/>
          </effect>
        </fxchain>
        <send channel="0" amount="1"/>
      </fxchannel>
      <fxchannel volume="0.0919999" name="rhythm guitar" soloed="0" num="11" muted="0">
        <fxchain numofeffects="2" enabled="1">
          <effect name="ladspaeffect" autoquit_syncmode="0" autoquit_denominator="4" autoquit_numerator="4" autoquit="1" wet="1" on="1" gate="0">
            <ladspacontrols ports="22" link="1">
              <port02 data="0" link="1"/>
              <port03 data="-16.35" link="1"/>
              <port04 data="50" link="1"/>
              <port05 data="50" link="1"/>
              <port06 data="50" link="1"/>
              <port07 data="50" link="1"/>
              <port08 data="50" link="1"/>
              <port09 data="0" link="1"/>
              <port010 data="0" link="1"/>
              <port011 data="0" link="1"/>
              <port012 data="0" link="1"/>
              <port12 data="0"/>
              <port13 data="-16.35"/>
              <port14 data="50"/>
              <port15 data="50"/>
              <port16 data="50"/>
              <port17 data="50"/>
              <port18 data="50"/>
              <port19 data="0"/>
              <port110 data="0"/>
              <port111 data="0"/>
              <port112 data="0"/>
            </ladspacontrols>
            <key>
              <attribute name="file" value="ladspa_guitarix"/>
              <attribute name="plugin" value="guitarix-amp"/>
            </key>
          </effect>
          <effect name="stereoenhancer" autoquit_syncmode="0" autoquit_denominator="4" autoquit_numerator="4" autoquit="1" wet="1" on="0" gate="0">
            <stereoenhancercontrols width="180"/>
            <key/>
          </effect>
        </fxchain>
        <send channel="0" amount="1"/>
      </fxchannel>
      <fxchannel volume="1.489" name="lgt" soloed="0" num="12" muted="0">
        <fxchain numofeffects="4" enabled="1">
          <effect name="ladspaeffect" autoquit_syncmode="0" autoquit_denominator="4" autoquit_numerator="4" autoquit="1" wet="1" on="1" gate="0">
            <ladspacontrols ports="4" link="1">
              <port00 link="1">
                <data id="354059" value="13230" scale_type="log"/>
              </port00>
              <port01 data="1" link="1"/>
              <port10>
                <data id="451672" value="13230" scale_type="log"/>
              </port10>
              <port11 data="1"/>
            </ladspacontrols>
            <key>
              <attribute name="file" value="pointer_cast_1910"/>
              <attribute name="plugin" value="pointerCastDistortion"/>
            </key>
          </effect>
          <effect name="ladspaeffect" autoquit_syncmode="0" autoquit_denominator="4" autoquit_numerator="4" autoquit="1" wet="1" on="1" gate="0">
            <ladspacontrols ports="4" link="1">
              <port01 data="10" link="1"/>
              <port02 data="1" link="1"/>
              <port11 data="10"/>
              <port12 data="1"/>
            </ladspacontrols>
            <key>
              <attribute name="file" value="caps"/>
              <attribute name="plugin" value="PreampIII"/>
            </key>
          </effect>
          <effect name="ladspaeffect" autoquit_syncmode="0" autoquit_denominator="4" autoquit_numerator="4" autoquit="1" wet="1" on="1" gate="0">
            <ladspacontrols ports="4" link="1">
              <port01 data="1" link="1"/>
              <port02 data="0" link="1"/>
              <port11 data="1"/>
              <port12 data="0"/>
            </ladspacontrols>
            <key>
              <attribute name="file" value="caps"/>
              <attribute name="plugin" value="CabinetII"/>
            </key>
          </effect>
          <effect name="ladspaeffect" autoquit_syncmode="0" autoquit_denominator="4" autoquit_numerator="4" autoquit="1" wet="1" on="0" gate="0">
            <ladspacontrols ports="1">
              <port02 data="1"/>
            </ladspacontrols>
            <key>
              <attribute name="file" value="caps"/>
              <attribute name="plugin" value="Narrower"/>
            </key>
          </effect>
        </fxchain>
        <send channel="0" amount="1"/>
        <send channel="13" amount="0.484"/>
      </fxchannel>
      <fxchannel volume="0.535" name="FX 14" soloed="0" num="13" muted="0">
        <fxchain numofeffects="1" enabled="1">
          <effect name="ladspaeffect" autoquit_syncmode="0" autoquit_denominator="4" autoquit_numerator="4" autoquit="1" wet="1" on="1" gate="0">
            <ladspacontrols ports="4" link="0">
              <port00 data_denominator="4" data="112.5" data_numerator="4" link="0" data_syncmode="0"/>
              <port01 data_denominator="4" data="0" data_numerator="4" link="0" data_syncmode="0"/>
              <port10 data_denominator="4" data="301.25" data_numerator="4" data_syncmode="0"/>
              <port11 data_denominator="4" data="0" data_numerator="4" data_syncmode="0"/>
            </ladspacontrols>
            <key>
              <attribute name="file" value="mod_delay_1419"/>
              <attribute name="plugin" value="modDelay"/>
            </key>
          </effect>
        </fxchain>
        <send channel="0" amount="1"/>
      </fxchannel>
      <fxchannel volume="1" name="bass" soloed="0" num="14" muted="0">
        <fxchain numofeffects="1" enabled="1">
          <effect name="eq" autoquit_syncmode="0" autoquit_denominator="4" autoquit_numerator="4" autoquit="1" wet="1" on="0" gate="0">
            <Eq Peak1bw="0.3" Peak3bw="1.828" Peak2bw="2.866" AnalyseIn="1" AnalyseOut="1" Peak3gain="0.9" HP24="0" LPactive="0" Peak4active="1" LP24="0" HP12="1" HP48="0" HPactive="0" HighShelfres="1.4" LP12="1" Peak1active="0" LPres="0.707" Peak3active="1" Peak4gain="4.86" Highshelfactive="0" HP="0" LowShelfres="1.21" Lowshelfgain="-5.757" Outputgain="4.73" LP48="0" HPres="0.707" HighShelfgain="0" Lowshelfactive="1" LP="0" Peak2gain="2.16" Peak4bw="0.811" Peak2active="1">
              <Inputgain id="1928132" value="0" scale_type="log"/>
              <Peak1gain id="5028906" value="0" scale_type="log"/>
              <HPfreq id="6101787" value="24.795" scale_type="log"/>
              <LowShelffreq id="5056230" value="174.403" scale_type="log"/>
              <Peak1freq id="3218393" value="120" scale_type="log"/>
              <Peak2freq id="4083145" value="5748.38" scale_type="log"/>
              <Peak3freq id="4897974" value="3457.18" scale_type="log"/>
              <Peak4freq id="5404987" value="4000" scale_type="log"/>
              <Highshelffreq id="3053663" value="12000" scale_type="log"/>
              <LPfreq id="1445410" value="18000" scale_type="log"/>
            </Eq>
            <key/>
          </effect>
        </fxchain>
        <send channel="0" amount="1"/>
      </fxchannel>
      <fxchannel volume="1" name="synthStrings" soloed="0" num="15" muted="0">
        <fxchain numofeffects="0" enabled="0"/>
        <send channel="0" amount="1"/>
      </fxchannel>
      <fxchannel volume="1" name="FX 16" soloed="0" num="16" muted="0">
        <fxchain numofeffects="0" enabled="0"/>
        <send channel="0" amount="1"/>
      </fxchannel>
      <fxchannel volume="1" name="FX 17" soloed="0" num="17" muted="0">
        <fxchain numofeffects="0" enabled="0"/>
        <send channel="0" amount="1"/>
      </fxchannel>
      <fxchannel volume="1" name="FX 18" soloed="0" num="18" muted="0">
        <fxchain numofeffects="0" enabled="0"/>
        <send channel="0" amount="1"/>
      </fxchannel>
      <fxchannel volume="1" name="FX 19" soloed="0" num="19" muted="0">
        <fxchain numofeffects="0" enabled="0"/>
        <send channel="0" amount="1"/>
      </fxchannel>
      <fxchannel volume="1" name="FX 20" soloed="0" num="20" muted="0">
        <fxchain numofeffects="0" enabled="0"/>
        <send channel="0" amount="1"/>
      </fxchannel>
    </fxmixer>
    <ControllerRackView x="447" y="261" width="350" height="200" maximized="0" visible="0" minimized="0"/>
    <pianoroll x="1" y="203" width="860" height="479" maximized="1" visible="0" minimized="0"/>
    <automationeditor x="318" y="34" width="860" height="400" maximized="0" visible="0" minimized="0"/>
    <projectnotes x="700" y="1" width="692" height="400" maximized="0" visible="0" minimized="0"><![CDATA[<!DOCTYPE HTML PUBLIC "-//W3C//DTD HTML 4.0//EN" "http://www.w3.org/TR/REC-html40/strict.dtd">
<html><head><meta name="qrichtext" content="1" /><style type="text/css">
p, li { white-space: pre-wrap; }
</style></head><body style=" font-family:'Sans Serif'; font-size:9pt; font-weight:400; font-style:normal;">
<p style="-qt-paragraph-type:empty; margin-top:0px; margin-bottom:0px; margin-left:0px; margin-right:0px; -qt-block-indent:0; text-indent:0px; font-family:'Ubuntu'; font-size:10pt;"><br /></p></body></html>]]></projectnotes>
    <timeline lp1pos="9600" lp0pos="0" lpstate="0"/>
    <controllers>
      <lfocontroller type="1" speed_syncmode="0" wave="0" name="Controller 1" multiplier="0" amount="0.13" base="0.264" speed_denominator="4" phase="0" userwavefile="" speed_numerator="4" speed="6.5681"/>
    </controllers>
  </song>
</lmms-project>
