<?xml version="1.0"?>
<!DOCTYPE lmms-project>
<lmms-project version="18" creatorversion="1.3.0-alpha.1.33+g4f74151" creator="LMMS" type="song">
  <head mastervol="100" masterpitch="0">
    <bpm scale_type="linear" value="201" id="2356958"/>
    <timesig_numerator scale_type="linear" value="4" id="545120"/>
    <timesig_denominator scale_type="linear" value="4" id="114903"/>
  </head>
  <song>
    <trackcontainer y="39" width="720" minimized="0" maximized="1" x="222" height="465" type="song" visible="1">
      <track solo="0" mutedBeforeSolo="0" muted="0" name="intro1" type="1">
        <bbtrack>
          <trackcontainer y="17" width="1042" minimized="0" maximized="1" x="80" height="291" type="bbtrackcontainer" visible="0">
            <track solo="0" mutedBeforeSolo="0" muted="0" name="kick" type="0">
              <instrumenttrack pan="0" basenote="57" pitch="0" usemasterpitch="1" vol="100" pitchrange="1" fxch="1">
                <instrument name="audiofileprocessor">
                  <audiofileprocessor stutter="0" amp="100" reversed="0" src="/home/pass/samples/sillydrums/kick.wav" interp="0" eframe="1" looped="0" sframe="0" lframe="0">
                    <key/>
                  </audiofileprocessor>
                </instrument>
                <eldata fcut="14000" fres="0.5" ftype="0" fwet="0">
                  <elvol lspd_syncmode="0" amt="1" lshp="0" lpdel="0" att="0" ctlenvamt="0" dec="2" userwavefile="" x100="0" rel="2" sustain="1" lspd_numerator="4" latt="0" lspd="0.1" lamt="0" lspd_denominator="4" hold="2" pdel="0"/>
                  <elcut lspd_syncmode="0" amt="0" lshp="0" lpdel="0" att="0" ctlenvamt="0" dec="0.5" userwavefile="" x100="0" rel="0.1" sustain="0.5" lspd_numerator="4" latt="0" lspd="0.1" lamt="0" lspd_denominator="4" hold="0.5" pdel="0"/>
                  <elres lspd_syncmode="0" amt="0" lshp="0" lpdel="0" att="0" ctlenvamt="0" dec="0.5" userwavefile="" x100="0" rel="0.1" sustain="0.5" lspd_numerator="4" latt="0" lspd="0.1" lamt="0" lspd_denominator="4" hold="0.5" pdel="0"/>
                </eldata>
                <chordcreator chordrange="1" chord-enabled="0" chord="0"/>
                <arpeggiator arprange="1" arpmode="0" arpcycle="0" arptime_syncmode="0" arptime_numerator="4" arpgate="100" arptime="200" arpskip="0" arpmiss="0" arp="0" arptime_denominator="4" arp-enabled="0" arpdir="0"/>
                <midiport inputcontroller="0" outputcontroller="0" readable="0" outputchannel="1" fixedoutputvelocity="-1" outputprogram="1" fixedinputvelocity="-1" fixedoutputnote="-1" inputchannel="0" basevelocity="63" writable="0"/>
                <fxchain enabled="0" numofeffects="0"/>
              </instrumenttrack>
              <pattern steps="64" muted="0" pos="0" name="" type="0">
                <note pan="0" key="57" len="-192" vol="100" pos="0"/>
                <note pan="0" key="57" len="-192" vol="100" pos="384"/>
              </pattern>
              <pattern steps="64" muted="0" pos="192" name="" type="0">
                <note pan="0" key="57" len="-192" vol="100" pos="0"/>
                <note pan="0" key="57" len="-192" vol="100" pos="384"/>
                <note pan="0" key="57" len="-192" vol="100" pos="720"/>
                <note pan="0" key="57" len="-192" vol="100" pos="732"/>
                <note pan="0" key="57" len="-192" vol="100" pos="744"/>
                <note pan="0" key="57" len="-192" vol="100" pos="756"/>
              </pattern>
              <pattern steps="32" muted="0" pos="384" name="" type="0">
                <note pan="0" key="57" len="-192" vol="100" pos="0"/>
                <note pan="0" key="57" len="-192" vol="100" pos="72"/>
                <note pan="0" key="57" len="-192" vol="100" pos="144"/>
                <note pan="0" key="57" len="-192" vol="100" pos="216"/>
                <note pan="0" key="57" len="-192" vol="100" pos="288"/>
                <note pan="0" key="57" len="-192" vol="100" pos="312"/>
                <note pan="0" key="57" len="-192" vol="100" pos="360"/>
                <note pan="0" key="57" len="-192" vol="100" pos="372"/>
              </pattern>
              <pattern steps="64" muted="0" pos="576" name="" type="0">
                <note pan="0" key="57" len="-192" vol="100" pos="0"/>
                <note pan="0" key="57" len="-192" vol="100" pos="12"/>
                <note pan="0" key="57" len="-192" vol="100" pos="24"/>
                <note pan="0" key="57" len="-192" vol="100" pos="36"/>
                <note pan="0" key="57" len="-192" vol="100" pos="48"/>
                <note pan="0" key="57" len="-192" vol="100" pos="60"/>
                <note pan="0" key="57" len="-192" vol="100" pos="72"/>
                <note pan="0" key="57" len="-192" vol="100" pos="84"/>
                <note pan="0" key="57" len="-192" vol="100" pos="96"/>
                <note pan="0" key="57" len="-192" vol="100" pos="108"/>
                <note pan="0" key="57" len="-192" vol="100" pos="120"/>
                <note pan="0" key="57" len="-192" vol="100" pos="132"/>
                <note pan="0" key="57" len="-192" vol="100" pos="144"/>
                <note pan="0" key="57" len="-192" vol="100" pos="156"/>
                <note pan="0" key="57" len="-192" vol="100" pos="168"/>
                <note pan="0" key="57" len="-192" vol="100" pos="180"/>
                <note pan="0" key="57" len="-192" vol="100" pos="192"/>
                <note pan="0" key="57" len="-192" vol="100" pos="204"/>
                <note pan="0" key="57" len="-192" vol="100" pos="216"/>
                <note pan="0" key="57" len="-192" vol="100" pos="228"/>
                <note pan="0" key="57" len="-192" vol="100" pos="240"/>
                <note pan="0" key="57" len="-192" vol="100" pos="252"/>
                <note pan="0" key="57" len="-192" vol="100" pos="264"/>
                <note pan="0" key="57" len="-192" vol="100" pos="276"/>
                <note pan="0" key="57" len="-192" vol="100" pos="288"/>
                <note pan="0" key="57" len="-192" vol="100" pos="300"/>
                <note pan="0" key="57" len="-192" vol="100" pos="312"/>
                <note pan="0" key="57" len="-192" vol="100" pos="324"/>
                <note pan="0" key="57" len="-192" vol="100" pos="336"/>
                <note pan="0" key="57" len="-192" vol="100" pos="348"/>
                <note pan="0" key="57" len="-192" vol="100" pos="360"/>
                <note pan="0" key="57" len="-192" vol="100" pos="372"/>
                <note pan="0" key="57" len="-192" vol="100" pos="384"/>
                <note pan="0" key="57" len="-192" vol="100" pos="396"/>
                <note pan="0" key="57" len="-192" vol="100" pos="408"/>
                <note pan="0" key="57" len="-192" vol="100" pos="420"/>
                <note pan="0" key="57" len="-192" vol="100" pos="432"/>
                <note pan="0" key="57" len="-192" vol="100" pos="444"/>
                <note pan="0" key="57" len="-192" vol="100" pos="456"/>
                <note pan="0" key="57" len="-192" vol="100" pos="468"/>
                <note pan="0" key="57" len="-192" vol="100" pos="480"/>
                <note pan="0" key="57" len="-192" vol="100" pos="492"/>
                <note pan="0" key="57" len="-192" vol="100" pos="504"/>
                <note pan="0" key="57" len="-192" vol="100" pos="516"/>
                <note pan="0" key="57" len="-192" vol="100" pos="528"/>
                <note pan="0" key="57" len="-192" vol="100" pos="540"/>
                <note pan="0" key="57" len="-192" vol="100" pos="552"/>
                <note pan="0" key="57" len="-192" vol="100" pos="564"/>
                <note pan="0" key="57" len="-192" vol="100" pos="576"/>
                <note pan="0" key="57" len="-192" vol="100" pos="588"/>
                <note pan="0" key="57" len="-192" vol="100" pos="600"/>
                <note pan="0" key="57" len="-192" vol="100" pos="612"/>
                <note pan="0" key="57" len="-192" vol="100" pos="624"/>
                <note pan="0" key="57" len="-192" vol="100" pos="636"/>
                <note pan="0" key="57" len="-192" vol="100" pos="648"/>
                <note pan="0" key="57" len="-192" vol="100" pos="660"/>
                <note pan="0" key="57" len="-192" vol="100" pos="672"/>
                <note pan="0" key="57" len="-192" vol="100" pos="684"/>
                <note pan="0" key="57" len="-192" vol="100" pos="696"/>
                <note pan="0" key="57" len="-192" vol="100" pos="708"/>
                <note pan="0" key="57" len="-192" vol="100" pos="720"/>
                <note pan="0" key="57" len="-192" vol="100" pos="732"/>
                <note pan="0" key="57" len="-192" vol="100" pos="744"/>
                <note pan="0" key="57" len="-192" vol="100" pos="756"/>
              </pattern>
              <pattern steps="16" muted="0" pos="768" name="" type="0">
                <note pan="0" key="57" len="-192" vol="100" pos="0"/>
                <note pan="0" key="57" len="-192" vol="100" pos="12"/>
                <note pan="0" key="57" len="-192" vol="100" pos="24"/>
                <note pan="0" key="57" len="-192" vol="100" pos="36"/>
                <note pan="0" key="57" len="-192" vol="100" pos="48"/>
                <note pan="0" key="57" len="-192" vol="100" pos="60"/>
                <note pan="0" key="57" len="-192" vol="100" pos="72"/>
                <note pan="0" key="57" len="-192" vol="100" pos="84"/>
                <note pan="0" key="57" len="-192" vol="100" pos="96"/>
                <note pan="0" key="57" len="-192" vol="100" pos="108"/>
                <note pan="0" key="57" len="-192" vol="100" pos="120"/>
                <note pan="0" key="57" len="-192" vol="100" pos="132"/>
                <note pan="0" key="57" len="-192" vol="100" pos="144"/>
                <note pan="0" key="57" len="-192" vol="100" pos="156"/>
                <note pan="0" key="57" len="-192" vol="100" pos="168"/>
                <note pan="0" key="57" len="-192" vol="100" pos="180"/>
              </pattern>
              <pattern steps="64" muted="0" pos="960" name="" type="0">
                <note pan="0" key="57" len="-192" vol="100" pos="0"/>
                <note pan="0" key="57" len="-192" vol="100" pos="48"/>
                <note pan="0" key="57" len="-192" vol="100" pos="96"/>
                <note pan="0" key="57" len="-192" vol="100" pos="144"/>
                <note pan="0" key="57" len="-192" vol="100" pos="156"/>
                <note pan="0" key="57" len="-192" vol="100" pos="168"/>
                <note pan="0" key="57" len="-192" vol="100" pos="180"/>
                <note pan="0" key="57" len="-192" vol="100" pos="192"/>
                <note pan="0" key="57" len="-192" vol="100" pos="240"/>
                <note pan="0" key="57" len="-192" vol="100" pos="288"/>
                <note pan="0" key="57" len="-192" vol="100" pos="336"/>
                <note pan="0" key="57" len="-192" vol="100" pos="348"/>
                <note pan="0" key="57" len="-192" vol="100" pos="360"/>
                <note pan="0" key="57" len="-192" vol="100" pos="372"/>
                <note pan="0" key="57" len="-192" vol="100" pos="384"/>
                <note pan="0" key="57" len="-192" vol="100" pos="432"/>
                <note pan="0" key="57" len="-192" vol="100" pos="480"/>
                <note pan="0" key="57" len="-192" vol="100" pos="528"/>
                <note pan="0" key="57" len="-192" vol="100" pos="540"/>
                <note pan="0" key="57" len="-192" vol="100" pos="552"/>
                <note pan="0" key="57" len="-192" vol="100" pos="564"/>
                <note pan="0" key="57" len="-192" vol="100" pos="576"/>
                <note pan="0" key="57" len="-192" vol="100" pos="588"/>
                <note pan="0" key="57" len="-192" vol="100" pos="600"/>
                <note pan="0" key="57" len="-192" vol="100" pos="612"/>
                <note pan="0" key="57" len="-192" vol="100" pos="624"/>
                <note pan="0" key="57" len="-192" vol="100" pos="636"/>
                <note pan="0" key="57" len="-192" vol="100" pos="648"/>
                <note pan="0" key="57" len="-192" vol="100" pos="660"/>
                <note pan="0" key="57" len="-192" vol="100" pos="672"/>
                <note pan="0" key="57" len="-192" vol="100" pos="684"/>
                <note pan="0" key="57" len="-192" vol="100" pos="696"/>
                <note pan="0" key="57" len="-192" vol="100" pos="708"/>
                <note pan="0" key="57" len="-192" vol="100" pos="720"/>
                <note pan="0" key="57" len="-192" vol="100" pos="732"/>
                <note pan="0" key="57" len="-192" vol="100" pos="744"/>
                <note pan="0" key="57" len="-192" vol="100" pos="756"/>
              </pattern>
              <pattern steps="64" muted="0" pos="1152" name="" type="0">
                <note pan="0" key="57" len="-192" vol="100" pos="0"/>
                <note pan="0" key="57" len="-192" vol="100" pos="48"/>
                <note pan="0" key="57" len="-192" vol="100" pos="96"/>
                <note pan="0" key="57" len="-192" vol="100" pos="144"/>
                <note pan="0" key="57" len="-192" vol="100" pos="156"/>
                <note pan="0" key="57" len="-192" vol="100" pos="168"/>
                <note pan="0" key="57" len="-192" vol="100" pos="180"/>
                <note pan="0" key="57" len="-192" vol="100" pos="192"/>
                <note pan="0" key="57" len="-192" vol="100" pos="240"/>
                <note pan="0" key="57" len="-192" vol="100" pos="288"/>
                <note pan="0" key="57" len="-192" vol="100" pos="336"/>
                <note pan="0" key="57" len="-192" vol="100" pos="348"/>
                <note pan="0" key="57" len="-192" vol="100" pos="360"/>
                <note pan="0" key="57" len="-192" vol="100" pos="372"/>
                <note pan="0" key="57" len="-192" vol="100" pos="384"/>
                <note pan="0" key="57" len="-192" vol="100" pos="432"/>
                <note pan="0" key="57" len="-192" vol="100" pos="480"/>
                <note pan="0" key="57" len="-192" vol="100" pos="528"/>
                <note pan="0" key="57" len="-192" vol="100" pos="540"/>
                <note pan="0" key="57" len="-192" vol="100" pos="552"/>
                <note pan="0" key="57" len="-192" vol="100" pos="564"/>
                <note pan="0" key="57" len="-192" vol="100" pos="576"/>
                <note pan="0" key="57" len="-192" vol="100" pos="624"/>
                <note pan="0" key="57" len="-192" vol="100" pos="672"/>
                <note pan="0" key="57" len="-192" vol="100" pos="720"/>
                <note pan="0" key="57" len="-192" vol="100" pos="732"/>
                <note pan="0" key="57" len="-192" vol="100" pos="744"/>
                <note pan="0" key="57" len="-192" vol="100" pos="756"/>
              </pattern>
              <pattern steps="32" muted="0" pos="1344" name="" type="0">
                <note pan="0" key="57" len="-192" vol="100" pos="0"/>
              </pattern>
              <pattern steps="64" muted="0" pos="1536" name="" type="0">
                <note pan="0" key="57" len="-192" vol="100" pos="0"/>
                <note pan="0" key="57" len="-192" vol="100" pos="12"/>
                <note pan="0" key="57" len="-192" vol="100" pos="24"/>
                <note pan="0" key="57" len="-192" vol="100" pos="48"/>
                <note pan="0" key="57" len="-192" vol="100" pos="60"/>
                <note pan="0" key="57" len="-192" vol="100" pos="72"/>
                <note pan="0" key="57" len="-192" vol="100" pos="96"/>
                <note pan="0" key="57" len="-192" vol="100" pos="108"/>
                <note pan="0" key="57" len="-192" vol="100" pos="120"/>
                <note pan="0" key="57" len="-192" vol="100" pos="144"/>
                <note pan="0" key="57" len="-192" vol="100" pos="156"/>
                <note pan="0" key="57" len="-192" vol="100" pos="168"/>
                <note pan="0" key="57" len="-192" vol="100" pos="192"/>
                <note pan="0" key="57" len="-192" vol="100" pos="204"/>
                <note pan="0" key="57" len="-192" vol="100" pos="216"/>
                <note pan="0" key="57" len="-192" vol="100" pos="240"/>
                <note pan="0" key="57" len="-192" vol="100" pos="252"/>
                <note pan="0" key="57" len="-192" vol="100" pos="264"/>
                <note pan="0" key="57" len="-192" vol="100" pos="276"/>
                <note pan="0" key="57" len="-192" vol="100" pos="288"/>
                <note pan="0" key="57" len="-192" vol="100" pos="300"/>
                <note pan="0" key="57" len="-192" vol="100" pos="312"/>
                <note pan="0" key="57" len="-192" vol="100" pos="324"/>
                <note pan="0" key="57" len="-192" vol="100" pos="336"/>
                <note pan="0" key="57" len="-192" vol="100" pos="348"/>
                <note pan="0" key="57" len="-192" vol="100" pos="360"/>
                <note pan="0" key="57" len="-192" vol="100" pos="372"/>
                <note pan="0" key="57" len="-192" vol="100" pos="384"/>
                <note pan="0" key="57" len="-192" vol="100" pos="396"/>
                <note pan="0" key="57" len="-192" vol="100" pos="408"/>
                <note pan="0" key="57" len="-192" vol="100" pos="432"/>
                <note pan="0" key="57" len="-192" vol="100" pos="444"/>
                <note pan="0" key="57" len="-192" vol="100" pos="456"/>
                <note pan="0" key="57" len="-192" vol="100" pos="480"/>
                <note pan="0" key="57" len="-192" vol="100" pos="492"/>
                <note pan="0" key="57" len="-192" vol="100" pos="504"/>
                <note pan="0" key="57" len="-192" vol="100" pos="528"/>
                <note pan="0" key="57" len="-192" vol="100" pos="540"/>
                <note pan="0" key="57" len="-192" vol="100" pos="552"/>
                <note pan="0" key="57" len="-192" vol="100" pos="576"/>
                <note pan="0" key="57" len="-192" vol="100" pos="588"/>
                <note pan="0" key="57" len="-192" vol="100" pos="600"/>
                <note pan="0" key="57" len="-192" vol="100" pos="624"/>
                <note pan="0" key="57" len="-192" vol="100" pos="636"/>
                <note pan="0" key="57" len="-192" vol="100" pos="648"/>
                <note pan="0" key="57" len="-192" vol="100" pos="660"/>
                <note pan="0" key="57" len="-192" vol="100" pos="672"/>
                <note pan="0" key="57" len="-192" vol="100" pos="684"/>
                <note pan="0" key="57" len="-192" vol="100" pos="696"/>
                <note pan="0" key="57" len="-192" vol="100" pos="708"/>
                <note pan="0" key="57" len="-192" vol="100" pos="720"/>
                <note pan="0" key="57" len="-192" vol="100" pos="732"/>
                <note pan="0" key="57" len="-192" vol="100" pos="744"/>
                <note pan="0" key="57" len="-192" vol="100" pos="756"/>
              </pattern>
              <pattern steps="32" muted="0" pos="1728" name="" type="0">
                <note pan="0" key="57" len="-192" vol="100" pos="0"/>
                <note pan="0" key="57" len="-192" vol="100" pos="12"/>
                <note pan="0" key="57" len="-192" vol="100" pos="24"/>
                <note pan="0" key="57" len="-192" vol="100" pos="36"/>
                <note pan="0" key="57" len="-192" vol="100" pos="48"/>
                <note pan="0" key="57" len="-192" vol="100" pos="60"/>
                <note pan="0" key="57" len="-192" vol="100" pos="72"/>
                <note pan="0" key="57" len="-192" vol="100" pos="84"/>
                <note pan="0" key="57" len="-192" vol="100" pos="96"/>
                <note pan="0" key="57" len="-192" vol="100" pos="108"/>
                <note pan="0" key="57" len="-192" vol="100" pos="120"/>
                <note pan="0" key="57" len="-192" vol="100" pos="132"/>
                <note pan="0" key="57" len="-192" vol="100" pos="144"/>
                <note pan="0" key="57" len="-192" vol="100" pos="156"/>
                <note pan="0" key="57" len="-192" vol="100" pos="168"/>
                <note pan="0" key="57" len="-192" vol="100" pos="180"/>
                <note pan="0" key="57" len="-192" vol="100" pos="192"/>
                <note pan="0" key="57" len="-192" vol="100" pos="204"/>
                <note pan="0" key="57" len="-192" vol="100" pos="216"/>
                <note pan="0" key="57" len="-192" vol="100" pos="228"/>
                <note pan="0" key="57" len="-192" vol="100" pos="240"/>
                <note pan="0" key="57" len="-192" vol="100" pos="252"/>
                <note pan="0" key="57" len="-192" vol="100" pos="264"/>
                <note pan="0" key="57" len="-192" vol="100" pos="276"/>
                <note pan="0" key="57" len="-192" vol="100" pos="288"/>
                <note pan="0" key="57" len="-192" vol="100" pos="300"/>
                <note pan="0" key="57" len="-192" vol="100" pos="312"/>
                <note pan="0" key="57" len="-192" vol="100" pos="324"/>
                <note pan="0" key="57" len="-192" vol="100" pos="336"/>
                <note pan="0" key="57" len="-192" vol="100" pos="348"/>
                <note pan="0" key="57" len="-192" vol="100" pos="360"/>
                <note pan="0" key="57" len="-192" vol="100" pos="372"/>
              </pattern>
              <pattern steps="32" muted="0" pos="1920" name="" type="0">
                <note pan="0" key="57" len="-192" vol="100" pos="0"/>
                <note pan="0" key="57" len="-192" vol="100" pos="12"/>
                <note pan="0" key="57" len="-192" vol="100" pos="24"/>
                <note pan="0" key="57" len="-192" vol="100" pos="36"/>
                <note pan="0" key="57" len="-192" vol="100" pos="48"/>
                <note pan="0" key="57" len="-192" vol="100" pos="60"/>
                <note pan="0" key="57" len="-192" vol="100" pos="72"/>
                <note pan="0" key="57" len="-192" vol="100" pos="84"/>
                <note pan="0" key="57" len="-192" vol="100" pos="96"/>
                <note pan="0" key="57" len="-192" vol="100" pos="108"/>
                <note pan="0" key="57" len="-192" vol="100" pos="120"/>
                <note pan="0" key="57" len="-192" vol="100" pos="132"/>
                <note pan="0" key="57" len="-192" vol="100" pos="144"/>
                <note pan="0" key="57" len="-192" vol="100" pos="156"/>
                <note pan="0" key="57" len="-192" vol="100" pos="168"/>
                <note pan="0" key="57" len="-192" vol="100" pos="180"/>
                <note pan="0" key="57" len="-192" vol="100" pos="192"/>
                <note pan="0" key="57" len="-192" vol="100" pos="288"/>
                <note pan="0" key="57" len="-192" vol="100" pos="300"/>
                <note pan="0" key="57" len="-192" vol="100" pos="312"/>
                <note pan="0" key="57" len="-192" vol="100" pos="324"/>
                <note pan="0" key="57" len="-192" vol="100" pos="336"/>
                <note pan="0" key="57" len="-192" vol="100" pos="348"/>
                <note pan="0" key="57" len="-192" vol="100" pos="360"/>
                <note pan="0" key="57" len="-192" vol="100" pos="372"/>
              </pattern>
              <pattern steps="64" muted="0" pos="2112" name="" type="0">
                <note pan="0" key="57" len="-192" vol="100" pos="0"/>
                <note pan="0" key="57" len="-192" vol="100" pos="12"/>
                <note pan="0" key="57" len="-192" vol="100" pos="24"/>
                <note pan="0" key="57" len="-192" vol="100" pos="36"/>
                <note pan="0" key="57" len="-192" vol="100" pos="48"/>
                <note pan="0" key="57" len="-192" vol="100" pos="60"/>
                <note pan="0" key="57" len="-192" vol="100" pos="72"/>
                <note pan="0" key="57" len="-192" vol="100" pos="84"/>
                <note pan="0" key="57" len="-192" vol="100" pos="96"/>
                <note pan="0" key="57" len="-192" vol="100" pos="108"/>
                <note pan="0" key="57" len="-192" vol="100" pos="120"/>
                <note pan="0" key="57" len="-192" vol="100" pos="132"/>
                <note pan="0" key="57" len="-192" vol="100" pos="144"/>
                <note pan="0" key="57" len="-192" vol="100" pos="156"/>
                <note pan="0" key="57" len="-192" vol="100" pos="168"/>
                <note pan="0" key="57" len="-192" vol="100" pos="180"/>
                <note pan="0" key="57" len="-192" vol="100" pos="192"/>
                <note pan="0" key="57" len="-192" vol="100" pos="204"/>
                <note pan="0" key="57" len="-192" vol="100" pos="216"/>
                <note pan="0" key="57" len="-192" vol="100" pos="228"/>
                <note pan="0" key="57" len="-192" vol="100" pos="240"/>
                <note pan="0" key="57" len="-192" vol="100" pos="252"/>
                <note pan="0" key="57" len="-192" vol="100" pos="264"/>
                <note pan="0" key="57" len="-192" vol="100" pos="276"/>
                <note pan="0" key="57" len="-192" vol="100" pos="288"/>
                <note pan="0" key="57" len="-192" vol="100" pos="300"/>
                <note pan="0" key="57" len="-192" vol="100" pos="312"/>
                <note pan="0" key="57" len="-192" vol="100" pos="324"/>
                <note pan="0" key="57" len="-192" vol="100" pos="336"/>
                <note pan="0" key="57" len="-192" vol="100" pos="348"/>
                <note pan="0" key="57" len="-192" vol="100" pos="360"/>
                <note pan="0" key="57" len="-192" vol="100" pos="372"/>
                <note pan="0" key="57" len="-192" vol="100" pos="384"/>
                <note pan="0" key="57" len="-192" vol="100" pos="396"/>
                <note pan="0" key="57" len="-192" vol="100" pos="408"/>
                <note pan="0" key="57" len="-192" vol="100" pos="420"/>
                <note pan="0" key="57" len="-192" vol="100" pos="432"/>
                <note pan="0" key="57" len="-192" vol="100" pos="444"/>
                <note pan="0" key="57" len="-192" vol="100" pos="456"/>
                <note pan="0" key="57" len="-192" vol="100" pos="468"/>
                <note pan="0" key="57" len="-192" vol="100" pos="480"/>
                <note pan="0" key="57" len="-192" vol="100" pos="492"/>
                <note pan="0" key="57" len="-192" vol="100" pos="504"/>
                <note pan="0" key="57" len="-192" vol="100" pos="516"/>
                <note pan="0" key="57" len="-192" vol="100" pos="528"/>
                <note pan="0" key="57" len="-192" vol="100" pos="540"/>
                <note pan="0" key="57" len="-192" vol="100" pos="552"/>
                <note pan="0" key="57" len="-192" vol="100" pos="564"/>
                <note pan="0" key="57" len="-192" vol="100" pos="576"/>
                <note pan="0" key="57" len="-192" vol="100" pos="588"/>
                <note pan="0" key="57" len="-192" vol="100" pos="600"/>
                <note pan="0" key="57" len="-192" vol="100" pos="612"/>
                <note pan="0" key="57" len="-192" vol="100" pos="624"/>
                <note pan="0" key="57" len="-192" vol="100" pos="636"/>
                <note pan="0" key="57" len="-192" vol="100" pos="648"/>
                <note pan="0" key="57" len="-192" vol="100" pos="660"/>
                <note pan="0" key="57" len="-192" vol="100" pos="672"/>
                <note pan="0" key="57" len="-192" vol="100" pos="684"/>
                <note pan="0" key="57" len="-192" vol="100" pos="696"/>
                <note pan="0" key="57" len="-192" vol="100" pos="708"/>
                <note pan="0" key="57" len="-192" vol="100" pos="720"/>
                <note pan="0" key="57" len="-192" vol="100" pos="732"/>
                <note pan="0" key="57" len="-192" vol="100" pos="744"/>
                <note pan="0" key="57" len="-192" vol="100" pos="756"/>
              </pattern>
              <pattern steps="32" muted="0" pos="2304" name="" type="0">
                <note pan="0" key="57" len="-192" vol="100" pos="0"/>
                <note pan="0" key="57" len="-192" vol="100" pos="12"/>
                <note pan="0" key="57" len="-192" vol="100" pos="24"/>
                <note pan="0" key="57" len="-192" vol="100" pos="36"/>
                <note pan="0" key="57" len="-192" vol="100" pos="48"/>
                <note pan="0" key="57" len="-192" vol="100" pos="60"/>
                <note pan="0" key="57" len="-192" vol="100" pos="72"/>
                <note pan="0" key="57" len="-192" vol="100" pos="84"/>
                <note pan="0" key="57" len="-192" vol="100" pos="96"/>
                <note pan="0" key="57" len="-192" vol="100" pos="108"/>
                <note pan="0" key="57" len="-192" vol="100" pos="120"/>
                <note pan="0" key="57" len="-192" vol="100" pos="132"/>
                <note pan="0" key="57" len="-192" vol="100" pos="144"/>
                <note pan="0" key="57" len="-192" vol="100" pos="156"/>
                <note pan="0" key="57" len="-192" vol="100" pos="168"/>
                <note pan="0" key="57" len="-192" vol="100" pos="180"/>
                <note pan="0" key="57" len="-192" vol="100" pos="192"/>
                <note pan="0" key="57" len="-192" vol="100" pos="204"/>
                <note pan="0" key="57" len="-192" vol="100" pos="216"/>
                <note pan="0" key="57" len="-192" vol="100" pos="228"/>
                <note pan="0" key="57" len="-192" vol="100" pos="240"/>
                <note pan="0" key="57" len="-192" vol="100" pos="252"/>
                <note pan="0" key="57" len="-192" vol="100" pos="264"/>
                <note pan="0" key="57" len="-192" vol="100" pos="276"/>
                <note pan="0" key="57" len="-192" vol="100" pos="288"/>
                <note pan="0" key="57" len="-192" vol="100" pos="300"/>
                <note pan="0" key="57" len="-192" vol="100" pos="312"/>
                <note pan="0" key="57" len="-192" vol="100" pos="324"/>
                <note pan="0" key="57" len="-192" vol="100" pos="336"/>
                <note pan="0" key="57" len="-192" vol="100" pos="348"/>
                <note pan="0" key="57" len="-192" vol="100" pos="360"/>
                <note pan="0" key="57" len="-192" vol="100" pos="372"/>
              </pattern>
              <pattern steps="32" muted="0" pos="2496" name="" type="0">
                <note pan="0" key="57" len="-192" vol="100" pos="0"/>
                <note pan="0" key="57" len="-192" vol="100" pos="12"/>
                <note pan="0" key="57" len="-192" vol="100" pos="24"/>
                <note pan="0" key="57" len="-192" vol="100" pos="36"/>
                <note pan="0" key="57" len="-192" vol="100" pos="48"/>
                <note pan="0" key="57" len="-192" vol="100" pos="60"/>
                <note pan="0" key="57" len="-192" vol="100" pos="72"/>
                <note pan="0" key="57" len="-192" vol="100" pos="84"/>
                <note pan="0" key="57" len="-192" vol="100" pos="96"/>
                <note pan="0" key="57" len="-192" vol="100" pos="108"/>
                <note pan="0" key="57" len="-192" vol="100" pos="120"/>
                <note pan="0" key="57" len="-192" vol="100" pos="132"/>
                <note pan="0" key="57" len="-192" vol="100" pos="144"/>
                <note pan="0" key="57" len="-192" vol="100" pos="156"/>
                <note pan="0" key="57" len="-192" vol="100" pos="168"/>
                <note pan="0" key="57" len="-192" vol="100" pos="180"/>
                <note pan="0" key="57" len="-192" vol="100" pos="192"/>
                <note pan="0" key="57" len="-192" vol="100" pos="204"/>
                <note pan="0" key="57" len="-192" vol="100" pos="216"/>
                <note pan="0" key="57" len="-192" vol="100" pos="228"/>
                <note pan="0" key="57" len="-192" vol="100" pos="240"/>
                <note pan="0" key="57" len="-192" vol="100" pos="252"/>
                <note pan="0" key="57" len="-192" vol="100" pos="264"/>
                <note pan="0" key="57" len="-192" vol="100" pos="276"/>
                <note pan="0" key="57" len="-192" vol="100" pos="288"/>
                <note pan="0" key="57" len="-192" vol="100" pos="300"/>
                <note pan="0" key="57" len="-192" vol="100" pos="312"/>
                <note pan="0" key="57" len="-192" vol="100" pos="324"/>
                <note pan="0" key="57" len="-192" vol="100" pos="336"/>
                <note pan="0" key="57" len="-192" vol="100" pos="348"/>
                <note pan="0" key="57" len="-192" vol="100" pos="360"/>
                <note pan="0" key="57" len="-192" vol="100" pos="372"/>
              </pattern>
              <pattern steps="64" muted="0" pos="2688" name="" type="0">
                <note pan="0" key="57" len="-192" vol="100" pos="0"/>
                <note pan="0" key="57" len="-192" vol="100" pos="12"/>
                <note pan="0" key="57" len="-192" vol="100" pos="24"/>
                <note pan="0" key="57" len="-192" vol="100" pos="36"/>
                <note pan="0" key="57" len="-192" vol="100" pos="48"/>
                <note pan="0" key="57" len="-192" vol="100" pos="60"/>
                <note pan="0" key="57" len="-192" vol="100" pos="72"/>
                <note pan="0" key="57" len="-192" vol="100" pos="84"/>
                <note pan="0" key="57" len="-192" vol="100" pos="96"/>
                <note pan="0" key="57" len="-192" vol="100" pos="108"/>
                <note pan="0" key="57" len="-192" vol="100" pos="120"/>
                <note pan="0" key="57" len="-192" vol="100" pos="132"/>
                <note pan="0" key="57" len="-192" vol="100" pos="144"/>
                <note pan="0" key="57" len="-192" vol="100" pos="156"/>
                <note pan="0" key="57" len="-192" vol="100" pos="168"/>
                <note pan="0" key="57" len="-192" vol="100" pos="180"/>
                <note pan="0" key="57" len="-192" vol="100" pos="192"/>
                <note pan="0" key="57" len="-192" vol="100" pos="204"/>
                <note pan="0" key="57" len="-192" vol="100" pos="216"/>
                <note pan="0" key="57" len="-192" vol="100" pos="228"/>
                <note pan="0" key="57" len="-192" vol="100" pos="240"/>
                <note pan="0" key="57" len="-192" vol="100" pos="252"/>
                <note pan="0" key="57" len="-192" vol="100" pos="264"/>
                <note pan="0" key="57" len="-192" vol="100" pos="276"/>
                <note pan="0" key="57" len="-192" vol="100" pos="288"/>
                <note pan="0" key="57" len="-192" vol="100" pos="300"/>
                <note pan="0" key="57" len="-192" vol="100" pos="312"/>
                <note pan="0" key="57" len="-192" vol="100" pos="324"/>
                <note pan="0" key="57" len="-192" vol="100" pos="336"/>
                <note pan="0" key="57" len="-192" vol="100" pos="348"/>
                <note pan="0" key="57" len="-192" vol="100" pos="360"/>
                <note pan="0" key="57" len="-192" vol="100" pos="372"/>
                <note pan="0" key="57" len="-192" vol="100" pos="384"/>
                <note pan="0" key="57" len="-192" vol="100" pos="396"/>
                <note pan="0" key="57" len="-192" vol="100" pos="408"/>
                <note pan="0" key="57" len="-192" vol="100" pos="420"/>
                <note pan="0" key="57" len="-192" vol="100" pos="432"/>
                <note pan="0" key="57" len="-192" vol="100" pos="444"/>
                <note pan="0" key="57" len="-192" vol="100" pos="456"/>
                <note pan="0" key="57" len="-192" vol="100" pos="468"/>
                <note pan="0" key="57" len="-192" vol="100" pos="480"/>
                <note pan="0" key="57" len="-192" vol="100" pos="492"/>
                <note pan="0" key="57" len="-192" vol="100" pos="504"/>
                <note pan="0" key="57" len="-192" vol="100" pos="516"/>
                <note pan="0" key="57" len="-192" vol="100" pos="528"/>
                <note pan="0" key="57" len="-192" vol="100" pos="540"/>
                <note pan="0" key="57" len="-192" vol="100" pos="552"/>
                <note pan="0" key="57" len="-192" vol="100" pos="564"/>
                <note pan="0" key="57" len="-192" vol="100" pos="576"/>
                <note pan="0" key="57" len="-192" vol="100" pos="588"/>
                <note pan="0" key="57" len="-192" vol="100" pos="600"/>
                <note pan="0" key="57" len="-192" vol="100" pos="612"/>
                <note pan="0" key="57" len="-192" vol="100" pos="624"/>
                <note pan="0" key="57" len="-192" vol="100" pos="636"/>
                <note pan="0" key="57" len="-192" vol="100" pos="648"/>
                <note pan="0" key="57" len="-192" vol="100" pos="660"/>
                <note pan="0" key="57" len="-192" vol="100" pos="672"/>
                <note pan="0" key="57" len="-192" vol="100" pos="684"/>
                <note pan="0" key="57" len="-192" vol="100" pos="696"/>
                <note pan="0" key="57" len="-192" vol="100" pos="708"/>
                <note pan="0" key="57" len="-192" vol="100" pos="720"/>
                <note pan="0" key="57" len="-192" vol="100" pos="732"/>
                <note pan="0" key="57" len="-192" vol="100" pos="744"/>
                <note pan="0" key="57" len="-192" vol="100" pos="756"/>
              </pattern>
              <pattern steps="16" muted="0" pos="2880" name="" type="0">
                <note pan="0" key="57" len="-192" vol="100" pos="0"/>
                <note pan="0" key="57" len="-192" vol="100" pos="48"/>
                <note pan="0" key="57" len="-192" vol="100" pos="96"/>
                <note pan="0" key="57" len="-192" vol="100" pos="144"/>
                <note pan="0" key="57" len="-192" vol="100" pos="156"/>
                <note pan="0" key="57" len="-192" vol="100" pos="168"/>
                <note pan="0" key="57" len="-192" vol="100" pos="180"/>
              </pattern>
              <pattern steps="16" muted="0" pos="3072" name="" type="0">
                <note pan="0" key="57" len="-192" vol="100" pos="0"/>
                <note pan="0" key="57" len="-192" vol="100" pos="12"/>
                <note pan="0" key="57" len="-192" vol="100" pos="24"/>
                <note pan="0" key="57" len="-192" vol="100" pos="36"/>
                <note pan="0" key="57" len="-192" vol="100" pos="48"/>
                <note pan="0" key="57" len="-192" vol="100" pos="60"/>
                <note pan="0" key="57" len="-192" vol="100" pos="72"/>
                <note pan="0" key="57" len="-192" vol="100" pos="84"/>
                <note pan="0" key="57" len="-192" vol="100" pos="96"/>
                <note pan="0" key="57" len="-192" vol="100" pos="144"/>
              </pattern>
              <pattern steps="16" muted="0" pos="3264" name="" type="0">
                <note pan="0" key="57" len="-192" vol="100" pos="0"/>
                <note pan="0" key="57" len="-192" vol="100" pos="24"/>
                <note pan="0" key="57" len="-192" vol="100" pos="96"/>
                <note pan="0" key="57" len="-192" vol="100" pos="120"/>
              </pattern>
              <pattern steps="32" muted="0" pos="3456" name="" type="0">
                <note pan="0" key="57" len="-192" vol="100" pos="96"/>
                <note pan="0" key="57" len="-192" vol="100" pos="192"/>
                <note pan="0" key="57" len="-192" vol="100" pos="288"/>
                <note pan="0" key="57" len="-192" vol="100" pos="336"/>
                <note pan="0" key="57" len="-192" vol="100" pos="348"/>
                <note pan="0" key="57" len="-192" vol="100" pos="360"/>
                <note pan="0" key="57" len="-192" vol="100" pos="372"/>
              </pattern>
              <pattern steps="16" muted="0" pos="3648" name="" type="0">
                <note pan="0" key="57" len="-192" vol="100" pos="0"/>
                <note pan="0" key="57" len="-192" vol="100" pos="96"/>
              </pattern>
              <pattern steps="32" muted="0" pos="3840" name="" type="0">
                <note pan="0" key="57" len="-192" vol="100" pos="0"/>
                <note pan="0" key="57" len="-192" vol="100" pos="192"/>
                <note pan="0" key="57" len="-192" vol="100" pos="288"/>
                <note pan="0" key="57" len="-192" vol="100" pos="360"/>
                <note pan="0" key="57" len="-192" vol="100" pos="372"/>
              </pattern>
              <pattern steps="64" muted="0" pos="4032" name="" type="0">
                <note pan="0" key="57" len="-192" vol="100" pos="0"/>
                <note pan="0" key="57" len="-192" vol="100" pos="48"/>
                <note pan="0" key="57" len="-192" vol="100" pos="96"/>
                <note pan="0" key="57" len="-192" vol="100" pos="144"/>
                <note pan="0" key="57" len="-192" vol="100" pos="192"/>
                <note pan="0" key="57" len="-192" vol="100" pos="240"/>
                <note pan="0" key="57" len="-192" vol="100" pos="288"/>
                <note pan="0" key="57" len="-192" vol="100" pos="336"/>
                <note pan="0" key="57" len="-192" vol="100" pos="384"/>
                <note pan="0" key="57" len="-192" vol="100" pos="432"/>
                <note pan="0" key="57" len="-192" vol="100" pos="480"/>
                <note pan="0" key="57" len="-192" vol="100" pos="528"/>
                <note pan="0" key="57" len="-192" vol="100" pos="576"/>
                <note pan="0" key="57" len="-192" vol="100" pos="624"/>
                <note pan="0" key="57" len="-192" vol="100" pos="672"/>
                <note pan="0" key="57" len="-192" vol="100" pos="684"/>
                <note pan="0" key="57" len="-192" vol="100" pos="696"/>
                <note pan="0" key="57" len="-192" vol="100" pos="708"/>
                <note pan="0" key="57" len="-192" vol="100" pos="720"/>
                <note pan="0" key="57" len="-192" vol="100" pos="732"/>
                <note pan="0" key="57" len="-192" vol="100" pos="744"/>
                <note pan="0" key="57" len="-192" vol="100" pos="756"/>
              </pattern>
              <pattern steps="64" muted="0" pos="4224" name="" type="0">
                <note pan="0" key="57" len="-192" vol="100" pos="0"/>
                <note pan="0" key="57" len="-192" vol="100" pos="144"/>
                <note pan="0" key="57" len="-192" vol="100" pos="192"/>
                <note pan="0" key="57" len="-192" vol="100" pos="336"/>
                <note pan="0" key="57" len="-192" vol="100" pos="384"/>
                <note pan="0" key="57" len="-192" vol="100" pos="528"/>
                <note pan="0" key="57" len="-192" vol="100" pos="576"/>
                <note pan="0" key="57" len="-192" vol="100" pos="624"/>
                <note pan="0" key="57" len="-192" vol="100" pos="672"/>
                <note pan="0" key="57" len="-192" vol="100" pos="684"/>
                <note pan="0" key="57" len="-192" vol="100" pos="696"/>
                <note pan="0" key="57" len="-192" vol="100" pos="708"/>
                <note pan="0" key="57" len="-192" vol="100" pos="720"/>
                <note pan="0" key="57" len="-192" vol="100" pos="732"/>
                <note pan="0" key="57" len="-192" vol="100" pos="744"/>
                <note pan="0" key="57" len="-192" vol="100" pos="756"/>
              </pattern>
              <pattern steps="32" muted="0" pos="4416" name="" type="0">
                <note pan="0" key="57" len="-192" vol="100" pos="0"/>
                <note pan="0" key="57" len="-192" vol="100" pos="12"/>
                <note pan="0" key="57" len="-192" vol="100" pos="24"/>
                <note pan="0" key="57" len="-192" vol="100" pos="36"/>
                <note pan="0" key="57" len="-192" vol="100" pos="48"/>
                <note pan="0" key="57" len="-192" vol="100" pos="60"/>
                <note pan="0" key="57" len="-192" vol="100" pos="72"/>
                <note pan="0" key="57" len="-192" vol="100" pos="84"/>
                <note pan="0" key="57" len="-192" vol="100" pos="96"/>
                <note pan="0" key="57" len="-192" vol="100" pos="108"/>
                <note pan="0" key="57" len="-192" vol="100" pos="120"/>
                <note pan="0" key="57" len="-192" vol="100" pos="132"/>
                <note pan="0" key="57" len="-192" vol="100" pos="144"/>
                <note pan="0" key="57" len="-192" vol="100" pos="156"/>
                <note pan="0" key="57" len="-192" vol="100" pos="168"/>
                <note pan="0" key="57" len="-192" vol="100" pos="180"/>
                <note pan="0" key="57" len="-192" vol="100" pos="192"/>
                <note pan="0" key="57" len="-192" vol="100" pos="204"/>
                <note pan="0" key="57" len="-192" vol="100" pos="216"/>
                <note pan="0" key="57" len="-192" vol="100" pos="228"/>
                <note pan="0" key="57" len="-192" vol="100" pos="240"/>
                <note pan="0" key="57" len="-192" vol="100" pos="252"/>
                <note pan="0" key="57" len="-192" vol="100" pos="264"/>
                <note pan="0" key="57" len="-192" vol="100" pos="276"/>
                <note pan="0" key="57" len="-192" vol="100" pos="288"/>
                <note pan="0" key="57" len="-192" vol="100" pos="300"/>
                <note pan="0" key="57" len="-192" vol="100" pos="312"/>
                <note pan="0" key="57" len="-192" vol="100" pos="324"/>
                <note pan="0" key="57" len="-192" vol="100" pos="336"/>
                <note pan="0" key="57" len="-192" vol="100" pos="348"/>
                <note pan="0" key="57" len="-192" vol="100" pos="360"/>
                <note pan="0" key="57" len="-192" vol="100" pos="372"/>
              </pattern>
              <pattern steps="32" muted="0" pos="4608" name="" type="0">
                <note pan="0" key="57" len="-192" vol="100" pos="0"/>
                <note pan="0" key="57" len="-192" vol="100" pos="12"/>
                <note pan="0" key="57" len="-192" vol="100" pos="24"/>
                <note pan="0" key="57" len="-192" vol="100" pos="36"/>
                <note pan="0" key="57" len="-192" vol="100" pos="48"/>
                <note pan="0" key="57" len="-192" vol="100" pos="60"/>
                <note pan="0" key="57" len="-192" vol="100" pos="72"/>
                <note pan="0" key="57" len="-192" vol="100" pos="84"/>
                <note pan="0" key="57" len="-192" vol="100" pos="96"/>
                <note pan="0" key="57" len="-192" vol="100" pos="108"/>
                <note pan="0" key="57" len="-192" vol="100" pos="120"/>
                <note pan="0" key="57" len="-192" vol="100" pos="132"/>
                <note pan="0" key="57" len="-192" vol="100" pos="144"/>
                <note pan="0" key="57" len="-192" vol="100" pos="156"/>
                <note pan="0" key="57" len="-192" vol="100" pos="168"/>
                <note pan="0" key="57" len="-192" vol="100" pos="180"/>
                <note pan="0" key="57" len="-192" vol="100" pos="192"/>
              </pattern>
              <pattern steps="16" muted="0" pos="4800" name="" type="0">
                <note pan="0" key="57" len="-192" vol="100" pos="0"/>
                <note pan="0" key="57" len="-192" vol="100" pos="96"/>
                <note pan="0" key="57" len="-192" vol="100" pos="168"/>
                <note pan="0" key="57" len="-192" vol="100" pos="180"/>
              </pattern>
              <pattern steps="32" muted="0" pos="4992" name="" type="0">
                <note pan="0" key="57" len="-192" vol="100" pos="0"/>
                <note pan="0" key="57" len="-192" vol="100" pos="24"/>
                <note pan="0" key="57" len="-192" vol="100" pos="36"/>
                <note pan="0" key="57" len="-192" vol="100" pos="48"/>
                <note pan="0" key="57" len="-192" vol="100" pos="60"/>
                <note pan="0" key="57" len="-192" vol="100" pos="72"/>
                <note pan="0" key="57" len="-192" vol="100" pos="120"/>
                <note pan="0" key="57" len="-192" vol="100" pos="144"/>
                <note pan="0" key="57" len="-192" vol="100" pos="168"/>
                <note pan="0" key="57" len="-192" vol="100" pos="192"/>
                <note pan="0" key="57" len="-192" vol="100" pos="204"/>
                <note pan="0" key="57" len="-192" vol="100" pos="216"/>
                <note pan="0" key="57" len="-192" vol="100" pos="228"/>
                <note pan="0" key="57" len="-192" vol="100" pos="240"/>
                <note pan="0" key="57" len="-192" vol="100" pos="252"/>
                <note pan="0" key="57" len="-192" vol="100" pos="264"/>
                <note pan="0" key="57" len="-192" vol="100" pos="276"/>
                <note pan="0" key="57" len="-192" vol="100" pos="288"/>
                <note pan="0" key="57" len="-192" vol="100" pos="300"/>
                <note pan="0" key="57" len="-192" vol="100" pos="312"/>
                <note pan="0" key="57" len="-192" vol="100" pos="324"/>
                <note pan="0" key="57" len="-192" vol="100" pos="336"/>
                <note pan="0" key="57" len="-192" vol="100" pos="348"/>
                <note pan="0" key="57" len="-192" vol="100" pos="360"/>
                <note pan="0" key="57" len="-192" vol="100" pos="372"/>
              </pattern>
              <pattern steps="64" muted="0" pos="5184" name="" type="0">
                <note pan="0" key="57" len="-192" vol="100" pos="0"/>
                <note pan="0" key="57" len="-192" vol="100" pos="192"/>
                <note pan="0" key="57" len="-192" vol="100" pos="384"/>
                <note pan="0" key="57" len="-192" vol="100" pos="672"/>
              </pattern>
              <pattern steps="64" muted="0" pos="5376" name="" type="0">
                <note pan="0" key="57" len="-192" vol="100" pos="0"/>
                <note pan="0" key="57" len="-192" vol="100" pos="192"/>
                <note pan="0" key="57" len="-192" vol="100" pos="384"/>
                <note pan="0" key="57" len="-192" vol="100" pos="672"/>
              </pattern>
              <pattern steps="64" muted="0" pos="5568" name="" type="0">
                <note pan="0" key="57" len="-192" vol="100" pos="0"/>
                <note pan="0" key="57" len="-192" vol="100" pos="192"/>
                <note pan="0" key="57" len="-192" vol="100" pos="384"/>
                <note pan="0" key="57" len="-192" vol="100" pos="576"/>
                <note pan="0" key="57" len="-192" vol="100" pos="672"/>
              </pattern>
              <pattern steps="64" muted="0" pos="5760" name="" type="0">
                <note pan="0" key="57" len="-192" vol="100" pos="0"/>
                <note pan="0" key="57" len="-192" vol="100" pos="384"/>
                <note pan="0" key="57" len="-192" vol="100" pos="576"/>
                <note pan="0" key="57" len="-192" vol="100" pos="672"/>
              </pattern>
              <pattern steps="128" muted="0" pos="5952" name="" type="0">
                <note pan="0" key="57" len="-192" vol="100" pos="0"/>
                <note pan="0" key="57" len="-192" vol="100" pos="24"/>
                <note pan="0" key="57" len="-192" vol="100" pos="48"/>
                <note pan="0" key="57" len="-192" vol="100" pos="72"/>
                <note pan="0" key="57" len="-192" vol="100" pos="84"/>
                <note pan="0" key="57" len="-192" vol="100" pos="96"/>
                <note pan="0" key="57" len="-192" vol="100" pos="108"/>
                <note pan="0" key="57" len="-192" vol="100" pos="120"/>
                <note pan="0" key="57" len="-192" vol="100" pos="144"/>
                <note pan="0" key="57" len="-192" vol="100" pos="156"/>
                <note pan="0" key="57" len="-192" vol="100" pos="168"/>
                <note pan="0" key="57" len="-192" vol="100" pos="180"/>
                <note pan="0" key="57" len="-192" vol="100" pos="192"/>
                <note pan="0" key="57" len="-192" vol="100" pos="216"/>
                <note pan="0" key="57" len="-192" vol="100" pos="228"/>
                <note pan="0" key="57" len="-192" vol="100" pos="240"/>
                <note pan="0" key="57" len="-192" vol="100" pos="252"/>
                <note pan="0" key="57" len="-192" vol="100" pos="264"/>
                <note pan="0" key="57" len="-192" vol="100" pos="288"/>
                <note pan="0" key="57" len="-192" vol="100" pos="300"/>
                <note pan="0" key="57" len="-192" vol="100" pos="312"/>
                <note pan="0" key="57" len="-192" vol="100" pos="336"/>
                <note pan="0" key="57" len="-192" vol="100" pos="348"/>
                <note pan="0" key="57" len="-192" vol="100" pos="360"/>
                <note pan="0" key="57" len="-192" vol="100" pos="372"/>
                <note pan="0" key="57" len="-192" vol="100" pos="384"/>
                <note pan="0" key="57" len="-192" vol="100" pos="408"/>
                <note pan="0" key="57" len="-192" vol="100" pos="432"/>
                <note pan="0" key="57" len="-192" vol="100" pos="456"/>
                <note pan="0" key="57" len="-192" vol="100" pos="468"/>
                <note pan="0" key="57" len="-192" vol="100" pos="480"/>
                <note pan="0" key="57" len="-192" vol="100" pos="492"/>
                <note pan="0" key="57" len="-192" vol="100" pos="504"/>
                <note pan="0" key="57" len="-192" vol="100" pos="528"/>
                <note pan="0" key="57" len="-192" vol="100" pos="540"/>
                <note pan="0" key="57" len="-192" vol="100" pos="552"/>
                <note pan="0" key="57" len="-192" vol="100" pos="564"/>
                <note pan="0" key="57" len="-192" vol="100" pos="576"/>
                <note pan="0" key="57" len="-192" vol="100" pos="600"/>
                <note pan="0" key="57" len="-192" vol="100" pos="612"/>
                <note pan="0" key="57" len="-192" vol="100" pos="624"/>
                <note pan="0" key="57" len="-192" vol="100" pos="636"/>
                <note pan="0" key="57" len="-192" vol="100" pos="648"/>
                <note pan="0" key="57" len="-192" vol="100" pos="672"/>
                <note pan="0" key="57" len="-192" vol="100" pos="684"/>
                <note pan="0" key="57" len="-192" vol="100" pos="696"/>
                <note pan="0" key="57" len="-192" vol="100" pos="720"/>
                <note pan="0" key="57" len="-192" vol="100" pos="732"/>
                <note pan="0" key="57" len="-192" vol="100" pos="744"/>
                <note pan="0" key="57" len="-192" vol="100" pos="756"/>
                <note pan="0" key="57" len="-192" vol="100" pos="768"/>
                <note pan="0" key="57" len="-192" vol="100" pos="792"/>
                <note pan="0" key="57" len="-192" vol="100" pos="816"/>
                <note pan="0" key="57" len="-192" vol="100" pos="840"/>
                <note pan="0" key="57" len="-192" vol="100" pos="852"/>
                <note pan="0" key="57" len="-192" vol="100" pos="864"/>
                <note pan="0" key="57" len="-192" vol="100" pos="876"/>
                <note pan="0" key="57" len="-192" vol="100" pos="888"/>
                <note pan="0" key="57" len="-192" vol="100" pos="912"/>
                <note pan="0" key="57" len="-192" vol="100" pos="924"/>
                <note pan="0" key="57" len="-192" vol="100" pos="936"/>
                <note pan="0" key="57" len="-192" vol="100" pos="948"/>
                <note pan="0" key="57" len="-192" vol="100" pos="960"/>
                <note pan="0" key="57" len="-192" vol="100" pos="984"/>
                <note pan="0" key="57" len="-192" vol="100" pos="996"/>
                <note pan="0" key="57" len="-192" vol="100" pos="1008"/>
                <note pan="0" key="57" len="-192" vol="100" pos="1020"/>
                <note pan="0" key="57" len="-192" vol="100" pos="1032"/>
                <note pan="0" key="57" len="-192" vol="100" pos="1056"/>
                <note pan="0" key="57" len="-192" vol="100" pos="1068"/>
                <note pan="0" key="57" len="-192" vol="100" pos="1080"/>
                <note pan="0" key="57" len="-192" vol="100" pos="1104"/>
                <note pan="0" key="57" len="-192" vol="100" pos="1116"/>
                <note pan="0" key="57" len="-192" vol="100" pos="1128"/>
                <note pan="0" key="57" len="-192" vol="100" pos="1140"/>
                <note pan="0" key="57" len="-192" vol="100" pos="1152"/>
                <note pan="0" key="57" len="-192" vol="100" pos="1176"/>
                <note pan="0" key="57" len="-192" vol="100" pos="1200"/>
                <note pan="0" key="57" len="-192" vol="100" pos="1224"/>
                <note pan="0" key="57" len="-192" vol="100" pos="1236"/>
                <note pan="0" key="57" len="-192" vol="100" pos="1248"/>
                <note pan="0" key="57" len="-192" vol="100" pos="1260"/>
                <note pan="0" key="57" len="-192" vol="100" pos="1272"/>
                <note pan="0" key="57" len="-192" vol="100" pos="1296"/>
                <note pan="0" key="57" len="-192" vol="100" pos="1308"/>
                <note pan="0" key="57" len="-192" vol="100" pos="1320"/>
                <note pan="0" key="57" len="-192" vol="100" pos="1332"/>
                <note pan="0" key="57" len="-192" vol="100" pos="1344"/>
                <note pan="0" key="57" len="-192" vol="100" pos="1368"/>
                <note pan="0" key="57" len="-192" vol="100" pos="1380"/>
                <note pan="0" key="57" len="-192" vol="100" pos="1392"/>
                <note pan="0" key="57" len="-192" vol="100" pos="1404"/>
                <note pan="0" key="57" len="-192" vol="100" pos="1416"/>
                <note pan="0" key="57" len="-192" vol="100" pos="1440"/>
                <note pan="0" key="57" len="-192" vol="100" pos="1452"/>
                <note pan="0" key="57" len="-192" vol="100" pos="1464"/>
                <note pan="0" key="57" len="-192" vol="100" pos="1488"/>
                <note pan="0" key="57" len="-192" vol="100" pos="1500"/>
                <note pan="0" key="57" len="-192" vol="100" pos="1512"/>
                <note pan="0" key="57" len="-192" vol="100" pos="1524"/>
              </pattern>
              <pattern steps="16" muted="0" pos="6144" name="" type="0">
                <note pan="0" key="57" len="-192" vol="100" pos="0"/>
                <note pan="0" key="57" len="-192" vol="100" pos="12"/>
                <note pan="0" key="57" len="-192" vol="100" pos="24"/>
                <note pan="0" key="57" len="-192" vol="100" pos="36"/>
                <note pan="0" key="57" len="-192" vol="100" pos="48"/>
                <note pan="0" key="57" len="-192" vol="100" pos="60"/>
                <note pan="0" key="57" len="-192" vol="100" pos="72"/>
                <note pan="0" key="57" len="-192" vol="100" pos="84"/>
                <note pan="0" key="57" len="-192" vol="100" pos="96"/>
                <note pan="0" key="57" len="-192" vol="100" pos="108"/>
                <note pan="0" key="57" len="-192" vol="100" pos="120"/>
                <note pan="0" key="57" len="-192" vol="100" pos="132"/>
                <note pan="0" key="57" len="-192" vol="100" pos="144"/>
                <note pan="0" key="57" len="-192" vol="100" pos="156"/>
                <note pan="0" key="57" len="-192" vol="100" pos="168"/>
                <note pan="0" key="57" len="-192" vol="100" pos="180"/>
              </pattern>
              <pattern steps="64" muted="0" pos="6336" name="" type="0">
                <note pan="0" key="57" len="-192" vol="100" pos="0"/>
                <note pan="0" key="57" len="-192" vol="100" pos="24"/>
                <note pan="0" key="57" len="-192" vol="100" pos="48"/>
                <note pan="0" key="57" len="-192" vol="100" pos="72"/>
                <note pan="0" key="57" len="-192" vol="100" pos="96"/>
                <note pan="0" key="57" len="-192" vol="100" pos="120"/>
                <note pan="0" key="57" len="-192" vol="100" pos="144"/>
                <note pan="0" key="57" len="-192" vol="100" pos="168"/>
                <note pan="0" key="57" len="-192" vol="100" pos="180"/>
                <note pan="0" key="57" len="-192" vol="100" pos="192"/>
                <note pan="0" key="57" len="-192" vol="100" pos="216"/>
                <note pan="0" key="57" len="-192" vol="100" pos="240"/>
                <note pan="0" key="57" len="-192" vol="100" pos="252"/>
                <note pan="0" key="57" len="-192" vol="100" pos="264"/>
                <note pan="0" key="57" len="-192" vol="100" pos="288"/>
                <note pan="0" key="57" len="-192" vol="100" pos="312"/>
                <note pan="0" key="57" len="-192" vol="100" pos="336"/>
                <note pan="0" key="57" len="-192" vol="100" pos="360"/>
                <note pan="0" key="57" len="-192" vol="100" pos="384"/>
                <note pan="0" key="57" len="-192" vol="100" pos="408"/>
                <note pan="0" key="57" len="-192" vol="100" pos="432"/>
                <note pan="0" key="57" len="-192" vol="100" pos="456"/>
                <note pan="0" key="57" len="-192" vol="100" pos="480"/>
                <note pan="0" key="57" len="-192" vol="100" pos="504"/>
                <note pan="0" key="57" len="-192" vol="100" pos="528"/>
                <note pan="0" key="57" len="-192" vol="100" pos="552"/>
                <note pan="0" key="57" len="-192" vol="100" pos="564"/>
                <note pan="0" key="57" len="-192" vol="100" pos="576"/>
                <note pan="0" key="57" len="-192" vol="100" pos="600"/>
                <note pan="0" key="57" len="-192" vol="100" pos="624"/>
                <note pan="0" key="57" len="-192" vol="100" pos="636"/>
                <note pan="0" key="57" len="-192" vol="100" pos="648"/>
                <note pan="0" key="57" len="-192" vol="100" pos="672"/>
                <note pan="0" key="57" len="-192" vol="100" pos="696"/>
                <note pan="0" key="57" len="-192" vol="100" pos="720"/>
                <note pan="0" key="57" len="-192" vol="100" pos="744"/>
              </pattern>
              <pattern steps="16" muted="0" pos="6528" name="" type="0">
                <note pan="0" key="57" len="-192" vol="100" pos="0"/>
                <note pan="0" key="57" len="-192" vol="100" pos="24"/>
                <note pan="0" key="57" len="-192" vol="100" pos="48"/>
                <note pan="0" key="57" len="-192" vol="100" pos="60"/>
                <note pan="0" key="57" len="-192" vol="100" pos="72"/>
                <note pan="0" key="57" len="-192" vol="100" pos="96"/>
                <note pan="0" key="57" len="-192" vol="100" pos="108"/>
                <note pan="0" key="57" len="-192" vol="100" pos="120"/>
                <note pan="0" key="57" len="-192" vol="100" pos="132"/>
                <note pan="0" key="57" len="-192" vol="100" pos="144"/>
                <note pan="0" key="57" len="-192" vol="100" pos="156"/>
                <note pan="0" key="57" len="-192" vol="100" pos="168"/>
                <note pan="0" key="57" len="-192" vol="100" pos="180"/>
              </pattern>
              <pattern steps="16" muted="0" pos="6720" name="" type="0"/>
              <pattern steps="16" muted="0" pos="6912" name="" type="0"/>
              <pattern steps="64" muted="0" pos="7104" name="" type="0">
                <note pan="0" key="57" len="-192" vol="100" pos="0"/>
                <note pan="0" key="57" len="-192" vol="100" pos="12"/>
                <note pan="0" key="57" len="-192" vol="100" pos="24"/>
                <note pan="0" key="57" len="-192" vol="100" pos="36"/>
                <note pan="0" key="57" len="-192" vol="100" pos="48"/>
                <note pan="0" key="57" len="-192" vol="100" pos="60"/>
                <note pan="0" key="57" len="-192" vol="100" pos="72"/>
                <note pan="0" key="57" len="-192" vol="100" pos="84"/>
                <note pan="0" key="57" len="-192" vol="100" pos="96"/>
                <note pan="0" key="57" len="-192" vol="100" pos="108"/>
                <note pan="0" key="57" len="-192" vol="100" pos="120"/>
                <note pan="0" key="57" len="-192" vol="100" pos="132"/>
                <note pan="0" key="57" len="-192" vol="100" pos="144"/>
                <note pan="0" key="57" len="-192" vol="100" pos="156"/>
                <note pan="0" key="57" len="-192" vol="100" pos="168"/>
                <note pan="0" key="57" len="-192" vol="100" pos="180"/>
                <note pan="0" key="57" len="-192" vol="100" pos="192"/>
                <note pan="0" key="57" len="-192" vol="100" pos="204"/>
                <note pan="0" key="57" len="-192" vol="100" pos="216"/>
                <note pan="0" key="57" len="-192" vol="100" pos="228"/>
                <note pan="0" key="57" len="-192" vol="100" pos="240"/>
                <note pan="0" key="57" len="-192" vol="100" pos="252"/>
                <note pan="0" key="57" len="-192" vol="100" pos="264"/>
                <note pan="0" key="57" len="-192" vol="100" pos="276"/>
                <note pan="0" key="57" len="-192" vol="100" pos="288"/>
                <note pan="0" key="57" len="-192" vol="100" pos="300"/>
                <note pan="0" key="57" len="-192" vol="100" pos="312"/>
                <note pan="0" key="57" len="-192" vol="100" pos="324"/>
                <note pan="0" key="57" len="-192" vol="100" pos="336"/>
                <note pan="0" key="57" len="-192" vol="100" pos="348"/>
                <note pan="0" key="57" len="-192" vol="100" pos="360"/>
                <note pan="0" key="57" len="-192" vol="100" pos="372"/>
                <note pan="0" key="57" len="-192" vol="100" pos="384"/>
                <note pan="0" key="57" len="-192" vol="100" pos="396"/>
                <note pan="0" key="57" len="-192" vol="100" pos="408"/>
                <note pan="0" key="57" len="-192" vol="100" pos="420"/>
                <note pan="0" key="57" len="-192" vol="100" pos="432"/>
                <note pan="0" key="57" len="-192" vol="100" pos="444"/>
                <note pan="0" key="57" len="-192" vol="100" pos="456"/>
                <note pan="0" key="57" len="-192" vol="100" pos="468"/>
                <note pan="0" key="57" len="-192" vol="100" pos="480"/>
                <note pan="0" key="57" len="-192" vol="100" pos="492"/>
                <note pan="0" key="57" len="-192" vol="100" pos="504"/>
                <note pan="0" key="57" len="-192" vol="100" pos="516"/>
                <note pan="0" key="57" len="-192" vol="100" pos="528"/>
                <note pan="0" key="57" len="-192" vol="100" pos="540"/>
                <note pan="0" key="57" len="-192" vol="100" pos="552"/>
                <note pan="0" key="57" len="-192" vol="100" pos="564"/>
                <note pan="0" key="57" len="-192" vol="100" pos="576"/>
              </pattern>
            </track>
            <track solo="0" mutedBeforeSolo="0" muted="0" name="hat" type="0">
              <instrumenttrack pan="-17.7" basenote="57" pitch="0" usemasterpitch="1" vol="71.2" pitchrange="1" fxch="2">
                <instrument name="audiofileprocessor">
                  <audiofileprocessor stutter="0" amp="100" reversed="0" src="/home/pass/samples/mtpdk_extract/open_hat.wav" interp="1" eframe="1" looped="0" sframe="0" lframe="0.176">
                    <key/>
                  </audiofileprocessor>
                </instrument>
                <eldata fcut="14000" fres="0.5" ftype="0" fwet="0">
                  <elvol lspd_syncmode="0" amt="1" lshp="0" lpdel="0" att="0" ctlenvamt="0" dec="0.784" userwavefile="" x100="0" rel="0" sustain="0" lspd_numerator="4" latt="0" lspd="0.1" lamt="0" lspd_denominator="4" hold="0" pdel="0"/>
                  <elcut lspd_syncmode="0" amt="0" lshp="0" lpdel="0" att="0" ctlenvamt="0" dec="0.5" userwavefile="" x100="0" rel="0.1" sustain="0.5" lspd_numerator="4" latt="0" lspd="0.1" lamt="0" lspd_denominator="4" hold="0.5" pdel="0"/>
                  <elres lspd_syncmode="0" amt="0" lshp="0" lpdel="0" att="0" ctlenvamt="0" dec="0.5" userwavefile="" x100="0" rel="0.1" sustain="0.5" lspd_numerator="4" latt="0" lspd="0.1" lamt="0" lspd_denominator="4" hold="0.5" pdel="0"/>
                </eldata>
                <chordcreator chordrange="1" chord-enabled="0" chord="0"/>
                <arpeggiator arprange="1" arpmode="0" arpcycle="0" arptime_syncmode="0" arptime_numerator="4" arpgate="100" arptime="200" arpskip="0" arpmiss="0" arp="0" arptime_denominator="4" arp-enabled="0" arpdir="0"/>
                <midiport inputcontroller="0" outputcontroller="0" readable="0" outputchannel="1" fixedoutputvelocity="-1" outputprogram="1" fixedinputvelocity="-1" fixedoutputnote="-1" inputchannel="0" basevelocity="63" writable="0"/>
                <fxchain enabled="0" numofeffects="0"/>
              </instrumenttrack>
              <pattern steps="64" muted="0" pos="0" name="" type="0"/>
              <pattern steps="64" muted="0" pos="192" name="" type="0"/>
              <pattern steps="32" muted="0" pos="384" name="" type="0"/>
              <pattern steps="64" muted="0" pos="576" name="" type="0">
                <note pan="0" key="57" len="-192" vol="100" pos="0"/>
                <note pan="0" key="57" len="-192" vol="100" pos="48"/>
                <note pan="0" key="57" len="-192" vol="100" pos="96"/>
                <note pan="0" key="57" len="-192" vol="100" pos="144"/>
                <note pan="0" key="57" len="-192" vol="100" pos="192"/>
                <note pan="0" key="57" len="-192" vol="100" pos="240"/>
                <note pan="0" key="57" len="-192" vol="100" pos="288"/>
                <note pan="0" key="57" len="-192" vol="100" pos="336"/>
                <note pan="0" key="57" len="-192" vol="100" pos="384"/>
                <note pan="0" key="57" len="-192" vol="100" pos="432"/>
                <note pan="0" key="57" len="-192" vol="100" pos="480"/>
                <note pan="0" key="57" len="-192" vol="100" pos="528"/>
                <note pan="0" key="57" len="-192" vol="100" pos="576"/>
                <note pan="0" key="57" len="-192" vol="100" pos="624"/>
                <note pan="0" key="57" len="-192" vol="100" pos="672"/>
                <note pan="0" key="57" len="-192" vol="100" pos="720"/>
              </pattern>
              <pattern steps="16" muted="0" pos="768" name="" type="0"/>
              <pattern steps="64" muted="0" pos="960" name="" type="0">
                <note pan="0" key="57" len="-192" vol="100" pos="0"/>
                <note pan="0" key="57" len="-192" vol="100" pos="48"/>
                <note pan="0" key="57" len="-192" vol="100" pos="96"/>
                <note pan="0" key="57" len="-192" vol="100" pos="144"/>
                <note pan="0" key="57" len="-192" vol="100" pos="192"/>
                <note pan="0" key="57" len="-192" vol="100" pos="240"/>
                <note pan="0" key="57" len="-192" vol="100" pos="288"/>
                <note pan="0" key="57" len="-192" vol="100" pos="336"/>
                <note pan="0" key="57" len="-192" vol="100" pos="384"/>
                <note pan="0" key="57" len="-192" vol="100" pos="432"/>
                <note pan="0" key="57" len="-192" vol="100" pos="480"/>
                <note pan="0" key="57" len="-192" vol="100" pos="528"/>
                <note pan="0" key="57" len="-192" vol="100" pos="576"/>
                <note pan="0" key="57" len="-192" vol="100" pos="624"/>
                <note pan="0" key="57" len="-192" vol="100" pos="672"/>
                <note pan="0" key="57" len="-192" vol="100" pos="720"/>
              </pattern>
              <pattern steps="64" muted="0" pos="1152" name="" type="0">
                <note pan="0" key="57" len="-192" vol="100" pos="0"/>
                <note pan="0" key="57" len="-192" vol="100" pos="48"/>
                <note pan="0" key="57" len="-192" vol="100" pos="96"/>
                <note pan="0" key="57" len="-192" vol="100" pos="144"/>
                <note pan="0" key="57" len="-192" vol="100" pos="192"/>
                <note pan="0" key="57" len="-192" vol="100" pos="240"/>
                <note pan="0" key="57" len="-192" vol="100" pos="288"/>
                <note pan="0" key="57" len="-192" vol="100" pos="336"/>
                <note pan="0" key="57" len="-192" vol="100" pos="384"/>
                <note pan="0" key="57" len="-192" vol="100" pos="432"/>
                <note pan="0" key="57" len="-192" vol="100" pos="480"/>
                <note pan="0" key="57" len="-192" vol="100" pos="528"/>
                <note pan="0" key="57" len="-192" vol="100" pos="576"/>
                <note pan="0" key="57" len="-192" vol="100" pos="624"/>
                <note pan="0" key="57" len="-192" vol="100" pos="672"/>
                <note pan="0" key="57" len="-192" vol="100" pos="720"/>
              </pattern>
              <pattern steps="32" muted="0" pos="1344" name="" type="0"/>
              <pattern steps="64" muted="0" pos="1536" name="" type="0">
                <note pan="0" key="57" len="-192" vol="100" pos="48"/>
                <note pan="0" key="57" len="-192" vol="100" pos="96"/>
                <note pan="0" key="57" len="-192" vol="100" pos="144"/>
                <note pan="0" key="57" len="-192" vol="100" pos="240"/>
                <note pan="0" key="57" len="-192" vol="100" pos="288"/>
                <note pan="0" key="57" len="-192" vol="100" pos="336"/>
                <note pan="0" key="57" len="-192" vol="100" pos="432"/>
                <note pan="0" key="57" len="-192" vol="100" pos="480"/>
                <note pan="0" key="57" len="-192" vol="100" pos="528"/>
                <note pan="0" key="57" len="-192" vol="100" pos="624"/>
                <note pan="0" key="57" len="-192" vol="100" pos="672"/>
                <note pan="0" key="57" len="-192" vol="100" pos="720"/>
              </pattern>
              <pattern steps="32" muted="0" pos="1728" name="" type="0">
                <note pan="0" key="57" len="-192" vol="100" pos="48"/>
                <note pan="0" key="57" len="-192" vol="100" pos="96"/>
                <note pan="0" key="57" len="-192" vol="100" pos="144"/>
                <note pan="0" key="57" len="-192" vol="100" pos="240"/>
                <note pan="0" key="57" len="-192" vol="100" pos="288"/>
                <note pan="0" key="57" len="-192" vol="100" pos="336"/>
              </pattern>
              <pattern steps="32" muted="0" pos="1920" name="" type="0"/>
              <pattern steps="64" muted="0" pos="2112" name="" type="0">
                <note pan="0" key="57" len="-192" vol="100" pos="48"/>
                <note pan="0" key="57" len="-192" vol="100" pos="96"/>
                <note pan="0" key="57" len="-192" vol="100" pos="144"/>
                <note pan="0" key="57" len="-192" vol="100" pos="192"/>
                <note pan="0" key="57" len="-192" vol="100" pos="240"/>
                <note pan="0" key="57" len="-192" vol="100" pos="288"/>
                <note pan="0" key="57" len="-192" vol="100" pos="336"/>
                <note pan="0" key="57" len="-192" vol="100" pos="432"/>
                <note pan="0" key="57" len="-192" vol="100" pos="480"/>
                <note pan="0" key="57" len="-192" vol="100" pos="528"/>
                <note pan="0" key="57" len="-192" vol="100" pos="576"/>
                <note pan="0" key="57" len="-192" vol="100" pos="624"/>
                <note pan="0" key="57" len="-192" vol="100" pos="672"/>
                <note pan="0" key="57" len="-192" vol="100" pos="720"/>
              </pattern>
              <pattern steps="32" muted="0" pos="2304" name="" type="0">
                <note pan="0" key="57" len="-192" vol="100" pos="48"/>
                <note pan="0" key="57" len="-192" vol="100" pos="96"/>
                <note pan="0" key="57" len="-192" vol="100" pos="144"/>
              </pattern>
              <pattern steps="32" muted="0" pos="2496" name="" type="0">
                <note pan="0" key="57" len="-192" vol="100" pos="0"/>
                <note pan="0" key="57" len="-192" vol="100" pos="96"/>
                <note pan="0" key="57" len="-192" vol="100" pos="192"/>
                <note pan="0" key="57" len="-192" vol="100" pos="288"/>
              </pattern>
              <pattern steps="64" muted="0" pos="2688" name="" type="0">
                <note pan="0" key="57" len="-192" vol="100" pos="0"/>
                <note pan="0" key="57" len="-192" vol="100" pos="96"/>
                <note pan="0" key="57" len="-192" vol="100" pos="192"/>
                <note pan="0" key="57" len="-192" vol="100" pos="288"/>
                <note pan="0" key="57" len="-192" vol="100" pos="384"/>
                <note pan="0" key="57" len="-192" vol="100" pos="480"/>
                <note pan="0" key="57" len="-192" vol="100" pos="576"/>
                <note pan="0" key="57" len="-192" vol="100" pos="672"/>
              </pattern>
              <pattern steps="16" muted="0" pos="2880" name="" type="0"/>
              <pattern steps="16" muted="0" pos="3072" name="" type="0"/>
              <pattern steps="16" muted="0" pos="3264" name="" type="0"/>
              <pattern steps="32" muted="0" pos="3456" name="" type="0"/>
              <pattern steps="16" muted="0" pos="3648" name="" type="0"/>
              <pattern steps="32" muted="0" pos="3840" name="" type="0"/>
              <pattern steps="64" muted="0" pos="4032" name="" type="0"/>
              <pattern steps="64" muted="0" pos="4224" name="" type="0"/>
              <pattern steps="32" muted="0" pos="4416" name="" type="0">
                <note pan="0" key="57" len="-192" vol="100" pos="0"/>
              </pattern>
              <pattern steps="32" muted="0" pos="4608" name="" type="0"/>
              <pattern steps="16" muted="0" pos="4800" name="" type="0"/>
              <pattern steps="32" muted="0" pos="4992" name="" type="0"/>
              <pattern steps="64" muted="0" pos="5184" name="" type="0"/>
              <pattern steps="64" muted="0" pos="5376" name="" type="0"/>
              <pattern steps="64" muted="0" pos="5568" name="" type="0"/>
              <pattern steps="64" muted="0" pos="5760" name="" type="0"/>
              <pattern steps="128" muted="0" pos="5952" name="" type="0">
                <note pan="0" key="57" len="-192" vol="100" pos="0"/>
                <note pan="0" key="57" len="-192" vol="100" pos="48"/>
                <note pan="0" key="57" len="-192" vol="100" pos="96"/>
                <note pan="0" key="57" len="-192" vol="100" pos="144"/>
                <note pan="0" key="57" len="-192" vol="100" pos="192"/>
                <note pan="0" key="57" len="-192" vol="100" pos="240"/>
                <note pan="0" key="57" len="-192" vol="100" pos="288"/>
                <note pan="0" key="57" len="-192" vol="100" pos="336"/>
                <note pan="0" key="57" len="-192" vol="100" pos="384"/>
                <note pan="0" key="57" len="-192" vol="100" pos="432"/>
                <note pan="0" key="57" len="-192" vol="100" pos="480"/>
                <note pan="0" key="57" len="-192" vol="100" pos="528"/>
                <note pan="0" key="57" len="-192" vol="100" pos="576"/>
                <note pan="0" key="57" len="-192" vol="100" pos="624"/>
                <note pan="0" key="57" len="-192" vol="100" pos="672"/>
                <note pan="0" key="57" len="-192" vol="100" pos="720"/>
                <note pan="0" key="57" len="-192" vol="100" pos="768"/>
                <note pan="0" key="57" len="-192" vol="100" pos="816"/>
                <note pan="0" key="57" len="-192" vol="100" pos="864"/>
                <note pan="0" key="57" len="-192" vol="100" pos="912"/>
                <note pan="0" key="57" len="-192" vol="100" pos="960"/>
                <note pan="0" key="57" len="-192" vol="100" pos="1008"/>
                <note pan="0" key="57" len="-192" vol="100" pos="1056"/>
                <note pan="0" key="57" len="-192" vol="100" pos="1104"/>
                <note pan="0" key="57" len="-192" vol="100" pos="1152"/>
                <note pan="0" key="57" len="-192" vol="100" pos="1200"/>
                <note pan="0" key="57" len="-192" vol="100" pos="1248"/>
                <note pan="0" key="57" len="-192" vol="100" pos="1296"/>
                <note pan="0" key="57" len="-192" vol="100" pos="1344"/>
                <note pan="0" key="57" len="-192" vol="100" pos="1392"/>
                <note pan="0" key="57" len="-192" vol="100" pos="1440"/>
                <note pan="0" key="57" len="-192" vol="100" pos="1488"/>
              </pattern>
              <pattern steps="16" muted="0" pos="6144" name="" type="0"/>
              <pattern steps="64" muted="0" pos="6336" name="" type="0">
                <note pan="0" key="57" len="-192" vol="100" pos="0"/>
                <note pan="0" key="57" len="-192" vol="100" pos="192"/>
                <note pan="0" key="57" len="-192" vol="100" pos="384"/>
                <note pan="0" key="57" len="-192" vol="100" pos="576"/>
              </pattern>
              <pattern steps="16" muted="0" pos="6528" name="" type="0">
                <note pan="0" key="57" len="-192" vol="100" pos="0"/>
              </pattern>
              <pattern steps="16" muted="0" pos="6720" name="" type="0"/>
              <pattern steps="16" muted="0" pos="6912" name="" type="0"/>
              <pattern steps="64" muted="0" pos="7104" name="" type="0">
                <note pan="0" key="57" len="-192" vol="100" pos="480"/>
              </pattern>
            </track>
            <track solo="0" mutedBeforeSolo="0" muted="0" name="old friend snare" type="0">
              <instrumenttrack pan="0" basenote="57" pitch="0" usemasterpitch="1" vol="200" pitchrange="1" fxch="3">
                <instrument name="audiofileprocessor">
                  <audiofileprocessor stutter="0" amp="100" reversed="0" src="/home/pass/samples/mtpdk_extract/snare.wav" interp="1" eframe="1" looped="0" sframe="0" lframe="0">
                    <key/>
                  </audiofileprocessor>
                </instrument>
                <eldata fcut="13328" fres="0.13" ftype="0" fwet="0">
                  <elvol lspd_syncmode="0" amt="0" lshp="0" lpdel="0" att="0" ctlenvamt="0" dec="0.272" userwavefile="" x100="0" rel="0.44" sustain="0.296" lspd_numerator="4" latt="0" lspd="0.1" lamt="0" lspd_denominator="4" hold="0" pdel="0"/>
                  <elcut lspd_syncmode="0" amt="0" lshp="0" lpdel="0" att="0" ctlenvamt="0" dec="0.5" userwavefile="" x100="0" rel="0.1" sustain="0.5" lspd_numerator="4" latt="0" lspd="0.1" lamt="0" lspd_denominator="4" hold="0.5" pdel="0"/>
                  <elres lspd_syncmode="0" amt="0" lshp="0" lpdel="0" att="0" ctlenvamt="0" dec="0.5" userwavefile="" x100="0" rel="0.1" sustain="0.5" lspd_numerator="4" latt="0" lspd="0.1" lamt="0" lspd_denominator="4" hold="0.5" pdel="0"/>
                </eldata>
                <chordcreator chordrange="1" chord-enabled="0" chord="0"/>
                <arpeggiator arprange="1" arpmode="0" arpcycle="0" arptime_syncmode="0" arptime_numerator="4" arpgate="100" arptime="200" arpskip="0" arpmiss="0" arp="0" arptime_denominator="4" arp-enabled="0" arpdir="0"/>
                <midiport inputcontroller="0" outputcontroller="0" readable="0" outputchannel="1" fixedoutputvelocity="-1" outputprogram="1" fixedinputvelocity="-1" fixedoutputnote="-1" inputchannel="0" basevelocity="63" writable="0"/>
                <fxchain enabled="0" numofeffects="0"/>
              </instrumenttrack>
              <pattern steps="64" muted="0" pos="0" name="" type="0"/>
              <pattern steps="64" muted="0" pos="192" name="" type="0">
                <note pan="0" key="57" len="-192" vol="100" pos="720"/>
                <note pan="0" key="57" len="-192" vol="100" pos="732"/>
                <note pan="0" key="57" len="-192" vol="100" pos="744"/>
                <note pan="0" key="57" len="-192" vol="100" pos="756"/>
              </pattern>
              <pattern steps="32" muted="0" pos="384" name="" type="0">
                <note pan="0" key="57" len="-192" vol="100" pos="48"/>
                <note pan="0" key="57" len="-192" vol="100" pos="60"/>
                <note pan="0" key="57" len="-192" vol="100" pos="120"/>
                <note pan="0" key="57" len="-192" vol="100" pos="132"/>
                <note pan="0" key="57" len="-192" vol="100" pos="192"/>
                <note pan="0" key="57" len="-192" vol="100" pos="204"/>
                <note pan="0" key="57" len="-192" vol="100" pos="264"/>
                <note pan="0" key="57" len="-192" vol="100" pos="276"/>
                <note pan="0" key="57" len="-192" vol="100" pos="312"/>
                <note pan="0" key="57" len="-192" vol="100" pos="360"/>
                <note pan="0" key="57" len="-192" vol="100" pos="372"/>
              </pattern>
              <pattern steps="64" muted="0" pos="576" name="" type="0">
                <note pan="0" key="57" len="-192" vol="100" pos="24"/>
                <note pan="0" key="57" len="-192" vol="100" pos="72"/>
                <note pan="0" key="57" len="-192" vol="100" pos="120"/>
                <note pan="0" key="57" len="-192" vol="100" pos="168"/>
                <note pan="0" key="57" len="-192" vol="100" pos="216"/>
                <note pan="0" key="57" len="-192" vol="100" pos="264"/>
                <note pan="0" key="57" len="-192" vol="100" pos="312"/>
                <note pan="0" key="57" len="-192" vol="100" pos="360"/>
                <note pan="0" key="57" len="-192" vol="100" pos="408"/>
                <note pan="0" key="57" len="-192" vol="100" pos="456"/>
                <note pan="0" key="57" len="-192" vol="100" pos="504"/>
                <note pan="0" key="57" len="-192" vol="100" pos="552"/>
                <note pan="0" key="57" len="-192" vol="100" pos="600"/>
                <note pan="0" key="57" len="-192" vol="100" pos="648"/>
                <note pan="0" key="57" len="-192" vol="100" pos="696"/>
                <note pan="0" key="57" len="-192" vol="100" pos="744"/>
              </pattern>
              <pattern steps="16" muted="0" pos="768" name="" type="0">
                <note pan="0" key="57" len="-192" vol="100" pos="0"/>
                <note pan="0" key="57" len="-192" vol="100" pos="12"/>
                <note pan="0" key="57" len="-192" vol="100" pos="24"/>
                <note pan="0" key="57" len="-192" vol="100" pos="36"/>
                <note pan="0" key="57" len="-192" vol="100" pos="48"/>
                <note pan="0" key="57" len="-192" vol="100" pos="60"/>
                <note pan="0" key="57" len="-192" vol="100" pos="72"/>
                <note pan="0" key="57" len="-192" vol="100" pos="84"/>
                <note pan="0" key="57" len="-192" vol="100" pos="96"/>
                <note pan="0" key="57" len="-192" vol="100" pos="144"/>
              </pattern>
              <pattern steps="64" muted="0" pos="960" name="" type="0">
                <note pan="0" key="57" len="-192" vol="100" pos="24"/>
                <note pan="0" key="57" len="-192" vol="100" pos="72"/>
                <note pan="0" key="57" len="-192" vol="100" pos="120"/>
                <note pan="0" key="57" len="-192" vol="100" pos="168"/>
                <note pan="0" key="57" len="-192" vol="100" pos="216"/>
                <note pan="0" key="57" len="-192" vol="100" pos="264"/>
                <note pan="0" key="57" len="-192" vol="100" pos="312"/>
                <note pan="0" key="57" len="-192" vol="100" pos="360"/>
                <note pan="0" key="57" len="-192" vol="100" pos="408"/>
                <note pan="0" key="57" len="-192" vol="100" pos="456"/>
                <note pan="0" key="57" len="-192" vol="100" pos="504"/>
                <note pan="0" key="57" len="-192" vol="100" pos="552"/>
                <note pan="0" key="57" len="-192" vol="100" pos="600"/>
                <note pan="0" key="57" len="-192" vol="100" pos="648"/>
                <note pan="0" key="57" len="-192" vol="100" pos="696"/>
                <note pan="0" key="57" len="-192" vol="100" pos="744"/>
              </pattern>
              <pattern steps="64" muted="0" pos="1152" name="" type="0">
                <note pan="0" key="57" len="-192" vol="100" pos="24"/>
                <note pan="0" key="57" len="-192" vol="100" pos="72"/>
                <note pan="0" key="57" len="-192" vol="100" pos="120"/>
                <note pan="0" key="57" len="-192" vol="100" pos="168"/>
                <note pan="0" key="57" len="-192" vol="100" pos="216"/>
                <note pan="0" key="57" len="-192" vol="100" pos="264"/>
                <note pan="0" key="57" len="-192" vol="100" pos="312"/>
                <note pan="0" key="57" len="-192" vol="100" pos="360"/>
                <note pan="0" key="57" len="-192" vol="100" pos="408"/>
                <note pan="0" key="57" len="-192" vol="100" pos="456"/>
                <note pan="0" key="57" len="-192" vol="100" pos="504"/>
                <note pan="0" key="57" len="-192" vol="100" pos="552"/>
                <note pan="0" key="57" len="-192" vol="100" pos="600"/>
                <note pan="0" key="57" len="-192" vol="100" pos="648"/>
                <note pan="0" key="57" len="-192" vol="100" pos="696"/>
                <note pan="0" key="57" len="-192" vol="100" pos="744"/>
              </pattern>
              <pattern steps="32" muted="0" pos="1344" name="" type="0"/>
              <pattern steps="64" muted="0" pos="1536" name="" type="0">
                <note pan="0" key="57" len="-192" vol="100" pos="0"/>
                <note pan="0" key="57" len="-192" vol="100" pos="48"/>
                <note pan="0" key="57" len="-192" vol="100" pos="96"/>
                <note pan="0" key="57" len="-192" vol="100" pos="144"/>
                <note pan="0" key="57" len="-192" vol="100" pos="192"/>
                <note pan="0" key="57" len="-192" vol="100" pos="240"/>
                <note pan="0" key="57" len="-192" vol="100" pos="288"/>
                <note pan="0" key="57" len="-192" vol="100" pos="336"/>
                <note pan="0" key="57" len="-192" vol="100" pos="384"/>
                <note pan="0" key="57" len="-192" vol="100" pos="432"/>
                <note pan="0" key="57" len="-192" vol="100" pos="480"/>
                <note pan="0" key="57" len="-192" vol="100" pos="528"/>
                <note pan="0" key="57" len="-192" vol="100" pos="576"/>
                <note pan="0" key="57" len="-192" vol="100" pos="624"/>
                <note pan="0" key="57" len="-192" vol="100" pos="672"/>
                <note pan="0" key="57" len="-192" vol="100" pos="720"/>
              </pattern>
              <pattern steps="32" muted="0" pos="1728" name="" type="0">
                <note pan="0" key="57" len="-192" vol="100" pos="0"/>
                <note pan="0" key="57" len="-192" vol="100" pos="48"/>
                <note pan="0" key="57" len="-192" vol="100" pos="96"/>
                <note pan="0" key="57" len="-192" vol="100" pos="144"/>
                <note pan="0" key="57" len="-192" vol="100" pos="192"/>
                <note pan="0" key="57" len="-192" vol="100" pos="240"/>
                <note pan="0" key="57" len="-192" vol="100" pos="288"/>
                <note pan="0" key="57" len="-192" vol="100" pos="336"/>
              </pattern>
              <pattern steps="32" muted="0" pos="1920" name="" type="0">
                <note pan="0" key="57" len="-192" vol="100" pos="0"/>
                <note pan="0" key="57" len="-192" vol="100" pos="48"/>
                <note pan="0" key="57" len="-192" vol="100" pos="120"/>
                <note pan="0" key="57" len="-192" vol="100" pos="288"/>
                <note pan="0" key="57" len="-192" vol="100" pos="300"/>
                <note pan="0" key="57" len="-192" vol="100" pos="312"/>
                <note pan="0" key="57" len="-192" vol="100" pos="324"/>
                <note pan="0" key="57" len="-192" vol="100" pos="336"/>
              </pattern>
              <pattern steps="64" muted="0" pos="2112" name="" type="0">
                <note pan="0" key="57" len="-192" vol="100" pos="0"/>
                <note pan="0" key="57" len="-192" vol="100" pos="48"/>
                <note pan="0" key="57" len="-192" vol="100" pos="96"/>
                <note pan="0" key="57" len="-192" vol="100" pos="144"/>
                <note pan="0" key="57" len="-192" vol="100" pos="192"/>
                <note pan="0" key="57" len="-192" vol="100" pos="240"/>
                <note pan="0" key="57" len="-192" vol="100" pos="288"/>
                <note pan="0" key="57" len="-192" vol="100" pos="336"/>
                <note pan="0" key="57" len="-192" vol="100" pos="384"/>
                <note pan="0" key="57" len="-192" vol="100" pos="432"/>
                <note pan="0" key="57" len="-192" vol="100" pos="480"/>
                <note pan="0" key="57" len="-192" vol="100" pos="528"/>
                <note pan="0" key="57" len="-192" vol="100" pos="576"/>
                <note pan="0" key="57" len="-192" vol="100" pos="624"/>
                <note pan="0" key="57" len="-192" vol="100" pos="672"/>
                <note pan="0" key="57" len="-192" vol="100" pos="720"/>
              </pattern>
              <pattern steps="32" muted="0" pos="2304" name="" type="0">
                <note pan="0" key="57" len="-192" vol="100" pos="0"/>
                <note pan="0" key="57" len="-192" vol="100" pos="48"/>
                <note pan="0" key="57" len="-192" vol="100" pos="96"/>
                <note pan="0" key="57" len="-192" vol="100" pos="144"/>
                <note pan="0" key="57" len="-192" vol="100" pos="192"/>
                <note pan="0" key="57" len="-192" vol="100" pos="240"/>
                <note pan="0" key="57" len="-192" vol="100" pos="288"/>
                <note pan="0" key="57" len="-192" vol="100" pos="336"/>
                <note pan="0" key="57" len="-192" vol="100" pos="348"/>
                <note pan="0" key="57" len="-192" vol="100" pos="360"/>
                <note pan="0" key="57" len="-192" vol="100" pos="372"/>
              </pattern>
              <pattern steps="32" muted="0" pos="2496" name="" type="0">
                <note pan="0" key="57" len="-192" vol="100" pos="48"/>
                <note pan="0" key="57" len="-192" vol="100" pos="144"/>
                <note pan="0" key="57" len="-192" vol="100" pos="240"/>
                <note pan="0" key="57" len="-192" vol="100" pos="336"/>
              </pattern>
              <pattern steps="64" muted="0" pos="2688" name="" type="0">
                <note pan="0" key="57" len="-192" vol="100" pos="48"/>
                <note pan="0" key="57" len="-192" vol="100" pos="144"/>
                <note pan="0" key="57" len="-192" vol="100" pos="240"/>
                <note pan="0" key="57" len="-192" vol="100" pos="336"/>
                <note pan="0" key="57" len="-192" vol="100" pos="432"/>
                <note pan="0" key="57" len="-192" vol="100" pos="528"/>
                <note pan="0" key="57" len="-192" vol="100" pos="624"/>
                <note pan="0" key="57" len="-192" vol="100" pos="720"/>
              </pattern>
              <pattern steps="16" muted="0" pos="2880" name="" type="0">
                <note pan="0" key="57" len="-192" vol="100" pos="144"/>
                <note pan="0" key="57" len="-192" vol="100" pos="156"/>
                <note pan="0" key="57" len="-192" vol="100" pos="168"/>
                <note pan="0" key="57" len="-192" vol="100" pos="180"/>
              </pattern>
              <pattern steps="16" muted="0" pos="3072" name="" type="0">
                <note pan="0" key="57" len="-192" vol="100" pos="0"/>
                <note pan="0" key="57" len="-192" vol="100" pos="48"/>
              </pattern>
              <pattern steps="16" muted="0" pos="3264" name="" type="0">
                <note pan="0" key="57" len="-192" vol="100" pos="0"/>
                <note pan="0" key="57" len="-192" vol="100" pos="24"/>
                <note pan="0" key="57" len="-192" vol="100" pos="96"/>
                <note pan="0" key="57" len="-192" vol="100" pos="120"/>
              </pattern>
              <pattern steps="32" muted="0" pos="3456" name="" type="0">
                <note pan="0" key="57" len="-192" vol="100" pos="336"/>
                <note pan="0" key="57" len="-192" vol="100" pos="348"/>
                <note pan="0" key="57" len="-192" vol="100" pos="360"/>
                <note pan="0" key="57" len="-192" vol="100" pos="372"/>
              </pattern>
              <pattern steps="16" muted="0" pos="3648" name="" type="0"/>
              <pattern steps="32" muted="0" pos="3840" name="" type="0">
                <note pan="0" key="57" len="-192" vol="100" pos="360"/>
                <note pan="0" key="57" len="-192" vol="100" pos="372"/>
              </pattern>
              <pattern steps="64" muted="0" pos="4032" name="" type="0">
                <note pan="0" key="57" len="-192" vol="100" pos="96"/>
                <note pan="0" key="57" len="-192" vol="100" pos="288"/>
                <note pan="0" key="57" len="-192" vol="100" pos="480"/>
                <note pan="0" key="57" len="-192" vol="100" pos="672"/>
                <note pan="0" key="57" len="-192" vol="100" pos="720"/>
              </pattern>
              <pattern steps="64" muted="0" pos="4224" name="" type="0">
                <note pan="0" key="57" len="-192" vol="100" pos="192"/>
                <note pan="0" key="57" len="-192" vol="100" pos="384"/>
                <note pan="0" key="57" len="-192" vol="100" pos="576"/>
                <note pan="0" key="57" len="-192" vol="100" pos="672"/>
                <note pan="0" key="57" len="-192" vol="100" pos="720"/>
              </pattern>
              <pattern steps="32" muted="0" pos="4416" name="" type="0">
                <note pan="0" key="57" len="-192" vol="100" pos="48"/>
                <note pan="0" key="57" len="-192" vol="100" pos="144"/>
                <note pan="0" key="57" len="-192" vol="100" pos="240"/>
                <note pan="0" key="57" len="-192" vol="100" pos="336"/>
              </pattern>
              <pattern steps="32" muted="0" pos="4608" name="" type="0">
                <note pan="0" key="57" len="-192" vol="100" pos="0"/>
                <note pan="0" key="57" len="-192" vol="100" pos="12"/>
                <note pan="0" key="57" len="-192" vol="100" pos="72"/>
                <note pan="0" key="57" len="-192" vol="100" pos="84"/>
                <note pan="0" key="57" len="-192" vol="100" pos="144"/>
                <note pan="0" key="57" len="-192" vol="100" pos="156"/>
              </pattern>
              <pattern steps="16" muted="0" pos="4800" name="" type="0"/>
              <pattern steps="32" muted="0" pos="4992" name="" type="0">
                <note pan="0" key="57" len="-192" vol="100" pos="0"/>
                <note pan="0" key="57" len="-192" vol="100" pos="72"/>
                <note pan="0" key="57" len="-192" vol="100" pos="144"/>
                <note pan="0" key="57" len="-192" vol="100" pos="240"/>
                <note pan="0" key="57" len="-192" vol="100" pos="252"/>
                <note pan="0" key="57" len="-192" vol="100" pos="336"/>
                <note pan="0" key="57" len="-192" vol="100" pos="348"/>
                <note pan="0" key="57" len="-192" vol="100" pos="360"/>
                <note pan="0" key="57" len="-192" vol="100" pos="372"/>
              </pattern>
              <pattern steps="64" muted="0" pos="5184" name="" type="0"/>
              <pattern steps="64" muted="0" pos="5376" name="" type="0"/>
              <pattern steps="64" muted="0" pos="5568" name="" type="0"/>
              <pattern steps="64" muted="0" pos="5760" name="" type="0"/>
              <pattern steps="128" muted="0" pos="5952" name="" type="0">
                <note pan="0" key="57" len="-192" vol="100" pos="48"/>
                <note pan="0" key="57" len="-192" vol="100" pos="144"/>
                <note pan="0" key="57" len="-192" vol="100" pos="240"/>
                <note pan="0" key="57" len="-192" vol="100" pos="336"/>
                <note pan="0" key="57" len="-192" vol="100" pos="432"/>
                <note pan="0" key="57" len="-192" vol="100" pos="528"/>
                <note pan="0" key="57" len="-192" vol="100" pos="624"/>
                <note pan="0" key="57" len="-192" vol="100" pos="720"/>
                <note pan="0" key="57" len="-192" vol="100" pos="816"/>
                <note pan="0" key="57" len="-192" vol="100" pos="912"/>
                <note pan="0" key="57" len="-192" vol="100" pos="1008"/>
                <note pan="0" key="57" len="-192" vol="100" pos="1104"/>
                <note pan="0" key="57" len="-192" vol="100" pos="1200"/>
                <note pan="0" key="57" len="-192" vol="100" pos="1296"/>
                <note pan="0" key="57" len="-192" vol="100" pos="1392"/>
                <note pan="0" key="57" len="-192" vol="100" pos="1488"/>
              </pattern>
              <pattern steps="16" muted="0" pos="6144" name="" type="0">
                <note pan="0" key="57" len="-192" vol="100" pos="0"/>
                <note pan="0" key="57" len="-192" vol="100" pos="48"/>
                <note pan="0" key="57" len="-192" vol="100" pos="96"/>
                <note pan="0" key="57" len="-192" vol="100" pos="144"/>
                <note pan="0" key="57" len="-192" vol="100" pos="156"/>
                <note pan="0" key="57" len="-192" vol="100" pos="168"/>
                <note pan="0" key="57" len="-192" vol="100" pos="180"/>
              </pattern>
              <pattern steps="64" muted="0" pos="6336" name="" type="0">
                <note pan="0" key="57" len="-192" vol="100" pos="96"/>
                <note pan="0" key="57" len="-192" vol="100" pos="288"/>
                <note pan="0" key="57" len="-192" vol="100" pos="480"/>
                <note pan="0" key="57" len="-192" vol="100" pos="672"/>
              </pattern>
              <pattern steps="16" muted="0" pos="6528" name="" type="0">
                <note pan="0" key="57" len="-192" vol="100" pos="96"/>
                <note pan="0" key="57" len="-192" vol="100" pos="108"/>
              </pattern>
              <pattern steps="16" muted="0" pos="6720" name="" type="0"/>
              <pattern steps="16" muted="0" pos="6912" name="" type="0"/>
              <pattern steps="64" muted="0" pos="7104" name="" type="0">
                <note pan="0" key="57" len="-192" vol="100" pos="0"/>
                <note pan="0" key="57" len="-192" vol="100" pos="48"/>
                <note pan="0" key="57" len="-192" vol="100" pos="96"/>
                <note pan="0" key="57" len="-192" vol="100" pos="144"/>
                <note pan="0" key="57" len="-192" vol="100" pos="192"/>
                <note pan="0" key="57" len="-192" vol="100" pos="204"/>
                <note pan="0" key="57" len="-192" vol="100" pos="264"/>
                <note pan="0" key="57" len="-192" vol="100" pos="276"/>
                <note pan="0" key="57" len="-192" vol="100" pos="336"/>
                <note pan="0" key="57" len="-192" vol="100" pos="348"/>
                <note pan="0" key="57" len="-192" vol="100" pos="408"/>
                <note pan="0" key="57" len="-192" vol="100" pos="420"/>
                <note pan="0" key="57" len="-192" vol="100" pos="480"/>
                <note pan="0" key="57" len="-192" vol="100" pos="528"/>
                <note pan="0" key="57" len="-192" vol="100" pos="540"/>
                <note pan="0" key="57" len="-192" vol="100" pos="552"/>
                <note pan="0" key="57" len="-192" vol="100" pos="564"/>
              </pattern>
            </track>
            <track solo="0" mutedBeforeSolo="0" muted="0" name="crash1" type="0">
              <instrumenttrack pan="2.4" basenote="57" pitch="0" usemasterpitch="1" vol="77.6" pitchrange="1" fxch="4">
                <instrument name="audiofileprocessor">
                  <audiofileprocessor stutter="0" amp="100" reversed="0" src="/home/pass/samples/sillydrums/crash1.wav" interp="1" eframe="1" looped="0" sframe="0" lframe="0">
                    <key/>
                  </audiofileprocessor>
                </instrument>
                <eldata fcut="14000" fres="0.5" ftype="0" fwet="0">
                  <elvol lspd_syncmode="0" amt="1" lshp="0" lpdel="0" att="0" ctlenvamt="0" dec="2" userwavefile="" x100="0" rel="2" sustain="1" lspd_numerator="4" latt="0" lspd="0.1" lamt="0" lspd_denominator="4" hold="2" pdel="0"/>
                  <elcut lspd_syncmode="0" amt="0" lshp="0" lpdel="0" att="0" ctlenvamt="0" dec="0.5" userwavefile="" x100="0" rel="0.1" sustain="0.5" lspd_numerator="4" latt="0" lspd="0.1" lamt="0" lspd_denominator="4" hold="0.5" pdel="0"/>
                  <elres lspd_syncmode="0" amt="0" lshp="0" lpdel="0" att="0" ctlenvamt="0" dec="0.5" userwavefile="" x100="0" rel="0.1" sustain="0.5" lspd_numerator="4" latt="0" lspd="0.1" lamt="0" lspd_denominator="4" hold="0.5" pdel="0"/>
                </eldata>
                <chordcreator chordrange="1" chord-enabled="0" chord="0"/>
                <arpeggiator arprange="1" arpmode="0" arpcycle="0" arptime_syncmode="0" arptime_numerator="4" arpgate="100" arptime="200" arpskip="0" arpmiss="0" arp="0" arptime_denominator="4" arp-enabled="0" arpdir="0"/>
                <midiport inputcontroller="0" outputcontroller="0" readable="0" outputchannel="1" fixedoutputvelocity="-1" outputprogram="1" fixedinputvelocity="-1" fixedoutputnote="-1" inputchannel="0" basevelocity="63" writable="0"/>
                <fxchain enabled="0" numofeffects="0"/>
              </instrumenttrack>
              <pattern steps="64" muted="0" pos="0" name="" type="0">
                <note pan="0" key="57" len="-192" vol="100" pos="0"/>
              </pattern>
              <pattern steps="64" muted="0" pos="192" name="" type="0">
                <note pan="0" key="57" len="-192" vol="100" pos="0"/>
              </pattern>
              <pattern steps="32" muted="0" pos="384" name="" type="0">
                <note pan="0" key="57" len="-192" vol="100" pos="288"/>
              </pattern>
              <pattern steps="64" muted="0" pos="576" name="" type="0">
                <note pan="0" key="57" len="-192" vol="100" pos="0"/>
              </pattern>
              <pattern steps="16" muted="0" pos="768" name="" type="0"/>
              <pattern steps="64" muted="0" pos="960" name="" type="0">
                <note pan="0" key="57" len="-192" vol="100" pos="0"/>
                <note pan="0" key="57" len="-192" vol="100" pos="384"/>
              </pattern>
              <pattern steps="64" muted="0" pos="1152" name="" type="0">
                <note pan="0" key="57" len="-192" vol="100" pos="0"/>
              </pattern>
              <pattern steps="32" muted="0" pos="1344" name="" type="0"/>
              <pattern steps="64" muted="0" pos="1536" name="" type="0">
                <note pan="0" key="57" len="-192" vol="100" pos="0"/>
              </pattern>
              <pattern steps="32" muted="0" pos="1728" name="" type="0">
                <note pan="0" key="57" len="-192" vol="100" pos="0"/>
              </pattern>
              <pattern steps="32" muted="0" pos="1920" name="" type="0">
                <note pan="0" key="57" len="-192" vol="100" pos="0"/>
                <note pan="0" key="57" len="-192" vol="100" pos="192"/>
              </pattern>
              <pattern steps="64" muted="0" pos="2112" name="" type="0">
                <note pan="0" key="57" len="-192" vol="100" pos="0"/>
              </pattern>
              <pattern steps="32" muted="0" pos="2304" name="" type="0">
                <note pan="0" key="57" len="-192" vol="100" pos="0"/>
              </pattern>
              <pattern steps="32" muted="0" pos="2496" name="" type="0">
                <note pan="0" key="57" len="-192" vol="100" pos="0"/>
              </pattern>
              <pattern steps="64" muted="0" pos="2688" name="" type="0">
                <note pan="0" key="57" len="-192" vol="100" pos="0"/>
                <note pan="0" key="57" len="-192" vol="100" pos="384"/>
              </pattern>
              <pattern steps="16" muted="0" pos="2880" name="" type="0">
                <note pan="0" key="57" len="-192" vol="100" pos="0"/>
                <note pan="0" key="57" len="-192" vol="100" pos="96"/>
              </pattern>
              <pattern steps="16" muted="0" pos="3072" name="" type="0">
                <note pan="0" key="57" len="-192" vol="100" pos="96"/>
              </pattern>
              <pattern steps="16" muted="0" pos="3264" name="" type="0"/>
              <pattern steps="32" muted="0" pos="3456" name="" type="0">
                <note pan="0" key="57" len="-192" vol="100" pos="96"/>
                <note pan="0" key="57" len="-192" vol="100" pos="288"/>
              </pattern>
              <pattern steps="16" muted="0" pos="3648" name="" type="0">
                <note pan="0" key="57" len="-192" vol="100" pos="0"/>
              </pattern>
              <pattern steps="32" muted="0" pos="3840" name="" type="0">
                <note pan="0" key="57" len="-192" vol="100" pos="0"/>
                <note pan="0" key="57" len="-192" vol="100" pos="192"/>
              </pattern>
              <pattern steps="64" muted="0" pos="4032" name="" type="0">
                <note pan="0" key="57" len="-192" vol="100" pos="0"/>
                <note pan="0" key="57" len="-192" vol="100" pos="384"/>
              </pattern>
              <pattern steps="64" muted="0" pos="4224" name="" type="0">
                <note pan="0" key="57" len="-192" vol="100" pos="0"/>
                <note pan="0" key="57" len="-192" vol="100" pos="384"/>
              </pattern>
              <pattern steps="32" muted="0" pos="4416" name="" type="0">
                <note pan="0" key="57" len="-192" vol="100" pos="0"/>
              </pattern>
              <pattern steps="32" muted="0" pos="4608" name="" type="0">
                <note pan="0" key="57" len="-192" vol="100" pos="192"/>
              </pattern>
              <pattern steps="16" muted="0" pos="4800" name="" type="0">
                <note pan="0" key="57" len="-192" vol="100" pos="0"/>
              </pattern>
              <pattern steps="32" muted="0" pos="4992" name="" type="0">
                <note pan="0" key="57" len="-192" vol="100" pos="0"/>
              </pattern>
              <pattern steps="64" muted="0" pos="5184" name="" type="0">
                <note pan="0" key="57" len="-192" vol="100" pos="0"/>
                <note pan="0" key="57" len="-192" vol="100" pos="384"/>
              </pattern>
              <pattern steps="64" muted="0" pos="5376" name="" type="0">
                <note pan="0" key="57" len="-192" vol="100" pos="0"/>
                <note pan="0" key="57" len="-192" vol="100" pos="384"/>
              </pattern>
              <pattern steps="64" muted="0" pos="5568" name="" type="0">
                <note pan="0" key="57" len="-192" vol="100" pos="0"/>
                <note pan="0" key="57" len="-192" vol="100" pos="384"/>
                <note pan="0" key="57" len="-192" vol="100" pos="576"/>
              </pattern>
              <pattern steps="64" muted="0" pos="5760" name="" type="0">
                <note pan="0" key="57" len="-192" vol="100" pos="0"/>
                <note pan="0" key="57" len="-192" vol="100" pos="576"/>
              </pattern>
              <pattern steps="128" muted="0" pos="5952" name="" type="0">
                <note pan="0" key="57" len="-192" vol="100" pos="0"/>
              </pattern>
              <pattern steps="16" muted="0" pos="6144" name="" type="0"/>
              <pattern steps="64" muted="0" pos="6336" name="" type="0">
                <note pan="0" key="57" len="-192" vol="100" pos="0"/>
                <note pan="0" key="57" len="-192" vol="100" pos="384"/>
              </pattern>
              <pattern steps="16" muted="0" pos="6528" name="" type="0"/>
              <pattern steps="16" muted="0" pos="6720" name="" type="0"/>
              <pattern steps="16" muted="0" pos="6912" name="" type="0"/>
              <pattern steps="64" muted="0" pos="7104" name="" type="0">
                <note pan="0" key="57" len="-192" vol="100" pos="576"/>
              </pattern>
            </track>
            <track solo="0" mutedBeforeSolo="0" muted="0" name="crash1m" type="0">
              <instrumenttrack pan="2.4" basenote="57" pitch="0" usemasterpitch="1" vol="77.6" pitchrange="1" fxch="4">
                <instrument name="audiofileprocessor">
                  <audiofileprocessor stutter="0" amp="100" reversed="0" src="/home/pass/samples/sillydrums/crash1.wav" interp="1" eframe="1" looped="0" sframe="0" lframe="0">
                    <key/>
                  </audiofileprocessor>
                </instrument>
                <eldata fcut="14000" fres="0.5" ftype="0" fwet="0">
                  <elvol lspd_syncmode="0" amt="1" lshp="0" lpdel="0" att="0" ctlenvamt="0" dec="0.216" userwavefile="" x100="0" rel="0.208" sustain="0" lspd_numerator="4" latt="0" lspd="0.1" lamt="0" lspd_denominator="4" hold="0.232" pdel="0"/>
                  <elcut lspd_syncmode="0" amt="0" lshp="0" lpdel="0" att="0" ctlenvamt="0" dec="0.5" userwavefile="" x100="0" rel="0.1" sustain="0.5" lspd_numerator="4" latt="0" lspd="0.1" lamt="0" lspd_denominator="4" hold="0.5" pdel="0"/>
                  <elres lspd_syncmode="0" amt="0" lshp="0" lpdel="0" att="0" ctlenvamt="0" dec="0.5" userwavefile="" x100="0" rel="0.1" sustain="0.5" lspd_numerator="4" latt="0" lspd="0.1" lamt="0" lspd_denominator="4" hold="0.5" pdel="0"/>
                </eldata>
                <chordcreator chordrange="1" chord-enabled="0" chord="0"/>
                <arpeggiator arprange="1" arpmode="0" arpcycle="0" arptime_syncmode="0" arptime_numerator="4" arpgate="100" arptime="200" arpskip="0" arpmiss="0" arp="0" arptime_denominator="4" arp-enabled="0" arpdir="0"/>
                <midiport inputcontroller="0" outputcontroller="0" readable="0" outputchannel="1" fixedoutputvelocity="-1" outputprogram="1" fixedinputvelocity="-1" fixedoutputnote="-1" inputchannel="0" basevelocity="63" writable="0"/>
                <fxchain enabled="0" numofeffects="0"/>
              </instrumenttrack>
              <pattern steps="64" muted="0" pos="0" name="" type="0"/>
              <pattern steps="64" muted="0" pos="192" name="" type="0"/>
              <pattern steps="32" muted="0" pos="384" name="" type="0">
                <note pan="0" key="57" len="-192" vol="100" pos="0"/>
                <note pan="0" key="57" len="-192" vol="100" pos="72"/>
                <note pan="0" key="57" len="-192" vol="100" pos="144"/>
                <note pan="0" key="57" len="-192" vol="100" pos="216"/>
              </pattern>
              <pattern steps="64" muted="0" pos="576" name="" type="0"/>
              <pattern steps="16" muted="0" pos="768" name="" type="0"/>
              <pattern steps="64" muted="0" pos="960" name="" type="0"/>
              <pattern steps="64" muted="0" pos="1152" name="" type="0"/>
              <pattern steps="32" muted="0" pos="1344" name="" type="0">
                <note pan="0" key="57" len="-192" vol="100" pos="0"/>
              </pattern>
              <pattern steps="64" muted="0" pos="1536" name="" type="0"/>
              <pattern steps="32" muted="0" pos="1728" name="" type="0"/>
              <pattern steps="32" muted="0" pos="1920" name="" type="0"/>
              <pattern steps="64" muted="0" pos="2112" name="" type="0"/>
              <pattern steps="32" muted="0" pos="2304" name="" type="0"/>
              <pattern steps="32" muted="0" pos="2496" name="" type="0"/>
              <pattern steps="64" muted="0" pos="2688" name="" type="0"/>
              <pattern steps="16" muted="0" pos="2880" name="" type="0"/>
              <pattern steps="16" muted="0" pos="3072" name="" type="0"/>
              <pattern steps="16" muted="0" pos="3264" name="" type="0"/>
              <pattern steps="32" muted="0" pos="3456" name="" type="0"/>
              <pattern steps="16" muted="0" pos="3648" name="" type="0"/>
              <pattern steps="32" muted="0" pos="3840" name="" type="0"/>
              <pattern steps="64" muted="0" pos="4032" name="" type="0"/>
              <pattern steps="64" muted="0" pos="4224" name="" type="0"/>
              <pattern steps="32" muted="0" pos="4416" name="" type="0"/>
              <pattern steps="32" muted="0" pos="4608" name="" type="0"/>
              <pattern steps="16" muted="0" pos="4800" name="" type="0"/>
              <pattern steps="32" muted="0" pos="4992" name="" type="0"/>
              <pattern steps="64" muted="0" pos="5184" name="" type="0"/>
              <pattern steps="64" muted="0" pos="5376" name="" type="0"/>
              <pattern steps="64" muted="0" pos="5568" name="" type="0"/>
              <pattern steps="64" muted="0" pos="5760" name="" type="0"/>
              <pattern steps="128" muted="0" pos="5952" name="" type="0"/>
              <pattern steps="16" muted="0" pos="6144" name="" type="0"/>
              <pattern steps="64" muted="0" pos="6336" name="" type="0"/>
              <pattern steps="16" muted="0" pos="6528" name="" type="0"/>
              <pattern steps="16" muted="0" pos="6720" name="" type="0"/>
              <pattern steps="16" muted="0" pos="6912" name="" type="0"/>
              <pattern steps="64" muted="0" pos="7104" name="" type="0"/>
            </track>
            <track solo="0" mutedBeforeSolo="0" muted="0" name="crash2" type="0">
              <instrumenttrack pan="20" basenote="57" pitch="0" usemasterpitch="1" vol="76.8" pitchrange="1" fxch="5">
                <instrument name="audiofileprocessor">
                  <audiofileprocessor stutter="0" amp="100" reversed="0" src="/home/pass/samples/mtpdk_extract/crash2.wav" interp="1" eframe="1" looped="0" sframe="0" lframe="0">
                    <key/>
                  </audiofileprocessor>
                </instrument>
                <eldata fcut="14000" fres="0.5" ftype="0" fwet="0">
                  <elvol lspd_syncmode="0" amt="1" lshp="0" lpdel="0" att="0" ctlenvamt="0" dec="2" userwavefile="" x100="0" rel="2" sustain="1" lspd_numerator="4" latt="0" lspd="0.1" lamt="0" lspd_denominator="4" hold="2" pdel="0"/>
                  <elcut lspd_syncmode="0" amt="0" lshp="0" lpdel="0" att="0" ctlenvamt="0" dec="0.5" userwavefile="" x100="0" rel="0.1" sustain="0.5" lspd_numerator="4" latt="0" lspd="0.1" lamt="0" lspd_denominator="4" hold="0.5" pdel="0"/>
                  <elres lspd_syncmode="0" amt="0" lshp="0" lpdel="0" att="0" ctlenvamt="0" dec="0.5" userwavefile="" x100="0" rel="0.1" sustain="0.5" lspd_numerator="4" latt="0" lspd="0.1" lamt="0" lspd_denominator="4" hold="0.5" pdel="0"/>
                </eldata>
                <chordcreator chordrange="1" chord-enabled="0" chord="0"/>
                <arpeggiator arprange="1" arpmode="0" arpcycle="0" arptime_syncmode="0" arptime_numerator="4" arpgate="100" arptime="200" arpskip="0" arpmiss="0" arp="0" arptime_denominator="4" arp-enabled="0" arpdir="0"/>
                <midiport inputcontroller="0" outputcontroller="0" readable="0" outputchannel="1" fixedoutputvelocity="-1" outputprogram="1" fixedinputvelocity="-1" fixedoutputnote="-1" inputchannel="0" basevelocity="63" writable="0"/>
                <fxchain enabled="0" numofeffects="0"/>
              </instrumenttrack>
              <pattern steps="64" muted="0" pos="0" name="" type="0">
                <note pan="0" key="57" len="-192" vol="100" pos="384"/>
              </pattern>
              <pattern steps="64" muted="0" pos="192" name="" type="0">
                <note pan="0" key="57" len="-192" vol="100" pos="384"/>
              </pattern>
              <pattern steps="32" muted="0" pos="384" name="" type="0"/>
              <pattern steps="64" muted="0" pos="576" name="" type="0">
                <note pan="0" key="57" len="-192" vol="100" pos="384"/>
              </pattern>
              <pattern steps="16" muted="0" pos="768" name="" type="0"/>
              <pattern steps="64" muted="0" pos="960" name="" type="0">
                <note pan="0" key="57" len="-192" vol="100" pos="192"/>
              </pattern>
              <pattern steps="64" muted="0" pos="1152" name="" type="0">
                <note pan="0" key="57" len="-192" vol="100" pos="384"/>
              </pattern>
              <pattern steps="32" muted="0" pos="1344" name="" type="0"/>
              <pattern steps="64" muted="0" pos="1536" name="" type="0">
                <note pan="0" key="57" len="-192" vol="100" pos="384"/>
              </pattern>
              <pattern steps="32" muted="0" pos="1728" name="" type="0">
                <note pan="0" key="57" len="-192" vol="100" pos="192"/>
              </pattern>
              <pattern steps="32" muted="0" pos="1920" name="" type="0">
                <note pan="0" key="57" len="-192" vol="100" pos="192"/>
              </pattern>
              <pattern steps="64" muted="0" pos="2112" name="" type="0">
                <note pan="0" key="57" len="-192" vol="100" pos="384"/>
              </pattern>
              <pattern steps="32" muted="0" pos="2304" name="" type="0"/>
              <pattern steps="32" muted="0" pos="2496" name="" type="0">
                <note pan="0" key="57" len="-192" vol="100" pos="192"/>
              </pattern>
              <pattern steps="64" muted="0" pos="2688" name="" type="0">
                <note pan="0" key="57" len="-192" vol="100" pos="192"/>
              </pattern>
              <pattern steps="16" muted="0" pos="2880" name="" type="0">
                <note pan="0" key="57" len="-192" vol="100" pos="48"/>
              </pattern>
              <pattern steps="16" muted="0" pos="3072" name="" type="0">
                <note pan="0" key="57" len="-192" vol="100" pos="144"/>
              </pattern>
              <pattern steps="16" muted="0" pos="3264" name="" type="0"/>
              <pattern steps="32" muted="0" pos="3456" name="" type="0">
                <note pan="0" key="57" len="-192" vol="100" pos="192"/>
                <note pan="0" key="57" len="-192" vol="100" pos="288"/>
              </pattern>
              <pattern steps="16" muted="0" pos="3648" name="" type="0">
                <note pan="0" key="57" len="-192" vol="100" pos="96"/>
              </pattern>
              <pattern steps="32" muted="0" pos="3840" name="" type="0">
                <note pan="0" key="57" len="-192" vol="100" pos="288"/>
              </pattern>
              <pattern steps="64" muted="0" pos="4032" name="" type="0">
                <note pan="0" key="57" len="-192" vol="100" pos="192"/>
                <note pan="0" key="57" len="-192" vol="100" pos="576"/>
              </pattern>
              <pattern steps="64" muted="0" pos="4224" name="" type="0">
                <note pan="0" key="57" len="-192" vol="100" pos="192"/>
                <note pan="0" key="57" len="-192" vol="100" pos="576"/>
              </pattern>
              <pattern steps="32" muted="0" pos="4416" name="" type="0">
                <note pan="0" key="57" len="-192" vol="100" pos="192"/>
              </pattern>
              <pattern steps="32" muted="0" pos="4608" name="" type="0">
                <note pan="0" key="57" len="-192" vol="100" pos="192"/>
              </pattern>
              <pattern steps="16" muted="0" pos="4800" name="" type="0">
                <note pan="0" key="57" len="-192" vol="100" pos="96"/>
              </pattern>
              <pattern steps="32" muted="0" pos="4992" name="" type="0">
                <note pan="0" key="57" len="-192" vol="100" pos="72"/>
              </pattern>
              <pattern steps="64" muted="0" pos="5184" name="" type="0">
                <note pan="0" key="57" len="-192" vol="100" pos="192"/>
              </pattern>
              <pattern steps="64" muted="0" pos="5376" name="" type="0">
                <note pan="0" key="57" len="-192" vol="100" pos="0"/>
                <note pan="0" key="57" len="-192" vol="100" pos="192"/>
              </pattern>
              <pattern steps="64" muted="0" pos="5568" name="" type="0">
                <note pan="0" key="57" len="-192" vol="100" pos="192"/>
                <note pan="0" key="57" len="-192" vol="100" pos="672"/>
              </pattern>
              <pattern steps="64" muted="0" pos="5760" name="" type="0">
                <note pan="0" key="57" len="-192" vol="100" pos="384"/>
                <note pan="0" key="57" len="-192" vol="100" pos="672"/>
              </pattern>
              <pattern steps="128" muted="0" pos="5952" name="" type="0">
                <note pan="0" key="57" len="-192" vol="100" pos="768"/>
              </pattern>
              <pattern steps="16" muted="0" pos="6144" name="" type="0"/>
              <pattern steps="64" muted="0" pos="6336" name="" type="0">
                <note pan="0" key="57" len="-192" vol="100" pos="192"/>
              </pattern>
              <pattern steps="16" muted="0" pos="6528" name="" type="0"/>
              <pattern steps="16" muted="0" pos="6720" name="" type="0"/>
              <pattern steps="16" muted="0" pos="6912" name="" type="0"/>
              <pattern steps="64" muted="0" pos="7104" name="" type="0">
                <note pan="0" key="57" len="-192" vol="100" pos="576"/>
              </pattern>
            </track>
            <track solo="0" mutedBeforeSolo="0" muted="0" name="china" type="0">
              <instrumenttrack pan="29.6" basenote="57" pitch="0" usemasterpitch="1" vol="52" pitchrange="1" fxch="6">
                <instrument name="audiofileprocessor">
                  <audiofileprocessor stutter="0" amp="100" reversed="0" src="/home/pass/samples/sillydrums/china.wav" interp="1" eframe="1" looped="0" sframe="0" lframe="0">
                    <key/>
                  </audiofileprocessor>
                </instrument>
                <eldata fcut="14000" fres="0.5" ftype="0" fwet="0">
                  <elvol lspd_syncmode="0" amt="1" lshp="0" lpdel="0" att="0" ctlenvamt="0" dec="2" userwavefile="" x100="0" rel="2" sustain="1" lspd_numerator="4" latt="0" lspd="0.1" lamt="0" lspd_denominator="4" hold="2" pdel="0"/>
                  <elcut lspd_syncmode="0" amt="0" lshp="0" lpdel="0" att="0" ctlenvamt="0" dec="0.5" userwavefile="" x100="0" rel="0.1" sustain="0.5" lspd_numerator="4" latt="0" lspd="0.1" lamt="0" lspd_denominator="4" hold="0.5" pdel="0"/>
                  <elres lspd_syncmode="0" amt="0" lshp="0" lpdel="0" att="0" ctlenvamt="0" dec="0.5" userwavefile="" x100="0" rel="0.1" sustain="0.5" lspd_numerator="4" latt="0" lspd="0.1" lamt="0" lspd_denominator="4" hold="0.5" pdel="0"/>
                </eldata>
                <chordcreator chordrange="1" chord-enabled="0" chord="0"/>
                <arpeggiator arprange="1" arpmode="0" arpcycle="0" arptime_syncmode="0" arptime_numerator="4" arpgate="100" arptime="200" arpskip="0" arpmiss="0" arp="0" arptime_denominator="4" arp-enabled="0" arpdir="0"/>
                <midiport inputcontroller="0" outputcontroller="0" readable="0" outputchannel="1" fixedoutputvelocity="-1" outputprogram="1" fixedinputvelocity="-1" fixedoutputnote="-1" inputchannel="0" basevelocity="63" writable="0"/>
                <fxchain enabled="0" numofeffects="0"/>
              </instrumenttrack>
              <pattern steps="64" muted="0" pos="0" name="" type="0"/>
              <pattern steps="64" muted="0" pos="192" name="" type="0"/>
              <pattern steps="32" muted="0" pos="384" name="" type="0"/>
              <pattern steps="64" muted="0" pos="576" name="" type="0"/>
              <pattern steps="16" muted="0" pos="768" name="" type="0"/>
              <pattern steps="64" muted="0" pos="960" name="" type="0"/>
              <pattern steps="64" muted="0" pos="1152" name="" type="0"/>
              <pattern steps="32" muted="0" pos="1344" name="" type="0"/>
              <pattern steps="64" muted="0" pos="1536" name="" type="0"/>
              <pattern steps="32" muted="0" pos="1728" name="" type="0"/>
              <pattern steps="32" muted="0" pos="1920" name="" type="0"/>
              <pattern steps="64" muted="0" pos="2112" name="" type="0"/>
              <pattern steps="32" muted="0" pos="2304" name="" type="0"/>
              <pattern steps="32" muted="0" pos="2496" name="" type="0"/>
              <pattern steps="64" muted="0" pos="2688" name="" type="0"/>
              <pattern steps="16" muted="0" pos="2880" name="" type="0"/>
              <pattern steps="16" muted="0" pos="3072" name="" type="0"/>
              <pattern steps="16" muted="0" pos="3264" name="" type="0"/>
              <pattern steps="32" muted="0" pos="3456" name="" type="0"/>
              <pattern steps="16" muted="0" pos="3648" name="" type="0"/>
              <pattern steps="32" muted="0" pos="3840" name="" type="0"/>
              <pattern steps="64" muted="0" pos="4032" name="" type="0"/>
              <pattern steps="64" muted="0" pos="4224" name="" type="0"/>
              <pattern steps="32" muted="0" pos="4416" name="" type="0">
                <note pan="0" key="57" len="-192" vol="100" pos="48"/>
                <note pan="0" key="57" len="-192" vol="100" pos="96"/>
                <note pan="0" key="57" len="-192" vol="100" pos="144"/>
                <note pan="0" key="57" len="-192" vol="100" pos="240"/>
                <note pan="0" key="57" len="-192" vol="100" pos="288"/>
                <note pan="0" key="57" len="-192" vol="100" pos="336"/>
              </pattern>
              <pattern steps="32" muted="0" pos="4608" name="" type="0"/>
              <pattern steps="16" muted="0" pos="4800" name="" type="0"/>
              <pattern steps="32" muted="0" pos="4992" name="" type="0"/>
              <pattern steps="64" muted="0" pos="5184" name="" type="0">
                <note pan="0" key="57" len="-192" vol="100" pos="672"/>
              </pattern>
              <pattern steps="64" muted="0" pos="5376" name="" type="0">
                <note pan="0" key="57" len="-192" vol="100" pos="672"/>
              </pattern>
              <pattern steps="64" muted="0" pos="5568" name="" type="0"/>
              <pattern steps="64" muted="0" pos="5760" name="" type="0"/>
              <pattern steps="128" muted="0" pos="5952" name="" type="0"/>
              <pattern steps="16" muted="0" pos="6144" name="" type="0"/>
              <pattern steps="64" muted="0" pos="6336" name="" type="0"/>
              <pattern steps="16" muted="0" pos="6528" name="" type="0"/>
              <pattern steps="16" muted="0" pos="6720" name="" type="0"/>
              <pattern steps="16" muted="0" pos="6912" name="" type="0"/>
              <pattern steps="64" muted="0" pos="7104" name="" type="0"/>
            </track>
            <track solo="0" mutedBeforeSolo="0" muted="0" name="tom1" type="0">
              <instrumenttrack pan="0" basenote="57" pitch="0" usemasterpitch="1" vol="130.4" pitchrange="1" fxch="7">
                <instrument name="audiofileprocessor">
                  <audiofileprocessor stutter="0" amp="100" reversed="0" src="/home/pass/samples/sillydrums/hiTom.wav" interp="1" eframe="1" looped="0" sframe="0" lframe="0">
                    <key/>
                  </audiofileprocessor>
                </instrument>
                <eldata fcut="14000" fres="0.5" ftype="0" fwet="0">
                  <elvol lspd_syncmode="0" amt="1" lshp="0" lpdel="0" att="0" ctlenvamt="0" dec="2" userwavefile="" x100="0" rel="2" sustain="1" lspd_numerator="4" latt="0" lspd="0.1" lamt="0" lspd_denominator="4" hold="2" pdel="0"/>
                  <elcut lspd_syncmode="0" amt="0" lshp="0" lpdel="0" att="0" ctlenvamt="0" dec="0.5" userwavefile="" x100="0" rel="0.1" sustain="0.5" lspd_numerator="4" latt="0" lspd="0.1" lamt="0" lspd_denominator="4" hold="0.5" pdel="0"/>
                  <elres lspd_syncmode="0" amt="0" lshp="0" lpdel="0" att="0" ctlenvamt="0" dec="0.5" userwavefile="" x100="0" rel="0.1" sustain="0.5" lspd_numerator="4" latt="0" lspd="0.1" lamt="0" lspd_denominator="4" hold="0.5" pdel="0"/>
                </eldata>
                <chordcreator chordrange="1" chord-enabled="0" chord="0"/>
                <arpeggiator arprange="1" arpmode="0" arpcycle="0" arptime_syncmode="0" arptime_numerator="4" arpgate="100" arptime="200" arpskip="0" arpmiss="0" arp="0" arptime_denominator="4" arp-enabled="0" arpdir="0"/>
                <midiport inputcontroller="0" outputcontroller="0" readable="0" outputchannel="1" fixedoutputvelocity="-1" outputprogram="1" fixedinputvelocity="-1" fixedoutputnote="-1" inputchannel="0" basevelocity="63" writable="0"/>
                <fxchain enabled="0" numofeffects="0"/>
              </instrumenttrack>
              <pattern steps="64" muted="0" pos="0" name="" type="0"/>
              <pattern steps="64" muted="0" pos="192" name="" type="0"/>
              <pattern steps="32" muted="0" pos="384" name="" type="0"/>
              <pattern steps="64" muted="0" pos="576" name="" type="0"/>
              <pattern steps="16" muted="0" pos="768" name="" type="0"/>
              <pattern steps="64" muted="0" pos="960" name="" type="0"/>
              <pattern steps="64" muted="0" pos="1152" name="" type="0"/>
              <pattern steps="32" muted="0" pos="1344" name="" type="0"/>
              <pattern steps="64" muted="0" pos="1536" name="" type="0"/>
              <pattern steps="32" muted="0" pos="1728" name="" type="0"/>
              <pattern steps="32" muted="0" pos="1920" name="" type="0">
                <note pan="0" key="57" len="-192" vol="100" pos="72"/>
                <note pan="0" key="57" len="-192" vol="100" pos="84"/>
                <note pan="0" key="57" len="-192" vol="100" pos="348"/>
              </pattern>
              <pattern steps="64" muted="0" pos="2112" name="" type="0"/>
              <pattern steps="32" muted="0" pos="2304" name="" type="0">
                <note pan="0" key="57" len="-192" vol="100" pos="204"/>
                <note pan="0" key="57" len="-192" vol="100" pos="216"/>
                <note pan="0" key="57" len="-192" vol="100" pos="228"/>
              </pattern>
              <pattern steps="32" muted="0" pos="2496" name="" type="0"/>
              <pattern steps="64" muted="0" pos="2688" name="" type="0"/>
              <pattern steps="16" muted="0" pos="2880" name="" type="0"/>
              <pattern steps="16" muted="0" pos="3072" name="" type="0">
                <note pan="0" key="57" len="-192" vol="100" pos="12"/>
                <note pan="0" key="57" len="-192" vol="100" pos="60"/>
              </pattern>
              <pattern steps="16" muted="0" pos="3264" name="" type="0"/>
              <pattern steps="32" muted="0" pos="3456" name="" type="0"/>
              <pattern steps="16" muted="0" pos="3648" name="" type="0"/>
              <pattern steps="32" muted="0" pos="3840" name="" type="0"/>
              <pattern steps="64" muted="0" pos="4032" name="" type="0"/>
              <pattern steps="64" muted="0" pos="4224" name="" type="0"/>
              <pattern steps="32" muted="0" pos="4416" name="" type="0"/>
              <pattern steps="32" muted="0" pos="4608" name="" type="0">
                <note pan="0" key="57" len="-192" vol="100" pos="24"/>
                <note pan="0" key="57" len="-192" vol="100" pos="36"/>
                <note pan="0" key="57" len="-192" vol="100" pos="48"/>
                <note pan="0" key="57" len="-192" vol="100" pos="60"/>
              </pattern>
              <pattern steps="16" muted="0" pos="4800" name="" type="0"/>
              <pattern steps="32" muted="0" pos="4992" name="" type="0">
                <note pan="0" key="57" len="-192" vol="100" pos="192"/>
                <note pan="0" key="57" len="-192" vol="100" pos="204"/>
                <note pan="0" key="57" len="-192" vol="100" pos="288"/>
                <note pan="0" key="57" len="-192" vol="100" pos="300"/>
              </pattern>
              <pattern steps="64" muted="0" pos="5184" name="" type="0"/>
              <pattern steps="64" muted="0" pos="5376" name="" type="0"/>
              <pattern steps="64" muted="0" pos="5568" name="" type="0"/>
              <pattern steps="64" muted="0" pos="5760" name="" type="0"/>
              <pattern steps="128" muted="0" pos="5952" name="" type="0"/>
              <pattern steps="16" muted="0" pos="6144" name="" type="0">
                <note pan="0" key="57" len="-192" vol="100" pos="12"/>
                <note pan="0" key="57" len="-192" vol="100" pos="24"/>
                <note pan="0" key="57" len="-192" vol="100" pos="36"/>
              </pattern>
              <pattern steps="64" muted="0" pos="6336" name="" type="0"/>
              <pattern steps="16" muted="0" pos="6528" name="" type="0">
                <note pan="0" key="57" len="-192" vol="100" pos="120"/>
                <note pan="0" key="57" len="-192" vol="100" pos="132"/>
              </pattern>
              <pattern steps="16" muted="0" pos="6720" name="" type="0"/>
              <pattern steps="16" muted="0" pos="6912" name="" type="0"/>
              <pattern steps="64" muted="0" pos="7104" name="" type="0">
                <note pan="0" key="57" len="-192" vol="100" pos="12"/>
                <note pan="0" key="57" len="-192" vol="100" pos="60"/>
                <note pan="0" key="57" len="-192" vol="100" pos="108"/>
                <note pan="0" key="57" len="-192" vol="100" pos="156"/>
                <note pan="0" key="57" len="-192" vol="100" pos="216"/>
                <note pan="0" key="57" len="-192" vol="100" pos="228"/>
                <note pan="0" key="57" len="-192" vol="100" pos="240"/>
                <note pan="0" key="57" len="-192" vol="100" pos="252"/>
                <note pan="0" key="57" len="-192" vol="100" pos="492"/>
              </pattern>
            </track>
            <track solo="0" mutedBeforeSolo="0" muted="0" name="tom2" type="0">
              <instrumenttrack pan="0" basenote="57" pitch="0" usemasterpitch="1" vol="130.4" pitchrange="1" fxch="8">
                <instrument name="audiofileprocessor">
                  <audiofileprocessor stutter="0" amp="100" reversed="0" src="/home/pass/samples/sillydrums/midTom.wav" interp="1" eframe="1" looped="0" sframe="0" lframe="0">
                    <key/>
                  </audiofileprocessor>
                </instrument>
                <eldata fcut="14000" fres="0.5" ftype="0" fwet="0">
                  <elvol lspd_syncmode="0" amt="1" lshp="0" lpdel="0" att="0" ctlenvamt="0" dec="2" userwavefile="" x100="0" rel="2" sustain="1" lspd_numerator="4" latt="0" lspd="0.1" lamt="0" lspd_denominator="4" hold="2" pdel="0"/>
                  <elcut lspd_syncmode="0" amt="0" lshp="0" lpdel="0" att="0" ctlenvamt="0" dec="0.5" userwavefile="" x100="0" rel="0.1" sustain="0.5" lspd_numerator="4" latt="0" lspd="0.1" lamt="0" lspd_denominator="4" hold="0.5" pdel="0"/>
                  <elres lspd_syncmode="0" amt="0" lshp="0" lpdel="0" att="0" ctlenvamt="0" dec="0.5" userwavefile="" x100="0" rel="0.1" sustain="0.5" lspd_numerator="4" latt="0" lspd="0.1" lamt="0" lspd_denominator="4" hold="0.5" pdel="0"/>
                </eldata>
                <chordcreator chordrange="1" chord-enabled="0" chord="0"/>
                <arpeggiator arprange="1" arpmode="0" arpcycle="0" arptime_syncmode="0" arptime_numerator="4" arpgate="100" arptime="200" arpskip="0" arpmiss="0" arp="0" arptime_denominator="4" arp-enabled="0" arpdir="0"/>
                <midiport inputcontroller="0" outputcontroller="0" readable="0" outputchannel="1" fixedoutputvelocity="-1" outputprogram="1" fixedinputvelocity="-1" fixedoutputnote="-1" inputchannel="0" basevelocity="63" writable="0"/>
                <fxchain enabled="0" numofeffects="0"/>
              </instrumenttrack>
              <pattern steps="64" muted="0" pos="0" name="" type="0"/>
              <pattern steps="64" muted="0" pos="192" name="" type="0"/>
              <pattern steps="32" muted="0" pos="384" name="" type="0"/>
              <pattern steps="64" muted="0" pos="576" name="" type="0"/>
              <pattern steps="16" muted="0" pos="768" name="" type="0">
                <note pan="0" key="57" len="-192" vol="100" pos="108"/>
                <note pan="0" key="57" len="-192" vol="100" pos="120"/>
                <note pan="0" key="57" len="-192" vol="100" pos="132"/>
              </pattern>
              <pattern steps="64" muted="0" pos="960" name="" type="0"/>
              <pattern steps="64" muted="0" pos="1152" name="" type="0"/>
              <pattern steps="32" muted="0" pos="1344" name="" type="0"/>
              <pattern steps="64" muted="0" pos="1536" name="" type="0"/>
              <pattern steps="32" muted="0" pos="1728" name="" type="0"/>
              <pattern steps="32" muted="0" pos="1920" name="" type="0">
                <note pan="0" key="57" len="-192" vol="100" pos="96"/>
                <note pan="0" key="57" len="-192" vol="100" pos="108"/>
                <note pan="0" key="57" len="-192" vol="100" pos="144"/>
                <note pan="0" key="57" len="-192" vol="100" pos="156"/>
                <note pan="0" key="57" len="-192" vol="100" pos="360"/>
              </pattern>
              <pattern steps="64" muted="0" pos="2112" name="" type="0"/>
              <pattern steps="32" muted="0" pos="2304" name="" type="0">
                <note pan="0" key="57" len="-192" vol="100" pos="252"/>
                <note pan="0" key="57" len="-192" vol="100" pos="264"/>
                <note pan="0" key="57" len="-192" vol="100" pos="276"/>
              </pattern>
              <pattern steps="32" muted="0" pos="2496" name="" type="0"/>
              <pattern steps="64" muted="0" pos="2688" name="" type="0"/>
              <pattern steps="16" muted="0" pos="2880" name="" type="0"/>
              <pattern steps="16" muted="0" pos="3072" name="" type="0">
                <note pan="0" key="57" len="-192" vol="100" pos="24"/>
                <note pan="0" key="57" len="-192" vol="100" pos="72"/>
              </pattern>
              <pattern steps="16" muted="0" pos="3264" name="" type="0"/>
              <pattern steps="32" muted="0" pos="3456" name="" type="0"/>
              <pattern steps="16" muted="0" pos="3648" name="" type="0"/>
              <pattern steps="32" muted="0" pos="3840" name="" type="0"/>
              <pattern steps="64" muted="0" pos="4032" name="" type="0">
                <note pan="0" key="57" len="-192" vol="100" pos="684"/>
                <note pan="0" key="57" len="-192" vol="100" pos="696"/>
                <note pan="0" key="57" len="-192" vol="100" pos="708"/>
              </pattern>
              <pattern steps="64" muted="0" pos="4224" name="" type="0">
                <note pan="0" key="57" len="-192" vol="100" pos="684"/>
                <note pan="0" key="57" len="-192" vol="100" pos="696"/>
                <note pan="0" key="57" len="-192" vol="100" pos="708"/>
              </pattern>
              <pattern steps="32" muted="0" pos="4416" name="" type="0"/>
              <pattern steps="32" muted="0" pos="4608" name="" type="0">
                <note pan="0" key="57" len="-192" vol="100" pos="96"/>
                <note pan="0" key="57" len="-192" vol="100" pos="108"/>
                <note pan="0" key="57" len="-192" vol="100" pos="120"/>
                <note pan="0" key="57" len="-192" vol="100" pos="132"/>
              </pattern>
              <pattern steps="16" muted="0" pos="4800" name="" type="0"/>
              <pattern steps="32" muted="0" pos="4992" name="" type="0">
                <note pan="0" key="57" len="-192" vol="100" pos="24"/>
                <note pan="0" key="57" len="-192" vol="100" pos="36"/>
                <note pan="0" key="57" len="-192" vol="100" pos="120"/>
                <note pan="0" key="57" len="-192" vol="100" pos="168"/>
                <note pan="0" key="57" len="-192" vol="100" pos="216"/>
                <note pan="0" key="57" len="-192" vol="100" pos="228"/>
                <note pan="0" key="57" len="-192" vol="100" pos="312"/>
                <note pan="0" key="57" len="-192" vol="100" pos="324"/>
              </pattern>
              <pattern steps="64" muted="0" pos="5184" name="" type="0"/>
              <pattern steps="64" muted="0" pos="5376" name="" type="0"/>
              <pattern steps="64" muted="0" pos="5568" name="" type="0"/>
              <pattern steps="64" muted="0" pos="5760" name="" type="0"/>
              <pattern steps="128" muted="0" pos="5952" name="" type="0"/>
              <pattern steps="16" muted="0" pos="6144" name="" type="0">
                <note pan="0" key="57" len="-192" vol="100" pos="60"/>
                <note pan="0" key="57" len="-192" vol="100" pos="72"/>
                <note pan="0" key="57" len="-192" vol="100" pos="84"/>
              </pattern>
              <pattern steps="64" muted="0" pos="6336" name="" type="0"/>
              <pattern steps="16" muted="0" pos="6528" name="" type="0">
                <note pan="0" key="57" len="-192" vol="100" pos="144"/>
                <note pan="0" key="57" len="-192" vol="100" pos="156"/>
              </pattern>
              <pattern steps="16" muted="0" pos="6720" name="" type="0"/>
              <pattern steps="16" muted="0" pos="6912" name="" type="0"/>
              <pattern steps="64" muted="0" pos="7104" name="" type="0">
                <note pan="0" key="57" len="-192" vol="100" pos="24"/>
                <note pan="0" key="57" len="-192" vol="100" pos="72"/>
                <note pan="0" key="57" len="-192" vol="100" pos="120"/>
                <note pan="0" key="57" len="-192" vol="100" pos="168"/>
                <note pan="0" key="57" len="-192" vol="100" pos="288"/>
                <note pan="0" key="57" len="-192" vol="100" pos="300"/>
                <note pan="0" key="57" len="-192" vol="100" pos="312"/>
                <note pan="0" key="57" len="-192" vol="100" pos="324"/>
                <note pan="0" key="57" len="-192" vol="100" pos="504"/>
              </pattern>
            </track>
            <track solo="0" mutedBeforeSolo="0" muted="0" name="tom3" type="0">
              <instrumenttrack pan="0" basenote="57" pitch="0" usemasterpitch="1" vol="130.4" pitchrange="1" fxch="9">
                <instrument name="audiofileprocessor">
                  <audiofileprocessor stutter="0" amp="100" reversed="0" src="/home/pass/samples/sillydrums/loTom.wav" interp="1" eframe="1" looped="0" sframe="0" lframe="0">
                    <key/>
                  </audiofileprocessor>
                </instrument>
                <eldata fcut="14000" fres="0.5" ftype="0" fwet="0">
                  <elvol lspd_syncmode="0" amt="1" lshp="0" lpdel="0" att="0" ctlenvamt="0" dec="2" userwavefile="" x100="0" rel="2" sustain="1" lspd_numerator="4" latt="0" lspd="0.1" lamt="0" lspd_denominator="4" hold="2" pdel="0"/>
                  <elcut lspd_syncmode="0" amt="0" lshp="0" lpdel="0" att="0" ctlenvamt="0" dec="0.5" userwavefile="" x100="0" rel="0.1" sustain="0.5" lspd_numerator="4" latt="0" lspd="0.1" lamt="0" lspd_denominator="4" hold="0.5" pdel="0"/>
                  <elres lspd_syncmode="0" amt="0" lshp="0" lpdel="0" att="0" ctlenvamt="0" dec="0.5" userwavefile="" x100="0" rel="0.1" sustain="0.5" lspd_numerator="4" latt="0" lspd="0.1" lamt="0" lspd_denominator="4" hold="0.5" pdel="0"/>
                </eldata>
                <chordcreator chordrange="1" chord-enabled="0" chord="0"/>
                <arpeggiator arprange="1" arpmode="0" arpcycle="0" arptime_syncmode="0" arptime_numerator="4" arpgate="100" arptime="200" arpskip="0" arpmiss="0" arp="0" arptime_denominator="4" arp-enabled="0" arpdir="0"/>
                <midiport inputcontroller="0" outputcontroller="0" readable="0" outputchannel="1" fixedoutputvelocity="-1" outputprogram="1" fixedinputvelocity="-1" fixedoutputnote="-1" inputchannel="0" basevelocity="63" writable="0"/>
                <fxchain enabled="0" numofeffects="0"/>
              </instrumenttrack>
              <pattern steps="64" muted="0" pos="0" name="" type="0"/>
              <pattern steps="64" muted="0" pos="192" name="" type="0"/>
              <pattern steps="32" muted="0" pos="384" name="" type="0"/>
              <pattern steps="64" muted="0" pos="576" name="" type="0"/>
              <pattern steps="16" muted="0" pos="768" name="" type="0">
                <note pan="0" key="57" len="-192" vol="100" pos="156"/>
                <note pan="0" key="57" len="-192" vol="100" pos="168"/>
                <note pan="0" key="57" len="-192" vol="100" pos="180"/>
              </pattern>
              <pattern steps="64" muted="0" pos="960" name="" type="0"/>
              <pattern steps="64" muted="0" pos="1152" name="" type="0"/>
              <pattern steps="32" muted="0" pos="1344" name="" type="0"/>
              <pattern steps="64" muted="0" pos="1536" name="" type="0"/>
              <pattern steps="32" muted="0" pos="1728" name="" type="0"/>
              <pattern steps="32" muted="0" pos="1920" name="" type="0">
                <note pan="0" key="57" len="-192" vol="100" pos="168"/>
                <note pan="0" key="57" len="-192" vol="100" pos="180"/>
                <note pan="0" key="57" len="-192" vol="100" pos="372"/>
              </pattern>
              <pattern steps="64" muted="0" pos="2112" name="" type="0"/>
              <pattern steps="32" muted="0" pos="2304" name="" type="0">
                <note pan="0" key="57" len="-192" vol="100" pos="300"/>
                <note pan="0" key="57" len="-192" vol="100" pos="312"/>
                <note pan="0" key="57" len="-192" vol="100" pos="324"/>
              </pattern>
              <pattern steps="32" muted="0" pos="2496" name="" type="0"/>
              <pattern steps="64" muted="0" pos="2688" name="" type="0"/>
              <pattern steps="16" muted="0" pos="2880" name="" type="0"/>
              <pattern steps="16" muted="0" pos="3072" name="" type="0">
                <note pan="0" key="57" len="-192" vol="100" pos="36"/>
                <note pan="0" key="57" len="-192" vol="100" pos="84"/>
              </pattern>
              <pattern steps="16" muted="0" pos="3264" name="" type="0"/>
              <pattern steps="32" muted="0" pos="3456" name="" type="0"/>
              <pattern steps="16" muted="0" pos="3648" name="" type="0"/>
              <pattern steps="32" muted="0" pos="3840" name="" type="0"/>
              <pattern steps="64" muted="0" pos="4032" name="" type="0">
                <note pan="0" key="57" len="-192" vol="100" pos="732"/>
                <note pan="0" key="57" len="-192" vol="100" pos="744"/>
                <note pan="0" key="57" len="-192" vol="100" pos="756"/>
              </pattern>
              <pattern steps="64" muted="0" pos="4224" name="" type="0">
                <note pan="0" key="57" len="-192" vol="100" pos="732"/>
                <note pan="0" key="57" len="-192" vol="100" pos="744"/>
                <note pan="0" key="57" len="-192" vol="100" pos="756"/>
              </pattern>
              <pattern steps="32" muted="0" pos="4416" name="" type="0"/>
              <pattern steps="32" muted="0" pos="4608" name="" type="0">
                <note pan="0" key="57" len="-192" vol="100" pos="168"/>
                <note pan="0" key="57" len="-192" vol="100" pos="180"/>
              </pattern>
              <pattern steps="16" muted="0" pos="4800" name="" type="0">
                <note pan="0" key="57" len="-192" vol="100" pos="168"/>
                <note pan="0" key="57" len="-192" vol="100" pos="180"/>
              </pattern>
              <pattern steps="32" muted="0" pos="4992" name="" type="0">
                <note pan="0" key="57" len="-192" vol="100" pos="48"/>
                <note pan="0" key="57" len="-192" vol="100" pos="60"/>
                <note pan="0" key="57" len="-192" vol="100" pos="120"/>
                <note pan="0" key="57" len="-192" vol="100" pos="168"/>
                <note pan="0" key="57" len="-192" vol="100" pos="264"/>
                <note pan="0" key="57" len="-192" vol="100" pos="276"/>
              </pattern>
              <pattern steps="64" muted="0" pos="5184" name="" type="0"/>
              <pattern steps="64" muted="0" pos="5376" name="" type="0"/>
              <pattern steps="64" muted="0" pos="5568" name="" type="0"/>
              <pattern steps="64" muted="0" pos="5760" name="" type="0"/>
              <pattern steps="128" muted="0" pos="5952" name="" type="0"/>
              <pattern steps="16" muted="0" pos="6144" name="" type="0">
                <note pan="0" key="57" len="-192" vol="100" pos="108"/>
                <note pan="0" key="57" len="-192" vol="100" pos="120"/>
                <note pan="0" key="57" len="-192" vol="100" pos="132"/>
              </pattern>
              <pattern steps="64" muted="0" pos="6336" name="" type="0"/>
              <pattern steps="16" muted="0" pos="6528" name="" type="0">
                <note pan="0" key="57" len="-192" vol="100" pos="168"/>
                <note pan="0" key="57" len="-192" vol="100" pos="180"/>
              </pattern>
              <pattern steps="16" muted="0" pos="6720" name="" type="0"/>
              <pattern steps="16" muted="0" pos="6912" name="" type="0"/>
              <pattern steps="64" muted="0" pos="7104" name="" type="0">
                <note pan="0" key="57" len="-192" vol="100" pos="36"/>
                <note pan="0" key="57" len="-192" vol="100" pos="84"/>
                <note pan="0" key="57" len="-192" vol="100" pos="132"/>
                <note pan="0" key="57" len="-192" vol="100" pos="180"/>
                <note pan="0" key="57" len="-192" vol="100" pos="360"/>
                <note pan="0" key="57" len="-192" vol="100" pos="372"/>
                <note pan="0" key="57" len="-192" vol="100" pos="384"/>
                <note pan="0" key="57" len="-192" vol="100" pos="396"/>
                <note pan="0" key="57" len="-192" vol="100" pos="432"/>
                <note pan="0" key="57" len="-192" vol="100" pos="444"/>
                <note pan="0" key="57" len="-192" vol="100" pos="456"/>
                <note pan="0" key="57" len="-192" vol="100" pos="468"/>
                <note pan="0" key="57" len="-192" vol="100" pos="516"/>
              </pattern>
            </track>
          </trackcontainer>
        </bbtrack>
        <bbtco muted="0" len="768" pos="384" name=""/>
      </track>
      <track solo="0" mutedBeforeSolo="0" muted="0" name="Clone of intro1" type="1">
        <bbtrack/>
        <bbtco muted="0" len="768" pos="1152" name=""/>
      </track>
      <track solo="0" mutedBeforeSolo="0" muted="0" name="intro2" type="1">
        <bbtrack/>
        <bbtco muted="0" len="1152" pos="1920" name=""/>
      </track>
      <track solo="0" mutedBeforeSolo="0" muted="0" name="bootcamp1" type="1">
        <bbtrack/>
        <bbtco muted="0" len="1536" pos="9600" name=""/>
        <bbtco muted="0" len="1344" pos="17280" name=""/>
        <bbtco muted="0" len="1152" pos="41088" name=""/>
        <bbtco muted="0" len="1344" pos="45696" name=""/>
      </track>
      <track solo="0" mutedBeforeSolo="0" muted="0" name="fill1" type="1">
        <bbtrack/>
      </track>
      <track solo="0" mutedBeforeSolo="0" muted="0" name="Clone of bootcamp1" type="1">
        <bbtrack/>
        <bbtco muted="0" len="1536" pos="4992" name=""/>
        <bbtco muted="0" len="768" pos="14976" name=""/>
        <bbtco muted="0" len="1536" pos="36480" name=""/>
      </track>
      <track solo="0" mutedBeforeSolo="0" muted="0" name="Clone of Clone of bootcamp1" type="1">
        <bbtrack/>
        <bbtco muted="0" len="576" pos="38784" name=""/>
      </track>
      <track solo="0" mutedBeforeSolo="0" muted="0" name="kick/mutecrash" type="1">
        <bbtrack/>
        <bbtco muted="0" len="384" pos="12672" name=""/>
      </track>
      <track solo="0" mutedBeforeSolo="0" muted="0" name="Beat/Bassline 6" type="1">
        <bbtrack/>
        <bbtco muted="0" len="768" pos="6528" name=""/>
        <bbtco muted="0" len="768" pos="14208" name=""/>
        <bbtco muted="0" len="768" pos="38016" name=""/>
      </track>
      <track solo="0" mutedBeforeSolo="0" muted="0" name="Clone of Beat/Bassline 6" type="1">
        <bbtrack/>
        <bbtco muted="0" len="1152" pos="8064" name=""/>
        <bbtco muted="0" len="1152" pos="15744" name=""/>
        <bbtco muted="0" len="1344" pos="20352" name=""/>
        <bbtco muted="0" len="2688" pos="31872" name=""/>
        <bbtco muted="0" len="1152" pos="44160" name=""/>
      </track>
      <track solo="0" mutedBeforeSolo="0" muted="0" name="Clone of Clone of Beat/Bassline 6" type="1">
        <bbtrack/>
        <bbtco muted="0" len="384" pos="34560" name=""/>
      </track>
      <track solo="0" mutedBeforeSolo="0" muted="0" name="Clone of Clone of Beat/Bassline 6" type="1">
        <bbtrack/>
        <bbtco muted="0" len="3072" pos="59520" name=""/>
      </track>
      <track solo="0" mutedBeforeSolo="0" muted="0" name="Clone of Clone of Beat/Bassline 6" type="1">
        <bbtrack/>
        <bbtco muted="0" len="384" pos="9216" name=""/>
        <bbtco muted="0" len="384" pos="16896" name=""/>
        <bbtco muted="0" len="384" pos="40704" name=""/>
        <bbtco muted="0" len="384" pos="45312" name=""/>
      </track>
      <track solo="0" mutedBeforeSolo="0" muted="0" name="Automation track" type="5">
        <automationtrack/>
      </track>
      <track solo="0" mutedBeforeSolo="0" muted="0" name="Beat/Bassline 11" type="1">
        <bbtrack/>
        <bbtco muted="0" len="576" pos="4224" name=""/>
        <bbtco muted="0" len="1536" pos="11136" name=""/>
        <bbtco muted="0" len="576" pos="7296" name=""/>
        <bbtco muted="0" len="1344" pos="18816" name=""/>
        <bbtco muted="0" len="768" pos="35712" name=""/>
        <bbtco muted="0" len="1152" pos="39552" name=""/>
        <bbtco muted="0" len="2880" pos="47232" name=""/>
        <bbtco muted="0" len="384" pos="63360" name=""/>
      </track>
      <track solo="0" mutedBeforeSolo="0" muted="0" name="Clone of Beat/Bassline 11" type="1">
        <bbtrack/>
        <bbtco muted="0" len="2688" pos="53376" name=""/>
      </track>
      <track solo="0" mutedBeforeSolo="0" muted="0" name="Beat/Bassline 18" type="1">
        <bbtrack/>
        <bbtco muted="0" len="192" pos="20160" name=""/>
      </track>
      <track solo="0" mutedBeforeSolo="0" muted="0" name="Beat/Bassline 12" type="1">
        <bbtrack/>
        <bbtco muted="0" len="192" pos="4800" name=""/>
        <bbtco muted="0" len="192" pos="21696" name=""/>
      </track>
      <track solo="0" mutedBeforeSolo="0" muted="0" name="Beat/Bassline 19" type="1">
        <bbtrack/>
        <bbtco muted="0" len="192" pos="18624" name=""/>
      </track>
      <track solo="0" mutedBeforeSolo="0" muted="0" name="rgt pitch" type="5">
        <automationtrack/>
        <automationpattern tens="1" mute="0" prog="2" len="384" pos="13440" name="AM pitchshifter>>>Pitch shift">
          <time value="1.09031" pos="0"/>
          <time value="2.28938" pos="96"/>
          <time value="1.21734" pos="192"/>
          <time value="2.76844" pos="384"/>
          <object id="7309738"/>
        </automationpattern>
        <automationpattern tens="1" mute="0" prog="0" len="192" pos="11904" name="AM pitchshifter>>>Pitch shift">
          <time value="2.32734" pos="0"/>
          <object id="7309738"/>
        </automationpattern>
        <automationpattern tens="1" mute="0" prog="0" len="192" pos="13824" name="AM pitchshifter>>>Pitch shift">
          <time value="2.32734" pos="0"/>
          <object id="7309738"/>
        </automationpattern>
        <automationpattern tens="1" mute="0" prog="0" len="192" pos="0" name="AM pitchshifter>>>Pitch shift">
          <time value="2.32734" pos="0"/>
          <object id="7309738"/>
        </automationpattern>
      </track>
      <track solo="0" mutedBeforeSolo="0" muted="0" name="lgt pitch" type="5">
        <automationtrack/>
        <automationpattern tens="1" mute="0" prog="0" len="192" pos="0" name="Tempo">
          <time value="201" pos="0"/>
          <object id="2356958"/>
        </automationpattern>
        <automationpattern tens="1" mute="0" prog="0" len="192" pos="31680" name="AM pitchshifter>>>Pitch shift">
          <time value="2.32441" pos="0"/>
          <object id="485849"/>
        </automationpattern>
        <automationpattern tens="1" mute="0" prog="2" len="384" pos="31872" name="AM pitchshifter>>>Pitch shift">
          <time value="1.34484" pos="0"/>
          <time value="2.74078" pos="24"/>
          <time value="1.31766" pos="240"/>
          <time value="0.25" pos="384"/>
          <object id="485849"/>
        </automationpattern>
        <automationpattern tens="1" mute="0" prog="0" len="192" pos="32256" name="AM pitchshifter>>>Pitch shift">
          <time value="2.32441" pos="0"/>
          <object id="485849"/>
        </automationpattern>
        <automationpattern tens="1" mute="0" prog="2" len="192" pos="64320" name="AM pitchshifter>>>Pitch shift">
          <time value="1.34484" pos="0"/>
          <time value="2.66859" pos="24"/>
          <time value="1.62469" pos="216"/>
          <object id="485849"/>
        </automationpattern>
      </track>
      <track solo="0" mutedBeforeSolo="0" muted="0" name="lgt pitch on/off" type="5">
        <automationtrack/>
        <automationpattern tens="1" mute="0" prog="0" len="192" pos="31680" name="AM pitchshifter>Effect enabled">
          <time value="1" pos="0"/>
          <object id="2786011"/>
        </automationpattern>
        <automationpattern tens="1" mute="0" prog="0" len="192" pos="32256" name="AM pitchshifter>Effect enabled">
          <time value="0" pos="0"/>
          <object id="2786011"/>
        </automationpattern>
        <automationpattern tens="1" mute="0" prog="0" len="192" pos="0" name="AM pitchshifter>Effect enabled">
          <time value="0" pos="0"/>
          <object id="2786011"/>
        </automationpattern>
        <automationpattern tens="1" mute="0" prog="0" len="192" pos="64320" name="AM pitchshifter>Effect enabled">
          <time value="1" pos="0"/>
          <object id="2786011"/>
        </automationpattern>
        <automationpattern tens="1" mute="0" prog="0" len="192" pos="64704" name="AM pitchshifter>Effect enabled">
          <time value="0" pos="0"/>
          <object id="2786011"/>
        </automationpattern>
        <automationpattern tens="1" mute="0" prog="0" len="192" pos="12672" name="AM pitchshifter>>>Pitch shift">
          <time value="0.25" pos="0"/>
          <object id="7309738"/>
        </automationpattern>
        <automationpattern tens="1" mute="0" prog="0" len="192" pos="192" name="AM pitchshifter>>>Pitch shift">
          <time value="2.32734" pos="0"/>
          <object id="7309738"/>
        </automationpattern>
        <automationpattern tens="1" mute="0" prog="0" len="192" pos="13824" name="AM pitchshifter>>>Pitch shift">
          <time value="2.32734" pos="0"/>
          <object id="7309738"/>
        </automationpattern>
      </track>
      <track solo="0" mutedBeforeSolo="0" muted="0" name="rgt pitch" type="5">
        <automationtrack/>
        <automationpattern tens="1" mute="0" prog="2" len="384" pos="13440" name="AM pitchshifter>>>Pitch shift">
          <time value="1.09031" pos="0"/>
          <time value="2.28938" pos="96"/>
          <time value="1.21734" pos="192"/>
          <time value="2.76844" pos="384"/>
          <object id="7309738"/>
        </automationpattern>
        <automationpattern tens="1" mute="0" prog="0" len="192" pos="13248" name="AM pitchshifter>>>Pitch shift">
          <time value="2.32734" pos="0"/>
          <object id="7309738"/>
        </automationpattern>
        <automationpattern tens="1" mute="0" prog="0" len="192" pos="13824" name="AM pitchshifter>>>Pitch shift">
          <time value="2.32734" pos="0"/>
          <object id="7309738"/>
        </automationpattern>
        <automationpattern tens="1" mute="0" prog="0" len="192" pos="0" name="AM pitchshifter>>>Pitch shift">
          <time value="2.32734" pos="0"/>
          <object id="7309738"/>
        </automationpattern>
      </track>
      <track solo="0" mutedBeforeSolo="0" muted="0" name="lgt pitch" type="5">
        <automationtrack/>
        <automationpattern tens="1" mute="0" prog="0" len="192" pos="0" name="Tempo">
          <time value="201" pos="0"/>
          <object id="2356958"/>
        </automationpattern>
        <automationpattern tens="1" mute="0" prog="0" len="192" pos="31680" name="AM pitchshifter>>>Pitch shift">
          <time value="2.32441" pos="0"/>
          <object id="485849"/>
        </automationpattern>
        <automationpattern tens="1" mute="0" prog="2" len="384" pos="31872" name="AM pitchshifter>>>Pitch shift">
          <time value="1.34484" pos="0"/>
          <time value="2.74078" pos="24"/>
          <time value="1.31766" pos="240"/>
          <time value="0.25" pos="384"/>
          <object id="485849"/>
        </automationpattern>
        <automationpattern tens="1" mute="0" prog="0" len="192" pos="32256" name="AM pitchshifter>>>Pitch shift">
          <time value="2.32441" pos="0"/>
          <object id="485849"/>
        </automationpattern>
      </track>
      <track solo="0" mutedBeforeSolo="0" muted="0" name="lgt pitch on/off" type="5">
        <automationtrack/>
        <automationpattern tens="1" mute="0" prog="0" len="192" pos="31872" name="AM pitchshifter>Effect enabled">
          <time value="1" pos="0"/>
          <object id="2786011"/>
        </automationpattern>
        <automationpattern tens="1" mute="0" prog="0" len="192" pos="32256" name="AM pitchshifter>Effect enabled">
          <time value="0" pos="0"/>
          <object id="2786011"/>
        </automationpattern>
        <automationpattern tens="1" mute="0" prog="0" len="192" pos="0" name="AM pitchshifter>Effect enabled">
          <time value="0" pos="0"/>
          <object id="2786011"/>
        </automationpattern>
      </track>
      <track solo="0" mutedBeforeSolo="0" muted="0" name="Beat/Bassline 24" type="1">
        <bbtrack/>
        <bbtco muted="0" len="384" pos="43776" name=""/>
      </track>
      <track solo="0" mutedBeforeSolo="0" muted="0" name="Clone of Beat/Bassline 24" type="1">
        <bbtrack/>
        <bbtco muted="0" len="192" pos="50112" name=""/>
      </track>
      <track solo="0" mutedBeforeSolo="0" muted="0" name="Clone of Clone of Beat/Bassline 24" type="1">
        <bbtrack/>
        <bbtco muted="0" len="384" pos="56064" name=""/>
        <bbtco muted="0" len="192" pos="42240" name=""/>
      </track>
      <track solo="0" mutedBeforeSolo="1" muted="1" name="Rhythm Guitar" type="0">
        <instrumenttrack pan="0" basenote="57" pitch="0" usemasterpitch="1" vol="200" pitchrange="1" fxch="12">
          <instrument name="carlapatchbay">
            <carlapatchbay>
              <CARLA-PROJECT VERSION="2.2">
                <EngineSettings>
                  <ForceStereo>false</ForceStereo>
                  <PreferPluginBridges>false</PreferPluginBridges>
                  <PreferUiBridges>true</PreferUiBridges>
                  <UIsAlwaysOnTop>false</UIsAlwaysOnTop>
                  <MaxParameters>200</MaxParameters>
                  <UIBridgesTimeout>4000</UIBridgesTimeout>
                  <LADSPA_PATH>/home/pass/.ladspa:/usr/lib/ladspa:/usr/local/lib/ladspa</LADSPA_PATH>
                  <DSSI_PATH>/home/pass/.dssi:/usr/lib/dssi:/usr/local/lib/dssi</DSSI_PATH>
                  <LV2_PATH>/home/pass/.lv2:/usr/lib/lv2:/usr/local/lib/lv2</LV2_PATH>
                  <VST2_PATH>/home/pass/.vst:/home/pass/.wine/drive_c/Program Files (x86)/VstPlugins:/home/pass/.wine/drive_c/Program Files/VstPlugins:/home/pass/vst:/usr/lib/lxvst:/usr/lib/vst:/usr/local/lib/lxvst:/usr/local/lib/vst/home/pass/.lxvst</VST2_PATH>
                  <VST3_PATH>/home/pass/.vst3:/home/pass/.wine/drive_c/Program Files (x86)/Common Files/VST3:/home/pass/.wine/drive_c/Program Files/Common Files/VST3:/usr/lib/vst3:/usr/local/lib/vst3</VST3_PATH>
                  <SF2_PATH>/home/pass/.sounds/sf2/home/pass/.sounds/sf3:/usr/share/soundfonts:/usr/share/sounds/sf2:/usr/share/sounds/sf3</SF2_PATH>
                  <SFZ_PATH>/home/pass/.sounds/sfz:/home/pass/samples:/usr/share/sounds/sfz</SFZ_PATH>
                </EngineSettings>
                <!-- sfizz -->
                <Plugin>
                  <Info>
                    <Type>LV2</Type>
                    <Name>sfizz</Name>
                    <URI>http://sfztools.github.io/sfizz</URI>
                  </Info>
                  <Data>
                    <Active>Yes</Active>
                    <ControlChannel>1</ControlChannel>
                    <Options>0x3f0</Options>
                    <Parameter>
                      <Index>0</Index>
                      <Name>Volume</Name>
                      <Symbol>volume</Symbol>
                      <Value>0</Value>
                    </Parameter>
                    <Parameter>
                      <Index>1</Index>
                      <Name>Polyphony</Name>
                      <Symbol>num_voices</Symbol>
                      <Value>64</Value>
                    </Parameter>
                    <Parameter>
                      <Index>2</Index>
                      <Name>Internal oversampling factor</Name>
                      <Symbol>oversampling</Symbol>
                      <Value>1</Value>
                    </Parameter>
                    <Parameter>
                      <Index>3</Index>
                      <Name>Preload size</Name>
                      <Symbol>preload_size</Symbol>
                      <Value>8192</Value>
                    </Parameter>
                    <Parameter>
                      <Index>5</Index>
                      <Name>Scala root key</Name>
                      <Symbol>scala_root_key</Symbol>
                      <Value>60</Value>
                    </Parameter>
                    <Parameter>
                      <Index>6</Index>
                      <Name>Tuning frequency</Name>
                      <Symbol>tuning_frequency</Symbol>
                      <Value>440</Value>
                    </Parameter>
                    <Parameter>
                      <Index>7</Index>
                      <Name>Stretched tuning</Name>
                      <Symbol>stretched_tuning</Symbol>
                      <Value>0</Value>
                    </Parameter>
                    <CustomData>
                      <Type>http://lv2plug.in/ns/ext/atom#Path</Type>
                      <Key>http://sfztools.github.io/sfizz:sfzfile</Key>
                      <Value>_fakeguitar1_integrated.sfz</Value>
                    </CustomData>
                    <CustomData>
                      <Type>http://lv2plug.in/ns/ext/atom#Int</Type>
                      <Key>http://sfztools.github.io/sfizz:numvoices</Key>
                      <Value>QAAAAA==</Value>
                    </CustomData>
                    <CustomData>
                      <Type>http://lv2plug.in/ns/ext/atom#Int</Type>
                      <Key>http://sfztools.github.io/sfizz:preload_size</Key>
                      <Value>ACAAAA==</Value>
                    </CustomData>
                    <CustomData>
                      <Type>http://lv2plug.in/ns/ext/atom#Int</Type>
                      <Key>http://sfztools.github.io/sfizz:oversampling</Key>
                      <Value>AQAAAA==</Value>
                    </CustomData>
                    <CustomData>
                      <Type>http://lv2plug.in/ns/ext/atom#Path</Type>
                      <Key>http://sfztools.github.io/sfizz:tuningfile</Key>
                      <Value>DefaultScale.scl</Value>
                    </CustomData>
                  </Data>
                </Plugin>
                <!-- sfizz -->
                <Plugin>
                  <Info>
                    <Type>LV2</Type>
                    <Name>sfizz (2)</Name>
                    <URI>http://sfztools.github.io/sfizz</URI>
                  </Info>
                  <Data>
                    <Active>Yes</Active>
                    <ControlChannel>1</ControlChannel>
                    <Options>0x3f0</Options>
                    <Parameter>
                      <Index>0</Index>
                      <Name>Volume</Name>
                      <Symbol>volume</Symbol>
                      <Value>0</Value>
                    </Parameter>
                    <Parameter>
                      <Index>1</Index>
                      <Name>Polyphony</Name>
                      <Symbol>num_voices</Symbol>
                      <Value>64</Value>
                    </Parameter>
                    <Parameter>
                      <Index>2</Index>
                      <Name>Internal oversampling factor</Name>
                      <Symbol>oversampling</Symbol>
                      <Value>1</Value>
                    </Parameter>
                    <Parameter>
                      <Index>3</Index>
                      <Name>Preload size</Name>
                      <Symbol>preload_size</Symbol>
                      <Value>8192</Value>
                    </Parameter>
                    <Parameter>
                      <Index>5</Index>
                      <Name>Scala root key</Name>
                      <Symbol>scala_root_key</Symbol>
                      <Value>60</Value>
                    </Parameter>
                    <Parameter>
                      <Index>6</Index>
                      <Name>Tuning frequency</Name>
                      <Symbol>tuning_frequency</Symbol>
                      <Value>440</Value>
                    </Parameter>
                    <Parameter>
                      <Index>7</Index>
                      <Name>Stretched tuning</Name>
                      <Symbol>stretched_tuning</Symbol>
                      <Value>0</Value>
                    </Parameter>
                    <CustomData>
                      <Type>http://lv2plug.in/ns/ext/atom#Path</Type>
                      <Key>http://sfztools.github.io/sfizz:sfzfile</Key>
                      <Value>_fakeguitar2_integrated.sfz</Value>
                    </CustomData>
                    <CustomData>
                      <Type>http://lv2plug.in/ns/ext/atom#Int</Type>
                      <Key>http://sfztools.github.io/sfizz:numvoices</Key>
                      <Value>QAAAAA==</Value>
                    </CustomData>
                    <CustomData>
                      <Type>http://lv2plug.in/ns/ext/atom#Int</Type>
                      <Key>http://sfztools.github.io/sfizz:preload_size</Key>
                      <Value>ACAAAA==</Value>
                    </CustomData>
                    <CustomData>
                      <Type>http://lv2plug.in/ns/ext/atom#Int</Type>
                      <Key>http://sfztools.github.io/sfizz:oversampling</Key>
                      <Value>AQAAAA==</Value>
                    </CustomData>
                    <CustomData>
                      <Type>http://lv2plug.in/ns/ext/atom#Path</Type>
                      <Key>http://sfztools.github.io/sfizz:tuningfile</Key>
                      <Value>DefaultScale.scl</Value>
                    </CustomData>
                  </Data>
                </Plugin>
                <Patchbay>
                  <Connection>
                    <Source>Midi Input:Capture 1</Source>
                    <Target>sfizz:events-in</Target>
                  </Connection>
                  <Connection>
                    <Source>sfizz:Left Output</Source>
                    <Target>Audio Output:Left</Target>
                  </Connection>
                  <Connection>
                    <Source>sfizz:Right Output</Source>
                    <Target>Audio Output:Left</Target>
                  </Connection>
                  <Connection>
                    <Source>Midi Input:Capture 1</Source>
                    <Target>sfizz (2):events-in</Target>
                  </Connection>
                  <Connection>
                    <Source>sfizz (2):Right Output</Source>
                    <Target>Audio Output:Right</Target>
                  </Connection>
                  <Connection>
                    <Source>sfizz (2):Left Output</Source>
                    <Target>Audio Output:Right</Target>
                  </Connection>
                  <Positions>
                    <Position y1="1350" x1="1711" pluginId="1">
                      <Name>sfizz (2)</Name>
                    </Position>
                    <Position y1="1297" x1="1704" pluginId="0">
                      <Name>sfizz</Name>
                    </Position>
                  </Positions>
                </Patchbay>
              </CARLA-PROJECT>
              <key/>
            </carlapatchbay>
          </instrument>
          <eldata fcut="14000" fres="0.5" ftype="0" fwet="0">
            <elvol lspd_syncmode="0" amt="0" lshp="0" lpdel="0" att="0" ctlenvamt="0" dec="0.5" userwavefile="" x100="0" rel="0.1" sustain="0.5" lspd_numerator="4" latt="0" lspd="0.1" lamt="0" lspd_denominator="4" hold="0.5" pdel="0"/>
            <elcut lspd_syncmode="0" amt="0" lshp="0" lpdel="0" att="0" ctlenvamt="0" dec="0.5" userwavefile="" x100="0" rel="0.1" sustain="0.5" lspd_numerator="4" latt="0" lspd="0.1" lamt="0" lspd_denominator="4" hold="0.5" pdel="0"/>
            <elres lspd_syncmode="0" amt="0" lshp="0" lpdel="0" att="0" ctlenvamt="0" dec="0.5" userwavefile="" x100="0" rel="0.1" sustain="0.5" lspd_numerator="4" latt="0" lspd="0.1" lamt="0" lspd_denominator="4" hold="0.5" pdel="0"/>
          </eldata>
          <chordcreator chordrange="1" chord-enabled="0" chord="0"/>
          <arpeggiator arprange="1" arpmode="0" arpcycle="0" arptime_syncmode="0" arptime_numerator="4" arpgate="100" arptime="200" arpskip="0" arpmiss="0" arp="0" arptime_denominator="4" arp-enabled="0" arpdir="0"/>
          <midiport inputcontroller="0" outputcontroller="0" readable="0" outputchannel="1" fixedoutputvelocity="-1" outputprogram="1" fixedinputvelocity="-1" fixedoutputnote="-1" inputchannel="0" basevelocity="127" writable="0"/>
          <fxchain enabled="1" numofeffects="0"/>
        </instrumenttrack>
        <pattern steps="16" muted="0" pos="384" name="" type="1">
          <note pan="0" key="44" len="384" vol="191" pos="0"/>
          <note pan="0" key="37" len="384" vol="191" pos="0"/>
          <note pan="0" key="0" len="48" vol="191" pos="0"/>
          <note pan="0" key="51" len="384" vol="193" pos="384"/>
          <note pan="0" key="44" len="384" vol="193" pos="384"/>
          <note pan="0" key="46" len="384" vol="193" pos="768"/>
          <note pan="0" key="39" len="384" vol="193" pos="768"/>
          <note pan="0" key="45" len="336" vol="193" pos="1152"/>
          <note pan="0" key="38" len="336" vol="193" pos="1152"/>
          <note pan="0" key="1" len="12" vol="193" pos="1476"/>
          <note pan="0" key="38" len="12" vol="193" pos="1488"/>
          <note pan="0" key="38" len="12" vol="193" pos="1500"/>
          <note pan="0" key="38" len="12" vol="193" pos="1512"/>
          <note pan="0" key="38" len="12" vol="193" pos="1524"/>
        </pattern>
        <pattern steps="16" muted="0" pos="1920" name="" type="1">
          <note pan="0" key="44" len="36" vol="78" pos="0"/>
          <note pan="0" key="37" len="36" vol="78" pos="0"/>
          <note pan="0" key="1" len="24" vol="78" pos="0"/>
          <note pan="0" key="44" len="36" vol="78" pos="72"/>
          <note pan="0" key="37" len="36" vol="78" pos="72"/>
          <note pan="0" key="44" len="36" vol="78" pos="144"/>
          <note pan="0" key="37" len="36" vol="78" pos="144"/>
          <note pan="0" key="44" len="36" vol="78" pos="216"/>
          <note pan="0" key="37" len="36" vol="78" pos="216"/>
          <note pan="0" key="44" len="24" vol="78" pos="288"/>
          <note pan="0" key="37" len="24" vol="78" pos="288"/>
          <note pan="0" key="0" len="24" vol="78" pos="300"/>
          <note pan="0" key="44" len="48" vol="78" pos="312"/>
          <note pan="0" key="37" len="48" vol="78" pos="312"/>
          <note pan="0" key="1" len="24" vol="78" pos="336"/>
          <note pan="0" key="44" len="24" vol="78" pos="360"/>
          <note pan="0" key="37" len="24" vol="78" pos="360"/>
          <note pan="0" key="51" len="36" vol="78" pos="384"/>
          <note pan="0" key="44" len="36" vol="78" pos="384"/>
          <note pan="0" key="51" len="36" vol="78" pos="456"/>
          <note pan="0" key="44" len="36" vol="78" pos="456"/>
          <note pan="0" key="51" len="36" vol="78" pos="528"/>
          <note pan="0" key="44" len="36" vol="78" pos="528"/>
          <note pan="0" key="51" len="36" vol="78" pos="600"/>
          <note pan="0" key="44" len="36" vol="78" pos="600"/>
          <note pan="0" key="51" len="24" vol="78" pos="672"/>
          <note pan="0" key="44" len="24" vol="78" pos="672"/>
          <note pan="0" key="0" len="24" vol="78" pos="684"/>
          <note pan="0" key="51" len="48" vol="78" pos="696"/>
          <note pan="0" key="44" len="48" vol="78" pos="696"/>
          <note pan="0" key="1" len="24" vol="78" pos="720"/>
          <note pan="0" key="51" len="24" vol="78" pos="744"/>
          <note pan="0" key="44" len="24" vol="78" pos="744"/>
          <note pan="0" key="46" len="36" vol="78" pos="768"/>
          <note pan="0" key="39" len="36" vol="78" pos="768"/>
          <note pan="0" key="46" len="36" vol="78" pos="840"/>
          <note pan="0" key="39" len="36" vol="78" pos="840"/>
          <note pan="0" key="46" len="36" vol="78" pos="912"/>
          <note pan="0" key="39" len="36" vol="78" pos="912"/>
          <note pan="0" key="46" len="36" vol="78" pos="984"/>
          <note pan="0" key="39" len="36" vol="78" pos="984"/>
          <note pan="0" key="46" len="24" vol="78" pos="1056"/>
          <note pan="0" key="39" len="24" vol="78" pos="1056"/>
          <note pan="0" key="0" len="24" vol="78" pos="1068"/>
          <note pan="0" key="46" len="48" vol="78" pos="1080"/>
          <note pan="0" key="39" len="48" vol="78" pos="1080"/>
          <note pan="0" key="1" len="24" vol="78" pos="1116"/>
          <note pan="0" key="46" len="24" vol="78" pos="1128"/>
          <note pan="0" key="39" len="24" vol="78" pos="1128"/>
          <note pan="0" key="0" len="12" vol="78" pos="1140"/>
          <note pan="0" key="45" len="24" vol="78" pos="1152"/>
          <note pan="0" key="38" len="24" vol="78" pos="1152"/>
          <note pan="0" key="0" len="12" vol="78" pos="1164"/>
          <note pan="0" key="38" len="12" vol="78" pos="1176"/>
          <note pan="0" key="38" len="12" vol="78" pos="1188"/>
          <note pan="0" key="38" len="12" vol="78" pos="1200"/>
          <note pan="0" key="38" len="12" vol="78" pos="1212"/>
          <note pan="0" key="45" len="24" vol="78" pos="1224"/>
          <note pan="0" key="38" len="24" vol="78" pos="1224"/>
          <note pan="0" key="0" len="12" vol="78" pos="1224"/>
          <note pan="0" key="1" len="12" vol="78" pos="1236"/>
          <note pan="0" key="38" len="12" vol="78" pos="1248"/>
          <note pan="0" key="38" len="12" vol="78" pos="1260"/>
          <note pan="0" key="38" len="12" vol="78" pos="1272"/>
          <note pan="0" key="38" len="12" vol="78" pos="1284"/>
          <note pan="0" key="45" len="24" vol="78" pos="1296"/>
          <note pan="0" key="38" len="24" vol="78" pos="1296"/>
          <note pan="0" key="0" len="12" vol="78" pos="1296"/>
          <note pan="0" key="1" len="12" vol="78" pos="1308"/>
          <note pan="0" key="38" len="12" vol="78" pos="1320"/>
          <note pan="0" key="38" len="12" vol="78" pos="1332"/>
          <note pan="0" key="45" len="192" vol="78" pos="1344"/>
          <note pan="0" key="38" len="192" vol="78" pos="1344"/>
          <note pan="0" key="0" len="12" vol="78" pos="1344"/>
        </pattern>
        <pattern steps="16" muted="0" pos="3456" name="" type="1">
          <note pan="0" key="44" len="192" vol="197" pos="0"/>
          <note pan="0" key="37" len="192" vol="197" pos="0"/>
          <note pan="0" key="0" len="48" vol="78" pos="0"/>
          <note pan="0" key="51" len="192" vol="197" pos="192"/>
          <note pan="0" key="44" len="192" vol="197" pos="192"/>
          <note pan="0" key="52" len="192" vol="197" pos="384"/>
          <note pan="0" key="45" len="192" vol="197" pos="384"/>
          <note pan="0" key="54" len="192" vol="197" pos="576"/>
          <note pan="0" key="47" len="192" vol="197" pos="576"/>
          <note pan="0" key="1" len="12" vol="197" pos="756"/>
          <note pan="0" key="42" len="12" vol="197" pos="768"/>
          <note pan="0" key="42" len="12" vol="197" pos="780"/>
          <note pan="0" key="42" len="12" vol="197" pos="792"/>
          <note pan="0" key="42" len="12" vol="197" pos="804"/>
          <note pan="0" key="42" len="12" vol="197" pos="816"/>
          <note pan="0" key="42" len="12" vol="197" pos="828"/>
          <note pan="0" key="42" len="12" vol="197" pos="840"/>
          <note pan="0" key="42" len="12" vol="197" pos="852"/>
          <note pan="0" key="42" len="12" vol="197" pos="864"/>
          <note pan="0" key="42" len="12" vol="197" pos="876"/>
          <note pan="0" key="42" len="12" vol="197" pos="888"/>
          <note pan="0" key="42" len="12" vol="197" pos="900"/>
          <note pan="0" key="42" len="12" vol="197" pos="912"/>
          <note pan="0" key="42" len="12" vol="197" pos="924"/>
          <note pan="0" key="42" len="12" vol="197" pos="936"/>
          <note pan="0" key="42" len="12" vol="197" pos="948"/>
          <note pan="0" key="44" len="12" vol="197" pos="960"/>
          <note pan="0" key="44" len="12" vol="197" pos="972"/>
          <note pan="0" key="44" len="12" vol="197" pos="984"/>
          <note pan="0" key="44" len="12" vol="197" pos="996"/>
          <note pan="0" key="44" len="12" vol="197" pos="1008"/>
          <note pan="0" key="44" len="12" vol="197" pos="1020"/>
          <note pan="0" key="44" len="12" vol="197" pos="1032"/>
          <note pan="0" key="44" len="12" vol="197" pos="1044"/>
          <note pan="0" key="44" len="12" vol="197" pos="1056"/>
          <note pan="0" key="44" len="12" vol="197" pos="1068"/>
          <note pan="0" key="44" len="12" vol="197" pos="1080"/>
          <note pan="0" key="44" len="12" vol="197" pos="1092"/>
          <note pan="0" key="44" len="12" vol="197" pos="1104"/>
          <note pan="0" key="44" len="12" vol="197" pos="1116"/>
          <note pan="0" key="44" len="12" vol="197" pos="1128"/>
          <note pan="0" key="44" len="12" vol="197" pos="1140"/>
          <note pan="0" key="45" len="12" vol="197" pos="1152"/>
          <note pan="0" key="45" len="12" vol="197" pos="1164"/>
          <note pan="0" key="45" len="12" vol="197" pos="1176"/>
          <note pan="0" key="45" len="12" vol="197" pos="1188"/>
          <note pan="0" key="45" len="12" vol="197" pos="1200"/>
          <note pan="0" key="45" len="12" vol="197" pos="1212"/>
          <note pan="0" key="45" len="12" vol="197" pos="1224"/>
          <note pan="0" key="45" len="12" vol="197" pos="1236"/>
          <note pan="0" key="45" len="12" vol="197" pos="1248"/>
          <note pan="0" key="45" len="12" vol="197" pos="1260"/>
          <note pan="0" key="45" len="12" vol="197" pos="1272"/>
          <note pan="0" key="45" len="12" vol="197" pos="1284"/>
          <note pan="0" key="45" len="12" vol="197" pos="1296"/>
          <note pan="0" key="45" len="12" vol="197" pos="1308"/>
          <note pan="0" key="45" len="12" vol="197" pos="1320"/>
          <note pan="0" key="45" len="12" vol="197" pos="1332"/>
          <note pan="0" key="54" len="48" vol="197" pos="1344"/>
          <note pan="0" key="47" len="48" vol="197" pos="1344"/>
          <note pan="0" key="0" len="12" vol="197" pos="1344"/>
          <note pan="0" key="54" len="48" vol="197" pos="1392"/>
          <note pan="0" key="47" len="48" vol="197" pos="1392"/>
          <note pan="0" key="51" len="48" vol="197" pos="1440"/>
          <note pan="0" key="44" len="48" vol="197" pos="1440"/>
          <note pan="0" key="54" len="48" vol="197" pos="1488"/>
          <note pan="0" key="47" len="48" vol="197" pos="1488"/>
        </pattern>
        <pattern steps="16" muted="0" pos="4992" name="" type="1">
          <note pan="0" key="49" len="24" vol="197" pos="0"/>
          <note pan="0" key="0" len="12" vol="197" pos="0"/>
          <note pan="0" key="47" len="24" vol="197" pos="24"/>
          <note pan="0" key="49" len="24" vol="197" pos="48"/>
          <note pan="0" key="56" len="24" vol="197" pos="72"/>
          <note pan="0" key="1" len="12" vol="197" pos="84"/>
          <note pan="0" key="49" len="12" vol="197" pos="96"/>
          <note pan="0" key="49" len="12" vol="197" pos="108"/>
          <note pan="0" key="49" len="12" vol="197" pos="120"/>
          <note pan="0" key="49" len="12" vol="197" pos="132"/>
          <note pan="0" key="49" len="12" vol="197" pos="144"/>
          <note pan="0" key="49" len="12" vol="197" pos="156"/>
          <note pan="0" key="49" len="12" vol="197" pos="168"/>
          <note pan="0" key="49" len="12" vol="197" pos="180"/>
        </pattern>
        <pattern steps="16" muted="0" pos="5184" name="" type="1">
          <note pan="0" key="42" len="24" vol="197" pos="0"/>
          <note pan="0" key="0" len="12" vol="197" pos="0"/>
          <note pan="0" key="40" len="24" vol="197" pos="24"/>
          <note pan="0" key="42" len="24" vol="197" pos="48"/>
          <note pan="0" key="49" len="24" vol="197" pos="72"/>
          <note pan="0" key="1" len="12" vol="197" pos="84"/>
          <note pan="0" key="42" len="12" vol="197" pos="96"/>
          <note pan="0" key="42" len="12" vol="197" pos="108"/>
          <note pan="0" key="42" len="12" vol="197" pos="120"/>
          <note pan="0" key="42" len="12" vol="197" pos="132"/>
          <note pan="0" key="42" len="12" vol="197" pos="144"/>
          <note pan="0" key="42" len="12" vol="197" pos="156"/>
          <note pan="0" key="42" len="12" vol="197" pos="168"/>
          <note pan="0" key="42" len="12" vol="197" pos="180"/>
        </pattern>
        <pattern steps="16" muted="0" pos="5376" name="" type="1">
          <note pan="0" key="44" len="24" vol="78" pos="0"/>
          <note pan="0" key="1" len="24" vol="78" pos="0"/>
          <note pan="0" key="47" len="24" vol="78" pos="24"/>
          <note pan="0" key="44" len="24" vol="78" pos="48"/>
          <note pan="0" key="0" len="24" vol="78" pos="60"/>
          <note pan="0" key="51" len="48" vol="78" pos="72"/>
          <note pan="0" key="1" len="24" vol="78" pos="108"/>
          <note pan="0" key="44" len="24" vol="78" pos="120"/>
          <note pan="0" key="47" len="24" vol="78" pos="144"/>
          <note pan="0" key="51" len="24" vol="78" pos="168"/>
          <note pan="0" key="45" len="12" vol="78" pos="192"/>
          <note pan="0" key="45" len="12" vol="78" pos="204"/>
          <note pan="0" key="45" len="12" vol="78" pos="216"/>
          <note pan="0" key="45" len="12" vol="78" pos="228"/>
          <note pan="0" key="45" len="12" vol="78" pos="240"/>
          <note pan="0" key="45" len="12" vol="78" pos="252"/>
          <note pan="0" key="49" len="12" vol="78" pos="264"/>
          <note pan="0" key="49" len="12" vol="78" pos="276"/>
          <note pan="0" key="47" len="12" vol="78" pos="288"/>
          <note pan="0" key="47" len="12" vol="78" pos="300"/>
          <note pan="0" key="47" len="12" vol="78" pos="312"/>
          <note pan="0" key="47" len="12" vol="78" pos="324"/>
          <note pan="0" key="51" len="12" vol="78" pos="336"/>
          <note pan="0" key="51" len="12" vol="78" pos="348"/>
          <note pan="0" key="47" len="12" vol="78" pos="360"/>
          <note pan="0" key="47" len="12" vol="78" pos="372"/>
        </pattern>
        <pattern steps="16" muted="0" pos="5760" name="" type="1">
          <note pan="0" key="49" len="24" vol="197" pos="0"/>
          <note pan="0" key="0" len="12" vol="197" pos="0"/>
          <note pan="0" key="47" len="24" vol="197" pos="24"/>
          <note pan="0" key="49" len="24" vol="197" pos="48"/>
          <note pan="0" key="56" len="24" vol="197" pos="72"/>
          <note pan="0" key="1" len="12" vol="197" pos="84"/>
          <note pan="0" key="49" len="12" vol="197" pos="96"/>
          <note pan="0" key="49" len="12" vol="197" pos="108"/>
          <note pan="0" key="49" len="12" vol="197" pos="120"/>
          <note pan="0" key="49" len="12" vol="197" pos="132"/>
          <note pan="0" key="49" len="12" vol="197" pos="144"/>
          <note pan="0" key="49" len="12" vol="197" pos="156"/>
          <note pan="0" key="49" len="12" vol="197" pos="168"/>
          <note pan="0" key="49" len="12" vol="197" pos="180"/>
        </pattern>
        <pattern steps="16" muted="0" pos="5952" name="" type="1">
          <note pan="0" key="42" len="24" vol="197" pos="0"/>
          <note pan="0" key="0" len="12" vol="197" pos="0"/>
          <note pan="0" key="40" len="24" vol="197" pos="24"/>
          <note pan="0" key="42" len="24" vol="197" pos="48"/>
          <note pan="0" key="49" len="24" vol="197" pos="72"/>
          <note pan="0" key="1" len="12" vol="197" pos="84"/>
          <note pan="0" key="42" len="12" vol="197" pos="96"/>
          <note pan="0" key="42" len="12" vol="197" pos="108"/>
          <note pan="0" key="42" len="12" vol="197" pos="120"/>
          <note pan="0" key="42" len="12" vol="197" pos="132"/>
          <note pan="0" key="42" len="12" vol="197" pos="144"/>
          <note pan="0" key="42" len="12" vol="197" pos="156"/>
          <note pan="0" key="42" len="12" vol="197" pos="168"/>
          <note pan="0" key="42" len="12" vol="197" pos="180"/>
        </pattern>
        <pattern steps="16" muted="0" pos="6144" name="" type="1">
          <note pan="0" key="44" len="24" vol="78" pos="0"/>
          <note pan="0" key="1" len="24" vol="78" pos="0"/>
          <note pan="0" key="47" len="24" vol="78" pos="24"/>
          <note pan="0" key="44" len="24" vol="78" pos="48"/>
          <note pan="0" key="0" len="24" vol="78" pos="60"/>
          <note pan="0" key="51" len="48" vol="78" pos="72"/>
          <note pan="0" key="1" len="24" vol="78" pos="108"/>
          <note pan="0" key="44" len="24" vol="78" pos="120"/>
          <note pan="0" key="47" len="24" vol="78" pos="144"/>
          <note pan="0" key="51" len="24" vol="78" pos="168"/>
          <note pan="0" key="45" len="12" vol="78" pos="192"/>
          <note pan="0" key="45" len="12" vol="78" pos="204"/>
          <note pan="0" key="45" len="12" vol="78" pos="216"/>
          <note pan="0" key="45" len="12" vol="78" pos="228"/>
          <note pan="0" key="45" len="12" vol="78" pos="240"/>
          <note pan="0" key="45" len="12" vol="78" pos="252"/>
          <note pan="0" key="49" len="12" vol="78" pos="264"/>
          <note pan="0" key="49" len="12" vol="78" pos="276"/>
          <note pan="0" key="47" len="12" vol="78" pos="288"/>
          <note pan="0" key="47" len="12" vol="78" pos="300"/>
          <note pan="0" key="47" len="12" vol="78" pos="312"/>
          <note pan="0" key="47" len="12" vol="78" pos="324"/>
          <note pan="0" key="51" len="12" vol="78" pos="336"/>
          <note pan="0" key="51" len="12" vol="78" pos="348"/>
          <note pan="0" key="47" len="12" vol="78" pos="360"/>
          <note pan="0" key="47" len="12" vol="78" pos="372"/>
        </pattern>
        <pattern steps="16" muted="0" pos="6528" name="" type="1">
          <note pan="0" key="42" len="48" vol="197" pos="0"/>
          <note pan="0" key="35" len="48" vol="197" pos="0"/>
          <note pan="0" key="0" len="48" vol="78" pos="0"/>
          <note pan="0" key="1" len="24" vol="78" pos="36"/>
          <note pan="0" key="35" len="12" vol="197" pos="48"/>
          <note pan="0" key="35" len="12" vol="197" pos="60"/>
          <note pan="0" key="35" len="24" vol="197" pos="72"/>
          <note pan="0" key="35" len="12" vol="197" pos="96"/>
          <note pan="0" key="35" len="12" vol="197" pos="108"/>
          <note pan="0" key="35" len="24" vol="197" pos="120"/>
          <note pan="0" key="35" len="12" vol="197" pos="144"/>
          <note pan="0" key="35" len="12" vol="197" pos="156"/>
          <note pan="0" key="35" len="24" vol="197" pos="168"/>
          <note pan="0" key="0" len="48" vol="78" pos="180"/>
          <note pan="0" key="42" len="48" vol="197" pos="192"/>
          <note pan="0" key="35" len="48" vol="197" pos="192"/>
          <note pan="0" key="1" len="48" vol="78" pos="228"/>
          <note pan="0" key="35" len="12" vol="197" pos="240"/>
          <note pan="0" key="35" len="12" vol="197" pos="252"/>
          <note pan="0" key="35" len="24" vol="197" pos="264"/>
          <note pan="0" key="35" len="12" vol="197" pos="288"/>
          <note pan="0" key="35" len="12" vol="197" pos="300"/>
          <note pan="0" key="35" len="24" vol="197" pos="312"/>
          <note pan="0" key="35" len="12" vol="197" pos="336"/>
          <note pan="0" key="35" len="12" vol="197" pos="348"/>
          <note pan="0" key="35" len="24" vol="197" pos="360"/>
          <note pan="0" key="0" len="48" vol="78" pos="372"/>
          <note pan="0" key="52" len="48" vol="197" pos="384"/>
          <note pan="0" key="45" len="48" vol="197" pos="384"/>
          <note pan="0" key="1" len="48" vol="78" pos="408"/>
          <note pan="0" key="45" len="12" vol="197" pos="432"/>
          <note pan="0" key="45" len="12" vol="197" pos="444"/>
          <note pan="0" key="45" len="24" vol="197" pos="456"/>
          <note pan="0" key="45" len="12" vol="197" pos="480"/>
          <note pan="0" key="45" len="12" vol="197" pos="492"/>
          <note pan="0" key="45" len="24" vol="197" pos="504"/>
          <note pan="0" key="45" len="12" vol="197" pos="528"/>
          <note pan="0" key="45" len="12" vol="197" pos="540"/>
          <note pan="0" key="45" len="24" vol="197" pos="552"/>
          <note pan="0" key="0" len="48" vol="78" pos="564"/>
          <note pan="0" key="51" len="48" vol="197" pos="576"/>
          <note pan="0" key="44" len="48" vol="197" pos="576"/>
          <note pan="0" key="1" len="48" vol="78" pos="612"/>
          <note pan="0" key="44" len="12" vol="197" pos="624"/>
          <note pan="0" key="44" len="12" vol="197" pos="636"/>
          <note pan="0" key="44" len="24" vol="197" pos="648"/>
          <note pan="0" key="44" len="12" vol="197" pos="672"/>
          <note pan="0" key="44" len="12" vol="197" pos="684"/>
          <note pan="0" key="44" len="12" vol="197" pos="696"/>
          <note pan="0" key="44" len="12" vol="197" pos="708"/>
          <note pan="0" key="44" len="12" vol="197" pos="720"/>
          <note pan="0" key="44" len="12" vol="197" pos="732"/>
          <note pan="0" key="44" len="24" vol="197" pos="744"/>
        </pattern>
        <pattern steps="16" muted="0" pos="8064" name="" type="1">
          <note pan="0" key="44" len="48" vol="195" pos="0"/>
          <note pan="0" key="37" len="48" vol="195" pos="0"/>
          <note pan="0" key="0" len="36" vol="195" pos="0"/>
          <note pan="0" key="1" len="36" vol="195" pos="36"/>
          <note pan="0" key="37" len="12" vol="195" pos="48"/>
          <note pan="0" key="37" len="12" vol="195" pos="60"/>
          <note pan="0" key="37" len="12" vol="195" pos="72"/>
          <note pan="0" key="37" len="12" vol="195" pos="84"/>
          <note pan="0" key="37" len="12" vol="195" pos="96"/>
          <note pan="0" key="37" len="12" vol="195" pos="108"/>
          <note pan="0" key="37" len="12" vol="195" pos="120"/>
          <note pan="0" key="37" len="12" vol="195" pos="132"/>
          <note pan="0" key="37" len="12" vol="195" pos="144"/>
          <note pan="0" key="37" len="12" vol="195" pos="156"/>
          <note pan="0" key="37" len="12" vol="195" pos="168"/>
          <note pan="0" key="37" len="12" vol="195" pos="180"/>
          <note pan="0" key="0" len="36" vol="195" pos="180"/>
          <note pan="0" key="51" len="48" vol="195" pos="192"/>
          <note pan="0" key="44" len="48" vol="195" pos="192"/>
          <note pan="0" key="1" len="36" vol="195" pos="216"/>
          <note pan="0" key="44" len="12" vol="195" pos="240"/>
          <note pan="0" key="44" len="12" vol="195" pos="252"/>
          <note pan="0" key="44" len="12" vol="195" pos="264"/>
          <note pan="0" key="44" len="12" vol="195" pos="276"/>
          <note pan="0" key="44" len="12" vol="195" pos="288"/>
          <note pan="0" key="44" len="12" vol="195" pos="300"/>
          <note pan="0" key="44" len="12" vol="195" pos="312"/>
          <note pan="0" key="44" len="12" vol="195" pos="324"/>
          <note pan="0" key="44" len="12" vol="195" pos="336"/>
          <note pan="0" key="44" len="12" vol="195" pos="348"/>
          <note pan="0" key="44" len="12" vol="195" pos="360"/>
          <note pan="0" key="44" len="12" vol="195" pos="372"/>
          <note pan="0" key="0" len="36" vol="195" pos="372"/>
          <note pan="0" key="52" len="48" vol="195" pos="384"/>
          <note pan="0" key="45" len="48" vol="195" pos="384"/>
          <note pan="0" key="1" len="36" vol="195" pos="408"/>
          <note pan="0" key="45" len="12" vol="195" pos="432"/>
          <note pan="0" key="45" len="12" vol="195" pos="444"/>
          <note pan="0" key="45" len="12" vol="195" pos="456"/>
          <note pan="0" key="45" len="12" vol="195" pos="468"/>
          <note pan="0" key="45" len="12" vol="195" pos="480"/>
          <note pan="0" key="45" len="12" vol="195" pos="492"/>
          <note pan="0" key="45" len="12" vol="195" pos="504"/>
          <note pan="0" key="45" len="12" vol="195" pos="516"/>
          <note pan="0" key="45" len="12" vol="195" pos="528"/>
          <note pan="0" key="45" len="12" vol="195" pos="540"/>
          <note pan="0" key="45" len="12" vol="195" pos="552"/>
          <note pan="0" key="45" len="12" vol="195" pos="564"/>
          <note pan="0" key="0" len="36" vol="195" pos="564"/>
          <note pan="0" key="54" len="48" vol="195" pos="576"/>
          <note pan="0" key="47" len="48" vol="195" pos="576"/>
          <note pan="0" key="1" len="36" vol="195" pos="600"/>
          <note pan="0" key="47" len="12" vol="195" pos="624"/>
          <note pan="0" key="47" len="12" vol="195" pos="636"/>
          <note pan="0" key="47" len="12" vol="195" pos="648"/>
          <note pan="0" key="47" len="12" vol="195" pos="660"/>
          <note pan="0" key="47" len="12" vol="195" pos="672"/>
          <note pan="0" key="47" len="12" vol="195" pos="684"/>
          <note pan="0" key="47" len="12" vol="195" pos="696"/>
          <note pan="0" key="47" len="12" vol="195" pos="708"/>
          <note pan="0" key="47" len="12" vol="195" pos="720"/>
          <note pan="0" key="47" len="12" vol="195" pos="732"/>
          <note pan="0" key="47" len="12" vol="195" pos="744"/>
          <note pan="0" key="47" len="12" vol="195" pos="756"/>
          <note pan="0" key="49" len="48" vol="195" pos="768"/>
          <note pan="0" key="42" len="48" vol="195" pos="768"/>
          <note pan="0" key="0" len="36" vol="195" pos="768"/>
          <note pan="0" key="1" len="36" vol="195" pos="792"/>
          <note pan="0" key="42" len="12" vol="195" pos="816"/>
          <note pan="0" key="42" len="12" vol="195" pos="828"/>
          <note pan="0" key="42" len="12" vol="195" pos="840"/>
          <note pan="0" key="42" len="12" vol="195" pos="852"/>
          <note pan="0" key="42" len="12" vol="195" pos="864"/>
          <note pan="0" key="42" len="12" vol="195" pos="876"/>
          <note pan="0" key="42" len="12" vol="195" pos="888"/>
          <note pan="0" key="42" len="12" vol="195" pos="900"/>
          <note pan="0" key="42" len="12" vol="195" pos="912"/>
          <note pan="0" key="42" len="12" vol="195" pos="924"/>
          <note pan="0" key="42" len="12" vol="195" pos="936"/>
          <note pan="0" key="42" len="12" vol="195" pos="948"/>
          <note pan="0" key="0" len="36" vol="195" pos="948"/>
          <note pan="0" key="51" len="48" vol="195" pos="960"/>
          <note pan="0" key="44" len="48" vol="195" pos="960"/>
          <note pan="0" key="1" len="36" vol="195" pos="984"/>
          <note pan="0" key="44" len="12" vol="195" pos="1008"/>
          <note pan="0" key="44" len="12" vol="195" pos="1020"/>
          <note pan="0" key="44" len="12" vol="195" pos="1032"/>
          <note pan="0" key="44" len="12" vol="195" pos="1044"/>
          <note pan="0" key="44" len="12" vol="195" pos="1056"/>
          <note pan="0" key="44" len="12" vol="195" pos="1068"/>
          <note pan="0" key="44" len="12" vol="195" pos="1080"/>
          <note pan="0" key="44" len="12" vol="195" pos="1092"/>
          <note pan="0" key="44" len="12" vol="195" pos="1104"/>
          <note pan="0" key="44" len="12" vol="195" pos="1116"/>
          <note pan="0" key="44" len="12" vol="195" pos="1128"/>
          <note pan="0" key="44" len="12" vol="195" pos="1140"/>
          <note pan="0" key="0" len="36" vol="195" pos="1140"/>
          <note pan="0" key="52" len="48" vol="195" pos="1152"/>
          <note pan="0" key="45" len="48" vol="195" pos="1152"/>
          <note pan="0" key="1" len="36" vol="195" pos="1176"/>
          <note pan="0" key="45" len="12" vol="195" pos="1200"/>
          <note pan="0" key="45" len="12" vol="195" pos="1212"/>
          <note pan="0" key="45" len="12" vol="195" pos="1224"/>
          <note pan="0" key="45" len="12" vol="195" pos="1236"/>
          <note pan="0" key="45" len="12" vol="195" pos="1248"/>
          <note pan="0" key="45" len="12" vol="195" pos="1260"/>
          <note pan="0" key="45" len="12" vol="195" pos="1272"/>
          <note pan="0" key="45" len="12" vol="195" pos="1284"/>
          <note pan="0" key="45" len="12" vol="195" pos="1296"/>
          <note pan="0" key="45" len="12" vol="195" pos="1308"/>
          <note pan="0" key="45" len="12" vol="195" pos="1320"/>
          <note pan="0" key="45" len="12" vol="195" pos="1332"/>
          <note pan="0" key="0" len="36" vol="195" pos="1332"/>
          <note pan="0" key="54" len="48" vol="195" pos="1344"/>
          <note pan="0" key="47" len="48" vol="195" pos="1344"/>
          <note pan="0" key="1" len="36" vol="195" pos="1368"/>
          <note pan="0" key="47" len="12" vol="195" pos="1392"/>
          <note pan="0" key="47" len="12" vol="195" pos="1404"/>
          <note pan="0" key="47" len="12" vol="195" pos="1416"/>
          <note pan="0" key="47" len="12" vol="195" pos="1428"/>
          <note pan="0" key="48" len="12" vol="195" pos="1440"/>
          <note pan="0" key="48" len="12" vol="195" pos="1452"/>
          <note pan="0" key="48" len="12" vol="195" pos="1464"/>
          <note pan="0" key="1" len="36" vol="195" pos="1464"/>
          <note pan="0" key="48" len="12" vol="195" pos="1476"/>
          <note pan="0" key="48" len="12" vol="195" pos="1488"/>
          <note pan="0" key="48" len="12" vol="195" pos="1500"/>
          <note pan="0" key="48" len="12" vol="195" pos="1512"/>
          <note pan="0" key="48" len="12" vol="195" pos="1524"/>
          <note pan="0" key="0" len="36" vol="195" pos="1524"/>
          <note pan="0" key="44" len="48" vol="195" pos="1536"/>
          <note pan="0" key="37" len="48" vol="195" pos="1536"/>
          <note pan="0" key="1" len="36" vol="195" pos="1560"/>
          <note pan="0" key="37" len="12" vol="195" pos="1584"/>
          <note pan="0" key="37" len="12" vol="195" pos="1596"/>
          <note pan="0" key="37" len="12" vol="195" pos="1608"/>
          <note pan="0" key="37" len="12" vol="195" pos="1620"/>
          <note pan="0" key="37" len="12" vol="195" pos="1632"/>
          <note pan="0" key="37" len="12" vol="195" pos="1644"/>
          <note pan="0" key="37" len="12" vol="195" pos="1656"/>
          <note pan="0" key="37" len="12" vol="195" pos="1668"/>
          <note pan="0" key="37" len="12" vol="195" pos="1680"/>
          <note pan="0" key="37" len="12" vol="195" pos="1692"/>
          <note pan="0" key="37" len="12" vol="195" pos="1704"/>
          <note pan="0" key="37" len="12" vol="195" pos="1716"/>
          <note pan="0" key="0" len="36" vol="195" pos="1716"/>
          <note pan="0" key="54" len="48" vol="195" pos="1728"/>
          <note pan="0" key="47" len="48" vol="195" pos="1728"/>
          <note pan="0" key="1" len="36" vol="195" pos="1752"/>
          <note pan="0" key="47" len="12" vol="195" pos="1776"/>
          <note pan="0" key="47" len="12" vol="195" pos="1788"/>
          <note pan="0" key="47" len="12" vol="195" pos="1800"/>
          <note pan="0" key="47" len="12" vol="195" pos="1812"/>
          <note pan="0" key="47" len="12" vol="195" pos="1824"/>
          <note pan="0" key="47" len="12" vol="195" pos="1836"/>
          <note pan="0" key="47" len="12" vol="195" pos="1848"/>
          <note pan="0" key="47" len="12" vol="195" pos="1860"/>
          <note pan="0" key="47" len="12" vol="195" pos="1872"/>
          <note pan="0" key="47" len="12" vol="195" pos="1884"/>
          <note pan="0" key="47" len="12" vol="195" pos="1896"/>
          <note pan="0" key="47" len="12" vol="195" pos="1908"/>
          <note pan="0" key="0" len="36" vol="195" pos="1908"/>
          <note pan="0" key="54" len="48" vol="195" pos="1920"/>
          <note pan="0" key="46" len="48" vol="195" pos="1920"/>
          <note pan="0" key="1" len="36" vol="195" pos="1944"/>
          <note pan="0" key="46" len="12" vol="195" pos="1968"/>
          <note pan="0" key="46" len="12" vol="195" pos="1980"/>
          <note pan="0" key="46" len="12" vol="195" pos="1992"/>
          <note pan="0" key="46" len="12" vol="195" pos="2004"/>
          <note pan="0" key="46" len="12" vol="195" pos="2016"/>
          <note pan="0" key="46" len="12" vol="195" pos="2028"/>
          <note pan="0" key="46" len="12" vol="195" pos="2040"/>
          <note pan="0" key="46" len="12" vol="195" pos="2052"/>
          <note pan="0" key="46" len="12" vol="195" pos="2064"/>
          <note pan="0" key="46" len="12" vol="195" pos="2076"/>
          <note pan="0" key="46" len="12" vol="195" pos="2088"/>
          <note pan="0" key="46" len="12" vol="195" pos="2100"/>
          <note pan="0" key="0" len="36" vol="195" pos="2100"/>
          <note pan="0" key="49" len="48" vol="195" pos="2112"/>
          <note pan="0" key="42" len="48" vol="195" pos="2112"/>
          <note pan="0" key="1" len="36" vol="195" pos="2136"/>
          <note pan="0" key="42" len="12" vol="195" pos="2160"/>
          <note pan="0" key="42" len="12" vol="195" pos="2172"/>
          <note pan="0" key="42" len="12" vol="195" pos="2184"/>
          <note pan="0" key="42" len="12" vol="195" pos="2196"/>
          <note pan="0" key="0" len="36" vol="195" pos="2196"/>
          <note pan="0" key="47" len="48" vol="195" pos="2208"/>
          <note pan="0" key="40" len="48" vol="195" pos="2208"/>
          <note pan="0" key="1" len="36" vol="195" pos="2232"/>
          <note pan="0" key="40" len="12" vol="195" pos="2256"/>
          <note pan="0" key="40" len="12" vol="195" pos="2268"/>
          <note pan="0" key="40" len="12" vol="195" pos="2280"/>
          <note pan="0" key="40" len="12" vol="195" pos="2292"/>
          <note pan="0" key="0" len="36" vol="195" pos="2292"/>
          <note pan="0" key="45" len="48" vol="195" pos="2304"/>
          <note pan="0" key="38" len="48" vol="195" pos="2304"/>
          <note pan="0" key="1" len="36" vol="195" pos="2328"/>
          <note pan="0" key="38" len="12" vol="195" pos="2352"/>
          <note pan="0" key="38" len="12" vol="195" pos="2364"/>
          <note pan="0" key="38" len="12" vol="195" pos="2376"/>
          <note pan="0" key="38" len="12" vol="195" pos="2388"/>
          <note pan="0" key="38" len="12" vol="195" pos="2400"/>
          <note pan="0" key="38" len="12" vol="195" pos="2412"/>
          <note pan="0" key="38" len="12" vol="195" pos="2424"/>
          <note pan="0" key="38" len="12" vol="195" pos="2436"/>
          <note pan="0" key="38" len="12" vol="195" pos="2448"/>
          <note pan="0" key="38" len="12" vol="195" pos="2460"/>
          <note pan="0" key="38" len="12" vol="195" pos="2472"/>
          <note pan="0" key="38" len="12" vol="195" pos="2484"/>
          <note pan="0" key="0" len="36" vol="195" pos="2484"/>
          <note pan="0" key="52" len="48" vol="195" pos="2496"/>
          <note pan="0" key="45" len="48" vol="195" pos="2496"/>
          <note pan="0" key="1" len="36" vol="195" pos="2520"/>
          <note pan="0" key="45" len="12" vol="195" pos="2544"/>
          <note pan="0" key="45" len="12" vol="195" pos="2556"/>
          <note pan="0" key="45" len="12" vol="195" pos="2568"/>
          <note pan="0" key="45" len="12" vol="195" pos="2580"/>
          <note pan="0" key="45" len="12" vol="195" pos="2592"/>
          <note pan="0" key="45" len="12" vol="195" pos="2604"/>
          <note pan="0" key="45" len="12" vol="195" pos="2616"/>
          <note pan="0" key="45" len="12" vol="195" pos="2628"/>
          <note pan="0" key="45" len="12" vol="195" pos="2640"/>
          <note pan="0" key="45" len="12" vol="195" pos="2652"/>
          <note pan="0" key="45" len="12" vol="195" pos="2664"/>
          <note pan="0" key="45" len="12" vol="195" pos="2676"/>
          <note pan="0" key="0" len="36" vol="195" pos="2676"/>
          <note pan="0" key="54" len="48" vol="195" pos="2688"/>
          <note pan="0" key="47" len="48" vol="195" pos="2688"/>
          <note pan="0" key="1" len="36" vol="195" pos="2712"/>
          <note pan="0" key="47" len="12" vol="195" pos="2736"/>
          <note pan="0" key="47" len="12" vol="195" pos="2748"/>
          <note pan="0" key="47" len="12" vol="195" pos="2760"/>
          <note pan="0" key="47" len="12" vol="195" pos="2772"/>
          <note pan="0" key="47" len="12" vol="195" pos="2784"/>
          <note pan="0" key="47" len="12" vol="195" pos="2796"/>
          <note pan="0" key="47" len="12" vol="195" pos="2808"/>
          <note pan="0" key="47" len="12" vol="195" pos="2820"/>
          <note pan="0" key="47" len="12" vol="195" pos="2832"/>
          <note pan="0" key="47" len="12" vol="195" pos="2844"/>
          <note pan="0" key="47" len="12" vol="195" pos="2856"/>
          <note pan="0" key="47" len="12" vol="195" pos="2868"/>
          <note pan="0" key="0" len="36" vol="195" pos="2868"/>
          <note pan="0" key="54" len="96" vol="195" pos="2880"/>
          <note pan="0" key="47" len="96" vol="195" pos="2880"/>
          <note pan="0" key="58" len="96" vol="195" pos="2976"/>
          <note pan="0" key="51" len="96" vol="195" pos="2976"/>
        </pattern>
        <pattern steps="16" muted="0" pos="11136" name="" type="1">
          <note pan="0" key="44" len="24" vol="197" pos="0"/>
          <note pan="0" key="37" len="24" vol="197" pos="0"/>
          <note pan="0" key="0" len="12" vol="197" pos="0"/>
          <note pan="0" key="1" len="12" vol="197" pos="12"/>
          <note pan="0" key="37" len="12" vol="197" pos="24"/>
          <note pan="0" key="37" len="12" vol="197" pos="36"/>
          <note pan="0" key="37" len="12" vol="197" pos="48"/>
          <note pan="0" key="37" len="12" vol="197" pos="60"/>
          <note pan="0" key="44" len="24" vol="197" pos="72"/>
          <note pan="0" key="37" len="24" vol="197" pos="72"/>
          <note pan="0" key="0" len="12" vol="197" pos="72"/>
          <note pan="0" key="1" len="12" vol="197" pos="84"/>
          <note pan="0" key="37" len="12" vol="197" pos="96"/>
          <note pan="0" key="37" len="12" vol="197" pos="108"/>
          <note pan="0" key="37" len="12" vol="197" pos="120"/>
          <note pan="0" key="37" len="12" vol="197" pos="132"/>
          <note pan="0" key="44" len="24" vol="197" pos="144"/>
          <note pan="0" key="37" len="24" vol="197" pos="144"/>
          <note pan="0" key="0" len="24" vol="197" pos="144"/>
          <note pan="0" key="1" len="24" vol="197" pos="156"/>
          <note pan="0" key="37" len="12" vol="197" pos="168"/>
          <note pan="0" key="37" len="12" vol="197" pos="180"/>
          <note pan="0" key="37" len="12" vol="197" pos="192"/>
          <note pan="0" key="37" len="12" vol="197" pos="204"/>
          <note pan="0" key="44" len="24" vol="197" pos="216"/>
          <note pan="0" key="37" len="24" vol="197" pos="216"/>
          <note pan="0" key="0" len="24" vol="197" pos="216"/>
          <note pan="0" key="1" len="24" vol="197" pos="228"/>
          <note pan="0" key="37" len="12" vol="197" pos="240"/>
          <note pan="0" key="37" len="12" vol="197" pos="252"/>
          <note pan="0" key="37" len="12" vol="197" pos="264"/>
          <note pan="0" key="37" len="12" vol="197" pos="276"/>
          <note pan="0" key="44" len="24" vol="197" pos="288"/>
          <note pan="0" key="37" len="24" vol="197" pos="288"/>
          <note pan="0" key="0" len="24" vol="197" pos="288"/>
          <note pan="0" key="1" len="24" vol="197" pos="300"/>
          <note pan="0" key="37" len="12" vol="197" pos="312"/>
          <note pan="0" key="37" len="12" vol="197" pos="324"/>
          <note pan="0" key="44" len="24" vol="197" pos="336"/>
          <note pan="0" key="37" len="24" vol="197" pos="336"/>
          <note pan="0" key="0" len="24" vol="197" pos="336"/>
          <note pan="0" key="1" len="24" vol="197" pos="348"/>
          <note pan="0" key="37" len="12" vol="197" pos="360"/>
          <note pan="0" key="37" len="12" vol="197" pos="372"/>
        </pattern>
        <pattern steps="16" muted="0" pos="11904" name="" type="1">
          <note pan="0" key="44" len="24" vol="197" pos="0"/>
          <note pan="0" key="37" len="24" vol="197" pos="0"/>
          <note pan="0" key="0" len="12" vol="197" pos="0"/>
          <note pan="0" key="1" len="12" vol="197" pos="12"/>
          <note pan="0" key="37" len="12" vol="197" pos="24"/>
          <note pan="0" key="37" len="12" vol="197" pos="36"/>
          <note pan="0" key="37" len="12" vol="197" pos="48"/>
          <note pan="0" key="37" len="12" vol="197" pos="60"/>
          <note pan="0" key="44" len="24" vol="197" pos="72"/>
          <note pan="0" key="37" len="24" vol="197" pos="72"/>
          <note pan="0" key="0" len="12" vol="197" pos="72"/>
          <note pan="0" key="1" len="12" vol="197" pos="84"/>
          <note pan="0" key="37" len="12" vol="197" pos="96"/>
          <note pan="0" key="37" len="12" vol="197" pos="108"/>
          <note pan="0" key="37" len="12" vol="197" pos="120"/>
          <note pan="0" key="37" len="12" vol="197" pos="132"/>
          <note pan="0" key="44" len="24" vol="197" pos="144"/>
          <note pan="0" key="37" len="24" vol="197" pos="144"/>
          <note pan="0" key="0" len="24" vol="197" pos="144"/>
          <note pan="0" key="1" len="24" vol="197" pos="156"/>
          <note pan="0" key="37" len="12" vol="197" pos="168"/>
          <note pan="0" key="37" len="12" vol="197" pos="180"/>
          <note pan="0" key="37" len="12" vol="197" pos="192"/>
          <note pan="0" key="37" len="12" vol="197" pos="204"/>
          <note pan="0" key="44" len="24" vol="197" pos="216"/>
          <note pan="0" key="37" len="24" vol="197" pos="216"/>
          <note pan="0" key="0" len="24" vol="197" pos="216"/>
          <note pan="0" key="1" len="24" vol="197" pos="228"/>
          <note pan="0" key="37" len="12" vol="197" pos="240"/>
          <note pan="0" key="37" len="12" vol="197" pos="252"/>
          <note pan="0" key="37" len="12" vol="197" pos="264"/>
          <note pan="0" key="37" len="12" vol="197" pos="276"/>
          <note pan="0" key="44" len="24" vol="197" pos="288"/>
          <note pan="0" key="37" len="24" vol="197" pos="288"/>
          <note pan="0" key="0" len="24" vol="197" pos="288"/>
          <note pan="0" key="1" len="24" vol="197" pos="300"/>
          <note pan="0" key="37" len="12" vol="197" pos="312"/>
          <note pan="0" key="37" len="12" vol="197" pos="324"/>
          <note pan="0" key="44" len="24" vol="197" pos="336"/>
          <note pan="0" key="37" len="24" vol="197" pos="336"/>
          <note pan="0" key="0" len="24" vol="197" pos="336"/>
          <note pan="0" key="1" len="24" vol="197" pos="348"/>
          <note pan="0" key="37" len="12" vol="197" pos="360"/>
          <note pan="0" key="37" len="12" vol="197" pos="372"/>
        </pattern>
        <pattern steps="16" muted="0" pos="11520" name="" type="1">
          <note pan="0" key="45" len="24" vol="197" pos="0"/>
          <note pan="0" key="38" len="24" vol="197" pos="0"/>
          <note pan="0" key="0" len="12" vol="197" pos="0"/>
          <note pan="0" key="1" len="12" vol="197" pos="12"/>
          <note pan="0" key="38" len="12" vol="197" pos="24"/>
          <note pan="0" key="38" len="12" vol="197" pos="36"/>
          <note pan="0" key="38" len="12" vol="197" pos="48"/>
          <note pan="0" key="38" len="12" vol="197" pos="60"/>
          <note pan="0" key="45" len="24" vol="197" pos="72"/>
          <note pan="0" key="38" len="24" vol="197" pos="72"/>
          <note pan="0" key="0" len="12" vol="197" pos="72"/>
          <note pan="0" key="1" len="12" vol="197" pos="84"/>
          <note pan="0" key="38" len="12" vol="197" pos="96"/>
          <note pan="0" key="38" len="12" vol="197" pos="108"/>
          <note pan="0" key="38" len="12" vol="197" pos="120"/>
          <note pan="0" key="38" len="12" vol="197" pos="132"/>
          <note pan="0" key="45" len="24" vol="197" pos="144"/>
          <note pan="0" key="38" len="24" vol="197" pos="144"/>
          <note pan="0" key="0" len="24" vol="197" pos="144"/>
          <note pan="0" key="1" len="24" vol="197" pos="156"/>
          <note pan="0" key="38" len="12" vol="197" pos="168"/>
          <note pan="0" key="38" len="12" vol="197" pos="180"/>
          <note pan="0" key="38" len="12" vol="197" pos="192"/>
          <note pan="0" key="38" len="12" vol="197" pos="204"/>
          <note pan="0" key="45" len="24" vol="197" pos="216"/>
          <note pan="0" key="38" len="24" vol="197" pos="216"/>
          <note pan="0" key="0" len="24" vol="197" pos="216"/>
          <note pan="0" key="1" len="24" vol="197" pos="228"/>
          <note pan="0" key="38" len="12" vol="197" pos="240"/>
          <note pan="0" key="38" len="12" vol="197" pos="252"/>
          <note pan="0" key="38" len="12" vol="197" pos="264"/>
          <note pan="0" key="38" len="12" vol="197" pos="276"/>
          <note pan="0" key="45" len="24" vol="197" pos="288"/>
          <note pan="0" key="38" len="24" vol="197" pos="288"/>
          <note pan="0" key="0" len="24" vol="197" pos="288"/>
          <note pan="0" key="1" len="24" vol="197" pos="300"/>
          <note pan="0" key="38" len="12" vol="197" pos="312"/>
          <note pan="0" key="38" len="12" vol="197" pos="324"/>
          <note pan="0" key="45" len="24" vol="197" pos="336"/>
          <note pan="0" key="38" len="24" vol="197" pos="336"/>
          <note pan="0" key="0" len="24" vol="197" pos="336"/>
          <note pan="0" key="1" len="24" vol="197" pos="348"/>
          <note pan="0" key="38" len="12" vol="197" pos="360"/>
          <note pan="0" key="38" len="12" vol="197" pos="372"/>
        </pattern>
        <pattern steps="16" muted="0" pos="12288" name="" type="1">
          <note pan="0" key="45" len="24" vol="197" pos="0"/>
          <note pan="0" key="38" len="24" vol="197" pos="0"/>
          <note pan="0" key="0" len="12" vol="197" pos="0"/>
          <note pan="0" key="1" len="12" vol="197" pos="12"/>
          <note pan="0" key="38" len="12" vol="197" pos="24"/>
          <note pan="0" key="38" len="12" vol="197" pos="36"/>
          <note pan="0" key="38" len="12" vol="197" pos="48"/>
          <note pan="0" key="38" len="12" vol="197" pos="60"/>
          <note pan="0" key="45" len="24" vol="197" pos="72"/>
          <note pan="0" key="38" len="24" vol="197" pos="72"/>
          <note pan="0" key="0" len="12" vol="197" pos="72"/>
          <note pan="0" key="1" len="12" vol="197" pos="84"/>
          <note pan="0" key="38" len="12" vol="197" pos="96"/>
          <note pan="0" key="38" len="12" vol="197" pos="108"/>
          <note pan="0" key="38" len="12" vol="197" pos="120"/>
          <note pan="0" key="38" len="12" vol="197" pos="132"/>
          <note pan="0" key="45" len="24" vol="197" pos="144"/>
          <note pan="0" key="38" len="24" vol="197" pos="144"/>
          <note pan="0" key="0" len="24" vol="197" pos="144"/>
          <note pan="0" key="1" len="24" vol="197" pos="156"/>
          <note pan="0" key="38" len="12" vol="197" pos="168"/>
          <note pan="0" key="38" len="12" vol="197" pos="180"/>
          <note pan="0" key="38" len="12" vol="197" pos="192"/>
          <note pan="0" key="38" len="12" vol="197" pos="204"/>
          <note pan="0" key="45" len="24" vol="197" pos="216"/>
          <note pan="0" key="38" len="24" vol="197" pos="216"/>
          <note pan="0" key="0" len="24" vol="197" pos="216"/>
          <note pan="0" key="1" len="24" vol="197" pos="228"/>
          <note pan="0" key="38" len="12" vol="197" pos="240"/>
          <note pan="0" key="38" len="12" vol="197" pos="252"/>
          <note pan="0" key="38" len="12" vol="197" pos="264"/>
          <note pan="0" key="38" len="12" vol="197" pos="276"/>
          <note pan="0" key="45" len="24" vol="197" pos="288"/>
          <note pan="0" key="38" len="24" vol="197" pos="288"/>
          <note pan="0" key="0" len="24" vol="197" pos="288"/>
          <note pan="0" key="1" len="24" vol="197" pos="300"/>
          <note pan="0" key="38" len="12" vol="197" pos="312"/>
          <note pan="0" key="38" len="12" vol="197" pos="324"/>
          <note pan="0" key="45" len="24" vol="197" pos="336"/>
          <note pan="0" key="38" len="24" vol="197" pos="336"/>
          <note pan="0" key="0" len="24" vol="197" pos="336"/>
          <note pan="0" key="1" len="24" vol="197" pos="348"/>
          <note pan="0" key="38" len="12" vol="197" pos="360"/>
          <note pan="0" key="38" len="12" vol="197" pos="372"/>
        </pattern>
        <pattern steps="16" muted="0" pos="13440" name="" type="1">
          <note pan="0" key="37" len="192" vol="197" pos="0"/>
          <note pan="0" key="0" len="384" vol="197" pos="0"/>
          <note pan="0" key="37" len="192" vol="197" pos="192"/>
        </pattern>
        <pattern steps="16" muted="0" pos="15744" name="" type="1">
          <note pan="0" key="44" len="48" vol="195" pos="0"/>
          <note pan="0" key="37" len="48" vol="195" pos="0"/>
          <note pan="0" key="0" len="36" vol="195" pos="0"/>
          <note pan="0" key="1" len="36" vol="195" pos="36"/>
          <note pan="0" key="37" len="12" vol="195" pos="48"/>
          <note pan="0" key="37" len="12" vol="195" pos="60"/>
          <note pan="0" key="37" len="12" vol="195" pos="72"/>
          <note pan="0" key="37" len="12" vol="195" pos="84"/>
          <note pan="0" key="37" len="12" vol="195" pos="96"/>
          <note pan="0" key="37" len="12" vol="195" pos="108"/>
          <note pan="0" key="37" len="12" vol="195" pos="120"/>
          <note pan="0" key="37" len="12" vol="195" pos="132"/>
          <note pan="0" key="37" len="12" vol="195" pos="144"/>
          <note pan="0" key="37" len="12" vol="195" pos="156"/>
          <note pan="0" key="37" len="12" vol="195" pos="168"/>
          <note pan="0" key="37" len="12" vol="195" pos="180"/>
          <note pan="0" key="0" len="36" vol="195" pos="180"/>
          <note pan="0" key="51" len="48" vol="195" pos="192"/>
          <note pan="0" key="44" len="48" vol="195" pos="192"/>
          <note pan="0" key="1" len="36" vol="195" pos="216"/>
          <note pan="0" key="44" len="12" vol="195" pos="240"/>
          <note pan="0" key="44" len="12" vol="195" pos="252"/>
          <note pan="0" key="44" len="12" vol="195" pos="264"/>
          <note pan="0" key="44" len="12" vol="195" pos="276"/>
          <note pan="0" key="44" len="12" vol="195" pos="288"/>
          <note pan="0" key="44" len="12" vol="195" pos="300"/>
          <note pan="0" key="44" len="12" vol="195" pos="312"/>
          <note pan="0" key="44" len="12" vol="195" pos="324"/>
          <note pan="0" key="44" len="12" vol="195" pos="336"/>
          <note pan="0" key="44" len="12" vol="195" pos="348"/>
          <note pan="0" key="44" len="12" vol="195" pos="360"/>
          <note pan="0" key="44" len="12" vol="195" pos="372"/>
          <note pan="0" key="0" len="36" vol="195" pos="372"/>
          <note pan="0" key="52" len="48" vol="195" pos="384"/>
          <note pan="0" key="45" len="48" vol="195" pos="384"/>
          <note pan="0" key="1" len="36" vol="195" pos="408"/>
          <note pan="0" key="45" len="12" vol="195" pos="432"/>
          <note pan="0" key="45" len="12" vol="195" pos="444"/>
          <note pan="0" key="45" len="12" vol="195" pos="456"/>
          <note pan="0" key="45" len="12" vol="195" pos="468"/>
          <note pan="0" key="45" len="12" vol="195" pos="480"/>
          <note pan="0" key="45" len="12" vol="195" pos="492"/>
          <note pan="0" key="45" len="12" vol="195" pos="504"/>
          <note pan="0" key="45" len="12" vol="195" pos="516"/>
          <note pan="0" key="45" len="12" vol="195" pos="528"/>
          <note pan="0" key="45" len="12" vol="195" pos="540"/>
          <note pan="0" key="45" len="12" vol="195" pos="552"/>
          <note pan="0" key="45" len="12" vol="195" pos="564"/>
          <note pan="0" key="0" len="36" vol="195" pos="564"/>
          <note pan="0" key="54" len="48" vol="195" pos="576"/>
          <note pan="0" key="47" len="48" vol="195" pos="576"/>
          <note pan="0" key="1" len="36" vol="195" pos="600"/>
          <note pan="0" key="47" len="12" vol="195" pos="624"/>
          <note pan="0" key="47" len="12" vol="195" pos="636"/>
          <note pan="0" key="47" len="12" vol="195" pos="648"/>
          <note pan="0" key="47" len="12" vol="195" pos="660"/>
          <note pan="0" key="47" len="12" vol="195" pos="672"/>
          <note pan="0" key="47" len="12" vol="195" pos="684"/>
          <note pan="0" key="47" len="12" vol="195" pos="696"/>
          <note pan="0" key="47" len="12" vol="195" pos="708"/>
          <note pan="0" key="47" len="12" vol="195" pos="720"/>
          <note pan="0" key="47" len="12" vol="195" pos="732"/>
          <note pan="0" key="47" len="12" vol="195" pos="744"/>
          <note pan="0" key="47" len="12" vol="195" pos="756"/>
          <note pan="0" key="49" len="48" vol="195" pos="768"/>
          <note pan="0" key="42" len="48" vol="195" pos="768"/>
          <note pan="0" key="0" len="36" vol="195" pos="768"/>
          <note pan="0" key="1" len="36" vol="195" pos="792"/>
          <note pan="0" key="42" len="12" vol="195" pos="816"/>
          <note pan="0" key="42" len="12" vol="195" pos="828"/>
          <note pan="0" key="42" len="12" vol="195" pos="840"/>
          <note pan="0" key="42" len="12" vol="195" pos="852"/>
          <note pan="0" key="42" len="12" vol="195" pos="864"/>
          <note pan="0" key="42" len="12" vol="195" pos="876"/>
          <note pan="0" key="42" len="12" vol="195" pos="888"/>
          <note pan="0" key="42" len="12" vol="195" pos="900"/>
          <note pan="0" key="42" len="12" vol="195" pos="912"/>
          <note pan="0" key="42" len="12" vol="195" pos="924"/>
          <note pan="0" key="42" len="12" vol="195" pos="936"/>
          <note pan="0" key="42" len="12" vol="195" pos="948"/>
          <note pan="0" key="0" len="36" vol="195" pos="948"/>
          <note pan="0" key="51" len="48" vol="195" pos="960"/>
          <note pan="0" key="44" len="48" vol="195" pos="960"/>
          <note pan="0" key="1" len="36" vol="195" pos="984"/>
          <note pan="0" key="44" len="12" vol="195" pos="1008"/>
          <note pan="0" key="44" len="12" vol="195" pos="1020"/>
          <note pan="0" key="44" len="12" vol="195" pos="1032"/>
          <note pan="0" key="44" len="12" vol="195" pos="1044"/>
          <note pan="0" key="44" len="12" vol="195" pos="1056"/>
          <note pan="0" key="44" len="12" vol="195" pos="1068"/>
          <note pan="0" key="44" len="12" vol="195" pos="1080"/>
          <note pan="0" key="44" len="12" vol="195" pos="1092"/>
          <note pan="0" key="44" len="12" vol="195" pos="1104"/>
          <note pan="0" key="44" len="12" vol="195" pos="1116"/>
          <note pan="0" key="44" len="12" vol="195" pos="1128"/>
          <note pan="0" key="44" len="12" vol="195" pos="1140"/>
          <note pan="0" key="0" len="36" vol="195" pos="1140"/>
          <note pan="0" key="52" len="48" vol="195" pos="1152"/>
          <note pan="0" key="45" len="48" vol="195" pos="1152"/>
          <note pan="0" key="1" len="36" vol="195" pos="1176"/>
          <note pan="0" key="45" len="12" vol="195" pos="1200"/>
          <note pan="0" key="45" len="12" vol="195" pos="1212"/>
          <note pan="0" key="45" len="12" vol="195" pos="1224"/>
          <note pan="0" key="45" len="12" vol="195" pos="1236"/>
          <note pan="0" key="45" len="12" vol="195" pos="1248"/>
          <note pan="0" key="45" len="12" vol="195" pos="1260"/>
          <note pan="0" key="45" len="12" vol="195" pos="1272"/>
          <note pan="0" key="45" len="12" vol="195" pos="1284"/>
          <note pan="0" key="45" len="12" vol="195" pos="1296"/>
          <note pan="0" key="45" len="12" vol="195" pos="1308"/>
          <note pan="0" key="45" len="12" vol="195" pos="1320"/>
          <note pan="0" key="45" len="12" vol="195" pos="1332"/>
          <note pan="0" key="0" len="36" vol="195" pos="1332"/>
          <note pan="0" key="54" len="48" vol="195" pos="1344"/>
          <note pan="0" key="47" len="48" vol="195" pos="1344"/>
          <note pan="0" key="1" len="36" vol="195" pos="1368"/>
          <note pan="0" key="47" len="12" vol="195" pos="1392"/>
          <note pan="0" key="47" len="12" vol="195" pos="1404"/>
          <note pan="0" key="47" len="12" vol="195" pos="1416"/>
          <note pan="0" key="47" len="12" vol="195" pos="1428"/>
          <note pan="0" key="48" len="12" vol="195" pos="1440"/>
          <note pan="0" key="48" len="12" vol="195" pos="1452"/>
          <note pan="0" key="48" len="12" vol="195" pos="1464"/>
          <note pan="0" key="1" len="36" vol="195" pos="1464"/>
          <note pan="0" key="48" len="12" vol="195" pos="1476"/>
          <note pan="0" key="48" len="12" vol="195" pos="1488"/>
          <note pan="0" key="48" len="12" vol="195" pos="1500"/>
          <note pan="0" key="48" len="12" vol="195" pos="1512"/>
          <note pan="0" key="48" len="12" vol="195" pos="1524"/>
          <note pan="0" key="0" len="36" vol="195" pos="1524"/>
          <note pan="0" key="44" len="48" vol="195" pos="1536"/>
          <note pan="0" key="37" len="48" vol="195" pos="1536"/>
          <note pan="0" key="1" len="36" vol="195" pos="1560"/>
          <note pan="0" key="37" len="12" vol="195" pos="1584"/>
          <note pan="0" key="37" len="12" vol="195" pos="1596"/>
          <note pan="0" key="37" len="12" vol="195" pos="1608"/>
          <note pan="0" key="37" len="12" vol="195" pos="1620"/>
          <note pan="0" key="37" len="12" vol="195" pos="1632"/>
          <note pan="0" key="37" len="12" vol="195" pos="1644"/>
          <note pan="0" key="37" len="12" vol="195" pos="1656"/>
          <note pan="0" key="37" len="12" vol="195" pos="1668"/>
          <note pan="0" key="37" len="12" vol="195" pos="1680"/>
          <note pan="0" key="37" len="12" vol="195" pos="1692"/>
          <note pan="0" key="37" len="12" vol="195" pos="1704"/>
          <note pan="0" key="37" len="12" vol="195" pos="1716"/>
          <note pan="0" key="0" len="36" vol="195" pos="1716"/>
          <note pan="0" key="54" len="48" vol="195" pos="1728"/>
          <note pan="0" key="47" len="48" vol="195" pos="1728"/>
          <note pan="0" key="1" len="36" vol="195" pos="1752"/>
          <note pan="0" key="47" len="12" vol="195" pos="1776"/>
          <note pan="0" key="47" len="12" vol="195" pos="1788"/>
          <note pan="0" key="47" len="12" vol="195" pos="1800"/>
          <note pan="0" key="47" len="12" vol="195" pos="1812"/>
          <note pan="0" key="47" len="12" vol="195" pos="1824"/>
          <note pan="0" key="47" len="12" vol="195" pos="1836"/>
          <note pan="0" key="47" len="12" vol="195" pos="1848"/>
          <note pan="0" key="47" len="12" vol="195" pos="1860"/>
          <note pan="0" key="47" len="12" vol="195" pos="1872"/>
          <note pan="0" key="47" len="12" vol="195" pos="1884"/>
          <note pan="0" key="47" len="12" vol="195" pos="1896"/>
          <note pan="0" key="47" len="12" vol="195" pos="1908"/>
          <note pan="0" key="0" len="36" vol="195" pos="1908"/>
          <note pan="0" key="54" len="48" vol="195" pos="1920"/>
          <note pan="0" key="46" len="48" vol="195" pos="1920"/>
          <note pan="0" key="1" len="36" vol="195" pos="1944"/>
          <note pan="0" key="46" len="12" vol="195" pos="1968"/>
          <note pan="0" key="46" len="12" vol="195" pos="1980"/>
          <note pan="0" key="46" len="12" vol="195" pos="1992"/>
          <note pan="0" key="46" len="12" vol="195" pos="2004"/>
          <note pan="0" key="46" len="12" vol="195" pos="2016"/>
          <note pan="0" key="46" len="12" vol="195" pos="2028"/>
          <note pan="0" key="46" len="12" vol="195" pos="2040"/>
          <note pan="0" key="46" len="12" vol="195" pos="2052"/>
          <note pan="0" key="46" len="12" vol="195" pos="2064"/>
          <note pan="0" key="46" len="12" vol="195" pos="2076"/>
          <note pan="0" key="46" len="12" vol="195" pos="2088"/>
          <note pan="0" key="46" len="12" vol="195" pos="2100"/>
          <note pan="0" key="0" len="36" vol="195" pos="2100"/>
          <note pan="0" key="49" len="48" vol="195" pos="2112"/>
          <note pan="0" key="42" len="48" vol="195" pos="2112"/>
          <note pan="0" key="1" len="36" vol="195" pos="2136"/>
          <note pan="0" key="42" len="12" vol="195" pos="2160"/>
          <note pan="0" key="42" len="12" vol="195" pos="2172"/>
          <note pan="0" key="42" len="12" vol="195" pos="2184"/>
          <note pan="0" key="42" len="12" vol="195" pos="2196"/>
          <note pan="0" key="0" len="36" vol="195" pos="2196"/>
          <note pan="0" key="47" len="48" vol="195" pos="2208"/>
          <note pan="0" key="40" len="48" vol="195" pos="2208"/>
          <note pan="0" key="1" len="36" vol="195" pos="2232"/>
          <note pan="0" key="40" len="12" vol="195" pos="2256"/>
          <note pan="0" key="40" len="12" vol="195" pos="2268"/>
          <note pan="0" key="40" len="12" vol="195" pos="2280"/>
          <note pan="0" key="40" len="12" vol="195" pos="2292"/>
          <note pan="0" key="0" len="36" vol="195" pos="2292"/>
          <note pan="0" key="45" len="48" vol="195" pos="2304"/>
          <note pan="0" key="38" len="48" vol="195" pos="2304"/>
          <note pan="0" key="1" len="36" vol="195" pos="2328"/>
          <note pan="0" key="38" len="12" vol="195" pos="2352"/>
          <note pan="0" key="38" len="12" vol="195" pos="2364"/>
          <note pan="0" key="38" len="12" vol="195" pos="2376"/>
          <note pan="0" key="38" len="12" vol="195" pos="2388"/>
          <note pan="0" key="38" len="12" vol="195" pos="2400"/>
          <note pan="0" key="38" len="12" vol="195" pos="2412"/>
          <note pan="0" key="38" len="12" vol="195" pos="2424"/>
          <note pan="0" key="38" len="12" vol="195" pos="2436"/>
          <note pan="0" key="38" len="12" vol="195" pos="2448"/>
          <note pan="0" key="38" len="12" vol="195" pos="2460"/>
          <note pan="0" key="38" len="12" vol="195" pos="2472"/>
          <note pan="0" key="38" len="12" vol="195" pos="2484"/>
          <note pan="0" key="0" len="36" vol="195" pos="2484"/>
          <note pan="0" key="52" len="48" vol="195" pos="2496"/>
          <note pan="0" key="45" len="48" vol="195" pos="2496"/>
          <note pan="0" key="1" len="36" vol="195" pos="2520"/>
          <note pan="0" key="45" len="12" vol="195" pos="2544"/>
          <note pan="0" key="45" len="12" vol="195" pos="2556"/>
          <note pan="0" key="45" len="12" vol="195" pos="2568"/>
          <note pan="0" key="45" len="12" vol="195" pos="2580"/>
          <note pan="0" key="45" len="12" vol="195" pos="2592"/>
          <note pan="0" key="45" len="12" vol="195" pos="2604"/>
          <note pan="0" key="45" len="12" vol="195" pos="2616"/>
          <note pan="0" key="45" len="12" vol="195" pos="2628"/>
          <note pan="0" key="45" len="12" vol="195" pos="2640"/>
          <note pan="0" key="45" len="12" vol="195" pos="2652"/>
          <note pan="0" key="45" len="12" vol="195" pos="2664"/>
          <note pan="0" key="45" len="12" vol="195" pos="2676"/>
          <note pan="0" key="0" len="36" vol="195" pos="2676"/>
          <note pan="0" key="54" len="48" vol="195" pos="2688"/>
          <note pan="0" key="47" len="48" vol="195" pos="2688"/>
          <note pan="0" key="1" len="36" vol="195" pos="2712"/>
          <note pan="0" key="47" len="12" vol="195" pos="2736"/>
          <note pan="0" key="47" len="12" vol="195" pos="2748"/>
          <note pan="0" key="47" len="12" vol="195" pos="2760"/>
          <note pan="0" key="47" len="12" vol="195" pos="2772"/>
          <note pan="0" key="47" len="12" vol="195" pos="2784"/>
          <note pan="0" key="47" len="12" vol="195" pos="2796"/>
          <note pan="0" key="47" len="12" vol="195" pos="2808"/>
          <note pan="0" key="47" len="12" vol="195" pos="2820"/>
          <note pan="0" key="47" len="12" vol="195" pos="2832"/>
          <note pan="0" key="47" len="12" vol="195" pos="2844"/>
          <note pan="0" key="47" len="12" vol="195" pos="2856"/>
          <note pan="0" key="47" len="12" vol="195" pos="2868"/>
          <note pan="0" key="0" len="36" vol="195" pos="2868"/>
          <note pan="0" key="42" len="24" vol="195" pos="2880"/>
          <note pan="0" key="35" len="24" vol="195" pos="2880"/>
          <note pan="0" key="42" len="24" vol="195" pos="2904"/>
          <note pan="0" key="35" len="24" vol="195" pos="2904"/>
          <note pan="0" key="42" len="24" vol="195" pos="2976"/>
          <note pan="0" key="35" len="24" vol="195" pos="2976"/>
          <note pan="0" key="42" len="24" vol="195" pos="3000"/>
          <note pan="0" key="35" len="24" vol="195" pos="3000"/>
        </pattern>
        <pattern steps="16" muted="0" pos="13824" name="" type="1">
          <note pan="0" key="47" len="24" vol="197" pos="0"/>
          <note pan="0" key="0" len="24" vol="197" pos="0"/>
          <note pan="0" key="1" len="24" vol="197" pos="12"/>
          <note pan="0" key="44" len="12" vol="197" pos="24"/>
          <note pan="0" key="44" len="12" vol="197" pos="36"/>
          <note pan="0" key="44" len="12" vol="197" pos="48"/>
          <note pan="0" key="44" len="12" vol="197" pos="60"/>
          <note pan="0" key="51" len="48" vol="197" pos="72"/>
          <note pan="0" key="44" len="48" vol="197" pos="72"/>
          <note pan="0" key="0" len="24" vol="197" pos="72"/>
          <note pan="0" key="1" len="24" vol="197" pos="108"/>
          <note pan="0" key="44" len="24" vol="197" pos="120"/>
          <note pan="0" key="44" len="24" vol="197" pos="144"/>
          <note pan="0" key="44" len="24" vol="197" pos="168"/>
        </pattern>
        <pattern steps="16" muted="0" pos="12672" name="" type="1">
          <note pan="0" key="44" len="36" vol="172" pos="0"/>
          <note pan="0" key="37" len="36" vol="172" pos="0"/>
          <note pan="0" key="0" len="36" vol="172" pos="0"/>
        </pattern>
        <pattern steps="16" muted="0" pos="14016" name="" type="1">
          <note pan="0" key="45" len="12" vol="172" pos="0"/>
          <note pan="0" key="1" len="12" vol="172" pos="0"/>
          <note pan="0" key="45" len="12" vol="172" pos="12"/>
          <note pan="0" key="45" len="12" vol="172" pos="24"/>
          <note pan="0" key="45" len="12" vol="172" pos="36"/>
          <note pan="0" key="49" len="12" vol="172" pos="48"/>
          <note pan="0" key="49" len="12" vol="172" pos="60"/>
          <note pan="0" key="45" len="12" vol="172" pos="72"/>
          <note pan="0" key="45" len="12" vol="172" pos="84"/>
          <note pan="0" key="47" len="12" vol="172" pos="96"/>
          <note pan="0" key="47" len="12" vol="172" pos="108"/>
          <note pan="0" key="47" len="12" vol="172" pos="120"/>
          <note pan="0" key="47" len="12" vol="172" pos="132"/>
          <note pan="0" key="52" len="12" vol="172" pos="144"/>
          <note pan="0" key="0" len="12" vol="172" pos="144"/>
          <note pan="0" key="51" len="12" vol="172" pos="156"/>
          <note pan="0" key="2" len="12" vol="172" pos="156"/>
          <note pan="0" key="49" len="12" vol="172" pos="168"/>
          <note pan="0" key="1" len="12" vol="172" pos="168"/>
          <note pan="0" key="47" len="12" vol="172" pos="180"/>
        </pattern>
        <pattern steps="16" muted="0" pos="14208" name="" type="1">
          <note pan="0" key="38" len="12" vol="200" pos="0"/>
          <note pan="0" key="1" len="24" vol="200" pos="0"/>
          <note pan="0" key="38" len="12" vol="200" pos="12"/>
          <note pan="0" key="38" len="24" vol="200" pos="24"/>
          <note pan="0" key="38" len="12" vol="200" pos="48"/>
          <note pan="0" key="38" len="12" vol="200" pos="60"/>
          <note pan="0" key="38" len="24" vol="200" pos="72"/>
          <note pan="0" key="38" len="12" vol="200" pos="96"/>
          <note pan="0" key="38" len="12" vol="200" pos="108"/>
          <note pan="0" key="38" len="24" vol="200" pos="120"/>
          <note pan="0" key="38" len="12" vol="200" pos="144"/>
          <note pan="0" key="38" len="12" vol="200" pos="156"/>
          <note pan="0" key="38" len="24" vol="200" pos="168"/>
          <note pan="0" key="38" len="12" vol="200" pos="192"/>
          <note pan="0" key="38" len="12" vol="200" pos="204"/>
          <note pan="0" key="38" len="24" vol="200" pos="216"/>
          <note pan="0" key="38" len="12" vol="200" pos="240"/>
          <note pan="0" key="38" len="12" vol="200" pos="252"/>
          <note pan="0" key="38" len="24" vol="200" pos="264"/>
          <note pan="0" key="38" len="12" vol="200" pos="288"/>
          <note pan="0" key="38" len="12" vol="200" pos="300"/>
          <note pan="0" key="38" len="24" vol="200" pos="312"/>
          <note pan="0" key="38" len="12" vol="200" pos="336"/>
          <note pan="0" key="38" len="12" vol="200" pos="348"/>
          <note pan="0" key="38" len="24" vol="200" pos="360"/>
          <note pan="0" key="37" len="12" vol="200" pos="384"/>
          <note pan="0" key="37" len="12" vol="200" pos="396"/>
          <note pan="0" key="37" len="24" vol="200" pos="408"/>
          <note pan="0" key="37" len="12" vol="200" pos="432"/>
          <note pan="0" key="37" len="12" vol="200" pos="444"/>
          <note pan="0" key="37" len="24" vol="200" pos="456"/>
          <note pan="0" key="37" len="12" vol="200" pos="480"/>
          <note pan="0" key="37" len="12" vol="200" pos="492"/>
          <note pan="0" key="37" len="24" vol="200" pos="504"/>
          <note pan="0" key="37" len="12" vol="200" pos="528"/>
          <note pan="0" key="37" len="12" vol="200" pos="540"/>
          <note pan="0" key="37" len="24" vol="200" pos="552"/>
          <note pan="0" key="35" len="12" vol="200" pos="576"/>
          <note pan="0" key="35" len="12" vol="200" pos="588"/>
          <note pan="0" key="35" len="24" vol="200" pos="600"/>
          <note pan="0" key="35" len="12" vol="200" pos="624"/>
          <note pan="0" key="35" len="12" vol="200" pos="636"/>
          <note pan="0" key="35" len="24" vol="200" pos="648"/>
          <note pan="0" key="35" len="12" vol="200" pos="672"/>
          <note pan="0" key="35" len="12" vol="200" pos="684"/>
          <note pan="0" key="35" len="24" vol="200" pos="696"/>
          <note pan="0" key="35" len="12" vol="200" pos="720"/>
          <note pan="0" key="35" len="12" vol="200" pos="732"/>
          <note pan="0" key="35" len="24" vol="200" pos="744"/>
        </pattern>
        <pattern steps="16" muted="0" pos="18816" name="" type="1">
          <note pan="0" key="44" len="24" vol="197" pos="0"/>
          <note pan="0" key="37" len="24" vol="197" pos="0"/>
          <note pan="0" key="0" len="12" vol="197" pos="0"/>
          <note pan="0" key="1" len="12" vol="197" pos="12"/>
          <note pan="0" key="37" len="12" vol="197" pos="24"/>
          <note pan="0" key="37" len="12" vol="197" pos="36"/>
          <note pan="0" key="44" len="24" vol="197" pos="48"/>
          <note pan="0" key="37" len="24" vol="197" pos="48"/>
          <note pan="0" key="0" len="12" vol="197" pos="48"/>
          <note pan="0" key="44" len="24" vol="197" pos="72"/>
          <note pan="0" key="37" len="24" vol="197" pos="72"/>
          <note pan="0" key="1" len="12" vol="197" pos="84"/>
          <note pan="0" key="37" len="12" vol="197" pos="96"/>
          <note pan="0" key="37" len="12" vol="197" pos="108"/>
          <note pan="0" key="44" len="24" vol="197" pos="120"/>
          <note pan="0" key="37" len="24" vol="197" pos="120"/>
          <note pan="0" key="0" len="12" vol="197" pos="120"/>
          <note pan="0" key="44" len="24" vol="197" pos="144"/>
          <note pan="0" key="37" len="24" vol="197" pos="144"/>
          <note pan="0" key="1" len="12" vol="197" pos="156"/>
          <note pan="0" key="37" len="12" vol="197" pos="168"/>
          <note pan="0" key="37" len="12" vol="197" pos="180"/>
          <note pan="0" key="44" len="24" vol="197" pos="192"/>
          <note pan="0" key="37" len="24" vol="197" pos="192"/>
          <note pan="0" key="0" len="12" vol="197" pos="192"/>
          <note pan="0" key="44" len="24" vol="197" pos="216"/>
          <note pan="0" key="37" len="24" vol="197" pos="216"/>
          <note pan="0" key="1" len="12" vol="197" pos="228"/>
          <note pan="0" key="37" len="12" vol="197" pos="240"/>
          <note pan="0" key="37" len="12" vol="197" pos="252"/>
          <note pan="0" key="44" len="24" vol="197" pos="264"/>
          <note pan="0" key="37" len="24" vol="197" pos="264"/>
          <note pan="0" key="0" len="12" vol="197" pos="264"/>
          <note pan="0" key="44" len="24" vol="197" pos="288"/>
          <note pan="0" key="37" len="24" vol="197" pos="288"/>
          <note pan="0" key="44" len="24" vol="197" pos="312"/>
          <note pan="0" key="37" len="24" vol="197" pos="312"/>
          <note pan="0" key="1" len="12" vol="197" pos="324"/>
          <note pan="0" key="37" len="12" vol="197" pos="336"/>
          <note pan="0" key="37" len="12" vol="197" pos="348"/>
          <note pan="0" key="44" len="24" vol="197" pos="360"/>
          <note pan="0" key="37" len="24" vol="197" pos="360"/>
          <note pan="0" key="0" len="12" vol="197" pos="360"/>
          <note pan="0" key="51" len="24" vol="197" pos="384"/>
          <note pan="0" key="44" len="24" vol="197" pos="384"/>
          <note pan="0" key="1" len="12" vol="197" pos="396"/>
          <note pan="0" key="44" len="12" vol="197" pos="408"/>
          <note pan="0" key="44" len="12" vol="197" pos="420"/>
          <note pan="0" key="51" len="24" vol="197" pos="432"/>
          <note pan="0" key="44" len="24" vol="197" pos="432"/>
          <note pan="0" key="0" len="12" vol="197" pos="432"/>
          <note pan="0" key="51" len="24" vol="197" pos="456"/>
          <note pan="0" key="44" len="24" vol="197" pos="456"/>
          <note pan="0" key="1" len="12" vol="197" pos="468"/>
          <note pan="0" key="44" len="12" vol="197" pos="480"/>
          <note pan="0" key="44" len="12" vol="197" pos="492"/>
          <note pan="0" key="51" len="24" vol="197" pos="504"/>
          <note pan="0" key="44" len="24" vol="197" pos="504"/>
          <note pan="0" key="0" len="12" vol="197" pos="504"/>
          <note pan="0" key="51" len="24" vol="197" pos="528"/>
          <note pan="0" key="44" len="24" vol="197" pos="528"/>
          <note pan="0" key="1" len="12" vol="197" pos="540"/>
          <note pan="0" key="44" len="12" vol="197" pos="552"/>
          <note pan="0" key="44" len="12" vol="197" pos="564"/>
          <note pan="0" key="51" len="24" vol="197" pos="576"/>
          <note pan="0" key="44" len="24" vol="197" pos="576"/>
          <note pan="0" key="0" len="12" vol="197" pos="576"/>
          <note pan="0" key="51" len="24" vol="197" pos="600"/>
          <note pan="0" key="44" len="24" vol="197" pos="600"/>
          <note pan="0" key="1" len="12" vol="197" pos="612"/>
          <note pan="0" key="44" len="12" vol="197" pos="624"/>
          <note pan="0" key="44" len="12" vol="197" pos="636"/>
          <note pan="0" key="51" len="24" vol="197" pos="648"/>
          <note pan="0" key="44" len="24" vol="197" pos="648"/>
          <note pan="0" key="0" len="12" vol="197" pos="648"/>
          <note pan="0" key="51" len="24" vol="197" pos="672"/>
          <note pan="0" key="44" len="24" vol="197" pos="672"/>
          <note pan="0" key="51" len="24" vol="197" pos="696"/>
          <note pan="0" key="44" len="24" vol="197" pos="696"/>
          <note pan="0" key="1" len="12" vol="197" pos="708"/>
          <note pan="0" key="44" len="12" vol="197" pos="720"/>
          <note pan="0" key="44" len="12" vol="197" pos="732"/>
          <note pan="0" key="51" len="24" vol="197" pos="744"/>
          <note pan="0" key="44" len="24" vol="197" pos="744"/>
          <note pan="0" key="0" len="12" vol="197" pos="744"/>
          <note pan="0" key="46" len="24" vol="197" pos="768"/>
          <note pan="0" key="39" len="24" vol="197" pos="768"/>
          <note pan="0" key="1" len="12" vol="197" pos="780"/>
          <note pan="0" key="39" len="12" vol="197" pos="792"/>
          <note pan="0" key="39" len="12" vol="197" pos="804"/>
          <note pan="0" key="46" len="24" vol="197" pos="816"/>
          <note pan="0" key="39" len="24" vol="197" pos="816"/>
          <note pan="0" key="0" len="12" vol="197" pos="816"/>
          <note pan="0" key="46" len="24" vol="197" pos="840"/>
          <note pan="0" key="39" len="24" vol="197" pos="840"/>
          <note pan="0" key="1" len="12" vol="197" pos="852"/>
          <note pan="0" key="39" len="12" vol="197" pos="864"/>
          <note pan="0" key="39" len="12" vol="197" pos="876"/>
          <note pan="0" key="46" len="24" vol="197" pos="888"/>
          <note pan="0" key="39" len="24" vol="197" pos="888"/>
          <note pan="0" key="0" len="12" vol="197" pos="888"/>
          <note pan="0" key="46" len="24" vol="197" pos="912"/>
          <note pan="0" key="39" len="24" vol="197" pos="912"/>
          <note pan="0" key="1" len="12" vol="197" pos="924"/>
          <note pan="0" key="39" len="12" vol="197" pos="936"/>
          <note pan="0" key="39" len="12" vol="197" pos="948"/>
          <note pan="0" key="46" len="24" vol="197" pos="960"/>
          <note pan="0" key="39" len="24" vol="197" pos="960"/>
          <note pan="0" key="0" len="12" vol="197" pos="960"/>
          <note pan="0" key="46" len="24" vol="197" pos="984"/>
          <note pan="0" key="39" len="24" vol="197" pos="984"/>
          <note pan="0" key="1" len="12" vol="197" pos="996"/>
          <note pan="0" key="39" len="12" vol="197" pos="1008"/>
          <note pan="0" key="39" len="12" vol="197" pos="1020"/>
          <note pan="0" key="46" len="24" vol="197" pos="1032"/>
          <note pan="0" key="39" len="24" vol="197" pos="1032"/>
          <note pan="0" key="0" len="12" vol="197" pos="1032"/>
          <note pan="0" key="46" len="24" vol="197" pos="1056"/>
          <note pan="0" key="39" len="24" vol="197" pos="1056"/>
          <note pan="0" key="46" len="24" vol="197" pos="1080"/>
          <note pan="0" key="39" len="24" vol="197" pos="1080"/>
          <note pan="0" key="1" len="12" vol="197" pos="1092"/>
          <note pan="0" key="39" len="12" vol="197" pos="1104"/>
          <note pan="0" key="39" len="12" vol="197" pos="1116"/>
          <note pan="0" key="46" len="24" vol="197" pos="1128"/>
          <note pan="0" key="39" len="24" vol="197" pos="1128"/>
          <note pan="0" key="0" len="12" vol="197" pos="1128"/>
          <note pan="0" key="45" len="24" vol="197" pos="1152"/>
          <note pan="0" key="38" len="24" vol="197" pos="1152"/>
          <note pan="0" key="1" len="12" vol="197" pos="1164"/>
          <note pan="0" key="38" len="12" vol="197" pos="1176"/>
          <note pan="0" key="38" len="12" vol="197" pos="1188"/>
          <note pan="0" key="45" len="24" vol="197" pos="1200"/>
          <note pan="0" key="38" len="24" vol="197" pos="1200"/>
          <note pan="0" key="0" len="12" vol="197" pos="1200"/>
          <note pan="0" key="45" len="24" vol="197" pos="1224"/>
          <note pan="0" key="38" len="24" vol="197" pos="1224"/>
          <note pan="0" key="1" len="12" vol="197" pos="1236"/>
          <note pan="0" key="38" len="12" vol="197" pos="1248"/>
          <note pan="0" key="38" len="12" vol="197" pos="1260"/>
          <note pan="0" key="45" len="24" vol="197" pos="1272"/>
          <note pan="0" key="38" len="24" vol="197" pos="1272"/>
          <note pan="0" key="0" len="12" vol="197" pos="1272"/>
          <note pan="0" key="45" len="24" vol="197" pos="1296"/>
          <note pan="0" key="38" len="24" vol="197" pos="1296"/>
          <note pan="0" key="1" len="12" vol="197" pos="1308"/>
          <note pan="0" key="38" len="12" vol="197" pos="1320"/>
          <note pan="0" key="38" len="12" vol="197" pos="1332"/>
          <note pan="0" key="51" len="48" vol="197" pos="1344"/>
          <note pan="0" key="44" len="48" vol="197" pos="1344"/>
          <note pan="0" key="0" len="12" vol="197" pos="1344"/>
          <note pan="0" key="46" len="48" vol="197" pos="1392"/>
          <note pan="0" key="39" len="48" vol="197" pos="1392"/>
          <note pan="0" key="35" len="48" vol="197" pos="1440"/>
          <note pan="0" key="32" len="48" vol="197" pos="1488"/>
          <note pan="0" key="44" len="24" vol="197" pos="1536"/>
          <note pan="0" key="37" len="24" vol="197" pos="1536"/>
          <note pan="0" key="1" len="12" vol="197" pos="1548"/>
          <note pan="0" key="37" len="12" vol="197" pos="1560"/>
          <note pan="0" key="37" len="12" vol="197" pos="1572"/>
          <note pan="0" key="44" len="24" vol="197" pos="1584"/>
          <note pan="0" key="37" len="24" vol="197" pos="1584"/>
          <note pan="0" key="0" len="12" vol="197" pos="1584"/>
          <note pan="0" key="44" len="24" vol="197" pos="1608"/>
          <note pan="0" key="37" len="24" vol="197" pos="1608"/>
          <note pan="0" key="1" len="12" vol="197" pos="1620"/>
          <note pan="0" key="37" len="12" vol="197" pos="1632"/>
          <note pan="0" key="37" len="12" vol="197" pos="1644"/>
          <note pan="0" key="44" len="24" vol="197" pos="1656"/>
          <note pan="0" key="37" len="24" vol="197" pos="1656"/>
          <note pan="0" key="0" len="12" vol="197" pos="1656"/>
          <note pan="0" key="44" len="24" vol="197" pos="1680"/>
          <note pan="0" key="37" len="24" vol="197" pos="1680"/>
          <note pan="0" key="1" len="12" vol="197" pos="1692"/>
          <note pan="0" key="37" len="12" vol="197" pos="1704"/>
          <note pan="0" key="37" len="12" vol="197" pos="1716"/>
          <note pan="0" key="44" len="24" vol="197" pos="1728"/>
          <note pan="0" key="37" len="24" vol="197" pos="1728"/>
          <note pan="0" key="0" len="12" vol="197" pos="1728"/>
          <note pan="0" key="44" len="24" vol="197" pos="1752"/>
          <note pan="0" key="37" len="24" vol="197" pos="1752"/>
          <note pan="0" key="1" len="12" vol="197" pos="1764"/>
          <note pan="0" key="37" len="12" vol="197" pos="1776"/>
          <note pan="0" key="37" len="12" vol="197" pos="1788"/>
          <note pan="0" key="44" len="24" vol="197" pos="1800"/>
          <note pan="0" key="37" len="24" vol="197" pos="1800"/>
          <note pan="0" key="0" len="12" vol="197" pos="1800"/>
          <note pan="0" key="44" len="24" vol="197" pos="1824"/>
          <note pan="0" key="37" len="24" vol="197" pos="1824"/>
          <note pan="0" key="44" len="24" vol="197" pos="1848"/>
          <note pan="0" key="37" len="24" vol="197" pos="1848"/>
          <note pan="0" key="1" len="12" vol="197" pos="1860"/>
          <note pan="0" key="37" len="12" vol="197" pos="1872"/>
          <note pan="0" key="37" len="12" vol="197" pos="1884"/>
          <note pan="0" key="44" len="24" vol="197" pos="1896"/>
          <note pan="0" key="37" len="24" vol="197" pos="1896"/>
          <note pan="0" key="0" len="12" vol="197" pos="1896"/>
          <note pan="0" key="45" len="24" vol="197" pos="1920"/>
          <note pan="0" key="38" len="24" vol="197" pos="1920"/>
          <note pan="0" key="1" len="12" vol="197" pos="1932"/>
          <note pan="0" key="38" len="12" vol="197" pos="1944"/>
          <note pan="0" key="38" len="12" vol="197" pos="1956"/>
          <note pan="0" key="45" len="24" vol="197" pos="1968"/>
          <note pan="0" key="38" len="24" vol="197" pos="1968"/>
          <note pan="0" key="0" len="12" vol="197" pos="1968"/>
          <note pan="0" key="45" len="24" vol="197" pos="1992"/>
          <note pan="0" key="38" len="24" vol="197" pos="1992"/>
          <note pan="0" key="1" len="12" vol="197" pos="2004"/>
          <note pan="0" key="38" len="12" vol="197" pos="2016"/>
          <note pan="0" key="38" len="12" vol="197" pos="2028"/>
          <note pan="0" key="45" len="24" vol="197" pos="2040"/>
          <note pan="0" key="38" len="24" vol="197" pos="2040"/>
          <note pan="0" key="0" len="12" vol="197" pos="2040"/>
          <note pan="0" key="45" len="24" vol="197" pos="2064"/>
          <note pan="0" key="38" len="24" vol="197" pos="2064"/>
          <note pan="0" key="1" len="12" vol="197" pos="2076"/>
          <note pan="0" key="38" len="12" vol="197" pos="2088"/>
          <note pan="0" key="38" len="12" vol="197" pos="2100"/>
          <note pan="0" key="45" len="24" vol="197" pos="2112"/>
          <note pan="0" key="38" len="24" vol="197" pos="2112"/>
          <note pan="0" key="0" len="12" vol="197" pos="2112"/>
          <note pan="0" key="45" len="24" vol="197" pos="2136"/>
          <note pan="0" key="38" len="24" vol="197" pos="2136"/>
          <note pan="0" key="1" len="12" vol="197" pos="2148"/>
          <note pan="0" key="38" len="12" vol="197" pos="2160"/>
          <note pan="0" key="38" len="12" vol="197" pos="2172"/>
          <note pan="0" key="45" len="24" vol="197" pos="2184"/>
          <note pan="0" key="38" len="24" vol="197" pos="2184"/>
          <note pan="0" key="0" len="12" vol="197" pos="2184"/>
          <note pan="0" key="45" len="24" vol="197" pos="2208"/>
          <note pan="0" key="38" len="24" vol="197" pos="2208"/>
          <note pan="0" key="45" len="24" vol="197" pos="2232"/>
          <note pan="0" key="38" len="24" vol="197" pos="2232"/>
          <note pan="0" key="1" len="12" vol="197" pos="2244"/>
          <note pan="0" key="38" len="12" vol="197" pos="2256"/>
          <note pan="0" key="38" len="12" vol="197" pos="2268"/>
          <note pan="0" key="45" len="24" vol="197" pos="2280"/>
          <note pan="0" key="38" len="24" vol="197" pos="2280"/>
          <note pan="0" key="0" len="12" vol="197" pos="2280"/>
          <note pan="0" key="46" len="24" vol="197" pos="2304"/>
          <note pan="0" key="39" len="24" vol="197" pos="2304"/>
          <note pan="0" key="1" len="12" vol="197" pos="2316"/>
          <note pan="0" key="39" len="12" vol="197" pos="2328"/>
          <note pan="0" key="39" len="12" vol="197" pos="2340"/>
          <note pan="0" key="46" len="24" vol="197" pos="2352"/>
          <note pan="0" key="39" len="24" vol="197" pos="2352"/>
          <note pan="0" key="0" len="12" vol="197" pos="2352"/>
          <note pan="0" key="46" len="24" vol="197" pos="2376"/>
          <note pan="0" key="39" len="24" vol="197" pos="2376"/>
          <note pan="0" key="1" len="12" vol="197" pos="2388"/>
          <note pan="0" key="39" len="12" vol="197" pos="2400"/>
          <note pan="0" key="39" len="12" vol="197" pos="2412"/>
          <note pan="0" key="46" len="24" vol="197" pos="2424"/>
          <note pan="0" key="39" len="24" vol="197" pos="2424"/>
          <note pan="0" key="0" len="12" vol="197" pos="2424"/>
          <note pan="0" key="46" len="24" vol="197" pos="2448"/>
          <note pan="0" key="39" len="24" vol="197" pos="2448"/>
          <note pan="0" key="1" len="12" vol="197" pos="2460"/>
          <note pan="0" key="39" len="12" vol="197" pos="2472"/>
          <note pan="0" key="39" len="12" vol="197" pos="2484"/>
          <note pan="0" key="46" len="24" vol="197" pos="2496"/>
          <note pan="0" key="39" len="24" vol="197" pos="2496"/>
          <note pan="0" key="0" len="12" vol="197" pos="2496"/>
          <note pan="0" key="46" len="24" vol="197" pos="2520"/>
          <note pan="0" key="39" len="24" vol="197" pos="2520"/>
          <note pan="0" key="1" len="12" vol="197" pos="2532"/>
          <note pan="0" key="39" len="12" vol="197" pos="2544"/>
          <note pan="0" key="39" len="12" vol="197" pos="2556"/>
          <note pan="0" key="46" len="24" vol="197" pos="2568"/>
          <note pan="0" key="39" len="24" vol="197" pos="2568"/>
          <note pan="0" key="0" len="12" vol="197" pos="2568"/>
          <note pan="0" key="46" len="24" vol="197" pos="2592"/>
          <note pan="0" key="39" len="24" vol="197" pos="2592"/>
          <note pan="0" key="46" len="24" vol="197" pos="2616"/>
          <note pan="0" key="39" len="24" vol="197" pos="2616"/>
          <note pan="0" key="1" len="12" vol="197" pos="2628"/>
          <note pan="0" key="39" len="12" vol="197" pos="2640"/>
          <note pan="0" key="39" len="12" vol="197" pos="2652"/>
          <note pan="0" key="46" len="24" vol="197" pos="2664"/>
          <note pan="0" key="39" len="24" vol="197" pos="2664"/>
          <note pan="0" key="0" len="12" vol="197" pos="2664"/>
          <note pan="0" key="51" len="24" vol="197" pos="2688"/>
          <note pan="0" key="44" len="24" vol="197" pos="2688"/>
          <note pan="0" key="1" len="12" vol="197" pos="2700"/>
          <note pan="0" key="44" len="12" vol="197" pos="2712"/>
          <note pan="0" key="44" len="12" vol="197" pos="2724"/>
          <note pan="0" key="51" len="24" vol="197" pos="2736"/>
          <note pan="0" key="44" len="24" vol="197" pos="2736"/>
          <note pan="0" key="0" len="12" vol="197" pos="2736"/>
          <note pan="0" key="51" len="24" vol="197" pos="2760"/>
          <note pan="0" key="44" len="24" vol="197" pos="2760"/>
          <note pan="0" key="1" len="12" vol="197" pos="2772"/>
          <note pan="0" key="44" len="12" vol="197" pos="2784"/>
          <note pan="0" key="44" len="12" vol="197" pos="2796"/>
          <note pan="0" key="51" len="24" vol="197" pos="2808"/>
          <note pan="0" key="44" len="24" vol="197" pos="2808"/>
          <note pan="0" key="0" len="12" vol="197" pos="2808"/>
          <note pan="0" key="51" len="24" vol="197" pos="2832"/>
          <note pan="0" key="44" len="24" vol="197" pos="2832"/>
          <note pan="0" key="1" len="12" vol="197" pos="2844"/>
          <note pan="0" key="44" len="12" vol="197" pos="2856"/>
          <note pan="0" key="44" len="12" vol="197" pos="2868"/>
          <note pan="0" key="51" len="48" vol="197" pos="2880"/>
          <note pan="0" key="44" len="48" vol="197" pos="2880"/>
          <note pan="0" key="0" len="12" vol="197" pos="2880"/>
          <note pan="0" key="51" len="48" vol="197" pos="2928"/>
          <note pan="0" key="44" len="48" vol="197" pos="2928"/>
          <note pan="0" key="51" len="48" vol="197" pos="2976"/>
          <note pan="0" key="44" len="48" vol="197" pos="2976"/>
          <note pan="0" key="51" len="48" vol="197" pos="3024"/>
          <note pan="0" key="44" len="48" vol="197" pos="3024"/>
        </pattern>
        <pattern steps="16" muted="0" pos="14976" name="" type="1">
          <note pan="0" key="40" len="24" vol="197" pos="0"/>
          <note pan="0" key="0" len="12" vol="197" pos="0"/>
          <note pan="0" key="42" len="24" vol="197" pos="24"/>
          <note pan="0" key="1" len="12" vol="197" pos="36"/>
          <note pan="0" key="42" len="12" vol="197" pos="48"/>
          <note pan="0" key="42" len="12" vol="197" pos="60"/>
          <note pan="0" key="47" len="24" vol="197" pos="72"/>
          <note pan="0" key="0" len="24" vol="197" pos="72"/>
          <note pan="0" key="49" len="24" vol="197" pos="96"/>
          <note pan="0" key="42" len="24" vol="197" pos="120"/>
          <note pan="0" key="40" len="24" vol="197" pos="144"/>
          <note pan="0" key="42" len="24" vol="197" pos="168"/>
        </pattern>
        <pattern steps="16" muted="0" pos="15360" name="" type="1">
          <note pan="0" key="46" len="24" vol="78" pos="0"/>
          <note pan="0" key="39" len="24" vol="78" pos="0"/>
          <note pan="0" key="0" len="12" vol="78" pos="0"/>
          <note pan="0" key="1" len="12" vol="78" pos="12"/>
          <note pan="0" key="39" len="12" vol="78" pos="24"/>
          <note pan="0" key="39" len="12" vol="78" pos="36"/>
          <note pan="0" key="39" len="12" vol="78" pos="48"/>
          <note pan="0" key="39" len="12" vol="78" pos="60"/>
          <note pan="0" key="39" len="12" vol="78" pos="72"/>
          <note pan="0" key="39" len="12" vol="78" pos="84"/>
          <note pan="0" key="39" len="12" vol="78" pos="96"/>
          <note pan="0" key="39" len="12" vol="78" pos="108"/>
          <note pan="0" key="39" len="12" vol="78" pos="120"/>
          <note pan="0" key="39" len="12" vol="78" pos="132"/>
          <note pan="0" key="39" len="12" vol="78" pos="144"/>
          <note pan="0" key="39" len="12" vol="78" pos="156"/>
          <note pan="0" key="39" len="12" vol="78" pos="168"/>
          <note pan="0" key="39" len="12" vol="78" pos="180"/>
          <note pan="0" key="52" len="96" vol="78" pos="192"/>
          <note pan="0" key="45" len="96" vol="78" pos="192"/>
          <note pan="0" key="0" len="12" vol="78" pos="192"/>
          <note pan="0" key="51" len="96" vol="78" pos="288"/>
          <note pan="0" key="44" len="96" vol="78" pos="288"/>
        </pattern>
        <pattern steps="16" muted="0" pos="15168" name="" type="1">
          <note pan="0" key="40" len="24" vol="197" pos="0"/>
          <note pan="0" key="0" len="12" vol="197" pos="0"/>
          <note pan="0" key="42" len="24" vol="197" pos="24"/>
          <note pan="0" key="1" len="12" vol="197" pos="36"/>
          <note pan="0" key="42" len="12" vol="197" pos="48"/>
          <note pan="0" key="42" len="12" vol="197" pos="60"/>
          <note pan="0" key="47" len="24" vol="197" pos="72"/>
          <note pan="0" key="0" len="24" vol="197" pos="72"/>
          <note pan="0" key="49" len="24" vol="197" pos="96"/>
          <note pan="0" key="42" len="24" vol="197" pos="120"/>
          <note pan="0" key="40" len="24" vol="197" pos="144"/>
          <note pan="0" key="42" len="24" vol="197" pos="168"/>
        </pattern>
        <pattern steps="16" muted="0" pos="24960" name="" type="1">
          <note pan="0" key="52" len="192" vol="195" pos="0"/>
          <note pan="0" key="45" len="192" vol="195" pos="0"/>
          <note pan="0" key="0" len="384" vol="195" pos="0"/>
          <note pan="0" key="54" len="192" vol="195" pos="192"/>
          <note pan="0" key="47" len="192" vol="195" pos="192"/>
          <note pan="0" key="44" len="384" vol="195" pos="384"/>
          <note pan="0" key="37" len="384" vol="195" pos="384"/>
          <note pan="0" key="42" len="192" vol="195" pos="768"/>
          <note pan="0" key="35" len="192" vol="195" pos="768"/>
          <note pan="0" key="42" len="192" vol="195" pos="960"/>
          <note pan="0" key="35" len="192" vol="195" pos="960"/>
          <note pan="0" key="49" len="384" vol="195" pos="1152"/>
          <note pan="0" key="42" len="384" vol="195" pos="1152"/>
          <note pan="0" key="52" len="192" vol="195" pos="1536"/>
          <note pan="0" key="45" len="192" vol="195" pos="1536"/>
          <note pan="0" key="54" len="192" vol="195" pos="1728"/>
          <note pan="0" key="47" len="192" vol="195" pos="1728"/>
          <note pan="0" key="44" len="192" vol="195" pos="1920"/>
          <note pan="0" key="37" len="192" vol="195" pos="1920"/>
          <note pan="0" key="44" len="192" vol="195" pos="2112"/>
          <note pan="0" key="37" len="192" vol="195" pos="2112"/>
        </pattern>
        <pattern steps="16" muted="0" pos="28032" name="" type="1">
          <note pan="0" key="52" len="384" vol="195" pos="0"/>
          <note pan="0" key="45" len="384" vol="195" pos="0"/>
          <note pan="0" key="0" len="384" vol="195" pos="0"/>
          <note pan="0" key="42" len="384" vol="195" pos="384"/>
          <note pan="0" key="35" len="384" vol="195" pos="384"/>
        </pattern>
        <pattern steps="16" muted="0" pos="27264" name="" type="1">
          <note pan="0" key="49" len="192" vol="200" pos="0"/>
          <note pan="0" key="42" len="192" vol="200" pos="0"/>
          <note pan="0" key="0" len="192" vol="200" pos="0"/>
          <note pan="0" key="49" len="192" vol="200" pos="192"/>
          <note pan="0" key="42" len="192" vol="200" pos="192"/>
          <note pan="0" key="51" len="192" vol="200" pos="384"/>
          <note pan="0" key="44" len="192" vol="200" pos="384"/>
          <note pan="0" key="51" len="192" vol="200" pos="576"/>
          <note pan="0" key="44" len="192" vol="200" pos="576"/>
        </pattern>
        <pattern steps="16" muted="0" pos="28800" name="" type="1">
          <note pan="0" key="49" len="48" vol="200" pos="0"/>
          <note pan="0" key="0" len="24" vol="200" pos="0"/>
          <note pan="0" key="37" len="24" vol="200" pos="48"/>
          <note pan="0" key="1" len="24" vol="200" pos="60"/>
          <note pan="0" key="37" len="12" vol="200" pos="72"/>
          <note pan="0" key="37" len="12" vol="200" pos="84"/>
          <note pan="0" key="37" len="12" vol="200" pos="96"/>
          <note pan="0" key="37" len="12" vol="200" pos="108"/>
          <note pan="0" key="37" len="24" vol="200" pos="120"/>
          <note pan="0" key="0" len="24" vol="200" pos="120"/>
          <note pan="0" key="1" len="24" vol="200" pos="132"/>
          <note pan="0" key="37" len="12" vol="200" pos="144"/>
          <note pan="0" key="37" len="12" vol="200" pos="156"/>
          <note pan="0" key="37" len="12" vol="200" pos="168"/>
          <note pan="0" key="37" len="12" vol="200" pos="180"/>
          <note pan="0" key="37" len="24" vol="200" pos="192"/>
          <note pan="0" key="0" len="24" vol="200" pos="192"/>
          <note pan="0" key="1" len="24" vol="200" pos="204"/>
          <note pan="0" key="37" len="12" vol="200" pos="216"/>
          <note pan="0" key="37" len="12" vol="200" pos="228"/>
          <note pan="0" key="37" len="12" vol="200" pos="240"/>
          <note pan="0" key="37" len="12" vol="200" pos="252"/>
          <note pan="0" key="37" len="24" vol="200" pos="264"/>
          <note pan="0" key="0" len="24" vol="200" pos="264"/>
          <note pan="0" key="1" len="24" vol="200" pos="276"/>
          <note pan="0" key="37" len="12" vol="200" pos="288"/>
          <note pan="0" key="37" len="12" vol="200" pos="300"/>
          <note pan="0" key="37" len="24" vol="200" pos="312"/>
          <note pan="0" key="0" len="24" vol="200" pos="312"/>
          <note pan="0" key="1" len="24" vol="200" pos="324"/>
          <note pan="0" key="37" len="12" vol="200" pos="336"/>
          <note pan="0" key="37" len="12" vol="200" pos="348"/>
          <note pan="0" key="37" len="12" vol="200" pos="360"/>
          <note pan="0" key="37" len="12" vol="200" pos="372"/>
          <note pan="0" key="37" len="48" vol="200" pos="384"/>
          <note pan="0" key="0" len="24" vol="200" pos="384"/>
          <note pan="0" key="37" len="24" vol="200" pos="432"/>
          <note pan="0" key="1" len="24" vol="200" pos="444"/>
          <note pan="0" key="37" len="12" vol="200" pos="456"/>
          <note pan="0" key="37" len="12" vol="200" pos="468"/>
          <note pan="0" key="37" len="12" vol="200" pos="480"/>
          <note pan="0" key="37" len="12" vol="200" pos="492"/>
          <note pan="0" key="37" len="24" vol="200" pos="504"/>
          <note pan="0" key="0" len="24" vol="200" pos="504"/>
          <note pan="0" key="1" len="24" vol="200" pos="516"/>
          <note pan="0" key="37" len="12" vol="200" pos="528"/>
          <note pan="0" key="37" len="12" vol="200" pos="540"/>
          <note pan="0" key="37" len="12" vol="200" pos="552"/>
          <note pan="0" key="37" len="12" vol="200" pos="564"/>
          <note pan="0" key="37" len="24" vol="200" pos="576"/>
          <note pan="0" key="0" len="24" vol="200" pos="576"/>
          <note pan="0" key="1" len="24" vol="200" pos="588"/>
          <note pan="0" key="37" len="12" vol="200" pos="600"/>
          <note pan="0" key="37" len="12" vol="200" pos="612"/>
          <note pan="0" key="37" len="12" vol="200" pos="624"/>
          <note pan="0" key="37" len="12" vol="200" pos="636"/>
          <note pan="0" key="37" len="24" vol="200" pos="648"/>
          <note pan="0" key="0" len="24" vol="200" pos="648"/>
          <note pan="0" key="1" len="24" vol="200" pos="660"/>
          <note pan="0" key="37" len="12" vol="200" pos="672"/>
          <note pan="0" key="37" len="12" vol="200" pos="684"/>
          <note pan="0" key="40" len="24" vol="200" pos="696"/>
          <note pan="0" key="42" len="24" vol="200" pos="720"/>
          <note pan="0" key="44" len="24" vol="200" pos="744"/>
        </pattern>
        <pattern steps="16" muted="0" pos="29568" name="" type="1">
          <note pan="0" key="49" len="48" vol="200" pos="0"/>
          <note pan="0" key="0" len="24" vol="200" pos="0"/>
          <note pan="0" key="37" len="24" vol="200" pos="48"/>
          <note pan="0" key="1" len="24" vol="200" pos="60"/>
          <note pan="0" key="37" len="12" vol="200" pos="72"/>
          <note pan="0" key="37" len="12" vol="200" pos="84"/>
          <note pan="0" key="37" len="12" vol="200" pos="96"/>
          <note pan="0" key="37" len="12" vol="200" pos="108"/>
          <note pan="0" key="37" len="24" vol="200" pos="120"/>
          <note pan="0" key="0" len="24" vol="200" pos="120"/>
          <note pan="0" key="1" len="24" vol="200" pos="132"/>
          <note pan="0" key="37" len="12" vol="200" pos="144"/>
          <note pan="0" key="37" len="12" vol="200" pos="156"/>
          <note pan="0" key="37" len="12" vol="200" pos="168"/>
          <note pan="0" key="37" len="12" vol="200" pos="180"/>
          <note pan="0" key="37" len="24" vol="200" pos="192"/>
          <note pan="0" key="0" len="24" vol="200" pos="192"/>
          <note pan="0" key="1" len="24" vol="200" pos="204"/>
          <note pan="0" key="37" len="12" vol="200" pos="216"/>
          <note pan="0" key="37" len="12" vol="200" pos="228"/>
          <note pan="0" key="37" len="12" vol="200" pos="240"/>
          <note pan="0" key="37" len="12" vol="200" pos="252"/>
          <note pan="0" key="37" len="24" vol="200" pos="264"/>
          <note pan="0" key="0" len="24" vol="200" pos="264"/>
          <note pan="0" key="1" len="24" vol="200" pos="276"/>
          <note pan="0" key="37" len="12" vol="200" pos="288"/>
          <note pan="0" key="37" len="12" vol="200" pos="300"/>
          <note pan="0" key="37" len="24" vol="200" pos="312"/>
          <note pan="0" key="0" len="24" vol="200" pos="312"/>
          <note pan="0" key="1" len="24" vol="200" pos="324"/>
          <note pan="0" key="37" len="12" vol="200" pos="336"/>
          <note pan="0" key="37" len="12" vol="200" pos="348"/>
          <note pan="0" key="37" len="12" vol="200" pos="360"/>
          <note pan="0" key="37" len="12" vol="200" pos="372"/>
          <note pan="0" key="37" len="48" vol="200" pos="384"/>
          <note pan="0" key="0" len="24" vol="200" pos="384"/>
          <note pan="0" key="37" len="24" vol="200" pos="432"/>
          <note pan="0" key="1" len="24" vol="200" pos="444"/>
          <note pan="0" key="37" len="12" vol="200" pos="456"/>
          <note pan="0" key="37" len="12" vol="200" pos="468"/>
          <note pan="0" key="37" len="12" vol="200" pos="480"/>
          <note pan="0" key="37" len="12" vol="200" pos="492"/>
          <note pan="0" key="37" len="24" vol="200" pos="504"/>
          <note pan="0" key="0" len="24" vol="200" pos="504"/>
          <note pan="0" key="1" len="24" vol="200" pos="516"/>
          <note pan="0" key="37" len="12" vol="200" pos="528"/>
          <note pan="0" key="37" len="12" vol="200" pos="540"/>
          <note pan="0" key="37" len="12" vol="200" pos="552"/>
          <note pan="0" key="37" len="12" vol="200" pos="564"/>
          <note pan="0" key="37" len="24" vol="200" pos="576"/>
          <note pan="0" key="0" len="24" vol="200" pos="576"/>
          <note pan="0" key="1" len="24" vol="200" pos="588"/>
          <note pan="0" key="37" len="12" vol="200" pos="600"/>
          <note pan="0" key="37" len="12" vol="200" pos="612"/>
          <note pan="0" key="37" len="12" vol="200" pos="624"/>
          <note pan="0" key="37" len="12" vol="200" pos="636"/>
          <note pan="0" key="37" len="24" vol="200" pos="648"/>
          <note pan="0" key="0" len="24" vol="200" pos="648"/>
          <note pan="0" key="1" len="24" vol="200" pos="660"/>
          <note pan="0" key="37" len="12" vol="200" pos="672"/>
          <note pan="0" key="37" len="12" vol="200" pos="684"/>
          <note pan="0" key="40" len="24" vol="200" pos="696"/>
          <note pan="0" key="42" len="24" vol="200" pos="720"/>
          <note pan="0" key="44" len="24" vol="200" pos="744"/>
        </pattern>
        <pattern steps="16" muted="0" pos="30336" name="" type="1">
          <note pan="0" key="50" len="48" vol="200" pos="0"/>
          <note pan="0" key="0" len="24" vol="200" pos="0"/>
          <note pan="0" key="38" len="24" vol="200" pos="48"/>
          <note pan="0" key="1" len="24" vol="200" pos="60"/>
          <note pan="0" key="38" len="12" vol="200" pos="72"/>
          <note pan="0" key="38" len="12" vol="200" pos="84"/>
          <note pan="0" key="38" len="12" vol="200" pos="96"/>
          <note pan="0" key="38" len="12" vol="200" pos="108"/>
          <note pan="0" key="38" len="24" vol="200" pos="120"/>
          <note pan="0" key="0" len="24" vol="200" pos="120"/>
          <note pan="0" key="1" len="24" vol="200" pos="132"/>
          <note pan="0" key="38" len="12" vol="200" pos="144"/>
          <note pan="0" key="38" len="12" vol="200" pos="156"/>
          <note pan="0" key="38" len="12" vol="200" pos="168"/>
          <note pan="0" key="38" len="12" vol="200" pos="180"/>
          <note pan="0" key="38" len="24" vol="200" pos="192"/>
          <note pan="0" key="0" len="24" vol="200" pos="192"/>
          <note pan="0" key="1" len="24" vol="200" pos="204"/>
          <note pan="0" key="38" len="12" vol="200" pos="216"/>
          <note pan="0" key="38" len="12" vol="200" pos="228"/>
          <note pan="0" key="38" len="12" vol="200" pos="240"/>
          <note pan="0" key="38" len="12" vol="200" pos="252"/>
          <note pan="0" key="38" len="24" vol="200" pos="264"/>
          <note pan="0" key="0" len="24" vol="200" pos="264"/>
          <note pan="0" key="1" len="24" vol="200" pos="276"/>
          <note pan="0" key="38" len="12" vol="200" pos="288"/>
          <note pan="0" key="38" len="12" vol="200" pos="300"/>
          <note pan="0" key="38" len="24" vol="200" pos="312"/>
          <note pan="0" key="0" len="24" vol="200" pos="312"/>
          <note pan="0" key="1" len="24" vol="200" pos="324"/>
          <note pan="0" key="38" len="12" vol="200" pos="336"/>
          <note pan="0" key="38" len="12" vol="200" pos="348"/>
          <note pan="0" key="38" len="12" vol="200" pos="360"/>
          <note pan="0" key="38" len="12" vol="200" pos="372"/>
          <note pan="0" key="38" len="48" vol="200" pos="384"/>
          <note pan="0" key="0" len="24" vol="200" pos="384"/>
          <note pan="0" key="38" len="24" vol="200" pos="432"/>
          <note pan="0" key="1" len="24" vol="200" pos="444"/>
          <note pan="0" key="38" len="12" vol="200" pos="456"/>
          <note pan="0" key="38" len="12" vol="200" pos="468"/>
          <note pan="0" key="38" len="12" vol="200" pos="480"/>
          <note pan="0" key="38" len="12" vol="200" pos="492"/>
          <note pan="0" key="38" len="24" vol="200" pos="504"/>
          <note pan="0" key="0" len="24" vol="200" pos="504"/>
          <note pan="0" key="1" len="24" vol="200" pos="516"/>
          <note pan="0" key="38" len="12" vol="200" pos="528"/>
          <note pan="0" key="38" len="12" vol="200" pos="540"/>
          <note pan="0" key="38" len="12" vol="200" pos="552"/>
          <note pan="0" key="38" len="12" vol="200" pos="564"/>
          <note pan="0" key="38" len="24" vol="200" pos="576"/>
          <note pan="0" key="0" len="24" vol="200" pos="576"/>
          <note pan="0" key="1" len="24" vol="200" pos="588"/>
          <note pan="0" key="38" len="12" vol="200" pos="600"/>
          <note pan="0" key="38" len="12" vol="200" pos="612"/>
          <note pan="0" key="38" len="12" vol="200" pos="624"/>
          <note pan="0" key="38" len="12" vol="200" pos="636"/>
          <note pan="0" key="38" len="24" vol="200" pos="648"/>
          <note pan="0" key="0" len="24" vol="200" pos="648"/>
          <note pan="0" key="1" len="24" vol="200" pos="660"/>
          <note pan="0" key="38" len="12" vol="200" pos="672"/>
          <note pan="0" key="38" len="12" vol="200" pos="684"/>
          <note pan="0" key="45" len="24" vol="200" pos="696"/>
          <note pan="0" key="44" len="24" vol="200" pos="720"/>
          <note pan="0" key="40" len="24" vol="200" pos="744"/>
        </pattern>
        <pattern steps="16" muted="0" pos="31104" name="" type="1">
          <note pan="0" key="49" len="48" vol="200" pos="0"/>
          <note pan="0" key="0" len="24" vol="200" pos="0"/>
          <note pan="0" key="37" len="24" vol="200" pos="48"/>
          <note pan="0" key="1" len="24" vol="200" pos="60"/>
          <note pan="0" key="37" len="12" vol="200" pos="72"/>
          <note pan="0" key="37" len="12" vol="200" pos="84"/>
          <note pan="0" key="37" len="12" vol="200" pos="96"/>
          <note pan="0" key="37" len="12" vol="200" pos="108"/>
          <note pan="0" key="37" len="24" vol="200" pos="120"/>
          <note pan="0" key="0" len="24" vol="200" pos="120"/>
          <note pan="0" key="1" len="24" vol="200" pos="132"/>
          <note pan="0" key="37" len="12" vol="200" pos="144"/>
          <note pan="0" key="37" len="12" vol="200" pos="156"/>
          <note pan="0" key="37" len="12" vol="200" pos="168"/>
          <note pan="0" key="37" len="12" vol="200" pos="180"/>
          <note pan="0" key="37" len="24" vol="200" pos="192"/>
          <note pan="0" key="0" len="24" vol="200" pos="192"/>
          <note pan="0" key="1" len="24" vol="200" pos="204"/>
          <note pan="0" key="37" len="12" vol="200" pos="216"/>
          <note pan="0" key="37" len="12" vol="200" pos="228"/>
          <note pan="0" key="37" len="12" vol="200" pos="240"/>
          <note pan="0" key="37" len="12" vol="200" pos="252"/>
          <note pan="0" key="37" len="24" vol="200" pos="264"/>
          <note pan="0" key="0" len="24" vol="200" pos="264"/>
          <note pan="0" key="1" len="24" vol="200" pos="276"/>
          <note pan="0" key="37" len="12" vol="200" pos="288"/>
          <note pan="0" key="37" len="12" vol="200" pos="300"/>
          <note pan="0" key="37" len="24" vol="200" pos="312"/>
          <note pan="0" key="0" len="24" vol="200" pos="312"/>
          <note pan="0" key="1" len="24" vol="200" pos="324"/>
          <note pan="0" key="37" len="12" vol="200" pos="336"/>
          <note pan="0" key="37" len="12" vol="200" pos="348"/>
          <note pan="0" key="37" len="12" vol="200" pos="360"/>
          <note pan="0" key="37" len="12" vol="200" pos="372"/>
          <note pan="0" key="35" len="48" vol="200" pos="384"/>
          <note pan="0" key="0" len="24" vol="200" pos="384"/>
          <note pan="0" key="35" len="24" vol="200" pos="432"/>
          <note pan="0" key="1" len="24" vol="200" pos="444"/>
          <note pan="0" key="35" len="12" vol="200" pos="456"/>
          <note pan="0" key="35" len="12" vol="200" pos="468"/>
          <note pan="0" key="35" len="12" vol="200" pos="480"/>
          <note pan="0" key="35" len="12" vol="200" pos="492"/>
          <note pan="0" key="35" len="24" vol="200" pos="504"/>
          <note pan="0" key="0" len="24" vol="200" pos="504"/>
          <note pan="0" key="1" len="24" vol="200" pos="516"/>
          <note pan="0" key="35" len="12" vol="200" pos="528"/>
          <note pan="0" key="35" len="12" vol="200" pos="540"/>
          <note pan="0" key="35" len="12" vol="200" pos="552"/>
          <note pan="0" key="35" len="12" vol="200" pos="564"/>
          <note pan="0" key="35" len="24" vol="200" pos="576"/>
          <note pan="0" key="0" len="24" vol="200" pos="576"/>
          <note pan="0" key="1" len="24" vol="200" pos="588"/>
          <note pan="0" key="35" len="12" vol="200" pos="600"/>
          <note pan="0" key="35" len="12" vol="200" pos="612"/>
          <note pan="0" key="35" len="12" vol="200" pos="624"/>
          <note pan="0" key="35" len="12" vol="200" pos="636"/>
          <note pan="0" key="35" len="24" vol="200" pos="648"/>
          <note pan="0" key="0" len="24" vol="200" pos="648"/>
          <note pan="0" key="1" len="24" vol="200" pos="660"/>
          <note pan="0" key="35" len="12" vol="200" pos="672"/>
          <note pan="0" key="35" len="12" vol="200" pos="684"/>
          <note pan="0" key="39" len="24" vol="200" pos="696"/>
          <note pan="0" key="40" len="24" vol="200" pos="720"/>
          <note pan="0" key="42" len="24" vol="200" pos="744"/>
        </pattern>
        <pattern steps="16" muted="0" pos="31872" name="" type="1">
          <note pan="0" key="33" len="48" vol="200" pos="0"/>
          <note pan="0" key="0" len="24" vol="200" pos="0"/>
          <note pan="0" key="33" len="24" vol="200" pos="48"/>
          <note pan="0" key="1" len="24" vol="200" pos="60"/>
          <note pan="0" key="33" len="12" vol="200" pos="72"/>
          <note pan="0" key="33" len="12" vol="200" pos="84"/>
          <note pan="0" key="33" len="12" vol="200" pos="96"/>
          <note pan="0" key="33" len="12" vol="200" pos="108"/>
          <note pan="0" key="33" len="24" vol="200" pos="120"/>
          <note pan="0" key="0" len="24" vol="200" pos="120"/>
          <note pan="0" key="1" len="24" vol="200" pos="132"/>
          <note pan="0" key="33" len="12" vol="200" pos="144"/>
          <note pan="0" key="33" len="12" vol="200" pos="156"/>
          <note pan="0" key="33" len="12" vol="200" pos="168"/>
          <note pan="0" key="33" len="12" vol="200" pos="180"/>
          <note pan="0" key="33" len="24" vol="200" pos="192"/>
          <note pan="0" key="0" len="24" vol="200" pos="192"/>
          <note pan="0" key="1" len="24" vol="200" pos="204"/>
          <note pan="0" key="33" len="12" vol="200" pos="216"/>
          <note pan="0" key="33" len="12" vol="200" pos="228"/>
          <note pan="0" key="33" len="12" vol="200" pos="240"/>
          <note pan="0" key="33" len="12" vol="200" pos="252"/>
          <note pan="0" key="33" len="24" vol="200" pos="264"/>
          <note pan="0" key="0" len="24" vol="200" pos="264"/>
          <note pan="0" key="1" len="24" vol="200" pos="276"/>
          <note pan="0" key="33" len="12" vol="200" pos="288"/>
          <note pan="0" key="33" len="12" vol="200" pos="300"/>
          <note pan="0" key="33" len="24" vol="200" pos="312"/>
          <note pan="0" key="0" len="24" vol="200" pos="312"/>
          <note pan="0" key="1" len="24" vol="200" pos="324"/>
          <note pan="0" key="33" len="12" vol="200" pos="336"/>
          <note pan="0" key="33" len="12" vol="200" pos="348"/>
          <note pan="0" key="33" len="12" vol="200" pos="360"/>
          <note pan="0" key="33" len="12" vol="200" pos="372"/>
          <note pan="0" key="35" len="48" vol="200" pos="384"/>
          <note pan="0" key="0" len="24" vol="200" pos="384"/>
          <note pan="0" key="35" len="24" vol="200" pos="432"/>
          <note pan="0" key="1" len="24" vol="200" pos="444"/>
          <note pan="0" key="35" len="12" vol="200" pos="456"/>
          <note pan="0" key="35" len="12" vol="200" pos="468"/>
          <note pan="0" key="35" len="12" vol="200" pos="480"/>
          <note pan="0" key="35" len="12" vol="200" pos="492"/>
          <note pan="0" key="35" len="24" vol="200" pos="504"/>
          <note pan="0" key="0" len="24" vol="200" pos="504"/>
          <note pan="0" key="1" len="24" vol="200" pos="516"/>
          <note pan="0" key="35" len="12" vol="200" pos="528"/>
          <note pan="0" key="35" len="12" vol="200" pos="540"/>
          <note pan="0" key="35" len="12" vol="200" pos="552"/>
          <note pan="0" key="35" len="12" vol="200" pos="564"/>
          <note pan="0" key="35" len="24" vol="200" pos="576"/>
          <note pan="0" key="0" len="24" vol="200" pos="576"/>
          <note pan="0" key="1" len="24" vol="200" pos="588"/>
          <note pan="0" key="35" len="12" vol="200" pos="600"/>
          <note pan="0" key="35" len="12" vol="200" pos="612"/>
          <note pan="0" key="35" len="12" vol="200" pos="624"/>
          <note pan="0" key="35" len="12" vol="200" pos="636"/>
          <note pan="0" key="35" len="24" vol="200" pos="648"/>
          <note pan="0" key="0" len="24" vol="200" pos="648"/>
          <note pan="0" key="1" len="24" vol="200" pos="660"/>
          <note pan="0" key="35" len="12" vol="200" pos="672"/>
          <note pan="0" key="35" len="12" vol="200" pos="684"/>
          <note pan="0" key="35" len="24" vol="200" pos="696"/>
          <note pan="0" key="35" len="12" vol="200" pos="720"/>
          <note pan="0" key="35" len="12" vol="200" pos="732"/>
          <note pan="0" key="35" len="12" vol="200" pos="744"/>
          <note pan="0" key="35" len="12" vol="200" pos="756"/>
        </pattern>
        <pattern steps="16" muted="0" pos="32640" name="" type="1">
          <note pan="0" key="42" len="48" vol="200" pos="0"/>
          <note pan="0" key="0" len="24" vol="200" pos="0"/>
          <note pan="0" key="42" len="24" vol="200" pos="48"/>
          <note pan="0" key="1" len="24" vol="200" pos="60"/>
          <note pan="0" key="42" len="12" vol="200" pos="72"/>
          <note pan="0" key="42" len="12" vol="200" pos="84"/>
          <note pan="0" key="42" len="12" vol="200" pos="96"/>
          <note pan="0" key="42" len="12" vol="200" pos="108"/>
          <note pan="0" key="42" len="24" vol="200" pos="120"/>
          <note pan="0" key="0" len="24" vol="200" pos="120"/>
          <note pan="0" key="1" len="24" vol="200" pos="132"/>
          <note pan="0" key="42" len="12" vol="200" pos="144"/>
          <note pan="0" key="42" len="12" vol="200" pos="156"/>
          <note pan="0" key="42" len="12" vol="200" pos="168"/>
          <note pan="0" key="42" len="12" vol="200" pos="180"/>
          <note pan="0" key="42" len="24" vol="200" pos="192"/>
          <note pan="0" key="0" len="24" vol="200" pos="192"/>
          <note pan="0" key="1" len="24" vol="200" pos="204"/>
          <note pan="0" key="42" len="12" vol="200" pos="216"/>
          <note pan="0" key="42" len="12" vol="200" pos="228"/>
          <note pan="0" key="42" len="12" vol="200" pos="240"/>
          <note pan="0" key="42" len="12" vol="200" pos="252"/>
          <note pan="0" key="42" len="24" vol="200" pos="264"/>
          <note pan="0" key="0" len="24" vol="200" pos="264"/>
          <note pan="0" key="1" len="24" vol="200" pos="276"/>
          <note pan="0" key="42" len="12" vol="200" pos="288"/>
          <note pan="0" key="42" len="12" vol="200" pos="300"/>
          <note pan="0" key="42" len="24" vol="200" pos="312"/>
          <note pan="0" key="0" len="24" vol="200" pos="312"/>
          <note pan="0" key="1" len="24" vol="200" pos="324"/>
          <note pan="0" key="42" len="12" vol="200" pos="336"/>
          <note pan="0" key="42" len="12" vol="200" pos="348"/>
          <note pan="0" key="42" len="12" vol="200" pos="360"/>
          <note pan="0" key="42" len="12" vol="200" pos="372"/>
          <note pan="0" key="32" len="48" vol="200" pos="384"/>
          <note pan="0" key="0" len="24" vol="200" pos="384"/>
          <note pan="0" key="32" len="24" vol="200" pos="432"/>
          <note pan="0" key="1" len="24" vol="200" pos="444"/>
          <note pan="0" key="32" len="12" vol="200" pos="456"/>
          <note pan="0" key="32" len="12" vol="200" pos="468"/>
          <note pan="0" key="32" len="12" vol="200" pos="480"/>
          <note pan="0" key="32" len="12" vol="200" pos="492"/>
          <note pan="0" key="32" len="24" vol="200" pos="504"/>
          <note pan="0" key="0" len="24" vol="200" pos="504"/>
          <note pan="0" key="1" len="24" vol="200" pos="516"/>
          <note pan="0" key="32" len="12" vol="200" pos="528"/>
          <note pan="0" key="32" len="12" vol="200" pos="540"/>
          <note pan="0" key="32" len="12" vol="200" pos="552"/>
          <note pan="0" key="32" len="12" vol="200" pos="564"/>
          <note pan="0" key="32" len="24" vol="200" pos="576"/>
          <note pan="0" key="0" len="24" vol="200" pos="576"/>
          <note pan="0" key="1" len="24" vol="200" pos="588"/>
          <note pan="0" key="32" len="12" vol="200" pos="600"/>
          <note pan="0" key="32" len="12" vol="200" pos="612"/>
          <note pan="0" key="32" len="12" vol="200" pos="624"/>
          <note pan="0" key="32" len="12" vol="200" pos="636"/>
          <note pan="0" key="32" len="24" vol="200" pos="648"/>
          <note pan="0" key="0" len="24" vol="200" pos="648"/>
          <note pan="0" key="1" len="24" vol="200" pos="660"/>
          <note pan="0" key="32" len="12" vol="200" pos="672"/>
          <note pan="0" key="32" len="12" vol="200" pos="684"/>
          <note pan="0" key="32" len="24" vol="200" pos="696"/>
          <note pan="0" key="32" len="12" vol="200" pos="720"/>
          <note pan="0" key="32" len="12" vol="200" pos="732"/>
          <note pan="0" key="32" len="12" vol="200" pos="744"/>
          <note pan="0" key="32" len="12" vol="200" pos="756"/>
        </pattern>
        <pattern steps="16" muted="0" pos="33408" name="" type="1">
          <note pan="0" key="39" len="48" vol="200" pos="0"/>
          <note pan="0" key="0" len="24" vol="200" pos="0"/>
          <note pan="0" key="39" len="24" vol="200" pos="48"/>
          <note pan="0" key="1" len="24" vol="200" pos="60"/>
          <note pan="0" key="39" len="12" vol="200" pos="72"/>
          <note pan="0" key="39" len="12" vol="200" pos="84"/>
          <note pan="0" key="39" len="12" vol="200" pos="96"/>
          <note pan="0" key="39" len="12" vol="200" pos="108"/>
          <note pan="0" key="39" len="24" vol="200" pos="120"/>
          <note pan="0" key="0" len="24" vol="200" pos="120"/>
          <note pan="0" key="1" len="24" vol="200" pos="132"/>
          <note pan="0" key="39" len="12" vol="200" pos="144"/>
          <note pan="0" key="39" len="12" vol="200" pos="156"/>
          <note pan="0" key="39" len="12" vol="200" pos="168"/>
          <note pan="0" key="39" len="12" vol="200" pos="180"/>
          <note pan="0" key="39" len="24" vol="200" pos="192"/>
          <note pan="0" key="0" len="24" vol="200" pos="192"/>
          <note pan="0" key="1" len="24" vol="200" pos="204"/>
          <note pan="0" key="39" len="12" vol="200" pos="216"/>
          <note pan="0" key="39" len="12" vol="200" pos="228"/>
          <note pan="0" key="39" len="12" vol="200" pos="240"/>
          <note pan="0" key="39" len="12" vol="200" pos="252"/>
          <note pan="0" key="39" len="24" vol="200" pos="264"/>
          <note pan="0" key="0" len="24" vol="200" pos="264"/>
          <note pan="0" key="1" len="24" vol="200" pos="276"/>
          <note pan="0" key="39" len="12" vol="200" pos="288"/>
          <note pan="0" key="39" len="12" vol="200" pos="300"/>
          <note pan="0" key="39" len="24" vol="200" pos="312"/>
          <note pan="0" key="0" len="24" vol="200" pos="312"/>
          <note pan="0" key="1" len="24" vol="200" pos="324"/>
          <note pan="0" key="39" len="12" vol="200" pos="336"/>
          <note pan="0" key="39" len="12" vol="200" pos="348"/>
          <note pan="0" key="39" len="12" vol="200" pos="360"/>
          <note pan="0" key="39" len="12" vol="200" pos="372"/>
          <note pan="0" key="38" len="48" vol="200" pos="384"/>
          <note pan="0" key="0" len="24" vol="200" pos="384"/>
          <note pan="0" key="38" len="24" vol="200" pos="432"/>
          <note pan="0" key="1" len="24" vol="200" pos="444"/>
          <note pan="0" key="38" len="12" vol="200" pos="456"/>
          <note pan="0" key="38" len="12" vol="200" pos="468"/>
          <note pan="0" key="38" len="12" vol="200" pos="480"/>
          <note pan="0" key="38" len="12" vol="200" pos="492"/>
          <note pan="0" key="38" len="24" vol="200" pos="504"/>
          <note pan="0" key="0" len="24" vol="200" pos="504"/>
          <note pan="0" key="1" len="24" vol="200" pos="516"/>
          <note pan="0" key="38" len="12" vol="200" pos="528"/>
          <note pan="0" key="38" len="12" vol="200" pos="540"/>
          <note pan="0" key="38" len="12" vol="200" pos="552"/>
          <note pan="0" key="38" len="12" vol="200" pos="564"/>
          <note pan="0" key="38" len="24" vol="200" pos="576"/>
          <note pan="0" key="0" len="24" vol="200" pos="576"/>
          <note pan="0" key="1" len="24" vol="200" pos="588"/>
          <note pan="0" key="38" len="12" vol="200" pos="600"/>
          <note pan="0" key="38" len="12" vol="200" pos="612"/>
          <note pan="0" key="38" len="12" vol="200" pos="624"/>
          <note pan="0" key="38" len="12" vol="200" pos="636"/>
          <note pan="0" key="38" len="24" vol="200" pos="648"/>
          <note pan="0" key="0" len="24" vol="200" pos="648"/>
          <note pan="0" key="1" len="24" vol="200" pos="660"/>
          <note pan="0" key="38" len="12" vol="200" pos="672"/>
          <note pan="0" key="38" len="12" vol="200" pos="684"/>
          <note pan="0" key="38" len="24" vol="200" pos="696"/>
          <note pan="0" key="38" len="12" vol="200" pos="720"/>
          <note pan="0" key="38" len="12" vol="200" pos="732"/>
          <note pan="0" key="38" len="12" vol="200" pos="744"/>
          <note pan="0" key="38" len="12" vol="200" pos="756"/>
        </pattern>
        <pattern steps="16" muted="0" pos="34176" name="" type="1">
          <note pan="0" key="43" len="48" vol="200" pos="0"/>
          <note pan="0" key="0" len="24" vol="200" pos="0"/>
          <note pan="0" key="43" len="24" vol="200" pos="48"/>
          <note pan="0" key="1" len="24" vol="200" pos="60"/>
          <note pan="0" key="43" len="12" vol="200" pos="72"/>
          <note pan="0" key="43" len="12" vol="200" pos="84"/>
          <note pan="0" key="43" len="12" vol="200" pos="96"/>
          <note pan="0" key="43" len="12" vol="200" pos="108"/>
          <note pan="0" key="43" len="24" vol="200" pos="120"/>
          <note pan="0" key="0" len="24" vol="200" pos="120"/>
          <note pan="0" key="1" len="24" vol="200" pos="132"/>
          <note pan="0" key="43" len="12" vol="200" pos="144"/>
          <note pan="0" key="43" len="12" vol="200" pos="156"/>
          <note pan="0" key="43" len="12" vol="200" pos="168"/>
          <note pan="0" key="43" len="12" vol="200" pos="180"/>
          <note pan="0" key="43" len="24" vol="200" pos="192"/>
          <note pan="0" key="0" len="24" vol="200" pos="192"/>
          <note pan="0" key="1" len="24" vol="200" pos="204"/>
          <note pan="0" key="43" len="12" vol="200" pos="216"/>
          <note pan="0" key="43" len="12" vol="200" pos="228"/>
          <note pan="0" key="43" len="12" vol="200" pos="240"/>
          <note pan="0" key="43" len="12" vol="200" pos="252"/>
          <note pan="0" key="43" len="24" vol="200" pos="264"/>
          <note pan="0" key="0" len="24" vol="200" pos="264"/>
          <note pan="0" key="1" len="24" vol="200" pos="276"/>
          <note pan="0" key="43" len="12" vol="200" pos="288"/>
          <note pan="0" key="43" len="12" vol="200" pos="300"/>
          <note pan="0" key="43" len="24" vol="200" pos="312"/>
          <note pan="0" key="0" len="24" vol="200" pos="312"/>
          <note pan="0" key="1" len="24" vol="200" pos="324"/>
          <note pan="0" key="43" len="12" vol="200" pos="336"/>
          <note pan="0" key="43" len="12" vol="200" pos="348"/>
          <note pan="0" key="43" len="12" vol="200" pos="360"/>
          <note pan="0" key="43" len="12" vol="200" pos="372"/>
          <note pan="0" key="44" len="48" vol="200" pos="384"/>
          <note pan="0" key="0" len="24" vol="200" pos="384"/>
          <note pan="0" key="32" len="24" vol="200" pos="432"/>
          <note pan="0" key="1" len="24" vol="200" pos="444"/>
          <note pan="0" key="32" len="12" vol="200" pos="456"/>
          <note pan="0" key="32" len="12" vol="200" pos="468"/>
          <note pan="0" key="32" len="12" vol="200" pos="480"/>
          <note pan="0" key="32" len="12" vol="200" pos="492"/>
          <note pan="0" key="32" len="24" vol="200" pos="504"/>
          <note pan="0" key="0" len="24" vol="200" pos="504"/>
          <note pan="0" key="1" len="24" vol="200" pos="516"/>
          <note pan="0" key="32" len="12" vol="200" pos="528"/>
          <note pan="0" key="32" len="12" vol="200" pos="540"/>
          <note pan="0" key="32" len="12" vol="200" pos="552"/>
          <note pan="0" key="32" len="12" vol="200" pos="564"/>
          <note pan="0" key="39" len="192" vol="200" pos="576"/>
          <note pan="0" key="32" len="192" vol="200" pos="576"/>
          <note pan="0" key="0" len="24" vol="200" pos="576"/>
        </pattern>
        <pattern steps="16" muted="0" pos="34944" name="" type="1">
          <note pan="0" key="44" len="192" vol="197" pos="0"/>
          <note pan="0" key="37" len="192" vol="197" pos="0"/>
          <note pan="0" key="0" len="48" vol="78" pos="0"/>
          <note pan="0" key="51" len="192" vol="197" pos="192"/>
          <note pan="0" key="44" len="192" vol="197" pos="192"/>
          <note pan="0" key="52" len="192" vol="197" pos="384"/>
          <note pan="0" key="45" len="192" vol="197" pos="384"/>
          <note pan="0" key="54" len="192" vol="197" pos="576"/>
          <note pan="0" key="47" len="192" vol="197" pos="576"/>
          <note pan="0" key="1" len="12" vol="197" pos="756"/>
          <note pan="0" key="42" len="12" vol="197" pos="768"/>
          <note pan="0" key="42" len="12" vol="197" pos="780"/>
          <note pan="0" key="42" len="12" vol="197" pos="792"/>
          <note pan="0" key="42" len="12" vol="197" pos="804"/>
          <note pan="0" key="42" len="12" vol="197" pos="816"/>
          <note pan="0" key="42" len="12" vol="197" pos="828"/>
          <note pan="0" key="42" len="12" vol="197" pos="840"/>
          <note pan="0" key="42" len="12" vol="197" pos="852"/>
          <note pan="0" key="42" len="12" vol="197" pos="864"/>
          <note pan="0" key="42" len="12" vol="197" pos="876"/>
          <note pan="0" key="42" len="12" vol="197" pos="888"/>
          <note pan="0" key="42" len="12" vol="197" pos="900"/>
          <note pan="0" key="42" len="12" vol="197" pos="912"/>
          <note pan="0" key="42" len="12" vol="197" pos="924"/>
          <note pan="0" key="42" len="12" vol="197" pos="936"/>
          <note pan="0" key="42" len="12" vol="197" pos="948"/>
          <note pan="0" key="44" len="12" vol="197" pos="960"/>
          <note pan="0" key="44" len="12" vol="197" pos="972"/>
          <note pan="0" key="44" len="12" vol="197" pos="984"/>
          <note pan="0" key="44" len="12" vol="197" pos="996"/>
          <note pan="0" key="44" len="12" vol="197" pos="1008"/>
          <note pan="0" key="44" len="12" vol="197" pos="1020"/>
          <note pan="0" key="44" len="12" vol="197" pos="1032"/>
          <note pan="0" key="44" len="12" vol="197" pos="1044"/>
          <note pan="0" key="44" len="12" vol="197" pos="1056"/>
          <note pan="0" key="44" len="12" vol="197" pos="1068"/>
          <note pan="0" key="44" len="12" vol="197" pos="1080"/>
          <note pan="0" key="44" len="12" vol="197" pos="1092"/>
          <note pan="0" key="44" len="12" vol="197" pos="1104"/>
          <note pan="0" key="44" len="12" vol="197" pos="1116"/>
          <note pan="0" key="44" len="12" vol="197" pos="1128"/>
          <note pan="0" key="44" len="12" vol="197" pos="1140"/>
          <note pan="0" key="45" len="12" vol="197" pos="1152"/>
          <note pan="0" key="45" len="12" vol="197" pos="1164"/>
          <note pan="0" key="45" len="12" vol="197" pos="1176"/>
          <note pan="0" key="45" len="12" vol="197" pos="1188"/>
          <note pan="0" key="45" len="12" vol="197" pos="1200"/>
          <note pan="0" key="45" len="12" vol="197" pos="1212"/>
          <note pan="0" key="45" len="12" vol="197" pos="1224"/>
          <note pan="0" key="45" len="12" vol="197" pos="1236"/>
          <note pan="0" key="45" len="12" vol="197" pos="1248"/>
          <note pan="0" key="45" len="12" vol="197" pos="1260"/>
          <note pan="0" key="45" len="12" vol="197" pos="1272"/>
          <note pan="0" key="45" len="12" vol="197" pos="1284"/>
          <note pan="0" key="45" len="12" vol="197" pos="1296"/>
          <note pan="0" key="45" len="12" vol="197" pos="1308"/>
          <note pan="0" key="45" len="12" vol="197" pos="1320"/>
          <note pan="0" key="45" len="12" vol="197" pos="1332"/>
          <note pan="0" key="54" len="48" vol="197" pos="1344"/>
          <note pan="0" key="47" len="48" vol="197" pos="1344"/>
          <note pan="0" key="0" len="12" vol="197" pos="1344"/>
          <note pan="0" key="54" len="48" vol="197" pos="1392"/>
          <note pan="0" key="47" len="48" vol="197" pos="1392"/>
          <note pan="0" key="51" len="48" vol="197" pos="1440"/>
          <note pan="0" key="44" len="48" vol="197" pos="1440"/>
          <note pan="0" key="54" len="48" vol="197" pos="1488"/>
          <note pan="0" key="47" len="48" vol="197" pos="1488"/>
        </pattern>
        <pattern steps="16" muted="0" pos="36480" name="" type="1">
          <note pan="0" key="49" len="24" vol="197" pos="0"/>
          <note pan="0" key="0" len="12" vol="197" pos="0"/>
          <note pan="0" key="47" len="24" vol="197" pos="24"/>
          <note pan="0" key="49" len="24" vol="197" pos="48"/>
          <note pan="0" key="56" len="24" vol="197" pos="72"/>
          <note pan="0" key="1" len="12" vol="197" pos="84"/>
          <note pan="0" key="49" len="12" vol="197" pos="96"/>
          <note pan="0" key="49" len="12" vol="197" pos="108"/>
          <note pan="0" key="49" len="12" vol="197" pos="120"/>
          <note pan="0" key="49" len="12" vol="197" pos="132"/>
          <note pan="0" key="49" len="12" vol="197" pos="144"/>
          <note pan="0" key="49" len="12" vol="197" pos="156"/>
          <note pan="0" key="49" len="12" vol="197" pos="168"/>
          <note pan="0" key="49" len="12" vol="197" pos="180"/>
        </pattern>
        <pattern steps="16" muted="0" pos="36672" name="" type="1">
          <note pan="0" key="42" len="24" vol="197" pos="0"/>
          <note pan="0" key="0" len="12" vol="197" pos="0"/>
          <note pan="0" key="40" len="24" vol="197" pos="24"/>
          <note pan="0" key="42" len="24" vol="197" pos="48"/>
          <note pan="0" key="49" len="24" vol="197" pos="72"/>
          <note pan="0" key="1" len="12" vol="197" pos="84"/>
          <note pan="0" key="42" len="12" vol="197" pos="96"/>
          <note pan="0" key="42" len="12" vol="197" pos="108"/>
          <note pan="0" key="42" len="12" vol="197" pos="120"/>
          <note pan="0" key="42" len="12" vol="197" pos="132"/>
          <note pan="0" key="42" len="12" vol="197" pos="144"/>
          <note pan="0" key="42" len="12" vol="197" pos="156"/>
          <note pan="0" key="42" len="12" vol="197" pos="168"/>
          <note pan="0" key="42" len="12" vol="197" pos="180"/>
        </pattern>
        <pattern steps="16" muted="0" pos="36864" name="" type="1">
          <note pan="0" key="44" len="24" vol="78" pos="0"/>
          <note pan="0" key="1" len="24" vol="78" pos="0"/>
          <note pan="0" key="47" len="24" vol="78" pos="24"/>
          <note pan="0" key="44" len="24" vol="78" pos="48"/>
          <note pan="0" key="0" len="24" vol="78" pos="60"/>
          <note pan="0" key="51" len="48" vol="78" pos="72"/>
          <note pan="0" key="1" len="24" vol="78" pos="108"/>
          <note pan="0" key="44" len="24" vol="78" pos="120"/>
          <note pan="0" key="47" len="24" vol="78" pos="144"/>
          <note pan="0" key="51" len="24" vol="78" pos="168"/>
          <note pan="0" key="45" len="12" vol="78" pos="192"/>
          <note pan="0" key="45" len="12" vol="78" pos="204"/>
          <note pan="0" key="45" len="12" vol="78" pos="216"/>
          <note pan="0" key="45" len="12" vol="78" pos="228"/>
          <note pan="0" key="45" len="12" vol="78" pos="240"/>
          <note pan="0" key="45" len="12" vol="78" pos="252"/>
          <note pan="0" key="49" len="12" vol="78" pos="264"/>
          <note pan="0" key="49" len="12" vol="78" pos="276"/>
          <note pan="0" key="47" len="12" vol="78" pos="288"/>
          <note pan="0" key="47" len="12" vol="78" pos="300"/>
          <note pan="0" key="47" len="12" vol="78" pos="312"/>
          <note pan="0" key="47" len="12" vol="78" pos="324"/>
          <note pan="0" key="51" len="12" vol="78" pos="336"/>
          <note pan="0" key="51" len="12" vol="78" pos="348"/>
          <note pan="0" key="47" len="12" vol="78" pos="360"/>
          <note pan="0" key="47" len="12" vol="78" pos="372"/>
        </pattern>
        <pattern steps="16" muted="0" pos="38784" name="" type="1">
          <note pan="0" key="42" len="24" vol="197" pos="0"/>
          <note pan="0" key="1" len="24" vol="197" pos="0"/>
          <note pan="0" key="40" len="24" vol="197" pos="24"/>
          <note pan="0" key="42" len="24" vol="197" pos="48"/>
          <note pan="0" key="0" len="24" vol="197" pos="60"/>
          <note pan="0" key="49" len="24" vol="197" pos="72"/>
          <note pan="0" key="1" len="24" vol="197" pos="84"/>
          <note pan="0" key="42" len="24" vol="197" pos="96"/>
          <note pan="0" key="0" len="24" vol="197" pos="108"/>
          <note pan="0" key="52" len="24" vol="197" pos="120"/>
          <note pan="0" key="47" len="24" vol="197" pos="144"/>
          <note pan="0" key="49" len="24" vol="197" pos="168"/>
          <note pan="0" key="42" len="24" vol="197" pos="192"/>
          <note pan="0" key="40" len="24" vol="197" pos="216"/>
          <note pan="0" key="42" len="24" vol="197" pos="240"/>
          <note pan="0" key="49" len="24" vol="197" pos="264"/>
          <note pan="0" key="42" len="24" vol="197" pos="288"/>
          <note pan="0" key="52" len="24" vol="197" pos="312"/>
          <note pan="0" key="54" len="24" vol="197" pos="336"/>
          <note pan="0" key="52" len="24" vol="197" pos="360"/>
        </pattern>
        <pattern steps="16" muted="0" pos="37248" name="" type="1">
          <note pan="0" key="49" len="24" vol="197" pos="0"/>
          <note pan="0" key="0" len="12" vol="197" pos="0"/>
          <note pan="0" key="47" len="24" vol="197" pos="24"/>
          <note pan="0" key="49" len="24" vol="197" pos="48"/>
          <note pan="0" key="56" len="24" vol="197" pos="72"/>
          <note pan="0" key="1" len="12" vol="197" pos="84"/>
          <note pan="0" key="49" len="12" vol="197" pos="96"/>
          <note pan="0" key="49" len="12" vol="197" pos="108"/>
          <note pan="0" key="49" len="12" vol="197" pos="120"/>
          <note pan="0" key="49" len="12" vol="197" pos="132"/>
          <note pan="0" key="49" len="12" vol="197" pos="144"/>
          <note pan="0" key="49" len="12" vol="197" pos="156"/>
          <note pan="0" key="49" len="12" vol="197" pos="168"/>
          <note pan="0" key="49" len="12" vol="197" pos="180"/>
        </pattern>
        <pattern steps="16" muted="0" pos="37440" name="" type="1">
          <note pan="0" key="42" len="24" vol="197" pos="0"/>
          <note pan="0" key="0" len="12" vol="197" pos="0"/>
          <note pan="0" key="40" len="24" vol="197" pos="24"/>
          <note pan="0" key="42" len="24" vol="197" pos="48"/>
          <note pan="0" key="49" len="24" vol="197" pos="72"/>
          <note pan="0" key="1" len="12" vol="197" pos="84"/>
          <note pan="0" key="42" len="12" vol="197" pos="96"/>
          <note pan="0" key="42" len="12" vol="197" pos="108"/>
          <note pan="0" key="42" len="12" vol="197" pos="120"/>
          <note pan="0" key="42" len="12" vol="197" pos="132"/>
          <note pan="0" key="42" len="12" vol="197" pos="144"/>
          <note pan="0" key="42" len="12" vol="197" pos="156"/>
          <note pan="0" key="42" len="12" vol="197" pos="168"/>
          <note pan="0" key="42" len="12" vol="197" pos="180"/>
        </pattern>
        <pattern steps="16" muted="0" pos="37632" name="" type="1">
          <note pan="0" key="44" len="24" vol="78" pos="0"/>
          <note pan="0" key="1" len="24" vol="78" pos="0"/>
          <note pan="0" key="47" len="24" vol="78" pos="24"/>
          <note pan="0" key="44" len="24" vol="78" pos="48"/>
          <note pan="0" key="0" len="24" vol="78" pos="60"/>
          <note pan="0" key="51" len="48" vol="78" pos="72"/>
          <note pan="0" key="1" len="24" vol="78" pos="108"/>
          <note pan="0" key="44" len="24" vol="78" pos="120"/>
          <note pan="0" key="47" len="24" vol="78" pos="144"/>
          <note pan="0" key="51" len="24" vol="78" pos="168"/>
          <note pan="0" key="45" len="12" vol="78" pos="192"/>
          <note pan="0" key="45" len="12" vol="78" pos="204"/>
          <note pan="0" key="45" len="12" vol="78" pos="216"/>
          <note pan="0" key="45" len="12" vol="78" pos="228"/>
          <note pan="0" key="45" len="12" vol="78" pos="240"/>
          <note pan="0" key="45" len="12" vol="78" pos="252"/>
          <note pan="0" key="49" len="12" vol="78" pos="264"/>
          <note pan="0" key="49" len="12" vol="78" pos="276"/>
          <note pan="0" key="47" len="12" vol="78" pos="288"/>
          <note pan="0" key="47" len="12" vol="78" pos="300"/>
          <note pan="0" key="47" len="12" vol="78" pos="312"/>
          <note pan="0" key="47" len="12" vol="78" pos="324"/>
          <note pan="0" key="51" len="12" vol="78" pos="336"/>
          <note pan="0" key="51" len="12" vol="78" pos="348"/>
          <note pan="0" key="47" len="12" vol="78" pos="360"/>
          <note pan="0" key="47" len="12" vol="78" pos="372"/>
        </pattern>
        <pattern steps="16" muted="0" pos="38016" name="" type="1">
          <note pan="0" key="38" len="12" vol="200" pos="0"/>
          <note pan="0" key="1" len="24" vol="200" pos="0"/>
          <note pan="0" key="38" len="12" vol="200" pos="12"/>
          <note pan="0" key="38" len="24" vol="200" pos="24"/>
          <note pan="0" key="38" len="12" vol="200" pos="48"/>
          <note pan="0" key="38" len="12" vol="200" pos="60"/>
          <note pan="0" key="38" len="24" vol="200" pos="72"/>
          <note pan="0" key="38" len="12" vol="200" pos="96"/>
          <note pan="0" key="38" len="12" vol="200" pos="108"/>
          <note pan="0" key="38" len="24" vol="200" pos="120"/>
          <note pan="0" key="38" len="12" vol="200" pos="144"/>
          <note pan="0" key="38" len="12" vol="200" pos="156"/>
          <note pan="0" key="38" len="24" vol="200" pos="168"/>
          <note pan="0" key="38" len="12" vol="200" pos="192"/>
          <note pan="0" key="38" len="12" vol="200" pos="204"/>
          <note pan="0" key="38" len="24" vol="200" pos="216"/>
          <note pan="0" key="38" len="12" vol="200" pos="240"/>
          <note pan="0" key="38" len="12" vol="200" pos="252"/>
          <note pan="0" key="38" len="24" vol="200" pos="264"/>
          <note pan="0" key="38" len="12" vol="200" pos="288"/>
          <note pan="0" key="38" len="12" vol="200" pos="300"/>
          <note pan="0" key="38" len="24" vol="200" pos="312"/>
          <note pan="0" key="38" len="12" vol="200" pos="336"/>
          <note pan="0" key="38" len="12" vol="200" pos="348"/>
          <note pan="0" key="38" len="24" vol="200" pos="360"/>
          <note pan="0" key="37" len="12" vol="200" pos="384"/>
          <note pan="0" key="37" len="12" vol="200" pos="396"/>
          <note pan="0" key="37" len="24" vol="200" pos="408"/>
          <note pan="0" key="37" len="12" vol="200" pos="432"/>
          <note pan="0" key="37" len="12" vol="200" pos="444"/>
          <note pan="0" key="37" len="24" vol="200" pos="456"/>
          <note pan="0" key="37" len="12" vol="200" pos="480"/>
          <note pan="0" key="37" len="12" vol="200" pos="492"/>
          <note pan="0" key="37" len="24" vol="200" pos="504"/>
          <note pan="0" key="37" len="12" vol="200" pos="528"/>
          <note pan="0" key="37" len="12" vol="200" pos="540"/>
          <note pan="0" key="37" len="24" vol="200" pos="552"/>
          <note pan="0" key="35" len="12" vol="200" pos="576"/>
          <note pan="0" key="35" len="12" vol="200" pos="588"/>
          <note pan="0" key="35" len="24" vol="200" pos="600"/>
          <note pan="0" key="35" len="12" vol="200" pos="624"/>
          <note pan="0" key="35" len="12" vol="200" pos="636"/>
          <note pan="0" key="35" len="24" vol="200" pos="648"/>
          <note pan="0" key="35" len="12" vol="200" pos="672"/>
          <note pan="0" key="35" len="12" vol="200" pos="684"/>
          <note pan="0" key="35" len="24" vol="200" pos="696"/>
          <note pan="0" key="35" len="12" vol="200" pos="720"/>
          <note pan="0" key="35" len="12" vol="200" pos="732"/>
          <note pan="0" key="35" len="24" vol="200" pos="744"/>
        </pattern>
        <pattern steps="16" muted="0" pos="39168" name="" type="1">
          <note pan="0" key="46" len="24" vol="78" pos="0"/>
          <note pan="0" key="39" len="24" vol="78" pos="0"/>
          <note pan="0" key="0" len="12" vol="78" pos="0"/>
          <note pan="0" key="1" len="12" vol="78" pos="12"/>
          <note pan="0" key="39" len="12" vol="78" pos="24"/>
          <note pan="0" key="39" len="12" vol="78" pos="36"/>
          <note pan="0" key="39" len="12" vol="78" pos="48"/>
          <note pan="0" key="39" len="12" vol="78" pos="60"/>
          <note pan="0" key="39" len="12" vol="78" pos="72"/>
          <note pan="0" key="39" len="12" vol="78" pos="84"/>
          <note pan="0" key="39" len="12" vol="78" pos="96"/>
          <note pan="0" key="39" len="12" vol="78" pos="108"/>
          <note pan="0" key="39" len="12" vol="78" pos="120"/>
          <note pan="0" key="39" len="12" vol="78" pos="132"/>
          <note pan="0" key="39" len="12" vol="78" pos="144"/>
          <note pan="0" key="39" len="12" vol="78" pos="156"/>
          <note pan="0" key="39" len="12" vol="78" pos="168"/>
          <note pan="0" key="39" len="12" vol="78" pos="180"/>
          <note pan="0" key="52" len="96" vol="78" pos="192"/>
          <note pan="0" key="45" len="96" vol="78" pos="192"/>
          <note pan="0" key="0" len="12" vol="78" pos="192"/>
          <note pan="0" key="51" len="96" vol="78" pos="288"/>
          <note pan="0" key="44" len="96" vol="78" pos="288"/>
        </pattern>
        <pattern steps="16" muted="0" pos="39552" name="" type="1">
          <note pan="0" key="44" len="48" vol="195" pos="0"/>
          <note pan="0" key="37" len="48" vol="195" pos="0"/>
          <note pan="0" key="0" len="36" vol="195" pos="0"/>
          <note pan="0" key="1" len="36" vol="195" pos="36"/>
          <note pan="0" key="37" len="12" vol="195" pos="48"/>
          <note pan="0" key="37" len="12" vol="195" pos="60"/>
          <note pan="0" key="37" len="12" vol="195" pos="72"/>
          <note pan="0" key="37" len="12" vol="195" pos="84"/>
          <note pan="0" key="37" len="12" vol="195" pos="96"/>
          <note pan="0" key="37" len="12" vol="195" pos="108"/>
          <note pan="0" key="37" len="12" vol="195" pos="120"/>
          <note pan="0" key="37" len="12" vol="195" pos="132"/>
          <note pan="0" key="37" len="12" vol="195" pos="144"/>
          <note pan="0" key="37" len="12" vol="195" pos="156"/>
          <note pan="0" key="37" len="12" vol="195" pos="168"/>
          <note pan="0" key="37" len="12" vol="195" pos="180"/>
          <note pan="0" key="0" len="36" vol="195" pos="180"/>
          <note pan="0" key="51" len="48" vol="195" pos="192"/>
          <note pan="0" key="44" len="48" vol="195" pos="192"/>
          <note pan="0" key="1" len="36" vol="195" pos="216"/>
          <note pan="0" key="44" len="12" vol="195" pos="240"/>
          <note pan="0" key="44" len="12" vol="195" pos="252"/>
          <note pan="0" key="44" len="12" vol="195" pos="264"/>
          <note pan="0" key="44" len="12" vol="195" pos="276"/>
          <note pan="0" key="44" len="12" vol="195" pos="288"/>
          <note pan="0" key="44" len="12" vol="195" pos="300"/>
          <note pan="0" key="44" len="12" vol="195" pos="312"/>
          <note pan="0" key="44" len="12" vol="195" pos="324"/>
          <note pan="0" key="44" len="12" vol="195" pos="336"/>
          <note pan="0" key="44" len="12" vol="195" pos="348"/>
          <note pan="0" key="44" len="12" vol="195" pos="360"/>
          <note pan="0" key="44" len="12" vol="195" pos="372"/>
          <note pan="0" key="0" len="36" vol="195" pos="372"/>
          <note pan="0" key="52" len="48" vol="195" pos="384"/>
          <note pan="0" key="45" len="48" vol="195" pos="384"/>
          <note pan="0" key="1" len="36" vol="195" pos="408"/>
          <note pan="0" key="45" len="12" vol="195" pos="432"/>
          <note pan="0" key="45" len="12" vol="195" pos="444"/>
          <note pan="0" key="45" len="12" vol="195" pos="456"/>
          <note pan="0" key="45" len="12" vol="195" pos="468"/>
          <note pan="0" key="45" len="12" vol="195" pos="480"/>
          <note pan="0" key="45" len="12" vol="195" pos="492"/>
          <note pan="0" key="45" len="12" vol="195" pos="504"/>
          <note pan="0" key="45" len="12" vol="195" pos="516"/>
          <note pan="0" key="45" len="12" vol="195" pos="528"/>
          <note pan="0" key="45" len="12" vol="195" pos="540"/>
          <note pan="0" key="45" len="12" vol="195" pos="552"/>
          <note pan="0" key="45" len="12" vol="195" pos="564"/>
          <note pan="0" key="0" len="36" vol="195" pos="564"/>
          <note pan="0" key="54" len="48" vol="195" pos="576"/>
          <note pan="0" key="47" len="48" vol="195" pos="576"/>
          <note pan="0" key="1" len="36" vol="195" pos="600"/>
          <note pan="0" key="47" len="12" vol="195" pos="624"/>
          <note pan="0" key="47" len="12" vol="195" pos="636"/>
          <note pan="0" key="47" len="12" vol="195" pos="648"/>
          <note pan="0" key="47" len="12" vol="195" pos="660"/>
          <note pan="0" key="47" len="12" vol="195" pos="672"/>
          <note pan="0" key="47" len="12" vol="195" pos="684"/>
          <note pan="0" key="47" len="12" vol="195" pos="696"/>
          <note pan="0" key="47" len="12" vol="195" pos="708"/>
          <note pan="0" key="47" len="12" vol="195" pos="720"/>
          <note pan="0" key="47" len="12" vol="195" pos="732"/>
          <note pan="0" key="47" len="12" vol="195" pos="744"/>
          <note pan="0" key="47" len="12" vol="195" pos="756"/>
          <note pan="0" key="49" len="48" vol="195" pos="768"/>
          <note pan="0" key="42" len="48" vol="195" pos="768"/>
          <note pan="0" key="0" len="36" vol="195" pos="768"/>
          <note pan="0" key="1" len="36" vol="195" pos="792"/>
          <note pan="0" key="42" len="12" vol="195" pos="816"/>
          <note pan="0" key="42" len="12" vol="195" pos="828"/>
          <note pan="0" key="42" len="12" vol="195" pos="840"/>
          <note pan="0" key="42" len="12" vol="195" pos="852"/>
          <note pan="0" key="42" len="12" vol="195" pos="864"/>
          <note pan="0" key="42" len="12" vol="195" pos="876"/>
          <note pan="0" key="42" len="12" vol="195" pos="888"/>
          <note pan="0" key="42" len="12" vol="195" pos="900"/>
          <note pan="0" key="42" len="12" vol="195" pos="912"/>
          <note pan="0" key="42" len="12" vol="195" pos="924"/>
          <note pan="0" key="42" len="12" vol="195" pos="936"/>
          <note pan="0" key="42" len="12" vol="195" pos="948"/>
          <note pan="0" key="0" len="36" vol="195" pos="948"/>
          <note pan="0" key="51" len="48" vol="195" pos="960"/>
          <note pan="0" key="44" len="48" vol="195" pos="960"/>
          <note pan="0" key="1" len="36" vol="195" pos="984"/>
          <note pan="0" key="44" len="12" vol="195" pos="1008"/>
          <note pan="0" key="44" len="12" vol="195" pos="1020"/>
          <note pan="0" key="44" len="12" vol="195" pos="1032"/>
          <note pan="0" key="44" len="12" vol="195" pos="1044"/>
          <note pan="0" key="44" len="12" vol="195" pos="1056"/>
          <note pan="0" key="44" len="12" vol="195" pos="1068"/>
          <note pan="0" key="44" len="12" vol="195" pos="1080"/>
          <note pan="0" key="44" len="12" vol="195" pos="1092"/>
          <note pan="0" key="44" len="12" vol="195" pos="1104"/>
          <note pan="0" key="44" len="12" vol="195" pos="1116"/>
          <note pan="0" key="44" len="12" vol="195" pos="1128"/>
          <note pan="0" key="44" len="12" vol="195" pos="1140"/>
          <note pan="0" key="0" len="36" vol="195" pos="1140"/>
          <note pan="0" key="52" len="48" vol="195" pos="1152"/>
          <note pan="0" key="45" len="48" vol="195" pos="1152"/>
          <note pan="0" key="1" len="36" vol="195" pos="1176"/>
          <note pan="0" key="45" len="12" vol="195" pos="1200"/>
          <note pan="0" key="45" len="12" vol="195" pos="1212"/>
          <note pan="0" key="45" len="12" vol="195" pos="1224"/>
          <note pan="0" key="45" len="12" vol="195" pos="1236"/>
          <note pan="0" key="45" len="12" vol="195" pos="1248"/>
          <note pan="0" key="45" len="12" vol="195" pos="1260"/>
          <note pan="0" key="45" len="12" vol="195" pos="1272"/>
          <note pan="0" key="45" len="12" vol="195" pos="1284"/>
          <note pan="0" key="45" len="12" vol="195" pos="1296"/>
          <note pan="0" key="45" len="12" vol="195" pos="1308"/>
          <note pan="0" key="45" len="12" vol="195" pos="1320"/>
          <note pan="0" key="45" len="12" vol="195" pos="1332"/>
          <note pan="0" key="0" len="36" vol="195" pos="1332"/>
          <note pan="0" key="54" len="48" vol="195" pos="1344"/>
          <note pan="0" key="47" len="48" vol="195" pos="1344"/>
          <note pan="0" key="1" len="36" vol="195" pos="1368"/>
          <note pan="0" key="47" len="12" vol="195" pos="1392"/>
          <note pan="0" key="47" len="12" vol="195" pos="1404"/>
          <note pan="0" key="47" len="12" vol="195" pos="1416"/>
          <note pan="0" key="47" len="12" vol="195" pos="1428"/>
          <note pan="0" key="48" len="12" vol="195" pos="1440"/>
          <note pan="0" key="48" len="12" vol="195" pos="1452"/>
          <note pan="0" key="48" len="12" vol="195" pos="1464"/>
          <note pan="0" key="1" len="36" vol="195" pos="1464"/>
          <note pan="0" key="48" len="12" vol="195" pos="1476"/>
          <note pan="0" key="48" len="12" vol="195" pos="1488"/>
          <note pan="0" key="48" len="12" vol="195" pos="1500"/>
          <note pan="0" key="48" len="12" vol="195" pos="1512"/>
          <note pan="0" key="48" len="12" vol="195" pos="1524"/>
          <note pan="0" key="0" len="36" vol="195" pos="1524"/>
          <note pan="0" key="44" len="48" vol="195" pos="1536"/>
          <note pan="0" key="37" len="48" vol="195" pos="1536"/>
          <note pan="0" key="1" len="36" vol="195" pos="1560"/>
          <note pan="0" key="37" len="12" vol="195" pos="1584"/>
          <note pan="0" key="37" len="12" vol="195" pos="1596"/>
          <note pan="0" key="37" len="12" vol="195" pos="1608"/>
          <note pan="0" key="37" len="12" vol="195" pos="1620"/>
          <note pan="0" key="37" len="12" vol="195" pos="1632"/>
          <note pan="0" key="37" len="12" vol="195" pos="1644"/>
          <note pan="0" key="37" len="12" vol="195" pos="1656"/>
          <note pan="0" key="37" len="12" vol="195" pos="1668"/>
          <note pan="0" key="37" len="12" vol="195" pos="1680"/>
          <note pan="0" key="37" len="12" vol="195" pos="1692"/>
          <note pan="0" key="37" len="12" vol="195" pos="1704"/>
          <note pan="0" key="37" len="12" vol="195" pos="1716"/>
          <note pan="0" key="0" len="36" vol="195" pos="1716"/>
          <note pan="0" key="54" len="48" vol="195" pos="1728"/>
          <note pan="0" key="47" len="48" vol="195" pos="1728"/>
          <note pan="0" key="1" len="36" vol="195" pos="1752"/>
          <note pan="0" key="47" len="12" vol="195" pos="1776"/>
          <note pan="0" key="47" len="12" vol="195" pos="1788"/>
          <note pan="0" key="47" len="12" vol="195" pos="1800"/>
          <note pan="0" key="47" len="12" vol="195" pos="1812"/>
          <note pan="0" key="47" len="12" vol="195" pos="1824"/>
          <note pan="0" key="47" len="12" vol="195" pos="1836"/>
          <note pan="0" key="47" len="12" vol="195" pos="1848"/>
          <note pan="0" key="47" len="12" vol="195" pos="1860"/>
          <note pan="0" key="47" len="12" vol="195" pos="1872"/>
          <note pan="0" key="47" len="12" vol="195" pos="1884"/>
          <note pan="0" key="47" len="12" vol="195" pos="1896"/>
          <note pan="0" key="47" len="12" vol="195" pos="1908"/>
          <note pan="0" key="0" len="36" vol="195" pos="1908"/>
          <note pan="0" key="54" len="48" vol="195" pos="1920"/>
          <note pan="0" key="46" len="48" vol="195" pos="1920"/>
          <note pan="0" key="1" len="36" vol="195" pos="1944"/>
          <note pan="0" key="46" len="12" vol="195" pos="1968"/>
          <note pan="0" key="46" len="12" vol="195" pos="1980"/>
          <note pan="0" key="46" len="12" vol="195" pos="1992"/>
          <note pan="0" key="46" len="12" vol="195" pos="2004"/>
          <note pan="0" key="46" len="12" vol="195" pos="2016"/>
          <note pan="0" key="46" len="12" vol="195" pos="2028"/>
          <note pan="0" key="46" len="12" vol="195" pos="2040"/>
          <note pan="0" key="46" len="12" vol="195" pos="2052"/>
          <note pan="0" key="46" len="12" vol="195" pos="2064"/>
          <note pan="0" key="46" len="12" vol="195" pos="2076"/>
          <note pan="0" key="46" len="12" vol="195" pos="2088"/>
          <note pan="0" key="46" len="12" vol="195" pos="2100"/>
          <note pan="0" key="0" len="36" vol="195" pos="2100"/>
          <note pan="0" key="49" len="48" vol="195" pos="2112"/>
          <note pan="0" key="42" len="48" vol="195" pos="2112"/>
          <note pan="0" key="1" len="36" vol="195" pos="2136"/>
          <note pan="0" key="42" len="12" vol="195" pos="2160"/>
          <note pan="0" key="42" len="12" vol="195" pos="2172"/>
          <note pan="0" key="42" len="12" vol="195" pos="2184"/>
          <note pan="0" key="42" len="12" vol="195" pos="2196"/>
          <note pan="0" key="0" len="36" vol="195" pos="2196"/>
          <note pan="0" key="47" len="48" vol="195" pos="2208"/>
          <note pan="0" key="40" len="48" vol="195" pos="2208"/>
          <note pan="0" key="1" len="36" vol="195" pos="2232"/>
          <note pan="0" key="40" len="12" vol="195" pos="2256"/>
          <note pan="0" key="40" len="12" vol="195" pos="2268"/>
          <note pan="0" key="40" len="12" vol="195" pos="2280"/>
          <note pan="0" key="40" len="12" vol="195" pos="2292"/>
          <note pan="0" key="0" len="36" vol="195" pos="2292"/>
          <note pan="0" key="45" len="48" vol="195" pos="2304"/>
          <note pan="0" key="38" len="48" vol="195" pos="2304"/>
          <note pan="0" key="1" len="36" vol="195" pos="2328"/>
          <note pan="0" key="38" len="12" vol="195" pos="2352"/>
          <note pan="0" key="38" len="12" vol="195" pos="2364"/>
          <note pan="0" key="38" len="12" vol="195" pos="2376"/>
          <note pan="0" key="38" len="12" vol="195" pos="2388"/>
          <note pan="0" key="38" len="12" vol="195" pos="2400"/>
          <note pan="0" key="38" len="12" vol="195" pos="2412"/>
          <note pan="0" key="38" len="12" vol="195" pos="2424"/>
          <note pan="0" key="38" len="12" vol="195" pos="2436"/>
          <note pan="0" key="38" len="12" vol="195" pos="2448"/>
          <note pan="0" key="38" len="12" vol="195" pos="2460"/>
          <note pan="0" key="38" len="12" vol="195" pos="2472"/>
          <note pan="0" key="38" len="12" vol="195" pos="2484"/>
          <note pan="0" key="0" len="36" vol="195" pos="2484"/>
          <note pan="0" key="52" len="48" vol="195" pos="2496"/>
          <note pan="0" key="45" len="48" vol="195" pos="2496"/>
          <note pan="0" key="1" len="36" vol="195" pos="2520"/>
          <note pan="0" key="45" len="12" vol="195" pos="2544"/>
          <note pan="0" key="45" len="12" vol="195" pos="2556"/>
          <note pan="0" key="45" len="12" vol="195" pos="2568"/>
          <note pan="0" key="45" len="12" vol="195" pos="2580"/>
          <note pan="0" key="45" len="12" vol="195" pos="2592"/>
          <note pan="0" key="45" len="12" vol="195" pos="2604"/>
          <note pan="0" key="45" len="12" vol="195" pos="2616"/>
          <note pan="0" key="45" len="12" vol="195" pos="2628"/>
          <note pan="0" key="45" len="12" vol="195" pos="2640"/>
          <note pan="0" key="45" len="12" vol="195" pos="2652"/>
          <note pan="0" key="45" len="12" vol="195" pos="2664"/>
          <note pan="0" key="45" len="12" vol="195" pos="2676"/>
          <note pan="0" key="42" len="384" vol="100" pos="2688"/>
          <note pan="0" key="35" len="384" vol="195" pos="2688"/>
          <note pan="0" key="0" len="36" vol="195" pos="2688"/>
        </pattern>
        <pattern steps="16" muted="0" pos="43776" name="" type="1">
          <note pan="0" key="0" len="96" vol="78" pos="0"/>
          <note pan="0" key="40" len="96" vol="78" pos="96"/>
          <note pan="0" key="33" len="96" vol="78" pos="96"/>
          <note pan="0" key="42" len="96" vol="78" pos="192"/>
          <note pan="0" key="35" len="96" vol="78" pos="192"/>
          <note pan="0" key="44" len="96" vol="78" pos="288"/>
          <note pan="0" key="37" len="96" vol="78" pos="288"/>
        </pattern>
        <pattern steps="16" muted="0" pos="44160" name="" type="1">
          <note pan="0" key="46" len="48" vol="195" pos="0"/>
          <note pan="0" key="39" len="48" vol="195" pos="0"/>
          <note pan="0" key="0" len="36" vol="195" pos="0"/>
          <note pan="0" key="1" len="36" vol="195" pos="36"/>
          <note pan="0" key="39" len="12" vol="195" pos="48"/>
          <note pan="0" key="39" len="12" vol="195" pos="60"/>
          <note pan="0" key="39" len="12" vol="195" pos="72"/>
          <note pan="0" key="39" len="12" vol="195" pos="84"/>
          <note pan="0" key="39" len="12" vol="195" pos="96"/>
          <note pan="0" key="39" len="12" vol="195" pos="108"/>
          <note pan="0" key="39" len="12" vol="195" pos="120"/>
          <note pan="0" key="39" len="12" vol="195" pos="132"/>
          <note pan="0" key="39" len="12" vol="195" pos="144"/>
          <note pan="0" key="39" len="12" vol="195" pos="156"/>
          <note pan="0" key="39" len="12" vol="195" pos="168"/>
          <note pan="0" key="39" len="12" vol="195" pos="180"/>
          <note pan="0" key="0" len="36" vol="195" pos="180"/>
          <note pan="0" key="53" len="48" vol="195" pos="192"/>
          <note pan="0" key="46" len="48" vol="195" pos="192"/>
          <note pan="0" key="1" len="36" vol="195" pos="216"/>
          <note pan="0" key="46" len="12" vol="195" pos="240"/>
          <note pan="0" key="46" len="12" vol="195" pos="252"/>
          <note pan="0" key="46" len="12" vol="195" pos="264"/>
          <note pan="0" key="46" len="12" vol="195" pos="276"/>
          <note pan="0" key="46" len="12" vol="195" pos="288"/>
          <note pan="0" key="46" len="12" vol="195" pos="300"/>
          <note pan="0" key="46" len="12" vol="195" pos="312"/>
          <note pan="0" key="46" len="12" vol="195" pos="324"/>
          <note pan="0" key="46" len="12" vol="195" pos="336"/>
          <note pan="0" key="46" len="12" vol="195" pos="348"/>
          <note pan="0" key="46" len="12" vol="195" pos="360"/>
          <note pan="0" key="46" len="12" vol="195" pos="372"/>
          <note pan="0" key="0" len="36" vol="195" pos="372"/>
          <note pan="0" key="54" len="48" vol="195" pos="384"/>
          <note pan="0" key="47" len="48" vol="195" pos="384"/>
          <note pan="0" key="1" len="36" vol="195" pos="408"/>
          <note pan="0" key="47" len="12" vol="195" pos="432"/>
          <note pan="0" key="47" len="12" vol="195" pos="444"/>
          <note pan="0" key="47" len="12" vol="195" pos="456"/>
          <note pan="0" key="47" len="12" vol="195" pos="468"/>
          <note pan="0" key="47" len="12" vol="195" pos="480"/>
          <note pan="0" key="47" len="12" vol="195" pos="492"/>
          <note pan="0" key="47" len="12" vol="195" pos="504"/>
          <note pan="0" key="47" len="12" vol="195" pos="516"/>
          <note pan="0" key="47" len="12" vol="195" pos="528"/>
          <note pan="0" key="47" len="12" vol="195" pos="540"/>
          <note pan="0" key="47" len="12" vol="195" pos="552"/>
          <note pan="0" key="47" len="12" vol="195" pos="564"/>
          <note pan="0" key="0" len="36" vol="195" pos="564"/>
          <note pan="0" key="56" len="48" vol="195" pos="576"/>
          <note pan="0" key="49" len="48" vol="195" pos="576"/>
          <note pan="0" key="1" len="36" vol="195" pos="600"/>
          <note pan="0" key="49" len="12" vol="195" pos="624"/>
          <note pan="0" key="49" len="12" vol="195" pos="636"/>
          <note pan="0" key="49" len="12" vol="195" pos="648"/>
          <note pan="0" key="49" len="12" vol="195" pos="660"/>
          <note pan="0" key="49" len="12" vol="195" pos="672"/>
          <note pan="0" key="49" len="12" vol="195" pos="684"/>
          <note pan="0" key="49" len="12" vol="195" pos="696"/>
          <note pan="0" key="49" len="12" vol="195" pos="708"/>
          <note pan="0" key="49" len="12" vol="195" pos="720"/>
          <note pan="0" key="49" len="12" vol="195" pos="732"/>
          <note pan="0" key="49" len="12" vol="195" pos="744"/>
          <note pan="0" key="49" len="12" vol="195" pos="756"/>
          <note pan="0" key="51" len="48" vol="195" pos="768"/>
          <note pan="0" key="44" len="48" vol="195" pos="768"/>
          <note pan="0" key="0" len="36" vol="195" pos="768"/>
          <note pan="0" key="1" len="36" vol="195" pos="792"/>
          <note pan="0" key="44" len="12" vol="195" pos="816"/>
          <note pan="0" key="44" len="12" vol="195" pos="828"/>
          <note pan="0" key="44" len="12" vol="195" pos="840"/>
          <note pan="0" key="44" len="12" vol="195" pos="852"/>
          <note pan="0" key="44" len="12" vol="195" pos="864"/>
          <note pan="0" key="44" len="12" vol="195" pos="876"/>
          <note pan="0" key="44" len="12" vol="195" pos="888"/>
          <note pan="0" key="44" len="12" vol="195" pos="900"/>
          <note pan="0" key="44" len="12" vol="195" pos="912"/>
          <note pan="0" key="44" len="12" vol="195" pos="924"/>
          <note pan="0" key="44" len="12" vol="195" pos="936"/>
          <note pan="0" key="44" len="12" vol="195" pos="948"/>
          <note pan="0" key="0" len="36" vol="195" pos="948"/>
          <note pan="0" key="53" len="48" vol="195" pos="960"/>
          <note pan="0" key="46" len="48" vol="195" pos="960"/>
          <note pan="0" key="1" len="36" vol="195" pos="984"/>
          <note pan="0" key="46" len="12" vol="195" pos="1008"/>
          <note pan="0" key="46" len="12" vol="195" pos="1020"/>
          <note pan="0" key="46" len="12" vol="195" pos="1032"/>
          <note pan="0" key="46" len="12" vol="195" pos="1044"/>
          <note pan="0" key="46" len="12" vol="195" pos="1056"/>
          <note pan="0" key="46" len="12" vol="195" pos="1068"/>
          <note pan="0" key="46" len="12" vol="195" pos="1080"/>
          <note pan="0" key="46" len="12" vol="195" pos="1092"/>
          <note pan="0" key="46" len="12" vol="195" pos="1104"/>
          <note pan="0" key="46" len="12" vol="195" pos="1116"/>
          <note pan="0" key="46" len="12" vol="195" pos="1128"/>
          <note pan="0" key="46" len="12" vol="195" pos="1140"/>
          <note pan="0" key="0" len="36" vol="195" pos="1140"/>
          <note pan="0" key="54" len="48" vol="195" pos="1152"/>
          <note pan="0" key="47" len="48" vol="195" pos="1152"/>
          <note pan="0" key="1" len="36" vol="195" pos="1176"/>
          <note pan="0" key="47" len="12" vol="195" pos="1200"/>
          <note pan="0" key="47" len="12" vol="195" pos="1212"/>
          <note pan="0" key="47" len="12" vol="195" pos="1224"/>
          <note pan="0" key="47" len="12" vol="195" pos="1236"/>
          <note pan="0" key="47" len="12" vol="195" pos="1248"/>
          <note pan="0" key="47" len="12" vol="195" pos="1260"/>
          <note pan="0" key="47" len="12" vol="195" pos="1272"/>
          <note pan="0" key="47" len="12" vol="195" pos="1284"/>
          <note pan="0" key="47" len="12" vol="195" pos="1296"/>
          <note pan="0" key="47" len="12" vol="195" pos="1308"/>
          <note pan="0" key="47" len="12" vol="195" pos="1320"/>
          <note pan="0" key="47" len="12" vol="195" pos="1332"/>
          <note pan="0" key="56" len="12" vol="197" pos="1344"/>
          <note pan="0" key="56" len="12" vol="197" pos="1356"/>
          <note pan="0" key="58" len="12" vol="197" pos="1368"/>
          <note pan="0" key="58" len="12" vol="197" pos="1380"/>
          <note pan="0" key="56" len="12" vol="197" pos="1392"/>
          <note pan="0" key="56" len="12" vol="197" pos="1404"/>
          <note pan="0" key="54" len="12" vol="197" pos="1416"/>
          <note pan="0" key="54" len="12" vol="197" pos="1428"/>
          <note pan="0" key="53" len="12" vol="197" pos="1440"/>
          <note pan="0" key="53" len="12" vol="197" pos="1452"/>
          <note pan="0" key="51" len="12" vol="197" pos="1464"/>
          <note pan="0" key="51" len="12" vol="197" pos="1476"/>
          <note pan="0" key="50" len="12" vol="197" pos="1488"/>
          <note pan="0" key="50" len="12" vol="197" pos="1500"/>
          <note pan="0" key="46" len="12" vol="197" pos="1512"/>
          <note pan="0" key="46" len="12" vol="197" pos="1524"/>
          <note pan="0" key="0" len="36" vol="195" pos="1524"/>
          <note pan="0" key="46" len="48" vol="195" pos="1536"/>
          <note pan="0" key="39" len="48" vol="195" pos="1536"/>
          <note pan="0" key="1" len="36" vol="195" pos="1560"/>
          <note pan="0" key="39" len="12" vol="195" pos="1584"/>
          <note pan="0" key="39" len="12" vol="195" pos="1596"/>
          <note pan="0" key="39" len="12" vol="195" pos="1608"/>
          <note pan="0" key="39" len="12" vol="195" pos="1620"/>
          <note pan="0" key="39" len="12" vol="195" pos="1632"/>
          <note pan="0" key="39" len="12" vol="195" pos="1644"/>
          <note pan="0" key="39" len="12" vol="195" pos="1656"/>
          <note pan="0" key="39" len="12" vol="195" pos="1668"/>
          <note pan="0" key="39" len="12" vol="195" pos="1680"/>
          <note pan="0" key="39" len="12" vol="195" pos="1692"/>
          <note pan="0" key="39" len="12" vol="195" pos="1704"/>
          <note pan="0" key="39" len="12" vol="195" pos="1716"/>
          <note pan="0" key="0" len="36" vol="195" pos="1716"/>
          <note pan="0" key="56" len="48" vol="195" pos="1728"/>
          <note pan="0" key="49" len="48" vol="195" pos="1728"/>
          <note pan="0" key="1" len="36" vol="195" pos="1752"/>
          <note pan="0" key="49" len="12" vol="195" pos="1776"/>
          <note pan="0" key="49" len="12" vol="195" pos="1788"/>
          <note pan="0" key="49" len="12" vol="195" pos="1800"/>
          <note pan="0" key="49" len="12" vol="195" pos="1812"/>
          <note pan="0" key="49" len="12" vol="195" pos="1824"/>
          <note pan="0" key="49" len="12" vol="195" pos="1836"/>
          <note pan="0" key="49" len="12" vol="195" pos="1848"/>
          <note pan="0" key="49" len="12" vol="195" pos="1860"/>
          <note pan="0" key="49" len="12" vol="195" pos="1872"/>
          <note pan="0" key="49" len="12" vol="195" pos="1884"/>
          <note pan="0" key="49" len="12" vol="195" pos="1896"/>
          <note pan="0" key="49" len="12" vol="195" pos="1908"/>
          <note pan="0" key="0" len="36" vol="195" pos="1908"/>
          <note pan="0" key="56" len="48" vol="195" pos="1920"/>
          <note pan="0" key="48" len="48" vol="195" pos="1920"/>
          <note pan="0" key="1" len="36" vol="195" pos="1944"/>
          <note pan="0" key="48" len="12" vol="195" pos="1968"/>
          <note pan="0" key="48" len="12" vol="195" pos="1980"/>
          <note pan="0" key="48" len="12" vol="195" pos="1992"/>
          <note pan="0" key="48" len="12" vol="195" pos="2004"/>
          <note pan="0" key="48" len="12" vol="195" pos="2016"/>
          <note pan="0" key="48" len="12" vol="195" pos="2028"/>
          <note pan="0" key="48" len="12" vol="195" pos="2040"/>
          <note pan="0" key="48" len="12" vol="195" pos="2052"/>
          <note pan="0" key="48" len="12" vol="195" pos="2064"/>
          <note pan="0" key="48" len="12" vol="195" pos="2076"/>
          <note pan="0" key="48" len="12" vol="195" pos="2088"/>
          <note pan="0" key="48" len="12" vol="195" pos="2100"/>
          <note pan="0" key="0" len="36" vol="195" pos="2100"/>
          <note pan="0" key="51" len="48" vol="195" pos="2112"/>
          <note pan="0" key="44" len="48" vol="195" pos="2112"/>
          <note pan="0" key="1" len="36" vol="195" pos="2136"/>
          <note pan="0" key="44" len="12" vol="195" pos="2160"/>
          <note pan="0" key="44" len="12" vol="195" pos="2172"/>
          <note pan="0" key="44" len="12" vol="195" pos="2184"/>
          <note pan="0" key="44" len="12" vol="195" pos="2196"/>
          <note pan="0" key="0" len="36" vol="195" pos="2196"/>
          <note pan="0" key="49" len="48" vol="195" pos="2208"/>
          <note pan="0" key="42" len="48" vol="195" pos="2208"/>
          <note pan="0" key="1" len="36" vol="195" pos="2232"/>
          <note pan="0" key="42" len="12" vol="195" pos="2256"/>
          <note pan="0" key="42" len="12" vol="195" pos="2268"/>
          <note pan="0" key="42" len="12" vol="195" pos="2280"/>
          <note pan="0" key="42" len="12" vol="195" pos="2292"/>
          <note pan="0" key="0" len="36" vol="195" pos="2292"/>
          <note pan="0" key="47" len="48" vol="195" pos="2304"/>
          <note pan="0" key="40" len="48" vol="195" pos="2304"/>
          <note pan="0" key="1" len="36" vol="195" pos="2328"/>
          <note pan="0" key="40" len="12" vol="195" pos="2352"/>
          <note pan="0" key="40" len="12" vol="195" pos="2364"/>
          <note pan="0" key="40" len="12" vol="195" pos="2376"/>
          <note pan="0" key="40" len="12" vol="195" pos="2388"/>
          <note pan="0" key="40" len="12" vol="195" pos="2400"/>
          <note pan="0" key="40" len="12" vol="195" pos="2412"/>
          <note pan="0" key="40" len="12" vol="195" pos="2424"/>
          <note pan="0" key="40" len="12" vol="195" pos="2436"/>
          <note pan="0" key="40" len="12" vol="195" pos="2448"/>
          <note pan="0" key="40" len="12" vol="195" pos="2460"/>
          <note pan="0" key="40" len="12" vol="195" pos="2472"/>
          <note pan="0" key="40" len="12" vol="195" pos="2484"/>
          <note pan="0" key="0" len="36" vol="195" pos="2484"/>
          <note pan="0" key="54" len="48" vol="195" pos="2496"/>
          <note pan="0" key="47" len="48" vol="195" pos="2496"/>
          <note pan="0" key="1" len="36" vol="195" pos="2520"/>
          <note pan="0" key="47" len="12" vol="195" pos="2544"/>
          <note pan="0" key="47" len="12" vol="195" pos="2556"/>
          <note pan="0" key="47" len="12" vol="195" pos="2568"/>
          <note pan="0" key="47" len="12" vol="195" pos="2580"/>
          <note pan="0" key="47" len="12" vol="195" pos="2592"/>
          <note pan="0" key="47" len="12" vol="195" pos="2604"/>
          <note pan="0" key="47" len="12" vol="195" pos="2616"/>
          <note pan="0" key="47" len="12" vol="195" pos="2628"/>
          <note pan="0" key="47" len="12" vol="195" pos="2640"/>
          <note pan="0" key="47" len="12" vol="195" pos="2652"/>
          <note pan="0" key="47" len="12" vol="195" pos="2664"/>
          <note pan="0" key="47" len="12" vol="195" pos="2676"/>
          <note pan="0" key="0" len="36" vol="195" pos="2676"/>
          <note pan="0" key="56" len="48" vol="195" pos="2688"/>
          <note pan="0" key="49" len="48" vol="195" pos="2688"/>
          <note pan="0" key="1" len="36" vol="195" pos="2712"/>
          <note pan="0" key="49" len="12" vol="195" pos="2736"/>
          <note pan="0" key="49" len="12" vol="195" pos="2748"/>
          <note pan="0" key="49" len="12" vol="195" pos="2760"/>
          <note pan="0" key="49" len="12" vol="195" pos="2772"/>
          <note pan="0" key="49" len="12" vol="195" pos="2784"/>
          <note pan="0" key="49" len="12" vol="195" pos="2796"/>
          <note pan="0" key="49" len="12" vol="195" pos="2808"/>
          <note pan="0" key="49" len="12" vol="195" pos="2820"/>
          <note pan="0" key="49" len="12" vol="195" pos="2832"/>
          <note pan="0" key="49" len="12" vol="195" pos="2844"/>
          <note pan="0" key="49" len="12" vol="195" pos="2856"/>
          <note pan="0" key="49" len="12" vol="195" pos="2868"/>
          <note pan="0" key="49" len="12" vol="195" pos="2880"/>
          <note pan="0" key="47" len="12" vol="195" pos="2892"/>
          <note pan="0" key="46" len="12" vol="195" pos="2904"/>
          <note pan="0" key="44" len="12" vol="195" pos="2916"/>
          <note pan="0" key="47" len="12" vol="195" pos="2928"/>
          <note pan="0" key="46" len="12" vol="195" pos="2940"/>
          <note pan="0" key="44" len="12" vol="195" pos="2952"/>
          <note pan="0" key="42" len="12" vol="195" pos="2964"/>
          <note pan="0" key="46" len="12" vol="195" pos="2976"/>
          <note pan="0" key="44" len="12" vol="195" pos="2988"/>
          <note pan="0" key="42" len="12" vol="195" pos="3000"/>
          <note pan="0" key="41" len="12" vol="195" pos="3012"/>
          <note pan="0" key="44" len="12" vol="195" pos="3024"/>
          <note pan="0" key="42" len="12" vol="195" pos="3036"/>
          <note pan="0" key="41" len="12" vol="195" pos="3048"/>
          <note pan="0" key="42" len="12" vol="195" pos="3060"/>
        </pattern>
        <pattern steps="16" muted="0" pos="47232" name="" type="1">
          <note pan="0" key="46" len="48" vol="195" pos="0"/>
          <note pan="0" key="39" len="48" vol="195" pos="0"/>
          <note pan="0" key="0" len="36" vol="195" pos="0"/>
          <note pan="0" key="1" len="36" vol="195" pos="36"/>
          <note pan="0" key="39" len="12" vol="195" pos="48"/>
          <note pan="0" key="39" len="12" vol="195" pos="60"/>
          <note pan="0" key="39" len="12" vol="195" pos="72"/>
          <note pan="0" key="39" len="12" vol="195" pos="84"/>
          <note pan="0" key="39" len="12" vol="195" pos="96"/>
          <note pan="0" key="39" len="12" vol="195" pos="108"/>
          <note pan="0" key="39" len="12" vol="195" pos="120"/>
          <note pan="0" key="39" len="12" vol="195" pos="132"/>
          <note pan="0" key="39" len="12" vol="195" pos="144"/>
          <note pan="0" key="39" len="12" vol="195" pos="156"/>
          <note pan="0" key="39" len="12" vol="195" pos="168"/>
          <note pan="0" key="39" len="12" vol="195" pos="180"/>
          <note pan="0" key="0" len="36" vol="195" pos="180"/>
          <note pan="0" key="53" len="48" vol="195" pos="192"/>
          <note pan="0" key="46" len="48" vol="195" pos="192"/>
          <note pan="0" key="1" len="36" vol="195" pos="216"/>
          <note pan="0" key="46" len="12" vol="195" pos="240"/>
          <note pan="0" key="46" len="12" vol="195" pos="252"/>
          <note pan="0" key="46" len="12" vol="195" pos="264"/>
          <note pan="0" key="46" len="12" vol="195" pos="276"/>
          <note pan="0" key="46" len="12" vol="195" pos="288"/>
          <note pan="0" key="46" len="12" vol="195" pos="300"/>
          <note pan="0" key="46" len="12" vol="195" pos="312"/>
          <note pan="0" key="46" len="12" vol="195" pos="324"/>
          <note pan="0" key="46" len="12" vol="195" pos="336"/>
          <note pan="0" key="46" len="12" vol="195" pos="348"/>
          <note pan="0" key="46" len="12" vol="195" pos="360"/>
          <note pan="0" key="46" len="12" vol="195" pos="372"/>
          <note pan="0" key="0" len="36" vol="195" pos="372"/>
          <note pan="0" key="54" len="48" vol="195" pos="384"/>
          <note pan="0" key="47" len="48" vol="195" pos="384"/>
          <note pan="0" key="1" len="36" vol="195" pos="408"/>
          <note pan="0" key="47" len="12" vol="195" pos="432"/>
          <note pan="0" key="47" len="12" vol="195" pos="444"/>
          <note pan="0" key="47" len="12" vol="195" pos="456"/>
          <note pan="0" key="47" len="12" vol="195" pos="468"/>
          <note pan="0" key="47" len="12" vol="195" pos="480"/>
          <note pan="0" key="47" len="12" vol="195" pos="492"/>
          <note pan="0" key="47" len="12" vol="195" pos="504"/>
          <note pan="0" key="47" len="12" vol="195" pos="516"/>
          <note pan="0" key="47" len="12" vol="195" pos="528"/>
          <note pan="0" key="47" len="12" vol="195" pos="540"/>
          <note pan="0" key="47" len="12" vol="195" pos="552"/>
          <note pan="0" key="47" len="12" vol="195" pos="564"/>
          <note pan="0" key="0" len="36" vol="195" pos="564"/>
          <note pan="0" key="56" len="48" vol="195" pos="576"/>
          <note pan="0" key="49" len="48" vol="195" pos="576"/>
          <note pan="0" key="1" len="36" vol="195" pos="600"/>
          <note pan="0" key="49" len="12" vol="195" pos="624"/>
          <note pan="0" key="49" len="12" vol="195" pos="636"/>
          <note pan="0" key="49" len="12" vol="195" pos="648"/>
          <note pan="0" key="49" len="12" vol="195" pos="660"/>
          <note pan="0" key="49" len="12" vol="195" pos="672"/>
          <note pan="0" key="49" len="12" vol="195" pos="684"/>
          <note pan="0" key="49" len="12" vol="195" pos="696"/>
          <note pan="0" key="49" len="12" vol="195" pos="708"/>
          <note pan="0" key="49" len="12" vol="195" pos="720"/>
          <note pan="0" key="49" len="12" vol="195" pos="732"/>
          <note pan="0" key="49" len="12" vol="195" pos="744"/>
          <note pan="0" key="49" len="12" vol="195" pos="756"/>
          <note pan="0" key="51" len="48" vol="195" pos="768"/>
          <note pan="0" key="44" len="48" vol="195" pos="768"/>
          <note pan="0" key="0" len="36" vol="195" pos="768"/>
          <note pan="0" key="1" len="36" vol="195" pos="792"/>
          <note pan="0" key="44" len="12" vol="195" pos="816"/>
          <note pan="0" key="44" len="12" vol="195" pos="828"/>
          <note pan="0" key="44" len="12" vol="195" pos="840"/>
          <note pan="0" key="44" len="12" vol="195" pos="852"/>
          <note pan="0" key="44" len="12" vol="195" pos="864"/>
          <note pan="0" key="44" len="12" vol="195" pos="876"/>
          <note pan="0" key="44" len="12" vol="195" pos="888"/>
          <note pan="0" key="44" len="12" vol="195" pos="900"/>
          <note pan="0" key="44" len="12" vol="195" pos="912"/>
          <note pan="0" key="44" len="12" vol="195" pos="924"/>
          <note pan="0" key="44" len="12" vol="195" pos="936"/>
          <note pan="0" key="44" len="12" vol="195" pos="948"/>
          <note pan="0" key="0" len="36" vol="195" pos="948"/>
          <note pan="0" key="53" len="48" vol="195" pos="960"/>
          <note pan="0" key="46" len="48" vol="195" pos="960"/>
          <note pan="0" key="1" len="36" vol="195" pos="984"/>
          <note pan="0" key="46" len="12" vol="195" pos="1008"/>
          <note pan="0" key="46" len="12" vol="195" pos="1020"/>
          <note pan="0" key="46" len="12" vol="195" pos="1032"/>
          <note pan="0" key="46" len="12" vol="195" pos="1044"/>
          <note pan="0" key="46" len="12" vol="195" pos="1056"/>
          <note pan="0" key="46" len="12" vol="195" pos="1068"/>
          <note pan="0" key="46" len="12" vol="195" pos="1080"/>
          <note pan="0" key="46" len="12" vol="195" pos="1092"/>
          <note pan="0" key="46" len="12" vol="195" pos="1104"/>
          <note pan="0" key="46" len="12" vol="195" pos="1116"/>
          <note pan="0" key="46" len="12" vol="195" pos="1128"/>
          <note pan="0" key="46" len="12" vol="195" pos="1140"/>
          <note pan="0" key="0" len="36" vol="195" pos="1140"/>
          <note pan="0" key="54" len="48" vol="195" pos="1152"/>
          <note pan="0" key="47" len="48" vol="195" pos="1152"/>
          <note pan="0" key="1" len="36" vol="195" pos="1176"/>
          <note pan="0" key="47" len="12" vol="195" pos="1200"/>
          <note pan="0" key="47" len="12" vol="195" pos="1212"/>
          <note pan="0" key="47" len="12" vol="195" pos="1224"/>
          <note pan="0" key="47" len="12" vol="195" pos="1236"/>
          <note pan="0" key="47" len="12" vol="195" pos="1248"/>
          <note pan="0" key="47" len="12" vol="195" pos="1260"/>
          <note pan="0" key="47" len="12" vol="195" pos="1272"/>
          <note pan="0" key="47" len="12" vol="195" pos="1284"/>
          <note pan="0" key="47" len="12" vol="195" pos="1296"/>
          <note pan="0" key="47" len="12" vol="195" pos="1308"/>
          <note pan="0" key="47" len="12" vol="195" pos="1320"/>
          <note pan="0" key="47" len="12" vol="195" pos="1332"/>
          <note pan="0" key="0" len="36" vol="195" pos="1332"/>
          <note pan="0" key="56" len="48" vol="195" pos="1344"/>
          <note pan="0" key="49" len="48" vol="195" pos="1344"/>
          <note pan="0" key="1" len="36" vol="195" pos="1368"/>
          <note pan="0" key="49" len="12" vol="195" pos="1392"/>
          <note pan="0" key="49" len="12" vol="195" pos="1404"/>
          <note pan="0" key="49" len="12" vol="195" pos="1416"/>
          <note pan="0" key="49" len="12" vol="195" pos="1428"/>
          <note pan="0" key="50" len="12" vol="195" pos="1440"/>
          <note pan="0" key="50" len="12" vol="195" pos="1452"/>
          <note pan="0" key="50" len="12" vol="195" pos="1464"/>
          <note pan="0" key="1" len="36" vol="195" pos="1464"/>
          <note pan="0" key="50" len="12" vol="195" pos="1476"/>
          <note pan="0" key="50" len="12" vol="195" pos="1488"/>
          <note pan="0" key="50" len="12" vol="195" pos="1500"/>
          <note pan="0" key="50" len="12" vol="195" pos="1512"/>
          <note pan="0" key="50" len="12" vol="195" pos="1524"/>
          <note pan="0" key="0" len="36" vol="195" pos="1524"/>
          <note pan="0" key="46" len="48" vol="195" pos="1536"/>
          <note pan="0" key="39" len="48" vol="195" pos="1536"/>
          <note pan="0" key="1" len="36" vol="195" pos="1560"/>
          <note pan="0" key="39" len="12" vol="195" pos="1584"/>
          <note pan="0" key="39" len="12" vol="195" pos="1596"/>
          <note pan="0" key="39" len="12" vol="195" pos="1608"/>
          <note pan="0" key="39" len="12" vol="195" pos="1620"/>
          <note pan="0" key="39" len="12" vol="195" pos="1632"/>
          <note pan="0" key="39" len="12" vol="195" pos="1644"/>
          <note pan="0" key="39" len="12" vol="195" pos="1656"/>
          <note pan="0" key="39" len="12" vol="195" pos="1668"/>
          <note pan="0" key="39" len="12" vol="195" pos="1680"/>
          <note pan="0" key="39" len="12" vol="195" pos="1692"/>
          <note pan="0" key="39" len="12" vol="195" pos="1704"/>
          <note pan="0" key="39" len="12" vol="195" pos="1716"/>
          <note pan="0" key="0" len="36" vol="195" pos="1716"/>
          <note pan="0" key="56" len="48" vol="195" pos="1728"/>
          <note pan="0" key="49" len="48" vol="195" pos="1728"/>
          <note pan="0" key="1" len="36" vol="195" pos="1752"/>
          <note pan="0" key="49" len="12" vol="195" pos="1776"/>
          <note pan="0" key="49" len="12" vol="195" pos="1788"/>
          <note pan="0" key="49" len="12" vol="195" pos="1800"/>
          <note pan="0" key="49" len="12" vol="195" pos="1812"/>
          <note pan="0" key="49" len="12" vol="195" pos="1824"/>
          <note pan="0" key="49" len="12" vol="195" pos="1836"/>
          <note pan="0" key="49" len="12" vol="195" pos="1848"/>
          <note pan="0" key="49" len="12" vol="195" pos="1860"/>
          <note pan="0" key="49" len="12" vol="195" pos="1872"/>
          <note pan="0" key="49" len="12" vol="195" pos="1884"/>
          <note pan="0" key="49" len="12" vol="195" pos="1896"/>
          <note pan="0" key="49" len="12" vol="195" pos="1908"/>
          <note pan="0" key="0" len="36" vol="195" pos="1908"/>
          <note pan="0" key="56" len="48" vol="195" pos="1920"/>
          <note pan="0" key="48" len="48" vol="195" pos="1920"/>
          <note pan="0" key="1" len="36" vol="195" pos="1944"/>
          <note pan="0" key="48" len="12" vol="195" pos="1968"/>
          <note pan="0" key="48" len="12" vol="195" pos="1980"/>
          <note pan="0" key="48" len="12" vol="195" pos="1992"/>
          <note pan="0" key="48" len="12" vol="195" pos="2004"/>
          <note pan="0" key="48" len="12" vol="195" pos="2016"/>
          <note pan="0" key="48" len="12" vol="195" pos="2028"/>
          <note pan="0" key="48" len="12" vol="195" pos="2040"/>
          <note pan="0" key="48" len="12" vol="195" pos="2052"/>
          <note pan="0" key="48" len="12" vol="195" pos="2064"/>
          <note pan="0" key="48" len="12" vol="195" pos="2076"/>
          <note pan="0" key="48" len="12" vol="195" pos="2088"/>
          <note pan="0" key="48" len="12" vol="195" pos="2100"/>
          <note pan="0" key="0" len="36" vol="195" pos="2100"/>
          <note pan="0" key="51" len="48" vol="195" pos="2112"/>
          <note pan="0" key="44" len="48" vol="195" pos="2112"/>
          <note pan="0" key="1" len="36" vol="195" pos="2136"/>
          <note pan="0" key="44" len="12" vol="195" pos="2160"/>
          <note pan="0" key="44" len="12" vol="195" pos="2172"/>
          <note pan="0" key="44" len="12" vol="195" pos="2184"/>
          <note pan="0" key="44" len="12" vol="195" pos="2196"/>
          <note pan="0" key="0" len="36" vol="195" pos="2196"/>
          <note pan="0" key="49" len="48" vol="195" pos="2208"/>
          <note pan="0" key="42" len="48" vol="195" pos="2208"/>
          <note pan="0" key="1" len="36" vol="195" pos="2232"/>
          <note pan="0" key="42" len="12" vol="195" pos="2256"/>
          <note pan="0" key="42" len="12" vol="195" pos="2268"/>
          <note pan="0" key="42" len="12" vol="195" pos="2280"/>
          <note pan="0" key="42" len="12" vol="195" pos="2292"/>
          <note pan="0" key="0" len="36" vol="195" pos="2292"/>
          <note pan="0" key="47" len="48" vol="195" pos="2304"/>
          <note pan="0" key="40" len="48" vol="195" pos="2304"/>
          <note pan="0" key="1" len="36" vol="195" pos="2328"/>
          <note pan="0" key="40" len="12" vol="195" pos="2352"/>
          <note pan="0" key="40" len="12" vol="195" pos="2364"/>
          <note pan="0" key="40" len="12" vol="195" pos="2376"/>
          <note pan="0" key="40" len="12" vol="195" pos="2388"/>
          <note pan="0" key="40" len="12" vol="195" pos="2400"/>
          <note pan="0" key="40" len="12" vol="195" pos="2412"/>
          <note pan="0" key="40" len="12" vol="195" pos="2424"/>
          <note pan="0" key="40" len="12" vol="195" pos="2436"/>
          <note pan="0" key="40" len="12" vol="195" pos="2448"/>
          <note pan="0" key="40" len="12" vol="195" pos="2460"/>
          <note pan="0" key="40" len="12" vol="195" pos="2472"/>
          <note pan="0" key="40" len="12" vol="195" pos="2484"/>
          <note pan="0" key="0" len="36" vol="195" pos="2484"/>
          <note pan="0" key="54" len="48" vol="195" pos="2496"/>
          <note pan="0" key="47" len="48" vol="195" pos="2496"/>
          <note pan="0" key="1" len="36" vol="195" pos="2520"/>
          <note pan="0" key="47" len="12" vol="195" pos="2544"/>
          <note pan="0" key="47" len="12" vol="195" pos="2556"/>
          <note pan="0" key="47" len="12" vol="195" pos="2568"/>
          <note pan="0" key="47" len="12" vol="195" pos="2580"/>
          <note pan="0" key="47" len="12" vol="195" pos="2592"/>
          <note pan="0" key="47" len="12" vol="195" pos="2604"/>
          <note pan="0" key="47" len="12" vol="195" pos="2616"/>
          <note pan="0" key="47" len="12" vol="195" pos="2628"/>
          <note pan="0" key="47" len="12" vol="195" pos="2640"/>
          <note pan="0" key="47" len="12" vol="195" pos="2652"/>
          <note pan="0" key="47" len="12" vol="195" pos="2664"/>
          <note pan="0" key="47" len="12" vol="195" pos="2676"/>
          <note pan="0" key="0" len="36" vol="195" pos="2676"/>
          <note pan="0" key="56" len="48" vol="195" pos="2688"/>
          <note pan="0" key="49" len="48" vol="195" pos="2688"/>
          <note pan="0" key="1" len="36" vol="195" pos="2712"/>
          <note pan="0" key="49" len="12" vol="195" pos="2736"/>
          <note pan="0" key="49" len="12" vol="195" pos="2748"/>
          <note pan="0" key="49" len="12" vol="195" pos="2760"/>
          <note pan="0" key="49" len="12" vol="195" pos="2772"/>
          <note pan="0" key="49" len="12" vol="195" pos="2784"/>
          <note pan="0" key="49" len="12" vol="195" pos="2796"/>
          <note pan="0" key="49" len="12" vol="195" pos="2808"/>
          <note pan="0" key="49" len="12" vol="195" pos="2820"/>
          <note pan="0" key="49" len="12" vol="195" pos="2832"/>
          <note pan="0" key="49" len="12" vol="195" pos="2844"/>
          <note pan="0" key="49" len="12" vol="195" pos="2856"/>
          <note pan="0" key="49" len="12" vol="195" pos="2868"/>
          <note pan="0" key="0" len="36" vol="195" pos="2868"/>
          <note pan="0" key="56" len="96" vol="197" pos="2880"/>
          <note pan="0" key="49" len="96" vol="197" pos="2880"/>
          <note pan="0" key="53" len="96" vol="197" pos="2976"/>
          <note pan="0" key="46" len="96" vol="197" pos="2976"/>
        </pattern>
        <pattern steps="16" muted="0" pos="50304" name="" type="1">
          <note pan="0" key="46" len="48" vol="197" pos="0"/>
          <note pan="0" key="39" len="48" vol="197" pos="0"/>
          <note pan="0" key="0" len="36" vol="197" pos="0"/>
          <note pan="0" key="1" len="36" vol="197" pos="36"/>
          <note pan="0" key="39" len="24" vol="197" pos="48"/>
          <note pan="0" key="39" len="24" vol="197" pos="72"/>
          <note pan="0" key="39" len="24" vol="197" pos="96"/>
          <note pan="0" key="39" len="24" vol="197" pos="120"/>
          <note pan="0" key="39" len="24" vol="197" pos="144"/>
          <note pan="0" key="39" len="12" vol="197" pos="168"/>
          <note pan="0" key="39" len="12" vol="197" pos="180"/>
          <note pan="0" key="39" len="24" vol="197" pos="192"/>
          <note pan="0" key="39" len="24" vol="197" pos="216"/>
          <note pan="0" key="39" len="12" vol="197" pos="240"/>
          <note pan="0" key="39" len="12" vol="197" pos="252"/>
          <note pan="0" key="39" len="24" vol="197" pos="264"/>
          <note pan="0" key="39" len="24" vol="197" pos="288"/>
          <note pan="0" key="39" len="24" vol="197" pos="312"/>
          <note pan="0" key="0" len="48" vol="197" pos="324"/>
          <note pan="0" key="46" len="48" vol="197" pos="336"/>
          <note pan="0" key="39" len="48" vol="197" pos="336"/>
        </pattern>
        <pattern steps="16" muted="0" pos="50688" name="" type="1">
          <note pan="0" key="46" len="48" vol="197" pos="0"/>
          <note pan="0" key="39" len="48" vol="197" pos="0"/>
          <note pan="0" key="0" len="36" vol="197" pos="0"/>
          <note pan="0" key="1" len="36" vol="197" pos="36"/>
          <note pan="0" key="39" len="24" vol="197" pos="48"/>
          <note pan="0" key="39" len="24" vol="197" pos="72"/>
          <note pan="0" key="39" len="24" vol="197" pos="96"/>
          <note pan="0" key="39" len="24" vol="197" pos="120"/>
          <note pan="0" key="39" len="24" vol="197" pos="144"/>
          <note pan="0" key="39" len="12" vol="197" pos="168"/>
          <note pan="0" key="39" len="12" vol="197" pos="180"/>
          <note pan="0" key="39" len="24" vol="197" pos="192"/>
          <note pan="0" key="39" len="24" vol="197" pos="216"/>
          <note pan="0" key="39" len="12" vol="197" pos="240"/>
          <note pan="0" key="39" len="12" vol="197" pos="252"/>
          <note pan="0" key="39" len="24" vol="197" pos="264"/>
          <note pan="0" key="39" len="24" vol="197" pos="288"/>
          <note pan="0" key="39" len="24" vol="197" pos="312"/>
          <note pan="0" key="0" len="48" vol="197" pos="324"/>
          <note pan="0" key="46" len="48" vol="197" pos="336"/>
          <note pan="0" key="39" len="48" vol="197" pos="336"/>
        </pattern>
        <pattern steps="16" muted="0" pos="51072" name="" type="1">
          <note pan="0" key="46" len="48" vol="197" pos="0"/>
          <note pan="0" key="39" len="48" vol="197" pos="0"/>
          <note pan="0" key="0" len="36" vol="197" pos="0"/>
          <note pan="0" key="1" len="36" vol="197" pos="36"/>
          <note pan="0" key="39" len="24" vol="197" pos="48"/>
          <note pan="0" key="39" len="24" vol="197" pos="72"/>
          <note pan="0" key="39" len="24" vol="197" pos="96"/>
          <note pan="0" key="39" len="24" vol="197" pos="120"/>
          <note pan="0" key="39" len="24" vol="197" pos="144"/>
          <note pan="0" key="39" len="12" vol="197" pos="168"/>
          <note pan="0" key="39" len="12" vol="197" pos="180"/>
          <note pan="0" key="39" len="24" vol="197" pos="192"/>
          <note pan="0" key="39" len="24" vol="197" pos="216"/>
          <note pan="0" key="39" len="12" vol="197" pos="240"/>
          <note pan="0" key="39" len="12" vol="197" pos="252"/>
          <note pan="0" key="39" len="24" vol="197" pos="264"/>
          <note pan="0" key="39" len="24" vol="197" pos="288"/>
          <note pan="0" key="39" len="24" vol="197" pos="312"/>
          <note pan="0" key="0" len="48" vol="197" pos="324"/>
          <note pan="0" key="46" len="48" vol="197" pos="336"/>
          <note pan="0" key="39" len="48" vol="197" pos="336"/>
        </pattern>
        <pattern steps="16" muted="0" pos="51456" name="" type="1">
          <note pan="0" key="46" len="48" vol="197" pos="0"/>
          <note pan="0" key="39" len="48" vol="197" pos="0"/>
          <note pan="0" key="0" len="36" vol="197" pos="0"/>
          <note pan="0" key="1" len="36" vol="197" pos="36"/>
          <note pan="0" key="39" len="24" vol="197" pos="48"/>
          <note pan="0" key="39" len="24" vol="197" pos="72"/>
          <note pan="0" key="39" len="24" vol="197" pos="96"/>
          <note pan="0" key="39" len="24" vol="197" pos="120"/>
          <note pan="0" key="39" len="24" vol="197" pos="144"/>
          <note pan="0" key="39" len="12" vol="197" pos="168"/>
          <note pan="0" key="39" len="12" vol="197" pos="180"/>
          <note pan="0" key="39" len="24" vol="197" pos="192"/>
          <note pan="0" key="39" len="24" vol="197" pos="216"/>
          <note pan="0" key="39" len="12" vol="197" pos="240"/>
          <note pan="0" key="39" len="12" vol="197" pos="252"/>
          <note pan="0" key="39" len="24" vol="197" pos="264"/>
          <note pan="0" key="39" len="24" vol="197" pos="288"/>
          <note pan="0" key="39" len="24" vol="197" pos="312"/>
          <note pan="0" key="0" len="48" vol="197" pos="324"/>
          <note pan="0" key="46" len="48" vol="197" pos="336"/>
          <note pan="0" key="39" len="48" vol="197" pos="336"/>
        </pattern>
        <pattern steps="16" muted="0" pos="51840" name="" type="1">
          <note pan="0" key="47" len="48" vol="197" pos="0"/>
          <note pan="0" key="40" len="48" vol="197" pos="0"/>
          <note pan="0" key="0" len="36" vol="197" pos="0"/>
          <note pan="0" key="1" len="36" vol="197" pos="36"/>
          <note pan="0" key="40" len="24" vol="197" pos="48"/>
          <note pan="0" key="40" len="24" vol="197" pos="72"/>
          <note pan="0" key="40" len="24" vol="197" pos="96"/>
          <note pan="0" key="40" len="24" vol="197" pos="120"/>
          <note pan="0" key="40" len="24" vol="197" pos="144"/>
          <note pan="0" key="40" len="12" vol="197" pos="168"/>
          <note pan="0" key="40" len="12" vol="197" pos="180"/>
          <note pan="0" key="40" len="24" vol="197" pos="192"/>
          <note pan="0" key="40" len="24" vol="197" pos="216"/>
          <note pan="0" key="40" len="12" vol="197" pos="240"/>
          <note pan="0" key="40" len="12" vol="197" pos="252"/>
          <note pan="0" key="40" len="24" vol="197" pos="264"/>
          <note pan="0" key="40" len="24" vol="197" pos="288"/>
          <note pan="0" key="40" len="24" vol="197" pos="312"/>
          <note pan="0" key="0" len="48" vol="197" pos="324"/>
          <note pan="0" key="47" len="48" vol="197" pos="336"/>
          <note pan="0" key="40" len="48" vol="197" pos="336"/>
        </pattern>
        <pattern steps="16" muted="0" pos="52224" name="" type="1">
          <note pan="0" key="46" len="48" vol="197" pos="0"/>
          <note pan="0" key="39" len="48" vol="197" pos="0"/>
          <note pan="0" key="0" len="36" vol="197" pos="0"/>
          <note pan="0" key="1" len="36" vol="197" pos="36"/>
          <note pan="0" key="39" len="24" vol="197" pos="48"/>
          <note pan="0" key="39" len="24" vol="197" pos="72"/>
          <note pan="0" key="39" len="24" vol="197" pos="96"/>
          <note pan="0" key="39" len="24" vol="197" pos="120"/>
          <note pan="0" key="39" len="24" vol="197" pos="144"/>
          <note pan="0" key="39" len="12" vol="197" pos="168"/>
          <note pan="0" key="39" len="12" vol="197" pos="180"/>
          <note pan="0" key="39" len="24" vol="197" pos="192"/>
          <note pan="0" key="39" len="24" vol="197" pos="216"/>
          <note pan="0" key="39" len="12" vol="197" pos="240"/>
          <note pan="0" key="39" len="12" vol="197" pos="252"/>
          <note pan="0" key="39" len="24" vol="197" pos="264"/>
          <note pan="0" key="39" len="24" vol="197" pos="288"/>
          <note pan="0" key="39" len="24" vol="197" pos="312"/>
          <note pan="0" key="0" len="48" vol="197" pos="324"/>
          <note pan="0" key="46" len="48" vol="197" pos="336"/>
          <note pan="0" key="39" len="48" vol="197" pos="336"/>
        </pattern>
        <pattern steps="16" muted="0" pos="52608" name="" type="1">
          <note pan="0" key="51" len="48" vol="197" pos="0"/>
          <note pan="0" key="44" len="48" vol="197" pos="0"/>
          <note pan="0" key="0" len="36" vol="197" pos="0"/>
          <note pan="0" key="1" len="36" vol="197" pos="36"/>
          <note pan="0" key="44" len="24" vol="197" pos="48"/>
          <note pan="0" key="44" len="24" vol="197" pos="72"/>
          <note pan="0" key="44" len="24" vol="197" pos="96"/>
          <note pan="0" key="44" len="24" vol="197" pos="120"/>
          <note pan="0" key="44" len="24" vol="197" pos="144"/>
          <note pan="0" key="44" len="12" vol="197" pos="168"/>
          <note pan="0" key="44" len="12" vol="197" pos="180"/>
          <note pan="0" key="44" len="24" vol="197" pos="192"/>
          <note pan="0" key="44" len="24" vol="197" pos="216"/>
          <note pan="0" key="44" len="12" vol="197" pos="240"/>
          <note pan="0" key="44" len="12" vol="197" pos="252"/>
          <note pan="0" key="44" len="24" vol="197" pos="264"/>
          <note pan="0" key="44" len="24" vol="197" pos="288"/>
          <note pan="0" key="44" len="24" vol="197" pos="312"/>
          <note pan="0" key="0" len="48" vol="197" pos="324"/>
          <note pan="0" key="51" len="48" vol="197" pos="336"/>
          <note pan="0" key="44" len="48" vol="197" pos="336"/>
        </pattern>
        <pattern steps="16" muted="0" pos="53376" name="" type="1">
          <note pan="0" key="42" len="48" vol="195" pos="0"/>
          <note pan="0" key="35" len="48" vol="195" pos="0"/>
          <note pan="0" key="0" len="24" vol="195" pos="0"/>
          <note pan="0" key="1" len="24" vol="195" pos="24"/>
          <note pan="0" key="35" len="12" vol="195" pos="48"/>
          <note pan="0" key="35" len="12" vol="195" pos="60"/>
          <note pan="0" key="35" len="12" vol="195" pos="72"/>
          <note pan="0" key="35" len="12" vol="195" pos="84"/>
          <note pan="0" key="35" len="12" vol="195" pos="96"/>
          <note pan="0" key="35" len="12" vol="195" pos="108"/>
          <note pan="0" key="35" len="12" vol="195" pos="120"/>
          <note pan="0" key="35" len="12" vol="195" pos="132"/>
          <note pan="0" key="35" len="12" vol="195" pos="144"/>
          <note pan="0" key="35" len="12" vol="195" pos="156"/>
          <note pan="0" key="35" len="12" vol="195" pos="168"/>
          <note pan="0" key="35" len="12" vol="195" pos="180"/>
          <note pan="0" key="44" len="48" vol="195" pos="192"/>
          <note pan="0" key="37" len="48" vol="195" pos="192"/>
          <note pan="0" key="0" len="48" vol="195" pos="192"/>
          <note pan="0" key="1" len="48" vol="195" pos="216"/>
          <note pan="0" key="37" len="12" vol="195" pos="240"/>
          <note pan="0" key="37" len="12" vol="195" pos="252"/>
          <note pan="0" key="37" len="12" vol="195" pos="264"/>
          <note pan="0" key="37" len="12" vol="195" pos="276"/>
          <note pan="0" key="37" len="12" vol="195" pos="288"/>
          <note pan="0" key="37" len="12" vol="195" pos="300"/>
          <note pan="0" key="37" len="12" vol="195" pos="312"/>
          <note pan="0" key="37" len="12" vol="195" pos="324"/>
          <note pan="0" key="37" len="12" vol="195" pos="336"/>
          <note pan="0" key="37" len="12" vol="195" pos="348"/>
          <note pan="0" key="37" len="12" vol="195" pos="360"/>
          <note pan="0" key="37" len="12" vol="195" pos="372"/>
        </pattern>
        <pattern steps="16" muted="0" pos="53760" name="" type="1">
          <note pan="0" key="46" len="48" vol="195" pos="0"/>
          <note pan="0" key="39" len="48" vol="195" pos="0"/>
          <note pan="0" key="0" len="24" vol="195" pos="0"/>
          <note pan="0" key="1" len="24" vol="195" pos="24"/>
          <note pan="0" key="39" len="12" vol="195" pos="48"/>
          <note pan="0" key="39" len="12" vol="195" pos="60"/>
          <note pan="0" key="39" len="12" vol="195" pos="72"/>
          <note pan="0" key="39" len="12" vol="195" pos="84"/>
          <note pan="0" key="39" len="12" vol="195" pos="96"/>
          <note pan="0" key="39" len="12" vol="195" pos="108"/>
          <note pan="0" key="39" len="12" vol="195" pos="120"/>
          <note pan="0" key="39" len="12" vol="195" pos="132"/>
          <note pan="0" key="39" len="12" vol="195" pos="144"/>
          <note pan="0" key="39" len="12" vol="195" pos="156"/>
          <note pan="0" key="39" len="12" vol="195" pos="168"/>
          <note pan="0" key="39" len="12" vol="195" pos="180"/>
          <note pan="0" key="39" len="12" vol="195" pos="192"/>
          <note pan="0" key="39" len="12" vol="195" pos="204"/>
          <note pan="0" key="39" len="12" vol="195" pos="216"/>
          <note pan="0" key="39" len="12" vol="195" pos="228"/>
          <note pan="0" key="39" len="12" vol="195" pos="240"/>
          <note pan="0" key="39" len="12" vol="195" pos="252"/>
          <note pan="0" key="39" len="12" vol="195" pos="264"/>
          <note pan="0" key="39" len="12" vol="195" pos="276"/>
          <note pan="0" key="39" len="12" vol="195" pos="288"/>
          <note pan="0" key="39" len="12" vol="195" pos="300"/>
          <note pan="0" key="39" len="12" vol="195" pos="312"/>
          <note pan="0" key="39" len="12" vol="195" pos="324"/>
          <note pan="0" key="39" len="12" vol="195" pos="336"/>
          <note pan="0" key="39" len="12" vol="195" pos="348"/>
          <note pan="0" key="39" len="12" vol="195" pos="360"/>
          <note pan="0" key="39" len="12" vol="195" pos="372"/>
        </pattern>
        <pattern steps="16" muted="0" pos="54144" name="" type="1">
          <note pan="0" key="44" len="48" vol="195" pos="0"/>
          <note pan="0" key="37" len="48" vol="195" pos="0"/>
          <note pan="0" key="0" len="24" vol="195" pos="0"/>
          <note pan="0" key="1" len="24" vol="195" pos="24"/>
          <note pan="0" key="37" len="12" vol="195" pos="48"/>
          <note pan="0" key="37" len="12" vol="195" pos="60"/>
          <note pan="0" key="37" len="12" vol="195" pos="72"/>
          <note pan="0" key="37" len="12" vol="195" pos="84"/>
          <note pan="0" key="37" len="12" vol="195" pos="96"/>
          <note pan="0" key="37" len="12" vol="195" pos="108"/>
          <note pan="0" key="37" len="12" vol="195" pos="120"/>
          <note pan="0" key="37" len="12" vol="195" pos="132"/>
          <note pan="0" key="37" len="12" vol="195" pos="144"/>
          <note pan="0" key="37" len="12" vol="195" pos="156"/>
          <note pan="0" key="37" len="12" vol="195" pos="168"/>
          <note pan="0" key="37" len="12" vol="195" pos="180"/>
        </pattern>
        <pattern steps="16" muted="0" pos="54336" name="" type="1">
          <note pan="0" key="44" len="48" vol="195" pos="0"/>
          <note pan="0" key="37" len="48" vol="195" pos="0"/>
          <note pan="0" key="0" len="24" vol="195" pos="0"/>
          <note pan="0" key="1" len="24" vol="195" pos="24"/>
          <note pan="0" key="37" len="12" vol="195" pos="48"/>
          <note pan="0" key="37" len="12" vol="195" pos="60"/>
          <note pan="0" key="37" len="12" vol="195" pos="72"/>
          <note pan="0" key="37" len="12" vol="195" pos="84"/>
          <note pan="0" key="37" len="12" vol="195" pos="96"/>
          <note pan="0" key="37" len="12" vol="195" pos="108"/>
          <note pan="0" key="37" len="12" vol="195" pos="120"/>
          <note pan="0" key="37" len="12" vol="195" pos="132"/>
          <note pan="0" key="37" len="12" vol="195" pos="144"/>
          <note pan="0" key="37" len="12" vol="195" pos="156"/>
          <note pan="0" key="37" len="12" vol="195" pos="168"/>
          <note pan="0" key="37" len="12" vol="195" pos="180"/>
        </pattern>
        <pattern steps="16" muted="0" pos="54528" name="" type="1">
          <note pan="0" key="51" len="48" vol="195" pos="0"/>
          <note pan="0" key="44" len="48" vol="195" pos="0"/>
          <note pan="0" key="0" len="24" vol="195" pos="0"/>
          <note pan="0" key="1" len="24" vol="195" pos="24"/>
          <note pan="0" key="44" len="12" vol="195" pos="48"/>
          <note pan="0" key="44" len="12" vol="195" pos="60"/>
          <note pan="0" key="44" len="12" vol="195" pos="72"/>
          <note pan="0" key="44" len="12" vol="195" pos="84"/>
          <note pan="0" key="44" len="12" vol="195" pos="96"/>
          <note pan="0" key="44" len="12" vol="195" pos="108"/>
          <note pan="0" key="44" len="12" vol="195" pos="120"/>
          <note pan="0" key="44" len="12" vol="195" pos="132"/>
          <note pan="0" key="44" len="12" vol="195" pos="144"/>
          <note pan="0" key="44" len="12" vol="195" pos="156"/>
          <note pan="0" key="44" len="12" vol="195" pos="168"/>
          <note pan="0" key="44" len="12" vol="195" pos="180"/>
          <note pan="0" key="44" len="12" vol="195" pos="192"/>
          <note pan="0" key="44" len="12" vol="195" pos="204"/>
          <note pan="0" key="44" len="12" vol="195" pos="216"/>
          <note pan="0" key="44" len="12" vol="195" pos="228"/>
          <note pan="0" key="44" len="12" vol="195" pos="240"/>
          <note pan="0" key="44" len="12" vol="195" pos="252"/>
          <note pan="0" key="44" len="12" vol="195" pos="264"/>
          <note pan="0" key="44" len="12" vol="195" pos="276"/>
          <note pan="0" key="44" len="12" vol="195" pos="288"/>
          <note pan="0" key="44" len="12" vol="195" pos="300"/>
          <note pan="0" key="44" len="12" vol="195" pos="312"/>
          <note pan="0" key="44" len="12" vol="195" pos="324"/>
          <note pan="0" key="44" len="12" vol="195" pos="336"/>
          <note pan="0" key="44" len="12" vol="195" pos="348"/>
          <note pan="0" key="44" len="12" vol="195" pos="360"/>
          <note pan="0" key="44" len="12" vol="195" pos="372"/>
        </pattern>
        <pattern steps="16" muted="0" pos="54912" name="" type="1">
          <note pan="0" key="42" len="48" vol="195" pos="0"/>
          <note pan="0" key="35" len="48" vol="195" pos="0"/>
          <note pan="0" key="0" len="24" vol="195" pos="0"/>
          <note pan="0" key="1" len="24" vol="195" pos="24"/>
          <note pan="0" key="35" len="12" vol="195" pos="48"/>
          <note pan="0" key="35" len="12" vol="195" pos="60"/>
          <note pan="0" key="35" len="12" vol="195" pos="72"/>
          <note pan="0" key="35" len="12" vol="195" pos="84"/>
          <note pan="0" key="35" len="12" vol="195" pos="96"/>
          <note pan="0" key="35" len="12" vol="195" pos="108"/>
          <note pan="0" key="35" len="12" vol="195" pos="120"/>
          <note pan="0" key="35" len="12" vol="195" pos="132"/>
          <note pan="0" key="35" len="12" vol="195" pos="144"/>
          <note pan="0" key="35" len="12" vol="195" pos="156"/>
          <note pan="0" key="35" len="12" vol="195" pos="168"/>
          <note pan="0" key="35" len="12" vol="195" pos="180"/>
          <note pan="0" key="44" len="48" vol="195" pos="192"/>
          <note pan="0" key="37" len="48" vol="195" pos="192"/>
          <note pan="0" key="0" len="48" vol="195" pos="192"/>
          <note pan="0" key="1" len="48" vol="195" pos="216"/>
          <note pan="0" key="37" len="12" vol="195" pos="240"/>
          <note pan="0" key="37" len="12" vol="195" pos="252"/>
          <note pan="0" key="37" len="12" vol="195" pos="264"/>
          <note pan="0" key="37" len="12" vol="195" pos="276"/>
          <note pan="0" key="37" len="12" vol="195" pos="288"/>
          <note pan="0" key="37" len="12" vol="195" pos="300"/>
          <note pan="0" key="37" len="12" vol="195" pos="312"/>
          <note pan="0" key="37" len="12" vol="195" pos="324"/>
          <note pan="0" key="37" len="12" vol="195" pos="336"/>
          <note pan="0" key="37" len="12" vol="195" pos="348"/>
          <note pan="0" key="37" len="12" vol="195" pos="360"/>
          <note pan="0" key="37" len="12" vol="195" pos="372"/>
        </pattern>
        <pattern steps="16" muted="0" pos="55296" name="" type="1">
          <note pan="0" key="46" len="48" vol="195" pos="0"/>
          <note pan="0" key="39" len="48" vol="195" pos="0"/>
          <note pan="0" key="0" len="24" vol="195" pos="0"/>
          <note pan="0" key="1" len="24" vol="195" pos="24"/>
          <note pan="0" key="39" len="12" vol="195" pos="48"/>
          <note pan="0" key="39" len="12" vol="195" pos="60"/>
          <note pan="0" key="39" len="12" vol="195" pos="72"/>
          <note pan="0" key="39" len="12" vol="195" pos="84"/>
          <note pan="0" key="39" len="12" vol="195" pos="96"/>
          <note pan="0" key="39" len="12" vol="195" pos="108"/>
          <note pan="0" key="39" len="12" vol="195" pos="120"/>
          <note pan="0" key="39" len="12" vol="195" pos="132"/>
          <note pan="0" key="39" len="12" vol="195" pos="144"/>
          <note pan="0" key="39" len="12" vol="195" pos="156"/>
          <note pan="0" key="39" len="12" vol="195" pos="168"/>
          <note pan="0" key="39" len="12" vol="195" pos="180"/>
          <note pan="0" key="39" len="12" vol="195" pos="192"/>
          <note pan="0" key="39" len="12" vol="195" pos="204"/>
          <note pan="0" key="39" len="12" vol="195" pos="216"/>
          <note pan="0" key="39" len="12" vol="195" pos="228"/>
          <note pan="0" key="39" len="12" vol="195" pos="240"/>
          <note pan="0" key="39" len="12" vol="195" pos="252"/>
          <note pan="0" key="39" len="12" vol="195" pos="264"/>
          <note pan="0" key="39" len="12" vol="195" pos="276"/>
          <note pan="0" key="39" len="12" vol="195" pos="288"/>
          <note pan="0" key="39" len="12" vol="195" pos="300"/>
          <note pan="0" key="39" len="12" vol="195" pos="312"/>
          <note pan="0" key="39" len="12" vol="195" pos="324"/>
          <note pan="0" key="39" len="12" vol="195" pos="336"/>
          <note pan="0" key="39" len="12" vol="195" pos="348"/>
          <note pan="0" key="39" len="12" vol="195" pos="360"/>
          <note pan="0" key="39" len="12" vol="195" pos="372"/>
        </pattern>
        <pattern steps="16" muted="0" pos="55680" name="" type="1">
          <note pan="0" key="51" len="48" vol="195" pos="0"/>
          <note pan="0" key="44" len="48" vol="195" pos="0"/>
          <note pan="0" key="0" len="24" vol="195" pos="0"/>
          <note pan="0" key="1" len="24" vol="195" pos="24"/>
          <note pan="0" key="44" len="12" vol="195" pos="48"/>
          <note pan="0" key="44" len="12" vol="195" pos="60"/>
          <note pan="0" key="44" len="12" vol="195" pos="72"/>
          <note pan="0" key="44" len="12" vol="195" pos="84"/>
          <note pan="0" key="44" len="12" vol="195" pos="96"/>
          <note pan="0" key="44" len="12" vol="195" pos="108"/>
          <note pan="0" key="44" len="12" vol="195" pos="120"/>
          <note pan="0" key="44" len="12" vol="195" pos="132"/>
          <note pan="0" key="44" len="12" vol="195" pos="144"/>
          <note pan="0" key="44" len="12" vol="195" pos="156"/>
          <note pan="0" key="44" len="12" vol="195" pos="168"/>
          <note pan="0" key="44" len="12" vol="195" pos="180"/>
          <note pan="0" key="44" len="12" vol="195" pos="192"/>
          <note pan="0" key="44" len="12" vol="195" pos="204"/>
          <note pan="0" key="44" len="12" vol="195" pos="216"/>
          <note pan="0" key="44" len="12" vol="195" pos="228"/>
          <note pan="0" key="44" len="12" vol="195" pos="240"/>
          <note pan="0" key="44" len="12" vol="195" pos="252"/>
          <note pan="0" key="44" len="12" vol="195" pos="264"/>
          <note pan="0" key="44" len="12" vol="195" pos="276"/>
          <note pan="0" key="44" len="12" vol="195" pos="288"/>
          <note pan="0" key="44" len="12" vol="195" pos="300"/>
          <note pan="0" key="44" len="12" vol="195" pos="312"/>
          <note pan="0" key="44" len="12" vol="195" pos="324"/>
          <note pan="0" key="44" len="12" vol="195" pos="336"/>
          <note pan="0" key="44" len="12" vol="195" pos="348"/>
          <note pan="0" key="44" len="12" vol="195" pos="360"/>
          <note pan="0" key="44" len="12" vol="195" pos="372"/>
        </pattern>
        <pattern steps="16" muted="0" pos="56064" name="" type="1">
          <note pan="0" key="42" len="192" vol="197" pos="0"/>
          <note pan="0" key="35" len="192" vol="197" pos="0"/>
          <note pan="0" key="0" len="96" vol="197" pos="0"/>
          <note pan="0" key="44" len="96" vol="197" pos="192"/>
          <note pan="0" key="37" len="96" vol="197" pos="192"/>
          <note pan="0" key="44" len="96" vol="197" pos="288"/>
          <note pan="0" key="37" len="96" vol="197" pos="288"/>
        </pattern>
        <pattern steps="16" muted="0" pos="56448" name="" type="1">
          <note pan="0" key="46" len="384" vol="78" pos="0"/>
          <note pan="0" key="39" len="384" vol="78" pos="0"/>
          <note pan="0" key="0" len="192" vol="78" pos="0"/>
          <note pan="0" key="44" len="384" vol="78" pos="384"/>
          <note pan="0" key="37" len="384" vol="78" pos="384"/>
          <note pan="0" key="44" len="384" vol="78" pos="768"/>
          <note pan="0" key="36" len="384" vol="78" pos="768"/>
          <note pan="0" key="47" len="384" vol="78" pos="1152"/>
          <note pan="0" key="40" len="384" vol="78" pos="1152"/>
          <note pan="0" key="46" len="384" vol="78" pos="1536"/>
          <note pan="0" key="39" len="384" vol="78" pos="1536"/>
          <note pan="0" key="44" len="384" vol="78" pos="1920"/>
          <note pan="0" key="37" len="384" vol="78" pos="1920"/>
          <note pan="0" key="44" len="384" vol="78" pos="2304"/>
          <note pan="0" key="36" len="384" vol="78" pos="2304"/>
          <note pan="0" key="47" len="384" vol="78" pos="2688"/>
          <note pan="0" key="40" len="384" vol="78" pos="2688"/>
        </pattern>
        <pattern steps="16" muted="0" pos="52992" name="" type="1">
          <note pan="0" key="49" len="48" vol="197" pos="0"/>
          <note pan="0" key="42" len="48" vol="197" pos="0"/>
          <note pan="0" key="0" len="36" vol="197" pos="0"/>
          <note pan="0" key="1" len="36" vol="197" pos="36"/>
          <note pan="0" key="42" len="24" vol="197" pos="48"/>
          <note pan="0" key="42" len="24" vol="197" pos="72"/>
          <note pan="0" key="42" len="24" vol="197" pos="96"/>
          <note pan="0" key="42" len="24" vol="197" pos="120"/>
          <note pan="0" key="42" len="24" vol="197" pos="144"/>
          <note pan="0" key="42" len="12" vol="197" pos="168"/>
          <note pan="0" key="42" len="12" vol="197" pos="180"/>
          <note pan="0" key="42" len="24" vol="197" pos="192"/>
          <note pan="0" key="42" len="24" vol="197" pos="216"/>
          <note pan="0" key="42" len="12" vol="197" pos="240"/>
          <note pan="0" key="42" len="12" vol="197" pos="252"/>
          <note pan="0" key="42" len="24" vol="197" pos="264"/>
          <note pan="0" key="42" len="24" vol="197" pos="288"/>
          <note pan="0" key="42" len="24" vol="197" pos="312"/>
          <note pan="0" key="0" len="48" vol="197" pos="324"/>
          <note pan="0" key="49" len="48" vol="197" pos="336"/>
          <note pan="0" key="42" len="48" vol="197" pos="336"/>
        </pattern>
        <pattern steps="16" muted="0" pos="7680" name="" type="1">
          <note pan="0" key="46" len="24" vol="78" pos="0"/>
          <note pan="0" key="39" len="24" vol="78" pos="0"/>
          <note pan="0" key="0" len="12" vol="78" pos="0"/>
          <note pan="0" key="1" len="12" vol="78" pos="12"/>
          <note pan="0" key="39" len="12" vol="78" pos="24"/>
          <note pan="0" key="39" len="12" vol="78" pos="36"/>
          <note pan="0" key="39" len="12" vol="78" pos="48"/>
          <note pan="0" key="39" len="12" vol="78" pos="60"/>
          <note pan="0" key="39" len="12" vol="78" pos="72"/>
          <note pan="0" key="39" len="12" vol="78" pos="84"/>
          <note pan="0" key="39" len="12" vol="78" pos="96"/>
          <note pan="0" key="39" len="12" vol="78" pos="108"/>
          <note pan="0" key="39" len="12" vol="78" pos="120"/>
          <note pan="0" key="39" len="12" vol="78" pos="132"/>
          <note pan="0" key="39" len="12" vol="78" pos="144"/>
          <note pan="0" key="39" len="12" vol="78" pos="156"/>
          <note pan="0" key="39" len="12" vol="78" pos="168"/>
          <note pan="0" key="39" len="12" vol="78" pos="180"/>
          <note pan="0" key="52" len="96" vol="78" pos="192"/>
          <note pan="0" key="45" len="96" vol="78" pos="192"/>
          <note pan="0" key="0" len="12" vol="78" pos="192"/>
          <note pan="0" key="51" len="96" vol="78" pos="288"/>
          <note pan="0" key="44" len="96" vol="78" pos="288"/>
        </pattern>
        <pattern steps="16" muted="0" pos="7296" name="" type="1">
          <note pan="0" key="45" len="12" vol="191" pos="0"/>
          <note pan="0" key="1" len="12" vol="191" pos="0"/>
          <note pan="0" key="45" len="12" vol="191" pos="12"/>
          <note pan="0" key="42" len="12" vol="191" pos="24"/>
          <note pan="0" key="42" len="12" vol="191" pos="36"/>
          <note pan="0" key="45" len="12" vol="191" pos="48"/>
          <note pan="0" key="45" len="12" vol="191" pos="60"/>
          <note pan="0" key="49" len="12" vol="191" pos="72"/>
          <note pan="0" key="49" len="12" vol="191" pos="84"/>
          <note pan="0" key="52" len="48" vol="191" pos="96"/>
          <note pan="0" key="0" len="12" vol="191" pos="96"/>
          <note pan="0" key="51" len="24" vol="191" pos="144"/>
          <note pan="0" key="49" len="24" vol="191" pos="168"/>
          <note pan="0" key="44" len="12" vol="191" pos="192"/>
          <note pan="0" key="1" len="12" vol="191" pos="192"/>
          <note pan="0" key="44" len="12" vol="191" pos="204"/>
          <note pan="0" key="42" len="12" vol="191" pos="216"/>
          <note pan="0" key="42" len="12" vol="191" pos="228"/>
          <note pan="0" key="40" len="12" vol="191" pos="240"/>
          <note pan="0" key="40" len="12" vol="191" pos="252"/>
          <note pan="0" key="39" len="12" vol="191" pos="264"/>
          <note pan="0" key="39" len="12" vol="191" pos="276"/>
          <note pan="0" key="37" len="12" vol="191" pos="288"/>
          <note pan="0" key="37" len="12" vol="191" pos="300"/>
          <note pan="0" key="39" len="12" vol="191" pos="312"/>
          <note pan="0" key="39" len="12" vol="191" pos="324"/>
          <note pan="0" key="40" len="12" vol="191" pos="336"/>
          <note pan="0" key="40" len="12" vol="191" pos="348"/>
          <note pan="0" key="44" len="12" vol="191" pos="360"/>
          <note pan="0" key="44" len="12" vol="191" pos="372"/>
        </pattern>
        <pattern steps="16" muted="0" pos="59520" name="" type="1">
          <note pan="0" key="46" len="48" vol="78" pos="0"/>
          <note pan="0" key="39" len="48" vol="78" pos="0"/>
          <note pan="0" key="0" len="24" vol="78" pos="0"/>
          <note pan="0" key="1" len="24" vol="78" pos="24"/>
          <note pan="0" key="39" len="12" vol="78" pos="48"/>
          <note pan="0" key="39" len="12" vol="78" pos="60"/>
          <note pan="0" key="39" len="12" vol="78" pos="72"/>
          <note pan="0" key="39" len="12" vol="78" pos="84"/>
          <note pan="0" key="39" len="12" vol="78" pos="96"/>
          <note pan="0" key="39" len="12" vol="78" pos="108"/>
          <note pan="0" key="39" len="12" vol="78" pos="120"/>
          <note pan="0" key="39" len="12" vol="78" pos="132"/>
          <note pan="0" key="39" len="12" vol="78" pos="144"/>
          <note pan="0" key="39" len="12" vol="78" pos="156"/>
          <note pan="0" key="39" len="12" vol="78" pos="168"/>
          <note pan="0" key="39" len="12" vol="78" pos="180"/>
          <note pan="0" key="39" len="12" vol="78" pos="192"/>
          <note pan="0" key="39" len="12" vol="78" pos="204"/>
          <note pan="0" key="39" len="12" vol="78" pos="216"/>
          <note pan="0" key="39" len="12" vol="78" pos="228"/>
          <note pan="0" key="39" len="12" vol="78" pos="240"/>
          <note pan="0" key="39" len="12" vol="78" pos="252"/>
          <note pan="0" key="39" len="12" vol="78" pos="264"/>
          <note pan="0" key="39" len="12" vol="78" pos="276"/>
          <note pan="0" key="39" len="12" vol="78" pos="288"/>
          <note pan="0" key="39" len="12" vol="78" pos="300"/>
          <note pan="0" key="39" len="12" vol="78" pos="312"/>
          <note pan="0" key="39" len="12" vol="78" pos="324"/>
          <note pan="0" key="39" len="12" vol="78" pos="336"/>
          <note pan="0" key="39" len="12" vol="78" pos="348"/>
          <note pan="0" key="39" len="12" vol="78" pos="360"/>
          <note pan="0" key="39" len="12" vol="78" pos="372"/>
          <note pan="0" key="44" len="48" vol="78" pos="384"/>
          <note pan="0" key="37" len="48" vol="78" pos="384"/>
          <note pan="0" key="0" len="24" vol="78" pos="384"/>
          <note pan="0" key="1" len="24" vol="78" pos="408"/>
          <note pan="0" key="37" len="12" vol="78" pos="432"/>
          <note pan="0" key="37" len="12" vol="78" pos="444"/>
          <note pan="0" key="37" len="12" vol="78" pos="456"/>
          <note pan="0" key="37" len="12" vol="78" pos="468"/>
          <note pan="0" key="37" len="12" vol="78" pos="480"/>
          <note pan="0" key="37" len="12" vol="78" pos="492"/>
          <note pan="0" key="37" len="12" vol="78" pos="504"/>
          <note pan="0" key="37" len="12" vol="78" pos="516"/>
          <note pan="0" key="37" len="12" vol="78" pos="528"/>
          <note pan="0" key="37" len="12" vol="78" pos="540"/>
          <note pan="0" key="37" len="12" vol="78" pos="552"/>
          <note pan="0" key="37" len="12" vol="78" pos="564"/>
          <note pan="0" key="37" len="12" vol="78" pos="576"/>
          <note pan="0" key="37" len="12" vol="78" pos="588"/>
          <note pan="0" key="37" len="12" vol="78" pos="600"/>
          <note pan="0" key="37" len="12" vol="78" pos="612"/>
          <note pan="0" key="37" len="12" vol="78" pos="624"/>
          <note pan="0" key="37" len="12" vol="78" pos="636"/>
          <note pan="0" key="37" len="12" vol="78" pos="648"/>
          <note pan="0" key="37" len="12" vol="78" pos="660"/>
          <note pan="0" key="37" len="12" vol="78" pos="672"/>
          <note pan="0" key="37" len="12" vol="78" pos="684"/>
          <note pan="0" key="37" len="12" vol="78" pos="696"/>
          <note pan="0" key="37" len="12" vol="78" pos="708"/>
          <note pan="0" key="37" len="12" vol="78" pos="720"/>
          <note pan="0" key="37" len="12" vol="78" pos="732"/>
          <note pan="0" key="37" len="12" vol="78" pos="744"/>
          <note pan="0" key="37" len="12" vol="78" pos="756"/>
          <note pan="0" key="44" len="48" vol="78" pos="768"/>
          <note pan="0" key="36" len="48" vol="78" pos="768"/>
          <note pan="0" key="0" len="24" vol="78" pos="768"/>
          <note pan="0" key="1" len="24" vol="78" pos="792"/>
          <note pan="0" key="36" len="12" vol="78" pos="816"/>
          <note pan="0" key="36" len="12" vol="78" pos="828"/>
          <note pan="0" key="36" len="12" vol="78" pos="840"/>
          <note pan="0" key="36" len="12" vol="78" pos="852"/>
          <note pan="0" key="36" len="12" vol="78" pos="864"/>
          <note pan="0" key="36" len="12" vol="78" pos="876"/>
          <note pan="0" key="36" len="12" vol="78" pos="888"/>
          <note pan="0" key="36" len="12" vol="78" pos="900"/>
          <note pan="0" key="36" len="12" vol="78" pos="912"/>
          <note pan="0" key="36" len="12" vol="78" pos="924"/>
          <note pan="0" key="36" len="12" vol="78" pos="936"/>
          <note pan="0" key="36" len="12" vol="78" pos="948"/>
          <note pan="0" key="36" len="12" vol="78" pos="960"/>
          <note pan="0" key="36" len="12" vol="78" pos="972"/>
          <note pan="0" key="36" len="12" vol="78" pos="984"/>
          <note pan="0" key="36" len="12" vol="78" pos="996"/>
          <note pan="0" key="36" len="12" vol="78" pos="1008"/>
          <note pan="0" key="36" len="12" vol="78" pos="1020"/>
          <note pan="0" key="36" len="12" vol="78" pos="1032"/>
          <note pan="0" key="36" len="12" vol="78" pos="1044"/>
          <note pan="0" key="36" len="12" vol="78" pos="1056"/>
          <note pan="0" key="36" len="12" vol="78" pos="1068"/>
          <note pan="0" key="36" len="12" vol="78" pos="1080"/>
          <note pan="0" key="36" len="12" vol="78" pos="1092"/>
          <note pan="0" key="36" len="12" vol="78" pos="1104"/>
          <note pan="0" key="36" len="12" vol="78" pos="1116"/>
          <note pan="0" key="36" len="12" vol="78" pos="1128"/>
          <note pan="0" key="36" len="12" vol="78" pos="1140"/>
          <note pan="0" key="47" len="48" vol="78" pos="1152"/>
          <note pan="0" key="40" len="48" vol="78" pos="1152"/>
          <note pan="0" key="0" len="24" vol="78" pos="1152"/>
          <note pan="0" key="1" len="24" vol="78" pos="1176"/>
          <note pan="0" key="40" len="12" vol="78" pos="1200"/>
          <note pan="0" key="40" len="12" vol="78" pos="1212"/>
          <note pan="0" key="40" len="12" vol="78" pos="1224"/>
          <note pan="0" key="40" len="12" vol="78" pos="1236"/>
          <note pan="0" key="40" len="12" vol="78" pos="1248"/>
          <note pan="0" key="40" len="12" vol="78" pos="1260"/>
          <note pan="0" key="40" len="12" vol="78" pos="1272"/>
          <note pan="0" key="40" len="12" vol="78" pos="1284"/>
          <note pan="0" key="40" len="12" vol="78" pos="1296"/>
          <note pan="0" key="40" len="12" vol="78" pos="1308"/>
          <note pan="0" key="40" len="12" vol="78" pos="1320"/>
          <note pan="0" key="40" len="12" vol="78" pos="1332"/>
          <note pan="0" key="40" len="12" vol="78" pos="1344"/>
          <note pan="0" key="40" len="12" vol="78" pos="1356"/>
          <note pan="0" key="40" len="12" vol="78" pos="1368"/>
          <note pan="0" key="40" len="12" vol="78" pos="1380"/>
          <note pan="0" key="40" len="12" vol="78" pos="1392"/>
          <note pan="0" key="40" len="12" vol="78" pos="1404"/>
          <note pan="0" key="40" len="12" vol="78" pos="1416"/>
          <note pan="0" key="40" len="12" vol="78" pos="1428"/>
          <note pan="0" key="40" len="12" vol="78" pos="1440"/>
          <note pan="0" key="40" len="12" vol="78" pos="1452"/>
          <note pan="0" key="40" len="12" vol="78" pos="1464"/>
          <note pan="0" key="40" len="12" vol="78" pos="1476"/>
          <note pan="0" key="40" len="12" vol="78" pos="1488"/>
          <note pan="0" key="40" len="12" vol="78" pos="1500"/>
          <note pan="0" key="40" len="12" vol="78" pos="1512"/>
          <note pan="0" key="40" len="12" vol="78" pos="1524"/>
        </pattern>
        <pattern steps="16" muted="0" pos="61056" name="" type="1">
          <note pan="0" key="46" len="48" vol="78" pos="0"/>
          <note pan="0" key="39" len="48" vol="78" pos="0"/>
          <note pan="0" key="0" len="24" vol="78" pos="0"/>
          <note pan="0" key="1" len="24" vol="78" pos="24"/>
          <note pan="0" key="39" len="12" vol="78" pos="48"/>
          <note pan="0" key="39" len="12" vol="78" pos="60"/>
          <note pan="0" key="39" len="12" vol="78" pos="72"/>
          <note pan="0" key="39" len="12" vol="78" pos="84"/>
          <note pan="0" key="39" len="12" vol="78" pos="96"/>
          <note pan="0" key="39" len="12" vol="78" pos="108"/>
          <note pan="0" key="39" len="12" vol="78" pos="120"/>
          <note pan="0" key="39" len="12" vol="78" pos="132"/>
          <note pan="0" key="39" len="12" vol="78" pos="144"/>
          <note pan="0" key="39" len="12" vol="78" pos="156"/>
          <note pan="0" key="39" len="12" vol="78" pos="168"/>
          <note pan="0" key="39" len="12" vol="78" pos="180"/>
          <note pan="0" key="39" len="12" vol="78" pos="192"/>
          <note pan="0" key="39" len="12" vol="78" pos="204"/>
          <note pan="0" key="39" len="12" vol="78" pos="216"/>
          <note pan="0" key="39" len="12" vol="78" pos="228"/>
          <note pan="0" key="39" len="12" vol="78" pos="240"/>
          <note pan="0" key="39" len="12" vol="78" pos="252"/>
          <note pan="0" key="39" len="12" vol="78" pos="264"/>
          <note pan="0" key="39" len="12" vol="78" pos="276"/>
          <note pan="0" key="39" len="12" vol="78" pos="288"/>
          <note pan="0" key="39" len="12" vol="78" pos="300"/>
          <note pan="0" key="39" len="12" vol="78" pos="312"/>
          <note pan="0" key="39" len="12" vol="78" pos="324"/>
          <note pan="0" key="39" len="12" vol="78" pos="336"/>
          <note pan="0" key="39" len="12" vol="78" pos="348"/>
          <note pan="0" key="39" len="12" vol="78" pos="360"/>
          <note pan="0" key="39" len="12" vol="78" pos="372"/>
          <note pan="0" key="44" len="48" vol="78" pos="384"/>
          <note pan="0" key="37" len="48" vol="78" pos="384"/>
          <note pan="0" key="0" len="24" vol="78" pos="384"/>
          <note pan="0" key="1" len="24" vol="78" pos="408"/>
          <note pan="0" key="37" len="12" vol="78" pos="432"/>
          <note pan="0" key="37" len="12" vol="78" pos="444"/>
          <note pan="0" key="37" len="12" vol="78" pos="456"/>
          <note pan="0" key="37" len="12" vol="78" pos="468"/>
          <note pan="0" key="37" len="12" vol="78" pos="480"/>
          <note pan="0" key="37" len="12" vol="78" pos="492"/>
          <note pan="0" key="37" len="12" vol="78" pos="504"/>
          <note pan="0" key="37" len="12" vol="78" pos="516"/>
          <note pan="0" key="37" len="12" vol="78" pos="528"/>
          <note pan="0" key="37" len="12" vol="78" pos="540"/>
          <note pan="0" key="37" len="12" vol="78" pos="552"/>
          <note pan="0" key="37" len="12" vol="78" pos="564"/>
          <note pan="0" key="37" len="12" vol="78" pos="576"/>
          <note pan="0" key="37" len="12" vol="78" pos="588"/>
          <note pan="0" key="37" len="12" vol="78" pos="600"/>
          <note pan="0" key="37" len="12" vol="78" pos="612"/>
          <note pan="0" key="37" len="12" vol="78" pos="624"/>
          <note pan="0" key="37" len="12" vol="78" pos="636"/>
          <note pan="0" key="37" len="12" vol="78" pos="648"/>
          <note pan="0" key="37" len="12" vol="78" pos="660"/>
          <note pan="0" key="37" len="12" vol="78" pos="672"/>
          <note pan="0" key="37" len="12" vol="78" pos="684"/>
          <note pan="0" key="37" len="12" vol="78" pos="696"/>
          <note pan="0" key="37" len="12" vol="78" pos="708"/>
          <note pan="0" key="37" len="12" vol="78" pos="720"/>
          <note pan="0" key="37" len="12" vol="78" pos="732"/>
          <note pan="0" key="37" len="12" vol="78" pos="744"/>
          <note pan="0" key="37" len="12" vol="78" pos="756"/>
          <note pan="0" key="44" len="48" vol="78" pos="768"/>
          <note pan="0" key="36" len="48" vol="78" pos="768"/>
          <note pan="0" key="0" len="24" vol="78" pos="768"/>
          <note pan="0" key="1" len="24" vol="78" pos="792"/>
          <note pan="0" key="36" len="12" vol="78" pos="816"/>
          <note pan="0" key="36" len="12" vol="78" pos="828"/>
          <note pan="0" key="36" len="12" vol="78" pos="840"/>
          <note pan="0" key="36" len="12" vol="78" pos="852"/>
          <note pan="0" key="36" len="12" vol="78" pos="864"/>
          <note pan="0" key="36" len="12" vol="78" pos="876"/>
          <note pan="0" key="36" len="12" vol="78" pos="888"/>
          <note pan="0" key="36" len="12" vol="78" pos="900"/>
          <note pan="0" key="36" len="12" vol="78" pos="912"/>
          <note pan="0" key="36" len="12" vol="78" pos="924"/>
          <note pan="0" key="36" len="12" vol="78" pos="936"/>
          <note pan="0" key="36" len="12" vol="78" pos="948"/>
          <note pan="0" key="36" len="12" vol="78" pos="960"/>
          <note pan="0" key="36" len="12" vol="78" pos="972"/>
          <note pan="0" key="36" len="12" vol="78" pos="984"/>
          <note pan="0" key="36" len="12" vol="78" pos="996"/>
          <note pan="0" key="36" len="12" vol="78" pos="1008"/>
          <note pan="0" key="36" len="12" vol="78" pos="1020"/>
          <note pan="0" key="36" len="12" vol="78" pos="1032"/>
          <note pan="0" key="36" len="12" vol="78" pos="1044"/>
          <note pan="0" key="36" len="12" vol="78" pos="1056"/>
          <note pan="0" key="36" len="12" vol="78" pos="1068"/>
          <note pan="0" key="36" len="12" vol="78" pos="1080"/>
          <note pan="0" key="36" len="12" vol="78" pos="1092"/>
          <note pan="0" key="36" len="12" vol="78" pos="1104"/>
          <note pan="0" key="36" len="12" vol="78" pos="1116"/>
          <note pan="0" key="36" len="12" vol="78" pos="1128"/>
          <note pan="0" key="36" len="12" vol="78" pos="1140"/>
          <note pan="0" key="47" len="48" vol="78" pos="1152"/>
          <note pan="0" key="40" len="48" vol="78" pos="1152"/>
          <note pan="0" key="0" len="24" vol="78" pos="1152"/>
          <note pan="0" key="1" len="24" vol="78" pos="1176"/>
          <note pan="0" key="40" len="12" vol="78" pos="1200"/>
          <note pan="0" key="40" len="12" vol="78" pos="1212"/>
          <note pan="0" key="40" len="12" vol="78" pos="1224"/>
          <note pan="0" key="40" len="12" vol="78" pos="1236"/>
          <note pan="0" key="40" len="12" vol="78" pos="1248"/>
          <note pan="0" key="40" len="12" vol="78" pos="1260"/>
          <note pan="0" key="40" len="12" vol="78" pos="1272"/>
          <note pan="0" key="40" len="12" vol="78" pos="1284"/>
          <note pan="0" key="40" len="12" vol="78" pos="1296"/>
          <note pan="0" key="40" len="12" vol="78" pos="1308"/>
          <note pan="0" key="40" len="12" vol="78" pos="1320"/>
          <note pan="0" key="40" len="12" vol="78" pos="1332"/>
          <note pan="0" key="40" len="12" vol="78" pos="1344"/>
          <note pan="0" key="40" len="12" vol="78" pos="1356"/>
          <note pan="0" key="40" len="12" vol="78" pos="1368"/>
          <note pan="0" key="40" len="12" vol="78" pos="1380"/>
          <note pan="0" key="40" len="12" vol="78" pos="1392"/>
          <note pan="0" key="40" len="12" vol="78" pos="1404"/>
          <note pan="0" key="40" len="12" vol="78" pos="1416"/>
          <note pan="0" key="40" len="12" vol="78" pos="1428"/>
          <note pan="0" key="40" len="12" vol="78" pos="1440"/>
          <note pan="0" key="40" len="12" vol="78" pos="1452"/>
          <note pan="0" key="40" len="12" vol="78" pos="1464"/>
          <note pan="0" key="40" len="12" vol="78" pos="1476"/>
          <note pan="0" key="40" len="12" vol="78" pos="1488"/>
          <note pan="0" key="40" len="12" vol="78" pos="1500"/>
          <note pan="0" key="40" len="12" vol="78" pos="1512"/>
          <note pan="0" key="40" len="12" vol="78" pos="1524"/>
        </pattern>
        <pattern steps="16" muted="0" pos="63744" name="" type="1">
          <note pan="0" key="42" len="12" vol="197" pos="0"/>
          <note pan="0" key="0" len="12" vol="197" pos="0"/>
          <note pan="0" key="39" len="12" vol="197" pos="12"/>
          <note pan="0" key="1" len="12" vol="197" pos="12"/>
          <note pan="0" key="41" len="12" vol="197" pos="24"/>
          <note pan="0" key="42" len="12" vol="197" pos="36"/>
          <note pan="0" key="44" len="12" vol="197" pos="48"/>
          <note pan="0" key="0" len="12" vol="197" pos="48"/>
          <note pan="0" key="41" len="12" vol="197" pos="60"/>
          <note pan="0" key="1" len="12" vol="197" pos="60"/>
          <note pan="0" key="42" len="12" vol="197" pos="72"/>
          <note pan="0" key="44" len="12" vol="197" pos="84"/>
          <note pan="0" key="46" len="12" vol="197" pos="96"/>
          <note pan="0" key="0" len="12" vol="197" pos="96"/>
          <note pan="0" key="42" len="12" vol="197" pos="108"/>
          <note pan="0" key="1" len="12" vol="197" pos="108"/>
          <note pan="0" key="44" len="12" vol="197" pos="120"/>
          <note pan="0" key="46" len="12" vol="197" pos="132"/>
          <note pan="0" key="47" len="12" vol="197" pos="144"/>
          <note pan="0" key="0" len="12" vol="197" pos="144"/>
          <note pan="0" key="44" len="12" vol="197" pos="156"/>
          <note pan="0" key="1" len="12" vol="197" pos="156"/>
          <note pan="0" key="46" len="12" vol="197" pos="168"/>
          <note pan="0" key="47" len="12" vol="197" pos="180"/>
          <note pan="0" key="49" len="12" vol="197" pos="192"/>
          <note pan="0" key="0" len="12" vol="197" pos="192"/>
          <note pan="0" key="47" len="12" vol="197" pos="204"/>
          <note pan="0" key="1" len="12" vol="197" pos="204"/>
          <note pan="0" key="46" len="12" vol="197" pos="216"/>
          <note pan="0" key="44" len="12" vol="197" pos="228"/>
          <note pan="0" key="42" len="12" vol="197" pos="240"/>
          <note pan="0" key="44" len="12" vol="197" pos="252"/>
          <note pan="0" key="47" len="12" vol="197" pos="264"/>
          <note pan="0" key="0" len="12" vol="197" pos="264"/>
          <note pan="0" key="46" len="12" vol="197" pos="276"/>
          <note pan="0" key="1" len="12" vol="197" pos="276"/>
          <note pan="0" key="44" len="12" vol="197" pos="288"/>
          <note pan="0" key="42" len="12" vol="197" pos="300"/>
          <note pan="0" key="41" len="12" vol="197" pos="312"/>
          <note pan="0" key="42" len="12" vol="197" pos="324"/>
          <note pan="0" key="46" len="12" vol="197" pos="336"/>
          <note pan="0" key="0" len="12" vol="197" pos="336"/>
          <note pan="0" key="44" len="12" vol="197" pos="348"/>
          <note pan="0" key="1" len="12" vol="197" pos="348"/>
          <note pan="0" key="42" len="12" vol="197" pos="360"/>
          <note pan="0" key="41" len="12" vol="197" pos="372"/>
          <note pan="0" key="39" len="12" vol="197" pos="384"/>
          <note pan="0" key="41" len="12" vol="197" pos="396"/>
          <note pan="0" key="44" len="12" vol="200" pos="408"/>
          <note pan="0" key="0" len="12" vol="197" pos="408"/>
          <note pan="0" key="42" len="12" vol="200" pos="420"/>
          <note pan="0" key="1" len="12" vol="197" pos="420"/>
          <note pan="0" key="41" len="12" vol="200" pos="432"/>
          <note pan="0" key="39" len="12" vol="200" pos="444"/>
          <note pan="0" key="37" len="12" vol="200" pos="456"/>
          <note pan="0" key="39" len="12" vol="200" pos="468"/>
          <note pan="0" key="42" len="12" vol="200" pos="480"/>
          <note pan="0" key="0" len="12" vol="197" pos="480"/>
          <note pan="0" key="41" len="12" vol="200" pos="492"/>
          <note pan="0" key="1" len="12" vol="197" pos="492"/>
          <note pan="0" key="39" len="12" vol="200" pos="504"/>
          <note pan="0" key="37" len="12" vol="200" pos="516"/>
          <note pan="0" key="41" len="12" vol="200" pos="528"/>
          <note pan="0" key="0" len="12" vol="197" pos="528"/>
          <note pan="0" key="39" len="12" vol="200" pos="540"/>
          <note pan="0" key="1" len="12" vol="197" pos="540"/>
          <note pan="0" key="37" len="12" vol="200" pos="552"/>
          <note pan="0" key="39" len="12" vol="200" pos="564"/>
        </pattern>
        <pattern steps="16" muted="0" pos="62592" name="" type="1">
          <note pan="0" key="46" len="192" vol="197" pos="0"/>
          <note pan="0" key="39" len="192" vol="197" pos="0"/>
          <note pan="0" key="0" len="48" vol="78" pos="0"/>
          <note pan="0" key="53" len="192" vol="197" pos="192"/>
          <note pan="0" key="46" len="192" vol="197" pos="192"/>
          <note pan="0" key="54" len="192" vol="197" pos="384"/>
          <note pan="0" key="47" len="192" vol="197" pos="384"/>
          <note pan="0" key="56" len="192" vol="197" pos="576"/>
          <note pan="0" key="49" len="192" vol="197" pos="576"/>
          <note pan="0" key="1" len="12" vol="197" pos="756"/>
          <note pan="0" key="44" len="12" vol="197" pos="768"/>
          <note pan="0" key="44" len="12" vol="197" pos="780"/>
          <note pan="0" key="44" len="12" vol="197" pos="792"/>
          <note pan="0" key="44" len="12" vol="197" pos="804"/>
          <note pan="0" key="44" len="12" vol="197" pos="816"/>
          <note pan="0" key="44" len="12" vol="197" pos="828"/>
          <note pan="0" key="44" len="12" vol="197" pos="840"/>
          <note pan="0" key="44" len="12" vol="197" pos="852"/>
          <note pan="0" key="44" len="12" vol="197" pos="864"/>
          <note pan="0" key="44" len="12" vol="197" pos="876"/>
          <note pan="0" key="44" len="12" vol="197" pos="888"/>
          <note pan="0" key="44" len="12" vol="197" pos="900"/>
          <note pan="0" key="44" len="12" vol="197" pos="912"/>
          <note pan="0" key="44" len="12" vol="197" pos="924"/>
          <note pan="0" key="44" len="12" vol="197" pos="936"/>
          <note pan="0" key="44" len="12" vol="197" pos="948"/>
          <note pan="0" key="46" len="12" vol="197" pos="960"/>
          <note pan="0" key="46" len="12" vol="197" pos="972"/>
          <note pan="0" key="46" len="12" vol="197" pos="984"/>
          <note pan="0" key="46" len="12" vol="197" pos="996"/>
          <note pan="0" key="46" len="12" vol="197" pos="1008"/>
          <note pan="0" key="46" len="12" vol="197" pos="1020"/>
          <note pan="0" key="46" len="12" vol="197" pos="1032"/>
          <note pan="0" key="46" len="12" vol="197" pos="1044"/>
          <note pan="0" key="46" len="12" vol="197" pos="1056"/>
          <note pan="0" key="46" len="12" vol="197" pos="1068"/>
          <note pan="0" key="46" len="12" vol="197" pos="1080"/>
          <note pan="0" key="46" len="12" vol="197" pos="1092"/>
          <note pan="0" key="46" len="12" vol="197" pos="1104"/>
          <note pan="0" key="46" len="12" vol="197" pos="1116"/>
          <note pan="0" key="46" len="12" vol="197" pos="1128"/>
          <note pan="0" key="46" len="12" vol="197" pos="1140"/>
        </pattern>
        <pattern steps="16" muted="0" pos="64320" name="" type="1">
          <note pan="0" key="46" len="192" vol="197" pos="0"/>
          <note pan="0" key="39" len="192" vol="197" pos="0"/>
          <note pan="0" key="0" len="192" vol="197" pos="0"/>
        </pattern>
      </track>
      <track solo="0" mutedBeforeSolo="1" muted="1" name="Lead Guitar S" type="0">
        <instrumenttrack pan="0" basenote="57" pitch="0" usemasterpitch="1" vol="200" pitchrange="1" fxch="13">
          <instrument name="carlapatchbay">
            <carlapatchbay>
              <CARLA-PROJECT VERSION="2.2">
                <EngineSettings>
                  <ForceStereo>false</ForceStereo>
                  <PreferPluginBridges>false</PreferPluginBridges>
                  <PreferUiBridges>true</PreferUiBridges>
                  <UIsAlwaysOnTop>false</UIsAlwaysOnTop>
                  <MaxParameters>200</MaxParameters>
                  <UIBridgesTimeout>4000</UIBridgesTimeout>
                  <LADSPA_PATH>/home/pass/.ladspa:/usr/lib/ladspa:/usr/local/lib/ladspa</LADSPA_PATH>
                  <DSSI_PATH>/home/pass/.dssi:/usr/lib/dssi:/usr/local/lib/dssi</DSSI_PATH>
                  <LV2_PATH>/home/pass/.lv2:/usr/lib/lv2:/usr/local/lib/lv2</LV2_PATH>
                  <VST2_PATH>/home/pass/.vst:/home/pass/.wine/drive_c/Program Files (x86)/VstPlugins:/home/pass/.wine/drive_c/Program Files/VstPlugins:/usr/lib/lxvst:/usr/lib/vst:/usr/local/lib/lxvst:/usr/local/lib/vst/home/pass/.lxvst:/home/pass/vst</VST2_PATH>
                  <VST3_PATH>/home/pass/.vst3:/home/pass/.wine/drive_c/Program Files (x86)/Common Files/VST3:/home/pass/.wine/drive_c/Program Files/Common Files/VST3:/usr/lib/vst3:/usr/local/lib/vst3</VST3_PATH>
                  <SF2_PATH>/home/pass/.sounds/sf2/home/pass/.sounds/sf3:/usr/share/soundfonts:/usr/share/sounds/sf2:/usr/share/sounds/sf3</SF2_PATH>
                  <SFZ_PATH>/home/pass/.sounds/sfz:/home/pass/samples:/usr/share/sounds/sfz</SFZ_PATH>
                </EngineSettings>
                <!-- sfizz -->
                <Plugin>
                  <Info>
                    <Type>LV2</Type>
                    <Name>sfizz</Name>
                    <URI>http://sfztools.github.io/sfizz</URI>
                  </Info>
                  <Data>
                    <Active>Yes</Active>
                    <ControlChannel>1</ControlChannel>
                    <Options>0x3f0</Options>
                    <Parameter>
                      <Index>0</Index>
                      <Name>Volume</Name>
                      <Symbol>volume</Symbol>
                      <Value>0</Value>
                    </Parameter>
                    <Parameter>
                      <Index>1</Index>
                      <Name>Polyphony</Name>
                      <Symbol>num_voices</Symbol>
                      <Value>64</Value>
                    </Parameter>
                    <Parameter>
                      <Index>2</Index>
                      <Name>Internal oversampling factor</Name>
                      <Symbol>oversampling</Symbol>
                      <Value>1</Value>
                    </Parameter>
                    <Parameter>
                      <Index>3</Index>
                      <Name>Preload size</Name>
                      <Symbol>preload_size</Symbol>
                      <Value>8192</Value>
                    </Parameter>
                    <Parameter>
                      <Index>5</Index>
                      <Name>Scala root key</Name>
                      <Symbol>scala_root_key</Symbol>
                      <Value>60</Value>
                    </Parameter>
                    <Parameter>
                      <Index>6</Index>
                      <Name>Tuning frequency</Name>
                      <Symbol>tuning_frequency</Symbol>
                      <Value>440</Value>
                    </Parameter>
                    <Parameter>
                      <Index>7</Index>
                      <Name>Stretched tuning</Name>
                      <Symbol>stretched_tuning</Symbol>
                      <Value>0</Value>
                    </Parameter>
                    <CustomData>
                      <Type>http://lv2plug.in/ns/ext/atom#Path</Type>
                      <Key>http://sfztools.github.io/sfizz:sfzfile</Key>
                      <Value>_fakeguitar1_integrated.sfz</Value>
                    </CustomData>
                    <CustomData>
                      <Type>http://lv2plug.in/ns/ext/atom#Int</Type>
                      <Key>http://sfztools.github.io/sfizz:numvoices</Key>
                      <Value>QAAAAA==</Value>
                    </CustomData>
                    <CustomData>
                      <Type>http://lv2plug.in/ns/ext/atom#Int</Type>
                      <Key>http://sfztools.github.io/sfizz:preload_size</Key>
                      <Value>ACAAAA==</Value>
                    </CustomData>
                    <CustomData>
                      <Type>http://lv2plug.in/ns/ext/atom#Int</Type>
                      <Key>http://sfztools.github.io/sfizz:oversampling</Key>
                      <Value>AQAAAA==</Value>
                    </CustomData>
                    <CustomData>
                      <Type>http://lv2plug.in/ns/ext/atom#Path</Type>
                      <Key>http://sfztools.github.io/sfizz:tuningfile</Key>
                      <Value>DefaultScale.scl</Value>
                    </CustomData>
                  </Data>
                </Plugin>
                <Patchbay>
                  <Connection>
                    <Source>Midi Input:Capture 1</Source>
                    <Target>sfizz:events-in</Target>
                  </Connection>
                  <Connection>
                    <Source>sfizz:Left Output</Source>
                    <Target>Audio Output:Left</Target>
                  </Connection>
                  <Connection>
                    <Source>sfizz:Right Output</Source>
                    <Target>Audio Output:Right</Target>
                  </Connection>
                  <Positions>
                    <Position y1="1353" x1="1693" pluginId="0">
                      <Name>sfizz</Name>
                    </Position>
                  </Positions>
                </Patchbay>
              </CARLA-PROJECT>
              <key/>
            </carlapatchbay>
          </instrument>
          <eldata fcut="14000" fres="0.5" ftype="0" fwet="0">
            <elvol lspd_syncmode="0" amt="0" lshp="0" lpdel="0" att="0" ctlenvamt="0" dec="0.5" userwavefile="" x100="0" rel="0.1" sustain="0.5" lspd_numerator="4" latt="0" lspd="0.1" lamt="0" lspd_denominator="4" hold="0.5" pdel="0"/>
            <elcut lspd_syncmode="0" amt="0" lshp="0" lpdel="0" att="0" ctlenvamt="0" dec="0.5" userwavefile="" x100="0" rel="0.1" sustain="0.5" lspd_numerator="4" latt="0" lspd="0.1" lamt="0" lspd_denominator="4" hold="0.5" pdel="0"/>
            <elres lspd_syncmode="0" amt="0" lshp="0" lpdel="0" att="0" ctlenvamt="0" dec="0.5" userwavefile="" x100="0" rel="0.1" sustain="0.5" lspd_numerator="4" latt="0" lspd="0.1" lamt="0" lspd_denominator="4" hold="0.5" pdel="0"/>
          </eldata>
          <chordcreator chordrange="1" chord-enabled="0" chord="0"/>
          <arpeggiator arprange="1" arpmode="0" arpcycle="0" arptime_syncmode="0" arptime_numerator="4" arpgate="100" arptime="200" arpskip="0" arpmiss="0" arp="0" arptime_denominator="4" arp-enabled="0" arpdir="0"/>
          <midiport inputcontroller="0" outputcontroller="0" readable="0" outputchannel="1" fixedoutputvelocity="-1" outputprogram="1" fixedinputvelocity="-1" fixedoutputnote="-1" inputchannel="0" basevelocity="63" writable="0"/>
          <fxchain enabled="0" numofeffects="0"/>
        </instrumenttrack>
        <pattern steps="16" muted="0" pos="3456" name="" type="1">
          <note pan="0" key="73" len="144" vol="78" pos="0"/>
          <note pan="0" key="0" len="144" vol="78" pos="0"/>
          <note pan="0" key="76" len="48" vol="78" pos="144"/>
          <note pan="0" key="75" len="144" vol="78" pos="192"/>
          <note pan="0" key="80" len="48" vol="78" pos="336"/>
          <note pan="0" key="80" len="144" vol="78" pos="384"/>
          <note pan="0" key="78" len="24" vol="78" pos="528"/>
          <note pan="0" key="76" len="24" vol="78" pos="552"/>
          <note pan="0" key="75" len="48" vol="78" pos="576"/>
          <note pan="0" key="76" len="48" vol="78" pos="624"/>
          <note pan="0" key="71" len="48" vol="78" pos="672"/>
          <note pan="0" key="68" len="48" vol="78" pos="720"/>
          <note pan="0" key="69" len="144" vol="78" pos="768"/>
          <note pan="0" key="76" len="48" vol="78" pos="912"/>
          <note pan="0" key="75" len="144" vol="78" pos="960"/>
          <note pan="0" key="78" len="48" vol="78" pos="1104"/>
          <note pan="0" key="76" len="96" vol="197" pos="1152"/>
          <note pan="0" key="80" len="48" vol="197" pos="1248"/>
          <note pan="0" key="76" len="48" vol="197" pos="1296"/>
          <note pan="0" key="78" len="48" vol="197" pos="1344"/>
          <note pan="0" key="83" len="48" vol="197" pos="1392"/>
          <note pan="0" key="80" len="48" vol="197" pos="1440"/>
          <note pan="0" key="87" len="48" vol="197" pos="1488"/>
        </pattern>
        <pattern steps="16" muted="0" pos="6144" name="" type="1">
          <note pan="0" key="69" len="120" vol="78" pos="384"/>
          <note pan="0" key="68" len="24" vol="78" pos="504"/>
          <note pan="0" key="69" len="24" vol="78" pos="528"/>
          <note pan="0" key="71" len="24" vol="78" pos="552"/>
          <note pan="0" key="73" len="72" vol="78" pos="576"/>
          <note pan="0" key="71" len="72" vol="78" pos="648"/>
          <note pan="0" key="69" len="48" vol="78" pos="720"/>
          <note pan="0" key="68" len="24" vol="78" pos="768"/>
          <note pan="0" key="69" len="24" vol="78" pos="792"/>
          <note pan="0" key="68" len="24" vol="78" pos="816"/>
          <note pan="0" key="64" len="48" vol="78" pos="840"/>
          <note pan="0" key="64" len="24" vol="78" pos="888"/>
          <note pan="0" key="66" len="24" vol="78" pos="912"/>
          <note pan="0" key="68" len="24" vol="78" pos="936"/>
          <note pan="0" key="66" len="96" vol="78" pos="960"/>
        </pattern>
        <pattern steps="16" muted="0" pos="4992" name="" type="1">
          <note pan="0" key="61" len="24" vol="78" pos="0"/>
          <note pan="0" key="0" len="48" vol="100" pos="0"/>
          <note pan="0" key="63" len="24" vol="78" pos="24"/>
          <note pan="0" key="61" len="24" vol="78" pos="48"/>
          <note pan="0" key="68" len="48" vol="78" pos="72"/>
          <note pan="0" key="61" len="24" vol="78" pos="120"/>
          <note pan="0" key="64" len="24" vol="78" pos="144"/>
          <note pan="0" key="68" len="24" vol="78" pos="168"/>
          <note pan="0" key="71" len="24" vol="78" pos="192"/>
          <note pan="0" key="69" len="24" vol="78" pos="216"/>
          <note pan="0" key="68" len="24" vol="78" pos="240"/>
          <note pan="0" key="69" len="48" vol="78" pos="264"/>
          <note pan="0" key="68" len="24" vol="78" pos="312"/>
          <note pan="0" key="66" len="24" vol="78" pos="336"/>
          <note pan="0" key="68" len="24" vol="78" pos="360"/>
        </pattern>
        <pattern steps="16" muted="0" pos="5760" name="" type="1">
          <note pan="0" key="61" len="24" vol="78" pos="0"/>
          <note pan="0" key="0" len="48" vol="100" pos="0"/>
          <note pan="0" key="63" len="24" vol="78" pos="24"/>
          <note pan="0" key="61" len="24" vol="78" pos="48"/>
          <note pan="0" key="68" len="48" vol="78" pos="72"/>
          <note pan="0" key="61" len="24" vol="78" pos="120"/>
          <note pan="0" key="64" len="24" vol="78" pos="144"/>
          <note pan="0" key="68" len="24" vol="78" pos="168"/>
          <note pan="0" key="71" len="24" vol="78" pos="192"/>
          <note pan="0" key="73" len="24" vol="78" pos="216"/>
          <note pan="0" key="75" len="24" vol="78" pos="240"/>
          <note pan="0" key="73" len="48" vol="78" pos="264"/>
          <note pan="0" key="75" len="24" vol="78" pos="312"/>
          <note pan="0" key="76" len="24" vol="78" pos="336"/>
          <note pan="0" key="78" len="24" vol="78" pos="360"/>
        </pattern>
        <pattern steps="16" muted="0" pos="12672" name="" type="1">
          <note pan="0" key="61" len="24" vol="78" pos="0"/>
          <note pan="0" key="1" len="12" vol="197" pos="0"/>
          <note pan="0" key="63" len="24" vol="78" pos="24"/>
          <note pan="0" key="61" len="24" vol="78" pos="48"/>
          <note pan="0" key="0" len="12" vol="197" pos="60"/>
          <note pan="0" key="68" len="48" vol="78" pos="72"/>
          <note pan="0" key="61" len="24" vol="78" pos="120"/>
          <note pan="0" key="64" len="24" vol="78" pos="144"/>
          <note pan="0" key="68" len="24" vol="78" pos="168"/>
          <note pan="0" key="71" len="24" vol="78" pos="192"/>
          <note pan="0" key="69" len="24" vol="78" pos="216"/>
          <note pan="0" key="68" len="24" vol="78" pos="240"/>
          <note pan="0" key="69" len="48" vol="78" pos="264"/>
          <note pan="0" key="68" len="24" vol="78" pos="312"/>
          <note pan="0" key="66" len="24" vol="78" pos="336"/>
          <note pan="0" key="68" len="24" vol="78" pos="360"/>
        </pattern>
        <pattern steps="16" muted="0" pos="13440" name="" type="1">
          <note pan="0" key="61" len="24" vol="78" pos="0"/>
          <note pan="0" key="63" len="24" vol="78" pos="24"/>
          <note pan="0" key="61" len="24" vol="78" pos="48"/>
          <note pan="0" key="68" len="48" vol="78" pos="72"/>
          <note pan="0" key="61" len="24" vol="78" pos="120"/>
          <note pan="0" key="64" len="24" vol="78" pos="144"/>
          <note pan="0" key="68" len="24" vol="78" pos="168"/>
          <note pan="0" key="71" len="24" vol="78" pos="192"/>
          <note pan="0" key="73" len="24" vol="78" pos="216"/>
          <note pan="0" key="75" len="24" vol="78" pos="240"/>
          <note pan="0" key="73" len="48" vol="78" pos="264"/>
          <note pan="0" key="75" len="24" vol="78" pos="312"/>
          <note pan="0" key="76" len="24" vol="78" pos="336"/>
          <note pan="0" key="78" len="24" vol="78" pos="360"/>
        </pattern>
        <pattern steps="16" muted="0" pos="13824" name="" type="1">
          <note pan="0" key="69" len="120" vol="78" pos="384"/>
          <note pan="0" key="68" len="24" vol="78" pos="504"/>
          <note pan="0" key="69" len="24" vol="78" pos="528"/>
          <note pan="0" key="71" len="24" vol="78" pos="552"/>
          <note pan="0" key="73" len="72" vol="78" pos="576"/>
          <note pan="0" key="71" len="72" vol="78" pos="648"/>
          <note pan="0" key="69" len="48" vol="78" pos="720"/>
          <note pan="0" key="68" len="24" vol="78" pos="768"/>
          <note pan="0" key="69" len="24" vol="78" pos="792"/>
          <note pan="0" key="68" len="24" vol="78" pos="816"/>
          <note pan="0" key="64" len="48" vol="78" pos="840"/>
          <note pan="0" key="64" len="24" vol="78" pos="888"/>
          <note pan="0" key="66" len="24" vol="78" pos="912"/>
          <note pan="0" key="68" len="24" vol="78" pos="936"/>
          <note pan="0" key="66" len="96" vol="78" pos="960"/>
        </pattern>
        <pattern steps="16" muted="0" pos="11904" name="" type="1">
          <note pan="0" key="68" len="12" vol="78" pos="0"/>
          <note pan="0" key="0" len="24" vol="78" pos="0"/>
          <note pan="0" key="64" len="12" vol="78" pos="12"/>
          <note pan="0" key="61" len="12" vol="78" pos="24"/>
          <note pan="0" key="1" len="24" vol="78" pos="24"/>
          <note pan="0" key="56" len="12" vol="78" pos="36"/>
          <note pan="0" key="61" len="12" vol="78" pos="48"/>
          <note pan="0" key="64" len="12" vol="78" pos="60"/>
          <note pan="0" key="73" len="12" vol="78" pos="72"/>
          <note pan="0" key="0" len="24" vol="78" pos="72"/>
          <note pan="0" key="69" len="12" vol="78" pos="84"/>
          <note pan="0" key="68" len="12" vol="78" pos="96"/>
          <note pan="0" key="1" len="24" vol="78" pos="96"/>
          <note pan="0" key="64" len="12" vol="78" pos="108"/>
          <note pan="0" key="68" len="12" vol="78" pos="120"/>
          <note pan="0" key="73" len="12" vol="78" pos="132"/>
          <note pan="0" key="76" len="12" vol="78" pos="144"/>
          <note pan="0" key="0" len="24" vol="78" pos="144"/>
          <note pan="0" key="71" len="12" vol="78" pos="156"/>
          <note pan="0" key="68" len="12" vol="78" pos="168"/>
          <note pan="0" key="1" len="24" vol="78" pos="168"/>
          <note pan="0" key="64" len="12" vol="78" pos="180"/>
          <note pan="0" key="68" len="12" vol="78" pos="192"/>
          <note pan="0" key="71" len="12" vol="78" pos="204"/>
          <note pan="0" key="81" len="12" vol="78" pos="216"/>
          <note pan="0" key="0" len="24" vol="78" pos="216"/>
          <note pan="0" key="78" len="12" vol="78" pos="228"/>
          <note pan="0" key="74" len="12" vol="78" pos="240"/>
          <note pan="0" key="1" len="24" vol="78" pos="240"/>
          <note pan="0" key="69" len="12" vol="78" pos="252"/>
          <note pan="0" key="66" len="12" vol="78" pos="264"/>
          <note pan="0" key="69" len="12" vol="78" pos="276"/>
          <note pan="0" key="73" len="12" vol="78" pos="288"/>
          <note pan="0" key="0" len="24" vol="78" pos="288"/>
          <note pan="0" key="69" len="12" vol="78" pos="300"/>
          <note pan="0" key="66" len="12" vol="78" pos="312"/>
          <note pan="0" key="1" len="24" vol="78" pos="312"/>
          <note pan="0" key="61" len="12" vol="78" pos="324"/>
          <note pan="0" key="68" len="12" vol="78" pos="336"/>
          <note pan="0" key="0" len="24" vol="78" pos="336"/>
          <note pan="0" key="64" len="12" vol="78" pos="348"/>
          <note pan="0" key="61" len="12" vol="78" pos="360"/>
          <note pan="0" key="1" len="24" vol="78" pos="360"/>
          <note pan="0" key="56" len="12" vol="78" pos="372"/>
          <note pan="0" key="69" len="12" vol="78" pos="384"/>
          <note pan="0" key="0" len="24" vol="78" pos="384"/>
          <note pan="0" key="66" len="12" vol="78" pos="396"/>
          <note pan="0" key="57" len="12" vol="78" pos="408"/>
          <note pan="0" key="1" len="24" vol="78" pos="408"/>
          <note pan="0" key="54" len="12" vol="78" pos="420"/>
          <note pan="0" key="57" len="12" vol="78" pos="432"/>
          <note pan="0" key="62" len="12" vol="78" pos="444"/>
          <note pan="0" key="74" len="12" vol="78" pos="456"/>
          <note pan="0" key="0" len="24" vol="78" pos="456"/>
          <note pan="0" key="69" len="12" vol="78" pos="468"/>
          <note pan="0" key="66" len="12" vol="78" pos="480"/>
          <note pan="0" key="1" len="24" vol="78" pos="480"/>
          <note pan="0" key="61" len="12" vol="78" pos="492"/>
          <note pan="0" key="57" len="12" vol="78" pos="504"/>
          <note pan="0" key="54" len="12" vol="78" pos="516"/>
          <note pan="0" key="78" len="12" vol="78" pos="528"/>
          <note pan="0" key="0" len="24" vol="78" pos="528"/>
          <note pan="0" key="74" len="12" vol="78" pos="540"/>
          <note pan="0" key="69" len="12" vol="78" pos="552"/>
          <note pan="0" key="1" len="24" vol="78" pos="552"/>
          <note pan="0" key="66" len="12" vol="78" pos="564"/>
          <note pan="0" key="69" len="12" vol="78" pos="576"/>
          <note pan="0" key="74" len="12" vol="78" pos="588"/>
          <note pan="0" key="81" len="12" vol="78" pos="600"/>
          <note pan="0" key="0" len="24" vol="78" pos="600"/>
          <note pan="0" key="78" len="12" vol="78" pos="612"/>
          <note pan="0" key="73" len="12" vol="78" pos="624"/>
          <note pan="0" key="1" len="24" vol="78" pos="624"/>
          <note pan="0" key="69" len="12" vol="78" pos="636"/>
          <note pan="0" key="66" len="12" vol="78" pos="648"/>
          <note pan="0" key="61" len="12" vol="78" pos="660"/>
          <note pan="0" key="74" len="12" vol="78" pos="672"/>
          <note pan="0" key="0" len="24" vol="78" pos="672"/>
          <note pan="0" key="71" len="12" vol="78" pos="684"/>
          <note pan="0" key="66" len="12" vol="78" pos="696"/>
          <note pan="0" key="1" len="24" vol="78" pos="696"/>
          <note pan="0" key="61" len="12" vol="78" pos="708"/>
          <note pan="0" key="69" len="12" vol="78" pos="720"/>
          <note pan="0" key="0" len="24" vol="78" pos="720"/>
          <note pan="0" key="66" len="12" vol="78" pos="732"/>
          <note pan="0" key="61" len="12" vol="78" pos="744"/>
          <note pan="0" key="1" len="24" vol="78" pos="744"/>
          <note pan="0" key="57" len="12" vol="78" pos="756"/>
        </pattern>
        <pattern steps="16" muted="0" pos="28800" name="" type="1">
          <note pan="0" key="56" len="24" vol="200" pos="0"/>
          <note pan="0" key="1" len="24" vol="200" pos="0"/>
          <note pan="0" key="61" len="24" vol="200" pos="24"/>
          <note pan="0" key="0" len="24" vol="200" pos="36"/>
          <note pan="0" key="63" len="24" vol="200" pos="48"/>
          <note pan="0" key="1" len="24" vol="200" pos="60"/>
          <note pan="0" key="56" len="24" vol="200" pos="72"/>
          <note pan="0" key="0" len="24" vol="200" pos="84"/>
          <note pan="0" key="64" len="24" vol="200" pos="96"/>
          <note pan="0" key="1" len="24" vol="200" pos="108"/>
          <note pan="0" key="63" len="24" vol="200" pos="120"/>
          <note pan="0" key="59" len="24" vol="200" pos="144"/>
          <note pan="0" key="61" len="24" vol="200" pos="168"/>
          <note pan="0" key="0" len="48" vol="200" pos="180"/>
          <note pan="0" key="63" len="48" vol="200" pos="192"/>
          <note pan="0" key="64" len="12" vol="200" pos="240"/>
          <note pan="0" key="63" len="12" vol="200" pos="252"/>
          <note pan="0" key="61" len="48" vol="200" pos="264"/>
          <note pan="0" key="1" len="12" vol="200" pos="300"/>
          <note pan="0" key="56" len="12" vol="200" pos="312"/>
          <note pan="0" key="59" len="12" vol="200" pos="324"/>
          <note pan="0" key="61" len="12" vol="200" pos="336"/>
          <note pan="0" key="59" len="12" vol="200" pos="348"/>
          <note pan="0" key="54" len="12" vol="200" pos="360"/>
          <note pan="0" key="56" len="12" vol="200" pos="372"/>
          <note pan="0" key="54" len="12" vol="131" pos="384"/>
          <note pan="0" key="2" len="12" vol="131" pos="384"/>
          <note pan="0" key="56" len="12" vol="131" pos="396"/>
          <note pan="0" key="54" len="12" vol="131" pos="408"/>
          <note pan="0" key="52" len="12" vol="131" pos="420"/>
          <note pan="0" key="54" len="12" vol="131" pos="432"/>
          <note pan="0" key="52" len="12" vol="131" pos="444"/>
          <note pan="0" key="49" len="12" vol="131" pos="456"/>
          <note pan="0" key="47" len="12" vol="131" pos="468"/>
          <note pan="0" key="49" len="12" vol="131" pos="480"/>
          <note pan="0" key="52" len="12" vol="131" pos="492"/>
          <note pan="0" key="54" len="12" vol="131" pos="504"/>
          <note pan="0" key="52" len="12" vol="131" pos="516"/>
          <note pan="0" key="54" len="12" vol="131" pos="528"/>
          <note pan="0" key="56" len="12" vol="131" pos="540"/>
          <note pan="0" key="59" len="12" vol="131" pos="552"/>
          <note pan="0" key="61" len="12" vol="131" pos="564"/>
          <note pan="0" key="63" len="12" vol="131" pos="576"/>
          <note pan="0" key="61" len="12" vol="131" pos="588"/>
          <note pan="0" key="63" len="12" vol="131" pos="600"/>
          <note pan="0" key="64" len="12" vol="131" pos="612"/>
          <note pan="0" key="1" len="12" vol="131" pos="612"/>
          <note pan="0" key="66" len="12" vol="131" pos="624"/>
          <note pan="0" key="64" len="12" vol="131" pos="636"/>
          <note pan="0" key="66" len="12" vol="131" pos="648"/>
          <note pan="0" key="68" len="12" vol="131" pos="660"/>
          <note pan="0" key="69" len="12" vol="131" pos="672"/>
          <note pan="0" key="68" len="12" vol="131" pos="684"/>
          <note pan="0" key="69" len="12" vol="131" pos="696"/>
          <note pan="0" key="71" len="12" vol="131" pos="708"/>
          <note pan="0" key="0" len="48" vol="131" pos="708"/>
          <note pan="0" key="73" len="48" vol="131" pos="720"/>
        </pattern>
        <pattern steps="16" muted="0" pos="29568" name="" type="1">
          <note pan="0" key="80" len="12" vol="200" pos="0"/>
          <note pan="0" key="78" len="12" vol="200" pos="12"/>
          <note pan="0" key="76" len="12" vol="200" pos="24"/>
          <note pan="0" key="73" len="12" vol="200" pos="36"/>
          <note pan="0" key="71" len="12" vol="200" pos="48"/>
          <note pan="0" key="73" len="12" vol="200" pos="60"/>
          <note pan="0" key="78" len="12" vol="200" pos="72"/>
          <note pan="0" key="76" len="12" vol="200" pos="84"/>
          <note pan="0" key="73" len="12" vol="200" pos="96"/>
          <note pan="0" key="76" len="12" vol="200" pos="108"/>
          <note pan="0" key="80" len="12" vol="200" pos="120"/>
          <note pan="0" key="78" len="12" vol="200" pos="132"/>
          <note pan="0" key="76" len="12" vol="200" pos="144"/>
          <note pan="0" key="73" len="12" vol="200" pos="156"/>
          <note pan="0" key="76" len="12" vol="200" pos="168"/>
          <note pan="0" key="78" len="12" vol="200" pos="180"/>
        </pattern>
        <pattern steps="16" muted="0" pos="29760" name="" type="1">
          <note pan="0" key="80" len="12" vol="200" pos="0"/>
          <note pan="0" key="78" len="12" vol="200" pos="12"/>
          <note pan="0" key="76" len="12" vol="200" pos="24"/>
          <note pan="0" key="73" len="12" vol="200" pos="36"/>
          <note pan="0" key="71" len="12" vol="200" pos="48"/>
          <note pan="0" key="73" len="12" vol="200" pos="60"/>
          <note pan="0" key="78" len="12" vol="200" pos="72"/>
          <note pan="0" key="76" len="12" vol="200" pos="84"/>
          <note pan="0" key="73" len="12" vol="200" pos="96"/>
          <note pan="0" key="76" len="12" vol="200" pos="108"/>
          <note pan="0" key="83" len="12" vol="200" pos="120"/>
          <note pan="0" key="80" len="12" vol="200" pos="132"/>
          <note pan="0" key="78" len="12" vol="200" pos="144"/>
          <note pan="0" key="80" len="12" vol="200" pos="156"/>
          <note pan="0" key="78" len="12" vol="200" pos="168"/>
          <note pan="0" key="76" len="12" vol="200" pos="180"/>
        </pattern>
        <pattern steps="16" muted="0" pos="29952" name="" type="1">
          <note pan="0" key="85" len="12" vol="197" pos="0"/>
          <note pan="0" key="0" len="48" vol="197" pos="0"/>
          <note pan="0" key="83" len="12" vol="197" pos="12"/>
          <note pan="0" key="80" len="12" vol="197" pos="24"/>
          <note pan="0" key="78" len="12" vol="197" pos="36"/>
          <note pan="0" key="83" len="12" vol="197" pos="48"/>
          <note pan="0" key="80" len="12" vol="197" pos="60"/>
          <note pan="0" key="78" len="12" vol="197" pos="72"/>
          <note pan="0" key="76" len="12" vol="197" pos="84"/>
          <note pan="0" key="80" len="12" vol="197" pos="96"/>
          <note pan="0" key="78" len="12" vol="197" pos="108"/>
          <note pan="0" key="76" len="12" vol="197" pos="120"/>
          <note pan="0" key="73" len="12" vol="197" pos="132"/>
          <note pan="0" key="76" len="12" vol="197" pos="144"/>
          <note pan="0" key="78" len="12" vol="197" pos="156"/>
          <note pan="0" key="80" len="12" vol="197" pos="168"/>
          <note pan="0" key="83" len="12" vol="197" pos="180"/>
          <note pan="0" key="80" len="12" vol="197" pos="192"/>
          <note pan="0" key="78" len="12" vol="197" pos="204"/>
          <note pan="0" key="76" len="12" vol="197" pos="216"/>
          <note pan="0" key="73" len="12" vol="197" pos="228"/>
          <note pan="0" key="76" len="12" vol="197" pos="240"/>
          <note pan="0" key="1" len="48" vol="197" pos="240"/>
          <note pan="0" key="73" len="12" vol="197" pos="252"/>
          <note pan="0" key="71" len="12" vol="197" pos="264"/>
          <note pan="0" key="73" len="12" vol="197" pos="276"/>
          <note pan="0" key="71" len="12" vol="197" pos="288"/>
          <note pan="0" key="68" len="12" vol="197" pos="300"/>
          <note pan="0" key="66" len="12" vol="197" pos="312"/>
          <note pan="0" key="68" len="12" vol="197" pos="324"/>
          <note pan="0" key="61" len="48" vol="197" pos="336"/>
          <note pan="0" key="0" len="48" vol="197" pos="336"/>
        </pattern>
        <pattern steps="16" muted="0" pos="31488" name="" type="0"/>
        <pattern steps="16" muted="0" pos="36480" name="" type="1">
          <note pan="0" key="61" len="12" vol="200" pos="0"/>
          <note pan="0" key="1" len="12" vol="200" pos="0"/>
          <note pan="0" key="68" len="12" vol="200" pos="12"/>
          <note pan="0" key="66" len="12" vol="200" pos="24"/>
          <note pan="0" key="68" len="12" vol="200" pos="36"/>
          <note pan="0" key="61" len="12" vol="200" pos="48"/>
          <note pan="0" key="68" len="12" vol="200" pos="60"/>
          <note pan="0" key="66" len="12" vol="200" pos="72"/>
          <note pan="0" key="68" len="12" vol="200" pos="84"/>
          <note pan="0" key="71" len="12" vol="200" pos="96"/>
          <note pan="0" key="0" len="12" vol="200" pos="96"/>
          <note pan="0" key="68" len="12" vol="200" pos="108"/>
          <note pan="0" key="2" len="12" vol="200" pos="108"/>
          <note pan="0" key="66" len="12" vol="200" pos="120"/>
          <note pan="0" key="1" len="12" vol="200" pos="120"/>
          <note pan="0" key="64" len="12" vol="200" pos="132"/>
          <note pan="0" key="66" len="12" vol="200" pos="144"/>
          <note pan="0" key="64" len="12" vol="200" pos="156"/>
          <note pan="0" key="66" len="12" vol="200" pos="168"/>
          <note pan="0" key="68" len="12" vol="200" pos="180"/>
          <note pan="0" key="71" len="12" vol="200" pos="192"/>
          <note pan="0" key="68" len="12" vol="200" pos="204"/>
          <note pan="0" key="66" len="12" vol="200" pos="216"/>
          <note pan="0" key="64" len="12" vol="200" pos="228"/>
          <note pan="0" key="66" len="12" vol="200" pos="240"/>
          <note pan="0" key="68" len="12" vol="200" pos="252"/>
          <note pan="0" key="71" len="6" vol="200" pos="264"/>
          <note pan="0" key="0" len="12" vol="200" pos="264"/>
          <note pan="0" key="73" len="42" vol="200" pos="270"/>
          <note pan="0" key="2" len="12" vol="200" pos="276"/>
          <note pan="0" key="73" len="12" vol="200" pos="312"/>
          <note pan="0" key="1" len="12" vol="200" pos="312"/>
          <note pan="0" key="75" len="12" vol="200" pos="324"/>
          <note pan="0" key="76" len="12" vol="200" pos="336"/>
          <note pan="0" key="0" len="12" vol="200" pos="336"/>
          <note pan="0" key="75" len="12" vol="200" pos="348"/>
          <note pan="0" key="73" len="12" vol="200" pos="360"/>
          <note pan="0" key="1" len="12" vol="200" pos="360"/>
          <note pan="0" key="71" len="12" vol="200" pos="372"/>
          <note pan="0" key="76" len="12" vol="197" pos="384"/>
          <note pan="0" key="0" len="12" vol="197" pos="384"/>
          <note pan="0" key="64" len="12" vol="197" pos="396"/>
          <note pan="0" key="2" len="12" vol="197" pos="396"/>
          <note pan="0" key="64" len="12" vol="197" pos="408"/>
          <note pan="0" key="0" len="12" vol="197" pos="408"/>
          <note pan="0" key="75" len="12" vol="197" pos="420"/>
          <note pan="0" key="0" len="12" vol="197" pos="420"/>
          <note pan="0" key="64" len="12" vol="197" pos="432"/>
          <note pan="0" key="2" len="12" vol="197" pos="432"/>
          <note pan="0" key="64" len="12" vol="197" pos="444"/>
          <note pan="0" key="0" len="12" vol="197" pos="444"/>
          <note pan="0" key="76" len="12" vol="197" pos="456"/>
          <note pan="0" key="0" len="12" vol="197" pos="456"/>
          <note pan="0" key="64" len="12" vol="197" pos="468"/>
          <note pan="0" key="2" len="12" vol="197" pos="468"/>
          <note pan="0" key="64" len="12" vol="197" pos="480"/>
          <note pan="0" key="0" len="12" vol="197" pos="480"/>
          <note pan="0" key="75" len="12" vol="197" pos="492"/>
          <note pan="0" key="0" len="12" vol="197" pos="492"/>
          <note pan="0" key="64" len="12" vol="197" pos="504"/>
          <note pan="0" key="2" len="12" vol="197" pos="504"/>
          <note pan="0" key="64" len="12" vol="197" pos="516"/>
          <note pan="0" key="0" len="12" vol="197" pos="516"/>
          <note pan="0" key="76" len="12" vol="197" pos="528"/>
          <note pan="0" key="0" len="12" vol="197" pos="528"/>
          <note pan="0" key="64" len="12" vol="197" pos="540"/>
          <note pan="0" key="2" len="12" vol="197" pos="540"/>
          <note pan="0" key="75" len="12" vol="197" pos="552"/>
          <note pan="0" key="0" len="12" vol="197" pos="552"/>
          <note pan="0" key="64" len="12" vol="197" pos="564"/>
          <note pan="0" key="2" len="12" vol="197" pos="564"/>
        </pattern>
        <pattern steps="16" muted="0" pos="28032" name="" type="1">
          <note pan="0" key="61" len="48" vol="200" pos="0"/>
          <note pan="0" key="0" len="36" vol="200" pos="0"/>
          <note pan="0" key="1" len="36" vol="200" pos="36"/>
          <note pan="0" key="57" len="48" vol="200" pos="48"/>
          <note pan="0" key="59" len="48" vol="200" pos="96"/>
          <note pan="0" key="61" len="48" vol="200" pos="144"/>
          <note pan="0" key="0" len="36" vol="200" pos="180"/>
          <note pan="0" key="63" len="48" vol="200" pos="192"/>
          <note pan="0" key="64" len="48" vol="200" pos="240"/>
          <note pan="0" key="63" len="48" vol="200" pos="288"/>
          <note pan="0" key="59" len="48" vol="200" pos="336"/>
          <note pan="0" key="61" len="48" vol="200" pos="384"/>
          <note pan="0" key="59" len="48" vol="200" pos="432"/>
          <note pan="0" key="61" len="48" vol="200" pos="480"/>
          <note pan="0" key="63" len="48" vol="200" pos="528"/>
          <note pan="0" key="68" len="192" vol="200" pos="576"/>
        </pattern>
        <pattern steps="16" muted="0" pos="38016" name="" type="1">
          <note pan="0" key="69" len="12" vol="100" pos="0"/>
          <note pan="0" key="1" len="12" vol="100" pos="0"/>
          <note pan="0" key="74" len="12" vol="100" pos="12"/>
          <note pan="0" key="78" len="12" vol="100" pos="24"/>
          <note pan="0" key="81" len="12" vol="100" pos="36"/>
          <note pan="0" key="0" len="12" vol="100" pos="36"/>
          <note pan="0" key="86" len="12" vol="100" pos="48"/>
          <note pan="0" key="81" len="12" vol="100" pos="60"/>
          <note pan="0" key="78" len="12" vol="100" pos="72"/>
          <note pan="0" key="1" len="12" vol="100" pos="72"/>
          <note pan="0" key="74" len="12" vol="100" pos="84"/>
          <note pan="0" key="81" len="12" vol="100" pos="96"/>
          <note pan="0" key="0" len="12" vol="100" pos="96"/>
          <note pan="0" key="80" len="12" vol="100" pos="108"/>
          <note pan="0" key="78" len="12" vol="100" pos="120"/>
          <note pan="0" key="1" len="12" vol="100" pos="120"/>
          <note pan="0" key="74" len="12" vol="100" pos="132"/>
          <note pan="0" key="83" len="12" vol="100" pos="144"/>
          <note pan="0" key="0" len="12" vol="100" pos="144"/>
          <note pan="0" key="81" len="12" vol="100" pos="156"/>
          <note pan="0" key="80" len="12" vol="100" pos="168"/>
          <note pan="0" key="1" len="12" vol="100" pos="168"/>
          <note pan="0" key="78" len="12" vol="100" pos="180"/>
          <note pan="0" key="83" len="12" vol="121" pos="192"/>
          <note pan="0" key="85" len="12" vol="121" pos="204"/>
          <note pan="0" key="83" len="12" vol="121" pos="216"/>
          <note pan="0" key="81" len="12" vol="121" pos="228"/>
          <note pan="0" key="80" len="12" vol="121" pos="240"/>
          <note pan="0" key="81" len="12" vol="121" pos="252"/>
          <note pan="0" key="80" len="12" vol="121" pos="264"/>
          <note pan="0" key="78" len="12" vol="121" pos="276"/>
          <note pan="0" key="83" len="12" vol="121" pos="288"/>
          <note pan="0" key="0" len="24" vol="121" pos="288"/>
          <note pan="0" key="85" len="12" vol="121" pos="300"/>
          <note pan="0" key="88" len="48" vol="121" pos="312"/>
          <note pan="0" key="85" len="24" vol="121" pos="360"/>
          <note pan="0" key="81" len="24" vol="100" pos="384"/>
          <note pan="0" key="80" len="24" vol="100" pos="408"/>
          <note pan="0" key="76" len="24" vol="100" pos="432"/>
          <note pan="0" key="81" len="24" vol="100" pos="456"/>
          <note pan="0" key="80" len="24" vol="100" pos="480"/>
          <note pan="0" key="78" len="24" vol="100" pos="504"/>
          <note pan="0" key="76" len="24" vol="100" pos="528"/>
          <note pan="0" key="80" len="24" vol="100" pos="552"/>
          <note pan="0" key="78" len="12" vol="100" pos="576"/>
          <note pan="0" key="0" len="12" vol="100" pos="576"/>
          <note pan="0" key="80" len="12" vol="100" pos="588"/>
          <note pan="0" key="2" len="12" vol="100" pos="588"/>
          <note pan="0" key="78" len="48" vol="100" pos="600"/>
          <note pan="0" key="1" len="12" vol="100" pos="636"/>
          <note pan="0" key="75" len="12" vol="100" pos="648"/>
          <note pan="0" key="76" len="12" vol="100" pos="660"/>
          <note pan="0" key="78" len="12" vol="100" pos="672"/>
          <note pan="0" key="0" len="12" vol="100" pos="672"/>
          <note pan="0" key="76" len="12" vol="100" pos="684"/>
          <note pan="0" key="75" len="12" vol="100" pos="696"/>
          <note pan="0" key="76" len="12" vol="100" pos="708"/>
          <note pan="0" key="1" len="12" vol="100" pos="708"/>
          <note pan="0" key="75" len="12" vol="100" pos="720"/>
          <note pan="0" key="73" len="12" vol="100" pos="732"/>
          <note pan="0" key="71" len="12" vol="100" pos="744"/>
          <note pan="0" key="69" len="12" vol="100" pos="756"/>
        </pattern>
        <pattern steps="16" muted="0" pos="39552" name="" type="1">
          <note pan="0" key="73" len="12" vol="78" pos="0"/>
          <note pan="0" key="0" len="48" vol="78" pos="0"/>
          <note pan="0" key="68" len="12" vol="78" pos="12"/>
          <note pan="0" key="64" len="12" vol="78" pos="24"/>
          <note pan="0" key="61" len="12" vol="78" pos="36"/>
          <note pan="0" key="56" len="12" vol="78" pos="48"/>
          <note pan="0" key="1" len="12" vol="78" pos="48"/>
          <note pan="0" key="52" len="12" vol="78" pos="60"/>
          <note pan="0" key="56" len="12" vol="78" pos="72"/>
          <note pan="0" key="61" len="12" vol="78" pos="84"/>
          <note pan="0" key="64" len="12" vol="78" pos="96"/>
          <note pan="0" key="68" len="12" vol="78" pos="108"/>
          <note pan="0" key="76" len="12" vol="78" pos="120"/>
          <note pan="0" key="0" len="12" vol="78" pos="120"/>
          <note pan="0" key="73" len="12" vol="78" pos="132"/>
          <note pan="0" key="68" len="12" vol="78" pos="144"/>
          <note pan="0" key="64" len="12" vol="78" pos="156"/>
          <note pan="0" key="1" len="12" vol="78" pos="156"/>
          <note pan="0" key="68" len="12" vol="78" pos="168"/>
          <note pan="0" key="73" len="12" vol="78" pos="180"/>
          <note pan="0" key="75" len="12" vol="78" pos="192"/>
          <note pan="0" key="0" len="12" vol="78" pos="192"/>
          <note pan="0" key="71" len="12" vol="78" pos="204"/>
          <note pan="0" key="68" len="12" vol="78" pos="216"/>
          <note pan="0" key="63" len="12" vol="78" pos="228"/>
          <note pan="0" key="1" len="12" vol="78" pos="228"/>
          <note pan="0" key="59" len="12" vol="78" pos="240"/>
          <note pan="0" key="56" len="12" vol="78" pos="252"/>
          <note pan="0" key="59" len="12" vol="78" pos="264"/>
          <note pan="0" key="63" len="12" vol="78" pos="276"/>
          <note pan="0" key="68" len="12" vol="78" pos="288"/>
          <note pan="0" key="71" len="12" vol="78" pos="300"/>
          <note pan="0" key="80" len="12" vol="78" pos="312"/>
          <note pan="0" key="0" len="12" vol="78" pos="312"/>
          <note pan="0" key="75" len="12" vol="78" pos="324"/>
          <note pan="0" key="71" len="12" vol="78" pos="336"/>
          <note pan="0" key="68" len="12" vol="78" pos="348"/>
          <note pan="0" key="1" len="12" vol="78" pos="348"/>
          <note pan="0" key="71" len="12" vol="78" pos="360"/>
          <note pan="0" key="75" len="12" vol="78" pos="372"/>
          <note pan="0" key="80" len="24" vol="78" pos="384"/>
          <note pan="0" key="0" len="12" vol="78" pos="384"/>
          <note pan="0" key="76" len="24" vol="78" pos="408"/>
          <note pan="0" key="69" len="24" vol="78" pos="432"/>
          <note pan="0" key="76" len="24" vol="78" pos="456"/>
          <note pan="0" key="75" len="24" vol="78" pos="480"/>
          <note pan="0" key="69" len="24" vol="78" pos="504"/>
          <note pan="0" key="78" len="24" vol="78" pos="528"/>
          <note pan="0" key="76" len="24" vol="78" pos="552"/>
          <note pan="0" key="75" len="48" vol="78" pos="576"/>
          <note pan="0" key="76" len="48" vol="78" pos="624"/>
          <note pan="0" key="76" len="12" vol="78" pos="672"/>
          <note pan="0" key="78" len="12" vol="78" pos="684"/>
          <note pan="0" key="76" len="12" vol="78" pos="696"/>
          <note pan="0" key="75" len="12" vol="78" pos="708"/>
          <note pan="0" key="76" len="12" vol="78" pos="720"/>
          <note pan="0" key="75" len="12" vol="78" pos="732"/>
          <note pan="0" key="73" len="12" vol="78" pos="744"/>
          <note pan="0" key="71" len="12" vol="78" pos="756"/>
          <note pan="0" key="1" len="12" vol="78" pos="768"/>
          <note pan="0" key="0" len="12" vol="78" pos="960"/>
        </pattern>
        <pattern steps="16" muted="0" pos="46656" name="" type="0"/>
        <pattern steps="16" muted="0" pos="47232" name="" type="1">
          <note pan="0" key="70" len="120" vol="78" pos="0"/>
          <note pan="0" key="0" len="24" vol="78" pos="0"/>
          <note pan="0" key="1" len="24" vol="78" pos="96"/>
          <note pan="0" key="66" len="24" vol="78" pos="120"/>
          <note pan="0" key="0" len="24" vol="78" pos="132"/>
          <note pan="0" key="75" len="24" vol="78" pos="144"/>
          <note pan="0" key="66" len="24" vol="78" pos="168"/>
          <note pan="0" key="1" len="24" vol="78" pos="168"/>
          <note pan="0" key="73" len="120" vol="78" pos="192"/>
          <note pan="0" key="0" len="24" vol="78" pos="192"/>
          <note pan="0" key="1" len="12" vol="78" pos="300"/>
          <note pan="0" key="73" len="12" vol="78" pos="312"/>
          <note pan="0" key="75" len="12" vol="78" pos="324"/>
          <note pan="0" key="78" len="12" vol="78" pos="336"/>
          <note pan="0" key="0" len="12" vol="78" pos="336"/>
          <note pan="0" key="75" len="12" vol="78" pos="348"/>
          <note pan="0" key="73" len="12" vol="78" pos="360"/>
          <note pan="0" key="1" len="12" vol="78" pos="360"/>
          <note pan="0" key="75" len="12" vol="78" pos="372"/>
          <note pan="0" key="78" len="144" vol="78" pos="384"/>
          <note pan="0" key="0" len="12" vol="78" pos="384"/>
          <note pan="0" key="77" len="24" vol="78" pos="528"/>
          <note pan="0" key="75" len="24" vol="78" pos="552"/>
          <note pan="0" key="73" len="48" vol="78" pos="576"/>
          <note pan="0" key="75" len="48" vol="78" pos="624"/>
          <note pan="0" key="0" len="12" vol="78" pos="660"/>
          <note pan="0" key="70" len="12" vol="78" pos="672"/>
          <note pan="0" key="1" len="12" vol="78" pos="672"/>
          <note pan="0" key="70" len="12" vol="78" pos="684"/>
          <note pan="0" key="70" len="12" vol="78" pos="696"/>
          <note pan="0" key="70" len="12" vol="78" pos="708"/>
          <note pan="0" key="66" len="12" vol="78" pos="720"/>
          <note pan="0" key="0" len="12" vol="78" pos="720"/>
          <note pan="0" key="63" len="12" vol="78" pos="732"/>
          <note pan="0" key="1" len="12" vol="78" pos="732"/>
          <note pan="0" key="65" len="12" vol="78" pos="744"/>
          <note pan="0" key="66" len="12" vol="78" pos="756"/>
          <note pan="0" key="68" len="96" vol="78" pos="768"/>
          <note pan="0" key="0" len="12" vol="78" pos="768"/>
          <note pan="0" key="71" len="48" vol="78" pos="864"/>
          <note pan="0" key="75" len="48" vol="78" pos="912"/>
          <note pan="0" key="75" len="96" vol="78" pos="960"/>
          <note pan="0" key="73" len="12" vol="78" pos="1056"/>
          <note pan="0" key="0" len="12" vol="78" pos="1056"/>
          <note pan="0" key="66" len="12" vol="78" pos="1068"/>
          <note pan="0" key="2" len="12" vol="78" pos="1068"/>
          <note pan="0" key="66" len="12" vol="78" pos="1080"/>
          <note pan="0" key="1" len="12" vol="78" pos="1080"/>
          <note pan="0" key="66" len="12" vol="78" pos="1092"/>
          <note pan="0" key="75" len="12" vol="78" pos="1104"/>
          <note pan="0" key="0" len="12" vol="78" pos="1104"/>
          <note pan="0" key="71" len="12" vol="78" pos="1116"/>
          <note pan="0" key="2" len="12" vol="78" pos="1116"/>
          <note pan="0" key="73" len="12" vol="78" pos="1128"/>
          <note pan="0" key="1" len="12" vol="78" pos="1128"/>
          <note pan="0" key="75" len="12" vol="78" pos="1140"/>
          <note pan="0" key="82" len="48" vol="78" pos="1152"/>
          <note pan="0" key="0" len="12" vol="78" pos="1152"/>
          <note pan="0" key="80" len="12" vol="78" pos="1200"/>
          <note pan="0" key="82" len="12" vol="78" pos="1212"/>
          <note pan="0" key="80" len="48" vol="78" pos="1224"/>
          <note pan="0" key="78" len="12" vol="78" pos="1272"/>
          <note pan="0" key="0" len="12" vol="78" pos="1272"/>
          <note pan="0" key="80" len="12" vol="78" pos="1284"/>
          <note pan="0" key="78" len="12" vol="78" pos="1296"/>
          <note pan="0" key="1" len="12" vol="78" pos="1296"/>
          <note pan="0" key="77" len="12" vol="78" pos="1308"/>
          <note pan="0" key="75" len="12" vol="78" pos="1320"/>
          <note pan="0" key="78" len="12" vol="78" pos="1332"/>
          <note pan="0" key="77" len="72" vol="78" pos="1344"/>
          <note pan="0" key="0" len="12" vol="78" pos="1344"/>
          <note pan="0" key="75" len="12" vol="78" pos="1416"/>
          <note pan="0" key="1" len="12" vol="78" pos="1416"/>
          <note pan="0" key="77" len="12" vol="78" pos="1428"/>
          <note pan="0" key="78" len="12" vol="78" pos="1440"/>
          <note pan="0" key="0" len="12" vol="78" pos="1440"/>
          <note pan="0" key="80" len="12" vol="78" pos="1452"/>
          <note pan="0" key="78" len="12" vol="78" pos="1464"/>
          <note pan="0" key="1" len="12" vol="78" pos="1464"/>
          <note pan="0" key="77" len="12" vol="78" pos="1476"/>
          <note pan="0" key="78" len="12" vol="78" pos="1488"/>
          <note pan="0" key="0" len="12" vol="78" pos="1488"/>
          <note pan="0" key="77" len="12" vol="78" pos="1500"/>
          <note pan="0" key="75" len="12" vol="78" pos="1512"/>
          <note pan="0" key="73" len="12" vol="78" pos="1524"/>
          <note pan="0" key="75" len="48" vol="78" pos="1536"/>
          <note pan="0" key="0" len="12" vol="78" pos="1536"/>
          <note pan="0" key="1" len="12" vol="78" pos="1572"/>
          <note pan="0" key="66" len="12" vol="78" pos="1584"/>
          <note pan="0" key="66" len="12" vol="78" pos="1596"/>
          <note pan="0" key="73" len="48" vol="78" pos="1608"/>
          <note pan="0" key="0" len="12" vol="78" pos="1608"/>
          <note pan="0" key="1" len="12" vol="78" pos="1644"/>
          <note pan="0" key="66" len="12" vol="78" pos="1656"/>
          <note pan="0" key="66" len="12" vol="78" pos="1668"/>
          <note pan="0" key="75" len="24" vol="78" pos="1680"/>
          <note pan="0" key="0" len="12" vol="78" pos="1680"/>
          <note pan="0" key="1" len="12" vol="78" pos="1692"/>
          <note pan="0" key="66" len="12" vol="78" pos="1704"/>
          <note pan="0" key="66" len="12" vol="78" pos="1716"/>
          <note pan="0" key="78" len="144" vol="78" pos="1728"/>
          <note pan="0" key="0" len="12" vol="78" pos="1728"/>
          <note pan="0" key="73" len="48" vol="78" pos="1872"/>
          <note pan="0" key="0" len="12" vol="78" pos="1908"/>
          <note pan="0" key="72" len="12" vol="78" pos="1920"/>
          <note pan="0" key="73" len="12" vol="78" pos="1932"/>
          <note pan="0" key="2" len="12" vol="78" pos="1932"/>
          <note pan="0" key="72" len="216" vol="78" pos="1944"/>
          <note pan="0" key="0" len="12" vol="78" pos="2100"/>
          <note pan="0" key="75" len="48" vol="78" pos="2160"/>
          <note pan="0" key="77" len="24" vol="78" pos="2208"/>
          <note pan="0" key="75" len="12" vol="78" pos="2232"/>
          <note pan="0" key="77" len="12" vol="78" pos="2244"/>
          <note pan="0" key="78" len="24" vol="78" pos="2256"/>
          <note pan="0" key="77" len="12" vol="78" pos="2280"/>
          <note pan="0" key="78" len="12" vol="78" pos="2292"/>
          <note pan="0" key="80" len="72" vol="78" pos="2304"/>
          <note pan="0" key="78" len="72" vol="78" pos="2376"/>
          <note pan="0" key="77" len="48" vol="78" pos="2448"/>
          <note pan="0" key="1" len="12" vol="78" pos="2484"/>
          <note pan="0" key="75" len="12" vol="193" pos="2496"/>
          <note pan="0" key="73" len="12" vol="193" pos="2508"/>
          <note pan="0" key="71" len="12" vol="193" pos="2520"/>
          <note pan="0" key="66" len="12" vol="193" pos="2532"/>
          <note pan="0" key="71" len="12" vol="193" pos="2544"/>
          <note pan="0" key="70" len="12" vol="193" pos="2556"/>
          <note pan="0" key="68" len="12" vol="193" pos="2568"/>
          <note pan="0" key="66" len="12" vol="193" pos="2580"/>
          <note pan="0" key="75" len="12" vol="193" pos="2592"/>
          <note pan="0" key="0" len="12" vol="78" pos="2592"/>
          <note pan="0" key="73" len="12" vol="193" pos="2604"/>
          <note pan="0" key="71" len="12" vol="193" pos="2616"/>
          <note pan="0" key="66" len="12" vol="193" pos="2628"/>
          <note pan="0" key="83" len="48" vol="193" pos="2640"/>
          <note pan="0" key="80" len="192" vol="193" pos="2688"/>
        </pattern>
        <pattern steps="16" muted="0" pos="56448" name="" type="1">
          <note pan="0" key="75" len="336" vol="78" pos="0"/>
          <note pan="0" key="0" len="336" vol="78" pos="0"/>
          <note pan="0" key="78" len="48" vol="78" pos="336"/>
          <note pan="0" key="77" len="288" vol="78" pos="384"/>
          <note pan="0" key="70" len="48" vol="78" pos="672"/>
          <note pan="0" key="73" len="48" vol="78" pos="720"/>
          <note pan="0" key="75" len="240" vol="78" pos="768"/>
          <note pan="0" key="73" len="48" vol="78" pos="1008"/>
          <note pan="0" key="75" len="48" vol="78" pos="1056"/>
          <note pan="0" key="82" len="48" vol="78" pos="1104"/>
          <note pan="0" key="80" len="192" vol="78" pos="1152"/>
          <note pan="0" key="83" len="48" vol="78" pos="1344"/>
          <note pan="0" key="82" len="48" vol="78" pos="1392"/>
          <note pan="0" key="80" len="48" vol="78" pos="1440"/>
          <note pan="0" key="76" len="48" vol="78" pos="1488"/>
          <note pan="0" key="75" len="144" vol="78" pos="1536"/>
          <note pan="0" key="75" len="24" vol="78" pos="1680"/>
          <note pan="0" key="77" len="24" vol="78" pos="1704"/>
          <note pan="0" key="78" len="96" vol="78" pos="1728"/>
          <note pan="0" key="0" len="24" vol="78" pos="1812"/>
          <note pan="0" key="80" len="12" vol="78" pos="1824"/>
          <note pan="0" key="82" len="84" vol="78" pos="1836"/>
          <note pan="0" key="2" len="24" vol="78" pos="1836"/>
          <note pan="0" key="0" len="24" vol="78" pos="1896"/>
          <note pan="0" key="80" len="156" vol="78" pos="1920"/>
          <note pan="0" key="80" len="12" vol="78" pos="2076"/>
          <note pan="0" key="78" len="12" vol="78" pos="2088"/>
          <note pan="0" key="77" len="12" vol="78" pos="2100"/>
          <note pan="0" key="73" len="96" vol="78" pos="2112"/>
          <note pan="0" key="70" len="48" vol="78" pos="2208"/>
          <note pan="0" key="73" len="48" vol="78" pos="2256"/>
          <note pan="0" key="75" len="120" vol="78" pos="2304"/>
          <note pan="0" key="73" len="24" vol="78" pos="2424"/>
          <note pan="0" key="72" len="24" vol="78" pos="2448"/>
          <note pan="0" key="68" len="24" vol="78" pos="2472"/>
          <note pan="0" key="70" len="96" vol="78" pos="2496"/>
          <note pan="0" key="63" len="96" vol="78" pos="2592"/>
          <note pan="0" key="70" len="12" vol="78" pos="2688"/>
          <note pan="0" key="0" len="12" vol="78" pos="2688"/>
          <note pan="0" key="71" len="84" vol="78" pos="2700"/>
          <note pan="0" key="2" len="12" vol="78" pos="2700"/>
          <note pan="0" key="0" len="12" vol="78" pos="2712"/>
          <note pan="0" key="70" len="96" vol="78" pos="2784"/>
          <note pan="0" key="68" len="96" vol="78" pos="2880"/>
          <note pan="0" key="73" len="96" vol="78" pos="2976"/>
          <note pan="0" key="75" len="48" vol="78" pos="3072"/>
          <note pan="0" key="70" len="48" vol="78" pos="3120"/>
          <note pan="0" key="75" len="48" vol="78" pos="3168"/>
          <note pan="0" key="77" len="48" vol="78" pos="3216"/>
          <note pan="0" key="78" len="48" vol="78" pos="3264"/>
          <note pan="0" key="80" len="48" vol="78" pos="3312"/>
          <note pan="0" key="82" len="48" vol="78" pos="3360"/>
          <note pan="0" key="87" len="48" vol="78" pos="3408"/>
          <note pan="0" key="85" len="144" vol="78" pos="3456"/>
          <note pan="0" key="80" len="12" vol="78" pos="3600"/>
          <note pan="0" key="0" len="12" vol="78" pos="3600"/>
          <note pan="0" key="82" len="36" vol="78" pos="3612"/>
          <note pan="0" key="2" len="12" vol="78" pos="3612"/>
          <note pan="0" key="0" len="12" vol="78" pos="3624"/>
          <note pan="0" key="80" len="96" vol="78" pos="3648"/>
          <note pan="0" key="77" len="48" vol="78" pos="3744"/>
          <note pan="0" key="80" len="48" vol="78" pos="3792"/>
          <note pan="0" key="79" len="24" vol="78" pos="3840"/>
          <note pan="0" key="80" len="24" vol="78" pos="3864"/>
          <note pan="0" key="79" len="24" vol="78" pos="3888"/>
          <note pan="0" key="75" len="24" vol="78" pos="3912"/>
          <note pan="0" key="72" len="24" vol="78" pos="3936"/>
          <note pan="0" key="63" len="24" vol="78" pos="3960"/>
          <note pan="0" key="70" len="24" vol="78" pos="3984"/>
          <note pan="0" key="68" len="24" vol="78" pos="4008"/>
          <note pan="0" key="70" len="96" vol="78" pos="4032"/>
          <note pan="0" key="75" len="96" vol="78" pos="4128"/>
          <note pan="0" key="75" len="192" vol="78" pos="4224"/>
          <note pan="0" key="78" len="96" vol="78" pos="4416"/>
          <note pan="0" key="80" len="96" vol="78" pos="4512"/>
          <note pan="0" key="82" len="192" vol="78" pos="4608"/>
          <note pan="0" key="0" len="16" vol="78" pos="4608"/>
          <note pan="0" key="75" len="16" vol="78" pos="4800"/>
          <note pan="0" key="1" len="16" vol="78" pos="4800"/>
          <note pan="0" key="77" len="16" vol="78" pos="4816"/>
          <note pan="0" key="75" len="16" vol="78" pos="4832"/>
          <note pan="0" key="78" len="16" vol="78" pos="4848"/>
          <note pan="0" key="80" len="16" vol="78" pos="4864"/>
          <note pan="0" key="0" len="16" vol="78" pos="4864"/>
          <note pan="0" key="82" len="16" vol="78" pos="4880"/>
          <note pan="0" key="87" len="16" vol="78" pos="4896"/>
          <note pan="0" key="82" len="16" vol="78" pos="4912"/>
          <note pan="0" key="80" len="16" vol="78" pos="4928"/>
          <note pan="0" key="1" len="16" vol="78" pos="4928"/>
          <note pan="0" key="78" len="16" vol="78" pos="4944"/>
          <note pan="0" key="77" len="16" vol="78" pos="4960"/>
          <note pan="0" key="75" len="16" vol="78" pos="4976"/>
          <note pan="0" key="77" len="48" vol="78" pos="4992"/>
          <note pan="0" key="0" len="192" vol="78" pos="4992"/>
          <note pan="0" key="78" len="48" vol="78" pos="5040"/>
          <note pan="0" key="80" len="48" vol="78" pos="5088"/>
          <note pan="0" key="85" len="48" vol="78" pos="5136"/>
          <note pan="0" key="73" len="96" vol="78" pos="5184"/>
          <note pan="0" key="75" len="12" vol="78" pos="5280"/>
          <note pan="0" key="0" len="12" vol="78" pos="5280"/>
          <note pan="0" key="77" len="84" vol="78" pos="5292"/>
          <note pan="0" key="2" len="12" vol="78" pos="5292"/>
          <note pan="0" key="0" len="12" vol="78" pos="5304"/>
          <note pan="0" key="75" len="96" vol="78" pos="5376"/>
          <note pan="0" key="77" len="96" vol="78" pos="5472"/>
          <note pan="0" key="70" len="96" vol="78" pos="5568"/>
          <note pan="0" key="75" len="96" vol="78" pos="5664"/>
          <note pan="0" key="80" len="96" vol="78" pos="5760"/>
          <note pan="0" key="82" len="96" vol="78" pos="5856"/>
          <note pan="0" key="85" len="96" vol="200" pos="5952"/>
        </pattern>
      </track>
      <track solo="0" mutedBeforeSolo="1" muted="1" name="lgtH1" type="0">
        <instrumenttrack pan="-100" basenote="57" pitch="0" usemasterpitch="1" vol="200" pitchrange="1" fxch="13">
          <instrument name="carlapatchbay">
            <carlapatchbay>
              <CARLA-PROJECT VERSION="2.2">
                <EngineSettings>
                  <ForceStereo>false</ForceStereo>
                  <PreferPluginBridges>false</PreferPluginBridges>
                  <PreferUiBridges>true</PreferUiBridges>
                  <UIsAlwaysOnTop>false</UIsAlwaysOnTop>
                  <MaxParameters>200</MaxParameters>
                  <UIBridgesTimeout>4000</UIBridgesTimeout>
                  <LADSPA_PATH>/home/pass/.ladspa:/usr/lib/ladspa:/usr/local/lib/ladspa</LADSPA_PATH>
                  <DSSI_PATH>/home/pass/.dssi:/usr/lib/dssi:/usr/local/lib/dssi</DSSI_PATH>
                  <LV2_PATH>/home/pass/.lv2:/usr/lib/lv2:/usr/local/lib/lv2</LV2_PATH>
                  <VST2_PATH>/home/pass/.vst:/home/pass/.wine/drive_c/Program Files (x86)/VstPlugins:/home/pass/.wine/drive_c/Program Files/VstPlugins:/usr/lib/lxvst:/usr/lib/vst:/usr/local/lib/lxvst:/usr/local/lib/vst/home/pass/.lxvst:/home/pass/vst</VST2_PATH>
                  <VST3_PATH>/home/pass/.vst3:/home/pass/.wine/drive_c/Program Files (x86)/Common Files/VST3:/home/pass/.wine/drive_c/Program Files/Common Files/VST3:/usr/lib/vst3:/usr/local/lib/vst3</VST3_PATH>
                  <SF2_PATH>/home/pass/.sounds/sf2/home/pass/.sounds/sf3:/usr/share/soundfonts:/usr/share/sounds/sf2:/usr/share/sounds/sf3</SF2_PATH>
                  <SFZ_PATH>/home/pass/.sounds/sfz:/home/pass/samples:/usr/share/sounds/sfz</SFZ_PATH>
                </EngineSettings>
                <!-- sfizz -->
                <Plugin>
                  <Info>
                    <Type>LV2</Type>
                    <Name>sfizz</Name>
                    <URI>http://sfztools.github.io/sfizz</URI>
                  </Info>
                  <Data>
                    <Active>Yes</Active>
                    <ControlChannel>1</ControlChannel>
                    <Options>0x3f0</Options>
                    <Parameter>
                      <Index>0</Index>
                      <Name>Volume</Name>
                      <Symbol>volume</Symbol>
                      <Value>0</Value>
                    </Parameter>
                    <Parameter>
                      <Index>1</Index>
                      <Name>Polyphony</Name>
                      <Symbol>num_voices</Symbol>
                      <Value>64</Value>
                    </Parameter>
                    <Parameter>
                      <Index>2</Index>
                      <Name>Internal oversampling factor</Name>
                      <Symbol>oversampling</Symbol>
                      <Value>1</Value>
                    </Parameter>
                    <Parameter>
                      <Index>3</Index>
                      <Name>Preload size</Name>
                      <Symbol>preload_size</Symbol>
                      <Value>8192</Value>
                    </Parameter>
                    <Parameter>
                      <Index>5</Index>
                      <Name>Scala root key</Name>
                      <Symbol>scala_root_key</Symbol>
                      <Value>60</Value>
                    </Parameter>
                    <Parameter>
                      <Index>6</Index>
                      <Name>Tuning frequency</Name>
                      <Symbol>tuning_frequency</Symbol>
                      <Value>440</Value>
                    </Parameter>
                    <Parameter>
                      <Index>7</Index>
                      <Name>Stretched tuning</Name>
                      <Symbol>stretched_tuning</Symbol>
                      <Value>0</Value>
                    </Parameter>
                    <CustomData>
                      <Type>http://lv2plug.in/ns/ext/atom#Path</Type>
                      <Key>http://sfztools.github.io/sfizz:sfzfile</Key>
                      <Value>_fakeguitar1_integrated.sfz</Value>
                    </CustomData>
                    <CustomData>
                      <Type>http://lv2plug.in/ns/ext/atom#Int</Type>
                      <Key>http://sfztools.github.io/sfizz:numvoices</Key>
                      <Value>QAAAAA==</Value>
                    </CustomData>
                    <CustomData>
                      <Type>http://lv2plug.in/ns/ext/atom#Int</Type>
                      <Key>http://sfztools.github.io/sfizz:preload_size</Key>
                      <Value>ACAAAA==</Value>
                    </CustomData>
                    <CustomData>
                      <Type>http://lv2plug.in/ns/ext/atom#Int</Type>
                      <Key>http://sfztools.github.io/sfizz:oversampling</Key>
                      <Value>AQAAAA==</Value>
                    </CustomData>
                    <CustomData>
                      <Type>http://lv2plug.in/ns/ext/atom#Path</Type>
                      <Key>http://sfztools.github.io/sfizz:tuningfile</Key>
                      <Value>DefaultScale.scl</Value>
                    </CustomData>
                  </Data>
                </Plugin>
                <Patchbay>
                  <Connection>
                    <Source>Midi Input:Capture 1</Source>
                    <Target>sfizz:events-in</Target>
                  </Connection>
                  <Connection>
                    <Source>sfizz:Left Output</Source>
                    <Target>Audio Output:Left</Target>
                  </Connection>
                  <Connection>
                    <Source>sfizz:Right Output</Source>
                    <Target>Audio Output:Right</Target>
                  </Connection>
                  <Positions>
                    <Position y1="1353" x1="1693" pluginId="0">
                      <Name>sfizz</Name>
                    </Position>
                  </Positions>
                </Patchbay>
              </CARLA-PROJECT>
              <key/>
            </carlapatchbay>
          </instrument>
          <eldata fcut="14000" fres="0.5" ftype="0" fwet="0">
            <elvol lspd_syncmode="0" amt="0" lshp="0" lpdel="0" att="0" ctlenvamt="0" dec="0.5" userwavefile="" x100="0" rel="0.1" sustain="0.5" lspd_numerator="4" latt="0" lspd="0.1" lamt="0" lspd_denominator="4" hold="0.5" pdel="0"/>
            <elcut lspd_syncmode="0" amt="0" lshp="0" lpdel="0" att="0" ctlenvamt="0" dec="0.5" userwavefile="" x100="0" rel="0.1" sustain="0.5" lspd_numerator="4" latt="0" lspd="0.1" lamt="0" lspd_denominator="4" hold="0.5" pdel="0"/>
            <elres lspd_syncmode="0" amt="0" lshp="0" lpdel="0" att="0" ctlenvamt="0" dec="0.5" userwavefile="" x100="0" rel="0.1" sustain="0.5" lspd_numerator="4" latt="0" lspd="0.1" lamt="0" lspd_denominator="4" hold="0.5" pdel="0"/>
          </eldata>
          <chordcreator chordrange="1" chord-enabled="0" chord="0"/>
          <arpeggiator arprange="1" arpmode="0" arpcycle="0" arptime_syncmode="0" arptime_numerator="4" arpgate="100" arptime="200" arpskip="0" arpmiss="0" arp="0" arptime_denominator="4" arp-enabled="0" arpdir="0"/>
          <midiport inputcontroller="0" outputcontroller="0" readable="0" outputchannel="1" fixedoutputvelocity="-1" outputprogram="1" fixedinputvelocity="-1" fixedoutputnote="-1" inputchannel="0" basevelocity="63" writable="0"/>
          <fxchain enabled="0" numofeffects="0"/>
        </instrumenttrack>
        <pattern steps="16" muted="0" pos="7104" name="" type="1">
          <note pan="0" key="0" len="72" vol="78" pos="0"/>
          <note pan="0" key="68" len="48" vol="78" pos="96"/>
          <note pan="0" key="71" len="48" vol="78" pos="144"/>
          <note pan="0" key="73" len="96" vol="78" pos="192"/>
          <note pan="0" key="73" len="24" vol="78" pos="288"/>
          <note pan="0" key="68" len="24" vol="78" pos="312"/>
          <note pan="0" key="73" len="24" vol="78" pos="336"/>
          <note pan="0" key="80" len="168" vol="78" pos="360"/>
          <note pan="0" key="80" len="24" vol="78" pos="528"/>
          <note pan="0" key="78" len="24" vol="78" pos="552"/>
          <note pan="0" key="77" len="48" vol="78" pos="576"/>
          <note pan="0" key="73" len="48" vol="78" pos="624"/>
          <note pan="0" key="70" len="48" vol="78" pos="672"/>
          <note pan="0" key="66" len="48" vol="78" pos="720"/>
          <note pan="0" key="69" len="96" vol="78" pos="768"/>
          <note pan="0" key="68" len="96" vol="78" pos="864"/>
          <note pan="0" key="73" len="144" vol="78" pos="960"/>
          <note pan="0" key="76" len="48" vol="78" pos="1104"/>
          <note pan="0" key="75" len="144" vol="78" pos="1152"/>
          <note pan="0" key="80" len="48" vol="78" pos="1296"/>
          <note pan="0" key="80" len="144" vol="78" pos="1344"/>
          <note pan="0" key="78" len="24" vol="78" pos="1488"/>
          <note pan="0" key="76" len="24" vol="78" pos="1512"/>
          <note pan="0" key="75" len="48" vol="78" pos="1536"/>
          <note pan="0" key="76" len="48" vol="78" pos="1584"/>
          <note pan="0" key="71" len="48" vol="78" pos="1632"/>
          <note pan="0" key="68" len="48" vol="78" pos="1680"/>
          <note pan="0" key="69" len="96" vol="78" pos="1728"/>
          <note pan="0" key="73" len="48" vol="78" pos="1824"/>
          <note pan="0" key="76" len="48" vol="78" pos="1872"/>
          <note pan="0" key="76" len="96" vol="78" pos="1920"/>
          <note pan="0" key="75" len="48" vol="78" pos="2016"/>
          <note pan="0" key="76" len="48" vol="78" pos="2064"/>
          <note pan="0" key="83" len="72" vol="78" pos="2112"/>
          <note pan="0" key="81" len="72" vol="78" pos="2184"/>
          <note pan="0" key="80" len="48" vol="78" pos="2256"/>
          <note pan="0" key="78" len="192" vol="78" pos="2304"/>
          <note pan="0" key="76" len="72" vol="78" pos="2496"/>
          <note pan="0" key="75" len="72" vol="78" pos="2568"/>
          <note pan="0" key="76" len="48" vol="78" pos="2640"/>
          <note pan="0" key="80" len="144" vol="78" pos="2688"/>
          <note pan="0" key="75" len="48" vol="78" pos="2832"/>
          <note pan="0" key="73" len="240" vol="78" pos="2880"/>
          <note pan="0" key="76" len="48" vol="78" pos="3120"/>
          <note pan="0" key="78" len="48" vol="78" pos="3168"/>
          <note pan="0" key="80" len="48" vol="78" pos="3216"/>
          <note pan="0" key="81" len="72" vol="78" pos="3264"/>
          <note pan="0" key="80" len="72" vol="78" pos="3336"/>
          <note pan="0" key="78" len="48" vol="78" pos="3408"/>
          <note pan="0" key="76" len="48" vol="78" pos="3456"/>
          <note pan="0" key="73" len="48" vol="78" pos="3504"/>
          <note pan="0" key="76" len="48" vol="78" pos="3552"/>
          <note pan="0" key="80" len="48" vol="78" pos="3600"/>
          <note pan="0" key="78" len="192" vol="78" pos="3648"/>
          <note pan="0" key="75" len="96" vol="78" pos="3840"/>
          <note pan="0" key="71" len="96" vol="78" pos="3936"/>
          <note pan="0" key="73" len="384" vol="78" pos="4032"/>
        </pattern>
        <pattern steps="16" muted="0" pos="5376" name="" type="1">
          <note pan="0" key="68" len="24" vol="78" pos="0"/>
          <note pan="0" key="0" len="24" vol="78" pos="0"/>
          <note pan="0" key="71" len="24" vol="78" pos="24"/>
          <note pan="0" key="68" len="24" vol="78" pos="48"/>
          <note pan="0" key="75" len="48" vol="78" pos="72"/>
          <note pan="0" key="68" len="24" vol="78" pos="120"/>
          <note pan="0" key="71" len="24" vol="78" pos="144"/>
          <note pan="0" key="75" len="24" vol="78" pos="168"/>
          <note pan="0" key="76" len="24" vol="78" pos="192"/>
          <note pan="0" key="75" len="24" vol="78" pos="216"/>
          <note pan="0" key="73" len="24" vol="78" pos="240"/>
          <note pan="0" key="71" len="24" vol="78" pos="264"/>
          <note pan="0" key="75" len="24" vol="78" pos="288"/>
          <note pan="0" key="73" len="24" vol="78" pos="312"/>
          <note pan="0" key="71" len="24" vol="78" pos="336"/>
          <note pan="0" key="68" len="24" vol="78" pos="360"/>
        </pattern>
        <pattern steps="16" muted="0" pos="6144" name="" type="1">
          <note pan="0" key="87" len="24" vol="78" pos="0"/>
          <note pan="0" key="0" len="48" vol="100" pos="0"/>
          <note pan="0" key="76" len="24" vol="78" pos="24"/>
          <note pan="0" key="80" len="24" vol="78" pos="48"/>
          <note pan="0" key="83" len="48" vol="78" pos="72"/>
          <note pan="0" key="80" len="24" vol="78" pos="120"/>
          <note pan="0" key="83" len="24" vol="78" pos="144"/>
          <note pan="0" key="87" len="24" vol="78" pos="168"/>
          <note pan="0" key="1" len="48" vol="100" pos="180"/>
          <note pan="0" key="85" len="12" vol="78" pos="192"/>
          <note pan="0" key="85" len="12" vol="78" pos="204"/>
          <note pan="0" key="80" len="12" vol="78" pos="216"/>
          <note pan="0" key="80" len="12" vol="78" pos="228"/>
          <note pan="0" key="76" len="12" vol="78" pos="240"/>
          <note pan="0" key="76" len="12" vol="78" pos="252"/>
          <note pan="0" key="73" len="12" vol="78" pos="264"/>
          <note pan="0" key="73" len="12" vol="78" pos="276"/>
          <note pan="0" key="78" len="12" vol="78" pos="288"/>
          <note pan="0" key="78" len="12" vol="78" pos="300"/>
          <note pan="0" key="76" len="12" vol="78" pos="312"/>
          <note pan="0" key="76" len="12" vol="78" pos="324"/>
          <note pan="0" key="80" len="12" vol="78" pos="336"/>
          <note pan="0" key="80" len="12" vol="78" pos="348"/>
          <note pan="0" key="76" len="12" vol="78" pos="360"/>
          <note pan="0" key="76" len="12" vol="78" pos="372"/>
          <note pan="0" key="0" len="12" vol="78" pos="384"/>
        </pattern>
        <pattern steps="16" muted="0" pos="13056" name="" type="1">
          <note pan="0" key="68" len="24" vol="78" pos="0"/>
          <note pan="0" key="0" len="24" vol="78" pos="0"/>
          <note pan="0" key="71" len="24" vol="78" pos="24"/>
          <note pan="0" key="68" len="24" vol="78" pos="48"/>
          <note pan="0" key="75" len="48" vol="78" pos="72"/>
          <note pan="0" key="68" len="24" vol="78" pos="120"/>
          <note pan="0" key="71" len="24" vol="78" pos="144"/>
          <note pan="0" key="75" len="24" vol="78" pos="168"/>
          <note pan="0" key="76" len="24" vol="78" pos="192"/>
          <note pan="0" key="75" len="24" vol="78" pos="216"/>
          <note pan="0" key="73" len="24" vol="78" pos="240"/>
          <note pan="0" key="71" len="24" vol="78" pos="264"/>
          <note pan="0" key="75" len="24" vol="78" pos="288"/>
          <note pan="0" key="73" len="24" vol="78" pos="312"/>
          <note pan="0" key="71" len="24" vol="78" pos="336"/>
          <note pan="0" key="68" len="24" vol="78" pos="360"/>
        </pattern>
        <pattern steps="16" muted="0" pos="13824" name="" type="1">
          <note pan="0" key="71" len="24" vol="78" pos="0"/>
          <note pan="0" key="0" len="12" vol="78" pos="0"/>
          <note pan="0" key="1" len="12" vol="78" pos="12"/>
          <note pan="0" key="61" len="12" vol="78" pos="24"/>
          <note pan="0" key="61" len="12" vol="78" pos="36"/>
          <note pan="0" key="64" len="24" vol="78" pos="48"/>
          <note pan="0" key="0" len="12" vol="78" pos="48"/>
          <note pan="0" key="68" len="48" vol="78" pos="72"/>
          <note pan="0" key="64" len="24" vol="78" pos="120"/>
          <note pan="0" key="68" len="24" vol="78" pos="144"/>
          <note pan="0" key="71" len="24" vol="78" pos="168"/>
          <note pan="0" key="69" len="24" vol="78" pos="192"/>
          <note pan="0" key="64" len="24" vol="78" pos="216"/>
          <note pan="0" key="61" len="24" vol="78" pos="240"/>
          <note pan="0" key="57" len="24" vol="78" pos="264"/>
          <note pan="0" key="63" len="24" vol="78" pos="288"/>
          <note pan="0" key="61" len="24" vol="78" pos="312"/>
          <note pan="0" key="64" len="24" vol="78" pos="336"/>
          <note pan="0" key="61" len="24" vol="78" pos="360"/>
        </pattern>
        <pattern steps="16" muted="0" pos="18816" name="" type="1">
          <note pan="0" key="73" len="336" vol="78" pos="0"/>
          <note pan="0" key="64" len="48" vol="78" pos="336"/>
          <note pan="0" key="63" len="288" vol="78" pos="384"/>
          <note pan="0" key="56" len="48" vol="78" pos="672"/>
          <note pan="0" key="59" len="48" vol="78" pos="720"/>
          <note pan="0" key="61" len="240" vol="78" pos="768"/>
          <note pan="0" key="59" len="48" vol="78" pos="1008"/>
          <note pan="0" key="61" len="48" vol="78" pos="1056"/>
          <note pan="0" key="68" len="48" vol="78" pos="1104"/>
          <note pan="0" key="66" len="192" vol="78" pos="1152"/>
          <note pan="0" key="69" len="48" vol="78" pos="1344"/>
          <note pan="0" key="68" len="24" vol="78" pos="1392"/>
          <note pan="0" key="68" len="12" vol="78" pos="1416"/>
          <note pan="0" key="69" len="12" vol="78" pos="1424"/>
          <note pan="0" key="68" len="12" vol="78" pos="1432"/>
          <note pan="0" key="66" len="48" vol="78" pos="1440"/>
          <note pan="0" key="68" len="48" vol="78" pos="1488"/>
          <note pan="0" key="64" len="240" vol="78" pos="1536"/>
          <note pan="0" key="61" len="48" vol="78" pos="1776"/>
          <note pan="0" key="64" len="48" vol="78" pos="1824"/>
          <note pan="0" key="68" len="48" vol="78" pos="1872"/>
          <note pan="0" key="68" len="192" vol="78" pos="1920"/>
          <note pan="0" key="66" len="144" vol="78" pos="2112"/>
          <note pan="0" key="68" len="48" vol="78" pos="2256"/>
          <note pan="0" key="61" len="240" vol="78" pos="2304"/>
          <note pan="0" key="56" len="48" vol="78" pos="2544"/>
          <note pan="0" key="61" len="48" vol="78" pos="2592"/>
          <note pan="0" key="68" len="48" vol="78" pos="2640"/>
          <note pan="0" key="73" len="192" vol="78" pos="2688"/>
          <note pan="0" key="72" len="192" vol="78" pos="2880"/>
        </pattern>
        <pattern steps="16" muted="0" pos="14784" name="" type="1">
          <note pan="0" key="0" len="72" vol="78" pos="0"/>
          <note pan="0" key="68" len="48" vol="78" pos="96"/>
          <note pan="0" key="71" len="48" vol="78" pos="144"/>
          <note pan="0" key="73" len="96" vol="78" pos="192"/>
          <note pan="0" key="73" len="24" vol="78" pos="288"/>
          <note pan="0" key="68" len="24" vol="78" pos="312"/>
          <note pan="0" key="73" len="24" vol="78" pos="336"/>
          <note pan="0" key="80" len="168" vol="78" pos="360"/>
          <note pan="0" key="80" len="24" vol="78" pos="528"/>
          <note pan="0" key="78" len="24" vol="78" pos="552"/>
          <note pan="0" key="77" len="48" vol="78" pos="576"/>
          <note pan="0" key="73" len="48" vol="78" pos="624"/>
          <note pan="0" key="70" len="48" vol="78" pos="672"/>
          <note pan="0" key="66" len="48" vol="78" pos="720"/>
          <note pan="0" key="69" len="96" vol="78" pos="768"/>
          <note pan="0" key="68" len="96" vol="78" pos="864"/>
          <note pan="0" key="73" len="144" vol="78" pos="960"/>
          <note pan="0" key="76" len="48" vol="78" pos="1104"/>
          <note pan="0" key="75" len="144" vol="78" pos="1152"/>
          <note pan="0" key="80" len="48" vol="78" pos="1296"/>
          <note pan="0" key="80" len="144" vol="78" pos="1344"/>
          <note pan="0" key="78" len="24" vol="78" pos="1488"/>
          <note pan="0" key="76" len="24" vol="78" pos="1512"/>
          <note pan="0" key="75" len="48" vol="78" pos="1536"/>
          <note pan="0" key="76" len="48" vol="78" pos="1584"/>
          <note pan="0" key="71" len="48" vol="78" pos="1632"/>
          <note pan="0" key="68" len="48" vol="78" pos="1680"/>
          <note pan="0" key="69" len="96" vol="78" pos="1728"/>
          <note pan="0" key="73" len="48" vol="78" pos="1824"/>
          <note pan="0" key="76" len="48" vol="78" pos="1872"/>
          <note pan="0" key="76" len="96" vol="78" pos="1920"/>
          <note pan="0" key="75" len="48" vol="78" pos="2016"/>
          <note pan="0" key="76" len="48" vol="78" pos="2064"/>
          <note pan="0" key="83" len="72" vol="78" pos="2112"/>
          <note pan="0" key="81" len="72" vol="78" pos="2184"/>
          <note pan="0" key="80" len="48" vol="78" pos="2256"/>
          <note pan="0" key="78" len="192" vol="78" pos="2304"/>
          <note pan="0" key="76" len="72" vol="78" pos="2496"/>
          <note pan="0" key="75" len="72" vol="78" pos="2568"/>
          <note pan="0" key="76" len="48" vol="78" pos="2640"/>
          <note pan="0" key="80" len="144" vol="78" pos="2688"/>
          <note pan="0" key="75" len="48" vol="78" pos="2832"/>
          <note pan="0" key="73" len="240" vol="78" pos="2880"/>
          <note pan="0" key="76" len="48" vol="78" pos="3120"/>
          <note pan="0" key="78" len="48" vol="78" pos="3168"/>
          <note pan="0" key="80" len="48" vol="78" pos="3216"/>
          <note pan="0" key="81" len="72" vol="78" pos="3264"/>
          <note pan="0" key="80" len="72" vol="78" pos="3336"/>
          <note pan="0" key="78" len="48" vol="78" pos="3408"/>
          <note pan="0" key="76" len="48" vol="78" pos="3456"/>
          <note pan="0" key="73" len="48" vol="78" pos="3504"/>
          <note pan="0" key="76" len="48" vol="78" pos="3552"/>
          <note pan="0" key="80" len="48" vol="78" pos="3600"/>
          <note pan="0" key="78" len="192" vol="78" pos="3648"/>
          <note pan="0" key="75" len="96" vol="78" pos="3840"/>
          <note pan="0" key="71" len="96" vol="78" pos="3936"/>
        </pattern>
        <pattern steps="16" muted="0" pos="34944" name="" type="1">
          <note pan="0" key="73" len="144" vol="197" pos="0"/>
          <note pan="0" key="0" len="12" vol="197" pos="0"/>
          <note pan="0" key="76" len="48" vol="197" pos="144"/>
          <note pan="0" key="75" len="144" vol="197" pos="192"/>
          <note pan="0" key="80" len="48" vol="197" pos="336"/>
          <note pan="0" key="80" len="144" vol="197" pos="384"/>
          <note pan="0" key="78" len="24" vol="197" pos="528"/>
          <note pan="0" key="76" len="24" vol="197" pos="552"/>
          <note pan="0" key="75" len="48" vol="197" pos="576"/>
          <note pan="0" key="76" len="48" vol="197" pos="624"/>
          <note pan="0" key="71" len="12" vol="197" pos="672"/>
          <note pan="0" key="1" len="12" vol="197" pos="672"/>
          <note pan="0" key="73" len="12" vol="197" pos="684"/>
          <note pan="0" key="71" len="12" vol="197" pos="696"/>
          <note pan="0" key="68" len="12" vol="197" pos="708"/>
          <note pan="0" key="71" len="12" vol="197" pos="720"/>
          <note pan="0" key="68" len="12" vol="197" pos="732"/>
          <note pan="0" key="66" len="12" vol="197" pos="744"/>
          <note pan="0" key="68" len="12" vol="197" pos="756"/>
          <note pan="0" key="69" len="96" vol="197" pos="768"/>
          <note pan="0" key="0" len="12" vol="197" pos="768"/>
          <note pan="0" key="73" len="48" vol="197" pos="864"/>
          <note pan="0" key="76" len="48" vol="197" pos="912"/>
          <note pan="0" key="76" len="96" vol="197" pos="960"/>
          <note pan="0" key="75" len="48" vol="197" pos="1056"/>
          <note pan="0" key="76" len="48" vol="197" pos="1104"/>
          <note pan="0" key="76" len="12" vol="197" pos="1152"/>
          <note pan="0" key="0" len="12" vol="200" pos="1152"/>
          <note pan="0" key="73" len="12" vol="197" pos="1164"/>
          <note pan="0" key="75" len="12" vol="197" pos="1176"/>
          <note pan="0" key="76" len="12" vol="197" pos="1188"/>
          <note pan="0" key="78" len="12" vol="197" pos="1200"/>
          <note pan="0" key="75" len="12" vol="197" pos="1212"/>
          <note pan="0" key="76" len="12" vol="197" pos="1224"/>
          <note pan="0" key="78" len="12" vol="197" pos="1236"/>
          <note pan="0" key="80" len="12" vol="197" pos="1248"/>
          <note pan="0" key="76" len="12" vol="197" pos="1260"/>
          <note pan="0" key="78" len="12" vol="197" pos="1272"/>
          <note pan="0" key="80" len="12" vol="197" pos="1284"/>
          <note pan="0" key="81" len="12" vol="197" pos="1296"/>
          <note pan="0" key="78" len="12" vol="197" pos="1308"/>
          <note pan="0" key="80" len="12" vol="197" pos="1320"/>
          <note pan="0" key="81" len="12" vol="197" pos="1332"/>
          <note pan="0" key="83" len="12" vol="200" pos="1344"/>
          <note pan="0" key="81" len="12" vol="200" pos="1356"/>
          <note pan="0" key="80" len="12" vol="200" pos="1368"/>
          <note pan="0" key="78" len="12" vol="200" pos="1380"/>
          <note pan="0" key="81" len="12" vol="200" pos="1392"/>
          <note pan="0" key="80" len="12" vol="200" pos="1404"/>
          <note pan="0" key="78" len="12" vol="200" pos="1416"/>
          <note pan="0" key="76" len="12" vol="200" pos="1428"/>
          <note pan="0" key="80" len="12" vol="200" pos="1440"/>
          <note pan="0" key="78" len="12" vol="200" pos="1452"/>
          <note pan="0" key="80" len="12" vol="200" pos="1464"/>
          <note pan="0" key="81" len="12" vol="200" pos="1476"/>
          <note pan="0" key="87" len="12" vol="200" pos="1488"/>
          <note pan="0" key="2" len="12" vol="200" pos="1488"/>
          <note pan="0" key="83" len="12" vol="200" pos="1500"/>
          <note pan="0" key="87" len="12" vol="200" pos="1512"/>
          <note pan="0" key="83" len="12" vol="200" pos="1524"/>
        </pattern>
        <pattern steps="16" muted="0" pos="31104" name="" type="1">
          <note pan="0" key="85" len="24" vol="197" pos="0"/>
          <note pan="0" key="1" len="24" vol="197" pos="0"/>
          <note pan="0" key="80" len="24" vol="197" pos="24"/>
          <note pan="0" key="83" len="24" vol="197" pos="48"/>
          <note pan="0" key="78" len="24" vol="197" pos="72"/>
          <note pan="0" key="80" len="24" vol="197" pos="96"/>
          <note pan="0" key="78" len="24" vol="197" pos="120"/>
          <note pan="0" key="76" len="24" vol="197" pos="144"/>
          <note pan="0" key="78" len="24" vol="197" pos="168"/>
          <note pan="0" key="80" len="24" vol="197" pos="192"/>
          <note pan="0" key="78" len="24" vol="197" pos="216"/>
          <note pan="0" key="80" len="24" vol="197" pos="240"/>
          <note pan="0" key="83" len="24" vol="197" pos="264"/>
          <note pan="0" key="85" len="24" vol="197" pos="288"/>
          <note pan="0" key="83" len="24" vol="197" pos="312"/>
          <note pan="0" key="80" len="24" vol="197" pos="336"/>
          <note pan="0" key="83" len="24" vol="197" pos="360"/>
        </pattern>
        <pattern steps="16" muted="0" pos="31488" name="" type="1">
          <note pan="0" key="71" len="12" vol="197" pos="0"/>
          <note pan="0" key="0" len="24" vol="197" pos="0"/>
          <note pan="0" key="69" len="12" vol="197" pos="12"/>
          <note pan="0" key="1" len="24" vol="197" pos="12"/>
          <note pan="0" key="71" len="12" vol="197" pos="24"/>
          <note pan="0" key="73" len="12" vol="197" pos="36"/>
          <note pan="0" key="75" len="12" vol="197" pos="48"/>
          <note pan="0" key="0" len="12" vol="197" pos="48"/>
          <note pan="0" key="71" len="12" vol="197" pos="60"/>
          <note pan="0" key="1" len="12" vol="197" pos="60"/>
          <note pan="0" key="73" len="12" vol="197" pos="72"/>
          <note pan="0" key="75" len="12" vol="197" pos="84"/>
          <note pan="0" key="76" len="12" vol="197" pos="96"/>
          <note pan="0" key="0" len="12" vol="197" pos="96"/>
          <note pan="0" key="75" len="12" vol="197" pos="108"/>
          <note pan="0" key="1" len="12" vol="197" pos="108"/>
          <note pan="0" key="73" len="12" vol="197" pos="120"/>
          <note pan="0" key="75" len="12" vol="197" pos="132"/>
          <note pan="0" key="76" len="12" vol="197" pos="144"/>
          <note pan="0" key="78" len="12" vol="197" pos="156"/>
          <note pan="0" key="80" len="12" vol="197" pos="168"/>
          <note pan="0" key="81" len="12" vol="197" pos="180"/>
          <note pan="0" key="83" len="12" vol="197" pos="192"/>
          <note pan="0" key="0" len="12" vol="197" pos="192"/>
          <note pan="0" key="78" len="12" vol="197" pos="204"/>
          <note pan="0" key="75" len="12" vol="197" pos="216"/>
          <note pan="0" key="1" len="12" vol="197" pos="216"/>
          <note pan="0" key="71" len="12" vol="197" pos="228"/>
          <note pan="0" key="66" len="12" vol="197" pos="240"/>
          <note pan="0" key="71" len="12" vol="197" pos="252"/>
          <note pan="0" key="87" len="12" vol="197" pos="264"/>
          <note pan="0" key="2" len="12" vol="197" pos="264"/>
          <note pan="0" key="78" len="12" vol="197" pos="276"/>
          <note pan="0" key="75" len="12" vol="197" pos="288"/>
          <note pan="0" key="1" len="12" vol="197" pos="288"/>
          <note pan="0" key="71" len="12" vol="197" pos="300"/>
          <note pan="0" key="75" len="12" vol="197" pos="312"/>
          <note pan="0" key="78" len="12" vol="197" pos="324"/>
          <note pan="0" key="83" len="12" vol="197" pos="336"/>
          <note pan="0" key="0" len="12" vol="197" pos="336"/>
          <note pan="0" key="78" len="12" vol="197" pos="348"/>
          <note pan="0" key="75" len="12" vol="197" pos="360"/>
          <note pan="0" key="78" len="12" vol="197" pos="372"/>
        </pattern>
        <pattern steps="16" muted="0" pos="31872" name="" type="1">
          <note pan="0" key="85" len="240" vol="100" pos="0"/>
        </pattern>
        <pattern steps="16" muted="0" pos="37056" name="" type="1">
          <note pan="0" key="80" len="12" vol="197" pos="0"/>
          <note pan="0" key="0" len="12" vol="197" pos="0"/>
          <note pan="0" key="64" len="12" vol="197" pos="12"/>
          <note pan="0" key="2" len="12" vol="197" pos="12"/>
          <note pan="0" key="64" len="12" vol="197" pos="24"/>
          <note pan="0" key="0" len="12" vol="197" pos="24"/>
          <note pan="0" key="78" len="12" vol="197" pos="36"/>
          <note pan="0" key="0" len="12" vol="197" pos="36"/>
          <note pan="0" key="64" len="12" vol="197" pos="48"/>
          <note pan="0" key="2" len="12" vol="197" pos="48"/>
          <note pan="0" key="64" len="12" vol="197" pos="60"/>
          <note pan="0" key="0" len="12" vol="197" pos="60"/>
          <note pan="0" key="80" len="12" vol="197" pos="72"/>
          <note pan="0" key="0" len="12" vol="197" pos="72"/>
          <note pan="0" key="64" len="12" vol="197" pos="84"/>
          <note pan="0" key="2" len="12" vol="197" pos="84"/>
          <note pan="0" key="64" len="12" vol="197" pos="96"/>
          <note pan="0" key="0" len="12" vol="197" pos="96"/>
          <note pan="0" key="78" len="12" vol="197" pos="108"/>
          <note pan="0" key="0" len="12" vol="197" pos="108"/>
          <note pan="0" key="64" len="12" vol="197" pos="120"/>
          <note pan="0" key="2" len="12" vol="197" pos="120"/>
          <note pan="0" key="64" len="12" vol="197" pos="132"/>
          <note pan="0" key="0" len="12" vol="197" pos="132"/>
          <note pan="0" key="83" len="12" vol="197" pos="144"/>
          <note pan="0" key="0" len="12" vol="197" pos="144"/>
          <note pan="0" key="64" len="12" vol="197" pos="156"/>
          <note pan="0" key="2" len="12" vol="197" pos="156"/>
          <note pan="0" key="81" len="12" vol="197" pos="168"/>
          <note pan="0" key="0" len="12" vol="197" pos="168"/>
          <note pan="0" key="64" len="12" vol="197" pos="180"/>
          <note pan="0" key="2" len="12" vol="197" pos="180"/>
        </pattern>
        <pattern steps="16" muted="0" pos="37248" name="" type="1">
          <note pan="0" key="85" len="12" vol="100" pos="0"/>
          <note pan="0" key="0" len="48" vol="100" pos="0"/>
          <note pan="0" key="83" len="12" vol="100" pos="12"/>
          <note pan="0" key="80" len="12" vol="100" pos="24"/>
          <note pan="0" key="1" len="12" vol="100" pos="24"/>
          <note pan="0" key="78" len="12" vol="100" pos="36"/>
          <note pan="0" key="76" len="12" vol="100" pos="48"/>
          <note pan="0" key="73" len="12" vol="100" pos="60"/>
          <note pan="0" key="76" len="12" vol="100" pos="72"/>
          <note pan="0" key="80" len="12" vol="100" pos="84"/>
          <note pan="0" key="85" len="12" vol="100" pos="96"/>
          <note pan="0" key="0" len="12" vol="100" pos="96"/>
          <note pan="0" key="83" len="12" vol="100" pos="108"/>
          <note pan="0" key="80" len="12" vol="100" pos="120"/>
          <note pan="0" key="1" len="12" vol="100" pos="120"/>
          <note pan="0" key="78" len="12" vol="100" pos="132"/>
          <note pan="0" key="76" len="12" vol="100" pos="144"/>
          <note pan="0" key="73" len="12" vol="100" pos="156"/>
          <note pan="0" key="76" len="12" vol="100" pos="168"/>
          <note pan="0" key="80" len="12" vol="100" pos="180"/>
        </pattern>
        <pattern steps="16" muted="0" pos="37440" name="" type="1">
          <note pan="0" key="71" len="12" vol="197" pos="0"/>
          <note pan="0" key="0" len="12" vol="100" pos="0"/>
          <note pan="0" key="73" len="12" vol="197" pos="12"/>
          <note pan="0" key="71" len="12" vol="197" pos="24"/>
          <note pan="0" key="68" len="12" vol="197" pos="36"/>
          <note pan="0" key="1" len="12" vol="100" pos="36"/>
          <note pan="0" key="69" len="12" vol="197" pos="48"/>
          <note pan="0" key="64" len="12" vol="197" pos="60"/>
          <note pan="0" key="68" len="12" vol="197" pos="72"/>
          <note pan="0" key="0" len="12" vol="100" pos="72"/>
          <note pan="0" key="69" len="12" vol="197" pos="84"/>
          <note pan="0" key="75" len="12" vol="197" pos="96"/>
          <note pan="0" key="0" len="12" vol="100" pos="96"/>
          <note pan="0" key="76" len="12" vol="197" pos="108"/>
          <note pan="0" key="75" len="12" vol="197" pos="120"/>
          <note pan="0" key="73" len="12" vol="197" pos="132"/>
          <note pan="0" key="1" len="12" vol="100" pos="132"/>
          <note pan="0" key="75" len="12" vol="197" pos="144"/>
          <note pan="0" key="69" len="12" vol="197" pos="156"/>
          <note pan="0" key="71" len="12" vol="197" pos="168"/>
          <note pan="0" key="0" len="12" vol="100" pos="168"/>
          <note pan="0" key="73" len="12" vol="197" pos="180"/>
        </pattern>
        <pattern steps="16" muted="0" pos="34752" name="" type="1">
          <note pan="0" key="80" len="12" vol="95" pos="96"/>
          <note pan="0" key="0" len="12" vol="95" pos="96"/>
          <note pan="0" key="81" len="12" vol="95" pos="108"/>
          <note pan="0" key="80" len="12" vol="95" pos="120"/>
          <note pan="0" key="78" len="12" vol="95" pos="132"/>
          <note pan="0" key="1" len="12" vol="95" pos="132"/>
          <note pan="0" key="80" len="12" vol="95" pos="144"/>
          <note pan="0" key="0" len="12" vol="95" pos="144"/>
          <note pan="0" key="78" len="12" vol="95" pos="156"/>
          <note pan="0" key="1" len="12" vol="95" pos="156"/>
          <note pan="0" key="76" len="12" vol="95" pos="168"/>
          <note pan="0" key="75" len="12" vol="95" pos="180"/>
        </pattern>
        <pattern steps="16" muted="0" pos="37632" name="" type="1">
          <note pan="0" key="68" len="12" vol="197" pos="0"/>
          <note pan="0" key="1" len="12" vol="197" pos="0"/>
          <note pan="0" key="69" len="12" vol="197" pos="12"/>
          <note pan="0" key="68" len="12" vol="197" pos="24"/>
          <note pan="0" key="66" len="12" vol="197" pos="36"/>
          <note pan="0" key="69" len="12" vol="197" pos="48"/>
          <note pan="0" key="71" len="12" vol="197" pos="60"/>
          <note pan="0" key="69" len="12" vol="197" pos="72"/>
          <note pan="0" key="68" len="12" vol="197" pos="84"/>
          <note pan="0" key="71" len="12" vol="197" pos="96"/>
          <note pan="0" key="0" len="12" vol="197" pos="96"/>
          <note pan="0" key="73" len="12" vol="197" pos="108"/>
          <note pan="0" key="71" len="12" vol="197" pos="120"/>
          <note pan="0" key="1" len="12" vol="197" pos="120"/>
          <note pan="0" key="69" len="12" vol="197" pos="132"/>
          <note pan="0" key="73" len="12" vol="197" pos="144"/>
          <note pan="0" key="0" len="12" vol="197" pos="144"/>
          <note pan="0" key="75" len="12" vol="197" pos="156"/>
          <note pan="0" key="73" len="12" vol="197" pos="168"/>
          <note pan="0" key="1" len="12" vol="197" pos="168"/>
          <note pan="0" key="71" len="12" vol="197" pos="180"/>
          <note pan="0" key="76" len="12" vol="197" pos="192"/>
          <note pan="0" key="0" len="12" vol="197" pos="192"/>
          <note pan="0" key="73" len="12" vol="197" pos="204"/>
          <note pan="0" key="75" len="12" vol="197" pos="216"/>
          <note pan="0" key="1" len="12" vol="197" pos="216"/>
          <note pan="0" key="76" len="12" vol="197" pos="228"/>
          <note pan="0" key="78" len="12" vol="197" pos="240"/>
          <note pan="0" key="0" len="12" vol="197" pos="240"/>
          <note pan="0" key="75" len="12" vol="197" pos="252"/>
          <note pan="0" key="76" len="12" vol="197" pos="264"/>
          <note pan="0" key="1" len="12" vol="197" pos="264"/>
          <note pan="0" key="78" len="12" vol="197" pos="276"/>
          <note pan="0" key="81" len="12" vol="197" pos="288"/>
          <note pan="0" key="0" len="12" vol="197" pos="288"/>
          <note pan="0" key="80" len="12" vol="197" pos="300"/>
          <note pan="0" key="81" len="12" vol="197" pos="312"/>
          <note pan="0" key="83" len="12" vol="197" pos="324"/>
          <note pan="0" key="87" len="12" vol="197" pos="336"/>
          <note pan="0" key="0" len="12" vol="197" pos="336"/>
          <note pan="0" key="83" len="12" vol="197" pos="348"/>
          <note pan="0" key="78" len="12" vol="197" pos="360"/>
          <note pan="0" key="1" len="12" vol="197" pos="360"/>
          <note pan="0" key="75" len="12" vol="197" pos="372"/>
        </pattern>
        <pattern steps="16" muted="0" pos="38784" name="" type="1">
          <note pan="0" key="66" len="12" vol="100" pos="0"/>
          <note pan="0" key="1" len="12" vol="100" pos="0"/>
          <note pan="0" key="68" len="12" vol="100" pos="12"/>
          <note pan="0" key="69" len="12" vol="100" pos="24"/>
          <note pan="0" key="71" len="12" vol="100" pos="36"/>
          <note pan="0" key="73" len="12" vol="100" pos="48"/>
          <note pan="0" key="0" len="12" vol="100" pos="48"/>
          <note pan="0" key="71" len="12" vol="100" pos="60"/>
          <note pan="0" key="69" len="12" vol="100" pos="72"/>
          <note pan="0" key="1" len="12" vol="100" pos="72"/>
          <note pan="0" key="68" len="12" vol="100" pos="84"/>
          <note pan="0" key="69" len="12" vol="100" pos="96"/>
          <note pan="0" key="71" len="12" vol="100" pos="108"/>
          <note pan="0" key="73" len="12" vol="100" pos="120"/>
          <note pan="0" key="75" len="12" vol="100" pos="132"/>
          <note pan="0" key="76" len="12" vol="100" pos="144"/>
          <note pan="0" key="0" len="12" vol="100" pos="144"/>
          <note pan="0" key="75" len="12" vol="100" pos="156"/>
          <note pan="0" key="73" len="12" vol="100" pos="168"/>
          <note pan="0" key="1" len="12" vol="100" pos="168"/>
          <note pan="0" key="71" len="12" vol="100" pos="180"/>
          <note pan="0" key="73" len="12" vol="100" pos="192"/>
          <note pan="0" key="75" len="12" vol="100" pos="204"/>
          <note pan="0" key="76" len="12" vol="100" pos="216"/>
          <note pan="0" key="78" len="12" vol="100" pos="228"/>
          <note pan="0" key="80" len="12" vol="100" pos="240"/>
          <note pan="0" key="0" len="12" vol="100" pos="240"/>
          <note pan="0" key="78" len="12" vol="100" pos="252"/>
          <note pan="0" key="76" len="12" vol="100" pos="264"/>
          <note pan="0" key="1" len="12" vol="100" pos="264"/>
          <note pan="0" key="75" len="12" vol="100" pos="276"/>
          <note pan="0" key="81" len="12" vol="100" pos="288"/>
          <note pan="0" key="0" len="12" vol="100" pos="288"/>
          <note pan="0" key="80" len="12" vol="100" pos="300"/>
          <note pan="0" key="78" len="12" vol="100" pos="312"/>
          <note pan="0" key="76" len="12" vol="100" pos="324"/>
          <note pan="0" key="83" len="12" vol="100" pos="336"/>
          <note pan="0" key="81" len="12" vol="100" pos="348"/>
          <note pan="0" key="80" len="12" vol="100" pos="360"/>
          <note pan="0" key="78" len="12" vol="100" pos="372"/>
        </pattern>
        <pattern steps="16" muted="0" pos="39168" name="" type="1">
          <note pan="0" key="82" len="24" vol="78" pos="0"/>
          <note pan="0" key="0" len="24" vol="78" pos="0"/>
          <note pan="0" key="79" len="24" vol="78" pos="24"/>
          <note pan="0" key="75" len="24" vol="78" pos="48"/>
          <note pan="0" key="79" len="24" vol="78" pos="72"/>
          <note pan="0" key="75" len="24" vol="78" pos="96"/>
          <note pan="0" key="70" len="24" vol="78" pos="120"/>
          <note pan="0" key="75" len="24" vol="78" pos="144"/>
          <note pan="0" key="79" len="24" vol="78" pos="168"/>
          <note pan="0" key="80" len="48" vol="78" pos="192"/>
          <note pan="0" key="84" len="48" vol="78" pos="240"/>
          <note pan="0" key="85" len="48" vol="78" pos="288"/>
          <note pan="0" key="87" len="48" vol="78" pos="336"/>
        </pattern>
        <pattern steps="16" muted="0" pos="43200" name="" type="1">
          <note pan="0" key="0" len="72" vol="78" pos="0"/>
          <note pan="0" key="75" len="144" vol="78" pos="960"/>
          <note pan="0" key="78" len="48" vol="78" pos="1104"/>
          <note pan="0" key="77" len="144" vol="78" pos="1152"/>
          <note pan="0" key="82" len="48" vol="78" pos="1296"/>
          <note pan="0" key="82" len="144" vol="78" pos="1344"/>
          <note pan="0" key="80" len="24" vol="78" pos="1488"/>
          <note pan="0" key="78" len="24" vol="78" pos="1512"/>
          <note pan="0" key="77" len="48" vol="78" pos="1536"/>
          <note pan="0" key="78" len="48" vol="78" pos="1584"/>
          <note pan="0" key="73" len="48" vol="78" pos="1632"/>
          <note pan="0" key="70" len="48" vol="78" pos="1680"/>
          <note pan="0" key="71" len="96" vol="78" pos="1728"/>
          <note pan="0" key="75" len="48" vol="78" pos="1824"/>
          <note pan="0" key="78" len="48" vol="78" pos="1872"/>
          <note pan="0" key="78" len="96" vol="78" pos="1920"/>
          <note pan="0" key="77" len="48" vol="78" pos="2016"/>
          <note pan="0" key="78" len="48" vol="78" pos="2064"/>
          <note pan="0" key="85" len="72" vol="78" pos="2112"/>
          <note pan="0" key="83" len="72" vol="78" pos="2184"/>
          <note pan="0" key="82" len="48" vol="78" pos="2256"/>
          <note pan="0" key="80" len="192" vol="78" pos="2304"/>
          <note pan="0" key="78" len="72" vol="78" pos="2496"/>
          <note pan="0" key="77" len="72" vol="78" pos="2568"/>
          <note pan="0" key="78" len="48" vol="78" pos="2640"/>
          <note pan="0" key="82" len="144" vol="78" pos="2688"/>
          <note pan="0" key="77" len="48" vol="78" pos="2832"/>
          <note pan="0" key="75" len="240" vol="78" pos="2880"/>
          <note pan="0" key="78" len="48" vol="78" pos="3120"/>
          <note pan="0" key="80" len="48" vol="78" pos="3168"/>
          <note pan="0" key="82" len="48" vol="78" pos="3216"/>
          <note pan="0" key="83" len="72" vol="78" pos="3264"/>
          <note pan="0" key="82" len="72" vol="78" pos="3336"/>
          <note pan="0" key="80" len="48" vol="78" pos="3408"/>
          <note pan="0" key="78" len="48" vol="78" pos="3456"/>
          <note pan="0" key="75" len="48" vol="78" pos="3504"/>
          <note pan="0" key="78" len="48" vol="78" pos="3552"/>
          <note pan="0" key="82" len="48" vol="78" pos="3600"/>
          <note pan="0" key="80" len="192" vol="78" pos="3648"/>
          <note pan="0" key="73" len="12" vol="106" pos="3840"/>
          <note pan="0" key="71" len="12" vol="106" pos="3852"/>
          <note pan="0" key="70" len="12" vol="106" pos="3864"/>
          <note pan="0" key="68" len="12" vol="106" pos="3876"/>
          <note pan="0" key="71" len="12" vol="106" pos="3888"/>
          <note pan="0" key="70" len="12" vol="106" pos="3900"/>
          <note pan="0" key="68" len="12" vol="106" pos="3912"/>
          <note pan="0" key="66" len="12" vol="106" pos="3924"/>
          <note pan="0" key="70" len="12" vol="106" pos="3936"/>
          <note pan="0" key="68" len="12" vol="106" pos="3948"/>
          <note pan="0" key="66" len="12" vol="106" pos="3960"/>
          <note pan="0" key="65" len="12" vol="106" pos="3972"/>
          <note pan="0" key="68" len="12" vol="106" pos="3984"/>
          <note pan="0" key="66" len="12" vol="106" pos="3996"/>
          <note pan="0" key="65" len="12" vol="106" pos="4008"/>
          <note pan="0" key="66" len="12" vol="106" pos="4020"/>
        </pattern>
        <pattern steps="16" muted="0" pos="40320" name="" type="1">
          <note pan="0" key="69" len="12" vol="78" pos="0"/>
          <note pan="0" key="1" len="48" vol="200" pos="0"/>
          <note pan="0" key="68" len="12" vol="78" pos="12"/>
          <note pan="0" key="66" len="12" vol="78" pos="24"/>
          <note pan="0" key="68" len="12" vol="78" pos="36"/>
          <note pan="0" key="69" len="12" vol="78" pos="48"/>
          <note pan="0" key="68" len="12" vol="78" pos="60"/>
          <note pan="0" key="66" len="12" vol="78" pos="72"/>
          <note pan="0" key="68" len="12" vol="78" pos="84"/>
          <note pan="0" key="73" len="12" vol="78" pos="96"/>
          <note pan="0" key="71" len="12" vol="78" pos="108"/>
          <note pan="0" key="69" len="12" vol="78" pos="120"/>
          <note pan="0" key="71" len="12" vol="78" pos="132"/>
          <note pan="0" key="73" len="12" vol="78" pos="144"/>
          <note pan="0" key="75" len="12" vol="78" pos="156"/>
          <note pan="0" key="76" len="12" vol="78" pos="168"/>
          <note pan="0" key="75" len="12" vol="78" pos="180"/>
          <note pan="0" key="76" len="12" vol="78" pos="192"/>
          <note pan="0" key="75" len="12" vol="78" pos="204"/>
          <note pan="0" key="73" len="12" vol="78" pos="216"/>
          <note pan="0" key="75" len="12" vol="78" pos="228"/>
          <note pan="0" key="76" len="12" vol="78" pos="240"/>
          <note pan="0" key="0" len="48" vol="200" pos="240"/>
          <note pan="0" key="75" len="12" vol="78" pos="252"/>
          <note pan="0" key="73" len="12" vol="78" pos="264"/>
          <note pan="0" key="75" len="12" vol="78" pos="276"/>
          <note pan="0" key="76" len="12" vol="78" pos="288"/>
          <note pan="0" key="78" len="12" vol="78" pos="300"/>
          <note pan="0" key="80" len="12" vol="78" pos="312"/>
          <note pan="0" key="81" len="12" vol="78" pos="324"/>
          <note pan="0" key="83" len="12" vol="78" pos="336"/>
          <note pan="0" key="76" len="12" vol="78" pos="348"/>
          <note pan="0" key="1" len="12" vol="200" pos="348"/>
          <note pan="0" key="75" len="12" vol="78" pos="360"/>
          <note pan="0" key="76" len="12" vol="78" pos="372"/>
        </pattern>
        <pattern steps="16" muted="0" pos="40704" name="" type="1">
          <note pan="0" key="83" len="48" vol="78" pos="0"/>
          <note pan="0" key="0" len="48" vol="100" pos="0"/>
          <note pan="0" key="81" len="12" vol="78" pos="48"/>
          <note pan="0" key="83" len="12" vol="78" pos="60"/>
          <note pan="0" key="81" len="48" vol="78" pos="72"/>
          <note pan="0" key="80" len="12" vol="78" pos="120"/>
          <note pan="0" key="81" len="12" vol="78" pos="132"/>
          <note pan="0" key="80" len="12" vol="78" pos="144"/>
          <note pan="0" key="0" len="12" vol="78" pos="144"/>
          <note pan="0" key="78" len="12" vol="78" pos="156"/>
          <note pan="0" key="1" len="12" vol="78" pos="156"/>
          <note pan="0" key="76" len="12" vol="78" pos="168"/>
          <note pan="0" key="80" len="12" vol="78" pos="180"/>
          <note pan="0" key="78" len="48" vol="78" pos="192"/>
          <note pan="0" key="0" len="12" vol="78" pos="192"/>
          <note pan="0" key="76" len="12" vol="78" pos="240"/>
          <note pan="0" key="1" len="12" vol="78" pos="240"/>
          <note pan="0" key="75" len="12" vol="78" pos="252"/>
          <note pan="0" key="76" len="12" vol="78" pos="264"/>
          <note pan="0" key="78" len="12" vol="78" pos="276"/>
          <note pan="0" key="80" len="12" vol="78" pos="288"/>
          <note pan="0" key="0" len="12" vol="78" pos="288"/>
          <note pan="0" key="81" len="12" vol="78" pos="300"/>
          <note pan="0" key="80" len="12" vol="78" pos="312"/>
          <note pan="0" key="78" len="12" vol="78" pos="324"/>
          <note pan="0" key="80" len="12" vol="78" pos="336"/>
          <note pan="0" key="78" len="12" vol="78" pos="348"/>
          <note pan="0" key="76" len="12" vol="78" pos="360"/>
          <note pan="0" key="1" len="12" vol="78" pos="360"/>
          <note pan="0" key="75" len="12" vol="78" pos="372"/>
        </pattern>
        <pattern steps="16" muted="0" pos="41088" name="" type="1">
          <note pan="0" key="80" len="12" vol="78" pos="0"/>
          <note pan="0" key="0" len="12" vol="78" pos="0"/>
          <note pan="0" key="76" len="12" vol="78" pos="12"/>
          <note pan="0" key="75" len="12" vol="78" pos="24"/>
          <note pan="0" key="1" len="12" vol="78" pos="24"/>
          <note pan="0" key="76" len="12" vol="78" pos="36"/>
          <note pan="0" key="73" len="12" vol="78" pos="48"/>
          <note pan="0" key="76" len="12" vol="78" pos="60"/>
          <note pan="0" key="75" len="12" vol="78" pos="72"/>
          <note pan="0" key="76" len="12" vol="78" pos="84"/>
          <note pan="0" key="80" len="12" vol="78" pos="96"/>
          <note pan="0" key="0" len="12" vol="78" pos="96"/>
          <note pan="0" key="76" len="12" vol="78" pos="108"/>
          <note pan="0" key="75" len="12" vol="78" pos="120"/>
          <note pan="0" key="1" len="12" vol="78" pos="120"/>
          <note pan="0" key="76" len="12" vol="78" pos="132"/>
          <note pan="0" key="73" len="12" vol="78" pos="144"/>
          <note pan="0" key="76" len="12" vol="78" pos="156"/>
          <note pan="0" key="75" len="12" vol="78" pos="168"/>
          <note pan="0" key="76" len="12" vol="78" pos="180"/>
          <note pan="0" key="80" len="12" vol="78" pos="192"/>
          <note pan="0" key="0" len="12" vol="78" pos="192"/>
          <note pan="0" key="75" len="12" vol="78" pos="204"/>
          <note pan="0" key="73" len="12" vol="78" pos="216"/>
          <note pan="0" key="1" len="12" vol="78" pos="216"/>
          <note pan="0" key="75" len="12" vol="78" pos="228"/>
          <note pan="0" key="71" len="12" vol="78" pos="240"/>
          <note pan="0" key="75" len="12" vol="78" pos="252"/>
          <note pan="0" key="73" len="12" vol="78" pos="264"/>
          <note pan="0" key="75" len="12" vol="78" pos="276"/>
          <note pan="0" key="80" len="12" vol="78" pos="288"/>
          <note pan="0" key="0" len="12" vol="78" pos="288"/>
          <note pan="0" key="75" len="12" vol="78" pos="300"/>
          <note pan="0" key="73" len="12" vol="78" pos="312"/>
          <note pan="0" key="1" len="12" vol="78" pos="312"/>
          <note pan="0" key="75" len="12" vol="78" pos="324"/>
          <note pan="0" key="71" len="12" vol="78" pos="336"/>
          <note pan="0" key="75" len="12" vol="78" pos="348"/>
          <note pan="0" key="73" len="12" vol="78" pos="360"/>
          <note pan="0" key="75" len="12" vol="78" pos="372"/>
        </pattern>
        <pattern steps="16" muted="0" pos="41472" name="" type="1">
          <note pan="0" key="82" len="12" vol="78" pos="0"/>
          <note pan="0" key="0" len="12" vol="78" pos="0"/>
          <note pan="0" key="78" len="12" vol="78" pos="12"/>
          <note pan="0" key="73" len="12" vol="78" pos="24"/>
          <note pan="0" key="1" len="12" vol="78" pos="24"/>
          <note pan="0" key="78" len="12" vol="78" pos="36"/>
          <note pan="0" key="70" len="12" vol="78" pos="48"/>
          <note pan="0" key="78" len="12" vol="78" pos="60"/>
          <note pan="0" key="73" len="12" vol="78" pos="72"/>
          <note pan="0" key="78" len="12" vol="78" pos="84"/>
          <note pan="0" key="82" len="12" vol="78" pos="96"/>
          <note pan="0" key="78" len="12" vol="78" pos="108"/>
          <note pan="0" key="73" len="12" vol="78" pos="120"/>
          <note pan="0" key="78" len="12" vol="78" pos="132"/>
          <note pan="0" key="70" len="12" vol="78" pos="144"/>
          <note pan="0" key="78" len="12" vol="78" pos="156"/>
          <note pan="0" key="73" len="12" vol="78" pos="168"/>
          <note pan="0" key="78" len="12" vol="78" pos="180"/>
        </pattern>
        <pattern steps="16" muted="0" pos="41664" name="" type="1">
          <note pan="0" key="82" len="12" vol="78" pos="0"/>
          <note pan="0" key="0" len="12" vol="78" pos="0"/>
          <note pan="0" key="78" len="12" vol="78" pos="12"/>
          <note pan="0" key="73" len="12" vol="78" pos="24"/>
          <note pan="0" key="1" len="12" vol="78" pos="24"/>
          <note pan="0" key="70" len="12" vol="78" pos="36"/>
          <note pan="0" key="73" len="12" vol="78" pos="48"/>
          <note pan="0" key="70" len="12" vol="78" pos="60"/>
          <note pan="0" key="66" len="12" vol="78" pos="72"/>
          <note pan="0" key="70" len="12" vol="78" pos="84"/>
          <note pan="0" key="78" len="12" vol="78" pos="96"/>
          <note pan="0" key="73" len="12" vol="78" pos="108"/>
          <note pan="0" key="70" len="12" vol="78" pos="120"/>
          <note pan="0" key="73" len="12" vol="78" pos="132"/>
          <note pan="0" key="78" len="12" vol="78" pos="144"/>
          <note pan="0" key="82" len="12" vol="78" pos="156"/>
          <note pan="0" key="1" len="12" vol="78" pos="156"/>
          <note pan="0" key="85" len="12" vol="78" pos="168"/>
          <note pan="0" key="82" len="12" vol="78" pos="180"/>
        </pattern>
        <pattern steps="16" muted="0" pos="41856" name="" type="1">
          <note pan="0" key="86" len="24" vol="78" pos="0"/>
          <note pan="0" key="0" len="48" vol="78" pos="0"/>
          <note pan="0" key="81" len="24" vol="78" pos="24"/>
          <note pan="0" key="76" len="24" vol="78" pos="48"/>
          <note pan="0" key="83" len="24" vol="78" pos="72"/>
          <note pan="0" key="85" len="24" vol="78" pos="96"/>
          <note pan="0" key="86" len="24" vol="78" pos="120"/>
          <note pan="0" key="85" len="24" vol="78" pos="144"/>
          <note pan="0" key="83" len="24" vol="78" pos="168"/>
          <note pan="0" key="85" len="12" vol="78" pos="192"/>
          <note pan="0" key="0" len="24" vol="78" pos="192"/>
          <note pan="0" key="83" len="12" vol="78" pos="204"/>
          <note pan="0" key="81" len="12" vol="78" pos="216"/>
          <note pan="0" key="1" len="24" vol="78" pos="216"/>
          <note pan="0" key="80" len="12" vol="78" pos="228"/>
          <note pan="0" key="78" len="12" vol="78" pos="240"/>
          <note pan="0" key="80" len="12" vol="78" pos="252"/>
          <note pan="0" key="81" len="12" vol="78" pos="264"/>
          <note pan="0" key="0" len="24" vol="78" pos="264"/>
          <note pan="0" key="80" len="12" vol="78" pos="276"/>
          <note pan="0" key="78" len="12" vol="78" pos="288"/>
          <note pan="0" key="1" len="24" vol="78" pos="288"/>
          <note pan="0" key="76" len="12" vol="78" pos="300"/>
          <note pan="0" key="78" len="12" vol="78" pos="312"/>
          <note pan="0" key="80" len="12" vol="78" pos="324"/>
          <note pan="0" key="85" len="12" vol="78" pos="336"/>
          <note pan="0" key="0" len="24" vol="78" pos="336"/>
          <note pan="0" key="83" len="12" vol="78" pos="348"/>
          <note pan="0" key="81" len="12" vol="78" pos="360"/>
          <note pan="0" key="1" len="24" vol="78" pos="360"/>
          <note pan="0" key="83" len="12" vol="78" pos="372"/>
          <note pan="0" key="87" len="384" vol="78" pos="384"/>
          <note pan="0" key="0" len="24" vol="78" pos="384"/>
        </pattern>
        <pattern steps="16" muted="0" pos="30336" name="" type="1">
          <note pan="0" key="66" len="12" vol="197" pos="0"/>
          <note pan="0" key="1" len="12" vol="197" pos="0"/>
          <note pan="0" key="66" len="12" vol="197" pos="12"/>
          <note pan="0" key="64" len="12" vol="197" pos="24"/>
          <note pan="0" key="64" len="12" vol="197" pos="36"/>
          <note pan="0" key="62" len="12" vol="197" pos="48"/>
          <note pan="0" key="62" len="12" vol="197" pos="60"/>
          <note pan="0" key="69" len="12" vol="197" pos="72"/>
          <note pan="0" key="69" len="12" vol="197" pos="84"/>
          <note pan="0" key="68" len="12" vol="197" pos="96"/>
          <note pan="0" key="68" len="12" vol="197" pos="108"/>
          <note pan="0" key="66" len="12" vol="197" pos="120"/>
          <note pan="0" key="66" len="12" vol="197" pos="132"/>
          <note pan="0" key="68" len="12" vol="197" pos="144"/>
          <note pan="0" key="68" len="12" vol="197" pos="156"/>
          <note pan="0" key="69" len="12" vol="197" pos="168"/>
          <note pan="0" key="69" len="12" vol="197" pos="180"/>
          <note pan="0" key="71" len="48" vol="197" pos="192"/>
          <note pan="0" key="0" len="48" vol="197" pos="192"/>
          <note pan="0" key="69" len="12" vol="197" pos="240"/>
          <note pan="0" key="2" len="12" vol="197" pos="240"/>
          <note pan="0" key="71" len="12" vol="197" pos="252"/>
          <note pan="0" key="73" len="12" vol="197" pos="264"/>
          <note pan="0" key="0" len="12" vol="197" pos="264"/>
          <note pan="0" key="74" len="12" vol="197" pos="276"/>
          <note pan="0" key="76" len="12" vol="197" pos="288"/>
          <note pan="0" key="0" len="12" vol="197" pos="288"/>
          <note pan="0" key="74" len="12" vol="197" pos="300"/>
          <note pan="0" key="1" len="12" vol="197" pos="300"/>
          <note pan="0" key="73" len="12" vol="197" pos="312"/>
          <note pan="0" key="74" len="12" vol="197" pos="324"/>
          <note pan="0" key="78" len="12" vol="197" pos="336"/>
          <note pan="0" key="0" len="12" vol="197" pos="336"/>
          <note pan="0" key="76" len="12" vol="197" pos="348"/>
          <note pan="0" key="1" len="12" vol="197" pos="348"/>
          <note pan="0" key="74" len="12" vol="197" pos="360"/>
          <note pan="0" key="76" len="12" vol="197" pos="372"/>
          <note pan="0" key="76" len="24" vol="197" pos="384"/>
          <note pan="0" key="0" len="24" vol="197" pos="384"/>
          <note pan="0" key="78" len="24" vol="197" pos="408"/>
          <note pan="0" key="74" len="48" vol="197" pos="456"/>
          <note pan="0" key="1" len="24" vol="197" pos="480"/>
          <note pan="0" key="71" len="12" vol="197" pos="504"/>
          <note pan="0" key="71" len="12" vol="197" pos="516"/>
          <note pan="0" key="74" len="12" vol="197" pos="528"/>
          <note pan="0" key="74" len="12" vol="197" pos="540"/>
          <note pan="0" key="76" len="12" vol="197" pos="552"/>
          <note pan="0" key="76" len="12" vol="197" pos="564"/>
          <note pan="0" key="80" len="24" vol="197" pos="576"/>
          <note pan="0" key="78" len="12" vol="197" pos="600"/>
          <note pan="0" key="80" len="12" vol="197" pos="612"/>
          <note pan="0" key="81" len="24" vol="197" pos="624"/>
          <note pan="0" key="80" len="12" vol="197" pos="648"/>
          <note pan="0" key="81" len="12" vol="197" pos="660"/>
          <note pan="0" key="85" len="12" vol="197" pos="672"/>
          <note pan="0" key="83" len="12" vol="197" pos="684"/>
          <note pan="0" key="81" len="12" vol="197" pos="696"/>
          <note pan="0" key="80" len="12" vol="197" pos="708"/>
          <note pan="0" key="78" len="12" vol="197" pos="720"/>
          <note pan="0" key="76" len="12" vol="197" pos="732"/>
          <note pan="0" key="74" len="12" vol="197" pos="744"/>
          <note pan="0" key="73" len="12" vol="197" pos="756"/>
        </pattern>
        <pattern steps="16" muted="0" pos="53376" name="" type="1">
          <note pan="0" key="75" len="192" vol="197" pos="0"/>
          <note pan="0" key="0" len="384" vol="197" pos="0"/>
          <note pan="0" key="73" len="192" vol="197" pos="192"/>
          <note pan="0" key="70" len="288" vol="197" pos="384"/>
          <note pan="0" key="70" len="96" vol="197" pos="672"/>
          <note pan="0" key="82" len="192" vol="197" pos="768"/>
          <note pan="0" key="80" len="192" vol="197" pos="960"/>
          <note pan="0" key="75" len="384" vol="197" pos="1152"/>
          <note pan="0" key="75" len="192" vol="197" pos="1536"/>
          <note pan="0" key="77" len="192" vol="197" pos="1728"/>
          <note pan="0" key="78" len="192" vol="197" pos="1920"/>
          <note pan="0" key="82" len="96" vol="197" pos="2112"/>
          <note pan="0" key="80" len="96" vol="197" pos="2208"/>
          <note pan="0" key="80" len="192" vol="197" pos="2304"/>
          <note pan="0" key="75" len="144" vol="197" pos="2496"/>
          <note pan="0" key="75" len="24" vol="197" pos="2640"/>
          <note pan="0" key="77" len="24" vol="197" pos="2664"/>
          <note pan="0" key="78" len="192" vol="197" pos="2688"/>
          <note pan="0" key="80" len="96" vol="197" pos="2880"/>
          <note pan="0" key="85" len="96" vol="197" pos="2976"/>
          <note pan="0" key="87" len="384" vol="197" pos="3072"/>
        </pattern>
        <pattern steps="16" muted="0" pos="62400" name="" type="1">
          <note pan="0" key="82" len="12" vol="95" pos="96"/>
          <note pan="0" key="0" len="12" vol="95" pos="96"/>
          <note pan="0" key="83" len="12" vol="95" pos="108"/>
          <note pan="0" key="82" len="12" vol="95" pos="120"/>
          <note pan="0" key="80" len="12" vol="95" pos="132"/>
          <note pan="0" key="1" len="12" vol="95" pos="132"/>
          <note pan="0" key="82" len="12" vol="95" pos="144"/>
          <note pan="0" key="0" len="12" vol="95" pos="144"/>
          <note pan="0" key="80" len="12" vol="95" pos="156"/>
          <note pan="0" key="1" len="12" vol="95" pos="156"/>
          <note pan="0" key="78" len="12" vol="95" pos="168"/>
          <note pan="0" key="77" len="12" vol="95" pos="180"/>
        </pattern>
        <pattern steps="16" muted="0" pos="62592" name="" type="1">
          <note pan="0" key="75" len="144" vol="197" pos="0"/>
          <note pan="0" key="0" len="12" vol="197" pos="0"/>
          <note pan="0" key="78" len="48" vol="197" pos="144"/>
          <note pan="0" key="77" len="144" vol="197" pos="192"/>
          <note pan="0" key="82" len="48" vol="197" pos="336"/>
          <note pan="0" key="82" len="144" vol="197" pos="384"/>
          <note pan="0" key="80" len="24" vol="197" pos="528"/>
          <note pan="0" key="78" len="24" vol="197" pos="552"/>
          <note pan="0" key="77" len="48" vol="197" pos="576"/>
          <note pan="0" key="78" len="48" vol="197" pos="624"/>
          <note pan="0" key="73" len="12" vol="197" pos="672"/>
          <note pan="0" key="1" len="12" vol="197" pos="672"/>
          <note pan="0" key="75" len="12" vol="197" pos="684"/>
          <note pan="0" key="73" len="12" vol="197" pos="696"/>
          <note pan="0" key="70" len="12" vol="197" pos="708"/>
          <note pan="0" key="73" len="12" vol="197" pos="720"/>
          <note pan="0" key="70" len="12" vol="197" pos="732"/>
          <note pan="0" key="68" len="12" vol="197" pos="744"/>
          <note pan="0" key="70" len="12" vol="197" pos="756"/>
          <note pan="0" key="71" len="96" vol="197" pos="768"/>
          <note pan="0" key="0" len="12" vol="197" pos="768"/>
          <note pan="0" key="75" len="48" vol="197" pos="864"/>
          <note pan="0" key="78" len="48" vol="197" pos="912"/>
          <note pan="0" key="78" len="96" vol="197" pos="960"/>
          <note pan="0" key="77" len="48" vol="197" pos="1056"/>
          <note pan="0" key="78" len="48" vol="197" pos="1104"/>
          <note pan="0" key="78" len="12" vol="197" pos="1152"/>
          <note pan="0" key="0" len="12" vol="200" pos="1152"/>
          <note pan="0" key="75" len="12" vol="197" pos="1164"/>
          <note pan="0" key="77" len="12" vol="197" pos="1176"/>
          <note pan="0" key="78" len="12" vol="197" pos="1188"/>
          <note pan="0" key="80" len="12" vol="197" pos="1200"/>
          <note pan="0" key="77" len="12" vol="197" pos="1212"/>
          <note pan="0" key="78" len="12" vol="197" pos="1224"/>
          <note pan="0" key="80" len="12" vol="197" pos="1236"/>
          <note pan="0" key="82" len="12" vol="197" pos="1248"/>
          <note pan="0" key="78" len="12" vol="197" pos="1260"/>
          <note pan="0" key="80" len="12" vol="197" pos="1272"/>
          <note pan="0" key="82" len="12" vol="197" pos="1284"/>
          <note pan="0" key="83" len="12" vol="197" pos="1296"/>
          <note pan="0" key="80" len="12" vol="197" pos="1308"/>
          <note pan="0" key="82" len="12" vol="197" pos="1320"/>
          <note pan="0" key="83" len="12" vol="197" pos="1332"/>
          <note pan="0" key="85" len="12" vol="197" pos="1344"/>
          <note pan="0" key="83" len="12" vol="197" pos="1356"/>
          <note pan="0" key="82" len="12" vol="197" pos="1368"/>
          <note pan="0" key="80" len="12" vol="197" pos="1380"/>
          <note pan="0" key="78" len="12" vol="197" pos="1392"/>
          <note pan="0" key="80" len="12" vol="197" pos="1404"/>
          <note pan="0" key="83" len="12" vol="197" pos="1416"/>
          <note pan="0" key="82" len="12" vol="197" pos="1428"/>
          <note pan="0" key="80" len="12" vol="197" pos="1440"/>
          <note pan="0" key="78" len="12" vol="197" pos="1452"/>
          <note pan="0" key="77" len="12" vol="197" pos="1464"/>
          <note pan="0" key="78" len="12" vol="197" pos="1476"/>
          <note pan="0" key="82" len="12" vol="197" pos="1488"/>
          <note pan="0" key="0" len="12" vol="200" pos="1488"/>
          <note pan="0" key="80" len="12" vol="197" pos="1500"/>
          <note pan="0" key="78" len="12" vol="197" pos="1512"/>
          <note pan="0" key="77" len="12" vol="197" pos="1524"/>
          <note pan="0" key="75" len="12" vol="197" pos="1536"/>
          <note pan="0" key="77" len="12" vol="197" pos="1548"/>
          <note pan="0" key="80" len="12" vol="200" pos="1560"/>
          <note pan="0" key="78" len="12" vol="200" pos="1572"/>
          <note pan="0" key="77" len="12" vol="200" pos="1584"/>
          <note pan="0" key="75" len="12" vol="200" pos="1596"/>
          <note pan="0" key="73" len="12" vol="200" pos="1608"/>
          <note pan="0" key="75" len="12" vol="200" pos="1620"/>
          <note pan="0" key="78" len="12" vol="200" pos="1632"/>
          <note pan="0" key="77" len="12" vol="200" pos="1644"/>
          <note pan="0" key="75" len="12" vol="200" pos="1656"/>
          <note pan="0" key="73" len="12" vol="200" pos="1668"/>
          <note pan="0" key="77" len="12" vol="200" pos="1680"/>
          <note pan="0" key="75" len="12" vol="200" pos="1692"/>
          <note pan="0" key="73" len="12" vol="200" pos="1704"/>
          <note pan="0" key="75" len="12" vol="200" pos="1716"/>
          <note pan="0" key="87" len="192" vol="197" pos="1728"/>
        </pattern>
      </track>
      <track solo="0" mutedBeforeSolo="1" muted="1" name="lgtH2" type="0">
        <instrumenttrack pan="100" basenote="57" pitch="0" usemasterpitch="1" vol="200" pitchrange="1" fxch="13">
          <instrument name="carlapatchbay">
            <carlapatchbay>
              <CARLA-PROJECT VERSION="2.2">
                <EngineSettings>
                  <ForceStereo>false</ForceStereo>
                  <PreferPluginBridges>false</PreferPluginBridges>
                  <PreferUiBridges>true</PreferUiBridges>
                  <UIsAlwaysOnTop>false</UIsAlwaysOnTop>
                  <MaxParameters>200</MaxParameters>
                  <UIBridgesTimeout>4000</UIBridgesTimeout>
                  <LADSPA_PATH>/home/pass/.ladspa:/usr/lib/ladspa:/usr/local/lib/ladspa</LADSPA_PATH>
                  <DSSI_PATH>/home/pass/.dssi:/usr/lib/dssi:/usr/local/lib/dssi</DSSI_PATH>
                  <LV2_PATH>/home/pass/.lv2:/usr/lib/lv2:/usr/local/lib/lv2</LV2_PATH>
                  <VST2_PATH>/home/pass/.vst:/home/pass/.wine/drive_c/Program Files (x86)/VstPlugins:/home/pass/.wine/drive_c/Program Files/VstPlugins:/usr/lib/lxvst:/usr/lib/vst:/usr/local/lib/lxvst:/usr/local/lib/vst/home/pass/.lxvst:/home/pass/vst</VST2_PATH>
                  <VST3_PATH>/home/pass/.vst3:/home/pass/.wine/drive_c/Program Files (x86)/Common Files/VST3:/home/pass/.wine/drive_c/Program Files/Common Files/VST3:/usr/lib/vst3:/usr/local/lib/vst3</VST3_PATH>
                  <SF2_PATH>/home/pass/.sounds/sf2/home/pass/.sounds/sf3:/usr/share/soundfonts:/usr/share/sounds/sf2:/usr/share/sounds/sf3</SF2_PATH>
                  <SFZ_PATH>/home/pass/.sounds/sfz:/home/pass/samples:/usr/share/sounds/sfz</SFZ_PATH>
                </EngineSettings>
                <!-- sfizz -->
                <Plugin>
                  <Info>
                    <Type>LV2</Type>
                    <Name>sfizz</Name>
                    <URI>http://sfztools.github.io/sfizz</URI>
                  </Info>
                  <Data>
                    <Active>Yes</Active>
                    <ControlChannel>1</ControlChannel>
                    <Options>0x3f0</Options>
                    <Parameter>
                      <Index>0</Index>
                      <Name>Volume</Name>
                      <Symbol>volume</Symbol>
                      <Value>0</Value>
                    </Parameter>
                    <Parameter>
                      <Index>1</Index>
                      <Name>Polyphony</Name>
                      <Symbol>num_voices</Symbol>
                      <Value>64</Value>
                    </Parameter>
                    <Parameter>
                      <Index>2</Index>
                      <Name>Internal oversampling factor</Name>
                      <Symbol>oversampling</Symbol>
                      <Value>1</Value>
                    </Parameter>
                    <Parameter>
                      <Index>3</Index>
                      <Name>Preload size</Name>
                      <Symbol>preload_size</Symbol>
                      <Value>8192</Value>
                    </Parameter>
                    <Parameter>
                      <Index>5</Index>
                      <Name>Scala root key</Name>
                      <Symbol>scala_root_key</Symbol>
                      <Value>60</Value>
                    </Parameter>
                    <Parameter>
                      <Index>6</Index>
                      <Name>Tuning frequency</Name>
                      <Symbol>tuning_frequency</Symbol>
                      <Value>440</Value>
                    </Parameter>
                    <Parameter>
                      <Index>7</Index>
                      <Name>Stretched tuning</Name>
                      <Symbol>stretched_tuning</Symbol>
                      <Value>0</Value>
                    </Parameter>
                    <CustomData>
                      <Type>http://lv2plug.in/ns/ext/atom#Path</Type>
                      <Key>http://sfztools.github.io/sfizz:sfzfile</Key>
                      <Value>_fakeguitar2_integrated.sfz</Value>
                    </CustomData>
                    <CustomData>
                      <Type>http://lv2plug.in/ns/ext/atom#Int</Type>
                      <Key>http://sfztools.github.io/sfizz:numvoices</Key>
                      <Value>QAAAAA==</Value>
                    </CustomData>
                    <CustomData>
                      <Type>http://lv2plug.in/ns/ext/atom#Int</Type>
                      <Key>http://sfztools.github.io/sfizz:preload_size</Key>
                      <Value>ACAAAA==</Value>
                    </CustomData>
                    <CustomData>
                      <Type>http://lv2plug.in/ns/ext/atom#Int</Type>
                      <Key>http://sfztools.github.io/sfizz:oversampling</Key>
                      <Value>AQAAAA==</Value>
                    </CustomData>
                    <CustomData>
                      <Type>http://lv2plug.in/ns/ext/atom#Path</Type>
                      <Key>http://sfztools.github.io/sfizz:tuningfile</Key>
                      <Value>DefaultScale.scl</Value>
                    </CustomData>
                  </Data>
                </Plugin>
                <Patchbay>
                  <Connection>
                    <Source>Midi Input:Capture 1</Source>
                    <Target>sfizz:events-in</Target>
                  </Connection>
                  <Connection>
                    <Source>sfizz:Left Output</Source>
                    <Target>Audio Output:Left</Target>
                  </Connection>
                  <Connection>
                    <Source>sfizz:Right Output</Source>
                    <Target>Audio Output:Right</Target>
                  </Connection>
                  <Positions>
                    <Position y1="1353" x1="1693" pluginId="0">
                      <Name>sfizz</Name>
                    </Position>
                  </Positions>
                </Patchbay>
              </CARLA-PROJECT>
              <key/>
            </carlapatchbay>
          </instrument>
          <eldata fcut="14000" fres="0.5" ftype="0" fwet="0">
            <elvol lspd_syncmode="0" amt="0" lshp="0" lpdel="0" att="0" ctlenvamt="0" dec="0.5" userwavefile="" x100="0" rel="0.1" sustain="0.5" lspd_numerator="4" latt="0" lspd="0.1" lamt="0" lspd_denominator="4" hold="0.5" pdel="0"/>
            <elcut lspd_syncmode="0" amt="0" lshp="0" lpdel="0" att="0" ctlenvamt="0" dec="0.5" userwavefile="" x100="0" rel="0.1" sustain="0.5" lspd_numerator="4" latt="0" lspd="0.1" lamt="0" lspd_denominator="4" hold="0.5" pdel="0"/>
            <elres lspd_syncmode="0" amt="0" lshp="0" lpdel="0" att="0" ctlenvamt="0" dec="0.5" userwavefile="" x100="0" rel="0.1" sustain="0.5" lspd_numerator="4" latt="0" lspd="0.1" lamt="0" lspd_denominator="4" hold="0.5" pdel="0"/>
          </eldata>
          <chordcreator chordrange="1" chord-enabled="0" chord="0"/>
          <arpeggiator arprange="1" arpmode="0" arpcycle="0" arptime_syncmode="0" arptime_numerator="4" arpgate="100" arptime="200" arpskip="0" arpmiss="0" arp="0" arptime_denominator="4" arp-enabled="0" arpdir="0"/>
          <midiport inputcontroller="0" outputcontroller="0" readable="0" outputchannel="1" fixedoutputvelocity="-1" outputprogram="1" fixedinputvelocity="-1" fixedoutputnote="-1" inputchannel="0" basevelocity="63" writable="0"/>
          <fxchain enabled="0" numofeffects="0"/>
        </instrumenttrack>
        <pattern steps="16" muted="0" pos="5376" name="" type="1">
          <note pan="0" key="68" len="24" vol="78" pos="0"/>
          <note pan="0" key="0" len="24" vol="78" pos="0"/>
          <note pan="0" key="71" len="24" vol="78" pos="24"/>
          <note pan="0" key="68" len="24" vol="78" pos="48"/>
          <note pan="0" key="75" len="48" vol="78" pos="72"/>
          <note pan="0" key="68" len="24" vol="78" pos="120"/>
          <note pan="0" key="71" len="24" vol="78" pos="144"/>
          <note pan="0" key="75" len="24" vol="78" pos="168"/>
          <note pan="0" key="76" len="24" vol="78" pos="192"/>
          <note pan="0" key="75" len="24" vol="78" pos="216"/>
          <note pan="0" key="73" len="24" vol="78" pos="240"/>
          <note pan="0" key="71" len="24" vol="78" pos="264"/>
          <note pan="0" key="75" len="24" vol="78" pos="288"/>
          <note pan="0" key="73" len="24" vol="78" pos="312"/>
          <note pan="0" key="71" len="24" vol="78" pos="336"/>
          <note pan="0" key="68" len="24" vol="78" pos="360"/>
        </pattern>
        <pattern steps="16" muted="0" pos="6144" name="" type="1">
          <note pan="0" key="75" len="24" vol="78" pos="0"/>
          <note pan="0" key="0" len="24" vol="78" pos="0"/>
          <note pan="0" key="64" len="24" vol="78" pos="24"/>
          <note pan="0" key="68" len="24" vol="78" pos="48"/>
          <note pan="0" key="71" len="48" vol="78" pos="72"/>
          <note pan="0" key="68" len="24" vol="78" pos="120"/>
          <note pan="0" key="71" len="24" vol="78" pos="144"/>
          <note pan="0" key="75" len="24" vol="78" pos="168"/>
          <note pan="0" key="1" len="24" vol="78" pos="180"/>
          <note pan="0" key="73" len="12" vol="78" pos="192"/>
          <note pan="0" key="73" len="12" vol="78" pos="204"/>
          <note pan="0" key="68" len="12" vol="78" pos="216"/>
          <note pan="0" key="68" len="12" vol="78" pos="228"/>
          <note pan="0" key="64" len="12" vol="78" pos="240"/>
          <note pan="0" key="64" len="12" vol="78" pos="252"/>
          <note pan="0" key="61" len="12" vol="78" pos="264"/>
          <note pan="0" key="61" len="12" vol="78" pos="276"/>
          <note pan="0" key="66" len="12" vol="78" pos="288"/>
          <note pan="0" key="66" len="12" vol="78" pos="300"/>
          <note pan="0" key="64" len="12" vol="78" pos="312"/>
          <note pan="0" key="64" len="12" vol="78" pos="324"/>
          <note pan="0" key="68" len="12" vol="78" pos="336"/>
          <note pan="0" key="68" len="12" vol="78" pos="348"/>
          <note pan="0" key="64" len="12" vol="78" pos="360"/>
          <note pan="0" key="64" len="12" vol="78" pos="372"/>
          <note pan="0" key="0" len="24" vol="78" pos="384"/>
        </pattern>
        <pattern steps="16" muted="0" pos="7104" name="" type="1">
          <note pan="0" key="0" len="72" vol="78" pos="0"/>
          <note pan="0" key="64" len="48" vol="78" pos="96"/>
          <note pan="0" key="68" len="48" vol="78" pos="144"/>
          <note pan="0" key="68" len="96" vol="78" pos="192"/>
          <note pan="0" key="68" len="24" vol="78" pos="288"/>
          <note pan="0" key="64" len="24" vol="78" pos="312"/>
          <note pan="0" key="68" len="24" vol="78" pos="336"/>
          <note pan="0" key="76" len="168" vol="78" pos="360"/>
          <note pan="0" key="76" len="24" vol="78" pos="528"/>
          <note pan="0" key="75" len="24" vol="78" pos="552"/>
          <note pan="0" key="73" len="48" vol="78" pos="576"/>
          <note pan="0" key="70" len="48" vol="78" pos="624"/>
          <note pan="0" key="66" len="48" vol="78" pos="672"/>
          <note pan="0" key="63" len="48" vol="78" pos="720"/>
          <note pan="0" key="66" len="96" vol="78" pos="768"/>
          <note pan="0" key="64" len="96" vol="78" pos="864"/>
          <note pan="0" key="68" len="144" vol="78" pos="960"/>
          <note pan="0" key="73" len="48" vol="78" pos="1104"/>
          <note pan="0" key="71" len="144" vol="78" pos="1152"/>
          <note pan="0" key="76" len="48" vol="78" pos="1296"/>
          <note pan="0" key="76" len="144" vol="78" pos="1344"/>
          <note pan="0" key="75" len="24" vol="78" pos="1488"/>
          <note pan="0" key="73" len="24" vol="78" pos="1512"/>
          <note pan="0" key="71" len="48" vol="78" pos="1536"/>
          <note pan="0" key="73" len="48" vol="78" pos="1584"/>
          <note pan="0" key="68" len="48" vol="78" pos="1632"/>
          <note pan="0" key="64" len="48" vol="78" pos="1680"/>
          <note pan="0" key="66" len="96" vol="78" pos="1728"/>
          <note pan="0" key="69" len="48" vol="78" pos="1824"/>
          <note pan="0" key="73" len="48" vol="78" pos="1872"/>
          <note pan="0" key="73" len="96" vol="78" pos="1920"/>
          <note pan="0" key="71" len="48" vol="78" pos="2016"/>
          <note pan="0" key="73" len="48" vol="78" pos="2064"/>
          <note pan="0" key="80" len="72" vol="78" pos="2112"/>
          <note pan="0" key="78" len="72" vol="78" pos="2184"/>
          <note pan="0" key="76" len="48" vol="78" pos="2256"/>
          <note pan="0" key="75" len="192" vol="78" pos="2304"/>
          <note pan="0" key="73" len="72" vol="78" pos="2496"/>
          <note pan="0" key="71" len="72" vol="78" pos="2568"/>
          <note pan="0" key="73" len="48" vol="78" pos="2640"/>
          <note pan="0" key="76" len="144" vol="78" pos="2688"/>
          <note pan="0" key="71" len="48" vol="78" pos="2832"/>
          <note pan="0" key="70" len="240" vol="78" pos="2880"/>
          <note pan="0" key="73" len="48" vol="78" pos="3120"/>
          <note pan="0" key="75" len="48" vol="78" pos="3168"/>
          <note pan="0" key="76" len="48" vol="78" pos="3216"/>
          <note pan="0" key="78" len="72" vol="78" pos="3264"/>
          <note pan="0" key="76" len="72" vol="78" pos="3336"/>
          <note pan="0" key="75" len="48" vol="78" pos="3408"/>
          <note pan="0" key="73" len="48" vol="78" pos="3456"/>
          <note pan="0" key="68" len="48" vol="78" pos="3504"/>
          <note pan="0" key="73" len="48" vol="78" pos="3552"/>
          <note pan="0" key="76" len="48" vol="78" pos="3600"/>
          <note pan="0" key="75" len="192" vol="78" pos="3648"/>
          <note pan="0" key="71" len="96" vol="78" pos="3840"/>
          <note pan="0" key="68" len="96" vol="78" pos="3936"/>
          <note pan="0" key="68" len="384" vol="78" pos="4032"/>
        </pattern>
        <pattern steps="16" muted="0" pos="13056" name="" type="1">
          <note pan="0" key="68" len="24" vol="78" pos="0"/>
          <note pan="0" key="0" len="24" vol="78" pos="0"/>
          <note pan="0" key="71" len="24" vol="78" pos="24"/>
          <note pan="0" key="68" len="24" vol="78" pos="48"/>
          <note pan="0" key="75" len="48" vol="78" pos="72"/>
          <note pan="0" key="68" len="24" vol="78" pos="120"/>
          <note pan="0" key="71" len="24" vol="78" pos="144"/>
          <note pan="0" key="75" len="24" vol="78" pos="168"/>
          <note pan="0" key="76" len="24" vol="78" pos="192"/>
          <note pan="0" key="75" len="24" vol="78" pos="216"/>
          <note pan="0" key="73" len="24" vol="78" pos="240"/>
          <note pan="0" key="71" len="24" vol="78" pos="264"/>
          <note pan="0" key="75" len="24" vol="78" pos="288"/>
          <note pan="0" key="73" len="24" vol="78" pos="312"/>
          <note pan="0" key="71" len="24" vol="78" pos="336"/>
          <note pan="0" key="68" len="24" vol="78" pos="360"/>
        </pattern>
        <pattern steps="16" muted="0" pos="13824" name="" type="1">
          <note pan="0" key="75" len="24" vol="78" pos="0"/>
          <note pan="0" key="0" len="12" vol="78" pos="0"/>
          <note pan="0" key="1" len="12" vol="78" pos="12"/>
          <note pan="0" key="64" len="12" vol="78" pos="24"/>
          <note pan="0" key="64" len="12" vol="78" pos="36"/>
          <note pan="0" key="68" len="24" vol="78" pos="48"/>
          <note pan="0" key="0" len="12" vol="78" pos="48"/>
          <note pan="0" key="71" len="48" vol="78" pos="72"/>
          <note pan="0" key="68" len="24" vol="78" pos="120"/>
          <note pan="0" key="71" len="24" vol="78" pos="144"/>
          <note pan="0" key="75" len="24" vol="78" pos="168"/>
          <note pan="0" key="73" len="24" vol="78" pos="192"/>
          <note pan="0" key="68" len="24" vol="78" pos="216"/>
          <note pan="0" key="64" len="24" vol="78" pos="240"/>
          <note pan="0" key="61" len="24" vol="78" pos="264"/>
          <note pan="0" key="66" len="24" vol="78" pos="288"/>
          <note pan="0" key="64" len="24" vol="78" pos="312"/>
          <note pan="0" key="68" len="24" vol="78" pos="336"/>
          <note pan="0" key="64" len="24" vol="78" pos="360"/>
        </pattern>
        <pattern steps="16" muted="0" pos="14784" name="" type="1">
          <note pan="0" key="0" len="72" vol="78" pos="0"/>
          <note pan="0" key="64" len="48" vol="78" pos="96"/>
          <note pan="0" key="68" len="48" vol="78" pos="144"/>
          <note pan="0" key="68" len="96" vol="78" pos="192"/>
          <note pan="0" key="68" len="24" vol="78" pos="288"/>
          <note pan="0" key="64" len="24" vol="78" pos="312"/>
          <note pan="0" key="68" len="24" vol="78" pos="336"/>
          <note pan="0" key="76" len="168" vol="78" pos="360"/>
          <note pan="0" key="76" len="24" vol="78" pos="528"/>
          <note pan="0" key="75" len="24" vol="78" pos="552"/>
          <note pan="0" key="73" len="48" vol="78" pos="576"/>
          <note pan="0" key="70" len="48" vol="78" pos="624"/>
          <note pan="0" key="66" len="48" vol="78" pos="672"/>
          <note pan="0" key="63" len="48" vol="78" pos="720"/>
          <note pan="0" key="66" len="96" vol="78" pos="768"/>
          <note pan="0" key="64" len="96" vol="78" pos="864"/>
          <note pan="0" key="68" len="144" vol="78" pos="960"/>
          <note pan="0" key="73" len="48" vol="78" pos="1104"/>
          <note pan="0" key="71" len="144" vol="78" pos="1152"/>
          <note pan="0" key="76" len="48" vol="78" pos="1296"/>
          <note pan="0" key="76" len="144" vol="78" pos="1344"/>
          <note pan="0" key="75" len="24" vol="78" pos="1488"/>
          <note pan="0" key="73" len="24" vol="78" pos="1512"/>
          <note pan="0" key="71" len="48" vol="78" pos="1536"/>
          <note pan="0" key="73" len="48" vol="78" pos="1584"/>
          <note pan="0" key="68" len="48" vol="78" pos="1632"/>
          <note pan="0" key="64" len="48" vol="78" pos="1680"/>
          <note pan="0" key="66" len="96" vol="78" pos="1728"/>
          <note pan="0" key="69" len="48" vol="78" pos="1824"/>
          <note pan="0" key="73" len="48" vol="78" pos="1872"/>
          <note pan="0" key="73" len="96" vol="78" pos="1920"/>
          <note pan="0" key="71" len="48" vol="78" pos="2016"/>
          <note pan="0" key="73" len="48" vol="78" pos="2064"/>
          <note pan="0" key="80" len="72" vol="78" pos="2112"/>
          <note pan="0" key="78" len="72" vol="78" pos="2184"/>
          <note pan="0" key="76" len="48" vol="78" pos="2256"/>
          <note pan="0" key="75" len="192" vol="78" pos="2304"/>
          <note pan="0" key="73" len="72" vol="78" pos="2496"/>
          <note pan="0" key="71" len="72" vol="78" pos="2568"/>
          <note pan="0" key="73" len="48" vol="78" pos="2640"/>
          <note pan="0" key="76" len="144" vol="78" pos="2688"/>
          <note pan="0" key="71" len="48" vol="78" pos="2832"/>
          <note pan="0" key="70" len="240" vol="78" pos="2880"/>
          <note pan="0" key="73" len="48" vol="78" pos="3120"/>
          <note pan="0" key="75" len="48" vol="78" pos="3168"/>
          <note pan="0" key="76" len="48" vol="78" pos="3216"/>
          <note pan="0" key="78" len="72" vol="78" pos="3264"/>
          <note pan="0" key="76" len="72" vol="78" pos="3336"/>
          <note pan="0" key="75" len="48" vol="78" pos="3408"/>
          <note pan="0" key="73" len="48" vol="78" pos="3456"/>
          <note pan="0" key="68" len="48" vol="78" pos="3504"/>
          <note pan="0" key="73" len="48" vol="78" pos="3552"/>
          <note pan="0" key="76" len="48" vol="78" pos="3600"/>
          <note pan="0" key="75" len="192" vol="78" pos="3648"/>
          <note pan="0" key="71" len="96" vol="78" pos="3840"/>
          <note pan="0" key="68" len="96" vol="78" pos="3936"/>
        </pattern>
        <pattern steps="16" muted="0" pos="18816" name="" type="1">
          <note pan="0" key="68" len="336" vol="78" pos="0"/>
          <note pan="0" key="61" len="48" vol="78" pos="336"/>
          <note pan="0" key="59" len="288" vol="78" pos="384"/>
          <note pan="0" key="52" len="48" vol="78" pos="672"/>
          <note pan="0" key="56" len="48" vol="78" pos="720"/>
          <note pan="0" key="58" len="240" vol="78" pos="768"/>
          <note pan="0" key="56" len="48" vol="78" pos="1008"/>
          <note pan="0" key="58" len="48" vol="78" pos="1056"/>
          <note pan="0" key="64" len="48" vol="78" pos="1104"/>
          <note pan="0" key="62" len="192" vol="78" pos="1152"/>
          <note pan="0" key="66" len="48" vol="78" pos="1344"/>
          <note pan="0" key="64" len="24" vol="78" pos="1392"/>
          <note pan="0" key="64" len="12" vol="78" pos="1416"/>
          <note pan="0" key="66" len="12" vol="78" pos="1424"/>
          <note pan="0" key="64" len="12" vol="78" pos="1432"/>
          <note pan="0" key="63" len="48" vol="78" pos="1440"/>
          <note pan="0" key="64" len="48" vol="78" pos="1488"/>
          <note pan="0" key="61" len="240" vol="78" pos="1536"/>
          <note pan="0" key="56" len="48" vol="78" pos="1776"/>
          <note pan="0" key="61" len="48" vol="78" pos="1824"/>
          <note pan="0" key="64" len="48" vol="78" pos="1872"/>
          <note pan="0" key="64" len="192" vol="78" pos="1920"/>
          <note pan="0" key="63" len="144" vol="78" pos="2112"/>
          <note pan="0" key="64" len="48" vol="78" pos="2256"/>
          <note pan="0" key="56" len="240" vol="78" pos="2304"/>
          <note pan="0" key="52" len="48" vol="78" pos="2544"/>
          <note pan="0" key="56" len="48" vol="78" pos="2592"/>
          <note pan="0" key="64" len="48" vol="78" pos="2640"/>
          <note pan="0" key="68" len="192" vol="78" pos="2688"/>
          <note pan="0" key="68" len="192" vol="78" pos="2880"/>
        </pattern>
        <pattern steps="16" muted="0" pos="30336" name="" type="1">
          <note pan="0" key="69" len="12" vol="197" pos="0"/>
          <note pan="0" key="1" len="12" vol="197" pos="0"/>
          <note pan="0" key="69" len="12" vol="197" pos="12"/>
          <note pan="0" key="68" len="12" vol="197" pos="24"/>
          <note pan="0" key="68" len="12" vol="197" pos="36"/>
          <note pan="0" key="66" len="12" vol="197" pos="48"/>
          <note pan="0" key="66" len="12" vol="197" pos="60"/>
          <note pan="0" key="73" len="12" vol="197" pos="72"/>
          <note pan="0" key="73" len="12" vol="197" pos="84"/>
          <note pan="0" key="71" len="12" vol="197" pos="96"/>
          <note pan="0" key="71" len="12" vol="197" pos="108"/>
          <note pan="0" key="69" len="12" vol="197" pos="120"/>
          <note pan="0" key="69" len="12" vol="197" pos="132"/>
          <note pan="0" key="71" len="12" vol="197" pos="144"/>
          <note pan="0" key="71" len="12" vol="197" pos="156"/>
          <note pan="0" key="73" len="12" vol="197" pos="168"/>
          <note pan="0" key="73" len="12" vol="197" pos="180"/>
          <note pan="0" key="74" len="48" vol="197" pos="192"/>
          <note pan="0" key="0" len="48" vol="197" pos="192"/>
          <note pan="0" key="73" len="12" vol="197" pos="240"/>
          <note pan="0" key="2" len="12" vol="197" pos="240"/>
          <note pan="0" key="74" len="12" vol="197" pos="252"/>
          <note pan="0" key="76" len="12" vol="197" pos="264"/>
          <note pan="0" key="0" len="12" vol="197" pos="264"/>
          <note pan="0" key="78" len="12" vol="197" pos="276"/>
          <note pan="0" key="80" len="12" vol="197" pos="288"/>
          <note pan="0" key="0" len="12" vol="197" pos="288"/>
          <note pan="0" key="78" len="12" vol="197" pos="300"/>
          <note pan="0" key="1" len="12" vol="197" pos="300"/>
          <note pan="0" key="76" len="12" vol="197" pos="312"/>
          <note pan="0" key="78" len="12" vol="197" pos="324"/>
          <note pan="0" key="81" len="12" vol="197" pos="336"/>
          <note pan="0" key="0" len="12" vol="197" pos="336"/>
          <note pan="0" key="80" len="12" vol="197" pos="348"/>
          <note pan="0" key="1" len="12" vol="197" pos="348"/>
          <note pan="0" key="78" len="12" vol="197" pos="360"/>
          <note pan="0" key="80" len="12" vol="197" pos="372"/>
          <note pan="0" key="80" len="24" vol="197" pos="384"/>
          <note pan="0" key="0" len="48" vol="197" pos="384"/>
          <note pan="0" key="81" len="24" vol="197" pos="408"/>
          <note pan="0" key="78" len="48" vol="197" pos="456"/>
          <note pan="0" key="1" len="12" vol="197" pos="492"/>
          <note pan="0" key="74" len="12" vol="197" pos="504"/>
          <note pan="0" key="74" len="12" vol="197" pos="516"/>
          <note pan="0" key="78" len="12" vol="197" pos="528"/>
          <note pan="0" key="78" len="12" vol="197" pos="540"/>
          <note pan="0" key="80" len="12" vol="197" pos="552"/>
          <note pan="0" key="80" len="12" vol="197" pos="564"/>
          <note pan="0" key="83" len="24" vol="197" pos="576"/>
          <note pan="0" key="0" len="24" vol="197" pos="576"/>
          <note pan="0" key="81" len="12" vol="197" pos="600"/>
          <note pan="0" key="83" len="12" vol="197" pos="612"/>
          <note pan="0" key="85" len="24" vol="197" pos="624"/>
          <note pan="0" key="83" len="12" vol="197" pos="648"/>
          <note pan="0" key="85" len="12" vol="197" pos="660"/>
          <note pan="0" key="88" len="12" vol="197" pos="672"/>
          <note pan="0" key="86" len="12" vol="197" pos="684"/>
          <note pan="0" key="85" len="12" vol="197" pos="696"/>
          <note pan="0" key="83" len="12" vol="197" pos="708"/>
          <note pan="0" key="81" len="12" vol="197" pos="720"/>
          <note pan="0" key="80" len="12" vol="197" pos="732"/>
          <note pan="0" key="78" len="12" vol="197" pos="744"/>
          <note pan="0" key="76" len="12" vol="197" pos="756"/>
        </pattern>
        <pattern steps="16" muted="0" pos="34944" name="" type="1">
          <note pan="0" key="68" len="144" vol="78" pos="0"/>
          <note pan="0" key="0" len="12" vol="140" pos="0"/>
          <note pan="0" key="73" len="48" vol="78" pos="144"/>
          <note pan="0" key="71" len="144" vol="78" pos="192"/>
          <note pan="0" key="76" len="48" vol="78" pos="336"/>
          <note pan="0" key="76" len="144" vol="78" pos="384"/>
          <note pan="0" key="75" len="24" vol="78" pos="528"/>
          <note pan="0" key="73" len="24" vol="78" pos="552"/>
          <note pan="0" key="71" len="48" vol="78" pos="576"/>
          <note pan="0" key="73" len="48" vol="78" pos="624"/>
          <note pan="0" key="66" len="12" vol="197" pos="672"/>
          <note pan="0" key="1" len="12" vol="197" pos="672"/>
          <note pan="0" key="68" len="12" vol="197" pos="684"/>
          <note pan="0" key="66" len="12" vol="197" pos="696"/>
          <note pan="0" key="64" len="12" vol="197" pos="708"/>
          <note pan="0" key="66" len="12" vol="197" pos="720"/>
          <note pan="0" key="64" len="12" vol="197" pos="732"/>
          <note pan="0" key="61" len="12" vol="197" pos="744"/>
          <note pan="0" key="64" len="12" vol="197" pos="756"/>
          <note pan="0" key="66" len="96" vol="78" pos="768"/>
          <note pan="0" key="0" len="12" vol="197" pos="768"/>
          <note pan="0" key="69" len="48" vol="78" pos="864"/>
          <note pan="0" key="73" len="48" vol="78" pos="912"/>
          <note pan="0" key="73" len="96" vol="78" pos="960"/>
          <note pan="0" key="71" len="48" vol="78" pos="1056"/>
          <note pan="0" key="73" len="48" vol="78" pos="1104"/>
          <note pan="0" key="73" len="12" vol="197" pos="1152"/>
          <note pan="0" key="0" len="12" vol="200" pos="1152"/>
          <note pan="0" key="69" len="12" vol="197" pos="1164"/>
          <note pan="0" key="71" len="12" vol="197" pos="1176"/>
          <note pan="0" key="73" len="12" vol="197" pos="1188"/>
          <note pan="0" key="75" len="12" vol="197" pos="1200"/>
          <note pan="0" key="71" len="12" vol="197" pos="1212"/>
          <note pan="0" key="73" len="12" vol="197" pos="1224"/>
          <note pan="0" key="75" len="12" vol="197" pos="1236"/>
          <note pan="0" key="76" len="12" vol="197" pos="1248"/>
          <note pan="0" key="73" len="12" vol="197" pos="1260"/>
          <note pan="0" key="75" len="12" vol="197" pos="1272"/>
          <note pan="0" key="76" len="12" vol="197" pos="1284"/>
          <note pan="0" key="78" len="12" vol="197" pos="1296"/>
          <note pan="0" key="75" len="12" vol="197" pos="1308"/>
          <note pan="0" key="76" len="12" vol="197" pos="1320"/>
          <note pan="0" key="78" len="12" vol="197" pos="1332"/>
          <note pan="0" key="80" len="12" vol="200" pos="1344"/>
          <note pan="0" key="78" len="12" vol="200" pos="1356"/>
          <note pan="0" key="76" len="12" vol="200" pos="1368"/>
          <note pan="0" key="75" len="12" vol="200" pos="1380"/>
          <note pan="0" key="78" len="12" vol="200" pos="1392"/>
          <note pan="0" key="76" len="12" vol="200" pos="1404"/>
          <note pan="0" key="75" len="12" vol="200" pos="1416"/>
          <note pan="0" key="73" len="12" vol="200" pos="1428"/>
          <note pan="0" key="76" len="12" vol="200" pos="1440"/>
          <note pan="0" key="0" len="12" vol="200" pos="1440"/>
          <note pan="0" key="75" len="12" vol="200" pos="1452"/>
          <note pan="0" key="76" len="12" vol="200" pos="1464"/>
          <note pan="0" key="78" len="12" vol="200" pos="1476"/>
          <note pan="0" key="83" len="12" vol="200" pos="1488"/>
          <note pan="0" key="2" len="12" vol="200" pos="1488"/>
          <note pan="0" key="78" len="12" vol="200" pos="1500"/>
          <note pan="0" key="83" len="12" vol="200" pos="1512"/>
          <note pan="0" key="78" len="12" vol="200" pos="1524"/>
        </pattern>
        <pattern steps="16" muted="0" pos="31104" name="" type="1">
          <note pan="0" key="80" len="24" vol="197" pos="0"/>
          <note pan="0" key="1" len="24" vol="197" pos="0"/>
          <note pan="0" key="76" len="24" vol="197" pos="24"/>
          <note pan="0" key="78" len="24" vol="197" pos="48"/>
          <note pan="0" key="73" len="24" vol="197" pos="72"/>
          <note pan="0" key="76" len="24" vol="197" pos="96"/>
          <note pan="0" key="73" len="24" vol="197" pos="120"/>
          <note pan="0" key="71" len="24" vol="197" pos="144"/>
          <note pan="0" key="73" len="24" vol="197" pos="168"/>
          <note pan="0" key="76" len="24" vol="197" pos="192"/>
          <note pan="0" key="73" len="24" vol="197" pos="216"/>
          <note pan="0" key="76" len="24" vol="197" pos="240"/>
          <note pan="0" key="78" len="24" vol="197" pos="264"/>
          <note pan="0" key="80" len="24" vol="197" pos="288"/>
          <note pan="0" key="78" len="24" vol="197" pos="312"/>
          <note pan="0" key="76" len="24" vol="197" pos="336"/>
          <note pan="0" key="78" len="24" vol="197" pos="360"/>
        </pattern>
        <pattern steps="16" muted="0" pos="31488" name="" type="1">
          <note pan="0" key="68" len="12" vol="197" pos="0"/>
          <note pan="0" key="0" len="24" vol="197" pos="0"/>
          <note pan="0" key="66" len="12" vol="197" pos="12"/>
          <note pan="0" key="1" len="24" vol="197" pos="12"/>
          <note pan="0" key="68" len="12" vol="197" pos="24"/>
          <note pan="0" key="69" len="12" vol="197" pos="36"/>
          <note pan="0" key="71" len="12" vol="197" pos="48"/>
          <note pan="0" key="0" len="12" vol="197" pos="48"/>
          <note pan="0" key="68" len="12" vol="197" pos="60"/>
          <note pan="0" key="1" len="12" vol="197" pos="60"/>
          <note pan="0" key="69" len="12" vol="197" pos="72"/>
          <note pan="0" key="71" len="12" vol="197" pos="84"/>
          <note pan="0" key="73" len="12" vol="197" pos="96"/>
          <note pan="0" key="0" len="12" vol="197" pos="96"/>
          <note pan="0" key="71" len="12" vol="197" pos="108"/>
          <note pan="0" key="1" len="12" vol="197" pos="108"/>
          <note pan="0" key="69" len="12" vol="197" pos="120"/>
          <note pan="0" key="71" len="12" vol="197" pos="132"/>
          <note pan="0" key="73" len="12" vol="197" pos="144"/>
          <note pan="0" key="75" len="12" vol="197" pos="156"/>
          <note pan="0" key="76" len="12" vol="197" pos="168"/>
          <note pan="0" key="78" len="12" vol="197" pos="180"/>
          <note pan="0" key="78" len="12" vol="197" pos="192"/>
          <note pan="0" key="75" len="12" vol="197" pos="204"/>
          <note pan="0" key="71" len="12" vol="197" pos="216"/>
          <note pan="0" key="66" len="12" vol="197" pos="228"/>
          <note pan="0" key="63" len="12" vol="197" pos="240"/>
          <note pan="0" key="66" len="12" vol="197" pos="252"/>
          <note pan="0" key="83" len="12" vol="197" pos="264"/>
          <note pan="0" key="75" len="12" vol="197" pos="276"/>
          <note pan="0" key="71" len="12" vol="197" pos="288"/>
          <note pan="0" key="66" len="12" vol="197" pos="300"/>
          <note pan="0" key="71" len="12" vol="197" pos="312"/>
          <note pan="0" key="75" len="12" vol="197" pos="324"/>
          <note pan="0" key="78" len="12" vol="197" pos="336"/>
          <note pan="0" key="75" len="12" vol="197" pos="348"/>
          <note pan="0" key="71" len="12" vol="197" pos="360"/>
          <note pan="0" key="75" len="12" vol="197" pos="372"/>
        </pattern>
        <pattern steps="16" muted="0" pos="31872" name="" type="1">
          <note pan="0" key="80" len="240" vol="100" pos="0"/>
          <note pan="0" key="0" len="108" vol="100" pos="0"/>
        </pattern>
        <pattern steps="16" muted="0" pos="37056" name="" type="1">
          <note pan="0" key="76" len="12" vol="197" pos="0"/>
          <note pan="0" key="0" len="12" vol="197" pos="0"/>
          <note pan="0" key="59" len="12" vol="197" pos="12"/>
          <note pan="0" key="2" len="12" vol="197" pos="12"/>
          <note pan="0" key="59" len="12" vol="197" pos="24"/>
          <note pan="0" key="0" len="12" vol="197" pos="24"/>
          <note pan="0" key="75" len="12" vol="197" pos="36"/>
          <note pan="0" key="0" len="12" vol="197" pos="36"/>
          <note pan="0" key="59" len="12" vol="197" pos="48"/>
          <note pan="0" key="2" len="12" vol="197" pos="48"/>
          <note pan="0" key="59" len="12" vol="197" pos="60"/>
          <note pan="0" key="0" len="12" vol="197" pos="60"/>
          <note pan="0" key="76" len="12" vol="197" pos="72"/>
          <note pan="0" key="0" len="12" vol="197" pos="72"/>
          <note pan="0" key="59" len="12" vol="197" pos="84"/>
          <note pan="0" key="2" len="12" vol="197" pos="84"/>
          <note pan="0" key="59" len="12" vol="197" pos="96"/>
          <note pan="0" key="0" len="12" vol="197" pos="96"/>
          <note pan="0" key="75" len="12" vol="197" pos="108"/>
          <note pan="0" key="0" len="12" vol="197" pos="108"/>
          <note pan="0" key="59" len="12" vol="197" pos="120"/>
          <note pan="0" key="2" len="12" vol="197" pos="120"/>
          <note pan="0" key="59" len="12" vol="197" pos="132"/>
          <note pan="0" key="0" len="12" vol="197" pos="132"/>
          <note pan="0" key="80" len="12" vol="197" pos="144"/>
          <note pan="0" key="0" len="12" vol="197" pos="144"/>
          <note pan="0" key="59" len="12" vol="197" pos="156"/>
          <note pan="0" key="2" len="12" vol="197" pos="156"/>
          <note pan="0" key="78" len="12" vol="197" pos="168"/>
          <note pan="0" key="0" len="12" vol="197" pos="168"/>
          <note pan="0" key="59" len="12" vol="197" pos="180"/>
          <note pan="0" key="2" len="12" vol="197" pos="180"/>
        </pattern>
        <pattern steps="16" muted="0" pos="37248" name="" type="1">
          <note pan="0" key="73" len="12" vol="100" pos="0"/>
          <note pan="0" key="0" len="48" vol="100" pos="0"/>
          <note pan="0" key="71" len="12" vol="100" pos="12"/>
          <note pan="0" key="68" len="12" vol="100" pos="24"/>
          <note pan="0" key="1" len="12" vol="100" pos="24"/>
          <note pan="0" key="66" len="12" vol="100" pos="36"/>
          <note pan="0" key="64" len="12" vol="100" pos="48"/>
          <note pan="0" key="61" len="12" vol="100" pos="60"/>
          <note pan="0" key="64" len="12" vol="100" pos="72"/>
          <note pan="0" key="68" len="12" vol="100" pos="84"/>
          <note pan="0" key="73" len="12" vol="100" pos="96"/>
          <note pan="0" key="0" len="12" vol="100" pos="96"/>
          <note pan="0" key="71" len="12" vol="100" pos="108"/>
          <note pan="0" key="68" len="12" vol="100" pos="120"/>
          <note pan="0" key="1" len="12" vol="100" pos="120"/>
          <note pan="0" key="66" len="12" vol="100" pos="132"/>
          <note pan="0" key="64" len="12" vol="100" pos="144"/>
          <note pan="0" key="61" len="12" vol="100" pos="156"/>
          <note pan="0" key="64" len="12" vol="100" pos="168"/>
          <note pan="0" key="68" len="12" vol="100" pos="180"/>
        </pattern>
        <pattern steps="16" muted="0" pos="37440" name="" type="1">
          <note pan="0" key="75" len="12" vol="197" pos="0"/>
          <note pan="0" key="0" len="12" vol="100" pos="0"/>
          <note pan="0" key="76" len="12" vol="197" pos="12"/>
          <note pan="0" key="75" len="12" vol="197" pos="24"/>
          <note pan="0" key="71" len="12" vol="197" pos="36"/>
          <note pan="0" key="1" len="12" vol="100" pos="36"/>
          <note pan="0" key="73" len="12" vol="197" pos="48"/>
          <note pan="0" key="68" len="12" vol="197" pos="60"/>
          <note pan="0" key="71" len="12" vol="197" pos="72"/>
          <note pan="0" key="0" len="12" vol="100" pos="72"/>
          <note pan="0" key="73" len="12" vol="197" pos="84"/>
          <note pan="0" key="78" len="12" vol="197" pos="96"/>
          <note pan="0" key="0" len="12" vol="100" pos="96"/>
          <note pan="0" key="80" len="12" vol="197" pos="108"/>
          <note pan="0" key="78" len="12" vol="197" pos="120"/>
          <note pan="0" key="76" len="12" vol="197" pos="132"/>
          <note pan="0" key="1" len="12" vol="100" pos="132"/>
          <note pan="0" key="78" len="12" vol="197" pos="144"/>
          <note pan="0" key="73" len="12" vol="197" pos="156"/>
          <note pan="0" key="75" len="12" vol="197" pos="168"/>
          <note pan="0" key="0" len="12" vol="100" pos="168"/>
          <note pan="0" key="76" len="12" vol="197" pos="180"/>
        </pattern>
        <pattern steps="16" muted="0" pos="34752" name="" type="1">
          <note pan="0" key="76" len="12" vol="95" pos="96"/>
          <note pan="0" key="0" len="12" vol="95" pos="96"/>
          <note pan="0" key="78" len="12" vol="95" pos="108"/>
          <note pan="0" key="76" len="12" vol="95" pos="120"/>
          <note pan="0" key="75" len="12" vol="95" pos="132"/>
          <note pan="0" key="1" len="12" vol="95" pos="132"/>
          <note pan="0" key="76" len="12" vol="95" pos="144"/>
          <note pan="0" key="0" len="12" vol="95" pos="144"/>
          <note pan="0" key="75" len="12" vol="95" pos="156"/>
          <note pan="0" key="1" len="12" vol="95" pos="156"/>
          <note pan="0" key="73" len="12" vol="95" pos="168"/>
          <note pan="0" key="72" len="12" vol="95" pos="180"/>
        </pattern>
        <pattern steps="16" muted="0" pos="37632" name="" type="1">
          <note pan="0" key="64" len="12" vol="197" pos="0"/>
          <note pan="0" key="1" len="12" vol="197" pos="0"/>
          <note pan="0" key="66" len="12" vol="197" pos="12"/>
          <note pan="0" key="64" len="12" vol="197" pos="24"/>
          <note pan="0" key="63" len="12" vol="197" pos="36"/>
          <note pan="0" key="66" len="12" vol="197" pos="48"/>
          <note pan="0" key="68" len="12" vol="197" pos="60"/>
          <note pan="0" key="66" len="12" vol="197" pos="72"/>
          <note pan="0" key="64" len="12" vol="197" pos="84"/>
          <note pan="0" key="68" len="12" vol="197" pos="96"/>
          <note pan="0" key="0" len="12" vol="197" pos="96"/>
          <note pan="0" key="69" len="12" vol="197" pos="108"/>
          <note pan="0" key="68" len="12" vol="197" pos="120"/>
          <note pan="0" key="1" len="12" vol="197" pos="120"/>
          <note pan="0" key="66" len="12" vol="197" pos="132"/>
          <note pan="0" key="69" len="12" vol="197" pos="144"/>
          <note pan="0" key="0" len="12" vol="197" pos="144"/>
          <note pan="0" key="71" len="12" vol="197" pos="156"/>
          <note pan="0" key="69" len="12" vol="197" pos="168"/>
          <note pan="0" key="1" len="12" vol="197" pos="168"/>
          <note pan="0" key="68" len="12" vol="197" pos="180"/>
          <note pan="0" key="73" len="12" vol="197" pos="192"/>
          <note pan="0" key="0" len="12" vol="197" pos="192"/>
          <note pan="0" key="69" len="12" vol="197" pos="204"/>
          <note pan="0" key="71" len="12" vol="197" pos="216"/>
          <note pan="0" key="1" len="12" vol="197" pos="216"/>
          <note pan="0" key="73" len="12" vol="197" pos="228"/>
          <note pan="0" key="75" len="12" vol="197" pos="240"/>
          <note pan="0" key="0" len="12" vol="197" pos="240"/>
          <note pan="0" key="71" len="12" vol="197" pos="252"/>
          <note pan="0" key="73" len="12" vol="197" pos="264"/>
          <note pan="0" key="1" len="12" vol="197" pos="264"/>
          <note pan="0" key="75" len="12" vol="197" pos="276"/>
          <note pan="0" key="78" len="12" vol="197" pos="288"/>
          <note pan="0" key="0" len="12" vol="197" pos="288"/>
          <note pan="0" key="76" len="12" vol="197" pos="300"/>
          <note pan="0" key="78" len="12" vol="197" pos="312"/>
          <note pan="0" key="80" len="12" vol="197" pos="324"/>
          <note pan="0" key="83" len="12" vol="197" pos="336"/>
          <note pan="0" key="0" len="12" vol="197" pos="336"/>
          <note pan="0" key="78" len="12" vol="197" pos="348"/>
          <note pan="0" key="75" len="12" vol="197" pos="360"/>
          <note pan="0" key="1" len="12" vol="197" pos="360"/>
          <note pan="0" key="71" len="12" vol="197" pos="372"/>
        </pattern>
        <pattern steps="16" muted="0" pos="38784" name="" type="1">
          <note pan="0" key="63" len="12" vol="100" pos="0"/>
          <note pan="0" key="1" len="12" vol="100" pos="0"/>
          <note pan="0" key="64" len="12" vol="100" pos="12"/>
          <note pan="0" key="66" len="12" vol="100" pos="24"/>
          <note pan="0" key="68" len="12" vol="100" pos="36"/>
          <note pan="0" key="69" len="12" vol="100" pos="48"/>
          <note pan="0" key="0" len="12" vol="100" pos="48"/>
          <note pan="0" key="68" len="12" vol="100" pos="60"/>
          <note pan="0" key="66" len="12" vol="100" pos="72"/>
          <note pan="0" key="1" len="12" vol="100" pos="72"/>
          <note pan="0" key="64" len="12" vol="100" pos="84"/>
          <note pan="0" key="66" len="12" vol="100" pos="96"/>
          <note pan="0" key="68" len="12" vol="100" pos="108"/>
          <note pan="0" key="69" len="12" vol="100" pos="120"/>
          <note pan="0" key="71" len="12" vol="100" pos="132"/>
          <note pan="0" key="73" len="12" vol="100" pos="144"/>
          <note pan="0" key="0" len="12" vol="100" pos="144"/>
          <note pan="0" key="71" len="12" vol="100" pos="156"/>
          <note pan="0" key="69" len="12" vol="100" pos="168"/>
          <note pan="0" key="1" len="12" vol="100" pos="168"/>
          <note pan="0" key="68" len="12" vol="100" pos="180"/>
          <note pan="0" key="69" len="12" vol="100" pos="192"/>
          <note pan="0" key="71" len="12" vol="100" pos="204"/>
          <note pan="0" key="73" len="12" vol="100" pos="216"/>
          <note pan="0" key="75" len="12" vol="100" pos="228"/>
          <note pan="0" key="76" len="12" vol="100" pos="240"/>
          <note pan="0" key="0" len="12" vol="100" pos="240"/>
          <note pan="0" key="75" len="12" vol="100" pos="252"/>
          <note pan="0" key="73" len="12" vol="100" pos="264"/>
          <note pan="0" key="1" len="12" vol="100" pos="264"/>
          <note pan="0" key="71" len="12" vol="100" pos="276"/>
          <note pan="0" key="78" len="12" vol="100" pos="288"/>
          <note pan="0" key="0" len="12" vol="100" pos="288"/>
          <note pan="0" key="76" len="12" vol="100" pos="300"/>
          <note pan="0" key="75" len="12" vol="100" pos="312"/>
          <note pan="0" key="73" len="12" vol="100" pos="324"/>
          <note pan="0" key="80" len="12" vol="100" pos="336"/>
          <note pan="0" key="78" len="12" vol="100" pos="348"/>
          <note pan="0" key="76" len="12" vol="100" pos="360"/>
          <note pan="0" key="75" len="12" vol="100" pos="372"/>
        </pattern>
        <pattern steps="16" muted="0" pos="39168" name="" type="1">
          <note pan="0" key="79" len="24" vol="78" pos="0"/>
          <note pan="0" key="0" len="24" vol="78" pos="0"/>
          <note pan="0" key="75" len="24" vol="78" pos="24"/>
          <note pan="0" key="70" len="24" vol="78" pos="48"/>
          <note pan="0" key="75" len="24" vol="78" pos="72"/>
          <note pan="0" key="70" len="24" vol="78" pos="96"/>
          <note pan="0" key="67" len="24" vol="78" pos="120"/>
          <note pan="0" key="70" len="24" vol="78" pos="144"/>
          <note pan="0" key="75" len="24" vol="78" pos="168"/>
          <note pan="0" key="75" len="48" vol="78" pos="192"/>
          <note pan="0" key="80" len="48" vol="78" pos="240"/>
          <note pan="0" key="81" len="48" vol="78" pos="288"/>
          <note pan="0" key="84" len="48" vol="78" pos="336"/>
        </pattern>
        <pattern steps="16" muted="0" pos="43200" name="" type="1">
          <note pan="0" key="0" len="72" vol="78" pos="0"/>
          <note pan="0" key="70" len="144" vol="78" pos="960"/>
          <note pan="0" key="75" len="48" vol="78" pos="1104"/>
          <note pan="0" key="73" len="144" vol="78" pos="1152"/>
          <note pan="0" key="78" len="48" vol="78" pos="1296"/>
          <note pan="0" key="78" len="144" vol="78" pos="1344"/>
          <note pan="0" key="77" len="24" vol="78" pos="1488"/>
          <note pan="0" key="75" len="24" vol="78" pos="1512"/>
          <note pan="0" key="73" len="48" vol="78" pos="1536"/>
          <note pan="0" key="75" len="48" vol="78" pos="1584"/>
          <note pan="0" key="70" len="48" vol="78" pos="1632"/>
          <note pan="0" key="66" len="48" vol="78" pos="1680"/>
          <note pan="0" key="68" len="96" vol="78" pos="1728"/>
          <note pan="0" key="71" len="48" vol="78" pos="1824"/>
          <note pan="0" key="75" len="48" vol="78" pos="1872"/>
          <note pan="0" key="75" len="96" vol="78" pos="1920"/>
          <note pan="0" key="73" len="48" vol="78" pos="2016"/>
          <note pan="0" key="75" len="48" vol="78" pos="2064"/>
          <note pan="0" key="82" len="72" vol="78" pos="2112"/>
          <note pan="0" key="80" len="72" vol="78" pos="2184"/>
          <note pan="0" key="78" len="48" vol="78" pos="2256"/>
          <note pan="0" key="77" len="192" vol="78" pos="2304"/>
          <note pan="0" key="75" len="72" vol="78" pos="2496"/>
          <note pan="0" key="73" len="72" vol="78" pos="2568"/>
          <note pan="0" key="75" len="48" vol="78" pos="2640"/>
          <note pan="0" key="78" len="144" vol="78" pos="2688"/>
          <note pan="0" key="73" len="48" vol="78" pos="2832"/>
          <note pan="0" key="72" len="240" vol="78" pos="2880"/>
          <note pan="0" key="75" len="48" vol="78" pos="3120"/>
          <note pan="0" key="77" len="48" vol="78" pos="3168"/>
          <note pan="0" key="78" len="48" vol="78" pos="3216"/>
          <note pan="0" key="80" len="72" vol="78" pos="3264"/>
          <note pan="0" key="78" len="72" vol="78" pos="3336"/>
          <note pan="0" key="76" len="48" vol="78" pos="3408"/>
          <note pan="0" key="75" len="48" vol="78" pos="3456"/>
          <note pan="0" key="70" len="48" vol="78" pos="3504"/>
          <note pan="0" key="82" len="48" vol="78" pos="3552"/>
          <note pan="0" key="87" len="48" vol="78" pos="3600"/>
          <note pan="0" key="85" len="192" vol="78" pos="3648"/>
          <note pan="0" key="82" len="12" vol="195" pos="3840"/>
          <note pan="0" key="80" len="12" vol="195" pos="3852"/>
          <note pan="0" key="78" len="12" vol="195" pos="3864"/>
          <note pan="0" key="77" len="12" vol="195" pos="3876"/>
          <note pan="0" key="80" len="12" vol="195" pos="3888"/>
          <note pan="0" key="78" len="12" vol="195" pos="3900"/>
          <note pan="0" key="77" len="12" vol="195" pos="3912"/>
          <note pan="0" key="75" len="12" vol="195" pos="3924"/>
          <note pan="0" key="78" len="12" vol="195" pos="3936"/>
          <note pan="0" key="77" len="12" vol="195" pos="3948"/>
          <note pan="0" key="75" len="12" vol="195" pos="3960"/>
          <note pan="0" key="73" len="12" vol="195" pos="3972"/>
          <note pan="0" key="77" len="12" vol="195" pos="3984"/>
          <note pan="0" key="75" len="12" vol="195" pos="3996"/>
          <note pan="0" key="73" len="12" vol="195" pos="4008"/>
          <note pan="0" key="75" len="12" vol="195" pos="4020"/>
        </pattern>
        <pattern steps="16" muted="0" pos="40320" name="" type="1">
          <note pan="0" key="66" len="12" vol="78" pos="0"/>
          <note pan="0" key="1" len="48" vol="200" pos="0"/>
          <note pan="0" key="64" len="12" vol="78" pos="12"/>
          <note pan="0" key="61" len="12" vol="78" pos="24"/>
          <note pan="0" key="64" len="12" vol="78" pos="36"/>
          <note pan="0" key="66" len="12" vol="78" pos="48"/>
          <note pan="0" key="64" len="12" vol="78" pos="60"/>
          <note pan="0" key="61" len="12" vol="78" pos="72"/>
          <note pan="0" key="64" len="12" vol="78" pos="84"/>
          <note pan="0" key="69" len="12" vol="78" pos="96"/>
          <note pan="0" key="68" len="12" vol="78" pos="108"/>
          <note pan="0" key="66" len="12" vol="78" pos="120"/>
          <note pan="0" key="68" len="12" vol="78" pos="132"/>
          <note pan="0" key="69" len="12" vol="78" pos="144"/>
          <note pan="0" key="71" len="12" vol="78" pos="156"/>
          <note pan="0" key="73" len="12" vol="78" pos="168"/>
          <note pan="0" key="71" len="12" vol="78" pos="180"/>
          <note pan="0" key="73" len="12" vol="78" pos="192"/>
          <note pan="0" key="71" len="12" vol="78" pos="204"/>
          <note pan="0" key="68" len="12" vol="78" pos="216"/>
          <note pan="0" key="71" len="12" vol="78" pos="228"/>
          <note pan="0" key="73" len="12" vol="78" pos="240"/>
          <note pan="0" key="0" len="48" vol="200" pos="240"/>
          <note pan="0" key="71" len="12" vol="78" pos="252"/>
          <note pan="0" key="68" len="12" vol="78" pos="264"/>
          <note pan="0" key="71" len="12" vol="78" pos="276"/>
          <note pan="0" key="73" len="12" vol="78" pos="288"/>
          <note pan="0" key="75" len="12" vol="78" pos="300"/>
          <note pan="0" key="76" len="12" vol="78" pos="312"/>
          <note pan="0" key="78" len="12" vol="78" pos="324"/>
          <note pan="0" key="80" len="12" vol="78" pos="336"/>
          <note pan="0" key="73" len="12" vol="78" pos="348"/>
          <note pan="0" key="1" len="12" vol="200" pos="348"/>
          <note pan="0" key="71" len="12" vol="78" pos="360"/>
          <note pan="0" key="73" len="12" vol="78" pos="372"/>
        </pattern>
        <pattern steps="16" muted="0" pos="40704" name="" type="1">
          <note pan="0" key="80" len="48" vol="78" pos="0"/>
          <note pan="0" key="0" len="48" vol="100" pos="0"/>
          <note pan="0" key="78" len="12" vol="78" pos="48"/>
          <note pan="0" key="80" len="12" vol="78" pos="60"/>
          <note pan="0" key="78" len="48" vol="78" pos="72"/>
          <note pan="0" key="76" len="12" vol="78" pos="120"/>
          <note pan="0" key="78" len="12" vol="78" pos="132"/>
          <note pan="0" key="76" len="12" vol="78" pos="144"/>
          <note pan="0" key="0" len="12" vol="78" pos="144"/>
          <note pan="0" key="75" len="12" vol="78" pos="156"/>
          <note pan="0" key="1" len="12" vol="78" pos="156"/>
          <note pan="0" key="73" len="12" vol="78" pos="168"/>
          <note pan="0" key="76" len="12" vol="78" pos="180"/>
          <note pan="0" key="75" len="48" vol="78" pos="192"/>
          <note pan="0" key="0" len="12" vol="78" pos="192"/>
          <note pan="0" key="73" len="12" vol="78" pos="240"/>
          <note pan="0" key="1" len="12" vol="78" pos="240"/>
          <note pan="0" key="71" len="12" vol="78" pos="252"/>
          <note pan="0" key="73" len="12" vol="78" pos="264"/>
          <note pan="0" key="75" len="12" vol="78" pos="276"/>
          <note pan="0" key="76" len="12" vol="78" pos="288"/>
          <note pan="0" key="0" len="12" vol="78" pos="288"/>
          <note pan="0" key="78" len="12" vol="78" pos="300"/>
          <note pan="0" key="76" len="12" vol="78" pos="312"/>
          <note pan="0" key="75" len="12" vol="78" pos="324"/>
          <note pan="0" key="76" len="12" vol="78" pos="336"/>
          <note pan="0" key="75" len="12" vol="78" pos="348"/>
          <note pan="0" key="73" len="12" vol="78" pos="360"/>
          <note pan="0" key="1" len="12" vol="78" pos="360"/>
          <note pan="0" key="71" len="12" vol="78" pos="372"/>
        </pattern>
        <pattern steps="16" muted="0" pos="41088" name="" type="1">
          <note pan="0" key="76" len="12" vol="78" pos="0"/>
          <note pan="0" key="0" len="12" vol="78" pos="0"/>
          <note pan="0" key="73" len="12" vol="78" pos="12"/>
          <note pan="0" key="71" len="12" vol="78" pos="24"/>
          <note pan="0" key="1" len="12" vol="78" pos="24"/>
          <note pan="0" key="73" len="12" vol="78" pos="36"/>
          <note pan="0" key="68" len="12" vol="78" pos="48"/>
          <note pan="0" key="73" len="12" vol="78" pos="60"/>
          <note pan="0" key="71" len="12" vol="78" pos="72"/>
          <note pan="0" key="73" len="12" vol="78" pos="84"/>
          <note pan="0" key="76" len="12" vol="78" pos="96"/>
          <note pan="0" key="0" len="12" vol="78" pos="96"/>
          <note pan="0" key="73" len="12" vol="78" pos="108"/>
          <note pan="0" key="71" len="12" vol="78" pos="120"/>
          <note pan="0" key="1" len="12" vol="78" pos="120"/>
          <note pan="0" key="73" len="12" vol="78" pos="132"/>
          <note pan="0" key="68" len="12" vol="78" pos="144"/>
          <note pan="0" key="73" len="12" vol="78" pos="156"/>
          <note pan="0" key="71" len="12" vol="78" pos="168"/>
          <note pan="0" key="73" len="12" vol="78" pos="180"/>
          <note pan="0" key="76" len="12" vol="78" pos="192"/>
          <note pan="0" key="0" len="12" vol="78" pos="192"/>
          <note pan="0" key="71" len="12" vol="78" pos="204"/>
          <note pan="0" key="69" len="12" vol="78" pos="216"/>
          <note pan="0" key="1" len="12" vol="78" pos="216"/>
          <note pan="0" key="71" len="12" vol="78" pos="228"/>
          <note pan="0" key="68" len="12" vol="78" pos="240"/>
          <note pan="0" key="71" len="12" vol="78" pos="252"/>
          <note pan="0" key="69" len="12" vol="78" pos="264"/>
          <note pan="0" key="71" len="12" vol="78" pos="276"/>
          <note pan="0" key="76" len="12" vol="78" pos="288"/>
          <note pan="0" key="0" len="12" vol="78" pos="288"/>
          <note pan="0" key="71" len="12" vol="78" pos="300"/>
          <note pan="0" key="69" len="12" vol="78" pos="312"/>
          <note pan="0" key="1" len="12" vol="78" pos="312"/>
          <note pan="0" key="71" len="12" vol="78" pos="324"/>
          <note pan="0" key="68" len="12" vol="78" pos="336"/>
          <note pan="0" key="71" len="12" vol="78" pos="348"/>
          <note pan="0" key="69" len="12" vol="78" pos="360"/>
          <note pan="0" key="71" len="12" vol="78" pos="372"/>
        </pattern>
        <pattern steps="16" muted="0" pos="41472" name="" type="1">
          <note pan="0" key="78" len="12" vol="78" pos="0"/>
          <note pan="0" key="0" len="12" vol="78" pos="0"/>
          <note pan="0" key="73" len="12" vol="78" pos="12"/>
          <note pan="0" key="70" len="12" vol="78" pos="24"/>
          <note pan="0" key="1" len="12" vol="78" pos="24"/>
          <note pan="0" key="73" len="12" vol="78" pos="36"/>
          <note pan="0" key="66" len="12" vol="78" pos="48"/>
          <note pan="0" key="73" len="12" vol="78" pos="60"/>
          <note pan="0" key="70" len="12" vol="78" pos="72"/>
          <note pan="0" key="73" len="12" vol="78" pos="84"/>
          <note pan="0" key="78" len="12" vol="78" pos="96"/>
          <note pan="0" key="73" len="12" vol="78" pos="108"/>
          <note pan="0" key="70" len="12" vol="78" pos="120"/>
          <note pan="0" key="73" len="12" vol="78" pos="132"/>
          <note pan="0" key="66" len="12" vol="78" pos="144"/>
          <note pan="0" key="73" len="12" vol="78" pos="156"/>
          <note pan="0" key="70" len="12" vol="78" pos="168"/>
          <note pan="0" key="73" len="12" vol="78" pos="180"/>
        </pattern>
        <pattern steps="16" muted="0" pos="41664" name="" type="1">
          <note pan="0" key="78" len="12" vol="78" pos="0"/>
          <note pan="0" key="0" len="12" vol="78" pos="0"/>
          <note pan="0" key="73" len="12" vol="78" pos="12"/>
          <note pan="0" key="70" len="12" vol="78" pos="24"/>
          <note pan="0" key="1" len="12" vol="78" pos="24"/>
          <note pan="0" key="66" len="12" vol="78" pos="36"/>
          <note pan="0" key="70" len="12" vol="78" pos="48"/>
          <note pan="0" key="66" len="12" vol="78" pos="60"/>
          <note pan="0" key="61" len="12" vol="78" pos="72"/>
          <note pan="0" key="66" len="12" vol="78" pos="84"/>
          <note pan="0" key="73" len="12" vol="78" pos="96"/>
          <note pan="0" key="70" len="12" vol="78" pos="108"/>
          <note pan="0" key="66" len="12" vol="78" pos="120"/>
          <note pan="0" key="70" len="12" vol="78" pos="132"/>
          <note pan="0" key="73" len="12" vol="78" pos="144"/>
          <note pan="0" key="78" len="12" vol="78" pos="156"/>
          <note pan="0" key="1" len="12" vol="78" pos="156"/>
          <note pan="0" key="82" len="12" vol="78" pos="168"/>
          <note pan="0" key="78" len="12" vol="78" pos="180"/>
        </pattern>
        <pattern steps="16" muted="0" pos="41856" name="" type="1">
          <note pan="0" key="81" len="24" vol="78" pos="0"/>
          <note pan="0" key="0" len="48" vol="78" pos="0"/>
          <note pan="0" key="76" len="24" vol="78" pos="24"/>
          <note pan="0" key="73" len="24" vol="78" pos="48"/>
          <note pan="0" key="80" len="24" vol="78" pos="72"/>
          <note pan="0" key="81" len="24" vol="78" pos="96"/>
          <note pan="0" key="83" len="24" vol="78" pos="120"/>
          <note pan="0" key="81" len="24" vol="78" pos="144"/>
          <note pan="0" key="80" len="24" vol="78" pos="168"/>
          <note pan="0" key="81" len="12" vol="78" pos="192"/>
          <note pan="0" key="0" len="24" vol="78" pos="192"/>
          <note pan="0" key="80" len="12" vol="78" pos="204"/>
          <note pan="0" key="78" len="12" vol="78" pos="216"/>
          <note pan="0" key="1" len="24" vol="78" pos="216"/>
          <note pan="0" key="76" len="12" vol="78" pos="228"/>
          <note pan="0" key="75" len="12" vol="78" pos="240"/>
          <note pan="0" key="76" len="12" vol="78" pos="252"/>
          <note pan="0" key="78" len="12" vol="78" pos="264"/>
          <note pan="0" key="0" len="24" vol="78" pos="264"/>
          <note pan="0" key="76" len="12" vol="78" pos="276"/>
          <note pan="0" key="75" len="12" vol="78" pos="288"/>
          <note pan="0" key="1" len="24" vol="78" pos="288"/>
          <note pan="0" key="73" len="12" vol="78" pos="300"/>
          <note pan="0" key="75" len="12" vol="78" pos="312"/>
          <note pan="0" key="76" len="12" vol="78" pos="324"/>
          <note pan="0" key="81" len="12" vol="78" pos="336"/>
          <note pan="0" key="0" len="24" vol="78" pos="336"/>
          <note pan="0" key="80" len="12" vol="78" pos="348"/>
          <note pan="0" key="78" len="12" vol="78" pos="360"/>
          <note pan="0" key="1" len="24" vol="78" pos="360"/>
          <note pan="0" key="80" len="12" vol="78" pos="372"/>
          <note pan="0" key="83" len="384" vol="78" pos="384"/>
          <note pan="0" key="0" len="24" vol="78" pos="384"/>
        </pattern>
        <pattern steps="16" muted="0" pos="53376" name="" type="1">
          <note pan="0" key="70" len="192" vol="197" pos="0"/>
          <note pan="0" key="0" len="384" vol="197" pos="0"/>
          <note pan="0" key="68" len="192" vol="197" pos="192"/>
          <note pan="0" key="66" len="288" vol="197" pos="384"/>
          <note pan="0" key="66" len="96" vol="197" pos="672"/>
          <note pan="0" key="78" len="192" vol="197" pos="768"/>
          <note pan="0" key="77" len="192" vol="197" pos="960"/>
          <note pan="0" key="72" len="384" vol="197" pos="1152"/>
          <note pan="0" key="71" len="192" vol="197" pos="1536"/>
          <note pan="0" key="73" len="192" vol="197" pos="1728"/>
          <note pan="0" key="75" len="192" vol="197" pos="1920"/>
          <note pan="0" key="70" len="96" vol="197" pos="2112"/>
          <note pan="0" key="68" len="96" vol="197" pos="2208"/>
          <note pan="0" key="68" len="192" vol="197" pos="2304"/>
          <note pan="0" key="63" len="144" vol="197" pos="2496"/>
          <note pan="0" key="63" len="24" vol="197" pos="2640"/>
          <note pan="0" key="65" len="24" vol="197" pos="2664"/>
          <note pan="0" key="66" len="192" vol="197" pos="2688"/>
          <note pan="0" key="68" len="96" vol="197" pos="2880"/>
          <note pan="0" key="73" len="96" vol="197" pos="2976"/>
          <note pan="0" key="75" len="384" vol="197" pos="3072"/>
        </pattern>
        <pattern steps="16" muted="0" pos="62400" name="" type="1">
          <note pan="0" key="78" len="12" vol="95" pos="96"/>
          <note pan="0" key="0" len="12" vol="95" pos="96"/>
          <note pan="0" key="80" len="12" vol="95" pos="108"/>
          <note pan="0" key="78" len="12" vol="95" pos="120"/>
          <note pan="0" key="77" len="12" vol="95" pos="132"/>
          <note pan="0" key="1" len="12" vol="95" pos="132"/>
          <note pan="0" key="78" len="12" vol="95" pos="144"/>
          <note pan="0" key="0" len="12" vol="95" pos="144"/>
          <note pan="0" key="77" len="12" vol="95" pos="156"/>
          <note pan="0" key="1" len="12" vol="95" pos="156"/>
          <note pan="0" key="75" len="12" vol="95" pos="168"/>
          <note pan="0" key="74" len="12" vol="95" pos="180"/>
        </pattern>
        <pattern steps="16" muted="0" pos="62592" name="" type="1">
          <note pan="0" key="70" len="144" vol="78" pos="0"/>
          <note pan="0" key="0" len="12" vol="140" pos="0"/>
          <note pan="0" key="75" len="48" vol="78" pos="144"/>
          <note pan="0" key="73" len="144" vol="78" pos="192"/>
          <note pan="0" key="78" len="48" vol="78" pos="336"/>
          <note pan="0" key="78" len="144" vol="78" pos="384"/>
          <note pan="0" key="77" len="24" vol="78" pos="528"/>
          <note pan="0" key="75" len="24" vol="78" pos="552"/>
          <note pan="0" key="73" len="48" vol="78" pos="576"/>
          <note pan="0" key="75" len="48" vol="78" pos="624"/>
          <note pan="0" key="68" len="12" vol="197" pos="672"/>
          <note pan="0" key="1" len="12" vol="197" pos="672"/>
          <note pan="0" key="70" len="12" vol="197" pos="684"/>
          <note pan="0" key="68" len="12" vol="197" pos="696"/>
          <note pan="0" key="66" len="12" vol="197" pos="708"/>
          <note pan="0" key="68" len="12" vol="197" pos="720"/>
          <note pan="0" key="66" len="12" vol="197" pos="732"/>
          <note pan="0" key="63" len="12" vol="197" pos="744"/>
          <note pan="0" key="66" len="12" vol="197" pos="756"/>
          <note pan="0" key="68" len="96" vol="78" pos="768"/>
          <note pan="0" key="0" len="12" vol="197" pos="768"/>
          <note pan="0" key="71" len="48" vol="78" pos="864"/>
          <note pan="0" key="75" len="48" vol="78" pos="912"/>
          <note pan="0" key="75" len="96" vol="78" pos="960"/>
          <note pan="0" key="73" len="48" vol="78" pos="1056"/>
          <note pan="0" key="75" len="48" vol="78" pos="1104"/>
          <note pan="0" key="75" len="12" vol="197" pos="1152"/>
          <note pan="0" key="0" len="12" vol="200" pos="1152"/>
          <note pan="0" key="71" len="12" vol="197" pos="1164"/>
          <note pan="0" key="73" len="12" vol="197" pos="1176"/>
          <note pan="0" key="75" len="12" vol="197" pos="1188"/>
          <note pan="0" key="77" len="12" vol="197" pos="1200"/>
          <note pan="0" key="73" len="12" vol="197" pos="1212"/>
          <note pan="0" key="75" len="12" vol="197" pos="1224"/>
          <note pan="0" key="77" len="12" vol="197" pos="1236"/>
          <note pan="0" key="78" len="12" vol="197" pos="1248"/>
          <note pan="0" key="75" len="12" vol="197" pos="1260"/>
          <note pan="0" key="77" len="12" vol="197" pos="1272"/>
          <note pan="0" key="78" len="12" vol="197" pos="1284"/>
          <note pan="0" key="80" len="12" vol="197" pos="1296"/>
          <note pan="0" key="77" len="12" vol="197" pos="1308"/>
          <note pan="0" key="78" len="12" vol="197" pos="1320"/>
          <note pan="0" key="80" len="12" vol="197" pos="1332"/>
          <note pan="0" key="82" len="12" vol="197" pos="1344"/>
          <note pan="0" key="80" len="12" vol="197" pos="1356"/>
          <note pan="0" key="78" len="12" vol="197" pos="1368"/>
          <note pan="0" key="77" len="12" vol="197" pos="1380"/>
          <note pan="0" key="75" len="12" vol="197" pos="1392"/>
          <note pan="0" key="77" len="12" vol="197" pos="1404"/>
          <note pan="0" key="80" len="12" vol="197" pos="1416"/>
          <note pan="0" key="78" len="12" vol="197" pos="1428"/>
          <note pan="0" key="77" len="12" vol="197" pos="1440"/>
          <note pan="0" key="0" len="12" vol="200" pos="1440"/>
          <note pan="0" key="75" len="12" vol="197" pos="1452"/>
          <note pan="0" key="73" len="12" vol="197" pos="1464"/>
          <note pan="0" key="75" len="12" vol="197" pos="1476"/>
          <note pan="0" key="78" len="12" vol="197" pos="1488"/>
          <note pan="0" key="77" len="12" vol="197" pos="1500"/>
          <note pan="0" key="75" len="12" vol="197" pos="1512"/>
          <note pan="0" key="73" len="12" vol="197" pos="1524"/>
          <note pan="0" key="71" len="12" vol="197" pos="1536"/>
          <note pan="0" key="73" len="12" vol="197" pos="1548"/>
          <note pan="0" key="77" len="12" vol="200" pos="1560"/>
          <note pan="0" key="75" len="12" vol="200" pos="1572"/>
          <note pan="0" key="73" len="12" vol="200" pos="1584"/>
          <note pan="0" key="71" len="12" vol="200" pos="1596"/>
          <note pan="0" key="70" len="12" vol="200" pos="1608"/>
          <note pan="0" key="71" len="12" vol="200" pos="1620"/>
          <note pan="0" key="75" len="12" vol="200" pos="1632"/>
          <note pan="0" key="73" len="12" vol="200" pos="1644"/>
          <note pan="0" key="71" len="12" vol="200" pos="1656"/>
          <note pan="0" key="70" len="12" vol="200" pos="1668"/>
          <note pan="0" key="73" len="12" vol="200" pos="1680"/>
          <note pan="0" key="71" len="12" vol="200" pos="1692"/>
          <note pan="0" key="70" len="12" vol="200" pos="1704"/>
          <note pan="0" key="71" len="12" vol="200" pos="1716"/>
          <note pan="0" key="82" len="192" vol="197" pos="1728"/>
        </pattern>
      </track>
      <track solo="0" mutedBeforeSolo="0" muted="0" name="ZynAddSubFX" type="0">
        <instrumenttrack pan="0" basenote="57" pitch="0" usemasterpitch="1" vol="84.8" pitchrange="1" fxch="16">
          <instrument name="zynaddsubfx">
            <zynaddsubfx filterq="64" resbandwidth="64" fmgain="127" bandwidth="64" forwardmidicc="1" modifiedcontrollers="" filterfreq="64" portamento="0" rescenterfreq="64">
              <ZynAddSubFX-data version-minor="4" version-revision="1" version-major="2" ZynAddSubFX-author="Nasca Octavian Paul">
                <INFORMATION>
                  <par_bool value="yes" name="PADsynth_used"/>
                </INFORMATION>
                <BASE_PARAMETERS>
                  <par value="16" name="max_midi_parts"/>
                  <par value="16" name="max_kit_items_per_instrument"/>
                  <par value="4" name="max_system_effects"/>
                  <par value="8" name="max_insertion_effects"/>
                  <par value="3" name="max_instrument_effects"/>
                  <par value="8" name="max_addsynth_voices"/>
                </BASE_PARAMETERS>
                <MASTER>
                  <par value="80" name="volume"/>
                  <par value="64" name="key_shift"/>
                  <par_bool value="yes" name="nrpn_receive"/>
                  <MICROTONAL>
                    <string name="name">12tET</string>
                    <string name="comment">Equal Temperament 12 notes per octave</string>
                    <par_bool value="no" name="invert_up_down"/>
                    <par value="60" name="invert_up_down_center"/>
                    <par_bool value="no" name="enabled"/>
                    <par value="64" name="global_fine_detune"/>
                    <par value="69" name="a_note"/>
                    <par_real value="440.000000" name="a_freq"/>
                  </MICROTONAL>
                  <PART id="0">
                    <par_bool value="yes" name="enabled"/>
                    <par value="96" name="volume"/>
                    <par value="64" name="panning"/>
                    <par value="0" name="min_key"/>
                    <par value="127" name="max_key"/>
                    <par value="76" name="key_shift"/>
                    <par value="0" name="rcv_chn"/>
                    <par value="64" name="velocity_sensing"/>
                    <par value="64" name="velocity_offset"/>
                    <par_bool value="yes" name="note_on"/>
                    <par_bool value="yes" name="poly_mode"/>
                    <par value="0" name="legato_mode"/>
                    <par value="15" name="key_limit"/>
                    <INSTRUMENT>
                      <INFO>
                        <string name="name">Full Strings</string>
                        <string name="author">Will Godfrey
GPL V 2 or later</string>
                        <string name="comments">Developed from Paul's Strings Pad5</string>
                        <par value="12" name="type"/>
                      </INFO>
                      <INSTRUMENT_KIT>
                        <par value="1" name="kit_mode"/>
                        <par_bool value="no" name="drum_mode"/>
                        <INSTRUMENT_KIT_ITEM id="0">
                          <par_bool value="yes" name="enabled"/>
                          <string name="name"/>
                          <par_bool value="no" name="muted"/>
                          <par value="0" name="min_key"/>
                          <par value="127" name="max_key"/>
                          <par value="0" name="send_to_instrument_effect"/>
                          <par_bool value="no" name="add_enabled"/>
                          <par_bool value="no" name="sub_enabled"/>
                          <par_bool value="yes" name="pad_enabled"/>
                          <PAD_SYNTH_PARAMETERS>
                            <par_bool value="yes" name="stereo"/>
                            <par value="0" name="mode"/>
                            <par value="620" name="bandwidth"/>
                            <par value="0" name="bandwidth_scale"/>
                            <HARMONIC_PROFILE>
                              <par value="0" name="base_type"/>
                              <par value="99" name="base_par1"/>
                              <par value="8" name="frequency_multiplier"/>
                              <par value="0" name="modulator_par1"/>
                              <par value="55" name="modulator_frequency"/>
                              <par value="127" name="width"/>
                              <par value="0" name="amplitude_multiplier_type"/>
                              <par value="2" name="amplitude_multiplier_mode"/>
                              <par value="80" name="amplitude_multiplier_par1"/>
                              <par value="4" name="amplitude_multiplier_par2"/>
                              <par_bool value="yes" name="autoscale"/>
                              <par value="0" name="one_half"/>
                            </HARMONIC_PROFILE>
                            <OSCIL>
                              <par value="0" name="harmonic_mag_type"/>
                              <par value="4" name="base_function"/>
                              <par value="51" name="base_function_par"/>
                              <par value="0" name="base_function_modulation"/>
                              <par value="64" name="base_function_modulation_par1"/>
                              <par value="64" name="base_function_modulation_par2"/>
                              <par value="32" name="base_function_modulation_par3"/>
                              <par value="0" name="modulation"/>
                              <par value="64" name="modulation_par1"/>
                              <par value="64" name="modulation_par2"/>
                              <par value="32" name="modulation_par3"/>
                              <par value="64" name="wave_shaping"/>
                              <par value="0" name="wave_shaping_function"/>
                              <par value="0" name="filter_type"/>
                              <par value="37" name="filter_par1"/>
                              <par value="64" name="filter_par2"/>
                              <par value="0" name="filter_before_wave_shaping"/>
                              <par value="0" name="spectrum_adjust_type"/>
                              <par value="64" name="spectrum_adjust_par"/>
                              <par value="64" name="rand"/>
                              <par value="0" name="amp_rand_type"/>
                              <par value="64" name="amp_rand_power"/>
                              <par value="0" name="harmonic_shift"/>
                              <par_bool value="no" name="harmonic_shift_first"/>
                              <par value="0" name="adaptive_harmonics"/>
                              <par value="128" name="adaptive_harmonics_base_frequency"/>
                              <par value="100" name="adaptive_harmonics_power"/>
                              <HARMONICS>
                                <HARMONIC id="1">
                                  <par value="83" name="mag"/>
                                  <par value="64" name="phase"/>
                                </HARMONIC>
                                <HARMONIC id="2">
                                  <par value="127" name="mag"/>
                                  <par value="64" name="phase"/>
                                </HARMONIC>
                              </HARMONICS>
                            </OSCIL>
                            <RESONANCE>
                              <par_bool value="no" name="enabled"/>
                            </RESONANCE>
                            <HARMONIC_POSITION>
                              <par value="0" name="type"/>
                              <par value="255" name="parameter1"/>
                              <par value="64" name="parameter2"/>
                              <par value="0" name="parameter3"/>
                            </HARMONIC_POSITION>
                            <SAMPLE_QUALITY>
                              <par value="4" name="samplesize"/>
                              <par value="4" name="basenote"/>
                              <par value="5" name="octaves"/>
                              <par value="2" name="samples_per_octave"/>
                            </SAMPLE_QUALITY>
                            <AMPLITUDE_PARAMETERS>
                              <par value="94" name="volume"/>
                              <par value="67" name="panning"/>
                              <par value="70" name="velocity_sensing"/>
                              <par value="0" name="punch_strength"/>
                              <par value="60" name="punch_time"/>
                              <par value="64" name="punch_stretch"/>
                              <par value="72" name="punch_velocity_sensing"/>
                              <AMPLITUDE_ENVELOPE>
                                <par_bool value="no" name="free_mode"/>
                                <par value="4" name="env_points"/>
                                <par value="2" name="env_sustain"/>
                                <par value="0" name="env_stretch"/>
                                <par_bool value="no" name="forced_release"/>
                                <par_bool value="no" name="linear_envelope"/>
                                <par value="12" name="A_dt"/>
                                <par value="39" name="D_dt"/>
                                <par value="71" name="R_dt"/>
                                <par value="64" name="A_val"/>
                                <par value="64" name="D_val"/>
                                <par value="127" name="S_val"/>
                                <par value="64" name="R_val"/>
                              </AMPLITUDE_ENVELOPE>
                              <AMPLITUDE_LFO>
                                <par_real value="0.629921" name="freq"/>
                                <par value="0" name="intensity"/>
                                <par value="64" name="start_phase"/>
                                <par value="0" name="lfo_type"/>
                                <par value="0" name="randomness_amplitude"/>
                                <par value="0" name="randomness_frequency"/>
                                <par value="0" name="delay"/>
                                <par value="64" name="stretch"/>
                                <par_bool value="no" name="continous"/>
                              </AMPLITUDE_LFO>
                            </AMPLITUDE_PARAMETERS>
                            <FREQUENCY_PARAMETERS>
                              <par value="0" name="fixed_freq"/>
                              <par value="0" name="fixed_freq_et"/>
                              <par value="8192" name="detune"/>
                              <par value="15360" name="coarse_detune"/>
                              <par value="1" name="detune_type"/>
                              <FREQUENCY_ENVELOPE>
                                <par_bool value="no" name="free_mode"/>
                                <par value="3" name="env_points"/>
                                <par value="1" name="env_sustain"/>
                                <par value="0" name="env_stretch"/>
                                <par_bool value="no" name="forced_release"/>
                                <par_bool value="no" name="linear_envelope"/>
                                <par value="50" name="A_dt"/>
                                <par value="10" name="D_dt"/>
                                <par value="60" name="R_dt"/>
                                <par value="64" name="A_val"/>
                                <par value="64" name="D_val"/>
                                <par value="64" name="S_val"/>
                                <par value="64" name="R_val"/>
                              </FREQUENCY_ENVELOPE>
                              <FREQUENCY_LFO>
                                <par_real value="0.621181" name="freq"/>
                                <par value="0" name="intensity"/>
                                <par value="64" name="start_phase"/>
                                <par value="0" name="lfo_type"/>
                                <par value="0" name="randomness_amplitude"/>
                                <par value="0" name="randomness_frequency"/>
                                <par value="0" name="delay"/>
                                <par value="64" name="stretch"/>
                                <par_bool value="no" name="continous"/>
                              </FREQUENCY_LFO>
                            </FREQUENCY_PARAMETERS>
                            <FILTER_PARAMETERS>
                              <par value="25" name="velocity_sensing_amplitude"/>
                              <par value="64" name="velocity_sensing"/>
                              <FILTER>
                                <par value="0" name="category"/>
                                <par value="2" name="type"/>
                                <par value="99" name="freq"/>
                                <par value="28" name="q"/>
                                <par value="1" name="stages"/>
                                <par value="97" name="freq_track"/>
                                <par value="64" name="gain"/>
                              </FILTER>
                              <FILTER_ENVELOPE>
                                <par_bool value="no" name="free_mode"/>
                                <par value="4" name="env_points"/>
                                <par value="2" name="env_sustain"/>
                                <par value="0" name="env_stretch"/>
                                <par_bool value="yes" name="forced_release"/>
                                <par_bool value="no" name="linear_envelope"/>
                                <par value="17" name="A_dt"/>
                                <par value="70" name="D_dt"/>
                                <par value="98" name="R_dt"/>
                                <par value="37" name="A_val"/>
                                <par value="64" name="D_val"/>
                                <par value="64" name="S_val"/>
                                <par value="43" name="R_val"/>
                              </FILTER_ENVELOPE>
                              <FILTER_LFO>
                                <par_real value="0.629921" name="freq"/>
                                <par value="0" name="intensity"/>
                                <par value="64" name="start_phase"/>
                                <par value="0" name="lfo_type"/>
                                <par value="0" name="randomness_amplitude"/>
                                <par value="0" name="randomness_frequency"/>
                                <par value="0" name="delay"/>
                                <par value="64" name="stretch"/>
                                <par_bool value="no" name="continous"/>
                              </FILTER_LFO>
                            </FILTER_PARAMETERS>
                          </PAD_SYNTH_PARAMETERS>
                        </INSTRUMENT_KIT_ITEM>
                        <INSTRUMENT_KIT_ITEM id="1">
                          <par_bool value="no" name="enabled"/>
                        </INSTRUMENT_KIT_ITEM>
                        <INSTRUMENT_KIT_ITEM id="2">
                          <par_bool value="no" name="enabled"/>
                        </INSTRUMENT_KIT_ITEM>
                        <INSTRUMENT_KIT_ITEM id="3">
                          <par_bool value="no" name="enabled"/>
                        </INSTRUMENT_KIT_ITEM>
                        <INSTRUMENT_KIT_ITEM id="4">
                          <par_bool value="no" name="enabled"/>
                        </INSTRUMENT_KIT_ITEM>
                        <INSTRUMENT_KIT_ITEM id="5">
                          <par_bool value="no" name="enabled"/>
                        </INSTRUMENT_KIT_ITEM>
                        <INSTRUMENT_KIT_ITEM id="6">
                          <par_bool value="no" name="enabled"/>
                        </INSTRUMENT_KIT_ITEM>
                        <INSTRUMENT_KIT_ITEM id="7">
                          <par_bool value="no" name="enabled"/>
                        </INSTRUMENT_KIT_ITEM>
                        <INSTRUMENT_KIT_ITEM id="8">
                          <par_bool value="no" name="enabled"/>
                        </INSTRUMENT_KIT_ITEM>
                        <INSTRUMENT_KIT_ITEM id="9">
                          <par_bool value="no" name="enabled"/>
                        </INSTRUMENT_KIT_ITEM>
                        <INSTRUMENT_KIT_ITEM id="10">
                          <par_bool value="no" name="enabled"/>
                        </INSTRUMENT_KIT_ITEM>
                        <INSTRUMENT_KIT_ITEM id="11">
                          <par_bool value="no" name="enabled"/>
                        </INSTRUMENT_KIT_ITEM>
                        <INSTRUMENT_KIT_ITEM id="12">
                          <par_bool value="no" name="enabled"/>
                        </INSTRUMENT_KIT_ITEM>
                        <INSTRUMENT_KIT_ITEM id="13">
                          <par_bool value="no" name="enabled"/>
                        </INSTRUMENT_KIT_ITEM>
                        <INSTRUMENT_KIT_ITEM id="14">
                          <par_bool value="no" name="enabled"/>
                        </INSTRUMENT_KIT_ITEM>
                        <INSTRUMENT_KIT_ITEM id="15">
                          <par_bool value="no" name="enabled"/>
                        </INSTRUMENT_KIT_ITEM>
                      </INSTRUMENT_KIT>
                      <INSTRUMENT_EFFECTS>
                        <INSTRUMENT_EFFECT id="0">
                          <EFFECT>
                            <par value="3" name="type"/>
                            <par value="0" name="preset"/>
                            <EFFECT_PARAMETERS>
                              <par_no id="0">
                                <par value="64" name="par"/>
                              </par_no>
                              <par_no id="1">
                                <par value="64" name="par"/>
                              </par_no>
                              <par_no id="2">
                                <par value="50" name="par"/>
                              </par_no>
                              <par_no id="5">
                                <par value="90" name="par"/>
                              </par_no>
                              <par_no id="6">
                                <par value="40" name="par"/>
                              </par_no>
                              <par_no id="7">
                                <par value="85" name="par"/>
                              </par_no>
                              <par_no id="8">
                                <par value="67" name="par"/>
                              </par_no>
                              <par_no id="9">
                                <par value="119" name="par"/>
                              </par_no>
                            </EFFECT_PARAMETERS>
                          </EFFECT>
                          <par value="0" name="route"/>
                          <par_bool value="no" name="bypass"/>
                        </INSTRUMENT_EFFECT>
                        <INSTRUMENT_EFFECT id="1">
                          <EFFECT>
                            <par value="1" name="type"/>
                            <par value="0" name="preset"/>
                            <EFFECT_PARAMETERS>
                              <par_no id="0">
                                <par value="40" name="par"/>
                              </par_no>
                              <par_no id="1">
                                <par value="64" name="par"/>
                              </par_no>
                              <par_no id="2">
                                <par value="85" name="par"/>
                              </par_no>
                              <par_no id="3">
                                <par value="23" name="par"/>
                              </par_no>
                              <par_no id="7">
                                <par value="85" name="par"/>
                              </par_no>
                              <par_no id="8">
                                <par value="5" name="par"/>
                              </par_no>
                              <par_no id="9">
                                <par value="83" name="par"/>
                              </par_no>
                              <par_no id="10">
                                <par value="1" name="par"/>
                              </par_no>
                              <par_no id="11">
                                <par value="64" name="par"/>
                              </par_no>
                            </EFFECT_PARAMETERS>
                          </EFFECT>
                          <par value="0" name="route"/>
                          <par_bool value="yes" name="bypass"/>
                        </INSTRUMENT_EFFECT>
                        <INSTRUMENT_EFFECT id="2">
                          <EFFECT>
                            <par value="0" name="type"/>
                          </EFFECT>
                          <par value="0" name="route"/>
                          <par_bool value="no" name="bypass"/>
                        </INSTRUMENT_EFFECT>
                      </INSTRUMENT_EFFECTS>
                    </INSTRUMENT>
                    <CONTROLLER>
                      <par value="100" name="pitchwheel_bendrange"/>
                      <par_bool value="yes" name="expression_receive"/>
                      <par value="64" name="panning_depth"/>
                      <par value="64" name="filter_cutoff_depth"/>
                      <par value="64" name="filter_q_depth"/>
                      <par value="64" name="bandwidth_depth"/>
                      <par value="80" name="mod_wheel_depth"/>
                      <par_bool value="no" name="mod_wheel_exponential"/>
                      <par_bool value="yes" name="fm_amp_receive"/>
                      <par_bool value="yes" name="volume_receive"/>
                      <par_bool value="yes" name="sustain_receive"/>
                      <par_bool value="yes" name="portamento_receive"/>
                      <par value="64" name="portamento_time"/>
                      <par value="3" name="portamento_pitchthresh"/>
                      <par value="1" name="portamento_pitchthreshtype"/>
                      <par value="0" name="portamento_portamento"/>
                      <par value="64" name="portamento_updowntimestretch"/>
                      <par value="0" name="portamento_proportional"/>
                      <par value="80" name="portamento_proprate"/>
                      <par value="90" name="portamento_propdepth"/>
                      <par value="64" name="resonance_center_depth"/>
                      <par value="64" name="resonance_bandwidth_depth"/>
                    </CONTROLLER>
                  </PART>
                  <PART id="1">
                    <par_bool value="no" name="enabled"/>
                  </PART>
                  <PART id="2">
                    <par_bool value="no" name="enabled"/>
                  </PART>
                  <PART id="3">
                    <par_bool value="no" name="enabled"/>
                  </PART>
                  <PART id="4">
                    <par_bool value="no" name="enabled"/>
                  </PART>
                  <PART id="5">
                    <par_bool value="no" name="enabled"/>
                  </PART>
                  <PART id="6">
                    <par_bool value="no" name="enabled"/>
                  </PART>
                  <PART id="7">
                    <par_bool value="no" name="enabled"/>
                  </PART>
                  <PART id="8">
                    <par_bool value="no" name="enabled"/>
                  </PART>
                  <PART id="9">
                    <par_bool value="no" name="enabled"/>
                  </PART>
                  <PART id="10">
                    <par_bool value="no" name="enabled"/>
                  </PART>
                  <PART id="11">
                    <par_bool value="no" name="enabled"/>
                  </PART>
                  <PART id="12">
                    <par_bool value="no" name="enabled"/>
                  </PART>
                  <PART id="13">
                    <par_bool value="no" name="enabled"/>
                  </PART>
                  <PART id="14">
                    <par_bool value="no" name="enabled"/>
                  </PART>
                  <PART id="15">
                    <par_bool value="no" name="enabled"/>
                  </PART>
                  <SYSTEM_EFFECTS>
                    <SYSTEM_EFFECT id="0">
                      <EFFECT>
                        <par value="0" name="type"/>
                      </EFFECT>
                      <VOLUME id="0">
                        <par value="0" name="vol"/>
                      </VOLUME>
                      <VOLUME id="1">
                        <par value="0" name="vol"/>
                      </VOLUME>
                      <VOLUME id="2">
                        <par value="0" name="vol"/>
                      </VOLUME>
                      <VOLUME id="3">
                        <par value="0" name="vol"/>
                      </VOLUME>
                      <VOLUME id="4">
                        <par value="0" name="vol"/>
                      </VOLUME>
                      <VOLUME id="5">
                        <par value="0" name="vol"/>
                      </VOLUME>
                      <VOLUME id="6">
                        <par value="0" name="vol"/>
                      </VOLUME>
                      <VOLUME id="7">
                        <par value="0" name="vol"/>
                      </VOLUME>
                      <VOLUME id="8">
                        <par value="0" name="vol"/>
                      </VOLUME>
                      <VOLUME id="9">
                        <par value="0" name="vol"/>
                      </VOLUME>
                      <VOLUME id="10">
                        <par value="0" name="vol"/>
                      </VOLUME>
                      <VOLUME id="11">
                        <par value="0" name="vol"/>
                      </VOLUME>
                      <VOLUME id="12">
                        <par value="0" name="vol"/>
                      </VOLUME>
                      <VOLUME id="13">
                        <par value="0" name="vol"/>
                      </VOLUME>
                      <VOLUME id="14">
                        <par value="0" name="vol"/>
                      </VOLUME>
                      <VOLUME id="15">
                        <par value="0" name="vol"/>
                      </VOLUME>
                      <SENDTO id="1">
                        <par value="0" name="send_vol"/>
                      </SENDTO>
                      <SENDTO id="2">
                        <par value="0" name="send_vol"/>
                      </SENDTO>
                      <SENDTO id="3">
                        <par value="0" name="send_vol"/>
                      </SENDTO>
                    </SYSTEM_EFFECT>
                    <SYSTEM_EFFECT id="1">
                      <EFFECT>
                        <par value="0" name="type"/>
                      </EFFECT>
                      <VOLUME id="0">
                        <par value="0" name="vol"/>
                      </VOLUME>
                      <VOLUME id="1">
                        <par value="0" name="vol"/>
                      </VOLUME>
                      <VOLUME id="2">
                        <par value="0" name="vol"/>
                      </VOLUME>
                      <VOLUME id="3">
                        <par value="0" name="vol"/>
                      </VOLUME>
                      <VOLUME id="4">
                        <par value="0" name="vol"/>
                      </VOLUME>
                      <VOLUME id="5">
                        <par value="0" name="vol"/>
                      </VOLUME>
                      <VOLUME id="6">
                        <par value="0" name="vol"/>
                      </VOLUME>
                      <VOLUME id="7">
                        <par value="0" name="vol"/>
                      </VOLUME>
                      <VOLUME id="8">
                        <par value="0" name="vol"/>
                      </VOLUME>
                      <VOLUME id="9">
                        <par value="0" name="vol"/>
                      </VOLUME>
                      <VOLUME id="10">
                        <par value="0" name="vol"/>
                      </VOLUME>
                      <VOLUME id="11">
                        <par value="0" name="vol"/>
                      </VOLUME>
                      <VOLUME id="12">
                        <par value="0" name="vol"/>
                      </VOLUME>
                      <VOLUME id="13">
                        <par value="0" name="vol"/>
                      </VOLUME>
                      <VOLUME id="14">
                        <par value="0" name="vol"/>
                      </VOLUME>
                      <VOLUME id="15">
                        <par value="0" name="vol"/>
                      </VOLUME>
                      <SENDTO id="2">
                        <par value="0" name="send_vol"/>
                      </SENDTO>
                      <SENDTO id="3">
                        <par value="0" name="send_vol"/>
                      </SENDTO>
                    </SYSTEM_EFFECT>
                    <SYSTEM_EFFECT id="2">
                      <EFFECT>
                        <par value="0" name="type"/>
                      </EFFECT>
                      <VOLUME id="0">
                        <par value="0" name="vol"/>
                      </VOLUME>
                      <VOLUME id="1">
                        <par value="0" name="vol"/>
                      </VOLUME>
                      <VOLUME id="2">
                        <par value="0" name="vol"/>
                      </VOLUME>
                      <VOLUME id="3">
                        <par value="0" name="vol"/>
                      </VOLUME>
                      <VOLUME id="4">
                        <par value="0" name="vol"/>
                      </VOLUME>
                      <VOLUME id="5">
                        <par value="0" name="vol"/>
                      </VOLUME>
                      <VOLUME id="6">
                        <par value="0" name="vol"/>
                      </VOLUME>
                      <VOLUME id="7">
                        <par value="0" name="vol"/>
                      </VOLUME>
                      <VOLUME id="8">
                        <par value="0" name="vol"/>
                      </VOLUME>
                      <VOLUME id="9">
                        <par value="0" name="vol"/>
                      </VOLUME>
                      <VOLUME id="10">
                        <par value="0" name="vol"/>
                      </VOLUME>
                      <VOLUME id="11">
                        <par value="0" name="vol"/>
                      </VOLUME>
                      <VOLUME id="12">
                        <par value="0" name="vol"/>
                      </VOLUME>
                      <VOLUME id="13">
                        <par value="0" name="vol"/>
                      </VOLUME>
                      <VOLUME id="14">
                        <par value="0" name="vol"/>
                      </VOLUME>
                      <VOLUME id="15">
                        <par value="0" name="vol"/>
                      </VOLUME>
                      <SENDTO id="3">
                        <par value="0" name="send_vol"/>
                      </SENDTO>
                    </SYSTEM_EFFECT>
                    <SYSTEM_EFFECT id="3">
                      <EFFECT>
                        <par value="0" name="type"/>
                      </EFFECT>
                      <VOLUME id="0">
                        <par value="0" name="vol"/>
                      </VOLUME>
                      <VOLUME id="1">
                        <par value="0" name="vol"/>
                      </VOLUME>
                      <VOLUME id="2">
                        <par value="0" name="vol"/>
                      </VOLUME>
                      <VOLUME id="3">
                        <par value="0" name="vol"/>
                      </VOLUME>
                      <VOLUME id="4">
                        <par value="0" name="vol"/>
                      </VOLUME>
                      <VOLUME id="5">
                        <par value="0" name="vol"/>
                      </VOLUME>
                      <VOLUME id="6">
                        <par value="0" name="vol"/>
                      </VOLUME>
                      <VOLUME id="7">
                        <par value="0" name="vol"/>
                      </VOLUME>
                      <VOLUME id="8">
                        <par value="0" name="vol"/>
                      </VOLUME>
                      <VOLUME id="9">
                        <par value="0" name="vol"/>
                      </VOLUME>
                      <VOLUME id="10">
                        <par value="0" name="vol"/>
                      </VOLUME>
                      <VOLUME id="11">
                        <par value="0" name="vol"/>
                      </VOLUME>
                      <VOLUME id="12">
                        <par value="0" name="vol"/>
                      </VOLUME>
                      <VOLUME id="13">
                        <par value="0" name="vol"/>
                      </VOLUME>
                      <VOLUME id="14">
                        <par value="0" name="vol"/>
                      </VOLUME>
                      <VOLUME id="15">
                        <par value="0" name="vol"/>
                      </VOLUME>
                    </SYSTEM_EFFECT>
                  </SYSTEM_EFFECTS>
                  <INSERTION_EFFECTS>
                    <INSERTION_EFFECT id="0">
                      <par value="-1" name="part"/>
                      <EFFECT>
                        <par value="0" name="type"/>
                      </EFFECT>
                    </INSERTION_EFFECT>
                    <INSERTION_EFFECT id="1">
                      <par value="-1" name="part"/>
                      <EFFECT>
                        <par value="0" name="type"/>
                      </EFFECT>
                    </INSERTION_EFFECT>
                    <INSERTION_EFFECT id="2">
                      <par value="-1" name="part"/>
                      <EFFECT>
                        <par value="0" name="type"/>
                      </EFFECT>
                    </INSERTION_EFFECT>
                    <INSERTION_EFFECT id="3">
                      <par value="-1" name="part"/>
                      <EFFECT>
                        <par value="0" name="type"/>
                      </EFFECT>
                    </INSERTION_EFFECT>
                    <INSERTION_EFFECT id="4">
                      <par value="-1" name="part"/>
                      <EFFECT>
                        <par value="0" name="type"/>
                      </EFFECT>
                    </INSERTION_EFFECT>
                    <INSERTION_EFFECT id="5">
                      <par value="-1" name="part"/>
                      <EFFECT>
                        <par value="0" name="type"/>
                      </EFFECT>
                    </INSERTION_EFFECT>
                    <INSERTION_EFFECT id="6">
                      <par value="-1" name="part"/>
                      <EFFECT>
                        <par value="0" name="type"/>
                      </EFFECT>
                    </INSERTION_EFFECT>
                    <INSERTION_EFFECT id="7">
                      <par value="-1" name="part"/>
                      <EFFECT>
                        <par value="0" name="type"/>
                      </EFFECT>
                    </INSERTION_EFFECT>
                  </INSERTION_EFFECTS>
                </MASTER>
              </ZynAddSubFX-data>
              <key/>
            </zynaddsubfx>
          </instrument>
          <eldata fcut="14000" fres="0.5" ftype="0" fwet="0">
            <elvol lspd_syncmode="0" amt="0" lshp="0" lpdel="0" att="0" ctlenvamt="0" dec="0.5" userwavefile="" x100="0" rel="0.1" sustain="0.5" lspd_numerator="4" latt="0" lspd="0.1" lamt="0" lspd_denominator="4" hold="0.5" pdel="0"/>
            <elcut lspd_syncmode="0" amt="0" lshp="0" lpdel="0" att="0" ctlenvamt="0" dec="0.5" userwavefile="" x100="0" rel="0.1" sustain="0.5" lspd_numerator="4" latt="0" lspd="0.1" lamt="0" lspd_denominator="4" hold="0.5" pdel="0"/>
            <elres lspd_syncmode="0" amt="0" lshp="0" lpdel="0" att="0" ctlenvamt="0" dec="0.5" userwavefile="" x100="0" rel="0.1" sustain="0.5" lspd_numerator="4" latt="0" lspd="0.1" lamt="0" lspd_denominator="4" hold="0.5" pdel="0"/>
          </eldata>
          <chordcreator chordrange="1" chord-enabled="0" chord="0"/>
          <arpeggiator arprange="1" arpmode="0" arpcycle="0" arptime_syncmode="0" arptime_numerator="4" arpgate="100" arptime="200" arpskip="0" arpmiss="0" arp="0" arptime_denominator="4" arp-enabled="0" arpdir="0"/>
          <midiport inputcontroller="0" outputcontroller="0" readable="0" outputchannel="1" fixedoutputvelocity="-1" outputprogram="1" fixedinputvelocity="-1" fixedoutputnote="-1" inputchannel="0" basevelocity="63" writable="0"/>
          <fxchain enabled="0" numofeffects="0"/>
        </instrumenttrack>
        <pattern steps="16" muted="0" pos="0" name="" type="1">
          <note pan="0" key="61" len="384" vol="193" pos="0"/>
          <note pan="0" key="52" len="384" vol="193" pos="0"/>
          <note pan="0" key="66" len="192" vol="193" pos="192"/>
          <note pan="0" key="64" len="384" vol="193" pos="384"/>
          <note pan="0" key="61" len="384" vol="193" pos="384"/>
          <note pan="0" key="52" len="384" vol="193" pos="384"/>
          <note pan="0" key="63" len="384" vol="193" pos="768"/>
          <note pan="0" key="59" len="384" vol="193" pos="768"/>
          <note pan="0" key="56" len="384" vol="193" pos="768"/>
          <note pan="0" key="61" len="384" vol="193" pos="1152"/>
          <note pan="0" key="56" len="384" vol="193" pos="1152"/>
          <note pan="0" key="49" len="384" vol="193" pos="1152"/>
          <note pan="0" key="59" len="384" vol="193" pos="1536"/>
          <note pan="0" key="57" len="384" vol="193" pos="1536"/>
          <note pan="0" key="49" len="384" vol="193" pos="1536"/>
          <note pan="0" key="64" len="24" vol="193" pos="1920"/>
          <note pan="0" key="61" len="24" vol="193" pos="1920"/>
          <note pan="0" key="56" len="24" vol="193" pos="1920"/>
          <note pan="0" key="64" len="24" vol="193" pos="1992"/>
          <note pan="0" key="61" len="24" vol="193" pos="1992"/>
          <note pan="0" key="56" len="24" vol="193" pos="1992"/>
          <note pan="0" key="64" len="24" vol="193" pos="2064"/>
          <note pan="0" key="61" len="24" vol="193" pos="2064"/>
          <note pan="0" key="56" len="24" vol="193" pos="2064"/>
          <note pan="0" key="64" len="24" vol="193" pos="2136"/>
          <note pan="0" key="61" len="24" vol="193" pos="2136"/>
          <note pan="0" key="56" len="24" vol="193" pos="2136"/>
          <note pan="0" key="64" len="24" vol="193" pos="2208"/>
          <note pan="0" key="61" len="24" vol="193" pos="2208"/>
          <note pan="0" key="56" len="24" vol="193" pos="2208"/>
          <note pan="0" key="64" len="24" vol="193" pos="2232"/>
          <note pan="0" key="61" len="24" vol="193" pos="2232"/>
          <note pan="0" key="56" len="24" vol="193" pos="2232"/>
          <note pan="0" key="64" len="24" vol="193" pos="2280"/>
          <note pan="0" key="61" len="24" vol="193" pos="2280"/>
          <note pan="0" key="56" len="24" vol="193" pos="2280"/>
          <note pan="0" key="63" len="24" vol="193" pos="2304"/>
          <note pan="0" key="59" len="24" vol="193" pos="2304"/>
          <note pan="0" key="56" len="24" vol="193" pos="2304"/>
          <note pan="0" key="63" len="24" vol="193" pos="2376"/>
          <note pan="0" key="59" len="24" vol="193" pos="2376"/>
          <note pan="0" key="56" len="24" vol="193" pos="2376"/>
          <note pan="0" key="63" len="24" vol="193" pos="2448"/>
          <note pan="0" key="59" len="24" vol="193" pos="2448"/>
          <note pan="0" key="56" len="24" vol="193" pos="2448"/>
          <note pan="0" key="63" len="24" vol="193" pos="2520"/>
          <note pan="0" key="59" len="24" vol="193" pos="2520"/>
          <note pan="0" key="56" len="24" vol="193" pos="2520"/>
          <note pan="0" key="63" len="24" vol="193" pos="2592"/>
          <note pan="0" key="59" len="24" vol="193" pos="2592"/>
          <note pan="0" key="56" len="24" vol="193" pos="2592"/>
          <note pan="0" key="63" len="24" vol="193" pos="2616"/>
          <note pan="0" key="59" len="24" vol="193" pos="2616"/>
          <note pan="0" key="56" len="24" vol="193" pos="2616"/>
          <note pan="0" key="63" len="24" vol="193" pos="2664"/>
          <note pan="0" key="59" len="24" vol="193" pos="2664"/>
          <note pan="0" key="56" len="24" vol="193" pos="2664"/>
          <note pan="0" key="61" len="24" vol="193" pos="2688"/>
          <note pan="0" key="58" len="24" vol="193" pos="2688"/>
          <note pan="0" key="61" len="24" vol="193" pos="2760"/>
          <note pan="0" key="58" len="24" vol="193" pos="2760"/>
          <note pan="0" key="61" len="24" vol="193" pos="2832"/>
          <note pan="0" key="58" len="24" vol="193" pos="2832"/>
          <note pan="0" key="61" len="24" vol="193" pos="2904"/>
          <note pan="0" key="58" len="24" vol="193" pos="2904"/>
          <note pan="0" key="61" len="24" vol="193" pos="2976"/>
          <note pan="0" key="58" len="24" vol="193" pos="2976"/>
          <note pan="0" key="61" len="24" vol="193" pos="3000"/>
          <note pan="0" key="58" len="24" vol="193" pos="3000"/>
          <note pan="0" key="61" len="24" vol="193" pos="3048"/>
          <note pan="0" key="58" len="24" vol="193" pos="3048"/>
          <note pan="0" key="61" len="24" vol="193" pos="3072"/>
          <note pan="0" key="57" len="24" vol="193" pos="3072"/>
          <note pan="0" key="61" len="24" vol="193" pos="3144"/>
          <note pan="0" key="57" len="24" vol="193" pos="3144"/>
          <note pan="0" key="61" len="24" vol="193" pos="3216"/>
          <note pan="0" key="57" len="24" vol="193" pos="3216"/>
        </pattern>
        <pattern steps="16" muted="0" pos="8064" name="" type="1">
          <note pan="0" key="68" len="192" vol="197" pos="0"/>
          <note pan="0" key="64" len="192" vol="197" pos="0"/>
          <note pan="0" key="61" len="192" vol="197" pos="0"/>
          <note pan="0" key="68" len="192" vol="197" pos="192"/>
          <note pan="0" key="63" len="192" vol="197" pos="192"/>
          <note pan="0" key="59" len="192" vol="197" pos="192"/>
          <note pan="0" key="69" len="192" vol="197" pos="384"/>
          <note pan="0" key="64" len="192" vol="197" pos="384"/>
          <note pan="0" key="61" len="192" vol="197" pos="384"/>
          <note pan="0" key="71" len="192" vol="197" pos="576"/>
          <note pan="0" key="66" len="192" vol="197" pos="576"/>
          <note pan="0" key="63" len="192" vol="197" pos="576"/>
          <note pan="0" key="73" len="192" vol="197" pos="768"/>
          <note pan="0" key="69" len="192" vol="197" pos="768"/>
          <note pan="0" key="66" len="192" vol="197" pos="768"/>
          <note pan="0" key="75" len="192" vol="197" pos="960"/>
          <note pan="0" key="71" len="192" vol="197" pos="960"/>
          <note pan="0" key="68" len="192" vol="197" pos="960"/>
          <note pan="0" key="76" len="192" vol="197" pos="1152"/>
          <note pan="0" key="73" len="192" vol="197" pos="1152"/>
          <note pan="0" key="69" len="192" vol="197" pos="1152"/>
          <note pan="0" key="75" len="192" vol="197" pos="1344"/>
          <note pan="0" key="71" len="192" vol="197" pos="1344"/>
          <note pan="0" key="66" len="192" vol="197" pos="1344"/>
          <note pan="0" key="76" len="192" vol="197" pos="1536"/>
          <note pan="0" key="73" len="192" vol="197" pos="1536"/>
          <note pan="0" key="68" len="192" vol="197" pos="1536"/>
          <note pan="0" key="75" len="192" vol="197" pos="1728"/>
          <note pan="0" key="71" len="192" vol="197" pos="1728"/>
          <note pan="0" key="66" len="192" vol="197" pos="1728"/>
          <note pan="0" key="73" len="384" vol="197" pos="1920"/>
          <note pan="0" key="70" len="384" vol="197" pos="1920"/>
          <note pan="0" key="66" len="384" vol="197" pos="1920"/>
          <note pan="0" key="74" len="192" vol="197" pos="2304"/>
          <note pan="0" key="69" len="192" vol="197" pos="2304"/>
          <note pan="0" key="66" len="192" vol="197" pos="2304"/>
          <note pan="0" key="73" len="192" vol="197" pos="2496"/>
          <note pan="0" key="69" len="192" vol="197" pos="2496"/>
          <note pan="0" key="64" len="192" vol="197" pos="2496"/>
          <note pan="0" key="75" len="384" vol="197" pos="2688"/>
          <note pan="0" key="71" len="384" vol="197" pos="2688"/>
          <note pan="0" key="66" len="384" vol="197" pos="2688"/>
        </pattern>
        <pattern steps="16" muted="0" pos="15744" name="" type="1">
          <note pan="0" key="68" len="192" vol="197" pos="0"/>
          <note pan="0" key="64" len="192" vol="197" pos="0"/>
          <note pan="0" key="61" len="192" vol="197" pos="0"/>
          <note pan="0" key="68" len="192" vol="197" pos="192"/>
          <note pan="0" key="63" len="192" vol="197" pos="192"/>
          <note pan="0" key="59" len="192" vol="197" pos="192"/>
          <note pan="0" key="69" len="192" vol="197" pos="384"/>
          <note pan="0" key="64" len="192" vol="197" pos="384"/>
          <note pan="0" key="61" len="192" vol="197" pos="384"/>
          <note pan="0" key="71" len="192" vol="197" pos="576"/>
          <note pan="0" key="66" len="192" vol="197" pos="576"/>
          <note pan="0" key="63" len="192" vol="197" pos="576"/>
          <note pan="0" key="73" len="192" vol="197" pos="768"/>
          <note pan="0" key="69" len="192" vol="197" pos="768"/>
          <note pan="0" key="66" len="192" vol="197" pos="768"/>
          <note pan="0" key="75" len="192" vol="197" pos="960"/>
          <note pan="0" key="71" len="192" vol="197" pos="960"/>
          <note pan="0" key="68" len="192" vol="197" pos="960"/>
          <note pan="0" key="76" len="192" vol="197" pos="1152"/>
          <note pan="0" key="73" len="192" vol="197" pos="1152"/>
          <note pan="0" key="69" len="192" vol="197" pos="1152"/>
          <note pan="0" key="75" len="96" vol="197" pos="1344"/>
          <note pan="0" key="71" len="96" vol="197" pos="1344"/>
          <note pan="0" key="66" len="96" vol="197" pos="1344"/>
          <note pan="0" key="75" len="96" vol="197" pos="1440"/>
          <note pan="0" key="72" len="96" vol="197" pos="1440"/>
          <note pan="0" key="66" len="96" vol="197" pos="1440"/>
          <note pan="0" key="76" len="192" vol="197" pos="1536"/>
          <note pan="0" key="73" len="192" vol="197" pos="1536"/>
          <note pan="0" key="68" len="192" vol="197" pos="1536"/>
          <note pan="0" key="75" len="192" vol="197" pos="1728"/>
          <note pan="0" key="71" len="192" vol="197" pos="1728"/>
          <note pan="0" key="66" len="192" vol="197" pos="1728"/>
          <note pan="0" key="73" len="384" vol="197" pos="1920"/>
          <note pan="0" key="70" len="384" vol="197" pos="1920"/>
          <note pan="0" key="66" len="384" vol="197" pos="1920"/>
          <note pan="0" key="74" len="192" vol="197" pos="2304"/>
          <note pan="0" key="69" len="192" vol="197" pos="2304"/>
          <note pan="0" key="66" len="192" vol="197" pos="2304"/>
          <note pan="0" key="73" len="192" vol="197" pos="2496"/>
          <note pan="0" key="69" len="192" vol="197" pos="2496"/>
          <note pan="0" key="64" len="192" vol="197" pos="2496"/>
          <note pan="0" key="75" len="216" vol="197" pos="2688"/>
          <note pan="0" key="71" len="216" vol="197" pos="2688"/>
          <note pan="0" key="66" len="216" vol="197" pos="2688"/>
          <note pan="0" key="78" len="24" vol="197" pos="2976"/>
          <note pan="0" key="75" len="24" vol="197" pos="2976"/>
          <note pan="0" key="71" len="24" vol="197" pos="2976"/>
        </pattern>
        <pattern steps="16" muted="0" pos="11136" name="" type="1">
          <note pan="0" key="73" len="384" vol="197" pos="0"/>
          <note pan="0" key="68" len="384" vol="197" pos="0"/>
          <note pan="0" key="64" len="384" vol="197" pos="0"/>
          <note pan="0" key="74" len="384" vol="197" pos="384"/>
          <note pan="0" key="69" len="384" vol="197" pos="384"/>
          <note pan="0" key="66" len="384" vol="197" pos="384"/>
        </pattern>
        <pattern steps="16" muted="0" pos="11904" name="" type="1">
          <note pan="0" key="73" len="384" vol="197" pos="0"/>
          <note pan="0" key="68" len="384" vol="197" pos="0"/>
          <note pan="0" key="64" len="384" vol="197" pos="0"/>
          <note pan="0" key="74" len="384" vol="197" pos="384"/>
          <note pan="0" key="69" len="384" vol="197" pos="384"/>
          <note pan="0" key="66" len="384" vol="197" pos="384"/>
        </pattern>
        <pattern steps="16" muted="0" pos="18816" name="" type="1">
          <note pan="0" key="64" len="384" vol="193" pos="0"/>
          <note pan="0" key="61" len="384" vol="193" pos="0"/>
          <note pan="0" key="52" len="384" vol="193" pos="0"/>
          <note pan="0" key="63" len="384" vol="193" pos="384"/>
          <note pan="0" key="59" len="384" vol="193" pos="384"/>
          <note pan="0" key="56" len="384" vol="193" pos="384"/>
          <note pan="0" key="61" len="384" vol="193" pos="768"/>
          <note pan="0" key="56" len="384" vol="193" pos="768"/>
          <note pan="0" key="49" len="384" vol="193" pos="768"/>
          <note pan="0" key="59" len="384" vol="193" pos="1152"/>
          <note pan="0" key="57" len="384" vol="193" pos="1152"/>
          <note pan="0" key="49" len="384" vol="193" pos="1152"/>
        </pattern>
        <pattern steps="16" muted="0" pos="20352" name="" type="1">
          <note pan="0" key="64" len="384" vol="193" pos="0"/>
          <note pan="0" key="61" len="384" vol="193" pos="0"/>
          <note pan="0" key="56" len="384" vol="193" pos="0"/>
          <note pan="0" key="66" len="384" vol="193" pos="384"/>
          <note pan="0" key="62" len="384" vol="193" pos="384"/>
          <note pan="0" key="57" len="384" vol="193" pos="384"/>
          <note pan="0" key="66" len="384" vol="193" pos="768"/>
          <note pan="0" key="63" len="384" vol="193" pos="768"/>
          <note pan="0" key="58" len="384" vol="193" pos="768"/>
          <note pan="0" key="68" len="384" vol="193" pos="1152"/>
          <note pan="0" key="63" len="384" vol="193" pos="1152"/>
          <note pan="0" key="60" len="384" vol="193" pos="1152"/>
        </pattern>
        <pattern steps="16" muted="0" pos="23424" name="" type="1">
          <note pan="0" key="68" len="192" vol="200" pos="0"/>
          <note pan="0" key="59" len="192" vol="200" pos="0"/>
          <note pan="0" key="69" len="192" vol="200" pos="192"/>
          <note pan="0" key="61" len="192" vol="200" pos="192"/>
          <note pan="0" key="71" len="192" vol="200" pos="384"/>
          <note pan="0" key="64" len="192" vol="200" pos="384"/>
          <note pan="0" key="76" len="192" vol="200" pos="576"/>
          <note pan="0" key="68" len="192" vol="200" pos="576"/>
          <note pan="0" key="73" len="384" vol="200" pos="768"/>
          <note pan="0" key="66" len="384" vol="200" pos="768"/>
          <note pan="0" key="73" len="384" vol="200" pos="1152"/>
          <note pan="0" key="64" len="384" vol="200" pos="1152"/>
        </pattern>
        <pattern steps="16" muted="0" pos="21888" name="" type="1">
          <note pan="0" key="68" len="192" vol="200" pos="0"/>
          <note pan="0" key="64" len="192" vol="200" pos="0"/>
          <note pan="0" key="66" len="192" vol="200" pos="192"/>
          <note pan="0" key="63" len="192" vol="200" pos="192"/>
          <note pan="0" key="68" len="384" vol="200" pos="384"/>
          <note pan="0" key="64" len="384" vol="200" pos="384"/>
          <note pan="0" key="61" len="384" vol="200" pos="384"/>
          <note pan="0" key="68" len="192" vol="200" pos="768"/>
          <note pan="0" key="61" len="192" vol="200" pos="768"/>
          <note pan="0" key="59" len="192" vol="200" pos="768"/>
          <note pan="0" key="66" len="192" vol="200" pos="960"/>
          <note pan="0" key="63" len="192" vol="200" pos="960"/>
          <note pan="0" key="59" len="192" vol="200" pos="960"/>
          <note pan="0" key="61" len="384" vol="200" pos="1152"/>
          <note pan="0" key="59" len="192" vol="200" pos="1152"/>
          <note pan="0" key="56" len="384" vol="200" pos="1152"/>
        </pattern>
        <pattern steps="16" muted="0" pos="3264" name="" type="1">
          <note pan="0" key="69" len="192" vol="193" pos="0"/>
          <note pan="0" key="64" len="192" vol="193" pos="0"/>
        </pattern>
        <pattern steps="16" muted="0" pos="3456" name="" type="1">
          <note pan="0" key="68" len="192" vol="193" pos="0"/>
          <note pan="0" key="64" len="192" vol="193" pos="0"/>
          <note pan="0" key="61" len="192" vol="193" pos="0"/>
          <note pan="0" key="68" len="192" vol="193" pos="192"/>
          <note pan="0" key="63" len="192" vol="193" pos="192"/>
          <note pan="0" key="59" len="192" vol="193" pos="192"/>
          <note pan="0" key="69" len="192" vol="193" pos="384"/>
          <note pan="0" key="64" len="192" vol="193" pos="384"/>
          <note pan="0" key="61" len="192" vol="193" pos="384"/>
          <note pan="0" key="71" len="192" vol="193" pos="576"/>
          <note pan="0" key="66" len="192" vol="193" pos="576"/>
          <note pan="0" key="63" len="192" vol="193" pos="576"/>
          <note pan="0" key="73" len="192" vol="193" pos="768"/>
          <note pan="0" key="69" len="192" vol="193" pos="768"/>
          <note pan="0" key="66" len="192" vol="193" pos="768"/>
          <note pan="0" key="75" len="192" vol="193" pos="960"/>
          <note pan="0" key="71" len="192" vol="193" pos="960"/>
          <note pan="0" key="68" len="192" vol="193" pos="960"/>
          <note pan="0" key="76" len="192" vol="193" pos="1152"/>
          <note pan="0" key="73" len="192" vol="193" pos="1152"/>
          <note pan="0" key="69" len="192" vol="193" pos="1152"/>
          <note pan="0" key="75" len="96" vol="193" pos="1344"/>
          <note pan="0" key="71" len="96" vol="193" pos="1344"/>
          <note pan="0" key="66" len="96" vol="193" pos="1344"/>
          <note pan="0" key="75" len="48" vol="193" pos="1440"/>
          <note pan="0" key="71" len="48" vol="193" pos="1440"/>
          <note pan="0" key="68" len="48" vol="193" pos="1440"/>
          <note pan="0" key="75" len="48" vol="193" pos="1488"/>
          <note pan="0" key="71" len="48" vol="193" pos="1488"/>
          <note pan="0" key="66" len="48" vol="193" pos="1488"/>
        </pattern>
        <pattern steps="16" muted="0" pos="4992" name="" type="0"/>
        <pattern steps="16" muted="0" pos="28800" name="" type="1">
          <note pan="0" key="56" len="192" vol="200" pos="0"/>
          <note pan="0" key="52" len="192" vol="200" pos="0"/>
          <note pan="0" key="57" len="192" vol="200" pos="192"/>
          <note pan="0" key="54" len="192" vol="200" pos="192"/>
          <note pan="0" key="59" len="192" vol="200" pos="384"/>
          <note pan="0" key="56" len="192" vol="200" pos="384"/>
          <note pan="0" key="54" len="192" vol="200" pos="576"/>
          <note pan="0" key="49" len="192" vol="200" pos="576"/>
          <note pan="0" key="56" len="192" vol="200" pos="768"/>
          <note pan="0" key="52" len="192" vol="200" pos="768"/>
          <note pan="0" key="57" len="192" vol="200" pos="960"/>
          <note pan="0" key="54" len="192" vol="200" pos="960"/>
          <note pan="0" key="59" len="192" vol="200" pos="1152"/>
          <note pan="0" key="56" len="192" vol="200" pos="1152"/>
          <note pan="0" key="54" len="192" vol="200" pos="1344"/>
          <note pan="0" key="51" len="192" vol="200" pos="1344"/>
          <note pan="0" key="54" len="192" vol="200" pos="1536"/>
          <note pan="0" key="49" len="192" vol="200" pos="1536"/>
          <note pan="0" key="61" len="192" vol="200" pos="1728"/>
          <note pan="0" key="56" len="192" vol="200" pos="1728"/>
          <note pan="0" key="59" len="192" vol="200" pos="1920"/>
          <note pan="0" key="54" len="192" vol="200" pos="1920"/>
          <note pan="0" key="57" len="192" vol="200" pos="2112"/>
          <note pan="0" key="52" len="192" vol="200" pos="2112"/>
          <note pan="0" key="56" len="384" vol="200" pos="2304"/>
          <note pan="0" key="51" len="384" vol="200" pos="2304"/>
          <note pan="0" key="56" len="384" vol="200" pos="2688"/>
          <note pan="0" key="47" len="384" vol="200" pos="2688"/>
          <note pan="0" key="56" len="192" vol="200" pos="3072"/>
          <note pan="0" key="52" len="192" vol="200" pos="3072"/>
          <note pan="0" key="57" len="192" vol="200" pos="3264"/>
          <note pan="0" key="54" len="192" vol="200" pos="3264"/>
          <note pan="0" key="59" len="192" vol="200" pos="3456"/>
          <note pan="0" key="56" len="192" vol="200" pos="3456"/>
          <note pan="0" key="54" len="192" vol="200" pos="3648"/>
          <note pan="0" key="49" len="192" vol="200" pos="3648"/>
          <note pan="0" key="56" len="192" vol="200" pos="3840"/>
          <note pan="0" key="52" len="192" vol="200" pos="3840"/>
          <note pan="0" key="57" len="192" vol="200" pos="4032"/>
          <note pan="0" key="54" len="192" vol="200" pos="4032"/>
          <note pan="0" key="59" len="192" vol="200" pos="4224"/>
          <note pan="0" key="56" len="192" vol="200" pos="4224"/>
          <note pan="0" key="54" len="192" vol="200" pos="4416"/>
          <note pan="0" key="51" len="192" vol="200" pos="4416"/>
          <note pan="0" key="54" len="192" vol="200" pos="4608"/>
          <note pan="0" key="49" len="192" vol="200" pos="4608"/>
          <note pan="0" key="61" len="192" vol="200" pos="4800"/>
          <note pan="0" key="56" len="192" vol="200" pos="4800"/>
          <note pan="0" key="59" len="192" vol="200" pos="4992"/>
          <note pan="0" key="54" len="192" vol="200" pos="4992"/>
          <note pan="0" key="57" len="192" vol="200" pos="5184"/>
          <note pan="0" key="52" len="192" vol="200" pos="5184"/>
          <note pan="0" key="55" len="384" vol="200" pos="5376"/>
          <note pan="0" key="50" len="384" vol="200" pos="5376"/>
          <note pan="0" key="56" len="384" vol="200" pos="5760"/>
          <note pan="0" key="47" len="384" vol="200" pos="5760"/>
        </pattern>
        <pattern steps="16" muted="0" pos="14208" name="" type="1">
          <note pan="0" key="61" len="24" vol="197" pos="0"/>
          <note pan="0" key="57" len="24" vol="197" pos="0"/>
          <note pan="0" key="61" len="24" vol="197" pos="48"/>
          <note pan="0" key="57" len="24" vol="197" pos="48"/>
          <note pan="0" key="61" len="24" vol="197" pos="96"/>
          <note pan="0" key="57" len="24" vol="197" pos="96"/>
          <note pan="0" key="61" len="24" vol="197" pos="144"/>
          <note pan="0" key="57" len="24" vol="197" pos="144"/>
          <note pan="0" key="61" len="24" vol="197" pos="192"/>
          <note pan="0" key="57" len="24" vol="197" pos="192"/>
          <note pan="0" key="61" len="24" vol="197" pos="240"/>
          <note pan="0" key="57" len="24" vol="197" pos="240"/>
          <note pan="0" key="61" len="24" vol="197" pos="288"/>
          <note pan="0" key="57" len="24" vol="197" pos="288"/>
          <note pan="0" key="61" len="24" vol="197" pos="336"/>
          <note pan="0" key="57" len="24" vol="197" pos="336"/>
          <note pan="0" key="61" len="24" vol="197" pos="384"/>
          <note pan="0" key="56" len="24" vol="197" pos="384"/>
          <note pan="0" key="52" len="24" vol="197" pos="384"/>
          <note pan="0" key="61" len="24" vol="197" pos="432"/>
          <note pan="0" key="56" len="24" vol="197" pos="432"/>
          <note pan="0" key="52" len="24" vol="197" pos="432"/>
          <note pan="0" key="61" len="24" vol="197" pos="480"/>
          <note pan="0" key="56" len="24" vol="197" pos="480"/>
          <note pan="0" key="52" len="24" vol="197" pos="480"/>
          <note pan="0" key="61" len="24" vol="197" pos="528"/>
          <note pan="0" key="56" len="24" vol="197" pos="528"/>
          <note pan="0" key="52" len="24" vol="197" pos="528"/>
          <note pan="0" key="61" len="24" vol="197" pos="576"/>
          <note pan="0" key="56" len="24" vol="197" pos="576"/>
          <note pan="0" key="51" len="24" vol="197" pos="576"/>
          <note pan="0" key="61" len="24" vol="197" pos="624"/>
          <note pan="0" key="56" len="24" vol="197" pos="624"/>
          <note pan="0" key="51" len="24" vol="197" pos="624"/>
          <note pan="0" key="61" len="24" vol="197" pos="672"/>
          <note pan="0" key="56" len="24" vol="197" pos="672"/>
          <note pan="0" key="51" len="24" vol="197" pos="672"/>
          <note pan="0" key="61" len="24" vol="197" pos="720"/>
          <note pan="0" key="56" len="24" vol="197" pos="720"/>
          <note pan="0" key="51" len="24" vol="197" pos="720"/>
        </pattern>
        <pattern steps="16" muted="0" pos="34944" name="" type="1">
          <note pan="0" key="68" len="192" vol="193" pos="0"/>
          <note pan="0" key="64" len="192" vol="193" pos="0"/>
          <note pan="0" key="61" len="192" vol="193" pos="0"/>
          <note pan="0" key="68" len="192" vol="193" pos="192"/>
          <note pan="0" key="63" len="192" vol="193" pos="192"/>
          <note pan="0" key="59" len="192" vol="193" pos="192"/>
          <note pan="0" key="69" len="192" vol="193" pos="384"/>
          <note pan="0" key="64" len="192" vol="193" pos="384"/>
          <note pan="0" key="61" len="192" vol="193" pos="384"/>
          <note pan="0" key="71" len="192" vol="193" pos="576"/>
          <note pan="0" key="66" len="192" vol="193" pos="576"/>
          <note pan="0" key="63" len="192" vol="193" pos="576"/>
          <note pan="0" key="73" len="192" vol="193" pos="768"/>
          <note pan="0" key="69" len="192" vol="193" pos="768"/>
          <note pan="0" key="66" len="192" vol="193" pos="768"/>
          <note pan="0" key="75" len="192" vol="193" pos="960"/>
          <note pan="0" key="71" len="192" vol="193" pos="960"/>
          <note pan="0" key="68" len="192" vol="193" pos="960"/>
          <note pan="0" key="76" len="192" vol="193" pos="1152"/>
          <note pan="0" key="73" len="192" vol="193" pos="1152"/>
          <note pan="0" key="69" len="192" vol="193" pos="1152"/>
          <note pan="0" key="75" len="96" vol="193" pos="1344"/>
          <note pan="0" key="71" len="96" vol="193" pos="1344"/>
          <note pan="0" key="66" len="96" vol="193" pos="1344"/>
          <note pan="0" key="75" len="48" vol="193" pos="1440"/>
          <note pan="0" key="71" len="48" vol="193" pos="1440"/>
          <note pan="0" key="68" len="48" vol="193" pos="1440"/>
          <note pan="0" key="75" len="48" vol="193" pos="1488"/>
          <note pan="0" key="71" len="48" vol="193" pos="1488"/>
          <note pan="0" key="66" len="48" vol="193" pos="1488"/>
        </pattern>
        <pattern steps="16" muted="0" pos="39552" name="" type="1">
          <note pan="0" key="68" len="192" vol="197" pos="0"/>
          <note pan="0" key="64" len="192" vol="197" pos="0"/>
          <note pan="0" key="61" len="192" vol="197" pos="0"/>
          <note pan="0" key="68" len="192" vol="197" pos="192"/>
          <note pan="0" key="63" len="192" vol="197" pos="192"/>
          <note pan="0" key="59" len="192" vol="197" pos="192"/>
          <note pan="0" key="69" len="192" vol="197" pos="384"/>
          <note pan="0" key="64" len="192" vol="197" pos="384"/>
          <note pan="0" key="61" len="192" vol="197" pos="384"/>
          <note pan="0" key="71" len="192" vol="197" pos="576"/>
          <note pan="0" key="66" len="192" vol="197" pos="576"/>
          <note pan="0" key="63" len="192" vol="197" pos="576"/>
          <note pan="0" key="73" len="192" vol="197" pos="768"/>
          <note pan="0" key="69" len="192" vol="197" pos="768"/>
          <note pan="0" key="66" len="192" vol="197" pos="768"/>
          <note pan="0" key="75" len="192" vol="197" pos="960"/>
          <note pan="0" key="71" len="192" vol="197" pos="960"/>
          <note pan="0" key="68" len="192" vol="197" pos="960"/>
          <note pan="0" key="76" len="192" vol="197" pos="1152"/>
          <note pan="0" key="73" len="192" vol="197" pos="1152"/>
          <note pan="0" key="69" len="192" vol="197" pos="1152"/>
          <note pan="0" key="75" len="96" vol="197" pos="1344"/>
          <note pan="0" key="71" len="96" vol="197" pos="1344"/>
          <note pan="0" key="66" len="96" vol="197" pos="1344"/>
          <note pan="0" key="75" len="96" vol="197" pos="1440"/>
          <note pan="0" key="72" len="96" vol="197" pos="1440"/>
          <note pan="0" key="66" len="96" vol="197" pos="1440"/>
          <note pan="0" key="76" len="192" vol="197" pos="1536"/>
          <note pan="0" key="73" len="192" vol="197" pos="1536"/>
          <note pan="0" key="68" len="192" vol="197" pos="1536"/>
          <note pan="0" key="75" len="192" vol="197" pos="1728"/>
          <note pan="0" key="71" len="192" vol="197" pos="1728"/>
          <note pan="0" key="66" len="192" vol="197" pos="1728"/>
          <note pan="0" key="73" len="384" vol="197" pos="1920"/>
          <note pan="0" key="70" len="384" vol="197" pos="1920"/>
          <note pan="0" key="66" len="384" vol="197" pos="1920"/>
          <note pan="0" key="74" len="192" vol="197" pos="2304"/>
          <note pan="0" key="69" len="192" vol="197" pos="2304"/>
          <note pan="0" key="66" len="192" vol="197" pos="2304"/>
          <note pan="0" key="73" len="192" vol="197" pos="2496"/>
          <note pan="0" key="69" len="192" vol="197" pos="2496"/>
          <note pan="0" key="64" len="192" vol="197" pos="2496"/>
          <note pan="0" key="75" len="384" vol="197" pos="2688"/>
          <note pan="0" key="71" len="384" vol="197" pos="2688"/>
          <note pan="0" key="66" len="384" vol="197" pos="2688"/>
        </pattern>
        <pattern steps="16" muted="0" pos="44160" name="" type="1">
          <note pan="0" key="70" len="192" vol="197" pos="0"/>
          <note pan="0" key="66" len="192" vol="197" pos="0"/>
          <note pan="0" key="63" len="192" vol="197" pos="0"/>
          <note pan="0" key="70" len="192" vol="197" pos="192"/>
          <note pan="0" key="65" len="192" vol="197" pos="192"/>
          <note pan="0" key="61" len="192" vol="197" pos="192"/>
          <note pan="0" key="71" len="192" vol="197" pos="384"/>
          <note pan="0" key="66" len="192" vol="197" pos="384"/>
          <note pan="0" key="63" len="192" vol="197" pos="384"/>
          <note pan="0" key="73" len="192" vol="197" pos="576"/>
          <note pan="0" key="68" len="192" vol="197" pos="576"/>
          <note pan="0" key="65" len="192" vol="197" pos="576"/>
          <note pan="0" key="75" len="192" vol="197" pos="768"/>
          <note pan="0" key="71" len="192" vol="197" pos="768"/>
          <note pan="0" key="68" len="192" vol="197" pos="768"/>
          <note pan="0" key="77" len="192" vol="197" pos="960"/>
          <note pan="0" key="73" len="192" vol="197" pos="960"/>
          <note pan="0" key="70" len="192" vol="197" pos="960"/>
          <note pan="0" key="78" len="192" vol="197" pos="1152"/>
          <note pan="0" key="75" len="192" vol="197" pos="1152"/>
          <note pan="0" key="71" len="192" vol="197" pos="1152"/>
          <note pan="0" key="77" len="96" vol="197" pos="1344"/>
          <note pan="0" key="73" len="96" vol="197" pos="1344"/>
          <note pan="0" key="68" len="96" vol="197" pos="1344"/>
          <note pan="0" key="77" len="96" vol="197" pos="1440"/>
          <note pan="0" key="74" len="96" vol="197" pos="1440"/>
          <note pan="0" key="68" len="96" vol="197" pos="1440"/>
          <note pan="0" key="78" len="192" vol="197" pos="1536"/>
          <note pan="0" key="75" len="192" vol="197" pos="1536"/>
          <note pan="0" key="70" len="192" vol="197" pos="1536"/>
          <note pan="0" key="77" len="192" vol="197" pos="1728"/>
          <note pan="0" key="73" len="192" vol="197" pos="1728"/>
          <note pan="0" key="68" len="192" vol="197" pos="1728"/>
          <note pan="0" key="75" len="384" vol="197" pos="1920"/>
          <note pan="0" key="72" len="384" vol="197" pos="1920"/>
          <note pan="0" key="68" len="384" vol="197" pos="1920"/>
          <note pan="0" key="76" len="192" vol="197" pos="2304"/>
          <note pan="0" key="71" len="192" vol="197" pos="2304"/>
          <note pan="0" key="68" len="192" vol="197" pos="2304"/>
          <note pan="0" key="75" len="192" vol="197" pos="2496"/>
          <note pan="0" key="71" len="192" vol="197" pos="2496"/>
          <note pan="0" key="66" len="192" vol="197" pos="2496"/>
          <note pan="0" key="77" len="192" vol="197" pos="2688"/>
          <note pan="0" key="73" len="192" vol="197" pos="2688"/>
          <note pan="0" key="68" len="192" vol="197" pos="2688"/>
          <note pan="0" key="73" len="48" vol="195" pos="2880"/>
          <note pan="0" key="71" len="48" vol="195" pos="2928"/>
          <note pan="0" key="70" len="48" vol="195" pos="2976"/>
          <note pan="0" key="68" len="48" vol="195" pos="3024"/>
        </pattern>
        <pattern steps="16" muted="0" pos="43776" name="" type="1">
          <note pan="0" key="64" len="96" vol="197" pos="96"/>
          <note pan="0" key="61" len="96" vol="197" pos="96"/>
          <note pan="0" key="57" len="96" vol="197" pos="96"/>
          <note pan="0" key="66" len="96" vol="197" pos="192"/>
          <note pan="0" key="63" len="96" vol="197" pos="192"/>
          <note pan="0" key="59" len="96" vol="197" pos="192"/>
          <note pan="0" key="68" len="96" vol="197" pos="288"/>
          <note pan="0" key="65" len="96" vol="197" pos="288"/>
          <note pan="0" key="61" len="96" vol="197" pos="288"/>
        </pattern>
        <pattern steps="16" muted="0" pos="47232" name="" type="1">
          <note pan="0" key="58" len="192" vol="197" pos="0"/>
          <note pan="0" key="54" len="192" vol="197" pos="0"/>
          <note pan="0" key="51" len="192" vol="197" pos="0"/>
          <note pan="0" key="58" len="192" vol="197" pos="192"/>
          <note pan="0" key="53" len="192" vol="197" pos="192"/>
          <note pan="0" key="49" len="192" vol="197" pos="192"/>
          <note pan="0" key="59" len="192" vol="197" pos="384"/>
          <note pan="0" key="54" len="192" vol="197" pos="384"/>
          <note pan="0" key="51" len="192" vol="197" pos="384"/>
          <note pan="0" key="61" len="192" vol="197" pos="576"/>
          <note pan="0" key="56" len="192" vol="197" pos="576"/>
          <note pan="0" key="53" len="192" vol="197" pos="576"/>
          <note pan="0" key="63" len="192" vol="197" pos="768"/>
          <note pan="0" key="59" len="192" vol="197" pos="768"/>
          <note pan="0" key="56" len="192" vol="197" pos="768"/>
          <note pan="0" key="65" len="192" vol="197" pos="960"/>
          <note pan="0" key="61" len="192" vol="197" pos="960"/>
          <note pan="0" key="58" len="192" vol="197" pos="960"/>
          <note pan="0" key="66" len="192" vol="197" pos="1152"/>
          <note pan="0" key="63" len="192" vol="197" pos="1152"/>
          <note pan="0" key="59" len="192" vol="197" pos="1152"/>
          <note pan="0" key="65" len="96" vol="197" pos="1344"/>
          <note pan="0" key="61" len="96" vol="197" pos="1344"/>
          <note pan="0" key="56" len="96" vol="197" pos="1344"/>
          <note pan="0" key="65" len="96" vol="197" pos="1440"/>
          <note pan="0" key="62" len="96" vol="197" pos="1440"/>
          <note pan="0" key="56" len="96" vol="197" pos="1440"/>
          <note pan="0" key="66" len="192" vol="197" pos="1536"/>
          <note pan="0" key="63" len="192" vol="197" pos="1536"/>
          <note pan="0" key="58" len="192" vol="197" pos="1536"/>
          <note pan="0" key="65" len="192" vol="197" pos="1728"/>
          <note pan="0" key="61" len="192" vol="197" pos="1728"/>
          <note pan="0" key="56" len="192" vol="197" pos="1728"/>
          <note pan="0" key="63" len="384" vol="197" pos="1920"/>
          <note pan="0" key="60" len="384" vol="197" pos="1920"/>
          <note pan="0" key="56" len="384" vol="197" pos="1920"/>
          <note pan="0" key="64" len="192" vol="197" pos="2304"/>
          <note pan="0" key="59" len="192" vol="197" pos="2304"/>
          <note pan="0" key="56" len="192" vol="197" pos="2304"/>
          <note pan="0" key="63" len="192" vol="197" pos="2496"/>
          <note pan="0" key="59" len="192" vol="197" pos="2496"/>
          <note pan="0" key="54" len="192" vol="197" pos="2496"/>
          <note pan="0" key="65" len="192" vol="197" pos="2688"/>
          <note pan="0" key="61" len="192" vol="197" pos="2688"/>
          <note pan="0" key="56" len="192" vol="197" pos="2688"/>
          <note pan="0" key="65" len="96" vol="197" pos="2880"/>
          <note pan="0" key="61" len="96" vol="197" pos="2880"/>
          <note pan="0" key="56" len="96" vol="197" pos="2880"/>
          <note pan="0" key="65" len="96" vol="197" pos="2976"/>
          <note pan="0" key="61" len="96" vol="197" pos="2976"/>
          <note pan="0" key="58" len="96" vol="197" pos="2976"/>
        </pattern>
        <pattern steps="16" muted="0" pos="50304" name="" type="1">
          <note pan="0" key="63" len="192" vol="197" pos="0"/>
          <note pan="0" key="58" len="192" vol="197" pos="0"/>
          <note pan="0" key="54" len="192" vol="197" pos="0"/>
          <note pan="0" key="61" len="192" vol="197" pos="192"/>
          <note pan="0" key="56" len="192" vol="197" pos="192"/>
          <note pan="0" key="53" len="192" vol="197" pos="192"/>
          <note pan="0" key="58" len="384" vol="197" pos="384"/>
          <note pan="0" key="54" len="384" vol="197" pos="384"/>
          <note pan="0" key="51" len="384" vol="197" pos="384"/>
        </pattern>
        <pattern steps="16" muted="0" pos="51072" name="" type="1">
          <note pan="0" key="66" len="192" vol="197" pos="0"/>
          <note pan="0" key="63" len="192" vol="197" pos="0"/>
          <note pan="0" key="59" len="192" vol="197" pos="0"/>
          <note pan="0" key="65" len="192" vol="197" pos="192"/>
          <note pan="0" key="61" len="192" vol="197" pos="192"/>
          <note pan="0" key="56" len="192" vol="197" pos="192"/>
          <note pan="0" key="66" len="384" vol="197" pos="384"/>
          <note pan="0" key="63" len="384" vol="197" pos="384"/>
          <note pan="0" key="58" len="384" vol="197" pos="384"/>
        </pattern>
        <pattern steps="16" muted="0" pos="51840" name="" type="1">
          <note pan="0" key="64" len="384" vol="197" pos="0"/>
          <note pan="0" key="59" len="384" vol="197" pos="0"/>
          <note pan="0" key="56" len="384" vol="197" pos="0"/>
          <note pan="0" key="63" len="384" vol="197" pos="384"/>
          <note pan="0" key="58" len="384" vol="197" pos="384"/>
          <note pan="0" key="54" len="384" vol="197" pos="384"/>
        </pattern>
        <pattern steps="16" muted="0" pos="52608" name="" type="1">
          <note pan="0" key="63" len="384" vol="197" pos="0"/>
          <note pan="0" key="60" len="384" vol="197" pos="0"/>
          <note pan="0" key="56" len="384" vol="197" pos="0"/>
        </pattern>
        <pattern steps="16" muted="0" pos="53376" name="" type="1">
          <note pan="0" key="63" len="192" vol="197" pos="0"/>
          <note pan="0" key="59" len="192" vol="197" pos="0"/>
          <note pan="0" key="54" len="192" vol="197" pos="0"/>
          <note pan="0" key="61" len="192" vol="197" pos="192"/>
          <note pan="0" key="56" len="192" vol="197" pos="192"/>
          <note pan="0" key="53" len="192" vol="197" pos="192"/>
          <note pan="0" key="58" len="384" vol="197" pos="384"/>
          <note pan="0" key="54" len="384" vol="197" pos="384"/>
          <note pan="0" key="51" len="384" vol="197" pos="384"/>
        </pattern>
        <pattern steps="16" muted="0" pos="54144" name="" type="1">
          <note pan="0" key="65" len="384" vol="197" pos="0"/>
          <note pan="0" key="61" len="384" vol="197" pos="0"/>
          <note pan="0" key="56" len="384" vol="197" pos="0"/>
          <note pan="0" key="63" len="384" vol="197" pos="384"/>
          <note pan="0" key="60" len="384" vol="197" pos="384"/>
          <note pan="0" key="56" len="384" vol="197" pos="384"/>
        </pattern>
        <pattern steps="16" muted="0" pos="54912" name="" type="1">
          <note pan="0" key="63" len="192" vol="197" pos="0"/>
          <note pan="0" key="59" len="192" vol="197" pos="0"/>
          <note pan="0" key="54" len="192" vol="197" pos="0"/>
          <note pan="0" key="65" len="192" vol="197" pos="192"/>
          <note pan="0" key="61" len="192" vol="197" pos="192"/>
          <note pan="0" key="56" len="192" vol="197" pos="192"/>
          <note pan="0" key="66" len="192" vol="197" pos="384"/>
          <note pan="0" key="63" len="384" vol="197" pos="384"/>
          <note pan="0" key="58" len="384" vol="197" pos="384"/>
          <note pan="0" key="70" len="96" vol="197" pos="576"/>
          <note pan="0" key="68" len="96" vol="197" pos="672"/>
        </pattern>
        <pattern steps="16" muted="0" pos="55680" name="" type="1">
          <note pan="0" key="68" len="192" vol="197" pos="0"/>
          <note pan="0" key="63" len="192" vol="197" pos="0"/>
          <note pan="0" key="60" len="192" vol="197" pos="0"/>
          <note pan="0" key="63" len="168" vol="197" pos="192"/>
          <note pan="0" key="60" len="192" vol="197" pos="192"/>
          <note pan="0" key="56" len="192" vol="197" pos="192"/>
          <note pan="0" key="65" len="24" vol="197" pos="360"/>
          <note pan="0" key="66" len="192" vol="197" pos="384"/>
          <note pan="0" key="63" len="192" vol="197" pos="384"/>
          <note pan="0" key="59" len="192" vol="197" pos="384"/>
          <note pan="0" key="68" len="96" vol="197" pos="576"/>
          <note pan="0" key="65" len="96" vol="197" pos="576"/>
          <note pan="0" key="61" len="96" vol="197" pos="576"/>
          <note pan="0" key="73" len="96" vol="197" pos="672"/>
          <note pan="0" key="68" len="96" vol="197" pos="672"/>
          <note pan="0" key="65" len="96" vol="197" pos="672"/>
        </pattern>
        <pattern steps="16" muted="0" pos="52992" name="" type="1">
          <note pan="0" key="63" len="384" vol="197" pos="0"/>
          <note pan="0" key="60" len="384" vol="197" pos="0"/>
          <note pan="0" key="56" len="384" vol="197" pos="0"/>
        </pattern>
        <pattern steps="16" muted="0" pos="6528" name="" type="1">
          <note pan="0" key="61" len="24" vol="197" pos="0"/>
          <note pan="0" key="57" len="24" vol="197" pos="0"/>
          <note pan="0" key="61" len="24" vol="197" pos="48"/>
          <note pan="0" key="57" len="24" vol="197" pos="48"/>
          <note pan="0" key="61" len="24" vol="197" pos="96"/>
          <note pan="0" key="57" len="24" vol="197" pos="96"/>
          <note pan="0" key="61" len="24" vol="197" pos="144"/>
          <note pan="0" key="57" len="24" vol="197" pos="144"/>
          <note pan="0" key="61" len="24" vol="197" pos="192"/>
          <note pan="0" key="57" len="24" vol="197" pos="192"/>
          <note pan="0" key="61" len="24" vol="197" pos="240"/>
          <note pan="0" key="57" len="24" vol="197" pos="240"/>
          <note pan="0" key="61" len="24" vol="197" pos="288"/>
          <note pan="0" key="57" len="24" vol="197" pos="288"/>
          <note pan="0" key="61" len="24" vol="197" pos="336"/>
          <note pan="0" key="57" len="24" vol="197" pos="336"/>
          <note pan="0" key="61" len="24" vol="197" pos="384"/>
          <note pan="0" key="56" len="24" vol="197" pos="384"/>
          <note pan="0" key="52" len="24" vol="197" pos="384"/>
          <note pan="0" key="61" len="24" vol="197" pos="432"/>
          <note pan="0" key="56" len="24" vol="197" pos="432"/>
          <note pan="0" key="52" len="24" vol="197" pos="432"/>
          <note pan="0" key="61" len="24" vol="197" pos="480"/>
          <note pan="0" key="56" len="24" vol="197" pos="480"/>
          <note pan="0" key="52" len="24" vol="197" pos="480"/>
          <note pan="0" key="61" len="24" vol="197" pos="528"/>
          <note pan="0" key="56" len="24" vol="197" pos="528"/>
          <note pan="0" key="52" len="24" vol="197" pos="528"/>
          <note pan="0" key="61" len="24" vol="197" pos="576"/>
          <note pan="0" key="56" len="24" vol="197" pos="576"/>
          <note pan="0" key="51" len="24" vol="197" pos="576"/>
          <note pan="0" key="61" len="24" vol="197" pos="624"/>
          <note pan="0" key="56" len="24" vol="197" pos="624"/>
          <note pan="0" key="51" len="24" vol="197" pos="624"/>
          <note pan="0" key="61" len="24" vol="197" pos="672"/>
          <note pan="0" key="56" len="24" vol="197" pos="672"/>
          <note pan="0" key="51" len="24" vol="197" pos="672"/>
          <note pan="0" key="61" len="24" vol="197" pos="720"/>
          <note pan="0" key="56" len="24" vol="197" pos="720"/>
          <note pan="0" key="51" len="24" vol="197" pos="720"/>
        </pattern>
        <pattern steps="16" muted="0" pos="7296" name="" type="1">
          <note pan="0" key="61" len="384" vol="144" pos="0"/>
          <note pan="0" key="54" len="384" vol="144" pos="0"/>
          <note pan="0" key="58" len="192" vol="144" pos="384"/>
          <note pan="0" key="51" len="192" vol="144" pos="384"/>
          <note pan="0" key="56" len="24" vol="144" pos="576"/>
          <note pan="0" key="44" len="24" vol="144" pos="576"/>
          <note pan="0" key="60" len="24" vol="144" pos="600"/>
          <note pan="0" key="48" len="24" vol="144" pos="600"/>
          <note pan="0" key="63" len="24" vol="144" pos="624"/>
          <note pan="0" key="51" len="24" vol="144" pos="624"/>
          <note pan="0" key="66" len="24" vol="144" pos="648"/>
          <note pan="0" key="54" len="24" vol="144" pos="648"/>
          <note pan="0" key="69" len="24" vol="144" pos="672"/>
          <note pan="0" key="57" len="24" vol="144" pos="672"/>
          <note pan="0" key="72" len="24" vol="144" pos="696"/>
          <note pan="0" key="60" len="24" vol="144" pos="696"/>
          <note pan="0" key="75" len="24" vol="144" pos="720"/>
          <note pan="0" key="63" len="24" vol="144" pos="720"/>
          <note pan="0" key="78" len="24" vol="144" pos="744"/>
          <note pan="0" key="66" len="24" vol="144" pos="744"/>
        </pattern>
        <pattern steps="16" muted="0" pos="14976" name="" type="1">
          <note pan="0" key="61" len="384" vol="144" pos="0"/>
          <note pan="0" key="54" len="384" vol="144" pos="0"/>
          <note pan="0" key="58" len="192" vol="144" pos="384"/>
          <note pan="0" key="51" len="192" vol="144" pos="384"/>
          <note pan="0" key="56" len="24" vol="144" pos="576"/>
          <note pan="0" key="44" len="24" vol="144" pos="576"/>
          <note pan="0" key="60" len="24" vol="144" pos="600"/>
          <note pan="0" key="48" len="24" vol="144" pos="600"/>
          <note pan="0" key="63" len="24" vol="144" pos="624"/>
          <note pan="0" key="51" len="24" vol="144" pos="624"/>
          <note pan="0" key="66" len="24" vol="144" pos="648"/>
          <note pan="0" key="54" len="24" vol="144" pos="648"/>
          <note pan="0" key="69" len="24" vol="144" pos="672"/>
          <note pan="0" key="57" len="24" vol="144" pos="672"/>
          <note pan="0" key="72" len="24" vol="144" pos="696"/>
          <note pan="0" key="60" len="24" vol="144" pos="696"/>
          <note pan="0" key="75" len="24" vol="144" pos="720"/>
          <note pan="0" key="63" len="24" vol="144" pos="720"/>
          <note pan="0" key="78" len="24" vol="144" pos="744"/>
          <note pan="0" key="66" len="24" vol="144" pos="744"/>
        </pattern>
        <pattern steps="16" muted="0" pos="56448" name="" type="1">
          <note pan="0" key="58" len="384" vol="200" pos="0"/>
          <note pan="0" key="54" len="384" vol="200" pos="0"/>
          <note pan="0" key="51" len="384" vol="200" pos="0"/>
          <note pan="0" key="56" len="384" vol="200" pos="384"/>
          <note pan="0" key="53" len="384" vol="200" pos="384"/>
          <note pan="0" key="49" len="384" vol="200" pos="384"/>
          <note pan="0" key="56" len="384" vol="200" pos="768"/>
          <note pan="0" key="51" len="384" vol="200" pos="768"/>
          <note pan="0" key="48" len="384" vol="200" pos="768"/>
          <note pan="0" key="56" len="384" vol="200" pos="1152"/>
          <note pan="0" key="52" len="384" vol="200" pos="1152"/>
          <note pan="0" key="47" len="384" vol="200" pos="1152"/>
        </pattern>
        <pattern steps="16" muted="0" pos="57984" name="" type="1">
          <note pan="0" key="58" len="384" vol="200" pos="0"/>
          <note pan="0" key="54" len="384" vol="200" pos="0"/>
          <note pan="0" key="51" len="384" vol="200" pos="0"/>
          <note pan="0" key="56" len="384" vol="200" pos="384"/>
          <note pan="0" key="53" len="384" vol="200" pos="384"/>
          <note pan="0" key="49" len="384" vol="200" pos="384"/>
          <note pan="0" key="56" len="384" vol="200" pos="768"/>
          <note pan="0" key="51" len="384" vol="200" pos="768"/>
          <note pan="0" key="48" len="384" vol="200" pos="768"/>
          <note pan="0" key="56" len="384" vol="200" pos="1152"/>
          <note pan="0" key="52" len="384" vol="200" pos="1152"/>
          <note pan="0" key="47" len="384" vol="200" pos="1152"/>
        </pattern>
        <pattern steps="16" muted="0" pos="59520" name="" type="1">
          <note pan="0" key="58" len="384" vol="200" pos="0"/>
          <note pan="0" key="54" len="384" vol="200" pos="0"/>
          <note pan="0" key="51" len="384" vol="200" pos="0"/>
          <note pan="0" key="56" len="384" vol="200" pos="384"/>
          <note pan="0" key="53" len="384" vol="200" pos="384"/>
          <note pan="0" key="49" len="384" vol="200" pos="384"/>
          <note pan="0" key="56" len="384" vol="200" pos="768"/>
          <note pan="0" key="51" len="384" vol="200" pos="768"/>
          <note pan="0" key="48" len="384" vol="200" pos="768"/>
          <note pan="0" key="56" len="384" vol="200" pos="1152"/>
          <note pan="0" key="52" len="384" vol="200" pos="1152"/>
          <note pan="0" key="47" len="384" vol="200" pos="1152"/>
        </pattern>
        <pattern steps="16" muted="0" pos="61056" name="" type="1">
          <note pan="0" key="58" len="384" vol="200" pos="0"/>
          <note pan="0" key="54" len="384" vol="200" pos="0"/>
          <note pan="0" key="51" len="384" vol="200" pos="0"/>
          <note pan="0" key="56" len="384" vol="200" pos="384"/>
          <note pan="0" key="53" len="384" vol="200" pos="384"/>
          <note pan="0" key="49" len="384" vol="200" pos="384"/>
          <note pan="0" key="56" len="384" vol="200" pos="768"/>
          <note pan="0" key="51" len="384" vol="200" pos="768"/>
          <note pan="0" key="48" len="384" vol="200" pos="768"/>
          <note pan="0" key="56" len="384" vol="200" pos="1152"/>
          <note pan="0" key="52" len="384" vol="200" pos="1152"/>
          <note pan="0" key="47" len="384" vol="200" pos="1152"/>
        </pattern>
        <pattern steps="16" muted="0" pos="62592" name="" type="1">
          <note pan="0" key="70" len="192" vol="197" pos="0"/>
          <note pan="0" key="66" len="192" vol="197" pos="0"/>
          <note pan="0" key="63" len="192" vol="197" pos="0"/>
          <note pan="0" key="70" len="192" vol="197" pos="192"/>
          <note pan="0" key="65" len="192" vol="197" pos="192"/>
          <note pan="0" key="61" len="192" vol="197" pos="192"/>
          <note pan="0" key="71" len="192" vol="197" pos="384"/>
          <note pan="0" key="66" len="192" vol="197" pos="384"/>
          <note pan="0" key="63" len="192" vol="197" pos="384"/>
          <note pan="0" key="73" len="192" vol="197" pos="576"/>
          <note pan="0" key="68" len="192" vol="197" pos="576"/>
          <note pan="0" key="65" len="192" vol="197" pos="576"/>
          <note pan="0" key="75" len="192" vol="197" pos="768"/>
          <note pan="0" key="71" len="192" vol="197" pos="768"/>
          <note pan="0" key="68" len="192" vol="197" pos="768"/>
          <note pan="0" key="77" len="192" vol="197" pos="960"/>
          <note pan="0" key="73" len="192" vol="197" pos="960"/>
          <note pan="0" key="70" len="192" vol="197" pos="960"/>
          <note pan="0" key="78" len="12" vol="63" pos="1152"/>
          <note pan="0" key="75" len="12" vol="63" pos="1152"/>
          <note pan="0" key="70" len="12" vol="63" pos="1152"/>
          <note pan="0" key="75" len="12" vol="63" pos="1164"/>
          <note pan="0" key="71" len="12" vol="63" pos="1164"/>
          <note pan="0" key="66" len="12" vol="63" pos="1164"/>
          <note pan="0" key="77" len="12" vol="63" pos="1176"/>
          <note pan="0" key="73" len="12" vol="63" pos="1176"/>
          <note pan="0" key="68" len="12" vol="63" pos="1176"/>
          <note pan="0" key="78" len="12" vol="63" pos="1188"/>
          <note pan="0" key="75" len="12" vol="63" pos="1188"/>
          <note pan="0" key="70" len="12" vol="63" pos="1188"/>
          <note pan="0" key="80" len="12" vol="63" pos="1200"/>
          <note pan="0" key="77" len="12" vol="63" pos="1200"/>
          <note pan="0" key="71" len="12" vol="63" pos="1200"/>
          <note pan="0" key="77" len="12" vol="63" pos="1212"/>
          <note pan="0" key="73" len="12" vol="63" pos="1212"/>
          <note pan="0" key="68" len="12" vol="63" pos="1212"/>
          <note pan="0" key="78" len="12" vol="63" pos="1224"/>
          <note pan="0" key="75" len="12" vol="63" pos="1224"/>
          <note pan="0" key="70" len="12" vol="63" pos="1224"/>
          <note pan="0" key="80" len="12" vol="63" pos="1236"/>
          <note pan="0" key="77" len="12" vol="63" pos="1236"/>
          <note pan="0" key="71" len="12" vol="63" pos="1236"/>
          <note pan="0" key="82" len="12" vol="63" pos="1248"/>
          <note pan="0" key="78" len="12" vol="63" pos="1248"/>
          <note pan="0" key="73" len="12" vol="63" pos="1248"/>
          <note pan="0" key="78" len="12" vol="63" pos="1260"/>
          <note pan="0" key="75" len="12" vol="63" pos="1260"/>
          <note pan="0" key="70" len="12" vol="63" pos="1260"/>
          <note pan="0" key="80" len="12" vol="63" pos="1272"/>
          <note pan="0" key="77" len="12" vol="63" pos="1272"/>
          <note pan="0" key="71" len="12" vol="63" pos="1272"/>
          <note pan="0" key="82" len="12" vol="63" pos="1284"/>
          <note pan="0" key="78" len="12" vol="63" pos="1284"/>
          <note pan="0" key="73" len="12" vol="63" pos="1284"/>
          <note pan="0" key="83" len="12" vol="63" pos="1296"/>
          <note pan="0" key="80" len="12" vol="63" pos="1296"/>
          <note pan="0" key="75" len="12" vol="63" pos="1296"/>
          <note pan="0" key="80" len="12" vol="63" pos="1308"/>
          <note pan="0" key="77" len="12" vol="63" pos="1308"/>
          <note pan="0" key="71" len="12" vol="63" pos="1308"/>
          <note pan="0" key="82" len="12" vol="63" pos="1320"/>
          <note pan="0" key="78" len="12" vol="63" pos="1320"/>
          <note pan="0" key="73" len="12" vol="63" pos="1320"/>
          <note pan="0" key="83" len="12" vol="63" pos="1332"/>
          <note pan="0" key="80" len="12" vol="63" pos="1332"/>
          <note pan="0" key="75" len="12" vol="63" pos="1332"/>
          <note pan="0" key="85" len="12" vol="63" pos="1344"/>
          <note pan="0" key="82" len="12" vol="63" pos="1344"/>
          <note pan="0" key="77" len="12" vol="63" pos="1344"/>
          <note pan="0" key="83" len="12" vol="63" pos="1356"/>
          <note pan="0" key="80" len="12" vol="63" pos="1356"/>
          <note pan="0" key="75" len="12" vol="63" pos="1356"/>
          <note pan="0" key="82" len="12" vol="63" pos="1368"/>
          <note pan="0" key="78" len="12" vol="63" pos="1368"/>
          <note pan="0" key="73" len="12" vol="63" pos="1368"/>
          <note pan="0" key="80" len="12" vol="63" pos="1380"/>
          <note pan="0" key="77" len="12" vol="63" pos="1380"/>
          <note pan="0" key="71" len="12" vol="63" pos="1380"/>
          <note pan="0" key="78" len="12" vol="63" pos="1392"/>
          <note pan="0" key="75" len="12" vol="63" pos="1392"/>
          <note pan="0" key="70" len="12" vol="63" pos="1392"/>
          <note pan="0" key="80" len="12" vol="63" pos="1404"/>
          <note pan="0" key="77" len="12" vol="63" pos="1404"/>
          <note pan="0" key="71" len="12" vol="63" pos="1404"/>
          <note pan="0" key="83" len="12" vol="63" pos="1416"/>
          <note pan="0" key="80" len="12" vol="63" pos="1416"/>
          <note pan="0" key="75" len="12" vol="63" pos="1416"/>
          <note pan="0" key="82" len="12" vol="63" pos="1428"/>
          <note pan="0" key="78" len="12" vol="63" pos="1428"/>
          <note pan="0" key="73" len="12" vol="63" pos="1428"/>
          <note pan="0" key="80" len="12" vol="63" pos="1440"/>
          <note pan="0" key="77" len="12" vol="63" pos="1440"/>
          <note pan="0" key="71" len="12" vol="63" pos="1440"/>
          <note pan="0" key="78" len="12" vol="63" pos="1452"/>
          <note pan="0" key="75" len="12" vol="63" pos="1452"/>
          <note pan="0" key="70" len="12" vol="63" pos="1452"/>
          <note pan="0" key="77" len="12" vol="63" pos="1464"/>
          <note pan="0" key="73" len="12" vol="63" pos="1464"/>
          <note pan="0" key="68" len="12" vol="63" pos="1464"/>
          <note pan="0" key="78" len="12" vol="63" pos="1476"/>
          <note pan="0" key="75" len="12" vol="63" pos="1476"/>
          <note pan="0" key="70" len="12" vol="63" pos="1476"/>
          <note pan="0" key="82" len="12" vol="63" pos="1488"/>
          <note pan="0" key="78" len="12" vol="63" pos="1488"/>
          <note pan="0" key="73" len="12" vol="63" pos="1488"/>
          <note pan="0" key="80" len="12" vol="63" pos="1500"/>
          <note pan="0" key="77" len="12" vol="63" pos="1500"/>
          <note pan="0" key="71" len="12" vol="63" pos="1500"/>
          <note pan="0" key="78" len="12" vol="63" pos="1512"/>
          <note pan="0" key="75" len="12" vol="63" pos="1512"/>
          <note pan="0" key="70" len="12" vol="63" pos="1512"/>
          <note pan="0" key="77" len="12" vol="63" pos="1524"/>
          <note pan="0" key="73" len="12" vol="63" pos="1524"/>
          <note pan="0" key="68" len="12" vol="63" pos="1524"/>
          <note pan="0" key="75" len="12" vol="63" pos="1536"/>
          <note pan="0" key="71" len="12" vol="63" pos="1536"/>
          <note pan="0" key="66" len="12" vol="63" pos="1536"/>
          <note pan="0" key="77" len="12" vol="63" pos="1548"/>
          <note pan="0" key="73" len="12" vol="63" pos="1548"/>
          <note pan="0" key="68" len="12" vol="63" pos="1548"/>
          <note pan="0" key="80" len="12" vol="63" pos="1560"/>
          <note pan="0" key="77" len="12" vol="63" pos="1560"/>
          <note pan="0" key="71" len="12" vol="63" pos="1560"/>
          <note pan="0" key="78" len="12" vol="63" pos="1572"/>
          <note pan="0" key="75" len="12" vol="63" pos="1572"/>
          <note pan="0" key="70" len="12" vol="63" pos="1572"/>
          <note pan="0" key="77" len="12" vol="63" pos="1584"/>
          <note pan="0" key="73" len="12" vol="63" pos="1584"/>
          <note pan="0" key="68" len="12" vol="63" pos="1584"/>
          <note pan="0" key="75" len="12" vol="63" pos="1596"/>
          <note pan="0" key="71" len="12" vol="63" pos="1596"/>
          <note pan="0" key="66" len="12" vol="63" pos="1596"/>
          <note pan="0" key="73" len="12" vol="63" pos="1608"/>
          <note pan="0" key="70" len="12" vol="63" pos="1608"/>
          <note pan="0" key="65" len="12" vol="63" pos="1608"/>
          <note pan="0" key="75" len="12" vol="63" pos="1620"/>
          <note pan="0" key="71" len="12" vol="63" pos="1620"/>
          <note pan="0" key="66" len="12" vol="63" pos="1620"/>
          <note pan="0" key="78" len="12" vol="63" pos="1632"/>
          <note pan="0" key="75" len="12" vol="63" pos="1632"/>
          <note pan="0" key="70" len="12" vol="63" pos="1632"/>
          <note pan="0" key="77" len="12" vol="63" pos="1644"/>
          <note pan="0" key="73" len="12" vol="63" pos="1644"/>
          <note pan="0" key="68" len="12" vol="63" pos="1644"/>
          <note pan="0" key="75" len="12" vol="63" pos="1656"/>
          <note pan="0" key="71" len="12" vol="63" pos="1656"/>
          <note pan="0" key="66" len="12" vol="63" pos="1656"/>
          <note pan="0" key="73" len="12" vol="63" pos="1668"/>
          <note pan="0" key="70" len="12" vol="63" pos="1668"/>
          <note pan="0" key="65" len="12" vol="63" pos="1668"/>
          <note pan="0" key="77" len="12" vol="63" pos="1680"/>
          <note pan="0" key="73" len="12" vol="63" pos="1680"/>
          <note pan="0" key="68" len="12" vol="63" pos="1680"/>
          <note pan="0" key="75" len="12" vol="63" pos="1692"/>
          <note pan="0" key="71" len="12" vol="63" pos="1692"/>
          <note pan="0" key="66" len="12" vol="63" pos="1692"/>
          <note pan="0" key="73" len="12" vol="63" pos="1704"/>
          <note pan="0" key="70" len="12" vol="63" pos="1704"/>
          <note pan="0" key="65" len="12" vol="63" pos="1704"/>
          <note pan="0" key="75" len="12" vol="63" pos="1716"/>
          <note pan="0" key="71" len="12" vol="63" pos="1716"/>
          <note pan="0" key="66" len="12" vol="63" pos="1716"/>
          <note pan="0" key="75" len="192" vol="197" pos="1728"/>
          <note pan="0" key="70" len="192" vol="197" pos="1728"/>
          <note pan="0" key="66" len="192" vol="197" pos="1728"/>
        </pattern>
        <pattern steps="16" muted="0" pos="24960" name="" type="1">
          <note pan="0" key="69" len="192" vol="200" pos="0"/>
          <note pan="0" key="64" len="192" vol="200" pos="0"/>
          <note pan="0" key="61" len="192" vol="200" pos="0"/>
          <note pan="0" key="66" len="192" vol="200" pos="192"/>
          <note pan="0" key="63" len="192" vol="200" pos="192"/>
          <note pan="0" key="59" len="192" vol="200" pos="192"/>
          <note pan="0" key="68" len="384" vol="200" pos="384"/>
          <note pan="0" key="64" len="384" vol="200" pos="384"/>
          <note pan="0" key="61" len="384" vol="200" pos="384"/>
          <note pan="0" key="68" len="192" vol="200" pos="768"/>
          <note pan="0" key="61" len="192" vol="200" pos="768"/>
          <note pan="0" key="59" len="192" vol="200" pos="768"/>
          <note pan="0" key="66" len="192" vol="200" pos="960"/>
          <note pan="0" key="63" len="192" vol="200" pos="960"/>
          <note pan="0" key="59" len="192" vol="200" pos="960"/>
          <note pan="0" key="61" len="384" vol="200" pos="1152"/>
          <note pan="0" key="58" len="384" vol="200" pos="1152"/>
          <note pan="0" key="54" len="384" vol="200" pos="1152"/>
          <note pan="0" key="69" len="192" vol="200" pos="1536"/>
          <note pan="0" key="61" len="192" vol="200" pos="1536"/>
          <note pan="0" key="52" len="192" vol="200" pos="1536"/>
          <note pan="0" key="71" len="192" vol="200" pos="1728"/>
          <note pan="0" key="63" len="192" vol="200" pos="1728"/>
          <note pan="0" key="54" len="192" vol="200" pos="1728"/>
          <note pan="0" key="73" len="192" vol="200" pos="1920"/>
          <note pan="0" key="64" len="192" vol="200" pos="1920"/>
          <note pan="0" key="56" len="192" vol="200" pos="1920"/>
          <note pan="0" key="76" len="192" vol="200" pos="2112"/>
          <note pan="0" key="68" len="192" vol="200" pos="2112"/>
          <note pan="0" key="61" len="192" vol="200" pos="2112"/>
          <note pan="0" key="73" len="384" vol="200" pos="2304"/>
          <note pan="0" key="66" len="384" vol="200" pos="2304"/>
          <note pan="0" key="58" len="384" vol="200" pos="2304"/>
          <note pan="0" key="73" len="384" vol="200" pos="2688"/>
          <note pan="0" key="64" len="384" vol="200" pos="2688"/>
          <note pan="0" key="68" len="384" vol="200" pos="3072"/>
          <note pan="0" key="61" len="384" vol="200" pos="3072"/>
          <note pan="0" key="49" len="48" vol="200" pos="3072"/>
          <note pan="0" key="45" len="48" vol="200" pos="3120"/>
          <note pan="0" key="47" len="48" vol="200" pos="3168"/>
          <note pan="0" key="49" len="48" vol="200" pos="3216"/>
          <note pan="0" key="51" len="48" vol="200" pos="3264"/>
          <note pan="0" key="52" len="48" vol="200" pos="3312"/>
          <note pan="0" key="51" len="48" vol="200" pos="3360"/>
          <note pan="0" key="47" len="48" vol="200" pos="3408"/>
          <note pan="0" key="68" len="384" vol="200" pos="3456"/>
          <note pan="0" key="61" len="384" vol="200" pos="3456"/>
          <note pan="0" key="49" len="48" vol="200" pos="3456"/>
          <note pan="0" key="47" len="48" vol="200" pos="3504"/>
          <note pan="0" key="49" len="48" vol="200" pos="3552"/>
          <note pan="0" key="51" len="48" vol="200" pos="3600"/>
          <note pan="0" key="56" len="192" vol="200" pos="3648"/>
        </pattern>
      </track>
      <track solo="0" mutedBeforeSolo="0" muted="0" name="dt" type="0">
        <instrumenttrack pan="0" basenote="45" pitch="0" usemasterpitch="1" vol="70.6" pitchrange="1" fxch="0">
          <instrument name="zynaddsubfx">
            <zynaddsubfx filterq="64" resbandwidth="64" fmgain="127" bandwidth="64" forwardmidicc="1" modifiedcontrollers="" filterfreq="64" portamento="0" rescenterfreq="64">
              <ZynAddSubFX-data version-minor="4" version-revision="1" version-major="2" ZynAddSubFX-author="Nasca Octavian Paul">
                <INFORMATION>
                  <par_bool value="yes" name="PADsynth_used"/>
                </INFORMATION>
                <BASE_PARAMETERS>
                  <par value="16" name="max_midi_parts"/>
                  <par value="16" name="max_kit_items_per_instrument"/>
                  <par value="4" name="max_system_effects"/>
                  <par value="8" name="max_insertion_effects"/>
                  <par value="3" name="max_instrument_effects"/>
                  <par value="8" name="max_addsynth_voices"/>
                </BASE_PARAMETERS>
                <MASTER>
                  <par value="80" name="volume"/>
                  <par value="64" name="key_shift"/>
                  <par_bool value="yes" name="nrpn_receive"/>
                  <MICROTONAL>
                    <string name="name">12tET</string>
                    <string name="comment">Equal Temperament 12 notes per octave</string>
                    <par_bool value="no" name="invert_up_down"/>
                    <par value="60" name="invert_up_down_center"/>
                    <par_bool value="no" name="enabled"/>
                    <par value="64" name="global_fine_detune"/>
                    <par value="69" name="a_note"/>
                    <par_real value="440.000000" name="a_freq"/>
                  </MICROTONAL>
                  <PART id="0">
                    <par_bool value="yes" name="enabled"/>
                    <par value="96" name="volume"/>
                    <par value="64" name="panning"/>
                    <par value="0" name="min_key"/>
                    <par value="127" name="max_key"/>
                    <par value="64" name="key_shift"/>
                    <par value="0" name="rcv_chn"/>
                    <par value="64" name="velocity_sensing"/>
                    <par value="64" name="velocity_offset"/>
                    <par_bool value="yes" name="note_on"/>
                    <par_bool value="yes" name="poly_mode"/>
                    <par value="0" name="legato_mode"/>
                    <par value="15" name="key_limit"/>
                    <INSTRUMENT>
                      <INFO>
                        <string name="name">Fantasia</string>
                        <string name="author">Will Godfrey
GPL V 2 or later</string>
                        <string name="comments">Derived from one of Paul's Bells voices</string>
                        <par value="1" name="type"/>
                      </INFO>
                      <INSTRUMENT_KIT>
                        <par value="0" name="kit_mode"/>
                        <par_bool value="no" name="drum_mode"/>
                        <INSTRUMENT_KIT_ITEM id="0">
                          <par_bool value="yes" name="enabled"/>
                          <string name="name"/>
                          <par_bool value="no" name="muted"/>
                          <par value="0" name="min_key"/>
                          <par value="127" name="max_key"/>
                          <par value="0" name="send_to_instrument_effect"/>
                          <par_bool value="yes" name="add_enabled"/>
                          <ADD_SYNTH_PARAMETERS>
                            <par_bool value="yes" name="stereo"/>
                            <AMPLITUDE_PARAMETERS>
                              <par value="90" name="volume"/>
                              <par value="64" name="panning"/>
                              <par value="64" name="velocity_sensing"/>
                              <par value="0" name="punch_strength"/>
                              <par value="60" name="punch_time"/>
                              <par value="64" name="punch_stretch"/>
                              <par value="72" name="punch_velocity_sensing"/>
                              <par value="0" name="harmonic_randomness_grouping"/>
                              <AMPLITUDE_ENVELOPE>
                                <par_bool value="no" name="free_mode"/>
                                <par value="4" name="env_points"/>
                                <par value="2" name="env_sustain"/>
                                <par value="64" name="env_stretch"/>
                                <par_bool value="yes" name="forced_release"/>
                                <par_bool value="no" name="linear_envelope"/>
                                <par value="0" name="A_dt"/>
                                <par value="40" name="D_dt"/>
                                <par value="25" name="R_dt"/>
                                <par value="64" name="A_val"/>
                                <par value="64" name="D_val"/>
                                <par value="127" name="S_val"/>
                                <par value="64" name="R_val"/>
                              </AMPLITUDE_ENVELOPE>
                              <AMPLITUDE_LFO>
                                <par_real value="0.629921" name="freq"/>
                                <par value="0" name="intensity"/>
                                <par value="64" name="start_phase"/>
                                <par value="0" name="lfo_type"/>
                                <par value="0" name="randomness_amplitude"/>
                                <par value="0" name="randomness_frequency"/>
                                <par value="0" name="delay"/>
                                <par value="64" name="stretch"/>
                                <par_bool value="no" name="continous"/>
                              </AMPLITUDE_LFO>
                            </AMPLITUDE_PARAMETERS>
                            <FREQUENCY_PARAMETERS>
                              <par value="8213" name="detune"/>
                              <par value="0" name="coarse_detune"/>
                              <par value="1" name="detune_type"/>
                              <par value="64" name="bandwidth"/>
                              <FREQUENCY_ENVELOPE>
                                <par_bool value="no" name="free_mode"/>
                                <par value="3" name="env_points"/>
                                <par value="1" name="env_sustain"/>
                                <par value="0" name="env_stretch"/>
                                <par_bool value="no" name="forced_release"/>
                                <par_bool value="no" name="linear_envelope"/>
                                <par value="50" name="A_dt"/>
                                <par value="10" name="D_dt"/>
                                <par value="60" name="R_dt"/>
                                <par value="64" name="A_val"/>
                                <par value="64" name="D_val"/>
                                <par value="64" name="S_val"/>
                                <par value="64" name="R_val"/>
                              </FREQUENCY_ENVELOPE>
                              <FREQUENCY_LFO>
                                <par_real value="0.551181" name="freq"/>
                                <par value="0" name="intensity"/>
                                <par value="64" name="start_phase"/>
                                <par value="0" name="lfo_type"/>
                                <par value="0" name="randomness_amplitude"/>
                                <par value="0" name="randomness_frequency"/>
                                <par value="0" name="delay"/>
                                <par value="64" name="stretch"/>
                                <par_bool value="no" name="continous"/>
                              </FREQUENCY_LFO>
                            </FREQUENCY_PARAMETERS>
                            <FILTER_PARAMETERS>
                              <par value="64" name="velocity_sensing_amplitude"/>
                              <par value="64" name="velocity_sensing"/>
                              <FILTER>
                                <par value="0" name="category"/>
                                <par value="2" name="type"/>
                                <par value="94" name="freq"/>
                                <par value="40" name="q"/>
                                <par value="0" name="stages"/>
                                <par value="64" name="freq_track"/>
                                <par value="64" name="gain"/>
                              </FILTER>
                              <FILTER_ENVELOPE>
                                <par_bool value="no" name="free_mode"/>
                                <par value="4" name="env_points"/>
                                <par value="2" name="env_sustain"/>
                                <par value="0" name="env_stretch"/>
                                <par_bool value="yes" name="forced_release"/>
                                <par_bool value="no" name="linear_envelope"/>
                                <par value="40" name="A_dt"/>
                                <par value="70" name="D_dt"/>
                                <par value="60" name="R_dt"/>
                                <par value="64" name="A_val"/>
                                <par value="64" name="D_val"/>
                                <par value="64" name="S_val"/>
                                <par value="64" name="R_val"/>
                              </FILTER_ENVELOPE>
                              <FILTER_LFO>
                                <par_real value="0.629921" name="freq"/>
                                <par value="0" name="intensity"/>
                                <par value="64" name="start_phase"/>
                                <par value="0" name="lfo_type"/>
                                <par value="0" name="randomness_amplitude"/>
                                <par value="0" name="randomness_frequency"/>
                                <par value="0" name="delay"/>
                                <par value="64" name="stretch"/>
                                <par_bool value="no" name="continous"/>
                              </FILTER_LFO>
                            </FILTER_PARAMETERS>
                            <RESONANCE>
                              <par_bool value="no" name="enabled"/>
                            </RESONANCE>
                            <VOICE id="0">
                              <par_bool value="yes" name="enabled"/>
                              <par value="0" name="type"/>
                              <par value="50" name="unison_size"/>
                              <par value="60" name="unison_frequency_spread"/>
                              <par value="64" name="unison_stereo_spread"/>
                              <par value="64" name="unison_vibratto"/>
                              <par value="64" name="unison_vibratto_speed"/>
                              <par value="0" name="unison_invert_phase"/>
                              <par value="127" name="unison_phase_randomness"/>
                              <par value="0" name="delay"/>
                              <par_bool value="yes" name="resonance"/>
                              <par value="-1" name="ext_oscil"/>
                              <par value="-1" name="ext_fm_oscil"/>
                              <par value="64" name="oscil_phase"/>
                              <par value="64" name="oscil_fm_phase"/>
                              <par_bool value="no" name="filter_enabled"/>
                              <par_bool value="no" name="filter_bypass"/>
                              <par value="0" name="fm_enabled"/>
                              <OSCIL>
                                <par value="0" name="harmonic_mag_type"/>
                                <par value="0" name="base_function"/>
                                <par value="64" name="base_function_par"/>
                                <par value="0" name="base_function_modulation"/>
                                <par value="64" name="base_function_modulation_par1"/>
                                <par value="64" name="base_function_modulation_par2"/>
                                <par value="32" name="base_function_modulation_par3"/>
                                <par value="0" name="modulation"/>
                                <par value="64" name="modulation_par1"/>
                                <par value="64" name="modulation_par2"/>
                                <par value="32" name="modulation_par3"/>
                                <par value="64" name="wave_shaping"/>
                                <par value="0" name="wave_shaping_function"/>
                                <par value="0" name="filter_type"/>
                                <par value="64" name="filter_par1"/>
                                <par value="64" name="filter_par2"/>
                                <par value="0" name="filter_before_wave_shaping"/>
                                <par value="0" name="spectrum_adjust_type"/>
                                <par value="64" name="spectrum_adjust_par"/>
                                <par value="64" name="rand"/>
                                <par value="0" name="amp_rand_type"/>
                                <par value="64" name="amp_rand_power"/>
                                <par value="0" name="harmonic_shift"/>
                                <par_bool value="no" name="harmonic_shift_first"/>
                                <par value="0" name="adaptive_harmonics"/>
                                <par value="128" name="adaptive_harmonics_base_frequency"/>
                                <par value="100" name="adaptive_harmonics_power"/>
                                <HARMONICS>
                                  <HARMONIC id="1">
                                    <par value="127" name="mag"/>
                                    <par value="64" name="phase"/>
                                  </HARMONIC>
                                  <HARMONIC id="2">
                                    <par value="127" name="mag"/>
                                    <par value="64" name="phase"/>
                                  </HARMONIC>
                                  <HARMONIC id="4">
                                    <par value="127" name="mag"/>
                                    <par value="64" name="phase"/>
                                  </HARMONIC>
                                  <HARMONIC id="12">
                                    <par value="80" name="mag"/>
                                    <par value="64" name="phase"/>
                                  </HARMONIC>
                                  <HARMONIC id="24">
                                    <par value="81" name="mag"/>
                                    <par value="64" name="phase"/>
                                  </HARMONIC>
                                </HARMONICS>
                              </OSCIL>
                              <AMPLITUDE_PARAMETERS>
                                <par value="64" name="panning"/>
                                <par value="100" name="volume"/>
                                <par_bool value="no" name="volume_minus"/>
                                <par value="127" name="velocity_sensing"/>
                                <par_bool value="no" name="amp_envelope_enabled"/>
                                <par_bool value="no" name="amp_lfo_enabled"/>
                              </AMPLITUDE_PARAMETERS>
                              <FREQUENCY_PARAMETERS>
                                <par_bool value="no" name="fixed_freq"/>
                                <par value="0" name="fixed_freq_et"/>
                                <par value="8192" name="detune"/>
                                <par value="0" name="coarse_detune"/>
                                <par value="0" name="detune_type"/>
                                <par_bool value="no" name="freq_envelope_enabled"/>
                                <par_bool value="no" name="freq_lfo_enabled"/>
                              </FREQUENCY_PARAMETERS>
                            </VOICE>
                            <VOICE id="1">
                              <par_bool value="no" name="enabled"/>
                            </VOICE>
                            <VOICE id="2">
                              <par_bool value="no" name="enabled"/>
                            </VOICE>
                            <VOICE id="3">
                              <par_bool value="no" name="enabled"/>
                            </VOICE>
                            <VOICE id="4">
                              <par_bool value="no" name="enabled"/>
                            </VOICE>
                            <VOICE id="5">
                              <par_bool value="no" name="enabled"/>
                            </VOICE>
                            <VOICE id="6">
                              <par_bool value="no" name="enabled"/>
                            </VOICE>
                            <VOICE id="7">
                              <par_bool value="no" name="enabled"/>
                            </VOICE>
                          </ADD_SYNTH_PARAMETERS>
                          <par_bool value="no" name="sub_enabled"/>
                          <par_bool value="yes" name="pad_enabled"/>
                          <PAD_SYNTH_PARAMETERS>
                            <par_bool value="yes" name="stereo"/>
                            <par value="0" name="mode"/>
                            <par value="485" name="bandwidth"/>
                            <par value="0" name="bandwidth_scale"/>
                            <HARMONIC_PROFILE>
                              <par value="0" name="base_type"/>
                              <par value="99" name="base_par1"/>
                              <par value="11" name="frequency_multiplier"/>
                              <par value="0" name="modulator_par1"/>
                              <par value="55" name="modulator_frequency"/>
                              <par value="127" name="width"/>
                              <par value="0" name="amplitude_multiplier_type"/>
                              <par value="2" name="amplitude_multiplier_mode"/>
                              <par value="80" name="amplitude_multiplier_par1"/>
                              <par value="4" name="amplitude_multiplier_par2"/>
                              <par_bool value="yes" name="autoscale"/>
                              <par value="0" name="one_half"/>
                            </HARMONIC_PROFILE>
                            <OSCIL>
                              <par value="0" name="harmonic_mag_type"/>
                              <par value="0" name="base_function"/>
                              <par value="48" name="base_function_par"/>
                              <par value="0" name="base_function_modulation"/>
                              <par value="64" name="base_function_modulation_par1"/>
                              <par value="64" name="base_function_modulation_par2"/>
                              <par value="32" name="base_function_modulation_par3"/>
                              <par value="0" name="modulation"/>
                              <par value="64" name="modulation_par1"/>
                              <par value="64" name="modulation_par2"/>
                              <par value="32" name="modulation_par3"/>
                              <par value="121" name="wave_shaping"/>
                              <par value="14" name="wave_shaping_function"/>
                              <par value="13" name="filter_type"/>
                              <par value="23" name="filter_par1"/>
                              <par value="92" name="filter_par2"/>
                              <par value="0" name="filter_before_wave_shaping"/>
                              <par value="0" name="spectrum_adjust_type"/>
                              <par value="49" name="spectrum_adjust_par"/>
                              <par value="64" name="rand"/>
                              <par value="0" name="amp_rand_type"/>
                              <par value="64" name="amp_rand_power"/>
                              <par value="0" name="harmonic_shift"/>
                              <par_bool value="no" name="harmonic_shift_first"/>
                              <par value="0" name="adaptive_harmonics"/>
                              <par value="114" name="adaptive_harmonics_base_frequency"/>
                              <par value="63" name="adaptive_harmonics_power"/>
                              <HARMONICS>
                                <HARMONIC id="1">
                                  <par value="127" name="mag"/>
                                  <par value="64" name="phase"/>
                                </HARMONIC>
                                <HARMONIC id="2">
                                  <par value="75" name="mag"/>
                                  <par value="64" name="phase"/>
                                </HARMONIC>
                                <HARMONIC id="4">
                                  <par value="84" name="mag"/>
                                  <par value="64" name="phase"/>
                                </HARMONIC>
                              </HARMONICS>
                            </OSCIL>
                            <RESONANCE>
                              <par_bool value="no" name="enabled"/>
                            </RESONANCE>
                            <HARMONIC_POSITION>
                              <par value="6" name="type"/>
                              <par value="176" name="parameter1"/>
                              <par value="159" name="parameter2"/>
                              <par value="255" name="parameter3"/>
                            </HARMONIC_POSITION>
                            <SAMPLE_QUALITY>
                              <par value="3" name="samplesize"/>
                              <par value="5" name="basenote"/>
                              <par value="4" name="octaves"/>
                              <par value="2" name="samples_per_octave"/>
                            </SAMPLE_QUALITY>
                            <AMPLITUDE_PARAMETERS>
                              <par value="98" name="volume"/>
                              <par value="64" name="panning"/>
                              <par value="73" name="velocity_sensing"/>
                              <par value="37" name="punch_strength"/>
                              <par value="60" name="punch_time"/>
                              <par value="64" name="punch_stretch"/>
                              <par value="56" name="punch_velocity_sensing"/>
                              <AMPLITUDE_ENVELOPE>
                                <par_bool value="no" name="free_mode"/>
                                <par value="4" name="env_points"/>
                                <par value="2" name="env_sustain"/>
                                <par value="36" name="env_stretch"/>
                                <par_bool value="yes" name="forced_release"/>
                                <par_bool value="no" name="linear_envelope"/>
                                <par value="14" name="A_dt"/>
                                <par value="113" name="D_dt"/>
                                <par value="15" name="R_dt"/>
                                <par value="64" name="A_val"/>
                                <par value="64" name="D_val"/>
                                <par value="0" name="S_val"/>
                                <par value="64" name="R_val"/>
                              </AMPLITUDE_ENVELOPE>
                              <AMPLITUDE_LFO>
                                <par_real value="0.629921" name="freq"/>
                                <par value="0" name="intensity"/>
                                <par value="64" name="start_phase"/>
                                <par value="0" name="lfo_type"/>
                                <par value="0" name="randomness_amplitude"/>
                                <par value="0" name="randomness_frequency"/>
                                <par value="0" name="delay"/>
                                <par value="64" name="stretch"/>
                                <par_bool value="no" name="continous"/>
                              </AMPLITUDE_LFO>
                            </AMPLITUDE_PARAMETERS>
                            <FREQUENCY_PARAMETERS>
                              <par value="0" name="fixed_freq"/>
                              <par value="0" name="fixed_freq_et"/>
                              <par value="8192" name="detune"/>
                              <par value="0" name="coarse_detune"/>
                              <par value="1" name="detune_type"/>
                              <FREQUENCY_ENVELOPE>
                                <par_bool value="no" name="free_mode"/>
                                <par value="3" name="env_points"/>
                                <par value="1" name="env_sustain"/>
                                <par value="0" name="env_stretch"/>
                                <par_bool value="no" name="forced_release"/>
                                <par_bool value="no" name="linear_envelope"/>
                                <par value="50" name="A_dt"/>
                                <par value="10" name="D_dt"/>
                                <par value="60" name="R_dt"/>
                                <par value="64" name="A_val"/>
                                <par value="64" name="D_val"/>
                                <par value="64" name="S_val"/>
                                <par value="64" name="R_val"/>
                              </FREQUENCY_ENVELOPE>
                              <FREQUENCY_LFO>
                                <par_real value="0.610681" name="freq"/>
                                <par value="0" name="intensity"/>
                                <par value="64" name="start_phase"/>
                                <par value="0" name="lfo_type"/>
                                <par value="0" name="randomness_amplitude"/>
                                <par value="47" name="randomness_frequency"/>
                                <par value="0" name="delay"/>
                                <par value="64" name="stretch"/>
                                <par_bool value="no" name="continous"/>
                              </FREQUENCY_LFO>
                            </FREQUENCY_PARAMETERS>
                            <FILTER_PARAMETERS>
                              <par value="127" name="velocity_sensing_amplitude"/>
                              <par value="92" name="velocity_sensing"/>
                              <FILTER>
                                <par value="0" name="category"/>
                                <par value="0" name="type"/>
                                <par value="127" name="freq"/>
                                <par value="0" name="q"/>
                                <par value="2" name="stages"/>
                                <par value="63" name="freq_track"/>
                                <par value="64" name="gain"/>
                              </FILTER>
                              <FILTER_ENVELOPE>
                                <par_bool value="no" name="free_mode"/>
                                <par value="4" name="env_points"/>
                                <par value="2" name="env_sustain"/>
                                <par value="22" name="env_stretch"/>
                                <par_bool value="yes" name="forced_release"/>
                                <par_bool value="no" name="linear_envelope"/>
                                <par value="0" name="A_dt"/>
                                <par value="127" name="D_dt"/>
                                <par value="127" name="R_dt"/>
                                <par value="127" name="A_val"/>
                                <par value="127" name="D_val"/>
                                <par value="64" name="S_val"/>
                                <par value="0" name="R_val"/>
                              </FILTER_ENVELOPE>
                              <FILTER_LFO>
                                <par_real value="0.484921" name="freq"/>
                                <par value="13" name="intensity"/>
                                <par value="59" name="start_phase"/>
                                <par value="0" name="lfo_type"/>
                                <par value="0" name="randomness_amplitude"/>
                                <par value="0" name="randomness_frequency"/>
                                <par value="0" name="delay"/>
                                <par value="64" name="stretch"/>
                                <par_bool value="no" name="continous"/>
                              </FILTER_LFO>
                            </FILTER_PARAMETERS>
                          </PAD_SYNTH_PARAMETERS>
                        </INSTRUMENT_KIT_ITEM>
                        <INSTRUMENT_KIT_ITEM id="1">
                          <par_bool value="no" name="enabled"/>
                        </INSTRUMENT_KIT_ITEM>
                        <INSTRUMENT_KIT_ITEM id="2">
                          <par_bool value="no" name="enabled"/>
                        </INSTRUMENT_KIT_ITEM>
                        <INSTRUMENT_KIT_ITEM id="3">
                          <par_bool value="no" name="enabled"/>
                        </INSTRUMENT_KIT_ITEM>
                        <INSTRUMENT_KIT_ITEM id="4">
                          <par_bool value="no" name="enabled"/>
                        </INSTRUMENT_KIT_ITEM>
                        <INSTRUMENT_KIT_ITEM id="5">
                          <par_bool value="no" name="enabled"/>
                        </INSTRUMENT_KIT_ITEM>
                        <INSTRUMENT_KIT_ITEM id="6">
                          <par_bool value="no" name="enabled"/>
                        </INSTRUMENT_KIT_ITEM>
                        <INSTRUMENT_KIT_ITEM id="7">
                          <par_bool value="no" name="enabled"/>
                        </INSTRUMENT_KIT_ITEM>
                        <INSTRUMENT_KIT_ITEM id="8">
                          <par_bool value="no" name="enabled"/>
                        </INSTRUMENT_KIT_ITEM>
                        <INSTRUMENT_KIT_ITEM id="9">
                          <par_bool value="no" name="enabled"/>
                        </INSTRUMENT_KIT_ITEM>
                        <INSTRUMENT_KIT_ITEM id="10">
                          <par_bool value="no" name="enabled"/>
                        </INSTRUMENT_KIT_ITEM>
                        <INSTRUMENT_KIT_ITEM id="11">
                          <par_bool value="no" name="enabled"/>
                        </INSTRUMENT_KIT_ITEM>
                        <INSTRUMENT_KIT_ITEM id="12">
                          <par_bool value="no" name="enabled"/>
                        </INSTRUMENT_KIT_ITEM>
                        <INSTRUMENT_KIT_ITEM id="13">
                          <par_bool value="no" name="enabled"/>
                        </INSTRUMENT_KIT_ITEM>
                        <INSTRUMENT_KIT_ITEM id="14">
                          <par_bool value="no" name="enabled"/>
                        </INSTRUMENT_KIT_ITEM>
                        <INSTRUMENT_KIT_ITEM id="15">
                          <par_bool value="no" name="enabled"/>
                        </INSTRUMENT_KIT_ITEM>
                      </INSTRUMENT_KIT>
                      <INSTRUMENT_EFFECTS>
                        <INSTRUMENT_EFFECT id="0">
                          <EFFECT>
                            <par value="3" name="type"/>
                            <par value="0" name="preset"/>
                            <EFFECT_PARAMETERS>
                              <par_no id="0">
                                <par value="127" name="par"/>
                              </par_no>
                              <par_no id="1">
                                <par value="64" name="par"/>
                              </par_no>
                              <par_no id="2">
                                <par value="80" name="par"/>
                              </par_no>
                              <par_no id="5">
                                <par value="127" name="par"/>
                              </par_no>
                              <par_no id="6">
                                <par value="17" name="par"/>
                              </par_no>
                              <par_no id="7">
                                <par value="85" name="par"/>
                              </par_no>
                              <par_no id="8">
                                <par value="102" name="par"/>
                              </par_no>
                              <par_no id="9">
                                <par value="119" name="par"/>
                              </par_no>
                            </EFFECT_PARAMETERS>
                          </EFFECT>
                          <par value="0" name="route"/>
                          <par_bool value="yes" name="bypass"/>
                        </INSTRUMENT_EFFECT>
                        <INSTRUMENT_EFFECT id="1">
                          <EFFECT>
                            <par value="0" name="type"/>
                          </EFFECT>
                          <par value="0" name="route"/>
                          <par_bool value="no" name="bypass"/>
                        </INSTRUMENT_EFFECT>
                        <INSTRUMENT_EFFECT id="2">
                          <EFFECT>
                            <par value="0" name="type"/>
                          </EFFECT>
                          <par value="0" name="route"/>
                          <par_bool value="no" name="bypass"/>
                        </INSTRUMENT_EFFECT>
                      </INSTRUMENT_EFFECTS>
                    </INSTRUMENT>
                    <CONTROLLER>
                      <par value="100" name="pitchwheel_bendrange"/>
                      <par_bool value="yes" name="expression_receive"/>
                      <par value="64" name="panning_depth"/>
                      <par value="64" name="filter_cutoff_depth"/>
                      <par value="64" name="filter_q_depth"/>
                      <par value="64" name="bandwidth_depth"/>
                      <par value="80" name="mod_wheel_depth"/>
                      <par_bool value="no" name="mod_wheel_exponential"/>
                      <par_bool value="yes" name="fm_amp_receive"/>
                      <par_bool value="yes" name="volume_receive"/>
                      <par_bool value="yes" name="sustain_receive"/>
                      <par_bool value="yes" name="portamento_receive"/>
                      <par value="64" name="portamento_time"/>
                      <par value="3" name="portamento_pitchthresh"/>
                      <par value="1" name="portamento_pitchthreshtype"/>
                      <par value="0" name="portamento_portamento"/>
                      <par value="64" name="portamento_updowntimestretch"/>
                      <par value="0" name="portamento_proportional"/>
                      <par value="80" name="portamento_proprate"/>
                      <par value="90" name="portamento_propdepth"/>
                      <par value="64" name="resonance_center_depth"/>
                      <par value="64" name="resonance_bandwidth_depth"/>
                    </CONTROLLER>
                  </PART>
                  <PART id="1">
                    <par_bool value="no" name="enabled"/>
                  </PART>
                  <PART id="2">
                    <par_bool value="no" name="enabled"/>
                  </PART>
                  <PART id="3">
                    <par_bool value="no" name="enabled"/>
                  </PART>
                  <PART id="4">
                    <par_bool value="no" name="enabled"/>
                  </PART>
                  <PART id="5">
                    <par_bool value="no" name="enabled"/>
                  </PART>
                  <PART id="6">
                    <par_bool value="no" name="enabled"/>
                  </PART>
                  <PART id="7">
                    <par_bool value="no" name="enabled"/>
                  </PART>
                  <PART id="8">
                    <par_bool value="no" name="enabled"/>
                  </PART>
                  <PART id="9">
                    <par_bool value="no" name="enabled"/>
                  </PART>
                  <PART id="10">
                    <par_bool value="no" name="enabled"/>
                  </PART>
                  <PART id="11">
                    <par_bool value="no" name="enabled"/>
                  </PART>
                  <PART id="12">
                    <par_bool value="no" name="enabled"/>
                  </PART>
                  <PART id="13">
                    <par_bool value="no" name="enabled"/>
                  </PART>
                  <PART id="14">
                    <par_bool value="no" name="enabled"/>
                  </PART>
                  <PART id="15">
                    <par_bool value="no" name="enabled"/>
                  </PART>
                  <SYSTEM_EFFECTS>
                    <SYSTEM_EFFECT id="0">
                      <EFFECT>
                        <par value="0" name="type"/>
                      </EFFECT>
                      <VOLUME id="0">
                        <par value="0" name="vol"/>
                      </VOLUME>
                      <VOLUME id="1">
                        <par value="0" name="vol"/>
                      </VOLUME>
                      <VOLUME id="2">
                        <par value="0" name="vol"/>
                      </VOLUME>
                      <VOLUME id="3">
                        <par value="0" name="vol"/>
                      </VOLUME>
                      <VOLUME id="4">
                        <par value="0" name="vol"/>
                      </VOLUME>
                      <VOLUME id="5">
                        <par value="0" name="vol"/>
                      </VOLUME>
                      <VOLUME id="6">
                        <par value="0" name="vol"/>
                      </VOLUME>
                      <VOLUME id="7">
                        <par value="0" name="vol"/>
                      </VOLUME>
                      <VOLUME id="8">
                        <par value="0" name="vol"/>
                      </VOLUME>
                      <VOLUME id="9">
                        <par value="0" name="vol"/>
                      </VOLUME>
                      <VOLUME id="10">
                        <par value="0" name="vol"/>
                      </VOLUME>
                      <VOLUME id="11">
                        <par value="0" name="vol"/>
                      </VOLUME>
                      <VOLUME id="12">
                        <par value="0" name="vol"/>
                      </VOLUME>
                      <VOLUME id="13">
                        <par value="0" name="vol"/>
                      </VOLUME>
                      <VOLUME id="14">
                        <par value="0" name="vol"/>
                      </VOLUME>
                      <VOLUME id="15">
                        <par value="0" name="vol"/>
                      </VOLUME>
                      <SENDTO id="1">
                        <par value="0" name="send_vol"/>
                      </SENDTO>
                      <SENDTO id="2">
                        <par value="0" name="send_vol"/>
                      </SENDTO>
                      <SENDTO id="3">
                        <par value="0" name="send_vol"/>
                      </SENDTO>
                    </SYSTEM_EFFECT>
                    <SYSTEM_EFFECT id="1">
                      <EFFECT>
                        <par value="0" name="type"/>
                      </EFFECT>
                      <VOLUME id="0">
                        <par value="0" name="vol"/>
                      </VOLUME>
                      <VOLUME id="1">
                        <par value="0" name="vol"/>
                      </VOLUME>
                      <VOLUME id="2">
                        <par value="0" name="vol"/>
                      </VOLUME>
                      <VOLUME id="3">
                        <par value="0" name="vol"/>
                      </VOLUME>
                      <VOLUME id="4">
                        <par value="0" name="vol"/>
                      </VOLUME>
                      <VOLUME id="5">
                        <par value="0" name="vol"/>
                      </VOLUME>
                      <VOLUME id="6">
                        <par value="0" name="vol"/>
                      </VOLUME>
                      <VOLUME id="7">
                        <par value="0" name="vol"/>
                      </VOLUME>
                      <VOLUME id="8">
                        <par value="0" name="vol"/>
                      </VOLUME>
                      <VOLUME id="9">
                        <par value="0" name="vol"/>
                      </VOLUME>
                      <VOLUME id="10">
                        <par value="0" name="vol"/>
                      </VOLUME>
                      <VOLUME id="11">
                        <par value="0" name="vol"/>
                      </VOLUME>
                      <VOLUME id="12">
                        <par value="0" name="vol"/>
                      </VOLUME>
                      <VOLUME id="13">
                        <par value="0" name="vol"/>
                      </VOLUME>
                      <VOLUME id="14">
                        <par value="0" name="vol"/>
                      </VOLUME>
                      <VOLUME id="15">
                        <par value="0" name="vol"/>
                      </VOLUME>
                      <SENDTO id="2">
                        <par value="0" name="send_vol"/>
                      </SENDTO>
                      <SENDTO id="3">
                        <par value="0" name="send_vol"/>
                      </SENDTO>
                    </SYSTEM_EFFECT>
                    <SYSTEM_EFFECT id="2">
                      <EFFECT>
                        <par value="0" name="type"/>
                      </EFFECT>
                      <VOLUME id="0">
                        <par value="0" name="vol"/>
                      </VOLUME>
                      <VOLUME id="1">
                        <par value="0" name="vol"/>
                      </VOLUME>
                      <VOLUME id="2">
                        <par value="0" name="vol"/>
                      </VOLUME>
                      <VOLUME id="3">
                        <par value="0" name="vol"/>
                      </VOLUME>
                      <VOLUME id="4">
                        <par value="0" name="vol"/>
                      </VOLUME>
                      <VOLUME id="5">
                        <par value="0" name="vol"/>
                      </VOLUME>
                      <VOLUME id="6">
                        <par value="0" name="vol"/>
                      </VOLUME>
                      <VOLUME id="7">
                        <par value="0" name="vol"/>
                      </VOLUME>
                      <VOLUME id="8">
                        <par value="0" name="vol"/>
                      </VOLUME>
                      <VOLUME id="9">
                        <par value="0" name="vol"/>
                      </VOLUME>
                      <VOLUME id="10">
                        <par value="0" name="vol"/>
                      </VOLUME>
                      <VOLUME id="11">
                        <par value="0" name="vol"/>
                      </VOLUME>
                      <VOLUME id="12">
                        <par value="0" name="vol"/>
                      </VOLUME>
                      <VOLUME id="13">
                        <par value="0" name="vol"/>
                      </VOLUME>
                      <VOLUME id="14">
                        <par value="0" name="vol"/>
                      </VOLUME>
                      <VOLUME id="15">
                        <par value="0" name="vol"/>
                      </VOLUME>
                      <SENDTO id="3">
                        <par value="0" name="send_vol"/>
                      </SENDTO>
                    </SYSTEM_EFFECT>
                    <SYSTEM_EFFECT id="3">
                      <EFFECT>
                        <par value="0" name="type"/>
                      </EFFECT>
                      <VOLUME id="0">
                        <par value="0" name="vol"/>
                      </VOLUME>
                      <VOLUME id="1">
                        <par value="0" name="vol"/>
                      </VOLUME>
                      <VOLUME id="2">
                        <par value="0" name="vol"/>
                      </VOLUME>
                      <VOLUME id="3">
                        <par value="0" name="vol"/>
                      </VOLUME>
                      <VOLUME id="4">
                        <par value="0" name="vol"/>
                      </VOLUME>
                      <VOLUME id="5">
                        <par value="0" name="vol"/>
                      </VOLUME>
                      <VOLUME id="6">
                        <par value="0" name="vol"/>
                      </VOLUME>
                      <VOLUME id="7">
                        <par value="0" name="vol"/>
                      </VOLUME>
                      <VOLUME id="8">
                        <par value="0" name="vol"/>
                      </VOLUME>
                      <VOLUME id="9">
                        <par value="0" name="vol"/>
                      </VOLUME>
                      <VOLUME id="10">
                        <par value="0" name="vol"/>
                      </VOLUME>
                      <VOLUME id="11">
                        <par value="0" name="vol"/>
                      </VOLUME>
                      <VOLUME id="12">
                        <par value="0" name="vol"/>
                      </VOLUME>
                      <VOLUME id="13">
                        <par value="0" name="vol"/>
                      </VOLUME>
                      <VOLUME id="14">
                        <par value="0" name="vol"/>
                      </VOLUME>
                      <VOLUME id="15">
                        <par value="0" name="vol"/>
                      </VOLUME>
                    </SYSTEM_EFFECT>
                  </SYSTEM_EFFECTS>
                  <INSERTION_EFFECTS>
                    <INSERTION_EFFECT id="0">
                      <par value="-1" name="part"/>
                      <EFFECT>
                        <par value="0" name="type"/>
                      </EFFECT>
                    </INSERTION_EFFECT>
                    <INSERTION_EFFECT id="1">
                      <par value="-1" name="part"/>
                      <EFFECT>
                        <par value="0" name="type"/>
                      </EFFECT>
                    </INSERTION_EFFECT>
                    <INSERTION_EFFECT id="2">
                      <par value="-1" name="part"/>
                      <EFFECT>
                        <par value="0" name="type"/>
                      </EFFECT>
                    </INSERTION_EFFECT>
                    <INSERTION_EFFECT id="3">
                      <par value="-1" name="part"/>
                      <EFFECT>
                        <par value="0" name="type"/>
                      </EFFECT>
                    </INSERTION_EFFECT>
                    <INSERTION_EFFECT id="4">
                      <par value="-1" name="part"/>
                      <EFFECT>
                        <par value="0" name="type"/>
                      </EFFECT>
                    </INSERTION_EFFECT>
                    <INSERTION_EFFECT id="5">
                      <par value="-1" name="part"/>
                      <EFFECT>
                        <par value="0" name="type"/>
                      </EFFECT>
                    </INSERTION_EFFECT>
                    <INSERTION_EFFECT id="6">
                      <par value="-1" name="part"/>
                      <EFFECT>
                        <par value="0" name="type"/>
                      </EFFECT>
                    </INSERTION_EFFECT>
                    <INSERTION_EFFECT id="7">
                      <par value="-1" name="part"/>
                      <EFFECT>
                        <par value="0" name="type"/>
                      </EFFECT>
                    </INSERTION_EFFECT>
                  </INSERTION_EFFECTS>
                </MASTER>
              </ZynAddSubFX-data>
              <key/>
            </zynaddsubfx>
          </instrument>
          <eldata fcut="14000" fres="0.5" ftype="0" fwet="0">
            <elvol lspd_syncmode="0" amt="0" lshp="0" lpdel="0" att="0" ctlenvamt="0" dec="0.5" userwavefile="" x100="0" rel="0.1" sustain="0.5" lspd_numerator="4" latt="0" lspd="0.1" lamt="0" lspd_denominator="4" hold="0.5" pdel="0"/>
            <elcut lspd_syncmode="0" amt="0" lshp="0" lpdel="0" att="0" ctlenvamt="0" dec="0.5" userwavefile="" x100="0" rel="0.1" sustain="0.5" lspd_numerator="4" latt="0" lspd="0.1" lamt="0" lspd_denominator="4" hold="0.5" pdel="0"/>
            <elres lspd_syncmode="0" amt="0" lshp="0" lpdel="0" att="0" ctlenvamt="0" dec="0.5" userwavefile="" x100="0" rel="0.1" sustain="0.5" lspd_numerator="4" latt="0" lspd="0.1" lamt="0" lspd_denominator="4" hold="0.5" pdel="0"/>
          </eldata>
          <chordcreator chordrange="1" chord-enabled="0" chord="0"/>
          <arpeggiator arprange="1" arpmode="0" arpcycle="0" arptime_syncmode="0" arptime_numerator="4" arpgate="100" arptime="200" arpskip="0" arpmiss="0" arp="0" arptime_denominator="4" arp-enabled="0" arpdir="0"/>
          <midiport inputcontroller="0" outputcontroller="0" readable="0" outputchannel="1" fixedoutputvelocity="-1" outputprogram="1" fixedinputvelocity="-1" fixedoutputnote="-1" inputchannel="0" basevelocity="63" writable="0"/>
          <fxchain enabled="1" numofeffects="1">
            <effect autoquit_syncmode="0" autoquit_denominator="4" autoquit="1" gate="0" wet="1" name="ladspaeffect" on="1" autoquit_numerator="4">
              <ladspacontrols ports="12" link="1">
                <port01 data_numerator="4" data_denominator="4" data_syncmode="0" link="1">
                  <data scale_type="log" value="2.95313" id="3333524"/>
                </port01>
                <port02 data="6.67375" data_numerator="4" data_denominator="4" data_syncmode="0" link="1"/>
                <port03 data="1.45" link="1"/>
                <port04 data="1" link="1"/>
                <port05 data="0.37875" link="1"/>
                <port06 data="0.2825" link="1"/>
                <port11 data_numerator="4" data_denominator="4" data_syncmode="0">
                  <data scale_type="log" value="2.95313" id="1009611"/>
                </port11>
                <port12 data="6.67375" data_numerator="4" data_denominator="4" data_syncmode="0"/>
                <port13 data="1.45"/>
                <port14 data="1"/>
                <port15 data="0.37875"/>
                <port16 data="0.2825"/>
              </ladspacontrols>
              <key>
                <attribute value="caps" name="file"/>
                <attribute value="ChorusI" name="plugin"/>
              </key>
            </effect>
          </fxchain>
        </instrumenttrack>
        <pattern steps="16" muted="0" pos="8064" name="" type="1">
          <note pan="0" key="61" len="24" vol="78" pos="0"/>
          <note pan="0" key="68" len="24" vol="78" pos="24"/>
          <note pan="0" key="73" len="24" vol="78" pos="48"/>
          <note pan="0" key="68" len="24" vol="78" pos="72"/>
          <note pan="0" key="76" len="24" vol="78" pos="96"/>
          <note pan="0" key="68" len="24" vol="78" pos="120"/>
          <note pan="0" key="73" len="24" vol="78" pos="144"/>
          <note pan="0" key="68" len="24" vol="78" pos="168"/>
          <note pan="0" key="63" len="24" vol="78" pos="192"/>
          <note pan="0" key="68" len="24" vol="78" pos="216"/>
          <note pan="0" key="71" len="24" vol="78" pos="240"/>
          <note pan="0" key="68" len="24" vol="78" pos="264"/>
          <note pan="0" key="63" len="24" vol="78" pos="288"/>
          <note pan="0" key="68" len="24" vol="78" pos="312"/>
          <note pan="0" key="71" len="24" vol="78" pos="336"/>
          <note pan="0" key="68" len="24" vol="78" pos="360"/>
          <note pan="0" key="64" len="24" vol="78" pos="384"/>
          <note pan="0" key="68" len="24" vol="78" pos="408"/>
          <note pan="0" key="73" len="24" vol="78" pos="432"/>
          <note pan="0" key="68" len="24" vol="78" pos="456"/>
          <note pan="0" key="64" len="24" vol="78" pos="480"/>
          <note pan="0" key="68" len="24" vol="78" pos="504"/>
          <note pan="0" key="73" len="24" vol="78" pos="528"/>
          <note pan="0" key="68" len="24" vol="78" pos="552"/>
          <note pan="0" key="66" len="24" vol="78" pos="576"/>
          <note pan="0" key="71" len="24" vol="78" pos="600"/>
          <note pan="0" key="76" len="24" vol="78" pos="624"/>
          <note pan="0" key="71" len="24" vol="78" pos="648"/>
          <note pan="0" key="66" len="24" vol="78" pos="672"/>
          <note pan="0" key="71" len="24" vol="78" pos="696"/>
          <note pan="0" key="75" len="24" vol="78" pos="720"/>
          <note pan="0" key="71" len="24" vol="78" pos="744"/>
          <note pan="0" key="64" len="24" vol="78" pos="768"/>
          <note pan="0" key="68" len="24" vol="78" pos="792"/>
          <note pan="0" key="73" len="24" vol="78" pos="816"/>
          <note pan="0" key="68" len="24" vol="78" pos="840"/>
          <note pan="0" key="64" len="24" vol="78" pos="864"/>
          <note pan="0" key="68" len="24" vol="78" pos="888"/>
          <note pan="0" key="73" len="24" vol="78" pos="912"/>
          <note pan="0" key="68" len="24" vol="78" pos="936"/>
          <note pan="0" key="63" len="24" vol="78" pos="960"/>
          <note pan="0" key="66" len="24" vol="78" pos="984"/>
          <note pan="0" key="71" len="24" vol="78" pos="1008"/>
          <note pan="0" key="66" len="24" vol="78" pos="1032"/>
          <note pan="0" key="63" len="24" vol="78" pos="1056"/>
          <note pan="0" key="66" len="24" vol="78" pos="1080"/>
          <note pan="0" key="71" len="24" vol="78" pos="1104"/>
          <note pan="0" key="66" len="24" vol="78" pos="1128"/>
          <note pan="0" key="64" len="24" vol="78" pos="1152"/>
          <note pan="0" key="68" len="24" vol="78" pos="1176"/>
          <note pan="0" key="73" len="24" vol="78" pos="1200"/>
          <note pan="0" key="68" len="24" vol="78" pos="1224"/>
          <note pan="0" key="64" len="24" vol="78" pos="1248"/>
          <note pan="0" key="68" len="24" vol="78" pos="1272"/>
          <note pan="0" key="73" len="24" vol="78" pos="1296"/>
          <note pan="0" key="68" len="24" vol="78" pos="1320"/>
          <note pan="0" key="66" len="24" vol="78" pos="1344"/>
          <note pan="0" key="68" len="24" vol="78" pos="1368"/>
          <note pan="0" key="66" len="24" vol="78" pos="1392"/>
          <note pan="0" key="64" len="24" vol="78" pos="1416"/>
          <note pan="0" key="63" len="24" vol="78" pos="1440"/>
          <note pan="0" key="60" len="24" vol="78" pos="1464"/>
          <note pan="0" key="66" len="24" vol="78" pos="1488"/>
          <note pan="0" key="63" len="24" vol="78" pos="1512"/>
          <note pan="0" key="61" len="24" vol="78" pos="1536"/>
          <note pan="0" key="68" len="24" vol="78" pos="1560"/>
          <note pan="0" key="73" len="24" vol="78" pos="1584"/>
          <note pan="0" key="68" len="24" vol="78" pos="1608"/>
          <note pan="0" key="61" len="24" vol="78" pos="1632"/>
          <note pan="0" key="68" len="24" vol="78" pos="1656"/>
          <note pan="0" key="73" len="24" vol="78" pos="1680"/>
          <note pan="0" key="68" len="24" vol="78" pos="1704"/>
          <note pan="0" key="63" len="24" vol="78" pos="1728"/>
          <note pan="0" key="68" len="24" vol="78" pos="1752"/>
          <note pan="0" key="71" len="24" vol="78" pos="1776"/>
          <note pan="0" key="68" len="24" vol="78" pos="1800"/>
          <note pan="0" key="63" len="24" vol="78" pos="1824"/>
          <note pan="0" key="68" len="24" vol="78" pos="1848"/>
          <note pan="0" key="71" len="24" vol="78" pos="1872"/>
          <note pan="0" key="68" len="24" vol="78" pos="1896"/>
          <note pan="0" key="61" len="24" vol="78" pos="1920"/>
          <note pan="0" key="66" len="24" vol="78" pos="1944"/>
          <note pan="0" key="70" len="24" vol="78" pos="1968"/>
          <note pan="0" key="66" len="24" vol="78" pos="1992"/>
          <note pan="0" key="61" len="24" vol="78" pos="2016"/>
          <note pan="0" key="66" len="24" vol="78" pos="2040"/>
          <note pan="0" key="70" len="24" vol="78" pos="2064"/>
          <note pan="0" key="66" len="24" vol="78" pos="2088"/>
          <note pan="0" key="61" len="24" vol="78" pos="2112"/>
          <note pan="0" key="66" len="24" vol="78" pos="2136"/>
          <note pan="0" key="70" len="24" vol="78" pos="2160"/>
          <note pan="0" key="66" len="24" vol="78" pos="2184"/>
          <note pan="0" key="61" len="24" vol="78" pos="2208"/>
          <note pan="0" key="66" len="24" vol="78" pos="2232"/>
          <note pan="0" key="70" len="24" vol="78" pos="2256"/>
          <note pan="0" key="66" len="24" vol="78" pos="2280"/>
          <note pan="0" key="66" len="24" vol="78" pos="2304"/>
          <note pan="0" key="69" len="24" vol="78" pos="2328"/>
          <note pan="0" key="73" len="24" vol="78" pos="2352"/>
          <note pan="0" key="69" len="24" vol="78" pos="2376"/>
          <note pan="0" key="66" len="24" vol="78" pos="2400"/>
          <note pan="0" key="69" len="24" vol="78" pos="2424"/>
          <note pan="0" key="73" len="24" vol="78" pos="2448"/>
          <note pan="0" key="69" len="24" vol="78" pos="2472"/>
          <note pan="0" key="63" len="24" vol="78" pos="2496"/>
          <note pan="0" key="68" len="24" vol="78" pos="2520"/>
          <note pan="0" key="73" len="24" vol="78" pos="2544"/>
          <note pan="0" key="68" len="24" vol="78" pos="2568"/>
          <note pan="0" key="63" len="24" vol="78" pos="2592"/>
          <note pan="0" key="68" len="24" vol="78" pos="2616"/>
          <note pan="0" key="73" len="24" vol="78" pos="2640"/>
          <note pan="0" key="68" len="24" vol="78" pos="2664"/>
          <note pan="0" key="66" len="24" vol="78" pos="2688"/>
          <note pan="0" key="71" len="24" vol="78" pos="2712"/>
          <note pan="0" key="75" len="24" vol="78" pos="2736"/>
          <note pan="0" key="71" len="24" vol="78" pos="2760"/>
          <note pan="0" key="66" len="24" vol="78" pos="2784"/>
          <note pan="0" key="71" len="24" vol="78" pos="2808"/>
          <note pan="0" key="75" len="24" vol="78" pos="2832"/>
          <note pan="0" key="71" len="24" vol="78" pos="2856"/>
          <note pan="0" key="66" len="96" vol="78" pos="2880"/>
          <note pan="0" key="59" len="96" vol="78" pos="2976"/>
          <note pan="0" key="68" len="12" vol="78" pos="3072"/>
          <note pan="0" key="64" len="12" vol="78" pos="3084"/>
          <note pan="0" key="61" len="12" vol="78" pos="3096"/>
          <note pan="0" key="56" len="12" vol="78" pos="3108"/>
          <note pan="0" key="52" len="12" vol="78" pos="3120"/>
          <note pan="0" key="49" len="12" vol="78" pos="3132"/>
          <note pan="0" key="61" len="12" vol="78" pos="3168"/>
          <note pan="0" key="56" len="12" vol="78" pos="3180"/>
          <note pan="0" key="52" len="12" vol="78" pos="3192"/>
          <note pan="0" key="49" len="12" vol="78" pos="3204"/>
          <note pan="0" key="76" len="12" vol="78" pos="3216"/>
          <note pan="0" key="71" len="12" vol="78" pos="3228"/>
          <note pan="0" key="68" len="12" vol="78" pos="3240"/>
          <note pan="0" key="64" len="12" vol="78" pos="3252"/>
          <note pan="0" key="76" len="12" vol="78" pos="3264"/>
          <note pan="0" key="71" len="12" vol="78" pos="3276"/>
          <note pan="0" key="80" len="12" vol="78" pos="3288"/>
          <note pan="0" key="76" len="12" vol="78" pos="3300"/>
          <note pan="0" key="71" len="12" vol="78" pos="3312"/>
          <note pan="0" key="68" len="12" vol="78" pos="3324"/>
          <note pan="0" key="64" len="12" vol="78" pos="3336"/>
          <note pan="0" key="61" len="12" vol="78" pos="3348"/>
          <note pan="0" key="73" len="12" vol="78" pos="3360"/>
          <note pan="0" key="68" len="12" vol="78" pos="3372"/>
          <note pan="0" key="64" len="12" vol="78" pos="3384"/>
          <note pan="0" key="61" len="12" vol="78" pos="3396"/>
          <note pan="0" key="68" len="12" vol="78" pos="3408"/>
          <note pan="0" key="64" len="12" vol="78" pos="3420"/>
          <note pan="0" key="56" len="12" vol="78" pos="3432"/>
          <note pan="0" key="49" len="12" vol="78" pos="3444"/>
          <note pan="0" key="69" len="12" vol="78" pos="3456"/>
          <note pan="0" key="66" len="12" vol="78" pos="3468"/>
          <note pan="0" key="57" len="12" vol="78" pos="3480"/>
          <note pan="0" key="54" len="12" vol="78" pos="3492"/>
          <note pan="0" key="49" len="12" vol="78" pos="3504"/>
          <note pan="0" key="47" len="12" vol="78" pos="3516"/>
          <note pan="0" key="74" len="12" vol="78" pos="3528"/>
          <note pan="0" key="69" len="12" vol="78" pos="3540"/>
          <note pan="0" key="66" len="12" vol="78" pos="3552"/>
          <note pan="0" key="61" len="12" vol="78" pos="3564"/>
          <note pan="0" key="57" len="12" vol="78" pos="3576"/>
          <note pan="0" key="54" len="12" vol="78" pos="3588"/>
          <note pan="0" key="78" len="12" vol="78" pos="3600"/>
          <note pan="0" key="74" len="12" vol="78" pos="3612"/>
          <note pan="0" key="69" len="12" vol="78" pos="3624"/>
          <note pan="0" key="66" len="12" vol="78" pos="3636"/>
          <note pan="0" key="81" len="12" vol="78" pos="3672"/>
          <note pan="0" key="78" len="12" vol="78" pos="3684"/>
          <note pan="0" key="73" len="12" vol="78" pos="3696"/>
          <note pan="0" key="69" len="12" vol="78" pos="3708"/>
          <note pan="0" key="66" len="12" vol="78" pos="3720"/>
          <note pan="0" key="61" len="12" vol="78" pos="3732"/>
          <note pan="0" key="74" len="12" vol="78" pos="3744"/>
          <note pan="0" key="71" len="12" vol="78" pos="3756"/>
          <note pan="0" key="66" len="12" vol="78" pos="3768"/>
          <note pan="0" key="61" len="12" vol="78" pos="3780"/>
          <note pan="0" key="69" len="12" vol="78" pos="3792"/>
          <note pan="0" key="66" len="12" vol="78" pos="3804"/>
          <note pan="0" key="61" len="12" vol="78" pos="3816"/>
          <note pan="0" key="57" len="12" vol="78" pos="3828"/>
          <note pan="0" key="68" len="12" vol="78" pos="3840"/>
          <note pan="0" key="64" len="12" vol="78" pos="3852"/>
          <note pan="0" key="61" len="12" vol="78" pos="3864"/>
          <note pan="0" key="56" len="12" vol="78" pos="3876"/>
          <note pan="0" key="61" len="12" vol="78" pos="3888"/>
          <note pan="0" key="64" len="12" vol="78" pos="3900"/>
          <note pan="0" key="73" len="12" vol="78" pos="3912"/>
          <note pan="0" key="69" len="12" vol="78" pos="3924"/>
          <note pan="0" key="68" len="12" vol="78" pos="3936"/>
          <note pan="0" key="64" len="12" vol="78" pos="3948"/>
          <note pan="0" key="68" len="12" vol="78" pos="3960"/>
          <note pan="0" key="73" len="12" vol="78" pos="3972"/>
          <note pan="0" key="52" len="12" vol="78" pos="3972"/>
          <note pan="0" key="76" len="12" vol="78" pos="3984"/>
          <note pan="0" key="71" len="12" vol="78" pos="3996"/>
          <note pan="0" key="68" len="12" vol="78" pos="4008"/>
          <note pan="0" key="64" len="12" vol="78" pos="4020"/>
          <note pan="0" key="68" len="12" vol="78" pos="4032"/>
          <note pan="0" key="71" len="12" vol="78" pos="4044"/>
          <note pan="0" key="81" len="12" vol="78" pos="4056"/>
          <note pan="0" key="78" len="12" vol="78" pos="4068"/>
          <note pan="0" key="74" len="12" vol="78" pos="4080"/>
          <note pan="0" key="69" len="12" vol="78" pos="4092"/>
          <note pan="0" key="66" len="12" vol="78" pos="4104"/>
          <note pan="0" key="69" len="12" vol="78" pos="4116"/>
          <note pan="0" key="73" len="12" vol="78" pos="4128"/>
          <note pan="0" key="69" len="12" vol="78" pos="4140"/>
          <note pan="0" key="66" len="12" vol="78" pos="4152"/>
          <note pan="0" key="61" len="12" vol="78" pos="4164"/>
          <note pan="0" key="68" len="12" vol="78" pos="4176"/>
          <note pan="0" key="64" len="12" vol="78" pos="4188"/>
          <note pan="0" key="61" len="12" vol="78" pos="4200"/>
          <note pan="0" key="56" len="12" vol="78" pos="4212"/>
          <note pan="0" key="69" len="12" vol="78" pos="4224"/>
          <note pan="0" key="66" len="12" vol="78" pos="4236"/>
          <note pan="0" key="57" len="12" vol="78" pos="4248"/>
          <note pan="0" key="54" len="12" vol="78" pos="4260"/>
          <note pan="0" key="57" len="12" vol="78" pos="4272"/>
          <note pan="0" key="52" len="12" vol="78" pos="4272"/>
          <note pan="0" key="62" len="12" vol="78" pos="4284"/>
          <note pan="0" key="49" len="12" vol="78" pos="4284"/>
          <note pan="0" key="74" len="12" vol="78" pos="4296"/>
          <note pan="0" key="69" len="12" vol="78" pos="4308"/>
          <note pan="0" key="66" len="12" vol="78" pos="4320"/>
          <note pan="0" key="61" len="12" vol="78" pos="4332"/>
          <note pan="0" key="57" len="12" vol="78" pos="4344"/>
          <note pan="0" key="54" len="12" vol="78" pos="4356"/>
          <note pan="0" key="78" len="12" vol="78" pos="4368"/>
          <note pan="0" key="74" len="12" vol="78" pos="4380"/>
          <note pan="0" key="69" len="12" vol="78" pos="4392"/>
          <note pan="0" key="66" len="12" vol="78" pos="4404"/>
          <note pan="0" key="69" len="12" vol="78" pos="4416"/>
          <note pan="0" key="74" len="12" vol="78" pos="4428"/>
          <note pan="0" key="81" len="12" vol="78" pos="4440"/>
          <note pan="0" key="78" len="12" vol="78" pos="4452"/>
          <note pan="0" key="73" len="12" vol="78" pos="4464"/>
          <note pan="0" key="69" len="12" vol="78" pos="4476"/>
          <note pan="0" key="66" len="12" vol="78" pos="4488"/>
          <note pan="0" key="61" len="12" vol="78" pos="4500"/>
          <note pan="0" key="74" len="12" vol="78" pos="4512"/>
          <note pan="0" key="71" len="12" vol="78" pos="4524"/>
          <note pan="0" key="66" len="12" vol="78" pos="4536"/>
          <note pan="0" key="61" len="12" vol="78" pos="4548"/>
          <note pan="0" key="69" len="12" vol="78" pos="4560"/>
          <note pan="0" key="66" len="12" vol="78" pos="4572"/>
          <note pan="0" key="61" len="12" vol="78" pos="4584"/>
          <note pan="0" key="57" len="12" vol="78" pos="4596"/>
        </pattern>
        <pattern steps="16" muted="0" pos="15744" name="" type="1">
          <note pan="0" key="61" len="24" vol="78" pos="0"/>
          <note pan="0" key="68" len="24" vol="78" pos="24"/>
          <note pan="0" key="73" len="24" vol="78" pos="48"/>
          <note pan="0" key="68" len="24" vol="78" pos="72"/>
          <note pan="0" key="76" len="24" vol="78" pos="96"/>
          <note pan="0" key="68" len="24" vol="78" pos="120"/>
          <note pan="0" key="73" len="24" vol="78" pos="144"/>
          <note pan="0" key="68" len="24" vol="78" pos="168"/>
          <note pan="0" key="63" len="24" vol="78" pos="192"/>
          <note pan="0" key="68" len="24" vol="78" pos="216"/>
          <note pan="0" key="71" len="24" vol="78" pos="240"/>
          <note pan="0" key="68" len="24" vol="78" pos="264"/>
          <note pan="0" key="63" len="24" vol="78" pos="288"/>
          <note pan="0" key="68" len="24" vol="78" pos="312"/>
          <note pan="0" key="71" len="24" vol="78" pos="336"/>
          <note pan="0" key="68" len="24" vol="78" pos="360"/>
          <note pan="0" key="64" len="24" vol="78" pos="384"/>
          <note pan="0" key="68" len="24" vol="78" pos="408"/>
          <note pan="0" key="73" len="24" vol="78" pos="432"/>
          <note pan="0" key="68" len="24" vol="78" pos="456"/>
          <note pan="0" key="64" len="24" vol="78" pos="480"/>
          <note pan="0" key="68" len="24" vol="78" pos="504"/>
          <note pan="0" key="73" len="24" vol="78" pos="528"/>
          <note pan="0" key="68" len="24" vol="78" pos="552"/>
          <note pan="0" key="66" len="24" vol="78" pos="576"/>
          <note pan="0" key="71" len="24" vol="78" pos="600"/>
          <note pan="0" key="76" len="24" vol="78" pos="624"/>
          <note pan="0" key="71" len="24" vol="78" pos="648"/>
          <note pan="0" key="66" len="24" vol="78" pos="672"/>
          <note pan="0" key="71" len="24" vol="78" pos="696"/>
          <note pan="0" key="75" len="24" vol="78" pos="720"/>
          <note pan="0" key="71" len="24" vol="78" pos="744"/>
          <note pan="0" key="64" len="24" vol="78" pos="768"/>
          <note pan="0" key="68" len="24" vol="78" pos="792"/>
          <note pan="0" key="73" len="24" vol="78" pos="816"/>
          <note pan="0" key="68" len="24" vol="78" pos="840"/>
          <note pan="0" key="64" len="24" vol="78" pos="864"/>
          <note pan="0" key="68" len="24" vol="78" pos="888"/>
          <note pan="0" key="73" len="24" vol="78" pos="912"/>
          <note pan="0" key="68" len="24" vol="78" pos="936"/>
          <note pan="0" key="63" len="24" vol="78" pos="960"/>
          <note pan="0" key="66" len="24" vol="78" pos="984"/>
          <note pan="0" key="71" len="24" vol="78" pos="1008"/>
          <note pan="0" key="66" len="24" vol="78" pos="1032"/>
          <note pan="0" key="63" len="24" vol="78" pos="1056"/>
          <note pan="0" key="66" len="24" vol="78" pos="1080"/>
          <note pan="0" key="71" len="24" vol="78" pos="1104"/>
          <note pan="0" key="66" len="24" vol="78" pos="1128"/>
          <note pan="0" key="64" len="24" vol="78" pos="1152"/>
          <note pan="0" key="68" len="24" vol="78" pos="1176"/>
          <note pan="0" key="73" len="24" vol="78" pos="1200"/>
          <note pan="0" key="68" len="24" vol="78" pos="1224"/>
          <note pan="0" key="64" len="24" vol="78" pos="1248"/>
          <note pan="0" key="68" len="24" vol="78" pos="1272"/>
          <note pan="0" key="73" len="24" vol="78" pos="1296"/>
          <note pan="0" key="68" len="24" vol="78" pos="1320"/>
          <note pan="0" key="66" len="24" vol="78" pos="1344"/>
          <note pan="0" key="68" len="24" vol="78" pos="1368"/>
          <note pan="0" key="66" len="24" vol="78" pos="1392"/>
          <note pan="0" key="64" len="24" vol="78" pos="1416"/>
          <note pan="0" key="63" len="24" vol="78" pos="1440"/>
          <note pan="0" key="60" len="24" vol="78" pos="1464"/>
          <note pan="0" key="66" len="24" vol="78" pos="1488"/>
          <note pan="0" key="63" len="24" vol="78" pos="1512"/>
          <note pan="0" key="61" len="24" vol="78" pos="1536"/>
          <note pan="0" key="68" len="24" vol="78" pos="1560"/>
          <note pan="0" key="73" len="24" vol="78" pos="1584"/>
          <note pan="0" key="68" len="24" vol="78" pos="1608"/>
          <note pan="0" key="61" len="24" vol="78" pos="1632"/>
          <note pan="0" key="68" len="24" vol="78" pos="1656"/>
          <note pan="0" key="73" len="24" vol="78" pos="1680"/>
          <note pan="0" key="68" len="24" vol="78" pos="1704"/>
          <note pan="0" key="63" len="24" vol="78" pos="1728"/>
          <note pan="0" key="68" len="24" vol="78" pos="1752"/>
          <note pan="0" key="71" len="24" vol="78" pos="1776"/>
          <note pan="0" key="68" len="24" vol="78" pos="1800"/>
          <note pan="0" key="63" len="24" vol="78" pos="1824"/>
          <note pan="0" key="68" len="24" vol="78" pos="1848"/>
          <note pan="0" key="71" len="24" vol="78" pos="1872"/>
          <note pan="0" key="68" len="24" vol="78" pos="1896"/>
          <note pan="0" key="61" len="24" vol="78" pos="1920"/>
          <note pan="0" key="66" len="24" vol="78" pos="1944"/>
          <note pan="0" key="70" len="24" vol="78" pos="1968"/>
          <note pan="0" key="66" len="24" vol="78" pos="1992"/>
          <note pan="0" key="61" len="24" vol="78" pos="2016"/>
          <note pan="0" key="66" len="24" vol="78" pos="2040"/>
          <note pan="0" key="70" len="24" vol="78" pos="2064"/>
          <note pan="0" key="66" len="24" vol="78" pos="2088"/>
          <note pan="0" key="61" len="24" vol="78" pos="2112"/>
          <note pan="0" key="66" len="24" vol="78" pos="2136"/>
          <note pan="0" key="70" len="24" vol="78" pos="2160"/>
          <note pan="0" key="66" len="24" vol="78" pos="2184"/>
          <note pan="0" key="61" len="24" vol="78" pos="2208"/>
          <note pan="0" key="66" len="24" vol="78" pos="2232"/>
          <note pan="0" key="70" len="24" vol="78" pos="2256"/>
          <note pan="0" key="66" len="24" vol="78" pos="2280"/>
          <note pan="0" key="66" len="24" vol="78" pos="2304"/>
          <note pan="0" key="69" len="24" vol="78" pos="2328"/>
          <note pan="0" key="73" len="24" vol="78" pos="2352"/>
          <note pan="0" key="69" len="24" vol="78" pos="2376"/>
          <note pan="0" key="66" len="24" vol="78" pos="2400"/>
          <note pan="0" key="69" len="24" vol="78" pos="2424"/>
          <note pan="0" key="73" len="24" vol="78" pos="2448"/>
          <note pan="0" key="69" len="24" vol="78" pos="2472"/>
          <note pan="0" key="63" len="24" vol="78" pos="2496"/>
          <note pan="0" key="68" len="24" vol="78" pos="2520"/>
          <note pan="0" key="73" len="24" vol="78" pos="2544"/>
          <note pan="0" key="68" len="24" vol="78" pos="2568"/>
          <note pan="0" key="63" len="24" vol="78" pos="2592"/>
          <note pan="0" key="68" len="24" vol="78" pos="2616"/>
          <note pan="0" key="73" len="24" vol="78" pos="2640"/>
          <note pan="0" key="68" len="24" vol="78" pos="2664"/>
          <note pan="0" key="66" len="24" vol="78" pos="2688"/>
          <note pan="0" key="71" len="24" vol="78" pos="2712"/>
          <note pan="0" key="75" len="24" vol="78" pos="2736"/>
          <note pan="0" key="71" len="24" vol="78" pos="2760"/>
          <note pan="0" key="66" len="24" vol="78" pos="2784"/>
          <note pan="0" key="71" len="24" vol="78" pos="2808"/>
          <note pan="0" key="75" len="24" vol="78" pos="2832"/>
          <note pan="0" key="71" len="24" vol="78" pos="2856"/>
          <note pan="0" key="63" len="24" vol="78" pos="2880"/>
          <note pan="0" key="51" len="24" vol="78" pos="2880"/>
          <note pan="0" key="63" len="24" vol="78" pos="2904"/>
          <note pan="0" key="51" len="24" vol="78" pos="2904"/>
          <note pan="0" key="71" len="24" vol="78" pos="2976"/>
          <note pan="0" key="59" len="24" vol="78" pos="2976"/>
          <note pan="0" key="71" len="24" vol="78" pos="3000"/>
          <note pan="0" key="59" len="24" vol="78" pos="3000"/>
          <note pan="0" key="56" len="12" vol="78" pos="3072"/>
          <note pan="0" key="61" len="12" vol="78" pos="3084"/>
          <note pan="0" key="64" len="12" vol="78" pos="3096"/>
          <note pan="0" key="68" len="12" vol="78" pos="3108"/>
          <note pan="0" key="73" len="12" vol="78" pos="3120"/>
          <note pan="0" key="76" len="12" vol="78" pos="3132"/>
          <note pan="0" key="80" len="12" vol="78" pos="3144"/>
          <note pan="0" key="83" len="12" vol="78" pos="3156"/>
          <note pan="0" key="73" len="12" vol="78" pos="3168"/>
          <note pan="0" key="83" len="12" vol="78" pos="3180"/>
          <note pan="0" key="80" len="12" vol="78" pos="3192"/>
          <note pan="0" key="76" len="12" vol="78" pos="3204"/>
          <note pan="0" key="73" len="12" vol="78" pos="3216"/>
          <note pan="0" key="68" len="12" vol="78" pos="3228"/>
          <note pan="0" key="64" len="12" vol="78" pos="3240"/>
          <note pan="0" key="61" len="12" vol="78" pos="3252"/>
          <note pan="0" key="56" len="12" vol="78" pos="3264"/>
          <note pan="0" key="61" len="12" vol="78" pos="3276"/>
          <note pan="0" key="64" len="12" vol="78" pos="3288"/>
          <note pan="0" key="68" len="12" vol="78" pos="3300"/>
          <note pan="0" key="73" len="12" vol="78" pos="3312"/>
          <note pan="0" key="76" len="12" vol="78" pos="3324"/>
          <note pan="0" key="80" len="12" vol="78" pos="3336"/>
          <note pan="0" key="83" len="12" vol="78" pos="3348"/>
          <note pan="0" key="73" len="12" vol="78" pos="3360"/>
          <note pan="0" key="83" len="12" vol="78" pos="3372"/>
          <note pan="0" key="80" len="12" vol="78" pos="3384"/>
          <note pan="0" key="76" len="12" vol="78" pos="3396"/>
          <note pan="0" key="73" len="12" vol="78" pos="3408"/>
          <note pan="0" key="68" len="12" vol="78" pos="3420"/>
          <note pan="0" key="64" len="12" vol="78" pos="3432"/>
          <note pan="0" key="61" len="12" vol="78" pos="3444"/>
          <note pan="0" key="54" len="12" vol="78" pos="3456"/>
          <note pan="0" key="59" len="12" vol="78" pos="3468"/>
          <note pan="0" key="63" len="12" vol="78" pos="3480"/>
          <note pan="0" key="66" len="12" vol="78" pos="3492"/>
          <note pan="0" key="69" len="12" vol="78" pos="3504"/>
          <note pan="0" key="73" len="12" vol="78" pos="3516"/>
          <note pan="0" key="76" len="12" vol="78" pos="3528"/>
          <note pan="0" key="80" len="12" vol="78" pos="3540"/>
          <note pan="0" key="83" len="12" vol="78" pos="3552"/>
          <note pan="0" key="80" len="12" vol="78" pos="3564"/>
          <note pan="0" key="75" len="12" vol="78" pos="3576"/>
          <note pan="0" key="71" len="12" vol="78" pos="3588"/>
          <note pan="0" key="66" len="12" vol="78" pos="3600"/>
          <note pan="0" key="61" len="12" vol="78" pos="3612"/>
          <note pan="0" key="59" len="12" vol="78" pos="3624"/>
          <note pan="0" key="54" len="12" vol="78" pos="3636"/>
          <note pan="0" key="54" len="12" vol="78" pos="3648"/>
          <note pan="0" key="59" len="12" vol="78" pos="3660"/>
          <note pan="0" key="63" len="12" vol="78" pos="3672"/>
          <note pan="0" key="66" len="12" vol="78" pos="3684"/>
          <note pan="0" key="69" len="12" vol="78" pos="3696"/>
          <note pan="0" key="73" len="12" vol="78" pos="3708"/>
          <note pan="0" key="76" len="12" vol="78" pos="3720"/>
          <note pan="0" key="80" len="12" vol="78" pos="3732"/>
          <note pan="0" key="83" len="12" vol="78" pos="3744"/>
          <note pan="0" key="80" len="12" vol="78" pos="3756"/>
          <note pan="0" key="75" len="12" vol="78" pos="3768"/>
          <note pan="0" key="71" len="12" vol="78" pos="3780"/>
          <note pan="0" key="66" len="12" vol="78" pos="3792"/>
          <note pan="0" key="61" len="12" vol="78" pos="3804"/>
          <note pan="0" key="59" len="12" vol="78" pos="3816"/>
          <note pan="0" key="54" len="12" vol="78" pos="3828"/>
          <note pan="0" key="54" len="12" vol="78" pos="3840"/>
          <note pan="0" key="57" len="12" vol="78" pos="3852"/>
          <note pan="0" key="61" len="12" vol="78" pos="3864"/>
          <note pan="0" key="64" len="12" vol="78" pos="3876"/>
          <note pan="0" key="66" len="12" vol="78" pos="3888"/>
          <note pan="0" key="73" len="12" vol="78" pos="3900"/>
          <note pan="0" key="76" len="12" vol="78" pos="3912"/>
          <note pan="0" key="78" len="12" vol="78" pos="3924"/>
          <note pan="0" key="82" len="12" vol="78" pos="3936"/>
          <note pan="0" key="78" len="12" vol="78" pos="3948"/>
          <note pan="0" key="76" len="12" vol="78" pos="3960"/>
          <note pan="0" key="73" len="12" vol="78" pos="3972"/>
          <note pan="0" key="66" len="12" vol="78" pos="3984"/>
          <note pan="0" key="64" len="12" vol="78" pos="3996"/>
          <note pan="0" key="61" len="12" vol="78" pos="4008"/>
          <note pan="0" key="57" len="12" vol="78" pos="4020"/>
          <note pan="0" key="54" len="12" vol="78" pos="4032"/>
          <note pan="0" key="57" len="12" vol="78" pos="4044"/>
          <note pan="0" key="61" len="12" vol="78" pos="4056"/>
          <note pan="0" key="64" len="12" vol="78" pos="4068"/>
          <note pan="0" key="66" len="12" vol="78" pos="4080"/>
          <note pan="0" key="73" len="12" vol="78" pos="4092"/>
          <note pan="0" key="76" len="12" vol="78" pos="4104"/>
          <note pan="0" key="78" len="12" vol="78" pos="4116"/>
          <note pan="0" key="82" len="12" vol="78" pos="4128"/>
          <note pan="0" key="78" len="12" vol="78" pos="4140"/>
          <note pan="0" key="76" len="12" vol="78" pos="4152"/>
          <note pan="0" key="73" len="12" vol="78" pos="4164"/>
          <note pan="0" key="66" len="12" vol="78" pos="4176"/>
          <note pan="0" key="64" len="12" vol="78" pos="4188"/>
          <note pan="0" key="61" len="12" vol="78" pos="4200"/>
          <note pan="0" key="57" len="12" vol="78" pos="4212"/>
          <note pan="0" key="51" len="12" vol="78" pos="4224"/>
          <note pan="0" key="54" len="12" vol="78" pos="4236"/>
          <note pan="0" key="57" len="12" vol="78" pos="4248"/>
          <note pan="0" key="63" len="12" vol="78" pos="4260"/>
          <note pan="0" key="66" len="12" vol="78" pos="4272"/>
          <note pan="0" key="69" len="12" vol="78" pos="4284"/>
          <note pan="0" key="73" len="12" vol="78" pos="4296"/>
          <note pan="0" key="76" len="12" vol="78" pos="4308"/>
          <note pan="0" key="81" len="12" vol="78" pos="4320"/>
          <note pan="0" key="78" len="12" vol="78" pos="4332"/>
          <note pan="0" key="73" len="12" vol="78" pos="4344"/>
          <note pan="0" key="69" len="12" vol="78" pos="4356"/>
          <note pan="0" key="66" len="12" vol="78" pos="4368"/>
          <note pan="0" key="63" len="12" vol="78" pos="4380"/>
          <note pan="0" key="57" len="12" vol="78" pos="4392"/>
          <note pan="0" key="54" len="12" vol="78" pos="4404"/>
          <note pan="0" key="51" len="12" vol="78" pos="4416"/>
          <note pan="0" key="54" len="12" vol="78" pos="4428"/>
          <note pan="0" key="57" len="12" vol="78" pos="4440"/>
          <note pan="0" key="63" len="12" vol="78" pos="4452"/>
          <note pan="0" key="66" len="12" vol="78" pos="4464"/>
          <note pan="0" key="69" len="12" vol="78" pos="4476"/>
          <note pan="0" key="73" len="12" vol="78" pos="4488"/>
          <note pan="0" key="76" len="12" vol="78" pos="4500"/>
          <note pan="0" key="81" len="12" vol="78" pos="4512"/>
          <note pan="0" key="78" len="12" vol="78" pos="4524"/>
          <note pan="0" key="73" len="12" vol="78" pos="4536"/>
          <note pan="0" key="69" len="12" vol="78" pos="4548"/>
          <note pan="0" key="66" len="12" vol="78" pos="4560"/>
          <note pan="0" key="63" len="12" vol="78" pos="4572"/>
          <note pan="0" key="57" len="12" vol="78" pos="4584"/>
          <note pan="0" key="54" len="12" vol="78" pos="4596"/>
          <note pan="0" key="52" len="12" vol="78" pos="4608"/>
          <note pan="0" key="61" len="12" vol="78" pos="4620"/>
          <note pan="0" key="64" len="12" vol="78" pos="4632"/>
          <note pan="0" key="68" len="12" vol="78" pos="4644"/>
          <note pan="0" key="73" len="12" vol="78" pos="4656"/>
          <note pan="0" key="76" len="12" vol="78" pos="4668"/>
          <note pan="0" key="80" len="12" vol="78" pos="4680"/>
          <note pan="0" key="83" len="12" vol="78" pos="4692"/>
          <note pan="0" key="73" len="12" vol="78" pos="4704"/>
          <note pan="0" key="83" len="12" vol="78" pos="4716"/>
          <note pan="0" key="80" len="12" vol="78" pos="4728"/>
          <note pan="0" key="76" len="12" vol="78" pos="4740"/>
          <note pan="0" key="73" len="12" vol="78" pos="4752"/>
          <note pan="0" key="68" len="12" vol="78" pos="4764"/>
          <note pan="0" key="64" len="12" vol="78" pos="4776"/>
          <note pan="0" key="61" len="12" vol="78" pos="4788"/>
          <note pan="0" key="52" len="12" vol="78" pos="4800"/>
          <note pan="0" key="61" len="12" vol="78" pos="4812"/>
          <note pan="0" key="64" len="12" vol="78" pos="4824"/>
          <note pan="0" key="68" len="12" vol="78" pos="4836"/>
          <note pan="0" key="73" len="12" vol="78" pos="4848"/>
          <note pan="0" key="76" len="12" vol="78" pos="4860"/>
          <note pan="0" key="80" len="12" vol="78" pos="4872"/>
          <note pan="0" key="83" len="12" vol="78" pos="4884"/>
          <note pan="0" key="73" len="12" vol="78" pos="4896"/>
          <note pan="0" key="83" len="12" vol="78" pos="4908"/>
          <note pan="0" key="80" len="12" vol="78" pos="4920"/>
          <note pan="0" key="76" len="12" vol="78" pos="4932"/>
          <note pan="0" key="73" len="12" vol="78" pos="4944"/>
          <note pan="0" key="68" len="12" vol="78" pos="4956"/>
          <note pan="0" key="64" len="12" vol="78" pos="4968"/>
          <note pan="0" key="61" len="12" vol="78" pos="4980"/>
          <note pan="0" key="54" len="12" vol="78" pos="4992"/>
          <note pan="0" key="59" len="12" vol="78" pos="5004"/>
          <note pan="0" key="63" len="12" vol="78" pos="5016"/>
          <note pan="0" key="66" len="12" vol="78" pos="5028"/>
          <note pan="0" key="69" len="12" vol="78" pos="5040"/>
          <note pan="0" key="73" len="12" vol="78" pos="5052"/>
          <note pan="0" key="76" len="12" vol="78" pos="5064"/>
          <note pan="0" key="80" len="12" vol="78" pos="5076"/>
          <note pan="0" key="83" len="12" vol="78" pos="5088"/>
          <note pan="0" key="80" len="12" vol="78" pos="5100"/>
          <note pan="0" key="75" len="12" vol="78" pos="5112"/>
          <note pan="0" key="71" len="12" vol="78" pos="5124"/>
          <note pan="0" key="66" len="12" vol="78" pos="5136"/>
          <note pan="0" key="61" len="12" vol="78" pos="5148"/>
          <note pan="0" key="59" len="12" vol="78" pos="5160"/>
          <note pan="0" key="54" len="12" vol="78" pos="5172"/>
          <note pan="0" key="54" len="12" vol="78" pos="5184"/>
          <note pan="0" key="59" len="12" vol="78" pos="5196"/>
          <note pan="0" key="63" len="12" vol="78" pos="5208"/>
          <note pan="0" key="66" len="12" vol="78" pos="5220"/>
          <note pan="0" key="69" len="12" vol="78" pos="5232"/>
          <note pan="0" key="73" len="12" vol="78" pos="5244"/>
          <note pan="0" key="76" len="12" vol="78" pos="5256"/>
          <note pan="0" key="80" len="12" vol="78" pos="5268"/>
          <note pan="0" key="83" len="12" vol="78" pos="5280"/>
          <note pan="0" key="80" len="12" vol="78" pos="5292"/>
          <note pan="0" key="75" len="12" vol="78" pos="5304"/>
          <note pan="0" key="71" len="12" vol="78" pos="5316"/>
          <note pan="0" key="66" len="12" vol="78" pos="5328"/>
          <note pan="0" key="61" len="12" vol="78" pos="5340"/>
          <note pan="0" key="59" len="12" vol="78" pos="5352"/>
          <note pan="0" key="54" len="12" vol="78" pos="5364"/>
          <note pan="0" key="54" len="12" vol="78" pos="5376"/>
          <note pan="0" key="57" len="12" vol="78" pos="5388"/>
          <note pan="0" key="63" len="12" vol="78" pos="5400"/>
          <note pan="0" key="66" len="12" vol="78" pos="5412"/>
          <note pan="0" key="69" len="12" vol="78" pos="5424"/>
          <note pan="0" key="73" len="12" vol="78" pos="5436"/>
          <note pan="0" key="76" len="12" vol="78" pos="5448"/>
          <note pan="0" key="81" len="12" vol="78" pos="5460"/>
          <note pan="0" key="75" len="12" vol="78" pos="5472"/>
          <note pan="0" key="81" len="12" vol="78" pos="5484"/>
          <note pan="0" key="76" len="12" vol="78" pos="5496"/>
          <note pan="0" key="73" len="12" vol="78" pos="5508"/>
          <note pan="0" key="69" len="12" vol="78" pos="5520"/>
          <note pan="0" key="66" len="12" vol="78" pos="5532"/>
          <note pan="0" key="63" len="12" vol="78" pos="5544"/>
          <note pan="0" key="57" len="12" vol="78" pos="5556"/>
          <note pan="0" key="54" len="12" vol="78" pos="5568"/>
          <note pan="0" key="57" len="12" vol="78" pos="5580"/>
          <note pan="0" key="63" len="12" vol="78" pos="5592"/>
          <note pan="0" key="66" len="12" vol="78" pos="5604"/>
          <note pan="0" key="69" len="12" vol="78" pos="5616"/>
          <note pan="0" key="73" len="12" vol="78" pos="5628"/>
          <note pan="0" key="76" len="12" vol="78" pos="5640"/>
          <note pan="0" key="81" len="12" vol="78" pos="5652"/>
          <note pan="0" key="75" len="12" vol="78" pos="5664"/>
          <note pan="0" key="81" len="12" vol="78" pos="5676"/>
          <note pan="0" key="76" len="12" vol="78" pos="5688"/>
          <note pan="0" key="73" len="12" vol="78" pos="5700"/>
          <note pan="0" key="69" len="12" vol="78" pos="5712"/>
          <note pan="0" key="66" len="12" vol="78" pos="5724"/>
          <note pan="0" key="63" len="12" vol="78" pos="5736"/>
          <note pan="0" key="57" len="12" vol="78" pos="5748"/>
          <note pan="0" key="57" len="12" vol="78" pos="5760"/>
          <note pan="0" key="61" len="12" vol="78" pos="5772"/>
          <note pan="0" key="64" len="12" vol="78" pos="5784"/>
          <note pan="0" key="68" len="12" vol="78" pos="5796"/>
          <note pan="0" key="71" len="12" vol="78" pos="5808"/>
          <note pan="0" key="75" len="12" vol="78" pos="5820"/>
          <note pan="0" key="78" len="12" vol="78" pos="5832"/>
          <note pan="0" key="81" len="12" vol="78" pos="5844"/>
          <note pan="0" key="73" len="12" vol="78" pos="5856"/>
          <note pan="0" key="81" len="12" vol="78" pos="5868"/>
          <note pan="0" key="78" len="12" vol="78" pos="5880"/>
          <note pan="0" key="75" len="12" vol="78" pos="5892"/>
          <note pan="0" key="71" len="12" vol="78" pos="5904"/>
          <note pan="0" key="68" len="12" vol="78" pos="5916"/>
          <note pan="0" key="64" len="12" vol="78" pos="5928"/>
          <note pan="0" key="61" len="12" vol="78" pos="5940"/>
          <note pan="0" key="57" len="12" vol="78" pos="5952"/>
          <note pan="0" key="61" len="12" vol="78" pos="5964"/>
          <note pan="0" key="64" len="12" vol="78" pos="5976"/>
          <note pan="0" key="68" len="12" vol="78" pos="5988"/>
          <note pan="0" key="71" len="12" vol="78" pos="6000"/>
          <note pan="0" key="75" len="12" vol="78" pos="6012"/>
          <note pan="0" key="78" len="12" vol="78" pos="6024"/>
          <note pan="0" key="81" len="12" vol="78" pos="6036"/>
          <note pan="0" key="72" len="12" vol="78" pos="6048"/>
          <note pan="0" key="81" len="12" vol="78" pos="6060"/>
          <note pan="0" key="78" len="12" vol="78" pos="6072"/>
          <note pan="0" key="75" len="12" vol="78" pos="6084"/>
          <note pan="0" key="71" len="12" vol="78" pos="6096"/>
          <note pan="0" key="68" len="12" vol="78" pos="6108"/>
          <note pan="0" key="64" len="12" vol="78" pos="6120"/>
          <note pan="0" key="61" len="12" vol="78" pos="6132"/>
        </pattern>
        <pattern steps="16" muted="0" pos="4992" name="" type="1">
          <note pan="0" key="61" len="24" vol="78" pos="0"/>
          <note pan="0" key="63" len="24" vol="78" pos="24"/>
          <note pan="0" key="61" len="24" vol="78" pos="48"/>
          <note pan="0" key="68" len="48" vol="78" pos="72"/>
          <note pan="0" key="61" len="24" vol="78" pos="120"/>
          <note pan="0" key="64" len="24" vol="78" pos="144"/>
          <note pan="0" key="68" len="24" vol="78" pos="168"/>
          <note pan="0" key="71" len="24" vol="78" pos="192"/>
          <note pan="0" key="69" len="24" vol="78" pos="216"/>
          <note pan="0" key="68" len="24" vol="78" pos="240"/>
          <note pan="0" key="69" len="48" vol="78" pos="264"/>
          <note pan="0" key="68" len="24" vol="78" pos="312"/>
          <note pan="0" key="66" len="24" vol="78" pos="336"/>
          <note pan="0" key="68" len="24" vol="78" pos="360"/>
        </pattern>
        <pattern steps="16" muted="0" pos="5376" name="" type="1">
          <note pan="0" key="68" len="24" vol="78" pos="0"/>
          <note pan="0" key="0" len="24" vol="78" pos="0"/>
          <note pan="0" key="71" len="24" vol="78" pos="24"/>
          <note pan="0" key="68" len="24" vol="78" pos="48"/>
          <note pan="0" key="75" len="48" vol="78" pos="72"/>
          <note pan="0" key="68" len="24" vol="78" pos="120"/>
          <note pan="0" key="71" len="24" vol="78" pos="144"/>
          <note pan="0" key="75" len="24" vol="78" pos="168"/>
          <note pan="0" key="76" len="24" vol="78" pos="192"/>
          <note pan="0" key="75" len="24" vol="78" pos="216"/>
          <note pan="0" key="73" len="24" vol="78" pos="240"/>
          <note pan="0" key="71" len="24" vol="78" pos="264"/>
          <note pan="0" key="75" len="24" vol="78" pos="288"/>
          <note pan="0" key="73" len="24" vol="78" pos="312"/>
          <note pan="0" key="71" len="24" vol="78" pos="336"/>
          <note pan="0" key="68" len="24" vol="78" pos="360"/>
        </pattern>
        <pattern steps="16" muted="0" pos="5760" name="" type="1">
          <note pan="0" key="61" len="24" vol="78" pos="0"/>
          <note pan="0" key="0" len="48" vol="100" pos="0"/>
          <note pan="0" key="63" len="24" vol="78" pos="24"/>
          <note pan="0" key="61" len="24" vol="78" pos="48"/>
          <note pan="0" key="68" len="48" vol="78" pos="72"/>
          <note pan="0" key="61" len="24" vol="78" pos="120"/>
          <note pan="0" key="64" len="24" vol="78" pos="144"/>
          <note pan="0" key="68" len="24" vol="78" pos="168"/>
          <note pan="0" key="71" len="24" vol="78" pos="192"/>
          <note pan="0" key="73" len="24" vol="78" pos="216"/>
          <note pan="0" key="75" len="24" vol="78" pos="240"/>
          <note pan="0" key="73" len="48" vol="78" pos="264"/>
          <note pan="0" key="75" len="24" vol="78" pos="312"/>
          <note pan="0" key="76" len="24" vol="78" pos="336"/>
          <note pan="0" key="78" len="24" vol="78" pos="360"/>
        </pattern>
        <pattern steps="16" muted="0" pos="6144" name="" type="1">
          <note pan="0" key="87" len="24" vol="78" pos="0"/>
          <note pan="0" key="76" len="24" vol="78" pos="24"/>
          <note pan="0" key="80" len="24" vol="78" pos="48"/>
          <note pan="0" key="83" len="48" vol="78" pos="72"/>
          <note pan="0" key="80" len="24" vol="78" pos="120"/>
          <note pan="0" key="83" len="24" vol="78" pos="144"/>
          <note pan="0" key="87" len="24" vol="78" pos="168"/>
          <note pan="0" key="85" len="24" vol="78" pos="192"/>
          <note pan="0" key="80" len="24" vol="78" pos="216"/>
          <note pan="0" key="76" len="24" vol="78" pos="240"/>
          <note pan="0" key="73" len="24" vol="78" pos="264"/>
          <note pan="0" key="78" len="24" vol="78" pos="288"/>
          <note pan="0" key="76" len="24" vol="78" pos="312"/>
          <note pan="0" key="80" len="24" vol="78" pos="336"/>
          <note pan="0" key="76" len="24" vol="78" pos="360"/>
          <note pan="0" key="69" len="120" vol="78" pos="384"/>
          <note pan="0" key="68" len="24" vol="78" pos="504"/>
          <note pan="0" key="69" len="24" vol="78" pos="528"/>
          <note pan="0" key="71" len="24" vol="78" pos="552"/>
          <note pan="0" key="73" len="72" vol="78" pos="576"/>
          <note pan="0" key="71" len="72" vol="78" pos="648"/>
          <note pan="0" key="69" len="48" vol="78" pos="720"/>
          <note pan="0" key="68" len="24" vol="78" pos="768"/>
          <note pan="0" key="69" len="24" vol="78" pos="792"/>
          <note pan="0" key="68" len="24" vol="78" pos="816"/>
          <note pan="0" key="64" len="48" vol="78" pos="840"/>
          <note pan="0" key="64" len="24" vol="78" pos="888"/>
          <note pan="0" key="66" len="24" vol="78" pos="912"/>
          <note pan="0" key="68" len="24" vol="78" pos="936"/>
          <note pan="0" key="66" len="96" vol="78" pos="960"/>
        </pattern>
        <pattern steps="16" muted="0" pos="12672" name="" type="0"/>
        <pattern steps="16" muted="0" pos="29568" name="" type="1">
          <note pan="0" key="68" len="12" vol="152" pos="0"/>
          <note pan="0" key="66" len="12" vol="152" pos="12"/>
          <note pan="0" key="64" len="12" vol="152" pos="24"/>
          <note pan="0" key="61" len="12" vol="152" pos="36"/>
          <note pan="0" key="59" len="12" vol="152" pos="48"/>
          <note pan="0" key="61" len="12" vol="152" pos="60"/>
          <note pan="0" key="66" len="12" vol="152" pos="72"/>
          <note pan="0" key="64" len="12" vol="152" pos="84"/>
          <note pan="0" key="61" len="12" vol="152" pos="96"/>
          <note pan="0" key="64" len="12" vol="152" pos="108"/>
          <note pan="0" key="68" len="12" vol="152" pos="120"/>
          <note pan="0" key="66" len="12" vol="152" pos="132"/>
          <note pan="0" key="64" len="12" vol="152" pos="144"/>
          <note pan="0" key="61" len="12" vol="152" pos="156"/>
          <note pan="0" key="64" len="12" vol="152" pos="168"/>
          <note pan="0" key="66" len="12" vol="152" pos="180"/>
        </pattern>
        <pattern steps="16" muted="0" pos="29760" name="" type="1">
          <note pan="0" key="68" len="12" vol="152" pos="0"/>
          <note pan="0" key="66" len="12" vol="152" pos="12"/>
          <note pan="0" key="64" len="12" vol="152" pos="24"/>
          <note pan="0" key="61" len="12" vol="152" pos="36"/>
          <note pan="0" key="59" len="12" vol="152" pos="48"/>
          <note pan="0" key="61" len="12" vol="152" pos="60"/>
          <note pan="0" key="66" len="12" vol="152" pos="72"/>
          <note pan="0" key="64" len="12" vol="152" pos="84"/>
          <note pan="0" key="61" len="12" vol="152" pos="96"/>
          <note pan="0" key="64" len="12" vol="152" pos="108"/>
          <note pan="0" key="71" len="12" vol="152" pos="120"/>
          <note pan="0" key="68" len="12" vol="152" pos="132"/>
          <note pan="0" key="66" len="12" vol="152" pos="144"/>
          <note pan="0" key="68" len="12" vol="152" pos="156"/>
          <note pan="0" key="66" len="12" vol="152" pos="168"/>
          <note pan="0" key="64" len="12" vol="152" pos="180"/>
        </pattern>
        <pattern steps="16" muted="0" pos="13824" name="" type="1">
          <note pan="0" key="69" len="120" vol="78" pos="384"/>
          <note pan="0" key="68" len="24" vol="78" pos="504"/>
          <note pan="0" key="69" len="24" vol="78" pos="528"/>
          <note pan="0" key="71" len="24" vol="78" pos="552"/>
          <note pan="0" key="73" len="72" vol="78" pos="576"/>
          <note pan="0" key="71" len="72" vol="78" pos="648"/>
          <note pan="0" key="69" len="48" vol="78" pos="720"/>
          <note pan="0" key="68" len="24" vol="78" pos="768"/>
          <note pan="0" key="69" len="24" vol="78" pos="792"/>
          <note pan="0" key="68" len="24" vol="78" pos="816"/>
          <note pan="0" key="64" len="48" vol="78" pos="840"/>
          <note pan="0" key="64" len="24" vol="78" pos="888"/>
          <note pan="0" key="66" len="24" vol="78" pos="912"/>
          <note pan="0" key="68" len="24" vol="78" pos="936"/>
          <note pan="0" key="66" len="96" vol="78" pos="960"/>
        </pattern>
        <pattern steps="16" muted="0" pos="29952" name="" type="1">
          <note pan="0" key="73" len="12" vol="100" pos="0"/>
          <note pan="0" key="71" len="12" vol="100" pos="12"/>
          <note pan="0" key="68" len="12" vol="100" pos="24"/>
          <note pan="0" key="66" len="12" vol="100" pos="36"/>
          <note pan="0" key="71" len="12" vol="100" pos="48"/>
          <note pan="0" key="68" len="12" vol="100" pos="60"/>
          <note pan="0" key="66" len="12" vol="100" pos="72"/>
          <note pan="0" key="64" len="12" vol="100" pos="84"/>
          <note pan="0" key="68" len="12" vol="100" pos="96"/>
          <note pan="0" key="66" len="12" vol="100" pos="108"/>
          <note pan="0" key="64" len="12" vol="100" pos="120"/>
          <note pan="0" key="61" len="12" vol="100" pos="132"/>
          <note pan="0" key="64" len="12" vol="100" pos="144"/>
          <note pan="0" key="66" len="12" vol="100" pos="156"/>
          <note pan="0" key="68" len="12" vol="100" pos="168"/>
          <note pan="0" key="71" len="12" vol="100" pos="180"/>
          <note pan="0" key="68" len="12" vol="100" pos="192"/>
          <note pan="0" key="66" len="12" vol="100" pos="204"/>
          <note pan="0" key="64" len="12" vol="100" pos="216"/>
          <note pan="0" key="61" len="12" vol="100" pos="228"/>
          <note pan="0" key="64" len="12" vol="100" pos="240"/>
          <note pan="0" key="61" len="12" vol="100" pos="252"/>
          <note pan="0" key="59" len="12" vol="100" pos="264"/>
          <note pan="0" key="61" len="12" vol="100" pos="276"/>
          <note pan="0" key="59" len="12" vol="100" pos="288"/>
          <note pan="0" key="56" len="12" vol="100" pos="300"/>
          <note pan="0" key="54" len="12" vol="100" pos="312"/>
          <note pan="0" key="56" len="12" vol="100" pos="324"/>
          <note pan="0" key="49" len="48" vol="100" pos="336"/>
        </pattern>
        <pattern steps="16" muted="0" pos="30336" name="" type="1">
          <note pan="0" key="57" len="12" vol="48" pos="0"/>
          <note pan="0" key="57" len="12" vol="48" pos="12"/>
          <note pan="0" key="56" len="12" vol="48" pos="24"/>
          <note pan="0" key="56" len="12" vol="48" pos="36"/>
          <note pan="0" key="54" len="12" vol="48" pos="48"/>
          <note pan="0" key="54" len="12" vol="48" pos="60"/>
          <note pan="0" key="61" len="12" vol="48" pos="72"/>
          <note pan="0" key="61" len="12" vol="48" pos="84"/>
          <note pan="0" key="59" len="12" vol="48" pos="96"/>
          <note pan="0" key="59" len="12" vol="48" pos="108"/>
          <note pan="0" key="57" len="12" vol="48" pos="120"/>
          <note pan="0" key="57" len="12" vol="48" pos="132"/>
          <note pan="0" key="59" len="12" vol="48" pos="144"/>
          <note pan="0" key="59" len="12" vol="48" pos="156"/>
          <note pan="0" key="61" len="12" vol="48" pos="168"/>
          <note pan="0" key="61" len="12" vol="48" pos="180"/>
          <note pan="0" key="62" len="48" vol="48" pos="192"/>
          <note pan="0" key="61" len="12" vol="48" pos="240"/>
          <note pan="0" key="62" len="12" vol="48" pos="252"/>
          <note pan="0" key="64" len="12" vol="48" pos="264"/>
          <note pan="0" key="66" len="12" vol="48" pos="276"/>
          <note pan="0" key="68" len="12" vol="48" pos="288"/>
          <note pan="0" key="66" len="12" vol="48" pos="300"/>
          <note pan="0" key="64" len="12" vol="48" pos="312"/>
          <note pan="0" key="66" len="12" vol="48" pos="324"/>
          <note pan="0" key="69" len="12" vol="48" pos="336"/>
          <note pan="0" key="68" len="12" vol="48" pos="348"/>
          <note pan="0" key="66" len="12" vol="48" pos="360"/>
          <note pan="0" key="68" len="12" vol="48" pos="372"/>
          <note pan="0" key="68" len="24" vol="48" pos="384"/>
          <note pan="0" key="69" len="24" vol="48" pos="408"/>
          <note pan="0" key="66" len="48" vol="48" pos="456"/>
          <note pan="0" key="62" len="12" vol="48" pos="504"/>
          <note pan="0" key="62" len="12" vol="48" pos="516"/>
          <note pan="0" key="66" len="12" vol="48" pos="528"/>
          <note pan="0" key="66" len="12" vol="48" pos="540"/>
          <note pan="0" key="68" len="12" vol="48" pos="552"/>
          <note pan="0" key="68" len="12" vol="48" pos="564"/>
          <note pan="0" key="71" len="24" vol="48" pos="576"/>
          <note pan="0" key="69" len="12" vol="48" pos="600"/>
          <note pan="0" key="71" len="12" vol="48" pos="612"/>
          <note pan="0" key="73" len="24" vol="48" pos="624"/>
          <note pan="0" key="71" len="12" vol="48" pos="648"/>
          <note pan="0" key="73" len="12" vol="48" pos="660"/>
          <note pan="0" key="76" len="12" vol="48" pos="672"/>
          <note pan="0" key="74" len="12" vol="48" pos="684"/>
          <note pan="0" key="73" len="12" vol="48" pos="696"/>
          <note pan="0" key="71" len="12" vol="48" pos="708"/>
          <note pan="0" key="69" len="12" vol="48" pos="720"/>
          <note pan="0" key="68" len="12" vol="48" pos="732"/>
          <note pan="0" key="66" len="12" vol="48" pos="744"/>
          <note pan="0" key="64" len="12" vol="48" pos="756"/>
        </pattern>
        <pattern steps="16" muted="0" pos="38016" name="" type="1">
          <note pan="0" key="69" len="12" vol="100" pos="0"/>
          <note pan="0" key="1" len="12" vol="100" pos="0"/>
          <note pan="0" key="74" len="12" vol="100" pos="12"/>
          <note pan="0" key="78" len="12" vol="100" pos="24"/>
          <note pan="0" key="81" len="12" vol="100" pos="36"/>
          <note pan="0" key="0" len="12" vol="100" pos="36"/>
          <note pan="0" key="86" len="12" vol="100" pos="48"/>
          <note pan="0" key="81" len="12" vol="100" pos="60"/>
          <note pan="0" key="78" len="12" vol="100" pos="72"/>
          <note pan="0" key="1" len="12" vol="100" pos="72"/>
          <note pan="0" key="74" len="12" vol="100" pos="84"/>
          <note pan="0" key="81" len="12" vol="100" pos="96"/>
          <note pan="0" key="0" len="12" vol="100" pos="96"/>
          <note pan="0" key="80" len="12" vol="100" pos="108"/>
          <note pan="0" key="78" len="12" vol="100" pos="120"/>
          <note pan="0" key="1" len="12" vol="100" pos="120"/>
          <note pan="0" key="74" len="12" vol="100" pos="132"/>
          <note pan="0" key="83" len="12" vol="100" pos="144"/>
          <note pan="0" key="0" len="12" vol="100" pos="144"/>
          <note pan="0" key="81" len="12" vol="100" pos="156"/>
          <note pan="0" key="80" len="12" vol="100" pos="168"/>
          <note pan="0" key="1" len="12" vol="100" pos="168"/>
          <note pan="0" key="78" len="12" vol="100" pos="180"/>
          <note pan="0" key="83" len="12" vol="121" pos="192"/>
          <note pan="0" key="85" len="12" vol="121" pos="204"/>
          <note pan="0" key="83" len="12" vol="121" pos="216"/>
          <note pan="0" key="81" len="12" vol="121" pos="228"/>
          <note pan="0" key="80" len="12" vol="121" pos="240"/>
          <note pan="0" key="81" len="12" vol="121" pos="252"/>
          <note pan="0" key="80" len="12" vol="121" pos="264"/>
          <note pan="0" key="78" len="12" vol="121" pos="276"/>
          <note pan="0" key="83" len="12" vol="121" pos="288"/>
          <note pan="0" key="0" len="24" vol="121" pos="288"/>
          <note pan="0" key="85" len="12" vol="121" pos="300"/>
          <note pan="0" key="88" len="48" vol="121" pos="312"/>
          <note pan="0" key="85" len="24" vol="121" pos="360"/>
          <note pan="0" key="81" len="24" vol="100" pos="384"/>
          <note pan="0" key="80" len="24" vol="100" pos="408"/>
          <note pan="0" key="76" len="24" vol="100" pos="432"/>
          <note pan="0" key="81" len="24" vol="100" pos="456"/>
          <note pan="0" key="80" len="24" vol="100" pos="480"/>
          <note pan="0" key="78" len="24" vol="100" pos="504"/>
          <note pan="0" key="76" len="24" vol="100" pos="528"/>
          <note pan="0" key="80" len="24" vol="100" pos="552"/>
          <note pan="0" key="78" len="12" vol="100" pos="576"/>
          <note pan="0" key="0" len="12" vol="100" pos="576"/>
          <note pan="0" key="80" len="12" vol="100" pos="588"/>
          <note pan="0" key="2" len="12" vol="100" pos="588"/>
          <note pan="0" key="78" len="48" vol="100" pos="600"/>
          <note pan="0" key="1" len="12" vol="100" pos="636"/>
          <note pan="0" key="75" len="12" vol="100" pos="648"/>
          <note pan="0" key="76" len="12" vol="100" pos="660"/>
          <note pan="0" key="78" len="12" vol="100" pos="672"/>
          <note pan="0" key="0" len="12" vol="100" pos="672"/>
          <note pan="0" key="76" len="12" vol="100" pos="684"/>
          <note pan="0" key="75" len="12" vol="100" pos="696"/>
          <note pan="0" key="76" len="12" vol="100" pos="708"/>
          <note pan="0" key="1" len="12" vol="100" pos="708"/>
          <note pan="0" key="75" len="12" vol="100" pos="720"/>
          <note pan="0" key="73" len="12" vol="100" pos="732"/>
          <note pan="0" key="71" len="12" vol="100" pos="744"/>
          <note pan="0" key="69" len="12" vol="100" pos="756"/>
        </pattern>
        <pattern steps="16" muted="0" pos="43200" name="" type="1">
          <note pan="0" key="75" len="144" vol="78" pos="960"/>
          <note pan="0" key="78" len="48" vol="78" pos="1104"/>
          <note pan="0" key="77" len="144" vol="78" pos="1152"/>
          <note pan="0" key="82" len="48" vol="78" pos="1296"/>
          <note pan="0" key="82" len="144" vol="78" pos="1344"/>
          <note pan="0" key="80" len="24" vol="78" pos="1488"/>
          <note pan="0" key="78" len="24" vol="78" pos="1512"/>
          <note pan="0" key="77" len="48" vol="78" pos="1536"/>
          <note pan="0" key="78" len="48" vol="78" pos="1584"/>
          <note pan="0" key="73" len="48" vol="78" pos="1632"/>
          <note pan="0" key="70" len="48" vol="78" pos="1680"/>
          <note pan="0" key="71" len="96" vol="78" pos="1728"/>
          <note pan="0" key="75" len="48" vol="78" pos="1824"/>
          <note pan="0" key="78" len="48" vol="78" pos="1872"/>
          <note pan="0" key="78" len="96" vol="78" pos="1920"/>
          <note pan="0" key="77" len="48" vol="78" pos="2016"/>
          <note pan="0" key="78" len="48" vol="78" pos="2064"/>
          <note pan="0" key="85" len="72" vol="78" pos="2112"/>
          <note pan="0" key="83" len="72" vol="78" pos="2184"/>
          <note pan="0" key="82" len="48" vol="78" pos="2256"/>
          <note pan="0" key="80" len="192" vol="78" pos="2304"/>
          <note pan="0" key="78" len="72" vol="78" pos="2496"/>
          <note pan="0" key="77" len="72" vol="78" pos="2568"/>
          <note pan="0" key="78" len="48" vol="78" pos="2640"/>
          <note pan="0" key="82" len="144" vol="78" pos="2688"/>
          <note pan="0" key="77" len="48" vol="78" pos="2832"/>
          <note pan="0" key="75" len="240" vol="78" pos="2880"/>
          <note pan="0" key="78" len="48" vol="78" pos="3120"/>
          <note pan="0" key="80" len="48" vol="78" pos="3168"/>
          <note pan="0" key="82" len="48" vol="78" pos="3216"/>
          <note pan="0" key="83" len="72" vol="78" pos="3264"/>
          <note pan="0" key="82" len="72" vol="78" pos="3336"/>
          <note pan="0" key="80" len="48" vol="78" pos="3408"/>
          <note pan="0" key="78" len="48" vol="78" pos="3456"/>
          <note pan="0" key="75" len="48" vol="78" pos="3504"/>
          <note pan="0" key="78" len="48" vol="78" pos="3552"/>
          <note pan="0" key="82" len="48" vol="78" pos="3600"/>
          <note pan="0" key="80" len="192" vol="78" pos="3648"/>
        </pattern>
        <pattern steps="16" muted="0" pos="39552" name="" type="1">
          <note pan="0" key="73" len="12" vol="78" pos="0"/>
          <note pan="0" key="68" len="12" vol="78" pos="12"/>
          <note pan="0" key="64" len="12" vol="78" pos="24"/>
          <note pan="0" key="61" len="12" vol="78" pos="36"/>
          <note pan="0" key="56" len="12" vol="78" pos="48"/>
          <note pan="0" key="52" len="12" vol="78" pos="60"/>
          <note pan="0" key="56" len="12" vol="78" pos="72"/>
          <note pan="0" key="61" len="12" vol="78" pos="84"/>
          <note pan="0" key="64" len="12" vol="78" pos="96"/>
          <note pan="0" key="68" len="12" vol="78" pos="108"/>
          <note pan="0" key="76" len="12" vol="78" pos="120"/>
          <note pan="0" key="73" len="12" vol="78" pos="132"/>
          <note pan="0" key="68" len="12" vol="78" pos="144"/>
          <note pan="0" key="64" len="12" vol="78" pos="156"/>
          <note pan="0" key="68" len="12" vol="78" pos="168"/>
          <note pan="0" key="73" len="12" vol="78" pos="180"/>
          <note pan="0" key="75" len="12" vol="78" pos="192"/>
          <note pan="0" key="71" len="12" vol="78" pos="204"/>
          <note pan="0" key="68" len="12" vol="78" pos="216"/>
          <note pan="0" key="63" len="12" vol="78" pos="228"/>
          <note pan="0" key="59" len="12" vol="78" pos="240"/>
          <note pan="0" key="56" len="12" vol="78" pos="252"/>
          <note pan="0" key="59" len="12" vol="78" pos="264"/>
          <note pan="0" key="63" len="12" vol="78" pos="276"/>
          <note pan="0" key="68" len="12" vol="78" pos="288"/>
          <note pan="0" key="71" len="12" vol="78" pos="300"/>
          <note pan="0" key="80" len="12" vol="78" pos="312"/>
          <note pan="0" key="75" len="12" vol="78" pos="324"/>
          <note pan="0" key="71" len="12" vol="78" pos="336"/>
          <note pan="0" key="68" len="12" vol="78" pos="348"/>
          <note pan="0" key="71" len="12" vol="78" pos="360"/>
          <note pan="0" key="75" len="12" vol="78" pos="372"/>
          <note pan="0" key="80" len="24" vol="78" pos="384"/>
          <note pan="0" key="76" len="24" vol="78" pos="408"/>
          <note pan="0" key="69" len="24" vol="78" pos="432"/>
          <note pan="0" key="76" len="24" vol="78" pos="456"/>
          <note pan="0" key="75" len="24" vol="78" pos="480"/>
          <note pan="0" key="69" len="24" vol="78" pos="504"/>
          <note pan="0" key="78" len="24" vol="78" pos="528"/>
          <note pan="0" key="76" len="24" vol="78" pos="552"/>
          <note pan="0" key="75" len="48" vol="78" pos="576"/>
          <note pan="0" key="76" len="48" vol="78" pos="624"/>
          <note pan="0" key="76" len="12" vol="78" pos="672"/>
          <note pan="0" key="78" len="12" vol="78" pos="684"/>
          <note pan="0" key="76" len="12" vol="78" pos="696"/>
          <note pan="0" key="75" len="12" vol="78" pos="708"/>
          <note pan="0" key="76" len="12" vol="78" pos="720"/>
          <note pan="0" key="75" len="12" vol="78" pos="732"/>
          <note pan="0" key="73" len="12" vol="78" pos="744"/>
          <note pan="0" key="71" len="12" vol="78" pos="756"/>
        </pattern>
        <pattern steps="16" muted="0" pos="40320" name="" type="1">
          <note pan="0" key="69" len="12" vol="78" pos="0"/>
          <note pan="0" key="1" len="48" vol="200" pos="0"/>
          <note pan="0" key="68" len="12" vol="78" pos="12"/>
          <note pan="0" key="66" len="12" vol="78" pos="24"/>
          <note pan="0" key="68" len="12" vol="78" pos="36"/>
          <note pan="0" key="69" len="12" vol="78" pos="48"/>
          <note pan="0" key="68" len="12" vol="78" pos="60"/>
          <note pan="0" key="66" len="12" vol="78" pos="72"/>
          <note pan="0" key="68" len="12" vol="78" pos="84"/>
          <note pan="0" key="73" len="12" vol="78" pos="96"/>
          <note pan="0" key="71" len="12" vol="78" pos="108"/>
          <note pan="0" key="69" len="12" vol="78" pos="120"/>
          <note pan="0" key="71" len="12" vol="78" pos="132"/>
          <note pan="0" key="73" len="12" vol="78" pos="144"/>
          <note pan="0" key="75" len="12" vol="78" pos="156"/>
          <note pan="0" key="76" len="12" vol="78" pos="168"/>
          <note pan="0" key="75" len="12" vol="78" pos="180"/>
          <note pan="0" key="76" len="12" vol="78" pos="192"/>
          <note pan="0" key="75" len="12" vol="78" pos="204"/>
          <note pan="0" key="73" len="12" vol="78" pos="216"/>
          <note pan="0" key="75" len="12" vol="78" pos="228"/>
          <note pan="0" key="76" len="12" vol="78" pos="240"/>
          <note pan="0" key="0" len="48" vol="200" pos="240"/>
          <note pan="0" key="75" len="12" vol="78" pos="252"/>
          <note pan="0" key="73" len="12" vol="78" pos="264"/>
          <note pan="0" key="75" len="12" vol="78" pos="276"/>
          <note pan="0" key="76" len="12" vol="78" pos="288"/>
          <note pan="0" key="78" len="12" vol="78" pos="300"/>
          <note pan="0" key="80" len="12" vol="78" pos="312"/>
          <note pan="0" key="81" len="12" vol="78" pos="324"/>
          <note pan="0" key="83" len="12" vol="78" pos="336"/>
          <note pan="0" key="76" len="12" vol="78" pos="348"/>
          <note pan="0" key="1" len="12" vol="200" pos="348"/>
          <note pan="0" key="75" len="12" vol="78" pos="360"/>
          <note pan="0" key="76" len="12" vol="78" pos="372"/>
        </pattern>
        <pattern steps="16" muted="0" pos="40704" name="" type="1">
          <note pan="0" key="83" len="48" vol="78" pos="0"/>
          <note pan="0" key="0" len="48" vol="100" pos="0"/>
          <note pan="0" key="81" len="12" vol="78" pos="48"/>
          <note pan="0" key="83" len="12" vol="78" pos="60"/>
          <note pan="0" key="81" len="48" vol="78" pos="72"/>
          <note pan="0" key="80" len="12" vol="78" pos="120"/>
          <note pan="0" key="81" len="12" vol="78" pos="132"/>
          <note pan="0" key="80" len="12" vol="78" pos="144"/>
          <note pan="0" key="0" len="12" vol="78" pos="144"/>
          <note pan="0" key="78" len="12" vol="78" pos="156"/>
          <note pan="0" key="1" len="12" vol="78" pos="156"/>
          <note pan="0" key="76" len="12" vol="78" pos="168"/>
          <note pan="0" key="80" len="12" vol="78" pos="180"/>
          <note pan="0" key="78" len="48" vol="78" pos="192"/>
          <note pan="0" key="0" len="12" vol="78" pos="192"/>
          <note pan="0" key="76" len="12" vol="78" pos="240"/>
          <note pan="0" key="1" len="12" vol="78" pos="240"/>
          <note pan="0" key="75" len="12" vol="78" pos="252"/>
          <note pan="0" key="76" len="12" vol="78" pos="264"/>
          <note pan="0" key="78" len="12" vol="78" pos="276"/>
          <note pan="0" key="80" len="12" vol="78" pos="288"/>
          <note pan="0" key="0" len="12" vol="78" pos="288"/>
          <note pan="0" key="81" len="12" vol="78" pos="300"/>
          <note pan="0" key="80" len="12" vol="78" pos="312"/>
          <note pan="0" key="78" len="12" vol="78" pos="324"/>
          <note pan="0" key="80" len="12" vol="78" pos="336"/>
          <note pan="0" key="78" len="12" vol="78" pos="348"/>
          <note pan="0" key="76" len="12" vol="78" pos="360"/>
          <note pan="0" key="1" len="12" vol="78" pos="360"/>
          <note pan="0" key="75" len="12" vol="78" pos="372"/>
        </pattern>
        <pattern steps="16" muted="0" pos="41472" name="" type="1">
          <note pan="0" key="82" len="12" vol="78" pos="0"/>
          <note pan="0" key="0" len="12" vol="78" pos="0"/>
          <note pan="0" key="78" len="12" vol="78" pos="12"/>
          <note pan="0" key="73" len="12" vol="78" pos="24"/>
          <note pan="0" key="1" len="12" vol="78" pos="24"/>
          <note pan="0" key="78" len="12" vol="78" pos="36"/>
          <note pan="0" key="70" len="12" vol="78" pos="48"/>
          <note pan="0" key="78" len="12" vol="78" pos="60"/>
          <note pan="0" key="73" len="12" vol="78" pos="72"/>
          <note pan="0" key="78" len="12" vol="78" pos="84"/>
          <note pan="0" key="82" len="12" vol="78" pos="96"/>
          <note pan="0" key="78" len="12" vol="78" pos="108"/>
          <note pan="0" key="73" len="12" vol="78" pos="120"/>
          <note pan="0" key="78" len="12" vol="78" pos="132"/>
          <note pan="0" key="70" len="12" vol="78" pos="144"/>
          <note pan="0" key="78" len="12" vol="78" pos="156"/>
          <note pan="0" key="73" len="12" vol="78" pos="168"/>
          <note pan="0" key="78" len="12" vol="78" pos="180"/>
        </pattern>
        <pattern steps="16" muted="0" pos="41664" name="" type="1">
          <note pan="0" key="82" len="12" vol="78" pos="0"/>
          <note pan="0" key="0" len="12" vol="78" pos="0"/>
          <note pan="0" key="78" len="12" vol="78" pos="12"/>
          <note pan="0" key="73" len="12" vol="78" pos="24"/>
          <note pan="0" key="1" len="12" vol="78" pos="24"/>
          <note pan="0" key="78" len="12" vol="78" pos="36"/>
          <note pan="0" key="70" len="12" vol="78" pos="48"/>
          <note pan="0" key="78" len="12" vol="78" pos="60"/>
          <note pan="0" key="73" len="12" vol="78" pos="72"/>
          <note pan="0" key="78" len="12" vol="78" pos="84"/>
          <note pan="0" key="82" len="12" vol="78" pos="96"/>
          <note pan="0" key="78" len="12" vol="78" pos="108"/>
          <note pan="0" key="73" len="12" vol="78" pos="120"/>
          <note pan="0" key="78" len="12" vol="78" pos="132"/>
          <note pan="0" key="70" len="12" vol="78" pos="144"/>
          <note pan="0" key="78" len="12" vol="78" pos="156"/>
          <note pan="0" key="73" len="12" vol="78" pos="168"/>
          <note pan="0" key="78" len="12" vol="78" pos="180"/>
        </pattern>
        <pattern steps="16" muted="0" pos="41856" name="" type="1">
          <note pan="0" key="86" len="24" vol="78" pos="0"/>
          <note pan="0" key="0" len="48" vol="78" pos="0"/>
          <note pan="0" key="81" len="24" vol="78" pos="24"/>
          <note pan="0" key="76" len="24" vol="78" pos="48"/>
          <note pan="0" key="83" len="24" vol="78" pos="72"/>
          <note pan="0" key="85" len="24" vol="78" pos="96"/>
          <note pan="0" key="86" len="24" vol="78" pos="120"/>
          <note pan="0" key="85" len="24" vol="78" pos="144"/>
          <note pan="0" key="83" len="24" vol="78" pos="168"/>
          <note pan="0" key="85" len="12" vol="78" pos="192"/>
          <note pan="0" key="0" len="24" vol="78" pos="192"/>
          <note pan="0" key="81" len="12" vol="78" pos="204"/>
          <note pan="0" key="76" len="12" vol="78" pos="216"/>
          <note pan="0" key="1" len="24" vol="78" pos="216"/>
          <note pan="0" key="73" len="12" vol="78" pos="228"/>
          <note pan="0" key="69" len="12" vol="78" pos="240"/>
          <note pan="0" key="73" len="12" vol="78" pos="252"/>
          <note pan="0" key="81" len="12" vol="78" pos="264"/>
          <note pan="0" key="0" len="24" vol="78" pos="264"/>
          <note pan="0" key="76" len="12" vol="78" pos="276"/>
          <note pan="0" key="73" len="12" vol="78" pos="288"/>
          <note pan="0" key="1" len="24" vol="78" pos="288"/>
          <note pan="0" key="69" len="12" vol="78" pos="300"/>
          <note pan="0" key="73" len="12" vol="78" pos="312"/>
          <note pan="0" key="76" len="12" vol="78" pos="324"/>
          <note pan="0" key="85" len="12" vol="78" pos="336"/>
          <note pan="0" key="0" len="24" vol="78" pos="336"/>
          <note pan="0" key="83" len="12" vol="78" pos="348"/>
          <note pan="0" key="81" len="12" vol="78" pos="360"/>
          <note pan="0" key="1" len="24" vol="78" pos="360"/>
          <note pan="0" key="83" len="12" vol="78" pos="372"/>
          <note pan="0" key="87" len="384" vol="78" pos="384"/>
          <note pan="0" key="0" len="24" vol="78" pos="384"/>
        </pattern>
        <pattern steps="16" muted="0" pos="56448" name="" type="1">
          <note pan="0" key="75" len="384" vol="102" pos="0"/>
          <note pan="0" key="54" len="12" vol="102" pos="0"/>
          <note pan="0" key="58" len="12" vol="102" pos="12"/>
          <note pan="0" key="63" len="12" vol="100" pos="24"/>
          <note pan="0" key="66" len="12" vol="100" pos="36"/>
          <note pan="0" key="70" len="12" vol="100" pos="48"/>
          <note pan="0" key="75" len="12" vol="100" pos="60"/>
          <note pan="0" key="78" len="12" vol="100" pos="72"/>
          <note pan="0" key="82" len="12" vol="100" pos="84"/>
          <note pan="0" key="87" len="12" vol="100" pos="96"/>
          <note pan="0" key="82" len="12" vol="100" pos="108"/>
          <note pan="0" key="78" len="12" vol="100" pos="120"/>
          <note pan="0" key="75" len="12" vol="100" pos="132"/>
          <note pan="0" key="70" len="12" vol="100" pos="144"/>
          <note pan="0" key="66" len="12" vol="100" pos="156"/>
          <note pan="0" key="63" len="12" vol="100" pos="168"/>
          <note pan="0" key="58" len="12" vol="100" pos="180"/>
        </pattern>
        <pattern steps="16" muted="0" pos="56832" name="" type="1">
          <note pan="0" key="53" len="12" vol="100" pos="0"/>
          <note pan="0" key="56" len="12" vol="100" pos="12"/>
          <note pan="0" key="61" len="12" vol="100" pos="24"/>
          <note pan="0" key="65" len="12" vol="100" pos="36"/>
          <note pan="0" key="68" len="12" vol="100" pos="48"/>
          <note pan="0" key="73" len="12" vol="100" pos="60"/>
          <note pan="0" key="77" len="12" vol="100" pos="72"/>
          <note pan="0" key="80" len="12" vol="100" pos="84"/>
          <note pan="0" key="85" len="12" vol="100" pos="96"/>
          <note pan="0" key="80" len="12" vol="100" pos="108"/>
          <note pan="0" key="77" len="12" vol="100" pos="120"/>
          <note pan="0" key="73" len="12" vol="100" pos="132"/>
          <note pan="0" key="68" len="12" vol="100" pos="144"/>
          <note pan="0" key="65" len="12" vol="100" pos="156"/>
          <note pan="0" key="61" len="12" vol="100" pos="168"/>
          <note pan="0" key="56" len="12" vol="100" pos="180"/>
        </pattern>
        <pattern steps="16" muted="0" pos="57024" name="" type="1">
          <note pan="0" key="53" len="12" vol="100" pos="0"/>
          <note pan="0" key="56" len="12" vol="100" pos="12"/>
          <note pan="0" key="61" len="12" vol="100" pos="24"/>
          <note pan="0" key="65" len="12" vol="100" pos="36"/>
          <note pan="0" key="68" len="12" vol="100" pos="48"/>
          <note pan="0" key="73" len="12" vol="100" pos="60"/>
          <note pan="0" key="77" len="12" vol="100" pos="72"/>
          <note pan="0" key="80" len="12" vol="100" pos="84"/>
          <note pan="0" key="85" len="12" vol="100" pos="96"/>
          <note pan="0" key="80" len="12" vol="100" pos="108"/>
          <note pan="0" key="77" len="12" vol="100" pos="120"/>
          <note pan="0" key="73" len="12" vol="100" pos="132"/>
          <note pan="0" key="68" len="12" vol="100" pos="144"/>
          <note pan="0" key="65" len="12" vol="100" pos="156"/>
          <note pan="0" key="61" len="12" vol="100" pos="168"/>
          <note pan="0" key="56" len="12" vol="100" pos="180"/>
        </pattern>
        <pattern steps="16" muted="0" pos="56640" name="" type="1">
          <note pan="0" key="54" len="12" vol="100" pos="0"/>
          <note pan="0" key="58" len="12" vol="100" pos="12"/>
          <note pan="0" key="63" len="12" vol="100" pos="24"/>
          <note pan="0" key="66" len="12" vol="100" pos="36"/>
          <note pan="0" key="70" len="12" vol="100" pos="48"/>
          <note pan="0" key="75" len="12" vol="100" pos="60"/>
          <note pan="0" key="78" len="12" vol="100" pos="72"/>
          <note pan="0" key="82" len="12" vol="100" pos="84"/>
          <note pan="0" key="87" len="12" vol="100" pos="96"/>
          <note pan="0" key="82" len="12" vol="100" pos="108"/>
          <note pan="0" key="78" len="12" vol="100" pos="120"/>
          <note pan="0" key="75" len="12" vol="100" pos="132"/>
          <note pan="0" key="70" len="12" vol="100" pos="144"/>
          <note pan="0" key="66" len="12" vol="100" pos="156"/>
          <note pan="0" key="63" len="12" vol="100" pos="168"/>
          <note pan="0" key="58" len="12" vol="100" pos="180"/>
        </pattern>
        <pattern steps="16" muted="0" pos="57216" name="" type="1">
          <note pan="0" key="51" len="12" vol="100" pos="0"/>
          <note pan="0" key="56" len="12" vol="100" pos="12"/>
          <note pan="0" key="60" len="12" vol="100" pos="24"/>
          <note pan="0" key="63" len="12" vol="100" pos="36"/>
          <note pan="0" key="68" len="12" vol="100" pos="48"/>
          <note pan="0" key="72" len="12" vol="100" pos="60"/>
          <note pan="0" key="75" len="12" vol="100" pos="72"/>
          <note pan="0" key="80" len="12" vol="100" pos="84"/>
          <note pan="0" key="84" len="12" vol="100" pos="96"/>
          <note pan="0" key="80" len="12" vol="100" pos="108"/>
          <note pan="0" key="75" len="12" vol="100" pos="120"/>
          <note pan="0" key="72" len="12" vol="100" pos="132"/>
          <note pan="0" key="68" len="12" vol="100" pos="144"/>
          <note pan="0" key="63" len="12" vol="100" pos="156"/>
          <note pan="0" key="60" len="12" vol="100" pos="168"/>
          <note pan="0" key="56" len="12" vol="100" pos="180"/>
        </pattern>
        <pattern steps="16" muted="0" pos="57600" name="" type="1">
          <note pan="0" key="52" len="12" vol="100" pos="0"/>
          <note pan="0" key="56" len="12" vol="100" pos="12"/>
          <note pan="0" key="59" len="12" vol="100" pos="24"/>
          <note pan="0" key="64" len="12" vol="100" pos="36"/>
          <note pan="0" key="68" len="12" vol="100" pos="48"/>
          <note pan="0" key="71" len="12" vol="100" pos="60"/>
          <note pan="0" key="76" len="12" vol="100" pos="72"/>
          <note pan="0" key="80" len="12" vol="100" pos="84"/>
          <note pan="0" key="83" len="12" vol="100" pos="96"/>
          <note pan="0" key="80" len="12" vol="100" pos="108"/>
          <note pan="0" key="76" len="12" vol="100" pos="120"/>
          <note pan="0" key="71" len="12" vol="100" pos="132"/>
          <note pan="0" key="68" len="12" vol="100" pos="144"/>
          <note pan="0" key="64" len="12" vol="100" pos="156"/>
          <note pan="0" key="59" len="12" vol="100" pos="168"/>
          <note pan="0" key="56" len="12" vol="100" pos="180"/>
        </pattern>
        <pattern steps="16" muted="0" pos="57792" name="" type="1">
          <note pan="0" key="52" len="12" vol="100" pos="0"/>
          <note pan="0" key="56" len="12" vol="100" pos="12"/>
          <note pan="0" key="59" len="12" vol="100" pos="24"/>
          <note pan="0" key="64" len="12" vol="100" pos="36"/>
          <note pan="0" key="68" len="12" vol="100" pos="48"/>
          <note pan="0" key="71" len="12" vol="100" pos="60"/>
          <note pan="0" key="76" len="12" vol="100" pos="72"/>
          <note pan="0" key="80" len="12" vol="100" pos="84"/>
          <note pan="0" key="83" len="12" vol="100" pos="96"/>
          <note pan="0" key="80" len="12" vol="100" pos="108"/>
          <note pan="0" key="76" len="12" vol="100" pos="120"/>
          <note pan="0" key="71" len="12" vol="100" pos="132"/>
          <note pan="0" key="68" len="12" vol="100" pos="144"/>
          <note pan="0" key="64" len="12" vol="100" pos="156"/>
          <note pan="0" key="59" len="12" vol="100" pos="168"/>
          <note pan="0" key="56" len="12" vol="100" pos="180"/>
        </pattern>
        <pattern steps="16" muted="0" pos="57984" name="" type="1">
          <note pan="0" key="54" len="12" vol="100" pos="0"/>
          <note pan="0" key="58" len="12" vol="100" pos="12"/>
          <note pan="0" key="63" len="12" vol="100" pos="24"/>
          <note pan="0" key="66" len="12" vol="100" pos="36"/>
          <note pan="0" key="70" len="12" vol="100" pos="48"/>
          <note pan="0" key="75" len="12" vol="100" pos="60"/>
          <note pan="0" key="78" len="12" vol="100" pos="72"/>
          <note pan="0" key="82" len="12" vol="100" pos="84"/>
          <note pan="0" key="87" len="12" vol="100" pos="96"/>
          <note pan="0" key="82" len="12" vol="100" pos="108"/>
          <note pan="0" key="78" len="12" vol="100" pos="120"/>
          <note pan="0" key="75" len="12" vol="100" pos="132"/>
          <note pan="0" key="70" len="12" vol="100" pos="144"/>
          <note pan="0" key="66" len="12" vol="100" pos="156"/>
          <note pan="0" key="63" len="12" vol="100" pos="168"/>
          <note pan="0" key="58" len="12" vol="100" pos="180"/>
        </pattern>
        <pattern steps="16" muted="0" pos="58176" name="" type="1">
          <note pan="0" key="54" len="12" vol="100" pos="0"/>
          <note pan="0" key="58" len="12" vol="100" pos="12"/>
          <note pan="0" key="63" len="12" vol="100" pos="24"/>
          <note pan="0" key="66" len="12" vol="100" pos="36"/>
          <note pan="0" key="70" len="12" vol="100" pos="48"/>
          <note pan="0" key="75" len="12" vol="100" pos="60"/>
          <note pan="0" key="78" len="12" vol="100" pos="72"/>
          <note pan="0" key="82" len="12" vol="100" pos="84"/>
          <note pan="0" key="87" len="12" vol="100" pos="96"/>
          <note pan="0" key="82" len="12" vol="100" pos="108"/>
          <note pan="0" key="78" len="12" vol="100" pos="120"/>
          <note pan="0" key="75" len="12" vol="100" pos="132"/>
          <note pan="0" key="70" len="12" vol="100" pos="144"/>
          <note pan="0" key="66" len="12" vol="100" pos="156"/>
          <note pan="0" key="63" len="12" vol="100" pos="168"/>
          <note pan="0" key="58" len="12" vol="100" pos="180"/>
        </pattern>
        <pattern steps="16" muted="0" pos="58368" name="" type="1">
          <note pan="0" key="53" len="12" vol="100" pos="0"/>
          <note pan="0" key="56" len="12" vol="100" pos="12"/>
          <note pan="0" key="61" len="12" vol="100" pos="24"/>
          <note pan="0" key="65" len="12" vol="100" pos="36"/>
          <note pan="0" key="68" len="12" vol="100" pos="48"/>
          <note pan="0" key="73" len="12" vol="100" pos="60"/>
          <note pan="0" key="77" len="12" vol="100" pos="72"/>
          <note pan="0" key="80" len="12" vol="100" pos="84"/>
          <note pan="0" key="85" len="12" vol="100" pos="96"/>
          <note pan="0" key="80" len="12" vol="100" pos="108"/>
          <note pan="0" key="77" len="12" vol="100" pos="120"/>
          <note pan="0" key="73" len="12" vol="100" pos="132"/>
          <note pan="0" key="68" len="12" vol="100" pos="144"/>
          <note pan="0" key="65" len="12" vol="100" pos="156"/>
          <note pan="0" key="61" len="12" vol="100" pos="168"/>
          <note pan="0" key="56" len="12" vol="100" pos="180"/>
        </pattern>
        <pattern steps="16" muted="0" pos="58560" name="" type="1">
          <note pan="0" key="53" len="12" vol="100" pos="0"/>
          <note pan="0" key="56" len="12" vol="100" pos="12"/>
          <note pan="0" key="61" len="12" vol="100" pos="24"/>
          <note pan="0" key="65" len="12" vol="100" pos="36"/>
          <note pan="0" key="68" len="12" vol="100" pos="48"/>
          <note pan="0" key="73" len="12" vol="100" pos="60"/>
          <note pan="0" key="77" len="12" vol="100" pos="72"/>
          <note pan="0" key="80" len="12" vol="100" pos="84"/>
          <note pan="0" key="85" len="12" vol="100" pos="96"/>
          <note pan="0" key="80" len="12" vol="100" pos="108"/>
          <note pan="0" key="77" len="12" vol="100" pos="120"/>
          <note pan="0" key="73" len="12" vol="100" pos="132"/>
          <note pan="0" key="68" len="12" vol="100" pos="144"/>
          <note pan="0" key="65" len="12" vol="100" pos="156"/>
          <note pan="0" key="61" len="12" vol="100" pos="168"/>
          <note pan="0" key="56" len="12" vol="100" pos="180"/>
        </pattern>
        <pattern steps="16" muted="0" pos="59136" name="" type="1">
          <note pan="0" key="52" len="12" vol="100" pos="0"/>
          <note pan="0" key="56" len="12" vol="100" pos="12"/>
          <note pan="0" key="59" len="12" vol="100" pos="24"/>
          <note pan="0" key="64" len="12" vol="100" pos="36"/>
          <note pan="0" key="68" len="12" vol="100" pos="48"/>
          <note pan="0" key="71" len="12" vol="100" pos="60"/>
          <note pan="0" key="76" len="12" vol="100" pos="72"/>
          <note pan="0" key="80" len="12" vol="100" pos="84"/>
          <note pan="0" key="83" len="12" vol="100" pos="96"/>
          <note pan="0" key="80" len="12" vol="100" pos="108"/>
          <note pan="0" key="76" len="12" vol="100" pos="120"/>
          <note pan="0" key="71" len="12" vol="100" pos="132"/>
          <note pan="0" key="68" len="12" vol="100" pos="144"/>
          <note pan="0" key="64" len="12" vol="100" pos="156"/>
          <note pan="0" key="59" len="12" vol="100" pos="168"/>
          <note pan="0" key="56" len="12" vol="100" pos="180"/>
        </pattern>
        <pattern steps="16" muted="0" pos="59328" name="" type="1">
          <note pan="0" key="52" len="12" vol="100" pos="0"/>
          <note pan="0" key="56" len="12" vol="100" pos="12"/>
          <note pan="0" key="59" len="12" vol="100" pos="24"/>
          <note pan="0" key="64" len="12" vol="100" pos="36"/>
          <note pan="0" key="68" len="12" vol="100" pos="48"/>
          <note pan="0" key="71" len="12" vol="100" pos="60"/>
          <note pan="0" key="76" len="12" vol="100" pos="72"/>
          <note pan="0" key="80" len="12" vol="100" pos="84"/>
          <note pan="0" key="83" len="12" vol="100" pos="96"/>
          <note pan="0" key="80" len="12" vol="100" pos="108"/>
          <note pan="0" key="76" len="12" vol="100" pos="120"/>
          <note pan="0" key="71" len="12" vol="100" pos="132"/>
          <note pan="0" key="68" len="12" vol="100" pos="144"/>
          <note pan="0" key="64" len="12" vol="100" pos="156"/>
          <note pan="0" key="59" len="12" vol="100" pos="168"/>
          <note pan="0" key="56" len="12" vol="100" pos="180"/>
        </pattern>
        <pattern steps="16" muted="0" pos="59520" name="" type="1">
          <note pan="0" key="54" len="12" vol="100" pos="0"/>
          <note pan="0" key="58" len="12" vol="100" pos="12"/>
          <note pan="0" key="63" len="12" vol="100" pos="24"/>
          <note pan="0" key="66" len="12" vol="100" pos="36"/>
          <note pan="0" key="70" len="12" vol="100" pos="48"/>
          <note pan="0" key="75" len="12" vol="100" pos="60"/>
          <note pan="0" key="78" len="12" vol="100" pos="72"/>
          <note pan="0" key="82" len="12" vol="100" pos="84"/>
          <note pan="0" key="87" len="12" vol="100" pos="96"/>
          <note pan="0" key="82" len="12" vol="100" pos="108"/>
          <note pan="0" key="78" len="12" vol="100" pos="120"/>
          <note pan="0" key="75" len="12" vol="100" pos="132"/>
          <note pan="0" key="70" len="12" vol="100" pos="144"/>
          <note pan="0" key="66" len="12" vol="100" pos="156"/>
          <note pan="0" key="63" len="12" vol="100" pos="168"/>
          <note pan="0" key="58" len="12" vol="100" pos="180"/>
        </pattern>
        <pattern steps="16" muted="0" pos="59904" name="" type="1">
          <note pan="0" key="53" len="12" vol="100" pos="0"/>
          <note pan="0" key="56" len="12" vol="100" pos="12"/>
          <note pan="0" key="61" len="12" vol="100" pos="24"/>
          <note pan="0" key="65" len="12" vol="100" pos="36"/>
          <note pan="0" key="68" len="12" vol="100" pos="48"/>
          <note pan="0" key="73" len="12" vol="100" pos="60"/>
          <note pan="0" key="77" len="12" vol="100" pos="72"/>
          <note pan="0" key="80" len="12" vol="100" pos="84"/>
          <note pan="0" key="85" len="12" vol="100" pos="96"/>
          <note pan="0" key="80" len="12" vol="100" pos="108"/>
          <note pan="0" key="77" len="12" vol="100" pos="120"/>
          <note pan="0" key="73" len="12" vol="100" pos="132"/>
          <note pan="0" key="68" len="12" vol="100" pos="144"/>
          <note pan="0" key="65" len="12" vol="100" pos="156"/>
          <note pan="0" key="61" len="12" vol="100" pos="168"/>
          <note pan="0" key="56" len="12" vol="100" pos="180"/>
        </pattern>
        <pattern steps="16" muted="0" pos="60672" name="" type="1">
          <note pan="0" key="52" len="12" vol="100" pos="0"/>
          <note pan="0" key="56" len="12" vol="100" pos="12"/>
          <note pan="0" key="59" len="12" vol="100" pos="24"/>
          <note pan="0" key="64" len="12" vol="100" pos="36"/>
          <note pan="0" key="68" len="12" vol="100" pos="48"/>
          <note pan="0" key="71" len="12" vol="100" pos="60"/>
          <note pan="0" key="76" len="12" vol="100" pos="72"/>
          <note pan="0" key="80" len="12" vol="100" pos="84"/>
          <note pan="0" key="83" len="12" vol="100" pos="96"/>
          <note pan="0" key="80" len="12" vol="100" pos="108"/>
          <note pan="0" key="76" len="12" vol="100" pos="120"/>
          <note pan="0" key="71" len="12" vol="100" pos="132"/>
          <note pan="0" key="68" len="12" vol="100" pos="144"/>
          <note pan="0" key="64" len="12" vol="100" pos="156"/>
          <note pan="0" key="59" len="12" vol="100" pos="168"/>
          <note pan="0" key="56" len="12" vol="100" pos="180"/>
        </pattern>
        <pattern steps="16" muted="0" pos="59712" name="" type="1">
          <note pan="0" key="54" len="12" vol="100" pos="0"/>
          <note pan="0" key="58" len="12" vol="100" pos="12"/>
          <note pan="0" key="63" len="12" vol="100" pos="24"/>
          <note pan="0" key="66" len="12" vol="100" pos="36"/>
          <note pan="0" key="70" len="12" vol="100" pos="48"/>
          <note pan="0" key="75" len="12" vol="100" pos="60"/>
          <note pan="0" key="78" len="12" vol="100" pos="72"/>
          <note pan="0" key="82" len="12" vol="100" pos="84"/>
          <note pan="0" key="87" len="12" vol="100" pos="96"/>
          <note pan="0" key="82" len="12" vol="100" pos="108"/>
          <note pan="0" key="78" len="12" vol="100" pos="120"/>
          <note pan="0" key="75" len="12" vol="100" pos="132"/>
          <note pan="0" key="70" len="12" vol="100" pos="144"/>
          <note pan="0" key="66" len="12" vol="100" pos="156"/>
          <note pan="0" key="63" len="12" vol="100" pos="168"/>
          <note pan="0" key="58" len="12" vol="100" pos="180"/>
        </pattern>
        <pattern steps="16" muted="0" pos="60096" name="" type="1">
          <note pan="0" key="53" len="12" vol="100" pos="0"/>
          <note pan="0" key="56" len="12" vol="100" pos="12"/>
          <note pan="0" key="61" len="12" vol="100" pos="24"/>
          <note pan="0" key="65" len="12" vol="100" pos="36"/>
          <note pan="0" key="68" len="12" vol="100" pos="48"/>
          <note pan="0" key="73" len="12" vol="100" pos="60"/>
          <note pan="0" key="77" len="12" vol="100" pos="72"/>
          <note pan="0" key="80" len="12" vol="100" pos="84"/>
          <note pan="0" key="85" len="12" vol="100" pos="96"/>
          <note pan="0" key="80" len="12" vol="100" pos="108"/>
          <note pan="0" key="77" len="12" vol="100" pos="120"/>
          <note pan="0" key="73" len="12" vol="100" pos="132"/>
          <note pan="0" key="68" len="12" vol="100" pos="144"/>
          <note pan="0" key="65" len="12" vol="100" pos="156"/>
          <note pan="0" key="61" len="12" vol="100" pos="168"/>
          <note pan="0" key="56" len="12" vol="100" pos="180"/>
        </pattern>
        <pattern steps="16" muted="0" pos="60864" name="" type="1">
          <note pan="0" key="52" len="12" vol="100" pos="0"/>
          <note pan="0" key="56" len="12" vol="100" pos="12"/>
          <note pan="0" key="59" len="12" vol="100" pos="24"/>
          <note pan="0" key="64" len="12" vol="100" pos="36"/>
          <note pan="0" key="68" len="12" vol="100" pos="48"/>
          <note pan="0" key="71" len="12" vol="100" pos="60"/>
          <note pan="0" key="76" len="12" vol="100" pos="72"/>
          <note pan="0" key="80" len="12" vol="100" pos="84"/>
          <note pan="0" key="83" len="12" vol="100" pos="96"/>
          <note pan="0" key="80" len="12" vol="100" pos="108"/>
          <note pan="0" key="76" len="12" vol="100" pos="120"/>
          <note pan="0" key="71" len="12" vol="100" pos="132"/>
          <note pan="0" key="68" len="12" vol="100" pos="144"/>
          <note pan="0" key="64" len="12" vol="100" pos="156"/>
          <note pan="0" key="59" len="12" vol="100" pos="168"/>
          <note pan="0" key="56" len="12" vol="100" pos="180"/>
        </pattern>
        <pattern steps="16" muted="0" pos="61056" name="" type="1">
          <note pan="0" key="54" len="12" vol="100" pos="0"/>
          <note pan="0" key="58" len="12" vol="100" pos="12"/>
          <note pan="0" key="63" len="12" vol="100" pos="24"/>
          <note pan="0" key="66" len="12" vol="100" pos="36"/>
          <note pan="0" key="70" len="12" vol="100" pos="48"/>
          <note pan="0" key="75" len="12" vol="100" pos="60"/>
          <note pan="0" key="78" len="12" vol="100" pos="72"/>
          <note pan="0" key="82" len="12" vol="100" pos="84"/>
          <note pan="0" key="87" len="12" vol="100" pos="96"/>
          <note pan="0" key="82" len="12" vol="100" pos="108"/>
          <note pan="0" key="78" len="12" vol="100" pos="120"/>
          <note pan="0" key="75" len="12" vol="100" pos="132"/>
          <note pan="0" key="70" len="12" vol="100" pos="144"/>
          <note pan="0" key="66" len="12" vol="100" pos="156"/>
          <note pan="0" key="63" len="12" vol="100" pos="168"/>
          <note pan="0" key="58" len="12" vol="100" pos="180"/>
        </pattern>
        <pattern steps="16" muted="0" pos="61440" name="" type="1">
          <note pan="0" key="53" len="12" vol="100" pos="0"/>
          <note pan="0" key="56" len="12" vol="100" pos="12"/>
          <note pan="0" key="61" len="12" vol="100" pos="24"/>
          <note pan="0" key="65" len="12" vol="100" pos="36"/>
          <note pan="0" key="68" len="12" vol="100" pos="48"/>
          <note pan="0" key="73" len="12" vol="100" pos="60"/>
          <note pan="0" key="77" len="12" vol="100" pos="72"/>
          <note pan="0" key="80" len="12" vol="100" pos="84"/>
          <note pan="0" key="85" len="12" vol="100" pos="96"/>
          <note pan="0" key="80" len="12" vol="100" pos="108"/>
          <note pan="0" key="77" len="12" vol="100" pos="120"/>
          <note pan="0" key="73" len="12" vol="100" pos="132"/>
          <note pan="0" key="68" len="12" vol="100" pos="144"/>
          <note pan="0" key="65" len="12" vol="100" pos="156"/>
          <note pan="0" key="61" len="12" vol="100" pos="168"/>
          <note pan="0" key="56" len="12" vol="100" pos="180"/>
        </pattern>
        <pattern steps="16" muted="0" pos="62208" name="" type="1">
          <note pan="0" key="52" len="12" vol="100" pos="0"/>
          <note pan="0" key="56" len="12" vol="100" pos="12"/>
          <note pan="0" key="59" len="12" vol="100" pos="24"/>
          <note pan="0" key="64" len="12" vol="100" pos="36"/>
          <note pan="0" key="68" len="12" vol="100" pos="48"/>
          <note pan="0" key="71" len="12" vol="100" pos="60"/>
          <note pan="0" key="76" len="12" vol="100" pos="72"/>
          <note pan="0" key="80" len="12" vol="100" pos="84"/>
          <note pan="0" key="83" len="12" vol="100" pos="96"/>
          <note pan="0" key="80" len="12" vol="100" pos="108"/>
          <note pan="0" key="76" len="12" vol="100" pos="120"/>
          <note pan="0" key="71" len="12" vol="100" pos="132"/>
          <note pan="0" key="68" len="12" vol="100" pos="144"/>
          <note pan="0" key="64" len="12" vol="100" pos="156"/>
          <note pan="0" key="59" len="12" vol="100" pos="168"/>
          <note pan="0" key="56" len="12" vol="100" pos="180"/>
        </pattern>
        <pattern steps="16" muted="0" pos="61248" name="" type="1">
          <note pan="0" key="54" len="12" vol="100" pos="0"/>
          <note pan="0" key="58" len="12" vol="100" pos="12"/>
          <note pan="0" key="63" len="12" vol="100" pos="24"/>
          <note pan="0" key="66" len="12" vol="100" pos="36"/>
          <note pan="0" key="70" len="12" vol="100" pos="48"/>
          <note pan="0" key="75" len="12" vol="100" pos="60"/>
          <note pan="0" key="78" len="12" vol="100" pos="72"/>
          <note pan="0" key="82" len="12" vol="100" pos="84"/>
          <note pan="0" key="87" len="12" vol="100" pos="96"/>
          <note pan="0" key="82" len="12" vol="100" pos="108"/>
          <note pan="0" key="78" len="12" vol="100" pos="120"/>
          <note pan="0" key="75" len="12" vol="100" pos="132"/>
          <note pan="0" key="70" len="12" vol="100" pos="144"/>
          <note pan="0" key="66" len="12" vol="100" pos="156"/>
          <note pan="0" key="63" len="12" vol="100" pos="168"/>
          <note pan="0" key="58" len="12" vol="100" pos="180"/>
        </pattern>
        <pattern steps="16" muted="0" pos="61632" name="" type="1">
          <note pan="0" key="53" len="12" vol="100" pos="0"/>
          <note pan="0" key="56" len="12" vol="100" pos="12"/>
          <note pan="0" key="61" len="12" vol="100" pos="24"/>
          <note pan="0" key="65" len="12" vol="100" pos="36"/>
          <note pan="0" key="68" len="12" vol="100" pos="48"/>
          <note pan="0" key="73" len="12" vol="100" pos="60"/>
          <note pan="0" key="77" len="12" vol="100" pos="72"/>
          <note pan="0" key="80" len="12" vol="100" pos="84"/>
          <note pan="0" key="85" len="12" vol="100" pos="96"/>
          <note pan="0" key="80" len="12" vol="100" pos="108"/>
          <note pan="0" key="77" len="12" vol="100" pos="120"/>
          <note pan="0" key="73" len="12" vol="100" pos="132"/>
          <note pan="0" key="68" len="12" vol="100" pos="144"/>
          <note pan="0" key="65" len="12" vol="100" pos="156"/>
          <note pan="0" key="61" len="12" vol="100" pos="168"/>
          <note pan="0" key="56" len="12" vol="100" pos="180"/>
        </pattern>
        <pattern steps="16" muted="0" pos="62400" name="" type="1">
          <note pan="0" key="52" len="12" vol="100" pos="0"/>
          <note pan="0" key="56" len="12" vol="100" pos="12"/>
          <note pan="0" key="59" len="12" vol="100" pos="24"/>
          <note pan="0" key="64" len="12" vol="100" pos="36"/>
          <note pan="0" key="68" len="12" vol="100" pos="48"/>
          <note pan="0" key="71" len="12" vol="100" pos="60"/>
          <note pan="0" key="76" len="12" vol="100" pos="72"/>
          <note pan="0" key="80" len="12" vol="100" pos="84"/>
          <note pan="0" key="83" len="12" vol="100" pos="96"/>
          <note pan="0" key="80" len="12" vol="100" pos="108"/>
          <note pan="0" key="76" len="12" vol="100" pos="120"/>
          <note pan="0" key="71" len="12" vol="100" pos="132"/>
          <note pan="0" key="68" len="12" vol="100" pos="144"/>
          <note pan="0" key="64" len="12" vol="100" pos="156"/>
          <note pan="0" key="59" len="12" vol="100" pos="168"/>
          <note pan="0" key="56" len="12" vol="100" pos="180"/>
        </pattern>
        <pattern steps="16" muted="0" pos="62592" name="" type="1">
          <note pan="0" key="75" len="144" vol="97" pos="0"/>
          <note pan="0" key="78" len="48" vol="97" pos="144"/>
          <note pan="0" key="77" len="144" vol="97" pos="192"/>
          <note pan="0" key="82" len="48" vol="97" pos="336"/>
          <note pan="0" key="82" len="144" vol="97" pos="384"/>
          <note pan="0" key="80" len="24" vol="97" pos="528"/>
          <note pan="0" key="78" len="24" vol="97" pos="552"/>
          <note pan="0" key="77" len="48" vol="97" pos="576"/>
          <note pan="0" key="78" len="48" vol="97" pos="624"/>
          <note pan="0" key="73" len="12" vol="97" pos="672"/>
          <note pan="0" key="75" len="12" vol="97" pos="684"/>
          <note pan="0" key="73" len="12" vol="97" pos="696"/>
          <note pan="0" key="70" len="12" vol="97" pos="708"/>
          <note pan="0" key="73" len="12" vol="97" pos="720"/>
          <note pan="0" key="70" len="12" vol="97" pos="732"/>
          <note pan="0" key="68" len="12" vol="97" pos="744"/>
          <note pan="0" key="70" len="12" vol="97" pos="756"/>
          <note pan="0" key="71" len="96" vol="97" pos="768"/>
          <note pan="0" key="75" len="48" vol="97" pos="864"/>
          <note pan="0" key="78" len="48" vol="97" pos="912"/>
          <note pan="0" key="78" len="96" vol="97" pos="960"/>
          <note pan="0" key="77" len="48" vol="97" pos="1056"/>
          <note pan="0" key="78" len="48" vol="97" pos="1104"/>
          <note pan="0" key="78" len="12" vol="96" pos="1152"/>
          <note pan="0" key="75" len="12" vol="96" pos="1164"/>
          <note pan="0" key="77" len="12" vol="96" pos="1176"/>
          <note pan="0" key="78" len="12" vol="96" pos="1188"/>
          <note pan="0" key="80" len="12" vol="96" pos="1200"/>
          <note pan="0" key="77" len="12" vol="96" pos="1212"/>
          <note pan="0" key="78" len="12" vol="96" pos="1224"/>
          <note pan="0" key="80" len="12" vol="96" pos="1236"/>
          <note pan="0" key="82" len="12" vol="96" pos="1248"/>
          <note pan="0" key="78" len="12" vol="96" pos="1260"/>
          <note pan="0" key="80" len="12" vol="96" pos="1272"/>
          <note pan="0" key="82" len="12" vol="96" pos="1284"/>
          <note pan="0" key="83" len="12" vol="96" pos="1296"/>
          <note pan="0" key="80" len="12" vol="96" pos="1308"/>
          <note pan="0" key="82" len="12" vol="96" pos="1320"/>
          <note pan="0" key="83" len="12" vol="96" pos="1332"/>
          <note pan="0" key="85" len="12" vol="96" pos="1344"/>
          <note pan="0" key="83" len="12" vol="96" pos="1356"/>
          <note pan="0" key="82" len="12" vol="96" pos="1368"/>
          <note pan="0" key="80" len="12" vol="96" pos="1380"/>
          <note pan="0" key="78" len="12" vol="96" pos="1392"/>
          <note pan="0" key="80" len="12" vol="96" pos="1404"/>
          <note pan="0" key="83" len="12" vol="96" pos="1416"/>
          <note pan="0" key="82" len="12" vol="96" pos="1428"/>
          <note pan="0" key="80" len="12" vol="96" pos="1440"/>
          <note pan="0" key="78" len="12" vol="96" pos="1452"/>
          <note pan="0" key="77" len="12" vol="96" pos="1464"/>
          <note pan="0" key="78" len="12" vol="96" pos="1476"/>
          <note pan="0" key="82" len="12" vol="96" pos="1488"/>
          <note pan="0" key="80" len="12" vol="96" pos="1500"/>
          <note pan="0" key="78" len="12" vol="96" pos="1512"/>
          <note pan="0" key="77" len="12" vol="96" pos="1524"/>
          <note pan="0" key="75" len="12" vol="96" pos="1536"/>
          <note pan="0" key="77" len="12" vol="96" pos="1548"/>
          <note pan="0" key="80" len="12" vol="96" pos="1560"/>
          <note pan="0" key="78" len="12" vol="96" pos="1572"/>
          <note pan="0" key="77" len="12" vol="96" pos="1584"/>
          <note pan="0" key="75" len="12" vol="96" pos="1596"/>
          <note pan="0" key="73" len="12" vol="96" pos="1608"/>
          <note pan="0" key="75" len="12" vol="96" pos="1620"/>
          <note pan="0" key="78" len="12" vol="96" pos="1632"/>
          <note pan="0" key="77" len="12" vol="96" pos="1644"/>
          <note pan="0" key="75" len="12" vol="96" pos="1656"/>
          <note pan="0" key="73" len="12" vol="96" pos="1668"/>
          <note pan="0" key="77" len="12" vol="96" pos="1680"/>
          <note pan="0" key="75" len="12" vol="96" pos="1692"/>
          <note pan="0" key="73" len="12" vol="96" pos="1704"/>
          <note pan="0" key="75" len="12" vol="96" pos="1716"/>
          <note pan="0" key="87" len="192" vol="96" pos="1728"/>
        </pattern>
        <pattern steps="16" muted="0" pos="57408" name="" type="1">
          <note pan="0" key="51" len="12" vol="100" pos="0"/>
          <note pan="0" key="56" len="12" vol="100" pos="12"/>
          <note pan="0" key="60" len="12" vol="100" pos="24"/>
          <note pan="0" key="63" len="12" vol="100" pos="36"/>
          <note pan="0" key="68" len="12" vol="100" pos="48"/>
          <note pan="0" key="72" len="12" vol="100" pos="60"/>
          <note pan="0" key="75" len="12" vol="100" pos="72"/>
          <note pan="0" key="80" len="12" vol="100" pos="84"/>
          <note pan="0" key="84" len="12" vol="100" pos="96"/>
          <note pan="0" key="80" len="12" vol="100" pos="108"/>
          <note pan="0" key="75" len="12" vol="100" pos="120"/>
          <note pan="0" key="72" len="12" vol="100" pos="132"/>
          <note pan="0" key="68" len="12" vol="100" pos="144"/>
          <note pan="0" key="63" len="12" vol="100" pos="156"/>
          <note pan="0" key="60" len="12" vol="100" pos="168"/>
          <note pan="0" key="56" len="12" vol="100" pos="180"/>
        </pattern>
        <pattern steps="16" muted="0" pos="58752" name="" type="1">
          <note pan="0" key="51" len="12" vol="100" pos="0"/>
          <note pan="0" key="56" len="12" vol="100" pos="12"/>
          <note pan="0" key="60" len="12" vol="100" pos="24"/>
          <note pan="0" key="63" len="12" vol="100" pos="36"/>
          <note pan="0" key="68" len="12" vol="100" pos="48"/>
          <note pan="0" key="72" len="12" vol="100" pos="60"/>
          <note pan="0" key="75" len="12" vol="100" pos="72"/>
          <note pan="0" key="80" len="12" vol="100" pos="84"/>
          <note pan="0" key="84" len="12" vol="100" pos="96"/>
          <note pan="0" key="80" len="12" vol="100" pos="108"/>
          <note pan="0" key="75" len="12" vol="100" pos="120"/>
          <note pan="0" key="72" len="12" vol="100" pos="132"/>
          <note pan="0" key="68" len="12" vol="100" pos="144"/>
          <note pan="0" key="63" len="12" vol="100" pos="156"/>
          <note pan="0" key="60" len="12" vol="100" pos="168"/>
          <note pan="0" key="56" len="12" vol="100" pos="180"/>
        </pattern>
        <pattern steps="16" muted="0" pos="58944" name="" type="1">
          <note pan="0" key="51" len="12" vol="100" pos="0"/>
          <note pan="0" key="56" len="12" vol="100" pos="12"/>
          <note pan="0" key="60" len="12" vol="100" pos="24"/>
          <note pan="0" key="63" len="12" vol="100" pos="36"/>
          <note pan="0" key="68" len="12" vol="100" pos="48"/>
          <note pan="0" key="72" len="12" vol="100" pos="60"/>
          <note pan="0" key="75" len="12" vol="100" pos="72"/>
          <note pan="0" key="80" len="12" vol="100" pos="84"/>
          <note pan="0" key="84" len="12" vol="100" pos="96"/>
          <note pan="0" key="80" len="12" vol="100" pos="108"/>
          <note pan="0" key="75" len="12" vol="100" pos="120"/>
          <note pan="0" key="72" len="12" vol="100" pos="132"/>
          <note pan="0" key="68" len="12" vol="100" pos="144"/>
          <note pan="0" key="63" len="12" vol="100" pos="156"/>
          <note pan="0" key="60" len="12" vol="100" pos="168"/>
          <note pan="0" key="56" len="12" vol="100" pos="180"/>
        </pattern>
        <pattern steps="16" muted="0" pos="60288" name="" type="1">
          <note pan="0" key="51" len="12" vol="100" pos="0"/>
          <note pan="0" key="56" len="12" vol="100" pos="12"/>
          <note pan="0" key="60" len="12" vol="100" pos="24"/>
          <note pan="0" key="63" len="12" vol="100" pos="36"/>
          <note pan="0" key="68" len="12" vol="100" pos="48"/>
          <note pan="0" key="72" len="12" vol="100" pos="60"/>
          <note pan="0" key="75" len="12" vol="100" pos="72"/>
          <note pan="0" key="80" len="12" vol="100" pos="84"/>
          <note pan="0" key="84" len="12" vol="100" pos="96"/>
          <note pan="0" key="80" len="12" vol="100" pos="108"/>
          <note pan="0" key="75" len="12" vol="100" pos="120"/>
          <note pan="0" key="72" len="12" vol="100" pos="132"/>
          <note pan="0" key="68" len="12" vol="100" pos="144"/>
          <note pan="0" key="63" len="12" vol="100" pos="156"/>
          <note pan="0" key="60" len="12" vol="100" pos="168"/>
          <note pan="0" key="56" len="12" vol="100" pos="180"/>
        </pattern>
        <pattern steps="16" muted="0" pos="60480" name="" type="1">
          <note pan="0" key="51" len="12" vol="100" pos="0"/>
          <note pan="0" key="56" len="12" vol="100" pos="12"/>
          <note pan="0" key="60" len="12" vol="100" pos="24"/>
          <note pan="0" key="63" len="12" vol="100" pos="36"/>
          <note pan="0" key="68" len="12" vol="100" pos="48"/>
          <note pan="0" key="72" len="12" vol="100" pos="60"/>
          <note pan="0" key="75" len="12" vol="100" pos="72"/>
          <note pan="0" key="80" len="12" vol="100" pos="84"/>
          <note pan="0" key="84" len="12" vol="100" pos="96"/>
          <note pan="0" key="80" len="12" vol="100" pos="108"/>
          <note pan="0" key="75" len="12" vol="100" pos="120"/>
          <note pan="0" key="72" len="12" vol="100" pos="132"/>
          <note pan="0" key="68" len="12" vol="100" pos="144"/>
          <note pan="0" key="63" len="12" vol="100" pos="156"/>
          <note pan="0" key="60" len="12" vol="100" pos="168"/>
          <note pan="0" key="56" len="12" vol="100" pos="180"/>
        </pattern>
        <pattern steps="16" muted="0" pos="61824" name="" type="1">
          <note pan="0" key="51" len="12" vol="100" pos="0"/>
          <note pan="0" key="56" len="12" vol="100" pos="12"/>
          <note pan="0" key="60" len="12" vol="100" pos="24"/>
          <note pan="0" key="63" len="12" vol="100" pos="36"/>
          <note pan="0" key="68" len="12" vol="100" pos="48"/>
          <note pan="0" key="72" len="12" vol="100" pos="60"/>
          <note pan="0" key="75" len="12" vol="100" pos="72"/>
          <note pan="0" key="80" len="12" vol="100" pos="84"/>
          <note pan="0" key="84" len="12" vol="100" pos="96"/>
          <note pan="0" key="80" len="12" vol="100" pos="108"/>
          <note pan="0" key="75" len="12" vol="100" pos="120"/>
          <note pan="0" key="72" len="12" vol="100" pos="132"/>
          <note pan="0" key="68" len="12" vol="100" pos="144"/>
          <note pan="0" key="63" len="12" vol="100" pos="156"/>
          <note pan="0" key="60" len="12" vol="100" pos="168"/>
          <note pan="0" key="56" len="12" vol="100" pos="180"/>
        </pattern>
        <pattern steps="16" muted="0" pos="62016" name="" type="1">
          <note pan="0" key="51" len="12" vol="100" pos="0"/>
          <note pan="0" key="56" len="12" vol="100" pos="12"/>
          <note pan="0" key="60" len="12" vol="100" pos="24"/>
          <note pan="0" key="63" len="12" vol="100" pos="36"/>
          <note pan="0" key="68" len="12" vol="100" pos="48"/>
          <note pan="0" key="72" len="12" vol="100" pos="60"/>
          <note pan="0" key="75" len="12" vol="100" pos="72"/>
          <note pan="0" key="80" len="12" vol="100" pos="84"/>
          <note pan="0" key="84" len="12" vol="100" pos="96"/>
          <note pan="0" key="80" len="12" vol="100" pos="108"/>
          <note pan="0" key="75" len="12" vol="100" pos="120"/>
          <note pan="0" key="72" len="12" vol="100" pos="132"/>
          <note pan="0" key="68" len="12" vol="100" pos="144"/>
          <note pan="0" key="63" len="12" vol="100" pos="156"/>
          <note pan="0" key="60" len="12" vol="100" pos="168"/>
          <note pan="0" key="56" len="12" vol="100" pos="180"/>
        </pattern>
        <pattern steps="16" muted="0" pos="41088" name="" type="1">
          <note pan="0" key="80" len="12" vol="78" pos="0"/>
          <note pan="0" key="76" len="12" vol="78" pos="12"/>
          <note pan="0" key="75" len="12" vol="78" pos="24"/>
          <note pan="0" key="76" len="12" vol="78" pos="36"/>
          <note pan="0" key="73" len="12" vol="78" pos="48"/>
          <note pan="0" key="76" len="12" vol="78" pos="60"/>
          <note pan="0" key="75" len="12" vol="78" pos="72"/>
          <note pan="0" key="76" len="12" vol="78" pos="84"/>
          <note pan="0" key="80" len="12" vol="78" pos="96"/>
          <note pan="0" key="76" len="12" vol="78" pos="108"/>
          <note pan="0" key="75" len="12" vol="78" pos="120"/>
          <note pan="0" key="76" len="12" vol="78" pos="132"/>
          <note pan="0" key="73" len="12" vol="78" pos="144"/>
          <note pan="0" key="76" len="12" vol="78" pos="156"/>
          <note pan="0" key="75" len="12" vol="78" pos="168"/>
          <note pan="0" key="76" len="12" vol="78" pos="180"/>
          <note pan="0" key="80" len="12" vol="78" pos="192"/>
          <note pan="0" key="75" len="12" vol="78" pos="204"/>
          <note pan="0" key="73" len="12" vol="78" pos="216"/>
          <note pan="0" key="75" len="12" vol="78" pos="228"/>
          <note pan="0" key="71" len="12" vol="78" pos="240"/>
          <note pan="0" key="75" len="12" vol="78" pos="252"/>
          <note pan="0" key="73" len="12" vol="78" pos="264"/>
          <note pan="0" key="75" len="12" vol="78" pos="276"/>
          <note pan="0" key="80" len="12" vol="78" pos="288"/>
          <note pan="0" key="75" len="12" vol="78" pos="300"/>
          <note pan="0" key="73" len="12" vol="78" pos="312"/>
          <note pan="0" key="75" len="12" vol="78" pos="324"/>
          <note pan="0" key="71" len="12" vol="78" pos="336"/>
          <note pan="0" key="75" len="12" vol="78" pos="348"/>
          <note pan="0" key="73" len="12" vol="78" pos="360"/>
          <note pan="0" key="75" len="12" vol="78" pos="372"/>
        </pattern>
        <pattern steps="16" muted="0" pos="53376" name="" type="1">
          <note pan="0" key="75" len="192" vol="100" pos="0"/>
          <note pan="0" key="73" len="192" vol="100" pos="192"/>
          <note pan="0" key="70" len="288" vol="100" pos="384"/>
          <note pan="0" key="70" len="96" vol="100" pos="672"/>
          <note pan="0" key="82" len="192" vol="100" pos="768"/>
          <note pan="0" key="80" len="192" vol="100" pos="960"/>
          <note pan="0" key="75" len="384" vol="100" pos="1152"/>
          <note pan="0" key="75" len="192" vol="100" pos="1536"/>
          <note pan="0" key="77" len="192" vol="100" pos="1728"/>
          <note pan="0" key="78" len="192" vol="100" pos="1920"/>
          <note pan="0" key="82" len="96" vol="100" pos="2112"/>
          <note pan="0" key="80" len="96" vol="100" pos="2208"/>
          <note pan="0" key="80" len="192" vol="100" pos="2304"/>
          <note pan="0" key="75" len="144" vol="100" pos="2496"/>
          <note pan="0" key="75" len="24" vol="100" pos="2640"/>
          <note pan="0" key="77" len="24" vol="100" pos="2664"/>
          <note pan="0" key="78" len="192" vol="100" pos="2688"/>
          <note pan="0" key="80" len="96" vol="100" pos="2880"/>
          <note pan="0" key="85" len="96" vol="100" pos="2976"/>
        </pattern>
      </track>
      <track solo="0" mutedBeforeSolo="0" muted="0" name="TB_hit_C5_v4_rr1.wav" type="0">
        <instrumenttrack pan="0" basenote="60" pitch="0" usemasterpitch="1" vol="43.5" pitchrange="1" fxch="22">
          <instrument name="audiofileprocessor">
            <audiofileprocessor stutter="0" amp="100" reversed="0" src="/home/pass/samples/VSCO-2-CE-SFZ/VSCO-2-CE-SFZ/Percussion/TB_hit_C5_v4_rr1.wav" interp="1" eframe="1" looped="0" sframe="0" lframe="0">
              <key/>
            </audiofileprocessor>
          </instrument>
          <eldata fcut="14000" fres="0.5" ftype="0" fwet="0">
            <elvol lspd_syncmode="0" amt="1" lshp="0" lpdel="0" att="0" ctlenvamt="0" dec="2" userwavefile="" x100="0" rel="0.32" sustain="1" lspd_numerator="4" latt="0" lspd="0.1" lamt="0" lspd_denominator="4" hold="0.5" pdel="0"/>
            <elcut lspd_syncmode="0" amt="0" lshp="0" lpdel="0" att="0" ctlenvamt="0" dec="0.5" userwavefile="" x100="0" rel="0.1" sustain="0.5" lspd_numerator="4" latt="0" lspd="0.1" lamt="0" lspd_denominator="4" hold="0.5" pdel="0"/>
            <elres lspd_syncmode="0" amt="0" lshp="0" lpdel="0" att="0" ctlenvamt="0" dec="0.5" userwavefile="" x100="0" rel="0.1" sustain="0.5" lspd_numerator="4" latt="0" lspd="0.1" lamt="0" lspd_denominator="4" hold="0.5" pdel="0"/>
          </eldata>
          <chordcreator chordrange="1" chord-enabled="0" chord="0"/>
          <arpeggiator arprange="1" arpmode="0" arpcycle="0" arptime_syncmode="0" arptime_numerator="4" arpgate="100" arptime="200" arpskip="0" arpmiss="0" arp="0" arptime_denominator="4" arp-enabled="0" arpdir="0"/>
          <midiport inputcontroller="0" outputcontroller="0" readable="0" outputchannel="1" fixedoutputvelocity="-1" outputprogram="1" fixedinputvelocity="-1" fixedoutputnote="-1" inputchannel="0" basevelocity="63" writable="0"/>
          <fxchain enabled="1" numofeffects="0"/>
        </instrumenttrack>
        <pattern steps="16" muted="0" pos="384" name="" type="1">
          <note pan="0" key="49" len="384" vol="197" pos="0"/>
          <note pan="0" key="49" len="336" vol="155" pos="48"/>
        </pattern>
        <pattern steps="16" muted="0" pos="1920" name="" type="1">
          <note pan="0" key="49" len="24" vol="195" pos="0"/>
          <note pan="0" key="49" len="24" vol="195" pos="72"/>
          <note pan="0" key="49" len="24" vol="195" pos="144"/>
          <note pan="0" key="49" len="24" vol="195" pos="216"/>
          <note pan="0" key="49" len="24" vol="195" pos="288"/>
          <note pan="0" key="49" len="24" vol="195" pos="312"/>
          <note pan="0" key="49" len="24" vol="195" pos="360"/>
        </pattern>
        <pattern steps="16" muted="0" pos="3456" name="" type="1">
          <note pan="0" key="61" len="144" vol="197" pos="0"/>
          <note pan="0" key="64" len="48" vol="197" pos="144"/>
          <note pan="0" key="63" len="144" vol="197" pos="192"/>
          <note pan="0" key="68" len="48" vol="197" pos="336"/>
          <note pan="0" key="68" len="144" vol="197" pos="384"/>
          <note pan="0" key="66" len="24" vol="197" pos="528"/>
          <note pan="0" key="64" len="24" vol="197" pos="552"/>
          <note pan="0" key="63" len="48" vol="197" pos="576"/>
          <note pan="0" key="64" len="48" vol="197" pos="624"/>
          <note pan="0" key="59" len="48" vol="197" pos="672"/>
          <note pan="0" key="56" len="48" vol="197" pos="720"/>
          <note pan="0" key="57" len="144" vol="197" pos="768"/>
          <note pan="0" key="64" len="48" vol="197" pos="912"/>
          <note pan="0" key="63" len="144" vol="197" pos="960"/>
          <note pan="0" key="66" len="48" vol="197" pos="1104"/>
          <note pan="0" key="64" len="96" vol="197" pos="1152"/>
          <note pan="0" key="68" len="48" vol="197" pos="1248"/>
          <note pan="0" key="64" len="48" vol="197" pos="1296"/>
          <note pan="0" key="66" len="48" vol="197" pos="1344"/>
          <note pan="0" key="71" len="48" vol="197" pos="1392"/>
          <note pan="0" key="68" len="48" vol="197" pos="1440"/>
          <note pan="0" key="75" len="48" vol="197" pos="1488"/>
        </pattern>
        <pattern steps="16" muted="0" pos="24960" name="" type="1">
          <note pan="0" key="61" len="192" vol="200" pos="0"/>
          <note pan="0" key="59" len="192" vol="200" pos="192"/>
          <note pan="0" key="56" len="288" vol="200" pos="384"/>
          <note pan="0" key="56" len="96" vol="200" pos="672"/>
          <note pan="0" key="68" len="192" vol="200" pos="768"/>
          <note pan="0" key="66" len="192" vol="200" pos="960"/>
          <note pan="0" key="61" len="384" vol="200" pos="1152"/>
          <note pan="0" key="61" len="192" vol="200" pos="1536"/>
          <note pan="0" key="63" len="192" vol="200" pos="1728"/>
          <note pan="0" key="64" len="192" vol="200" pos="1920"/>
          <note pan="0" key="68" len="96" vol="200" pos="2112"/>
          <note pan="0" key="66" len="96" vol="200" pos="2208"/>
          <note pan="0" key="66" len="192" vol="200" pos="2304"/>
          <note pan="0" key="61" len="144" vol="200" pos="2496"/>
          <note pan="0" key="61" len="24" vol="200" pos="2640"/>
          <note pan="0" key="63" len="24" vol="200" pos="2664"/>
          <note pan="0" key="64" len="192" vol="200" pos="2688"/>
          <note pan="0" key="64" len="96" vol="200" pos="2880"/>
          <note pan="0" key="68" len="96" vol="200" pos="2976"/>
          <note pan="0" key="73" len="384" vol="200" pos="3072"/>
          <note pan="0" key="73" len="384" vol="200" pos="3456"/>
        </pattern>
        <pattern steps="16" muted="0" pos="8064" name="" type="1">
          <note pan="0" key="61" len="192" vol="97" pos="0"/>
          <note pan="0" key="56" len="192" vol="97" pos="192"/>
          <note pan="0" key="57" len="192" vol="97" pos="384"/>
          <note pan="0" key="59" len="192" vol="97" pos="576"/>
          <note pan="0" key="54" len="192" vol="97" pos="768"/>
          <note pan="0" key="56" len="192" vol="97" pos="960"/>
          <note pan="0" key="57" len="192" vol="97" pos="1152"/>
          <note pan="0" key="59" len="96" vol="97" pos="1344"/>
          <note pan="0" key="60" len="96" vol="97" pos="1440"/>
          <note pan="0" key="61" len="192" vol="97" pos="1536"/>
          <note pan="0" key="59" len="192" vol="97" pos="1728"/>
          <note pan="0" key="58" len="192" vol="97" pos="1920"/>
          <note pan="0" key="50" len="192" vol="97" pos="2304"/>
          <note pan="0" key="57" len="192" vol="97" pos="2496"/>
          <note pan="0" key="59" len="192" vol="97" pos="2688"/>
        </pattern>
        <pattern steps="16" muted="0" pos="31872" name="" type="1">
          <note pan="0" key="56" len="192" vol="200" pos="0"/>
          <note pan="0" key="57" len="192" vol="200" pos="192"/>
          <note pan="0" key="59" len="192" vol="200" pos="384"/>
          <note pan="0" key="54" len="192" vol="200" pos="576"/>
          <note pan="0" key="56" len="192" vol="200" pos="768"/>
          <note pan="0" key="57" len="192" vol="200" pos="960"/>
          <note pan="0" key="59" len="192" vol="200" pos="1152"/>
          <note pan="0" key="63" len="192" vol="200" pos="1344"/>
          <note pan="0" key="61" len="192" vol="200" pos="1536"/>
          <note pan="0" key="61" len="192" vol="200" pos="1920"/>
          <note pan="0" key="64" len="192" vol="200" pos="2112"/>
          <note pan="0" key="62" len="192" vol="200" pos="2304"/>
          <note pan="0" key="61" len="192" vol="200" pos="2688"/>
          <note pan="0" key="66" len="192" vol="200" pos="2880"/>
        </pattern>
        <pattern steps="16" muted="0" pos="34944" name="" type="1">
          <note pan="0" key="61" len="144" vol="197" pos="0"/>
          <note pan="0" key="64" len="48" vol="197" pos="144"/>
          <note pan="0" key="63" len="144" vol="197" pos="192"/>
          <note pan="0" key="68" len="48" vol="197" pos="336"/>
          <note pan="0" key="68" len="144" vol="197" pos="384"/>
          <note pan="0" key="66" len="24" vol="197" pos="528"/>
          <note pan="0" key="64" len="24" vol="197" pos="552"/>
          <note pan="0" key="63" len="48" vol="197" pos="576"/>
          <note pan="0" key="64" len="48" vol="197" pos="624"/>
          <note pan="0" key="59" len="48" vol="197" pos="672"/>
          <note pan="0" key="56" len="48" vol="197" pos="720"/>
          <note pan="0" key="57" len="144" vol="197" pos="768"/>
          <note pan="0" key="64" len="48" vol="197" pos="912"/>
          <note pan="0" key="63" len="144" vol="197" pos="960"/>
          <note pan="0" key="66" len="48" vol="197" pos="1104"/>
          <note pan="0" key="64" len="96" vol="197" pos="1152"/>
          <note pan="0" key="68" len="48" vol="197" pos="1248"/>
          <note pan="0" key="64" len="48" vol="197" pos="1296"/>
          <note pan="0" key="66" len="48" vol="197" pos="1344"/>
          <note pan="0" key="71" len="48" vol="197" pos="1392"/>
          <note pan="0" key="68" len="48" vol="197" pos="1440"/>
          <note pan="0" key="75" len="48" vol="197" pos="1488"/>
        </pattern>
        <pattern steps="16" muted="0" pos="50304" name="" type="1">
          <note pan="0" key="63" len="192" vol="197" pos="0"/>
          <note pan="0" key="61" len="192" vol="197" pos="192"/>
          <note pan="0" key="58" len="288" vol="197" pos="384"/>
          <note pan="0" key="58" len="96" vol="197" pos="672"/>
          <note pan="0" key="63" len="192" vol="197" pos="768"/>
          <note pan="0" key="61" len="192" vol="197" pos="960"/>
          <note pan="0" key="58" len="384" vol="197" pos="1152"/>
          <note pan="0" key="58" len="192" vol="197" pos="1536"/>
          <note pan="0" key="59" len="192" vol="197" pos="1728"/>
          <note pan="0" key="61" len="192" vol="197" pos="1920"/>
          <note pan="0" key="66" len="192" vol="197" pos="2112"/>
          <note pan="0" key="63" len="384" vol="197" pos="2304"/>
        </pattern>
        <pattern steps="16" muted="0" pos="53376" name="" type="1">
          <note pan="0" key="63" len="192" vol="197" pos="0"/>
          <note pan="0" key="61" len="192" vol="197" pos="192"/>
          <note pan="0" key="58" len="288" vol="197" pos="384"/>
          <note pan="0" key="58" len="96" vol="197" pos="672"/>
          <note pan="0" key="70" len="192" vol="197" pos="768"/>
          <note pan="0" key="68" len="192" vol="197" pos="960"/>
          <note pan="0" key="63" len="384" vol="197" pos="1152"/>
          <note pan="0" key="63" len="192" vol="197" pos="1536"/>
          <note pan="0" key="65" len="192" vol="197" pos="1728"/>
          <note pan="0" key="66" len="192" vol="197" pos="1920"/>
          <note pan="0" key="70" len="96" vol="197" pos="2112"/>
          <note pan="0" key="68" len="96" vol="197" pos="2208"/>
          <note pan="0" key="68" len="192" vol="197" pos="2304"/>
          <note pan="0" key="63" len="144" vol="197" pos="2496"/>
          <note pan="0" key="63" len="24" vol="197" pos="2640"/>
          <note pan="0" key="65" len="24" vol="197" pos="2664"/>
          <note pan="0" key="66" len="192" vol="197" pos="2688"/>
          <note pan="0" key="68" len="96" vol="197" pos="2880"/>
          <note pan="0" key="73" len="96" vol="197" pos="2976"/>
          <note pan="0" key="75" len="384" vol="197" pos="3072"/>
        </pattern>
        <pattern steps="16" muted="0" pos="768" name="" type="1">
          <note pan="0" key="49" len="384" vol="197" pos="0"/>
          <note pan="0" key="49" len="336" vol="155" pos="48"/>
        </pattern>
        <pattern steps="16" muted="0" pos="1152" name="" type="1">
          <note pan="0" key="49" len="384" vol="197" pos="0"/>
          <note pan="0" key="49" len="336" vol="155" pos="48"/>
        </pattern>
        <pattern steps="16" muted="0" pos="1536" name="" type="1">
          <note pan="0" key="49" len="384" vol="197" pos="0"/>
          <note pan="0" key="49" len="336" vol="155" pos="48"/>
        </pattern>
        <pattern steps="16" muted="0" pos="2304" name="" type="1">
          <note pan="0" key="49" len="24" vol="195" pos="0"/>
          <note pan="0" key="49" len="24" vol="195" pos="72"/>
          <note pan="0" key="49" len="24" vol="195" pos="144"/>
          <note pan="0" key="49" len="24" vol="195" pos="216"/>
          <note pan="0" key="49" len="24" vol="195" pos="288"/>
          <note pan="0" key="49" len="24" vol="195" pos="312"/>
          <note pan="0" key="49" len="24" vol="195" pos="360"/>
        </pattern>
        <pattern steps="16" muted="0" pos="2688" name="" type="1">
          <note pan="0" key="49" len="24" vol="195" pos="0"/>
          <note pan="0" key="49" len="24" vol="195" pos="72"/>
          <note pan="0" key="49" len="24" vol="195" pos="144"/>
          <note pan="0" key="49" len="24" vol="195" pos="216"/>
          <note pan="0" key="49" len="24" vol="195" pos="288"/>
          <note pan="0" key="49" len="24" vol="195" pos="312"/>
          <note pan="0" key="49" len="24" vol="195" pos="360"/>
        </pattern>
        <pattern steps="16" muted="0" pos="3072" name="" type="1">
          <note pan="0" key="49" len="24" vol="195" pos="0"/>
          <note pan="0" key="49" len="24" vol="195" pos="72"/>
          <note pan="0" key="49" len="24" vol="195" pos="144"/>
          <note pan="0" key="49" len="192" vol="195" pos="192"/>
        </pattern>
        <pattern steps="16" muted="0" pos="62592" name="" type="1">
          <note pan="0" key="63" len="144" vol="197" pos="0"/>
          <note pan="0" key="66" len="48" vol="197" pos="144"/>
          <note pan="0" key="65" len="144" vol="197" pos="192"/>
          <note pan="0" key="70" len="48" vol="197" pos="336"/>
          <note pan="0" key="70" len="144" vol="197" pos="384"/>
          <note pan="0" key="68" len="24" vol="197" pos="528"/>
          <note pan="0" key="66" len="24" vol="197" pos="552"/>
          <note pan="0" key="65" len="48" vol="197" pos="576"/>
          <note pan="0" key="66" len="48" vol="197" pos="624"/>
          <note pan="0" key="61" len="48" vol="197" pos="672"/>
          <note pan="0" key="58" len="48" vol="197" pos="720"/>
          <note pan="0" key="59" len="144" vol="197" pos="768"/>
          <note pan="0" key="66" len="48" vol="197" pos="912"/>
          <note pan="0" key="65" len="144" vol="197" pos="960"/>
          <note pan="0" key="68" len="48" vol="197" pos="1104"/>
        </pattern>
        <pattern steps="16" muted="0" pos="64320" name="" type="1">
          <note pan="0" key="63" len="384" vol="197" pos="0"/>
        </pattern>
      </track>
      <track solo="0" mutedBeforeSolo="0" muted="0" name="choir hi" type="0">
        <instrumenttrack pan="0" basenote="57" pitch="0" usemasterpitch="1" vol="54.4" pitchrange="1" fxch="0">
          <instrument name="carlapatchbay">
            <carlapatchbay>
              <CARLA-PROJECT VERSION="2.2">
                <EngineSettings>
                  <ForceStereo>false</ForceStereo>
                  <PreferPluginBridges>false</PreferPluginBridges>
                  <PreferUiBridges>true</PreferUiBridges>
                  <UIsAlwaysOnTop>false</UIsAlwaysOnTop>
                  <MaxParameters>200</MaxParameters>
                  <UIBridgesTimeout>4000</UIBridgesTimeout>
                  <LADSPA_PATH>/home/pass/.ladspa:/usr/lib/ladspa:/usr/local/lib/ladspa</LADSPA_PATH>
                  <DSSI_PATH>/home/pass/.dssi:/usr/lib/dssi:/usr/local/lib/dssi</DSSI_PATH>
                  <LV2_PATH>/home/pass/.lv2:/usr/lib/lv2:/usr/local/lib/lv2</LV2_PATH>
                  <VST2_PATH>/home/pass/.vst:/home/pass/.wine/drive_c/Program Files (x86)/VstPlugins:/home/pass/.wine/drive_c/Program Files/VstPlugins:/home/pass/Music/winvst/VST32:/home/pass/Music/winvst/VST64/Plogue Art et Technologie, Inc:/home/pass/vst:/usr/lib/lxvst:/usr/lib/vst:/usr/local/lib/lxvst:/usr/local/lib/vst/home/pass/.lxvst</VST2_PATH>
                  <VST3_PATH>/home/pass/.vst3:/home/pass/.wine/drive_c/Program Files (x86)/Common Files/VST3:/home/pass/.wine/drive_c/Program Files/Common Files/VST3:/usr/lib/vst3:/usr/local/lib/vst3</VST3_PATH>
                  <SF2_PATH>/home/pass/.sounds/sf2/home/pass/.sounds/sf3:/home/pass/samples/soundfonts:/usr/share/soundfonts:/usr/share/sounds/sf2:/usr/share/sounds/sf3</SF2_PATH>
                  <SFZ_PATH>/home/pass/.sounds/sfz:/home/pass/samples:/usr/share/sounds/sfz</SFZ_PATH>
                </EngineSettings>
                <!-- liquidsfz -->
                <Plugin>
                  <Info>
                    <Type>LV2</Type>
                    <Name>liquidsfz</Name>
                    <URI>http://spectmorph.org/plugins/liquidsfz</URI>
                  </Info>
                  <Data>
                    <Active>Yes</Active>
                    <ControlChannel>1</ControlChannel>
                    <Options>0x3f0</Options>
                    <Parameter>
                      <Index>0</Index>
                      <Name>Output Level</Name>
                      <Symbol>level</Symbol>
                      <Value>0</Value>
                    </Parameter>
                    <CustomData>
                      <Type>http://lv2plug.in/ns/ext/atom#Path</Type>
                      <Key>http://spectmorph.org/plugins/liquidsfz#sfzfile</Key>
                      <Value>Chorus - Female (nolimits).sfz</Value>
                    </CustomData>
                  </Data>
                </Plugin>
                <Patchbay>
                  <Connection>
                    <Source>Midi Input:Capture 1</Source>
                    <Target>liquidsfz:events-in</Target>
                  </Connection>
                  <Connection>
                    <Source>liquidsfz:Left Output</Source>
                    <Target>Audio Output:Left</Target>
                  </Connection>
                  <Connection>
                    <Source>liquidsfz:Right Output</Source>
                    <Target>Audio Output:Right</Target>
                  </Connection>
                  <Positions>
                    <Position y1="1290" x1="1710" pluginId="0">
                      <Name>liquidsfz</Name>
                    </Position>
                  </Positions>
                </Patchbay>
              </CARLA-PROJECT>
              <key/>
            </carlapatchbay>
          </instrument>
          <eldata fcut="14000" fres="0.5" ftype="0" fwet="0">
            <elvol lspd_syncmode="0" amt="0" lshp="0" lpdel="0" att="0" ctlenvamt="0" dec="0.5" userwavefile="" x100="0" rel="0.1" sustain="0.5" lspd_numerator="4" latt="0" lspd="0.1" lamt="0" lspd_denominator="4" hold="0.5" pdel="0"/>
            <elcut lspd_syncmode="0" amt="0" lshp="0" lpdel="0" att="0" ctlenvamt="0" dec="0.5" userwavefile="" x100="0" rel="0.1" sustain="0.5" lspd_numerator="4" latt="0" lspd="0.1" lamt="0" lspd_denominator="4" hold="0.5" pdel="0"/>
            <elres lspd_syncmode="0" amt="0" lshp="0" lpdel="0" att="0" ctlenvamt="0" dec="0.5" userwavefile="" x100="0" rel="0.1" sustain="0.5" lspd_numerator="4" latt="0" lspd="0.1" lamt="0" lspd_denominator="4" hold="0.5" pdel="0"/>
          </eldata>
          <chordcreator chordrange="1" chord-enabled="0" chord="0"/>
          <arpeggiator arprange="1" arpmode="0" arpcycle="0" arptime_syncmode="0" arptime_numerator="4" arpgate="100" arptime="200" arpskip="0" arpmiss="0" arp="0" arptime_denominator="4" arp-enabled="0" arpdir="0"/>
          <midiport inputcontroller="0" outputcontroller="0" readable="0" outputchannel="1" fixedoutputvelocity="-1" outputprogram="1" fixedinputvelocity="-1" fixedoutputnote="-1" inputchannel="0" basevelocity="63" writable="0"/>
          <fxchain enabled="0" numofeffects="0"/>
        </instrumenttrack>
        <pattern steps="16" muted="0" pos="1920" name="" type="1">
          <note pan="0" key="44" len="36" vol="78" pos="0"/>
          <note pan="0" key="37" len="36" vol="78" pos="0"/>
          <note pan="0" key="1" len="24" vol="78" pos="0"/>
          <note pan="0" key="44" len="36" vol="78" pos="72"/>
          <note pan="0" key="37" len="36" vol="78" pos="72"/>
          <note pan="0" key="44" len="36" vol="78" pos="144"/>
          <note pan="0" key="37" len="36" vol="78" pos="144"/>
          <note pan="0" key="44" len="36" vol="78" pos="216"/>
          <note pan="0" key="37" len="36" vol="78" pos="216"/>
          <note pan="0" key="44" len="24" vol="78" pos="288"/>
          <note pan="0" key="37" len="24" vol="78" pos="288"/>
          <note pan="0" key="0" len="24" vol="78" pos="300"/>
          <note pan="0" key="44" len="48" vol="78" pos="312"/>
          <note pan="0" key="37" len="48" vol="78" pos="312"/>
          <note pan="0" key="1" len="24" vol="78" pos="336"/>
          <note pan="0" key="44" len="24" vol="78" pos="360"/>
          <note pan="0" key="37" len="24" vol="78" pos="360"/>
          <note pan="0" key="51" len="36" vol="78" pos="384"/>
          <note pan="0" key="44" len="36" vol="78" pos="384"/>
          <note pan="0" key="51" len="36" vol="78" pos="456"/>
          <note pan="0" key="44" len="36" vol="78" pos="456"/>
          <note pan="0" key="51" len="36" vol="78" pos="528"/>
          <note pan="0" key="44" len="36" vol="78" pos="528"/>
          <note pan="0" key="51" len="36" vol="78" pos="600"/>
          <note pan="0" key="44" len="36" vol="78" pos="600"/>
          <note pan="0" key="51" len="24" vol="78" pos="672"/>
          <note pan="0" key="44" len="24" vol="78" pos="672"/>
          <note pan="0" key="0" len="24" vol="78" pos="684"/>
          <note pan="0" key="51" len="48" vol="78" pos="696"/>
          <note pan="0" key="44" len="48" vol="78" pos="696"/>
          <note pan="0" key="1" len="24" vol="78" pos="720"/>
          <note pan="0" key="51" len="24" vol="78" pos="744"/>
          <note pan="0" key="44" len="24" vol="78" pos="744"/>
          <note pan="0" key="46" len="36" vol="78" pos="768"/>
          <note pan="0" key="39" len="36" vol="78" pos="768"/>
          <note pan="0" key="46" len="36" vol="78" pos="840"/>
          <note pan="0" key="39" len="36" vol="78" pos="840"/>
          <note pan="0" key="46" len="36" vol="78" pos="912"/>
          <note pan="0" key="39" len="36" vol="78" pos="912"/>
          <note pan="0" key="46" len="36" vol="78" pos="984"/>
          <note pan="0" key="39" len="36" vol="78" pos="984"/>
          <note pan="0" key="46" len="24" vol="78" pos="1056"/>
          <note pan="0" key="39" len="24" vol="78" pos="1056"/>
          <note pan="0" key="0" len="24" vol="78" pos="1068"/>
          <note pan="0" key="46" len="48" vol="78" pos="1080"/>
          <note pan="0" key="39" len="48" vol="78" pos="1080"/>
          <note pan="0" key="1" len="24" vol="78" pos="1116"/>
          <note pan="0" key="46" len="24" vol="78" pos="1128"/>
          <note pan="0" key="39" len="24" vol="78" pos="1128"/>
          <note pan="0" key="45" len="36" vol="78" pos="1152"/>
          <note pan="0" key="38" len="36" vol="78" pos="1152"/>
          <note pan="0" key="45" len="36" vol="78" pos="1224"/>
          <note pan="0" key="38" len="36" vol="78" pos="1224"/>
          <note pan="0" key="45" len="36" vol="78" pos="1296"/>
          <note pan="0" key="38" len="36" vol="78" pos="1296"/>
        </pattern>
        <pattern steps="16" muted="0" pos="44160" name="" type="1">
          <note pan="0" key="75" len="144" vol="200" pos="0"/>
          <note pan="0" key="63" len="144" vol="137" pos="0"/>
          <note pan="0" key="78" len="48" vol="200" pos="144"/>
          <note pan="0" key="66" len="48" vol="137" pos="144"/>
          <note pan="0" key="77" len="144" vol="200" pos="192"/>
          <note pan="0" key="65" len="144" vol="137" pos="192"/>
          <note pan="0" key="82" len="48" vol="200" pos="336"/>
          <note pan="0" key="70" len="48" vol="137" pos="336"/>
          <note pan="0" key="82" len="144" vol="200" pos="384"/>
          <note pan="0" key="70" len="144" vol="137" pos="384"/>
          <note pan="0" key="80" len="24" vol="200" pos="528"/>
          <note pan="0" key="68" len="24" vol="137" pos="528"/>
          <note pan="0" key="78" len="24" vol="200" pos="552"/>
          <note pan="0" key="66" len="24" vol="137" pos="552"/>
          <note pan="0" key="77" len="48" vol="200" pos="576"/>
          <note pan="0" key="65" len="48" vol="137" pos="576"/>
          <note pan="0" key="78" len="48" vol="200" pos="624"/>
          <note pan="0" key="66" len="48" vol="137" pos="624"/>
          <note pan="0" key="73" len="48" vol="200" pos="672"/>
          <note pan="0" key="61" len="48" vol="137" pos="672"/>
          <note pan="0" key="70" len="48" vol="200" pos="720"/>
          <note pan="0" key="58" len="48" vol="137" pos="720"/>
          <note pan="0" key="71" len="96" vol="200" pos="768"/>
          <note pan="0" key="59" len="96" vol="137" pos="768"/>
          <note pan="0" key="75" len="48" vol="200" pos="864"/>
          <note pan="0" key="63" len="48" vol="137" pos="864"/>
          <note pan="0" key="78" len="48" vol="200" pos="912"/>
          <note pan="0" key="66" len="48" vol="137" pos="912"/>
          <note pan="0" key="78" len="96" vol="200" pos="960"/>
          <note pan="0" key="66" len="96" vol="137" pos="960"/>
          <note pan="0" key="77" len="48" vol="200" pos="1056"/>
          <note pan="0" key="65" len="48" vol="137" pos="1056"/>
          <note pan="0" key="78" len="48" vol="200" pos="1104"/>
          <note pan="0" key="66" len="48" vol="137" pos="1104"/>
          <note pan="0" key="85" len="72" vol="200" pos="1152"/>
          <note pan="0" key="73" len="72" vol="137" pos="1152"/>
          <note pan="0" key="83" len="72" vol="200" pos="1224"/>
          <note pan="0" key="71" len="72" vol="137" pos="1224"/>
          <note pan="0" key="82" len="48" vol="200" pos="1296"/>
          <note pan="0" key="70" len="48" vol="137" pos="1296"/>
          <note pan="0" key="80" len="192" vol="200" pos="1344"/>
          <note pan="0" key="68" len="192" vol="137" pos="1344"/>
          <note pan="0" key="78" len="72" vol="200" pos="1536"/>
          <note pan="0" key="66" len="72" vol="137" pos="1536"/>
          <note pan="0" key="77" len="72" vol="200" pos="1608"/>
          <note pan="0" key="65" len="72" vol="137" pos="1608"/>
          <note pan="0" key="78" len="48" vol="200" pos="1680"/>
          <note pan="0" key="66" len="48" vol="137" pos="1680"/>
          <note pan="0" key="82" len="144" vol="200" pos="1728"/>
          <note pan="0" key="70" len="144" vol="137" pos="1728"/>
          <note pan="0" key="77" len="48" vol="179" pos="1872"/>
          <note pan="0" key="65" len="48" vol="137" pos="1872"/>
          <note pan="0" key="75" len="240" vol="144" pos="1920"/>
          <note pan="0" key="63" len="240" vol="137" pos="1920"/>
          <note pan="0" key="78" len="48" vol="200" pos="2160"/>
          <note pan="0" key="66" len="48" vol="137" pos="2160"/>
          <note pan="0" key="80" len="48" vol="200" pos="2208"/>
          <note pan="0" key="68" len="48" vol="137" pos="2208"/>
          <note pan="0" key="82" len="48" vol="200" pos="2256"/>
          <note pan="0" key="70" len="48" vol="137" pos="2256"/>
          <note pan="0" key="83" len="72" vol="200" pos="2304"/>
          <note pan="0" key="71" len="72" vol="137" pos="2304"/>
          <note pan="0" key="82" len="72" vol="200" pos="2376"/>
          <note pan="0" key="70" len="72" vol="137" pos="2376"/>
          <note pan="0" key="80" len="48" vol="200" pos="2448"/>
          <note pan="0" key="68" len="48" vol="137" pos="2448"/>
          <note pan="0" key="78" len="48" vol="200" pos="2496"/>
          <note pan="0" key="66" len="48" vol="137" pos="2496"/>
          <note pan="0" key="75" len="48" vol="200" pos="2544"/>
          <note pan="0" key="63" len="48" vol="137" pos="2544"/>
          <note pan="0" key="78" len="48" vol="200" pos="2592"/>
          <note pan="0" key="66" len="48" vol="137" pos="2592"/>
          <note pan="0" key="82" len="48" vol="200" pos="2640"/>
          <note pan="0" key="70" len="48" vol="137" pos="2640"/>
          <note pan="0" key="80" len="192" vol="200" pos="2688"/>
          <note pan="0" key="68" len="192" vol="137" pos="2688"/>
        </pattern>
        <pattern steps="16" muted="0" pos="15744" name="" type="0"/>
        <pattern steps="16" muted="0" pos="21888" name="" type="1">
          <note pan="0" key="73" len="192" vol="200" pos="0"/>
          <note pan="0" key="71" len="192" vol="200" pos="192"/>
          <note pan="0" key="68" len="384" vol="200" pos="384"/>
          <note pan="0" key="68" len="192" vol="200" pos="768"/>
          <note pan="0" key="66" len="192" vol="200" pos="960"/>
          <note pan="0" key="64" len="384" vol="200" pos="1152"/>
        </pattern>
        <pattern steps="16" muted="0" pos="24000" name="" type="1">
          <note pan="0" key="76" len="192" vol="200" pos="0"/>
          <note pan="0" key="73" len="384" vol="200" pos="192"/>
          <note pan="0" key="73" len="384" vol="200" pos="576"/>
        </pattern>
        <pattern steps="16" muted="0" pos="24960" name="" type="1">
          <note pan="0" key="76" len="192" vol="117" pos="0"/>
          <note pan="0" key="73" len="192" vol="117" pos="0"/>
          <note pan="0" key="75" len="192" vol="117" pos="192"/>
          <note pan="0" key="71" len="192" vol="117" pos="192"/>
          <note pan="0" key="76" len="288" vol="117" pos="384"/>
          <note pan="0" key="68" len="288" vol="117" pos="384"/>
          <note pan="0" key="73" len="96" vol="117" pos="672"/>
          <note pan="0" key="68" len="96" vol="117" pos="672"/>
          <note pan="0" key="80" len="192" vol="117" pos="768"/>
          <note pan="0" key="73" len="192" vol="117" pos="768"/>
          <note pan="0" key="78" len="192" vol="117" pos="960"/>
          <note pan="0" key="71" len="192" vol="117" pos="960"/>
          <note pan="0" key="73" len="384" vol="117" pos="1152"/>
          <note pan="0" key="70" len="384" vol="117" pos="1152"/>
          <note pan="0" key="76" len="192" vol="117" pos="1536"/>
          <note pan="0" key="73" len="192" vol="117" pos="1536"/>
          <note pan="0" key="78" len="192" vol="117" pos="1728"/>
          <note pan="0" key="75" len="192" vol="117" pos="1728"/>
          <note pan="0" key="80" len="192" vol="117" pos="1920"/>
          <note pan="0" key="76" len="192" vol="117" pos="1920"/>
          <note pan="0" key="80" len="96" vol="117" pos="2112"/>
          <note pan="0" key="68" len="96" vol="117" pos="2112"/>
          <note pan="0" key="78" len="96" vol="117" pos="2208"/>
          <note pan="0" key="66" len="96" vol="117" pos="2208"/>
          <note pan="0" key="78" len="192" vol="117" pos="2304"/>
          <note pan="0" key="66" len="192" vol="117" pos="2304"/>
          <note pan="0" key="73" len="144" vol="117" pos="2496"/>
          <note pan="0" key="61" len="144" vol="117" pos="2496"/>
          <note pan="0" key="73" len="24" vol="117" pos="2640"/>
          <note pan="0" key="68" len="24" vol="117" pos="2640"/>
          <note pan="0" key="75" len="24" vol="117" pos="2664"/>
          <note pan="0" key="71" len="24" vol="117" pos="2664"/>
          <note pan="0" key="76" len="192" vol="117" pos="2688"/>
          <note pan="0" key="68" len="192" vol="117" pos="2688"/>
          <note pan="0" key="76" len="96" vol="117" pos="2880"/>
          <note pan="0" key="71" len="96" vol="117" pos="2880"/>
          <note pan="0" key="80" len="96" vol="117" pos="2976"/>
          <note pan="0" key="75" len="96" vol="117" pos="2976"/>
          <note pan="0" key="85" len="384" vol="117" pos="3072"/>
          <note pan="0" key="81" len="384" vol="117" pos="3072"/>
          <note pan="0" key="87" len="384" vol="117" pos="3456"/>
          <note pan="0" key="83" len="384" vol="117" pos="3456"/>
        </pattern>
      </track>
      <track solo="0" mutedBeforeSolo="0" muted="0" name="Plucked 6" type="0">
        <instrumenttrack pan="0" basenote="57" pitch="0" usemasterpitch="1" vol="147.2" pitchrange="1" fxch="0">
          <instrument name="zynaddsubfx">
            <zynaddsubfx filterq="64" resbandwidth="64" fmgain="127" bandwidth="64" forwardmidicc="1" modifiedcontrollers="" filterfreq="64" portamento="0" rescenterfreq="64">
              <ZynAddSubFX-data version-minor="4" version-revision="1" version-major="2" ZynAddSubFX-author="Nasca Octavian Paul">
                <INFORMATION/>
                <BASE_PARAMETERS>
                  <par value="16" name="max_midi_parts"/>
                  <par value="16" name="max_kit_items_per_instrument"/>
                  <par value="4" name="max_system_effects"/>
                  <par value="8" name="max_insertion_effects"/>
                  <par value="3" name="max_instrument_effects"/>
                  <par value="8" name="max_addsynth_voices"/>
                </BASE_PARAMETERS>
                <MASTER>
                  <par value="80" name="volume"/>
                  <par value="64" name="key_shift"/>
                  <par_bool value="yes" name="nrpn_receive"/>
                  <MICROTONAL>
                    <string name="name">12tET</string>
                    <string name="comment">Equal Temperament 12 notes per octave</string>
                    <par_bool value="no" name="invert_up_down"/>
                    <par value="60" name="invert_up_down_center"/>
                    <par_bool value="no" name="enabled"/>
                    <par value="64" name="global_fine_detune"/>
                    <par value="69" name="a_note"/>
                    <par_real value="440.000000" name="a_freq"/>
                  </MICROTONAL>
                  <PART id="0">
                    <par_bool value="yes" name="enabled"/>
                    <par value="96" name="volume"/>
                    <par value="64" name="panning"/>
                    <par value="0" name="min_key"/>
                    <par value="127" name="max_key"/>
                    <par value="64" name="key_shift"/>
                    <par value="0" name="rcv_chn"/>
                    <par value="64" name="velocity_sensing"/>
                    <par value="64" name="velocity_offset"/>
                    <par_bool value="yes" name="note_on"/>
                    <par_bool value="yes" name="poly_mode"/>
                    <par value="0" name="legato_mode"/>
                    <par value="15" name="key_limit"/>
                    <INSTRUMENT>
                      <INFO>
                        <string name="name">bell_pad</string>
                        <string name="author"/>
                        <string name="comments"/>
                        <par value="0" name="type"/>
                      </INFO>
                      <INSTRUMENT_KIT>
                        <par value="0" name="kit_mode"/>
                        <par_bool value="no" name="drum_mode"/>
                        <INSTRUMENT_KIT_ITEM id="0">
                          <par_bool value="yes" name="enabled"/>
                          <string name="name"/>
                          <par_bool value="no" name="muted"/>
                          <par value="0" name="min_key"/>
                          <par value="127" name="max_key"/>
                          <par value="0" name="send_to_instrument_effect"/>
                          <par_bool value="yes" name="add_enabled"/>
                          <ADD_SYNTH_PARAMETERS>
                            <par_bool value="yes" name="stereo"/>
                            <AMPLITUDE_PARAMETERS>
                              <par value="90" name="volume"/>
                              <par value="64" name="panning"/>
                              <par value="64" name="velocity_sensing"/>
                              <par value="0" name="punch_strength"/>
                              <par value="60" name="punch_time"/>
                              <par value="64" name="punch_stretch"/>
                              <par value="72" name="punch_velocity_sensing"/>
                              <par value="0" name="harmonic_randomness_grouping"/>
                              <AMPLITUDE_ENVELOPE>
                                <par_bool value="no" name="free_mode"/>
                                <par value="4" name="env_points"/>
                                <par value="2" name="env_sustain"/>
                                <par value="64" name="env_stretch"/>
                                <par_bool value="yes" name="forced_release"/>
                                <par_bool value="no" name="linear_envelope"/>
                                <par value="0" name="A_dt"/>
                                <par value="80" name="D_dt"/>
                                <par value="87" name="R_dt"/>
                                <par value="64" name="A_val"/>
                                <par value="64" name="D_val"/>
                                <par value="0" name="S_val"/>
                                <par value="64" name="R_val"/>
                              </AMPLITUDE_ENVELOPE>
                              <AMPLITUDE_LFO>
                                <par_real value="0.629921" name="freq"/>
                                <par value="0" name="intensity"/>
                                <par value="64" name="start_phase"/>
                                <par value="0" name="lfo_type"/>
                                <par value="0" name="randomness_amplitude"/>
                                <par value="0" name="randomness_frequency"/>
                                <par value="0" name="delay"/>
                                <par value="64" name="stretch"/>
                                <par_bool value="no" name="continous"/>
                              </AMPLITUDE_LFO>
                            </AMPLITUDE_PARAMETERS>
                            <FREQUENCY_PARAMETERS>
                              <par value="8192" name="detune"/>
                              <par value="0" name="coarse_detune"/>
                              <par value="1" name="detune_type"/>
                              <par value="64" name="bandwidth"/>
                              <FREQUENCY_ENVELOPE>
                                <par_bool value="no" name="free_mode"/>
                                <par value="3" name="env_points"/>
                                <par value="1" name="env_sustain"/>
                                <par value="0" name="env_stretch"/>
                                <par_bool value="no" name="forced_release"/>
                                <par_bool value="no" name="linear_envelope"/>
                                <par value="50" name="A_dt"/>
                                <par value="10" name="D_dt"/>
                                <par value="60" name="R_dt"/>
                                <par value="64" name="A_val"/>
                                <par value="64" name="D_val"/>
                                <par value="64" name="S_val"/>
                                <par value="64" name="R_val"/>
                              </FREQUENCY_ENVELOPE>
                              <FREQUENCY_LFO>
                                <par_real value="0.551181" name="freq"/>
                                <par value="0" name="intensity"/>
                                <par value="64" name="start_phase"/>
                                <par value="0" name="lfo_type"/>
                                <par value="0" name="randomness_amplitude"/>
                                <par value="0" name="randomness_frequency"/>
                                <par value="0" name="delay"/>
                                <par value="64" name="stretch"/>
                                <par_bool value="no" name="continous"/>
                              </FREQUENCY_LFO>
                            </FREQUENCY_PARAMETERS>
                            <FILTER_PARAMETERS>
                              <par value="64" name="velocity_sensing_amplitude"/>
                              <par value="64" name="velocity_sensing"/>
                              <FILTER>
                                <par value="0" name="category"/>
                                <par value="2" name="type"/>
                                <par value="94" name="freq"/>
                                <par value="40" name="q"/>
                                <par value="0" name="stages"/>
                                <par value="64" name="freq_track"/>
                                <par value="64" name="gain"/>
                              </FILTER>
                              <FILTER_ENVELOPE>
                                <par_bool value="no" name="free_mode"/>
                                <par value="4" name="env_points"/>
                                <par value="2" name="env_sustain"/>
                                <par value="0" name="env_stretch"/>
                                <par_bool value="yes" name="forced_release"/>
                                <par_bool value="no" name="linear_envelope"/>
                                <par value="40" name="A_dt"/>
                                <par value="70" name="D_dt"/>
                                <par value="61" name="R_dt"/>
                                <par value="64" name="A_val"/>
                                <par value="64" name="D_val"/>
                                <par value="64" name="S_val"/>
                                <par value="64" name="R_val"/>
                              </FILTER_ENVELOPE>
                              <FILTER_LFO>
                                <par_real value="0.629921" name="freq"/>
                                <par value="0" name="intensity"/>
                                <par value="64" name="start_phase"/>
                                <par value="0" name="lfo_type"/>
                                <par value="0" name="randomness_amplitude"/>
                                <par value="0" name="randomness_frequency"/>
                                <par value="0" name="delay"/>
                                <par value="64" name="stretch"/>
                                <par_bool value="no" name="continous"/>
                              </FILTER_LFO>
                            </FILTER_PARAMETERS>
                            <RESONANCE>
                              <par_bool value="no" name="enabled"/>
                            </RESONANCE>
                            <VOICE id="0">
                              <par_bool value="yes" name="enabled"/>
                              <par value="0" name="type"/>
                              <par value="10" name="unison_size"/>
                              <par value="60" name="unison_frequency_spread"/>
                              <par value="64" name="unison_stereo_spread"/>
                              <par value="64" name="unison_vibratto"/>
                              <par value="64" name="unison_vibratto_speed"/>
                              <par value="0" name="unison_invert_phase"/>
                              <par value="127" name="unison_phase_randomness"/>
                              <par value="0" name="delay"/>
                              <par_bool value="yes" name="resonance"/>
                              <par value="-1" name="ext_oscil"/>
                              <par value="-1" name="ext_fm_oscil"/>
                              <par value="64" name="oscil_phase"/>
                              <par value="64" name="oscil_fm_phase"/>
                              <par_bool value="no" name="filter_enabled"/>
                              <par_bool value="no" name="filter_bypass"/>
                              <par value="0" name="fm_enabled"/>
                              <OSCIL>
                                <par value="0" name="harmonic_mag_type"/>
                                <par value="0" name="base_function"/>
                                <par value="64" name="base_function_par"/>
                                <par value="0" name="base_function_modulation"/>
                                <par value="64" name="base_function_modulation_par1"/>
                                <par value="64" name="base_function_modulation_par2"/>
                                <par value="32" name="base_function_modulation_par3"/>
                                <par value="0" name="modulation"/>
                                <par value="64" name="modulation_par1"/>
                                <par value="64" name="modulation_par2"/>
                                <par value="32" name="modulation_par3"/>
                                <par value="64" name="wave_shaping"/>
                                <par value="0" name="wave_shaping_function"/>
                                <par value="0" name="filter_type"/>
                                <par value="64" name="filter_par1"/>
                                <par value="64" name="filter_par2"/>
                                <par value="0" name="filter_before_wave_shaping"/>
                                <par value="0" name="spectrum_adjust_type"/>
                                <par value="64" name="spectrum_adjust_par"/>
                                <par value="64" name="rand"/>
                                <par value="0" name="amp_rand_type"/>
                                <par value="64" name="amp_rand_power"/>
                                <par value="0" name="harmonic_shift"/>
                                <par_bool value="no" name="harmonic_shift_first"/>
                                <par value="0" name="adaptive_harmonics"/>
                                <par value="128" name="adaptive_harmonics_base_frequency"/>
                                <par value="100" name="adaptive_harmonics_power"/>
                                <HARMONICS>
                                  <HARMONIC id="1">
                                    <par value="127" name="mag"/>
                                    <par value="64" name="phase"/>
                                  </HARMONIC>
                                  <HARMONIC id="2">
                                    <par value="127" name="mag"/>
                                    <par value="64" name="phase"/>
                                  </HARMONIC>
                                  <HARMONIC id="3">
                                    <par value="127" name="mag"/>
                                    <par value="64" name="phase"/>
                                  </HARMONIC>
                                  <HARMONIC id="9">
                                    <par value="97" name="mag"/>
                                    <par value="64" name="phase"/>
                                  </HARMONIC>
                                  <HARMONIC id="15">
                                    <par value="88" name="mag"/>
                                    <par value="64" name="phase"/>
                                  </HARMONIC>
                                </HARMONICS>
                              </OSCIL>
                              <AMPLITUDE_PARAMETERS>
                                <par value="64" name="panning"/>
                                <par value="100" name="volume"/>
                                <par_bool value="no" name="volume_minus"/>
                                <par value="127" name="velocity_sensing"/>
                                <par_bool value="no" name="amp_envelope_enabled"/>
                                <par_bool value="no" name="amp_lfo_enabled"/>
                              </AMPLITUDE_PARAMETERS>
                              <FREQUENCY_PARAMETERS>
                                <par_bool value="no" name="fixed_freq"/>
                                <par value="0" name="fixed_freq_et"/>
                                <par value="8192" name="detune"/>
                                <par value="0" name="coarse_detune"/>
                                <par value="0" name="detune_type"/>
                                <par_bool value="no" name="freq_envelope_enabled"/>
                                <par_bool value="no" name="freq_lfo_enabled"/>
                              </FREQUENCY_PARAMETERS>
                            </VOICE>
                            <VOICE id="1">
                              <par_bool value="no" name="enabled"/>
                            </VOICE>
                            <VOICE id="2">
                              <par_bool value="no" name="enabled"/>
                            </VOICE>
                            <VOICE id="3">
                              <par_bool value="no" name="enabled"/>
                            </VOICE>
                            <VOICE id="4">
                              <par_bool value="no" name="enabled"/>
                            </VOICE>
                            <VOICE id="5">
                              <par_bool value="no" name="enabled"/>
                            </VOICE>
                            <VOICE id="6">
                              <par_bool value="no" name="enabled"/>
                            </VOICE>
                            <VOICE id="7">
                              <par_bool value="no" name="enabled"/>
                            </VOICE>
                          </ADD_SYNTH_PARAMETERS>
                          <par_bool value="no" name="sub_enabled"/>
                          <par_bool value="no" name="pad_enabled"/>
                        </INSTRUMENT_KIT_ITEM>
                        <INSTRUMENT_KIT_ITEM id="1">
                          <par_bool value="no" name="enabled"/>
                        </INSTRUMENT_KIT_ITEM>
                        <INSTRUMENT_KIT_ITEM id="2">
                          <par_bool value="no" name="enabled"/>
                        </INSTRUMENT_KIT_ITEM>
                        <INSTRUMENT_KIT_ITEM id="3">
                          <par_bool value="no" name="enabled"/>
                        </INSTRUMENT_KIT_ITEM>
                        <INSTRUMENT_KIT_ITEM id="4">
                          <par_bool value="no" name="enabled"/>
                        </INSTRUMENT_KIT_ITEM>
                        <INSTRUMENT_KIT_ITEM id="5">
                          <par_bool value="no" name="enabled"/>
                        </INSTRUMENT_KIT_ITEM>
                        <INSTRUMENT_KIT_ITEM id="6">
                          <par_bool value="no" name="enabled"/>
                        </INSTRUMENT_KIT_ITEM>
                        <INSTRUMENT_KIT_ITEM id="7">
                          <par_bool value="no" name="enabled"/>
                        </INSTRUMENT_KIT_ITEM>
                        <INSTRUMENT_KIT_ITEM id="8">
                          <par_bool value="no" name="enabled"/>
                        </INSTRUMENT_KIT_ITEM>
                        <INSTRUMENT_KIT_ITEM id="9">
                          <par_bool value="no" name="enabled"/>
                        </INSTRUMENT_KIT_ITEM>
                        <INSTRUMENT_KIT_ITEM id="10">
                          <par_bool value="no" name="enabled"/>
                        </INSTRUMENT_KIT_ITEM>
                        <INSTRUMENT_KIT_ITEM id="11">
                          <par_bool value="no" name="enabled"/>
                        </INSTRUMENT_KIT_ITEM>
                        <INSTRUMENT_KIT_ITEM id="12">
                          <par_bool value="no" name="enabled"/>
                        </INSTRUMENT_KIT_ITEM>
                        <INSTRUMENT_KIT_ITEM id="13">
                          <par_bool value="no" name="enabled"/>
                        </INSTRUMENT_KIT_ITEM>
                        <INSTRUMENT_KIT_ITEM id="14">
                          <par_bool value="no" name="enabled"/>
                        </INSTRUMENT_KIT_ITEM>
                        <INSTRUMENT_KIT_ITEM id="15">
                          <par_bool value="no" name="enabled"/>
                        </INSTRUMENT_KIT_ITEM>
                      </INSTRUMENT_KIT>
                      <INSTRUMENT_EFFECTS>
                        <INSTRUMENT_EFFECT id="0">
                          <EFFECT>
                            <par value="1" name="type"/>
                            <par value="0" name="preset"/>
                            <EFFECT_PARAMETERS>
                              <par_no id="0">
                                <par value="40" name="par"/>
                              </par_no>
                              <par_no id="1">
                                <par value="64" name="par"/>
                              </par_no>
                              <par_no id="2">
                                <par value="63" name="par"/>
                              </par_no>
                              <par_no id="3">
                                <par value="24" name="par"/>
                              </par_no>
                              <par_no id="7">
                                <par value="85" name="par"/>
                              </par_no>
                              <par_no id="8">
                                <par value="5" name="par"/>
                              </par_no>
                              <par_no id="9">
                                <par value="83" name="par"/>
                              </par_no>
                              <par_no id="10">
                                <par value="1" name="par"/>
                              </par_no>
                              <par_no id="11">
                                <par value="64" name="par"/>
                              </par_no>
                              <par_no id="12">
                                <par value="20" name="par"/>
                              </par_no>
                            </EFFECT_PARAMETERS>
                          </EFFECT>
                          <par value="0" name="route"/>
                          <par_bool value="no" name="bypass"/>
                        </INSTRUMENT_EFFECT>
                        <INSTRUMENT_EFFECT id="1">
                          <EFFECT>
                            <par value="0" name="type"/>
                          </EFFECT>
                          <par value="0" name="route"/>
                          <par_bool value="no" name="bypass"/>
                        </INSTRUMENT_EFFECT>
                        <INSTRUMENT_EFFECT id="2">
                          <EFFECT>
                            <par value="0" name="type"/>
                          </EFFECT>
                          <par value="0" name="route"/>
                          <par_bool value="no" name="bypass"/>
                        </INSTRUMENT_EFFECT>
                      </INSTRUMENT_EFFECTS>
                    </INSTRUMENT>
                    <CONTROLLER>
                      <par value="100" name="pitchwheel_bendrange"/>
                      <par_bool value="yes" name="expression_receive"/>
                      <par value="64" name="panning_depth"/>
                      <par value="64" name="filter_cutoff_depth"/>
                      <par value="64" name="filter_q_depth"/>
                      <par value="64" name="bandwidth_depth"/>
                      <par value="80" name="mod_wheel_depth"/>
                      <par_bool value="no" name="mod_wheel_exponential"/>
                      <par_bool value="yes" name="fm_amp_receive"/>
                      <par_bool value="yes" name="volume_receive"/>
                      <par_bool value="yes" name="sustain_receive"/>
                      <par_bool value="yes" name="portamento_receive"/>
                      <par value="64" name="portamento_time"/>
                      <par value="3" name="portamento_pitchthresh"/>
                      <par value="1" name="portamento_pitchthreshtype"/>
                      <par value="0" name="portamento_portamento"/>
                      <par value="64" name="portamento_updowntimestretch"/>
                      <par value="0" name="portamento_proportional"/>
                      <par value="80" name="portamento_proprate"/>
                      <par value="90" name="portamento_propdepth"/>
                      <par value="64" name="resonance_center_depth"/>
                      <par value="64" name="resonance_bandwidth_depth"/>
                    </CONTROLLER>
                  </PART>
                  <PART id="1">
                    <par_bool value="no" name="enabled"/>
                  </PART>
                  <PART id="2">
                    <par_bool value="no" name="enabled"/>
                  </PART>
                  <PART id="3">
                    <par_bool value="no" name="enabled"/>
                  </PART>
                  <PART id="4">
                    <par_bool value="no" name="enabled"/>
                  </PART>
                  <PART id="5">
                    <par_bool value="no" name="enabled"/>
                  </PART>
                  <PART id="6">
                    <par_bool value="no" name="enabled"/>
                  </PART>
                  <PART id="7">
                    <par_bool value="no" name="enabled"/>
                  </PART>
                  <PART id="8">
                    <par_bool value="no" name="enabled"/>
                  </PART>
                  <PART id="9">
                    <par_bool value="no" name="enabled"/>
                  </PART>
                  <PART id="10">
                    <par_bool value="no" name="enabled"/>
                  </PART>
                  <PART id="11">
                    <par_bool value="no" name="enabled"/>
                  </PART>
                  <PART id="12">
                    <par_bool value="no" name="enabled"/>
                  </PART>
                  <PART id="13">
                    <par_bool value="no" name="enabled"/>
                  </PART>
                  <PART id="14">
                    <par_bool value="no" name="enabled"/>
                  </PART>
                  <PART id="15">
                    <par_bool value="no" name="enabled"/>
                  </PART>
                  <SYSTEM_EFFECTS>
                    <SYSTEM_EFFECT id="0">
                      <EFFECT>
                        <par value="0" name="type"/>
                      </EFFECT>
                      <VOLUME id="0">
                        <par value="0" name="vol"/>
                      </VOLUME>
                      <VOLUME id="1">
                        <par value="0" name="vol"/>
                      </VOLUME>
                      <VOLUME id="2">
                        <par value="0" name="vol"/>
                      </VOLUME>
                      <VOLUME id="3">
                        <par value="0" name="vol"/>
                      </VOLUME>
                      <VOLUME id="4">
                        <par value="0" name="vol"/>
                      </VOLUME>
                      <VOLUME id="5">
                        <par value="0" name="vol"/>
                      </VOLUME>
                      <VOLUME id="6">
                        <par value="0" name="vol"/>
                      </VOLUME>
                      <VOLUME id="7">
                        <par value="0" name="vol"/>
                      </VOLUME>
                      <VOLUME id="8">
                        <par value="0" name="vol"/>
                      </VOLUME>
                      <VOLUME id="9">
                        <par value="0" name="vol"/>
                      </VOLUME>
                      <VOLUME id="10">
                        <par value="0" name="vol"/>
                      </VOLUME>
                      <VOLUME id="11">
                        <par value="0" name="vol"/>
                      </VOLUME>
                      <VOLUME id="12">
                        <par value="0" name="vol"/>
                      </VOLUME>
                      <VOLUME id="13">
                        <par value="0" name="vol"/>
                      </VOLUME>
                      <VOLUME id="14">
                        <par value="0" name="vol"/>
                      </VOLUME>
                      <VOLUME id="15">
                        <par value="0" name="vol"/>
                      </VOLUME>
                      <SENDTO id="1">
                        <par value="0" name="send_vol"/>
                      </SENDTO>
                      <SENDTO id="2">
                        <par value="0" name="send_vol"/>
                      </SENDTO>
                      <SENDTO id="3">
                        <par value="0" name="send_vol"/>
                      </SENDTO>
                    </SYSTEM_EFFECT>
                    <SYSTEM_EFFECT id="1">
                      <EFFECT>
                        <par value="0" name="type"/>
                      </EFFECT>
                      <VOLUME id="0">
                        <par value="0" name="vol"/>
                      </VOLUME>
                      <VOLUME id="1">
                        <par value="0" name="vol"/>
                      </VOLUME>
                      <VOLUME id="2">
                        <par value="0" name="vol"/>
                      </VOLUME>
                      <VOLUME id="3">
                        <par value="0" name="vol"/>
                      </VOLUME>
                      <VOLUME id="4">
                        <par value="0" name="vol"/>
                      </VOLUME>
                      <VOLUME id="5">
                        <par value="0" name="vol"/>
                      </VOLUME>
                      <VOLUME id="6">
                        <par value="0" name="vol"/>
                      </VOLUME>
                      <VOLUME id="7">
                        <par value="0" name="vol"/>
                      </VOLUME>
                      <VOLUME id="8">
                        <par value="0" name="vol"/>
                      </VOLUME>
                      <VOLUME id="9">
                        <par value="0" name="vol"/>
                      </VOLUME>
                      <VOLUME id="10">
                        <par value="0" name="vol"/>
                      </VOLUME>
                      <VOLUME id="11">
                        <par value="0" name="vol"/>
                      </VOLUME>
                      <VOLUME id="12">
                        <par value="0" name="vol"/>
                      </VOLUME>
                      <VOLUME id="13">
                        <par value="0" name="vol"/>
                      </VOLUME>
                      <VOLUME id="14">
                        <par value="0" name="vol"/>
                      </VOLUME>
                      <VOLUME id="15">
                        <par value="0" name="vol"/>
                      </VOLUME>
                      <SENDTO id="2">
                        <par value="0" name="send_vol"/>
                      </SENDTO>
                      <SENDTO id="3">
                        <par value="0" name="send_vol"/>
                      </SENDTO>
                    </SYSTEM_EFFECT>
                    <SYSTEM_EFFECT id="2">
                      <EFFECT>
                        <par value="0" name="type"/>
                      </EFFECT>
                      <VOLUME id="0">
                        <par value="0" name="vol"/>
                      </VOLUME>
                      <VOLUME id="1">
                        <par value="0" name="vol"/>
                      </VOLUME>
                      <VOLUME id="2">
                        <par value="0" name="vol"/>
                      </VOLUME>
                      <VOLUME id="3">
                        <par value="0" name="vol"/>
                      </VOLUME>
                      <VOLUME id="4">
                        <par value="0" name="vol"/>
                      </VOLUME>
                      <VOLUME id="5">
                        <par value="0" name="vol"/>
                      </VOLUME>
                      <VOLUME id="6">
                        <par value="0" name="vol"/>
                      </VOLUME>
                      <VOLUME id="7">
                        <par value="0" name="vol"/>
                      </VOLUME>
                      <VOLUME id="8">
                        <par value="0" name="vol"/>
                      </VOLUME>
                      <VOLUME id="9">
                        <par value="0" name="vol"/>
                      </VOLUME>
                      <VOLUME id="10">
                        <par value="0" name="vol"/>
                      </VOLUME>
                      <VOLUME id="11">
                        <par value="0" name="vol"/>
                      </VOLUME>
                      <VOLUME id="12">
                        <par value="0" name="vol"/>
                      </VOLUME>
                      <VOLUME id="13">
                        <par value="0" name="vol"/>
                      </VOLUME>
                      <VOLUME id="14">
                        <par value="0" name="vol"/>
                      </VOLUME>
                      <VOLUME id="15">
                        <par value="0" name="vol"/>
                      </VOLUME>
                      <SENDTO id="3">
                        <par value="0" name="send_vol"/>
                      </SENDTO>
                    </SYSTEM_EFFECT>
                    <SYSTEM_EFFECT id="3">
                      <EFFECT>
                        <par value="0" name="type"/>
                      </EFFECT>
                      <VOLUME id="0">
                        <par value="0" name="vol"/>
                      </VOLUME>
                      <VOLUME id="1">
                        <par value="0" name="vol"/>
                      </VOLUME>
                      <VOLUME id="2">
                        <par value="0" name="vol"/>
                      </VOLUME>
                      <VOLUME id="3">
                        <par value="0" name="vol"/>
                      </VOLUME>
                      <VOLUME id="4">
                        <par value="0" name="vol"/>
                      </VOLUME>
                      <VOLUME id="5">
                        <par value="0" name="vol"/>
                      </VOLUME>
                      <VOLUME id="6">
                        <par value="0" name="vol"/>
                      </VOLUME>
                      <VOLUME id="7">
                        <par value="0" name="vol"/>
                      </VOLUME>
                      <VOLUME id="8">
                        <par value="0" name="vol"/>
                      </VOLUME>
                      <VOLUME id="9">
                        <par value="0" name="vol"/>
                      </VOLUME>
                      <VOLUME id="10">
                        <par value="0" name="vol"/>
                      </VOLUME>
                      <VOLUME id="11">
                        <par value="0" name="vol"/>
                      </VOLUME>
                      <VOLUME id="12">
                        <par value="0" name="vol"/>
                      </VOLUME>
                      <VOLUME id="13">
                        <par value="0" name="vol"/>
                      </VOLUME>
                      <VOLUME id="14">
                        <par value="0" name="vol"/>
                      </VOLUME>
                      <VOLUME id="15">
                        <par value="0" name="vol"/>
                      </VOLUME>
                    </SYSTEM_EFFECT>
                  </SYSTEM_EFFECTS>
                  <INSERTION_EFFECTS>
                    <INSERTION_EFFECT id="0">
                      <par value="-1" name="part"/>
                      <EFFECT>
                        <par value="0" name="type"/>
                      </EFFECT>
                    </INSERTION_EFFECT>
                    <INSERTION_EFFECT id="1">
                      <par value="-1" name="part"/>
                      <EFFECT>
                        <par value="0" name="type"/>
                      </EFFECT>
                    </INSERTION_EFFECT>
                    <INSERTION_EFFECT id="2">
                      <par value="-1" name="part"/>
                      <EFFECT>
                        <par value="0" name="type"/>
                      </EFFECT>
                    </INSERTION_EFFECT>
                    <INSERTION_EFFECT id="3">
                      <par value="-1" name="part"/>
                      <EFFECT>
                        <par value="0" name="type"/>
                      </EFFECT>
                    </INSERTION_EFFECT>
                    <INSERTION_EFFECT id="4">
                      <par value="-1" name="part"/>
                      <EFFECT>
                        <par value="0" name="type"/>
                      </EFFECT>
                    </INSERTION_EFFECT>
                    <INSERTION_EFFECT id="5">
                      <par value="-1" name="part"/>
                      <EFFECT>
                        <par value="0" name="type"/>
                      </EFFECT>
                    </INSERTION_EFFECT>
                    <INSERTION_EFFECT id="6">
                      <par value="-1" name="part"/>
                      <EFFECT>
                        <par value="0" name="type"/>
                      </EFFECT>
                    </INSERTION_EFFECT>
                    <INSERTION_EFFECT id="7">
                      <par value="-1" name="part"/>
                      <EFFECT>
                        <par value="0" name="type"/>
                      </EFFECT>
                    </INSERTION_EFFECT>
                  </INSERTION_EFFECTS>
                </MASTER>
              </ZynAddSubFX-data>
              <key/>
            </zynaddsubfx>
          </instrument>
          <eldata fcut="14000" fres="0.5" ftype="0" fwet="0">
            <elvol lspd_syncmode="0" amt="0" lshp="0" lpdel="0" att="0" ctlenvamt="0" dec="0.5" userwavefile="" x100="0" rel="0.1" sustain="0.5" lspd_numerator="4" latt="0" lspd="0.1" lamt="0" lspd_denominator="4" hold="0.5" pdel="0"/>
            <elcut lspd_syncmode="0" amt="0" lshp="0" lpdel="0" att="0" ctlenvamt="0" dec="0.5" userwavefile="" x100="0" rel="0.1" sustain="0.5" lspd_numerator="4" latt="0" lspd="0.1" lamt="0" lspd_denominator="4" hold="0.5" pdel="0"/>
            <elres lspd_syncmode="0" amt="0" lshp="0" lpdel="0" att="0" ctlenvamt="0" dec="0.5" userwavefile="" x100="0" rel="0.1" sustain="0.5" lspd_numerator="4" latt="0" lspd="0.1" lamt="0" lspd_denominator="4" hold="0.5" pdel="0"/>
          </eldata>
          <chordcreator chordrange="1" chord-enabled="0" chord="0"/>
          <arpeggiator arprange="1" arpmode="0" arpcycle="0" arptime_syncmode="0" arptime_numerator="4" arpgate="100" arptime="200" arpskip="0" arpmiss="0" arp="0" arptime_denominator="4" arp-enabled="0" arpdir="0"/>
          <midiport inputcontroller="0" outputcontroller="0" readable="0" outputchannel="1" fixedoutputvelocity="-1" outputprogram="1" fixedinputvelocity="-1" fixedoutputnote="-1" inputchannel="0" basevelocity="63" writable="0"/>
          <fxchain enabled="0" numofeffects="0"/>
        </instrumenttrack>
        <pattern steps="16" muted="0" pos="3456" name="" type="0"/>
        <pattern steps="16" muted="0" pos="13440" name="" type="1">
          <note pan="0" key="61" len="24" vol="78" pos="0"/>
          <note pan="0" key="63" len="24" vol="78" pos="24"/>
          <note pan="0" key="61" len="24" vol="78" pos="48"/>
          <note pan="0" key="68" len="48" vol="78" pos="72"/>
          <note pan="0" key="61" len="24" vol="78" pos="120"/>
          <note pan="0" key="64" len="24" vol="78" pos="144"/>
          <note pan="0" key="68" len="24" vol="78" pos="168"/>
          <note pan="0" key="71" len="24" vol="78" pos="192"/>
          <note pan="0" key="73" len="24" vol="78" pos="216"/>
          <note pan="0" key="75" len="24" vol="78" pos="240"/>
          <note pan="0" key="73" len="48" vol="78" pos="264"/>
          <note pan="0" key="75" len="24" vol="78" pos="312"/>
          <note pan="0" key="76" len="24" vol="78" pos="336"/>
          <note pan="0" key="78" len="24" vol="78" pos="360"/>
        </pattern>
        <pattern steps="16" muted="0" pos="42624" name="" type="1">
          <note pan="0" key="61" len="144" vol="136" pos="0"/>
          <note pan="0" key="49" len="48" vol="136" pos="0"/>
          <note pan="0" key="52" len="48" vol="136" pos="48"/>
          <note pan="0" key="56" len="48" vol="136" pos="96"/>
          <note pan="0" key="64" len="48" vol="136" pos="144"/>
          <note pan="0" key="61" len="48" vol="136" pos="144"/>
          <note pan="0" key="63" len="144" vol="136" pos="192"/>
          <note pan="0" key="59" len="48" vol="136" pos="192"/>
          <note pan="0" key="54" len="48" vol="136" pos="240"/>
          <note pan="0" key="59" len="48" vol="136" pos="288"/>
          <note pan="0" key="68" len="48" vol="136" pos="336"/>
          <note pan="0" key="63" len="48" vol="136" pos="336"/>
          <note pan="0" key="68" len="144" vol="136" pos="384"/>
          <note pan="0" key="64" len="48" vol="136" pos="384"/>
          <note pan="0" key="57" len="48" vol="136" pos="432"/>
          <note pan="0" key="61" len="48" vol="136" pos="480"/>
          <note pan="0" key="66" len="24" vol="136" pos="528"/>
          <note pan="0" key="52" len="48" vol="136" pos="528"/>
          <note pan="0" key="64" len="24" vol="136" pos="552"/>
          <note pan="0" key="63" len="48" vol="136" pos="576"/>
          <note pan="0" key="54" len="48" vol="136" pos="576"/>
          <note pan="0" key="64" len="48" vol="136" pos="624"/>
          <note pan="0" key="51" len="48" vol="136" pos="624"/>
          <note pan="0" key="59" len="48" vol="136" pos="672"/>
          <note pan="0" key="54" len="48" vol="136" pos="672"/>
          <note pan="0" key="56" len="48" vol="136" pos="720"/>
          <note pan="0" key="47" len="48" vol="136" pos="720"/>
          <note pan="0" key="57" len="96" vol="136" pos="768"/>
          <note pan="0" key="49" len="48" vol="136" pos="768"/>
          <note pan="0" key="54" len="48" vol="136" pos="816"/>
          <note pan="0" key="61" len="48" vol="136" pos="864"/>
          <note pan="0" key="57" len="48" vol="136" pos="864"/>
          <note pan="0" key="64" len="48" vol="136" pos="912"/>
          <note pan="0" key="54" len="48" vol="136" pos="912"/>
          <note pan="0" key="64" len="96" vol="136" pos="960"/>
          <note pan="0" key="56" len="48" vol="136" pos="960"/>
          <note pan="0" key="59" len="48" vol="136" pos="1008"/>
          <note pan="0" key="63" len="48" vol="136" pos="1056"/>
          <note pan="0" key="56" len="48" vol="136" pos="1056"/>
          <note pan="0" key="64" len="48" vol="136" pos="1104"/>
          <note pan="0" key="51" len="48" vol="136" pos="1104"/>
          <note pan="0" key="71" len="72" vol="136" pos="1152"/>
          <note pan="0" key="57" len="48" vol="136" pos="1152"/>
        </pattern>
        <pattern steps="16" muted="0" pos="31872" name="" type="1">
          <note pan="0" key="68" len="192" vol="171" pos="0"/>
          <note pan="0" key="69" len="192" vol="171" pos="192"/>
          <note pan="0" key="71" len="192" vol="171" pos="384"/>
          <note pan="0" key="66" len="192" vol="171" pos="576"/>
          <note pan="0" key="68" len="192" vol="171" pos="768"/>
          <note pan="0" key="69" len="192" vol="171" pos="960"/>
          <note pan="0" key="71" len="192" vol="171" pos="1152"/>
          <note pan="0" key="75" len="192" vol="171" pos="1344"/>
          <note pan="0" key="73" len="192" vol="171" pos="1536"/>
          <note pan="0" key="73" len="192" vol="171" pos="1920"/>
          <note pan="0" key="76" len="192" vol="171" pos="2112"/>
          <note pan="0" key="74" len="192" vol="171" pos="2304"/>
          <note pan="0" key="73" len="192" vol="171" pos="2688"/>
          <note pan="0" key="78" len="192" vol="171" pos="2880"/>
        </pattern>
        <pattern steps="16" muted="0" pos="4992" name="" type="1">
          <note pan="0" key="76" len="192" vol="121" pos="0"/>
          <note pan="0" key="73" len="192" vol="121" pos="0"/>
          <note pan="0" key="68" len="192" vol="121" pos="0"/>
          <note pan="0" key="73" len="192" vol="121" pos="192"/>
          <note pan="0" key="69" len="192" vol="121" pos="192"/>
          <note pan="0" key="66" len="192" vol="121" pos="192"/>
          <note pan="0" key="75" len="192" vol="121" pos="384"/>
          <note pan="0" key="71" len="192" vol="121" pos="384"/>
          <note pan="0" key="68" len="192" vol="121" pos="384"/>
          <note pan="0" key="76" len="96" vol="121" pos="576"/>
          <note pan="0" key="73" len="96" vol="121" pos="576"/>
          <note pan="0" key="69" len="96" vol="121" pos="576"/>
          <note pan="0" key="75" len="96" vol="121" pos="672"/>
          <note pan="0" key="71" len="96" vol="121" pos="672"/>
          <note pan="0" key="66" len="96" vol="121" pos="672"/>
        </pattern>
        <pattern steps="16" muted="0" pos="5760" name="" type="1">
          <note pan="0" key="76" len="192" vol="121" pos="0"/>
          <note pan="0" key="73" len="192" vol="121" pos="0"/>
          <note pan="0" key="68" len="192" vol="121" pos="0"/>
          <note pan="0" key="73" len="192" vol="121" pos="192"/>
          <note pan="0" key="69" len="192" vol="121" pos="192"/>
          <note pan="0" key="66" len="192" vol="121" pos="192"/>
          <note pan="0" key="75" len="192" vol="121" pos="384"/>
          <note pan="0" key="71" len="192" vol="121" pos="384"/>
          <note pan="0" key="68" len="192" vol="121" pos="384"/>
          <note pan="0" key="76" len="96" vol="121" pos="576"/>
          <note pan="0" key="73" len="96" vol="121" pos="576"/>
          <note pan="0" key="69" len="96" vol="121" pos="576"/>
          <note pan="0" key="75" len="96" vol="121" pos="672"/>
          <note pan="0" key="71" len="96" vol="121" pos="672"/>
          <note pan="0" key="66" len="96" vol="121" pos="672"/>
        </pattern>
        <pattern steps="16" muted="0" pos="7104" name="" type="1">
          <note pan="0" key="73" len="144" vol="200" pos="960"/>
          <note pan="0" key="76" len="48" vol="200" pos="1104"/>
          <note pan="0" key="75" len="144" vol="200" pos="1152"/>
          <note pan="0" key="80" len="48" vol="200" pos="1296"/>
          <note pan="0" key="80" len="144" vol="200" pos="1344"/>
          <note pan="0" key="78" len="24" vol="200" pos="1488"/>
          <note pan="0" key="76" len="24" vol="200" pos="1512"/>
          <note pan="0" key="75" len="48" vol="200" pos="1536"/>
          <note pan="0" key="76" len="48" vol="200" pos="1584"/>
          <note pan="0" key="71" len="48" vol="200" pos="1632"/>
          <note pan="0" key="68" len="48" vol="200" pos="1680"/>
          <note pan="0" key="69" len="96" vol="200" pos="1728"/>
          <note pan="0" key="73" len="48" vol="200" pos="1824"/>
          <note pan="0" key="76" len="48" vol="200" pos="1872"/>
          <note pan="0" key="76" len="96" vol="200" pos="1920"/>
          <note pan="0" key="75" len="48" vol="200" pos="2016"/>
          <note pan="0" key="76" len="48" vol="200" pos="2064"/>
          <note pan="0" key="83" len="72" vol="200" pos="2112"/>
          <note pan="0" key="81" len="72" vol="200" pos="2184"/>
          <note pan="0" key="80" len="48" vol="200" pos="2256"/>
          <note pan="0" key="78" len="192" vol="200" pos="2304"/>
          <note pan="0" key="76" len="72" vol="200" pos="2496"/>
          <note pan="0" key="75" len="72" vol="200" pos="2568"/>
          <note pan="0" key="76" len="48" vol="200" pos="2640"/>
          <note pan="0" key="80" len="144" vol="200" pos="2688"/>
          <note pan="0" key="75" len="48" vol="200" pos="2832"/>
          <note pan="0" key="73" len="240" vol="200" pos="2880"/>
          <note pan="0" key="76" len="48" vol="200" pos="3120"/>
          <note pan="0" key="78" len="48" vol="200" pos="3168"/>
          <note pan="0" key="80" len="48" vol="200" pos="3216"/>
          <note pan="0" key="81" len="72" vol="200" pos="3264"/>
          <note pan="0" key="80" len="72" vol="200" pos="3336"/>
          <note pan="0" key="78" len="48" vol="200" pos="3408"/>
          <note pan="0" key="76" len="48" vol="200" pos="3456"/>
          <note pan="0" key="73" len="48" vol="200" pos="3504"/>
          <note pan="0" key="76" len="48" vol="200" pos="3552"/>
          <note pan="0" key="80" len="48" vol="200" pos="3600"/>
          <note pan="0" key="78" len="192" vol="200" pos="3648"/>
          <note pan="0" key="75" len="96" vol="200" pos="3840"/>
          <note pan="0" key="71" len="96" vol="200" pos="3936"/>
          <note pan="0" key="73" len="384" vol="200" pos="4032"/>
        </pattern>
        <pattern steps="16" muted="0" pos="14784" name="" type="1">
          <note pan="0" key="73" len="144" vol="200" pos="960"/>
          <note pan="0" key="76" len="48" vol="200" pos="1104"/>
          <note pan="0" key="75" len="144" vol="200" pos="1152"/>
          <note pan="0" key="80" len="48" vol="200" pos="1296"/>
          <note pan="0" key="80" len="144" vol="200" pos="1344"/>
          <note pan="0" key="78" len="24" vol="200" pos="1488"/>
          <note pan="0" key="76" len="24" vol="200" pos="1512"/>
          <note pan="0" key="75" len="48" vol="200" pos="1536"/>
          <note pan="0" key="76" len="48" vol="200" pos="1584"/>
          <note pan="0" key="71" len="48" vol="200" pos="1632"/>
          <note pan="0" key="68" len="48" vol="200" pos="1680"/>
          <note pan="0" key="69" len="96" vol="200" pos="1728"/>
          <note pan="0" key="73" len="48" vol="200" pos="1824"/>
          <note pan="0" key="76" len="48" vol="200" pos="1872"/>
          <note pan="0" key="76" len="96" vol="200" pos="1920"/>
          <note pan="0" key="75" len="48" vol="200" pos="2016"/>
          <note pan="0" key="76" len="48" vol="200" pos="2064"/>
          <note pan="0" key="83" len="72" vol="200" pos="2112"/>
          <note pan="0" key="81" len="72" vol="200" pos="2184"/>
          <note pan="0" key="80" len="48" vol="200" pos="2256"/>
          <note pan="0" key="78" len="192" vol="200" pos="2304"/>
          <note pan="0" key="76" len="72" vol="200" pos="2496"/>
          <note pan="0" key="75" len="72" vol="200" pos="2568"/>
          <note pan="0" key="76" len="48" vol="200" pos="2640"/>
          <note pan="0" key="80" len="144" vol="200" pos="2688"/>
          <note pan="0" key="75" len="48" vol="200" pos="2832"/>
          <note pan="0" key="73" len="240" vol="200" pos="2880"/>
          <note pan="0" key="76" len="48" vol="200" pos="3120"/>
          <note pan="0" key="78" len="48" vol="200" pos="3168"/>
          <note pan="0" key="80" len="48" vol="200" pos="3216"/>
          <note pan="0" key="81" len="72" vol="200" pos="3264"/>
          <note pan="0" key="80" len="72" vol="200" pos="3336"/>
          <note pan="0" key="78" len="48" vol="200" pos="3408"/>
          <note pan="0" key="76" len="48" vol="200" pos="3456"/>
          <note pan="0" key="73" len="48" vol="200" pos="3504"/>
          <note pan="0" key="76" len="48" vol="200" pos="3552"/>
          <note pan="0" key="80" len="48" vol="200" pos="3600"/>
          <note pan="0" key="78" len="192" vol="200" pos="3648"/>
          <note pan="0" key="75" len="96" vol="200" pos="3840"/>
          <note pan="0" key="71" len="96" vol="200" pos="3936"/>
          <note pan="0" key="73" len="384" vol="200" pos="4032"/>
        </pattern>
      </track>
      <track solo="0" mutedBeforeSolo="0" muted="0" name="reverb clap.wav" type="0">
        <instrumenttrack pan="0" basenote="57" pitch="0" usemasterpitch="1" vol="120.9" pitchrange="1" fxch="0">
          <instrument name="audiofileprocessor">
            <audiofileprocessor stutter="0" amp="100" reversed="1" src="usersample:reverb clap.wav" interp="1" eframe="1" looped="0" sframe="6.8712e-06" lframe="1.37424e-05">
              <key/>
            </audiofileprocessor>
          </instrument>
          <eldata fcut="8904" fres="0.5" ftype="0" fwet="1">
            <elvol lspd_syncmode="0" amt="0" lshp="0" lpdel="0" att="0" ctlenvamt="0" dec="0.5" userwavefile="" x100="0" rel="0.1" sustain="0.5" lspd_numerator="4" latt="0" lspd="0.1" lamt="0" lspd_denominator="4" hold="0.5" pdel="0"/>
            <elcut lspd_syncmode="0" amt="0" lshp="0" lpdel="0" att="0" ctlenvamt="0" dec="0.5" userwavefile="" x100="0" rel="0.1" sustain="0.5" lspd_numerator="4" latt="0" lspd="0.1" lamt="0" lspd_denominator="4" hold="0.5" pdel="0"/>
            <elres lspd_syncmode="0" amt="0" lshp="0" lpdel="0" att="0" ctlenvamt="0" dec="0.5" userwavefile="" x100="0" rel="0.1" sustain="0.5" lspd_numerator="4" latt="0" lspd="0.1" lamt="0" lspd_denominator="4" hold="0.5" pdel="0"/>
          </eldata>
          <chordcreator chordrange="1" chord-enabled="0" chord="0"/>
          <arpeggiator arprange="1" arpmode="0" arpcycle="0" arptime_syncmode="0" arptime_numerator="4" arpgate="100" arptime="200" arpskip="0" arpmiss="0" arp="0" arptime_denominator="4" arp-enabled="0" arpdir="0"/>
          <midiport inputcontroller="0" outputcontroller="0" readable="0" outputchannel="1" fixedoutputvelocity="-1" outputprogram="1" fixedinputvelocity="-1" fixedoutputnote="-1" inputchannel="0" basevelocity="63" writable="0"/>
          <fxchain enabled="0" numofeffects="0"/>
        </instrumenttrack>
        <pattern steps="16" muted="0" pos="28224" name="" type="1">
          <note pan="0" key="57" len="528" vol="100" pos="48"/>
        </pattern>
        <pattern steps="16" muted="0" pos="46464" name="" type="0"/>
        <pattern steps="16" muted="0" pos="42048" name="" type="1">
          <note pan="0" key="57" len="528" vol="100" pos="48"/>
        </pattern>
      </track>
      <track solo="0" mutedBeforeSolo="0" muted="0" name="bass fender jazz (1,379kb)" type="0">
        <instrumenttrack pan="-0.1" basenote="57" pitch="0" usemasterpitch="1" vol="30.6" pitchrange="2" fxch="15">
          <instrument name="sf2player">
            <sf2player chorusLevel="2" patch="0" reverbOn="0" reverbWidth="0.5" gain="3.16" src="/home/pass/samples/soundfonts/bass fender jazz (1,379kb).sf2" bank="0" chorusDepth="8" reverbLevel="0.9" reverbDamping="0" reverbRoomSize="0.2" chorusOn="0" chorusNum="3" chorusSpeed="0.3">
              <key/>
            </sf2player>
          </instrument>
          <eldata fcut="14000" fres="0.5" ftype="0" fwet="0">
            <elvol lspd_syncmode="0" amt="0" lshp="0" lpdel="0" att="0" ctlenvamt="0" dec="0.5" userwavefile="" x100="0" rel="0.1" sustain="0.5" lspd_numerator="4" latt="0" lspd="0.1" lamt="0" lspd_denominator="4" hold="0.5" pdel="0"/>
            <elcut lspd_syncmode="0" amt="0" lshp="0" lpdel="0" att="0" ctlenvamt="0" dec="0.5" userwavefile="" x100="0" rel="0.1" sustain="0.5" lspd_numerator="4" latt="0" lspd="0.1" lamt="0" lspd_denominator="4" hold="0.5" pdel="0"/>
            <elres lspd_syncmode="0" amt="0" lshp="0" lpdel="0" att="0" ctlenvamt="0" dec="0.5" userwavefile="" x100="0" rel="0.1" sustain="0.5" lspd_numerator="4" latt="0" lspd="0.1" lamt="0" lspd_denominator="4" hold="0.5" pdel="0"/>
          </eldata>
          <chordcreator chordrange="1" chord-enabled="0" chord="0"/>
          <arpeggiator arprange="1" arpmode="0" arpcycle="0" arptime_syncmode="0" arptime_numerator="4" arpgate="100" arptime="200" arpskip="0" arpmiss="0" arp="0" arptime_denominator="4" arp-enabled="0" arpdir="0"/>
          <midiport inputcontroller="0" outputcontroller="0" readable="0" outputchannel="1" fixedoutputvelocity="-1" outputprogram="1" fixedinputvelocity="-1" fixedoutputnote="-1" inputchannel="0" basevelocity="63" writable="0"/>
          <fxchain enabled="0" numofeffects="0"/>
        </instrumenttrack>
        <pattern steps="16" muted="0" pos="22656" name="" type="1">
          <note pan="0" key="25" len="768" vol="195" pos="0"/>
          <note pan="0" key="26" len="384" vol="195" pos="768"/>
          <note pan="0" key="25" len="288" vol="195" pos="1152"/>
          <note pan="0" key="31" len="12" vol="195" pos="1440"/>
          <note pan="0" key="32" len="84" vol="195" pos="1448"/>
          <note pan="0" key="30" len="120" vol="195" pos="1536"/>
          <note pan="0" key="30" len="24" vol="195" pos="1656"/>
          <note pan="0" key="25" len="24" vol="195" pos="1680"/>
          <note pan="0" key="30" len="24" vol="195" pos="1704"/>
          <note pan="0" key="32" len="48" vol="195" pos="1728"/>
          <note pan="0" key="30" len="24" vol="195" pos="1776"/>
          <note pan="0" key="25" len="72" vol="195" pos="1800"/>
          <note pan="0" key="20" len="48" vol="195" pos="1872"/>
          <note pan="0" key="16" len="336" vol="195" pos="1920"/>
          <note pan="0" key="18" len="24" vol="195" pos="2256"/>
          <note pan="0" key="20" len="24" vol="195" pos="2280"/>
          <note pan="0" key="21" len="192" vol="195" pos="2304"/>
          <note pan="0" key="23" len="192" vol="195" pos="2496"/>
          <note pan="0" key="25" len="192" vol="195" pos="2688"/>
          <note pan="0" key="27" len="12" vol="195" pos="2880"/>
          <note pan="0" key="28" len="60" vol="195" pos="2888"/>
          <note pan="0" key="27" len="72" vol="195" pos="2952"/>
          <note pan="0" key="25" len="48" vol="195" pos="3024"/>
          <note pan="0" key="23" len="240" vol="195" pos="3072"/>
          <note pan="0" key="18" len="48" vol="195" pos="3312"/>
          <note pan="0" key="23" len="48" vol="195" pos="3360"/>
          <note pan="0" key="25" len="48" vol="195" pos="3408"/>
          <note pan="0" key="18" len="288" vol="195" pos="3456"/>
          <note pan="0" key="19" len="12" vol="195" pos="3744"/>
          <note pan="0" key="20" len="84" vol="195" pos="3752"/>
          <note pan="0" key="23" len="120" vol="195" pos="3840"/>
          <note pan="0" key="18" len="24" vol="195" pos="3960"/>
          <note pan="0" key="21" len="24" vol="195" pos="3984"/>
          <note pan="0" key="27" len="24" vol="195" pos="4008"/>
          <note pan="0" key="27" len="12" vol="195" pos="4032"/>
          <note pan="0" key="28" len="36" vol="195" pos="4040"/>
          <note pan="0" key="27" len="24" vol="195" pos="4080"/>
          <note pan="0" key="25" len="72" vol="195" pos="4104"/>
          <note pan="0" key="25" len="24" vol="195" pos="4176"/>
          <note pan="0" key="23" len="24" vol="195" pos="4200"/>
          <note pan="0" key="25" len="96" vol="195" pos="4224"/>
          <note pan="0" key="23" len="96" vol="195" pos="4320"/>
          <note pan="0" key="22" len="144" vol="195" pos="4416"/>
          <note pan="0" key="20" len="48" vol="195" pos="4560"/>
          <note pan="0" key="18" len="144" vol="195" pos="4608"/>
          <note pan="0" key="25" len="48" vol="195" pos="4752"/>
          <note pan="0" key="18" len="192" vol="195" pos="4800"/>
          <note pan="0" key="20" len="384" vol="195" pos="4992"/>
          <note pan="0" key="21" len="384" vol="195" pos="5376"/>
          <note pan="0" key="23" len="384" vol="195" pos="5760"/>
        </pattern>
        <pattern steps="16" muted="0" pos="384" name="" type="1">
          <note pan="0" key="13" len="384" vol="191" pos="0"/>
          <note pan="0" key="20" len="384" vol="193" pos="384"/>
          <note pan="0" key="15" len="384" vol="193" pos="768"/>
          <note pan="0" key="14" len="336" vol="193" pos="1152"/>
          <note pan="0" key="14" len="12" vol="193" pos="1488"/>
          <note pan="0" key="14" len="12" vol="193" pos="1500"/>
          <note pan="0" key="14" len="12" vol="193" pos="1512"/>
          <note pan="0" key="14" len="12" vol="193" pos="1524"/>
        </pattern>
        <pattern steps="16" muted="0" pos="1920" name="" type="1">
          <note pan="0" key="13" len="36" vol="195" pos="0"/>
          <note pan="0" key="1" len="24" vol="78" pos="0"/>
          <note pan="0" key="13" len="36" vol="195" pos="72"/>
          <note pan="0" key="13" len="36" vol="195" pos="144"/>
          <note pan="0" key="13" len="36" vol="195" pos="216"/>
          <note pan="0" key="13" len="24" vol="195" pos="288"/>
          <note pan="0" key="0" len="24" vol="78" pos="300"/>
          <note pan="0" key="13" len="48" vol="195" pos="312"/>
          <note pan="0" key="1" len="24" vol="78" pos="336"/>
          <note pan="0" key="13" len="24" vol="195" pos="360"/>
          <note pan="0" key="20" len="36" vol="195" pos="384"/>
          <note pan="0" key="20" len="36" vol="195" pos="456"/>
          <note pan="0" key="20" len="36" vol="195" pos="528"/>
          <note pan="0" key="20" len="36" vol="195" pos="600"/>
          <note pan="0" key="20" len="24" vol="195" pos="672"/>
          <note pan="0" key="0" len="24" vol="78" pos="684"/>
          <note pan="0" key="20" len="48" vol="195" pos="696"/>
          <note pan="0" key="1" len="24" vol="78" pos="720"/>
          <note pan="0" key="20" len="24" vol="195" pos="744"/>
          <note pan="0" key="15" len="36" vol="195" pos="768"/>
          <note pan="0" key="15" len="36" vol="195" pos="840"/>
          <note pan="0" key="15" len="36" vol="195" pos="912"/>
          <note pan="0" key="15" len="36" vol="195" pos="984"/>
          <note pan="0" key="15" len="24" vol="195" pos="1056"/>
          <note pan="0" key="0" len="24" vol="78" pos="1068"/>
          <note pan="0" key="15" len="48" vol="195" pos="1080"/>
          <note pan="0" key="1" len="24" vol="78" pos="1116"/>
          <note pan="0" key="15" len="24" vol="195" pos="1128"/>
          <note pan="0" key="14" len="36" vol="195" pos="1152"/>
          <note pan="0" key="14" len="36" vol="195" pos="1224"/>
          <note pan="0" key="14" len="36" vol="195" pos="1296"/>
        </pattern>
        <pattern steps="16" muted="0" pos="3456" name="" type="1">
          <note pan="0" key="13" len="192" vol="197" pos="0"/>
          <note pan="0" key="0" len="48" vol="78" pos="0"/>
          <note pan="0" key="20" len="192" vol="197" pos="192"/>
          <note pan="0" key="21" len="192" vol="197" pos="384"/>
          <note pan="0" key="23" len="192" vol="197" pos="576"/>
          <note pan="0" key="1" len="12" vol="197" pos="756"/>
          <note pan="0" key="18" len="12" vol="197" pos="768"/>
          <note pan="0" key="18" len="12" vol="197" pos="780"/>
          <note pan="0" key="18" len="12" vol="197" pos="792"/>
          <note pan="0" key="18" len="12" vol="197" pos="804"/>
          <note pan="0" key="18" len="12" vol="197" pos="816"/>
          <note pan="0" key="18" len="12" vol="197" pos="828"/>
          <note pan="0" key="18" len="12" vol="197" pos="840"/>
          <note pan="0" key="18" len="12" vol="197" pos="852"/>
          <note pan="0" key="18" len="12" vol="197" pos="864"/>
          <note pan="0" key="18" len="12" vol="197" pos="876"/>
          <note pan="0" key="18" len="12" vol="197" pos="888"/>
          <note pan="0" key="18" len="12" vol="197" pos="900"/>
          <note pan="0" key="18" len="12" vol="197" pos="912"/>
          <note pan="0" key="18" len="12" vol="197" pos="924"/>
          <note pan="0" key="18" len="12" vol="197" pos="936"/>
          <note pan="0" key="18" len="12" vol="197" pos="948"/>
          <note pan="0" key="20" len="12" vol="197" pos="960"/>
          <note pan="0" key="20" len="12" vol="197" pos="972"/>
          <note pan="0" key="20" len="12" vol="197" pos="984"/>
          <note pan="0" key="20" len="12" vol="197" pos="996"/>
          <note pan="0" key="20" len="12" vol="197" pos="1008"/>
          <note pan="0" key="20" len="12" vol="197" pos="1020"/>
          <note pan="0" key="20" len="12" vol="197" pos="1032"/>
          <note pan="0" key="20" len="12" vol="197" pos="1044"/>
          <note pan="0" key="20" len="12" vol="197" pos="1056"/>
          <note pan="0" key="20" len="12" vol="197" pos="1068"/>
          <note pan="0" key="20" len="12" vol="197" pos="1080"/>
          <note pan="0" key="20" len="12" vol="197" pos="1092"/>
          <note pan="0" key="20" len="12" vol="197" pos="1104"/>
          <note pan="0" key="20" len="12" vol="197" pos="1116"/>
          <note pan="0" key="20" len="12" vol="197" pos="1128"/>
          <note pan="0" key="20" len="12" vol="197" pos="1140"/>
          <note pan="0" key="21" len="12" vol="197" pos="1152"/>
          <note pan="0" key="21" len="12" vol="197" pos="1164"/>
          <note pan="0" key="21" len="12" vol="197" pos="1176"/>
          <note pan="0" key="21" len="12" vol="197" pos="1188"/>
          <note pan="0" key="21" len="12" vol="197" pos="1200"/>
          <note pan="0" key="21" len="12" vol="197" pos="1212"/>
          <note pan="0" key="21" len="12" vol="197" pos="1224"/>
          <note pan="0" key="21" len="12" vol="197" pos="1236"/>
          <note pan="0" key="21" len="12" vol="197" pos="1248"/>
          <note pan="0" key="21" len="12" vol="197" pos="1260"/>
          <note pan="0" key="21" len="12" vol="197" pos="1272"/>
          <note pan="0" key="21" len="12" vol="197" pos="1284"/>
          <note pan="0" key="21" len="12" vol="197" pos="1296"/>
          <note pan="0" key="21" len="12" vol="197" pos="1308"/>
          <note pan="0" key="21" len="12" vol="197" pos="1320"/>
          <note pan="0" key="21" len="12" vol="197" pos="1332"/>
          <note pan="0" key="23" len="48" vol="197" pos="1344"/>
          <note pan="0" key="0" len="12" vol="197" pos="1344"/>
          <note pan="0" key="23" len="48" vol="197" pos="1392"/>
          <note pan="0" key="20" len="48" vol="197" pos="1440"/>
          <note pan="0" key="23" len="48" vol="197" pos="1488"/>
        </pattern>
        <pattern steps="16" muted="0" pos="4992" name="" type="1">
          <note pan="0" key="25" len="24" vol="197" pos="0"/>
          <note pan="0" key="23" len="24" vol="197" pos="24"/>
          <note pan="0" key="25" len="24" vol="197" pos="48"/>
          <note pan="0" key="32" len="24" vol="197" pos="72"/>
          <note pan="0" key="25" len="12" vol="197" pos="96"/>
          <note pan="0" key="25" len="12" vol="197" pos="108"/>
          <note pan="0" key="25" len="12" vol="197" pos="120"/>
          <note pan="0" key="25" len="12" vol="197" pos="132"/>
          <note pan="0" key="25" len="12" vol="197" pos="144"/>
          <note pan="0" key="25" len="12" vol="197" pos="156"/>
          <note pan="0" key="25" len="12" vol="197" pos="168"/>
          <note pan="0" key="25" len="12" vol="197" pos="180"/>
        </pattern>
        <pattern steps="16" muted="0" pos="5184" name="" type="1">
          <note pan="0" key="18" len="24" vol="197" pos="0"/>
          <note pan="0" key="16" len="24" vol="197" pos="24"/>
          <note pan="0" key="18" len="24" vol="197" pos="48"/>
          <note pan="0" key="25" len="24" vol="197" pos="72"/>
          <note pan="0" key="18" len="12" vol="197" pos="96"/>
          <note pan="0" key="18" len="12" vol="197" pos="108"/>
          <note pan="0" key="18" len="12" vol="197" pos="120"/>
          <note pan="0" key="18" len="12" vol="197" pos="132"/>
          <note pan="0" key="18" len="12" vol="197" pos="144"/>
          <note pan="0" key="18" len="12" vol="197" pos="156"/>
          <note pan="0" key="18" len="12" vol="197" pos="168"/>
          <note pan="0" key="18" len="12" vol="197" pos="180"/>
        </pattern>
        <pattern steps="16" muted="0" pos="5376" name="" type="1">
          <note pan="0" key="20" len="24" vol="195" pos="0"/>
          <note pan="0" key="23" len="24" vol="195" pos="24"/>
          <note pan="0" key="20" len="24" vol="195" pos="48"/>
          <note pan="0" key="27" len="48" vol="195" pos="72"/>
          <note pan="0" key="20" len="24" vol="195" pos="120"/>
          <note pan="0" key="23" len="24" vol="195" pos="144"/>
          <note pan="0" key="27" len="24" vol="195" pos="168"/>
          <note pan="0" key="21" len="12" vol="195" pos="192"/>
          <note pan="0" key="21" len="12" vol="195" pos="204"/>
          <note pan="0" key="21" len="12" vol="195" pos="216"/>
          <note pan="0" key="21" len="12" vol="195" pos="228"/>
          <note pan="0" key="21" len="12" vol="195" pos="240"/>
          <note pan="0" key="21" len="12" vol="195" pos="252"/>
          <note pan="0" key="25" len="12" vol="195" pos="264"/>
          <note pan="0" key="25" len="12" vol="195" pos="276"/>
          <note pan="0" key="23" len="12" vol="195" pos="288"/>
          <note pan="0" key="23" len="12" vol="195" pos="300"/>
          <note pan="0" key="23" len="12" vol="195" pos="312"/>
          <note pan="0" key="23" len="12" vol="195" pos="324"/>
          <note pan="0" key="27" len="12" vol="195" pos="336"/>
          <note pan="0" key="27" len="12" vol="195" pos="348"/>
          <note pan="0" key="23" len="12" vol="195" pos="360"/>
          <note pan="0" key="23" len="12" vol="195" pos="372"/>
        </pattern>
        <pattern steps="16" muted="0" pos="5760" name="" type="1">
          <note pan="0" key="25" len="24" vol="197" pos="0"/>
          <note pan="0" key="23" len="24" vol="197" pos="24"/>
          <note pan="0" key="25" len="24" vol="197" pos="48"/>
          <note pan="0" key="32" len="24" vol="197" pos="72"/>
          <note pan="0" key="25" len="12" vol="197" pos="96"/>
          <note pan="0" key="25" len="12" vol="197" pos="108"/>
          <note pan="0" key="25" len="12" vol="197" pos="120"/>
          <note pan="0" key="25" len="12" vol="197" pos="132"/>
          <note pan="0" key="25" len="12" vol="197" pos="144"/>
          <note pan="0" key="25" len="12" vol="197" pos="156"/>
          <note pan="0" key="25" len="12" vol="197" pos="168"/>
          <note pan="0" key="25" len="12" vol="197" pos="180"/>
        </pattern>
        <pattern steps="16" muted="0" pos="5952" name="" type="1">
          <note pan="0" key="18" len="24" vol="197" pos="0"/>
          <note pan="0" key="16" len="24" vol="197" pos="24"/>
          <note pan="0" key="18" len="24" vol="197" pos="48"/>
          <note pan="0" key="25" len="24" vol="197" pos="72"/>
          <note pan="0" key="18" len="12" vol="197" pos="96"/>
          <note pan="0" key="18" len="12" vol="197" pos="108"/>
          <note pan="0" key="18" len="12" vol="197" pos="120"/>
          <note pan="0" key="18" len="12" vol="197" pos="132"/>
          <note pan="0" key="18" len="12" vol="197" pos="144"/>
          <note pan="0" key="18" len="12" vol="197" pos="156"/>
          <note pan="0" key="18" len="12" vol="197" pos="168"/>
          <note pan="0" key="18" len="12" vol="197" pos="180"/>
        </pattern>
        <pattern steps="16" muted="0" pos="6144" name="" type="1">
          <note pan="0" key="20" len="24" vol="195" pos="0"/>
          <note pan="0" key="23" len="24" vol="195" pos="24"/>
          <note pan="0" key="20" len="24" vol="195" pos="48"/>
          <note pan="0" key="27" len="48" vol="195" pos="72"/>
          <note pan="0" key="20" len="24" vol="195" pos="120"/>
          <note pan="0" key="23" len="24" vol="195" pos="144"/>
          <note pan="0" key="27" len="24" vol="195" pos="168"/>
          <note pan="0" key="21" len="12" vol="195" pos="192"/>
          <note pan="0" key="21" len="12" vol="195" pos="204"/>
          <note pan="0" key="21" len="12" vol="195" pos="216"/>
          <note pan="0" key="21" len="12" vol="195" pos="228"/>
          <note pan="0" key="21" len="12" vol="195" pos="240"/>
          <note pan="0" key="21" len="12" vol="195" pos="252"/>
          <note pan="0" key="25" len="12" vol="195" pos="264"/>
          <note pan="0" key="25" len="12" vol="195" pos="276"/>
          <note pan="0" key="23" len="12" vol="195" pos="288"/>
          <note pan="0" key="23" len="12" vol="195" pos="300"/>
          <note pan="0" key="23" len="12" vol="195" pos="312"/>
          <note pan="0" key="23" len="12" vol="195" pos="324"/>
          <note pan="0" key="27" len="12" vol="195" pos="336"/>
          <note pan="0" key="27" len="12" vol="195" pos="348"/>
          <note pan="0" key="23" len="12" vol="195" pos="360"/>
          <note pan="0" key="23" len="12" vol="195" pos="372"/>
        </pattern>
        <pattern steps="16" muted="0" pos="6528" name="" type="1">
          <note pan="0" key="11" len="48" vol="197" pos="0"/>
          <note pan="0" key="11" len="12" vol="197" pos="48"/>
          <note pan="0" key="11" len="12" vol="197" pos="60"/>
          <note pan="0" key="11" len="24" vol="197" pos="72"/>
          <note pan="0" key="11" len="12" vol="197" pos="96"/>
          <note pan="0" key="11" len="12" vol="197" pos="108"/>
          <note pan="0" key="11" len="24" vol="197" pos="120"/>
          <note pan="0" key="11" len="12" vol="197" pos="144"/>
          <note pan="0" key="11" len="12" vol="197" pos="156"/>
          <note pan="0" key="11" len="24" vol="197" pos="168"/>
          <note pan="0" key="11" len="48" vol="197" pos="192"/>
          <note pan="0" key="11" len="12" vol="197" pos="240"/>
          <note pan="0" key="11" len="12" vol="197" pos="252"/>
          <note pan="0" key="11" len="24" vol="197" pos="264"/>
          <note pan="0" key="11" len="12" vol="197" pos="288"/>
          <note pan="0" key="11" len="12" vol="197" pos="300"/>
          <note pan="0" key="11" len="24" vol="197" pos="312"/>
          <note pan="0" key="11" len="12" vol="197" pos="336"/>
          <note pan="0" key="11" len="12" vol="197" pos="348"/>
          <note pan="0" key="11" len="24" vol="197" pos="360"/>
          <note pan="0" key="21" len="48" vol="197" pos="384"/>
          <note pan="0" key="21" len="12" vol="197" pos="432"/>
          <note pan="0" key="21" len="12" vol="197" pos="444"/>
          <note pan="0" key="21" len="24" vol="197" pos="456"/>
          <note pan="0" key="21" len="12" vol="197" pos="480"/>
          <note pan="0" key="21" len="12" vol="197" pos="492"/>
          <note pan="0" key="21" len="24" vol="197" pos="504"/>
          <note pan="0" key="21" len="12" vol="197" pos="528"/>
          <note pan="0" key="21" len="12" vol="197" pos="540"/>
          <note pan="0" key="21" len="24" vol="197" pos="552"/>
          <note pan="0" key="20" len="48" vol="197" pos="576"/>
          <note pan="0" key="20" len="12" vol="197" pos="624"/>
          <note pan="0" key="20" len="12" vol="197" pos="636"/>
          <note pan="0" key="20" len="24" vol="197" pos="648"/>
          <note pan="0" key="20" len="12" vol="197" pos="672"/>
          <note pan="0" key="20" len="12" vol="197" pos="684"/>
          <note pan="0" key="20" len="12" vol="197" pos="696"/>
          <note pan="0" key="20" len="12" vol="197" pos="708"/>
          <note pan="0" key="20" len="12" vol="197" pos="720"/>
          <note pan="0" key="20" len="12" vol="197" pos="732"/>
          <note pan="0" key="20" len="24" vol="197" pos="744"/>
        </pattern>
        <pattern steps="16" muted="0" pos="8064" name="" type="1">
          <note pan="0" key="13" len="48" vol="195" pos="0"/>
          <note pan="0" key="13" len="12" vol="195" pos="48"/>
          <note pan="0" key="13" len="12" vol="195" pos="60"/>
          <note pan="0" key="13" len="12" vol="195" pos="72"/>
          <note pan="0" key="13" len="12" vol="195" pos="84"/>
          <note pan="0" key="13" len="12" vol="195" pos="96"/>
          <note pan="0" key="13" len="12" vol="195" pos="108"/>
          <note pan="0" key="13" len="12" vol="195" pos="120"/>
          <note pan="0" key="13" len="12" vol="195" pos="132"/>
          <note pan="0" key="13" len="12" vol="195" pos="144"/>
          <note pan="0" key="13" len="12" vol="195" pos="156"/>
          <note pan="0" key="13" len="12" vol="195" pos="168"/>
          <note pan="0" key="13" len="12" vol="195" pos="180"/>
          <note pan="0" key="20" len="48" vol="195" pos="192"/>
          <note pan="0" key="20" len="12" vol="195" pos="240"/>
          <note pan="0" key="20" len="12" vol="195" pos="252"/>
          <note pan="0" key="20" len="12" vol="195" pos="264"/>
          <note pan="0" key="20" len="12" vol="195" pos="276"/>
          <note pan="0" key="20" len="12" vol="195" pos="288"/>
          <note pan="0" key="20" len="12" vol="195" pos="300"/>
          <note pan="0" key="20" len="12" vol="195" pos="312"/>
          <note pan="0" key="20" len="12" vol="195" pos="324"/>
          <note pan="0" key="20" len="12" vol="195" pos="336"/>
          <note pan="0" key="20" len="12" vol="195" pos="348"/>
          <note pan="0" key="20" len="12" vol="195" pos="360"/>
          <note pan="0" key="20" len="12" vol="195" pos="372"/>
          <note pan="0" key="21" len="48" vol="195" pos="384"/>
          <note pan="0" key="21" len="12" vol="195" pos="432"/>
          <note pan="0" key="21" len="12" vol="195" pos="444"/>
          <note pan="0" key="21" len="12" vol="195" pos="456"/>
          <note pan="0" key="21" len="12" vol="195" pos="468"/>
          <note pan="0" key="21" len="12" vol="195" pos="480"/>
          <note pan="0" key="21" len="12" vol="195" pos="492"/>
          <note pan="0" key="21" len="12" vol="195" pos="504"/>
          <note pan="0" key="21" len="12" vol="195" pos="516"/>
          <note pan="0" key="21" len="12" vol="195" pos="528"/>
          <note pan="0" key="21" len="12" vol="195" pos="540"/>
          <note pan="0" key="21" len="12" vol="195" pos="552"/>
          <note pan="0" key="21" len="12" vol="195" pos="564"/>
          <note pan="0" key="23" len="48" vol="195" pos="576"/>
          <note pan="0" key="23" len="12" vol="195" pos="624"/>
          <note pan="0" key="23" len="12" vol="195" pos="636"/>
          <note pan="0" key="23" len="12" vol="195" pos="648"/>
          <note pan="0" key="23" len="12" vol="195" pos="660"/>
          <note pan="0" key="23" len="12" vol="195" pos="672"/>
          <note pan="0" key="23" len="12" vol="195" pos="684"/>
          <note pan="0" key="23" len="12" vol="195" pos="696"/>
          <note pan="0" key="23" len="12" vol="195" pos="708"/>
          <note pan="0" key="23" len="12" vol="195" pos="720"/>
          <note pan="0" key="23" len="12" vol="195" pos="732"/>
          <note pan="0" key="23" len="12" vol="195" pos="744"/>
          <note pan="0" key="23" len="12" vol="195" pos="756"/>
          <note pan="0" key="18" len="48" vol="195" pos="768"/>
          <note pan="0" key="18" len="12" vol="195" pos="816"/>
          <note pan="0" key="18" len="12" vol="195" pos="828"/>
          <note pan="0" key="18" len="12" vol="195" pos="840"/>
          <note pan="0" key="18" len="12" vol="195" pos="852"/>
          <note pan="0" key="18" len="12" vol="195" pos="864"/>
          <note pan="0" key="18" len="12" vol="195" pos="876"/>
          <note pan="0" key="18" len="12" vol="195" pos="888"/>
          <note pan="0" key="18" len="12" vol="195" pos="900"/>
          <note pan="0" key="18" len="12" vol="195" pos="912"/>
          <note pan="0" key="18" len="12" vol="195" pos="924"/>
          <note pan="0" key="18" len="12" vol="195" pos="936"/>
          <note pan="0" key="18" len="12" vol="195" pos="948"/>
          <note pan="0" key="20" len="48" vol="195" pos="960"/>
          <note pan="0" key="20" len="12" vol="195" pos="1008"/>
          <note pan="0" key="20" len="12" vol="195" pos="1020"/>
          <note pan="0" key="20" len="12" vol="195" pos="1032"/>
          <note pan="0" key="20" len="12" vol="195" pos="1044"/>
          <note pan="0" key="20" len="12" vol="195" pos="1056"/>
          <note pan="0" key="20" len="12" vol="195" pos="1068"/>
          <note pan="0" key="20" len="12" vol="195" pos="1080"/>
          <note pan="0" key="20" len="12" vol="195" pos="1092"/>
          <note pan="0" key="20" len="12" vol="195" pos="1104"/>
          <note pan="0" key="20" len="12" vol="195" pos="1116"/>
          <note pan="0" key="20" len="12" vol="195" pos="1128"/>
          <note pan="0" key="20" len="12" vol="195" pos="1140"/>
          <note pan="0" key="21" len="48" vol="195" pos="1152"/>
          <note pan="0" key="21" len="12" vol="195" pos="1200"/>
          <note pan="0" key="21" len="12" vol="195" pos="1212"/>
          <note pan="0" key="21" len="12" vol="195" pos="1224"/>
          <note pan="0" key="21" len="12" vol="195" pos="1236"/>
          <note pan="0" key="21" len="12" vol="195" pos="1248"/>
          <note pan="0" key="21" len="12" vol="195" pos="1260"/>
          <note pan="0" key="21" len="12" vol="195" pos="1272"/>
          <note pan="0" key="21" len="12" vol="195" pos="1284"/>
          <note pan="0" key="21" len="12" vol="195" pos="1296"/>
          <note pan="0" key="21" len="12" vol="195" pos="1308"/>
          <note pan="0" key="21" len="12" vol="195" pos="1320"/>
          <note pan="0" key="21" len="12" vol="195" pos="1332"/>
          <note pan="0" key="23" len="48" vol="195" pos="1344"/>
          <note pan="0" key="23" len="12" vol="195" pos="1392"/>
          <note pan="0" key="23" len="12" vol="195" pos="1404"/>
          <note pan="0" key="23" len="12" vol="195" pos="1416"/>
          <note pan="0" key="23" len="12" vol="195" pos="1428"/>
          <note pan="0" key="24" len="48" vol="195" pos="1440"/>
          <note pan="0" key="24" len="12" vol="195" pos="1488"/>
          <note pan="0" key="24" len="12" vol="195" pos="1500"/>
          <note pan="0" key="24" len="12" vol="195" pos="1512"/>
          <note pan="0" key="24" len="12" vol="195" pos="1524"/>
          <note pan="0" key="13" len="48" vol="195" pos="1536"/>
          <note pan="0" key="13" len="12" vol="195" pos="1584"/>
          <note pan="0" key="13" len="12" vol="195" pos="1596"/>
          <note pan="0" key="13" len="12" vol="195" pos="1608"/>
          <note pan="0" key="13" len="12" vol="195" pos="1620"/>
          <note pan="0" key="13" len="12" vol="195" pos="1632"/>
          <note pan="0" key="13" len="12" vol="195" pos="1644"/>
          <note pan="0" key="13" len="12" vol="195" pos="1656"/>
          <note pan="0" key="13" len="12" vol="195" pos="1668"/>
          <note pan="0" key="13" len="12" vol="195" pos="1680"/>
          <note pan="0" key="13" len="12" vol="195" pos="1692"/>
          <note pan="0" key="13" len="12" vol="195" pos="1704"/>
          <note pan="0" key="13" len="12" vol="195" pos="1716"/>
          <note pan="0" key="23" len="48" vol="195" pos="1728"/>
          <note pan="0" key="23" len="12" vol="195" pos="1776"/>
          <note pan="0" key="23" len="12" vol="195" pos="1788"/>
          <note pan="0" key="23" len="12" vol="195" pos="1800"/>
          <note pan="0" key="23" len="12" vol="195" pos="1812"/>
          <note pan="0" key="23" len="12" vol="195" pos="1824"/>
          <note pan="0" key="23" len="12" vol="195" pos="1836"/>
          <note pan="0" key="23" len="12" vol="195" pos="1848"/>
          <note pan="0" key="23" len="12" vol="195" pos="1860"/>
          <note pan="0" key="23" len="12" vol="195" pos="1872"/>
          <note pan="0" key="23" len="12" vol="195" pos="1884"/>
          <note pan="0" key="23" len="12" vol="195" pos="1896"/>
          <note pan="0" key="23" len="12" vol="195" pos="1908"/>
          <note pan="0" key="22" len="48" vol="195" pos="1920"/>
          <note pan="0" key="22" len="12" vol="195" pos="1968"/>
          <note pan="0" key="22" len="12" vol="195" pos="1980"/>
          <note pan="0" key="22" len="12" vol="195" pos="1992"/>
          <note pan="0" key="22" len="12" vol="195" pos="2004"/>
          <note pan="0" key="22" len="12" vol="195" pos="2016"/>
          <note pan="0" key="22" len="12" vol="195" pos="2028"/>
          <note pan="0" key="22" len="12" vol="195" pos="2040"/>
          <note pan="0" key="22" len="12" vol="195" pos="2052"/>
          <note pan="0" key="22" len="12" vol="195" pos="2064"/>
          <note pan="0" key="22" len="12" vol="195" pos="2076"/>
          <note pan="0" key="22" len="12" vol="195" pos="2088"/>
          <note pan="0" key="22" len="12" vol="195" pos="2100"/>
          <note pan="0" key="18" len="48" vol="195" pos="2112"/>
          <note pan="0" key="18" len="12" vol="195" pos="2160"/>
          <note pan="0" key="18" len="12" vol="195" pos="2172"/>
          <note pan="0" key="18" len="12" vol="195" pos="2184"/>
          <note pan="0" key="18" len="12" vol="195" pos="2196"/>
          <note pan="0" key="16" len="48" vol="195" pos="2208"/>
          <note pan="0" key="16" len="12" vol="195" pos="2256"/>
          <note pan="0" key="16" len="12" vol="195" pos="2268"/>
          <note pan="0" key="16" len="12" vol="195" pos="2280"/>
          <note pan="0" key="16" len="12" vol="195" pos="2292"/>
          <note pan="0" key="14" len="48" vol="195" pos="2304"/>
          <note pan="0" key="14" len="12" vol="195" pos="2352"/>
          <note pan="0" key="14" len="12" vol="195" pos="2364"/>
          <note pan="0" key="14" len="12" vol="195" pos="2376"/>
          <note pan="0" key="14" len="12" vol="195" pos="2388"/>
          <note pan="0" key="14" len="48" vol="195" pos="2400"/>
          <note pan="0" key="14" len="12" vol="195" pos="2448"/>
          <note pan="0" key="14" len="12" vol="195" pos="2460"/>
          <note pan="0" key="14" len="12" vol="195" pos="2472"/>
          <note pan="0" key="14" len="12" vol="195" pos="2484"/>
          <note pan="0" key="21" len="48" vol="195" pos="2496"/>
          <note pan="0" key="21" len="12" vol="195" pos="2544"/>
          <note pan="0" key="21" len="12" vol="195" pos="2556"/>
          <note pan="0" key="21" len="12" vol="195" pos="2568"/>
          <note pan="0" key="21" len="12" vol="195" pos="2580"/>
          <note pan="0" key="21" len="12" vol="195" pos="2592"/>
          <note pan="0" key="21" len="12" vol="195" pos="2604"/>
          <note pan="0" key="21" len="12" vol="195" pos="2616"/>
          <note pan="0" key="21" len="12" vol="195" pos="2628"/>
          <note pan="0" key="21" len="12" vol="195" pos="2640"/>
          <note pan="0" key="21" len="12" vol="195" pos="2652"/>
          <note pan="0" key="21" len="12" vol="195" pos="2664"/>
          <note pan="0" key="21" len="12" vol="195" pos="2676"/>
          <note pan="0" key="23" len="48" vol="195" pos="2688"/>
          <note pan="0" key="23" len="12" vol="195" pos="2736"/>
          <note pan="0" key="23" len="12" vol="195" pos="2748"/>
          <note pan="0" key="23" len="12" vol="195" pos="2760"/>
          <note pan="0" key="23" len="12" vol="195" pos="2772"/>
          <note pan="0" key="23" len="12" vol="195" pos="2784"/>
          <note pan="0" key="23" len="12" vol="195" pos="2796"/>
          <note pan="0" key="23" len="12" vol="195" pos="2808"/>
          <note pan="0" key="23" len="12" vol="195" pos="2820"/>
          <note pan="0" key="23" len="12" vol="195" pos="2832"/>
          <note pan="0" key="23" len="12" vol="195" pos="2844"/>
          <note pan="0" key="23" len="12" vol="195" pos="2856"/>
          <note pan="0" key="23" len="12" vol="195" pos="2868"/>
          <note pan="0" key="23" len="96" vol="195" pos="2880"/>
          <note pan="0" key="27" len="96" vol="195" pos="2976"/>
        </pattern>
        <pattern steps="16" muted="0" pos="11136" name="" type="1">
          <note pan="0" key="13" len="24" vol="197" pos="0"/>
          <note pan="0" key="13" len="12" vol="197" pos="24"/>
          <note pan="0" key="13" len="12" vol="197" pos="36"/>
          <note pan="0" key="13" len="12" vol="197" pos="48"/>
          <note pan="0" key="13" len="12" vol="197" pos="60"/>
          <note pan="0" key="13" len="24" vol="197" pos="72"/>
          <note pan="0" key="13" len="12" vol="197" pos="96"/>
          <note pan="0" key="13" len="12" vol="197" pos="108"/>
          <note pan="0" key="13" len="12" vol="197" pos="120"/>
          <note pan="0" key="13" len="12" vol="197" pos="132"/>
          <note pan="0" key="13" len="24" vol="197" pos="144"/>
          <note pan="0" key="13" len="12" vol="197" pos="168"/>
          <note pan="0" key="13" len="12" vol="197" pos="180"/>
          <note pan="0" key="13" len="12" vol="197" pos="192"/>
          <note pan="0" key="13" len="12" vol="197" pos="204"/>
          <note pan="0" key="13" len="24" vol="197" pos="216"/>
          <note pan="0" key="13" len="12" vol="197" pos="240"/>
          <note pan="0" key="13" len="12" vol="197" pos="252"/>
          <note pan="0" key="13" len="12" vol="197" pos="264"/>
          <note pan="0" key="13" len="12" vol="197" pos="276"/>
          <note pan="0" key="13" len="24" vol="197" pos="288"/>
          <note pan="0" key="13" len="12" vol="197" pos="312"/>
          <note pan="0" key="13" len="12" vol="197" pos="324"/>
          <note pan="0" key="13" len="24" vol="197" pos="336"/>
          <note pan="0" key="13" len="12" vol="197" pos="360"/>
          <note pan="0" key="13" len="12" vol="197" pos="372"/>
        </pattern>
        <pattern steps="16" muted="0" pos="11904" name="" type="1">
          <note pan="0" key="13" len="24" vol="197" pos="0"/>
          <note pan="0" key="13" len="12" vol="197" pos="24"/>
          <note pan="0" key="13" len="12" vol="197" pos="36"/>
          <note pan="0" key="13" len="12" vol="197" pos="48"/>
          <note pan="0" key="13" len="12" vol="197" pos="60"/>
          <note pan="0" key="13" len="24" vol="197" pos="72"/>
          <note pan="0" key="13" len="12" vol="197" pos="96"/>
          <note pan="0" key="13" len="12" vol="197" pos="108"/>
          <note pan="0" key="13" len="12" vol="197" pos="120"/>
          <note pan="0" key="13" len="12" vol="197" pos="132"/>
          <note pan="0" key="13" len="24" vol="197" pos="144"/>
          <note pan="0" key="13" len="12" vol="197" pos="168"/>
          <note pan="0" key="13" len="12" vol="197" pos="180"/>
          <note pan="0" key="13" len="12" vol="197" pos="192"/>
          <note pan="0" key="13" len="12" vol="197" pos="204"/>
          <note pan="0" key="13" len="24" vol="197" pos="216"/>
          <note pan="0" key="13" len="12" vol="197" pos="240"/>
          <note pan="0" key="13" len="12" vol="197" pos="252"/>
          <note pan="0" key="13" len="12" vol="197" pos="264"/>
          <note pan="0" key="13" len="12" vol="197" pos="276"/>
          <note pan="0" key="13" len="24" vol="197" pos="288"/>
          <note pan="0" key="13" len="12" vol="197" pos="312"/>
          <note pan="0" key="13" len="12" vol="197" pos="324"/>
          <note pan="0" key="13" len="24" vol="197" pos="336"/>
          <note pan="0" key="13" len="12" vol="197" pos="360"/>
          <note pan="0" key="13" len="12" vol="197" pos="372"/>
        </pattern>
        <pattern steps="16" muted="0" pos="11520" name="" type="1">
          <note pan="0" key="14" len="24" vol="197" pos="0"/>
          <note pan="0" key="14" len="12" vol="197" pos="24"/>
          <note pan="0" key="14" len="12" vol="197" pos="36"/>
          <note pan="0" key="14" len="12" vol="197" pos="48"/>
          <note pan="0" key="14" len="12" vol="197" pos="60"/>
          <note pan="0" key="14" len="24" vol="197" pos="72"/>
          <note pan="0" key="14" len="12" vol="197" pos="96"/>
          <note pan="0" key="14" len="12" vol="197" pos="108"/>
          <note pan="0" key="14" len="12" vol="197" pos="120"/>
          <note pan="0" key="14" len="12" vol="197" pos="132"/>
          <note pan="0" key="14" len="24" vol="197" pos="144"/>
          <note pan="0" key="14" len="12" vol="197" pos="168"/>
          <note pan="0" key="14" len="12" vol="197" pos="180"/>
          <note pan="0" key="14" len="12" vol="197" pos="192"/>
          <note pan="0" key="14" len="12" vol="197" pos="204"/>
          <note pan="0" key="14" len="24" vol="197" pos="216"/>
          <note pan="0" key="14" len="12" vol="197" pos="240"/>
          <note pan="0" key="14" len="12" vol="197" pos="252"/>
          <note pan="0" key="14" len="12" vol="197" pos="264"/>
          <note pan="0" key="14" len="12" vol="197" pos="276"/>
          <note pan="0" key="14" len="24" vol="197" pos="288"/>
          <note pan="0" key="14" len="12" vol="197" pos="312"/>
          <note pan="0" key="14" len="12" vol="197" pos="324"/>
          <note pan="0" key="14" len="24" vol="197" pos="336"/>
          <note pan="0" key="14" len="12" vol="197" pos="360"/>
          <note pan="0" key="14" len="12" vol="197" pos="372"/>
        </pattern>
        <pattern steps="16" muted="0" pos="12288" name="" type="1">
          <note pan="0" key="14" len="24" vol="197" pos="0"/>
          <note pan="0" key="14" len="12" vol="197" pos="24"/>
          <note pan="0" key="14" len="12" vol="197" pos="36"/>
          <note pan="0" key="14" len="12" vol="197" pos="48"/>
          <note pan="0" key="14" len="12" vol="197" pos="60"/>
          <note pan="0" key="14" len="24" vol="197" pos="72"/>
          <note pan="0" key="14" len="12" vol="197" pos="96"/>
          <note pan="0" key="14" len="12" vol="197" pos="108"/>
          <note pan="0" key="14" len="12" vol="197" pos="120"/>
          <note pan="0" key="14" len="12" vol="197" pos="132"/>
          <note pan="0" key="14" len="24" vol="197" pos="144"/>
          <note pan="0" key="14" len="12" vol="197" pos="168"/>
          <note pan="0" key="14" len="12" vol="197" pos="180"/>
          <note pan="0" key="14" len="12" vol="197" pos="192"/>
          <note pan="0" key="14" len="12" vol="197" pos="204"/>
          <note pan="0" key="14" len="24" vol="197" pos="216"/>
          <note pan="0" key="14" len="12" vol="197" pos="240"/>
          <note pan="0" key="14" len="12" vol="197" pos="252"/>
          <note pan="0" key="14" len="12" vol="197" pos="264"/>
          <note pan="0" key="14" len="12" vol="197" pos="276"/>
          <note pan="0" key="14" len="24" vol="197" pos="288"/>
          <note pan="0" key="14" len="12" vol="197" pos="312"/>
          <note pan="0" key="14" len="12" vol="197" pos="324"/>
          <note pan="0" key="14" len="24" vol="197" pos="336"/>
          <note pan="0" key="14" len="12" vol="197" pos="360"/>
          <note pan="0" key="14" len="12" vol="197" pos="372"/>
        </pattern>
        <pattern steps="16" muted="0" pos="15744" name="" type="1">
          <note pan="0" key="13" len="48" vol="195" pos="0"/>
          <note pan="0" key="13" len="12" vol="195" pos="48"/>
          <note pan="0" key="13" len="12" vol="195" pos="60"/>
          <note pan="0" key="13" len="12" vol="195" pos="72"/>
          <note pan="0" key="13" len="12" vol="195" pos="84"/>
          <note pan="0" key="13" len="12" vol="195" pos="96"/>
          <note pan="0" key="13" len="12" vol="195" pos="108"/>
          <note pan="0" key="13" len="12" vol="195" pos="120"/>
          <note pan="0" key="13" len="12" vol="195" pos="132"/>
          <note pan="0" key="13" len="12" vol="195" pos="144"/>
          <note pan="0" key="13" len="12" vol="195" pos="156"/>
          <note pan="0" key="13" len="12" vol="195" pos="168"/>
          <note pan="0" key="13" len="12" vol="195" pos="180"/>
          <note pan="0" key="20" len="48" vol="195" pos="192"/>
          <note pan="0" key="20" len="12" vol="195" pos="240"/>
          <note pan="0" key="20" len="12" vol="195" pos="252"/>
          <note pan="0" key="20" len="12" vol="195" pos="264"/>
          <note pan="0" key="20" len="12" vol="195" pos="276"/>
          <note pan="0" key="20" len="12" vol="195" pos="288"/>
          <note pan="0" key="20" len="12" vol="195" pos="300"/>
          <note pan="0" key="20" len="12" vol="195" pos="312"/>
          <note pan="0" key="20" len="12" vol="195" pos="324"/>
          <note pan="0" key="20" len="12" vol="195" pos="336"/>
          <note pan="0" key="20" len="12" vol="195" pos="348"/>
          <note pan="0" key="20" len="12" vol="195" pos="360"/>
          <note pan="0" key="20" len="12" vol="195" pos="372"/>
          <note pan="0" key="21" len="48" vol="195" pos="384"/>
          <note pan="0" key="21" len="12" vol="195" pos="432"/>
          <note pan="0" key="21" len="12" vol="195" pos="444"/>
          <note pan="0" key="21" len="12" vol="195" pos="456"/>
          <note pan="0" key="21" len="12" vol="195" pos="468"/>
          <note pan="0" key="21" len="12" vol="195" pos="480"/>
          <note pan="0" key="21" len="12" vol="195" pos="492"/>
          <note pan="0" key="21" len="12" vol="195" pos="504"/>
          <note pan="0" key="21" len="12" vol="195" pos="516"/>
          <note pan="0" key="21" len="12" vol="195" pos="528"/>
          <note pan="0" key="21" len="12" vol="195" pos="540"/>
          <note pan="0" key="21" len="12" vol="195" pos="552"/>
          <note pan="0" key="21" len="12" vol="195" pos="564"/>
          <note pan="0" key="23" len="48" vol="195" pos="576"/>
          <note pan="0" key="23" len="12" vol="195" pos="624"/>
          <note pan="0" key="23" len="12" vol="195" pos="636"/>
          <note pan="0" key="23" len="12" vol="195" pos="648"/>
          <note pan="0" key="23" len="12" vol="195" pos="660"/>
          <note pan="0" key="23" len="12" vol="195" pos="672"/>
          <note pan="0" key="23" len="12" vol="195" pos="684"/>
          <note pan="0" key="23" len="12" vol="195" pos="696"/>
          <note pan="0" key="23" len="12" vol="195" pos="708"/>
          <note pan="0" key="23" len="12" vol="195" pos="720"/>
          <note pan="0" key="23" len="12" vol="195" pos="732"/>
          <note pan="0" key="23" len="12" vol="195" pos="744"/>
          <note pan="0" key="23" len="12" vol="195" pos="756"/>
          <note pan="0" key="18" len="48" vol="195" pos="768"/>
          <note pan="0" key="18" len="12" vol="195" pos="816"/>
          <note pan="0" key="18" len="12" vol="195" pos="828"/>
          <note pan="0" key="18" len="12" vol="195" pos="840"/>
          <note pan="0" key="18" len="12" vol="195" pos="852"/>
          <note pan="0" key="18" len="12" vol="195" pos="864"/>
          <note pan="0" key="18" len="12" vol="195" pos="876"/>
          <note pan="0" key="18" len="12" vol="195" pos="888"/>
          <note pan="0" key="18" len="12" vol="195" pos="900"/>
          <note pan="0" key="18" len="12" vol="195" pos="912"/>
          <note pan="0" key="18" len="12" vol="195" pos="924"/>
          <note pan="0" key="18" len="12" vol="195" pos="936"/>
          <note pan="0" key="18" len="12" vol="195" pos="948"/>
          <note pan="0" key="20" len="48" vol="195" pos="960"/>
          <note pan="0" key="20" len="12" vol="195" pos="1008"/>
          <note pan="0" key="20" len="12" vol="195" pos="1020"/>
          <note pan="0" key="20" len="12" vol="195" pos="1032"/>
          <note pan="0" key="20" len="12" vol="195" pos="1044"/>
          <note pan="0" key="20" len="12" vol="195" pos="1056"/>
          <note pan="0" key="20" len="12" vol="195" pos="1068"/>
          <note pan="0" key="20" len="12" vol="195" pos="1080"/>
          <note pan="0" key="20" len="12" vol="195" pos="1092"/>
          <note pan="0" key="20" len="12" vol="195" pos="1104"/>
          <note pan="0" key="20" len="12" vol="195" pos="1116"/>
          <note pan="0" key="20" len="12" vol="195" pos="1128"/>
          <note pan="0" key="20" len="12" vol="195" pos="1140"/>
          <note pan="0" key="21" len="48" vol="195" pos="1152"/>
          <note pan="0" key="21" len="12" vol="195" pos="1200"/>
          <note pan="0" key="21" len="12" vol="195" pos="1212"/>
          <note pan="0" key="21" len="12" vol="195" pos="1224"/>
          <note pan="0" key="21" len="12" vol="195" pos="1236"/>
          <note pan="0" key="21" len="12" vol="195" pos="1248"/>
          <note pan="0" key="21" len="12" vol="195" pos="1260"/>
          <note pan="0" key="21" len="12" vol="195" pos="1272"/>
          <note pan="0" key="21" len="12" vol="195" pos="1284"/>
          <note pan="0" key="21" len="12" vol="195" pos="1296"/>
          <note pan="0" key="21" len="12" vol="195" pos="1308"/>
          <note pan="0" key="21" len="12" vol="195" pos="1320"/>
          <note pan="0" key="21" len="12" vol="195" pos="1332"/>
          <note pan="0" key="23" len="48" vol="195" pos="1344"/>
          <note pan="0" key="23" len="12" vol="195" pos="1392"/>
          <note pan="0" key="23" len="12" vol="195" pos="1404"/>
          <note pan="0" key="23" len="12" vol="195" pos="1416"/>
          <note pan="0" key="23" len="12" vol="195" pos="1428"/>
          <note pan="0" key="24" len="48" vol="195" pos="1440"/>
          <note pan="0" key="24" len="12" vol="195" pos="1488"/>
          <note pan="0" key="24" len="12" vol="195" pos="1500"/>
          <note pan="0" key="24" len="12" vol="195" pos="1512"/>
          <note pan="0" key="24" len="12" vol="195" pos="1524"/>
          <note pan="0" key="13" len="48" vol="195" pos="1536"/>
          <note pan="0" key="13" len="12" vol="195" pos="1584"/>
          <note pan="0" key="13" len="12" vol="195" pos="1596"/>
          <note pan="0" key="13" len="12" vol="195" pos="1608"/>
          <note pan="0" key="13" len="12" vol="195" pos="1620"/>
          <note pan="0" key="13" len="12" vol="195" pos="1632"/>
          <note pan="0" key="13" len="12" vol="195" pos="1644"/>
          <note pan="0" key="13" len="12" vol="195" pos="1656"/>
          <note pan="0" key="13" len="12" vol="195" pos="1668"/>
          <note pan="0" key="13" len="12" vol="195" pos="1680"/>
          <note pan="0" key="13" len="12" vol="195" pos="1692"/>
          <note pan="0" key="13" len="12" vol="195" pos="1704"/>
          <note pan="0" key="13" len="12" vol="195" pos="1716"/>
          <note pan="0" key="23" len="48" vol="195" pos="1728"/>
          <note pan="0" key="23" len="12" vol="195" pos="1776"/>
          <note pan="0" key="23" len="12" vol="195" pos="1788"/>
          <note pan="0" key="23" len="12" vol="195" pos="1800"/>
          <note pan="0" key="23" len="12" vol="195" pos="1812"/>
          <note pan="0" key="23" len="12" vol="195" pos="1824"/>
          <note pan="0" key="23" len="12" vol="195" pos="1836"/>
          <note pan="0" key="23" len="12" vol="195" pos="1848"/>
          <note pan="0" key="23" len="12" vol="195" pos="1860"/>
          <note pan="0" key="23" len="12" vol="195" pos="1872"/>
          <note pan="0" key="23" len="12" vol="195" pos="1884"/>
          <note pan="0" key="23" len="12" vol="195" pos="1896"/>
          <note pan="0" key="23" len="12" vol="195" pos="1908"/>
          <note pan="0" key="22" len="48" vol="195" pos="1920"/>
          <note pan="0" key="22" len="12" vol="195" pos="1968"/>
          <note pan="0" key="22" len="12" vol="195" pos="1980"/>
          <note pan="0" key="22" len="12" vol="195" pos="1992"/>
          <note pan="0" key="22" len="12" vol="195" pos="2004"/>
          <note pan="0" key="22" len="12" vol="195" pos="2016"/>
          <note pan="0" key="22" len="12" vol="195" pos="2028"/>
          <note pan="0" key="22" len="12" vol="195" pos="2040"/>
          <note pan="0" key="22" len="12" vol="195" pos="2052"/>
          <note pan="0" key="22" len="12" vol="195" pos="2064"/>
          <note pan="0" key="22" len="12" vol="195" pos="2076"/>
          <note pan="0" key="22" len="12" vol="195" pos="2088"/>
          <note pan="0" key="22" len="12" vol="195" pos="2100"/>
          <note pan="0" key="18" len="48" vol="195" pos="2112"/>
          <note pan="0" key="18" len="12" vol="195" pos="2160"/>
          <note pan="0" key="18" len="12" vol="195" pos="2172"/>
          <note pan="0" key="18" len="12" vol="195" pos="2184"/>
          <note pan="0" key="18" len="12" vol="195" pos="2196"/>
          <note pan="0" key="16" len="48" vol="195" pos="2208"/>
          <note pan="0" key="16" len="12" vol="195" pos="2256"/>
          <note pan="0" key="16" len="12" vol="195" pos="2268"/>
          <note pan="0" key="16" len="12" vol="195" pos="2280"/>
          <note pan="0" key="16" len="12" vol="195" pos="2292"/>
          <note pan="0" key="14" len="48" vol="195" pos="2304"/>
          <note pan="0" key="14" len="12" vol="195" pos="2352"/>
          <note pan="0" key="14" len="12" vol="195" pos="2364"/>
          <note pan="0" key="14" len="12" vol="195" pos="2376"/>
          <note pan="0" key="14" len="12" vol="195" pos="2388"/>
          <note pan="0" key="14" len="48" vol="195" pos="2400"/>
          <note pan="0" key="14" len="12" vol="195" pos="2448"/>
          <note pan="0" key="14" len="12" vol="195" pos="2460"/>
          <note pan="0" key="14" len="12" vol="195" pos="2472"/>
          <note pan="0" key="14" len="12" vol="195" pos="2484"/>
          <note pan="0" key="21" len="48" vol="195" pos="2496"/>
          <note pan="0" key="21" len="12" vol="195" pos="2544"/>
          <note pan="0" key="21" len="12" vol="195" pos="2556"/>
          <note pan="0" key="21" len="12" vol="195" pos="2568"/>
          <note pan="0" key="21" len="12" vol="195" pos="2580"/>
          <note pan="0" key="21" len="12" vol="195" pos="2592"/>
          <note pan="0" key="21" len="12" vol="195" pos="2604"/>
          <note pan="0" key="21" len="12" vol="195" pos="2616"/>
          <note pan="0" key="21" len="12" vol="195" pos="2628"/>
          <note pan="0" key="21" len="12" vol="195" pos="2640"/>
          <note pan="0" key="21" len="12" vol="195" pos="2652"/>
          <note pan="0" key="21" len="12" vol="195" pos="2664"/>
          <note pan="0" key="21" len="12" vol="195" pos="2676"/>
          <note pan="0" key="23" len="48" vol="195" pos="2688"/>
          <note pan="0" key="23" len="12" vol="195" pos="2736"/>
          <note pan="0" key="23" len="12" vol="195" pos="2748"/>
          <note pan="0" key="23" len="12" vol="195" pos="2760"/>
          <note pan="0" key="23" len="12" vol="195" pos="2772"/>
          <note pan="0" key="23" len="12" vol="195" pos="2784"/>
          <note pan="0" key="23" len="12" vol="195" pos="2796"/>
          <note pan="0" key="23" len="12" vol="195" pos="2808"/>
          <note pan="0" key="23" len="12" vol="195" pos="2820"/>
          <note pan="0" key="23" len="12" vol="195" pos="2832"/>
          <note pan="0" key="23" len="12" vol="195" pos="2844"/>
          <note pan="0" key="23" len="12" vol="195" pos="2856"/>
          <note pan="0" key="23" len="12" vol="195" pos="2868"/>
          <note pan="0" key="11" len="24" vol="195" pos="2880"/>
          <note pan="0" key="11" len="24" vol="195" pos="2904"/>
          <note pan="0" key="11" len="24" vol="195" pos="2976"/>
          <note pan="0" key="11" len="24" vol="195" pos="3000"/>
        </pattern>
        <pattern steps="16" muted="0" pos="3264" name="" type="1">
          <note pan="0" key="14" len="192" vol="172" pos="0"/>
        </pattern>
        <pattern steps="16" muted="0" pos="7296" name="" type="1">
          <note pan="0" key="18" len="24" vol="197" pos="0"/>
          <note pan="0" key="16" len="24" vol="197" pos="24"/>
          <note pan="0" key="18" len="24" vol="197" pos="48"/>
          <note pan="0" key="25" len="24" vol="197" pos="72"/>
          <note pan="0" key="18" len="24" vol="197" pos="96"/>
          <note pan="0" key="28" len="24" vol="197" pos="120"/>
          <note pan="0" key="23" len="24" vol="197" pos="144"/>
          <note pan="0" key="25" len="24" vol="197" pos="168"/>
          <note pan="0" key="18" len="24" vol="197" pos="192"/>
          <note pan="0" key="16" len="24" vol="197" pos="216"/>
          <note pan="0" key="18" len="24" vol="197" pos="240"/>
          <note pan="0" key="25" len="24" vol="197" pos="264"/>
          <note pan="0" key="18" len="24" vol="197" pos="288"/>
          <note pan="0" key="28" len="24" vol="197" pos="312"/>
          <note pan="0" key="30" len="24" vol="197" pos="336"/>
          <note pan="0" key="28" len="24" vol="197" pos="360"/>
        </pattern>
        <pattern steps="16" muted="0" pos="7680" name="" type="1">
          <note pan="0" key="15" len="24" vol="197" pos="0"/>
          <note pan="0" key="15" len="12" vol="197" pos="24"/>
          <note pan="0" key="15" len="12" vol="197" pos="36"/>
          <note pan="0" key="15" len="12" vol="197" pos="48"/>
          <note pan="0" key="15" len="12" vol="197" pos="60"/>
          <note pan="0" key="15" len="12" vol="197" pos="72"/>
          <note pan="0" key="15" len="12" vol="197" pos="84"/>
          <note pan="0" key="15" len="12" vol="197" pos="96"/>
          <note pan="0" key="15" len="12" vol="197" pos="108"/>
          <note pan="0" key="15" len="12" vol="197" pos="120"/>
          <note pan="0" key="15" len="12" vol="197" pos="132"/>
          <note pan="0" key="15" len="12" vol="197" pos="144"/>
          <note pan="0" key="15" len="12" vol="197" pos="156"/>
          <note pan="0" key="15" len="12" vol="197" pos="168"/>
          <note pan="0" key="15" len="12" vol="197" pos="180"/>
          <note pan="0" key="21" len="96" vol="197" pos="192"/>
          <note pan="0" key="20" len="96" vol="197" pos="288"/>
        </pattern>
        <pattern steps="16" muted="0" pos="18816" name="" type="1">
          <note pan="0" key="13" len="24" vol="197" pos="0"/>
          <note pan="0" key="13" len="12" vol="197" pos="24"/>
          <note pan="0" key="13" len="12" vol="197" pos="36"/>
          <note pan="0" key="13" len="24" vol="197" pos="48"/>
          <note pan="0" key="13" len="24" vol="197" pos="72"/>
          <note pan="0" key="13" len="12" vol="197" pos="96"/>
          <note pan="0" key="13" len="12" vol="197" pos="108"/>
          <note pan="0" key="13" len="24" vol="197" pos="120"/>
          <note pan="0" key="13" len="24" vol="197" pos="144"/>
          <note pan="0" key="13" len="12" vol="197" pos="168"/>
          <note pan="0" key="13" len="12" vol="197" pos="180"/>
          <note pan="0" key="13" len="24" vol="197" pos="192"/>
          <note pan="0" key="13" len="24" vol="197" pos="216"/>
          <note pan="0" key="13" len="12" vol="197" pos="240"/>
          <note pan="0" key="13" len="12" vol="197" pos="252"/>
          <note pan="0" key="13" len="24" vol="197" pos="264"/>
          <note pan="0" key="13" len="24" vol="197" pos="288"/>
          <note pan="0" key="13" len="24" vol="197" pos="312"/>
          <note pan="0" key="13" len="12" vol="197" pos="336"/>
          <note pan="0" key="13" len="12" vol="197" pos="348"/>
          <note pan="0" key="13" len="24" vol="197" pos="360"/>
          <note pan="0" key="20" len="24" vol="197" pos="384"/>
          <note pan="0" key="20" len="12" vol="197" pos="408"/>
          <note pan="0" key="20" len="12" vol="197" pos="420"/>
          <note pan="0" key="20" len="24" vol="197" pos="432"/>
          <note pan="0" key="20" len="24" vol="197" pos="456"/>
          <note pan="0" key="20" len="12" vol="197" pos="480"/>
          <note pan="0" key="20" len="12" vol="197" pos="492"/>
          <note pan="0" key="20" len="24" vol="197" pos="504"/>
          <note pan="0" key="20" len="24" vol="197" pos="528"/>
          <note pan="0" key="20" len="12" vol="197" pos="552"/>
          <note pan="0" key="20" len="12" vol="197" pos="564"/>
          <note pan="0" key="20" len="24" vol="197" pos="576"/>
          <note pan="0" key="20" len="24" vol="197" pos="600"/>
          <note pan="0" key="20" len="12" vol="197" pos="624"/>
          <note pan="0" key="20" len="12" vol="197" pos="636"/>
          <note pan="0" key="20" len="24" vol="197" pos="648"/>
          <note pan="0" key="20" len="24" vol="197" pos="672"/>
          <note pan="0" key="20" len="24" vol="197" pos="696"/>
          <note pan="0" key="20" len="12" vol="197" pos="720"/>
          <note pan="0" key="20" len="12" vol="197" pos="732"/>
          <note pan="0" key="20" len="24" vol="197" pos="744"/>
          <note pan="0" key="15" len="24" vol="197" pos="768"/>
          <note pan="0" key="15" len="12" vol="197" pos="792"/>
          <note pan="0" key="15" len="12" vol="197" pos="804"/>
          <note pan="0" key="15" len="24" vol="197" pos="816"/>
          <note pan="0" key="15" len="24" vol="197" pos="840"/>
          <note pan="0" key="15" len="12" vol="197" pos="864"/>
          <note pan="0" key="15" len="12" vol="197" pos="876"/>
          <note pan="0" key="15" len="24" vol="197" pos="888"/>
          <note pan="0" key="15" len="24" vol="197" pos="912"/>
          <note pan="0" key="15" len="12" vol="197" pos="936"/>
          <note pan="0" key="15" len="12" vol="197" pos="948"/>
          <note pan="0" key="15" len="24" vol="197" pos="960"/>
          <note pan="0" key="15" len="24" vol="197" pos="984"/>
          <note pan="0" key="15" len="12" vol="197" pos="1008"/>
          <note pan="0" key="15" len="12" vol="197" pos="1020"/>
          <note pan="0" key="15" len="24" vol="197" pos="1032"/>
          <note pan="0" key="15" len="24" vol="197" pos="1056"/>
          <note pan="0" key="15" len="24" vol="197" pos="1080"/>
          <note pan="0" key="15" len="12" vol="197" pos="1104"/>
          <note pan="0" key="15" len="12" vol="197" pos="1116"/>
          <note pan="0" key="15" len="24" vol="197" pos="1128"/>
          <note pan="0" key="14" len="24" vol="197" pos="1152"/>
          <note pan="0" key="14" len="12" vol="197" pos="1176"/>
          <note pan="0" key="14" len="12" vol="197" pos="1188"/>
          <note pan="0" key="14" len="24" vol="197" pos="1200"/>
          <note pan="0" key="14" len="24" vol="197" pos="1224"/>
          <note pan="0" key="14" len="12" vol="197" pos="1248"/>
          <note pan="0" key="14" len="12" vol="197" pos="1260"/>
          <note pan="0" key="14" len="24" vol="197" pos="1272"/>
          <note pan="0" key="14" len="24" vol="197" pos="1296"/>
          <note pan="0" key="14" len="12" vol="197" pos="1320"/>
          <note pan="0" key="14" len="12" vol="197" pos="1332"/>
          <note pan="0" key="20" len="48" vol="197" pos="1344"/>
          <note pan="0" key="15" len="48" vol="197" pos="1392"/>
          <note pan="0" key="11" len="48" vol="197" pos="1440"/>
          <note pan="0" key="8" len="48" vol="197" pos="1488"/>
          <note pan="0" key="13" len="24" vol="197" pos="1536"/>
          <note pan="0" key="13" len="12" vol="197" pos="1560"/>
          <note pan="0" key="13" len="12" vol="197" pos="1572"/>
          <note pan="0" key="13" len="24" vol="197" pos="1584"/>
          <note pan="0" key="13" len="24" vol="197" pos="1608"/>
          <note pan="0" key="13" len="12" vol="197" pos="1632"/>
          <note pan="0" key="13" len="12" vol="197" pos="1644"/>
          <note pan="0" key="13" len="24" vol="197" pos="1656"/>
          <note pan="0" key="13" len="24" vol="197" pos="1680"/>
          <note pan="0" key="13" len="12" vol="197" pos="1704"/>
          <note pan="0" key="13" len="12" vol="197" pos="1716"/>
          <note pan="0" key="13" len="24" vol="197" pos="1728"/>
          <note pan="0" key="13" len="24" vol="197" pos="1752"/>
          <note pan="0" key="13" len="12" vol="197" pos="1776"/>
          <note pan="0" key="13" len="12" vol="197" pos="1788"/>
          <note pan="0" key="13" len="24" vol="197" pos="1800"/>
          <note pan="0" key="13" len="24" vol="197" pos="1824"/>
          <note pan="0" key="13" len="24" vol="197" pos="1848"/>
          <note pan="0" key="13" len="12" vol="197" pos="1872"/>
          <note pan="0" key="13" len="12" vol="197" pos="1884"/>
          <note pan="0" key="13" len="24" vol="197" pos="1896"/>
          <note pan="0" key="14" len="24" vol="197" pos="1920"/>
          <note pan="0" key="14" len="12" vol="197" pos="1944"/>
          <note pan="0" key="14" len="12" vol="197" pos="1956"/>
          <note pan="0" key="14" len="24" vol="197" pos="1968"/>
          <note pan="0" key="14" len="24" vol="197" pos="1992"/>
          <note pan="0" key="14" len="12" vol="197" pos="2016"/>
          <note pan="0" key="14" len="12" vol="197" pos="2028"/>
          <note pan="0" key="14" len="24" vol="197" pos="2040"/>
          <note pan="0" key="14" len="24" vol="197" pos="2064"/>
          <note pan="0" key="14" len="12" vol="197" pos="2088"/>
          <note pan="0" key="14" len="12" vol="197" pos="2100"/>
          <note pan="0" key="14" len="24" vol="197" pos="2112"/>
          <note pan="0" key="14" len="24" vol="197" pos="2136"/>
          <note pan="0" key="14" len="12" vol="197" pos="2160"/>
          <note pan="0" key="14" len="12" vol="197" pos="2172"/>
          <note pan="0" key="14" len="24" vol="197" pos="2184"/>
          <note pan="0" key="14" len="24" vol="197" pos="2208"/>
          <note pan="0" key="14" len="24" vol="197" pos="2232"/>
          <note pan="0" key="14" len="12" vol="197" pos="2256"/>
          <note pan="0" key="14" len="12" vol="197" pos="2268"/>
          <note pan="0" key="14" len="24" vol="197" pos="2280"/>
          <note pan="0" key="15" len="24" vol="197" pos="2304"/>
          <note pan="0" key="15" len="12" vol="197" pos="2328"/>
          <note pan="0" key="15" len="12" vol="197" pos="2340"/>
          <note pan="0" key="15" len="24" vol="197" pos="2352"/>
          <note pan="0" key="15" len="24" vol="197" pos="2376"/>
          <note pan="0" key="15" len="12" vol="197" pos="2400"/>
          <note pan="0" key="15" len="12" vol="197" pos="2412"/>
          <note pan="0" key="15" len="24" vol="197" pos="2424"/>
          <note pan="0" key="15" len="24" vol="197" pos="2448"/>
          <note pan="0" key="15" len="12" vol="197" pos="2472"/>
          <note pan="0" key="15" len="12" vol="197" pos="2484"/>
          <note pan="0" key="15" len="24" vol="197" pos="2496"/>
          <note pan="0" key="15" len="24" vol="197" pos="2520"/>
          <note pan="0" key="15" len="12" vol="197" pos="2544"/>
          <note pan="0" key="15" len="12" vol="197" pos="2556"/>
          <note pan="0" key="15" len="24" vol="197" pos="2568"/>
          <note pan="0" key="15" len="24" vol="197" pos="2592"/>
          <note pan="0" key="15" len="24" vol="197" pos="2616"/>
          <note pan="0" key="15" len="12" vol="197" pos="2640"/>
          <note pan="0" key="15" len="12" vol="197" pos="2652"/>
          <note pan="0" key="15" len="24" vol="197" pos="2664"/>
          <note pan="0" key="20" len="24" vol="197" pos="2688"/>
          <note pan="0" key="20" len="12" vol="197" pos="2712"/>
          <note pan="0" key="20" len="12" vol="197" pos="2724"/>
          <note pan="0" key="20" len="24" vol="197" pos="2736"/>
          <note pan="0" key="20" len="24" vol="197" pos="2760"/>
          <note pan="0" key="20" len="12" vol="197" pos="2784"/>
          <note pan="0" key="20" len="12" vol="197" pos="2796"/>
          <note pan="0" key="20" len="24" vol="197" pos="2808"/>
          <note pan="0" key="20" len="24" vol="197" pos="2832"/>
          <note pan="0" key="20" len="12" vol="197" pos="2856"/>
          <note pan="0" key="20" len="12" vol="197" pos="2868"/>
          <note pan="0" key="20" len="48" vol="197" pos="2880"/>
          <note pan="0" key="20" len="48" vol="197" pos="2928"/>
          <note pan="0" key="20" len="48" vol="197" pos="2976"/>
          <note pan="0" key="20" len="48" vol="197" pos="3024"/>
        </pattern>
        <pattern steps="16" muted="0" pos="13824" name="" type="1">
          <note pan="0" key="23" len="24" vol="197" pos="0"/>
          <note pan="0" key="20" len="12" vol="197" pos="24"/>
          <note pan="0" key="20" len="12" vol="197" pos="36"/>
          <note pan="0" key="20" len="12" vol="197" pos="48"/>
          <note pan="0" key="20" len="12" vol="197" pos="60"/>
          <note pan="0" key="20" len="48" vol="197" pos="72"/>
          <note pan="0" key="20" len="24" vol="197" pos="120"/>
          <note pan="0" key="20" len="24" vol="197" pos="144"/>
          <note pan="0" key="20" len="24" vol="197" pos="168"/>
        </pattern>
        <pattern steps="16" muted="0" pos="14016" name="" type="1">
          <note pan="0" key="21" len="12" vol="197" pos="0"/>
          <note pan="0" key="21" len="12" vol="197" pos="12"/>
          <note pan="0" key="21" len="12" vol="197" pos="24"/>
          <note pan="0" key="21" len="12" vol="197" pos="36"/>
          <note pan="0" key="25" len="12" vol="197" pos="48"/>
          <note pan="0" key="25" len="12" vol="197" pos="60"/>
          <note pan="0" key="21" len="12" vol="197" pos="72"/>
          <note pan="0" key="21" len="12" vol="197" pos="84"/>
          <note pan="0" key="23" len="12" vol="197" pos="96"/>
          <note pan="0" key="23" len="12" vol="197" pos="108"/>
          <note pan="0" key="23" len="12" vol="197" pos="120"/>
          <note pan="0" key="23" len="12" vol="197" pos="132"/>
          <note pan="0" key="28" len="12" vol="197" pos="144"/>
          <note pan="0" key="27" len="12" vol="197" pos="156"/>
          <note pan="0" key="25" len="12" vol="197" pos="168"/>
          <note pan="0" key="23" len="12" vol="197" pos="180"/>
        </pattern>
        <pattern steps="16" muted="0" pos="14208" name="" type="1">
          <note pan="0" key="14" len="12" vol="200" pos="0"/>
          <note pan="0" key="14" len="12" vol="200" pos="12"/>
          <note pan="0" key="14" len="24" vol="200" pos="24"/>
          <note pan="0" key="14" len="12" vol="200" pos="48"/>
          <note pan="0" key="14" len="12" vol="200" pos="60"/>
          <note pan="0" key="14" len="24" vol="200" pos="72"/>
          <note pan="0" key="14" len="12" vol="200" pos="96"/>
          <note pan="0" key="14" len="12" vol="200" pos="108"/>
          <note pan="0" key="14" len="24" vol="200" pos="120"/>
          <note pan="0" key="14" len="12" vol="200" pos="144"/>
          <note pan="0" key="14" len="12" vol="200" pos="156"/>
          <note pan="0" key="14" len="24" vol="200" pos="168"/>
          <note pan="0" key="14" len="12" vol="200" pos="192"/>
          <note pan="0" key="14" len="12" vol="200" pos="204"/>
          <note pan="0" key="14" len="24" vol="200" pos="216"/>
          <note pan="0" key="14" len="12" vol="200" pos="240"/>
          <note pan="0" key="14" len="12" vol="200" pos="252"/>
          <note pan="0" key="14" len="24" vol="200" pos="264"/>
          <note pan="0" key="14" len="12" vol="200" pos="288"/>
          <note pan="0" key="14" len="12" vol="200" pos="300"/>
          <note pan="0" key="14" len="24" vol="200" pos="312"/>
          <note pan="0" key="14" len="12" vol="200" pos="336"/>
          <note pan="0" key="14" len="12" vol="200" pos="348"/>
          <note pan="0" key="14" len="24" vol="200" pos="360"/>
          <note pan="0" key="13" len="12" vol="200" pos="384"/>
          <note pan="0" key="13" len="12" vol="200" pos="396"/>
          <note pan="0" key="13" len="24" vol="200" pos="408"/>
          <note pan="0" key="13" len="12" vol="200" pos="432"/>
          <note pan="0" key="13" len="12" vol="200" pos="444"/>
          <note pan="0" key="13" len="24" vol="200" pos="456"/>
          <note pan="0" key="13" len="12" vol="200" pos="480"/>
          <note pan="0" key="13" len="12" vol="200" pos="492"/>
          <note pan="0" key="13" len="24" vol="200" pos="504"/>
          <note pan="0" key="13" len="12" vol="200" pos="528"/>
          <note pan="0" key="13" len="12" vol="200" pos="540"/>
          <note pan="0" key="13" len="24" vol="200" pos="552"/>
          <note pan="0" key="11" len="12" vol="200" pos="576"/>
          <note pan="0" key="11" len="12" vol="200" pos="588"/>
          <note pan="0" key="11" len="24" vol="200" pos="600"/>
          <note pan="0" key="11" len="12" vol="200" pos="624"/>
          <note pan="0" key="11" len="12" vol="200" pos="636"/>
          <note pan="0" key="11" len="24" vol="200" pos="648"/>
          <note pan="0" key="11" len="12" vol="200" pos="672"/>
          <note pan="0" key="11" len="12" vol="200" pos="684"/>
          <note pan="0" key="11" len="24" vol="200" pos="696"/>
          <note pan="0" key="11" len="12" vol="200" pos="720"/>
          <note pan="0" key="11" len="12" vol="200" pos="732"/>
          <note pan="0" key="11" len="24" vol="200" pos="744"/>
        </pattern>
        <pattern steps="16" muted="0" pos="14976" name="" type="1">
          <note pan="0" key="16" len="24" vol="197" pos="0"/>
          <note pan="0" key="18" len="24" vol="197" pos="24"/>
          <note pan="0" key="18" len="12" vol="197" pos="48"/>
          <note pan="0" key="18" len="12" vol="197" pos="60"/>
          <note pan="0" key="23" len="24" vol="197" pos="72"/>
          <note pan="0" key="25" len="24" vol="197" pos="96"/>
          <note pan="0" key="18" len="24" vol="197" pos="120"/>
          <note pan="0" key="16" len="24" vol="197" pos="144"/>
          <note pan="0" key="18" len="24" vol="197" pos="168"/>
        </pattern>
        <pattern steps="16" muted="0" pos="15168" name="" type="1">
          <note pan="0" key="16" len="24" vol="197" pos="0"/>
          <note pan="0" key="18" len="24" vol="197" pos="24"/>
          <note pan="0" key="18" len="12" vol="197" pos="48"/>
          <note pan="0" key="18" len="12" vol="197" pos="60"/>
          <note pan="0" key="23" len="24" vol="197" pos="72"/>
          <note pan="0" key="25" len="24" vol="197" pos="96"/>
          <note pan="0" key="18" len="24" vol="197" pos="120"/>
          <note pan="0" key="16" len="24" vol="197" pos="144"/>
          <note pan="0" key="18" len="24" vol="197" pos="168"/>
        </pattern>
        <pattern steps="16" muted="0" pos="15360" name="" type="1">
          <note pan="0" key="15" len="24" vol="197" pos="0"/>
          <note pan="0" key="15" len="12" vol="197" pos="24"/>
          <note pan="0" key="15" len="12" vol="197" pos="36"/>
          <note pan="0" key="15" len="12" vol="197" pos="48"/>
          <note pan="0" key="15" len="12" vol="197" pos="60"/>
          <note pan="0" key="15" len="12" vol="197" pos="72"/>
          <note pan="0" key="15" len="12" vol="197" pos="84"/>
          <note pan="0" key="15" len="12" vol="197" pos="96"/>
          <note pan="0" key="15" len="12" vol="197" pos="108"/>
          <note pan="0" key="15" len="12" vol="197" pos="120"/>
          <note pan="0" key="15" len="12" vol="197" pos="132"/>
          <note pan="0" key="15" len="12" vol="197" pos="144"/>
          <note pan="0" key="15" len="12" vol="197" pos="156"/>
          <note pan="0" key="15" len="12" vol="197" pos="168"/>
          <note pan="0" key="15" len="12" vol="197" pos="180"/>
          <note pan="0" key="21" len="96" vol="197" pos="192"/>
          <note pan="0" key="20" len="96" vol="197" pos="288"/>
        </pattern>
        <pattern steps="16" muted="0" pos="28800" name="" type="1">
          <note pan="0" key="25" len="48" vol="200" pos="0"/>
          <note pan="0" key="13" len="24" vol="200" pos="48"/>
          <note pan="0" key="13" len="12" vol="200" pos="72"/>
          <note pan="0" key="13" len="12" vol="200" pos="84"/>
          <note pan="0" key="13" len="12" vol="200" pos="96"/>
          <note pan="0" key="13" len="12" vol="200" pos="108"/>
          <note pan="0" key="13" len="24" vol="200" pos="120"/>
          <note pan="0" key="13" len="12" vol="200" pos="144"/>
          <note pan="0" key="13" len="12" vol="200" pos="156"/>
          <note pan="0" key="13" len="12" vol="200" pos="168"/>
          <note pan="0" key="13" len="12" vol="200" pos="180"/>
          <note pan="0" key="13" len="24" vol="200" pos="192"/>
          <note pan="0" key="13" len="12" vol="200" pos="216"/>
          <note pan="0" key="13" len="12" vol="200" pos="228"/>
          <note pan="0" key="13" len="12" vol="200" pos="240"/>
          <note pan="0" key="13" len="12" vol="200" pos="252"/>
          <note pan="0" key="13" len="24" vol="200" pos="264"/>
          <note pan="0" key="13" len="12" vol="200" pos="288"/>
          <note pan="0" key="13" len="12" vol="200" pos="300"/>
          <note pan="0" key="13" len="24" vol="200" pos="312"/>
          <note pan="0" key="13" len="12" vol="200" pos="336"/>
          <note pan="0" key="13" len="12" vol="200" pos="348"/>
          <note pan="0" key="13" len="12" vol="200" pos="360"/>
          <note pan="0" key="13" len="12" vol="200" pos="372"/>
          <note pan="0" key="13" len="48" vol="200" pos="384"/>
          <note pan="0" key="13" len="24" vol="200" pos="432"/>
          <note pan="0" key="13" len="12" vol="200" pos="456"/>
          <note pan="0" key="13" len="12" vol="200" pos="468"/>
          <note pan="0" key="13" len="12" vol="200" pos="480"/>
          <note pan="0" key="13" len="12" vol="200" pos="492"/>
          <note pan="0" key="13" len="24" vol="200" pos="504"/>
          <note pan="0" key="13" len="12" vol="200" pos="528"/>
          <note pan="0" key="13" len="12" vol="200" pos="540"/>
          <note pan="0" key="13" len="12" vol="200" pos="552"/>
          <note pan="0" key="13" len="12" vol="200" pos="564"/>
          <note pan="0" key="13" len="24" vol="200" pos="576"/>
          <note pan="0" key="13" len="12" vol="200" pos="600"/>
          <note pan="0" key="13" len="12" vol="200" pos="612"/>
          <note pan="0" key="13" len="12" vol="200" pos="624"/>
          <note pan="0" key="13" len="12" vol="200" pos="636"/>
          <note pan="0" key="13" len="24" vol="200" pos="648"/>
          <note pan="0" key="13" len="12" vol="200" pos="672"/>
          <note pan="0" key="13" len="12" vol="200" pos="684"/>
          <note pan="0" key="16" len="24" vol="200" pos="696"/>
          <note pan="0" key="18" len="24" vol="200" pos="720"/>
          <note pan="0" key="20" len="24" vol="200" pos="744"/>
        </pattern>
        <pattern steps="16" muted="0" pos="29568" name="" type="1">
          <note pan="0" key="25" len="48" vol="200" pos="0"/>
          <note pan="0" key="13" len="24" vol="200" pos="48"/>
          <note pan="0" key="13" len="12" vol="200" pos="72"/>
          <note pan="0" key="13" len="12" vol="200" pos="84"/>
          <note pan="0" key="13" len="12" vol="200" pos="96"/>
          <note pan="0" key="13" len="12" vol="200" pos="108"/>
          <note pan="0" key="13" len="24" vol="200" pos="120"/>
          <note pan="0" key="13" len="12" vol="200" pos="144"/>
          <note pan="0" key="13" len="12" vol="200" pos="156"/>
          <note pan="0" key="13" len="12" vol="200" pos="168"/>
          <note pan="0" key="13" len="12" vol="200" pos="180"/>
          <note pan="0" key="13" len="24" vol="200" pos="192"/>
          <note pan="0" key="13" len="12" vol="200" pos="216"/>
          <note pan="0" key="13" len="12" vol="200" pos="228"/>
          <note pan="0" key="13" len="12" vol="200" pos="240"/>
          <note pan="0" key="13" len="12" vol="200" pos="252"/>
          <note pan="0" key="13" len="24" vol="200" pos="264"/>
          <note pan="0" key="13" len="12" vol="200" pos="288"/>
          <note pan="0" key="13" len="12" vol="200" pos="300"/>
          <note pan="0" key="13" len="24" vol="200" pos="312"/>
          <note pan="0" key="13" len="12" vol="200" pos="336"/>
          <note pan="0" key="13" len="12" vol="200" pos="348"/>
          <note pan="0" key="13" len="12" vol="200" pos="360"/>
          <note pan="0" key="13" len="12" vol="200" pos="372"/>
          <note pan="0" key="13" len="48" vol="200" pos="384"/>
          <note pan="0" key="13" len="24" vol="200" pos="432"/>
          <note pan="0" key="13" len="12" vol="200" pos="456"/>
          <note pan="0" key="13" len="12" vol="200" pos="468"/>
          <note pan="0" key="13" len="12" vol="200" pos="480"/>
          <note pan="0" key="13" len="12" vol="200" pos="492"/>
          <note pan="0" key="13" len="24" vol="200" pos="504"/>
          <note pan="0" key="13" len="12" vol="200" pos="528"/>
          <note pan="0" key="13" len="12" vol="200" pos="540"/>
          <note pan="0" key="13" len="12" vol="200" pos="552"/>
          <note pan="0" key="13" len="12" vol="200" pos="564"/>
          <note pan="0" key="13" len="24" vol="200" pos="576"/>
          <note pan="0" key="13" len="12" vol="200" pos="600"/>
          <note pan="0" key="13" len="12" vol="200" pos="612"/>
          <note pan="0" key="13" len="12" vol="200" pos="624"/>
          <note pan="0" key="13" len="12" vol="200" pos="636"/>
          <note pan="0" key="13" len="24" vol="200" pos="648"/>
          <note pan="0" key="13" len="12" vol="200" pos="672"/>
          <note pan="0" key="13" len="12" vol="200" pos="684"/>
          <note pan="0" key="16" len="24" vol="200" pos="696"/>
          <note pan="0" key="18" len="24" vol="200" pos="720"/>
          <note pan="0" key="20" len="24" vol="200" pos="744"/>
        </pattern>
        <pattern steps="16" muted="0" pos="30336" name="" type="1">
          <note pan="0" key="26" len="48" vol="200" pos="0"/>
          <note pan="0" key="0" len="24" vol="200" pos="0"/>
          <note pan="0" key="14" len="24" vol="200" pos="48"/>
          <note pan="0" key="1" len="24" vol="200" pos="60"/>
          <note pan="0" key="14" len="12" vol="200" pos="72"/>
          <note pan="0" key="14" len="12" vol="200" pos="84"/>
          <note pan="0" key="14" len="12" vol="200" pos="96"/>
          <note pan="0" key="14" len="12" vol="200" pos="108"/>
          <note pan="0" key="14" len="24" vol="200" pos="120"/>
          <note pan="0" key="0" len="24" vol="200" pos="120"/>
          <note pan="0" key="1" len="24" vol="200" pos="132"/>
          <note pan="0" key="14" len="12" vol="200" pos="144"/>
          <note pan="0" key="14" len="12" vol="200" pos="156"/>
          <note pan="0" key="14" len="12" vol="200" pos="168"/>
          <note pan="0" key="14" len="12" vol="200" pos="180"/>
          <note pan="0" key="14" len="24" vol="200" pos="192"/>
          <note pan="0" key="0" len="24" vol="200" pos="192"/>
          <note pan="0" key="1" len="24" vol="200" pos="204"/>
          <note pan="0" key="14" len="12" vol="200" pos="216"/>
          <note pan="0" key="14" len="12" vol="200" pos="228"/>
          <note pan="0" key="14" len="12" vol="200" pos="240"/>
          <note pan="0" key="14" len="12" vol="200" pos="252"/>
          <note pan="0" key="14" len="24" vol="200" pos="264"/>
          <note pan="0" key="0" len="24" vol="200" pos="264"/>
          <note pan="0" key="1" len="24" vol="200" pos="276"/>
          <note pan="0" key="14" len="12" vol="200" pos="288"/>
          <note pan="0" key="14" len="12" vol="200" pos="300"/>
          <note pan="0" key="14" len="24" vol="200" pos="312"/>
          <note pan="0" key="0" len="24" vol="200" pos="312"/>
          <note pan="0" key="1" len="24" vol="200" pos="324"/>
          <note pan="0" key="14" len="12" vol="200" pos="336"/>
          <note pan="0" key="14" len="12" vol="200" pos="348"/>
          <note pan="0" key="14" len="12" vol="200" pos="360"/>
          <note pan="0" key="14" len="12" vol="200" pos="372"/>
          <note pan="0" key="14" len="48" vol="200" pos="384"/>
          <note pan="0" key="0" len="24" vol="200" pos="384"/>
          <note pan="0" key="14" len="24" vol="200" pos="432"/>
          <note pan="0" key="1" len="24" vol="200" pos="444"/>
          <note pan="0" key="14" len="12" vol="200" pos="456"/>
          <note pan="0" key="14" len="12" vol="200" pos="468"/>
          <note pan="0" key="14" len="12" vol="200" pos="480"/>
          <note pan="0" key="14" len="12" vol="200" pos="492"/>
          <note pan="0" key="14" len="24" vol="200" pos="504"/>
          <note pan="0" key="0" len="24" vol="200" pos="504"/>
          <note pan="0" key="1" len="24" vol="200" pos="516"/>
          <note pan="0" key="14" len="12" vol="200" pos="528"/>
          <note pan="0" key="14" len="12" vol="200" pos="540"/>
          <note pan="0" key="14" len="12" vol="200" pos="552"/>
          <note pan="0" key="14" len="12" vol="200" pos="564"/>
          <note pan="0" key="14" len="24" vol="200" pos="576"/>
          <note pan="0" key="0" len="24" vol="200" pos="576"/>
          <note pan="0" key="1" len="24" vol="200" pos="588"/>
          <note pan="0" key="14" len="12" vol="200" pos="600"/>
          <note pan="0" key="14" len="12" vol="200" pos="612"/>
          <note pan="0" key="14" len="12" vol="200" pos="624"/>
          <note pan="0" key="14" len="12" vol="200" pos="636"/>
          <note pan="0" key="14" len="24" vol="200" pos="648"/>
          <note pan="0" key="0" len="24" vol="200" pos="648"/>
          <note pan="0" key="1" len="24" vol="200" pos="660"/>
          <note pan="0" key="14" len="12" vol="200" pos="672"/>
          <note pan="0" key="14" len="12" vol="200" pos="684"/>
          <note pan="0" key="21" len="24" vol="200" pos="696"/>
          <note pan="0" key="20" len="24" vol="200" pos="720"/>
          <note pan="0" key="16" len="24" vol="200" pos="744"/>
        </pattern>
        <pattern steps="16" muted="0" pos="31104" name="" type="1">
          <note pan="0" key="25" len="48" vol="200" pos="0"/>
          <note pan="0" key="13" len="24" vol="200" pos="48"/>
          <note pan="0" key="13" len="12" vol="200" pos="72"/>
          <note pan="0" key="13" len="12" vol="200" pos="84"/>
          <note pan="0" key="13" len="12" vol="200" pos="96"/>
          <note pan="0" key="13" len="12" vol="200" pos="108"/>
          <note pan="0" key="13" len="24" vol="200" pos="120"/>
          <note pan="0" key="13" len="12" vol="200" pos="144"/>
          <note pan="0" key="13" len="12" vol="200" pos="156"/>
          <note pan="0" key="13" len="12" vol="200" pos="168"/>
          <note pan="0" key="13" len="12" vol="200" pos="180"/>
          <note pan="0" key="13" len="24" vol="200" pos="192"/>
          <note pan="0" key="13" len="12" vol="200" pos="216"/>
          <note pan="0" key="13" len="12" vol="200" pos="228"/>
          <note pan="0" key="13" len="12" vol="200" pos="240"/>
          <note pan="0" key="13" len="12" vol="200" pos="252"/>
          <note pan="0" key="13" len="24" vol="200" pos="264"/>
          <note pan="0" key="13" len="12" vol="200" pos="288"/>
          <note pan="0" key="13" len="12" vol="200" pos="300"/>
          <note pan="0" key="13" len="24" vol="200" pos="312"/>
          <note pan="0" key="13" len="12" vol="200" pos="336"/>
          <note pan="0" key="13" len="12" vol="200" pos="348"/>
          <note pan="0" key="13" len="12" vol="200" pos="360"/>
          <note pan="0" key="13" len="12" vol="200" pos="372"/>
          <note pan="0" key="11" len="48" vol="200" pos="384"/>
          <note pan="0" key="11" len="24" vol="200" pos="432"/>
          <note pan="0" key="11" len="12" vol="200" pos="456"/>
          <note pan="0" key="11" len="12" vol="200" pos="468"/>
          <note pan="0" key="11" len="12" vol="200" pos="480"/>
          <note pan="0" key="11" len="12" vol="200" pos="492"/>
          <note pan="0" key="11" len="24" vol="200" pos="504"/>
          <note pan="0" key="11" len="12" vol="200" pos="528"/>
          <note pan="0" key="11" len="12" vol="200" pos="540"/>
          <note pan="0" key="11" len="12" vol="200" pos="552"/>
          <note pan="0" key="11" len="12" vol="200" pos="564"/>
          <note pan="0" key="11" len="24" vol="200" pos="576"/>
          <note pan="0" key="11" len="12" vol="200" pos="600"/>
          <note pan="0" key="11" len="12" vol="200" pos="612"/>
          <note pan="0" key="11" len="12" vol="200" pos="624"/>
          <note pan="0" key="11" len="12" vol="200" pos="636"/>
          <note pan="0" key="11" len="24" vol="200" pos="648"/>
          <note pan="0" key="11" len="12" vol="200" pos="672"/>
          <note pan="0" key="11" len="12" vol="200" pos="684"/>
          <note pan="0" key="15" len="24" vol="200" pos="696"/>
          <note pan="0" key="16" len="24" vol="200" pos="720"/>
          <note pan="0" key="18" len="24" vol="200" pos="744"/>
        </pattern>
        <pattern steps="16" muted="0" pos="31872" name="" type="1">
          <note pan="0" key="9" len="48" vol="200" pos="0"/>
          <note pan="0" key="9" len="24" vol="200" pos="48"/>
          <note pan="0" key="9" len="12" vol="200" pos="72"/>
          <note pan="0" key="9" len="12" vol="200" pos="84"/>
          <note pan="0" key="9" len="12" vol="200" pos="96"/>
          <note pan="0" key="9" len="12" vol="200" pos="108"/>
          <note pan="0" key="9" len="24" vol="200" pos="120"/>
          <note pan="0" key="9" len="12" vol="200" pos="144"/>
          <note pan="0" key="9" len="12" vol="200" pos="156"/>
          <note pan="0" key="9" len="12" vol="200" pos="168"/>
          <note pan="0" key="9" len="12" vol="200" pos="180"/>
          <note pan="0" key="9" len="24" vol="200" pos="192"/>
          <note pan="0" key="9" len="12" vol="200" pos="216"/>
          <note pan="0" key="9" len="12" vol="200" pos="228"/>
          <note pan="0" key="9" len="12" vol="200" pos="240"/>
          <note pan="0" key="9" len="12" vol="200" pos="252"/>
          <note pan="0" key="9" len="24" vol="200" pos="264"/>
          <note pan="0" key="9" len="12" vol="200" pos="288"/>
          <note pan="0" key="9" len="12" vol="200" pos="300"/>
          <note pan="0" key="9" len="24" vol="200" pos="312"/>
          <note pan="0" key="9" len="12" vol="200" pos="336"/>
          <note pan="0" key="9" len="12" vol="200" pos="348"/>
          <note pan="0" key="9" len="12" vol="200" pos="360"/>
          <note pan="0" key="9" len="12" vol="200" pos="372"/>
          <note pan="0" key="11" len="48" vol="200" pos="384"/>
          <note pan="0" key="11" len="24" vol="200" pos="432"/>
          <note pan="0" key="11" len="12" vol="200" pos="456"/>
          <note pan="0" key="11" len="12" vol="200" pos="468"/>
          <note pan="0" key="11" len="12" vol="200" pos="480"/>
          <note pan="0" key="11" len="12" vol="200" pos="492"/>
          <note pan="0" key="11" len="24" vol="200" pos="504"/>
          <note pan="0" key="11" len="12" vol="200" pos="528"/>
          <note pan="0" key="11" len="12" vol="200" pos="540"/>
          <note pan="0" key="11" len="12" vol="200" pos="552"/>
          <note pan="0" key="11" len="12" vol="200" pos="564"/>
          <note pan="0" key="11" len="24" vol="200" pos="576"/>
          <note pan="0" key="11" len="12" vol="200" pos="600"/>
          <note pan="0" key="11" len="12" vol="200" pos="612"/>
          <note pan="0" key="11" len="12" vol="200" pos="624"/>
          <note pan="0" key="11" len="12" vol="200" pos="636"/>
          <note pan="0" key="11" len="24" vol="200" pos="648"/>
          <note pan="0" key="11" len="12" vol="200" pos="672"/>
          <note pan="0" key="11" len="12" vol="200" pos="684"/>
          <note pan="0" key="11" len="24" vol="200" pos="696"/>
          <note pan="0" key="11" len="12" vol="200" pos="720"/>
          <note pan="0" key="11" len="12" vol="200" pos="732"/>
          <note pan="0" key="11" len="12" vol="200" pos="744"/>
          <note pan="0" key="11" len="12" vol="200" pos="756"/>
        </pattern>
        <pattern steps="16" muted="0" pos="32640" name="" type="1">
          <note pan="0" key="18" len="48" vol="200" pos="0"/>
          <note pan="0" key="18" len="24" vol="200" pos="48"/>
          <note pan="0" key="18" len="12" vol="200" pos="72"/>
          <note pan="0" key="18" len="12" vol="200" pos="84"/>
          <note pan="0" key="18" len="12" vol="200" pos="96"/>
          <note pan="0" key="18" len="12" vol="200" pos="108"/>
          <note pan="0" key="18" len="24" vol="200" pos="120"/>
          <note pan="0" key="18" len="12" vol="200" pos="144"/>
          <note pan="0" key="18" len="12" vol="200" pos="156"/>
          <note pan="0" key="18" len="12" vol="200" pos="168"/>
          <note pan="0" key="18" len="12" vol="200" pos="180"/>
          <note pan="0" key="18" len="24" vol="200" pos="192"/>
          <note pan="0" key="18" len="12" vol="200" pos="216"/>
          <note pan="0" key="18" len="12" vol="200" pos="228"/>
          <note pan="0" key="18" len="12" vol="200" pos="240"/>
          <note pan="0" key="18" len="12" vol="200" pos="252"/>
          <note pan="0" key="18" len="24" vol="200" pos="264"/>
          <note pan="0" key="18" len="12" vol="200" pos="288"/>
          <note pan="0" key="18" len="12" vol="200" pos="300"/>
          <note pan="0" key="18" len="24" vol="200" pos="312"/>
          <note pan="0" key="18" len="12" vol="200" pos="336"/>
          <note pan="0" key="18" len="12" vol="200" pos="348"/>
          <note pan="0" key="18" len="12" vol="200" pos="360"/>
          <note pan="0" key="18" len="12" vol="200" pos="372"/>
          <note pan="0" key="8" len="48" vol="200" pos="384"/>
          <note pan="0" key="8" len="24" vol="200" pos="432"/>
          <note pan="0" key="8" len="12" vol="200" pos="456"/>
          <note pan="0" key="8" len="12" vol="200" pos="468"/>
          <note pan="0" key="8" len="12" vol="200" pos="480"/>
          <note pan="0" key="8" len="12" vol="200" pos="492"/>
          <note pan="0" key="8" len="24" vol="200" pos="504"/>
          <note pan="0" key="8" len="12" vol="200" pos="528"/>
          <note pan="0" key="8" len="12" vol="200" pos="540"/>
          <note pan="0" key="8" len="12" vol="200" pos="552"/>
          <note pan="0" key="8" len="12" vol="200" pos="564"/>
          <note pan="0" key="8" len="24" vol="200" pos="576"/>
          <note pan="0" key="8" len="12" vol="200" pos="600"/>
          <note pan="0" key="8" len="12" vol="200" pos="612"/>
          <note pan="0" key="8" len="12" vol="200" pos="624"/>
          <note pan="0" key="8" len="12" vol="200" pos="636"/>
          <note pan="0" key="8" len="24" vol="200" pos="648"/>
          <note pan="0" key="8" len="12" vol="200" pos="672"/>
          <note pan="0" key="8" len="12" vol="200" pos="684"/>
          <note pan="0" key="8" len="24" vol="200" pos="696"/>
          <note pan="0" key="8" len="12" vol="200" pos="720"/>
          <note pan="0" key="8" len="12" vol="200" pos="732"/>
          <note pan="0" key="8" len="12" vol="200" pos="744"/>
          <note pan="0" key="8" len="12" vol="200" pos="756"/>
        </pattern>
        <pattern steps="16" muted="0" pos="33408" name="" type="1">
          <note pan="0" key="15" len="48" vol="200" pos="0"/>
          <note pan="0" key="15" len="24" vol="200" pos="48"/>
          <note pan="0" key="15" len="12" vol="200" pos="72"/>
          <note pan="0" key="15" len="12" vol="200" pos="84"/>
          <note pan="0" key="15" len="12" vol="200" pos="96"/>
          <note pan="0" key="15" len="12" vol="200" pos="108"/>
          <note pan="0" key="15" len="24" vol="200" pos="120"/>
          <note pan="0" key="15" len="12" vol="200" pos="144"/>
          <note pan="0" key="15" len="12" vol="200" pos="156"/>
          <note pan="0" key="15" len="12" vol="200" pos="168"/>
          <note pan="0" key="15" len="12" vol="200" pos="180"/>
          <note pan="0" key="15" len="24" vol="200" pos="192"/>
          <note pan="0" key="15" len="12" vol="200" pos="216"/>
          <note pan="0" key="15" len="12" vol="200" pos="228"/>
          <note pan="0" key="15" len="12" vol="200" pos="240"/>
          <note pan="0" key="15" len="12" vol="200" pos="252"/>
          <note pan="0" key="15" len="24" vol="200" pos="264"/>
          <note pan="0" key="15" len="12" vol="200" pos="288"/>
          <note pan="0" key="15" len="12" vol="200" pos="300"/>
          <note pan="0" key="15" len="24" vol="200" pos="312"/>
          <note pan="0" key="15" len="12" vol="200" pos="336"/>
          <note pan="0" key="15" len="12" vol="200" pos="348"/>
          <note pan="0" key="15" len="12" vol="200" pos="360"/>
          <note pan="0" key="15" len="12" vol="200" pos="372"/>
          <note pan="0" key="14" len="48" vol="200" pos="384"/>
          <note pan="0" key="14" len="24" vol="200" pos="432"/>
          <note pan="0" key="14" len="12" vol="200" pos="456"/>
          <note pan="0" key="14" len="12" vol="200" pos="468"/>
          <note pan="0" key="14" len="12" vol="200" pos="480"/>
          <note pan="0" key="14" len="12" vol="200" pos="492"/>
          <note pan="0" key="14" len="24" vol="200" pos="504"/>
          <note pan="0" key="14" len="12" vol="200" pos="528"/>
          <note pan="0" key="14" len="12" vol="200" pos="540"/>
          <note pan="0" key="14" len="12" vol="200" pos="552"/>
          <note pan="0" key="14" len="12" vol="200" pos="564"/>
          <note pan="0" key="14" len="24" vol="200" pos="576"/>
          <note pan="0" key="14" len="12" vol="200" pos="600"/>
          <note pan="0" key="14" len="12" vol="200" pos="612"/>
          <note pan="0" key="14" len="12" vol="200" pos="624"/>
          <note pan="0" key="14" len="12" vol="200" pos="636"/>
          <note pan="0" key="14" len="24" vol="200" pos="648"/>
          <note pan="0" key="14" len="12" vol="200" pos="672"/>
          <note pan="0" key="14" len="12" vol="200" pos="684"/>
          <note pan="0" key="14" len="24" vol="200" pos="696"/>
          <note pan="0" key="14" len="12" vol="200" pos="720"/>
          <note pan="0" key="14" len="12" vol="200" pos="732"/>
          <note pan="0" key="14" len="12" vol="200" pos="744"/>
          <note pan="0" key="14" len="12" vol="200" pos="756"/>
        </pattern>
        <pattern steps="16" muted="0" pos="34176" name="" type="1">
          <note pan="0" key="19" len="48" vol="200" pos="0"/>
          <note pan="0" key="0" len="24" vol="200" pos="0"/>
          <note pan="0" key="19" len="24" vol="200" pos="48"/>
          <note pan="0" key="1" len="24" vol="200" pos="60"/>
          <note pan="0" key="19" len="12" vol="200" pos="72"/>
          <note pan="0" key="19" len="12" vol="200" pos="84"/>
          <note pan="0" key="19" len="12" vol="200" pos="96"/>
          <note pan="0" key="19" len="12" vol="200" pos="108"/>
          <note pan="0" key="19" len="24" vol="200" pos="120"/>
          <note pan="0" key="0" len="24" vol="200" pos="120"/>
          <note pan="0" key="1" len="24" vol="200" pos="132"/>
          <note pan="0" key="19" len="12" vol="200" pos="144"/>
          <note pan="0" key="19" len="12" vol="200" pos="156"/>
          <note pan="0" key="19" len="12" vol="200" pos="168"/>
          <note pan="0" key="19" len="12" vol="200" pos="180"/>
          <note pan="0" key="19" len="24" vol="200" pos="192"/>
          <note pan="0" key="0" len="24" vol="200" pos="192"/>
          <note pan="0" key="1" len="24" vol="200" pos="204"/>
          <note pan="0" key="19" len="12" vol="200" pos="216"/>
          <note pan="0" key="19" len="12" vol="200" pos="228"/>
          <note pan="0" key="19" len="12" vol="200" pos="240"/>
          <note pan="0" key="19" len="12" vol="200" pos="252"/>
          <note pan="0" key="19" len="24" vol="200" pos="264"/>
          <note pan="0" key="0" len="24" vol="200" pos="264"/>
          <note pan="0" key="1" len="24" vol="200" pos="276"/>
          <note pan="0" key="19" len="12" vol="200" pos="288"/>
          <note pan="0" key="19" len="12" vol="200" pos="300"/>
          <note pan="0" key="19" len="24" vol="200" pos="312"/>
          <note pan="0" key="0" len="24" vol="200" pos="312"/>
          <note pan="0" key="1" len="24" vol="200" pos="324"/>
          <note pan="0" key="19" len="12" vol="200" pos="336"/>
          <note pan="0" key="19" len="12" vol="200" pos="348"/>
          <note pan="0" key="19" len="12" vol="200" pos="360"/>
          <note pan="0" key="19" len="12" vol="200" pos="372"/>
          <note pan="0" key="20" len="48" vol="200" pos="384"/>
          <note pan="0" key="0" len="24" vol="200" pos="384"/>
          <note pan="0" key="8" len="24" vol="200" pos="432"/>
          <note pan="0" key="1" len="24" vol="200" pos="444"/>
          <note pan="0" key="8" len="12" vol="200" pos="456"/>
          <note pan="0" key="8" len="12" vol="200" pos="468"/>
          <note pan="0" key="8" len="12" vol="200" pos="480"/>
          <note pan="0" key="8" len="12" vol="200" pos="492"/>
          <note pan="0" key="8" len="24" vol="200" pos="504"/>
          <note pan="0" key="0" len="24" vol="200" pos="504"/>
          <note pan="0" key="1" len="24" vol="200" pos="516"/>
          <note pan="0" key="8" len="12" vol="200" pos="528"/>
          <note pan="0" key="8" len="12" vol="200" pos="540"/>
          <note pan="0" key="8" len="12" vol="200" pos="552"/>
          <note pan="0" key="8" len="12" vol="200" pos="564"/>
          <note pan="0" key="8" len="192" vol="200" pos="576"/>
          <note pan="0" key="0" len="24" vol="200" pos="576"/>
        </pattern>
        <pattern steps="16" muted="0" pos="34944" name="" type="1">
          <note pan="0" key="13" len="192" vol="197" pos="0"/>
          <note pan="0" key="0" len="48" vol="78" pos="0"/>
          <note pan="0" key="20" len="192" vol="197" pos="192"/>
          <note pan="0" key="21" len="192" vol="197" pos="384"/>
          <note pan="0" key="23" len="192" vol="197" pos="576"/>
          <note pan="0" key="1" len="12" vol="197" pos="756"/>
          <note pan="0" key="18" len="12" vol="197" pos="768"/>
          <note pan="0" key="18" len="12" vol="197" pos="780"/>
          <note pan="0" key="18" len="12" vol="197" pos="792"/>
          <note pan="0" key="18" len="12" vol="197" pos="804"/>
          <note pan="0" key="18" len="12" vol="197" pos="816"/>
          <note pan="0" key="18" len="12" vol="197" pos="828"/>
          <note pan="0" key="18" len="12" vol="197" pos="840"/>
          <note pan="0" key="18" len="12" vol="197" pos="852"/>
          <note pan="0" key="18" len="12" vol="197" pos="864"/>
          <note pan="0" key="18" len="12" vol="197" pos="876"/>
          <note pan="0" key="18" len="12" vol="197" pos="888"/>
          <note pan="0" key="18" len="12" vol="197" pos="900"/>
          <note pan="0" key="18" len="12" vol="197" pos="912"/>
          <note pan="0" key="18" len="12" vol="197" pos="924"/>
          <note pan="0" key="18" len="12" vol="197" pos="936"/>
          <note pan="0" key="18" len="12" vol="197" pos="948"/>
          <note pan="0" key="20" len="12" vol="197" pos="960"/>
          <note pan="0" key="20" len="12" vol="197" pos="972"/>
          <note pan="0" key="20" len="12" vol="197" pos="984"/>
          <note pan="0" key="20" len="12" vol="197" pos="996"/>
          <note pan="0" key="20" len="12" vol="197" pos="1008"/>
          <note pan="0" key="20" len="12" vol="197" pos="1020"/>
          <note pan="0" key="20" len="12" vol="197" pos="1032"/>
          <note pan="0" key="20" len="12" vol="197" pos="1044"/>
          <note pan="0" key="20" len="12" vol="197" pos="1056"/>
          <note pan="0" key="20" len="12" vol="197" pos="1068"/>
          <note pan="0" key="20" len="12" vol="197" pos="1080"/>
          <note pan="0" key="20" len="12" vol="197" pos="1092"/>
          <note pan="0" key="20" len="12" vol="197" pos="1104"/>
          <note pan="0" key="20" len="12" vol="197" pos="1116"/>
          <note pan="0" key="20" len="12" vol="197" pos="1128"/>
          <note pan="0" key="20" len="12" vol="197" pos="1140"/>
          <note pan="0" key="21" len="12" vol="197" pos="1152"/>
          <note pan="0" key="21" len="12" vol="197" pos="1164"/>
          <note pan="0" key="21" len="12" vol="197" pos="1176"/>
          <note pan="0" key="21" len="12" vol="197" pos="1188"/>
          <note pan="0" key="21" len="12" vol="197" pos="1200"/>
          <note pan="0" key="21" len="12" vol="197" pos="1212"/>
          <note pan="0" key="21" len="12" vol="197" pos="1224"/>
          <note pan="0" key="21" len="12" vol="197" pos="1236"/>
          <note pan="0" key="21" len="12" vol="197" pos="1248"/>
          <note pan="0" key="21" len="12" vol="197" pos="1260"/>
          <note pan="0" key="21" len="12" vol="197" pos="1272"/>
          <note pan="0" key="21" len="12" vol="197" pos="1284"/>
          <note pan="0" key="21" len="12" vol="197" pos="1296"/>
          <note pan="0" key="21" len="12" vol="197" pos="1308"/>
          <note pan="0" key="21" len="12" vol="197" pos="1320"/>
          <note pan="0" key="21" len="12" vol="197" pos="1332"/>
          <note pan="0" key="23" len="48" vol="197" pos="1344"/>
          <note pan="0" key="0" len="12" vol="197" pos="1344"/>
          <note pan="0" key="23" len="48" vol="197" pos="1392"/>
          <note pan="0" key="20" len="48" vol="197" pos="1440"/>
          <note pan="0" key="23" len="48" vol="197" pos="1488"/>
        </pattern>
        <pattern steps="16" muted="0" pos="12672" name="" type="1">
          <note pan="0" key="13" len="36" vol="200" pos="0"/>
        </pattern>
        <pattern steps="16" muted="0" pos="37632" name="" type="1">
          <note pan="0" key="20" len="24" vol="195" pos="0"/>
          <note pan="0" key="23" len="24" vol="195" pos="24"/>
          <note pan="0" key="20" len="24" vol="195" pos="48"/>
          <note pan="0" key="27" len="48" vol="195" pos="72"/>
          <note pan="0" key="20" len="24" vol="195" pos="120"/>
          <note pan="0" key="23" len="24" vol="195" pos="144"/>
          <note pan="0" key="27" len="24" vol="195" pos="168"/>
          <note pan="0" key="21" len="12" vol="195" pos="192"/>
          <note pan="0" key="21" len="12" vol="195" pos="204"/>
          <note pan="0" key="21" len="12" vol="195" pos="216"/>
          <note pan="0" key="21" len="12" vol="195" pos="228"/>
          <note pan="0" key="21" len="12" vol="195" pos="240"/>
          <note pan="0" key="21" len="12" vol="195" pos="252"/>
          <note pan="0" key="25" len="12" vol="195" pos="264"/>
          <note pan="0" key="25" len="12" vol="195" pos="276"/>
          <note pan="0" key="23" len="12" vol="195" pos="288"/>
          <note pan="0" key="23" len="12" vol="195" pos="300"/>
          <note pan="0" key="23" len="12" vol="195" pos="312"/>
          <note pan="0" key="23" len="12" vol="195" pos="324"/>
          <note pan="0" key="27" len="12" vol="195" pos="336"/>
          <note pan="0" key="27" len="12" vol="195" pos="348"/>
          <note pan="0" key="23" len="12" vol="195" pos="360"/>
          <note pan="0" key="23" len="12" vol="195" pos="372"/>
        </pattern>
        <pattern steps="16" muted="0" pos="37440" name="" type="1">
          <note pan="0" key="18" len="24" vol="197" pos="0"/>
          <note pan="0" key="16" len="24" vol="197" pos="24"/>
          <note pan="0" key="18" len="24" vol="197" pos="48"/>
          <note pan="0" key="25" len="24" vol="197" pos="72"/>
          <note pan="0" key="18" len="12" vol="197" pos="96"/>
          <note pan="0" key="18" len="12" vol="197" pos="108"/>
          <note pan="0" key="18" len="12" vol="197" pos="120"/>
          <note pan="0" key="18" len="12" vol="197" pos="132"/>
          <note pan="0" key="18" len="12" vol="197" pos="144"/>
          <note pan="0" key="18" len="12" vol="197" pos="156"/>
          <note pan="0" key="18" len="12" vol="197" pos="168"/>
          <note pan="0" key="18" len="12" vol="197" pos="180"/>
        </pattern>
        <pattern steps="16" muted="0" pos="37248" name="" type="1">
          <note pan="0" key="25" len="24" vol="197" pos="0"/>
          <note pan="0" key="23" len="24" vol="197" pos="24"/>
          <note pan="0" key="25" len="24" vol="197" pos="48"/>
          <note pan="0" key="32" len="24" vol="197" pos="72"/>
          <note pan="0" key="25" len="12" vol="197" pos="96"/>
          <note pan="0" key="25" len="12" vol="197" pos="108"/>
          <note pan="0" key="25" len="12" vol="197" pos="120"/>
          <note pan="0" key="25" len="12" vol="197" pos="132"/>
          <note pan="0" key="25" len="12" vol="197" pos="144"/>
          <note pan="0" key="25" len="12" vol="197" pos="156"/>
          <note pan="0" key="25" len="12" vol="197" pos="168"/>
          <note pan="0" key="25" len="12" vol="197" pos="180"/>
        </pattern>
        <pattern steps="16" muted="0" pos="36480" name="" type="1">
          <note pan="0" key="25" len="24" vol="197" pos="0"/>
          <note pan="0" key="23" len="24" vol="197" pos="24"/>
          <note pan="0" key="25" len="24" vol="197" pos="48"/>
          <note pan="0" key="32" len="24" vol="197" pos="72"/>
          <note pan="0" key="25" len="12" vol="197" pos="96"/>
          <note pan="0" key="25" len="12" vol="197" pos="108"/>
          <note pan="0" key="25" len="12" vol="197" pos="120"/>
          <note pan="0" key="25" len="12" vol="197" pos="132"/>
          <note pan="0" key="25" len="12" vol="197" pos="144"/>
          <note pan="0" key="25" len="12" vol="197" pos="156"/>
          <note pan="0" key="25" len="12" vol="197" pos="168"/>
          <note pan="0" key="25" len="12" vol="197" pos="180"/>
        </pattern>
        <pattern steps="16" muted="0" pos="36672" name="" type="1">
          <note pan="0" key="18" len="24" vol="197" pos="0"/>
          <note pan="0" key="16" len="24" vol="197" pos="24"/>
          <note pan="0" key="18" len="24" vol="197" pos="48"/>
          <note pan="0" key="25" len="24" vol="197" pos="72"/>
          <note pan="0" key="18" len="12" vol="197" pos="96"/>
          <note pan="0" key="18" len="12" vol="197" pos="108"/>
          <note pan="0" key="18" len="12" vol="197" pos="120"/>
          <note pan="0" key="18" len="12" vol="197" pos="132"/>
          <note pan="0" key="18" len="12" vol="197" pos="144"/>
          <note pan="0" key="18" len="12" vol="197" pos="156"/>
          <note pan="0" key="18" len="12" vol="197" pos="168"/>
          <note pan="0" key="18" len="12" vol="197" pos="180"/>
        </pattern>
        <pattern steps="16" muted="0" pos="36864" name="" type="1">
          <note pan="0" key="20" len="24" vol="195" pos="0"/>
          <note pan="0" key="23" len="24" vol="195" pos="24"/>
          <note pan="0" key="20" len="24" vol="195" pos="48"/>
          <note pan="0" key="27" len="48" vol="195" pos="72"/>
          <note pan="0" key="20" len="24" vol="195" pos="120"/>
          <note pan="0" key="23" len="24" vol="195" pos="144"/>
          <note pan="0" key="27" len="24" vol="195" pos="168"/>
          <note pan="0" key="21" len="12" vol="195" pos="192"/>
          <note pan="0" key="21" len="12" vol="195" pos="204"/>
          <note pan="0" key="21" len="12" vol="195" pos="216"/>
          <note pan="0" key="21" len="12" vol="195" pos="228"/>
          <note pan="0" key="21" len="12" vol="195" pos="240"/>
          <note pan="0" key="21" len="12" vol="195" pos="252"/>
          <note pan="0" key="25" len="12" vol="195" pos="264"/>
          <note pan="0" key="25" len="12" vol="195" pos="276"/>
          <note pan="0" key="23" len="12" vol="195" pos="288"/>
          <note pan="0" key="23" len="12" vol="195" pos="300"/>
          <note pan="0" key="23" len="12" vol="195" pos="312"/>
          <note pan="0" key="23" len="12" vol="195" pos="324"/>
          <note pan="0" key="27" len="12" vol="195" pos="336"/>
          <note pan="0" key="27" len="12" vol="195" pos="348"/>
          <note pan="0" key="23" len="12" vol="195" pos="360"/>
          <note pan="0" key="23" len="12" vol="195" pos="372"/>
        </pattern>
        <pattern steps="16" muted="0" pos="38016" name="" type="1">
          <note pan="0" key="14" len="12" vol="200" pos="0"/>
          <note pan="0" key="14" len="12" vol="200" pos="12"/>
          <note pan="0" key="14" len="24" vol="200" pos="24"/>
          <note pan="0" key="14" len="12" vol="200" pos="48"/>
          <note pan="0" key="14" len="12" vol="200" pos="60"/>
          <note pan="0" key="14" len="24" vol="200" pos="72"/>
          <note pan="0" key="14" len="12" vol="200" pos="96"/>
          <note pan="0" key="14" len="12" vol="200" pos="108"/>
          <note pan="0" key="14" len="24" vol="200" pos="120"/>
          <note pan="0" key="14" len="12" vol="200" pos="144"/>
          <note pan="0" key="14" len="12" vol="200" pos="156"/>
          <note pan="0" key="14" len="24" vol="200" pos="168"/>
          <note pan="0" key="14" len="12" vol="200" pos="192"/>
          <note pan="0" key="14" len="12" vol="200" pos="204"/>
          <note pan="0" key="14" len="24" vol="200" pos="216"/>
          <note pan="0" key="14" len="12" vol="200" pos="240"/>
          <note pan="0" key="14" len="12" vol="200" pos="252"/>
          <note pan="0" key="14" len="24" vol="200" pos="264"/>
          <note pan="0" key="14" len="12" vol="200" pos="288"/>
          <note pan="0" key="14" len="12" vol="200" pos="300"/>
          <note pan="0" key="14" len="24" vol="200" pos="312"/>
          <note pan="0" key="14" len="12" vol="200" pos="336"/>
          <note pan="0" key="14" len="12" vol="200" pos="348"/>
          <note pan="0" key="14" len="24" vol="200" pos="360"/>
          <note pan="0" key="13" len="12" vol="200" pos="384"/>
          <note pan="0" key="13" len="12" vol="200" pos="396"/>
          <note pan="0" key="13" len="24" vol="200" pos="408"/>
          <note pan="0" key="13" len="12" vol="200" pos="432"/>
          <note pan="0" key="13" len="12" vol="200" pos="444"/>
          <note pan="0" key="13" len="24" vol="200" pos="456"/>
          <note pan="0" key="13" len="12" vol="200" pos="480"/>
          <note pan="0" key="13" len="12" vol="200" pos="492"/>
          <note pan="0" key="13" len="24" vol="200" pos="504"/>
          <note pan="0" key="13" len="12" vol="200" pos="528"/>
          <note pan="0" key="13" len="12" vol="200" pos="540"/>
          <note pan="0" key="13" len="24" vol="200" pos="552"/>
          <note pan="0" key="11" len="12" vol="200" pos="576"/>
          <note pan="0" key="11" len="12" vol="200" pos="588"/>
          <note pan="0" key="11" len="24" vol="200" pos="600"/>
          <note pan="0" key="11" len="12" vol="200" pos="624"/>
          <note pan="0" key="11" len="12" vol="200" pos="636"/>
          <note pan="0" key="11" len="24" vol="200" pos="648"/>
          <note pan="0" key="11" len="12" vol="200" pos="672"/>
          <note pan="0" key="11" len="12" vol="200" pos="684"/>
          <note pan="0" key="11" len="24" vol="200" pos="696"/>
          <note pan="0" key="11" len="12" vol="200" pos="720"/>
          <note pan="0" key="11" len="12" vol="200" pos="732"/>
          <note pan="0" key="11" len="24" vol="200" pos="744"/>
        </pattern>
        <pattern steps="16" muted="0" pos="39168" name="" type="1">
          <note pan="0" key="15" len="24" vol="197" pos="0"/>
          <note pan="0" key="15" len="12" vol="197" pos="24"/>
          <note pan="0" key="15" len="12" vol="197" pos="36"/>
          <note pan="0" key="15" len="12" vol="197" pos="48"/>
          <note pan="0" key="15" len="12" vol="197" pos="60"/>
          <note pan="0" key="15" len="12" vol="197" pos="72"/>
          <note pan="0" key="15" len="12" vol="197" pos="84"/>
          <note pan="0" key="15" len="12" vol="197" pos="96"/>
          <note pan="0" key="15" len="12" vol="197" pos="108"/>
          <note pan="0" key="15" len="12" vol="197" pos="120"/>
          <note pan="0" key="15" len="12" vol="197" pos="132"/>
          <note pan="0" key="15" len="12" vol="197" pos="144"/>
          <note pan="0" key="15" len="12" vol="197" pos="156"/>
          <note pan="0" key="15" len="12" vol="197" pos="168"/>
          <note pan="0" key="15" len="12" vol="197" pos="180"/>
          <note pan="0" key="21" len="96" vol="197" pos="192"/>
          <note pan="0" key="20" len="96" vol="197" pos="288"/>
        </pattern>
        <pattern steps="16" muted="0" pos="38784" name="" type="1">
          <note pan="0" key="16" len="24" vol="197" pos="0"/>
          <note pan="0" key="18" len="24" vol="197" pos="24"/>
          <note pan="0" key="18" len="12" vol="197" pos="48"/>
          <note pan="0" key="18" len="12" vol="197" pos="60"/>
          <note pan="0" key="23" len="24" vol="197" pos="72"/>
          <note pan="0" key="25" len="24" vol="197" pos="96"/>
          <note pan="0" key="18" len="24" vol="197" pos="120"/>
          <note pan="0" key="16" len="24" vol="197" pos="144"/>
          <note pan="0" key="18" len="24" vol="197" pos="168"/>
        </pattern>
        <pattern steps="16" muted="0" pos="38976" name="" type="1">
          <note pan="0" key="16" len="24" vol="197" pos="0"/>
          <note pan="0" key="18" len="24" vol="197" pos="24"/>
          <note pan="0" key="18" len="12" vol="197" pos="48"/>
          <note pan="0" key="18" len="12" vol="197" pos="60"/>
          <note pan="0" key="23" len="24" vol="197" pos="72"/>
          <note pan="0" key="25" len="24" vol="197" pos="96"/>
          <note pan="0" key="18" len="24" vol="197" pos="120"/>
          <note pan="0" key="16" len="24" vol="197" pos="144"/>
          <note pan="0" key="18" len="24" vol="197" pos="168"/>
        </pattern>
        <pattern steps="16" muted="0" pos="39552" name="" type="1">
          <note pan="0" key="13" len="48" vol="195" pos="0"/>
          <note pan="0" key="13" len="12" vol="195" pos="48"/>
          <note pan="0" key="13" len="12" vol="195" pos="60"/>
          <note pan="0" key="13" len="12" vol="195" pos="72"/>
          <note pan="0" key="13" len="12" vol="195" pos="84"/>
          <note pan="0" key="13" len="12" vol="195" pos="96"/>
          <note pan="0" key="13" len="12" vol="195" pos="108"/>
          <note pan="0" key="13" len="12" vol="195" pos="120"/>
          <note pan="0" key="13" len="12" vol="195" pos="132"/>
          <note pan="0" key="13" len="12" vol="195" pos="144"/>
          <note pan="0" key="13" len="12" vol="195" pos="156"/>
          <note pan="0" key="13" len="12" vol="195" pos="168"/>
          <note pan="0" key="13" len="12" vol="195" pos="180"/>
          <note pan="0" key="20" len="48" vol="195" pos="192"/>
          <note pan="0" key="20" len="12" vol="195" pos="240"/>
          <note pan="0" key="20" len="12" vol="195" pos="252"/>
          <note pan="0" key="20" len="12" vol="195" pos="264"/>
          <note pan="0" key="20" len="12" vol="195" pos="276"/>
          <note pan="0" key="20" len="12" vol="195" pos="288"/>
          <note pan="0" key="20" len="12" vol="195" pos="300"/>
          <note pan="0" key="20" len="12" vol="195" pos="312"/>
          <note pan="0" key="20" len="12" vol="195" pos="324"/>
          <note pan="0" key="20" len="12" vol="195" pos="336"/>
          <note pan="0" key="20" len="12" vol="195" pos="348"/>
          <note pan="0" key="20" len="12" vol="195" pos="360"/>
          <note pan="0" key="20" len="12" vol="195" pos="372"/>
          <note pan="0" key="21" len="48" vol="195" pos="384"/>
          <note pan="0" key="21" len="12" vol="195" pos="432"/>
          <note pan="0" key="21" len="12" vol="195" pos="444"/>
          <note pan="0" key="21" len="12" vol="195" pos="456"/>
          <note pan="0" key="21" len="12" vol="195" pos="468"/>
          <note pan="0" key="21" len="12" vol="195" pos="480"/>
          <note pan="0" key="21" len="12" vol="195" pos="492"/>
          <note pan="0" key="21" len="12" vol="195" pos="504"/>
          <note pan="0" key="21" len="12" vol="195" pos="516"/>
          <note pan="0" key="21" len="12" vol="195" pos="528"/>
          <note pan="0" key="21" len="12" vol="195" pos="540"/>
          <note pan="0" key="21" len="12" vol="195" pos="552"/>
          <note pan="0" key="21" len="12" vol="195" pos="564"/>
          <note pan="0" key="23" len="48" vol="195" pos="576"/>
          <note pan="0" key="23" len="12" vol="195" pos="624"/>
          <note pan="0" key="23" len="12" vol="195" pos="636"/>
          <note pan="0" key="23" len="12" vol="195" pos="648"/>
          <note pan="0" key="23" len="12" vol="195" pos="660"/>
          <note pan="0" key="23" len="12" vol="195" pos="672"/>
          <note pan="0" key="23" len="12" vol="195" pos="684"/>
          <note pan="0" key="23" len="12" vol="195" pos="696"/>
          <note pan="0" key="23" len="12" vol="195" pos="708"/>
          <note pan="0" key="23" len="12" vol="195" pos="720"/>
          <note pan="0" key="23" len="12" vol="195" pos="732"/>
          <note pan="0" key="23" len="12" vol="195" pos="744"/>
          <note pan="0" key="23" len="12" vol="195" pos="756"/>
          <note pan="0" key="18" len="48" vol="195" pos="768"/>
          <note pan="0" key="18" len="12" vol="195" pos="816"/>
          <note pan="0" key="18" len="12" vol="195" pos="828"/>
          <note pan="0" key="18" len="12" vol="195" pos="840"/>
          <note pan="0" key="18" len="12" vol="195" pos="852"/>
          <note pan="0" key="18" len="12" vol="195" pos="864"/>
          <note pan="0" key="18" len="12" vol="195" pos="876"/>
          <note pan="0" key="18" len="12" vol="195" pos="888"/>
          <note pan="0" key="18" len="12" vol="195" pos="900"/>
          <note pan="0" key="18" len="12" vol="195" pos="912"/>
          <note pan="0" key="18" len="12" vol="195" pos="924"/>
          <note pan="0" key="18" len="12" vol="195" pos="936"/>
          <note pan="0" key="18" len="12" vol="195" pos="948"/>
          <note pan="0" key="20" len="48" vol="195" pos="960"/>
          <note pan="0" key="20" len="12" vol="195" pos="1008"/>
          <note pan="0" key="20" len="12" vol="195" pos="1020"/>
          <note pan="0" key="20" len="12" vol="195" pos="1032"/>
          <note pan="0" key="20" len="12" vol="195" pos="1044"/>
          <note pan="0" key="20" len="12" vol="195" pos="1056"/>
          <note pan="0" key="20" len="12" vol="195" pos="1068"/>
          <note pan="0" key="20" len="12" vol="195" pos="1080"/>
          <note pan="0" key="20" len="12" vol="195" pos="1092"/>
          <note pan="0" key="20" len="12" vol="195" pos="1104"/>
          <note pan="0" key="20" len="12" vol="195" pos="1116"/>
          <note pan="0" key="20" len="12" vol="195" pos="1128"/>
          <note pan="0" key="20" len="12" vol="195" pos="1140"/>
          <note pan="0" key="21" len="48" vol="195" pos="1152"/>
          <note pan="0" key="21" len="12" vol="195" pos="1200"/>
          <note pan="0" key="21" len="12" vol="195" pos="1212"/>
          <note pan="0" key="21" len="12" vol="195" pos="1224"/>
          <note pan="0" key="21" len="12" vol="195" pos="1236"/>
          <note pan="0" key="21" len="12" vol="195" pos="1248"/>
          <note pan="0" key="21" len="12" vol="195" pos="1260"/>
          <note pan="0" key="21" len="12" vol="195" pos="1272"/>
          <note pan="0" key="21" len="12" vol="195" pos="1284"/>
          <note pan="0" key="21" len="12" vol="195" pos="1296"/>
          <note pan="0" key="21" len="12" vol="195" pos="1308"/>
          <note pan="0" key="21" len="12" vol="195" pos="1320"/>
          <note pan="0" key="21" len="12" vol="195" pos="1332"/>
          <note pan="0" key="23" len="48" vol="195" pos="1344"/>
          <note pan="0" key="23" len="12" vol="195" pos="1392"/>
          <note pan="0" key="23" len="12" vol="195" pos="1404"/>
          <note pan="0" key="23" len="12" vol="195" pos="1416"/>
          <note pan="0" key="23" len="12" vol="195" pos="1428"/>
          <note pan="0" key="24" len="48" vol="195" pos="1440"/>
          <note pan="0" key="24" len="12" vol="195" pos="1488"/>
          <note pan="0" key="24" len="12" vol="195" pos="1500"/>
          <note pan="0" key="24" len="12" vol="195" pos="1512"/>
          <note pan="0" key="24" len="12" vol="195" pos="1524"/>
          <note pan="0" key="13" len="48" vol="195" pos="1536"/>
          <note pan="0" key="13" len="12" vol="195" pos="1584"/>
          <note pan="0" key="13" len="12" vol="195" pos="1596"/>
          <note pan="0" key="13" len="12" vol="195" pos="1608"/>
          <note pan="0" key="13" len="12" vol="195" pos="1620"/>
          <note pan="0" key="13" len="12" vol="195" pos="1632"/>
          <note pan="0" key="13" len="12" vol="195" pos="1644"/>
          <note pan="0" key="13" len="12" vol="195" pos="1656"/>
          <note pan="0" key="13" len="12" vol="195" pos="1668"/>
          <note pan="0" key="13" len="12" vol="195" pos="1680"/>
          <note pan="0" key="13" len="12" vol="195" pos="1692"/>
          <note pan="0" key="13" len="12" vol="195" pos="1704"/>
          <note pan="0" key="13" len="12" vol="195" pos="1716"/>
          <note pan="0" key="23" len="48" vol="195" pos="1728"/>
          <note pan="0" key="23" len="12" vol="195" pos="1776"/>
          <note pan="0" key="23" len="12" vol="195" pos="1788"/>
          <note pan="0" key="23" len="12" vol="195" pos="1800"/>
          <note pan="0" key="23" len="12" vol="195" pos="1812"/>
          <note pan="0" key="23" len="12" vol="195" pos="1824"/>
          <note pan="0" key="23" len="12" vol="195" pos="1836"/>
          <note pan="0" key="23" len="12" vol="195" pos="1848"/>
          <note pan="0" key="23" len="12" vol="195" pos="1860"/>
          <note pan="0" key="23" len="12" vol="195" pos="1872"/>
          <note pan="0" key="23" len="12" vol="195" pos="1884"/>
          <note pan="0" key="23" len="12" vol="195" pos="1896"/>
          <note pan="0" key="23" len="12" vol="195" pos="1908"/>
          <note pan="0" key="22" len="48" vol="195" pos="1920"/>
          <note pan="0" key="22" len="12" vol="195" pos="1968"/>
          <note pan="0" key="22" len="12" vol="195" pos="1980"/>
          <note pan="0" key="22" len="12" vol="195" pos="1992"/>
          <note pan="0" key="22" len="12" vol="195" pos="2004"/>
          <note pan="0" key="22" len="12" vol="195" pos="2016"/>
          <note pan="0" key="22" len="12" vol="195" pos="2028"/>
          <note pan="0" key="22" len="12" vol="195" pos="2040"/>
          <note pan="0" key="22" len="12" vol="195" pos="2052"/>
          <note pan="0" key="22" len="12" vol="195" pos="2064"/>
          <note pan="0" key="22" len="12" vol="195" pos="2076"/>
          <note pan="0" key="22" len="12" vol="195" pos="2088"/>
          <note pan="0" key="22" len="12" vol="195" pos="2100"/>
          <note pan="0" key="18" len="48" vol="195" pos="2112"/>
          <note pan="0" key="18" len="12" vol="195" pos="2160"/>
          <note pan="0" key="18" len="12" vol="195" pos="2172"/>
          <note pan="0" key="18" len="12" vol="195" pos="2184"/>
          <note pan="0" key="18" len="12" vol="195" pos="2196"/>
          <note pan="0" key="16" len="48" vol="195" pos="2208"/>
          <note pan="0" key="16" len="12" vol="195" pos="2256"/>
          <note pan="0" key="16" len="12" vol="195" pos="2268"/>
          <note pan="0" key="16" len="12" vol="195" pos="2280"/>
          <note pan="0" key="16" len="12" vol="195" pos="2292"/>
          <note pan="0" key="14" len="48" vol="195" pos="2304"/>
          <note pan="0" key="14" len="12" vol="195" pos="2352"/>
          <note pan="0" key="14" len="12" vol="195" pos="2364"/>
          <note pan="0" key="14" len="12" vol="195" pos="2376"/>
          <note pan="0" key="14" len="12" vol="195" pos="2388"/>
          <note pan="0" key="14" len="48" vol="195" pos="2400"/>
          <note pan="0" key="14" len="12" vol="195" pos="2448"/>
          <note pan="0" key="14" len="12" vol="195" pos="2460"/>
          <note pan="0" key="14" len="12" vol="195" pos="2472"/>
          <note pan="0" key="14" len="12" vol="195" pos="2484"/>
          <note pan="0" key="21" len="48" vol="195" pos="2496"/>
          <note pan="0" key="21" len="12" vol="195" pos="2544"/>
          <note pan="0" key="21" len="12" vol="195" pos="2556"/>
          <note pan="0" key="21" len="12" vol="195" pos="2568"/>
          <note pan="0" key="21" len="12" vol="195" pos="2580"/>
          <note pan="0" key="21" len="12" vol="195" pos="2592"/>
          <note pan="0" key="21" len="12" vol="195" pos="2604"/>
          <note pan="0" key="21" len="12" vol="195" pos="2616"/>
          <note pan="0" key="21" len="12" vol="195" pos="2628"/>
          <note pan="0" key="21" len="12" vol="195" pos="2640"/>
          <note pan="0" key="21" len="12" vol="195" pos="2652"/>
          <note pan="0" key="21" len="12" vol="195" pos="2664"/>
          <note pan="0" key="21" len="12" vol="195" pos="2676"/>
          <note pan="0" key="11" len="384" vol="195" pos="2688"/>
        </pattern>
        <pattern steps="16" muted="0" pos="44160" name="" type="1">
          <note pan="0" key="15" len="48" vol="195" pos="0"/>
          <note pan="0" key="15" len="12" vol="195" pos="48"/>
          <note pan="0" key="15" len="12" vol="195" pos="60"/>
          <note pan="0" key="15" len="12" vol="195" pos="72"/>
          <note pan="0" key="15" len="12" vol="195" pos="84"/>
          <note pan="0" key="15" len="12" vol="195" pos="96"/>
          <note pan="0" key="15" len="12" vol="195" pos="108"/>
          <note pan="0" key="15" len="12" vol="195" pos="120"/>
          <note pan="0" key="15" len="12" vol="195" pos="132"/>
          <note pan="0" key="15" len="12" vol="195" pos="144"/>
          <note pan="0" key="15" len="12" vol="195" pos="156"/>
          <note pan="0" key="15" len="12" vol="195" pos="168"/>
          <note pan="0" key="15" len="12" vol="195" pos="180"/>
          <note pan="0" key="22" len="48" vol="195" pos="192"/>
          <note pan="0" key="22" len="12" vol="195" pos="240"/>
          <note pan="0" key="22" len="12" vol="195" pos="252"/>
          <note pan="0" key="22" len="12" vol="195" pos="264"/>
          <note pan="0" key="22" len="12" vol="195" pos="276"/>
          <note pan="0" key="22" len="12" vol="195" pos="288"/>
          <note pan="0" key="22" len="12" vol="195" pos="300"/>
          <note pan="0" key="22" len="12" vol="195" pos="312"/>
          <note pan="0" key="22" len="12" vol="195" pos="324"/>
          <note pan="0" key="22" len="12" vol="195" pos="336"/>
          <note pan="0" key="22" len="12" vol="195" pos="348"/>
          <note pan="0" key="22" len="12" vol="195" pos="360"/>
          <note pan="0" key="22" len="12" vol="195" pos="372"/>
          <note pan="0" key="23" len="48" vol="195" pos="384"/>
          <note pan="0" key="23" len="12" vol="195" pos="432"/>
          <note pan="0" key="23" len="12" vol="195" pos="444"/>
          <note pan="0" key="23" len="12" vol="195" pos="456"/>
          <note pan="0" key="23" len="12" vol="195" pos="468"/>
          <note pan="0" key="23" len="12" vol="195" pos="480"/>
          <note pan="0" key="23" len="12" vol="195" pos="492"/>
          <note pan="0" key="23" len="12" vol="195" pos="504"/>
          <note pan="0" key="23" len="12" vol="195" pos="516"/>
          <note pan="0" key="23" len="12" vol="195" pos="528"/>
          <note pan="0" key="23" len="12" vol="195" pos="540"/>
          <note pan="0" key="23" len="12" vol="195" pos="552"/>
          <note pan="0" key="23" len="12" vol="195" pos="564"/>
          <note pan="0" key="25" len="48" vol="195" pos="576"/>
          <note pan="0" key="25" len="12" vol="195" pos="624"/>
          <note pan="0" key="25" len="12" vol="195" pos="636"/>
          <note pan="0" key="25" len="12" vol="195" pos="648"/>
          <note pan="0" key="25" len="12" vol="195" pos="660"/>
          <note pan="0" key="25" len="12" vol="195" pos="672"/>
          <note pan="0" key="25" len="12" vol="195" pos="684"/>
          <note pan="0" key="25" len="12" vol="195" pos="696"/>
          <note pan="0" key="25" len="12" vol="195" pos="708"/>
          <note pan="0" key="25" len="12" vol="195" pos="720"/>
          <note pan="0" key="25" len="12" vol="195" pos="732"/>
          <note pan="0" key="25" len="12" vol="195" pos="744"/>
          <note pan="0" key="25" len="12" vol="195" pos="756"/>
          <note pan="0" key="20" len="48" vol="195" pos="768"/>
          <note pan="0" key="20" len="12" vol="195" pos="816"/>
          <note pan="0" key="20" len="12" vol="195" pos="828"/>
          <note pan="0" key="20" len="12" vol="195" pos="840"/>
          <note pan="0" key="20" len="12" vol="195" pos="852"/>
          <note pan="0" key="20" len="12" vol="195" pos="864"/>
          <note pan="0" key="20" len="12" vol="195" pos="876"/>
          <note pan="0" key="20" len="12" vol="195" pos="888"/>
          <note pan="0" key="20" len="12" vol="195" pos="900"/>
          <note pan="0" key="20" len="12" vol="195" pos="912"/>
          <note pan="0" key="20" len="12" vol="195" pos="924"/>
          <note pan="0" key="20" len="12" vol="195" pos="936"/>
          <note pan="0" key="20" len="12" vol="195" pos="948"/>
          <note pan="0" key="22" len="48" vol="195" pos="960"/>
          <note pan="0" key="22" len="12" vol="195" pos="1008"/>
          <note pan="0" key="22" len="12" vol="195" pos="1020"/>
          <note pan="0" key="22" len="12" vol="195" pos="1032"/>
          <note pan="0" key="22" len="12" vol="195" pos="1044"/>
          <note pan="0" key="22" len="12" vol="195" pos="1056"/>
          <note pan="0" key="22" len="12" vol="195" pos="1068"/>
          <note pan="0" key="22" len="12" vol="195" pos="1080"/>
          <note pan="0" key="22" len="12" vol="195" pos="1092"/>
          <note pan="0" key="22" len="12" vol="195" pos="1104"/>
          <note pan="0" key="22" len="12" vol="195" pos="1116"/>
          <note pan="0" key="22" len="12" vol="195" pos="1128"/>
          <note pan="0" key="22" len="12" vol="195" pos="1140"/>
          <note pan="0" key="23" len="48" vol="195" pos="1152"/>
          <note pan="0" key="23" len="12" vol="195" pos="1200"/>
          <note pan="0" key="23" len="12" vol="195" pos="1212"/>
          <note pan="0" key="23" len="12" vol="195" pos="1224"/>
          <note pan="0" key="23" len="12" vol="195" pos="1236"/>
          <note pan="0" key="23" len="12" vol="195" pos="1248"/>
          <note pan="0" key="23" len="12" vol="195" pos="1260"/>
          <note pan="0" key="23" len="12" vol="195" pos="1272"/>
          <note pan="0" key="23" len="12" vol="195" pos="1284"/>
          <note pan="0" key="23" len="12" vol="195" pos="1296"/>
          <note pan="0" key="23" len="12" vol="195" pos="1308"/>
          <note pan="0" key="23" len="12" vol="195" pos="1320"/>
          <note pan="0" key="23" len="12" vol="195" pos="1332"/>
          <note pan="0" key="25" len="48" vol="195" pos="1344"/>
          <note pan="0" key="25" len="12" vol="195" pos="1392"/>
          <note pan="0" key="25" len="12" vol="195" pos="1404"/>
          <note pan="0" key="25" len="12" vol="195" pos="1416"/>
          <note pan="0" key="25" len="12" vol="195" pos="1428"/>
          <note pan="0" key="26" len="12" vol="195" pos="1440"/>
          <note pan="0" key="23" len="12" vol="195" pos="1452"/>
          <note pan="0" key="22" len="12" vol="195" pos="1464"/>
          <note pan="0" key="20" len="12" vol="195" pos="1476"/>
          <note pan="0" key="23" len="12" vol="195" pos="1488"/>
          <note pan="0" key="22" len="12" vol="195" pos="1500"/>
          <note pan="0" key="20" len="12" vol="195" pos="1512"/>
          <note pan="0" key="18" len="12" vol="195" pos="1524"/>
          <note pan="0" key="15" len="48" vol="195" pos="1536"/>
          <note pan="0" key="15" len="12" vol="195" pos="1584"/>
          <note pan="0" key="15" len="12" vol="195" pos="1596"/>
          <note pan="0" key="15" len="12" vol="195" pos="1608"/>
          <note pan="0" key="15" len="12" vol="195" pos="1620"/>
          <note pan="0" key="15" len="12" vol="195" pos="1632"/>
          <note pan="0" key="15" len="12" vol="195" pos="1644"/>
          <note pan="0" key="15" len="12" vol="195" pos="1656"/>
          <note pan="0" key="15" len="12" vol="195" pos="1668"/>
          <note pan="0" key="15" len="12" vol="195" pos="1680"/>
          <note pan="0" key="15" len="12" vol="195" pos="1692"/>
          <note pan="0" key="15" len="12" vol="195" pos="1704"/>
          <note pan="0" key="15" len="12" vol="195" pos="1716"/>
          <note pan="0" key="25" len="48" vol="195" pos="1728"/>
          <note pan="0" key="25" len="12" vol="195" pos="1776"/>
          <note pan="0" key="25" len="12" vol="195" pos="1788"/>
          <note pan="0" key="25" len="12" vol="195" pos="1800"/>
          <note pan="0" key="25" len="12" vol="195" pos="1812"/>
          <note pan="0" key="25" len="12" vol="195" pos="1824"/>
          <note pan="0" key="25" len="12" vol="195" pos="1836"/>
          <note pan="0" key="25" len="12" vol="195" pos="1848"/>
          <note pan="0" key="25" len="12" vol="195" pos="1860"/>
          <note pan="0" key="25" len="12" vol="195" pos="1872"/>
          <note pan="0" key="25" len="12" vol="195" pos="1884"/>
          <note pan="0" key="25" len="12" vol="195" pos="1896"/>
          <note pan="0" key="25" len="12" vol="195" pos="1908"/>
          <note pan="0" key="24" len="48" vol="195" pos="1920"/>
          <note pan="0" key="24" len="12" vol="195" pos="1968"/>
          <note pan="0" key="24" len="12" vol="195" pos="1980"/>
          <note pan="0" key="24" len="12" vol="195" pos="1992"/>
          <note pan="0" key="24" len="12" vol="195" pos="2004"/>
          <note pan="0" key="24" len="12" vol="195" pos="2016"/>
          <note pan="0" key="24" len="12" vol="195" pos="2028"/>
          <note pan="0" key="24" len="12" vol="195" pos="2040"/>
          <note pan="0" key="24" len="12" vol="195" pos="2052"/>
          <note pan="0" key="24" len="12" vol="195" pos="2064"/>
          <note pan="0" key="24" len="12" vol="195" pos="2076"/>
          <note pan="0" key="24" len="12" vol="195" pos="2088"/>
          <note pan="0" key="24" len="12" vol="195" pos="2100"/>
          <note pan="0" key="20" len="48" vol="195" pos="2112"/>
          <note pan="0" key="20" len="12" vol="195" pos="2160"/>
          <note pan="0" key="20" len="12" vol="195" pos="2172"/>
          <note pan="0" key="20" len="12" vol="195" pos="2184"/>
          <note pan="0" key="20" len="12" vol="195" pos="2196"/>
          <note pan="0" key="18" len="48" vol="195" pos="2208"/>
          <note pan="0" key="18" len="12" vol="195" pos="2256"/>
          <note pan="0" key="18" len="12" vol="195" pos="2268"/>
          <note pan="0" key="18" len="12" vol="195" pos="2280"/>
          <note pan="0" key="18" len="12" vol="195" pos="2292"/>
          <note pan="0" key="16" len="48" vol="195" pos="2304"/>
          <note pan="0" key="16" len="12" vol="195" pos="2352"/>
          <note pan="0" key="16" len="12" vol="195" pos="2364"/>
          <note pan="0" key="16" len="12" vol="195" pos="2376"/>
          <note pan="0" key="16" len="12" vol="195" pos="2388"/>
          <note pan="0" key="16" len="48" vol="195" pos="2400"/>
          <note pan="0" key="16" len="12" vol="195" pos="2448"/>
          <note pan="0" key="16" len="12" vol="195" pos="2460"/>
          <note pan="0" key="16" len="12" vol="195" pos="2472"/>
          <note pan="0" key="16" len="12" vol="195" pos="2484"/>
          <note pan="0" key="23" len="48" vol="195" pos="2496"/>
          <note pan="0" key="23" len="12" vol="195" pos="2544"/>
          <note pan="0" key="23" len="12" vol="195" pos="2556"/>
          <note pan="0" key="23" len="12" vol="195" pos="2568"/>
          <note pan="0" key="23" len="12" vol="195" pos="2580"/>
          <note pan="0" key="23" len="12" vol="195" pos="2592"/>
          <note pan="0" key="23" len="12" vol="195" pos="2604"/>
          <note pan="0" key="23" len="12" vol="195" pos="2616"/>
          <note pan="0" key="23" len="12" vol="195" pos="2628"/>
          <note pan="0" key="23" len="12" vol="195" pos="2640"/>
          <note pan="0" key="23" len="12" vol="195" pos="2652"/>
          <note pan="0" key="23" len="12" vol="195" pos="2664"/>
          <note pan="0" key="23" len="12" vol="195" pos="2676"/>
          <note pan="0" key="25" len="48" vol="195" pos="2688"/>
          <note pan="0" key="25" len="12" vol="195" pos="2736"/>
          <note pan="0" key="25" len="12" vol="195" pos="2748"/>
          <note pan="0" key="25" len="12" vol="195" pos="2760"/>
          <note pan="0" key="25" len="12" vol="195" pos="2772"/>
          <note pan="0" key="25" len="12" vol="195" pos="2784"/>
          <note pan="0" key="25" len="12" vol="195" pos="2796"/>
          <note pan="0" key="25" len="12" vol="195" pos="2808"/>
          <note pan="0" key="25" len="12" vol="195" pos="2820"/>
          <note pan="0" key="25" len="12" vol="195" pos="2832"/>
          <note pan="0" key="25" len="12" vol="195" pos="2844"/>
          <note pan="0" key="25" len="12" vol="195" pos="2856"/>
          <note pan="0" key="25" len="12" vol="195" pos="2868"/>
          <note pan="0" key="25" len="12" vol="195" pos="2880"/>
          <note pan="0" key="23" len="12" vol="195" pos="2892"/>
          <note pan="0" key="22" len="12" vol="195" pos="2904"/>
          <note pan="0" key="20" len="12" vol="195" pos="2916"/>
          <note pan="0" key="23" len="12" vol="195" pos="2928"/>
          <note pan="0" key="22" len="12" vol="195" pos="2940"/>
          <note pan="0" key="20" len="12" vol="195" pos="2952"/>
          <note pan="0" key="18" len="12" vol="195" pos="2964"/>
          <note pan="0" key="22" len="12" vol="195" pos="2976"/>
          <note pan="0" key="20" len="12" vol="195" pos="2988"/>
          <note pan="0" key="18" len="12" vol="195" pos="3000"/>
          <note pan="0" key="17" len="12" vol="195" pos="3012"/>
          <note pan="0" key="20" len="12" vol="195" pos="3024"/>
          <note pan="0" key="18" len="12" vol="195" pos="3036"/>
          <note pan="0" key="17" len="12" vol="195" pos="3048"/>
          <note pan="0" key="18" len="12" vol="195" pos="3060"/>
        </pattern>
        <pattern steps="16" muted="0" pos="43776" name="" type="1">
          <note pan="0" key="9" len="96" vol="200" pos="96"/>
          <note pan="0" key="11" len="96" vol="200" pos="192"/>
          <note pan="0" key="13" len="96" vol="200" pos="288"/>
        </pattern>
        <pattern steps="16" muted="0" pos="47232" name="" type="1">
          <note pan="0" key="15" len="48" vol="195" pos="0"/>
          <note pan="0" key="15" len="12" vol="195" pos="48"/>
          <note pan="0" key="15" len="12" vol="195" pos="60"/>
          <note pan="0" key="15" len="12" vol="195" pos="72"/>
          <note pan="0" key="15" len="12" vol="195" pos="84"/>
          <note pan="0" key="15" len="12" vol="195" pos="96"/>
          <note pan="0" key="15" len="12" vol="195" pos="108"/>
          <note pan="0" key="15" len="12" vol="195" pos="120"/>
          <note pan="0" key="15" len="12" vol="195" pos="132"/>
          <note pan="0" key="15" len="12" vol="195" pos="144"/>
          <note pan="0" key="15" len="12" vol="195" pos="156"/>
          <note pan="0" key="15" len="12" vol="195" pos="168"/>
          <note pan="0" key="15" len="12" vol="195" pos="180"/>
          <note pan="0" key="22" len="48" vol="195" pos="192"/>
          <note pan="0" key="22" len="12" vol="195" pos="240"/>
          <note pan="0" key="22" len="12" vol="195" pos="252"/>
          <note pan="0" key="22" len="12" vol="195" pos="264"/>
          <note pan="0" key="22" len="12" vol="195" pos="276"/>
          <note pan="0" key="22" len="12" vol="195" pos="288"/>
          <note pan="0" key="22" len="12" vol="195" pos="300"/>
          <note pan="0" key="22" len="12" vol="195" pos="312"/>
          <note pan="0" key="22" len="12" vol="195" pos="324"/>
          <note pan="0" key="22" len="12" vol="195" pos="336"/>
          <note pan="0" key="22" len="12" vol="195" pos="348"/>
          <note pan="0" key="22" len="12" vol="195" pos="360"/>
          <note pan="0" key="22" len="12" vol="195" pos="372"/>
          <note pan="0" key="23" len="48" vol="195" pos="384"/>
          <note pan="0" key="23" len="12" vol="195" pos="432"/>
          <note pan="0" key="23" len="12" vol="195" pos="444"/>
          <note pan="0" key="23" len="12" vol="195" pos="456"/>
          <note pan="0" key="23" len="12" vol="195" pos="468"/>
          <note pan="0" key="23" len="12" vol="195" pos="480"/>
          <note pan="0" key="23" len="12" vol="195" pos="492"/>
          <note pan="0" key="23" len="12" vol="195" pos="504"/>
          <note pan="0" key="23" len="12" vol="195" pos="516"/>
          <note pan="0" key="23" len="12" vol="195" pos="528"/>
          <note pan="0" key="23" len="12" vol="195" pos="540"/>
          <note pan="0" key="23" len="12" vol="195" pos="552"/>
          <note pan="0" key="23" len="12" vol="195" pos="564"/>
          <note pan="0" key="25" len="48" vol="195" pos="576"/>
          <note pan="0" key="25" len="12" vol="195" pos="624"/>
          <note pan="0" key="25" len="12" vol="195" pos="636"/>
          <note pan="0" key="25" len="12" vol="195" pos="648"/>
          <note pan="0" key="25" len="12" vol="195" pos="660"/>
          <note pan="0" key="25" len="12" vol="195" pos="672"/>
          <note pan="0" key="25" len="12" vol="195" pos="684"/>
          <note pan="0" key="25" len="12" vol="195" pos="696"/>
          <note pan="0" key="25" len="12" vol="195" pos="708"/>
          <note pan="0" key="25" len="12" vol="195" pos="720"/>
          <note pan="0" key="25" len="12" vol="195" pos="732"/>
          <note pan="0" key="25" len="12" vol="195" pos="744"/>
          <note pan="0" key="25" len="12" vol="195" pos="756"/>
          <note pan="0" key="20" len="48" vol="195" pos="768"/>
          <note pan="0" key="20" len="12" vol="195" pos="816"/>
          <note pan="0" key="20" len="12" vol="195" pos="828"/>
          <note pan="0" key="20" len="12" vol="195" pos="840"/>
          <note pan="0" key="20" len="12" vol="195" pos="852"/>
          <note pan="0" key="20" len="12" vol="195" pos="864"/>
          <note pan="0" key="20" len="12" vol="195" pos="876"/>
          <note pan="0" key="20" len="12" vol="195" pos="888"/>
          <note pan="0" key="20" len="12" vol="195" pos="900"/>
          <note pan="0" key="20" len="12" vol="195" pos="912"/>
          <note pan="0" key="20" len="12" vol="195" pos="924"/>
          <note pan="0" key="20" len="12" vol="195" pos="936"/>
          <note pan="0" key="20" len="12" vol="195" pos="948"/>
          <note pan="0" key="22" len="48" vol="195" pos="960"/>
          <note pan="0" key="22" len="12" vol="195" pos="1008"/>
          <note pan="0" key="22" len="12" vol="195" pos="1020"/>
          <note pan="0" key="22" len="12" vol="195" pos="1032"/>
          <note pan="0" key="22" len="12" vol="195" pos="1044"/>
          <note pan="0" key="22" len="12" vol="195" pos="1056"/>
          <note pan="0" key="22" len="12" vol="195" pos="1068"/>
          <note pan="0" key="22" len="12" vol="195" pos="1080"/>
          <note pan="0" key="22" len="12" vol="195" pos="1092"/>
          <note pan="0" key="22" len="12" vol="195" pos="1104"/>
          <note pan="0" key="22" len="12" vol="195" pos="1116"/>
          <note pan="0" key="22" len="12" vol="195" pos="1128"/>
          <note pan="0" key="22" len="12" vol="195" pos="1140"/>
          <note pan="0" key="23" len="48" vol="195" pos="1152"/>
          <note pan="0" key="23" len="12" vol="195" pos="1200"/>
          <note pan="0" key="23" len="12" vol="195" pos="1212"/>
          <note pan="0" key="23" len="12" vol="195" pos="1224"/>
          <note pan="0" key="23" len="12" vol="195" pos="1236"/>
          <note pan="0" key="23" len="12" vol="195" pos="1248"/>
          <note pan="0" key="23" len="12" vol="195" pos="1260"/>
          <note pan="0" key="23" len="12" vol="195" pos="1272"/>
          <note pan="0" key="23" len="12" vol="195" pos="1284"/>
          <note pan="0" key="23" len="12" vol="195" pos="1296"/>
          <note pan="0" key="23" len="12" vol="195" pos="1308"/>
          <note pan="0" key="23" len="12" vol="195" pos="1320"/>
          <note pan="0" key="23" len="12" vol="195" pos="1332"/>
          <note pan="0" key="25" len="48" vol="195" pos="1344"/>
          <note pan="0" key="25" len="12" vol="195" pos="1392"/>
          <note pan="0" key="25" len="12" vol="195" pos="1404"/>
          <note pan="0" key="25" len="12" vol="195" pos="1416"/>
          <note pan="0" key="25" len="12" vol="195" pos="1428"/>
          <note pan="0" key="26" len="48" vol="195" pos="1440"/>
          <note pan="0" key="26" len="12" vol="195" pos="1488"/>
          <note pan="0" key="26" len="12" vol="195" pos="1500"/>
          <note pan="0" key="26" len="12" vol="195" pos="1512"/>
          <note pan="0" key="26" len="12" vol="195" pos="1524"/>
          <note pan="0" key="15" len="48" vol="195" pos="1536"/>
          <note pan="0" key="15" len="12" vol="195" pos="1584"/>
          <note pan="0" key="15" len="12" vol="195" pos="1596"/>
          <note pan="0" key="15" len="12" vol="195" pos="1608"/>
          <note pan="0" key="15" len="12" vol="195" pos="1620"/>
          <note pan="0" key="15" len="12" vol="195" pos="1632"/>
          <note pan="0" key="15" len="12" vol="195" pos="1644"/>
          <note pan="0" key="15" len="12" vol="195" pos="1656"/>
          <note pan="0" key="15" len="12" vol="195" pos="1668"/>
          <note pan="0" key="15" len="12" vol="195" pos="1680"/>
          <note pan="0" key="15" len="12" vol="195" pos="1692"/>
          <note pan="0" key="15" len="12" vol="195" pos="1704"/>
          <note pan="0" key="15" len="12" vol="195" pos="1716"/>
          <note pan="0" key="25" len="48" vol="195" pos="1728"/>
          <note pan="0" key="25" len="12" vol="195" pos="1776"/>
          <note pan="0" key="25" len="12" vol="195" pos="1788"/>
          <note pan="0" key="25" len="12" vol="195" pos="1800"/>
          <note pan="0" key="25" len="12" vol="195" pos="1812"/>
          <note pan="0" key="25" len="12" vol="195" pos="1824"/>
          <note pan="0" key="25" len="12" vol="195" pos="1836"/>
          <note pan="0" key="25" len="12" vol="195" pos="1848"/>
          <note pan="0" key="25" len="12" vol="195" pos="1860"/>
          <note pan="0" key="25" len="12" vol="195" pos="1872"/>
          <note pan="0" key="25" len="12" vol="195" pos="1884"/>
          <note pan="0" key="25" len="12" vol="195" pos="1896"/>
          <note pan="0" key="25" len="12" vol="195" pos="1908"/>
          <note pan="0" key="24" len="48" vol="195" pos="1920"/>
          <note pan="0" key="24" len="12" vol="195" pos="1968"/>
          <note pan="0" key="24" len="12" vol="195" pos="1980"/>
          <note pan="0" key="24" len="12" vol="195" pos="1992"/>
          <note pan="0" key="24" len="12" vol="195" pos="2004"/>
          <note pan="0" key="24" len="12" vol="195" pos="2016"/>
          <note pan="0" key="24" len="12" vol="195" pos="2028"/>
          <note pan="0" key="24" len="12" vol="195" pos="2040"/>
          <note pan="0" key="24" len="12" vol="195" pos="2052"/>
          <note pan="0" key="24" len="12" vol="195" pos="2064"/>
          <note pan="0" key="24" len="12" vol="195" pos="2076"/>
          <note pan="0" key="24" len="12" vol="195" pos="2088"/>
          <note pan="0" key="24" len="12" vol="195" pos="2100"/>
          <note pan="0" key="20" len="48" vol="195" pos="2112"/>
          <note pan="0" key="20" len="12" vol="195" pos="2160"/>
          <note pan="0" key="20" len="12" vol="195" pos="2172"/>
          <note pan="0" key="20" len="12" vol="195" pos="2184"/>
          <note pan="0" key="20" len="12" vol="195" pos="2196"/>
          <note pan="0" key="18" len="48" vol="195" pos="2208"/>
          <note pan="0" key="18" len="12" vol="195" pos="2256"/>
          <note pan="0" key="18" len="12" vol="195" pos="2268"/>
          <note pan="0" key="18" len="12" vol="195" pos="2280"/>
          <note pan="0" key="18" len="12" vol="195" pos="2292"/>
          <note pan="0" key="16" len="48" vol="195" pos="2304"/>
          <note pan="0" key="16" len="12" vol="195" pos="2352"/>
          <note pan="0" key="16" len="12" vol="195" pos="2364"/>
          <note pan="0" key="16" len="12" vol="195" pos="2376"/>
          <note pan="0" key="16" len="12" vol="195" pos="2388"/>
          <note pan="0" key="16" len="48" vol="195" pos="2400"/>
          <note pan="0" key="16" len="12" vol="195" pos="2448"/>
          <note pan="0" key="16" len="12" vol="195" pos="2460"/>
          <note pan="0" key="16" len="12" vol="195" pos="2472"/>
          <note pan="0" key="16" len="12" vol="195" pos="2484"/>
          <note pan="0" key="23" len="48" vol="195" pos="2496"/>
          <note pan="0" key="23" len="12" vol="195" pos="2544"/>
          <note pan="0" key="23" len="12" vol="195" pos="2556"/>
          <note pan="0" key="23" len="12" vol="195" pos="2568"/>
          <note pan="0" key="23" len="12" vol="195" pos="2580"/>
          <note pan="0" key="23" len="12" vol="195" pos="2592"/>
          <note pan="0" key="23" len="12" vol="195" pos="2604"/>
          <note pan="0" key="23" len="12" vol="195" pos="2616"/>
          <note pan="0" key="23" len="12" vol="195" pos="2628"/>
          <note pan="0" key="23" len="12" vol="195" pos="2640"/>
          <note pan="0" key="23" len="12" vol="195" pos="2652"/>
          <note pan="0" key="23" len="12" vol="195" pos="2664"/>
          <note pan="0" key="23" len="12" vol="195" pos="2676"/>
          <note pan="0" key="25" len="48" vol="195" pos="2688"/>
          <note pan="0" key="25" len="12" vol="195" pos="2736"/>
          <note pan="0" key="25" len="12" vol="195" pos="2748"/>
          <note pan="0" key="25" len="12" vol="195" pos="2760"/>
          <note pan="0" key="25" len="12" vol="195" pos="2772"/>
          <note pan="0" key="25" len="12" vol="195" pos="2784"/>
          <note pan="0" key="25" len="12" vol="195" pos="2796"/>
          <note pan="0" key="25" len="12" vol="195" pos="2808"/>
          <note pan="0" key="25" len="12" vol="195" pos="2820"/>
          <note pan="0" key="25" len="12" vol="195" pos="2832"/>
          <note pan="0" key="25" len="12" vol="195" pos="2844"/>
          <note pan="0" key="25" len="12" vol="195" pos="2856"/>
          <note pan="0" key="25" len="12" vol="195" pos="2868"/>
          <note pan="0" key="25" len="96" vol="197" pos="2880"/>
          <note pan="0" key="22" len="96" vol="197" pos="2976"/>
        </pattern>
        <pattern steps="16" muted="0" pos="50304" name="" type="1">
          <note pan="0" key="15" len="48" vol="197" pos="0"/>
          <note pan="0" key="15" len="24" vol="197" pos="48"/>
          <note pan="0" key="15" len="24" vol="197" pos="72"/>
          <note pan="0" key="15" len="24" vol="197" pos="96"/>
          <note pan="0" key="15" len="24" vol="197" pos="120"/>
          <note pan="0" key="15" len="24" vol="197" pos="144"/>
          <note pan="0" key="15" len="12" vol="197" pos="168"/>
          <note pan="0" key="15" len="12" vol="197" pos="180"/>
          <note pan="0" key="15" len="24" vol="197" pos="192"/>
          <note pan="0" key="15" len="24" vol="197" pos="216"/>
          <note pan="0" key="15" len="12" vol="197" pos="240"/>
          <note pan="0" key="15" len="12" vol="197" pos="252"/>
          <note pan="0" key="15" len="24" vol="197" pos="264"/>
          <note pan="0" key="15" len="24" vol="197" pos="288"/>
          <note pan="0" key="15" len="24" vol="197" pos="312"/>
          <note pan="0" key="15" len="48" vol="197" pos="336"/>
        </pattern>
        <pattern steps="16" muted="0" pos="50688" name="" type="1">
          <note pan="0" key="15" len="48" vol="197" pos="0"/>
          <note pan="0" key="15" len="24" vol="197" pos="48"/>
          <note pan="0" key="15" len="24" vol="197" pos="72"/>
          <note pan="0" key="15" len="24" vol="197" pos="96"/>
          <note pan="0" key="15" len="24" vol="197" pos="120"/>
          <note pan="0" key="15" len="24" vol="197" pos="144"/>
          <note pan="0" key="15" len="12" vol="197" pos="168"/>
          <note pan="0" key="15" len="12" vol="197" pos="180"/>
          <note pan="0" key="15" len="24" vol="197" pos="192"/>
          <note pan="0" key="15" len="24" vol="197" pos="216"/>
          <note pan="0" key="15" len="12" vol="197" pos="240"/>
          <note pan="0" key="15" len="12" vol="197" pos="252"/>
          <note pan="0" key="15" len="24" vol="197" pos="264"/>
          <note pan="0" key="15" len="24" vol="197" pos="288"/>
          <note pan="0" key="15" len="24" vol="197" pos="312"/>
          <note pan="0" key="15" len="48" vol="197" pos="336"/>
        </pattern>
        <pattern steps="16" muted="0" pos="51072" name="" type="1">
          <note pan="0" key="15" len="48" vol="197" pos="0"/>
          <note pan="0" key="15" len="24" vol="197" pos="48"/>
          <note pan="0" key="15" len="24" vol="197" pos="72"/>
          <note pan="0" key="15" len="24" vol="197" pos="96"/>
          <note pan="0" key="15" len="24" vol="197" pos="120"/>
          <note pan="0" key="15" len="24" vol="197" pos="144"/>
          <note pan="0" key="15" len="12" vol="197" pos="168"/>
          <note pan="0" key="15" len="12" vol="197" pos="180"/>
          <note pan="0" key="15" len="24" vol="197" pos="192"/>
          <note pan="0" key="15" len="24" vol="197" pos="216"/>
          <note pan="0" key="15" len="12" vol="197" pos="240"/>
          <note pan="0" key="15" len="12" vol="197" pos="252"/>
          <note pan="0" key="15" len="24" vol="197" pos="264"/>
          <note pan="0" key="15" len="24" vol="197" pos="288"/>
          <note pan="0" key="15" len="24" vol="197" pos="312"/>
          <note pan="0" key="15" len="48" vol="197" pos="336"/>
        </pattern>
        <pattern steps="16" muted="0" pos="51456" name="" type="1">
          <note pan="0" key="15" len="48" vol="197" pos="0"/>
          <note pan="0" key="15" len="24" vol="197" pos="48"/>
          <note pan="0" key="15" len="24" vol="197" pos="72"/>
          <note pan="0" key="15" len="24" vol="197" pos="96"/>
          <note pan="0" key="15" len="24" vol="197" pos="120"/>
          <note pan="0" key="15" len="24" vol="197" pos="144"/>
          <note pan="0" key="15" len="12" vol="197" pos="168"/>
          <note pan="0" key="15" len="12" vol="197" pos="180"/>
          <note pan="0" key="15" len="24" vol="197" pos="192"/>
          <note pan="0" key="15" len="24" vol="197" pos="216"/>
          <note pan="0" key="15" len="12" vol="197" pos="240"/>
          <note pan="0" key="15" len="12" vol="197" pos="252"/>
          <note pan="0" key="15" len="24" vol="197" pos="264"/>
          <note pan="0" key="15" len="24" vol="197" pos="288"/>
          <note pan="0" key="15" len="24" vol="197" pos="312"/>
          <note pan="0" key="15" len="48" vol="197" pos="336"/>
        </pattern>
        <pattern steps="16" muted="0" pos="51840" name="" type="1">
          <note pan="0" key="16" len="48" vol="197" pos="0"/>
          <note pan="0" key="16" len="24" vol="197" pos="48"/>
          <note pan="0" key="16" len="24" vol="197" pos="72"/>
          <note pan="0" key="16" len="24" vol="197" pos="96"/>
          <note pan="0" key="16" len="24" vol="197" pos="120"/>
          <note pan="0" key="16" len="24" vol="197" pos="144"/>
          <note pan="0" key="16" len="12" vol="197" pos="168"/>
          <note pan="0" key="16" len="12" vol="197" pos="180"/>
          <note pan="0" key="16" len="24" vol="197" pos="192"/>
          <note pan="0" key="16" len="24" vol="197" pos="216"/>
          <note pan="0" key="16" len="12" vol="197" pos="240"/>
          <note pan="0" key="16" len="12" vol="197" pos="252"/>
          <note pan="0" key="16" len="24" vol="197" pos="264"/>
          <note pan="0" key="16" len="24" vol="197" pos="288"/>
          <note pan="0" key="16" len="24" vol="197" pos="312"/>
          <note pan="0" key="16" len="48" vol="197" pos="336"/>
        </pattern>
        <pattern steps="16" muted="0" pos="52224" name="" type="1">
          <note pan="0" key="15" len="48" vol="197" pos="0"/>
          <note pan="0" key="15" len="24" vol="197" pos="48"/>
          <note pan="0" key="15" len="24" vol="197" pos="72"/>
          <note pan="0" key="15" len="24" vol="197" pos="96"/>
          <note pan="0" key="15" len="24" vol="197" pos="120"/>
          <note pan="0" key="15" len="24" vol="197" pos="144"/>
          <note pan="0" key="15" len="12" vol="197" pos="168"/>
          <note pan="0" key="15" len="12" vol="197" pos="180"/>
          <note pan="0" key="15" len="24" vol="197" pos="192"/>
          <note pan="0" key="15" len="24" vol="197" pos="216"/>
          <note pan="0" key="15" len="12" vol="197" pos="240"/>
          <note pan="0" key="15" len="12" vol="197" pos="252"/>
          <note pan="0" key="15" len="24" vol="197" pos="264"/>
          <note pan="0" key="15" len="24" vol="197" pos="288"/>
          <note pan="0" key="15" len="24" vol="197" pos="312"/>
          <note pan="0" key="15" len="48" vol="197" pos="336"/>
        </pattern>
        <pattern steps="16" muted="0" pos="52608" name="" type="1">
          <note pan="0" key="20" len="48" vol="197" pos="0"/>
          <note pan="0" key="20" len="24" vol="197" pos="48"/>
          <note pan="0" key="20" len="24" vol="197" pos="72"/>
          <note pan="0" key="20" len="24" vol="197" pos="96"/>
          <note pan="0" key="20" len="24" vol="197" pos="120"/>
          <note pan="0" key="20" len="24" vol="197" pos="144"/>
          <note pan="0" key="20" len="12" vol="197" pos="168"/>
          <note pan="0" key="20" len="12" vol="197" pos="180"/>
          <note pan="0" key="20" len="24" vol="197" pos="192"/>
          <note pan="0" key="20" len="24" vol="197" pos="216"/>
          <note pan="0" key="20" len="12" vol="197" pos="240"/>
          <note pan="0" key="20" len="12" vol="197" pos="252"/>
          <note pan="0" key="20" len="24" vol="197" pos="264"/>
          <note pan="0" key="20" len="24" vol="197" pos="288"/>
          <note pan="0" key="20" len="24" vol="197" pos="312"/>
          <note pan="0" key="20" len="48" vol="197" pos="336"/>
        </pattern>
        <pattern steps="16" muted="0" pos="53376" name="" type="1">
          <note pan="0" key="11" len="48" vol="195" pos="0"/>
          <note pan="0" key="11" len="12" vol="195" pos="48"/>
          <note pan="0" key="11" len="12" vol="195" pos="60"/>
          <note pan="0" key="11" len="12" vol="195" pos="72"/>
          <note pan="0" key="11" len="12" vol="195" pos="84"/>
          <note pan="0" key="11" len="12" vol="195" pos="96"/>
          <note pan="0" key="11" len="12" vol="195" pos="108"/>
          <note pan="0" key="11" len="12" vol="195" pos="120"/>
          <note pan="0" key="11" len="12" vol="195" pos="132"/>
          <note pan="0" key="11" len="12" vol="195" pos="144"/>
          <note pan="0" key="11" len="12" vol="195" pos="156"/>
          <note pan="0" key="11" len="12" vol="195" pos="168"/>
          <note pan="0" key="11" len="12" vol="195" pos="180"/>
          <note pan="0" key="13" len="48" vol="195" pos="192"/>
          <note pan="0" key="13" len="12" vol="195" pos="240"/>
          <note pan="0" key="13" len="12" vol="195" pos="252"/>
          <note pan="0" key="13" len="12" vol="195" pos="264"/>
          <note pan="0" key="13" len="12" vol="195" pos="276"/>
          <note pan="0" key="13" len="12" vol="195" pos="288"/>
          <note pan="0" key="13" len="12" vol="195" pos="300"/>
          <note pan="0" key="13" len="12" vol="195" pos="312"/>
          <note pan="0" key="13" len="12" vol="195" pos="324"/>
          <note pan="0" key="13" len="12" vol="195" pos="336"/>
          <note pan="0" key="13" len="12" vol="195" pos="348"/>
          <note pan="0" key="13" len="12" vol="195" pos="360"/>
          <note pan="0" key="13" len="12" vol="195" pos="372"/>
        </pattern>
        <pattern steps="16" muted="0" pos="53760" name="" type="1">
          <note pan="0" key="15" len="48" vol="195" pos="0"/>
          <note pan="0" key="15" len="12" vol="195" pos="48"/>
          <note pan="0" key="15" len="12" vol="195" pos="60"/>
          <note pan="0" key="15" len="12" vol="195" pos="72"/>
          <note pan="0" key="15" len="12" vol="195" pos="84"/>
          <note pan="0" key="15" len="12" vol="195" pos="96"/>
          <note pan="0" key="15" len="12" vol="195" pos="108"/>
          <note pan="0" key="15" len="12" vol="195" pos="120"/>
          <note pan="0" key="15" len="12" vol="195" pos="132"/>
          <note pan="0" key="15" len="12" vol="195" pos="144"/>
          <note pan="0" key="15" len="12" vol="195" pos="156"/>
          <note pan="0" key="15" len="12" vol="195" pos="168"/>
          <note pan="0" key="15" len="12" vol="195" pos="180"/>
          <note pan="0" key="15" len="12" vol="195" pos="192"/>
          <note pan="0" key="15" len="12" vol="195" pos="204"/>
          <note pan="0" key="15" len="12" vol="195" pos="216"/>
          <note pan="0" key="15" len="12" vol="195" pos="228"/>
          <note pan="0" key="15" len="12" vol="195" pos="240"/>
          <note pan="0" key="15" len="12" vol="195" pos="252"/>
          <note pan="0" key="15" len="12" vol="195" pos="264"/>
          <note pan="0" key="15" len="12" vol="195" pos="276"/>
          <note pan="0" key="15" len="12" vol="195" pos="288"/>
          <note pan="0" key="15" len="12" vol="195" pos="300"/>
          <note pan="0" key="15" len="12" vol="195" pos="312"/>
          <note pan="0" key="15" len="12" vol="195" pos="324"/>
          <note pan="0" key="15" len="12" vol="195" pos="336"/>
          <note pan="0" key="15" len="12" vol="195" pos="348"/>
          <note pan="0" key="15" len="12" vol="195" pos="360"/>
          <note pan="0" key="15" len="12" vol="195" pos="372"/>
        </pattern>
        <pattern steps="16" muted="0" pos="54144" name="" type="1">
          <note pan="0" key="13" len="48" vol="195" pos="0"/>
          <note pan="0" key="13" len="12" vol="195" pos="48"/>
          <note pan="0" key="13" len="12" vol="195" pos="60"/>
          <note pan="0" key="13" len="12" vol="195" pos="72"/>
          <note pan="0" key="13" len="12" vol="195" pos="84"/>
          <note pan="0" key="13" len="12" vol="195" pos="96"/>
          <note pan="0" key="13" len="12" vol="195" pos="108"/>
          <note pan="0" key="13" len="12" vol="195" pos="120"/>
          <note pan="0" key="13" len="12" vol="195" pos="132"/>
          <note pan="0" key="13" len="12" vol="195" pos="144"/>
          <note pan="0" key="13" len="12" vol="195" pos="156"/>
          <note pan="0" key="13" len="12" vol="195" pos="168"/>
          <note pan="0" key="13" len="12" vol="195" pos="180"/>
        </pattern>
        <pattern steps="16" muted="0" pos="54336" name="" type="1">
          <note pan="0" key="13" len="48" vol="195" pos="0"/>
          <note pan="0" key="13" len="12" vol="195" pos="48"/>
          <note pan="0" key="13" len="12" vol="195" pos="60"/>
          <note pan="0" key="13" len="12" vol="195" pos="72"/>
          <note pan="0" key="13" len="12" vol="195" pos="84"/>
          <note pan="0" key="13" len="12" vol="195" pos="96"/>
          <note pan="0" key="13" len="12" vol="195" pos="108"/>
          <note pan="0" key="13" len="12" vol="195" pos="120"/>
          <note pan="0" key="13" len="12" vol="195" pos="132"/>
          <note pan="0" key="13" len="12" vol="195" pos="144"/>
          <note pan="0" key="13" len="12" vol="195" pos="156"/>
          <note pan="0" key="13" len="12" vol="195" pos="168"/>
          <note pan="0" key="13" len="12" vol="195" pos="180"/>
        </pattern>
        <pattern steps="16" muted="0" pos="54528" name="" type="1">
          <note pan="0" key="20" len="48" vol="195" pos="0"/>
          <note pan="0" key="20" len="12" vol="195" pos="48"/>
          <note pan="0" key="20" len="12" vol="195" pos="60"/>
          <note pan="0" key="20" len="12" vol="195" pos="72"/>
          <note pan="0" key="20" len="12" vol="195" pos="84"/>
          <note pan="0" key="20" len="12" vol="195" pos="96"/>
          <note pan="0" key="20" len="12" vol="195" pos="108"/>
          <note pan="0" key="20" len="12" vol="195" pos="120"/>
          <note pan="0" key="20" len="12" vol="195" pos="132"/>
          <note pan="0" key="20" len="12" vol="195" pos="144"/>
          <note pan="0" key="20" len="12" vol="195" pos="156"/>
          <note pan="0" key="20" len="12" vol="195" pos="168"/>
          <note pan="0" key="20" len="12" vol="195" pos="180"/>
          <note pan="0" key="20" len="12" vol="195" pos="192"/>
          <note pan="0" key="20" len="12" vol="195" pos="204"/>
          <note pan="0" key="20" len="12" vol="195" pos="216"/>
          <note pan="0" key="20" len="12" vol="195" pos="228"/>
          <note pan="0" key="20" len="12" vol="195" pos="240"/>
          <note pan="0" key="20" len="12" vol="195" pos="252"/>
          <note pan="0" key="20" len="12" vol="195" pos="264"/>
          <note pan="0" key="20" len="12" vol="195" pos="276"/>
          <note pan="0" key="20" len="12" vol="195" pos="288"/>
          <note pan="0" key="20" len="12" vol="195" pos="300"/>
          <note pan="0" key="20" len="12" vol="195" pos="312"/>
          <note pan="0" key="20" len="12" vol="195" pos="324"/>
          <note pan="0" key="20" len="12" vol="195" pos="336"/>
          <note pan="0" key="20" len="12" vol="195" pos="348"/>
          <note pan="0" key="20" len="12" vol="195" pos="360"/>
          <note pan="0" key="20" len="12" vol="195" pos="372"/>
        </pattern>
        <pattern steps="16" muted="0" pos="54912" name="" type="1">
          <note pan="0" key="11" len="48" vol="195" pos="0"/>
          <note pan="0" key="11" len="12" vol="195" pos="48"/>
          <note pan="0" key="11" len="12" vol="195" pos="60"/>
          <note pan="0" key="11" len="12" vol="195" pos="72"/>
          <note pan="0" key="11" len="12" vol="195" pos="84"/>
          <note pan="0" key="11" len="12" vol="195" pos="96"/>
          <note pan="0" key="11" len="12" vol="195" pos="108"/>
          <note pan="0" key="11" len="12" vol="195" pos="120"/>
          <note pan="0" key="11" len="12" vol="195" pos="132"/>
          <note pan="0" key="11" len="12" vol="195" pos="144"/>
          <note pan="0" key="11" len="12" vol="195" pos="156"/>
          <note pan="0" key="11" len="12" vol="195" pos="168"/>
          <note pan="0" key="11" len="12" vol="195" pos="180"/>
          <note pan="0" key="13" len="48" vol="195" pos="192"/>
          <note pan="0" key="13" len="12" vol="195" pos="240"/>
          <note pan="0" key="13" len="12" vol="195" pos="252"/>
          <note pan="0" key="13" len="12" vol="195" pos="264"/>
          <note pan="0" key="13" len="12" vol="195" pos="276"/>
          <note pan="0" key="13" len="12" vol="195" pos="288"/>
          <note pan="0" key="13" len="12" vol="195" pos="300"/>
          <note pan="0" key="13" len="12" vol="195" pos="312"/>
          <note pan="0" key="13" len="12" vol="195" pos="324"/>
          <note pan="0" key="13" len="12" vol="195" pos="336"/>
          <note pan="0" key="13" len="12" vol="195" pos="348"/>
          <note pan="0" key="13" len="12" vol="195" pos="360"/>
          <note pan="0" key="13" len="12" vol="195" pos="372"/>
        </pattern>
        <pattern steps="16" muted="0" pos="55296" name="" type="1">
          <note pan="0" key="15" len="48" vol="195" pos="0"/>
          <note pan="0" key="15" len="12" vol="195" pos="48"/>
          <note pan="0" key="15" len="12" vol="195" pos="60"/>
          <note pan="0" key="15" len="12" vol="195" pos="72"/>
          <note pan="0" key="15" len="12" vol="195" pos="84"/>
          <note pan="0" key="15" len="12" vol="195" pos="96"/>
          <note pan="0" key="15" len="12" vol="195" pos="108"/>
          <note pan="0" key="15" len="12" vol="195" pos="120"/>
          <note pan="0" key="15" len="12" vol="195" pos="132"/>
          <note pan="0" key="15" len="12" vol="195" pos="144"/>
          <note pan="0" key="15" len="12" vol="195" pos="156"/>
          <note pan="0" key="15" len="12" vol="195" pos="168"/>
          <note pan="0" key="15" len="12" vol="195" pos="180"/>
          <note pan="0" key="15" len="12" vol="195" pos="192"/>
          <note pan="0" key="15" len="12" vol="195" pos="204"/>
          <note pan="0" key="15" len="12" vol="195" pos="216"/>
          <note pan="0" key="15" len="12" vol="195" pos="228"/>
          <note pan="0" key="15" len="12" vol="195" pos="240"/>
          <note pan="0" key="15" len="12" vol="195" pos="252"/>
          <note pan="0" key="15" len="12" vol="195" pos="264"/>
          <note pan="0" key="15" len="12" vol="195" pos="276"/>
          <note pan="0" key="15" len="12" vol="195" pos="288"/>
          <note pan="0" key="15" len="12" vol="195" pos="300"/>
          <note pan="0" key="15" len="12" vol="195" pos="312"/>
          <note pan="0" key="15" len="12" vol="195" pos="324"/>
          <note pan="0" key="15" len="12" vol="195" pos="336"/>
          <note pan="0" key="15" len="12" vol="195" pos="348"/>
          <note pan="0" key="15" len="12" vol="195" pos="360"/>
          <note pan="0" key="15" len="12" vol="195" pos="372"/>
        </pattern>
        <pattern steps="16" muted="0" pos="55680" name="" type="1">
          <note pan="0" key="20" len="48" vol="195" pos="0"/>
          <note pan="0" key="20" len="12" vol="195" pos="48"/>
          <note pan="0" key="20" len="12" vol="195" pos="60"/>
          <note pan="0" key="20" len="12" vol="195" pos="72"/>
          <note pan="0" key="20" len="12" vol="195" pos="84"/>
          <note pan="0" key="20" len="12" vol="195" pos="96"/>
          <note pan="0" key="20" len="12" vol="195" pos="108"/>
          <note pan="0" key="20" len="12" vol="195" pos="120"/>
          <note pan="0" key="20" len="12" vol="195" pos="132"/>
          <note pan="0" key="20" len="12" vol="195" pos="144"/>
          <note pan="0" key="20" len="12" vol="195" pos="156"/>
          <note pan="0" key="20" len="12" vol="195" pos="168"/>
          <note pan="0" key="20" len="12" vol="195" pos="180"/>
          <note pan="0" key="20" len="12" vol="195" pos="192"/>
          <note pan="0" key="20" len="12" vol="195" pos="204"/>
          <note pan="0" key="20" len="12" vol="195" pos="216"/>
          <note pan="0" key="20" len="12" vol="195" pos="228"/>
          <note pan="0" key="20" len="12" vol="195" pos="240"/>
          <note pan="0" key="20" len="12" vol="195" pos="252"/>
          <note pan="0" key="20" len="12" vol="195" pos="264"/>
          <note pan="0" key="20" len="12" vol="195" pos="276"/>
          <note pan="0" key="20" len="12" vol="195" pos="288"/>
          <note pan="0" key="20" len="12" vol="195" pos="300"/>
          <note pan="0" key="20" len="12" vol="195" pos="312"/>
          <note pan="0" key="20" len="12" vol="195" pos="324"/>
          <note pan="0" key="20" len="12" vol="195" pos="336"/>
          <note pan="0" key="20" len="12" vol="195" pos="348"/>
          <note pan="0" key="20" len="12" vol="195" pos="360"/>
          <note pan="0" key="20" len="12" vol="195" pos="372"/>
        </pattern>
        <pattern steps="16" muted="0" pos="56064" name="" type="1">
          <note pan="0" key="11" len="192" vol="197" pos="0"/>
          <note pan="0" key="13" len="96" vol="197" pos="192"/>
          <note pan="0" key="13" len="96" vol="197" pos="288"/>
        </pattern>
        <pattern steps="16" muted="0" pos="52992" name="" type="1">
          <note pan="0" key="18" len="48" vol="197" pos="0"/>
          <note pan="0" key="18" len="24" vol="197" pos="48"/>
          <note pan="0" key="18" len="24" vol="197" pos="72"/>
          <note pan="0" key="18" len="24" vol="197" pos="96"/>
          <note pan="0" key="18" len="24" vol="197" pos="120"/>
          <note pan="0" key="18" len="24" vol="197" pos="144"/>
          <note pan="0" key="18" len="12" vol="197" pos="168"/>
          <note pan="0" key="18" len="12" vol="197" pos="180"/>
          <note pan="0" key="18" len="24" vol="197" pos="192"/>
          <note pan="0" key="18" len="24" vol="197" pos="216"/>
          <note pan="0" key="18" len="12" vol="197" pos="240"/>
          <note pan="0" key="18" len="12" vol="197" pos="252"/>
          <note pan="0" key="18" len="24" vol="197" pos="264"/>
          <note pan="0" key="18" len="24" vol="197" pos="288"/>
          <note pan="0" key="18" len="24" vol="197" pos="312"/>
          <note pan="0" key="18" len="48" vol="197" pos="336"/>
        </pattern>
        <pattern steps="16" muted="0" pos="56448" name="" type="1">
          <note pan="0" key="15" len="384" vol="200" pos="0"/>
          <note pan="0" key="13" len="384" vol="200" pos="384"/>
          <note pan="0" key="12" len="384" vol="200" pos="768"/>
          <note pan="0" key="16" len="384" vol="200" pos="1152"/>
          <note pan="0" key="15" len="384" vol="200" pos="1536"/>
          <note pan="0" key="13" len="384" vol="200" pos="1920"/>
          <note pan="0" key="12" len="384" vol="200" pos="2304"/>
          <note pan="0" key="16" len="384" vol="200" pos="2688"/>
        </pattern>
        <pattern steps="16" muted="0" pos="59520" name="" type="1">
          <note pan="0" key="15" len="48" vol="200" pos="0"/>
          <note pan="0" key="15" len="12" vol="200" pos="48"/>
          <note pan="0" key="15" len="12" vol="200" pos="60"/>
          <note pan="0" key="15" len="12" vol="200" pos="72"/>
          <note pan="0" key="15" len="12" vol="200" pos="84"/>
          <note pan="0" key="15" len="12" vol="200" pos="96"/>
          <note pan="0" key="15" len="12" vol="200" pos="108"/>
          <note pan="0" key="15" len="12" vol="200" pos="120"/>
          <note pan="0" key="15" len="12" vol="200" pos="132"/>
          <note pan="0" key="15" len="12" vol="200" pos="144"/>
          <note pan="0" key="15" len="12" vol="200" pos="156"/>
          <note pan="0" key="15" len="12" vol="200" pos="168"/>
          <note pan="0" key="15" len="12" vol="200" pos="180"/>
          <note pan="0" key="15" len="12" vol="200" pos="192"/>
          <note pan="0" key="15" len="12" vol="200" pos="204"/>
          <note pan="0" key="15" len="12" vol="200" pos="216"/>
          <note pan="0" key="15" len="12" vol="200" pos="228"/>
          <note pan="0" key="15" len="12" vol="200" pos="240"/>
          <note pan="0" key="15" len="12" vol="200" pos="252"/>
          <note pan="0" key="15" len="12" vol="200" pos="264"/>
          <note pan="0" key="15" len="12" vol="200" pos="276"/>
          <note pan="0" key="15" len="12" vol="200" pos="288"/>
          <note pan="0" key="15" len="12" vol="200" pos="300"/>
          <note pan="0" key="15" len="12" vol="200" pos="312"/>
          <note pan="0" key="15" len="12" vol="200" pos="324"/>
          <note pan="0" key="15" len="12" vol="200" pos="336"/>
          <note pan="0" key="15" len="12" vol="200" pos="348"/>
          <note pan="0" key="15" len="12" vol="200" pos="360"/>
          <note pan="0" key="15" len="12" vol="200" pos="372"/>
          <note pan="0" key="13" len="48" vol="200" pos="384"/>
          <note pan="0" key="13" len="12" vol="200" pos="432"/>
          <note pan="0" key="13" len="12" vol="200" pos="444"/>
          <note pan="0" key="13" len="12" vol="200" pos="456"/>
          <note pan="0" key="13" len="12" vol="200" pos="468"/>
          <note pan="0" key="13" len="12" vol="200" pos="480"/>
          <note pan="0" key="13" len="12" vol="200" pos="492"/>
          <note pan="0" key="13" len="12" vol="200" pos="504"/>
          <note pan="0" key="13" len="12" vol="200" pos="516"/>
          <note pan="0" key="13" len="12" vol="200" pos="528"/>
          <note pan="0" key="13" len="12" vol="200" pos="540"/>
          <note pan="0" key="13" len="12" vol="200" pos="552"/>
          <note pan="0" key="13" len="12" vol="200" pos="564"/>
          <note pan="0" key="13" len="12" vol="200" pos="576"/>
          <note pan="0" key="13" len="12" vol="200" pos="588"/>
          <note pan="0" key="13" len="12" vol="200" pos="600"/>
          <note pan="0" key="13" len="12" vol="200" pos="612"/>
          <note pan="0" key="13" len="12" vol="200" pos="624"/>
          <note pan="0" key="13" len="12" vol="200" pos="636"/>
          <note pan="0" key="13" len="12" vol="200" pos="648"/>
          <note pan="0" key="13" len="12" vol="200" pos="660"/>
          <note pan="0" key="13" len="12" vol="200" pos="672"/>
          <note pan="0" key="13" len="12" vol="200" pos="684"/>
          <note pan="0" key="13" len="12" vol="200" pos="696"/>
          <note pan="0" key="13" len="12" vol="200" pos="708"/>
          <note pan="0" key="13" len="12" vol="200" pos="720"/>
          <note pan="0" key="13" len="12" vol="200" pos="732"/>
          <note pan="0" key="13" len="12" vol="200" pos="744"/>
          <note pan="0" key="13" len="12" vol="200" pos="756"/>
          <note pan="0" key="12" len="48" vol="200" pos="768"/>
          <note pan="0" key="12" len="12" vol="200" pos="816"/>
          <note pan="0" key="12" len="12" vol="200" pos="828"/>
          <note pan="0" key="12" len="12" vol="200" pos="840"/>
          <note pan="0" key="12" len="12" vol="200" pos="852"/>
          <note pan="0" key="12" len="12" vol="200" pos="864"/>
          <note pan="0" key="12" len="12" vol="200" pos="876"/>
          <note pan="0" key="12" len="12" vol="200" pos="888"/>
          <note pan="0" key="12" len="12" vol="200" pos="900"/>
          <note pan="0" key="12" len="12" vol="200" pos="912"/>
          <note pan="0" key="12" len="12" vol="200" pos="924"/>
          <note pan="0" key="12" len="12" vol="200" pos="936"/>
          <note pan="0" key="12" len="12" vol="200" pos="948"/>
          <note pan="0" key="12" len="12" vol="200" pos="960"/>
          <note pan="0" key="12" len="12" vol="200" pos="972"/>
          <note pan="0" key="12" len="12" vol="200" pos="984"/>
          <note pan="0" key="12" len="12" vol="200" pos="996"/>
          <note pan="0" key="12" len="12" vol="200" pos="1008"/>
          <note pan="0" key="12" len="12" vol="200" pos="1020"/>
          <note pan="0" key="12" len="12" vol="200" pos="1032"/>
          <note pan="0" key="12" len="12" vol="200" pos="1044"/>
          <note pan="0" key="12" len="12" vol="200" pos="1056"/>
          <note pan="0" key="12" len="12" vol="200" pos="1068"/>
          <note pan="0" key="12" len="12" vol="200" pos="1080"/>
          <note pan="0" key="12" len="12" vol="200" pos="1092"/>
          <note pan="0" key="12" len="12" vol="200" pos="1104"/>
          <note pan="0" key="12" len="12" vol="200" pos="1116"/>
          <note pan="0" key="12" len="12" vol="200" pos="1128"/>
          <note pan="0" key="12" len="12" vol="200" pos="1140"/>
          <note pan="0" key="16" len="48" vol="200" pos="1152"/>
          <note pan="0" key="16" len="12" vol="200" pos="1200"/>
          <note pan="0" key="16" len="12" vol="200" pos="1212"/>
          <note pan="0" key="16" len="12" vol="200" pos="1224"/>
          <note pan="0" key="16" len="12" vol="200" pos="1236"/>
          <note pan="0" key="16" len="12" vol="200" pos="1248"/>
          <note pan="0" key="16" len="12" vol="200" pos="1260"/>
          <note pan="0" key="16" len="12" vol="200" pos="1272"/>
          <note pan="0" key="16" len="12" vol="200" pos="1284"/>
          <note pan="0" key="16" len="12" vol="200" pos="1296"/>
          <note pan="0" key="16" len="12" vol="200" pos="1308"/>
          <note pan="0" key="16" len="12" vol="200" pos="1320"/>
          <note pan="0" key="16" len="12" vol="200" pos="1332"/>
          <note pan="0" key="16" len="12" vol="200" pos="1344"/>
          <note pan="0" key="16" len="12" vol="200" pos="1356"/>
          <note pan="0" key="16" len="12" vol="200" pos="1368"/>
          <note pan="0" key="16" len="12" vol="200" pos="1380"/>
          <note pan="0" key="16" len="12" vol="200" pos="1392"/>
          <note pan="0" key="16" len="12" vol="200" pos="1404"/>
          <note pan="0" key="16" len="12" vol="200" pos="1416"/>
          <note pan="0" key="16" len="12" vol="200" pos="1428"/>
          <note pan="0" key="16" len="12" vol="200" pos="1440"/>
          <note pan="0" key="16" len="12" vol="200" pos="1452"/>
          <note pan="0" key="16" len="12" vol="200" pos="1464"/>
          <note pan="0" key="16" len="12" vol="200" pos="1476"/>
          <note pan="0" key="16" len="12" vol="200" pos="1488"/>
          <note pan="0" key="16" len="12" vol="200" pos="1500"/>
          <note pan="0" key="16" len="12" vol="200" pos="1512"/>
          <note pan="0" key="16" len="12" vol="200" pos="1524"/>
        </pattern>
        <pattern steps="16" muted="0" pos="61056" name="" type="1">
          <note pan="0" key="15" len="48" vol="200" pos="0"/>
          <note pan="0" key="15" len="12" vol="200" pos="48"/>
          <note pan="0" key="15" len="12" vol="200" pos="60"/>
          <note pan="0" key="15" len="12" vol="200" pos="72"/>
          <note pan="0" key="15" len="12" vol="200" pos="84"/>
          <note pan="0" key="15" len="12" vol="200" pos="96"/>
          <note pan="0" key="15" len="12" vol="200" pos="108"/>
          <note pan="0" key="15" len="12" vol="200" pos="120"/>
          <note pan="0" key="15" len="12" vol="200" pos="132"/>
          <note pan="0" key="15" len="12" vol="200" pos="144"/>
          <note pan="0" key="15" len="12" vol="200" pos="156"/>
          <note pan="0" key="15" len="12" vol="200" pos="168"/>
          <note pan="0" key="15" len="12" vol="200" pos="180"/>
          <note pan="0" key="15" len="12" vol="200" pos="192"/>
          <note pan="0" key="15" len="12" vol="200" pos="204"/>
          <note pan="0" key="15" len="12" vol="200" pos="216"/>
          <note pan="0" key="15" len="12" vol="200" pos="228"/>
          <note pan="0" key="15" len="12" vol="200" pos="240"/>
          <note pan="0" key="15" len="12" vol="200" pos="252"/>
          <note pan="0" key="15" len="12" vol="200" pos="264"/>
          <note pan="0" key="15" len="12" vol="200" pos="276"/>
          <note pan="0" key="15" len="12" vol="200" pos="288"/>
          <note pan="0" key="15" len="12" vol="200" pos="300"/>
          <note pan="0" key="15" len="12" vol="200" pos="312"/>
          <note pan="0" key="15" len="12" vol="200" pos="324"/>
          <note pan="0" key="15" len="12" vol="200" pos="336"/>
          <note pan="0" key="15" len="12" vol="200" pos="348"/>
          <note pan="0" key="15" len="12" vol="200" pos="360"/>
          <note pan="0" key="15" len="12" vol="200" pos="372"/>
          <note pan="0" key="13" len="48" vol="200" pos="384"/>
          <note pan="0" key="13" len="12" vol="200" pos="432"/>
          <note pan="0" key="13" len="12" vol="200" pos="444"/>
          <note pan="0" key="13" len="12" vol="200" pos="456"/>
          <note pan="0" key="13" len="12" vol="200" pos="468"/>
          <note pan="0" key="13" len="12" vol="200" pos="480"/>
          <note pan="0" key="13" len="12" vol="200" pos="492"/>
          <note pan="0" key="13" len="12" vol="200" pos="504"/>
          <note pan="0" key="13" len="12" vol="200" pos="516"/>
          <note pan="0" key="13" len="12" vol="200" pos="528"/>
          <note pan="0" key="13" len="12" vol="200" pos="540"/>
          <note pan="0" key="13" len="12" vol="200" pos="552"/>
          <note pan="0" key="13" len="12" vol="200" pos="564"/>
          <note pan="0" key="13" len="12" vol="200" pos="576"/>
          <note pan="0" key="13" len="12" vol="200" pos="588"/>
          <note pan="0" key="13" len="12" vol="200" pos="600"/>
          <note pan="0" key="13" len="12" vol="200" pos="612"/>
          <note pan="0" key="13" len="12" vol="200" pos="624"/>
          <note pan="0" key="13" len="12" vol="200" pos="636"/>
          <note pan="0" key="13" len="12" vol="200" pos="648"/>
          <note pan="0" key="13" len="12" vol="200" pos="660"/>
          <note pan="0" key="13" len="12" vol="200" pos="672"/>
          <note pan="0" key="13" len="12" vol="200" pos="684"/>
          <note pan="0" key="13" len="12" vol="200" pos="696"/>
          <note pan="0" key="13" len="12" vol="200" pos="708"/>
          <note pan="0" key="13" len="12" vol="200" pos="720"/>
          <note pan="0" key="13" len="12" vol="200" pos="732"/>
          <note pan="0" key="13" len="12" vol="200" pos="744"/>
          <note pan="0" key="13" len="12" vol="200" pos="756"/>
          <note pan="0" key="12" len="48" vol="200" pos="768"/>
          <note pan="0" key="12" len="12" vol="200" pos="816"/>
          <note pan="0" key="12" len="12" vol="200" pos="828"/>
          <note pan="0" key="12" len="12" vol="200" pos="840"/>
          <note pan="0" key="12" len="12" vol="200" pos="852"/>
          <note pan="0" key="12" len="12" vol="200" pos="864"/>
          <note pan="0" key="12" len="12" vol="200" pos="876"/>
          <note pan="0" key="12" len="12" vol="200" pos="888"/>
          <note pan="0" key="12" len="12" vol="200" pos="900"/>
          <note pan="0" key="12" len="12" vol="200" pos="912"/>
          <note pan="0" key="12" len="12" vol="200" pos="924"/>
          <note pan="0" key="12" len="12" vol="200" pos="936"/>
          <note pan="0" key="12" len="12" vol="200" pos="948"/>
          <note pan="0" key="12" len="12" vol="200" pos="960"/>
          <note pan="0" key="12" len="12" vol="200" pos="972"/>
          <note pan="0" key="12" len="12" vol="200" pos="984"/>
          <note pan="0" key="12" len="12" vol="200" pos="996"/>
          <note pan="0" key="12" len="12" vol="200" pos="1008"/>
          <note pan="0" key="12" len="12" vol="200" pos="1020"/>
          <note pan="0" key="12" len="12" vol="200" pos="1032"/>
          <note pan="0" key="12" len="12" vol="200" pos="1044"/>
          <note pan="0" key="12" len="12" vol="200" pos="1056"/>
          <note pan="0" key="12" len="12" vol="200" pos="1068"/>
          <note pan="0" key="12" len="12" vol="200" pos="1080"/>
          <note pan="0" key="12" len="12" vol="200" pos="1092"/>
          <note pan="0" key="12" len="12" vol="200" pos="1104"/>
          <note pan="0" key="12" len="12" vol="200" pos="1116"/>
          <note pan="0" key="12" len="12" vol="200" pos="1128"/>
          <note pan="0" key="12" len="12" vol="200" pos="1140"/>
          <note pan="0" key="16" len="48" vol="200" pos="1152"/>
          <note pan="0" key="16" len="12" vol="200" pos="1200"/>
          <note pan="0" key="16" len="12" vol="200" pos="1212"/>
          <note pan="0" key="16" len="12" vol="200" pos="1224"/>
          <note pan="0" key="16" len="12" vol="200" pos="1236"/>
          <note pan="0" key="16" len="12" vol="200" pos="1248"/>
          <note pan="0" key="16" len="12" vol="200" pos="1260"/>
          <note pan="0" key="16" len="12" vol="200" pos="1272"/>
          <note pan="0" key="16" len="12" vol="200" pos="1284"/>
          <note pan="0" key="16" len="12" vol="200" pos="1296"/>
          <note pan="0" key="16" len="12" vol="200" pos="1308"/>
          <note pan="0" key="16" len="12" vol="200" pos="1320"/>
          <note pan="0" key="16" len="12" vol="200" pos="1332"/>
          <note pan="0" key="16" len="12" vol="200" pos="1344"/>
          <note pan="0" key="16" len="12" vol="200" pos="1356"/>
          <note pan="0" key="16" len="12" vol="200" pos="1368"/>
          <note pan="0" key="16" len="12" vol="200" pos="1380"/>
          <note pan="0" key="16" len="12" vol="200" pos="1392"/>
          <note pan="0" key="16" len="12" vol="200" pos="1404"/>
          <note pan="0" key="16" len="12" vol="200" pos="1416"/>
          <note pan="0" key="16" len="12" vol="200" pos="1428"/>
          <note pan="0" key="16" len="12" vol="200" pos="1440"/>
          <note pan="0" key="16" len="12" vol="200" pos="1452"/>
          <note pan="0" key="16" len="12" vol="200" pos="1464"/>
          <note pan="0" key="16" len="12" vol="200" pos="1476"/>
          <note pan="0" key="16" len="12" vol="200" pos="1488"/>
          <note pan="0" key="16" len="12" vol="200" pos="1500"/>
          <note pan="0" key="16" len="12" vol="200" pos="1512"/>
          <note pan="0" key="16" len="12" vol="200" pos="1524"/>
        </pattern>
        <pattern steps="16" muted="0" pos="62592" name="" type="1">
          <note pan="0" key="15" len="192" vol="197" pos="0"/>
          <note pan="0" key="22" len="192" vol="197" pos="192"/>
          <note pan="0" key="23" len="192" vol="197" pos="384"/>
          <note pan="0" key="25" len="192" vol="197" pos="576"/>
          <note pan="0" key="20" len="12" vol="197" pos="768"/>
          <note pan="0" key="20" len="12" vol="197" pos="780"/>
          <note pan="0" key="20" len="12" vol="197" pos="792"/>
          <note pan="0" key="20" len="12" vol="197" pos="804"/>
          <note pan="0" key="20" len="12" vol="197" pos="816"/>
          <note pan="0" key="20" len="12" vol="197" pos="828"/>
          <note pan="0" key="20" len="12" vol="197" pos="840"/>
          <note pan="0" key="20" len="12" vol="197" pos="852"/>
          <note pan="0" key="20" len="12" vol="197" pos="864"/>
          <note pan="0" key="20" len="12" vol="197" pos="876"/>
          <note pan="0" key="20" len="12" vol="197" pos="888"/>
          <note pan="0" key="20" len="12" vol="197" pos="900"/>
          <note pan="0" key="20" len="12" vol="197" pos="912"/>
          <note pan="0" key="20" len="12" vol="197" pos="924"/>
          <note pan="0" key="20" len="12" vol="197" pos="936"/>
          <note pan="0" key="20" len="12" vol="197" pos="948"/>
          <note pan="0" key="22" len="12" vol="197" pos="960"/>
          <note pan="0" key="22" len="12" vol="197" pos="972"/>
          <note pan="0" key="22" len="12" vol="197" pos="984"/>
          <note pan="0" key="22" len="12" vol="197" pos="996"/>
          <note pan="0" key="22" len="12" vol="197" pos="1008"/>
          <note pan="0" key="22" len="12" vol="197" pos="1020"/>
          <note pan="0" key="22" len="12" vol="197" pos="1032"/>
          <note pan="0" key="22" len="12" vol="197" pos="1044"/>
          <note pan="0" key="22" len="12" vol="197" pos="1056"/>
          <note pan="0" key="22" len="12" vol="197" pos="1068"/>
          <note pan="0" key="22" len="12" vol="197" pos="1080"/>
          <note pan="0" key="22" len="12" vol="197" pos="1092"/>
          <note pan="0" key="22" len="12" vol="197" pos="1104"/>
          <note pan="0" key="22" len="12" vol="197" pos="1116"/>
          <note pan="0" key="22" len="12" vol="197" pos="1128"/>
          <note pan="0" key="22" len="12" vol="197" pos="1140"/>
        </pattern>
        <pattern steps="16" muted="0" pos="63744" name="" type="1">
          <note pan="0" key="18" len="12" vol="197" pos="0"/>
          <note pan="0" key="15" len="12" vol="197" pos="12"/>
          <note pan="0" key="17" len="12" vol="197" pos="24"/>
          <note pan="0" key="18" len="12" vol="197" pos="36"/>
          <note pan="0" key="20" len="12" vol="197" pos="48"/>
          <note pan="0" key="17" len="12" vol="197" pos="60"/>
          <note pan="0" key="18" len="12" vol="197" pos="72"/>
          <note pan="0" key="20" len="12" vol="197" pos="84"/>
          <note pan="0" key="22" len="12" vol="197" pos="96"/>
          <note pan="0" key="18" len="12" vol="197" pos="108"/>
          <note pan="0" key="20" len="12" vol="197" pos="120"/>
          <note pan="0" key="22" len="12" vol="197" pos="132"/>
          <note pan="0" key="23" len="12" vol="197" pos="144"/>
          <note pan="0" key="20" len="12" vol="197" pos="156"/>
          <note pan="0" key="22" len="12" vol="197" pos="168"/>
          <note pan="0" key="23" len="12" vol="197" pos="180"/>
          <note pan="0" key="25" len="12" vol="197" pos="192"/>
          <note pan="0" key="23" len="12" vol="197" pos="204"/>
          <note pan="0" key="22" len="12" vol="197" pos="216"/>
          <note pan="0" key="20" len="12" vol="197" pos="228"/>
          <note pan="0" key="18" len="12" vol="197" pos="240"/>
          <note pan="0" key="20" len="12" vol="197" pos="252"/>
          <note pan="0" key="23" len="12" vol="197" pos="264"/>
          <note pan="0" key="22" len="12" vol="197" pos="276"/>
          <note pan="0" key="20" len="12" vol="197" pos="288"/>
          <note pan="0" key="18" len="12" vol="197" pos="300"/>
          <note pan="0" key="17" len="12" vol="197" pos="312"/>
          <note pan="0" key="18" len="12" vol="197" pos="324"/>
          <note pan="0" key="22" len="12" vol="197" pos="336"/>
          <note pan="0" key="20" len="12" vol="197" pos="348"/>
          <note pan="0" key="18" len="12" vol="197" pos="360"/>
          <note pan="0" key="17" len="12" vol="197" pos="372"/>
          <note pan="0" key="15" len="12" vol="197" pos="384"/>
          <note pan="0" key="17" len="12" vol="197" pos="396"/>
          <note pan="0" key="20" len="12" vol="200" pos="408"/>
          <note pan="0" key="18" len="12" vol="200" pos="420"/>
          <note pan="0" key="17" len="12" vol="200" pos="432"/>
          <note pan="0" key="15" len="12" vol="200" pos="444"/>
          <note pan="0" key="13" len="12" vol="200" pos="456"/>
          <note pan="0" key="15" len="12" vol="200" pos="468"/>
          <note pan="0" key="18" len="12" vol="200" pos="480"/>
          <note pan="0" key="17" len="12" vol="200" pos="492"/>
          <note pan="0" key="15" len="12" vol="200" pos="504"/>
          <note pan="0" key="13" len="12" vol="200" pos="516"/>
          <note pan="0" key="17" len="12" vol="200" pos="528"/>
          <note pan="0" key="15" len="12" vol="200" pos="540"/>
          <note pan="0" key="13" len="12" vol="200" pos="552"/>
          <note pan="0" key="15" len="12" vol="200" pos="564"/>
          <note pan="0" key="15" len="192" vol="200" pos="576"/>
        </pattern>
      </track>
      <track solo="0" mutedBeforeSolo="0" muted="0" name="stratobodomarcticaneryus" type="0">
        <instrumenttrack pan="9.6" basenote="57" usemasterpitch="1" vol="200" pitchrange="2" fxch="17">
          <pitch scale_type="linear" value="0" id="6553159"/>
          <instrument name="tripleoscillator">
            <tripleoscillator coarse2="-24" wavetype1="0" userwavefile0="" vol1="19" pan0="0" phoffset2="0" finer1="0" vol0="200" pan1="0" modalgo2="2" modalgo3="2" userwavefile2="" modalgo1="4" finer0="0" phoffset1="0" stphdetun2="0" phoffset0="0" finer2="0" coarse0="0" pan2="0" wavetype0="0" finel0="0" vol2="0" coarse1="0" stphdetun1="0" finel2="0" finel1="0" stphdetun0="0" userwavefile1="" wavetype2="0">
              <key/>
            </tripleoscillator>
          </instrument>
          <eldata fcut="1456" fres="0.89" ftype="17" fwet="0">
            <elvol lspd_syncmode="0" amt="0" lshp="0" lpdel="0" att="0" ctlenvamt="0" dec="0.5" userwavefile="" x100="0" rel="0" sustain="0.5" lspd_numerator="4" latt="0" lspd="0.1" lamt="0" lspd_denominator="4" hold="0.5" pdel="0"/>
            <elcut lspd_syncmode="0" amt="0" lshp="2" lpdel="0" att="0" ctlenvamt="0" dec="0.5" userwavefile="" x100="1" rel="0" sustain="0.5" lspd_numerator="4" latt="0" lspd="0.037" lamt="0" lspd_denominator="4" hold="0.5" pdel="0"/>
            <elres lspd_syncmode="0" amt="0" lshp="1" lpdel="0" att="0" ctlenvamt="0" dec="0.5" userwavefile="" x100="0" rel="0.1" sustain="0.5" lspd_numerator="4" latt="0" lspd="0.152" lamt="0" lspd_denominator="4" hold="0.5" pdel="0"/>
          </eldata>
          <chordcreator chordrange="1" chord-enabled="0" chord="0"/>
          <arpeggiator arprange="1" arpmode="0" arpcycle="0" arptime_syncmode="0" arptime_numerator="4" arpgate="100" arptime="200" arpskip="0" arpmiss="0" arp="0" arptime_denominator="4" arp-enabled="0" arpdir="0"/>
          <midiport inputcontroller="0" outputcontroller="0" readable="0" outputchannel="1" fixedoutputvelocity="-1" outputprogram="1" fixedinputvelocity="-1" fixedoutputnote="-1" inputchannel="0" basevelocity="63" writable="0"/>
          <fxchain enabled="1" numofeffects="7">
            <effect autoquit_syncmode="0" autoquit_denominator="4" autoquit="1" gate="0" wet="1" name="ladspaeffect" on="0" autoquit_numerator="4">
              <ladspacontrols ports="7">
                <port00 data="3.4875"/>
                <port01 data="180"/>
                <port02 data="100"/>
                <port03 data="17"/>
                <port04 data="20000"/>
                <port05 data="0.55"/>
                <port06 data="-0.6875"/>
              </ladspacontrols>
              <key>
                <attribute value="tap_chorusflanger" name="file"/>
                <attribute value="tap_chorusflanger" name="plugin"/>
              </key>
            </effect>
            <effect autoquit_syncmode="0" autoquit_denominator="4" autoquit="1" gate="0" wet="1" name="eq" on="1" autoquit_numerator="4">
              <Eq HP12="0" Peak3bw="0.3" AnalyseIn="1" LP12="1" Outputgain="0.8" HP24="1" HighShelfgain="0" LP24="0" Peak3gain="0" Peak1bw="0.3" Lowshelfactive="0" Peak2gain="0" Highshelfactive="0" Peak1active="0" Peak4bw="0.3" HighShelfres="1.4" Peak4active="0" LP="0" LPres="0.707" HP="1" Lowshelfgain="0" Peak2active="0" HP48="0" Peak4gain="0" LowShelfres="1.4" LPactive="1" Peak3active="0" LP48="0" AnalyseOut="1" HPres="0.707" HPactive="1" Peak2bw="0.3">
                <Inputgain scale_type="log" value="0" id="6442382"/>
                <Peak1gain scale_type="log" value="0" id="988924"/>
                <HPfreq scale_type="log" value="260.717" id="6872021"/>
                <LowShelffreq scale_type="log" value="80" id="7479213"/>
                <Peak1freq scale_type="log" value="120" id="7350563"/>
                <Peak2freq scale_type="log" value="250" id="5255217"/>
                <Peak3freq scale_type="log" value="2000" id="1127550"/>
                <Peak4freq scale_type="log" value="4000" id="1277792"/>
                <Highshelffreq scale_type="log" value="12000" id="6719949"/>
                <LPfreq scale_type="log" value="1667.01" id="1826032"/>
              </Eq>
              <key/>
            </effect>
            <effect autoquit_syncmode="0" autoquit_denominator="4" autoquit="1" gate="0" wet="1" name="waveshaper" on="0" autoquit_numerator="4">
              <waveshapercontrols waveShape="AACAPwAAgD8AAIA/AACAPwAAgD8AAIA/AACAPwAAgD8AAIA/AACAPwAAgD8AAIA/AACAPwAAgD8AAIA/AACAPwAAgD8AAIA/AACAPwAAgD8AAIA/AACAPwAAgD8AAIA/AACAPwAAgD8AAIA/AACAPwAAgD8AAIA/AACAPwAAgD8AAIA/AACAPwAAgD8AAIA/AACAPwAAgD8AAIA/AACAPwAAgD8AAIA/AACAPwAAgD8AAIA/AACAPwAAgD8AAIA/AACAPwAAgD8AAIA/AACAPwAAgD8AAIA/AACAPwAAgD8AAIA/AACAPwAAgD8AAIA/AACAPwAAgD8AAIA/AACAPwAAgD8AAIA/AACAPwAAgD8AAIA/AACAPwAAgD8AAIA/AACAPwAAgD8AAIA/AACAPwAAgD8AAIA/AACAPwAAgD8AAIA/AACAPwAAgD8AAIA/AACAPwAAgD8AAIA/AACAPwAAgD8AAIA/AACAPwAAgD8AAIA/AACAPwAAgD8AAIA/AACAPwAAgD8AAIA/AACAPwAAgD8AAIA/AACAPwAAgD8AAIA/AACAPwAAgD8AAIA/AACAPwAAgD8AAIA/AACAPwAAgD8AAIA/AACAPwAAgD8AAIA/AACAPwAAgD8AAIA/AACAPwAAgD8AAIA/AACAPwAAgD8AAIA/AACAPwAAgD8AAIA/AACAPwAAgD8AAIA/AACAPwAAgD8AAIA/AACAPwAAgD8AAIA/AACAPwAAgD8AAIA/AACAPwAAgD8AAIA/AACAPwAAgD8AAIA/AACAPwAAgD8AAIA/AACAPwAAgD8AAIA/AACAPwAAgD8AAIA/AACAPwAAgD8AAIA/AACAPwAAgD8AAIA/AACAPwAAgD8AAIA/AACAPwAAgD8AAIA/AACAPwAAgD8AAIA/AACAPwAAgD8AAIA/AACAPwAAgD8AAIA/AACAPwAAgD8AAIA/AACAPwAAgD8AAIA/AACAPwAAgD8AAIA/AACAPwAAgD8AAIA/AACAPwAAgD8AAIA/AACAPwAAgD8AAIA/AACAPwAAgD8AAIA/AACAPwAAgD8=" inputGain="5" outputGain="1" clipInput="1"/>
              <key/>
            </effect>
            <effect autoquit_syncmode="0" autoquit_denominator="4" autoquit="1" gate="0" wet="1" name="ladspaeffect" on="1" autoquit_numerator="4">
              <ladspacontrols ports="14" link="1">
                <port01 data="10" link="1"/>
                <port02 data="1" link="1"/>
                <port03 data="20" link="1"/>
                <port04 data="20" link="1"/>
                <port05 data="20" link="1"/>
                <port06 data="20" link="1"/>
                <port07 data="1" link="1"/>
                <port11 data="10"/>
                <port12 data="1"/>
                <port13 data="20"/>
                <port14 data="20"/>
                <port15 data="20"/>
                <port16 data="20"/>
                <port17 data="1"/>
              </ladspacontrols>
              <key>
                <attribute value="caps" name="file"/>
                <attribute value="AmpIV" name="plugin"/>
              </key>
            </effect>
            <effect autoquit_syncmode="0" autoquit_denominator="4" autoquit="1" gate="0" wet="1" name="ladspaeffect" on="0" autoquit_numerator="4">
              <ladspacontrols ports="4" link="1">
                <port01 data="1" link="1"/>
                <port02 data="-11.4" link="1"/>
                <port11 data="1"/>
                <port12 data="-11.4"/>
              </ladspacontrols>
              <key>
                <attribute value="caps" name="file"/>
                <attribute value="CabinetI" name="plugin"/>
              </key>
            </effect>
            <effect autoquit_syncmode="0" autoquit_denominator="4" autoquit="1" gate="0" wet="1" name="ladspaeffect" on="1" autoquit_numerator="4">
              <ladspacontrols ports="4" link="1">
                <port00 link="1">
                  <data scale_type="log" value="6549.87" id="8382794"/>
                </port00>
                <port01 data="9" link="1"/>
                <port10>
                  <data scale_type="log" value="6549.87" id="4111084"/>
                </port10>
                <port11 data="9"/>
              </ladspacontrols>
              <key>
                <attribute value="lowpass_iir_1891" name="file"/>
                <attribute value="lowpass_iir" name="plugin"/>
              </key>
            </effect>
            <effect autoquit_syncmode="0" autoquit_denominator="4" autoquit="1" gate="0" wet="1" name="ladspaeffect" on="1" autoquit_numerator="4">
              <ladspacontrols ports="4">
                <port02 data="0.502"/>
                <port03 data="0.3745"/>
                <port04 data="0.218641"/>
                <port05 data="0.2075"/>
              </ladspacontrols>
              <key>
                <attribute value="caps" name="file"/>
                <attribute value="Plate2x2" name="plugin"/>
              </key>
            </effect>
          </fxchain>
        </instrumenttrack>
        <pattern steps="16" muted="0" pos="47040" name="" type="1">
          <note pan="0" key="73" len="12" vol="195" pos="0"/>
          <note pan="0" key="71" len="12" vol="195" pos="12"/>
          <note pan="0" key="70" len="12" vol="195" pos="24"/>
          <note pan="0" key="68" len="12" vol="195" pos="36"/>
          <note pan="0" key="71" len="12" vol="195" pos="48"/>
          <note pan="0" key="70" len="12" vol="195" pos="60"/>
          <note pan="0" key="68" len="12" vol="195" pos="72"/>
          <note pan="0" key="66" len="12" vol="195" pos="84"/>
          <note pan="0" key="70" len="12" vol="195" pos="96"/>
          <note pan="0" key="68" len="12" vol="195" pos="108"/>
          <note pan="0" key="66" len="12" vol="195" pos="120"/>
          <note pan="0" key="65" len="12" vol="195" pos="132"/>
          <note pan="0" key="68" len="12" vol="195" pos="144"/>
          <note pan="0" key="66" len="12" vol="195" pos="156"/>
          <note pan="0" key="65" len="12" vol="195" pos="168"/>
          <note pan="0" key="66" len="12" vol="195" pos="180"/>
        </pattern>
        <pattern steps="16" muted="0" pos="47232" name="" type="1">
          <note pan="0" key="63" len="120" vol="193" pos="0"/>
          <note pan="0" key="58" len="24" vol="193" pos="120"/>
          <note pan="0" key="66" len="24" vol="193" pos="144"/>
          <note pan="0" key="58" len="24" vol="193" pos="168"/>
          <note pan="0" key="65" len="120" vol="193" pos="192"/>
          <note pan="0" key="65" len="12" vol="193" pos="312"/>
          <note pan="0" key="66" len="12" vol="193" pos="324"/>
          <note pan="0" key="70" len="12" vol="193" pos="336"/>
          <note pan="0" key="66" len="12" vol="193" pos="348"/>
          <note pan="0" key="65" len="12" vol="193" pos="360"/>
          <note pan="0" key="66" len="12" vol="193" pos="372"/>
          <note pan="0" key="70" len="144" vol="193" pos="384"/>
          <note pan="0" key="68" len="24" vol="193" pos="528"/>
          <note pan="0" key="66" len="24" vol="193" pos="552"/>
          <note pan="0" key="65" len="48" vol="193" pos="576"/>
          <note pan="0" key="66" len="48" vol="197" pos="624"/>
          <note pan="0" key="61" len="12" vol="193" pos="672"/>
          <note pan="0" key="61" len="12" vol="193" pos="684"/>
          <note pan="0" key="61" len="12" vol="193" pos="696"/>
          <note pan="0" key="61" len="12" vol="193" pos="708"/>
          <note pan="0" key="58" len="12" vol="193" pos="720"/>
          <note pan="0" key="54" len="12" vol="193" pos="732"/>
          <note pan="0" key="56" len="12" vol="193" pos="744"/>
          <note pan="0" key="58" len="12" vol="193" pos="756"/>
          <note pan="0" key="59" len="96" vol="193" pos="768"/>
          <note pan="0" key="63" len="48" vol="193" pos="864"/>
          <note pan="0" key="66" len="48" vol="193" pos="912"/>
          <note pan="0" key="66" len="96" vol="193" pos="960"/>
          <note pan="0" key="65" len="12" vol="193" pos="1056"/>
          <note pan="0" key="58" len="12" vol="193" pos="1068"/>
          <note pan="0" key="58" len="12" vol="193" pos="1080"/>
          <note pan="0" key="58" len="12" vol="193" pos="1092"/>
          <note pan="0" key="66" len="12" vol="193" pos="1104"/>
          <note pan="0" key="63" len="12" vol="193" pos="1116"/>
          <note pan="0" key="65" len="12" vol="193" pos="1128"/>
          <note pan="0" key="66" len="12" vol="193" pos="1140"/>
          <note pan="0" key="73" len="48" vol="193" pos="1152"/>
          <note pan="0" key="71" len="12" vol="193" pos="1200"/>
          <note pan="0" key="73" len="12" vol="193" pos="1212"/>
          <note pan="0" key="71" len="48" vol="193" pos="1224"/>
          <note pan="0" key="70" len="12" vol="193" pos="1272"/>
          <note pan="0" key="71" len="12" vol="193" pos="1284"/>
          <note pan="0" key="70" len="12" vol="193" pos="1296"/>
          <note pan="0" key="68" len="12" vol="193" pos="1308"/>
          <note pan="0" key="66" len="12" vol="193" pos="1320"/>
          <note pan="0" key="70" len="12" vol="193" pos="1332"/>
          <note pan="0" key="68" len="72" vol="193" pos="1344"/>
          <note pan="0" key="66" len="12" vol="193" pos="1416"/>
          <note pan="0" key="68" len="12" vol="193" pos="1428"/>
          <note pan="0" key="70" len="12" vol="193" pos="1440"/>
          <note pan="0" key="71" len="12" vol="193" pos="1452"/>
          <note pan="0" key="70" len="12" vol="193" pos="1464"/>
          <note pan="0" key="68" len="12" vol="193" pos="1476"/>
          <note pan="0" key="70" len="12" vol="193" pos="1488"/>
          <note pan="0" key="68" len="12" vol="193" pos="1500"/>
          <note pan="0" key="66" len="12" vol="193" pos="1512"/>
          <note pan="0" key="65" len="12" vol="193" pos="1524"/>
          <note pan="0" key="66" len="48" vol="193" pos="1536"/>
          <note pan="0" key="58" len="12" vol="193" pos="1584"/>
          <note pan="0" key="58" len="12" vol="193" pos="1596"/>
          <note pan="0" key="65" len="48" vol="193" pos="1608"/>
          <note pan="0" key="58" len="12" vol="193" pos="1656"/>
          <note pan="0" key="58" len="12" vol="193" pos="1668"/>
          <note pan="0" key="66" len="24" vol="193" pos="1680"/>
          <note pan="0" key="58" len="12" vol="193" pos="1704"/>
          <note pan="0" key="58" len="12" vol="193" pos="1716"/>
          <note pan="0" key="70" len="144" vol="193" pos="1728"/>
          <note pan="0" key="65" len="48" vol="193" pos="1872"/>
          <note pan="0" key="63" len="12" vol="193" pos="1920"/>
          <note pan="0" key="65" len="12" vol="193" pos="1932"/>
          <note pan="0" key="63" len="216" vol="193" pos="1944"/>
          <note pan="0" key="66" len="48" vol="193" pos="2160"/>
          <note pan="0" key="68" len="24" vol="193" pos="2208"/>
          <note pan="0" key="66" len="12" vol="193" pos="2232"/>
          <note pan="0" key="68" len="12" vol="193" pos="2244"/>
          <note pan="0" key="70" len="24" vol="193" pos="2256"/>
          <note pan="0" key="68" len="12" vol="193" pos="2280"/>
          <note pan="0" key="70" len="12" vol="193" pos="2292"/>
          <note pan="0" key="71" len="72" vol="193" pos="2304"/>
          <note pan="0" key="70" len="72" vol="193" pos="2376"/>
          <note pan="0" key="68" len="48" vol="193" pos="2448"/>
          <note pan="0" key="66" len="12" vol="193" pos="2496"/>
          <note pan="0" key="65" len="12" vol="193" pos="2508"/>
          <note pan="0" key="63" len="12" vol="193" pos="2520"/>
          <note pan="0" key="58" len="12" vol="193" pos="2532"/>
          <note pan="0" key="63" len="12" vol="193" pos="2544"/>
          <note pan="0" key="61" len="12" vol="193" pos="2556"/>
          <note pan="0" key="59" len="12" vol="193" pos="2568"/>
          <note pan="0" key="58" len="12" vol="193" pos="2580"/>
          <note pan="0" key="66" len="12" vol="193" pos="2592"/>
          <note pan="0" key="65" len="12" vol="193" pos="2604"/>
          <note pan="0" key="63" len="12" vol="193" pos="2616"/>
          <note pan="0" key="58" len="12" vol="193" pos="2628"/>
          <note pan="0" key="75" len="48" vol="193" pos="2640"/>
          <note pan="0" key="73" len="192" vol="193" pos="2688"/>
        </pattern>
        <pattern steps="16" muted="0" pos="56256" name="" type="0"/>
      </track>
      <track solo="0" mutedBeforeSolo="0" muted="0" name="leadsynth pitch" type="5">
        <automationtrack/>
        <automationpattern tens="1" mute="0" prog="1" len="192" pos="47616" name="stratobodomneryus>Pitch">
          <time value="-200" pos="0"/>
          <time value="-30" pos="24"/>
          <time value="-1" pos="48"/>
          <time value="0" pos="120"/>
          <object id="6553159"/>
        </automationpattern>
        <automationpattern tens="1" mute="0" prog="0" len="192" pos="46848" name="stratobodomneryus>Pitch">
          <time value="0" pos="0"/>
          <object id="6553159"/>
        </automationpattern>
        <automationpattern tens="1" mute="0" prog="2" len="192" pos="48000" name="stratobodomneryus>Pitch">
          <time value="-101" pos="0"/>
          <time value="0" pos="12"/>
          <time value="0" pos="24"/>
          <time value="0" pos="48"/>
          <time value="-1" pos="168"/>
          <time value="-12" pos="180"/>
          <time value="-101" pos="192"/>
          <object id="6553159"/>
        </automationpattern>
        <automationpattern tens="1" mute="0" prog="2" len="192" pos="48192" name="stratobodomneryus>Pitch">
          <time value="-101" pos="0"/>
          <time value="0" pos="24"/>
          <object id="6553159"/>
        </automationpattern>
        <automationpattern tens="1" mute="0" prog="2" len="192" pos="48384" name="stratobodomneryus>Pitch">
          <time value="-101" pos="0"/>
          <time value="0" pos="12"/>
          <object id="6553159"/>
        </automationpattern>
        <automationpattern tens="1" mute="0" prog="2" len="192" pos="48960" name="stratobodomneryus>Pitch">
          <time value="-101" pos="0"/>
          <time value="0" pos="36"/>
          <time value="-3" pos="72"/>
          <time value="0" pos="120"/>
          <time value="1" pos="144"/>
          <object id="6553159"/>
        </automationpattern>
        <automationpattern tens="1" mute="0" prog="2" len="192" pos="49536" name="stratobodomneryus>Pitch">
          <time value="-101" pos="0"/>
          <time value="0" pos="24"/>
          <object id="6553159"/>
        </automationpattern>
        <automationpattern tens="1" mute="0" prog="2" len="192" pos="49728" name="stratobodomneryus>Pitch">
          <time value="-100" pos="144"/>
          <time value="0" pos="156"/>
          <object id="6553159"/>
        </automationpattern>
        <automationpattern tens="1" mute="0" prog="2" len="192" pos="49920" name="stratobodomneryus>Pitch">
          <time value="0" pos="144"/>
          <time value="-200" pos="192"/>
          <object id="6553159"/>
        </automationpattern>
        <automationpattern tens="1" mute="0" prog="0" len="192" pos="5184" name="stratobodomneryus>Pitch">
          <time value="0" pos="0"/>
          <object id="6553159"/>
        </automationpattern>
        <automationpattern tens="1" mute="0" prog="0" len="192" pos="50112" name="stratobodomneryus>Pitch">
          <time value="0" pos="0"/>
          <object id="6553159"/>
        </automationpattern>
        <automationpattern tens="1" mute="0" prog="0" len="192" pos="47808" name="stratobodomneryus>Pitch">
          <time value="0" pos="0"/>
          <object id="6553159"/>
        </automationpattern>
        <automationpattern tens="1" mute="0" prog="0" len="192" pos="59328" name="stratobodomneryus>Pitch">
          <time value="0" pos="0"/>
          <object id="6553159"/>
        </automationpattern>
        <automationpattern tens="1" mute="0" prog="1" len="384" pos="59520" name="stratobodomneryus>Pitch">
          <time value="-198" pos="336"/>
          <time value="0" pos="360"/>
          <object id="6553159"/>
        </automationpattern>
        <automationpattern tens="1" mute="0" prog="1" len="192" pos="60672" name="stratobodomneryus>Pitch">
          <time value="-151" pos="0"/>
          <time value="0" pos="24"/>
          <object id="6553159"/>
        </automationpattern>
        <automationpattern tens="1" mute="0" prog="1" len="192" pos="60864" name="stratobodomneryus>Pitch">
          <time value="-151" pos="0"/>
          <time value="0" pos="24"/>
          <time value="-1" pos="96"/>
          <time value="200" pos="120"/>
          <object id="6553159"/>
        </automationpattern>
        <automationpattern tens="1" mute="0" prog="0" len="192" pos="61056" name="stratobodomneryus>Pitch">
          <time value="0" pos="0"/>
          <object id="6553159"/>
        </automationpattern>
        <automationpattern tens="1" mute="0" prog="1" len="192" pos="61440" name="stratobodomneryus>Pitch">
          <time value="-149" pos="144"/>
          <time value="0" pos="168"/>
          <object id="6553159"/>
        </automationpattern>
        <automationpattern tens="1" mute="0" prog="0" len="192" pos="40704" name="stratobodomneryus>Pitch">
          <time value="0" pos="0"/>
          <object id="6553159"/>
        </automationpattern>
        <automationpattern tens="1" mute="0" prog="1" len="384" pos="42240" name="stratobodomneryus>Pitch">
          <time value="-100" pos="0"/>
          <time value="0" pos="24"/>
          <time value="0" pos="360"/>
          <time value="-200" pos="384"/>
          <object id="6553159"/>
        </automationpattern>
        <automationpattern tens="1" mute="0" prog="0" len="192" pos="42624" name="stratobodomneryus>Pitch">
          <time value="0" pos="0"/>
          <object id="6553159"/>
        </automationpattern>
        <automationpattern tens="1" mute="0" prog="0" len="192" pos="56256" name="stratobodomneryus>Pitch">
          <time value="0" pos="0"/>
          <object id="6553159"/>
        </automationpattern>
        <automationpattern tens="1" mute="0" prog="0" len="192" pos="47424" name="Drag a control while pressing &lt;Ctrl>"/>
      </track>
      <track solo="0" mutedBeforeSolo="0" muted="0" name="celloes" type="0">
        <instrumenttrack pan="0" basenote="57" pitch="0" usemasterpitch="1" vol="52.9" pitchrange="2" fxch="0">
          <instrument name="carlapatchbay">
            <carlapatchbay>
              <CARLA-PROJECT VERSION="2.2">
                <EngineSettings>
                  <ForceStereo>false</ForceStereo>
                  <PreferPluginBridges>false</PreferPluginBridges>
                  <PreferUiBridges>true</PreferUiBridges>
                  <UIsAlwaysOnTop>false</UIsAlwaysOnTop>
                  <MaxParameters>200</MaxParameters>
                  <UIBridgesTimeout>4000</UIBridgesTimeout>
                  <LADSPA_PATH>/home/pass/.ladspa:/usr/lib/ladspa:/usr/local/lib/ladspa</LADSPA_PATH>
                  <DSSI_PATH>/home/pass/.dssi:/usr/lib/dssi:/usr/local/lib/dssi</DSSI_PATH>
                  <LV2_PATH>/home/pass/.lv2:/usr/lib/lv2:/usr/local/lib/lv2</LV2_PATH>
                  <VST2_PATH>/home/pass/.vst:/home/pass/.wine/drive_c/Program Files (x86)/VstPlugins:/home/pass/.wine/drive_c/Program Files/VstPlugins:/home/pass/Music/winvst/VST32:/home/pass/Music/winvst/VST64/Plogue Art et Technologie, Inc:/home/pass/vst:/usr/lib/lxvst:/usr/lib/vst:/usr/local/lib/lxvst:/usr/local/lib/vst/home/pass/.lxvst</VST2_PATH>
                  <VST3_PATH>/home/pass/.vst3:/home/pass/.wine/drive_c/Program Files (x86)/Common Files/VST3:/home/pass/.wine/drive_c/Program Files/Common Files/VST3:/usr/lib/vst3:/usr/local/lib/vst3</VST3_PATH>
                  <SF2_PATH>/home/pass/.sounds/sf2/home/pass/.sounds/sf3:/home/pass/samples/soundfonts:/usr/share/soundfonts:/usr/share/sounds/sf2:/usr/share/sounds/sf3</SF2_PATH>
                  <SFZ_PATH>/home/pass/.sounds/sfz:/home/pass/samples:/usr/share/sounds/sfz</SFZ_PATH>
                </EngineSettings>
                <!-- sfizz -->
                <Plugin>
                  <Info>
                    <Type>LV2</Type>
                    <Name>sfizz</Name>
                    <URI>http://sfztools.github.io/sfizz</URI>
                  </Info>
                  <Data>
                    <Active>Yes</Active>
                    <ControlChannel>1</ControlChannel>
                    <Options>0x3f0</Options>
                    <Parameter>
                      <Index>0</Index>
                      <Name>Volume</Name>
                      <Symbol>volume</Symbol>
                      <Value>0</Value>
                    </Parameter>
                    <Parameter>
                      <Index>1</Index>
                      <Name>Polyphony</Name>
                      <Symbol>num_voices</Symbol>
                      <Value>64</Value>
                    </Parameter>
                    <Parameter>
                      <Index>2</Index>
                      <Name>Internal oversampling factor</Name>
                      <Symbol>oversampling</Symbol>
                      <Value>1</Value>
                    </Parameter>
                    <Parameter>
                      <Index>3</Index>
                      <Name>Preload size</Name>
                      <Symbol>preload_size</Symbol>
                      <Value>8192</Value>
                    </Parameter>
                    <Parameter>
                      <Index>5</Index>
                      <Name>Scala root key</Name>
                      <Symbol>scala_root_key</Symbol>
                      <Value>60</Value>
                    </Parameter>
                    <Parameter>
                      <Index>6</Index>
                      <Name>Tuning frequency</Name>
                      <Symbol>tuning_frequency</Symbol>
                      <Value>440</Value>
                    </Parameter>
                    <Parameter>
                      <Index>7</Index>
                      <Name>Stretched tuning</Name>
                      <Symbol>stretched_tuning</Symbol>
                      <Value>0</Value>
                    </Parameter>
                    <CustomData>
                      <Type>http://lv2plug.in/ns/ext/atom#Path</Type>
                      <Key>http://sfztools.github.io/sfizz:sfzfile</Key>
                      <Value>Strings - Celli Sustain.sfz</Value>
                    </CustomData>
                    <CustomData>
                      <Type>http://lv2plug.in/ns/ext/atom#Path</Type>
                      <Key>http://sfztools.github.io/sfizz:tuningfile</Key>
                      <Value>DefaultScale.scl</Value>
                    </CustomData>
                    <CustomData>
                      <Type>http://lv2plug.in/ns/ext/atom#Int</Type>
                      <Key>http://sfztools.github.io/sfizz:numvoices</Key>
                      <Value>QAAAAA==</Value>
                    </CustomData>
                    <CustomData>
                      <Type>http://lv2plug.in/ns/ext/atom#Int</Type>
                      <Key>http://sfztools.github.io/sfizz:preload_size</Key>
                      <Value>ACAAAA==</Value>
                    </CustomData>
                    <CustomData>
                      <Type>http://lv2plug.in/ns/ext/atom#Int</Type>
                      <Key>http://sfztools.github.io/sfizz:oversampling</Key>
                      <Value>AQAAAA==</Value>
                    </CustomData>
                  </Data>
                </Plugin>
                <Patchbay>
                  <Connection>
                    <Source>sfizz:Left Output</Source>
                    <Target>Audio Output:Left</Target>
                  </Connection>
                  <Connection>
                    <Source>sfizz:Right Output</Source>
                    <Target>Audio Output:Right</Target>
                  </Connection>
                  <Connection>
                    <Source>Midi Input:Capture 1</Source>
                    <Target>sfizz:events-in</Target>
                  </Connection>
                  <Positions>
                    <Position y1="1317" x1="1729" pluginId="0">
                      <Name>sfizz</Name>
                    </Position>
                  </Positions>
                </Patchbay>
              </CARLA-PROJECT>
              <key/>
            </carlapatchbay>
          </instrument>
          <eldata fcut="14000" fres="0.5" ftype="0" fwet="0">
            <elvol lspd_syncmode="0" amt="0" lshp="0" lpdel="0" att="0" ctlenvamt="0" dec="0.5" userwavefile="" x100="0" rel="0.1" sustain="0.5" lspd_numerator="4" latt="0" lspd="0.1" lamt="0" lspd_denominator="4" hold="0.5" pdel="0"/>
            <elcut lspd_syncmode="0" amt="0" lshp="0" lpdel="0" att="0" ctlenvamt="0" dec="0.5" userwavefile="" x100="0" rel="0.1" sustain="0.5" lspd_numerator="4" latt="0" lspd="0.1" lamt="0" lspd_denominator="4" hold="0.5" pdel="0"/>
            <elres lspd_syncmode="0" amt="0" lshp="0" lpdel="0" att="0" ctlenvamt="0" dec="0.5" userwavefile="" x100="0" rel="0.1" sustain="0.5" lspd_numerator="4" latt="0" lspd="0.1" lamt="0" lspd_denominator="4" hold="0.5" pdel="0"/>
          </eldata>
          <chordcreator chordrange="2" chord-enabled="1" chord="0"/>
          <arpeggiator arprange="1" arpmode="0" arpcycle="0" arptime_syncmode="0" arptime_numerator="4" arpgate="100" arptime="200" arpskip="0" arpmiss="0" arp="0" arptime_denominator="4" arp-enabled="0" arpdir="0"/>
          <midiport inputcontroller="0" outputcontroller="0" readable="0" outputchannel="1" fixedoutputvelocity="-1" outputprogram="1" fixedinputvelocity="-1" fixedoutputnote="-1" inputchannel="0" basevelocity="63" writable="0"/>
          <fxchain enabled="0" numofeffects="0"/>
        </instrumenttrack>
        <pattern steps="16" muted="0" pos="50304" name="" type="1">
          <note pan="0" key="63" len="192" vol="200" pos="0"/>
          <note pan="0" key="61" len="192" vol="200" pos="192"/>
          <note pan="0" key="58" len="288" vol="200" pos="384"/>
          <note pan="0" key="51" len="96" vol="200" pos="672"/>
          <note pan="0" key="63" len="192" vol="200" pos="768"/>
          <note pan="0" key="61" len="192" vol="200" pos="960"/>
          <note pan="0" key="58" len="192" vol="200" pos="1152"/>
          <note pan="0" key="54" len="192" vol="200" pos="1344"/>
          <note pan="0" key="58" len="192" vol="200" pos="1536"/>
          <note pan="0" key="59" len="96" vol="200" pos="1728"/>
          <note pan="0" key="63" len="96" vol="200" pos="1824"/>
          <note pan="0" key="61" len="192" vol="200" pos="1920"/>
          <note pan="0" key="66" len="192" vol="200" pos="2112"/>
          <note pan="0" key="63" len="384" vol="200" pos="2304"/>
          <note pan="0" key="58" len="96" vol="200" pos="2688"/>
          <note pan="0" key="61" len="96" vol="200" pos="2784"/>
          <note pan="0" key="56" len="96" vol="200" pos="2880"/>
          <note pan="0" key="58" len="96" vol="200" pos="2976"/>
        </pattern>
        <pattern steps="16" muted="0" pos="53376" name="" type="1">
          <note pan="0" key="63" len="192" vol="197" pos="0"/>
          <note pan="0" key="61" len="192" vol="197" pos="192"/>
          <note pan="0" key="58" len="288" vol="197" pos="384"/>
          <note pan="0" key="58" len="96" vol="197" pos="672"/>
          <note pan="0" key="70" len="192" vol="197" pos="768"/>
          <note pan="0" key="68" len="192" vol="197" pos="960"/>
          <note pan="0" key="63" len="384" vol="197" pos="1152"/>
          <note pan="0" key="63" len="192" vol="197" pos="1536"/>
          <note pan="0" key="65" len="192" vol="197" pos="1728"/>
          <note pan="0" key="66" len="192" vol="197" pos="1920"/>
          <note pan="0" key="70" len="96" vol="197" pos="2112"/>
          <note pan="0" key="68" len="96" vol="197" pos="2208"/>
          <note pan="0" key="68" len="192" vol="197" pos="2304"/>
          <note pan="0" key="63" len="144" vol="197" pos="2496"/>
          <note pan="0" key="63" len="24" vol="197" pos="2640"/>
          <note pan="0" key="65" len="24" vol="197" pos="2664"/>
          <note pan="0" key="66" len="192" vol="197" pos="2688"/>
          <note pan="0" key="68" len="96" vol="197" pos="2880"/>
          <note pan="0" key="73" len="96" vol="197" pos="2976"/>
          <note pan="0" key="75" len="384" vol="197" pos="3072"/>
        </pattern>
        <pattern steps="16" muted="0" pos="24960" name="" type="1">
          <note pan="0" key="61" len="192" vol="141" pos="0"/>
          <note pan="0" key="52" len="192" vol="141" pos="0"/>
          <note pan="0" key="45" len="192" vol="141" pos="0"/>
          <note pan="0" key="59" len="192" vol="141" pos="192"/>
          <note pan="0" key="54" len="192" vol="141" pos="192"/>
          <note pan="0" key="51" len="192" vol="141" pos="192"/>
          <note pan="0" key="56" len="288" vol="141" pos="384"/>
          <note pan="0" key="52" len="384" vol="141" pos="384"/>
          <note pan="0" key="49" len="384" vol="141" pos="384"/>
          <note pan="0" key="56" len="96" vol="141" pos="672"/>
          <note pan="0" key="68" len="192" vol="141" pos="768"/>
          <note pan="0" key="59" len="384" vol="141" pos="768"/>
          <note pan="0" key="51" len="384" vol="141" pos="768"/>
          <note pan="0" key="66" len="192" vol="141" pos="960"/>
          <note pan="0" key="61" len="384" vol="141" pos="1152"/>
          <note pan="0" key="58" len="384" vol="141" pos="1152"/>
          <note pan="0" key="54" len="384" vol="141" pos="1152"/>
          <note pan="0" key="61" len="192" vol="141" pos="1536"/>
          <note pan="0" key="57" len="192" vol="141" pos="1536"/>
          <note pan="0" key="52" len="192" vol="141" pos="1536"/>
          <note pan="0" key="63" len="192" vol="141" pos="1728"/>
          <note pan="0" key="59" len="192" vol="141" pos="1728"/>
          <note pan="0" key="54" len="192" vol="141" pos="1728"/>
          <note pan="0" key="64" len="192" vol="141" pos="1920"/>
          <note pan="0" key="61" len="384" vol="141" pos="1920"/>
          <note pan="0" key="56" len="384" vol="141" pos="1920"/>
          <note pan="0" key="68" len="96" vol="141" pos="2112"/>
          <note pan="0" key="66" len="96" vol="141" pos="2208"/>
          <note pan="0" key="66" len="192" vol="141" pos="2304"/>
          <note pan="0" key="58" len="384" vol="141" pos="2304"/>
          <note pan="0" key="54" len="384" vol="141" pos="2304"/>
          <note pan="0" key="61" len="144" vol="141" pos="2496"/>
          <note pan="0" key="61" len="24" vol="141" pos="2640"/>
          <note pan="0" key="63" len="24" vol="141" pos="2664"/>
          <note pan="0" key="64" len="192" vol="141" pos="2688"/>
          <note pan="0" key="59" len="384" vol="141" pos="2688"/>
          <note pan="0" key="56" len="384" vol="141" pos="2688"/>
          <note pan="0" key="64" len="96" vol="141" pos="2880"/>
          <note pan="0" key="68" len="96" vol="141" pos="2976"/>
          <note pan="0" key="73" len="384" vol="141" pos="3072"/>
          <note pan="0" key="61" len="384" vol="141" pos="3072"/>
          <note pan="0" key="57" len="384" vol="141" pos="3072"/>
          <note pan="0" key="73" len="384" vol="141" pos="3456"/>
          <note pan="0" key="63" len="384" vol="141" pos="3456"/>
          <note pan="0" key="59" len="384" vol="141" pos="3456"/>
        </pattern>
      </track>
      <track solo="0" mutedBeforeSolo="0" muted="0" name="Harp" type="0">
        <instrumenttrack pan="0" basenote="57" pitch="0" usemasterpitch="1" vol="100" pitchrange="1" fxch="0">
          <instrument name="carlapatchbay">
            <carlapatchbay>
              <CARLA-PROJECT VERSION="2.2">
                <EngineSettings>
                  <ForceStereo>false</ForceStereo>
                  <PreferPluginBridges>false</PreferPluginBridges>
                  <PreferUiBridges>true</PreferUiBridges>
                  <UIsAlwaysOnTop>false</UIsAlwaysOnTop>
                  <MaxParameters>200</MaxParameters>
                  <UIBridgesTimeout>4000</UIBridgesTimeout>
                  <LADSPA_PATH>/home/pass/.ladspa:/usr/lib/ladspa:/usr/local/lib/ladspa</LADSPA_PATH>
                  <DSSI_PATH>/home/pass/.dssi:/usr/lib/dssi:/usr/local/lib/dssi</DSSI_PATH>
                  <LV2_PATH>/home/pass/.lv2:/usr/lib/lv2:/usr/local/lib/lv2</LV2_PATH>
                  <VST2_PATH>/home/pass/.vst:/home/pass/.wine/drive_c/Program Files (x86)/VstPlugins:/home/pass/.wine/drive_c/Program Files/VstPlugins:/home/pass/Music/winvst/VST32:/home/pass/Music/winvst/VST64/Plogue Art et Technologie, Inc:/home/pass/vst:/usr/lib/lxvst:/usr/lib/vst:/usr/local/lib/lxvst:/usr/local/lib/vst/home/pass/.lxvst</VST2_PATH>
                  <VST3_PATH>/home/pass/.vst3:/home/pass/.wine/drive_c/Program Files (x86)/Common Files/VST3:/home/pass/.wine/drive_c/Program Files/Common Files/VST3:/usr/lib/vst3:/usr/local/lib/vst3</VST3_PATH>
                  <SF2_PATH>/home/pass/.sounds/sf2/home/pass/.sounds/sf3:/home/pass/samples/soundfonts:/usr/share/soundfonts:/usr/share/sounds/sf2:/usr/share/sounds/sf3</SF2_PATH>
                  <SFZ_PATH>/home/pass/.sounds/sfz:/home/pass/samples:/usr/share/sounds/sfz</SFZ_PATH>
                </EngineSettings>
                <!-- liquidsfz -->
                <Plugin>
                  <Info>
                    <Type>LV2</Type>
                    <Name>liquidsfz</Name>
                    <URI>http://spectmorph.org/plugins/liquidsfz</URI>
                  </Info>
                  <Data>
                    <Active>Yes</Active>
                    <ControlChannel>1</ControlChannel>
                    <Options>0x3f0</Options>
                    <Parameter>
                      <Index>0</Index>
                      <Name>Output Level</Name>
                      <Symbol>level</Symbol>
                      <Value>0</Value>
                    </Parameter>
                    <CustomData>
                      <Type>http://lv2plug.in/ns/ext/atom#Path</Type>
                      <Key>http://spectmorph.org/plugins/liquidsfz#sfzfile</Key>
                      <Value>Harp.sfz</Value>
                    </CustomData>
                  </Data>
                </Plugin>
                <Patchbay>
                  <Connection>
                    <Source>Midi Input:Capture 1</Source>
                    <Target>liquidsfz:events-in</Target>
                  </Connection>
                  <Connection>
                    <Source>liquidsfz:Left Output</Source>
                    <Target>Audio Output:Left</Target>
                  </Connection>
                  <Connection>
                    <Source>liquidsfz:Right Output</Source>
                    <Target>Audio Output:Right</Target>
                  </Connection>
                  <Positions>
                    <Position y1="1317" x1="1670" pluginId="0">
                      <Name>liquidsfz</Name>
                    </Position>
                  </Positions>
                </Patchbay>
              </CARLA-PROJECT>
              <key/>
            </carlapatchbay>
          </instrument>
          <eldata fcut="14000" fres="0.5" ftype="0" fwet="0">
            <elvol lspd_syncmode="0" amt="0" lshp="0" lpdel="0" att="0" ctlenvamt="0" dec="0.5" userwavefile="" x100="0" rel="0.1" sustain="0.5" lspd_numerator="4" latt="0" lspd="0.1" lamt="0" lspd_denominator="4" hold="0.5" pdel="0"/>
            <elcut lspd_syncmode="0" amt="0" lshp="0" lpdel="0" att="0" ctlenvamt="0" dec="0.5" userwavefile="" x100="0" rel="0.1" sustain="0.5" lspd_numerator="4" latt="0" lspd="0.1" lamt="0" lspd_denominator="4" hold="0.5" pdel="0"/>
            <elres lspd_syncmode="0" amt="0" lshp="0" lpdel="0" att="0" ctlenvamt="0" dec="0.5" userwavefile="" x100="0" rel="0.1" sustain="0.5" lspd_numerator="4" latt="0" lspd="0.1" lamt="0" lspd_denominator="4" hold="0.5" pdel="0"/>
          </eldata>
          <chordcreator chordrange="1" chord-enabled="0" chord="0"/>
          <arpeggiator arprange="1" arpmode="0" arpcycle="0" arptime_syncmode="0" arptime_numerator="4" arpgate="100" arptime="200" arpskip="0" arpmiss="0" arp="0" arptime_denominator="4" arp-enabled="0" arpdir="0"/>
          <midiport inputcontroller="0" outputcontroller="0" readable="0" outputchannel="1" fixedoutputvelocity="-1" outputprogram="1" fixedinputvelocity="-1" fixedoutputnote="-1" inputchannel="0" basevelocity="63" writable="0"/>
          <fxchain enabled="0" numofeffects="0"/>
        </instrumenttrack>
        <pattern steps="16" muted="0" pos="42624" name="" type="1">
          <note pan="0" key="73" len="144" vol="200" pos="0"/>
          <note pan="0" key="61" len="48" vol="200" pos="0"/>
          <note pan="0" key="64" len="48" vol="200" pos="48"/>
          <note pan="0" key="68" len="48" vol="200" pos="96"/>
          <note pan="0" key="76" len="48" vol="200" pos="144"/>
          <note pan="0" key="73" len="48" vol="200" pos="144"/>
          <note pan="0" key="75" len="144" vol="200" pos="192"/>
          <note pan="0" key="71" len="48" vol="200" pos="192"/>
          <note pan="0" key="66" len="48" vol="200" pos="240"/>
          <note pan="0" key="71" len="48" vol="200" pos="288"/>
          <note pan="0" key="80" len="48" vol="200" pos="336"/>
          <note pan="0" key="75" len="48" vol="200" pos="336"/>
          <note pan="0" key="80" len="144" vol="200" pos="384"/>
          <note pan="0" key="76" len="48" vol="200" pos="384"/>
          <note pan="0" key="69" len="48" vol="200" pos="432"/>
          <note pan="0" key="73" len="48" vol="200" pos="480"/>
          <note pan="0" key="78" len="24" vol="200" pos="528"/>
          <note pan="0" key="64" len="48" vol="200" pos="528"/>
          <note pan="0" key="76" len="24" vol="200" pos="552"/>
          <note pan="0" key="75" len="48" vol="200" pos="576"/>
          <note pan="0" key="66" len="48" vol="200" pos="576"/>
          <note pan="0" key="76" len="48" vol="200" pos="624"/>
          <note pan="0" key="63" len="48" vol="200" pos="624"/>
          <note pan="0" key="71" len="48" vol="200" pos="672"/>
          <note pan="0" key="66" len="48" vol="200" pos="672"/>
          <note pan="0" key="68" len="48" vol="200" pos="720"/>
          <note pan="0" key="59" len="48" vol="200" pos="720"/>
          <note pan="0" key="69" len="96" vol="200" pos="768"/>
          <note pan="0" key="61" len="48" vol="200" pos="768"/>
          <note pan="0" key="66" len="48" vol="200" pos="816"/>
          <note pan="0" key="73" len="48" vol="200" pos="864"/>
          <note pan="0" key="69" len="48" vol="200" pos="864"/>
          <note pan="0" key="76" len="48" vol="200" pos="912"/>
          <note pan="0" key="66" len="48" vol="200" pos="912"/>
          <note pan="0" key="76" len="96" vol="200" pos="960"/>
          <note pan="0" key="68" len="48" vol="200" pos="960"/>
          <note pan="0" key="71" len="48" vol="200" pos="1008"/>
          <note pan="0" key="75" len="48" vol="200" pos="1056"/>
          <note pan="0" key="68" len="48" vol="200" pos="1056"/>
          <note pan="0" key="76" len="48" vol="200" pos="1104"/>
          <note pan="0" key="63" len="48" vol="200" pos="1104"/>
          <note pan="0" key="83" len="72" vol="200" pos="1152"/>
          <note pan="0" key="69" len="48" vol="200" pos="1152"/>
        </pattern>
      </track>
      <track solo="0" mutedBeforeSolo="0" muted="0" name="clean gt" type="0">
        <instrumenttrack pan="0" basenote="45" pitch="0" usemasterpitch="1" vol="36.8" pitchrange="1" fxch="0">
          <instrument name="carlapatchbay">
            <carlapatchbay>
              <CARLA-PROJECT VERSION="2.2">
                <EngineSettings>
                  <ForceStereo>false</ForceStereo>
                  <PreferPluginBridges>false</PreferPluginBridges>
                  <PreferUiBridges>true</PreferUiBridges>
                  <UIsAlwaysOnTop>false</UIsAlwaysOnTop>
                  <MaxParameters>200</MaxParameters>
                  <UIBridgesTimeout>4000</UIBridgesTimeout>
                  <LADSPA_PATH>/home/pass/.ladspa:/usr/lib/ladspa:/usr/local/lib/ladspa</LADSPA_PATH>
                  <DSSI_PATH>/home/pass/.dssi:/usr/lib/dssi:/usr/local/lib/dssi</DSSI_PATH>
                  <LV2_PATH>/home/pass/.lv2:/usr/lib/lv2:/usr/local/lib/lv2</LV2_PATH>
                  <VST2_PATH>/home/pass/.vst:/home/pass/.wine/drive_c/Program Files (x86)/VstPlugins:/home/pass/.wine/drive_c/Program Files/VstPlugins:/home/pass/Music/winvst/VST32:/home/pass/Music/winvst/VST64/Plogue Art et Technologie, Inc:/home/pass/vst:/usr/lib/lxvst:/usr/lib/vst:/usr/local/lib/lxvst:/usr/local/lib/vst/home/pass/.lxvst</VST2_PATH>
                  <VST3_PATH>/home/pass/.vst3:/home/pass/.wine/drive_c/Program Files (x86)/Common Files/VST3:/home/pass/.wine/drive_c/Program Files/Common Files/VST3:/usr/lib/vst3:/usr/local/lib/vst3</VST3_PATH>
                  <SF2_PATH>/home/pass/.sounds/sf2/home/pass/.sounds/sf3:/home/pass/samples/soundfonts:/usr/share/soundfonts:/usr/share/sounds/sf2:/usr/share/sounds/sf3</SF2_PATH>
                  <SFZ_PATH>/home/pass/.sounds/sfz:/home/pass/samples:/usr/share/sounds/sfz</SFZ_PATH>
                </EngineSettings>
                <!-- sfizz -->
                <Plugin>
                  <Info>
                    <Type>LV2</Type>
                    <Name>sfizz</Name>
                    <URI>http://sfztools.github.io/sfizz</URI>
                  </Info>
                  <Data>
                    <Active>Yes</Active>
                    <ControlChannel>1</ControlChannel>
                    <Options>0x3f0</Options>
                    <Parameter>
                      <Index>0</Index>
                      <Name>Volume</Name>
                      <Symbol>volume</Symbol>
                      <Value>0</Value>
                    </Parameter>
                    <Parameter>
                      <Index>1</Index>
                      <Name>Polyphony</Name>
                      <Symbol>num_voices</Symbol>
                      <Value>64</Value>
                    </Parameter>
                    <Parameter>
                      <Index>2</Index>
                      <Name>Internal oversampling factor</Name>
                      <Symbol>oversampling</Symbol>
                      <Value>1</Value>
                    </Parameter>
                    <Parameter>
                      <Index>3</Index>
                      <Name>Preload size</Name>
                      <Symbol>preload_size</Symbol>
                      <Value>8192</Value>
                    </Parameter>
                    <Parameter>
                      <Index>5</Index>
                      <Name>Scala root key</Name>
                      <Symbol>scala_root_key</Symbol>
                      <Value>60</Value>
                    </Parameter>
                    <Parameter>
                      <Index>6</Index>
                      <Name>Tuning frequency</Name>
                      <Symbol>tuning_frequency</Symbol>
                      <Value>440</Value>
                    </Parameter>
                    <Parameter>
                      <Index>7</Index>
                      <Name>Stretched tuning</Name>
                      <Symbol>stretched_tuning</Symbol>
                      <Value>0</Value>
                    </Parameter>
                    <CustomData>
                      <Type>http://lv2plug.in/ns/ext/atom#Path</Type>
                      <Key>http://sfztools.github.io/sfizz:sfzfile</Key>
                      <Value>_fakeguitar1_integrated.sfz</Value>
                    </CustomData>
                    <CustomData>
                      <Type>http://lv2plug.in/ns/ext/atom#Int</Type>
                      <Key>http://sfztools.github.io/sfizz:numvoices</Key>
                      <Value>QAAAAA==</Value>
                    </CustomData>
                    <CustomData>
                      <Type>http://lv2plug.in/ns/ext/atom#Int</Type>
                      <Key>http://sfztools.github.io/sfizz:preload_size</Key>
                      <Value>ACAAAA==</Value>
                    </CustomData>
                    <CustomData>
                      <Type>http://lv2plug.in/ns/ext/atom#Int</Type>
                      <Key>http://sfztools.github.io/sfizz:oversampling</Key>
                      <Value>AQAAAA==</Value>
                    </CustomData>
                    <CustomData>
                      <Type>http://lv2plug.in/ns/ext/atom#Path</Type>
                      <Key>http://sfztools.github.io/sfizz:tuningfile</Key>
                      <Value>DefaultScale.scl</Value>
                    </CustomData>
                  </Data>
                </Plugin>
                <!-- MIDI Transpose -->
                <Plugin>
                  <Info>
                    <Type>INTERNAL</Type>
                    <Name>MIDI Transpose</Name>
                    <Label>miditranspose</Label>
                  </Info>
                  <Data>
                    <Active>Yes</Active>
                    <ControlChannel>1</ControlChannel>
                    <Options>0x3f0</Options>
                    <Parameter>
                      <Index>0</Index>
                      <Name>Octaves</Name>
                      <Value>-1</Value>
                    </Parameter>
                    <Parameter>
                      <Index>1</Index>
                      <Name>Semitones</Name>
                      <Value>0</Value>
                    </Parameter>
                  </Data>
                </Plugin>
                <Patchbay>
                  <Connection>
                    <Source>sfizz:Left Output</Source>
                    <Target>Audio Output:Left</Target>
                  </Connection>
                  <Connection>
                    <Source>sfizz:Right Output</Source>
                    <Target>Audio Output:Right</Target>
                  </Connection>
                  <Connection>
                    <Source>Midi Input:Capture 1</Source>
                    <Target>MIDI Transpose:events-in</Target>
                  </Connection>
                  <Connection>
                    <Source>MIDI Transpose:events-out</Source>
                    <Target>sfizz:events-in</Target>
                  </Connection>
                  <Positions>
                    <Position y1="1353" x1="1693" pluginId="0">
                      <Name>sfizz</Name>
                    </Position>
                  </Positions>
                </Patchbay>
              </CARLA-PROJECT>
              <key/>
            </carlapatchbay>
          </instrument>
          <eldata fcut="14000" fres="0.5" ftype="0" fwet="0">
            <elvol lspd_syncmode="0" amt="0" lshp="0" lpdel="0" att="0" ctlenvamt="0" dec="0.5" userwavefile="" x100="0" rel="0.1" sustain="0.5" lspd_numerator="4" latt="0" lspd="0.1" lamt="0" lspd_denominator="4" hold="0.5" pdel="0"/>
            <elcut lspd_syncmode="0" amt="0" lshp="0" lpdel="0" att="0" ctlenvamt="0" dec="0.5" userwavefile="" x100="0" rel="0.1" sustain="0.5" lspd_numerator="4" latt="0" lspd="0.1" lamt="0" lspd_denominator="4" hold="0.5" pdel="0"/>
            <elres lspd_syncmode="0" amt="0" lshp="0" lpdel="0" att="0" ctlenvamt="0" dec="0.5" userwavefile="" x100="0" rel="0.1" sustain="0.5" lspd_numerator="4" latt="0" lspd="0.1" lamt="0" lspd_denominator="4" hold="0.5" pdel="0"/>
          </eldata>
          <chordcreator chordrange="1" chord-enabled="0" chord="0"/>
          <arpeggiator arprange="1" arpmode="0" arpcycle="0" arptime_syncmode="0" arptime_numerator="4" arpgate="100" arptime="200" arpskip="0" arpmiss="0" arp="0" arptime_denominator="4" arp-enabled="0" arpdir="0"/>
          <midiport inputcontroller="0" outputcontroller="0" readable="0" outputchannel="1" fixedoutputvelocity="-1" outputprogram="1" fixedinputvelocity="-1" fixedoutputnote="-1" inputchannel="0" basevelocity="63" writable="0"/>
          <fxchain enabled="1" numofeffects="4">
            <effect autoquit_syncmode="0" autoquit_denominator="4" autoquit="1" gate="0" wet="1" name="ladspaeffect" on="1" autoquit_numerator="4">
              <ladspacontrols ports="12" link="0">
                <port01 data_numerator="4" data_denominator="4" data_syncmode="0" link="0">
                  <data scale_type="log" value="2.54688" id="5266066"/>
                </port01>
                <port02 data="3.34875" data_numerator="4" data_denominator="4" data_syncmode="0" link="1"/>
                <port03 data="0.59375" link="0"/>
                <port04 data="1" link="1"/>
                <port05 data="0.71075" link="1"/>
                <port06 data="0" link="1"/>
                <port11 data_numerator="4" data_denominator="4" data_syncmode="0">
                  <data scale_type="log" value="2.59375" id="5606721"/>
                </port11>
                <port12 data="3.34875" data_numerator="4" data_denominator="4" data_syncmode="0"/>
                <port13 data="0.92875"/>
                <port14 data="1"/>
                <port15 data="0.71075"/>
                <port16 data="0"/>
              </ladspacontrols>
              <key>
                <attribute value="caps" name="file"/>
                <attribute value="ChorusI" name="plugin"/>
              </key>
            </effect>
            <effect autoquit_syncmode="0" autoquit_denominator="4" autoquit="1" gate="0" wet="1" name="ladspaeffect" on="1" autoquit_numerator="4">
              <ladspacontrols ports="5">
                <port04 data="772.975" data_numerator="4" data_denominator="4" data_syncmode="0"/>
                <port05 data="0.344"/>
                <port06 data="646.8" data_numerator="4" data_denominator="4" data_syncmode="0"/>
                <port07 data="0.44"/>
                <port08 data="5000"/>
              </ladspacontrols>
              <key>
                <attribute value="cmt" name="file"/>
                <attribute value="canyon_delay" name="plugin"/>
              </key>
            </effect>
            <effect autoquit_syncmode="0" autoquit_denominator="4" autoquit="1" gate="0" wet="1" name="ladspaeffect" on="0" autoquit_numerator="4">
              <ladspacontrols ports="12">
                <port07>
                  <data scale_type="log" value="0.989846" id="7092776"/>
                </port07>
                <port08>
                  <data scale_type="log" value="6324.56" id="1592251"/>
                </port08>
                <port09 data="2"/>
                <port010 data="0.5"/>
                <port011 data="0.5"/>
                <port012 data="1"/>
                <port013 data="0"/>
                <port014>
                  <data scale_type="log" value="632.456" id="1680823"/>
                </port014>
                <port015>
                  <data scale_type="log" value="3556.56" id="3672317"/>
                </port015>
                <port016 data="1"/>
                <port017 data="1"/>
                <port018 data="1"/>
              </ladspacontrols>
              <key>
                <attribute value="veal" name="file"/>
                <attribute value="Reverb" name="plugin"/>
              </key>
            </effect>
            <effect autoquit_syncmode="0" autoquit_denominator="4" autoquit="1" gate="0" wet="1" name="eq" on="1" autoquit_numerator="4">
              <Eq HP12="1" Peak3bw="0.3" AnalyseIn="1" LP12="1" Outputgain="11.2" HP24="0" HighShelfgain="2.34" LP24="0" Peak3gain="0" Peak1bw="0.3" Lowshelfactive="0" Peak2gain="0" Highshelfactive="1" Peak1active="0" Peak4bw="0.3" HighShelfres="1.4" Peak4active="0" LP="0" LPres="0.707" HP="0" Lowshelfgain="0" Peak2active="0" HP48="0" Peak4gain="0" LowShelfres="1.4" LPactive="0" Peak3active="0" LP48="0" AnalyseOut="1" HPres="0.707" HPactive="0" Peak2bw="0.3">
                <Inputgain scale_type="log" value="0" id="6777895"/>
                <Peak1gain scale_type="log" value="0" id="2208637"/>
                <HPfreq scale_type="log" value="31" id="1992488"/>
                <LowShelffreq scale_type="log" value="80" id="1331529"/>
                <Peak1freq scale_type="log" value="120" id="1963426"/>
                <Peak2freq scale_type="log" value="250" id="3531370"/>
                <Peak3freq scale_type="log" value="2000" id="2979695"/>
                <Peak4freq scale_type="log" value="4000" id="5061108"/>
                <Highshelffreq scale_type="log" value="967.939" id="6751076"/>
                <LPfreq scale_type="log" value="18000" id="388547"/>
              </Eq>
              <key/>
            </effect>
          </fxchain>
        </instrumenttrack>
        <pattern steps="16" muted="0" pos="42624" name="" type="1">
          <note pan="0" key="49" len="192" vol="200" pos="0"/>
          <note pan="0" key="0" len="384" vol="200" pos="0"/>
          <note pan="0" key="52" len="192" vol="200" pos="48"/>
          <note pan="0" key="56" len="192" vol="200" pos="96"/>
          <note pan="0" key="61" len="192" vol="200" pos="144"/>
          <note pan="0" key="47" len="192" vol="200" pos="192"/>
          <note pan="0" key="51" len="192" vol="200" pos="240"/>
          <note pan="0" key="56" len="192" vol="200" pos="288"/>
          <note pan="0" key="61" len="192" vol="200" pos="336"/>
          <note pan="0" key="49" len="192" vol="200" pos="384"/>
          <note pan="0" key="52" len="192" vol="200" pos="432"/>
          <note pan="0" key="57" len="192" vol="200" pos="480"/>
          <note pan="0" key="61" len="192" vol="200" pos="528"/>
          <note pan="0" key="47" len="192" vol="200" pos="576"/>
          <note pan="0" key="51" len="192" vol="200" pos="624"/>
          <note pan="0" key="54" len="192" vol="200" pos="672"/>
          <note pan="0" key="61" len="192" vol="200" pos="720"/>
          <note pan="0" key="49" len="192" vol="200" pos="768"/>
          <note pan="0" key="54" len="192" vol="200" pos="816"/>
          <note pan="0" key="57" len="192" vol="200" pos="864"/>
          <note pan="0" key="61" len="192" vol="200" pos="912"/>
          <note pan="0" key="51" len="192" vol="200" pos="960"/>
          <note pan="0" key="56" len="192" vol="200" pos="1008"/>
          <note pan="0" key="59" len="192" vol="200" pos="1056"/>
          <note pan="0" key="63" len="144" vol="200" pos="1104"/>
          <note pan="0" key="61" len="96" vol="200" pos="1152"/>
          <note pan="0" key="52" len="96" vol="200" pos="1152"/>
        </pattern>
      </track>
      <track solo="0" mutedBeforeSolo="1" muted="1" name="backing sban" type="0">
        <instrumenttrack pan="0" basenote="57" pitch="0" usemasterpitch="1" vol="200" pitchrange="2" fxch="23">
          <instrument name="tripleoscillator">
            <tripleoscillator coarse2="-24" wavetype1="0" userwavefile0="" vol1="19" pan0="0" phoffset2="0" finer1="0" vol0="200" pan1="0" modalgo2="2" modalgo3="2" userwavefile2="" modalgo1="4" finer0="0" phoffset1="0" stphdetun2="0" phoffset0="0" finer2="0" coarse0="0" pan2="0" wavetype0="0" finel0="0" vol2="0" coarse1="0" stphdetun1="0" finel2="0" finel1="0" stphdetun0="0" userwavefile1="" wavetype2="0">
              <key/>
            </tripleoscillator>
          </instrument>
          <eldata fcut="1456" fres="0.89" ftype="17" fwet="0">
            <elvol lspd_syncmode="0" amt="0" lshp="0" lpdel="0" att="0" ctlenvamt="0" dec="0.5" userwavefile="" x100="0" rel="0" sustain="0.5" lspd_numerator="4" latt="0" lspd="0.1" lamt="0" lspd_denominator="4" hold="0.5" pdel="0"/>
            <elcut lspd_syncmode="0" amt="0" lshp="2" lpdel="0" att="0" ctlenvamt="0" dec="0.5" userwavefile="" x100="1" rel="0" sustain="0.5" lspd_numerator="4" latt="0" lspd="0.037" lamt="0" lspd_denominator="4" hold="0.5" pdel="0"/>
            <elres lspd_syncmode="0" amt="0" lshp="1" lpdel="0" att="0" ctlenvamt="0" dec="0.5" userwavefile="" x100="0" rel="0.1" sustain="0.5" lspd_numerator="4" latt="0" lspd="0.152" lamt="0" lspd_denominator="4" hold="0.5" pdel="0"/>
          </eldata>
          <chordcreator chordrange="1" chord-enabled="0" chord="0"/>
          <arpeggiator arprange="1" arpmode="0" arpcycle="0" arptime_syncmode="0" arptime_numerator="4" arpgate="100" arptime="200" arpskip="0" arpmiss="0" arp="0" arptime_denominator="4" arp-enabled="0" arpdir="0"/>
          <midiport inputcontroller="0" outputcontroller="0" readable="0" outputchannel="1" fixedoutputvelocity="-1" outputprogram="1" fixedinputvelocity="-1" fixedoutputnote="-1" inputchannel="0" basevelocity="63" writable="0"/>
          <fxchain enabled="1" numofeffects="7">
            <effect autoquit_syncmode="0" autoquit_denominator="4" autoquit="1" gate="0" wet="1" name="ladspaeffect" on="0" autoquit_numerator="4">
              <ladspacontrols ports="7">
                <port00 data="3.4875"/>
                <port01 data="180"/>
                <port02 data="100"/>
                <port03 data="17"/>
                <port04 data="20000"/>
                <port05 data="0.55"/>
                <port06 data="-0.6875"/>
              </ladspacontrols>
              <key>
                <attribute value="tap_chorusflanger" name="file"/>
                <attribute value="tap_chorusflanger" name="plugin"/>
              </key>
            </effect>
            <effect autoquit_syncmode="0" autoquit_denominator="4" autoquit="1" gate="0" wet="1" name="eq" on="1" autoquit_numerator="4">
              <Eq HP12="0" Peak3bw="0.3" AnalyseIn="1" LP12="1" Outputgain="0.8" HP24="1" HighShelfgain="0" LP24="0" Peak3gain="0" Peak1bw="0.3" Lowshelfactive="0" Peak2gain="0" Highshelfactive="0" Peak1active="0" Peak4bw="0.3" HighShelfres="1.4" Peak4active="0" LP="0" LPres="0.707" HP="1" Lowshelfgain="0" Peak2active="0" HP48="0" Peak4gain="0" LowShelfres="1.4" LPactive="1" Peak3active="0" LP48="0" AnalyseOut="1" HPres="0.707" HPactive="1" Peak2bw="0.3">
                <Inputgain scale_type="log" value="0" id="5437876"/>
                <Peak1gain scale_type="log" value="0" id="1119964"/>
                <HPfreq scale_type="log" value="260.717" id="2728972"/>
                <LowShelffreq scale_type="log" value="80" id="5226846"/>
                <Peak1freq scale_type="log" value="120" id="2959358"/>
                <Peak2freq scale_type="log" value="250" id="5490259"/>
                <Peak3freq scale_type="log" value="2000" id="4102072"/>
                <Peak4freq scale_type="log" value="4000" id="5776592"/>
                <Highshelffreq scale_type="log" value="12000" id="6721283"/>
                <LPfreq scale_type="log" value="1667.01" id="8252873"/>
              </Eq>
              <key/>
            </effect>
            <effect autoquit_syncmode="0" autoquit_denominator="4" autoquit="1" gate="0" wet="1" name="waveshaper" on="0" autoquit_numerator="4">
              <waveshapercontrols waveShape="AACAPwAAgD8AAIA/AACAPwAAgD8AAIA/AACAPwAAgD8AAIA/AACAPwAAgD8AAIA/AACAPwAAgD8AAIA/AACAPwAAgD8AAIA/AACAPwAAgD8AAIA/AACAPwAAgD8AAIA/AACAPwAAgD8AAIA/AACAPwAAgD8AAIA/AACAPwAAgD8AAIA/AACAPwAAgD8AAIA/AACAPwAAgD8AAIA/AACAPwAAgD8AAIA/AACAPwAAgD8AAIA/AACAPwAAgD8AAIA/AACAPwAAgD8AAIA/AACAPwAAgD8AAIA/AACAPwAAgD8AAIA/AACAPwAAgD8AAIA/AACAPwAAgD8AAIA/AACAPwAAgD8AAIA/AACAPwAAgD8AAIA/AACAPwAAgD8AAIA/AACAPwAAgD8AAIA/AACAPwAAgD8AAIA/AACAPwAAgD8AAIA/AACAPwAAgD8AAIA/AACAPwAAgD8AAIA/AACAPwAAgD8AAIA/AACAPwAAgD8AAIA/AACAPwAAgD8AAIA/AACAPwAAgD8AAIA/AACAPwAAgD8AAIA/AACAPwAAgD8AAIA/AACAPwAAgD8AAIA/AACAPwAAgD8AAIA/AACAPwAAgD8AAIA/AACAPwAAgD8AAIA/AACAPwAAgD8AAIA/AACAPwAAgD8AAIA/AACAPwAAgD8AAIA/AACAPwAAgD8AAIA/AACAPwAAgD8AAIA/AACAPwAAgD8AAIA/AACAPwAAgD8AAIA/AACAPwAAgD8AAIA/AACAPwAAgD8AAIA/AACAPwAAgD8AAIA/AACAPwAAgD8AAIA/AACAPwAAgD8AAIA/AACAPwAAgD8AAIA/AACAPwAAgD8AAIA/AACAPwAAgD8AAIA/AACAPwAAgD8AAIA/AACAPwAAgD8AAIA/AACAPwAAgD8AAIA/AACAPwAAgD8AAIA/AACAPwAAgD8AAIA/AACAPwAAgD8AAIA/AACAPwAAgD8AAIA/AACAPwAAgD8AAIA/AACAPwAAgD8AAIA/AACAPwAAgD8AAIA/AACAPwAAgD8AAIA/AACAPwAAgD8AAIA/AACAPwAAgD8=" inputGain="5" outputGain="1" clipInput="1"/>
              <key/>
            </effect>
            <effect autoquit_syncmode="0" autoquit_denominator="4" autoquit="1" gate="0" wet="1" name="ladspaeffect" on="1" autoquit_numerator="4">
              <ladspacontrols ports="14" link="1">
                <port01 data="10" link="1"/>
                <port02 data="1" link="1"/>
                <port03 data="20" link="1"/>
                <port04 data="20" link="1"/>
                <port05 data="20" link="1"/>
                <port06 data="20" link="1"/>
                <port07 data="1" link="1"/>
                <port11 data="10"/>
                <port12 data="1"/>
                <port13 data="20"/>
                <port14 data="20"/>
                <port15 data="20"/>
                <port16 data="20"/>
                <port17 data="1"/>
              </ladspacontrols>
              <key>
                <attribute value="caps" name="file"/>
                <attribute value="AmpIV" name="plugin"/>
              </key>
            </effect>
            <effect autoquit_syncmode="0" autoquit_denominator="4" autoquit="1" gate="0" wet="1" name="ladspaeffect" on="0" autoquit_numerator="4">
              <ladspacontrols ports="4" link="1">
                <port01 data="1" link="1"/>
                <port02 data="-11.4" link="1"/>
                <port11 data="1"/>
                <port12 data="-11.4"/>
              </ladspacontrols>
              <key>
                <attribute value="caps" name="file"/>
                <attribute value="CabinetI" name="plugin"/>
              </key>
            </effect>
            <effect autoquit_syncmode="0" autoquit_denominator="4" autoquit="1" gate="0" wet="1" name="ladspaeffect" on="1" autoquit_numerator="4">
              <ladspacontrols ports="4" link="1">
                <port00 link="1">
                  <data scale_type="log" value="6549.87" id="7599140"/>
                </port00>
                <port01 data="9" link="1"/>
                <port10>
                  <data scale_type="log" value="6549.87" id="5958898"/>
                </port10>
                <port11 data="9"/>
              </ladspacontrols>
              <key>
                <attribute value="lowpass_iir_1891" name="file"/>
                <attribute value="lowpass_iir" name="plugin"/>
              </key>
            </effect>
            <effect autoquit_syncmode="0" autoquit_denominator="4" autoquit="1" gate="0" wet="1" name="ladspaeffect" on="1" autoquit_numerator="4">
              <ladspacontrols ports="4">
                <port02 data="0.502"/>
                <port03 data="0.3745"/>
                <port04 data="0.218641"/>
                <port05 data="0.2075"/>
              </ladspacontrols>
              <key>
                <attribute value="caps" name="file"/>
                <attribute value="Plate2x2" name="plugin"/>
              </key>
            </effect>
          </fxchain>
        </instrumenttrack>
        <pattern steps="16" muted="0" pos="56256" name="" type="0"/>
        <pattern steps="16" muted="0" pos="56448" name="" type="1">
          <note pan="0" key="54" len="12" vol="100" pos="0"/>
          <note pan="0" key="58" len="12" vol="100" pos="12"/>
          <note pan="0" key="63" len="12" vol="100" pos="24"/>
          <note pan="0" key="66" len="12" vol="100" pos="36"/>
          <note pan="0" key="70" len="12" vol="100" pos="48"/>
          <note pan="0" key="75" len="12" vol="100" pos="60"/>
          <note pan="0" key="78" len="12" vol="100" pos="72"/>
          <note pan="0" key="82" len="12" vol="100" pos="84"/>
          <note pan="0" key="87" len="12" vol="100" pos="96"/>
          <note pan="0" key="82" len="12" vol="100" pos="108"/>
          <note pan="0" key="78" len="12" vol="100" pos="120"/>
          <note pan="0" key="75" len="12" vol="100" pos="132"/>
          <note pan="0" key="70" len="12" vol="100" pos="144"/>
          <note pan="0" key="66" len="12" vol="100" pos="156"/>
          <note pan="0" key="63" len="12" vol="100" pos="168"/>
          <note pan="0" key="58" len="12" vol="100" pos="180"/>
        </pattern>
        <pattern steps="16" muted="0" pos="56640" name="" type="1">
          <note pan="0" key="54" len="12" vol="100" pos="0"/>
          <note pan="0" key="58" len="12" vol="100" pos="12"/>
          <note pan="0" key="63" len="12" vol="100" pos="24"/>
          <note pan="0" key="66" len="12" vol="100" pos="36"/>
          <note pan="0" key="70" len="12" vol="100" pos="48"/>
          <note pan="0" key="75" len="12" vol="100" pos="60"/>
          <note pan="0" key="78" len="12" vol="100" pos="72"/>
          <note pan="0" key="82" len="12" vol="100" pos="84"/>
          <note pan="0" key="87" len="12" vol="100" pos="96"/>
          <note pan="0" key="82" len="12" vol="100" pos="108"/>
          <note pan="0" key="78" len="12" vol="100" pos="120"/>
          <note pan="0" key="75" len="12" vol="100" pos="132"/>
          <note pan="0" key="70" len="12" vol="100" pos="144"/>
          <note pan="0" key="66" len="12" vol="100" pos="156"/>
          <note pan="0" key="63" len="12" vol="100" pos="168"/>
          <note pan="0" key="58" len="12" vol="100" pos="180"/>
        </pattern>
        <pattern steps="16" muted="0" pos="56832" name="" type="1">
          <note pan="0" key="53" len="12" vol="100" pos="0"/>
          <note pan="0" key="56" len="12" vol="100" pos="12"/>
          <note pan="0" key="61" len="12" vol="100" pos="24"/>
          <note pan="0" key="65" len="12" vol="100" pos="36"/>
          <note pan="0" key="68" len="12" vol="100" pos="48"/>
          <note pan="0" key="73" len="12" vol="100" pos="60"/>
          <note pan="0" key="77" len="12" vol="100" pos="72"/>
          <note pan="0" key="80" len="12" vol="100" pos="84"/>
          <note pan="0" key="85" len="12" vol="100" pos="96"/>
          <note pan="0" key="80" len="12" vol="100" pos="108"/>
          <note pan="0" key="77" len="12" vol="100" pos="120"/>
          <note pan="0" key="73" len="12" vol="100" pos="132"/>
          <note pan="0" key="68" len="12" vol="100" pos="144"/>
          <note pan="0" key="65" len="12" vol="100" pos="156"/>
          <note pan="0" key="61" len="12" vol="100" pos="168"/>
          <note pan="0" key="56" len="12" vol="100" pos="180"/>
        </pattern>
        <pattern steps="16" muted="0" pos="57216" name="" type="1">
          <note pan="0" key="51" len="12" vol="100" pos="0"/>
          <note pan="0" key="56" len="12" vol="100" pos="12"/>
          <note pan="0" key="60" len="12" vol="100" pos="24"/>
          <note pan="0" key="63" len="12" vol="100" pos="36"/>
          <note pan="0" key="68" len="12" vol="100" pos="48"/>
          <note pan="0" key="72" len="12" vol="100" pos="60"/>
          <note pan="0" key="75" len="12" vol="100" pos="72"/>
          <note pan="0" key="80" len="12" vol="100" pos="84"/>
          <note pan="0" key="84" len="12" vol="100" pos="96"/>
          <note pan="0" key="80" len="12" vol="100" pos="108"/>
          <note pan="0" key="75" len="12" vol="100" pos="120"/>
          <note pan="0" key="72" len="12" vol="100" pos="132"/>
          <note pan="0" key="68" len="12" vol="100" pos="144"/>
          <note pan="0" key="63" len="12" vol="100" pos="156"/>
          <note pan="0" key="60" len="12" vol="100" pos="168"/>
          <note pan="0" key="56" len="12" vol="100" pos="180"/>
        </pattern>
        <pattern steps="16" muted="0" pos="57600" name="" type="1">
          <note pan="0" key="52" len="12" vol="100" pos="0"/>
          <note pan="0" key="56" len="12" vol="100" pos="12"/>
          <note pan="0" key="59" len="12" vol="100" pos="24"/>
          <note pan="0" key="64" len="12" vol="100" pos="36"/>
          <note pan="0" key="68" len="12" vol="100" pos="48"/>
          <note pan="0" key="71" len="12" vol="100" pos="60"/>
          <note pan="0" key="76" len="12" vol="100" pos="72"/>
          <note pan="0" key="80" len="12" vol="100" pos="84"/>
          <note pan="0" key="83" len="12" vol="100" pos="96"/>
          <note pan="0" key="80" len="12" vol="100" pos="108"/>
          <note pan="0" key="76" len="12" vol="100" pos="120"/>
          <note pan="0" key="71" len="12" vol="100" pos="132"/>
          <note pan="0" key="68" len="12" vol="100" pos="144"/>
          <note pan="0" key="64" len="12" vol="100" pos="156"/>
          <note pan="0" key="59" len="12" vol="100" pos="168"/>
          <note pan="0" key="56" len="12" vol="100" pos="180"/>
        </pattern>
        <pattern steps="16" muted="0" pos="57024" name="" type="1">
          <note pan="0" key="53" len="12" vol="100" pos="0"/>
          <note pan="0" key="56" len="12" vol="100" pos="12"/>
          <note pan="0" key="61" len="12" vol="100" pos="24"/>
          <note pan="0" key="65" len="12" vol="100" pos="36"/>
          <note pan="0" key="68" len="12" vol="100" pos="48"/>
          <note pan="0" key="73" len="12" vol="100" pos="60"/>
          <note pan="0" key="77" len="12" vol="100" pos="72"/>
          <note pan="0" key="80" len="12" vol="100" pos="84"/>
          <note pan="0" key="85" len="12" vol="100" pos="96"/>
          <note pan="0" key="80" len="12" vol="100" pos="108"/>
          <note pan="0" key="77" len="12" vol="100" pos="120"/>
          <note pan="0" key="73" len="12" vol="100" pos="132"/>
          <note pan="0" key="68" len="12" vol="100" pos="144"/>
          <note pan="0" key="65" len="12" vol="100" pos="156"/>
          <note pan="0" key="61" len="12" vol="100" pos="168"/>
          <note pan="0" key="56" len="12" vol="100" pos="180"/>
        </pattern>
        <pattern steps="16" muted="0" pos="57408" name="" type="1">
          <note pan="0" key="51" len="12" vol="100" pos="0"/>
          <note pan="0" key="56" len="12" vol="100" pos="12"/>
          <note pan="0" key="60" len="12" vol="100" pos="24"/>
          <note pan="0" key="63" len="12" vol="100" pos="36"/>
          <note pan="0" key="68" len="12" vol="100" pos="48"/>
          <note pan="0" key="72" len="12" vol="100" pos="60"/>
          <note pan="0" key="75" len="12" vol="100" pos="72"/>
          <note pan="0" key="80" len="12" vol="100" pos="84"/>
          <note pan="0" key="84" len="12" vol="100" pos="96"/>
          <note pan="0" key="80" len="12" vol="100" pos="108"/>
          <note pan="0" key="75" len="12" vol="100" pos="120"/>
          <note pan="0" key="72" len="12" vol="100" pos="132"/>
          <note pan="0" key="68" len="12" vol="100" pos="144"/>
          <note pan="0" key="63" len="12" vol="100" pos="156"/>
          <note pan="0" key="60" len="12" vol="100" pos="168"/>
          <note pan="0" key="56" len="12" vol="100" pos="180"/>
        </pattern>
        <pattern steps="16" muted="0" pos="57792" name="" type="1">
          <note pan="0" key="52" len="12" vol="100" pos="0"/>
          <note pan="0" key="56" len="12" vol="100" pos="12"/>
          <note pan="0" key="59" len="12" vol="100" pos="24"/>
          <note pan="0" key="64" len="12" vol="100" pos="36"/>
          <note pan="0" key="68" len="12" vol="100" pos="48"/>
          <note pan="0" key="71" len="12" vol="100" pos="60"/>
          <note pan="0" key="76" len="12" vol="100" pos="72"/>
          <note pan="0" key="80" len="12" vol="100" pos="84"/>
          <note pan="0" key="83" len="12" vol="100" pos="96"/>
          <note pan="0" key="80" len="12" vol="100" pos="108"/>
          <note pan="0" key="76" len="12" vol="100" pos="120"/>
          <note pan="0" key="71" len="12" vol="100" pos="132"/>
          <note pan="0" key="68" len="12" vol="100" pos="144"/>
          <note pan="0" key="64" len="12" vol="100" pos="156"/>
          <note pan="0" key="59" len="12" vol="100" pos="168"/>
          <note pan="0" key="56" len="12" vol="100" pos="180"/>
        </pattern>
        <pattern steps="16" muted="0" pos="63744" name="" type="1">
          <note pan="0" key="58" len="12" vol="197" pos="0"/>
          <note pan="0" key="54" len="12" vol="197" pos="12"/>
          <note pan="0" key="56" len="12" vol="197" pos="24"/>
          <note pan="0" key="58" len="12" vol="197" pos="36"/>
          <note pan="0" key="59" len="12" vol="197" pos="48"/>
          <note pan="0" key="56" len="12" vol="197" pos="60"/>
          <note pan="0" key="58" len="12" vol="197" pos="72"/>
          <note pan="0" key="59" len="12" vol="197" pos="84"/>
          <note pan="0" key="61" len="12" vol="197" pos="96"/>
          <note pan="0" key="58" len="12" vol="197" pos="108"/>
          <note pan="0" key="59" len="12" vol="197" pos="120"/>
          <note pan="0" key="61" len="12" vol="197" pos="132"/>
          <note pan="0" key="63" len="12" vol="197" pos="144"/>
          <note pan="0" key="59" len="12" vol="197" pos="156"/>
          <note pan="0" key="61" len="12" vol="197" pos="168"/>
          <note pan="0" key="63" len="12" vol="197" pos="180"/>
          <note pan="0" key="65" len="12" vol="197" pos="192"/>
          <note pan="0" key="63" len="12" vol="197" pos="204"/>
          <note pan="0" key="61" len="12" vol="197" pos="216"/>
          <note pan="0" key="59" len="12" vol="197" pos="228"/>
          <note pan="0" key="58" len="12" vol="197" pos="240"/>
          <note pan="0" key="59" len="12" vol="197" pos="252"/>
          <note pan="0" key="63" len="12" vol="197" pos="264"/>
          <note pan="0" key="61" len="12" vol="197" pos="276"/>
          <note pan="0" key="59" len="12" vol="197" pos="288"/>
          <note pan="0" key="58" len="12" vol="197" pos="300"/>
          <note pan="0" key="56" len="12" vol="197" pos="312"/>
          <note pan="0" key="58" len="12" vol="197" pos="324"/>
          <note pan="0" key="61" len="12" vol="197" pos="336"/>
          <note pan="0" key="59" len="12" vol="197" pos="348"/>
          <note pan="0" key="58" len="12" vol="197" pos="360"/>
          <note pan="0" key="56" len="12" vol="197" pos="372"/>
          <note pan="0" key="54" len="12" vol="197" pos="384"/>
          <note pan="0" key="56" len="12" vol="197" pos="396"/>
          <note pan="0" key="59" len="12" vol="200" pos="408"/>
          <note pan="0" key="58" len="12" vol="200" pos="420"/>
          <note pan="0" key="56" len="12" vol="200" pos="432"/>
          <note pan="0" key="54" len="12" vol="200" pos="444"/>
          <note pan="0" key="53" len="12" vol="200" pos="456"/>
          <note pan="0" key="54" len="12" vol="200" pos="468"/>
          <note pan="0" key="58" len="12" vol="200" pos="480"/>
          <note pan="0" key="56" len="12" vol="200" pos="492"/>
          <note pan="0" key="54" len="12" vol="200" pos="504"/>
          <note pan="0" key="53" len="12" vol="200" pos="516"/>
          <note pan="0" key="56" len="12" vol="200" pos="528"/>
          <note pan="0" key="54" len="12" vol="200" pos="540"/>
          <note pan="0" key="53" len="12" vol="200" pos="552"/>
          <note pan="0" key="54" len="12" vol="200" pos="564"/>
          <note pan="0" key="66" len="192" vol="197" pos="576"/>
        </pattern>
        <pattern steps="16" muted="0" pos="57984" name="" type="1">
          <note pan="0" key="54" len="12" vol="100" pos="0"/>
          <note pan="0" key="58" len="12" vol="100" pos="12"/>
          <note pan="0" key="63" len="12" vol="100" pos="24"/>
          <note pan="0" key="66" len="12" vol="100" pos="36"/>
          <note pan="0" key="70" len="12" vol="100" pos="48"/>
          <note pan="0" key="75" len="12" vol="100" pos="60"/>
          <note pan="0" key="78" len="12" vol="100" pos="72"/>
          <note pan="0" key="82" len="12" vol="100" pos="84"/>
          <note pan="0" key="87" len="12" vol="100" pos="96"/>
          <note pan="0" key="82" len="12" vol="100" pos="108"/>
          <note pan="0" key="78" len="12" vol="100" pos="120"/>
          <note pan="0" key="75" len="12" vol="100" pos="132"/>
          <note pan="0" key="70" len="12" vol="100" pos="144"/>
          <note pan="0" key="66" len="12" vol="100" pos="156"/>
          <note pan="0" key="63" len="12" vol="100" pos="168"/>
          <note pan="0" key="58" len="12" vol="100" pos="180"/>
        </pattern>
        <pattern steps="16" muted="0" pos="58368" name="" type="1">
          <note pan="0" key="53" len="12" vol="100" pos="0"/>
          <note pan="0" key="56" len="12" vol="100" pos="12"/>
          <note pan="0" key="61" len="12" vol="100" pos="24"/>
          <note pan="0" key="65" len="12" vol="100" pos="36"/>
          <note pan="0" key="68" len="12" vol="100" pos="48"/>
          <note pan="0" key="73" len="12" vol="100" pos="60"/>
          <note pan="0" key="77" len="12" vol="100" pos="72"/>
          <note pan="0" key="80" len="12" vol="100" pos="84"/>
          <note pan="0" key="85" len="12" vol="100" pos="96"/>
          <note pan="0" key="80" len="12" vol="100" pos="108"/>
          <note pan="0" key="77" len="12" vol="100" pos="120"/>
          <note pan="0" key="73" len="12" vol="100" pos="132"/>
          <note pan="0" key="68" len="12" vol="100" pos="144"/>
          <note pan="0" key="65" len="12" vol="100" pos="156"/>
          <note pan="0" key="61" len="12" vol="100" pos="168"/>
          <note pan="0" key="56" len="12" vol="100" pos="180"/>
        </pattern>
        <pattern steps="16" muted="0" pos="58752" name="" type="1">
          <note pan="0" key="51" len="12" vol="100" pos="0"/>
          <note pan="0" key="56" len="12" vol="100" pos="12"/>
          <note pan="0" key="60" len="12" vol="100" pos="24"/>
          <note pan="0" key="63" len="12" vol="100" pos="36"/>
          <note pan="0" key="68" len="12" vol="100" pos="48"/>
          <note pan="0" key="72" len="12" vol="100" pos="60"/>
          <note pan="0" key="75" len="12" vol="100" pos="72"/>
          <note pan="0" key="80" len="12" vol="100" pos="84"/>
          <note pan="0" key="84" len="12" vol="100" pos="96"/>
          <note pan="0" key="80" len="12" vol="100" pos="108"/>
          <note pan="0" key="75" len="12" vol="100" pos="120"/>
          <note pan="0" key="72" len="12" vol="100" pos="132"/>
          <note pan="0" key="68" len="12" vol="100" pos="144"/>
          <note pan="0" key="63" len="12" vol="100" pos="156"/>
          <note pan="0" key="60" len="12" vol="100" pos="168"/>
          <note pan="0" key="56" len="12" vol="100" pos="180"/>
        </pattern>
        <pattern steps="16" muted="0" pos="59136" name="" type="1">
          <note pan="0" key="52" len="12" vol="100" pos="0"/>
          <note pan="0" key="56" len="12" vol="100" pos="12"/>
          <note pan="0" key="59" len="12" vol="100" pos="24"/>
          <note pan="0" key="64" len="12" vol="100" pos="36"/>
          <note pan="0" key="68" len="12" vol="100" pos="48"/>
          <note pan="0" key="71" len="12" vol="100" pos="60"/>
          <note pan="0" key="76" len="12" vol="100" pos="72"/>
          <note pan="0" key="80" len="12" vol="100" pos="84"/>
          <note pan="0" key="83" len="12" vol="100" pos="96"/>
          <note pan="0" key="80" len="12" vol="100" pos="108"/>
          <note pan="0" key="76" len="12" vol="100" pos="120"/>
          <note pan="0" key="71" len="12" vol="100" pos="132"/>
          <note pan="0" key="68" len="12" vol="100" pos="144"/>
          <note pan="0" key="64" len="12" vol="100" pos="156"/>
          <note pan="0" key="59" len="12" vol="100" pos="168"/>
          <note pan="0" key="56" len="12" vol="100" pos="180"/>
        </pattern>
        <pattern steps="16" muted="0" pos="59520" name="" type="1">
          <note pan="0" key="54" len="12" vol="100" pos="0"/>
          <note pan="0" key="58" len="12" vol="100" pos="12"/>
          <note pan="0" key="63" len="12" vol="100" pos="24"/>
          <note pan="0" key="66" len="12" vol="100" pos="36"/>
          <note pan="0" key="70" len="12" vol="100" pos="48"/>
          <note pan="0" key="75" len="12" vol="100" pos="60"/>
          <note pan="0" key="78" len="12" vol="100" pos="72"/>
          <note pan="0" key="82" len="12" vol="100" pos="84"/>
          <note pan="0" key="87" len="12" vol="100" pos="96"/>
          <note pan="0" key="82" len="12" vol="100" pos="108"/>
          <note pan="0" key="78" len="12" vol="100" pos="120"/>
          <note pan="0" key="75" len="12" vol="100" pos="132"/>
          <note pan="0" key="70" len="12" vol="100" pos="144"/>
          <note pan="0" key="66" len="12" vol="100" pos="156"/>
          <note pan="0" key="63" len="12" vol="100" pos="168"/>
          <note pan="0" key="58" len="12" vol="100" pos="180"/>
        </pattern>
        <pattern steps="16" muted="0" pos="61056" name="" type="1">
          <note pan="0" key="54" len="12" vol="100" pos="0"/>
          <note pan="0" key="58" len="12" vol="100" pos="12"/>
          <note pan="0" key="63" len="12" vol="100" pos="24"/>
          <note pan="0" key="66" len="12" vol="100" pos="36"/>
          <note pan="0" key="70" len="12" vol="100" pos="48"/>
          <note pan="0" key="75" len="12" vol="100" pos="60"/>
          <note pan="0" key="78" len="12" vol="100" pos="72"/>
          <note pan="0" key="82" len="12" vol="100" pos="84"/>
          <note pan="0" key="87" len="12" vol="100" pos="96"/>
          <note pan="0" key="82" len="12" vol="100" pos="108"/>
          <note pan="0" key="78" len="12" vol="100" pos="120"/>
          <note pan="0" key="75" len="12" vol="100" pos="132"/>
          <note pan="0" key="70" len="12" vol="100" pos="144"/>
          <note pan="0" key="66" len="12" vol="100" pos="156"/>
          <note pan="0" key="63" len="12" vol="100" pos="168"/>
          <note pan="0" key="58" len="12" vol="100" pos="180"/>
        </pattern>
        <pattern steps="16" muted="0" pos="59904" name="" type="1">
          <note pan="0" key="53" len="12" vol="100" pos="0"/>
          <note pan="0" key="56" len="12" vol="100" pos="12"/>
          <note pan="0" key="61" len="12" vol="100" pos="24"/>
          <note pan="0" key="65" len="12" vol="100" pos="36"/>
          <note pan="0" key="68" len="12" vol="100" pos="48"/>
          <note pan="0" key="73" len="12" vol="100" pos="60"/>
          <note pan="0" key="77" len="12" vol="100" pos="72"/>
          <note pan="0" key="80" len="12" vol="100" pos="84"/>
          <note pan="0" key="85" len="12" vol="100" pos="96"/>
          <note pan="0" key="80" len="12" vol="100" pos="108"/>
          <note pan="0" key="77" len="12" vol="100" pos="120"/>
          <note pan="0" key="73" len="12" vol="100" pos="132"/>
          <note pan="0" key="68" len="12" vol="100" pos="144"/>
          <note pan="0" key="65" len="12" vol="100" pos="156"/>
          <note pan="0" key="61" len="12" vol="100" pos="168"/>
          <note pan="0" key="56" len="12" vol="100" pos="180"/>
        </pattern>
        <pattern steps="16" muted="0" pos="61440" name="" type="1">
          <note pan="0" key="53" len="12" vol="100" pos="0"/>
          <note pan="0" key="56" len="12" vol="100" pos="12"/>
          <note pan="0" key="61" len="12" vol="100" pos="24"/>
          <note pan="0" key="65" len="12" vol="100" pos="36"/>
          <note pan="0" key="68" len="12" vol="100" pos="48"/>
          <note pan="0" key="73" len="12" vol="100" pos="60"/>
          <note pan="0" key="77" len="12" vol="100" pos="72"/>
          <note pan="0" key="80" len="12" vol="100" pos="84"/>
          <note pan="0" key="85" len="12" vol="100" pos="96"/>
          <note pan="0" key="80" len="12" vol="100" pos="108"/>
          <note pan="0" key="77" len="12" vol="100" pos="120"/>
          <note pan="0" key="73" len="12" vol="100" pos="132"/>
          <note pan="0" key="68" len="12" vol="100" pos="144"/>
          <note pan="0" key="65" len="12" vol="100" pos="156"/>
          <note pan="0" key="61" len="12" vol="100" pos="168"/>
          <note pan="0" key="56" len="12" vol="100" pos="180"/>
        </pattern>
        <pattern steps="16" muted="0" pos="60288" name="" type="1">
          <note pan="0" key="51" len="12" vol="100" pos="0"/>
          <note pan="0" key="56" len="12" vol="100" pos="12"/>
          <note pan="0" key="60" len="12" vol="100" pos="24"/>
          <note pan="0" key="63" len="12" vol="100" pos="36"/>
          <note pan="0" key="68" len="12" vol="100" pos="48"/>
          <note pan="0" key="72" len="12" vol="100" pos="60"/>
          <note pan="0" key="75" len="12" vol="100" pos="72"/>
          <note pan="0" key="80" len="12" vol="100" pos="84"/>
          <note pan="0" key="84" len="12" vol="100" pos="96"/>
          <note pan="0" key="80" len="12" vol="100" pos="108"/>
          <note pan="0" key="75" len="12" vol="100" pos="120"/>
          <note pan="0" key="72" len="12" vol="100" pos="132"/>
          <note pan="0" key="68" len="12" vol="100" pos="144"/>
          <note pan="0" key="63" len="12" vol="100" pos="156"/>
          <note pan="0" key="60" len="12" vol="100" pos="168"/>
          <note pan="0" key="56" len="12" vol="100" pos="180"/>
        </pattern>
        <pattern steps="16" muted="0" pos="61824" name="" type="1">
          <note pan="0" key="51" len="12" vol="100" pos="0"/>
          <note pan="0" key="56" len="12" vol="100" pos="12"/>
          <note pan="0" key="60" len="12" vol="100" pos="24"/>
          <note pan="0" key="63" len="12" vol="100" pos="36"/>
          <note pan="0" key="68" len="12" vol="100" pos="48"/>
          <note pan="0" key="72" len="12" vol="100" pos="60"/>
          <note pan="0" key="75" len="12" vol="100" pos="72"/>
          <note pan="0" key="80" len="12" vol="100" pos="84"/>
          <note pan="0" key="84" len="12" vol="100" pos="96"/>
          <note pan="0" key="80" len="12" vol="100" pos="108"/>
          <note pan="0" key="75" len="12" vol="100" pos="120"/>
          <note pan="0" key="72" len="12" vol="100" pos="132"/>
          <note pan="0" key="68" len="12" vol="100" pos="144"/>
          <note pan="0" key="63" len="12" vol="100" pos="156"/>
          <note pan="0" key="60" len="12" vol="100" pos="168"/>
          <note pan="0" key="56" len="12" vol="100" pos="180"/>
        </pattern>
        <pattern steps="16" muted="0" pos="60672" name="" type="1">
          <note pan="0" key="52" len="12" vol="100" pos="0"/>
          <note pan="0" key="56" len="12" vol="100" pos="12"/>
          <note pan="0" key="59" len="12" vol="100" pos="24"/>
          <note pan="0" key="64" len="12" vol="100" pos="36"/>
          <note pan="0" key="68" len="12" vol="100" pos="48"/>
          <note pan="0" key="71" len="12" vol="100" pos="60"/>
          <note pan="0" key="76" len="12" vol="100" pos="72"/>
          <note pan="0" key="80" len="12" vol="100" pos="84"/>
          <note pan="0" key="83" len="12" vol="100" pos="96"/>
          <note pan="0" key="80" len="12" vol="100" pos="108"/>
          <note pan="0" key="76" len="12" vol="100" pos="120"/>
          <note pan="0" key="71" len="12" vol="100" pos="132"/>
          <note pan="0" key="68" len="12" vol="100" pos="144"/>
          <note pan="0" key="64" len="12" vol="100" pos="156"/>
          <note pan="0" key="59" len="12" vol="100" pos="168"/>
          <note pan="0" key="56" len="12" vol="100" pos="180"/>
        </pattern>
        <pattern steps="16" muted="0" pos="62208" name="" type="1">
          <note pan="0" key="52" len="12" vol="100" pos="0"/>
          <note pan="0" key="56" len="12" vol="100" pos="12"/>
          <note pan="0" key="59" len="12" vol="100" pos="24"/>
          <note pan="0" key="64" len="12" vol="100" pos="36"/>
          <note pan="0" key="68" len="12" vol="100" pos="48"/>
          <note pan="0" key="71" len="12" vol="100" pos="60"/>
          <note pan="0" key="76" len="12" vol="100" pos="72"/>
          <note pan="0" key="80" len="12" vol="100" pos="84"/>
          <note pan="0" key="83" len="12" vol="100" pos="96"/>
          <note pan="0" key="80" len="12" vol="100" pos="108"/>
          <note pan="0" key="76" len="12" vol="100" pos="120"/>
          <note pan="0" key="71" len="12" vol="100" pos="132"/>
          <note pan="0" key="68" len="12" vol="100" pos="144"/>
          <note pan="0" key="64" len="12" vol="100" pos="156"/>
          <note pan="0" key="59" len="12" vol="100" pos="168"/>
          <note pan="0" key="56" len="12" vol="100" pos="180"/>
        </pattern>
        <pattern steps="16" muted="0" pos="62400" name="" type="1">
          <note pan="0" key="52" len="12" vol="100" pos="0"/>
          <note pan="0" key="56" len="12" vol="100" pos="12"/>
          <note pan="0" key="59" len="12" vol="100" pos="24"/>
          <note pan="0" key="64" len="12" vol="100" pos="36"/>
          <note pan="0" key="68" len="12" vol="100" pos="48"/>
          <note pan="0" key="71" len="12" vol="100" pos="60"/>
          <note pan="0" key="76" len="12" vol="100" pos="72"/>
          <note pan="0" key="80" len="12" vol="100" pos="84"/>
          <note pan="0" key="83" len="12" vol="100" pos="96"/>
          <note pan="0" key="80" len="12" vol="100" pos="108"/>
          <note pan="0" key="76" len="12" vol="100" pos="120"/>
          <note pan="0" key="71" len="12" vol="100" pos="132"/>
          <note pan="0" key="68" len="12" vol="100" pos="144"/>
          <note pan="0" key="64" len="12" vol="100" pos="156"/>
          <note pan="0" key="59" len="12" vol="100" pos="168"/>
          <note pan="0" key="56" len="12" vol="100" pos="180"/>
        </pattern>
        <pattern steps="16" muted="0" pos="62016" name="" type="1">
          <note pan="0" key="51" len="12" vol="100" pos="0"/>
          <note pan="0" key="56" len="12" vol="100" pos="12"/>
          <note pan="0" key="60" len="12" vol="100" pos="24"/>
          <note pan="0" key="63" len="12" vol="100" pos="36"/>
          <note pan="0" key="68" len="12" vol="100" pos="48"/>
          <note pan="0" key="72" len="12" vol="100" pos="60"/>
          <note pan="0" key="75" len="12" vol="100" pos="72"/>
          <note pan="0" key="80" len="12" vol="100" pos="84"/>
          <note pan="0" key="84" len="12" vol="100" pos="96"/>
          <note pan="0" key="80" len="12" vol="100" pos="108"/>
          <note pan="0" key="75" len="12" vol="100" pos="120"/>
          <note pan="0" key="72" len="12" vol="100" pos="132"/>
          <note pan="0" key="68" len="12" vol="100" pos="144"/>
          <note pan="0" key="63" len="12" vol="100" pos="156"/>
          <note pan="0" key="60" len="12" vol="100" pos="168"/>
          <note pan="0" key="56" len="12" vol="100" pos="180"/>
        </pattern>
        <pattern steps="16" muted="0" pos="61632" name="" type="1">
          <note pan="0" key="53" len="12" vol="100" pos="0"/>
          <note pan="0" key="56" len="12" vol="100" pos="12"/>
          <note pan="0" key="61" len="12" vol="100" pos="24"/>
          <note pan="0" key="65" len="12" vol="100" pos="36"/>
          <note pan="0" key="68" len="12" vol="100" pos="48"/>
          <note pan="0" key="73" len="12" vol="100" pos="60"/>
          <note pan="0" key="77" len="12" vol="100" pos="72"/>
          <note pan="0" key="80" len="12" vol="100" pos="84"/>
          <note pan="0" key="85" len="12" vol="100" pos="96"/>
          <note pan="0" key="80" len="12" vol="100" pos="108"/>
          <note pan="0" key="77" len="12" vol="100" pos="120"/>
          <note pan="0" key="73" len="12" vol="100" pos="132"/>
          <note pan="0" key="68" len="12" vol="100" pos="144"/>
          <note pan="0" key="65" len="12" vol="100" pos="156"/>
          <note pan="0" key="61" len="12" vol="100" pos="168"/>
          <note pan="0" key="56" len="12" vol="100" pos="180"/>
        </pattern>
        <pattern steps="16" muted="0" pos="61248" name="" type="1">
          <note pan="0" key="54" len="12" vol="100" pos="0"/>
          <note pan="0" key="58" len="12" vol="100" pos="12"/>
          <note pan="0" key="63" len="12" vol="100" pos="24"/>
          <note pan="0" key="66" len="12" vol="100" pos="36"/>
          <note pan="0" key="70" len="12" vol="100" pos="48"/>
          <note pan="0" key="75" len="12" vol="100" pos="60"/>
          <note pan="0" key="78" len="12" vol="100" pos="72"/>
          <note pan="0" key="82" len="12" vol="100" pos="84"/>
          <note pan="0" key="87" len="12" vol="100" pos="96"/>
          <note pan="0" key="82" len="12" vol="100" pos="108"/>
          <note pan="0" key="78" len="12" vol="100" pos="120"/>
          <note pan="0" key="75" len="12" vol="100" pos="132"/>
          <note pan="0" key="70" len="12" vol="100" pos="144"/>
          <note pan="0" key="66" len="12" vol="100" pos="156"/>
          <note pan="0" key="63" len="12" vol="100" pos="168"/>
          <note pan="0" key="58" len="12" vol="100" pos="180"/>
        </pattern>
        <pattern steps="16" muted="0" pos="60864" name="" type="1">
          <note pan="0" key="52" len="12" vol="100" pos="0"/>
          <note pan="0" key="56" len="12" vol="100" pos="12"/>
          <note pan="0" key="59" len="12" vol="100" pos="24"/>
          <note pan="0" key="64" len="12" vol="100" pos="36"/>
          <note pan="0" key="68" len="12" vol="100" pos="48"/>
          <note pan="0" key="71" len="12" vol="100" pos="60"/>
          <note pan="0" key="76" len="12" vol="100" pos="72"/>
          <note pan="0" key="80" len="12" vol="100" pos="84"/>
          <note pan="0" key="83" len="12" vol="100" pos="96"/>
          <note pan="0" key="80" len="12" vol="100" pos="108"/>
          <note pan="0" key="76" len="12" vol="100" pos="120"/>
          <note pan="0" key="71" len="12" vol="100" pos="132"/>
          <note pan="0" key="68" len="12" vol="100" pos="144"/>
          <note pan="0" key="64" len="12" vol="100" pos="156"/>
          <note pan="0" key="59" len="12" vol="100" pos="168"/>
          <note pan="0" key="56" len="12" vol="100" pos="180"/>
        </pattern>
        <pattern steps="16" muted="0" pos="60480" name="" type="1">
          <note pan="0" key="51" len="12" vol="100" pos="0"/>
          <note pan="0" key="56" len="12" vol="100" pos="12"/>
          <note pan="0" key="60" len="12" vol="100" pos="24"/>
          <note pan="0" key="63" len="12" vol="100" pos="36"/>
          <note pan="0" key="68" len="12" vol="100" pos="48"/>
          <note pan="0" key="72" len="12" vol="100" pos="60"/>
          <note pan="0" key="75" len="12" vol="100" pos="72"/>
          <note pan="0" key="80" len="12" vol="100" pos="84"/>
          <note pan="0" key="84" len="12" vol="100" pos="96"/>
          <note pan="0" key="80" len="12" vol="100" pos="108"/>
          <note pan="0" key="75" len="12" vol="100" pos="120"/>
          <note pan="0" key="72" len="12" vol="100" pos="132"/>
          <note pan="0" key="68" len="12" vol="100" pos="144"/>
          <note pan="0" key="63" len="12" vol="100" pos="156"/>
          <note pan="0" key="60" len="12" vol="100" pos="168"/>
          <note pan="0" key="56" len="12" vol="100" pos="180"/>
        </pattern>
        <pattern steps="16" muted="0" pos="60096" name="" type="1">
          <note pan="0" key="53" len="12" vol="100" pos="0"/>
          <note pan="0" key="56" len="12" vol="100" pos="12"/>
          <note pan="0" key="61" len="12" vol="100" pos="24"/>
          <note pan="0" key="65" len="12" vol="100" pos="36"/>
          <note pan="0" key="68" len="12" vol="100" pos="48"/>
          <note pan="0" key="73" len="12" vol="100" pos="60"/>
          <note pan="0" key="77" len="12" vol="100" pos="72"/>
          <note pan="0" key="80" len="12" vol="100" pos="84"/>
          <note pan="0" key="85" len="12" vol="100" pos="96"/>
          <note pan="0" key="80" len="12" vol="100" pos="108"/>
          <note pan="0" key="77" len="12" vol="100" pos="120"/>
          <note pan="0" key="73" len="12" vol="100" pos="132"/>
          <note pan="0" key="68" len="12" vol="100" pos="144"/>
          <note pan="0" key="65" len="12" vol="100" pos="156"/>
          <note pan="0" key="61" len="12" vol="100" pos="168"/>
          <note pan="0" key="56" len="12" vol="100" pos="180"/>
        </pattern>
        <pattern steps="16" muted="0" pos="59712" name="" type="1">
          <note pan="0" key="54" len="12" vol="100" pos="0"/>
          <note pan="0" key="58" len="12" vol="100" pos="12"/>
          <note pan="0" key="63" len="12" vol="100" pos="24"/>
          <note pan="0" key="66" len="12" vol="100" pos="36"/>
          <note pan="0" key="70" len="12" vol="100" pos="48"/>
          <note pan="0" key="75" len="12" vol="100" pos="60"/>
          <note pan="0" key="78" len="12" vol="100" pos="72"/>
          <note pan="0" key="82" len="12" vol="100" pos="84"/>
          <note pan="0" key="87" len="12" vol="100" pos="96"/>
          <note pan="0" key="82" len="12" vol="100" pos="108"/>
          <note pan="0" key="78" len="12" vol="100" pos="120"/>
          <note pan="0" key="75" len="12" vol="100" pos="132"/>
          <note pan="0" key="70" len="12" vol="100" pos="144"/>
          <note pan="0" key="66" len="12" vol="100" pos="156"/>
          <note pan="0" key="63" len="12" vol="100" pos="168"/>
          <note pan="0" key="58" len="12" vol="100" pos="180"/>
        </pattern>
        <pattern steps="16" muted="0" pos="59328" name="" type="1">
          <note pan="0" key="52" len="12" vol="100" pos="0"/>
          <note pan="0" key="56" len="12" vol="100" pos="12"/>
          <note pan="0" key="59" len="12" vol="100" pos="24"/>
          <note pan="0" key="64" len="12" vol="100" pos="36"/>
          <note pan="0" key="68" len="12" vol="100" pos="48"/>
          <note pan="0" key="71" len="12" vol="100" pos="60"/>
          <note pan="0" key="76" len="12" vol="100" pos="72"/>
          <note pan="0" key="80" len="12" vol="100" pos="84"/>
          <note pan="0" key="83" len="12" vol="100" pos="96"/>
          <note pan="0" key="80" len="12" vol="100" pos="108"/>
          <note pan="0" key="76" len="12" vol="100" pos="120"/>
          <note pan="0" key="71" len="12" vol="100" pos="132"/>
          <note pan="0" key="68" len="12" vol="100" pos="144"/>
          <note pan="0" key="64" len="12" vol="100" pos="156"/>
          <note pan="0" key="59" len="12" vol="100" pos="168"/>
          <note pan="0" key="56" len="12" vol="100" pos="180"/>
        </pattern>
        <pattern steps="16" muted="0" pos="58944" name="" type="1">
          <note pan="0" key="51" len="12" vol="100" pos="0"/>
          <note pan="0" key="56" len="12" vol="100" pos="12"/>
          <note pan="0" key="60" len="12" vol="100" pos="24"/>
          <note pan="0" key="63" len="12" vol="100" pos="36"/>
          <note pan="0" key="68" len="12" vol="100" pos="48"/>
          <note pan="0" key="72" len="12" vol="100" pos="60"/>
          <note pan="0" key="75" len="12" vol="100" pos="72"/>
          <note pan="0" key="80" len="12" vol="100" pos="84"/>
          <note pan="0" key="84" len="12" vol="100" pos="96"/>
          <note pan="0" key="80" len="12" vol="100" pos="108"/>
          <note pan="0" key="75" len="12" vol="100" pos="120"/>
          <note pan="0" key="72" len="12" vol="100" pos="132"/>
          <note pan="0" key="68" len="12" vol="100" pos="144"/>
          <note pan="0" key="63" len="12" vol="100" pos="156"/>
          <note pan="0" key="60" len="12" vol="100" pos="168"/>
          <note pan="0" key="56" len="12" vol="100" pos="180"/>
        </pattern>
        <pattern steps="16" muted="0" pos="58560" name="" type="1">
          <note pan="0" key="53" len="12" vol="100" pos="0"/>
          <note pan="0" key="56" len="12" vol="100" pos="12"/>
          <note pan="0" key="61" len="12" vol="100" pos="24"/>
          <note pan="0" key="65" len="12" vol="100" pos="36"/>
          <note pan="0" key="68" len="12" vol="100" pos="48"/>
          <note pan="0" key="73" len="12" vol="100" pos="60"/>
          <note pan="0" key="77" len="12" vol="100" pos="72"/>
          <note pan="0" key="80" len="12" vol="100" pos="84"/>
          <note pan="0" key="85" len="12" vol="100" pos="96"/>
          <note pan="0" key="80" len="12" vol="100" pos="108"/>
          <note pan="0" key="77" len="12" vol="100" pos="120"/>
          <note pan="0" key="73" len="12" vol="100" pos="132"/>
          <note pan="0" key="68" len="12" vol="100" pos="144"/>
          <note pan="0" key="65" len="12" vol="100" pos="156"/>
          <note pan="0" key="61" len="12" vol="100" pos="168"/>
          <note pan="0" key="56" len="12" vol="100" pos="180"/>
        </pattern>
        <pattern steps="16" muted="0" pos="58176" name="" type="1">
          <note pan="0" key="54" len="12" vol="100" pos="0"/>
          <note pan="0" key="58" len="12" vol="100" pos="12"/>
          <note pan="0" key="63" len="12" vol="100" pos="24"/>
          <note pan="0" key="66" len="12" vol="100" pos="36"/>
          <note pan="0" key="70" len="12" vol="100" pos="48"/>
          <note pan="0" key="75" len="12" vol="100" pos="60"/>
          <note pan="0" key="78" len="12" vol="100" pos="72"/>
          <note pan="0" key="82" len="12" vol="100" pos="84"/>
          <note pan="0" key="87" len="12" vol="100" pos="96"/>
          <note pan="0" key="82" len="12" vol="100" pos="108"/>
          <note pan="0" key="78" len="12" vol="100" pos="120"/>
          <note pan="0" key="75" len="12" vol="100" pos="132"/>
          <note pan="0" key="70" len="12" vol="100" pos="144"/>
          <note pan="0" key="66" len="12" vol="100" pos="156"/>
          <note pan="0" key="63" len="12" vol="100" pos="168"/>
          <note pan="0" key="58" len="12" vol="100" pos="180"/>
        </pattern>
      </track>
      <track solo="0" mutedBeforeSolo="0" muted="0" name="backing sban" type="0">
        <instrumenttrack pan="0" basenote="57" pitch="0" usemasterpitch="1" vol="200" pitchrange="2" fxch="24">
          <instrument name="tripleoscillator">
            <tripleoscillator coarse2="-24" wavetype1="0" userwavefile0="" vol1="19" pan0="0" phoffset2="0" finer1="0" vol0="200" pan1="0" modalgo2="2" modalgo3="2" userwavefile2="" modalgo1="4" finer0="0" phoffset1="0" stphdetun2="0" phoffset0="0" finer2="0" coarse0="0" pan2="0" wavetype0="0" finel0="0" vol2="0" coarse1="0" stphdetun1="0" finel2="0" finel1="0" stphdetun0="0" userwavefile1="" wavetype2="0">
              <key/>
            </tripleoscillator>
          </instrument>
          <eldata fcut="1456" fres="0.89" ftype="17" fwet="0">
            <elvol lspd_syncmode="0" amt="0" lshp="0" lpdel="0" att="0" ctlenvamt="0" dec="0.5" userwavefile="" x100="0" rel="0" sustain="0.5" lspd_numerator="4" latt="0" lspd="0.1" lamt="0" lspd_denominator="4" hold="0.5" pdel="0"/>
            <elcut lspd_syncmode="0" amt="0" lshp="2" lpdel="0" att="0" ctlenvamt="0" dec="0.5" userwavefile="" x100="1" rel="0" sustain="0.5" lspd_numerator="4" latt="0" lspd="0.037" lamt="0" lspd_denominator="4" hold="0.5" pdel="0"/>
            <elres lspd_syncmode="0" amt="0" lshp="1" lpdel="0" att="0" ctlenvamt="0" dec="0.5" userwavefile="" x100="0" rel="0.1" sustain="0.5" lspd_numerator="4" latt="0" lspd="0.152" lamt="0" lspd_denominator="4" hold="0.5" pdel="0"/>
          </eldata>
          <chordcreator chordrange="1" chord-enabled="0" chord="0"/>
          <arpeggiator arprange="1" arpmode="0" arpcycle="0" arptime_syncmode="0" arptime_numerator="4" arpgate="100" arptime="200" arpskip="0" arpmiss="0" arp="0" arptime_denominator="4" arp-enabled="0" arpdir="0"/>
          <midiport inputcontroller="0" outputcontroller="0" readable="0" outputchannel="1" fixedoutputvelocity="-1" outputprogram="1" fixedinputvelocity="-1" fixedoutputnote="-1" inputchannel="0" basevelocity="63" writable="0"/>
          <fxchain enabled="1" numofeffects="7">
            <effect autoquit_syncmode="0" autoquit_denominator="4" autoquit="1" gate="0" wet="1" name="ladspaeffect" on="0" autoquit_numerator="4">
              <ladspacontrols ports="7">
                <port00 data="3.4875"/>
                <port01 data="180"/>
                <port02 data="100"/>
                <port03 data="17"/>
                <port04 data="20000"/>
                <port05 data="0.55"/>
                <port06 data="-0.6875"/>
              </ladspacontrols>
              <key>
                <attribute value="tap_chorusflanger" name="file"/>
                <attribute value="tap_chorusflanger" name="plugin"/>
              </key>
            </effect>
            <effect autoquit_syncmode="0" autoquit_denominator="4" autoquit="1" gate="0" wet="1" name="eq" on="1" autoquit_numerator="4">
              <Eq HP12="0" Peak3bw="0.3" AnalyseIn="1" LP12="1" Outputgain="0.8" HP24="1" HighShelfgain="0" LP24="0" Peak3gain="0" Peak1bw="0.3" Lowshelfactive="0" Peak2gain="0" Highshelfactive="0" Peak1active="0" Peak4bw="0.3" HighShelfres="1.4" Peak4active="0" LP="0" LPres="0.707" HP="1" Lowshelfgain="0" Peak2active="0" HP48="0" Peak4gain="0" LowShelfres="1.4" LPactive="1" Peak3active="0" LP48="0" AnalyseOut="1" HPres="0.707" HPactive="1" Peak2bw="0.3">
                <Inputgain scale_type="log" value="0" id="1598212"/>
                <Peak1gain scale_type="log" value="0" id="6803051"/>
                <HPfreq scale_type="log" value="260.717" id="537981"/>
                <LowShelffreq scale_type="log" value="80" id="3671222"/>
                <Peak1freq scale_type="log" value="120" id="2474406"/>
                <Peak2freq scale_type="log" value="250" id="1093128"/>
                <Peak3freq scale_type="log" value="2000" id="1773899"/>
                <Peak4freq scale_type="log" value="4000" id="5705623"/>
                <Highshelffreq scale_type="log" value="12000" id="3514465"/>
                <LPfreq scale_type="log" value="1667.01" id="255617"/>
              </Eq>
              <key/>
            </effect>
            <effect autoquit_syncmode="0" autoquit_denominator="4" autoquit="1" gate="0" wet="1" name="waveshaper" on="0" autoquit_numerator="4">
              <waveshapercontrols waveShape="AACAPwAAgD8AAIA/AACAPwAAgD8AAIA/AACAPwAAgD8AAIA/AACAPwAAgD8AAIA/AACAPwAAgD8AAIA/AACAPwAAgD8AAIA/AACAPwAAgD8AAIA/AACAPwAAgD8AAIA/AACAPwAAgD8AAIA/AACAPwAAgD8AAIA/AACAPwAAgD8AAIA/AACAPwAAgD8AAIA/AACAPwAAgD8AAIA/AACAPwAAgD8AAIA/AACAPwAAgD8AAIA/AACAPwAAgD8AAIA/AACAPwAAgD8AAIA/AACAPwAAgD8AAIA/AACAPwAAgD8AAIA/AACAPwAAgD8AAIA/AACAPwAAgD8AAIA/AACAPwAAgD8AAIA/AACAPwAAgD8AAIA/AACAPwAAgD8AAIA/AACAPwAAgD8AAIA/AACAPwAAgD8AAIA/AACAPwAAgD8AAIA/AACAPwAAgD8AAIA/AACAPwAAgD8AAIA/AACAPwAAgD8AAIA/AACAPwAAgD8AAIA/AACAPwAAgD8AAIA/AACAPwAAgD8AAIA/AACAPwAAgD8AAIA/AACAPwAAgD8AAIA/AACAPwAAgD8AAIA/AACAPwAAgD8AAIA/AACAPwAAgD8AAIA/AACAPwAAgD8AAIA/AACAPwAAgD8AAIA/AACAPwAAgD8AAIA/AACAPwAAgD8AAIA/AACAPwAAgD8AAIA/AACAPwAAgD8AAIA/AACAPwAAgD8AAIA/AACAPwAAgD8AAIA/AACAPwAAgD8AAIA/AACAPwAAgD8AAIA/AACAPwAAgD8AAIA/AACAPwAAgD8AAIA/AACAPwAAgD8AAIA/AACAPwAAgD8AAIA/AACAPwAAgD8AAIA/AACAPwAAgD8AAIA/AACAPwAAgD8AAIA/AACAPwAAgD8AAIA/AACAPwAAgD8AAIA/AACAPwAAgD8AAIA/AACAPwAAgD8AAIA/AACAPwAAgD8AAIA/AACAPwAAgD8AAIA/AACAPwAAgD8AAIA/AACAPwAAgD8AAIA/AACAPwAAgD8AAIA/AACAPwAAgD8AAIA/AACAPwAAgD8AAIA/AACAPwAAgD8=" inputGain="5" outputGain="1" clipInput="1"/>
              <key/>
            </effect>
            <effect autoquit_syncmode="0" autoquit_denominator="4" autoquit="1" gate="0" wet="1" name="ladspaeffect" on="1" autoquit_numerator="4">
              <ladspacontrols ports="14" link="1">
                <port01 data="10" link="1"/>
                <port02 data="1" link="1"/>
                <port03 data="20" link="1"/>
                <port04 data="20" link="1"/>
                <port05 data="20" link="1"/>
                <port06 data="20" link="1"/>
                <port07 data="1" link="1"/>
                <port11 data="10"/>
                <port12 data="1"/>
                <port13 data="20"/>
                <port14 data="20"/>
                <port15 data="20"/>
                <port16 data="20"/>
                <port17 data="1"/>
              </ladspacontrols>
              <key>
                <attribute value="caps" name="file"/>
                <attribute value="AmpIV" name="plugin"/>
              </key>
            </effect>
            <effect autoquit_syncmode="0" autoquit_denominator="4" autoquit="1" gate="0" wet="1" name="ladspaeffect" on="0" autoquit_numerator="4">
              <ladspacontrols ports="4" link="1">
                <port01 data="1" link="1"/>
                <port02 data="-11.4" link="1"/>
                <port11 data="1"/>
                <port12 data="-11.4"/>
              </ladspacontrols>
              <key>
                <attribute value="caps" name="file"/>
                <attribute value="CabinetI" name="plugin"/>
              </key>
            </effect>
            <effect autoquit_syncmode="0" autoquit_denominator="4" autoquit="1" gate="0" wet="1" name="ladspaeffect" on="1" autoquit_numerator="4">
              <ladspacontrols ports="4" link="1">
                <port00 link="1">
                  <data scale_type="log" value="6549.87" id="7680245"/>
                </port00>
                <port01 data="9" link="1"/>
                <port10>
                  <data scale_type="log" value="6549.87" id="668574"/>
                </port10>
                <port11 data="9"/>
              </ladspacontrols>
              <key>
                <attribute value="lowpass_iir_1891" name="file"/>
                <attribute value="lowpass_iir" name="plugin"/>
              </key>
            </effect>
            <effect autoquit_syncmode="0" autoquit_denominator="4" autoquit="1" gate="0" wet="1" name="ladspaeffect" on="1" autoquit_numerator="4">
              <ladspacontrols ports="4">
                <port02 data="0.502"/>
                <port03 data="0.3745"/>
                <port04 data="0.218641"/>
                <port05 data="0.2075"/>
              </ladspacontrols>
              <key>
                <attribute value="caps" name="file"/>
                <attribute value="Plate2x2" name="plugin"/>
              </key>
            </effect>
          </fxchain>
        </instrumenttrack>
        <pattern steps="16" muted="0" pos="59520" name="" type="1">
          <note pan="0" key="58" len="48" vol="197" pos="0"/>
          <note pan="0" key="54" len="48" vol="197" pos="48"/>
          <note pan="0" key="58" len="48" vol="197" pos="96"/>
          <note pan="0" key="61" len="48" vol="197" pos="144"/>
          <note pan="0" key="63" len="48" vol="197" pos="192"/>
          <note pan="0" key="65" len="48" vol="197" pos="240"/>
          <note pan="0" key="66" len="48" vol="197" pos="288"/>
          <note pan="0" key="70" len="48" vol="197" pos="336"/>
          <note pan="0" key="68" len="144" vol="197" pos="384"/>
          <note pan="0" key="65" len="12" vol="197" pos="528"/>
          <note pan="0" key="66" len="36" vol="197" pos="540"/>
          <note pan="0" key="65" len="96" vol="197" pos="576"/>
          <note pan="0" key="61" len="48" vol="197" pos="672"/>
          <note pan="0" key="65" len="48" vol="197" pos="720"/>
          <note pan="0" key="63" len="24" vol="197" pos="768"/>
          <note pan="0" key="65" len="24" vol="197" pos="792"/>
          <note pan="0" key="63" len="24" vol="197" pos="816"/>
          <note pan="0" key="60" len="24" vol="197" pos="840"/>
          <note pan="0" key="56" len="24" vol="197" pos="864"/>
          <note pan="0" key="48" len="24" vol="197" pos="888"/>
          <note pan="0" key="55" len="24" vol="197" pos="912"/>
          <note pan="0" key="53" len="24" vol="197" pos="936"/>
          <note pan="0" key="55" len="96" vol="197" pos="960"/>
          <note pan="0" key="58" len="96" vol="197" pos="1056"/>
          <note pan="0" key="59" len="192" vol="197" pos="1152"/>
          <note pan="0" key="63" len="96" vol="197" pos="1344"/>
          <note pan="0" key="63" len="96" vol="197" pos="1440"/>
          <note pan="0" key="66" len="192" vol="197" pos="1536"/>
          <note pan="0" key="58" len="16" vol="197" pos="1728"/>
          <note pan="0" key="61" len="16" vol="197" pos="1744"/>
          <note pan="0" key="58" len="16" vol="197" pos="1760"/>
          <note pan="0" key="63" len="16" vol="197" pos="1776"/>
          <note pan="0" key="65" len="16" vol="197" pos="1792"/>
          <note pan="0" key="66" len="16" vol="197" pos="1808"/>
          <note pan="0" key="70" len="16" vol="197" pos="1824"/>
          <note pan="0" key="66" len="16" vol="197" pos="1840"/>
          <note pan="0" key="65" len="16" vol="197" pos="1856"/>
          <note pan="0" key="63" len="16" vol="197" pos="1872"/>
          <note pan="0" key="61" len="16" vol="197" pos="1888"/>
          <note pan="0" key="58" len="16" vol="197" pos="1904"/>
          <note pan="0" key="61" len="48" vol="197" pos="1920"/>
          <note pan="0" key="63" len="48" vol="197" pos="1968"/>
          <note pan="0" key="65" len="48" vol="197" pos="2016"/>
          <note pan="0" key="70" len="48" vol="197" pos="2064"/>
          <note pan="0" key="56" len="96" vol="197" pos="2112"/>
          <note pan="0" key="59" len="12" vol="197" pos="2208"/>
          <note pan="0" key="61" len="84" vol="197" pos="2220"/>
          <note pan="0" key="60" len="96" vol="197" pos="2304"/>
          <note pan="0" key="61" len="96" vol="197" pos="2400"/>
          <note pan="0" key="54" len="96" vol="197" pos="2496"/>
          <note pan="0" key="59" len="96" vol="197" pos="2592"/>
          <note pan="0" key="65" len="96" vol="197" pos="2688"/>
          <note pan="0" key="66" len="96" vol="197" pos="2784"/>
          <note pan="0" key="70" len="96" vol="197" pos="2880"/>
        </pattern>
        <pattern steps="16" muted="0" pos="47232" name="" type="1">
          <note pan="0" key="58" len="120" vol="200" pos="0"/>
          <note pan="0" key="54" len="24" vol="200" pos="120"/>
          <note pan="0" key="63" len="24" vol="200" pos="144"/>
          <note pan="0" key="54" len="24" vol="200" pos="168"/>
          <note pan="0" key="61" len="120" vol="200" pos="192"/>
          <note pan="0" key="61" len="12" vol="200" pos="312"/>
          <note pan="0" key="63" len="12" vol="200" pos="324"/>
          <note pan="0" key="66" len="12" vol="200" pos="336"/>
          <note pan="0" key="63" len="12" vol="200" pos="348"/>
          <note pan="0" key="61" len="12" vol="200" pos="360"/>
          <note pan="0" key="63" len="12" vol="200" pos="372"/>
          <note pan="0" key="66" len="144" vol="200" pos="384"/>
          <note pan="0" key="65" len="24" vol="200" pos="528"/>
          <note pan="0" key="63" len="24" vol="200" pos="552"/>
          <note pan="0" key="61" len="48" vol="200" pos="576"/>
          <note pan="0" key="63" len="48" vol="200" pos="624"/>
          <note pan="0" key="58" len="12" vol="200" pos="672"/>
          <note pan="0" key="58" len="12" vol="200" pos="684"/>
          <note pan="0" key="58" len="12" vol="200" pos="696"/>
          <note pan="0" key="58" len="12" vol="200" pos="708"/>
          <note pan="0" key="54" len="12" vol="200" pos="720"/>
          <note pan="0" key="51" len="12" vol="200" pos="732"/>
          <note pan="0" key="53" len="12" vol="200" pos="744"/>
          <note pan="0" key="54" len="12" vol="200" pos="756"/>
          <note pan="0" key="56" len="96" vol="200" pos="768"/>
          <note pan="0" key="59" len="48" vol="200" pos="864"/>
          <note pan="0" key="63" len="48" vol="200" pos="912"/>
          <note pan="0" key="63" len="96" vol="200" pos="960"/>
          <note pan="0" key="61" len="12" vol="200" pos="1056"/>
          <note pan="0" key="54" len="12" vol="200" pos="1068"/>
          <note pan="0" key="54" len="12" vol="200" pos="1080"/>
          <note pan="0" key="54" len="12" vol="200" pos="1092"/>
          <note pan="0" key="63" len="12" vol="200" pos="1104"/>
          <note pan="0" key="59" len="12" vol="200" pos="1116"/>
          <note pan="0" key="61" len="12" vol="200" pos="1128"/>
          <note pan="0" key="63" len="12" vol="200" pos="1140"/>
          <note pan="0" key="70" len="48" vol="200" pos="1152"/>
          <note pan="0" key="68" len="12" vol="200" pos="1200"/>
          <note pan="0" key="70" len="12" vol="200" pos="1212"/>
          <note pan="0" key="68" len="48" vol="200" pos="1224"/>
          <note pan="0" key="66" len="12" vol="200" pos="1272"/>
          <note pan="0" key="68" len="12" vol="200" pos="1284"/>
          <note pan="0" key="66" len="12" vol="200" pos="1296"/>
          <note pan="0" key="65" len="12" vol="200" pos="1308"/>
          <note pan="0" key="63" len="12" vol="200" pos="1320"/>
          <note pan="0" key="66" len="12" vol="200" pos="1332"/>
          <note pan="0" key="65" len="72" vol="200" pos="1344"/>
          <note pan="0" key="63" len="12" vol="200" pos="1416"/>
          <note pan="0" key="65" len="12" vol="200" pos="1428"/>
          <note pan="0" key="66" len="12" vol="200" pos="1440"/>
          <note pan="0" key="68" len="12" vol="200" pos="1452"/>
          <note pan="0" key="66" len="12" vol="200" pos="1464"/>
          <note pan="0" key="65" len="12" vol="200" pos="1476"/>
          <note pan="0" key="66" len="12" vol="200" pos="1488"/>
          <note pan="0" key="65" len="12" vol="200" pos="1500"/>
          <note pan="0" key="63" len="12" vol="200" pos="1512"/>
          <note pan="0" key="61" len="12" vol="200" pos="1524"/>
          <note pan="0" key="63" len="48" vol="200" pos="1536"/>
          <note pan="0" key="54" len="12" vol="200" pos="1584"/>
          <note pan="0" key="54" len="12" vol="200" pos="1596"/>
          <note pan="0" key="61" len="48" vol="200" pos="1608"/>
          <note pan="0" key="54" len="12" vol="200" pos="1656"/>
          <note pan="0" key="54" len="12" vol="200" pos="1668"/>
          <note pan="0" key="63" len="24" vol="200" pos="1680"/>
          <note pan="0" key="54" len="12" vol="200" pos="1704"/>
          <note pan="0" key="54" len="12" vol="200" pos="1716"/>
          <note pan="0" key="66" len="144" vol="200" pos="1728"/>
          <note pan="0" key="61" len="48" vol="200" pos="1872"/>
          <note pan="0" key="60" len="12" vol="200" pos="1920"/>
          <note pan="0" key="61" len="12" vol="200" pos="1932"/>
          <note pan="0" key="60" len="216" vol="200" pos="1944"/>
          <note pan="0" key="63" len="48" vol="200" pos="2160"/>
          <note pan="0" key="65" len="24" vol="200" pos="2208"/>
          <note pan="0" key="63" len="12" vol="200" pos="2232"/>
          <note pan="0" key="65" len="12" vol="200" pos="2244"/>
          <note pan="0" key="66" len="24" vol="200" pos="2256"/>
          <note pan="0" key="65" len="12" vol="200" pos="2280"/>
          <note pan="0" key="66" len="12" vol="200" pos="2292"/>
          <note pan="0" key="68" len="72" vol="200" pos="2304"/>
          <note pan="0" key="66" len="72" vol="200" pos="2376"/>
          <note pan="0" key="65" len="48" vol="200" pos="2448"/>
          <note pan="0" key="63" len="12" vol="200" pos="2496"/>
          <note pan="0" key="61" len="12" vol="200" pos="2508"/>
          <note pan="0" key="59" len="12" vol="200" pos="2520"/>
          <note pan="0" key="54" len="12" vol="200" pos="2532"/>
          <note pan="0" key="59" len="12" vol="200" pos="2544"/>
          <note pan="0" key="58" len="12" vol="200" pos="2556"/>
          <note pan="0" key="56" len="12" vol="200" pos="2568"/>
          <note pan="0" key="54" len="12" vol="200" pos="2580"/>
          <note pan="0" key="63" len="12" vol="200" pos="2592"/>
          <note pan="0" key="61" len="12" vol="200" pos="2604"/>
          <note pan="0" key="59" len="12" vol="200" pos="2616"/>
          <note pan="0" key="54" len="12" vol="200" pos="2628"/>
          <note pan="0" key="71" len="48" vol="200" pos="2640"/>
          <note pan="0" key="68" len="192" vol="200" pos="2688"/>
        </pattern>
        <pattern steps="16" muted="0" pos="63744" name="" type="1">
          <note pan="0" key="58" len="12" vol="197" pos="0"/>
          <note pan="0" key="54" len="12" vol="197" pos="12"/>
          <note pan="0" key="56" len="12" vol="197" pos="24"/>
          <note pan="0" key="58" len="12" vol="197" pos="36"/>
          <note pan="0" key="59" len="12" vol="197" pos="48"/>
          <note pan="0" key="56" len="12" vol="197" pos="60"/>
          <note pan="0" key="58" len="12" vol="197" pos="72"/>
          <note pan="0" key="59" len="12" vol="197" pos="84"/>
          <note pan="0" key="61" len="12" vol="197" pos="96"/>
          <note pan="0" key="58" len="12" vol="197" pos="108"/>
          <note pan="0" key="59" len="12" vol="197" pos="120"/>
          <note pan="0" key="61" len="12" vol="197" pos="132"/>
          <note pan="0" key="63" len="12" vol="197" pos="144"/>
          <note pan="0" key="59" len="12" vol="197" pos="156"/>
          <note pan="0" key="61" len="12" vol="197" pos="168"/>
          <note pan="0" key="63" len="12" vol="197" pos="180"/>
          <note pan="0" key="65" len="12" vol="197" pos="192"/>
          <note pan="0" key="63" len="12" vol="197" pos="204"/>
          <note pan="0" key="61" len="12" vol="197" pos="216"/>
          <note pan="0" key="59" len="12" vol="197" pos="228"/>
          <note pan="0" key="58" len="12" vol="197" pos="240"/>
          <note pan="0" key="59" len="12" vol="197" pos="252"/>
          <note pan="0" key="63" len="12" vol="197" pos="264"/>
          <note pan="0" key="61" len="12" vol="197" pos="276"/>
          <note pan="0" key="59" len="12" vol="197" pos="288"/>
          <note pan="0" key="58" len="12" vol="197" pos="300"/>
          <note pan="0" key="56" len="12" vol="197" pos="312"/>
          <note pan="0" key="58" len="12" vol="197" pos="324"/>
          <note pan="0" key="61" len="12" vol="197" pos="336"/>
          <note pan="0" key="59" len="12" vol="197" pos="348"/>
          <note pan="0" key="58" len="12" vol="197" pos="360"/>
          <note pan="0" key="56" len="12" vol="197" pos="372"/>
          <note pan="0" key="54" len="12" vol="197" pos="384"/>
          <note pan="0" key="56" len="12" vol="197" pos="396"/>
          <note pan="0" key="59" len="12" vol="200" pos="408"/>
          <note pan="0" key="58" len="12" vol="200" pos="420"/>
          <note pan="0" key="56" len="12" vol="200" pos="432"/>
          <note pan="0" key="54" len="12" vol="200" pos="444"/>
          <note pan="0" key="53" len="12" vol="200" pos="456"/>
          <note pan="0" key="54" len="12" vol="200" pos="468"/>
          <note pan="0" key="58" len="12" vol="200" pos="480"/>
          <note pan="0" key="56" len="12" vol="200" pos="492"/>
          <note pan="0" key="54" len="12" vol="200" pos="504"/>
          <note pan="0" key="53" len="12" vol="200" pos="516"/>
          <note pan="0" key="56" len="12" vol="200" pos="528"/>
          <note pan="0" key="54" len="12" vol="200" pos="540"/>
          <note pan="0" key="53" len="12" vol="200" pos="552"/>
          <note pan="0" key="54" len="12" vol="200" pos="564"/>
          <note pan="0" key="66" len="192" vol="197" pos="576"/>
        </pattern>
      </track>
      <track solo="0" mutedBeforeSolo="1" muted="1" name="Orchestra Soundfont 2 COMBO" type="0">
        <instrumenttrack pan="0" basenote="57" pitch="0" usemasterpitch="1" vol="100" pitchrange="2" fxch="0">
          <instrument name="sf2player">
            <sf2player chorusLevel="2" patch="0" reverbOn="0" reverbWidth="0.5" gain="5" src="/home/pass/samples/soundfonts/Orchestra Soundfont 2 COMBO.sf2" bank="0" chorusDepth="8" reverbLevel="0.9" reverbDamping="0" reverbRoomSize="0.2" chorusOn="0" chorusNum="3" chorusSpeed="0.3">
              <key/>
            </sf2player>
          </instrument>
          <eldata fcut="14000" fres="0.5" ftype="0" fwet="0">
            <elvol lspd_syncmode="0" amt="0" lshp="0" lpdel="0" att="0" ctlenvamt="0" dec="0.5" userwavefile="" x100="0" rel="0.1" sustain="0.5" lspd_numerator="4" latt="0" lspd="0.1" lamt="0" lspd_denominator="4" hold="0.5" pdel="0"/>
            <elcut lspd_syncmode="0" amt="0" lshp="0" lpdel="0" att="0" ctlenvamt="0" dec="0.5" userwavefile="" x100="0" rel="0.1" sustain="0.5" lspd_numerator="4" latt="0" lspd="0.1" lamt="0" lspd_denominator="4" hold="0.5" pdel="0"/>
            <elres lspd_syncmode="0" amt="0" lshp="0" lpdel="0" att="0" ctlenvamt="0" dec="0.5" userwavefile="" x100="0" rel="0.1" sustain="0.5" lspd_numerator="4" latt="0" lspd="0.1" lamt="0" lspd_denominator="4" hold="0.5" pdel="0"/>
          </eldata>
          <chordcreator chordrange="1" chord-enabled="0" chord="0"/>
          <arpeggiator arprange="1" arpmode="0" arpcycle="0" arptime_syncmode="0" arptime_numerator="4" arpgate="100" arptime="200" arpskip="0" arpmiss="0" arp="0" arptime_denominator="4" arp-enabled="0" arpdir="0"/>
          <midiport inputcontroller="0" outputcontroller="0" readable="0" outputchannel="1" fixedoutputvelocity="-1" outputprogram="1" fixedinputvelocity="-1" fixedoutputnote="-1" inputchannel="0" basevelocity="63" writable="0"/>
          <fxchain enabled="0" numofeffects="0"/>
        </instrumenttrack>
        <pattern steps="16" muted="0" pos="8064" name="" type="1">
          <note pan="0" key="61" len="24" vol="78" pos="0"/>
          <note pan="0" key="68" len="24" vol="78" pos="24"/>
          <note pan="0" key="73" len="24" vol="78" pos="48"/>
          <note pan="0" key="68" len="24" vol="78" pos="72"/>
          <note pan="0" key="76" len="24" vol="78" pos="96"/>
          <note pan="0" key="68" len="24" vol="78" pos="120"/>
          <note pan="0" key="73" len="24" vol="78" pos="144"/>
          <note pan="0" key="68" len="24" vol="78" pos="168"/>
          <note pan="0" key="63" len="24" vol="78" pos="192"/>
          <note pan="0" key="68" len="24" vol="78" pos="216"/>
          <note pan="0" key="71" len="24" vol="78" pos="240"/>
          <note pan="0" key="68" len="24" vol="78" pos="264"/>
          <note pan="0" key="63" len="24" vol="78" pos="288"/>
          <note pan="0" key="68" len="24" vol="78" pos="312"/>
          <note pan="0" key="71" len="24" vol="78" pos="336"/>
          <note pan="0" key="68" len="24" vol="78" pos="360"/>
          <note pan="0" key="64" len="24" vol="78" pos="384"/>
          <note pan="0" key="68" len="24" vol="78" pos="408"/>
          <note pan="0" key="73" len="24" vol="78" pos="432"/>
          <note pan="0" key="68" len="24" vol="78" pos="456"/>
          <note pan="0" key="64" len="24" vol="78" pos="480"/>
          <note pan="0" key="68" len="24" vol="78" pos="504"/>
          <note pan="0" key="73" len="24" vol="78" pos="528"/>
          <note pan="0" key="68" len="24" vol="78" pos="552"/>
          <note pan="0" key="66" len="24" vol="78" pos="576"/>
          <note pan="0" key="71" len="24" vol="78" pos="600"/>
          <note pan="0" key="76" len="24" vol="78" pos="624"/>
          <note pan="0" key="71" len="24" vol="78" pos="648"/>
          <note pan="0" key="66" len="24" vol="78" pos="672"/>
          <note pan="0" key="71" len="24" vol="78" pos="696"/>
          <note pan="0" key="75" len="24" vol="78" pos="720"/>
          <note pan="0" key="71" len="24" vol="78" pos="744"/>
          <note pan="0" key="64" len="24" vol="78" pos="768"/>
          <note pan="0" key="68" len="24" vol="78" pos="792"/>
          <note pan="0" key="73" len="24" vol="78" pos="816"/>
          <note pan="0" key="68" len="24" vol="78" pos="840"/>
          <note pan="0" key="64" len="24" vol="78" pos="864"/>
          <note pan="0" key="68" len="24" vol="78" pos="888"/>
          <note pan="0" key="73" len="24" vol="78" pos="912"/>
          <note pan="0" key="68" len="24" vol="78" pos="936"/>
          <note pan="0" key="63" len="24" vol="78" pos="960"/>
          <note pan="0" key="66" len="24" vol="78" pos="984"/>
          <note pan="0" key="71" len="24" vol="78" pos="1008"/>
          <note pan="0" key="66" len="24" vol="78" pos="1032"/>
          <note pan="0" key="63" len="24" vol="78" pos="1056"/>
          <note pan="0" key="66" len="24" vol="78" pos="1080"/>
          <note pan="0" key="71" len="24" vol="78" pos="1104"/>
          <note pan="0" key="66" len="24" vol="78" pos="1128"/>
          <note pan="0" key="64" len="24" vol="78" pos="1152"/>
          <note pan="0" key="68" len="24" vol="78" pos="1176"/>
          <note pan="0" key="73" len="24" vol="78" pos="1200"/>
          <note pan="0" key="68" len="24" vol="78" pos="1224"/>
          <note pan="0" key="64" len="24" vol="78" pos="1248"/>
          <note pan="0" key="68" len="24" vol="78" pos="1272"/>
          <note pan="0" key="73" len="24" vol="78" pos="1296"/>
          <note pan="0" key="68" len="24" vol="78" pos="1320"/>
          <note pan="0" key="66" len="24" vol="78" pos="1344"/>
          <note pan="0" key="68" len="24" vol="78" pos="1368"/>
          <note pan="0" key="66" len="24" vol="78" pos="1392"/>
          <note pan="0" key="64" len="24" vol="78" pos="1416"/>
          <note pan="0" key="63" len="24" vol="78" pos="1440"/>
          <note pan="0" key="60" len="24" vol="78" pos="1464"/>
          <note pan="0" key="66" len="24" vol="78" pos="1488"/>
          <note pan="0" key="63" len="24" vol="78" pos="1512"/>
          <note pan="0" key="61" len="24" vol="78" pos="1536"/>
          <note pan="0" key="68" len="24" vol="78" pos="1560"/>
          <note pan="0" key="73" len="24" vol="78" pos="1584"/>
          <note pan="0" key="68" len="24" vol="78" pos="1608"/>
          <note pan="0" key="61" len="24" vol="78" pos="1632"/>
          <note pan="0" key="68" len="24" vol="78" pos="1656"/>
          <note pan="0" key="73" len="24" vol="78" pos="1680"/>
          <note pan="0" key="68" len="24" vol="78" pos="1704"/>
          <note pan="0" key="63" len="24" vol="78" pos="1728"/>
          <note pan="0" key="68" len="24" vol="78" pos="1752"/>
          <note pan="0" key="71" len="24" vol="78" pos="1776"/>
          <note pan="0" key="68" len="24" vol="78" pos="1800"/>
          <note pan="0" key="63" len="24" vol="78" pos="1824"/>
          <note pan="0" key="68" len="24" vol="78" pos="1848"/>
          <note pan="0" key="71" len="24" vol="78" pos="1872"/>
          <note pan="0" key="68" len="24" vol="78" pos="1896"/>
          <note pan="0" key="61" len="24" vol="78" pos="1920"/>
          <note pan="0" key="66" len="24" vol="78" pos="1944"/>
          <note pan="0" key="70" len="24" vol="78" pos="1968"/>
          <note pan="0" key="66" len="24" vol="78" pos="1992"/>
          <note pan="0" key="61" len="24" vol="78" pos="2016"/>
          <note pan="0" key="66" len="24" vol="78" pos="2040"/>
          <note pan="0" key="70" len="24" vol="78" pos="2064"/>
          <note pan="0" key="66" len="24" vol="78" pos="2088"/>
          <note pan="0" key="61" len="24" vol="78" pos="2112"/>
          <note pan="0" key="66" len="24" vol="78" pos="2136"/>
          <note pan="0" key="70" len="24" vol="78" pos="2160"/>
          <note pan="0" key="66" len="24" vol="78" pos="2184"/>
          <note pan="0" key="61" len="24" vol="78" pos="2208"/>
          <note pan="0" key="66" len="24" vol="78" pos="2232"/>
          <note pan="0" key="70" len="24" vol="78" pos="2256"/>
          <note pan="0" key="66" len="24" vol="78" pos="2280"/>
          <note pan="0" key="66" len="24" vol="78" pos="2304"/>
          <note pan="0" key="69" len="24" vol="78" pos="2328"/>
          <note pan="0" key="73" len="24" vol="78" pos="2352"/>
          <note pan="0" key="69" len="24" vol="78" pos="2376"/>
          <note pan="0" key="66" len="24" vol="78" pos="2400"/>
          <note pan="0" key="69" len="24" vol="78" pos="2424"/>
          <note pan="0" key="73" len="24" vol="78" pos="2448"/>
          <note pan="0" key="69" len="24" vol="78" pos="2472"/>
          <note pan="0" key="63" len="24" vol="78" pos="2496"/>
          <note pan="0" key="68" len="24" vol="78" pos="2520"/>
          <note pan="0" key="73" len="24" vol="78" pos="2544"/>
          <note pan="0" key="68" len="24" vol="78" pos="2568"/>
          <note pan="0" key="63" len="24" vol="78" pos="2592"/>
          <note pan="0" key="68" len="24" vol="78" pos="2616"/>
          <note pan="0" key="73" len="24" vol="78" pos="2640"/>
          <note pan="0" key="68" len="24" vol="78" pos="2664"/>
          <note pan="0" key="66" len="24" vol="78" pos="2688"/>
          <note pan="0" key="71" len="24" vol="78" pos="2712"/>
          <note pan="0" key="75" len="24" vol="78" pos="2736"/>
          <note pan="0" key="71" len="24" vol="78" pos="2760"/>
          <note pan="0" key="66" len="24" vol="78" pos="2784"/>
          <note pan="0" key="71" len="24" vol="78" pos="2808"/>
          <note pan="0" key="75" len="24" vol="78" pos="2832"/>
          <note pan="0" key="71" len="24" vol="78" pos="2856"/>
          <note pan="0" key="66" len="96" vol="78" pos="2880"/>
          <note pan="0" key="59" len="96" vol="78" pos="2976"/>
          <note pan="0" key="68" len="12" vol="78" pos="3072"/>
          <note pan="0" key="64" len="12" vol="78" pos="3084"/>
          <note pan="0" key="61" len="12" vol="78" pos="3096"/>
          <note pan="0" key="56" len="12" vol="78" pos="3108"/>
          <note pan="0" key="52" len="12" vol="78" pos="3120"/>
          <note pan="0" key="49" len="12" vol="78" pos="3132"/>
          <note pan="0" key="61" len="12" vol="78" pos="3168"/>
          <note pan="0" key="56" len="12" vol="78" pos="3180"/>
          <note pan="0" key="52" len="12" vol="78" pos="3192"/>
          <note pan="0" key="49" len="12" vol="78" pos="3204"/>
          <note pan="0" key="76" len="12" vol="78" pos="3216"/>
          <note pan="0" key="71" len="12" vol="78" pos="3228"/>
          <note pan="0" key="68" len="12" vol="78" pos="3240"/>
          <note pan="0" key="64" len="12" vol="78" pos="3252"/>
          <note pan="0" key="76" len="12" vol="78" pos="3264"/>
          <note pan="0" key="71" len="12" vol="78" pos="3276"/>
          <note pan="0" key="80" len="12" vol="78" pos="3288"/>
          <note pan="0" key="76" len="12" vol="78" pos="3300"/>
          <note pan="0" key="71" len="12" vol="78" pos="3312"/>
          <note pan="0" key="68" len="12" vol="78" pos="3324"/>
          <note pan="0" key="64" len="12" vol="78" pos="3336"/>
          <note pan="0" key="61" len="12" vol="78" pos="3348"/>
          <note pan="0" key="73" len="12" vol="78" pos="3360"/>
          <note pan="0" key="68" len="12" vol="78" pos="3372"/>
          <note pan="0" key="64" len="12" vol="78" pos="3384"/>
          <note pan="0" key="61" len="12" vol="78" pos="3396"/>
          <note pan="0" key="68" len="12" vol="78" pos="3408"/>
          <note pan="0" key="64" len="12" vol="78" pos="3420"/>
          <note pan="0" key="56" len="12" vol="78" pos="3432"/>
          <note pan="0" key="49" len="12" vol="78" pos="3444"/>
          <note pan="0" key="69" len="12" vol="78" pos="3456"/>
          <note pan="0" key="66" len="12" vol="78" pos="3468"/>
          <note pan="0" key="57" len="12" vol="78" pos="3480"/>
          <note pan="0" key="54" len="12" vol="78" pos="3492"/>
          <note pan="0" key="49" len="12" vol="78" pos="3504"/>
          <note pan="0" key="47" len="12" vol="78" pos="3516"/>
          <note pan="0" key="74" len="12" vol="78" pos="3528"/>
          <note pan="0" key="69" len="12" vol="78" pos="3540"/>
          <note pan="0" key="66" len="12" vol="78" pos="3552"/>
          <note pan="0" key="61" len="12" vol="78" pos="3564"/>
          <note pan="0" key="57" len="12" vol="78" pos="3576"/>
          <note pan="0" key="54" len="12" vol="78" pos="3588"/>
          <note pan="0" key="78" len="12" vol="78" pos="3600"/>
          <note pan="0" key="74" len="12" vol="78" pos="3612"/>
          <note pan="0" key="69" len="12" vol="78" pos="3624"/>
          <note pan="0" key="66" len="12" vol="78" pos="3636"/>
          <note pan="0" key="81" len="12" vol="78" pos="3672"/>
          <note pan="0" key="78" len="12" vol="78" pos="3684"/>
          <note pan="0" key="73" len="12" vol="78" pos="3696"/>
          <note pan="0" key="69" len="12" vol="78" pos="3708"/>
          <note pan="0" key="66" len="12" vol="78" pos="3720"/>
          <note pan="0" key="61" len="12" vol="78" pos="3732"/>
          <note pan="0" key="74" len="12" vol="78" pos="3744"/>
          <note pan="0" key="71" len="12" vol="78" pos="3756"/>
          <note pan="0" key="66" len="12" vol="78" pos="3768"/>
          <note pan="0" key="61" len="12" vol="78" pos="3780"/>
          <note pan="0" key="69" len="12" vol="78" pos="3792"/>
          <note pan="0" key="66" len="12" vol="78" pos="3804"/>
          <note pan="0" key="61" len="12" vol="78" pos="3816"/>
          <note pan="0" key="57" len="12" vol="78" pos="3828"/>
          <note pan="0" key="68" len="12" vol="78" pos="3840"/>
          <note pan="0" key="64" len="12" vol="78" pos="3852"/>
          <note pan="0" key="61" len="12" vol="78" pos="3864"/>
          <note pan="0" key="56" len="12" vol="78" pos="3876"/>
          <note pan="0" key="73" len="12" vol="78" pos="3912"/>
          <note pan="0" key="69" len="12" vol="78" pos="3924"/>
          <note pan="0" key="68" len="12" vol="78" pos="3936"/>
          <note pan="0" key="64" len="12" vol="78" pos="3948"/>
          <note pan="0" key="56" len="12" vol="78" pos="3960"/>
          <note pan="0" key="52" len="12" vol="78" pos="3972"/>
          <note pan="0" key="76" len="12" vol="78" pos="3984"/>
          <note pan="0" key="71" len="12" vol="78" pos="3996"/>
          <note pan="0" key="68" len="12" vol="78" pos="4008"/>
          <note pan="0" key="64" len="12" vol="78" pos="4020"/>
          <note pan="0" key="81" len="12" vol="78" pos="4056"/>
          <note pan="0" key="78" len="12" vol="78" pos="4068"/>
          <note pan="0" key="78" len="12" vol="78" pos="4080"/>
          <note pan="0" key="69" len="12" vol="78" pos="4092"/>
          <note pan="0" key="66" len="12" vol="78" pos="4104"/>
          <note pan="0" key="64" len="12" vol="78" pos="4116"/>
          <note pan="0" key="73" len="12" vol="78" pos="4128"/>
          <note pan="0" key="69" len="12" vol="78" pos="4140"/>
          <note pan="0" key="66" len="12" vol="78" pos="4152"/>
          <note pan="0" key="61" len="12" vol="78" pos="4164"/>
          <note pan="0" key="68" len="12" vol="78" pos="4176"/>
          <note pan="0" key="64" len="12" vol="78" pos="4188"/>
          <note pan="0" key="61" len="12" vol="78" pos="4200"/>
          <note pan="0" key="56" len="12" vol="78" pos="4212"/>
          <note pan="0" key="69" len="12" vol="78" pos="4224"/>
          <note pan="0" key="66" len="12" vol="78" pos="4236"/>
          <note pan="0" key="57" len="12" vol="78" pos="4248"/>
          <note pan="0" key="54" len="12" vol="78" pos="4260"/>
          <note pan="0" key="52" len="12" vol="78" pos="4272"/>
          <note pan="0" key="49" len="12" vol="78" pos="4284"/>
          <note pan="0" key="74" len="12" vol="78" pos="4296"/>
          <note pan="0" key="69" len="12" vol="78" pos="4308"/>
          <note pan="0" key="66" len="12" vol="78" pos="4320"/>
          <note pan="0" key="61" len="12" vol="78" pos="4332"/>
          <note pan="0" key="57" len="12" vol="78" pos="4344"/>
          <note pan="0" key="54" len="12" vol="78" pos="4356"/>
          <note pan="0" key="78" len="12" vol="78" pos="4368"/>
          <note pan="0" key="74" len="12" vol="78" pos="4380"/>
          <note pan="0" key="69" len="12" vol="78" pos="4392"/>
          <note pan="0" key="66" len="12" vol="78" pos="4404"/>
          <note pan="0" key="81" len="12" vol="78" pos="4440"/>
          <note pan="0" key="78" len="12" vol="78" pos="4452"/>
          <note pan="0" key="73" len="12" vol="78" pos="4464"/>
          <note pan="0" key="69" len="12" vol="78" pos="4476"/>
          <note pan="0" key="66" len="12" vol="78" pos="4488"/>
          <note pan="0" key="61" len="12" vol="78" pos="4500"/>
          <note pan="0" key="74" len="12" vol="78" pos="4512"/>
          <note pan="0" key="71" len="12" vol="78" pos="4524"/>
          <note pan="0" key="66" len="12" vol="78" pos="4536"/>
          <note pan="0" key="61" len="12" vol="78" pos="4548"/>
          <note pan="0" key="69" len="12" vol="78" pos="4560"/>
          <note pan="0" key="66" len="12" vol="78" pos="4572"/>
          <note pan="0" key="61" len="12" vol="78" pos="4584"/>
          <note pan="0" key="57" len="12" vol="78" pos="4596"/>
        </pattern>
        <pattern steps="16" muted="0" pos="15744" name="" type="1">
          <note pan="0" key="61" len="24" vol="78" pos="0"/>
          <note pan="0" key="68" len="24" vol="78" pos="24"/>
          <note pan="0" key="73" len="24" vol="78" pos="48"/>
          <note pan="0" key="68" len="24" vol="78" pos="72"/>
          <note pan="0" key="76" len="24" vol="78" pos="96"/>
          <note pan="0" key="68" len="24" vol="78" pos="120"/>
          <note pan="0" key="73" len="24" vol="78" pos="144"/>
          <note pan="0" key="68" len="24" vol="78" pos="168"/>
          <note pan="0" key="63" len="24" vol="78" pos="192"/>
          <note pan="0" key="68" len="24" vol="78" pos="216"/>
          <note pan="0" key="71" len="24" vol="78" pos="240"/>
          <note pan="0" key="68" len="24" vol="78" pos="264"/>
          <note pan="0" key="63" len="24" vol="78" pos="288"/>
          <note pan="0" key="68" len="24" vol="78" pos="312"/>
          <note pan="0" key="71" len="24" vol="78" pos="336"/>
          <note pan="0" key="68" len="24" vol="78" pos="360"/>
          <note pan="0" key="64" len="24" vol="78" pos="384"/>
          <note pan="0" key="68" len="24" vol="78" pos="408"/>
          <note pan="0" key="73" len="24" vol="78" pos="432"/>
          <note pan="0" key="68" len="24" vol="78" pos="456"/>
          <note pan="0" key="64" len="24" vol="78" pos="480"/>
          <note pan="0" key="68" len="24" vol="78" pos="504"/>
          <note pan="0" key="73" len="24" vol="78" pos="528"/>
          <note pan="0" key="68" len="24" vol="78" pos="552"/>
          <note pan="0" key="66" len="24" vol="78" pos="576"/>
          <note pan="0" key="71" len="24" vol="78" pos="600"/>
          <note pan="0" key="76" len="24" vol="78" pos="624"/>
          <note pan="0" key="71" len="24" vol="78" pos="648"/>
          <note pan="0" key="66" len="24" vol="78" pos="672"/>
          <note pan="0" key="71" len="24" vol="78" pos="696"/>
          <note pan="0" key="75" len="24" vol="78" pos="720"/>
          <note pan="0" key="71" len="24" vol="78" pos="744"/>
          <note pan="0" key="64" len="24" vol="78" pos="768"/>
          <note pan="0" key="68" len="24" vol="78" pos="792"/>
          <note pan="0" key="73" len="24" vol="78" pos="816"/>
          <note pan="0" key="68" len="24" vol="78" pos="840"/>
          <note pan="0" key="64" len="24" vol="78" pos="864"/>
          <note pan="0" key="68" len="24" vol="78" pos="888"/>
          <note pan="0" key="73" len="24" vol="78" pos="912"/>
          <note pan="0" key="68" len="24" vol="78" pos="936"/>
          <note pan="0" key="63" len="24" vol="78" pos="960"/>
          <note pan="0" key="66" len="24" vol="78" pos="984"/>
          <note pan="0" key="71" len="24" vol="78" pos="1008"/>
          <note pan="0" key="66" len="24" vol="78" pos="1032"/>
          <note pan="0" key="63" len="24" vol="78" pos="1056"/>
          <note pan="0" key="66" len="24" vol="78" pos="1080"/>
          <note pan="0" key="71" len="24" vol="78" pos="1104"/>
          <note pan="0" key="66" len="24" vol="78" pos="1128"/>
          <note pan="0" key="64" len="24" vol="78" pos="1152"/>
          <note pan="0" key="68" len="24" vol="78" pos="1176"/>
          <note pan="0" key="73" len="24" vol="78" pos="1200"/>
          <note pan="0" key="68" len="24" vol="78" pos="1224"/>
          <note pan="0" key="64" len="24" vol="78" pos="1248"/>
          <note pan="0" key="68" len="24" vol="78" pos="1272"/>
          <note pan="0" key="73" len="24" vol="78" pos="1296"/>
          <note pan="0" key="68" len="24" vol="78" pos="1320"/>
          <note pan="0" key="66" len="24" vol="78" pos="1344"/>
          <note pan="0" key="68" len="24" vol="78" pos="1368"/>
          <note pan="0" key="66" len="24" vol="78" pos="1392"/>
          <note pan="0" key="64" len="24" vol="78" pos="1416"/>
          <note pan="0" key="63" len="24" vol="78" pos="1440"/>
          <note pan="0" key="60" len="24" vol="78" pos="1464"/>
          <note pan="0" key="66" len="24" vol="78" pos="1488"/>
          <note pan="0" key="63" len="24" vol="78" pos="1512"/>
          <note pan="0" key="61" len="24" vol="78" pos="1536"/>
          <note pan="0" key="68" len="24" vol="78" pos="1560"/>
          <note pan="0" key="73" len="24" vol="78" pos="1584"/>
          <note pan="0" key="68" len="24" vol="78" pos="1608"/>
          <note pan="0" key="61" len="24" vol="78" pos="1632"/>
          <note pan="0" key="68" len="24" vol="78" pos="1656"/>
          <note pan="0" key="73" len="24" vol="78" pos="1680"/>
          <note pan="0" key="68" len="24" vol="78" pos="1704"/>
          <note pan="0" key="63" len="24" vol="78" pos="1728"/>
          <note pan="0" key="68" len="24" vol="78" pos="1752"/>
          <note pan="0" key="71" len="24" vol="78" pos="1776"/>
          <note pan="0" key="68" len="24" vol="78" pos="1800"/>
          <note pan="0" key="63" len="24" vol="78" pos="1824"/>
          <note pan="0" key="68" len="24" vol="78" pos="1848"/>
          <note pan="0" key="71" len="24" vol="78" pos="1872"/>
          <note pan="0" key="68" len="24" vol="78" pos="1896"/>
          <note pan="0" key="61" len="24" vol="78" pos="1920"/>
          <note pan="0" key="66" len="24" vol="78" pos="1944"/>
          <note pan="0" key="70" len="24" vol="78" pos="1968"/>
          <note pan="0" key="66" len="24" vol="78" pos="1992"/>
          <note pan="0" key="61" len="24" vol="78" pos="2016"/>
          <note pan="0" key="66" len="24" vol="78" pos="2040"/>
          <note pan="0" key="70" len="24" vol="78" pos="2064"/>
          <note pan="0" key="66" len="24" vol="78" pos="2088"/>
          <note pan="0" key="61" len="24" vol="78" pos="2112"/>
          <note pan="0" key="66" len="24" vol="78" pos="2136"/>
          <note pan="0" key="70" len="24" vol="78" pos="2160"/>
          <note pan="0" key="66" len="24" vol="78" pos="2184"/>
          <note pan="0" key="61" len="24" vol="78" pos="2208"/>
          <note pan="0" key="66" len="24" vol="78" pos="2232"/>
          <note pan="0" key="70" len="24" vol="78" pos="2256"/>
          <note pan="0" key="66" len="24" vol="78" pos="2280"/>
          <note pan="0" key="66" len="24" vol="78" pos="2304"/>
          <note pan="0" key="69" len="24" vol="78" pos="2328"/>
          <note pan="0" key="73" len="24" vol="78" pos="2352"/>
          <note pan="0" key="69" len="24" vol="78" pos="2376"/>
          <note pan="0" key="66" len="24" vol="78" pos="2400"/>
          <note pan="0" key="69" len="24" vol="78" pos="2424"/>
          <note pan="0" key="73" len="24" vol="78" pos="2448"/>
          <note pan="0" key="69" len="24" vol="78" pos="2472"/>
          <note pan="0" key="63" len="24" vol="78" pos="2496"/>
          <note pan="0" key="68" len="24" vol="78" pos="2520"/>
          <note pan="0" key="73" len="24" vol="78" pos="2544"/>
          <note pan="0" key="68" len="24" vol="78" pos="2568"/>
          <note pan="0" key="63" len="24" vol="78" pos="2592"/>
          <note pan="0" key="68" len="24" vol="78" pos="2616"/>
          <note pan="0" key="73" len="24" vol="78" pos="2640"/>
          <note pan="0" key="68" len="24" vol="78" pos="2664"/>
          <note pan="0" key="66" len="24" vol="78" pos="2688"/>
          <note pan="0" key="71" len="24" vol="78" pos="2712"/>
          <note pan="0" key="75" len="24" vol="78" pos="2736"/>
          <note pan="0" key="71" len="24" vol="78" pos="2760"/>
          <note pan="0" key="66" len="24" vol="78" pos="2784"/>
          <note pan="0" key="71" len="24" vol="78" pos="2808"/>
          <note pan="0" key="75" len="24" vol="78" pos="2832"/>
          <note pan="0" key="71" len="24" vol="78" pos="2856"/>
          <note pan="0" key="63" len="24" vol="78" pos="2880"/>
          <note pan="0" key="51" len="24" vol="78" pos="2880"/>
          <note pan="0" key="63" len="24" vol="78" pos="2904"/>
          <note pan="0" key="51" len="24" vol="78" pos="2904"/>
          <note pan="0" key="71" len="24" vol="78" pos="2976"/>
          <note pan="0" key="59" len="24" vol="78" pos="2976"/>
          <note pan="0" key="71" len="24" vol="78" pos="3000"/>
          <note pan="0" key="59" len="24" vol="78" pos="3000"/>
          <note pan="0" key="56" len="12" vol="78" pos="3072"/>
          <note pan="0" key="61" len="12" vol="78" pos="3084"/>
          <note pan="0" key="64" len="12" vol="78" pos="3096"/>
          <note pan="0" key="68" len="12" vol="78" pos="3108"/>
          <note pan="0" key="73" len="12" vol="78" pos="3120"/>
          <note pan="0" key="76" len="12" vol="78" pos="3132"/>
          <note pan="0" key="80" len="12" vol="78" pos="3144"/>
          <note pan="0" key="83" len="12" vol="78" pos="3156"/>
          <note pan="0" key="73" len="12" vol="78" pos="3168"/>
          <note pan="0" key="83" len="12" vol="78" pos="3180"/>
          <note pan="0" key="80" len="12" vol="78" pos="3192"/>
          <note pan="0" key="76" len="12" vol="78" pos="3204"/>
          <note pan="0" key="73" len="12" vol="78" pos="3216"/>
          <note pan="0" key="68" len="12" vol="78" pos="3228"/>
          <note pan="0" key="64" len="12" vol="78" pos="3240"/>
          <note pan="0" key="61" len="12" vol="78" pos="3252"/>
          <note pan="0" key="56" len="12" vol="78" pos="3264"/>
          <note pan="0" key="61" len="12" vol="78" pos="3276"/>
          <note pan="0" key="64" len="12" vol="78" pos="3288"/>
          <note pan="0" key="68" len="12" vol="78" pos="3300"/>
          <note pan="0" key="73" len="12" vol="78" pos="3312"/>
          <note pan="0" key="76" len="12" vol="78" pos="3324"/>
          <note pan="0" key="80" len="12" vol="78" pos="3336"/>
          <note pan="0" key="83" len="12" vol="78" pos="3348"/>
          <note pan="0" key="73" len="12" vol="78" pos="3360"/>
          <note pan="0" key="83" len="12" vol="78" pos="3372"/>
          <note pan="0" key="80" len="12" vol="78" pos="3384"/>
          <note pan="0" key="76" len="12" vol="78" pos="3396"/>
          <note pan="0" key="73" len="12" vol="78" pos="3408"/>
          <note pan="0" key="68" len="12" vol="78" pos="3420"/>
          <note pan="0" key="64" len="12" vol="78" pos="3432"/>
          <note pan="0" key="61" len="12" vol="78" pos="3444"/>
          <note pan="0" key="54" len="12" vol="78" pos="3456"/>
          <note pan="0" key="59" len="12" vol="78" pos="3468"/>
          <note pan="0" key="63" len="12" vol="78" pos="3480"/>
          <note pan="0" key="66" len="12" vol="78" pos="3492"/>
          <note pan="0" key="69" len="12" vol="78" pos="3504"/>
          <note pan="0" key="73" len="12" vol="78" pos="3516"/>
          <note pan="0" key="76" len="12" vol="78" pos="3528"/>
          <note pan="0" key="80" len="12" vol="78" pos="3540"/>
          <note pan="0" key="83" len="12" vol="78" pos="3552"/>
          <note pan="0" key="80" len="12" vol="78" pos="3564"/>
          <note pan="0" key="75" len="12" vol="78" pos="3576"/>
          <note pan="0" key="71" len="12" vol="78" pos="3588"/>
          <note pan="0" key="66" len="12" vol="78" pos="3600"/>
          <note pan="0" key="61" len="12" vol="78" pos="3612"/>
          <note pan="0" key="59" len="12" vol="78" pos="3624"/>
          <note pan="0" key="54" len="12" vol="78" pos="3636"/>
          <note pan="0" key="54" len="12" vol="78" pos="3648"/>
          <note pan="0" key="59" len="12" vol="78" pos="3660"/>
          <note pan="0" key="63" len="12" vol="78" pos="3672"/>
          <note pan="0" key="66" len="12" vol="78" pos="3684"/>
          <note pan="0" key="69" len="12" vol="78" pos="3696"/>
          <note pan="0" key="73" len="12" vol="78" pos="3708"/>
          <note pan="0" key="76" len="12" vol="78" pos="3720"/>
          <note pan="0" key="80" len="12" vol="78" pos="3732"/>
          <note pan="0" key="83" len="12" vol="78" pos="3744"/>
          <note pan="0" key="80" len="12" vol="78" pos="3756"/>
          <note pan="0" key="75" len="12" vol="78" pos="3768"/>
          <note pan="0" key="71" len="12" vol="78" pos="3780"/>
          <note pan="0" key="66" len="12" vol="78" pos="3792"/>
          <note pan="0" key="61" len="12" vol="78" pos="3804"/>
          <note pan="0" key="59" len="12" vol="78" pos="3816"/>
          <note pan="0" key="54" len="12" vol="78" pos="3828"/>
          <note pan="0" key="54" len="12" vol="78" pos="3840"/>
          <note pan="0" key="57" len="12" vol="78" pos="3852"/>
          <note pan="0" key="61" len="12" vol="78" pos="3864"/>
          <note pan="0" key="64" len="12" vol="78" pos="3876"/>
          <note pan="0" key="66" len="12" vol="78" pos="3888"/>
          <note pan="0" key="73" len="12" vol="78" pos="3900"/>
          <note pan="0" key="76" len="12" vol="78" pos="3912"/>
          <note pan="0" key="78" len="12" vol="78" pos="3924"/>
          <note pan="0" key="82" len="12" vol="78" pos="3936"/>
          <note pan="0" key="78" len="12" vol="78" pos="3948"/>
          <note pan="0" key="76" len="12" vol="78" pos="3960"/>
          <note pan="0" key="73" len="12" vol="78" pos="3972"/>
          <note pan="0" key="66" len="12" vol="78" pos="3984"/>
          <note pan="0" key="64" len="12" vol="78" pos="3996"/>
          <note pan="0" key="61" len="12" vol="78" pos="4008"/>
          <note pan="0" key="57" len="12" vol="78" pos="4020"/>
          <note pan="0" key="54" len="12" vol="78" pos="4032"/>
          <note pan="0" key="57" len="12" vol="78" pos="4044"/>
          <note pan="0" key="61" len="12" vol="78" pos="4056"/>
          <note pan="0" key="64" len="12" vol="78" pos="4068"/>
          <note pan="0" key="66" len="12" vol="78" pos="4080"/>
          <note pan="0" key="73" len="12" vol="78" pos="4092"/>
          <note pan="0" key="76" len="12" vol="78" pos="4104"/>
          <note pan="0" key="78" len="12" vol="78" pos="4116"/>
          <note pan="0" key="82" len="12" vol="78" pos="4128"/>
          <note pan="0" key="78" len="12" vol="78" pos="4140"/>
          <note pan="0" key="76" len="12" vol="78" pos="4152"/>
          <note pan="0" key="73" len="12" vol="78" pos="4164"/>
          <note pan="0" key="66" len="12" vol="78" pos="4176"/>
          <note pan="0" key="64" len="12" vol="78" pos="4188"/>
          <note pan="0" key="61" len="12" vol="78" pos="4200"/>
          <note pan="0" key="57" len="12" vol="78" pos="4212"/>
          <note pan="0" key="51" len="12" vol="78" pos="4224"/>
          <note pan="0" key="54" len="12" vol="78" pos="4236"/>
          <note pan="0" key="57" len="12" vol="78" pos="4248"/>
          <note pan="0" key="63" len="12" vol="78" pos="4260"/>
          <note pan="0" key="66" len="12" vol="78" pos="4272"/>
          <note pan="0" key="69" len="12" vol="78" pos="4284"/>
          <note pan="0" key="73" len="12" vol="78" pos="4296"/>
          <note pan="0" key="76" len="12" vol="78" pos="4308"/>
          <note pan="0" key="81" len="12" vol="78" pos="4320"/>
          <note pan="0" key="78" len="12" vol="78" pos="4332"/>
          <note pan="0" key="73" len="12" vol="78" pos="4344"/>
          <note pan="0" key="69" len="12" vol="78" pos="4356"/>
          <note pan="0" key="66" len="12" vol="78" pos="4368"/>
          <note pan="0" key="63" len="12" vol="78" pos="4380"/>
          <note pan="0" key="57" len="12" vol="78" pos="4392"/>
          <note pan="0" key="54" len="12" vol="78" pos="4404"/>
          <note pan="0" key="51" len="12" vol="78" pos="4416"/>
          <note pan="0" key="54" len="12" vol="78" pos="4428"/>
          <note pan="0" key="57" len="12" vol="78" pos="4440"/>
          <note pan="0" key="63" len="12" vol="78" pos="4452"/>
          <note pan="0" key="66" len="12" vol="78" pos="4464"/>
          <note pan="0" key="69" len="12" vol="78" pos="4476"/>
          <note pan="0" key="73" len="12" vol="78" pos="4488"/>
          <note pan="0" key="76" len="12" vol="78" pos="4500"/>
          <note pan="0" key="81" len="12" vol="78" pos="4512"/>
          <note pan="0" key="78" len="12" vol="78" pos="4524"/>
          <note pan="0" key="73" len="12" vol="78" pos="4536"/>
          <note pan="0" key="69" len="12" vol="78" pos="4548"/>
          <note pan="0" key="66" len="12" vol="78" pos="4560"/>
          <note pan="0" key="63" len="12" vol="78" pos="4572"/>
          <note pan="0" key="57" len="12" vol="78" pos="4584"/>
          <note pan="0" key="54" len="12" vol="78" pos="4596"/>
          <note pan="0" key="52" len="12" vol="78" pos="4608"/>
          <note pan="0" key="61" len="12" vol="78" pos="4620"/>
          <note pan="0" key="64" len="12" vol="78" pos="4632"/>
          <note pan="0" key="68" len="12" vol="78" pos="4644"/>
          <note pan="0" key="73" len="12" vol="78" pos="4656"/>
          <note pan="0" key="76" len="12" vol="78" pos="4668"/>
          <note pan="0" key="80" len="12" vol="78" pos="4680"/>
          <note pan="0" key="83" len="12" vol="78" pos="4692"/>
          <note pan="0" key="73" len="12" vol="78" pos="4704"/>
          <note pan="0" key="83" len="12" vol="78" pos="4716"/>
          <note pan="0" key="80" len="12" vol="78" pos="4728"/>
          <note pan="0" key="76" len="12" vol="78" pos="4740"/>
          <note pan="0" key="73" len="12" vol="78" pos="4752"/>
          <note pan="0" key="68" len="12" vol="78" pos="4764"/>
          <note pan="0" key="64" len="12" vol="78" pos="4776"/>
          <note pan="0" key="61" len="12" vol="78" pos="4788"/>
          <note pan="0" key="52" len="12" vol="78" pos="4800"/>
          <note pan="0" key="61" len="12" vol="78" pos="4812"/>
          <note pan="0" key="64" len="12" vol="78" pos="4824"/>
          <note pan="0" key="68" len="12" vol="78" pos="4836"/>
          <note pan="0" key="73" len="12" vol="78" pos="4848"/>
          <note pan="0" key="76" len="12" vol="78" pos="4860"/>
          <note pan="0" key="80" len="12" vol="78" pos="4872"/>
          <note pan="0" key="83" len="12" vol="78" pos="4884"/>
          <note pan="0" key="73" len="12" vol="78" pos="4896"/>
          <note pan="0" key="83" len="12" vol="78" pos="4908"/>
          <note pan="0" key="80" len="12" vol="78" pos="4920"/>
          <note pan="0" key="76" len="12" vol="78" pos="4932"/>
          <note pan="0" key="73" len="12" vol="78" pos="4944"/>
          <note pan="0" key="68" len="12" vol="78" pos="4956"/>
          <note pan="0" key="64" len="12" vol="78" pos="4968"/>
          <note pan="0" key="61" len="12" vol="78" pos="4980"/>
          <note pan="0" key="54" len="12" vol="78" pos="4992"/>
          <note pan="0" key="59" len="12" vol="78" pos="5004"/>
          <note pan="0" key="63" len="12" vol="78" pos="5016"/>
          <note pan="0" key="66" len="12" vol="78" pos="5028"/>
          <note pan="0" key="69" len="12" vol="78" pos="5040"/>
          <note pan="0" key="73" len="12" vol="78" pos="5052"/>
          <note pan="0" key="76" len="12" vol="78" pos="5064"/>
          <note pan="0" key="80" len="12" vol="78" pos="5076"/>
          <note pan="0" key="83" len="12" vol="78" pos="5088"/>
          <note pan="0" key="80" len="12" vol="78" pos="5100"/>
          <note pan="0" key="75" len="12" vol="78" pos="5112"/>
          <note pan="0" key="71" len="12" vol="78" pos="5124"/>
          <note pan="0" key="66" len="12" vol="78" pos="5136"/>
          <note pan="0" key="61" len="12" vol="78" pos="5148"/>
          <note pan="0" key="59" len="12" vol="78" pos="5160"/>
          <note pan="0" key="54" len="12" vol="78" pos="5172"/>
          <note pan="0" key="54" len="12" vol="78" pos="5184"/>
          <note pan="0" key="59" len="12" vol="78" pos="5196"/>
          <note pan="0" key="63" len="12" vol="78" pos="5208"/>
          <note pan="0" key="66" len="12" vol="78" pos="5220"/>
          <note pan="0" key="69" len="12" vol="78" pos="5232"/>
          <note pan="0" key="73" len="12" vol="78" pos="5244"/>
          <note pan="0" key="76" len="12" vol="78" pos="5256"/>
          <note pan="0" key="80" len="12" vol="78" pos="5268"/>
          <note pan="0" key="83" len="12" vol="78" pos="5280"/>
          <note pan="0" key="80" len="12" vol="78" pos="5292"/>
          <note pan="0" key="75" len="12" vol="78" pos="5304"/>
          <note pan="0" key="71" len="12" vol="78" pos="5316"/>
          <note pan="0" key="66" len="12" vol="78" pos="5328"/>
          <note pan="0" key="61" len="12" vol="78" pos="5340"/>
          <note pan="0" key="59" len="12" vol="78" pos="5352"/>
          <note pan="0" key="54" len="12" vol="78" pos="5364"/>
          <note pan="0" key="54" len="12" vol="78" pos="5376"/>
          <note pan="0" key="57" len="12" vol="78" pos="5388"/>
          <note pan="0" key="63" len="12" vol="78" pos="5400"/>
          <note pan="0" key="66" len="12" vol="78" pos="5412"/>
          <note pan="0" key="69" len="12" vol="78" pos="5424"/>
          <note pan="0" key="73" len="12" vol="78" pos="5436"/>
          <note pan="0" key="76" len="12" vol="78" pos="5448"/>
          <note pan="0" key="81" len="12" vol="78" pos="5460"/>
          <note pan="0" key="75" len="12" vol="78" pos="5472"/>
          <note pan="0" key="81" len="12" vol="78" pos="5484"/>
          <note pan="0" key="76" len="12" vol="78" pos="5496"/>
          <note pan="0" key="73" len="12" vol="78" pos="5508"/>
          <note pan="0" key="69" len="12" vol="78" pos="5520"/>
          <note pan="0" key="66" len="12" vol="78" pos="5532"/>
          <note pan="0" key="63" len="12" vol="78" pos="5544"/>
          <note pan="0" key="57" len="12" vol="78" pos="5556"/>
          <note pan="0" key="54" len="12" vol="78" pos="5568"/>
          <note pan="0" key="57" len="12" vol="78" pos="5580"/>
          <note pan="0" key="63" len="12" vol="78" pos="5592"/>
          <note pan="0" key="66" len="12" vol="78" pos="5604"/>
          <note pan="0" key="69" len="12" vol="78" pos="5616"/>
          <note pan="0" key="73" len="12" vol="78" pos="5628"/>
          <note pan="0" key="76" len="12" vol="78" pos="5640"/>
          <note pan="0" key="81" len="12" vol="78" pos="5652"/>
          <note pan="0" key="75" len="12" vol="78" pos="5664"/>
          <note pan="0" key="81" len="12" vol="78" pos="5676"/>
          <note pan="0" key="76" len="12" vol="78" pos="5688"/>
          <note pan="0" key="73" len="12" vol="78" pos="5700"/>
          <note pan="0" key="69" len="12" vol="78" pos="5712"/>
          <note pan="0" key="66" len="12" vol="78" pos="5724"/>
          <note pan="0" key="63" len="12" vol="78" pos="5736"/>
          <note pan="0" key="57" len="12" vol="78" pos="5748"/>
          <note pan="0" key="57" len="12" vol="78" pos="5760"/>
          <note pan="0" key="61" len="12" vol="78" pos="5772"/>
          <note pan="0" key="64" len="12" vol="78" pos="5784"/>
          <note pan="0" key="68" len="12" vol="78" pos="5796"/>
          <note pan="0" key="71" len="12" vol="78" pos="5808"/>
          <note pan="0" key="75" len="12" vol="78" pos="5820"/>
          <note pan="0" key="78" len="12" vol="78" pos="5832"/>
          <note pan="0" key="81" len="12" vol="78" pos="5844"/>
          <note pan="0" key="73" len="12" vol="78" pos="5856"/>
          <note pan="0" key="81" len="12" vol="78" pos="5868"/>
          <note pan="0" key="78" len="12" vol="78" pos="5880"/>
          <note pan="0" key="75" len="12" vol="78" pos="5892"/>
          <note pan="0" key="71" len="12" vol="78" pos="5904"/>
          <note pan="0" key="68" len="12" vol="78" pos="5916"/>
          <note pan="0" key="64" len="12" vol="78" pos="5928"/>
          <note pan="0" key="61" len="12" vol="78" pos="5940"/>
          <note pan="0" key="57" len="12" vol="78" pos="5952"/>
          <note pan="0" key="61" len="12" vol="78" pos="5964"/>
          <note pan="0" key="64" len="12" vol="78" pos="5976"/>
          <note pan="0" key="68" len="12" vol="78" pos="5988"/>
          <note pan="0" key="71" len="12" vol="78" pos="6000"/>
          <note pan="0" key="75" len="12" vol="78" pos="6012"/>
          <note pan="0" key="78" len="12" vol="78" pos="6024"/>
          <note pan="0" key="81" len="12" vol="78" pos="6036"/>
          <note pan="0" key="72" len="12" vol="78" pos="6048"/>
          <note pan="0" key="81" len="12" vol="78" pos="6060"/>
          <note pan="0" key="78" len="12" vol="78" pos="6072"/>
          <note pan="0" key="75" len="12" vol="78" pos="6084"/>
          <note pan="0" key="71" len="12" vol="78" pos="6096"/>
          <note pan="0" key="68" len="12" vol="78" pos="6108"/>
          <note pan="0" key="64" len="12" vol="78" pos="6120"/>
          <note pan="0" key="61" len="12" vol="78" pos="6132"/>
        </pattern>
        <pattern steps="16" muted="0" pos="39552" name="" type="1">
          <note pan="0" key="61" len="24" vol="78" pos="0"/>
          <note pan="0" key="68" len="24" vol="78" pos="24"/>
          <note pan="0" key="73" len="24" vol="78" pos="48"/>
          <note pan="0" key="68" len="24" vol="78" pos="72"/>
          <note pan="0" key="76" len="24" vol="78" pos="96"/>
          <note pan="0" key="68" len="24" vol="78" pos="120"/>
          <note pan="0" key="73" len="24" vol="78" pos="144"/>
          <note pan="0" key="68" len="24" vol="78" pos="168"/>
          <note pan="0" key="63" len="24" vol="78" pos="192"/>
          <note pan="0" key="68" len="24" vol="78" pos="216"/>
          <note pan="0" key="71" len="24" vol="78" pos="240"/>
          <note pan="0" key="68" len="24" vol="78" pos="264"/>
          <note pan="0" key="63" len="24" vol="78" pos="288"/>
          <note pan="0" key="68" len="24" vol="78" pos="312"/>
          <note pan="0" key="71" len="24" vol="78" pos="336"/>
          <note pan="0" key="68" len="24" vol="78" pos="360"/>
          <note pan="0" key="64" len="24" vol="78" pos="384"/>
          <note pan="0" key="68" len="24" vol="78" pos="408"/>
          <note pan="0" key="73" len="24" vol="78" pos="432"/>
          <note pan="0" key="68" len="24" vol="78" pos="456"/>
          <note pan="0" key="64" len="24" vol="78" pos="480"/>
          <note pan="0" key="68" len="24" vol="78" pos="504"/>
          <note pan="0" key="73" len="24" vol="78" pos="528"/>
          <note pan="0" key="68" len="24" vol="78" pos="552"/>
          <note pan="0" key="66" len="24" vol="78" pos="576"/>
          <note pan="0" key="71" len="24" vol="78" pos="600"/>
          <note pan="0" key="76" len="24" vol="78" pos="624"/>
          <note pan="0" key="71" len="24" vol="78" pos="648"/>
          <note pan="0" key="66" len="24" vol="78" pos="672"/>
          <note pan="0" key="71" len="24" vol="78" pos="696"/>
          <note pan="0" key="75" len="24" vol="78" pos="720"/>
          <note pan="0" key="71" len="24" vol="78" pos="744"/>
          <note pan="0" key="64" len="24" vol="78" pos="768"/>
          <note pan="0" key="68" len="24" vol="78" pos="792"/>
          <note pan="0" key="73" len="24" vol="78" pos="816"/>
          <note pan="0" key="68" len="24" vol="78" pos="840"/>
          <note pan="0" key="64" len="24" vol="78" pos="864"/>
          <note pan="0" key="68" len="24" vol="78" pos="888"/>
          <note pan="0" key="73" len="24" vol="78" pos="912"/>
          <note pan="0" key="68" len="24" vol="78" pos="936"/>
          <note pan="0" key="63" len="24" vol="78" pos="960"/>
          <note pan="0" key="66" len="24" vol="78" pos="984"/>
          <note pan="0" key="71" len="24" vol="78" pos="1008"/>
          <note pan="0" key="66" len="24" vol="78" pos="1032"/>
          <note pan="0" key="63" len="24" vol="78" pos="1056"/>
          <note pan="0" key="66" len="24" vol="78" pos="1080"/>
          <note pan="0" key="71" len="24" vol="78" pos="1104"/>
          <note pan="0" key="66" len="24" vol="78" pos="1128"/>
          <note pan="0" key="64" len="24" vol="78" pos="1152"/>
          <note pan="0" key="68" len="24" vol="78" pos="1176"/>
          <note pan="0" key="73" len="24" vol="78" pos="1200"/>
          <note pan="0" key="68" len="24" vol="78" pos="1224"/>
          <note pan="0" key="64" len="24" vol="78" pos="1248"/>
          <note pan="0" key="68" len="24" vol="78" pos="1272"/>
          <note pan="0" key="73" len="24" vol="78" pos="1296"/>
          <note pan="0" key="68" len="24" vol="78" pos="1320"/>
          <note pan="0" key="66" len="24" vol="78" pos="1344"/>
          <note pan="0" key="68" len="24" vol="78" pos="1368"/>
          <note pan="0" key="66" len="24" vol="78" pos="1392"/>
          <note pan="0" key="64" len="24" vol="78" pos="1416"/>
          <note pan="0" key="63" len="24" vol="78" pos="1440"/>
          <note pan="0" key="60" len="24" vol="78" pos="1464"/>
          <note pan="0" key="66" len="24" vol="78" pos="1488"/>
          <note pan="0" key="63" len="24" vol="78" pos="1512"/>
          <note pan="0" key="61" len="24" vol="78" pos="1536"/>
          <note pan="0" key="68" len="24" vol="78" pos="1560"/>
          <note pan="0" key="73" len="24" vol="78" pos="1584"/>
          <note pan="0" key="68" len="24" vol="78" pos="1608"/>
          <note pan="0" key="61" len="24" vol="78" pos="1632"/>
          <note pan="0" key="68" len="24" vol="78" pos="1656"/>
          <note pan="0" key="73" len="24" vol="78" pos="1680"/>
          <note pan="0" key="68" len="24" vol="78" pos="1704"/>
          <note pan="0" key="63" len="24" vol="78" pos="1728"/>
          <note pan="0" key="68" len="24" vol="78" pos="1752"/>
          <note pan="0" key="71" len="24" vol="78" pos="1776"/>
          <note pan="0" key="68" len="24" vol="78" pos="1800"/>
          <note pan="0" key="63" len="24" vol="78" pos="1824"/>
          <note pan="0" key="68" len="24" vol="78" pos="1848"/>
          <note pan="0" key="71" len="24" vol="78" pos="1872"/>
          <note pan="0" key="68" len="24" vol="78" pos="1896"/>
          <note pan="0" key="61" len="24" vol="78" pos="1920"/>
          <note pan="0" key="66" len="24" vol="78" pos="1944"/>
          <note pan="0" key="70" len="24" vol="78" pos="1968"/>
          <note pan="0" key="66" len="24" vol="78" pos="1992"/>
          <note pan="0" key="61" len="24" vol="78" pos="2016"/>
          <note pan="0" key="66" len="24" vol="78" pos="2040"/>
          <note pan="0" key="70" len="24" vol="78" pos="2064"/>
          <note pan="0" key="66" len="24" vol="78" pos="2088"/>
          <note pan="0" key="61" len="24" vol="78" pos="2112"/>
          <note pan="0" key="66" len="24" vol="78" pos="2136"/>
          <note pan="0" key="70" len="24" vol="78" pos="2160"/>
          <note pan="0" key="66" len="24" vol="78" pos="2184"/>
          <note pan="0" key="61" len="24" vol="78" pos="2208"/>
          <note pan="0" key="66" len="24" vol="78" pos="2232"/>
          <note pan="0" key="70" len="24" vol="78" pos="2256"/>
          <note pan="0" key="66" len="24" vol="78" pos="2280"/>
          <note pan="0" key="66" len="24" vol="78" pos="2304"/>
          <note pan="0" key="69" len="24" vol="78" pos="2328"/>
          <note pan="0" key="73" len="24" vol="78" pos="2352"/>
          <note pan="0" key="69" len="24" vol="78" pos="2376"/>
          <note pan="0" key="66" len="24" vol="78" pos="2400"/>
          <note pan="0" key="69" len="24" vol="78" pos="2424"/>
          <note pan="0" key="73" len="24" vol="78" pos="2448"/>
          <note pan="0" key="69" len="24" vol="78" pos="2472"/>
          <note pan="0" key="63" len="24" vol="78" pos="2496"/>
          <note pan="0" key="68" len="24" vol="78" pos="2520"/>
          <note pan="0" key="73" len="24" vol="78" pos="2544"/>
          <note pan="0" key="68" len="24" vol="78" pos="2568"/>
          <note pan="0" key="63" len="24" vol="78" pos="2592"/>
          <note pan="0" key="68" len="24" vol="78" pos="2616"/>
          <note pan="0" key="73" len="24" vol="78" pos="2640"/>
          <note pan="0" key="68" len="24" vol="78" pos="2664"/>
          <note pan="0" key="66" len="24" vol="78" pos="2688"/>
          <note pan="0" key="71" len="24" vol="78" pos="2712"/>
          <note pan="0" key="75" len="24" vol="78" pos="2736"/>
          <note pan="0" key="71" len="24" vol="78" pos="2760"/>
          <note pan="0" key="66" len="24" vol="78" pos="2784"/>
          <note pan="0" key="71" len="24" vol="78" pos="2808"/>
          <note pan="0" key="75" len="24" vol="78" pos="2832"/>
          <note pan="0" key="71" len="24" vol="78" pos="2856"/>
          <note pan="0" key="66" len="96" vol="78" pos="2880"/>
          <note pan="0" key="59" len="96" vol="78" pos="2976"/>
          <note pan="0" key="68" len="12" vol="78" pos="3072"/>
          <note pan="0" key="64" len="12" vol="78" pos="3084"/>
          <note pan="0" key="61" len="12" vol="78" pos="3096"/>
          <note pan="0" key="56" len="12" vol="78" pos="3108"/>
          <note pan="0" key="52" len="12" vol="78" pos="3120"/>
          <note pan="0" key="49" len="12" vol="78" pos="3132"/>
          <note pan="0" key="61" len="12" vol="78" pos="3168"/>
          <note pan="0" key="56" len="12" vol="78" pos="3180"/>
          <note pan="0" key="52" len="12" vol="78" pos="3192"/>
          <note pan="0" key="49" len="12" vol="78" pos="3204"/>
          <note pan="0" key="76" len="12" vol="78" pos="3216"/>
          <note pan="0" key="71" len="12" vol="78" pos="3228"/>
          <note pan="0" key="68" len="12" vol="78" pos="3240"/>
          <note pan="0" key="64" len="12" vol="78" pos="3252"/>
          <note pan="0" key="76" len="12" vol="78" pos="3264"/>
          <note pan="0" key="71" len="12" vol="78" pos="3276"/>
          <note pan="0" key="80" len="12" vol="78" pos="3288"/>
          <note pan="0" key="76" len="12" vol="78" pos="3300"/>
          <note pan="0" key="71" len="12" vol="78" pos="3312"/>
          <note pan="0" key="68" len="12" vol="78" pos="3324"/>
          <note pan="0" key="64" len="12" vol="78" pos="3336"/>
          <note pan="0" key="61" len="12" vol="78" pos="3348"/>
          <note pan="0" key="73" len="12" vol="78" pos="3360"/>
          <note pan="0" key="68" len="12" vol="78" pos="3372"/>
          <note pan="0" key="64" len="12" vol="78" pos="3384"/>
          <note pan="0" key="61" len="12" vol="78" pos="3396"/>
          <note pan="0" key="68" len="12" vol="78" pos="3408"/>
          <note pan="0" key="64" len="12" vol="78" pos="3420"/>
          <note pan="0" key="56" len="12" vol="78" pos="3432"/>
          <note pan="0" key="49" len="12" vol="78" pos="3444"/>
          <note pan="0" key="69" len="12" vol="78" pos="3456"/>
          <note pan="0" key="66" len="12" vol="78" pos="3468"/>
          <note pan="0" key="57" len="12" vol="78" pos="3480"/>
          <note pan="0" key="54" len="12" vol="78" pos="3492"/>
          <note pan="0" key="49" len="12" vol="78" pos="3504"/>
          <note pan="0" key="47" len="12" vol="78" pos="3516"/>
          <note pan="0" key="74" len="12" vol="78" pos="3528"/>
          <note pan="0" key="69" len="12" vol="78" pos="3540"/>
          <note pan="0" key="66" len="12" vol="78" pos="3552"/>
          <note pan="0" key="61" len="12" vol="78" pos="3564"/>
          <note pan="0" key="57" len="12" vol="78" pos="3576"/>
          <note pan="0" key="54" len="12" vol="78" pos="3588"/>
          <note pan="0" key="78" len="12" vol="78" pos="3600"/>
          <note pan="0" key="74" len="12" vol="78" pos="3612"/>
          <note pan="0" key="69" len="12" vol="78" pos="3624"/>
          <note pan="0" key="66" len="12" vol="78" pos="3636"/>
          <note pan="0" key="81" len="12" vol="78" pos="3672"/>
          <note pan="0" key="78" len="12" vol="78" pos="3684"/>
          <note pan="0" key="73" len="12" vol="78" pos="3696"/>
          <note pan="0" key="69" len="12" vol="78" pos="3708"/>
          <note pan="0" key="66" len="12" vol="78" pos="3720"/>
          <note pan="0" key="61" len="12" vol="78" pos="3732"/>
          <note pan="0" key="74" len="12" vol="78" pos="3744"/>
          <note pan="0" key="71" len="12" vol="78" pos="3756"/>
          <note pan="0" key="66" len="12" vol="78" pos="3768"/>
          <note pan="0" key="61" len="12" vol="78" pos="3780"/>
          <note pan="0" key="69" len="12" vol="78" pos="3792"/>
          <note pan="0" key="66" len="12" vol="78" pos="3804"/>
          <note pan="0" key="61" len="12" vol="78" pos="3816"/>
          <note pan="0" key="57" len="12" vol="78" pos="3828"/>
          <note pan="0" key="68" len="12" vol="78" pos="3840"/>
          <note pan="0" key="64" len="12" vol="78" pos="3852"/>
          <note pan="0" key="61" len="12" vol="78" pos="3864"/>
          <note pan="0" key="56" len="12" vol="78" pos="3876"/>
          <note pan="0" key="73" len="12" vol="78" pos="3912"/>
          <note pan="0" key="69" len="12" vol="78" pos="3924"/>
          <note pan="0" key="68" len="12" vol="78" pos="3936"/>
          <note pan="0" key="64" len="12" vol="78" pos="3948"/>
          <note pan="0" key="56" len="12" vol="78" pos="3960"/>
          <note pan="0" key="52" len="12" vol="78" pos="3972"/>
          <note pan="0" key="76" len="12" vol="78" pos="3984"/>
          <note pan="0" key="71" len="12" vol="78" pos="3996"/>
          <note pan="0" key="68" len="12" vol="78" pos="4008"/>
          <note pan="0" key="64" len="12" vol="78" pos="4020"/>
          <note pan="0" key="81" len="12" vol="78" pos="4056"/>
          <note pan="0" key="78" len="12" vol="78" pos="4068"/>
          <note pan="0" key="78" len="12" vol="78" pos="4080"/>
          <note pan="0" key="69" len="12" vol="78" pos="4092"/>
          <note pan="0" key="66" len="12" vol="78" pos="4104"/>
          <note pan="0" key="64" len="12" vol="78" pos="4116"/>
          <note pan="0" key="73" len="12" vol="78" pos="4128"/>
          <note pan="0" key="69" len="12" vol="78" pos="4140"/>
          <note pan="0" key="66" len="12" vol="78" pos="4152"/>
          <note pan="0" key="61" len="12" vol="78" pos="4164"/>
          <note pan="0" key="68" len="12" vol="78" pos="4176"/>
          <note pan="0" key="64" len="12" vol="78" pos="4188"/>
          <note pan="0" key="61" len="12" vol="78" pos="4200"/>
          <note pan="0" key="56" len="12" vol="78" pos="4212"/>
          <note pan="0" key="69" len="12" vol="78" pos="4224"/>
          <note pan="0" key="66" len="12" vol="78" pos="4236"/>
          <note pan="0" key="57" len="12" vol="78" pos="4248"/>
          <note pan="0" key="54" len="12" vol="78" pos="4260"/>
          <note pan="0" key="52" len="12" vol="78" pos="4272"/>
          <note pan="0" key="49" len="12" vol="78" pos="4284"/>
          <note pan="0" key="74" len="12" vol="78" pos="4296"/>
          <note pan="0" key="69" len="12" vol="78" pos="4308"/>
          <note pan="0" key="66" len="12" vol="78" pos="4320"/>
          <note pan="0" key="61" len="12" vol="78" pos="4332"/>
          <note pan="0" key="57" len="12" vol="78" pos="4344"/>
          <note pan="0" key="54" len="12" vol="78" pos="4356"/>
          <note pan="0" key="78" len="12" vol="78" pos="4368"/>
          <note pan="0" key="74" len="12" vol="78" pos="4380"/>
          <note pan="0" key="69" len="12" vol="78" pos="4392"/>
          <note pan="0" key="66" len="12" vol="78" pos="4404"/>
          <note pan="0" key="81" len="12" vol="78" pos="4440"/>
          <note pan="0" key="78" len="12" vol="78" pos="4452"/>
          <note pan="0" key="73" len="12" vol="78" pos="4464"/>
          <note pan="0" key="69" len="12" vol="78" pos="4476"/>
          <note pan="0" key="66" len="12" vol="78" pos="4488"/>
          <note pan="0" key="61" len="12" vol="78" pos="4500"/>
          <note pan="0" key="74" len="12" vol="78" pos="4512"/>
          <note pan="0" key="71" len="12" vol="78" pos="4524"/>
          <note pan="0" key="66" len="12" vol="78" pos="4536"/>
          <note pan="0" key="61" len="12" vol="78" pos="4548"/>
          <note pan="0" key="69" len="12" vol="78" pos="4560"/>
          <note pan="0" key="66" len="12" vol="78" pos="4572"/>
          <note pan="0" key="61" len="12" vol="78" pos="4584"/>
          <note pan="0" key="57" len="12" vol="78" pos="4596"/>
        </pattern>
        <pattern steps="16" muted="0" pos="47232" name="" type="1">
          <note pan="0" key="61" len="24" vol="78" pos="0"/>
          <note pan="0" key="68" len="24" vol="78" pos="24"/>
          <note pan="0" key="73" len="24" vol="78" pos="48"/>
          <note pan="0" key="68" len="24" vol="78" pos="72"/>
          <note pan="0" key="76" len="24" vol="78" pos="96"/>
          <note pan="0" key="68" len="24" vol="78" pos="120"/>
          <note pan="0" key="73" len="24" vol="78" pos="144"/>
          <note pan="0" key="68" len="24" vol="78" pos="168"/>
          <note pan="0" key="63" len="24" vol="78" pos="192"/>
          <note pan="0" key="68" len="24" vol="78" pos="216"/>
          <note pan="0" key="71" len="24" vol="78" pos="240"/>
          <note pan="0" key="68" len="24" vol="78" pos="264"/>
          <note pan="0" key="63" len="24" vol="78" pos="288"/>
          <note pan="0" key="68" len="24" vol="78" pos="312"/>
          <note pan="0" key="71" len="24" vol="78" pos="336"/>
          <note pan="0" key="68" len="24" vol="78" pos="360"/>
          <note pan="0" key="64" len="24" vol="78" pos="384"/>
          <note pan="0" key="68" len="24" vol="78" pos="408"/>
          <note pan="0" key="73" len="24" vol="78" pos="432"/>
          <note pan="0" key="68" len="24" vol="78" pos="456"/>
          <note pan="0" key="64" len="24" vol="78" pos="480"/>
          <note pan="0" key="68" len="24" vol="78" pos="504"/>
          <note pan="0" key="73" len="24" vol="78" pos="528"/>
          <note pan="0" key="68" len="24" vol="78" pos="552"/>
          <note pan="0" key="66" len="24" vol="78" pos="576"/>
          <note pan="0" key="71" len="24" vol="78" pos="600"/>
          <note pan="0" key="76" len="24" vol="78" pos="624"/>
          <note pan="0" key="71" len="24" vol="78" pos="648"/>
          <note pan="0" key="66" len="24" vol="78" pos="672"/>
          <note pan="0" key="71" len="24" vol="78" pos="696"/>
          <note pan="0" key="75" len="24" vol="78" pos="720"/>
          <note pan="0" key="71" len="24" vol="78" pos="744"/>
          <note pan="0" key="64" len="24" vol="78" pos="768"/>
          <note pan="0" key="68" len="24" vol="78" pos="792"/>
          <note pan="0" key="73" len="24" vol="78" pos="816"/>
          <note pan="0" key="68" len="24" vol="78" pos="840"/>
          <note pan="0" key="64" len="24" vol="78" pos="864"/>
          <note pan="0" key="68" len="24" vol="78" pos="888"/>
          <note pan="0" key="73" len="24" vol="78" pos="912"/>
          <note pan="0" key="68" len="24" vol="78" pos="936"/>
          <note pan="0" key="63" len="24" vol="78" pos="960"/>
          <note pan="0" key="66" len="24" vol="78" pos="984"/>
          <note pan="0" key="71" len="24" vol="78" pos="1008"/>
          <note pan="0" key="66" len="24" vol="78" pos="1032"/>
          <note pan="0" key="63" len="24" vol="78" pos="1056"/>
          <note pan="0" key="66" len="24" vol="78" pos="1080"/>
          <note pan="0" key="71" len="24" vol="78" pos="1104"/>
          <note pan="0" key="66" len="24" vol="78" pos="1128"/>
          <note pan="0" key="64" len="24" vol="78" pos="1152"/>
          <note pan="0" key="68" len="24" vol="78" pos="1176"/>
          <note pan="0" key="73" len="24" vol="78" pos="1200"/>
          <note pan="0" key="68" len="24" vol="78" pos="1224"/>
          <note pan="0" key="64" len="24" vol="78" pos="1248"/>
          <note pan="0" key="68" len="24" vol="78" pos="1272"/>
          <note pan="0" key="73" len="24" vol="78" pos="1296"/>
          <note pan="0" key="68" len="24" vol="78" pos="1320"/>
          <note pan="0" key="66" len="24" vol="78" pos="1344"/>
          <note pan="0" key="68" len="24" vol="78" pos="1368"/>
          <note pan="0" key="66" len="24" vol="78" pos="1392"/>
          <note pan="0" key="64" len="24" vol="78" pos="1416"/>
          <note pan="0" key="63" len="24" vol="78" pos="1440"/>
          <note pan="0" key="60" len="24" vol="78" pos="1464"/>
          <note pan="0" key="66" len="24" vol="78" pos="1488"/>
          <note pan="0" key="63" len="24" vol="78" pos="1512"/>
          <note pan="0" key="61" len="24" vol="78" pos="1536"/>
          <note pan="0" key="68" len="24" vol="78" pos="1560"/>
          <note pan="0" key="73" len="24" vol="78" pos="1584"/>
          <note pan="0" key="68" len="24" vol="78" pos="1608"/>
          <note pan="0" key="61" len="24" vol="78" pos="1632"/>
          <note pan="0" key="68" len="24" vol="78" pos="1656"/>
          <note pan="0" key="73" len="24" vol="78" pos="1680"/>
          <note pan="0" key="68" len="24" vol="78" pos="1704"/>
          <note pan="0" key="63" len="24" vol="78" pos="1728"/>
          <note pan="0" key="68" len="24" vol="78" pos="1752"/>
          <note pan="0" key="71" len="24" vol="78" pos="1776"/>
          <note pan="0" key="68" len="24" vol="78" pos="1800"/>
          <note pan="0" key="63" len="24" vol="78" pos="1824"/>
          <note pan="0" key="68" len="24" vol="78" pos="1848"/>
          <note pan="0" key="71" len="24" vol="78" pos="1872"/>
          <note pan="0" key="68" len="24" vol="78" pos="1896"/>
          <note pan="0" key="61" len="24" vol="78" pos="1920"/>
          <note pan="0" key="66" len="24" vol="78" pos="1944"/>
          <note pan="0" key="70" len="24" vol="78" pos="1968"/>
          <note pan="0" key="66" len="24" vol="78" pos="1992"/>
          <note pan="0" key="61" len="24" vol="78" pos="2016"/>
          <note pan="0" key="66" len="24" vol="78" pos="2040"/>
          <note pan="0" key="70" len="24" vol="78" pos="2064"/>
          <note pan="0" key="66" len="24" vol="78" pos="2088"/>
          <note pan="0" key="61" len="24" vol="78" pos="2112"/>
          <note pan="0" key="66" len="24" vol="78" pos="2136"/>
          <note pan="0" key="70" len="24" vol="78" pos="2160"/>
          <note pan="0" key="66" len="24" vol="78" pos="2184"/>
          <note pan="0" key="61" len="24" vol="78" pos="2208"/>
          <note pan="0" key="66" len="24" vol="78" pos="2232"/>
          <note pan="0" key="70" len="24" vol="78" pos="2256"/>
          <note pan="0" key="66" len="24" vol="78" pos="2280"/>
          <note pan="0" key="66" len="24" vol="78" pos="2304"/>
          <note pan="0" key="69" len="24" vol="78" pos="2328"/>
          <note pan="0" key="73" len="24" vol="78" pos="2352"/>
          <note pan="0" key="69" len="24" vol="78" pos="2376"/>
          <note pan="0" key="66" len="24" vol="78" pos="2400"/>
          <note pan="0" key="69" len="24" vol="78" pos="2424"/>
          <note pan="0" key="73" len="24" vol="78" pos="2448"/>
          <note pan="0" key="69" len="24" vol="78" pos="2472"/>
          <note pan="0" key="63" len="24" vol="78" pos="2496"/>
          <note pan="0" key="68" len="24" vol="78" pos="2520"/>
          <note pan="0" key="73" len="24" vol="78" pos="2544"/>
          <note pan="0" key="68" len="24" vol="78" pos="2568"/>
          <note pan="0" key="63" len="24" vol="78" pos="2592"/>
          <note pan="0" key="68" len="24" vol="78" pos="2616"/>
          <note pan="0" key="73" len="24" vol="78" pos="2640"/>
          <note pan="0" key="68" len="24" vol="78" pos="2664"/>
          <note pan="0" key="66" len="24" vol="78" pos="2688"/>
          <note pan="0" key="71" len="24" vol="78" pos="2712"/>
          <note pan="0" key="75" len="24" vol="78" pos="2736"/>
          <note pan="0" key="71" len="24" vol="78" pos="2760"/>
          <note pan="0" key="66" len="24" vol="78" pos="2784"/>
          <note pan="0" key="71" len="24" vol="78" pos="2808"/>
          <note pan="0" key="75" len="24" vol="78" pos="2832"/>
          <note pan="0" key="71" len="24" vol="78" pos="2856"/>
          <note pan="0" key="63" len="24" vol="78" pos="2880"/>
          <note pan="0" key="51" len="24" vol="78" pos="2880"/>
          <note pan="0" key="63" len="24" vol="78" pos="2904"/>
          <note pan="0" key="51" len="24" vol="78" pos="2904"/>
          <note pan="0" key="71" len="24" vol="78" pos="2976"/>
          <note pan="0" key="59" len="24" vol="78" pos="2976"/>
          <note pan="0" key="71" len="24" vol="78" pos="3000"/>
          <note pan="0" key="59" len="24" vol="78" pos="3000"/>
          <note pan="0" key="56" len="12" vol="78" pos="3072"/>
          <note pan="0" key="61" len="12" vol="78" pos="3084"/>
          <note pan="0" key="64" len="12" vol="78" pos="3096"/>
          <note pan="0" key="68" len="12" vol="78" pos="3108"/>
          <note pan="0" key="73" len="12" vol="78" pos="3120"/>
          <note pan="0" key="76" len="12" vol="78" pos="3132"/>
          <note pan="0" key="80" len="12" vol="78" pos="3144"/>
          <note pan="0" key="83" len="12" vol="78" pos="3156"/>
          <note pan="0" key="73" len="12" vol="78" pos="3168"/>
          <note pan="0" key="83" len="12" vol="78" pos="3180"/>
          <note pan="0" key="80" len="12" vol="78" pos="3192"/>
          <note pan="0" key="76" len="12" vol="78" pos="3204"/>
          <note pan="0" key="73" len="12" vol="78" pos="3216"/>
          <note pan="0" key="68" len="12" vol="78" pos="3228"/>
          <note pan="0" key="64" len="12" vol="78" pos="3240"/>
          <note pan="0" key="61" len="12" vol="78" pos="3252"/>
          <note pan="0" key="56" len="12" vol="78" pos="3264"/>
          <note pan="0" key="61" len="12" vol="78" pos="3276"/>
          <note pan="0" key="64" len="12" vol="78" pos="3288"/>
          <note pan="0" key="68" len="12" vol="78" pos="3300"/>
          <note pan="0" key="73" len="12" vol="78" pos="3312"/>
          <note pan="0" key="76" len="12" vol="78" pos="3324"/>
          <note pan="0" key="80" len="12" vol="78" pos="3336"/>
          <note pan="0" key="83" len="12" vol="78" pos="3348"/>
          <note pan="0" key="73" len="12" vol="78" pos="3360"/>
          <note pan="0" key="83" len="12" vol="78" pos="3372"/>
          <note pan="0" key="80" len="12" vol="78" pos="3384"/>
          <note pan="0" key="76" len="12" vol="78" pos="3396"/>
          <note pan="0" key="73" len="12" vol="78" pos="3408"/>
          <note pan="0" key="68" len="12" vol="78" pos="3420"/>
          <note pan="0" key="64" len="12" vol="78" pos="3432"/>
          <note pan="0" key="61" len="12" vol="78" pos="3444"/>
          <note pan="0" key="54" len="12" vol="78" pos="3456"/>
          <note pan="0" key="59" len="12" vol="78" pos="3468"/>
          <note pan="0" key="63" len="12" vol="78" pos="3480"/>
          <note pan="0" key="66" len="12" vol="78" pos="3492"/>
          <note pan="0" key="69" len="12" vol="78" pos="3504"/>
          <note pan="0" key="73" len="12" vol="78" pos="3516"/>
          <note pan="0" key="76" len="12" vol="78" pos="3528"/>
          <note pan="0" key="80" len="12" vol="78" pos="3540"/>
          <note pan="0" key="83" len="12" vol="78" pos="3552"/>
          <note pan="0" key="80" len="12" vol="78" pos="3564"/>
          <note pan="0" key="75" len="12" vol="78" pos="3576"/>
          <note pan="0" key="71" len="12" vol="78" pos="3588"/>
          <note pan="0" key="66" len="12" vol="78" pos="3600"/>
          <note pan="0" key="61" len="12" vol="78" pos="3612"/>
          <note pan="0" key="59" len="12" vol="78" pos="3624"/>
          <note pan="0" key="54" len="12" vol="78" pos="3636"/>
          <note pan="0" key="54" len="12" vol="78" pos="3648"/>
          <note pan="0" key="59" len="12" vol="78" pos="3660"/>
          <note pan="0" key="63" len="12" vol="78" pos="3672"/>
          <note pan="0" key="66" len="12" vol="78" pos="3684"/>
          <note pan="0" key="69" len="12" vol="78" pos="3696"/>
          <note pan="0" key="73" len="12" vol="78" pos="3708"/>
          <note pan="0" key="76" len="12" vol="78" pos="3720"/>
          <note pan="0" key="80" len="12" vol="78" pos="3732"/>
          <note pan="0" key="83" len="12" vol="78" pos="3744"/>
          <note pan="0" key="80" len="12" vol="78" pos="3756"/>
          <note pan="0" key="75" len="12" vol="78" pos="3768"/>
          <note pan="0" key="71" len="12" vol="78" pos="3780"/>
          <note pan="0" key="66" len="12" vol="78" pos="3792"/>
          <note pan="0" key="61" len="12" vol="78" pos="3804"/>
          <note pan="0" key="59" len="12" vol="78" pos="3816"/>
          <note pan="0" key="54" len="12" vol="78" pos="3828"/>
          <note pan="0" key="54" len="12" vol="78" pos="3840"/>
          <note pan="0" key="57" len="12" vol="78" pos="3852"/>
          <note pan="0" key="61" len="12" vol="78" pos="3864"/>
          <note pan="0" key="64" len="12" vol="78" pos="3876"/>
          <note pan="0" key="66" len="12" vol="78" pos="3888"/>
          <note pan="0" key="73" len="12" vol="78" pos="3900"/>
          <note pan="0" key="76" len="12" vol="78" pos="3912"/>
          <note pan="0" key="78" len="12" vol="78" pos="3924"/>
          <note pan="0" key="82" len="12" vol="78" pos="3936"/>
          <note pan="0" key="78" len="12" vol="78" pos="3948"/>
          <note pan="0" key="76" len="12" vol="78" pos="3960"/>
          <note pan="0" key="73" len="12" vol="78" pos="3972"/>
          <note pan="0" key="66" len="12" vol="78" pos="3984"/>
          <note pan="0" key="64" len="12" vol="78" pos="3996"/>
          <note pan="0" key="61" len="12" vol="78" pos="4008"/>
          <note pan="0" key="57" len="12" vol="78" pos="4020"/>
          <note pan="0" key="54" len="12" vol="78" pos="4032"/>
          <note pan="0" key="57" len="12" vol="78" pos="4044"/>
          <note pan="0" key="61" len="12" vol="78" pos="4056"/>
          <note pan="0" key="64" len="12" vol="78" pos="4068"/>
          <note pan="0" key="66" len="12" vol="78" pos="4080"/>
          <note pan="0" key="73" len="12" vol="78" pos="4092"/>
          <note pan="0" key="76" len="12" vol="78" pos="4104"/>
          <note pan="0" key="78" len="12" vol="78" pos="4116"/>
          <note pan="0" key="82" len="12" vol="78" pos="4128"/>
          <note pan="0" key="78" len="12" vol="78" pos="4140"/>
          <note pan="0" key="76" len="12" vol="78" pos="4152"/>
          <note pan="0" key="73" len="12" vol="78" pos="4164"/>
          <note pan="0" key="66" len="12" vol="78" pos="4176"/>
          <note pan="0" key="64" len="12" vol="78" pos="4188"/>
          <note pan="0" key="61" len="12" vol="78" pos="4200"/>
          <note pan="0" key="57" len="12" vol="78" pos="4212"/>
          <note pan="0" key="51" len="12" vol="78" pos="4224"/>
          <note pan="0" key="54" len="12" vol="78" pos="4236"/>
          <note pan="0" key="57" len="12" vol="78" pos="4248"/>
          <note pan="0" key="63" len="12" vol="78" pos="4260"/>
          <note pan="0" key="66" len="12" vol="78" pos="4272"/>
          <note pan="0" key="69" len="12" vol="78" pos="4284"/>
          <note pan="0" key="73" len="12" vol="78" pos="4296"/>
          <note pan="0" key="76" len="12" vol="78" pos="4308"/>
          <note pan="0" key="81" len="12" vol="78" pos="4320"/>
          <note pan="0" key="78" len="12" vol="78" pos="4332"/>
          <note pan="0" key="73" len="12" vol="78" pos="4344"/>
          <note pan="0" key="69" len="12" vol="78" pos="4356"/>
          <note pan="0" key="66" len="12" vol="78" pos="4368"/>
          <note pan="0" key="63" len="12" vol="78" pos="4380"/>
          <note pan="0" key="57" len="12" vol="78" pos="4392"/>
          <note pan="0" key="54" len="12" vol="78" pos="4404"/>
          <note pan="0" key="51" len="12" vol="78" pos="4416"/>
          <note pan="0" key="54" len="12" vol="78" pos="4428"/>
          <note pan="0" key="57" len="12" vol="78" pos="4440"/>
          <note pan="0" key="63" len="12" vol="78" pos="4452"/>
          <note pan="0" key="66" len="12" vol="78" pos="4464"/>
          <note pan="0" key="69" len="12" vol="78" pos="4476"/>
          <note pan="0" key="73" len="12" vol="78" pos="4488"/>
          <note pan="0" key="76" len="12" vol="78" pos="4500"/>
          <note pan="0" key="81" len="12" vol="78" pos="4512"/>
          <note pan="0" key="78" len="12" vol="78" pos="4524"/>
          <note pan="0" key="73" len="12" vol="78" pos="4536"/>
          <note pan="0" key="69" len="12" vol="78" pos="4548"/>
          <note pan="0" key="66" len="12" vol="78" pos="4560"/>
          <note pan="0" key="63" len="12" vol="78" pos="4572"/>
          <note pan="0" key="57" len="12" vol="78" pos="4584"/>
          <note pan="0" key="54" len="12" vol="78" pos="4596"/>
          <note pan="0" key="52" len="12" vol="78" pos="4608"/>
          <note pan="0" key="61" len="12" vol="78" pos="4620"/>
          <note pan="0" key="64" len="12" vol="78" pos="4632"/>
          <note pan="0" key="68" len="12" vol="78" pos="4644"/>
          <note pan="0" key="73" len="12" vol="78" pos="4656"/>
          <note pan="0" key="76" len="12" vol="78" pos="4668"/>
          <note pan="0" key="80" len="12" vol="78" pos="4680"/>
          <note pan="0" key="83" len="12" vol="78" pos="4692"/>
          <note pan="0" key="73" len="12" vol="78" pos="4704"/>
          <note pan="0" key="83" len="12" vol="78" pos="4716"/>
          <note pan="0" key="80" len="12" vol="78" pos="4728"/>
          <note pan="0" key="76" len="12" vol="78" pos="4740"/>
          <note pan="0" key="73" len="12" vol="78" pos="4752"/>
          <note pan="0" key="68" len="12" vol="78" pos="4764"/>
          <note pan="0" key="64" len="12" vol="78" pos="4776"/>
          <note pan="0" key="61" len="12" vol="78" pos="4788"/>
          <note pan="0" key="52" len="12" vol="78" pos="4800"/>
          <note pan="0" key="61" len="12" vol="78" pos="4812"/>
          <note pan="0" key="64" len="12" vol="78" pos="4824"/>
          <note pan="0" key="68" len="12" vol="78" pos="4836"/>
          <note pan="0" key="73" len="12" vol="78" pos="4848"/>
          <note pan="0" key="76" len="12" vol="78" pos="4860"/>
          <note pan="0" key="80" len="12" vol="78" pos="4872"/>
          <note pan="0" key="83" len="12" vol="78" pos="4884"/>
          <note pan="0" key="73" len="12" vol="78" pos="4896"/>
          <note pan="0" key="83" len="12" vol="78" pos="4908"/>
          <note pan="0" key="80" len="12" vol="78" pos="4920"/>
          <note pan="0" key="76" len="12" vol="78" pos="4932"/>
          <note pan="0" key="73" len="12" vol="78" pos="4944"/>
          <note pan="0" key="68" len="12" vol="78" pos="4956"/>
          <note pan="0" key="64" len="12" vol="78" pos="4968"/>
          <note pan="0" key="61" len="12" vol="78" pos="4980"/>
          <note pan="0" key="54" len="12" vol="78" pos="4992"/>
          <note pan="0" key="59" len="12" vol="78" pos="5004"/>
          <note pan="0" key="63" len="12" vol="78" pos="5016"/>
          <note pan="0" key="66" len="12" vol="78" pos="5028"/>
          <note pan="0" key="69" len="12" vol="78" pos="5040"/>
          <note pan="0" key="73" len="12" vol="78" pos="5052"/>
          <note pan="0" key="76" len="12" vol="78" pos="5064"/>
          <note pan="0" key="80" len="12" vol="78" pos="5076"/>
          <note pan="0" key="83" len="12" vol="78" pos="5088"/>
          <note pan="0" key="80" len="12" vol="78" pos="5100"/>
          <note pan="0" key="75" len="12" vol="78" pos="5112"/>
          <note pan="0" key="71" len="12" vol="78" pos="5124"/>
          <note pan="0" key="66" len="12" vol="78" pos="5136"/>
          <note pan="0" key="61" len="12" vol="78" pos="5148"/>
          <note pan="0" key="59" len="12" vol="78" pos="5160"/>
          <note pan="0" key="54" len="12" vol="78" pos="5172"/>
          <note pan="0" key="54" len="12" vol="78" pos="5184"/>
          <note pan="0" key="59" len="12" vol="78" pos="5196"/>
          <note pan="0" key="63" len="12" vol="78" pos="5208"/>
          <note pan="0" key="66" len="12" vol="78" pos="5220"/>
          <note pan="0" key="69" len="12" vol="78" pos="5232"/>
          <note pan="0" key="73" len="12" vol="78" pos="5244"/>
          <note pan="0" key="76" len="12" vol="78" pos="5256"/>
          <note pan="0" key="80" len="12" vol="78" pos="5268"/>
          <note pan="0" key="83" len="12" vol="78" pos="5280"/>
          <note pan="0" key="80" len="12" vol="78" pos="5292"/>
          <note pan="0" key="75" len="12" vol="78" pos="5304"/>
          <note pan="0" key="71" len="12" vol="78" pos="5316"/>
          <note pan="0" key="66" len="12" vol="78" pos="5328"/>
          <note pan="0" key="61" len="12" vol="78" pos="5340"/>
          <note pan="0" key="59" len="12" vol="78" pos="5352"/>
          <note pan="0" key="54" len="12" vol="78" pos="5364"/>
          <note pan="0" key="54" len="12" vol="78" pos="5376"/>
          <note pan="0" key="57" len="12" vol="78" pos="5388"/>
          <note pan="0" key="63" len="12" vol="78" pos="5400"/>
          <note pan="0" key="66" len="12" vol="78" pos="5412"/>
          <note pan="0" key="69" len="12" vol="78" pos="5424"/>
          <note pan="0" key="73" len="12" vol="78" pos="5436"/>
          <note pan="0" key="76" len="12" vol="78" pos="5448"/>
          <note pan="0" key="81" len="12" vol="78" pos="5460"/>
          <note pan="0" key="75" len="12" vol="78" pos="5472"/>
          <note pan="0" key="81" len="12" vol="78" pos="5484"/>
          <note pan="0" key="76" len="12" vol="78" pos="5496"/>
          <note pan="0" key="73" len="12" vol="78" pos="5508"/>
          <note pan="0" key="69" len="12" vol="78" pos="5520"/>
          <note pan="0" key="66" len="12" vol="78" pos="5532"/>
          <note pan="0" key="63" len="12" vol="78" pos="5544"/>
          <note pan="0" key="57" len="12" vol="78" pos="5556"/>
          <note pan="0" key="54" len="12" vol="78" pos="5568"/>
          <note pan="0" key="57" len="12" vol="78" pos="5580"/>
          <note pan="0" key="63" len="12" vol="78" pos="5592"/>
          <note pan="0" key="66" len="12" vol="78" pos="5604"/>
          <note pan="0" key="69" len="12" vol="78" pos="5616"/>
          <note pan="0" key="73" len="12" vol="78" pos="5628"/>
          <note pan="0" key="76" len="12" vol="78" pos="5640"/>
          <note pan="0" key="81" len="12" vol="78" pos="5652"/>
          <note pan="0" key="75" len="12" vol="78" pos="5664"/>
          <note pan="0" key="81" len="12" vol="78" pos="5676"/>
          <note pan="0" key="76" len="12" vol="78" pos="5688"/>
          <note pan="0" key="73" len="12" vol="78" pos="5700"/>
          <note pan="0" key="69" len="12" vol="78" pos="5712"/>
          <note pan="0" key="66" len="12" vol="78" pos="5724"/>
          <note pan="0" key="63" len="12" vol="78" pos="5736"/>
          <note pan="0" key="57" len="12" vol="78" pos="5748"/>
          <note pan="0" key="57" len="12" vol="78" pos="5760"/>
          <note pan="0" key="61" len="12" vol="78" pos="5772"/>
          <note pan="0" key="64" len="12" vol="78" pos="5784"/>
          <note pan="0" key="68" len="12" vol="78" pos="5796"/>
          <note pan="0" key="71" len="12" vol="78" pos="5808"/>
          <note pan="0" key="75" len="12" vol="78" pos="5820"/>
          <note pan="0" key="78" len="12" vol="78" pos="5832"/>
          <note pan="0" key="81" len="12" vol="78" pos="5844"/>
          <note pan="0" key="73" len="12" vol="78" pos="5856"/>
          <note pan="0" key="81" len="12" vol="78" pos="5868"/>
          <note pan="0" key="78" len="12" vol="78" pos="5880"/>
          <note pan="0" key="75" len="12" vol="78" pos="5892"/>
          <note pan="0" key="71" len="12" vol="78" pos="5904"/>
          <note pan="0" key="68" len="12" vol="78" pos="5916"/>
          <note pan="0" key="64" len="12" vol="78" pos="5928"/>
          <note pan="0" key="61" len="12" vol="78" pos="5940"/>
          <note pan="0" key="57" len="12" vol="78" pos="5952"/>
          <note pan="0" key="61" len="12" vol="78" pos="5964"/>
          <note pan="0" key="64" len="12" vol="78" pos="5976"/>
          <note pan="0" key="68" len="12" vol="78" pos="5988"/>
          <note pan="0" key="71" len="12" vol="78" pos="6000"/>
          <note pan="0" key="75" len="12" vol="78" pos="6012"/>
          <note pan="0" key="78" len="12" vol="78" pos="6024"/>
          <note pan="0" key="81" len="12" vol="78" pos="6036"/>
          <note pan="0" key="72" len="12" vol="78" pos="6048"/>
          <note pan="0" key="81" len="12" vol="78" pos="6060"/>
          <note pan="0" key="78" len="12" vol="78" pos="6072"/>
          <note pan="0" key="75" len="12" vol="78" pos="6084"/>
          <note pan="0" key="71" len="12" vol="78" pos="6096"/>
          <note pan="0" key="68" len="12" vol="78" pos="6108"/>
          <note pan="0" key="64" len="12" vol="78" pos="6120"/>
          <note pan="0" key="61" len="12" vol="78" pos="6132"/>
        </pattern>
        <pattern steps="16" muted="0" pos="30336" name="" type="1">
          <note pan="0" key="57" len="12" vol="152" pos="0"/>
          <note pan="0" key="57" len="12" vol="152" pos="12"/>
          <note pan="0" key="56" len="12" vol="152" pos="24"/>
          <note pan="0" key="56" len="12" vol="152" pos="36"/>
          <note pan="0" key="54" len="12" vol="152" pos="48"/>
          <note pan="0" key="54" len="12" vol="152" pos="60"/>
          <note pan="0" key="61" len="12" vol="152" pos="72"/>
          <note pan="0" key="61" len="12" vol="152" pos="84"/>
          <note pan="0" key="59" len="12" vol="152" pos="96"/>
          <note pan="0" key="59" len="12" vol="152" pos="108"/>
          <note pan="0" key="57" len="12" vol="152" pos="120"/>
          <note pan="0" key="57" len="12" vol="152" pos="132"/>
          <note pan="0" key="59" len="12" vol="152" pos="144"/>
          <note pan="0" key="59" len="12" vol="152" pos="156"/>
          <note pan="0" key="61" len="12" vol="152" pos="168"/>
          <note pan="0" key="61" len="12" vol="152" pos="180"/>
          <note pan="0" key="62" len="48" vol="152" pos="192"/>
          <note pan="0" key="61" len="12" vol="152" pos="240"/>
          <note pan="0" key="62" len="12" vol="152" pos="252"/>
          <note pan="0" key="64" len="12" vol="152" pos="264"/>
          <note pan="0" key="66" len="12" vol="152" pos="276"/>
          <note pan="0" key="68" len="12" vol="152" pos="288"/>
          <note pan="0" key="66" len="12" vol="152" pos="300"/>
          <note pan="0" key="64" len="12" vol="152" pos="312"/>
          <note pan="0" key="66" len="12" vol="152" pos="324"/>
          <note pan="0" key="69" len="12" vol="152" pos="336"/>
          <note pan="0" key="68" len="12" vol="152" pos="348"/>
          <note pan="0" key="66" len="12" vol="152" pos="360"/>
          <note pan="0" key="68" len="12" vol="152" pos="372"/>
          <note pan="0" key="68" len="24" vol="152" pos="384"/>
          <note pan="0" key="69" len="24" vol="152" pos="408"/>
          <note pan="0" key="66" len="48" vol="152" pos="456"/>
          <note pan="0" key="62" len="12" vol="152" pos="504"/>
          <note pan="0" key="62" len="12" vol="152" pos="516"/>
          <note pan="0" key="66" len="12" vol="152" pos="528"/>
          <note pan="0" key="66" len="12" vol="152" pos="540"/>
          <note pan="0" key="68" len="12" vol="152" pos="552"/>
          <note pan="0" key="68" len="12" vol="152" pos="564"/>
          <note pan="0" key="71" len="24" vol="152" pos="576"/>
          <note pan="0" key="69" len="12" vol="152" pos="600"/>
          <note pan="0" key="71" len="12" vol="152" pos="612"/>
          <note pan="0" key="73" len="24" vol="152" pos="624"/>
          <note pan="0" key="71" len="12" vol="152" pos="648"/>
          <note pan="0" key="73" len="12" vol="152" pos="660"/>
          <note pan="0" key="76" len="12" vol="152" pos="672"/>
          <note pan="0" key="74" len="12" vol="152" pos="684"/>
          <note pan="0" key="73" len="12" vol="152" pos="696"/>
          <note pan="0" key="71" len="12" vol="152" pos="708"/>
          <note pan="0" key="69" len="12" vol="152" pos="720"/>
          <note pan="0" key="68" len="12" vol="152" pos="732"/>
          <note pan="0" key="66" len="12" vol="152" pos="744"/>
          <note pan="0" key="64" len="12" vol="152" pos="756"/>
        </pattern>
        <pattern steps="16" muted="0" pos="44928" name="" type="1">
          <note pan="0" key="73" len="240" vol="78" pos="0"/>
          <note pan="0" key="76" len="48" vol="78" pos="240"/>
          <note pan="0" key="78" len="48" vol="78" pos="288"/>
          <note pan="0" key="80" len="48" vol="78" pos="336"/>
          <note pan="0" key="81" len="72" vol="78" pos="384"/>
          <note pan="0" key="80" len="72" vol="78" pos="456"/>
          <note pan="0" key="78" len="48" vol="78" pos="528"/>
          <note pan="0" key="76" len="48" vol="78" pos="576"/>
          <note pan="0" key="73" len="48" vol="78" pos="624"/>
          <note pan="0" key="76" len="48" vol="78" pos="672"/>
          <note pan="0" key="80" len="48" vol="78" pos="720"/>
          <note pan="0" key="78" len="192" vol="78" pos="768"/>
          <note pan="0" key="75" len="96" vol="78" pos="960"/>
          <note pan="0" key="71" len="96" vol="78" pos="1056"/>
        </pattern>
        <pattern steps="16" muted="0" pos="38400" name="" type="1">
          <note pan="0" key="73" len="12" vol="78" pos="0"/>
          <note pan="0" key="71" len="12" vol="78" pos="12"/>
          <note pan="0" key="68" len="12" vol="78" pos="24"/>
          <note pan="0" key="71" len="12" vol="78" pos="36"/>
          <note pan="0" key="66" len="12" vol="78" pos="48"/>
          <note pan="0" key="71" len="12" vol="78" pos="60"/>
          <note pan="0" key="68" len="12" vol="78" pos="72"/>
          <note pan="0" key="71" len="12" vol="78" pos="84"/>
          <note pan="0" key="73" len="12" vol="78" pos="96"/>
          <note pan="0" key="71" len="12" vol="78" pos="108"/>
          <note pan="0" key="68" len="12" vol="78" pos="120"/>
          <note pan="0" key="71" len="12" vol="78" pos="132"/>
          <note pan="0" key="66" len="12" vol="78" pos="144"/>
          <note pan="0" key="71" len="12" vol="78" pos="156"/>
          <note pan="0" key="68" len="12" vol="78" pos="168"/>
          <note pan="0" key="71" len="12" vol="78" pos="180"/>
          <note pan="0" key="76" len="12" vol="78" pos="192"/>
          <note pan="0" key="73" len="12" vol="78" pos="204"/>
          <note pan="0" key="71" len="12" vol="78" pos="216"/>
          <note pan="0" key="73" len="12" vol="78" pos="228"/>
          <note pan="0" key="68" len="12" vol="78" pos="240"/>
          <note pan="0" key="73" len="12" vol="78" pos="252"/>
          <note pan="0" key="71" len="12" vol="78" pos="264"/>
          <note pan="0" key="73" len="12" vol="78" pos="276"/>
          <note pan="0" key="76" len="12" vol="78" pos="288"/>
          <note pan="0" key="73" len="12" vol="78" pos="300"/>
          <note pan="0" key="71" len="12" vol="78" pos="312"/>
          <note pan="0" key="73" len="12" vol="78" pos="324"/>
          <note pan="0" key="68" len="12" vol="78" pos="336"/>
          <note pan="0" key="73" len="12" vol="78" pos="348"/>
          <note pan="0" key="71" len="12" vol="78" pos="360"/>
          <note pan="0" key="73" len="12" vol="78" pos="372"/>
        </pattern>
        <pattern steps="16" muted="0" pos="38976" name="" type="1">
          <note pan="0" key="68" len="12" vol="78" pos="0"/>
          <note pan="0" key="66" len="12" vol="78" pos="12"/>
          <note pan="0" key="64" len="12" vol="78" pos="24"/>
          <note pan="0" key="66" len="12" vol="78" pos="36"/>
          <note pan="0" key="61" len="12" vol="78" pos="48"/>
          <note pan="0" key="66" len="12" vol="78" pos="60"/>
          <note pan="0" key="64" len="12" vol="78" pos="72"/>
          <note pan="0" key="66" len="12" vol="78" pos="84"/>
          <note pan="0" key="68" len="12" vol="78" pos="96"/>
          <note pan="0" key="66" len="12" vol="78" pos="108"/>
          <note pan="0" key="64" len="12" vol="78" pos="120"/>
          <note pan="0" key="66" len="12" vol="78" pos="132"/>
          <note pan="0" key="61" len="12" vol="78" pos="144"/>
          <note pan="0" key="66" len="12" vol="78" pos="156"/>
          <note pan="0" key="64" len="12" vol="78" pos="168"/>
          <note pan="0" key="66" len="12" vol="78" pos="180"/>
          <note pan="0" key="71" len="12" vol="78" pos="192"/>
          <note pan="0" key="68" len="12" vol="78" pos="204"/>
          <note pan="0" key="66" len="12" vol="78" pos="216"/>
          <note pan="0" key="68" len="12" vol="78" pos="228"/>
          <note pan="0" key="64" len="12" vol="78" pos="240"/>
          <note pan="0" key="68" len="12" vol="78" pos="252"/>
          <note pan="0" key="66" len="12" vol="78" pos="264"/>
          <note pan="0" key="68" len="12" vol="78" pos="276"/>
          <note pan="0" key="71" len="12" vol="78" pos="288"/>
          <note pan="0" key="68" len="12" vol="78" pos="300"/>
          <note pan="0" key="66" len="12" vol="78" pos="312"/>
          <note pan="0" key="68" len="12" vol="78" pos="324"/>
          <note pan="0" key="64" len="12" vol="78" pos="336"/>
          <note pan="0" key="68" len="12" vol="78" pos="348"/>
          <note pan="0" key="66" len="12" vol="78" pos="360"/>
          <note pan="0" key="68" len="12" vol="78" pos="372"/>
        </pattern>
        <pattern steps="16" muted="0" pos="37632" name="" type="1">
          <note pan="0" key="78" len="12" vol="78" pos="0"/>
          <note pan="0" key="0" len="12" vol="78" pos="0"/>
          <note pan="0" key="73" len="12" vol="78" pos="12"/>
          <note pan="0" key="70" len="12" vol="78" pos="24"/>
          <note pan="0" key="1" len="12" vol="78" pos="24"/>
          <note pan="0" key="73" len="12" vol="78" pos="36"/>
          <note pan="0" key="66" len="12" vol="78" pos="48"/>
          <note pan="0" key="73" len="12" vol="78" pos="60"/>
          <note pan="0" key="70" len="12" vol="78" pos="72"/>
          <note pan="0" key="73" len="12" vol="78" pos="84"/>
          <note pan="0" key="78" len="12" vol="78" pos="96"/>
          <note pan="0" key="73" len="12" vol="78" pos="108"/>
          <note pan="0" key="70" len="12" vol="78" pos="120"/>
          <note pan="0" key="73" len="12" vol="78" pos="132"/>
          <note pan="0" key="66" len="12" vol="78" pos="144"/>
          <note pan="0" key="73" len="12" vol="78" pos="156"/>
          <note pan="0" key="70" len="12" vol="78" pos="168"/>
          <note pan="0" key="73" len="12" vol="78" pos="180"/>
        </pattern>
        <pattern steps="16" muted="0" pos="53568" name="" type="1">
          <note pan="0" key="63" len="120" vol="193" pos="0"/>
          <note pan="0" key="58" len="24" vol="193" pos="120"/>
          <note pan="0" key="66" len="24" vol="193" pos="144"/>
          <note pan="0" key="58" len="24" vol="193" pos="168"/>
          <note pan="0" key="65" len="120" vol="193" pos="192"/>
          <note pan="0" key="65" len="12" vol="193" pos="312"/>
          <note pan="0" key="66" len="12" vol="193" pos="324"/>
          <note pan="0" key="70" len="12" vol="193" pos="336"/>
          <note pan="0" key="66" len="12" vol="193" pos="348"/>
          <note pan="0" key="65" len="12" vol="193" pos="360"/>
          <note pan="0" key="66" len="12" vol="193" pos="372"/>
          <note pan="0" key="70" len="144" vol="193" pos="384"/>
          <note pan="0" key="68" len="24" vol="193" pos="528"/>
          <note pan="0" key="66" len="24" vol="193" pos="552"/>
          <note pan="0" key="65" len="48" vol="193" pos="576"/>
          <note pan="0" key="66" len="48" vol="197" pos="624"/>
          <note pan="0" key="61" len="12" vol="193" pos="672"/>
          <note pan="0" key="61" len="12" vol="193" pos="684"/>
          <note pan="0" key="61" len="12" vol="193" pos="696"/>
          <note pan="0" key="61" len="12" vol="193" pos="708"/>
          <note pan="0" key="58" len="12" vol="193" pos="720"/>
          <note pan="0" key="54" len="12" vol="193" pos="732"/>
          <note pan="0" key="56" len="12" vol="193" pos="744"/>
          <note pan="0" key="58" len="12" vol="193" pos="756"/>
          <note pan="0" key="59" len="96" vol="193" pos="768"/>
          <note pan="0" key="63" len="48" vol="193" pos="864"/>
          <note pan="0" key="66" len="48" vol="193" pos="912"/>
          <note pan="0" key="66" len="96" vol="193" pos="960"/>
          <note pan="0" key="65" len="12" vol="193" pos="1056"/>
          <note pan="0" key="58" len="12" vol="193" pos="1068"/>
          <note pan="0" key="58" len="12" vol="193" pos="1080"/>
          <note pan="0" key="58" len="12" vol="193" pos="1092"/>
          <note pan="0" key="66" len="12" vol="193" pos="1104"/>
          <note pan="0" key="63" len="12" vol="193" pos="1116"/>
          <note pan="0" key="65" len="12" vol="193" pos="1128"/>
          <note pan="0" key="66" len="12" vol="193" pos="1140"/>
          <note pan="0" key="73" len="48" vol="193" pos="1152"/>
          <note pan="0" key="71" len="12" vol="193" pos="1200"/>
          <note pan="0" key="73" len="12" vol="193" pos="1212"/>
          <note pan="0" key="71" len="48" vol="193" pos="1224"/>
          <note pan="0" key="70" len="12" vol="193" pos="1272"/>
          <note pan="0" key="71" len="12" vol="193" pos="1284"/>
          <note pan="0" key="70" len="12" vol="193" pos="1296"/>
          <note pan="0" key="68" len="12" vol="193" pos="1308"/>
          <note pan="0" key="66" len="12" vol="193" pos="1320"/>
          <note pan="0" key="70" len="12" vol="193" pos="1332"/>
          <note pan="0" key="68" len="72" vol="193" pos="1344"/>
          <note pan="0" key="66" len="12" vol="193" pos="1416"/>
          <note pan="0" key="68" len="12" vol="193" pos="1428"/>
          <note pan="0" key="70" len="12" vol="193" pos="1440"/>
          <note pan="0" key="71" len="12" vol="193" pos="1452"/>
          <note pan="0" key="70" len="12" vol="193" pos="1464"/>
          <note pan="0" key="68" len="12" vol="193" pos="1476"/>
          <note pan="0" key="70" len="12" vol="193" pos="1488"/>
          <note pan="0" key="68" len="12" vol="193" pos="1500"/>
          <note pan="0" key="66" len="12" vol="193" pos="1512"/>
          <note pan="0" key="65" len="12" vol="193" pos="1524"/>
          <note pan="0" key="66" len="48" vol="193" pos="1536"/>
          <note pan="0" key="58" len="12" vol="193" pos="1584"/>
          <note pan="0" key="58" len="12" vol="193" pos="1596"/>
          <note pan="0" key="65" len="48" vol="193" pos="1608"/>
          <note pan="0" key="58" len="12" vol="193" pos="1656"/>
          <note pan="0" key="58" len="12" vol="193" pos="1668"/>
          <note pan="0" key="66" len="24" vol="193" pos="1680"/>
          <note pan="0" key="58" len="12" vol="193" pos="1704"/>
          <note pan="0" key="58" len="12" vol="193" pos="1716"/>
          <note pan="0" key="70" len="144" vol="193" pos="1728"/>
          <note pan="0" key="65" len="48" vol="193" pos="1872"/>
          <note pan="0" key="63" len="12" vol="193" pos="1920"/>
          <note pan="0" key="65" len="12" vol="193" pos="1932"/>
          <note pan="0" key="63" len="216" vol="193" pos="1944"/>
          <note pan="0" key="66" len="48" vol="193" pos="2160"/>
          <note pan="0" key="68" len="24" vol="193" pos="2208"/>
          <note pan="0" key="66" len="12" vol="193" pos="2232"/>
          <note pan="0" key="68" len="12" vol="193" pos="2244"/>
          <note pan="0" key="70" len="24" vol="193" pos="2256"/>
          <note pan="0" key="68" len="12" vol="193" pos="2280"/>
          <note pan="0" key="70" len="12" vol="193" pos="2292"/>
          <note pan="0" key="71" len="72" vol="193" pos="2304"/>
          <note pan="0" key="70" len="72" vol="193" pos="2376"/>
          <note pan="0" key="68" len="48" vol="193" pos="2448"/>
          <note pan="0" key="66" len="12" vol="193" pos="2496"/>
          <note pan="0" key="65" len="12" vol="193" pos="2508"/>
          <note pan="0" key="63" len="12" vol="193" pos="2520"/>
          <note pan="0" key="58" len="12" vol="193" pos="2532"/>
          <note pan="0" key="63" len="12" vol="193" pos="2544"/>
          <note pan="0" key="61" len="12" vol="193" pos="2556"/>
          <note pan="0" key="59" len="12" vol="193" pos="2568"/>
          <note pan="0" key="58" len="12" vol="193" pos="2580"/>
          <note pan="0" key="66" len="12" vol="193" pos="2592"/>
          <note pan="0" key="65" len="12" vol="193" pos="2604"/>
          <note pan="0" key="63" len="12" vol="193" pos="2616"/>
          <note pan="0" key="58" len="12" vol="193" pos="2628"/>
          <note pan="0" key="75" len="48" vol="193" pos="2640"/>
          <note pan="0" key="73" len="192" vol="193" pos="2688"/>
        </pattern>
        <pattern steps="16" muted="0" pos="56832" name="" type="1">
          <note pan="0" key="58" len="120" vol="78" pos="0"/>
          <note pan="0" key="54" len="24" vol="78" pos="120"/>
          <note pan="0" key="63" len="24" vol="78" pos="144"/>
          <note pan="0" key="54" len="24" vol="78" pos="168"/>
          <note pan="0" key="61" len="120" vol="78" pos="192"/>
          <note pan="0" key="61" len="12" vol="78" pos="312"/>
          <note pan="0" key="63" len="12" vol="78" pos="324"/>
          <note pan="0" key="66" len="12" vol="78" pos="336"/>
          <note pan="0" key="63" len="12" vol="78" pos="348"/>
          <note pan="0" key="61" len="12" vol="78" pos="360"/>
          <note pan="0" key="63" len="12" vol="78" pos="372"/>
          <note pan="0" key="66" len="144" vol="78" pos="384"/>
          <note pan="0" key="65" len="24" vol="78" pos="528"/>
          <note pan="0" key="63" len="24" vol="78" pos="552"/>
          <note pan="0" key="61" len="48" vol="78" pos="576"/>
          <note pan="0" key="63" len="48" vol="78" pos="624"/>
          <note pan="0" key="58" len="12" vol="78" pos="672"/>
          <note pan="0" key="58" len="12" vol="78" pos="684"/>
          <note pan="0" key="58" len="12" vol="78" pos="696"/>
          <note pan="0" key="58" len="12" vol="78" pos="708"/>
          <note pan="0" key="54" len="12" vol="78" pos="720"/>
          <note pan="0" key="51" len="12" vol="78" pos="732"/>
          <note pan="0" key="53" len="12" vol="78" pos="744"/>
          <note pan="0" key="54" len="12" vol="78" pos="756"/>
          <note pan="0" key="56" len="96" vol="78" pos="768"/>
          <note pan="0" key="59" len="48" vol="78" pos="864"/>
          <note pan="0" key="63" len="48" vol="78" pos="912"/>
          <note pan="0" key="63" len="96" vol="78" pos="960"/>
          <note pan="0" key="61" len="12" vol="78" pos="1056"/>
          <note pan="0" key="54" len="12" vol="78" pos="1068"/>
          <note pan="0" key="54" len="12" vol="78" pos="1080"/>
          <note pan="0" key="54" len="12" vol="78" pos="1092"/>
          <note pan="0" key="63" len="12" vol="78" pos="1104"/>
          <note pan="0" key="59" len="12" vol="78" pos="1116"/>
          <note pan="0" key="61" len="12" vol="78" pos="1128"/>
          <note pan="0" key="63" len="12" vol="78" pos="1140"/>
          <note pan="0" key="70" len="48" vol="78" pos="1152"/>
          <note pan="0" key="68" len="12" vol="78" pos="1200"/>
          <note pan="0" key="70" len="12" vol="78" pos="1212"/>
          <note pan="0" key="68" len="48" vol="78" pos="1224"/>
          <note pan="0" key="66" len="12" vol="78" pos="1272"/>
          <note pan="0" key="68" len="12" vol="78" pos="1284"/>
          <note pan="0" key="66" len="12" vol="78" pos="1296"/>
          <note pan="0" key="65" len="12" vol="78" pos="1308"/>
          <note pan="0" key="63" len="12" vol="78" pos="1320"/>
          <note pan="0" key="66" len="12" vol="78" pos="1332"/>
          <note pan="0" key="65" len="72" vol="78" pos="1344"/>
          <note pan="0" key="63" len="12" vol="78" pos="1416"/>
          <note pan="0" key="65" len="12" vol="78" pos="1428"/>
          <note pan="0" key="66" len="12" vol="78" pos="1440"/>
          <note pan="0" key="68" len="12" vol="78" pos="1452"/>
          <note pan="0" key="66" len="12" vol="78" pos="1464"/>
          <note pan="0" key="65" len="12" vol="78" pos="1476"/>
          <note pan="0" key="66" len="12" vol="78" pos="1488"/>
          <note pan="0" key="65" len="12" vol="78" pos="1500"/>
          <note pan="0" key="63" len="12" vol="78" pos="1512"/>
          <note pan="0" key="61" len="12" vol="78" pos="1524"/>
          <note pan="0" key="63" len="48" vol="78" pos="1536"/>
          <note pan="0" key="54" len="12" vol="78" pos="1584"/>
          <note pan="0" key="54" len="12" vol="78" pos="1596"/>
          <note pan="0" key="61" len="48" vol="78" pos="1608"/>
          <note pan="0" key="54" len="12" vol="78" pos="1656"/>
          <note pan="0" key="54" len="12" vol="78" pos="1668"/>
          <note pan="0" key="63" len="24" vol="78" pos="1680"/>
          <note pan="0" key="54" len="12" vol="78" pos="1704"/>
          <note pan="0" key="54" len="12" vol="78" pos="1716"/>
          <note pan="0" key="66" len="144" vol="78" pos="1728"/>
          <note pan="0" key="61" len="48" vol="78" pos="1872"/>
          <note pan="0" key="60" len="12" vol="78" pos="1920"/>
          <note pan="0" key="61" len="12" vol="78" pos="1932"/>
          <note pan="0" key="60" len="216" vol="78" pos="1944"/>
          <note pan="0" key="63" len="48" vol="78" pos="2160"/>
          <note pan="0" key="65" len="24" vol="78" pos="2208"/>
          <note pan="0" key="63" len="12" vol="78" pos="2232"/>
          <note pan="0" key="65" len="12" vol="78" pos="2244"/>
          <note pan="0" key="66" len="24" vol="78" pos="2256"/>
          <note pan="0" key="65" len="12" vol="78" pos="2280"/>
          <note pan="0" key="66" len="12" vol="78" pos="2292"/>
          <note pan="0" key="68" len="72" vol="78" pos="2304"/>
          <note pan="0" key="66" len="72" vol="78" pos="2376"/>
          <note pan="0" key="65" len="48" vol="78" pos="2448"/>
          <note pan="0" key="63" len="12" vol="193" pos="2496"/>
          <note pan="0" key="61" len="12" vol="193" pos="2508"/>
          <note pan="0" key="59" len="12" vol="193" pos="2520"/>
          <note pan="0" key="54" len="12" vol="193" pos="2532"/>
          <note pan="0" key="59" len="12" vol="193" pos="2544"/>
          <note pan="0" key="58" len="12" vol="193" pos="2556"/>
          <note pan="0" key="56" len="12" vol="193" pos="2568"/>
          <note pan="0" key="54" len="12" vol="193" pos="2580"/>
          <note pan="0" key="63" len="12" vol="193" pos="2592"/>
          <note pan="0" key="61" len="12" vol="193" pos="2604"/>
          <note pan="0" key="59" len="12" vol="193" pos="2616"/>
          <note pan="0" key="54" len="12" vol="193" pos="2628"/>
          <note pan="0" key="71" len="48" vol="193" pos="2640"/>
          <note pan="0" key="68" len="192" vol="193" pos="2688"/>
        </pattern>
      </track>
      <track solo="0" mutedBeforeSolo="1" muted="1" name="Orchestra Soundfont 2 COMBO" type="0">
        <instrumenttrack pan="0" basenote="57" pitch="0" usemasterpitch="1" vol="100" pitchrange="2" fxch="0">
          <instrument name="sf2player">
            <sf2player chorusLevel="2" patch="48" reverbOn="0" reverbWidth="0.5" gain="1" src="/home/pass/samples/soundfonts/Orchestra Soundfont 2 COMBO.sf2" bank="0" chorusDepth="8" reverbLevel="0.9" reverbDamping="0" reverbRoomSize="0.2" chorusOn="0" chorusNum="3" chorusSpeed="0.3">
              <key/>
            </sf2player>
          </instrument>
          <eldata fcut="14000" fres="0.5" ftype="0" fwet="0">
            <elvol lspd_syncmode="0" amt="0" lshp="0" lpdel="0" att="0" ctlenvamt="0" dec="0.5" userwavefile="" x100="0" rel="0.1" sustain="0.5" lspd_numerator="4" latt="0" lspd="0.1" lamt="0" lspd_denominator="4" hold="0.5" pdel="0"/>
            <elcut lspd_syncmode="0" amt="0" lshp="0" lpdel="0" att="0" ctlenvamt="0" dec="0.5" userwavefile="" x100="0" rel="0.1" sustain="0.5" lspd_numerator="4" latt="0" lspd="0.1" lamt="0" lspd_denominator="4" hold="0.5" pdel="0"/>
            <elres lspd_syncmode="0" amt="0" lshp="0" lpdel="0" att="0" ctlenvamt="0" dec="0.5" userwavefile="" x100="0" rel="0.1" sustain="0.5" lspd_numerator="4" latt="0" lspd="0.1" lamt="0" lspd_denominator="4" hold="0.5" pdel="0"/>
          </eldata>
          <chordcreator chordrange="1" chord-enabled="0" chord="0"/>
          <arpeggiator arprange="1" arpmode="0" arpcycle="0" arptime_syncmode="0" arptime_numerator="4" arpgate="100" arptime="200" arpskip="0" arpmiss="0" arp="0" arptime_denominator="4" arp-enabled="0" arpdir="0"/>
          <midiport inputcontroller="0" outputcontroller="0" readable="0" outputchannel="1" fixedoutputvelocity="-1" outputprogram="1" fixedinputvelocity="-1" fixedoutputnote="-1" inputchannel="0" basevelocity="63" writable="0"/>
          <fxchain enabled="0" numofeffects="0"/>
        </instrumenttrack>
        <pattern steps="16" muted="0" pos="384" name="" type="1">
          <note pan="0" key="49" len="48" vol="78" pos="0"/>
          <note pan="0" key="49" len="48" vol="78" pos="384"/>
          <note pan="0" key="49" len="48" vol="78" pos="768"/>
          <note pan="0" key="49" len="48" vol="78" pos="1152"/>
          <note pan="0" key="49" len="384" vol="78" pos="1536"/>
          <note pan="0" key="49" len="384" vol="78" pos="1920"/>
          <note pan="0" key="49" len="384" vol="78" pos="2304"/>
          <note pan="0" key="49" len="384" vol="78" pos="2688"/>
          <note pan="0" key="61" len="48" vol="78" pos="3072"/>
          <note pan="0" key="49" len="48" vol="78" pos="3072"/>
          <note pan="0" key="61" len="48" vol="78" pos="3120"/>
          <note pan="0" key="49" len="48" vol="78" pos="3120"/>
          <note pan="0" key="61" len="48" vol="78" pos="3168"/>
          <note pan="0" key="49" len="48" vol="78" pos="3168"/>
          <note pan="0" key="64" len="48" vol="78" pos="3216"/>
          <note pan="0" key="52" len="48" vol="78" pos="3216"/>
          <note pan="0" key="63" len="48" vol="78" pos="3264"/>
          <note pan="0" key="51" len="48" vol="78" pos="3264"/>
          <note pan="0" key="63" len="48" vol="78" pos="3312"/>
          <note pan="0" key="51" len="48" vol="78" pos="3312"/>
          <note pan="0" key="63" len="48" vol="78" pos="3360"/>
          <note pan="0" key="51" len="48" vol="78" pos="3360"/>
          <note pan="0" key="68" len="48" vol="78" pos="3408"/>
          <note pan="0" key="56" len="48" vol="78" pos="3408"/>
          <note pan="0" key="68" len="48" vol="78" pos="3456"/>
          <note pan="0" key="56" len="48" vol="78" pos="3456"/>
          <note pan="0" key="68" len="48" vol="78" pos="3504"/>
          <note pan="0" key="56" len="48" vol="78" pos="3504"/>
          <note pan="0" key="68" len="48" vol="78" pos="3552"/>
          <note pan="0" key="56" len="48" vol="78" pos="3552"/>
          <note pan="0" key="66" len="24" vol="78" pos="3600"/>
          <note pan="0" key="54" len="24" vol="78" pos="3600"/>
          <note pan="0" key="64" len="24" vol="78" pos="3624"/>
          <note pan="0" key="52" len="24" vol="78" pos="3624"/>
          <note pan="0" key="63" len="48" vol="78" pos="3648"/>
          <note pan="0" key="51" len="48" vol="78" pos="3648"/>
          <note pan="0" key="64" len="48" vol="78" pos="3696"/>
          <note pan="0" key="52" len="48" vol="78" pos="3696"/>
          <note pan="0" key="59" len="48" vol="78" pos="3744"/>
          <note pan="0" key="47" len="48" vol="78" pos="3744"/>
          <note pan="0" key="56" len="48" vol="78" pos="3792"/>
          <note pan="0" key="44" len="48" vol="78" pos="3792"/>
          <note pan="0" key="57" len="48" vol="78" pos="3840"/>
          <note pan="0" key="45" len="48" vol="78" pos="3840"/>
          <note pan="0" key="57" len="48" vol="78" pos="3888"/>
          <note pan="0" key="45" len="48" vol="78" pos="3888"/>
          <note pan="0" key="57" len="48" vol="78" pos="3936"/>
          <note pan="0" key="45" len="48" vol="78" pos="3936"/>
          <note pan="0" key="64" len="48" vol="78" pos="3984"/>
          <note pan="0" key="52" len="48" vol="78" pos="3984"/>
          <note pan="0" key="63" len="48" vol="78" pos="4032"/>
          <note pan="0" key="51" len="48" vol="78" pos="4032"/>
          <note pan="0" key="63" len="48" vol="78" pos="4080"/>
          <note pan="0" key="51" len="48" vol="78" pos="4080"/>
          <note pan="0" key="63" len="48" vol="78" pos="4128"/>
          <note pan="0" key="51" len="48" vol="78" pos="4128"/>
          <note pan="0" key="66" len="48" vol="78" pos="4176"/>
          <note pan="0" key="54" len="48" vol="78" pos="4176"/>
          <note pan="0" key="64" len="96" vol="78" pos="4224"/>
          <note pan="0" key="52" len="96" vol="78" pos="4224"/>
          <note pan="0" key="68" len="48" vol="78" pos="4320"/>
          <note pan="0" key="56" len="48" vol="78" pos="4320"/>
          <note pan="0" key="64" len="48" vol="78" pos="4368"/>
          <note pan="0" key="52" len="48" vol="78" pos="4368"/>
          <note pan="0" key="66" len="48" vol="78" pos="4416"/>
          <note pan="0" key="54" len="48" vol="78" pos="4416"/>
          <note pan="0" key="71" len="48" vol="78" pos="4464"/>
          <note pan="0" key="59" len="48" vol="78" pos="4464"/>
          <note pan="0" key="68" len="48" vol="78" pos="4512"/>
          <note pan="0" key="56" len="48" vol="78" pos="4512"/>
          <note pan="0" key="75" len="48" vol="78" pos="4560"/>
          <note pan="0" key="63" len="48" vol="78" pos="4560"/>
        </pattern>
        <pattern steps="16" muted="0" pos="11136" name="" type="1">
          <note pan="0" key="61" len="192" vol="78" pos="0"/>
          <note pan="0" key="64" len="192" vol="78" pos="192"/>
          <note pan="0" key="62" len="192" vol="78" pos="384"/>
          <note pan="0" key="66" len="192" vol="78" pos="576"/>
          <note pan="0" key="61" len="192" vol="78" pos="768"/>
          <note pan="0" key="64" len="192" vol="78" pos="960"/>
          <note pan="0" key="62" len="192" vol="78" pos="1152"/>
          <note pan="0" key="66" len="192" vol="78" pos="1344"/>
        </pattern>
        <pattern steps="16" muted="0" pos="18816" name="" type="1">
          <note pan="0" key="61" len="192" vol="78" pos="0"/>
          <note pan="0" key="56" len="192" vol="78" pos="384"/>
          <note pan="0" key="56" len="192" vol="78" pos="768"/>
          <note pan="0" key="68" len="192" vol="78" pos="1152"/>
          <note pan="0" key="69" len="192" vol="78" pos="1536"/>
          <note pan="0" key="69" len="192" vol="78" pos="1728"/>
          <note pan="0" key="68" len="192" vol="78" pos="1920"/>
          <note pan="0" key="68" len="192" vol="78" pos="2112"/>
          <note pan="0" key="66" len="192" vol="78" pos="2304"/>
          <note pan="0" key="66" len="192" vol="78" pos="2496"/>
          <note pan="0" key="73" len="192" vol="78" pos="2688"/>
          <note pan="0" key="72" len="192" vol="78" pos="2880"/>
        </pattern>
        <pattern steps="16" muted="0" pos="24960" name="" type="1">
          <note pan="0" key="61" len="192" vol="78" pos="0"/>
          <note pan="0" key="49" len="192" vol="78" pos="0"/>
          <note pan="0" key="59" len="192" vol="78" pos="192"/>
          <note pan="0" key="47" len="192" vol="78" pos="192"/>
          <note pan="0" key="56" len="288" vol="78" pos="384"/>
          <note pan="0" key="44" len="288" vol="78" pos="384"/>
          <note pan="0" key="56" len="96" vol="78" pos="672"/>
          <note pan="0" key="44" len="96" vol="78" pos="672"/>
          <note pan="0" key="68" len="192" vol="78" pos="768"/>
          <note pan="0" key="56" len="192" vol="78" pos="768"/>
          <note pan="0" key="66" len="192" vol="78" pos="960"/>
          <note pan="0" key="54" len="192" vol="78" pos="960"/>
          <note pan="0" key="61" len="384" vol="78" pos="1152"/>
          <note pan="0" key="49" len="384" vol="78" pos="1152"/>
          <note pan="0" key="61" len="192" vol="78" pos="1536"/>
          <note pan="0" key="49" len="192" vol="78" pos="1536"/>
          <note pan="0" key="63" len="192" vol="78" pos="1728"/>
          <note pan="0" key="51" len="192" vol="78" pos="1728"/>
          <note pan="0" key="64" len="192" vol="78" pos="1920"/>
          <note pan="0" key="52" len="192" vol="78" pos="1920"/>
          <note pan="0" key="68" len="96" vol="78" pos="2112"/>
          <note pan="0" key="56" len="96" vol="78" pos="2112"/>
          <note pan="0" key="66" len="96" vol="78" pos="2208"/>
          <note pan="0" key="54" len="96" vol="78" pos="2208"/>
          <note pan="0" key="66" len="192" vol="78" pos="2304"/>
          <note pan="0" key="54" len="192" vol="78" pos="2304"/>
          <note pan="0" key="61" len="144" vol="78" pos="2496"/>
          <note pan="0" key="49" len="144" vol="78" pos="2496"/>
          <note pan="0" key="61" len="24" vol="78" pos="2640"/>
          <note pan="0" key="49" len="24" vol="78" pos="2640"/>
          <note pan="0" key="63" len="24" vol="78" pos="2664"/>
          <note pan="0" key="51" len="24" vol="78" pos="2664"/>
          <note pan="0" key="64" len="192" vol="78" pos="2688"/>
          <note pan="0" key="52" len="192" vol="78" pos="2688"/>
          <note pan="0" key="64" len="96" vol="78" pos="2880"/>
          <note pan="0" key="52" len="96" vol="78" pos="2880"/>
          <note pan="0" key="68" len="96" vol="78" pos="2976"/>
          <note pan="0" key="56" len="96" vol="78" pos="2976"/>
          <note pan="0" key="73" len="384" vol="78" pos="3072"/>
          <note pan="0" key="61" len="384" vol="78" pos="3072"/>
          <note pan="0" key="73" len="384" vol="78" pos="3456"/>
          <note pan="0" key="61" len="384" vol="78" pos="3456"/>
        </pattern>
        <pattern steps="16" muted="0" pos="31872" name="" type="1">
          <note pan="0" key="56" len="192" vol="78" pos="0"/>
          <note pan="0" key="57" len="192" vol="78" pos="192"/>
          <note pan="0" key="59" len="192" vol="78" pos="384"/>
          <note pan="0" key="54" len="192" vol="78" pos="576"/>
          <note pan="0" key="56" len="192" vol="78" pos="768"/>
          <note pan="0" key="57" len="192" vol="78" pos="960"/>
          <note pan="0" key="59" len="192" vol="78" pos="1152"/>
          <note pan="0" key="63" len="192" vol="78" pos="1344"/>
          <note pan="0" key="61" len="192" vol="78" pos="1536"/>
          <note pan="0" key="61" len="192" vol="78" pos="1920"/>
          <note pan="0" key="64" len="192" vol="78" pos="2112"/>
          <note pan="0" key="62" len="192" vol="78" pos="2304"/>
          <note pan="0" key="61" len="192" vol="78" pos="2688"/>
          <note pan="0" key="66" len="192" vol="78" pos="2880"/>
          <note pan="0" key="61" len="48" vol="78" pos="3072"/>
          <note pan="0" key="49" len="48" vol="78" pos="3072"/>
          <note pan="0" key="61" len="48" vol="78" pos="3120"/>
          <note pan="0" key="49" len="48" vol="78" pos="3120"/>
          <note pan="0" key="61" len="48" vol="78" pos="3168"/>
          <note pan="0" key="49" len="48" vol="78" pos="3168"/>
          <note pan="0" key="64" len="48" vol="78" pos="3216"/>
          <note pan="0" key="52" len="48" vol="78" pos="3216"/>
          <note pan="0" key="63" len="48" vol="78" pos="3264"/>
          <note pan="0" key="51" len="48" vol="78" pos="3264"/>
          <note pan="0" key="63" len="48" vol="78" pos="3312"/>
          <note pan="0" key="51" len="48" vol="78" pos="3312"/>
          <note pan="0" key="63" len="48" vol="78" pos="3360"/>
          <note pan="0" key="51" len="48" vol="78" pos="3360"/>
          <note pan="0" key="68" len="48" vol="78" pos="3408"/>
          <note pan="0" key="56" len="48" vol="78" pos="3408"/>
          <note pan="0" key="68" len="48" vol="78" pos="3456"/>
          <note pan="0" key="56" len="48" vol="78" pos="3456"/>
          <note pan="0" key="68" len="48" vol="78" pos="3504"/>
          <note pan="0" key="56" len="48" vol="78" pos="3504"/>
          <note pan="0" key="68" len="48" vol="78" pos="3552"/>
          <note pan="0" key="56" len="48" vol="78" pos="3552"/>
          <note pan="0" key="66" len="24" vol="78" pos="3600"/>
          <note pan="0" key="54" len="24" vol="78" pos="3600"/>
          <note pan="0" key="64" len="24" vol="78" pos="3624"/>
          <note pan="0" key="52" len="24" vol="78" pos="3624"/>
          <note pan="0" key="63" len="48" vol="78" pos="3648"/>
          <note pan="0" key="51" len="48" vol="78" pos="3648"/>
          <note pan="0" key="64" len="48" vol="78" pos="3696"/>
          <note pan="0" key="52" len="48" vol="78" pos="3696"/>
          <note pan="0" key="59" len="48" vol="78" pos="3744"/>
          <note pan="0" key="47" len="48" vol="78" pos="3744"/>
          <note pan="0" key="56" len="48" vol="78" pos="3792"/>
          <note pan="0" key="44" len="48" vol="78" pos="3792"/>
          <note pan="0" key="57" len="48" vol="78" pos="3840"/>
          <note pan="0" key="45" len="48" vol="78" pos="3840"/>
          <note pan="0" key="57" len="48" vol="78" pos="3888"/>
          <note pan="0" key="45" len="48" vol="78" pos="3888"/>
          <note pan="0" key="57" len="48" vol="78" pos="3936"/>
          <note pan="0" key="45" len="48" vol="78" pos="3936"/>
          <note pan="0" key="64" len="48" vol="78" pos="3984"/>
          <note pan="0" key="52" len="48" vol="78" pos="3984"/>
          <note pan="0" key="63" len="48" vol="78" pos="4032"/>
          <note pan="0" key="51" len="48" vol="78" pos="4032"/>
          <note pan="0" key="63" len="48" vol="78" pos="4080"/>
          <note pan="0" key="51" len="48" vol="78" pos="4080"/>
          <note pan="0" key="63" len="48" vol="78" pos="4128"/>
          <note pan="0" key="51" len="48" vol="78" pos="4128"/>
          <note pan="0" key="66" len="48" vol="78" pos="4176"/>
          <note pan="0" key="54" len="48" vol="78" pos="4176"/>
          <note pan="0" key="64" len="96" vol="78" pos="4224"/>
          <note pan="0" key="52" len="96" vol="78" pos="4224"/>
          <note pan="0" key="68" len="48" vol="78" pos="4320"/>
          <note pan="0" key="56" len="48" vol="78" pos="4320"/>
          <note pan="0" key="64" len="48" vol="78" pos="4368"/>
          <note pan="0" key="52" len="48" vol="78" pos="4368"/>
          <note pan="0" key="66" len="48" vol="78" pos="4416"/>
          <note pan="0" key="54" len="48" vol="78" pos="4416"/>
          <note pan="0" key="71" len="48" vol="78" pos="4464"/>
          <note pan="0" key="59" len="48" vol="78" pos="4464"/>
          <note pan="0" key="68" len="48" vol="78" pos="4512"/>
          <note pan="0" key="56" len="48" vol="78" pos="4512"/>
          <note pan="0" key="75" len="48" vol="78" pos="4560"/>
          <note pan="0" key="63" len="48" vol="78" pos="4560"/>
        </pattern>
        <pattern steps="16" muted="0" pos="42624" name="" type="1">
          <note pan="0" key="61" len="192" vol="78" pos="0"/>
          <note pan="0" key="64" len="192" vol="78" pos="192"/>
          <note pan="0" key="62" len="192" vol="78" pos="384"/>
          <note pan="0" key="66" len="192" vol="78" pos="576"/>
          <note pan="0" key="61" len="192" vol="78" pos="768"/>
          <note pan="0" key="64" len="192" vol="78" pos="960"/>
          <note pan="0" key="62" len="192" vol="78" pos="1152"/>
          <note pan="0" key="66" len="192" vol="78" pos="1344"/>
        </pattern>
        <pattern steps="16" muted="0" pos="50304" name="" type="1">
          <note pan="0" key="61" len="192" vol="78" pos="0"/>
          <note pan="0" key="56" len="192" vol="78" pos="384"/>
          <note pan="0" key="56" len="192" vol="78" pos="768"/>
          <note pan="0" key="68" len="192" vol="78" pos="1152"/>
          <note pan="0" key="69" len="192" vol="78" pos="1536"/>
          <note pan="0" key="69" len="192" vol="78" pos="1728"/>
          <note pan="0" key="68" len="192" vol="78" pos="1920"/>
          <note pan="0" key="68" len="192" vol="78" pos="2112"/>
          <note pan="0" key="66" len="192" vol="78" pos="2304"/>
          <note pan="0" key="66" len="192" vol="78" pos="2496"/>
          <note pan="0" key="73" len="192" vol="78" pos="2688"/>
          <note pan="0" key="72" len="192" vol="78" pos="2880"/>
        </pattern>
        <pattern steps="16" muted="0" pos="56448" name="" type="1">
          <note pan="0" key="61" len="192" vol="78" pos="0"/>
          <note pan="0" key="49" len="192" vol="78" pos="0"/>
          <note pan="0" key="59" len="192" vol="78" pos="192"/>
          <note pan="0" key="47" len="192" vol="78" pos="192"/>
          <note pan="0" key="56" len="288" vol="78" pos="384"/>
          <note pan="0" key="44" len="288" vol="78" pos="384"/>
          <note pan="0" key="56" len="96" vol="78" pos="672"/>
          <note pan="0" key="44" len="96" vol="78" pos="672"/>
          <note pan="0" key="68" len="192" vol="78" pos="768"/>
          <note pan="0" key="56" len="192" vol="78" pos="768"/>
          <note pan="0" key="66" len="192" vol="78" pos="960"/>
          <note pan="0" key="54" len="192" vol="78" pos="960"/>
          <note pan="0" key="61" len="384" vol="78" pos="1152"/>
          <note pan="0" key="49" len="384" vol="78" pos="1152"/>
          <note pan="0" key="61" len="192" vol="78" pos="1536"/>
          <note pan="0" key="49" len="192" vol="78" pos="1536"/>
          <note pan="0" key="63" len="192" vol="78" pos="1728"/>
          <note pan="0" key="51" len="192" vol="78" pos="1728"/>
          <note pan="0" key="64" len="192" vol="78" pos="1920"/>
          <note pan="0" key="52" len="192" vol="78" pos="1920"/>
          <note pan="0" key="68" len="96" vol="78" pos="2112"/>
          <note pan="0" key="56" len="96" vol="78" pos="2112"/>
          <note pan="0" key="66" len="96" vol="78" pos="2208"/>
          <note pan="0" key="54" len="96" vol="78" pos="2208"/>
          <note pan="0" key="66" len="192" vol="78" pos="2304"/>
          <note pan="0" key="54" len="192" vol="78" pos="2304"/>
          <note pan="0" key="61" len="144" vol="78" pos="2496"/>
          <note pan="0" key="49" len="144" vol="78" pos="2496"/>
          <note pan="0" key="61" len="24" vol="78" pos="2640"/>
          <note pan="0" key="49" len="24" vol="78" pos="2640"/>
          <note pan="0" key="63" len="24" vol="78" pos="2664"/>
          <note pan="0" key="51" len="24" vol="78" pos="2664"/>
          <note pan="0" key="64" len="192" vol="78" pos="2688"/>
          <note pan="0" key="52" len="192" vol="78" pos="2688"/>
          <note pan="0" key="64" len="96" vol="78" pos="2880"/>
          <note pan="0" key="52" len="96" vol="78" pos="2880"/>
          <note pan="0" key="68" len="96" vol="78" pos="2976"/>
          <note pan="0" key="56" len="96" vol="78" pos="2976"/>
          <note pan="0" key="73" len="384" vol="78" pos="3072"/>
          <note pan="0" key="61" len="384" vol="78" pos="3072"/>
          <note pan="0" key="73" len="384" vol="78" pos="3456"/>
          <note pan="0" key="61" len="384" vol="78" pos="3456"/>
        </pattern>
        <pattern steps="16" muted="0" pos="39744" name="" type="1">
          <note pan="0" key="61" len="144" vol="136" pos="0"/>
          <note pan="0" key="49" len="48" vol="136" pos="0"/>
          <note pan="0" key="52" len="48" vol="136" pos="48"/>
          <note pan="0" key="56" len="48" vol="136" pos="96"/>
          <note pan="0" key="64" len="48" vol="136" pos="144"/>
          <note pan="0" key="61" len="48" vol="136" pos="144"/>
          <note pan="0" key="63" len="144" vol="136" pos="192"/>
          <note pan="0" key="59" len="48" vol="136" pos="192"/>
          <note pan="0" key="54" len="48" vol="136" pos="240"/>
          <note pan="0" key="59" len="48" vol="136" pos="288"/>
          <note pan="0" key="68" len="48" vol="136" pos="336"/>
          <note pan="0" key="63" len="48" vol="136" pos="336"/>
          <note pan="0" key="68" len="144" vol="136" pos="384"/>
          <note pan="0" key="64" len="48" vol="136" pos="384"/>
          <note pan="0" key="57" len="48" vol="136" pos="432"/>
          <note pan="0" key="61" len="48" vol="136" pos="480"/>
          <note pan="0" key="66" len="24" vol="136" pos="528"/>
          <note pan="0" key="52" len="48" vol="136" pos="528"/>
          <note pan="0" key="64" len="24" vol="136" pos="552"/>
          <note pan="0" key="63" len="48" vol="136" pos="576"/>
          <note pan="0" key="54" len="48" vol="136" pos="576"/>
          <note pan="0" key="64" len="48" vol="136" pos="624"/>
          <note pan="0" key="51" len="48" vol="136" pos="624"/>
          <note pan="0" key="59" len="48" vol="136" pos="672"/>
          <note pan="0" key="54" len="48" vol="136" pos="672"/>
          <note pan="0" key="56" len="48" vol="136" pos="720"/>
          <note pan="0" key="47" len="48" vol="136" pos="720"/>
          <note pan="0" key="57" len="96" vol="136" pos="768"/>
          <note pan="0" key="49" len="48" vol="136" pos="768"/>
          <note pan="0" key="54" len="48" vol="136" pos="816"/>
          <note pan="0" key="61" len="48" vol="136" pos="864"/>
          <note pan="0" key="57" len="48" vol="136" pos="864"/>
          <note pan="0" key="64" len="48" vol="136" pos="912"/>
          <note pan="0" key="54" len="48" vol="136" pos="912"/>
          <note pan="0" key="64" len="96" vol="136" pos="960"/>
          <note pan="0" key="56" len="48" vol="136" pos="960"/>
          <note pan="0" key="59" len="48" vol="136" pos="1008"/>
          <note pan="0" key="63" len="48" vol="136" pos="1056"/>
          <note pan="0" key="56" len="48" vol="136" pos="1056"/>
          <note pan="0" key="64" len="48" vol="136" pos="1104"/>
          <note pan="0" key="51" len="48" vol="136" pos="1104"/>
          <note pan="0" key="71" len="72" vol="136" pos="1152"/>
          <note pan="0" key="57" len="48" vol="136" pos="1152"/>
        </pattern>
        <pattern steps="16" muted="0" pos="47232" name="" type="1">
          <note pan="0" key="63" len="120" vol="78" pos="0"/>
          <note pan="0" key="0" len="24" vol="78" pos="0"/>
          <note pan="0" key="1" len="24" vol="78" pos="96"/>
          <note pan="0" key="58" len="24" vol="78" pos="120"/>
          <note pan="0" key="0" len="24" vol="78" pos="132"/>
          <note pan="0" key="66" len="24" vol="78" pos="144"/>
          <note pan="0" key="58" len="24" vol="78" pos="168"/>
          <note pan="0" key="1" len="24" vol="78" pos="168"/>
          <note pan="0" key="65" len="120" vol="78" pos="192"/>
          <note pan="0" key="0" len="24" vol="78" pos="192"/>
          <note pan="0" key="1" len="12" vol="78" pos="300"/>
          <note pan="0" key="65" len="12" vol="78" pos="312"/>
          <note pan="0" key="66" len="12" vol="78" pos="324"/>
          <note pan="0" key="70" len="12" vol="78" pos="336"/>
          <note pan="0" key="0" len="12" vol="78" pos="336"/>
          <note pan="0" key="66" len="12" vol="78" pos="348"/>
          <note pan="0" key="65" len="12" vol="78" pos="360"/>
          <note pan="0" key="1" len="12" vol="78" pos="360"/>
          <note pan="0" key="66" len="12" vol="78" pos="372"/>
          <note pan="0" key="70" len="144" vol="78" pos="384"/>
          <note pan="0" key="0" len="12" vol="78" pos="384"/>
          <note pan="0" key="68" len="24" vol="78" pos="528"/>
          <note pan="0" key="66" len="24" vol="78" pos="552"/>
          <note pan="0" key="65" len="48" vol="78" pos="576"/>
          <note pan="0" key="66" len="48" vol="78" pos="624"/>
          <note pan="0" key="0" len="12" vol="78" pos="660"/>
          <note pan="0" key="61" len="12" vol="78" pos="672"/>
          <note pan="0" key="1" len="12" vol="78" pos="672"/>
          <note pan="0" key="61" len="12" vol="78" pos="684"/>
          <note pan="0" key="61" len="12" vol="78" pos="696"/>
          <note pan="0" key="61" len="12" vol="78" pos="708"/>
          <note pan="0" key="58" len="12" vol="78" pos="720"/>
          <note pan="0" key="0" len="12" vol="78" pos="720"/>
          <note pan="0" key="54" len="12" vol="78" pos="732"/>
          <note pan="0" key="1" len="12" vol="78" pos="732"/>
          <note pan="0" key="56" len="12" vol="78" pos="744"/>
          <note pan="0" key="58" len="12" vol="78" pos="756"/>
          <note pan="0" key="59" len="96" vol="78" pos="768"/>
          <note pan="0" key="0" len="12" vol="78" pos="768"/>
          <note pan="0" key="63" len="48" vol="78" pos="864"/>
          <note pan="0" key="66" len="48" vol="78" pos="912"/>
          <note pan="0" key="66" len="96" vol="78" pos="960"/>
          <note pan="0" key="65" len="12" vol="78" pos="1056"/>
          <note pan="0" key="0" len="12" vol="78" pos="1056"/>
          <note pan="0" key="58" len="12" vol="78" pos="1068"/>
          <note pan="0" key="2" len="12" vol="78" pos="1068"/>
          <note pan="0" key="58" len="12" vol="78" pos="1080"/>
          <note pan="0" key="1" len="12" vol="78" pos="1080"/>
          <note pan="0" key="58" len="12" vol="78" pos="1092"/>
          <note pan="0" key="66" len="12" vol="78" pos="1104"/>
          <note pan="0" key="0" len="12" vol="78" pos="1104"/>
          <note pan="0" key="63" len="12" vol="78" pos="1116"/>
          <note pan="0" key="2" len="12" vol="78" pos="1116"/>
          <note pan="0" key="65" len="12" vol="78" pos="1128"/>
          <note pan="0" key="1" len="12" vol="78" pos="1128"/>
          <note pan="0" key="66" len="12" vol="78" pos="1140"/>
          <note pan="0" key="73" len="48" vol="78" pos="1152"/>
          <note pan="0" key="0" len="12" vol="78" pos="1152"/>
          <note pan="0" key="71" len="12" vol="78" pos="1200"/>
          <note pan="0" key="73" len="12" vol="78" pos="1212"/>
          <note pan="0" key="71" len="48" vol="78" pos="1224"/>
          <note pan="0" key="70" len="12" vol="78" pos="1272"/>
          <note pan="0" key="0" len="12" vol="78" pos="1272"/>
          <note pan="0" key="71" len="12" vol="78" pos="1284"/>
          <note pan="0" key="70" len="12" vol="78" pos="1296"/>
          <note pan="0" key="1" len="12" vol="78" pos="1296"/>
          <note pan="0" key="68" len="12" vol="78" pos="1308"/>
          <note pan="0" key="66" len="12" vol="78" pos="1320"/>
          <note pan="0" key="70" len="12" vol="78" pos="1332"/>
          <note pan="0" key="68" len="72" vol="78" pos="1344"/>
          <note pan="0" key="0" len="12" vol="78" pos="1344"/>
          <note pan="0" key="66" len="12" vol="78" pos="1416"/>
          <note pan="0" key="1" len="12" vol="78" pos="1416"/>
          <note pan="0" key="68" len="12" vol="78" pos="1428"/>
          <note pan="0" key="70" len="12" vol="78" pos="1440"/>
          <note pan="0" key="0" len="12" vol="78" pos="1440"/>
          <note pan="0" key="71" len="12" vol="78" pos="1452"/>
          <note pan="0" key="70" len="12" vol="78" pos="1464"/>
          <note pan="0" key="1" len="12" vol="78" pos="1464"/>
          <note pan="0" key="68" len="12" vol="78" pos="1476"/>
          <note pan="0" key="70" len="12" vol="78" pos="1488"/>
          <note pan="0" key="0" len="12" vol="78" pos="1488"/>
          <note pan="0" key="68" len="12" vol="78" pos="1500"/>
          <note pan="0" key="66" len="12" vol="78" pos="1512"/>
          <note pan="0" key="65" len="12" vol="78" pos="1524"/>
          <note pan="0" key="66" len="48" vol="78" pos="1536"/>
          <note pan="0" key="0" len="12" vol="78" pos="1536"/>
          <note pan="0" key="1" len="12" vol="78" pos="1572"/>
          <note pan="0" key="58" len="12" vol="78" pos="1584"/>
          <note pan="0" key="58" len="12" vol="78" pos="1596"/>
          <note pan="0" key="65" len="48" vol="78" pos="1608"/>
          <note pan="0" key="0" len="12" vol="78" pos="1608"/>
          <note pan="0" key="1" len="12" vol="78" pos="1644"/>
          <note pan="0" key="58" len="12" vol="78" pos="1656"/>
          <note pan="0" key="58" len="12" vol="78" pos="1668"/>
          <note pan="0" key="66" len="24" vol="78" pos="1680"/>
          <note pan="0" key="0" len="12" vol="78" pos="1680"/>
          <note pan="0" key="1" len="12" vol="78" pos="1692"/>
          <note pan="0" key="58" len="12" vol="78" pos="1704"/>
          <note pan="0" key="58" len="12" vol="78" pos="1716"/>
          <note pan="0" key="70" len="144" vol="78" pos="1728"/>
          <note pan="0" key="0" len="12" vol="78" pos="1728"/>
          <note pan="0" key="77" len="48" vol="78" pos="1872"/>
          <note pan="0" key="0" len="12" vol="78" pos="1908"/>
          <note pan="0" key="75" len="12" vol="78" pos="1920"/>
          <note pan="0" key="77" len="12" vol="78" pos="1932"/>
          <note pan="0" key="2" len="12" vol="78" pos="1932"/>
          <note pan="0" key="75" len="216" vol="78" pos="1944"/>
          <note pan="0" key="0" len="12" vol="78" pos="2100"/>
          <note pan="0" key="78" len="48" vol="78" pos="2160"/>
          <note pan="0" key="80" len="24" vol="78" pos="2208"/>
          <note pan="0" key="78" len="12" vol="78" pos="2232"/>
          <note pan="0" key="80" len="12" vol="78" pos="2244"/>
          <note pan="0" key="82" len="24" vol="78" pos="2256"/>
          <note pan="0" key="80" len="12" vol="78" pos="2280"/>
          <note pan="0" key="82" len="12" vol="78" pos="2292"/>
          <note pan="0" key="83" len="72" vol="78" pos="2304"/>
          <note pan="0" key="82" len="72" vol="78" pos="2376"/>
          <note pan="0" key="80" len="48" vol="78" pos="2448"/>
          <note pan="0" key="1" len="12" vol="78" pos="2484"/>
          <note pan="0" key="78" len="12" vol="78" pos="2496"/>
          <note pan="0" key="78" len="12" vol="78" pos="2508"/>
          <note pan="0" key="78" len="12" vol="78" pos="2520"/>
          <note pan="0" key="78" len="12" vol="78" pos="2532"/>
          <note pan="0" key="75" len="12" vol="78" pos="2544"/>
          <note pan="0" key="75" len="12" vol="78" pos="2556"/>
          <note pan="0" key="75" len="12" vol="78" pos="2568"/>
          <note pan="0" key="75" len="12" vol="78" pos="2580"/>
          <note pan="0" key="78" len="12" vol="78" pos="2592"/>
          <note pan="0" key="0" len="12" vol="78" pos="2592"/>
          <note pan="0" key="78" len="12" vol="78" pos="2604"/>
          <note pan="0" key="78" len="12" vol="78" pos="2616"/>
          <note pan="0" key="78" len="12" vol="78" pos="2628"/>
          <note pan="0" key="87" len="48" vol="78" pos="2640"/>
          <note pan="0" key="85" len="192" vol="78" pos="2688"/>
        </pattern>
      </track>
      <track solo="0" mutedBeforeSolo="1" muted="1" name="Orchestra Soundfont 2 COMBO" type="0">
        <instrumenttrack pan="0" basenote="57" pitch="0" usemasterpitch="1" vol="58.4" pitchrange="2" fxch="0">
          <instrument name="sf2player">
            <sf2player chorusLevel="2" patch="52" reverbOn="0" reverbWidth="0.5" gain="5" src="/home/pass/samples/soundfonts/Orchestra Soundfont 2 COMBO.sf2" bank="0" chorusDepth="8" reverbLevel="0.9" reverbDamping="0" reverbRoomSize="0.2" chorusOn="0" chorusNum="3" chorusSpeed="0.3">
              <key/>
            </sf2player>
          </instrument>
          <eldata fcut="14000" fres="0.5" ftype="0" fwet="0">
            <elvol lspd_syncmode="0" amt="0" lshp="0" lpdel="0" att="0" ctlenvamt="0" dec="0.5" userwavefile="" x100="0" rel="0.1" sustain="0.5" lspd_numerator="4" latt="0" lspd="0.1" lamt="0" lspd_denominator="4" hold="0.5" pdel="0"/>
            <elcut lspd_syncmode="0" amt="0" lshp="0" lpdel="0" att="0" ctlenvamt="0" dec="0.5" userwavefile="" x100="0" rel="0.1" sustain="0.5" lspd_numerator="4" latt="0" lspd="0.1" lamt="0" lspd_denominator="4" hold="0.5" pdel="0"/>
            <elres lspd_syncmode="0" amt="0" lshp="0" lpdel="0" att="0" ctlenvamt="0" dec="0.5" userwavefile="" x100="0" rel="0.1" sustain="0.5" lspd_numerator="4" latt="0" lspd="0.1" lamt="0" lspd_denominator="4" hold="0.5" pdel="0"/>
          </eldata>
          <chordcreator chordrange="1" chord-enabled="0" chord="0"/>
          <arpeggiator arprange="1" arpmode="0" arpcycle="0" arptime_syncmode="0" arptime_numerator="4" arpgate="100" arptime="200" arpskip="0" arpmiss="0" arp="0" arptime_denominator="4" arp-enabled="0" arpdir="0"/>
          <midiport inputcontroller="0" outputcontroller="0" readable="0" outputchannel="1" fixedoutputvelocity="-1" outputprogram="1" fixedinputvelocity="-1" fixedoutputnote="-1" inputchannel="0" basevelocity="63" writable="0"/>
          <fxchain enabled="0" numofeffects="0"/>
        </instrumenttrack>
        <pattern steps="16" muted="0" pos="8064" name="" type="1">
          <note pan="0" key="64" len="192" vol="78" pos="0"/>
          <note pan="0" key="61" len="192" vol="78" pos="0"/>
          <note pan="0" key="63" len="192" vol="78" pos="192"/>
          <note pan="0" key="56" len="192" vol="78" pos="192"/>
          <note pan="0" key="64" len="192" vol="78" pos="384"/>
          <note pan="0" key="57" len="192" vol="78" pos="384"/>
          <note pan="0" key="66" len="192" vol="78" pos="576"/>
          <note pan="0" key="59" len="192" vol="78" pos="576"/>
          <note pan="0" key="64" len="192" vol="78" pos="768"/>
          <note pan="0" key="61" len="192" vol="78" pos="768"/>
          <note pan="0" key="66" len="192" vol="78" pos="960"/>
          <note pan="0" key="59" len="192" vol="78" pos="960"/>
          <note pan="0" key="64" len="192" vol="78" pos="1152"/>
          <note pan="0" key="61" len="192" vol="78" pos="1152"/>
          <note pan="0" key="66" len="192" vol="78" pos="1344"/>
          <note pan="0" key="56" len="192" vol="78" pos="1344"/>
          <note pan="0" key="64" len="192" vol="78" pos="1536"/>
          <note pan="0" key="61" len="192" vol="78" pos="1536"/>
          <note pan="0" key="63" len="192" vol="78" pos="1728"/>
          <note pan="0" key="56" len="192" vol="78" pos="1728"/>
          <note pan="0" key="64" len="192" vol="78" pos="1920"/>
          <note pan="0" key="58" len="192" vol="78" pos="1920"/>
          <note pan="0" key="66" len="192" vol="78" pos="2112"/>
          <note pan="0" key="58" len="192" vol="78" pos="2112"/>
          <note pan="0" key="64" len="192" vol="78" pos="2304"/>
          <note pan="0" key="61" len="192" vol="78" pos="2304"/>
          <note pan="0" key="66" len="192" vol="78" pos="2496"/>
          <note pan="0" key="59" len="192" vol="78" pos="2496"/>
          <note pan="0" key="64" len="192" vol="78" pos="2688"/>
          <note pan="0" key="61" len="192" vol="78" pos="2688"/>
          <note pan="0" key="59" len="192" vol="78" pos="2880"/>
          <note pan="0" key="56" len="192" vol="78" pos="2880"/>
        </pattern>
        <pattern steps="16" muted="0" pos="15744" name="" type="1">
          <note pan="0" key="64" len="192" vol="78" pos="0"/>
          <note pan="0" key="61" len="192" vol="78" pos="0"/>
          <note pan="0" key="63" len="192" vol="78" pos="192"/>
          <note pan="0" key="56" len="192" vol="78" pos="192"/>
          <note pan="0" key="64" len="192" vol="78" pos="384"/>
          <note pan="0" key="57" len="192" vol="78" pos="384"/>
          <note pan="0" key="66" len="192" vol="78" pos="576"/>
          <note pan="0" key="59" len="192" vol="78" pos="576"/>
          <note pan="0" key="64" len="192" vol="78" pos="768"/>
          <note pan="0" key="61" len="192" vol="78" pos="768"/>
          <note pan="0" key="66" len="192" vol="78" pos="960"/>
          <note pan="0" key="59" len="192" vol="78" pos="960"/>
          <note pan="0" key="64" len="192" vol="78" pos="1152"/>
          <note pan="0" key="61" len="192" vol="78" pos="1152"/>
          <note pan="0" key="66" len="192" vol="78" pos="1344"/>
          <note pan="0" key="56" len="192" vol="78" pos="1344"/>
          <note pan="0" key="64" len="192" vol="78" pos="1536"/>
          <note pan="0" key="61" len="192" vol="78" pos="1536"/>
          <note pan="0" key="63" len="192" vol="78" pos="1728"/>
          <note pan="0" key="56" len="192" vol="78" pos="1728"/>
          <note pan="0" key="61" len="192" vol="78" pos="1920"/>
          <note pan="0" key="58" len="192" vol="78" pos="1920"/>
          <note pan="0" key="66" len="192" vol="78" pos="2112"/>
          <note pan="0" key="58" len="192" vol="78" pos="2112"/>
          <note pan="0" key="62" len="192" vol="78" pos="2304"/>
          <note pan="0" key="57" len="192" vol="78" pos="2304"/>
          <note pan="0" key="64" len="192" vol="78" pos="2496"/>
          <note pan="0" key="57" len="192" vol="78" pos="2496"/>
          <note pan="0" key="63" len="192" vol="78" pos="2688"/>
          <note pan="0" key="59" len="192" vol="78" pos="2688"/>
          <note pan="0" key="61" len="192" vol="78" pos="6144"/>
          <note pan="0" key="59" len="192" vol="78" pos="6336"/>
          <note pan="0" key="56" len="384" vol="78" pos="6528"/>
          <note pan="0" key="56" len="192" vol="78" pos="6912"/>
          <note pan="0" key="54" len="192" vol="78" pos="7104"/>
          <note pan="0" key="52" len="384" vol="78" pos="7296"/>
        </pattern>
        <pattern steps="16" muted="0" pos="24000" name="" type="1">
          <note pan="0" key="64" len="192" vol="78" pos="0"/>
          <note pan="0" key="61" len="384" vol="78" pos="192"/>
          <note pan="0" key="61" len="384" vol="78" pos="576"/>
        </pattern>
        <pattern steps="16" muted="0" pos="47232" name="" type="1">
          <note pan="0" key="64" len="192" vol="78" pos="0"/>
          <note pan="0" key="61" len="192" vol="78" pos="0"/>
          <note pan="0" key="63" len="192" vol="78" pos="192"/>
          <note pan="0" key="56" len="192" vol="78" pos="192"/>
          <note pan="0" key="64" len="192" vol="78" pos="384"/>
          <note pan="0" key="57" len="192" vol="78" pos="384"/>
          <note pan="0" key="66" len="192" vol="78" pos="576"/>
          <note pan="0" key="59" len="192" vol="78" pos="576"/>
          <note pan="0" key="64" len="192" vol="78" pos="768"/>
          <note pan="0" key="61" len="192" vol="78" pos="768"/>
          <note pan="0" key="66" len="192" vol="78" pos="960"/>
          <note pan="0" key="59" len="192" vol="78" pos="960"/>
          <note pan="0" key="64" len="192" vol="78" pos="1152"/>
          <note pan="0" key="61" len="192" vol="78" pos="1152"/>
          <note pan="0" key="66" len="192" vol="78" pos="1344"/>
          <note pan="0" key="56" len="192" vol="78" pos="1344"/>
          <note pan="0" key="64" len="192" vol="78" pos="1536"/>
          <note pan="0" key="61" len="192" vol="78" pos="1536"/>
          <note pan="0" key="63" len="192" vol="78" pos="1728"/>
          <note pan="0" key="56" len="192" vol="78" pos="1728"/>
          <note pan="0" key="64" len="192" vol="78" pos="1920"/>
          <note pan="0" key="58" len="192" vol="78" pos="1920"/>
          <note pan="0" key="66" len="192" vol="78" pos="2112"/>
          <note pan="0" key="58" len="192" vol="78" pos="2112"/>
          <note pan="0" key="64" len="192" vol="78" pos="2304"/>
          <note pan="0" key="61" len="192" vol="78" pos="2304"/>
          <note pan="0" key="66" len="192" vol="78" pos="2496"/>
          <note pan="0" key="59" len="192" vol="78" pos="2496"/>
          <note pan="0" key="64" len="192" vol="78" pos="2688"/>
          <note pan="0" key="61" len="192" vol="78" pos="2688"/>
          <note pan="0" key="59" len="384" vol="78" pos="3072"/>
          <note pan="0" key="63" len="384" vol="78" pos="3456"/>
          <note pan="0" key="66" len="384" vol="78" pos="3840"/>
          <note pan="0" key="66" len="384" vol="78" pos="4224"/>
          <note pan="0" key="59" len="384" vol="78" pos="4608"/>
          <note pan="0" key="63" len="384" vol="78" pos="4992"/>
          <note pan="0" key="66" len="384" vol="78" pos="5376"/>
          <note pan="0" key="66" len="384" vol="78" pos="5760"/>
          <note pan="0" key="61" len="192" vol="78" pos="6144"/>
          <note pan="0" key="59" len="192" vol="78" pos="6336"/>
          <note pan="0" key="56" len="384" vol="78" pos="6528"/>
          <note pan="0" key="56" len="192" vol="78" pos="6912"/>
          <note pan="0" key="54" len="192" vol="78" pos="7104"/>
          <note pan="0" key="52" len="384" vol="78" pos="7296"/>
        </pattern>
        <pattern steps="16" muted="0" pos="55488" name="" type="1">
          <note pan="0" key="64" len="192" vol="78" pos="0"/>
          <note pan="0" key="61" len="384" vol="78" pos="192"/>
          <note pan="0" key="61" len="384" vol="78" pos="576"/>
          <note pan="0" key="61" len="192" vol="78" pos="960"/>
          <note pan="0" key="59" len="192" vol="78" pos="1152"/>
          <note pan="0" key="56" len="384" vol="78" pos="1344"/>
          <note pan="0" key="56" len="192" vol="78" pos="1728"/>
          <note pan="0" key="54" len="192" vol="78" pos="1920"/>
          <note pan="0" key="52" len="384" vol="78" pos="2112"/>
        </pattern>
        <pattern steps="16" muted="0" pos="58560" name="" type="1">
          <note pan="0" key="64" len="192" vol="78" pos="0"/>
          <note pan="0" key="61" len="384" vol="78" pos="192"/>
          <note pan="0" key="61" len="384" vol="78" pos="576"/>
          <note pan="0" key="68" len="384" vol="78" pos="960"/>
          <note pan="0" key="68" len="384" vol="78" pos="1344"/>
        </pattern>
        <pattern steps="16" muted="0" pos="24960" name="" type="1">
          <note pan="0" key="61" len="192" vol="70" pos="0"/>
          <note pan="0" key="59" len="192" vol="70" pos="192"/>
          <note pan="0" key="56" len="288" vol="70" pos="384"/>
          <note pan="0" key="56" len="96" vol="70" pos="672"/>
          <note pan="0" key="68" len="192" vol="70" pos="768"/>
          <note pan="0" key="66" len="192" vol="70" pos="960"/>
          <note pan="0" key="61" len="384" vol="70" pos="1152"/>
          <note pan="0" key="61" len="192" vol="70" pos="1536"/>
          <note pan="0" key="63" len="192" vol="70" pos="1728"/>
          <note pan="0" key="64" len="192" vol="70" pos="1920"/>
          <note pan="0" key="68" len="96" vol="70" pos="2112"/>
          <note pan="0" key="66" len="96" vol="70" pos="2208"/>
          <note pan="0" key="66" len="192" vol="70" pos="2304"/>
          <note pan="0" key="61" len="144" vol="70" pos="2496"/>
          <note pan="0" key="61" len="24" vol="70" pos="2640"/>
          <note pan="0" key="63" len="24" vol="70" pos="2664"/>
          <note pan="0" key="64" len="192" vol="70" pos="2688"/>
          <note pan="0" key="64" len="96" vol="70" pos="2880"/>
          <note pan="0" key="68" len="96" vol="70" pos="2976"/>
          <note pan="0" key="73" len="384" vol="70" pos="3072"/>
          <note pan="0" key="73" len="384" vol="70" pos="3456"/>
        </pattern>
        <pattern steps="16" muted="0" pos="39744" name="" type="1">
          <note pan="0" key="86" len="24" vol="78" pos="0"/>
          <note pan="0" key="0" len="48" vol="78" pos="0"/>
          <note pan="0" key="81" len="24" vol="78" pos="24"/>
          <note pan="0" key="76" len="24" vol="78" pos="48"/>
          <note pan="0" key="83" len="24" vol="78" pos="72"/>
          <note pan="0" key="85" len="24" vol="78" pos="96"/>
          <note pan="0" key="86" len="24" vol="78" pos="120"/>
          <note pan="0" key="85" len="24" vol="78" pos="144"/>
          <note pan="0" key="83" len="24" vol="78" pos="168"/>
          <note pan="0" key="85" len="12" vol="78" pos="192"/>
          <note pan="0" key="0" len="24" vol="78" pos="192"/>
          <note pan="0" key="81" len="12" vol="78" pos="204"/>
          <note pan="0" key="76" len="12" vol="78" pos="216"/>
          <note pan="0" key="1" len="24" vol="78" pos="216"/>
          <note pan="0" key="73" len="12" vol="78" pos="228"/>
          <note pan="0" key="69" len="12" vol="78" pos="240"/>
          <note pan="0" key="73" len="12" vol="78" pos="252"/>
          <note pan="0" key="81" len="12" vol="78" pos="264"/>
          <note pan="0" key="0" len="24" vol="78" pos="264"/>
          <note pan="0" key="76" len="12" vol="78" pos="276"/>
          <note pan="0" key="73" len="12" vol="78" pos="288"/>
          <note pan="0" key="1" len="24" vol="78" pos="288"/>
          <note pan="0" key="69" len="12" vol="78" pos="300"/>
          <note pan="0" key="73" len="12" vol="78" pos="312"/>
          <note pan="0" key="76" len="12" vol="78" pos="324"/>
          <note pan="0" key="85" len="12" vol="78" pos="336"/>
          <note pan="0" key="0" len="24" vol="78" pos="336"/>
          <note pan="0" key="83" len="12" vol="78" pos="348"/>
          <note pan="0" key="81" len="12" vol="78" pos="360"/>
          <note pan="0" key="1" len="24" vol="78" pos="360"/>
          <note pan="0" key="83" len="12" vol="78" pos="372"/>
          <note pan="0" key="87" len="384" vol="78" pos="384"/>
          <note pan="0" key="0" len="24" vol="78" pos="384"/>
        </pattern>
        <pattern steps="16" muted="0" pos="40512" name="" type="1">
          <note pan="0" key="81" len="24" vol="78" pos="0"/>
          <note pan="0" key="0" len="48" vol="78" pos="0"/>
          <note pan="0" key="76" len="24" vol="78" pos="24"/>
          <note pan="0" key="73" len="24" vol="78" pos="48"/>
          <note pan="0" key="80" len="24" vol="78" pos="72"/>
          <note pan="0" key="81" len="24" vol="78" pos="96"/>
          <note pan="0" key="83" len="24" vol="78" pos="120"/>
          <note pan="0" key="81" len="24" vol="78" pos="144"/>
          <note pan="0" key="80" len="24" vol="78" pos="168"/>
          <note pan="0" key="81" len="12" vol="78" pos="192"/>
          <note pan="0" key="0" len="24" vol="78" pos="192"/>
          <note pan="0" key="76" len="12" vol="78" pos="204"/>
          <note pan="0" key="73" len="12" vol="78" pos="216"/>
          <note pan="0" key="1" len="24" vol="78" pos="216"/>
          <note pan="0" key="69" len="12" vol="78" pos="228"/>
          <note pan="0" key="64" len="12" vol="78" pos="240"/>
          <note pan="0" key="69" len="12" vol="78" pos="252"/>
          <note pan="0" key="76" len="12" vol="78" pos="264"/>
          <note pan="0" key="0" len="24" vol="78" pos="264"/>
          <note pan="0" key="73" len="12" vol="78" pos="276"/>
          <note pan="0" key="69" len="12" vol="78" pos="288"/>
          <note pan="0" key="1" len="24" vol="78" pos="288"/>
          <note pan="0" key="64" len="12" vol="78" pos="300"/>
          <note pan="0" key="69" len="12" vol="78" pos="312"/>
          <note pan="0" key="73" len="12" vol="78" pos="324"/>
          <note pan="0" key="81" len="12" vol="78" pos="336"/>
          <note pan="0" key="0" len="24" vol="78" pos="336"/>
          <note pan="0" key="80" len="12" vol="78" pos="348"/>
          <note pan="0" key="76" len="12" vol="78" pos="360"/>
          <note pan="0" key="1" len="24" vol="78" pos="360"/>
          <note pan="0" key="80" len="12" vol="78" pos="372"/>
          <note pan="0" key="83" len="384" vol="78" pos="384"/>
          <note pan="0" key="0" len="24" vol="78" pos="384"/>
        </pattern>
      </track>
      <track solo="0" mutedBeforeSolo="1" muted="1" name="Mystery Dungeon" type="0">
        <instrumenttrack pan="0" basenote="57" pitch="0" usemasterpitch="1" vol="192" pitchrange="2" fxch="0">
          <instrument name="sf2player">
            <sf2player chorusLevel="2" patch="1" reverbOn="0" reverbWidth="0.5" gain="1" src="/home/pass/samples/soundfonts/Mystery Dungeon.sf2" bank="0" chorusDepth="8" reverbLevel="0.9" reverbDamping="0" reverbRoomSize="0.2" chorusOn="0" chorusNum="3" chorusSpeed="0.3">
              <key/>
            </sf2player>
          </instrument>
          <eldata fcut="14000" fres="0.5" ftype="0" fwet="0">
            <elvol lspd_syncmode="0" amt="0" lshp="0" lpdel="0" att="0" ctlenvamt="0" dec="0.5" userwavefile="" x100="0" rel="0.1" sustain="0.5" lspd_numerator="4" latt="0" lspd="0.1" lamt="0" lspd_denominator="4" hold="0.5" pdel="0"/>
            <elcut lspd_syncmode="0" amt="0" lshp="0" lpdel="0" att="0" ctlenvamt="0" dec="0.5" userwavefile="" x100="0" rel="0.1" sustain="0.5" lspd_numerator="4" latt="0" lspd="0.1" lamt="0" lspd_denominator="4" hold="0.5" pdel="0"/>
            <elres lspd_syncmode="0" amt="0" lshp="0" lpdel="0" att="0" ctlenvamt="0" dec="0.5" userwavefile="" x100="0" rel="0.1" sustain="0.5" lspd_numerator="4" latt="0" lspd="0.1" lamt="0" lspd_denominator="4" hold="0.5" pdel="0"/>
          </eldata>
          <chordcreator chordrange="1" chord-enabled="0" chord="0"/>
          <arpeggiator arprange="1" arpmode="0" arpcycle="0" arptime_syncmode="0" arptime_numerator="4" arpgate="100" arptime="200" arpskip="0" arpmiss="0" arp="0" arptime_denominator="4" arp-enabled="0" arpdir="0"/>
          <midiport inputcontroller="0" outputcontroller="0" readable="0" outputchannel="1" fixedoutputvelocity="-1" outputprogram="1" fixedinputvelocity="-1" fixedoutputnote="-1" inputchannel="0" basevelocity="63" writable="0"/>
          <fxchain enabled="0" numofeffects="0"/>
        </instrumenttrack>
        <pattern steps="16" muted="0" pos="4992" name="Sf2 Player" type="1">
          <note pan="0" key="61" len="24" vol="78" pos="0"/>
          <note pan="0" key="49" len="24" vol="78" pos="0"/>
          <note pan="0" key="63" len="24" vol="78" pos="24"/>
          <note pan="0" key="51" len="24" vol="78" pos="24"/>
          <note pan="0" key="61" len="24" vol="78" pos="48"/>
          <note pan="0" key="49" len="24" vol="78" pos="48"/>
          <note pan="0" key="68" len="48" vol="78" pos="72"/>
          <note pan="0" key="56" len="48" vol="78" pos="72"/>
          <note pan="0" key="61" len="24" vol="78" pos="120"/>
          <note pan="0" key="49" len="24" vol="78" pos="120"/>
          <note pan="0" key="64" len="24" vol="78" pos="144"/>
          <note pan="0" key="52" len="24" vol="78" pos="144"/>
          <note pan="0" key="68" len="24" vol="78" pos="168"/>
          <note pan="0" key="56" len="24" vol="78" pos="168"/>
          <note pan="0" key="71" len="24" vol="78" pos="192"/>
          <note pan="0" key="59" len="24" vol="78" pos="192"/>
          <note pan="0" key="69" len="24" vol="78" pos="216"/>
          <note pan="0" key="57" len="24" vol="78" pos="216"/>
          <note pan="0" key="68" len="24" vol="78" pos="240"/>
          <note pan="0" key="56" len="24" vol="78" pos="240"/>
          <note pan="0" key="69" len="48" vol="78" pos="264"/>
          <note pan="0" key="57" len="48" vol="78" pos="264"/>
          <note pan="0" key="68" len="24" vol="78" pos="312"/>
          <note pan="0" key="56" len="24" vol="78" pos="312"/>
          <note pan="0" key="66" len="24" vol="78" pos="336"/>
          <note pan="0" key="54" len="24" vol="78" pos="336"/>
          <note pan="0" key="68" len="24" vol="78" pos="360"/>
          <note pan="0" key="56" len="24" vol="78" pos="360"/>
          <note pan="0" key="63" len="96" vol="78" pos="384"/>
          <note pan="0" key="51" len="96" vol="78" pos="384"/>
        </pattern>
        <pattern steps="16" muted="0" pos="5760" name="Sf2 Player" type="1">
          <note pan="0" key="61" len="24" vol="78" pos="0"/>
          <note pan="0" key="49" len="24" vol="78" pos="0"/>
          <note pan="0" key="63" len="24" vol="78" pos="24"/>
          <note pan="0" key="51" len="24" vol="78" pos="24"/>
          <note pan="0" key="61" len="24" vol="78" pos="48"/>
          <note pan="0" key="49" len="24" vol="78" pos="48"/>
          <note pan="0" key="68" len="48" vol="78" pos="72"/>
          <note pan="0" key="56" len="48" vol="78" pos="72"/>
          <note pan="0" key="61" len="24" vol="78" pos="120"/>
          <note pan="0" key="49" len="24" vol="78" pos="120"/>
          <note pan="0" key="64" len="24" vol="78" pos="144"/>
          <note pan="0" key="52" len="24" vol="78" pos="144"/>
          <note pan="0" key="68" len="24" vol="78" pos="168"/>
          <note pan="0" key="56" len="24" vol="78" pos="168"/>
          <note pan="0" key="71" len="24" vol="78" pos="192"/>
          <note pan="0" key="59" len="24" vol="78" pos="192"/>
          <note pan="0" key="73" len="24" vol="78" pos="216"/>
          <note pan="0" key="61" len="24" vol="78" pos="216"/>
          <note pan="0" key="75" len="24" vol="78" pos="240"/>
          <note pan="0" key="63" len="24" vol="78" pos="240"/>
          <note pan="0" key="73" len="48" vol="78" pos="264"/>
          <note pan="0" key="61" len="48" vol="78" pos="264"/>
          <note pan="0" key="75" len="24" vol="78" pos="312"/>
          <note pan="0" key="63" len="24" vol="78" pos="312"/>
          <note pan="0" key="76" len="24" vol="78" pos="336"/>
          <note pan="0" key="64" len="24" vol="78" pos="336"/>
          <note pan="0" key="78" len="24" vol="78" pos="360"/>
          <note pan="0" key="66" len="24" vol="78" pos="360"/>
          <note pan="0" key="75" len="96" vol="78" pos="384"/>
          <note pan="0" key="63" len="96" vol="78" pos="384"/>
        </pattern>
        <pattern steps="16" muted="0" pos="7104" name="Sf2 Player" type="1">
          <note pan="0" key="68" len="48" vol="78" pos="96"/>
          <note pan="0" key="56" len="48" vol="78" pos="96"/>
          <note pan="0" key="71" len="48" vol="78" pos="144"/>
          <note pan="0" key="59" len="48" vol="78" pos="144"/>
          <note pan="0" key="73" len="96" vol="78" pos="192"/>
          <note pan="0" key="61" len="96" vol="78" pos="192"/>
          <note pan="0" key="73" len="24" vol="78" pos="288"/>
          <note pan="0" key="61" len="24" vol="78" pos="288"/>
          <note pan="0" key="68" len="24" vol="78" pos="312"/>
          <note pan="0" key="56" len="24" vol="78" pos="312"/>
          <note pan="0" key="73" len="24" vol="78" pos="336"/>
          <note pan="0" key="61" len="24" vol="78" pos="336"/>
          <note pan="0" key="80" len="168" vol="78" pos="360"/>
          <note pan="0" key="68" len="168" vol="78" pos="360"/>
          <note pan="0" key="80" len="24" vol="78" pos="528"/>
          <note pan="0" key="68" len="24" vol="78" pos="528"/>
          <note pan="0" key="78" len="24" vol="78" pos="552"/>
          <note pan="0" key="66" len="24" vol="78" pos="552"/>
          <note pan="0" key="77" len="48" vol="78" pos="576"/>
          <note pan="0" key="65" len="48" vol="78" pos="576"/>
          <note pan="0" key="73" len="48" vol="78" pos="624"/>
          <note pan="0" key="61" len="48" vol="78" pos="624"/>
          <note pan="0" key="70" len="48" vol="78" pos="672"/>
          <note pan="0" key="58" len="48" vol="78" pos="672"/>
          <note pan="0" key="66" len="48" vol="78" pos="720"/>
          <note pan="0" key="54" len="48" vol="78" pos="720"/>
          <note pan="0" key="69" len="96" vol="78" pos="768"/>
          <note pan="0" key="57" len="96" vol="78" pos="768"/>
          <note pan="0" key="68" len="96" vol="78" pos="864"/>
          <note pan="0" key="56" len="96" vol="78" pos="864"/>
          <note pan="0" key="61" len="144" vol="78" pos="960"/>
          <note pan="0" key="49" len="144" vol="78" pos="960"/>
          <note pan="0" key="64" len="48" vol="78" pos="1104"/>
          <note pan="0" key="52" len="48" vol="78" pos="1104"/>
          <note pan="0" key="63" len="144" vol="78" pos="1152"/>
          <note pan="0" key="51" len="144" vol="78" pos="1152"/>
          <note pan="0" key="68" len="48" vol="78" pos="1296"/>
          <note pan="0" key="56" len="48" vol="78" pos="1296"/>
          <note pan="0" key="68" len="144" vol="78" pos="1344"/>
          <note pan="0" key="56" len="144" vol="78" pos="1344"/>
          <note pan="0" key="66" len="24" vol="78" pos="1488"/>
          <note pan="0" key="54" len="24" vol="78" pos="1488"/>
          <note pan="0" key="64" len="24" vol="78" pos="1512"/>
          <note pan="0" key="52" len="24" vol="78" pos="1512"/>
          <note pan="0" key="63" len="48" vol="78" pos="1536"/>
          <note pan="0" key="51" len="48" vol="78" pos="1536"/>
          <note pan="0" key="64" len="48" vol="78" pos="1584"/>
          <note pan="0" key="52" len="48" vol="78" pos="1584"/>
          <note pan="0" key="59" len="48" vol="78" pos="1632"/>
          <note pan="0" key="47" len="48" vol="78" pos="1632"/>
          <note pan="0" key="56" len="48" vol="78" pos="1680"/>
          <note pan="0" key="44" len="48" vol="78" pos="1680"/>
          <note pan="0" key="57" len="96" vol="78" pos="1728"/>
          <note pan="0" key="45" len="96" vol="78" pos="1728"/>
          <note pan="0" key="61" len="48" vol="78" pos="1824"/>
          <note pan="0" key="49" len="48" vol="78" pos="1824"/>
          <note pan="0" key="64" len="48" vol="78" pos="1872"/>
          <note pan="0" key="52" len="48" vol="78" pos="1872"/>
          <note pan="0" key="64" len="96" vol="78" pos="1920"/>
          <note pan="0" key="52" len="96" vol="78" pos="1920"/>
          <note pan="0" key="63" len="48" vol="78" pos="2016"/>
          <note pan="0" key="51" len="48" vol="78" pos="2016"/>
          <note pan="0" key="64" len="48" vol="78" pos="2064"/>
          <note pan="0" key="52" len="48" vol="78" pos="2064"/>
          <note pan="0" key="71" len="72" vol="78" pos="2112"/>
          <note pan="0" key="59" len="72" vol="78" pos="2112"/>
          <note pan="0" key="69" len="72" vol="78" pos="2184"/>
          <note pan="0" key="57" len="72" vol="78" pos="2184"/>
          <note pan="0" key="68" len="48" vol="78" pos="2256"/>
          <note pan="0" key="56" len="48" vol="78" pos="2256"/>
          <note pan="0" key="66" len="192" vol="78" pos="2304"/>
          <note pan="0" key="54" len="192" vol="78" pos="2304"/>
          <note pan="0" key="64" len="72" vol="78" pos="2496"/>
          <note pan="0" key="52" len="72" vol="78" pos="2496"/>
          <note pan="0" key="63" len="72" vol="78" pos="2568"/>
          <note pan="0" key="51" len="72" vol="78" pos="2568"/>
          <note pan="0" key="64" len="48" vol="78" pos="2640"/>
          <note pan="0" key="52" len="48" vol="78" pos="2640"/>
          <note pan="0" key="68" len="144" vol="78" pos="2688"/>
          <note pan="0" key="56" len="144" vol="78" pos="2688"/>
          <note pan="0" key="63" len="48" vol="78" pos="2832"/>
          <note pan="0" key="51" len="48" vol="78" pos="2832"/>
          <note pan="0" key="61" len="240" vol="78" pos="2880"/>
          <note pan="0" key="49" len="240" vol="78" pos="2880"/>
          <note pan="0" key="64" len="48" vol="78" pos="3120"/>
          <note pan="0" key="52" len="48" vol="78" pos="3120"/>
          <note pan="0" key="66" len="48" vol="78" pos="3168"/>
          <note pan="0" key="54" len="48" vol="78" pos="3168"/>
          <note pan="0" key="68" len="48" vol="78" pos="3216"/>
          <note pan="0" key="56" len="48" vol="78" pos="3216"/>
          <note pan="0" key="69" len="72" vol="78" pos="3264"/>
          <note pan="0" key="57" len="72" vol="78" pos="3264"/>
          <note pan="0" key="68" len="72" vol="78" pos="3336"/>
          <note pan="0" key="56" len="72" vol="78" pos="3336"/>
          <note pan="0" key="66" len="48" vol="78" pos="3408"/>
          <note pan="0" key="54" len="48" vol="78" pos="3408"/>
          <note pan="0" key="64" len="48" vol="78" pos="3456"/>
          <note pan="0" key="52" len="48" vol="78" pos="3456"/>
          <note pan="0" key="61" len="48" vol="78" pos="3504"/>
          <note pan="0" key="49" len="48" vol="78" pos="3504"/>
          <note pan="0" key="64" len="48" vol="78" pos="3552"/>
          <note pan="0" key="52" len="48" vol="78" pos="3552"/>
          <note pan="0" key="68" len="48" vol="78" pos="3600"/>
          <note pan="0" key="56" len="48" vol="78" pos="3600"/>
          <note pan="0" key="66" len="192" vol="78" pos="3648"/>
          <note pan="0" key="54" len="192" vol="78" pos="3648"/>
          <note pan="0" key="63" len="96" vol="78" pos="3840"/>
          <note pan="0" key="51" len="96" vol="78" pos="3840"/>
          <note pan="0" key="59" len="96" vol="78" pos="3936"/>
          <note pan="0" key="47" len="96" vol="78" pos="3936"/>
          <note pan="0" key="61" len="384" vol="78" pos="4032"/>
          <note pan="0" key="49" len="384" vol="78" pos="4032"/>
        </pattern>
        <pattern steps="16" muted="0" pos="12672" name="Sf2 Player" type="1">
          <note pan="0" key="49" len="24" vol="78" pos="0"/>
          <note pan="0" key="51" len="24" vol="78" pos="24"/>
          <note pan="0" key="49" len="24" vol="78" pos="48"/>
          <note pan="0" key="56" len="48" vol="78" pos="72"/>
          <note pan="0" key="49" len="24" vol="78" pos="120"/>
          <note pan="0" key="52" len="24" vol="78" pos="144"/>
          <note pan="0" key="56" len="24" vol="78" pos="168"/>
          <note pan="0" key="59" len="24" vol="78" pos="192"/>
          <note pan="0" key="57" len="24" vol="78" pos="216"/>
          <note pan="0" key="56" len="24" vol="78" pos="240"/>
          <note pan="0" key="57" len="48" vol="78" pos="264"/>
          <note pan="0" key="56" len="24" vol="78" pos="312"/>
          <note pan="0" key="54" len="24" vol="78" pos="336"/>
          <note pan="0" key="56" len="24" vol="78" pos="360"/>
          <note pan="0" key="51" len="96" vol="78" pos="384"/>
        </pattern>
        <pattern steps="16" muted="0" pos="13440" name="Sf2 Player" type="1">
          <note pan="0" key="49" len="24" vol="78" pos="0"/>
          <note pan="0" key="51" len="24" vol="78" pos="24"/>
          <note pan="0" key="49" len="24" vol="78" pos="48"/>
          <note pan="0" key="56" len="48" vol="78" pos="72"/>
          <note pan="0" key="49" len="24" vol="78" pos="120"/>
          <note pan="0" key="52" len="24" vol="78" pos="144"/>
          <note pan="0" key="56" len="24" vol="78" pos="168"/>
          <note pan="0" key="59" len="24" vol="78" pos="192"/>
          <note pan="0" key="61" len="24" vol="78" pos="216"/>
          <note pan="0" key="63" len="24" vol="78" pos="240"/>
          <note pan="0" key="61" len="48" vol="78" pos="264"/>
          <note pan="0" key="63" len="24" vol="78" pos="312"/>
          <note pan="0" key="64" len="24" vol="78" pos="336"/>
          <note pan="0" key="66" len="24" vol="78" pos="360"/>
          <note pan="0" key="63" len="96" vol="78" pos="384"/>
        </pattern>
        <pattern steps="16" muted="0" pos="14784" name="Sf2 Player" type="1">
          <note pan="0" key="68" len="48" vol="78" pos="96"/>
          <note pan="0" key="56" len="48" vol="78" pos="96"/>
          <note pan="0" key="71" len="48" vol="78" pos="144"/>
          <note pan="0" key="59" len="48" vol="78" pos="144"/>
          <note pan="0" key="73" len="96" vol="78" pos="192"/>
          <note pan="0" key="61" len="96" vol="78" pos="192"/>
          <note pan="0" key="73" len="24" vol="78" pos="288"/>
          <note pan="0" key="61" len="24" vol="78" pos="288"/>
          <note pan="0" key="68" len="24" vol="78" pos="312"/>
          <note pan="0" key="56" len="24" vol="78" pos="312"/>
          <note pan="0" key="73" len="24" vol="78" pos="336"/>
          <note pan="0" key="61" len="24" vol="78" pos="336"/>
          <note pan="0" key="80" len="168" vol="78" pos="360"/>
          <note pan="0" key="68" len="168" vol="78" pos="360"/>
          <note pan="0" key="80" len="24" vol="78" pos="528"/>
          <note pan="0" key="68" len="24" vol="78" pos="528"/>
          <note pan="0" key="78" len="24" vol="78" pos="552"/>
          <note pan="0" key="66" len="24" vol="78" pos="552"/>
          <note pan="0" key="77" len="48" vol="78" pos="576"/>
          <note pan="0" key="65" len="48" vol="78" pos="576"/>
          <note pan="0" key="73" len="48" vol="78" pos="624"/>
          <note pan="0" key="61" len="48" vol="78" pos="624"/>
          <note pan="0" key="70" len="48" vol="78" pos="672"/>
          <note pan="0" key="58" len="48" vol="78" pos="672"/>
          <note pan="0" key="66" len="48" vol="78" pos="720"/>
          <note pan="0" key="54" len="48" vol="78" pos="720"/>
          <note pan="0" key="69" len="96" vol="78" pos="768"/>
          <note pan="0" key="57" len="96" vol="78" pos="768"/>
          <note pan="0" key="68" len="96" vol="78" pos="864"/>
          <note pan="0" key="56" len="96" vol="78" pos="864"/>
          <note pan="0" key="61" len="144" vol="78" pos="960"/>
          <note pan="0" key="49" len="144" vol="78" pos="960"/>
          <note pan="0" key="64" len="48" vol="78" pos="1104"/>
          <note pan="0" key="52" len="48" vol="78" pos="1104"/>
          <note pan="0" key="63" len="144" vol="78" pos="1152"/>
          <note pan="0" key="51" len="144" vol="78" pos="1152"/>
          <note pan="0" key="68" len="48" vol="78" pos="1296"/>
          <note pan="0" key="56" len="48" vol="78" pos="1296"/>
          <note pan="0" key="68" len="144" vol="78" pos="1344"/>
          <note pan="0" key="56" len="144" vol="78" pos="1344"/>
          <note pan="0" key="66" len="24" vol="78" pos="1488"/>
          <note pan="0" key="54" len="24" vol="78" pos="1488"/>
          <note pan="0" key="64" len="24" vol="78" pos="1512"/>
          <note pan="0" key="52" len="24" vol="78" pos="1512"/>
          <note pan="0" key="63" len="48" vol="78" pos="1536"/>
          <note pan="0" key="51" len="48" vol="78" pos="1536"/>
          <note pan="0" key="64" len="48" vol="78" pos="1584"/>
          <note pan="0" key="52" len="48" vol="78" pos="1584"/>
          <note pan="0" key="59" len="48" vol="78" pos="1632"/>
          <note pan="0" key="47" len="48" vol="78" pos="1632"/>
          <note pan="0" key="56" len="48" vol="78" pos="1680"/>
          <note pan="0" key="44" len="48" vol="78" pos="1680"/>
          <note pan="0" key="57" len="96" vol="78" pos="1728"/>
          <note pan="0" key="45" len="96" vol="78" pos="1728"/>
          <note pan="0" key="61" len="48" vol="78" pos="1824"/>
          <note pan="0" key="49" len="48" vol="78" pos="1824"/>
          <note pan="0" key="64" len="48" vol="78" pos="1872"/>
          <note pan="0" key="52" len="48" vol="78" pos="1872"/>
          <note pan="0" key="64" len="96" vol="78" pos="1920"/>
          <note pan="0" key="52" len="96" vol="78" pos="1920"/>
          <note pan="0" key="63" len="48" vol="78" pos="2016"/>
          <note pan="0" key="51" len="48" vol="78" pos="2016"/>
          <note pan="0" key="64" len="48" vol="78" pos="2064"/>
          <note pan="0" key="52" len="48" vol="78" pos="2064"/>
          <note pan="0" key="71" len="72" vol="78" pos="2112"/>
          <note pan="0" key="59" len="72" vol="78" pos="2112"/>
          <note pan="0" key="69" len="72" vol="78" pos="2184"/>
          <note pan="0" key="57" len="72" vol="78" pos="2184"/>
          <note pan="0" key="68" len="48" vol="78" pos="2256"/>
          <note pan="0" key="56" len="48" vol="78" pos="2256"/>
          <note pan="0" key="66" len="192" vol="78" pos="2304"/>
          <note pan="0" key="54" len="192" vol="78" pos="2304"/>
          <note pan="0" key="64" len="72" vol="78" pos="2496"/>
          <note pan="0" key="52" len="72" vol="78" pos="2496"/>
          <note pan="0" key="63" len="72" vol="78" pos="2568"/>
          <note pan="0" key="51" len="72" vol="78" pos="2568"/>
          <note pan="0" key="64" len="48" vol="78" pos="2640"/>
          <note pan="0" key="52" len="48" vol="78" pos="2640"/>
          <note pan="0" key="68" len="144" vol="78" pos="2688"/>
          <note pan="0" key="56" len="144" vol="78" pos="2688"/>
          <note pan="0" key="63" len="48" vol="78" pos="2832"/>
          <note pan="0" key="51" len="48" vol="78" pos="2832"/>
          <note pan="0" key="61" len="240" vol="78" pos="2880"/>
          <note pan="0" key="49" len="240" vol="78" pos="2880"/>
          <note pan="0" key="64" len="48" vol="78" pos="3120"/>
          <note pan="0" key="52" len="48" vol="78" pos="3120"/>
          <note pan="0" key="66" len="48" vol="78" pos="3168"/>
          <note pan="0" key="54" len="48" vol="78" pos="3168"/>
          <note pan="0" key="68" len="48" vol="78" pos="3216"/>
          <note pan="0" key="56" len="48" vol="78" pos="3216"/>
          <note pan="0" key="69" len="72" vol="78" pos="3264"/>
          <note pan="0" key="57" len="72" vol="78" pos="3264"/>
          <note pan="0" key="68" len="72" vol="78" pos="3336"/>
          <note pan="0" key="56" len="72" vol="78" pos="3336"/>
          <note pan="0" key="66" len="48" vol="78" pos="3408"/>
          <note pan="0" key="54" len="48" vol="78" pos="3408"/>
          <note pan="0" key="64" len="48" vol="78" pos="3456"/>
          <note pan="0" key="52" len="48" vol="78" pos="3456"/>
          <note pan="0" key="61" len="48" vol="78" pos="3504"/>
          <note pan="0" key="49" len="48" vol="78" pos="3504"/>
          <note pan="0" key="64" len="48" vol="78" pos="3552"/>
          <note pan="0" key="52" len="48" vol="78" pos="3552"/>
          <note pan="0" key="68" len="48" vol="78" pos="3600"/>
          <note pan="0" key="56" len="48" vol="78" pos="3600"/>
          <note pan="0" key="66" len="192" vol="78" pos="3648"/>
          <note pan="0" key="54" len="192" vol="78" pos="3648"/>
          <note pan="0" key="63" len="24" vol="78" pos="3840"/>
          <note pan="0" key="51" len="24" vol="78" pos="3840"/>
          <note pan="0" key="63" len="24" vol="78" pos="3864"/>
          <note pan="0" key="51" len="24" vol="78" pos="3864"/>
          <note pan="0" key="71" len="24" vol="78" pos="3936"/>
          <note pan="0" key="59" len="24" vol="78" pos="3936"/>
          <note pan="0" key="71" len="24" vol="78" pos="3960"/>
          <note pan="0" key="59" len="24" vol="78" pos="3960"/>
          <note pan="0" key="73" len="336" vol="78" pos="4032"/>
          <note pan="0" key="61" len="336" vol="78" pos="4032"/>
          <note pan="0" key="64" len="48" vol="78" pos="4368"/>
          <note pan="0" key="52" len="48" vol="78" pos="4368"/>
          <note pan="0" key="63" len="288" vol="78" pos="4416"/>
          <note pan="0" key="51" len="288" vol="78" pos="4416"/>
          <note pan="0" key="56" len="48" vol="78" pos="4704"/>
          <note pan="0" key="44" len="48" vol="78" pos="4704"/>
          <note pan="0" key="59" len="48" vol="78" pos="4752"/>
          <note pan="0" key="47" len="48" vol="78" pos="4752"/>
          <note pan="0" key="61" len="240" vol="78" pos="4800"/>
          <note pan="0" key="49" len="240" vol="78" pos="4800"/>
          <note pan="0" key="59" len="48" vol="78" pos="5040"/>
          <note pan="0" key="47" len="48" vol="78" pos="5040"/>
          <note pan="0" key="61" len="48" vol="78" pos="5088"/>
          <note pan="0" key="49" len="48" vol="78" pos="5088"/>
          <note pan="0" key="68" len="48" vol="78" pos="5136"/>
          <note pan="0" key="56" len="48" vol="78" pos="5136"/>
          <note pan="0" key="66" len="192" vol="78" pos="5184"/>
          <note pan="0" key="54" len="192" vol="78" pos="5184"/>
          <note pan="0" key="69" len="48" vol="78" pos="5376"/>
          <note pan="0" key="57" len="48" vol="78" pos="5376"/>
          <note pan="0" key="68" len="24" vol="78" pos="5424"/>
          <note pan="0" key="56" len="24" vol="78" pos="5424"/>
          <note pan="0" key="68" len="12" vol="78" pos="5448"/>
          <note pan="0" key="56" len="12" vol="78" pos="5448"/>
          <note pan="0" key="69" len="12" vol="78" pos="5456"/>
          <note pan="0" key="57" len="12" vol="78" pos="5456"/>
          <note pan="0" key="68" len="12" vol="78" pos="5464"/>
          <note pan="0" key="56" len="12" vol="78" pos="5464"/>
          <note pan="0" key="66" len="48" vol="78" pos="5472"/>
          <note pan="0" key="54" len="48" vol="78" pos="5472"/>
          <note pan="0" key="68" len="48" vol="78" pos="5520"/>
          <note pan="0" key="56" len="48" vol="78" pos="5520"/>
          <note pan="0" key="64" len="240" vol="78" pos="5568"/>
          <note pan="0" key="52" len="240" vol="78" pos="5568"/>
          <note pan="0" key="61" len="48" vol="78" pos="5808"/>
          <note pan="0" key="49" len="48" vol="78" pos="5808"/>
          <note pan="0" key="64" len="48" vol="78" pos="5856"/>
          <note pan="0" key="52" len="48" vol="78" pos="5856"/>
          <note pan="0" key="68" len="48" vol="78" pos="5904"/>
          <note pan="0" key="56" len="48" vol="78" pos="5904"/>
          <note pan="0" key="68" len="192" vol="78" pos="5952"/>
          <note pan="0" key="56" len="192" vol="78" pos="5952"/>
          <note pan="0" key="66" len="144" vol="78" pos="6144"/>
          <note pan="0" key="54" len="144" vol="78" pos="6144"/>
          <note pan="0" key="68" len="48" vol="78" pos="6288"/>
          <note pan="0" key="56" len="48" vol="78" pos="6288"/>
          <note pan="0" key="61" len="240" vol="78" pos="6336"/>
          <note pan="0" key="49" len="240" vol="78" pos="6336"/>
          <note pan="0" key="56" len="48" vol="78" pos="6576"/>
          <note pan="0" key="44" len="48" vol="78" pos="6576"/>
          <note pan="0" key="61" len="48" vol="78" pos="6624"/>
          <note pan="0" key="49" len="48" vol="78" pos="6624"/>
          <note pan="0" key="68" len="48" vol="78" pos="6672"/>
          <note pan="0" key="56" len="48" vol="78" pos="6672"/>
          <note pan="0" key="73" len="192" vol="78" pos="6720"/>
          <note pan="0" key="61" len="192" vol="78" pos="6720"/>
          <note pan="0" key="72" len="192" vol="78" pos="6912"/>
          <note pan="0" key="60" len="192" vol="78" pos="6912"/>
        </pattern>
        <pattern steps="16" muted="0" pos="36480" name="Sf2 Player" type="1">
          <note pan="0" key="61" len="24" vol="78" pos="0"/>
          <note pan="0" key="49" len="24" vol="78" pos="0"/>
          <note pan="0" key="63" len="24" vol="78" pos="24"/>
          <note pan="0" key="51" len="24" vol="78" pos="24"/>
          <note pan="0" key="61" len="24" vol="78" pos="48"/>
          <note pan="0" key="49" len="24" vol="78" pos="48"/>
          <note pan="0" key="68" len="48" vol="78" pos="72"/>
          <note pan="0" key="56" len="48" vol="78" pos="72"/>
          <note pan="0" key="61" len="24" vol="78" pos="120"/>
          <note pan="0" key="49" len="24" vol="78" pos="120"/>
          <note pan="0" key="64" len="24" vol="78" pos="144"/>
          <note pan="0" key="52" len="24" vol="78" pos="144"/>
          <note pan="0" key="68" len="24" vol="78" pos="168"/>
          <note pan="0" key="56" len="24" vol="78" pos="168"/>
          <note pan="0" key="71" len="24" vol="78" pos="192"/>
          <note pan="0" key="59" len="24" vol="78" pos="192"/>
          <note pan="0" key="69" len="24" vol="78" pos="216"/>
          <note pan="0" key="57" len="24" vol="78" pos="216"/>
          <note pan="0" key="68" len="24" vol="78" pos="240"/>
          <note pan="0" key="56" len="24" vol="78" pos="240"/>
          <note pan="0" key="69" len="48" vol="78" pos="264"/>
          <note pan="0" key="57" len="48" vol="78" pos="264"/>
          <note pan="0" key="68" len="24" vol="78" pos="312"/>
          <note pan="0" key="56" len="24" vol="78" pos="312"/>
          <note pan="0" key="66" len="24" vol="78" pos="336"/>
          <note pan="0" key="54" len="24" vol="78" pos="336"/>
          <note pan="0" key="68" len="24" vol="78" pos="360"/>
          <note pan="0" key="56" len="24" vol="78" pos="360"/>
          <note pan="0" key="63" len="96" vol="78" pos="384"/>
          <note pan="0" key="51" len="96" vol="78" pos="384"/>
        </pattern>
        <pattern steps="16" muted="0" pos="37248" name="Sf2 Player" type="1">
          <note pan="0" key="61" len="24" vol="78" pos="0"/>
          <note pan="0" key="49" len="24" vol="78" pos="0"/>
          <note pan="0" key="63" len="24" vol="78" pos="24"/>
          <note pan="0" key="51" len="24" vol="78" pos="24"/>
          <note pan="0" key="61" len="24" vol="78" pos="48"/>
          <note pan="0" key="49" len="24" vol="78" pos="48"/>
          <note pan="0" key="68" len="48" vol="78" pos="72"/>
          <note pan="0" key="56" len="48" vol="78" pos="72"/>
          <note pan="0" key="61" len="24" vol="78" pos="120"/>
          <note pan="0" key="49" len="24" vol="78" pos="120"/>
          <note pan="0" key="64" len="24" vol="78" pos="144"/>
          <note pan="0" key="52" len="24" vol="78" pos="144"/>
          <note pan="0" key="68" len="24" vol="78" pos="168"/>
          <note pan="0" key="56" len="24" vol="78" pos="168"/>
          <note pan="0" key="71" len="24" vol="78" pos="192"/>
          <note pan="0" key="59" len="24" vol="78" pos="192"/>
          <note pan="0" key="73" len="24" vol="78" pos="216"/>
          <note pan="0" key="61" len="24" vol="78" pos="216"/>
          <note pan="0" key="75" len="24" vol="78" pos="240"/>
          <note pan="0" key="63" len="24" vol="78" pos="240"/>
          <note pan="0" key="73" len="48" vol="78" pos="264"/>
          <note pan="0" key="61" len="48" vol="78" pos="264"/>
          <note pan="0" key="75" len="24" vol="78" pos="312"/>
          <note pan="0" key="63" len="24" vol="78" pos="312"/>
          <note pan="0" key="76" len="24" vol="78" pos="336"/>
          <note pan="0" key="64" len="24" vol="78" pos="336"/>
          <note pan="0" key="78" len="24" vol="78" pos="360"/>
          <note pan="0" key="66" len="24" vol="78" pos="360"/>
          <note pan="0" key="75" len="96" vol="78" pos="384"/>
          <note pan="0" key="63" len="96" vol="78" pos="384"/>
        </pattern>
        <pattern steps="16" muted="0" pos="38592" name="Sf2 Player" type="1">
          <note pan="0" key="68" len="48" vol="78" pos="96"/>
          <note pan="0" key="56" len="48" vol="78" pos="96"/>
          <note pan="0" key="71" len="48" vol="78" pos="144"/>
          <note pan="0" key="59" len="48" vol="78" pos="144"/>
          <note pan="0" key="73" len="96" vol="78" pos="192"/>
          <note pan="0" key="61" len="96" vol="78" pos="192"/>
          <note pan="0" key="73" len="24" vol="78" pos="288"/>
          <note pan="0" key="61" len="24" vol="78" pos="288"/>
          <note pan="0" key="68" len="24" vol="78" pos="312"/>
          <note pan="0" key="56" len="24" vol="78" pos="312"/>
          <note pan="0" key="73" len="24" vol="78" pos="336"/>
          <note pan="0" key="61" len="24" vol="78" pos="336"/>
          <note pan="0" key="80" len="168" vol="78" pos="360"/>
          <note pan="0" key="68" len="168" vol="78" pos="360"/>
          <note pan="0" key="80" len="24" vol="78" pos="528"/>
          <note pan="0" key="68" len="24" vol="78" pos="528"/>
          <note pan="0" key="78" len="24" vol="78" pos="552"/>
          <note pan="0" key="66" len="24" vol="78" pos="552"/>
          <note pan="0" key="77" len="48" vol="78" pos="576"/>
          <note pan="0" key="65" len="48" vol="78" pos="576"/>
          <note pan="0" key="73" len="48" vol="78" pos="624"/>
          <note pan="0" key="61" len="48" vol="78" pos="624"/>
          <note pan="0" key="70" len="48" vol="78" pos="672"/>
          <note pan="0" key="58" len="48" vol="78" pos="672"/>
          <note pan="0" key="66" len="48" vol="78" pos="720"/>
          <note pan="0" key="54" len="48" vol="78" pos="720"/>
          <note pan="0" key="69" len="96" vol="78" pos="768"/>
          <note pan="0" key="57" len="96" vol="78" pos="768"/>
          <note pan="0" key="68" len="96" vol="78" pos="864"/>
          <note pan="0" key="56" len="96" vol="78" pos="864"/>
          <note pan="0" key="61" len="144" vol="78" pos="960"/>
          <note pan="0" key="49" len="144" vol="78" pos="960"/>
          <note pan="0" key="64" len="48" vol="78" pos="1104"/>
          <note pan="0" key="52" len="48" vol="78" pos="1104"/>
          <note pan="0" key="63" len="144" vol="78" pos="1152"/>
          <note pan="0" key="51" len="144" vol="78" pos="1152"/>
          <note pan="0" key="68" len="48" vol="78" pos="1296"/>
          <note pan="0" key="56" len="48" vol="78" pos="1296"/>
          <note pan="0" key="68" len="144" vol="78" pos="1344"/>
          <note pan="0" key="56" len="144" vol="78" pos="1344"/>
          <note pan="0" key="66" len="24" vol="78" pos="1488"/>
          <note pan="0" key="54" len="24" vol="78" pos="1488"/>
          <note pan="0" key="64" len="24" vol="78" pos="1512"/>
          <note pan="0" key="52" len="24" vol="78" pos="1512"/>
          <note pan="0" key="63" len="48" vol="78" pos="1536"/>
          <note pan="0" key="51" len="48" vol="78" pos="1536"/>
          <note pan="0" key="64" len="48" vol="78" pos="1584"/>
          <note pan="0" key="52" len="48" vol="78" pos="1584"/>
          <note pan="0" key="59" len="48" vol="78" pos="1632"/>
          <note pan="0" key="47" len="48" vol="78" pos="1632"/>
          <note pan="0" key="56" len="48" vol="78" pos="1680"/>
          <note pan="0" key="44" len="48" vol="78" pos="1680"/>
          <note pan="0" key="57" len="96" vol="78" pos="1728"/>
          <note pan="0" key="45" len="96" vol="78" pos="1728"/>
          <note pan="0" key="61" len="48" vol="78" pos="1824"/>
          <note pan="0" key="49" len="48" vol="78" pos="1824"/>
          <note pan="0" key="64" len="48" vol="78" pos="1872"/>
          <note pan="0" key="52" len="48" vol="78" pos="1872"/>
          <note pan="0" key="64" len="96" vol="78" pos="1920"/>
          <note pan="0" key="52" len="96" vol="78" pos="1920"/>
          <note pan="0" key="63" len="48" vol="78" pos="2016"/>
          <note pan="0" key="51" len="48" vol="78" pos="2016"/>
          <note pan="0" key="64" len="48" vol="78" pos="2064"/>
          <note pan="0" key="52" len="48" vol="78" pos="2064"/>
          <note pan="0" key="71" len="72" vol="78" pos="2112"/>
          <note pan="0" key="59" len="72" vol="78" pos="2112"/>
          <note pan="0" key="69" len="72" vol="78" pos="2184"/>
          <note pan="0" key="57" len="72" vol="78" pos="2184"/>
          <note pan="0" key="68" len="48" vol="78" pos="2256"/>
          <note pan="0" key="56" len="48" vol="78" pos="2256"/>
          <note pan="0" key="66" len="192" vol="78" pos="2304"/>
          <note pan="0" key="54" len="192" vol="78" pos="2304"/>
          <note pan="0" key="64" len="72" vol="78" pos="2496"/>
          <note pan="0" key="52" len="72" vol="78" pos="2496"/>
          <note pan="0" key="63" len="72" vol="78" pos="2568"/>
          <note pan="0" key="51" len="72" vol="78" pos="2568"/>
          <note pan="0" key="64" len="48" vol="78" pos="2640"/>
          <note pan="0" key="52" len="48" vol="78" pos="2640"/>
          <note pan="0" key="68" len="144" vol="78" pos="2688"/>
          <note pan="0" key="56" len="144" vol="78" pos="2688"/>
          <note pan="0" key="63" len="48" vol="78" pos="2832"/>
          <note pan="0" key="51" len="48" vol="78" pos="2832"/>
          <note pan="0" key="61" len="240" vol="78" pos="2880"/>
          <note pan="0" key="49" len="240" vol="78" pos="2880"/>
          <note pan="0" key="64" len="48" vol="78" pos="3120"/>
          <note pan="0" key="52" len="48" vol="78" pos="3120"/>
          <note pan="0" key="66" len="48" vol="78" pos="3168"/>
          <note pan="0" key="54" len="48" vol="78" pos="3168"/>
          <note pan="0" key="68" len="48" vol="78" pos="3216"/>
          <note pan="0" key="56" len="48" vol="78" pos="3216"/>
          <note pan="0" key="69" len="72" vol="78" pos="3264"/>
          <note pan="0" key="57" len="72" vol="78" pos="3264"/>
          <note pan="0" key="68" len="72" vol="78" pos="3336"/>
          <note pan="0" key="56" len="72" vol="78" pos="3336"/>
          <note pan="0" key="66" len="48" vol="78" pos="3408"/>
          <note pan="0" key="54" len="48" vol="78" pos="3408"/>
          <note pan="0" key="64" len="48" vol="78" pos="3456"/>
          <note pan="0" key="52" len="48" vol="78" pos="3456"/>
          <note pan="0" key="61" len="48" vol="78" pos="3504"/>
          <note pan="0" key="49" len="48" vol="78" pos="3504"/>
          <note pan="0" key="64" len="48" vol="78" pos="3552"/>
          <note pan="0" key="52" len="48" vol="78" pos="3552"/>
          <note pan="0" key="68" len="48" vol="78" pos="3600"/>
          <note pan="0" key="56" len="48" vol="78" pos="3600"/>
          <note pan="0" key="66" len="192" vol="78" pos="3648"/>
          <note pan="0" key="54" len="192" vol="78" pos="3648"/>
          <note pan="0" key="63" len="96" vol="78" pos="3840"/>
          <note pan="0" key="51" len="96" vol="78" pos="3840"/>
          <note pan="0" key="59" len="96" vol="78" pos="3936"/>
          <note pan="0" key="47" len="96" vol="78" pos="3936"/>
          <note pan="0" key="61" len="384" vol="78" pos="4032"/>
          <note pan="0" key="49" len="384" vol="78" pos="4032"/>
        </pattern>
        <pattern steps="16" muted="0" pos="44160" name="Sf2 Player" type="1">
          <note pan="0" key="49" len="24" vol="78" pos="0"/>
          <note pan="0" key="51" len="24" vol="78" pos="24"/>
          <note pan="0" key="49" len="24" vol="78" pos="48"/>
          <note pan="0" key="56" len="48" vol="78" pos="72"/>
          <note pan="0" key="49" len="24" vol="78" pos="120"/>
          <note pan="0" key="52" len="24" vol="78" pos="144"/>
          <note pan="0" key="56" len="24" vol="78" pos="168"/>
          <note pan="0" key="59" len="24" vol="78" pos="192"/>
          <note pan="0" key="57" len="24" vol="78" pos="216"/>
          <note pan="0" key="56" len="24" vol="78" pos="240"/>
          <note pan="0" key="57" len="48" vol="78" pos="264"/>
          <note pan="0" key="56" len="24" vol="78" pos="312"/>
          <note pan="0" key="54" len="24" vol="78" pos="336"/>
          <note pan="0" key="56" len="24" vol="78" pos="360"/>
          <note pan="0" key="51" len="96" vol="78" pos="384"/>
        </pattern>
        <pattern steps="16" muted="0" pos="44928" name="Sf2 Player" type="1">
          <note pan="0" key="49" len="24" vol="78" pos="0"/>
          <note pan="0" key="51" len="24" vol="78" pos="24"/>
          <note pan="0" key="49" len="24" vol="78" pos="48"/>
          <note pan="0" key="56" len="48" vol="78" pos="72"/>
          <note pan="0" key="49" len="24" vol="78" pos="120"/>
          <note pan="0" key="52" len="24" vol="78" pos="144"/>
          <note pan="0" key="56" len="24" vol="78" pos="168"/>
          <note pan="0" key="59" len="24" vol="78" pos="192"/>
          <note pan="0" key="61" len="24" vol="78" pos="216"/>
          <note pan="0" key="63" len="24" vol="78" pos="240"/>
          <note pan="0" key="61" len="48" vol="78" pos="264"/>
          <note pan="0" key="63" len="24" vol="78" pos="312"/>
          <note pan="0" key="64" len="24" vol="78" pos="336"/>
          <note pan="0" key="66" len="24" vol="78" pos="360"/>
          <note pan="0" key="63" len="96" vol="78" pos="384"/>
        </pattern>
        <pattern steps="16" muted="0" pos="46272" name="Sf2 Player" type="1">
          <note pan="0" key="68" len="48" vol="78" pos="96"/>
          <note pan="0" key="56" len="48" vol="78" pos="96"/>
          <note pan="0" key="71" len="48" vol="78" pos="144"/>
          <note pan="0" key="59" len="48" vol="78" pos="144"/>
          <note pan="0" key="73" len="96" vol="78" pos="192"/>
          <note pan="0" key="61" len="96" vol="78" pos="192"/>
          <note pan="0" key="73" len="24" vol="78" pos="288"/>
          <note pan="0" key="61" len="24" vol="78" pos="288"/>
          <note pan="0" key="68" len="24" vol="78" pos="312"/>
          <note pan="0" key="56" len="24" vol="78" pos="312"/>
          <note pan="0" key="73" len="24" vol="78" pos="336"/>
          <note pan="0" key="61" len="24" vol="78" pos="336"/>
          <note pan="0" key="80" len="168" vol="78" pos="360"/>
          <note pan="0" key="68" len="168" vol="78" pos="360"/>
          <note pan="0" key="80" len="24" vol="78" pos="528"/>
          <note pan="0" key="68" len="24" vol="78" pos="528"/>
          <note pan="0" key="78" len="24" vol="78" pos="552"/>
          <note pan="0" key="66" len="24" vol="78" pos="552"/>
          <note pan="0" key="77" len="48" vol="78" pos="576"/>
          <note pan="0" key="65" len="48" vol="78" pos="576"/>
          <note pan="0" key="73" len="48" vol="78" pos="624"/>
          <note pan="0" key="61" len="48" vol="78" pos="624"/>
          <note pan="0" key="70" len="48" vol="78" pos="672"/>
          <note pan="0" key="58" len="48" vol="78" pos="672"/>
          <note pan="0" key="66" len="48" vol="78" pos="720"/>
          <note pan="0" key="54" len="48" vol="78" pos="720"/>
          <note pan="0" key="69" len="96" vol="78" pos="768"/>
          <note pan="0" key="57" len="96" vol="78" pos="768"/>
          <note pan="0" key="68" len="96" vol="78" pos="864"/>
          <note pan="0" key="56" len="96" vol="78" pos="864"/>
          <note pan="0" key="61" len="144" vol="78" pos="960"/>
          <note pan="0" key="49" len="144" vol="78" pos="960"/>
          <note pan="0" key="64" len="48" vol="78" pos="1104"/>
          <note pan="0" key="52" len="48" vol="78" pos="1104"/>
          <note pan="0" key="63" len="144" vol="78" pos="1152"/>
          <note pan="0" key="51" len="144" vol="78" pos="1152"/>
          <note pan="0" key="68" len="48" vol="78" pos="1296"/>
          <note pan="0" key="56" len="48" vol="78" pos="1296"/>
          <note pan="0" key="68" len="144" vol="78" pos="1344"/>
          <note pan="0" key="56" len="144" vol="78" pos="1344"/>
          <note pan="0" key="66" len="24" vol="78" pos="1488"/>
          <note pan="0" key="54" len="24" vol="78" pos="1488"/>
          <note pan="0" key="64" len="24" vol="78" pos="1512"/>
          <note pan="0" key="52" len="24" vol="78" pos="1512"/>
          <note pan="0" key="63" len="48" vol="78" pos="1536"/>
          <note pan="0" key="51" len="48" vol="78" pos="1536"/>
          <note pan="0" key="64" len="48" vol="78" pos="1584"/>
          <note pan="0" key="52" len="48" vol="78" pos="1584"/>
          <note pan="0" key="59" len="48" vol="78" pos="1632"/>
          <note pan="0" key="47" len="48" vol="78" pos="1632"/>
          <note pan="0" key="56" len="48" vol="78" pos="1680"/>
          <note pan="0" key="44" len="48" vol="78" pos="1680"/>
          <note pan="0" key="57" len="96" vol="78" pos="1728"/>
          <note pan="0" key="45" len="96" vol="78" pos="1728"/>
          <note pan="0" key="61" len="48" vol="78" pos="1824"/>
          <note pan="0" key="49" len="48" vol="78" pos="1824"/>
          <note pan="0" key="64" len="48" vol="78" pos="1872"/>
          <note pan="0" key="52" len="48" vol="78" pos="1872"/>
          <note pan="0" key="64" len="96" vol="78" pos="1920"/>
          <note pan="0" key="52" len="96" vol="78" pos="1920"/>
          <note pan="0" key="63" len="48" vol="78" pos="2016"/>
          <note pan="0" key="51" len="48" vol="78" pos="2016"/>
          <note pan="0" key="64" len="48" vol="78" pos="2064"/>
          <note pan="0" key="52" len="48" vol="78" pos="2064"/>
          <note pan="0" key="71" len="72" vol="78" pos="2112"/>
          <note pan="0" key="59" len="72" vol="78" pos="2112"/>
          <note pan="0" key="69" len="72" vol="78" pos="2184"/>
          <note pan="0" key="57" len="72" vol="78" pos="2184"/>
          <note pan="0" key="68" len="48" vol="78" pos="2256"/>
          <note pan="0" key="56" len="48" vol="78" pos="2256"/>
          <note pan="0" key="66" len="192" vol="78" pos="2304"/>
          <note pan="0" key="54" len="192" vol="78" pos="2304"/>
          <note pan="0" key="64" len="72" vol="78" pos="2496"/>
          <note pan="0" key="52" len="72" vol="78" pos="2496"/>
          <note pan="0" key="63" len="72" vol="78" pos="2568"/>
          <note pan="0" key="51" len="72" vol="78" pos="2568"/>
          <note pan="0" key="64" len="48" vol="78" pos="2640"/>
          <note pan="0" key="52" len="48" vol="78" pos="2640"/>
          <note pan="0" key="68" len="144" vol="78" pos="2688"/>
          <note pan="0" key="56" len="144" vol="78" pos="2688"/>
          <note pan="0" key="63" len="48" vol="78" pos="2832"/>
          <note pan="0" key="51" len="48" vol="78" pos="2832"/>
          <note pan="0" key="61" len="240" vol="78" pos="2880"/>
          <note pan="0" key="49" len="240" vol="78" pos="2880"/>
          <note pan="0" key="64" len="48" vol="78" pos="3120"/>
          <note pan="0" key="52" len="48" vol="78" pos="3120"/>
          <note pan="0" key="66" len="48" vol="78" pos="3168"/>
          <note pan="0" key="54" len="48" vol="78" pos="3168"/>
          <note pan="0" key="68" len="48" vol="78" pos="3216"/>
          <note pan="0" key="56" len="48" vol="78" pos="3216"/>
          <note pan="0" key="69" len="72" vol="78" pos="3264"/>
          <note pan="0" key="57" len="72" vol="78" pos="3264"/>
          <note pan="0" key="68" len="72" vol="78" pos="3336"/>
          <note pan="0" key="56" len="72" vol="78" pos="3336"/>
          <note pan="0" key="66" len="48" vol="78" pos="3408"/>
          <note pan="0" key="54" len="48" vol="78" pos="3408"/>
          <note pan="0" key="64" len="48" vol="78" pos="3456"/>
          <note pan="0" key="52" len="48" vol="78" pos="3456"/>
          <note pan="0" key="61" len="48" vol="78" pos="3504"/>
          <note pan="0" key="49" len="48" vol="78" pos="3504"/>
          <note pan="0" key="64" len="48" vol="78" pos="3552"/>
          <note pan="0" key="52" len="48" vol="78" pos="3552"/>
          <note pan="0" key="68" len="48" vol="78" pos="3600"/>
          <note pan="0" key="56" len="48" vol="78" pos="3600"/>
          <note pan="0" key="66" len="192" vol="78" pos="3648"/>
          <note pan="0" key="54" len="192" vol="78" pos="3648"/>
          <note pan="0" key="63" len="24" vol="78" pos="3840"/>
          <note pan="0" key="51" len="24" vol="78" pos="3840"/>
          <note pan="0" key="63" len="24" vol="78" pos="3864"/>
          <note pan="0" key="51" len="24" vol="78" pos="3864"/>
          <note pan="0" key="71" len="24" vol="78" pos="3936"/>
          <note pan="0" key="59" len="24" vol="78" pos="3936"/>
          <note pan="0" key="71" len="24" vol="78" pos="3960"/>
          <note pan="0" key="59" len="24" vol="78" pos="3960"/>
          <note pan="0" key="73" len="336" vol="78" pos="4032"/>
          <note pan="0" key="61" len="336" vol="78" pos="4032"/>
          <note pan="0" key="64" len="48" vol="78" pos="4368"/>
          <note pan="0" key="52" len="48" vol="78" pos="4368"/>
          <note pan="0" key="63" len="288" vol="78" pos="4416"/>
          <note pan="0" key="51" len="288" vol="78" pos="4416"/>
          <note pan="0" key="56" len="48" vol="78" pos="4704"/>
          <note pan="0" key="44" len="48" vol="78" pos="4704"/>
          <note pan="0" key="59" len="48" vol="78" pos="4752"/>
          <note pan="0" key="47" len="48" vol="78" pos="4752"/>
          <note pan="0" key="61" len="240" vol="78" pos="4800"/>
          <note pan="0" key="49" len="240" vol="78" pos="4800"/>
          <note pan="0" key="59" len="48" vol="78" pos="5040"/>
          <note pan="0" key="47" len="48" vol="78" pos="5040"/>
          <note pan="0" key="61" len="48" vol="78" pos="5088"/>
          <note pan="0" key="49" len="48" vol="78" pos="5088"/>
          <note pan="0" key="68" len="48" vol="78" pos="5136"/>
          <note pan="0" key="56" len="48" vol="78" pos="5136"/>
          <note pan="0" key="66" len="192" vol="78" pos="5184"/>
          <note pan="0" key="54" len="192" vol="78" pos="5184"/>
          <note pan="0" key="69" len="48" vol="78" pos="5376"/>
          <note pan="0" key="57" len="48" vol="78" pos="5376"/>
          <note pan="0" key="68" len="24" vol="78" pos="5424"/>
          <note pan="0" key="56" len="24" vol="78" pos="5424"/>
          <note pan="0" key="68" len="12" vol="78" pos="5448"/>
          <note pan="0" key="56" len="12" vol="78" pos="5448"/>
          <note pan="0" key="69" len="12" vol="78" pos="5456"/>
          <note pan="0" key="57" len="12" vol="78" pos="5456"/>
          <note pan="0" key="68" len="12" vol="78" pos="5464"/>
          <note pan="0" key="56" len="12" vol="78" pos="5464"/>
          <note pan="0" key="66" len="48" vol="78" pos="5472"/>
          <note pan="0" key="54" len="48" vol="78" pos="5472"/>
          <note pan="0" key="68" len="48" vol="78" pos="5520"/>
          <note pan="0" key="56" len="48" vol="78" pos="5520"/>
          <note pan="0" key="64" len="240" vol="78" pos="5568"/>
          <note pan="0" key="52" len="240" vol="78" pos="5568"/>
          <note pan="0" key="61" len="48" vol="78" pos="5808"/>
          <note pan="0" key="49" len="48" vol="78" pos="5808"/>
          <note pan="0" key="64" len="48" vol="78" pos="5856"/>
          <note pan="0" key="52" len="48" vol="78" pos="5856"/>
          <note pan="0" key="68" len="48" vol="78" pos="5904"/>
          <note pan="0" key="56" len="48" vol="78" pos="5904"/>
          <note pan="0" key="68" len="192" vol="78" pos="5952"/>
          <note pan="0" key="56" len="192" vol="78" pos="5952"/>
          <note pan="0" key="66" len="144" vol="78" pos="6144"/>
          <note pan="0" key="54" len="144" vol="78" pos="6144"/>
          <note pan="0" key="68" len="48" vol="78" pos="6288"/>
          <note pan="0" key="56" len="48" vol="78" pos="6288"/>
          <note pan="0" key="61" len="240" vol="78" pos="6336"/>
          <note pan="0" key="49" len="240" vol="78" pos="6336"/>
          <note pan="0" key="56" len="48" vol="78" pos="6576"/>
          <note pan="0" key="44" len="48" vol="78" pos="6576"/>
          <note pan="0" key="61" len="48" vol="78" pos="6624"/>
          <note pan="0" key="49" len="48" vol="78" pos="6624"/>
          <note pan="0" key="68" len="48" vol="78" pos="6672"/>
          <note pan="0" key="56" len="48" vol="78" pos="6672"/>
          <note pan="0" key="73" len="192" vol="78" pos="6720"/>
          <note pan="0" key="61" len="192" vol="78" pos="6720"/>
          <note pan="0" key="72" len="192" vol="78" pos="6912"/>
          <note pan="0" key="60" len="192" vol="78" pos="6912"/>
        </pattern>
        <pattern steps="16" muted="0" pos="53952" name="" type="1">
          <note pan="0" key="75" len="120" vol="193" pos="0"/>
          <note pan="0" key="0" len="24" vol="78" pos="0"/>
          <note pan="0" key="1" len="24" vol="78" pos="96"/>
          <note pan="0" key="70" len="24" vol="193" pos="120"/>
          <note pan="0" key="0" len="24" vol="78" pos="132"/>
          <note pan="0" key="78" len="24" vol="193" pos="144"/>
          <note pan="0" key="70" len="24" vol="193" pos="168"/>
          <note pan="0" key="1" len="24" vol="78" pos="168"/>
          <note pan="0" key="77" len="120" vol="193" pos="192"/>
          <note pan="0" key="0" len="24" vol="78" pos="192"/>
          <note pan="0" key="1" len="12" vol="78" pos="300"/>
          <note pan="0" key="77" len="12" vol="193" pos="312"/>
          <note pan="0" key="78" len="12" vol="193" pos="324"/>
          <note pan="0" key="82" len="12" vol="193" pos="336"/>
          <note pan="0" key="0" len="12" vol="78" pos="336"/>
          <note pan="0" key="78" len="12" vol="193" pos="348"/>
          <note pan="0" key="77" len="12" vol="193" pos="360"/>
          <note pan="0" key="1" len="12" vol="78" pos="360"/>
          <note pan="0" key="78" len="12" vol="193" pos="372"/>
          <note pan="0" key="82" len="144" vol="193" pos="384"/>
          <note pan="0" key="0" len="12" vol="78" pos="384"/>
          <note pan="0" key="80" len="24" vol="193" pos="528"/>
          <note pan="0" key="78" len="24" vol="193" pos="552"/>
          <note pan="0" key="77" len="48" vol="193" pos="576"/>
          <note pan="0" key="78" len="48" vol="197" pos="624"/>
          <note pan="0" key="0" len="12" vol="78" pos="660"/>
          <note pan="0" key="73" len="12" vol="193" pos="672"/>
          <note pan="0" key="1" len="12" vol="78" pos="672"/>
          <note pan="0" key="73" len="12" vol="193" pos="684"/>
          <note pan="0" key="73" len="12" vol="193" pos="696"/>
          <note pan="0" key="73" len="12" vol="193" pos="708"/>
          <note pan="0" key="70" len="12" vol="193" pos="720"/>
          <note pan="0" key="0" len="12" vol="78" pos="720"/>
          <note pan="0" key="66" len="12" vol="193" pos="732"/>
          <note pan="0" key="1" len="12" vol="78" pos="732"/>
          <note pan="0" key="68" len="12" vol="193" pos="744"/>
          <note pan="0" key="70" len="12" vol="193" pos="756"/>
          <note pan="0" key="71" len="96" vol="193" pos="768"/>
          <note pan="0" key="0" len="12" vol="78" pos="768"/>
          <note pan="0" key="75" len="48" vol="193" pos="864"/>
          <note pan="0" key="78" len="48" vol="193" pos="912"/>
          <note pan="0" key="78" len="96" vol="193" pos="960"/>
          <note pan="0" key="77" len="12" vol="193" pos="1056"/>
          <note pan="0" key="0" len="12" vol="78" pos="1056"/>
          <note pan="0" key="70" len="12" vol="193" pos="1068"/>
          <note pan="0" key="2" len="12" vol="78" pos="1068"/>
          <note pan="0" key="70" len="12" vol="193" pos="1080"/>
          <note pan="0" key="1" len="12" vol="78" pos="1080"/>
          <note pan="0" key="70" len="12" vol="193" pos="1092"/>
          <note pan="0" key="78" len="12" vol="193" pos="1104"/>
          <note pan="0" key="0" len="12" vol="78" pos="1104"/>
          <note pan="0" key="75" len="12" vol="193" pos="1116"/>
          <note pan="0" key="2" len="12" vol="78" pos="1116"/>
          <note pan="0" key="77" len="12" vol="193" pos="1128"/>
          <note pan="0" key="1" len="12" vol="78" pos="1128"/>
          <note pan="0" key="78" len="12" vol="193" pos="1140"/>
          <note pan="0" key="85" len="48" vol="193" pos="1152"/>
          <note pan="0" key="0" len="12" vol="78" pos="1152"/>
          <note pan="0" key="83" len="12" vol="193" pos="1200"/>
          <note pan="0" key="85" len="12" vol="193" pos="1212"/>
          <note pan="0" key="83" len="48" vol="193" pos="1224"/>
          <note pan="0" key="82" len="12" vol="193" pos="1272"/>
          <note pan="0" key="0" len="12" vol="78" pos="1272"/>
          <note pan="0" key="83" len="12" vol="193" pos="1284"/>
          <note pan="0" key="82" len="12" vol="193" pos="1296"/>
          <note pan="0" key="1" len="12" vol="78" pos="1296"/>
          <note pan="0" key="80" len="12" vol="193" pos="1308"/>
          <note pan="0" key="78" len="12" vol="193" pos="1320"/>
          <note pan="0" key="82" len="12" vol="193" pos="1332"/>
          <note pan="0" key="80" len="72" vol="193" pos="1344"/>
          <note pan="0" key="0" len="12" vol="78" pos="1344"/>
          <note pan="0" key="78" len="12" vol="193" pos="1416"/>
          <note pan="0" key="1" len="12" vol="78" pos="1416"/>
          <note pan="0" key="80" len="12" vol="193" pos="1428"/>
          <note pan="0" key="82" len="12" vol="193" pos="1440"/>
          <note pan="0" key="0" len="12" vol="78" pos="1440"/>
          <note pan="0" key="83" len="12" vol="193" pos="1452"/>
          <note pan="0" key="82" len="12" vol="193" pos="1464"/>
          <note pan="0" key="1" len="12" vol="78" pos="1464"/>
          <note pan="0" key="80" len="12" vol="193" pos="1476"/>
          <note pan="0" key="82" len="12" vol="193" pos="1488"/>
          <note pan="0" key="0" len="12" vol="78" pos="1488"/>
          <note pan="0" key="80" len="12" vol="193" pos="1500"/>
          <note pan="0" key="78" len="12" vol="193" pos="1512"/>
          <note pan="0" key="77" len="12" vol="193" pos="1524"/>
          <note pan="0" key="78" len="48" vol="193" pos="1536"/>
          <note pan="0" key="0" len="12" vol="78" pos="1536"/>
          <note pan="0" key="1" len="12" vol="78" pos="1572"/>
          <note pan="0" key="70" len="12" vol="193" pos="1584"/>
          <note pan="0" key="70" len="12" vol="193" pos="1596"/>
          <note pan="0" key="77" len="48" vol="193" pos="1608"/>
          <note pan="0" key="0" len="12" vol="78" pos="1608"/>
          <note pan="0" key="1" len="12" vol="78" pos="1644"/>
          <note pan="0" key="70" len="12" vol="193" pos="1656"/>
          <note pan="0" key="70" len="12" vol="193" pos="1668"/>
          <note pan="0" key="78" len="24" vol="193" pos="1680"/>
          <note pan="0" key="0" len="12" vol="78" pos="1680"/>
          <note pan="0" key="1" len="12" vol="78" pos="1692"/>
          <note pan="0" key="70" len="12" vol="193" pos="1704"/>
          <note pan="0" key="70" len="12" vol="193" pos="1716"/>
          <note pan="0" key="82" len="144" vol="193" pos="1728"/>
          <note pan="0" key="0" len="12" vol="78" pos="1728"/>
          <note pan="0" key="77" len="48" vol="193" pos="1872"/>
          <note pan="0" key="0" len="12" vol="78" pos="1908"/>
          <note pan="0" key="75" len="12" vol="193" pos="1920"/>
          <note pan="0" key="77" len="12" vol="193" pos="1932"/>
          <note pan="0" key="2" len="12" vol="78" pos="1932"/>
          <note pan="0" key="75" len="216" vol="193" pos="1944"/>
          <note pan="0" key="0" len="12" vol="78" pos="2100"/>
          <note pan="0" key="78" len="48" vol="193" pos="2160"/>
          <note pan="0" key="80" len="24" vol="193" pos="2208"/>
          <note pan="0" key="78" len="12" vol="193" pos="2232"/>
          <note pan="0" key="80" len="12" vol="193" pos="2244"/>
          <note pan="0" key="82" len="24" vol="193" pos="2256"/>
          <note pan="0" key="80" len="12" vol="193" pos="2280"/>
          <note pan="0" key="82" len="12" vol="193" pos="2292"/>
          <note pan="0" key="83" len="72" vol="193" pos="2304"/>
          <note pan="0" key="82" len="72" vol="193" pos="2376"/>
          <note pan="0" key="80" len="48" vol="193" pos="2448"/>
          <note pan="0" key="1" len="12" vol="78" pos="2484"/>
          <note pan="0" key="78" len="12" vol="193" pos="2496"/>
          <note pan="0" key="77" len="12" vol="193" pos="2508"/>
          <note pan="0" key="75" len="12" vol="193" pos="2520"/>
          <note pan="0" key="70" len="12" vol="193" pos="2532"/>
          <note pan="0" key="75" len="12" vol="193" pos="2544"/>
          <note pan="0" key="73" len="12" vol="193" pos="2556"/>
          <note pan="0" key="71" len="12" vol="193" pos="2568"/>
          <note pan="0" key="70" len="12" vol="193" pos="2580"/>
          <note pan="0" key="78" len="12" vol="193" pos="2592"/>
          <note pan="0" key="0" len="12" vol="78" pos="2592"/>
          <note pan="0" key="77" len="12" vol="193" pos="2604"/>
          <note pan="0" key="75" len="12" vol="193" pos="2616"/>
          <note pan="0" key="70" len="12" vol="193" pos="2628"/>
          <note pan="0" key="87" len="48" vol="193" pos="2640"/>
          <note pan="0" key="85" len="192" vol="193" pos="2688"/>
        </pattern>
      </track>
      <track solo="0" mutedBeforeSolo="1" muted="1" name="Orchestra Soundfont 2 COMBO" type="0">
        <instrumenttrack pan="0" basenote="57" pitch="0" usemasterpitch="1" vol="188.8" pitchrange="2" fxch="0">
          <instrument name="sf2player">
            <sf2player chorusLevel="2" patch="0" reverbOn="0" reverbWidth="0.5" gain="1" src="/home/pass/samples/soundfonts/Orchestra Soundfont 2 COMBO.sf2" bank="0" chorusDepth="8" reverbLevel="0.9" reverbDamping="0" reverbRoomSize="0.2" chorusOn="0" chorusNum="3" chorusSpeed="0.3">
              <key/>
            </sf2player>
          </instrument>
          <eldata fcut="14000" fres="0.5" ftype="0" fwet="0">
            <elvol lspd_syncmode="0" amt="0" lshp="0" lpdel="0" att="0" ctlenvamt="0" dec="0.5" userwavefile="" x100="0" rel="0.1" sustain="0.5" lspd_numerator="4" latt="0" lspd="0.1" lamt="0" lspd_denominator="4" hold="0.5" pdel="0"/>
            <elcut lspd_syncmode="0" amt="0" lshp="0" lpdel="0" att="0" ctlenvamt="0" dec="0.5" userwavefile="" x100="0" rel="0.1" sustain="0.5" lspd_numerator="4" latt="0" lspd="0.1" lamt="0" lspd_denominator="4" hold="0.5" pdel="0"/>
            <elres lspd_syncmode="0" amt="0" lshp="0" lpdel="0" att="0" ctlenvamt="0" dec="0.5" userwavefile="" x100="0" rel="0.1" sustain="0.5" lspd_numerator="4" latt="0" lspd="0.1" lamt="0" lspd_denominator="4" hold="0.5" pdel="0"/>
          </eldata>
          <chordcreator chordrange="1" chord-enabled="0" chord="0"/>
          <arpeggiator arprange="1" arpmode="0" arpcycle="0" arptime_syncmode="0" arptime_numerator="4" arpgate="100" arptime="200" arpskip="0" arpmiss="0" arp="0" arptime_denominator="4" arp-enabled="0" arpdir="0"/>
          <midiport inputcontroller="0" outputcontroller="0" readable="0" outputchannel="1" fixedoutputvelocity="-1" outputprogram="1" fixedinputvelocity="-1" fixedoutputnote="-1" inputchannel="0" basevelocity="63" writable="0"/>
          <fxchain enabled="0" numofeffects="0"/>
        </instrumenttrack>
        <pattern steps="16" muted="0" pos="5376" name="" type="1">
          <note pan="0" key="44" len="24" vol="78" pos="0"/>
          <note pan="0" key="47" len="24" vol="78" pos="24"/>
          <note pan="0" key="44" len="24" vol="78" pos="48"/>
          <note pan="0" key="51" len="48" vol="78" pos="72"/>
          <note pan="0" key="44" len="24" vol="78" pos="120"/>
          <note pan="0" key="47" len="24" vol="78" pos="144"/>
          <note pan="0" key="51" len="24" vol="78" pos="168"/>
          <note pan="0" key="52" len="24" vol="78" pos="192"/>
          <note pan="0" key="51" len="24" vol="78" pos="216"/>
          <note pan="0" key="49" len="24" vol="78" pos="240"/>
          <note pan="0" key="47" len="24" vol="78" pos="264"/>
          <note pan="0" key="51" len="24" vol="78" pos="288"/>
          <note pan="0" key="49" len="24" vol="78" pos="312"/>
          <note pan="0" key="47" len="24" vol="78" pos="336"/>
          <note pan="0" key="44" len="24" vol="78" pos="360"/>
          <note pan="0" key="49" len="96" vol="78" pos="384"/>
        </pattern>
        <pattern steps="16" muted="0" pos="6144" name="" type="1">
          <note pan="0" key="47" len="24" vol="78" pos="0"/>
          <note pan="0" key="52" len="24" vol="78" pos="24"/>
          <note pan="0" key="56" len="24" vol="78" pos="48"/>
          <note pan="0" key="59" len="48" vol="78" pos="72"/>
          <note pan="0" key="56" len="24" vol="78" pos="120"/>
          <note pan="0" key="59" len="24" vol="78" pos="144"/>
          <note pan="0" key="63" len="24" vol="78" pos="168"/>
          <note pan="0" key="61" len="24" vol="78" pos="192"/>
          <note pan="0" key="56" len="24" vol="78" pos="216"/>
          <note pan="0" key="52" len="24" vol="78" pos="240"/>
          <note pan="0" key="49" len="24" vol="78" pos="264"/>
          <note pan="0" key="54" len="24" vol="78" pos="288"/>
          <note pan="0" key="52" len="24" vol="78" pos="312"/>
          <note pan="0" key="56" len="24" vol="78" pos="336"/>
          <note pan="0" key="52" len="24" vol="78" pos="360"/>
          <note pan="0" key="57" len="120" vol="78" pos="384"/>
          <note pan="0" key="56" len="24" vol="78" pos="504"/>
          <note pan="0" key="57" len="24" vol="78" pos="528"/>
          <note pan="0" key="59" len="24" vol="78" pos="552"/>
          <note pan="0" key="61" len="72" vol="78" pos="576"/>
          <note pan="0" key="59" len="72" vol="78" pos="648"/>
          <note pan="0" key="57" len="48" vol="78" pos="720"/>
          <note pan="0" key="56" len="24" vol="78" pos="768"/>
          <note pan="0" key="57" len="24" vol="78" pos="792"/>
          <note pan="0" key="56" len="24" vol="78" pos="816"/>
          <note pan="0" key="52" len="48" vol="78" pos="840"/>
          <note pan="0" key="52" len="24" vol="78" pos="888"/>
          <note pan="0" key="54" len="24" vol="78" pos="912"/>
          <note pan="0" key="56" len="24" vol="78" pos="936"/>
          <note pan="0" key="54" len="96" vol="78" pos="960"/>
          <note pan="0" key="51" len="48" vol="78" pos="1056"/>
          <note pan="0" key="56" len="48" vol="78" pos="1104"/>
          <note pan="0" key="44" len="24" vol="78" pos="1152"/>
          <note pan="0" key="42" len="24" vol="78" pos="1176"/>
          <note pan="0" key="44" len="24" vol="78" pos="1200"/>
          <note pan="0" key="49" len="24" vol="78" pos="1224"/>
          <note pan="0" key="52" len="48" vol="78" pos="1248"/>
          <note pan="0" key="51" len="24" vol="78" pos="1296"/>
          <note pan="0" key="49" len="24" vol="78" pos="1320"/>
          <note pan="0" key="56" len="24" vol="78" pos="1344"/>
          <note pan="0" key="54" len="24" vol="78" pos="1368"/>
          <note pan="0" key="52" len="24" vol="78" pos="1392"/>
          <note pan="0" key="51" len="24" vol="78" pos="1416"/>
          <note pan="0" key="49" len="24" vol="78" pos="1440"/>
          <note pan="0" key="51" len="24" vol="78" pos="1464"/>
          <note pan="0" key="52" len="24" vol="78" pos="1488"/>
          <note pan="0" key="56" len="24" vol="78" pos="1512"/>
          <note pan="0" key="58" len="48" vol="78" pos="1536"/>
          <note pan="0" key="54" len="48" vol="78" pos="1584"/>
          <note pan="0" key="51" len="48" vol="78" pos="1632"/>
          <note pan="0" key="46" len="48" vol="78" pos="1680"/>
          <note pan="0" key="45" len="24" vol="78" pos="1728"/>
          <note pan="0" key="49" len="24" vol="78" pos="1752"/>
          <note pan="0" key="51" len="24" vol="78" pos="1776"/>
          <note pan="0" key="54" len="24" vol="78" pos="1800"/>
          <note pan="0" key="57" len="24" vol="78" pos="1824"/>
          <note pan="0" key="61" len="24" vol="78" pos="1848"/>
          <note pan="0" key="63" len="24" vol="78" pos="1872"/>
          <note pan="0" key="66" len="24" vol="78" pos="1896"/>
        </pattern>
        <pattern steps="16" muted="0" pos="12672" name="" type="1">
          <note pan="0" key="49" len="24" vol="78" pos="0"/>
          <note pan="0" key="56" len="12" vol="78" pos="24"/>
          <note pan="0" key="49" len="24" vol="78" pos="48"/>
          <note pan="0" key="56" len="12" vol="78" pos="72"/>
          <note pan="0" key="56" len="12" vol="78" pos="120"/>
          <note pan="0" key="49" len="24" vol="78" pos="144"/>
          <note pan="0" key="56" len="12" vol="78" pos="168"/>
          <note pan="0" key="56" len="12" vol="78" pos="192"/>
          <note pan="0" key="61" len="24" vol="78" pos="216"/>
          <note pan="0" key="56" len="12" vol="78" pos="240"/>
          <note pan="0" key="56" len="12" vol="78" pos="264"/>
          <note pan="0" key="49" len="24" vol="78" pos="288"/>
          <note pan="0" key="52" len="24" vol="78" pos="312"/>
          <note pan="0" key="56" len="24" vol="78" pos="336"/>
          <note pan="0" key="61" len="24" vol="78" pos="360"/>
          <note pan="0" key="44" len="24" vol="78" pos="384"/>
          <note pan="0" key="47" len="24" vol="78" pos="408"/>
          <note pan="0" key="44" len="24" vol="78" pos="432"/>
          <note pan="0" key="51" len="48" vol="78" pos="456"/>
          <note pan="0" key="44" len="24" vol="78" pos="504"/>
          <note pan="0" key="47" len="24" vol="78" pos="528"/>
          <note pan="0" key="51" len="24" vol="78" pos="552"/>
          <note pan="0" key="52" len="24" vol="78" pos="576"/>
          <note pan="0" key="51" len="24" vol="78" pos="600"/>
          <note pan="0" key="49" len="24" vol="78" pos="624"/>
          <note pan="0" key="47" len="24" vol="78" pos="648"/>
          <note pan="0" key="51" len="24" vol="78" pos="672"/>
          <note pan="0" key="49" len="24" vol="78" pos="696"/>
          <note pan="0" key="47" len="24" vol="78" pos="720"/>
          <note pan="0" key="44" len="24" vol="78" pos="744"/>
          <note pan="0" key="49" len="24" vol="78" pos="768"/>
          <note pan="0" key="56" len="12" vol="78" pos="792"/>
          <note pan="0" key="56" len="12" vol="78" pos="816"/>
          <note pan="0" key="61" len="24" vol="78" pos="840"/>
          <note pan="0" key="56" len="12" vol="78" pos="864"/>
          <note pan="0" key="56" len="12" vol="78" pos="888"/>
          <note pan="0" key="49" len="24" vol="78" pos="912"/>
          <note pan="0" key="56" len="12" vol="78" pos="936"/>
          <note pan="0" key="56" len="12" vol="78" pos="960"/>
          <note pan="0" key="61" len="24" vol="78" pos="984"/>
          <note pan="0" key="56" len="12" vol="78" pos="1008"/>
          <note pan="0" key="57" len="24" vol="78" pos="1032"/>
          <note pan="0" key="49" len="24" vol="78" pos="1056"/>
          <note pan="0" key="52" len="24" vol="78" pos="1080"/>
          <note pan="0" key="56" len="24" vol="78" pos="1104"/>
          <note pan="0" key="61" len="24" vol="78" pos="1128"/>
          <note pan="0" key="47" len="24" vol="78" pos="1152"/>
          <note pan="0" key="52" len="24" vol="78" pos="1176"/>
          <note pan="0" key="56" len="24" vol="78" pos="1200"/>
          <note pan="0" key="59" len="48" vol="78" pos="1224"/>
          <note pan="0" key="56" len="24" vol="78" pos="1272"/>
          <note pan="0" key="59" len="24" vol="78" pos="1296"/>
          <note pan="0" key="63" len="24" vol="78" pos="1320"/>
          <note pan="0" key="61" len="24" vol="78" pos="1344"/>
          <note pan="0" key="56" len="24" vol="78" pos="1368"/>
          <note pan="0" key="52" len="24" vol="78" pos="1392"/>
          <note pan="0" key="49" len="24" vol="78" pos="1416"/>
          <note pan="0" key="54" len="24" vol="78" pos="1440"/>
          <note pan="0" key="52" len="24" vol="78" pos="1464"/>
          <note pan="0" key="56" len="24" vol="78" pos="1488"/>
          <note pan="0" key="52" len="24" vol="78" pos="1512"/>
          <note pan="0" key="57" len="96" vol="78" pos="1536"/>
          <note pan="0" key="57" len="24" vol="78" pos="1632"/>
          <note pan="0" key="56" len="24" vol="78" pos="1656"/>
          <note pan="0" key="57" len="24" vol="78" pos="1680"/>
          <note pan="0" key="59" len="24" vol="78" pos="1704"/>
          <note pan="0" key="61" len="72" vol="78" pos="1728"/>
          <note pan="0" key="59" len="72" vol="78" pos="1800"/>
          <note pan="0" key="57" len="48" vol="78" pos="1872"/>
          <note pan="0" key="56" len="24" vol="78" pos="1920"/>
          <note pan="0" key="57" len="24" vol="78" pos="1944"/>
          <note pan="0" key="56" len="24" vol="78" pos="1968"/>
          <note pan="0" key="52" len="48" vol="78" pos="1992"/>
          <note pan="0" key="52" len="24" vol="78" pos="2040"/>
          <note pan="0" key="54" len="24" vol="78" pos="2064"/>
          <note pan="0" key="56" len="24" vol="78" pos="2088"/>
          <note pan="0" key="54" len="96" vol="78" pos="2112"/>
          <note pan="0" key="51" len="48" vol="78" pos="2208"/>
          <note pan="0" key="56" len="48" vol="78" pos="2256"/>
          <note pan="0" key="44" len="24" vol="78" pos="2304"/>
          <note pan="0" key="42" len="24" vol="78" pos="2328"/>
          <note pan="0" key="44" len="24" vol="78" pos="2352"/>
          <note pan="0" key="49" len="24" vol="78" pos="2376"/>
          <note pan="0" key="52" len="48" vol="78" pos="2400"/>
          <note pan="0" key="51" len="24" vol="78" pos="2448"/>
          <note pan="0" key="49" len="24" vol="78" pos="2472"/>
          <note pan="0" key="56" len="24" vol="78" pos="2496"/>
          <note pan="0" key="54" len="24" vol="78" pos="2520"/>
          <note pan="0" key="52" len="24" vol="78" pos="2544"/>
          <note pan="0" key="51" len="24" vol="78" pos="2568"/>
          <note pan="0" key="49" len="24" vol="78" pos="2592"/>
          <note pan="0" key="51" len="24" vol="78" pos="2616"/>
          <note pan="0" key="52" len="24" vol="78" pos="2640"/>
          <note pan="0" key="56" len="24" vol="78" pos="2664"/>
          <note pan="0" key="58" len="48" vol="78" pos="2688"/>
          <note pan="0" key="54" len="48" vol="78" pos="2736"/>
          <note pan="0" key="51" len="48" vol="78" pos="2784"/>
          <note pan="0" key="46" len="48" vol="78" pos="2832"/>
          <note pan="0" key="45" len="24" vol="78" pos="2880"/>
          <note pan="0" key="49" len="24" vol="78" pos="2904"/>
          <note pan="0" key="51" len="24" vol="78" pos="2928"/>
          <note pan="0" key="54" len="24" vol="78" pos="2952"/>
          <note pan="0" key="57" len="24" vol="78" pos="2976"/>
          <note pan="0" key="61" len="24" vol="78" pos="3000"/>
          <note pan="0" key="63" len="24" vol="78" pos="3024"/>
          <note pan="0" key="66" len="24" vol="78" pos="3048"/>
          <note pan="0" key="49" len="144" vol="78" pos="3072"/>
          <note pan="0" key="45" len="48" vol="78" pos="3216"/>
          <note pan="0" key="47" len="96" vol="78" pos="3264"/>
          <note pan="0" key="51" len="96" vol="78" pos="3360"/>
          <note pan="0" key="49" len="48" vol="78" pos="3456"/>
          <note pan="0" key="44" len="48" vol="78" pos="3504"/>
          <note pan="0" key="40" len="48" vol="78" pos="3552"/>
          <note pan="0" key="44" len="48" vol="78" pos="3600"/>
          <note pan="0" key="42" len="48" vol="78" pos="3648"/>
          <note pan="0" key="51" len="48" vol="78" pos="3696"/>
          <note pan="0" key="51" len="24" vol="78" pos="3744"/>
          <note pan="0" key="52" len="24" vol="78" pos="3768"/>
          <note pan="0" key="54" len="24" vol="78" pos="3792"/>
          <note pan="0" key="51" len="24" vol="78" pos="3816"/>
          <note pan="0" key="52" len="96" vol="78" pos="3840"/>
          <note pan="0" key="51" len="48" vol="78" pos="3936"/>
          <note pan="0" key="47" len="48" vol="78" pos="3984"/>
          <note pan="0" key="49" len="48" vol="78" pos="4032"/>
          <note pan="0" key="52" len="48" vol="78" pos="4080"/>
          <note pan="0" key="54" len="48" vol="78" pos="4128"/>
          <note pan="0" key="49" len="48" vol="78" pos="4176"/>
          <note pan="0" key="54" len="48" vol="78" pos="4224"/>
          <note pan="0" key="52" len="48" vol="78" pos="4272"/>
          <note pan="0" key="51" len="48" vol="78" pos="4320"/>
          <note pan="0" key="54" len="48" vol="78" pos="4368"/>
          <note pan="0" key="52" len="24" vol="78" pos="4416"/>
          <note pan="0" key="54" len="24" vol="78" pos="4440"/>
          <note pan="0" key="52" len="24" vol="78" pos="4464"/>
          <note pan="0" key="51" len="24" vol="78" pos="4488"/>
          <note pan="0" key="49" len="24" vol="78" pos="4512"/>
          <note pan="0" key="44" len="24" vol="78" pos="4536"/>
          <note pan="0" key="45" len="24" vol="78" pos="4560"/>
          <note pan="0" key="48" len="24" vol="78" pos="4584"/>
          <note pan="0" key="51" len="48" vol="78" pos="4608"/>
          <note pan="0" key="52" len="48" vol="78" pos="4656"/>
          <note pan="0" key="54" len="48" vol="78" pos="4704"/>
          <note pan="0" key="56" len="48" vol="78" pos="4752"/>
          <note pan="0" key="59" len="48" vol="78" pos="4800"/>
          <note pan="0" key="56" len="48" vol="78" pos="4848"/>
          <note pan="0" key="51" len="48" vol="78" pos="4896"/>
          <note pan="0" key="56" len="48" vol="78" pos="4944"/>
          <note pan="0" key="59" len="48" vol="78" pos="4992"/>
          <note pan="0" key="56" len="48" vol="78" pos="5040"/>
          <note pan="0" key="52" len="48" vol="78" pos="5088"/>
          <note pan="0" key="49" len="48" vol="78" pos="5136"/>
          <note pan="0" key="45" len="24" vol="78" pos="5184"/>
          <note pan="0" key="44" len="24" vol="78" pos="5208"/>
          <note pan="0" key="45" len="24" vol="78" pos="5232"/>
          <note pan="0" key="47" len="24" vol="78" pos="5256"/>
          <note pan="0" key="49" len="24" vol="78" pos="5280"/>
          <note pan="0" key="52" len="24" vol="78" pos="5304"/>
          <note pan="0" key="54" len="24" vol="78" pos="5328"/>
          <note pan="0" key="56" len="24" vol="78" pos="5352"/>
          <note pan="0" key="54" len="72" vol="78" pos="5376"/>
          <note pan="0" key="59" len="24" vol="78" pos="5448"/>
          <note pan="0" key="56" len="48" vol="78" pos="5472"/>
          <note pan="0" key="52" len="24" vol="78" pos="5520"/>
          <note pan="0" key="54" len="24" vol="78" pos="5544"/>
          <note pan="0" key="57" len="48" vol="78" pos="5568"/>
          <note pan="0" key="56" len="48" vol="78" pos="5616"/>
          <note pan="0" key="52" len="48" vol="78" pos="5664"/>
          <note pan="0" key="56" len="48" vol="78" pos="5712"/>
          <note pan="0" key="54" len="192" vol="78" pos="5760"/>
          <note pan="0" key="51" len="24" vol="78" pos="5952"/>
          <note pan="0" key="51" len="24" vol="78" pos="5976"/>
          <note pan="0" key="47" len="24" vol="78" pos="6048"/>
          <note pan="0" key="47" len="24" vol="78" pos="6072"/>
          <note pan="0" key="49" len="336" vol="78" pos="6144"/>
          <note pan="0" key="52" len="48" vol="78" pos="6480"/>
          <note pan="0" key="51" len="288" vol="78" pos="6528"/>
          <note pan="0" key="44" len="48" vol="78" pos="6816"/>
          <note pan="0" key="47" len="48" vol="78" pos="6864"/>
          <note pan="0" key="49" len="240" vol="78" pos="6912"/>
          <note pan="0" key="47" len="48" vol="78" pos="7152"/>
          <note pan="0" key="49" len="48" vol="78" pos="7200"/>
          <note pan="0" key="56" len="48" vol="78" pos="7248"/>
          <note pan="0" key="54" len="192" vol="78" pos="7296"/>
          <note pan="0" key="57" len="48" vol="78" pos="7488"/>
          <note pan="0" key="56" len="24" vol="78" pos="7536"/>
          <note pan="0" key="56" len="12" vol="78" pos="7560"/>
          <note pan="0" key="57" len="12" vol="78" pos="7568"/>
          <note pan="0" key="56" len="12" vol="78" pos="7576"/>
          <note pan="0" key="54" len="48" vol="78" pos="7584"/>
          <note pan="0" key="56" len="48" vol="78" pos="7632"/>
          <note pan="0" key="52" len="240" vol="78" pos="7680"/>
          <note pan="0" key="49" len="48" vol="78" pos="7920"/>
          <note pan="0" key="52" len="48" vol="78" pos="7968"/>
          <note pan="0" key="56" len="48" vol="78" pos="8016"/>
          <note pan="0" key="56" len="192" vol="78" pos="8064"/>
          <note pan="0" key="54" len="144" vol="78" pos="8256"/>
          <note pan="0" key="56" len="48" vol="78" pos="8400"/>
          <note pan="0" key="49" len="240" vol="78" pos="8448"/>
          <note pan="0" key="44" len="48" vol="78" pos="8688"/>
          <note pan="0" key="49" len="48" vol="78" pos="8736"/>
          <note pan="0" key="56" len="48" vol="78" pos="8784"/>
          <note pan="0" key="61" len="192" vol="78" pos="8832"/>
          <note pan="0" key="60" len="192" vol="78" pos="9024"/>
        </pattern>
        <pattern steps="16" muted="0" pos="36864" name="" type="1">
          <note pan="0" key="44" len="24" vol="78" pos="0"/>
          <note pan="0" key="47" len="24" vol="78" pos="24"/>
          <note pan="0" key="44" len="24" vol="78" pos="48"/>
          <note pan="0" key="51" len="48" vol="78" pos="72"/>
          <note pan="0" key="44" len="24" vol="78" pos="120"/>
          <note pan="0" key="47" len="24" vol="78" pos="144"/>
          <note pan="0" key="51" len="24" vol="78" pos="168"/>
          <note pan="0" key="52" len="24" vol="78" pos="192"/>
          <note pan="0" key="51" len="24" vol="78" pos="216"/>
          <note pan="0" key="49" len="24" vol="78" pos="240"/>
          <note pan="0" key="47" len="24" vol="78" pos="264"/>
          <note pan="0" key="51" len="24" vol="78" pos="288"/>
          <note pan="0" key="49" len="24" vol="78" pos="312"/>
          <note pan="0" key="47" len="24" vol="78" pos="336"/>
          <note pan="0" key="44" len="24" vol="78" pos="360"/>
          <note pan="0" key="49" len="96" vol="78" pos="384"/>
        </pattern>
        <pattern steps="16" muted="0" pos="37632" name="" type="1">
          <note pan="0" key="47" len="24" vol="78" pos="0"/>
          <note pan="0" key="52" len="24" vol="78" pos="24"/>
          <note pan="0" key="56" len="24" vol="78" pos="48"/>
          <note pan="0" key="59" len="48" vol="78" pos="72"/>
          <note pan="0" key="56" len="24" vol="78" pos="120"/>
          <note pan="0" key="59" len="24" vol="78" pos="144"/>
          <note pan="0" key="63" len="24" vol="78" pos="168"/>
          <note pan="0" key="61" len="24" vol="78" pos="192"/>
          <note pan="0" key="56" len="24" vol="78" pos="216"/>
          <note pan="0" key="52" len="24" vol="78" pos="240"/>
          <note pan="0" key="49" len="24" vol="78" pos="264"/>
          <note pan="0" key="54" len="24" vol="78" pos="288"/>
          <note pan="0" key="52" len="24" vol="78" pos="312"/>
          <note pan="0" key="56" len="24" vol="78" pos="336"/>
          <note pan="0" key="52" len="24" vol="78" pos="360"/>
          <note pan="0" key="57" len="120" vol="78" pos="384"/>
          <note pan="0" key="56" len="24" vol="78" pos="504"/>
          <note pan="0" key="57" len="24" vol="78" pos="528"/>
          <note pan="0" key="59" len="24" vol="78" pos="552"/>
          <note pan="0" key="61" len="72" vol="78" pos="576"/>
          <note pan="0" key="59" len="72" vol="78" pos="648"/>
          <note pan="0" key="57" len="48" vol="78" pos="720"/>
          <note pan="0" key="56" len="24" vol="78" pos="768"/>
          <note pan="0" key="57" len="24" vol="78" pos="792"/>
          <note pan="0" key="56" len="24" vol="78" pos="816"/>
          <note pan="0" key="52" len="48" vol="78" pos="840"/>
          <note pan="0" key="52" len="24" vol="78" pos="888"/>
          <note pan="0" key="54" len="24" vol="78" pos="912"/>
          <note pan="0" key="56" len="24" vol="78" pos="936"/>
          <note pan="0" key="54" len="96" vol="78" pos="960"/>
          <note pan="0" key="51" len="48" vol="78" pos="1056"/>
          <note pan="0" key="56" len="48" vol="78" pos="1104"/>
          <note pan="0" key="44" len="24" vol="78" pos="1152"/>
          <note pan="0" key="42" len="24" vol="78" pos="1176"/>
          <note pan="0" key="44" len="24" vol="78" pos="1200"/>
          <note pan="0" key="49" len="24" vol="78" pos="1224"/>
          <note pan="0" key="52" len="48" vol="78" pos="1248"/>
          <note pan="0" key="51" len="24" vol="78" pos="1296"/>
          <note pan="0" key="49" len="24" vol="78" pos="1320"/>
          <note pan="0" key="56" len="24" vol="78" pos="1344"/>
          <note pan="0" key="54" len="24" vol="78" pos="1368"/>
          <note pan="0" key="52" len="24" vol="78" pos="1392"/>
          <note pan="0" key="51" len="24" vol="78" pos="1416"/>
          <note pan="0" key="49" len="24" vol="78" pos="1440"/>
          <note pan="0" key="51" len="24" vol="78" pos="1464"/>
          <note pan="0" key="52" len="24" vol="78" pos="1488"/>
          <note pan="0" key="56" len="24" vol="78" pos="1512"/>
          <note pan="0" key="58" len="48" vol="78" pos="1536"/>
          <note pan="0" key="54" len="48" vol="78" pos="1584"/>
          <note pan="0" key="51" len="48" vol="78" pos="1632"/>
          <note pan="0" key="46" len="48" vol="78" pos="1680"/>
          <note pan="0" key="45" len="24" vol="78" pos="1728"/>
          <note pan="0" key="49" len="24" vol="78" pos="1752"/>
          <note pan="0" key="51" len="24" vol="78" pos="1776"/>
          <note pan="0" key="54" len="24" vol="78" pos="1800"/>
          <note pan="0" key="57" len="24" vol="78" pos="1824"/>
          <note pan="0" key="61" len="24" vol="78" pos="1848"/>
          <note pan="0" key="63" len="24" vol="78" pos="1872"/>
          <note pan="0" key="66" len="24" vol="78" pos="1896"/>
        </pattern>
        <pattern steps="16" muted="0" pos="44160" name="" type="1">
          <note pan="0" key="49" len="24" vol="78" pos="0"/>
          <note pan="0" key="56" len="12" vol="78" pos="24"/>
          <note pan="0" key="49" len="24" vol="78" pos="48"/>
          <note pan="0" key="56" len="12" vol="78" pos="72"/>
          <note pan="0" key="56" len="12" vol="78" pos="120"/>
          <note pan="0" key="49" len="24" vol="78" pos="144"/>
          <note pan="0" key="56" len="12" vol="78" pos="168"/>
          <note pan="0" key="56" len="12" vol="78" pos="192"/>
          <note pan="0" key="61" len="24" vol="78" pos="216"/>
          <note pan="0" key="56" len="12" vol="78" pos="240"/>
          <note pan="0" key="56" len="12" vol="78" pos="264"/>
          <note pan="0" key="49" len="24" vol="78" pos="288"/>
          <note pan="0" key="52" len="24" vol="78" pos="312"/>
          <note pan="0" key="56" len="24" vol="78" pos="336"/>
          <note pan="0" key="61" len="24" vol="78" pos="360"/>
          <note pan="0" key="44" len="24" vol="78" pos="384"/>
          <note pan="0" key="47" len="24" vol="78" pos="408"/>
          <note pan="0" key="44" len="24" vol="78" pos="432"/>
          <note pan="0" key="51" len="48" vol="78" pos="456"/>
          <note pan="0" key="44" len="24" vol="78" pos="504"/>
          <note pan="0" key="47" len="24" vol="78" pos="528"/>
          <note pan="0" key="51" len="24" vol="78" pos="552"/>
          <note pan="0" key="52" len="24" vol="78" pos="576"/>
          <note pan="0" key="51" len="24" vol="78" pos="600"/>
          <note pan="0" key="49" len="24" vol="78" pos="624"/>
          <note pan="0" key="47" len="24" vol="78" pos="648"/>
          <note pan="0" key="51" len="24" vol="78" pos="672"/>
          <note pan="0" key="49" len="24" vol="78" pos="696"/>
          <note pan="0" key="47" len="24" vol="78" pos="720"/>
          <note pan="0" key="44" len="24" vol="78" pos="744"/>
          <note pan="0" key="49" len="24" vol="78" pos="768"/>
          <note pan="0" key="56" len="12" vol="78" pos="792"/>
          <note pan="0" key="56" len="12" vol="78" pos="816"/>
          <note pan="0" key="61" len="24" vol="78" pos="840"/>
          <note pan="0" key="56" len="12" vol="78" pos="864"/>
          <note pan="0" key="56" len="12" vol="78" pos="888"/>
          <note pan="0" key="49" len="24" vol="78" pos="912"/>
          <note pan="0" key="56" len="12" vol="78" pos="936"/>
          <note pan="0" key="56" len="12" vol="78" pos="960"/>
          <note pan="0" key="61" len="24" vol="78" pos="984"/>
          <note pan="0" key="56" len="12" vol="78" pos="1008"/>
          <note pan="0" key="57" len="24" vol="78" pos="1032"/>
          <note pan="0" key="49" len="24" vol="78" pos="1056"/>
          <note pan="0" key="52" len="24" vol="78" pos="1080"/>
          <note pan="0" key="56" len="24" vol="78" pos="1104"/>
          <note pan="0" key="61" len="24" vol="78" pos="1128"/>
          <note pan="0" key="47" len="24" vol="78" pos="1152"/>
          <note pan="0" key="52" len="24" vol="78" pos="1176"/>
          <note pan="0" key="56" len="24" vol="78" pos="1200"/>
          <note pan="0" key="59" len="48" vol="78" pos="1224"/>
          <note pan="0" key="56" len="24" vol="78" pos="1272"/>
          <note pan="0" key="59" len="24" vol="78" pos="1296"/>
          <note pan="0" key="63" len="24" vol="78" pos="1320"/>
          <note pan="0" key="61" len="24" vol="78" pos="1344"/>
          <note pan="0" key="56" len="24" vol="78" pos="1368"/>
          <note pan="0" key="52" len="24" vol="78" pos="1392"/>
          <note pan="0" key="49" len="24" vol="78" pos="1416"/>
          <note pan="0" key="54" len="24" vol="78" pos="1440"/>
          <note pan="0" key="52" len="24" vol="78" pos="1464"/>
          <note pan="0" key="56" len="24" vol="78" pos="1488"/>
          <note pan="0" key="52" len="24" vol="78" pos="1512"/>
          <note pan="0" key="57" len="96" vol="78" pos="1536"/>
          <note pan="0" key="57" len="24" vol="78" pos="1632"/>
          <note pan="0" key="56" len="24" vol="78" pos="1656"/>
          <note pan="0" key="57" len="24" vol="78" pos="1680"/>
          <note pan="0" key="59" len="24" vol="78" pos="1704"/>
          <note pan="0" key="61" len="72" vol="78" pos="1728"/>
          <note pan="0" key="59" len="72" vol="78" pos="1800"/>
          <note pan="0" key="57" len="48" vol="78" pos="1872"/>
          <note pan="0" key="56" len="24" vol="78" pos="1920"/>
          <note pan="0" key="57" len="24" vol="78" pos="1944"/>
          <note pan="0" key="56" len="24" vol="78" pos="1968"/>
          <note pan="0" key="52" len="48" vol="78" pos="1992"/>
          <note pan="0" key="52" len="24" vol="78" pos="2040"/>
          <note pan="0" key="54" len="24" vol="78" pos="2064"/>
          <note pan="0" key="56" len="24" vol="78" pos="2088"/>
          <note pan="0" key="54" len="96" vol="78" pos="2112"/>
          <note pan="0" key="51" len="48" vol="78" pos="2208"/>
          <note pan="0" key="56" len="48" vol="78" pos="2256"/>
          <note pan="0" key="44" len="24" vol="78" pos="2304"/>
          <note pan="0" key="42" len="24" vol="78" pos="2328"/>
          <note pan="0" key="44" len="24" vol="78" pos="2352"/>
          <note pan="0" key="49" len="24" vol="78" pos="2376"/>
          <note pan="0" key="52" len="48" vol="78" pos="2400"/>
          <note pan="0" key="51" len="24" vol="78" pos="2448"/>
          <note pan="0" key="49" len="24" vol="78" pos="2472"/>
          <note pan="0" key="56" len="24" vol="78" pos="2496"/>
          <note pan="0" key="54" len="24" vol="78" pos="2520"/>
          <note pan="0" key="52" len="24" vol="78" pos="2544"/>
          <note pan="0" key="51" len="24" vol="78" pos="2568"/>
          <note pan="0" key="49" len="24" vol="78" pos="2592"/>
          <note pan="0" key="51" len="24" vol="78" pos="2616"/>
          <note pan="0" key="52" len="24" vol="78" pos="2640"/>
          <note pan="0" key="56" len="24" vol="78" pos="2664"/>
          <note pan="0" key="58" len="48" vol="78" pos="2688"/>
          <note pan="0" key="54" len="48" vol="78" pos="2736"/>
          <note pan="0" key="51" len="48" vol="78" pos="2784"/>
          <note pan="0" key="46" len="48" vol="78" pos="2832"/>
          <note pan="0" key="45" len="24" vol="78" pos="2880"/>
          <note pan="0" key="49" len="24" vol="78" pos="2904"/>
          <note pan="0" key="51" len="24" vol="78" pos="2928"/>
          <note pan="0" key="54" len="24" vol="78" pos="2952"/>
          <note pan="0" key="57" len="24" vol="78" pos="2976"/>
          <note pan="0" key="61" len="24" vol="78" pos="3000"/>
          <note pan="0" key="63" len="24" vol="78" pos="3024"/>
          <note pan="0" key="66" len="24" vol="78" pos="3048"/>
          <note pan="0" key="49" len="144" vol="78" pos="3072"/>
          <note pan="0" key="45" len="48" vol="78" pos="3216"/>
          <note pan="0" key="47" len="96" vol="78" pos="3264"/>
          <note pan="0" key="51" len="96" vol="78" pos="3360"/>
          <note pan="0" key="49" len="48" vol="78" pos="3456"/>
          <note pan="0" key="44" len="48" vol="78" pos="3504"/>
          <note pan="0" key="40" len="48" vol="78" pos="3552"/>
          <note pan="0" key="44" len="48" vol="78" pos="3600"/>
          <note pan="0" key="42" len="48" vol="78" pos="3648"/>
          <note pan="0" key="51" len="48" vol="78" pos="3696"/>
          <note pan="0" key="51" len="24" vol="78" pos="3744"/>
          <note pan="0" key="52" len="24" vol="78" pos="3768"/>
          <note pan="0" key="54" len="24" vol="78" pos="3792"/>
          <note pan="0" key="51" len="24" vol="78" pos="3816"/>
          <note pan="0" key="52" len="96" vol="78" pos="3840"/>
          <note pan="0" key="51" len="48" vol="78" pos="3936"/>
          <note pan="0" key="47" len="48" vol="78" pos="3984"/>
          <note pan="0" key="49" len="48" vol="78" pos="4032"/>
          <note pan="0" key="52" len="48" vol="78" pos="4080"/>
          <note pan="0" key="54" len="48" vol="78" pos="4128"/>
          <note pan="0" key="49" len="48" vol="78" pos="4176"/>
          <note pan="0" key="54" len="48" vol="78" pos="4224"/>
          <note pan="0" key="52" len="48" vol="78" pos="4272"/>
          <note pan="0" key="51" len="48" vol="78" pos="4320"/>
          <note pan="0" key="54" len="48" vol="78" pos="4368"/>
          <note pan="0" key="52" len="24" vol="78" pos="4416"/>
          <note pan="0" key="54" len="24" vol="78" pos="4440"/>
          <note pan="0" key="52" len="24" vol="78" pos="4464"/>
          <note pan="0" key="51" len="24" vol="78" pos="4488"/>
          <note pan="0" key="49" len="24" vol="78" pos="4512"/>
          <note pan="0" key="44" len="24" vol="78" pos="4536"/>
          <note pan="0" key="45" len="24" vol="78" pos="4560"/>
          <note pan="0" key="48" len="24" vol="78" pos="4584"/>
          <note pan="0" key="51" len="48" vol="78" pos="4608"/>
          <note pan="0" key="52" len="48" vol="78" pos="4656"/>
          <note pan="0" key="54" len="48" vol="78" pos="4704"/>
          <note pan="0" key="56" len="48" vol="78" pos="4752"/>
          <note pan="0" key="59" len="48" vol="78" pos="4800"/>
          <note pan="0" key="56" len="48" vol="78" pos="4848"/>
          <note pan="0" key="51" len="48" vol="78" pos="4896"/>
          <note pan="0" key="56" len="48" vol="78" pos="4944"/>
          <note pan="0" key="59" len="48" vol="78" pos="4992"/>
          <note pan="0" key="56" len="48" vol="78" pos="5040"/>
          <note pan="0" key="52" len="48" vol="78" pos="5088"/>
          <note pan="0" key="49" len="48" vol="78" pos="5136"/>
          <note pan="0" key="45" len="24" vol="78" pos="5184"/>
          <note pan="0" key="44" len="24" vol="78" pos="5208"/>
          <note pan="0" key="45" len="24" vol="78" pos="5232"/>
          <note pan="0" key="47" len="24" vol="78" pos="5256"/>
          <note pan="0" key="49" len="24" vol="78" pos="5280"/>
          <note pan="0" key="52" len="24" vol="78" pos="5304"/>
          <note pan="0" key="54" len="24" vol="78" pos="5328"/>
          <note pan="0" key="56" len="24" vol="78" pos="5352"/>
          <note pan="0" key="54" len="72" vol="78" pos="5376"/>
          <note pan="0" key="59" len="24" vol="78" pos="5448"/>
          <note pan="0" key="56" len="48" vol="78" pos="5472"/>
          <note pan="0" key="52" len="24" vol="78" pos="5520"/>
          <note pan="0" key="54" len="24" vol="78" pos="5544"/>
          <note pan="0" key="57" len="48" vol="78" pos="5568"/>
          <note pan="0" key="56" len="48" vol="78" pos="5616"/>
          <note pan="0" key="52" len="48" vol="78" pos="5664"/>
          <note pan="0" key="56" len="48" vol="78" pos="5712"/>
          <note pan="0" key="54" len="192" vol="78" pos="5760"/>
          <note pan="0" key="51" len="24" vol="78" pos="5952"/>
          <note pan="0" key="51" len="24" vol="78" pos="5976"/>
          <note pan="0" key="47" len="24" vol="78" pos="6048"/>
          <note pan="0" key="47" len="24" vol="78" pos="6072"/>
          <note pan="0" key="49" len="336" vol="78" pos="6144"/>
          <note pan="0" key="52" len="48" vol="78" pos="6480"/>
          <note pan="0" key="51" len="288" vol="78" pos="6528"/>
          <note pan="0" key="44" len="48" vol="78" pos="6816"/>
          <note pan="0" key="47" len="48" vol="78" pos="6864"/>
          <note pan="0" key="49" len="240" vol="78" pos="6912"/>
          <note pan="0" key="47" len="48" vol="78" pos="7152"/>
          <note pan="0" key="49" len="48" vol="78" pos="7200"/>
          <note pan="0" key="56" len="48" vol="78" pos="7248"/>
          <note pan="0" key="54" len="192" vol="78" pos="7296"/>
          <note pan="0" key="57" len="48" vol="78" pos="7488"/>
          <note pan="0" key="56" len="24" vol="78" pos="7536"/>
          <note pan="0" key="56" len="12" vol="78" pos="7560"/>
          <note pan="0" key="57" len="12" vol="78" pos="7568"/>
          <note pan="0" key="56" len="12" vol="78" pos="7576"/>
          <note pan="0" key="54" len="48" vol="78" pos="7584"/>
          <note pan="0" key="56" len="48" vol="78" pos="7632"/>
          <note pan="0" key="52" len="240" vol="78" pos="7680"/>
          <note pan="0" key="49" len="48" vol="78" pos="7920"/>
          <note pan="0" key="52" len="48" vol="78" pos="7968"/>
          <note pan="0" key="56" len="48" vol="78" pos="8016"/>
          <note pan="0" key="56" len="192" vol="78" pos="8064"/>
          <note pan="0" key="54" len="144" vol="78" pos="8256"/>
          <note pan="0" key="56" len="48" vol="78" pos="8400"/>
          <note pan="0" key="49" len="240" vol="78" pos="8448"/>
          <note pan="0" key="44" len="48" vol="78" pos="8688"/>
          <note pan="0" key="49" len="48" vol="78" pos="8736"/>
          <note pan="0" key="56" len="48" vol="78" pos="8784"/>
          <note pan="0" key="61" len="192" vol="78" pos="8832"/>
          <note pan="0" key="60" len="192" vol="78" pos="9024"/>
        </pattern>
        <pattern steps="16" muted="0" pos="56448" name="" type="1">
          <note pan="0" key="75" len="336" vol="78" pos="0"/>
          <note pan="0" key="0" len="336" vol="78" pos="0"/>
          <note pan="0" key="78" len="48" vol="78" pos="336"/>
          <note pan="0" key="77" len="288" vol="78" pos="384"/>
          <note pan="0" key="70" len="48" vol="78" pos="672"/>
          <note pan="0" key="73" len="48" vol="78" pos="720"/>
          <note pan="0" key="75" len="240" vol="78" pos="768"/>
          <note pan="0" key="73" len="48" vol="78" pos="1008"/>
          <note pan="0" key="75" len="48" vol="78" pos="1056"/>
          <note pan="0" key="82" len="48" vol="78" pos="1104"/>
          <note pan="0" key="80" len="192" vol="78" pos="1152"/>
          <note pan="0" key="83" len="48" vol="78" pos="1344"/>
          <note pan="0" key="82" len="48" vol="78" pos="1392"/>
          <note pan="0" key="80" len="48" vol="78" pos="1440"/>
          <note pan="0" key="76" len="48" vol="78" pos="1488"/>
          <note pan="0" key="75" len="144" vol="78" pos="1536"/>
          <note pan="0" key="75" len="24" vol="78" pos="1680"/>
          <note pan="0" key="77" len="24" vol="78" pos="1704"/>
          <note pan="0" key="78" len="96" vol="78" pos="1728"/>
          <note pan="0" key="0" len="24" vol="78" pos="1812"/>
          <note pan="0" key="80" len="12" vol="78" pos="1824"/>
          <note pan="0" key="82" len="84" vol="78" pos="1836"/>
          <note pan="0" key="2" len="24" vol="78" pos="1836"/>
          <note pan="0" key="0" len="24" vol="78" pos="1896"/>
          <note pan="0" key="80" len="156" vol="78" pos="1920"/>
          <note pan="0" key="80" len="12" vol="78" pos="2076"/>
          <note pan="0" key="78" len="12" vol="78" pos="2088"/>
          <note pan="0" key="77" len="12" vol="78" pos="2100"/>
          <note pan="0" key="73" len="96" vol="78" pos="2112"/>
          <note pan="0" key="70" len="48" vol="78" pos="2208"/>
          <note pan="0" key="73" len="48" vol="78" pos="2256"/>
          <note pan="0" key="75" len="120" vol="78" pos="2304"/>
          <note pan="0" key="73" len="24" vol="78" pos="2424"/>
          <note pan="0" key="72" len="24" vol="78" pos="2448"/>
          <note pan="0" key="68" len="24" vol="78" pos="2472"/>
          <note pan="0" key="70" len="96" vol="78" pos="2496"/>
          <note pan="0" key="63" len="96" vol="78" pos="2592"/>
          <note pan="0" key="70" len="12" vol="78" pos="2688"/>
          <note pan="0" key="0" len="12" vol="78" pos="2688"/>
          <note pan="0" key="71" len="84" vol="78" pos="2700"/>
          <note pan="0" key="2" len="12" vol="78" pos="2700"/>
          <note pan="0" key="0" len="12" vol="78" pos="2712"/>
          <note pan="0" key="70" len="96" vol="78" pos="2784"/>
          <note pan="0" key="68" len="96" vol="78" pos="2880"/>
          <note pan="0" key="73" len="96" vol="78" pos="2976"/>
          <note pan="0" key="75" len="48" vol="78" pos="3072"/>
          <note pan="0" key="70" len="48" vol="78" pos="3120"/>
          <note pan="0" key="75" len="48" vol="78" pos="3168"/>
          <note pan="0" key="77" len="48" vol="78" pos="3216"/>
          <note pan="0" key="78" len="48" vol="78" pos="3264"/>
          <note pan="0" key="80" len="48" vol="78" pos="3312"/>
          <note pan="0" key="82" len="48" vol="78" pos="3360"/>
          <note pan="0" key="87" len="48" vol="78" pos="3408"/>
          <note pan="0" key="85" len="144" vol="78" pos="3456"/>
          <note pan="0" key="80" len="12" vol="78" pos="3600"/>
          <note pan="0" key="0" len="12" vol="78" pos="3600"/>
          <note pan="0" key="82" len="36" vol="78" pos="3612"/>
          <note pan="0" key="2" len="12" vol="78" pos="3612"/>
          <note pan="0" key="0" len="12" vol="78" pos="3624"/>
          <note pan="0" key="80" len="96" vol="78" pos="3648"/>
          <note pan="0" key="77" len="48" vol="78" pos="3744"/>
          <note pan="0" key="80" len="48" vol="78" pos="3792"/>
          <note pan="0" key="79" len="24" vol="78" pos="3840"/>
          <note pan="0" key="80" len="24" vol="78" pos="3864"/>
          <note pan="0" key="79" len="24" vol="78" pos="3888"/>
          <note pan="0" key="75" len="24" vol="78" pos="3912"/>
          <note pan="0" key="72" len="24" vol="78" pos="3936"/>
          <note pan="0" key="63" len="24" vol="78" pos="3960"/>
          <note pan="0" key="70" len="24" vol="78" pos="3984"/>
          <note pan="0" key="68" len="24" vol="78" pos="4008"/>
          <note pan="0" key="70" len="96" vol="78" pos="4032"/>
          <note pan="0" key="75" len="96" vol="78" pos="4128"/>
          <note pan="0" key="75" len="192" vol="78" pos="4224"/>
          <note pan="0" key="78" len="96" vol="78" pos="4416"/>
          <note pan="0" key="80" len="96" vol="78" pos="4512"/>
          <note pan="0" key="82" len="192" vol="78" pos="4608"/>
          <note pan="0" key="0" len="16" vol="78" pos="4608"/>
          <note pan="0" key="75" len="16" vol="78" pos="4800"/>
          <note pan="0" key="1" len="16" vol="78" pos="4800"/>
          <note pan="0" key="77" len="16" vol="78" pos="4816"/>
          <note pan="0" key="75" len="16" vol="78" pos="4832"/>
          <note pan="0" key="78" len="16" vol="78" pos="4848"/>
          <note pan="0" key="80" len="16" vol="78" pos="4864"/>
          <note pan="0" key="0" len="16" vol="78" pos="4864"/>
          <note pan="0" key="82" len="16" vol="78" pos="4880"/>
          <note pan="0" key="87" len="16" vol="78" pos="4896"/>
          <note pan="0" key="82" len="16" vol="78" pos="4912"/>
          <note pan="0" key="80" len="16" vol="78" pos="4928"/>
          <note pan="0" key="1" len="16" vol="78" pos="4928"/>
          <note pan="0" key="78" len="16" vol="78" pos="4944"/>
          <note pan="0" key="77" len="16" vol="78" pos="4960"/>
          <note pan="0" key="75" len="16" vol="78" pos="4976"/>
          <note pan="0" key="77" len="48" vol="78" pos="4992"/>
          <note pan="0" key="0" len="192" vol="78" pos="4992"/>
          <note pan="0" key="78" len="48" vol="78" pos="5040"/>
          <note pan="0" key="80" len="48" vol="78" pos="5088"/>
          <note pan="0" key="85" len="48" vol="78" pos="5136"/>
          <note pan="0" key="73" len="96" vol="78" pos="5184"/>
          <note pan="0" key="75" len="12" vol="78" pos="5280"/>
          <note pan="0" key="0" len="12" vol="78" pos="5280"/>
          <note pan="0" key="77" len="84" vol="78" pos="5292"/>
          <note pan="0" key="2" len="12" vol="78" pos="5292"/>
          <note pan="0" key="0" len="12" vol="78" pos="5304"/>
          <note pan="0" key="75" len="96" vol="78" pos="5376"/>
          <note pan="0" key="77" len="96" vol="78" pos="5472"/>
          <note pan="0" key="70" len="96" vol="78" pos="5568"/>
          <note pan="0" key="75" len="96" vol="78" pos="5664"/>
          <note pan="0" key="80" len="96" vol="78" pos="5760"/>
          <note pan="0" key="82" len="96" vol="78" pos="5856"/>
          <note pan="0" key="85" len="96" vol="200" pos="5952"/>
        </pattern>
      </track>
      <track solo="0" mutedBeforeSolo="1" muted="1" name="Violin" type="0">
        <instrumenttrack pan="0" basenote="57" pitch="0" usemasterpitch="1" vol="100" pitchrange="2" fxch="0">
          <instrument name="sf2player">
            <sf2player chorusLevel="2" patch="15" reverbOn="0" reverbWidth="0.5" gain="1" src="/home/pass/samples/soundfonts/Mystery Dungeon.sf2" bank="0" chorusDepth="8" reverbLevel="0.9" reverbDamping="0" reverbRoomSize="0.2" chorusOn="0" chorusNum="3" chorusSpeed="0.3">
              <key/>
            </sf2player>
          </instrument>
          <eldata fcut="14000" fres="0.5" ftype="0" fwet="0">
            <elvol lspd_syncmode="0" amt="0" lshp="0" lpdel="0" att="0" ctlenvamt="0" dec="0.5" userwavefile="" x100="0" rel="0.1" sustain="0.5" lspd_numerator="4" latt="0" lspd="0.1" lamt="0" lspd_denominator="4" hold="0.5" pdel="0"/>
            <elcut lspd_syncmode="0" amt="0" lshp="0" lpdel="0" att="0" ctlenvamt="0" dec="0.5" userwavefile="" x100="0" rel="0.1" sustain="0.5" lspd_numerator="4" latt="0" lspd="0.1" lamt="0" lspd_denominator="4" hold="0.5" pdel="0"/>
            <elres lspd_syncmode="0" amt="0" lshp="0" lpdel="0" att="0" ctlenvamt="0" dec="0.5" userwavefile="" x100="0" rel="0.1" sustain="0.5" lspd_numerator="4" latt="0" lspd="0.1" lamt="0" lspd_denominator="4" hold="0.5" pdel="0"/>
          </eldata>
          <chordcreator chordrange="1" chord-enabled="0" chord="0"/>
          <arpeggiator arprange="1" arpmode="0" arpcycle="0" arptime_syncmode="0" arptime_numerator="4" arpgate="100" arptime="200" arpskip="0" arpmiss="0" arp="0" arptime_denominator="4" arp-enabled="0" arpdir="0"/>
          <midiport inputcontroller="0" outputcontroller="0" readable="0" outputchannel="1" fixedoutputvelocity="-1" outputprogram="1" fixedinputvelocity="-1" fixedoutputnote="-1" inputchannel="0" basevelocity="63" writable="0"/>
          <fxchain enabled="0" numofeffects="0"/>
        </instrumenttrack>
        <pattern steps="16" muted="0" pos="0" name="" type="1">
          <note pan="0" key="61" len="384" vol="78" pos="0"/>
          <note pan="0" key="68" len="192" vol="78" pos="192"/>
          <note pan="0" key="64" len="384" vol="78" pos="384"/>
          <note pan="0" key="61" len="384" vol="78" pos="384"/>
          <note pan="0" key="52" len="384" vol="78" pos="384"/>
          <note pan="0" key="63" len="384" vol="78" pos="768"/>
          <note pan="0" key="59" len="384" vol="78" pos="768"/>
          <note pan="0" key="56" len="384" vol="78" pos="768"/>
          <note pan="0" key="61" len="384" vol="78" pos="1152"/>
          <note pan="0" key="56" len="384" vol="78" pos="1152"/>
          <note pan="0" key="49" len="384" vol="78" pos="1152"/>
          <note pan="0" key="59" len="384" vol="78" pos="1536"/>
          <note pan="0" key="57" len="384" vol="78" pos="1536"/>
          <note pan="0" key="49" len="384" vol="78" pos="1536"/>
          <note pan="0" key="64" len="24" vol="78" pos="1920"/>
          <note pan="0" key="56" len="24" vol="78" pos="1920"/>
          <note pan="0" key="64" len="24" vol="78" pos="1992"/>
          <note pan="0" key="56" len="24" vol="78" pos="1992"/>
          <note pan="0" key="64" len="24" vol="78" pos="2064"/>
          <note pan="0" key="56" len="24" vol="78" pos="2064"/>
          <note pan="0" key="64" len="24" vol="78" pos="2136"/>
          <note pan="0" key="56" len="24" vol="78" pos="2136"/>
          <note pan="0" key="64" len="24" vol="78" pos="2208"/>
          <note pan="0" key="56" len="24" vol="78" pos="2208"/>
          <note pan="0" key="64" len="24" vol="78" pos="2232"/>
          <note pan="0" key="56" len="24" vol="78" pos="2232"/>
          <note pan="0" key="64" len="24" vol="78" pos="2280"/>
          <note pan="0" key="56" len="24" vol="78" pos="2280"/>
          <note pan="0" key="63" len="24" vol="78" pos="2304"/>
          <note pan="0" key="56" len="24" vol="78" pos="2304"/>
          <note pan="0" key="63" len="24" vol="78" pos="2376"/>
          <note pan="0" key="56" len="24" vol="78" pos="2376"/>
          <note pan="0" key="63" len="24" vol="78" pos="2448"/>
          <note pan="0" key="56" len="24" vol="78" pos="2448"/>
          <note pan="0" key="63" len="24" vol="78" pos="2520"/>
          <note pan="0" key="56" len="24" vol="78" pos="2520"/>
          <note pan="0" key="63" len="24" vol="78" pos="2592"/>
          <note pan="0" key="56" len="24" vol="78" pos="2592"/>
          <note pan="0" key="63" len="24" vol="78" pos="2616"/>
          <note pan="0" key="56" len="24" vol="78" pos="2616"/>
          <note pan="0" key="63" len="24" vol="78" pos="2664"/>
          <note pan="0" key="56" len="24" vol="78" pos="2664"/>
          <note pan="0" key="61" len="24" vol="78" pos="2688"/>
          <note pan="0" key="58" len="24" vol="78" pos="2688"/>
          <note pan="0" key="61" len="24" vol="78" pos="2760"/>
          <note pan="0" key="58" len="24" vol="78" pos="2760"/>
          <note pan="0" key="61" len="24" vol="78" pos="2832"/>
          <note pan="0" key="58" len="24" vol="78" pos="2832"/>
          <note pan="0" key="61" len="24" vol="78" pos="2904"/>
          <note pan="0" key="58" len="24" vol="78" pos="2904"/>
          <note pan="0" key="61" len="24" vol="78" pos="2976"/>
          <note pan="0" key="58" len="24" vol="78" pos="2976"/>
          <note pan="0" key="61" len="24" vol="78" pos="3000"/>
          <note pan="0" key="58" len="24" vol="78" pos="3000"/>
          <note pan="0" key="61" len="24" vol="78" pos="3048"/>
          <note pan="0" key="58" len="24" vol="78" pos="3048"/>
          <note pan="0" key="61" len="24" vol="78" pos="3072"/>
          <note pan="0" key="57" len="24" vol="78" pos="3072"/>
          <note pan="0" key="61" len="24" vol="78" pos="3144"/>
          <note pan="0" key="57" len="24" vol="78" pos="3144"/>
          <note pan="0" key="61" len="24" vol="78" pos="3216"/>
          <note pan="0" key="57" len="24" vol="78" pos="3216"/>
          <note pan="0" key="69" len="192" vol="78" pos="3264"/>
          <note pan="0" key="61" len="192" vol="78" pos="3456"/>
          <note pan="0" key="61" len="192" vol="78" pos="3648"/>
          <note pan="0" key="61" len="192" vol="78" pos="3840"/>
          <note pan="0" key="59" len="192" vol="78" pos="4032"/>
          <note pan="0" key="61" len="192" vol="78" pos="4224"/>
          <note pan="0" key="61" len="192" vol="78" pos="4416"/>
          <note pan="0" key="61" len="192" vol="78" pos="4608"/>
          <note pan="0" key="59" len="192" vol="78" pos="4800"/>
        </pattern>
        <pattern steps="16" muted="0" pos="11136" name="" type="1">
          <note pan="0" key="59" len="384" vol="78" pos="0"/>
          <note pan="0" key="54" len="384" vol="78" pos="0"/>
          <note pan="0" key="61" len="384" vol="78" pos="384"/>
          <note pan="0" key="56" len="384" vol="78" pos="384"/>
          <note pan="0" key="61" len="384" vol="78" pos="768"/>
          <note pan="0" key="57" len="384" vol="78" pos="768"/>
          <note pan="0" key="63" len="384" vol="78" pos="1152"/>
          <note pan="0" key="59" len="384" vol="78" pos="1152"/>
          <note pan="0" key="61" len="384" vol="78" pos="1536"/>
          <note pan="0" key="56" len="384" vol="78" pos="1536"/>
          <note pan="0" key="52" len="384" vol="78" pos="1536"/>
          <note pan="0" key="59" len="384" vol="78" pos="1920"/>
          <note pan="0" key="54" len="192" vol="78" pos="1920"/>
          <note pan="0" key="51" len="192" vol="78" pos="1920"/>
          <note pan="0" key="52" len="96" vol="78" pos="2112"/>
          <note pan="0" key="47" len="192" vol="78" pos="2112"/>
          <note pan="0" key="54" len="96" vol="78" pos="2208"/>
          <note pan="0" key="61" len="384" vol="78" pos="2304"/>
          <note pan="0" key="56" len="384" vol="78" pos="2304"/>
          <note pan="0" key="52" len="384" vol="78" pos="2304"/>
          <note pan="0" key="66" len="384" vol="78" pos="2688"/>
          <note pan="0" key="59" len="384" vol="78" pos="2688"/>
          <note pan="0" key="54" len="384" vol="78" pos="2688"/>
          <note pan="0" key="61" len="24" vol="78" pos="3072"/>
          <note pan="0" key="57" len="24" vol="78" pos="3072"/>
          <note pan="0" key="61" len="24" vol="78" pos="3120"/>
          <note pan="0" key="57" len="24" vol="78" pos="3120"/>
          <note pan="0" key="61" len="24" vol="78" pos="3168"/>
          <note pan="0" key="57" len="24" vol="78" pos="3168"/>
          <note pan="0" key="61" len="24" vol="78" pos="3216"/>
          <note pan="0" key="57" len="24" vol="78" pos="3216"/>
          <note pan="0" key="61" len="24" vol="78" pos="3264"/>
          <note pan="0" key="57" len="24" vol="78" pos="3264"/>
          <note pan="0" key="61" len="24" vol="78" pos="3312"/>
          <note pan="0" key="57" len="24" vol="78" pos="3312"/>
          <note pan="0" key="61" len="24" vol="78" pos="3360"/>
          <note pan="0" key="57" len="24" vol="78" pos="3360"/>
          <note pan="0" key="61" len="24" vol="78" pos="3408"/>
          <note pan="0" key="57" len="24" vol="78" pos="3408"/>
          <note pan="0" key="61" len="24" vol="78" pos="3456"/>
          <note pan="0" key="56" len="24" vol="78" pos="3456"/>
          <note pan="0" key="52" len="24" vol="78" pos="3456"/>
          <note pan="0" key="61" len="24" vol="78" pos="3504"/>
          <note pan="0" key="56" len="24" vol="78" pos="3504"/>
          <note pan="0" key="52" len="24" vol="78" pos="3504"/>
          <note pan="0" key="61" len="24" vol="78" pos="3552"/>
          <note pan="0" key="56" len="24" vol="78" pos="3552"/>
          <note pan="0" key="52" len="24" vol="78" pos="3552"/>
          <note pan="0" key="61" len="24" vol="78" pos="3600"/>
          <note pan="0" key="56" len="24" vol="78" pos="3600"/>
          <note pan="0" key="52" len="24" vol="78" pos="3600"/>
          <note pan="0" key="61" len="24" vol="78" pos="3648"/>
          <note pan="0" key="56" len="24" vol="78" pos="3648"/>
          <note pan="0" key="51" len="24" vol="78" pos="3648"/>
          <note pan="0" key="61" len="24" vol="78" pos="3696"/>
          <note pan="0" key="56" len="24" vol="78" pos="3696"/>
          <note pan="0" key="51" len="24" vol="78" pos="3696"/>
          <note pan="0" key="61" len="24" vol="78" pos="3744"/>
          <note pan="0" key="56" len="24" vol="78" pos="3744"/>
          <note pan="0" key="51" len="24" vol="78" pos="3744"/>
          <note pan="0" key="61" len="24" vol="78" pos="3792"/>
          <note pan="0" key="56" len="24" vol="78" pos="3792"/>
          <note pan="0" key="51" len="24" vol="78" pos="3792"/>
        </pattern>
        <pattern steps="16" muted="0" pos="18816" name="" type="1">
          <note pan="0" key="59" len="384" vol="78" pos="0"/>
          <note pan="0" key="54" len="384" vol="78" pos="0"/>
          <note pan="0" key="61" len="384" vol="78" pos="384"/>
          <note pan="0" key="56" len="384" vol="78" pos="384"/>
          <note pan="0" key="61" len="384" vol="78" pos="768"/>
          <note pan="0" key="57" len="384" vol="78" pos="768"/>
          <note pan="0" key="63" len="384" vol="78" pos="1152"/>
          <note pan="0" key="59" len="384" vol="78" pos="1152"/>
          <note pan="0" key="59" len="384" vol="78" pos="1536"/>
          <note pan="0" key="54" len="384" vol="78" pos="1536"/>
          <note pan="0" key="61" len="384" vol="78" pos="1920"/>
          <note pan="0" key="56" len="384" vol="78" pos="1920"/>
          <note pan="0" key="61" len="384" vol="78" pos="2304"/>
          <note pan="0" key="57" len="384" vol="78" pos="2304"/>
          <note pan="0" key="63" len="384" vol="78" pos="2688"/>
          <note pan="0" key="59" len="384" vol="78" pos="2688"/>
          <note pan="0" key="56" len="192" vol="78" pos="3072"/>
          <note pan="0" key="52" len="192" vol="78" pos="3072"/>
          <note pan="0" key="54" len="192" vol="78" pos="3264"/>
          <note pan="0" key="51" len="192" vol="78" pos="3264"/>
          <note pan="0" key="56" len="384" vol="78" pos="3456"/>
          <note pan="0" key="52" len="384" vol="78" pos="3456"/>
          <note pan="0" key="49" len="384" vol="78" pos="3456"/>
          <note pan="0" key="56" len="192" vol="78" pos="3840"/>
          <note pan="0" key="49" len="192" vol="78" pos="3840"/>
          <note pan="0" key="47" len="192" vol="78" pos="3840"/>
          <note pan="0" key="54" len="192" vol="78" pos="4032"/>
          <note pan="0" key="51" len="192" vol="78" pos="4032"/>
          <note pan="0" key="47" len="192" vol="78" pos="4032"/>
          <note pan="0" key="49" len="384" vol="78" pos="4224"/>
          <note pan="0" key="47" len="192" vol="78" pos="4224"/>
          <note pan="0" key="44" len="384" vol="78" pos="4224"/>
          <note pan="0" key="56" len="192" vol="78" pos="4608"/>
          <note pan="0" key="47" len="192" vol="78" pos="4608"/>
          <note pan="0" key="57" len="192" vol="78" pos="4800"/>
          <note pan="0" key="49" len="192" vol="78" pos="4800"/>
          <note pan="0" key="59" len="192" vol="78" pos="4992"/>
          <note pan="0" key="52" len="192" vol="78" pos="4992"/>
          <note pan="0" key="64" len="192" vol="78" pos="5184"/>
          <note pan="0" key="56" len="192" vol="78" pos="5184"/>
          <note pan="0" key="61" len="384" vol="78" pos="5376"/>
          <note pan="0" key="54" len="384" vol="78" pos="5376"/>
          <note pan="0" key="61" len="384" vol="78" pos="5760"/>
          <note pan="0" key="52" len="384" vol="78" pos="5760"/>
          <note pan="0" key="68" len="192" vol="78" pos="6144"/>
          <note pan="0" key="64" len="192" vol="78" pos="6144"/>
          <note pan="0" key="66" len="192" vol="78" pos="6336"/>
          <note pan="0" key="63" len="192" vol="78" pos="6336"/>
          <note pan="0" key="68" len="384" vol="78" pos="6528"/>
          <note pan="0" key="64" len="384" vol="78" pos="6528"/>
          <note pan="0" key="61" len="384" vol="78" pos="6528"/>
          <note pan="0" key="68" len="192" vol="78" pos="6912"/>
          <note pan="0" key="61" len="192" vol="78" pos="6912"/>
          <note pan="0" key="59" len="192" vol="78" pos="6912"/>
          <note pan="0" key="66" len="192" vol="78" pos="7104"/>
          <note pan="0" key="63" len="192" vol="78" pos="7104"/>
          <note pan="0" key="59" len="192" vol="78" pos="7104"/>
          <note pan="0" key="61" len="384" vol="78" pos="7296"/>
          <note pan="0" key="58" len="384" vol="78" pos="7296"/>
          <note pan="0" key="56" len="384" vol="78" pos="7296"/>
          <note pan="0" key="68" len="192" vol="78" pos="7680"/>
          <note pan="0" key="59" len="192" vol="78" pos="7680"/>
          <note pan="0" key="69" len="192" vol="78" pos="7872"/>
          <note pan="0" key="61" len="192" vol="78" pos="7872"/>
          <note pan="0" key="71" len="192" vol="78" pos="8064"/>
          <note pan="0" key="64" len="192" vol="78" pos="8064"/>
          <note pan="0" key="76" len="192" vol="78" pos="8256"/>
          <note pan="0" key="68" len="192" vol="78" pos="8256"/>
          <note pan="0" key="73" len="384" vol="78" pos="8448"/>
          <note pan="0" key="66" len="384" vol="78" pos="8448"/>
          <note pan="0" key="73" len="384" vol="78" pos="8832"/>
          <note pan="0" key="64" len="384" vol="78" pos="8832"/>
          <note pan="0" key="68" len="384" vol="78" pos="9216"/>
          <note pan="0" key="61" len="384" vol="78" pos="9216"/>
          <note pan="0" key="49" len="48" vol="78" pos="9216"/>
          <note pan="0" key="45" len="48" vol="78" pos="9264"/>
          <note pan="0" key="47" len="48" vol="78" pos="9312"/>
          <note pan="0" key="49" len="48" vol="78" pos="9360"/>
          <note pan="0" key="51" len="48" vol="78" pos="9408"/>
          <note pan="0" key="52" len="48" vol="78" pos="9456"/>
          <note pan="0" key="51" len="48" vol="78" pos="9504"/>
          <note pan="0" key="47" len="48" vol="78" pos="9552"/>
          <note pan="0" key="68" len="384" vol="78" pos="9600"/>
          <note pan="0" key="61" len="384" vol="78" pos="9600"/>
          <note pan="0" key="49" len="48" vol="78" pos="9600"/>
          <note pan="0" key="47" len="48" vol="78" pos="9648"/>
          <note pan="0" key="49" len="48" vol="78" pos="9696"/>
          <note pan="0" key="51" len="48" vol="78" pos="9744"/>
          <note pan="0" key="56" len="192" vol="78" pos="9792"/>
          <note pan="0" key="56" len="192" vol="78" pos="9984"/>
          <note pan="0" key="52" len="192" vol="78" pos="9984"/>
          <note pan="0" key="57" len="192" vol="78" pos="10176"/>
          <note pan="0" key="54" len="192" vol="78" pos="10176"/>
          <note pan="0" key="59" len="192" vol="78" pos="10368"/>
          <note pan="0" key="56" len="192" vol="78" pos="10368"/>
          <note pan="0" key="54" len="192" vol="78" pos="10560"/>
          <note pan="0" key="49" len="192" vol="78" pos="10560"/>
          <note pan="0" key="56" len="192" vol="78" pos="10752"/>
          <note pan="0" key="52" len="192" vol="78" pos="10752"/>
          <note pan="0" key="57" len="192" vol="78" pos="10944"/>
          <note pan="0" key="54" len="192" vol="78" pos="10944"/>
          <note pan="0" key="59" len="192" vol="78" pos="11136"/>
          <note pan="0" key="56" len="192" vol="78" pos="11136"/>
          <note pan="0" key="54" len="192" vol="78" pos="11328"/>
          <note pan="0" key="51" len="192" vol="78" pos="11328"/>
          <note pan="0" key="54" len="192" vol="78" pos="11520"/>
          <note pan="0" key="49" len="192" vol="78" pos="11520"/>
          <note pan="0" key="61" len="192" vol="78" pos="11712"/>
          <note pan="0" key="56" len="192" vol="78" pos="11712"/>
          <note pan="0" key="59" len="192" vol="78" pos="11904"/>
          <note pan="0" key="54" len="192" vol="78" pos="11904"/>
          <note pan="0" key="57" len="192" vol="78" pos="12096"/>
          <note pan="0" key="52" len="192" vol="78" pos="12096"/>
          <note pan="0" key="56" len="384" vol="78" pos="12288"/>
          <note pan="0" key="51" len="384" vol="78" pos="12288"/>
          <note pan="0" key="56" len="384" vol="78" pos="12672"/>
          <note pan="0" key="47" len="384" vol="78" pos="12672"/>
          <note pan="0" key="56" len="192" vol="78" pos="13056"/>
          <note pan="0" key="52" len="192" vol="78" pos="13056"/>
          <note pan="0" key="57" len="192" vol="78" pos="13248"/>
          <note pan="0" key="54" len="192" vol="78" pos="13248"/>
          <note pan="0" key="59" len="192" vol="78" pos="13440"/>
          <note pan="0" key="56" len="192" vol="78" pos="13440"/>
          <note pan="0" key="54" len="192" vol="78" pos="13632"/>
          <note pan="0" key="49" len="192" vol="78" pos="13632"/>
          <note pan="0" key="56" len="192" vol="78" pos="13824"/>
          <note pan="0" key="52" len="192" vol="78" pos="13824"/>
          <note pan="0" key="57" len="192" vol="78" pos="14016"/>
          <note pan="0" key="54" len="192" vol="78" pos="14016"/>
          <note pan="0" key="59" len="192" vol="78" pos="14208"/>
          <note pan="0" key="56" len="192" vol="78" pos="14208"/>
          <note pan="0" key="54" len="192" vol="78" pos="14400"/>
          <note pan="0" key="51" len="192" vol="78" pos="14400"/>
          <note pan="0" key="54" len="192" vol="78" pos="14592"/>
          <note pan="0" key="49" len="192" vol="78" pos="14592"/>
          <note pan="0" key="61" len="192" vol="78" pos="14784"/>
          <note pan="0" key="56" len="192" vol="78" pos="14784"/>
          <note pan="0" key="59" len="192" vol="78" pos="14976"/>
          <note pan="0" key="54" len="192" vol="78" pos="14976"/>
          <note pan="0" key="57" len="192" vol="78" pos="15168"/>
          <note pan="0" key="52" len="192" vol="78" pos="15168"/>
          <note pan="0" key="56" len="384" vol="78" pos="15360"/>
          <note pan="0" key="51" len="384" vol="78" pos="15360"/>
          <note pan="0" key="56" len="192" vol="78" pos="15744"/>
          <note pan="0" key="47" len="192" vol="78" pos="15744"/>
          <note pan="0" key="61" len="192" vol="78" pos="16128"/>
          <note pan="0" key="61" len="192" vol="78" pos="16320"/>
          <note pan="0" key="61" len="192" vol="78" pos="16512"/>
          <note pan="0" key="59" len="192" vol="78" pos="16704"/>
          <note pan="0" key="61" len="192" vol="78" pos="16896"/>
          <note pan="0" key="61" len="192" vol="78" pos="17088"/>
          <note pan="0" key="61" len="192" vol="78" pos="17280"/>
          <note pan="0" key="59" len="192" vol="78" pos="17472"/>
        </pattern>
        <pattern steps="16" muted="0" pos="42624" name="" type="1">
          <note pan="0" key="59" len="384" vol="78" pos="0"/>
          <note pan="0" key="54" len="384" vol="78" pos="0"/>
          <note pan="0" key="61" len="384" vol="78" pos="384"/>
          <note pan="0" key="56" len="384" vol="78" pos="384"/>
          <note pan="0" key="61" len="384" vol="78" pos="768"/>
          <note pan="0" key="57" len="384" vol="78" pos="768"/>
          <note pan="0" key="63" len="384" vol="78" pos="1152"/>
          <note pan="0" key="59" len="384" vol="78" pos="1152"/>
          <note pan="0" key="61" len="384" vol="78" pos="1536"/>
          <note pan="0" key="56" len="384" vol="78" pos="1536"/>
          <note pan="0" key="52" len="384" vol="78" pos="1536"/>
          <note pan="0" key="59" len="384" vol="78" pos="1920"/>
          <note pan="0" key="54" len="192" vol="78" pos="1920"/>
          <note pan="0" key="51" len="192" vol="78" pos="1920"/>
          <note pan="0" key="52" len="96" vol="78" pos="2112"/>
          <note pan="0" key="47" len="192" vol="78" pos="2112"/>
          <note pan="0" key="54" len="96" vol="78" pos="2208"/>
          <note pan="0" key="61" len="384" vol="78" pos="2304"/>
          <note pan="0" key="56" len="384" vol="78" pos="2304"/>
          <note pan="0" key="52" len="384" vol="78" pos="2304"/>
          <note pan="0" key="66" len="384" vol="78" pos="2688"/>
          <note pan="0" key="59" len="384" vol="78" pos="2688"/>
          <note pan="0" key="54" len="384" vol="78" pos="2688"/>
          <note pan="0" key="61" len="24" vol="78" pos="3072"/>
          <note pan="0" key="57" len="24" vol="78" pos="3072"/>
          <note pan="0" key="61" len="24" vol="78" pos="3120"/>
          <note pan="0" key="57" len="24" vol="78" pos="3120"/>
          <note pan="0" key="61" len="24" vol="78" pos="3168"/>
          <note pan="0" key="57" len="24" vol="78" pos="3168"/>
          <note pan="0" key="61" len="24" vol="78" pos="3216"/>
          <note pan="0" key="57" len="24" vol="78" pos="3216"/>
          <note pan="0" key="61" len="24" vol="78" pos="3264"/>
          <note pan="0" key="57" len="24" vol="78" pos="3264"/>
          <note pan="0" key="61" len="24" vol="78" pos="3312"/>
          <note pan="0" key="57" len="24" vol="78" pos="3312"/>
          <note pan="0" key="61" len="24" vol="78" pos="3360"/>
          <note pan="0" key="57" len="24" vol="78" pos="3360"/>
          <note pan="0" key="61" len="24" vol="78" pos="3408"/>
          <note pan="0" key="57" len="24" vol="78" pos="3408"/>
          <note pan="0" key="61" len="24" vol="78" pos="3456"/>
          <note pan="0" key="56" len="24" vol="78" pos="3456"/>
          <note pan="0" key="52" len="24" vol="78" pos="3456"/>
          <note pan="0" key="61" len="24" vol="78" pos="3504"/>
          <note pan="0" key="56" len="24" vol="78" pos="3504"/>
          <note pan="0" key="52" len="24" vol="78" pos="3504"/>
          <note pan="0" key="61" len="24" vol="78" pos="3552"/>
          <note pan="0" key="56" len="24" vol="78" pos="3552"/>
          <note pan="0" key="52" len="24" vol="78" pos="3552"/>
          <note pan="0" key="61" len="24" vol="78" pos="3600"/>
          <note pan="0" key="56" len="24" vol="78" pos="3600"/>
          <note pan="0" key="52" len="24" vol="78" pos="3600"/>
          <note pan="0" key="61" len="24" vol="78" pos="3648"/>
          <note pan="0" key="56" len="24" vol="78" pos="3648"/>
          <note pan="0" key="51" len="24" vol="78" pos="3648"/>
          <note pan="0" key="61" len="24" vol="78" pos="3696"/>
          <note pan="0" key="56" len="24" vol="78" pos="3696"/>
          <note pan="0" key="51" len="24" vol="78" pos="3696"/>
          <note pan="0" key="61" len="24" vol="78" pos="3744"/>
          <note pan="0" key="56" len="24" vol="78" pos="3744"/>
          <note pan="0" key="51" len="24" vol="78" pos="3744"/>
          <note pan="0" key="61" len="24" vol="78" pos="3792"/>
          <note pan="0" key="56" len="24" vol="78" pos="3792"/>
          <note pan="0" key="51" len="24" vol="78" pos="3792"/>
        </pattern>
        <pattern steps="16" muted="0" pos="7296" name="" type="1">
          <note pan="0" key="69" len="24" vol="87" pos="0"/>
          <note pan="0" key="66" len="24" vol="87" pos="24"/>
          <note pan="0" key="69" len="24" vol="87" pos="48"/>
          <note pan="0" key="73" len="24" vol="87" pos="72"/>
          <note pan="0" key="76" len="48" vol="87" pos="96"/>
          <note pan="0" key="75" len="24" vol="87" pos="144"/>
          <note pan="0" key="73" len="24" vol="87" pos="168"/>
          <note pan="0" key="80" len="24" vol="87" pos="192"/>
          <note pan="0" key="78" len="24" vol="87" pos="216"/>
          <note pan="0" key="76" len="24" vol="87" pos="240"/>
          <note pan="0" key="75" len="24" vol="87" pos="264"/>
          <note pan="0" key="73" len="24" vol="87" pos="288"/>
          <note pan="0" key="75" len="24" vol="87" pos="312"/>
          <note pan="0" key="76" len="24" vol="87" pos="336"/>
          <note pan="0" key="80" len="24" vol="87" pos="360"/>
          <note pan="0" key="82" len="48" vol="87" pos="384"/>
          <note pan="0" key="78" len="48" vol="87" pos="432"/>
          <note pan="0" key="75" len="48" vol="87" pos="480"/>
          <note pan="0" key="70" len="48" vol="87" pos="528"/>
          <note pan="0" key="68" len="24" vol="87" pos="576"/>
          <note pan="0" key="72" len="24" vol="87" pos="600"/>
          <note pan="0" key="75" len="24" vol="87" pos="624"/>
          <note pan="0" key="78" len="24" vol="87" pos="648"/>
          <note pan="0" key="81" len="24" vol="87" pos="672"/>
          <note pan="0" key="84" len="24" vol="87" pos="696"/>
          <note pan="0" key="87" len="24" vol="87" pos="720"/>
          <note pan="0" key="90" len="24" vol="87" pos="744"/>
        </pattern>
      </track>
      <track solo="0" mutedBeforeSolo="1" muted="1" name="Mystery Dungeon" type="0">
        <instrumenttrack pan="0" basenote="57" pitch="0" usemasterpitch="1" vol="100" pitchrange="2" fxch="0">
          <instrument name="sf2player">
            <sf2player chorusLevel="2" patch="14" reverbOn="0" reverbWidth="0.5" gain="1" src="/home/pass/samples/soundfonts/Mystery Dungeon.sf2" bank="0" chorusDepth="8" reverbLevel="0.9" reverbDamping="0" reverbRoomSize="0.2" chorusOn="0" chorusNum="3" chorusSpeed="0.3">
              <key/>
            </sf2player>
          </instrument>
          <eldata fcut="14000" fres="0.5" ftype="0" fwet="0">
            <elvol lspd_syncmode="0" amt="0" lshp="0" lpdel="0" att="0" ctlenvamt="0" dec="0.5" userwavefile="" x100="0" rel="0.1" sustain="0.5" lspd_numerator="4" latt="0" lspd="0.1" lamt="0" lspd_denominator="4" hold="0.5" pdel="0"/>
            <elcut lspd_syncmode="0" amt="0" lshp="0" lpdel="0" att="0" ctlenvamt="0" dec="0.5" userwavefile="" x100="0" rel="0.1" sustain="0.5" lspd_numerator="4" latt="0" lspd="0.1" lamt="0" lspd_denominator="4" hold="0.5" pdel="0"/>
            <elres lspd_syncmode="0" amt="0" lshp="0" lpdel="0" att="0" ctlenvamt="0" dec="0.5" userwavefile="" x100="0" rel="0.1" sustain="0.5" lspd_numerator="4" latt="0" lspd="0.1" lamt="0" lspd_denominator="4" hold="0.5" pdel="0"/>
          </eldata>
          <chordcreator chordrange="1" chord-enabled="0" chord="0"/>
          <arpeggiator arprange="1" arpmode="0" arpcycle="0" arptime_syncmode="0" arptime_numerator="4" arpgate="100" arptime="200" arpskip="0" arpmiss="0" arp="0" arptime_denominator="4" arp-enabled="0" arpdir="0"/>
          <midiport inputcontroller="0" outputcontroller="0" readable="0" outputchannel="1" fixedoutputvelocity="-1" outputprogram="1" fixedinputvelocity="-1" fixedoutputnote="-1" inputchannel="0" basevelocity="63" writable="0"/>
          <fxchain enabled="0" numofeffects="0"/>
        </instrumenttrack>
        <pattern steps="16" muted="0" pos="24960" name="Sf2 Player" type="1">
          <note pan="0" key="73" len="24" vol="78" pos="0"/>
          <note pan="0" key="69" len="24" vol="78" pos="24"/>
          <note pan="0" key="64" len="24" vol="78" pos="48"/>
          <note pan="0" key="61" len="24" vol="78" pos="72"/>
          <note pan="0" key="69" len="24" vol="78" pos="96"/>
          <note pan="0" key="64" len="24" vol="78" pos="120"/>
          <note pan="0" key="61" len="24" vol="78" pos="144"/>
          <note pan="0" key="57" len="24" vol="78" pos="168"/>
          <note pan="0" key="71" len="24" vol="78" pos="192"/>
          <note pan="0" key="68" len="24" vol="78" pos="216"/>
          <note pan="0" key="63" len="24" vol="78" pos="240"/>
          <note pan="0" key="59" len="24" vol="78" pos="264"/>
          <note pan="0" key="71" len="24" vol="78" pos="288"/>
          <note pan="0" key="68" len="24" vol="78" pos="312"/>
          <note pan="0" key="63" len="24" vol="78" pos="336"/>
          <note pan="0" key="59" len="24" vol="78" pos="360"/>
          <note pan="0" key="73" len="24" vol="78" pos="384"/>
          <note pan="0" key="68" len="24" vol="78" pos="408"/>
          <note pan="0" key="64" len="24" vol="78" pos="432"/>
          <note pan="0" key="61" len="24" vol="78" pos="456"/>
          <note pan="0" key="68" len="24" vol="78" pos="480"/>
          <note pan="0" key="64" len="24" vol="78" pos="504"/>
          <note pan="0" key="61" len="24" vol="78" pos="528"/>
          <note pan="0" key="56" len="24" vol="78" pos="552"/>
          <note pan="0" key="73" len="24" vol="78" pos="576"/>
          <note pan="0" key="68" len="24" vol="78" pos="600"/>
          <note pan="0" key="64" len="24" vol="78" pos="624"/>
          <note pan="0" key="61" len="24" vol="78" pos="648"/>
          <note pan="0" key="68" len="24" vol="78" pos="672"/>
          <note pan="0" key="64" len="24" vol="78" pos="696"/>
          <note pan="0" key="61" len="24" vol="78" pos="720"/>
          <note pan="0" key="56" len="24" vol="78" pos="744"/>
          <note pan="0" key="73" len="24" vol="78" pos="768"/>
          <note pan="0" key="68" len="24" vol="78" pos="792"/>
          <note pan="0" key="66" len="24" vol="78" pos="816"/>
          <note pan="0" key="61" len="24" vol="78" pos="840"/>
          <note pan="0" key="68" len="24" vol="78" pos="864"/>
          <note pan="0" key="66" len="24" vol="78" pos="888"/>
          <note pan="0" key="61" len="24" vol="78" pos="912"/>
          <note pan="0" key="59" len="24" vol="78" pos="936"/>
          <note pan="0" key="73" len="24" vol="78" pos="960"/>
          <note pan="0" key="68" len="24" vol="78" pos="984"/>
          <note pan="0" key="66" len="24" vol="78" pos="1008"/>
          <note pan="0" key="61" len="24" vol="78" pos="1032"/>
          <note pan="0" key="68" len="24" vol="78" pos="1056"/>
          <note pan="0" key="66" len="24" vol="78" pos="1080"/>
          <note pan="0" key="61" len="24" vol="78" pos="1104"/>
          <note pan="0" key="57" len="24" vol="78" pos="1128"/>
          <note pan="0" key="73" len="24" vol="78" pos="1152"/>
          <note pan="0" key="70" len="24" vol="78" pos="1176"/>
          <note pan="0" key="66" len="24" vol="78" pos="1200"/>
          <note pan="0" key="61" len="24" vol="78" pos="1224"/>
          <note pan="0" key="70" len="24" vol="78" pos="1248"/>
          <note pan="0" key="66" len="24" vol="78" pos="1272"/>
          <note pan="0" key="61" len="24" vol="78" pos="1296"/>
          <note pan="0" key="58" len="24" vol="78" pos="1320"/>
          <note pan="0" key="73" len="24" vol="78" pos="1344"/>
          <note pan="0" key="70" len="24" vol="78" pos="1368"/>
          <note pan="0" key="66" len="24" vol="78" pos="1392"/>
          <note pan="0" key="61" len="24" vol="78" pos="1416"/>
          <note pan="0" key="70" len="24" vol="78" pos="1440"/>
          <note pan="0" key="66" len="24" vol="78" pos="1464"/>
          <note pan="0" key="61" len="24" vol="78" pos="1488"/>
          <note pan="0" key="58" len="24" vol="78" pos="1512"/>
          <note pan="0" key="73" len="24" vol="78" pos="1536"/>
          <note pan="0" key="69" len="24" vol="78" pos="1560"/>
          <note pan="0" key="66" len="24" vol="78" pos="1584"/>
          <note pan="0" key="61" len="24" vol="78" pos="1608"/>
          <note pan="0" key="69" len="24" vol="78" pos="1632"/>
          <note pan="0" key="66" len="24" vol="78" pos="1656"/>
          <note pan="0" key="61" len="24" vol="78" pos="1680"/>
          <note pan="0" key="57" len="24" vol="78" pos="1704"/>
          <note pan="0" key="73" len="24" vol="78" pos="1728"/>
          <note pan="0" key="69" len="24" vol="78" pos="1752"/>
          <note pan="0" key="66" len="24" vol="78" pos="1776"/>
          <note pan="0" key="61" len="24" vol="78" pos="1800"/>
          <note pan="0" key="69" len="24" vol="78" pos="1824"/>
          <note pan="0" key="66" len="24" vol="78" pos="1848"/>
          <note pan="0" key="61" len="24" vol="78" pos="1872"/>
          <note pan="0" key="57" len="24" vol="78" pos="1896"/>
          <note pan="0" key="73" len="24" vol="78" pos="1920"/>
          <note pan="0" key="69" len="24" vol="78" pos="1944"/>
          <note pan="0" key="66" len="24" vol="78" pos="1968"/>
          <note pan="0" key="61" len="24" vol="78" pos="1992"/>
          <note pan="0" key="69" len="24" vol="78" pos="2016"/>
          <note pan="0" key="66" len="24" vol="78" pos="2040"/>
          <note pan="0" key="61" len="24" vol="78" pos="2064"/>
          <note pan="0" key="57" len="24" vol="78" pos="2088"/>
          <note pan="0" key="69" len="24" vol="78" pos="2112"/>
          <note pan="0" key="73" len="24" vol="78" pos="2136"/>
          <note pan="0" key="76" len="24" vol="78" pos="2160"/>
          <note pan="0" key="73" len="24" vol="78" pos="2184"/>
          <note pan="0" key="78" len="24" vol="78" pos="2208"/>
          <note pan="0" key="73" len="24" vol="78" pos="2232"/>
          <note pan="0" key="78" len="24" vol="78" pos="2256"/>
          <note pan="0" key="73" len="24" vol="78" pos="2280"/>
          <note pan="0" key="78" len="24" vol="78" pos="2304"/>
          <note pan="0" key="71" len="24" vol="78" pos="2328"/>
          <note pan="0" key="78" len="24" vol="78" pos="2352"/>
          <note pan="0" key="71" len="24" vol="78" pos="2376"/>
          <note pan="0" key="78" len="24" vol="78" pos="2400"/>
          <note pan="0" key="71" len="24" vol="78" pos="2424"/>
          <note pan="0" key="78" len="24" vol="78" pos="2448"/>
          <note pan="0" key="71" len="24" vol="78" pos="2472"/>
          <note pan="0" key="73" len="24" vol="78" pos="2496"/>
          <note pan="0" key="69" len="24" vol="78" pos="2520"/>
          <note pan="0" key="66" len="24" vol="78" pos="2544"/>
          <note pan="0" key="61" len="24" vol="78" pos="2568"/>
          <note pan="0" key="69" len="24" vol="78" pos="2592"/>
          <note pan="0" key="66" len="24" vol="78" pos="2616"/>
          <note pan="0" key="61" len="24" vol="78" pos="2640"/>
          <note pan="0" key="57" len="24" vol="78" pos="2664"/>
          <note pan="0" key="73" len="24" vol="78" pos="2688"/>
          <note pan="0" key="69" len="24" vol="78" pos="2712"/>
          <note pan="0" key="66" len="24" vol="78" pos="2736"/>
          <note pan="0" key="61" len="24" vol="78" pos="2760"/>
          <note pan="0" key="69" len="24" vol="78" pos="2784"/>
          <note pan="0" key="66" len="24" vol="78" pos="2808"/>
          <note pan="0" key="61" len="24" vol="78" pos="2832"/>
          <note pan="0" key="57" len="24" vol="78" pos="2856"/>
          <note pan="0" key="73" len="24" vol="78" pos="2880"/>
          <note pan="0" key="69" len="24" vol="78" pos="2904"/>
          <note pan="0" key="66" len="24" vol="78" pos="2928"/>
          <note pan="0" key="61" len="24" vol="78" pos="2952"/>
          <note pan="0" key="69" len="24" vol="78" pos="2976"/>
          <note pan="0" key="66" len="24" vol="78" pos="3000"/>
          <note pan="0" key="61" len="24" vol="78" pos="3024"/>
          <note pan="0" key="57" len="24" vol="78" pos="3048"/>
        </pattern>
        <pattern steps="16" muted="0" pos="56448" name="Sf2 Player" type="1">
          <note pan="0" key="73" len="24" vol="78" pos="0"/>
          <note pan="0" key="69" len="24" vol="78" pos="24"/>
          <note pan="0" key="64" len="24" vol="78" pos="48"/>
          <note pan="0" key="61" len="24" vol="78" pos="72"/>
          <note pan="0" key="69" len="24" vol="78" pos="96"/>
          <note pan="0" key="64" len="24" vol="78" pos="120"/>
          <note pan="0" key="61" len="24" vol="78" pos="144"/>
          <note pan="0" key="57" len="24" vol="78" pos="168"/>
          <note pan="0" key="71" len="24" vol="78" pos="192"/>
          <note pan="0" key="68" len="24" vol="78" pos="216"/>
          <note pan="0" key="63" len="24" vol="78" pos="240"/>
          <note pan="0" key="59" len="24" vol="78" pos="264"/>
          <note pan="0" key="71" len="24" vol="78" pos="288"/>
          <note pan="0" key="68" len="24" vol="78" pos="312"/>
          <note pan="0" key="63" len="24" vol="78" pos="336"/>
          <note pan="0" key="59" len="24" vol="78" pos="360"/>
          <note pan="0" key="73" len="24" vol="78" pos="384"/>
          <note pan="0" key="68" len="24" vol="78" pos="408"/>
          <note pan="0" key="64" len="24" vol="78" pos="432"/>
          <note pan="0" key="61" len="24" vol="78" pos="456"/>
          <note pan="0" key="68" len="24" vol="78" pos="480"/>
          <note pan="0" key="64" len="24" vol="78" pos="504"/>
          <note pan="0" key="61" len="24" vol="78" pos="528"/>
          <note pan="0" key="56" len="24" vol="78" pos="552"/>
          <note pan="0" key="73" len="24" vol="78" pos="576"/>
          <note pan="0" key="68" len="24" vol="78" pos="600"/>
          <note pan="0" key="64" len="24" vol="78" pos="624"/>
          <note pan="0" key="61" len="24" vol="78" pos="648"/>
          <note pan="0" key="68" len="24" vol="78" pos="672"/>
          <note pan="0" key="64" len="24" vol="78" pos="696"/>
          <note pan="0" key="61" len="24" vol="78" pos="720"/>
          <note pan="0" key="56" len="24" vol="78" pos="744"/>
          <note pan="0" key="73" len="24" vol="78" pos="768"/>
          <note pan="0" key="68" len="24" vol="78" pos="792"/>
          <note pan="0" key="66" len="24" vol="78" pos="816"/>
          <note pan="0" key="61" len="24" vol="78" pos="840"/>
          <note pan="0" key="68" len="24" vol="78" pos="864"/>
          <note pan="0" key="66" len="24" vol="78" pos="888"/>
          <note pan="0" key="61" len="24" vol="78" pos="912"/>
          <note pan="0" key="59" len="24" vol="78" pos="936"/>
          <note pan="0" key="73" len="24" vol="78" pos="960"/>
          <note pan="0" key="68" len="24" vol="78" pos="984"/>
          <note pan="0" key="66" len="24" vol="78" pos="1008"/>
          <note pan="0" key="61" len="24" vol="78" pos="1032"/>
          <note pan="0" key="68" len="24" vol="78" pos="1056"/>
          <note pan="0" key="66" len="24" vol="78" pos="1080"/>
          <note pan="0" key="61" len="24" vol="78" pos="1104"/>
          <note pan="0" key="57" len="24" vol="78" pos="1128"/>
          <note pan="0" key="73" len="24" vol="78" pos="1152"/>
          <note pan="0" key="70" len="24" vol="78" pos="1176"/>
          <note pan="0" key="66" len="24" vol="78" pos="1200"/>
          <note pan="0" key="61" len="24" vol="78" pos="1224"/>
          <note pan="0" key="70" len="24" vol="78" pos="1248"/>
          <note pan="0" key="66" len="24" vol="78" pos="1272"/>
          <note pan="0" key="61" len="24" vol="78" pos="1296"/>
          <note pan="0" key="58" len="24" vol="78" pos="1320"/>
          <note pan="0" key="73" len="24" vol="78" pos="1344"/>
          <note pan="0" key="70" len="24" vol="78" pos="1368"/>
          <note pan="0" key="66" len="24" vol="78" pos="1392"/>
          <note pan="0" key="61" len="24" vol="78" pos="1416"/>
          <note pan="0" key="70" len="24" vol="78" pos="1440"/>
          <note pan="0" key="66" len="24" vol="78" pos="1464"/>
          <note pan="0" key="61" len="24" vol="78" pos="1488"/>
          <note pan="0" key="58" len="24" vol="78" pos="1512"/>
          <note pan="0" key="73" len="24" vol="78" pos="1536"/>
          <note pan="0" key="69" len="24" vol="78" pos="1560"/>
          <note pan="0" key="66" len="24" vol="78" pos="1584"/>
          <note pan="0" key="61" len="24" vol="78" pos="1608"/>
          <note pan="0" key="69" len="24" vol="78" pos="1632"/>
          <note pan="0" key="66" len="24" vol="78" pos="1656"/>
          <note pan="0" key="61" len="24" vol="78" pos="1680"/>
          <note pan="0" key="57" len="24" vol="78" pos="1704"/>
          <note pan="0" key="73" len="24" vol="78" pos="1728"/>
          <note pan="0" key="69" len="24" vol="78" pos="1752"/>
          <note pan="0" key="66" len="24" vol="78" pos="1776"/>
          <note pan="0" key="61" len="24" vol="78" pos="1800"/>
          <note pan="0" key="69" len="24" vol="78" pos="1824"/>
          <note pan="0" key="66" len="24" vol="78" pos="1848"/>
          <note pan="0" key="61" len="24" vol="78" pos="1872"/>
          <note pan="0" key="57" len="24" vol="78" pos="1896"/>
          <note pan="0" key="73" len="24" vol="78" pos="1920"/>
          <note pan="0" key="69" len="24" vol="78" pos="1944"/>
          <note pan="0" key="66" len="24" vol="78" pos="1968"/>
          <note pan="0" key="61" len="24" vol="78" pos="1992"/>
          <note pan="0" key="69" len="24" vol="78" pos="2016"/>
          <note pan="0" key="66" len="24" vol="78" pos="2040"/>
          <note pan="0" key="61" len="24" vol="78" pos="2064"/>
          <note pan="0" key="57" len="24" vol="78" pos="2088"/>
          <note pan="0" key="69" len="24" vol="78" pos="2112"/>
          <note pan="0" key="73" len="24" vol="78" pos="2136"/>
          <note pan="0" key="76" len="24" vol="78" pos="2160"/>
          <note pan="0" key="73" len="24" vol="78" pos="2184"/>
          <note pan="0" key="78" len="24" vol="78" pos="2208"/>
          <note pan="0" key="73" len="24" vol="78" pos="2232"/>
          <note pan="0" key="78" len="24" vol="78" pos="2256"/>
          <note pan="0" key="73" len="24" vol="78" pos="2280"/>
          <note pan="0" key="78" len="24" vol="78" pos="2304"/>
          <note pan="0" key="71" len="24" vol="78" pos="2328"/>
          <note pan="0" key="78" len="24" vol="78" pos="2352"/>
          <note pan="0" key="71" len="24" vol="78" pos="2376"/>
          <note pan="0" key="78" len="24" vol="78" pos="2400"/>
          <note pan="0" key="71" len="24" vol="78" pos="2424"/>
          <note pan="0" key="78" len="24" vol="78" pos="2448"/>
          <note pan="0" key="71" len="24" vol="78" pos="2472"/>
          <note pan="0" key="73" len="24" vol="78" pos="2496"/>
          <note pan="0" key="69" len="24" vol="78" pos="2520"/>
          <note pan="0" key="66" len="24" vol="78" pos="2544"/>
          <note pan="0" key="61" len="24" vol="78" pos="2568"/>
          <note pan="0" key="69" len="24" vol="78" pos="2592"/>
          <note pan="0" key="66" len="24" vol="78" pos="2616"/>
          <note pan="0" key="61" len="24" vol="78" pos="2640"/>
          <note pan="0" key="57" len="24" vol="78" pos="2664"/>
          <note pan="0" key="73" len="24" vol="78" pos="2688"/>
          <note pan="0" key="69" len="24" vol="78" pos="2712"/>
          <note pan="0" key="66" len="24" vol="78" pos="2736"/>
          <note pan="0" key="61" len="24" vol="78" pos="2760"/>
          <note pan="0" key="69" len="24" vol="78" pos="2784"/>
          <note pan="0" key="66" len="24" vol="78" pos="2808"/>
          <note pan="0" key="61" len="24" vol="78" pos="2832"/>
          <note pan="0" key="57" len="24" vol="78" pos="2856"/>
          <note pan="0" key="73" len="24" vol="78" pos="2880"/>
          <note pan="0" key="69" len="24" vol="78" pos="2904"/>
          <note pan="0" key="66" len="24" vol="78" pos="2928"/>
          <note pan="0" key="61" len="24" vol="78" pos="2952"/>
          <note pan="0" key="69" len="24" vol="78" pos="2976"/>
          <note pan="0" key="66" len="24" vol="78" pos="3000"/>
          <note pan="0" key="61" len="24" vol="78" pos="3024"/>
          <note pan="0" key="57" len="24" vol="78" pos="3048"/>
        </pattern>
      </track>
      <track solo="0" mutedBeforeSolo="0" muted="0" name="Beat/Bassline 10" type="1">
        <bbtrack/>
        <bbtco muted="0" len="768" pos="3456" name=""/>
        <bbtco muted="0" len="768" pos="34944" name=""/>
      </track>
      <track solo="0" mutedBeforeSolo="0" muted="0" name="Clone of Beat/Bassline 10" type="1">
        <bbtrack/>
        <bbtco muted="0" len="768" pos="62592" name=""/>
      </track>
      <track solo="0" mutedBeforeSolo="0" muted="0" name="Clone of Beat/Bassline 11" type="1">
        <bbtrack/>
      </track>
      <track solo="0" mutedBeforeSolo="0" muted="0" name="Beat/Bassline 15" type="1">
        <bbtrack/>
        <bbtco muted="0" len="384" pos="3072" name=""/>
      </track>
      <track solo="0" mutedBeforeSolo="0" muted="0" name="Beat/Bassline 16" type="1">
        <bbtrack/>
        <bbtco muted="0" len="192" pos="7872" name=""/>
        <bbtco muted="0" len="192" pos="39360" name=""/>
      </track>
      <track solo="0" mutedBeforeSolo="0" muted="0" name="Beat/Bassline 17" type="1">
        <bbtrack/>
        <bbtco muted="0" len="384" pos="13824" name=""/>
      </track>
      <track solo="0" mutedBeforeSolo="0" muted="0" name="Beat/Bassline 20" type="1">
        <bbtrack/>
        <bbtco muted="0" len="768" pos="25728" name=""/>
      </track>
      <track solo="0" mutedBeforeSolo="0" muted="0" name="Clone of Beat/Bassline 20" type="1">
        <bbtrack/>
        <bbtco muted="0" len="768" pos="24960" name=""/>
      </track>
      <track solo="0" mutedBeforeSolo="0" muted="0" name="Clone of Beat/Bassline 20" type="1">
        <bbtrack/>
        <bbtco muted="0" len="768" pos="26496" name=""/>
      </track>
      <track solo="0" mutedBeforeSolo="0" muted="0" name="Clone of Clone of Beat/Bassline 20" type="1">
        <bbtrack/>
        <bbtco muted="0" len="768" pos="27264" name=""/>
        <bbtco muted="0" len="576" pos="28032" name=""/>
      </track>
      <track solo="0" mutedBeforeSolo="0" muted="0" name="Beat/Bassline 23" type="1">
        <bbtrack/>
        <bbtco muted="0" len="3072" pos="28800" name=""/>
        <bbtco muted="0" len="3072" pos="56448" name=""/>
      </track>
      <track solo="0" mutedBeforeSolo="0" muted="0" name="Automation track" type="5">
        <automationtrack/>
        <automationpattern tens="1" mute="0" prog="0" len="192" pos="0" name="AM pitchshifter>Effect enabled">
          <time value="0" pos="0"/>
        </automationpattern>
        <automationpattern tens="1" mute="0" prog="0" len="192" pos="13248" name="AM pitchshifter>Effect enabled">
          <time value="1" pos="0"/>
        </automationpattern>
        <automationpattern tens="1" mute="0" prog="0" len="192" pos="13824" name="AM pitchshifter>Effect enabled">
          <time value="0" pos="0"/>
        </automationpattern>
      </track>
      <track solo="0" mutedBeforeSolo="1" muted="1" name="its not over yet kid.wav" type="0">
        <instrumenttrack pan="0" basenote="57" pitch="0" usemasterpitch="1" vol="139.2" pitchrange="1" fxch="0">
          <instrument name="audiofileprocessor">
            <audiofileprocessor stutter="0" amp="100" reversed="0" src="/home/pass/samples/its not over yet kid.wav" interp="1" eframe="1" looped="0" sframe="0" lframe="0">
              <key/>
            </audiofileprocessor>
          </instrument>
          <eldata fcut="14000" fres="0.5" ftype="0" fwet="0">
            <elvol lspd_syncmode="0" amt="0" lshp="0" lpdel="0" att="0" ctlenvamt="0" dec="0.5" userwavefile="" x100="0" rel="0.1" sustain="0.5" lspd_numerator="4" latt="0" lspd="0.1" lamt="0" lspd_denominator="4" hold="0.5" pdel="0"/>
            <elcut lspd_syncmode="0" amt="0" lshp="0" lpdel="0" att="0" ctlenvamt="0" dec="0.5" userwavefile="" x100="0" rel="0.1" sustain="0.5" lspd_numerator="4" latt="0" lspd="0.1" lamt="0" lspd_denominator="4" hold="0.5" pdel="0"/>
            <elres lspd_syncmode="0" amt="0" lshp="0" lpdel="0" att="0" ctlenvamt="0" dec="0.5" userwavefile="" x100="0" rel="0.1" sustain="0.5" lspd_numerator="4" latt="0" lspd="0.1" lamt="0" lspd_denominator="4" hold="0.5" pdel="0"/>
          </eldata>
          <chordcreator chordrange="1" chord-enabled="0" chord="0"/>
          <arpeggiator arprange="1" arpmode="0" arpcycle="0" arptime_syncmode="0" arptime_numerator="4" arpgate="100" arptime="200" arpskip="0" arpmiss="0" arp="0" arptime_denominator="4" arp-enabled="0" arpdir="0"/>
          <midiport inputcontroller="0" outputcontroller="0" readable="0" outputchannel="1" fixedoutputvelocity="-1" outputprogram="1" fixedinputvelocity="-1" fixedoutputnote="-1" inputchannel="0" basevelocity="63" writable="0"/>
          <fxchain enabled="0" numofeffects="0"/>
        </instrumenttrack>
        <pattern steps="16" muted="0" pos="43584" name="" type="1">
          <note pan="0" key="57" len="756" vol="78" pos="0"/>
        </pattern>
        <pattern steps="16" muted="0" pos="37632" name="" type="0"/>
        <pattern steps="16" muted="0" pos="34944" name="" type="0"/>
      </track>
      <track solo="0" mutedBeforeSolo="0" muted="0" name="Beat/Bassline 25" type="1">
        <bbtrack/>
        <bbtco muted="0" len="192" pos="47040" name=""/>
      </track>
      <track solo="0" mutedBeforeSolo="0" muted="0" name="Beat/Bassline 26" type="1">
        <bbtrack/>
        <bbtco muted="0" len="2880" pos="50304" name=""/>
      </track>
      <track solo="0" mutedBeforeSolo="0" muted="0" name="Beat/Bassline 28" type="1">
        <bbtrack/>
        <bbtco muted="0" len="192" pos="53184" name=""/>
      </track>
      <track solo="0" mutedBeforeSolo="0" muted="0" name="Beat/Bassline 32" type="1">
        <bbtrack/>
      </track>
      <track solo="0" mutedBeforeSolo="0" muted="0" name="Beat/Bassline 33" type="1">
        <bbtrack/>
      </track>
      <track solo="0" mutedBeforeSolo="0" muted="0" name="lgtH1" type="2">
        <sampletrack pan="-84" vol="100" fxch="21">
          <fxchain enabled="0" numofeffects="0"/>
        </sampletrack>
        <sampletco muted="0" src="/home/pass/Music/ardour projects/scourge of the universe/export/lgtH1.wav" len="64800" pos="0" sample_rate="44100" off="0"/>
      </track>
      <track solo="0" mutedBeforeSolo="0" muted="0" name="Beat/Bassline 34" type="1">
        <bbtrack/>
        <bbtco muted="0" len="768" pos="63744" name=""/>
      </track>
      <track solo="0" mutedBeforeSolo="0" muted="0" name="rgt1" type="2">
        <sampletrack pan="-100" vol="100" fxch="19">
          <fxchain enabled="0" numofeffects="0"/>
        </sampletrack>
        <sampletco muted="0" src="/home/pass/Music/ardour projects/scourge of the universe/export/rgt1.wav" len="64992" pos="0" sample_rate="44100" off="0"/>
      </track>
      <track solo="0" mutedBeforeSolo="0" muted="0" name="rgt2" type="2">
        <sampletrack pan="100" vol="100" fxch="19">
          <fxchain enabled="0" numofeffects="0"/>
        </sampletrack>
        <sampletco muted="0" src="/home/pass/Music/ardour projects/scourge of the universe/export/rgt2.wav" len="64992" pos="0" sample_rate="44100" off="0"/>
      </track>
      <track solo="0" mutedBeforeSolo="0" muted="0" name="lgtS" type="2">
        <sampletrack pan="0" vol="100" fxch="20">
          <fxchain enabled="0" numofeffects="0"/>
        </sampletrack>
        <sampletco muted="0" src="/home/pass/Music/ardour projects/scourge of the universe/export/lgtS.wav" len="64224" pos="0" sample_rate="44100" off="0"/>
      </track>
      <track solo="0" mutedBeforeSolo="0" muted="0" name="Automation track" type="5">
        <automationtrack/>
      </track>
      <track solo="0" mutedBeforeSolo="0" muted="0" name="lgtH2" type="2">
        <sampletrack pan="100" vol="100" fxch="21">
          <fxchain enabled="0" numofeffects="0"/>
        </sampletrack>
        <sampletco muted="0" src="/home/pass/Music/ardour projects/scourge of the universe/export/lgtH2.wav" len="65376" pos="0" sample_rate="44100" off="0"/>
      </track>
      <track solo="0" mutedBeforeSolo="0" muted="0" name="Sample track" type="2">
        <sampletrack pan="-40.8" vol="80" fxch="26">
          <fxchain enabled="0" numofeffects="0"/>
        </sampletrack>
        <sampletco muted="0" src="/home/pass/samples/cymbal swells/39663__markgia__cymbal-swish-long.wav" len="2318" pos="24396" sample_rate="44100" off="0"/>
        <sampletco data="AAAAAAAAAAA=" muted="0" src="" len="192" pos="31104" sample_rate="44100" off="0"/>
      </track>
      <track solo="0" mutedBeforeSolo="0" muted="0" name="Sample track" type="2">
        <sampletrack pan="41.6" vol="100" fxch="26">
          <fxchain enabled="0" numofeffects="0"/>
        </sampletrack>
        <sampletco muted="0" src="/home/pass/samples/cymbal swells/425430__trivialaccapella__18-crash-swell-1.aiff" len="1366" pos="24540" sample_rate="44100" off="0"/>
      </track>
    </trackcontainer>
    <track solo="0" mutedBeforeSolo="0" muted="0" name="Automation track" type="6">
      <automationtrack/>
      <automationpattern tens="1" mute="0" prog="0" len="192" pos="0" name="Numerator"/>
      <automationpattern tens="1" mute="0" prog="0" len="192" pos="0" name="Denominator"/>
      <automationpattern tens="1" mute="0" prog="0" len="192" pos="0" name="Tempo"/>
      <automationpattern tens="1" mute="0" prog="0" len="192" pos="0" name="Master volume"/>
      <automationpattern tens="1" mute="0" prog="0" len="192" pos="0" name="Master pitch"/>
      <automationpattern tens="1" mute="0" prog="0" len="192" pos="0" name="Numerator">
        <time value="4" pos="0"/>
        <object id="545120"/>
      </automationpattern>
      <automationpattern tens="1" mute="0" prog="0" len="192" pos="0" name="Denominator">
        <time value="4" pos="0"/>
        <object id="114903"/>
      </automationpattern>
      <automationpattern tens="1" mute="0" prog="0" len="192" pos="0" name="Tempo">
        <time value="184.001" pos="0"/>
        <object id="2356958"/>
      </automationpattern>
      <automationpattern tens="1" mute="0" prog="0" len="62880" pos="0" name="Equalizer>>Output gain">
        <time value="-0.15" pos="0"/>
        <time value="0" pos="24"/>
        <time value="0.15" pos="12360"/>
        <time value="-60" pos="59232"/>
        <time value="0" pos="61440"/>
        <object id="1552964"/>
      </automationpattern>
      <automationpattern tens="1" mute="0" prog="0" len="52632" pos="0" name="Amplifier>>Volume">
        <time value="200" pos="0"/>
        <time value="199.2" pos="1344"/>
        <time value="199.6" pos="2592"/>
        <time value="199.2" pos="12576"/>
        <time value="200" pos="22464"/>
        <time value="200" pos="32448"/>
        <time value="200" pos="42264"/>
        <time value="0" pos="46080"/>
        <time value="200" pos="52536"/>
        <object id="4271206"/>
      </automationpattern>
      <automationpattern tens="1" mute="0" prog="0" len="192" pos="0" name="Drag a control while pressing &lt;Ctrl>"/>
      <automationpattern tens="1" mute="0" prog="0" len="13824" pos="0" name="Amplifier>>Volume">
        <time value="100" pos="0"/>
        <time value="100.7" pos="1728"/>
        <time value="100" pos="3264"/>
        <time value="100" pos="9792"/>
        <time value="0" pos="12672"/>
        <time value="100" pos="13824"/>
        <object id="3103509"/>
      </automationpattern>
    </track>
    <fxmixer y="145" width="1260" minimized="0" maximized="0" x="26" height="333" visible="0">
      <fxchannel volume="1.295" muted="0" soloed="0" name="Master" num="0">
        <fxchain enabled="1" numofeffects="4">
          <effect autoquit_syncmode="0" autoquit_denominator="4" autoquit="1" gate="0" wet="1" name="vsteffect" on="0" autoquit_numerator="4">
            <vsteffectcontrols guivisible="0" chunk="AACAP+xR2D4AAIA/16OwPgAAgD/sUdg+AACAP9ejsD4AAAA/AAAAPwAAgD8AAAA/AACAPwAAAD8AAIA/AACAPwAAgD9kZWZhdWx0AG1ldGVycz4AYQAAAEZSRUVIAUkAOAFJAAAAgD8AAAAAAAAAAAAAAAAAAIA/AAAAAAAAAAAAAAAAAAAAPwAAAD8AAIA/AAAAAAAAgD8AAAA/AACAPwAAgD8AAIA/cGlubmluZyBkb3duAHM+AGEAAABGUkVFSAFJADgBSQAAAIA/AAAAAM3MTD8AAAAAAACAPwAAAADNzEw/AAAAAAAAAAAAAIA/AACAPwAAgD8AAIA/AAAAPwAAgD8AAIA/AAAAAGJpZyBwaWN0dXJlAABzPgBhAAAARlJFRUgBSQA4AUkAAACAPwAAAADNzEw/AAAAAAAAgD8AAAAAzcxMPwAAAAAAAAA/AAAAPwAAgD8AAAAAAACAPwAAAD8AAIA/AACAPwAAAAB2b2NhbHMgZmFzdAAAcz4AYQAAAEZSRUVIAUkAOAFJAAAAgD8AAAAAAACAPwAAAAAAAIA/AAAAAAAAgD8AAAAAAAAAPwAAAD8AAIA/AAAAPwAAgD8AAAA/AACAPwAAgD8AAAAAdm9jYWxzIHNsb3cAAHM+AGEAAABGUkVFSAFJADgBSQAAAIA/AAAAAM3MzD4AAAAAAACAPwAAAADNzMw+AAAAAAAAgD8AAIA/AACAPwAAgD8AAIA/AAAAPwAAAAAAAIA/AACAP3N1bW1pbmcAbG93AABzPgBhAAAARlJFRUgBSQA4AUkAAACAPwAAAADNzEw/AAAAAAAAgD8AAAAAzcxMPwAAAAAAAIA/AAAAPwAAgD8AAIA/AACAPwAAAD8AAIA/AACAPwAAAABnbHVlaW5nAGxvdwAAcz4AYQAAAEZSRUVIAUkAOAFJAAAAgD8AAAAAzcxMPwAAAAAAAIA/AAAAAM3MTD8AAAAAAAAAAAAAgD8AAIA/AAAAPwAAgD8AAIA/AACAPwAAgD8AAAAAbGFyZ2VyIHRoYW4gbGlmZQAAAABGUkVFSAFJADgBSQAAAIA/AAAAAAAAAAAAAAAAAACAPwAAAAAAAAAAAAAAAAAAAD8AAAA/AAAAPwAAgD8AAIA/AAAAPwAAAAAAAIA/AAAAAHNjaG5pdHplbCBOWSBzdHlsZQAARlJFRUgBSQA4AUkAAACAPwAAAADNzEw/AAAAAAAAgD8AAAAAzcxMPwAAAAAAAAA/AAAAPwAAgD8AAAAAAACAPwAAAD8AAAAAAACAPwAAAABzY2huaXR6ZWwgV2llbgB5bGUAAEZSRUVIAUkAOAFJAAAAgD8AAAAAAAAAAAAAAAAAAIA/AAAAAAAAAAAAAAAAAAAAPwAAAD8AAAAAAAAAPwAAgD8AAAA/AAAAAAAAgD8AAAAAc2lnbmFsIHBhdGggb25seQBlAABGUkVFSAFJADgBSQAAAAAAAAAAAAAAAAAehSs+AAAAAAAAAAAAAAAAHoUrPgAAAD8AAAA/AACAPwAAAAAAAIA/AAAAPwAAAAAAAIA/AAAAAG5vbi1saW4gYW1wAG9ubHkAZQAARlJFRUgBSQA4AUkAAACAPwAAAAAAAIA/AAAAAAAAgD8AAAAAzcxMPwAAAAAAAAAAAAAAPwAAgD8AAAA/AACAPwAAgD8AAIA/AACAPwAAAABNL1MgMmJ1cwBtcABvbmx5AGUAAEZSRUVIAUkAOAFJAAAAgD8AAAAAzcxMPgAAAAAAAIA/AAAAAAAAAAAAAAAAAAAAAPYoLD8AAIA/uB49PwAAgD8AAIA/AAAAAAAAgD8AAAAATS9TIGRydW1zAHAAb25seQBlAABGUkVFSAFJADgBSQAAAIA/CtcjO83MzD4AAAAAAACAPwrXIzvNzMw+AAAAAAAAAD8AAAA/AACAPwAAAD8AAIA/AAAAPwAAgD8AAIA/AACAP0EAUyBkcnVtcwBwAG9ubHkAZQAARlJFRUgBSQA4AUkAAACAPwAAAADNzMw+AAAAAAAAgD8AAAAAzczMPgAAAAAAAAA/KVz/PgAAgD8AAAA/AACAPwAAAD8AAIA/AACAPwAAgD9CAFMgZHJ1bXMAcABvbmx5AGUAAEZSRUVIAUkAOAFJAA==" plugin="VST32/_EFFECTS/VoS_PlugIns_Complete/VoS_PlugIns_Complete/DensitymkIII_3.0/DensitymkIII.dll" program="0"/>
            <key>
              <attribute value="VST32/_EFFECTS/VoS_PlugIns_Complete/VoS_PlugIns_Complete/DensitymkIII_3.0/DensitymkIII.dll" name="file"/>
            </key>
          </effect>
          <effect autoquit_syncmode="0" autoquit_denominator="4" autoquit="1" gate="0" wet="1" name="vsteffect" on="0" autoquit_numerator="4">
            <vsteffectcontrols guivisible="0" chunk="AACAP8L1yD7NzMw+o3A9PgAAgD/C9cg+zczMPqNwPT4AAAA/AAAAPwAAgD8AAAA/AACAPwAAAD8AAIA/AACAPwAAgD9kZWZhdWx0AG1ldGVycz4AAGUAABgTDgIA62QAgBMOAgAAgD8AAAAAAAAAAAAAAAAAAIA/AAAAAAAAAAAAAAAAAAAAPwAAAD8AAIA/AAAAAAAAgD8AAAA/AACAPwAAgD8AAIA/cGlubmluZyBkb3duAHM+AABlAAAYEw4CAOtkAIATDgIAAIA/AAAAAM3MTD8AAAAAAACAPwAAAADNzEw/AAAAAAAAAAAAAIA/AACAPwAAgD8AAIA/AAAAPwAAgD8AAIA/AAAAAGJpZyBwaWN0dXJlAABzPgAAZQAAGBMOAgDrZACAEw4CAACAPwAAAADNzEw/AAAAAAAAgD8AAAAAzcxMPwAAAAAAAAA/AAAAPwAAgD8AAAAAAACAPwAAAD8AAIA/AACAPwAAAAB2b2NhbHMgZmFzdAAAcz4AAGUAABgTDgIA62QAgBMOAgAAgD8AAAAAAACAPwAAAAAAAIA/AAAAAAAAgD8AAAAAAAAAPwAAAD8AAIA/AAAAPwAAgD8AAAA/AACAPwAAgD8AAAAAdm9jYWxzIHNsb3cAAHM+AABlAAAYEw4CAOtkAIATDgIAAIA/AAAAAM3MzD4AAAAAAACAPwAAAADNzMw+AAAAAAAAgD8AAIA/AACAPwAAgD8AAIA/AAAAPwAAAAAAAIA/AACAP3N1bW1pbmcAbG93AABzPgAAZQAAGBMOAgDrZACAEw4CAACAPwAAAADNzEw/AAAAAAAAgD8AAAAAzcxMPwAAAAAAAIA/AAAAPwAAgD8AAIA/AACAPwAAAD8AAIA/AACAPwAAAABnbHVlaW5nAGxvdwAAcz4AAGUAABgTDgIA62QAgBMOAgAAgD8AAAAAzcxMPwAAAAAAAIA/AAAAAM3MTD8AAAAAAAAAAAAAgD8AAIA/AAAAPwAAgD8AAIA/AACAPwAAgD8AAAAAbGFyZ2VyIHRoYW4gbGlmZQBlAAAYEw4CAOtkAIATDgIAAIA/AAAAAAAAAAAAAAAAAACAPwAAAAAAAAAAAAAAAAAAAD8AAAA/AAAAPwAAgD8AAIA/AAAAPwAAAAAAAIA/AAAAAHNjaG5pdHplbCBOWSBzdHlsZQAAGBMOAgDrZACAEw4CAACAPwAAAADNzEw/AAAAAAAAgD8AAAAAzcxMPwAAAAAAAAA/AAAAPwAAgD8AAAAAAACAPwAAAD8AAAAAAACAPwAAAABzY2huaXR6ZWwgV2llbgB5bGUAABgTDgIA62QAgBMOAgAAgD8AAAAAAAAAAAAAAAAAAIA/AAAAAAAAAAAAAAAAAAAAPwAAAD8AAAAAAAAAPwAAgD8AAAA/AAAAAAAAgD8AAAAAc2lnbmFsIHBhdGggb25seQBlAAAYEw4CAOtkAIATDgIAAAAAAAAAAAAAAAAehSs+AAAAAAAAAAAAAAAAHoUrPgAAAD8AAAA/AACAPwAAAAAAAIA/AAAAPwAAAAAAAIA/AAAAAG5vbi1saW4gYW1wAG9ubHkAZQAAGBMOAgDrZACAEw4CAACAPwAAAAAAAIA/AAAAAAAAgD8AAAAAzcxMPwAAAAAAAAAAAAAAPwAAgD8AAAA/AACAPwAAgD8AAIA/AACAPwAAAABNL1MgMmJ1cwBtcABvbmx5AGUAABgTDgIA62QAgBMOAgAAgD8AAAAAzcxMPgAAAAAAAIA/AAAAAAAAAAAAAAAAAAAAAPYoLD8AAIA/uB49PwAAgD8AAIA/AAAAAAAAgD8AAAAATS9TIGRydW1zAHAAb25seQBlAAAYEw4CAOtkAIATDgIAAIA/CtcjO83MzD4AAAAAAACAPwrXIzvNzMw+AAAAAAAAAD8AAAA/AACAPwAAAD8AAIA/AAAAPwAAgD8AAIA/AACAP0EAUyBkcnVtcwBwAG9ubHkAZQAAGBMOAgDrZACAEw4CAACAPwAAAADNzMw+AAAAAAAAgD8AAAAAzczMPgAAAAAAAAA/KVz/PgAAgD8AAAA/AACAPwAAAD8AAIA/AACAPwAAgD9CAFMgZHJ1bXMAcABvbmx5AGUAABgTDgIA62QAgBMOAg==" plugin="VST32/_EFFECTS/VoS_PlugIns_Complete/VoS_PlugIns_Complete/DensitymkIII_3.0/DensitymkIII.dll" program="0"/>
            <key>
              <attribute value="VST32/_EFFECTS/VoS_PlugIns_Complete/VoS_PlugIns_Complete/DensitymkIII_3.0/DensitymkIII.dll" name="file"/>
            </key>
          </effect>
          <effect autoquit_syncmode="0" autoquit_denominator="4" autoquit="1" gate="0" wet="1" name="eq" on="1" autoquit_numerator="4">
            <Eq HP12="1" Peak3bw="0.3" AnalyseIn="1" LP12="1" Outputgain="-3.08" HP24="0" HighShelfgain="1.98" LP24="0" Peak3gain="0" Peak1bw="0.3" Lowshelfactive="0" Peak2gain="0" Highshelfactive="1" Peak1active="0" Peak4bw="0.3" HighShelfres="0.55" Peak4active="0" LP="0" LPres="0.707" HP="0" Lowshelfgain="0" Peak2active="0" HP48="0" Peak4gain="0" LowShelfres="1.4" LPactive="0" Peak3active="0" LP48="0" AnalyseOut="1" HPres="0.707" HPactive="0" Peak2bw="0.3">
              <Inputgain scale_type="log" value="0" id="297858"/>
              <Peak1gain scale_type="log" value="0" id="5409866"/>
              <HPfreq scale_type="log" value="31" id="6695899"/>
              <LowShelffreq scale_type="log" value="80" id="3349484"/>
              <Peak1freq scale_type="log" value="120" id="2705685"/>
              <Peak2freq scale_type="log" value="250" id="5055633"/>
              <Peak3freq scale_type="log" value="2000" id="6952156"/>
              <Peak4freq scale_type="log" value="4000" id="6521011"/>
              <Highshelffreq scale_type="log" value="6800.08" id="4528469"/>
              <LPfreq scale_type="log" value="18000" id="4652245"/>
            </Eq>
            <key/>
          </effect>
          <effect autoquit_syncmode="0" autoquit_denominator="4" autoquit="1" gate="0" wet="1" name="ladspaeffect" on="1" autoquit_numerator="4">
            <ladspacontrols ports="9">
              <port04 data="0"/>
              <port05 data="0.877255"/>
              <port06 data="1.15956"/>
              <port015 data="0.98125"/>
              <port016 data="10"/>
              <port017>
                <data scale_type="log" value="31.6228" id="8008397"/>
              </port017>
              <port019 data="1"/>
              <port021 data="0.5"/>
              <port022 data="1"/>
            </ladspacontrols>
            <key>
              <attribute value="veal" name="file"/>
              <attribute value="Limiter" name="plugin"/>
            </key>
          </effect>
        </fxchain>
      </fxchannel>
      <fxchannel volume="0.442" muted="0" soloed="0" name="kick" num="1">
        <fxchain enabled="1" numofeffects="1">
          <effect autoquit_syncmode="0" autoquit_denominator="4" autoquit="1" gate="0" wet="1" name="eq" on="1" autoquit_numerator="4">
            <Eq HP12="1" Peak3bw="0.3" AnalyseIn="1" LP12="1" Outputgain="0" HP24="0" HighShelfgain="0" LP24="0" Peak3gain="0" Peak1bw="0.3" Lowshelfactive="0" Peak2gain="0" Highshelfactive="0" Peak1active="0" Peak4bw="2.553" HighShelfres="1.4" Peak4active="1" LP="0" LPres="0.707" HP="0" Lowshelfgain="0" Peak2active="0" HP48="0" Peak4gain="3.78" LowShelfres="1.4" LPactive="0" Peak3active="0" LP48="0" AnalyseOut="1" HPres="0.707" HPactive="0" Peak2bw="0.3">
              <Inputgain scale_type="log" value="0" id="7505604"/>
              <Peak1gain scale_type="log" value="0" id="6986816"/>
              <HPfreq scale_type="log" value="31" id="665393"/>
              <LowShelffreq scale_type="log" value="80" id="4312043"/>
              <Peak1freq scale_type="log" value="120" id="4038170"/>
              <Peak2freq scale_type="log" value="250" id="3517898"/>
              <Peak3freq scale_type="log" value="2000" id="5433300"/>
              <Peak4freq scale_type="log" value="4809.07" id="5587655"/>
              <Highshelffreq scale_type="log" value="12000" id="2177796"/>
              <LPfreq scale_type="log" value="18000" id="7051440"/>
            </Eq>
            <key/>
          </effect>
        </fxchain>
        <send amount="0.356" channel="10"/>
        <send amount="1" channel="11"/>
      </fxchannel>
      <fxchannel volume="0.72" muted="0" soloed="0" name="hat" num="2">
        <fxchain enabled="1" numofeffects="1">
          <effect autoquit_syncmode="0" autoquit_denominator="4" autoquit="1" gate="0" wet="1" name="eq" on="1" autoquit_numerator="4">
            <Eq HP12="1" Peak3bw="0.3" AnalyseIn="1" LP12="1" Outputgain="0" HP24="0" HighShelfgain="0.18" LP24="0" Peak3gain="-1.44" Peak1bw="0.3" Lowshelfactive="0" Peak2gain="0" Highshelfactive="1" Peak1active="0" Peak4bw="1.115" HighShelfres="1.4" Peak4active="1" LP="0" LPres="0.707" HP="0" Lowshelfgain="0" Peak2active="0" HP48="0" Peak4gain="-3.24" LowShelfres="1.4" LPactive="1" Peak3active="1" LP48="0" AnalyseOut="1" HPres="0.707" HPactive="1" Peak2bw="0.3">
              <Inputgain scale_type="log" value="0" id="8286259"/>
              <Peak1gain scale_type="log" value="0" id="723187"/>
              <HPfreq scale_type="log" value="24.2491" id="900875"/>
              <LowShelffreq scale_type="log" value="80" id="3000889"/>
              <Peak1freq scale_type="log" value="120" id="5937238"/>
              <Peak2freq scale_type="log" value="250" id="1946923"/>
              <Peak3freq scale_type="log" value="158.866" id="1131236"/>
              <Peak4freq scale_type="log" value="2683.66" id="5567039"/>
              <Highshelffreq scale_type="log" value="5319.22" id="1520587"/>
              <LPfreq scale_type="log" value="16132.3" id="504196"/>
            </Eq>
            <key/>
          </effect>
        </fxchain>
        <send amount="0" channel="10"/>
        <send amount="1" channel="11"/>
      </fxchannel>
      <fxchannel volume="0.756" muted="0" soloed="0" name="snare" num="3">
        <fxchain enabled="1" numofeffects="3">
          <effect autoquit_syncmode="0" autoquit_denominator="4" autoquit="1" gate="0" wet="1" name="eq" on="1" autoquit_numerator="4">
            <Eq HP12="1" Peak3bw="0.3" AnalyseIn="1" LP12="1" Outputgain="-6.38" HP24="0" HighShelfgain="2.16" LP24="0" Peak3gain="0" Peak1bw="0.3" Lowshelfactive="0" Peak2gain="0" Highshelfactive="1" Peak1active="0" Peak4bw="1.501" HighShelfres="1.435" Peak4active="1" LP="0" LPres="0.707" HP="0" Lowshelfgain="0" Peak2active="0" HP48="0" Peak4gain="0.362" LowShelfres="1.4" LPactive="1" Peak3active="0" LP48="0" AnalyseOut="1" HPres="0.707" HPactive="0" Peak2bw="0.3">
              <Inputgain scale_type="log" value="0" id="6753652"/>
              <Peak1gain scale_type="log" value="0" id="8257704"/>
              <HPfreq scale_type="log" value="31" id="2234845"/>
              <LowShelffreq scale_type="log" value="80" id="5016811"/>
              <Peak1freq scale_type="log" value="120" id="5537746"/>
              <Peak2freq scale_type="log" value="250" id="6539813"/>
              <Peak3freq scale_type="log" value="2000" id="6999518"/>
              <Peak4freq scale_type="log" value="7167.92" id="770028"/>
              <Highshelffreq scale_type="log" value="1551.83" id="3686018"/>
              <LPfreq scale_type="log" value="20000" id="7588449"/>
            </Eq>
            <key/>
          </effect>
          <effect autoquit_syncmode="0" autoquit_denominator="4" autoquit="1" gate="0" wet="1" name="ladspaeffect" on="0" autoquit_numerator="4">
            <ladspacontrols ports="11">
              <port04 data="0"/>
              <port05 data="1"/>
              <port010 data="0.124855"/>
              <port011 data="1"/>
              <port012>
                <data scale_type="log" value="0.01" id="3395685"/>
              </port012>
              <port013>
                <data scale_type="log" value="0.0100001" id="1858960"/>
              </port013>
              <port014 data="1.75597"/>
              <port015 data="1"/>
              <port016 data="0"/>
              <port017 data="0"/>
              <port019 data="1"/>
            </ladspacontrols>
            <key>
              <attribute value="veal" name="file"/>
              <attribute value="Compressor" name="plugin"/>
            </key>
          </effect>
          <effect autoquit_syncmode="0" autoquit_denominator="4" autoquit="1" gate="0" wet="1" name="ladspaeffect" on="1" autoquit_numerator="4">
            <ladspacontrols ports="1">
              <port02 data="0.998"/>
            </ladspacontrols>
            <key>
              <attribute value="caps" name="file"/>
              <attribute value="Narrower" name="plugin"/>
            </key>
          </effect>
        </fxchain>
        <send amount="0.292" channel="10"/>
        <send amount="1" channel="11"/>
      </fxchannel>
      <fxchannel volume="0.661" muted="0" soloed="0" name="crash1" num="4">
        <fxchain enabled="0" numofeffects="0"/>
        <send amount="0.724" channel="10"/>
        <send amount="1" channel="11"/>
      </fxchannel>
      <fxchannel volume="1.301" muted="0" soloed="0" name="crash2" num="5">
        <fxchain enabled="0" numofeffects="0"/>
        <send amount="0.76" channel="10"/>
        <send amount="1" channel="11"/>
      </fxchannel>
      <fxchannel volume="0.884" muted="0" soloed="0" name="china" num="6">
        <fxchain enabled="0" numofeffects="0"/>
        <send amount="0.292" channel="10"/>
        <send amount="1" channel="11"/>
      </fxchannel>
      <fxchannel volume="0.512" muted="0" soloed="0" name="hitom" num="7">
        <fxchain enabled="0" numofeffects="0"/>
        <send amount="0.212" channel="10"/>
        <send amount="1" channel="11"/>
      </fxchannel>
      <fxchannel volume="0.534" muted="0" soloed="0" name="midtom" num="8">
        <fxchain enabled="0" numofeffects="0"/>
        <send amount="0.236" channel="10"/>
        <send amount="1" channel="11"/>
      </fxchannel>
      <fxchannel volume="0.418" muted="0" soloed="0" name="lotom" num="9">
        <fxchain enabled="0" numofeffects="0"/>
        <send amount="0.212" channel="10"/>
        <send amount="1" channel="11"/>
      </fxchannel>
      <fxchannel volume="0.744" muted="0" soloed="0" name="DRUM PLATE" num="10">
        <fxchain enabled="1" numofeffects="2">
          <effect autoquit_syncmode="0" autoquit_denominator="4" autoquit="1" gate="0" wet="1" name="ladspaeffect" on="1" autoquit_numerator="4">
            <ladspacontrols ports="4">
              <port02 data="0.76538"/>
              <port03 data="0.145119"/>
              <port04 data="0.0005"/>
              <port05 data="1"/>
            </ladspacontrols>
            <key>
              <attribute value="caps" name="file"/>
              <attribute value="Plate2x2" name="plugin"/>
            </key>
          </effect>
          <effect autoquit_syncmode="0" autoquit_denominator="4" autoquit="1" gate="0" wet="1" name="eq" on="1" autoquit_numerator="4">
            <Eq HP12="1" Peak3bw="0.3" AnalyseIn="1" LP12="1" Outputgain="0" HP24="0" HighShelfgain="1.62" LP24="0" Peak3gain="0" Peak1bw="0.3" Lowshelfactive="0" Peak2gain="0" Highshelfactive="1" Peak1active="0" Peak4bw="0.3" HighShelfres="1.4" Peak4active="1" LP="0" LPres="0.707" HP="0" Lowshelfgain="0" Peak2active="0" HP48="0" Peak4gain="0.36" LowShelfres="1.4" LPactive="0" Peak3active="0" LP48="0" AnalyseOut="1" HPres="0.707" HPactive="1" Peak2bw="0.3">
              <Inputgain scale_type="log" value="0" id="217936"/>
              <Peak1gain scale_type="log" value="0" id="1412862"/>
              <HPfreq scale_type="log" value="175.669" id="7725025"/>
              <LowShelffreq scale_type="log" value="80" id="399642"/>
              <Peak1freq scale_type="log" value="120" id="3213708"/>
              <Peak2freq scale_type="log" value="250" id="1180890"/>
              <Peak3freq scale_type="log" value="2000" id="5654965"/>
              <Peak4freq scale_type="log" value="3592.47" id="757114"/>
              <Highshelffreq scale_type="log" value="610.728" id="3326661"/>
              <LPfreq scale_type="log" value="18000" id="825391"/>
            </Eq>
            <key/>
          </effect>
        </fxchain>
        <send amount="1" channel="11"/>
      </fxchannel>
      <fxchannel volume="0.558" muted="0" soloed="0" name="drums" num="11">
        <fxchain enabled="1" numofeffects="1">
          <effect autoquit_syncmode="0" autoquit_denominator="4" autoquit="1" gate="0" wet="1" name="eq" on="1" autoquit_numerator="4">
            <Eq HP12="1" Peak3bw="0.3" AnalyseIn="1" LP12="1" Outputgain="0" HP24="0" HighShelfgain="1.26" LP24="0" Peak3gain="0" Peak1bw="0.3" Lowshelfactive="0" Peak2gain="0" Highshelfactive="1" Peak1active="0" Peak4bw="0.3" HighShelfres="1.4" Peak4active="0" LP="0" LPres="0.707" HP="0" Lowshelfgain="0" Peak2active="0" HP48="0" Peak4gain="0" LowShelfres="1.4" LPactive="0" Peak3active="0" LP48="0" AnalyseOut="1" HPres="0.707" HPactive="0" Peak2bw="0.3">
              <Inputgain scale_type="log" value="0" id="8074890"/>
              <Peak1gain scale_type="log" value="0" id="4825748"/>
              <HPfreq scale_type="log" value="31" id="618770"/>
              <LowShelffreq scale_type="log" value="80" id="3601803"/>
              <Peak1freq scale_type="log" value="120" id="7411357"/>
              <Peak2freq scale_type="log" value="250" id="3122808"/>
              <Peak3freq scale_type="log" value="2000" id="4290153"/>
              <Peak4freq scale_type="log" value="4000" id="2847248"/>
              <Highshelffreq scale_type="log" value="1045.16" id="4241610"/>
              <LPfreq scale_type="log" value="18000" id="7599285"/>
            </Eq>
            <key/>
          </effect>
        </fxchain>
        <send amount="1" channel="0"/>
        <send amount="1" channel="25"/>
      </fxchannel>
      <fxchannel volume="0.601" muted="0" soloed="0" name="rhythm guitar" num="12">
        <fxchain enabled="1" numofeffects="7">
          <effect autoquit_syncmode="0" autoquit_denominator="4" autoquit="1" gate="0" wet="1" name="ladspaeffect" on="1" autoquit_numerator="4">
            <ladspacontrols ports="4" link="1">
              <port00 link="1">
                <data scale_type="log" value="1.00288" id="7309738"/>
              </port00>
              <port01 data="4" link="1"/>
              <port10>
                <data scale_type="log" value="1.00288" id="4894491"/>
              </port10>
              <port11 data="4"/>
            </ladspacontrols>
            <key>
              <attribute value="am_pitchshift_1433" name="file"/>
              <attribute value="amPitchshift" name="plugin"/>
            </key>
          </effect>
          <effect autoquit_syncmode="0" autoquit_denominator="4" autoquit="1" gate="0" wet="1" name="ladspaeffect" on="1" autoquit_numerator="4">
            <ladspacontrols ports="4" link="1">
              <port00 link="1">
                <data scale_type="log" value="5798.41" id="2205805"/>
              </port00>
              <port01 data="0.34715" link="1"/>
              <port10>
                <data scale_type="log" value="5798.41" id="1377170"/>
              </port10>
              <port11 data="0.34715"/>
            </ladspacontrols>
            <key>
              <attribute value="butterworth_1902" name="file"/>
              <attribute value="buttlow_iir" name="plugin"/>
            </key>
          </effect>
          <effect autoquit_syncmode="0" autoquit_denominator="4" autoquit="1" gate="0" wet="1" name="ladspaeffect" on="0" autoquit_numerator="4">
            <ladspacontrols ports="14" link="1">
              <port01 data="2" link="1"/>
              <port02 data="2.88" link="1"/>
              <port03 data="0.5" link="1"/>
              <port04 data="0" link="1"/>
              <port05 data="0.955" link="1"/>
              <port06 data="1" link="1"/>
              <port07 data="0.750025" link="1"/>
              <port11 data="2"/>
              <port12 data="2.88"/>
              <port13 data="0.5"/>
              <port14 data="0"/>
              <port15 data="0.955"/>
              <port16 data="1"/>
              <port17 data="0.750025"/>
            </ladspacontrols>
            <key>
              <attribute value="caps" name="file"/>
              <attribute value="AmpVTS" name="plugin"/>
            </key>
          </effect>
          <effect autoquit_syncmode="0" autoquit_denominator="4" autoquit="1" gate="0" wet="1" name="waveshaper" on="1" autoquit_numerator="4">
            <waveshapercontrols waveShape="AACAPwAAgD8AAIA/AACAPwAAgD8AAIA/AACAPwAAgD8AAIA/AACAPwAAgD8AAIA/AACAPwAAgD8AAIA/AACAPwAAgD8AAIA/AACAPwAAgD8AAIA/AACAPwAAgD8AAIA/AACAPwAAgD8AAIA/AACAPwAAgD8AAIA/AACAPwAAgD8AAIA/AACAPwAAgD8AAIA/AACAPwAAgD8AAIA/AACAPwAAgD8AAIA/AACAPwAAgD8AAIA/AACAPwAAgD8AAIA/AACAPwAAgD8AAIA/AACAPwAAgD8AAIA/AACAPwAAgD8AAIA/AACAPwAAgD8AAIA/AACAPwAAgD8AAIA/AACAPwAAgD8AAIA/AACAPwAAgD8AAIA/AACAPwAAgD8AAIA/AACAPwAAgD8AAIA/AACAPwAAgD8AAIA/AACAPwAAgD8AAIA/AACAPwAAgD8AAIA/AACAPwAAgD8AAIA/AACAPwAAgD8AAIA/AACAPwAAgD8AAIA/AACAPwAAgD8AAIA/AACAPwAAgD8AAIA/AACAPwAAgD8AAIA/AACAPwAAgD8AAIA/AACAPwAAgD8AAIA/AACAPwAAgD8AAIA/AACAPwAAgD8AAIA/AACAPwAAgD8AAIA/AACAPwAAgD8AAIA/AACAPwAAgD8AAIA/AACAPwAAgD8AAIA/AACAPwAAgD8AAIA/AACAPwAAgD8AAIA/AACAPwAAgD8AAIA/AACAPwAAgD8AAIA/AACAPwAAgD8AAIA/AACAPwAAgD8AAIA/AACAPwAAgD8AAIA/AACAPwAAgD8AAIA/AACAPwAAgD8AAIA/AACAPwAAgD8AAIA/AACAPwAAgD8AAIA/AACAPwAAgD8AAIA/AACAPwAAgD8AAIA/AACAPwAAgD8AAIA/AACAPwAAgD8AAIA/AACAPwAAgD8AAIA/AACAPwAAgD8AAIA/AACAPwAAgD8AAIA/AACAPwAAgD8AAIA/AACAPwAAgD8AAIA/AACAPwAAgD8AAIA/AACAPwAAgD8AAIA/AACAPwAAgD8AAIA/AACAPwAAgD8AAIA/AACAPwAAgD8=" inputGain="3.5" outputGain="0.87" clipInput="1"/>
            <key/>
          </effect>
          <effect autoquit_syncmode="0" autoquit_denominator="4" autoquit="1" gate="0" wet="1" name="ladspaeffect" on="1" autoquit_numerator="4">
            <ladspacontrols ports="4" link="1">
              <port00 link="1">
                <data scale_type="log" value="7184.77" id="4291918"/>
              </port00>
              <port01 data="7" link="1"/>
              <port10>
                <data scale_type="log" value="7184.77" id="511769"/>
              </port10>
              <port11 data="7"/>
            </ladspacontrols>
            <key>
              <attribute value="lowpass_iir_1891" name="file"/>
              <attribute value="lowpass_iir" name="plugin"/>
            </key>
          </effect>
          <effect autoquit_syncmode="0" autoquit_denominator="4" autoquit="1" gate="0" wet="1" name="ladspaeffect" on="1" autoquit_numerator="4">
            <ladspacontrols ports="4" link="1">
              <port00 link="1">
                <data scale_type="log" value="84.3225" id="5546061"/>
              </port00>
              <port01 data="1.0218" link="1"/>
              <port10>
                <data scale_type="log" value="84.3225" id="1977316"/>
              </port10>
              <port11 data="1.0218"/>
            </ladspacontrols>
            <key>
              <attribute value="butterworth_1902" name="file"/>
              <attribute value="butthigh_iir" name="plugin"/>
            </key>
          </effect>
          <effect autoquit_syncmode="0" autoquit_denominator="4" autoquit="1" gate="0" wet="1" name="ladspaeffect" on="1" autoquit_numerator="4">
            <ladspacontrols ports="4" link="1">
              <port01 data="5" link="1"/>
              <port02 data="0" link="1"/>
              <port11 data="5"/>
              <port12 data="0"/>
            </ladspacontrols>
            <key>
              <attribute value="caps" name="file"/>
              <attribute value="CabinetII" name="plugin"/>
            </key>
          </effect>
        </fxchain>
        <send amount="1" channel="0"/>
      </fxchannel>
      <fxchannel volume="0.853" muted="0" soloed="0" name="lgt" num="13">
        <fxchain enabled="1" numofeffects="5">
          <effect autoquit_syncmode="0" autoquit_denominator="4" autoquit="1" gate="0" wet="1" name="ladspaeffect" autoquit_numerator="4">
            <on scale_type="linear" value="0" id="2786011"/>
            <ladspacontrols ports="4" link="1">
              <port00 link="1">
                <data scale_type="log" value="1" id="485849"/>
              </port00>
              <port01 data="4" link="1"/>
              <port10>
                <data scale_type="log" value="1" id="4168014"/>
              </port10>
              <port11 data="4"/>
            </ladspacontrols>
            <key>
              <attribute value="am_pitchshift_1433" name="file"/>
              <attribute value="amPitchshift" name="plugin"/>
            </key>
          </effect>
          <effect autoquit_syncmode="0" autoquit_denominator="4" autoquit="1" gate="0" wet="1" name="ladspaeffect" on="1" autoquit_numerator="4">
            <ladspacontrols ports="4" link="1">
              <port00 link="1">
                <data scale_type="log" value="13230" id="354059"/>
              </port00>
              <port01 data="1" link="1"/>
              <port10>
                <data scale_type="log" value="13230" id="451672"/>
              </port10>
              <port11 data="1"/>
            </ladspacontrols>
            <key>
              <attribute value="pointer_cast_1910" name="file"/>
              <attribute value="pointerCastDistortion" name="plugin"/>
            </key>
          </effect>
          <effect autoquit_syncmode="0" autoquit_denominator="4" autoquit="1" gate="0" wet="1" name="waveshaper" on="0" autoquit_numerator="4">
            <waveshapercontrols waveShape="AACAPwAAgD8AAIA/AACAPwAAgD8AAIA/AACAPwAAgD8AAIA/AACAPwAAgD8AAIA/AACAPwAAgD8AAIA/AACAPwAAgD8AAIA/AACAPwAAgD8AAIA/AACAPwAAgD8AAIA/AACAPwAAgD8AAIA/AACAPwAAgD8AAIA/AACAPwAAgD8AAIA/AACAPwAAgD8AAIA/AACAPwAAgD8AAIA/AACAPwAAgD8AAIA/AACAPwAAgD8AAIA/AACAPwAAgD8AAIA/AACAPwAAgD8AAIA/AACAPwAAgD8AAIA/AACAPwAAgD8AAIA/AACAPwAAgD8AAIA/AACAPwAAgD8AAIA/AACAPwAAgD8AAIA/AACAPwAAgD8AAIA/AACAPwAAgD8AAIA/AACAPwAAgD8AAIA/AACAPwAAgD8AAIA/AACAPwAAgD8AAIA/AACAPwAAgD8AAIA/AACAPwAAgD8AAIA/AACAPwAAgD8AAIA/AACAPwAAgD8AAIA/AACAPwAAgD8AAIA/AACAPwAAgD8AAIA/AACAPwAAgD8AAIA/AACAPwAAgD8AAIA/AACAPwAAgD8AAIA/AACAPwAAgD8AAIA/AACAPwAAgD8AAIA/AACAPwAAgD8AAIA/AACAPwAAgD8AAIA/AACAPwAAgD8AAIA/AACAPwAAgD8AAIA/AACAPwAAgD8AAIA/AACAPwAAgD8AAIA/AACAPwAAgD8AAIA/AACAPwAAgD8AAIA/AACAPwAAgD8AAIA/AACAPwAAgD8AAIA/AACAPwAAgD8AAIA/AACAPwAAgD8AAIA/AACAPwAAgD8AAIA/AACAPwAAgD8AAIA/AACAPwAAgD8AAIA/AACAPwAAgD8AAIA/AACAPwAAgD8AAIA/AACAPwAAgD8AAIA/AACAPwAAgD8AAIA/AACAPwAAgD8AAIA/AACAPwAAgD8AAIA/AACAPwAAgD8AAIA/AACAPwAAgD8AAIA/AACAPwAAgD8AAIA/AACAPwAAgD8AAIA/AACAP8aSfz+MJX8/Urh+P1K4fj9SuH4/Urh+P/YofD/2KHw/Urh+PwAAgD8=" inputGain="1.14" outputGain="0.3" clipInput="0"/>
            <key/>
          </effect>
          <effect autoquit_syncmode="0" autoquit_denominator="4" autoquit="1" gate="0" wet="1" name="ladspaeffect" on="1" autoquit_numerator="4">
            <ladspacontrols ports="4" link="1">
              <port01 data="1" link="1"/>
              <port02 data="0" link="1"/>
              <port11 data="1"/>
              <port12 data="0"/>
            </ladspacontrols>
            <key>
              <attribute value="caps" name="file"/>
              <attribute value="CabinetII" name="plugin"/>
            </key>
          </effect>
          <effect autoquit_syncmode="0" autoquit_denominator="4" autoquit="1" gate="0" wet="1" name="ladspaeffect" on="0" autoquit_numerator="4">
            <ladspacontrols ports="1">
              <port02 data="0.29125"/>
            </ladspacontrols>
            <key>
              <attribute value="caps" name="file"/>
              <attribute value="Narrower" name="plugin"/>
            </key>
          </effect>
        </fxchain>
        <send amount="1" channel="0"/>
        <send amount="0.484" channel="14"/>
      </fxchannel>
      <fxchannel volume="0.116" muted="0" soloed="0" name="gt_delay" num="14">
        <fxchain enabled="1" numofeffects="3">
          <effect autoquit_syncmode="0" autoquit_denominator="4" autoquit="1" gate="0" wet="1" name="stereomatrix" on="1" autoquit_numerator="4">
            <stereomatrixcontrols r-r="1" l-l="1" l-r="1" r-l="1"/>
            <key/>
          </effect>
          <effect autoquit_syncmode="0" autoquit_denominator="4" autoquit="1" gate="0" wet="1" name="ladspaeffect" on="1" autoquit_numerator="4">
            <ladspacontrols ports="4" link="0">
              <port00 data="50" data_numerator="4" data_denominator="4" data_syncmode="0" link="0"/>
              <port01 data="0" data_numerator="4" data_denominator="4" data_syncmode="0" link="1"/>
              <port10 data="97.5" data_numerator="4" data_denominator="4" data_syncmode="0"/>
              <port11 data="0" data_numerator="4" data_denominator="4" data_syncmode="0"/>
            </ladspacontrols>
            <key>
              <attribute value="mod_delay_1419" name="file"/>
              <attribute value="modDelay" name="plugin"/>
            </key>
          </effect>
          <effect autoquit_syncmode="0" autoquit_denominator="4" autoquit="1" gate="0" wet="1" name="amplifier" on="1" autoquit_numerator="4">
            <AmplifierControls pan="0" left="100" right="100">
              <volume scale_type="linear" value="100" id="3103509"/>
            </AmplifierControls>
            <key/>
          </effect>
        </fxchain>
        <send amount="1" channel="0"/>
      </fxchannel>
      <fxchannel volume="1" muted="0" soloed="0" name="bass" num="15">
        <fxchain enabled="1" numofeffects="1">
          <effect autoquit_syncmode="0" autoquit_denominator="4" autoquit="1" gate="0" wet="1" name="eq" on="1" autoquit_numerator="4">
            <Eq HP12="1" Peak3bw="0.3" AnalyseIn="1" LP12="1" Outputgain="0" HP24="0" HighShelfgain="0" LP24="0" Peak3gain="0" Peak1bw="0.3" Lowshelfactive="0" Peak2gain="0" Highshelfactive="0" Peak1active="0" Peak4bw="0.3" HighShelfres="1.4" Peak4active="0" LP="0" LPres="0.707" HP="0" Lowshelfgain="0" Peak2active="0" HP48="0" Peak4gain="0" LowShelfres="1.4" LPactive="0" Peak3active="0" LP48="0" AnalyseOut="1" HPres="0.707" HPactive="1" Peak2bw="0.3">
              <Inputgain scale_type="log" value="0" id="4269875"/>
              <Peak1gain scale_type="log" value="0" id="4484441"/>
              <HPfreq scale_type="log" value="64.7682" id="5679286"/>
              <LowShelffreq scale_type="log" value="80" id="1342649"/>
              <Peak1freq scale_type="log" value="120" id="5910489"/>
              <Peak2freq scale_type="log" value="250" id="3320005"/>
              <Peak3freq scale_type="log" value="2000" id="6284692"/>
              <Peak4freq scale_type="log" value="4000" id="5045614"/>
              <Highshelffreq scale_type="log" value="12000" id="2093604"/>
              <LPfreq scale_type="log" value="18000" id="4384008"/>
            </Eq>
            <key/>
          </effect>
        </fxchain>
        <send amount="1" channel="0"/>
      </fxchannel>
      <fxchannel volume="0.553" muted="0" soloed="0" name="synthStrings" num="16">
        <fxchain enabled="0" numofeffects="0"/>
        <send amount="1" channel="0"/>
      </fxchannel>
      <fxchannel volume="0.417" muted="0" soloed="0" name="dist synth lead 1" num="17">
        <fxchain enabled="1" numofeffects="2">
          <effect autoquit_syncmode="0" autoquit_denominator="4" autoquit="1" gate="0" wet="1" name="amplifier" on="1" autoquit_numerator="4">
            <AmplifierControls pan="0" volume="32" left="100" right="100"/>
            <key/>
          </effect>
          <effect autoquit_syncmode="0" autoquit_denominator="4" autoquit="1" gate="0" wet="1" name="ladspaeffect" on="1" autoquit_numerator="4">
            <ladspacontrols ports="4" link="1">
              <port00 link="1">
                <data scale_type="log" value="3846.59" id="2359947"/>
              </port00>
              <port01 data="0.755" link="1"/>
              <port10>
                <data scale_type="log" value="3846.59" id="1056123"/>
              </port10>
              <port11 data="0.755"/>
            </ladspacontrols>
            <key>
              <attribute value="butterworth_1902" name="file"/>
              <attribute value="buttlow_iir" name="plugin"/>
            </key>
          </effect>
        </fxchain>
        <send amount="1" channel="0"/>
      </fxchannel>
      <fxchannel volume="1" muted="0" soloed="0" name="FX 17" num="18">
        <fxchain enabled="0" numofeffects="0"/>
        <send amount="1" channel="0"/>
      </fxchannel>
      <fxchannel volume="0.907" muted="0" soloed="0" name="rgt_bounced" num="19">
        <fxchain enabled="1" numofeffects="2">
          <effect autoquit_syncmode="0" autoquit_denominator="4" autoquit="1" gate="0" wet="1" name="amplifier" on="1" autoquit_numerator="4">
            <AmplifierControls pan="0" volume="200" left="100" right="100"/>
            <key/>
          </effect>
          <effect autoquit_syncmode="0" autoquit_denominator="4" autoquit="1" gate="0" wet="1" name="eq" on="1" autoquit_numerator="4">
            <Eq HP12="1" Peak3bw="1.227" AnalyseIn="1" LP12="1" Outputgain="0" HP24="0" HighShelfgain="1.26" LP24="0" Peak3gain="4.32" Peak1bw="0.3" Lowshelfactive="0" Peak2gain="0" Highshelfactive="1" Peak1active="0" Peak4bw="0.3" HighShelfres="1.4" Peak4active="1" LP="0" LPres="0.707" HP="0" Lowshelfgain="0" Peak2active="0" HP48="0" Peak4gain="-0.18" LowShelfres="1.4" LPactive="0" Peak3active="1" LP48="0" AnalyseOut="1" HPres="0.707" HPactive="0" Peak2bw="0.3">
              <Inputgain scale_type="log" value="0" id="569119"/>
              <Peak1gain scale_type="log" value="0" id="1579380"/>
              <HPfreq scale_type="log" value="31" id="7712079"/>
              <LowShelffreq scale_type="log" value="80" id="3800981"/>
              <Peak1freq scale_type="log" value="120" id="1889278"/>
              <Peak2freq scale_type="log" value="250" id="5788231"/>
              <Peak3freq scale_type="log" value="811.577" id="2386803"/>
              <Peak4freq scale_type="log" value="3704.48" id="4329255"/>
              <Highshelffreq scale_type="log" value="2791.57" id="3557122"/>
              <LPfreq scale_type="log" value="18000" id="4421081"/>
            </Eq>
            <key/>
          </effect>
        </fxchain>
        <send amount="1" channel="0"/>
      </fxchannel>
      <fxchannel volume="1.094" muted="0" soloed="0" name="lgtS" num="20">
        <fxchain enabled="1" numofeffects="2">
          <effect autoquit_syncmode="0" autoquit_denominator="4" autoquit="1" gate="0" wet="1" name="amplifier" on="1" autoquit_numerator="4">
            <AmplifierControls pan="0" left="100" right="100">
              <volume scale_type="linear" value="199.6" id="4271206"/>
            </AmplifierControls>
            <key/>
          </effect>
          <effect autoquit_syncmode="0" autoquit_denominator="4" autoquit="1" gate="0" wet="1" name="eq" on="1" autoquit_numerator="4">
            <Eq HP12="1" Peak3bw="0.3" AnalyseIn="1" LP12="1" Outputgain="0" HP24="0" HighShelfgain="0" LP24="0" Peak3gain="0" Peak1bw="0.3" Lowshelfactive="0" Peak2gain="-0.18" Highshelfactive="0" Peak1active="0" Peak4bw="0.3" HighShelfres="1.4" Peak4active="0" LP="0" LPres="0.707" HP="0" Lowshelfgain="0" Peak2active="1" HP48="0" Peak4gain="0" LowShelfres="1.4" LPactive="1" Peak3active="0" LP48="0" AnalyseOut="1" HPres="0.707" HPactive="1" Peak2bw="0.3">
              <Inputgain scale_type="log" value="0" id="5158737"/>
              <Peak1gain scale_type="log" value="0" id="4303613"/>
              <HPfreq scale_type="log" value="221.154" id="336783"/>
              <LowShelffreq scale_type="log" value="80" id="2965143"/>
              <Peak1freq scale_type="log" value="120" id="5696908"/>
              <Peak2freq scale_type="log" value="183.911" id="3248116"/>
              <Peak3freq scale_type="log" value="2000" id="1096378"/>
              <Peak4freq scale_type="log" value="4000" id="4157231"/>
              <Highshelffreq scale_type="log" value="12000" id="7147438"/>
              <LPfreq scale_type="log" value="5960.36" id="2601522"/>
            </Eq>
            <key/>
          </effect>
        </fxchain>
        <send amount="1" channel="0"/>
        <send amount="1" channel="14"/>
      </fxchannel>
      <fxchannel volume="1.14" muted="0" soloed="0" name="lgtH" num="21">
        <fxchain enabled="1" numofeffects="3">
          <effect autoquit_syncmode="0" autoquit_denominator="4" autoquit="1" gate="0" wet="1" name="amplifier" on="1" autoquit_numerator="4">
            <AmplifierControls pan="0" volume="200" left="100" right="100"/>
            <key/>
          </effect>
          <effect autoquit_syncmode="0" autoquit_denominator="4" autoquit="1" gate="0" wet="1" name="ladspaeffect" on="1" autoquit_numerator="4">
            <ladspacontrols ports="1">
              <port02 data="0.458"/>
            </ladspacontrols>
            <key>
              <attribute value="caps" name="file"/>
              <attribute value="Narrower" name="plugin"/>
            </key>
          </effect>
          <effect autoquit_syncmode="0" autoquit_denominator="4" autoquit="1" gate="0" wet="1" name="eq" on="1" autoquit_numerator="4">
            <Eq HP12="1" Peak3bw="0.3" AnalyseIn="1" LP12="1" HP24="0" HighShelfgain="0" LP24="0" Peak3gain="0" Peak1bw="0.3" Lowshelfactive="0" Peak2gain="0" Highshelfactive="0" Peak1active="0" Peak4bw="0.3" HighShelfres="1.4" Peak4active="0" LP="0" LPres="0.707" HP="0" Peak2active="0" Lowshelfgain="0" HP48="0" Peak4gain="0" LowShelfres="1.4" LPactive="1" Peak3active="0" LP48="0" AnalyseOut="1" HPres="0.707" HPactive="1" Peak2bw="0.3">
              <Inputgain scale_type="log" value="0" id="3124937"/>
              <Outputgain scale_type="linear" value="0" id="1552964"/>
              <Peak1gain scale_type="log" value="0" id="912500"/>
              <HPfreq scale_type="log" value="189.683" id="2880820"/>
              <LowShelffreq scale_type="log" value="80" id="7826292"/>
              <Peak1freq scale_type="log" value="120" id="6725157"/>
              <Peak2freq scale_type="log" value="250" id="1952704"/>
              <Peak3freq scale_type="log" value="2000" id="3303244"/>
              <Peak4freq scale_type="log" value="4000" id="3378803"/>
              <Highshelffreq scale_type="log" value="12000" id="4132038"/>
              <LPfreq scale_type="log" value="6337.81" id="3614720"/>
            </Eq>
            <key/>
          </effect>
        </fxchain>
        <send amount="1" channel="0"/>
        <send amount="1" channel="14"/>
      </fxchannel>
      <fxchannel volume="0.771" muted="0" soloed="0" name="bells" num="22">
        <fxchain enabled="1" numofeffects="3">
          <effect autoquit_syncmode="0" autoquit_denominator="4" autoquit="1" gate="0" wet="1" name="ladspaeffect" on="1" autoquit_numerator="4">
            <ladspacontrols ports="7">
              <port00 data="1.25"/>
              <port01 data="90"/>
              <port02 data="75"/>
              <port03 data="25"/>
              <port04 data="100"/>
              <port05 data="0"/>
              <port06 data="0"/>
            </ladspacontrols>
            <key>
              <attribute value="tap_chorusflanger" name="file"/>
              <attribute value="tap_chorusflanger" name="plugin"/>
            </key>
          </effect>
          <effect autoquit_syncmode="0" autoquit_denominator="4" autoquit="1" gate="0" wet="1" name="stereoenhancer" on="1" autoquit_numerator="4">
            <stereoenhancercontrols width="180"/>
            <key/>
          </effect>
          <effect autoquit_syncmode="0" autoquit_denominator="4" autoquit="1" gate="0" wet="1" name="eq" on="1" autoquit_numerator="4">
            <Eq HP12="1" Peak3bw="0.3" AnalyseIn="1" LP12="1" Outputgain="-11.17" HP24="0" HighShelfgain="4.14" LP24="0" Peak3gain="0" Peak1bw="0.3" Lowshelfactive="0" Peak2gain="0" Highshelfactive="1" Peak1active="0" Peak4bw="0.3" HighShelfres="1.4" Peak4active="0" LP="0" LPres="0.707" HP="0" Lowshelfgain="0" Peak2active="0" HP48="0" Peak4gain="0" LowShelfres="1.4" LPactive="0" Peak3active="0" LP48="0" AnalyseOut="1" HPres="0.707" HPactive="0" Peak2bw="0.3">
              <Inputgain scale_type="log" value="0" id="5105188"/>
              <Peak1gain scale_type="log" value="0" id="4781139"/>
              <HPfreq scale_type="log" value="31" id="5862033"/>
              <LowShelffreq scale_type="log" value="80" id="3920579"/>
              <Peak1freq scale_type="log" value="120" id="5726344"/>
              <Peak2freq scale_type="log" value="250" id="3229777"/>
              <Peak3freq scale_type="log" value="2000" id="2476764"/>
              <Peak4freq scale_type="log" value="4000" id="2107443"/>
              <Highshelffreq scale_type="log" value="1237.41" id="1887688"/>
              <LPfreq scale_type="log" value="18000" id="4437620"/>
            </Eq>
            <key/>
          </effect>
        </fxchain>
        <send amount="1" channel="0"/>
      </fxchannel>
      <fxchannel volume="0.081" muted="0" soloed="0" name="FX 22" num="23">
        <fxchain enabled="0" numofeffects="0"/>
        <send amount="1" channel="0"/>
      </fxchannel>
      <fxchannel volume="0.127" muted="0" soloed="0" name="FX 23" num="24">
        <fxchain enabled="1" numofeffects="1">
          <effect autoquit_syncmode="0" autoquit_denominator="4" autoquit="1" gate="0" wet="1" name="ladspaeffect" on="1" autoquit_numerator="4">
            <ladspacontrols ports="4" link="1">
              <port00 link="1">
                <data scale_type="log" value="3846.59" id="4694277"/>
              </port00>
              <port01 data="0.755" link="1"/>
              <port10>
                <data scale_type="log" value="3846.59" id="5834748"/>
              </port10>
              <port11 data="0.755"/>
            </ladspacontrols>
            <key>
              <attribute value="butterworth_1902" name="file"/>
              <attribute value="buttlow_iir" name="plugin"/>
            </key>
          </effect>
        </fxchain>
        <send amount="1" channel="0"/>
      </fxchannel>
      <fxchannel volume="0.58" muted="1" soloed="0" name="druum room" num="25">
        <fxchain enabled="1" numofeffects="5">
          <effect autoquit_syncmode="0" autoquit_denominator="4" autoquit="1" gate="0" wet="1" name="ladspaeffect" on="1" autoquit_numerator="4">
            <ladspacontrols ports="4" link="1">
              <port00 link="1">
                <data scale_type="log" value="282.308" id="3531912"/>
              </port00>
              <port01 data="1" link="1"/>
              <port10>
                <data scale_type="log" value="282.308" id="2240726"/>
              </port10>
              <port11 data="1"/>
            </ladspacontrols>
            <key>
              <attribute value="highpass_iir_1890" name="file"/>
              <attribute value="highpass_iir" name="plugin"/>
            </key>
          </effect>
          <effect autoquit_syncmode="0" autoquit_denominator="4" autoquit="1" gate="0" wet="1" name="ladspaeffect" on="1" autoquit_numerator="4">
            <ladspacontrols ports="4" link="1">
              <port00 link="1">
                <data scale_type="log" value="8047.87" id="4809791"/>
              </port00>
              <port01 data="1" link="1"/>
              <port10>
                <data scale_type="log" value="8047.87" id="5706757"/>
              </port10>
              <port11 data="1"/>
            </ladspacontrols>
            <key>
              <attribute value="lowpass_iir_1891" name="file"/>
              <attribute value="lowpass_iir" name="plugin"/>
            </key>
          </effect>
          <effect autoquit_syncmode="0" autoquit_denominator="4" autoquit="1" gate="0" wet="1" name="stereoenhancer" on="1" autoquit_numerator="4">
            <stereoenhancercontrols width="180"/>
            <key/>
          </effect>
          <effect autoquit_syncmode="0" autoquit_denominator="4" autoquit="1" gate="0" wet="1" name="ladspaeffect" on="1" autoquit_numerator="4">
            <ladspacontrols ports="11">
              <port04 data="0"/>
              <port05 data="1"/>
              <port010 data="0.250732"/>
              <port011 data="1"/>
              <port012>
                <data scale_type="log" value="388.47" id="1477554"/>
              </port012>
              <port013>
                <data scale_type="log" value="1.00975" id="6007516"/>
              </port013>
              <port014 data="1"/>
              <port015 data="2.75"/>
              <port016 data="0"/>
              <port017 data="0"/>
              <port019 data="1"/>
            </ladspacontrols>
            <key>
              <attribute value="veal" name="file"/>
              <attribute value="Compressor" name="plugin"/>
            </key>
          </effect>
          <effect autoquit_syncmode="0" autoquit_denominator="4" autoquit="1" gate="0" wet="1" name="ladspaeffect" on="1" autoquit_numerator="4">
            <ladspacontrols ports="4">
              <port02 data="0.502"/>
              <port03 data="0.19474"/>
              <port04 data="0.746127"/>
              <port05 data="1"/>
            </ladspacontrols>
            <key>
              <attribute value="caps" name="file"/>
              <attribute value="Plate2x2" name="plugin"/>
            </key>
          </effect>
        </fxchain>
        <send amount="1" channel="0"/>
      </fxchannel>
      <fxchannel volume="0.697" muted="0" soloed="0" name="cymbal swell" num="26">
        <fxchain enabled="0" numofeffects="0"/>
        <send amount="1" channel="0"/>
      </fxchannel>
      <fxchannel volume="1" muted="0" soloed="0" name="FX 27" num="27">
        <fxchain enabled="0" numofeffects="0"/>
        <send amount="1" channel="0"/>
      </fxchannel>
      <fxchannel volume="1" muted="0" soloed="0" name="FX 28" num="28">
        <fxchain enabled="0" numofeffects="0"/>
        <send amount="1" channel="0"/>
      </fxchannel>
      <fxchannel volume="1" muted="0" soloed="0" name="FX 29" num="29">
        <fxchain enabled="0" numofeffects="0"/>
        <send amount="1" channel="0"/>
      </fxchannel>
      <fxchannel volume="1" muted="0" soloed="0" name="FX 30" num="30">
        <fxchain enabled="0" numofeffects="0"/>
        <send amount="1" channel="0"/>
      </fxchannel>
      <fxchannel volume="1" muted="0" soloed="0" name="FX 31" num="31">
        <fxchain enabled="0" numofeffects="0"/>
        <send amount="1" channel="0"/>
      </fxchannel>
      <fxchannel volume="1" muted="0" soloed="0" name="FX 32" num="32">
        <fxchain enabled="0" numofeffects="0"/>
        <send amount="1" channel="0"/>
      </fxchannel>
      <fxchannel volume="1" muted="0" soloed="0" name="FX 33" num="33">
        <fxchain enabled="0" numofeffects="0"/>
        <send amount="1" channel="0"/>
      </fxchannel>
      <fxchannel volume="1" muted="0" soloed="0" name="FX 34" num="34">
        <fxchain enabled="0" numofeffects="0"/>
        <send amount="1" channel="0"/>
      </fxchannel>
      <fxchannel volume="1" muted="0" soloed="0" name="FX 35" num="35">
        <fxchain enabled="0" numofeffects="0"/>
        <send amount="1" channel="0"/>
      </fxchannel>
      <fxchannel volume="1" muted="0" soloed="0" name="FX 36" num="36">
        <fxchain enabled="0" numofeffects="0"/>
        <send amount="1" channel="0"/>
      </fxchannel>
      <fxchannel volume="1" muted="0" soloed="0" name="FX 37" num="37">
        <fxchain enabled="0" numofeffects="0"/>
        <send amount="1" channel="0"/>
      </fxchannel>
      <fxchannel volume="1" muted="0" soloed="0" name="FX 38" num="38">
        <fxchain enabled="0" numofeffects="0"/>
        <send amount="1" channel="0"/>
      </fxchannel>
      <fxchannel volume="1" muted="0" soloed="0" name="FX 39" num="39">
        <fxchain enabled="0" numofeffects="0"/>
        <send amount="1" channel="0"/>
      </fxchannel>
      <fxchannel volume="1" muted="0" soloed="0" name="FX 40" num="40">
        <fxchain enabled="0" numofeffects="0"/>
        <send amount="1" channel="0"/>
      </fxchannel>
      <fxchannel volume="1" muted="0" soloed="0" name="FX 41" num="41">
        <fxchain enabled="0" numofeffects="0"/>
        <send amount="1" channel="0"/>
      </fxchannel>
      <fxchannel volume="1" muted="0" soloed="0" name="FX 42" num="42">
        <fxchain enabled="0" numofeffects="0"/>
        <send amount="1" channel="0"/>
      </fxchannel>
      <fxchannel volume="1" muted="0" soloed="0" name="FX 43" num="43">
        <fxchain enabled="0" numofeffects="0"/>
        <send amount="1" channel="0"/>
      </fxchannel>
      <fxchannel volume="1" muted="0" soloed="0" name="FX 44" num="44">
        <fxchain enabled="0" numofeffects="0"/>
        <send amount="1" channel="0"/>
      </fxchannel>
      <fxchannel volume="1" muted="0" soloed="0" name="FX 45" num="45">
        <fxchain enabled="0" numofeffects="0"/>
        <send amount="1" channel="0"/>
      </fxchannel>
      <fxchannel volume="1" muted="0" soloed="0" name="FX 46" num="46">
        <fxchain enabled="0" numofeffects="0"/>
        <send amount="1" channel="0"/>
      </fxchannel>
      <fxchannel volume="1" muted="0" soloed="0" name="FX 47" num="47">
        <fxchain enabled="0" numofeffects="0"/>
        <send amount="1" channel="0"/>
      </fxchannel>
      <fxchannel volume="1" muted="0" soloed="0" name="FX 48" num="48">
        <fxchain enabled="0" numofeffects="0"/>
        <send amount="1" channel="0"/>
      </fxchannel>
      <fxchannel volume="1" muted="0" soloed="0" name="FX 49" num="49">
        <fxchain enabled="0" numofeffects="0"/>
        <send amount="1" channel="0"/>
      </fxchannel>
      <fxchannel volume="1" muted="0" soloed="0" name="FX 50" num="50">
        <fxchain enabled="0" numofeffects="0"/>
        <send amount="1" channel="0"/>
      </fxchannel>
      <fxchannel volume="1" muted="0" soloed="0" name="FX 51" num="51">
        <fxchain enabled="0" numofeffects="0"/>
        <send amount="1" channel="0"/>
      </fxchannel>
      <fxchannel volume="1" muted="0" soloed="0" name="FX 52" num="52">
        <fxchain enabled="0" numofeffects="0"/>
        <send amount="1" channel="0"/>
      </fxchannel>
      <fxchannel volume="1" muted="0" soloed="0" name="FX 53" num="53">
        <fxchain enabled="0" numofeffects="0"/>
        <send amount="1" channel="0"/>
      </fxchannel>
      <fxchannel volume="1" muted="0" soloed="0" name="FX 54" num="54">
        <fxchain enabled="0" numofeffects="0"/>
        <send amount="1" channel="0"/>
      </fxchannel>
      <fxchannel volume="1" muted="0" soloed="0" name="FX 55" num="55">
        <fxchain enabled="0" numofeffects="0"/>
        <send amount="1" channel="0"/>
      </fxchannel>
    </fxmixer>
    <ControllerRackView y="282" width="350" minimized="0" maximized="0" x="680" height="200" visible="0"/>
    <pianoroll y="90" width="860" minimized="0" maximized="1" x="258" height="480" visible="0"/>
    <automationeditor y="145" width="860" minimized="0" maximized="0" x="158" height="400" visible="0"/>
    <projectnotes y="2" width="692" minimized="0" maximized="0" x="333" height="400" visible="0"><![CDATA[<!DOCTYPE HTML PUBLIC "-//W3C//DTD HTML 4.0//EN" "http://www.w3.org/TR/REC-html40/strict.dtd">
<html><head><meta name="qrichtext" content="1" /><style type="text/css">
p, li { white-space: pre-wrap; }
</style></head><body style=" font-family:'Ubuntu'; font-size:10pt; font-weight:400; font-style:normal;">
<p style="-qt-paragraph-type:empty; margin-top:0px; margin-bottom:0px; margin-left:0px; margin-right:0px; -qt-block-indent:0; text-indent:0px;"><br /></p></body></html>]]></projectnotes>
    <timeline stopbehaviour="0" lp1pos="48576" lp0pos="9600" lpstate="0"/>
    <controllers>
      <lfocontroller speed_syncmode="0" phase="0" amount="1" userwavefile="" base="0.5" speed="2" multiplier="0" name="Controller 1" speed_denominator="4" type="1" wave="0" speed_numerator="4"/>
    </controllers>
  </song>
</lmms-project>
