<?xml version="1.0"?>
<!DOCTYPE lmms-project>
<lmms-project type="song" creator="LMMS" version="18" creatorversion="1.3.0-alpha.1.33+g4f74151">
  <head mastervol="80" masterpitch="0">
    <bpm value="201" scale_type="linear" id="2356958"/>
    <timesig_numerator value="4" scale_type="linear" id="545120"/>
    <timesig_denominator value="4" scale_type="linear" id="114903"/>
  </head>
  <song>
    <trackcontainer width="720" type="song" height="465" maximized="1" visible="1" y="67" minimized="0" x="120">
      <track type="1" name="intro1" solo="0" muted="0" mutedBeforeSolo="0">
        <bbtrack>
          <trackcontainer width="1042" type="bbtrackcontainer" height="378" maximized="1" visible="0" y="41" minimized="0" x="52">
            <track type="0" name="kick" solo="0" muted="0" mutedBeforeSolo="0">
              <instrumenttrack usemasterpitch="1" pitchrange="1" pitch="0" vol="100" basenote="57" pan="0" fxch="1">
                <instrument name="audiofileprocessor">
                  <audiofileprocessor amp="100" lframe="0" interp="0" reversed="0" src="/home/pass/samples/sillydrums/kick.wav" sframe="0" eframe="1" stutter="0" looped="0">
                    <key/>
                  </audiofileprocessor>
                </instrument>
                <eldata fwet="0" fres="0.5" ftype="0" fcut="14000">
                  <elvol x100="0" lspd_numerator="4" amt="1" lspd="0.1" lpdel="0" dec="2" lspd_syncmode="0" att="0" ctlenvamt="0" pdel="0" latt="0" sustain="1" lspd_denominator="4" hold="2" lamt="0" userwavefile="" lshp="0" rel="2"/>
                  <elcut x100="0" lspd_numerator="4" amt="0" lspd="0.1" lpdel="0" dec="0.5" lspd_syncmode="0" att="0" ctlenvamt="0" pdel="0" latt="0" sustain="0.5" lspd_denominator="4" hold="0.5" lamt="0" userwavefile="" lshp="0" rel="0.1"/>
                  <elres x100="0" lspd_numerator="4" amt="0" lspd="0.1" lpdel="0" dec="0.5" lspd_syncmode="0" att="0" ctlenvamt="0" pdel="0" latt="0" sustain="0.5" lspd_denominator="4" hold="0.5" lamt="0" userwavefile="" lshp="0" rel="0.1"/>
                </eldata>
                <chordcreator chordrange="1" chord="0" chord-enabled="0"/>
                <arpeggiator arprange="1" arptime_syncmode="0" arpskip="0" arpmiss="0" arptime="200" arpdir="0" arpmode="0" arptime_denominator="4" arp-enabled="0" arp="0" arpgate="100" arpcycle="0" arptime_numerator="4"/>
                <midiport inputcontroller="0" outputcontroller="0" outputprogram="1" basevelocity="63" outputchannel="1" writable="0" inputchannel="0" readable="0" fixedinputvelocity="-1" fixedoutputvelocity="-1" fixedoutputnote="-1"/>
                <fxchain numofeffects="0" enabled="0"/>
              </instrumenttrack>
              <pattern type="0" name="" steps="64" muted="0" pos="0">
                <note vol="100" pan="0" key="57" pos="0" len="-192"/>
                <note vol="100" pan="0" key="57" pos="384" len="-192"/>
              </pattern>
              <pattern type="0" name="" steps="64" muted="0" pos="192">
                <note vol="100" pan="0" key="57" pos="0" len="-192"/>
                <note vol="100" pan="0" key="57" pos="384" len="-192"/>
                <note vol="100" pan="0" key="57" pos="720" len="-192"/>
                <note vol="100" pan="0" key="57" pos="732" len="-192"/>
                <note vol="100" pan="0" key="57" pos="744" len="-192"/>
                <note vol="100" pan="0" key="57" pos="756" len="-192"/>
              </pattern>
              <pattern type="0" name="" steps="32" muted="0" pos="384">
                <note vol="100" pan="0" key="57" pos="0" len="-192"/>
                <note vol="100" pan="0" key="57" pos="72" len="-192"/>
                <note vol="100" pan="0" key="57" pos="144" len="-192"/>
                <note vol="100" pan="0" key="57" pos="216" len="-192"/>
                <note vol="100" pan="0" key="57" pos="288" len="-192"/>
                <note vol="100" pan="0" key="57" pos="312" len="-192"/>
                <note vol="100" pan="0" key="57" pos="360" len="-192"/>
                <note vol="100" pan="0" key="57" pos="372" len="-192"/>
              </pattern>
              <pattern type="0" name="" steps="64" muted="0" pos="576">
                <note vol="100" pan="0" key="57" pos="0" len="-192"/>
                <note vol="100" pan="0" key="57" pos="12" len="-192"/>
                <note vol="100" pan="0" key="57" pos="24" len="-192"/>
                <note vol="100" pan="0" key="57" pos="36" len="-192"/>
                <note vol="100" pan="0" key="57" pos="48" len="-192"/>
                <note vol="100" pan="0" key="57" pos="60" len="-192"/>
                <note vol="100" pan="0" key="57" pos="72" len="-192"/>
                <note vol="100" pan="0" key="57" pos="84" len="-192"/>
                <note vol="100" pan="0" key="57" pos="96" len="-192"/>
                <note vol="100" pan="0" key="57" pos="108" len="-192"/>
                <note vol="100" pan="0" key="57" pos="120" len="-192"/>
                <note vol="100" pan="0" key="57" pos="132" len="-192"/>
                <note vol="100" pan="0" key="57" pos="144" len="-192"/>
                <note vol="100" pan="0" key="57" pos="156" len="-192"/>
                <note vol="100" pan="0" key="57" pos="168" len="-192"/>
                <note vol="100" pan="0" key="57" pos="180" len="-192"/>
                <note vol="100" pan="0" key="57" pos="192" len="-192"/>
                <note vol="100" pan="0" key="57" pos="204" len="-192"/>
                <note vol="100" pan="0" key="57" pos="216" len="-192"/>
                <note vol="100" pan="0" key="57" pos="228" len="-192"/>
                <note vol="100" pan="0" key="57" pos="240" len="-192"/>
                <note vol="100" pan="0" key="57" pos="252" len="-192"/>
                <note vol="100" pan="0" key="57" pos="264" len="-192"/>
                <note vol="100" pan="0" key="57" pos="276" len="-192"/>
                <note vol="100" pan="0" key="57" pos="288" len="-192"/>
                <note vol="100" pan="0" key="57" pos="300" len="-192"/>
                <note vol="100" pan="0" key="57" pos="312" len="-192"/>
                <note vol="100" pan="0" key="57" pos="324" len="-192"/>
                <note vol="100" pan="0" key="57" pos="336" len="-192"/>
                <note vol="100" pan="0" key="57" pos="348" len="-192"/>
                <note vol="100" pan="0" key="57" pos="360" len="-192"/>
                <note vol="100" pan="0" key="57" pos="372" len="-192"/>
                <note vol="100" pan="0" key="57" pos="384" len="-192"/>
                <note vol="100" pan="0" key="57" pos="396" len="-192"/>
                <note vol="100" pan="0" key="57" pos="408" len="-192"/>
                <note vol="100" pan="0" key="57" pos="420" len="-192"/>
                <note vol="100" pan="0" key="57" pos="432" len="-192"/>
                <note vol="100" pan="0" key="57" pos="444" len="-192"/>
                <note vol="100" pan="0" key="57" pos="456" len="-192"/>
                <note vol="100" pan="0" key="57" pos="468" len="-192"/>
                <note vol="100" pan="0" key="57" pos="480" len="-192"/>
                <note vol="100" pan="0" key="57" pos="492" len="-192"/>
                <note vol="100" pan="0" key="57" pos="504" len="-192"/>
                <note vol="100" pan="0" key="57" pos="516" len="-192"/>
                <note vol="100" pan="0" key="57" pos="528" len="-192"/>
                <note vol="100" pan="0" key="57" pos="540" len="-192"/>
                <note vol="100" pan="0" key="57" pos="552" len="-192"/>
                <note vol="100" pan="0" key="57" pos="564" len="-192"/>
                <note vol="100" pan="0" key="57" pos="576" len="-192"/>
                <note vol="100" pan="0" key="57" pos="588" len="-192"/>
                <note vol="100" pan="0" key="57" pos="600" len="-192"/>
                <note vol="100" pan="0" key="57" pos="612" len="-192"/>
                <note vol="100" pan="0" key="57" pos="624" len="-192"/>
                <note vol="100" pan="0" key="57" pos="636" len="-192"/>
                <note vol="100" pan="0" key="57" pos="648" len="-192"/>
                <note vol="100" pan="0" key="57" pos="660" len="-192"/>
                <note vol="100" pan="0" key="57" pos="672" len="-192"/>
                <note vol="100" pan="0" key="57" pos="684" len="-192"/>
                <note vol="100" pan="0" key="57" pos="696" len="-192"/>
                <note vol="100" pan="0" key="57" pos="708" len="-192"/>
                <note vol="100" pan="0" key="57" pos="720" len="-192"/>
                <note vol="100" pan="0" key="57" pos="732" len="-192"/>
                <note vol="100" pan="0" key="57" pos="744" len="-192"/>
                <note vol="100" pan="0" key="57" pos="756" len="-192"/>
              </pattern>
              <pattern type="0" name="" steps="16" muted="0" pos="768">
                <note vol="100" pan="0" key="57" pos="0" len="-192"/>
                <note vol="100" pan="0" key="57" pos="12" len="-192"/>
                <note vol="100" pan="0" key="57" pos="24" len="-192"/>
                <note vol="100" pan="0" key="57" pos="36" len="-192"/>
                <note vol="100" pan="0" key="57" pos="48" len="-192"/>
                <note vol="100" pan="0" key="57" pos="60" len="-192"/>
                <note vol="100" pan="0" key="57" pos="72" len="-192"/>
                <note vol="100" pan="0" key="57" pos="84" len="-192"/>
                <note vol="100" pan="0" key="57" pos="96" len="-192"/>
                <note vol="100" pan="0" key="57" pos="108" len="-192"/>
                <note vol="100" pan="0" key="57" pos="120" len="-192"/>
                <note vol="100" pan="0" key="57" pos="132" len="-192"/>
                <note vol="100" pan="0" key="57" pos="144" len="-192"/>
                <note vol="100" pan="0" key="57" pos="156" len="-192"/>
                <note vol="100" pan="0" key="57" pos="168" len="-192"/>
                <note vol="100" pan="0" key="57" pos="180" len="-192"/>
              </pattern>
              <pattern type="0" name="" steps="64" muted="0" pos="960">
                <note vol="100" pan="0" key="57" pos="0" len="-192"/>
                <note vol="100" pan="0" key="57" pos="48" len="-192"/>
                <note vol="100" pan="0" key="57" pos="96" len="-192"/>
                <note vol="100" pan="0" key="57" pos="144" len="-192"/>
                <note vol="100" pan="0" key="57" pos="156" len="-192"/>
                <note vol="100" pan="0" key="57" pos="168" len="-192"/>
                <note vol="100" pan="0" key="57" pos="180" len="-192"/>
                <note vol="100" pan="0" key="57" pos="192" len="-192"/>
                <note vol="100" pan="0" key="57" pos="240" len="-192"/>
                <note vol="100" pan="0" key="57" pos="288" len="-192"/>
                <note vol="100" pan="0" key="57" pos="336" len="-192"/>
                <note vol="100" pan="0" key="57" pos="348" len="-192"/>
                <note vol="100" pan="0" key="57" pos="360" len="-192"/>
                <note vol="100" pan="0" key="57" pos="372" len="-192"/>
                <note vol="100" pan="0" key="57" pos="384" len="-192"/>
                <note vol="100" pan="0" key="57" pos="432" len="-192"/>
                <note vol="100" pan="0" key="57" pos="480" len="-192"/>
                <note vol="100" pan="0" key="57" pos="528" len="-192"/>
                <note vol="100" pan="0" key="57" pos="540" len="-192"/>
                <note vol="100" pan="0" key="57" pos="552" len="-192"/>
                <note vol="100" pan="0" key="57" pos="564" len="-192"/>
                <note vol="100" pan="0" key="57" pos="576" len="-192"/>
                <note vol="100" pan="0" key="57" pos="588" len="-192"/>
                <note vol="100" pan="0" key="57" pos="600" len="-192"/>
                <note vol="100" pan="0" key="57" pos="612" len="-192"/>
                <note vol="100" pan="0" key="57" pos="624" len="-192"/>
                <note vol="100" pan="0" key="57" pos="636" len="-192"/>
                <note vol="100" pan="0" key="57" pos="648" len="-192"/>
                <note vol="100" pan="0" key="57" pos="660" len="-192"/>
                <note vol="100" pan="0" key="57" pos="672" len="-192"/>
                <note vol="100" pan="0" key="57" pos="684" len="-192"/>
                <note vol="100" pan="0" key="57" pos="696" len="-192"/>
                <note vol="100" pan="0" key="57" pos="708" len="-192"/>
                <note vol="100" pan="0" key="57" pos="720" len="-192"/>
                <note vol="100" pan="0" key="57" pos="732" len="-192"/>
                <note vol="100" pan="0" key="57" pos="744" len="-192"/>
                <note vol="100" pan="0" key="57" pos="756" len="-192"/>
              </pattern>
              <pattern type="0" name="" steps="64" muted="0" pos="1152">
                <note vol="100" pan="0" key="57" pos="0" len="-192"/>
                <note vol="100" pan="0" key="57" pos="48" len="-192"/>
                <note vol="100" pan="0" key="57" pos="96" len="-192"/>
                <note vol="100" pan="0" key="57" pos="144" len="-192"/>
                <note vol="100" pan="0" key="57" pos="156" len="-192"/>
                <note vol="100" pan="0" key="57" pos="168" len="-192"/>
                <note vol="100" pan="0" key="57" pos="180" len="-192"/>
                <note vol="100" pan="0" key="57" pos="192" len="-192"/>
                <note vol="100" pan="0" key="57" pos="240" len="-192"/>
                <note vol="100" pan="0" key="57" pos="288" len="-192"/>
                <note vol="100" pan="0" key="57" pos="336" len="-192"/>
                <note vol="100" pan="0" key="57" pos="348" len="-192"/>
                <note vol="100" pan="0" key="57" pos="360" len="-192"/>
                <note vol="100" pan="0" key="57" pos="372" len="-192"/>
                <note vol="100" pan="0" key="57" pos="384" len="-192"/>
                <note vol="100" pan="0" key="57" pos="432" len="-192"/>
                <note vol="100" pan="0" key="57" pos="480" len="-192"/>
                <note vol="100" pan="0" key="57" pos="528" len="-192"/>
                <note vol="100" pan="0" key="57" pos="540" len="-192"/>
                <note vol="100" pan="0" key="57" pos="552" len="-192"/>
                <note vol="100" pan="0" key="57" pos="564" len="-192"/>
                <note vol="100" pan="0" key="57" pos="576" len="-192"/>
                <note vol="100" pan="0" key="57" pos="624" len="-192"/>
                <note vol="100" pan="0" key="57" pos="672" len="-192"/>
                <note vol="100" pan="0" key="57" pos="720" len="-192"/>
                <note vol="100" pan="0" key="57" pos="732" len="-192"/>
                <note vol="100" pan="0" key="57" pos="744" len="-192"/>
                <note vol="100" pan="0" key="57" pos="756" len="-192"/>
              </pattern>
              <pattern type="0" name="" steps="32" muted="0" pos="1344">
                <note vol="100" pan="0" key="57" pos="0" len="-192"/>
              </pattern>
              <pattern type="0" name="" steps="64" muted="0" pos="1536">
                <note vol="100" pan="0" key="57" pos="0" len="-192"/>
                <note vol="100" pan="0" key="57" pos="12" len="-192"/>
                <note vol="100" pan="0" key="57" pos="24" len="-192"/>
                <note vol="100" pan="0" key="57" pos="48" len="-192"/>
                <note vol="100" pan="0" key="57" pos="60" len="-192"/>
                <note vol="100" pan="0" key="57" pos="72" len="-192"/>
                <note vol="100" pan="0" key="57" pos="96" len="-192"/>
                <note vol="100" pan="0" key="57" pos="108" len="-192"/>
                <note vol="100" pan="0" key="57" pos="120" len="-192"/>
                <note vol="100" pan="0" key="57" pos="144" len="-192"/>
                <note vol="100" pan="0" key="57" pos="156" len="-192"/>
                <note vol="100" pan="0" key="57" pos="168" len="-192"/>
                <note vol="100" pan="0" key="57" pos="192" len="-192"/>
                <note vol="100" pan="0" key="57" pos="204" len="-192"/>
                <note vol="100" pan="0" key="57" pos="216" len="-192"/>
                <note vol="100" pan="0" key="57" pos="240" len="-192"/>
                <note vol="100" pan="0" key="57" pos="252" len="-192"/>
                <note vol="100" pan="0" key="57" pos="264" len="-192"/>
                <note vol="100" pan="0" key="57" pos="276" len="-192"/>
                <note vol="100" pan="0" key="57" pos="288" len="-192"/>
                <note vol="100" pan="0" key="57" pos="300" len="-192"/>
                <note vol="100" pan="0" key="57" pos="312" len="-192"/>
                <note vol="100" pan="0" key="57" pos="324" len="-192"/>
                <note vol="100" pan="0" key="57" pos="336" len="-192"/>
                <note vol="100" pan="0" key="57" pos="348" len="-192"/>
                <note vol="100" pan="0" key="57" pos="360" len="-192"/>
                <note vol="100" pan="0" key="57" pos="372" len="-192"/>
                <note vol="100" pan="0" key="57" pos="384" len="-192"/>
                <note vol="100" pan="0" key="57" pos="396" len="-192"/>
                <note vol="100" pan="0" key="57" pos="408" len="-192"/>
                <note vol="100" pan="0" key="57" pos="432" len="-192"/>
                <note vol="100" pan="0" key="57" pos="444" len="-192"/>
                <note vol="100" pan="0" key="57" pos="456" len="-192"/>
                <note vol="100" pan="0" key="57" pos="480" len="-192"/>
                <note vol="100" pan="0" key="57" pos="492" len="-192"/>
                <note vol="100" pan="0" key="57" pos="504" len="-192"/>
                <note vol="100" pan="0" key="57" pos="528" len="-192"/>
                <note vol="100" pan="0" key="57" pos="540" len="-192"/>
                <note vol="100" pan="0" key="57" pos="552" len="-192"/>
                <note vol="100" pan="0" key="57" pos="576" len="-192"/>
                <note vol="100" pan="0" key="57" pos="588" len="-192"/>
                <note vol="100" pan="0" key="57" pos="600" len="-192"/>
                <note vol="100" pan="0" key="57" pos="624" len="-192"/>
                <note vol="100" pan="0" key="57" pos="636" len="-192"/>
                <note vol="100" pan="0" key="57" pos="648" len="-192"/>
                <note vol="100" pan="0" key="57" pos="660" len="-192"/>
                <note vol="100" pan="0" key="57" pos="672" len="-192"/>
                <note vol="100" pan="0" key="57" pos="684" len="-192"/>
                <note vol="100" pan="0" key="57" pos="696" len="-192"/>
                <note vol="100" pan="0" key="57" pos="708" len="-192"/>
                <note vol="100" pan="0" key="57" pos="720" len="-192"/>
                <note vol="100" pan="0" key="57" pos="732" len="-192"/>
                <note vol="100" pan="0" key="57" pos="744" len="-192"/>
                <note vol="100" pan="0" key="57" pos="756" len="-192"/>
              </pattern>
              <pattern type="0" name="" steps="32" muted="0" pos="1728">
                <note vol="100" pan="0" key="57" pos="0" len="-192"/>
                <note vol="100" pan="0" key="57" pos="12" len="-192"/>
                <note vol="100" pan="0" key="57" pos="24" len="-192"/>
                <note vol="100" pan="0" key="57" pos="36" len="-192"/>
                <note vol="100" pan="0" key="57" pos="48" len="-192"/>
                <note vol="100" pan="0" key="57" pos="60" len="-192"/>
                <note vol="100" pan="0" key="57" pos="72" len="-192"/>
                <note vol="100" pan="0" key="57" pos="84" len="-192"/>
                <note vol="100" pan="0" key="57" pos="96" len="-192"/>
                <note vol="100" pan="0" key="57" pos="108" len="-192"/>
                <note vol="100" pan="0" key="57" pos="120" len="-192"/>
                <note vol="100" pan="0" key="57" pos="132" len="-192"/>
                <note vol="100" pan="0" key="57" pos="144" len="-192"/>
                <note vol="100" pan="0" key="57" pos="156" len="-192"/>
                <note vol="100" pan="0" key="57" pos="168" len="-192"/>
                <note vol="100" pan="0" key="57" pos="180" len="-192"/>
                <note vol="100" pan="0" key="57" pos="192" len="-192"/>
                <note vol="100" pan="0" key="57" pos="204" len="-192"/>
                <note vol="100" pan="0" key="57" pos="216" len="-192"/>
                <note vol="100" pan="0" key="57" pos="228" len="-192"/>
                <note vol="100" pan="0" key="57" pos="240" len="-192"/>
                <note vol="100" pan="0" key="57" pos="252" len="-192"/>
                <note vol="100" pan="0" key="57" pos="264" len="-192"/>
                <note vol="100" pan="0" key="57" pos="276" len="-192"/>
                <note vol="100" pan="0" key="57" pos="288" len="-192"/>
                <note vol="100" pan="0" key="57" pos="300" len="-192"/>
                <note vol="100" pan="0" key="57" pos="312" len="-192"/>
                <note vol="100" pan="0" key="57" pos="324" len="-192"/>
                <note vol="100" pan="0" key="57" pos="336" len="-192"/>
                <note vol="100" pan="0" key="57" pos="348" len="-192"/>
                <note vol="100" pan="0" key="57" pos="360" len="-192"/>
                <note vol="100" pan="0" key="57" pos="372" len="-192"/>
              </pattern>
              <pattern type="0" name="" steps="32" muted="0" pos="1920">
                <note vol="100" pan="0" key="57" pos="0" len="-192"/>
                <note vol="100" pan="0" key="57" pos="12" len="-192"/>
                <note vol="100" pan="0" key="57" pos="24" len="-192"/>
                <note vol="100" pan="0" key="57" pos="36" len="-192"/>
                <note vol="100" pan="0" key="57" pos="48" len="-192"/>
                <note vol="100" pan="0" key="57" pos="60" len="-192"/>
                <note vol="100" pan="0" key="57" pos="72" len="-192"/>
                <note vol="100" pan="0" key="57" pos="84" len="-192"/>
                <note vol="100" pan="0" key="57" pos="96" len="-192"/>
                <note vol="100" pan="0" key="57" pos="108" len="-192"/>
                <note vol="100" pan="0" key="57" pos="120" len="-192"/>
                <note vol="100" pan="0" key="57" pos="132" len="-192"/>
                <note vol="100" pan="0" key="57" pos="144" len="-192"/>
                <note vol="100" pan="0" key="57" pos="156" len="-192"/>
                <note vol="100" pan="0" key="57" pos="168" len="-192"/>
                <note vol="100" pan="0" key="57" pos="180" len="-192"/>
                <note vol="100" pan="0" key="57" pos="192" len="-192"/>
                <note vol="100" pan="0" key="57" pos="288" len="-192"/>
                <note vol="100" pan="0" key="57" pos="300" len="-192"/>
                <note vol="100" pan="0" key="57" pos="312" len="-192"/>
                <note vol="100" pan="0" key="57" pos="324" len="-192"/>
                <note vol="100" pan="0" key="57" pos="336" len="-192"/>
                <note vol="100" pan="0" key="57" pos="348" len="-192"/>
                <note vol="100" pan="0" key="57" pos="360" len="-192"/>
                <note vol="100" pan="0" key="57" pos="372" len="-192"/>
              </pattern>
              <pattern type="0" name="" steps="64" muted="0" pos="2112">
                <note vol="100" pan="0" key="57" pos="0" len="-192"/>
                <note vol="100" pan="0" key="57" pos="12" len="-192"/>
                <note vol="100" pan="0" key="57" pos="24" len="-192"/>
                <note vol="100" pan="0" key="57" pos="36" len="-192"/>
                <note vol="100" pan="0" key="57" pos="48" len="-192"/>
                <note vol="100" pan="0" key="57" pos="60" len="-192"/>
                <note vol="100" pan="0" key="57" pos="72" len="-192"/>
                <note vol="100" pan="0" key="57" pos="84" len="-192"/>
                <note vol="100" pan="0" key="57" pos="96" len="-192"/>
                <note vol="100" pan="0" key="57" pos="108" len="-192"/>
                <note vol="100" pan="0" key="57" pos="120" len="-192"/>
                <note vol="100" pan="0" key="57" pos="132" len="-192"/>
                <note vol="100" pan="0" key="57" pos="144" len="-192"/>
                <note vol="100" pan="0" key="57" pos="156" len="-192"/>
                <note vol="100" pan="0" key="57" pos="168" len="-192"/>
                <note vol="100" pan="0" key="57" pos="180" len="-192"/>
                <note vol="100" pan="0" key="57" pos="192" len="-192"/>
                <note vol="100" pan="0" key="57" pos="204" len="-192"/>
                <note vol="100" pan="0" key="57" pos="216" len="-192"/>
                <note vol="100" pan="0" key="57" pos="228" len="-192"/>
                <note vol="100" pan="0" key="57" pos="240" len="-192"/>
                <note vol="100" pan="0" key="57" pos="252" len="-192"/>
                <note vol="100" pan="0" key="57" pos="264" len="-192"/>
                <note vol="100" pan="0" key="57" pos="276" len="-192"/>
                <note vol="100" pan="0" key="57" pos="288" len="-192"/>
                <note vol="100" pan="0" key="57" pos="300" len="-192"/>
                <note vol="100" pan="0" key="57" pos="312" len="-192"/>
                <note vol="100" pan="0" key="57" pos="324" len="-192"/>
                <note vol="100" pan="0" key="57" pos="336" len="-192"/>
                <note vol="100" pan="0" key="57" pos="348" len="-192"/>
                <note vol="100" pan="0" key="57" pos="360" len="-192"/>
                <note vol="100" pan="0" key="57" pos="372" len="-192"/>
                <note vol="100" pan="0" key="57" pos="384" len="-192"/>
                <note vol="100" pan="0" key="57" pos="396" len="-192"/>
                <note vol="100" pan="0" key="57" pos="408" len="-192"/>
                <note vol="100" pan="0" key="57" pos="420" len="-192"/>
                <note vol="100" pan="0" key="57" pos="432" len="-192"/>
                <note vol="100" pan="0" key="57" pos="444" len="-192"/>
                <note vol="100" pan="0" key="57" pos="456" len="-192"/>
                <note vol="100" pan="0" key="57" pos="468" len="-192"/>
                <note vol="100" pan="0" key="57" pos="480" len="-192"/>
                <note vol="100" pan="0" key="57" pos="492" len="-192"/>
                <note vol="100" pan="0" key="57" pos="504" len="-192"/>
                <note vol="100" pan="0" key="57" pos="516" len="-192"/>
                <note vol="100" pan="0" key="57" pos="528" len="-192"/>
                <note vol="100" pan="0" key="57" pos="540" len="-192"/>
                <note vol="100" pan="0" key="57" pos="552" len="-192"/>
                <note vol="100" pan="0" key="57" pos="564" len="-192"/>
                <note vol="100" pan="0" key="57" pos="576" len="-192"/>
                <note vol="100" pan="0" key="57" pos="588" len="-192"/>
                <note vol="100" pan="0" key="57" pos="600" len="-192"/>
                <note vol="100" pan="0" key="57" pos="612" len="-192"/>
                <note vol="100" pan="0" key="57" pos="624" len="-192"/>
                <note vol="100" pan="0" key="57" pos="636" len="-192"/>
                <note vol="100" pan="0" key="57" pos="648" len="-192"/>
                <note vol="100" pan="0" key="57" pos="660" len="-192"/>
                <note vol="100" pan="0" key="57" pos="672" len="-192"/>
                <note vol="100" pan="0" key="57" pos="684" len="-192"/>
                <note vol="100" pan="0" key="57" pos="696" len="-192"/>
                <note vol="100" pan="0" key="57" pos="708" len="-192"/>
                <note vol="100" pan="0" key="57" pos="720" len="-192"/>
                <note vol="100" pan="0" key="57" pos="732" len="-192"/>
                <note vol="100" pan="0" key="57" pos="744" len="-192"/>
                <note vol="100" pan="0" key="57" pos="756" len="-192"/>
              </pattern>
              <pattern type="0" name="" steps="32" muted="0" pos="2304">
                <note vol="100" pan="0" key="57" pos="0" len="-192"/>
                <note vol="100" pan="0" key="57" pos="12" len="-192"/>
                <note vol="100" pan="0" key="57" pos="24" len="-192"/>
                <note vol="100" pan="0" key="57" pos="36" len="-192"/>
                <note vol="100" pan="0" key="57" pos="48" len="-192"/>
                <note vol="100" pan="0" key="57" pos="60" len="-192"/>
                <note vol="100" pan="0" key="57" pos="72" len="-192"/>
                <note vol="100" pan="0" key="57" pos="84" len="-192"/>
                <note vol="100" pan="0" key="57" pos="96" len="-192"/>
                <note vol="100" pan="0" key="57" pos="108" len="-192"/>
                <note vol="100" pan="0" key="57" pos="120" len="-192"/>
                <note vol="100" pan="0" key="57" pos="132" len="-192"/>
                <note vol="100" pan="0" key="57" pos="144" len="-192"/>
                <note vol="100" pan="0" key="57" pos="156" len="-192"/>
                <note vol="100" pan="0" key="57" pos="168" len="-192"/>
                <note vol="100" pan="0" key="57" pos="180" len="-192"/>
                <note vol="100" pan="0" key="57" pos="192" len="-192"/>
                <note vol="100" pan="0" key="57" pos="204" len="-192"/>
                <note vol="100" pan="0" key="57" pos="216" len="-192"/>
                <note vol="100" pan="0" key="57" pos="228" len="-192"/>
                <note vol="100" pan="0" key="57" pos="240" len="-192"/>
                <note vol="100" pan="0" key="57" pos="252" len="-192"/>
                <note vol="100" pan="0" key="57" pos="264" len="-192"/>
                <note vol="100" pan="0" key="57" pos="276" len="-192"/>
                <note vol="100" pan="0" key="57" pos="288" len="-192"/>
                <note vol="100" pan="0" key="57" pos="300" len="-192"/>
                <note vol="100" pan="0" key="57" pos="312" len="-192"/>
                <note vol="100" pan="0" key="57" pos="324" len="-192"/>
                <note vol="100" pan="0" key="57" pos="336" len="-192"/>
                <note vol="100" pan="0" key="57" pos="348" len="-192"/>
                <note vol="100" pan="0" key="57" pos="360" len="-192"/>
                <note vol="100" pan="0" key="57" pos="372" len="-192"/>
              </pattern>
              <pattern type="0" name="" steps="32" muted="0" pos="2496">
                <note vol="100" pan="0" key="57" pos="0" len="-192"/>
                <note vol="100" pan="0" key="57" pos="12" len="-192"/>
                <note vol="100" pan="0" key="57" pos="24" len="-192"/>
                <note vol="100" pan="0" key="57" pos="36" len="-192"/>
                <note vol="100" pan="0" key="57" pos="48" len="-192"/>
                <note vol="100" pan="0" key="57" pos="60" len="-192"/>
                <note vol="100" pan="0" key="57" pos="72" len="-192"/>
                <note vol="100" pan="0" key="57" pos="84" len="-192"/>
                <note vol="100" pan="0" key="57" pos="96" len="-192"/>
                <note vol="100" pan="0" key="57" pos="108" len="-192"/>
                <note vol="100" pan="0" key="57" pos="120" len="-192"/>
                <note vol="100" pan="0" key="57" pos="132" len="-192"/>
                <note vol="100" pan="0" key="57" pos="144" len="-192"/>
                <note vol="100" pan="0" key="57" pos="156" len="-192"/>
                <note vol="100" pan="0" key="57" pos="168" len="-192"/>
                <note vol="100" pan="0" key="57" pos="180" len="-192"/>
                <note vol="100" pan="0" key="57" pos="192" len="-192"/>
                <note vol="100" pan="0" key="57" pos="204" len="-192"/>
                <note vol="100" pan="0" key="57" pos="216" len="-192"/>
                <note vol="100" pan="0" key="57" pos="228" len="-192"/>
                <note vol="100" pan="0" key="57" pos="240" len="-192"/>
                <note vol="100" pan="0" key="57" pos="252" len="-192"/>
                <note vol="100" pan="0" key="57" pos="264" len="-192"/>
                <note vol="100" pan="0" key="57" pos="276" len="-192"/>
                <note vol="100" pan="0" key="57" pos="288" len="-192"/>
                <note vol="100" pan="0" key="57" pos="300" len="-192"/>
                <note vol="100" pan="0" key="57" pos="312" len="-192"/>
                <note vol="100" pan="0" key="57" pos="324" len="-192"/>
                <note vol="100" pan="0" key="57" pos="336" len="-192"/>
                <note vol="100" pan="0" key="57" pos="348" len="-192"/>
                <note vol="100" pan="0" key="57" pos="360" len="-192"/>
                <note vol="100" pan="0" key="57" pos="372" len="-192"/>
              </pattern>
              <pattern type="0" name="" steps="64" muted="0" pos="2688">
                <note vol="100" pan="0" key="57" pos="0" len="-192"/>
                <note vol="100" pan="0" key="57" pos="12" len="-192"/>
                <note vol="100" pan="0" key="57" pos="24" len="-192"/>
                <note vol="100" pan="0" key="57" pos="36" len="-192"/>
                <note vol="100" pan="0" key="57" pos="48" len="-192"/>
                <note vol="100" pan="0" key="57" pos="60" len="-192"/>
                <note vol="100" pan="0" key="57" pos="72" len="-192"/>
                <note vol="100" pan="0" key="57" pos="84" len="-192"/>
                <note vol="100" pan="0" key="57" pos="96" len="-192"/>
                <note vol="100" pan="0" key="57" pos="108" len="-192"/>
                <note vol="100" pan="0" key="57" pos="120" len="-192"/>
                <note vol="100" pan="0" key="57" pos="132" len="-192"/>
                <note vol="100" pan="0" key="57" pos="144" len="-192"/>
                <note vol="100" pan="0" key="57" pos="156" len="-192"/>
                <note vol="100" pan="0" key="57" pos="168" len="-192"/>
                <note vol="100" pan="0" key="57" pos="180" len="-192"/>
                <note vol="100" pan="0" key="57" pos="192" len="-192"/>
                <note vol="100" pan="0" key="57" pos="204" len="-192"/>
                <note vol="100" pan="0" key="57" pos="216" len="-192"/>
                <note vol="100" pan="0" key="57" pos="228" len="-192"/>
                <note vol="100" pan="0" key="57" pos="240" len="-192"/>
                <note vol="100" pan="0" key="57" pos="252" len="-192"/>
                <note vol="100" pan="0" key="57" pos="264" len="-192"/>
                <note vol="100" pan="0" key="57" pos="276" len="-192"/>
                <note vol="100" pan="0" key="57" pos="288" len="-192"/>
                <note vol="100" pan="0" key="57" pos="300" len="-192"/>
                <note vol="100" pan="0" key="57" pos="312" len="-192"/>
                <note vol="100" pan="0" key="57" pos="324" len="-192"/>
                <note vol="100" pan="0" key="57" pos="336" len="-192"/>
                <note vol="100" pan="0" key="57" pos="348" len="-192"/>
                <note vol="100" pan="0" key="57" pos="360" len="-192"/>
                <note vol="100" pan="0" key="57" pos="372" len="-192"/>
                <note vol="100" pan="0" key="57" pos="384" len="-192"/>
                <note vol="100" pan="0" key="57" pos="396" len="-192"/>
                <note vol="100" pan="0" key="57" pos="408" len="-192"/>
                <note vol="100" pan="0" key="57" pos="420" len="-192"/>
                <note vol="100" pan="0" key="57" pos="432" len="-192"/>
                <note vol="100" pan="0" key="57" pos="444" len="-192"/>
                <note vol="100" pan="0" key="57" pos="456" len="-192"/>
                <note vol="100" pan="0" key="57" pos="468" len="-192"/>
                <note vol="100" pan="0" key="57" pos="480" len="-192"/>
                <note vol="100" pan="0" key="57" pos="492" len="-192"/>
                <note vol="100" pan="0" key="57" pos="504" len="-192"/>
                <note vol="100" pan="0" key="57" pos="516" len="-192"/>
                <note vol="100" pan="0" key="57" pos="528" len="-192"/>
                <note vol="100" pan="0" key="57" pos="540" len="-192"/>
                <note vol="100" pan="0" key="57" pos="552" len="-192"/>
                <note vol="100" pan="0" key="57" pos="564" len="-192"/>
                <note vol="100" pan="0" key="57" pos="576" len="-192"/>
                <note vol="100" pan="0" key="57" pos="588" len="-192"/>
                <note vol="100" pan="0" key="57" pos="600" len="-192"/>
                <note vol="100" pan="0" key="57" pos="612" len="-192"/>
                <note vol="100" pan="0" key="57" pos="624" len="-192"/>
                <note vol="100" pan="0" key="57" pos="636" len="-192"/>
                <note vol="100" pan="0" key="57" pos="648" len="-192"/>
                <note vol="100" pan="0" key="57" pos="660" len="-192"/>
                <note vol="100" pan="0" key="57" pos="672" len="-192"/>
                <note vol="100" pan="0" key="57" pos="684" len="-192"/>
                <note vol="100" pan="0" key="57" pos="696" len="-192"/>
                <note vol="100" pan="0" key="57" pos="708" len="-192"/>
                <note vol="100" pan="0" key="57" pos="720" len="-192"/>
                <note vol="100" pan="0" key="57" pos="732" len="-192"/>
                <note vol="100" pan="0" key="57" pos="744" len="-192"/>
                <note vol="100" pan="0" key="57" pos="756" len="-192"/>
              </pattern>
              <pattern type="0" name="" steps="16" muted="0" pos="2880">
                <note vol="100" pan="0" key="57" pos="0" len="-192"/>
                <note vol="100" pan="0" key="57" pos="48" len="-192"/>
                <note vol="100" pan="0" key="57" pos="96" len="-192"/>
                <note vol="100" pan="0" key="57" pos="144" len="-192"/>
                <note vol="100" pan="0" key="57" pos="156" len="-192"/>
                <note vol="100" pan="0" key="57" pos="168" len="-192"/>
                <note vol="100" pan="0" key="57" pos="180" len="-192"/>
              </pattern>
              <pattern type="0" name="" steps="16" muted="0" pos="3072">
                <note vol="100" pan="0" key="57" pos="0" len="-192"/>
                <note vol="100" pan="0" key="57" pos="12" len="-192"/>
                <note vol="100" pan="0" key="57" pos="24" len="-192"/>
                <note vol="100" pan="0" key="57" pos="36" len="-192"/>
                <note vol="100" pan="0" key="57" pos="48" len="-192"/>
                <note vol="100" pan="0" key="57" pos="60" len="-192"/>
                <note vol="100" pan="0" key="57" pos="72" len="-192"/>
                <note vol="100" pan="0" key="57" pos="84" len="-192"/>
                <note vol="100" pan="0" key="57" pos="96" len="-192"/>
                <note vol="100" pan="0" key="57" pos="144" len="-192"/>
              </pattern>
              <pattern type="0" name="" steps="16" muted="0" pos="3264">
                <note vol="100" pan="0" key="57" pos="0" len="-192"/>
                <note vol="100" pan="0" key="57" pos="24" len="-192"/>
                <note vol="100" pan="0" key="57" pos="96" len="-192"/>
                <note vol="100" pan="0" key="57" pos="120" len="-192"/>
              </pattern>
              <pattern type="0" name="" steps="32" muted="0" pos="3456">
                <note vol="100" pan="0" key="57" pos="96" len="-192"/>
                <note vol="100" pan="0" key="57" pos="192" len="-192"/>
                <note vol="100" pan="0" key="57" pos="288" len="-192"/>
                <note vol="100" pan="0" key="57" pos="336" len="-192"/>
                <note vol="100" pan="0" key="57" pos="348" len="-192"/>
                <note vol="100" pan="0" key="57" pos="360" len="-192"/>
                <note vol="100" pan="0" key="57" pos="372" len="-192"/>
              </pattern>
              <pattern type="0" name="" steps="16" muted="0" pos="3648">
                <note vol="100" pan="0" key="57" pos="0" len="-192"/>
                <note vol="100" pan="0" key="57" pos="96" len="-192"/>
              </pattern>
              <pattern type="0" name="" steps="32" muted="0" pos="3840">
                <note vol="100" pan="0" key="57" pos="0" len="-192"/>
                <note vol="100" pan="0" key="57" pos="192" len="-192"/>
                <note vol="100" pan="0" key="57" pos="288" len="-192"/>
                <note vol="100" pan="0" key="57" pos="360" len="-192"/>
                <note vol="100" pan="0" key="57" pos="372" len="-192"/>
              </pattern>
              <pattern type="0" name="" steps="64" muted="0" pos="4032">
                <note vol="100" pan="0" key="57" pos="0" len="-192"/>
                <note vol="100" pan="0" key="57" pos="48" len="-192"/>
                <note vol="100" pan="0" key="57" pos="96" len="-192"/>
                <note vol="100" pan="0" key="57" pos="144" len="-192"/>
                <note vol="100" pan="0" key="57" pos="192" len="-192"/>
                <note vol="100" pan="0" key="57" pos="240" len="-192"/>
                <note vol="100" pan="0" key="57" pos="288" len="-192"/>
                <note vol="100" pan="0" key="57" pos="336" len="-192"/>
                <note vol="100" pan="0" key="57" pos="384" len="-192"/>
                <note vol="100" pan="0" key="57" pos="432" len="-192"/>
                <note vol="100" pan="0" key="57" pos="480" len="-192"/>
                <note vol="100" pan="0" key="57" pos="528" len="-192"/>
                <note vol="100" pan="0" key="57" pos="576" len="-192"/>
                <note vol="100" pan="0" key="57" pos="624" len="-192"/>
                <note vol="100" pan="0" key="57" pos="672" len="-192"/>
                <note vol="100" pan="0" key="57" pos="684" len="-192"/>
                <note vol="100" pan="0" key="57" pos="696" len="-192"/>
                <note vol="100" pan="0" key="57" pos="708" len="-192"/>
                <note vol="100" pan="0" key="57" pos="720" len="-192"/>
                <note vol="100" pan="0" key="57" pos="732" len="-192"/>
                <note vol="100" pan="0" key="57" pos="744" len="-192"/>
                <note vol="100" pan="0" key="57" pos="756" len="-192"/>
              </pattern>
              <pattern type="0" name="" steps="64" muted="0" pos="4224">
                <note vol="100" pan="0" key="57" pos="0" len="-192"/>
                <note vol="100" pan="0" key="57" pos="144" len="-192"/>
                <note vol="100" pan="0" key="57" pos="192" len="-192"/>
                <note vol="100" pan="0" key="57" pos="336" len="-192"/>
                <note vol="100" pan="0" key="57" pos="384" len="-192"/>
                <note vol="100" pan="0" key="57" pos="528" len="-192"/>
                <note vol="100" pan="0" key="57" pos="576" len="-192"/>
                <note vol="100" pan="0" key="57" pos="624" len="-192"/>
                <note vol="100" pan="0" key="57" pos="672" len="-192"/>
                <note vol="100" pan="0" key="57" pos="684" len="-192"/>
                <note vol="100" pan="0" key="57" pos="696" len="-192"/>
                <note vol="100" pan="0" key="57" pos="708" len="-192"/>
                <note vol="100" pan="0" key="57" pos="720" len="-192"/>
                <note vol="100" pan="0" key="57" pos="732" len="-192"/>
                <note vol="100" pan="0" key="57" pos="744" len="-192"/>
                <note vol="100" pan="0" key="57" pos="756" len="-192"/>
              </pattern>
              <pattern type="0" name="" steps="32" muted="0" pos="4416">
                <note vol="100" pan="0" key="57" pos="0" len="-192"/>
                <note vol="100" pan="0" key="57" pos="12" len="-192"/>
                <note vol="100" pan="0" key="57" pos="24" len="-192"/>
                <note vol="100" pan="0" key="57" pos="36" len="-192"/>
                <note vol="100" pan="0" key="57" pos="48" len="-192"/>
                <note vol="100" pan="0" key="57" pos="60" len="-192"/>
                <note vol="100" pan="0" key="57" pos="72" len="-192"/>
                <note vol="100" pan="0" key="57" pos="84" len="-192"/>
                <note vol="100" pan="0" key="57" pos="96" len="-192"/>
                <note vol="100" pan="0" key="57" pos="108" len="-192"/>
                <note vol="100" pan="0" key="57" pos="120" len="-192"/>
                <note vol="100" pan="0" key="57" pos="132" len="-192"/>
                <note vol="100" pan="0" key="57" pos="144" len="-192"/>
                <note vol="100" pan="0" key="57" pos="156" len="-192"/>
                <note vol="100" pan="0" key="57" pos="168" len="-192"/>
                <note vol="100" pan="0" key="57" pos="180" len="-192"/>
                <note vol="100" pan="0" key="57" pos="192" len="-192"/>
                <note vol="100" pan="0" key="57" pos="204" len="-192"/>
                <note vol="100" pan="0" key="57" pos="216" len="-192"/>
                <note vol="100" pan="0" key="57" pos="228" len="-192"/>
                <note vol="100" pan="0" key="57" pos="240" len="-192"/>
                <note vol="100" pan="0" key="57" pos="252" len="-192"/>
                <note vol="100" pan="0" key="57" pos="264" len="-192"/>
                <note vol="100" pan="0" key="57" pos="276" len="-192"/>
                <note vol="100" pan="0" key="57" pos="288" len="-192"/>
                <note vol="100" pan="0" key="57" pos="300" len="-192"/>
                <note vol="100" pan="0" key="57" pos="312" len="-192"/>
                <note vol="100" pan="0" key="57" pos="324" len="-192"/>
                <note vol="100" pan="0" key="57" pos="336" len="-192"/>
                <note vol="100" pan="0" key="57" pos="348" len="-192"/>
                <note vol="100" pan="0" key="57" pos="360" len="-192"/>
                <note vol="100" pan="0" key="57" pos="372" len="-192"/>
              </pattern>
              <pattern type="0" name="" steps="32" muted="0" pos="4608">
                <note vol="100" pan="0" key="57" pos="0" len="-192"/>
                <note vol="100" pan="0" key="57" pos="12" len="-192"/>
                <note vol="100" pan="0" key="57" pos="24" len="-192"/>
                <note vol="100" pan="0" key="57" pos="36" len="-192"/>
                <note vol="100" pan="0" key="57" pos="48" len="-192"/>
                <note vol="100" pan="0" key="57" pos="60" len="-192"/>
                <note vol="100" pan="0" key="57" pos="72" len="-192"/>
                <note vol="100" pan="0" key="57" pos="84" len="-192"/>
                <note vol="100" pan="0" key="57" pos="96" len="-192"/>
                <note vol="100" pan="0" key="57" pos="108" len="-192"/>
                <note vol="100" pan="0" key="57" pos="120" len="-192"/>
                <note vol="100" pan="0" key="57" pos="132" len="-192"/>
                <note vol="100" pan="0" key="57" pos="144" len="-192"/>
                <note vol="100" pan="0" key="57" pos="156" len="-192"/>
                <note vol="100" pan="0" key="57" pos="168" len="-192"/>
                <note vol="100" pan="0" key="57" pos="180" len="-192"/>
                <note vol="100" pan="0" key="57" pos="192" len="-192"/>
              </pattern>
              <pattern type="0" name="" steps="16" muted="0" pos="4800">
                <note vol="100" pan="0" key="57" pos="0" len="-192"/>
                <note vol="100" pan="0" key="57" pos="96" len="-192"/>
                <note vol="100" pan="0" key="57" pos="168" len="-192"/>
                <note vol="100" pan="0" key="57" pos="180" len="-192"/>
              </pattern>
              <pattern type="0" name="" steps="32" muted="0" pos="4992">
                <note vol="100" pan="0" key="57" pos="0" len="-192"/>
                <note vol="100" pan="0" key="57" pos="24" len="-192"/>
                <note vol="100" pan="0" key="57" pos="36" len="-192"/>
                <note vol="100" pan="0" key="57" pos="48" len="-192"/>
                <note vol="100" pan="0" key="57" pos="60" len="-192"/>
                <note vol="100" pan="0" key="57" pos="72" len="-192"/>
                <note vol="100" pan="0" key="57" pos="120" len="-192"/>
                <note vol="100" pan="0" key="57" pos="144" len="-192"/>
                <note vol="100" pan="0" key="57" pos="168" len="-192"/>
                <note vol="100" pan="0" key="57" pos="192" len="-192"/>
                <note vol="100" pan="0" key="57" pos="204" len="-192"/>
                <note vol="100" pan="0" key="57" pos="216" len="-192"/>
                <note vol="100" pan="0" key="57" pos="228" len="-192"/>
                <note vol="100" pan="0" key="57" pos="240" len="-192"/>
                <note vol="100" pan="0" key="57" pos="252" len="-192"/>
                <note vol="100" pan="0" key="57" pos="264" len="-192"/>
                <note vol="100" pan="0" key="57" pos="276" len="-192"/>
                <note vol="100" pan="0" key="57" pos="288" len="-192"/>
                <note vol="100" pan="0" key="57" pos="300" len="-192"/>
                <note vol="100" pan="0" key="57" pos="312" len="-192"/>
                <note vol="100" pan="0" key="57" pos="324" len="-192"/>
                <note vol="100" pan="0" key="57" pos="336" len="-192"/>
                <note vol="100" pan="0" key="57" pos="348" len="-192"/>
                <note vol="100" pan="0" key="57" pos="360" len="-192"/>
                <note vol="100" pan="0" key="57" pos="372" len="-192"/>
              </pattern>
              <pattern type="0" name="" steps="64" muted="0" pos="5184">
                <note vol="100" pan="0" key="57" pos="0" len="-192"/>
                <note vol="100" pan="0" key="57" pos="192" len="-192"/>
                <note vol="100" pan="0" key="57" pos="384" len="-192"/>
                <note vol="100" pan="0" key="57" pos="672" len="-192"/>
              </pattern>
              <pattern type="0" name="" steps="64" muted="0" pos="5376">
                <note vol="100" pan="0" key="57" pos="0" len="-192"/>
                <note vol="100" pan="0" key="57" pos="192" len="-192"/>
                <note vol="100" pan="0" key="57" pos="384" len="-192"/>
                <note vol="100" pan="0" key="57" pos="576" len="-192"/>
                <note vol="100" pan="0" key="57" pos="672" len="-192"/>
              </pattern>
              <pattern type="0" name="" steps="64" muted="0" pos="5568">
                <note vol="100" pan="0" key="57" pos="0" len="-192"/>
                <note vol="100" pan="0" key="57" pos="384" len="-192"/>
                <note vol="100" pan="0" key="57" pos="576" len="-192"/>
                <note vol="100" pan="0" key="57" pos="672" len="-192"/>
              </pattern>
              <pattern type="0" name="" steps="128" muted="0" pos="5760">
                <note vol="100" pan="0" key="57" pos="0" len="-192"/>
                <note vol="100" pan="0" key="57" pos="24" len="-192"/>
                <note vol="100" pan="0" key="57" pos="48" len="-192"/>
                <note vol="100" pan="0" key="57" pos="72" len="-192"/>
                <note vol="100" pan="0" key="57" pos="84" len="-192"/>
                <note vol="100" pan="0" key="57" pos="96" len="-192"/>
                <note vol="100" pan="0" key="57" pos="108" len="-192"/>
                <note vol="100" pan="0" key="57" pos="120" len="-192"/>
                <note vol="100" pan="0" key="57" pos="144" len="-192"/>
                <note vol="100" pan="0" key="57" pos="156" len="-192"/>
                <note vol="100" pan="0" key="57" pos="168" len="-192"/>
                <note vol="100" pan="0" key="57" pos="180" len="-192"/>
                <note vol="100" pan="0" key="57" pos="192" len="-192"/>
                <note vol="100" pan="0" key="57" pos="216" len="-192"/>
                <note vol="100" pan="0" key="57" pos="228" len="-192"/>
                <note vol="100" pan="0" key="57" pos="240" len="-192"/>
                <note vol="100" pan="0" key="57" pos="252" len="-192"/>
                <note vol="100" pan="0" key="57" pos="264" len="-192"/>
                <note vol="100" pan="0" key="57" pos="288" len="-192"/>
                <note vol="100" pan="0" key="57" pos="300" len="-192"/>
                <note vol="100" pan="0" key="57" pos="312" len="-192"/>
                <note vol="100" pan="0" key="57" pos="336" len="-192"/>
                <note vol="100" pan="0" key="57" pos="348" len="-192"/>
                <note vol="100" pan="0" key="57" pos="360" len="-192"/>
                <note vol="100" pan="0" key="57" pos="372" len="-192"/>
                <note vol="100" pan="0" key="57" pos="384" len="-192"/>
                <note vol="100" pan="0" key="57" pos="408" len="-192"/>
                <note vol="100" pan="0" key="57" pos="432" len="-192"/>
                <note vol="100" pan="0" key="57" pos="456" len="-192"/>
                <note vol="100" pan="0" key="57" pos="468" len="-192"/>
                <note vol="100" pan="0" key="57" pos="480" len="-192"/>
                <note vol="100" pan="0" key="57" pos="492" len="-192"/>
                <note vol="100" pan="0" key="57" pos="504" len="-192"/>
                <note vol="100" pan="0" key="57" pos="528" len="-192"/>
                <note vol="100" pan="0" key="57" pos="540" len="-192"/>
                <note vol="100" pan="0" key="57" pos="552" len="-192"/>
                <note vol="100" pan="0" key="57" pos="564" len="-192"/>
                <note vol="100" pan="0" key="57" pos="576" len="-192"/>
                <note vol="100" pan="0" key="57" pos="600" len="-192"/>
                <note vol="100" pan="0" key="57" pos="612" len="-192"/>
                <note vol="100" pan="0" key="57" pos="624" len="-192"/>
                <note vol="100" pan="0" key="57" pos="636" len="-192"/>
                <note vol="100" pan="0" key="57" pos="648" len="-192"/>
                <note vol="100" pan="0" key="57" pos="672" len="-192"/>
                <note vol="100" pan="0" key="57" pos="684" len="-192"/>
                <note vol="100" pan="0" key="57" pos="696" len="-192"/>
                <note vol="100" pan="0" key="57" pos="720" len="-192"/>
                <note vol="100" pan="0" key="57" pos="732" len="-192"/>
                <note vol="100" pan="0" key="57" pos="744" len="-192"/>
                <note vol="100" pan="0" key="57" pos="756" len="-192"/>
                <note vol="100" pan="0" key="57" pos="768" len="-192"/>
                <note vol="100" pan="0" key="57" pos="792" len="-192"/>
                <note vol="100" pan="0" key="57" pos="816" len="-192"/>
                <note vol="100" pan="0" key="57" pos="840" len="-192"/>
                <note vol="100" pan="0" key="57" pos="852" len="-192"/>
                <note vol="100" pan="0" key="57" pos="864" len="-192"/>
                <note vol="100" pan="0" key="57" pos="876" len="-192"/>
                <note vol="100" pan="0" key="57" pos="888" len="-192"/>
                <note vol="100" pan="0" key="57" pos="912" len="-192"/>
                <note vol="100" pan="0" key="57" pos="924" len="-192"/>
                <note vol="100" pan="0" key="57" pos="936" len="-192"/>
                <note vol="100" pan="0" key="57" pos="948" len="-192"/>
                <note vol="100" pan="0" key="57" pos="960" len="-192"/>
                <note vol="100" pan="0" key="57" pos="984" len="-192"/>
                <note vol="100" pan="0" key="57" pos="996" len="-192"/>
                <note vol="100" pan="0" key="57" pos="1008" len="-192"/>
                <note vol="100" pan="0" key="57" pos="1020" len="-192"/>
                <note vol="100" pan="0" key="57" pos="1032" len="-192"/>
                <note vol="100" pan="0" key="57" pos="1056" len="-192"/>
                <note vol="100" pan="0" key="57" pos="1068" len="-192"/>
                <note vol="100" pan="0" key="57" pos="1080" len="-192"/>
                <note vol="100" pan="0" key="57" pos="1104" len="-192"/>
                <note vol="100" pan="0" key="57" pos="1116" len="-192"/>
                <note vol="100" pan="0" key="57" pos="1128" len="-192"/>
                <note vol="100" pan="0" key="57" pos="1140" len="-192"/>
                <note vol="100" pan="0" key="57" pos="1152" len="-192"/>
                <note vol="100" pan="0" key="57" pos="1176" len="-192"/>
                <note vol="100" pan="0" key="57" pos="1200" len="-192"/>
                <note vol="100" pan="0" key="57" pos="1224" len="-192"/>
                <note vol="100" pan="0" key="57" pos="1236" len="-192"/>
                <note vol="100" pan="0" key="57" pos="1248" len="-192"/>
                <note vol="100" pan="0" key="57" pos="1260" len="-192"/>
                <note vol="100" pan="0" key="57" pos="1272" len="-192"/>
                <note vol="100" pan="0" key="57" pos="1296" len="-192"/>
                <note vol="100" pan="0" key="57" pos="1308" len="-192"/>
                <note vol="100" pan="0" key="57" pos="1320" len="-192"/>
                <note vol="100" pan="0" key="57" pos="1332" len="-192"/>
                <note vol="100" pan="0" key="57" pos="1344" len="-192"/>
                <note vol="100" pan="0" key="57" pos="1368" len="-192"/>
                <note vol="100" pan="0" key="57" pos="1380" len="-192"/>
                <note vol="100" pan="0" key="57" pos="1392" len="-192"/>
                <note vol="100" pan="0" key="57" pos="1404" len="-192"/>
                <note vol="100" pan="0" key="57" pos="1416" len="-192"/>
                <note vol="100" pan="0" key="57" pos="1440" len="-192"/>
                <note vol="100" pan="0" key="57" pos="1452" len="-192"/>
                <note vol="100" pan="0" key="57" pos="1464" len="-192"/>
                <note vol="100" pan="0" key="57" pos="1488" len="-192"/>
                <note vol="100" pan="0" key="57" pos="1500" len="-192"/>
                <note vol="100" pan="0" key="57" pos="1512" len="-192"/>
                <note vol="100" pan="0" key="57" pos="1524" len="-192"/>
              </pattern>
              <pattern type="0" name="" steps="16" muted="0" pos="5952">
                <note vol="100" pan="0" key="57" pos="0" len="-192"/>
                <note vol="100" pan="0" key="57" pos="12" len="-192"/>
                <note vol="100" pan="0" key="57" pos="24" len="-192"/>
                <note vol="100" pan="0" key="57" pos="36" len="-192"/>
                <note vol="100" pan="0" key="57" pos="48" len="-192"/>
                <note vol="100" pan="0" key="57" pos="60" len="-192"/>
                <note vol="100" pan="0" key="57" pos="72" len="-192"/>
                <note vol="100" pan="0" key="57" pos="84" len="-192"/>
                <note vol="100" pan="0" key="57" pos="96" len="-192"/>
                <note vol="100" pan="0" key="57" pos="108" len="-192"/>
                <note vol="100" pan="0" key="57" pos="120" len="-192"/>
                <note vol="100" pan="0" key="57" pos="132" len="-192"/>
                <note vol="100" pan="0" key="57" pos="144" len="-192"/>
                <note vol="100" pan="0" key="57" pos="156" len="-192"/>
                <note vol="100" pan="0" key="57" pos="168" len="-192"/>
                <note vol="100" pan="0" key="57" pos="180" len="-192"/>
              </pattern>
              <pattern type="0" name="" steps="64" muted="0" pos="6144">
                <note vol="100" pan="0" key="57" pos="0" len="-192"/>
                <note vol="100" pan="0" key="57" pos="24" len="-192"/>
                <note vol="100" pan="0" key="57" pos="48" len="-192"/>
                <note vol="100" pan="0" key="57" pos="72" len="-192"/>
                <note vol="100" pan="0" key="57" pos="96" len="-192"/>
                <note vol="100" pan="0" key="57" pos="120" len="-192"/>
                <note vol="100" pan="0" key="57" pos="144" len="-192"/>
                <note vol="100" pan="0" key="57" pos="168" len="-192"/>
                <note vol="100" pan="0" key="57" pos="180" len="-192"/>
                <note vol="100" pan="0" key="57" pos="192" len="-192"/>
                <note vol="100" pan="0" key="57" pos="216" len="-192"/>
                <note vol="100" pan="0" key="57" pos="240" len="-192"/>
                <note vol="100" pan="0" key="57" pos="252" len="-192"/>
                <note vol="100" pan="0" key="57" pos="264" len="-192"/>
                <note vol="100" pan="0" key="57" pos="288" len="-192"/>
                <note vol="100" pan="0" key="57" pos="312" len="-192"/>
                <note vol="100" pan="0" key="57" pos="336" len="-192"/>
                <note vol="100" pan="0" key="57" pos="360" len="-192"/>
                <note vol="100" pan="0" key="57" pos="384" len="-192"/>
                <note vol="100" pan="0" key="57" pos="408" len="-192"/>
                <note vol="100" pan="0" key="57" pos="432" len="-192"/>
                <note vol="100" pan="0" key="57" pos="456" len="-192"/>
                <note vol="100" pan="0" key="57" pos="480" len="-192"/>
                <note vol="100" pan="0" key="57" pos="504" len="-192"/>
                <note vol="100" pan="0" key="57" pos="528" len="-192"/>
                <note vol="100" pan="0" key="57" pos="552" len="-192"/>
                <note vol="100" pan="0" key="57" pos="564" len="-192"/>
                <note vol="100" pan="0" key="57" pos="576" len="-192"/>
                <note vol="100" pan="0" key="57" pos="600" len="-192"/>
                <note vol="100" pan="0" key="57" pos="624" len="-192"/>
                <note vol="100" pan="0" key="57" pos="636" len="-192"/>
                <note vol="100" pan="0" key="57" pos="648" len="-192"/>
                <note vol="100" pan="0" key="57" pos="672" len="-192"/>
                <note vol="100" pan="0" key="57" pos="696" len="-192"/>
                <note vol="100" pan="0" key="57" pos="720" len="-192"/>
                <note vol="100" pan="0" key="57" pos="744" len="-192"/>
              </pattern>
              <pattern type="0" name="" steps="16" muted="0" pos="6336">
                <note vol="100" pan="0" key="57" pos="0" len="-192"/>
                <note vol="100" pan="0" key="57" pos="24" len="-192"/>
                <note vol="100" pan="0" key="57" pos="48" len="-192"/>
                <note vol="100" pan="0" key="57" pos="60" len="-192"/>
                <note vol="100" pan="0" key="57" pos="72" len="-192"/>
                <note vol="100" pan="0" key="57" pos="96" len="-192"/>
                <note vol="100" pan="0" key="57" pos="108" len="-192"/>
                <note vol="100" pan="0" key="57" pos="120" len="-192"/>
                <note vol="100" pan="0" key="57" pos="132" len="-192"/>
                <note vol="100" pan="0" key="57" pos="144" len="-192"/>
                <note vol="100" pan="0" key="57" pos="156" len="-192"/>
                <note vol="100" pan="0" key="57" pos="168" len="-192"/>
                <note vol="100" pan="0" key="57" pos="180" len="-192"/>
              </pattern>
              <pattern type="0" name="" steps="16" muted="0" pos="6528"/>
              <pattern type="0" name="" steps="16" muted="0" pos="6720"/>
              <pattern type="0" name="" steps="64" muted="0" pos="6912">
                <note vol="100" pan="0" key="57" pos="0" len="-192"/>
                <note vol="100" pan="0" key="57" pos="12" len="-192"/>
                <note vol="100" pan="0" key="57" pos="24" len="-192"/>
                <note vol="100" pan="0" key="57" pos="36" len="-192"/>
                <note vol="100" pan="0" key="57" pos="48" len="-192"/>
                <note vol="100" pan="0" key="57" pos="60" len="-192"/>
                <note vol="100" pan="0" key="57" pos="72" len="-192"/>
                <note vol="100" pan="0" key="57" pos="84" len="-192"/>
                <note vol="100" pan="0" key="57" pos="96" len="-192"/>
                <note vol="100" pan="0" key="57" pos="108" len="-192"/>
                <note vol="100" pan="0" key="57" pos="120" len="-192"/>
                <note vol="100" pan="0" key="57" pos="132" len="-192"/>
                <note vol="100" pan="0" key="57" pos="144" len="-192"/>
                <note vol="100" pan="0" key="57" pos="156" len="-192"/>
                <note vol="100" pan="0" key="57" pos="168" len="-192"/>
                <note vol="100" pan="0" key="57" pos="180" len="-192"/>
                <note vol="100" pan="0" key="57" pos="192" len="-192"/>
                <note vol="100" pan="0" key="57" pos="204" len="-192"/>
                <note vol="100" pan="0" key="57" pos="216" len="-192"/>
                <note vol="100" pan="0" key="57" pos="228" len="-192"/>
                <note vol="100" pan="0" key="57" pos="240" len="-192"/>
                <note vol="100" pan="0" key="57" pos="252" len="-192"/>
                <note vol="100" pan="0" key="57" pos="264" len="-192"/>
                <note vol="100" pan="0" key="57" pos="276" len="-192"/>
                <note vol="100" pan="0" key="57" pos="288" len="-192"/>
                <note vol="100" pan="0" key="57" pos="300" len="-192"/>
                <note vol="100" pan="0" key="57" pos="312" len="-192"/>
                <note vol="100" pan="0" key="57" pos="324" len="-192"/>
                <note vol="100" pan="0" key="57" pos="336" len="-192"/>
                <note vol="100" pan="0" key="57" pos="348" len="-192"/>
                <note vol="100" pan="0" key="57" pos="360" len="-192"/>
                <note vol="100" pan="0" key="57" pos="372" len="-192"/>
                <note vol="100" pan="0" key="57" pos="384" len="-192"/>
                <note vol="100" pan="0" key="57" pos="396" len="-192"/>
                <note vol="100" pan="0" key="57" pos="408" len="-192"/>
                <note vol="100" pan="0" key="57" pos="420" len="-192"/>
                <note vol="100" pan="0" key="57" pos="432" len="-192"/>
                <note vol="100" pan="0" key="57" pos="444" len="-192"/>
                <note vol="100" pan="0" key="57" pos="456" len="-192"/>
                <note vol="100" pan="0" key="57" pos="468" len="-192"/>
                <note vol="100" pan="0" key="57" pos="480" len="-192"/>
                <note vol="100" pan="0" key="57" pos="492" len="-192"/>
                <note vol="100" pan="0" key="57" pos="504" len="-192"/>
                <note vol="100" pan="0" key="57" pos="516" len="-192"/>
                <note vol="100" pan="0" key="57" pos="528" len="-192"/>
                <note vol="100" pan="0" key="57" pos="540" len="-192"/>
                <note vol="100" pan="0" key="57" pos="552" len="-192"/>
                <note vol="100" pan="0" key="57" pos="564" len="-192"/>
                <note vol="100" pan="0" key="57" pos="576" len="-192"/>
              </pattern>
            </track>
            <track type="0" name="hat" solo="0" muted="0" mutedBeforeSolo="0">
              <instrumenttrack usemasterpitch="1" pitchrange="1" pitch="0" vol="71.2" basenote="57" pan="-16.8" fxch="2">
                <instrument name="audiofileprocessor">
                  <audiofileprocessor amp="100" lframe="0.176" interp="1" reversed="0" src="/home/pass/samples/mtpdk_extract/half_hat.wav" sframe="0" eframe="1" stutter="0" looped="0">
                    <key/>
                  </audiofileprocessor>
                </instrument>
                <eldata fwet="0" fres="0.5" ftype="0" fcut="14000">
                  <elvol x100="0" lspd_numerator="4" amt="0" lspd="0.1" lpdel="0" dec="0.28" lspd_syncmode="0" att="0" ctlenvamt="0" pdel="0" latt="0" sustain="0" lspd_denominator="4" hold="0" lamt="0" userwavefile="" lshp="0" rel="0"/>
                  <elcut x100="0" lspd_numerator="4" amt="0" lspd="0.1" lpdel="0" dec="0.5" lspd_syncmode="0" att="0" ctlenvamt="0" pdel="0" latt="0" sustain="0.5" lspd_denominator="4" hold="0.5" lamt="0" userwavefile="" lshp="0" rel="0.1"/>
                  <elres x100="0" lspd_numerator="4" amt="0" lspd="0.1" lpdel="0" dec="0.5" lspd_syncmode="0" att="0" ctlenvamt="0" pdel="0" latt="0" sustain="0.5" lspd_denominator="4" hold="0.5" lamt="0" userwavefile="" lshp="0" rel="0.1"/>
                </eldata>
                <chordcreator chordrange="1" chord="0" chord-enabled="0"/>
                <arpeggiator arprange="1" arptime_syncmode="0" arpskip="0" arpmiss="0" arptime="200" arpdir="0" arpmode="0" arptime_denominator="4" arp-enabled="0" arp="0" arpgate="100" arpcycle="0" arptime_numerator="4"/>
                <midiport inputcontroller="0" outputcontroller="0" outputprogram="1" basevelocity="63" outputchannel="1" writable="0" inputchannel="0" readable="0" fixedinputvelocity="-1" fixedoutputvelocity="-1" fixedoutputnote="-1"/>
                <fxchain numofeffects="0" enabled="0"/>
              </instrumenttrack>
              <pattern type="0" name="" steps="64" muted="0" pos="0"/>
              <pattern type="0" name="" steps="64" muted="0" pos="192"/>
              <pattern type="0" name="" steps="32" muted="0" pos="384"/>
              <pattern type="0" name="" steps="64" muted="0" pos="576">
                <note vol="100" pan="0" key="57" pos="0" len="-192"/>
                <note vol="100" pan="0" key="57" pos="48" len="-192"/>
                <note vol="100" pan="0" key="57" pos="96" len="-192"/>
                <note vol="100" pan="0" key="57" pos="144" len="-192"/>
                <note vol="100" pan="0" key="57" pos="192" len="-192"/>
                <note vol="100" pan="0" key="57" pos="240" len="-192"/>
                <note vol="100" pan="0" key="57" pos="288" len="-192"/>
                <note vol="100" pan="0" key="57" pos="336" len="-192"/>
                <note vol="100" pan="0" key="57" pos="384" len="-192"/>
                <note vol="100" pan="0" key="57" pos="432" len="-192"/>
                <note vol="100" pan="0" key="57" pos="480" len="-192"/>
                <note vol="100" pan="0" key="57" pos="528" len="-192"/>
                <note vol="100" pan="0" key="57" pos="576" len="-192"/>
                <note vol="100" pan="0" key="57" pos="624" len="-192"/>
                <note vol="100" pan="0" key="57" pos="672" len="-192"/>
                <note vol="100" pan="0" key="57" pos="720" len="-192"/>
              </pattern>
              <pattern type="0" name="" steps="16" muted="0" pos="768"/>
              <pattern type="0" name="" steps="64" muted="0" pos="960">
                <note vol="100" pan="0" key="57" pos="0" len="-192"/>
                <note vol="100" pan="0" key="57" pos="48" len="-192"/>
                <note vol="100" pan="0" key="57" pos="96" len="-192"/>
                <note vol="100" pan="0" key="57" pos="144" len="-192"/>
                <note vol="100" pan="0" key="57" pos="192" len="-192"/>
                <note vol="100" pan="0" key="57" pos="240" len="-192"/>
                <note vol="100" pan="0" key="57" pos="288" len="-192"/>
                <note vol="100" pan="0" key="57" pos="336" len="-192"/>
                <note vol="100" pan="0" key="57" pos="384" len="-192"/>
                <note vol="100" pan="0" key="57" pos="432" len="-192"/>
                <note vol="100" pan="0" key="57" pos="480" len="-192"/>
                <note vol="100" pan="0" key="57" pos="528" len="-192"/>
                <note vol="100" pan="0" key="57" pos="576" len="-192"/>
                <note vol="100" pan="0" key="57" pos="624" len="-192"/>
                <note vol="100" pan="0" key="57" pos="672" len="-192"/>
                <note vol="100" pan="0" key="57" pos="720" len="-192"/>
              </pattern>
              <pattern type="0" name="" steps="64" muted="0" pos="1152">
                <note vol="100" pan="0" key="57" pos="0" len="-192"/>
                <note vol="100" pan="0" key="57" pos="48" len="-192"/>
                <note vol="100" pan="0" key="57" pos="96" len="-192"/>
                <note vol="100" pan="0" key="57" pos="144" len="-192"/>
                <note vol="100" pan="0" key="57" pos="192" len="-192"/>
                <note vol="100" pan="0" key="57" pos="240" len="-192"/>
                <note vol="100" pan="0" key="57" pos="288" len="-192"/>
                <note vol="100" pan="0" key="57" pos="336" len="-192"/>
                <note vol="100" pan="0" key="57" pos="384" len="-192"/>
                <note vol="100" pan="0" key="57" pos="432" len="-192"/>
                <note vol="100" pan="0" key="57" pos="480" len="-192"/>
                <note vol="100" pan="0" key="57" pos="528" len="-192"/>
                <note vol="100" pan="0" key="57" pos="576" len="-192"/>
                <note vol="100" pan="0" key="57" pos="624" len="-192"/>
                <note vol="100" pan="0" key="57" pos="672" len="-192"/>
                <note vol="100" pan="0" key="57" pos="720" len="-192"/>
              </pattern>
              <pattern type="0" name="" steps="32" muted="0" pos="1344"/>
              <pattern type="0" name="" steps="64" muted="0" pos="1536">
                <note vol="100" pan="0" key="57" pos="48" len="-192"/>
                <note vol="100" pan="0" key="57" pos="96" len="-192"/>
                <note vol="100" pan="0" key="57" pos="144" len="-192"/>
                <note vol="100" pan="0" key="57" pos="240" len="-192"/>
                <note vol="100" pan="0" key="57" pos="288" len="-192"/>
                <note vol="100" pan="0" key="57" pos="336" len="-192"/>
                <note vol="100" pan="0" key="57" pos="432" len="-192"/>
                <note vol="100" pan="0" key="57" pos="480" len="-192"/>
                <note vol="100" pan="0" key="57" pos="528" len="-192"/>
                <note vol="100" pan="0" key="57" pos="624" len="-192"/>
                <note vol="100" pan="0" key="57" pos="672" len="-192"/>
                <note vol="100" pan="0" key="57" pos="720" len="-192"/>
              </pattern>
              <pattern type="0" name="" steps="32" muted="0" pos="1728">
                <note vol="100" pan="0" key="57" pos="48" len="-192"/>
                <note vol="100" pan="0" key="57" pos="96" len="-192"/>
                <note vol="100" pan="0" key="57" pos="144" len="-192"/>
                <note vol="100" pan="0" key="57" pos="240" len="-192"/>
                <note vol="100" pan="0" key="57" pos="288" len="-192"/>
                <note vol="100" pan="0" key="57" pos="336" len="-192"/>
              </pattern>
              <pattern type="0" name="" steps="32" muted="0" pos="1920"/>
              <pattern type="0" name="" steps="64" muted="0" pos="2112">
                <note vol="100" pan="0" key="57" pos="48" len="-192"/>
                <note vol="100" pan="0" key="57" pos="96" len="-192"/>
                <note vol="100" pan="0" key="57" pos="144" len="-192"/>
                <note vol="100" pan="0" key="57" pos="192" len="-192"/>
                <note vol="100" pan="0" key="57" pos="240" len="-192"/>
                <note vol="100" pan="0" key="57" pos="288" len="-192"/>
                <note vol="100" pan="0" key="57" pos="336" len="-192"/>
                <note vol="100" pan="0" key="57" pos="432" len="-192"/>
                <note vol="100" pan="0" key="57" pos="480" len="-192"/>
                <note vol="100" pan="0" key="57" pos="528" len="-192"/>
                <note vol="100" pan="0" key="57" pos="576" len="-192"/>
                <note vol="100" pan="0" key="57" pos="624" len="-192"/>
                <note vol="100" pan="0" key="57" pos="672" len="-192"/>
                <note vol="100" pan="0" key="57" pos="720" len="-192"/>
              </pattern>
              <pattern type="0" name="" steps="32" muted="0" pos="2304">
                <note vol="100" pan="0" key="57" pos="48" len="-192"/>
                <note vol="100" pan="0" key="57" pos="96" len="-192"/>
                <note vol="100" pan="0" key="57" pos="144" len="-192"/>
              </pattern>
              <pattern type="0" name="" steps="32" muted="0" pos="2496">
                <note vol="100" pan="0" key="57" pos="0" len="-192"/>
                <note vol="100" pan="0" key="57" pos="96" len="-192"/>
                <note vol="100" pan="0" key="57" pos="192" len="-192"/>
                <note vol="100" pan="0" key="57" pos="288" len="-192"/>
              </pattern>
              <pattern type="0" name="" steps="64" muted="0" pos="2688">
                <note vol="100" pan="0" key="57" pos="0" len="-192"/>
                <note vol="100" pan="0" key="57" pos="96" len="-192"/>
                <note vol="100" pan="0" key="57" pos="192" len="-192"/>
                <note vol="100" pan="0" key="57" pos="288" len="-192"/>
                <note vol="100" pan="0" key="57" pos="384" len="-192"/>
                <note vol="100" pan="0" key="57" pos="480" len="-192"/>
                <note vol="100" pan="0" key="57" pos="576" len="-192"/>
                <note vol="100" pan="0" key="57" pos="672" len="-192"/>
              </pattern>
              <pattern type="0" name="" steps="16" muted="0" pos="2880"/>
              <pattern type="0" name="" steps="16" muted="0" pos="3072"/>
              <pattern type="0" name="" steps="16" muted="0" pos="3264"/>
              <pattern type="0" name="" steps="32" muted="0" pos="3456"/>
              <pattern type="0" name="" steps="16" muted="0" pos="3648"/>
              <pattern type="0" name="" steps="32" muted="0" pos="3840"/>
              <pattern type="0" name="" steps="64" muted="0" pos="4032"/>
              <pattern type="0" name="" steps="64" muted="0" pos="4224"/>
              <pattern type="0" name="" steps="32" muted="0" pos="4416">
                <note vol="100" pan="0" key="57" pos="0" len="-192"/>
              </pattern>
              <pattern type="0" name="" steps="32" muted="0" pos="4608"/>
              <pattern type="0" name="" steps="16" muted="0" pos="4800"/>
              <pattern type="0" name="" steps="32" muted="0" pos="4992"/>
              <pattern type="0" name="" steps="64" muted="0" pos="5184"/>
              <pattern type="0" name="" steps="64" muted="0" pos="5376"/>
              <pattern type="0" name="" steps="64" muted="0" pos="5568"/>
              <pattern type="0" name="" steps="128" muted="0" pos="5760">
                <note vol="100" pan="0" key="57" pos="0" len="-192"/>
                <note vol="100" pan="0" key="57" pos="48" len="-192"/>
                <note vol="100" pan="0" key="57" pos="96" len="-192"/>
                <note vol="100" pan="0" key="57" pos="144" len="-192"/>
                <note vol="100" pan="0" key="57" pos="192" len="-192"/>
                <note vol="100" pan="0" key="57" pos="240" len="-192"/>
                <note vol="100" pan="0" key="57" pos="288" len="-192"/>
                <note vol="100" pan="0" key="57" pos="336" len="-192"/>
                <note vol="100" pan="0" key="57" pos="384" len="-192"/>
                <note vol="100" pan="0" key="57" pos="432" len="-192"/>
                <note vol="100" pan="0" key="57" pos="480" len="-192"/>
                <note vol="100" pan="0" key="57" pos="528" len="-192"/>
                <note vol="100" pan="0" key="57" pos="576" len="-192"/>
                <note vol="100" pan="0" key="57" pos="624" len="-192"/>
                <note vol="100" pan="0" key="57" pos="672" len="-192"/>
                <note vol="100" pan="0" key="57" pos="720" len="-192"/>
                <note vol="100" pan="0" key="57" pos="768" len="-192"/>
                <note vol="100" pan="0" key="57" pos="816" len="-192"/>
                <note vol="100" pan="0" key="57" pos="864" len="-192"/>
                <note vol="100" pan="0" key="57" pos="912" len="-192"/>
                <note vol="100" pan="0" key="57" pos="960" len="-192"/>
                <note vol="100" pan="0" key="57" pos="1008" len="-192"/>
                <note vol="100" pan="0" key="57" pos="1056" len="-192"/>
                <note vol="100" pan="0" key="57" pos="1104" len="-192"/>
                <note vol="100" pan="0" key="57" pos="1152" len="-192"/>
                <note vol="100" pan="0" key="57" pos="1200" len="-192"/>
                <note vol="100" pan="0" key="57" pos="1248" len="-192"/>
                <note vol="100" pan="0" key="57" pos="1296" len="-192"/>
                <note vol="100" pan="0" key="57" pos="1344" len="-192"/>
                <note vol="100" pan="0" key="57" pos="1392" len="-192"/>
                <note vol="100" pan="0" key="57" pos="1440" len="-192"/>
                <note vol="100" pan="0" key="57" pos="1488" len="-192"/>
              </pattern>
              <pattern type="0" name="" steps="16" muted="0" pos="5952"/>
              <pattern type="0" name="" steps="64" muted="0" pos="6144">
                <note vol="100" pan="0" key="57" pos="0" len="-192"/>
                <note vol="100" pan="0" key="57" pos="192" len="-192"/>
                <note vol="100" pan="0" key="57" pos="384" len="-192"/>
                <note vol="100" pan="0" key="57" pos="576" len="-192"/>
              </pattern>
              <pattern type="0" name="" steps="16" muted="0" pos="6336">
                <note vol="100" pan="0" key="57" pos="0" len="-192"/>
              </pattern>
              <pattern type="0" name="" steps="16" muted="0" pos="6528"/>
              <pattern type="0" name="" steps="16" muted="0" pos="6720"/>
              <pattern type="0" name="" steps="64" muted="0" pos="6912">
                <note vol="100" pan="0" key="57" pos="480" len="-192"/>
              </pattern>
            </track>
            <track type="0" name="old friend snare" solo="0" muted="0" mutedBeforeSolo="0">
              <instrumenttrack usemasterpitch="1" pitchrange="1" pitch="0" vol="111.2" basenote="57" pan="0" fxch="3">
                <instrument name="audiofileprocessor">
                  <audiofileprocessor amp="100" lframe="0" interp="1" reversed="0" src="/home/pass/samples/mtpdk_extract/snare.wav" sframe="0" eframe="1" stutter="0" looped="0">
                    <key/>
                  </audiofileprocessor>
                </instrument>
                <eldata fwet="0" fres="0.13" ftype="0" fcut="13328">
                  <elvol x100="0" lspd_numerator="4" amt="0" lspd="0.1" lpdel="0" dec="0.272" lspd_syncmode="0" att="0" ctlenvamt="0" pdel="0" latt="0" sustain="0.308" lspd_denominator="4" hold="0" lamt="0" userwavefile="" lshp="0" rel="0.568"/>
                  <elcut x100="0" lspd_numerator="4" amt="0" lspd="0.1" lpdel="0" dec="0.5" lspd_syncmode="0" att="0" ctlenvamt="0" pdel="0" latt="0" sustain="0.5" lspd_denominator="4" hold="0.5" lamt="0" userwavefile="" lshp="0" rel="0.1"/>
                  <elres x100="0" lspd_numerator="4" amt="0" lspd="0.1" lpdel="0" dec="0.5" lspd_syncmode="0" att="0" ctlenvamt="0" pdel="0" latt="0" sustain="0.5" lspd_denominator="4" hold="0.5" lamt="0" userwavefile="" lshp="0" rel="0.1"/>
                </eldata>
                <chordcreator chordrange="1" chord="0" chord-enabled="0"/>
                <arpeggiator arprange="1" arptime_syncmode="0" arpskip="0" arpmiss="0" arptime="200" arpdir="0" arpmode="0" arptime_denominator="4" arp-enabled="0" arp="0" arpgate="100" arpcycle="0" arptime_numerator="4"/>
                <midiport inputcontroller="0" outputcontroller="0" outputprogram="1" basevelocity="63" outputchannel="1" writable="0" inputchannel="0" readable="0" fixedinputvelocity="-1" fixedoutputvelocity="-1" fixedoutputnote="-1"/>
                <fxchain numofeffects="0" enabled="0"/>
              </instrumenttrack>
              <pattern type="0" name="" steps="64" muted="0" pos="0"/>
              <pattern type="0" name="" steps="64" muted="0" pos="192">
                <note vol="100" pan="0" key="57" pos="720" len="-192"/>
                <note vol="100" pan="0" key="57" pos="732" len="-192"/>
                <note vol="100" pan="0" key="57" pos="744" len="-192"/>
                <note vol="100" pan="0" key="57" pos="756" len="-192"/>
              </pattern>
              <pattern type="0" name="" steps="32" muted="0" pos="384">
                <note vol="100" pan="0" key="57" pos="48" len="-192"/>
                <note vol="100" pan="0" key="57" pos="60" len="-192"/>
                <note vol="100" pan="0" key="57" pos="120" len="-192"/>
                <note vol="100" pan="0" key="57" pos="132" len="-192"/>
                <note vol="100" pan="0" key="57" pos="192" len="-192"/>
                <note vol="100" pan="0" key="57" pos="204" len="-192"/>
                <note vol="100" pan="0" key="57" pos="264" len="-192"/>
                <note vol="100" pan="0" key="57" pos="276" len="-192"/>
                <note vol="100" pan="0" key="57" pos="312" len="-192"/>
                <note vol="100" pan="0" key="57" pos="360" len="-192"/>
                <note vol="100" pan="0" key="57" pos="372" len="-192"/>
              </pattern>
              <pattern type="0" name="" steps="64" muted="0" pos="576">
                <note vol="100" pan="0" key="57" pos="24" len="-192"/>
                <note vol="100" pan="0" key="57" pos="72" len="-192"/>
                <note vol="100" pan="0" key="57" pos="120" len="-192"/>
                <note vol="100" pan="0" key="57" pos="168" len="-192"/>
                <note vol="100" pan="0" key="57" pos="216" len="-192"/>
                <note vol="100" pan="0" key="57" pos="264" len="-192"/>
                <note vol="100" pan="0" key="57" pos="312" len="-192"/>
                <note vol="100" pan="0" key="57" pos="360" len="-192"/>
                <note vol="100" pan="0" key="57" pos="408" len="-192"/>
                <note vol="100" pan="0" key="57" pos="456" len="-192"/>
                <note vol="100" pan="0" key="57" pos="504" len="-192"/>
                <note vol="100" pan="0" key="57" pos="552" len="-192"/>
                <note vol="100" pan="0" key="57" pos="600" len="-192"/>
                <note vol="100" pan="0" key="57" pos="648" len="-192"/>
                <note vol="100" pan="0" key="57" pos="696" len="-192"/>
                <note vol="100" pan="0" key="57" pos="744" len="-192"/>
              </pattern>
              <pattern type="0" name="" steps="16" muted="0" pos="768">
                <note vol="100" pan="0" key="57" pos="0" len="-192"/>
                <note vol="100" pan="0" key="57" pos="12" len="-192"/>
                <note vol="100" pan="0" key="57" pos="24" len="-192"/>
                <note vol="100" pan="0" key="57" pos="36" len="-192"/>
                <note vol="100" pan="0" key="57" pos="48" len="-192"/>
                <note vol="100" pan="0" key="57" pos="60" len="-192"/>
                <note vol="100" pan="0" key="57" pos="72" len="-192"/>
                <note vol="100" pan="0" key="57" pos="84" len="-192"/>
                <note vol="100" pan="0" key="57" pos="96" len="-192"/>
                <note vol="100" pan="0" key="57" pos="144" len="-192"/>
              </pattern>
              <pattern type="0" name="" steps="64" muted="0" pos="960">
                <note vol="100" pan="0" key="57" pos="24" len="-192"/>
                <note vol="100" pan="0" key="57" pos="72" len="-192"/>
                <note vol="100" pan="0" key="57" pos="120" len="-192"/>
                <note vol="100" pan="0" key="57" pos="168" len="-192"/>
                <note vol="100" pan="0" key="57" pos="216" len="-192"/>
                <note vol="100" pan="0" key="57" pos="264" len="-192"/>
                <note vol="100" pan="0" key="57" pos="312" len="-192"/>
                <note vol="100" pan="0" key="57" pos="360" len="-192"/>
                <note vol="100" pan="0" key="57" pos="408" len="-192"/>
                <note vol="100" pan="0" key="57" pos="456" len="-192"/>
                <note vol="100" pan="0" key="57" pos="504" len="-192"/>
                <note vol="100" pan="0" key="57" pos="552" len="-192"/>
                <note vol="100" pan="0" key="57" pos="600" len="-192"/>
                <note vol="100" pan="0" key="57" pos="648" len="-192"/>
                <note vol="100" pan="0" key="57" pos="696" len="-192"/>
                <note vol="100" pan="0" key="57" pos="744" len="-192"/>
              </pattern>
              <pattern type="0" name="" steps="64" muted="0" pos="1152">
                <note vol="100" pan="0" key="57" pos="24" len="-192"/>
                <note vol="100" pan="0" key="57" pos="72" len="-192"/>
                <note vol="100" pan="0" key="57" pos="120" len="-192"/>
                <note vol="100" pan="0" key="57" pos="168" len="-192"/>
                <note vol="100" pan="0" key="57" pos="216" len="-192"/>
                <note vol="100" pan="0" key="57" pos="264" len="-192"/>
                <note vol="100" pan="0" key="57" pos="312" len="-192"/>
                <note vol="100" pan="0" key="57" pos="360" len="-192"/>
                <note vol="100" pan="0" key="57" pos="408" len="-192"/>
                <note vol="100" pan="0" key="57" pos="456" len="-192"/>
                <note vol="100" pan="0" key="57" pos="504" len="-192"/>
                <note vol="100" pan="0" key="57" pos="552" len="-192"/>
                <note vol="100" pan="0" key="57" pos="600" len="-192"/>
                <note vol="100" pan="0" key="57" pos="648" len="-192"/>
                <note vol="100" pan="0" key="57" pos="696" len="-192"/>
                <note vol="100" pan="0" key="57" pos="744" len="-192"/>
              </pattern>
              <pattern type="0" name="" steps="32" muted="0" pos="1344"/>
              <pattern type="0" name="" steps="64" muted="0" pos="1536">
                <note vol="100" pan="0" key="57" pos="0" len="-192"/>
                <note vol="100" pan="0" key="57" pos="48" len="-192"/>
                <note vol="100" pan="0" key="57" pos="96" len="-192"/>
                <note vol="100" pan="0" key="57" pos="144" len="-192"/>
                <note vol="100" pan="0" key="57" pos="192" len="-192"/>
                <note vol="100" pan="0" key="57" pos="240" len="-192"/>
                <note vol="100" pan="0" key="57" pos="288" len="-192"/>
                <note vol="100" pan="0" key="57" pos="336" len="-192"/>
                <note vol="100" pan="0" key="57" pos="384" len="-192"/>
                <note vol="100" pan="0" key="57" pos="432" len="-192"/>
                <note vol="100" pan="0" key="57" pos="480" len="-192"/>
                <note vol="100" pan="0" key="57" pos="528" len="-192"/>
                <note vol="100" pan="0" key="57" pos="576" len="-192"/>
                <note vol="100" pan="0" key="57" pos="624" len="-192"/>
                <note vol="100" pan="0" key="57" pos="672" len="-192"/>
                <note vol="100" pan="0" key="57" pos="720" len="-192"/>
              </pattern>
              <pattern type="0" name="" steps="32" muted="0" pos="1728">
                <note vol="100" pan="0" key="57" pos="0" len="-192"/>
                <note vol="100" pan="0" key="57" pos="48" len="-192"/>
                <note vol="100" pan="0" key="57" pos="96" len="-192"/>
                <note vol="100" pan="0" key="57" pos="144" len="-192"/>
                <note vol="100" pan="0" key="57" pos="192" len="-192"/>
                <note vol="100" pan="0" key="57" pos="240" len="-192"/>
                <note vol="100" pan="0" key="57" pos="288" len="-192"/>
                <note vol="100" pan="0" key="57" pos="336" len="-192"/>
              </pattern>
              <pattern type="0" name="" steps="32" muted="0" pos="1920">
                <note vol="100" pan="0" key="57" pos="0" len="-192"/>
                <note vol="100" pan="0" key="57" pos="48" len="-192"/>
                <note vol="100" pan="0" key="57" pos="120" len="-192"/>
                <note vol="100" pan="0" key="57" pos="288" len="-192"/>
                <note vol="100" pan="0" key="57" pos="300" len="-192"/>
                <note vol="100" pan="0" key="57" pos="312" len="-192"/>
                <note vol="100" pan="0" key="57" pos="324" len="-192"/>
                <note vol="100" pan="0" key="57" pos="336" len="-192"/>
              </pattern>
              <pattern type="0" name="" steps="64" muted="0" pos="2112">
                <note vol="100" pan="0" key="57" pos="0" len="-192"/>
                <note vol="100" pan="0" key="57" pos="48" len="-192"/>
                <note vol="100" pan="0" key="57" pos="96" len="-192"/>
                <note vol="100" pan="0" key="57" pos="144" len="-192"/>
                <note vol="100" pan="0" key="57" pos="192" len="-192"/>
                <note vol="100" pan="0" key="57" pos="240" len="-192"/>
                <note vol="100" pan="0" key="57" pos="288" len="-192"/>
                <note vol="100" pan="0" key="57" pos="336" len="-192"/>
                <note vol="100" pan="0" key="57" pos="384" len="-192"/>
                <note vol="100" pan="0" key="57" pos="432" len="-192"/>
                <note vol="100" pan="0" key="57" pos="480" len="-192"/>
                <note vol="100" pan="0" key="57" pos="528" len="-192"/>
                <note vol="100" pan="0" key="57" pos="576" len="-192"/>
                <note vol="100" pan="0" key="57" pos="624" len="-192"/>
                <note vol="100" pan="0" key="57" pos="672" len="-192"/>
                <note vol="100" pan="0" key="57" pos="720" len="-192"/>
              </pattern>
              <pattern type="0" name="" steps="32" muted="0" pos="2304">
                <note vol="100" pan="0" key="57" pos="0" len="-192"/>
                <note vol="100" pan="0" key="57" pos="48" len="-192"/>
                <note vol="100" pan="0" key="57" pos="96" len="-192"/>
                <note vol="100" pan="0" key="57" pos="144" len="-192"/>
                <note vol="100" pan="0" key="57" pos="192" len="-192"/>
                <note vol="100" pan="0" key="57" pos="240" len="-192"/>
                <note vol="100" pan="0" key="57" pos="288" len="-192"/>
                <note vol="100" pan="0" key="57" pos="336" len="-192"/>
                <note vol="100" pan="0" key="57" pos="348" len="-192"/>
                <note vol="100" pan="0" key="57" pos="360" len="-192"/>
                <note vol="100" pan="0" key="57" pos="372" len="-192"/>
              </pattern>
              <pattern type="0" name="" steps="32" muted="0" pos="2496">
                <note vol="100" pan="0" key="57" pos="48" len="-192"/>
                <note vol="100" pan="0" key="57" pos="144" len="-192"/>
                <note vol="100" pan="0" key="57" pos="240" len="-192"/>
                <note vol="100" pan="0" key="57" pos="336" len="-192"/>
              </pattern>
              <pattern type="0" name="" steps="64" muted="0" pos="2688">
                <note vol="100" pan="0" key="57" pos="48" len="-192"/>
                <note vol="100" pan="0" key="57" pos="144" len="-192"/>
                <note vol="100" pan="0" key="57" pos="240" len="-192"/>
                <note vol="100" pan="0" key="57" pos="336" len="-192"/>
                <note vol="100" pan="0" key="57" pos="432" len="-192"/>
                <note vol="100" pan="0" key="57" pos="528" len="-192"/>
                <note vol="100" pan="0" key="57" pos="624" len="-192"/>
                <note vol="100" pan="0" key="57" pos="720" len="-192"/>
              </pattern>
              <pattern type="0" name="" steps="16" muted="0" pos="2880">
                <note vol="100" pan="0" key="57" pos="144" len="-192"/>
                <note vol="100" pan="0" key="57" pos="156" len="-192"/>
                <note vol="100" pan="0" key="57" pos="168" len="-192"/>
                <note vol="100" pan="0" key="57" pos="180" len="-192"/>
              </pattern>
              <pattern type="0" name="" steps="16" muted="0" pos="3072">
                <note vol="100" pan="0" key="57" pos="0" len="-192"/>
                <note vol="100" pan="0" key="57" pos="48" len="-192"/>
              </pattern>
              <pattern type="0" name="" steps="16" muted="0" pos="3264">
                <note vol="100" pan="0" key="57" pos="0" len="-192"/>
                <note vol="100" pan="0" key="57" pos="24" len="-192"/>
                <note vol="100" pan="0" key="57" pos="96" len="-192"/>
                <note vol="100" pan="0" key="57" pos="120" len="-192"/>
              </pattern>
              <pattern type="0" name="" steps="32" muted="0" pos="3456">
                <note vol="100" pan="0" key="57" pos="336" len="-192"/>
                <note vol="100" pan="0" key="57" pos="348" len="-192"/>
                <note vol="100" pan="0" key="57" pos="360" len="-192"/>
                <note vol="100" pan="0" key="57" pos="372" len="-192"/>
              </pattern>
              <pattern type="0" name="" steps="16" muted="0" pos="3648"/>
              <pattern type="0" name="" steps="32" muted="0" pos="3840">
                <note vol="100" pan="0" key="57" pos="360" len="-192"/>
                <note vol="100" pan="0" key="57" pos="372" len="-192"/>
              </pattern>
              <pattern type="0" name="" steps="64" muted="0" pos="4032">
                <note vol="100" pan="0" key="57" pos="96" len="-192"/>
                <note vol="100" pan="0" key="57" pos="288" len="-192"/>
                <note vol="100" pan="0" key="57" pos="480" len="-192"/>
                <note vol="100" pan="0" key="57" pos="672" len="-192"/>
                <note vol="100" pan="0" key="57" pos="720" len="-192"/>
              </pattern>
              <pattern type="0" name="" steps="64" muted="0" pos="4224">
                <note vol="100" pan="0" key="57" pos="192" len="-192"/>
                <note vol="100" pan="0" key="57" pos="384" len="-192"/>
                <note vol="100" pan="0" key="57" pos="576" len="-192"/>
                <note vol="100" pan="0" key="57" pos="672" len="-192"/>
                <note vol="100" pan="0" key="57" pos="720" len="-192"/>
              </pattern>
              <pattern type="0" name="" steps="32" muted="0" pos="4416">
                <note vol="100" pan="0" key="57" pos="48" len="-192"/>
                <note vol="100" pan="0" key="57" pos="144" len="-192"/>
                <note vol="100" pan="0" key="57" pos="240" len="-192"/>
                <note vol="100" pan="0" key="57" pos="336" len="-192"/>
              </pattern>
              <pattern type="0" name="" steps="32" muted="0" pos="4608">
                <note vol="100" pan="0" key="57" pos="0" len="-192"/>
                <note vol="100" pan="0" key="57" pos="12" len="-192"/>
                <note vol="100" pan="0" key="57" pos="72" len="-192"/>
                <note vol="100" pan="0" key="57" pos="84" len="-192"/>
                <note vol="100" pan="0" key="57" pos="144" len="-192"/>
                <note vol="100" pan="0" key="57" pos="156" len="-192"/>
              </pattern>
              <pattern type="0" name="" steps="16" muted="0" pos="4800"/>
              <pattern type="0" name="" steps="32" muted="0" pos="4992">
                <note vol="100" pan="0" key="57" pos="0" len="-192"/>
                <note vol="100" pan="0" key="57" pos="72" len="-192"/>
                <note vol="100" pan="0" key="57" pos="144" len="-192"/>
                <note vol="100" pan="0" key="57" pos="240" len="-192"/>
                <note vol="100" pan="0" key="57" pos="252" len="-192"/>
                <note vol="100" pan="0" key="57" pos="336" len="-192"/>
                <note vol="100" pan="0" key="57" pos="348" len="-192"/>
                <note vol="100" pan="0" key="57" pos="360" len="-192"/>
                <note vol="100" pan="0" key="57" pos="372" len="-192"/>
              </pattern>
              <pattern type="0" name="" steps="64" muted="0" pos="5184"/>
              <pattern type="0" name="" steps="64" muted="0" pos="5376"/>
              <pattern type="0" name="" steps="64" muted="0" pos="5568"/>
              <pattern type="0" name="" steps="128" muted="0" pos="5760">
                <note vol="100" pan="0" key="57" pos="48" len="-192"/>
                <note vol="100" pan="0" key="57" pos="144" len="-192"/>
                <note vol="100" pan="0" key="57" pos="240" len="-192"/>
                <note vol="100" pan="0" key="57" pos="336" len="-192"/>
                <note vol="100" pan="0" key="57" pos="432" len="-192"/>
                <note vol="100" pan="0" key="57" pos="528" len="-192"/>
                <note vol="100" pan="0" key="57" pos="624" len="-192"/>
                <note vol="100" pan="0" key="57" pos="720" len="-192"/>
                <note vol="100" pan="0" key="57" pos="816" len="-192"/>
                <note vol="100" pan="0" key="57" pos="912" len="-192"/>
                <note vol="100" pan="0" key="57" pos="1008" len="-192"/>
                <note vol="100" pan="0" key="57" pos="1104" len="-192"/>
                <note vol="100" pan="0" key="57" pos="1200" len="-192"/>
                <note vol="100" pan="0" key="57" pos="1296" len="-192"/>
                <note vol="100" pan="0" key="57" pos="1392" len="-192"/>
                <note vol="100" pan="0" key="57" pos="1488" len="-192"/>
              </pattern>
              <pattern type="0" name="" steps="16" muted="0" pos="5952">
                <note vol="100" pan="0" key="57" pos="0" len="-192"/>
                <note vol="100" pan="0" key="57" pos="48" len="-192"/>
                <note vol="100" pan="0" key="57" pos="96" len="-192"/>
                <note vol="100" pan="0" key="57" pos="144" len="-192"/>
                <note vol="100" pan="0" key="57" pos="156" len="-192"/>
                <note vol="100" pan="0" key="57" pos="168" len="-192"/>
                <note vol="100" pan="0" key="57" pos="180" len="-192"/>
              </pattern>
              <pattern type="0" name="" steps="64" muted="0" pos="6144">
                <note vol="100" pan="0" key="57" pos="96" len="-192"/>
                <note vol="100" pan="0" key="57" pos="288" len="-192"/>
                <note vol="100" pan="0" key="57" pos="480" len="-192"/>
                <note vol="100" pan="0" key="57" pos="672" len="-192"/>
              </pattern>
              <pattern type="0" name="" steps="16" muted="0" pos="6336">
                <note vol="100" pan="0" key="57" pos="96" len="-192"/>
                <note vol="100" pan="0" key="57" pos="108" len="-192"/>
              </pattern>
              <pattern type="0" name="" steps="16" muted="0" pos="6528"/>
              <pattern type="0" name="" steps="16" muted="0" pos="6720"/>
              <pattern type="0" name="" steps="64" muted="0" pos="6912">
                <note vol="100" pan="0" key="57" pos="0" len="-192"/>
                <note vol="100" pan="0" key="57" pos="48" len="-192"/>
                <note vol="100" pan="0" key="57" pos="96" len="-192"/>
                <note vol="100" pan="0" key="57" pos="144" len="-192"/>
                <note vol="100" pan="0" key="57" pos="192" len="-192"/>
                <note vol="100" pan="0" key="57" pos="204" len="-192"/>
                <note vol="100" pan="0" key="57" pos="264" len="-192"/>
                <note vol="100" pan="0" key="57" pos="276" len="-192"/>
                <note vol="100" pan="0" key="57" pos="336" len="-192"/>
                <note vol="100" pan="0" key="57" pos="348" len="-192"/>
                <note vol="100" pan="0" key="57" pos="408" len="-192"/>
                <note vol="100" pan="0" key="57" pos="420" len="-192"/>
                <note vol="100" pan="0" key="57" pos="480" len="-192"/>
                <note vol="100" pan="0" key="57" pos="528" len="-192"/>
                <note vol="100" pan="0" key="57" pos="540" len="-192"/>
                <note vol="100" pan="0" key="57" pos="552" len="-192"/>
                <note vol="100" pan="0" key="57" pos="564" len="-192"/>
              </pattern>
            </track>
            <track type="0" name="crash1" solo="0" muted="0" mutedBeforeSolo="0">
              <instrumenttrack usemasterpitch="1" pitchrange="1" pitch="0" vol="77.6" basenote="57" pan="2.4" fxch="4">
                <instrument name="audiofileprocessor">
                  <audiofileprocessor amp="100" lframe="0" interp="1" reversed="0" src="/home/pass/samples/sillydrums/crash1.wav" sframe="0" eframe="1" stutter="0" looped="0">
                    <key/>
                  </audiofileprocessor>
                </instrument>
                <eldata fwet="0" fres="0.5" ftype="0" fcut="14000">
                  <elvol x100="0" lspd_numerator="4" amt="1" lspd="0.1" lpdel="0" dec="2" lspd_syncmode="0" att="0" ctlenvamt="0" pdel="0" latt="0" sustain="1" lspd_denominator="4" hold="2" lamt="0" userwavefile="" lshp="0" rel="2"/>
                  <elcut x100="0" lspd_numerator="4" amt="0" lspd="0.1" lpdel="0" dec="0.5" lspd_syncmode="0" att="0" ctlenvamt="0" pdel="0" latt="0" sustain="0.5" lspd_denominator="4" hold="0.5" lamt="0" userwavefile="" lshp="0" rel="0.1"/>
                  <elres x100="0" lspd_numerator="4" amt="0" lspd="0.1" lpdel="0" dec="0.5" lspd_syncmode="0" att="0" ctlenvamt="0" pdel="0" latt="0" sustain="0.5" lspd_denominator="4" hold="0.5" lamt="0" userwavefile="" lshp="0" rel="0.1"/>
                </eldata>
                <chordcreator chordrange="1" chord="0" chord-enabled="0"/>
                <arpeggiator arprange="1" arptime_syncmode="0" arpskip="0" arpmiss="0" arptime="200" arpdir="0" arpmode="0" arptime_denominator="4" arp-enabled="0" arp="0" arpgate="100" arpcycle="0" arptime_numerator="4"/>
                <midiport inputcontroller="0" outputcontroller="0" outputprogram="1" basevelocity="63" outputchannel="1" writable="0" inputchannel="0" readable="0" fixedinputvelocity="-1" fixedoutputvelocity="-1" fixedoutputnote="-1"/>
                <fxchain numofeffects="0" enabled="0"/>
              </instrumenttrack>
              <pattern type="0" name="" steps="64" muted="0" pos="0">
                <note vol="100" pan="0" key="57" pos="0" len="-192"/>
              </pattern>
              <pattern type="0" name="" steps="64" muted="0" pos="192">
                <note vol="100" pan="0" key="57" pos="0" len="-192"/>
              </pattern>
              <pattern type="0" name="" steps="32" muted="0" pos="384">
                <note vol="100" pan="0" key="57" pos="288" len="-192"/>
              </pattern>
              <pattern type="0" name="" steps="64" muted="0" pos="576">
                <note vol="100" pan="0" key="57" pos="0" len="-192"/>
              </pattern>
              <pattern type="0" name="" steps="16" muted="0" pos="768"/>
              <pattern type="0" name="" steps="64" muted="0" pos="960">
                <note vol="100" pan="0" key="57" pos="0" len="-192"/>
                <note vol="100" pan="0" key="57" pos="384" len="-192"/>
              </pattern>
              <pattern type="0" name="" steps="64" muted="0" pos="1152">
                <note vol="100" pan="0" key="57" pos="0" len="-192"/>
              </pattern>
              <pattern type="0" name="" steps="32" muted="0" pos="1344"/>
              <pattern type="0" name="" steps="64" muted="0" pos="1536">
                <note vol="100" pan="0" key="57" pos="0" len="-192"/>
              </pattern>
              <pattern type="0" name="" steps="32" muted="0" pos="1728">
                <note vol="100" pan="0" key="57" pos="0" len="-192"/>
              </pattern>
              <pattern type="0" name="" steps="32" muted="0" pos="1920">
                <note vol="100" pan="0" key="57" pos="0" len="-192"/>
                <note vol="100" pan="0" key="57" pos="192" len="-192"/>
              </pattern>
              <pattern type="0" name="" steps="64" muted="0" pos="2112">
                <note vol="100" pan="0" key="57" pos="0" len="-192"/>
              </pattern>
              <pattern type="0" name="" steps="32" muted="0" pos="2304">
                <note vol="100" pan="0" key="57" pos="0" len="-192"/>
              </pattern>
              <pattern type="0" name="" steps="32" muted="0" pos="2496">
                <note vol="100" pan="0" key="57" pos="0" len="-192"/>
              </pattern>
              <pattern type="0" name="" steps="64" muted="0" pos="2688">
                <note vol="100" pan="0" key="57" pos="0" len="-192"/>
                <note vol="100" pan="0" key="57" pos="384" len="-192"/>
              </pattern>
              <pattern type="0" name="" steps="16" muted="0" pos="2880">
                <note vol="100" pan="0" key="57" pos="0" len="-192"/>
                <note vol="100" pan="0" key="57" pos="96" len="-192"/>
              </pattern>
              <pattern type="0" name="" steps="16" muted="0" pos="3072">
                <note vol="100" pan="0" key="57" pos="96" len="-192"/>
              </pattern>
              <pattern type="0" name="" steps="16" muted="0" pos="3264"/>
              <pattern type="0" name="" steps="32" muted="0" pos="3456">
                <note vol="100" pan="0" key="57" pos="96" len="-192"/>
                <note vol="100" pan="0" key="57" pos="288" len="-192"/>
              </pattern>
              <pattern type="0" name="" steps="16" muted="0" pos="3648">
                <note vol="100" pan="0" key="57" pos="0" len="-192"/>
              </pattern>
              <pattern type="0" name="" steps="32" muted="0" pos="3840">
                <note vol="100" pan="0" key="57" pos="0" len="-192"/>
                <note vol="100" pan="0" key="57" pos="192" len="-192"/>
              </pattern>
              <pattern type="0" name="" steps="64" muted="0" pos="4032">
                <note vol="100" pan="0" key="57" pos="0" len="-192"/>
                <note vol="100" pan="0" key="57" pos="384" len="-192"/>
              </pattern>
              <pattern type="0" name="" steps="64" muted="0" pos="4224">
                <note vol="100" pan="0" key="57" pos="0" len="-192"/>
                <note vol="100" pan="0" key="57" pos="384" len="-192"/>
              </pattern>
              <pattern type="0" name="" steps="32" muted="0" pos="4416">
                <note vol="100" pan="0" key="57" pos="0" len="-192"/>
              </pattern>
              <pattern type="0" name="" steps="32" muted="0" pos="4608">
                <note vol="100" pan="0" key="57" pos="192" len="-192"/>
              </pattern>
              <pattern type="0" name="" steps="16" muted="0" pos="4800">
                <note vol="100" pan="0" key="57" pos="0" len="-192"/>
              </pattern>
              <pattern type="0" name="" steps="32" muted="0" pos="4992">
                <note vol="100" pan="0" key="57" pos="0" len="-192"/>
              </pattern>
              <pattern type="0" name="" steps="64" muted="0" pos="5184">
                <note vol="100" pan="0" key="57" pos="0" len="-192"/>
                <note vol="100" pan="0" key="57" pos="384" len="-192"/>
              </pattern>
              <pattern type="0" name="" steps="64" muted="0" pos="5376">
                <note vol="100" pan="0" key="57" pos="0" len="-192"/>
                <note vol="100" pan="0" key="57" pos="384" len="-192"/>
                <note vol="100" pan="0" key="57" pos="576" len="-192"/>
              </pattern>
              <pattern type="0" name="" steps="64" muted="0" pos="5568">
                <note vol="100" pan="0" key="57" pos="0" len="-192"/>
                <note vol="100" pan="0" key="57" pos="576" len="-192"/>
              </pattern>
              <pattern type="0" name="" steps="128" muted="0" pos="5760">
                <note vol="100" pan="0" key="57" pos="0" len="-192"/>
              </pattern>
              <pattern type="0" name="" steps="16" muted="0" pos="5952"/>
              <pattern type="0" name="" steps="64" muted="0" pos="6144">
                <note vol="100" pan="0" key="57" pos="0" len="-192"/>
                <note vol="100" pan="0" key="57" pos="384" len="-192"/>
              </pattern>
              <pattern type="0" name="" steps="16" muted="0" pos="6336"/>
              <pattern type="0" name="" steps="16" muted="0" pos="6528"/>
              <pattern type="0" name="" steps="16" muted="0" pos="6720"/>
              <pattern type="0" name="" steps="64" muted="0" pos="6912">
                <note vol="100" pan="0" key="57" pos="576" len="-192"/>
              </pattern>
            </track>
            <track type="0" name="crash1m" solo="0" muted="0" mutedBeforeSolo="0">
              <instrumenttrack usemasterpitch="1" pitchrange="1" pitch="0" vol="77.6" basenote="57" pan="0" fxch="4">
                <instrument name="audiofileprocessor">
                  <audiofileprocessor amp="100" lframe="0" interp="1" reversed="0" src="/home/pass/samples/sillydrums/crash1.wav" sframe="0" eframe="1" stutter="0" looped="0">
                    <key/>
                  </audiofileprocessor>
                </instrument>
                <eldata fwet="0" fres="0.5" ftype="0" fcut="14000">
                  <elvol x100="0" lspd_numerator="4" amt="1" lspd="0.1" lpdel="0" dec="0.216" lspd_syncmode="0" att="0" ctlenvamt="0" pdel="0" latt="0" sustain="0" lspd_denominator="4" hold="0.232" lamt="0" userwavefile="" lshp="0" rel="0.208"/>
                  <elcut x100="0" lspd_numerator="4" amt="0" lspd="0.1" lpdel="0" dec="0.5" lspd_syncmode="0" att="0" ctlenvamt="0" pdel="0" latt="0" sustain="0.5" lspd_denominator="4" hold="0.5" lamt="0" userwavefile="" lshp="0" rel="0.1"/>
                  <elres x100="0" lspd_numerator="4" amt="0" lspd="0.1" lpdel="0" dec="0.5" lspd_syncmode="0" att="0" ctlenvamt="0" pdel="0" latt="0" sustain="0.5" lspd_denominator="4" hold="0.5" lamt="0" userwavefile="" lshp="0" rel="0.1"/>
                </eldata>
                <chordcreator chordrange="1" chord="0" chord-enabled="0"/>
                <arpeggiator arprange="1" arptime_syncmode="0" arpskip="0" arpmiss="0" arptime="200" arpdir="0" arpmode="0" arptime_denominator="4" arp-enabled="0" arp="0" arpgate="100" arpcycle="0" arptime_numerator="4"/>
                <midiport inputcontroller="0" outputcontroller="0" outputprogram="1" basevelocity="63" outputchannel="1" writable="0" inputchannel="0" readable="0" fixedinputvelocity="-1" fixedoutputvelocity="-1" fixedoutputnote="-1"/>
                <fxchain numofeffects="0" enabled="0"/>
              </instrumenttrack>
              <pattern type="0" name="" steps="64" muted="0" pos="0"/>
              <pattern type="0" name="" steps="64" muted="0" pos="192"/>
              <pattern type="0" name="" steps="32" muted="0" pos="384">
                <note vol="100" pan="0" key="57" pos="0" len="-192"/>
                <note vol="100" pan="0" key="57" pos="72" len="-192"/>
                <note vol="100" pan="0" key="57" pos="144" len="-192"/>
                <note vol="100" pan="0" key="57" pos="216" len="-192"/>
              </pattern>
              <pattern type="0" name="" steps="64" muted="0" pos="576"/>
              <pattern type="0" name="" steps="16" muted="0" pos="768"/>
              <pattern type="0" name="" steps="64" muted="0" pos="960"/>
              <pattern type="0" name="" steps="64" muted="0" pos="1152"/>
              <pattern type="0" name="" steps="32" muted="0" pos="1344">
                <note vol="100" pan="0" key="57" pos="0" len="-192"/>
              </pattern>
              <pattern type="0" name="" steps="64" muted="0" pos="1536"/>
              <pattern type="0" name="" steps="32" muted="0" pos="1728"/>
              <pattern type="0" name="" steps="32" muted="0" pos="1920"/>
              <pattern type="0" name="" steps="64" muted="0" pos="2112"/>
              <pattern type="0" name="" steps="32" muted="0" pos="2304"/>
              <pattern type="0" name="" steps="32" muted="0" pos="2496"/>
              <pattern type="0" name="" steps="64" muted="0" pos="2688"/>
              <pattern type="0" name="" steps="16" muted="0" pos="2880"/>
              <pattern type="0" name="" steps="16" muted="0" pos="3072"/>
              <pattern type="0" name="" steps="16" muted="0" pos="3264"/>
              <pattern type="0" name="" steps="32" muted="0" pos="3456"/>
              <pattern type="0" name="" steps="16" muted="0" pos="3648"/>
              <pattern type="0" name="" steps="32" muted="0" pos="3840"/>
              <pattern type="0" name="" steps="64" muted="0" pos="4032"/>
              <pattern type="0" name="" steps="64" muted="0" pos="4224"/>
              <pattern type="0" name="" steps="32" muted="0" pos="4416"/>
              <pattern type="0" name="" steps="32" muted="0" pos="4608"/>
              <pattern type="0" name="" steps="16" muted="0" pos="4800"/>
              <pattern type="0" name="" steps="32" muted="0" pos="4992"/>
              <pattern type="0" name="" steps="64" muted="0" pos="5184"/>
              <pattern type="0" name="" steps="64" muted="0" pos="5376"/>
              <pattern type="0" name="" steps="64" muted="0" pos="5568"/>
              <pattern type="0" name="" steps="128" muted="0" pos="5760"/>
              <pattern type="0" name="" steps="16" muted="0" pos="5952"/>
              <pattern type="0" name="" steps="64" muted="0" pos="6144"/>
              <pattern type="0" name="" steps="16" muted="0" pos="6336"/>
              <pattern type="0" name="" steps="16" muted="0" pos="6528"/>
              <pattern type="0" name="" steps="16" muted="0" pos="6720"/>
              <pattern type="0" name="" steps="64" muted="0" pos="6912"/>
            </track>
            <track type="0" name="crash2" solo="0" muted="0" mutedBeforeSolo="0">
              <instrumenttrack usemasterpitch="1" pitchrange="1" pitch="0" vol="76.8" basenote="57" pan="20" fxch="5">
                <instrument name="audiofileprocessor">
                  <audiofileprocessor amp="100" lframe="0" interp="1" reversed="0" src="/home/pass/samples/mtpdk_extract/crash2.wav" sframe="0" eframe="1" stutter="0" looped="0">
                    <key/>
                  </audiofileprocessor>
                </instrument>
                <eldata fwet="0" fres="0.5" ftype="0" fcut="14000">
                  <elvol x100="0" lspd_numerator="4" amt="1" lspd="0.1" lpdel="0" dec="2" lspd_syncmode="0" att="0" ctlenvamt="0" pdel="0" latt="0" sustain="1" lspd_denominator="4" hold="2" lamt="0" userwavefile="" lshp="0" rel="2"/>
                  <elcut x100="0" lspd_numerator="4" amt="0" lspd="0.1" lpdel="0" dec="0.5" lspd_syncmode="0" att="0" ctlenvamt="0" pdel="0" latt="0" sustain="0.5" lspd_denominator="4" hold="0.5" lamt="0" userwavefile="" lshp="0" rel="0.1"/>
                  <elres x100="0" lspd_numerator="4" amt="0" lspd="0.1" lpdel="0" dec="0.5" lspd_syncmode="0" att="0" ctlenvamt="0" pdel="0" latt="0" sustain="0.5" lspd_denominator="4" hold="0.5" lamt="0" userwavefile="" lshp="0" rel="0.1"/>
                </eldata>
                <chordcreator chordrange="1" chord="0" chord-enabled="0"/>
                <arpeggiator arprange="1" arptime_syncmode="0" arpskip="0" arpmiss="0" arptime="200" arpdir="0" arpmode="0" arptime_denominator="4" arp-enabled="0" arp="0" arpgate="100" arpcycle="0" arptime_numerator="4"/>
                <midiport inputcontroller="0" outputcontroller="0" outputprogram="1" basevelocity="63" outputchannel="1" writable="0" inputchannel="0" readable="0" fixedinputvelocity="-1" fixedoutputvelocity="-1" fixedoutputnote="-1"/>
                <fxchain numofeffects="0" enabled="0"/>
              </instrumenttrack>
              <pattern type="0" name="" steps="64" muted="0" pos="0">
                <note vol="100" pan="0" key="57" pos="384" len="-192"/>
              </pattern>
              <pattern type="0" name="" steps="64" muted="0" pos="192">
                <note vol="100" pan="0" key="57" pos="384" len="-192"/>
              </pattern>
              <pattern type="0" name="" steps="32" muted="0" pos="384"/>
              <pattern type="0" name="" steps="64" muted="0" pos="576">
                <note vol="100" pan="0" key="57" pos="384" len="-192"/>
              </pattern>
              <pattern type="0" name="" steps="16" muted="0" pos="768"/>
              <pattern type="0" name="" steps="64" muted="0" pos="960">
                <note vol="100" pan="0" key="57" pos="192" len="-192"/>
              </pattern>
              <pattern type="0" name="" steps="64" muted="0" pos="1152">
                <note vol="100" pan="0" key="57" pos="384" len="-192"/>
              </pattern>
              <pattern type="0" name="" steps="32" muted="0" pos="1344"/>
              <pattern type="0" name="" steps="64" muted="0" pos="1536">
                <note vol="100" pan="0" key="57" pos="384" len="-192"/>
              </pattern>
              <pattern type="0" name="" steps="32" muted="0" pos="1728">
                <note vol="100" pan="0" key="57" pos="192" len="-192"/>
              </pattern>
              <pattern type="0" name="" steps="32" muted="0" pos="1920">
                <note vol="100" pan="0" key="57" pos="192" len="-192"/>
              </pattern>
              <pattern type="0" name="" steps="64" muted="0" pos="2112">
                <note vol="100" pan="0" key="57" pos="384" len="-192"/>
              </pattern>
              <pattern type="0" name="" steps="32" muted="0" pos="2304"/>
              <pattern type="0" name="" steps="32" muted="0" pos="2496">
                <note vol="100" pan="0" key="57" pos="192" len="-192"/>
              </pattern>
              <pattern type="0" name="" steps="64" muted="0" pos="2688">
                <note vol="100" pan="0" key="57" pos="192" len="-192"/>
              </pattern>
              <pattern type="0" name="" steps="16" muted="0" pos="2880">
                <note vol="100" pan="0" key="57" pos="48" len="-192"/>
              </pattern>
              <pattern type="0" name="" steps="16" muted="0" pos="3072">
                <note vol="100" pan="0" key="57" pos="144" len="-192"/>
              </pattern>
              <pattern type="0" name="" steps="16" muted="0" pos="3264"/>
              <pattern type="0" name="" steps="32" muted="0" pos="3456">
                <note vol="100" pan="0" key="57" pos="192" len="-192"/>
                <note vol="100" pan="0" key="57" pos="288" len="-192"/>
              </pattern>
              <pattern type="0" name="" steps="16" muted="0" pos="3648">
                <note vol="100" pan="0" key="57" pos="96" len="-192"/>
              </pattern>
              <pattern type="0" name="" steps="32" muted="0" pos="3840">
                <note vol="100" pan="0" key="57" pos="288" len="-192"/>
              </pattern>
              <pattern type="0" name="" steps="64" muted="0" pos="4032">
                <note vol="100" pan="0" key="57" pos="192" len="-192"/>
                <note vol="100" pan="0" key="57" pos="576" len="-192"/>
              </pattern>
              <pattern type="0" name="" steps="64" muted="0" pos="4224">
                <note vol="100" pan="0" key="57" pos="192" len="-192"/>
                <note vol="100" pan="0" key="57" pos="576" len="-192"/>
              </pattern>
              <pattern type="0" name="" steps="32" muted="0" pos="4416">
                <note vol="100" pan="0" key="57" pos="192" len="-192"/>
              </pattern>
              <pattern type="0" name="" steps="32" muted="0" pos="4608">
                <note vol="100" pan="0" key="57" pos="192" len="-192"/>
              </pattern>
              <pattern type="0" name="" steps="16" muted="0" pos="4800">
                <note vol="100" pan="0" key="57" pos="96" len="-192"/>
              </pattern>
              <pattern type="0" name="" steps="32" muted="0" pos="4992">
                <note vol="100" pan="0" key="57" pos="72" len="-192"/>
              </pattern>
              <pattern type="0" name="" steps="64" muted="0" pos="5184">
                <note vol="100" pan="0" key="57" pos="192" len="-192"/>
              </pattern>
              <pattern type="0" name="" steps="64" muted="0" pos="5376">
                <note vol="100" pan="0" key="57" pos="192" len="-192"/>
                <note vol="100" pan="0" key="57" pos="672" len="-192"/>
              </pattern>
              <pattern type="0" name="" steps="64" muted="0" pos="5568">
                <note vol="100" pan="0" key="57" pos="384" len="-192"/>
                <note vol="100" pan="0" key="57" pos="672" len="-192"/>
              </pattern>
              <pattern type="0" name="" steps="128" muted="0" pos="5760">
                <note vol="100" pan="0" key="57" pos="768" len="-192"/>
              </pattern>
              <pattern type="0" name="" steps="16" muted="0" pos="5952"/>
              <pattern type="0" name="" steps="64" muted="0" pos="6144">
                <note vol="100" pan="0" key="57" pos="192" len="-192"/>
              </pattern>
              <pattern type="0" name="" steps="16" muted="0" pos="6336"/>
              <pattern type="0" name="" steps="16" muted="0" pos="6528"/>
              <pattern type="0" name="" steps="16" muted="0" pos="6720"/>
              <pattern type="0" name="" steps="64" muted="0" pos="6912">
                <note vol="100" pan="0" key="57" pos="576" len="-192"/>
              </pattern>
            </track>
            <track type="0" name="china" solo="0" muted="0" mutedBeforeSolo="0">
              <instrumenttrack usemasterpitch="1" pitchrange="1" pitch="0" vol="52" basenote="57" pan="29.6" fxch="6">
                <instrument name="audiofileprocessor">
                  <audiofileprocessor amp="100" lframe="0" interp="1" reversed="0" src="/home/pass/samples/sillydrums/china.wav" sframe="0" eframe="1" stutter="0" looped="0">
                    <key/>
                  </audiofileprocessor>
                </instrument>
                <eldata fwet="0" fres="0.5" ftype="0" fcut="14000">
                  <elvol x100="0" lspd_numerator="4" amt="1" lspd="0.1" lpdel="0" dec="2" lspd_syncmode="0" att="0" ctlenvamt="0" pdel="0" latt="0" sustain="1" lspd_denominator="4" hold="2" lamt="0" userwavefile="" lshp="0" rel="2"/>
                  <elcut x100="0" lspd_numerator="4" amt="0" lspd="0.1" lpdel="0" dec="0.5" lspd_syncmode="0" att="0" ctlenvamt="0" pdel="0" latt="0" sustain="0.5" lspd_denominator="4" hold="0.5" lamt="0" userwavefile="" lshp="0" rel="0.1"/>
                  <elres x100="0" lspd_numerator="4" amt="0" lspd="0.1" lpdel="0" dec="0.5" lspd_syncmode="0" att="0" ctlenvamt="0" pdel="0" latt="0" sustain="0.5" lspd_denominator="4" hold="0.5" lamt="0" userwavefile="" lshp="0" rel="0.1"/>
                </eldata>
                <chordcreator chordrange="1" chord="0" chord-enabled="0"/>
                <arpeggiator arprange="1" arptime_syncmode="0" arpskip="0" arpmiss="0" arptime="200" arpdir="0" arpmode="0" arptime_denominator="4" arp-enabled="0" arp="0" arpgate="100" arpcycle="0" arptime_numerator="4"/>
                <midiport inputcontroller="0" outputcontroller="0" outputprogram="1" basevelocity="63" outputchannel="1" writable="0" inputchannel="0" readable="0" fixedinputvelocity="-1" fixedoutputvelocity="-1" fixedoutputnote="-1"/>
                <fxchain numofeffects="0" enabled="0"/>
              </instrumenttrack>
              <pattern type="0" name="" steps="64" muted="0" pos="0"/>
              <pattern type="0" name="" steps="64" muted="0" pos="192"/>
              <pattern type="0" name="" steps="32" muted="0" pos="384"/>
              <pattern type="0" name="" steps="64" muted="0" pos="576"/>
              <pattern type="0" name="" steps="16" muted="0" pos="768"/>
              <pattern type="0" name="" steps="64" muted="0" pos="960"/>
              <pattern type="0" name="" steps="64" muted="0" pos="1152"/>
              <pattern type="0" name="" steps="32" muted="0" pos="1344"/>
              <pattern type="0" name="" steps="64" muted="0" pos="1536"/>
              <pattern type="0" name="" steps="32" muted="0" pos="1728"/>
              <pattern type="0" name="" steps="32" muted="0" pos="1920"/>
              <pattern type="0" name="" steps="64" muted="0" pos="2112"/>
              <pattern type="0" name="" steps="32" muted="0" pos="2304"/>
              <pattern type="0" name="" steps="32" muted="0" pos="2496"/>
              <pattern type="0" name="" steps="64" muted="0" pos="2688"/>
              <pattern type="0" name="" steps="16" muted="0" pos="2880"/>
              <pattern type="0" name="" steps="16" muted="0" pos="3072"/>
              <pattern type="0" name="" steps="16" muted="0" pos="3264"/>
              <pattern type="0" name="" steps="32" muted="0" pos="3456"/>
              <pattern type="0" name="" steps="16" muted="0" pos="3648"/>
              <pattern type="0" name="" steps="32" muted="0" pos="3840"/>
              <pattern type="0" name="" steps="64" muted="0" pos="4032"/>
              <pattern type="0" name="" steps="64" muted="0" pos="4224"/>
              <pattern type="0" name="" steps="32" muted="0" pos="4416">
                <note vol="100" pan="0" key="57" pos="48" len="-192"/>
                <note vol="100" pan="0" key="57" pos="96" len="-192"/>
                <note vol="100" pan="0" key="57" pos="144" len="-192"/>
                <note vol="100" pan="0" key="57" pos="240" len="-192"/>
                <note vol="100" pan="0" key="57" pos="288" len="-192"/>
                <note vol="100" pan="0" key="57" pos="336" len="-192"/>
              </pattern>
              <pattern type="0" name="" steps="32" muted="0" pos="4608"/>
              <pattern type="0" name="" steps="16" muted="0" pos="4800"/>
              <pattern type="0" name="" steps="32" muted="0" pos="4992"/>
              <pattern type="0" name="" steps="64" muted="0" pos="5184">
                <note vol="100" pan="0" key="57" pos="672" len="-192"/>
              </pattern>
              <pattern type="0" name="" steps="64" muted="0" pos="5376"/>
              <pattern type="0" name="" steps="64" muted="0" pos="5568"/>
              <pattern type="0" name="" steps="128" muted="0" pos="5760"/>
              <pattern type="0" name="" steps="16" muted="0" pos="5952"/>
              <pattern type="0" name="" steps="64" muted="0" pos="6144"/>
              <pattern type="0" name="" steps="16" muted="0" pos="6336"/>
              <pattern type="0" name="" steps="16" muted="0" pos="6528"/>
              <pattern type="0" name="" steps="16" muted="0" pos="6720"/>
              <pattern type="0" name="" steps="64" muted="0" pos="6912"/>
            </track>
            <track type="0" name="tom1" solo="0" muted="0" mutedBeforeSolo="0">
              <instrumenttrack usemasterpitch="1" pitchrange="1" pitch="0" vol="130.4" basenote="57" pan="0" fxch="7">
                <instrument name="audiofileprocessor">
                  <audiofileprocessor amp="100" lframe="0" interp="1" reversed="0" src="/home/pass/samples/sillydrums/hiTom.wav" sframe="0" eframe="1" stutter="0" looped="0">
                    <key/>
                  </audiofileprocessor>
                </instrument>
                <eldata fwet="0" fres="0.5" ftype="0" fcut="14000">
                  <elvol x100="0" lspd_numerator="4" amt="1" lspd="0.1" lpdel="0" dec="2" lspd_syncmode="0" att="0" ctlenvamt="0" pdel="0" latt="0" sustain="1" lspd_denominator="4" hold="2" lamt="0" userwavefile="" lshp="0" rel="2"/>
                  <elcut x100="0" lspd_numerator="4" amt="0" lspd="0.1" lpdel="0" dec="0.5" lspd_syncmode="0" att="0" ctlenvamt="0" pdel="0" latt="0" sustain="0.5" lspd_denominator="4" hold="0.5" lamt="0" userwavefile="" lshp="0" rel="0.1"/>
                  <elres x100="0" lspd_numerator="4" amt="0" lspd="0.1" lpdel="0" dec="0.5" lspd_syncmode="0" att="0" ctlenvamt="0" pdel="0" latt="0" sustain="0.5" lspd_denominator="4" hold="0.5" lamt="0" userwavefile="" lshp="0" rel="0.1"/>
                </eldata>
                <chordcreator chordrange="1" chord="0" chord-enabled="0"/>
                <arpeggiator arprange="1" arptime_syncmode="0" arpskip="0" arpmiss="0" arptime="200" arpdir="0" arpmode="0" arptime_denominator="4" arp-enabled="0" arp="0" arpgate="100" arpcycle="0" arptime_numerator="4"/>
                <midiport inputcontroller="0" outputcontroller="0" outputprogram="1" basevelocity="63" outputchannel="1" writable="0" inputchannel="0" readable="0" fixedinputvelocity="-1" fixedoutputvelocity="-1" fixedoutputnote="-1"/>
                <fxchain numofeffects="0" enabled="0"/>
              </instrumenttrack>
              <pattern type="0" name="" steps="64" muted="0" pos="0"/>
              <pattern type="0" name="" steps="64" muted="0" pos="192"/>
              <pattern type="0" name="" steps="32" muted="0" pos="384"/>
              <pattern type="0" name="" steps="64" muted="0" pos="576"/>
              <pattern type="0" name="" steps="16" muted="0" pos="768"/>
              <pattern type="0" name="" steps="64" muted="0" pos="960"/>
              <pattern type="0" name="" steps="64" muted="0" pos="1152"/>
              <pattern type="0" name="" steps="32" muted="0" pos="1344"/>
              <pattern type="0" name="" steps="64" muted="0" pos="1536"/>
              <pattern type="0" name="" steps="32" muted="0" pos="1728"/>
              <pattern type="0" name="" steps="32" muted="0" pos="1920">
                <note vol="100" pan="0" key="57" pos="72" len="-192"/>
                <note vol="100" pan="0" key="57" pos="84" len="-192"/>
                <note vol="100" pan="0" key="57" pos="348" len="-192"/>
              </pattern>
              <pattern type="0" name="" steps="64" muted="0" pos="2112"/>
              <pattern type="0" name="" steps="32" muted="0" pos="2304">
                <note vol="100" pan="0" key="57" pos="204" len="-192"/>
                <note vol="100" pan="0" key="57" pos="216" len="-192"/>
                <note vol="100" pan="0" key="57" pos="228" len="-192"/>
              </pattern>
              <pattern type="0" name="" steps="32" muted="0" pos="2496"/>
              <pattern type="0" name="" steps="64" muted="0" pos="2688"/>
              <pattern type="0" name="" steps="16" muted="0" pos="2880"/>
              <pattern type="0" name="" steps="16" muted="0" pos="3072">
                <note vol="100" pan="0" key="57" pos="12" len="-192"/>
                <note vol="100" pan="0" key="57" pos="60" len="-192"/>
              </pattern>
              <pattern type="0" name="" steps="16" muted="0" pos="3264"/>
              <pattern type="0" name="" steps="32" muted="0" pos="3456"/>
              <pattern type="0" name="" steps="16" muted="0" pos="3648"/>
              <pattern type="0" name="" steps="32" muted="0" pos="3840"/>
              <pattern type="0" name="" steps="64" muted="0" pos="4032"/>
              <pattern type="0" name="" steps="64" muted="0" pos="4224"/>
              <pattern type="0" name="" steps="32" muted="0" pos="4416"/>
              <pattern type="0" name="" steps="32" muted="0" pos="4608">
                <note vol="100" pan="0" key="57" pos="24" len="-192"/>
                <note vol="100" pan="0" key="57" pos="36" len="-192"/>
                <note vol="100" pan="0" key="57" pos="48" len="-192"/>
                <note vol="100" pan="0" key="57" pos="60" len="-192"/>
              </pattern>
              <pattern type="0" name="" steps="16" muted="0" pos="4800"/>
              <pattern type="0" name="" steps="32" muted="0" pos="4992">
                <note vol="100" pan="0" key="57" pos="192" len="-192"/>
                <note vol="100" pan="0" key="57" pos="204" len="-192"/>
                <note vol="100" pan="0" key="57" pos="288" len="-192"/>
                <note vol="100" pan="0" key="57" pos="300" len="-192"/>
              </pattern>
              <pattern type="0" name="" steps="64" muted="0" pos="5184"/>
              <pattern type="0" name="" steps="64" muted="0" pos="5376"/>
              <pattern type="0" name="" steps="64" muted="0" pos="5568"/>
              <pattern type="0" name="" steps="128" muted="0" pos="5760"/>
              <pattern type="0" name="" steps="16" muted="0" pos="5952">
                <note vol="100" pan="0" key="57" pos="12" len="-192"/>
                <note vol="100" pan="0" key="57" pos="24" len="-192"/>
                <note vol="100" pan="0" key="57" pos="36" len="-192"/>
              </pattern>
              <pattern type="0" name="" steps="64" muted="0" pos="6144"/>
              <pattern type="0" name="" steps="16" muted="0" pos="6336">
                <note vol="100" pan="0" key="57" pos="120" len="-192"/>
                <note vol="100" pan="0" key="57" pos="132" len="-192"/>
              </pattern>
              <pattern type="0" name="" steps="16" muted="0" pos="6528"/>
              <pattern type="0" name="" steps="16" muted="0" pos="6720"/>
              <pattern type="0" name="" steps="64" muted="0" pos="6912">
                <note vol="100" pan="0" key="57" pos="12" len="-192"/>
                <note vol="100" pan="0" key="57" pos="60" len="-192"/>
                <note vol="100" pan="0" key="57" pos="108" len="-192"/>
                <note vol="100" pan="0" key="57" pos="156" len="-192"/>
                <note vol="100" pan="0" key="57" pos="216" len="-192"/>
                <note vol="100" pan="0" key="57" pos="228" len="-192"/>
                <note vol="100" pan="0" key="57" pos="240" len="-192"/>
                <note vol="100" pan="0" key="57" pos="252" len="-192"/>
                <note vol="100" pan="0" key="57" pos="492" len="-192"/>
              </pattern>
            </track>
            <track type="0" name="tom2" solo="0" muted="0" mutedBeforeSolo="0">
              <instrumenttrack usemasterpitch="1" pitchrange="1" pitch="0" vol="130.4" basenote="57" pan="0" fxch="8">
                <instrument name="audiofileprocessor">
                  <audiofileprocessor amp="100" lframe="0" interp="1" reversed="0" src="/home/pass/samples/sillydrums/midTom.wav" sframe="0" eframe="1" stutter="0" looped="0">
                    <key/>
                  </audiofileprocessor>
                </instrument>
                <eldata fwet="0" fres="0.5" ftype="0" fcut="14000">
                  <elvol x100="0" lspd_numerator="4" amt="1" lspd="0.1" lpdel="0" dec="2" lspd_syncmode="0" att="0" ctlenvamt="0" pdel="0" latt="0" sustain="1" lspd_denominator="4" hold="2" lamt="0" userwavefile="" lshp="0" rel="2"/>
                  <elcut x100="0" lspd_numerator="4" amt="0" lspd="0.1" lpdel="0" dec="0.5" lspd_syncmode="0" att="0" ctlenvamt="0" pdel="0" latt="0" sustain="0.5" lspd_denominator="4" hold="0.5" lamt="0" userwavefile="" lshp="0" rel="0.1"/>
                  <elres x100="0" lspd_numerator="4" amt="0" lspd="0.1" lpdel="0" dec="0.5" lspd_syncmode="0" att="0" ctlenvamt="0" pdel="0" latt="0" sustain="0.5" lspd_denominator="4" hold="0.5" lamt="0" userwavefile="" lshp="0" rel="0.1"/>
                </eldata>
                <chordcreator chordrange="1" chord="0" chord-enabled="0"/>
                <arpeggiator arprange="1" arptime_syncmode="0" arpskip="0" arpmiss="0" arptime="200" arpdir="0" arpmode="0" arptime_denominator="4" arp-enabled="0" arp="0" arpgate="100" arpcycle="0" arptime_numerator="4"/>
                <midiport inputcontroller="0" outputcontroller="0" outputprogram="1" basevelocity="63" outputchannel="1" writable="0" inputchannel="0" readable="0" fixedinputvelocity="-1" fixedoutputvelocity="-1" fixedoutputnote="-1"/>
                <fxchain numofeffects="0" enabled="0"/>
              </instrumenttrack>
              <pattern type="0" name="" steps="64" muted="0" pos="0"/>
              <pattern type="0" name="" steps="64" muted="0" pos="192"/>
              <pattern type="0" name="" steps="32" muted="0" pos="384"/>
              <pattern type="0" name="" steps="64" muted="0" pos="576"/>
              <pattern type="0" name="" steps="16" muted="0" pos="768">
                <note vol="100" pan="0" key="57" pos="108" len="-192"/>
                <note vol="100" pan="0" key="57" pos="120" len="-192"/>
                <note vol="100" pan="0" key="57" pos="132" len="-192"/>
              </pattern>
              <pattern type="0" name="" steps="64" muted="0" pos="960"/>
              <pattern type="0" name="" steps="64" muted="0" pos="1152"/>
              <pattern type="0" name="" steps="32" muted="0" pos="1344"/>
              <pattern type="0" name="" steps="64" muted="0" pos="1536"/>
              <pattern type="0" name="" steps="32" muted="0" pos="1728"/>
              <pattern type="0" name="" steps="32" muted="0" pos="1920">
                <note vol="100" pan="0" key="57" pos="96" len="-192"/>
                <note vol="100" pan="0" key="57" pos="108" len="-192"/>
                <note vol="100" pan="0" key="57" pos="144" len="-192"/>
                <note vol="100" pan="0" key="57" pos="156" len="-192"/>
                <note vol="100" pan="0" key="57" pos="360" len="-192"/>
              </pattern>
              <pattern type="0" name="" steps="64" muted="0" pos="2112"/>
              <pattern type="0" name="" steps="32" muted="0" pos="2304">
                <note vol="100" pan="0" key="57" pos="252" len="-192"/>
                <note vol="100" pan="0" key="57" pos="264" len="-192"/>
                <note vol="100" pan="0" key="57" pos="276" len="-192"/>
              </pattern>
              <pattern type="0" name="" steps="32" muted="0" pos="2496"/>
              <pattern type="0" name="" steps="64" muted="0" pos="2688"/>
              <pattern type="0" name="" steps="16" muted="0" pos="2880"/>
              <pattern type="0" name="" steps="16" muted="0" pos="3072">
                <note vol="100" pan="0" key="57" pos="24" len="-192"/>
                <note vol="100" pan="0" key="57" pos="72" len="-192"/>
              </pattern>
              <pattern type="0" name="" steps="16" muted="0" pos="3264"/>
              <pattern type="0" name="" steps="32" muted="0" pos="3456"/>
              <pattern type="0" name="" steps="16" muted="0" pos="3648"/>
              <pattern type="0" name="" steps="32" muted="0" pos="3840"/>
              <pattern type="0" name="" steps="64" muted="0" pos="4032">
                <note vol="100" pan="0" key="57" pos="684" len="-192"/>
                <note vol="100" pan="0" key="57" pos="696" len="-192"/>
                <note vol="100" pan="0" key="57" pos="708" len="-192"/>
              </pattern>
              <pattern type="0" name="" steps="64" muted="0" pos="4224">
                <note vol="100" pan="0" key="57" pos="684" len="-192"/>
                <note vol="100" pan="0" key="57" pos="696" len="-192"/>
                <note vol="100" pan="0" key="57" pos="708" len="-192"/>
              </pattern>
              <pattern type="0" name="" steps="32" muted="0" pos="4416"/>
              <pattern type="0" name="" steps="32" muted="0" pos="4608">
                <note vol="100" pan="0" key="57" pos="96" len="-192"/>
                <note vol="100" pan="0" key="57" pos="108" len="-192"/>
                <note vol="100" pan="0" key="57" pos="120" len="-192"/>
                <note vol="100" pan="0" key="57" pos="132" len="-192"/>
              </pattern>
              <pattern type="0" name="" steps="16" muted="0" pos="4800"/>
              <pattern type="0" name="" steps="32" muted="0" pos="4992">
                <note vol="100" pan="0" key="57" pos="24" len="-192"/>
                <note vol="100" pan="0" key="57" pos="36" len="-192"/>
                <note vol="100" pan="0" key="57" pos="120" len="-192"/>
                <note vol="100" pan="0" key="57" pos="168" len="-192"/>
                <note vol="100" pan="0" key="57" pos="216" len="-192"/>
                <note vol="100" pan="0" key="57" pos="228" len="-192"/>
                <note vol="100" pan="0" key="57" pos="312" len="-192"/>
                <note vol="100" pan="0" key="57" pos="324" len="-192"/>
              </pattern>
              <pattern type="0" name="" steps="64" muted="0" pos="5184"/>
              <pattern type="0" name="" steps="64" muted="0" pos="5376"/>
              <pattern type="0" name="" steps="64" muted="0" pos="5568"/>
              <pattern type="0" name="" steps="128" muted="0" pos="5760"/>
              <pattern type="0" name="" steps="16" muted="0" pos="5952">
                <note vol="100" pan="0" key="57" pos="60" len="-192"/>
                <note vol="100" pan="0" key="57" pos="72" len="-192"/>
                <note vol="100" pan="0" key="57" pos="84" len="-192"/>
              </pattern>
              <pattern type="0" name="" steps="64" muted="0" pos="6144"/>
              <pattern type="0" name="" steps="16" muted="0" pos="6336">
                <note vol="100" pan="0" key="57" pos="144" len="-192"/>
                <note vol="100" pan="0" key="57" pos="156" len="-192"/>
              </pattern>
              <pattern type="0" name="" steps="16" muted="0" pos="6528"/>
              <pattern type="0" name="" steps="16" muted="0" pos="6720"/>
              <pattern type="0" name="" steps="64" muted="0" pos="6912">
                <note vol="100" pan="0" key="57" pos="24" len="-192"/>
                <note vol="100" pan="0" key="57" pos="72" len="-192"/>
                <note vol="100" pan="0" key="57" pos="120" len="-192"/>
                <note vol="100" pan="0" key="57" pos="168" len="-192"/>
                <note vol="100" pan="0" key="57" pos="288" len="-192"/>
                <note vol="100" pan="0" key="57" pos="300" len="-192"/>
                <note vol="100" pan="0" key="57" pos="312" len="-192"/>
                <note vol="100" pan="0" key="57" pos="324" len="-192"/>
                <note vol="100" pan="0" key="57" pos="504" len="-192"/>
              </pattern>
            </track>
            <track type="0" name="tom3" solo="0" muted="0" mutedBeforeSolo="0">
              <instrumenttrack usemasterpitch="1" pitchrange="1" pitch="0" vol="130.4" basenote="57" pan="0" fxch="9">
                <instrument name="audiofileprocessor">
                  <audiofileprocessor amp="100" lframe="0" interp="1" reversed="0" src="/home/pass/samples/sillydrums/loTom.wav" sframe="0" eframe="1" stutter="0" looped="0">
                    <key/>
                  </audiofileprocessor>
                </instrument>
                <eldata fwet="0" fres="0.5" ftype="0" fcut="14000">
                  <elvol x100="0" lspd_numerator="4" amt="1" lspd="0.1" lpdel="0" dec="2" lspd_syncmode="0" att="0" ctlenvamt="0" pdel="0" latt="0" sustain="1" lspd_denominator="4" hold="2" lamt="0" userwavefile="" lshp="0" rel="2"/>
                  <elcut x100="0" lspd_numerator="4" amt="0" lspd="0.1" lpdel="0" dec="0.5" lspd_syncmode="0" att="0" ctlenvamt="0" pdel="0" latt="0" sustain="0.5" lspd_denominator="4" hold="0.5" lamt="0" userwavefile="" lshp="0" rel="0.1"/>
                  <elres x100="0" lspd_numerator="4" amt="0" lspd="0.1" lpdel="0" dec="0.5" lspd_syncmode="0" att="0" ctlenvamt="0" pdel="0" latt="0" sustain="0.5" lspd_denominator="4" hold="0.5" lamt="0" userwavefile="" lshp="0" rel="0.1"/>
                </eldata>
                <chordcreator chordrange="1" chord="0" chord-enabled="0"/>
                <arpeggiator arprange="1" arptime_syncmode="0" arpskip="0" arpmiss="0" arptime="200" arpdir="0" arpmode="0" arptime_denominator="4" arp-enabled="0" arp="0" arpgate="100" arpcycle="0" arptime_numerator="4"/>
                <midiport inputcontroller="0" outputcontroller="0" outputprogram="1" basevelocity="63" outputchannel="1" writable="0" inputchannel="0" readable="0" fixedinputvelocity="-1" fixedoutputvelocity="-1" fixedoutputnote="-1"/>
                <fxchain numofeffects="0" enabled="0"/>
              </instrumenttrack>
              <pattern type="0" name="" steps="64" muted="0" pos="0"/>
              <pattern type="0" name="" steps="64" muted="0" pos="192"/>
              <pattern type="0" name="" steps="32" muted="0" pos="384"/>
              <pattern type="0" name="" steps="64" muted="0" pos="576"/>
              <pattern type="0" name="" steps="16" muted="0" pos="768">
                <note vol="100" pan="0" key="57" pos="156" len="-192"/>
                <note vol="100" pan="0" key="57" pos="168" len="-192"/>
                <note vol="100" pan="0" key="57" pos="180" len="-192"/>
              </pattern>
              <pattern type="0" name="" steps="64" muted="0" pos="960"/>
              <pattern type="0" name="" steps="64" muted="0" pos="1152"/>
              <pattern type="0" name="" steps="32" muted="0" pos="1344"/>
              <pattern type="0" name="" steps="64" muted="0" pos="1536"/>
              <pattern type="0" name="" steps="32" muted="0" pos="1728"/>
              <pattern type="0" name="" steps="32" muted="0" pos="1920">
                <note vol="100" pan="0" key="57" pos="168" len="-192"/>
                <note vol="100" pan="0" key="57" pos="180" len="-192"/>
                <note vol="100" pan="0" key="57" pos="372" len="-192"/>
              </pattern>
              <pattern type="0" name="" steps="64" muted="0" pos="2112"/>
              <pattern type="0" name="" steps="32" muted="0" pos="2304">
                <note vol="100" pan="0" key="57" pos="300" len="-192"/>
                <note vol="100" pan="0" key="57" pos="312" len="-192"/>
                <note vol="100" pan="0" key="57" pos="324" len="-192"/>
              </pattern>
              <pattern type="0" name="" steps="32" muted="0" pos="2496"/>
              <pattern type="0" name="" steps="64" muted="0" pos="2688"/>
              <pattern type="0" name="" steps="16" muted="0" pos="2880"/>
              <pattern type="0" name="" steps="16" muted="0" pos="3072">
                <note vol="100" pan="0" key="57" pos="36" len="-192"/>
                <note vol="100" pan="0" key="57" pos="84" len="-192"/>
              </pattern>
              <pattern type="0" name="" steps="16" muted="0" pos="3264"/>
              <pattern type="0" name="" steps="32" muted="0" pos="3456"/>
              <pattern type="0" name="" steps="16" muted="0" pos="3648"/>
              <pattern type="0" name="" steps="32" muted="0" pos="3840"/>
              <pattern type="0" name="" steps="64" muted="0" pos="4032">
                <note vol="100" pan="0" key="57" pos="732" len="-192"/>
                <note vol="100" pan="0" key="57" pos="744" len="-192"/>
                <note vol="100" pan="0" key="57" pos="756" len="-192"/>
              </pattern>
              <pattern type="0" name="" steps="64" muted="0" pos="4224">
                <note vol="100" pan="0" key="57" pos="732" len="-192"/>
                <note vol="100" pan="0" key="57" pos="744" len="-192"/>
                <note vol="100" pan="0" key="57" pos="756" len="-192"/>
              </pattern>
              <pattern type="0" name="" steps="32" muted="0" pos="4416"/>
              <pattern type="0" name="" steps="32" muted="0" pos="4608">
                <note vol="100" pan="0" key="57" pos="168" len="-192"/>
                <note vol="100" pan="0" key="57" pos="180" len="-192"/>
              </pattern>
              <pattern type="0" name="" steps="16" muted="0" pos="4800">
                <note vol="100" pan="0" key="57" pos="168" len="-192"/>
                <note vol="100" pan="0" key="57" pos="180" len="-192"/>
              </pattern>
              <pattern type="0" name="" steps="32" muted="0" pos="4992">
                <note vol="100" pan="0" key="57" pos="48" len="-192"/>
                <note vol="100" pan="0" key="57" pos="60" len="-192"/>
                <note vol="100" pan="0" key="57" pos="120" len="-192"/>
                <note vol="100" pan="0" key="57" pos="168" len="-192"/>
                <note vol="100" pan="0" key="57" pos="264" len="-192"/>
                <note vol="100" pan="0" key="57" pos="276" len="-192"/>
              </pattern>
              <pattern type="0" name="" steps="64" muted="0" pos="5184"/>
              <pattern type="0" name="" steps="64" muted="0" pos="5376"/>
              <pattern type="0" name="" steps="64" muted="0" pos="5568"/>
              <pattern type="0" name="" steps="128" muted="0" pos="5760"/>
              <pattern type="0" name="" steps="16" muted="0" pos="5952">
                <note vol="100" pan="0" key="57" pos="108" len="-192"/>
                <note vol="100" pan="0" key="57" pos="120" len="-192"/>
                <note vol="100" pan="0" key="57" pos="132" len="-192"/>
              </pattern>
              <pattern type="0" name="" steps="64" muted="0" pos="6144"/>
              <pattern type="0" name="" steps="16" muted="0" pos="6336">
                <note vol="100" pan="0" key="57" pos="168" len="-192"/>
                <note vol="100" pan="0" key="57" pos="180" len="-192"/>
              </pattern>
              <pattern type="0" name="" steps="16" muted="0" pos="6528"/>
              <pattern type="0" name="" steps="16" muted="0" pos="6720"/>
              <pattern type="0" name="" steps="64" muted="0" pos="6912">
                <note vol="100" pan="0" key="57" pos="36" len="-192"/>
                <note vol="100" pan="0" key="57" pos="84" len="-192"/>
                <note vol="100" pan="0" key="57" pos="132" len="-192"/>
                <note vol="100" pan="0" key="57" pos="180" len="-192"/>
                <note vol="100" pan="0" key="57" pos="360" len="-192"/>
                <note vol="100" pan="0" key="57" pos="372" len="-192"/>
                <note vol="100" pan="0" key="57" pos="384" len="-192"/>
                <note vol="100" pan="0" key="57" pos="396" len="-192"/>
                <note vol="100" pan="0" key="57" pos="432" len="-192"/>
                <note vol="100" pan="0" key="57" pos="444" len="-192"/>
                <note vol="100" pan="0" key="57" pos="456" len="-192"/>
                <note vol="100" pan="0" key="57" pos="468" len="-192"/>
                <note vol="100" pan="0" key="57" pos="516" len="-192"/>
              </pattern>
            </track>
          </trackcontainer>
        </bbtrack>
        <bbtco name="" muted="0" pos="384" len="768"/>
      </track>
      <track type="1" name="Clone of intro1" solo="0" muted="0" mutedBeforeSolo="0">
        <bbtrack/>
        <bbtco name="" muted="0" pos="1152" len="768"/>
      </track>
      <track type="1" name="intro2" solo="0" muted="0" mutedBeforeSolo="0">
        <bbtrack/>
        <bbtco name="" muted="0" pos="1920" len="1152"/>
      </track>
      <track type="1" name="bootcamp1" solo="0" muted="0" mutedBeforeSolo="0">
        <bbtrack/>
        <bbtco name="" muted="0" pos="9600" len="1536"/>
        <bbtco name="" muted="0" pos="17280" len="1344"/>
        <bbtco name="" muted="0" pos="41088" len="1152"/>
        <bbtco name="" muted="0" pos="45696" len="1344"/>
      </track>
      <track type="1" name="fill1" solo="0" muted="0" mutedBeforeSolo="0">
        <bbtrack/>
      </track>
      <track type="1" name="Clone of bootcamp1" solo="0" muted="0" mutedBeforeSolo="0">
        <bbtrack/>
        <bbtco name="" muted="0" pos="4992" len="1536"/>
        <bbtco name="" muted="0" pos="14976" len="768"/>
        <bbtco name="" muted="0" pos="36480" len="1536"/>
      </track>
      <track type="1" name="Clone of Clone of bootcamp1" solo="0" muted="0" mutedBeforeSolo="0">
        <bbtrack/>
        <bbtco name="" muted="0" pos="38784" len="576"/>
      </track>
      <track type="1" name="kick/mutecrash" solo="0" muted="0" mutedBeforeSolo="0">
        <bbtrack/>
        <bbtco name="" muted="0" pos="12672" len="384"/>
      </track>
      <track type="1" name="Beat/Bassline 6" solo="0" muted="0" mutedBeforeSolo="0">
        <bbtrack/>
        <bbtco name="" muted="0" pos="6528" len="768"/>
        <bbtco name="" muted="0" pos="14208" len="768"/>
        <bbtco name="" muted="0" pos="38016" len="768"/>
      </track>
      <track type="1" name="Clone of Beat/Bassline 6" solo="0" muted="0" mutedBeforeSolo="0">
        <bbtrack/>
        <bbtco name="" muted="0" pos="8064" len="1152"/>
        <bbtco name="" muted="0" pos="15744" len="1152"/>
        <bbtco name="" muted="0" pos="20352" len="1344"/>
        <bbtco name="" muted="0" pos="31872" len="2688"/>
        <bbtco name="" muted="0" pos="44160" len="1152"/>
      </track>
      <track type="1" name="Clone of Clone of Beat/Bassline 6" solo="0" muted="0" mutedBeforeSolo="0">
        <bbtrack/>
        <bbtco name="" muted="0" pos="34560" len="384"/>
      </track>
      <track type="1" name="Clone of Clone of Beat/Bassline 6" solo="0" muted="0" mutedBeforeSolo="0">
        <bbtrack/>
        <bbtco name="" muted="0" pos="59520" len="3072"/>
      </track>
      <track type="1" name="Clone of Clone of Beat/Bassline 6" solo="0" muted="0" mutedBeforeSolo="0">
        <bbtrack/>
        <bbtco name="" muted="0" pos="9216" len="384"/>
        <bbtco name="" muted="0" pos="16896" len="384"/>
        <bbtco name="" muted="0" pos="40704" len="384"/>
        <bbtco name="" muted="0" pos="45312" len="384"/>
      </track>
      <track type="5" name="Automation track" solo="0" muted="0" mutedBeforeSolo="0">
        <automationtrack/>
      </track>
      <track type="1" name="Beat/Bassline 11" solo="0" muted="0" mutedBeforeSolo="0">
        <bbtrack/>
        <bbtco name="" muted="0" pos="4224" len="576"/>
        <bbtco name="" muted="0" pos="11136" len="1536"/>
        <bbtco name="" muted="0" pos="7296" len="576"/>
        <bbtco name="" muted="0" pos="18816" len="1344"/>
        <bbtco name="" muted="0" pos="35712" len="768"/>
        <bbtco name="" muted="0" pos="39552" len="1152"/>
        <bbtco name="" muted="0" pos="47232" len="2880"/>
        <bbtco name="" muted="0" pos="63360" len="384"/>
      </track>
      <track type="1" name="Clone of Beat/Bassline 11" solo="0" muted="0" mutedBeforeSolo="0">
        <bbtrack/>
        <bbtco name="" muted="0" pos="53376" len="2688"/>
      </track>
      <track type="1" name="Beat/Bassline 18" solo="0" muted="0" mutedBeforeSolo="0">
        <bbtrack/>
        <bbtco name="" muted="0" pos="20160" len="192"/>
      </track>
      <track type="1" name="Beat/Bassline 12" solo="0" muted="0" mutedBeforeSolo="0">
        <bbtrack/>
        <bbtco name="" muted="0" pos="4800" len="192"/>
        <bbtco name="" muted="0" pos="21696" len="192"/>
      </track>
      <track type="1" name="Beat/Bassline 19" solo="0" muted="0" mutedBeforeSolo="0">
        <bbtrack/>
        <bbtco name="" muted="0" pos="18624" len="192"/>
      </track>
      <track type="5" name="rgt pitch" solo="0" muted="0" mutedBeforeSolo="0">
        <automationtrack/>
        <automationpattern mute="0" name="AM pitchshifter>>>Pitch shift" prog="2" tens="1" pos="13440" len="384">
          <time value="1.09031" pos="0"/>
          <time value="2.28938" pos="96"/>
          <time value="1.21734" pos="192"/>
          <time value="2.76844" pos="384"/>
          <object id="7309738"/>
        </automationpattern>
        <automationpattern mute="0" name="AM pitchshifter>>>Pitch shift" prog="0" tens="1" pos="11904" len="192">
          <time value="2.32734" pos="0"/>
          <object id="7309738"/>
        </automationpattern>
        <automationpattern mute="0" name="AM pitchshifter>>>Pitch shift" prog="0" tens="1" pos="13824" len="192">
          <time value="2.32734" pos="0"/>
          <object id="7309738"/>
        </automationpattern>
        <automationpattern mute="0" name="AM pitchshifter>>>Pitch shift" prog="0" tens="1" pos="0" len="192">
          <time value="2.32734" pos="0"/>
          <object id="7309738"/>
        </automationpattern>
      </track>
      <track type="5" name="lgt pitch" solo="0" muted="0" mutedBeforeSolo="0">
        <automationtrack/>
        <automationpattern mute="0" name="Tempo" prog="0" tens="1" pos="0" len="192">
          <time value="201" pos="0"/>
          <object id="2356958"/>
        </automationpattern>
        <automationpattern mute="0" name="AM pitchshifter>>>Pitch shift" prog="0" tens="1" pos="31680" len="192">
          <time value="2.32441" pos="0"/>
          <object id="485849"/>
        </automationpattern>
        <automationpattern mute="0" name="AM pitchshifter>>>Pitch shift" prog="2" tens="1" pos="31872" len="384">
          <time value="1.34484" pos="0"/>
          <time value="2.74078" pos="24"/>
          <time value="1.31766" pos="240"/>
          <time value="0.25" pos="384"/>
          <object id="485849"/>
        </automationpattern>
        <automationpattern mute="0" name="AM pitchshifter>>>Pitch shift" prog="0" tens="1" pos="32256" len="192">
          <time value="2.32441" pos="0"/>
          <object id="485849"/>
        </automationpattern>
        <automationpattern mute="0" name="AM pitchshifter>>>Pitch shift" prog="2" tens="1" pos="64320" len="192">
          <time value="1.34484" pos="0"/>
          <time value="2.66859" pos="24"/>
          <time value="1.62469" pos="216"/>
          <object id="485849"/>
        </automationpattern>
      </track>
      <track type="5" name="lgt pitch on/off" solo="0" muted="0" mutedBeforeSolo="0">
        <automationtrack/>
        <automationpattern mute="0" name="AM pitchshifter>Effect enabled" prog="0" tens="1" pos="31680" len="192">
          <time value="1" pos="0"/>
          <object id="2786011"/>
        </automationpattern>
        <automationpattern mute="0" name="AM pitchshifter>Effect enabled" prog="0" tens="1" pos="32256" len="192">
          <time value="0" pos="0"/>
          <object id="2786011"/>
        </automationpattern>
        <automationpattern mute="0" name="AM pitchshifter>Effect enabled" prog="0" tens="1" pos="0" len="192">
          <time value="0" pos="0"/>
          <object id="2786011"/>
        </automationpattern>
        <automationpattern mute="0" name="AM pitchshifter>Effect enabled" prog="0" tens="1" pos="64320" len="192">
          <time value="1" pos="0"/>
          <object id="2786011"/>
        </automationpattern>
        <automationpattern mute="0" name="AM pitchshifter>Effect enabled" prog="0" tens="1" pos="64704" len="192">
          <time value="0" pos="0"/>
          <object id="2786011"/>
        </automationpattern>
        <automationpattern mute="0" name="AM pitchshifter>>>Pitch shift" prog="0" tens="1" pos="12672" len="192">
          <time value="0.25" pos="0"/>
          <object id="7309738"/>
          <object id="4844454"/>
        </automationpattern>
        <automationpattern mute="0" name="AM pitchshifter>>>Pitch shift" prog="0" tens="1" pos="192" len="192">
          <time value="2.32734" pos="0"/>
          <object id="7309738"/>
          <object id="4844454"/>
        </automationpattern>
        <automationpattern mute="0" name="AM pitchshifter>>>Pitch shift" prog="0" tens="1" pos="13824" len="192">
          <time value="2.32734" pos="0"/>
          <object id="7309738"/>
          <object id="4844454"/>
        </automationpattern>
      </track>
      <track type="5" name="rgt pitch" solo="0" muted="0" mutedBeforeSolo="0">
        <automationtrack/>
        <automationpattern mute="0" name="AM pitchshifter>>>Pitch shift" prog="2" tens="1" pos="13440" len="384">
          <time value="1.09031" pos="0"/>
          <time value="2.28938" pos="96"/>
          <time value="1.21734" pos="192"/>
          <time value="2.76844" pos="384"/>
          <object id="7309738"/>
        </automationpattern>
        <automationpattern mute="0" name="AM pitchshifter>>>Pitch shift" prog="0" tens="1" pos="13248" len="192">
          <time value="2.32734" pos="0"/>
          <object id="7309738"/>
        </automationpattern>
        <automationpattern mute="0" name="AM pitchshifter>>>Pitch shift" prog="0" tens="1" pos="13824" len="192">
          <time value="2.32734" pos="0"/>
          <object id="7309738"/>
        </automationpattern>
        <automationpattern mute="0" name="AM pitchshifter>>>Pitch shift" prog="0" tens="1" pos="0" len="192">
          <time value="2.32734" pos="0"/>
          <object id="7309738"/>
        </automationpattern>
      </track>
      <track type="5" name="lgt pitch" solo="0" muted="0" mutedBeforeSolo="0">
        <automationtrack/>
        <automationpattern mute="0" name="Tempo" prog="0" tens="1" pos="0" len="192">
          <time value="201" pos="0"/>
          <object id="2356958"/>
        </automationpattern>
        <automationpattern mute="0" name="AM pitchshifter>>>Pitch shift" prog="0" tens="1" pos="31680" len="192">
          <time value="2.32441" pos="0"/>
          <object id="485849"/>
        </automationpattern>
        <automationpattern mute="0" name="AM pitchshifter>>>Pitch shift" prog="2" tens="1" pos="31872" len="384">
          <time value="1.34484" pos="0"/>
          <time value="2.74078" pos="24"/>
          <time value="1.31766" pos="240"/>
          <time value="0.25" pos="384"/>
          <object id="485849"/>
        </automationpattern>
        <automationpattern mute="0" name="AM pitchshifter>>>Pitch shift" prog="0" tens="1" pos="32256" len="192">
          <time value="2.32441" pos="0"/>
          <object id="485849"/>
        </automationpattern>
      </track>
      <track type="5" name="lgt pitch on/off" solo="0" muted="0" mutedBeforeSolo="0">
        <automationtrack/>
        <automationpattern mute="0" name="AM pitchshifter>Effect enabled" prog="0" tens="1" pos="31872" len="192">
          <time value="1" pos="0"/>
          <object id="2786011"/>
        </automationpattern>
        <automationpattern mute="0" name="AM pitchshifter>Effect enabled" prog="0" tens="1" pos="32256" len="192">
          <time value="0" pos="0"/>
          <object id="2786011"/>
        </automationpattern>
        <automationpattern mute="0" name="AM pitchshifter>Effect enabled" prog="0" tens="1" pos="0" len="192">
          <time value="0" pos="0"/>
          <object id="2786011"/>
        </automationpattern>
      </track>
      <track type="1" name="Beat/Bassline 24" solo="0" muted="0" mutedBeforeSolo="0">
        <bbtrack/>
        <bbtco name="" muted="0" pos="43776" len="384"/>
      </track>
      <track type="1" name="Clone of Beat/Bassline 24" solo="0" muted="0" mutedBeforeSolo="0">
        <bbtrack/>
        <bbtco name="" muted="0" pos="50112" len="192"/>
      </track>
      <track type="1" name="Clone of Clone of Beat/Bassline 24" solo="0" muted="0" mutedBeforeSolo="0">
        <bbtrack/>
        <bbtco name="" muted="0" pos="56064" len="384"/>
        <bbtco name="" muted="0" pos="42240" len="192"/>
      </track>
      <track type="0" name="Rhythm Guitar" solo="0" muted="1" mutedBeforeSolo="0">
        <instrumenttrack usemasterpitch="1" pitchrange="1" pitch="0" vol="200" basenote="57" pan="0" fxch="12">
          <instrument name="carlapatchbay">
            <carlapatchbay>
              <CARLA-PROJECT VERSION="2.2">
                <EngineSettings>
                  <ForceStereo>false</ForceStereo>
                  <PreferPluginBridges>false</PreferPluginBridges>
                  <PreferUiBridges>true</PreferUiBridges>
                  <UIsAlwaysOnTop>false</UIsAlwaysOnTop>
                  <MaxParameters>200</MaxParameters>
                  <UIBridgesTimeout>4000</UIBridgesTimeout>
                  <LADSPA_PATH>/home/pass/.ladspa:/usr/lib/ladspa:/usr/local/lib/ladspa</LADSPA_PATH>
                  <DSSI_PATH>/home/pass/.dssi:/usr/lib/dssi:/usr/local/lib/dssi</DSSI_PATH>
                  <LV2_PATH>/home/pass/.lv2:/usr/lib/lv2:/usr/local/lib/lv2</LV2_PATH>
                  <VST2_PATH>/home/pass/.vst:/home/pass/.wine/drive_c/Program Files (x86)/VstPlugins:/home/pass/.wine/drive_c/Program Files/VstPlugins:/home/pass/vst:/usr/lib/lxvst:/usr/lib/vst:/usr/local/lib/lxvst:/usr/local/lib/vst/home/pass/.lxvst</VST2_PATH>
                  <VST3_PATH>/home/pass/.vst3:/home/pass/.wine/drive_c/Program Files (x86)/Common Files/VST3:/home/pass/.wine/drive_c/Program Files/Common Files/VST3:/usr/lib/vst3:/usr/local/lib/vst3</VST3_PATH>
                  <SF2_PATH>/home/pass/.sounds/sf2/home/pass/.sounds/sf3:/usr/share/soundfonts:/usr/share/sounds/sf2:/usr/share/sounds/sf3</SF2_PATH>
                  <SFZ_PATH>/home/pass/.sounds/sfz:/home/pass/samples:/usr/share/sounds/sfz</SFZ_PATH>
                </EngineSettings>
                <!-- sfizz -->
                <Plugin>
                  <Info>
                    <Type>LV2</Type>
                    <Name>sfizz</Name>
                    <URI>http://sfztools.github.io/sfizz</URI>
                  </Info>
                  <Data>
                    <Active>Yes</Active>
                    <ControlChannel>1</ControlChannel>
                    <Options>0x3f0</Options>
                    <Parameter>
                      <Index>0</Index>
                      <Name>Volume</Name>
                      <Symbol>volume</Symbol>
                      <Value>0</Value>
                    </Parameter>
                    <Parameter>
                      <Index>1</Index>
                      <Name>Polyphony</Name>
                      <Symbol>num_voices</Symbol>
                      <Value>64</Value>
                    </Parameter>
                    <Parameter>
                      <Index>2</Index>
                      <Name>Internal oversampling factor</Name>
                      <Symbol>oversampling</Symbol>
                      <Value>1</Value>
                    </Parameter>
                    <Parameter>
                      <Index>3</Index>
                      <Name>Preload size</Name>
                      <Symbol>preload_size</Symbol>
                      <Value>8192</Value>
                    </Parameter>
                    <Parameter>
                      <Index>5</Index>
                      <Name>Scala root key</Name>
                      <Symbol>scala_root_key</Symbol>
                      <Value>60</Value>
                    </Parameter>
                    <Parameter>
                      <Index>6</Index>
                      <Name>Tuning frequency</Name>
                      <Symbol>tuning_frequency</Symbol>
                      <Value>440</Value>
                    </Parameter>
                    <Parameter>
                      <Index>7</Index>
                      <Name>Stretched tuning</Name>
                      <Symbol>stretched_tuning</Symbol>
                      <Value>0</Value>
                    </Parameter>
                    <CustomData>
                      <Type>http://lv2plug.in/ns/ext/atom#Path</Type>
                      <Key>http://sfztools.github.io/sfizz:sfzfile</Key>
                      <Value>_fakeguitar1_integrated.sfz</Value>
                    </CustomData>
                    <CustomData>
                      <Type>http://lv2plug.in/ns/ext/atom#Int</Type>
                      <Key>http://sfztools.github.io/sfizz:numvoices</Key>
                      <Value>QAAAAA==</Value>
                    </CustomData>
                    <CustomData>
                      <Type>http://lv2plug.in/ns/ext/atom#Int</Type>
                      <Key>http://sfztools.github.io/sfizz:preload_size</Key>
                      <Value>ACAAAA==</Value>
                    </CustomData>
                    <CustomData>
                      <Type>http://lv2plug.in/ns/ext/atom#Int</Type>
                      <Key>http://sfztools.github.io/sfizz:oversampling</Key>
                      <Value>AQAAAA==</Value>
                    </CustomData>
                    <CustomData>
                      <Type>http://lv2plug.in/ns/ext/atom#Path</Type>
                      <Key>http://sfztools.github.io/sfizz:tuningfile</Key>
                      <Value>DefaultScale.scl</Value>
                    </CustomData>
                  </Data>
                </Plugin>
                <!-- sfizz -->
                <Plugin>
                  <Info>
                    <Type>LV2</Type>
                    <Name>sfizz (2)</Name>
                    <URI>http://sfztools.github.io/sfizz</URI>
                  </Info>
                  <Data>
                    <Active>Yes</Active>
                    <ControlChannel>1</ControlChannel>
                    <Options>0x3f0</Options>
                    <Parameter>
                      <Index>0</Index>
                      <Name>Volume</Name>
                      <Symbol>volume</Symbol>
                      <Value>0</Value>
                    </Parameter>
                    <Parameter>
                      <Index>1</Index>
                      <Name>Polyphony</Name>
                      <Symbol>num_voices</Symbol>
                      <Value>64</Value>
                    </Parameter>
                    <Parameter>
                      <Index>2</Index>
                      <Name>Internal oversampling factor</Name>
                      <Symbol>oversampling</Symbol>
                      <Value>1</Value>
                    </Parameter>
                    <Parameter>
                      <Index>3</Index>
                      <Name>Preload size</Name>
                      <Symbol>preload_size</Symbol>
                      <Value>8192</Value>
                    </Parameter>
                    <Parameter>
                      <Index>5</Index>
                      <Name>Scala root key</Name>
                      <Symbol>scala_root_key</Symbol>
                      <Value>60</Value>
                    </Parameter>
                    <Parameter>
                      <Index>6</Index>
                      <Name>Tuning frequency</Name>
                      <Symbol>tuning_frequency</Symbol>
                      <Value>440</Value>
                    </Parameter>
                    <Parameter>
                      <Index>7</Index>
                      <Name>Stretched tuning</Name>
                      <Symbol>stretched_tuning</Symbol>
                      <Value>0</Value>
                    </Parameter>
                    <CustomData>
                      <Type>http://lv2plug.in/ns/ext/atom#Path</Type>
                      <Key>http://sfztools.github.io/sfizz:sfzfile</Key>
                      <Value>_fakeguitar2_integrated.sfz</Value>
                    </CustomData>
                    <CustomData>
                      <Type>http://lv2plug.in/ns/ext/atom#Int</Type>
                      <Key>http://sfztools.github.io/sfizz:numvoices</Key>
                      <Value>QAAAAA==</Value>
                    </CustomData>
                    <CustomData>
                      <Type>http://lv2plug.in/ns/ext/atom#Int</Type>
                      <Key>http://sfztools.github.io/sfizz:preload_size</Key>
                      <Value>ACAAAA==</Value>
                    </CustomData>
                    <CustomData>
                      <Type>http://lv2plug.in/ns/ext/atom#Int</Type>
                      <Key>http://sfztools.github.io/sfizz:oversampling</Key>
                      <Value>AQAAAA==</Value>
                    </CustomData>
                    <CustomData>
                      <Type>http://lv2plug.in/ns/ext/atom#Path</Type>
                      <Key>http://sfztools.github.io/sfizz:tuningfile</Key>
                      <Value>DefaultScale.scl</Value>
                    </CustomData>
                  </Data>
                </Plugin>
                <Patchbay>
                  <Connection>
                    <Source>Midi Input:Capture 1</Source>
                    <Target>sfizz:events-in</Target>
                  </Connection>
                  <Connection>
                    <Source>sfizz:Left Output</Source>
                    <Target>Audio Output:Left</Target>
                  </Connection>
                  <Connection>
                    <Source>sfizz:Right Output</Source>
                    <Target>Audio Output:Left</Target>
                  </Connection>
                  <Connection>
                    <Source>Midi Input:Capture 1</Source>
                    <Target>sfizz (2):events-in</Target>
                  </Connection>
                  <Connection>
                    <Source>sfizz (2):Right Output</Source>
                    <Target>Audio Output:Right</Target>
                  </Connection>
                  <Connection>
                    <Source>sfizz (2):Left Output</Source>
                    <Target>Audio Output:Right</Target>
                  </Connection>
                  <Positions>
                    <Position y1="1350" x1="1711" pluginId="1">
                      <Name>sfizz (2)</Name>
                    </Position>
                    <Position y1="1297" x1="1704" pluginId="0">
                      <Name>sfizz</Name>
                    </Position>
                  </Positions>
                </Patchbay>
              </CARLA-PROJECT>
              <key/>
            </carlapatchbay>
          </instrument>
          <eldata fwet="0" fres="0.5" ftype="0" fcut="14000">
            <elvol x100="0" lspd_numerator="4" amt="0" lspd="0.1" lpdel="0" dec="0.5" lspd_syncmode="0" att="0" ctlenvamt="0" pdel="0" latt="0" sustain="0.5" lspd_denominator="4" hold="0.5" lamt="0" userwavefile="" lshp="0" rel="0.1"/>
            <elcut x100="0" lspd_numerator="4" amt="0" lspd="0.1" lpdel="0" dec="0.5" lspd_syncmode="0" att="0" ctlenvamt="0" pdel="0" latt="0" sustain="0.5" lspd_denominator="4" hold="0.5" lamt="0" userwavefile="" lshp="0" rel="0.1"/>
            <elres x100="0" lspd_numerator="4" amt="0" lspd="0.1" lpdel="0" dec="0.5" lspd_syncmode="0" att="0" ctlenvamt="0" pdel="0" latt="0" sustain="0.5" lspd_denominator="4" hold="0.5" lamt="0" userwavefile="" lshp="0" rel="0.1"/>
          </eldata>
          <chordcreator chordrange="1" chord="0" chord-enabled="0"/>
          <arpeggiator arprange="1" arptime_syncmode="0" arpskip="0" arpmiss="0" arptime="200" arpdir="0" arpmode="0" arptime_denominator="4" arp-enabled="0" arp="0" arpgate="100" arpcycle="0" arptime_numerator="4"/>
          <midiport inputcontroller="0" outputcontroller="0" outputprogram="1" basevelocity="127" outputchannel="1" writable="0" inputchannel="0" readable="0" fixedinputvelocity="-1" fixedoutputvelocity="-1" fixedoutputnote="-1"/>
          <fxchain numofeffects="0" enabled="1"/>
        </instrumenttrack>
        <pattern type="1" name="" steps="16" muted="0" pos="384">
          <note vol="191" pan="0" key="44" pos="0" len="384"/>
          <note vol="191" pan="0" key="37" pos="0" len="384"/>
          <note vol="191" pan="0" key="0" pos="0" len="48"/>
          <note vol="193" pan="0" key="51" pos="384" len="384"/>
          <note vol="193" pan="0" key="44" pos="384" len="384"/>
          <note vol="193" pan="0" key="46" pos="768" len="384"/>
          <note vol="193" pan="0" key="39" pos="768" len="384"/>
          <note vol="193" pan="0" key="45" pos="1152" len="336"/>
          <note vol="193" pan="0" key="38" pos="1152" len="336"/>
          <note vol="193" pan="0" key="1" pos="1476" len="12"/>
          <note vol="193" pan="0" key="38" pos="1488" len="12"/>
          <note vol="193" pan="0" key="38" pos="1500" len="12"/>
          <note vol="193" pan="0" key="38" pos="1512" len="12"/>
          <note vol="193" pan="0" key="38" pos="1524" len="12"/>
        </pattern>
        <pattern type="1" name="" steps="16" muted="0" pos="1920">
          <note vol="78" pan="0" key="44" pos="0" len="36"/>
          <note vol="78" pan="0" key="37" pos="0" len="36"/>
          <note vol="78" pan="0" key="1" pos="0" len="24"/>
          <note vol="78" pan="0" key="44" pos="72" len="36"/>
          <note vol="78" pan="0" key="37" pos="72" len="36"/>
          <note vol="78" pan="0" key="44" pos="144" len="36"/>
          <note vol="78" pan="0" key="37" pos="144" len="36"/>
          <note vol="78" pan="0" key="44" pos="216" len="36"/>
          <note vol="78" pan="0" key="37" pos="216" len="36"/>
          <note vol="78" pan="0" key="44" pos="288" len="24"/>
          <note vol="78" pan="0" key="37" pos="288" len="24"/>
          <note vol="78" pan="0" key="0" pos="300" len="24"/>
          <note vol="78" pan="0" key="44" pos="312" len="48"/>
          <note vol="78" pan="0" key="37" pos="312" len="48"/>
          <note vol="78" pan="0" key="1" pos="336" len="24"/>
          <note vol="78" pan="0" key="44" pos="360" len="24"/>
          <note vol="78" pan="0" key="37" pos="360" len="24"/>
          <note vol="78" pan="0" key="51" pos="384" len="36"/>
          <note vol="78" pan="0" key="44" pos="384" len="36"/>
          <note vol="78" pan="0" key="51" pos="456" len="36"/>
          <note vol="78" pan="0" key="44" pos="456" len="36"/>
          <note vol="78" pan="0" key="51" pos="528" len="36"/>
          <note vol="78" pan="0" key="44" pos="528" len="36"/>
          <note vol="78" pan="0" key="51" pos="600" len="36"/>
          <note vol="78" pan="0" key="44" pos="600" len="36"/>
          <note vol="78" pan="0" key="51" pos="672" len="24"/>
          <note vol="78" pan="0" key="44" pos="672" len="24"/>
          <note vol="78" pan="0" key="0" pos="684" len="24"/>
          <note vol="78" pan="0" key="51" pos="696" len="48"/>
          <note vol="78" pan="0" key="44" pos="696" len="48"/>
          <note vol="78" pan="0" key="1" pos="720" len="24"/>
          <note vol="78" pan="0" key="51" pos="744" len="24"/>
          <note vol="78" pan="0" key="44" pos="744" len="24"/>
          <note vol="78" pan="0" key="46" pos="768" len="36"/>
          <note vol="78" pan="0" key="39" pos="768" len="36"/>
          <note vol="78" pan="0" key="46" pos="840" len="36"/>
          <note vol="78" pan="0" key="39" pos="840" len="36"/>
          <note vol="78" pan="0" key="46" pos="912" len="36"/>
          <note vol="78" pan="0" key="39" pos="912" len="36"/>
          <note vol="78" pan="0" key="46" pos="984" len="36"/>
          <note vol="78" pan="0" key="39" pos="984" len="36"/>
          <note vol="78" pan="0" key="46" pos="1056" len="24"/>
          <note vol="78" pan="0" key="39" pos="1056" len="24"/>
          <note vol="78" pan="0" key="0" pos="1068" len="24"/>
          <note vol="78" pan="0" key="46" pos="1080" len="48"/>
          <note vol="78" pan="0" key="39" pos="1080" len="48"/>
          <note vol="78" pan="0" key="1" pos="1116" len="24"/>
          <note vol="78" pan="0" key="46" pos="1128" len="24"/>
          <note vol="78" pan="0" key="39" pos="1128" len="24"/>
          <note vol="78" pan="0" key="0" pos="1140" len="12"/>
          <note vol="78" pan="0" key="45" pos="1152" len="24"/>
          <note vol="78" pan="0" key="38" pos="1152" len="24"/>
          <note vol="78" pan="0" key="0" pos="1164" len="12"/>
          <note vol="78" pan="0" key="38" pos="1176" len="12"/>
          <note vol="78" pan="0" key="38" pos="1188" len="12"/>
          <note vol="78" pan="0" key="38" pos="1200" len="12"/>
          <note vol="78" pan="0" key="38" pos="1212" len="12"/>
          <note vol="78" pan="0" key="45" pos="1224" len="24"/>
          <note vol="78" pan="0" key="38" pos="1224" len="24"/>
          <note vol="78" pan="0" key="0" pos="1224" len="12"/>
          <note vol="78" pan="0" key="1" pos="1236" len="12"/>
          <note vol="78" pan="0" key="38" pos="1248" len="12"/>
          <note vol="78" pan="0" key="38" pos="1260" len="12"/>
          <note vol="78" pan="0" key="38" pos="1272" len="12"/>
          <note vol="78" pan="0" key="38" pos="1284" len="12"/>
          <note vol="78" pan="0" key="45" pos="1296" len="24"/>
          <note vol="78" pan="0" key="38" pos="1296" len="24"/>
          <note vol="78" pan="0" key="0" pos="1296" len="12"/>
          <note vol="78" pan="0" key="1" pos="1308" len="12"/>
          <note vol="78" pan="0" key="38" pos="1320" len="12"/>
          <note vol="78" pan="0" key="38" pos="1332" len="12"/>
          <note vol="78" pan="0" key="45" pos="1344" len="192"/>
          <note vol="78" pan="0" key="38" pos="1344" len="192"/>
          <note vol="78" pan="0" key="0" pos="1344" len="12"/>
        </pattern>
        <pattern type="1" name="" steps="16" muted="0" pos="3456">
          <note vol="197" pan="0" key="44" pos="0" len="192"/>
          <note vol="197" pan="0" key="37" pos="0" len="192"/>
          <note vol="78" pan="0" key="0" pos="0" len="48"/>
          <note vol="197" pan="0" key="51" pos="192" len="192"/>
          <note vol="197" pan="0" key="44" pos="192" len="192"/>
          <note vol="197" pan="0" key="52" pos="384" len="192"/>
          <note vol="197" pan="0" key="45" pos="384" len="192"/>
          <note vol="197" pan="0" key="54" pos="576" len="192"/>
          <note vol="197" pan="0" key="47" pos="576" len="192"/>
          <note vol="197" pan="0" key="1" pos="756" len="12"/>
          <note vol="197" pan="0" key="42" pos="768" len="12"/>
          <note vol="197" pan="0" key="42" pos="780" len="12"/>
          <note vol="197" pan="0" key="42" pos="792" len="12"/>
          <note vol="197" pan="0" key="42" pos="804" len="12"/>
          <note vol="197" pan="0" key="42" pos="816" len="12"/>
          <note vol="197" pan="0" key="42" pos="828" len="12"/>
          <note vol="197" pan="0" key="42" pos="840" len="12"/>
          <note vol="197" pan="0" key="42" pos="852" len="12"/>
          <note vol="197" pan="0" key="42" pos="864" len="12"/>
          <note vol="197" pan="0" key="42" pos="876" len="12"/>
          <note vol="197" pan="0" key="42" pos="888" len="12"/>
          <note vol="197" pan="0" key="42" pos="900" len="12"/>
          <note vol="197" pan="0" key="42" pos="912" len="12"/>
          <note vol="197" pan="0" key="42" pos="924" len="12"/>
          <note vol="197" pan="0" key="42" pos="936" len="12"/>
          <note vol="197" pan="0" key="42" pos="948" len="12"/>
          <note vol="197" pan="0" key="44" pos="960" len="12"/>
          <note vol="197" pan="0" key="44" pos="972" len="12"/>
          <note vol="197" pan="0" key="44" pos="984" len="12"/>
          <note vol="197" pan="0" key="44" pos="996" len="12"/>
          <note vol="197" pan="0" key="44" pos="1008" len="12"/>
          <note vol="197" pan="0" key="44" pos="1020" len="12"/>
          <note vol="197" pan="0" key="44" pos="1032" len="12"/>
          <note vol="197" pan="0" key="44" pos="1044" len="12"/>
          <note vol="197" pan="0" key="44" pos="1056" len="12"/>
          <note vol="197" pan="0" key="44" pos="1068" len="12"/>
          <note vol="197" pan="0" key="44" pos="1080" len="12"/>
          <note vol="197" pan="0" key="44" pos="1092" len="12"/>
          <note vol="197" pan="0" key="44" pos="1104" len="12"/>
          <note vol="197" pan="0" key="44" pos="1116" len="12"/>
          <note vol="197" pan="0" key="44" pos="1128" len="12"/>
          <note vol="197" pan="0" key="44" pos="1140" len="12"/>
          <note vol="197" pan="0" key="45" pos="1152" len="12"/>
          <note vol="197" pan="0" key="45" pos="1164" len="12"/>
          <note vol="197" pan="0" key="45" pos="1176" len="12"/>
          <note vol="197" pan="0" key="45" pos="1188" len="12"/>
          <note vol="197" pan="0" key="45" pos="1200" len="12"/>
          <note vol="197" pan="0" key="45" pos="1212" len="12"/>
          <note vol="197" pan="0" key="45" pos="1224" len="12"/>
          <note vol="197" pan="0" key="45" pos="1236" len="12"/>
          <note vol="197" pan="0" key="45" pos="1248" len="12"/>
          <note vol="197" pan="0" key="45" pos="1260" len="12"/>
          <note vol="197" pan="0" key="45" pos="1272" len="12"/>
          <note vol="197" pan="0" key="45" pos="1284" len="12"/>
          <note vol="197" pan="0" key="45" pos="1296" len="12"/>
          <note vol="197" pan="0" key="45" pos="1308" len="12"/>
          <note vol="197" pan="0" key="45" pos="1320" len="12"/>
          <note vol="197" pan="0" key="45" pos="1332" len="12"/>
          <note vol="197" pan="0" key="54" pos="1344" len="48"/>
          <note vol="197" pan="0" key="47" pos="1344" len="48"/>
          <note vol="197" pan="0" key="0" pos="1344" len="12"/>
          <note vol="197" pan="0" key="54" pos="1392" len="48"/>
          <note vol="197" pan="0" key="47" pos="1392" len="48"/>
          <note vol="197" pan="0" key="51" pos="1440" len="48"/>
          <note vol="197" pan="0" key="44" pos="1440" len="48"/>
          <note vol="197" pan="0" key="54" pos="1488" len="48"/>
          <note vol="197" pan="0" key="47" pos="1488" len="48"/>
        </pattern>
        <pattern type="1" name="" steps="16" muted="0" pos="4992">
          <note vol="197" pan="0" key="49" pos="0" len="24"/>
          <note vol="197" pan="0" key="0" pos="0" len="12"/>
          <note vol="197" pan="0" key="47" pos="24" len="24"/>
          <note vol="197" pan="0" key="49" pos="48" len="24"/>
          <note vol="197" pan="0" key="56" pos="72" len="24"/>
          <note vol="197" pan="0" key="1" pos="84" len="12"/>
          <note vol="197" pan="0" key="49" pos="96" len="12"/>
          <note vol="197" pan="0" key="49" pos="108" len="12"/>
          <note vol="197" pan="0" key="49" pos="120" len="12"/>
          <note vol="197" pan="0" key="49" pos="132" len="12"/>
          <note vol="197" pan="0" key="49" pos="144" len="12"/>
          <note vol="197" pan="0" key="49" pos="156" len="12"/>
          <note vol="197" pan="0" key="49" pos="168" len="12"/>
          <note vol="197" pan="0" key="49" pos="180" len="12"/>
        </pattern>
        <pattern type="1" name="" steps="16" muted="0" pos="5184">
          <note vol="197" pan="0" key="42" pos="0" len="24"/>
          <note vol="197" pan="0" key="0" pos="0" len="12"/>
          <note vol="197" pan="0" key="40" pos="24" len="24"/>
          <note vol="197" pan="0" key="42" pos="48" len="24"/>
          <note vol="197" pan="0" key="49" pos="72" len="24"/>
          <note vol="197" pan="0" key="1" pos="84" len="12"/>
          <note vol="197" pan="0" key="42" pos="96" len="12"/>
          <note vol="197" pan="0" key="42" pos="108" len="12"/>
          <note vol="197" pan="0" key="42" pos="120" len="12"/>
          <note vol="197" pan="0" key="42" pos="132" len="12"/>
          <note vol="197" pan="0" key="42" pos="144" len="12"/>
          <note vol="197" pan="0" key="42" pos="156" len="12"/>
          <note vol="197" pan="0" key="42" pos="168" len="12"/>
          <note vol="197" pan="0" key="42" pos="180" len="12"/>
        </pattern>
        <pattern type="1" name="" steps="16" muted="0" pos="5376">
          <note vol="78" pan="0" key="44" pos="0" len="24"/>
          <note vol="78" pan="0" key="1" pos="0" len="24"/>
          <note vol="78" pan="0" key="47" pos="24" len="24"/>
          <note vol="78" pan="0" key="44" pos="48" len="24"/>
          <note vol="78" pan="0" key="0" pos="60" len="24"/>
          <note vol="78" pan="0" key="51" pos="72" len="48"/>
          <note vol="78" pan="0" key="1" pos="108" len="24"/>
          <note vol="78" pan="0" key="44" pos="120" len="24"/>
          <note vol="78" pan="0" key="47" pos="144" len="24"/>
          <note vol="78" pan="0" key="51" pos="168" len="24"/>
          <note vol="78" pan="0" key="45" pos="192" len="12"/>
          <note vol="78" pan="0" key="45" pos="204" len="12"/>
          <note vol="78" pan="0" key="45" pos="216" len="12"/>
          <note vol="78" pan="0" key="45" pos="228" len="12"/>
          <note vol="78" pan="0" key="45" pos="240" len="12"/>
          <note vol="78" pan="0" key="45" pos="252" len="12"/>
          <note vol="78" pan="0" key="49" pos="264" len="12"/>
          <note vol="78" pan="0" key="49" pos="276" len="12"/>
          <note vol="78" pan="0" key="47" pos="288" len="12"/>
          <note vol="78" pan="0" key="47" pos="300" len="12"/>
          <note vol="78" pan="0" key="47" pos="312" len="12"/>
          <note vol="78" pan="0" key="47" pos="324" len="12"/>
          <note vol="78" pan="0" key="51" pos="336" len="12"/>
          <note vol="78" pan="0" key="51" pos="348" len="12"/>
          <note vol="78" pan="0" key="47" pos="360" len="12"/>
          <note vol="78" pan="0" key="47" pos="372" len="12"/>
        </pattern>
        <pattern type="1" name="" steps="16" muted="0" pos="5760">
          <note vol="197" pan="0" key="49" pos="0" len="24"/>
          <note vol="197" pan="0" key="0" pos="0" len="12"/>
          <note vol="197" pan="0" key="47" pos="24" len="24"/>
          <note vol="197" pan="0" key="49" pos="48" len="24"/>
          <note vol="197" pan="0" key="56" pos="72" len="24"/>
          <note vol="197" pan="0" key="1" pos="84" len="12"/>
          <note vol="197" pan="0" key="49" pos="96" len="12"/>
          <note vol="197" pan="0" key="49" pos="108" len="12"/>
          <note vol="197" pan="0" key="49" pos="120" len="12"/>
          <note vol="197" pan="0" key="49" pos="132" len="12"/>
          <note vol="197" pan="0" key="49" pos="144" len="12"/>
          <note vol="197" pan="0" key="49" pos="156" len="12"/>
          <note vol="197" pan="0" key="49" pos="168" len="12"/>
          <note vol="197" pan="0" key="49" pos="180" len="12"/>
        </pattern>
        <pattern type="1" name="" steps="16" muted="0" pos="5952">
          <note vol="197" pan="0" key="42" pos="0" len="24"/>
          <note vol="197" pan="0" key="0" pos="0" len="12"/>
          <note vol="197" pan="0" key="40" pos="24" len="24"/>
          <note vol="197" pan="0" key="42" pos="48" len="24"/>
          <note vol="197" pan="0" key="49" pos="72" len="24"/>
          <note vol="197" pan="0" key="1" pos="84" len="12"/>
          <note vol="197" pan="0" key="42" pos="96" len="12"/>
          <note vol="197" pan="0" key="42" pos="108" len="12"/>
          <note vol="197" pan="0" key="42" pos="120" len="12"/>
          <note vol="197" pan="0" key="42" pos="132" len="12"/>
          <note vol="197" pan="0" key="42" pos="144" len="12"/>
          <note vol="197" pan="0" key="42" pos="156" len="12"/>
          <note vol="197" pan="0" key="42" pos="168" len="12"/>
          <note vol="197" pan="0" key="42" pos="180" len="12"/>
        </pattern>
        <pattern type="1" name="" steps="16" muted="0" pos="6144">
          <note vol="78" pan="0" key="44" pos="0" len="24"/>
          <note vol="78" pan="0" key="1" pos="0" len="24"/>
          <note vol="78" pan="0" key="47" pos="24" len="24"/>
          <note vol="78" pan="0" key="44" pos="48" len="24"/>
          <note vol="78" pan="0" key="0" pos="60" len="24"/>
          <note vol="78" pan="0" key="51" pos="72" len="48"/>
          <note vol="78" pan="0" key="1" pos="108" len="24"/>
          <note vol="78" pan="0" key="44" pos="120" len="24"/>
          <note vol="78" pan="0" key="47" pos="144" len="24"/>
          <note vol="78" pan="0" key="51" pos="168" len="24"/>
          <note vol="78" pan="0" key="45" pos="192" len="12"/>
          <note vol="78" pan="0" key="45" pos="204" len="12"/>
          <note vol="78" pan="0" key="45" pos="216" len="12"/>
          <note vol="78" pan="0" key="45" pos="228" len="12"/>
          <note vol="78" pan="0" key="45" pos="240" len="12"/>
          <note vol="78" pan="0" key="45" pos="252" len="12"/>
          <note vol="78" pan="0" key="49" pos="264" len="12"/>
          <note vol="78" pan="0" key="49" pos="276" len="12"/>
          <note vol="78" pan="0" key="47" pos="288" len="12"/>
          <note vol="78" pan="0" key="47" pos="300" len="12"/>
          <note vol="78" pan="0" key="47" pos="312" len="12"/>
          <note vol="78" pan="0" key="47" pos="324" len="12"/>
          <note vol="78" pan="0" key="51" pos="336" len="12"/>
          <note vol="78" pan="0" key="51" pos="348" len="12"/>
          <note vol="78" pan="0" key="47" pos="360" len="12"/>
          <note vol="78" pan="0" key="47" pos="372" len="12"/>
        </pattern>
        <pattern type="1" name="" steps="16" muted="0" pos="6528">
          <note vol="197" pan="0" key="42" pos="0" len="48"/>
          <note vol="197" pan="0" key="35" pos="0" len="48"/>
          <note vol="78" pan="0" key="0" pos="0" len="48"/>
          <note vol="78" pan="0" key="1" pos="36" len="24"/>
          <note vol="197" pan="0" key="35" pos="48" len="12"/>
          <note vol="197" pan="0" key="35" pos="60" len="12"/>
          <note vol="197" pan="0" key="35" pos="72" len="24"/>
          <note vol="197" pan="0" key="35" pos="96" len="12"/>
          <note vol="197" pan="0" key="35" pos="108" len="12"/>
          <note vol="197" pan="0" key="35" pos="120" len="24"/>
          <note vol="197" pan="0" key="35" pos="144" len="12"/>
          <note vol="197" pan="0" key="35" pos="156" len="12"/>
          <note vol="197" pan="0" key="35" pos="168" len="24"/>
          <note vol="78" pan="0" key="0" pos="180" len="48"/>
          <note vol="197" pan="0" key="42" pos="192" len="48"/>
          <note vol="197" pan="0" key="35" pos="192" len="48"/>
          <note vol="78" pan="0" key="1" pos="228" len="48"/>
          <note vol="197" pan="0" key="35" pos="240" len="12"/>
          <note vol="197" pan="0" key="35" pos="252" len="12"/>
          <note vol="197" pan="0" key="35" pos="264" len="24"/>
          <note vol="197" pan="0" key="35" pos="288" len="12"/>
          <note vol="197" pan="0" key="35" pos="300" len="12"/>
          <note vol="197" pan="0" key="35" pos="312" len="24"/>
          <note vol="197" pan="0" key="35" pos="336" len="12"/>
          <note vol="197" pan="0" key="35" pos="348" len="12"/>
          <note vol="197" pan="0" key="35" pos="360" len="24"/>
          <note vol="78" pan="0" key="0" pos="372" len="48"/>
          <note vol="197" pan="0" key="52" pos="384" len="48"/>
          <note vol="197" pan="0" key="45" pos="384" len="48"/>
          <note vol="78" pan="0" key="1" pos="408" len="48"/>
          <note vol="197" pan="0" key="45" pos="432" len="12"/>
          <note vol="197" pan="0" key="45" pos="444" len="12"/>
          <note vol="197" pan="0" key="45" pos="456" len="24"/>
          <note vol="197" pan="0" key="45" pos="480" len="12"/>
          <note vol="197" pan="0" key="45" pos="492" len="12"/>
          <note vol="197" pan="0" key="45" pos="504" len="24"/>
          <note vol="197" pan="0" key="45" pos="528" len="12"/>
          <note vol="197" pan="0" key="45" pos="540" len="12"/>
          <note vol="197" pan="0" key="45" pos="552" len="24"/>
          <note vol="78" pan="0" key="0" pos="564" len="48"/>
          <note vol="197" pan="0" key="51" pos="576" len="48"/>
          <note vol="197" pan="0" key="44" pos="576" len="48"/>
          <note vol="78" pan="0" key="1" pos="612" len="48"/>
          <note vol="197" pan="0" key="44" pos="624" len="12"/>
          <note vol="197" pan="0" key="44" pos="636" len="12"/>
          <note vol="197" pan="0" key="44" pos="648" len="24"/>
          <note vol="197" pan="0" key="44" pos="672" len="12"/>
          <note vol="197" pan="0" key="44" pos="684" len="12"/>
          <note vol="197" pan="0" key="44" pos="696" len="12"/>
          <note vol="197" pan="0" key="44" pos="708" len="12"/>
          <note vol="197" pan="0" key="44" pos="720" len="12"/>
          <note vol="197" pan="0" key="44" pos="732" len="12"/>
          <note vol="197" pan="0" key="44" pos="744" len="24"/>
        </pattern>
        <pattern type="1" name="" steps="16" muted="0" pos="8064">
          <note vol="195" pan="0" key="44" pos="0" len="48"/>
          <note vol="195" pan="0" key="37" pos="0" len="48"/>
          <note vol="195" pan="0" key="0" pos="0" len="36"/>
          <note vol="195" pan="0" key="1" pos="36" len="36"/>
          <note vol="195" pan="0" key="37" pos="48" len="12"/>
          <note vol="195" pan="0" key="37" pos="60" len="12"/>
          <note vol="195" pan="0" key="37" pos="72" len="12"/>
          <note vol="195" pan="0" key="37" pos="84" len="12"/>
          <note vol="195" pan="0" key="37" pos="96" len="12"/>
          <note vol="195" pan="0" key="37" pos="108" len="12"/>
          <note vol="195" pan="0" key="37" pos="120" len="12"/>
          <note vol="195" pan="0" key="37" pos="132" len="12"/>
          <note vol="195" pan="0" key="37" pos="144" len="12"/>
          <note vol="195" pan="0" key="37" pos="156" len="12"/>
          <note vol="195" pan="0" key="37" pos="168" len="12"/>
          <note vol="195" pan="0" key="37" pos="180" len="12"/>
          <note vol="195" pan="0" key="0" pos="180" len="36"/>
          <note vol="195" pan="0" key="51" pos="192" len="48"/>
          <note vol="195" pan="0" key="44" pos="192" len="48"/>
          <note vol="195" pan="0" key="1" pos="216" len="36"/>
          <note vol="195" pan="0" key="44" pos="240" len="12"/>
          <note vol="195" pan="0" key="44" pos="252" len="12"/>
          <note vol="195" pan="0" key="44" pos="264" len="12"/>
          <note vol="195" pan="0" key="44" pos="276" len="12"/>
          <note vol="195" pan="0" key="44" pos="288" len="12"/>
          <note vol="195" pan="0" key="44" pos="300" len="12"/>
          <note vol="195" pan="0" key="44" pos="312" len="12"/>
          <note vol="195" pan="0" key="44" pos="324" len="12"/>
          <note vol="195" pan="0" key="44" pos="336" len="12"/>
          <note vol="195" pan="0" key="44" pos="348" len="12"/>
          <note vol="195" pan="0" key="44" pos="360" len="12"/>
          <note vol="195" pan="0" key="44" pos="372" len="12"/>
          <note vol="195" pan="0" key="0" pos="372" len="36"/>
          <note vol="195" pan="0" key="52" pos="384" len="48"/>
          <note vol="195" pan="0" key="45" pos="384" len="48"/>
          <note vol="195" pan="0" key="1" pos="408" len="36"/>
          <note vol="195" pan="0" key="45" pos="432" len="12"/>
          <note vol="195" pan="0" key="45" pos="444" len="12"/>
          <note vol="195" pan="0" key="45" pos="456" len="12"/>
          <note vol="195" pan="0" key="45" pos="468" len="12"/>
          <note vol="195" pan="0" key="45" pos="480" len="12"/>
          <note vol="195" pan="0" key="45" pos="492" len="12"/>
          <note vol="195" pan="0" key="45" pos="504" len="12"/>
          <note vol="195" pan="0" key="45" pos="516" len="12"/>
          <note vol="195" pan="0" key="45" pos="528" len="12"/>
          <note vol="195" pan="0" key="45" pos="540" len="12"/>
          <note vol="195" pan="0" key="45" pos="552" len="12"/>
          <note vol="195" pan="0" key="45" pos="564" len="12"/>
          <note vol="195" pan="0" key="0" pos="564" len="36"/>
          <note vol="195" pan="0" key="54" pos="576" len="48"/>
          <note vol="195" pan="0" key="47" pos="576" len="48"/>
          <note vol="195" pan="0" key="1" pos="600" len="36"/>
          <note vol="195" pan="0" key="47" pos="624" len="12"/>
          <note vol="195" pan="0" key="47" pos="636" len="12"/>
          <note vol="195" pan="0" key="47" pos="648" len="12"/>
          <note vol="195" pan="0" key="47" pos="660" len="12"/>
          <note vol="195" pan="0" key="47" pos="672" len="12"/>
          <note vol="195" pan="0" key="47" pos="684" len="12"/>
          <note vol="195" pan="0" key="47" pos="696" len="12"/>
          <note vol="195" pan="0" key="47" pos="708" len="12"/>
          <note vol="195" pan="0" key="47" pos="720" len="12"/>
          <note vol="195" pan="0" key="47" pos="732" len="12"/>
          <note vol="195" pan="0" key="47" pos="744" len="12"/>
          <note vol="195" pan="0" key="47" pos="756" len="12"/>
          <note vol="195" pan="0" key="49" pos="768" len="48"/>
          <note vol="195" pan="0" key="42" pos="768" len="48"/>
          <note vol="195" pan="0" key="0" pos="768" len="36"/>
          <note vol="195" pan="0" key="1" pos="792" len="36"/>
          <note vol="195" pan="0" key="42" pos="816" len="12"/>
          <note vol="195" pan="0" key="42" pos="828" len="12"/>
          <note vol="195" pan="0" key="42" pos="840" len="12"/>
          <note vol="195" pan="0" key="42" pos="852" len="12"/>
          <note vol="195" pan="0" key="42" pos="864" len="12"/>
          <note vol="195" pan="0" key="42" pos="876" len="12"/>
          <note vol="195" pan="0" key="42" pos="888" len="12"/>
          <note vol="195" pan="0" key="42" pos="900" len="12"/>
          <note vol="195" pan="0" key="42" pos="912" len="12"/>
          <note vol="195" pan="0" key="42" pos="924" len="12"/>
          <note vol="195" pan="0" key="42" pos="936" len="12"/>
          <note vol="195" pan="0" key="42" pos="948" len="12"/>
          <note vol="195" pan="0" key="0" pos="948" len="36"/>
          <note vol="195" pan="0" key="51" pos="960" len="48"/>
          <note vol="195" pan="0" key="44" pos="960" len="48"/>
          <note vol="195" pan="0" key="1" pos="984" len="36"/>
          <note vol="195" pan="0" key="44" pos="1008" len="12"/>
          <note vol="195" pan="0" key="44" pos="1020" len="12"/>
          <note vol="195" pan="0" key="44" pos="1032" len="12"/>
          <note vol="195" pan="0" key="44" pos="1044" len="12"/>
          <note vol="195" pan="0" key="44" pos="1056" len="12"/>
          <note vol="195" pan="0" key="44" pos="1068" len="12"/>
          <note vol="195" pan="0" key="44" pos="1080" len="12"/>
          <note vol="195" pan="0" key="44" pos="1092" len="12"/>
          <note vol="195" pan="0" key="44" pos="1104" len="12"/>
          <note vol="195" pan="0" key="44" pos="1116" len="12"/>
          <note vol="195" pan="0" key="44" pos="1128" len="12"/>
          <note vol="195" pan="0" key="44" pos="1140" len="12"/>
          <note vol="195" pan="0" key="0" pos="1140" len="36"/>
          <note vol="195" pan="0" key="52" pos="1152" len="48"/>
          <note vol="195" pan="0" key="45" pos="1152" len="48"/>
          <note vol="195" pan="0" key="1" pos="1176" len="36"/>
          <note vol="195" pan="0" key="45" pos="1200" len="12"/>
          <note vol="195" pan="0" key="45" pos="1212" len="12"/>
          <note vol="195" pan="0" key="45" pos="1224" len="12"/>
          <note vol="195" pan="0" key="45" pos="1236" len="12"/>
          <note vol="195" pan="0" key="45" pos="1248" len="12"/>
          <note vol="195" pan="0" key="45" pos="1260" len="12"/>
          <note vol="195" pan="0" key="45" pos="1272" len="12"/>
          <note vol="195" pan="0" key="45" pos="1284" len="12"/>
          <note vol="195" pan="0" key="45" pos="1296" len="12"/>
          <note vol="195" pan="0" key="45" pos="1308" len="12"/>
          <note vol="195" pan="0" key="45" pos="1320" len="12"/>
          <note vol="195" pan="0" key="45" pos="1332" len="12"/>
          <note vol="195" pan="0" key="0" pos="1332" len="36"/>
          <note vol="195" pan="0" key="54" pos="1344" len="48"/>
          <note vol="195" pan="0" key="47" pos="1344" len="48"/>
          <note vol="195" pan="0" key="1" pos="1368" len="36"/>
          <note vol="195" pan="0" key="47" pos="1392" len="12"/>
          <note vol="195" pan="0" key="47" pos="1404" len="12"/>
          <note vol="195" pan="0" key="47" pos="1416" len="12"/>
          <note vol="195" pan="0" key="47" pos="1428" len="12"/>
          <note vol="195" pan="0" key="48" pos="1440" len="12"/>
          <note vol="195" pan="0" key="48" pos="1452" len="12"/>
          <note vol="195" pan="0" key="48" pos="1464" len="12"/>
          <note vol="195" pan="0" key="1" pos="1464" len="36"/>
          <note vol="195" pan="0" key="48" pos="1476" len="12"/>
          <note vol="195" pan="0" key="48" pos="1488" len="12"/>
          <note vol="195" pan="0" key="48" pos="1500" len="12"/>
          <note vol="195" pan="0" key="48" pos="1512" len="12"/>
          <note vol="195" pan="0" key="48" pos="1524" len="12"/>
          <note vol="195" pan="0" key="0" pos="1524" len="36"/>
          <note vol="195" pan="0" key="44" pos="1536" len="48"/>
          <note vol="195" pan="0" key="37" pos="1536" len="48"/>
          <note vol="195" pan="0" key="1" pos="1560" len="36"/>
          <note vol="195" pan="0" key="37" pos="1584" len="12"/>
          <note vol="195" pan="0" key="37" pos="1596" len="12"/>
          <note vol="195" pan="0" key="37" pos="1608" len="12"/>
          <note vol="195" pan="0" key="37" pos="1620" len="12"/>
          <note vol="195" pan="0" key="37" pos="1632" len="12"/>
          <note vol="195" pan="0" key="37" pos="1644" len="12"/>
          <note vol="195" pan="0" key="37" pos="1656" len="12"/>
          <note vol="195" pan="0" key="37" pos="1668" len="12"/>
          <note vol="195" pan="0" key="37" pos="1680" len="12"/>
          <note vol="195" pan="0" key="37" pos="1692" len="12"/>
          <note vol="195" pan="0" key="37" pos="1704" len="12"/>
          <note vol="195" pan="0" key="37" pos="1716" len="12"/>
          <note vol="195" pan="0" key="0" pos="1716" len="36"/>
          <note vol="195" pan="0" key="54" pos="1728" len="48"/>
          <note vol="195" pan="0" key="47" pos="1728" len="48"/>
          <note vol="195" pan="0" key="1" pos="1752" len="36"/>
          <note vol="195" pan="0" key="47" pos="1776" len="12"/>
          <note vol="195" pan="0" key="47" pos="1788" len="12"/>
          <note vol="195" pan="0" key="47" pos="1800" len="12"/>
          <note vol="195" pan="0" key="47" pos="1812" len="12"/>
          <note vol="195" pan="0" key="47" pos="1824" len="12"/>
          <note vol="195" pan="0" key="47" pos="1836" len="12"/>
          <note vol="195" pan="0" key="47" pos="1848" len="12"/>
          <note vol="195" pan="0" key="47" pos="1860" len="12"/>
          <note vol="195" pan="0" key="47" pos="1872" len="12"/>
          <note vol="195" pan="0" key="47" pos="1884" len="12"/>
          <note vol="195" pan="0" key="47" pos="1896" len="12"/>
          <note vol="195" pan="0" key="47" pos="1908" len="12"/>
          <note vol="195" pan="0" key="0" pos="1908" len="36"/>
          <note vol="195" pan="0" key="54" pos="1920" len="48"/>
          <note vol="195" pan="0" key="46" pos="1920" len="48"/>
          <note vol="195" pan="0" key="1" pos="1944" len="36"/>
          <note vol="195" pan="0" key="46" pos="1968" len="12"/>
          <note vol="195" pan="0" key="46" pos="1980" len="12"/>
          <note vol="195" pan="0" key="46" pos="1992" len="12"/>
          <note vol="195" pan="0" key="46" pos="2004" len="12"/>
          <note vol="195" pan="0" key="46" pos="2016" len="12"/>
          <note vol="195" pan="0" key="46" pos="2028" len="12"/>
          <note vol="195" pan="0" key="46" pos="2040" len="12"/>
          <note vol="195" pan="0" key="46" pos="2052" len="12"/>
          <note vol="195" pan="0" key="46" pos="2064" len="12"/>
          <note vol="195" pan="0" key="46" pos="2076" len="12"/>
          <note vol="195" pan="0" key="46" pos="2088" len="12"/>
          <note vol="195" pan="0" key="46" pos="2100" len="12"/>
          <note vol="195" pan="0" key="0" pos="2100" len="36"/>
          <note vol="195" pan="0" key="49" pos="2112" len="48"/>
          <note vol="195" pan="0" key="42" pos="2112" len="48"/>
          <note vol="195" pan="0" key="1" pos="2136" len="36"/>
          <note vol="195" pan="0" key="42" pos="2160" len="12"/>
          <note vol="195" pan="0" key="42" pos="2172" len="12"/>
          <note vol="195" pan="0" key="42" pos="2184" len="12"/>
          <note vol="195" pan="0" key="42" pos="2196" len="12"/>
          <note vol="195" pan="0" key="0" pos="2196" len="36"/>
          <note vol="195" pan="0" key="47" pos="2208" len="48"/>
          <note vol="195" pan="0" key="40" pos="2208" len="48"/>
          <note vol="195" pan="0" key="1" pos="2232" len="36"/>
          <note vol="195" pan="0" key="40" pos="2256" len="12"/>
          <note vol="195" pan="0" key="40" pos="2268" len="12"/>
          <note vol="195" pan="0" key="40" pos="2280" len="12"/>
          <note vol="195" pan="0" key="40" pos="2292" len="12"/>
          <note vol="195" pan="0" key="0" pos="2292" len="36"/>
          <note vol="195" pan="0" key="45" pos="2304" len="48"/>
          <note vol="195" pan="0" key="38" pos="2304" len="48"/>
          <note vol="195" pan="0" key="1" pos="2328" len="36"/>
          <note vol="195" pan="0" key="38" pos="2352" len="12"/>
          <note vol="195" pan="0" key="38" pos="2364" len="12"/>
          <note vol="195" pan="0" key="38" pos="2376" len="12"/>
          <note vol="195" pan="0" key="38" pos="2388" len="12"/>
          <note vol="195" pan="0" key="38" pos="2400" len="12"/>
          <note vol="195" pan="0" key="38" pos="2412" len="12"/>
          <note vol="195" pan="0" key="38" pos="2424" len="12"/>
          <note vol="195" pan="0" key="38" pos="2436" len="12"/>
          <note vol="195" pan="0" key="38" pos="2448" len="12"/>
          <note vol="195" pan="0" key="38" pos="2460" len="12"/>
          <note vol="195" pan="0" key="38" pos="2472" len="12"/>
          <note vol="195" pan="0" key="38" pos="2484" len="12"/>
          <note vol="195" pan="0" key="0" pos="2484" len="36"/>
          <note vol="195" pan="0" key="52" pos="2496" len="48"/>
          <note vol="195" pan="0" key="45" pos="2496" len="48"/>
          <note vol="195" pan="0" key="1" pos="2520" len="36"/>
          <note vol="195" pan="0" key="45" pos="2544" len="12"/>
          <note vol="195" pan="0" key="45" pos="2556" len="12"/>
          <note vol="195" pan="0" key="45" pos="2568" len="12"/>
          <note vol="195" pan="0" key="45" pos="2580" len="12"/>
          <note vol="195" pan="0" key="45" pos="2592" len="12"/>
          <note vol="195" pan="0" key="45" pos="2604" len="12"/>
          <note vol="195" pan="0" key="45" pos="2616" len="12"/>
          <note vol="195" pan="0" key="45" pos="2628" len="12"/>
          <note vol="195" pan="0" key="45" pos="2640" len="12"/>
          <note vol="195" pan="0" key="45" pos="2652" len="12"/>
          <note vol="195" pan="0" key="45" pos="2664" len="12"/>
          <note vol="195" pan="0" key="45" pos="2676" len="12"/>
          <note vol="195" pan="0" key="0" pos="2676" len="36"/>
          <note vol="195" pan="0" key="54" pos="2688" len="48"/>
          <note vol="195" pan="0" key="47" pos="2688" len="48"/>
          <note vol="195" pan="0" key="1" pos="2712" len="36"/>
          <note vol="195" pan="0" key="47" pos="2736" len="12"/>
          <note vol="195" pan="0" key="47" pos="2748" len="12"/>
          <note vol="195" pan="0" key="47" pos="2760" len="12"/>
          <note vol="195" pan="0" key="47" pos="2772" len="12"/>
          <note vol="195" pan="0" key="47" pos="2784" len="12"/>
          <note vol="195" pan="0" key="47" pos="2796" len="12"/>
          <note vol="195" pan="0" key="47" pos="2808" len="12"/>
          <note vol="195" pan="0" key="47" pos="2820" len="12"/>
          <note vol="195" pan="0" key="47" pos="2832" len="12"/>
          <note vol="195" pan="0" key="47" pos="2844" len="12"/>
          <note vol="195" pan="0" key="47" pos="2856" len="12"/>
          <note vol="195" pan="0" key="47" pos="2868" len="12"/>
          <note vol="195" pan="0" key="0" pos="2868" len="36"/>
          <note vol="195" pan="0" key="54" pos="2880" len="96"/>
          <note vol="195" pan="0" key="47" pos="2880" len="96"/>
          <note vol="195" pan="0" key="58" pos="2976" len="96"/>
          <note vol="195" pan="0" key="51" pos="2976" len="96"/>
        </pattern>
        <pattern type="1" name="" steps="16" muted="0" pos="11136">
          <note vol="197" pan="0" key="44" pos="0" len="24"/>
          <note vol="197" pan="0" key="37" pos="0" len="24"/>
          <note vol="197" pan="0" key="0" pos="0" len="12"/>
          <note vol="197" pan="0" key="1" pos="12" len="12"/>
          <note vol="197" pan="0" key="37" pos="24" len="12"/>
          <note vol="197" pan="0" key="37" pos="36" len="12"/>
          <note vol="197" pan="0" key="37" pos="48" len="12"/>
          <note vol="197" pan="0" key="37" pos="60" len="12"/>
          <note vol="197" pan="0" key="44" pos="72" len="24"/>
          <note vol="197" pan="0" key="37" pos="72" len="24"/>
          <note vol="197" pan="0" key="0" pos="72" len="12"/>
          <note vol="197" pan="0" key="1" pos="84" len="12"/>
          <note vol="197" pan="0" key="37" pos="96" len="12"/>
          <note vol="197" pan="0" key="37" pos="108" len="12"/>
          <note vol="197" pan="0" key="37" pos="120" len="12"/>
          <note vol="197" pan="0" key="37" pos="132" len="12"/>
          <note vol="197" pan="0" key="44" pos="144" len="24"/>
          <note vol="197" pan="0" key="37" pos="144" len="24"/>
          <note vol="197" pan="0" key="0" pos="144" len="24"/>
          <note vol="197" pan="0" key="1" pos="156" len="24"/>
          <note vol="197" pan="0" key="37" pos="168" len="12"/>
          <note vol="197" pan="0" key="37" pos="180" len="12"/>
          <note vol="197" pan="0" key="37" pos="192" len="12"/>
          <note vol="197" pan="0" key="37" pos="204" len="12"/>
          <note vol="197" pan="0" key="44" pos="216" len="24"/>
          <note vol="197" pan="0" key="37" pos="216" len="24"/>
          <note vol="197" pan="0" key="0" pos="216" len="24"/>
          <note vol="197" pan="0" key="1" pos="228" len="24"/>
          <note vol="197" pan="0" key="37" pos="240" len="12"/>
          <note vol="197" pan="0" key="37" pos="252" len="12"/>
          <note vol="197" pan="0" key="37" pos="264" len="12"/>
          <note vol="197" pan="0" key="37" pos="276" len="12"/>
          <note vol="197" pan="0" key="44" pos="288" len="24"/>
          <note vol="197" pan="0" key="37" pos="288" len="24"/>
          <note vol="197" pan="0" key="0" pos="288" len="24"/>
          <note vol="197" pan="0" key="1" pos="300" len="24"/>
          <note vol="197" pan="0" key="37" pos="312" len="12"/>
          <note vol="197" pan="0" key="37" pos="324" len="12"/>
          <note vol="197" pan="0" key="44" pos="336" len="24"/>
          <note vol="197" pan="0" key="37" pos="336" len="24"/>
          <note vol="197" pan="0" key="0" pos="336" len="24"/>
          <note vol="197" pan="0" key="1" pos="348" len="24"/>
          <note vol="197" pan="0" key="37" pos="360" len="12"/>
          <note vol="197" pan="0" key="37" pos="372" len="12"/>
        </pattern>
        <pattern type="1" name="" steps="16" muted="0" pos="11904">
          <note vol="197" pan="0" key="44" pos="0" len="24"/>
          <note vol="197" pan="0" key="37" pos="0" len="24"/>
          <note vol="197" pan="0" key="0" pos="0" len="12"/>
          <note vol="197" pan="0" key="1" pos="12" len="12"/>
          <note vol="197" pan="0" key="37" pos="24" len="12"/>
          <note vol="197" pan="0" key="37" pos="36" len="12"/>
          <note vol="197" pan="0" key="37" pos="48" len="12"/>
          <note vol="197" pan="0" key="37" pos="60" len="12"/>
          <note vol="197" pan="0" key="44" pos="72" len="24"/>
          <note vol="197" pan="0" key="37" pos="72" len="24"/>
          <note vol="197" pan="0" key="0" pos="72" len="12"/>
          <note vol="197" pan="0" key="1" pos="84" len="12"/>
          <note vol="197" pan="0" key="37" pos="96" len="12"/>
          <note vol="197" pan="0" key="37" pos="108" len="12"/>
          <note vol="197" pan="0" key="37" pos="120" len="12"/>
          <note vol="197" pan="0" key="37" pos="132" len="12"/>
          <note vol="197" pan="0" key="44" pos="144" len="24"/>
          <note vol="197" pan="0" key="37" pos="144" len="24"/>
          <note vol="197" pan="0" key="0" pos="144" len="24"/>
          <note vol="197" pan="0" key="1" pos="156" len="24"/>
          <note vol="197" pan="0" key="37" pos="168" len="12"/>
          <note vol="197" pan="0" key="37" pos="180" len="12"/>
          <note vol="197" pan="0" key="37" pos="192" len="12"/>
          <note vol="197" pan="0" key="37" pos="204" len="12"/>
          <note vol="197" pan="0" key="44" pos="216" len="24"/>
          <note vol="197" pan="0" key="37" pos="216" len="24"/>
          <note vol="197" pan="0" key="0" pos="216" len="24"/>
          <note vol="197" pan="0" key="1" pos="228" len="24"/>
          <note vol="197" pan="0" key="37" pos="240" len="12"/>
          <note vol="197" pan="0" key="37" pos="252" len="12"/>
          <note vol="197" pan="0" key="37" pos="264" len="12"/>
          <note vol="197" pan="0" key="37" pos="276" len="12"/>
          <note vol="197" pan="0" key="44" pos="288" len="24"/>
          <note vol="197" pan="0" key="37" pos="288" len="24"/>
          <note vol="197" pan="0" key="0" pos="288" len="24"/>
          <note vol="197" pan="0" key="1" pos="300" len="24"/>
          <note vol="197" pan="0" key="37" pos="312" len="12"/>
          <note vol="197" pan="0" key="37" pos="324" len="12"/>
          <note vol="197" pan="0" key="44" pos="336" len="24"/>
          <note vol="197" pan="0" key="37" pos="336" len="24"/>
          <note vol="197" pan="0" key="0" pos="336" len="24"/>
          <note vol="197" pan="0" key="1" pos="348" len="24"/>
          <note vol="197" pan="0" key="37" pos="360" len="12"/>
          <note vol="197" pan="0" key="37" pos="372" len="12"/>
        </pattern>
        <pattern type="1" name="" steps="16" muted="0" pos="11520">
          <note vol="197" pan="0" key="45" pos="0" len="24"/>
          <note vol="197" pan="0" key="38" pos="0" len="24"/>
          <note vol="197" pan="0" key="0" pos="0" len="12"/>
          <note vol="197" pan="0" key="1" pos="12" len="12"/>
          <note vol="197" pan="0" key="38" pos="24" len="12"/>
          <note vol="197" pan="0" key="38" pos="36" len="12"/>
          <note vol="197" pan="0" key="38" pos="48" len="12"/>
          <note vol="197" pan="0" key="38" pos="60" len="12"/>
          <note vol="197" pan="0" key="45" pos="72" len="24"/>
          <note vol="197" pan="0" key="38" pos="72" len="24"/>
          <note vol="197" pan="0" key="0" pos="72" len="12"/>
          <note vol="197" pan="0" key="1" pos="84" len="12"/>
          <note vol="197" pan="0" key="38" pos="96" len="12"/>
          <note vol="197" pan="0" key="38" pos="108" len="12"/>
          <note vol="197" pan="0" key="38" pos="120" len="12"/>
          <note vol="197" pan="0" key="38" pos="132" len="12"/>
          <note vol="197" pan="0" key="45" pos="144" len="24"/>
          <note vol="197" pan="0" key="38" pos="144" len="24"/>
          <note vol="197" pan="0" key="0" pos="144" len="24"/>
          <note vol="197" pan="0" key="1" pos="156" len="24"/>
          <note vol="197" pan="0" key="38" pos="168" len="12"/>
          <note vol="197" pan="0" key="38" pos="180" len="12"/>
          <note vol="197" pan="0" key="38" pos="192" len="12"/>
          <note vol="197" pan="0" key="38" pos="204" len="12"/>
          <note vol="197" pan="0" key="45" pos="216" len="24"/>
          <note vol="197" pan="0" key="38" pos="216" len="24"/>
          <note vol="197" pan="0" key="0" pos="216" len="24"/>
          <note vol="197" pan="0" key="1" pos="228" len="24"/>
          <note vol="197" pan="0" key="38" pos="240" len="12"/>
          <note vol="197" pan="0" key="38" pos="252" len="12"/>
          <note vol="197" pan="0" key="38" pos="264" len="12"/>
          <note vol="197" pan="0" key="38" pos="276" len="12"/>
          <note vol="197" pan="0" key="45" pos="288" len="24"/>
          <note vol="197" pan="0" key="38" pos="288" len="24"/>
          <note vol="197" pan="0" key="0" pos="288" len="24"/>
          <note vol="197" pan="0" key="1" pos="300" len="24"/>
          <note vol="197" pan="0" key="38" pos="312" len="12"/>
          <note vol="197" pan="0" key="38" pos="324" len="12"/>
          <note vol="197" pan="0" key="45" pos="336" len="24"/>
          <note vol="197" pan="0" key="38" pos="336" len="24"/>
          <note vol="197" pan="0" key="0" pos="336" len="24"/>
          <note vol="197" pan="0" key="1" pos="348" len="24"/>
          <note vol="197" pan="0" key="38" pos="360" len="12"/>
          <note vol="197" pan="0" key="38" pos="372" len="12"/>
        </pattern>
        <pattern type="1" name="" steps="16" muted="0" pos="12288">
          <note vol="197" pan="0" key="45" pos="0" len="24"/>
          <note vol="197" pan="0" key="38" pos="0" len="24"/>
          <note vol="197" pan="0" key="0" pos="0" len="12"/>
          <note vol="197" pan="0" key="1" pos="12" len="12"/>
          <note vol="197" pan="0" key="38" pos="24" len="12"/>
          <note vol="197" pan="0" key="38" pos="36" len="12"/>
          <note vol="197" pan="0" key="38" pos="48" len="12"/>
          <note vol="197" pan="0" key="38" pos="60" len="12"/>
          <note vol="197" pan="0" key="45" pos="72" len="24"/>
          <note vol="197" pan="0" key="38" pos="72" len="24"/>
          <note vol="197" pan="0" key="0" pos="72" len="12"/>
          <note vol="197" pan="0" key="1" pos="84" len="12"/>
          <note vol="197" pan="0" key="38" pos="96" len="12"/>
          <note vol="197" pan="0" key="38" pos="108" len="12"/>
          <note vol="197" pan="0" key="38" pos="120" len="12"/>
          <note vol="197" pan="0" key="38" pos="132" len="12"/>
          <note vol="197" pan="0" key="45" pos="144" len="24"/>
          <note vol="197" pan="0" key="38" pos="144" len="24"/>
          <note vol="197" pan="0" key="0" pos="144" len="24"/>
          <note vol="197" pan="0" key="1" pos="156" len="24"/>
          <note vol="197" pan="0" key="38" pos="168" len="12"/>
          <note vol="197" pan="0" key="38" pos="180" len="12"/>
          <note vol="197" pan="0" key="38" pos="192" len="12"/>
          <note vol="197" pan="0" key="38" pos="204" len="12"/>
          <note vol="197" pan="0" key="45" pos="216" len="24"/>
          <note vol="197" pan="0" key="38" pos="216" len="24"/>
          <note vol="197" pan="0" key="0" pos="216" len="24"/>
          <note vol="197" pan="0" key="1" pos="228" len="24"/>
          <note vol="197" pan="0" key="38" pos="240" len="12"/>
          <note vol="197" pan="0" key="38" pos="252" len="12"/>
          <note vol="197" pan="0" key="38" pos="264" len="12"/>
          <note vol="197" pan="0" key="38" pos="276" len="12"/>
          <note vol="197" pan="0" key="45" pos="288" len="24"/>
          <note vol="197" pan="0" key="38" pos="288" len="24"/>
          <note vol="197" pan="0" key="0" pos="288" len="24"/>
          <note vol="197" pan="0" key="1" pos="300" len="24"/>
          <note vol="197" pan="0" key="38" pos="312" len="12"/>
          <note vol="197" pan="0" key="38" pos="324" len="12"/>
          <note vol="197" pan="0" key="45" pos="336" len="24"/>
          <note vol="197" pan="0" key="38" pos="336" len="24"/>
          <note vol="197" pan="0" key="0" pos="336" len="24"/>
          <note vol="197" pan="0" key="1" pos="348" len="24"/>
          <note vol="197" pan="0" key="38" pos="360" len="12"/>
          <note vol="197" pan="0" key="38" pos="372" len="12"/>
        </pattern>
        <pattern type="1" name="" steps="16" muted="0" pos="13440">
          <note vol="197" pan="0" key="37" pos="0" len="192"/>
          <note vol="197" pan="0" key="0" pos="0" len="384"/>
          <note vol="197" pan="0" key="37" pos="192" len="192"/>
        </pattern>
        <pattern type="1" name="" steps="16" muted="0" pos="15744">
          <note vol="195" pan="0" key="44" pos="0" len="48"/>
          <note vol="195" pan="0" key="37" pos="0" len="48"/>
          <note vol="195" pan="0" key="0" pos="0" len="36"/>
          <note vol="195" pan="0" key="1" pos="36" len="36"/>
          <note vol="195" pan="0" key="37" pos="48" len="12"/>
          <note vol="195" pan="0" key="37" pos="60" len="12"/>
          <note vol="195" pan="0" key="37" pos="72" len="12"/>
          <note vol="195" pan="0" key="37" pos="84" len="12"/>
          <note vol="195" pan="0" key="37" pos="96" len="12"/>
          <note vol="195" pan="0" key="37" pos="108" len="12"/>
          <note vol="195" pan="0" key="37" pos="120" len="12"/>
          <note vol="195" pan="0" key="37" pos="132" len="12"/>
          <note vol="195" pan="0" key="37" pos="144" len="12"/>
          <note vol="195" pan="0" key="37" pos="156" len="12"/>
          <note vol="195" pan="0" key="37" pos="168" len="12"/>
          <note vol="195" pan="0" key="37" pos="180" len="12"/>
          <note vol="195" pan="0" key="0" pos="180" len="36"/>
          <note vol="195" pan="0" key="51" pos="192" len="48"/>
          <note vol="195" pan="0" key="44" pos="192" len="48"/>
          <note vol="195" pan="0" key="1" pos="216" len="36"/>
          <note vol="195" pan="0" key="44" pos="240" len="12"/>
          <note vol="195" pan="0" key="44" pos="252" len="12"/>
          <note vol="195" pan="0" key="44" pos="264" len="12"/>
          <note vol="195" pan="0" key="44" pos="276" len="12"/>
          <note vol="195" pan="0" key="44" pos="288" len="12"/>
          <note vol="195" pan="0" key="44" pos="300" len="12"/>
          <note vol="195" pan="0" key="44" pos="312" len="12"/>
          <note vol="195" pan="0" key="44" pos="324" len="12"/>
          <note vol="195" pan="0" key="44" pos="336" len="12"/>
          <note vol="195" pan="0" key="44" pos="348" len="12"/>
          <note vol="195" pan="0" key="44" pos="360" len="12"/>
          <note vol="195" pan="0" key="44" pos="372" len="12"/>
          <note vol="195" pan="0" key="0" pos="372" len="36"/>
          <note vol="195" pan="0" key="52" pos="384" len="48"/>
          <note vol="195" pan="0" key="45" pos="384" len="48"/>
          <note vol="195" pan="0" key="1" pos="408" len="36"/>
          <note vol="195" pan="0" key="45" pos="432" len="12"/>
          <note vol="195" pan="0" key="45" pos="444" len="12"/>
          <note vol="195" pan="0" key="45" pos="456" len="12"/>
          <note vol="195" pan="0" key="45" pos="468" len="12"/>
          <note vol="195" pan="0" key="45" pos="480" len="12"/>
          <note vol="195" pan="0" key="45" pos="492" len="12"/>
          <note vol="195" pan="0" key="45" pos="504" len="12"/>
          <note vol="195" pan="0" key="45" pos="516" len="12"/>
          <note vol="195" pan="0" key="45" pos="528" len="12"/>
          <note vol="195" pan="0" key="45" pos="540" len="12"/>
          <note vol="195" pan="0" key="45" pos="552" len="12"/>
          <note vol="195" pan="0" key="45" pos="564" len="12"/>
          <note vol="195" pan="0" key="0" pos="564" len="36"/>
          <note vol="195" pan="0" key="54" pos="576" len="48"/>
          <note vol="195" pan="0" key="47" pos="576" len="48"/>
          <note vol="195" pan="0" key="1" pos="600" len="36"/>
          <note vol="195" pan="0" key="47" pos="624" len="12"/>
          <note vol="195" pan="0" key="47" pos="636" len="12"/>
          <note vol="195" pan="0" key="47" pos="648" len="12"/>
          <note vol="195" pan="0" key="47" pos="660" len="12"/>
          <note vol="195" pan="0" key="47" pos="672" len="12"/>
          <note vol="195" pan="0" key="47" pos="684" len="12"/>
          <note vol="195" pan="0" key="47" pos="696" len="12"/>
          <note vol="195" pan="0" key="47" pos="708" len="12"/>
          <note vol="195" pan="0" key="47" pos="720" len="12"/>
          <note vol="195" pan="0" key="47" pos="732" len="12"/>
          <note vol="195" pan="0" key="47" pos="744" len="12"/>
          <note vol="195" pan="0" key="47" pos="756" len="12"/>
          <note vol="195" pan="0" key="49" pos="768" len="48"/>
          <note vol="195" pan="0" key="42" pos="768" len="48"/>
          <note vol="195" pan="0" key="0" pos="768" len="36"/>
          <note vol="195" pan="0" key="1" pos="792" len="36"/>
          <note vol="195" pan="0" key="42" pos="816" len="12"/>
          <note vol="195" pan="0" key="42" pos="828" len="12"/>
          <note vol="195" pan="0" key="42" pos="840" len="12"/>
          <note vol="195" pan="0" key="42" pos="852" len="12"/>
          <note vol="195" pan="0" key="42" pos="864" len="12"/>
          <note vol="195" pan="0" key="42" pos="876" len="12"/>
          <note vol="195" pan="0" key="42" pos="888" len="12"/>
          <note vol="195" pan="0" key="42" pos="900" len="12"/>
          <note vol="195" pan="0" key="42" pos="912" len="12"/>
          <note vol="195" pan="0" key="42" pos="924" len="12"/>
          <note vol="195" pan="0" key="42" pos="936" len="12"/>
          <note vol="195" pan="0" key="42" pos="948" len="12"/>
          <note vol="195" pan="0" key="0" pos="948" len="36"/>
          <note vol="195" pan="0" key="51" pos="960" len="48"/>
          <note vol="195" pan="0" key="44" pos="960" len="48"/>
          <note vol="195" pan="0" key="1" pos="984" len="36"/>
          <note vol="195" pan="0" key="44" pos="1008" len="12"/>
          <note vol="195" pan="0" key="44" pos="1020" len="12"/>
          <note vol="195" pan="0" key="44" pos="1032" len="12"/>
          <note vol="195" pan="0" key="44" pos="1044" len="12"/>
          <note vol="195" pan="0" key="44" pos="1056" len="12"/>
          <note vol="195" pan="0" key="44" pos="1068" len="12"/>
          <note vol="195" pan="0" key="44" pos="1080" len="12"/>
          <note vol="195" pan="0" key="44" pos="1092" len="12"/>
          <note vol="195" pan="0" key="44" pos="1104" len="12"/>
          <note vol="195" pan="0" key="44" pos="1116" len="12"/>
          <note vol="195" pan="0" key="44" pos="1128" len="12"/>
          <note vol="195" pan="0" key="44" pos="1140" len="12"/>
          <note vol="195" pan="0" key="0" pos="1140" len="36"/>
          <note vol="195" pan="0" key="52" pos="1152" len="48"/>
          <note vol="195" pan="0" key="45" pos="1152" len="48"/>
          <note vol="195" pan="0" key="1" pos="1176" len="36"/>
          <note vol="195" pan="0" key="45" pos="1200" len="12"/>
          <note vol="195" pan="0" key="45" pos="1212" len="12"/>
          <note vol="195" pan="0" key="45" pos="1224" len="12"/>
          <note vol="195" pan="0" key="45" pos="1236" len="12"/>
          <note vol="195" pan="0" key="45" pos="1248" len="12"/>
          <note vol="195" pan="0" key="45" pos="1260" len="12"/>
          <note vol="195" pan="0" key="45" pos="1272" len="12"/>
          <note vol="195" pan="0" key="45" pos="1284" len="12"/>
          <note vol="195" pan="0" key="45" pos="1296" len="12"/>
          <note vol="195" pan="0" key="45" pos="1308" len="12"/>
          <note vol="195" pan="0" key="45" pos="1320" len="12"/>
          <note vol="195" pan="0" key="45" pos="1332" len="12"/>
          <note vol="195" pan="0" key="0" pos="1332" len="36"/>
          <note vol="195" pan="0" key="54" pos="1344" len="48"/>
          <note vol="195" pan="0" key="47" pos="1344" len="48"/>
          <note vol="195" pan="0" key="1" pos="1368" len="36"/>
          <note vol="195" pan="0" key="47" pos="1392" len="12"/>
          <note vol="195" pan="0" key="47" pos="1404" len="12"/>
          <note vol="195" pan="0" key="47" pos="1416" len="12"/>
          <note vol="195" pan="0" key="47" pos="1428" len="12"/>
          <note vol="195" pan="0" key="48" pos="1440" len="12"/>
          <note vol="195" pan="0" key="48" pos="1452" len="12"/>
          <note vol="195" pan="0" key="48" pos="1464" len="12"/>
          <note vol="195" pan="0" key="1" pos="1464" len="36"/>
          <note vol="195" pan="0" key="48" pos="1476" len="12"/>
          <note vol="195" pan="0" key="48" pos="1488" len="12"/>
          <note vol="195" pan="0" key="48" pos="1500" len="12"/>
          <note vol="195" pan="0" key="48" pos="1512" len="12"/>
          <note vol="195" pan="0" key="48" pos="1524" len="12"/>
          <note vol="195" pan="0" key="0" pos="1524" len="36"/>
          <note vol="195" pan="0" key="44" pos="1536" len="48"/>
          <note vol="195" pan="0" key="37" pos="1536" len="48"/>
          <note vol="195" pan="0" key="1" pos="1560" len="36"/>
          <note vol="195" pan="0" key="37" pos="1584" len="12"/>
          <note vol="195" pan="0" key="37" pos="1596" len="12"/>
          <note vol="195" pan="0" key="37" pos="1608" len="12"/>
          <note vol="195" pan="0" key="37" pos="1620" len="12"/>
          <note vol="195" pan="0" key="37" pos="1632" len="12"/>
          <note vol="195" pan="0" key="37" pos="1644" len="12"/>
          <note vol="195" pan="0" key="37" pos="1656" len="12"/>
          <note vol="195" pan="0" key="37" pos="1668" len="12"/>
          <note vol="195" pan="0" key="37" pos="1680" len="12"/>
          <note vol="195" pan="0" key="37" pos="1692" len="12"/>
          <note vol="195" pan="0" key="37" pos="1704" len="12"/>
          <note vol="195" pan="0" key="37" pos="1716" len="12"/>
          <note vol="195" pan="0" key="0" pos="1716" len="36"/>
          <note vol="195" pan="0" key="54" pos="1728" len="48"/>
          <note vol="195" pan="0" key="47" pos="1728" len="48"/>
          <note vol="195" pan="0" key="1" pos="1752" len="36"/>
          <note vol="195" pan="0" key="47" pos="1776" len="12"/>
          <note vol="195" pan="0" key="47" pos="1788" len="12"/>
          <note vol="195" pan="0" key="47" pos="1800" len="12"/>
          <note vol="195" pan="0" key="47" pos="1812" len="12"/>
          <note vol="195" pan="0" key="47" pos="1824" len="12"/>
          <note vol="195" pan="0" key="47" pos="1836" len="12"/>
          <note vol="195" pan="0" key="47" pos="1848" len="12"/>
          <note vol="195" pan="0" key="47" pos="1860" len="12"/>
          <note vol="195" pan="0" key="47" pos="1872" len="12"/>
          <note vol="195" pan="0" key="47" pos="1884" len="12"/>
          <note vol="195" pan="0" key="47" pos="1896" len="12"/>
          <note vol="195" pan="0" key="47" pos="1908" len="12"/>
          <note vol="195" pan="0" key="0" pos="1908" len="36"/>
          <note vol="195" pan="0" key="54" pos="1920" len="48"/>
          <note vol="195" pan="0" key="46" pos="1920" len="48"/>
          <note vol="195" pan="0" key="1" pos="1944" len="36"/>
          <note vol="195" pan="0" key="46" pos="1968" len="12"/>
          <note vol="195" pan="0" key="46" pos="1980" len="12"/>
          <note vol="195" pan="0" key="46" pos="1992" len="12"/>
          <note vol="195" pan="0" key="46" pos="2004" len="12"/>
          <note vol="195" pan="0" key="46" pos="2016" len="12"/>
          <note vol="195" pan="0" key="46" pos="2028" len="12"/>
          <note vol="195" pan="0" key="46" pos="2040" len="12"/>
          <note vol="195" pan="0" key="46" pos="2052" len="12"/>
          <note vol="195" pan="0" key="46" pos="2064" len="12"/>
          <note vol="195" pan="0" key="46" pos="2076" len="12"/>
          <note vol="195" pan="0" key="46" pos="2088" len="12"/>
          <note vol="195" pan="0" key="46" pos="2100" len="12"/>
          <note vol="195" pan="0" key="0" pos="2100" len="36"/>
          <note vol="195" pan="0" key="49" pos="2112" len="48"/>
          <note vol="195" pan="0" key="42" pos="2112" len="48"/>
          <note vol="195" pan="0" key="1" pos="2136" len="36"/>
          <note vol="195" pan="0" key="42" pos="2160" len="12"/>
          <note vol="195" pan="0" key="42" pos="2172" len="12"/>
          <note vol="195" pan="0" key="42" pos="2184" len="12"/>
          <note vol="195" pan="0" key="42" pos="2196" len="12"/>
          <note vol="195" pan="0" key="0" pos="2196" len="36"/>
          <note vol="195" pan="0" key="47" pos="2208" len="48"/>
          <note vol="195" pan="0" key="40" pos="2208" len="48"/>
          <note vol="195" pan="0" key="1" pos="2232" len="36"/>
          <note vol="195" pan="0" key="40" pos="2256" len="12"/>
          <note vol="195" pan="0" key="40" pos="2268" len="12"/>
          <note vol="195" pan="0" key="40" pos="2280" len="12"/>
          <note vol="195" pan="0" key="40" pos="2292" len="12"/>
          <note vol="195" pan="0" key="0" pos="2292" len="36"/>
          <note vol="195" pan="0" key="45" pos="2304" len="48"/>
          <note vol="195" pan="0" key="38" pos="2304" len="48"/>
          <note vol="195" pan="0" key="1" pos="2328" len="36"/>
          <note vol="195" pan="0" key="38" pos="2352" len="12"/>
          <note vol="195" pan="0" key="38" pos="2364" len="12"/>
          <note vol="195" pan="0" key="38" pos="2376" len="12"/>
          <note vol="195" pan="0" key="38" pos="2388" len="12"/>
          <note vol="195" pan="0" key="38" pos="2400" len="12"/>
          <note vol="195" pan="0" key="38" pos="2412" len="12"/>
          <note vol="195" pan="0" key="38" pos="2424" len="12"/>
          <note vol="195" pan="0" key="38" pos="2436" len="12"/>
          <note vol="195" pan="0" key="38" pos="2448" len="12"/>
          <note vol="195" pan="0" key="38" pos="2460" len="12"/>
          <note vol="195" pan="0" key="38" pos="2472" len="12"/>
          <note vol="195" pan="0" key="38" pos="2484" len="12"/>
          <note vol="195" pan="0" key="0" pos="2484" len="36"/>
          <note vol="195" pan="0" key="52" pos="2496" len="48"/>
          <note vol="195" pan="0" key="45" pos="2496" len="48"/>
          <note vol="195" pan="0" key="1" pos="2520" len="36"/>
          <note vol="195" pan="0" key="45" pos="2544" len="12"/>
          <note vol="195" pan="0" key="45" pos="2556" len="12"/>
          <note vol="195" pan="0" key="45" pos="2568" len="12"/>
          <note vol="195" pan="0" key="45" pos="2580" len="12"/>
          <note vol="195" pan="0" key="45" pos="2592" len="12"/>
          <note vol="195" pan="0" key="45" pos="2604" len="12"/>
          <note vol="195" pan="0" key="45" pos="2616" len="12"/>
          <note vol="195" pan="0" key="45" pos="2628" len="12"/>
          <note vol="195" pan="0" key="45" pos="2640" len="12"/>
          <note vol="195" pan="0" key="45" pos="2652" len="12"/>
          <note vol="195" pan="0" key="45" pos="2664" len="12"/>
          <note vol="195" pan="0" key="45" pos="2676" len="12"/>
          <note vol="195" pan="0" key="0" pos="2676" len="36"/>
          <note vol="195" pan="0" key="54" pos="2688" len="48"/>
          <note vol="195" pan="0" key="47" pos="2688" len="48"/>
          <note vol="195" pan="0" key="1" pos="2712" len="36"/>
          <note vol="195" pan="0" key="47" pos="2736" len="12"/>
          <note vol="195" pan="0" key="47" pos="2748" len="12"/>
          <note vol="195" pan="0" key="47" pos="2760" len="12"/>
          <note vol="195" pan="0" key="47" pos="2772" len="12"/>
          <note vol="195" pan="0" key="47" pos="2784" len="12"/>
          <note vol="195" pan="0" key="47" pos="2796" len="12"/>
          <note vol="195" pan="0" key="47" pos="2808" len="12"/>
          <note vol="195" pan="0" key="47" pos="2820" len="12"/>
          <note vol="195" pan="0" key="47" pos="2832" len="12"/>
          <note vol="195" pan="0" key="47" pos="2844" len="12"/>
          <note vol="195" pan="0" key="47" pos="2856" len="12"/>
          <note vol="195" pan="0" key="47" pos="2868" len="12"/>
          <note vol="195" pan="0" key="0" pos="2868" len="36"/>
          <note vol="195" pan="0" key="42" pos="2880" len="24"/>
          <note vol="195" pan="0" key="35" pos="2880" len="24"/>
          <note vol="195" pan="0" key="42" pos="2904" len="24"/>
          <note vol="195" pan="0" key="35" pos="2904" len="24"/>
          <note vol="195" pan="0" key="42" pos="2976" len="24"/>
          <note vol="195" pan="0" key="35" pos="2976" len="24"/>
          <note vol="195" pan="0" key="42" pos="3000" len="24"/>
          <note vol="195" pan="0" key="35" pos="3000" len="24"/>
        </pattern>
        <pattern type="1" name="" steps="16" muted="0" pos="13824">
          <note vol="197" pan="0" key="47" pos="0" len="24"/>
          <note vol="197" pan="0" key="0" pos="0" len="24"/>
          <note vol="197" pan="0" key="1" pos="12" len="24"/>
          <note vol="197" pan="0" key="44" pos="24" len="12"/>
          <note vol="197" pan="0" key="44" pos="36" len="12"/>
          <note vol="197" pan="0" key="44" pos="48" len="12"/>
          <note vol="197" pan="0" key="44" pos="60" len="12"/>
          <note vol="197" pan="0" key="51" pos="72" len="48"/>
          <note vol="197" pan="0" key="44" pos="72" len="48"/>
          <note vol="197" pan="0" key="0" pos="72" len="24"/>
          <note vol="197" pan="0" key="1" pos="108" len="24"/>
          <note vol="197" pan="0" key="44" pos="120" len="24"/>
          <note vol="197" pan="0" key="44" pos="144" len="24"/>
          <note vol="197" pan="0" key="44" pos="168" len="24"/>
        </pattern>
        <pattern type="1" name="" steps="16" muted="0" pos="12672">
          <note vol="172" pan="0" key="44" pos="0" len="36"/>
          <note vol="172" pan="0" key="37" pos="0" len="36"/>
          <note vol="172" pan="0" key="0" pos="0" len="36"/>
        </pattern>
        <pattern type="1" name="" steps="16" muted="0" pos="14016">
          <note vol="172" pan="0" key="45" pos="0" len="12"/>
          <note vol="172" pan="0" key="1" pos="0" len="12"/>
          <note vol="172" pan="0" key="45" pos="12" len="12"/>
          <note vol="172" pan="0" key="45" pos="24" len="12"/>
          <note vol="172" pan="0" key="45" pos="36" len="12"/>
          <note vol="172" pan="0" key="49" pos="48" len="12"/>
          <note vol="172" pan="0" key="49" pos="60" len="12"/>
          <note vol="172" pan="0" key="45" pos="72" len="12"/>
          <note vol="172" pan="0" key="45" pos="84" len="12"/>
          <note vol="172" pan="0" key="47" pos="96" len="12"/>
          <note vol="172" pan="0" key="47" pos="108" len="12"/>
          <note vol="172" pan="0" key="47" pos="120" len="12"/>
          <note vol="172" pan="0" key="47" pos="132" len="12"/>
          <note vol="172" pan="0" key="52" pos="144" len="12"/>
          <note vol="172" pan="0" key="0" pos="144" len="12"/>
          <note vol="172" pan="0" key="51" pos="156" len="12"/>
          <note vol="172" pan="0" key="2" pos="156" len="12"/>
          <note vol="172" pan="0" key="49" pos="168" len="12"/>
          <note vol="172" pan="0" key="1" pos="168" len="12"/>
          <note vol="172" pan="0" key="47" pos="180" len="12"/>
        </pattern>
        <pattern type="1" name="" steps="16" muted="0" pos="14208">
          <note vol="200" pan="0" key="38" pos="0" len="12"/>
          <note vol="200" pan="0" key="1" pos="0" len="24"/>
          <note vol="200" pan="0" key="38" pos="12" len="12"/>
          <note vol="200" pan="0" key="38" pos="24" len="24"/>
          <note vol="200" pan="0" key="38" pos="48" len="12"/>
          <note vol="200" pan="0" key="38" pos="60" len="12"/>
          <note vol="200" pan="0" key="38" pos="72" len="24"/>
          <note vol="200" pan="0" key="38" pos="96" len="12"/>
          <note vol="200" pan="0" key="38" pos="108" len="12"/>
          <note vol="200" pan="0" key="38" pos="120" len="24"/>
          <note vol="200" pan="0" key="38" pos="144" len="12"/>
          <note vol="200" pan="0" key="38" pos="156" len="12"/>
          <note vol="200" pan="0" key="38" pos="168" len="24"/>
          <note vol="200" pan="0" key="38" pos="192" len="12"/>
          <note vol="200" pan="0" key="38" pos="204" len="12"/>
          <note vol="200" pan="0" key="38" pos="216" len="24"/>
          <note vol="200" pan="0" key="38" pos="240" len="12"/>
          <note vol="200" pan="0" key="38" pos="252" len="12"/>
          <note vol="200" pan="0" key="38" pos="264" len="24"/>
          <note vol="200" pan="0" key="38" pos="288" len="12"/>
          <note vol="200" pan="0" key="38" pos="300" len="12"/>
          <note vol="200" pan="0" key="38" pos="312" len="24"/>
          <note vol="200" pan="0" key="38" pos="336" len="12"/>
          <note vol="200" pan="0" key="38" pos="348" len="12"/>
          <note vol="200" pan="0" key="38" pos="360" len="24"/>
          <note vol="200" pan="0" key="37" pos="384" len="12"/>
          <note vol="200" pan="0" key="37" pos="396" len="12"/>
          <note vol="200" pan="0" key="37" pos="408" len="24"/>
          <note vol="200" pan="0" key="37" pos="432" len="12"/>
          <note vol="200" pan="0" key="37" pos="444" len="12"/>
          <note vol="200" pan="0" key="37" pos="456" len="24"/>
          <note vol="200" pan="0" key="37" pos="480" len="12"/>
          <note vol="200" pan="0" key="37" pos="492" len="12"/>
          <note vol="200" pan="0" key="37" pos="504" len="24"/>
          <note vol="200" pan="0" key="37" pos="528" len="12"/>
          <note vol="200" pan="0" key="37" pos="540" len="12"/>
          <note vol="200" pan="0" key="37" pos="552" len="24"/>
          <note vol="200" pan="0" key="35" pos="576" len="12"/>
          <note vol="200" pan="0" key="35" pos="588" len="12"/>
          <note vol="200" pan="0" key="35" pos="600" len="24"/>
          <note vol="200" pan="0" key="35" pos="624" len="12"/>
          <note vol="200" pan="0" key="35" pos="636" len="12"/>
          <note vol="200" pan="0" key="35" pos="648" len="24"/>
          <note vol="200" pan="0" key="35" pos="672" len="12"/>
          <note vol="200" pan="0" key="35" pos="684" len="12"/>
          <note vol="200" pan="0" key="35" pos="696" len="24"/>
          <note vol="200" pan="0" key="35" pos="720" len="12"/>
          <note vol="200" pan="0" key="35" pos="732" len="12"/>
          <note vol="200" pan="0" key="35" pos="744" len="24"/>
        </pattern>
        <pattern type="1" name="" steps="16" muted="0" pos="18816">
          <note vol="197" pan="0" key="44" pos="0" len="24"/>
          <note vol="197" pan="0" key="37" pos="0" len="24"/>
          <note vol="197" pan="0" key="0" pos="0" len="12"/>
          <note vol="197" pan="0" key="1" pos="12" len="12"/>
          <note vol="197" pan="0" key="37" pos="24" len="12"/>
          <note vol="197" pan="0" key="37" pos="36" len="12"/>
          <note vol="197" pan="0" key="44" pos="48" len="24"/>
          <note vol="197" pan="0" key="37" pos="48" len="24"/>
          <note vol="197" pan="0" key="0" pos="48" len="12"/>
          <note vol="197" pan="0" key="44" pos="72" len="24"/>
          <note vol="197" pan="0" key="37" pos="72" len="24"/>
          <note vol="197" pan="0" key="1" pos="84" len="12"/>
          <note vol="197" pan="0" key="37" pos="96" len="12"/>
          <note vol="197" pan="0" key="37" pos="108" len="12"/>
          <note vol="197" pan="0" key="44" pos="120" len="24"/>
          <note vol="197" pan="0" key="37" pos="120" len="24"/>
          <note vol="197" pan="0" key="0" pos="120" len="12"/>
          <note vol="197" pan="0" key="44" pos="144" len="24"/>
          <note vol="197" pan="0" key="37" pos="144" len="24"/>
          <note vol="197" pan="0" key="1" pos="156" len="12"/>
          <note vol="197" pan="0" key="37" pos="168" len="12"/>
          <note vol="197" pan="0" key="37" pos="180" len="12"/>
          <note vol="197" pan="0" key="44" pos="192" len="24"/>
          <note vol="197" pan="0" key="37" pos="192" len="24"/>
          <note vol="197" pan="0" key="0" pos="192" len="12"/>
          <note vol="197" pan="0" key="44" pos="216" len="24"/>
          <note vol="197" pan="0" key="37" pos="216" len="24"/>
          <note vol="197" pan="0" key="1" pos="228" len="12"/>
          <note vol="197" pan="0" key="37" pos="240" len="12"/>
          <note vol="197" pan="0" key="37" pos="252" len="12"/>
          <note vol="197" pan="0" key="44" pos="264" len="24"/>
          <note vol="197" pan="0" key="37" pos="264" len="24"/>
          <note vol="197" pan="0" key="0" pos="264" len="12"/>
          <note vol="197" pan="0" key="44" pos="288" len="24"/>
          <note vol="197" pan="0" key="37" pos="288" len="24"/>
          <note vol="197" pan="0" key="44" pos="312" len="24"/>
          <note vol="197" pan="0" key="37" pos="312" len="24"/>
          <note vol="197" pan="0" key="1" pos="324" len="12"/>
          <note vol="197" pan="0" key="37" pos="336" len="12"/>
          <note vol="197" pan="0" key="37" pos="348" len="12"/>
          <note vol="197" pan="0" key="44" pos="360" len="24"/>
          <note vol="197" pan="0" key="37" pos="360" len="24"/>
          <note vol="197" pan="0" key="0" pos="360" len="12"/>
          <note vol="197" pan="0" key="51" pos="384" len="24"/>
          <note vol="197" pan="0" key="44" pos="384" len="24"/>
          <note vol="197" pan="0" key="1" pos="396" len="12"/>
          <note vol="197" pan="0" key="44" pos="408" len="12"/>
          <note vol="197" pan="0" key="44" pos="420" len="12"/>
          <note vol="197" pan="0" key="51" pos="432" len="24"/>
          <note vol="197" pan="0" key="44" pos="432" len="24"/>
          <note vol="197" pan="0" key="0" pos="432" len="12"/>
          <note vol="197" pan="0" key="51" pos="456" len="24"/>
          <note vol="197" pan="0" key="44" pos="456" len="24"/>
          <note vol="197" pan="0" key="1" pos="468" len="12"/>
          <note vol="197" pan="0" key="44" pos="480" len="12"/>
          <note vol="197" pan="0" key="44" pos="492" len="12"/>
          <note vol="197" pan="0" key="51" pos="504" len="24"/>
          <note vol="197" pan="0" key="44" pos="504" len="24"/>
          <note vol="197" pan="0" key="0" pos="504" len="12"/>
          <note vol="197" pan="0" key="51" pos="528" len="24"/>
          <note vol="197" pan="0" key="44" pos="528" len="24"/>
          <note vol="197" pan="0" key="1" pos="540" len="12"/>
          <note vol="197" pan="0" key="44" pos="552" len="12"/>
          <note vol="197" pan="0" key="44" pos="564" len="12"/>
          <note vol="197" pan="0" key="51" pos="576" len="24"/>
          <note vol="197" pan="0" key="44" pos="576" len="24"/>
          <note vol="197" pan="0" key="0" pos="576" len="12"/>
          <note vol="197" pan="0" key="51" pos="600" len="24"/>
          <note vol="197" pan="0" key="44" pos="600" len="24"/>
          <note vol="197" pan="0" key="1" pos="612" len="12"/>
          <note vol="197" pan="0" key="44" pos="624" len="12"/>
          <note vol="197" pan="0" key="44" pos="636" len="12"/>
          <note vol="197" pan="0" key="51" pos="648" len="24"/>
          <note vol="197" pan="0" key="44" pos="648" len="24"/>
          <note vol="197" pan="0" key="0" pos="648" len="12"/>
          <note vol="197" pan="0" key="51" pos="672" len="24"/>
          <note vol="197" pan="0" key="44" pos="672" len="24"/>
          <note vol="197" pan="0" key="51" pos="696" len="24"/>
          <note vol="197" pan="0" key="44" pos="696" len="24"/>
          <note vol="197" pan="0" key="1" pos="708" len="12"/>
          <note vol="197" pan="0" key="44" pos="720" len="12"/>
          <note vol="197" pan="0" key="44" pos="732" len="12"/>
          <note vol="197" pan="0" key="51" pos="744" len="24"/>
          <note vol="197" pan="0" key="44" pos="744" len="24"/>
          <note vol="197" pan="0" key="0" pos="744" len="12"/>
          <note vol="197" pan="0" key="46" pos="768" len="24"/>
          <note vol="197" pan="0" key="39" pos="768" len="24"/>
          <note vol="197" pan="0" key="1" pos="780" len="12"/>
          <note vol="197" pan="0" key="39" pos="792" len="12"/>
          <note vol="197" pan="0" key="39" pos="804" len="12"/>
          <note vol="197" pan="0" key="46" pos="816" len="24"/>
          <note vol="197" pan="0" key="39" pos="816" len="24"/>
          <note vol="197" pan="0" key="0" pos="816" len="12"/>
          <note vol="197" pan="0" key="46" pos="840" len="24"/>
          <note vol="197" pan="0" key="39" pos="840" len="24"/>
          <note vol="197" pan="0" key="1" pos="852" len="12"/>
          <note vol="197" pan="0" key="39" pos="864" len="12"/>
          <note vol="197" pan="0" key="39" pos="876" len="12"/>
          <note vol="197" pan="0" key="46" pos="888" len="24"/>
          <note vol="197" pan="0" key="39" pos="888" len="24"/>
          <note vol="197" pan="0" key="0" pos="888" len="12"/>
          <note vol="197" pan="0" key="46" pos="912" len="24"/>
          <note vol="197" pan="0" key="39" pos="912" len="24"/>
          <note vol="197" pan="0" key="1" pos="924" len="12"/>
          <note vol="197" pan="0" key="39" pos="936" len="12"/>
          <note vol="197" pan="0" key="39" pos="948" len="12"/>
          <note vol="197" pan="0" key="46" pos="960" len="24"/>
          <note vol="197" pan="0" key="39" pos="960" len="24"/>
          <note vol="197" pan="0" key="0" pos="960" len="12"/>
          <note vol="197" pan="0" key="46" pos="984" len="24"/>
          <note vol="197" pan="0" key="39" pos="984" len="24"/>
          <note vol="197" pan="0" key="1" pos="996" len="12"/>
          <note vol="197" pan="0" key="39" pos="1008" len="12"/>
          <note vol="197" pan="0" key="39" pos="1020" len="12"/>
          <note vol="197" pan="0" key="46" pos="1032" len="24"/>
          <note vol="197" pan="0" key="39" pos="1032" len="24"/>
          <note vol="197" pan="0" key="0" pos="1032" len="12"/>
          <note vol="197" pan="0" key="46" pos="1056" len="24"/>
          <note vol="197" pan="0" key="39" pos="1056" len="24"/>
          <note vol="197" pan="0" key="46" pos="1080" len="24"/>
          <note vol="197" pan="0" key="39" pos="1080" len="24"/>
          <note vol="197" pan="0" key="1" pos="1092" len="12"/>
          <note vol="197" pan="0" key="39" pos="1104" len="12"/>
          <note vol="197" pan="0" key="39" pos="1116" len="12"/>
          <note vol="197" pan="0" key="46" pos="1128" len="24"/>
          <note vol="197" pan="0" key="39" pos="1128" len="24"/>
          <note vol="197" pan="0" key="0" pos="1128" len="12"/>
          <note vol="197" pan="0" key="45" pos="1152" len="24"/>
          <note vol="197" pan="0" key="38" pos="1152" len="24"/>
          <note vol="197" pan="0" key="1" pos="1164" len="12"/>
          <note vol="197" pan="0" key="38" pos="1176" len="12"/>
          <note vol="197" pan="0" key="38" pos="1188" len="12"/>
          <note vol="197" pan="0" key="45" pos="1200" len="24"/>
          <note vol="197" pan="0" key="38" pos="1200" len="24"/>
          <note vol="197" pan="0" key="0" pos="1200" len="12"/>
          <note vol="197" pan="0" key="45" pos="1224" len="24"/>
          <note vol="197" pan="0" key="38" pos="1224" len="24"/>
          <note vol="197" pan="0" key="1" pos="1236" len="12"/>
          <note vol="197" pan="0" key="38" pos="1248" len="12"/>
          <note vol="197" pan="0" key="38" pos="1260" len="12"/>
          <note vol="197" pan="0" key="45" pos="1272" len="24"/>
          <note vol="197" pan="0" key="38" pos="1272" len="24"/>
          <note vol="197" pan="0" key="0" pos="1272" len="12"/>
          <note vol="197" pan="0" key="45" pos="1296" len="24"/>
          <note vol="197" pan="0" key="38" pos="1296" len="24"/>
          <note vol="197" pan="0" key="1" pos="1308" len="12"/>
          <note vol="197" pan="0" key="38" pos="1320" len="12"/>
          <note vol="197" pan="0" key="38" pos="1332" len="12"/>
          <note vol="197" pan="0" key="51" pos="1344" len="48"/>
          <note vol="197" pan="0" key="44" pos="1344" len="48"/>
          <note vol="197" pan="0" key="0" pos="1344" len="12"/>
          <note vol="197" pan="0" key="46" pos="1392" len="48"/>
          <note vol="197" pan="0" key="39" pos="1392" len="48"/>
          <note vol="197" pan="0" key="35" pos="1440" len="48"/>
          <note vol="197" pan="0" key="32" pos="1488" len="48"/>
          <note vol="197" pan="0" key="44" pos="1536" len="24"/>
          <note vol="197" pan="0" key="37" pos="1536" len="24"/>
          <note vol="197" pan="0" key="1" pos="1548" len="12"/>
          <note vol="197" pan="0" key="37" pos="1560" len="12"/>
          <note vol="197" pan="0" key="37" pos="1572" len="12"/>
          <note vol="197" pan="0" key="44" pos="1584" len="24"/>
          <note vol="197" pan="0" key="37" pos="1584" len="24"/>
          <note vol="197" pan="0" key="0" pos="1584" len="12"/>
          <note vol="197" pan="0" key="44" pos="1608" len="24"/>
          <note vol="197" pan="0" key="37" pos="1608" len="24"/>
          <note vol="197" pan="0" key="1" pos="1620" len="12"/>
          <note vol="197" pan="0" key="37" pos="1632" len="12"/>
          <note vol="197" pan="0" key="37" pos="1644" len="12"/>
          <note vol="197" pan="0" key="44" pos="1656" len="24"/>
          <note vol="197" pan="0" key="37" pos="1656" len="24"/>
          <note vol="197" pan="0" key="0" pos="1656" len="12"/>
          <note vol="197" pan="0" key="44" pos="1680" len="24"/>
          <note vol="197" pan="0" key="37" pos="1680" len="24"/>
          <note vol="197" pan="0" key="1" pos="1692" len="12"/>
          <note vol="197" pan="0" key="37" pos="1704" len="12"/>
          <note vol="197" pan="0" key="37" pos="1716" len="12"/>
          <note vol="197" pan="0" key="44" pos="1728" len="24"/>
          <note vol="197" pan="0" key="37" pos="1728" len="24"/>
          <note vol="197" pan="0" key="0" pos="1728" len="12"/>
          <note vol="197" pan="0" key="44" pos="1752" len="24"/>
          <note vol="197" pan="0" key="37" pos="1752" len="24"/>
          <note vol="197" pan="0" key="1" pos="1764" len="12"/>
          <note vol="197" pan="0" key="37" pos="1776" len="12"/>
          <note vol="197" pan="0" key="37" pos="1788" len="12"/>
          <note vol="197" pan="0" key="44" pos="1800" len="24"/>
          <note vol="197" pan="0" key="37" pos="1800" len="24"/>
          <note vol="197" pan="0" key="0" pos="1800" len="12"/>
          <note vol="197" pan="0" key="44" pos="1824" len="24"/>
          <note vol="197" pan="0" key="37" pos="1824" len="24"/>
          <note vol="197" pan="0" key="44" pos="1848" len="24"/>
          <note vol="197" pan="0" key="37" pos="1848" len="24"/>
          <note vol="197" pan="0" key="1" pos="1860" len="12"/>
          <note vol="197" pan="0" key="37" pos="1872" len="12"/>
          <note vol="197" pan="0" key="37" pos="1884" len="12"/>
          <note vol="197" pan="0" key="44" pos="1896" len="24"/>
          <note vol="197" pan="0" key="37" pos="1896" len="24"/>
          <note vol="197" pan="0" key="0" pos="1896" len="12"/>
          <note vol="197" pan="0" key="45" pos="1920" len="24"/>
          <note vol="197" pan="0" key="38" pos="1920" len="24"/>
          <note vol="197" pan="0" key="1" pos="1932" len="12"/>
          <note vol="197" pan="0" key="38" pos="1944" len="12"/>
          <note vol="197" pan="0" key="38" pos="1956" len="12"/>
          <note vol="197" pan="0" key="45" pos="1968" len="24"/>
          <note vol="197" pan="0" key="38" pos="1968" len="24"/>
          <note vol="197" pan="0" key="0" pos="1968" len="12"/>
          <note vol="197" pan="0" key="45" pos="1992" len="24"/>
          <note vol="197" pan="0" key="38" pos="1992" len="24"/>
          <note vol="197" pan="0" key="1" pos="2004" len="12"/>
          <note vol="197" pan="0" key="38" pos="2016" len="12"/>
          <note vol="197" pan="0" key="38" pos="2028" len="12"/>
          <note vol="197" pan="0" key="45" pos="2040" len="24"/>
          <note vol="197" pan="0" key="38" pos="2040" len="24"/>
          <note vol="197" pan="0" key="0" pos="2040" len="12"/>
          <note vol="197" pan="0" key="45" pos="2064" len="24"/>
          <note vol="197" pan="0" key="38" pos="2064" len="24"/>
          <note vol="197" pan="0" key="1" pos="2076" len="12"/>
          <note vol="197" pan="0" key="38" pos="2088" len="12"/>
          <note vol="197" pan="0" key="38" pos="2100" len="12"/>
          <note vol="197" pan="0" key="45" pos="2112" len="24"/>
          <note vol="197" pan="0" key="38" pos="2112" len="24"/>
          <note vol="197" pan="0" key="0" pos="2112" len="12"/>
          <note vol="197" pan="0" key="45" pos="2136" len="24"/>
          <note vol="197" pan="0" key="38" pos="2136" len="24"/>
          <note vol="197" pan="0" key="1" pos="2148" len="12"/>
          <note vol="197" pan="0" key="38" pos="2160" len="12"/>
          <note vol="197" pan="0" key="38" pos="2172" len="12"/>
          <note vol="197" pan="0" key="45" pos="2184" len="24"/>
          <note vol="197" pan="0" key="38" pos="2184" len="24"/>
          <note vol="197" pan="0" key="0" pos="2184" len="12"/>
          <note vol="197" pan="0" key="45" pos="2208" len="24"/>
          <note vol="197" pan="0" key="38" pos="2208" len="24"/>
          <note vol="197" pan="0" key="45" pos="2232" len="24"/>
          <note vol="197" pan="0" key="38" pos="2232" len="24"/>
          <note vol="197" pan="0" key="1" pos="2244" len="12"/>
          <note vol="197" pan="0" key="38" pos="2256" len="12"/>
          <note vol="197" pan="0" key="38" pos="2268" len="12"/>
          <note vol="197" pan="0" key="45" pos="2280" len="24"/>
          <note vol="197" pan="0" key="38" pos="2280" len="24"/>
          <note vol="197" pan="0" key="0" pos="2280" len="12"/>
          <note vol="197" pan="0" key="46" pos="2304" len="24"/>
          <note vol="197" pan="0" key="39" pos="2304" len="24"/>
          <note vol="197" pan="0" key="1" pos="2316" len="12"/>
          <note vol="197" pan="0" key="39" pos="2328" len="12"/>
          <note vol="197" pan="0" key="39" pos="2340" len="12"/>
          <note vol="197" pan="0" key="46" pos="2352" len="24"/>
          <note vol="197" pan="0" key="39" pos="2352" len="24"/>
          <note vol="197" pan="0" key="0" pos="2352" len="12"/>
          <note vol="197" pan="0" key="46" pos="2376" len="24"/>
          <note vol="197" pan="0" key="39" pos="2376" len="24"/>
          <note vol="197" pan="0" key="1" pos="2388" len="12"/>
          <note vol="197" pan="0" key="39" pos="2400" len="12"/>
          <note vol="197" pan="0" key="39" pos="2412" len="12"/>
          <note vol="197" pan="0" key="46" pos="2424" len="24"/>
          <note vol="197" pan="0" key="39" pos="2424" len="24"/>
          <note vol="197" pan="0" key="0" pos="2424" len="12"/>
          <note vol="197" pan="0" key="46" pos="2448" len="24"/>
          <note vol="197" pan="0" key="39" pos="2448" len="24"/>
          <note vol="197" pan="0" key="1" pos="2460" len="12"/>
          <note vol="197" pan="0" key="39" pos="2472" len="12"/>
          <note vol="197" pan="0" key="39" pos="2484" len="12"/>
          <note vol="197" pan="0" key="46" pos="2496" len="24"/>
          <note vol="197" pan="0" key="39" pos="2496" len="24"/>
          <note vol="197" pan="0" key="0" pos="2496" len="12"/>
          <note vol="197" pan="0" key="46" pos="2520" len="24"/>
          <note vol="197" pan="0" key="39" pos="2520" len="24"/>
          <note vol="197" pan="0" key="1" pos="2532" len="12"/>
          <note vol="197" pan="0" key="39" pos="2544" len="12"/>
          <note vol="197" pan="0" key="39" pos="2556" len="12"/>
          <note vol="197" pan="0" key="46" pos="2568" len="24"/>
          <note vol="197" pan="0" key="39" pos="2568" len="24"/>
          <note vol="197" pan="0" key="0" pos="2568" len="12"/>
          <note vol="197" pan="0" key="46" pos="2592" len="24"/>
          <note vol="197" pan="0" key="39" pos="2592" len="24"/>
          <note vol="197" pan="0" key="46" pos="2616" len="24"/>
          <note vol="197" pan="0" key="39" pos="2616" len="24"/>
          <note vol="197" pan="0" key="1" pos="2628" len="12"/>
          <note vol="197" pan="0" key="39" pos="2640" len="12"/>
          <note vol="197" pan="0" key="39" pos="2652" len="12"/>
          <note vol="197" pan="0" key="46" pos="2664" len="24"/>
          <note vol="197" pan="0" key="39" pos="2664" len="24"/>
          <note vol="197" pan="0" key="0" pos="2664" len="12"/>
          <note vol="197" pan="0" key="51" pos="2688" len="24"/>
          <note vol="197" pan="0" key="44" pos="2688" len="24"/>
          <note vol="197" pan="0" key="1" pos="2700" len="12"/>
          <note vol="197" pan="0" key="44" pos="2712" len="12"/>
          <note vol="197" pan="0" key="44" pos="2724" len="12"/>
          <note vol="197" pan="0" key="51" pos="2736" len="24"/>
          <note vol="197" pan="0" key="44" pos="2736" len="24"/>
          <note vol="197" pan="0" key="0" pos="2736" len="12"/>
          <note vol="197" pan="0" key="51" pos="2760" len="24"/>
          <note vol="197" pan="0" key="44" pos="2760" len="24"/>
          <note vol="197" pan="0" key="1" pos="2772" len="12"/>
          <note vol="197" pan="0" key="44" pos="2784" len="12"/>
          <note vol="197" pan="0" key="44" pos="2796" len="12"/>
          <note vol="197" pan="0" key="51" pos="2808" len="24"/>
          <note vol="197" pan="0" key="44" pos="2808" len="24"/>
          <note vol="197" pan="0" key="0" pos="2808" len="12"/>
          <note vol="197" pan="0" key="51" pos="2832" len="24"/>
          <note vol="197" pan="0" key="44" pos="2832" len="24"/>
          <note vol="197" pan="0" key="1" pos="2844" len="12"/>
          <note vol="197" pan="0" key="44" pos="2856" len="12"/>
          <note vol="197" pan="0" key="44" pos="2868" len="12"/>
          <note vol="197" pan="0" key="51" pos="2880" len="48"/>
          <note vol="197" pan="0" key="44" pos="2880" len="48"/>
          <note vol="197" pan="0" key="0" pos="2880" len="12"/>
          <note vol="197" pan="0" key="51" pos="2928" len="48"/>
          <note vol="197" pan="0" key="44" pos="2928" len="48"/>
          <note vol="197" pan="0" key="51" pos="2976" len="48"/>
          <note vol="197" pan="0" key="44" pos="2976" len="48"/>
          <note vol="197" pan="0" key="51" pos="3024" len="48"/>
          <note vol="197" pan="0" key="44" pos="3024" len="48"/>
        </pattern>
        <pattern type="1" name="" steps="16" muted="0" pos="14976">
          <note vol="197" pan="0" key="40" pos="0" len="24"/>
          <note vol="197" pan="0" key="0" pos="0" len="12"/>
          <note vol="197" pan="0" key="42" pos="24" len="24"/>
          <note vol="197" pan="0" key="1" pos="36" len="12"/>
          <note vol="197" pan="0" key="42" pos="48" len="12"/>
          <note vol="197" pan="0" key="42" pos="60" len="12"/>
          <note vol="197" pan="0" key="47" pos="72" len="24"/>
          <note vol="197" pan="0" key="0" pos="72" len="24"/>
          <note vol="197" pan="0" key="49" pos="96" len="24"/>
          <note vol="197" pan="0" key="42" pos="120" len="24"/>
          <note vol="197" pan="0" key="40" pos="144" len="24"/>
          <note vol="197" pan="0" key="42" pos="168" len="24"/>
        </pattern>
        <pattern type="1" name="" steps="16" muted="0" pos="15360">
          <note vol="78" pan="0" key="46" pos="0" len="24"/>
          <note vol="78" pan="0" key="39" pos="0" len="24"/>
          <note vol="78" pan="0" key="0" pos="0" len="12"/>
          <note vol="78" pan="0" key="1" pos="12" len="12"/>
          <note vol="78" pan="0" key="39" pos="24" len="12"/>
          <note vol="78" pan="0" key="39" pos="36" len="12"/>
          <note vol="78" pan="0" key="39" pos="48" len="12"/>
          <note vol="78" pan="0" key="39" pos="60" len="12"/>
          <note vol="78" pan="0" key="39" pos="72" len="12"/>
          <note vol="78" pan="0" key="39" pos="84" len="12"/>
          <note vol="78" pan="0" key="39" pos="96" len="12"/>
          <note vol="78" pan="0" key="39" pos="108" len="12"/>
          <note vol="78" pan="0" key="39" pos="120" len="12"/>
          <note vol="78" pan="0" key="39" pos="132" len="12"/>
          <note vol="78" pan="0" key="39" pos="144" len="12"/>
          <note vol="78" pan="0" key="39" pos="156" len="12"/>
          <note vol="78" pan="0" key="39" pos="168" len="12"/>
          <note vol="78" pan="0" key="39" pos="180" len="12"/>
          <note vol="78" pan="0" key="52" pos="192" len="96"/>
          <note vol="78" pan="0" key="45" pos="192" len="96"/>
          <note vol="78" pan="0" key="0" pos="192" len="12"/>
          <note vol="78" pan="0" key="51" pos="288" len="96"/>
          <note vol="78" pan="0" key="44" pos="288" len="96"/>
        </pattern>
        <pattern type="1" name="" steps="16" muted="0" pos="15168">
          <note vol="197" pan="0" key="40" pos="0" len="24"/>
          <note vol="197" pan="0" key="0" pos="0" len="12"/>
          <note vol="197" pan="0" key="42" pos="24" len="24"/>
          <note vol="197" pan="0" key="1" pos="36" len="12"/>
          <note vol="197" pan="0" key="42" pos="48" len="12"/>
          <note vol="197" pan="0" key="42" pos="60" len="12"/>
          <note vol="197" pan="0" key="47" pos="72" len="24"/>
          <note vol="197" pan="0" key="0" pos="72" len="24"/>
          <note vol="197" pan="0" key="49" pos="96" len="24"/>
          <note vol="197" pan="0" key="42" pos="120" len="24"/>
          <note vol="197" pan="0" key="40" pos="144" len="24"/>
          <note vol="197" pan="0" key="42" pos="168" len="24"/>
        </pattern>
        <pattern type="1" name="" steps="16" muted="0" pos="24960">
          <note vol="195" pan="0" key="52" pos="0" len="192"/>
          <note vol="195" pan="0" key="45" pos="0" len="192"/>
          <note vol="195" pan="0" key="0" pos="0" len="384"/>
          <note vol="195" pan="0" key="54" pos="192" len="192"/>
          <note vol="195" pan="0" key="47" pos="192" len="192"/>
          <note vol="195" pan="0" key="44" pos="384" len="384"/>
          <note vol="195" pan="0" key="37" pos="384" len="384"/>
          <note vol="195" pan="0" key="42" pos="768" len="192"/>
          <note vol="195" pan="0" key="35" pos="768" len="192"/>
          <note vol="195" pan="0" key="42" pos="960" len="192"/>
          <note vol="195" pan="0" key="35" pos="960" len="192"/>
          <note vol="195" pan="0" key="49" pos="1152" len="384"/>
          <note vol="195" pan="0" key="42" pos="1152" len="384"/>
          <note vol="195" pan="0" key="52" pos="1536" len="192"/>
          <note vol="195" pan="0" key="45" pos="1536" len="192"/>
          <note vol="195" pan="0" key="54" pos="1728" len="192"/>
          <note vol="195" pan="0" key="47" pos="1728" len="192"/>
          <note vol="195" pan="0" key="44" pos="1920" len="192"/>
          <note vol="195" pan="0" key="37" pos="1920" len="192"/>
          <note vol="195" pan="0" key="44" pos="2112" len="192"/>
          <note vol="195" pan="0" key="37" pos="2112" len="192"/>
        </pattern>
        <pattern type="1" name="" steps="16" muted="0" pos="28032">
          <note vol="195" pan="0" key="52" pos="0" len="384"/>
          <note vol="195" pan="0" key="45" pos="0" len="384"/>
          <note vol="195" pan="0" key="0" pos="0" len="384"/>
          <note vol="195" pan="0" key="42" pos="384" len="384"/>
          <note vol="195" pan="0" key="35" pos="384" len="384"/>
        </pattern>
        <pattern type="1" name="" steps="16" muted="0" pos="27264">
          <note vol="200" pan="0" key="49" pos="0" len="192"/>
          <note vol="200" pan="0" key="42" pos="0" len="192"/>
          <note vol="200" pan="0" key="0" pos="0" len="192"/>
          <note vol="200" pan="0" key="49" pos="192" len="192"/>
          <note vol="200" pan="0" key="42" pos="192" len="192"/>
          <note vol="200" pan="0" key="51" pos="384" len="192"/>
          <note vol="200" pan="0" key="44" pos="384" len="192"/>
          <note vol="200" pan="0" key="51" pos="576" len="192"/>
          <note vol="200" pan="0" key="44" pos="576" len="192"/>
        </pattern>
        <pattern type="1" name="" steps="16" muted="0" pos="28800">
          <note vol="200" pan="0" key="49" pos="0" len="48"/>
          <note vol="200" pan="0" key="0" pos="0" len="24"/>
          <note vol="200" pan="0" key="37" pos="48" len="24"/>
          <note vol="200" pan="0" key="1" pos="60" len="24"/>
          <note vol="200" pan="0" key="37" pos="72" len="12"/>
          <note vol="200" pan="0" key="37" pos="84" len="12"/>
          <note vol="200" pan="0" key="37" pos="96" len="12"/>
          <note vol="200" pan="0" key="37" pos="108" len="12"/>
          <note vol="200" pan="0" key="37" pos="120" len="24"/>
          <note vol="200" pan="0" key="0" pos="120" len="24"/>
          <note vol="200" pan="0" key="1" pos="132" len="24"/>
          <note vol="200" pan="0" key="37" pos="144" len="12"/>
          <note vol="200" pan="0" key="37" pos="156" len="12"/>
          <note vol="200" pan="0" key="37" pos="168" len="12"/>
          <note vol="200" pan="0" key="37" pos="180" len="12"/>
          <note vol="200" pan="0" key="37" pos="192" len="24"/>
          <note vol="200" pan="0" key="0" pos="192" len="24"/>
          <note vol="200" pan="0" key="1" pos="204" len="24"/>
          <note vol="200" pan="0" key="37" pos="216" len="12"/>
          <note vol="200" pan="0" key="37" pos="228" len="12"/>
          <note vol="200" pan="0" key="37" pos="240" len="12"/>
          <note vol="200" pan="0" key="37" pos="252" len="12"/>
          <note vol="200" pan="0" key="37" pos="264" len="24"/>
          <note vol="200" pan="0" key="0" pos="264" len="24"/>
          <note vol="200" pan="0" key="1" pos="276" len="24"/>
          <note vol="200" pan="0" key="37" pos="288" len="12"/>
          <note vol="200" pan="0" key="37" pos="300" len="12"/>
          <note vol="200" pan="0" key="37" pos="312" len="24"/>
          <note vol="200" pan="0" key="0" pos="312" len="24"/>
          <note vol="200" pan="0" key="1" pos="324" len="24"/>
          <note vol="200" pan="0" key="37" pos="336" len="12"/>
          <note vol="200" pan="0" key="37" pos="348" len="12"/>
          <note vol="200" pan="0" key="37" pos="360" len="12"/>
          <note vol="200" pan="0" key="37" pos="372" len="12"/>
          <note vol="200" pan="0" key="37" pos="384" len="48"/>
          <note vol="200" pan="0" key="0" pos="384" len="24"/>
          <note vol="200" pan="0" key="37" pos="432" len="24"/>
          <note vol="200" pan="0" key="1" pos="444" len="24"/>
          <note vol="200" pan="0" key="37" pos="456" len="12"/>
          <note vol="200" pan="0" key="37" pos="468" len="12"/>
          <note vol="200" pan="0" key="37" pos="480" len="12"/>
          <note vol="200" pan="0" key="37" pos="492" len="12"/>
          <note vol="200" pan="0" key="37" pos="504" len="24"/>
          <note vol="200" pan="0" key="0" pos="504" len="24"/>
          <note vol="200" pan="0" key="1" pos="516" len="24"/>
          <note vol="200" pan="0" key="37" pos="528" len="12"/>
          <note vol="200" pan="0" key="37" pos="540" len="12"/>
          <note vol="200" pan="0" key="37" pos="552" len="12"/>
          <note vol="200" pan="0" key="37" pos="564" len="12"/>
          <note vol="200" pan="0" key="37" pos="576" len="24"/>
          <note vol="200" pan="0" key="0" pos="576" len="24"/>
          <note vol="200" pan="0" key="1" pos="588" len="24"/>
          <note vol="200" pan="0" key="37" pos="600" len="12"/>
          <note vol="200" pan="0" key="37" pos="612" len="12"/>
          <note vol="200" pan="0" key="37" pos="624" len="12"/>
          <note vol="200" pan="0" key="37" pos="636" len="12"/>
          <note vol="200" pan="0" key="37" pos="648" len="24"/>
          <note vol="200" pan="0" key="0" pos="648" len="24"/>
          <note vol="200" pan="0" key="1" pos="660" len="24"/>
          <note vol="200" pan="0" key="37" pos="672" len="12"/>
          <note vol="200" pan="0" key="37" pos="684" len="12"/>
          <note vol="200" pan="0" key="40" pos="696" len="24"/>
          <note vol="200" pan="0" key="42" pos="720" len="24"/>
          <note vol="200" pan="0" key="44" pos="744" len="24"/>
        </pattern>
        <pattern type="1" name="" steps="16" muted="0" pos="29568">
          <note vol="200" pan="0" key="49" pos="0" len="48"/>
          <note vol="200" pan="0" key="0" pos="0" len="24"/>
          <note vol="200" pan="0" key="37" pos="48" len="24"/>
          <note vol="200" pan="0" key="1" pos="60" len="24"/>
          <note vol="200" pan="0" key="37" pos="72" len="12"/>
          <note vol="200" pan="0" key="37" pos="84" len="12"/>
          <note vol="200" pan="0" key="37" pos="96" len="12"/>
          <note vol="200" pan="0" key="37" pos="108" len="12"/>
          <note vol="200" pan="0" key="37" pos="120" len="24"/>
          <note vol="200" pan="0" key="0" pos="120" len="24"/>
          <note vol="200" pan="0" key="1" pos="132" len="24"/>
          <note vol="200" pan="0" key="37" pos="144" len="12"/>
          <note vol="200" pan="0" key="37" pos="156" len="12"/>
          <note vol="200" pan="0" key="37" pos="168" len="12"/>
          <note vol="200" pan="0" key="37" pos="180" len="12"/>
          <note vol="200" pan="0" key="37" pos="192" len="24"/>
          <note vol="200" pan="0" key="0" pos="192" len="24"/>
          <note vol="200" pan="0" key="1" pos="204" len="24"/>
          <note vol="200" pan="0" key="37" pos="216" len="12"/>
          <note vol="200" pan="0" key="37" pos="228" len="12"/>
          <note vol="200" pan="0" key="37" pos="240" len="12"/>
          <note vol="200" pan="0" key="37" pos="252" len="12"/>
          <note vol="200" pan="0" key="37" pos="264" len="24"/>
          <note vol="200" pan="0" key="0" pos="264" len="24"/>
          <note vol="200" pan="0" key="1" pos="276" len="24"/>
          <note vol="200" pan="0" key="37" pos="288" len="12"/>
          <note vol="200" pan="0" key="37" pos="300" len="12"/>
          <note vol="200" pan="0" key="37" pos="312" len="24"/>
          <note vol="200" pan="0" key="0" pos="312" len="24"/>
          <note vol="200" pan="0" key="1" pos="324" len="24"/>
          <note vol="200" pan="0" key="37" pos="336" len="12"/>
          <note vol="200" pan="0" key="37" pos="348" len="12"/>
          <note vol="200" pan="0" key="37" pos="360" len="12"/>
          <note vol="200" pan="0" key="37" pos="372" len="12"/>
          <note vol="200" pan="0" key="37" pos="384" len="48"/>
          <note vol="200" pan="0" key="0" pos="384" len="24"/>
          <note vol="200" pan="0" key="37" pos="432" len="24"/>
          <note vol="200" pan="0" key="1" pos="444" len="24"/>
          <note vol="200" pan="0" key="37" pos="456" len="12"/>
          <note vol="200" pan="0" key="37" pos="468" len="12"/>
          <note vol="200" pan="0" key="37" pos="480" len="12"/>
          <note vol="200" pan="0" key="37" pos="492" len="12"/>
          <note vol="200" pan="0" key="37" pos="504" len="24"/>
          <note vol="200" pan="0" key="0" pos="504" len="24"/>
          <note vol="200" pan="0" key="1" pos="516" len="24"/>
          <note vol="200" pan="0" key="37" pos="528" len="12"/>
          <note vol="200" pan="0" key="37" pos="540" len="12"/>
          <note vol="200" pan="0" key="37" pos="552" len="12"/>
          <note vol="200" pan="0" key="37" pos="564" len="12"/>
          <note vol="200" pan="0" key="37" pos="576" len="24"/>
          <note vol="200" pan="0" key="0" pos="576" len="24"/>
          <note vol="200" pan="0" key="1" pos="588" len="24"/>
          <note vol="200" pan="0" key="37" pos="600" len="12"/>
          <note vol="200" pan="0" key="37" pos="612" len="12"/>
          <note vol="200" pan="0" key="37" pos="624" len="12"/>
          <note vol="200" pan="0" key="37" pos="636" len="12"/>
          <note vol="200" pan="0" key="37" pos="648" len="24"/>
          <note vol="200" pan="0" key="0" pos="648" len="24"/>
          <note vol="200" pan="0" key="1" pos="660" len="24"/>
          <note vol="200" pan="0" key="37" pos="672" len="12"/>
          <note vol="200" pan="0" key="37" pos="684" len="12"/>
          <note vol="200" pan="0" key="40" pos="696" len="24"/>
          <note vol="200" pan="0" key="42" pos="720" len="24"/>
          <note vol="200" pan="0" key="44" pos="744" len="24"/>
        </pattern>
        <pattern type="1" name="" steps="16" muted="0" pos="30336">
          <note vol="200" pan="0" key="50" pos="0" len="48"/>
          <note vol="200" pan="0" key="0" pos="0" len="24"/>
          <note vol="200" pan="0" key="38" pos="48" len="24"/>
          <note vol="200" pan="0" key="1" pos="60" len="24"/>
          <note vol="200" pan="0" key="38" pos="72" len="12"/>
          <note vol="200" pan="0" key="38" pos="84" len="12"/>
          <note vol="200" pan="0" key="38" pos="96" len="12"/>
          <note vol="200" pan="0" key="38" pos="108" len="12"/>
          <note vol="200" pan="0" key="38" pos="120" len="24"/>
          <note vol="200" pan="0" key="0" pos="120" len="24"/>
          <note vol="200" pan="0" key="1" pos="132" len="24"/>
          <note vol="200" pan="0" key="38" pos="144" len="12"/>
          <note vol="200" pan="0" key="38" pos="156" len="12"/>
          <note vol="200" pan="0" key="38" pos="168" len="12"/>
          <note vol="200" pan="0" key="38" pos="180" len="12"/>
          <note vol="200" pan="0" key="38" pos="192" len="24"/>
          <note vol="200" pan="0" key="0" pos="192" len="24"/>
          <note vol="200" pan="0" key="1" pos="204" len="24"/>
          <note vol="200" pan="0" key="38" pos="216" len="12"/>
          <note vol="200" pan="0" key="38" pos="228" len="12"/>
          <note vol="200" pan="0" key="38" pos="240" len="12"/>
          <note vol="200" pan="0" key="38" pos="252" len="12"/>
          <note vol="200" pan="0" key="38" pos="264" len="24"/>
          <note vol="200" pan="0" key="0" pos="264" len="24"/>
          <note vol="200" pan="0" key="1" pos="276" len="24"/>
          <note vol="200" pan="0" key="38" pos="288" len="12"/>
          <note vol="200" pan="0" key="38" pos="300" len="12"/>
          <note vol="200" pan="0" key="38" pos="312" len="24"/>
          <note vol="200" pan="0" key="0" pos="312" len="24"/>
          <note vol="200" pan="0" key="1" pos="324" len="24"/>
          <note vol="200" pan="0" key="38" pos="336" len="12"/>
          <note vol="200" pan="0" key="38" pos="348" len="12"/>
          <note vol="200" pan="0" key="38" pos="360" len="12"/>
          <note vol="200" pan="0" key="38" pos="372" len="12"/>
          <note vol="200" pan="0" key="38" pos="384" len="48"/>
          <note vol="200" pan="0" key="0" pos="384" len="24"/>
          <note vol="200" pan="0" key="38" pos="432" len="24"/>
          <note vol="200" pan="0" key="1" pos="444" len="24"/>
          <note vol="200" pan="0" key="38" pos="456" len="12"/>
          <note vol="200" pan="0" key="38" pos="468" len="12"/>
          <note vol="200" pan="0" key="38" pos="480" len="12"/>
          <note vol="200" pan="0" key="38" pos="492" len="12"/>
          <note vol="200" pan="0" key="38" pos="504" len="24"/>
          <note vol="200" pan="0" key="0" pos="504" len="24"/>
          <note vol="200" pan="0" key="1" pos="516" len="24"/>
          <note vol="200" pan="0" key="38" pos="528" len="12"/>
          <note vol="200" pan="0" key="38" pos="540" len="12"/>
          <note vol="200" pan="0" key="38" pos="552" len="12"/>
          <note vol="200" pan="0" key="38" pos="564" len="12"/>
          <note vol="200" pan="0" key="38" pos="576" len="24"/>
          <note vol="200" pan="0" key="0" pos="576" len="24"/>
          <note vol="200" pan="0" key="1" pos="588" len="24"/>
          <note vol="200" pan="0" key="38" pos="600" len="12"/>
          <note vol="200" pan="0" key="38" pos="612" len="12"/>
          <note vol="200" pan="0" key="38" pos="624" len="12"/>
          <note vol="200" pan="0" key="38" pos="636" len="12"/>
          <note vol="200" pan="0" key="38" pos="648" len="24"/>
          <note vol="200" pan="0" key="0" pos="648" len="24"/>
          <note vol="200" pan="0" key="1" pos="660" len="24"/>
          <note vol="200" pan="0" key="38" pos="672" len="12"/>
          <note vol="200" pan="0" key="38" pos="684" len="12"/>
          <note vol="200" pan="0" key="45" pos="696" len="24"/>
          <note vol="200" pan="0" key="44" pos="720" len="24"/>
          <note vol="200" pan="0" key="40" pos="744" len="24"/>
        </pattern>
        <pattern type="1" name="" steps="16" muted="0" pos="31104">
          <note vol="200" pan="0" key="49" pos="0" len="48"/>
          <note vol="200" pan="0" key="0" pos="0" len="24"/>
          <note vol="200" pan="0" key="37" pos="48" len="24"/>
          <note vol="200" pan="0" key="1" pos="60" len="24"/>
          <note vol="200" pan="0" key="37" pos="72" len="12"/>
          <note vol="200" pan="0" key="37" pos="84" len="12"/>
          <note vol="200" pan="0" key="37" pos="96" len="12"/>
          <note vol="200" pan="0" key="37" pos="108" len="12"/>
          <note vol="200" pan="0" key="37" pos="120" len="24"/>
          <note vol="200" pan="0" key="0" pos="120" len="24"/>
          <note vol="200" pan="0" key="1" pos="132" len="24"/>
          <note vol="200" pan="0" key="37" pos="144" len="12"/>
          <note vol="200" pan="0" key="37" pos="156" len="12"/>
          <note vol="200" pan="0" key="37" pos="168" len="12"/>
          <note vol="200" pan="0" key="37" pos="180" len="12"/>
          <note vol="200" pan="0" key="37" pos="192" len="24"/>
          <note vol="200" pan="0" key="0" pos="192" len="24"/>
          <note vol="200" pan="0" key="1" pos="204" len="24"/>
          <note vol="200" pan="0" key="37" pos="216" len="12"/>
          <note vol="200" pan="0" key="37" pos="228" len="12"/>
          <note vol="200" pan="0" key="37" pos="240" len="12"/>
          <note vol="200" pan="0" key="37" pos="252" len="12"/>
          <note vol="200" pan="0" key="37" pos="264" len="24"/>
          <note vol="200" pan="0" key="0" pos="264" len="24"/>
          <note vol="200" pan="0" key="1" pos="276" len="24"/>
          <note vol="200" pan="0" key="37" pos="288" len="12"/>
          <note vol="200" pan="0" key="37" pos="300" len="12"/>
          <note vol="200" pan="0" key="37" pos="312" len="24"/>
          <note vol="200" pan="0" key="0" pos="312" len="24"/>
          <note vol="200" pan="0" key="1" pos="324" len="24"/>
          <note vol="200" pan="0" key="37" pos="336" len="12"/>
          <note vol="200" pan="0" key="37" pos="348" len="12"/>
          <note vol="200" pan="0" key="37" pos="360" len="12"/>
          <note vol="200" pan="0" key="37" pos="372" len="12"/>
          <note vol="200" pan="0" key="35" pos="384" len="48"/>
          <note vol="200" pan="0" key="0" pos="384" len="24"/>
          <note vol="200" pan="0" key="35" pos="432" len="24"/>
          <note vol="200" pan="0" key="1" pos="444" len="24"/>
          <note vol="200" pan="0" key="35" pos="456" len="12"/>
          <note vol="200" pan="0" key="35" pos="468" len="12"/>
          <note vol="200" pan="0" key="35" pos="480" len="12"/>
          <note vol="200" pan="0" key="35" pos="492" len="12"/>
          <note vol="200" pan="0" key="35" pos="504" len="24"/>
          <note vol="200" pan="0" key="0" pos="504" len="24"/>
          <note vol="200" pan="0" key="1" pos="516" len="24"/>
          <note vol="200" pan="0" key="35" pos="528" len="12"/>
          <note vol="200" pan="0" key="35" pos="540" len="12"/>
          <note vol="200" pan="0" key="35" pos="552" len="12"/>
          <note vol="200" pan="0" key="35" pos="564" len="12"/>
          <note vol="200" pan="0" key="35" pos="576" len="24"/>
          <note vol="200" pan="0" key="0" pos="576" len="24"/>
          <note vol="200" pan="0" key="1" pos="588" len="24"/>
          <note vol="200" pan="0" key="35" pos="600" len="12"/>
          <note vol="200" pan="0" key="35" pos="612" len="12"/>
          <note vol="200" pan="0" key="35" pos="624" len="12"/>
          <note vol="200" pan="0" key="35" pos="636" len="12"/>
          <note vol="200" pan="0" key="35" pos="648" len="24"/>
          <note vol="200" pan="0" key="0" pos="648" len="24"/>
          <note vol="200" pan="0" key="1" pos="660" len="24"/>
          <note vol="200" pan="0" key="35" pos="672" len="12"/>
          <note vol="200" pan="0" key="35" pos="684" len="12"/>
          <note vol="200" pan="0" key="39" pos="696" len="24"/>
          <note vol="200" pan="0" key="40" pos="720" len="24"/>
          <note vol="200" pan="0" key="42" pos="744" len="24"/>
        </pattern>
        <pattern type="1" name="" steps="16" muted="0" pos="31872">
          <note vol="200" pan="0" key="33" pos="0" len="48"/>
          <note vol="200" pan="0" key="0" pos="0" len="24"/>
          <note vol="200" pan="0" key="33" pos="48" len="24"/>
          <note vol="200" pan="0" key="1" pos="60" len="24"/>
          <note vol="200" pan="0" key="33" pos="72" len="12"/>
          <note vol="200" pan="0" key="33" pos="84" len="12"/>
          <note vol="200" pan="0" key="33" pos="96" len="12"/>
          <note vol="200" pan="0" key="33" pos="108" len="12"/>
          <note vol="200" pan="0" key="33" pos="120" len="24"/>
          <note vol="200" pan="0" key="0" pos="120" len="24"/>
          <note vol="200" pan="0" key="1" pos="132" len="24"/>
          <note vol="200" pan="0" key="33" pos="144" len="12"/>
          <note vol="200" pan="0" key="33" pos="156" len="12"/>
          <note vol="200" pan="0" key="33" pos="168" len="12"/>
          <note vol="200" pan="0" key="33" pos="180" len="12"/>
          <note vol="200" pan="0" key="33" pos="192" len="24"/>
          <note vol="200" pan="0" key="0" pos="192" len="24"/>
          <note vol="200" pan="0" key="1" pos="204" len="24"/>
          <note vol="200" pan="0" key="33" pos="216" len="12"/>
          <note vol="200" pan="0" key="33" pos="228" len="12"/>
          <note vol="200" pan="0" key="33" pos="240" len="12"/>
          <note vol="200" pan="0" key="33" pos="252" len="12"/>
          <note vol="200" pan="0" key="33" pos="264" len="24"/>
          <note vol="200" pan="0" key="0" pos="264" len="24"/>
          <note vol="200" pan="0" key="1" pos="276" len="24"/>
          <note vol="200" pan="0" key="33" pos="288" len="12"/>
          <note vol="200" pan="0" key="33" pos="300" len="12"/>
          <note vol="200" pan="0" key="33" pos="312" len="24"/>
          <note vol="200" pan="0" key="0" pos="312" len="24"/>
          <note vol="200" pan="0" key="1" pos="324" len="24"/>
          <note vol="200" pan="0" key="33" pos="336" len="12"/>
          <note vol="200" pan="0" key="33" pos="348" len="12"/>
          <note vol="200" pan="0" key="33" pos="360" len="12"/>
          <note vol="200" pan="0" key="33" pos="372" len="12"/>
          <note vol="200" pan="0" key="35" pos="384" len="48"/>
          <note vol="200" pan="0" key="0" pos="384" len="24"/>
          <note vol="200" pan="0" key="35" pos="432" len="24"/>
          <note vol="200" pan="0" key="1" pos="444" len="24"/>
          <note vol="200" pan="0" key="35" pos="456" len="12"/>
          <note vol="200" pan="0" key="35" pos="468" len="12"/>
          <note vol="200" pan="0" key="35" pos="480" len="12"/>
          <note vol="200" pan="0" key="35" pos="492" len="12"/>
          <note vol="200" pan="0" key="35" pos="504" len="24"/>
          <note vol="200" pan="0" key="0" pos="504" len="24"/>
          <note vol="200" pan="0" key="1" pos="516" len="24"/>
          <note vol="200" pan="0" key="35" pos="528" len="12"/>
          <note vol="200" pan="0" key="35" pos="540" len="12"/>
          <note vol="200" pan="0" key="35" pos="552" len="12"/>
          <note vol="200" pan="0" key="35" pos="564" len="12"/>
          <note vol="200" pan="0" key="35" pos="576" len="24"/>
          <note vol="200" pan="0" key="0" pos="576" len="24"/>
          <note vol="200" pan="0" key="1" pos="588" len="24"/>
          <note vol="200" pan="0" key="35" pos="600" len="12"/>
          <note vol="200" pan="0" key="35" pos="612" len="12"/>
          <note vol="200" pan="0" key="35" pos="624" len="12"/>
          <note vol="200" pan="0" key="35" pos="636" len="12"/>
          <note vol="200" pan="0" key="35" pos="648" len="24"/>
          <note vol="200" pan="0" key="0" pos="648" len="24"/>
          <note vol="200" pan="0" key="1" pos="660" len="24"/>
          <note vol="200" pan="0" key="35" pos="672" len="12"/>
          <note vol="200" pan="0" key="35" pos="684" len="12"/>
          <note vol="200" pan="0" key="35" pos="696" len="24"/>
          <note vol="200" pan="0" key="35" pos="720" len="12"/>
          <note vol="200" pan="0" key="35" pos="732" len="12"/>
          <note vol="200" pan="0" key="35" pos="744" len="12"/>
          <note vol="200" pan="0" key="35" pos="756" len="12"/>
        </pattern>
        <pattern type="1" name="" steps="16" muted="0" pos="32640">
          <note vol="200" pan="0" key="42" pos="0" len="48"/>
          <note vol="200" pan="0" key="0" pos="0" len="24"/>
          <note vol="200" pan="0" key="42" pos="48" len="24"/>
          <note vol="200" pan="0" key="1" pos="60" len="24"/>
          <note vol="200" pan="0" key="42" pos="72" len="12"/>
          <note vol="200" pan="0" key="42" pos="84" len="12"/>
          <note vol="200" pan="0" key="42" pos="96" len="12"/>
          <note vol="200" pan="0" key="42" pos="108" len="12"/>
          <note vol="200" pan="0" key="42" pos="120" len="24"/>
          <note vol="200" pan="0" key="0" pos="120" len="24"/>
          <note vol="200" pan="0" key="1" pos="132" len="24"/>
          <note vol="200" pan="0" key="42" pos="144" len="12"/>
          <note vol="200" pan="0" key="42" pos="156" len="12"/>
          <note vol="200" pan="0" key="42" pos="168" len="12"/>
          <note vol="200" pan="0" key="42" pos="180" len="12"/>
          <note vol="200" pan="0" key="42" pos="192" len="24"/>
          <note vol="200" pan="0" key="0" pos="192" len="24"/>
          <note vol="200" pan="0" key="1" pos="204" len="24"/>
          <note vol="200" pan="0" key="42" pos="216" len="12"/>
          <note vol="200" pan="0" key="42" pos="228" len="12"/>
          <note vol="200" pan="0" key="42" pos="240" len="12"/>
          <note vol="200" pan="0" key="42" pos="252" len="12"/>
          <note vol="200" pan="0" key="42" pos="264" len="24"/>
          <note vol="200" pan="0" key="0" pos="264" len="24"/>
          <note vol="200" pan="0" key="1" pos="276" len="24"/>
          <note vol="200" pan="0" key="42" pos="288" len="12"/>
          <note vol="200" pan="0" key="42" pos="300" len="12"/>
          <note vol="200" pan="0" key="42" pos="312" len="24"/>
          <note vol="200" pan="0" key="0" pos="312" len="24"/>
          <note vol="200" pan="0" key="1" pos="324" len="24"/>
          <note vol="200" pan="0" key="42" pos="336" len="12"/>
          <note vol="200" pan="0" key="42" pos="348" len="12"/>
          <note vol="200" pan="0" key="42" pos="360" len="12"/>
          <note vol="200" pan="0" key="42" pos="372" len="12"/>
          <note vol="200" pan="0" key="32" pos="384" len="48"/>
          <note vol="200" pan="0" key="0" pos="384" len="24"/>
          <note vol="200" pan="0" key="32" pos="432" len="24"/>
          <note vol="200" pan="0" key="1" pos="444" len="24"/>
          <note vol="200" pan="0" key="32" pos="456" len="12"/>
          <note vol="200" pan="0" key="32" pos="468" len="12"/>
          <note vol="200" pan="0" key="32" pos="480" len="12"/>
          <note vol="200" pan="0" key="32" pos="492" len="12"/>
          <note vol="200" pan="0" key="32" pos="504" len="24"/>
          <note vol="200" pan="0" key="0" pos="504" len="24"/>
          <note vol="200" pan="0" key="1" pos="516" len="24"/>
          <note vol="200" pan="0" key="32" pos="528" len="12"/>
          <note vol="200" pan="0" key="32" pos="540" len="12"/>
          <note vol="200" pan="0" key="32" pos="552" len="12"/>
          <note vol="200" pan="0" key="32" pos="564" len="12"/>
          <note vol="200" pan="0" key="32" pos="576" len="24"/>
          <note vol="200" pan="0" key="0" pos="576" len="24"/>
          <note vol="200" pan="0" key="1" pos="588" len="24"/>
          <note vol="200" pan="0" key="32" pos="600" len="12"/>
          <note vol="200" pan="0" key="32" pos="612" len="12"/>
          <note vol="200" pan="0" key="32" pos="624" len="12"/>
          <note vol="200" pan="0" key="32" pos="636" len="12"/>
          <note vol="200" pan="0" key="32" pos="648" len="24"/>
          <note vol="200" pan="0" key="0" pos="648" len="24"/>
          <note vol="200" pan="0" key="1" pos="660" len="24"/>
          <note vol="200" pan="0" key="32" pos="672" len="12"/>
          <note vol="200" pan="0" key="32" pos="684" len="12"/>
          <note vol="200" pan="0" key="32" pos="696" len="24"/>
          <note vol="200" pan="0" key="32" pos="720" len="12"/>
          <note vol="200" pan="0" key="32" pos="732" len="12"/>
          <note vol="200" pan="0" key="32" pos="744" len="12"/>
          <note vol="200" pan="0" key="32" pos="756" len="12"/>
        </pattern>
        <pattern type="1" name="" steps="16" muted="0" pos="33408">
          <note vol="200" pan="0" key="39" pos="0" len="48"/>
          <note vol="200" pan="0" key="0" pos="0" len="24"/>
          <note vol="200" pan="0" key="39" pos="48" len="24"/>
          <note vol="200" pan="0" key="1" pos="60" len="24"/>
          <note vol="200" pan="0" key="39" pos="72" len="12"/>
          <note vol="200" pan="0" key="39" pos="84" len="12"/>
          <note vol="200" pan="0" key="39" pos="96" len="12"/>
          <note vol="200" pan="0" key="39" pos="108" len="12"/>
          <note vol="200" pan="0" key="39" pos="120" len="24"/>
          <note vol="200" pan="0" key="0" pos="120" len="24"/>
          <note vol="200" pan="0" key="1" pos="132" len="24"/>
          <note vol="200" pan="0" key="39" pos="144" len="12"/>
          <note vol="200" pan="0" key="39" pos="156" len="12"/>
          <note vol="200" pan="0" key="39" pos="168" len="12"/>
          <note vol="200" pan="0" key="39" pos="180" len="12"/>
          <note vol="200" pan="0" key="39" pos="192" len="24"/>
          <note vol="200" pan="0" key="0" pos="192" len="24"/>
          <note vol="200" pan="0" key="1" pos="204" len="24"/>
          <note vol="200" pan="0" key="39" pos="216" len="12"/>
          <note vol="200" pan="0" key="39" pos="228" len="12"/>
          <note vol="200" pan="0" key="39" pos="240" len="12"/>
          <note vol="200" pan="0" key="39" pos="252" len="12"/>
          <note vol="200" pan="0" key="39" pos="264" len="24"/>
          <note vol="200" pan="0" key="0" pos="264" len="24"/>
          <note vol="200" pan="0" key="1" pos="276" len="24"/>
          <note vol="200" pan="0" key="39" pos="288" len="12"/>
          <note vol="200" pan="0" key="39" pos="300" len="12"/>
          <note vol="200" pan="0" key="39" pos="312" len="24"/>
          <note vol="200" pan="0" key="0" pos="312" len="24"/>
          <note vol="200" pan="0" key="1" pos="324" len="24"/>
          <note vol="200" pan="0" key="39" pos="336" len="12"/>
          <note vol="200" pan="0" key="39" pos="348" len="12"/>
          <note vol="200" pan="0" key="39" pos="360" len="12"/>
          <note vol="200" pan="0" key="39" pos="372" len="12"/>
          <note vol="200" pan="0" key="38" pos="384" len="48"/>
          <note vol="200" pan="0" key="0" pos="384" len="24"/>
          <note vol="200" pan="0" key="38" pos="432" len="24"/>
          <note vol="200" pan="0" key="1" pos="444" len="24"/>
          <note vol="200" pan="0" key="38" pos="456" len="12"/>
          <note vol="200" pan="0" key="38" pos="468" len="12"/>
          <note vol="200" pan="0" key="38" pos="480" len="12"/>
          <note vol="200" pan="0" key="38" pos="492" len="12"/>
          <note vol="200" pan="0" key="38" pos="504" len="24"/>
          <note vol="200" pan="0" key="0" pos="504" len="24"/>
          <note vol="200" pan="0" key="1" pos="516" len="24"/>
          <note vol="200" pan="0" key="38" pos="528" len="12"/>
          <note vol="200" pan="0" key="38" pos="540" len="12"/>
          <note vol="200" pan="0" key="38" pos="552" len="12"/>
          <note vol="200" pan="0" key="38" pos="564" len="12"/>
          <note vol="200" pan="0" key="38" pos="576" len="24"/>
          <note vol="200" pan="0" key="0" pos="576" len="24"/>
          <note vol="200" pan="0" key="1" pos="588" len="24"/>
          <note vol="200" pan="0" key="38" pos="600" len="12"/>
          <note vol="200" pan="0" key="38" pos="612" len="12"/>
          <note vol="200" pan="0" key="38" pos="624" len="12"/>
          <note vol="200" pan="0" key="38" pos="636" len="12"/>
          <note vol="200" pan="0" key="38" pos="648" len="24"/>
          <note vol="200" pan="0" key="0" pos="648" len="24"/>
          <note vol="200" pan="0" key="1" pos="660" len="24"/>
          <note vol="200" pan="0" key="38" pos="672" len="12"/>
          <note vol="200" pan="0" key="38" pos="684" len="12"/>
          <note vol="200" pan="0" key="38" pos="696" len="24"/>
          <note vol="200" pan="0" key="38" pos="720" len="12"/>
          <note vol="200" pan="0" key="38" pos="732" len="12"/>
          <note vol="200" pan="0" key="38" pos="744" len="12"/>
          <note vol="200" pan="0" key="38" pos="756" len="12"/>
        </pattern>
        <pattern type="1" name="" steps="16" muted="0" pos="34176">
          <note vol="200" pan="0" key="43" pos="0" len="48"/>
          <note vol="200" pan="0" key="0" pos="0" len="24"/>
          <note vol="200" pan="0" key="43" pos="48" len="24"/>
          <note vol="200" pan="0" key="1" pos="60" len="24"/>
          <note vol="200" pan="0" key="43" pos="72" len="12"/>
          <note vol="200" pan="0" key="43" pos="84" len="12"/>
          <note vol="200" pan="0" key="43" pos="96" len="12"/>
          <note vol="200" pan="0" key="43" pos="108" len="12"/>
          <note vol="200" pan="0" key="43" pos="120" len="24"/>
          <note vol="200" pan="0" key="0" pos="120" len="24"/>
          <note vol="200" pan="0" key="1" pos="132" len="24"/>
          <note vol="200" pan="0" key="43" pos="144" len="12"/>
          <note vol="200" pan="0" key="43" pos="156" len="12"/>
          <note vol="200" pan="0" key="43" pos="168" len="12"/>
          <note vol="200" pan="0" key="43" pos="180" len="12"/>
          <note vol="200" pan="0" key="43" pos="192" len="24"/>
          <note vol="200" pan="0" key="0" pos="192" len="24"/>
          <note vol="200" pan="0" key="1" pos="204" len="24"/>
          <note vol="200" pan="0" key="43" pos="216" len="12"/>
          <note vol="200" pan="0" key="43" pos="228" len="12"/>
          <note vol="200" pan="0" key="43" pos="240" len="12"/>
          <note vol="200" pan="0" key="43" pos="252" len="12"/>
          <note vol="200" pan="0" key="43" pos="264" len="24"/>
          <note vol="200" pan="0" key="0" pos="264" len="24"/>
          <note vol="200" pan="0" key="1" pos="276" len="24"/>
          <note vol="200" pan="0" key="43" pos="288" len="12"/>
          <note vol="200" pan="0" key="43" pos="300" len="12"/>
          <note vol="200" pan="0" key="43" pos="312" len="24"/>
          <note vol="200" pan="0" key="0" pos="312" len="24"/>
          <note vol="200" pan="0" key="1" pos="324" len="24"/>
          <note vol="200" pan="0" key="43" pos="336" len="12"/>
          <note vol="200" pan="0" key="43" pos="348" len="12"/>
          <note vol="200" pan="0" key="43" pos="360" len="12"/>
          <note vol="200" pan="0" key="43" pos="372" len="12"/>
          <note vol="200" pan="0" key="44" pos="384" len="48"/>
          <note vol="200" pan="0" key="0" pos="384" len="24"/>
          <note vol="200" pan="0" key="32" pos="432" len="24"/>
          <note vol="200" pan="0" key="1" pos="444" len="24"/>
          <note vol="200" pan="0" key="32" pos="456" len="12"/>
          <note vol="200" pan="0" key="32" pos="468" len="12"/>
          <note vol="200" pan="0" key="32" pos="480" len="12"/>
          <note vol="200" pan="0" key="32" pos="492" len="12"/>
          <note vol="200" pan="0" key="32" pos="504" len="24"/>
          <note vol="200" pan="0" key="0" pos="504" len="24"/>
          <note vol="200" pan="0" key="1" pos="516" len="24"/>
          <note vol="200" pan="0" key="32" pos="528" len="12"/>
          <note vol="200" pan="0" key="32" pos="540" len="12"/>
          <note vol="200" pan="0" key="32" pos="552" len="12"/>
          <note vol="200" pan="0" key="32" pos="564" len="12"/>
          <note vol="200" pan="0" key="39" pos="576" len="192"/>
          <note vol="200" pan="0" key="32" pos="576" len="192"/>
          <note vol="200" pan="0" key="0" pos="576" len="24"/>
        </pattern>
        <pattern type="1" name="" steps="16" muted="0" pos="34944">
          <note vol="197" pan="0" key="44" pos="0" len="192"/>
          <note vol="197" pan="0" key="37" pos="0" len="192"/>
          <note vol="78" pan="0" key="0" pos="0" len="48"/>
          <note vol="197" pan="0" key="51" pos="192" len="192"/>
          <note vol="197" pan="0" key="44" pos="192" len="192"/>
          <note vol="197" pan="0" key="52" pos="384" len="192"/>
          <note vol="197" pan="0" key="45" pos="384" len="192"/>
          <note vol="197" pan="0" key="54" pos="576" len="192"/>
          <note vol="197" pan="0" key="47" pos="576" len="192"/>
          <note vol="197" pan="0" key="1" pos="756" len="12"/>
          <note vol="197" pan="0" key="42" pos="768" len="12"/>
          <note vol="197" pan="0" key="42" pos="780" len="12"/>
          <note vol="197" pan="0" key="42" pos="792" len="12"/>
          <note vol="197" pan="0" key="42" pos="804" len="12"/>
          <note vol="197" pan="0" key="42" pos="816" len="12"/>
          <note vol="197" pan="0" key="42" pos="828" len="12"/>
          <note vol="197" pan="0" key="42" pos="840" len="12"/>
          <note vol="197" pan="0" key="42" pos="852" len="12"/>
          <note vol="197" pan="0" key="42" pos="864" len="12"/>
          <note vol="197" pan="0" key="42" pos="876" len="12"/>
          <note vol="197" pan="0" key="42" pos="888" len="12"/>
          <note vol="197" pan="0" key="42" pos="900" len="12"/>
          <note vol="197" pan="0" key="42" pos="912" len="12"/>
          <note vol="197" pan="0" key="42" pos="924" len="12"/>
          <note vol="197" pan="0" key="42" pos="936" len="12"/>
          <note vol="197" pan="0" key="42" pos="948" len="12"/>
          <note vol="197" pan="0" key="44" pos="960" len="12"/>
          <note vol="197" pan="0" key="44" pos="972" len="12"/>
          <note vol="197" pan="0" key="44" pos="984" len="12"/>
          <note vol="197" pan="0" key="44" pos="996" len="12"/>
          <note vol="197" pan="0" key="44" pos="1008" len="12"/>
          <note vol="197" pan="0" key="44" pos="1020" len="12"/>
          <note vol="197" pan="0" key="44" pos="1032" len="12"/>
          <note vol="197" pan="0" key="44" pos="1044" len="12"/>
          <note vol="197" pan="0" key="44" pos="1056" len="12"/>
          <note vol="197" pan="0" key="44" pos="1068" len="12"/>
          <note vol="197" pan="0" key="44" pos="1080" len="12"/>
          <note vol="197" pan="0" key="44" pos="1092" len="12"/>
          <note vol="197" pan="0" key="44" pos="1104" len="12"/>
          <note vol="197" pan="0" key="44" pos="1116" len="12"/>
          <note vol="197" pan="0" key="44" pos="1128" len="12"/>
          <note vol="197" pan="0" key="44" pos="1140" len="12"/>
          <note vol="197" pan="0" key="45" pos="1152" len="12"/>
          <note vol="197" pan="0" key="45" pos="1164" len="12"/>
          <note vol="197" pan="0" key="45" pos="1176" len="12"/>
          <note vol="197" pan="0" key="45" pos="1188" len="12"/>
          <note vol="197" pan="0" key="45" pos="1200" len="12"/>
          <note vol="197" pan="0" key="45" pos="1212" len="12"/>
          <note vol="197" pan="0" key="45" pos="1224" len="12"/>
          <note vol="197" pan="0" key="45" pos="1236" len="12"/>
          <note vol="197" pan="0" key="45" pos="1248" len="12"/>
          <note vol="197" pan="0" key="45" pos="1260" len="12"/>
          <note vol="197" pan="0" key="45" pos="1272" len="12"/>
          <note vol="197" pan="0" key="45" pos="1284" len="12"/>
          <note vol="197" pan="0" key="45" pos="1296" len="12"/>
          <note vol="197" pan="0" key="45" pos="1308" len="12"/>
          <note vol="197" pan="0" key="45" pos="1320" len="12"/>
          <note vol="197" pan="0" key="45" pos="1332" len="12"/>
          <note vol="197" pan="0" key="54" pos="1344" len="48"/>
          <note vol="197" pan="0" key="47" pos="1344" len="48"/>
          <note vol="197" pan="0" key="0" pos="1344" len="12"/>
          <note vol="197" pan="0" key="54" pos="1392" len="48"/>
          <note vol="197" pan="0" key="47" pos="1392" len="48"/>
          <note vol="197" pan="0" key="51" pos="1440" len="48"/>
          <note vol="197" pan="0" key="44" pos="1440" len="48"/>
          <note vol="197" pan="0" key="54" pos="1488" len="48"/>
          <note vol="197" pan="0" key="47" pos="1488" len="48"/>
        </pattern>
        <pattern type="1" name="" steps="16" muted="0" pos="36480">
          <note vol="197" pan="0" key="49" pos="0" len="24"/>
          <note vol="197" pan="0" key="0" pos="0" len="12"/>
          <note vol="197" pan="0" key="47" pos="24" len="24"/>
          <note vol="197" pan="0" key="49" pos="48" len="24"/>
          <note vol="197" pan="0" key="56" pos="72" len="24"/>
          <note vol="197" pan="0" key="1" pos="84" len="12"/>
          <note vol="197" pan="0" key="49" pos="96" len="12"/>
          <note vol="197" pan="0" key="49" pos="108" len="12"/>
          <note vol="197" pan="0" key="49" pos="120" len="12"/>
          <note vol="197" pan="0" key="49" pos="132" len="12"/>
          <note vol="197" pan="0" key="49" pos="144" len="12"/>
          <note vol="197" pan="0" key="49" pos="156" len="12"/>
          <note vol="197" pan="0" key="49" pos="168" len="12"/>
          <note vol="197" pan="0" key="49" pos="180" len="12"/>
        </pattern>
        <pattern type="1" name="" steps="16" muted="0" pos="36672">
          <note vol="197" pan="0" key="42" pos="0" len="24"/>
          <note vol="197" pan="0" key="0" pos="0" len="12"/>
          <note vol="197" pan="0" key="40" pos="24" len="24"/>
          <note vol="197" pan="0" key="42" pos="48" len="24"/>
          <note vol="197" pan="0" key="49" pos="72" len="24"/>
          <note vol="197" pan="0" key="1" pos="84" len="12"/>
          <note vol="197" pan="0" key="42" pos="96" len="12"/>
          <note vol="197" pan="0" key="42" pos="108" len="12"/>
          <note vol="197" pan="0" key="42" pos="120" len="12"/>
          <note vol="197" pan="0" key="42" pos="132" len="12"/>
          <note vol="197" pan="0" key="42" pos="144" len="12"/>
          <note vol="197" pan="0" key="42" pos="156" len="12"/>
          <note vol="197" pan="0" key="42" pos="168" len="12"/>
          <note vol="197" pan="0" key="42" pos="180" len="12"/>
        </pattern>
        <pattern type="1" name="" steps="16" muted="0" pos="36864">
          <note vol="78" pan="0" key="44" pos="0" len="24"/>
          <note vol="78" pan="0" key="1" pos="0" len="24"/>
          <note vol="78" pan="0" key="47" pos="24" len="24"/>
          <note vol="78" pan="0" key="44" pos="48" len="24"/>
          <note vol="78" pan="0" key="0" pos="60" len="24"/>
          <note vol="78" pan="0" key="51" pos="72" len="48"/>
          <note vol="78" pan="0" key="1" pos="108" len="24"/>
          <note vol="78" pan="0" key="44" pos="120" len="24"/>
          <note vol="78" pan="0" key="47" pos="144" len="24"/>
          <note vol="78" pan="0" key="51" pos="168" len="24"/>
          <note vol="78" pan="0" key="45" pos="192" len="12"/>
          <note vol="78" pan="0" key="45" pos="204" len="12"/>
          <note vol="78" pan="0" key="45" pos="216" len="12"/>
          <note vol="78" pan="0" key="45" pos="228" len="12"/>
          <note vol="78" pan="0" key="45" pos="240" len="12"/>
          <note vol="78" pan="0" key="45" pos="252" len="12"/>
          <note vol="78" pan="0" key="49" pos="264" len="12"/>
          <note vol="78" pan="0" key="49" pos="276" len="12"/>
          <note vol="78" pan="0" key="47" pos="288" len="12"/>
          <note vol="78" pan="0" key="47" pos="300" len="12"/>
          <note vol="78" pan="0" key="47" pos="312" len="12"/>
          <note vol="78" pan="0" key="47" pos="324" len="12"/>
          <note vol="78" pan="0" key="51" pos="336" len="12"/>
          <note vol="78" pan="0" key="51" pos="348" len="12"/>
          <note vol="78" pan="0" key="47" pos="360" len="12"/>
          <note vol="78" pan="0" key="47" pos="372" len="12"/>
        </pattern>
        <pattern type="1" name="" steps="16" muted="0" pos="38784">
          <note vol="197" pan="0" key="42" pos="0" len="24"/>
          <note vol="197" pan="0" key="1" pos="0" len="24"/>
          <note vol="197" pan="0" key="40" pos="24" len="24"/>
          <note vol="197" pan="0" key="42" pos="48" len="24"/>
          <note vol="197" pan="0" key="0" pos="60" len="24"/>
          <note vol="197" pan="0" key="49" pos="72" len="24"/>
          <note vol="197" pan="0" key="1" pos="84" len="24"/>
          <note vol="197" pan="0" key="42" pos="96" len="24"/>
          <note vol="197" pan="0" key="0" pos="108" len="24"/>
          <note vol="197" pan="0" key="52" pos="120" len="24"/>
          <note vol="197" pan="0" key="47" pos="144" len="24"/>
          <note vol="197" pan="0" key="49" pos="168" len="24"/>
          <note vol="197" pan="0" key="42" pos="192" len="24"/>
          <note vol="197" pan="0" key="40" pos="216" len="24"/>
          <note vol="197" pan="0" key="42" pos="240" len="24"/>
          <note vol="197" pan="0" key="49" pos="264" len="24"/>
          <note vol="197" pan="0" key="42" pos="288" len="24"/>
          <note vol="197" pan="0" key="52" pos="312" len="24"/>
          <note vol="197" pan="0" key="54" pos="336" len="24"/>
          <note vol="197" pan="0" key="52" pos="360" len="24"/>
        </pattern>
        <pattern type="1" name="" steps="16" muted="0" pos="37248">
          <note vol="197" pan="0" key="49" pos="0" len="24"/>
          <note vol="197" pan="0" key="0" pos="0" len="12"/>
          <note vol="197" pan="0" key="47" pos="24" len="24"/>
          <note vol="197" pan="0" key="49" pos="48" len="24"/>
          <note vol="197" pan="0" key="56" pos="72" len="24"/>
          <note vol="197" pan="0" key="1" pos="84" len="12"/>
          <note vol="197" pan="0" key="49" pos="96" len="12"/>
          <note vol="197" pan="0" key="49" pos="108" len="12"/>
          <note vol="197" pan="0" key="49" pos="120" len="12"/>
          <note vol="197" pan="0" key="49" pos="132" len="12"/>
          <note vol="197" pan="0" key="49" pos="144" len="12"/>
          <note vol="197" pan="0" key="49" pos="156" len="12"/>
          <note vol="197" pan="0" key="49" pos="168" len="12"/>
          <note vol="197" pan="0" key="49" pos="180" len="12"/>
        </pattern>
        <pattern type="1" name="" steps="16" muted="0" pos="37440">
          <note vol="197" pan="0" key="42" pos="0" len="24"/>
          <note vol="197" pan="0" key="0" pos="0" len="12"/>
          <note vol="197" pan="0" key="40" pos="24" len="24"/>
          <note vol="197" pan="0" key="42" pos="48" len="24"/>
          <note vol="197" pan="0" key="49" pos="72" len="24"/>
          <note vol="197" pan="0" key="1" pos="84" len="12"/>
          <note vol="197" pan="0" key="42" pos="96" len="12"/>
          <note vol="197" pan="0" key="42" pos="108" len="12"/>
          <note vol="197" pan="0" key="42" pos="120" len="12"/>
          <note vol="197" pan="0" key="42" pos="132" len="12"/>
          <note vol="197" pan="0" key="42" pos="144" len="12"/>
          <note vol="197" pan="0" key="42" pos="156" len="12"/>
          <note vol="197" pan="0" key="42" pos="168" len="12"/>
          <note vol="197" pan="0" key="42" pos="180" len="12"/>
        </pattern>
        <pattern type="1" name="" steps="16" muted="0" pos="37632">
          <note vol="78" pan="0" key="44" pos="0" len="24"/>
          <note vol="78" pan="0" key="1" pos="0" len="24"/>
          <note vol="78" pan="0" key="47" pos="24" len="24"/>
          <note vol="78" pan="0" key="44" pos="48" len="24"/>
          <note vol="78" pan="0" key="0" pos="60" len="24"/>
          <note vol="78" pan="0" key="51" pos="72" len="48"/>
          <note vol="78" pan="0" key="1" pos="108" len="24"/>
          <note vol="78" pan="0" key="44" pos="120" len="24"/>
          <note vol="78" pan="0" key="47" pos="144" len="24"/>
          <note vol="78" pan="0" key="51" pos="168" len="24"/>
          <note vol="78" pan="0" key="45" pos="192" len="12"/>
          <note vol="78" pan="0" key="45" pos="204" len="12"/>
          <note vol="78" pan="0" key="45" pos="216" len="12"/>
          <note vol="78" pan="0" key="45" pos="228" len="12"/>
          <note vol="78" pan="0" key="45" pos="240" len="12"/>
          <note vol="78" pan="0" key="45" pos="252" len="12"/>
          <note vol="78" pan="0" key="49" pos="264" len="12"/>
          <note vol="78" pan="0" key="49" pos="276" len="12"/>
          <note vol="78" pan="0" key="47" pos="288" len="12"/>
          <note vol="78" pan="0" key="47" pos="300" len="12"/>
          <note vol="78" pan="0" key="47" pos="312" len="12"/>
          <note vol="78" pan="0" key="47" pos="324" len="12"/>
          <note vol="78" pan="0" key="51" pos="336" len="12"/>
          <note vol="78" pan="0" key="51" pos="348" len="12"/>
          <note vol="78" pan="0" key="47" pos="360" len="12"/>
          <note vol="78" pan="0" key="47" pos="372" len="12"/>
        </pattern>
        <pattern type="1" name="" steps="16" muted="0" pos="38016">
          <note vol="200" pan="0" key="38" pos="0" len="12"/>
          <note vol="200" pan="0" key="1" pos="0" len="24"/>
          <note vol="200" pan="0" key="38" pos="12" len="12"/>
          <note vol="200" pan="0" key="38" pos="24" len="24"/>
          <note vol="200" pan="0" key="38" pos="48" len="12"/>
          <note vol="200" pan="0" key="38" pos="60" len="12"/>
          <note vol="200" pan="0" key="38" pos="72" len="24"/>
          <note vol="200" pan="0" key="38" pos="96" len="12"/>
          <note vol="200" pan="0" key="38" pos="108" len="12"/>
          <note vol="200" pan="0" key="38" pos="120" len="24"/>
          <note vol="200" pan="0" key="38" pos="144" len="12"/>
          <note vol="200" pan="0" key="38" pos="156" len="12"/>
          <note vol="200" pan="0" key="38" pos="168" len="24"/>
          <note vol="200" pan="0" key="38" pos="192" len="12"/>
          <note vol="200" pan="0" key="38" pos="204" len="12"/>
          <note vol="200" pan="0" key="38" pos="216" len="24"/>
          <note vol="200" pan="0" key="38" pos="240" len="12"/>
          <note vol="200" pan="0" key="38" pos="252" len="12"/>
          <note vol="200" pan="0" key="38" pos="264" len="24"/>
          <note vol="200" pan="0" key="38" pos="288" len="12"/>
          <note vol="200" pan="0" key="38" pos="300" len="12"/>
          <note vol="200" pan="0" key="38" pos="312" len="24"/>
          <note vol="200" pan="0" key="38" pos="336" len="12"/>
          <note vol="200" pan="0" key="38" pos="348" len="12"/>
          <note vol="200" pan="0" key="38" pos="360" len="24"/>
          <note vol="200" pan="0" key="37" pos="384" len="12"/>
          <note vol="200" pan="0" key="37" pos="396" len="12"/>
          <note vol="200" pan="0" key="37" pos="408" len="24"/>
          <note vol="200" pan="0" key="37" pos="432" len="12"/>
          <note vol="200" pan="0" key="37" pos="444" len="12"/>
          <note vol="200" pan="0" key="37" pos="456" len="24"/>
          <note vol="200" pan="0" key="37" pos="480" len="12"/>
          <note vol="200" pan="0" key="37" pos="492" len="12"/>
          <note vol="200" pan="0" key="37" pos="504" len="24"/>
          <note vol="200" pan="0" key="37" pos="528" len="12"/>
          <note vol="200" pan="0" key="37" pos="540" len="12"/>
          <note vol="200" pan="0" key="37" pos="552" len="24"/>
          <note vol="200" pan="0" key="35" pos="576" len="12"/>
          <note vol="200" pan="0" key="35" pos="588" len="12"/>
          <note vol="200" pan="0" key="35" pos="600" len="24"/>
          <note vol="200" pan="0" key="35" pos="624" len="12"/>
          <note vol="200" pan="0" key="35" pos="636" len="12"/>
          <note vol="200" pan="0" key="35" pos="648" len="24"/>
          <note vol="200" pan="0" key="35" pos="672" len="12"/>
          <note vol="200" pan="0" key="35" pos="684" len="12"/>
          <note vol="200" pan="0" key="35" pos="696" len="24"/>
          <note vol="200" pan="0" key="35" pos="720" len="12"/>
          <note vol="200" pan="0" key="35" pos="732" len="12"/>
          <note vol="200" pan="0" key="35" pos="744" len="24"/>
        </pattern>
        <pattern type="1" name="" steps="16" muted="0" pos="39168">
          <note vol="78" pan="0" key="46" pos="0" len="24"/>
          <note vol="78" pan="0" key="39" pos="0" len="24"/>
          <note vol="78" pan="0" key="0" pos="0" len="12"/>
          <note vol="78" pan="0" key="1" pos="12" len="12"/>
          <note vol="78" pan="0" key="39" pos="24" len="12"/>
          <note vol="78" pan="0" key="39" pos="36" len="12"/>
          <note vol="78" pan="0" key="39" pos="48" len="12"/>
          <note vol="78" pan="0" key="39" pos="60" len="12"/>
          <note vol="78" pan="0" key="39" pos="72" len="12"/>
          <note vol="78" pan="0" key="39" pos="84" len="12"/>
          <note vol="78" pan="0" key="39" pos="96" len="12"/>
          <note vol="78" pan="0" key="39" pos="108" len="12"/>
          <note vol="78" pan="0" key="39" pos="120" len="12"/>
          <note vol="78" pan="0" key="39" pos="132" len="12"/>
          <note vol="78" pan="0" key="39" pos="144" len="12"/>
          <note vol="78" pan="0" key="39" pos="156" len="12"/>
          <note vol="78" pan="0" key="39" pos="168" len="12"/>
          <note vol="78" pan="0" key="39" pos="180" len="12"/>
          <note vol="78" pan="0" key="52" pos="192" len="96"/>
          <note vol="78" pan="0" key="45" pos="192" len="96"/>
          <note vol="78" pan="0" key="0" pos="192" len="12"/>
          <note vol="78" pan="0" key="51" pos="288" len="96"/>
          <note vol="78" pan="0" key="44" pos="288" len="96"/>
        </pattern>
        <pattern type="1" name="" steps="16" muted="0" pos="39552">
          <note vol="195" pan="0" key="44" pos="0" len="48"/>
          <note vol="195" pan="0" key="37" pos="0" len="48"/>
          <note vol="195" pan="0" key="0" pos="0" len="36"/>
          <note vol="195" pan="0" key="1" pos="36" len="36"/>
          <note vol="195" pan="0" key="37" pos="48" len="12"/>
          <note vol="195" pan="0" key="37" pos="60" len="12"/>
          <note vol="195" pan="0" key="37" pos="72" len="12"/>
          <note vol="195" pan="0" key="37" pos="84" len="12"/>
          <note vol="195" pan="0" key="37" pos="96" len="12"/>
          <note vol="195" pan="0" key="37" pos="108" len="12"/>
          <note vol="195" pan="0" key="37" pos="120" len="12"/>
          <note vol="195" pan="0" key="37" pos="132" len="12"/>
          <note vol="195" pan="0" key="37" pos="144" len="12"/>
          <note vol="195" pan="0" key="37" pos="156" len="12"/>
          <note vol="195" pan="0" key="37" pos="168" len="12"/>
          <note vol="195" pan="0" key="37" pos="180" len="12"/>
          <note vol="195" pan="0" key="0" pos="180" len="36"/>
          <note vol="195" pan="0" key="51" pos="192" len="48"/>
          <note vol="195" pan="0" key="44" pos="192" len="48"/>
          <note vol="195" pan="0" key="1" pos="216" len="36"/>
          <note vol="195" pan="0" key="44" pos="240" len="12"/>
          <note vol="195" pan="0" key="44" pos="252" len="12"/>
          <note vol="195" pan="0" key="44" pos="264" len="12"/>
          <note vol="195" pan="0" key="44" pos="276" len="12"/>
          <note vol="195" pan="0" key="44" pos="288" len="12"/>
          <note vol="195" pan="0" key="44" pos="300" len="12"/>
          <note vol="195" pan="0" key="44" pos="312" len="12"/>
          <note vol="195" pan="0" key="44" pos="324" len="12"/>
          <note vol="195" pan="0" key="44" pos="336" len="12"/>
          <note vol="195" pan="0" key="44" pos="348" len="12"/>
          <note vol="195" pan="0" key="44" pos="360" len="12"/>
          <note vol="195" pan="0" key="44" pos="372" len="12"/>
          <note vol="195" pan="0" key="0" pos="372" len="36"/>
          <note vol="195" pan="0" key="52" pos="384" len="48"/>
          <note vol="195" pan="0" key="45" pos="384" len="48"/>
          <note vol="195" pan="0" key="1" pos="408" len="36"/>
          <note vol="195" pan="0" key="45" pos="432" len="12"/>
          <note vol="195" pan="0" key="45" pos="444" len="12"/>
          <note vol="195" pan="0" key="45" pos="456" len="12"/>
          <note vol="195" pan="0" key="45" pos="468" len="12"/>
          <note vol="195" pan="0" key="45" pos="480" len="12"/>
          <note vol="195" pan="0" key="45" pos="492" len="12"/>
          <note vol="195" pan="0" key="45" pos="504" len="12"/>
          <note vol="195" pan="0" key="45" pos="516" len="12"/>
          <note vol="195" pan="0" key="45" pos="528" len="12"/>
          <note vol="195" pan="0" key="45" pos="540" len="12"/>
          <note vol="195" pan="0" key="45" pos="552" len="12"/>
          <note vol="195" pan="0" key="45" pos="564" len="12"/>
          <note vol="195" pan="0" key="0" pos="564" len="36"/>
          <note vol="195" pan="0" key="54" pos="576" len="48"/>
          <note vol="195" pan="0" key="47" pos="576" len="48"/>
          <note vol="195" pan="0" key="1" pos="600" len="36"/>
          <note vol="195" pan="0" key="47" pos="624" len="12"/>
          <note vol="195" pan="0" key="47" pos="636" len="12"/>
          <note vol="195" pan="0" key="47" pos="648" len="12"/>
          <note vol="195" pan="0" key="47" pos="660" len="12"/>
          <note vol="195" pan="0" key="47" pos="672" len="12"/>
          <note vol="195" pan="0" key="47" pos="684" len="12"/>
          <note vol="195" pan="0" key="47" pos="696" len="12"/>
          <note vol="195" pan="0" key="47" pos="708" len="12"/>
          <note vol="195" pan="0" key="47" pos="720" len="12"/>
          <note vol="195" pan="0" key="47" pos="732" len="12"/>
          <note vol="195" pan="0" key="47" pos="744" len="12"/>
          <note vol="195" pan="0" key="47" pos="756" len="12"/>
          <note vol="195" pan="0" key="49" pos="768" len="48"/>
          <note vol="195" pan="0" key="42" pos="768" len="48"/>
          <note vol="195" pan="0" key="0" pos="768" len="36"/>
          <note vol="195" pan="0" key="1" pos="792" len="36"/>
          <note vol="195" pan="0" key="42" pos="816" len="12"/>
          <note vol="195" pan="0" key="42" pos="828" len="12"/>
          <note vol="195" pan="0" key="42" pos="840" len="12"/>
          <note vol="195" pan="0" key="42" pos="852" len="12"/>
          <note vol="195" pan="0" key="42" pos="864" len="12"/>
          <note vol="195" pan="0" key="42" pos="876" len="12"/>
          <note vol="195" pan="0" key="42" pos="888" len="12"/>
          <note vol="195" pan="0" key="42" pos="900" len="12"/>
          <note vol="195" pan="0" key="42" pos="912" len="12"/>
          <note vol="195" pan="0" key="42" pos="924" len="12"/>
          <note vol="195" pan="0" key="42" pos="936" len="12"/>
          <note vol="195" pan="0" key="42" pos="948" len="12"/>
          <note vol="195" pan="0" key="0" pos="948" len="36"/>
          <note vol="195" pan="0" key="51" pos="960" len="48"/>
          <note vol="195" pan="0" key="44" pos="960" len="48"/>
          <note vol="195" pan="0" key="1" pos="984" len="36"/>
          <note vol="195" pan="0" key="44" pos="1008" len="12"/>
          <note vol="195" pan="0" key="44" pos="1020" len="12"/>
          <note vol="195" pan="0" key="44" pos="1032" len="12"/>
          <note vol="195" pan="0" key="44" pos="1044" len="12"/>
          <note vol="195" pan="0" key="44" pos="1056" len="12"/>
          <note vol="195" pan="0" key="44" pos="1068" len="12"/>
          <note vol="195" pan="0" key="44" pos="1080" len="12"/>
          <note vol="195" pan="0" key="44" pos="1092" len="12"/>
          <note vol="195" pan="0" key="44" pos="1104" len="12"/>
          <note vol="195" pan="0" key="44" pos="1116" len="12"/>
          <note vol="195" pan="0" key="44" pos="1128" len="12"/>
          <note vol="195" pan="0" key="44" pos="1140" len="12"/>
          <note vol="195" pan="0" key="0" pos="1140" len="36"/>
          <note vol="195" pan="0" key="52" pos="1152" len="48"/>
          <note vol="195" pan="0" key="45" pos="1152" len="48"/>
          <note vol="195" pan="0" key="1" pos="1176" len="36"/>
          <note vol="195" pan="0" key="45" pos="1200" len="12"/>
          <note vol="195" pan="0" key="45" pos="1212" len="12"/>
          <note vol="195" pan="0" key="45" pos="1224" len="12"/>
          <note vol="195" pan="0" key="45" pos="1236" len="12"/>
          <note vol="195" pan="0" key="45" pos="1248" len="12"/>
          <note vol="195" pan="0" key="45" pos="1260" len="12"/>
          <note vol="195" pan="0" key="45" pos="1272" len="12"/>
          <note vol="195" pan="0" key="45" pos="1284" len="12"/>
          <note vol="195" pan="0" key="45" pos="1296" len="12"/>
          <note vol="195" pan="0" key="45" pos="1308" len="12"/>
          <note vol="195" pan="0" key="45" pos="1320" len="12"/>
          <note vol="195" pan="0" key="45" pos="1332" len="12"/>
          <note vol="195" pan="0" key="0" pos="1332" len="36"/>
          <note vol="195" pan="0" key="54" pos="1344" len="48"/>
          <note vol="195" pan="0" key="47" pos="1344" len="48"/>
          <note vol="195" pan="0" key="1" pos="1368" len="36"/>
          <note vol="195" pan="0" key="47" pos="1392" len="12"/>
          <note vol="195" pan="0" key="47" pos="1404" len="12"/>
          <note vol="195" pan="0" key="47" pos="1416" len="12"/>
          <note vol="195" pan="0" key="47" pos="1428" len="12"/>
          <note vol="195" pan="0" key="48" pos="1440" len="12"/>
          <note vol="195" pan="0" key="48" pos="1452" len="12"/>
          <note vol="195" pan="0" key="48" pos="1464" len="12"/>
          <note vol="195" pan="0" key="1" pos="1464" len="36"/>
          <note vol="195" pan="0" key="48" pos="1476" len="12"/>
          <note vol="195" pan="0" key="48" pos="1488" len="12"/>
          <note vol="195" pan="0" key="48" pos="1500" len="12"/>
          <note vol="195" pan="0" key="48" pos="1512" len="12"/>
          <note vol="195" pan="0" key="48" pos="1524" len="12"/>
          <note vol="195" pan="0" key="0" pos="1524" len="36"/>
          <note vol="195" pan="0" key="44" pos="1536" len="48"/>
          <note vol="195" pan="0" key="37" pos="1536" len="48"/>
          <note vol="195" pan="0" key="1" pos="1560" len="36"/>
          <note vol="195" pan="0" key="37" pos="1584" len="12"/>
          <note vol="195" pan="0" key="37" pos="1596" len="12"/>
          <note vol="195" pan="0" key="37" pos="1608" len="12"/>
          <note vol="195" pan="0" key="37" pos="1620" len="12"/>
          <note vol="195" pan="0" key="37" pos="1632" len="12"/>
          <note vol="195" pan="0" key="37" pos="1644" len="12"/>
          <note vol="195" pan="0" key="37" pos="1656" len="12"/>
          <note vol="195" pan="0" key="37" pos="1668" len="12"/>
          <note vol="195" pan="0" key="37" pos="1680" len="12"/>
          <note vol="195" pan="0" key="37" pos="1692" len="12"/>
          <note vol="195" pan="0" key="37" pos="1704" len="12"/>
          <note vol="195" pan="0" key="37" pos="1716" len="12"/>
          <note vol="195" pan="0" key="0" pos="1716" len="36"/>
          <note vol="195" pan="0" key="54" pos="1728" len="48"/>
          <note vol="195" pan="0" key="47" pos="1728" len="48"/>
          <note vol="195" pan="0" key="1" pos="1752" len="36"/>
          <note vol="195" pan="0" key="47" pos="1776" len="12"/>
          <note vol="195" pan="0" key="47" pos="1788" len="12"/>
          <note vol="195" pan="0" key="47" pos="1800" len="12"/>
          <note vol="195" pan="0" key="47" pos="1812" len="12"/>
          <note vol="195" pan="0" key="47" pos="1824" len="12"/>
          <note vol="195" pan="0" key="47" pos="1836" len="12"/>
          <note vol="195" pan="0" key="47" pos="1848" len="12"/>
          <note vol="195" pan="0" key="47" pos="1860" len="12"/>
          <note vol="195" pan="0" key="47" pos="1872" len="12"/>
          <note vol="195" pan="0" key="47" pos="1884" len="12"/>
          <note vol="195" pan="0" key="47" pos="1896" len="12"/>
          <note vol="195" pan="0" key="47" pos="1908" len="12"/>
          <note vol="195" pan="0" key="0" pos="1908" len="36"/>
          <note vol="195" pan="0" key="54" pos="1920" len="48"/>
          <note vol="195" pan="0" key="46" pos="1920" len="48"/>
          <note vol="195" pan="0" key="1" pos="1944" len="36"/>
          <note vol="195" pan="0" key="46" pos="1968" len="12"/>
          <note vol="195" pan="0" key="46" pos="1980" len="12"/>
          <note vol="195" pan="0" key="46" pos="1992" len="12"/>
          <note vol="195" pan="0" key="46" pos="2004" len="12"/>
          <note vol="195" pan="0" key="46" pos="2016" len="12"/>
          <note vol="195" pan="0" key="46" pos="2028" len="12"/>
          <note vol="195" pan="0" key="46" pos="2040" len="12"/>
          <note vol="195" pan="0" key="46" pos="2052" len="12"/>
          <note vol="195" pan="0" key="46" pos="2064" len="12"/>
          <note vol="195" pan="0" key="46" pos="2076" len="12"/>
          <note vol="195" pan="0" key="46" pos="2088" len="12"/>
          <note vol="195" pan="0" key="46" pos="2100" len="12"/>
          <note vol="195" pan="0" key="0" pos="2100" len="36"/>
          <note vol="195" pan="0" key="49" pos="2112" len="48"/>
          <note vol="195" pan="0" key="42" pos="2112" len="48"/>
          <note vol="195" pan="0" key="1" pos="2136" len="36"/>
          <note vol="195" pan="0" key="42" pos="2160" len="12"/>
          <note vol="195" pan="0" key="42" pos="2172" len="12"/>
          <note vol="195" pan="0" key="42" pos="2184" len="12"/>
          <note vol="195" pan="0" key="42" pos="2196" len="12"/>
          <note vol="195" pan="0" key="0" pos="2196" len="36"/>
          <note vol="195" pan="0" key="47" pos="2208" len="48"/>
          <note vol="195" pan="0" key="40" pos="2208" len="48"/>
          <note vol="195" pan="0" key="1" pos="2232" len="36"/>
          <note vol="195" pan="0" key="40" pos="2256" len="12"/>
          <note vol="195" pan="0" key="40" pos="2268" len="12"/>
          <note vol="195" pan="0" key="40" pos="2280" len="12"/>
          <note vol="195" pan="0" key="40" pos="2292" len="12"/>
          <note vol="195" pan="0" key="0" pos="2292" len="36"/>
          <note vol="195" pan="0" key="45" pos="2304" len="48"/>
          <note vol="195" pan="0" key="38" pos="2304" len="48"/>
          <note vol="195" pan="0" key="1" pos="2328" len="36"/>
          <note vol="195" pan="0" key="38" pos="2352" len="12"/>
          <note vol="195" pan="0" key="38" pos="2364" len="12"/>
          <note vol="195" pan="0" key="38" pos="2376" len="12"/>
          <note vol="195" pan="0" key="38" pos="2388" len="12"/>
          <note vol="195" pan="0" key="38" pos="2400" len="12"/>
          <note vol="195" pan="0" key="38" pos="2412" len="12"/>
          <note vol="195" pan="0" key="38" pos="2424" len="12"/>
          <note vol="195" pan="0" key="38" pos="2436" len="12"/>
          <note vol="195" pan="0" key="38" pos="2448" len="12"/>
          <note vol="195" pan="0" key="38" pos="2460" len="12"/>
          <note vol="195" pan="0" key="38" pos="2472" len="12"/>
          <note vol="195" pan="0" key="38" pos="2484" len="12"/>
          <note vol="195" pan="0" key="0" pos="2484" len="36"/>
          <note vol="195" pan="0" key="52" pos="2496" len="48"/>
          <note vol="195" pan="0" key="45" pos="2496" len="48"/>
          <note vol="195" pan="0" key="1" pos="2520" len="36"/>
          <note vol="195" pan="0" key="45" pos="2544" len="12"/>
          <note vol="195" pan="0" key="45" pos="2556" len="12"/>
          <note vol="195" pan="0" key="45" pos="2568" len="12"/>
          <note vol="195" pan="0" key="45" pos="2580" len="12"/>
          <note vol="195" pan="0" key="45" pos="2592" len="12"/>
          <note vol="195" pan="0" key="45" pos="2604" len="12"/>
          <note vol="195" pan="0" key="45" pos="2616" len="12"/>
          <note vol="195" pan="0" key="45" pos="2628" len="12"/>
          <note vol="195" pan="0" key="45" pos="2640" len="12"/>
          <note vol="195" pan="0" key="45" pos="2652" len="12"/>
          <note vol="195" pan="0" key="45" pos="2664" len="12"/>
          <note vol="195" pan="0" key="45" pos="2676" len="12"/>
          <note vol="100" pan="0" key="42" pos="2688" len="384"/>
          <note vol="195" pan="0" key="35" pos="2688" len="384"/>
          <note vol="195" pan="0" key="0" pos="2688" len="36"/>
        </pattern>
        <pattern type="1" name="" steps="16" muted="0" pos="43776">
          <note vol="78" pan="0" key="0" pos="0" len="96"/>
          <note vol="78" pan="0" key="40" pos="96" len="96"/>
          <note vol="78" pan="0" key="33" pos="96" len="96"/>
          <note vol="78" pan="0" key="42" pos="192" len="96"/>
          <note vol="78" pan="0" key="35" pos="192" len="96"/>
          <note vol="78" pan="0" key="44" pos="288" len="96"/>
          <note vol="78" pan="0" key="37" pos="288" len="96"/>
        </pattern>
        <pattern type="1" name="" steps="16" muted="0" pos="44160">
          <note vol="195" pan="0" key="46" pos="0" len="48"/>
          <note vol="195" pan="0" key="39" pos="0" len="48"/>
          <note vol="195" pan="0" key="0" pos="0" len="36"/>
          <note vol="195" pan="0" key="1" pos="36" len="36"/>
          <note vol="195" pan="0" key="39" pos="48" len="12"/>
          <note vol="195" pan="0" key="39" pos="60" len="12"/>
          <note vol="195" pan="0" key="39" pos="72" len="12"/>
          <note vol="195" pan="0" key="39" pos="84" len="12"/>
          <note vol="195" pan="0" key="39" pos="96" len="12"/>
          <note vol="195" pan="0" key="39" pos="108" len="12"/>
          <note vol="195" pan="0" key="39" pos="120" len="12"/>
          <note vol="195" pan="0" key="39" pos="132" len="12"/>
          <note vol="195" pan="0" key="39" pos="144" len="12"/>
          <note vol="195" pan="0" key="39" pos="156" len="12"/>
          <note vol="195" pan="0" key="39" pos="168" len="12"/>
          <note vol="195" pan="0" key="39" pos="180" len="12"/>
          <note vol="195" pan="0" key="0" pos="180" len="36"/>
          <note vol="195" pan="0" key="53" pos="192" len="48"/>
          <note vol="195" pan="0" key="46" pos="192" len="48"/>
          <note vol="195" pan="0" key="1" pos="216" len="36"/>
          <note vol="195" pan="0" key="46" pos="240" len="12"/>
          <note vol="195" pan="0" key="46" pos="252" len="12"/>
          <note vol="195" pan="0" key="46" pos="264" len="12"/>
          <note vol="195" pan="0" key="46" pos="276" len="12"/>
          <note vol="195" pan="0" key="46" pos="288" len="12"/>
          <note vol="195" pan="0" key="46" pos="300" len="12"/>
          <note vol="195" pan="0" key="46" pos="312" len="12"/>
          <note vol="195" pan="0" key="46" pos="324" len="12"/>
          <note vol="195" pan="0" key="46" pos="336" len="12"/>
          <note vol="195" pan="0" key="46" pos="348" len="12"/>
          <note vol="195" pan="0" key="46" pos="360" len="12"/>
          <note vol="195" pan="0" key="46" pos="372" len="12"/>
          <note vol="195" pan="0" key="0" pos="372" len="36"/>
          <note vol="195" pan="0" key="54" pos="384" len="48"/>
          <note vol="195" pan="0" key="47" pos="384" len="48"/>
          <note vol="195" pan="0" key="1" pos="408" len="36"/>
          <note vol="195" pan="0" key="47" pos="432" len="12"/>
          <note vol="195" pan="0" key="47" pos="444" len="12"/>
          <note vol="195" pan="0" key="47" pos="456" len="12"/>
          <note vol="195" pan="0" key="47" pos="468" len="12"/>
          <note vol="195" pan="0" key="47" pos="480" len="12"/>
          <note vol="195" pan="0" key="47" pos="492" len="12"/>
          <note vol="195" pan="0" key="47" pos="504" len="12"/>
          <note vol="195" pan="0" key="47" pos="516" len="12"/>
          <note vol="195" pan="0" key="47" pos="528" len="12"/>
          <note vol="195" pan="0" key="47" pos="540" len="12"/>
          <note vol="195" pan="0" key="47" pos="552" len="12"/>
          <note vol="195" pan="0" key="47" pos="564" len="12"/>
          <note vol="195" pan="0" key="0" pos="564" len="36"/>
          <note vol="195" pan="0" key="56" pos="576" len="48"/>
          <note vol="195" pan="0" key="49" pos="576" len="48"/>
          <note vol="195" pan="0" key="1" pos="600" len="36"/>
          <note vol="195" pan="0" key="49" pos="624" len="12"/>
          <note vol="195" pan="0" key="49" pos="636" len="12"/>
          <note vol="195" pan="0" key="49" pos="648" len="12"/>
          <note vol="195" pan="0" key="49" pos="660" len="12"/>
          <note vol="195" pan="0" key="49" pos="672" len="12"/>
          <note vol="195" pan="0" key="49" pos="684" len="12"/>
          <note vol="195" pan="0" key="49" pos="696" len="12"/>
          <note vol="195" pan="0" key="49" pos="708" len="12"/>
          <note vol="195" pan="0" key="49" pos="720" len="12"/>
          <note vol="195" pan="0" key="49" pos="732" len="12"/>
          <note vol="195" pan="0" key="49" pos="744" len="12"/>
          <note vol="195" pan="0" key="49" pos="756" len="12"/>
          <note vol="195" pan="0" key="51" pos="768" len="48"/>
          <note vol="195" pan="0" key="44" pos="768" len="48"/>
          <note vol="195" pan="0" key="0" pos="768" len="36"/>
          <note vol="195" pan="0" key="1" pos="792" len="36"/>
          <note vol="195" pan="0" key="44" pos="816" len="12"/>
          <note vol="195" pan="0" key="44" pos="828" len="12"/>
          <note vol="195" pan="0" key="44" pos="840" len="12"/>
          <note vol="195" pan="0" key="44" pos="852" len="12"/>
          <note vol="195" pan="0" key="44" pos="864" len="12"/>
          <note vol="195" pan="0" key="44" pos="876" len="12"/>
          <note vol="195" pan="0" key="44" pos="888" len="12"/>
          <note vol="195" pan="0" key="44" pos="900" len="12"/>
          <note vol="195" pan="0" key="44" pos="912" len="12"/>
          <note vol="195" pan="0" key="44" pos="924" len="12"/>
          <note vol="195" pan="0" key="44" pos="936" len="12"/>
          <note vol="195" pan="0" key="44" pos="948" len="12"/>
          <note vol="195" pan="0" key="0" pos="948" len="36"/>
          <note vol="195" pan="0" key="53" pos="960" len="48"/>
          <note vol="195" pan="0" key="46" pos="960" len="48"/>
          <note vol="195" pan="0" key="1" pos="984" len="36"/>
          <note vol="195" pan="0" key="46" pos="1008" len="12"/>
          <note vol="195" pan="0" key="46" pos="1020" len="12"/>
          <note vol="195" pan="0" key="46" pos="1032" len="12"/>
          <note vol="195" pan="0" key="46" pos="1044" len="12"/>
          <note vol="195" pan="0" key="46" pos="1056" len="12"/>
          <note vol="195" pan="0" key="46" pos="1068" len="12"/>
          <note vol="195" pan="0" key="46" pos="1080" len="12"/>
          <note vol="195" pan="0" key="46" pos="1092" len="12"/>
          <note vol="195" pan="0" key="46" pos="1104" len="12"/>
          <note vol="195" pan="0" key="46" pos="1116" len="12"/>
          <note vol="195" pan="0" key="46" pos="1128" len="12"/>
          <note vol="195" pan="0" key="46" pos="1140" len="12"/>
          <note vol="195" pan="0" key="0" pos="1140" len="36"/>
          <note vol="195" pan="0" key="54" pos="1152" len="48"/>
          <note vol="195" pan="0" key="47" pos="1152" len="48"/>
          <note vol="195" pan="0" key="1" pos="1176" len="36"/>
          <note vol="195" pan="0" key="47" pos="1200" len="12"/>
          <note vol="195" pan="0" key="47" pos="1212" len="12"/>
          <note vol="195" pan="0" key="47" pos="1224" len="12"/>
          <note vol="195" pan="0" key="47" pos="1236" len="12"/>
          <note vol="195" pan="0" key="47" pos="1248" len="12"/>
          <note vol="195" pan="0" key="47" pos="1260" len="12"/>
          <note vol="195" pan="0" key="47" pos="1272" len="12"/>
          <note vol="195" pan="0" key="47" pos="1284" len="12"/>
          <note vol="195" pan="0" key="47" pos="1296" len="12"/>
          <note vol="195" pan="0" key="47" pos="1308" len="12"/>
          <note vol="195" pan="0" key="47" pos="1320" len="12"/>
          <note vol="195" pan="0" key="47" pos="1332" len="12"/>
          <note vol="197" pan="0" key="56" pos="1344" len="12"/>
          <note vol="197" pan="0" key="56" pos="1356" len="12"/>
          <note vol="197" pan="0" key="58" pos="1368" len="12"/>
          <note vol="197" pan="0" key="58" pos="1380" len="12"/>
          <note vol="197" pan="0" key="56" pos="1392" len="12"/>
          <note vol="197" pan="0" key="56" pos="1404" len="12"/>
          <note vol="197" pan="0" key="54" pos="1416" len="12"/>
          <note vol="197" pan="0" key="54" pos="1428" len="12"/>
          <note vol="197" pan="0" key="53" pos="1440" len="12"/>
          <note vol="197" pan="0" key="53" pos="1452" len="12"/>
          <note vol="197" pan="0" key="51" pos="1464" len="12"/>
          <note vol="197" pan="0" key="51" pos="1476" len="12"/>
          <note vol="197" pan="0" key="50" pos="1488" len="12"/>
          <note vol="197" pan="0" key="50" pos="1500" len="12"/>
          <note vol="197" pan="0" key="46" pos="1512" len="12"/>
          <note vol="197" pan="0" key="46" pos="1524" len="12"/>
          <note vol="195" pan="0" key="0" pos="1524" len="36"/>
          <note vol="195" pan="0" key="46" pos="1536" len="48"/>
          <note vol="195" pan="0" key="39" pos="1536" len="48"/>
          <note vol="195" pan="0" key="1" pos="1560" len="36"/>
          <note vol="195" pan="0" key="39" pos="1584" len="12"/>
          <note vol="195" pan="0" key="39" pos="1596" len="12"/>
          <note vol="195" pan="0" key="39" pos="1608" len="12"/>
          <note vol="195" pan="0" key="39" pos="1620" len="12"/>
          <note vol="195" pan="0" key="39" pos="1632" len="12"/>
          <note vol="195" pan="0" key="39" pos="1644" len="12"/>
          <note vol="195" pan="0" key="39" pos="1656" len="12"/>
          <note vol="195" pan="0" key="39" pos="1668" len="12"/>
          <note vol="195" pan="0" key="39" pos="1680" len="12"/>
          <note vol="195" pan="0" key="39" pos="1692" len="12"/>
          <note vol="195" pan="0" key="39" pos="1704" len="12"/>
          <note vol="195" pan="0" key="39" pos="1716" len="12"/>
          <note vol="195" pan="0" key="0" pos="1716" len="36"/>
          <note vol="195" pan="0" key="56" pos="1728" len="48"/>
          <note vol="195" pan="0" key="49" pos="1728" len="48"/>
          <note vol="195" pan="0" key="1" pos="1752" len="36"/>
          <note vol="195" pan="0" key="49" pos="1776" len="12"/>
          <note vol="195" pan="0" key="49" pos="1788" len="12"/>
          <note vol="195" pan="0" key="49" pos="1800" len="12"/>
          <note vol="195" pan="0" key="49" pos="1812" len="12"/>
          <note vol="195" pan="0" key="49" pos="1824" len="12"/>
          <note vol="195" pan="0" key="49" pos="1836" len="12"/>
          <note vol="195" pan="0" key="49" pos="1848" len="12"/>
          <note vol="195" pan="0" key="49" pos="1860" len="12"/>
          <note vol="195" pan="0" key="49" pos="1872" len="12"/>
          <note vol="195" pan="0" key="49" pos="1884" len="12"/>
          <note vol="195" pan="0" key="49" pos="1896" len="12"/>
          <note vol="195" pan="0" key="49" pos="1908" len="12"/>
          <note vol="195" pan="0" key="0" pos="1908" len="36"/>
          <note vol="195" pan="0" key="56" pos="1920" len="48"/>
          <note vol="195" pan="0" key="48" pos="1920" len="48"/>
          <note vol="195" pan="0" key="1" pos="1944" len="36"/>
          <note vol="195" pan="0" key="48" pos="1968" len="12"/>
          <note vol="195" pan="0" key="48" pos="1980" len="12"/>
          <note vol="195" pan="0" key="48" pos="1992" len="12"/>
          <note vol="195" pan="0" key="48" pos="2004" len="12"/>
          <note vol="195" pan="0" key="48" pos="2016" len="12"/>
          <note vol="195" pan="0" key="48" pos="2028" len="12"/>
          <note vol="195" pan="0" key="48" pos="2040" len="12"/>
          <note vol="195" pan="0" key="48" pos="2052" len="12"/>
          <note vol="195" pan="0" key="48" pos="2064" len="12"/>
          <note vol="195" pan="0" key="48" pos="2076" len="12"/>
          <note vol="195" pan="0" key="48" pos="2088" len="12"/>
          <note vol="195" pan="0" key="48" pos="2100" len="12"/>
          <note vol="195" pan="0" key="0" pos="2100" len="36"/>
          <note vol="195" pan="0" key="51" pos="2112" len="48"/>
          <note vol="195" pan="0" key="44" pos="2112" len="48"/>
          <note vol="195" pan="0" key="1" pos="2136" len="36"/>
          <note vol="195" pan="0" key="44" pos="2160" len="12"/>
          <note vol="195" pan="0" key="44" pos="2172" len="12"/>
          <note vol="195" pan="0" key="44" pos="2184" len="12"/>
          <note vol="195" pan="0" key="44" pos="2196" len="12"/>
          <note vol="195" pan="0" key="0" pos="2196" len="36"/>
          <note vol="195" pan="0" key="49" pos="2208" len="48"/>
          <note vol="195" pan="0" key="42" pos="2208" len="48"/>
          <note vol="195" pan="0" key="1" pos="2232" len="36"/>
          <note vol="195" pan="0" key="42" pos="2256" len="12"/>
          <note vol="195" pan="0" key="42" pos="2268" len="12"/>
          <note vol="195" pan="0" key="42" pos="2280" len="12"/>
          <note vol="195" pan="0" key="42" pos="2292" len="12"/>
          <note vol="195" pan="0" key="0" pos="2292" len="36"/>
          <note vol="195" pan="0" key="47" pos="2304" len="48"/>
          <note vol="195" pan="0" key="40" pos="2304" len="48"/>
          <note vol="195" pan="0" key="1" pos="2328" len="36"/>
          <note vol="195" pan="0" key="40" pos="2352" len="12"/>
          <note vol="195" pan="0" key="40" pos="2364" len="12"/>
          <note vol="195" pan="0" key="40" pos="2376" len="12"/>
          <note vol="195" pan="0" key="40" pos="2388" len="12"/>
          <note vol="195" pan="0" key="40" pos="2400" len="12"/>
          <note vol="195" pan="0" key="40" pos="2412" len="12"/>
          <note vol="195" pan="0" key="40" pos="2424" len="12"/>
          <note vol="195" pan="0" key="40" pos="2436" len="12"/>
          <note vol="195" pan="0" key="40" pos="2448" len="12"/>
          <note vol="195" pan="0" key="40" pos="2460" len="12"/>
          <note vol="195" pan="0" key="40" pos="2472" len="12"/>
          <note vol="195" pan="0" key="40" pos="2484" len="12"/>
          <note vol="195" pan="0" key="0" pos="2484" len="36"/>
          <note vol="195" pan="0" key="54" pos="2496" len="48"/>
          <note vol="195" pan="0" key="47" pos="2496" len="48"/>
          <note vol="195" pan="0" key="1" pos="2520" len="36"/>
          <note vol="195" pan="0" key="47" pos="2544" len="12"/>
          <note vol="195" pan="0" key="47" pos="2556" len="12"/>
          <note vol="195" pan="0" key="47" pos="2568" len="12"/>
          <note vol="195" pan="0" key="47" pos="2580" len="12"/>
          <note vol="195" pan="0" key="47" pos="2592" len="12"/>
          <note vol="195" pan="0" key="47" pos="2604" len="12"/>
          <note vol="195" pan="0" key="47" pos="2616" len="12"/>
          <note vol="195" pan="0" key="47" pos="2628" len="12"/>
          <note vol="195" pan="0" key="47" pos="2640" len="12"/>
          <note vol="195" pan="0" key="47" pos="2652" len="12"/>
          <note vol="195" pan="0" key="47" pos="2664" len="12"/>
          <note vol="195" pan="0" key="47" pos="2676" len="12"/>
          <note vol="195" pan="0" key="0" pos="2676" len="36"/>
          <note vol="195" pan="0" key="56" pos="2688" len="48"/>
          <note vol="195" pan="0" key="49" pos="2688" len="48"/>
          <note vol="195" pan="0" key="1" pos="2712" len="36"/>
          <note vol="195" pan="0" key="49" pos="2736" len="12"/>
          <note vol="195" pan="0" key="49" pos="2748" len="12"/>
          <note vol="195" pan="0" key="49" pos="2760" len="12"/>
          <note vol="195" pan="0" key="49" pos="2772" len="12"/>
          <note vol="195" pan="0" key="49" pos="2784" len="12"/>
          <note vol="195" pan="0" key="49" pos="2796" len="12"/>
          <note vol="195" pan="0" key="49" pos="2808" len="12"/>
          <note vol="195" pan="0" key="49" pos="2820" len="12"/>
          <note vol="195" pan="0" key="49" pos="2832" len="12"/>
          <note vol="195" pan="0" key="49" pos="2844" len="12"/>
          <note vol="195" pan="0" key="49" pos="2856" len="12"/>
          <note vol="195" pan="0" key="49" pos="2868" len="12"/>
          <note vol="195" pan="0" key="49" pos="2880" len="12"/>
          <note vol="195" pan="0" key="47" pos="2892" len="12"/>
          <note vol="195" pan="0" key="46" pos="2904" len="12"/>
          <note vol="195" pan="0" key="44" pos="2916" len="12"/>
          <note vol="195" pan="0" key="47" pos="2928" len="12"/>
          <note vol="195" pan="0" key="46" pos="2940" len="12"/>
          <note vol="195" pan="0" key="44" pos="2952" len="12"/>
          <note vol="195" pan="0" key="42" pos="2964" len="12"/>
          <note vol="195" pan="0" key="46" pos="2976" len="12"/>
          <note vol="195" pan="0" key="44" pos="2988" len="12"/>
          <note vol="195" pan="0" key="42" pos="3000" len="12"/>
          <note vol="195" pan="0" key="41" pos="3012" len="12"/>
          <note vol="195" pan="0" key="44" pos="3024" len="12"/>
          <note vol="195" pan="0" key="42" pos="3036" len="12"/>
          <note vol="195" pan="0" key="41" pos="3048" len="12"/>
          <note vol="195" pan="0" key="42" pos="3060" len="12"/>
        </pattern>
        <pattern type="1" name="" steps="16" muted="0" pos="47232">
          <note vol="195" pan="0" key="46" pos="0" len="48"/>
          <note vol="195" pan="0" key="39" pos="0" len="48"/>
          <note vol="195" pan="0" key="0" pos="0" len="36"/>
          <note vol="195" pan="0" key="1" pos="36" len="36"/>
          <note vol="195" pan="0" key="39" pos="48" len="12"/>
          <note vol="195" pan="0" key="39" pos="60" len="12"/>
          <note vol="195" pan="0" key="39" pos="72" len="12"/>
          <note vol="195" pan="0" key="39" pos="84" len="12"/>
          <note vol="195" pan="0" key="39" pos="96" len="12"/>
          <note vol="195" pan="0" key="39" pos="108" len="12"/>
          <note vol="195" pan="0" key="39" pos="120" len="12"/>
          <note vol="195" pan="0" key="39" pos="132" len="12"/>
          <note vol="195" pan="0" key="39" pos="144" len="12"/>
          <note vol="195" pan="0" key="39" pos="156" len="12"/>
          <note vol="195" pan="0" key="39" pos="168" len="12"/>
          <note vol="195" pan="0" key="39" pos="180" len="12"/>
          <note vol="195" pan="0" key="0" pos="180" len="36"/>
          <note vol="195" pan="0" key="53" pos="192" len="48"/>
          <note vol="195" pan="0" key="46" pos="192" len="48"/>
          <note vol="195" pan="0" key="1" pos="216" len="36"/>
          <note vol="195" pan="0" key="46" pos="240" len="12"/>
          <note vol="195" pan="0" key="46" pos="252" len="12"/>
          <note vol="195" pan="0" key="46" pos="264" len="12"/>
          <note vol="195" pan="0" key="46" pos="276" len="12"/>
          <note vol="195" pan="0" key="46" pos="288" len="12"/>
          <note vol="195" pan="0" key="46" pos="300" len="12"/>
          <note vol="195" pan="0" key="46" pos="312" len="12"/>
          <note vol="195" pan="0" key="46" pos="324" len="12"/>
          <note vol="195" pan="0" key="46" pos="336" len="12"/>
          <note vol="195" pan="0" key="46" pos="348" len="12"/>
          <note vol="195" pan="0" key="46" pos="360" len="12"/>
          <note vol="195" pan="0" key="46" pos="372" len="12"/>
          <note vol="195" pan="0" key="0" pos="372" len="36"/>
          <note vol="195" pan="0" key="54" pos="384" len="48"/>
          <note vol="195" pan="0" key="47" pos="384" len="48"/>
          <note vol="195" pan="0" key="1" pos="408" len="36"/>
          <note vol="195" pan="0" key="47" pos="432" len="12"/>
          <note vol="195" pan="0" key="47" pos="444" len="12"/>
          <note vol="195" pan="0" key="47" pos="456" len="12"/>
          <note vol="195" pan="0" key="47" pos="468" len="12"/>
          <note vol="195" pan="0" key="47" pos="480" len="12"/>
          <note vol="195" pan="0" key="47" pos="492" len="12"/>
          <note vol="195" pan="0" key="47" pos="504" len="12"/>
          <note vol="195" pan="0" key="47" pos="516" len="12"/>
          <note vol="195" pan="0" key="47" pos="528" len="12"/>
          <note vol="195" pan="0" key="47" pos="540" len="12"/>
          <note vol="195" pan="0" key="47" pos="552" len="12"/>
          <note vol="195" pan="0" key="47" pos="564" len="12"/>
          <note vol="195" pan="0" key="0" pos="564" len="36"/>
          <note vol="195" pan="0" key="56" pos="576" len="48"/>
          <note vol="195" pan="0" key="49" pos="576" len="48"/>
          <note vol="195" pan="0" key="1" pos="600" len="36"/>
          <note vol="195" pan="0" key="49" pos="624" len="12"/>
          <note vol="195" pan="0" key="49" pos="636" len="12"/>
          <note vol="195" pan="0" key="49" pos="648" len="12"/>
          <note vol="195" pan="0" key="49" pos="660" len="12"/>
          <note vol="195" pan="0" key="49" pos="672" len="12"/>
          <note vol="195" pan="0" key="49" pos="684" len="12"/>
          <note vol="195" pan="0" key="49" pos="696" len="12"/>
          <note vol="195" pan="0" key="49" pos="708" len="12"/>
          <note vol="195" pan="0" key="49" pos="720" len="12"/>
          <note vol="195" pan="0" key="49" pos="732" len="12"/>
          <note vol="195" pan="0" key="49" pos="744" len="12"/>
          <note vol="195" pan="0" key="49" pos="756" len="12"/>
          <note vol="195" pan="0" key="51" pos="768" len="48"/>
          <note vol="195" pan="0" key="44" pos="768" len="48"/>
          <note vol="195" pan="0" key="0" pos="768" len="36"/>
          <note vol="195" pan="0" key="1" pos="792" len="36"/>
          <note vol="195" pan="0" key="44" pos="816" len="12"/>
          <note vol="195" pan="0" key="44" pos="828" len="12"/>
          <note vol="195" pan="0" key="44" pos="840" len="12"/>
          <note vol="195" pan="0" key="44" pos="852" len="12"/>
          <note vol="195" pan="0" key="44" pos="864" len="12"/>
          <note vol="195" pan="0" key="44" pos="876" len="12"/>
          <note vol="195" pan="0" key="44" pos="888" len="12"/>
          <note vol="195" pan="0" key="44" pos="900" len="12"/>
          <note vol="195" pan="0" key="44" pos="912" len="12"/>
          <note vol="195" pan="0" key="44" pos="924" len="12"/>
          <note vol="195" pan="0" key="44" pos="936" len="12"/>
          <note vol="195" pan="0" key="44" pos="948" len="12"/>
          <note vol="195" pan="0" key="0" pos="948" len="36"/>
          <note vol="195" pan="0" key="53" pos="960" len="48"/>
          <note vol="195" pan="0" key="46" pos="960" len="48"/>
          <note vol="195" pan="0" key="1" pos="984" len="36"/>
          <note vol="195" pan="0" key="46" pos="1008" len="12"/>
          <note vol="195" pan="0" key="46" pos="1020" len="12"/>
          <note vol="195" pan="0" key="46" pos="1032" len="12"/>
          <note vol="195" pan="0" key="46" pos="1044" len="12"/>
          <note vol="195" pan="0" key="46" pos="1056" len="12"/>
          <note vol="195" pan="0" key="46" pos="1068" len="12"/>
          <note vol="195" pan="0" key="46" pos="1080" len="12"/>
          <note vol="195" pan="0" key="46" pos="1092" len="12"/>
          <note vol="195" pan="0" key="46" pos="1104" len="12"/>
          <note vol="195" pan="0" key="46" pos="1116" len="12"/>
          <note vol="195" pan="0" key="46" pos="1128" len="12"/>
          <note vol="195" pan="0" key="46" pos="1140" len="12"/>
          <note vol="195" pan="0" key="0" pos="1140" len="36"/>
          <note vol="195" pan="0" key="54" pos="1152" len="48"/>
          <note vol="195" pan="0" key="47" pos="1152" len="48"/>
          <note vol="195" pan="0" key="1" pos="1176" len="36"/>
          <note vol="195" pan="0" key="47" pos="1200" len="12"/>
          <note vol="195" pan="0" key="47" pos="1212" len="12"/>
          <note vol="195" pan="0" key="47" pos="1224" len="12"/>
          <note vol="195" pan="0" key="47" pos="1236" len="12"/>
          <note vol="195" pan="0" key="47" pos="1248" len="12"/>
          <note vol="195" pan="0" key="47" pos="1260" len="12"/>
          <note vol="195" pan="0" key="47" pos="1272" len="12"/>
          <note vol="195" pan="0" key="47" pos="1284" len="12"/>
          <note vol="195" pan="0" key="47" pos="1296" len="12"/>
          <note vol="195" pan="0" key="47" pos="1308" len="12"/>
          <note vol="195" pan="0" key="47" pos="1320" len="12"/>
          <note vol="195" pan="0" key="47" pos="1332" len="12"/>
          <note vol="195" pan="0" key="0" pos="1332" len="36"/>
          <note vol="195" pan="0" key="56" pos="1344" len="48"/>
          <note vol="195" pan="0" key="49" pos="1344" len="48"/>
          <note vol="195" pan="0" key="1" pos="1368" len="36"/>
          <note vol="195" pan="0" key="49" pos="1392" len="12"/>
          <note vol="195" pan="0" key="49" pos="1404" len="12"/>
          <note vol="195" pan="0" key="49" pos="1416" len="12"/>
          <note vol="195" pan="0" key="49" pos="1428" len="12"/>
          <note vol="195" pan="0" key="50" pos="1440" len="12"/>
          <note vol="195" pan="0" key="50" pos="1452" len="12"/>
          <note vol="195" pan="0" key="50" pos="1464" len="12"/>
          <note vol="195" pan="0" key="1" pos="1464" len="36"/>
          <note vol="195" pan="0" key="50" pos="1476" len="12"/>
          <note vol="195" pan="0" key="50" pos="1488" len="12"/>
          <note vol="195" pan="0" key="50" pos="1500" len="12"/>
          <note vol="195" pan="0" key="50" pos="1512" len="12"/>
          <note vol="195" pan="0" key="50" pos="1524" len="12"/>
          <note vol="195" pan="0" key="0" pos="1524" len="36"/>
          <note vol="195" pan="0" key="46" pos="1536" len="48"/>
          <note vol="195" pan="0" key="39" pos="1536" len="48"/>
          <note vol="195" pan="0" key="1" pos="1560" len="36"/>
          <note vol="195" pan="0" key="39" pos="1584" len="12"/>
          <note vol="195" pan="0" key="39" pos="1596" len="12"/>
          <note vol="195" pan="0" key="39" pos="1608" len="12"/>
          <note vol="195" pan="0" key="39" pos="1620" len="12"/>
          <note vol="195" pan="0" key="39" pos="1632" len="12"/>
          <note vol="195" pan="0" key="39" pos="1644" len="12"/>
          <note vol="195" pan="0" key="39" pos="1656" len="12"/>
          <note vol="195" pan="0" key="39" pos="1668" len="12"/>
          <note vol="195" pan="0" key="39" pos="1680" len="12"/>
          <note vol="195" pan="0" key="39" pos="1692" len="12"/>
          <note vol="195" pan="0" key="39" pos="1704" len="12"/>
          <note vol="195" pan="0" key="39" pos="1716" len="12"/>
          <note vol="195" pan="0" key="0" pos="1716" len="36"/>
          <note vol="195" pan="0" key="56" pos="1728" len="48"/>
          <note vol="195" pan="0" key="49" pos="1728" len="48"/>
          <note vol="195" pan="0" key="1" pos="1752" len="36"/>
          <note vol="195" pan="0" key="49" pos="1776" len="12"/>
          <note vol="195" pan="0" key="49" pos="1788" len="12"/>
          <note vol="195" pan="0" key="49" pos="1800" len="12"/>
          <note vol="195" pan="0" key="49" pos="1812" len="12"/>
          <note vol="195" pan="0" key="49" pos="1824" len="12"/>
          <note vol="195" pan="0" key="49" pos="1836" len="12"/>
          <note vol="195" pan="0" key="49" pos="1848" len="12"/>
          <note vol="195" pan="0" key="49" pos="1860" len="12"/>
          <note vol="195" pan="0" key="49" pos="1872" len="12"/>
          <note vol="195" pan="0" key="49" pos="1884" len="12"/>
          <note vol="195" pan="0" key="49" pos="1896" len="12"/>
          <note vol="195" pan="0" key="49" pos="1908" len="12"/>
          <note vol="195" pan="0" key="0" pos="1908" len="36"/>
          <note vol="195" pan="0" key="56" pos="1920" len="48"/>
          <note vol="195" pan="0" key="48" pos="1920" len="48"/>
          <note vol="195" pan="0" key="1" pos="1944" len="36"/>
          <note vol="195" pan="0" key="48" pos="1968" len="12"/>
          <note vol="195" pan="0" key="48" pos="1980" len="12"/>
          <note vol="195" pan="0" key="48" pos="1992" len="12"/>
          <note vol="195" pan="0" key="48" pos="2004" len="12"/>
          <note vol="195" pan="0" key="48" pos="2016" len="12"/>
          <note vol="195" pan="0" key="48" pos="2028" len="12"/>
          <note vol="195" pan="0" key="48" pos="2040" len="12"/>
          <note vol="195" pan="0" key="48" pos="2052" len="12"/>
          <note vol="195" pan="0" key="48" pos="2064" len="12"/>
          <note vol="195" pan="0" key="48" pos="2076" len="12"/>
          <note vol="195" pan="0" key="48" pos="2088" len="12"/>
          <note vol="195" pan="0" key="48" pos="2100" len="12"/>
          <note vol="195" pan="0" key="0" pos="2100" len="36"/>
          <note vol="195" pan="0" key="51" pos="2112" len="48"/>
          <note vol="195" pan="0" key="44" pos="2112" len="48"/>
          <note vol="195" pan="0" key="1" pos="2136" len="36"/>
          <note vol="195" pan="0" key="44" pos="2160" len="12"/>
          <note vol="195" pan="0" key="44" pos="2172" len="12"/>
          <note vol="195" pan="0" key="44" pos="2184" len="12"/>
          <note vol="195" pan="0" key="44" pos="2196" len="12"/>
          <note vol="195" pan="0" key="0" pos="2196" len="36"/>
          <note vol="195" pan="0" key="49" pos="2208" len="48"/>
          <note vol="195" pan="0" key="42" pos="2208" len="48"/>
          <note vol="195" pan="0" key="1" pos="2232" len="36"/>
          <note vol="195" pan="0" key="42" pos="2256" len="12"/>
          <note vol="195" pan="0" key="42" pos="2268" len="12"/>
          <note vol="195" pan="0" key="42" pos="2280" len="12"/>
          <note vol="195" pan="0" key="42" pos="2292" len="12"/>
          <note vol="195" pan="0" key="0" pos="2292" len="36"/>
          <note vol="195" pan="0" key="47" pos="2304" len="48"/>
          <note vol="195" pan="0" key="40" pos="2304" len="48"/>
          <note vol="195" pan="0" key="1" pos="2328" len="36"/>
          <note vol="195" pan="0" key="40" pos="2352" len="12"/>
          <note vol="195" pan="0" key="40" pos="2364" len="12"/>
          <note vol="195" pan="0" key="40" pos="2376" len="12"/>
          <note vol="195" pan="0" key="40" pos="2388" len="12"/>
          <note vol="195" pan="0" key="40" pos="2400" len="12"/>
          <note vol="195" pan="0" key="40" pos="2412" len="12"/>
          <note vol="195" pan="0" key="40" pos="2424" len="12"/>
          <note vol="195" pan="0" key="40" pos="2436" len="12"/>
          <note vol="195" pan="0" key="40" pos="2448" len="12"/>
          <note vol="195" pan="0" key="40" pos="2460" len="12"/>
          <note vol="195" pan="0" key="40" pos="2472" len="12"/>
          <note vol="195" pan="0" key="40" pos="2484" len="12"/>
          <note vol="195" pan="0" key="0" pos="2484" len="36"/>
          <note vol="195" pan="0" key="54" pos="2496" len="48"/>
          <note vol="195" pan="0" key="47" pos="2496" len="48"/>
          <note vol="195" pan="0" key="1" pos="2520" len="36"/>
          <note vol="195" pan="0" key="47" pos="2544" len="12"/>
          <note vol="195" pan="0" key="47" pos="2556" len="12"/>
          <note vol="195" pan="0" key="47" pos="2568" len="12"/>
          <note vol="195" pan="0" key="47" pos="2580" len="12"/>
          <note vol="195" pan="0" key="47" pos="2592" len="12"/>
          <note vol="195" pan="0" key="47" pos="2604" len="12"/>
          <note vol="195" pan="0" key="47" pos="2616" len="12"/>
          <note vol="195" pan="0" key="47" pos="2628" len="12"/>
          <note vol="195" pan="0" key="47" pos="2640" len="12"/>
          <note vol="195" pan="0" key="47" pos="2652" len="12"/>
          <note vol="195" pan="0" key="47" pos="2664" len="12"/>
          <note vol="195" pan="0" key="47" pos="2676" len="12"/>
          <note vol="195" pan="0" key="0" pos="2676" len="36"/>
          <note vol="195" pan="0" key="56" pos="2688" len="48"/>
          <note vol="195" pan="0" key="49" pos="2688" len="48"/>
          <note vol="195" pan="0" key="1" pos="2712" len="36"/>
          <note vol="195" pan="0" key="49" pos="2736" len="12"/>
          <note vol="195" pan="0" key="49" pos="2748" len="12"/>
          <note vol="195" pan="0" key="49" pos="2760" len="12"/>
          <note vol="195" pan="0" key="49" pos="2772" len="12"/>
          <note vol="195" pan="0" key="49" pos="2784" len="12"/>
          <note vol="195" pan="0" key="49" pos="2796" len="12"/>
          <note vol="195" pan="0" key="49" pos="2808" len="12"/>
          <note vol="195" pan="0" key="49" pos="2820" len="12"/>
          <note vol="195" pan="0" key="49" pos="2832" len="12"/>
          <note vol="195" pan="0" key="49" pos="2844" len="12"/>
          <note vol="195" pan="0" key="49" pos="2856" len="12"/>
          <note vol="195" pan="0" key="49" pos="2868" len="12"/>
          <note vol="195" pan="0" key="0" pos="2868" len="36"/>
          <note vol="197" pan="0" key="56" pos="2880" len="96"/>
          <note vol="197" pan="0" key="49" pos="2880" len="96"/>
          <note vol="197" pan="0" key="53" pos="2976" len="96"/>
          <note vol="197" pan="0" key="46" pos="2976" len="96"/>
        </pattern>
        <pattern type="1" name="" steps="16" muted="0" pos="50304">
          <note vol="197" pan="0" key="46" pos="0" len="48"/>
          <note vol="197" pan="0" key="39" pos="0" len="48"/>
          <note vol="197" pan="0" key="0" pos="0" len="36"/>
          <note vol="197" pan="0" key="1" pos="36" len="36"/>
          <note vol="197" pan="0" key="39" pos="48" len="24"/>
          <note vol="197" pan="0" key="39" pos="72" len="24"/>
          <note vol="197" pan="0" key="39" pos="96" len="24"/>
          <note vol="197" pan="0" key="39" pos="120" len="24"/>
          <note vol="197" pan="0" key="39" pos="144" len="24"/>
          <note vol="197" pan="0" key="39" pos="168" len="12"/>
          <note vol="197" pan="0" key="39" pos="180" len="12"/>
          <note vol="197" pan="0" key="39" pos="192" len="24"/>
          <note vol="197" pan="0" key="39" pos="216" len="24"/>
          <note vol="197" pan="0" key="39" pos="240" len="12"/>
          <note vol="197" pan="0" key="39" pos="252" len="12"/>
          <note vol="197" pan="0" key="39" pos="264" len="24"/>
          <note vol="197" pan="0" key="39" pos="288" len="24"/>
          <note vol="197" pan="0" key="39" pos="312" len="24"/>
          <note vol="197" pan="0" key="0" pos="324" len="48"/>
          <note vol="197" pan="0" key="46" pos="336" len="48"/>
          <note vol="197" pan="0" key="39" pos="336" len="48"/>
        </pattern>
        <pattern type="1" name="" steps="16" muted="0" pos="50688">
          <note vol="197" pan="0" key="46" pos="0" len="48"/>
          <note vol="197" pan="0" key="39" pos="0" len="48"/>
          <note vol="197" pan="0" key="0" pos="0" len="36"/>
          <note vol="197" pan="0" key="1" pos="36" len="36"/>
          <note vol="197" pan="0" key="39" pos="48" len="24"/>
          <note vol="197" pan="0" key="39" pos="72" len="24"/>
          <note vol="197" pan="0" key="39" pos="96" len="24"/>
          <note vol="197" pan="0" key="39" pos="120" len="24"/>
          <note vol="197" pan="0" key="39" pos="144" len="24"/>
          <note vol="197" pan="0" key="39" pos="168" len="12"/>
          <note vol="197" pan="0" key="39" pos="180" len="12"/>
          <note vol="197" pan="0" key="39" pos="192" len="24"/>
          <note vol="197" pan="0" key="39" pos="216" len="24"/>
          <note vol="197" pan="0" key="39" pos="240" len="12"/>
          <note vol="197" pan="0" key="39" pos="252" len="12"/>
          <note vol="197" pan="0" key="39" pos="264" len="24"/>
          <note vol="197" pan="0" key="39" pos="288" len="24"/>
          <note vol="197" pan="0" key="39" pos="312" len="24"/>
          <note vol="197" pan="0" key="0" pos="324" len="48"/>
          <note vol="197" pan="0" key="46" pos="336" len="48"/>
          <note vol="197" pan="0" key="39" pos="336" len="48"/>
        </pattern>
        <pattern type="1" name="" steps="16" muted="0" pos="51072">
          <note vol="197" pan="0" key="46" pos="0" len="48"/>
          <note vol="197" pan="0" key="39" pos="0" len="48"/>
          <note vol="197" pan="0" key="0" pos="0" len="36"/>
          <note vol="197" pan="0" key="1" pos="36" len="36"/>
          <note vol="197" pan="0" key="39" pos="48" len="24"/>
          <note vol="197" pan="0" key="39" pos="72" len="24"/>
          <note vol="197" pan="0" key="39" pos="96" len="24"/>
          <note vol="197" pan="0" key="39" pos="120" len="24"/>
          <note vol="197" pan="0" key="39" pos="144" len="24"/>
          <note vol="197" pan="0" key="39" pos="168" len="12"/>
          <note vol="197" pan="0" key="39" pos="180" len="12"/>
          <note vol="197" pan="0" key="39" pos="192" len="24"/>
          <note vol="197" pan="0" key="39" pos="216" len="24"/>
          <note vol="197" pan="0" key="39" pos="240" len="12"/>
          <note vol="197" pan="0" key="39" pos="252" len="12"/>
          <note vol="197" pan="0" key="39" pos="264" len="24"/>
          <note vol="197" pan="0" key="39" pos="288" len="24"/>
          <note vol="197" pan="0" key="39" pos="312" len="24"/>
          <note vol="197" pan="0" key="0" pos="324" len="48"/>
          <note vol="197" pan="0" key="46" pos="336" len="48"/>
          <note vol="197" pan="0" key="39" pos="336" len="48"/>
        </pattern>
        <pattern type="1" name="" steps="16" muted="0" pos="51456">
          <note vol="197" pan="0" key="46" pos="0" len="48"/>
          <note vol="197" pan="0" key="39" pos="0" len="48"/>
          <note vol="197" pan="0" key="0" pos="0" len="36"/>
          <note vol="197" pan="0" key="1" pos="36" len="36"/>
          <note vol="197" pan="0" key="39" pos="48" len="24"/>
          <note vol="197" pan="0" key="39" pos="72" len="24"/>
          <note vol="197" pan="0" key="39" pos="96" len="24"/>
          <note vol="197" pan="0" key="39" pos="120" len="24"/>
          <note vol="197" pan="0" key="39" pos="144" len="24"/>
          <note vol="197" pan="0" key="39" pos="168" len="12"/>
          <note vol="197" pan="0" key="39" pos="180" len="12"/>
          <note vol="197" pan="0" key="39" pos="192" len="24"/>
          <note vol="197" pan="0" key="39" pos="216" len="24"/>
          <note vol="197" pan="0" key="39" pos="240" len="12"/>
          <note vol="197" pan="0" key="39" pos="252" len="12"/>
          <note vol="197" pan="0" key="39" pos="264" len="24"/>
          <note vol="197" pan="0" key="39" pos="288" len="24"/>
          <note vol="197" pan="0" key="39" pos="312" len="24"/>
          <note vol="197" pan="0" key="0" pos="324" len="48"/>
          <note vol="197" pan="0" key="46" pos="336" len="48"/>
          <note vol="197" pan="0" key="39" pos="336" len="48"/>
        </pattern>
        <pattern type="1" name="" steps="16" muted="0" pos="51840">
          <note vol="197" pan="0" key="47" pos="0" len="48"/>
          <note vol="197" pan="0" key="40" pos="0" len="48"/>
          <note vol="197" pan="0" key="0" pos="0" len="36"/>
          <note vol="197" pan="0" key="1" pos="36" len="36"/>
          <note vol="197" pan="0" key="40" pos="48" len="24"/>
          <note vol="197" pan="0" key="40" pos="72" len="24"/>
          <note vol="197" pan="0" key="40" pos="96" len="24"/>
          <note vol="197" pan="0" key="40" pos="120" len="24"/>
          <note vol="197" pan="0" key="40" pos="144" len="24"/>
          <note vol="197" pan="0" key="40" pos="168" len="12"/>
          <note vol="197" pan="0" key="40" pos="180" len="12"/>
          <note vol="197" pan="0" key="40" pos="192" len="24"/>
          <note vol="197" pan="0" key="40" pos="216" len="24"/>
          <note vol="197" pan="0" key="40" pos="240" len="12"/>
          <note vol="197" pan="0" key="40" pos="252" len="12"/>
          <note vol="197" pan="0" key="40" pos="264" len="24"/>
          <note vol="197" pan="0" key="40" pos="288" len="24"/>
          <note vol="197" pan="0" key="40" pos="312" len="24"/>
          <note vol="197" pan="0" key="0" pos="324" len="48"/>
          <note vol="197" pan="0" key="47" pos="336" len="48"/>
          <note vol="197" pan="0" key="40" pos="336" len="48"/>
        </pattern>
        <pattern type="1" name="" steps="16" muted="0" pos="52224">
          <note vol="197" pan="0" key="46" pos="0" len="48"/>
          <note vol="197" pan="0" key="39" pos="0" len="48"/>
          <note vol="197" pan="0" key="0" pos="0" len="36"/>
          <note vol="197" pan="0" key="1" pos="36" len="36"/>
          <note vol="197" pan="0" key="39" pos="48" len="24"/>
          <note vol="197" pan="0" key="39" pos="72" len="24"/>
          <note vol="197" pan="0" key="39" pos="96" len="24"/>
          <note vol="197" pan="0" key="39" pos="120" len="24"/>
          <note vol="197" pan="0" key="39" pos="144" len="24"/>
          <note vol="197" pan="0" key="39" pos="168" len="12"/>
          <note vol="197" pan="0" key="39" pos="180" len="12"/>
          <note vol="197" pan="0" key="39" pos="192" len="24"/>
          <note vol="197" pan="0" key="39" pos="216" len="24"/>
          <note vol="197" pan="0" key="39" pos="240" len="12"/>
          <note vol="197" pan="0" key="39" pos="252" len="12"/>
          <note vol="197" pan="0" key="39" pos="264" len="24"/>
          <note vol="197" pan="0" key="39" pos="288" len="24"/>
          <note vol="197" pan="0" key="39" pos="312" len="24"/>
          <note vol="197" pan="0" key="0" pos="324" len="48"/>
          <note vol="197" pan="0" key="46" pos="336" len="48"/>
          <note vol="197" pan="0" key="39" pos="336" len="48"/>
        </pattern>
        <pattern type="1" name="" steps="16" muted="0" pos="52608">
          <note vol="197" pan="0" key="51" pos="0" len="48"/>
          <note vol="197" pan="0" key="44" pos="0" len="48"/>
          <note vol="197" pan="0" key="0" pos="0" len="36"/>
          <note vol="197" pan="0" key="1" pos="36" len="36"/>
          <note vol="197" pan="0" key="44" pos="48" len="24"/>
          <note vol="197" pan="0" key="44" pos="72" len="24"/>
          <note vol="197" pan="0" key="44" pos="96" len="24"/>
          <note vol="197" pan="0" key="44" pos="120" len="24"/>
          <note vol="197" pan="0" key="44" pos="144" len="24"/>
          <note vol="197" pan="0" key="44" pos="168" len="12"/>
          <note vol="197" pan="0" key="44" pos="180" len="12"/>
          <note vol="197" pan="0" key="44" pos="192" len="24"/>
          <note vol="197" pan="0" key="44" pos="216" len="24"/>
          <note vol="197" pan="0" key="44" pos="240" len="12"/>
          <note vol="197" pan="0" key="44" pos="252" len="12"/>
          <note vol="197" pan="0" key="44" pos="264" len="24"/>
          <note vol="197" pan="0" key="44" pos="288" len="24"/>
          <note vol="197" pan="0" key="44" pos="312" len="24"/>
          <note vol="197" pan="0" key="0" pos="324" len="48"/>
          <note vol="197" pan="0" key="51" pos="336" len="48"/>
          <note vol="197" pan="0" key="44" pos="336" len="48"/>
        </pattern>
        <pattern type="1" name="" steps="16" muted="0" pos="53376">
          <note vol="195" pan="0" key="42" pos="0" len="48"/>
          <note vol="195" pan="0" key="35" pos="0" len="48"/>
          <note vol="195" pan="0" key="0" pos="0" len="24"/>
          <note vol="195" pan="0" key="1" pos="24" len="24"/>
          <note vol="195" pan="0" key="35" pos="48" len="12"/>
          <note vol="195" pan="0" key="35" pos="60" len="12"/>
          <note vol="195" pan="0" key="35" pos="72" len="12"/>
          <note vol="195" pan="0" key="35" pos="84" len="12"/>
          <note vol="195" pan="0" key="35" pos="96" len="12"/>
          <note vol="195" pan="0" key="35" pos="108" len="12"/>
          <note vol="195" pan="0" key="35" pos="120" len="12"/>
          <note vol="195" pan="0" key="35" pos="132" len="12"/>
          <note vol="195" pan="0" key="35" pos="144" len="12"/>
          <note vol="195" pan="0" key="35" pos="156" len="12"/>
          <note vol="195" pan="0" key="35" pos="168" len="12"/>
          <note vol="195" pan="0" key="35" pos="180" len="12"/>
          <note vol="195" pan="0" key="44" pos="192" len="48"/>
          <note vol="195" pan="0" key="37" pos="192" len="48"/>
          <note vol="195" pan="0" key="0" pos="192" len="48"/>
          <note vol="195" pan="0" key="1" pos="216" len="48"/>
          <note vol="195" pan="0" key="37" pos="240" len="12"/>
          <note vol="195" pan="0" key="37" pos="252" len="12"/>
          <note vol="195" pan="0" key="37" pos="264" len="12"/>
          <note vol="195" pan="0" key="37" pos="276" len="12"/>
          <note vol="195" pan="0" key="37" pos="288" len="12"/>
          <note vol="195" pan="0" key="37" pos="300" len="12"/>
          <note vol="195" pan="0" key="37" pos="312" len="12"/>
          <note vol="195" pan="0" key="37" pos="324" len="12"/>
          <note vol="195" pan="0" key="37" pos="336" len="12"/>
          <note vol="195" pan="0" key="37" pos="348" len="12"/>
          <note vol="195" pan="0" key="37" pos="360" len="12"/>
          <note vol="195" pan="0" key="37" pos="372" len="12"/>
        </pattern>
        <pattern type="1" name="" steps="16" muted="0" pos="53760">
          <note vol="195" pan="0" key="46" pos="0" len="48"/>
          <note vol="195" pan="0" key="39" pos="0" len="48"/>
          <note vol="195" pan="0" key="0" pos="0" len="24"/>
          <note vol="195" pan="0" key="1" pos="24" len="24"/>
          <note vol="195" pan="0" key="39" pos="48" len="12"/>
          <note vol="195" pan="0" key="39" pos="60" len="12"/>
          <note vol="195" pan="0" key="39" pos="72" len="12"/>
          <note vol="195" pan="0" key="39" pos="84" len="12"/>
          <note vol="195" pan="0" key="39" pos="96" len="12"/>
          <note vol="195" pan="0" key="39" pos="108" len="12"/>
          <note vol="195" pan="0" key="39" pos="120" len="12"/>
          <note vol="195" pan="0" key="39" pos="132" len="12"/>
          <note vol="195" pan="0" key="39" pos="144" len="12"/>
          <note vol="195" pan="0" key="39" pos="156" len="12"/>
          <note vol="195" pan="0" key="39" pos="168" len="12"/>
          <note vol="195" pan="0" key="39" pos="180" len="12"/>
          <note vol="195" pan="0" key="39" pos="192" len="12"/>
          <note vol="195" pan="0" key="39" pos="204" len="12"/>
          <note vol="195" pan="0" key="39" pos="216" len="12"/>
          <note vol="195" pan="0" key="39" pos="228" len="12"/>
          <note vol="195" pan="0" key="39" pos="240" len="12"/>
          <note vol="195" pan="0" key="39" pos="252" len="12"/>
          <note vol="195" pan="0" key="39" pos="264" len="12"/>
          <note vol="195" pan="0" key="39" pos="276" len="12"/>
          <note vol="195" pan="0" key="39" pos="288" len="12"/>
          <note vol="195" pan="0" key="39" pos="300" len="12"/>
          <note vol="195" pan="0" key="39" pos="312" len="12"/>
          <note vol="195" pan="0" key="39" pos="324" len="12"/>
          <note vol="195" pan="0" key="39" pos="336" len="12"/>
          <note vol="195" pan="0" key="39" pos="348" len="12"/>
          <note vol="195" pan="0" key="39" pos="360" len="12"/>
          <note vol="195" pan="0" key="39" pos="372" len="12"/>
        </pattern>
        <pattern type="1" name="" steps="16" muted="0" pos="54144">
          <note vol="195" pan="0" key="44" pos="0" len="48"/>
          <note vol="195" pan="0" key="37" pos="0" len="48"/>
          <note vol="195" pan="0" key="0" pos="0" len="24"/>
          <note vol="195" pan="0" key="1" pos="24" len="24"/>
          <note vol="195" pan="0" key="37" pos="48" len="12"/>
          <note vol="195" pan="0" key="37" pos="60" len="12"/>
          <note vol="195" pan="0" key="37" pos="72" len="12"/>
          <note vol="195" pan="0" key="37" pos="84" len="12"/>
          <note vol="195" pan="0" key="37" pos="96" len="12"/>
          <note vol="195" pan="0" key="37" pos="108" len="12"/>
          <note vol="195" pan="0" key="37" pos="120" len="12"/>
          <note vol="195" pan="0" key="37" pos="132" len="12"/>
          <note vol="195" pan="0" key="37" pos="144" len="12"/>
          <note vol="195" pan="0" key="37" pos="156" len="12"/>
          <note vol="195" pan="0" key="37" pos="168" len="12"/>
          <note vol="195" pan="0" key="37" pos="180" len="12"/>
        </pattern>
        <pattern type="1" name="" steps="16" muted="0" pos="54336">
          <note vol="195" pan="0" key="44" pos="0" len="48"/>
          <note vol="195" pan="0" key="37" pos="0" len="48"/>
          <note vol="195" pan="0" key="0" pos="0" len="24"/>
          <note vol="195" pan="0" key="1" pos="24" len="24"/>
          <note vol="195" pan="0" key="37" pos="48" len="12"/>
          <note vol="195" pan="0" key="37" pos="60" len="12"/>
          <note vol="195" pan="0" key="37" pos="72" len="12"/>
          <note vol="195" pan="0" key="37" pos="84" len="12"/>
          <note vol="195" pan="0" key="37" pos="96" len="12"/>
          <note vol="195" pan="0" key="37" pos="108" len="12"/>
          <note vol="195" pan="0" key="37" pos="120" len="12"/>
          <note vol="195" pan="0" key="37" pos="132" len="12"/>
          <note vol="195" pan="0" key="37" pos="144" len="12"/>
          <note vol="195" pan="0" key="37" pos="156" len="12"/>
          <note vol="195" pan="0" key="37" pos="168" len="12"/>
          <note vol="195" pan="0" key="37" pos="180" len="12"/>
        </pattern>
        <pattern type="1" name="" steps="16" muted="0" pos="54528">
          <note vol="195" pan="0" key="51" pos="0" len="48"/>
          <note vol="195" pan="0" key="44" pos="0" len="48"/>
          <note vol="195" pan="0" key="0" pos="0" len="24"/>
          <note vol="195" pan="0" key="1" pos="24" len="24"/>
          <note vol="195" pan="0" key="44" pos="48" len="12"/>
          <note vol="195" pan="0" key="44" pos="60" len="12"/>
          <note vol="195" pan="0" key="44" pos="72" len="12"/>
          <note vol="195" pan="0" key="44" pos="84" len="12"/>
          <note vol="195" pan="0" key="44" pos="96" len="12"/>
          <note vol="195" pan="0" key="44" pos="108" len="12"/>
          <note vol="195" pan="0" key="44" pos="120" len="12"/>
          <note vol="195" pan="0" key="44" pos="132" len="12"/>
          <note vol="195" pan="0" key="44" pos="144" len="12"/>
          <note vol="195" pan="0" key="44" pos="156" len="12"/>
          <note vol="195" pan="0" key="44" pos="168" len="12"/>
          <note vol="195" pan="0" key="44" pos="180" len="12"/>
          <note vol="195" pan="0" key="44" pos="192" len="12"/>
          <note vol="195" pan="0" key="44" pos="204" len="12"/>
          <note vol="195" pan="0" key="44" pos="216" len="12"/>
          <note vol="195" pan="0" key="44" pos="228" len="12"/>
          <note vol="195" pan="0" key="44" pos="240" len="12"/>
          <note vol="195" pan="0" key="44" pos="252" len="12"/>
          <note vol="195" pan="0" key="44" pos="264" len="12"/>
          <note vol="195" pan="0" key="44" pos="276" len="12"/>
          <note vol="195" pan="0" key="44" pos="288" len="12"/>
          <note vol="195" pan="0" key="44" pos="300" len="12"/>
          <note vol="195" pan="0" key="44" pos="312" len="12"/>
          <note vol="195" pan="0" key="44" pos="324" len="12"/>
          <note vol="195" pan="0" key="44" pos="336" len="12"/>
          <note vol="195" pan="0" key="44" pos="348" len="12"/>
          <note vol="195" pan="0" key="44" pos="360" len="12"/>
          <note vol="195" pan="0" key="44" pos="372" len="12"/>
        </pattern>
        <pattern type="1" name="" steps="16" muted="0" pos="54912">
          <note vol="195" pan="0" key="42" pos="0" len="48"/>
          <note vol="195" pan="0" key="35" pos="0" len="48"/>
          <note vol="195" pan="0" key="0" pos="0" len="24"/>
          <note vol="195" pan="0" key="1" pos="24" len="24"/>
          <note vol="195" pan="0" key="35" pos="48" len="12"/>
          <note vol="195" pan="0" key="35" pos="60" len="12"/>
          <note vol="195" pan="0" key="35" pos="72" len="12"/>
          <note vol="195" pan="0" key="35" pos="84" len="12"/>
          <note vol="195" pan="0" key="35" pos="96" len="12"/>
          <note vol="195" pan="0" key="35" pos="108" len="12"/>
          <note vol="195" pan="0" key="35" pos="120" len="12"/>
          <note vol="195" pan="0" key="35" pos="132" len="12"/>
          <note vol="195" pan="0" key="35" pos="144" len="12"/>
          <note vol="195" pan="0" key="35" pos="156" len="12"/>
          <note vol="195" pan="0" key="35" pos="168" len="12"/>
          <note vol="195" pan="0" key="35" pos="180" len="12"/>
          <note vol="195" pan="0" key="44" pos="192" len="48"/>
          <note vol="195" pan="0" key="37" pos="192" len="48"/>
          <note vol="195" pan="0" key="0" pos="192" len="48"/>
          <note vol="195" pan="0" key="1" pos="216" len="48"/>
          <note vol="195" pan="0" key="37" pos="240" len="12"/>
          <note vol="195" pan="0" key="37" pos="252" len="12"/>
          <note vol="195" pan="0" key="37" pos="264" len="12"/>
          <note vol="195" pan="0" key="37" pos="276" len="12"/>
          <note vol="195" pan="0" key="37" pos="288" len="12"/>
          <note vol="195" pan="0" key="37" pos="300" len="12"/>
          <note vol="195" pan="0" key="37" pos="312" len="12"/>
          <note vol="195" pan="0" key="37" pos="324" len="12"/>
          <note vol="195" pan="0" key="37" pos="336" len="12"/>
          <note vol="195" pan="0" key="37" pos="348" len="12"/>
          <note vol="195" pan="0" key="37" pos="360" len="12"/>
          <note vol="195" pan="0" key="37" pos="372" len="12"/>
        </pattern>
        <pattern type="1" name="" steps="16" muted="0" pos="55296">
          <note vol="195" pan="0" key="46" pos="0" len="48"/>
          <note vol="195" pan="0" key="39" pos="0" len="48"/>
          <note vol="195" pan="0" key="0" pos="0" len="24"/>
          <note vol="195" pan="0" key="1" pos="24" len="24"/>
          <note vol="195" pan="0" key="39" pos="48" len="12"/>
          <note vol="195" pan="0" key="39" pos="60" len="12"/>
          <note vol="195" pan="0" key="39" pos="72" len="12"/>
          <note vol="195" pan="0" key="39" pos="84" len="12"/>
          <note vol="195" pan="0" key="39" pos="96" len="12"/>
          <note vol="195" pan="0" key="39" pos="108" len="12"/>
          <note vol="195" pan="0" key="39" pos="120" len="12"/>
          <note vol="195" pan="0" key="39" pos="132" len="12"/>
          <note vol="195" pan="0" key="39" pos="144" len="12"/>
          <note vol="195" pan="0" key="39" pos="156" len="12"/>
          <note vol="195" pan="0" key="39" pos="168" len="12"/>
          <note vol="195" pan="0" key="39" pos="180" len="12"/>
          <note vol="195" pan="0" key="39" pos="192" len="12"/>
          <note vol="195" pan="0" key="39" pos="204" len="12"/>
          <note vol="195" pan="0" key="39" pos="216" len="12"/>
          <note vol="195" pan="0" key="39" pos="228" len="12"/>
          <note vol="195" pan="0" key="39" pos="240" len="12"/>
          <note vol="195" pan="0" key="39" pos="252" len="12"/>
          <note vol="195" pan="0" key="39" pos="264" len="12"/>
          <note vol="195" pan="0" key="39" pos="276" len="12"/>
          <note vol="195" pan="0" key="39" pos="288" len="12"/>
          <note vol="195" pan="0" key="39" pos="300" len="12"/>
          <note vol="195" pan="0" key="39" pos="312" len="12"/>
          <note vol="195" pan="0" key="39" pos="324" len="12"/>
          <note vol="195" pan="0" key="39" pos="336" len="12"/>
          <note vol="195" pan="0" key="39" pos="348" len="12"/>
          <note vol="195" pan="0" key="39" pos="360" len="12"/>
          <note vol="195" pan="0" key="39" pos="372" len="12"/>
        </pattern>
        <pattern type="1" name="" steps="16" muted="0" pos="55680">
          <note vol="195" pan="0" key="51" pos="0" len="48"/>
          <note vol="195" pan="0" key="44" pos="0" len="48"/>
          <note vol="195" pan="0" key="0" pos="0" len="24"/>
          <note vol="195" pan="0" key="1" pos="24" len="24"/>
          <note vol="195" pan="0" key="44" pos="48" len="12"/>
          <note vol="195" pan="0" key="44" pos="60" len="12"/>
          <note vol="195" pan="0" key="44" pos="72" len="12"/>
          <note vol="195" pan="0" key="44" pos="84" len="12"/>
          <note vol="195" pan="0" key="44" pos="96" len="12"/>
          <note vol="195" pan="0" key="44" pos="108" len="12"/>
          <note vol="195" pan="0" key="44" pos="120" len="12"/>
          <note vol="195" pan="0" key="44" pos="132" len="12"/>
          <note vol="195" pan="0" key="44" pos="144" len="12"/>
          <note vol="195" pan="0" key="44" pos="156" len="12"/>
          <note vol="195" pan="0" key="44" pos="168" len="12"/>
          <note vol="195" pan="0" key="44" pos="180" len="12"/>
          <note vol="195" pan="0" key="44" pos="192" len="12"/>
          <note vol="195" pan="0" key="44" pos="204" len="12"/>
          <note vol="195" pan="0" key="44" pos="216" len="12"/>
          <note vol="195" pan="0" key="44" pos="228" len="12"/>
          <note vol="195" pan="0" key="44" pos="240" len="12"/>
          <note vol="195" pan="0" key="44" pos="252" len="12"/>
          <note vol="195" pan="0" key="44" pos="264" len="12"/>
          <note vol="195" pan="0" key="44" pos="276" len="12"/>
          <note vol="195" pan="0" key="44" pos="288" len="12"/>
          <note vol="195" pan="0" key="44" pos="300" len="12"/>
          <note vol="195" pan="0" key="44" pos="312" len="12"/>
          <note vol="195" pan="0" key="44" pos="324" len="12"/>
          <note vol="195" pan="0" key="44" pos="336" len="12"/>
          <note vol="195" pan="0" key="44" pos="348" len="12"/>
          <note vol="195" pan="0" key="44" pos="360" len="12"/>
          <note vol="195" pan="0" key="44" pos="372" len="12"/>
        </pattern>
        <pattern type="1" name="" steps="16" muted="0" pos="56064">
          <note vol="197" pan="0" key="42" pos="0" len="192"/>
          <note vol="197" pan="0" key="35" pos="0" len="192"/>
          <note vol="197" pan="0" key="0" pos="0" len="96"/>
          <note vol="197" pan="0" key="44" pos="192" len="96"/>
          <note vol="197" pan="0" key="37" pos="192" len="96"/>
          <note vol="197" pan="0" key="44" pos="288" len="96"/>
          <note vol="197" pan="0" key="37" pos="288" len="96"/>
        </pattern>
        <pattern type="1" name="" steps="16" muted="0" pos="56448">
          <note vol="78" pan="0" key="46" pos="0" len="384"/>
          <note vol="78" pan="0" key="39" pos="0" len="384"/>
          <note vol="78" pan="0" key="0" pos="0" len="192"/>
          <note vol="78" pan="0" key="44" pos="384" len="384"/>
          <note vol="78" pan="0" key="37" pos="384" len="384"/>
          <note vol="78" pan="0" key="44" pos="768" len="384"/>
          <note vol="78" pan="0" key="36" pos="768" len="384"/>
          <note vol="78" pan="0" key="47" pos="1152" len="384"/>
          <note vol="78" pan="0" key="40" pos="1152" len="384"/>
          <note vol="78" pan="0" key="46" pos="1536" len="384"/>
          <note vol="78" pan="0" key="39" pos="1536" len="384"/>
          <note vol="78" pan="0" key="44" pos="1920" len="384"/>
          <note vol="78" pan="0" key="37" pos="1920" len="384"/>
          <note vol="78" pan="0" key="44" pos="2304" len="384"/>
          <note vol="78" pan="0" key="36" pos="2304" len="384"/>
          <note vol="78" pan="0" key="47" pos="2688" len="384"/>
          <note vol="78" pan="0" key="40" pos="2688" len="384"/>
        </pattern>
        <pattern type="1" name="" steps="16" muted="0" pos="52992">
          <note vol="197" pan="0" key="49" pos="0" len="48"/>
          <note vol="197" pan="0" key="42" pos="0" len="48"/>
          <note vol="197" pan="0" key="0" pos="0" len="36"/>
          <note vol="197" pan="0" key="1" pos="36" len="36"/>
          <note vol="197" pan="0" key="42" pos="48" len="24"/>
          <note vol="197" pan="0" key="42" pos="72" len="24"/>
          <note vol="197" pan="0" key="42" pos="96" len="24"/>
          <note vol="197" pan="0" key="42" pos="120" len="24"/>
          <note vol="197" pan="0" key="42" pos="144" len="24"/>
          <note vol="197" pan="0" key="42" pos="168" len="12"/>
          <note vol="197" pan="0" key="42" pos="180" len="12"/>
          <note vol="197" pan="0" key="42" pos="192" len="24"/>
          <note vol="197" pan="0" key="42" pos="216" len="24"/>
          <note vol="197" pan="0" key="42" pos="240" len="12"/>
          <note vol="197" pan="0" key="42" pos="252" len="12"/>
          <note vol="197" pan="0" key="42" pos="264" len="24"/>
          <note vol="197" pan="0" key="42" pos="288" len="24"/>
          <note vol="197" pan="0" key="42" pos="312" len="24"/>
          <note vol="197" pan="0" key="0" pos="324" len="48"/>
          <note vol="197" pan="0" key="49" pos="336" len="48"/>
          <note vol="197" pan="0" key="42" pos="336" len="48"/>
        </pattern>
        <pattern type="1" name="" steps="16" muted="0" pos="7680">
          <note vol="78" pan="0" key="46" pos="0" len="24"/>
          <note vol="78" pan="0" key="39" pos="0" len="24"/>
          <note vol="78" pan="0" key="0" pos="0" len="12"/>
          <note vol="78" pan="0" key="1" pos="12" len="12"/>
          <note vol="78" pan="0" key="39" pos="24" len="12"/>
          <note vol="78" pan="0" key="39" pos="36" len="12"/>
          <note vol="78" pan="0" key="39" pos="48" len="12"/>
          <note vol="78" pan="0" key="39" pos="60" len="12"/>
          <note vol="78" pan="0" key="39" pos="72" len="12"/>
          <note vol="78" pan="0" key="39" pos="84" len="12"/>
          <note vol="78" pan="0" key="39" pos="96" len="12"/>
          <note vol="78" pan="0" key="39" pos="108" len="12"/>
          <note vol="78" pan="0" key="39" pos="120" len="12"/>
          <note vol="78" pan="0" key="39" pos="132" len="12"/>
          <note vol="78" pan="0" key="39" pos="144" len="12"/>
          <note vol="78" pan="0" key="39" pos="156" len="12"/>
          <note vol="78" pan="0" key="39" pos="168" len="12"/>
          <note vol="78" pan="0" key="39" pos="180" len="12"/>
          <note vol="78" pan="0" key="52" pos="192" len="96"/>
          <note vol="78" pan="0" key="45" pos="192" len="96"/>
          <note vol="78" pan="0" key="0" pos="192" len="12"/>
          <note vol="78" pan="0" key="51" pos="288" len="96"/>
          <note vol="78" pan="0" key="44" pos="288" len="96"/>
        </pattern>
        <pattern type="1" name="" steps="16" muted="0" pos="7296">
          <note vol="191" pan="0" key="45" pos="0" len="12"/>
          <note vol="191" pan="0" key="1" pos="0" len="12"/>
          <note vol="191" pan="0" key="45" pos="12" len="12"/>
          <note vol="191" pan="0" key="42" pos="24" len="12"/>
          <note vol="191" pan="0" key="42" pos="36" len="12"/>
          <note vol="191" pan="0" key="45" pos="48" len="12"/>
          <note vol="191" pan="0" key="45" pos="60" len="12"/>
          <note vol="191" pan="0" key="49" pos="72" len="12"/>
          <note vol="191" pan="0" key="49" pos="84" len="12"/>
          <note vol="191" pan="0" key="52" pos="96" len="48"/>
          <note vol="191" pan="0" key="0" pos="96" len="12"/>
          <note vol="191" pan="0" key="51" pos="144" len="24"/>
          <note vol="191" pan="0" key="49" pos="168" len="24"/>
          <note vol="191" pan="0" key="44" pos="192" len="12"/>
          <note vol="191" pan="0" key="1" pos="192" len="12"/>
          <note vol="191" pan="0" key="44" pos="204" len="12"/>
          <note vol="191" pan="0" key="42" pos="216" len="12"/>
          <note vol="191" pan="0" key="42" pos="228" len="12"/>
          <note vol="191" pan="0" key="40" pos="240" len="12"/>
          <note vol="191" pan="0" key="40" pos="252" len="12"/>
          <note vol="191" pan="0" key="39" pos="264" len="12"/>
          <note vol="191" pan="0" key="39" pos="276" len="12"/>
          <note vol="191" pan="0" key="37" pos="288" len="12"/>
          <note vol="191" pan="0" key="37" pos="300" len="12"/>
          <note vol="191" pan="0" key="39" pos="312" len="12"/>
          <note vol="191" pan="0" key="39" pos="324" len="12"/>
          <note vol="191" pan="0" key="40" pos="336" len="12"/>
          <note vol="191" pan="0" key="40" pos="348" len="12"/>
          <note vol="191" pan="0" key="44" pos="360" len="12"/>
          <note vol="191" pan="0" key="44" pos="372" len="12"/>
        </pattern>
        <pattern type="1" name="" steps="16" muted="0" pos="59520">
          <note vol="78" pan="0" key="46" pos="0" len="48"/>
          <note vol="78" pan="0" key="39" pos="0" len="48"/>
          <note vol="78" pan="0" key="0" pos="0" len="24"/>
          <note vol="78" pan="0" key="1" pos="24" len="24"/>
          <note vol="78" pan="0" key="39" pos="48" len="12"/>
          <note vol="78" pan="0" key="39" pos="60" len="12"/>
          <note vol="78" pan="0" key="39" pos="72" len="12"/>
          <note vol="78" pan="0" key="39" pos="84" len="12"/>
          <note vol="78" pan="0" key="39" pos="96" len="12"/>
          <note vol="78" pan="0" key="39" pos="108" len="12"/>
          <note vol="78" pan="0" key="39" pos="120" len="12"/>
          <note vol="78" pan="0" key="39" pos="132" len="12"/>
          <note vol="78" pan="0" key="39" pos="144" len="12"/>
          <note vol="78" pan="0" key="39" pos="156" len="12"/>
          <note vol="78" pan="0" key="39" pos="168" len="12"/>
          <note vol="78" pan="0" key="39" pos="180" len="12"/>
          <note vol="78" pan="0" key="39" pos="192" len="12"/>
          <note vol="78" pan="0" key="39" pos="204" len="12"/>
          <note vol="78" pan="0" key="39" pos="216" len="12"/>
          <note vol="78" pan="0" key="39" pos="228" len="12"/>
          <note vol="78" pan="0" key="39" pos="240" len="12"/>
          <note vol="78" pan="0" key="39" pos="252" len="12"/>
          <note vol="78" pan="0" key="39" pos="264" len="12"/>
          <note vol="78" pan="0" key="39" pos="276" len="12"/>
          <note vol="78" pan="0" key="39" pos="288" len="12"/>
          <note vol="78" pan="0" key="39" pos="300" len="12"/>
          <note vol="78" pan="0" key="39" pos="312" len="12"/>
          <note vol="78" pan="0" key="39" pos="324" len="12"/>
          <note vol="78" pan="0" key="39" pos="336" len="12"/>
          <note vol="78" pan="0" key="39" pos="348" len="12"/>
          <note vol="78" pan="0" key="39" pos="360" len="12"/>
          <note vol="78" pan="0" key="39" pos="372" len="12"/>
          <note vol="78" pan="0" key="44" pos="384" len="48"/>
          <note vol="78" pan="0" key="37" pos="384" len="48"/>
          <note vol="78" pan="0" key="0" pos="384" len="24"/>
          <note vol="78" pan="0" key="1" pos="408" len="24"/>
          <note vol="78" pan="0" key="37" pos="432" len="12"/>
          <note vol="78" pan="0" key="37" pos="444" len="12"/>
          <note vol="78" pan="0" key="37" pos="456" len="12"/>
          <note vol="78" pan="0" key="37" pos="468" len="12"/>
          <note vol="78" pan="0" key="37" pos="480" len="12"/>
          <note vol="78" pan="0" key="37" pos="492" len="12"/>
          <note vol="78" pan="0" key="37" pos="504" len="12"/>
          <note vol="78" pan="0" key="37" pos="516" len="12"/>
          <note vol="78" pan="0" key="37" pos="528" len="12"/>
          <note vol="78" pan="0" key="37" pos="540" len="12"/>
          <note vol="78" pan="0" key="37" pos="552" len="12"/>
          <note vol="78" pan="0" key="37" pos="564" len="12"/>
          <note vol="78" pan="0" key="37" pos="576" len="12"/>
          <note vol="78" pan="0" key="37" pos="588" len="12"/>
          <note vol="78" pan="0" key="37" pos="600" len="12"/>
          <note vol="78" pan="0" key="37" pos="612" len="12"/>
          <note vol="78" pan="0" key="37" pos="624" len="12"/>
          <note vol="78" pan="0" key="37" pos="636" len="12"/>
          <note vol="78" pan="0" key="37" pos="648" len="12"/>
          <note vol="78" pan="0" key="37" pos="660" len="12"/>
          <note vol="78" pan="0" key="37" pos="672" len="12"/>
          <note vol="78" pan="0" key="37" pos="684" len="12"/>
          <note vol="78" pan="0" key="37" pos="696" len="12"/>
          <note vol="78" pan="0" key="37" pos="708" len="12"/>
          <note vol="78" pan="0" key="37" pos="720" len="12"/>
          <note vol="78" pan="0" key="37" pos="732" len="12"/>
          <note vol="78" pan="0" key="37" pos="744" len="12"/>
          <note vol="78" pan="0" key="37" pos="756" len="12"/>
          <note vol="78" pan="0" key="44" pos="768" len="48"/>
          <note vol="78" pan="0" key="36" pos="768" len="48"/>
          <note vol="78" pan="0" key="0" pos="768" len="24"/>
          <note vol="78" pan="0" key="1" pos="792" len="24"/>
          <note vol="78" pan="0" key="36" pos="816" len="12"/>
          <note vol="78" pan="0" key="36" pos="828" len="12"/>
          <note vol="78" pan="0" key="36" pos="840" len="12"/>
          <note vol="78" pan="0" key="36" pos="852" len="12"/>
          <note vol="78" pan="0" key="36" pos="864" len="12"/>
          <note vol="78" pan="0" key="36" pos="876" len="12"/>
          <note vol="78" pan="0" key="36" pos="888" len="12"/>
          <note vol="78" pan="0" key="36" pos="900" len="12"/>
          <note vol="78" pan="0" key="36" pos="912" len="12"/>
          <note vol="78" pan="0" key="36" pos="924" len="12"/>
          <note vol="78" pan="0" key="36" pos="936" len="12"/>
          <note vol="78" pan="0" key="36" pos="948" len="12"/>
          <note vol="78" pan="0" key="36" pos="960" len="12"/>
          <note vol="78" pan="0" key="36" pos="972" len="12"/>
          <note vol="78" pan="0" key="36" pos="984" len="12"/>
          <note vol="78" pan="0" key="36" pos="996" len="12"/>
          <note vol="78" pan="0" key="36" pos="1008" len="12"/>
          <note vol="78" pan="0" key="36" pos="1020" len="12"/>
          <note vol="78" pan="0" key="36" pos="1032" len="12"/>
          <note vol="78" pan="0" key="36" pos="1044" len="12"/>
          <note vol="78" pan="0" key="36" pos="1056" len="12"/>
          <note vol="78" pan="0" key="36" pos="1068" len="12"/>
          <note vol="78" pan="0" key="36" pos="1080" len="12"/>
          <note vol="78" pan="0" key="36" pos="1092" len="12"/>
          <note vol="78" pan="0" key="36" pos="1104" len="12"/>
          <note vol="78" pan="0" key="36" pos="1116" len="12"/>
          <note vol="78" pan="0" key="36" pos="1128" len="12"/>
          <note vol="78" pan="0" key="36" pos="1140" len="12"/>
          <note vol="78" pan="0" key="47" pos="1152" len="48"/>
          <note vol="78" pan="0" key="40" pos="1152" len="48"/>
          <note vol="78" pan="0" key="0" pos="1152" len="24"/>
          <note vol="78" pan="0" key="1" pos="1176" len="24"/>
          <note vol="78" pan="0" key="40" pos="1200" len="12"/>
          <note vol="78" pan="0" key="40" pos="1212" len="12"/>
          <note vol="78" pan="0" key="40" pos="1224" len="12"/>
          <note vol="78" pan="0" key="40" pos="1236" len="12"/>
          <note vol="78" pan="0" key="40" pos="1248" len="12"/>
          <note vol="78" pan="0" key="40" pos="1260" len="12"/>
          <note vol="78" pan="0" key="40" pos="1272" len="12"/>
          <note vol="78" pan="0" key="40" pos="1284" len="12"/>
          <note vol="78" pan="0" key="40" pos="1296" len="12"/>
          <note vol="78" pan="0" key="40" pos="1308" len="12"/>
          <note vol="78" pan="0" key="40" pos="1320" len="12"/>
          <note vol="78" pan="0" key="40" pos="1332" len="12"/>
          <note vol="78" pan="0" key="40" pos="1344" len="12"/>
          <note vol="78" pan="0" key="40" pos="1356" len="12"/>
          <note vol="78" pan="0" key="40" pos="1368" len="12"/>
          <note vol="78" pan="0" key="40" pos="1380" len="12"/>
          <note vol="78" pan="0" key="40" pos="1392" len="12"/>
          <note vol="78" pan="0" key="40" pos="1404" len="12"/>
          <note vol="78" pan="0" key="40" pos="1416" len="12"/>
          <note vol="78" pan="0" key="40" pos="1428" len="12"/>
          <note vol="78" pan="0" key="40" pos="1440" len="12"/>
          <note vol="78" pan="0" key="40" pos="1452" len="12"/>
          <note vol="78" pan="0" key="40" pos="1464" len="12"/>
          <note vol="78" pan="0" key="40" pos="1476" len="12"/>
          <note vol="78" pan="0" key="40" pos="1488" len="12"/>
          <note vol="78" pan="0" key="40" pos="1500" len="12"/>
          <note vol="78" pan="0" key="40" pos="1512" len="12"/>
          <note vol="78" pan="0" key="40" pos="1524" len="12"/>
        </pattern>
        <pattern type="1" name="" steps="16" muted="0" pos="61056">
          <note vol="78" pan="0" key="46" pos="0" len="48"/>
          <note vol="78" pan="0" key="39" pos="0" len="48"/>
          <note vol="78" pan="0" key="0" pos="0" len="24"/>
          <note vol="78" pan="0" key="1" pos="24" len="24"/>
          <note vol="78" pan="0" key="39" pos="48" len="12"/>
          <note vol="78" pan="0" key="39" pos="60" len="12"/>
          <note vol="78" pan="0" key="39" pos="72" len="12"/>
          <note vol="78" pan="0" key="39" pos="84" len="12"/>
          <note vol="78" pan="0" key="39" pos="96" len="12"/>
          <note vol="78" pan="0" key="39" pos="108" len="12"/>
          <note vol="78" pan="0" key="39" pos="120" len="12"/>
          <note vol="78" pan="0" key="39" pos="132" len="12"/>
          <note vol="78" pan="0" key="39" pos="144" len="12"/>
          <note vol="78" pan="0" key="39" pos="156" len="12"/>
          <note vol="78" pan="0" key="39" pos="168" len="12"/>
          <note vol="78" pan="0" key="39" pos="180" len="12"/>
          <note vol="78" pan="0" key="39" pos="192" len="12"/>
          <note vol="78" pan="0" key="39" pos="204" len="12"/>
          <note vol="78" pan="0" key="39" pos="216" len="12"/>
          <note vol="78" pan="0" key="39" pos="228" len="12"/>
          <note vol="78" pan="0" key="39" pos="240" len="12"/>
          <note vol="78" pan="0" key="39" pos="252" len="12"/>
          <note vol="78" pan="0" key="39" pos="264" len="12"/>
          <note vol="78" pan="0" key="39" pos="276" len="12"/>
          <note vol="78" pan="0" key="39" pos="288" len="12"/>
          <note vol="78" pan="0" key="39" pos="300" len="12"/>
          <note vol="78" pan="0" key="39" pos="312" len="12"/>
          <note vol="78" pan="0" key="39" pos="324" len="12"/>
          <note vol="78" pan="0" key="39" pos="336" len="12"/>
          <note vol="78" pan="0" key="39" pos="348" len="12"/>
          <note vol="78" pan="0" key="39" pos="360" len="12"/>
          <note vol="78" pan="0" key="39" pos="372" len="12"/>
          <note vol="78" pan="0" key="44" pos="384" len="48"/>
          <note vol="78" pan="0" key="37" pos="384" len="48"/>
          <note vol="78" pan="0" key="0" pos="384" len="24"/>
          <note vol="78" pan="0" key="1" pos="408" len="24"/>
          <note vol="78" pan="0" key="37" pos="432" len="12"/>
          <note vol="78" pan="0" key="37" pos="444" len="12"/>
          <note vol="78" pan="0" key="37" pos="456" len="12"/>
          <note vol="78" pan="0" key="37" pos="468" len="12"/>
          <note vol="78" pan="0" key="37" pos="480" len="12"/>
          <note vol="78" pan="0" key="37" pos="492" len="12"/>
          <note vol="78" pan="0" key="37" pos="504" len="12"/>
          <note vol="78" pan="0" key="37" pos="516" len="12"/>
          <note vol="78" pan="0" key="37" pos="528" len="12"/>
          <note vol="78" pan="0" key="37" pos="540" len="12"/>
          <note vol="78" pan="0" key="37" pos="552" len="12"/>
          <note vol="78" pan="0" key="37" pos="564" len="12"/>
          <note vol="78" pan="0" key="37" pos="576" len="12"/>
          <note vol="78" pan="0" key="37" pos="588" len="12"/>
          <note vol="78" pan="0" key="37" pos="600" len="12"/>
          <note vol="78" pan="0" key="37" pos="612" len="12"/>
          <note vol="78" pan="0" key="37" pos="624" len="12"/>
          <note vol="78" pan="0" key="37" pos="636" len="12"/>
          <note vol="78" pan="0" key="37" pos="648" len="12"/>
          <note vol="78" pan="0" key="37" pos="660" len="12"/>
          <note vol="78" pan="0" key="37" pos="672" len="12"/>
          <note vol="78" pan="0" key="37" pos="684" len="12"/>
          <note vol="78" pan="0" key="37" pos="696" len="12"/>
          <note vol="78" pan="0" key="37" pos="708" len="12"/>
          <note vol="78" pan="0" key="37" pos="720" len="12"/>
          <note vol="78" pan="0" key="37" pos="732" len="12"/>
          <note vol="78" pan="0" key="37" pos="744" len="12"/>
          <note vol="78" pan="0" key="37" pos="756" len="12"/>
          <note vol="78" pan="0" key="44" pos="768" len="48"/>
          <note vol="78" pan="0" key="36" pos="768" len="48"/>
          <note vol="78" pan="0" key="0" pos="768" len="24"/>
          <note vol="78" pan="0" key="1" pos="792" len="24"/>
          <note vol="78" pan="0" key="36" pos="816" len="12"/>
          <note vol="78" pan="0" key="36" pos="828" len="12"/>
          <note vol="78" pan="0" key="36" pos="840" len="12"/>
          <note vol="78" pan="0" key="36" pos="852" len="12"/>
          <note vol="78" pan="0" key="36" pos="864" len="12"/>
          <note vol="78" pan="0" key="36" pos="876" len="12"/>
          <note vol="78" pan="0" key="36" pos="888" len="12"/>
          <note vol="78" pan="0" key="36" pos="900" len="12"/>
          <note vol="78" pan="0" key="36" pos="912" len="12"/>
          <note vol="78" pan="0" key="36" pos="924" len="12"/>
          <note vol="78" pan="0" key="36" pos="936" len="12"/>
          <note vol="78" pan="0" key="36" pos="948" len="12"/>
          <note vol="78" pan="0" key="36" pos="960" len="12"/>
          <note vol="78" pan="0" key="36" pos="972" len="12"/>
          <note vol="78" pan="0" key="36" pos="984" len="12"/>
          <note vol="78" pan="0" key="36" pos="996" len="12"/>
          <note vol="78" pan="0" key="36" pos="1008" len="12"/>
          <note vol="78" pan="0" key="36" pos="1020" len="12"/>
          <note vol="78" pan="0" key="36" pos="1032" len="12"/>
          <note vol="78" pan="0" key="36" pos="1044" len="12"/>
          <note vol="78" pan="0" key="36" pos="1056" len="12"/>
          <note vol="78" pan="0" key="36" pos="1068" len="12"/>
          <note vol="78" pan="0" key="36" pos="1080" len="12"/>
          <note vol="78" pan="0" key="36" pos="1092" len="12"/>
          <note vol="78" pan="0" key="36" pos="1104" len="12"/>
          <note vol="78" pan="0" key="36" pos="1116" len="12"/>
          <note vol="78" pan="0" key="36" pos="1128" len="12"/>
          <note vol="78" pan="0" key="36" pos="1140" len="12"/>
          <note vol="78" pan="0" key="47" pos="1152" len="48"/>
          <note vol="78" pan="0" key="40" pos="1152" len="48"/>
          <note vol="78" pan="0" key="0" pos="1152" len="24"/>
          <note vol="78" pan="0" key="1" pos="1176" len="24"/>
          <note vol="78" pan="0" key="40" pos="1200" len="12"/>
          <note vol="78" pan="0" key="40" pos="1212" len="12"/>
          <note vol="78" pan="0" key="40" pos="1224" len="12"/>
          <note vol="78" pan="0" key="40" pos="1236" len="12"/>
          <note vol="78" pan="0" key="40" pos="1248" len="12"/>
          <note vol="78" pan="0" key="40" pos="1260" len="12"/>
          <note vol="78" pan="0" key="40" pos="1272" len="12"/>
          <note vol="78" pan="0" key="40" pos="1284" len="12"/>
          <note vol="78" pan="0" key="40" pos="1296" len="12"/>
          <note vol="78" pan="0" key="40" pos="1308" len="12"/>
          <note vol="78" pan="0" key="40" pos="1320" len="12"/>
          <note vol="78" pan="0" key="40" pos="1332" len="12"/>
          <note vol="78" pan="0" key="40" pos="1344" len="12"/>
          <note vol="78" pan="0" key="40" pos="1356" len="12"/>
          <note vol="78" pan="0" key="40" pos="1368" len="12"/>
          <note vol="78" pan="0" key="40" pos="1380" len="12"/>
          <note vol="78" pan="0" key="40" pos="1392" len="12"/>
          <note vol="78" pan="0" key="40" pos="1404" len="12"/>
          <note vol="78" pan="0" key="40" pos="1416" len="12"/>
          <note vol="78" pan="0" key="40" pos="1428" len="12"/>
          <note vol="78" pan="0" key="40" pos="1440" len="12"/>
          <note vol="78" pan="0" key="40" pos="1452" len="12"/>
          <note vol="78" pan="0" key="40" pos="1464" len="12"/>
          <note vol="78" pan="0" key="40" pos="1476" len="12"/>
          <note vol="78" pan="0" key="40" pos="1488" len="12"/>
          <note vol="78" pan="0" key="40" pos="1500" len="12"/>
          <note vol="78" pan="0" key="40" pos="1512" len="12"/>
          <note vol="78" pan="0" key="40" pos="1524" len="12"/>
        </pattern>
        <pattern type="1" name="" steps="16" muted="0" pos="63744">
          <note vol="197" pan="0" key="42" pos="0" len="12"/>
          <note vol="197" pan="0" key="0" pos="0" len="12"/>
          <note vol="197" pan="0" key="39" pos="12" len="12"/>
          <note vol="197" pan="0" key="1" pos="12" len="12"/>
          <note vol="197" pan="0" key="41" pos="24" len="12"/>
          <note vol="197" pan="0" key="42" pos="36" len="12"/>
          <note vol="197" pan="0" key="44" pos="48" len="12"/>
          <note vol="197" pan="0" key="0" pos="48" len="12"/>
          <note vol="197" pan="0" key="41" pos="60" len="12"/>
          <note vol="197" pan="0" key="1" pos="60" len="12"/>
          <note vol="197" pan="0" key="42" pos="72" len="12"/>
          <note vol="197" pan="0" key="44" pos="84" len="12"/>
          <note vol="197" pan="0" key="46" pos="96" len="12"/>
          <note vol="197" pan="0" key="0" pos="96" len="12"/>
          <note vol="197" pan="0" key="42" pos="108" len="12"/>
          <note vol="197" pan="0" key="1" pos="108" len="12"/>
          <note vol="197" pan="0" key="44" pos="120" len="12"/>
          <note vol="197" pan="0" key="46" pos="132" len="12"/>
          <note vol="197" pan="0" key="47" pos="144" len="12"/>
          <note vol="197" pan="0" key="0" pos="144" len="12"/>
          <note vol="197" pan="0" key="44" pos="156" len="12"/>
          <note vol="197" pan="0" key="1" pos="156" len="12"/>
          <note vol="197" pan="0" key="46" pos="168" len="12"/>
          <note vol="197" pan="0" key="47" pos="180" len="12"/>
          <note vol="197" pan="0" key="49" pos="192" len="12"/>
          <note vol="197" pan="0" key="0" pos="192" len="12"/>
          <note vol="197" pan="0" key="47" pos="204" len="12"/>
          <note vol="197" pan="0" key="1" pos="204" len="12"/>
          <note vol="197" pan="0" key="46" pos="216" len="12"/>
          <note vol="197" pan="0" key="44" pos="228" len="12"/>
          <note vol="197" pan="0" key="42" pos="240" len="12"/>
          <note vol="197" pan="0" key="44" pos="252" len="12"/>
          <note vol="197" pan="0" key="47" pos="264" len="12"/>
          <note vol="197" pan="0" key="0" pos="264" len="12"/>
          <note vol="197" pan="0" key="46" pos="276" len="12"/>
          <note vol="197" pan="0" key="1" pos="276" len="12"/>
          <note vol="197" pan="0" key="44" pos="288" len="12"/>
          <note vol="197" pan="0" key="42" pos="300" len="12"/>
          <note vol="197" pan="0" key="41" pos="312" len="12"/>
          <note vol="197" pan="0" key="42" pos="324" len="12"/>
          <note vol="197" pan="0" key="46" pos="336" len="12"/>
          <note vol="197" pan="0" key="0" pos="336" len="12"/>
          <note vol="197" pan="0" key="44" pos="348" len="12"/>
          <note vol="197" pan="0" key="1" pos="348" len="12"/>
          <note vol="197" pan="0" key="42" pos="360" len="12"/>
          <note vol="197" pan="0" key="41" pos="372" len="12"/>
          <note vol="197" pan="0" key="39" pos="384" len="12"/>
          <note vol="197" pan="0" key="41" pos="396" len="12"/>
          <note vol="200" pan="0" key="44" pos="408" len="12"/>
          <note vol="197" pan="0" key="0" pos="408" len="12"/>
          <note vol="200" pan="0" key="42" pos="420" len="12"/>
          <note vol="197" pan="0" key="1" pos="420" len="12"/>
          <note vol="200" pan="0" key="41" pos="432" len="12"/>
          <note vol="200" pan="0" key="39" pos="444" len="12"/>
          <note vol="200" pan="0" key="37" pos="456" len="12"/>
          <note vol="200" pan="0" key="39" pos="468" len="12"/>
          <note vol="200" pan="0" key="42" pos="480" len="12"/>
          <note vol="197" pan="0" key="0" pos="480" len="12"/>
          <note vol="200" pan="0" key="41" pos="492" len="12"/>
          <note vol="197" pan="0" key="1" pos="492" len="12"/>
          <note vol="200" pan="0" key="39" pos="504" len="12"/>
          <note vol="200" pan="0" key="37" pos="516" len="12"/>
          <note vol="200" pan="0" key="41" pos="528" len="12"/>
          <note vol="197" pan="0" key="0" pos="528" len="12"/>
          <note vol="200" pan="0" key="39" pos="540" len="12"/>
          <note vol="197" pan="0" key="1" pos="540" len="12"/>
          <note vol="200" pan="0" key="37" pos="552" len="12"/>
          <note vol="200" pan="0" key="39" pos="564" len="12"/>
        </pattern>
        <pattern type="1" name="" steps="16" muted="0" pos="62592">
          <note vol="197" pan="0" key="46" pos="0" len="192"/>
          <note vol="197" pan="0" key="39" pos="0" len="192"/>
          <note vol="78" pan="0" key="0" pos="0" len="48"/>
          <note vol="197" pan="0" key="53" pos="192" len="192"/>
          <note vol="197" pan="0" key="46" pos="192" len="192"/>
          <note vol="197" pan="0" key="54" pos="384" len="192"/>
          <note vol="197" pan="0" key="47" pos="384" len="192"/>
          <note vol="197" pan="0" key="56" pos="576" len="192"/>
          <note vol="197" pan="0" key="49" pos="576" len="192"/>
          <note vol="197" pan="0" key="1" pos="756" len="12"/>
          <note vol="197" pan="0" key="44" pos="768" len="12"/>
          <note vol="197" pan="0" key="44" pos="780" len="12"/>
          <note vol="197" pan="0" key="44" pos="792" len="12"/>
          <note vol="197" pan="0" key="44" pos="804" len="12"/>
          <note vol="197" pan="0" key="44" pos="816" len="12"/>
          <note vol="197" pan="0" key="44" pos="828" len="12"/>
          <note vol="197" pan="0" key="44" pos="840" len="12"/>
          <note vol="197" pan="0" key="44" pos="852" len="12"/>
          <note vol="197" pan="0" key="44" pos="864" len="12"/>
          <note vol="197" pan="0" key="44" pos="876" len="12"/>
          <note vol="197" pan="0" key="44" pos="888" len="12"/>
          <note vol="197" pan="0" key="44" pos="900" len="12"/>
          <note vol="197" pan="0" key="44" pos="912" len="12"/>
          <note vol="197" pan="0" key="44" pos="924" len="12"/>
          <note vol="197" pan="0" key="44" pos="936" len="12"/>
          <note vol="197" pan="0" key="44" pos="948" len="12"/>
          <note vol="197" pan="0" key="46" pos="960" len="12"/>
          <note vol="197" pan="0" key="46" pos="972" len="12"/>
          <note vol="197" pan="0" key="46" pos="984" len="12"/>
          <note vol="197" pan="0" key="46" pos="996" len="12"/>
          <note vol="197" pan="0" key="46" pos="1008" len="12"/>
          <note vol="197" pan="0" key="46" pos="1020" len="12"/>
          <note vol="197" pan="0" key="46" pos="1032" len="12"/>
          <note vol="197" pan="0" key="46" pos="1044" len="12"/>
          <note vol="197" pan="0" key="46" pos="1056" len="12"/>
          <note vol="197" pan="0" key="46" pos="1068" len="12"/>
          <note vol="197" pan="0" key="46" pos="1080" len="12"/>
          <note vol="197" pan="0" key="46" pos="1092" len="12"/>
          <note vol="197" pan="0" key="46" pos="1104" len="12"/>
          <note vol="197" pan="0" key="46" pos="1116" len="12"/>
          <note vol="197" pan="0" key="46" pos="1128" len="12"/>
          <note vol="197" pan="0" key="46" pos="1140" len="12"/>
        </pattern>
        <pattern type="1" name="" steps="16" muted="0" pos="64320">
          <note vol="197" pan="0" key="46" pos="0" len="192"/>
          <note vol="197" pan="0" key="39" pos="0" len="192"/>
          <note vol="197" pan="0" key="0" pos="0" len="192"/>
        </pattern>
      </track>
      <track type="0" name="Lead Guitar S" solo="0" muted="1" mutedBeforeSolo="0">
        <instrumenttrack usemasterpitch="1" pitchrange="1" pitch="0" vol="200" basenote="57" pan="0" fxch="13">
          <instrument name="carlapatchbay">
            <carlapatchbay>
              <CARLA-PROJECT VERSION="2.2">
                <EngineSettings>
                  <ForceStereo>false</ForceStereo>
                  <PreferPluginBridges>false</PreferPluginBridges>
                  <PreferUiBridges>true</PreferUiBridges>
                  <UIsAlwaysOnTop>false</UIsAlwaysOnTop>
                  <MaxParameters>200</MaxParameters>
                  <UIBridgesTimeout>4000</UIBridgesTimeout>
                  <LADSPA_PATH>/home/pass/.ladspa:/usr/lib/ladspa:/usr/local/lib/ladspa</LADSPA_PATH>
                  <DSSI_PATH>/home/pass/.dssi:/usr/lib/dssi:/usr/local/lib/dssi</DSSI_PATH>
                  <LV2_PATH>/home/pass/.lv2:/usr/lib/lv2:/usr/local/lib/lv2</LV2_PATH>
                  <VST2_PATH>/home/pass/.vst:/home/pass/.wine/drive_c/Program Files (x86)/VstPlugins:/home/pass/.wine/drive_c/Program Files/VstPlugins:/usr/lib/lxvst:/usr/lib/vst:/usr/local/lib/lxvst:/usr/local/lib/vst/home/pass/.lxvst:/home/pass/vst</VST2_PATH>
                  <VST3_PATH>/home/pass/.vst3:/home/pass/.wine/drive_c/Program Files (x86)/Common Files/VST3:/home/pass/.wine/drive_c/Program Files/Common Files/VST3:/usr/lib/vst3:/usr/local/lib/vst3</VST3_PATH>
                  <SF2_PATH>/home/pass/.sounds/sf2/home/pass/.sounds/sf3:/usr/share/soundfonts:/usr/share/sounds/sf2:/usr/share/sounds/sf3</SF2_PATH>
                  <SFZ_PATH>/home/pass/.sounds/sfz:/home/pass/samples:/usr/share/sounds/sfz</SFZ_PATH>
                </EngineSettings>
                <!-- sfizz -->
                <Plugin>
                  <Info>
                    <Type>LV2</Type>
                    <Name>sfizz</Name>
                    <URI>http://sfztools.github.io/sfizz</URI>
                  </Info>
                  <Data>
                    <Active>Yes</Active>
                    <ControlChannel>1</ControlChannel>
                    <Options>0x3f0</Options>
                    <Parameter>
                      <Index>0</Index>
                      <Name>Volume</Name>
                      <Symbol>volume</Symbol>
                      <Value>0</Value>
                    </Parameter>
                    <Parameter>
                      <Index>1</Index>
                      <Name>Polyphony</Name>
                      <Symbol>num_voices</Symbol>
                      <Value>64</Value>
                    </Parameter>
                    <Parameter>
                      <Index>2</Index>
                      <Name>Internal oversampling factor</Name>
                      <Symbol>oversampling</Symbol>
                      <Value>1</Value>
                    </Parameter>
                    <Parameter>
                      <Index>3</Index>
                      <Name>Preload size</Name>
                      <Symbol>preload_size</Symbol>
                      <Value>8192</Value>
                    </Parameter>
                    <Parameter>
                      <Index>5</Index>
                      <Name>Scala root key</Name>
                      <Symbol>scala_root_key</Symbol>
                      <Value>60</Value>
                    </Parameter>
                    <Parameter>
                      <Index>6</Index>
                      <Name>Tuning frequency</Name>
                      <Symbol>tuning_frequency</Symbol>
                      <Value>440</Value>
                    </Parameter>
                    <Parameter>
                      <Index>7</Index>
                      <Name>Stretched tuning</Name>
                      <Symbol>stretched_tuning</Symbol>
                      <Value>0</Value>
                    </Parameter>
                    <CustomData>
                      <Type>http://lv2plug.in/ns/ext/atom#Path</Type>
                      <Key>http://sfztools.github.io/sfizz:sfzfile</Key>
                      <Value>_fakeguitar1_integrated.sfz</Value>
                    </CustomData>
                    <CustomData>
                      <Type>http://lv2plug.in/ns/ext/atom#Int</Type>
                      <Key>http://sfztools.github.io/sfizz:numvoices</Key>
                      <Value>QAAAAA==</Value>
                    </CustomData>
                    <CustomData>
                      <Type>http://lv2plug.in/ns/ext/atom#Int</Type>
                      <Key>http://sfztools.github.io/sfizz:preload_size</Key>
                      <Value>ACAAAA==</Value>
                    </CustomData>
                    <CustomData>
                      <Type>http://lv2plug.in/ns/ext/atom#Int</Type>
                      <Key>http://sfztools.github.io/sfizz:oversampling</Key>
                      <Value>AQAAAA==</Value>
                    </CustomData>
                    <CustomData>
                      <Type>http://lv2plug.in/ns/ext/atom#Path</Type>
                      <Key>http://sfztools.github.io/sfizz:tuningfile</Key>
                      <Value>DefaultScale.scl</Value>
                    </CustomData>
                  </Data>
                </Plugin>
                <Patchbay>
                  <Connection>
                    <Source>Midi Input:Capture 1</Source>
                    <Target>sfizz:events-in</Target>
                  </Connection>
                  <Connection>
                    <Source>sfizz:Left Output</Source>
                    <Target>Audio Output:Left</Target>
                  </Connection>
                  <Connection>
                    <Source>sfizz:Right Output</Source>
                    <Target>Audio Output:Right</Target>
                  </Connection>
                  <Positions>
                    <Position y1="1353" x1="1693" pluginId="0">
                      <Name>sfizz</Name>
                    </Position>
                  </Positions>
                </Patchbay>
              </CARLA-PROJECT>
              <key/>
            </carlapatchbay>
          </instrument>
          <eldata fwet="0" fres="0.5" ftype="0" fcut="14000">
            <elvol x100="0" lspd_numerator="4" amt="0" lspd="0.1" lpdel="0" dec="0.5" lspd_syncmode="0" att="0" ctlenvamt="0" pdel="0" latt="0" sustain="0.5" lspd_denominator="4" hold="0.5" lamt="0" userwavefile="" lshp="0" rel="0.1"/>
            <elcut x100="0" lspd_numerator="4" amt="0" lspd="0.1" lpdel="0" dec="0.5" lspd_syncmode="0" att="0" ctlenvamt="0" pdel="0" latt="0" sustain="0.5" lspd_denominator="4" hold="0.5" lamt="0" userwavefile="" lshp="0" rel="0.1"/>
            <elres x100="0" lspd_numerator="4" amt="0" lspd="0.1" lpdel="0" dec="0.5" lspd_syncmode="0" att="0" ctlenvamt="0" pdel="0" latt="0" sustain="0.5" lspd_denominator="4" hold="0.5" lamt="0" userwavefile="" lshp="0" rel="0.1"/>
          </eldata>
          <chordcreator chordrange="1" chord="0" chord-enabled="0"/>
          <arpeggiator arprange="1" arptime_syncmode="0" arpskip="0" arpmiss="0" arptime="200" arpdir="0" arpmode="0" arptime_denominator="4" arp-enabled="0" arp="0" arpgate="100" arpcycle="0" arptime_numerator="4"/>
          <midiport inputcontroller="0" outputcontroller="0" outputprogram="1" basevelocity="63" outputchannel="1" writable="0" inputchannel="0" readable="0" fixedinputvelocity="-1" fixedoutputvelocity="-1" fixedoutputnote="-1"/>
          <fxchain numofeffects="0" enabled="0"/>
        </instrumenttrack>
        <pattern type="1" name="" steps="16" muted="0" pos="3456">
          <note vol="78" pan="0" key="73" pos="0" len="144"/>
          <note vol="78" pan="0" key="0" pos="0" len="144"/>
          <note vol="78" pan="0" key="76" pos="144" len="48"/>
          <note vol="78" pan="0" key="75" pos="192" len="144"/>
          <note vol="78" pan="0" key="80" pos="336" len="48"/>
          <note vol="78" pan="0" key="80" pos="384" len="144"/>
          <note vol="78" pan="0" key="78" pos="528" len="24"/>
          <note vol="78" pan="0" key="76" pos="552" len="24"/>
          <note vol="78" pan="0" key="75" pos="576" len="48"/>
          <note vol="78" pan="0" key="76" pos="624" len="48"/>
          <note vol="78" pan="0" key="71" pos="672" len="48"/>
          <note vol="78" pan="0" key="68" pos="720" len="48"/>
          <note vol="78" pan="0" key="69" pos="768" len="144"/>
          <note vol="78" pan="0" key="76" pos="912" len="48"/>
          <note vol="78" pan="0" key="75" pos="960" len="144"/>
          <note vol="78" pan="0" key="78" pos="1104" len="48"/>
          <note vol="197" pan="0" key="76" pos="1152" len="96"/>
          <note vol="197" pan="0" key="80" pos="1248" len="48"/>
          <note vol="197" pan="0" key="76" pos="1296" len="48"/>
          <note vol="197" pan="0" key="78" pos="1344" len="48"/>
          <note vol="197" pan="0" key="83" pos="1392" len="48"/>
          <note vol="197" pan="0" key="80" pos="1440" len="48"/>
          <note vol="197" pan="0" key="87" pos="1488" len="48"/>
        </pattern>
        <pattern type="1" name="" steps="16" muted="0" pos="6144">
          <note vol="78" pan="0" key="69" pos="384" len="120"/>
          <note vol="78" pan="0" key="68" pos="504" len="24"/>
          <note vol="78" pan="0" key="69" pos="528" len="24"/>
          <note vol="78" pan="0" key="71" pos="552" len="24"/>
          <note vol="78" pan="0" key="73" pos="576" len="72"/>
          <note vol="78" pan="0" key="71" pos="648" len="72"/>
          <note vol="78" pan="0" key="69" pos="720" len="48"/>
          <note vol="78" pan="0" key="68" pos="768" len="24"/>
          <note vol="78" pan="0" key="69" pos="792" len="24"/>
          <note vol="78" pan="0" key="68" pos="816" len="24"/>
          <note vol="78" pan="0" key="64" pos="840" len="48"/>
          <note vol="78" pan="0" key="64" pos="888" len="24"/>
          <note vol="78" pan="0" key="66" pos="912" len="24"/>
          <note vol="78" pan="0" key="68" pos="936" len="24"/>
          <note vol="78" pan="0" key="66" pos="960" len="96"/>
        </pattern>
        <pattern type="1" name="" steps="16" muted="0" pos="4992">
          <note vol="78" pan="0" key="61" pos="0" len="24"/>
          <note vol="100" pan="0" key="0" pos="0" len="48"/>
          <note vol="78" pan="0" key="63" pos="24" len="24"/>
          <note vol="78" pan="0" key="61" pos="48" len="24"/>
          <note vol="78" pan="0" key="68" pos="72" len="48"/>
          <note vol="78" pan="0" key="61" pos="120" len="24"/>
          <note vol="78" pan="0" key="64" pos="144" len="24"/>
          <note vol="78" pan="0" key="68" pos="168" len="24"/>
          <note vol="78" pan="0" key="71" pos="192" len="24"/>
          <note vol="78" pan="0" key="69" pos="216" len="24"/>
          <note vol="78" pan="0" key="68" pos="240" len="24"/>
          <note vol="78" pan="0" key="69" pos="264" len="48"/>
          <note vol="78" pan="0" key="68" pos="312" len="24"/>
          <note vol="78" pan="0" key="66" pos="336" len="24"/>
          <note vol="78" pan="0" key="68" pos="360" len="24"/>
        </pattern>
        <pattern type="1" name="" steps="16" muted="0" pos="5760">
          <note vol="78" pan="0" key="61" pos="0" len="24"/>
          <note vol="100" pan="0" key="0" pos="0" len="48"/>
          <note vol="78" pan="0" key="63" pos="24" len="24"/>
          <note vol="78" pan="0" key="61" pos="48" len="24"/>
          <note vol="78" pan="0" key="68" pos="72" len="48"/>
          <note vol="78" pan="0" key="61" pos="120" len="24"/>
          <note vol="78" pan="0" key="64" pos="144" len="24"/>
          <note vol="78" pan="0" key="68" pos="168" len="24"/>
          <note vol="78" pan="0" key="71" pos="192" len="24"/>
          <note vol="78" pan="0" key="73" pos="216" len="24"/>
          <note vol="78" pan="0" key="75" pos="240" len="24"/>
          <note vol="78" pan="0" key="73" pos="264" len="48"/>
          <note vol="78" pan="0" key="75" pos="312" len="24"/>
          <note vol="78" pan="0" key="76" pos="336" len="24"/>
          <note vol="78" pan="0" key="78" pos="360" len="24"/>
        </pattern>
        <pattern type="1" name="" steps="16" muted="0" pos="12672">
          <note vol="78" pan="0" key="61" pos="0" len="24"/>
          <note vol="197" pan="0" key="1" pos="0" len="12"/>
          <note vol="78" pan="0" key="63" pos="24" len="24"/>
          <note vol="78" pan="0" key="61" pos="48" len="24"/>
          <note vol="197" pan="0" key="0" pos="60" len="12"/>
          <note vol="78" pan="0" key="68" pos="72" len="48"/>
          <note vol="78" pan="0" key="61" pos="120" len="24"/>
          <note vol="78" pan="0" key="64" pos="144" len="24"/>
          <note vol="78" pan="0" key="68" pos="168" len="24"/>
          <note vol="78" pan="0" key="71" pos="192" len="24"/>
          <note vol="78" pan="0" key="69" pos="216" len="24"/>
          <note vol="78" pan="0" key="68" pos="240" len="24"/>
          <note vol="78" pan="0" key="69" pos="264" len="48"/>
          <note vol="78" pan="0" key="68" pos="312" len="24"/>
          <note vol="78" pan="0" key="66" pos="336" len="24"/>
          <note vol="78" pan="0" key="68" pos="360" len="24"/>
        </pattern>
        <pattern type="1" name="" steps="16" muted="0" pos="13440">
          <note vol="78" pan="0" key="61" pos="0" len="24"/>
          <note vol="78" pan="0" key="63" pos="24" len="24"/>
          <note vol="78" pan="0" key="61" pos="48" len="24"/>
          <note vol="78" pan="0" key="68" pos="72" len="48"/>
          <note vol="78" pan="0" key="61" pos="120" len="24"/>
          <note vol="78" pan="0" key="64" pos="144" len="24"/>
          <note vol="78" pan="0" key="68" pos="168" len="24"/>
          <note vol="78" pan="0" key="71" pos="192" len="24"/>
          <note vol="78" pan="0" key="73" pos="216" len="24"/>
          <note vol="78" pan="0" key="75" pos="240" len="24"/>
          <note vol="78" pan="0" key="73" pos="264" len="48"/>
          <note vol="78" pan="0" key="75" pos="312" len="24"/>
          <note vol="78" pan="0" key="76" pos="336" len="24"/>
          <note vol="78" pan="0" key="78" pos="360" len="24"/>
        </pattern>
        <pattern type="1" name="" steps="16" muted="0" pos="13824">
          <note vol="78" pan="0" key="69" pos="384" len="120"/>
          <note vol="78" pan="0" key="68" pos="504" len="24"/>
          <note vol="78" pan="0" key="69" pos="528" len="24"/>
          <note vol="78" pan="0" key="71" pos="552" len="24"/>
          <note vol="78" pan="0" key="73" pos="576" len="72"/>
          <note vol="78" pan="0" key="71" pos="648" len="72"/>
          <note vol="78" pan="0" key="69" pos="720" len="48"/>
          <note vol="78" pan="0" key="68" pos="768" len="24"/>
          <note vol="78" pan="0" key="69" pos="792" len="24"/>
          <note vol="78" pan="0" key="68" pos="816" len="24"/>
          <note vol="78" pan="0" key="64" pos="840" len="48"/>
          <note vol="78" pan="0" key="64" pos="888" len="24"/>
          <note vol="78" pan="0" key="66" pos="912" len="24"/>
          <note vol="78" pan="0" key="68" pos="936" len="24"/>
          <note vol="78" pan="0" key="66" pos="960" len="96"/>
        </pattern>
        <pattern type="1" name="" steps="16" muted="0" pos="11904">
          <note vol="78" pan="0" key="68" pos="0" len="12"/>
          <note vol="78" pan="0" key="0" pos="0" len="24"/>
          <note vol="78" pan="0" key="64" pos="12" len="12"/>
          <note vol="78" pan="0" key="61" pos="24" len="12"/>
          <note vol="78" pan="0" key="1" pos="24" len="24"/>
          <note vol="78" pan="0" key="56" pos="36" len="12"/>
          <note vol="78" pan="0" key="61" pos="48" len="12"/>
          <note vol="78" pan="0" key="64" pos="60" len="12"/>
          <note vol="78" pan="0" key="73" pos="72" len="12"/>
          <note vol="78" pan="0" key="0" pos="72" len="24"/>
          <note vol="78" pan="0" key="69" pos="84" len="12"/>
          <note vol="78" pan="0" key="68" pos="96" len="12"/>
          <note vol="78" pan="0" key="1" pos="96" len="24"/>
          <note vol="78" pan="0" key="64" pos="108" len="12"/>
          <note vol="78" pan="0" key="68" pos="120" len="12"/>
          <note vol="78" pan="0" key="73" pos="132" len="12"/>
          <note vol="78" pan="0" key="76" pos="144" len="12"/>
          <note vol="78" pan="0" key="0" pos="144" len="24"/>
          <note vol="78" pan="0" key="71" pos="156" len="12"/>
          <note vol="78" pan="0" key="68" pos="168" len="12"/>
          <note vol="78" pan="0" key="1" pos="168" len="24"/>
          <note vol="78" pan="0" key="64" pos="180" len="12"/>
          <note vol="78" pan="0" key="68" pos="192" len="12"/>
          <note vol="78" pan="0" key="71" pos="204" len="12"/>
          <note vol="78" pan="0" key="81" pos="216" len="12"/>
          <note vol="78" pan="0" key="0" pos="216" len="24"/>
          <note vol="78" pan="0" key="78" pos="228" len="12"/>
          <note vol="78" pan="0" key="74" pos="240" len="12"/>
          <note vol="78" pan="0" key="1" pos="240" len="24"/>
          <note vol="78" pan="0" key="69" pos="252" len="12"/>
          <note vol="78" pan="0" key="66" pos="264" len="12"/>
          <note vol="78" pan="0" key="69" pos="276" len="12"/>
          <note vol="78" pan="0" key="73" pos="288" len="12"/>
          <note vol="78" pan="0" key="0" pos="288" len="24"/>
          <note vol="78" pan="0" key="69" pos="300" len="12"/>
          <note vol="78" pan="0" key="66" pos="312" len="12"/>
          <note vol="78" pan="0" key="1" pos="312" len="24"/>
          <note vol="78" pan="0" key="61" pos="324" len="12"/>
          <note vol="78" pan="0" key="68" pos="336" len="12"/>
          <note vol="78" pan="0" key="0" pos="336" len="24"/>
          <note vol="78" pan="0" key="64" pos="348" len="12"/>
          <note vol="78" pan="0" key="61" pos="360" len="12"/>
          <note vol="78" pan="0" key="1" pos="360" len="24"/>
          <note vol="78" pan="0" key="56" pos="372" len="12"/>
          <note vol="78" pan="0" key="69" pos="384" len="12"/>
          <note vol="78" pan="0" key="0" pos="384" len="24"/>
          <note vol="78" pan="0" key="66" pos="396" len="12"/>
          <note vol="78" pan="0" key="57" pos="408" len="12"/>
          <note vol="78" pan="0" key="1" pos="408" len="24"/>
          <note vol="78" pan="0" key="54" pos="420" len="12"/>
          <note vol="78" pan="0" key="57" pos="432" len="12"/>
          <note vol="78" pan="0" key="62" pos="444" len="12"/>
          <note vol="78" pan="0" key="74" pos="456" len="12"/>
          <note vol="78" pan="0" key="0" pos="456" len="24"/>
          <note vol="78" pan="0" key="69" pos="468" len="12"/>
          <note vol="78" pan="0" key="66" pos="480" len="12"/>
          <note vol="78" pan="0" key="1" pos="480" len="24"/>
          <note vol="78" pan="0" key="61" pos="492" len="12"/>
          <note vol="78" pan="0" key="57" pos="504" len="12"/>
          <note vol="78" pan="0" key="54" pos="516" len="12"/>
          <note vol="78" pan="0" key="78" pos="528" len="12"/>
          <note vol="78" pan="0" key="0" pos="528" len="24"/>
          <note vol="78" pan="0" key="74" pos="540" len="12"/>
          <note vol="78" pan="0" key="69" pos="552" len="12"/>
          <note vol="78" pan="0" key="1" pos="552" len="24"/>
          <note vol="78" pan="0" key="66" pos="564" len="12"/>
          <note vol="78" pan="0" key="69" pos="576" len="12"/>
          <note vol="78" pan="0" key="74" pos="588" len="12"/>
          <note vol="78" pan="0" key="81" pos="600" len="12"/>
          <note vol="78" pan="0" key="0" pos="600" len="24"/>
          <note vol="78" pan="0" key="78" pos="612" len="12"/>
          <note vol="78" pan="0" key="73" pos="624" len="12"/>
          <note vol="78" pan="0" key="1" pos="624" len="24"/>
          <note vol="78" pan="0" key="69" pos="636" len="12"/>
          <note vol="78" pan="0" key="66" pos="648" len="12"/>
          <note vol="78" pan="0" key="61" pos="660" len="12"/>
          <note vol="78" pan="0" key="74" pos="672" len="12"/>
          <note vol="78" pan="0" key="0" pos="672" len="24"/>
          <note vol="78" pan="0" key="71" pos="684" len="12"/>
          <note vol="78" pan="0" key="66" pos="696" len="12"/>
          <note vol="78" pan="0" key="1" pos="696" len="24"/>
          <note vol="78" pan="0" key="61" pos="708" len="12"/>
          <note vol="78" pan="0" key="69" pos="720" len="12"/>
          <note vol="78" pan="0" key="0" pos="720" len="24"/>
          <note vol="78" pan="0" key="66" pos="732" len="12"/>
          <note vol="78" pan="0" key="61" pos="744" len="12"/>
          <note vol="78" pan="0" key="1" pos="744" len="24"/>
          <note vol="78" pan="0" key="57" pos="756" len="12"/>
        </pattern>
        <pattern type="1" name="" steps="16" muted="0" pos="28800">
          <note vol="200" pan="0" key="56" pos="0" len="24"/>
          <note vol="200" pan="0" key="1" pos="0" len="24"/>
          <note vol="200" pan="0" key="61" pos="24" len="24"/>
          <note vol="200" pan="0" key="0" pos="36" len="24"/>
          <note vol="200" pan="0" key="63" pos="48" len="24"/>
          <note vol="200" pan="0" key="1" pos="60" len="24"/>
          <note vol="200" pan="0" key="56" pos="72" len="24"/>
          <note vol="200" pan="0" key="0" pos="84" len="24"/>
          <note vol="200" pan="0" key="64" pos="96" len="24"/>
          <note vol="200" pan="0" key="1" pos="108" len="24"/>
          <note vol="200" pan="0" key="63" pos="120" len="24"/>
          <note vol="200" pan="0" key="59" pos="144" len="24"/>
          <note vol="200" pan="0" key="61" pos="168" len="24"/>
          <note vol="200" pan="0" key="0" pos="180" len="48"/>
          <note vol="200" pan="0" key="63" pos="192" len="48"/>
          <note vol="200" pan="0" key="64" pos="240" len="12"/>
          <note vol="200" pan="0" key="63" pos="252" len="12"/>
          <note vol="200" pan="0" key="61" pos="264" len="48"/>
          <note vol="200" pan="0" key="1" pos="300" len="12"/>
          <note vol="200" pan="0" key="56" pos="312" len="12"/>
          <note vol="200" pan="0" key="59" pos="324" len="12"/>
          <note vol="200" pan="0" key="61" pos="336" len="12"/>
          <note vol="200" pan="0" key="59" pos="348" len="12"/>
          <note vol="200" pan="0" key="54" pos="360" len="12"/>
          <note vol="200" pan="0" key="56" pos="372" len="12"/>
          <note vol="131" pan="0" key="54" pos="384" len="12"/>
          <note vol="131" pan="0" key="2" pos="384" len="12"/>
          <note vol="131" pan="0" key="56" pos="396" len="12"/>
          <note vol="131" pan="0" key="54" pos="408" len="12"/>
          <note vol="131" pan="0" key="52" pos="420" len="12"/>
          <note vol="131" pan="0" key="54" pos="432" len="12"/>
          <note vol="131" pan="0" key="52" pos="444" len="12"/>
          <note vol="131" pan="0" key="49" pos="456" len="12"/>
          <note vol="131" pan="0" key="47" pos="468" len="12"/>
          <note vol="131" pan="0" key="49" pos="480" len="12"/>
          <note vol="131" pan="0" key="52" pos="492" len="12"/>
          <note vol="131" pan="0" key="54" pos="504" len="12"/>
          <note vol="131" pan="0" key="52" pos="516" len="12"/>
          <note vol="131" pan="0" key="54" pos="528" len="12"/>
          <note vol="131" pan="0" key="56" pos="540" len="12"/>
          <note vol="131" pan="0" key="59" pos="552" len="12"/>
          <note vol="131" pan="0" key="61" pos="564" len="12"/>
          <note vol="131" pan="0" key="63" pos="576" len="12"/>
          <note vol="131" pan="0" key="61" pos="588" len="12"/>
          <note vol="131" pan="0" key="63" pos="600" len="12"/>
          <note vol="131" pan="0" key="64" pos="612" len="12"/>
          <note vol="131" pan="0" key="1" pos="612" len="12"/>
          <note vol="131" pan="0" key="66" pos="624" len="12"/>
          <note vol="131" pan="0" key="64" pos="636" len="12"/>
          <note vol="131" pan="0" key="66" pos="648" len="12"/>
          <note vol="131" pan="0" key="68" pos="660" len="12"/>
          <note vol="131" pan="0" key="69" pos="672" len="12"/>
          <note vol="131" pan="0" key="68" pos="684" len="12"/>
          <note vol="131" pan="0" key="69" pos="696" len="12"/>
          <note vol="131" pan="0" key="71" pos="708" len="12"/>
          <note vol="131" pan="0" key="0" pos="708" len="48"/>
          <note vol="131" pan="0" key="73" pos="720" len="48"/>
        </pattern>
        <pattern type="1" name="" steps="16" muted="0" pos="29568">
          <note vol="200" pan="0" key="80" pos="0" len="12"/>
          <note vol="200" pan="0" key="78" pos="12" len="12"/>
          <note vol="200" pan="0" key="76" pos="24" len="12"/>
          <note vol="200" pan="0" key="73" pos="36" len="12"/>
          <note vol="200" pan="0" key="71" pos="48" len="12"/>
          <note vol="200" pan="0" key="73" pos="60" len="12"/>
          <note vol="200" pan="0" key="78" pos="72" len="12"/>
          <note vol="200" pan="0" key="76" pos="84" len="12"/>
          <note vol="200" pan="0" key="73" pos="96" len="12"/>
          <note vol="200" pan="0" key="76" pos="108" len="12"/>
          <note vol="200" pan="0" key="80" pos="120" len="12"/>
          <note vol="200" pan="0" key="78" pos="132" len="12"/>
          <note vol="200" pan="0" key="76" pos="144" len="12"/>
          <note vol="200" pan="0" key="73" pos="156" len="12"/>
          <note vol="200" pan="0" key="76" pos="168" len="12"/>
          <note vol="200" pan="0" key="78" pos="180" len="12"/>
        </pattern>
        <pattern type="1" name="" steps="16" muted="0" pos="29760">
          <note vol="200" pan="0" key="80" pos="0" len="12"/>
          <note vol="200" pan="0" key="78" pos="12" len="12"/>
          <note vol="200" pan="0" key="76" pos="24" len="12"/>
          <note vol="200" pan="0" key="73" pos="36" len="12"/>
          <note vol="200" pan="0" key="71" pos="48" len="12"/>
          <note vol="200" pan="0" key="73" pos="60" len="12"/>
          <note vol="200" pan="0" key="78" pos="72" len="12"/>
          <note vol="200" pan="0" key="76" pos="84" len="12"/>
          <note vol="200" pan="0" key="73" pos="96" len="12"/>
          <note vol="200" pan="0" key="76" pos="108" len="12"/>
          <note vol="200" pan="0" key="83" pos="120" len="12"/>
          <note vol="200" pan="0" key="80" pos="132" len="12"/>
          <note vol="200" pan="0" key="78" pos="144" len="12"/>
          <note vol="200" pan="0" key="80" pos="156" len="12"/>
          <note vol="200" pan="0" key="78" pos="168" len="12"/>
          <note vol="200" pan="0" key="76" pos="180" len="12"/>
        </pattern>
        <pattern type="1" name="" steps="16" muted="0" pos="29952">
          <note vol="197" pan="0" key="85" pos="0" len="12"/>
          <note vol="197" pan="0" key="0" pos="0" len="48"/>
          <note vol="197" pan="0" key="83" pos="12" len="12"/>
          <note vol="197" pan="0" key="80" pos="24" len="12"/>
          <note vol="197" pan="0" key="78" pos="36" len="12"/>
          <note vol="197" pan="0" key="83" pos="48" len="12"/>
          <note vol="197" pan="0" key="80" pos="60" len="12"/>
          <note vol="197" pan="0" key="78" pos="72" len="12"/>
          <note vol="197" pan="0" key="76" pos="84" len="12"/>
          <note vol="197" pan="0" key="80" pos="96" len="12"/>
          <note vol="197" pan="0" key="78" pos="108" len="12"/>
          <note vol="197" pan="0" key="76" pos="120" len="12"/>
          <note vol="197" pan="0" key="73" pos="132" len="12"/>
          <note vol="197" pan="0" key="76" pos="144" len="12"/>
          <note vol="197" pan="0" key="78" pos="156" len="12"/>
          <note vol="197" pan="0" key="80" pos="168" len="12"/>
          <note vol="197" pan="0" key="83" pos="180" len="12"/>
          <note vol="197" pan="0" key="80" pos="192" len="12"/>
          <note vol="197" pan="0" key="78" pos="204" len="12"/>
          <note vol="197" pan="0" key="76" pos="216" len="12"/>
          <note vol="197" pan="0" key="73" pos="228" len="12"/>
          <note vol="197" pan="0" key="76" pos="240" len="12"/>
          <note vol="197" pan="0" key="1" pos="240" len="48"/>
          <note vol="197" pan="0" key="73" pos="252" len="12"/>
          <note vol="197" pan="0" key="71" pos="264" len="12"/>
          <note vol="197" pan="0" key="73" pos="276" len="12"/>
          <note vol="197" pan="0" key="71" pos="288" len="12"/>
          <note vol="197" pan="0" key="68" pos="300" len="12"/>
          <note vol="197" pan="0" key="66" pos="312" len="12"/>
          <note vol="197" pan="0" key="68" pos="324" len="12"/>
          <note vol="197" pan="0" key="61" pos="336" len="48"/>
          <note vol="197" pan="0" key="0" pos="336" len="48"/>
        </pattern>
        <pattern type="0" name="" steps="16" muted="0" pos="31488"/>
        <pattern type="1" name="" steps="16" muted="0" pos="36480">
          <note vol="200" pan="0" key="61" pos="0" len="12"/>
          <note vol="200" pan="0" key="1" pos="0" len="12"/>
          <note vol="200" pan="0" key="68" pos="12" len="12"/>
          <note vol="200" pan="0" key="66" pos="24" len="12"/>
          <note vol="200" pan="0" key="68" pos="36" len="12"/>
          <note vol="200" pan="0" key="61" pos="48" len="12"/>
          <note vol="200" pan="0" key="68" pos="60" len="12"/>
          <note vol="200" pan="0" key="66" pos="72" len="12"/>
          <note vol="200" pan="0" key="68" pos="84" len="12"/>
          <note vol="200" pan="0" key="71" pos="96" len="12"/>
          <note vol="200" pan="0" key="0" pos="96" len="12"/>
          <note vol="200" pan="0" key="68" pos="108" len="12"/>
          <note vol="200" pan="0" key="2" pos="108" len="12"/>
          <note vol="200" pan="0" key="66" pos="120" len="12"/>
          <note vol="200" pan="0" key="1" pos="120" len="12"/>
          <note vol="200" pan="0" key="64" pos="132" len="12"/>
          <note vol="200" pan="0" key="66" pos="144" len="12"/>
          <note vol="200" pan="0" key="64" pos="156" len="12"/>
          <note vol="200" pan="0" key="66" pos="168" len="12"/>
          <note vol="200" pan="0" key="68" pos="180" len="12"/>
          <note vol="200" pan="0" key="71" pos="192" len="12"/>
          <note vol="200" pan="0" key="68" pos="204" len="12"/>
          <note vol="200" pan="0" key="66" pos="216" len="12"/>
          <note vol="200" pan="0" key="64" pos="228" len="12"/>
          <note vol="200" pan="0" key="66" pos="240" len="12"/>
          <note vol="200" pan="0" key="68" pos="252" len="12"/>
          <note vol="200" pan="0" key="71" pos="264" len="6"/>
          <note vol="200" pan="0" key="0" pos="264" len="12"/>
          <note vol="200" pan="0" key="73" pos="270" len="42"/>
          <note vol="200" pan="0" key="2" pos="276" len="12"/>
          <note vol="200" pan="0" key="73" pos="312" len="12"/>
          <note vol="200" pan="0" key="1" pos="312" len="12"/>
          <note vol="200" pan="0" key="75" pos="324" len="12"/>
          <note vol="200" pan="0" key="76" pos="336" len="12"/>
          <note vol="200" pan="0" key="0" pos="336" len="12"/>
          <note vol="200" pan="0" key="75" pos="348" len="12"/>
          <note vol="200" pan="0" key="73" pos="360" len="12"/>
          <note vol="200" pan="0" key="1" pos="360" len="12"/>
          <note vol="200" pan="0" key="71" pos="372" len="12"/>
          <note vol="197" pan="0" key="76" pos="384" len="12"/>
          <note vol="197" pan="0" key="0" pos="384" len="12"/>
          <note vol="197" pan="0" key="64" pos="396" len="12"/>
          <note vol="197" pan="0" key="2" pos="396" len="12"/>
          <note vol="197" pan="0" key="64" pos="408" len="12"/>
          <note vol="197" pan="0" key="0" pos="408" len="12"/>
          <note vol="197" pan="0" key="75" pos="420" len="12"/>
          <note vol="197" pan="0" key="0" pos="420" len="12"/>
          <note vol="197" pan="0" key="64" pos="432" len="12"/>
          <note vol="197" pan="0" key="2" pos="432" len="12"/>
          <note vol="197" pan="0" key="64" pos="444" len="12"/>
          <note vol="197" pan="0" key="0" pos="444" len="12"/>
          <note vol="197" pan="0" key="76" pos="456" len="12"/>
          <note vol="197" pan="0" key="0" pos="456" len="12"/>
          <note vol="197" pan="0" key="64" pos="468" len="12"/>
          <note vol="197" pan="0" key="2" pos="468" len="12"/>
          <note vol="197" pan="0" key="64" pos="480" len="12"/>
          <note vol="197" pan="0" key="0" pos="480" len="12"/>
          <note vol="197" pan="0" key="75" pos="492" len="12"/>
          <note vol="197" pan="0" key="0" pos="492" len="12"/>
          <note vol="197" pan="0" key="64" pos="504" len="12"/>
          <note vol="197" pan="0" key="2" pos="504" len="12"/>
          <note vol="197" pan="0" key="64" pos="516" len="12"/>
          <note vol="197" pan="0" key="0" pos="516" len="12"/>
          <note vol="197" pan="0" key="76" pos="528" len="12"/>
          <note vol="197" pan="0" key="0" pos="528" len="12"/>
          <note vol="197" pan="0" key="64" pos="540" len="12"/>
          <note vol="197" pan="0" key="2" pos="540" len="12"/>
          <note vol="197" pan="0" key="75" pos="552" len="12"/>
          <note vol="197" pan="0" key="0" pos="552" len="12"/>
          <note vol="197" pan="0" key="64" pos="564" len="12"/>
          <note vol="197" pan="0" key="2" pos="564" len="12"/>
        </pattern>
        <pattern type="1" name="" steps="16" muted="0" pos="28032">
          <note vol="200" pan="0" key="61" pos="0" len="48"/>
          <note vol="200" pan="0" key="0" pos="0" len="36"/>
          <note vol="200" pan="0" key="1" pos="36" len="36"/>
          <note vol="200" pan="0" key="57" pos="48" len="48"/>
          <note vol="200" pan="0" key="59" pos="96" len="48"/>
          <note vol="200" pan="0" key="61" pos="144" len="48"/>
          <note vol="200" pan="0" key="0" pos="180" len="36"/>
          <note vol="200" pan="0" key="63" pos="192" len="48"/>
          <note vol="200" pan="0" key="64" pos="240" len="48"/>
          <note vol="200" pan="0" key="63" pos="288" len="48"/>
          <note vol="200" pan="0" key="59" pos="336" len="48"/>
          <note vol="200" pan="0" key="61" pos="384" len="48"/>
          <note vol="200" pan="0" key="59" pos="432" len="48"/>
          <note vol="200" pan="0" key="61" pos="480" len="48"/>
          <note vol="200" pan="0" key="63" pos="528" len="48"/>
          <note vol="200" pan="0" key="68" pos="576" len="192"/>
        </pattern>
        <pattern type="1" name="" steps="16" muted="0" pos="38016">
          <note vol="100" pan="0" key="69" pos="0" len="12"/>
          <note vol="100" pan="0" key="1" pos="0" len="12"/>
          <note vol="100" pan="0" key="74" pos="12" len="12"/>
          <note vol="100" pan="0" key="78" pos="24" len="12"/>
          <note vol="100" pan="0" key="81" pos="36" len="12"/>
          <note vol="100" pan="0" key="0" pos="36" len="12"/>
          <note vol="100" pan="0" key="86" pos="48" len="12"/>
          <note vol="100" pan="0" key="81" pos="60" len="12"/>
          <note vol="100" pan="0" key="78" pos="72" len="12"/>
          <note vol="100" pan="0" key="1" pos="72" len="12"/>
          <note vol="100" pan="0" key="74" pos="84" len="12"/>
          <note vol="100" pan="0" key="81" pos="96" len="12"/>
          <note vol="100" pan="0" key="0" pos="96" len="12"/>
          <note vol="100" pan="0" key="80" pos="108" len="12"/>
          <note vol="100" pan="0" key="78" pos="120" len="12"/>
          <note vol="100" pan="0" key="1" pos="120" len="12"/>
          <note vol="100" pan="0" key="74" pos="132" len="12"/>
          <note vol="100" pan="0" key="83" pos="144" len="12"/>
          <note vol="100" pan="0" key="0" pos="144" len="12"/>
          <note vol="100" pan="0" key="81" pos="156" len="12"/>
          <note vol="100" pan="0" key="80" pos="168" len="12"/>
          <note vol="100" pan="0" key="1" pos="168" len="12"/>
          <note vol="100" pan="0" key="78" pos="180" len="12"/>
          <note vol="121" pan="0" key="83" pos="192" len="12"/>
          <note vol="121" pan="0" key="85" pos="204" len="12"/>
          <note vol="121" pan="0" key="83" pos="216" len="12"/>
          <note vol="121" pan="0" key="81" pos="228" len="12"/>
          <note vol="121" pan="0" key="80" pos="240" len="12"/>
          <note vol="121" pan="0" key="81" pos="252" len="12"/>
          <note vol="121" pan="0" key="80" pos="264" len="12"/>
          <note vol="121" pan="0" key="78" pos="276" len="12"/>
          <note vol="121" pan="0" key="83" pos="288" len="12"/>
          <note vol="121" pan="0" key="0" pos="288" len="24"/>
          <note vol="121" pan="0" key="85" pos="300" len="12"/>
          <note vol="121" pan="0" key="88" pos="312" len="48"/>
          <note vol="121" pan="0" key="85" pos="360" len="24"/>
          <note vol="100" pan="0" key="81" pos="384" len="24"/>
          <note vol="100" pan="0" key="80" pos="408" len="24"/>
          <note vol="100" pan="0" key="76" pos="432" len="24"/>
          <note vol="100" pan="0" key="81" pos="456" len="24"/>
          <note vol="100" pan="0" key="80" pos="480" len="24"/>
          <note vol="100" pan="0" key="78" pos="504" len="24"/>
          <note vol="100" pan="0" key="76" pos="528" len="24"/>
          <note vol="100" pan="0" key="80" pos="552" len="24"/>
          <note vol="100" pan="0" key="78" pos="576" len="12"/>
          <note vol="100" pan="0" key="0" pos="576" len="12"/>
          <note vol="100" pan="0" key="80" pos="588" len="12"/>
          <note vol="100" pan="0" key="2" pos="588" len="12"/>
          <note vol="100" pan="0" key="78" pos="600" len="48"/>
          <note vol="100" pan="0" key="1" pos="636" len="12"/>
          <note vol="100" pan="0" key="75" pos="648" len="12"/>
          <note vol="100" pan="0" key="76" pos="660" len="12"/>
          <note vol="100" pan="0" key="78" pos="672" len="12"/>
          <note vol="100" pan="0" key="0" pos="672" len="12"/>
          <note vol="100" pan="0" key="76" pos="684" len="12"/>
          <note vol="100" pan="0" key="75" pos="696" len="12"/>
          <note vol="100" pan="0" key="76" pos="708" len="12"/>
          <note vol="100" pan="0" key="1" pos="708" len="12"/>
          <note vol="100" pan="0" key="75" pos="720" len="12"/>
          <note vol="100" pan="0" key="73" pos="732" len="12"/>
          <note vol="100" pan="0" key="71" pos="744" len="12"/>
          <note vol="100" pan="0" key="69" pos="756" len="12"/>
        </pattern>
        <pattern type="1" name="" steps="16" muted="0" pos="39552">
          <note vol="78" pan="0" key="73" pos="0" len="12"/>
          <note vol="78" pan="0" key="0" pos="0" len="48"/>
          <note vol="78" pan="0" key="68" pos="12" len="12"/>
          <note vol="78" pan="0" key="64" pos="24" len="12"/>
          <note vol="78" pan="0" key="61" pos="36" len="12"/>
          <note vol="78" pan="0" key="56" pos="48" len="12"/>
          <note vol="78" pan="0" key="1" pos="48" len="12"/>
          <note vol="78" pan="0" key="52" pos="60" len="12"/>
          <note vol="78" pan="0" key="56" pos="72" len="12"/>
          <note vol="78" pan="0" key="61" pos="84" len="12"/>
          <note vol="78" pan="0" key="64" pos="96" len="12"/>
          <note vol="78" pan="0" key="68" pos="108" len="12"/>
          <note vol="78" pan="0" key="76" pos="120" len="12"/>
          <note vol="78" pan="0" key="0" pos="120" len="12"/>
          <note vol="78" pan="0" key="73" pos="132" len="12"/>
          <note vol="78" pan="0" key="68" pos="144" len="12"/>
          <note vol="78" pan="0" key="64" pos="156" len="12"/>
          <note vol="78" pan="0" key="1" pos="156" len="12"/>
          <note vol="78" pan="0" key="68" pos="168" len="12"/>
          <note vol="78" pan="0" key="73" pos="180" len="12"/>
          <note vol="78" pan="0" key="75" pos="192" len="12"/>
          <note vol="78" pan="0" key="0" pos="192" len="12"/>
          <note vol="78" pan="0" key="71" pos="204" len="12"/>
          <note vol="78" pan="0" key="68" pos="216" len="12"/>
          <note vol="78" pan="0" key="63" pos="228" len="12"/>
          <note vol="78" pan="0" key="1" pos="228" len="12"/>
          <note vol="78" pan="0" key="59" pos="240" len="12"/>
          <note vol="78" pan="0" key="56" pos="252" len="12"/>
          <note vol="78" pan="0" key="59" pos="264" len="12"/>
          <note vol="78" pan="0" key="63" pos="276" len="12"/>
          <note vol="78" pan="0" key="68" pos="288" len="12"/>
          <note vol="78" pan="0" key="71" pos="300" len="12"/>
          <note vol="78" pan="0" key="80" pos="312" len="12"/>
          <note vol="78" pan="0" key="0" pos="312" len="12"/>
          <note vol="78" pan="0" key="75" pos="324" len="12"/>
          <note vol="78" pan="0" key="71" pos="336" len="12"/>
          <note vol="78" pan="0" key="68" pos="348" len="12"/>
          <note vol="78" pan="0" key="1" pos="348" len="12"/>
          <note vol="78" pan="0" key="71" pos="360" len="12"/>
          <note vol="78" pan="0" key="75" pos="372" len="12"/>
          <note vol="78" pan="0" key="80" pos="384" len="24"/>
          <note vol="78" pan="0" key="0" pos="384" len="12"/>
          <note vol="78" pan="0" key="76" pos="408" len="24"/>
          <note vol="78" pan="0" key="69" pos="432" len="24"/>
          <note vol="78" pan="0" key="76" pos="456" len="24"/>
          <note vol="78" pan="0" key="75" pos="480" len="24"/>
          <note vol="78" pan="0" key="69" pos="504" len="24"/>
          <note vol="78" pan="0" key="78" pos="528" len="24"/>
          <note vol="78" pan="0" key="76" pos="552" len="24"/>
          <note vol="78" pan="0" key="75" pos="576" len="48"/>
          <note vol="78" pan="0" key="76" pos="624" len="48"/>
          <note vol="78" pan="0" key="76" pos="672" len="12"/>
          <note vol="78" pan="0" key="78" pos="684" len="12"/>
          <note vol="78" pan="0" key="76" pos="696" len="12"/>
          <note vol="78" pan="0" key="75" pos="708" len="12"/>
          <note vol="78" pan="0" key="76" pos="720" len="12"/>
          <note vol="78" pan="0" key="75" pos="732" len="12"/>
          <note vol="78" pan="0" key="73" pos="744" len="12"/>
          <note vol="78" pan="0" key="71" pos="756" len="12"/>
          <note vol="78" pan="0" key="1" pos="768" len="12"/>
          <note vol="78" pan="0" key="0" pos="960" len="12"/>
        </pattern>
        <pattern type="0" name="" steps="16" muted="0" pos="46656"/>
        <pattern type="1" name="" steps="16" muted="0" pos="47232">
          <note vol="78" pan="0" key="70" pos="0" len="120"/>
          <note vol="78" pan="0" key="0" pos="0" len="24"/>
          <note vol="78" pan="0" key="1" pos="96" len="24"/>
          <note vol="78" pan="0" key="66" pos="120" len="24"/>
          <note vol="78" pan="0" key="0" pos="132" len="24"/>
          <note vol="78" pan="0" key="75" pos="144" len="24"/>
          <note vol="78" pan="0" key="66" pos="168" len="24"/>
          <note vol="78" pan="0" key="1" pos="168" len="24"/>
          <note vol="78" pan="0" key="73" pos="192" len="120"/>
          <note vol="78" pan="0" key="0" pos="192" len="24"/>
          <note vol="78" pan="0" key="1" pos="300" len="12"/>
          <note vol="78" pan="0" key="73" pos="312" len="12"/>
          <note vol="78" pan="0" key="75" pos="324" len="12"/>
          <note vol="78" pan="0" key="78" pos="336" len="12"/>
          <note vol="78" pan="0" key="0" pos="336" len="12"/>
          <note vol="78" pan="0" key="75" pos="348" len="12"/>
          <note vol="78" pan="0" key="73" pos="360" len="12"/>
          <note vol="78" pan="0" key="1" pos="360" len="12"/>
          <note vol="78" pan="0" key="75" pos="372" len="12"/>
          <note vol="78" pan="0" key="78" pos="384" len="144"/>
          <note vol="78" pan="0" key="0" pos="384" len="12"/>
          <note vol="78" pan="0" key="77" pos="528" len="24"/>
          <note vol="78" pan="0" key="75" pos="552" len="24"/>
          <note vol="78" pan="0" key="73" pos="576" len="48"/>
          <note vol="78" pan="0" key="75" pos="624" len="48"/>
          <note vol="78" pan="0" key="0" pos="660" len="12"/>
          <note vol="78" pan="0" key="70" pos="672" len="12"/>
          <note vol="78" pan="0" key="1" pos="672" len="12"/>
          <note vol="78" pan="0" key="70" pos="684" len="12"/>
          <note vol="78" pan="0" key="70" pos="696" len="12"/>
          <note vol="78" pan="0" key="70" pos="708" len="12"/>
          <note vol="78" pan="0" key="66" pos="720" len="12"/>
          <note vol="78" pan="0" key="0" pos="720" len="12"/>
          <note vol="78" pan="0" key="63" pos="732" len="12"/>
          <note vol="78" pan="0" key="1" pos="732" len="12"/>
          <note vol="78" pan="0" key="65" pos="744" len="12"/>
          <note vol="78" pan="0" key="66" pos="756" len="12"/>
          <note vol="78" pan="0" key="68" pos="768" len="96"/>
          <note vol="78" pan="0" key="0" pos="768" len="12"/>
          <note vol="78" pan="0" key="71" pos="864" len="48"/>
          <note vol="78" pan="0" key="75" pos="912" len="48"/>
          <note vol="78" pan="0" key="75" pos="960" len="96"/>
          <note vol="78" pan="0" key="73" pos="1056" len="12"/>
          <note vol="78" pan="0" key="0" pos="1056" len="12"/>
          <note vol="78" pan="0" key="66" pos="1068" len="12"/>
          <note vol="78" pan="0" key="2" pos="1068" len="12"/>
          <note vol="78" pan="0" key="66" pos="1080" len="12"/>
          <note vol="78" pan="0" key="1" pos="1080" len="12"/>
          <note vol="78" pan="0" key="66" pos="1092" len="12"/>
          <note vol="78" pan="0" key="75" pos="1104" len="12"/>
          <note vol="78" pan="0" key="0" pos="1104" len="12"/>
          <note vol="78" pan="0" key="71" pos="1116" len="12"/>
          <note vol="78" pan="0" key="2" pos="1116" len="12"/>
          <note vol="78" pan="0" key="73" pos="1128" len="12"/>
          <note vol="78" pan="0" key="1" pos="1128" len="12"/>
          <note vol="78" pan="0" key="75" pos="1140" len="12"/>
          <note vol="78" pan="0" key="82" pos="1152" len="48"/>
          <note vol="78" pan="0" key="0" pos="1152" len="12"/>
          <note vol="78" pan="0" key="80" pos="1200" len="12"/>
          <note vol="78" pan="0" key="82" pos="1212" len="12"/>
          <note vol="78" pan="0" key="80" pos="1224" len="48"/>
          <note vol="78" pan="0" key="78" pos="1272" len="12"/>
          <note vol="78" pan="0" key="0" pos="1272" len="12"/>
          <note vol="78" pan="0" key="80" pos="1284" len="12"/>
          <note vol="78" pan="0" key="78" pos="1296" len="12"/>
          <note vol="78" pan="0" key="1" pos="1296" len="12"/>
          <note vol="78" pan="0" key="77" pos="1308" len="12"/>
          <note vol="78" pan="0" key="75" pos="1320" len="12"/>
          <note vol="78" pan="0" key="78" pos="1332" len="12"/>
          <note vol="78" pan="0" key="77" pos="1344" len="72"/>
          <note vol="78" pan="0" key="0" pos="1344" len="12"/>
          <note vol="78" pan="0" key="75" pos="1416" len="12"/>
          <note vol="78" pan="0" key="1" pos="1416" len="12"/>
          <note vol="78" pan="0" key="77" pos="1428" len="12"/>
          <note vol="78" pan="0" key="78" pos="1440" len="12"/>
          <note vol="78" pan="0" key="0" pos="1440" len="12"/>
          <note vol="78" pan="0" key="80" pos="1452" len="12"/>
          <note vol="78" pan="0" key="78" pos="1464" len="12"/>
          <note vol="78" pan="0" key="1" pos="1464" len="12"/>
          <note vol="78" pan="0" key="77" pos="1476" len="12"/>
          <note vol="78" pan="0" key="78" pos="1488" len="12"/>
          <note vol="78" pan="0" key="0" pos="1488" len="12"/>
          <note vol="78" pan="0" key="77" pos="1500" len="12"/>
          <note vol="78" pan="0" key="75" pos="1512" len="12"/>
          <note vol="78" pan="0" key="73" pos="1524" len="12"/>
          <note vol="78" pan="0" key="75" pos="1536" len="48"/>
          <note vol="78" pan="0" key="0" pos="1536" len="12"/>
          <note vol="78" pan="0" key="1" pos="1572" len="12"/>
          <note vol="78" pan="0" key="66" pos="1584" len="12"/>
          <note vol="78" pan="0" key="66" pos="1596" len="12"/>
          <note vol="78" pan="0" key="73" pos="1608" len="48"/>
          <note vol="78" pan="0" key="0" pos="1608" len="12"/>
          <note vol="78" pan="0" key="1" pos="1644" len="12"/>
          <note vol="78" pan="0" key="66" pos="1656" len="12"/>
          <note vol="78" pan="0" key="66" pos="1668" len="12"/>
          <note vol="78" pan="0" key="75" pos="1680" len="24"/>
          <note vol="78" pan="0" key="0" pos="1680" len="12"/>
          <note vol="78" pan="0" key="1" pos="1692" len="12"/>
          <note vol="78" pan="0" key="66" pos="1704" len="12"/>
          <note vol="78" pan="0" key="66" pos="1716" len="12"/>
          <note vol="78" pan="0" key="78" pos="1728" len="144"/>
          <note vol="78" pan="0" key="0" pos="1728" len="12"/>
          <note vol="78" pan="0" key="73" pos="1872" len="48"/>
          <note vol="78" pan="0" key="0" pos="1908" len="12"/>
          <note vol="78" pan="0" key="72" pos="1920" len="12"/>
          <note vol="78" pan="0" key="73" pos="1932" len="12"/>
          <note vol="78" pan="0" key="2" pos="1932" len="12"/>
          <note vol="78" pan="0" key="72" pos="1944" len="216"/>
          <note vol="78" pan="0" key="0" pos="2100" len="12"/>
          <note vol="78" pan="0" key="75" pos="2160" len="48"/>
          <note vol="78" pan="0" key="77" pos="2208" len="24"/>
          <note vol="78" pan="0" key="75" pos="2232" len="12"/>
          <note vol="78" pan="0" key="77" pos="2244" len="12"/>
          <note vol="78" pan="0" key="78" pos="2256" len="24"/>
          <note vol="78" pan="0" key="77" pos="2280" len="12"/>
          <note vol="78" pan="0" key="78" pos="2292" len="12"/>
          <note vol="78" pan="0" key="80" pos="2304" len="72"/>
          <note vol="78" pan="0" key="78" pos="2376" len="72"/>
          <note vol="78" pan="0" key="77" pos="2448" len="48"/>
          <note vol="78" pan="0" key="1" pos="2484" len="12"/>
          <note vol="193" pan="0" key="75" pos="2496" len="12"/>
          <note vol="193" pan="0" key="73" pos="2508" len="12"/>
          <note vol="193" pan="0" key="71" pos="2520" len="12"/>
          <note vol="193" pan="0" key="66" pos="2532" len="12"/>
          <note vol="193" pan="0" key="71" pos="2544" len="12"/>
          <note vol="193" pan="0" key="70" pos="2556" len="12"/>
          <note vol="193" pan="0" key="68" pos="2568" len="12"/>
          <note vol="193" pan="0" key="66" pos="2580" len="12"/>
          <note vol="193" pan="0" key="75" pos="2592" len="12"/>
          <note vol="78" pan="0" key="0" pos="2592" len="12"/>
          <note vol="193" pan="0" key="73" pos="2604" len="12"/>
          <note vol="193" pan="0" key="71" pos="2616" len="12"/>
          <note vol="193" pan="0" key="66" pos="2628" len="12"/>
          <note vol="193" pan="0" key="83" pos="2640" len="48"/>
          <note vol="193" pan="0" key="80" pos="2688" len="192"/>
        </pattern>
        <pattern type="1" name="" steps="16" muted="0" pos="56448">
          <note vol="78" pan="0" key="75" pos="0" len="336"/>
          <note vol="78" pan="0" key="0" pos="0" len="336"/>
          <note vol="78" pan="0" key="78" pos="336" len="48"/>
          <note vol="78" pan="0" key="77" pos="384" len="288"/>
          <note vol="78" pan="0" key="70" pos="672" len="48"/>
          <note vol="78" pan="0" key="73" pos="720" len="48"/>
          <note vol="78" pan="0" key="75" pos="768" len="240"/>
          <note vol="78" pan="0" key="73" pos="1008" len="48"/>
          <note vol="78" pan="0" key="75" pos="1056" len="48"/>
          <note vol="78" pan="0" key="82" pos="1104" len="48"/>
          <note vol="78" pan="0" key="80" pos="1152" len="192"/>
          <note vol="78" pan="0" key="83" pos="1344" len="48"/>
          <note vol="78" pan="0" key="82" pos="1392" len="48"/>
          <note vol="78" pan="0" key="80" pos="1440" len="48"/>
          <note vol="78" pan="0" key="76" pos="1488" len="48"/>
          <note vol="78" pan="0" key="75" pos="1536" len="144"/>
          <note vol="78" pan="0" key="75" pos="1680" len="24"/>
          <note vol="78" pan="0" key="77" pos="1704" len="24"/>
          <note vol="78" pan="0" key="78" pos="1728" len="96"/>
          <note vol="78" pan="0" key="0" pos="1812" len="24"/>
          <note vol="78" pan="0" key="80" pos="1824" len="12"/>
          <note vol="78" pan="0" key="82" pos="1836" len="84"/>
          <note vol="78" pan="0" key="2" pos="1836" len="24"/>
          <note vol="78" pan="0" key="0" pos="1896" len="24"/>
          <note vol="78" pan="0" key="80" pos="1920" len="156"/>
          <note vol="78" pan="0" key="80" pos="2076" len="12"/>
          <note vol="78" pan="0" key="78" pos="2088" len="12"/>
          <note vol="78" pan="0" key="77" pos="2100" len="12"/>
          <note vol="78" pan="0" key="73" pos="2112" len="96"/>
          <note vol="78" pan="0" key="70" pos="2208" len="48"/>
          <note vol="78" pan="0" key="73" pos="2256" len="48"/>
          <note vol="78" pan="0" key="75" pos="2304" len="120"/>
          <note vol="78" pan="0" key="73" pos="2424" len="24"/>
          <note vol="78" pan="0" key="72" pos="2448" len="24"/>
          <note vol="78" pan="0" key="68" pos="2472" len="24"/>
          <note vol="78" pan="0" key="70" pos="2496" len="96"/>
          <note vol="78" pan="0" key="63" pos="2592" len="96"/>
          <note vol="78" pan="0" key="70" pos="2688" len="12"/>
          <note vol="78" pan="0" key="0" pos="2688" len="12"/>
          <note vol="78" pan="0" key="71" pos="2700" len="84"/>
          <note vol="78" pan="0" key="2" pos="2700" len="12"/>
          <note vol="78" pan="0" key="0" pos="2712" len="12"/>
          <note vol="78" pan="0" key="70" pos="2784" len="96"/>
          <note vol="78" pan="0" key="68" pos="2880" len="96"/>
          <note vol="78" pan="0" key="73" pos="2976" len="96"/>
          <note vol="78" pan="0" key="75" pos="3072" len="48"/>
          <note vol="78" pan="0" key="70" pos="3120" len="48"/>
          <note vol="78" pan="0" key="75" pos="3168" len="48"/>
          <note vol="78" pan="0" key="77" pos="3216" len="48"/>
          <note vol="78" pan="0" key="78" pos="3264" len="48"/>
          <note vol="78" pan="0" key="80" pos="3312" len="48"/>
          <note vol="78" pan="0" key="82" pos="3360" len="48"/>
          <note vol="78" pan="0" key="87" pos="3408" len="48"/>
          <note vol="78" pan="0" key="85" pos="3456" len="144"/>
          <note vol="78" pan="0" key="80" pos="3600" len="12"/>
          <note vol="78" pan="0" key="0" pos="3600" len="12"/>
          <note vol="78" pan="0" key="82" pos="3612" len="36"/>
          <note vol="78" pan="0" key="2" pos="3612" len="12"/>
          <note vol="78" pan="0" key="0" pos="3624" len="12"/>
          <note vol="78" pan="0" key="80" pos="3648" len="96"/>
          <note vol="78" pan="0" key="77" pos="3744" len="48"/>
          <note vol="78" pan="0" key="80" pos="3792" len="48"/>
          <note vol="78" pan="0" key="79" pos="3840" len="24"/>
          <note vol="78" pan="0" key="80" pos="3864" len="24"/>
          <note vol="78" pan="0" key="79" pos="3888" len="24"/>
          <note vol="78" pan="0" key="75" pos="3912" len="24"/>
          <note vol="78" pan="0" key="72" pos="3936" len="24"/>
          <note vol="78" pan="0" key="63" pos="3960" len="24"/>
          <note vol="78" pan="0" key="70" pos="3984" len="24"/>
          <note vol="78" pan="0" key="68" pos="4008" len="24"/>
          <note vol="78" pan="0" key="70" pos="4032" len="96"/>
          <note vol="78" pan="0" key="75" pos="4128" len="96"/>
          <note vol="78" pan="0" key="75" pos="4224" len="192"/>
          <note vol="78" pan="0" key="78" pos="4416" len="96"/>
          <note vol="78" pan="0" key="80" pos="4512" len="96"/>
          <note vol="78" pan="0" key="82" pos="4608" len="192"/>
          <note vol="78" pan="0" key="0" pos="4608" len="16"/>
          <note vol="78" pan="0" key="75" pos="4800" len="16"/>
          <note vol="78" pan="0" key="1" pos="4800" len="16"/>
          <note vol="78" pan="0" key="77" pos="4816" len="16"/>
          <note vol="78" pan="0" key="75" pos="4832" len="16"/>
          <note vol="78" pan="0" key="78" pos="4848" len="16"/>
          <note vol="78" pan="0" key="80" pos="4864" len="16"/>
          <note vol="78" pan="0" key="0" pos="4864" len="16"/>
          <note vol="78" pan="0" key="82" pos="4880" len="16"/>
          <note vol="78" pan="0" key="87" pos="4896" len="16"/>
          <note vol="78" pan="0" key="82" pos="4912" len="16"/>
          <note vol="78" pan="0" key="80" pos="4928" len="16"/>
          <note vol="78" pan="0" key="1" pos="4928" len="16"/>
          <note vol="78" pan="0" key="78" pos="4944" len="16"/>
          <note vol="78" pan="0" key="77" pos="4960" len="16"/>
          <note vol="78" pan="0" key="75" pos="4976" len="16"/>
          <note vol="78" pan="0" key="77" pos="4992" len="48"/>
          <note vol="78" pan="0" key="0" pos="4992" len="192"/>
          <note vol="78" pan="0" key="78" pos="5040" len="48"/>
          <note vol="78" pan="0" key="80" pos="5088" len="48"/>
          <note vol="78" pan="0" key="85" pos="5136" len="48"/>
          <note vol="78" pan="0" key="73" pos="5184" len="96"/>
          <note vol="78" pan="0" key="75" pos="5280" len="12"/>
          <note vol="78" pan="0" key="0" pos="5280" len="12"/>
          <note vol="78" pan="0" key="77" pos="5292" len="84"/>
          <note vol="78" pan="0" key="2" pos="5292" len="12"/>
          <note vol="78" pan="0" key="0" pos="5304" len="12"/>
          <note vol="78" pan="0" key="75" pos="5376" len="96"/>
          <note vol="78" pan="0" key="77" pos="5472" len="96"/>
          <note vol="78" pan="0" key="70" pos="5568" len="96"/>
          <note vol="78" pan="0" key="75" pos="5664" len="96"/>
          <note vol="78" pan="0" key="80" pos="5760" len="96"/>
          <note vol="78" pan="0" key="82" pos="5856" len="96"/>
          <note vol="200" pan="0" key="85" pos="5952" len="96"/>
        </pattern>
      </track>
      <track type="0" name="lgtH1" solo="0" muted="1" mutedBeforeSolo="0">
        <instrumenttrack usemasterpitch="1" pitchrange="1" pitch="0" vol="200" basenote="57" pan="-100" fxch="13">
          <instrument name="carlapatchbay">
            <carlapatchbay>
              <CARLA-PROJECT VERSION="2.2">
                <EngineSettings>
                  <ForceStereo>false</ForceStereo>
                  <PreferPluginBridges>false</PreferPluginBridges>
                  <PreferUiBridges>true</PreferUiBridges>
                  <UIsAlwaysOnTop>false</UIsAlwaysOnTop>
                  <MaxParameters>200</MaxParameters>
                  <UIBridgesTimeout>4000</UIBridgesTimeout>
                  <LADSPA_PATH>/home/pass/.ladspa:/usr/lib/ladspa:/usr/local/lib/ladspa</LADSPA_PATH>
                  <DSSI_PATH>/home/pass/.dssi:/usr/lib/dssi:/usr/local/lib/dssi</DSSI_PATH>
                  <LV2_PATH>/home/pass/.lv2:/usr/lib/lv2:/usr/local/lib/lv2</LV2_PATH>
                  <VST2_PATH>/home/pass/.vst:/home/pass/.wine/drive_c/Program Files (x86)/VstPlugins:/home/pass/.wine/drive_c/Program Files/VstPlugins:/usr/lib/lxvst:/usr/lib/vst:/usr/local/lib/lxvst:/usr/local/lib/vst/home/pass/.lxvst:/home/pass/vst</VST2_PATH>
                  <VST3_PATH>/home/pass/.vst3:/home/pass/.wine/drive_c/Program Files (x86)/Common Files/VST3:/home/pass/.wine/drive_c/Program Files/Common Files/VST3:/usr/lib/vst3:/usr/local/lib/vst3</VST3_PATH>
                  <SF2_PATH>/home/pass/.sounds/sf2/home/pass/.sounds/sf3:/usr/share/soundfonts:/usr/share/sounds/sf2:/usr/share/sounds/sf3</SF2_PATH>
                  <SFZ_PATH>/home/pass/.sounds/sfz:/home/pass/samples:/usr/share/sounds/sfz</SFZ_PATH>
                </EngineSettings>
                <!-- sfizz -->
                <Plugin>
                  <Info>
                    <Type>LV2</Type>
                    <Name>sfizz</Name>
                    <URI>http://sfztools.github.io/sfizz</URI>
                  </Info>
                  <Data>
                    <Active>Yes</Active>
                    <ControlChannel>1</ControlChannel>
                    <Options>0x3f0</Options>
                    <Parameter>
                      <Index>0</Index>
                      <Name>Volume</Name>
                      <Symbol>volume</Symbol>
                      <Value>0</Value>
                    </Parameter>
                    <Parameter>
                      <Index>1</Index>
                      <Name>Polyphony</Name>
                      <Symbol>num_voices</Symbol>
                      <Value>64</Value>
                    </Parameter>
                    <Parameter>
                      <Index>2</Index>
                      <Name>Internal oversampling factor</Name>
                      <Symbol>oversampling</Symbol>
                      <Value>1</Value>
                    </Parameter>
                    <Parameter>
                      <Index>3</Index>
                      <Name>Preload size</Name>
                      <Symbol>preload_size</Symbol>
                      <Value>8192</Value>
                    </Parameter>
                    <Parameter>
                      <Index>5</Index>
                      <Name>Scala root key</Name>
                      <Symbol>scala_root_key</Symbol>
                      <Value>60</Value>
                    </Parameter>
                    <Parameter>
                      <Index>6</Index>
                      <Name>Tuning frequency</Name>
                      <Symbol>tuning_frequency</Symbol>
                      <Value>440</Value>
                    </Parameter>
                    <Parameter>
                      <Index>7</Index>
                      <Name>Stretched tuning</Name>
                      <Symbol>stretched_tuning</Symbol>
                      <Value>0</Value>
                    </Parameter>
                    <CustomData>
                      <Type>http://lv2plug.in/ns/ext/atom#Path</Type>
                      <Key>http://sfztools.github.io/sfizz:sfzfile</Key>
                      <Value>_fakeguitar1_integrated.sfz</Value>
                    </CustomData>
                    <CustomData>
                      <Type>http://lv2plug.in/ns/ext/atom#Int</Type>
                      <Key>http://sfztools.github.io/sfizz:numvoices</Key>
                      <Value>QAAAAA==</Value>
                    </CustomData>
                    <CustomData>
                      <Type>http://lv2plug.in/ns/ext/atom#Int</Type>
                      <Key>http://sfztools.github.io/sfizz:preload_size</Key>
                      <Value>ACAAAA==</Value>
                    </CustomData>
                    <CustomData>
                      <Type>http://lv2plug.in/ns/ext/atom#Int</Type>
                      <Key>http://sfztools.github.io/sfizz:oversampling</Key>
                      <Value>AQAAAA==</Value>
                    </CustomData>
                    <CustomData>
                      <Type>http://lv2plug.in/ns/ext/atom#Path</Type>
                      <Key>http://sfztools.github.io/sfizz:tuningfile</Key>
                      <Value>DefaultScale.scl</Value>
                    </CustomData>
                  </Data>
                </Plugin>
                <Patchbay>
                  <Connection>
                    <Source>Midi Input:Capture 1</Source>
                    <Target>sfizz:events-in</Target>
                  </Connection>
                  <Connection>
                    <Source>sfizz:Left Output</Source>
                    <Target>Audio Output:Left</Target>
                  </Connection>
                  <Connection>
                    <Source>sfizz:Right Output</Source>
                    <Target>Audio Output:Right</Target>
                  </Connection>
                  <Positions>
                    <Position y1="1353" x1="1693" pluginId="0">
                      <Name>sfizz</Name>
                    </Position>
                  </Positions>
                </Patchbay>
              </CARLA-PROJECT>
              <key/>
            </carlapatchbay>
          </instrument>
          <eldata fwet="0" fres="0.5" ftype="0" fcut="14000">
            <elvol x100="0" lspd_numerator="4" amt="0" lspd="0.1" lpdel="0" dec="0.5" lspd_syncmode="0" att="0" ctlenvamt="0" pdel="0" latt="0" sustain="0.5" lspd_denominator="4" hold="0.5" lamt="0" userwavefile="" lshp="0" rel="0.1"/>
            <elcut x100="0" lspd_numerator="4" amt="0" lspd="0.1" lpdel="0" dec="0.5" lspd_syncmode="0" att="0" ctlenvamt="0" pdel="0" latt="0" sustain="0.5" lspd_denominator="4" hold="0.5" lamt="0" userwavefile="" lshp="0" rel="0.1"/>
            <elres x100="0" lspd_numerator="4" amt="0" lspd="0.1" lpdel="0" dec="0.5" lspd_syncmode="0" att="0" ctlenvamt="0" pdel="0" latt="0" sustain="0.5" lspd_denominator="4" hold="0.5" lamt="0" userwavefile="" lshp="0" rel="0.1"/>
          </eldata>
          <chordcreator chordrange="1" chord="0" chord-enabled="0"/>
          <arpeggiator arprange="1" arptime_syncmode="0" arpskip="0" arpmiss="0" arptime="200" arpdir="0" arpmode="0" arptime_denominator="4" arp-enabled="0" arp="0" arpgate="100" arpcycle="0" arptime_numerator="4"/>
          <midiport inputcontroller="0" outputcontroller="0" outputprogram="1" basevelocity="63" outputchannel="1" writable="0" inputchannel="0" readable="0" fixedinputvelocity="-1" fixedoutputvelocity="-1" fixedoutputnote="-1"/>
          <fxchain numofeffects="0" enabled="0"/>
        </instrumenttrack>
        <pattern type="1" name="" steps="16" muted="0" pos="7104">
          <note vol="78" pan="0" key="0" pos="0" len="72"/>
          <note vol="78" pan="0" key="68" pos="96" len="48"/>
          <note vol="78" pan="0" key="71" pos="144" len="48"/>
          <note vol="78" pan="0" key="73" pos="192" len="96"/>
          <note vol="78" pan="0" key="73" pos="288" len="24"/>
          <note vol="78" pan="0" key="68" pos="312" len="24"/>
          <note vol="78" pan="0" key="73" pos="336" len="24"/>
          <note vol="78" pan="0" key="80" pos="360" len="168"/>
          <note vol="78" pan="0" key="80" pos="528" len="24"/>
          <note vol="78" pan="0" key="78" pos="552" len="24"/>
          <note vol="78" pan="0" key="77" pos="576" len="48"/>
          <note vol="78" pan="0" key="73" pos="624" len="48"/>
          <note vol="78" pan="0" key="70" pos="672" len="48"/>
          <note vol="78" pan="0" key="66" pos="720" len="48"/>
          <note vol="78" pan="0" key="69" pos="768" len="96"/>
          <note vol="78" pan="0" key="68" pos="864" len="96"/>
          <note vol="78" pan="0" key="73" pos="960" len="144"/>
          <note vol="78" pan="0" key="76" pos="1104" len="48"/>
          <note vol="78" pan="0" key="75" pos="1152" len="144"/>
          <note vol="78" pan="0" key="80" pos="1296" len="48"/>
          <note vol="78" pan="0" key="80" pos="1344" len="144"/>
          <note vol="78" pan="0" key="78" pos="1488" len="24"/>
          <note vol="78" pan="0" key="76" pos="1512" len="24"/>
          <note vol="78" pan="0" key="75" pos="1536" len="48"/>
          <note vol="78" pan="0" key="76" pos="1584" len="48"/>
          <note vol="78" pan="0" key="71" pos="1632" len="48"/>
          <note vol="78" pan="0" key="68" pos="1680" len="48"/>
          <note vol="78" pan="0" key="69" pos="1728" len="96"/>
          <note vol="78" pan="0" key="73" pos="1824" len="48"/>
          <note vol="78" pan="0" key="76" pos="1872" len="48"/>
          <note vol="78" pan="0" key="76" pos="1920" len="96"/>
          <note vol="78" pan="0" key="75" pos="2016" len="48"/>
          <note vol="78" pan="0" key="76" pos="2064" len="48"/>
          <note vol="78" pan="0" key="83" pos="2112" len="72"/>
          <note vol="78" pan="0" key="81" pos="2184" len="72"/>
          <note vol="78" pan="0" key="80" pos="2256" len="48"/>
          <note vol="78" pan="0" key="78" pos="2304" len="192"/>
          <note vol="78" pan="0" key="76" pos="2496" len="72"/>
          <note vol="78" pan="0" key="75" pos="2568" len="72"/>
          <note vol="78" pan="0" key="76" pos="2640" len="48"/>
          <note vol="78" pan="0" key="80" pos="2688" len="144"/>
          <note vol="78" pan="0" key="75" pos="2832" len="48"/>
          <note vol="78" pan="0" key="73" pos="2880" len="240"/>
          <note vol="78" pan="0" key="76" pos="3120" len="48"/>
          <note vol="78" pan="0" key="78" pos="3168" len="48"/>
          <note vol="78" pan="0" key="80" pos="3216" len="48"/>
          <note vol="78" pan="0" key="81" pos="3264" len="72"/>
          <note vol="78" pan="0" key="80" pos="3336" len="72"/>
          <note vol="78" pan="0" key="78" pos="3408" len="48"/>
          <note vol="78" pan="0" key="76" pos="3456" len="48"/>
          <note vol="78" pan="0" key="73" pos="3504" len="48"/>
          <note vol="78" pan="0" key="76" pos="3552" len="48"/>
          <note vol="78" pan="0" key="80" pos="3600" len="48"/>
          <note vol="78" pan="0" key="78" pos="3648" len="192"/>
          <note vol="78" pan="0" key="75" pos="3840" len="96"/>
          <note vol="78" pan="0" key="71" pos="3936" len="96"/>
          <note vol="78" pan="0" key="73" pos="4032" len="384"/>
        </pattern>
        <pattern type="1" name="" steps="16" muted="0" pos="5376">
          <note vol="78" pan="0" key="68" pos="0" len="24"/>
          <note vol="78" pan="0" key="0" pos="0" len="24"/>
          <note vol="78" pan="0" key="71" pos="24" len="24"/>
          <note vol="78" pan="0" key="68" pos="48" len="24"/>
          <note vol="78" pan="0" key="75" pos="72" len="48"/>
          <note vol="78" pan="0" key="68" pos="120" len="24"/>
          <note vol="78" pan="0" key="71" pos="144" len="24"/>
          <note vol="78" pan="0" key="75" pos="168" len="24"/>
          <note vol="78" pan="0" key="76" pos="192" len="24"/>
          <note vol="78" pan="0" key="75" pos="216" len="24"/>
          <note vol="78" pan="0" key="73" pos="240" len="24"/>
          <note vol="78" pan="0" key="71" pos="264" len="24"/>
          <note vol="78" pan="0" key="75" pos="288" len="24"/>
          <note vol="78" pan="0" key="73" pos="312" len="24"/>
          <note vol="78" pan="0" key="71" pos="336" len="24"/>
          <note vol="78" pan="0" key="68" pos="360" len="24"/>
        </pattern>
        <pattern type="1" name="" steps="16" muted="0" pos="6144">
          <note vol="78" pan="0" key="87" pos="0" len="24"/>
          <note vol="100" pan="0" key="0" pos="0" len="48"/>
          <note vol="78" pan="0" key="76" pos="24" len="24"/>
          <note vol="78" pan="0" key="80" pos="48" len="24"/>
          <note vol="78" pan="0" key="83" pos="72" len="48"/>
          <note vol="78" pan="0" key="80" pos="120" len="24"/>
          <note vol="78" pan="0" key="83" pos="144" len="24"/>
          <note vol="78" pan="0" key="87" pos="168" len="24"/>
          <note vol="100" pan="0" key="1" pos="180" len="48"/>
          <note vol="78" pan="0" key="85" pos="192" len="12"/>
          <note vol="78" pan="0" key="85" pos="204" len="12"/>
          <note vol="78" pan="0" key="80" pos="216" len="12"/>
          <note vol="78" pan="0" key="80" pos="228" len="12"/>
          <note vol="78" pan="0" key="76" pos="240" len="12"/>
          <note vol="78" pan="0" key="76" pos="252" len="12"/>
          <note vol="78" pan="0" key="73" pos="264" len="12"/>
          <note vol="78" pan="0" key="73" pos="276" len="12"/>
          <note vol="78" pan="0" key="78" pos="288" len="12"/>
          <note vol="78" pan="0" key="78" pos="300" len="12"/>
          <note vol="78" pan="0" key="76" pos="312" len="12"/>
          <note vol="78" pan="0" key="76" pos="324" len="12"/>
          <note vol="78" pan="0" key="80" pos="336" len="12"/>
          <note vol="78" pan="0" key="80" pos="348" len="12"/>
          <note vol="78" pan="0" key="76" pos="360" len="12"/>
          <note vol="78" pan="0" key="76" pos="372" len="12"/>
          <note vol="78" pan="0" key="0" pos="384" len="12"/>
        </pattern>
        <pattern type="1" name="" steps="16" muted="0" pos="13056">
          <note vol="78" pan="0" key="68" pos="0" len="24"/>
          <note vol="78" pan="0" key="0" pos="0" len="24"/>
          <note vol="78" pan="0" key="71" pos="24" len="24"/>
          <note vol="78" pan="0" key="68" pos="48" len="24"/>
          <note vol="78" pan="0" key="75" pos="72" len="48"/>
          <note vol="78" pan="0" key="68" pos="120" len="24"/>
          <note vol="78" pan="0" key="71" pos="144" len="24"/>
          <note vol="78" pan="0" key="75" pos="168" len="24"/>
          <note vol="78" pan="0" key="76" pos="192" len="24"/>
          <note vol="78" pan="0" key="75" pos="216" len="24"/>
          <note vol="78" pan="0" key="73" pos="240" len="24"/>
          <note vol="78" pan="0" key="71" pos="264" len="24"/>
          <note vol="78" pan="0" key="75" pos="288" len="24"/>
          <note vol="78" pan="0" key="73" pos="312" len="24"/>
          <note vol="78" pan="0" key="71" pos="336" len="24"/>
          <note vol="78" pan="0" key="68" pos="360" len="24"/>
        </pattern>
        <pattern type="1" name="" steps="16" muted="0" pos="13824">
          <note vol="78" pan="0" key="71" pos="0" len="24"/>
          <note vol="78" pan="0" key="0" pos="0" len="12"/>
          <note vol="78" pan="0" key="1" pos="12" len="12"/>
          <note vol="78" pan="0" key="61" pos="24" len="12"/>
          <note vol="78" pan="0" key="61" pos="36" len="12"/>
          <note vol="78" pan="0" key="64" pos="48" len="24"/>
          <note vol="78" pan="0" key="0" pos="48" len="12"/>
          <note vol="78" pan="0" key="68" pos="72" len="48"/>
          <note vol="78" pan="0" key="64" pos="120" len="24"/>
          <note vol="78" pan="0" key="68" pos="144" len="24"/>
          <note vol="78" pan="0" key="71" pos="168" len="24"/>
          <note vol="78" pan="0" key="69" pos="192" len="24"/>
          <note vol="78" pan="0" key="64" pos="216" len="24"/>
          <note vol="78" pan="0" key="61" pos="240" len="24"/>
          <note vol="78" pan="0" key="57" pos="264" len="24"/>
          <note vol="78" pan="0" key="63" pos="288" len="24"/>
          <note vol="78" pan="0" key="61" pos="312" len="24"/>
          <note vol="78" pan="0" key="64" pos="336" len="24"/>
          <note vol="78" pan="0" key="61" pos="360" len="24"/>
        </pattern>
        <pattern type="1" name="" steps="16" muted="0" pos="18816">
          <note vol="78" pan="0" key="73" pos="0" len="336"/>
          <note vol="78" pan="0" key="64" pos="336" len="48"/>
          <note vol="78" pan="0" key="63" pos="384" len="288"/>
          <note vol="78" pan="0" key="56" pos="672" len="48"/>
          <note vol="78" pan="0" key="59" pos="720" len="48"/>
          <note vol="78" pan="0" key="61" pos="768" len="240"/>
          <note vol="78" pan="0" key="59" pos="1008" len="48"/>
          <note vol="78" pan="0" key="61" pos="1056" len="48"/>
          <note vol="78" pan="0" key="68" pos="1104" len="48"/>
          <note vol="78" pan="0" key="66" pos="1152" len="192"/>
          <note vol="78" pan="0" key="69" pos="1344" len="48"/>
          <note vol="78" pan="0" key="68" pos="1392" len="24"/>
          <note vol="78" pan="0" key="68" pos="1416" len="12"/>
          <note vol="78" pan="0" key="69" pos="1424" len="12"/>
          <note vol="78" pan="0" key="68" pos="1432" len="12"/>
          <note vol="78" pan="0" key="66" pos="1440" len="48"/>
          <note vol="78" pan="0" key="68" pos="1488" len="48"/>
          <note vol="78" pan="0" key="64" pos="1536" len="240"/>
          <note vol="78" pan="0" key="61" pos="1776" len="48"/>
          <note vol="78" pan="0" key="64" pos="1824" len="48"/>
          <note vol="78" pan="0" key="68" pos="1872" len="48"/>
          <note vol="78" pan="0" key="68" pos="1920" len="192"/>
          <note vol="78" pan="0" key="66" pos="2112" len="144"/>
          <note vol="78" pan="0" key="68" pos="2256" len="48"/>
          <note vol="78" pan="0" key="61" pos="2304" len="240"/>
          <note vol="78" pan="0" key="56" pos="2544" len="48"/>
          <note vol="78" pan="0" key="61" pos="2592" len="48"/>
          <note vol="78" pan="0" key="68" pos="2640" len="48"/>
          <note vol="78" pan="0" key="73" pos="2688" len="192"/>
          <note vol="78" pan="0" key="72" pos="2880" len="192"/>
        </pattern>
        <pattern type="1" name="" steps="16" muted="0" pos="14784">
          <note vol="78" pan="0" key="0" pos="0" len="72"/>
          <note vol="78" pan="0" key="68" pos="96" len="48"/>
          <note vol="78" pan="0" key="71" pos="144" len="48"/>
          <note vol="78" pan="0" key="73" pos="192" len="96"/>
          <note vol="78" pan="0" key="73" pos="288" len="24"/>
          <note vol="78" pan="0" key="68" pos="312" len="24"/>
          <note vol="78" pan="0" key="73" pos="336" len="24"/>
          <note vol="78" pan="0" key="80" pos="360" len="168"/>
          <note vol="78" pan="0" key="80" pos="528" len="24"/>
          <note vol="78" pan="0" key="78" pos="552" len="24"/>
          <note vol="78" pan="0" key="77" pos="576" len="48"/>
          <note vol="78" pan="0" key="73" pos="624" len="48"/>
          <note vol="78" pan="0" key="70" pos="672" len="48"/>
          <note vol="78" pan="0" key="66" pos="720" len="48"/>
          <note vol="78" pan="0" key="69" pos="768" len="96"/>
          <note vol="78" pan="0" key="68" pos="864" len="96"/>
          <note vol="78" pan="0" key="73" pos="960" len="144"/>
          <note vol="78" pan="0" key="76" pos="1104" len="48"/>
          <note vol="78" pan="0" key="75" pos="1152" len="144"/>
          <note vol="78" pan="0" key="80" pos="1296" len="48"/>
          <note vol="78" pan="0" key="80" pos="1344" len="144"/>
          <note vol="78" pan="0" key="78" pos="1488" len="24"/>
          <note vol="78" pan="0" key="76" pos="1512" len="24"/>
          <note vol="78" pan="0" key="75" pos="1536" len="48"/>
          <note vol="78" pan="0" key="76" pos="1584" len="48"/>
          <note vol="78" pan="0" key="71" pos="1632" len="48"/>
          <note vol="78" pan="0" key="68" pos="1680" len="48"/>
          <note vol="78" pan="0" key="69" pos="1728" len="96"/>
          <note vol="78" pan="0" key="73" pos="1824" len="48"/>
          <note vol="78" pan="0" key="76" pos="1872" len="48"/>
          <note vol="78" pan="0" key="76" pos="1920" len="96"/>
          <note vol="78" pan="0" key="75" pos="2016" len="48"/>
          <note vol="78" pan="0" key="76" pos="2064" len="48"/>
          <note vol="78" pan="0" key="83" pos="2112" len="72"/>
          <note vol="78" pan="0" key="81" pos="2184" len="72"/>
          <note vol="78" pan="0" key="80" pos="2256" len="48"/>
          <note vol="78" pan="0" key="78" pos="2304" len="192"/>
          <note vol="78" pan="0" key="76" pos="2496" len="72"/>
          <note vol="78" pan="0" key="75" pos="2568" len="72"/>
          <note vol="78" pan="0" key="76" pos="2640" len="48"/>
          <note vol="78" pan="0" key="80" pos="2688" len="144"/>
          <note vol="78" pan="0" key="75" pos="2832" len="48"/>
          <note vol="78" pan="0" key="73" pos="2880" len="240"/>
          <note vol="78" pan="0" key="76" pos="3120" len="48"/>
          <note vol="78" pan="0" key="78" pos="3168" len="48"/>
          <note vol="78" pan="0" key="80" pos="3216" len="48"/>
          <note vol="78" pan="0" key="81" pos="3264" len="72"/>
          <note vol="78" pan="0" key="80" pos="3336" len="72"/>
          <note vol="78" pan="0" key="78" pos="3408" len="48"/>
          <note vol="78" pan="0" key="76" pos="3456" len="48"/>
          <note vol="78" pan="0" key="73" pos="3504" len="48"/>
          <note vol="78" pan="0" key="76" pos="3552" len="48"/>
          <note vol="78" pan="0" key="80" pos="3600" len="48"/>
          <note vol="78" pan="0" key="78" pos="3648" len="192"/>
          <note vol="78" pan="0" key="75" pos="3840" len="96"/>
          <note vol="78" pan="0" key="71" pos="3936" len="96"/>
        </pattern>
        <pattern type="1" name="" steps="16" muted="0" pos="34944">
          <note vol="197" pan="0" key="73" pos="0" len="144"/>
          <note vol="197" pan="0" key="0" pos="0" len="12"/>
          <note vol="197" pan="0" key="76" pos="144" len="48"/>
          <note vol="197" pan="0" key="75" pos="192" len="144"/>
          <note vol="197" pan="0" key="80" pos="336" len="48"/>
          <note vol="197" pan="0" key="80" pos="384" len="144"/>
          <note vol="197" pan="0" key="78" pos="528" len="24"/>
          <note vol="197" pan="0" key="76" pos="552" len="24"/>
          <note vol="197" pan="0" key="75" pos="576" len="48"/>
          <note vol="197" pan="0" key="76" pos="624" len="48"/>
          <note vol="197" pan="0" key="71" pos="672" len="12"/>
          <note vol="197" pan="0" key="1" pos="672" len="12"/>
          <note vol="197" pan="0" key="73" pos="684" len="12"/>
          <note vol="197" pan="0" key="71" pos="696" len="12"/>
          <note vol="197" pan="0" key="68" pos="708" len="12"/>
          <note vol="197" pan="0" key="71" pos="720" len="12"/>
          <note vol="197" pan="0" key="68" pos="732" len="12"/>
          <note vol="197" pan="0" key="66" pos="744" len="12"/>
          <note vol="197" pan="0" key="68" pos="756" len="12"/>
          <note vol="197" pan="0" key="69" pos="768" len="96"/>
          <note vol="197" pan="0" key="0" pos="768" len="12"/>
          <note vol="197" pan="0" key="73" pos="864" len="48"/>
          <note vol="197" pan="0" key="76" pos="912" len="48"/>
          <note vol="197" pan="0" key="76" pos="960" len="96"/>
          <note vol="197" pan="0" key="75" pos="1056" len="48"/>
          <note vol="197" pan="0" key="76" pos="1104" len="48"/>
          <note vol="197" pan="0" key="76" pos="1152" len="12"/>
          <note vol="200" pan="0" key="0" pos="1152" len="12"/>
          <note vol="197" pan="0" key="73" pos="1164" len="12"/>
          <note vol="197" pan="0" key="75" pos="1176" len="12"/>
          <note vol="197" pan="0" key="76" pos="1188" len="12"/>
          <note vol="197" pan="0" key="78" pos="1200" len="12"/>
          <note vol="197" pan="0" key="75" pos="1212" len="12"/>
          <note vol="197" pan="0" key="76" pos="1224" len="12"/>
          <note vol="197" pan="0" key="78" pos="1236" len="12"/>
          <note vol="197" pan="0" key="80" pos="1248" len="12"/>
          <note vol="197" pan="0" key="76" pos="1260" len="12"/>
          <note vol="197" pan="0" key="78" pos="1272" len="12"/>
          <note vol="197" pan="0" key="80" pos="1284" len="12"/>
          <note vol="197" pan="0" key="81" pos="1296" len="12"/>
          <note vol="197" pan="0" key="78" pos="1308" len="12"/>
          <note vol="197" pan="0" key="80" pos="1320" len="12"/>
          <note vol="197" pan="0" key="81" pos="1332" len="12"/>
          <note vol="200" pan="0" key="83" pos="1344" len="12"/>
          <note vol="200" pan="0" key="81" pos="1356" len="12"/>
          <note vol="200" pan="0" key="80" pos="1368" len="12"/>
          <note vol="200" pan="0" key="78" pos="1380" len="12"/>
          <note vol="200" pan="0" key="81" pos="1392" len="12"/>
          <note vol="200" pan="0" key="80" pos="1404" len="12"/>
          <note vol="200" pan="0" key="78" pos="1416" len="12"/>
          <note vol="200" pan="0" key="76" pos="1428" len="12"/>
          <note vol="200" pan="0" key="80" pos="1440" len="12"/>
          <note vol="200" pan="0" key="78" pos="1452" len="12"/>
          <note vol="200" pan="0" key="80" pos="1464" len="12"/>
          <note vol="200" pan="0" key="81" pos="1476" len="12"/>
          <note vol="200" pan="0" key="87" pos="1488" len="12"/>
          <note vol="200" pan="0" key="2" pos="1488" len="12"/>
          <note vol="200" pan="0" key="83" pos="1500" len="12"/>
          <note vol="200" pan="0" key="87" pos="1512" len="12"/>
          <note vol="200" pan="0" key="83" pos="1524" len="12"/>
        </pattern>
        <pattern type="1" name="" steps="16" muted="0" pos="31104">
          <note vol="197" pan="0" key="85" pos="0" len="24"/>
          <note vol="197" pan="0" key="1" pos="0" len="24"/>
          <note vol="197" pan="0" key="80" pos="24" len="24"/>
          <note vol="197" pan="0" key="83" pos="48" len="24"/>
          <note vol="197" pan="0" key="78" pos="72" len="24"/>
          <note vol="197" pan="0" key="80" pos="96" len="24"/>
          <note vol="197" pan="0" key="78" pos="120" len="24"/>
          <note vol="197" pan="0" key="76" pos="144" len="24"/>
          <note vol="197" pan="0" key="78" pos="168" len="24"/>
          <note vol="197" pan="0" key="80" pos="192" len="24"/>
          <note vol="197" pan="0" key="78" pos="216" len="24"/>
          <note vol="197" pan="0" key="80" pos="240" len="24"/>
          <note vol="197" pan="0" key="83" pos="264" len="24"/>
          <note vol="197" pan="0" key="85" pos="288" len="24"/>
          <note vol="197" pan="0" key="83" pos="312" len="24"/>
          <note vol="197" pan="0" key="80" pos="336" len="24"/>
          <note vol="197" pan="0" key="83" pos="360" len="24"/>
        </pattern>
        <pattern type="1" name="" steps="16" muted="0" pos="31488">
          <note vol="197" pan="0" key="71" pos="0" len="12"/>
          <note vol="197" pan="0" key="0" pos="0" len="24"/>
          <note vol="197" pan="0" key="69" pos="12" len="12"/>
          <note vol="197" pan="0" key="1" pos="12" len="24"/>
          <note vol="197" pan="0" key="71" pos="24" len="12"/>
          <note vol="197" pan="0" key="73" pos="36" len="12"/>
          <note vol="197" pan="0" key="75" pos="48" len="12"/>
          <note vol="197" pan="0" key="0" pos="48" len="12"/>
          <note vol="197" pan="0" key="71" pos="60" len="12"/>
          <note vol="197" pan="0" key="1" pos="60" len="12"/>
          <note vol="197" pan="0" key="73" pos="72" len="12"/>
          <note vol="197" pan="0" key="75" pos="84" len="12"/>
          <note vol="197" pan="0" key="76" pos="96" len="12"/>
          <note vol="197" pan="0" key="0" pos="96" len="12"/>
          <note vol="197" pan="0" key="75" pos="108" len="12"/>
          <note vol="197" pan="0" key="1" pos="108" len="12"/>
          <note vol="197" pan="0" key="73" pos="120" len="12"/>
          <note vol="197" pan="0" key="75" pos="132" len="12"/>
          <note vol="197" pan="0" key="76" pos="144" len="12"/>
          <note vol="197" pan="0" key="78" pos="156" len="12"/>
          <note vol="197" pan="0" key="80" pos="168" len="12"/>
          <note vol="197" pan="0" key="81" pos="180" len="12"/>
          <note vol="197" pan="0" key="83" pos="192" len="12"/>
          <note vol="197" pan="0" key="0" pos="192" len="12"/>
          <note vol="197" pan="0" key="78" pos="204" len="12"/>
          <note vol="197" pan="0" key="75" pos="216" len="12"/>
          <note vol="197" pan="0" key="1" pos="216" len="12"/>
          <note vol="197" pan="0" key="71" pos="228" len="12"/>
          <note vol="197" pan="0" key="66" pos="240" len="12"/>
          <note vol="197" pan="0" key="71" pos="252" len="12"/>
          <note vol="197" pan="0" key="87" pos="264" len="12"/>
          <note vol="197" pan="0" key="2" pos="264" len="12"/>
          <note vol="197" pan="0" key="78" pos="276" len="12"/>
          <note vol="197" pan="0" key="75" pos="288" len="12"/>
          <note vol="197" pan="0" key="1" pos="288" len="12"/>
          <note vol="197" pan="0" key="71" pos="300" len="12"/>
          <note vol="197" pan="0" key="75" pos="312" len="12"/>
          <note vol="197" pan="0" key="78" pos="324" len="12"/>
          <note vol="197" pan="0" key="83" pos="336" len="12"/>
          <note vol="197" pan="0" key="0" pos="336" len="12"/>
          <note vol="197" pan="0" key="78" pos="348" len="12"/>
          <note vol="197" pan="0" key="75" pos="360" len="12"/>
          <note vol="197" pan="0" key="78" pos="372" len="12"/>
        </pattern>
        <pattern type="1" name="" steps="16" muted="0" pos="31872">
          <note vol="100" pan="0" key="85" pos="0" len="240"/>
        </pattern>
        <pattern type="1" name="" steps="16" muted="0" pos="37056">
          <note vol="197" pan="0" key="80" pos="0" len="12"/>
          <note vol="197" pan="0" key="0" pos="0" len="12"/>
          <note vol="197" pan="0" key="64" pos="12" len="12"/>
          <note vol="197" pan="0" key="2" pos="12" len="12"/>
          <note vol="197" pan="0" key="64" pos="24" len="12"/>
          <note vol="197" pan="0" key="0" pos="24" len="12"/>
          <note vol="197" pan="0" key="78" pos="36" len="12"/>
          <note vol="197" pan="0" key="0" pos="36" len="12"/>
          <note vol="197" pan="0" key="64" pos="48" len="12"/>
          <note vol="197" pan="0" key="2" pos="48" len="12"/>
          <note vol="197" pan="0" key="64" pos="60" len="12"/>
          <note vol="197" pan="0" key="0" pos="60" len="12"/>
          <note vol="197" pan="0" key="80" pos="72" len="12"/>
          <note vol="197" pan="0" key="0" pos="72" len="12"/>
          <note vol="197" pan="0" key="64" pos="84" len="12"/>
          <note vol="197" pan="0" key="2" pos="84" len="12"/>
          <note vol="197" pan="0" key="64" pos="96" len="12"/>
          <note vol="197" pan="0" key="0" pos="96" len="12"/>
          <note vol="197" pan="0" key="78" pos="108" len="12"/>
          <note vol="197" pan="0" key="0" pos="108" len="12"/>
          <note vol="197" pan="0" key="64" pos="120" len="12"/>
          <note vol="197" pan="0" key="2" pos="120" len="12"/>
          <note vol="197" pan="0" key="64" pos="132" len="12"/>
          <note vol="197" pan="0" key="0" pos="132" len="12"/>
          <note vol="197" pan="0" key="83" pos="144" len="12"/>
          <note vol="197" pan="0" key="0" pos="144" len="12"/>
          <note vol="197" pan="0" key="64" pos="156" len="12"/>
          <note vol="197" pan="0" key="2" pos="156" len="12"/>
          <note vol="197" pan="0" key="81" pos="168" len="12"/>
          <note vol="197" pan="0" key="0" pos="168" len="12"/>
          <note vol="197" pan="0" key="64" pos="180" len="12"/>
          <note vol="197" pan="0" key="2" pos="180" len="12"/>
        </pattern>
        <pattern type="1" name="" steps="16" muted="0" pos="37248">
          <note vol="100" pan="0" key="85" pos="0" len="12"/>
          <note vol="100" pan="0" key="0" pos="0" len="48"/>
          <note vol="100" pan="0" key="83" pos="12" len="12"/>
          <note vol="100" pan="0" key="80" pos="24" len="12"/>
          <note vol="100" pan="0" key="1" pos="24" len="12"/>
          <note vol="100" pan="0" key="78" pos="36" len="12"/>
          <note vol="100" pan="0" key="76" pos="48" len="12"/>
          <note vol="100" pan="0" key="73" pos="60" len="12"/>
          <note vol="100" pan="0" key="76" pos="72" len="12"/>
          <note vol="100" pan="0" key="80" pos="84" len="12"/>
          <note vol="100" pan="0" key="85" pos="96" len="12"/>
          <note vol="100" pan="0" key="0" pos="96" len="12"/>
          <note vol="100" pan="0" key="83" pos="108" len="12"/>
          <note vol="100" pan="0" key="80" pos="120" len="12"/>
          <note vol="100" pan="0" key="1" pos="120" len="12"/>
          <note vol="100" pan="0" key="78" pos="132" len="12"/>
          <note vol="100" pan="0" key="76" pos="144" len="12"/>
          <note vol="100" pan="0" key="73" pos="156" len="12"/>
          <note vol="100" pan="0" key="76" pos="168" len="12"/>
          <note vol="100" pan="0" key="80" pos="180" len="12"/>
        </pattern>
        <pattern type="1" name="" steps="16" muted="0" pos="37440">
          <note vol="197" pan="0" key="71" pos="0" len="12"/>
          <note vol="100" pan="0" key="0" pos="0" len="12"/>
          <note vol="197" pan="0" key="73" pos="12" len="12"/>
          <note vol="197" pan="0" key="71" pos="24" len="12"/>
          <note vol="197" pan="0" key="68" pos="36" len="12"/>
          <note vol="100" pan="0" key="1" pos="36" len="12"/>
          <note vol="197" pan="0" key="69" pos="48" len="12"/>
          <note vol="197" pan="0" key="64" pos="60" len="12"/>
          <note vol="197" pan="0" key="68" pos="72" len="12"/>
          <note vol="100" pan="0" key="0" pos="72" len="12"/>
          <note vol="197" pan="0" key="69" pos="84" len="12"/>
          <note vol="197" pan="0" key="75" pos="96" len="12"/>
          <note vol="100" pan="0" key="0" pos="96" len="12"/>
          <note vol="197" pan="0" key="76" pos="108" len="12"/>
          <note vol="197" pan="0" key="75" pos="120" len="12"/>
          <note vol="197" pan="0" key="73" pos="132" len="12"/>
          <note vol="100" pan="0" key="1" pos="132" len="12"/>
          <note vol="197" pan="0" key="75" pos="144" len="12"/>
          <note vol="197" pan="0" key="69" pos="156" len="12"/>
          <note vol="197" pan="0" key="71" pos="168" len="12"/>
          <note vol="100" pan="0" key="0" pos="168" len="12"/>
          <note vol="197" pan="0" key="73" pos="180" len="12"/>
        </pattern>
        <pattern type="1" name="" steps="16" muted="0" pos="34752">
          <note vol="95" pan="0" key="80" pos="96" len="12"/>
          <note vol="95" pan="0" key="0" pos="96" len="12"/>
          <note vol="95" pan="0" key="81" pos="108" len="12"/>
          <note vol="95" pan="0" key="80" pos="120" len="12"/>
          <note vol="95" pan="0" key="78" pos="132" len="12"/>
          <note vol="95" pan="0" key="1" pos="132" len="12"/>
          <note vol="95" pan="0" key="80" pos="144" len="12"/>
          <note vol="95" pan="0" key="0" pos="144" len="12"/>
          <note vol="95" pan="0" key="78" pos="156" len="12"/>
          <note vol="95" pan="0" key="1" pos="156" len="12"/>
          <note vol="95" pan="0" key="76" pos="168" len="12"/>
          <note vol="95" pan="0" key="75" pos="180" len="12"/>
        </pattern>
        <pattern type="1" name="" steps="16" muted="0" pos="37632">
          <note vol="197" pan="0" key="68" pos="0" len="12"/>
          <note vol="197" pan="0" key="1" pos="0" len="12"/>
          <note vol="197" pan="0" key="69" pos="12" len="12"/>
          <note vol="197" pan="0" key="68" pos="24" len="12"/>
          <note vol="197" pan="0" key="66" pos="36" len="12"/>
          <note vol="197" pan="0" key="69" pos="48" len="12"/>
          <note vol="197" pan="0" key="71" pos="60" len="12"/>
          <note vol="197" pan="0" key="69" pos="72" len="12"/>
          <note vol="197" pan="0" key="68" pos="84" len="12"/>
          <note vol="197" pan="0" key="71" pos="96" len="12"/>
          <note vol="197" pan="0" key="0" pos="96" len="12"/>
          <note vol="197" pan="0" key="73" pos="108" len="12"/>
          <note vol="197" pan="0" key="71" pos="120" len="12"/>
          <note vol="197" pan="0" key="1" pos="120" len="12"/>
          <note vol="197" pan="0" key="69" pos="132" len="12"/>
          <note vol="197" pan="0" key="73" pos="144" len="12"/>
          <note vol="197" pan="0" key="0" pos="144" len="12"/>
          <note vol="197" pan="0" key="75" pos="156" len="12"/>
          <note vol="197" pan="0" key="73" pos="168" len="12"/>
          <note vol="197" pan="0" key="1" pos="168" len="12"/>
          <note vol="197" pan="0" key="71" pos="180" len="12"/>
          <note vol="197" pan="0" key="76" pos="192" len="12"/>
          <note vol="197" pan="0" key="0" pos="192" len="12"/>
          <note vol="197" pan="0" key="73" pos="204" len="12"/>
          <note vol="197" pan="0" key="75" pos="216" len="12"/>
          <note vol="197" pan="0" key="1" pos="216" len="12"/>
          <note vol="197" pan="0" key="76" pos="228" len="12"/>
          <note vol="197" pan="0" key="78" pos="240" len="12"/>
          <note vol="197" pan="0" key="0" pos="240" len="12"/>
          <note vol="197" pan="0" key="75" pos="252" len="12"/>
          <note vol="197" pan="0" key="76" pos="264" len="12"/>
          <note vol="197" pan="0" key="1" pos="264" len="12"/>
          <note vol="197" pan="0" key="78" pos="276" len="12"/>
          <note vol="197" pan="0" key="81" pos="288" len="12"/>
          <note vol="197" pan="0" key="0" pos="288" len="12"/>
          <note vol="197" pan="0" key="80" pos="300" len="12"/>
          <note vol="197" pan="0" key="81" pos="312" len="12"/>
          <note vol="197" pan="0" key="83" pos="324" len="12"/>
          <note vol="197" pan="0" key="87" pos="336" len="12"/>
          <note vol="197" pan="0" key="0" pos="336" len="12"/>
          <note vol="197" pan="0" key="83" pos="348" len="12"/>
          <note vol="197" pan="0" key="78" pos="360" len="12"/>
          <note vol="197" pan="0" key="1" pos="360" len="12"/>
          <note vol="197" pan="0" key="75" pos="372" len="12"/>
        </pattern>
        <pattern type="1" name="" steps="16" muted="0" pos="38784">
          <note vol="100" pan="0" key="66" pos="0" len="12"/>
          <note vol="100" pan="0" key="1" pos="0" len="12"/>
          <note vol="100" pan="0" key="68" pos="12" len="12"/>
          <note vol="100" pan="0" key="69" pos="24" len="12"/>
          <note vol="100" pan="0" key="71" pos="36" len="12"/>
          <note vol="100" pan="0" key="73" pos="48" len="12"/>
          <note vol="100" pan="0" key="0" pos="48" len="12"/>
          <note vol="100" pan="0" key="71" pos="60" len="12"/>
          <note vol="100" pan="0" key="69" pos="72" len="12"/>
          <note vol="100" pan="0" key="1" pos="72" len="12"/>
          <note vol="100" pan="0" key="68" pos="84" len="12"/>
          <note vol="100" pan="0" key="69" pos="96" len="12"/>
          <note vol="100" pan="0" key="71" pos="108" len="12"/>
          <note vol="100" pan="0" key="73" pos="120" len="12"/>
          <note vol="100" pan="0" key="75" pos="132" len="12"/>
          <note vol="100" pan="0" key="76" pos="144" len="12"/>
          <note vol="100" pan="0" key="0" pos="144" len="12"/>
          <note vol="100" pan="0" key="75" pos="156" len="12"/>
          <note vol="100" pan="0" key="73" pos="168" len="12"/>
          <note vol="100" pan="0" key="1" pos="168" len="12"/>
          <note vol="100" pan="0" key="71" pos="180" len="12"/>
          <note vol="100" pan="0" key="73" pos="192" len="12"/>
          <note vol="100" pan="0" key="75" pos="204" len="12"/>
          <note vol="100" pan="0" key="76" pos="216" len="12"/>
          <note vol="100" pan="0" key="78" pos="228" len="12"/>
          <note vol="100" pan="0" key="80" pos="240" len="12"/>
          <note vol="100" pan="0" key="0" pos="240" len="12"/>
          <note vol="100" pan="0" key="78" pos="252" len="12"/>
          <note vol="100" pan="0" key="76" pos="264" len="12"/>
          <note vol="100" pan="0" key="1" pos="264" len="12"/>
          <note vol="100" pan="0" key="75" pos="276" len="12"/>
          <note vol="100" pan="0" key="81" pos="288" len="12"/>
          <note vol="100" pan="0" key="0" pos="288" len="12"/>
          <note vol="100" pan="0" key="80" pos="300" len="12"/>
          <note vol="100" pan="0" key="78" pos="312" len="12"/>
          <note vol="100" pan="0" key="76" pos="324" len="12"/>
          <note vol="100" pan="0" key="83" pos="336" len="12"/>
          <note vol="100" pan="0" key="81" pos="348" len="12"/>
          <note vol="100" pan="0" key="80" pos="360" len="12"/>
          <note vol="100" pan="0" key="78" pos="372" len="12"/>
        </pattern>
        <pattern type="1" name="" steps="16" muted="0" pos="39168">
          <note vol="78" pan="0" key="82" pos="0" len="24"/>
          <note vol="78" pan="0" key="0" pos="0" len="24"/>
          <note vol="78" pan="0" key="79" pos="24" len="24"/>
          <note vol="78" pan="0" key="75" pos="48" len="24"/>
          <note vol="78" pan="0" key="79" pos="72" len="24"/>
          <note vol="78" pan="0" key="75" pos="96" len="24"/>
          <note vol="78" pan="0" key="70" pos="120" len="24"/>
          <note vol="78" pan="0" key="75" pos="144" len="24"/>
          <note vol="78" pan="0" key="79" pos="168" len="24"/>
          <note vol="78" pan="0" key="80" pos="192" len="48"/>
          <note vol="78" pan="0" key="84" pos="240" len="48"/>
          <note vol="78" pan="0" key="85" pos="288" len="48"/>
          <note vol="78" pan="0" key="87" pos="336" len="48"/>
        </pattern>
        <pattern type="1" name="" steps="16" muted="0" pos="43200">
          <note vol="78" pan="0" key="0" pos="0" len="72"/>
          <note vol="78" pan="0" key="75" pos="960" len="144"/>
          <note vol="78" pan="0" key="78" pos="1104" len="48"/>
          <note vol="78" pan="0" key="77" pos="1152" len="144"/>
          <note vol="78" pan="0" key="82" pos="1296" len="48"/>
          <note vol="78" pan="0" key="82" pos="1344" len="144"/>
          <note vol="78" pan="0" key="80" pos="1488" len="24"/>
          <note vol="78" pan="0" key="78" pos="1512" len="24"/>
          <note vol="78" pan="0" key="77" pos="1536" len="48"/>
          <note vol="78" pan="0" key="78" pos="1584" len="48"/>
          <note vol="78" pan="0" key="73" pos="1632" len="48"/>
          <note vol="78" pan="0" key="70" pos="1680" len="48"/>
          <note vol="78" pan="0" key="71" pos="1728" len="96"/>
          <note vol="78" pan="0" key="75" pos="1824" len="48"/>
          <note vol="78" pan="0" key="78" pos="1872" len="48"/>
          <note vol="78" pan="0" key="78" pos="1920" len="96"/>
          <note vol="78" pan="0" key="77" pos="2016" len="48"/>
          <note vol="78" pan="0" key="78" pos="2064" len="48"/>
          <note vol="78" pan="0" key="85" pos="2112" len="72"/>
          <note vol="78" pan="0" key="83" pos="2184" len="72"/>
          <note vol="78" pan="0" key="82" pos="2256" len="48"/>
          <note vol="78" pan="0" key="80" pos="2304" len="192"/>
          <note vol="78" pan="0" key="78" pos="2496" len="72"/>
          <note vol="78" pan="0" key="77" pos="2568" len="72"/>
          <note vol="78" pan="0" key="78" pos="2640" len="48"/>
          <note vol="78" pan="0" key="82" pos="2688" len="144"/>
          <note vol="78" pan="0" key="77" pos="2832" len="48"/>
          <note vol="78" pan="0" key="75" pos="2880" len="240"/>
          <note vol="78" pan="0" key="78" pos="3120" len="48"/>
          <note vol="78" pan="0" key="80" pos="3168" len="48"/>
          <note vol="78" pan="0" key="82" pos="3216" len="48"/>
          <note vol="78" pan="0" key="83" pos="3264" len="72"/>
          <note vol="78" pan="0" key="82" pos="3336" len="72"/>
          <note vol="78" pan="0" key="80" pos="3408" len="48"/>
          <note vol="78" pan="0" key="78" pos="3456" len="48"/>
          <note vol="78" pan="0" key="75" pos="3504" len="48"/>
          <note vol="78" pan="0" key="78" pos="3552" len="48"/>
          <note vol="78" pan="0" key="82" pos="3600" len="48"/>
          <note vol="78" pan="0" key="80" pos="3648" len="192"/>
          <note vol="106" pan="0" key="73" pos="3840" len="12"/>
          <note vol="106" pan="0" key="71" pos="3852" len="12"/>
          <note vol="106" pan="0" key="70" pos="3864" len="12"/>
          <note vol="106" pan="0" key="68" pos="3876" len="12"/>
          <note vol="106" pan="0" key="71" pos="3888" len="12"/>
          <note vol="106" pan="0" key="70" pos="3900" len="12"/>
          <note vol="106" pan="0" key="68" pos="3912" len="12"/>
          <note vol="106" pan="0" key="66" pos="3924" len="12"/>
          <note vol="106" pan="0" key="70" pos="3936" len="12"/>
          <note vol="106" pan="0" key="68" pos="3948" len="12"/>
          <note vol="106" pan="0" key="66" pos="3960" len="12"/>
          <note vol="106" pan="0" key="65" pos="3972" len="12"/>
          <note vol="106" pan="0" key="68" pos="3984" len="12"/>
          <note vol="106" pan="0" key="66" pos="3996" len="12"/>
          <note vol="106" pan="0" key="65" pos="4008" len="12"/>
          <note vol="106" pan="0" key="66" pos="4020" len="12"/>
        </pattern>
        <pattern type="1" name="" steps="16" muted="0" pos="40320">
          <note vol="78" pan="0" key="69" pos="0" len="12"/>
          <note vol="200" pan="0" key="1" pos="0" len="48"/>
          <note vol="78" pan="0" key="68" pos="12" len="12"/>
          <note vol="78" pan="0" key="66" pos="24" len="12"/>
          <note vol="78" pan="0" key="68" pos="36" len="12"/>
          <note vol="78" pan="0" key="69" pos="48" len="12"/>
          <note vol="78" pan="0" key="68" pos="60" len="12"/>
          <note vol="78" pan="0" key="66" pos="72" len="12"/>
          <note vol="78" pan="0" key="68" pos="84" len="12"/>
          <note vol="78" pan="0" key="73" pos="96" len="12"/>
          <note vol="78" pan="0" key="71" pos="108" len="12"/>
          <note vol="78" pan="0" key="69" pos="120" len="12"/>
          <note vol="78" pan="0" key="71" pos="132" len="12"/>
          <note vol="78" pan="0" key="73" pos="144" len="12"/>
          <note vol="78" pan="0" key="75" pos="156" len="12"/>
          <note vol="78" pan="0" key="76" pos="168" len="12"/>
          <note vol="78" pan="0" key="75" pos="180" len="12"/>
          <note vol="78" pan="0" key="76" pos="192" len="12"/>
          <note vol="78" pan="0" key="75" pos="204" len="12"/>
          <note vol="78" pan="0" key="73" pos="216" len="12"/>
          <note vol="78" pan="0" key="75" pos="228" len="12"/>
          <note vol="78" pan="0" key="76" pos="240" len="12"/>
          <note vol="200" pan="0" key="0" pos="240" len="48"/>
          <note vol="78" pan="0" key="75" pos="252" len="12"/>
          <note vol="78" pan="0" key="73" pos="264" len="12"/>
          <note vol="78" pan="0" key="75" pos="276" len="12"/>
          <note vol="78" pan="0" key="76" pos="288" len="12"/>
          <note vol="78" pan="0" key="78" pos="300" len="12"/>
          <note vol="78" pan="0" key="80" pos="312" len="12"/>
          <note vol="78" pan="0" key="81" pos="324" len="12"/>
          <note vol="78" pan="0" key="83" pos="336" len="12"/>
          <note vol="78" pan="0" key="76" pos="348" len="12"/>
          <note vol="200" pan="0" key="1" pos="348" len="12"/>
          <note vol="78" pan="0" key="75" pos="360" len="12"/>
          <note vol="78" pan="0" key="76" pos="372" len="12"/>
        </pattern>
        <pattern type="1" name="" steps="16" muted="0" pos="40704">
          <note vol="78" pan="0" key="83" pos="0" len="48"/>
          <note vol="100" pan="0" key="0" pos="0" len="48"/>
          <note vol="78" pan="0" key="81" pos="48" len="12"/>
          <note vol="78" pan="0" key="83" pos="60" len="12"/>
          <note vol="78" pan="0" key="81" pos="72" len="48"/>
          <note vol="78" pan="0" key="80" pos="120" len="12"/>
          <note vol="78" pan="0" key="81" pos="132" len="12"/>
          <note vol="78" pan="0" key="80" pos="144" len="12"/>
          <note vol="78" pan="0" key="0" pos="144" len="12"/>
          <note vol="78" pan="0" key="78" pos="156" len="12"/>
          <note vol="78" pan="0" key="1" pos="156" len="12"/>
          <note vol="78" pan="0" key="76" pos="168" len="12"/>
          <note vol="78" pan="0" key="80" pos="180" len="12"/>
          <note vol="78" pan="0" key="78" pos="192" len="48"/>
          <note vol="78" pan="0" key="0" pos="192" len="12"/>
          <note vol="78" pan="0" key="76" pos="240" len="12"/>
          <note vol="78" pan="0" key="1" pos="240" len="12"/>
          <note vol="78" pan="0" key="75" pos="252" len="12"/>
          <note vol="78" pan="0" key="76" pos="264" len="12"/>
          <note vol="78" pan="0" key="78" pos="276" len="12"/>
          <note vol="78" pan="0" key="80" pos="288" len="12"/>
          <note vol="78" pan="0" key="0" pos="288" len="12"/>
          <note vol="78" pan="0" key="81" pos="300" len="12"/>
          <note vol="78" pan="0" key="80" pos="312" len="12"/>
          <note vol="78" pan="0" key="78" pos="324" len="12"/>
          <note vol="78" pan="0" key="80" pos="336" len="12"/>
          <note vol="78" pan="0" key="78" pos="348" len="12"/>
          <note vol="78" pan="0" key="76" pos="360" len="12"/>
          <note vol="78" pan="0" key="1" pos="360" len="12"/>
          <note vol="78" pan="0" key="75" pos="372" len="12"/>
        </pattern>
        <pattern type="1" name="" steps="16" muted="0" pos="41088">
          <note vol="78" pan="0" key="80" pos="0" len="12"/>
          <note vol="78" pan="0" key="0" pos="0" len="12"/>
          <note vol="78" pan="0" key="76" pos="12" len="12"/>
          <note vol="78" pan="0" key="75" pos="24" len="12"/>
          <note vol="78" pan="0" key="1" pos="24" len="12"/>
          <note vol="78" pan="0" key="76" pos="36" len="12"/>
          <note vol="78" pan="0" key="73" pos="48" len="12"/>
          <note vol="78" pan="0" key="76" pos="60" len="12"/>
          <note vol="78" pan="0" key="75" pos="72" len="12"/>
          <note vol="78" pan="0" key="76" pos="84" len="12"/>
          <note vol="78" pan="0" key="80" pos="96" len="12"/>
          <note vol="78" pan="0" key="0" pos="96" len="12"/>
          <note vol="78" pan="0" key="76" pos="108" len="12"/>
          <note vol="78" pan="0" key="75" pos="120" len="12"/>
          <note vol="78" pan="0" key="1" pos="120" len="12"/>
          <note vol="78" pan="0" key="76" pos="132" len="12"/>
          <note vol="78" pan="0" key="73" pos="144" len="12"/>
          <note vol="78" pan="0" key="76" pos="156" len="12"/>
          <note vol="78" pan="0" key="75" pos="168" len="12"/>
          <note vol="78" pan="0" key="76" pos="180" len="12"/>
          <note vol="78" pan="0" key="80" pos="192" len="12"/>
          <note vol="78" pan="0" key="0" pos="192" len="12"/>
          <note vol="78" pan="0" key="75" pos="204" len="12"/>
          <note vol="78" pan="0" key="73" pos="216" len="12"/>
          <note vol="78" pan="0" key="1" pos="216" len="12"/>
          <note vol="78" pan="0" key="75" pos="228" len="12"/>
          <note vol="78" pan="0" key="71" pos="240" len="12"/>
          <note vol="78" pan="0" key="75" pos="252" len="12"/>
          <note vol="78" pan="0" key="73" pos="264" len="12"/>
          <note vol="78" pan="0" key="75" pos="276" len="12"/>
          <note vol="78" pan="0" key="80" pos="288" len="12"/>
          <note vol="78" pan="0" key="0" pos="288" len="12"/>
          <note vol="78" pan="0" key="75" pos="300" len="12"/>
          <note vol="78" pan="0" key="73" pos="312" len="12"/>
          <note vol="78" pan="0" key="1" pos="312" len="12"/>
          <note vol="78" pan="0" key="75" pos="324" len="12"/>
          <note vol="78" pan="0" key="71" pos="336" len="12"/>
          <note vol="78" pan="0" key="75" pos="348" len="12"/>
          <note vol="78" pan="0" key="73" pos="360" len="12"/>
          <note vol="78" pan="0" key="75" pos="372" len="12"/>
        </pattern>
        <pattern type="1" name="" steps="16" muted="0" pos="41472">
          <note vol="78" pan="0" key="82" pos="0" len="12"/>
          <note vol="78" pan="0" key="0" pos="0" len="12"/>
          <note vol="78" pan="0" key="78" pos="12" len="12"/>
          <note vol="78" pan="0" key="73" pos="24" len="12"/>
          <note vol="78" pan="0" key="1" pos="24" len="12"/>
          <note vol="78" pan="0" key="78" pos="36" len="12"/>
          <note vol="78" pan="0" key="70" pos="48" len="12"/>
          <note vol="78" pan="0" key="78" pos="60" len="12"/>
          <note vol="78" pan="0" key="73" pos="72" len="12"/>
          <note vol="78" pan="0" key="78" pos="84" len="12"/>
          <note vol="78" pan="0" key="82" pos="96" len="12"/>
          <note vol="78" pan="0" key="78" pos="108" len="12"/>
          <note vol="78" pan="0" key="73" pos="120" len="12"/>
          <note vol="78" pan="0" key="78" pos="132" len="12"/>
          <note vol="78" pan="0" key="70" pos="144" len="12"/>
          <note vol="78" pan="0" key="78" pos="156" len="12"/>
          <note vol="78" pan="0" key="73" pos="168" len="12"/>
          <note vol="78" pan="0" key="78" pos="180" len="12"/>
        </pattern>
        <pattern type="1" name="" steps="16" muted="0" pos="41664">
          <note vol="78" pan="0" key="82" pos="0" len="12"/>
          <note vol="78" pan="0" key="0" pos="0" len="12"/>
          <note vol="78" pan="0" key="78" pos="12" len="12"/>
          <note vol="78" pan="0" key="73" pos="24" len="12"/>
          <note vol="78" pan="0" key="1" pos="24" len="12"/>
          <note vol="78" pan="0" key="70" pos="36" len="12"/>
          <note vol="78" pan="0" key="73" pos="48" len="12"/>
          <note vol="78" pan="0" key="70" pos="60" len="12"/>
          <note vol="78" pan="0" key="66" pos="72" len="12"/>
          <note vol="78" pan="0" key="70" pos="84" len="12"/>
          <note vol="78" pan="0" key="78" pos="96" len="12"/>
          <note vol="78" pan="0" key="73" pos="108" len="12"/>
          <note vol="78" pan="0" key="70" pos="120" len="12"/>
          <note vol="78" pan="0" key="73" pos="132" len="12"/>
          <note vol="78" pan="0" key="78" pos="144" len="12"/>
          <note vol="78" pan="0" key="82" pos="156" len="12"/>
          <note vol="78" pan="0" key="1" pos="156" len="12"/>
          <note vol="78" pan="0" key="85" pos="168" len="12"/>
          <note vol="78" pan="0" key="82" pos="180" len="12"/>
        </pattern>
        <pattern type="1" name="" steps="16" muted="0" pos="41856">
          <note vol="78" pan="0" key="86" pos="0" len="24"/>
          <note vol="78" pan="0" key="0" pos="0" len="48"/>
          <note vol="78" pan="0" key="81" pos="24" len="24"/>
          <note vol="78" pan="0" key="76" pos="48" len="24"/>
          <note vol="78" pan="0" key="83" pos="72" len="24"/>
          <note vol="78" pan="0" key="85" pos="96" len="24"/>
          <note vol="78" pan="0" key="86" pos="120" len="24"/>
          <note vol="78" pan="0" key="85" pos="144" len="24"/>
          <note vol="78" pan="0" key="83" pos="168" len="24"/>
          <note vol="78" pan="0" key="85" pos="192" len="12"/>
          <note vol="78" pan="0" key="0" pos="192" len="24"/>
          <note vol="78" pan="0" key="83" pos="204" len="12"/>
          <note vol="78" pan="0" key="81" pos="216" len="12"/>
          <note vol="78" pan="0" key="1" pos="216" len="24"/>
          <note vol="78" pan="0" key="80" pos="228" len="12"/>
          <note vol="78" pan="0" key="78" pos="240" len="12"/>
          <note vol="78" pan="0" key="80" pos="252" len="12"/>
          <note vol="78" pan="0" key="81" pos="264" len="12"/>
          <note vol="78" pan="0" key="0" pos="264" len="24"/>
          <note vol="78" pan="0" key="80" pos="276" len="12"/>
          <note vol="78" pan="0" key="78" pos="288" len="12"/>
          <note vol="78" pan="0" key="1" pos="288" len="24"/>
          <note vol="78" pan="0" key="76" pos="300" len="12"/>
          <note vol="78" pan="0" key="78" pos="312" len="12"/>
          <note vol="78" pan="0" key="80" pos="324" len="12"/>
          <note vol="78" pan="0" key="85" pos="336" len="12"/>
          <note vol="78" pan="0" key="0" pos="336" len="24"/>
          <note vol="78" pan="0" key="83" pos="348" len="12"/>
          <note vol="78" pan="0" key="81" pos="360" len="12"/>
          <note vol="78" pan="0" key="1" pos="360" len="24"/>
          <note vol="78" pan="0" key="83" pos="372" len="12"/>
          <note vol="78" pan="0" key="87" pos="384" len="384"/>
          <note vol="78" pan="0" key="0" pos="384" len="24"/>
        </pattern>
        <pattern type="1" name="" steps="16" muted="0" pos="30336">
          <note vol="197" pan="0" key="66" pos="0" len="12"/>
          <note vol="197" pan="0" key="1" pos="0" len="12"/>
          <note vol="197" pan="0" key="66" pos="12" len="12"/>
          <note vol="197" pan="0" key="64" pos="24" len="12"/>
          <note vol="197" pan="0" key="64" pos="36" len="12"/>
          <note vol="197" pan="0" key="62" pos="48" len="12"/>
          <note vol="197" pan="0" key="62" pos="60" len="12"/>
          <note vol="197" pan="0" key="69" pos="72" len="12"/>
          <note vol="197" pan="0" key="69" pos="84" len="12"/>
          <note vol="197" pan="0" key="68" pos="96" len="12"/>
          <note vol="197" pan="0" key="68" pos="108" len="12"/>
          <note vol="197" pan="0" key="66" pos="120" len="12"/>
          <note vol="197" pan="0" key="66" pos="132" len="12"/>
          <note vol="197" pan="0" key="68" pos="144" len="12"/>
          <note vol="197" pan="0" key="68" pos="156" len="12"/>
          <note vol="197" pan="0" key="69" pos="168" len="12"/>
          <note vol="197" pan="0" key="69" pos="180" len="12"/>
          <note vol="197" pan="0" key="71" pos="192" len="48"/>
          <note vol="197" pan="0" key="0" pos="192" len="48"/>
          <note vol="197" pan="0" key="69" pos="240" len="12"/>
          <note vol="197" pan="0" key="2" pos="240" len="12"/>
          <note vol="197" pan="0" key="71" pos="252" len="12"/>
          <note vol="197" pan="0" key="73" pos="264" len="12"/>
          <note vol="197" pan="0" key="0" pos="264" len="12"/>
          <note vol="197" pan="0" key="74" pos="276" len="12"/>
          <note vol="197" pan="0" key="76" pos="288" len="12"/>
          <note vol="197" pan="0" key="0" pos="288" len="12"/>
          <note vol="197" pan="0" key="74" pos="300" len="12"/>
          <note vol="197" pan="0" key="1" pos="300" len="12"/>
          <note vol="197" pan="0" key="73" pos="312" len="12"/>
          <note vol="197" pan="0" key="74" pos="324" len="12"/>
          <note vol="197" pan="0" key="78" pos="336" len="12"/>
          <note vol="197" pan="0" key="0" pos="336" len="12"/>
          <note vol="197" pan="0" key="76" pos="348" len="12"/>
          <note vol="197" pan="0" key="1" pos="348" len="12"/>
          <note vol="197" pan="0" key="74" pos="360" len="12"/>
          <note vol="197" pan="0" key="76" pos="372" len="12"/>
          <note vol="197" pan="0" key="76" pos="384" len="24"/>
          <note vol="197" pan="0" key="0" pos="384" len="24"/>
          <note vol="197" pan="0" key="78" pos="408" len="24"/>
          <note vol="197" pan="0" key="74" pos="456" len="48"/>
          <note vol="197" pan="0" key="1" pos="480" len="24"/>
          <note vol="197" pan="0" key="71" pos="504" len="12"/>
          <note vol="197" pan="0" key="71" pos="516" len="12"/>
          <note vol="197" pan="0" key="74" pos="528" len="12"/>
          <note vol="197" pan="0" key="74" pos="540" len="12"/>
          <note vol="197" pan="0" key="76" pos="552" len="12"/>
          <note vol="197" pan="0" key="76" pos="564" len="12"/>
          <note vol="197" pan="0" key="80" pos="576" len="24"/>
          <note vol="197" pan="0" key="78" pos="600" len="12"/>
          <note vol="197" pan="0" key="80" pos="612" len="12"/>
          <note vol="197" pan="0" key="81" pos="624" len="24"/>
          <note vol="197" pan="0" key="80" pos="648" len="12"/>
          <note vol="197" pan="0" key="81" pos="660" len="12"/>
          <note vol="197" pan="0" key="85" pos="672" len="12"/>
          <note vol="197" pan="0" key="83" pos="684" len="12"/>
          <note vol="197" pan="0" key="81" pos="696" len="12"/>
          <note vol="197" pan="0" key="80" pos="708" len="12"/>
          <note vol="197" pan="0" key="78" pos="720" len="12"/>
          <note vol="197" pan="0" key="76" pos="732" len="12"/>
          <note vol="197" pan="0" key="74" pos="744" len="12"/>
          <note vol="197" pan="0" key="73" pos="756" len="12"/>
        </pattern>
        <pattern type="1" name="" steps="16" muted="0" pos="53376">
          <note vol="197" pan="0" key="75" pos="0" len="192"/>
          <note vol="197" pan="0" key="0" pos="0" len="384"/>
          <note vol="197" pan="0" key="73" pos="192" len="192"/>
          <note vol="197" pan="0" key="70" pos="384" len="288"/>
          <note vol="197" pan="0" key="70" pos="672" len="96"/>
          <note vol="197" pan="0" key="82" pos="768" len="192"/>
          <note vol="197" pan="0" key="80" pos="960" len="192"/>
          <note vol="197" pan="0" key="75" pos="1152" len="384"/>
          <note vol="197" pan="0" key="75" pos="1536" len="192"/>
          <note vol="197" pan="0" key="77" pos="1728" len="192"/>
          <note vol="197" pan="0" key="78" pos="1920" len="192"/>
          <note vol="197" pan="0" key="82" pos="2112" len="96"/>
          <note vol="197" pan="0" key="80" pos="2208" len="96"/>
          <note vol="197" pan="0" key="80" pos="2304" len="192"/>
          <note vol="197" pan="0" key="75" pos="2496" len="144"/>
          <note vol="197" pan="0" key="75" pos="2640" len="24"/>
          <note vol="197" pan="0" key="77" pos="2664" len="24"/>
          <note vol="197" pan="0" key="78" pos="2688" len="192"/>
          <note vol="197" pan="0" key="80" pos="2880" len="96"/>
          <note vol="197" pan="0" key="85" pos="2976" len="96"/>
          <note vol="197" pan="0" key="87" pos="3072" len="384"/>
        </pattern>
        <pattern type="1" name="" steps="16" muted="0" pos="62400">
          <note vol="95" pan="0" key="82" pos="96" len="12"/>
          <note vol="95" pan="0" key="0" pos="96" len="12"/>
          <note vol="95" pan="0" key="83" pos="108" len="12"/>
          <note vol="95" pan="0" key="82" pos="120" len="12"/>
          <note vol="95" pan="0" key="80" pos="132" len="12"/>
          <note vol="95" pan="0" key="1" pos="132" len="12"/>
          <note vol="95" pan="0" key="82" pos="144" len="12"/>
          <note vol="95" pan="0" key="0" pos="144" len="12"/>
          <note vol="95" pan="0" key="80" pos="156" len="12"/>
          <note vol="95" pan="0" key="1" pos="156" len="12"/>
          <note vol="95" pan="0" key="78" pos="168" len="12"/>
          <note vol="95" pan="0" key="77" pos="180" len="12"/>
        </pattern>
        <pattern type="1" name="" steps="16" muted="0" pos="62592">
          <note vol="197" pan="0" key="75" pos="0" len="144"/>
          <note vol="197" pan="0" key="0" pos="0" len="12"/>
          <note vol="197" pan="0" key="78" pos="144" len="48"/>
          <note vol="197" pan="0" key="77" pos="192" len="144"/>
          <note vol="197" pan="0" key="82" pos="336" len="48"/>
          <note vol="197" pan="0" key="82" pos="384" len="144"/>
          <note vol="197" pan="0" key="80" pos="528" len="24"/>
          <note vol="197" pan="0" key="78" pos="552" len="24"/>
          <note vol="197" pan="0" key="77" pos="576" len="48"/>
          <note vol="197" pan="0" key="78" pos="624" len="48"/>
          <note vol="197" pan="0" key="73" pos="672" len="12"/>
          <note vol="197" pan="0" key="1" pos="672" len="12"/>
          <note vol="197" pan="0" key="75" pos="684" len="12"/>
          <note vol="197" pan="0" key="73" pos="696" len="12"/>
          <note vol="197" pan="0" key="70" pos="708" len="12"/>
          <note vol="197" pan="0" key="73" pos="720" len="12"/>
          <note vol="197" pan="0" key="70" pos="732" len="12"/>
          <note vol="197" pan="0" key="68" pos="744" len="12"/>
          <note vol="197" pan="0" key="70" pos="756" len="12"/>
          <note vol="197" pan="0" key="71" pos="768" len="96"/>
          <note vol="197" pan="0" key="0" pos="768" len="12"/>
          <note vol="197" pan="0" key="75" pos="864" len="48"/>
          <note vol="197" pan="0" key="78" pos="912" len="48"/>
          <note vol="197" pan="0" key="78" pos="960" len="96"/>
          <note vol="197" pan="0" key="77" pos="1056" len="48"/>
          <note vol="197" pan="0" key="78" pos="1104" len="48"/>
          <note vol="197" pan="0" key="78" pos="1152" len="12"/>
          <note vol="200" pan="0" key="0" pos="1152" len="12"/>
          <note vol="197" pan="0" key="75" pos="1164" len="12"/>
          <note vol="197" pan="0" key="77" pos="1176" len="12"/>
          <note vol="197" pan="0" key="78" pos="1188" len="12"/>
          <note vol="197" pan="0" key="80" pos="1200" len="12"/>
          <note vol="197" pan="0" key="77" pos="1212" len="12"/>
          <note vol="197" pan="0" key="78" pos="1224" len="12"/>
          <note vol="197" pan="0" key="80" pos="1236" len="12"/>
          <note vol="197" pan="0" key="82" pos="1248" len="12"/>
          <note vol="197" pan="0" key="78" pos="1260" len="12"/>
          <note vol="197" pan="0" key="80" pos="1272" len="12"/>
          <note vol="197" pan="0" key="82" pos="1284" len="12"/>
          <note vol="197" pan="0" key="83" pos="1296" len="12"/>
          <note vol="197" pan="0" key="80" pos="1308" len="12"/>
          <note vol="197" pan="0" key="82" pos="1320" len="12"/>
          <note vol="197" pan="0" key="83" pos="1332" len="12"/>
          <note vol="197" pan="0" key="85" pos="1344" len="12"/>
          <note vol="197" pan="0" key="83" pos="1356" len="12"/>
          <note vol="197" pan="0" key="82" pos="1368" len="12"/>
          <note vol="197" pan="0" key="80" pos="1380" len="12"/>
          <note vol="197" pan="0" key="78" pos="1392" len="12"/>
          <note vol="197" pan="0" key="80" pos="1404" len="12"/>
          <note vol="197" pan="0" key="83" pos="1416" len="12"/>
          <note vol="197" pan="0" key="82" pos="1428" len="12"/>
          <note vol="197" pan="0" key="80" pos="1440" len="12"/>
          <note vol="197" pan="0" key="78" pos="1452" len="12"/>
          <note vol="197" pan="0" key="77" pos="1464" len="12"/>
          <note vol="197" pan="0" key="78" pos="1476" len="12"/>
          <note vol="197" pan="0" key="82" pos="1488" len="12"/>
          <note vol="200" pan="0" key="0" pos="1488" len="12"/>
          <note vol="197" pan="0" key="80" pos="1500" len="12"/>
          <note vol="197" pan="0" key="78" pos="1512" len="12"/>
          <note vol="197" pan="0" key="77" pos="1524" len="12"/>
          <note vol="197" pan="0" key="75" pos="1536" len="12"/>
          <note vol="197" pan="0" key="77" pos="1548" len="12"/>
          <note vol="200" pan="0" key="80" pos="1560" len="12"/>
          <note vol="200" pan="0" key="78" pos="1572" len="12"/>
          <note vol="200" pan="0" key="77" pos="1584" len="12"/>
          <note vol="200" pan="0" key="75" pos="1596" len="12"/>
          <note vol="200" pan="0" key="73" pos="1608" len="12"/>
          <note vol="200" pan="0" key="75" pos="1620" len="12"/>
          <note vol="200" pan="0" key="78" pos="1632" len="12"/>
          <note vol="200" pan="0" key="77" pos="1644" len="12"/>
          <note vol="200" pan="0" key="75" pos="1656" len="12"/>
          <note vol="200" pan="0" key="73" pos="1668" len="12"/>
          <note vol="200" pan="0" key="77" pos="1680" len="12"/>
          <note vol="200" pan="0" key="75" pos="1692" len="12"/>
          <note vol="200" pan="0" key="73" pos="1704" len="12"/>
          <note vol="200" pan="0" key="75" pos="1716" len="12"/>
          <note vol="197" pan="0" key="87" pos="1728" len="192"/>
        </pattern>
      </track>
      <track type="0" name="lgtH2" solo="0" muted="1" mutedBeforeSolo="0">
        <instrumenttrack usemasterpitch="1" pitchrange="1" pitch="0" vol="200" basenote="57" pan="100" fxch="13">
          <instrument name="carlapatchbay">
            <carlapatchbay>
              <CARLA-PROJECT VERSION="2.2">
                <EngineSettings>
                  <ForceStereo>false</ForceStereo>
                  <PreferPluginBridges>false</PreferPluginBridges>
                  <PreferUiBridges>true</PreferUiBridges>
                  <UIsAlwaysOnTop>false</UIsAlwaysOnTop>
                  <MaxParameters>200</MaxParameters>
                  <UIBridgesTimeout>4000</UIBridgesTimeout>
                  <LADSPA_PATH>/home/pass/.ladspa:/usr/lib/ladspa:/usr/local/lib/ladspa</LADSPA_PATH>
                  <DSSI_PATH>/home/pass/.dssi:/usr/lib/dssi:/usr/local/lib/dssi</DSSI_PATH>
                  <LV2_PATH>/home/pass/.lv2:/usr/lib/lv2:/usr/local/lib/lv2</LV2_PATH>
                  <VST2_PATH>/home/pass/.vst:/home/pass/.wine/drive_c/Program Files (x86)/VstPlugins:/home/pass/.wine/drive_c/Program Files/VstPlugins:/usr/lib/lxvst:/usr/lib/vst:/usr/local/lib/lxvst:/usr/local/lib/vst/home/pass/.lxvst:/home/pass/vst</VST2_PATH>
                  <VST3_PATH>/home/pass/.vst3:/home/pass/.wine/drive_c/Program Files (x86)/Common Files/VST3:/home/pass/.wine/drive_c/Program Files/Common Files/VST3:/usr/lib/vst3:/usr/local/lib/vst3</VST3_PATH>
                  <SF2_PATH>/home/pass/.sounds/sf2/home/pass/.sounds/sf3:/usr/share/soundfonts:/usr/share/sounds/sf2:/usr/share/sounds/sf3</SF2_PATH>
                  <SFZ_PATH>/home/pass/.sounds/sfz:/home/pass/samples:/usr/share/sounds/sfz</SFZ_PATH>
                </EngineSettings>
                <!-- sfizz -->
                <Plugin>
                  <Info>
                    <Type>LV2</Type>
                    <Name>sfizz</Name>
                    <URI>http://sfztools.github.io/sfizz</URI>
                  </Info>
                  <Data>
                    <Active>Yes</Active>
                    <ControlChannel>1</ControlChannel>
                    <Options>0x3f0</Options>
                    <Parameter>
                      <Index>0</Index>
                      <Name>Volume</Name>
                      <Symbol>volume</Symbol>
                      <Value>0</Value>
                    </Parameter>
                    <Parameter>
                      <Index>1</Index>
                      <Name>Polyphony</Name>
                      <Symbol>num_voices</Symbol>
                      <Value>64</Value>
                    </Parameter>
                    <Parameter>
                      <Index>2</Index>
                      <Name>Internal oversampling factor</Name>
                      <Symbol>oversampling</Symbol>
                      <Value>1</Value>
                    </Parameter>
                    <Parameter>
                      <Index>3</Index>
                      <Name>Preload size</Name>
                      <Symbol>preload_size</Symbol>
                      <Value>8192</Value>
                    </Parameter>
                    <Parameter>
                      <Index>5</Index>
                      <Name>Scala root key</Name>
                      <Symbol>scala_root_key</Symbol>
                      <Value>60</Value>
                    </Parameter>
                    <Parameter>
                      <Index>6</Index>
                      <Name>Tuning frequency</Name>
                      <Symbol>tuning_frequency</Symbol>
                      <Value>440</Value>
                    </Parameter>
                    <Parameter>
                      <Index>7</Index>
                      <Name>Stretched tuning</Name>
                      <Symbol>stretched_tuning</Symbol>
                      <Value>0</Value>
                    </Parameter>
                    <CustomData>
                      <Type>http://lv2plug.in/ns/ext/atom#Path</Type>
                      <Key>http://sfztools.github.io/sfizz:sfzfile</Key>
                      <Value>_fakeguitar2_integrated.sfz</Value>
                    </CustomData>
                    <CustomData>
                      <Type>http://lv2plug.in/ns/ext/atom#Int</Type>
                      <Key>http://sfztools.github.io/sfizz:numvoices</Key>
                      <Value>QAAAAA==</Value>
                    </CustomData>
                    <CustomData>
                      <Type>http://lv2plug.in/ns/ext/atom#Int</Type>
                      <Key>http://sfztools.github.io/sfizz:preload_size</Key>
                      <Value>ACAAAA==</Value>
                    </CustomData>
                    <CustomData>
                      <Type>http://lv2plug.in/ns/ext/atom#Int</Type>
                      <Key>http://sfztools.github.io/sfizz:oversampling</Key>
                      <Value>AQAAAA==</Value>
                    </CustomData>
                    <CustomData>
                      <Type>http://lv2plug.in/ns/ext/atom#Path</Type>
                      <Key>http://sfztools.github.io/sfizz:tuningfile</Key>
                      <Value>DefaultScale.scl</Value>
                    </CustomData>
                  </Data>
                </Plugin>
                <Patchbay>
                  <Connection>
                    <Source>Midi Input:Capture 1</Source>
                    <Target>sfizz:events-in</Target>
                  </Connection>
                  <Connection>
                    <Source>sfizz:Left Output</Source>
                    <Target>Audio Output:Left</Target>
                  </Connection>
                  <Connection>
                    <Source>sfizz:Right Output</Source>
                    <Target>Audio Output:Right</Target>
                  </Connection>
                  <Positions>
                    <Position y1="1353" x1="1693" pluginId="0">
                      <Name>sfizz</Name>
                    </Position>
                  </Positions>
                </Patchbay>
              </CARLA-PROJECT>
              <key/>
            </carlapatchbay>
          </instrument>
          <eldata fwet="0" fres="0.5" ftype="0" fcut="14000">
            <elvol x100="0" lspd_numerator="4" amt="0" lspd="0.1" lpdel="0" dec="0.5" lspd_syncmode="0" att="0" ctlenvamt="0" pdel="0" latt="0" sustain="0.5" lspd_denominator="4" hold="0.5" lamt="0" userwavefile="" lshp="0" rel="0.1"/>
            <elcut x100="0" lspd_numerator="4" amt="0" lspd="0.1" lpdel="0" dec="0.5" lspd_syncmode="0" att="0" ctlenvamt="0" pdel="0" latt="0" sustain="0.5" lspd_denominator="4" hold="0.5" lamt="0" userwavefile="" lshp="0" rel="0.1"/>
            <elres x100="0" lspd_numerator="4" amt="0" lspd="0.1" lpdel="0" dec="0.5" lspd_syncmode="0" att="0" ctlenvamt="0" pdel="0" latt="0" sustain="0.5" lspd_denominator="4" hold="0.5" lamt="0" userwavefile="" lshp="0" rel="0.1"/>
          </eldata>
          <chordcreator chordrange="1" chord="0" chord-enabled="0"/>
          <arpeggiator arprange="1" arptime_syncmode="0" arpskip="0" arpmiss="0" arptime="200" arpdir="0" arpmode="0" arptime_denominator="4" arp-enabled="0" arp="0" arpgate="100" arpcycle="0" arptime_numerator="4"/>
          <midiport inputcontroller="0" outputcontroller="0" outputprogram="1" basevelocity="63" outputchannel="1" writable="0" inputchannel="0" readable="0" fixedinputvelocity="-1" fixedoutputvelocity="-1" fixedoutputnote="-1"/>
          <fxchain numofeffects="0" enabled="0"/>
        </instrumenttrack>
        <pattern type="1" name="" steps="16" muted="0" pos="5376">
          <note vol="78" pan="0" key="68" pos="0" len="24"/>
          <note vol="78" pan="0" key="0" pos="0" len="24"/>
          <note vol="78" pan="0" key="71" pos="24" len="24"/>
          <note vol="78" pan="0" key="68" pos="48" len="24"/>
          <note vol="78" pan="0" key="75" pos="72" len="48"/>
          <note vol="78" pan="0" key="68" pos="120" len="24"/>
          <note vol="78" pan="0" key="71" pos="144" len="24"/>
          <note vol="78" pan="0" key="75" pos="168" len="24"/>
          <note vol="78" pan="0" key="76" pos="192" len="24"/>
          <note vol="78" pan="0" key="75" pos="216" len="24"/>
          <note vol="78" pan="0" key="73" pos="240" len="24"/>
          <note vol="78" pan="0" key="71" pos="264" len="24"/>
          <note vol="78" pan="0" key="75" pos="288" len="24"/>
          <note vol="78" pan="0" key="73" pos="312" len="24"/>
          <note vol="78" pan="0" key="71" pos="336" len="24"/>
          <note vol="78" pan="0" key="68" pos="360" len="24"/>
        </pattern>
        <pattern type="1" name="" steps="16" muted="0" pos="6144">
          <note vol="78" pan="0" key="75" pos="0" len="24"/>
          <note vol="78" pan="0" key="0" pos="0" len="24"/>
          <note vol="78" pan="0" key="64" pos="24" len="24"/>
          <note vol="78" pan="0" key="68" pos="48" len="24"/>
          <note vol="78" pan="0" key="71" pos="72" len="48"/>
          <note vol="78" pan="0" key="68" pos="120" len="24"/>
          <note vol="78" pan="0" key="71" pos="144" len="24"/>
          <note vol="78" pan="0" key="75" pos="168" len="24"/>
          <note vol="78" pan="0" key="1" pos="180" len="24"/>
          <note vol="78" pan="0" key="73" pos="192" len="12"/>
          <note vol="78" pan="0" key="73" pos="204" len="12"/>
          <note vol="78" pan="0" key="68" pos="216" len="12"/>
          <note vol="78" pan="0" key="68" pos="228" len="12"/>
          <note vol="78" pan="0" key="64" pos="240" len="12"/>
          <note vol="78" pan="0" key="64" pos="252" len="12"/>
          <note vol="78" pan="0" key="61" pos="264" len="12"/>
          <note vol="78" pan="0" key="61" pos="276" len="12"/>
          <note vol="78" pan="0" key="66" pos="288" len="12"/>
          <note vol="78" pan="0" key="66" pos="300" len="12"/>
          <note vol="78" pan="0" key="64" pos="312" len="12"/>
          <note vol="78" pan="0" key="64" pos="324" len="12"/>
          <note vol="78" pan="0" key="68" pos="336" len="12"/>
          <note vol="78" pan="0" key="68" pos="348" len="12"/>
          <note vol="78" pan="0" key="64" pos="360" len="12"/>
          <note vol="78" pan="0" key="64" pos="372" len="12"/>
          <note vol="78" pan="0" key="0" pos="384" len="24"/>
        </pattern>
        <pattern type="1" name="" steps="16" muted="0" pos="7104">
          <note vol="78" pan="0" key="0" pos="0" len="72"/>
          <note vol="78" pan="0" key="64" pos="96" len="48"/>
          <note vol="78" pan="0" key="68" pos="144" len="48"/>
          <note vol="78" pan="0" key="68" pos="192" len="96"/>
          <note vol="78" pan="0" key="68" pos="288" len="24"/>
          <note vol="78" pan="0" key="64" pos="312" len="24"/>
          <note vol="78" pan="0" key="68" pos="336" len="24"/>
          <note vol="78" pan="0" key="76" pos="360" len="168"/>
          <note vol="78" pan="0" key="76" pos="528" len="24"/>
          <note vol="78" pan="0" key="75" pos="552" len="24"/>
          <note vol="78" pan="0" key="73" pos="576" len="48"/>
          <note vol="78" pan="0" key="70" pos="624" len="48"/>
          <note vol="78" pan="0" key="66" pos="672" len="48"/>
          <note vol="78" pan="0" key="63" pos="720" len="48"/>
          <note vol="78" pan="0" key="66" pos="768" len="96"/>
          <note vol="78" pan="0" key="64" pos="864" len="96"/>
          <note vol="78" pan="0" key="68" pos="960" len="144"/>
          <note vol="78" pan="0" key="73" pos="1104" len="48"/>
          <note vol="78" pan="0" key="71" pos="1152" len="144"/>
          <note vol="78" pan="0" key="76" pos="1296" len="48"/>
          <note vol="78" pan="0" key="76" pos="1344" len="144"/>
          <note vol="78" pan="0" key="75" pos="1488" len="24"/>
          <note vol="78" pan="0" key="73" pos="1512" len="24"/>
          <note vol="78" pan="0" key="71" pos="1536" len="48"/>
          <note vol="78" pan="0" key="73" pos="1584" len="48"/>
          <note vol="78" pan="0" key="68" pos="1632" len="48"/>
          <note vol="78" pan="0" key="64" pos="1680" len="48"/>
          <note vol="78" pan="0" key="66" pos="1728" len="96"/>
          <note vol="78" pan="0" key="69" pos="1824" len="48"/>
          <note vol="78" pan="0" key="73" pos="1872" len="48"/>
          <note vol="78" pan="0" key="73" pos="1920" len="96"/>
          <note vol="78" pan="0" key="71" pos="2016" len="48"/>
          <note vol="78" pan="0" key="73" pos="2064" len="48"/>
          <note vol="78" pan="0" key="80" pos="2112" len="72"/>
          <note vol="78" pan="0" key="78" pos="2184" len="72"/>
          <note vol="78" pan="0" key="76" pos="2256" len="48"/>
          <note vol="78" pan="0" key="75" pos="2304" len="192"/>
          <note vol="78" pan="0" key="73" pos="2496" len="72"/>
          <note vol="78" pan="0" key="71" pos="2568" len="72"/>
          <note vol="78" pan="0" key="73" pos="2640" len="48"/>
          <note vol="78" pan="0" key="76" pos="2688" len="144"/>
          <note vol="78" pan="0" key="71" pos="2832" len="48"/>
          <note vol="78" pan="0" key="70" pos="2880" len="240"/>
          <note vol="78" pan="0" key="73" pos="3120" len="48"/>
          <note vol="78" pan="0" key="75" pos="3168" len="48"/>
          <note vol="78" pan="0" key="76" pos="3216" len="48"/>
          <note vol="78" pan="0" key="78" pos="3264" len="72"/>
          <note vol="78" pan="0" key="76" pos="3336" len="72"/>
          <note vol="78" pan="0" key="75" pos="3408" len="48"/>
          <note vol="78" pan="0" key="73" pos="3456" len="48"/>
          <note vol="78" pan="0" key="68" pos="3504" len="48"/>
          <note vol="78" pan="0" key="73" pos="3552" len="48"/>
          <note vol="78" pan="0" key="76" pos="3600" len="48"/>
          <note vol="78" pan="0" key="75" pos="3648" len="192"/>
          <note vol="78" pan="0" key="71" pos="3840" len="96"/>
          <note vol="78" pan="0" key="68" pos="3936" len="96"/>
          <note vol="78" pan="0" key="68" pos="4032" len="384"/>
        </pattern>
        <pattern type="1" name="" steps="16" muted="0" pos="13056">
          <note vol="78" pan="0" key="68" pos="0" len="24"/>
          <note vol="78" pan="0" key="0" pos="0" len="24"/>
          <note vol="78" pan="0" key="71" pos="24" len="24"/>
          <note vol="78" pan="0" key="68" pos="48" len="24"/>
          <note vol="78" pan="0" key="75" pos="72" len="48"/>
          <note vol="78" pan="0" key="68" pos="120" len="24"/>
          <note vol="78" pan="0" key="71" pos="144" len="24"/>
          <note vol="78" pan="0" key="75" pos="168" len="24"/>
          <note vol="78" pan="0" key="76" pos="192" len="24"/>
          <note vol="78" pan="0" key="75" pos="216" len="24"/>
          <note vol="78" pan="0" key="73" pos="240" len="24"/>
          <note vol="78" pan="0" key="71" pos="264" len="24"/>
          <note vol="78" pan="0" key="75" pos="288" len="24"/>
          <note vol="78" pan="0" key="73" pos="312" len="24"/>
          <note vol="78" pan="0" key="71" pos="336" len="24"/>
          <note vol="78" pan="0" key="68" pos="360" len="24"/>
        </pattern>
        <pattern type="1" name="" steps="16" muted="0" pos="13824">
          <note vol="78" pan="0" key="75" pos="0" len="24"/>
          <note vol="78" pan="0" key="0" pos="0" len="12"/>
          <note vol="78" pan="0" key="1" pos="12" len="12"/>
          <note vol="78" pan="0" key="64" pos="24" len="12"/>
          <note vol="78" pan="0" key="64" pos="36" len="12"/>
          <note vol="78" pan="0" key="68" pos="48" len="24"/>
          <note vol="78" pan="0" key="0" pos="48" len="12"/>
          <note vol="78" pan="0" key="71" pos="72" len="48"/>
          <note vol="78" pan="0" key="68" pos="120" len="24"/>
          <note vol="78" pan="0" key="71" pos="144" len="24"/>
          <note vol="78" pan="0" key="75" pos="168" len="24"/>
          <note vol="78" pan="0" key="73" pos="192" len="24"/>
          <note vol="78" pan="0" key="68" pos="216" len="24"/>
          <note vol="78" pan="0" key="64" pos="240" len="24"/>
          <note vol="78" pan="0" key="61" pos="264" len="24"/>
          <note vol="78" pan="0" key="66" pos="288" len="24"/>
          <note vol="78" pan="0" key="64" pos="312" len="24"/>
          <note vol="78" pan="0" key="68" pos="336" len="24"/>
          <note vol="78" pan="0" key="64" pos="360" len="24"/>
        </pattern>
        <pattern type="1" name="" steps="16" muted="0" pos="14784">
          <note vol="78" pan="0" key="0" pos="0" len="72"/>
          <note vol="78" pan="0" key="64" pos="96" len="48"/>
          <note vol="78" pan="0" key="68" pos="144" len="48"/>
          <note vol="78" pan="0" key="68" pos="192" len="96"/>
          <note vol="78" pan="0" key="68" pos="288" len="24"/>
          <note vol="78" pan="0" key="64" pos="312" len="24"/>
          <note vol="78" pan="0" key="68" pos="336" len="24"/>
          <note vol="78" pan="0" key="76" pos="360" len="168"/>
          <note vol="78" pan="0" key="76" pos="528" len="24"/>
          <note vol="78" pan="0" key="75" pos="552" len="24"/>
          <note vol="78" pan="0" key="73" pos="576" len="48"/>
          <note vol="78" pan="0" key="70" pos="624" len="48"/>
          <note vol="78" pan="0" key="66" pos="672" len="48"/>
          <note vol="78" pan="0" key="63" pos="720" len="48"/>
          <note vol="78" pan="0" key="66" pos="768" len="96"/>
          <note vol="78" pan="0" key="64" pos="864" len="96"/>
          <note vol="78" pan="0" key="68" pos="960" len="144"/>
          <note vol="78" pan="0" key="73" pos="1104" len="48"/>
          <note vol="78" pan="0" key="71" pos="1152" len="144"/>
          <note vol="78" pan="0" key="76" pos="1296" len="48"/>
          <note vol="78" pan="0" key="76" pos="1344" len="144"/>
          <note vol="78" pan="0" key="75" pos="1488" len="24"/>
          <note vol="78" pan="0" key="73" pos="1512" len="24"/>
          <note vol="78" pan="0" key="71" pos="1536" len="48"/>
          <note vol="78" pan="0" key="73" pos="1584" len="48"/>
          <note vol="78" pan="0" key="68" pos="1632" len="48"/>
          <note vol="78" pan="0" key="64" pos="1680" len="48"/>
          <note vol="78" pan="0" key="66" pos="1728" len="96"/>
          <note vol="78" pan="0" key="69" pos="1824" len="48"/>
          <note vol="78" pan="0" key="73" pos="1872" len="48"/>
          <note vol="78" pan="0" key="73" pos="1920" len="96"/>
          <note vol="78" pan="0" key="71" pos="2016" len="48"/>
          <note vol="78" pan="0" key="73" pos="2064" len="48"/>
          <note vol="78" pan="0" key="80" pos="2112" len="72"/>
          <note vol="78" pan="0" key="78" pos="2184" len="72"/>
          <note vol="78" pan="0" key="76" pos="2256" len="48"/>
          <note vol="78" pan="0" key="75" pos="2304" len="192"/>
          <note vol="78" pan="0" key="73" pos="2496" len="72"/>
          <note vol="78" pan="0" key="71" pos="2568" len="72"/>
          <note vol="78" pan="0" key="73" pos="2640" len="48"/>
          <note vol="78" pan="0" key="76" pos="2688" len="144"/>
          <note vol="78" pan="0" key="71" pos="2832" len="48"/>
          <note vol="78" pan="0" key="70" pos="2880" len="240"/>
          <note vol="78" pan="0" key="73" pos="3120" len="48"/>
          <note vol="78" pan="0" key="75" pos="3168" len="48"/>
          <note vol="78" pan="0" key="76" pos="3216" len="48"/>
          <note vol="78" pan="0" key="78" pos="3264" len="72"/>
          <note vol="78" pan="0" key="76" pos="3336" len="72"/>
          <note vol="78" pan="0" key="75" pos="3408" len="48"/>
          <note vol="78" pan="0" key="73" pos="3456" len="48"/>
          <note vol="78" pan="0" key="68" pos="3504" len="48"/>
          <note vol="78" pan="0" key="73" pos="3552" len="48"/>
          <note vol="78" pan="0" key="76" pos="3600" len="48"/>
          <note vol="78" pan="0" key="75" pos="3648" len="192"/>
          <note vol="78" pan="0" key="71" pos="3840" len="96"/>
          <note vol="78" pan="0" key="68" pos="3936" len="96"/>
        </pattern>
        <pattern type="1" name="" steps="16" muted="0" pos="18816">
          <note vol="78" pan="0" key="68" pos="0" len="336"/>
          <note vol="78" pan="0" key="61" pos="336" len="48"/>
          <note vol="78" pan="0" key="59" pos="384" len="288"/>
          <note vol="78" pan="0" key="52" pos="672" len="48"/>
          <note vol="78" pan="0" key="56" pos="720" len="48"/>
          <note vol="78" pan="0" key="58" pos="768" len="240"/>
          <note vol="78" pan="0" key="56" pos="1008" len="48"/>
          <note vol="78" pan="0" key="58" pos="1056" len="48"/>
          <note vol="78" pan="0" key="64" pos="1104" len="48"/>
          <note vol="78" pan="0" key="62" pos="1152" len="192"/>
          <note vol="78" pan="0" key="66" pos="1344" len="48"/>
          <note vol="78" pan="0" key="64" pos="1392" len="24"/>
          <note vol="78" pan="0" key="64" pos="1416" len="12"/>
          <note vol="78" pan="0" key="66" pos="1424" len="12"/>
          <note vol="78" pan="0" key="64" pos="1432" len="12"/>
          <note vol="78" pan="0" key="63" pos="1440" len="48"/>
          <note vol="78" pan="0" key="64" pos="1488" len="48"/>
          <note vol="78" pan="0" key="61" pos="1536" len="240"/>
          <note vol="78" pan="0" key="56" pos="1776" len="48"/>
          <note vol="78" pan="0" key="61" pos="1824" len="48"/>
          <note vol="78" pan="0" key="64" pos="1872" len="48"/>
          <note vol="78" pan="0" key="64" pos="1920" len="192"/>
          <note vol="78" pan="0" key="63" pos="2112" len="144"/>
          <note vol="78" pan="0" key="64" pos="2256" len="48"/>
          <note vol="78" pan="0" key="56" pos="2304" len="240"/>
          <note vol="78" pan="0" key="52" pos="2544" len="48"/>
          <note vol="78" pan="0" key="56" pos="2592" len="48"/>
          <note vol="78" pan="0" key="64" pos="2640" len="48"/>
          <note vol="78" pan="0" key="68" pos="2688" len="192"/>
          <note vol="78" pan="0" key="68" pos="2880" len="192"/>
        </pattern>
        <pattern type="1" name="" steps="16" muted="0" pos="30336">
          <note vol="197" pan="0" key="69" pos="0" len="12"/>
          <note vol="197" pan="0" key="1" pos="0" len="12"/>
          <note vol="197" pan="0" key="69" pos="12" len="12"/>
          <note vol="197" pan="0" key="68" pos="24" len="12"/>
          <note vol="197" pan="0" key="68" pos="36" len="12"/>
          <note vol="197" pan="0" key="66" pos="48" len="12"/>
          <note vol="197" pan="0" key="66" pos="60" len="12"/>
          <note vol="197" pan="0" key="73" pos="72" len="12"/>
          <note vol="197" pan="0" key="73" pos="84" len="12"/>
          <note vol="197" pan="0" key="71" pos="96" len="12"/>
          <note vol="197" pan="0" key="71" pos="108" len="12"/>
          <note vol="197" pan="0" key="69" pos="120" len="12"/>
          <note vol="197" pan="0" key="69" pos="132" len="12"/>
          <note vol="197" pan="0" key="71" pos="144" len="12"/>
          <note vol="197" pan="0" key="71" pos="156" len="12"/>
          <note vol="197" pan="0" key="73" pos="168" len="12"/>
          <note vol="197" pan="0" key="73" pos="180" len="12"/>
          <note vol="197" pan="0" key="74" pos="192" len="48"/>
          <note vol="197" pan="0" key="0" pos="192" len="48"/>
          <note vol="197" pan="0" key="73" pos="240" len="12"/>
          <note vol="197" pan="0" key="2" pos="240" len="12"/>
          <note vol="197" pan="0" key="74" pos="252" len="12"/>
          <note vol="197" pan="0" key="76" pos="264" len="12"/>
          <note vol="197" pan="0" key="0" pos="264" len="12"/>
          <note vol="197" pan="0" key="78" pos="276" len="12"/>
          <note vol="197" pan="0" key="80" pos="288" len="12"/>
          <note vol="197" pan="0" key="0" pos="288" len="12"/>
          <note vol="197" pan="0" key="78" pos="300" len="12"/>
          <note vol="197" pan="0" key="1" pos="300" len="12"/>
          <note vol="197" pan="0" key="76" pos="312" len="12"/>
          <note vol="197" pan="0" key="78" pos="324" len="12"/>
          <note vol="197" pan="0" key="81" pos="336" len="12"/>
          <note vol="197" pan="0" key="0" pos="336" len="12"/>
          <note vol="197" pan="0" key="80" pos="348" len="12"/>
          <note vol="197" pan="0" key="1" pos="348" len="12"/>
          <note vol="197" pan="0" key="78" pos="360" len="12"/>
          <note vol="197" pan="0" key="80" pos="372" len="12"/>
          <note vol="197" pan="0" key="80" pos="384" len="24"/>
          <note vol="197" pan="0" key="0" pos="384" len="48"/>
          <note vol="197" pan="0" key="81" pos="408" len="24"/>
          <note vol="197" pan="0" key="78" pos="456" len="48"/>
          <note vol="197" pan="0" key="1" pos="492" len="12"/>
          <note vol="197" pan="0" key="74" pos="504" len="12"/>
          <note vol="197" pan="0" key="74" pos="516" len="12"/>
          <note vol="197" pan="0" key="78" pos="528" len="12"/>
          <note vol="197" pan="0" key="78" pos="540" len="12"/>
          <note vol="197" pan="0" key="80" pos="552" len="12"/>
          <note vol="197" pan="0" key="80" pos="564" len="12"/>
          <note vol="197" pan="0" key="83" pos="576" len="24"/>
          <note vol="197" pan="0" key="0" pos="576" len="24"/>
          <note vol="197" pan="0" key="81" pos="600" len="12"/>
          <note vol="197" pan="0" key="83" pos="612" len="12"/>
          <note vol="197" pan="0" key="85" pos="624" len="24"/>
          <note vol="197" pan="0" key="83" pos="648" len="12"/>
          <note vol="197" pan="0" key="85" pos="660" len="12"/>
          <note vol="197" pan="0" key="88" pos="672" len="12"/>
          <note vol="197" pan="0" key="86" pos="684" len="12"/>
          <note vol="197" pan="0" key="85" pos="696" len="12"/>
          <note vol="197" pan="0" key="83" pos="708" len="12"/>
          <note vol="197" pan="0" key="81" pos="720" len="12"/>
          <note vol="197" pan="0" key="80" pos="732" len="12"/>
          <note vol="197" pan="0" key="78" pos="744" len="12"/>
          <note vol="197" pan="0" key="76" pos="756" len="12"/>
        </pattern>
        <pattern type="1" name="" steps="16" muted="0" pos="34944">
          <note vol="78" pan="0" key="68" pos="0" len="144"/>
          <note vol="140" pan="0" key="0" pos="0" len="12"/>
          <note vol="78" pan="0" key="73" pos="144" len="48"/>
          <note vol="78" pan="0" key="71" pos="192" len="144"/>
          <note vol="78" pan="0" key="76" pos="336" len="48"/>
          <note vol="78" pan="0" key="76" pos="384" len="144"/>
          <note vol="78" pan="0" key="75" pos="528" len="24"/>
          <note vol="78" pan="0" key="73" pos="552" len="24"/>
          <note vol="78" pan="0" key="71" pos="576" len="48"/>
          <note vol="78" pan="0" key="73" pos="624" len="48"/>
          <note vol="197" pan="0" key="66" pos="672" len="12"/>
          <note vol="197" pan="0" key="1" pos="672" len="12"/>
          <note vol="197" pan="0" key="68" pos="684" len="12"/>
          <note vol="197" pan="0" key="66" pos="696" len="12"/>
          <note vol="197" pan="0" key="64" pos="708" len="12"/>
          <note vol="197" pan="0" key="66" pos="720" len="12"/>
          <note vol="197" pan="0" key="64" pos="732" len="12"/>
          <note vol="197" pan="0" key="61" pos="744" len="12"/>
          <note vol="197" pan="0" key="64" pos="756" len="12"/>
          <note vol="78" pan="0" key="66" pos="768" len="96"/>
          <note vol="197" pan="0" key="0" pos="768" len="12"/>
          <note vol="78" pan="0" key="69" pos="864" len="48"/>
          <note vol="78" pan="0" key="73" pos="912" len="48"/>
          <note vol="78" pan="0" key="73" pos="960" len="96"/>
          <note vol="78" pan="0" key="71" pos="1056" len="48"/>
          <note vol="78" pan="0" key="73" pos="1104" len="48"/>
          <note vol="197" pan="0" key="73" pos="1152" len="12"/>
          <note vol="200" pan="0" key="0" pos="1152" len="12"/>
          <note vol="197" pan="0" key="69" pos="1164" len="12"/>
          <note vol="197" pan="0" key="71" pos="1176" len="12"/>
          <note vol="197" pan="0" key="73" pos="1188" len="12"/>
          <note vol="197" pan="0" key="75" pos="1200" len="12"/>
          <note vol="197" pan="0" key="71" pos="1212" len="12"/>
          <note vol="197" pan="0" key="73" pos="1224" len="12"/>
          <note vol="197" pan="0" key="75" pos="1236" len="12"/>
          <note vol="197" pan="0" key="76" pos="1248" len="12"/>
          <note vol="197" pan="0" key="73" pos="1260" len="12"/>
          <note vol="197" pan="0" key="75" pos="1272" len="12"/>
          <note vol="197" pan="0" key="76" pos="1284" len="12"/>
          <note vol="197" pan="0" key="78" pos="1296" len="12"/>
          <note vol="197" pan="0" key="75" pos="1308" len="12"/>
          <note vol="197" pan="0" key="76" pos="1320" len="12"/>
          <note vol="197" pan="0" key="78" pos="1332" len="12"/>
          <note vol="200" pan="0" key="80" pos="1344" len="12"/>
          <note vol="200" pan="0" key="78" pos="1356" len="12"/>
          <note vol="200" pan="0" key="76" pos="1368" len="12"/>
          <note vol="200" pan="0" key="75" pos="1380" len="12"/>
          <note vol="200" pan="0" key="78" pos="1392" len="12"/>
          <note vol="200" pan="0" key="76" pos="1404" len="12"/>
          <note vol="200" pan="0" key="75" pos="1416" len="12"/>
          <note vol="200" pan="0" key="73" pos="1428" len="12"/>
          <note vol="200" pan="0" key="76" pos="1440" len="12"/>
          <note vol="200" pan="0" key="0" pos="1440" len="12"/>
          <note vol="200" pan="0" key="75" pos="1452" len="12"/>
          <note vol="200" pan="0" key="76" pos="1464" len="12"/>
          <note vol="200" pan="0" key="78" pos="1476" len="12"/>
          <note vol="200" pan="0" key="83" pos="1488" len="12"/>
          <note vol="200" pan="0" key="2" pos="1488" len="12"/>
          <note vol="200" pan="0" key="78" pos="1500" len="12"/>
          <note vol="200" pan="0" key="83" pos="1512" len="12"/>
          <note vol="200" pan="0" key="78" pos="1524" len="12"/>
        </pattern>
        <pattern type="1" name="" steps="16" muted="0" pos="31104">
          <note vol="197" pan="0" key="80" pos="0" len="24"/>
          <note vol="197" pan="0" key="1" pos="0" len="24"/>
          <note vol="197" pan="0" key="76" pos="24" len="24"/>
          <note vol="197" pan="0" key="78" pos="48" len="24"/>
          <note vol="197" pan="0" key="73" pos="72" len="24"/>
          <note vol="197" pan="0" key="76" pos="96" len="24"/>
          <note vol="197" pan="0" key="73" pos="120" len="24"/>
          <note vol="197" pan="0" key="71" pos="144" len="24"/>
          <note vol="197" pan="0" key="73" pos="168" len="24"/>
          <note vol="197" pan="0" key="76" pos="192" len="24"/>
          <note vol="197" pan="0" key="73" pos="216" len="24"/>
          <note vol="197" pan="0" key="76" pos="240" len="24"/>
          <note vol="197" pan="0" key="78" pos="264" len="24"/>
          <note vol="197" pan="0" key="80" pos="288" len="24"/>
          <note vol="197" pan="0" key="78" pos="312" len="24"/>
          <note vol="197" pan="0" key="76" pos="336" len="24"/>
          <note vol="197" pan="0" key="78" pos="360" len="24"/>
        </pattern>
        <pattern type="1" name="" steps="16" muted="0" pos="31488">
          <note vol="197" pan="0" key="68" pos="0" len="12"/>
          <note vol="197" pan="0" key="0" pos="0" len="24"/>
          <note vol="197" pan="0" key="66" pos="12" len="12"/>
          <note vol="197" pan="0" key="1" pos="12" len="24"/>
          <note vol="197" pan="0" key="68" pos="24" len="12"/>
          <note vol="197" pan="0" key="69" pos="36" len="12"/>
          <note vol="197" pan="0" key="71" pos="48" len="12"/>
          <note vol="197" pan="0" key="0" pos="48" len="12"/>
          <note vol="197" pan="0" key="68" pos="60" len="12"/>
          <note vol="197" pan="0" key="1" pos="60" len="12"/>
          <note vol="197" pan="0" key="69" pos="72" len="12"/>
          <note vol="197" pan="0" key="71" pos="84" len="12"/>
          <note vol="197" pan="0" key="73" pos="96" len="12"/>
          <note vol="197" pan="0" key="0" pos="96" len="12"/>
          <note vol="197" pan="0" key="71" pos="108" len="12"/>
          <note vol="197" pan="0" key="1" pos="108" len="12"/>
          <note vol="197" pan="0" key="69" pos="120" len="12"/>
          <note vol="197" pan="0" key="71" pos="132" len="12"/>
          <note vol="197" pan="0" key="73" pos="144" len="12"/>
          <note vol="197" pan="0" key="75" pos="156" len="12"/>
          <note vol="197" pan="0" key="76" pos="168" len="12"/>
          <note vol="197" pan="0" key="78" pos="180" len="12"/>
          <note vol="197" pan="0" key="78" pos="192" len="12"/>
          <note vol="197" pan="0" key="75" pos="204" len="12"/>
          <note vol="197" pan="0" key="71" pos="216" len="12"/>
          <note vol="197" pan="0" key="66" pos="228" len="12"/>
          <note vol="197" pan="0" key="63" pos="240" len="12"/>
          <note vol="197" pan="0" key="66" pos="252" len="12"/>
          <note vol="197" pan="0" key="83" pos="264" len="12"/>
          <note vol="197" pan="0" key="75" pos="276" len="12"/>
          <note vol="197" pan="0" key="71" pos="288" len="12"/>
          <note vol="197" pan="0" key="66" pos="300" len="12"/>
          <note vol="197" pan="0" key="71" pos="312" len="12"/>
          <note vol="197" pan="0" key="75" pos="324" len="12"/>
          <note vol="197" pan="0" key="78" pos="336" len="12"/>
          <note vol="197" pan="0" key="75" pos="348" len="12"/>
          <note vol="197" pan="0" key="71" pos="360" len="12"/>
          <note vol="197" pan="0" key="75" pos="372" len="12"/>
        </pattern>
        <pattern type="1" name="" steps="16" muted="0" pos="31872">
          <note vol="100" pan="0" key="80" pos="0" len="240"/>
          <note vol="100" pan="0" key="0" pos="0" len="108"/>
        </pattern>
        <pattern type="1" name="" steps="16" muted="0" pos="37056">
          <note vol="197" pan="0" key="76" pos="0" len="12"/>
          <note vol="197" pan="0" key="0" pos="0" len="12"/>
          <note vol="197" pan="0" key="59" pos="12" len="12"/>
          <note vol="197" pan="0" key="2" pos="12" len="12"/>
          <note vol="197" pan="0" key="59" pos="24" len="12"/>
          <note vol="197" pan="0" key="0" pos="24" len="12"/>
          <note vol="197" pan="0" key="75" pos="36" len="12"/>
          <note vol="197" pan="0" key="0" pos="36" len="12"/>
          <note vol="197" pan="0" key="59" pos="48" len="12"/>
          <note vol="197" pan="0" key="2" pos="48" len="12"/>
          <note vol="197" pan="0" key="59" pos="60" len="12"/>
          <note vol="197" pan="0" key="0" pos="60" len="12"/>
          <note vol="197" pan="0" key="76" pos="72" len="12"/>
          <note vol="197" pan="0" key="0" pos="72" len="12"/>
          <note vol="197" pan="0" key="59" pos="84" len="12"/>
          <note vol="197" pan="0" key="2" pos="84" len="12"/>
          <note vol="197" pan="0" key="59" pos="96" len="12"/>
          <note vol="197" pan="0" key="0" pos="96" len="12"/>
          <note vol="197" pan="0" key="75" pos="108" len="12"/>
          <note vol="197" pan="0" key="0" pos="108" len="12"/>
          <note vol="197" pan="0" key="59" pos="120" len="12"/>
          <note vol="197" pan="0" key="2" pos="120" len="12"/>
          <note vol="197" pan="0" key="59" pos="132" len="12"/>
          <note vol="197" pan="0" key="0" pos="132" len="12"/>
          <note vol="197" pan="0" key="80" pos="144" len="12"/>
          <note vol="197" pan="0" key="0" pos="144" len="12"/>
          <note vol="197" pan="0" key="59" pos="156" len="12"/>
          <note vol="197" pan="0" key="2" pos="156" len="12"/>
          <note vol="197" pan="0" key="78" pos="168" len="12"/>
          <note vol="197" pan="0" key="0" pos="168" len="12"/>
          <note vol="197" pan="0" key="59" pos="180" len="12"/>
          <note vol="197" pan="0" key="2" pos="180" len="12"/>
        </pattern>
        <pattern type="1" name="" steps="16" muted="0" pos="37248">
          <note vol="100" pan="0" key="73" pos="0" len="12"/>
          <note vol="100" pan="0" key="0" pos="0" len="48"/>
          <note vol="100" pan="0" key="71" pos="12" len="12"/>
          <note vol="100" pan="0" key="68" pos="24" len="12"/>
          <note vol="100" pan="0" key="1" pos="24" len="12"/>
          <note vol="100" pan="0" key="66" pos="36" len="12"/>
          <note vol="100" pan="0" key="64" pos="48" len="12"/>
          <note vol="100" pan="0" key="61" pos="60" len="12"/>
          <note vol="100" pan="0" key="64" pos="72" len="12"/>
          <note vol="100" pan="0" key="68" pos="84" len="12"/>
          <note vol="100" pan="0" key="73" pos="96" len="12"/>
          <note vol="100" pan="0" key="0" pos="96" len="12"/>
          <note vol="100" pan="0" key="71" pos="108" len="12"/>
          <note vol="100" pan="0" key="68" pos="120" len="12"/>
          <note vol="100" pan="0" key="1" pos="120" len="12"/>
          <note vol="100" pan="0" key="66" pos="132" len="12"/>
          <note vol="100" pan="0" key="64" pos="144" len="12"/>
          <note vol="100" pan="0" key="61" pos="156" len="12"/>
          <note vol="100" pan="0" key="64" pos="168" len="12"/>
          <note vol="100" pan="0" key="68" pos="180" len="12"/>
        </pattern>
        <pattern type="1" name="" steps="16" muted="0" pos="37440">
          <note vol="197" pan="0" key="75" pos="0" len="12"/>
          <note vol="100" pan="0" key="0" pos="0" len="12"/>
          <note vol="197" pan="0" key="76" pos="12" len="12"/>
          <note vol="197" pan="0" key="75" pos="24" len="12"/>
          <note vol="197" pan="0" key="71" pos="36" len="12"/>
          <note vol="100" pan="0" key="1" pos="36" len="12"/>
          <note vol="197" pan="0" key="73" pos="48" len="12"/>
          <note vol="197" pan="0" key="68" pos="60" len="12"/>
          <note vol="197" pan="0" key="71" pos="72" len="12"/>
          <note vol="100" pan="0" key="0" pos="72" len="12"/>
          <note vol="197" pan="0" key="73" pos="84" len="12"/>
          <note vol="197" pan="0" key="78" pos="96" len="12"/>
          <note vol="100" pan="0" key="0" pos="96" len="12"/>
          <note vol="197" pan="0" key="80" pos="108" len="12"/>
          <note vol="197" pan="0" key="78" pos="120" len="12"/>
          <note vol="197" pan="0" key="76" pos="132" len="12"/>
          <note vol="100" pan="0" key="1" pos="132" len="12"/>
          <note vol="197" pan="0" key="78" pos="144" len="12"/>
          <note vol="197" pan="0" key="73" pos="156" len="12"/>
          <note vol="197" pan="0" key="75" pos="168" len="12"/>
          <note vol="100" pan="0" key="0" pos="168" len="12"/>
          <note vol="197" pan="0" key="76" pos="180" len="12"/>
        </pattern>
        <pattern type="1" name="" steps="16" muted="0" pos="34752">
          <note vol="95" pan="0" key="76" pos="96" len="12"/>
          <note vol="95" pan="0" key="0" pos="96" len="12"/>
          <note vol="95" pan="0" key="78" pos="108" len="12"/>
          <note vol="95" pan="0" key="76" pos="120" len="12"/>
          <note vol="95" pan="0" key="75" pos="132" len="12"/>
          <note vol="95" pan="0" key="1" pos="132" len="12"/>
          <note vol="95" pan="0" key="76" pos="144" len="12"/>
          <note vol="95" pan="0" key="0" pos="144" len="12"/>
          <note vol="95" pan="0" key="75" pos="156" len="12"/>
          <note vol="95" pan="0" key="1" pos="156" len="12"/>
          <note vol="95" pan="0" key="73" pos="168" len="12"/>
          <note vol="95" pan="0" key="72" pos="180" len="12"/>
        </pattern>
        <pattern type="1" name="" steps="16" muted="0" pos="37632">
          <note vol="197" pan="0" key="64" pos="0" len="12"/>
          <note vol="197" pan="0" key="1" pos="0" len="12"/>
          <note vol="197" pan="0" key="66" pos="12" len="12"/>
          <note vol="197" pan="0" key="64" pos="24" len="12"/>
          <note vol="197" pan="0" key="63" pos="36" len="12"/>
          <note vol="197" pan="0" key="66" pos="48" len="12"/>
          <note vol="197" pan="0" key="68" pos="60" len="12"/>
          <note vol="197" pan="0" key="66" pos="72" len="12"/>
          <note vol="197" pan="0" key="64" pos="84" len="12"/>
          <note vol="197" pan="0" key="68" pos="96" len="12"/>
          <note vol="197" pan="0" key="0" pos="96" len="12"/>
          <note vol="197" pan="0" key="69" pos="108" len="12"/>
          <note vol="197" pan="0" key="68" pos="120" len="12"/>
          <note vol="197" pan="0" key="1" pos="120" len="12"/>
          <note vol="197" pan="0" key="66" pos="132" len="12"/>
          <note vol="197" pan="0" key="69" pos="144" len="12"/>
          <note vol="197" pan="0" key="0" pos="144" len="12"/>
          <note vol="197" pan="0" key="71" pos="156" len="12"/>
          <note vol="197" pan="0" key="69" pos="168" len="12"/>
          <note vol="197" pan="0" key="1" pos="168" len="12"/>
          <note vol="197" pan="0" key="68" pos="180" len="12"/>
          <note vol="197" pan="0" key="73" pos="192" len="12"/>
          <note vol="197" pan="0" key="0" pos="192" len="12"/>
          <note vol="197" pan="0" key="69" pos="204" len="12"/>
          <note vol="197" pan="0" key="71" pos="216" len="12"/>
          <note vol="197" pan="0" key="1" pos="216" len="12"/>
          <note vol="197" pan="0" key="73" pos="228" len="12"/>
          <note vol="197" pan="0" key="75" pos="240" len="12"/>
          <note vol="197" pan="0" key="0" pos="240" len="12"/>
          <note vol="197" pan="0" key="71" pos="252" len="12"/>
          <note vol="197" pan="0" key="73" pos="264" len="12"/>
          <note vol="197" pan="0" key="1" pos="264" len="12"/>
          <note vol="197" pan="0" key="75" pos="276" len="12"/>
          <note vol="197" pan="0" key="78" pos="288" len="12"/>
          <note vol="197" pan="0" key="0" pos="288" len="12"/>
          <note vol="197" pan="0" key="76" pos="300" len="12"/>
          <note vol="197" pan="0" key="78" pos="312" len="12"/>
          <note vol="197" pan="0" key="80" pos="324" len="12"/>
          <note vol="197" pan="0" key="83" pos="336" len="12"/>
          <note vol="197" pan="0" key="0" pos="336" len="12"/>
          <note vol="197" pan="0" key="78" pos="348" len="12"/>
          <note vol="197" pan="0" key="75" pos="360" len="12"/>
          <note vol="197" pan="0" key="1" pos="360" len="12"/>
          <note vol="197" pan="0" key="71" pos="372" len="12"/>
        </pattern>
        <pattern type="1" name="" steps="16" muted="0" pos="38784">
          <note vol="100" pan="0" key="63" pos="0" len="12"/>
          <note vol="100" pan="0" key="1" pos="0" len="12"/>
          <note vol="100" pan="0" key="64" pos="12" len="12"/>
          <note vol="100" pan="0" key="66" pos="24" len="12"/>
          <note vol="100" pan="0" key="68" pos="36" len="12"/>
          <note vol="100" pan="0" key="69" pos="48" len="12"/>
          <note vol="100" pan="0" key="0" pos="48" len="12"/>
          <note vol="100" pan="0" key="68" pos="60" len="12"/>
          <note vol="100" pan="0" key="66" pos="72" len="12"/>
          <note vol="100" pan="0" key="1" pos="72" len="12"/>
          <note vol="100" pan="0" key="64" pos="84" len="12"/>
          <note vol="100" pan="0" key="66" pos="96" len="12"/>
          <note vol="100" pan="0" key="68" pos="108" len="12"/>
          <note vol="100" pan="0" key="69" pos="120" len="12"/>
          <note vol="100" pan="0" key="71" pos="132" len="12"/>
          <note vol="100" pan="0" key="73" pos="144" len="12"/>
          <note vol="100" pan="0" key="0" pos="144" len="12"/>
          <note vol="100" pan="0" key="71" pos="156" len="12"/>
          <note vol="100" pan="0" key="69" pos="168" len="12"/>
          <note vol="100" pan="0" key="1" pos="168" len="12"/>
          <note vol="100" pan="0" key="68" pos="180" len="12"/>
          <note vol="100" pan="0" key="69" pos="192" len="12"/>
          <note vol="100" pan="0" key="71" pos="204" len="12"/>
          <note vol="100" pan="0" key="73" pos="216" len="12"/>
          <note vol="100" pan="0" key="75" pos="228" len="12"/>
          <note vol="100" pan="0" key="76" pos="240" len="12"/>
          <note vol="100" pan="0" key="0" pos="240" len="12"/>
          <note vol="100" pan="0" key="75" pos="252" len="12"/>
          <note vol="100" pan="0" key="73" pos="264" len="12"/>
          <note vol="100" pan="0" key="1" pos="264" len="12"/>
          <note vol="100" pan="0" key="71" pos="276" len="12"/>
          <note vol="100" pan="0" key="78" pos="288" len="12"/>
          <note vol="100" pan="0" key="0" pos="288" len="12"/>
          <note vol="100" pan="0" key="76" pos="300" len="12"/>
          <note vol="100" pan="0" key="75" pos="312" len="12"/>
          <note vol="100" pan="0" key="73" pos="324" len="12"/>
          <note vol="100" pan="0" key="80" pos="336" len="12"/>
          <note vol="100" pan="0" key="78" pos="348" len="12"/>
          <note vol="100" pan="0" key="76" pos="360" len="12"/>
          <note vol="100" pan="0" key="75" pos="372" len="12"/>
        </pattern>
        <pattern type="1" name="" steps="16" muted="0" pos="39168">
          <note vol="78" pan="0" key="79" pos="0" len="24"/>
          <note vol="78" pan="0" key="0" pos="0" len="24"/>
          <note vol="78" pan="0" key="75" pos="24" len="24"/>
          <note vol="78" pan="0" key="70" pos="48" len="24"/>
          <note vol="78" pan="0" key="75" pos="72" len="24"/>
          <note vol="78" pan="0" key="70" pos="96" len="24"/>
          <note vol="78" pan="0" key="67" pos="120" len="24"/>
          <note vol="78" pan="0" key="70" pos="144" len="24"/>
          <note vol="78" pan="0" key="75" pos="168" len="24"/>
          <note vol="78" pan="0" key="75" pos="192" len="48"/>
          <note vol="78" pan="0" key="80" pos="240" len="48"/>
          <note vol="78" pan="0" key="81" pos="288" len="48"/>
          <note vol="78" pan="0" key="84" pos="336" len="48"/>
        </pattern>
        <pattern type="1" name="" steps="16" muted="0" pos="43200">
          <note vol="78" pan="0" key="0" pos="0" len="72"/>
          <note vol="78" pan="0" key="70" pos="960" len="144"/>
          <note vol="78" pan="0" key="75" pos="1104" len="48"/>
          <note vol="78" pan="0" key="73" pos="1152" len="144"/>
          <note vol="78" pan="0" key="78" pos="1296" len="48"/>
          <note vol="78" pan="0" key="78" pos="1344" len="144"/>
          <note vol="78" pan="0" key="77" pos="1488" len="24"/>
          <note vol="78" pan="0" key="75" pos="1512" len="24"/>
          <note vol="78" pan="0" key="73" pos="1536" len="48"/>
          <note vol="78" pan="0" key="75" pos="1584" len="48"/>
          <note vol="78" pan="0" key="70" pos="1632" len="48"/>
          <note vol="78" pan="0" key="66" pos="1680" len="48"/>
          <note vol="78" pan="0" key="68" pos="1728" len="96"/>
          <note vol="78" pan="0" key="71" pos="1824" len="48"/>
          <note vol="78" pan="0" key="75" pos="1872" len="48"/>
          <note vol="78" pan="0" key="75" pos="1920" len="96"/>
          <note vol="78" pan="0" key="73" pos="2016" len="48"/>
          <note vol="78" pan="0" key="75" pos="2064" len="48"/>
          <note vol="78" pan="0" key="82" pos="2112" len="72"/>
          <note vol="78" pan="0" key="80" pos="2184" len="72"/>
          <note vol="78" pan="0" key="78" pos="2256" len="48"/>
          <note vol="78" pan="0" key="77" pos="2304" len="192"/>
          <note vol="78" pan="0" key="75" pos="2496" len="72"/>
          <note vol="78" pan="0" key="73" pos="2568" len="72"/>
          <note vol="78" pan="0" key="75" pos="2640" len="48"/>
          <note vol="78" pan="0" key="78" pos="2688" len="144"/>
          <note vol="78" pan="0" key="73" pos="2832" len="48"/>
          <note vol="78" pan="0" key="72" pos="2880" len="240"/>
          <note vol="78" pan="0" key="75" pos="3120" len="48"/>
          <note vol="78" pan="0" key="77" pos="3168" len="48"/>
          <note vol="78" pan="0" key="78" pos="3216" len="48"/>
          <note vol="78" pan="0" key="80" pos="3264" len="72"/>
          <note vol="78" pan="0" key="78" pos="3336" len="72"/>
          <note vol="78" pan="0" key="76" pos="3408" len="48"/>
          <note vol="78" pan="0" key="75" pos="3456" len="48"/>
          <note vol="78" pan="0" key="70" pos="3504" len="48"/>
          <note vol="78" pan="0" key="82" pos="3552" len="48"/>
          <note vol="78" pan="0" key="87" pos="3600" len="48"/>
          <note vol="78" pan="0" key="85" pos="3648" len="192"/>
          <note vol="195" pan="0" key="82" pos="3840" len="12"/>
          <note vol="195" pan="0" key="80" pos="3852" len="12"/>
          <note vol="195" pan="0" key="78" pos="3864" len="12"/>
          <note vol="195" pan="0" key="77" pos="3876" len="12"/>
          <note vol="195" pan="0" key="80" pos="3888" len="12"/>
          <note vol="195" pan="0" key="78" pos="3900" len="12"/>
          <note vol="195" pan="0" key="77" pos="3912" len="12"/>
          <note vol="195" pan="0" key="75" pos="3924" len="12"/>
          <note vol="195" pan="0" key="78" pos="3936" len="12"/>
          <note vol="195" pan="0" key="77" pos="3948" len="12"/>
          <note vol="195" pan="0" key="75" pos="3960" len="12"/>
          <note vol="195" pan="0" key="73" pos="3972" len="12"/>
          <note vol="195" pan="0" key="77" pos="3984" len="12"/>
          <note vol="195" pan="0" key="75" pos="3996" len="12"/>
          <note vol="195" pan="0" key="73" pos="4008" len="12"/>
          <note vol="195" pan="0" key="75" pos="4020" len="12"/>
        </pattern>
        <pattern type="1" name="" steps="16" muted="0" pos="40320">
          <note vol="78" pan="0" key="66" pos="0" len="12"/>
          <note vol="200" pan="0" key="1" pos="0" len="48"/>
          <note vol="78" pan="0" key="64" pos="12" len="12"/>
          <note vol="78" pan="0" key="61" pos="24" len="12"/>
          <note vol="78" pan="0" key="64" pos="36" len="12"/>
          <note vol="78" pan="0" key="66" pos="48" len="12"/>
          <note vol="78" pan="0" key="64" pos="60" len="12"/>
          <note vol="78" pan="0" key="61" pos="72" len="12"/>
          <note vol="78" pan="0" key="64" pos="84" len="12"/>
          <note vol="78" pan="0" key="69" pos="96" len="12"/>
          <note vol="78" pan="0" key="68" pos="108" len="12"/>
          <note vol="78" pan="0" key="66" pos="120" len="12"/>
          <note vol="78" pan="0" key="68" pos="132" len="12"/>
          <note vol="78" pan="0" key="69" pos="144" len="12"/>
          <note vol="78" pan="0" key="71" pos="156" len="12"/>
          <note vol="78" pan="0" key="73" pos="168" len="12"/>
          <note vol="78" pan="0" key="71" pos="180" len="12"/>
          <note vol="78" pan="0" key="73" pos="192" len="12"/>
          <note vol="78" pan="0" key="71" pos="204" len="12"/>
          <note vol="78" pan="0" key="68" pos="216" len="12"/>
          <note vol="78" pan="0" key="71" pos="228" len="12"/>
          <note vol="78" pan="0" key="73" pos="240" len="12"/>
          <note vol="200" pan="0" key="0" pos="240" len="48"/>
          <note vol="78" pan="0" key="71" pos="252" len="12"/>
          <note vol="78" pan="0" key="68" pos="264" len="12"/>
          <note vol="78" pan="0" key="71" pos="276" len="12"/>
          <note vol="78" pan="0" key="73" pos="288" len="12"/>
          <note vol="78" pan="0" key="75" pos="300" len="12"/>
          <note vol="78" pan="0" key="76" pos="312" len="12"/>
          <note vol="78" pan="0" key="78" pos="324" len="12"/>
          <note vol="78" pan="0" key="80" pos="336" len="12"/>
          <note vol="78" pan="0" key="73" pos="348" len="12"/>
          <note vol="200" pan="0" key="1" pos="348" len="12"/>
          <note vol="78" pan="0" key="71" pos="360" len="12"/>
          <note vol="78" pan="0" key="73" pos="372" len="12"/>
        </pattern>
        <pattern type="1" name="" steps="16" muted="0" pos="40704">
          <note vol="78" pan="0" key="80" pos="0" len="48"/>
          <note vol="100" pan="0" key="0" pos="0" len="48"/>
          <note vol="78" pan="0" key="78" pos="48" len="12"/>
          <note vol="78" pan="0" key="80" pos="60" len="12"/>
          <note vol="78" pan="0" key="78" pos="72" len="48"/>
          <note vol="78" pan="0" key="76" pos="120" len="12"/>
          <note vol="78" pan="0" key="78" pos="132" len="12"/>
          <note vol="78" pan="0" key="76" pos="144" len="12"/>
          <note vol="78" pan="0" key="0" pos="144" len="12"/>
          <note vol="78" pan="0" key="75" pos="156" len="12"/>
          <note vol="78" pan="0" key="1" pos="156" len="12"/>
          <note vol="78" pan="0" key="73" pos="168" len="12"/>
          <note vol="78" pan="0" key="76" pos="180" len="12"/>
          <note vol="78" pan="0" key="75" pos="192" len="48"/>
          <note vol="78" pan="0" key="0" pos="192" len="12"/>
          <note vol="78" pan="0" key="73" pos="240" len="12"/>
          <note vol="78" pan="0" key="1" pos="240" len="12"/>
          <note vol="78" pan="0" key="71" pos="252" len="12"/>
          <note vol="78" pan="0" key="73" pos="264" len="12"/>
          <note vol="78" pan="0" key="75" pos="276" len="12"/>
          <note vol="78" pan="0" key="76" pos="288" len="12"/>
          <note vol="78" pan="0" key="0" pos="288" len="12"/>
          <note vol="78" pan="0" key="78" pos="300" len="12"/>
          <note vol="78" pan="0" key="76" pos="312" len="12"/>
          <note vol="78" pan="0" key="75" pos="324" len="12"/>
          <note vol="78" pan="0" key="76" pos="336" len="12"/>
          <note vol="78" pan="0" key="75" pos="348" len="12"/>
          <note vol="78" pan="0" key="73" pos="360" len="12"/>
          <note vol="78" pan="0" key="1" pos="360" len="12"/>
          <note vol="78" pan="0" key="71" pos="372" len="12"/>
        </pattern>
        <pattern type="1" name="" steps="16" muted="0" pos="41088">
          <note vol="78" pan="0" key="76" pos="0" len="12"/>
          <note vol="78" pan="0" key="0" pos="0" len="12"/>
          <note vol="78" pan="0" key="73" pos="12" len="12"/>
          <note vol="78" pan="0" key="71" pos="24" len="12"/>
          <note vol="78" pan="0" key="1" pos="24" len="12"/>
          <note vol="78" pan="0" key="73" pos="36" len="12"/>
          <note vol="78" pan="0" key="68" pos="48" len="12"/>
          <note vol="78" pan="0" key="73" pos="60" len="12"/>
          <note vol="78" pan="0" key="71" pos="72" len="12"/>
          <note vol="78" pan="0" key="73" pos="84" len="12"/>
          <note vol="78" pan="0" key="76" pos="96" len="12"/>
          <note vol="78" pan="0" key="0" pos="96" len="12"/>
          <note vol="78" pan="0" key="73" pos="108" len="12"/>
          <note vol="78" pan="0" key="71" pos="120" len="12"/>
          <note vol="78" pan="0" key="1" pos="120" len="12"/>
          <note vol="78" pan="0" key="73" pos="132" len="12"/>
          <note vol="78" pan="0" key="68" pos="144" len="12"/>
          <note vol="78" pan="0" key="73" pos="156" len="12"/>
          <note vol="78" pan="0" key="71" pos="168" len="12"/>
          <note vol="78" pan="0" key="73" pos="180" len="12"/>
          <note vol="78" pan="0" key="76" pos="192" len="12"/>
          <note vol="78" pan="0" key="0" pos="192" len="12"/>
          <note vol="78" pan="0" key="71" pos="204" len="12"/>
          <note vol="78" pan="0" key="69" pos="216" len="12"/>
          <note vol="78" pan="0" key="1" pos="216" len="12"/>
          <note vol="78" pan="0" key="71" pos="228" len="12"/>
          <note vol="78" pan="0" key="68" pos="240" len="12"/>
          <note vol="78" pan="0" key="71" pos="252" len="12"/>
          <note vol="78" pan="0" key="69" pos="264" len="12"/>
          <note vol="78" pan="0" key="71" pos="276" len="12"/>
          <note vol="78" pan="0" key="76" pos="288" len="12"/>
          <note vol="78" pan="0" key="0" pos="288" len="12"/>
          <note vol="78" pan="0" key="71" pos="300" len="12"/>
          <note vol="78" pan="0" key="69" pos="312" len="12"/>
          <note vol="78" pan="0" key="1" pos="312" len="12"/>
          <note vol="78" pan="0" key="71" pos="324" len="12"/>
          <note vol="78" pan="0" key="68" pos="336" len="12"/>
          <note vol="78" pan="0" key="71" pos="348" len="12"/>
          <note vol="78" pan="0" key="69" pos="360" len="12"/>
          <note vol="78" pan="0" key="71" pos="372" len="12"/>
        </pattern>
        <pattern type="1" name="" steps="16" muted="0" pos="41472">
          <note vol="78" pan="0" key="78" pos="0" len="12"/>
          <note vol="78" pan="0" key="0" pos="0" len="12"/>
          <note vol="78" pan="0" key="73" pos="12" len="12"/>
          <note vol="78" pan="0" key="70" pos="24" len="12"/>
          <note vol="78" pan="0" key="1" pos="24" len="12"/>
          <note vol="78" pan="0" key="73" pos="36" len="12"/>
          <note vol="78" pan="0" key="66" pos="48" len="12"/>
          <note vol="78" pan="0" key="73" pos="60" len="12"/>
          <note vol="78" pan="0" key="70" pos="72" len="12"/>
          <note vol="78" pan="0" key="73" pos="84" len="12"/>
          <note vol="78" pan="0" key="78" pos="96" len="12"/>
          <note vol="78" pan="0" key="73" pos="108" len="12"/>
          <note vol="78" pan="0" key="70" pos="120" len="12"/>
          <note vol="78" pan="0" key="73" pos="132" len="12"/>
          <note vol="78" pan="0" key="66" pos="144" len="12"/>
          <note vol="78" pan="0" key="73" pos="156" len="12"/>
          <note vol="78" pan="0" key="70" pos="168" len="12"/>
          <note vol="78" pan="0" key="73" pos="180" len="12"/>
        </pattern>
        <pattern type="1" name="" steps="16" muted="0" pos="41664">
          <note vol="78" pan="0" key="78" pos="0" len="12"/>
          <note vol="78" pan="0" key="0" pos="0" len="12"/>
          <note vol="78" pan="0" key="73" pos="12" len="12"/>
          <note vol="78" pan="0" key="70" pos="24" len="12"/>
          <note vol="78" pan="0" key="1" pos="24" len="12"/>
          <note vol="78" pan="0" key="66" pos="36" len="12"/>
          <note vol="78" pan="0" key="70" pos="48" len="12"/>
          <note vol="78" pan="0" key="66" pos="60" len="12"/>
          <note vol="78" pan="0" key="61" pos="72" len="12"/>
          <note vol="78" pan="0" key="66" pos="84" len="12"/>
          <note vol="78" pan="0" key="73" pos="96" len="12"/>
          <note vol="78" pan="0" key="70" pos="108" len="12"/>
          <note vol="78" pan="0" key="66" pos="120" len="12"/>
          <note vol="78" pan="0" key="70" pos="132" len="12"/>
          <note vol="78" pan="0" key="73" pos="144" len="12"/>
          <note vol="78" pan="0" key="78" pos="156" len="12"/>
          <note vol="78" pan="0" key="1" pos="156" len="12"/>
          <note vol="78" pan="0" key="82" pos="168" len="12"/>
          <note vol="78" pan="0" key="78" pos="180" len="12"/>
        </pattern>
        <pattern type="1" name="" steps="16" muted="0" pos="41856">
          <note vol="78" pan="0" key="81" pos="0" len="24"/>
          <note vol="78" pan="0" key="0" pos="0" len="48"/>
          <note vol="78" pan="0" key="76" pos="24" len="24"/>
          <note vol="78" pan="0" key="73" pos="48" len="24"/>
          <note vol="78" pan="0" key="80" pos="72" len="24"/>
          <note vol="78" pan="0" key="81" pos="96" len="24"/>
          <note vol="78" pan="0" key="83" pos="120" len="24"/>
          <note vol="78" pan="0" key="81" pos="144" len="24"/>
          <note vol="78" pan="0" key="80" pos="168" len="24"/>
          <note vol="78" pan="0" key="81" pos="192" len="12"/>
          <note vol="78" pan="0" key="0" pos="192" len="24"/>
          <note vol="78" pan="0" key="80" pos="204" len="12"/>
          <note vol="78" pan="0" key="78" pos="216" len="12"/>
          <note vol="78" pan="0" key="1" pos="216" len="24"/>
          <note vol="78" pan="0" key="76" pos="228" len="12"/>
          <note vol="78" pan="0" key="75" pos="240" len="12"/>
          <note vol="78" pan="0" key="76" pos="252" len="12"/>
          <note vol="78" pan="0" key="78" pos="264" len="12"/>
          <note vol="78" pan="0" key="0" pos="264" len="24"/>
          <note vol="78" pan="0" key="76" pos="276" len="12"/>
          <note vol="78" pan="0" key="75" pos="288" len="12"/>
          <note vol="78" pan="0" key="1" pos="288" len="24"/>
          <note vol="78" pan="0" key="73" pos="300" len="12"/>
          <note vol="78" pan="0" key="75" pos="312" len="12"/>
          <note vol="78" pan="0" key="76" pos="324" len="12"/>
          <note vol="78" pan="0" key="81" pos="336" len="12"/>
          <note vol="78" pan="0" key="0" pos="336" len="24"/>
          <note vol="78" pan="0" key="80" pos="348" len="12"/>
          <note vol="78" pan="0" key="78" pos="360" len="12"/>
          <note vol="78" pan="0" key="1" pos="360" len="24"/>
          <note vol="78" pan="0" key="80" pos="372" len="12"/>
          <note vol="78" pan="0" key="83" pos="384" len="384"/>
          <note vol="78" pan="0" key="0" pos="384" len="24"/>
        </pattern>
        <pattern type="1" name="" steps="16" muted="0" pos="53376">
          <note vol="197" pan="0" key="70" pos="0" len="192"/>
          <note vol="197" pan="0" key="0" pos="0" len="384"/>
          <note vol="197" pan="0" key="68" pos="192" len="192"/>
          <note vol="197" pan="0" key="66" pos="384" len="288"/>
          <note vol="197" pan="0" key="66" pos="672" len="96"/>
          <note vol="197" pan="0" key="78" pos="768" len="192"/>
          <note vol="197" pan="0" key="77" pos="960" len="192"/>
          <note vol="197" pan="0" key="72" pos="1152" len="384"/>
          <note vol="197" pan="0" key="71" pos="1536" len="192"/>
          <note vol="197" pan="0" key="73" pos="1728" len="192"/>
          <note vol="197" pan="0" key="75" pos="1920" len="192"/>
          <note vol="197" pan="0" key="70" pos="2112" len="96"/>
          <note vol="197" pan="0" key="68" pos="2208" len="96"/>
          <note vol="197" pan="0" key="68" pos="2304" len="192"/>
          <note vol="197" pan="0" key="63" pos="2496" len="144"/>
          <note vol="197" pan="0" key="63" pos="2640" len="24"/>
          <note vol="197" pan="0" key="65" pos="2664" len="24"/>
          <note vol="197" pan="0" key="66" pos="2688" len="192"/>
          <note vol="197" pan="0" key="68" pos="2880" len="96"/>
          <note vol="197" pan="0" key="73" pos="2976" len="96"/>
          <note vol="197" pan="0" key="75" pos="3072" len="384"/>
        </pattern>
        <pattern type="1" name="" steps="16" muted="0" pos="62400">
          <note vol="95" pan="0" key="78" pos="96" len="12"/>
          <note vol="95" pan="0" key="0" pos="96" len="12"/>
          <note vol="95" pan="0" key="80" pos="108" len="12"/>
          <note vol="95" pan="0" key="78" pos="120" len="12"/>
          <note vol="95" pan="0" key="77" pos="132" len="12"/>
          <note vol="95" pan="0" key="1" pos="132" len="12"/>
          <note vol="95" pan="0" key="78" pos="144" len="12"/>
          <note vol="95" pan="0" key="0" pos="144" len="12"/>
          <note vol="95" pan="0" key="77" pos="156" len="12"/>
          <note vol="95" pan="0" key="1" pos="156" len="12"/>
          <note vol="95" pan="0" key="75" pos="168" len="12"/>
          <note vol="95" pan="0" key="74" pos="180" len="12"/>
        </pattern>
        <pattern type="1" name="" steps="16" muted="0" pos="62592">
          <note vol="78" pan="0" key="70" pos="0" len="144"/>
          <note vol="140" pan="0" key="0" pos="0" len="12"/>
          <note vol="78" pan="0" key="75" pos="144" len="48"/>
          <note vol="78" pan="0" key="73" pos="192" len="144"/>
          <note vol="78" pan="0" key="78" pos="336" len="48"/>
          <note vol="78" pan="0" key="78" pos="384" len="144"/>
          <note vol="78" pan="0" key="77" pos="528" len="24"/>
          <note vol="78" pan="0" key="75" pos="552" len="24"/>
          <note vol="78" pan="0" key="73" pos="576" len="48"/>
          <note vol="78" pan="0" key="75" pos="624" len="48"/>
          <note vol="197" pan="0" key="68" pos="672" len="12"/>
          <note vol="197" pan="0" key="1" pos="672" len="12"/>
          <note vol="197" pan="0" key="70" pos="684" len="12"/>
          <note vol="197" pan="0" key="68" pos="696" len="12"/>
          <note vol="197" pan="0" key="66" pos="708" len="12"/>
          <note vol="197" pan="0" key="68" pos="720" len="12"/>
          <note vol="197" pan="0" key="66" pos="732" len="12"/>
          <note vol="197" pan="0" key="63" pos="744" len="12"/>
          <note vol="197" pan="0" key="66" pos="756" len="12"/>
          <note vol="78" pan="0" key="68" pos="768" len="96"/>
          <note vol="197" pan="0" key="0" pos="768" len="12"/>
          <note vol="78" pan="0" key="71" pos="864" len="48"/>
          <note vol="78" pan="0" key="75" pos="912" len="48"/>
          <note vol="78" pan="0" key="75" pos="960" len="96"/>
          <note vol="78" pan="0" key="73" pos="1056" len="48"/>
          <note vol="78" pan="0" key="75" pos="1104" len="48"/>
          <note vol="197" pan="0" key="75" pos="1152" len="12"/>
          <note vol="200" pan="0" key="0" pos="1152" len="12"/>
          <note vol="197" pan="0" key="71" pos="1164" len="12"/>
          <note vol="197" pan="0" key="73" pos="1176" len="12"/>
          <note vol="197" pan="0" key="75" pos="1188" len="12"/>
          <note vol="197" pan="0" key="77" pos="1200" len="12"/>
          <note vol="197" pan="0" key="73" pos="1212" len="12"/>
          <note vol="197" pan="0" key="75" pos="1224" len="12"/>
          <note vol="197" pan="0" key="77" pos="1236" len="12"/>
          <note vol="197" pan="0" key="78" pos="1248" len="12"/>
          <note vol="197" pan="0" key="75" pos="1260" len="12"/>
          <note vol="197" pan="0" key="77" pos="1272" len="12"/>
          <note vol="197" pan="0" key="78" pos="1284" len="12"/>
          <note vol="197" pan="0" key="80" pos="1296" len="12"/>
          <note vol="197" pan="0" key="77" pos="1308" len="12"/>
          <note vol="197" pan="0" key="78" pos="1320" len="12"/>
          <note vol="197" pan="0" key="80" pos="1332" len="12"/>
          <note vol="197" pan="0" key="82" pos="1344" len="12"/>
          <note vol="197" pan="0" key="80" pos="1356" len="12"/>
          <note vol="197" pan="0" key="78" pos="1368" len="12"/>
          <note vol="197" pan="0" key="77" pos="1380" len="12"/>
          <note vol="197" pan="0" key="75" pos="1392" len="12"/>
          <note vol="197" pan="0" key="77" pos="1404" len="12"/>
          <note vol="197" pan="0" key="80" pos="1416" len="12"/>
          <note vol="197" pan="0" key="78" pos="1428" len="12"/>
          <note vol="197" pan="0" key="77" pos="1440" len="12"/>
          <note vol="200" pan="0" key="0" pos="1440" len="12"/>
          <note vol="197" pan="0" key="75" pos="1452" len="12"/>
          <note vol="197" pan="0" key="73" pos="1464" len="12"/>
          <note vol="197" pan="0" key="75" pos="1476" len="12"/>
          <note vol="197" pan="0" key="78" pos="1488" len="12"/>
          <note vol="197" pan="0" key="77" pos="1500" len="12"/>
          <note vol="197" pan="0" key="75" pos="1512" len="12"/>
          <note vol="197" pan="0" key="73" pos="1524" len="12"/>
          <note vol="197" pan="0" key="71" pos="1536" len="12"/>
          <note vol="197" pan="0" key="73" pos="1548" len="12"/>
          <note vol="200" pan="0" key="77" pos="1560" len="12"/>
          <note vol="200" pan="0" key="75" pos="1572" len="12"/>
          <note vol="200" pan="0" key="73" pos="1584" len="12"/>
          <note vol="200" pan="0" key="71" pos="1596" len="12"/>
          <note vol="200" pan="0" key="70" pos="1608" len="12"/>
          <note vol="200" pan="0" key="71" pos="1620" len="12"/>
          <note vol="200" pan="0" key="75" pos="1632" len="12"/>
          <note vol="200" pan="0" key="73" pos="1644" len="12"/>
          <note vol="200" pan="0" key="71" pos="1656" len="12"/>
          <note vol="200" pan="0" key="70" pos="1668" len="12"/>
          <note vol="200" pan="0" key="73" pos="1680" len="12"/>
          <note vol="200" pan="0" key="71" pos="1692" len="12"/>
          <note vol="200" pan="0" key="70" pos="1704" len="12"/>
          <note vol="200" pan="0" key="71" pos="1716" len="12"/>
          <note vol="197" pan="0" key="82" pos="1728" len="192"/>
        </pattern>
      </track>
      <track type="0" name="Carla Patchbay" solo="0" muted="0" mutedBeforeSolo="0">
        <instrumenttrack usemasterpitch="1" pitchrange="1" pitch="0" vol="28.8" basenote="45" pan="0" fxch="16">
          <instrument name="carlapatchbay">
            <carlapatchbay>
              <CARLA-PROJECT VERSION="2.2">
                <EngineSettings>
                  <ForceStereo>false</ForceStereo>
                  <PreferPluginBridges>false</PreferPluginBridges>
                  <PreferUiBridges>true</PreferUiBridges>
                  <UIsAlwaysOnTop>false</UIsAlwaysOnTop>
                  <MaxParameters>200</MaxParameters>
                  <UIBridgesTimeout>4000</UIBridgesTimeout>
                  <LADSPA_PATH>/home/pass/.ladspa:/usr/lib/ladspa:/usr/local/lib/ladspa</LADSPA_PATH>
                  <DSSI_PATH>/home/pass/.dssi:/usr/lib/dssi:/usr/local/lib/dssi</DSSI_PATH>
                  <LV2_PATH>/home/pass/.lv2:/usr/lib/lv2:/usr/local/lib/lv2</LV2_PATH>
                  <VST2_PATH>/home/pass/.vst:/home/pass/.wine/drive_c/Program Files (x86)/VstPlugins:/home/pass/.wine/drive_c/Program Files/VstPlugins:/home/pass/Music/winvst/VST32:/home/pass/Music/winvst/VST64/Plogue Art et Technologie, Inc:/home/pass/vst:/usr/lib/lxvst:/usr/lib/vst:/usr/local/lib/lxvst:/usr/local/lib/vst/home/pass/.lxvst</VST2_PATH>
                  <VST3_PATH>/home/pass/.vst3:/home/pass/.wine/drive_c/Program Files (x86)/Common Files/VST3:/home/pass/.wine/drive_c/Program Files/Common Files/VST3:/usr/lib/vst3:/usr/local/lib/vst3</VST3_PATH>
                  <SF2_PATH>/home/pass/.sounds/sf2/home/pass/.sounds/sf3:/home/pass/samples/soundfonts:/usr/share/soundfonts:/usr/share/sounds/sf2:/usr/share/sounds/sf3</SF2_PATH>
                  <SFZ_PATH>/home/pass/.sounds/sfz:/home/pass/samples:/usr/share/sounds/sfz</SFZ_PATH>
                </EngineSettings>
                <!-- sfizz -->
                <Plugin>
                  <Info>
                    <Type>LV2</Type>
                    <Name>sfizz</Name>
                    <URI>http://sfztools.github.io/sfizz</URI>
                  </Info>
                  <Data>
                    <Active>Yes</Active>
                    <ControlChannel>1</ControlChannel>
                    <Options>0x3f0</Options>
                    <Parameter>
                      <Index>0</Index>
                      <Name>Volume</Name>
                      <Symbol>volume</Symbol>
                      <Value>0</Value>
                    </Parameter>
                    <Parameter>
                      <Index>1</Index>
                      <Name>Polyphony</Name>
                      <Symbol>num_voices</Symbol>
                      <Value>64</Value>
                    </Parameter>
                    <Parameter>
                      <Index>2</Index>
                      <Name>Internal oversampling factor</Name>
                      <Symbol>oversampling</Symbol>
                      <Value>1</Value>
                    </Parameter>
                    <Parameter>
                      <Index>3</Index>
                      <Name>Preload size</Name>
                      <Symbol>preload_size</Symbol>
                      <Value>8192</Value>
                    </Parameter>
                    <Parameter>
                      <Index>5</Index>
                      <Name>Scala root key</Name>
                      <Symbol>scala_root_key</Symbol>
                      <Value>60</Value>
                    </Parameter>
                    <Parameter>
                      <Index>6</Index>
                      <Name>Tuning frequency</Name>
                      <Symbol>tuning_frequency</Symbol>
                      <Value>440</Value>
                    </Parameter>
                    <Parameter>
                      <Index>7</Index>
                      <Name>Stretched tuning</Name>
                      <Symbol>stretched_tuning</Symbol>
                      <Value>0</Value>
                    </Parameter>
                    <CustomData>
                      <Type>http://lv2plug.in/ns/ext/atom#Path</Type>
                      <Key>http://sfztools.github.io/sfizz:sfzfile</Key>
                      <Value>Strings - 1st Violins Sustain.sfz</Value>
                    </CustomData>
                    <CustomData>
                      <Type>http://lv2plug.in/ns/ext/atom#Path</Type>
                      <Key>http://sfztools.github.io/sfizz:tuningfile</Key>
                      <Value>DefaultScale.scl</Value>
                    </CustomData>
                    <CustomData>
                      <Type>http://lv2plug.in/ns/ext/atom#Int</Type>
                      <Key>http://sfztools.github.io/sfizz:numvoices</Key>
                      <Value>QAAAAA==</Value>
                    </CustomData>
                    <CustomData>
                      <Type>http://lv2plug.in/ns/ext/atom#Int</Type>
                      <Key>http://sfztools.github.io/sfizz:preload_size</Key>
                      <Value>ACAAAA==</Value>
                    </CustomData>
                    <CustomData>
                      <Type>http://lv2plug.in/ns/ext/atom#Int</Type>
                      <Key>http://sfztools.github.io/sfizz:oversampling</Key>
                      <Value>AQAAAA==</Value>
                    </CustomData>
                  </Data>
                </Plugin>
                <!-- Audio Gain (Stereo) -->
                <Plugin>
                  <Info>
                    <Type>INTERNAL</Type>
                    <Name>Audio Gain (Stereo)</Name>
                    <Label>audiogain_s</Label>
                  </Info>
                  <Data>
                    <Active>Yes</Active>
                    <ControlChannel>1</ControlChannel>
                    <Options>0x0</Options>
                    <Parameter>
                      <Index>0</Index>
                      <Name>Gain</Name>
                      <Value>1</Value>
                    </Parameter>
                    <Parameter>
                      <Index>1</Index>
                      <Name>Apply Left</Name>
                      <Value>1</Value>
                    </Parameter>
                    <Parameter>
                      <Index>2</Index>
                      <Name>Apply Right</Name>
                      <Value>1</Value>
                    </Parameter>
                  </Data>
                </Plugin>
                <!-- sfizz -->
                <Plugin>
                  <Info>
                    <Type>LV2</Type>
                    <Name>sfizz (2)</Name>
                    <URI>http://sfztools.github.io/sfizz</URI>
                  </Info>
                  <Data>
                    <Active>Yes</Active>
                    <ControlChannel>1</ControlChannel>
                    <Options>0x3f0</Options>
                    <Parameter>
                      <Index>0</Index>
                      <Name>Volume</Name>
                      <Symbol>volume</Symbol>
                      <Value>0</Value>
                    </Parameter>
                    <Parameter>
                      <Index>1</Index>
                      <Name>Polyphony</Name>
                      <Symbol>num_voices</Symbol>
                      <Value>64</Value>
                    </Parameter>
                    <Parameter>
                      <Index>2</Index>
                      <Name>Internal oversampling factor</Name>
                      <Symbol>oversampling</Symbol>
                      <Value>1</Value>
                    </Parameter>
                    <Parameter>
                      <Index>3</Index>
                      <Name>Preload size</Name>
                      <Symbol>preload_size</Symbol>
                      <Value>8192</Value>
                    </Parameter>
                    <Parameter>
                      <Index>5</Index>
                      <Name>Scala root key</Name>
                      <Symbol>scala_root_key</Symbol>
                      <Value>60</Value>
                    </Parameter>
                    <Parameter>
                      <Index>6</Index>
                      <Name>Tuning frequency</Name>
                      <Symbol>tuning_frequency</Symbol>
                      <Value>440</Value>
                    </Parameter>
                    <Parameter>
                      <Index>7</Index>
                      <Name>Stretched tuning</Name>
                      <Symbol>stretched_tuning</Symbol>
                      <Value>0</Value>
                    </Parameter>
                    <CustomData>
                      <Type>http://lv2plug.in/ns/ext/atom#Path</Type>
                      <Key>http://sfztools.github.io/sfizz:sfzfile</Key>
                      <Value>Strings - 2nd Violins Sustain.sfz</Value>
                    </CustomData>
                    <CustomData>
                      <Type>http://lv2plug.in/ns/ext/atom#Path</Type>
                      <Key>http://sfztools.github.io/sfizz:tuningfile</Key>
                      <Value>DefaultScale.scl</Value>
                    </CustomData>
                    <CustomData>
                      <Type>http://lv2plug.in/ns/ext/atom#Int</Type>
                      <Key>http://sfztools.github.io/sfizz:numvoices</Key>
                      <Value>QAAAAA==</Value>
                    </CustomData>
                    <CustomData>
                      <Type>http://lv2plug.in/ns/ext/atom#Int</Type>
                      <Key>http://sfztools.github.io/sfizz:preload_size</Key>
                      <Value>ACAAAA==</Value>
                    </CustomData>
                    <CustomData>
                      <Type>http://lv2plug.in/ns/ext/atom#Int</Type>
                      <Key>http://sfztools.github.io/sfizz:oversampling</Key>
                      <Value>AQAAAA==</Value>
                    </CustomData>
                  </Data>
                </Plugin>
                <!-- sfizz -->
                <Plugin>
                  <Info>
                    <Type>LV2</Type>
                    <Name>sfizz (3)</Name>
                    <URI>http://sfztools.github.io/sfizz</URI>
                  </Info>
                  <Data>
                    <Active>Yes</Active>
                    <ControlChannel>1</ControlChannel>
                    <Options>0x3f0</Options>
                    <Parameter>
                      <Index>0</Index>
                      <Name>Volume</Name>
                      <Symbol>volume</Symbol>
                      <Value>0</Value>
                    </Parameter>
                    <Parameter>
                      <Index>1</Index>
                      <Name>Polyphony</Name>
                      <Symbol>num_voices</Symbol>
                      <Value>64</Value>
                    </Parameter>
                    <Parameter>
                      <Index>2</Index>
                      <Name>Internal oversampling factor</Name>
                      <Symbol>oversampling</Symbol>
                      <Value>1</Value>
                    </Parameter>
                    <Parameter>
                      <Index>3</Index>
                      <Name>Preload size</Name>
                      <Symbol>preload_size</Symbol>
                      <Value>8192</Value>
                    </Parameter>
                    <Parameter>
                      <Index>5</Index>
                      <Name>Scala root key</Name>
                      <Symbol>scala_root_key</Symbol>
                      <Value>60</Value>
                    </Parameter>
                    <Parameter>
                      <Index>6</Index>
                      <Name>Tuning frequency</Name>
                      <Symbol>tuning_frequency</Symbol>
                      <Value>440</Value>
                    </Parameter>
                    <Parameter>
                      <Index>7</Index>
                      <Name>Stretched tuning</Name>
                      <Symbol>stretched_tuning</Symbol>
                      <Value>0</Value>
                    </Parameter>
                    <CustomData>
                      <Type>http://lv2plug.in/ns/ext/atom#Path</Type>
                      <Key>http://sfztools.github.io/sfizz:sfzfile</Key>
                      <Value>Strings - Celli Sustain.sfz</Value>
                    </CustomData>
                    <CustomData>
                      <Type>http://lv2plug.in/ns/ext/atom#Path</Type>
                      <Key>http://sfztools.github.io/sfizz:tuningfile</Key>
                      <Value>DefaultScale.scl</Value>
                    </CustomData>
                    <CustomData>
                      <Type>http://lv2plug.in/ns/ext/atom#Int</Type>
                      <Key>http://sfztools.github.io/sfizz:numvoices</Key>
                      <Value>QAAAAA==</Value>
                    </CustomData>
                    <CustomData>
                      <Type>http://lv2plug.in/ns/ext/atom#Int</Type>
                      <Key>http://sfztools.github.io/sfizz:preload_size</Key>
                      <Value>ACAAAA==</Value>
                    </CustomData>
                    <CustomData>
                      <Type>http://lv2plug.in/ns/ext/atom#Int</Type>
                      <Key>http://sfztools.github.io/sfizz:oversampling</Key>
                      <Value>AQAAAA==</Value>
                    </CustomData>
                  </Data>
                </Plugin>
                <!-- sfizz -->
                <Plugin>
                  <Info>
                    <Type>LV2</Type>
                    <Name>sfizz (4)</Name>
                    <URI>http://sfztools.github.io/sfizz</URI>
                  </Info>
                  <Data>
                    <Active>Yes</Active>
                    <ControlChannel>1</ControlChannel>
                    <Options>0x3f0</Options>
                    <Parameter>
                      <Index>0</Index>
                      <Name>Volume</Name>
                      <Symbol>volume</Symbol>
                      <Value>0</Value>
                    </Parameter>
                    <Parameter>
                      <Index>1</Index>
                      <Name>Polyphony</Name>
                      <Symbol>num_voices</Symbol>
                      <Value>64</Value>
                    </Parameter>
                    <Parameter>
                      <Index>2</Index>
                      <Name>Internal oversampling factor</Name>
                      <Symbol>oversampling</Symbol>
                      <Value>1</Value>
                    </Parameter>
                    <Parameter>
                      <Index>3</Index>
                      <Name>Preload size</Name>
                      <Symbol>preload_size</Symbol>
                      <Value>8192</Value>
                    </Parameter>
                    <Parameter>
                      <Index>5</Index>
                      <Name>Scala root key</Name>
                      <Symbol>scala_root_key</Symbol>
                      <Value>60</Value>
                    </Parameter>
                    <Parameter>
                      <Index>6</Index>
                      <Name>Tuning frequency</Name>
                      <Symbol>tuning_frequency</Symbol>
                      <Value>440</Value>
                    </Parameter>
                    <Parameter>
                      <Index>7</Index>
                      <Name>Stretched tuning</Name>
                      <Symbol>stretched_tuning</Symbol>
                      <Value>0</Value>
                    </Parameter>
                    <CustomData>
                      <Type>http://lv2plug.in/ns/ext/atom#Path</Type>
                      <Key>http://sfztools.github.io/sfizz:sfzfile</Key>
                      <Value>Strings - Violas Sustain.sfz</Value>
                    </CustomData>
                    <CustomData>
                      <Type>http://lv2plug.in/ns/ext/atom#Path</Type>
                      <Key>http://sfztools.github.io/sfizz:tuningfile</Key>
                      <Value>DefaultScale.scl</Value>
                    </CustomData>
                    <CustomData>
                      <Type>http://lv2plug.in/ns/ext/atom#Int</Type>
                      <Key>http://sfztools.github.io/sfizz:numvoices</Key>
                      <Value>QAAAAA==</Value>
                    </CustomData>
                    <CustomData>
                      <Type>http://lv2plug.in/ns/ext/atom#Int</Type>
                      <Key>http://sfztools.github.io/sfizz:preload_size</Key>
                      <Value>ACAAAA==</Value>
                    </CustomData>
                    <CustomData>
                      <Type>http://lv2plug.in/ns/ext/atom#Int</Type>
                      <Key>http://sfztools.github.io/sfizz:oversampling</Key>
                      <Value>AQAAAA==</Value>
                    </CustomData>
                  </Data>
                </Plugin>
                <!-- sfizz -->
                <Plugin>
                  <Info>
                    <Type>LV2</Type>
                    <Name>sfizz (5)</Name>
                    <URI>http://sfztools.github.io/sfizz</URI>
                  </Info>
                  <Data>
                    <Active>Yes</Active>
                    <ControlChannel>1</ControlChannel>
                    <Options>0x3f0</Options>
                    <Parameter>
                      <Index>0</Index>
                      <Name>Volume</Name>
                      <Symbol>volume</Symbol>
                      <Value>0</Value>
                    </Parameter>
                    <Parameter>
                      <Index>1</Index>
                      <Name>Polyphony</Name>
                      <Symbol>num_voices</Symbol>
                      <Value>64</Value>
                    </Parameter>
                    <Parameter>
                      <Index>2</Index>
                      <Name>Internal oversampling factor</Name>
                      <Symbol>oversampling</Symbol>
                      <Value>1</Value>
                    </Parameter>
                    <Parameter>
                      <Index>3</Index>
                      <Name>Preload size</Name>
                      <Symbol>preload_size</Symbol>
                      <Value>8192</Value>
                    </Parameter>
                    <Parameter>
                      <Index>5</Index>
                      <Name>Scala root key</Name>
                      <Symbol>scala_root_key</Symbol>
                      <Value>60</Value>
                    </Parameter>
                    <Parameter>
                      <Index>6</Index>
                      <Name>Tuning frequency</Name>
                      <Symbol>tuning_frequency</Symbol>
                      <Value>440</Value>
                    </Parameter>
                    <Parameter>
                      <Index>7</Index>
                      <Name>Stretched tuning</Name>
                      <Symbol>stretched_tuning</Symbol>
                      <Value>0</Value>
                    </Parameter>
                    <CustomData>
                      <Type>http://lv2plug.in/ns/ext/atom#Path</Type>
                      <Key>http://sfztools.github.io/sfizz:sfzfile</Key>
                      <Value>Strings - Basses Sustain.sfz</Value>
                    </CustomData>
                    <CustomData>
                      <Type>http://lv2plug.in/ns/ext/atom#Path</Type>
                      <Key>http://sfztools.github.io/sfizz:tuningfile</Key>
                      <Value>DefaultScale.scl</Value>
                    </CustomData>
                    <CustomData>
                      <Type>http://lv2plug.in/ns/ext/atom#Int</Type>
                      <Key>http://sfztools.github.io/sfizz:numvoices</Key>
                      <Value>QAAAAA==</Value>
                    </CustomData>
                    <CustomData>
                      <Type>http://lv2plug.in/ns/ext/atom#Int</Type>
                      <Key>http://sfztools.github.io/sfizz:preload_size</Key>
                      <Value>ACAAAA==</Value>
                    </CustomData>
                    <CustomData>
                      <Type>http://lv2plug.in/ns/ext/atom#Int</Type>
                      <Key>http://sfztools.github.io/sfizz:oversampling</Key>
                      <Value>AQAAAA==</Value>
                    </CustomData>
                  </Data>
                </Plugin>
                <!-- MIDI Transpose -->
                <Plugin>
                  <Info>
                    <Type>LV2</Type>
                    <Name>MIDI Transpose</Name>
                    <URI>http://kxstudio.sf.net/carla/plugins/miditranspose</URI>
                  </Info>
                  <Data>
                    <Active>Yes</Active>
                    <ControlChannel>1</ControlChannel>
                    <Options>0x3f1</Options>
                    <Parameter>
                      <Index>1</Index>
                      <Name>Octaves</Name>
                      <Symbol>octaves</Symbol>
                      <Value>-2</Value>
                    </Parameter>
                    <Parameter>
                      <Index>2</Index>
                      <Name>Semitones</Name>
                      <Symbol>semitones</Symbol>
                      <Value>0</Value>
                    </Parameter>
                  </Data>
                </Plugin>
                <Patchbay>
                  <Connection>
                    <Source>Midi Input:Capture 1</Source>
                    <Target>sfizz:events-in</Target>
                  </Connection>
                  <Connection>
                    <Source>Midi Input:Capture 1</Source>
                    <Target>sfizz (2):events-in</Target>
                  </Connection>
                  <Connection>
                    <Source>Midi Input:Capture 1</Source>
                    <Target>sfizz (3):events-in</Target>
                  </Connection>
                  <Connection>
                    <Source>sfizz:Left Output</Source>
                    <Target>Audio Output:Left</Target>
                  </Connection>
                  <Connection>
                    <Source>sfizz:Right Output</Source>
                    <Target>Audio Output:Left</Target>
                  </Connection>
                  <Connection>
                    <Source>sfizz (2):Left Output</Source>
                    <Target>Audio Output:Right</Target>
                  </Connection>
                  <Connection>
                    <Source>sfizz (2):Right Output</Source>
                    <Target>Audio Output:Right</Target>
                  </Connection>
                  <Connection>
                    <Source>sfizz (3):Left Output</Source>
                    <Target>Audio Output:Left</Target>
                  </Connection>
                  <Connection>
                    <Source>sfizz (3):Right Output</Source>
                    <Target>Audio Output:Right</Target>
                  </Connection>
                  <Connection>
                    <Source>sfizz (4):Left Output</Source>
                    <Target>Audio Output:Left</Target>
                  </Connection>
                  <Connection>
                    <Source>sfizz (4):Right Output</Source>
                    <Target>Audio Output:Right</Target>
                  </Connection>
                  <Connection>
                    <Source>sfizz (5):Left Output</Source>
                    <Target>Audio Output:Left</Target>
                  </Connection>
                  <Connection>
                    <Source>sfizz (5):Right Output</Source>
                    <Target>Audio Output:Right</Target>
                  </Connection>
                  <Connection>
                    <Source>Midi Input:Capture 1</Source>
                    <Target>MIDI Transpose:events-in</Target>
                  </Connection>
                  <Connection>
                    <Source>MIDI Transpose:events-out</Source>
                    <Target>sfizz (5):events-in</Target>
                  </Connection>
                  <Connection>
                    <Source>MIDI Transpose:events-out</Source>
                    <Target>sfizz (3):events-in</Target>
                  </Connection>
                  <Connection>
                    <Source>Midi Input:Capture 1</Source>
                    <Target>sfizz (4):events-in</Target>
                  </Connection>
                  <Positions>
                    <Position y1="1394" x1="1449" pluginId="6">
                      <Name>MIDI Transpose</Name>
                    </Position>
                    <Position y1="1402" x1="1665" pluginId="5">
                      <Name>sfizz (5)</Name>
                    </Position>
                    <Position y1="1311" x1="1769" pluginId="4">
                      <Name>sfizz (4)</Name>
                    </Position>
                    <Position y1="1366" x1="1647" pluginId="3">
                      <Name>sfizz (3)</Name>
                    </Position>
                    <Position y1="1288" x1="1725" pluginId="2">
                      <Name>sfizz (2)</Name>
                    </Position>
                    <Position y1="1115" x1="1765" pluginId="1">
                      <Name>Audio Gain (Stereo)</Name>
                    </Position>
                    <Position y1="1200" x1="1679" pluginId="0">
                      <Name>sfizz</Name>
                    </Position>
                    <Position y1="1308" x1="1448" y2="1355" x2="1943">
                      <Name>Midi Input</Name>
                    </Position>
                  </Positions>
                </Patchbay>
              </CARLA-PROJECT>
              <key/>
            </carlapatchbay>
          </instrument>
          <eldata fwet="0" fres="0.5" ftype="0" fcut="14000">
            <elvol x100="0" lspd_numerator="4" amt="0" lspd="0.1" lpdel="0" dec="0.5" lspd_syncmode="0" att="0" ctlenvamt="0" pdel="0" latt="0" sustain="0.5" lspd_denominator="4" hold="0.5" lamt="0" userwavefile="" lshp="0" rel="0.1"/>
            <elcut x100="0" lspd_numerator="4" amt="0" lspd="0.1" lpdel="0" dec="0.5" lspd_syncmode="0" att="0" ctlenvamt="0" pdel="0" latt="0" sustain="0.5" lspd_denominator="4" hold="0.5" lamt="0" userwavefile="" lshp="0" rel="0.1"/>
            <elres x100="0" lspd_numerator="4" amt="0" lspd="0.1" lpdel="0" dec="0.5" lspd_syncmode="0" att="0" ctlenvamt="0" pdel="0" latt="0" sustain="0.5" lspd_denominator="4" hold="0.5" lamt="0" userwavefile="" lshp="0" rel="0.1"/>
          </eldata>
          <chordcreator chordrange="1" chord="0" chord-enabled="0"/>
          <arpeggiator arprange="1" arptime_syncmode="0" arpskip="0" arpmiss="0" arptime="200" arpdir="0" arpmode="0" arptime_denominator="4" arp-enabled="0" arp="0" arpgate="100" arpcycle="0" arptime_numerator="4"/>
          <midiport inputcontroller="0" outputcontroller="0" outputprogram="1" basevelocity="63" outputchannel="1" writable="0" inputchannel="0" readable="0" fixedinputvelocity="-1" fixedoutputvelocity="-1" fixedoutputnote="-1"/>
          <fxchain numofeffects="0" enabled="0"/>
        </instrumenttrack>
        <pattern type="1" name="" steps="16" muted="0" pos="0">
          <note vol="193" pan="0" key="61" pos="0" len="384"/>
          <note vol="193" pan="0" key="68" pos="192" len="192"/>
          <note vol="193" pan="0" key="64" pos="384" len="384"/>
          <note vol="193" pan="0" key="61" pos="384" len="384"/>
          <note vol="193" pan="0" key="52" pos="384" len="384"/>
          <note vol="193" pan="0" key="63" pos="768" len="384"/>
          <note vol="193" pan="0" key="59" pos="768" len="384"/>
          <note vol="193" pan="0" key="56" pos="768" len="384"/>
          <note vol="193" pan="0" key="61" pos="1152" len="384"/>
          <note vol="193" pan="0" key="56" pos="1152" len="384"/>
          <note vol="193" pan="0" key="49" pos="1152" len="384"/>
          <note vol="193" pan="0" key="59" pos="1536" len="384"/>
          <note vol="193" pan="0" key="57" pos="1536" len="384"/>
          <note vol="193" pan="0" key="49" pos="1536" len="384"/>
          <note vol="193" pan="0" key="64" pos="1920" len="24"/>
          <note vol="193" pan="0" key="61" pos="1920" len="24"/>
          <note vol="193" pan="0" key="56" pos="1920" len="24"/>
          <note vol="193" pan="0" key="64" pos="1992" len="24"/>
          <note vol="193" pan="0" key="61" pos="1992" len="24"/>
          <note vol="193" pan="0" key="56" pos="1992" len="24"/>
          <note vol="193" pan="0" key="64" pos="2064" len="24"/>
          <note vol="193" pan="0" key="61" pos="2064" len="24"/>
          <note vol="193" pan="0" key="56" pos="2064" len="24"/>
          <note vol="193" pan="0" key="64" pos="2136" len="24"/>
          <note vol="193" pan="0" key="61" pos="2136" len="24"/>
          <note vol="193" pan="0" key="56" pos="2136" len="24"/>
          <note vol="193" pan="0" key="64" pos="2208" len="24"/>
          <note vol="193" pan="0" key="61" pos="2208" len="24"/>
          <note vol="193" pan="0" key="56" pos="2208" len="24"/>
          <note vol="193" pan="0" key="64" pos="2232" len="24"/>
          <note vol="193" pan="0" key="61" pos="2232" len="24"/>
          <note vol="193" pan="0" key="56" pos="2232" len="24"/>
          <note vol="193" pan="0" key="64" pos="2280" len="24"/>
          <note vol="193" pan="0" key="61" pos="2280" len="24"/>
          <note vol="193" pan="0" key="56" pos="2280" len="24"/>
          <note vol="193" pan="0" key="63" pos="2304" len="24"/>
          <note vol="193" pan="0" key="59" pos="2304" len="24"/>
          <note vol="193" pan="0" key="56" pos="2304" len="24"/>
          <note vol="193" pan="0" key="63" pos="2376" len="24"/>
          <note vol="193" pan="0" key="59" pos="2376" len="24"/>
          <note vol="193" pan="0" key="56" pos="2376" len="24"/>
          <note vol="193" pan="0" key="63" pos="2448" len="24"/>
          <note vol="193" pan="0" key="59" pos="2448" len="24"/>
          <note vol="193" pan="0" key="56" pos="2448" len="24"/>
          <note vol="193" pan="0" key="63" pos="2520" len="24"/>
          <note vol="193" pan="0" key="59" pos="2520" len="24"/>
          <note vol="193" pan="0" key="56" pos="2520" len="24"/>
          <note vol="193" pan="0" key="63" pos="2592" len="24"/>
          <note vol="193" pan="0" key="59" pos="2592" len="24"/>
          <note vol="193" pan="0" key="56" pos="2592" len="24"/>
          <note vol="193" pan="0" key="63" pos="2616" len="24"/>
          <note vol="193" pan="0" key="59" pos="2616" len="24"/>
          <note vol="193" pan="0" key="56" pos="2616" len="24"/>
          <note vol="193" pan="0" key="63" pos="2664" len="24"/>
          <note vol="193" pan="0" key="59" pos="2664" len="24"/>
          <note vol="193" pan="0" key="56" pos="2664" len="24"/>
          <note vol="193" pan="0" key="61" pos="2688" len="24"/>
          <note vol="193" pan="0" key="58" pos="2688" len="24"/>
          <note vol="193" pan="0" key="61" pos="2760" len="24"/>
          <note vol="193" pan="0" key="58" pos="2760" len="24"/>
          <note vol="193" pan="0" key="61" pos="2832" len="24"/>
          <note vol="193" pan="0" key="58" pos="2832" len="24"/>
          <note vol="193" pan="0" key="61" pos="2904" len="24"/>
          <note vol="193" pan="0" key="58" pos="2904" len="24"/>
          <note vol="193" pan="0" key="61" pos="2976" len="24"/>
          <note vol="193" pan="0" key="58" pos="2976" len="24"/>
          <note vol="193" pan="0" key="61" pos="3000" len="24"/>
          <note vol="193" pan="0" key="58" pos="3000" len="24"/>
          <note vol="193" pan="0" key="61" pos="3048" len="24"/>
          <note vol="193" pan="0" key="58" pos="3048" len="24"/>
          <note vol="193" pan="0" key="61" pos="3072" len="24"/>
          <note vol="193" pan="0" key="57" pos="3072" len="24"/>
          <note vol="193" pan="0" key="61" pos="3144" len="24"/>
          <note vol="193" pan="0" key="57" pos="3144" len="24"/>
          <note vol="193" pan="0" key="61" pos="3216" len="24"/>
          <note vol="193" pan="0" key="57" pos="3216" len="24"/>
        </pattern>
        <pattern type="1" name="" steps="16" muted="0" pos="8064">
          <note vol="197" pan="0" key="68" pos="0" len="192"/>
          <note vol="197" pan="0" key="64" pos="0" len="192"/>
          <note vol="197" pan="0" key="61" pos="0" len="192"/>
          <note vol="197" pan="0" key="68" pos="192" len="192"/>
          <note vol="197" pan="0" key="63" pos="192" len="192"/>
          <note vol="197" pan="0" key="59" pos="192" len="192"/>
          <note vol="197" pan="0" key="69" pos="384" len="192"/>
          <note vol="197" pan="0" key="64" pos="384" len="192"/>
          <note vol="197" pan="0" key="61" pos="384" len="192"/>
          <note vol="197" pan="0" key="71" pos="576" len="192"/>
          <note vol="197" pan="0" key="66" pos="576" len="192"/>
          <note vol="197" pan="0" key="63" pos="576" len="192"/>
          <note vol="197" pan="0" key="73" pos="768" len="192"/>
          <note vol="197" pan="0" key="69" pos="768" len="192"/>
          <note vol="197" pan="0" key="66" pos="768" len="192"/>
          <note vol="197" pan="0" key="75" pos="960" len="192"/>
          <note vol="197" pan="0" key="71" pos="960" len="192"/>
          <note vol="197" pan="0" key="68" pos="960" len="192"/>
          <note vol="197" pan="0" key="76" pos="1152" len="192"/>
          <note vol="197" pan="0" key="73" pos="1152" len="192"/>
          <note vol="197" pan="0" key="69" pos="1152" len="192"/>
          <note vol="197" pan="0" key="75" pos="1344" len="192"/>
          <note vol="197" pan="0" key="71" pos="1344" len="192"/>
          <note vol="197" pan="0" key="66" pos="1344" len="192"/>
          <note vol="197" pan="0" key="76" pos="1536" len="192"/>
          <note vol="197" pan="0" key="73" pos="1536" len="192"/>
          <note vol="197" pan="0" key="68" pos="1536" len="192"/>
          <note vol="197" pan="0" key="75" pos="1728" len="192"/>
          <note vol="197" pan="0" key="71" pos="1728" len="192"/>
          <note vol="197" pan="0" key="66" pos="1728" len="192"/>
          <note vol="197" pan="0" key="73" pos="1920" len="384"/>
          <note vol="197" pan="0" key="70" pos="1920" len="384"/>
          <note vol="197" pan="0" key="66" pos="1920" len="384"/>
          <note vol="197" pan="0" key="74" pos="2304" len="192"/>
          <note vol="197" pan="0" key="69" pos="2304" len="192"/>
          <note vol="197" pan="0" key="66" pos="2304" len="192"/>
          <note vol="197" pan="0" key="73" pos="2496" len="192"/>
          <note vol="197" pan="0" key="69" pos="2496" len="192"/>
          <note vol="197" pan="0" key="64" pos="2496" len="192"/>
          <note vol="197" pan="0" key="75" pos="2688" len="384"/>
          <note vol="197" pan="0" key="71" pos="2688" len="384"/>
          <note vol="197" pan="0" key="66" pos="2688" len="384"/>
        </pattern>
        <pattern type="1" name="" steps="16" muted="0" pos="15744">
          <note vol="197" pan="0" key="68" pos="0" len="192"/>
          <note vol="197" pan="0" key="64" pos="0" len="192"/>
          <note vol="197" pan="0" key="61" pos="0" len="192"/>
          <note vol="197" pan="0" key="68" pos="192" len="192"/>
          <note vol="197" pan="0" key="63" pos="192" len="192"/>
          <note vol="197" pan="0" key="59" pos="192" len="192"/>
          <note vol="197" pan="0" key="69" pos="384" len="192"/>
          <note vol="197" pan="0" key="64" pos="384" len="192"/>
          <note vol="197" pan="0" key="61" pos="384" len="192"/>
          <note vol="197" pan="0" key="71" pos="576" len="192"/>
          <note vol="197" pan="0" key="66" pos="576" len="192"/>
          <note vol="197" pan="0" key="63" pos="576" len="192"/>
          <note vol="197" pan="0" key="73" pos="768" len="192"/>
          <note vol="197" pan="0" key="69" pos="768" len="192"/>
          <note vol="197" pan="0" key="66" pos="768" len="192"/>
          <note vol="197" pan="0" key="75" pos="960" len="192"/>
          <note vol="197" pan="0" key="71" pos="960" len="192"/>
          <note vol="197" pan="0" key="68" pos="960" len="192"/>
          <note vol="197" pan="0" key="76" pos="1152" len="192"/>
          <note vol="197" pan="0" key="73" pos="1152" len="192"/>
          <note vol="197" pan="0" key="69" pos="1152" len="192"/>
          <note vol="197" pan="0" key="75" pos="1344" len="96"/>
          <note vol="197" pan="0" key="71" pos="1344" len="96"/>
          <note vol="197" pan="0" key="66" pos="1344" len="96"/>
          <note vol="197" pan="0" key="75" pos="1440" len="96"/>
          <note vol="197" pan="0" key="72" pos="1440" len="96"/>
          <note vol="197" pan="0" key="66" pos="1440" len="96"/>
          <note vol="197" pan="0" key="76" pos="1536" len="192"/>
          <note vol="197" pan="0" key="73" pos="1536" len="192"/>
          <note vol="197" pan="0" key="68" pos="1536" len="192"/>
          <note vol="197" pan="0" key="75" pos="1728" len="192"/>
          <note vol="197" pan="0" key="71" pos="1728" len="192"/>
          <note vol="197" pan="0" key="66" pos="1728" len="192"/>
          <note vol="197" pan="0" key="73" pos="1920" len="384"/>
          <note vol="197" pan="0" key="70" pos="1920" len="384"/>
          <note vol="197" pan="0" key="66" pos="1920" len="384"/>
          <note vol="197" pan="0" key="74" pos="2304" len="192"/>
          <note vol="197" pan="0" key="69" pos="2304" len="192"/>
          <note vol="197" pan="0" key="66" pos="2304" len="192"/>
          <note vol="197" pan="0" key="73" pos="2496" len="192"/>
          <note vol="197" pan="0" key="69" pos="2496" len="192"/>
          <note vol="197" pan="0" key="64" pos="2496" len="192"/>
          <note vol="197" pan="0" key="75" pos="2688" len="216"/>
          <note vol="197" pan="0" key="71" pos="2688" len="216"/>
          <note vol="197" pan="0" key="66" pos="2688" len="216"/>
          <note vol="197" pan="0" key="78" pos="2976" len="24"/>
          <note vol="197" pan="0" key="75" pos="2976" len="24"/>
          <note vol="197" pan="0" key="71" pos="2976" len="24"/>
        </pattern>
        <pattern type="1" name="" steps="16" muted="0" pos="11136">
          <note vol="197" pan="0" key="73" pos="0" len="384"/>
          <note vol="197" pan="0" key="68" pos="0" len="384"/>
          <note vol="197" pan="0" key="64" pos="0" len="384"/>
          <note vol="197" pan="0" key="74" pos="384" len="384"/>
          <note vol="197" pan="0" key="69" pos="384" len="384"/>
          <note vol="197" pan="0" key="66" pos="384" len="384"/>
        </pattern>
        <pattern type="1" name="" steps="16" muted="0" pos="11904">
          <note vol="197" pan="0" key="73" pos="0" len="384"/>
          <note vol="197" pan="0" key="68" pos="0" len="384"/>
          <note vol="197" pan="0" key="64" pos="0" len="384"/>
          <note vol="197" pan="0" key="74" pos="384" len="384"/>
          <note vol="197" pan="0" key="69" pos="384" len="384"/>
          <note vol="197" pan="0" key="66" pos="384" len="384"/>
        </pattern>
        <pattern type="1" name="" steps="16" muted="0" pos="18816">
          <note vol="193" pan="0" key="64" pos="0" len="384"/>
          <note vol="193" pan="0" key="61" pos="0" len="384"/>
          <note vol="193" pan="0" key="52" pos="0" len="384"/>
          <note vol="193" pan="0" key="63" pos="384" len="384"/>
          <note vol="193" pan="0" key="59" pos="384" len="384"/>
          <note vol="193" pan="0" key="56" pos="384" len="384"/>
          <note vol="193" pan="0" key="61" pos="768" len="384"/>
          <note vol="193" pan="0" key="56" pos="768" len="384"/>
          <note vol="193" pan="0" key="49" pos="768" len="384"/>
          <note vol="193" pan="0" key="59" pos="1152" len="384"/>
          <note vol="193" pan="0" key="57" pos="1152" len="384"/>
          <note vol="193" pan="0" key="49" pos="1152" len="384"/>
        </pattern>
        <pattern type="1" name="" steps="16" muted="0" pos="20352">
          <note vol="193" pan="0" key="64" pos="0" len="384"/>
          <note vol="193" pan="0" key="61" pos="0" len="384"/>
          <note vol="193" pan="0" key="56" pos="0" len="384"/>
          <note vol="193" pan="0" key="66" pos="384" len="384"/>
          <note vol="193" pan="0" key="62" pos="384" len="384"/>
          <note vol="193" pan="0" key="57" pos="384" len="384"/>
          <note vol="193" pan="0" key="66" pos="768" len="384"/>
          <note vol="193" pan="0" key="63" pos="768" len="384"/>
          <note vol="193" pan="0" key="58" pos="768" len="384"/>
          <note vol="193" pan="0" key="68" pos="1152" len="384"/>
          <note vol="193" pan="0" key="63" pos="1152" len="384"/>
          <note vol="193" pan="0" key="60" pos="1152" len="384"/>
        </pattern>
        <pattern type="1" name="" steps="16" muted="0" pos="23424">
          <note vol="200" pan="0" key="68" pos="0" len="192"/>
          <note vol="200" pan="0" key="59" pos="0" len="192"/>
          <note vol="200" pan="0" key="69" pos="192" len="192"/>
          <note vol="200" pan="0" key="61" pos="192" len="192"/>
          <note vol="200" pan="0" key="71" pos="384" len="192"/>
          <note vol="200" pan="0" key="64" pos="384" len="192"/>
          <note vol="200" pan="0" key="76" pos="576" len="192"/>
          <note vol="200" pan="0" key="68" pos="576" len="192"/>
          <note vol="200" pan="0" key="73" pos="768" len="384"/>
          <note vol="200" pan="0" key="66" pos="768" len="384"/>
          <note vol="200" pan="0" key="73" pos="1152" len="384"/>
          <note vol="200" pan="0" key="64" pos="1152" len="384"/>
          <note vol="200" pan="0" key="80" pos="1536" len="192"/>
          <note vol="200" pan="0" key="76" pos="1536" len="192"/>
          <note vol="200" pan="0" key="78" pos="1728" len="192"/>
          <note vol="200" pan="0" key="75" pos="1728" len="192"/>
          <note vol="200" pan="0" key="80" pos="1920" len="384"/>
          <note vol="200" pan="0" key="76" pos="1920" len="384"/>
          <note vol="200" pan="0" key="73" pos="1920" len="384"/>
          <note vol="200" pan="0" key="80" pos="2304" len="192"/>
          <note vol="200" pan="0" key="73" pos="2304" len="192"/>
          <note vol="200" pan="0" key="71" pos="2304" len="192"/>
          <note vol="200" pan="0" key="78" pos="2496" len="192"/>
          <note vol="200" pan="0" key="75" pos="2496" len="192"/>
          <note vol="200" pan="0" key="71" pos="2496" len="192"/>
          <note vol="200" pan="0" key="73" pos="2688" len="384"/>
          <note vol="200" pan="0" key="70" pos="2688" len="384"/>
          <note vol="200" pan="0" key="68" pos="2688" len="384"/>
          <note vol="200" pan="0" key="80" pos="3072" len="192"/>
          <note vol="200" pan="0" key="71" pos="3072" len="192"/>
          <note vol="200" pan="0" key="81" pos="3264" len="192"/>
          <note vol="200" pan="0" key="73" pos="3264" len="192"/>
          <note vol="200" pan="0" key="83" pos="3456" len="192"/>
          <note vol="200" pan="0" key="76" pos="3456" len="192"/>
          <note vol="200" pan="0" key="88" pos="3648" len="192"/>
          <note vol="200" pan="0" key="80" pos="3648" len="192"/>
          <note vol="200" pan="0" key="85" pos="3840" len="384"/>
          <note vol="200" pan="0" key="78" pos="3840" len="384"/>
          <note vol="200" pan="0" key="85" pos="4224" len="384"/>
          <note vol="200" pan="0" key="76" pos="4224" len="384"/>
          <note vol="200" pan="0" key="80" pos="4608" len="384"/>
          <note vol="200" pan="0" key="73" pos="4608" len="384"/>
          <note vol="200" pan="0" key="61" pos="4608" len="48"/>
          <note vol="200" pan="0" key="57" pos="4656" len="48"/>
          <note vol="200" pan="0" key="59" pos="4704" len="48"/>
          <note vol="200" pan="0" key="61" pos="4752" len="48"/>
          <note vol="200" pan="0" key="63" pos="4800" len="48"/>
          <note vol="200" pan="0" key="64" pos="4848" len="48"/>
          <note vol="200" pan="0" key="63" pos="4896" len="48"/>
          <note vol="200" pan="0" key="59" pos="4944" len="48"/>
          <note vol="200" pan="0" key="80" pos="4992" len="384"/>
          <note vol="200" pan="0" key="73" pos="4992" len="384"/>
          <note vol="200" pan="0" key="61" pos="4992" len="48"/>
          <note vol="200" pan="0" key="59" pos="5040" len="48"/>
          <note vol="200" pan="0" key="61" pos="5088" len="48"/>
          <note vol="200" pan="0" key="63" pos="5136" len="48"/>
          <note vol="200" pan="0" key="68" pos="5184" len="192"/>
        </pattern>
        <pattern type="1" name="" steps="16" muted="0" pos="21888">
          <note vol="200" pan="0" key="68" pos="0" len="192"/>
          <note vol="200" pan="0" key="64" pos="0" len="192"/>
          <note vol="200" pan="0" key="66" pos="192" len="192"/>
          <note vol="200" pan="0" key="63" pos="192" len="192"/>
          <note vol="200" pan="0" key="68" pos="384" len="384"/>
          <note vol="200" pan="0" key="64" pos="384" len="384"/>
          <note vol="200" pan="0" key="61" pos="384" len="384"/>
          <note vol="200" pan="0" key="68" pos="768" len="192"/>
          <note vol="200" pan="0" key="61" pos="768" len="192"/>
          <note vol="200" pan="0" key="59" pos="768" len="192"/>
          <note vol="200" pan="0" key="66" pos="960" len="192"/>
          <note vol="200" pan="0" key="63" pos="960" len="192"/>
          <note vol="200" pan="0" key="59" pos="960" len="192"/>
          <note vol="200" pan="0" key="61" pos="1152" len="384"/>
          <note vol="200" pan="0" key="59" pos="1152" len="192"/>
          <note vol="200" pan="0" key="56" pos="1152" len="384"/>
        </pattern>
        <pattern type="1" name="" steps="16" muted="0" pos="3264">
          <note vol="193" pan="0" key="69" pos="0" len="192"/>
          <note vol="193" pan="0" key="64" pos="0" len="192"/>
        </pattern>
        <pattern type="1" name="" steps="16" muted="0" pos="3456">
          <note vol="193" pan="0" key="68" pos="0" len="192"/>
          <note vol="193" pan="0" key="64" pos="0" len="192"/>
          <note vol="193" pan="0" key="61" pos="0" len="192"/>
          <note vol="193" pan="0" key="68" pos="192" len="192"/>
          <note vol="193" pan="0" key="63" pos="192" len="192"/>
          <note vol="193" pan="0" key="59" pos="192" len="192"/>
          <note vol="193" pan="0" key="69" pos="384" len="192"/>
          <note vol="193" pan="0" key="64" pos="384" len="192"/>
          <note vol="193" pan="0" key="61" pos="384" len="192"/>
          <note vol="193" pan="0" key="71" pos="576" len="192"/>
          <note vol="193" pan="0" key="66" pos="576" len="192"/>
          <note vol="193" pan="0" key="63" pos="576" len="192"/>
          <note vol="193" pan="0" key="73" pos="768" len="192"/>
          <note vol="193" pan="0" key="69" pos="768" len="192"/>
          <note vol="193" pan="0" key="66" pos="768" len="192"/>
          <note vol="193" pan="0" key="75" pos="960" len="192"/>
          <note vol="193" pan="0" key="71" pos="960" len="192"/>
          <note vol="193" pan="0" key="68" pos="960" len="192"/>
          <note vol="193" pan="0" key="76" pos="1152" len="192"/>
          <note vol="193" pan="0" key="73" pos="1152" len="192"/>
          <note vol="193" pan="0" key="69" pos="1152" len="192"/>
          <note vol="193" pan="0" key="75" pos="1344" len="96"/>
          <note vol="193" pan="0" key="71" pos="1344" len="96"/>
          <note vol="193" pan="0" key="66" pos="1344" len="96"/>
          <note vol="193" pan="0" key="75" pos="1440" len="48"/>
          <note vol="193" pan="0" key="71" pos="1440" len="48"/>
          <note vol="193" pan="0" key="68" pos="1440" len="48"/>
          <note vol="193" pan="0" key="75" pos="1488" len="48"/>
          <note vol="193" pan="0" key="71" pos="1488" len="48"/>
          <note vol="193" pan="0" key="66" pos="1488" len="48"/>
        </pattern>
        <pattern type="0" name="" steps="16" muted="0" pos="4992"/>
        <pattern type="1" name="" steps="16" muted="0" pos="28800">
          <note vol="200" pan="0" key="56" pos="0" len="192"/>
          <note vol="200" pan="0" key="52" pos="0" len="192"/>
          <note vol="200" pan="0" key="57" pos="192" len="192"/>
          <note vol="200" pan="0" key="54" pos="192" len="192"/>
          <note vol="200" pan="0" key="59" pos="384" len="192"/>
          <note vol="200" pan="0" key="56" pos="384" len="192"/>
          <note vol="200" pan="0" key="54" pos="576" len="192"/>
          <note vol="200" pan="0" key="49" pos="576" len="192"/>
          <note vol="200" pan="0" key="56" pos="768" len="192"/>
          <note vol="200" pan="0" key="52" pos="768" len="192"/>
          <note vol="200" pan="0" key="57" pos="960" len="192"/>
          <note vol="200" pan="0" key="54" pos="960" len="192"/>
          <note vol="200" pan="0" key="59" pos="1152" len="192"/>
          <note vol="200" pan="0" key="56" pos="1152" len="192"/>
          <note vol="200" pan="0" key="54" pos="1344" len="192"/>
          <note vol="200" pan="0" key="51" pos="1344" len="192"/>
          <note vol="200" pan="0" key="54" pos="1536" len="192"/>
          <note vol="200" pan="0" key="49" pos="1536" len="192"/>
          <note vol="200" pan="0" key="61" pos="1728" len="192"/>
          <note vol="200" pan="0" key="56" pos="1728" len="192"/>
          <note vol="200" pan="0" key="59" pos="1920" len="192"/>
          <note vol="200" pan="0" key="54" pos="1920" len="192"/>
          <note vol="200" pan="0" key="57" pos="2112" len="192"/>
          <note vol="200" pan="0" key="52" pos="2112" len="192"/>
          <note vol="200" pan="0" key="56" pos="2304" len="384"/>
          <note vol="200" pan="0" key="51" pos="2304" len="384"/>
          <note vol="200" pan="0" key="56" pos="2688" len="384"/>
          <note vol="200" pan="0" key="47" pos="2688" len="384"/>
          <note vol="200" pan="0" key="56" pos="3072" len="192"/>
          <note vol="200" pan="0" key="52" pos="3072" len="192"/>
          <note vol="200" pan="0" key="57" pos="3264" len="192"/>
          <note vol="200" pan="0" key="54" pos="3264" len="192"/>
          <note vol="200" pan="0" key="59" pos="3456" len="192"/>
          <note vol="200" pan="0" key="56" pos="3456" len="192"/>
          <note vol="200" pan="0" key="54" pos="3648" len="192"/>
          <note vol="200" pan="0" key="49" pos="3648" len="192"/>
          <note vol="200" pan="0" key="56" pos="3840" len="192"/>
          <note vol="200" pan="0" key="52" pos="3840" len="192"/>
          <note vol="200" pan="0" key="57" pos="4032" len="192"/>
          <note vol="200" pan="0" key="54" pos="4032" len="192"/>
          <note vol="200" pan="0" key="59" pos="4224" len="192"/>
          <note vol="200" pan="0" key="56" pos="4224" len="192"/>
          <note vol="200" pan="0" key="54" pos="4416" len="192"/>
          <note vol="200" pan="0" key="51" pos="4416" len="192"/>
          <note vol="200" pan="0" key="54" pos="4608" len="192"/>
          <note vol="200" pan="0" key="49" pos="4608" len="192"/>
          <note vol="200" pan="0" key="61" pos="4800" len="192"/>
          <note vol="200" pan="0" key="56" pos="4800" len="192"/>
          <note vol="200" pan="0" key="59" pos="4992" len="192"/>
          <note vol="200" pan="0" key="54" pos="4992" len="192"/>
          <note vol="200" pan="0" key="57" pos="5184" len="192"/>
          <note vol="200" pan="0" key="52" pos="5184" len="192"/>
          <note vol="200" pan="0" key="55" pos="5376" len="384"/>
          <note vol="200" pan="0" key="50" pos="5376" len="384"/>
          <note vol="200" pan="0" key="56" pos="5760" len="384"/>
          <note vol="200" pan="0" key="47" pos="5760" len="384"/>
        </pattern>
        <pattern type="1" name="" steps="16" muted="0" pos="14208">
          <note vol="197" pan="0" key="61" pos="0" len="24"/>
          <note vol="197" pan="0" key="57" pos="0" len="24"/>
          <note vol="197" pan="0" key="61" pos="48" len="24"/>
          <note vol="197" pan="0" key="57" pos="48" len="24"/>
          <note vol="197" pan="0" key="61" pos="96" len="24"/>
          <note vol="197" pan="0" key="57" pos="96" len="24"/>
          <note vol="197" pan="0" key="61" pos="144" len="24"/>
          <note vol="197" pan="0" key="57" pos="144" len="24"/>
          <note vol="197" pan="0" key="61" pos="192" len="24"/>
          <note vol="197" pan="0" key="57" pos="192" len="24"/>
          <note vol="197" pan="0" key="61" pos="240" len="24"/>
          <note vol="197" pan="0" key="57" pos="240" len="24"/>
          <note vol="197" pan="0" key="61" pos="288" len="24"/>
          <note vol="197" pan="0" key="57" pos="288" len="24"/>
          <note vol="197" pan="0" key="61" pos="336" len="24"/>
          <note vol="197" pan="0" key="57" pos="336" len="24"/>
          <note vol="197" pan="0" key="61" pos="384" len="24"/>
          <note vol="197" pan="0" key="56" pos="384" len="24"/>
          <note vol="197" pan="0" key="52" pos="384" len="24"/>
          <note vol="197" pan="0" key="61" pos="432" len="24"/>
          <note vol="197" pan="0" key="56" pos="432" len="24"/>
          <note vol="197" pan="0" key="52" pos="432" len="24"/>
          <note vol="197" pan="0" key="61" pos="480" len="24"/>
          <note vol="197" pan="0" key="56" pos="480" len="24"/>
          <note vol="197" pan="0" key="52" pos="480" len="24"/>
          <note vol="197" pan="0" key="61" pos="528" len="24"/>
          <note vol="197" pan="0" key="56" pos="528" len="24"/>
          <note vol="197" pan="0" key="52" pos="528" len="24"/>
          <note vol="197" pan="0" key="61" pos="576" len="24"/>
          <note vol="197" pan="0" key="56" pos="576" len="24"/>
          <note vol="197" pan="0" key="51" pos="576" len="24"/>
          <note vol="197" pan="0" key="61" pos="624" len="24"/>
          <note vol="197" pan="0" key="56" pos="624" len="24"/>
          <note vol="197" pan="0" key="51" pos="624" len="24"/>
          <note vol="197" pan="0" key="61" pos="672" len="24"/>
          <note vol="197" pan="0" key="56" pos="672" len="24"/>
          <note vol="197" pan="0" key="51" pos="672" len="24"/>
          <note vol="197" pan="0" key="61" pos="720" len="24"/>
          <note vol="197" pan="0" key="56" pos="720" len="24"/>
          <note vol="197" pan="0" key="51" pos="720" len="24"/>
        </pattern>
        <pattern type="1" name="" steps="16" muted="0" pos="34944">
          <note vol="193" pan="0" key="68" pos="0" len="192"/>
          <note vol="193" pan="0" key="64" pos="0" len="192"/>
          <note vol="193" pan="0" key="61" pos="0" len="192"/>
          <note vol="193" pan="0" key="68" pos="192" len="192"/>
          <note vol="193" pan="0" key="63" pos="192" len="192"/>
          <note vol="193" pan="0" key="59" pos="192" len="192"/>
          <note vol="193" pan="0" key="69" pos="384" len="192"/>
          <note vol="193" pan="0" key="64" pos="384" len="192"/>
          <note vol="193" pan="0" key="61" pos="384" len="192"/>
          <note vol="193" pan="0" key="71" pos="576" len="192"/>
          <note vol="193" pan="0" key="66" pos="576" len="192"/>
          <note vol="193" pan="0" key="63" pos="576" len="192"/>
          <note vol="193" pan="0" key="73" pos="768" len="192"/>
          <note vol="193" pan="0" key="69" pos="768" len="192"/>
          <note vol="193" pan="0" key="66" pos="768" len="192"/>
          <note vol="193" pan="0" key="75" pos="960" len="192"/>
          <note vol="193" pan="0" key="71" pos="960" len="192"/>
          <note vol="193" pan="0" key="68" pos="960" len="192"/>
          <note vol="193" pan="0" key="76" pos="1152" len="192"/>
          <note vol="193" pan="0" key="73" pos="1152" len="192"/>
          <note vol="193" pan="0" key="69" pos="1152" len="192"/>
          <note vol="193" pan="0" key="75" pos="1344" len="96"/>
          <note vol="193" pan="0" key="71" pos="1344" len="96"/>
          <note vol="193" pan="0" key="66" pos="1344" len="96"/>
          <note vol="193" pan="0" key="75" pos="1440" len="48"/>
          <note vol="193" pan="0" key="71" pos="1440" len="48"/>
          <note vol="193" pan="0" key="68" pos="1440" len="48"/>
          <note vol="193" pan="0" key="75" pos="1488" len="48"/>
          <note vol="193" pan="0" key="71" pos="1488" len="48"/>
          <note vol="193" pan="0" key="66" pos="1488" len="48"/>
        </pattern>
        <pattern type="1" name="" steps="16" muted="0" pos="39552">
          <note vol="197" pan="0" key="68" pos="0" len="192"/>
          <note vol="197" pan="0" key="64" pos="0" len="192"/>
          <note vol="197" pan="0" key="61" pos="0" len="192"/>
          <note vol="197" pan="0" key="68" pos="192" len="192"/>
          <note vol="197" pan="0" key="63" pos="192" len="192"/>
          <note vol="197" pan="0" key="59" pos="192" len="192"/>
          <note vol="197" pan="0" key="69" pos="384" len="192"/>
          <note vol="197" pan="0" key="64" pos="384" len="192"/>
          <note vol="197" pan="0" key="61" pos="384" len="192"/>
          <note vol="197" pan="0" key="71" pos="576" len="192"/>
          <note vol="197" pan="0" key="66" pos="576" len="192"/>
          <note vol="197" pan="0" key="63" pos="576" len="192"/>
          <note vol="197" pan="0" key="73" pos="768" len="192"/>
          <note vol="197" pan="0" key="69" pos="768" len="192"/>
          <note vol="197" pan="0" key="66" pos="768" len="192"/>
          <note vol="197" pan="0" key="75" pos="960" len="192"/>
          <note vol="197" pan="0" key="71" pos="960" len="192"/>
          <note vol="197" pan="0" key="68" pos="960" len="192"/>
          <note vol="197" pan="0" key="76" pos="1152" len="192"/>
          <note vol="197" pan="0" key="73" pos="1152" len="192"/>
          <note vol="197" pan="0" key="69" pos="1152" len="192"/>
          <note vol="197" pan="0" key="75" pos="1344" len="96"/>
          <note vol="197" pan="0" key="71" pos="1344" len="96"/>
          <note vol="197" pan="0" key="66" pos="1344" len="96"/>
          <note vol="197" pan="0" key="75" pos="1440" len="96"/>
          <note vol="197" pan="0" key="72" pos="1440" len="96"/>
          <note vol="197" pan="0" key="66" pos="1440" len="96"/>
          <note vol="197" pan="0" key="76" pos="1536" len="192"/>
          <note vol="197" pan="0" key="73" pos="1536" len="192"/>
          <note vol="197" pan="0" key="68" pos="1536" len="192"/>
          <note vol="197" pan="0" key="75" pos="1728" len="192"/>
          <note vol="197" pan="0" key="71" pos="1728" len="192"/>
          <note vol="197" pan="0" key="66" pos="1728" len="192"/>
          <note vol="197" pan="0" key="73" pos="1920" len="384"/>
          <note vol="197" pan="0" key="70" pos="1920" len="384"/>
          <note vol="197" pan="0" key="66" pos="1920" len="384"/>
          <note vol="197" pan="0" key="74" pos="2304" len="192"/>
          <note vol="197" pan="0" key="69" pos="2304" len="192"/>
          <note vol="197" pan="0" key="66" pos="2304" len="192"/>
          <note vol="197" pan="0" key="73" pos="2496" len="192"/>
          <note vol="197" pan="0" key="69" pos="2496" len="192"/>
          <note vol="197" pan="0" key="64" pos="2496" len="192"/>
          <note vol="197" pan="0" key="75" pos="2688" len="384"/>
          <note vol="197" pan="0" key="71" pos="2688" len="384"/>
          <note vol="197" pan="0" key="66" pos="2688" len="384"/>
        </pattern>
        <pattern type="1" name="" steps="16" muted="0" pos="44160">
          <note vol="197" pan="0" key="70" pos="0" len="192"/>
          <note vol="197" pan="0" key="66" pos="0" len="192"/>
          <note vol="197" pan="0" key="63" pos="0" len="192"/>
          <note vol="197" pan="0" key="70" pos="192" len="192"/>
          <note vol="197" pan="0" key="65" pos="192" len="192"/>
          <note vol="197" pan="0" key="61" pos="192" len="192"/>
          <note vol="197" pan="0" key="71" pos="384" len="192"/>
          <note vol="197" pan="0" key="66" pos="384" len="192"/>
          <note vol="197" pan="0" key="63" pos="384" len="192"/>
          <note vol="197" pan="0" key="73" pos="576" len="192"/>
          <note vol="197" pan="0" key="68" pos="576" len="192"/>
          <note vol="197" pan="0" key="65" pos="576" len="192"/>
          <note vol="197" pan="0" key="75" pos="768" len="192"/>
          <note vol="197" pan="0" key="71" pos="768" len="192"/>
          <note vol="197" pan="0" key="68" pos="768" len="192"/>
          <note vol="197" pan="0" key="77" pos="960" len="192"/>
          <note vol="197" pan="0" key="73" pos="960" len="192"/>
          <note vol="197" pan="0" key="70" pos="960" len="192"/>
          <note vol="197" pan="0" key="78" pos="1152" len="192"/>
          <note vol="197" pan="0" key="75" pos="1152" len="192"/>
          <note vol="197" pan="0" key="71" pos="1152" len="192"/>
          <note vol="197" pan="0" key="77" pos="1344" len="96"/>
          <note vol="197" pan="0" key="73" pos="1344" len="96"/>
          <note vol="197" pan="0" key="68" pos="1344" len="96"/>
          <note vol="197" pan="0" key="77" pos="1440" len="96"/>
          <note vol="197" pan="0" key="74" pos="1440" len="96"/>
          <note vol="197" pan="0" key="68" pos="1440" len="96"/>
          <note vol="197" pan="0" key="78" pos="1536" len="192"/>
          <note vol="197" pan="0" key="75" pos="1536" len="192"/>
          <note vol="197" pan="0" key="70" pos="1536" len="192"/>
          <note vol="197" pan="0" key="77" pos="1728" len="192"/>
          <note vol="197" pan="0" key="73" pos="1728" len="192"/>
          <note vol="197" pan="0" key="68" pos="1728" len="192"/>
          <note vol="197" pan="0" key="75" pos="1920" len="384"/>
          <note vol="197" pan="0" key="72" pos="1920" len="384"/>
          <note vol="197" pan="0" key="68" pos="1920" len="384"/>
          <note vol="197" pan="0" key="76" pos="2304" len="192"/>
          <note vol="197" pan="0" key="71" pos="2304" len="192"/>
          <note vol="197" pan="0" key="68" pos="2304" len="192"/>
          <note vol="197" pan="0" key="75" pos="2496" len="192"/>
          <note vol="197" pan="0" key="71" pos="2496" len="192"/>
          <note vol="197" pan="0" key="66" pos="2496" len="192"/>
          <note vol="197" pan="0" key="77" pos="2688" len="192"/>
          <note vol="197" pan="0" key="73" pos="2688" len="192"/>
          <note vol="197" pan="0" key="68" pos="2688" len="192"/>
          <note vol="195" pan="0" key="73" pos="2880" len="48"/>
          <note vol="195" pan="0" key="71" pos="2928" len="48"/>
          <note vol="195" pan="0" key="70" pos="2976" len="48"/>
          <note vol="195" pan="0" key="68" pos="3024" len="48"/>
        </pattern>
        <pattern type="1" name="" steps="16" muted="0" pos="43776">
          <note vol="197" pan="0" key="64" pos="96" len="96"/>
          <note vol="197" pan="0" key="61" pos="96" len="96"/>
          <note vol="197" pan="0" key="57" pos="96" len="96"/>
          <note vol="197" pan="0" key="66" pos="192" len="96"/>
          <note vol="197" pan="0" key="63" pos="192" len="96"/>
          <note vol="197" pan="0" key="59" pos="192" len="96"/>
          <note vol="197" pan="0" key="68" pos="288" len="96"/>
          <note vol="197" pan="0" key="65" pos="288" len="96"/>
          <note vol="197" pan="0" key="61" pos="288" len="96"/>
        </pattern>
        <pattern type="1" name="" steps="16" muted="0" pos="47232">
          <note vol="197" pan="0" key="58" pos="0" len="192"/>
          <note vol="197" pan="0" key="54" pos="0" len="192"/>
          <note vol="197" pan="0" key="51" pos="0" len="192"/>
          <note vol="197" pan="0" key="58" pos="192" len="192"/>
          <note vol="197" pan="0" key="53" pos="192" len="192"/>
          <note vol="197" pan="0" key="49" pos="192" len="192"/>
          <note vol="197" pan="0" key="59" pos="384" len="192"/>
          <note vol="197" pan="0" key="54" pos="384" len="192"/>
          <note vol="197" pan="0" key="51" pos="384" len="192"/>
          <note vol="197" pan="0" key="61" pos="576" len="192"/>
          <note vol="197" pan="0" key="56" pos="576" len="192"/>
          <note vol="197" pan="0" key="53" pos="576" len="192"/>
          <note vol="197" pan="0" key="63" pos="768" len="192"/>
          <note vol="197" pan="0" key="59" pos="768" len="192"/>
          <note vol="197" pan="0" key="56" pos="768" len="192"/>
          <note vol="197" pan="0" key="65" pos="960" len="192"/>
          <note vol="197" pan="0" key="61" pos="960" len="192"/>
          <note vol="197" pan="0" key="58" pos="960" len="192"/>
          <note vol="197" pan="0" key="66" pos="1152" len="192"/>
          <note vol="197" pan="0" key="63" pos="1152" len="192"/>
          <note vol="197" pan="0" key="59" pos="1152" len="192"/>
          <note vol="197" pan="0" key="65" pos="1344" len="96"/>
          <note vol="197" pan="0" key="61" pos="1344" len="96"/>
          <note vol="197" pan="0" key="56" pos="1344" len="96"/>
          <note vol="197" pan="0" key="65" pos="1440" len="96"/>
          <note vol="197" pan="0" key="62" pos="1440" len="96"/>
          <note vol="197" pan="0" key="56" pos="1440" len="96"/>
          <note vol="197" pan="0" key="66" pos="1536" len="192"/>
          <note vol="197" pan="0" key="63" pos="1536" len="192"/>
          <note vol="197" pan="0" key="58" pos="1536" len="192"/>
          <note vol="197" pan="0" key="65" pos="1728" len="192"/>
          <note vol="197" pan="0" key="61" pos="1728" len="192"/>
          <note vol="197" pan="0" key="56" pos="1728" len="192"/>
          <note vol="197" pan="0" key="63" pos="1920" len="384"/>
          <note vol="197" pan="0" key="60" pos="1920" len="384"/>
          <note vol="197" pan="0" key="56" pos="1920" len="384"/>
          <note vol="197" pan="0" key="64" pos="2304" len="192"/>
          <note vol="197" pan="0" key="59" pos="2304" len="192"/>
          <note vol="197" pan="0" key="56" pos="2304" len="192"/>
          <note vol="197" pan="0" key="63" pos="2496" len="192"/>
          <note vol="197" pan="0" key="59" pos="2496" len="192"/>
          <note vol="197" pan="0" key="54" pos="2496" len="192"/>
          <note vol="197" pan="0" key="65" pos="2688" len="192"/>
          <note vol="197" pan="0" key="61" pos="2688" len="192"/>
          <note vol="197" pan="0" key="56" pos="2688" len="192"/>
          <note vol="197" pan="0" key="65" pos="2880" len="96"/>
          <note vol="197" pan="0" key="61" pos="2880" len="96"/>
          <note vol="197" pan="0" key="56" pos="2880" len="96"/>
          <note vol="197" pan="0" key="65" pos="2976" len="96"/>
          <note vol="197" pan="0" key="61" pos="2976" len="96"/>
          <note vol="197" pan="0" key="58" pos="2976" len="96"/>
        </pattern>
        <pattern type="1" name="" steps="16" muted="0" pos="50304">
          <note vol="197" pan="0" key="63" pos="0" len="192"/>
          <note vol="197" pan="0" key="58" pos="0" len="192"/>
          <note vol="197" pan="0" key="54" pos="0" len="192"/>
          <note vol="197" pan="0" key="61" pos="192" len="192"/>
          <note vol="197" pan="0" key="56" pos="192" len="192"/>
          <note vol="197" pan="0" key="53" pos="192" len="192"/>
          <note vol="197" pan="0" key="58" pos="384" len="384"/>
          <note vol="197" pan="0" key="54" pos="384" len="384"/>
          <note vol="197" pan="0" key="51" pos="384" len="384"/>
        </pattern>
        <pattern type="1" name="" steps="16" muted="0" pos="51072">
          <note vol="197" pan="0" key="66" pos="0" len="192"/>
          <note vol="197" pan="0" key="63" pos="0" len="192"/>
          <note vol="197" pan="0" key="59" pos="0" len="192"/>
          <note vol="197" pan="0" key="65" pos="192" len="192"/>
          <note vol="197" pan="0" key="61" pos="192" len="192"/>
          <note vol="197" pan="0" key="56" pos="192" len="192"/>
          <note vol="197" pan="0" key="66" pos="384" len="384"/>
          <note vol="197" pan="0" key="63" pos="384" len="384"/>
          <note vol="197" pan="0" key="58" pos="384" len="384"/>
        </pattern>
        <pattern type="1" name="" steps="16" muted="0" pos="51840">
          <note vol="197" pan="0" key="64" pos="0" len="384"/>
          <note vol="197" pan="0" key="59" pos="0" len="384"/>
          <note vol="197" pan="0" key="56" pos="0" len="384"/>
          <note vol="197" pan="0" key="63" pos="384" len="384"/>
          <note vol="197" pan="0" key="58" pos="384" len="384"/>
          <note vol="197" pan="0" key="54" pos="384" len="384"/>
        </pattern>
        <pattern type="1" name="" steps="16" muted="0" pos="52608">
          <note vol="197" pan="0" key="63" pos="0" len="384"/>
          <note vol="197" pan="0" key="60" pos="0" len="384"/>
          <note vol="197" pan="0" key="56" pos="0" len="384"/>
        </pattern>
        <pattern type="1" name="" steps="16" muted="0" pos="53376">
          <note vol="197" pan="0" key="63" pos="0" len="192"/>
          <note vol="197" pan="0" key="59" pos="0" len="192"/>
          <note vol="197" pan="0" key="54" pos="0" len="192"/>
          <note vol="197" pan="0" key="61" pos="192" len="192"/>
          <note vol="197" pan="0" key="56" pos="192" len="192"/>
          <note vol="197" pan="0" key="53" pos="192" len="192"/>
          <note vol="197" pan="0" key="58" pos="384" len="384"/>
          <note vol="197" pan="0" key="54" pos="384" len="384"/>
          <note vol="197" pan="0" key="51" pos="384" len="384"/>
        </pattern>
        <pattern type="1" name="" steps="16" muted="0" pos="54144">
          <note vol="197" pan="0" key="65" pos="0" len="384"/>
          <note vol="197" pan="0" key="61" pos="0" len="384"/>
          <note vol="197" pan="0" key="56" pos="0" len="384"/>
          <note vol="197" pan="0" key="63" pos="384" len="384"/>
          <note vol="197" pan="0" key="60" pos="384" len="384"/>
          <note vol="197" pan="0" key="56" pos="384" len="384"/>
        </pattern>
        <pattern type="1" name="" steps="16" muted="0" pos="54912">
          <note vol="197" pan="0" key="63" pos="0" len="192"/>
          <note vol="197" pan="0" key="59" pos="0" len="192"/>
          <note vol="197" pan="0" key="54" pos="0" len="192"/>
          <note vol="197" pan="0" key="65" pos="192" len="192"/>
          <note vol="197" pan="0" key="61" pos="192" len="192"/>
          <note vol="197" pan="0" key="56" pos="192" len="192"/>
          <note vol="197" pan="0" key="66" pos="384" len="192"/>
          <note vol="197" pan="0" key="63" pos="384" len="384"/>
          <note vol="197" pan="0" key="58" pos="384" len="384"/>
          <note vol="197" pan="0" key="70" pos="576" len="96"/>
          <note vol="197" pan="0" key="68" pos="672" len="96"/>
        </pattern>
        <pattern type="1" name="" steps="16" muted="0" pos="55680">
          <note vol="197" pan="0" key="68" pos="0" len="192"/>
          <note vol="197" pan="0" key="63" pos="0" len="192"/>
          <note vol="197" pan="0" key="60" pos="0" len="192"/>
          <note vol="197" pan="0" key="63" pos="192" len="168"/>
          <note vol="197" pan="0" key="60" pos="192" len="192"/>
          <note vol="197" pan="0" key="56" pos="192" len="192"/>
          <note vol="197" pan="0" key="65" pos="360" len="24"/>
          <note vol="197" pan="0" key="66" pos="384" len="192"/>
          <note vol="197" pan="0" key="63" pos="384" len="192"/>
          <note vol="197" pan="0" key="59" pos="384" len="192"/>
          <note vol="197" pan="0" key="68" pos="576" len="96"/>
          <note vol="197" pan="0" key="65" pos="576" len="96"/>
          <note vol="197" pan="0" key="61" pos="576" len="96"/>
          <note vol="197" pan="0" key="73" pos="672" len="96"/>
          <note vol="197" pan="0" key="68" pos="672" len="96"/>
          <note vol="197" pan="0" key="65" pos="672" len="96"/>
        </pattern>
        <pattern type="1" name="" steps="16" muted="0" pos="52992">
          <note vol="197" pan="0" key="63" pos="0" len="384"/>
          <note vol="197" pan="0" key="60" pos="0" len="384"/>
          <note vol="197" pan="0" key="56" pos="0" len="384"/>
        </pattern>
        <pattern type="1" name="" steps="16" muted="0" pos="6528">
          <note vol="197" pan="0" key="61" pos="0" len="24"/>
          <note vol="197" pan="0" key="57" pos="0" len="24"/>
          <note vol="197" pan="0" key="61" pos="48" len="24"/>
          <note vol="197" pan="0" key="57" pos="48" len="24"/>
          <note vol="197" pan="0" key="61" pos="96" len="24"/>
          <note vol="197" pan="0" key="57" pos="96" len="24"/>
          <note vol="197" pan="0" key="61" pos="144" len="24"/>
          <note vol="197" pan="0" key="57" pos="144" len="24"/>
          <note vol="197" pan="0" key="61" pos="192" len="24"/>
          <note vol="197" pan="0" key="57" pos="192" len="24"/>
          <note vol="197" pan="0" key="61" pos="240" len="24"/>
          <note vol="197" pan="0" key="57" pos="240" len="24"/>
          <note vol="197" pan="0" key="61" pos="288" len="24"/>
          <note vol="197" pan="0" key="57" pos="288" len="24"/>
          <note vol="197" pan="0" key="61" pos="336" len="24"/>
          <note vol="197" pan="0" key="57" pos="336" len="24"/>
          <note vol="197" pan="0" key="61" pos="384" len="24"/>
          <note vol="197" pan="0" key="56" pos="384" len="24"/>
          <note vol="197" pan="0" key="52" pos="384" len="24"/>
          <note vol="197" pan="0" key="61" pos="432" len="24"/>
          <note vol="197" pan="0" key="56" pos="432" len="24"/>
          <note vol="197" pan="0" key="52" pos="432" len="24"/>
          <note vol="197" pan="0" key="61" pos="480" len="24"/>
          <note vol="197" pan="0" key="56" pos="480" len="24"/>
          <note vol="197" pan="0" key="52" pos="480" len="24"/>
          <note vol="197" pan="0" key="61" pos="528" len="24"/>
          <note vol="197" pan="0" key="56" pos="528" len="24"/>
          <note vol="197" pan="0" key="52" pos="528" len="24"/>
          <note vol="197" pan="0" key="61" pos="576" len="24"/>
          <note vol="197" pan="0" key="56" pos="576" len="24"/>
          <note vol="197" pan="0" key="51" pos="576" len="24"/>
          <note vol="197" pan="0" key="61" pos="624" len="24"/>
          <note vol="197" pan="0" key="56" pos="624" len="24"/>
          <note vol="197" pan="0" key="51" pos="624" len="24"/>
          <note vol="197" pan="0" key="61" pos="672" len="24"/>
          <note vol="197" pan="0" key="56" pos="672" len="24"/>
          <note vol="197" pan="0" key="51" pos="672" len="24"/>
          <note vol="197" pan="0" key="61" pos="720" len="24"/>
          <note vol="197" pan="0" key="56" pos="720" len="24"/>
          <note vol="197" pan="0" key="51" pos="720" len="24"/>
        </pattern>
        <pattern type="1" name="" steps="16" muted="0" pos="7296">
          <note vol="144" pan="0" key="61" pos="0" len="384"/>
          <note vol="144" pan="0" key="54" pos="0" len="384"/>
          <note vol="144" pan="0" key="58" pos="384" len="192"/>
          <note vol="144" pan="0" key="51" pos="384" len="192"/>
          <note vol="144" pan="0" key="56" pos="576" len="24"/>
          <note vol="144" pan="0" key="44" pos="576" len="24"/>
          <note vol="144" pan="0" key="60" pos="600" len="24"/>
          <note vol="144" pan="0" key="48" pos="600" len="24"/>
          <note vol="144" pan="0" key="63" pos="624" len="24"/>
          <note vol="144" pan="0" key="51" pos="624" len="24"/>
          <note vol="144" pan="0" key="66" pos="648" len="24"/>
          <note vol="144" pan="0" key="54" pos="648" len="24"/>
          <note vol="144" pan="0" key="69" pos="672" len="24"/>
          <note vol="144" pan="0" key="57" pos="672" len="24"/>
          <note vol="144" pan="0" key="72" pos="696" len="24"/>
          <note vol="144" pan="0" key="60" pos="696" len="24"/>
          <note vol="144" pan="0" key="75" pos="720" len="24"/>
          <note vol="144" pan="0" key="63" pos="720" len="24"/>
          <note vol="144" pan="0" key="78" pos="744" len="24"/>
          <note vol="144" pan="0" key="66" pos="744" len="24"/>
        </pattern>
        <pattern type="1" name="" steps="16" muted="0" pos="14976">
          <note vol="144" pan="0" key="61" pos="0" len="384"/>
          <note vol="144" pan="0" key="54" pos="0" len="384"/>
          <note vol="144" pan="0" key="58" pos="384" len="192"/>
          <note vol="144" pan="0" key="51" pos="384" len="192"/>
          <note vol="144" pan="0" key="56" pos="576" len="24"/>
          <note vol="144" pan="0" key="44" pos="576" len="24"/>
          <note vol="144" pan="0" key="60" pos="600" len="24"/>
          <note vol="144" pan="0" key="48" pos="600" len="24"/>
          <note vol="144" pan="0" key="63" pos="624" len="24"/>
          <note vol="144" pan="0" key="51" pos="624" len="24"/>
          <note vol="144" pan="0" key="66" pos="648" len="24"/>
          <note vol="144" pan="0" key="54" pos="648" len="24"/>
          <note vol="144" pan="0" key="69" pos="672" len="24"/>
          <note vol="144" pan="0" key="57" pos="672" len="24"/>
          <note vol="144" pan="0" key="72" pos="696" len="24"/>
          <note vol="144" pan="0" key="60" pos="696" len="24"/>
          <note vol="144" pan="0" key="75" pos="720" len="24"/>
          <note vol="144" pan="0" key="63" pos="720" len="24"/>
          <note vol="144" pan="0" key="78" pos="744" len="24"/>
          <note vol="144" pan="0" key="66" pos="744" len="24"/>
        </pattern>
        <pattern type="1" name="" steps="16" muted="0" pos="56448">
          <note vol="200" pan="0" key="58" pos="0" len="384"/>
          <note vol="200" pan="0" key="54" pos="0" len="384"/>
          <note vol="200" pan="0" key="51" pos="0" len="384"/>
          <note vol="200" pan="0" key="56" pos="384" len="384"/>
          <note vol="200" pan="0" key="53" pos="384" len="384"/>
          <note vol="200" pan="0" key="49" pos="384" len="384"/>
          <note vol="200" pan="0" key="56" pos="768" len="384"/>
          <note vol="200" pan="0" key="51" pos="768" len="384"/>
          <note vol="200" pan="0" key="48" pos="768" len="384"/>
          <note vol="200" pan="0" key="56" pos="1152" len="384"/>
          <note vol="200" pan="0" key="52" pos="1152" len="384"/>
          <note vol="200" pan="0" key="47" pos="1152" len="384"/>
        </pattern>
        <pattern type="1" name="" steps="16" muted="0" pos="57984">
          <note vol="200" pan="0" key="58" pos="0" len="384"/>
          <note vol="200" pan="0" key="54" pos="0" len="384"/>
          <note vol="200" pan="0" key="51" pos="0" len="384"/>
          <note vol="200" pan="0" key="56" pos="384" len="384"/>
          <note vol="200" pan="0" key="53" pos="384" len="384"/>
          <note vol="200" pan="0" key="49" pos="384" len="384"/>
          <note vol="200" pan="0" key="56" pos="768" len="384"/>
          <note vol="200" pan="0" key="51" pos="768" len="384"/>
          <note vol="200" pan="0" key="48" pos="768" len="384"/>
          <note vol="200" pan="0" key="56" pos="1152" len="384"/>
          <note vol="200" pan="0" key="52" pos="1152" len="384"/>
          <note vol="200" pan="0" key="47" pos="1152" len="384"/>
        </pattern>
        <pattern type="1" name="" steps="16" muted="0" pos="59520">
          <note vol="200" pan="0" key="58" pos="0" len="384"/>
          <note vol="200" pan="0" key="54" pos="0" len="384"/>
          <note vol="200" pan="0" key="51" pos="0" len="384"/>
          <note vol="200" pan="0" key="56" pos="384" len="384"/>
          <note vol="200" pan="0" key="53" pos="384" len="384"/>
          <note vol="200" pan="0" key="49" pos="384" len="384"/>
          <note vol="200" pan="0" key="56" pos="768" len="384"/>
          <note vol="200" pan="0" key="51" pos="768" len="384"/>
          <note vol="200" pan="0" key="48" pos="768" len="384"/>
          <note vol="200" pan="0" key="56" pos="1152" len="384"/>
          <note vol="200" pan="0" key="52" pos="1152" len="384"/>
          <note vol="200" pan="0" key="47" pos="1152" len="384"/>
        </pattern>
        <pattern type="1" name="" steps="16" muted="0" pos="61056">
          <note vol="200" pan="0" key="58" pos="0" len="384"/>
          <note vol="200" pan="0" key="54" pos="0" len="384"/>
          <note vol="200" pan="0" key="51" pos="0" len="384"/>
          <note vol="200" pan="0" key="56" pos="384" len="384"/>
          <note vol="200" pan="0" key="53" pos="384" len="384"/>
          <note vol="200" pan="0" key="49" pos="384" len="384"/>
          <note vol="200" pan="0" key="56" pos="768" len="384"/>
          <note vol="200" pan="0" key="51" pos="768" len="384"/>
          <note vol="200" pan="0" key="48" pos="768" len="384"/>
          <note vol="200" pan="0" key="56" pos="1152" len="384"/>
          <note vol="200" pan="0" key="52" pos="1152" len="384"/>
          <note vol="200" pan="0" key="47" pos="1152" len="384"/>
        </pattern>
        <pattern type="1" name="" steps="16" muted="0" pos="62592">
          <note vol="197" pan="0" key="70" pos="0" len="192"/>
          <note vol="197" pan="0" key="66" pos="0" len="192"/>
          <note vol="197" pan="0" key="63" pos="0" len="192"/>
          <note vol="197" pan="0" key="70" pos="192" len="192"/>
          <note vol="197" pan="0" key="65" pos="192" len="192"/>
          <note vol="197" pan="0" key="61" pos="192" len="192"/>
          <note vol="197" pan="0" key="71" pos="384" len="192"/>
          <note vol="197" pan="0" key="66" pos="384" len="192"/>
          <note vol="197" pan="0" key="63" pos="384" len="192"/>
          <note vol="197" pan="0" key="73" pos="576" len="192"/>
          <note vol="197" pan="0" key="68" pos="576" len="192"/>
          <note vol="197" pan="0" key="65" pos="576" len="192"/>
          <note vol="197" pan="0" key="75" pos="768" len="192"/>
          <note vol="197" pan="0" key="71" pos="768" len="192"/>
          <note vol="197" pan="0" key="68" pos="768" len="192"/>
          <note vol="197" pan="0" key="77" pos="960" len="192"/>
          <note vol="197" pan="0" key="73" pos="960" len="192"/>
          <note vol="197" pan="0" key="70" pos="960" len="192"/>
          <note vol="63" pan="0" key="78" pos="1152" len="12"/>
          <note vol="63" pan="0" key="75" pos="1152" len="12"/>
          <note vol="63" pan="0" key="70" pos="1152" len="12"/>
          <note vol="63" pan="0" key="75" pos="1164" len="12"/>
          <note vol="63" pan="0" key="71" pos="1164" len="12"/>
          <note vol="63" pan="0" key="66" pos="1164" len="12"/>
          <note vol="63" pan="0" key="77" pos="1176" len="12"/>
          <note vol="63" pan="0" key="73" pos="1176" len="12"/>
          <note vol="63" pan="0" key="68" pos="1176" len="12"/>
          <note vol="63" pan="0" key="78" pos="1188" len="12"/>
          <note vol="63" pan="0" key="75" pos="1188" len="12"/>
          <note vol="63" pan="0" key="70" pos="1188" len="12"/>
          <note vol="63" pan="0" key="80" pos="1200" len="12"/>
          <note vol="63" pan="0" key="77" pos="1200" len="12"/>
          <note vol="63" pan="0" key="71" pos="1200" len="12"/>
          <note vol="63" pan="0" key="77" pos="1212" len="12"/>
          <note vol="63" pan="0" key="73" pos="1212" len="12"/>
          <note vol="63" pan="0" key="68" pos="1212" len="12"/>
          <note vol="63" pan="0" key="78" pos="1224" len="12"/>
          <note vol="63" pan="0" key="75" pos="1224" len="12"/>
          <note vol="63" pan="0" key="70" pos="1224" len="12"/>
          <note vol="63" pan="0" key="80" pos="1236" len="12"/>
          <note vol="63" pan="0" key="77" pos="1236" len="12"/>
          <note vol="63" pan="0" key="71" pos="1236" len="12"/>
          <note vol="63" pan="0" key="82" pos="1248" len="12"/>
          <note vol="63" pan="0" key="78" pos="1248" len="12"/>
          <note vol="63" pan="0" key="73" pos="1248" len="12"/>
          <note vol="63" pan="0" key="78" pos="1260" len="12"/>
          <note vol="63" pan="0" key="75" pos="1260" len="12"/>
          <note vol="63" pan="0" key="70" pos="1260" len="12"/>
          <note vol="63" pan="0" key="80" pos="1272" len="12"/>
          <note vol="63" pan="0" key="77" pos="1272" len="12"/>
          <note vol="63" pan="0" key="71" pos="1272" len="12"/>
          <note vol="63" pan="0" key="82" pos="1284" len="12"/>
          <note vol="63" pan="0" key="78" pos="1284" len="12"/>
          <note vol="63" pan="0" key="73" pos="1284" len="12"/>
          <note vol="63" pan="0" key="83" pos="1296" len="12"/>
          <note vol="63" pan="0" key="80" pos="1296" len="12"/>
          <note vol="63" pan="0" key="75" pos="1296" len="12"/>
          <note vol="63" pan="0" key="80" pos="1308" len="12"/>
          <note vol="63" pan="0" key="77" pos="1308" len="12"/>
          <note vol="63" pan="0" key="71" pos="1308" len="12"/>
          <note vol="63" pan="0" key="82" pos="1320" len="12"/>
          <note vol="63" pan="0" key="78" pos="1320" len="12"/>
          <note vol="63" pan="0" key="73" pos="1320" len="12"/>
          <note vol="63" pan="0" key="83" pos="1332" len="12"/>
          <note vol="63" pan="0" key="80" pos="1332" len="12"/>
          <note vol="63" pan="0" key="75" pos="1332" len="12"/>
          <note vol="63" pan="0" key="85" pos="1344" len="12"/>
          <note vol="63" pan="0" key="82" pos="1344" len="12"/>
          <note vol="63" pan="0" key="77" pos="1344" len="12"/>
          <note vol="63" pan="0" key="83" pos="1356" len="12"/>
          <note vol="63" pan="0" key="80" pos="1356" len="12"/>
          <note vol="63" pan="0" key="75" pos="1356" len="12"/>
          <note vol="63" pan="0" key="82" pos="1368" len="12"/>
          <note vol="63" pan="0" key="78" pos="1368" len="12"/>
          <note vol="63" pan="0" key="73" pos="1368" len="12"/>
          <note vol="63" pan="0" key="80" pos="1380" len="12"/>
          <note vol="63" pan="0" key="77" pos="1380" len="12"/>
          <note vol="63" pan="0" key="71" pos="1380" len="12"/>
          <note vol="63" pan="0" key="78" pos="1392" len="12"/>
          <note vol="63" pan="0" key="75" pos="1392" len="12"/>
          <note vol="63" pan="0" key="70" pos="1392" len="12"/>
          <note vol="63" pan="0" key="80" pos="1404" len="12"/>
          <note vol="63" pan="0" key="77" pos="1404" len="12"/>
          <note vol="63" pan="0" key="71" pos="1404" len="12"/>
          <note vol="63" pan="0" key="83" pos="1416" len="12"/>
          <note vol="63" pan="0" key="80" pos="1416" len="12"/>
          <note vol="63" pan="0" key="75" pos="1416" len="12"/>
          <note vol="63" pan="0" key="82" pos="1428" len="12"/>
          <note vol="63" pan="0" key="78" pos="1428" len="12"/>
          <note vol="63" pan="0" key="73" pos="1428" len="12"/>
          <note vol="63" pan="0" key="80" pos="1440" len="12"/>
          <note vol="63" pan="0" key="77" pos="1440" len="12"/>
          <note vol="63" pan="0" key="71" pos="1440" len="12"/>
          <note vol="63" pan="0" key="78" pos="1452" len="12"/>
          <note vol="63" pan="0" key="75" pos="1452" len="12"/>
          <note vol="63" pan="0" key="70" pos="1452" len="12"/>
          <note vol="63" pan="0" key="77" pos="1464" len="12"/>
          <note vol="63" pan="0" key="73" pos="1464" len="12"/>
          <note vol="63" pan="0" key="68" pos="1464" len="12"/>
          <note vol="63" pan="0" key="78" pos="1476" len="12"/>
          <note vol="63" pan="0" key="75" pos="1476" len="12"/>
          <note vol="63" pan="0" key="70" pos="1476" len="12"/>
          <note vol="63" pan="0" key="82" pos="1488" len="12"/>
          <note vol="63" pan="0" key="78" pos="1488" len="12"/>
          <note vol="63" pan="0" key="73" pos="1488" len="12"/>
          <note vol="63" pan="0" key="80" pos="1500" len="12"/>
          <note vol="63" pan="0" key="77" pos="1500" len="12"/>
          <note vol="63" pan="0" key="71" pos="1500" len="12"/>
          <note vol="63" pan="0" key="78" pos="1512" len="12"/>
          <note vol="63" pan="0" key="75" pos="1512" len="12"/>
          <note vol="63" pan="0" key="70" pos="1512" len="12"/>
          <note vol="63" pan="0" key="77" pos="1524" len="12"/>
          <note vol="63" pan="0" key="73" pos="1524" len="12"/>
          <note vol="63" pan="0" key="68" pos="1524" len="12"/>
          <note vol="63" pan="0" key="75" pos="1536" len="12"/>
          <note vol="63" pan="0" key="71" pos="1536" len="12"/>
          <note vol="63" pan="0" key="66" pos="1536" len="12"/>
          <note vol="63" pan="0" key="77" pos="1548" len="12"/>
          <note vol="63" pan="0" key="73" pos="1548" len="12"/>
          <note vol="63" pan="0" key="68" pos="1548" len="12"/>
          <note vol="63" pan="0" key="80" pos="1560" len="12"/>
          <note vol="63" pan="0" key="77" pos="1560" len="12"/>
          <note vol="63" pan="0" key="71" pos="1560" len="12"/>
          <note vol="63" pan="0" key="78" pos="1572" len="12"/>
          <note vol="63" pan="0" key="75" pos="1572" len="12"/>
          <note vol="63" pan="0" key="70" pos="1572" len="12"/>
          <note vol="63" pan="0" key="77" pos="1584" len="12"/>
          <note vol="63" pan="0" key="73" pos="1584" len="12"/>
          <note vol="63" pan="0" key="68" pos="1584" len="12"/>
          <note vol="63" pan="0" key="75" pos="1596" len="12"/>
          <note vol="63" pan="0" key="71" pos="1596" len="12"/>
          <note vol="63" pan="0" key="66" pos="1596" len="12"/>
          <note vol="63" pan="0" key="73" pos="1608" len="12"/>
          <note vol="63" pan="0" key="70" pos="1608" len="12"/>
          <note vol="63" pan="0" key="65" pos="1608" len="12"/>
          <note vol="63" pan="0" key="75" pos="1620" len="12"/>
          <note vol="63" pan="0" key="71" pos="1620" len="12"/>
          <note vol="63" pan="0" key="66" pos="1620" len="12"/>
          <note vol="63" pan="0" key="78" pos="1632" len="12"/>
          <note vol="63" pan="0" key="75" pos="1632" len="12"/>
          <note vol="63" pan="0" key="70" pos="1632" len="12"/>
          <note vol="63" pan="0" key="77" pos="1644" len="12"/>
          <note vol="63" pan="0" key="73" pos="1644" len="12"/>
          <note vol="63" pan="0" key="68" pos="1644" len="12"/>
          <note vol="63" pan="0" key="75" pos="1656" len="12"/>
          <note vol="63" pan="0" key="71" pos="1656" len="12"/>
          <note vol="63" pan="0" key="66" pos="1656" len="12"/>
          <note vol="63" pan="0" key="73" pos="1668" len="12"/>
          <note vol="63" pan="0" key="70" pos="1668" len="12"/>
          <note vol="63" pan="0" key="65" pos="1668" len="12"/>
          <note vol="63" pan="0" key="77" pos="1680" len="12"/>
          <note vol="63" pan="0" key="73" pos="1680" len="12"/>
          <note vol="63" pan="0" key="68" pos="1680" len="12"/>
          <note vol="63" pan="0" key="75" pos="1692" len="12"/>
          <note vol="63" pan="0" key="71" pos="1692" len="12"/>
          <note vol="63" pan="0" key="66" pos="1692" len="12"/>
          <note vol="63" pan="0" key="73" pos="1704" len="12"/>
          <note vol="63" pan="0" key="70" pos="1704" len="12"/>
          <note vol="63" pan="0" key="65" pos="1704" len="12"/>
          <note vol="63" pan="0" key="75" pos="1716" len="12"/>
          <note vol="63" pan="0" key="71" pos="1716" len="12"/>
          <note vol="63" pan="0" key="66" pos="1716" len="12"/>
          <note vol="197" pan="0" key="75" pos="1728" len="192"/>
          <note vol="197" pan="0" key="70" pos="1728" len="192"/>
          <note vol="197" pan="0" key="66" pos="1728" len="192"/>
        </pattern>
      </track>
      <track type="0" name="dt" solo="0" muted="0" mutedBeforeSolo="0">
        <instrumenttrack usemasterpitch="1" pitchrange="1" pitch="0" vol="73.8" basenote="45" pan="0" fxch="0">
          <instrument name="zynaddsubfx">
            <zynaddsubfx filterq="64" bandwidth="64" rescenterfreq="64" portamento="0" filterfreq="64" modifiedcontrollers="" fmgain="127" resbandwidth="64" forwardmidicc="1">
              <ZynAddSubFX-data version-minor="4" version-major="2" ZynAddSubFX-author="Nasca Octavian Paul" version-revision="1">
                <INFORMATION>
                  <par_bool name="PADsynth_used" value="yes"/>
                </INFORMATION>
                <BASE_PARAMETERS>
                  <par name="max_midi_parts" value="16"/>
                  <par name="max_kit_items_per_instrument" value="16"/>
                  <par name="max_system_effects" value="4"/>
                  <par name="max_insertion_effects" value="8"/>
                  <par name="max_instrument_effects" value="3"/>
                  <par name="max_addsynth_voices" value="8"/>
                </BASE_PARAMETERS>
                <MASTER>
                  <par name="volume" value="80"/>
                  <par name="key_shift" value="64"/>
                  <par_bool name="nrpn_receive" value="yes"/>
                  <MICROTONAL>
                    <string name="name">12tET</string>
                    <string name="comment">Equal Temperament 12 notes per octave</string>
                    <par_bool name="invert_up_down" value="no"/>
                    <par name="invert_up_down_center" value="60"/>
                    <par_bool name="enabled" value="no"/>
                    <par name="global_fine_detune" value="64"/>
                    <par name="a_note" value="69"/>
                    <par_real name="a_freq" value="440.000000"/>
                  </MICROTONAL>
                  <PART id="0">
                    <par_bool name="enabled" value="yes"/>
                    <par name="volume" value="96"/>
                    <par name="panning" value="64"/>
                    <par name="min_key" value="0"/>
                    <par name="max_key" value="127"/>
                    <par name="key_shift" value="64"/>
                    <par name="rcv_chn" value="0"/>
                    <par name="velocity_sensing" value="64"/>
                    <par name="velocity_offset" value="64"/>
                    <par_bool name="note_on" value="yes"/>
                    <par_bool name="poly_mode" value="yes"/>
                    <par name="legato_mode" value="0"/>
                    <par name="key_limit" value="15"/>
                    <INSTRUMENT>
                      <INFO>
                        <string name="name">Fantasia</string>
                        <string name="author">Will Godfrey
GPL V 2 or later</string>
                        <string name="comments">Derived from one of Paul's Bells voices</string>
                        <par name="type" value="1"/>
                      </INFO>
                      <INSTRUMENT_KIT>
                        <par name="kit_mode" value="0"/>
                        <par_bool name="drum_mode" value="no"/>
                        <INSTRUMENT_KIT_ITEM id="0">
                          <par_bool name="enabled" value="yes"/>
                          <string name="name"/>
                          <par_bool name="muted" value="no"/>
                          <par name="min_key" value="0"/>
                          <par name="max_key" value="127"/>
                          <par name="send_to_instrument_effect" value="0"/>
                          <par_bool name="add_enabled" value="no"/>
                          <par_bool name="sub_enabled" value="no"/>
                          <par_bool name="pad_enabled" value="yes"/>
                          <PAD_SYNTH_PARAMETERS>
                            <par_bool name="stereo" value="yes"/>
                            <par name="mode" value="0"/>
                            <par name="bandwidth" value="485"/>
                            <par name="bandwidth_scale" value="0"/>
                            <HARMONIC_PROFILE>
                              <par name="base_type" value="0"/>
                              <par name="base_par1" value="99"/>
                              <par name="frequency_multiplier" value="11"/>
                              <par name="modulator_par1" value="0"/>
                              <par name="modulator_frequency" value="55"/>
                              <par name="width" value="127"/>
                              <par name="amplitude_multiplier_type" value="0"/>
                              <par name="amplitude_multiplier_mode" value="2"/>
                              <par name="amplitude_multiplier_par1" value="80"/>
                              <par name="amplitude_multiplier_par2" value="4"/>
                              <par_bool name="autoscale" value="yes"/>
                              <par name="one_half" value="0"/>
                            </HARMONIC_PROFILE>
                            <OSCIL>
                              <par name="harmonic_mag_type" value="0"/>
                              <par name="base_function" value="0"/>
                              <par name="base_function_par" value="48"/>
                              <par name="base_function_modulation" value="0"/>
                              <par name="base_function_modulation_par1" value="64"/>
                              <par name="base_function_modulation_par2" value="64"/>
                              <par name="base_function_modulation_par3" value="32"/>
                              <par name="modulation" value="0"/>
                              <par name="modulation_par1" value="64"/>
                              <par name="modulation_par2" value="64"/>
                              <par name="modulation_par3" value="32"/>
                              <par name="wave_shaping" value="121"/>
                              <par name="wave_shaping_function" value="14"/>
                              <par name="filter_type" value="13"/>
                              <par name="filter_par1" value="23"/>
                              <par name="filter_par2" value="92"/>
                              <par name="filter_before_wave_shaping" value="0"/>
                              <par name="spectrum_adjust_type" value="0"/>
                              <par name="spectrum_adjust_par" value="49"/>
                              <par name="rand" value="64"/>
                              <par name="amp_rand_type" value="0"/>
                              <par name="amp_rand_power" value="64"/>
                              <par name="harmonic_shift" value="0"/>
                              <par_bool name="harmonic_shift_first" value="no"/>
                              <par name="adaptive_harmonics" value="0"/>
                              <par name="adaptive_harmonics_base_frequency" value="114"/>
                              <par name="adaptive_harmonics_power" value="63"/>
                              <HARMONICS>
                                <HARMONIC id="1">
                                  <par name="mag" value="127"/>
                                  <par name="phase" value="64"/>
                                </HARMONIC>
                                <HARMONIC id="2">
                                  <par name="mag" value="75"/>
                                  <par name="phase" value="64"/>
                                </HARMONIC>
                                <HARMONIC id="4">
                                  <par name="mag" value="84"/>
                                  <par name="phase" value="64"/>
                                </HARMONIC>
                              </HARMONICS>
                            </OSCIL>
                            <RESONANCE>
                              <par_bool name="enabled" value="no"/>
                            </RESONANCE>
                            <HARMONIC_POSITION>
                              <par name="type" value="6"/>
                              <par name="parameter1" value="176"/>
                              <par name="parameter2" value="159"/>
                              <par name="parameter3" value="255"/>
                            </HARMONIC_POSITION>
                            <SAMPLE_QUALITY>
                              <par name="samplesize" value="3"/>
                              <par name="basenote" value="5"/>
                              <par name="octaves" value="4"/>
                              <par name="samples_per_octave" value="2"/>
                            </SAMPLE_QUALITY>
                            <AMPLITUDE_PARAMETERS>
                              <par name="volume" value="98"/>
                              <par name="panning" value="64"/>
                              <par name="velocity_sensing" value="73"/>
                              <par name="punch_strength" value="37"/>
                              <par name="punch_time" value="60"/>
                              <par name="punch_stretch" value="64"/>
                              <par name="punch_velocity_sensing" value="56"/>
                              <AMPLITUDE_ENVELOPE>
                                <par_bool name="free_mode" value="no"/>
                                <par name="env_points" value="4"/>
                                <par name="env_sustain" value="2"/>
                                <par name="env_stretch" value="36"/>
                                <par_bool name="forced_release" value="yes"/>
                                <par_bool name="linear_envelope" value="no"/>
                                <par name="A_dt" value="14"/>
                                <par name="D_dt" value="113"/>
                                <par name="R_dt" value="15"/>
                                <par name="A_val" value="64"/>
                                <par name="D_val" value="64"/>
                                <par name="S_val" value="0"/>
                                <par name="R_val" value="64"/>
                              </AMPLITUDE_ENVELOPE>
                              <AMPLITUDE_LFO>
                                <par_real name="freq" value="0.629921"/>
                                <par name="intensity" value="0"/>
                                <par name="start_phase" value="64"/>
                                <par name="lfo_type" value="0"/>
                                <par name="randomness_amplitude" value="0"/>
                                <par name="randomness_frequency" value="0"/>
                                <par name="delay" value="0"/>
                                <par name="stretch" value="64"/>
                                <par_bool name="continous" value="no"/>
                              </AMPLITUDE_LFO>
                            </AMPLITUDE_PARAMETERS>
                            <FREQUENCY_PARAMETERS>
                              <par name="fixed_freq" value="0"/>
                              <par name="fixed_freq_et" value="0"/>
                              <par name="detune" value="8192"/>
                              <par name="coarse_detune" value="0"/>
                              <par name="detune_type" value="1"/>
                              <FREQUENCY_ENVELOPE>
                                <par_bool name="free_mode" value="no"/>
                                <par name="env_points" value="3"/>
                                <par name="env_sustain" value="1"/>
                                <par name="env_stretch" value="0"/>
                                <par_bool name="forced_release" value="no"/>
                                <par_bool name="linear_envelope" value="no"/>
                                <par name="A_dt" value="50"/>
                                <par name="D_dt" value="10"/>
                                <par name="R_dt" value="60"/>
                                <par name="A_val" value="64"/>
                                <par name="D_val" value="64"/>
                                <par name="S_val" value="64"/>
                                <par name="R_val" value="64"/>
                              </FREQUENCY_ENVELOPE>
                              <FREQUENCY_LFO>
                                <par_real name="freq" value="0.610681"/>
                                <par name="intensity" value="0"/>
                                <par name="start_phase" value="64"/>
                                <par name="lfo_type" value="0"/>
                                <par name="randomness_amplitude" value="0"/>
                                <par name="randomness_frequency" value="47"/>
                                <par name="delay" value="0"/>
                                <par name="stretch" value="64"/>
                                <par_bool name="continous" value="no"/>
                              </FREQUENCY_LFO>
                            </FREQUENCY_PARAMETERS>
                            <FILTER_PARAMETERS>
                              <par name="velocity_sensing_amplitude" value="127"/>
                              <par name="velocity_sensing" value="92"/>
                              <FILTER>
                                <par name="category" value="0"/>
                                <par name="type" value="0"/>
                                <par name="freq" value="127"/>
                                <par name="q" value="0"/>
                                <par name="stages" value="2"/>
                                <par name="freq_track" value="63"/>
                                <par name="gain" value="64"/>
                              </FILTER>
                              <FILTER_ENVELOPE>
                                <par_bool name="free_mode" value="no"/>
                                <par name="env_points" value="4"/>
                                <par name="env_sustain" value="2"/>
                                <par name="env_stretch" value="22"/>
                                <par_bool name="forced_release" value="yes"/>
                                <par_bool name="linear_envelope" value="no"/>
                                <par name="A_dt" value="0"/>
                                <par name="D_dt" value="127"/>
                                <par name="R_dt" value="127"/>
                                <par name="A_val" value="127"/>
                                <par name="D_val" value="127"/>
                                <par name="S_val" value="64"/>
                                <par name="R_val" value="0"/>
                              </FILTER_ENVELOPE>
                              <FILTER_LFO>
                                <par_real name="freq" value="0.484921"/>
                                <par name="intensity" value="13"/>
                                <par name="start_phase" value="59"/>
                                <par name="lfo_type" value="0"/>
                                <par name="randomness_amplitude" value="0"/>
                                <par name="randomness_frequency" value="0"/>
                                <par name="delay" value="0"/>
                                <par name="stretch" value="64"/>
                                <par_bool name="continous" value="no"/>
                              </FILTER_LFO>
                            </FILTER_PARAMETERS>
                          </PAD_SYNTH_PARAMETERS>
                        </INSTRUMENT_KIT_ITEM>
                        <INSTRUMENT_KIT_ITEM id="1">
                          <par_bool name="enabled" value="no"/>
                        </INSTRUMENT_KIT_ITEM>
                        <INSTRUMENT_KIT_ITEM id="2">
                          <par_bool name="enabled" value="no"/>
                        </INSTRUMENT_KIT_ITEM>
                        <INSTRUMENT_KIT_ITEM id="3">
                          <par_bool name="enabled" value="no"/>
                        </INSTRUMENT_KIT_ITEM>
                        <INSTRUMENT_KIT_ITEM id="4">
                          <par_bool name="enabled" value="no"/>
                        </INSTRUMENT_KIT_ITEM>
                        <INSTRUMENT_KIT_ITEM id="5">
                          <par_bool name="enabled" value="no"/>
                        </INSTRUMENT_KIT_ITEM>
                        <INSTRUMENT_KIT_ITEM id="6">
                          <par_bool name="enabled" value="no"/>
                        </INSTRUMENT_KIT_ITEM>
                        <INSTRUMENT_KIT_ITEM id="7">
                          <par_bool name="enabled" value="no"/>
                        </INSTRUMENT_KIT_ITEM>
                        <INSTRUMENT_KIT_ITEM id="8">
                          <par_bool name="enabled" value="no"/>
                        </INSTRUMENT_KIT_ITEM>
                        <INSTRUMENT_KIT_ITEM id="9">
                          <par_bool name="enabled" value="no"/>
                        </INSTRUMENT_KIT_ITEM>
                        <INSTRUMENT_KIT_ITEM id="10">
                          <par_bool name="enabled" value="no"/>
                        </INSTRUMENT_KIT_ITEM>
                        <INSTRUMENT_KIT_ITEM id="11">
                          <par_bool name="enabled" value="no"/>
                        </INSTRUMENT_KIT_ITEM>
                        <INSTRUMENT_KIT_ITEM id="12">
                          <par_bool name="enabled" value="no"/>
                        </INSTRUMENT_KIT_ITEM>
                        <INSTRUMENT_KIT_ITEM id="13">
                          <par_bool name="enabled" value="no"/>
                        </INSTRUMENT_KIT_ITEM>
                        <INSTRUMENT_KIT_ITEM id="14">
                          <par_bool name="enabled" value="no"/>
                        </INSTRUMENT_KIT_ITEM>
                        <INSTRUMENT_KIT_ITEM id="15">
                          <par_bool name="enabled" value="no"/>
                        </INSTRUMENT_KIT_ITEM>
                      </INSTRUMENT_KIT>
                      <INSTRUMENT_EFFECTS>
                        <INSTRUMENT_EFFECT id="0">
                          <EFFECT>
                            <par name="type" value="3"/>
                            <par name="preset" value="0"/>
                            <EFFECT_PARAMETERS>
                              <par_no id="0">
                                <par name="par" value="127"/>
                              </par_no>
                              <par_no id="1">
                                <par name="par" value="64"/>
                              </par_no>
                              <par_no id="2">
                                <par name="par" value="80"/>
                              </par_no>
                              <par_no id="5">
                                <par name="par" value="127"/>
                              </par_no>
                              <par_no id="6">
                                <par name="par" value="17"/>
                              </par_no>
                              <par_no id="7">
                                <par name="par" value="85"/>
                              </par_no>
                              <par_no id="8">
                                <par name="par" value="102"/>
                              </par_no>
                              <par_no id="9">
                                <par name="par" value="119"/>
                              </par_no>
                            </EFFECT_PARAMETERS>
                          </EFFECT>
                          <par name="route" value="0"/>
                          <par_bool name="bypass" value="yes"/>
                        </INSTRUMENT_EFFECT>
                        <INSTRUMENT_EFFECT id="1">
                          <EFFECT>
                            <par name="type" value="0"/>
                          </EFFECT>
                          <par name="route" value="0"/>
                          <par_bool name="bypass" value="no"/>
                        </INSTRUMENT_EFFECT>
                        <INSTRUMENT_EFFECT id="2">
                          <EFFECT>
                            <par name="type" value="0"/>
                          </EFFECT>
                          <par name="route" value="0"/>
                          <par_bool name="bypass" value="no"/>
                        </INSTRUMENT_EFFECT>
                      </INSTRUMENT_EFFECTS>
                    </INSTRUMENT>
                    <CONTROLLER>
                      <par name="pitchwheel_bendrange" value="100"/>
                      <par_bool name="expression_receive" value="yes"/>
                      <par name="panning_depth" value="64"/>
                      <par name="filter_cutoff_depth" value="64"/>
                      <par name="filter_q_depth" value="64"/>
                      <par name="bandwidth_depth" value="64"/>
                      <par name="mod_wheel_depth" value="80"/>
                      <par_bool name="mod_wheel_exponential" value="no"/>
                      <par_bool name="fm_amp_receive" value="yes"/>
                      <par_bool name="volume_receive" value="yes"/>
                      <par_bool name="sustain_receive" value="yes"/>
                      <par_bool name="portamento_receive" value="yes"/>
                      <par name="portamento_time" value="64"/>
                      <par name="portamento_pitchthresh" value="3"/>
                      <par name="portamento_pitchthreshtype" value="1"/>
                      <par name="portamento_portamento" value="0"/>
                      <par name="portamento_updowntimestretch" value="64"/>
                      <par name="portamento_proportional" value="0"/>
                      <par name="portamento_proprate" value="80"/>
                      <par name="portamento_propdepth" value="90"/>
                      <par name="resonance_center_depth" value="64"/>
                      <par name="resonance_bandwidth_depth" value="64"/>
                    </CONTROLLER>
                  </PART>
                  <PART id="1">
                    <par_bool name="enabled" value="no"/>
                  </PART>
                  <PART id="2">
                    <par_bool name="enabled" value="no"/>
                  </PART>
                  <PART id="3">
                    <par_bool name="enabled" value="no"/>
                  </PART>
                  <PART id="4">
                    <par_bool name="enabled" value="no"/>
                  </PART>
                  <PART id="5">
                    <par_bool name="enabled" value="no"/>
                  </PART>
                  <PART id="6">
                    <par_bool name="enabled" value="no"/>
                  </PART>
                  <PART id="7">
                    <par_bool name="enabled" value="no"/>
                  </PART>
                  <PART id="8">
                    <par_bool name="enabled" value="no"/>
                  </PART>
                  <PART id="9">
                    <par_bool name="enabled" value="no"/>
                  </PART>
                  <PART id="10">
                    <par_bool name="enabled" value="no"/>
                  </PART>
                  <PART id="11">
                    <par_bool name="enabled" value="no"/>
                  </PART>
                  <PART id="12">
                    <par_bool name="enabled" value="no"/>
                  </PART>
                  <PART id="13">
                    <par_bool name="enabled" value="no"/>
                  </PART>
                  <PART id="14">
                    <par_bool name="enabled" value="no"/>
                  </PART>
                  <PART id="15">
                    <par_bool name="enabled" value="no"/>
                  </PART>
                  <SYSTEM_EFFECTS>
                    <SYSTEM_EFFECT id="0">
                      <EFFECT>
                        <par name="type" value="0"/>
                      </EFFECT>
                      <VOLUME id="0">
                        <par name="vol" value="0"/>
                      </VOLUME>
                      <VOLUME id="1">
                        <par name="vol" value="0"/>
                      </VOLUME>
                      <VOLUME id="2">
                        <par name="vol" value="0"/>
                      </VOLUME>
                      <VOLUME id="3">
                        <par name="vol" value="0"/>
                      </VOLUME>
                      <VOLUME id="4">
                        <par name="vol" value="0"/>
                      </VOLUME>
                      <VOLUME id="5">
                        <par name="vol" value="0"/>
                      </VOLUME>
                      <VOLUME id="6">
                        <par name="vol" value="0"/>
                      </VOLUME>
                      <VOLUME id="7">
                        <par name="vol" value="0"/>
                      </VOLUME>
                      <VOLUME id="8">
                        <par name="vol" value="0"/>
                      </VOLUME>
                      <VOLUME id="9">
                        <par name="vol" value="0"/>
                      </VOLUME>
                      <VOLUME id="10">
                        <par name="vol" value="0"/>
                      </VOLUME>
                      <VOLUME id="11">
                        <par name="vol" value="0"/>
                      </VOLUME>
                      <VOLUME id="12">
                        <par name="vol" value="0"/>
                      </VOLUME>
                      <VOLUME id="13">
                        <par name="vol" value="0"/>
                      </VOLUME>
                      <VOLUME id="14">
                        <par name="vol" value="0"/>
                      </VOLUME>
                      <VOLUME id="15">
                        <par name="vol" value="0"/>
                      </VOLUME>
                      <SENDTO id="1">
                        <par name="send_vol" value="0"/>
                      </SENDTO>
                      <SENDTO id="2">
                        <par name="send_vol" value="0"/>
                      </SENDTO>
                      <SENDTO id="3">
                        <par name="send_vol" value="0"/>
                      </SENDTO>
                    </SYSTEM_EFFECT>
                    <SYSTEM_EFFECT id="1">
                      <EFFECT>
                        <par name="type" value="0"/>
                      </EFFECT>
                      <VOLUME id="0">
                        <par name="vol" value="0"/>
                      </VOLUME>
                      <VOLUME id="1">
                        <par name="vol" value="0"/>
                      </VOLUME>
                      <VOLUME id="2">
                        <par name="vol" value="0"/>
                      </VOLUME>
                      <VOLUME id="3">
                        <par name="vol" value="0"/>
                      </VOLUME>
                      <VOLUME id="4">
                        <par name="vol" value="0"/>
                      </VOLUME>
                      <VOLUME id="5">
                        <par name="vol" value="0"/>
                      </VOLUME>
                      <VOLUME id="6">
                        <par name="vol" value="0"/>
                      </VOLUME>
                      <VOLUME id="7">
                        <par name="vol" value="0"/>
                      </VOLUME>
                      <VOLUME id="8">
                        <par name="vol" value="0"/>
                      </VOLUME>
                      <VOLUME id="9">
                        <par name="vol" value="0"/>
                      </VOLUME>
                      <VOLUME id="10">
                        <par name="vol" value="0"/>
                      </VOLUME>
                      <VOLUME id="11">
                        <par name="vol" value="0"/>
                      </VOLUME>
                      <VOLUME id="12">
                        <par name="vol" value="0"/>
                      </VOLUME>
                      <VOLUME id="13">
                        <par name="vol" value="0"/>
                      </VOLUME>
                      <VOLUME id="14">
                        <par name="vol" value="0"/>
                      </VOLUME>
                      <VOLUME id="15">
                        <par name="vol" value="0"/>
                      </VOLUME>
                      <SENDTO id="2">
                        <par name="send_vol" value="0"/>
                      </SENDTO>
                      <SENDTO id="3">
                        <par name="send_vol" value="0"/>
                      </SENDTO>
                    </SYSTEM_EFFECT>
                    <SYSTEM_EFFECT id="2">
                      <EFFECT>
                        <par name="type" value="0"/>
                      </EFFECT>
                      <VOLUME id="0">
                        <par name="vol" value="0"/>
                      </VOLUME>
                      <VOLUME id="1">
                        <par name="vol" value="0"/>
                      </VOLUME>
                      <VOLUME id="2">
                        <par name="vol" value="0"/>
                      </VOLUME>
                      <VOLUME id="3">
                        <par name="vol" value="0"/>
                      </VOLUME>
                      <VOLUME id="4">
                        <par name="vol" value="0"/>
                      </VOLUME>
                      <VOLUME id="5">
                        <par name="vol" value="0"/>
                      </VOLUME>
                      <VOLUME id="6">
                        <par name="vol" value="0"/>
                      </VOLUME>
                      <VOLUME id="7">
                        <par name="vol" value="0"/>
                      </VOLUME>
                      <VOLUME id="8">
                        <par name="vol" value="0"/>
                      </VOLUME>
                      <VOLUME id="9">
                        <par name="vol" value="0"/>
                      </VOLUME>
                      <VOLUME id="10">
                        <par name="vol" value="0"/>
                      </VOLUME>
                      <VOLUME id="11">
                        <par name="vol" value="0"/>
                      </VOLUME>
                      <VOLUME id="12">
                        <par name="vol" value="0"/>
                      </VOLUME>
                      <VOLUME id="13">
                        <par name="vol" value="0"/>
                      </VOLUME>
                      <VOLUME id="14">
                        <par name="vol" value="0"/>
                      </VOLUME>
                      <VOLUME id="15">
                        <par name="vol" value="0"/>
                      </VOLUME>
                      <SENDTO id="3">
                        <par name="send_vol" value="0"/>
                      </SENDTO>
                    </SYSTEM_EFFECT>
                    <SYSTEM_EFFECT id="3">
                      <EFFECT>
                        <par name="type" value="0"/>
                      </EFFECT>
                      <VOLUME id="0">
                        <par name="vol" value="0"/>
                      </VOLUME>
                      <VOLUME id="1">
                        <par name="vol" value="0"/>
                      </VOLUME>
                      <VOLUME id="2">
                        <par name="vol" value="0"/>
                      </VOLUME>
                      <VOLUME id="3">
                        <par name="vol" value="0"/>
                      </VOLUME>
                      <VOLUME id="4">
                        <par name="vol" value="0"/>
                      </VOLUME>
                      <VOLUME id="5">
                        <par name="vol" value="0"/>
                      </VOLUME>
                      <VOLUME id="6">
                        <par name="vol" value="0"/>
                      </VOLUME>
                      <VOLUME id="7">
                        <par name="vol" value="0"/>
                      </VOLUME>
                      <VOLUME id="8">
                        <par name="vol" value="0"/>
                      </VOLUME>
                      <VOLUME id="9">
                        <par name="vol" value="0"/>
                      </VOLUME>
                      <VOLUME id="10">
                        <par name="vol" value="0"/>
                      </VOLUME>
                      <VOLUME id="11">
                        <par name="vol" value="0"/>
                      </VOLUME>
                      <VOLUME id="12">
                        <par name="vol" value="0"/>
                      </VOLUME>
                      <VOLUME id="13">
                        <par name="vol" value="0"/>
                      </VOLUME>
                      <VOLUME id="14">
                        <par name="vol" value="0"/>
                      </VOLUME>
                      <VOLUME id="15">
                        <par name="vol" value="0"/>
                      </VOLUME>
                    </SYSTEM_EFFECT>
                  </SYSTEM_EFFECTS>
                  <INSERTION_EFFECTS>
                    <INSERTION_EFFECT id="0">
                      <par name="part" value="-1"/>
                      <EFFECT>
                        <par name="type" value="0"/>
                      </EFFECT>
                    </INSERTION_EFFECT>
                    <INSERTION_EFFECT id="1">
                      <par name="part" value="-1"/>
                      <EFFECT>
                        <par name="type" value="0"/>
                      </EFFECT>
                    </INSERTION_EFFECT>
                    <INSERTION_EFFECT id="2">
                      <par name="part" value="-1"/>
                      <EFFECT>
                        <par name="type" value="0"/>
                      </EFFECT>
                    </INSERTION_EFFECT>
                    <INSERTION_EFFECT id="3">
                      <par name="part" value="-1"/>
                      <EFFECT>
                        <par name="type" value="0"/>
                      </EFFECT>
                    </INSERTION_EFFECT>
                    <INSERTION_EFFECT id="4">
                      <par name="part" value="-1"/>
                      <EFFECT>
                        <par name="type" value="0"/>
                      </EFFECT>
                    </INSERTION_EFFECT>
                    <INSERTION_EFFECT id="5">
                      <par name="part" value="-1"/>
                      <EFFECT>
                        <par name="type" value="0"/>
                      </EFFECT>
                    </INSERTION_EFFECT>
                    <INSERTION_EFFECT id="6">
                      <par name="part" value="-1"/>
                      <EFFECT>
                        <par name="type" value="0"/>
                      </EFFECT>
                    </INSERTION_EFFECT>
                    <INSERTION_EFFECT id="7">
                      <par name="part" value="-1"/>
                      <EFFECT>
                        <par name="type" value="0"/>
                      </EFFECT>
                    </INSERTION_EFFECT>
                  </INSERTION_EFFECTS>
                </MASTER>
              </ZynAddSubFX-data>
              <key/>
            </zynaddsubfx>
          </instrument>
          <eldata fwet="0" fres="0.5" ftype="0" fcut="14000">
            <elvol x100="0" lspd_numerator="4" amt="0" lspd="0.1" lpdel="0" dec="0.5" lspd_syncmode="0" att="0" ctlenvamt="0" pdel="0" latt="0" sustain="0.5" lspd_denominator="4" hold="0.5" lamt="0" userwavefile="" lshp="0" rel="0.1"/>
            <elcut x100="0" lspd_numerator="4" amt="0" lspd="0.1" lpdel="0" dec="0.5" lspd_syncmode="0" att="0" ctlenvamt="0" pdel="0" latt="0" sustain="0.5" lspd_denominator="4" hold="0.5" lamt="0" userwavefile="" lshp="0" rel="0.1"/>
            <elres x100="0" lspd_numerator="4" amt="0" lspd="0.1" lpdel="0" dec="0.5" lspd_syncmode="0" att="0" ctlenvamt="0" pdel="0" latt="0" sustain="0.5" lspd_denominator="4" hold="0.5" lamt="0" userwavefile="" lshp="0" rel="0.1"/>
          </eldata>
          <chordcreator chordrange="1" chord="0" chord-enabled="0"/>
          <arpeggiator arprange="1" arptime_syncmode="0" arpskip="0" arpmiss="0" arptime="200" arpdir="0" arpmode="0" arptime_denominator="4" arp-enabled="0" arp="0" arpgate="100" arpcycle="0" arptime_numerator="4"/>
          <midiport inputcontroller="0" outputcontroller="0" outputprogram="1" basevelocity="63" outputchannel="1" writable="0" inputchannel="0" readable="0" fixedinputvelocity="-1" fixedoutputvelocity="-1" fixedoutputnote="-1"/>
          <fxchain numofeffects="1" enabled="1">
            <effect autoquit_syncmode="0" autoquit_denominator="4" gate="0" name="ladspaeffect" wet="1" on="1" autoquit_numerator="4" autoquit="1">
              <ladspacontrols ports="12" link="1">
                <port01 data_syncmode="0" data_denominator="4" data_numerator="4" link="1">
                  <data value="2.95313" scale_type="log" id="3333524"/>
                </port01>
                <port02 data_syncmode="0" data_denominator="4" data="6.67375" data_numerator="4" link="1"/>
                <port03 data="1.45" link="1"/>
                <port04 data="1" link="1"/>
                <port05 data="0.37875" link="1"/>
                <port06 data="0.2825" link="1"/>
                <port11 data_syncmode="0" data_denominator="4" data_numerator="4">
                  <data value="2.95313" scale_type="log" id="1009611"/>
                </port11>
                <port12 data_syncmode="0" data_denominator="4" data="6.67375" data_numerator="4"/>
                <port13 data="1.45"/>
                <port14 data="1"/>
                <port15 data="0.37875"/>
                <port16 data="0.2825"/>
              </ladspacontrols>
              <key>
                <attribute name="file" value="caps"/>
                <attribute name="plugin" value="ChorusI"/>
              </key>
            </effect>
          </fxchain>
        </instrumenttrack>
        <pattern type="1" name="" steps="16" muted="0" pos="8064">
          <note vol="78" pan="0" key="61" pos="0" len="24"/>
          <note vol="78" pan="0" key="68" pos="24" len="24"/>
          <note vol="78" pan="0" key="73" pos="48" len="24"/>
          <note vol="78" pan="0" key="68" pos="72" len="24"/>
          <note vol="78" pan="0" key="76" pos="96" len="24"/>
          <note vol="78" pan="0" key="68" pos="120" len="24"/>
          <note vol="78" pan="0" key="73" pos="144" len="24"/>
          <note vol="78" pan="0" key="68" pos="168" len="24"/>
          <note vol="78" pan="0" key="63" pos="192" len="24"/>
          <note vol="78" pan="0" key="68" pos="216" len="24"/>
          <note vol="78" pan="0" key="71" pos="240" len="24"/>
          <note vol="78" pan="0" key="68" pos="264" len="24"/>
          <note vol="78" pan="0" key="63" pos="288" len="24"/>
          <note vol="78" pan="0" key="68" pos="312" len="24"/>
          <note vol="78" pan="0" key="71" pos="336" len="24"/>
          <note vol="78" pan="0" key="68" pos="360" len="24"/>
          <note vol="78" pan="0" key="64" pos="384" len="24"/>
          <note vol="78" pan="0" key="68" pos="408" len="24"/>
          <note vol="78" pan="0" key="73" pos="432" len="24"/>
          <note vol="78" pan="0" key="68" pos="456" len="24"/>
          <note vol="78" pan="0" key="64" pos="480" len="24"/>
          <note vol="78" pan="0" key="68" pos="504" len="24"/>
          <note vol="78" pan="0" key="73" pos="528" len="24"/>
          <note vol="78" pan="0" key="68" pos="552" len="24"/>
          <note vol="78" pan="0" key="66" pos="576" len="24"/>
          <note vol="78" pan="0" key="71" pos="600" len="24"/>
          <note vol="78" pan="0" key="76" pos="624" len="24"/>
          <note vol="78" pan="0" key="71" pos="648" len="24"/>
          <note vol="78" pan="0" key="66" pos="672" len="24"/>
          <note vol="78" pan="0" key="71" pos="696" len="24"/>
          <note vol="78" pan="0" key="75" pos="720" len="24"/>
          <note vol="78" pan="0" key="71" pos="744" len="24"/>
          <note vol="78" pan="0" key="64" pos="768" len="24"/>
          <note vol="78" pan="0" key="68" pos="792" len="24"/>
          <note vol="78" pan="0" key="73" pos="816" len="24"/>
          <note vol="78" pan="0" key="68" pos="840" len="24"/>
          <note vol="78" pan="0" key="64" pos="864" len="24"/>
          <note vol="78" pan="0" key="68" pos="888" len="24"/>
          <note vol="78" pan="0" key="73" pos="912" len="24"/>
          <note vol="78" pan="0" key="68" pos="936" len="24"/>
          <note vol="78" pan="0" key="63" pos="960" len="24"/>
          <note vol="78" pan="0" key="66" pos="984" len="24"/>
          <note vol="78" pan="0" key="71" pos="1008" len="24"/>
          <note vol="78" pan="0" key="66" pos="1032" len="24"/>
          <note vol="78" pan="0" key="63" pos="1056" len="24"/>
          <note vol="78" pan="0" key="66" pos="1080" len="24"/>
          <note vol="78" pan="0" key="71" pos="1104" len="24"/>
          <note vol="78" pan="0" key="66" pos="1128" len="24"/>
          <note vol="78" pan="0" key="64" pos="1152" len="24"/>
          <note vol="78" pan="0" key="68" pos="1176" len="24"/>
          <note vol="78" pan="0" key="73" pos="1200" len="24"/>
          <note vol="78" pan="0" key="68" pos="1224" len="24"/>
          <note vol="78" pan="0" key="64" pos="1248" len="24"/>
          <note vol="78" pan="0" key="68" pos="1272" len="24"/>
          <note vol="78" pan="0" key="73" pos="1296" len="24"/>
          <note vol="78" pan="0" key="68" pos="1320" len="24"/>
          <note vol="78" pan="0" key="66" pos="1344" len="24"/>
          <note vol="78" pan="0" key="68" pos="1368" len="24"/>
          <note vol="78" pan="0" key="66" pos="1392" len="24"/>
          <note vol="78" pan="0" key="64" pos="1416" len="24"/>
          <note vol="78" pan="0" key="63" pos="1440" len="24"/>
          <note vol="78" pan="0" key="60" pos="1464" len="24"/>
          <note vol="78" pan="0" key="66" pos="1488" len="24"/>
          <note vol="78" pan="0" key="63" pos="1512" len="24"/>
          <note vol="78" pan="0" key="61" pos="1536" len="24"/>
          <note vol="78" pan="0" key="68" pos="1560" len="24"/>
          <note vol="78" pan="0" key="73" pos="1584" len="24"/>
          <note vol="78" pan="0" key="68" pos="1608" len="24"/>
          <note vol="78" pan="0" key="61" pos="1632" len="24"/>
          <note vol="78" pan="0" key="68" pos="1656" len="24"/>
          <note vol="78" pan="0" key="73" pos="1680" len="24"/>
          <note vol="78" pan="0" key="68" pos="1704" len="24"/>
          <note vol="78" pan="0" key="63" pos="1728" len="24"/>
          <note vol="78" pan="0" key="68" pos="1752" len="24"/>
          <note vol="78" pan="0" key="71" pos="1776" len="24"/>
          <note vol="78" pan="0" key="68" pos="1800" len="24"/>
          <note vol="78" pan="0" key="63" pos="1824" len="24"/>
          <note vol="78" pan="0" key="68" pos="1848" len="24"/>
          <note vol="78" pan="0" key="71" pos="1872" len="24"/>
          <note vol="78" pan="0" key="68" pos="1896" len="24"/>
          <note vol="78" pan="0" key="61" pos="1920" len="24"/>
          <note vol="78" pan="0" key="66" pos="1944" len="24"/>
          <note vol="78" pan="0" key="70" pos="1968" len="24"/>
          <note vol="78" pan="0" key="66" pos="1992" len="24"/>
          <note vol="78" pan="0" key="61" pos="2016" len="24"/>
          <note vol="78" pan="0" key="66" pos="2040" len="24"/>
          <note vol="78" pan="0" key="70" pos="2064" len="24"/>
          <note vol="78" pan="0" key="66" pos="2088" len="24"/>
          <note vol="78" pan="0" key="61" pos="2112" len="24"/>
          <note vol="78" pan="0" key="66" pos="2136" len="24"/>
          <note vol="78" pan="0" key="70" pos="2160" len="24"/>
          <note vol="78" pan="0" key="66" pos="2184" len="24"/>
          <note vol="78" pan="0" key="61" pos="2208" len="24"/>
          <note vol="78" pan="0" key="66" pos="2232" len="24"/>
          <note vol="78" pan="0" key="70" pos="2256" len="24"/>
          <note vol="78" pan="0" key="66" pos="2280" len="24"/>
          <note vol="78" pan="0" key="66" pos="2304" len="24"/>
          <note vol="78" pan="0" key="69" pos="2328" len="24"/>
          <note vol="78" pan="0" key="73" pos="2352" len="24"/>
          <note vol="78" pan="0" key="69" pos="2376" len="24"/>
          <note vol="78" pan="0" key="66" pos="2400" len="24"/>
          <note vol="78" pan="0" key="69" pos="2424" len="24"/>
          <note vol="78" pan="0" key="73" pos="2448" len="24"/>
          <note vol="78" pan="0" key="69" pos="2472" len="24"/>
          <note vol="78" pan="0" key="63" pos="2496" len="24"/>
          <note vol="78" pan="0" key="68" pos="2520" len="24"/>
          <note vol="78" pan="0" key="73" pos="2544" len="24"/>
          <note vol="78" pan="0" key="68" pos="2568" len="24"/>
          <note vol="78" pan="0" key="63" pos="2592" len="24"/>
          <note vol="78" pan="0" key="68" pos="2616" len="24"/>
          <note vol="78" pan="0" key="73" pos="2640" len="24"/>
          <note vol="78" pan="0" key="68" pos="2664" len="24"/>
          <note vol="78" pan="0" key="66" pos="2688" len="24"/>
          <note vol="78" pan="0" key="71" pos="2712" len="24"/>
          <note vol="78" pan="0" key="75" pos="2736" len="24"/>
          <note vol="78" pan="0" key="71" pos="2760" len="24"/>
          <note vol="78" pan="0" key="66" pos="2784" len="24"/>
          <note vol="78" pan="0" key="71" pos="2808" len="24"/>
          <note vol="78" pan="0" key="75" pos="2832" len="24"/>
          <note vol="78" pan="0" key="71" pos="2856" len="24"/>
          <note vol="78" pan="0" key="66" pos="2880" len="96"/>
          <note vol="78" pan="0" key="59" pos="2976" len="96"/>
          <note vol="78" pan="0" key="68" pos="3072" len="12"/>
          <note vol="78" pan="0" key="64" pos="3084" len="12"/>
          <note vol="78" pan="0" key="61" pos="3096" len="12"/>
          <note vol="78" pan="0" key="56" pos="3108" len="12"/>
          <note vol="78" pan="0" key="52" pos="3120" len="12"/>
          <note vol="78" pan="0" key="49" pos="3132" len="12"/>
          <note vol="78" pan="0" key="61" pos="3168" len="12"/>
          <note vol="78" pan="0" key="56" pos="3180" len="12"/>
          <note vol="78" pan="0" key="52" pos="3192" len="12"/>
          <note vol="78" pan="0" key="49" pos="3204" len="12"/>
          <note vol="78" pan="0" key="76" pos="3216" len="12"/>
          <note vol="78" pan="0" key="71" pos="3228" len="12"/>
          <note vol="78" pan="0" key="68" pos="3240" len="12"/>
          <note vol="78" pan="0" key="64" pos="3252" len="12"/>
          <note vol="78" pan="0" key="76" pos="3264" len="12"/>
          <note vol="78" pan="0" key="71" pos="3276" len="12"/>
          <note vol="78" pan="0" key="80" pos="3288" len="12"/>
          <note vol="78" pan="0" key="76" pos="3300" len="12"/>
          <note vol="78" pan="0" key="71" pos="3312" len="12"/>
          <note vol="78" pan="0" key="68" pos="3324" len="12"/>
          <note vol="78" pan="0" key="64" pos="3336" len="12"/>
          <note vol="78" pan="0" key="61" pos="3348" len="12"/>
          <note vol="78" pan="0" key="73" pos="3360" len="12"/>
          <note vol="78" pan="0" key="68" pos="3372" len="12"/>
          <note vol="78" pan="0" key="64" pos="3384" len="12"/>
          <note vol="78" pan="0" key="61" pos="3396" len="12"/>
          <note vol="78" pan="0" key="68" pos="3408" len="12"/>
          <note vol="78" pan="0" key="64" pos="3420" len="12"/>
          <note vol="78" pan="0" key="56" pos="3432" len="12"/>
          <note vol="78" pan="0" key="49" pos="3444" len="12"/>
          <note vol="78" pan="0" key="69" pos="3456" len="12"/>
          <note vol="78" pan="0" key="66" pos="3468" len="12"/>
          <note vol="78" pan="0" key="57" pos="3480" len="12"/>
          <note vol="78" pan="0" key="54" pos="3492" len="12"/>
          <note vol="78" pan="0" key="49" pos="3504" len="12"/>
          <note vol="78" pan="0" key="47" pos="3516" len="12"/>
          <note vol="78" pan="0" key="74" pos="3528" len="12"/>
          <note vol="78" pan="0" key="69" pos="3540" len="12"/>
          <note vol="78" pan="0" key="66" pos="3552" len="12"/>
          <note vol="78" pan="0" key="61" pos="3564" len="12"/>
          <note vol="78" pan="0" key="57" pos="3576" len="12"/>
          <note vol="78" pan="0" key="54" pos="3588" len="12"/>
          <note vol="78" pan="0" key="78" pos="3600" len="12"/>
          <note vol="78" pan="0" key="74" pos="3612" len="12"/>
          <note vol="78" pan="0" key="69" pos="3624" len="12"/>
          <note vol="78" pan="0" key="66" pos="3636" len="12"/>
          <note vol="78" pan="0" key="81" pos="3672" len="12"/>
          <note vol="78" pan="0" key="78" pos="3684" len="12"/>
          <note vol="78" pan="0" key="73" pos="3696" len="12"/>
          <note vol="78" pan="0" key="69" pos="3708" len="12"/>
          <note vol="78" pan="0" key="66" pos="3720" len="12"/>
          <note vol="78" pan="0" key="61" pos="3732" len="12"/>
          <note vol="78" pan="0" key="74" pos="3744" len="12"/>
          <note vol="78" pan="0" key="71" pos="3756" len="12"/>
          <note vol="78" pan="0" key="66" pos="3768" len="12"/>
          <note vol="78" pan="0" key="61" pos="3780" len="12"/>
          <note vol="78" pan="0" key="69" pos="3792" len="12"/>
          <note vol="78" pan="0" key="66" pos="3804" len="12"/>
          <note vol="78" pan="0" key="61" pos="3816" len="12"/>
          <note vol="78" pan="0" key="57" pos="3828" len="12"/>
          <note vol="78" pan="0" key="68" pos="3840" len="12"/>
          <note vol="78" pan="0" key="64" pos="3852" len="12"/>
          <note vol="78" pan="0" key="61" pos="3864" len="12"/>
          <note vol="78" pan="0" key="56" pos="3876" len="12"/>
          <note vol="78" pan="0" key="61" pos="3888" len="12"/>
          <note vol="78" pan="0" key="64" pos="3900" len="12"/>
          <note vol="78" pan="0" key="73" pos="3912" len="12"/>
          <note vol="78" pan="0" key="69" pos="3924" len="12"/>
          <note vol="78" pan="0" key="68" pos="3936" len="12"/>
          <note vol="78" pan="0" key="64" pos="3948" len="12"/>
          <note vol="78" pan="0" key="68" pos="3960" len="12"/>
          <note vol="78" pan="0" key="73" pos="3972" len="12"/>
          <note vol="78" pan="0" key="52" pos="3972" len="12"/>
          <note vol="78" pan="0" key="76" pos="3984" len="12"/>
          <note vol="78" pan="0" key="71" pos="3996" len="12"/>
          <note vol="78" pan="0" key="68" pos="4008" len="12"/>
          <note vol="78" pan="0" key="64" pos="4020" len="12"/>
          <note vol="78" pan="0" key="68" pos="4032" len="12"/>
          <note vol="78" pan="0" key="71" pos="4044" len="12"/>
          <note vol="78" pan="0" key="81" pos="4056" len="12"/>
          <note vol="78" pan="0" key="78" pos="4068" len="12"/>
          <note vol="78" pan="0" key="74" pos="4080" len="12"/>
          <note vol="78" pan="0" key="69" pos="4092" len="12"/>
          <note vol="78" pan="0" key="66" pos="4104" len="12"/>
          <note vol="78" pan="0" key="69" pos="4116" len="12"/>
          <note vol="78" pan="0" key="73" pos="4128" len="12"/>
          <note vol="78" pan="0" key="69" pos="4140" len="12"/>
          <note vol="78" pan="0" key="66" pos="4152" len="12"/>
          <note vol="78" pan="0" key="61" pos="4164" len="12"/>
          <note vol="78" pan="0" key="68" pos="4176" len="12"/>
          <note vol="78" pan="0" key="64" pos="4188" len="12"/>
          <note vol="78" pan="0" key="61" pos="4200" len="12"/>
          <note vol="78" pan="0" key="56" pos="4212" len="12"/>
          <note vol="78" pan="0" key="69" pos="4224" len="12"/>
          <note vol="78" pan="0" key="66" pos="4236" len="12"/>
          <note vol="78" pan="0" key="57" pos="4248" len="12"/>
          <note vol="78" pan="0" key="54" pos="4260" len="12"/>
          <note vol="78" pan="0" key="57" pos="4272" len="12"/>
          <note vol="78" pan="0" key="52" pos="4272" len="12"/>
          <note vol="78" pan="0" key="62" pos="4284" len="12"/>
          <note vol="78" pan="0" key="49" pos="4284" len="12"/>
          <note vol="78" pan="0" key="74" pos="4296" len="12"/>
          <note vol="78" pan="0" key="69" pos="4308" len="12"/>
          <note vol="78" pan="0" key="66" pos="4320" len="12"/>
          <note vol="78" pan="0" key="61" pos="4332" len="12"/>
          <note vol="78" pan="0" key="57" pos="4344" len="12"/>
          <note vol="78" pan="0" key="54" pos="4356" len="12"/>
          <note vol="78" pan="0" key="78" pos="4368" len="12"/>
          <note vol="78" pan="0" key="74" pos="4380" len="12"/>
          <note vol="78" pan="0" key="69" pos="4392" len="12"/>
          <note vol="78" pan="0" key="66" pos="4404" len="12"/>
          <note vol="78" pan="0" key="69" pos="4416" len="12"/>
          <note vol="78" pan="0" key="74" pos="4428" len="12"/>
          <note vol="78" pan="0" key="81" pos="4440" len="12"/>
          <note vol="78" pan="0" key="78" pos="4452" len="12"/>
          <note vol="78" pan="0" key="73" pos="4464" len="12"/>
          <note vol="78" pan="0" key="69" pos="4476" len="12"/>
          <note vol="78" pan="0" key="66" pos="4488" len="12"/>
          <note vol="78" pan="0" key="61" pos="4500" len="12"/>
          <note vol="78" pan="0" key="74" pos="4512" len="12"/>
          <note vol="78" pan="0" key="71" pos="4524" len="12"/>
          <note vol="78" pan="0" key="66" pos="4536" len="12"/>
          <note vol="78" pan="0" key="61" pos="4548" len="12"/>
          <note vol="78" pan="0" key="69" pos="4560" len="12"/>
          <note vol="78" pan="0" key="66" pos="4572" len="12"/>
          <note vol="78" pan="0" key="61" pos="4584" len="12"/>
          <note vol="78" pan="0" key="57" pos="4596" len="12"/>
        </pattern>
        <pattern type="1" name="" steps="16" muted="0" pos="15744">
          <note vol="78" pan="0" key="61" pos="0" len="24"/>
          <note vol="78" pan="0" key="68" pos="24" len="24"/>
          <note vol="78" pan="0" key="73" pos="48" len="24"/>
          <note vol="78" pan="0" key="68" pos="72" len="24"/>
          <note vol="78" pan="0" key="76" pos="96" len="24"/>
          <note vol="78" pan="0" key="68" pos="120" len="24"/>
          <note vol="78" pan="0" key="73" pos="144" len="24"/>
          <note vol="78" pan="0" key="68" pos="168" len="24"/>
          <note vol="78" pan="0" key="63" pos="192" len="24"/>
          <note vol="78" pan="0" key="68" pos="216" len="24"/>
          <note vol="78" pan="0" key="71" pos="240" len="24"/>
          <note vol="78" pan="0" key="68" pos="264" len="24"/>
          <note vol="78" pan="0" key="63" pos="288" len="24"/>
          <note vol="78" pan="0" key="68" pos="312" len="24"/>
          <note vol="78" pan="0" key="71" pos="336" len="24"/>
          <note vol="78" pan="0" key="68" pos="360" len="24"/>
          <note vol="78" pan="0" key="64" pos="384" len="24"/>
          <note vol="78" pan="0" key="68" pos="408" len="24"/>
          <note vol="78" pan="0" key="73" pos="432" len="24"/>
          <note vol="78" pan="0" key="68" pos="456" len="24"/>
          <note vol="78" pan="0" key="64" pos="480" len="24"/>
          <note vol="78" pan="0" key="68" pos="504" len="24"/>
          <note vol="78" pan="0" key="73" pos="528" len="24"/>
          <note vol="78" pan="0" key="68" pos="552" len="24"/>
          <note vol="78" pan="0" key="66" pos="576" len="24"/>
          <note vol="78" pan="0" key="71" pos="600" len="24"/>
          <note vol="78" pan="0" key="76" pos="624" len="24"/>
          <note vol="78" pan="0" key="71" pos="648" len="24"/>
          <note vol="78" pan="0" key="66" pos="672" len="24"/>
          <note vol="78" pan="0" key="71" pos="696" len="24"/>
          <note vol="78" pan="0" key="75" pos="720" len="24"/>
          <note vol="78" pan="0" key="71" pos="744" len="24"/>
          <note vol="78" pan="0" key="64" pos="768" len="24"/>
          <note vol="78" pan="0" key="68" pos="792" len="24"/>
          <note vol="78" pan="0" key="73" pos="816" len="24"/>
          <note vol="78" pan="0" key="68" pos="840" len="24"/>
          <note vol="78" pan="0" key="64" pos="864" len="24"/>
          <note vol="78" pan="0" key="68" pos="888" len="24"/>
          <note vol="78" pan="0" key="73" pos="912" len="24"/>
          <note vol="78" pan="0" key="68" pos="936" len="24"/>
          <note vol="78" pan="0" key="63" pos="960" len="24"/>
          <note vol="78" pan="0" key="66" pos="984" len="24"/>
          <note vol="78" pan="0" key="71" pos="1008" len="24"/>
          <note vol="78" pan="0" key="66" pos="1032" len="24"/>
          <note vol="78" pan="0" key="63" pos="1056" len="24"/>
          <note vol="78" pan="0" key="66" pos="1080" len="24"/>
          <note vol="78" pan="0" key="71" pos="1104" len="24"/>
          <note vol="78" pan="0" key="66" pos="1128" len="24"/>
          <note vol="78" pan="0" key="64" pos="1152" len="24"/>
          <note vol="78" pan="0" key="68" pos="1176" len="24"/>
          <note vol="78" pan="0" key="73" pos="1200" len="24"/>
          <note vol="78" pan="0" key="68" pos="1224" len="24"/>
          <note vol="78" pan="0" key="64" pos="1248" len="24"/>
          <note vol="78" pan="0" key="68" pos="1272" len="24"/>
          <note vol="78" pan="0" key="73" pos="1296" len="24"/>
          <note vol="78" pan="0" key="68" pos="1320" len="24"/>
          <note vol="78" pan="0" key="66" pos="1344" len="24"/>
          <note vol="78" pan="0" key="68" pos="1368" len="24"/>
          <note vol="78" pan="0" key="66" pos="1392" len="24"/>
          <note vol="78" pan="0" key="64" pos="1416" len="24"/>
          <note vol="78" pan="0" key="63" pos="1440" len="24"/>
          <note vol="78" pan="0" key="60" pos="1464" len="24"/>
          <note vol="78" pan="0" key="66" pos="1488" len="24"/>
          <note vol="78" pan="0" key="63" pos="1512" len="24"/>
          <note vol="78" pan="0" key="61" pos="1536" len="24"/>
          <note vol="78" pan="0" key="68" pos="1560" len="24"/>
          <note vol="78" pan="0" key="73" pos="1584" len="24"/>
          <note vol="78" pan="0" key="68" pos="1608" len="24"/>
          <note vol="78" pan="0" key="61" pos="1632" len="24"/>
          <note vol="78" pan="0" key="68" pos="1656" len="24"/>
          <note vol="78" pan="0" key="73" pos="1680" len="24"/>
          <note vol="78" pan="0" key="68" pos="1704" len="24"/>
          <note vol="78" pan="0" key="63" pos="1728" len="24"/>
          <note vol="78" pan="0" key="68" pos="1752" len="24"/>
          <note vol="78" pan="0" key="71" pos="1776" len="24"/>
          <note vol="78" pan="0" key="68" pos="1800" len="24"/>
          <note vol="78" pan="0" key="63" pos="1824" len="24"/>
          <note vol="78" pan="0" key="68" pos="1848" len="24"/>
          <note vol="78" pan="0" key="71" pos="1872" len="24"/>
          <note vol="78" pan="0" key="68" pos="1896" len="24"/>
          <note vol="78" pan="0" key="61" pos="1920" len="24"/>
          <note vol="78" pan="0" key="66" pos="1944" len="24"/>
          <note vol="78" pan="0" key="70" pos="1968" len="24"/>
          <note vol="78" pan="0" key="66" pos="1992" len="24"/>
          <note vol="78" pan="0" key="61" pos="2016" len="24"/>
          <note vol="78" pan="0" key="66" pos="2040" len="24"/>
          <note vol="78" pan="0" key="70" pos="2064" len="24"/>
          <note vol="78" pan="0" key="66" pos="2088" len="24"/>
          <note vol="78" pan="0" key="61" pos="2112" len="24"/>
          <note vol="78" pan="0" key="66" pos="2136" len="24"/>
          <note vol="78" pan="0" key="70" pos="2160" len="24"/>
          <note vol="78" pan="0" key="66" pos="2184" len="24"/>
          <note vol="78" pan="0" key="61" pos="2208" len="24"/>
          <note vol="78" pan="0" key="66" pos="2232" len="24"/>
          <note vol="78" pan="0" key="70" pos="2256" len="24"/>
          <note vol="78" pan="0" key="66" pos="2280" len="24"/>
          <note vol="78" pan="0" key="66" pos="2304" len="24"/>
          <note vol="78" pan="0" key="69" pos="2328" len="24"/>
          <note vol="78" pan="0" key="73" pos="2352" len="24"/>
          <note vol="78" pan="0" key="69" pos="2376" len="24"/>
          <note vol="78" pan="0" key="66" pos="2400" len="24"/>
          <note vol="78" pan="0" key="69" pos="2424" len="24"/>
          <note vol="78" pan="0" key="73" pos="2448" len="24"/>
          <note vol="78" pan="0" key="69" pos="2472" len="24"/>
          <note vol="78" pan="0" key="63" pos="2496" len="24"/>
          <note vol="78" pan="0" key="68" pos="2520" len="24"/>
          <note vol="78" pan="0" key="73" pos="2544" len="24"/>
          <note vol="78" pan="0" key="68" pos="2568" len="24"/>
          <note vol="78" pan="0" key="63" pos="2592" len="24"/>
          <note vol="78" pan="0" key="68" pos="2616" len="24"/>
          <note vol="78" pan="0" key="73" pos="2640" len="24"/>
          <note vol="78" pan="0" key="68" pos="2664" len="24"/>
          <note vol="78" pan="0" key="66" pos="2688" len="24"/>
          <note vol="78" pan="0" key="71" pos="2712" len="24"/>
          <note vol="78" pan="0" key="75" pos="2736" len="24"/>
          <note vol="78" pan="0" key="71" pos="2760" len="24"/>
          <note vol="78" pan="0" key="66" pos="2784" len="24"/>
          <note vol="78" pan="0" key="71" pos="2808" len="24"/>
          <note vol="78" pan="0" key="75" pos="2832" len="24"/>
          <note vol="78" pan="0" key="71" pos="2856" len="24"/>
          <note vol="78" pan="0" key="63" pos="2880" len="24"/>
          <note vol="78" pan="0" key="51" pos="2880" len="24"/>
          <note vol="78" pan="0" key="63" pos="2904" len="24"/>
          <note vol="78" pan="0" key="51" pos="2904" len="24"/>
          <note vol="78" pan="0" key="71" pos="2976" len="24"/>
          <note vol="78" pan="0" key="59" pos="2976" len="24"/>
          <note vol="78" pan="0" key="71" pos="3000" len="24"/>
          <note vol="78" pan="0" key="59" pos="3000" len="24"/>
          <note vol="78" pan="0" key="56" pos="3072" len="12"/>
          <note vol="78" pan="0" key="61" pos="3084" len="12"/>
          <note vol="78" pan="0" key="64" pos="3096" len="12"/>
          <note vol="78" pan="0" key="68" pos="3108" len="12"/>
          <note vol="78" pan="0" key="73" pos="3120" len="12"/>
          <note vol="78" pan="0" key="76" pos="3132" len="12"/>
          <note vol="78" pan="0" key="80" pos="3144" len="12"/>
          <note vol="78" pan="0" key="83" pos="3156" len="12"/>
          <note vol="78" pan="0" key="73" pos="3168" len="12"/>
          <note vol="78" pan="0" key="83" pos="3180" len="12"/>
          <note vol="78" pan="0" key="80" pos="3192" len="12"/>
          <note vol="78" pan="0" key="76" pos="3204" len="12"/>
          <note vol="78" pan="0" key="73" pos="3216" len="12"/>
          <note vol="78" pan="0" key="68" pos="3228" len="12"/>
          <note vol="78" pan="0" key="64" pos="3240" len="12"/>
          <note vol="78" pan="0" key="61" pos="3252" len="12"/>
          <note vol="78" pan="0" key="56" pos="3264" len="12"/>
          <note vol="78" pan="0" key="61" pos="3276" len="12"/>
          <note vol="78" pan="0" key="64" pos="3288" len="12"/>
          <note vol="78" pan="0" key="68" pos="3300" len="12"/>
          <note vol="78" pan="0" key="73" pos="3312" len="12"/>
          <note vol="78" pan="0" key="76" pos="3324" len="12"/>
          <note vol="78" pan="0" key="80" pos="3336" len="12"/>
          <note vol="78" pan="0" key="83" pos="3348" len="12"/>
          <note vol="78" pan="0" key="73" pos="3360" len="12"/>
          <note vol="78" pan="0" key="83" pos="3372" len="12"/>
          <note vol="78" pan="0" key="80" pos="3384" len="12"/>
          <note vol="78" pan="0" key="76" pos="3396" len="12"/>
          <note vol="78" pan="0" key="73" pos="3408" len="12"/>
          <note vol="78" pan="0" key="68" pos="3420" len="12"/>
          <note vol="78" pan="0" key="64" pos="3432" len="12"/>
          <note vol="78" pan="0" key="61" pos="3444" len="12"/>
          <note vol="78" pan="0" key="54" pos="3456" len="12"/>
          <note vol="78" pan="0" key="59" pos="3468" len="12"/>
          <note vol="78" pan="0" key="63" pos="3480" len="12"/>
          <note vol="78" pan="0" key="66" pos="3492" len="12"/>
          <note vol="78" pan="0" key="69" pos="3504" len="12"/>
          <note vol="78" pan="0" key="73" pos="3516" len="12"/>
          <note vol="78" pan="0" key="76" pos="3528" len="12"/>
          <note vol="78" pan="0" key="80" pos="3540" len="12"/>
          <note vol="78" pan="0" key="83" pos="3552" len="12"/>
          <note vol="78" pan="0" key="80" pos="3564" len="12"/>
          <note vol="78" pan="0" key="75" pos="3576" len="12"/>
          <note vol="78" pan="0" key="71" pos="3588" len="12"/>
          <note vol="78" pan="0" key="66" pos="3600" len="12"/>
          <note vol="78" pan="0" key="61" pos="3612" len="12"/>
          <note vol="78" pan="0" key="59" pos="3624" len="12"/>
          <note vol="78" pan="0" key="54" pos="3636" len="12"/>
          <note vol="78" pan="0" key="54" pos="3648" len="12"/>
          <note vol="78" pan="0" key="59" pos="3660" len="12"/>
          <note vol="78" pan="0" key="63" pos="3672" len="12"/>
          <note vol="78" pan="0" key="66" pos="3684" len="12"/>
          <note vol="78" pan="0" key="69" pos="3696" len="12"/>
          <note vol="78" pan="0" key="73" pos="3708" len="12"/>
          <note vol="78" pan="0" key="76" pos="3720" len="12"/>
          <note vol="78" pan="0" key="80" pos="3732" len="12"/>
          <note vol="78" pan="0" key="83" pos="3744" len="12"/>
          <note vol="78" pan="0" key="80" pos="3756" len="12"/>
          <note vol="78" pan="0" key="75" pos="3768" len="12"/>
          <note vol="78" pan="0" key="71" pos="3780" len="12"/>
          <note vol="78" pan="0" key="66" pos="3792" len="12"/>
          <note vol="78" pan="0" key="61" pos="3804" len="12"/>
          <note vol="78" pan="0" key="59" pos="3816" len="12"/>
          <note vol="78" pan="0" key="54" pos="3828" len="12"/>
          <note vol="78" pan="0" key="54" pos="3840" len="12"/>
          <note vol="78" pan="0" key="57" pos="3852" len="12"/>
          <note vol="78" pan="0" key="61" pos="3864" len="12"/>
          <note vol="78" pan="0" key="64" pos="3876" len="12"/>
          <note vol="78" pan="0" key="66" pos="3888" len="12"/>
          <note vol="78" pan="0" key="73" pos="3900" len="12"/>
          <note vol="78" pan="0" key="76" pos="3912" len="12"/>
          <note vol="78" pan="0" key="78" pos="3924" len="12"/>
          <note vol="78" pan="0" key="82" pos="3936" len="12"/>
          <note vol="78" pan="0" key="78" pos="3948" len="12"/>
          <note vol="78" pan="0" key="76" pos="3960" len="12"/>
          <note vol="78" pan="0" key="73" pos="3972" len="12"/>
          <note vol="78" pan="0" key="66" pos="3984" len="12"/>
          <note vol="78" pan="0" key="64" pos="3996" len="12"/>
          <note vol="78" pan="0" key="61" pos="4008" len="12"/>
          <note vol="78" pan="0" key="57" pos="4020" len="12"/>
          <note vol="78" pan="0" key="54" pos="4032" len="12"/>
          <note vol="78" pan="0" key="57" pos="4044" len="12"/>
          <note vol="78" pan="0" key="61" pos="4056" len="12"/>
          <note vol="78" pan="0" key="64" pos="4068" len="12"/>
          <note vol="78" pan="0" key="66" pos="4080" len="12"/>
          <note vol="78" pan="0" key="73" pos="4092" len="12"/>
          <note vol="78" pan="0" key="76" pos="4104" len="12"/>
          <note vol="78" pan="0" key="78" pos="4116" len="12"/>
          <note vol="78" pan="0" key="82" pos="4128" len="12"/>
          <note vol="78" pan="0" key="78" pos="4140" len="12"/>
          <note vol="78" pan="0" key="76" pos="4152" len="12"/>
          <note vol="78" pan="0" key="73" pos="4164" len="12"/>
          <note vol="78" pan="0" key="66" pos="4176" len="12"/>
          <note vol="78" pan="0" key="64" pos="4188" len="12"/>
          <note vol="78" pan="0" key="61" pos="4200" len="12"/>
          <note vol="78" pan="0" key="57" pos="4212" len="12"/>
          <note vol="78" pan="0" key="51" pos="4224" len="12"/>
          <note vol="78" pan="0" key="54" pos="4236" len="12"/>
          <note vol="78" pan="0" key="57" pos="4248" len="12"/>
          <note vol="78" pan="0" key="63" pos="4260" len="12"/>
          <note vol="78" pan="0" key="66" pos="4272" len="12"/>
          <note vol="78" pan="0" key="69" pos="4284" len="12"/>
          <note vol="78" pan="0" key="73" pos="4296" len="12"/>
          <note vol="78" pan="0" key="76" pos="4308" len="12"/>
          <note vol="78" pan="0" key="81" pos="4320" len="12"/>
          <note vol="78" pan="0" key="78" pos="4332" len="12"/>
          <note vol="78" pan="0" key="73" pos="4344" len="12"/>
          <note vol="78" pan="0" key="69" pos="4356" len="12"/>
          <note vol="78" pan="0" key="66" pos="4368" len="12"/>
          <note vol="78" pan="0" key="63" pos="4380" len="12"/>
          <note vol="78" pan="0" key="57" pos="4392" len="12"/>
          <note vol="78" pan="0" key="54" pos="4404" len="12"/>
          <note vol="78" pan="0" key="51" pos="4416" len="12"/>
          <note vol="78" pan="0" key="54" pos="4428" len="12"/>
          <note vol="78" pan="0" key="57" pos="4440" len="12"/>
          <note vol="78" pan="0" key="63" pos="4452" len="12"/>
          <note vol="78" pan="0" key="66" pos="4464" len="12"/>
          <note vol="78" pan="0" key="69" pos="4476" len="12"/>
          <note vol="78" pan="0" key="73" pos="4488" len="12"/>
          <note vol="78" pan="0" key="76" pos="4500" len="12"/>
          <note vol="78" pan="0" key="81" pos="4512" len="12"/>
          <note vol="78" pan="0" key="78" pos="4524" len="12"/>
          <note vol="78" pan="0" key="73" pos="4536" len="12"/>
          <note vol="78" pan="0" key="69" pos="4548" len="12"/>
          <note vol="78" pan="0" key="66" pos="4560" len="12"/>
          <note vol="78" pan="0" key="63" pos="4572" len="12"/>
          <note vol="78" pan="0" key="57" pos="4584" len="12"/>
          <note vol="78" pan="0" key="54" pos="4596" len="12"/>
          <note vol="78" pan="0" key="52" pos="4608" len="12"/>
          <note vol="78" pan="0" key="61" pos="4620" len="12"/>
          <note vol="78" pan="0" key="64" pos="4632" len="12"/>
          <note vol="78" pan="0" key="68" pos="4644" len="12"/>
          <note vol="78" pan="0" key="73" pos="4656" len="12"/>
          <note vol="78" pan="0" key="76" pos="4668" len="12"/>
          <note vol="78" pan="0" key="80" pos="4680" len="12"/>
          <note vol="78" pan="0" key="83" pos="4692" len="12"/>
          <note vol="78" pan="0" key="73" pos="4704" len="12"/>
          <note vol="78" pan="0" key="83" pos="4716" len="12"/>
          <note vol="78" pan="0" key="80" pos="4728" len="12"/>
          <note vol="78" pan="0" key="76" pos="4740" len="12"/>
          <note vol="78" pan="0" key="73" pos="4752" len="12"/>
          <note vol="78" pan="0" key="68" pos="4764" len="12"/>
          <note vol="78" pan="0" key="64" pos="4776" len="12"/>
          <note vol="78" pan="0" key="61" pos="4788" len="12"/>
          <note vol="78" pan="0" key="52" pos="4800" len="12"/>
          <note vol="78" pan="0" key="61" pos="4812" len="12"/>
          <note vol="78" pan="0" key="64" pos="4824" len="12"/>
          <note vol="78" pan="0" key="68" pos="4836" len="12"/>
          <note vol="78" pan="0" key="73" pos="4848" len="12"/>
          <note vol="78" pan="0" key="76" pos="4860" len="12"/>
          <note vol="78" pan="0" key="80" pos="4872" len="12"/>
          <note vol="78" pan="0" key="83" pos="4884" len="12"/>
          <note vol="78" pan="0" key="73" pos="4896" len="12"/>
          <note vol="78" pan="0" key="83" pos="4908" len="12"/>
          <note vol="78" pan="0" key="80" pos="4920" len="12"/>
          <note vol="78" pan="0" key="76" pos="4932" len="12"/>
          <note vol="78" pan="0" key="73" pos="4944" len="12"/>
          <note vol="78" pan="0" key="68" pos="4956" len="12"/>
          <note vol="78" pan="0" key="64" pos="4968" len="12"/>
          <note vol="78" pan="0" key="61" pos="4980" len="12"/>
          <note vol="78" pan="0" key="54" pos="4992" len="12"/>
          <note vol="78" pan="0" key="59" pos="5004" len="12"/>
          <note vol="78" pan="0" key="63" pos="5016" len="12"/>
          <note vol="78" pan="0" key="66" pos="5028" len="12"/>
          <note vol="78" pan="0" key="69" pos="5040" len="12"/>
          <note vol="78" pan="0" key="73" pos="5052" len="12"/>
          <note vol="78" pan="0" key="76" pos="5064" len="12"/>
          <note vol="78" pan="0" key="80" pos="5076" len="12"/>
          <note vol="78" pan="0" key="83" pos="5088" len="12"/>
          <note vol="78" pan="0" key="80" pos="5100" len="12"/>
          <note vol="78" pan="0" key="75" pos="5112" len="12"/>
          <note vol="78" pan="0" key="71" pos="5124" len="12"/>
          <note vol="78" pan="0" key="66" pos="5136" len="12"/>
          <note vol="78" pan="0" key="61" pos="5148" len="12"/>
          <note vol="78" pan="0" key="59" pos="5160" len="12"/>
          <note vol="78" pan="0" key="54" pos="5172" len="12"/>
          <note vol="78" pan="0" key="54" pos="5184" len="12"/>
          <note vol="78" pan="0" key="59" pos="5196" len="12"/>
          <note vol="78" pan="0" key="63" pos="5208" len="12"/>
          <note vol="78" pan="0" key="66" pos="5220" len="12"/>
          <note vol="78" pan="0" key="69" pos="5232" len="12"/>
          <note vol="78" pan="0" key="73" pos="5244" len="12"/>
          <note vol="78" pan="0" key="76" pos="5256" len="12"/>
          <note vol="78" pan="0" key="80" pos="5268" len="12"/>
          <note vol="78" pan="0" key="83" pos="5280" len="12"/>
          <note vol="78" pan="0" key="80" pos="5292" len="12"/>
          <note vol="78" pan="0" key="75" pos="5304" len="12"/>
          <note vol="78" pan="0" key="71" pos="5316" len="12"/>
          <note vol="78" pan="0" key="66" pos="5328" len="12"/>
          <note vol="78" pan="0" key="61" pos="5340" len="12"/>
          <note vol="78" pan="0" key="59" pos="5352" len="12"/>
          <note vol="78" pan="0" key="54" pos="5364" len="12"/>
          <note vol="78" pan="0" key="54" pos="5376" len="12"/>
          <note vol="78" pan="0" key="57" pos="5388" len="12"/>
          <note vol="78" pan="0" key="63" pos="5400" len="12"/>
          <note vol="78" pan="0" key="66" pos="5412" len="12"/>
          <note vol="78" pan="0" key="69" pos="5424" len="12"/>
          <note vol="78" pan="0" key="73" pos="5436" len="12"/>
          <note vol="78" pan="0" key="76" pos="5448" len="12"/>
          <note vol="78" pan="0" key="81" pos="5460" len="12"/>
          <note vol="78" pan="0" key="75" pos="5472" len="12"/>
          <note vol="78" pan="0" key="81" pos="5484" len="12"/>
          <note vol="78" pan="0" key="76" pos="5496" len="12"/>
          <note vol="78" pan="0" key="73" pos="5508" len="12"/>
          <note vol="78" pan="0" key="69" pos="5520" len="12"/>
          <note vol="78" pan="0" key="66" pos="5532" len="12"/>
          <note vol="78" pan="0" key="63" pos="5544" len="12"/>
          <note vol="78" pan="0" key="57" pos="5556" len="12"/>
          <note vol="78" pan="0" key="54" pos="5568" len="12"/>
          <note vol="78" pan="0" key="57" pos="5580" len="12"/>
          <note vol="78" pan="0" key="63" pos="5592" len="12"/>
          <note vol="78" pan="0" key="66" pos="5604" len="12"/>
          <note vol="78" pan="0" key="69" pos="5616" len="12"/>
          <note vol="78" pan="0" key="73" pos="5628" len="12"/>
          <note vol="78" pan="0" key="76" pos="5640" len="12"/>
          <note vol="78" pan="0" key="81" pos="5652" len="12"/>
          <note vol="78" pan="0" key="75" pos="5664" len="12"/>
          <note vol="78" pan="0" key="81" pos="5676" len="12"/>
          <note vol="78" pan="0" key="76" pos="5688" len="12"/>
          <note vol="78" pan="0" key="73" pos="5700" len="12"/>
          <note vol="78" pan="0" key="69" pos="5712" len="12"/>
          <note vol="78" pan="0" key="66" pos="5724" len="12"/>
          <note vol="78" pan="0" key="63" pos="5736" len="12"/>
          <note vol="78" pan="0" key="57" pos="5748" len="12"/>
          <note vol="78" pan="0" key="57" pos="5760" len="12"/>
          <note vol="78" pan="0" key="61" pos="5772" len="12"/>
          <note vol="78" pan="0" key="64" pos="5784" len="12"/>
          <note vol="78" pan="0" key="68" pos="5796" len="12"/>
          <note vol="78" pan="0" key="71" pos="5808" len="12"/>
          <note vol="78" pan="0" key="75" pos="5820" len="12"/>
          <note vol="78" pan="0" key="78" pos="5832" len="12"/>
          <note vol="78" pan="0" key="81" pos="5844" len="12"/>
          <note vol="78" pan="0" key="73" pos="5856" len="12"/>
          <note vol="78" pan="0" key="81" pos="5868" len="12"/>
          <note vol="78" pan="0" key="78" pos="5880" len="12"/>
          <note vol="78" pan="0" key="75" pos="5892" len="12"/>
          <note vol="78" pan="0" key="71" pos="5904" len="12"/>
          <note vol="78" pan="0" key="68" pos="5916" len="12"/>
          <note vol="78" pan="0" key="64" pos="5928" len="12"/>
          <note vol="78" pan="0" key="61" pos="5940" len="12"/>
          <note vol="78" pan="0" key="57" pos="5952" len="12"/>
          <note vol="78" pan="0" key="61" pos="5964" len="12"/>
          <note vol="78" pan="0" key="64" pos="5976" len="12"/>
          <note vol="78" pan="0" key="68" pos="5988" len="12"/>
          <note vol="78" pan="0" key="71" pos="6000" len="12"/>
          <note vol="78" pan="0" key="75" pos="6012" len="12"/>
          <note vol="78" pan="0" key="78" pos="6024" len="12"/>
          <note vol="78" pan="0" key="81" pos="6036" len="12"/>
          <note vol="78" pan="0" key="72" pos="6048" len="12"/>
          <note vol="78" pan="0" key="81" pos="6060" len="12"/>
          <note vol="78" pan="0" key="78" pos="6072" len="12"/>
          <note vol="78" pan="0" key="75" pos="6084" len="12"/>
          <note vol="78" pan="0" key="71" pos="6096" len="12"/>
          <note vol="78" pan="0" key="68" pos="6108" len="12"/>
          <note vol="78" pan="0" key="64" pos="6120" len="12"/>
          <note vol="78" pan="0" key="61" pos="6132" len="12"/>
        </pattern>
        <pattern type="1" name="" steps="16" muted="0" pos="4992">
          <note vol="78" pan="0" key="61" pos="0" len="24"/>
          <note vol="78" pan="0" key="63" pos="24" len="24"/>
          <note vol="78" pan="0" key="61" pos="48" len="24"/>
          <note vol="78" pan="0" key="68" pos="72" len="48"/>
          <note vol="78" pan="0" key="61" pos="120" len="24"/>
          <note vol="78" pan="0" key="64" pos="144" len="24"/>
          <note vol="78" pan="0" key="68" pos="168" len="24"/>
          <note vol="78" pan="0" key="71" pos="192" len="24"/>
          <note vol="78" pan="0" key="69" pos="216" len="24"/>
          <note vol="78" pan="0" key="68" pos="240" len="24"/>
          <note vol="78" pan="0" key="69" pos="264" len="48"/>
          <note vol="78" pan="0" key="68" pos="312" len="24"/>
          <note vol="78" pan="0" key="66" pos="336" len="24"/>
          <note vol="78" pan="0" key="68" pos="360" len="24"/>
        </pattern>
        <pattern type="1" name="" steps="16" muted="0" pos="5376">
          <note vol="78" pan="0" key="68" pos="0" len="24"/>
          <note vol="78" pan="0" key="0" pos="0" len="24"/>
          <note vol="78" pan="0" key="71" pos="24" len="24"/>
          <note vol="78" pan="0" key="68" pos="48" len="24"/>
          <note vol="78" pan="0" key="75" pos="72" len="48"/>
          <note vol="78" pan="0" key="68" pos="120" len="24"/>
          <note vol="78" pan="0" key="71" pos="144" len="24"/>
          <note vol="78" pan="0" key="75" pos="168" len="24"/>
          <note vol="78" pan="0" key="76" pos="192" len="24"/>
          <note vol="78" pan="0" key="75" pos="216" len="24"/>
          <note vol="78" pan="0" key="73" pos="240" len="24"/>
          <note vol="78" pan="0" key="71" pos="264" len="24"/>
          <note vol="78" pan="0" key="75" pos="288" len="24"/>
          <note vol="78" pan="0" key="73" pos="312" len="24"/>
          <note vol="78" pan="0" key="71" pos="336" len="24"/>
          <note vol="78" pan="0" key="68" pos="360" len="24"/>
        </pattern>
        <pattern type="1" name="" steps="16" muted="0" pos="5760">
          <note vol="78" pan="0" key="61" pos="0" len="24"/>
          <note vol="100" pan="0" key="0" pos="0" len="48"/>
          <note vol="78" pan="0" key="63" pos="24" len="24"/>
          <note vol="78" pan="0" key="61" pos="48" len="24"/>
          <note vol="78" pan="0" key="68" pos="72" len="48"/>
          <note vol="78" pan="0" key="61" pos="120" len="24"/>
          <note vol="78" pan="0" key="64" pos="144" len="24"/>
          <note vol="78" pan="0" key="68" pos="168" len="24"/>
          <note vol="78" pan="0" key="71" pos="192" len="24"/>
          <note vol="78" pan="0" key="73" pos="216" len="24"/>
          <note vol="78" pan="0" key="75" pos="240" len="24"/>
          <note vol="78" pan="0" key="73" pos="264" len="48"/>
          <note vol="78" pan="0" key="75" pos="312" len="24"/>
          <note vol="78" pan="0" key="76" pos="336" len="24"/>
          <note vol="78" pan="0" key="78" pos="360" len="24"/>
        </pattern>
        <pattern type="1" name="" steps="16" muted="0" pos="6144">
          <note vol="78" pan="0" key="87" pos="0" len="24"/>
          <note vol="78" pan="0" key="76" pos="24" len="24"/>
          <note vol="78" pan="0" key="80" pos="48" len="24"/>
          <note vol="78" pan="0" key="83" pos="72" len="48"/>
          <note vol="78" pan="0" key="80" pos="120" len="24"/>
          <note vol="78" pan="0" key="83" pos="144" len="24"/>
          <note vol="78" pan="0" key="87" pos="168" len="24"/>
          <note vol="78" pan="0" key="85" pos="192" len="24"/>
          <note vol="78" pan="0" key="80" pos="216" len="24"/>
          <note vol="78" pan="0" key="76" pos="240" len="24"/>
          <note vol="78" pan="0" key="73" pos="264" len="24"/>
          <note vol="78" pan="0" key="78" pos="288" len="24"/>
          <note vol="78" pan="0" key="76" pos="312" len="24"/>
          <note vol="78" pan="0" key="80" pos="336" len="24"/>
          <note vol="78" pan="0" key="76" pos="360" len="24"/>
          <note vol="78" pan="0" key="69" pos="384" len="120"/>
          <note vol="78" pan="0" key="68" pos="504" len="24"/>
          <note vol="78" pan="0" key="69" pos="528" len="24"/>
          <note vol="78" pan="0" key="71" pos="552" len="24"/>
          <note vol="78" pan="0" key="73" pos="576" len="72"/>
          <note vol="78" pan="0" key="71" pos="648" len="72"/>
          <note vol="78" pan="0" key="69" pos="720" len="48"/>
          <note vol="78" pan="0" key="68" pos="768" len="24"/>
          <note vol="78" pan="0" key="69" pos="792" len="24"/>
          <note vol="78" pan="0" key="68" pos="816" len="24"/>
          <note vol="78" pan="0" key="64" pos="840" len="48"/>
          <note vol="78" pan="0" key="64" pos="888" len="24"/>
          <note vol="78" pan="0" key="66" pos="912" len="24"/>
          <note vol="78" pan="0" key="68" pos="936" len="24"/>
          <note vol="78" pan="0" key="66" pos="960" len="96"/>
        </pattern>
        <pattern type="0" name="" steps="16" muted="0" pos="12672"/>
        <pattern type="1" name="" steps="16" muted="0" pos="29568">
          <note vol="152" pan="0" key="68" pos="0" len="12"/>
          <note vol="152" pan="0" key="66" pos="12" len="12"/>
          <note vol="152" pan="0" key="64" pos="24" len="12"/>
          <note vol="152" pan="0" key="61" pos="36" len="12"/>
          <note vol="152" pan="0" key="59" pos="48" len="12"/>
          <note vol="152" pan="0" key="61" pos="60" len="12"/>
          <note vol="152" pan="0" key="66" pos="72" len="12"/>
          <note vol="152" pan="0" key="64" pos="84" len="12"/>
          <note vol="152" pan="0" key="61" pos="96" len="12"/>
          <note vol="152" pan="0" key="64" pos="108" len="12"/>
          <note vol="152" pan="0" key="68" pos="120" len="12"/>
          <note vol="152" pan="0" key="66" pos="132" len="12"/>
          <note vol="152" pan="0" key="64" pos="144" len="12"/>
          <note vol="152" pan="0" key="61" pos="156" len="12"/>
          <note vol="152" pan="0" key="64" pos="168" len="12"/>
          <note vol="152" pan="0" key="66" pos="180" len="12"/>
        </pattern>
        <pattern type="1" name="" steps="16" muted="0" pos="29760">
          <note vol="152" pan="0" key="68" pos="0" len="12"/>
          <note vol="152" pan="0" key="66" pos="12" len="12"/>
          <note vol="152" pan="0" key="64" pos="24" len="12"/>
          <note vol="152" pan="0" key="61" pos="36" len="12"/>
          <note vol="152" pan="0" key="59" pos="48" len="12"/>
          <note vol="152" pan="0" key="61" pos="60" len="12"/>
          <note vol="152" pan="0" key="66" pos="72" len="12"/>
          <note vol="152" pan="0" key="64" pos="84" len="12"/>
          <note vol="152" pan="0" key="61" pos="96" len="12"/>
          <note vol="152" pan="0" key="64" pos="108" len="12"/>
          <note vol="152" pan="0" key="71" pos="120" len="12"/>
          <note vol="152" pan="0" key="68" pos="132" len="12"/>
          <note vol="152" pan="0" key="66" pos="144" len="12"/>
          <note vol="152" pan="0" key="68" pos="156" len="12"/>
          <note vol="152" pan="0" key="66" pos="168" len="12"/>
          <note vol="152" pan="0" key="64" pos="180" len="12"/>
        </pattern>
        <pattern type="1" name="" steps="16" muted="0" pos="13824">
          <note vol="78" pan="0" key="69" pos="384" len="120"/>
          <note vol="78" pan="0" key="68" pos="504" len="24"/>
          <note vol="78" pan="0" key="69" pos="528" len="24"/>
          <note vol="78" pan="0" key="71" pos="552" len="24"/>
          <note vol="78" pan="0" key="73" pos="576" len="72"/>
          <note vol="78" pan="0" key="71" pos="648" len="72"/>
          <note vol="78" pan="0" key="69" pos="720" len="48"/>
          <note vol="78" pan="0" key="68" pos="768" len="24"/>
          <note vol="78" pan="0" key="69" pos="792" len="24"/>
          <note vol="78" pan="0" key="68" pos="816" len="24"/>
          <note vol="78" pan="0" key="64" pos="840" len="48"/>
          <note vol="78" pan="0" key="64" pos="888" len="24"/>
          <note vol="78" pan="0" key="66" pos="912" len="24"/>
          <note vol="78" pan="0" key="68" pos="936" len="24"/>
          <note vol="78" pan="0" key="66" pos="960" len="96"/>
        </pattern>
        <pattern type="1" name="" steps="16" muted="0" pos="29952">
          <note vol="100" pan="0" key="73" pos="0" len="12"/>
          <note vol="100" pan="0" key="71" pos="12" len="12"/>
          <note vol="100" pan="0" key="68" pos="24" len="12"/>
          <note vol="100" pan="0" key="66" pos="36" len="12"/>
          <note vol="100" pan="0" key="71" pos="48" len="12"/>
          <note vol="100" pan="0" key="68" pos="60" len="12"/>
          <note vol="100" pan="0" key="66" pos="72" len="12"/>
          <note vol="100" pan="0" key="64" pos="84" len="12"/>
          <note vol="100" pan="0" key="68" pos="96" len="12"/>
          <note vol="100" pan="0" key="66" pos="108" len="12"/>
          <note vol="100" pan="0" key="64" pos="120" len="12"/>
          <note vol="100" pan="0" key="61" pos="132" len="12"/>
          <note vol="100" pan="0" key="64" pos="144" len="12"/>
          <note vol="100" pan="0" key="66" pos="156" len="12"/>
          <note vol="100" pan="0" key="68" pos="168" len="12"/>
          <note vol="100" pan="0" key="71" pos="180" len="12"/>
          <note vol="100" pan="0" key="68" pos="192" len="12"/>
          <note vol="100" pan="0" key="66" pos="204" len="12"/>
          <note vol="100" pan="0" key="64" pos="216" len="12"/>
          <note vol="100" pan="0" key="61" pos="228" len="12"/>
          <note vol="100" pan="0" key="64" pos="240" len="12"/>
          <note vol="100" pan="0" key="61" pos="252" len="12"/>
          <note vol="100" pan="0" key="59" pos="264" len="12"/>
          <note vol="100" pan="0" key="61" pos="276" len="12"/>
          <note vol="100" pan="0" key="59" pos="288" len="12"/>
          <note vol="100" pan="0" key="56" pos="300" len="12"/>
          <note vol="100" pan="0" key="54" pos="312" len="12"/>
          <note vol="100" pan="0" key="56" pos="324" len="12"/>
          <note vol="100" pan="0" key="49" pos="336" len="48"/>
        </pattern>
        <pattern type="1" name="" steps="16" muted="0" pos="30336">
          <note vol="48" pan="0" key="57" pos="0" len="12"/>
          <note vol="48" pan="0" key="57" pos="12" len="12"/>
          <note vol="48" pan="0" key="56" pos="24" len="12"/>
          <note vol="48" pan="0" key="56" pos="36" len="12"/>
          <note vol="48" pan="0" key="54" pos="48" len="12"/>
          <note vol="48" pan="0" key="54" pos="60" len="12"/>
          <note vol="48" pan="0" key="61" pos="72" len="12"/>
          <note vol="48" pan="0" key="61" pos="84" len="12"/>
          <note vol="48" pan="0" key="59" pos="96" len="12"/>
          <note vol="48" pan="0" key="59" pos="108" len="12"/>
          <note vol="48" pan="0" key="57" pos="120" len="12"/>
          <note vol="48" pan="0" key="57" pos="132" len="12"/>
          <note vol="48" pan="0" key="59" pos="144" len="12"/>
          <note vol="48" pan="0" key="59" pos="156" len="12"/>
          <note vol="48" pan="0" key="61" pos="168" len="12"/>
          <note vol="48" pan="0" key="61" pos="180" len="12"/>
          <note vol="48" pan="0" key="62" pos="192" len="48"/>
          <note vol="48" pan="0" key="61" pos="240" len="12"/>
          <note vol="48" pan="0" key="62" pos="252" len="12"/>
          <note vol="48" pan="0" key="64" pos="264" len="12"/>
          <note vol="48" pan="0" key="66" pos="276" len="12"/>
          <note vol="48" pan="0" key="68" pos="288" len="12"/>
          <note vol="48" pan="0" key="66" pos="300" len="12"/>
          <note vol="48" pan="0" key="64" pos="312" len="12"/>
          <note vol="48" pan="0" key="66" pos="324" len="12"/>
          <note vol="48" pan="0" key="69" pos="336" len="12"/>
          <note vol="48" pan="0" key="68" pos="348" len="12"/>
          <note vol="48" pan="0" key="66" pos="360" len="12"/>
          <note vol="48" pan="0" key="68" pos="372" len="12"/>
          <note vol="48" pan="0" key="68" pos="384" len="24"/>
          <note vol="48" pan="0" key="69" pos="408" len="24"/>
          <note vol="48" pan="0" key="66" pos="456" len="48"/>
          <note vol="48" pan="0" key="62" pos="504" len="12"/>
          <note vol="48" pan="0" key="62" pos="516" len="12"/>
          <note vol="48" pan="0" key="66" pos="528" len="12"/>
          <note vol="48" pan="0" key="66" pos="540" len="12"/>
          <note vol="48" pan="0" key="68" pos="552" len="12"/>
          <note vol="48" pan="0" key="68" pos="564" len="12"/>
          <note vol="48" pan="0" key="71" pos="576" len="24"/>
          <note vol="48" pan="0" key="69" pos="600" len="12"/>
          <note vol="48" pan="0" key="71" pos="612" len="12"/>
          <note vol="48" pan="0" key="73" pos="624" len="24"/>
          <note vol="48" pan="0" key="71" pos="648" len="12"/>
          <note vol="48" pan="0" key="73" pos="660" len="12"/>
          <note vol="48" pan="0" key="76" pos="672" len="12"/>
          <note vol="48" pan="0" key="74" pos="684" len="12"/>
          <note vol="48" pan="0" key="73" pos="696" len="12"/>
          <note vol="48" pan="0" key="71" pos="708" len="12"/>
          <note vol="48" pan="0" key="69" pos="720" len="12"/>
          <note vol="48" pan="0" key="68" pos="732" len="12"/>
          <note vol="48" pan="0" key="66" pos="744" len="12"/>
          <note vol="48" pan="0" key="64" pos="756" len="12"/>
        </pattern>
        <pattern type="1" name="" steps="16" muted="0" pos="38016">
          <note vol="100" pan="0" key="69" pos="0" len="12"/>
          <note vol="100" pan="0" key="1" pos="0" len="12"/>
          <note vol="100" pan="0" key="74" pos="12" len="12"/>
          <note vol="100" pan="0" key="78" pos="24" len="12"/>
          <note vol="100" pan="0" key="81" pos="36" len="12"/>
          <note vol="100" pan="0" key="0" pos="36" len="12"/>
          <note vol="100" pan="0" key="86" pos="48" len="12"/>
          <note vol="100" pan="0" key="81" pos="60" len="12"/>
          <note vol="100" pan="0" key="78" pos="72" len="12"/>
          <note vol="100" pan="0" key="1" pos="72" len="12"/>
          <note vol="100" pan="0" key="74" pos="84" len="12"/>
          <note vol="100" pan="0" key="81" pos="96" len="12"/>
          <note vol="100" pan="0" key="0" pos="96" len="12"/>
          <note vol="100" pan="0" key="80" pos="108" len="12"/>
          <note vol="100" pan="0" key="78" pos="120" len="12"/>
          <note vol="100" pan="0" key="1" pos="120" len="12"/>
          <note vol="100" pan="0" key="74" pos="132" len="12"/>
          <note vol="100" pan="0" key="83" pos="144" len="12"/>
          <note vol="100" pan="0" key="0" pos="144" len="12"/>
          <note vol="100" pan="0" key="81" pos="156" len="12"/>
          <note vol="100" pan="0" key="80" pos="168" len="12"/>
          <note vol="100" pan="0" key="1" pos="168" len="12"/>
          <note vol="100" pan="0" key="78" pos="180" len="12"/>
          <note vol="121" pan="0" key="83" pos="192" len="12"/>
          <note vol="121" pan="0" key="85" pos="204" len="12"/>
          <note vol="121" pan="0" key="83" pos="216" len="12"/>
          <note vol="121" pan="0" key="81" pos="228" len="12"/>
          <note vol="121" pan="0" key="80" pos="240" len="12"/>
          <note vol="121" pan="0" key="81" pos="252" len="12"/>
          <note vol="121" pan="0" key="80" pos="264" len="12"/>
          <note vol="121" pan="0" key="78" pos="276" len="12"/>
          <note vol="121" pan="0" key="83" pos="288" len="12"/>
          <note vol="121" pan="0" key="0" pos="288" len="24"/>
          <note vol="121" pan="0" key="85" pos="300" len="12"/>
          <note vol="121" pan="0" key="88" pos="312" len="48"/>
          <note vol="121" pan="0" key="85" pos="360" len="24"/>
          <note vol="100" pan="0" key="81" pos="384" len="24"/>
          <note vol="100" pan="0" key="80" pos="408" len="24"/>
          <note vol="100" pan="0" key="76" pos="432" len="24"/>
          <note vol="100" pan="0" key="81" pos="456" len="24"/>
          <note vol="100" pan="0" key="80" pos="480" len="24"/>
          <note vol="100" pan="0" key="78" pos="504" len="24"/>
          <note vol="100" pan="0" key="76" pos="528" len="24"/>
          <note vol="100" pan="0" key="80" pos="552" len="24"/>
          <note vol="100" pan="0" key="78" pos="576" len="12"/>
          <note vol="100" pan="0" key="0" pos="576" len="12"/>
          <note vol="100" pan="0" key="80" pos="588" len="12"/>
          <note vol="100" pan="0" key="2" pos="588" len="12"/>
          <note vol="100" pan="0" key="78" pos="600" len="48"/>
          <note vol="100" pan="0" key="1" pos="636" len="12"/>
          <note vol="100" pan="0" key="75" pos="648" len="12"/>
          <note vol="100" pan="0" key="76" pos="660" len="12"/>
          <note vol="100" pan="0" key="78" pos="672" len="12"/>
          <note vol="100" pan="0" key="0" pos="672" len="12"/>
          <note vol="100" pan="0" key="76" pos="684" len="12"/>
          <note vol="100" pan="0" key="75" pos="696" len="12"/>
          <note vol="100" pan="0" key="76" pos="708" len="12"/>
          <note vol="100" pan="0" key="1" pos="708" len="12"/>
          <note vol="100" pan="0" key="75" pos="720" len="12"/>
          <note vol="100" pan="0" key="73" pos="732" len="12"/>
          <note vol="100" pan="0" key="71" pos="744" len="12"/>
          <note vol="100" pan="0" key="69" pos="756" len="12"/>
        </pattern>
        <pattern type="1" name="" steps="16" muted="0" pos="3456">
          <note vol="78" pan="0" key="73" pos="0" len="144"/>
          <note vol="78" pan="0" key="0" pos="0" len="144"/>
          <note vol="78" pan="0" key="76" pos="144" len="48"/>
          <note vol="78" pan="0" key="75" pos="192" len="144"/>
          <note vol="78" pan="0" key="80" pos="336" len="48"/>
          <note vol="78" pan="0" key="80" pos="384" len="144"/>
          <note vol="78" pan="0" key="78" pos="528" len="24"/>
          <note vol="78" pan="0" key="76" pos="552" len="24"/>
          <note vol="78" pan="0" key="75" pos="576" len="48"/>
          <note vol="78" pan="0" key="76" pos="624" len="48"/>
          <note vol="78" pan="0" key="71" pos="672" len="48"/>
          <note vol="78" pan="0" key="68" pos="720" len="48"/>
          <note vol="78" pan="0" key="69" pos="768" len="144"/>
          <note vol="78" pan="0" key="76" pos="912" len="48"/>
          <note vol="78" pan="0" key="75" pos="960" len="144"/>
          <note vol="78" pan="0" key="78" pos="1104" len="48"/>
          <note vol="197" pan="0" key="76" pos="1152" len="96"/>
          <note vol="197" pan="0" key="80" pos="1248" len="48"/>
          <note vol="197" pan="0" key="76" pos="1296" len="48"/>
          <note vol="197" pan="0" key="78" pos="1344" len="48"/>
          <note vol="197" pan="0" key="83" pos="1392" len="48"/>
          <note vol="197" pan="0" key="80" pos="1440" len="48"/>
          <note vol="197" pan="0" key="87" pos="1488" len="48"/>
        </pattern>
        <pattern type="1" name="" steps="16" muted="0" pos="43200">
          <note vol="78" pan="0" key="75" pos="960" len="144"/>
          <note vol="78" pan="0" key="78" pos="1104" len="48"/>
          <note vol="78" pan="0" key="77" pos="1152" len="144"/>
          <note vol="78" pan="0" key="82" pos="1296" len="48"/>
          <note vol="78" pan="0" key="82" pos="1344" len="144"/>
          <note vol="78" pan="0" key="80" pos="1488" len="24"/>
          <note vol="78" pan="0" key="78" pos="1512" len="24"/>
          <note vol="78" pan="0" key="77" pos="1536" len="48"/>
          <note vol="78" pan="0" key="78" pos="1584" len="48"/>
          <note vol="78" pan="0" key="73" pos="1632" len="48"/>
          <note vol="78" pan="0" key="70" pos="1680" len="48"/>
          <note vol="78" pan="0" key="71" pos="1728" len="96"/>
          <note vol="78" pan="0" key="75" pos="1824" len="48"/>
          <note vol="78" pan="0" key="78" pos="1872" len="48"/>
          <note vol="78" pan="0" key="78" pos="1920" len="96"/>
          <note vol="78" pan="0" key="77" pos="2016" len="48"/>
          <note vol="78" pan="0" key="78" pos="2064" len="48"/>
          <note vol="78" pan="0" key="85" pos="2112" len="72"/>
          <note vol="78" pan="0" key="83" pos="2184" len="72"/>
          <note vol="78" pan="0" key="82" pos="2256" len="48"/>
          <note vol="78" pan="0" key="80" pos="2304" len="192"/>
          <note vol="78" pan="0" key="78" pos="2496" len="72"/>
          <note vol="78" pan="0" key="77" pos="2568" len="72"/>
          <note vol="78" pan="0" key="78" pos="2640" len="48"/>
          <note vol="78" pan="0" key="82" pos="2688" len="144"/>
          <note vol="78" pan="0" key="77" pos="2832" len="48"/>
          <note vol="78" pan="0" key="75" pos="2880" len="240"/>
          <note vol="78" pan="0" key="78" pos="3120" len="48"/>
          <note vol="78" pan="0" key="80" pos="3168" len="48"/>
          <note vol="78" pan="0" key="82" pos="3216" len="48"/>
          <note vol="78" pan="0" key="83" pos="3264" len="72"/>
          <note vol="78" pan="0" key="82" pos="3336" len="72"/>
          <note vol="78" pan="0" key="80" pos="3408" len="48"/>
          <note vol="78" pan="0" key="78" pos="3456" len="48"/>
          <note vol="78" pan="0" key="75" pos="3504" len="48"/>
          <note vol="78" pan="0" key="78" pos="3552" len="48"/>
          <note vol="78" pan="0" key="82" pos="3600" len="48"/>
          <note vol="78" pan="0" key="80" pos="3648" len="192"/>
        </pattern>
        <pattern type="1" name="" steps="16" muted="0" pos="39552">
          <note vol="78" pan="0" key="73" pos="0" len="12"/>
          <note vol="78" pan="0" key="68" pos="12" len="12"/>
          <note vol="78" pan="0" key="64" pos="24" len="12"/>
          <note vol="78" pan="0" key="61" pos="36" len="12"/>
          <note vol="78" pan="0" key="56" pos="48" len="12"/>
          <note vol="78" pan="0" key="52" pos="60" len="12"/>
          <note vol="78" pan="0" key="56" pos="72" len="12"/>
          <note vol="78" pan="0" key="61" pos="84" len="12"/>
          <note vol="78" pan="0" key="64" pos="96" len="12"/>
          <note vol="78" pan="0" key="68" pos="108" len="12"/>
          <note vol="78" pan="0" key="76" pos="120" len="12"/>
          <note vol="78" pan="0" key="73" pos="132" len="12"/>
          <note vol="78" pan="0" key="68" pos="144" len="12"/>
          <note vol="78" pan="0" key="64" pos="156" len="12"/>
          <note vol="78" pan="0" key="68" pos="168" len="12"/>
          <note vol="78" pan="0" key="73" pos="180" len="12"/>
          <note vol="78" pan="0" key="75" pos="192" len="12"/>
          <note vol="78" pan="0" key="71" pos="204" len="12"/>
          <note vol="78" pan="0" key="68" pos="216" len="12"/>
          <note vol="78" pan="0" key="63" pos="228" len="12"/>
          <note vol="78" pan="0" key="59" pos="240" len="12"/>
          <note vol="78" pan="0" key="56" pos="252" len="12"/>
          <note vol="78" pan="0" key="59" pos="264" len="12"/>
          <note vol="78" pan="0" key="63" pos="276" len="12"/>
          <note vol="78" pan="0" key="68" pos="288" len="12"/>
          <note vol="78" pan="0" key="71" pos="300" len="12"/>
          <note vol="78" pan="0" key="80" pos="312" len="12"/>
          <note vol="78" pan="0" key="75" pos="324" len="12"/>
          <note vol="78" pan="0" key="71" pos="336" len="12"/>
          <note vol="78" pan="0" key="68" pos="348" len="12"/>
          <note vol="78" pan="0" key="71" pos="360" len="12"/>
          <note vol="78" pan="0" key="75" pos="372" len="12"/>
          <note vol="78" pan="0" key="80" pos="384" len="24"/>
          <note vol="78" pan="0" key="76" pos="408" len="24"/>
          <note vol="78" pan="0" key="69" pos="432" len="24"/>
          <note vol="78" pan="0" key="76" pos="456" len="24"/>
          <note vol="78" pan="0" key="75" pos="480" len="24"/>
          <note vol="78" pan="0" key="69" pos="504" len="24"/>
          <note vol="78" pan="0" key="78" pos="528" len="24"/>
          <note vol="78" pan="0" key="76" pos="552" len="24"/>
          <note vol="78" pan="0" key="75" pos="576" len="48"/>
          <note vol="78" pan="0" key="76" pos="624" len="48"/>
          <note vol="78" pan="0" key="76" pos="672" len="12"/>
          <note vol="78" pan="0" key="78" pos="684" len="12"/>
          <note vol="78" pan="0" key="76" pos="696" len="12"/>
          <note vol="78" pan="0" key="75" pos="708" len="12"/>
          <note vol="78" pan="0" key="76" pos="720" len="12"/>
          <note vol="78" pan="0" key="75" pos="732" len="12"/>
          <note vol="78" pan="0" key="73" pos="744" len="12"/>
          <note vol="78" pan="0" key="71" pos="756" len="12"/>
        </pattern>
        <pattern type="1" name="" steps="16" muted="0" pos="40320">
          <note vol="78" pan="0" key="69" pos="0" len="12"/>
          <note vol="200" pan="0" key="1" pos="0" len="48"/>
          <note vol="78" pan="0" key="68" pos="12" len="12"/>
          <note vol="78" pan="0" key="66" pos="24" len="12"/>
          <note vol="78" pan="0" key="68" pos="36" len="12"/>
          <note vol="78" pan="0" key="69" pos="48" len="12"/>
          <note vol="78" pan="0" key="68" pos="60" len="12"/>
          <note vol="78" pan="0" key="66" pos="72" len="12"/>
          <note vol="78" pan="0" key="68" pos="84" len="12"/>
          <note vol="78" pan="0" key="73" pos="96" len="12"/>
          <note vol="78" pan="0" key="71" pos="108" len="12"/>
          <note vol="78" pan="0" key="69" pos="120" len="12"/>
          <note vol="78" pan="0" key="71" pos="132" len="12"/>
          <note vol="78" pan="0" key="73" pos="144" len="12"/>
          <note vol="78" pan="0" key="75" pos="156" len="12"/>
          <note vol="78" pan="0" key="76" pos="168" len="12"/>
          <note vol="78" pan="0" key="75" pos="180" len="12"/>
          <note vol="78" pan="0" key="76" pos="192" len="12"/>
          <note vol="78" pan="0" key="75" pos="204" len="12"/>
          <note vol="78" pan="0" key="73" pos="216" len="12"/>
          <note vol="78" pan="0" key="75" pos="228" len="12"/>
          <note vol="78" pan="0" key="76" pos="240" len="12"/>
          <note vol="200" pan="0" key="0" pos="240" len="48"/>
          <note vol="78" pan="0" key="75" pos="252" len="12"/>
          <note vol="78" pan="0" key="73" pos="264" len="12"/>
          <note vol="78" pan="0" key="75" pos="276" len="12"/>
          <note vol="78" pan="0" key="76" pos="288" len="12"/>
          <note vol="78" pan="0" key="78" pos="300" len="12"/>
          <note vol="78" pan="0" key="80" pos="312" len="12"/>
          <note vol="78" pan="0" key="81" pos="324" len="12"/>
          <note vol="78" pan="0" key="83" pos="336" len="12"/>
          <note vol="78" pan="0" key="76" pos="348" len="12"/>
          <note vol="200" pan="0" key="1" pos="348" len="12"/>
          <note vol="78" pan="0" key="75" pos="360" len="12"/>
          <note vol="78" pan="0" key="76" pos="372" len="12"/>
        </pattern>
        <pattern type="1" name="" steps="16" muted="0" pos="40704">
          <note vol="78" pan="0" key="83" pos="0" len="48"/>
          <note vol="100" pan="0" key="0" pos="0" len="48"/>
          <note vol="78" pan="0" key="81" pos="48" len="12"/>
          <note vol="78" pan="0" key="83" pos="60" len="12"/>
          <note vol="78" pan="0" key="81" pos="72" len="48"/>
          <note vol="78" pan="0" key="80" pos="120" len="12"/>
          <note vol="78" pan="0" key="81" pos="132" len="12"/>
          <note vol="78" pan="0" key="80" pos="144" len="12"/>
          <note vol="78" pan="0" key="0" pos="144" len="12"/>
          <note vol="78" pan="0" key="78" pos="156" len="12"/>
          <note vol="78" pan="0" key="1" pos="156" len="12"/>
          <note vol="78" pan="0" key="76" pos="168" len="12"/>
          <note vol="78" pan="0" key="80" pos="180" len="12"/>
          <note vol="78" pan="0" key="78" pos="192" len="48"/>
          <note vol="78" pan="0" key="0" pos="192" len="12"/>
          <note vol="78" pan="0" key="76" pos="240" len="12"/>
          <note vol="78" pan="0" key="1" pos="240" len="12"/>
          <note vol="78" pan="0" key="75" pos="252" len="12"/>
          <note vol="78" pan="0" key="76" pos="264" len="12"/>
          <note vol="78" pan="0" key="78" pos="276" len="12"/>
          <note vol="78" pan="0" key="80" pos="288" len="12"/>
          <note vol="78" pan="0" key="0" pos="288" len="12"/>
          <note vol="78" pan="0" key="81" pos="300" len="12"/>
          <note vol="78" pan="0" key="80" pos="312" len="12"/>
          <note vol="78" pan="0" key="78" pos="324" len="12"/>
          <note vol="78" pan="0" key="80" pos="336" len="12"/>
          <note vol="78" pan="0" key="78" pos="348" len="12"/>
          <note vol="78" pan="0" key="76" pos="360" len="12"/>
          <note vol="78" pan="0" key="1" pos="360" len="12"/>
          <note vol="78" pan="0" key="75" pos="372" len="12"/>
        </pattern>
        <pattern type="1" name="" steps="16" muted="0" pos="41472">
          <note vol="78" pan="0" key="82" pos="0" len="12"/>
          <note vol="78" pan="0" key="0" pos="0" len="12"/>
          <note vol="78" pan="0" key="78" pos="12" len="12"/>
          <note vol="78" pan="0" key="73" pos="24" len="12"/>
          <note vol="78" pan="0" key="1" pos="24" len="12"/>
          <note vol="78" pan="0" key="78" pos="36" len="12"/>
          <note vol="78" pan="0" key="70" pos="48" len="12"/>
          <note vol="78" pan="0" key="78" pos="60" len="12"/>
          <note vol="78" pan="0" key="73" pos="72" len="12"/>
          <note vol="78" pan="0" key="78" pos="84" len="12"/>
          <note vol="78" pan="0" key="82" pos="96" len="12"/>
          <note vol="78" pan="0" key="78" pos="108" len="12"/>
          <note vol="78" pan="0" key="73" pos="120" len="12"/>
          <note vol="78" pan="0" key="78" pos="132" len="12"/>
          <note vol="78" pan="0" key="70" pos="144" len="12"/>
          <note vol="78" pan="0" key="78" pos="156" len="12"/>
          <note vol="78" pan="0" key="73" pos="168" len="12"/>
          <note vol="78" pan="0" key="78" pos="180" len="12"/>
        </pattern>
        <pattern type="1" name="" steps="16" muted="0" pos="41664">
          <note vol="78" pan="0" key="82" pos="0" len="12"/>
          <note vol="78" pan="0" key="0" pos="0" len="12"/>
          <note vol="78" pan="0" key="78" pos="12" len="12"/>
          <note vol="78" pan="0" key="73" pos="24" len="12"/>
          <note vol="78" pan="0" key="1" pos="24" len="12"/>
          <note vol="78" pan="0" key="78" pos="36" len="12"/>
          <note vol="78" pan="0" key="70" pos="48" len="12"/>
          <note vol="78" pan="0" key="78" pos="60" len="12"/>
          <note vol="78" pan="0" key="73" pos="72" len="12"/>
          <note vol="78" pan="0" key="78" pos="84" len="12"/>
          <note vol="78" pan="0" key="82" pos="96" len="12"/>
          <note vol="78" pan="0" key="78" pos="108" len="12"/>
          <note vol="78" pan="0" key="73" pos="120" len="12"/>
          <note vol="78" pan="0" key="78" pos="132" len="12"/>
          <note vol="78" pan="0" key="70" pos="144" len="12"/>
          <note vol="78" pan="0" key="78" pos="156" len="12"/>
          <note vol="78" pan="0" key="73" pos="168" len="12"/>
          <note vol="78" pan="0" key="78" pos="180" len="12"/>
        </pattern>
        <pattern type="1" name="" steps="16" muted="0" pos="41856">
          <note vol="78" pan="0" key="86" pos="0" len="24"/>
          <note vol="78" pan="0" key="0" pos="0" len="48"/>
          <note vol="78" pan="0" key="81" pos="24" len="24"/>
          <note vol="78" pan="0" key="76" pos="48" len="24"/>
          <note vol="78" pan="0" key="83" pos="72" len="24"/>
          <note vol="78" pan="0" key="85" pos="96" len="24"/>
          <note vol="78" pan="0" key="86" pos="120" len="24"/>
          <note vol="78" pan="0" key="85" pos="144" len="24"/>
          <note vol="78" pan="0" key="83" pos="168" len="24"/>
          <note vol="78" pan="0" key="85" pos="192" len="12"/>
          <note vol="78" pan="0" key="0" pos="192" len="24"/>
          <note vol="78" pan="0" key="81" pos="204" len="12"/>
          <note vol="78" pan="0" key="76" pos="216" len="12"/>
          <note vol="78" pan="0" key="1" pos="216" len="24"/>
          <note vol="78" pan="0" key="73" pos="228" len="12"/>
          <note vol="78" pan="0" key="69" pos="240" len="12"/>
          <note vol="78" pan="0" key="73" pos="252" len="12"/>
          <note vol="78" pan="0" key="81" pos="264" len="12"/>
          <note vol="78" pan="0" key="0" pos="264" len="24"/>
          <note vol="78" pan="0" key="76" pos="276" len="12"/>
          <note vol="78" pan="0" key="73" pos="288" len="12"/>
          <note vol="78" pan="0" key="1" pos="288" len="24"/>
          <note vol="78" pan="0" key="69" pos="300" len="12"/>
          <note vol="78" pan="0" key="73" pos="312" len="12"/>
          <note vol="78" pan="0" key="76" pos="324" len="12"/>
          <note vol="78" pan="0" key="85" pos="336" len="12"/>
          <note vol="78" pan="0" key="0" pos="336" len="24"/>
          <note vol="78" pan="0" key="83" pos="348" len="12"/>
          <note vol="78" pan="0" key="81" pos="360" len="12"/>
          <note vol="78" pan="0" key="1" pos="360" len="24"/>
          <note vol="78" pan="0" key="83" pos="372" len="12"/>
          <note vol="78" pan="0" key="87" pos="384" len="384"/>
          <note vol="78" pan="0" key="0" pos="384" len="24"/>
        </pattern>
        <pattern type="1" name="" steps="16" muted="0" pos="56448">
          <note vol="102" pan="0" key="75" pos="0" len="384"/>
          <note vol="102" pan="0" key="54" pos="0" len="12"/>
          <note vol="102" pan="0" key="58" pos="12" len="12"/>
          <note vol="100" pan="0" key="63" pos="24" len="12"/>
          <note vol="100" pan="0" key="66" pos="36" len="12"/>
          <note vol="100" pan="0" key="70" pos="48" len="12"/>
          <note vol="100" pan="0" key="75" pos="60" len="12"/>
          <note vol="100" pan="0" key="78" pos="72" len="12"/>
          <note vol="100" pan="0" key="82" pos="84" len="12"/>
          <note vol="100" pan="0" key="87" pos="96" len="12"/>
          <note vol="100" pan="0" key="82" pos="108" len="12"/>
          <note vol="100" pan="0" key="78" pos="120" len="12"/>
          <note vol="100" pan="0" key="75" pos="132" len="12"/>
          <note vol="100" pan="0" key="70" pos="144" len="12"/>
          <note vol="100" pan="0" key="66" pos="156" len="12"/>
          <note vol="100" pan="0" key="63" pos="168" len="12"/>
          <note vol="100" pan="0" key="58" pos="180" len="12"/>
        </pattern>
        <pattern type="1" name="" steps="16" muted="0" pos="56832">
          <note vol="100" pan="0" key="53" pos="0" len="12"/>
          <note vol="100" pan="0" key="56" pos="12" len="12"/>
          <note vol="100" pan="0" key="61" pos="24" len="12"/>
          <note vol="100" pan="0" key="65" pos="36" len="12"/>
          <note vol="100" pan="0" key="68" pos="48" len="12"/>
          <note vol="100" pan="0" key="73" pos="60" len="12"/>
          <note vol="100" pan="0" key="77" pos="72" len="12"/>
          <note vol="100" pan="0" key="80" pos="84" len="12"/>
          <note vol="100" pan="0" key="85" pos="96" len="12"/>
          <note vol="100" pan="0" key="80" pos="108" len="12"/>
          <note vol="100" pan="0" key="77" pos="120" len="12"/>
          <note vol="100" pan="0" key="73" pos="132" len="12"/>
          <note vol="100" pan="0" key="68" pos="144" len="12"/>
          <note vol="100" pan="0" key="65" pos="156" len="12"/>
          <note vol="100" pan="0" key="61" pos="168" len="12"/>
          <note vol="100" pan="0" key="56" pos="180" len="12"/>
        </pattern>
        <pattern type="1" name="" steps="16" muted="0" pos="57024">
          <note vol="100" pan="0" key="53" pos="0" len="12"/>
          <note vol="100" pan="0" key="56" pos="12" len="12"/>
          <note vol="100" pan="0" key="61" pos="24" len="12"/>
          <note vol="100" pan="0" key="65" pos="36" len="12"/>
          <note vol="100" pan="0" key="68" pos="48" len="12"/>
          <note vol="100" pan="0" key="73" pos="60" len="12"/>
          <note vol="100" pan="0" key="77" pos="72" len="12"/>
          <note vol="100" pan="0" key="80" pos="84" len="12"/>
          <note vol="100" pan="0" key="85" pos="96" len="12"/>
          <note vol="100" pan="0" key="80" pos="108" len="12"/>
          <note vol="100" pan="0" key="77" pos="120" len="12"/>
          <note vol="100" pan="0" key="73" pos="132" len="12"/>
          <note vol="100" pan="0" key="68" pos="144" len="12"/>
          <note vol="100" pan="0" key="65" pos="156" len="12"/>
          <note vol="100" pan="0" key="61" pos="168" len="12"/>
          <note vol="100" pan="0" key="56" pos="180" len="12"/>
        </pattern>
        <pattern type="1" name="" steps="16" muted="0" pos="56640">
          <note vol="100" pan="0" key="54" pos="0" len="12"/>
          <note vol="100" pan="0" key="58" pos="12" len="12"/>
          <note vol="100" pan="0" key="63" pos="24" len="12"/>
          <note vol="100" pan="0" key="66" pos="36" len="12"/>
          <note vol="100" pan="0" key="70" pos="48" len="12"/>
          <note vol="100" pan="0" key="75" pos="60" len="12"/>
          <note vol="100" pan="0" key="78" pos="72" len="12"/>
          <note vol="100" pan="0" key="82" pos="84" len="12"/>
          <note vol="100" pan="0" key="87" pos="96" len="12"/>
          <note vol="100" pan="0" key="82" pos="108" len="12"/>
          <note vol="100" pan="0" key="78" pos="120" len="12"/>
          <note vol="100" pan="0" key="75" pos="132" len="12"/>
          <note vol="100" pan="0" key="70" pos="144" len="12"/>
          <note vol="100" pan="0" key="66" pos="156" len="12"/>
          <note vol="100" pan="0" key="63" pos="168" len="12"/>
          <note vol="100" pan="0" key="58" pos="180" len="12"/>
        </pattern>
        <pattern type="1" name="" steps="16" muted="0" pos="57216">
          <note vol="100" pan="0" key="51" pos="0" len="12"/>
          <note vol="100" pan="0" key="56" pos="12" len="12"/>
          <note vol="100" pan="0" key="60" pos="24" len="12"/>
          <note vol="100" pan="0" key="63" pos="36" len="12"/>
          <note vol="100" pan="0" key="68" pos="48" len="12"/>
          <note vol="100" pan="0" key="72" pos="60" len="12"/>
          <note vol="100" pan="0" key="75" pos="72" len="12"/>
          <note vol="100" pan="0" key="80" pos="84" len="12"/>
          <note vol="100" pan="0" key="84" pos="96" len="12"/>
          <note vol="100" pan="0" key="80" pos="108" len="12"/>
          <note vol="100" pan="0" key="75" pos="120" len="12"/>
          <note vol="100" pan="0" key="72" pos="132" len="12"/>
          <note vol="100" pan="0" key="68" pos="144" len="12"/>
          <note vol="100" pan="0" key="63" pos="156" len="12"/>
          <note vol="100" pan="0" key="60" pos="168" len="12"/>
          <note vol="100" pan="0" key="56" pos="180" len="12"/>
        </pattern>
        <pattern type="1" name="" steps="16" muted="0" pos="57600">
          <note vol="100" pan="0" key="52" pos="0" len="12"/>
          <note vol="100" pan="0" key="56" pos="12" len="12"/>
          <note vol="100" pan="0" key="59" pos="24" len="12"/>
          <note vol="100" pan="0" key="64" pos="36" len="12"/>
          <note vol="100" pan="0" key="68" pos="48" len="12"/>
          <note vol="100" pan="0" key="71" pos="60" len="12"/>
          <note vol="100" pan="0" key="76" pos="72" len="12"/>
          <note vol="100" pan="0" key="80" pos="84" len="12"/>
          <note vol="100" pan="0" key="83" pos="96" len="12"/>
          <note vol="100" pan="0" key="80" pos="108" len="12"/>
          <note vol="100" pan="0" key="76" pos="120" len="12"/>
          <note vol="100" pan="0" key="71" pos="132" len="12"/>
          <note vol="100" pan="0" key="68" pos="144" len="12"/>
          <note vol="100" pan="0" key="64" pos="156" len="12"/>
          <note vol="100" pan="0" key="59" pos="168" len="12"/>
          <note vol="100" pan="0" key="56" pos="180" len="12"/>
        </pattern>
        <pattern type="1" name="" steps="16" muted="0" pos="57792">
          <note vol="100" pan="0" key="52" pos="0" len="12"/>
          <note vol="100" pan="0" key="56" pos="12" len="12"/>
          <note vol="100" pan="0" key="59" pos="24" len="12"/>
          <note vol="100" pan="0" key="64" pos="36" len="12"/>
          <note vol="100" pan="0" key="68" pos="48" len="12"/>
          <note vol="100" pan="0" key="71" pos="60" len="12"/>
          <note vol="100" pan="0" key="76" pos="72" len="12"/>
          <note vol="100" pan="0" key="80" pos="84" len="12"/>
          <note vol="100" pan="0" key="83" pos="96" len="12"/>
          <note vol="100" pan="0" key="80" pos="108" len="12"/>
          <note vol="100" pan="0" key="76" pos="120" len="12"/>
          <note vol="100" pan="0" key="71" pos="132" len="12"/>
          <note vol="100" pan="0" key="68" pos="144" len="12"/>
          <note vol="100" pan="0" key="64" pos="156" len="12"/>
          <note vol="100" pan="0" key="59" pos="168" len="12"/>
          <note vol="100" pan="0" key="56" pos="180" len="12"/>
        </pattern>
        <pattern type="1" name="" steps="16" muted="0" pos="57984">
          <note vol="100" pan="0" key="54" pos="0" len="12"/>
          <note vol="100" pan="0" key="58" pos="12" len="12"/>
          <note vol="100" pan="0" key="63" pos="24" len="12"/>
          <note vol="100" pan="0" key="66" pos="36" len="12"/>
          <note vol="100" pan="0" key="70" pos="48" len="12"/>
          <note vol="100" pan="0" key="75" pos="60" len="12"/>
          <note vol="100" pan="0" key="78" pos="72" len="12"/>
          <note vol="100" pan="0" key="82" pos="84" len="12"/>
          <note vol="100" pan="0" key="87" pos="96" len="12"/>
          <note vol="100" pan="0" key="82" pos="108" len="12"/>
          <note vol="100" pan="0" key="78" pos="120" len="12"/>
          <note vol="100" pan="0" key="75" pos="132" len="12"/>
          <note vol="100" pan="0" key="70" pos="144" len="12"/>
          <note vol="100" pan="0" key="66" pos="156" len="12"/>
          <note vol="100" pan="0" key="63" pos="168" len="12"/>
          <note vol="100" pan="0" key="58" pos="180" len="12"/>
        </pattern>
        <pattern type="1" name="" steps="16" muted="0" pos="58176">
          <note vol="100" pan="0" key="54" pos="0" len="12"/>
          <note vol="100" pan="0" key="58" pos="12" len="12"/>
          <note vol="100" pan="0" key="63" pos="24" len="12"/>
          <note vol="100" pan="0" key="66" pos="36" len="12"/>
          <note vol="100" pan="0" key="70" pos="48" len="12"/>
          <note vol="100" pan="0" key="75" pos="60" len="12"/>
          <note vol="100" pan="0" key="78" pos="72" len="12"/>
          <note vol="100" pan="0" key="82" pos="84" len="12"/>
          <note vol="100" pan="0" key="87" pos="96" len="12"/>
          <note vol="100" pan="0" key="82" pos="108" len="12"/>
          <note vol="100" pan="0" key="78" pos="120" len="12"/>
          <note vol="100" pan="0" key="75" pos="132" len="12"/>
          <note vol="100" pan="0" key="70" pos="144" len="12"/>
          <note vol="100" pan="0" key="66" pos="156" len="12"/>
          <note vol="100" pan="0" key="63" pos="168" len="12"/>
          <note vol="100" pan="0" key="58" pos="180" len="12"/>
        </pattern>
        <pattern type="1" name="" steps="16" muted="0" pos="58368">
          <note vol="100" pan="0" key="53" pos="0" len="12"/>
          <note vol="100" pan="0" key="56" pos="12" len="12"/>
          <note vol="100" pan="0" key="61" pos="24" len="12"/>
          <note vol="100" pan="0" key="65" pos="36" len="12"/>
          <note vol="100" pan="0" key="68" pos="48" len="12"/>
          <note vol="100" pan="0" key="73" pos="60" len="12"/>
          <note vol="100" pan="0" key="77" pos="72" len="12"/>
          <note vol="100" pan="0" key="80" pos="84" len="12"/>
          <note vol="100" pan="0" key="85" pos="96" len="12"/>
          <note vol="100" pan="0" key="80" pos="108" len="12"/>
          <note vol="100" pan="0" key="77" pos="120" len="12"/>
          <note vol="100" pan="0" key="73" pos="132" len="12"/>
          <note vol="100" pan="0" key="68" pos="144" len="12"/>
          <note vol="100" pan="0" key="65" pos="156" len="12"/>
          <note vol="100" pan="0" key="61" pos="168" len="12"/>
          <note vol="100" pan="0" key="56" pos="180" len="12"/>
        </pattern>
        <pattern type="1" name="" steps="16" muted="0" pos="58560">
          <note vol="100" pan="0" key="53" pos="0" len="12"/>
          <note vol="100" pan="0" key="56" pos="12" len="12"/>
          <note vol="100" pan="0" key="61" pos="24" len="12"/>
          <note vol="100" pan="0" key="65" pos="36" len="12"/>
          <note vol="100" pan="0" key="68" pos="48" len="12"/>
          <note vol="100" pan="0" key="73" pos="60" len="12"/>
          <note vol="100" pan="0" key="77" pos="72" len="12"/>
          <note vol="100" pan="0" key="80" pos="84" len="12"/>
          <note vol="100" pan="0" key="85" pos="96" len="12"/>
          <note vol="100" pan="0" key="80" pos="108" len="12"/>
          <note vol="100" pan="0" key="77" pos="120" len="12"/>
          <note vol="100" pan="0" key="73" pos="132" len="12"/>
          <note vol="100" pan="0" key="68" pos="144" len="12"/>
          <note vol="100" pan="0" key="65" pos="156" len="12"/>
          <note vol="100" pan="0" key="61" pos="168" len="12"/>
          <note vol="100" pan="0" key="56" pos="180" len="12"/>
        </pattern>
        <pattern type="1" name="" steps="16" muted="0" pos="59136">
          <note vol="100" pan="0" key="52" pos="0" len="12"/>
          <note vol="100" pan="0" key="56" pos="12" len="12"/>
          <note vol="100" pan="0" key="59" pos="24" len="12"/>
          <note vol="100" pan="0" key="64" pos="36" len="12"/>
          <note vol="100" pan="0" key="68" pos="48" len="12"/>
          <note vol="100" pan="0" key="71" pos="60" len="12"/>
          <note vol="100" pan="0" key="76" pos="72" len="12"/>
          <note vol="100" pan="0" key="80" pos="84" len="12"/>
          <note vol="100" pan="0" key="83" pos="96" len="12"/>
          <note vol="100" pan="0" key="80" pos="108" len="12"/>
          <note vol="100" pan="0" key="76" pos="120" len="12"/>
          <note vol="100" pan="0" key="71" pos="132" len="12"/>
          <note vol="100" pan="0" key="68" pos="144" len="12"/>
          <note vol="100" pan="0" key="64" pos="156" len="12"/>
          <note vol="100" pan="0" key="59" pos="168" len="12"/>
          <note vol="100" pan="0" key="56" pos="180" len="12"/>
        </pattern>
        <pattern type="1" name="" steps="16" muted="0" pos="59328">
          <note vol="100" pan="0" key="52" pos="0" len="12"/>
          <note vol="100" pan="0" key="56" pos="12" len="12"/>
          <note vol="100" pan="0" key="59" pos="24" len="12"/>
          <note vol="100" pan="0" key="64" pos="36" len="12"/>
          <note vol="100" pan="0" key="68" pos="48" len="12"/>
          <note vol="100" pan="0" key="71" pos="60" len="12"/>
          <note vol="100" pan="0" key="76" pos="72" len="12"/>
          <note vol="100" pan="0" key="80" pos="84" len="12"/>
          <note vol="100" pan="0" key="83" pos="96" len="12"/>
          <note vol="100" pan="0" key="80" pos="108" len="12"/>
          <note vol="100" pan="0" key="76" pos="120" len="12"/>
          <note vol="100" pan="0" key="71" pos="132" len="12"/>
          <note vol="100" pan="0" key="68" pos="144" len="12"/>
          <note vol="100" pan="0" key="64" pos="156" len="12"/>
          <note vol="100" pan="0" key="59" pos="168" len="12"/>
          <note vol="100" pan="0" key="56" pos="180" len="12"/>
        </pattern>
        <pattern type="1" name="" steps="16" muted="0" pos="59520">
          <note vol="100" pan="0" key="54" pos="0" len="12"/>
          <note vol="100" pan="0" key="58" pos="12" len="12"/>
          <note vol="100" pan="0" key="63" pos="24" len="12"/>
          <note vol="100" pan="0" key="66" pos="36" len="12"/>
          <note vol="100" pan="0" key="70" pos="48" len="12"/>
          <note vol="100" pan="0" key="75" pos="60" len="12"/>
          <note vol="100" pan="0" key="78" pos="72" len="12"/>
          <note vol="100" pan="0" key="82" pos="84" len="12"/>
          <note vol="100" pan="0" key="87" pos="96" len="12"/>
          <note vol="100" pan="0" key="82" pos="108" len="12"/>
          <note vol="100" pan="0" key="78" pos="120" len="12"/>
          <note vol="100" pan="0" key="75" pos="132" len="12"/>
          <note vol="100" pan="0" key="70" pos="144" len="12"/>
          <note vol="100" pan="0" key="66" pos="156" len="12"/>
          <note vol="100" pan="0" key="63" pos="168" len="12"/>
          <note vol="100" pan="0" key="58" pos="180" len="12"/>
        </pattern>
        <pattern type="1" name="" steps="16" muted="0" pos="59904">
          <note vol="100" pan="0" key="53" pos="0" len="12"/>
          <note vol="100" pan="0" key="56" pos="12" len="12"/>
          <note vol="100" pan="0" key="61" pos="24" len="12"/>
          <note vol="100" pan="0" key="65" pos="36" len="12"/>
          <note vol="100" pan="0" key="68" pos="48" len="12"/>
          <note vol="100" pan="0" key="73" pos="60" len="12"/>
          <note vol="100" pan="0" key="77" pos="72" len="12"/>
          <note vol="100" pan="0" key="80" pos="84" len="12"/>
          <note vol="100" pan="0" key="85" pos="96" len="12"/>
          <note vol="100" pan="0" key="80" pos="108" len="12"/>
          <note vol="100" pan="0" key="77" pos="120" len="12"/>
          <note vol="100" pan="0" key="73" pos="132" len="12"/>
          <note vol="100" pan="0" key="68" pos="144" len="12"/>
          <note vol="100" pan="0" key="65" pos="156" len="12"/>
          <note vol="100" pan="0" key="61" pos="168" len="12"/>
          <note vol="100" pan="0" key="56" pos="180" len="12"/>
        </pattern>
        <pattern type="1" name="" steps="16" muted="0" pos="60672">
          <note vol="100" pan="0" key="52" pos="0" len="12"/>
          <note vol="100" pan="0" key="56" pos="12" len="12"/>
          <note vol="100" pan="0" key="59" pos="24" len="12"/>
          <note vol="100" pan="0" key="64" pos="36" len="12"/>
          <note vol="100" pan="0" key="68" pos="48" len="12"/>
          <note vol="100" pan="0" key="71" pos="60" len="12"/>
          <note vol="100" pan="0" key="76" pos="72" len="12"/>
          <note vol="100" pan="0" key="80" pos="84" len="12"/>
          <note vol="100" pan="0" key="83" pos="96" len="12"/>
          <note vol="100" pan="0" key="80" pos="108" len="12"/>
          <note vol="100" pan="0" key="76" pos="120" len="12"/>
          <note vol="100" pan="0" key="71" pos="132" len="12"/>
          <note vol="100" pan="0" key="68" pos="144" len="12"/>
          <note vol="100" pan="0" key="64" pos="156" len="12"/>
          <note vol="100" pan="0" key="59" pos="168" len="12"/>
          <note vol="100" pan="0" key="56" pos="180" len="12"/>
        </pattern>
        <pattern type="1" name="" steps="16" muted="0" pos="59712">
          <note vol="100" pan="0" key="54" pos="0" len="12"/>
          <note vol="100" pan="0" key="58" pos="12" len="12"/>
          <note vol="100" pan="0" key="63" pos="24" len="12"/>
          <note vol="100" pan="0" key="66" pos="36" len="12"/>
          <note vol="100" pan="0" key="70" pos="48" len="12"/>
          <note vol="100" pan="0" key="75" pos="60" len="12"/>
          <note vol="100" pan="0" key="78" pos="72" len="12"/>
          <note vol="100" pan="0" key="82" pos="84" len="12"/>
          <note vol="100" pan="0" key="87" pos="96" len="12"/>
          <note vol="100" pan="0" key="82" pos="108" len="12"/>
          <note vol="100" pan="0" key="78" pos="120" len="12"/>
          <note vol="100" pan="0" key="75" pos="132" len="12"/>
          <note vol="100" pan="0" key="70" pos="144" len="12"/>
          <note vol="100" pan="0" key="66" pos="156" len="12"/>
          <note vol="100" pan="0" key="63" pos="168" len="12"/>
          <note vol="100" pan="0" key="58" pos="180" len="12"/>
        </pattern>
        <pattern type="1" name="" steps="16" muted="0" pos="60096">
          <note vol="100" pan="0" key="53" pos="0" len="12"/>
          <note vol="100" pan="0" key="56" pos="12" len="12"/>
          <note vol="100" pan="0" key="61" pos="24" len="12"/>
          <note vol="100" pan="0" key="65" pos="36" len="12"/>
          <note vol="100" pan="0" key="68" pos="48" len="12"/>
          <note vol="100" pan="0" key="73" pos="60" len="12"/>
          <note vol="100" pan="0" key="77" pos="72" len="12"/>
          <note vol="100" pan="0" key="80" pos="84" len="12"/>
          <note vol="100" pan="0" key="85" pos="96" len="12"/>
          <note vol="100" pan="0" key="80" pos="108" len="12"/>
          <note vol="100" pan="0" key="77" pos="120" len="12"/>
          <note vol="100" pan="0" key="73" pos="132" len="12"/>
          <note vol="100" pan="0" key="68" pos="144" len="12"/>
          <note vol="100" pan="0" key="65" pos="156" len="12"/>
          <note vol="100" pan="0" key="61" pos="168" len="12"/>
          <note vol="100" pan="0" key="56" pos="180" len="12"/>
        </pattern>
        <pattern type="1" name="" steps="16" muted="0" pos="60864">
          <note vol="100" pan="0" key="52" pos="0" len="12"/>
          <note vol="100" pan="0" key="56" pos="12" len="12"/>
          <note vol="100" pan="0" key="59" pos="24" len="12"/>
          <note vol="100" pan="0" key="64" pos="36" len="12"/>
          <note vol="100" pan="0" key="68" pos="48" len="12"/>
          <note vol="100" pan="0" key="71" pos="60" len="12"/>
          <note vol="100" pan="0" key="76" pos="72" len="12"/>
          <note vol="100" pan="0" key="80" pos="84" len="12"/>
          <note vol="100" pan="0" key="83" pos="96" len="12"/>
          <note vol="100" pan="0" key="80" pos="108" len="12"/>
          <note vol="100" pan="0" key="76" pos="120" len="12"/>
          <note vol="100" pan="0" key="71" pos="132" len="12"/>
          <note vol="100" pan="0" key="68" pos="144" len="12"/>
          <note vol="100" pan="0" key="64" pos="156" len="12"/>
          <note vol="100" pan="0" key="59" pos="168" len="12"/>
          <note vol="100" pan="0" key="56" pos="180" len="12"/>
        </pattern>
        <pattern type="1" name="" steps="16" muted="0" pos="61056">
          <note vol="100" pan="0" key="54" pos="0" len="12"/>
          <note vol="100" pan="0" key="58" pos="12" len="12"/>
          <note vol="100" pan="0" key="63" pos="24" len="12"/>
          <note vol="100" pan="0" key="66" pos="36" len="12"/>
          <note vol="100" pan="0" key="70" pos="48" len="12"/>
          <note vol="100" pan="0" key="75" pos="60" len="12"/>
          <note vol="100" pan="0" key="78" pos="72" len="12"/>
          <note vol="100" pan="0" key="82" pos="84" len="12"/>
          <note vol="100" pan="0" key="87" pos="96" len="12"/>
          <note vol="100" pan="0" key="82" pos="108" len="12"/>
          <note vol="100" pan="0" key="78" pos="120" len="12"/>
          <note vol="100" pan="0" key="75" pos="132" len="12"/>
          <note vol="100" pan="0" key="70" pos="144" len="12"/>
          <note vol="100" pan="0" key="66" pos="156" len="12"/>
          <note vol="100" pan="0" key="63" pos="168" len="12"/>
          <note vol="100" pan="0" key="58" pos="180" len="12"/>
        </pattern>
        <pattern type="1" name="" steps="16" muted="0" pos="61440">
          <note vol="100" pan="0" key="53" pos="0" len="12"/>
          <note vol="100" pan="0" key="56" pos="12" len="12"/>
          <note vol="100" pan="0" key="61" pos="24" len="12"/>
          <note vol="100" pan="0" key="65" pos="36" len="12"/>
          <note vol="100" pan="0" key="68" pos="48" len="12"/>
          <note vol="100" pan="0" key="73" pos="60" len="12"/>
          <note vol="100" pan="0" key="77" pos="72" len="12"/>
          <note vol="100" pan="0" key="80" pos="84" len="12"/>
          <note vol="100" pan="0" key="85" pos="96" len="12"/>
          <note vol="100" pan="0" key="80" pos="108" len="12"/>
          <note vol="100" pan="0" key="77" pos="120" len="12"/>
          <note vol="100" pan="0" key="73" pos="132" len="12"/>
          <note vol="100" pan="0" key="68" pos="144" len="12"/>
          <note vol="100" pan="0" key="65" pos="156" len="12"/>
          <note vol="100" pan="0" key="61" pos="168" len="12"/>
          <note vol="100" pan="0" key="56" pos="180" len="12"/>
        </pattern>
        <pattern type="1" name="" steps="16" muted="0" pos="62208">
          <note vol="100" pan="0" key="52" pos="0" len="12"/>
          <note vol="100" pan="0" key="56" pos="12" len="12"/>
          <note vol="100" pan="0" key="59" pos="24" len="12"/>
          <note vol="100" pan="0" key="64" pos="36" len="12"/>
          <note vol="100" pan="0" key="68" pos="48" len="12"/>
          <note vol="100" pan="0" key="71" pos="60" len="12"/>
          <note vol="100" pan="0" key="76" pos="72" len="12"/>
          <note vol="100" pan="0" key="80" pos="84" len="12"/>
          <note vol="100" pan="0" key="83" pos="96" len="12"/>
          <note vol="100" pan="0" key="80" pos="108" len="12"/>
          <note vol="100" pan="0" key="76" pos="120" len="12"/>
          <note vol="100" pan="0" key="71" pos="132" len="12"/>
          <note vol="100" pan="0" key="68" pos="144" len="12"/>
          <note vol="100" pan="0" key="64" pos="156" len="12"/>
          <note vol="100" pan="0" key="59" pos="168" len="12"/>
          <note vol="100" pan="0" key="56" pos="180" len="12"/>
        </pattern>
        <pattern type="1" name="" steps="16" muted="0" pos="61248">
          <note vol="100" pan="0" key="54" pos="0" len="12"/>
          <note vol="100" pan="0" key="58" pos="12" len="12"/>
          <note vol="100" pan="0" key="63" pos="24" len="12"/>
          <note vol="100" pan="0" key="66" pos="36" len="12"/>
          <note vol="100" pan="0" key="70" pos="48" len="12"/>
          <note vol="100" pan="0" key="75" pos="60" len="12"/>
          <note vol="100" pan="0" key="78" pos="72" len="12"/>
          <note vol="100" pan="0" key="82" pos="84" len="12"/>
          <note vol="100" pan="0" key="87" pos="96" len="12"/>
          <note vol="100" pan="0" key="82" pos="108" len="12"/>
          <note vol="100" pan="0" key="78" pos="120" len="12"/>
          <note vol="100" pan="0" key="75" pos="132" len="12"/>
          <note vol="100" pan="0" key="70" pos="144" len="12"/>
          <note vol="100" pan="0" key="66" pos="156" len="12"/>
          <note vol="100" pan="0" key="63" pos="168" len="12"/>
          <note vol="100" pan="0" key="58" pos="180" len="12"/>
        </pattern>
        <pattern type="1" name="" steps="16" muted="0" pos="61632">
          <note vol="100" pan="0" key="53" pos="0" len="12"/>
          <note vol="100" pan="0" key="56" pos="12" len="12"/>
          <note vol="100" pan="0" key="61" pos="24" len="12"/>
          <note vol="100" pan="0" key="65" pos="36" len="12"/>
          <note vol="100" pan="0" key="68" pos="48" len="12"/>
          <note vol="100" pan="0" key="73" pos="60" len="12"/>
          <note vol="100" pan="0" key="77" pos="72" len="12"/>
          <note vol="100" pan="0" key="80" pos="84" len="12"/>
          <note vol="100" pan="0" key="85" pos="96" len="12"/>
          <note vol="100" pan="0" key="80" pos="108" len="12"/>
          <note vol="100" pan="0" key="77" pos="120" len="12"/>
          <note vol="100" pan="0" key="73" pos="132" len="12"/>
          <note vol="100" pan="0" key="68" pos="144" len="12"/>
          <note vol="100" pan="0" key="65" pos="156" len="12"/>
          <note vol="100" pan="0" key="61" pos="168" len="12"/>
          <note vol="100" pan="0" key="56" pos="180" len="12"/>
        </pattern>
        <pattern type="1" name="" steps="16" muted="0" pos="62400">
          <note vol="100" pan="0" key="52" pos="0" len="12"/>
          <note vol="100" pan="0" key="56" pos="12" len="12"/>
          <note vol="100" pan="0" key="59" pos="24" len="12"/>
          <note vol="100" pan="0" key="64" pos="36" len="12"/>
          <note vol="100" pan="0" key="68" pos="48" len="12"/>
          <note vol="100" pan="0" key="71" pos="60" len="12"/>
          <note vol="100" pan="0" key="76" pos="72" len="12"/>
          <note vol="100" pan="0" key="80" pos="84" len="12"/>
          <note vol="100" pan="0" key="83" pos="96" len="12"/>
          <note vol="100" pan="0" key="80" pos="108" len="12"/>
          <note vol="100" pan="0" key="76" pos="120" len="12"/>
          <note vol="100" pan="0" key="71" pos="132" len="12"/>
          <note vol="100" pan="0" key="68" pos="144" len="12"/>
          <note vol="100" pan="0" key="64" pos="156" len="12"/>
          <note vol="100" pan="0" key="59" pos="168" len="12"/>
          <note vol="100" pan="0" key="56" pos="180" len="12"/>
        </pattern>
        <pattern type="1" name="" steps="16" muted="0" pos="62592">
          <note vol="97" pan="0" key="75" pos="0" len="144"/>
          <note vol="97" pan="0" key="78" pos="144" len="48"/>
          <note vol="97" pan="0" key="77" pos="192" len="144"/>
          <note vol="97" pan="0" key="82" pos="336" len="48"/>
          <note vol="97" pan="0" key="82" pos="384" len="144"/>
          <note vol="97" pan="0" key="80" pos="528" len="24"/>
          <note vol="97" pan="0" key="78" pos="552" len="24"/>
          <note vol="97" pan="0" key="77" pos="576" len="48"/>
          <note vol="97" pan="0" key="78" pos="624" len="48"/>
          <note vol="97" pan="0" key="73" pos="672" len="12"/>
          <note vol="97" pan="0" key="75" pos="684" len="12"/>
          <note vol="97" pan="0" key="73" pos="696" len="12"/>
          <note vol="97" pan="0" key="70" pos="708" len="12"/>
          <note vol="97" pan="0" key="73" pos="720" len="12"/>
          <note vol="97" pan="0" key="70" pos="732" len="12"/>
          <note vol="97" pan="0" key="68" pos="744" len="12"/>
          <note vol="97" pan="0" key="70" pos="756" len="12"/>
          <note vol="97" pan="0" key="71" pos="768" len="96"/>
          <note vol="97" pan="0" key="75" pos="864" len="48"/>
          <note vol="97" pan="0" key="78" pos="912" len="48"/>
          <note vol="97" pan="0" key="78" pos="960" len="96"/>
          <note vol="97" pan="0" key="77" pos="1056" len="48"/>
          <note vol="97" pan="0" key="78" pos="1104" len="48"/>
          <note vol="96" pan="0" key="78" pos="1152" len="12"/>
          <note vol="96" pan="0" key="75" pos="1164" len="12"/>
          <note vol="96" pan="0" key="77" pos="1176" len="12"/>
          <note vol="96" pan="0" key="78" pos="1188" len="12"/>
          <note vol="96" pan="0" key="80" pos="1200" len="12"/>
          <note vol="96" pan="0" key="77" pos="1212" len="12"/>
          <note vol="96" pan="0" key="78" pos="1224" len="12"/>
          <note vol="96" pan="0" key="80" pos="1236" len="12"/>
          <note vol="96" pan="0" key="82" pos="1248" len="12"/>
          <note vol="96" pan="0" key="78" pos="1260" len="12"/>
          <note vol="96" pan="0" key="80" pos="1272" len="12"/>
          <note vol="96" pan="0" key="82" pos="1284" len="12"/>
          <note vol="96" pan="0" key="83" pos="1296" len="12"/>
          <note vol="96" pan="0" key="80" pos="1308" len="12"/>
          <note vol="96" pan="0" key="82" pos="1320" len="12"/>
          <note vol="96" pan="0" key="83" pos="1332" len="12"/>
          <note vol="96" pan="0" key="85" pos="1344" len="12"/>
          <note vol="96" pan="0" key="83" pos="1356" len="12"/>
          <note vol="96" pan="0" key="82" pos="1368" len="12"/>
          <note vol="96" pan="0" key="80" pos="1380" len="12"/>
          <note vol="96" pan="0" key="78" pos="1392" len="12"/>
          <note vol="96" pan="0" key="80" pos="1404" len="12"/>
          <note vol="96" pan="0" key="83" pos="1416" len="12"/>
          <note vol="96" pan="0" key="82" pos="1428" len="12"/>
          <note vol="96" pan="0" key="80" pos="1440" len="12"/>
          <note vol="96" pan="0" key="78" pos="1452" len="12"/>
          <note vol="96" pan="0" key="77" pos="1464" len="12"/>
          <note vol="96" pan="0" key="78" pos="1476" len="12"/>
          <note vol="96" pan="0" key="82" pos="1488" len="12"/>
          <note vol="96" pan="0" key="80" pos="1500" len="12"/>
          <note vol="96" pan="0" key="78" pos="1512" len="12"/>
          <note vol="96" pan="0" key="77" pos="1524" len="12"/>
          <note vol="96" pan="0" key="75" pos="1536" len="12"/>
          <note vol="96" pan="0" key="77" pos="1548" len="12"/>
          <note vol="96" pan="0" key="80" pos="1560" len="12"/>
          <note vol="96" pan="0" key="78" pos="1572" len="12"/>
          <note vol="96" pan="0" key="77" pos="1584" len="12"/>
          <note vol="96" pan="0" key="75" pos="1596" len="12"/>
          <note vol="96" pan="0" key="73" pos="1608" len="12"/>
          <note vol="96" pan="0" key="75" pos="1620" len="12"/>
          <note vol="96" pan="0" key="78" pos="1632" len="12"/>
          <note vol="96" pan="0" key="77" pos="1644" len="12"/>
          <note vol="96" pan="0" key="75" pos="1656" len="12"/>
          <note vol="96" pan="0" key="73" pos="1668" len="12"/>
          <note vol="96" pan="0" key="77" pos="1680" len="12"/>
          <note vol="96" pan="0" key="75" pos="1692" len="12"/>
          <note vol="96" pan="0" key="73" pos="1704" len="12"/>
          <note vol="96" pan="0" key="75" pos="1716" len="12"/>
          <note vol="96" pan="0" key="87" pos="1728" len="192"/>
        </pattern>
        <pattern type="1" name="" steps="16" muted="0" pos="57408">
          <note vol="100" pan="0" key="51" pos="0" len="12"/>
          <note vol="100" pan="0" key="56" pos="12" len="12"/>
          <note vol="100" pan="0" key="60" pos="24" len="12"/>
          <note vol="100" pan="0" key="63" pos="36" len="12"/>
          <note vol="100" pan="0" key="68" pos="48" len="12"/>
          <note vol="100" pan="0" key="72" pos="60" len="12"/>
          <note vol="100" pan="0" key="75" pos="72" len="12"/>
          <note vol="100" pan="0" key="80" pos="84" len="12"/>
          <note vol="100" pan="0" key="84" pos="96" len="12"/>
          <note vol="100" pan="0" key="80" pos="108" len="12"/>
          <note vol="100" pan="0" key="75" pos="120" len="12"/>
          <note vol="100" pan="0" key="72" pos="132" len="12"/>
          <note vol="100" pan="0" key="68" pos="144" len="12"/>
          <note vol="100" pan="0" key="63" pos="156" len="12"/>
          <note vol="100" pan="0" key="60" pos="168" len="12"/>
          <note vol="100" pan="0" key="56" pos="180" len="12"/>
        </pattern>
        <pattern type="1" name="" steps="16" muted="0" pos="58752">
          <note vol="100" pan="0" key="51" pos="0" len="12"/>
          <note vol="100" pan="0" key="56" pos="12" len="12"/>
          <note vol="100" pan="0" key="60" pos="24" len="12"/>
          <note vol="100" pan="0" key="63" pos="36" len="12"/>
          <note vol="100" pan="0" key="68" pos="48" len="12"/>
          <note vol="100" pan="0" key="72" pos="60" len="12"/>
          <note vol="100" pan="0" key="75" pos="72" len="12"/>
          <note vol="100" pan="0" key="80" pos="84" len="12"/>
          <note vol="100" pan="0" key="84" pos="96" len="12"/>
          <note vol="100" pan="0" key="80" pos="108" len="12"/>
          <note vol="100" pan="0" key="75" pos="120" len="12"/>
          <note vol="100" pan="0" key="72" pos="132" len="12"/>
          <note vol="100" pan="0" key="68" pos="144" len="12"/>
          <note vol="100" pan="0" key="63" pos="156" len="12"/>
          <note vol="100" pan="0" key="60" pos="168" len="12"/>
          <note vol="100" pan="0" key="56" pos="180" len="12"/>
        </pattern>
        <pattern type="1" name="" steps="16" muted="0" pos="58944">
          <note vol="100" pan="0" key="51" pos="0" len="12"/>
          <note vol="100" pan="0" key="56" pos="12" len="12"/>
          <note vol="100" pan="0" key="60" pos="24" len="12"/>
          <note vol="100" pan="0" key="63" pos="36" len="12"/>
          <note vol="100" pan="0" key="68" pos="48" len="12"/>
          <note vol="100" pan="0" key="72" pos="60" len="12"/>
          <note vol="100" pan="0" key="75" pos="72" len="12"/>
          <note vol="100" pan="0" key="80" pos="84" len="12"/>
          <note vol="100" pan="0" key="84" pos="96" len="12"/>
          <note vol="100" pan="0" key="80" pos="108" len="12"/>
          <note vol="100" pan="0" key="75" pos="120" len="12"/>
          <note vol="100" pan="0" key="72" pos="132" len="12"/>
          <note vol="100" pan="0" key="68" pos="144" len="12"/>
          <note vol="100" pan="0" key="63" pos="156" len="12"/>
          <note vol="100" pan="0" key="60" pos="168" len="12"/>
          <note vol="100" pan="0" key="56" pos="180" len="12"/>
        </pattern>
        <pattern type="1" name="" steps="16" muted="0" pos="60288">
          <note vol="100" pan="0" key="51" pos="0" len="12"/>
          <note vol="100" pan="0" key="56" pos="12" len="12"/>
          <note vol="100" pan="0" key="60" pos="24" len="12"/>
          <note vol="100" pan="0" key="63" pos="36" len="12"/>
          <note vol="100" pan="0" key="68" pos="48" len="12"/>
          <note vol="100" pan="0" key="72" pos="60" len="12"/>
          <note vol="100" pan="0" key="75" pos="72" len="12"/>
          <note vol="100" pan="0" key="80" pos="84" len="12"/>
          <note vol="100" pan="0" key="84" pos="96" len="12"/>
          <note vol="100" pan="0" key="80" pos="108" len="12"/>
          <note vol="100" pan="0" key="75" pos="120" len="12"/>
          <note vol="100" pan="0" key="72" pos="132" len="12"/>
          <note vol="100" pan="0" key="68" pos="144" len="12"/>
          <note vol="100" pan="0" key="63" pos="156" len="12"/>
          <note vol="100" pan="0" key="60" pos="168" len="12"/>
          <note vol="100" pan="0" key="56" pos="180" len="12"/>
        </pattern>
        <pattern type="1" name="" steps="16" muted="0" pos="60480">
          <note vol="100" pan="0" key="51" pos="0" len="12"/>
          <note vol="100" pan="0" key="56" pos="12" len="12"/>
          <note vol="100" pan="0" key="60" pos="24" len="12"/>
          <note vol="100" pan="0" key="63" pos="36" len="12"/>
          <note vol="100" pan="0" key="68" pos="48" len="12"/>
          <note vol="100" pan="0" key="72" pos="60" len="12"/>
          <note vol="100" pan="0" key="75" pos="72" len="12"/>
          <note vol="100" pan="0" key="80" pos="84" len="12"/>
          <note vol="100" pan="0" key="84" pos="96" len="12"/>
          <note vol="100" pan="0" key="80" pos="108" len="12"/>
          <note vol="100" pan="0" key="75" pos="120" len="12"/>
          <note vol="100" pan="0" key="72" pos="132" len="12"/>
          <note vol="100" pan="0" key="68" pos="144" len="12"/>
          <note vol="100" pan="0" key="63" pos="156" len="12"/>
          <note vol="100" pan="0" key="60" pos="168" len="12"/>
          <note vol="100" pan="0" key="56" pos="180" len="12"/>
        </pattern>
        <pattern type="1" name="" steps="16" muted="0" pos="61824">
          <note vol="100" pan="0" key="51" pos="0" len="12"/>
          <note vol="100" pan="0" key="56" pos="12" len="12"/>
          <note vol="100" pan="0" key="60" pos="24" len="12"/>
          <note vol="100" pan="0" key="63" pos="36" len="12"/>
          <note vol="100" pan="0" key="68" pos="48" len="12"/>
          <note vol="100" pan="0" key="72" pos="60" len="12"/>
          <note vol="100" pan="0" key="75" pos="72" len="12"/>
          <note vol="100" pan="0" key="80" pos="84" len="12"/>
          <note vol="100" pan="0" key="84" pos="96" len="12"/>
          <note vol="100" pan="0" key="80" pos="108" len="12"/>
          <note vol="100" pan="0" key="75" pos="120" len="12"/>
          <note vol="100" pan="0" key="72" pos="132" len="12"/>
          <note vol="100" pan="0" key="68" pos="144" len="12"/>
          <note vol="100" pan="0" key="63" pos="156" len="12"/>
          <note vol="100" pan="0" key="60" pos="168" len="12"/>
          <note vol="100" pan="0" key="56" pos="180" len="12"/>
        </pattern>
        <pattern type="1" name="" steps="16" muted="0" pos="62016">
          <note vol="100" pan="0" key="51" pos="0" len="12"/>
          <note vol="100" pan="0" key="56" pos="12" len="12"/>
          <note vol="100" pan="0" key="60" pos="24" len="12"/>
          <note vol="100" pan="0" key="63" pos="36" len="12"/>
          <note vol="100" pan="0" key="68" pos="48" len="12"/>
          <note vol="100" pan="0" key="72" pos="60" len="12"/>
          <note vol="100" pan="0" key="75" pos="72" len="12"/>
          <note vol="100" pan="0" key="80" pos="84" len="12"/>
          <note vol="100" pan="0" key="84" pos="96" len="12"/>
          <note vol="100" pan="0" key="80" pos="108" len="12"/>
          <note vol="100" pan="0" key="75" pos="120" len="12"/>
          <note vol="100" pan="0" key="72" pos="132" len="12"/>
          <note vol="100" pan="0" key="68" pos="144" len="12"/>
          <note vol="100" pan="0" key="63" pos="156" len="12"/>
          <note vol="100" pan="0" key="60" pos="168" len="12"/>
          <note vol="100" pan="0" key="56" pos="180" len="12"/>
        </pattern>
        <pattern type="1" name="" steps="16" muted="0" pos="41088">
          <note vol="78" pan="0" key="80" pos="0" len="12"/>
          <note vol="78" pan="0" key="76" pos="12" len="12"/>
          <note vol="78" pan="0" key="75" pos="24" len="12"/>
          <note vol="78" pan="0" key="76" pos="36" len="12"/>
          <note vol="78" pan="0" key="73" pos="48" len="12"/>
          <note vol="78" pan="0" key="76" pos="60" len="12"/>
          <note vol="78" pan="0" key="75" pos="72" len="12"/>
          <note vol="78" pan="0" key="76" pos="84" len="12"/>
          <note vol="78" pan="0" key="80" pos="96" len="12"/>
          <note vol="78" pan="0" key="76" pos="108" len="12"/>
          <note vol="78" pan="0" key="75" pos="120" len="12"/>
          <note vol="78" pan="0" key="76" pos="132" len="12"/>
          <note vol="78" pan="0" key="73" pos="144" len="12"/>
          <note vol="78" pan="0" key="76" pos="156" len="12"/>
          <note vol="78" pan="0" key="75" pos="168" len="12"/>
          <note vol="78" pan="0" key="76" pos="180" len="12"/>
          <note vol="78" pan="0" key="80" pos="192" len="12"/>
          <note vol="78" pan="0" key="75" pos="204" len="12"/>
          <note vol="78" pan="0" key="73" pos="216" len="12"/>
          <note vol="78" pan="0" key="75" pos="228" len="12"/>
          <note vol="78" pan="0" key="71" pos="240" len="12"/>
          <note vol="78" pan="0" key="75" pos="252" len="12"/>
          <note vol="78" pan="0" key="73" pos="264" len="12"/>
          <note vol="78" pan="0" key="75" pos="276" len="12"/>
          <note vol="78" pan="0" key="80" pos="288" len="12"/>
          <note vol="78" pan="0" key="75" pos="300" len="12"/>
          <note vol="78" pan="0" key="73" pos="312" len="12"/>
          <note vol="78" pan="0" key="75" pos="324" len="12"/>
          <note vol="78" pan="0" key="71" pos="336" len="12"/>
          <note vol="78" pan="0" key="75" pos="348" len="12"/>
          <note vol="78" pan="0" key="73" pos="360" len="12"/>
          <note vol="78" pan="0" key="75" pos="372" len="12"/>
        </pattern>
        <pattern type="1" name="" steps="16" muted="0" pos="53376">
          <note vol="100" pan="0" key="75" pos="0" len="192"/>
          <note vol="100" pan="0" key="73" pos="192" len="192"/>
          <note vol="100" pan="0" key="70" pos="384" len="288"/>
          <note vol="100" pan="0" key="70" pos="672" len="96"/>
          <note vol="100" pan="0" key="82" pos="768" len="192"/>
          <note vol="100" pan="0" key="80" pos="960" len="192"/>
          <note vol="100" pan="0" key="75" pos="1152" len="384"/>
          <note vol="100" pan="0" key="75" pos="1536" len="192"/>
          <note vol="100" pan="0" key="77" pos="1728" len="192"/>
          <note vol="100" pan="0" key="78" pos="1920" len="192"/>
          <note vol="100" pan="0" key="82" pos="2112" len="96"/>
          <note vol="100" pan="0" key="80" pos="2208" len="96"/>
          <note vol="100" pan="0" key="80" pos="2304" len="192"/>
          <note vol="100" pan="0" key="75" pos="2496" len="144"/>
          <note vol="100" pan="0" key="75" pos="2640" len="24"/>
          <note vol="100" pan="0" key="77" pos="2664" len="24"/>
          <note vol="100" pan="0" key="78" pos="2688" len="192"/>
          <note vol="100" pan="0" key="80" pos="2880" len="96"/>
          <note vol="100" pan="0" key="85" pos="2976" len="96"/>
        </pattern>
      </track>
      <track type="0" name="TB_hit_C5_v4_rr1.wav" solo="0" muted="0" mutedBeforeSolo="0">
        <instrumenttrack usemasterpitch="1" pitchrange="1" pitch="0" vol="26.7" basenote="60" pan="0" fxch="22">
          <instrument name="audiofileprocessor">
            <audiofileprocessor amp="100" lframe="0" interp="1" reversed="0" src="/home/pass/samples/VSCO-2-CE-SFZ/VSCO-2-CE-SFZ/Percussion/TB_hit_C5_v4_rr1.wav" sframe="0" eframe="1" stutter="0" looped="0">
              <key/>
            </audiofileprocessor>
          </instrument>
          <eldata fwet="0" fres="0.5" ftype="0" fcut="14000">
            <elvol x100="0" lspd_numerator="4" amt="1" lspd="0.1" lpdel="0" dec="2" lspd_syncmode="0" att="0" ctlenvamt="0" pdel="0" latt="0" sustain="1" lspd_denominator="4" hold="0.5" lamt="0" userwavefile="" lshp="0" rel="0.32"/>
            <elcut x100="0" lspd_numerator="4" amt="0" lspd="0.1" lpdel="0" dec="0.5" lspd_syncmode="0" att="0" ctlenvamt="0" pdel="0" latt="0" sustain="0.5" lspd_denominator="4" hold="0.5" lamt="0" userwavefile="" lshp="0" rel="0.1"/>
            <elres x100="0" lspd_numerator="4" amt="0" lspd="0.1" lpdel="0" dec="0.5" lspd_syncmode="0" att="0" ctlenvamt="0" pdel="0" latt="0" sustain="0.5" lspd_denominator="4" hold="0.5" lamt="0" userwavefile="" lshp="0" rel="0.1"/>
          </eldata>
          <chordcreator chordrange="1" chord="0" chord-enabled="0"/>
          <arpeggiator arprange="1" arptime_syncmode="0" arpskip="0" arpmiss="0" arptime="200" arpdir="0" arpmode="0" arptime_denominator="4" arp-enabled="0" arp="0" arpgate="100" arpcycle="0" arptime_numerator="4"/>
          <midiport inputcontroller="0" outputcontroller="0" outputprogram="1" basevelocity="63" outputchannel="1" writable="0" inputchannel="0" readable="0" fixedinputvelocity="-1" fixedoutputvelocity="-1" fixedoutputnote="-1"/>
          <fxchain numofeffects="0" enabled="1"/>
        </instrumenttrack>
        <pattern type="1" name="" steps="16" muted="0" pos="384">
          <note vol="197" pan="0" key="49" pos="0" len="384"/>
          <note vol="155" pan="0" key="49" pos="48" len="336"/>
        </pattern>
        <pattern type="1" name="" steps="16" muted="0" pos="1920">
          <note vol="195" pan="0" key="49" pos="0" len="24"/>
          <note vol="195" pan="0" key="49" pos="72" len="24"/>
          <note vol="195" pan="0" key="49" pos="144" len="24"/>
          <note vol="195" pan="0" key="49" pos="216" len="24"/>
          <note vol="195" pan="0" key="49" pos="288" len="24"/>
          <note vol="195" pan="0" key="49" pos="312" len="24"/>
          <note vol="195" pan="0" key="49" pos="360" len="24"/>
        </pattern>
        <pattern type="1" name="" steps="16" muted="0" pos="3456">
          <note vol="197" pan="0" key="61" pos="0" len="144"/>
          <note vol="197" pan="0" key="64" pos="144" len="48"/>
          <note vol="197" pan="0" key="63" pos="192" len="144"/>
          <note vol="197" pan="0" key="68" pos="336" len="48"/>
          <note vol="197" pan="0" key="68" pos="384" len="144"/>
          <note vol="197" pan="0" key="66" pos="528" len="24"/>
          <note vol="197" pan="0" key="64" pos="552" len="24"/>
          <note vol="197" pan="0" key="63" pos="576" len="48"/>
          <note vol="197" pan="0" key="64" pos="624" len="48"/>
          <note vol="197" pan="0" key="59" pos="672" len="48"/>
          <note vol="197" pan="0" key="56" pos="720" len="48"/>
          <note vol="197" pan="0" key="57" pos="768" len="144"/>
          <note vol="197" pan="0" key="64" pos="912" len="48"/>
          <note vol="197" pan="0" key="63" pos="960" len="144"/>
          <note vol="197" pan="0" key="66" pos="1104" len="48"/>
          <note vol="197" pan="0" key="64" pos="1152" len="96"/>
          <note vol="197" pan="0" key="68" pos="1248" len="48"/>
          <note vol="197" pan="0" key="64" pos="1296" len="48"/>
          <note vol="197" pan="0" key="66" pos="1344" len="48"/>
          <note vol="197" pan="0" key="71" pos="1392" len="48"/>
          <note vol="197" pan="0" key="68" pos="1440" len="48"/>
          <note vol="197" pan="0" key="75" pos="1488" len="48"/>
        </pattern>
        <pattern type="1" name="" steps="16" muted="0" pos="24960">
          <note vol="197" pan="0" key="61" pos="0" len="192"/>
          <note vol="197" pan="0" key="59" pos="192" len="192"/>
          <note vol="197" pan="0" key="56" pos="384" len="288"/>
          <note vol="197" pan="0" key="56" pos="672" len="96"/>
          <note vol="197" pan="0" key="68" pos="768" len="192"/>
          <note vol="197" pan="0" key="66" pos="960" len="192"/>
          <note vol="197" pan="0" key="61" pos="1152" len="384"/>
          <note vol="197" pan="0" key="61" pos="1536" len="192"/>
          <note vol="197" pan="0" key="63" pos="1728" len="192"/>
          <note vol="197" pan="0" key="64" pos="1920" len="192"/>
          <note vol="197" pan="0" key="68" pos="2112" len="96"/>
          <note vol="197" pan="0" key="66" pos="2208" len="96"/>
          <note vol="197" pan="0" key="66" pos="2304" len="192"/>
          <note vol="197" pan="0" key="61" pos="2496" len="144"/>
          <note vol="197" pan="0" key="61" pos="2640" len="24"/>
          <note vol="197" pan="0" key="63" pos="2664" len="24"/>
          <note vol="197" pan="0" key="64" pos="2688" len="192"/>
          <note vol="197" pan="0" key="64" pos="2880" len="96"/>
          <note vol="197" pan="0" key="68" pos="2976" len="96"/>
          <note vol="197" pan="0" key="73" pos="3072" len="384"/>
          <note vol="197" pan="0" key="73" pos="3456" len="384"/>
        </pattern>
        <pattern type="1" name="" steps="16" muted="0" pos="8064">
          <note vol="97" pan="0" key="61" pos="0" len="192"/>
          <note vol="97" pan="0" key="56" pos="192" len="192"/>
          <note vol="97" pan="0" key="57" pos="384" len="192"/>
          <note vol="97" pan="0" key="59" pos="576" len="192"/>
          <note vol="97" pan="0" key="54" pos="768" len="192"/>
          <note vol="97" pan="0" key="56" pos="960" len="192"/>
          <note vol="97" pan="0" key="57" pos="1152" len="192"/>
          <note vol="97" pan="0" key="59" pos="1344" len="96"/>
          <note vol="97" pan="0" key="60" pos="1440" len="96"/>
          <note vol="97" pan="0" key="61" pos="1536" len="192"/>
          <note vol="97" pan="0" key="59" pos="1728" len="192"/>
          <note vol="97" pan="0" key="58" pos="1920" len="192"/>
          <note vol="97" pan="0" key="50" pos="2304" len="192"/>
          <note vol="97" pan="0" key="57" pos="2496" len="192"/>
          <note vol="97" pan="0" key="59" pos="2688" len="192"/>
        </pattern>
        <pattern type="1" name="" steps="16" muted="0" pos="31872">
          <note vol="200" pan="0" key="56" pos="0" len="192"/>
          <note vol="200" pan="0" key="57" pos="192" len="192"/>
          <note vol="200" pan="0" key="59" pos="384" len="192"/>
          <note vol="200" pan="0" key="54" pos="576" len="192"/>
          <note vol="200" pan="0" key="56" pos="768" len="192"/>
          <note vol="200" pan="0" key="57" pos="960" len="192"/>
          <note vol="200" pan="0" key="59" pos="1152" len="192"/>
          <note vol="200" pan="0" key="63" pos="1344" len="192"/>
          <note vol="200" pan="0" key="61" pos="1536" len="192"/>
          <note vol="200" pan="0" key="61" pos="1920" len="192"/>
          <note vol="200" pan="0" key="64" pos="2112" len="192"/>
          <note vol="200" pan="0" key="62" pos="2304" len="192"/>
          <note vol="200" pan="0" key="61" pos="2688" len="192"/>
          <note vol="200" pan="0" key="66" pos="2880" len="192"/>
        </pattern>
        <pattern type="1" name="" steps="16" muted="0" pos="34944">
          <note vol="197" pan="0" key="61" pos="0" len="144"/>
          <note vol="197" pan="0" key="64" pos="144" len="48"/>
          <note vol="197" pan="0" key="63" pos="192" len="144"/>
          <note vol="197" pan="0" key="68" pos="336" len="48"/>
          <note vol="197" pan="0" key="68" pos="384" len="144"/>
          <note vol="197" pan="0" key="66" pos="528" len="24"/>
          <note vol="197" pan="0" key="64" pos="552" len="24"/>
          <note vol="197" pan="0" key="63" pos="576" len="48"/>
          <note vol="197" pan="0" key="64" pos="624" len="48"/>
          <note vol="197" pan="0" key="59" pos="672" len="48"/>
          <note vol="197" pan="0" key="56" pos="720" len="48"/>
          <note vol="197" pan="0" key="57" pos="768" len="144"/>
          <note vol="197" pan="0" key="64" pos="912" len="48"/>
          <note vol="197" pan="0" key="63" pos="960" len="144"/>
          <note vol="197" pan="0" key="66" pos="1104" len="48"/>
          <note vol="197" pan="0" key="64" pos="1152" len="96"/>
          <note vol="197" pan="0" key="68" pos="1248" len="48"/>
          <note vol="197" pan="0" key="64" pos="1296" len="48"/>
          <note vol="197" pan="0" key="66" pos="1344" len="48"/>
          <note vol="197" pan="0" key="71" pos="1392" len="48"/>
          <note vol="197" pan="0" key="68" pos="1440" len="48"/>
          <note vol="197" pan="0" key="75" pos="1488" len="48"/>
        </pattern>
        <pattern type="1" name="" steps="16" muted="0" pos="50304">
          <note vol="197" pan="0" key="63" pos="0" len="192"/>
          <note vol="197" pan="0" key="61" pos="192" len="192"/>
          <note vol="197" pan="0" key="58" pos="384" len="288"/>
          <note vol="197" pan="0" key="58" pos="672" len="96"/>
          <note vol="197" pan="0" key="63" pos="768" len="192"/>
          <note vol="197" pan="0" key="61" pos="960" len="192"/>
          <note vol="197" pan="0" key="58" pos="1152" len="384"/>
          <note vol="197" pan="0" key="58" pos="1536" len="192"/>
          <note vol="197" pan="0" key="59" pos="1728" len="192"/>
          <note vol="197" pan="0" key="61" pos="1920" len="192"/>
          <note vol="197" pan="0" key="66" pos="2112" len="192"/>
          <note vol="197" pan="0" key="63" pos="2304" len="384"/>
        </pattern>
        <pattern type="1" name="" steps="16" muted="0" pos="53376">
          <note vol="197" pan="0" key="63" pos="0" len="192"/>
          <note vol="197" pan="0" key="61" pos="192" len="192"/>
          <note vol="197" pan="0" key="58" pos="384" len="288"/>
          <note vol="197" pan="0" key="58" pos="672" len="96"/>
          <note vol="197" pan="0" key="70" pos="768" len="192"/>
          <note vol="197" pan="0" key="68" pos="960" len="192"/>
          <note vol="197" pan="0" key="63" pos="1152" len="384"/>
          <note vol="197" pan="0" key="63" pos="1536" len="192"/>
          <note vol="197" pan="0" key="65" pos="1728" len="192"/>
          <note vol="197" pan="0" key="66" pos="1920" len="192"/>
          <note vol="197" pan="0" key="70" pos="2112" len="96"/>
          <note vol="197" pan="0" key="68" pos="2208" len="96"/>
          <note vol="197" pan="0" key="68" pos="2304" len="192"/>
          <note vol="197" pan="0" key="63" pos="2496" len="144"/>
          <note vol="197" pan="0" key="63" pos="2640" len="24"/>
          <note vol="197" pan="0" key="65" pos="2664" len="24"/>
          <note vol="197" pan="0" key="66" pos="2688" len="192"/>
          <note vol="197" pan="0" key="68" pos="2880" len="96"/>
          <note vol="197" pan="0" key="73" pos="2976" len="96"/>
          <note vol="197" pan="0" key="75" pos="3072" len="384"/>
        </pattern>
        <pattern type="1" name="" steps="16" muted="0" pos="768">
          <note vol="197" pan="0" key="49" pos="0" len="384"/>
          <note vol="155" pan="0" key="49" pos="48" len="336"/>
        </pattern>
        <pattern type="1" name="" steps="16" muted="0" pos="1152">
          <note vol="197" pan="0" key="49" pos="0" len="384"/>
          <note vol="155" pan="0" key="49" pos="48" len="336"/>
        </pattern>
        <pattern type="1" name="" steps="16" muted="0" pos="1536">
          <note vol="197" pan="0" key="49" pos="0" len="384"/>
          <note vol="155" pan="0" key="49" pos="48" len="336"/>
        </pattern>
        <pattern type="1" name="" steps="16" muted="0" pos="2304">
          <note vol="195" pan="0" key="49" pos="0" len="24"/>
          <note vol="195" pan="0" key="49" pos="72" len="24"/>
          <note vol="195" pan="0" key="49" pos="144" len="24"/>
          <note vol="195" pan="0" key="49" pos="216" len="24"/>
          <note vol="195" pan="0" key="49" pos="288" len="24"/>
          <note vol="195" pan="0" key="49" pos="312" len="24"/>
          <note vol="195" pan="0" key="49" pos="360" len="24"/>
        </pattern>
        <pattern type="1" name="" steps="16" muted="0" pos="2688">
          <note vol="195" pan="0" key="49" pos="0" len="24"/>
          <note vol="195" pan="0" key="49" pos="72" len="24"/>
          <note vol="195" pan="0" key="49" pos="144" len="24"/>
          <note vol="195" pan="0" key="49" pos="216" len="24"/>
          <note vol="195" pan="0" key="49" pos="288" len="24"/>
          <note vol="195" pan="0" key="49" pos="312" len="24"/>
          <note vol="195" pan="0" key="49" pos="360" len="24"/>
        </pattern>
        <pattern type="1" name="" steps="16" muted="0" pos="3072">
          <note vol="195" pan="0" key="49" pos="0" len="24"/>
          <note vol="195" pan="0" key="49" pos="72" len="24"/>
          <note vol="195" pan="0" key="49" pos="144" len="24"/>
          <note vol="195" pan="0" key="49" pos="192" len="192"/>
        </pattern>
        <pattern type="1" name="" steps="16" muted="0" pos="62592">
          <note vol="197" pan="0" key="63" pos="0" len="144"/>
          <note vol="197" pan="0" key="66" pos="144" len="48"/>
          <note vol="197" pan="0" key="65" pos="192" len="144"/>
          <note vol="197" pan="0" key="70" pos="336" len="48"/>
          <note vol="197" pan="0" key="70" pos="384" len="144"/>
          <note vol="197" pan="0" key="68" pos="528" len="24"/>
          <note vol="197" pan="0" key="66" pos="552" len="24"/>
          <note vol="197" pan="0" key="65" pos="576" len="48"/>
          <note vol="197" pan="0" key="66" pos="624" len="48"/>
          <note vol="197" pan="0" key="61" pos="672" len="48"/>
          <note vol="197" pan="0" key="58" pos="720" len="48"/>
          <note vol="197" pan="0" key="59" pos="768" len="144"/>
          <note vol="197" pan="0" key="66" pos="912" len="48"/>
          <note vol="197" pan="0" key="65" pos="960" len="144"/>
          <note vol="197" pan="0" key="68" pos="1104" len="48"/>
        </pattern>
        <pattern type="1" name="" steps="16" muted="0" pos="64320">
          <note vol="197" pan="0" key="63" pos="0" len="384"/>
        </pattern>
        <pattern type="0" name="" steps="16" muted="0" pos="7872"/>
      </track>
      <track type="0" name="choir hi" solo="0" muted="0" mutedBeforeSolo="0">
        <instrumenttrack usemasterpitch="1" pitchrange="1" pitch="0" vol="54.4" basenote="57" pan="0" fxch="0">
          <instrument name="carlapatchbay">
            <carlapatchbay>
              <CARLA-PROJECT VERSION="2.2">
                <EngineSettings>
                  <ForceStereo>false</ForceStereo>
                  <PreferPluginBridges>false</PreferPluginBridges>
                  <PreferUiBridges>true</PreferUiBridges>
                  <UIsAlwaysOnTop>false</UIsAlwaysOnTop>
                  <MaxParameters>200</MaxParameters>
                  <UIBridgesTimeout>4000</UIBridgesTimeout>
                  <LADSPA_PATH>/home/pass/.ladspa:/usr/lib/ladspa:/usr/local/lib/ladspa</LADSPA_PATH>
                  <DSSI_PATH>/home/pass/.dssi:/usr/lib/dssi:/usr/local/lib/dssi</DSSI_PATH>
                  <LV2_PATH>/home/pass/.lv2:/usr/lib/lv2:/usr/local/lib/lv2</LV2_PATH>
                  <VST2_PATH>/home/pass/.vst:/home/pass/.wine/drive_c/Program Files (x86)/VstPlugins:/home/pass/.wine/drive_c/Program Files/VstPlugins:/home/pass/Music/winvst/VST32:/home/pass/Music/winvst/VST64/Plogue Art et Technologie, Inc:/home/pass/vst:/usr/lib/lxvst:/usr/lib/vst:/usr/local/lib/lxvst:/usr/local/lib/vst/home/pass/.lxvst</VST2_PATH>
                  <VST3_PATH>/home/pass/.vst3:/home/pass/.wine/drive_c/Program Files (x86)/Common Files/VST3:/home/pass/.wine/drive_c/Program Files/Common Files/VST3:/usr/lib/vst3:/usr/local/lib/vst3</VST3_PATH>
                  <SF2_PATH>/home/pass/.sounds/sf2/home/pass/.sounds/sf3:/home/pass/samples/soundfonts:/usr/share/soundfonts:/usr/share/sounds/sf2:/usr/share/sounds/sf3</SF2_PATH>
                  <SFZ_PATH>/home/pass/.sounds/sfz:/home/pass/samples:/usr/share/sounds/sfz</SFZ_PATH>
                </EngineSettings>
                <!-- liquidsfz -->
                <Plugin>
                  <Info>
                    <Type>LV2</Type>
                    <Name>liquidsfz</Name>
                    <URI>http://spectmorph.org/plugins/liquidsfz</URI>
                  </Info>
                  <Data>
                    <Active>Yes</Active>
                    <ControlChannel>1</ControlChannel>
                    <Options>0x3f0</Options>
                    <Parameter>
                      <Index>0</Index>
                      <Name>Output Level</Name>
                      <Symbol>level</Symbol>
                      <Value>0</Value>
                    </Parameter>
                    <CustomData>
                      <Type>http://lv2plug.in/ns/ext/atom#Path</Type>
                      <Key>http://spectmorph.org/plugins/liquidsfz#sfzfile</Key>
                      <Value>Chorus - Female (nolimits).sfz</Value>
                    </CustomData>
                  </Data>
                </Plugin>
                <Patchbay>
                  <Connection>
                    <Source>Midi Input:Capture 1</Source>
                    <Target>liquidsfz:events-in</Target>
                  </Connection>
                  <Connection>
                    <Source>liquidsfz:Left Output</Source>
                    <Target>Audio Output:Left</Target>
                  </Connection>
                  <Connection>
                    <Source>liquidsfz:Right Output</Source>
                    <Target>Audio Output:Right</Target>
                  </Connection>
                  <Positions>
                    <Position y1="1290" x1="1710" pluginId="0">
                      <Name>liquidsfz</Name>
                    </Position>
                  </Positions>
                </Patchbay>
              </CARLA-PROJECT>
              <key/>
            </carlapatchbay>
          </instrument>
          <eldata fwet="0" fres="0.5" ftype="0" fcut="14000">
            <elvol x100="0" lspd_numerator="4" amt="0" lspd="0.1" lpdel="0" dec="0.5" lspd_syncmode="0" att="0" ctlenvamt="0" pdel="0" latt="0" sustain="0.5" lspd_denominator="4" hold="0.5" lamt="0" userwavefile="" lshp="0" rel="0.1"/>
            <elcut x100="0" lspd_numerator="4" amt="0" lspd="0.1" lpdel="0" dec="0.5" lspd_syncmode="0" att="0" ctlenvamt="0" pdel="0" latt="0" sustain="0.5" lspd_denominator="4" hold="0.5" lamt="0" userwavefile="" lshp="0" rel="0.1"/>
            <elres x100="0" lspd_numerator="4" amt="0" lspd="0.1" lpdel="0" dec="0.5" lspd_syncmode="0" att="0" ctlenvamt="0" pdel="0" latt="0" sustain="0.5" lspd_denominator="4" hold="0.5" lamt="0" userwavefile="" lshp="0" rel="0.1"/>
          </eldata>
          <chordcreator chordrange="1" chord="0" chord-enabled="0"/>
          <arpeggiator arprange="1" arptime_syncmode="0" arpskip="0" arpmiss="0" arptime="200" arpdir="0" arpmode="0" arptime_denominator="4" arp-enabled="0" arp="0" arpgate="100" arpcycle="0" arptime_numerator="4"/>
          <midiport inputcontroller="0" outputcontroller="0" outputprogram="1" basevelocity="63" outputchannel="1" writable="0" inputchannel="0" readable="0" fixedinputvelocity="-1" fixedoutputvelocity="-1" fixedoutputnote="-1"/>
          <fxchain numofeffects="0" enabled="0"/>
        </instrumenttrack>
        <pattern type="1" name="" steps="16" muted="0" pos="1920">
          <note vol="78" pan="0" key="44" pos="0" len="36"/>
          <note vol="78" pan="0" key="37" pos="0" len="36"/>
          <note vol="78" pan="0" key="1" pos="0" len="24"/>
          <note vol="78" pan="0" key="44" pos="72" len="36"/>
          <note vol="78" pan="0" key="37" pos="72" len="36"/>
          <note vol="78" pan="0" key="44" pos="144" len="36"/>
          <note vol="78" pan="0" key="37" pos="144" len="36"/>
          <note vol="78" pan="0" key="44" pos="216" len="36"/>
          <note vol="78" pan="0" key="37" pos="216" len="36"/>
          <note vol="78" pan="0" key="44" pos="288" len="24"/>
          <note vol="78" pan="0" key="37" pos="288" len="24"/>
          <note vol="78" pan="0" key="0" pos="300" len="24"/>
          <note vol="78" pan="0" key="44" pos="312" len="48"/>
          <note vol="78" pan="0" key="37" pos="312" len="48"/>
          <note vol="78" pan="0" key="1" pos="336" len="24"/>
          <note vol="78" pan="0" key="44" pos="360" len="24"/>
          <note vol="78" pan="0" key="37" pos="360" len="24"/>
          <note vol="78" pan="0" key="51" pos="384" len="36"/>
          <note vol="78" pan="0" key="44" pos="384" len="36"/>
          <note vol="78" pan="0" key="51" pos="456" len="36"/>
          <note vol="78" pan="0" key="44" pos="456" len="36"/>
          <note vol="78" pan="0" key="51" pos="528" len="36"/>
          <note vol="78" pan="0" key="44" pos="528" len="36"/>
          <note vol="78" pan="0" key="51" pos="600" len="36"/>
          <note vol="78" pan="0" key="44" pos="600" len="36"/>
          <note vol="78" pan="0" key="51" pos="672" len="24"/>
          <note vol="78" pan="0" key="44" pos="672" len="24"/>
          <note vol="78" pan="0" key="0" pos="684" len="24"/>
          <note vol="78" pan="0" key="51" pos="696" len="48"/>
          <note vol="78" pan="0" key="44" pos="696" len="48"/>
          <note vol="78" pan="0" key="1" pos="720" len="24"/>
          <note vol="78" pan="0" key="51" pos="744" len="24"/>
          <note vol="78" pan="0" key="44" pos="744" len="24"/>
          <note vol="78" pan="0" key="46" pos="768" len="36"/>
          <note vol="78" pan="0" key="39" pos="768" len="36"/>
          <note vol="78" pan="0" key="46" pos="840" len="36"/>
          <note vol="78" pan="0" key="39" pos="840" len="36"/>
          <note vol="78" pan="0" key="46" pos="912" len="36"/>
          <note vol="78" pan="0" key="39" pos="912" len="36"/>
          <note vol="78" pan="0" key="46" pos="984" len="36"/>
          <note vol="78" pan="0" key="39" pos="984" len="36"/>
          <note vol="78" pan="0" key="46" pos="1056" len="24"/>
          <note vol="78" pan="0" key="39" pos="1056" len="24"/>
          <note vol="78" pan="0" key="0" pos="1068" len="24"/>
          <note vol="78" pan="0" key="46" pos="1080" len="48"/>
          <note vol="78" pan="0" key="39" pos="1080" len="48"/>
          <note vol="78" pan="0" key="1" pos="1116" len="24"/>
          <note vol="78" pan="0" key="46" pos="1128" len="24"/>
          <note vol="78" pan="0" key="39" pos="1128" len="24"/>
          <note vol="78" pan="0" key="45" pos="1152" len="36"/>
          <note vol="78" pan="0" key="38" pos="1152" len="36"/>
          <note vol="78" pan="0" key="45" pos="1224" len="36"/>
          <note vol="78" pan="0" key="38" pos="1224" len="36"/>
          <note vol="78" pan="0" key="45" pos="1296" len="36"/>
          <note vol="78" pan="0" key="38" pos="1296" len="36"/>
        </pattern>
        <pattern type="1" name="" steps="16" muted="0" pos="44160">
          <note vol="200" pan="0" key="75" pos="0" len="144"/>
          <note vol="137" pan="0" key="63" pos="0" len="144"/>
          <note vol="200" pan="0" key="78" pos="144" len="48"/>
          <note vol="137" pan="0" key="66" pos="144" len="48"/>
          <note vol="200" pan="0" key="77" pos="192" len="144"/>
          <note vol="137" pan="0" key="65" pos="192" len="144"/>
          <note vol="200" pan="0" key="82" pos="336" len="48"/>
          <note vol="137" pan="0" key="70" pos="336" len="48"/>
          <note vol="200" pan="0" key="82" pos="384" len="144"/>
          <note vol="137" pan="0" key="70" pos="384" len="144"/>
          <note vol="200" pan="0" key="80" pos="528" len="24"/>
          <note vol="137" pan="0" key="68" pos="528" len="24"/>
          <note vol="200" pan="0" key="78" pos="552" len="24"/>
          <note vol="137" pan="0" key="66" pos="552" len="24"/>
          <note vol="200" pan="0" key="77" pos="576" len="48"/>
          <note vol="137" pan="0" key="65" pos="576" len="48"/>
          <note vol="200" pan="0" key="78" pos="624" len="48"/>
          <note vol="137" pan="0" key="66" pos="624" len="48"/>
          <note vol="200" pan="0" key="73" pos="672" len="48"/>
          <note vol="137" pan="0" key="61" pos="672" len="48"/>
          <note vol="200" pan="0" key="70" pos="720" len="48"/>
          <note vol="137" pan="0" key="58" pos="720" len="48"/>
          <note vol="200" pan="0" key="71" pos="768" len="96"/>
          <note vol="137" pan="0" key="59" pos="768" len="96"/>
          <note vol="200" pan="0" key="75" pos="864" len="48"/>
          <note vol="137" pan="0" key="63" pos="864" len="48"/>
          <note vol="200" pan="0" key="78" pos="912" len="48"/>
          <note vol="137" pan="0" key="66" pos="912" len="48"/>
          <note vol="200" pan="0" key="78" pos="960" len="96"/>
          <note vol="137" pan="0" key="66" pos="960" len="96"/>
          <note vol="200" pan="0" key="77" pos="1056" len="48"/>
          <note vol="137" pan="0" key="65" pos="1056" len="48"/>
          <note vol="200" pan="0" key="78" pos="1104" len="48"/>
          <note vol="137" pan="0" key="66" pos="1104" len="48"/>
          <note vol="200" pan="0" key="85" pos="1152" len="72"/>
          <note vol="137" pan="0" key="73" pos="1152" len="72"/>
          <note vol="200" pan="0" key="83" pos="1224" len="72"/>
          <note vol="137" pan="0" key="71" pos="1224" len="72"/>
          <note vol="200" pan="0" key="82" pos="1296" len="48"/>
          <note vol="137" pan="0" key="70" pos="1296" len="48"/>
          <note vol="200" pan="0" key="80" pos="1344" len="192"/>
          <note vol="137" pan="0" key="68" pos="1344" len="192"/>
          <note vol="200" pan="0" key="78" pos="1536" len="72"/>
          <note vol="137" pan="0" key="66" pos="1536" len="72"/>
          <note vol="200" pan="0" key="77" pos="1608" len="72"/>
          <note vol="137" pan="0" key="65" pos="1608" len="72"/>
          <note vol="200" pan="0" key="78" pos="1680" len="48"/>
          <note vol="137" pan="0" key="66" pos="1680" len="48"/>
          <note vol="200" pan="0" key="82" pos="1728" len="144"/>
          <note vol="137" pan="0" key="70" pos="1728" len="144"/>
          <note vol="179" pan="0" key="77" pos="1872" len="48"/>
          <note vol="137" pan="0" key="65" pos="1872" len="48"/>
          <note vol="144" pan="0" key="75" pos="1920" len="240"/>
          <note vol="137" pan="0" key="63" pos="1920" len="240"/>
          <note vol="200" pan="0" key="78" pos="2160" len="48"/>
          <note vol="137" pan="0" key="66" pos="2160" len="48"/>
          <note vol="200" pan="0" key="80" pos="2208" len="48"/>
          <note vol="137" pan="0" key="68" pos="2208" len="48"/>
          <note vol="200" pan="0" key="82" pos="2256" len="48"/>
          <note vol="137" pan="0" key="70" pos="2256" len="48"/>
          <note vol="200" pan="0" key="83" pos="2304" len="72"/>
          <note vol="137" pan="0" key="71" pos="2304" len="72"/>
          <note vol="200" pan="0" key="82" pos="2376" len="72"/>
          <note vol="137" pan="0" key="70" pos="2376" len="72"/>
          <note vol="200" pan="0" key="80" pos="2448" len="48"/>
          <note vol="137" pan="0" key="68" pos="2448" len="48"/>
          <note vol="200" pan="0" key="78" pos="2496" len="48"/>
          <note vol="137" pan="0" key="66" pos="2496" len="48"/>
          <note vol="200" pan="0" key="75" pos="2544" len="48"/>
          <note vol="137" pan="0" key="63" pos="2544" len="48"/>
          <note vol="200" pan="0" key="78" pos="2592" len="48"/>
          <note vol="137" pan="0" key="66" pos="2592" len="48"/>
          <note vol="200" pan="0" key="82" pos="2640" len="48"/>
          <note vol="137" pan="0" key="70" pos="2640" len="48"/>
          <note vol="200" pan="0" key="80" pos="2688" len="192"/>
          <note vol="137" pan="0" key="68" pos="2688" len="192"/>
        </pattern>
        <pattern type="0" name="" steps="16" muted="0" pos="15744"/>
        <pattern type="1" name="" steps="16" muted="0" pos="21888">
          <note vol="200" pan="0" key="73" pos="0" len="192"/>
          <note vol="200" pan="0" key="71" pos="192" len="192"/>
          <note vol="200" pan="0" key="68" pos="384" len="384"/>
          <note vol="200" pan="0" key="68" pos="768" len="192"/>
          <note vol="200" pan="0" key="66" pos="960" len="192"/>
          <note vol="200" pan="0" key="64" pos="1152" len="384"/>
        </pattern>
        <pattern type="1" name="" steps="16" muted="0" pos="24000">
          <note vol="200" pan="0" key="76" pos="0" len="192"/>
          <note vol="200" pan="0" key="73" pos="192" len="384"/>
          <note vol="200" pan="0" key="73" pos="576" len="384"/>
        </pattern>
        <pattern type="1" name="" steps="16" muted="0" pos="24960">
          <note vol="200" pan="0" key="73" pos="0" len="192"/>
          <note vol="200" pan="0" key="71" pos="192" len="192"/>
          <note vol="200" pan="0" key="68" pos="384" len="288"/>
          <note vol="200" pan="0" key="68" pos="672" len="96"/>
          <note vol="200" pan="0" key="80" pos="768" len="192"/>
          <note vol="200" pan="0" key="78" pos="960" len="192"/>
          <note vol="200" pan="0" key="73" pos="1152" len="384"/>
          <note vol="200" pan="0" key="73" pos="1536" len="192"/>
          <note vol="200" pan="0" key="75" pos="1728" len="192"/>
          <note vol="200" pan="0" key="76" pos="1920" len="192"/>
          <note vol="200" pan="0" key="80" pos="2112" len="96"/>
          <note vol="200" pan="0" key="78" pos="2208" len="96"/>
          <note vol="200" pan="0" key="78" pos="2304" len="192"/>
          <note vol="200" pan="0" key="73" pos="2496" len="144"/>
          <note vol="200" pan="0" key="73" pos="2640" len="24"/>
          <note vol="200" pan="0" key="75" pos="2664" len="24"/>
          <note vol="200" pan="0" key="76" pos="2688" len="192"/>
          <note vol="200" pan="0" key="76" pos="2880" len="96"/>
          <note vol="200" pan="0" key="80" pos="2976" len="96"/>
          <note vol="200" pan="0" key="85" pos="3072" len="384"/>
          <note vol="200" pan="0" key="85" pos="3456" len="384"/>
        </pattern>
      </track>
      <track type="0" name="Plucked 6" solo="0" muted="0" mutedBeforeSolo="0">
        <instrumenttrack usemasterpitch="1" pitchrange="1" pitch="0" vol="147.2" basenote="57" pan="0" fxch="0">
          <instrument name="zynaddsubfx">
            <zynaddsubfx filterq="64" bandwidth="64" rescenterfreq="64" portamento="0" filterfreq="64" modifiedcontrollers="" fmgain="127" resbandwidth="64" forwardmidicc="1">
              <ZynAddSubFX-data version-minor="4" version-major="2" ZynAddSubFX-author="Nasca Octavian Paul" version-revision="1">
                <INFORMATION/>
                <BASE_PARAMETERS>
                  <par name="max_midi_parts" value="16"/>
                  <par name="max_kit_items_per_instrument" value="16"/>
                  <par name="max_system_effects" value="4"/>
                  <par name="max_insertion_effects" value="8"/>
                  <par name="max_instrument_effects" value="3"/>
                  <par name="max_addsynth_voices" value="8"/>
                </BASE_PARAMETERS>
                <MASTER>
                  <par name="volume" value="80"/>
                  <par name="key_shift" value="64"/>
                  <par_bool name="nrpn_receive" value="yes"/>
                  <MICROTONAL>
                    <string name="name">12tET</string>
                    <string name="comment">Equal Temperament 12 notes per octave</string>
                    <par_bool name="invert_up_down" value="no"/>
                    <par name="invert_up_down_center" value="60"/>
                    <par_bool name="enabled" value="no"/>
                    <par name="global_fine_detune" value="64"/>
                    <par name="a_note" value="69"/>
                    <par_real name="a_freq" value="440.000000"/>
                  </MICROTONAL>
                  <PART id="0">
                    <par_bool name="enabled" value="yes"/>
                    <par name="volume" value="96"/>
                    <par name="panning" value="64"/>
                    <par name="min_key" value="0"/>
                    <par name="max_key" value="127"/>
                    <par name="key_shift" value="64"/>
                    <par name="rcv_chn" value="0"/>
                    <par name="velocity_sensing" value="64"/>
                    <par name="velocity_offset" value="64"/>
                    <par_bool name="note_on" value="yes"/>
                    <par_bool name="poly_mode" value="yes"/>
                    <par name="legato_mode" value="0"/>
                    <par name="key_limit" value="15"/>
                    <INSTRUMENT>
                      <INFO>
                        <string name="name">bell_pad</string>
                        <string name="author"/>
                        <string name="comments"/>
                        <par name="type" value="0"/>
                      </INFO>
                      <INSTRUMENT_KIT>
                        <par name="kit_mode" value="0"/>
                        <par_bool name="drum_mode" value="no"/>
                        <INSTRUMENT_KIT_ITEM id="0">
                          <par_bool name="enabled" value="yes"/>
                          <string name="name"/>
                          <par_bool name="muted" value="no"/>
                          <par name="min_key" value="0"/>
                          <par name="max_key" value="127"/>
                          <par name="send_to_instrument_effect" value="0"/>
                          <par_bool name="add_enabled" value="yes"/>
                          <ADD_SYNTH_PARAMETERS>
                            <par_bool name="stereo" value="yes"/>
                            <AMPLITUDE_PARAMETERS>
                              <par name="volume" value="90"/>
                              <par name="panning" value="64"/>
                              <par name="velocity_sensing" value="64"/>
                              <par name="punch_strength" value="0"/>
                              <par name="punch_time" value="60"/>
                              <par name="punch_stretch" value="64"/>
                              <par name="punch_velocity_sensing" value="72"/>
                              <par name="harmonic_randomness_grouping" value="0"/>
                              <AMPLITUDE_ENVELOPE>
                                <par_bool name="free_mode" value="no"/>
                                <par name="env_points" value="4"/>
                                <par name="env_sustain" value="2"/>
                                <par name="env_stretch" value="64"/>
                                <par_bool name="forced_release" value="yes"/>
                                <par_bool name="linear_envelope" value="no"/>
                                <par name="A_dt" value="0"/>
                                <par name="D_dt" value="80"/>
                                <par name="R_dt" value="87"/>
                                <par name="A_val" value="64"/>
                                <par name="D_val" value="64"/>
                                <par name="S_val" value="0"/>
                                <par name="R_val" value="64"/>
                              </AMPLITUDE_ENVELOPE>
                              <AMPLITUDE_LFO>
                                <par_real name="freq" value="0.629921"/>
                                <par name="intensity" value="0"/>
                                <par name="start_phase" value="64"/>
                                <par name="lfo_type" value="0"/>
                                <par name="randomness_amplitude" value="0"/>
                                <par name="randomness_frequency" value="0"/>
                                <par name="delay" value="0"/>
                                <par name="stretch" value="64"/>
                                <par_bool name="continous" value="no"/>
                              </AMPLITUDE_LFO>
                            </AMPLITUDE_PARAMETERS>
                            <FREQUENCY_PARAMETERS>
                              <par name="detune" value="8192"/>
                              <par name="coarse_detune" value="0"/>
                              <par name="detune_type" value="1"/>
                              <par name="bandwidth" value="64"/>
                              <FREQUENCY_ENVELOPE>
                                <par_bool name="free_mode" value="no"/>
                                <par name="env_points" value="3"/>
                                <par name="env_sustain" value="1"/>
                                <par name="env_stretch" value="0"/>
                                <par_bool name="forced_release" value="no"/>
                                <par_bool name="linear_envelope" value="no"/>
                                <par name="A_dt" value="50"/>
                                <par name="D_dt" value="10"/>
                                <par name="R_dt" value="60"/>
                                <par name="A_val" value="64"/>
                                <par name="D_val" value="64"/>
                                <par name="S_val" value="64"/>
                                <par name="R_val" value="64"/>
                              </FREQUENCY_ENVELOPE>
                              <FREQUENCY_LFO>
                                <par_real name="freq" value="0.551181"/>
                                <par name="intensity" value="0"/>
                                <par name="start_phase" value="64"/>
                                <par name="lfo_type" value="0"/>
                                <par name="randomness_amplitude" value="0"/>
                                <par name="randomness_frequency" value="0"/>
                                <par name="delay" value="0"/>
                                <par name="stretch" value="64"/>
                                <par_bool name="continous" value="no"/>
                              </FREQUENCY_LFO>
                            </FREQUENCY_PARAMETERS>
                            <FILTER_PARAMETERS>
                              <par name="velocity_sensing_amplitude" value="64"/>
                              <par name="velocity_sensing" value="64"/>
                              <FILTER>
                                <par name="category" value="0"/>
                                <par name="type" value="2"/>
                                <par name="freq" value="94"/>
                                <par name="q" value="40"/>
                                <par name="stages" value="0"/>
                                <par name="freq_track" value="64"/>
                                <par name="gain" value="64"/>
                              </FILTER>
                              <FILTER_ENVELOPE>
                                <par_bool name="free_mode" value="no"/>
                                <par name="env_points" value="4"/>
                                <par name="env_sustain" value="2"/>
                                <par name="env_stretch" value="0"/>
                                <par_bool name="forced_release" value="yes"/>
                                <par_bool name="linear_envelope" value="no"/>
                                <par name="A_dt" value="40"/>
                                <par name="D_dt" value="70"/>
                                <par name="R_dt" value="61"/>
                                <par name="A_val" value="64"/>
                                <par name="D_val" value="64"/>
                                <par name="S_val" value="64"/>
                                <par name="R_val" value="64"/>
                              </FILTER_ENVELOPE>
                              <FILTER_LFO>
                                <par_real name="freq" value="0.629921"/>
                                <par name="intensity" value="0"/>
                                <par name="start_phase" value="64"/>
                                <par name="lfo_type" value="0"/>
                                <par name="randomness_amplitude" value="0"/>
                                <par name="randomness_frequency" value="0"/>
                                <par name="delay" value="0"/>
                                <par name="stretch" value="64"/>
                                <par_bool name="continous" value="no"/>
                              </FILTER_LFO>
                            </FILTER_PARAMETERS>
                            <RESONANCE>
                              <par_bool name="enabled" value="no"/>
                            </RESONANCE>
                            <VOICE id="0">
                              <par_bool name="enabled" value="yes"/>
                              <par name="type" value="0"/>
                              <par name="unison_size" value="10"/>
                              <par name="unison_frequency_spread" value="60"/>
                              <par name="unison_stereo_spread" value="64"/>
                              <par name="unison_vibratto" value="64"/>
                              <par name="unison_vibratto_speed" value="64"/>
                              <par name="unison_invert_phase" value="0"/>
                              <par name="unison_phase_randomness" value="127"/>
                              <par name="delay" value="0"/>
                              <par_bool name="resonance" value="yes"/>
                              <par name="ext_oscil" value="-1"/>
                              <par name="ext_fm_oscil" value="-1"/>
                              <par name="oscil_phase" value="64"/>
                              <par name="oscil_fm_phase" value="64"/>
                              <par_bool name="filter_enabled" value="no"/>
                              <par_bool name="filter_bypass" value="no"/>
                              <par name="fm_enabled" value="0"/>
                              <OSCIL>
                                <par name="harmonic_mag_type" value="0"/>
                                <par name="base_function" value="0"/>
                                <par name="base_function_par" value="64"/>
                                <par name="base_function_modulation" value="0"/>
                                <par name="base_function_modulation_par1" value="64"/>
                                <par name="base_function_modulation_par2" value="64"/>
                                <par name="base_function_modulation_par3" value="32"/>
                                <par name="modulation" value="0"/>
                                <par name="modulation_par1" value="64"/>
                                <par name="modulation_par2" value="64"/>
                                <par name="modulation_par3" value="32"/>
                                <par name="wave_shaping" value="64"/>
                                <par name="wave_shaping_function" value="0"/>
                                <par name="filter_type" value="0"/>
                                <par name="filter_par1" value="64"/>
                                <par name="filter_par2" value="64"/>
                                <par name="filter_before_wave_shaping" value="0"/>
                                <par name="spectrum_adjust_type" value="0"/>
                                <par name="spectrum_adjust_par" value="64"/>
                                <par name="rand" value="64"/>
                                <par name="amp_rand_type" value="0"/>
                                <par name="amp_rand_power" value="64"/>
                                <par name="harmonic_shift" value="0"/>
                                <par_bool name="harmonic_shift_first" value="no"/>
                                <par name="adaptive_harmonics" value="0"/>
                                <par name="adaptive_harmonics_base_frequency" value="128"/>
                                <par name="adaptive_harmonics_power" value="100"/>
                                <HARMONICS>
                                  <HARMONIC id="1">
                                    <par name="mag" value="127"/>
                                    <par name="phase" value="64"/>
                                  </HARMONIC>
                                  <HARMONIC id="2">
                                    <par name="mag" value="127"/>
                                    <par name="phase" value="64"/>
                                  </HARMONIC>
                                  <HARMONIC id="3">
                                    <par name="mag" value="127"/>
                                    <par name="phase" value="64"/>
                                  </HARMONIC>
                                  <HARMONIC id="9">
                                    <par name="mag" value="97"/>
                                    <par name="phase" value="64"/>
                                  </HARMONIC>
                                  <HARMONIC id="15">
                                    <par name="mag" value="88"/>
                                    <par name="phase" value="64"/>
                                  </HARMONIC>
                                </HARMONICS>
                              </OSCIL>
                              <AMPLITUDE_PARAMETERS>
                                <par name="panning" value="64"/>
                                <par name="volume" value="100"/>
                                <par_bool name="volume_minus" value="no"/>
                                <par name="velocity_sensing" value="127"/>
                                <par_bool name="amp_envelope_enabled" value="no"/>
                                <par_bool name="amp_lfo_enabled" value="no"/>
                              </AMPLITUDE_PARAMETERS>
                              <FREQUENCY_PARAMETERS>
                                <par_bool name="fixed_freq" value="no"/>
                                <par name="fixed_freq_et" value="0"/>
                                <par name="detune" value="8192"/>
                                <par name="coarse_detune" value="0"/>
                                <par name="detune_type" value="0"/>
                                <par_bool name="freq_envelope_enabled" value="no"/>
                                <par_bool name="freq_lfo_enabled" value="no"/>
                              </FREQUENCY_PARAMETERS>
                            </VOICE>
                            <VOICE id="1">
                              <par_bool name="enabled" value="no"/>
                            </VOICE>
                            <VOICE id="2">
                              <par_bool name="enabled" value="no"/>
                            </VOICE>
                            <VOICE id="3">
                              <par_bool name="enabled" value="no"/>
                            </VOICE>
                            <VOICE id="4">
                              <par_bool name="enabled" value="no"/>
                            </VOICE>
                            <VOICE id="5">
                              <par_bool name="enabled" value="no"/>
                            </VOICE>
                            <VOICE id="6">
                              <par_bool name="enabled" value="no"/>
                            </VOICE>
                            <VOICE id="7">
                              <par_bool name="enabled" value="no"/>
                            </VOICE>
                          </ADD_SYNTH_PARAMETERS>
                          <par_bool name="sub_enabled" value="no"/>
                          <par_bool name="pad_enabled" value="no"/>
                        </INSTRUMENT_KIT_ITEM>
                        <INSTRUMENT_KIT_ITEM id="1">
                          <par_bool name="enabled" value="no"/>
                        </INSTRUMENT_KIT_ITEM>
                        <INSTRUMENT_KIT_ITEM id="2">
                          <par_bool name="enabled" value="no"/>
                        </INSTRUMENT_KIT_ITEM>
                        <INSTRUMENT_KIT_ITEM id="3">
                          <par_bool name="enabled" value="no"/>
                        </INSTRUMENT_KIT_ITEM>
                        <INSTRUMENT_KIT_ITEM id="4">
                          <par_bool name="enabled" value="no"/>
                        </INSTRUMENT_KIT_ITEM>
                        <INSTRUMENT_KIT_ITEM id="5">
                          <par_bool name="enabled" value="no"/>
                        </INSTRUMENT_KIT_ITEM>
                        <INSTRUMENT_KIT_ITEM id="6">
                          <par_bool name="enabled" value="no"/>
                        </INSTRUMENT_KIT_ITEM>
                        <INSTRUMENT_KIT_ITEM id="7">
                          <par_bool name="enabled" value="no"/>
                        </INSTRUMENT_KIT_ITEM>
                        <INSTRUMENT_KIT_ITEM id="8">
                          <par_bool name="enabled" value="no"/>
                        </INSTRUMENT_KIT_ITEM>
                        <INSTRUMENT_KIT_ITEM id="9">
                          <par_bool name="enabled" value="no"/>
                        </INSTRUMENT_KIT_ITEM>
                        <INSTRUMENT_KIT_ITEM id="10">
                          <par_bool name="enabled" value="no"/>
                        </INSTRUMENT_KIT_ITEM>
                        <INSTRUMENT_KIT_ITEM id="11">
                          <par_bool name="enabled" value="no"/>
                        </INSTRUMENT_KIT_ITEM>
                        <INSTRUMENT_KIT_ITEM id="12">
                          <par_bool name="enabled" value="no"/>
                        </INSTRUMENT_KIT_ITEM>
                        <INSTRUMENT_KIT_ITEM id="13">
                          <par_bool name="enabled" value="no"/>
                        </INSTRUMENT_KIT_ITEM>
                        <INSTRUMENT_KIT_ITEM id="14">
                          <par_bool name="enabled" value="no"/>
                        </INSTRUMENT_KIT_ITEM>
                        <INSTRUMENT_KIT_ITEM id="15">
                          <par_bool name="enabled" value="no"/>
                        </INSTRUMENT_KIT_ITEM>
                      </INSTRUMENT_KIT>
                      <INSTRUMENT_EFFECTS>
                        <INSTRUMENT_EFFECT id="0">
                          <EFFECT>
                            <par name="type" value="1"/>
                            <par name="preset" value="0"/>
                            <EFFECT_PARAMETERS>
                              <par_no id="0">
                                <par name="par" value="40"/>
                              </par_no>
                              <par_no id="1">
                                <par name="par" value="64"/>
                              </par_no>
                              <par_no id="2">
                                <par name="par" value="63"/>
                              </par_no>
                              <par_no id="3">
                                <par name="par" value="24"/>
                              </par_no>
                              <par_no id="7">
                                <par name="par" value="85"/>
                              </par_no>
                              <par_no id="8">
                                <par name="par" value="5"/>
                              </par_no>
                              <par_no id="9">
                                <par name="par" value="83"/>
                              </par_no>
                              <par_no id="10">
                                <par name="par" value="1"/>
                              </par_no>
                              <par_no id="11">
                                <par name="par" value="64"/>
                              </par_no>
                              <par_no id="12">
                                <par name="par" value="20"/>
                              </par_no>
                            </EFFECT_PARAMETERS>
                          </EFFECT>
                          <par name="route" value="0"/>
                          <par_bool name="bypass" value="no"/>
                        </INSTRUMENT_EFFECT>
                        <INSTRUMENT_EFFECT id="1">
                          <EFFECT>
                            <par name="type" value="0"/>
                          </EFFECT>
                          <par name="route" value="0"/>
                          <par_bool name="bypass" value="no"/>
                        </INSTRUMENT_EFFECT>
                        <INSTRUMENT_EFFECT id="2">
                          <EFFECT>
                            <par name="type" value="0"/>
                          </EFFECT>
                          <par name="route" value="0"/>
                          <par_bool name="bypass" value="no"/>
                        </INSTRUMENT_EFFECT>
                      </INSTRUMENT_EFFECTS>
                    </INSTRUMENT>
                    <CONTROLLER>
                      <par name="pitchwheel_bendrange" value="100"/>
                      <par_bool name="expression_receive" value="yes"/>
                      <par name="panning_depth" value="64"/>
                      <par name="filter_cutoff_depth" value="64"/>
                      <par name="filter_q_depth" value="64"/>
                      <par name="bandwidth_depth" value="64"/>
                      <par name="mod_wheel_depth" value="80"/>
                      <par_bool name="mod_wheel_exponential" value="no"/>
                      <par_bool name="fm_amp_receive" value="yes"/>
                      <par_bool name="volume_receive" value="yes"/>
                      <par_bool name="sustain_receive" value="yes"/>
                      <par_bool name="portamento_receive" value="yes"/>
                      <par name="portamento_time" value="64"/>
                      <par name="portamento_pitchthresh" value="3"/>
                      <par name="portamento_pitchthreshtype" value="1"/>
                      <par name="portamento_portamento" value="0"/>
                      <par name="portamento_updowntimestretch" value="64"/>
                      <par name="portamento_proportional" value="0"/>
                      <par name="portamento_proprate" value="80"/>
                      <par name="portamento_propdepth" value="90"/>
                      <par name="resonance_center_depth" value="64"/>
                      <par name="resonance_bandwidth_depth" value="64"/>
                    </CONTROLLER>
                  </PART>
                  <PART id="1">
                    <par_bool name="enabled" value="no"/>
                  </PART>
                  <PART id="2">
                    <par_bool name="enabled" value="no"/>
                  </PART>
                  <PART id="3">
                    <par_bool name="enabled" value="no"/>
                  </PART>
                  <PART id="4">
                    <par_bool name="enabled" value="no"/>
                  </PART>
                  <PART id="5">
                    <par_bool name="enabled" value="no"/>
                  </PART>
                  <PART id="6">
                    <par_bool name="enabled" value="no"/>
                  </PART>
                  <PART id="7">
                    <par_bool name="enabled" value="no"/>
                  </PART>
                  <PART id="8">
                    <par_bool name="enabled" value="no"/>
                  </PART>
                  <PART id="9">
                    <par_bool name="enabled" value="no"/>
                  </PART>
                  <PART id="10">
                    <par_bool name="enabled" value="no"/>
                  </PART>
                  <PART id="11">
                    <par_bool name="enabled" value="no"/>
                  </PART>
                  <PART id="12">
                    <par_bool name="enabled" value="no"/>
                  </PART>
                  <PART id="13">
                    <par_bool name="enabled" value="no"/>
                  </PART>
                  <PART id="14">
                    <par_bool name="enabled" value="no"/>
                  </PART>
                  <PART id="15">
                    <par_bool name="enabled" value="no"/>
                  </PART>
                  <SYSTEM_EFFECTS>
                    <SYSTEM_EFFECT id="0">
                      <EFFECT>
                        <par name="type" value="0"/>
                      </EFFECT>
                      <VOLUME id="0">
                        <par name="vol" value="0"/>
                      </VOLUME>
                      <VOLUME id="1">
                        <par name="vol" value="0"/>
                      </VOLUME>
                      <VOLUME id="2">
                        <par name="vol" value="0"/>
                      </VOLUME>
                      <VOLUME id="3">
                        <par name="vol" value="0"/>
                      </VOLUME>
                      <VOLUME id="4">
                        <par name="vol" value="0"/>
                      </VOLUME>
                      <VOLUME id="5">
                        <par name="vol" value="0"/>
                      </VOLUME>
                      <VOLUME id="6">
                        <par name="vol" value="0"/>
                      </VOLUME>
                      <VOLUME id="7">
                        <par name="vol" value="0"/>
                      </VOLUME>
                      <VOLUME id="8">
                        <par name="vol" value="0"/>
                      </VOLUME>
                      <VOLUME id="9">
                        <par name="vol" value="0"/>
                      </VOLUME>
                      <VOLUME id="10">
                        <par name="vol" value="0"/>
                      </VOLUME>
                      <VOLUME id="11">
                        <par name="vol" value="0"/>
                      </VOLUME>
                      <VOLUME id="12">
                        <par name="vol" value="0"/>
                      </VOLUME>
                      <VOLUME id="13">
                        <par name="vol" value="0"/>
                      </VOLUME>
                      <VOLUME id="14">
                        <par name="vol" value="0"/>
                      </VOLUME>
                      <VOLUME id="15">
                        <par name="vol" value="0"/>
                      </VOLUME>
                      <SENDTO id="1">
                        <par name="send_vol" value="0"/>
                      </SENDTO>
                      <SENDTO id="2">
                        <par name="send_vol" value="0"/>
                      </SENDTO>
                      <SENDTO id="3">
                        <par name="send_vol" value="0"/>
                      </SENDTO>
                    </SYSTEM_EFFECT>
                    <SYSTEM_EFFECT id="1">
                      <EFFECT>
                        <par name="type" value="0"/>
                      </EFFECT>
                      <VOLUME id="0">
                        <par name="vol" value="0"/>
                      </VOLUME>
                      <VOLUME id="1">
                        <par name="vol" value="0"/>
                      </VOLUME>
                      <VOLUME id="2">
                        <par name="vol" value="0"/>
                      </VOLUME>
                      <VOLUME id="3">
                        <par name="vol" value="0"/>
                      </VOLUME>
                      <VOLUME id="4">
                        <par name="vol" value="0"/>
                      </VOLUME>
                      <VOLUME id="5">
                        <par name="vol" value="0"/>
                      </VOLUME>
                      <VOLUME id="6">
                        <par name="vol" value="0"/>
                      </VOLUME>
                      <VOLUME id="7">
                        <par name="vol" value="0"/>
                      </VOLUME>
                      <VOLUME id="8">
                        <par name="vol" value="0"/>
                      </VOLUME>
                      <VOLUME id="9">
                        <par name="vol" value="0"/>
                      </VOLUME>
                      <VOLUME id="10">
                        <par name="vol" value="0"/>
                      </VOLUME>
                      <VOLUME id="11">
                        <par name="vol" value="0"/>
                      </VOLUME>
                      <VOLUME id="12">
                        <par name="vol" value="0"/>
                      </VOLUME>
                      <VOLUME id="13">
                        <par name="vol" value="0"/>
                      </VOLUME>
                      <VOLUME id="14">
                        <par name="vol" value="0"/>
                      </VOLUME>
                      <VOLUME id="15">
                        <par name="vol" value="0"/>
                      </VOLUME>
                      <SENDTO id="2">
                        <par name="send_vol" value="0"/>
                      </SENDTO>
                      <SENDTO id="3">
                        <par name="send_vol" value="0"/>
                      </SENDTO>
                    </SYSTEM_EFFECT>
                    <SYSTEM_EFFECT id="2">
                      <EFFECT>
                        <par name="type" value="0"/>
                      </EFFECT>
                      <VOLUME id="0">
                        <par name="vol" value="0"/>
                      </VOLUME>
                      <VOLUME id="1">
                        <par name="vol" value="0"/>
                      </VOLUME>
                      <VOLUME id="2">
                        <par name="vol" value="0"/>
                      </VOLUME>
                      <VOLUME id="3">
                        <par name="vol" value="0"/>
                      </VOLUME>
                      <VOLUME id="4">
                        <par name="vol" value="0"/>
                      </VOLUME>
                      <VOLUME id="5">
                        <par name="vol" value="0"/>
                      </VOLUME>
                      <VOLUME id="6">
                        <par name="vol" value="0"/>
                      </VOLUME>
                      <VOLUME id="7">
                        <par name="vol" value="0"/>
                      </VOLUME>
                      <VOLUME id="8">
                        <par name="vol" value="0"/>
                      </VOLUME>
                      <VOLUME id="9">
                        <par name="vol" value="0"/>
                      </VOLUME>
                      <VOLUME id="10">
                        <par name="vol" value="0"/>
                      </VOLUME>
                      <VOLUME id="11">
                        <par name="vol" value="0"/>
                      </VOLUME>
                      <VOLUME id="12">
                        <par name="vol" value="0"/>
                      </VOLUME>
                      <VOLUME id="13">
                        <par name="vol" value="0"/>
                      </VOLUME>
                      <VOLUME id="14">
                        <par name="vol" value="0"/>
                      </VOLUME>
                      <VOLUME id="15">
                        <par name="vol" value="0"/>
                      </VOLUME>
                      <SENDTO id="3">
                        <par name="send_vol" value="0"/>
                      </SENDTO>
                    </SYSTEM_EFFECT>
                    <SYSTEM_EFFECT id="3">
                      <EFFECT>
                        <par name="type" value="0"/>
                      </EFFECT>
                      <VOLUME id="0">
                        <par name="vol" value="0"/>
                      </VOLUME>
                      <VOLUME id="1">
                        <par name="vol" value="0"/>
                      </VOLUME>
                      <VOLUME id="2">
                        <par name="vol" value="0"/>
                      </VOLUME>
                      <VOLUME id="3">
                        <par name="vol" value="0"/>
                      </VOLUME>
                      <VOLUME id="4">
                        <par name="vol" value="0"/>
                      </VOLUME>
                      <VOLUME id="5">
                        <par name="vol" value="0"/>
                      </VOLUME>
                      <VOLUME id="6">
                        <par name="vol" value="0"/>
                      </VOLUME>
                      <VOLUME id="7">
                        <par name="vol" value="0"/>
                      </VOLUME>
                      <VOLUME id="8">
                        <par name="vol" value="0"/>
                      </VOLUME>
                      <VOLUME id="9">
                        <par name="vol" value="0"/>
                      </VOLUME>
                      <VOLUME id="10">
                        <par name="vol" value="0"/>
                      </VOLUME>
                      <VOLUME id="11">
                        <par name="vol" value="0"/>
                      </VOLUME>
                      <VOLUME id="12">
                        <par name="vol" value="0"/>
                      </VOLUME>
                      <VOLUME id="13">
                        <par name="vol" value="0"/>
                      </VOLUME>
                      <VOLUME id="14">
                        <par name="vol" value="0"/>
                      </VOLUME>
                      <VOLUME id="15">
                        <par name="vol" value="0"/>
                      </VOLUME>
                    </SYSTEM_EFFECT>
                  </SYSTEM_EFFECTS>
                  <INSERTION_EFFECTS>
                    <INSERTION_EFFECT id="0">
                      <par name="part" value="-1"/>
                      <EFFECT>
                        <par name="type" value="0"/>
                      </EFFECT>
                    </INSERTION_EFFECT>
                    <INSERTION_EFFECT id="1">
                      <par name="part" value="-1"/>
                      <EFFECT>
                        <par name="type" value="0"/>
                      </EFFECT>
                    </INSERTION_EFFECT>
                    <INSERTION_EFFECT id="2">
                      <par name="part" value="-1"/>
                      <EFFECT>
                        <par name="type" value="0"/>
                      </EFFECT>
                    </INSERTION_EFFECT>
                    <INSERTION_EFFECT id="3">
                      <par name="part" value="-1"/>
                      <EFFECT>
                        <par name="type" value="0"/>
                      </EFFECT>
                    </INSERTION_EFFECT>
                    <INSERTION_EFFECT id="4">
                      <par name="part" value="-1"/>
                      <EFFECT>
                        <par name="type" value="0"/>
                      </EFFECT>
                    </INSERTION_EFFECT>
                    <INSERTION_EFFECT id="5">
                      <par name="part" value="-1"/>
                      <EFFECT>
                        <par name="type" value="0"/>
                      </EFFECT>
                    </INSERTION_EFFECT>
                    <INSERTION_EFFECT id="6">
                      <par name="part" value="-1"/>
                      <EFFECT>
                        <par name="type" value="0"/>
                      </EFFECT>
                    </INSERTION_EFFECT>
                    <INSERTION_EFFECT id="7">
                      <par name="part" value="-1"/>
                      <EFFECT>
                        <par name="type" value="0"/>
                      </EFFECT>
                    </INSERTION_EFFECT>
                  </INSERTION_EFFECTS>
                </MASTER>
              </ZynAddSubFX-data>
              <key/>
            </zynaddsubfx>
          </instrument>
          <eldata fwet="0" fres="0.5" ftype="0" fcut="14000">
            <elvol x100="0" lspd_numerator="4" amt="0" lspd="0.1" lpdel="0" dec="0.5" lspd_syncmode="0" att="0" ctlenvamt="0" pdel="0" latt="0" sustain="0.5" lspd_denominator="4" hold="0.5" lamt="0" userwavefile="" lshp="0" rel="0.1"/>
            <elcut x100="0" lspd_numerator="4" amt="0" lspd="0.1" lpdel="0" dec="0.5" lspd_syncmode="0" att="0" ctlenvamt="0" pdel="0" latt="0" sustain="0.5" lspd_denominator="4" hold="0.5" lamt="0" userwavefile="" lshp="0" rel="0.1"/>
            <elres x100="0" lspd_numerator="4" amt="0" lspd="0.1" lpdel="0" dec="0.5" lspd_syncmode="0" att="0" ctlenvamt="0" pdel="0" latt="0" sustain="0.5" lspd_denominator="4" hold="0.5" lamt="0" userwavefile="" lshp="0" rel="0.1"/>
          </eldata>
          <chordcreator chordrange="1" chord="0" chord-enabled="0"/>
          <arpeggiator arprange="1" arptime_syncmode="0" arpskip="0" arpmiss="0" arptime="200" arpdir="0" arpmode="0" arptime_denominator="4" arp-enabled="0" arp="0" arpgate="100" arpcycle="0" arptime_numerator="4"/>
          <midiport inputcontroller="0" outputcontroller="0" outputprogram="1" basevelocity="63" outputchannel="1" writable="0" inputchannel="0" readable="0" fixedinputvelocity="-1" fixedoutputvelocity="-1" fixedoutputnote="-1"/>
          <fxchain numofeffects="0" enabled="0"/>
        </instrumenttrack>
        <pattern type="0" name="" steps="16" muted="0" pos="3456"/>
        <pattern type="1" name="" steps="16" muted="0" pos="13056">
          <note vol="78" pan="0" key="68" pos="0" len="24"/>
          <note vol="78" pan="0" key="71" pos="24" len="24"/>
          <note vol="78" pan="0" key="68" pos="48" len="24"/>
          <note vol="78" pan="0" key="75" pos="72" len="48"/>
          <note vol="78" pan="0" key="68" pos="120" len="24"/>
          <note vol="78" pan="0" key="71" pos="144" len="24"/>
          <note vol="78" pan="0" key="75" pos="168" len="24"/>
          <note vol="78" pan="0" key="76" pos="192" len="24"/>
          <note vol="78" pan="0" key="75" pos="216" len="24"/>
          <note vol="78" pan="0" key="73" pos="240" len="24"/>
          <note vol="78" pan="0" key="71" pos="264" len="24"/>
          <note vol="78" pan="0" key="75" pos="288" len="24"/>
          <note vol="78" pan="0" key="73" pos="312" len="24"/>
          <note vol="78" pan="0" key="71" pos="336" len="24"/>
          <note vol="78" pan="0" key="68" pos="360" len="24"/>
        </pattern>
        <pattern type="1" name="" steps="16" muted="0" pos="13440">
          <note vol="78" pan="0" key="61" pos="0" len="24"/>
          <note vol="78" pan="0" key="63" pos="24" len="24"/>
          <note vol="78" pan="0" key="61" pos="48" len="24"/>
          <note vol="78" pan="0" key="68" pos="72" len="48"/>
          <note vol="78" pan="0" key="61" pos="120" len="24"/>
          <note vol="78" pan="0" key="64" pos="144" len="24"/>
          <note vol="78" pan="0" key="68" pos="168" len="24"/>
          <note vol="78" pan="0" key="71" pos="192" len="24"/>
          <note vol="78" pan="0" key="73" pos="216" len="24"/>
          <note vol="78" pan="0" key="75" pos="240" len="24"/>
          <note vol="78" pan="0" key="73" pos="264" len="48"/>
          <note vol="78" pan="0" key="75" pos="312" len="24"/>
          <note vol="78" pan="0" key="76" pos="336" len="24"/>
          <note vol="78" pan="0" key="78" pos="360" len="24"/>
        </pattern>
        <pattern type="1" name="" steps="16" muted="0" pos="42624">
          <note vol="136" pan="0" key="61" pos="0" len="144"/>
          <note vol="136" pan="0" key="49" pos="0" len="48"/>
          <note vol="136" pan="0" key="52" pos="48" len="48"/>
          <note vol="136" pan="0" key="56" pos="96" len="48"/>
          <note vol="136" pan="0" key="64" pos="144" len="48"/>
          <note vol="136" pan="0" key="61" pos="144" len="48"/>
          <note vol="136" pan="0" key="63" pos="192" len="144"/>
          <note vol="136" pan="0" key="59" pos="192" len="48"/>
          <note vol="136" pan="0" key="54" pos="240" len="48"/>
          <note vol="136" pan="0" key="59" pos="288" len="48"/>
          <note vol="136" pan="0" key="68" pos="336" len="48"/>
          <note vol="136" pan="0" key="63" pos="336" len="48"/>
          <note vol="136" pan="0" key="68" pos="384" len="144"/>
          <note vol="136" pan="0" key="64" pos="384" len="48"/>
          <note vol="136" pan="0" key="57" pos="432" len="48"/>
          <note vol="136" pan="0" key="61" pos="480" len="48"/>
          <note vol="136" pan="0" key="66" pos="528" len="24"/>
          <note vol="136" pan="0" key="52" pos="528" len="48"/>
          <note vol="136" pan="0" key="64" pos="552" len="24"/>
          <note vol="136" pan="0" key="63" pos="576" len="48"/>
          <note vol="136" pan="0" key="54" pos="576" len="48"/>
          <note vol="136" pan="0" key="64" pos="624" len="48"/>
          <note vol="136" pan="0" key="51" pos="624" len="48"/>
          <note vol="136" pan="0" key="59" pos="672" len="48"/>
          <note vol="136" pan="0" key="54" pos="672" len="48"/>
          <note vol="136" pan="0" key="56" pos="720" len="48"/>
          <note vol="136" pan="0" key="47" pos="720" len="48"/>
          <note vol="136" pan="0" key="57" pos="768" len="96"/>
          <note vol="136" pan="0" key="49" pos="768" len="48"/>
          <note vol="136" pan="0" key="54" pos="816" len="48"/>
          <note vol="136" pan="0" key="61" pos="864" len="48"/>
          <note vol="136" pan="0" key="57" pos="864" len="48"/>
          <note vol="136" pan="0" key="64" pos="912" len="48"/>
          <note vol="136" pan="0" key="54" pos="912" len="48"/>
          <note vol="136" pan="0" key="64" pos="960" len="96"/>
          <note vol="136" pan="0" key="56" pos="960" len="48"/>
          <note vol="136" pan="0" key="59" pos="1008" len="48"/>
          <note vol="136" pan="0" key="63" pos="1056" len="48"/>
          <note vol="136" pan="0" key="56" pos="1056" len="48"/>
          <note vol="136" pan="0" key="64" pos="1104" len="48"/>
          <note vol="136" pan="0" key="51" pos="1104" len="48"/>
          <note vol="136" pan="0" key="71" pos="1152" len="72"/>
          <note vol="136" pan="0" key="57" pos="1152" len="48"/>
        </pattern>
        <pattern type="1" name="" steps="16" muted="0" pos="24960">
          <note vol="197" pan="0" key="61" pos="0" len="192"/>
          <note vol="197" pan="0" key="59" pos="192" len="192"/>
          <note vol="197" pan="0" key="56" pos="384" len="288"/>
          <note vol="197" pan="0" key="56" pos="672" len="96"/>
          <note vol="197" pan="0" key="68" pos="768" len="192"/>
          <note vol="197" pan="0" key="66" pos="960" len="192"/>
          <note vol="197" pan="0" key="61" pos="1152" len="384"/>
          <note vol="197" pan="0" key="61" pos="1536" len="192"/>
          <note vol="197" pan="0" key="63" pos="1728" len="192"/>
          <note vol="197" pan="0" key="64" pos="1920" len="192"/>
          <note vol="197" pan="0" key="68" pos="2112" len="96"/>
          <note vol="197" pan="0" key="66" pos="2208" len="96"/>
          <note vol="197" pan="0" key="66" pos="2304" len="192"/>
          <note vol="197" pan="0" key="61" pos="2496" len="144"/>
          <note vol="197" pan="0" key="61" pos="2640" len="24"/>
          <note vol="197" pan="0" key="63" pos="2664" len="24"/>
          <note vol="197" pan="0" key="64" pos="2688" len="192"/>
          <note vol="197" pan="0" key="64" pos="2880" len="96"/>
          <note vol="197" pan="0" key="68" pos="2976" len="96"/>
          <note vol="197" pan="0" key="73" pos="3072" len="384"/>
          <note vol="197" pan="0" key="73" pos="3456" len="384"/>
        </pattern>
        <pattern type="1" name="" steps="16" muted="0" pos="31872">
          <note vol="171" pan="0" key="68" pos="0" len="192"/>
          <note vol="171" pan="0" key="69" pos="192" len="192"/>
          <note vol="171" pan="0" key="71" pos="384" len="192"/>
          <note vol="171" pan="0" key="66" pos="576" len="192"/>
          <note vol="171" pan="0" key="68" pos="768" len="192"/>
          <note vol="171" pan="0" key="69" pos="960" len="192"/>
          <note vol="171" pan="0" key="71" pos="1152" len="192"/>
          <note vol="171" pan="0" key="75" pos="1344" len="192"/>
          <note vol="171" pan="0" key="73" pos="1536" len="192"/>
          <note vol="171" pan="0" key="73" pos="1920" len="192"/>
          <note vol="171" pan="0" key="76" pos="2112" len="192"/>
          <note vol="171" pan="0" key="74" pos="2304" len="192"/>
          <note vol="171" pan="0" key="73" pos="2688" len="192"/>
          <note vol="171" pan="0" key="78" pos="2880" len="192"/>
        </pattern>
        <pattern type="1" name="" steps="16" muted="0" pos="4992">
          <note vol="121" pan="0" key="76" pos="0" len="192"/>
          <note vol="121" pan="0" key="73" pos="0" len="192"/>
          <note vol="121" pan="0" key="68" pos="0" len="192"/>
          <note vol="121" pan="0" key="73" pos="192" len="192"/>
          <note vol="121" pan="0" key="69" pos="192" len="192"/>
          <note vol="121" pan="0" key="66" pos="192" len="192"/>
          <note vol="121" pan="0" key="75" pos="384" len="192"/>
          <note vol="121" pan="0" key="71" pos="384" len="192"/>
          <note vol="121" pan="0" key="68" pos="384" len="192"/>
          <note vol="121" pan="0" key="76" pos="576" len="96"/>
          <note vol="121" pan="0" key="73" pos="576" len="96"/>
          <note vol="121" pan="0" key="69" pos="576" len="96"/>
          <note vol="121" pan="0" key="75" pos="672" len="96"/>
          <note vol="121" pan="0" key="71" pos="672" len="96"/>
          <note vol="121" pan="0" key="66" pos="672" len="96"/>
        </pattern>
        <pattern type="1" name="" steps="16" muted="0" pos="5760">
          <note vol="121" pan="0" key="76" pos="0" len="192"/>
          <note vol="121" pan="0" key="73" pos="0" len="192"/>
          <note vol="121" pan="0" key="68" pos="0" len="192"/>
          <note vol="121" pan="0" key="73" pos="192" len="192"/>
          <note vol="121" pan="0" key="69" pos="192" len="192"/>
          <note vol="121" pan="0" key="66" pos="192" len="192"/>
          <note vol="121" pan="0" key="75" pos="384" len="192"/>
          <note vol="121" pan="0" key="71" pos="384" len="192"/>
          <note vol="121" pan="0" key="68" pos="384" len="192"/>
          <note vol="121" pan="0" key="76" pos="576" len="96"/>
          <note vol="121" pan="0" key="73" pos="576" len="96"/>
          <note vol="121" pan="0" key="69" pos="576" len="96"/>
          <note vol="121" pan="0" key="75" pos="672" len="96"/>
          <note vol="121" pan="0" key="71" pos="672" len="96"/>
          <note vol="121" pan="0" key="66" pos="672" len="96"/>
        </pattern>
        <pattern type="1" name="" steps="16" muted="0" pos="7104">
          <note vol="200" pan="0" key="73" pos="960" len="144"/>
          <note vol="200" pan="0" key="76" pos="1104" len="48"/>
          <note vol="200" pan="0" key="75" pos="1152" len="144"/>
          <note vol="200" pan="0" key="80" pos="1296" len="48"/>
          <note vol="200" pan="0" key="80" pos="1344" len="144"/>
          <note vol="200" pan="0" key="78" pos="1488" len="24"/>
          <note vol="200" pan="0" key="76" pos="1512" len="24"/>
          <note vol="200" pan="0" key="75" pos="1536" len="48"/>
          <note vol="200" pan="0" key="76" pos="1584" len="48"/>
          <note vol="200" pan="0" key="71" pos="1632" len="48"/>
          <note vol="200" pan="0" key="68" pos="1680" len="48"/>
          <note vol="200" pan="0" key="69" pos="1728" len="96"/>
          <note vol="200" pan="0" key="73" pos="1824" len="48"/>
          <note vol="200" pan="0" key="76" pos="1872" len="48"/>
          <note vol="200" pan="0" key="76" pos="1920" len="96"/>
          <note vol="200" pan="0" key="75" pos="2016" len="48"/>
          <note vol="200" pan="0" key="76" pos="2064" len="48"/>
          <note vol="200" pan="0" key="83" pos="2112" len="72"/>
          <note vol="200" pan="0" key="81" pos="2184" len="72"/>
          <note vol="200" pan="0" key="80" pos="2256" len="48"/>
          <note vol="200" pan="0" key="78" pos="2304" len="192"/>
          <note vol="200" pan="0" key="76" pos="2496" len="72"/>
          <note vol="200" pan="0" key="75" pos="2568" len="72"/>
          <note vol="200" pan="0" key="76" pos="2640" len="48"/>
          <note vol="200" pan="0" key="80" pos="2688" len="144"/>
          <note vol="200" pan="0" key="75" pos="2832" len="48"/>
          <note vol="200" pan="0" key="73" pos="2880" len="240"/>
          <note vol="200" pan="0" key="76" pos="3120" len="48"/>
          <note vol="200" pan="0" key="78" pos="3168" len="48"/>
          <note vol="200" pan="0" key="80" pos="3216" len="48"/>
          <note vol="200" pan="0" key="81" pos="3264" len="72"/>
          <note vol="200" pan="0" key="80" pos="3336" len="72"/>
          <note vol="200" pan="0" key="78" pos="3408" len="48"/>
          <note vol="200" pan="0" key="76" pos="3456" len="48"/>
          <note vol="200" pan="0" key="73" pos="3504" len="48"/>
          <note vol="200" pan="0" key="76" pos="3552" len="48"/>
          <note vol="200" pan="0" key="80" pos="3600" len="48"/>
          <note vol="200" pan="0" key="78" pos="3648" len="192"/>
          <note vol="200" pan="0" key="75" pos="3840" len="96"/>
          <note vol="200" pan="0" key="71" pos="3936" len="96"/>
          <note vol="200" pan="0" key="73" pos="4032" len="384"/>
        </pattern>
        <pattern type="1" name="" steps="16" muted="0" pos="14784">
          <note vol="200" pan="0" key="73" pos="960" len="144"/>
          <note vol="200" pan="0" key="76" pos="1104" len="48"/>
          <note vol="200" pan="0" key="75" pos="1152" len="144"/>
          <note vol="200" pan="0" key="80" pos="1296" len="48"/>
          <note vol="200" pan="0" key="80" pos="1344" len="144"/>
          <note vol="200" pan="0" key="78" pos="1488" len="24"/>
          <note vol="200" pan="0" key="76" pos="1512" len="24"/>
          <note vol="200" pan="0" key="75" pos="1536" len="48"/>
          <note vol="200" pan="0" key="76" pos="1584" len="48"/>
          <note vol="200" pan="0" key="71" pos="1632" len="48"/>
          <note vol="200" pan="0" key="68" pos="1680" len="48"/>
          <note vol="200" pan="0" key="69" pos="1728" len="96"/>
          <note vol="200" pan="0" key="73" pos="1824" len="48"/>
          <note vol="200" pan="0" key="76" pos="1872" len="48"/>
          <note vol="200" pan="0" key="76" pos="1920" len="96"/>
          <note vol="200" pan="0" key="75" pos="2016" len="48"/>
          <note vol="200" pan="0" key="76" pos="2064" len="48"/>
          <note vol="200" pan="0" key="83" pos="2112" len="72"/>
          <note vol="200" pan="0" key="81" pos="2184" len="72"/>
          <note vol="200" pan="0" key="80" pos="2256" len="48"/>
          <note vol="200" pan="0" key="78" pos="2304" len="192"/>
          <note vol="200" pan="0" key="76" pos="2496" len="72"/>
          <note vol="200" pan="0" key="75" pos="2568" len="72"/>
          <note vol="200" pan="0" key="76" pos="2640" len="48"/>
          <note vol="200" pan="0" key="80" pos="2688" len="144"/>
          <note vol="200" pan="0" key="75" pos="2832" len="48"/>
          <note vol="200" pan="0" key="73" pos="2880" len="240"/>
          <note vol="200" pan="0" key="76" pos="3120" len="48"/>
          <note vol="200" pan="0" key="78" pos="3168" len="48"/>
          <note vol="200" pan="0" key="80" pos="3216" len="48"/>
          <note vol="200" pan="0" key="81" pos="3264" len="72"/>
          <note vol="200" pan="0" key="80" pos="3336" len="72"/>
          <note vol="200" pan="0" key="78" pos="3408" len="48"/>
          <note vol="200" pan="0" key="76" pos="3456" len="48"/>
          <note vol="200" pan="0" key="73" pos="3504" len="48"/>
          <note vol="200" pan="0" key="76" pos="3552" len="48"/>
          <note vol="200" pan="0" key="80" pos="3600" len="48"/>
          <note vol="200" pan="0" key="78" pos="3648" len="192"/>
          <note vol="200" pan="0" key="75" pos="3840" len="96"/>
          <note vol="200" pan="0" key="71" pos="3936" len="96"/>
          <note vol="200" pan="0" key="73" pos="4032" len="384"/>
        </pattern>
      </track>
      <track type="0" name="reverb clap.wav" solo="0" muted="0" mutedBeforeSolo="0">
        <instrumenttrack usemasterpitch="1" pitchrange="1" pitch="0" vol="120.9" basenote="57" pan="0" fxch="0">
          <instrument name="audiofileprocessor">
            <audiofileprocessor amp="100" lframe="1.37424e-05" interp="1" reversed="1" src="usersample:reverb clap.wav" sframe="6.8712e-06" eframe="1" stutter="0" looped="0">
              <key/>
            </audiofileprocessor>
          </instrument>
          <eldata fwet="1" fres="0.5" ftype="0" fcut="8904">
            <elvol x100="0" lspd_numerator="4" amt="0" lspd="0.1" lpdel="0" dec="0.5" lspd_syncmode="0" att="0" ctlenvamt="0" pdel="0" latt="0" sustain="0.5" lspd_denominator="4" hold="0.5" lamt="0" userwavefile="" lshp="0" rel="0.1"/>
            <elcut x100="0" lspd_numerator="4" amt="0" lspd="0.1" lpdel="0" dec="0.5" lspd_syncmode="0" att="0" ctlenvamt="0" pdel="0" latt="0" sustain="0.5" lspd_denominator="4" hold="0.5" lamt="0" userwavefile="" lshp="0" rel="0.1"/>
            <elres x100="0" lspd_numerator="4" amt="0" lspd="0.1" lpdel="0" dec="0.5" lspd_syncmode="0" att="0" ctlenvamt="0" pdel="0" latt="0" sustain="0.5" lspd_denominator="4" hold="0.5" lamt="0" userwavefile="" lshp="0" rel="0.1"/>
          </eldata>
          <chordcreator chordrange="1" chord="0" chord-enabled="0"/>
          <arpeggiator arprange="1" arptime_syncmode="0" arpskip="0" arpmiss="0" arptime="200" arpdir="0" arpmode="0" arptime_denominator="4" arp-enabled="0" arp="0" arpgate="100" arpcycle="0" arptime_numerator="4"/>
          <midiport inputcontroller="0" outputcontroller="0" outputprogram="1" basevelocity="63" outputchannel="1" writable="0" inputchannel="0" readable="0" fixedinputvelocity="-1" fixedoutputvelocity="-1" fixedoutputnote="-1"/>
          <fxchain numofeffects="0" enabled="0"/>
        </instrumenttrack>
        <pattern type="1" name="" steps="16" muted="0" pos="28224">
          <note vol="100" pan="0" key="57" pos="48" len="528"/>
        </pattern>
        <pattern type="0" name="" steps="16" muted="0" pos="46464"/>
        <pattern type="1" name="" steps="16" muted="0" pos="42048">
          <note vol="100" pan="0" key="57" pos="48" len="528"/>
        </pattern>
      </track>
      <track type="0" name="bass fender jazz (1,379kb)" solo="0" muted="0" mutedBeforeSolo="0">
        <instrumenttrack usemasterpitch="1" pitchrange="2" pitch="0" vol="30.6" basenote="57" pan="0" fxch="0">
          <instrument name="sf2player">
            <sf2player reverbRoomSize="0.2" reverbWidth="0.5" reverbDamping="0" chorusNum="3" patch="0" chorusLevel="2" src="/home/pass/samples/soundfonts/bass fender jazz (1,379kb).sf2" reverbOn="0" chorusOn="0" gain="3.16" chorusDepth="8" chorusSpeed="0.3" bank="0" reverbLevel="0.9">
              <key/>
            </sf2player>
          </instrument>
          <eldata fwet="0" fres="0.5" ftype="0" fcut="14000">
            <elvol x100="0" lspd_numerator="4" amt="0" lspd="0.1" lpdel="0" dec="0.5" lspd_syncmode="0" att="0" ctlenvamt="0" pdel="0" latt="0" sustain="0.5" lspd_denominator="4" hold="0.5" lamt="0" userwavefile="" lshp="0" rel="0.1"/>
            <elcut x100="0" lspd_numerator="4" amt="0" lspd="0.1" lpdel="0" dec="0.5" lspd_syncmode="0" att="0" ctlenvamt="0" pdel="0" latt="0" sustain="0.5" lspd_denominator="4" hold="0.5" lamt="0" userwavefile="" lshp="0" rel="0.1"/>
            <elres x100="0" lspd_numerator="4" amt="0" lspd="0.1" lpdel="0" dec="0.5" lspd_syncmode="0" att="0" ctlenvamt="0" pdel="0" latt="0" sustain="0.5" lspd_denominator="4" hold="0.5" lamt="0" userwavefile="" lshp="0" rel="0.1"/>
          </eldata>
          <chordcreator chordrange="1" chord="0" chord-enabled="0"/>
          <arpeggiator arprange="1" arptime_syncmode="0" arpskip="0" arpmiss="0" arptime="200" arpdir="0" arpmode="0" arptime_denominator="4" arp-enabled="0" arp="0" arpgate="100" arpcycle="0" arptime_numerator="4"/>
          <midiport inputcontroller="0" outputcontroller="0" outputprogram="1" basevelocity="63" outputchannel="1" writable="0" inputchannel="0" readable="0" fixedinputvelocity="-1" fixedoutputvelocity="-1" fixedoutputnote="-1"/>
          <fxchain numofeffects="0" enabled="0"/>
        </instrumenttrack>
        <pattern type="1" name="" steps="16" muted="0" pos="22656">
          <note vol="195" pan="0" key="25" pos="0" len="768"/>
          <note vol="195" pan="0" key="26" pos="768" len="384"/>
          <note vol="195" pan="0" key="25" pos="1152" len="288"/>
          <note vol="195" pan="0" key="31" pos="1440" len="12"/>
          <note vol="195" pan="0" key="32" pos="1448" len="84"/>
          <note vol="195" pan="0" key="30" pos="1536" len="120"/>
          <note vol="195" pan="0" key="30" pos="1656" len="24"/>
          <note vol="195" pan="0" key="25" pos="1680" len="24"/>
          <note vol="195" pan="0" key="30" pos="1704" len="24"/>
          <note vol="195" pan="0" key="32" pos="1728" len="48"/>
          <note vol="195" pan="0" key="30" pos="1776" len="24"/>
          <note vol="195" pan="0" key="25" pos="1800" len="72"/>
          <note vol="195" pan="0" key="20" pos="1872" len="48"/>
          <note vol="195" pan="0" key="16" pos="1920" len="336"/>
          <note vol="195" pan="0" key="18" pos="2256" len="24"/>
          <note vol="195" pan="0" key="20" pos="2280" len="24"/>
          <note vol="195" pan="0" key="21" pos="2304" len="192"/>
          <note vol="195" pan="0" key="23" pos="2496" len="192"/>
          <note vol="195" pan="0" key="25" pos="2688" len="192"/>
          <note vol="195" pan="0" key="27" pos="2880" len="12"/>
          <note vol="195" pan="0" key="28" pos="2888" len="60"/>
          <note vol="195" pan="0" key="27" pos="2952" len="72"/>
          <note vol="195" pan="0" key="25" pos="3024" len="48"/>
          <note vol="195" pan="0" key="23" pos="3072" len="240"/>
          <note vol="195" pan="0" key="18" pos="3312" len="48"/>
          <note vol="195" pan="0" key="23" pos="3360" len="48"/>
          <note vol="195" pan="0" key="25" pos="3408" len="48"/>
          <note vol="195" pan="0" key="18" pos="3456" len="288"/>
          <note vol="195" pan="0" key="19" pos="3744" len="12"/>
          <note vol="195" pan="0" key="20" pos="3752" len="84"/>
          <note vol="195" pan="0" key="23" pos="3840" len="120"/>
          <note vol="195" pan="0" key="18" pos="3960" len="24"/>
          <note vol="195" pan="0" key="21" pos="3984" len="24"/>
          <note vol="195" pan="0" key="27" pos="4008" len="24"/>
          <note vol="195" pan="0" key="27" pos="4032" len="12"/>
          <note vol="195" pan="0" key="28" pos="4040" len="36"/>
          <note vol="195" pan="0" key="27" pos="4080" len="24"/>
          <note vol="195" pan="0" key="25" pos="4104" len="72"/>
          <note vol="195" pan="0" key="25" pos="4176" len="24"/>
          <note vol="195" pan="0" key="23" pos="4200" len="24"/>
          <note vol="195" pan="0" key="25" pos="4224" len="96"/>
          <note vol="195" pan="0" key="23" pos="4320" len="96"/>
          <note vol="195" pan="0" key="22" pos="4416" len="144"/>
          <note vol="195" pan="0" key="20" pos="4560" len="48"/>
          <note vol="195" pan="0" key="18" pos="4608" len="144"/>
          <note vol="195" pan="0" key="25" pos="4752" len="48"/>
          <note vol="195" pan="0" key="18" pos="4800" len="192"/>
          <note vol="195" pan="0" key="20" pos="4992" len="384"/>
          <note vol="195" pan="0" key="21" pos="5376" len="384"/>
          <note vol="195" pan="0" key="23" pos="5760" len="384"/>
        </pattern>
        <pattern type="1" name="" steps="16" muted="0" pos="384">
          <note vol="191" pan="0" key="13" pos="0" len="384"/>
          <note vol="193" pan="0" key="20" pos="384" len="384"/>
          <note vol="193" pan="0" key="15" pos="768" len="384"/>
          <note vol="193" pan="0" key="14" pos="1152" len="336"/>
          <note vol="193" pan="0" key="14" pos="1488" len="12"/>
          <note vol="193" pan="0" key="14" pos="1500" len="12"/>
          <note vol="193" pan="0" key="14" pos="1512" len="12"/>
          <note vol="193" pan="0" key="14" pos="1524" len="12"/>
        </pattern>
        <pattern type="1" name="" steps="16" muted="0" pos="1920">
          <note vol="195" pan="0" key="13" pos="0" len="36"/>
          <note vol="78" pan="0" key="1" pos="0" len="24"/>
          <note vol="195" pan="0" key="13" pos="72" len="36"/>
          <note vol="195" pan="0" key="13" pos="144" len="36"/>
          <note vol="195" pan="0" key="13" pos="216" len="36"/>
          <note vol="195" pan="0" key="13" pos="288" len="24"/>
          <note vol="78" pan="0" key="0" pos="300" len="24"/>
          <note vol="195" pan="0" key="13" pos="312" len="48"/>
          <note vol="78" pan="0" key="1" pos="336" len="24"/>
          <note vol="195" pan="0" key="13" pos="360" len="24"/>
          <note vol="195" pan="0" key="20" pos="384" len="36"/>
          <note vol="195" pan="0" key="20" pos="456" len="36"/>
          <note vol="195" pan="0" key="20" pos="528" len="36"/>
          <note vol="195" pan="0" key="20" pos="600" len="36"/>
          <note vol="195" pan="0" key="20" pos="672" len="24"/>
          <note vol="78" pan="0" key="0" pos="684" len="24"/>
          <note vol="195" pan="0" key="20" pos="696" len="48"/>
          <note vol="78" pan="0" key="1" pos="720" len="24"/>
          <note vol="195" pan="0" key="20" pos="744" len="24"/>
          <note vol="195" pan="0" key="15" pos="768" len="36"/>
          <note vol="195" pan="0" key="15" pos="840" len="36"/>
          <note vol="195" pan="0" key="15" pos="912" len="36"/>
          <note vol="195" pan="0" key="15" pos="984" len="36"/>
          <note vol="195" pan="0" key="15" pos="1056" len="24"/>
          <note vol="78" pan="0" key="0" pos="1068" len="24"/>
          <note vol="195" pan="0" key="15" pos="1080" len="48"/>
          <note vol="78" pan="0" key="1" pos="1116" len="24"/>
          <note vol="195" pan="0" key="15" pos="1128" len="24"/>
          <note vol="195" pan="0" key="14" pos="1152" len="36"/>
          <note vol="195" pan="0" key="14" pos="1224" len="36"/>
          <note vol="195" pan="0" key="14" pos="1296" len="36"/>
        </pattern>
        <pattern type="1" name="" steps="16" muted="0" pos="3456">
          <note vol="197" pan="0" key="13" pos="0" len="192"/>
          <note vol="78" pan="0" key="0" pos="0" len="48"/>
          <note vol="197" pan="0" key="20" pos="192" len="192"/>
          <note vol="197" pan="0" key="21" pos="384" len="192"/>
          <note vol="197" pan="0" key="23" pos="576" len="192"/>
          <note vol="197" pan="0" key="1" pos="756" len="12"/>
          <note vol="197" pan="0" key="18" pos="768" len="12"/>
          <note vol="197" pan="0" key="18" pos="780" len="12"/>
          <note vol="197" pan="0" key="18" pos="792" len="12"/>
          <note vol="197" pan="0" key="18" pos="804" len="12"/>
          <note vol="197" pan="0" key="18" pos="816" len="12"/>
          <note vol="197" pan="0" key="18" pos="828" len="12"/>
          <note vol="197" pan="0" key="18" pos="840" len="12"/>
          <note vol="197" pan="0" key="18" pos="852" len="12"/>
          <note vol="197" pan="0" key="18" pos="864" len="12"/>
          <note vol="197" pan="0" key="18" pos="876" len="12"/>
          <note vol="197" pan="0" key="18" pos="888" len="12"/>
          <note vol="197" pan="0" key="18" pos="900" len="12"/>
          <note vol="197" pan="0" key="18" pos="912" len="12"/>
          <note vol="197" pan="0" key="18" pos="924" len="12"/>
          <note vol="197" pan="0" key="18" pos="936" len="12"/>
          <note vol="197" pan="0" key="18" pos="948" len="12"/>
          <note vol="197" pan="0" key="20" pos="960" len="12"/>
          <note vol="197" pan="0" key="20" pos="972" len="12"/>
          <note vol="197" pan="0" key="20" pos="984" len="12"/>
          <note vol="197" pan="0" key="20" pos="996" len="12"/>
          <note vol="197" pan="0" key="20" pos="1008" len="12"/>
          <note vol="197" pan="0" key="20" pos="1020" len="12"/>
          <note vol="197" pan="0" key="20" pos="1032" len="12"/>
          <note vol="197" pan="0" key="20" pos="1044" len="12"/>
          <note vol="197" pan="0" key="20" pos="1056" len="12"/>
          <note vol="197" pan="0" key="20" pos="1068" len="12"/>
          <note vol="197" pan="0" key="20" pos="1080" len="12"/>
          <note vol="197" pan="0" key="20" pos="1092" len="12"/>
          <note vol="197" pan="0" key="20" pos="1104" len="12"/>
          <note vol="197" pan="0" key="20" pos="1116" len="12"/>
          <note vol="197" pan="0" key="20" pos="1128" len="12"/>
          <note vol="197" pan="0" key="20" pos="1140" len="12"/>
          <note vol="197" pan="0" key="21" pos="1152" len="12"/>
          <note vol="197" pan="0" key="21" pos="1164" len="12"/>
          <note vol="197" pan="0" key="21" pos="1176" len="12"/>
          <note vol="197" pan="0" key="21" pos="1188" len="12"/>
          <note vol="197" pan="0" key="21" pos="1200" len="12"/>
          <note vol="197" pan="0" key="21" pos="1212" len="12"/>
          <note vol="197" pan="0" key="21" pos="1224" len="12"/>
          <note vol="197" pan="0" key="21" pos="1236" len="12"/>
          <note vol="197" pan="0" key="21" pos="1248" len="12"/>
          <note vol="197" pan="0" key="21" pos="1260" len="12"/>
          <note vol="197" pan="0" key="21" pos="1272" len="12"/>
          <note vol="197" pan="0" key="21" pos="1284" len="12"/>
          <note vol="197" pan="0" key="21" pos="1296" len="12"/>
          <note vol="197" pan="0" key="21" pos="1308" len="12"/>
          <note vol="197" pan="0" key="21" pos="1320" len="12"/>
          <note vol="197" pan="0" key="21" pos="1332" len="12"/>
          <note vol="197" pan="0" key="23" pos="1344" len="48"/>
          <note vol="197" pan="0" key="0" pos="1344" len="12"/>
          <note vol="197" pan="0" key="23" pos="1392" len="48"/>
          <note vol="197" pan="0" key="20" pos="1440" len="48"/>
          <note vol="197" pan="0" key="23" pos="1488" len="48"/>
        </pattern>
        <pattern type="1" name="" steps="16" muted="0" pos="4992">
          <note vol="197" pan="0" key="25" pos="0" len="24"/>
          <note vol="197" pan="0" key="23" pos="24" len="24"/>
          <note vol="197" pan="0" key="25" pos="48" len="24"/>
          <note vol="197" pan="0" key="32" pos="72" len="24"/>
          <note vol="197" pan="0" key="25" pos="96" len="12"/>
          <note vol="197" pan="0" key="25" pos="108" len="12"/>
          <note vol="197" pan="0" key="25" pos="120" len="12"/>
          <note vol="197" pan="0" key="25" pos="132" len="12"/>
          <note vol="197" pan="0" key="25" pos="144" len="12"/>
          <note vol="197" pan="0" key="25" pos="156" len="12"/>
          <note vol="197" pan="0" key="25" pos="168" len="12"/>
          <note vol="197" pan="0" key="25" pos="180" len="12"/>
        </pattern>
        <pattern type="1" name="" steps="16" muted="0" pos="5184">
          <note vol="197" pan="0" key="18" pos="0" len="24"/>
          <note vol="197" pan="0" key="16" pos="24" len="24"/>
          <note vol="197" pan="0" key="18" pos="48" len="24"/>
          <note vol="197" pan="0" key="25" pos="72" len="24"/>
          <note vol="197" pan="0" key="18" pos="96" len="12"/>
          <note vol="197" pan="0" key="18" pos="108" len="12"/>
          <note vol="197" pan="0" key="18" pos="120" len="12"/>
          <note vol="197" pan="0" key="18" pos="132" len="12"/>
          <note vol="197" pan="0" key="18" pos="144" len="12"/>
          <note vol="197" pan="0" key="18" pos="156" len="12"/>
          <note vol="197" pan="0" key="18" pos="168" len="12"/>
          <note vol="197" pan="0" key="18" pos="180" len="12"/>
        </pattern>
        <pattern type="1" name="" steps="16" muted="0" pos="5376">
          <note vol="195" pan="0" key="20" pos="0" len="24"/>
          <note vol="195" pan="0" key="23" pos="24" len="24"/>
          <note vol="195" pan="0" key="20" pos="48" len="24"/>
          <note vol="195" pan="0" key="27" pos="72" len="48"/>
          <note vol="195" pan="0" key="20" pos="120" len="24"/>
          <note vol="195" pan="0" key="23" pos="144" len="24"/>
          <note vol="195" pan="0" key="27" pos="168" len="24"/>
          <note vol="195" pan="0" key="21" pos="192" len="12"/>
          <note vol="195" pan="0" key="21" pos="204" len="12"/>
          <note vol="195" pan="0" key="21" pos="216" len="12"/>
          <note vol="195" pan="0" key="21" pos="228" len="12"/>
          <note vol="195" pan="0" key="21" pos="240" len="12"/>
          <note vol="195" pan="0" key="21" pos="252" len="12"/>
          <note vol="195" pan="0" key="25" pos="264" len="12"/>
          <note vol="195" pan="0" key="25" pos="276" len="12"/>
          <note vol="195" pan="0" key="23" pos="288" len="12"/>
          <note vol="195" pan="0" key="23" pos="300" len="12"/>
          <note vol="195" pan="0" key="23" pos="312" len="12"/>
          <note vol="195" pan="0" key="23" pos="324" len="12"/>
          <note vol="195" pan="0" key="27" pos="336" len="12"/>
          <note vol="195" pan="0" key="27" pos="348" len="12"/>
          <note vol="195" pan="0" key="23" pos="360" len="12"/>
          <note vol="195" pan="0" key="23" pos="372" len="12"/>
        </pattern>
        <pattern type="1" name="" steps="16" muted="0" pos="5760">
          <note vol="197" pan="0" key="25" pos="0" len="24"/>
          <note vol="197" pan="0" key="23" pos="24" len="24"/>
          <note vol="197" pan="0" key="25" pos="48" len="24"/>
          <note vol="197" pan="0" key="32" pos="72" len="24"/>
          <note vol="197" pan="0" key="25" pos="96" len="12"/>
          <note vol="197" pan="0" key="25" pos="108" len="12"/>
          <note vol="197" pan="0" key="25" pos="120" len="12"/>
          <note vol="197" pan="0" key="25" pos="132" len="12"/>
          <note vol="197" pan="0" key="25" pos="144" len="12"/>
          <note vol="197" pan="0" key="25" pos="156" len="12"/>
          <note vol="197" pan="0" key="25" pos="168" len="12"/>
          <note vol="197" pan="0" key="25" pos="180" len="12"/>
        </pattern>
        <pattern type="1" name="" steps="16" muted="0" pos="5952">
          <note vol="197" pan="0" key="18" pos="0" len="24"/>
          <note vol="197" pan="0" key="16" pos="24" len="24"/>
          <note vol="197" pan="0" key="18" pos="48" len="24"/>
          <note vol="197" pan="0" key="25" pos="72" len="24"/>
          <note vol="197" pan="0" key="18" pos="96" len="12"/>
          <note vol="197" pan="0" key="18" pos="108" len="12"/>
          <note vol="197" pan="0" key="18" pos="120" len="12"/>
          <note vol="197" pan="0" key="18" pos="132" len="12"/>
          <note vol="197" pan="0" key="18" pos="144" len="12"/>
          <note vol="197" pan="0" key="18" pos="156" len="12"/>
          <note vol="197" pan="0" key="18" pos="168" len="12"/>
          <note vol="197" pan="0" key="18" pos="180" len="12"/>
        </pattern>
        <pattern type="1" name="" steps="16" muted="0" pos="6144">
          <note vol="195" pan="0" key="20" pos="0" len="24"/>
          <note vol="195" pan="0" key="23" pos="24" len="24"/>
          <note vol="195" pan="0" key="20" pos="48" len="24"/>
          <note vol="195" pan="0" key="27" pos="72" len="48"/>
          <note vol="195" pan="0" key="20" pos="120" len="24"/>
          <note vol="195" pan="0" key="23" pos="144" len="24"/>
          <note vol="195" pan="0" key="27" pos="168" len="24"/>
          <note vol="195" pan="0" key="21" pos="192" len="12"/>
          <note vol="195" pan="0" key="21" pos="204" len="12"/>
          <note vol="195" pan="0" key="21" pos="216" len="12"/>
          <note vol="195" pan="0" key="21" pos="228" len="12"/>
          <note vol="195" pan="0" key="21" pos="240" len="12"/>
          <note vol="195" pan="0" key="21" pos="252" len="12"/>
          <note vol="195" pan="0" key="25" pos="264" len="12"/>
          <note vol="195" pan="0" key="25" pos="276" len="12"/>
          <note vol="195" pan="0" key="23" pos="288" len="12"/>
          <note vol="195" pan="0" key="23" pos="300" len="12"/>
          <note vol="195" pan="0" key="23" pos="312" len="12"/>
          <note vol="195" pan="0" key="23" pos="324" len="12"/>
          <note vol="195" pan="0" key="27" pos="336" len="12"/>
          <note vol="195" pan="0" key="27" pos="348" len="12"/>
          <note vol="195" pan="0" key="23" pos="360" len="12"/>
          <note vol="195" pan="0" key="23" pos="372" len="12"/>
        </pattern>
        <pattern type="1" name="" steps="16" muted="0" pos="6528">
          <note vol="197" pan="0" key="11" pos="0" len="48"/>
          <note vol="197" pan="0" key="11" pos="48" len="12"/>
          <note vol="197" pan="0" key="11" pos="60" len="12"/>
          <note vol="197" pan="0" key="11" pos="72" len="24"/>
          <note vol="197" pan="0" key="11" pos="96" len="12"/>
          <note vol="197" pan="0" key="11" pos="108" len="12"/>
          <note vol="197" pan="0" key="11" pos="120" len="24"/>
          <note vol="197" pan="0" key="11" pos="144" len="12"/>
          <note vol="197" pan="0" key="11" pos="156" len="12"/>
          <note vol="197" pan="0" key="11" pos="168" len="24"/>
          <note vol="197" pan="0" key="11" pos="192" len="48"/>
          <note vol="197" pan="0" key="11" pos="240" len="12"/>
          <note vol="197" pan="0" key="11" pos="252" len="12"/>
          <note vol="197" pan="0" key="11" pos="264" len="24"/>
          <note vol="197" pan="0" key="11" pos="288" len="12"/>
          <note vol="197" pan="0" key="11" pos="300" len="12"/>
          <note vol="197" pan="0" key="11" pos="312" len="24"/>
          <note vol="197" pan="0" key="11" pos="336" len="12"/>
          <note vol="197" pan="0" key="11" pos="348" len="12"/>
          <note vol="197" pan="0" key="11" pos="360" len="24"/>
          <note vol="197" pan="0" key="21" pos="384" len="48"/>
          <note vol="197" pan="0" key="21" pos="432" len="12"/>
          <note vol="197" pan="0" key="21" pos="444" len="12"/>
          <note vol="197" pan="0" key="21" pos="456" len="24"/>
          <note vol="197" pan="0" key="21" pos="480" len="12"/>
          <note vol="197" pan="0" key="21" pos="492" len="12"/>
          <note vol="197" pan="0" key="21" pos="504" len="24"/>
          <note vol="197" pan="0" key="21" pos="528" len="12"/>
          <note vol="197" pan="0" key="21" pos="540" len="12"/>
          <note vol="197" pan="0" key="21" pos="552" len="24"/>
          <note vol="197" pan="0" key="20" pos="576" len="48"/>
          <note vol="197" pan="0" key="20" pos="624" len="12"/>
          <note vol="197" pan="0" key="20" pos="636" len="12"/>
          <note vol="197" pan="0" key="20" pos="648" len="24"/>
          <note vol="197" pan="0" key="20" pos="672" len="12"/>
          <note vol="197" pan="0" key="20" pos="684" len="12"/>
          <note vol="197" pan="0" key="20" pos="696" len="12"/>
          <note vol="197" pan="0" key="20" pos="708" len="12"/>
          <note vol="197" pan="0" key="20" pos="720" len="12"/>
          <note vol="197" pan="0" key="20" pos="732" len="12"/>
          <note vol="197" pan="0" key="20" pos="744" len="24"/>
        </pattern>
        <pattern type="1" name="" steps="16" muted="0" pos="8064">
          <note vol="195" pan="0" key="13" pos="0" len="48"/>
          <note vol="195" pan="0" key="13" pos="48" len="12"/>
          <note vol="195" pan="0" key="13" pos="60" len="12"/>
          <note vol="195" pan="0" key="13" pos="72" len="12"/>
          <note vol="195" pan="0" key="13" pos="84" len="12"/>
          <note vol="195" pan="0" key="13" pos="96" len="12"/>
          <note vol="195" pan="0" key="13" pos="108" len="12"/>
          <note vol="195" pan="0" key="13" pos="120" len="12"/>
          <note vol="195" pan="0" key="13" pos="132" len="12"/>
          <note vol="195" pan="0" key="13" pos="144" len="12"/>
          <note vol="195" pan="0" key="13" pos="156" len="12"/>
          <note vol="195" pan="0" key="13" pos="168" len="12"/>
          <note vol="195" pan="0" key="13" pos="180" len="12"/>
          <note vol="195" pan="0" key="20" pos="192" len="48"/>
          <note vol="195" pan="0" key="20" pos="240" len="12"/>
          <note vol="195" pan="0" key="20" pos="252" len="12"/>
          <note vol="195" pan="0" key="20" pos="264" len="12"/>
          <note vol="195" pan="0" key="20" pos="276" len="12"/>
          <note vol="195" pan="0" key="20" pos="288" len="12"/>
          <note vol="195" pan="0" key="20" pos="300" len="12"/>
          <note vol="195" pan="0" key="20" pos="312" len="12"/>
          <note vol="195" pan="0" key="20" pos="324" len="12"/>
          <note vol="195" pan="0" key="20" pos="336" len="12"/>
          <note vol="195" pan="0" key="20" pos="348" len="12"/>
          <note vol="195" pan="0" key="20" pos="360" len="12"/>
          <note vol="195" pan="0" key="20" pos="372" len="12"/>
          <note vol="195" pan="0" key="21" pos="384" len="48"/>
          <note vol="195" pan="0" key="21" pos="432" len="12"/>
          <note vol="195" pan="0" key="21" pos="444" len="12"/>
          <note vol="195" pan="0" key="21" pos="456" len="12"/>
          <note vol="195" pan="0" key="21" pos="468" len="12"/>
          <note vol="195" pan="0" key="21" pos="480" len="12"/>
          <note vol="195" pan="0" key="21" pos="492" len="12"/>
          <note vol="195" pan="0" key="21" pos="504" len="12"/>
          <note vol="195" pan="0" key="21" pos="516" len="12"/>
          <note vol="195" pan="0" key="21" pos="528" len="12"/>
          <note vol="195" pan="0" key="21" pos="540" len="12"/>
          <note vol="195" pan="0" key="21" pos="552" len="12"/>
          <note vol="195" pan="0" key="21" pos="564" len="12"/>
          <note vol="195" pan="0" key="23" pos="576" len="48"/>
          <note vol="195" pan="0" key="23" pos="624" len="12"/>
          <note vol="195" pan="0" key="23" pos="636" len="12"/>
          <note vol="195" pan="0" key="23" pos="648" len="12"/>
          <note vol="195" pan="0" key="23" pos="660" len="12"/>
          <note vol="195" pan="0" key="23" pos="672" len="12"/>
          <note vol="195" pan="0" key="23" pos="684" len="12"/>
          <note vol="195" pan="0" key="23" pos="696" len="12"/>
          <note vol="195" pan="0" key="23" pos="708" len="12"/>
          <note vol="195" pan="0" key="23" pos="720" len="12"/>
          <note vol="195" pan="0" key="23" pos="732" len="12"/>
          <note vol="195" pan="0" key="23" pos="744" len="12"/>
          <note vol="195" pan="0" key="23" pos="756" len="12"/>
          <note vol="195" pan="0" key="18" pos="768" len="48"/>
          <note vol="195" pan="0" key="18" pos="816" len="12"/>
          <note vol="195" pan="0" key="18" pos="828" len="12"/>
          <note vol="195" pan="0" key="18" pos="840" len="12"/>
          <note vol="195" pan="0" key="18" pos="852" len="12"/>
          <note vol="195" pan="0" key="18" pos="864" len="12"/>
          <note vol="195" pan="0" key="18" pos="876" len="12"/>
          <note vol="195" pan="0" key="18" pos="888" len="12"/>
          <note vol="195" pan="0" key="18" pos="900" len="12"/>
          <note vol="195" pan="0" key="18" pos="912" len="12"/>
          <note vol="195" pan="0" key="18" pos="924" len="12"/>
          <note vol="195" pan="0" key="18" pos="936" len="12"/>
          <note vol="195" pan="0" key="18" pos="948" len="12"/>
          <note vol="195" pan="0" key="20" pos="960" len="48"/>
          <note vol="195" pan="0" key="20" pos="1008" len="12"/>
          <note vol="195" pan="0" key="20" pos="1020" len="12"/>
          <note vol="195" pan="0" key="20" pos="1032" len="12"/>
          <note vol="195" pan="0" key="20" pos="1044" len="12"/>
          <note vol="195" pan="0" key="20" pos="1056" len="12"/>
          <note vol="195" pan="0" key="20" pos="1068" len="12"/>
          <note vol="195" pan="0" key="20" pos="1080" len="12"/>
          <note vol="195" pan="0" key="20" pos="1092" len="12"/>
          <note vol="195" pan="0" key="20" pos="1104" len="12"/>
          <note vol="195" pan="0" key="20" pos="1116" len="12"/>
          <note vol="195" pan="0" key="20" pos="1128" len="12"/>
          <note vol="195" pan="0" key="20" pos="1140" len="12"/>
          <note vol="195" pan="0" key="21" pos="1152" len="48"/>
          <note vol="195" pan="0" key="21" pos="1200" len="12"/>
          <note vol="195" pan="0" key="21" pos="1212" len="12"/>
          <note vol="195" pan="0" key="21" pos="1224" len="12"/>
          <note vol="195" pan="0" key="21" pos="1236" len="12"/>
          <note vol="195" pan="0" key="21" pos="1248" len="12"/>
          <note vol="195" pan="0" key="21" pos="1260" len="12"/>
          <note vol="195" pan="0" key="21" pos="1272" len="12"/>
          <note vol="195" pan="0" key="21" pos="1284" len="12"/>
          <note vol="195" pan="0" key="21" pos="1296" len="12"/>
          <note vol="195" pan="0" key="21" pos="1308" len="12"/>
          <note vol="195" pan="0" key="21" pos="1320" len="12"/>
          <note vol="195" pan="0" key="21" pos="1332" len="12"/>
          <note vol="195" pan="0" key="23" pos="1344" len="48"/>
          <note vol="195" pan="0" key="23" pos="1392" len="12"/>
          <note vol="195" pan="0" key="23" pos="1404" len="12"/>
          <note vol="195" pan="0" key="23" pos="1416" len="12"/>
          <note vol="195" pan="0" key="23" pos="1428" len="12"/>
          <note vol="195" pan="0" key="24" pos="1440" len="48"/>
          <note vol="195" pan="0" key="24" pos="1488" len="12"/>
          <note vol="195" pan="0" key="24" pos="1500" len="12"/>
          <note vol="195" pan="0" key="24" pos="1512" len="12"/>
          <note vol="195" pan="0" key="24" pos="1524" len="12"/>
          <note vol="195" pan="0" key="13" pos="1536" len="48"/>
          <note vol="195" pan="0" key="13" pos="1584" len="12"/>
          <note vol="195" pan="0" key="13" pos="1596" len="12"/>
          <note vol="195" pan="0" key="13" pos="1608" len="12"/>
          <note vol="195" pan="0" key="13" pos="1620" len="12"/>
          <note vol="195" pan="0" key="13" pos="1632" len="12"/>
          <note vol="195" pan="0" key="13" pos="1644" len="12"/>
          <note vol="195" pan="0" key="13" pos="1656" len="12"/>
          <note vol="195" pan="0" key="13" pos="1668" len="12"/>
          <note vol="195" pan="0" key="13" pos="1680" len="12"/>
          <note vol="195" pan="0" key="13" pos="1692" len="12"/>
          <note vol="195" pan="0" key="13" pos="1704" len="12"/>
          <note vol="195" pan="0" key="13" pos="1716" len="12"/>
          <note vol="195" pan="0" key="23" pos="1728" len="48"/>
          <note vol="195" pan="0" key="23" pos="1776" len="12"/>
          <note vol="195" pan="0" key="23" pos="1788" len="12"/>
          <note vol="195" pan="0" key="23" pos="1800" len="12"/>
          <note vol="195" pan="0" key="23" pos="1812" len="12"/>
          <note vol="195" pan="0" key="23" pos="1824" len="12"/>
          <note vol="195" pan="0" key="23" pos="1836" len="12"/>
          <note vol="195" pan="0" key="23" pos="1848" len="12"/>
          <note vol="195" pan="0" key="23" pos="1860" len="12"/>
          <note vol="195" pan="0" key="23" pos="1872" len="12"/>
          <note vol="195" pan="0" key="23" pos="1884" len="12"/>
          <note vol="195" pan="0" key="23" pos="1896" len="12"/>
          <note vol="195" pan="0" key="23" pos="1908" len="12"/>
          <note vol="195" pan="0" key="22" pos="1920" len="48"/>
          <note vol="195" pan="0" key="22" pos="1968" len="12"/>
          <note vol="195" pan="0" key="22" pos="1980" len="12"/>
          <note vol="195" pan="0" key="22" pos="1992" len="12"/>
          <note vol="195" pan="0" key="22" pos="2004" len="12"/>
          <note vol="195" pan="0" key="22" pos="2016" len="12"/>
          <note vol="195" pan="0" key="22" pos="2028" len="12"/>
          <note vol="195" pan="0" key="22" pos="2040" len="12"/>
          <note vol="195" pan="0" key="22" pos="2052" len="12"/>
          <note vol="195" pan="0" key="22" pos="2064" len="12"/>
          <note vol="195" pan="0" key="22" pos="2076" len="12"/>
          <note vol="195" pan="0" key="22" pos="2088" len="12"/>
          <note vol="195" pan="0" key="22" pos="2100" len="12"/>
          <note vol="195" pan="0" key="18" pos="2112" len="48"/>
          <note vol="195" pan="0" key="18" pos="2160" len="12"/>
          <note vol="195" pan="0" key="18" pos="2172" len="12"/>
          <note vol="195" pan="0" key="18" pos="2184" len="12"/>
          <note vol="195" pan="0" key="18" pos="2196" len="12"/>
          <note vol="195" pan="0" key="16" pos="2208" len="48"/>
          <note vol="195" pan="0" key="16" pos="2256" len="12"/>
          <note vol="195" pan="0" key="16" pos="2268" len="12"/>
          <note vol="195" pan="0" key="16" pos="2280" len="12"/>
          <note vol="195" pan="0" key="16" pos="2292" len="12"/>
          <note vol="195" pan="0" key="14" pos="2304" len="48"/>
          <note vol="195" pan="0" key="14" pos="2352" len="12"/>
          <note vol="195" pan="0" key="14" pos="2364" len="12"/>
          <note vol="195" pan="0" key="14" pos="2376" len="12"/>
          <note vol="195" pan="0" key="14" pos="2388" len="12"/>
          <note vol="195" pan="0" key="14" pos="2400" len="48"/>
          <note vol="195" pan="0" key="14" pos="2448" len="12"/>
          <note vol="195" pan="0" key="14" pos="2460" len="12"/>
          <note vol="195" pan="0" key="14" pos="2472" len="12"/>
          <note vol="195" pan="0" key="14" pos="2484" len="12"/>
          <note vol="195" pan="0" key="21" pos="2496" len="48"/>
          <note vol="195" pan="0" key="21" pos="2544" len="12"/>
          <note vol="195" pan="0" key="21" pos="2556" len="12"/>
          <note vol="195" pan="0" key="21" pos="2568" len="12"/>
          <note vol="195" pan="0" key="21" pos="2580" len="12"/>
          <note vol="195" pan="0" key="21" pos="2592" len="12"/>
          <note vol="195" pan="0" key="21" pos="2604" len="12"/>
          <note vol="195" pan="0" key="21" pos="2616" len="12"/>
          <note vol="195" pan="0" key="21" pos="2628" len="12"/>
          <note vol="195" pan="0" key="21" pos="2640" len="12"/>
          <note vol="195" pan="0" key="21" pos="2652" len="12"/>
          <note vol="195" pan="0" key="21" pos="2664" len="12"/>
          <note vol="195" pan="0" key="21" pos="2676" len="12"/>
          <note vol="195" pan="0" key="23" pos="2688" len="48"/>
          <note vol="195" pan="0" key="23" pos="2736" len="12"/>
          <note vol="195" pan="0" key="23" pos="2748" len="12"/>
          <note vol="195" pan="0" key="23" pos="2760" len="12"/>
          <note vol="195" pan="0" key="23" pos="2772" len="12"/>
          <note vol="195" pan="0" key="23" pos="2784" len="12"/>
          <note vol="195" pan="0" key="23" pos="2796" len="12"/>
          <note vol="195" pan="0" key="23" pos="2808" len="12"/>
          <note vol="195" pan="0" key="23" pos="2820" len="12"/>
          <note vol="195" pan="0" key="23" pos="2832" len="12"/>
          <note vol="195" pan="0" key="23" pos="2844" len="12"/>
          <note vol="195" pan="0" key="23" pos="2856" len="12"/>
          <note vol="195" pan="0" key="23" pos="2868" len="12"/>
          <note vol="195" pan="0" key="23" pos="2880" len="96"/>
          <note vol="195" pan="0" key="27" pos="2976" len="96"/>
        </pattern>
        <pattern type="1" name="" steps="16" muted="0" pos="11136">
          <note vol="197" pan="0" key="13" pos="0" len="24"/>
          <note vol="197" pan="0" key="13" pos="24" len="12"/>
          <note vol="197" pan="0" key="13" pos="36" len="12"/>
          <note vol="197" pan="0" key="13" pos="48" len="12"/>
          <note vol="197" pan="0" key="13" pos="60" len="12"/>
          <note vol="197" pan="0" key="13" pos="72" len="24"/>
          <note vol="197" pan="0" key="13" pos="96" len="12"/>
          <note vol="197" pan="0" key="13" pos="108" len="12"/>
          <note vol="197" pan="0" key="13" pos="120" len="12"/>
          <note vol="197" pan="0" key="13" pos="132" len="12"/>
          <note vol="197" pan="0" key="13" pos="144" len="24"/>
          <note vol="197" pan="0" key="13" pos="168" len="12"/>
          <note vol="197" pan="0" key="13" pos="180" len="12"/>
          <note vol="197" pan="0" key="13" pos="192" len="12"/>
          <note vol="197" pan="0" key="13" pos="204" len="12"/>
          <note vol="197" pan="0" key="13" pos="216" len="24"/>
          <note vol="197" pan="0" key="13" pos="240" len="12"/>
          <note vol="197" pan="0" key="13" pos="252" len="12"/>
          <note vol="197" pan="0" key="13" pos="264" len="12"/>
          <note vol="197" pan="0" key="13" pos="276" len="12"/>
          <note vol="197" pan="0" key="13" pos="288" len="24"/>
          <note vol="197" pan="0" key="13" pos="312" len="12"/>
          <note vol="197" pan="0" key="13" pos="324" len="12"/>
          <note vol="197" pan="0" key="13" pos="336" len="24"/>
          <note vol="197" pan="0" key="13" pos="360" len="12"/>
          <note vol="197" pan="0" key="13" pos="372" len="12"/>
        </pattern>
        <pattern type="1" name="" steps="16" muted="0" pos="11904">
          <note vol="197" pan="0" key="13" pos="0" len="24"/>
          <note vol="197" pan="0" key="13" pos="24" len="12"/>
          <note vol="197" pan="0" key="13" pos="36" len="12"/>
          <note vol="197" pan="0" key="13" pos="48" len="12"/>
          <note vol="197" pan="0" key="13" pos="60" len="12"/>
          <note vol="197" pan="0" key="13" pos="72" len="24"/>
          <note vol="197" pan="0" key="13" pos="96" len="12"/>
          <note vol="197" pan="0" key="13" pos="108" len="12"/>
          <note vol="197" pan="0" key="13" pos="120" len="12"/>
          <note vol="197" pan="0" key="13" pos="132" len="12"/>
          <note vol="197" pan="0" key="13" pos="144" len="24"/>
          <note vol="197" pan="0" key="13" pos="168" len="12"/>
          <note vol="197" pan="0" key="13" pos="180" len="12"/>
          <note vol="197" pan="0" key="13" pos="192" len="12"/>
          <note vol="197" pan="0" key="13" pos="204" len="12"/>
          <note vol="197" pan="0" key="13" pos="216" len="24"/>
          <note vol="197" pan="0" key="13" pos="240" len="12"/>
          <note vol="197" pan="0" key="13" pos="252" len="12"/>
          <note vol="197" pan="0" key="13" pos="264" len="12"/>
          <note vol="197" pan="0" key="13" pos="276" len="12"/>
          <note vol="197" pan="0" key="13" pos="288" len="24"/>
          <note vol="197" pan="0" key="13" pos="312" len="12"/>
          <note vol="197" pan="0" key="13" pos="324" len="12"/>
          <note vol="197" pan="0" key="13" pos="336" len="24"/>
          <note vol="197" pan="0" key="13" pos="360" len="12"/>
          <note vol="197" pan="0" key="13" pos="372" len="12"/>
        </pattern>
        <pattern type="1" name="" steps="16" muted="0" pos="11520">
          <note vol="197" pan="0" key="14" pos="0" len="24"/>
          <note vol="197" pan="0" key="14" pos="24" len="12"/>
          <note vol="197" pan="0" key="14" pos="36" len="12"/>
          <note vol="197" pan="0" key="14" pos="48" len="12"/>
          <note vol="197" pan="0" key="14" pos="60" len="12"/>
          <note vol="197" pan="0" key="14" pos="72" len="24"/>
          <note vol="197" pan="0" key="14" pos="96" len="12"/>
          <note vol="197" pan="0" key="14" pos="108" len="12"/>
          <note vol="197" pan="0" key="14" pos="120" len="12"/>
          <note vol="197" pan="0" key="14" pos="132" len="12"/>
          <note vol="197" pan="0" key="14" pos="144" len="24"/>
          <note vol="197" pan="0" key="14" pos="168" len="12"/>
          <note vol="197" pan="0" key="14" pos="180" len="12"/>
          <note vol="197" pan="0" key="14" pos="192" len="12"/>
          <note vol="197" pan="0" key="14" pos="204" len="12"/>
          <note vol="197" pan="0" key="14" pos="216" len="24"/>
          <note vol="197" pan="0" key="14" pos="240" len="12"/>
          <note vol="197" pan="0" key="14" pos="252" len="12"/>
          <note vol="197" pan="0" key="14" pos="264" len="12"/>
          <note vol="197" pan="0" key="14" pos="276" len="12"/>
          <note vol="197" pan="0" key="14" pos="288" len="24"/>
          <note vol="197" pan="0" key="14" pos="312" len="12"/>
          <note vol="197" pan="0" key="14" pos="324" len="12"/>
          <note vol="197" pan="0" key="14" pos="336" len="24"/>
          <note vol="197" pan="0" key="14" pos="360" len="12"/>
          <note vol="197" pan="0" key="14" pos="372" len="12"/>
        </pattern>
        <pattern type="1" name="" steps="16" muted="0" pos="12288">
          <note vol="197" pan="0" key="14" pos="0" len="24"/>
          <note vol="197" pan="0" key="14" pos="24" len="12"/>
          <note vol="197" pan="0" key="14" pos="36" len="12"/>
          <note vol="197" pan="0" key="14" pos="48" len="12"/>
          <note vol="197" pan="0" key="14" pos="60" len="12"/>
          <note vol="197" pan="0" key="14" pos="72" len="24"/>
          <note vol="197" pan="0" key="14" pos="96" len="12"/>
          <note vol="197" pan="0" key="14" pos="108" len="12"/>
          <note vol="197" pan="0" key="14" pos="120" len="12"/>
          <note vol="197" pan="0" key="14" pos="132" len="12"/>
          <note vol="197" pan="0" key="14" pos="144" len="24"/>
          <note vol="197" pan="0" key="14" pos="168" len="12"/>
          <note vol="197" pan="0" key="14" pos="180" len="12"/>
          <note vol="197" pan="0" key="14" pos="192" len="12"/>
          <note vol="197" pan="0" key="14" pos="204" len="12"/>
          <note vol="197" pan="0" key="14" pos="216" len="24"/>
          <note vol="197" pan="0" key="14" pos="240" len="12"/>
          <note vol="197" pan="0" key="14" pos="252" len="12"/>
          <note vol="197" pan="0" key="14" pos="264" len="12"/>
          <note vol="197" pan="0" key="14" pos="276" len="12"/>
          <note vol="197" pan="0" key="14" pos="288" len="24"/>
          <note vol="197" pan="0" key="14" pos="312" len="12"/>
          <note vol="197" pan="0" key="14" pos="324" len="12"/>
          <note vol="197" pan="0" key="14" pos="336" len="24"/>
          <note vol="197" pan="0" key="14" pos="360" len="12"/>
          <note vol="197" pan="0" key="14" pos="372" len="12"/>
        </pattern>
        <pattern type="1" name="" steps="16" muted="0" pos="15744">
          <note vol="195" pan="0" key="13" pos="0" len="48"/>
          <note vol="195" pan="0" key="13" pos="48" len="12"/>
          <note vol="195" pan="0" key="13" pos="60" len="12"/>
          <note vol="195" pan="0" key="13" pos="72" len="12"/>
          <note vol="195" pan="0" key="13" pos="84" len="12"/>
          <note vol="195" pan="0" key="13" pos="96" len="12"/>
          <note vol="195" pan="0" key="13" pos="108" len="12"/>
          <note vol="195" pan="0" key="13" pos="120" len="12"/>
          <note vol="195" pan="0" key="13" pos="132" len="12"/>
          <note vol="195" pan="0" key="13" pos="144" len="12"/>
          <note vol="195" pan="0" key="13" pos="156" len="12"/>
          <note vol="195" pan="0" key="13" pos="168" len="12"/>
          <note vol="195" pan="0" key="13" pos="180" len="12"/>
          <note vol="195" pan="0" key="20" pos="192" len="48"/>
          <note vol="195" pan="0" key="20" pos="240" len="12"/>
          <note vol="195" pan="0" key="20" pos="252" len="12"/>
          <note vol="195" pan="0" key="20" pos="264" len="12"/>
          <note vol="195" pan="0" key="20" pos="276" len="12"/>
          <note vol="195" pan="0" key="20" pos="288" len="12"/>
          <note vol="195" pan="0" key="20" pos="300" len="12"/>
          <note vol="195" pan="0" key="20" pos="312" len="12"/>
          <note vol="195" pan="0" key="20" pos="324" len="12"/>
          <note vol="195" pan="0" key="20" pos="336" len="12"/>
          <note vol="195" pan="0" key="20" pos="348" len="12"/>
          <note vol="195" pan="0" key="20" pos="360" len="12"/>
          <note vol="195" pan="0" key="20" pos="372" len="12"/>
          <note vol="195" pan="0" key="21" pos="384" len="48"/>
          <note vol="195" pan="0" key="21" pos="432" len="12"/>
          <note vol="195" pan="0" key="21" pos="444" len="12"/>
          <note vol="195" pan="0" key="21" pos="456" len="12"/>
          <note vol="195" pan="0" key="21" pos="468" len="12"/>
          <note vol="195" pan="0" key="21" pos="480" len="12"/>
          <note vol="195" pan="0" key="21" pos="492" len="12"/>
          <note vol="195" pan="0" key="21" pos="504" len="12"/>
          <note vol="195" pan="0" key="21" pos="516" len="12"/>
          <note vol="195" pan="0" key="21" pos="528" len="12"/>
          <note vol="195" pan="0" key="21" pos="540" len="12"/>
          <note vol="195" pan="0" key="21" pos="552" len="12"/>
          <note vol="195" pan="0" key="21" pos="564" len="12"/>
          <note vol="195" pan="0" key="23" pos="576" len="48"/>
          <note vol="195" pan="0" key="23" pos="624" len="12"/>
          <note vol="195" pan="0" key="23" pos="636" len="12"/>
          <note vol="195" pan="0" key="23" pos="648" len="12"/>
          <note vol="195" pan="0" key="23" pos="660" len="12"/>
          <note vol="195" pan="0" key="23" pos="672" len="12"/>
          <note vol="195" pan="0" key="23" pos="684" len="12"/>
          <note vol="195" pan="0" key="23" pos="696" len="12"/>
          <note vol="195" pan="0" key="23" pos="708" len="12"/>
          <note vol="195" pan="0" key="23" pos="720" len="12"/>
          <note vol="195" pan="0" key="23" pos="732" len="12"/>
          <note vol="195" pan="0" key="23" pos="744" len="12"/>
          <note vol="195" pan="0" key="23" pos="756" len="12"/>
          <note vol="195" pan="0" key="18" pos="768" len="48"/>
          <note vol="195" pan="0" key="18" pos="816" len="12"/>
          <note vol="195" pan="0" key="18" pos="828" len="12"/>
          <note vol="195" pan="0" key="18" pos="840" len="12"/>
          <note vol="195" pan="0" key="18" pos="852" len="12"/>
          <note vol="195" pan="0" key="18" pos="864" len="12"/>
          <note vol="195" pan="0" key="18" pos="876" len="12"/>
          <note vol="195" pan="0" key="18" pos="888" len="12"/>
          <note vol="195" pan="0" key="18" pos="900" len="12"/>
          <note vol="195" pan="0" key="18" pos="912" len="12"/>
          <note vol="195" pan="0" key="18" pos="924" len="12"/>
          <note vol="195" pan="0" key="18" pos="936" len="12"/>
          <note vol="195" pan="0" key="18" pos="948" len="12"/>
          <note vol="195" pan="0" key="20" pos="960" len="48"/>
          <note vol="195" pan="0" key="20" pos="1008" len="12"/>
          <note vol="195" pan="0" key="20" pos="1020" len="12"/>
          <note vol="195" pan="0" key="20" pos="1032" len="12"/>
          <note vol="195" pan="0" key="20" pos="1044" len="12"/>
          <note vol="195" pan="0" key="20" pos="1056" len="12"/>
          <note vol="195" pan="0" key="20" pos="1068" len="12"/>
          <note vol="195" pan="0" key="20" pos="1080" len="12"/>
          <note vol="195" pan="0" key="20" pos="1092" len="12"/>
          <note vol="195" pan="0" key="20" pos="1104" len="12"/>
          <note vol="195" pan="0" key="20" pos="1116" len="12"/>
          <note vol="195" pan="0" key="20" pos="1128" len="12"/>
          <note vol="195" pan="0" key="20" pos="1140" len="12"/>
          <note vol="195" pan="0" key="21" pos="1152" len="48"/>
          <note vol="195" pan="0" key="21" pos="1200" len="12"/>
          <note vol="195" pan="0" key="21" pos="1212" len="12"/>
          <note vol="195" pan="0" key="21" pos="1224" len="12"/>
          <note vol="195" pan="0" key="21" pos="1236" len="12"/>
          <note vol="195" pan="0" key="21" pos="1248" len="12"/>
          <note vol="195" pan="0" key="21" pos="1260" len="12"/>
          <note vol="195" pan="0" key="21" pos="1272" len="12"/>
          <note vol="195" pan="0" key="21" pos="1284" len="12"/>
          <note vol="195" pan="0" key="21" pos="1296" len="12"/>
          <note vol="195" pan="0" key="21" pos="1308" len="12"/>
          <note vol="195" pan="0" key="21" pos="1320" len="12"/>
          <note vol="195" pan="0" key="21" pos="1332" len="12"/>
          <note vol="195" pan="0" key="23" pos="1344" len="48"/>
          <note vol="195" pan="0" key="23" pos="1392" len="12"/>
          <note vol="195" pan="0" key="23" pos="1404" len="12"/>
          <note vol="195" pan="0" key="23" pos="1416" len="12"/>
          <note vol="195" pan="0" key="23" pos="1428" len="12"/>
          <note vol="195" pan="0" key="24" pos="1440" len="48"/>
          <note vol="195" pan="0" key="24" pos="1488" len="12"/>
          <note vol="195" pan="0" key="24" pos="1500" len="12"/>
          <note vol="195" pan="0" key="24" pos="1512" len="12"/>
          <note vol="195" pan="0" key="24" pos="1524" len="12"/>
          <note vol="195" pan="0" key="13" pos="1536" len="48"/>
          <note vol="195" pan="0" key="13" pos="1584" len="12"/>
          <note vol="195" pan="0" key="13" pos="1596" len="12"/>
          <note vol="195" pan="0" key="13" pos="1608" len="12"/>
          <note vol="195" pan="0" key="13" pos="1620" len="12"/>
          <note vol="195" pan="0" key="13" pos="1632" len="12"/>
          <note vol="195" pan="0" key="13" pos="1644" len="12"/>
          <note vol="195" pan="0" key="13" pos="1656" len="12"/>
          <note vol="195" pan="0" key="13" pos="1668" len="12"/>
          <note vol="195" pan="0" key="13" pos="1680" len="12"/>
          <note vol="195" pan="0" key="13" pos="1692" len="12"/>
          <note vol="195" pan="0" key="13" pos="1704" len="12"/>
          <note vol="195" pan="0" key="13" pos="1716" len="12"/>
          <note vol="195" pan="0" key="23" pos="1728" len="48"/>
          <note vol="195" pan="0" key="23" pos="1776" len="12"/>
          <note vol="195" pan="0" key="23" pos="1788" len="12"/>
          <note vol="195" pan="0" key="23" pos="1800" len="12"/>
          <note vol="195" pan="0" key="23" pos="1812" len="12"/>
          <note vol="195" pan="0" key="23" pos="1824" len="12"/>
          <note vol="195" pan="0" key="23" pos="1836" len="12"/>
          <note vol="195" pan="0" key="23" pos="1848" len="12"/>
          <note vol="195" pan="0" key="23" pos="1860" len="12"/>
          <note vol="195" pan="0" key="23" pos="1872" len="12"/>
          <note vol="195" pan="0" key="23" pos="1884" len="12"/>
          <note vol="195" pan="0" key="23" pos="1896" len="12"/>
          <note vol="195" pan="0" key="23" pos="1908" len="12"/>
          <note vol="195" pan="0" key="22" pos="1920" len="48"/>
          <note vol="195" pan="0" key="22" pos="1968" len="12"/>
          <note vol="195" pan="0" key="22" pos="1980" len="12"/>
          <note vol="195" pan="0" key="22" pos="1992" len="12"/>
          <note vol="195" pan="0" key="22" pos="2004" len="12"/>
          <note vol="195" pan="0" key="22" pos="2016" len="12"/>
          <note vol="195" pan="0" key="22" pos="2028" len="12"/>
          <note vol="195" pan="0" key="22" pos="2040" len="12"/>
          <note vol="195" pan="0" key="22" pos="2052" len="12"/>
          <note vol="195" pan="0" key="22" pos="2064" len="12"/>
          <note vol="195" pan="0" key="22" pos="2076" len="12"/>
          <note vol="195" pan="0" key="22" pos="2088" len="12"/>
          <note vol="195" pan="0" key="22" pos="2100" len="12"/>
          <note vol="195" pan="0" key="18" pos="2112" len="48"/>
          <note vol="195" pan="0" key="18" pos="2160" len="12"/>
          <note vol="195" pan="0" key="18" pos="2172" len="12"/>
          <note vol="195" pan="0" key="18" pos="2184" len="12"/>
          <note vol="195" pan="0" key="18" pos="2196" len="12"/>
          <note vol="195" pan="0" key="16" pos="2208" len="48"/>
          <note vol="195" pan="0" key="16" pos="2256" len="12"/>
          <note vol="195" pan="0" key="16" pos="2268" len="12"/>
          <note vol="195" pan="0" key="16" pos="2280" len="12"/>
          <note vol="195" pan="0" key="16" pos="2292" len="12"/>
          <note vol="195" pan="0" key="14" pos="2304" len="48"/>
          <note vol="195" pan="0" key="14" pos="2352" len="12"/>
          <note vol="195" pan="0" key="14" pos="2364" len="12"/>
          <note vol="195" pan="0" key="14" pos="2376" len="12"/>
          <note vol="195" pan="0" key="14" pos="2388" len="12"/>
          <note vol="195" pan="0" key="14" pos="2400" len="48"/>
          <note vol="195" pan="0" key="14" pos="2448" len="12"/>
          <note vol="195" pan="0" key="14" pos="2460" len="12"/>
          <note vol="195" pan="0" key="14" pos="2472" len="12"/>
          <note vol="195" pan="0" key="14" pos="2484" len="12"/>
          <note vol="195" pan="0" key="21" pos="2496" len="48"/>
          <note vol="195" pan="0" key="21" pos="2544" len="12"/>
          <note vol="195" pan="0" key="21" pos="2556" len="12"/>
          <note vol="195" pan="0" key="21" pos="2568" len="12"/>
          <note vol="195" pan="0" key="21" pos="2580" len="12"/>
          <note vol="195" pan="0" key="21" pos="2592" len="12"/>
          <note vol="195" pan="0" key="21" pos="2604" len="12"/>
          <note vol="195" pan="0" key="21" pos="2616" len="12"/>
          <note vol="195" pan="0" key="21" pos="2628" len="12"/>
          <note vol="195" pan="0" key="21" pos="2640" len="12"/>
          <note vol="195" pan="0" key="21" pos="2652" len="12"/>
          <note vol="195" pan="0" key="21" pos="2664" len="12"/>
          <note vol="195" pan="0" key="21" pos="2676" len="12"/>
          <note vol="195" pan="0" key="23" pos="2688" len="48"/>
          <note vol="195" pan="0" key="23" pos="2736" len="12"/>
          <note vol="195" pan="0" key="23" pos="2748" len="12"/>
          <note vol="195" pan="0" key="23" pos="2760" len="12"/>
          <note vol="195" pan="0" key="23" pos="2772" len="12"/>
          <note vol="195" pan="0" key="23" pos="2784" len="12"/>
          <note vol="195" pan="0" key="23" pos="2796" len="12"/>
          <note vol="195" pan="0" key="23" pos="2808" len="12"/>
          <note vol="195" pan="0" key="23" pos="2820" len="12"/>
          <note vol="195" pan="0" key="23" pos="2832" len="12"/>
          <note vol="195" pan="0" key="23" pos="2844" len="12"/>
          <note vol="195" pan="0" key="23" pos="2856" len="12"/>
          <note vol="195" pan="0" key="23" pos="2868" len="12"/>
          <note vol="195" pan="0" key="11" pos="2880" len="24"/>
          <note vol="195" pan="0" key="11" pos="2904" len="24"/>
          <note vol="195" pan="0" key="11" pos="2976" len="24"/>
          <note vol="195" pan="0" key="11" pos="3000" len="24"/>
        </pattern>
        <pattern type="1" name="" steps="16" muted="0" pos="3264">
          <note vol="172" pan="0" key="14" pos="0" len="192"/>
        </pattern>
        <pattern type="1" name="" steps="16" muted="0" pos="7296">
          <note vol="197" pan="0" key="18" pos="0" len="24"/>
          <note vol="197" pan="0" key="16" pos="24" len="24"/>
          <note vol="197" pan="0" key="18" pos="48" len="24"/>
          <note vol="197" pan="0" key="25" pos="72" len="24"/>
          <note vol="197" pan="0" key="18" pos="96" len="24"/>
          <note vol="197" pan="0" key="28" pos="120" len="24"/>
          <note vol="197" pan="0" key="23" pos="144" len="24"/>
          <note vol="197" pan="0" key="25" pos="168" len="24"/>
          <note vol="197" pan="0" key="18" pos="192" len="24"/>
          <note vol="197" pan="0" key="16" pos="216" len="24"/>
          <note vol="197" pan="0" key="18" pos="240" len="24"/>
          <note vol="197" pan="0" key="25" pos="264" len="24"/>
          <note vol="197" pan="0" key="18" pos="288" len="24"/>
          <note vol="197" pan="0" key="28" pos="312" len="24"/>
          <note vol="197" pan="0" key="30" pos="336" len="24"/>
          <note vol="197" pan="0" key="28" pos="360" len="24"/>
        </pattern>
        <pattern type="1" name="" steps="16" muted="0" pos="7680">
          <note vol="197" pan="0" key="15" pos="0" len="24"/>
          <note vol="197" pan="0" key="15" pos="24" len="12"/>
          <note vol="197" pan="0" key="15" pos="36" len="12"/>
          <note vol="197" pan="0" key="15" pos="48" len="12"/>
          <note vol="197" pan="0" key="15" pos="60" len="12"/>
          <note vol="197" pan="0" key="15" pos="72" len="12"/>
          <note vol="197" pan="0" key="15" pos="84" len="12"/>
          <note vol="197" pan="0" key="15" pos="96" len="12"/>
          <note vol="197" pan="0" key="15" pos="108" len="12"/>
          <note vol="197" pan="0" key="15" pos="120" len="12"/>
          <note vol="197" pan="0" key="15" pos="132" len="12"/>
          <note vol="197" pan="0" key="15" pos="144" len="12"/>
          <note vol="197" pan="0" key="15" pos="156" len="12"/>
          <note vol="197" pan="0" key="15" pos="168" len="12"/>
          <note vol="197" pan="0" key="15" pos="180" len="12"/>
          <note vol="197" pan="0" key="21" pos="192" len="96"/>
          <note vol="197" pan="0" key="20" pos="288" len="96"/>
        </pattern>
        <pattern type="1" name="" steps="16" muted="0" pos="18816">
          <note vol="197" pan="0" key="13" pos="0" len="24"/>
          <note vol="197" pan="0" key="13" pos="24" len="12"/>
          <note vol="197" pan="0" key="13" pos="36" len="12"/>
          <note vol="197" pan="0" key="13" pos="48" len="24"/>
          <note vol="197" pan="0" key="13" pos="72" len="24"/>
          <note vol="197" pan="0" key="13" pos="96" len="12"/>
          <note vol="197" pan="0" key="13" pos="108" len="12"/>
          <note vol="197" pan="0" key="13" pos="120" len="24"/>
          <note vol="197" pan="0" key="13" pos="144" len="24"/>
          <note vol="197" pan="0" key="13" pos="168" len="12"/>
          <note vol="197" pan="0" key="13" pos="180" len="12"/>
          <note vol="197" pan="0" key="13" pos="192" len="24"/>
          <note vol="197" pan="0" key="13" pos="216" len="24"/>
          <note vol="197" pan="0" key="13" pos="240" len="12"/>
          <note vol="197" pan="0" key="13" pos="252" len="12"/>
          <note vol="197" pan="0" key="13" pos="264" len="24"/>
          <note vol="197" pan="0" key="13" pos="288" len="24"/>
          <note vol="197" pan="0" key="13" pos="312" len="24"/>
          <note vol="197" pan="0" key="13" pos="336" len="12"/>
          <note vol="197" pan="0" key="13" pos="348" len="12"/>
          <note vol="197" pan="0" key="13" pos="360" len="24"/>
          <note vol="197" pan="0" key="20" pos="384" len="24"/>
          <note vol="197" pan="0" key="20" pos="408" len="12"/>
          <note vol="197" pan="0" key="20" pos="420" len="12"/>
          <note vol="197" pan="0" key="20" pos="432" len="24"/>
          <note vol="197" pan="0" key="20" pos="456" len="24"/>
          <note vol="197" pan="0" key="20" pos="480" len="12"/>
          <note vol="197" pan="0" key="20" pos="492" len="12"/>
          <note vol="197" pan="0" key="20" pos="504" len="24"/>
          <note vol="197" pan="0" key="20" pos="528" len="24"/>
          <note vol="197" pan="0" key="20" pos="552" len="12"/>
          <note vol="197" pan="0" key="20" pos="564" len="12"/>
          <note vol="197" pan="0" key="20" pos="576" len="24"/>
          <note vol="197" pan="0" key="20" pos="600" len="24"/>
          <note vol="197" pan="0" key="20" pos="624" len="12"/>
          <note vol="197" pan="0" key="20" pos="636" len="12"/>
          <note vol="197" pan="0" key="20" pos="648" len="24"/>
          <note vol="197" pan="0" key="20" pos="672" len="24"/>
          <note vol="197" pan="0" key="20" pos="696" len="24"/>
          <note vol="197" pan="0" key="20" pos="720" len="12"/>
          <note vol="197" pan="0" key="20" pos="732" len="12"/>
          <note vol="197" pan="0" key="20" pos="744" len="24"/>
          <note vol="197" pan="0" key="15" pos="768" len="24"/>
          <note vol="197" pan="0" key="15" pos="792" len="12"/>
          <note vol="197" pan="0" key="15" pos="804" len="12"/>
          <note vol="197" pan="0" key="15" pos="816" len="24"/>
          <note vol="197" pan="0" key="15" pos="840" len="24"/>
          <note vol="197" pan="0" key="15" pos="864" len="12"/>
          <note vol="197" pan="0" key="15" pos="876" len="12"/>
          <note vol="197" pan="0" key="15" pos="888" len="24"/>
          <note vol="197" pan="0" key="15" pos="912" len="24"/>
          <note vol="197" pan="0" key="15" pos="936" len="12"/>
          <note vol="197" pan="0" key="15" pos="948" len="12"/>
          <note vol="197" pan="0" key="15" pos="960" len="24"/>
          <note vol="197" pan="0" key="15" pos="984" len="24"/>
          <note vol="197" pan="0" key="15" pos="1008" len="12"/>
          <note vol="197" pan="0" key="15" pos="1020" len="12"/>
          <note vol="197" pan="0" key="15" pos="1032" len="24"/>
          <note vol="197" pan="0" key="15" pos="1056" len="24"/>
          <note vol="197" pan="0" key="15" pos="1080" len="24"/>
          <note vol="197" pan="0" key="15" pos="1104" len="12"/>
          <note vol="197" pan="0" key="15" pos="1116" len="12"/>
          <note vol="197" pan="0" key="15" pos="1128" len="24"/>
          <note vol="197" pan="0" key="14" pos="1152" len="24"/>
          <note vol="197" pan="0" key="14" pos="1176" len="12"/>
          <note vol="197" pan="0" key="14" pos="1188" len="12"/>
          <note vol="197" pan="0" key="14" pos="1200" len="24"/>
          <note vol="197" pan="0" key="14" pos="1224" len="24"/>
          <note vol="197" pan="0" key="14" pos="1248" len="12"/>
          <note vol="197" pan="0" key="14" pos="1260" len="12"/>
          <note vol="197" pan="0" key="14" pos="1272" len="24"/>
          <note vol="197" pan="0" key="14" pos="1296" len="24"/>
          <note vol="197" pan="0" key="14" pos="1320" len="12"/>
          <note vol="197" pan="0" key="14" pos="1332" len="12"/>
          <note vol="197" pan="0" key="20" pos="1344" len="48"/>
          <note vol="197" pan="0" key="15" pos="1392" len="48"/>
          <note vol="197" pan="0" key="11" pos="1440" len="48"/>
          <note vol="197" pan="0" key="8" pos="1488" len="48"/>
          <note vol="197" pan="0" key="13" pos="1536" len="24"/>
          <note vol="197" pan="0" key="13" pos="1560" len="12"/>
          <note vol="197" pan="0" key="13" pos="1572" len="12"/>
          <note vol="197" pan="0" key="13" pos="1584" len="24"/>
          <note vol="197" pan="0" key="13" pos="1608" len="24"/>
          <note vol="197" pan="0" key="13" pos="1632" len="12"/>
          <note vol="197" pan="0" key="13" pos="1644" len="12"/>
          <note vol="197" pan="0" key="13" pos="1656" len="24"/>
          <note vol="197" pan="0" key="13" pos="1680" len="24"/>
          <note vol="197" pan="0" key="13" pos="1704" len="12"/>
          <note vol="197" pan="0" key="13" pos="1716" len="12"/>
          <note vol="197" pan="0" key="13" pos="1728" len="24"/>
          <note vol="197" pan="0" key="13" pos="1752" len="24"/>
          <note vol="197" pan="0" key="13" pos="1776" len="12"/>
          <note vol="197" pan="0" key="13" pos="1788" len="12"/>
          <note vol="197" pan="0" key="13" pos="1800" len="24"/>
          <note vol="197" pan="0" key="13" pos="1824" len="24"/>
          <note vol="197" pan="0" key="13" pos="1848" len="24"/>
          <note vol="197" pan="0" key="13" pos="1872" len="12"/>
          <note vol="197" pan="0" key="13" pos="1884" len="12"/>
          <note vol="197" pan="0" key="13" pos="1896" len="24"/>
          <note vol="197" pan="0" key="14" pos="1920" len="24"/>
          <note vol="197" pan="0" key="14" pos="1944" len="12"/>
          <note vol="197" pan="0" key="14" pos="1956" len="12"/>
          <note vol="197" pan="0" key="14" pos="1968" len="24"/>
          <note vol="197" pan="0" key="14" pos="1992" len="24"/>
          <note vol="197" pan="0" key="14" pos="2016" len="12"/>
          <note vol="197" pan="0" key="14" pos="2028" len="12"/>
          <note vol="197" pan="0" key="14" pos="2040" len="24"/>
          <note vol="197" pan="0" key="14" pos="2064" len="24"/>
          <note vol="197" pan="0" key="14" pos="2088" len="12"/>
          <note vol="197" pan="0" key="14" pos="2100" len="12"/>
          <note vol="197" pan="0" key="14" pos="2112" len="24"/>
          <note vol="197" pan="0" key="14" pos="2136" len="24"/>
          <note vol="197" pan="0" key="14" pos="2160" len="12"/>
          <note vol="197" pan="0" key="14" pos="2172" len="12"/>
          <note vol="197" pan="0" key="14" pos="2184" len="24"/>
          <note vol="197" pan="0" key="14" pos="2208" len="24"/>
          <note vol="197" pan="0" key="14" pos="2232" len="24"/>
          <note vol="197" pan="0" key="14" pos="2256" len="12"/>
          <note vol="197" pan="0" key="14" pos="2268" len="12"/>
          <note vol="197" pan="0" key="14" pos="2280" len="24"/>
          <note vol="197" pan="0" key="15" pos="2304" len="24"/>
          <note vol="197" pan="0" key="15" pos="2328" len="12"/>
          <note vol="197" pan="0" key="15" pos="2340" len="12"/>
          <note vol="197" pan="0" key="15" pos="2352" len="24"/>
          <note vol="197" pan="0" key="15" pos="2376" len="24"/>
          <note vol="197" pan="0" key="15" pos="2400" len="12"/>
          <note vol="197" pan="0" key="15" pos="2412" len="12"/>
          <note vol="197" pan="0" key="15" pos="2424" len="24"/>
          <note vol="197" pan="0" key="15" pos="2448" len="24"/>
          <note vol="197" pan="0" key="15" pos="2472" len="12"/>
          <note vol="197" pan="0" key="15" pos="2484" len="12"/>
          <note vol="197" pan="0" key="15" pos="2496" len="24"/>
          <note vol="197" pan="0" key="15" pos="2520" len="24"/>
          <note vol="197" pan="0" key="15" pos="2544" len="12"/>
          <note vol="197" pan="0" key="15" pos="2556" len="12"/>
          <note vol="197" pan="0" key="15" pos="2568" len="24"/>
          <note vol="197" pan="0" key="15" pos="2592" len="24"/>
          <note vol="197" pan="0" key="15" pos="2616" len="24"/>
          <note vol="197" pan="0" key="15" pos="2640" len="12"/>
          <note vol="197" pan="0" key="15" pos="2652" len="12"/>
          <note vol="197" pan="0" key="15" pos="2664" len="24"/>
          <note vol="197" pan="0" key="20" pos="2688" len="24"/>
          <note vol="197" pan="0" key="20" pos="2712" len="12"/>
          <note vol="197" pan="0" key="20" pos="2724" len="12"/>
          <note vol="197" pan="0" key="20" pos="2736" len="24"/>
          <note vol="197" pan="0" key="20" pos="2760" len="24"/>
          <note vol="197" pan="0" key="20" pos="2784" len="12"/>
          <note vol="197" pan="0" key="20" pos="2796" len="12"/>
          <note vol="197" pan="0" key="20" pos="2808" len="24"/>
          <note vol="197" pan="0" key="20" pos="2832" len="24"/>
          <note vol="197" pan="0" key="20" pos="2856" len="12"/>
          <note vol="197" pan="0" key="20" pos="2868" len="12"/>
          <note vol="197" pan="0" key="20" pos="2880" len="48"/>
          <note vol="197" pan="0" key="20" pos="2928" len="48"/>
          <note vol="197" pan="0" key="20" pos="2976" len="48"/>
          <note vol="197" pan="0" key="20" pos="3024" len="48"/>
        </pattern>
        <pattern type="1" name="" steps="16" muted="0" pos="13824">
          <note vol="197" pan="0" key="23" pos="0" len="24"/>
          <note vol="197" pan="0" key="20" pos="24" len="12"/>
          <note vol="197" pan="0" key="20" pos="36" len="12"/>
          <note vol="197" pan="0" key="20" pos="48" len="12"/>
          <note vol="197" pan="0" key="20" pos="60" len="12"/>
          <note vol="197" pan="0" key="20" pos="72" len="48"/>
          <note vol="197" pan="0" key="20" pos="120" len="24"/>
          <note vol="197" pan="0" key="20" pos="144" len="24"/>
          <note vol="197" pan="0" key="20" pos="168" len="24"/>
        </pattern>
        <pattern type="1" name="" steps="16" muted="0" pos="14016">
          <note vol="197" pan="0" key="21" pos="0" len="12"/>
          <note vol="197" pan="0" key="21" pos="12" len="12"/>
          <note vol="197" pan="0" key="21" pos="24" len="12"/>
          <note vol="197" pan="0" key="21" pos="36" len="12"/>
          <note vol="197" pan="0" key="25" pos="48" len="12"/>
          <note vol="197" pan="0" key="25" pos="60" len="12"/>
          <note vol="197" pan="0" key="21" pos="72" len="12"/>
          <note vol="197" pan="0" key="21" pos="84" len="12"/>
          <note vol="197" pan="0" key="23" pos="96" len="12"/>
          <note vol="197" pan="0" key="23" pos="108" len="12"/>
          <note vol="197" pan="0" key="23" pos="120" len="12"/>
          <note vol="197" pan="0" key="23" pos="132" len="12"/>
          <note vol="197" pan="0" key="28" pos="144" len="12"/>
          <note vol="197" pan="0" key="27" pos="156" len="12"/>
          <note vol="197" pan="0" key="25" pos="168" len="12"/>
          <note vol="197" pan="0" key="23" pos="180" len="12"/>
        </pattern>
        <pattern type="1" name="" steps="16" muted="0" pos="14208">
          <note vol="200" pan="0" key="14" pos="0" len="12"/>
          <note vol="200" pan="0" key="14" pos="12" len="12"/>
          <note vol="200" pan="0" key="14" pos="24" len="24"/>
          <note vol="200" pan="0" key="14" pos="48" len="12"/>
          <note vol="200" pan="0" key="14" pos="60" len="12"/>
          <note vol="200" pan="0" key="14" pos="72" len="24"/>
          <note vol="200" pan="0" key="14" pos="96" len="12"/>
          <note vol="200" pan="0" key="14" pos="108" len="12"/>
          <note vol="200" pan="0" key="14" pos="120" len="24"/>
          <note vol="200" pan="0" key="14" pos="144" len="12"/>
          <note vol="200" pan="0" key="14" pos="156" len="12"/>
          <note vol="200" pan="0" key="14" pos="168" len="24"/>
          <note vol="200" pan="0" key="14" pos="192" len="12"/>
          <note vol="200" pan="0" key="14" pos="204" len="12"/>
          <note vol="200" pan="0" key="14" pos="216" len="24"/>
          <note vol="200" pan="0" key="14" pos="240" len="12"/>
          <note vol="200" pan="0" key="14" pos="252" len="12"/>
          <note vol="200" pan="0" key="14" pos="264" len="24"/>
          <note vol="200" pan="0" key="14" pos="288" len="12"/>
          <note vol="200" pan="0" key="14" pos="300" len="12"/>
          <note vol="200" pan="0" key="14" pos="312" len="24"/>
          <note vol="200" pan="0" key="14" pos="336" len="12"/>
          <note vol="200" pan="0" key="14" pos="348" len="12"/>
          <note vol="200" pan="0" key="14" pos="360" len="24"/>
          <note vol="200" pan="0" key="13" pos="384" len="12"/>
          <note vol="200" pan="0" key="13" pos="396" len="12"/>
          <note vol="200" pan="0" key="13" pos="408" len="24"/>
          <note vol="200" pan="0" key="13" pos="432" len="12"/>
          <note vol="200" pan="0" key="13" pos="444" len="12"/>
          <note vol="200" pan="0" key="13" pos="456" len="24"/>
          <note vol="200" pan="0" key="13" pos="480" len="12"/>
          <note vol="200" pan="0" key="13" pos="492" len="12"/>
          <note vol="200" pan="0" key="13" pos="504" len="24"/>
          <note vol="200" pan="0" key="13" pos="528" len="12"/>
          <note vol="200" pan="0" key="13" pos="540" len="12"/>
          <note vol="200" pan="0" key="13" pos="552" len="24"/>
          <note vol="200" pan="0" key="11" pos="576" len="12"/>
          <note vol="200" pan="0" key="11" pos="588" len="12"/>
          <note vol="200" pan="0" key="11" pos="600" len="24"/>
          <note vol="200" pan="0" key="11" pos="624" len="12"/>
          <note vol="200" pan="0" key="11" pos="636" len="12"/>
          <note vol="200" pan="0" key="11" pos="648" len="24"/>
          <note vol="200" pan="0" key="11" pos="672" len="12"/>
          <note vol="200" pan="0" key="11" pos="684" len="12"/>
          <note vol="200" pan="0" key="11" pos="696" len="24"/>
          <note vol="200" pan="0" key="11" pos="720" len="12"/>
          <note vol="200" pan="0" key="11" pos="732" len="12"/>
          <note vol="200" pan="0" key="11" pos="744" len="24"/>
        </pattern>
        <pattern type="1" name="" steps="16" muted="0" pos="14976">
          <note vol="197" pan="0" key="16" pos="0" len="24"/>
          <note vol="197" pan="0" key="18" pos="24" len="24"/>
          <note vol="197" pan="0" key="18" pos="48" len="12"/>
          <note vol="197" pan="0" key="18" pos="60" len="12"/>
          <note vol="197" pan="0" key="23" pos="72" len="24"/>
          <note vol="197" pan="0" key="25" pos="96" len="24"/>
          <note vol="197" pan="0" key="18" pos="120" len="24"/>
          <note vol="197" pan="0" key="16" pos="144" len="24"/>
          <note vol="197" pan="0" key="18" pos="168" len="24"/>
        </pattern>
        <pattern type="1" name="" steps="16" muted="0" pos="15168">
          <note vol="197" pan="0" key="16" pos="0" len="24"/>
          <note vol="197" pan="0" key="18" pos="24" len="24"/>
          <note vol="197" pan="0" key="18" pos="48" len="12"/>
          <note vol="197" pan="0" key="18" pos="60" len="12"/>
          <note vol="197" pan="0" key="23" pos="72" len="24"/>
          <note vol="197" pan="0" key="25" pos="96" len="24"/>
          <note vol="197" pan="0" key="18" pos="120" len="24"/>
          <note vol="197" pan="0" key="16" pos="144" len="24"/>
          <note vol="197" pan="0" key="18" pos="168" len="24"/>
        </pattern>
        <pattern type="1" name="" steps="16" muted="0" pos="15360">
          <note vol="197" pan="0" key="15" pos="0" len="24"/>
          <note vol="197" pan="0" key="15" pos="24" len="12"/>
          <note vol="197" pan="0" key="15" pos="36" len="12"/>
          <note vol="197" pan="0" key="15" pos="48" len="12"/>
          <note vol="197" pan="0" key="15" pos="60" len="12"/>
          <note vol="197" pan="0" key="15" pos="72" len="12"/>
          <note vol="197" pan="0" key="15" pos="84" len="12"/>
          <note vol="197" pan="0" key="15" pos="96" len="12"/>
          <note vol="197" pan="0" key="15" pos="108" len="12"/>
          <note vol="197" pan="0" key="15" pos="120" len="12"/>
          <note vol="197" pan="0" key="15" pos="132" len="12"/>
          <note vol="197" pan="0" key="15" pos="144" len="12"/>
          <note vol="197" pan="0" key="15" pos="156" len="12"/>
          <note vol="197" pan="0" key="15" pos="168" len="12"/>
          <note vol="197" pan="0" key="15" pos="180" len="12"/>
          <note vol="197" pan="0" key="21" pos="192" len="96"/>
          <note vol="197" pan="0" key="20" pos="288" len="96"/>
        </pattern>
        <pattern type="1" name="" steps="16" muted="0" pos="28800">
          <note vol="200" pan="0" key="25" pos="0" len="48"/>
          <note vol="200" pan="0" key="13" pos="48" len="24"/>
          <note vol="200" pan="0" key="13" pos="72" len="12"/>
          <note vol="200" pan="0" key="13" pos="84" len="12"/>
          <note vol="200" pan="0" key="13" pos="96" len="12"/>
          <note vol="200" pan="0" key="13" pos="108" len="12"/>
          <note vol="200" pan="0" key="13" pos="120" len="24"/>
          <note vol="200" pan="0" key="13" pos="144" len="12"/>
          <note vol="200" pan="0" key="13" pos="156" len="12"/>
          <note vol="200" pan="0" key="13" pos="168" len="12"/>
          <note vol="200" pan="0" key="13" pos="180" len="12"/>
          <note vol="200" pan="0" key="13" pos="192" len="24"/>
          <note vol="200" pan="0" key="13" pos="216" len="12"/>
          <note vol="200" pan="0" key="13" pos="228" len="12"/>
          <note vol="200" pan="0" key="13" pos="240" len="12"/>
          <note vol="200" pan="0" key="13" pos="252" len="12"/>
          <note vol="200" pan="0" key="13" pos="264" len="24"/>
          <note vol="200" pan="0" key="13" pos="288" len="12"/>
          <note vol="200" pan="0" key="13" pos="300" len="12"/>
          <note vol="200" pan="0" key="13" pos="312" len="24"/>
          <note vol="200" pan="0" key="13" pos="336" len="12"/>
          <note vol="200" pan="0" key="13" pos="348" len="12"/>
          <note vol="200" pan="0" key="13" pos="360" len="12"/>
          <note vol="200" pan="0" key="13" pos="372" len="12"/>
          <note vol="200" pan="0" key="13" pos="384" len="48"/>
          <note vol="200" pan="0" key="13" pos="432" len="24"/>
          <note vol="200" pan="0" key="13" pos="456" len="12"/>
          <note vol="200" pan="0" key="13" pos="468" len="12"/>
          <note vol="200" pan="0" key="13" pos="480" len="12"/>
          <note vol="200" pan="0" key="13" pos="492" len="12"/>
          <note vol="200" pan="0" key="13" pos="504" len="24"/>
          <note vol="200" pan="0" key="13" pos="528" len="12"/>
          <note vol="200" pan="0" key="13" pos="540" len="12"/>
          <note vol="200" pan="0" key="13" pos="552" len="12"/>
          <note vol="200" pan="0" key="13" pos="564" len="12"/>
          <note vol="200" pan="0" key="13" pos="576" len="24"/>
          <note vol="200" pan="0" key="13" pos="600" len="12"/>
          <note vol="200" pan="0" key="13" pos="612" len="12"/>
          <note vol="200" pan="0" key="13" pos="624" len="12"/>
          <note vol="200" pan="0" key="13" pos="636" len="12"/>
          <note vol="200" pan="0" key="13" pos="648" len="24"/>
          <note vol="200" pan="0" key="13" pos="672" len="12"/>
          <note vol="200" pan="0" key="13" pos="684" len="12"/>
          <note vol="200" pan="0" key="16" pos="696" len="24"/>
          <note vol="200" pan="0" key="18" pos="720" len="24"/>
          <note vol="200" pan="0" key="20" pos="744" len="24"/>
        </pattern>
        <pattern type="1" name="" steps="16" muted="0" pos="29568">
          <note vol="200" pan="0" key="25" pos="0" len="48"/>
          <note vol="200" pan="0" key="13" pos="48" len="24"/>
          <note vol="200" pan="0" key="13" pos="72" len="12"/>
          <note vol="200" pan="0" key="13" pos="84" len="12"/>
          <note vol="200" pan="0" key="13" pos="96" len="12"/>
          <note vol="200" pan="0" key="13" pos="108" len="12"/>
          <note vol="200" pan="0" key="13" pos="120" len="24"/>
          <note vol="200" pan="0" key="13" pos="144" len="12"/>
          <note vol="200" pan="0" key="13" pos="156" len="12"/>
          <note vol="200" pan="0" key="13" pos="168" len="12"/>
          <note vol="200" pan="0" key="13" pos="180" len="12"/>
          <note vol="200" pan="0" key="13" pos="192" len="24"/>
          <note vol="200" pan="0" key="13" pos="216" len="12"/>
          <note vol="200" pan="0" key="13" pos="228" len="12"/>
          <note vol="200" pan="0" key="13" pos="240" len="12"/>
          <note vol="200" pan="0" key="13" pos="252" len="12"/>
          <note vol="200" pan="0" key="13" pos="264" len="24"/>
          <note vol="200" pan="0" key="13" pos="288" len="12"/>
          <note vol="200" pan="0" key="13" pos="300" len="12"/>
          <note vol="200" pan="0" key="13" pos="312" len="24"/>
          <note vol="200" pan="0" key="13" pos="336" len="12"/>
          <note vol="200" pan="0" key="13" pos="348" len="12"/>
          <note vol="200" pan="0" key="13" pos="360" len="12"/>
          <note vol="200" pan="0" key="13" pos="372" len="12"/>
          <note vol="200" pan="0" key="13" pos="384" len="48"/>
          <note vol="200" pan="0" key="13" pos="432" len="24"/>
          <note vol="200" pan="0" key="13" pos="456" len="12"/>
          <note vol="200" pan="0" key="13" pos="468" len="12"/>
          <note vol="200" pan="0" key="13" pos="480" len="12"/>
          <note vol="200" pan="0" key="13" pos="492" len="12"/>
          <note vol="200" pan="0" key="13" pos="504" len="24"/>
          <note vol="200" pan="0" key="13" pos="528" len="12"/>
          <note vol="200" pan="0" key="13" pos="540" len="12"/>
          <note vol="200" pan="0" key="13" pos="552" len="12"/>
          <note vol="200" pan="0" key="13" pos="564" len="12"/>
          <note vol="200" pan="0" key="13" pos="576" len="24"/>
          <note vol="200" pan="0" key="13" pos="600" len="12"/>
          <note vol="200" pan="0" key="13" pos="612" len="12"/>
          <note vol="200" pan="0" key="13" pos="624" len="12"/>
          <note vol="200" pan="0" key="13" pos="636" len="12"/>
          <note vol="200" pan="0" key="13" pos="648" len="24"/>
          <note vol="200" pan="0" key="13" pos="672" len="12"/>
          <note vol="200" pan="0" key="13" pos="684" len="12"/>
          <note vol="200" pan="0" key="16" pos="696" len="24"/>
          <note vol="200" pan="0" key="18" pos="720" len="24"/>
          <note vol="200" pan="0" key="20" pos="744" len="24"/>
        </pattern>
        <pattern type="1" name="" steps="16" muted="0" pos="30336">
          <note vol="200" pan="0" key="26" pos="0" len="48"/>
          <note vol="200" pan="0" key="0" pos="0" len="24"/>
          <note vol="200" pan="0" key="14" pos="48" len="24"/>
          <note vol="200" pan="0" key="1" pos="60" len="24"/>
          <note vol="200" pan="0" key="14" pos="72" len="12"/>
          <note vol="200" pan="0" key="14" pos="84" len="12"/>
          <note vol="200" pan="0" key="14" pos="96" len="12"/>
          <note vol="200" pan="0" key="14" pos="108" len="12"/>
          <note vol="200" pan="0" key="14" pos="120" len="24"/>
          <note vol="200" pan="0" key="0" pos="120" len="24"/>
          <note vol="200" pan="0" key="1" pos="132" len="24"/>
          <note vol="200" pan="0" key="14" pos="144" len="12"/>
          <note vol="200" pan="0" key="14" pos="156" len="12"/>
          <note vol="200" pan="0" key="14" pos="168" len="12"/>
          <note vol="200" pan="0" key="14" pos="180" len="12"/>
          <note vol="200" pan="0" key="14" pos="192" len="24"/>
          <note vol="200" pan="0" key="0" pos="192" len="24"/>
          <note vol="200" pan="0" key="1" pos="204" len="24"/>
          <note vol="200" pan="0" key="14" pos="216" len="12"/>
          <note vol="200" pan="0" key="14" pos="228" len="12"/>
          <note vol="200" pan="0" key="14" pos="240" len="12"/>
          <note vol="200" pan="0" key="14" pos="252" len="12"/>
          <note vol="200" pan="0" key="14" pos="264" len="24"/>
          <note vol="200" pan="0" key="0" pos="264" len="24"/>
          <note vol="200" pan="0" key="1" pos="276" len="24"/>
          <note vol="200" pan="0" key="14" pos="288" len="12"/>
          <note vol="200" pan="0" key="14" pos="300" len="12"/>
          <note vol="200" pan="0" key="14" pos="312" len="24"/>
          <note vol="200" pan="0" key="0" pos="312" len="24"/>
          <note vol="200" pan="0" key="1" pos="324" len="24"/>
          <note vol="200" pan="0" key="14" pos="336" len="12"/>
          <note vol="200" pan="0" key="14" pos="348" len="12"/>
          <note vol="200" pan="0" key="14" pos="360" len="12"/>
          <note vol="200" pan="0" key="14" pos="372" len="12"/>
          <note vol="200" pan="0" key="14" pos="384" len="48"/>
          <note vol="200" pan="0" key="0" pos="384" len="24"/>
          <note vol="200" pan="0" key="14" pos="432" len="24"/>
          <note vol="200" pan="0" key="1" pos="444" len="24"/>
          <note vol="200" pan="0" key="14" pos="456" len="12"/>
          <note vol="200" pan="0" key="14" pos="468" len="12"/>
          <note vol="200" pan="0" key="14" pos="480" len="12"/>
          <note vol="200" pan="0" key="14" pos="492" len="12"/>
          <note vol="200" pan="0" key="14" pos="504" len="24"/>
          <note vol="200" pan="0" key="0" pos="504" len="24"/>
          <note vol="200" pan="0" key="1" pos="516" len="24"/>
          <note vol="200" pan="0" key="14" pos="528" len="12"/>
          <note vol="200" pan="0" key="14" pos="540" len="12"/>
          <note vol="200" pan="0" key="14" pos="552" len="12"/>
          <note vol="200" pan="0" key="14" pos="564" len="12"/>
          <note vol="200" pan="0" key="14" pos="576" len="24"/>
          <note vol="200" pan="0" key="0" pos="576" len="24"/>
          <note vol="200" pan="0" key="1" pos="588" len="24"/>
          <note vol="200" pan="0" key="14" pos="600" len="12"/>
          <note vol="200" pan="0" key="14" pos="612" len="12"/>
          <note vol="200" pan="0" key="14" pos="624" len="12"/>
          <note vol="200" pan="0" key="14" pos="636" len="12"/>
          <note vol="200" pan="0" key="14" pos="648" len="24"/>
          <note vol="200" pan="0" key="0" pos="648" len="24"/>
          <note vol="200" pan="0" key="1" pos="660" len="24"/>
          <note vol="200" pan="0" key="14" pos="672" len="12"/>
          <note vol="200" pan="0" key="14" pos="684" len="12"/>
          <note vol="200" pan="0" key="21" pos="696" len="24"/>
          <note vol="200" pan="0" key="20" pos="720" len="24"/>
          <note vol="200" pan="0" key="16" pos="744" len="24"/>
        </pattern>
        <pattern type="1" name="" steps="16" muted="0" pos="31104">
          <note vol="200" pan="0" key="25" pos="0" len="48"/>
          <note vol="200" pan="0" key="13" pos="48" len="24"/>
          <note vol="200" pan="0" key="13" pos="72" len="12"/>
          <note vol="200" pan="0" key="13" pos="84" len="12"/>
          <note vol="200" pan="0" key="13" pos="96" len="12"/>
          <note vol="200" pan="0" key="13" pos="108" len="12"/>
          <note vol="200" pan="0" key="13" pos="120" len="24"/>
          <note vol="200" pan="0" key="13" pos="144" len="12"/>
          <note vol="200" pan="0" key="13" pos="156" len="12"/>
          <note vol="200" pan="0" key="13" pos="168" len="12"/>
          <note vol="200" pan="0" key="13" pos="180" len="12"/>
          <note vol="200" pan="0" key="13" pos="192" len="24"/>
          <note vol="200" pan="0" key="13" pos="216" len="12"/>
          <note vol="200" pan="0" key="13" pos="228" len="12"/>
          <note vol="200" pan="0" key="13" pos="240" len="12"/>
          <note vol="200" pan="0" key="13" pos="252" len="12"/>
          <note vol="200" pan="0" key="13" pos="264" len="24"/>
          <note vol="200" pan="0" key="13" pos="288" len="12"/>
          <note vol="200" pan="0" key="13" pos="300" len="12"/>
          <note vol="200" pan="0" key="13" pos="312" len="24"/>
          <note vol="200" pan="0" key="13" pos="336" len="12"/>
          <note vol="200" pan="0" key="13" pos="348" len="12"/>
          <note vol="200" pan="0" key="13" pos="360" len="12"/>
          <note vol="200" pan="0" key="13" pos="372" len="12"/>
          <note vol="200" pan="0" key="11" pos="384" len="48"/>
          <note vol="200" pan="0" key="11" pos="432" len="24"/>
          <note vol="200" pan="0" key="11" pos="456" len="12"/>
          <note vol="200" pan="0" key="11" pos="468" len="12"/>
          <note vol="200" pan="0" key="11" pos="480" len="12"/>
          <note vol="200" pan="0" key="11" pos="492" len="12"/>
          <note vol="200" pan="0" key="11" pos="504" len="24"/>
          <note vol="200" pan="0" key="11" pos="528" len="12"/>
          <note vol="200" pan="0" key="11" pos="540" len="12"/>
          <note vol="200" pan="0" key="11" pos="552" len="12"/>
          <note vol="200" pan="0" key="11" pos="564" len="12"/>
          <note vol="200" pan="0" key="11" pos="576" len="24"/>
          <note vol="200" pan="0" key="11" pos="600" len="12"/>
          <note vol="200" pan="0" key="11" pos="612" len="12"/>
          <note vol="200" pan="0" key="11" pos="624" len="12"/>
          <note vol="200" pan="0" key="11" pos="636" len="12"/>
          <note vol="200" pan="0" key="11" pos="648" len="24"/>
          <note vol="200" pan="0" key="11" pos="672" len="12"/>
          <note vol="200" pan="0" key="11" pos="684" len="12"/>
          <note vol="200" pan="0" key="15" pos="696" len="24"/>
          <note vol="200" pan="0" key="16" pos="720" len="24"/>
          <note vol="200" pan="0" key="18" pos="744" len="24"/>
        </pattern>
        <pattern type="1" name="" steps="16" muted="0" pos="31872">
          <note vol="200" pan="0" key="9" pos="0" len="48"/>
          <note vol="200" pan="0" key="9" pos="48" len="24"/>
          <note vol="200" pan="0" key="9" pos="72" len="12"/>
          <note vol="200" pan="0" key="9" pos="84" len="12"/>
          <note vol="200" pan="0" key="9" pos="96" len="12"/>
          <note vol="200" pan="0" key="9" pos="108" len="12"/>
          <note vol="200" pan="0" key="9" pos="120" len="24"/>
          <note vol="200" pan="0" key="9" pos="144" len="12"/>
          <note vol="200" pan="0" key="9" pos="156" len="12"/>
          <note vol="200" pan="0" key="9" pos="168" len="12"/>
          <note vol="200" pan="0" key="9" pos="180" len="12"/>
          <note vol="200" pan="0" key="9" pos="192" len="24"/>
          <note vol="200" pan="0" key="9" pos="216" len="12"/>
          <note vol="200" pan="0" key="9" pos="228" len="12"/>
          <note vol="200" pan="0" key="9" pos="240" len="12"/>
          <note vol="200" pan="0" key="9" pos="252" len="12"/>
          <note vol="200" pan="0" key="9" pos="264" len="24"/>
          <note vol="200" pan="0" key="9" pos="288" len="12"/>
          <note vol="200" pan="0" key="9" pos="300" len="12"/>
          <note vol="200" pan="0" key="9" pos="312" len="24"/>
          <note vol="200" pan="0" key="9" pos="336" len="12"/>
          <note vol="200" pan="0" key="9" pos="348" len="12"/>
          <note vol="200" pan="0" key="9" pos="360" len="12"/>
          <note vol="200" pan="0" key="9" pos="372" len="12"/>
          <note vol="200" pan="0" key="11" pos="384" len="48"/>
          <note vol="200" pan="0" key="11" pos="432" len="24"/>
          <note vol="200" pan="0" key="11" pos="456" len="12"/>
          <note vol="200" pan="0" key="11" pos="468" len="12"/>
          <note vol="200" pan="0" key="11" pos="480" len="12"/>
          <note vol="200" pan="0" key="11" pos="492" len="12"/>
          <note vol="200" pan="0" key="11" pos="504" len="24"/>
          <note vol="200" pan="0" key="11" pos="528" len="12"/>
          <note vol="200" pan="0" key="11" pos="540" len="12"/>
          <note vol="200" pan="0" key="11" pos="552" len="12"/>
          <note vol="200" pan="0" key="11" pos="564" len="12"/>
          <note vol="200" pan="0" key="11" pos="576" len="24"/>
          <note vol="200" pan="0" key="11" pos="600" len="12"/>
          <note vol="200" pan="0" key="11" pos="612" len="12"/>
          <note vol="200" pan="0" key="11" pos="624" len="12"/>
          <note vol="200" pan="0" key="11" pos="636" len="12"/>
          <note vol="200" pan="0" key="11" pos="648" len="24"/>
          <note vol="200" pan="0" key="11" pos="672" len="12"/>
          <note vol="200" pan="0" key="11" pos="684" len="12"/>
          <note vol="200" pan="0" key="11" pos="696" len="24"/>
          <note vol="200" pan="0" key="11" pos="720" len="12"/>
          <note vol="200" pan="0" key="11" pos="732" len="12"/>
          <note vol="200" pan="0" key="11" pos="744" len="12"/>
          <note vol="200" pan="0" key="11" pos="756" len="12"/>
        </pattern>
        <pattern type="1" name="" steps="16" muted="0" pos="32640">
          <note vol="200" pan="0" key="18" pos="0" len="48"/>
          <note vol="200" pan="0" key="18" pos="48" len="24"/>
          <note vol="200" pan="0" key="18" pos="72" len="12"/>
          <note vol="200" pan="0" key="18" pos="84" len="12"/>
          <note vol="200" pan="0" key="18" pos="96" len="12"/>
          <note vol="200" pan="0" key="18" pos="108" len="12"/>
          <note vol="200" pan="0" key="18" pos="120" len="24"/>
          <note vol="200" pan="0" key="18" pos="144" len="12"/>
          <note vol="200" pan="0" key="18" pos="156" len="12"/>
          <note vol="200" pan="0" key="18" pos="168" len="12"/>
          <note vol="200" pan="0" key="18" pos="180" len="12"/>
          <note vol="200" pan="0" key="18" pos="192" len="24"/>
          <note vol="200" pan="0" key="18" pos="216" len="12"/>
          <note vol="200" pan="0" key="18" pos="228" len="12"/>
          <note vol="200" pan="0" key="18" pos="240" len="12"/>
          <note vol="200" pan="0" key="18" pos="252" len="12"/>
          <note vol="200" pan="0" key="18" pos="264" len="24"/>
          <note vol="200" pan="0" key="18" pos="288" len="12"/>
          <note vol="200" pan="0" key="18" pos="300" len="12"/>
          <note vol="200" pan="0" key="18" pos="312" len="24"/>
          <note vol="200" pan="0" key="18" pos="336" len="12"/>
          <note vol="200" pan="0" key="18" pos="348" len="12"/>
          <note vol="200" pan="0" key="18" pos="360" len="12"/>
          <note vol="200" pan="0" key="18" pos="372" len="12"/>
          <note vol="200" pan="0" key="8" pos="384" len="48"/>
          <note vol="200" pan="0" key="8" pos="432" len="24"/>
          <note vol="200" pan="0" key="8" pos="456" len="12"/>
          <note vol="200" pan="0" key="8" pos="468" len="12"/>
          <note vol="200" pan="0" key="8" pos="480" len="12"/>
          <note vol="200" pan="0" key="8" pos="492" len="12"/>
          <note vol="200" pan="0" key="8" pos="504" len="24"/>
          <note vol="200" pan="0" key="8" pos="528" len="12"/>
          <note vol="200" pan="0" key="8" pos="540" len="12"/>
          <note vol="200" pan="0" key="8" pos="552" len="12"/>
          <note vol="200" pan="0" key="8" pos="564" len="12"/>
          <note vol="200" pan="0" key="8" pos="576" len="24"/>
          <note vol="200" pan="0" key="8" pos="600" len="12"/>
          <note vol="200" pan="0" key="8" pos="612" len="12"/>
          <note vol="200" pan="0" key="8" pos="624" len="12"/>
          <note vol="200" pan="0" key="8" pos="636" len="12"/>
          <note vol="200" pan="0" key="8" pos="648" len="24"/>
          <note vol="200" pan="0" key="8" pos="672" len="12"/>
          <note vol="200" pan="0" key="8" pos="684" len="12"/>
          <note vol="200" pan="0" key="8" pos="696" len="24"/>
          <note vol="200" pan="0" key="8" pos="720" len="12"/>
          <note vol="200" pan="0" key="8" pos="732" len="12"/>
          <note vol="200" pan="0" key="8" pos="744" len="12"/>
          <note vol="200" pan="0" key="8" pos="756" len="12"/>
        </pattern>
        <pattern type="1" name="" steps="16" muted="0" pos="33408">
          <note vol="200" pan="0" key="15" pos="0" len="48"/>
          <note vol="200" pan="0" key="15" pos="48" len="24"/>
          <note vol="200" pan="0" key="15" pos="72" len="12"/>
          <note vol="200" pan="0" key="15" pos="84" len="12"/>
          <note vol="200" pan="0" key="15" pos="96" len="12"/>
          <note vol="200" pan="0" key="15" pos="108" len="12"/>
          <note vol="200" pan="0" key="15" pos="120" len="24"/>
          <note vol="200" pan="0" key="15" pos="144" len="12"/>
          <note vol="200" pan="0" key="15" pos="156" len="12"/>
          <note vol="200" pan="0" key="15" pos="168" len="12"/>
          <note vol="200" pan="0" key="15" pos="180" len="12"/>
          <note vol="200" pan="0" key="15" pos="192" len="24"/>
          <note vol="200" pan="0" key="15" pos="216" len="12"/>
          <note vol="200" pan="0" key="15" pos="228" len="12"/>
          <note vol="200" pan="0" key="15" pos="240" len="12"/>
          <note vol="200" pan="0" key="15" pos="252" len="12"/>
          <note vol="200" pan="0" key="15" pos="264" len="24"/>
          <note vol="200" pan="0" key="15" pos="288" len="12"/>
          <note vol="200" pan="0" key="15" pos="300" len="12"/>
          <note vol="200" pan="0" key="15" pos="312" len="24"/>
          <note vol="200" pan="0" key="15" pos="336" len="12"/>
          <note vol="200" pan="0" key="15" pos="348" len="12"/>
          <note vol="200" pan="0" key="15" pos="360" len="12"/>
          <note vol="200" pan="0" key="15" pos="372" len="12"/>
          <note vol="200" pan="0" key="14" pos="384" len="48"/>
          <note vol="200" pan="0" key="14" pos="432" len="24"/>
          <note vol="200" pan="0" key="14" pos="456" len="12"/>
          <note vol="200" pan="0" key="14" pos="468" len="12"/>
          <note vol="200" pan="0" key="14" pos="480" len="12"/>
          <note vol="200" pan="0" key="14" pos="492" len="12"/>
          <note vol="200" pan="0" key="14" pos="504" len="24"/>
          <note vol="200" pan="0" key="14" pos="528" len="12"/>
          <note vol="200" pan="0" key="14" pos="540" len="12"/>
          <note vol="200" pan="0" key="14" pos="552" len="12"/>
          <note vol="200" pan="0" key="14" pos="564" len="12"/>
          <note vol="200" pan="0" key="14" pos="576" len="24"/>
          <note vol="200" pan="0" key="14" pos="600" len="12"/>
          <note vol="200" pan="0" key="14" pos="612" len="12"/>
          <note vol="200" pan="0" key="14" pos="624" len="12"/>
          <note vol="200" pan="0" key="14" pos="636" len="12"/>
          <note vol="200" pan="0" key="14" pos="648" len="24"/>
          <note vol="200" pan="0" key="14" pos="672" len="12"/>
          <note vol="200" pan="0" key="14" pos="684" len="12"/>
          <note vol="200" pan="0" key="14" pos="696" len="24"/>
          <note vol="200" pan="0" key="14" pos="720" len="12"/>
          <note vol="200" pan="0" key="14" pos="732" len="12"/>
          <note vol="200" pan="0" key="14" pos="744" len="12"/>
          <note vol="200" pan="0" key="14" pos="756" len="12"/>
        </pattern>
        <pattern type="1" name="" steps="16" muted="0" pos="34176">
          <note vol="200" pan="0" key="19" pos="0" len="48"/>
          <note vol="200" pan="0" key="0" pos="0" len="24"/>
          <note vol="200" pan="0" key="19" pos="48" len="24"/>
          <note vol="200" pan="0" key="1" pos="60" len="24"/>
          <note vol="200" pan="0" key="19" pos="72" len="12"/>
          <note vol="200" pan="0" key="19" pos="84" len="12"/>
          <note vol="200" pan="0" key="19" pos="96" len="12"/>
          <note vol="200" pan="0" key="19" pos="108" len="12"/>
          <note vol="200" pan="0" key="19" pos="120" len="24"/>
          <note vol="200" pan="0" key="0" pos="120" len="24"/>
          <note vol="200" pan="0" key="1" pos="132" len="24"/>
          <note vol="200" pan="0" key="19" pos="144" len="12"/>
          <note vol="200" pan="0" key="19" pos="156" len="12"/>
          <note vol="200" pan="0" key="19" pos="168" len="12"/>
          <note vol="200" pan="0" key="19" pos="180" len="12"/>
          <note vol="200" pan="0" key="19" pos="192" len="24"/>
          <note vol="200" pan="0" key="0" pos="192" len="24"/>
          <note vol="200" pan="0" key="1" pos="204" len="24"/>
          <note vol="200" pan="0" key="19" pos="216" len="12"/>
          <note vol="200" pan="0" key="19" pos="228" len="12"/>
          <note vol="200" pan="0" key="19" pos="240" len="12"/>
          <note vol="200" pan="0" key="19" pos="252" len="12"/>
          <note vol="200" pan="0" key="19" pos="264" len="24"/>
          <note vol="200" pan="0" key="0" pos="264" len="24"/>
          <note vol="200" pan="0" key="1" pos="276" len="24"/>
          <note vol="200" pan="0" key="19" pos="288" len="12"/>
          <note vol="200" pan="0" key="19" pos="300" len="12"/>
          <note vol="200" pan="0" key="19" pos="312" len="24"/>
          <note vol="200" pan="0" key="0" pos="312" len="24"/>
          <note vol="200" pan="0" key="1" pos="324" len="24"/>
          <note vol="200" pan="0" key="19" pos="336" len="12"/>
          <note vol="200" pan="0" key="19" pos="348" len="12"/>
          <note vol="200" pan="0" key="19" pos="360" len="12"/>
          <note vol="200" pan="0" key="19" pos="372" len="12"/>
          <note vol="200" pan="0" key="20" pos="384" len="48"/>
          <note vol="200" pan="0" key="0" pos="384" len="24"/>
          <note vol="200" pan="0" key="8" pos="432" len="24"/>
          <note vol="200" pan="0" key="1" pos="444" len="24"/>
          <note vol="200" pan="0" key="8" pos="456" len="12"/>
          <note vol="200" pan="0" key="8" pos="468" len="12"/>
          <note vol="200" pan="0" key="8" pos="480" len="12"/>
          <note vol="200" pan="0" key="8" pos="492" len="12"/>
          <note vol="200" pan="0" key="8" pos="504" len="24"/>
          <note vol="200" pan="0" key="0" pos="504" len="24"/>
          <note vol="200" pan="0" key="1" pos="516" len="24"/>
          <note vol="200" pan="0" key="8" pos="528" len="12"/>
          <note vol="200" pan="0" key="8" pos="540" len="12"/>
          <note vol="200" pan="0" key="8" pos="552" len="12"/>
          <note vol="200" pan="0" key="8" pos="564" len="12"/>
          <note vol="200" pan="0" key="8" pos="576" len="192"/>
          <note vol="200" pan="0" key="0" pos="576" len="24"/>
        </pattern>
        <pattern type="1" name="" steps="16" muted="0" pos="34944">
          <note vol="197" pan="0" key="13" pos="0" len="192"/>
          <note vol="78" pan="0" key="0" pos="0" len="48"/>
          <note vol="197" pan="0" key="20" pos="192" len="192"/>
          <note vol="197" pan="0" key="21" pos="384" len="192"/>
          <note vol="197" pan="0" key="23" pos="576" len="192"/>
          <note vol="197" pan="0" key="1" pos="756" len="12"/>
          <note vol="197" pan="0" key="18" pos="768" len="12"/>
          <note vol="197" pan="0" key="18" pos="780" len="12"/>
          <note vol="197" pan="0" key="18" pos="792" len="12"/>
          <note vol="197" pan="0" key="18" pos="804" len="12"/>
          <note vol="197" pan="0" key="18" pos="816" len="12"/>
          <note vol="197" pan="0" key="18" pos="828" len="12"/>
          <note vol="197" pan="0" key="18" pos="840" len="12"/>
          <note vol="197" pan="0" key="18" pos="852" len="12"/>
          <note vol="197" pan="0" key="18" pos="864" len="12"/>
          <note vol="197" pan="0" key="18" pos="876" len="12"/>
          <note vol="197" pan="0" key="18" pos="888" len="12"/>
          <note vol="197" pan="0" key="18" pos="900" len="12"/>
          <note vol="197" pan="0" key="18" pos="912" len="12"/>
          <note vol="197" pan="0" key="18" pos="924" len="12"/>
          <note vol="197" pan="0" key="18" pos="936" len="12"/>
          <note vol="197" pan="0" key="18" pos="948" len="12"/>
          <note vol="197" pan="0" key="20" pos="960" len="12"/>
          <note vol="197" pan="0" key="20" pos="972" len="12"/>
          <note vol="197" pan="0" key="20" pos="984" len="12"/>
          <note vol="197" pan="0" key="20" pos="996" len="12"/>
          <note vol="197" pan="0" key="20" pos="1008" len="12"/>
          <note vol="197" pan="0" key="20" pos="1020" len="12"/>
          <note vol="197" pan="0" key="20" pos="1032" len="12"/>
          <note vol="197" pan="0" key="20" pos="1044" len="12"/>
          <note vol="197" pan="0" key="20" pos="1056" len="12"/>
          <note vol="197" pan="0" key="20" pos="1068" len="12"/>
          <note vol="197" pan="0" key="20" pos="1080" len="12"/>
          <note vol="197" pan="0" key="20" pos="1092" len="12"/>
          <note vol="197" pan="0" key="20" pos="1104" len="12"/>
          <note vol="197" pan="0" key="20" pos="1116" len="12"/>
          <note vol="197" pan="0" key="20" pos="1128" len="12"/>
          <note vol="197" pan="0" key="20" pos="1140" len="12"/>
          <note vol="197" pan="0" key="21" pos="1152" len="12"/>
          <note vol="197" pan="0" key="21" pos="1164" len="12"/>
          <note vol="197" pan="0" key="21" pos="1176" len="12"/>
          <note vol="197" pan="0" key="21" pos="1188" len="12"/>
          <note vol="197" pan="0" key="21" pos="1200" len="12"/>
          <note vol="197" pan="0" key="21" pos="1212" len="12"/>
          <note vol="197" pan="0" key="21" pos="1224" len="12"/>
          <note vol="197" pan="0" key="21" pos="1236" len="12"/>
          <note vol="197" pan="0" key="21" pos="1248" len="12"/>
          <note vol="197" pan="0" key="21" pos="1260" len="12"/>
          <note vol="197" pan="0" key="21" pos="1272" len="12"/>
          <note vol="197" pan="0" key="21" pos="1284" len="12"/>
          <note vol="197" pan="0" key="21" pos="1296" len="12"/>
          <note vol="197" pan="0" key="21" pos="1308" len="12"/>
          <note vol="197" pan="0" key="21" pos="1320" len="12"/>
          <note vol="197" pan="0" key="21" pos="1332" len="12"/>
          <note vol="197" pan="0" key="23" pos="1344" len="48"/>
          <note vol="197" pan="0" key="0" pos="1344" len="12"/>
          <note vol="197" pan="0" key="23" pos="1392" len="48"/>
          <note vol="197" pan="0" key="20" pos="1440" len="48"/>
          <note vol="197" pan="0" key="23" pos="1488" len="48"/>
        </pattern>
        <pattern type="1" name="" steps="16" muted="0" pos="12672">
          <note vol="200" pan="0" key="13" pos="0" len="36"/>
        </pattern>
        <pattern type="1" name="" steps="16" muted="0" pos="37632">
          <note vol="195" pan="0" key="20" pos="0" len="24"/>
          <note vol="195" pan="0" key="23" pos="24" len="24"/>
          <note vol="195" pan="0" key="20" pos="48" len="24"/>
          <note vol="195" pan="0" key="27" pos="72" len="48"/>
          <note vol="195" pan="0" key="20" pos="120" len="24"/>
          <note vol="195" pan="0" key="23" pos="144" len="24"/>
          <note vol="195" pan="0" key="27" pos="168" len="24"/>
          <note vol="195" pan="0" key="21" pos="192" len="12"/>
          <note vol="195" pan="0" key="21" pos="204" len="12"/>
          <note vol="195" pan="0" key="21" pos="216" len="12"/>
          <note vol="195" pan="0" key="21" pos="228" len="12"/>
          <note vol="195" pan="0" key="21" pos="240" len="12"/>
          <note vol="195" pan="0" key="21" pos="252" len="12"/>
          <note vol="195" pan="0" key="25" pos="264" len="12"/>
          <note vol="195" pan="0" key="25" pos="276" len="12"/>
          <note vol="195" pan="0" key="23" pos="288" len="12"/>
          <note vol="195" pan="0" key="23" pos="300" len="12"/>
          <note vol="195" pan="0" key="23" pos="312" len="12"/>
          <note vol="195" pan="0" key="23" pos="324" len="12"/>
          <note vol="195" pan="0" key="27" pos="336" len="12"/>
          <note vol="195" pan="0" key="27" pos="348" len="12"/>
          <note vol="195" pan="0" key="23" pos="360" len="12"/>
          <note vol="195" pan="0" key="23" pos="372" len="12"/>
        </pattern>
        <pattern type="1" name="" steps="16" muted="0" pos="37440">
          <note vol="197" pan="0" key="18" pos="0" len="24"/>
          <note vol="197" pan="0" key="16" pos="24" len="24"/>
          <note vol="197" pan="0" key="18" pos="48" len="24"/>
          <note vol="197" pan="0" key="25" pos="72" len="24"/>
          <note vol="197" pan="0" key="18" pos="96" len="12"/>
          <note vol="197" pan="0" key="18" pos="108" len="12"/>
          <note vol="197" pan="0" key="18" pos="120" len="12"/>
          <note vol="197" pan="0" key="18" pos="132" len="12"/>
          <note vol="197" pan="0" key="18" pos="144" len="12"/>
          <note vol="197" pan="0" key="18" pos="156" len="12"/>
          <note vol="197" pan="0" key="18" pos="168" len="12"/>
          <note vol="197" pan="0" key="18" pos="180" len="12"/>
        </pattern>
        <pattern type="1" name="" steps="16" muted="0" pos="37248">
          <note vol="197" pan="0" key="25" pos="0" len="24"/>
          <note vol="197" pan="0" key="23" pos="24" len="24"/>
          <note vol="197" pan="0" key="25" pos="48" len="24"/>
          <note vol="197" pan="0" key="32" pos="72" len="24"/>
          <note vol="197" pan="0" key="25" pos="96" len="12"/>
          <note vol="197" pan="0" key="25" pos="108" len="12"/>
          <note vol="197" pan="0" key="25" pos="120" len="12"/>
          <note vol="197" pan="0" key="25" pos="132" len="12"/>
          <note vol="197" pan="0" key="25" pos="144" len="12"/>
          <note vol="197" pan="0" key="25" pos="156" len="12"/>
          <note vol="197" pan="0" key="25" pos="168" len="12"/>
          <note vol="197" pan="0" key="25" pos="180" len="12"/>
        </pattern>
        <pattern type="1" name="" steps="16" muted="0" pos="36480">
          <note vol="197" pan="0" key="25" pos="0" len="24"/>
          <note vol="197" pan="0" key="23" pos="24" len="24"/>
          <note vol="197" pan="0" key="25" pos="48" len="24"/>
          <note vol="197" pan="0" key="32" pos="72" len="24"/>
          <note vol="197" pan="0" key="25" pos="96" len="12"/>
          <note vol="197" pan="0" key="25" pos="108" len="12"/>
          <note vol="197" pan="0" key="25" pos="120" len="12"/>
          <note vol="197" pan="0" key="25" pos="132" len="12"/>
          <note vol="197" pan="0" key="25" pos="144" len="12"/>
          <note vol="197" pan="0" key="25" pos="156" len="12"/>
          <note vol="197" pan="0" key="25" pos="168" len="12"/>
          <note vol="197" pan="0" key="25" pos="180" len="12"/>
        </pattern>
        <pattern type="1" name="" steps="16" muted="0" pos="36672">
          <note vol="197" pan="0" key="18" pos="0" len="24"/>
          <note vol="197" pan="0" key="16" pos="24" len="24"/>
          <note vol="197" pan="0" key="18" pos="48" len="24"/>
          <note vol="197" pan="0" key="25" pos="72" len="24"/>
          <note vol="197" pan="0" key="18" pos="96" len="12"/>
          <note vol="197" pan="0" key="18" pos="108" len="12"/>
          <note vol="197" pan="0" key="18" pos="120" len="12"/>
          <note vol="197" pan="0" key="18" pos="132" len="12"/>
          <note vol="197" pan="0" key="18" pos="144" len="12"/>
          <note vol="197" pan="0" key="18" pos="156" len="12"/>
          <note vol="197" pan="0" key="18" pos="168" len="12"/>
          <note vol="197" pan="0" key="18" pos="180" len="12"/>
        </pattern>
        <pattern type="1" name="" steps="16" muted="0" pos="36864">
          <note vol="195" pan="0" key="20" pos="0" len="24"/>
          <note vol="195" pan="0" key="23" pos="24" len="24"/>
          <note vol="195" pan="0" key="20" pos="48" len="24"/>
          <note vol="195" pan="0" key="27" pos="72" len="48"/>
          <note vol="195" pan="0" key="20" pos="120" len="24"/>
          <note vol="195" pan="0" key="23" pos="144" len="24"/>
          <note vol="195" pan="0" key="27" pos="168" len="24"/>
          <note vol="195" pan="0" key="21" pos="192" len="12"/>
          <note vol="195" pan="0" key="21" pos="204" len="12"/>
          <note vol="195" pan="0" key="21" pos="216" len="12"/>
          <note vol="195" pan="0" key="21" pos="228" len="12"/>
          <note vol="195" pan="0" key="21" pos="240" len="12"/>
          <note vol="195" pan="0" key="21" pos="252" len="12"/>
          <note vol="195" pan="0" key="25" pos="264" len="12"/>
          <note vol="195" pan="0" key="25" pos="276" len="12"/>
          <note vol="195" pan="0" key="23" pos="288" len="12"/>
          <note vol="195" pan="0" key="23" pos="300" len="12"/>
          <note vol="195" pan="0" key="23" pos="312" len="12"/>
          <note vol="195" pan="0" key="23" pos="324" len="12"/>
          <note vol="195" pan="0" key="27" pos="336" len="12"/>
          <note vol="195" pan="0" key="27" pos="348" len="12"/>
          <note vol="195" pan="0" key="23" pos="360" len="12"/>
          <note vol="195" pan="0" key="23" pos="372" len="12"/>
        </pattern>
        <pattern type="1" name="" steps="16" muted="0" pos="38016">
          <note vol="200" pan="0" key="14" pos="0" len="12"/>
          <note vol="200" pan="0" key="14" pos="12" len="12"/>
          <note vol="200" pan="0" key="14" pos="24" len="24"/>
          <note vol="200" pan="0" key="14" pos="48" len="12"/>
          <note vol="200" pan="0" key="14" pos="60" len="12"/>
          <note vol="200" pan="0" key="14" pos="72" len="24"/>
          <note vol="200" pan="0" key="14" pos="96" len="12"/>
          <note vol="200" pan="0" key="14" pos="108" len="12"/>
          <note vol="200" pan="0" key="14" pos="120" len="24"/>
          <note vol="200" pan="0" key="14" pos="144" len="12"/>
          <note vol="200" pan="0" key="14" pos="156" len="12"/>
          <note vol="200" pan="0" key="14" pos="168" len="24"/>
          <note vol="200" pan="0" key="14" pos="192" len="12"/>
          <note vol="200" pan="0" key="14" pos="204" len="12"/>
          <note vol="200" pan="0" key="14" pos="216" len="24"/>
          <note vol="200" pan="0" key="14" pos="240" len="12"/>
          <note vol="200" pan="0" key="14" pos="252" len="12"/>
          <note vol="200" pan="0" key="14" pos="264" len="24"/>
          <note vol="200" pan="0" key="14" pos="288" len="12"/>
          <note vol="200" pan="0" key="14" pos="300" len="12"/>
          <note vol="200" pan="0" key="14" pos="312" len="24"/>
          <note vol="200" pan="0" key="14" pos="336" len="12"/>
          <note vol="200" pan="0" key="14" pos="348" len="12"/>
          <note vol="200" pan="0" key="14" pos="360" len="24"/>
          <note vol="200" pan="0" key="13" pos="384" len="12"/>
          <note vol="200" pan="0" key="13" pos="396" len="12"/>
          <note vol="200" pan="0" key="13" pos="408" len="24"/>
          <note vol="200" pan="0" key="13" pos="432" len="12"/>
          <note vol="200" pan="0" key="13" pos="444" len="12"/>
          <note vol="200" pan="0" key="13" pos="456" len="24"/>
          <note vol="200" pan="0" key="13" pos="480" len="12"/>
          <note vol="200" pan="0" key="13" pos="492" len="12"/>
          <note vol="200" pan="0" key="13" pos="504" len="24"/>
          <note vol="200" pan="0" key="13" pos="528" len="12"/>
          <note vol="200" pan="0" key="13" pos="540" len="12"/>
          <note vol="200" pan="0" key="13" pos="552" len="24"/>
          <note vol="200" pan="0" key="11" pos="576" len="12"/>
          <note vol="200" pan="0" key="11" pos="588" len="12"/>
          <note vol="200" pan="0" key="11" pos="600" len="24"/>
          <note vol="200" pan="0" key="11" pos="624" len="12"/>
          <note vol="200" pan="0" key="11" pos="636" len="12"/>
          <note vol="200" pan="0" key="11" pos="648" len="24"/>
          <note vol="200" pan="0" key="11" pos="672" len="12"/>
          <note vol="200" pan="0" key="11" pos="684" len="12"/>
          <note vol="200" pan="0" key="11" pos="696" len="24"/>
          <note vol="200" pan="0" key="11" pos="720" len="12"/>
          <note vol="200" pan="0" key="11" pos="732" len="12"/>
          <note vol="200" pan="0" key="11" pos="744" len="24"/>
        </pattern>
        <pattern type="1" name="" steps="16" muted="0" pos="39168">
          <note vol="197" pan="0" key="15" pos="0" len="24"/>
          <note vol="197" pan="0" key="15" pos="24" len="12"/>
          <note vol="197" pan="0" key="15" pos="36" len="12"/>
          <note vol="197" pan="0" key="15" pos="48" len="12"/>
          <note vol="197" pan="0" key="15" pos="60" len="12"/>
          <note vol="197" pan="0" key="15" pos="72" len="12"/>
          <note vol="197" pan="0" key="15" pos="84" len="12"/>
          <note vol="197" pan="0" key="15" pos="96" len="12"/>
          <note vol="197" pan="0" key="15" pos="108" len="12"/>
          <note vol="197" pan="0" key="15" pos="120" len="12"/>
          <note vol="197" pan="0" key="15" pos="132" len="12"/>
          <note vol="197" pan="0" key="15" pos="144" len="12"/>
          <note vol="197" pan="0" key="15" pos="156" len="12"/>
          <note vol="197" pan="0" key="15" pos="168" len="12"/>
          <note vol="197" pan="0" key="15" pos="180" len="12"/>
          <note vol="197" pan="0" key="21" pos="192" len="96"/>
          <note vol="197" pan="0" key="20" pos="288" len="96"/>
        </pattern>
        <pattern type="1" name="" steps="16" muted="0" pos="38784">
          <note vol="197" pan="0" key="16" pos="0" len="24"/>
          <note vol="197" pan="0" key="18" pos="24" len="24"/>
          <note vol="197" pan="0" key="18" pos="48" len="12"/>
          <note vol="197" pan="0" key="18" pos="60" len="12"/>
          <note vol="197" pan="0" key="23" pos="72" len="24"/>
          <note vol="197" pan="0" key="25" pos="96" len="24"/>
          <note vol="197" pan="0" key="18" pos="120" len="24"/>
          <note vol="197" pan="0" key="16" pos="144" len="24"/>
          <note vol="197" pan="0" key="18" pos="168" len="24"/>
        </pattern>
        <pattern type="1" name="" steps="16" muted="0" pos="38976">
          <note vol="197" pan="0" key="16" pos="0" len="24"/>
          <note vol="197" pan="0" key="18" pos="24" len="24"/>
          <note vol="197" pan="0" key="18" pos="48" len="12"/>
          <note vol="197" pan="0" key="18" pos="60" len="12"/>
          <note vol="197" pan="0" key="23" pos="72" len="24"/>
          <note vol="197" pan="0" key="25" pos="96" len="24"/>
          <note vol="197" pan="0" key="18" pos="120" len="24"/>
          <note vol="197" pan="0" key="16" pos="144" len="24"/>
          <note vol="197" pan="0" key="18" pos="168" len="24"/>
        </pattern>
        <pattern type="1" name="" steps="16" muted="0" pos="39552">
          <note vol="195" pan="0" key="13" pos="0" len="48"/>
          <note vol="195" pan="0" key="13" pos="48" len="12"/>
          <note vol="195" pan="0" key="13" pos="60" len="12"/>
          <note vol="195" pan="0" key="13" pos="72" len="12"/>
          <note vol="195" pan="0" key="13" pos="84" len="12"/>
          <note vol="195" pan="0" key="13" pos="96" len="12"/>
          <note vol="195" pan="0" key="13" pos="108" len="12"/>
          <note vol="195" pan="0" key="13" pos="120" len="12"/>
          <note vol="195" pan="0" key="13" pos="132" len="12"/>
          <note vol="195" pan="0" key="13" pos="144" len="12"/>
          <note vol="195" pan="0" key="13" pos="156" len="12"/>
          <note vol="195" pan="0" key="13" pos="168" len="12"/>
          <note vol="195" pan="0" key="13" pos="180" len="12"/>
          <note vol="195" pan="0" key="20" pos="192" len="48"/>
          <note vol="195" pan="0" key="20" pos="240" len="12"/>
          <note vol="195" pan="0" key="20" pos="252" len="12"/>
          <note vol="195" pan="0" key="20" pos="264" len="12"/>
          <note vol="195" pan="0" key="20" pos="276" len="12"/>
          <note vol="195" pan="0" key="20" pos="288" len="12"/>
          <note vol="195" pan="0" key="20" pos="300" len="12"/>
          <note vol="195" pan="0" key="20" pos="312" len="12"/>
          <note vol="195" pan="0" key="20" pos="324" len="12"/>
          <note vol="195" pan="0" key="20" pos="336" len="12"/>
          <note vol="195" pan="0" key="20" pos="348" len="12"/>
          <note vol="195" pan="0" key="20" pos="360" len="12"/>
          <note vol="195" pan="0" key="20" pos="372" len="12"/>
          <note vol="195" pan="0" key="21" pos="384" len="48"/>
          <note vol="195" pan="0" key="21" pos="432" len="12"/>
          <note vol="195" pan="0" key="21" pos="444" len="12"/>
          <note vol="195" pan="0" key="21" pos="456" len="12"/>
          <note vol="195" pan="0" key="21" pos="468" len="12"/>
          <note vol="195" pan="0" key="21" pos="480" len="12"/>
          <note vol="195" pan="0" key="21" pos="492" len="12"/>
          <note vol="195" pan="0" key="21" pos="504" len="12"/>
          <note vol="195" pan="0" key="21" pos="516" len="12"/>
          <note vol="195" pan="0" key="21" pos="528" len="12"/>
          <note vol="195" pan="0" key="21" pos="540" len="12"/>
          <note vol="195" pan="0" key="21" pos="552" len="12"/>
          <note vol="195" pan="0" key="21" pos="564" len="12"/>
          <note vol="195" pan="0" key="23" pos="576" len="48"/>
          <note vol="195" pan="0" key="23" pos="624" len="12"/>
          <note vol="195" pan="0" key="23" pos="636" len="12"/>
          <note vol="195" pan="0" key="23" pos="648" len="12"/>
          <note vol="195" pan="0" key="23" pos="660" len="12"/>
          <note vol="195" pan="0" key="23" pos="672" len="12"/>
          <note vol="195" pan="0" key="23" pos="684" len="12"/>
          <note vol="195" pan="0" key="23" pos="696" len="12"/>
          <note vol="195" pan="0" key="23" pos="708" len="12"/>
          <note vol="195" pan="0" key="23" pos="720" len="12"/>
          <note vol="195" pan="0" key="23" pos="732" len="12"/>
          <note vol="195" pan="0" key="23" pos="744" len="12"/>
          <note vol="195" pan="0" key="23" pos="756" len="12"/>
          <note vol="195" pan="0" key="18" pos="768" len="48"/>
          <note vol="195" pan="0" key="18" pos="816" len="12"/>
          <note vol="195" pan="0" key="18" pos="828" len="12"/>
          <note vol="195" pan="0" key="18" pos="840" len="12"/>
          <note vol="195" pan="0" key="18" pos="852" len="12"/>
          <note vol="195" pan="0" key="18" pos="864" len="12"/>
          <note vol="195" pan="0" key="18" pos="876" len="12"/>
          <note vol="195" pan="0" key="18" pos="888" len="12"/>
          <note vol="195" pan="0" key="18" pos="900" len="12"/>
          <note vol="195" pan="0" key="18" pos="912" len="12"/>
          <note vol="195" pan="0" key="18" pos="924" len="12"/>
          <note vol="195" pan="0" key="18" pos="936" len="12"/>
          <note vol="195" pan="0" key="18" pos="948" len="12"/>
          <note vol="195" pan="0" key="20" pos="960" len="48"/>
          <note vol="195" pan="0" key="20" pos="1008" len="12"/>
          <note vol="195" pan="0" key="20" pos="1020" len="12"/>
          <note vol="195" pan="0" key="20" pos="1032" len="12"/>
          <note vol="195" pan="0" key="20" pos="1044" len="12"/>
          <note vol="195" pan="0" key="20" pos="1056" len="12"/>
          <note vol="195" pan="0" key="20" pos="1068" len="12"/>
          <note vol="195" pan="0" key="20" pos="1080" len="12"/>
          <note vol="195" pan="0" key="20" pos="1092" len="12"/>
          <note vol="195" pan="0" key="20" pos="1104" len="12"/>
          <note vol="195" pan="0" key="20" pos="1116" len="12"/>
          <note vol="195" pan="0" key="20" pos="1128" len="12"/>
          <note vol="195" pan="0" key="20" pos="1140" len="12"/>
          <note vol="195" pan="0" key="21" pos="1152" len="48"/>
          <note vol="195" pan="0" key="21" pos="1200" len="12"/>
          <note vol="195" pan="0" key="21" pos="1212" len="12"/>
          <note vol="195" pan="0" key="21" pos="1224" len="12"/>
          <note vol="195" pan="0" key="21" pos="1236" len="12"/>
          <note vol="195" pan="0" key="21" pos="1248" len="12"/>
          <note vol="195" pan="0" key="21" pos="1260" len="12"/>
          <note vol="195" pan="0" key="21" pos="1272" len="12"/>
          <note vol="195" pan="0" key="21" pos="1284" len="12"/>
          <note vol="195" pan="0" key="21" pos="1296" len="12"/>
          <note vol="195" pan="0" key="21" pos="1308" len="12"/>
          <note vol="195" pan="0" key="21" pos="1320" len="12"/>
          <note vol="195" pan="0" key="21" pos="1332" len="12"/>
          <note vol="195" pan="0" key="23" pos="1344" len="48"/>
          <note vol="195" pan="0" key="23" pos="1392" len="12"/>
          <note vol="195" pan="0" key="23" pos="1404" len="12"/>
          <note vol="195" pan="0" key="23" pos="1416" len="12"/>
          <note vol="195" pan="0" key="23" pos="1428" len="12"/>
          <note vol="195" pan="0" key="24" pos="1440" len="48"/>
          <note vol="195" pan="0" key="24" pos="1488" len="12"/>
          <note vol="195" pan="0" key="24" pos="1500" len="12"/>
          <note vol="195" pan="0" key="24" pos="1512" len="12"/>
          <note vol="195" pan="0" key="24" pos="1524" len="12"/>
          <note vol="195" pan="0" key="13" pos="1536" len="48"/>
          <note vol="195" pan="0" key="13" pos="1584" len="12"/>
          <note vol="195" pan="0" key="13" pos="1596" len="12"/>
          <note vol="195" pan="0" key="13" pos="1608" len="12"/>
          <note vol="195" pan="0" key="13" pos="1620" len="12"/>
          <note vol="195" pan="0" key="13" pos="1632" len="12"/>
          <note vol="195" pan="0" key="13" pos="1644" len="12"/>
          <note vol="195" pan="0" key="13" pos="1656" len="12"/>
          <note vol="195" pan="0" key="13" pos="1668" len="12"/>
          <note vol="195" pan="0" key="13" pos="1680" len="12"/>
          <note vol="195" pan="0" key="13" pos="1692" len="12"/>
          <note vol="195" pan="0" key="13" pos="1704" len="12"/>
          <note vol="195" pan="0" key="13" pos="1716" len="12"/>
          <note vol="195" pan="0" key="23" pos="1728" len="48"/>
          <note vol="195" pan="0" key="23" pos="1776" len="12"/>
          <note vol="195" pan="0" key="23" pos="1788" len="12"/>
          <note vol="195" pan="0" key="23" pos="1800" len="12"/>
          <note vol="195" pan="0" key="23" pos="1812" len="12"/>
          <note vol="195" pan="0" key="23" pos="1824" len="12"/>
          <note vol="195" pan="0" key="23" pos="1836" len="12"/>
          <note vol="195" pan="0" key="23" pos="1848" len="12"/>
          <note vol="195" pan="0" key="23" pos="1860" len="12"/>
          <note vol="195" pan="0" key="23" pos="1872" len="12"/>
          <note vol="195" pan="0" key="23" pos="1884" len="12"/>
          <note vol="195" pan="0" key="23" pos="1896" len="12"/>
          <note vol="195" pan="0" key="23" pos="1908" len="12"/>
          <note vol="195" pan="0" key="22" pos="1920" len="48"/>
          <note vol="195" pan="0" key="22" pos="1968" len="12"/>
          <note vol="195" pan="0" key="22" pos="1980" len="12"/>
          <note vol="195" pan="0" key="22" pos="1992" len="12"/>
          <note vol="195" pan="0" key="22" pos="2004" len="12"/>
          <note vol="195" pan="0" key="22" pos="2016" len="12"/>
          <note vol="195" pan="0" key="22" pos="2028" len="12"/>
          <note vol="195" pan="0" key="22" pos="2040" len="12"/>
          <note vol="195" pan="0" key="22" pos="2052" len="12"/>
          <note vol="195" pan="0" key="22" pos="2064" len="12"/>
          <note vol="195" pan="0" key="22" pos="2076" len="12"/>
          <note vol="195" pan="0" key="22" pos="2088" len="12"/>
          <note vol="195" pan="0" key="22" pos="2100" len="12"/>
          <note vol="195" pan="0" key="18" pos="2112" len="48"/>
          <note vol="195" pan="0" key="18" pos="2160" len="12"/>
          <note vol="195" pan="0" key="18" pos="2172" len="12"/>
          <note vol="195" pan="0" key="18" pos="2184" len="12"/>
          <note vol="195" pan="0" key="18" pos="2196" len="12"/>
          <note vol="195" pan="0" key="16" pos="2208" len="48"/>
          <note vol="195" pan="0" key="16" pos="2256" len="12"/>
          <note vol="195" pan="0" key="16" pos="2268" len="12"/>
          <note vol="195" pan="0" key="16" pos="2280" len="12"/>
          <note vol="195" pan="0" key="16" pos="2292" len="12"/>
          <note vol="195" pan="0" key="14" pos="2304" len="48"/>
          <note vol="195" pan="0" key="14" pos="2352" len="12"/>
          <note vol="195" pan="0" key="14" pos="2364" len="12"/>
          <note vol="195" pan="0" key="14" pos="2376" len="12"/>
          <note vol="195" pan="0" key="14" pos="2388" len="12"/>
          <note vol="195" pan="0" key="14" pos="2400" len="48"/>
          <note vol="195" pan="0" key="14" pos="2448" len="12"/>
          <note vol="195" pan="0" key="14" pos="2460" len="12"/>
          <note vol="195" pan="0" key="14" pos="2472" len="12"/>
          <note vol="195" pan="0" key="14" pos="2484" len="12"/>
          <note vol="195" pan="0" key="21" pos="2496" len="48"/>
          <note vol="195" pan="0" key="21" pos="2544" len="12"/>
          <note vol="195" pan="0" key="21" pos="2556" len="12"/>
          <note vol="195" pan="0" key="21" pos="2568" len="12"/>
          <note vol="195" pan="0" key="21" pos="2580" len="12"/>
          <note vol="195" pan="0" key="21" pos="2592" len="12"/>
          <note vol="195" pan="0" key="21" pos="2604" len="12"/>
          <note vol="195" pan="0" key="21" pos="2616" len="12"/>
          <note vol="195" pan="0" key="21" pos="2628" len="12"/>
          <note vol="195" pan="0" key="21" pos="2640" len="12"/>
          <note vol="195" pan="0" key="21" pos="2652" len="12"/>
          <note vol="195" pan="0" key="21" pos="2664" len="12"/>
          <note vol="195" pan="0" key="21" pos="2676" len="12"/>
          <note vol="195" pan="0" key="11" pos="2688" len="384"/>
        </pattern>
        <pattern type="1" name="" steps="16" muted="0" pos="44160">
          <note vol="195" pan="0" key="15" pos="0" len="48"/>
          <note vol="195" pan="0" key="15" pos="48" len="12"/>
          <note vol="195" pan="0" key="15" pos="60" len="12"/>
          <note vol="195" pan="0" key="15" pos="72" len="12"/>
          <note vol="195" pan="0" key="15" pos="84" len="12"/>
          <note vol="195" pan="0" key="15" pos="96" len="12"/>
          <note vol="195" pan="0" key="15" pos="108" len="12"/>
          <note vol="195" pan="0" key="15" pos="120" len="12"/>
          <note vol="195" pan="0" key="15" pos="132" len="12"/>
          <note vol="195" pan="0" key="15" pos="144" len="12"/>
          <note vol="195" pan="0" key="15" pos="156" len="12"/>
          <note vol="195" pan="0" key="15" pos="168" len="12"/>
          <note vol="195" pan="0" key="15" pos="180" len="12"/>
          <note vol="195" pan="0" key="22" pos="192" len="48"/>
          <note vol="195" pan="0" key="22" pos="240" len="12"/>
          <note vol="195" pan="0" key="22" pos="252" len="12"/>
          <note vol="195" pan="0" key="22" pos="264" len="12"/>
          <note vol="195" pan="0" key="22" pos="276" len="12"/>
          <note vol="195" pan="0" key="22" pos="288" len="12"/>
          <note vol="195" pan="0" key="22" pos="300" len="12"/>
          <note vol="195" pan="0" key="22" pos="312" len="12"/>
          <note vol="195" pan="0" key="22" pos="324" len="12"/>
          <note vol="195" pan="0" key="22" pos="336" len="12"/>
          <note vol="195" pan="0" key="22" pos="348" len="12"/>
          <note vol="195" pan="0" key="22" pos="360" len="12"/>
          <note vol="195" pan="0" key="22" pos="372" len="12"/>
          <note vol="195" pan="0" key="23" pos="384" len="48"/>
          <note vol="195" pan="0" key="23" pos="432" len="12"/>
          <note vol="195" pan="0" key="23" pos="444" len="12"/>
          <note vol="195" pan="0" key="23" pos="456" len="12"/>
          <note vol="195" pan="0" key="23" pos="468" len="12"/>
          <note vol="195" pan="0" key="23" pos="480" len="12"/>
          <note vol="195" pan="0" key="23" pos="492" len="12"/>
          <note vol="195" pan="0" key="23" pos="504" len="12"/>
          <note vol="195" pan="0" key="23" pos="516" len="12"/>
          <note vol="195" pan="0" key="23" pos="528" len="12"/>
          <note vol="195" pan="0" key="23" pos="540" len="12"/>
          <note vol="195" pan="0" key="23" pos="552" len="12"/>
          <note vol="195" pan="0" key="23" pos="564" len="12"/>
          <note vol="195" pan="0" key="25" pos="576" len="48"/>
          <note vol="195" pan="0" key="25" pos="624" len="12"/>
          <note vol="195" pan="0" key="25" pos="636" len="12"/>
          <note vol="195" pan="0" key="25" pos="648" len="12"/>
          <note vol="195" pan="0" key="25" pos="660" len="12"/>
          <note vol="195" pan="0" key="25" pos="672" len="12"/>
          <note vol="195" pan="0" key="25" pos="684" len="12"/>
          <note vol="195" pan="0" key="25" pos="696" len="12"/>
          <note vol="195" pan="0" key="25" pos="708" len="12"/>
          <note vol="195" pan="0" key="25" pos="720" len="12"/>
          <note vol="195" pan="0" key="25" pos="732" len="12"/>
          <note vol="195" pan="0" key="25" pos="744" len="12"/>
          <note vol="195" pan="0" key="25" pos="756" len="12"/>
          <note vol="195" pan="0" key="20" pos="768" len="48"/>
          <note vol="195" pan="0" key="20" pos="816" len="12"/>
          <note vol="195" pan="0" key="20" pos="828" len="12"/>
          <note vol="195" pan="0" key="20" pos="840" len="12"/>
          <note vol="195" pan="0" key="20" pos="852" len="12"/>
          <note vol="195" pan="0" key="20" pos="864" len="12"/>
          <note vol="195" pan="0" key="20" pos="876" len="12"/>
          <note vol="195" pan="0" key="20" pos="888" len="12"/>
          <note vol="195" pan="0" key="20" pos="900" len="12"/>
          <note vol="195" pan="0" key="20" pos="912" len="12"/>
          <note vol="195" pan="0" key="20" pos="924" len="12"/>
          <note vol="195" pan="0" key="20" pos="936" len="12"/>
          <note vol="195" pan="0" key="20" pos="948" len="12"/>
          <note vol="195" pan="0" key="22" pos="960" len="48"/>
          <note vol="195" pan="0" key="22" pos="1008" len="12"/>
          <note vol="195" pan="0" key="22" pos="1020" len="12"/>
          <note vol="195" pan="0" key="22" pos="1032" len="12"/>
          <note vol="195" pan="0" key="22" pos="1044" len="12"/>
          <note vol="195" pan="0" key="22" pos="1056" len="12"/>
          <note vol="195" pan="0" key="22" pos="1068" len="12"/>
          <note vol="195" pan="0" key="22" pos="1080" len="12"/>
          <note vol="195" pan="0" key="22" pos="1092" len="12"/>
          <note vol="195" pan="0" key="22" pos="1104" len="12"/>
          <note vol="195" pan="0" key="22" pos="1116" len="12"/>
          <note vol="195" pan="0" key="22" pos="1128" len="12"/>
          <note vol="195" pan="0" key="22" pos="1140" len="12"/>
          <note vol="195" pan="0" key="23" pos="1152" len="48"/>
          <note vol="195" pan="0" key="23" pos="1200" len="12"/>
          <note vol="195" pan="0" key="23" pos="1212" len="12"/>
          <note vol="195" pan="0" key="23" pos="1224" len="12"/>
          <note vol="195" pan="0" key="23" pos="1236" len="12"/>
          <note vol="195" pan="0" key="23" pos="1248" len="12"/>
          <note vol="195" pan="0" key="23" pos="1260" len="12"/>
          <note vol="195" pan="0" key="23" pos="1272" len="12"/>
          <note vol="195" pan="0" key="23" pos="1284" len="12"/>
          <note vol="195" pan="0" key="23" pos="1296" len="12"/>
          <note vol="195" pan="0" key="23" pos="1308" len="12"/>
          <note vol="195" pan="0" key="23" pos="1320" len="12"/>
          <note vol="195" pan="0" key="23" pos="1332" len="12"/>
          <note vol="195" pan="0" key="25" pos="1344" len="48"/>
          <note vol="195" pan="0" key="25" pos="1392" len="12"/>
          <note vol="195" pan="0" key="25" pos="1404" len="12"/>
          <note vol="195" pan="0" key="25" pos="1416" len="12"/>
          <note vol="195" pan="0" key="25" pos="1428" len="12"/>
          <note vol="195" pan="0" key="26" pos="1440" len="12"/>
          <note vol="195" pan="0" key="23" pos="1452" len="12"/>
          <note vol="195" pan="0" key="22" pos="1464" len="12"/>
          <note vol="195" pan="0" key="20" pos="1476" len="12"/>
          <note vol="195" pan="0" key="23" pos="1488" len="12"/>
          <note vol="195" pan="0" key="22" pos="1500" len="12"/>
          <note vol="195" pan="0" key="20" pos="1512" len="12"/>
          <note vol="195" pan="0" key="18" pos="1524" len="12"/>
          <note vol="195" pan="0" key="15" pos="1536" len="48"/>
          <note vol="195" pan="0" key="15" pos="1584" len="12"/>
          <note vol="195" pan="0" key="15" pos="1596" len="12"/>
          <note vol="195" pan="0" key="15" pos="1608" len="12"/>
          <note vol="195" pan="0" key="15" pos="1620" len="12"/>
          <note vol="195" pan="0" key="15" pos="1632" len="12"/>
          <note vol="195" pan="0" key="15" pos="1644" len="12"/>
          <note vol="195" pan="0" key="15" pos="1656" len="12"/>
          <note vol="195" pan="0" key="15" pos="1668" len="12"/>
          <note vol="195" pan="0" key="15" pos="1680" len="12"/>
          <note vol="195" pan="0" key="15" pos="1692" len="12"/>
          <note vol="195" pan="0" key="15" pos="1704" len="12"/>
          <note vol="195" pan="0" key="15" pos="1716" len="12"/>
          <note vol="195" pan="0" key="25" pos="1728" len="48"/>
          <note vol="195" pan="0" key="25" pos="1776" len="12"/>
          <note vol="195" pan="0" key="25" pos="1788" len="12"/>
          <note vol="195" pan="0" key="25" pos="1800" len="12"/>
          <note vol="195" pan="0" key="25" pos="1812" len="12"/>
          <note vol="195" pan="0" key="25" pos="1824" len="12"/>
          <note vol="195" pan="0" key="25" pos="1836" len="12"/>
          <note vol="195" pan="0" key="25" pos="1848" len="12"/>
          <note vol="195" pan="0" key="25" pos="1860" len="12"/>
          <note vol="195" pan="0" key="25" pos="1872" len="12"/>
          <note vol="195" pan="0" key="25" pos="1884" len="12"/>
          <note vol="195" pan="0" key="25" pos="1896" len="12"/>
          <note vol="195" pan="0" key="25" pos="1908" len="12"/>
          <note vol="195" pan="0" key="24" pos="1920" len="48"/>
          <note vol="195" pan="0" key="24" pos="1968" len="12"/>
          <note vol="195" pan="0" key="24" pos="1980" len="12"/>
          <note vol="195" pan="0" key="24" pos="1992" len="12"/>
          <note vol="195" pan="0" key="24" pos="2004" len="12"/>
          <note vol="195" pan="0" key="24" pos="2016" len="12"/>
          <note vol="195" pan="0" key="24" pos="2028" len="12"/>
          <note vol="195" pan="0" key="24" pos="2040" len="12"/>
          <note vol="195" pan="0" key="24" pos="2052" len="12"/>
          <note vol="195" pan="0" key="24" pos="2064" len="12"/>
          <note vol="195" pan="0" key="24" pos="2076" len="12"/>
          <note vol="195" pan="0" key="24" pos="2088" len="12"/>
          <note vol="195" pan="0" key="24" pos="2100" len="12"/>
          <note vol="195" pan="0" key="20" pos="2112" len="48"/>
          <note vol="195" pan="0" key="20" pos="2160" len="12"/>
          <note vol="195" pan="0" key="20" pos="2172" len="12"/>
          <note vol="195" pan="0" key="20" pos="2184" len="12"/>
          <note vol="195" pan="0" key="20" pos="2196" len="12"/>
          <note vol="195" pan="0" key="18" pos="2208" len="48"/>
          <note vol="195" pan="0" key="18" pos="2256" len="12"/>
          <note vol="195" pan="0" key="18" pos="2268" len="12"/>
          <note vol="195" pan="0" key="18" pos="2280" len="12"/>
          <note vol="195" pan="0" key="18" pos="2292" len="12"/>
          <note vol="195" pan="0" key="16" pos="2304" len="48"/>
          <note vol="195" pan="0" key="16" pos="2352" len="12"/>
          <note vol="195" pan="0" key="16" pos="2364" len="12"/>
          <note vol="195" pan="0" key="16" pos="2376" len="12"/>
          <note vol="195" pan="0" key="16" pos="2388" len="12"/>
          <note vol="195" pan="0" key="16" pos="2400" len="48"/>
          <note vol="195" pan="0" key="16" pos="2448" len="12"/>
          <note vol="195" pan="0" key="16" pos="2460" len="12"/>
          <note vol="195" pan="0" key="16" pos="2472" len="12"/>
          <note vol="195" pan="0" key="16" pos="2484" len="12"/>
          <note vol="195" pan="0" key="23" pos="2496" len="48"/>
          <note vol="195" pan="0" key="23" pos="2544" len="12"/>
          <note vol="195" pan="0" key="23" pos="2556" len="12"/>
          <note vol="195" pan="0" key="23" pos="2568" len="12"/>
          <note vol="195" pan="0" key="23" pos="2580" len="12"/>
          <note vol="195" pan="0" key="23" pos="2592" len="12"/>
          <note vol="195" pan="0" key="23" pos="2604" len="12"/>
          <note vol="195" pan="0" key="23" pos="2616" len="12"/>
          <note vol="195" pan="0" key="23" pos="2628" len="12"/>
          <note vol="195" pan="0" key="23" pos="2640" len="12"/>
          <note vol="195" pan="0" key="23" pos="2652" len="12"/>
          <note vol="195" pan="0" key="23" pos="2664" len="12"/>
          <note vol="195" pan="0" key="23" pos="2676" len="12"/>
          <note vol="195" pan="0" key="25" pos="2688" len="48"/>
          <note vol="195" pan="0" key="25" pos="2736" len="12"/>
          <note vol="195" pan="0" key="25" pos="2748" len="12"/>
          <note vol="195" pan="0" key="25" pos="2760" len="12"/>
          <note vol="195" pan="0" key="25" pos="2772" len="12"/>
          <note vol="195" pan="0" key="25" pos="2784" len="12"/>
          <note vol="195" pan="0" key="25" pos="2796" len="12"/>
          <note vol="195" pan="0" key="25" pos="2808" len="12"/>
          <note vol="195" pan="0" key="25" pos="2820" len="12"/>
          <note vol="195" pan="0" key="25" pos="2832" len="12"/>
          <note vol="195" pan="0" key="25" pos="2844" len="12"/>
          <note vol="195" pan="0" key="25" pos="2856" len="12"/>
          <note vol="195" pan="0" key="25" pos="2868" len="12"/>
          <note vol="195" pan="0" key="25" pos="2880" len="12"/>
          <note vol="195" pan="0" key="23" pos="2892" len="12"/>
          <note vol="195" pan="0" key="22" pos="2904" len="12"/>
          <note vol="195" pan="0" key="20" pos="2916" len="12"/>
          <note vol="195" pan="0" key="23" pos="2928" len="12"/>
          <note vol="195" pan="0" key="22" pos="2940" len="12"/>
          <note vol="195" pan="0" key="20" pos="2952" len="12"/>
          <note vol="195" pan="0" key="18" pos="2964" len="12"/>
          <note vol="195" pan="0" key="22" pos="2976" len="12"/>
          <note vol="195" pan="0" key="20" pos="2988" len="12"/>
          <note vol="195" pan="0" key="18" pos="3000" len="12"/>
          <note vol="195" pan="0" key="17" pos="3012" len="12"/>
          <note vol="195" pan="0" key="20" pos="3024" len="12"/>
          <note vol="195" pan="0" key="18" pos="3036" len="12"/>
          <note vol="195" pan="0" key="17" pos="3048" len="12"/>
          <note vol="195" pan="0" key="18" pos="3060" len="12"/>
        </pattern>
        <pattern type="1" name="" steps="16" muted="0" pos="43776">
          <note vol="200" pan="0" key="9" pos="96" len="96"/>
          <note vol="200" pan="0" key="11" pos="192" len="96"/>
          <note vol="200" pan="0" key="13" pos="288" len="96"/>
        </pattern>
        <pattern type="1" name="" steps="16" muted="0" pos="47232">
          <note vol="195" pan="0" key="15" pos="0" len="48"/>
          <note vol="195" pan="0" key="15" pos="48" len="12"/>
          <note vol="195" pan="0" key="15" pos="60" len="12"/>
          <note vol="195" pan="0" key="15" pos="72" len="12"/>
          <note vol="195" pan="0" key="15" pos="84" len="12"/>
          <note vol="195" pan="0" key="15" pos="96" len="12"/>
          <note vol="195" pan="0" key="15" pos="108" len="12"/>
          <note vol="195" pan="0" key="15" pos="120" len="12"/>
          <note vol="195" pan="0" key="15" pos="132" len="12"/>
          <note vol="195" pan="0" key="15" pos="144" len="12"/>
          <note vol="195" pan="0" key="15" pos="156" len="12"/>
          <note vol="195" pan="0" key="15" pos="168" len="12"/>
          <note vol="195" pan="0" key="15" pos="180" len="12"/>
          <note vol="195" pan="0" key="22" pos="192" len="48"/>
          <note vol="195" pan="0" key="22" pos="240" len="12"/>
          <note vol="195" pan="0" key="22" pos="252" len="12"/>
          <note vol="195" pan="0" key="22" pos="264" len="12"/>
          <note vol="195" pan="0" key="22" pos="276" len="12"/>
          <note vol="195" pan="0" key="22" pos="288" len="12"/>
          <note vol="195" pan="0" key="22" pos="300" len="12"/>
          <note vol="195" pan="0" key="22" pos="312" len="12"/>
          <note vol="195" pan="0" key="22" pos="324" len="12"/>
          <note vol="195" pan="0" key="22" pos="336" len="12"/>
          <note vol="195" pan="0" key="22" pos="348" len="12"/>
          <note vol="195" pan="0" key="22" pos="360" len="12"/>
          <note vol="195" pan="0" key="22" pos="372" len="12"/>
          <note vol="195" pan="0" key="23" pos="384" len="48"/>
          <note vol="195" pan="0" key="23" pos="432" len="12"/>
          <note vol="195" pan="0" key="23" pos="444" len="12"/>
          <note vol="195" pan="0" key="23" pos="456" len="12"/>
          <note vol="195" pan="0" key="23" pos="468" len="12"/>
          <note vol="195" pan="0" key="23" pos="480" len="12"/>
          <note vol="195" pan="0" key="23" pos="492" len="12"/>
          <note vol="195" pan="0" key="23" pos="504" len="12"/>
          <note vol="195" pan="0" key="23" pos="516" len="12"/>
          <note vol="195" pan="0" key="23" pos="528" len="12"/>
          <note vol="195" pan="0" key="23" pos="540" len="12"/>
          <note vol="195" pan="0" key="23" pos="552" len="12"/>
          <note vol="195" pan="0" key="23" pos="564" len="12"/>
          <note vol="195" pan="0" key="25" pos="576" len="48"/>
          <note vol="195" pan="0" key="25" pos="624" len="12"/>
          <note vol="195" pan="0" key="25" pos="636" len="12"/>
          <note vol="195" pan="0" key="25" pos="648" len="12"/>
          <note vol="195" pan="0" key="25" pos="660" len="12"/>
          <note vol="195" pan="0" key="25" pos="672" len="12"/>
          <note vol="195" pan="0" key="25" pos="684" len="12"/>
          <note vol="195" pan="0" key="25" pos="696" len="12"/>
          <note vol="195" pan="0" key="25" pos="708" len="12"/>
          <note vol="195" pan="0" key="25" pos="720" len="12"/>
          <note vol="195" pan="0" key="25" pos="732" len="12"/>
          <note vol="195" pan="0" key="25" pos="744" len="12"/>
          <note vol="195" pan="0" key="25" pos="756" len="12"/>
          <note vol="195" pan="0" key="20" pos="768" len="48"/>
          <note vol="195" pan="0" key="20" pos="816" len="12"/>
          <note vol="195" pan="0" key="20" pos="828" len="12"/>
          <note vol="195" pan="0" key="20" pos="840" len="12"/>
          <note vol="195" pan="0" key="20" pos="852" len="12"/>
          <note vol="195" pan="0" key="20" pos="864" len="12"/>
          <note vol="195" pan="0" key="20" pos="876" len="12"/>
          <note vol="195" pan="0" key="20" pos="888" len="12"/>
          <note vol="195" pan="0" key="20" pos="900" len="12"/>
          <note vol="195" pan="0" key="20" pos="912" len="12"/>
          <note vol="195" pan="0" key="20" pos="924" len="12"/>
          <note vol="195" pan="0" key="20" pos="936" len="12"/>
          <note vol="195" pan="0" key="20" pos="948" len="12"/>
          <note vol="195" pan="0" key="22" pos="960" len="48"/>
          <note vol="195" pan="0" key="22" pos="1008" len="12"/>
          <note vol="195" pan="0" key="22" pos="1020" len="12"/>
          <note vol="195" pan="0" key="22" pos="1032" len="12"/>
          <note vol="195" pan="0" key="22" pos="1044" len="12"/>
          <note vol="195" pan="0" key="22" pos="1056" len="12"/>
          <note vol="195" pan="0" key="22" pos="1068" len="12"/>
          <note vol="195" pan="0" key="22" pos="1080" len="12"/>
          <note vol="195" pan="0" key="22" pos="1092" len="12"/>
          <note vol="195" pan="0" key="22" pos="1104" len="12"/>
          <note vol="195" pan="0" key="22" pos="1116" len="12"/>
          <note vol="195" pan="0" key="22" pos="1128" len="12"/>
          <note vol="195" pan="0" key="22" pos="1140" len="12"/>
          <note vol="195" pan="0" key="23" pos="1152" len="48"/>
          <note vol="195" pan="0" key="23" pos="1200" len="12"/>
          <note vol="195" pan="0" key="23" pos="1212" len="12"/>
          <note vol="195" pan="0" key="23" pos="1224" len="12"/>
          <note vol="195" pan="0" key="23" pos="1236" len="12"/>
          <note vol="195" pan="0" key="23" pos="1248" len="12"/>
          <note vol="195" pan="0" key="23" pos="1260" len="12"/>
          <note vol="195" pan="0" key="23" pos="1272" len="12"/>
          <note vol="195" pan="0" key="23" pos="1284" len="12"/>
          <note vol="195" pan="0" key="23" pos="1296" len="12"/>
          <note vol="195" pan="0" key="23" pos="1308" len="12"/>
          <note vol="195" pan="0" key="23" pos="1320" len="12"/>
          <note vol="195" pan="0" key="23" pos="1332" len="12"/>
          <note vol="195" pan="0" key="25" pos="1344" len="48"/>
          <note vol="195" pan="0" key="25" pos="1392" len="12"/>
          <note vol="195" pan="0" key="25" pos="1404" len="12"/>
          <note vol="195" pan="0" key="25" pos="1416" len="12"/>
          <note vol="195" pan="0" key="25" pos="1428" len="12"/>
          <note vol="195" pan="0" key="26" pos="1440" len="48"/>
          <note vol="195" pan="0" key="26" pos="1488" len="12"/>
          <note vol="195" pan="0" key="26" pos="1500" len="12"/>
          <note vol="195" pan="0" key="26" pos="1512" len="12"/>
          <note vol="195" pan="0" key="26" pos="1524" len="12"/>
          <note vol="195" pan="0" key="15" pos="1536" len="48"/>
          <note vol="195" pan="0" key="15" pos="1584" len="12"/>
          <note vol="195" pan="0" key="15" pos="1596" len="12"/>
          <note vol="195" pan="0" key="15" pos="1608" len="12"/>
          <note vol="195" pan="0" key="15" pos="1620" len="12"/>
          <note vol="195" pan="0" key="15" pos="1632" len="12"/>
          <note vol="195" pan="0" key="15" pos="1644" len="12"/>
          <note vol="195" pan="0" key="15" pos="1656" len="12"/>
          <note vol="195" pan="0" key="15" pos="1668" len="12"/>
          <note vol="195" pan="0" key="15" pos="1680" len="12"/>
          <note vol="195" pan="0" key="15" pos="1692" len="12"/>
          <note vol="195" pan="0" key="15" pos="1704" len="12"/>
          <note vol="195" pan="0" key="15" pos="1716" len="12"/>
          <note vol="195" pan="0" key="25" pos="1728" len="48"/>
          <note vol="195" pan="0" key="25" pos="1776" len="12"/>
          <note vol="195" pan="0" key="25" pos="1788" len="12"/>
          <note vol="195" pan="0" key="25" pos="1800" len="12"/>
          <note vol="195" pan="0" key="25" pos="1812" len="12"/>
          <note vol="195" pan="0" key="25" pos="1824" len="12"/>
          <note vol="195" pan="0" key="25" pos="1836" len="12"/>
          <note vol="195" pan="0" key="25" pos="1848" len="12"/>
          <note vol="195" pan="0" key="25" pos="1860" len="12"/>
          <note vol="195" pan="0" key="25" pos="1872" len="12"/>
          <note vol="195" pan="0" key="25" pos="1884" len="12"/>
          <note vol="195" pan="0" key="25" pos="1896" len="12"/>
          <note vol="195" pan="0" key="25" pos="1908" len="12"/>
          <note vol="195" pan="0" key="24" pos="1920" len="48"/>
          <note vol="195" pan="0" key="24" pos="1968" len="12"/>
          <note vol="195" pan="0" key="24" pos="1980" len="12"/>
          <note vol="195" pan="0" key="24" pos="1992" len="12"/>
          <note vol="195" pan="0" key="24" pos="2004" len="12"/>
          <note vol="195" pan="0" key="24" pos="2016" len="12"/>
          <note vol="195" pan="0" key="24" pos="2028" len="12"/>
          <note vol="195" pan="0" key="24" pos="2040" len="12"/>
          <note vol="195" pan="0" key="24" pos="2052" len="12"/>
          <note vol="195" pan="0" key="24" pos="2064" len="12"/>
          <note vol="195" pan="0" key="24" pos="2076" len="12"/>
          <note vol="195" pan="0" key="24" pos="2088" len="12"/>
          <note vol="195" pan="0" key="24" pos="2100" len="12"/>
          <note vol="195" pan="0" key="20" pos="2112" len="48"/>
          <note vol="195" pan="0" key="20" pos="2160" len="12"/>
          <note vol="195" pan="0" key="20" pos="2172" len="12"/>
          <note vol="195" pan="0" key="20" pos="2184" len="12"/>
          <note vol="195" pan="0" key="20" pos="2196" len="12"/>
          <note vol="195" pan="0" key="18" pos="2208" len="48"/>
          <note vol="195" pan="0" key="18" pos="2256" len="12"/>
          <note vol="195" pan="0" key="18" pos="2268" len="12"/>
          <note vol="195" pan="0" key="18" pos="2280" len="12"/>
          <note vol="195" pan="0" key="18" pos="2292" len="12"/>
          <note vol="195" pan="0" key="16" pos="2304" len="48"/>
          <note vol="195" pan="0" key="16" pos="2352" len="12"/>
          <note vol="195" pan="0" key="16" pos="2364" len="12"/>
          <note vol="195" pan="0" key="16" pos="2376" len="12"/>
          <note vol="195" pan="0" key="16" pos="2388" len="12"/>
          <note vol="195" pan="0" key="16" pos="2400" len="48"/>
          <note vol="195" pan="0" key="16" pos="2448" len="12"/>
          <note vol="195" pan="0" key="16" pos="2460" len="12"/>
          <note vol="195" pan="0" key="16" pos="2472" len="12"/>
          <note vol="195" pan="0" key="16" pos="2484" len="12"/>
          <note vol="195" pan="0" key="23" pos="2496" len="48"/>
          <note vol="195" pan="0" key="23" pos="2544" len="12"/>
          <note vol="195" pan="0" key="23" pos="2556" len="12"/>
          <note vol="195" pan="0" key="23" pos="2568" len="12"/>
          <note vol="195" pan="0" key="23" pos="2580" len="12"/>
          <note vol="195" pan="0" key="23" pos="2592" len="12"/>
          <note vol="195" pan="0" key="23" pos="2604" len="12"/>
          <note vol="195" pan="0" key="23" pos="2616" len="12"/>
          <note vol="195" pan="0" key="23" pos="2628" len="12"/>
          <note vol="195" pan="0" key="23" pos="2640" len="12"/>
          <note vol="195" pan="0" key="23" pos="2652" len="12"/>
          <note vol="195" pan="0" key="23" pos="2664" len="12"/>
          <note vol="195" pan="0" key="23" pos="2676" len="12"/>
          <note vol="195" pan="0" key="25" pos="2688" len="48"/>
          <note vol="195" pan="0" key="25" pos="2736" len="12"/>
          <note vol="195" pan="0" key="25" pos="2748" len="12"/>
          <note vol="195" pan="0" key="25" pos="2760" len="12"/>
          <note vol="195" pan="0" key="25" pos="2772" len="12"/>
          <note vol="195" pan="0" key="25" pos="2784" len="12"/>
          <note vol="195" pan="0" key="25" pos="2796" len="12"/>
          <note vol="195" pan="0" key="25" pos="2808" len="12"/>
          <note vol="195" pan="0" key="25" pos="2820" len="12"/>
          <note vol="195" pan="0" key="25" pos="2832" len="12"/>
          <note vol="195" pan="0" key="25" pos="2844" len="12"/>
          <note vol="195" pan="0" key="25" pos="2856" len="12"/>
          <note vol="195" pan="0" key="25" pos="2868" len="12"/>
          <note vol="197" pan="0" key="25" pos="2880" len="96"/>
          <note vol="197" pan="0" key="22" pos="2976" len="96"/>
        </pattern>
        <pattern type="1" name="" steps="16" muted="0" pos="50304">
          <note vol="197" pan="0" key="15" pos="0" len="48"/>
          <note vol="197" pan="0" key="15" pos="48" len="24"/>
          <note vol="197" pan="0" key="15" pos="72" len="24"/>
          <note vol="197" pan="0" key="15" pos="96" len="24"/>
          <note vol="197" pan="0" key="15" pos="120" len="24"/>
          <note vol="197" pan="0" key="15" pos="144" len="24"/>
          <note vol="197" pan="0" key="15" pos="168" len="12"/>
          <note vol="197" pan="0" key="15" pos="180" len="12"/>
          <note vol="197" pan="0" key="15" pos="192" len="24"/>
          <note vol="197" pan="0" key="15" pos="216" len="24"/>
          <note vol="197" pan="0" key="15" pos="240" len="12"/>
          <note vol="197" pan="0" key="15" pos="252" len="12"/>
          <note vol="197" pan="0" key="15" pos="264" len="24"/>
          <note vol="197" pan="0" key="15" pos="288" len="24"/>
          <note vol="197" pan="0" key="15" pos="312" len="24"/>
          <note vol="197" pan="0" key="15" pos="336" len="48"/>
        </pattern>
        <pattern type="1" name="" steps="16" muted="0" pos="50688">
          <note vol="197" pan="0" key="15" pos="0" len="48"/>
          <note vol="197" pan="0" key="15" pos="48" len="24"/>
          <note vol="197" pan="0" key="15" pos="72" len="24"/>
          <note vol="197" pan="0" key="15" pos="96" len="24"/>
          <note vol="197" pan="0" key="15" pos="120" len="24"/>
          <note vol="197" pan="0" key="15" pos="144" len="24"/>
          <note vol="197" pan="0" key="15" pos="168" len="12"/>
          <note vol="197" pan="0" key="15" pos="180" len="12"/>
          <note vol="197" pan="0" key="15" pos="192" len="24"/>
          <note vol="197" pan="0" key="15" pos="216" len="24"/>
          <note vol="197" pan="0" key="15" pos="240" len="12"/>
          <note vol="197" pan="0" key="15" pos="252" len="12"/>
          <note vol="197" pan="0" key="15" pos="264" len="24"/>
          <note vol="197" pan="0" key="15" pos="288" len="24"/>
          <note vol="197" pan="0" key="15" pos="312" len="24"/>
          <note vol="197" pan="0" key="15" pos="336" len="48"/>
        </pattern>
        <pattern type="1" name="" steps="16" muted="0" pos="51072">
          <note vol="197" pan="0" key="15" pos="0" len="48"/>
          <note vol="197" pan="0" key="15" pos="48" len="24"/>
          <note vol="197" pan="0" key="15" pos="72" len="24"/>
          <note vol="197" pan="0" key="15" pos="96" len="24"/>
          <note vol="197" pan="0" key="15" pos="120" len="24"/>
          <note vol="197" pan="0" key="15" pos="144" len="24"/>
          <note vol="197" pan="0" key="15" pos="168" len="12"/>
          <note vol="197" pan="0" key="15" pos="180" len="12"/>
          <note vol="197" pan="0" key="15" pos="192" len="24"/>
          <note vol="197" pan="0" key="15" pos="216" len="24"/>
          <note vol="197" pan="0" key="15" pos="240" len="12"/>
          <note vol="197" pan="0" key="15" pos="252" len="12"/>
          <note vol="197" pan="0" key="15" pos="264" len="24"/>
          <note vol="197" pan="0" key="15" pos="288" len="24"/>
          <note vol="197" pan="0" key="15" pos="312" len="24"/>
          <note vol="197" pan="0" key="15" pos="336" len="48"/>
        </pattern>
        <pattern type="1" name="" steps="16" muted="0" pos="51456">
          <note vol="197" pan="0" key="15" pos="0" len="48"/>
          <note vol="197" pan="0" key="15" pos="48" len="24"/>
          <note vol="197" pan="0" key="15" pos="72" len="24"/>
          <note vol="197" pan="0" key="15" pos="96" len="24"/>
          <note vol="197" pan="0" key="15" pos="120" len="24"/>
          <note vol="197" pan="0" key="15" pos="144" len="24"/>
          <note vol="197" pan="0" key="15" pos="168" len="12"/>
          <note vol="197" pan="0" key="15" pos="180" len="12"/>
          <note vol="197" pan="0" key="15" pos="192" len="24"/>
          <note vol="197" pan="0" key="15" pos="216" len="24"/>
          <note vol="197" pan="0" key="15" pos="240" len="12"/>
          <note vol="197" pan="0" key="15" pos="252" len="12"/>
          <note vol="197" pan="0" key="15" pos="264" len="24"/>
          <note vol="197" pan="0" key="15" pos="288" len="24"/>
          <note vol="197" pan="0" key="15" pos="312" len="24"/>
          <note vol="197" pan="0" key="15" pos="336" len="48"/>
        </pattern>
        <pattern type="1" name="" steps="16" muted="0" pos="51840">
          <note vol="197" pan="0" key="16" pos="0" len="48"/>
          <note vol="197" pan="0" key="16" pos="48" len="24"/>
          <note vol="197" pan="0" key="16" pos="72" len="24"/>
          <note vol="197" pan="0" key="16" pos="96" len="24"/>
          <note vol="197" pan="0" key="16" pos="120" len="24"/>
          <note vol="197" pan="0" key="16" pos="144" len="24"/>
          <note vol="197" pan="0" key="16" pos="168" len="12"/>
          <note vol="197" pan="0" key="16" pos="180" len="12"/>
          <note vol="197" pan="0" key="16" pos="192" len="24"/>
          <note vol="197" pan="0" key="16" pos="216" len="24"/>
          <note vol="197" pan="0" key="16" pos="240" len="12"/>
          <note vol="197" pan="0" key="16" pos="252" len="12"/>
          <note vol="197" pan="0" key="16" pos="264" len="24"/>
          <note vol="197" pan="0" key="16" pos="288" len="24"/>
          <note vol="197" pan="0" key="16" pos="312" len="24"/>
          <note vol="197" pan="0" key="16" pos="336" len="48"/>
        </pattern>
        <pattern type="1" name="" steps="16" muted="0" pos="52224">
          <note vol="197" pan="0" key="15" pos="0" len="48"/>
          <note vol="197" pan="0" key="15" pos="48" len="24"/>
          <note vol="197" pan="0" key="15" pos="72" len="24"/>
          <note vol="197" pan="0" key="15" pos="96" len="24"/>
          <note vol="197" pan="0" key="15" pos="120" len="24"/>
          <note vol="197" pan="0" key="15" pos="144" len="24"/>
          <note vol="197" pan="0" key="15" pos="168" len="12"/>
          <note vol="197" pan="0" key="15" pos="180" len="12"/>
          <note vol="197" pan="0" key="15" pos="192" len="24"/>
          <note vol="197" pan="0" key="15" pos="216" len="24"/>
          <note vol="197" pan="0" key="15" pos="240" len="12"/>
          <note vol="197" pan="0" key="15" pos="252" len="12"/>
          <note vol="197" pan="0" key="15" pos="264" len="24"/>
          <note vol="197" pan="0" key="15" pos="288" len="24"/>
          <note vol="197" pan="0" key="15" pos="312" len="24"/>
          <note vol="197" pan="0" key="15" pos="336" len="48"/>
        </pattern>
        <pattern type="1" name="" steps="16" muted="0" pos="52608">
          <note vol="197" pan="0" key="20" pos="0" len="48"/>
          <note vol="197" pan="0" key="20" pos="48" len="24"/>
          <note vol="197" pan="0" key="20" pos="72" len="24"/>
          <note vol="197" pan="0" key="20" pos="96" len="24"/>
          <note vol="197" pan="0" key="20" pos="120" len="24"/>
          <note vol="197" pan="0" key="20" pos="144" len="24"/>
          <note vol="197" pan="0" key="20" pos="168" len="12"/>
          <note vol="197" pan="0" key="20" pos="180" len="12"/>
          <note vol="197" pan="0" key="20" pos="192" len="24"/>
          <note vol="197" pan="0" key="20" pos="216" len="24"/>
          <note vol="197" pan="0" key="20" pos="240" len="12"/>
          <note vol="197" pan="0" key="20" pos="252" len="12"/>
          <note vol="197" pan="0" key="20" pos="264" len="24"/>
          <note vol="197" pan="0" key="20" pos="288" len="24"/>
          <note vol="197" pan="0" key="20" pos="312" len="24"/>
          <note vol="197" pan="0" key="20" pos="336" len="48"/>
        </pattern>
        <pattern type="1" name="" steps="16" muted="0" pos="53376">
          <note vol="195" pan="0" key="11" pos="0" len="48"/>
          <note vol="195" pan="0" key="11" pos="48" len="12"/>
          <note vol="195" pan="0" key="11" pos="60" len="12"/>
          <note vol="195" pan="0" key="11" pos="72" len="12"/>
          <note vol="195" pan="0" key="11" pos="84" len="12"/>
          <note vol="195" pan="0" key="11" pos="96" len="12"/>
          <note vol="195" pan="0" key="11" pos="108" len="12"/>
          <note vol="195" pan="0" key="11" pos="120" len="12"/>
          <note vol="195" pan="0" key="11" pos="132" len="12"/>
          <note vol="195" pan="0" key="11" pos="144" len="12"/>
          <note vol="195" pan="0" key="11" pos="156" len="12"/>
          <note vol="195" pan="0" key="11" pos="168" len="12"/>
          <note vol="195" pan="0" key="11" pos="180" len="12"/>
          <note vol="195" pan="0" key="13" pos="192" len="48"/>
          <note vol="195" pan="0" key="13" pos="240" len="12"/>
          <note vol="195" pan="0" key="13" pos="252" len="12"/>
          <note vol="195" pan="0" key="13" pos="264" len="12"/>
          <note vol="195" pan="0" key="13" pos="276" len="12"/>
          <note vol="195" pan="0" key="13" pos="288" len="12"/>
          <note vol="195" pan="0" key="13" pos="300" len="12"/>
          <note vol="195" pan="0" key="13" pos="312" len="12"/>
          <note vol="195" pan="0" key="13" pos="324" len="12"/>
          <note vol="195" pan="0" key="13" pos="336" len="12"/>
          <note vol="195" pan="0" key="13" pos="348" len="12"/>
          <note vol="195" pan="0" key="13" pos="360" len="12"/>
          <note vol="195" pan="0" key="13" pos="372" len="12"/>
        </pattern>
        <pattern type="1" name="" steps="16" muted="0" pos="53760">
          <note vol="195" pan="0" key="15" pos="0" len="48"/>
          <note vol="195" pan="0" key="15" pos="48" len="12"/>
          <note vol="195" pan="0" key="15" pos="60" len="12"/>
          <note vol="195" pan="0" key="15" pos="72" len="12"/>
          <note vol="195" pan="0" key="15" pos="84" len="12"/>
          <note vol="195" pan="0" key="15" pos="96" len="12"/>
          <note vol="195" pan="0" key="15" pos="108" len="12"/>
          <note vol="195" pan="0" key="15" pos="120" len="12"/>
          <note vol="195" pan="0" key="15" pos="132" len="12"/>
          <note vol="195" pan="0" key="15" pos="144" len="12"/>
          <note vol="195" pan="0" key="15" pos="156" len="12"/>
          <note vol="195" pan="0" key="15" pos="168" len="12"/>
          <note vol="195" pan="0" key="15" pos="180" len="12"/>
          <note vol="195" pan="0" key="15" pos="192" len="12"/>
          <note vol="195" pan="0" key="15" pos="204" len="12"/>
          <note vol="195" pan="0" key="15" pos="216" len="12"/>
          <note vol="195" pan="0" key="15" pos="228" len="12"/>
          <note vol="195" pan="0" key="15" pos="240" len="12"/>
          <note vol="195" pan="0" key="15" pos="252" len="12"/>
          <note vol="195" pan="0" key="15" pos="264" len="12"/>
          <note vol="195" pan="0" key="15" pos="276" len="12"/>
          <note vol="195" pan="0" key="15" pos="288" len="12"/>
          <note vol="195" pan="0" key="15" pos="300" len="12"/>
          <note vol="195" pan="0" key="15" pos="312" len="12"/>
          <note vol="195" pan="0" key="15" pos="324" len="12"/>
          <note vol="195" pan="0" key="15" pos="336" len="12"/>
          <note vol="195" pan="0" key="15" pos="348" len="12"/>
          <note vol="195" pan="0" key="15" pos="360" len="12"/>
          <note vol="195" pan="0" key="15" pos="372" len="12"/>
        </pattern>
        <pattern type="1" name="" steps="16" muted="0" pos="54144">
          <note vol="195" pan="0" key="13" pos="0" len="48"/>
          <note vol="195" pan="0" key="13" pos="48" len="12"/>
          <note vol="195" pan="0" key="13" pos="60" len="12"/>
          <note vol="195" pan="0" key="13" pos="72" len="12"/>
          <note vol="195" pan="0" key="13" pos="84" len="12"/>
          <note vol="195" pan="0" key="13" pos="96" len="12"/>
          <note vol="195" pan="0" key="13" pos="108" len="12"/>
          <note vol="195" pan="0" key="13" pos="120" len="12"/>
          <note vol="195" pan="0" key="13" pos="132" len="12"/>
          <note vol="195" pan="0" key="13" pos="144" len="12"/>
          <note vol="195" pan="0" key="13" pos="156" len="12"/>
          <note vol="195" pan="0" key="13" pos="168" len="12"/>
          <note vol="195" pan="0" key="13" pos="180" len="12"/>
        </pattern>
        <pattern type="1" name="" steps="16" muted="0" pos="54336">
          <note vol="195" pan="0" key="13" pos="0" len="48"/>
          <note vol="195" pan="0" key="13" pos="48" len="12"/>
          <note vol="195" pan="0" key="13" pos="60" len="12"/>
          <note vol="195" pan="0" key="13" pos="72" len="12"/>
          <note vol="195" pan="0" key="13" pos="84" len="12"/>
          <note vol="195" pan="0" key="13" pos="96" len="12"/>
          <note vol="195" pan="0" key="13" pos="108" len="12"/>
          <note vol="195" pan="0" key="13" pos="120" len="12"/>
          <note vol="195" pan="0" key="13" pos="132" len="12"/>
          <note vol="195" pan="0" key="13" pos="144" len="12"/>
          <note vol="195" pan="0" key="13" pos="156" len="12"/>
          <note vol="195" pan="0" key="13" pos="168" len="12"/>
          <note vol="195" pan="0" key="13" pos="180" len="12"/>
        </pattern>
        <pattern type="1" name="" steps="16" muted="0" pos="54528">
          <note vol="195" pan="0" key="20" pos="0" len="48"/>
          <note vol="195" pan="0" key="20" pos="48" len="12"/>
          <note vol="195" pan="0" key="20" pos="60" len="12"/>
          <note vol="195" pan="0" key="20" pos="72" len="12"/>
          <note vol="195" pan="0" key="20" pos="84" len="12"/>
          <note vol="195" pan="0" key="20" pos="96" len="12"/>
          <note vol="195" pan="0" key="20" pos="108" len="12"/>
          <note vol="195" pan="0" key="20" pos="120" len="12"/>
          <note vol="195" pan="0" key="20" pos="132" len="12"/>
          <note vol="195" pan="0" key="20" pos="144" len="12"/>
          <note vol="195" pan="0" key="20" pos="156" len="12"/>
          <note vol="195" pan="0" key="20" pos="168" len="12"/>
          <note vol="195" pan="0" key="20" pos="180" len="12"/>
          <note vol="195" pan="0" key="20" pos="192" len="12"/>
          <note vol="195" pan="0" key="20" pos="204" len="12"/>
          <note vol="195" pan="0" key="20" pos="216" len="12"/>
          <note vol="195" pan="0" key="20" pos="228" len="12"/>
          <note vol="195" pan="0" key="20" pos="240" len="12"/>
          <note vol="195" pan="0" key="20" pos="252" len="12"/>
          <note vol="195" pan="0" key="20" pos="264" len="12"/>
          <note vol="195" pan="0" key="20" pos="276" len="12"/>
          <note vol="195" pan="0" key="20" pos="288" len="12"/>
          <note vol="195" pan="0" key="20" pos="300" len="12"/>
          <note vol="195" pan="0" key="20" pos="312" len="12"/>
          <note vol="195" pan="0" key="20" pos="324" len="12"/>
          <note vol="195" pan="0" key="20" pos="336" len="12"/>
          <note vol="195" pan="0" key="20" pos="348" len="12"/>
          <note vol="195" pan="0" key="20" pos="360" len="12"/>
          <note vol="195" pan="0" key="20" pos="372" len="12"/>
        </pattern>
        <pattern type="1" name="" steps="16" muted="0" pos="54912">
          <note vol="195" pan="0" key="11" pos="0" len="48"/>
          <note vol="195" pan="0" key="11" pos="48" len="12"/>
          <note vol="195" pan="0" key="11" pos="60" len="12"/>
          <note vol="195" pan="0" key="11" pos="72" len="12"/>
          <note vol="195" pan="0" key="11" pos="84" len="12"/>
          <note vol="195" pan="0" key="11" pos="96" len="12"/>
          <note vol="195" pan="0" key="11" pos="108" len="12"/>
          <note vol="195" pan="0" key="11" pos="120" len="12"/>
          <note vol="195" pan="0" key="11" pos="132" len="12"/>
          <note vol="195" pan="0" key="11" pos="144" len="12"/>
          <note vol="195" pan="0" key="11" pos="156" len="12"/>
          <note vol="195" pan="0" key="11" pos="168" len="12"/>
          <note vol="195" pan="0" key="11" pos="180" len="12"/>
          <note vol="195" pan="0" key="13" pos="192" len="48"/>
          <note vol="195" pan="0" key="13" pos="240" len="12"/>
          <note vol="195" pan="0" key="13" pos="252" len="12"/>
          <note vol="195" pan="0" key="13" pos="264" len="12"/>
          <note vol="195" pan="0" key="13" pos="276" len="12"/>
          <note vol="195" pan="0" key="13" pos="288" len="12"/>
          <note vol="195" pan="0" key="13" pos="300" len="12"/>
          <note vol="195" pan="0" key="13" pos="312" len="12"/>
          <note vol="195" pan="0" key="13" pos="324" len="12"/>
          <note vol="195" pan="0" key="13" pos="336" len="12"/>
          <note vol="195" pan="0" key="13" pos="348" len="12"/>
          <note vol="195" pan="0" key="13" pos="360" len="12"/>
          <note vol="195" pan="0" key="13" pos="372" len="12"/>
        </pattern>
        <pattern type="1" name="" steps="16" muted="0" pos="55296">
          <note vol="195" pan="0" key="15" pos="0" len="48"/>
          <note vol="195" pan="0" key="15" pos="48" len="12"/>
          <note vol="195" pan="0" key="15" pos="60" len="12"/>
          <note vol="195" pan="0" key="15" pos="72" len="12"/>
          <note vol="195" pan="0" key="15" pos="84" len="12"/>
          <note vol="195" pan="0" key="15" pos="96" len="12"/>
          <note vol="195" pan="0" key="15" pos="108" len="12"/>
          <note vol="195" pan="0" key="15" pos="120" len="12"/>
          <note vol="195" pan="0" key="15" pos="132" len="12"/>
          <note vol="195" pan="0" key="15" pos="144" len="12"/>
          <note vol="195" pan="0" key="15" pos="156" len="12"/>
          <note vol="195" pan="0" key="15" pos="168" len="12"/>
          <note vol="195" pan="0" key="15" pos="180" len="12"/>
          <note vol="195" pan="0" key="15" pos="192" len="12"/>
          <note vol="195" pan="0" key="15" pos="204" len="12"/>
          <note vol="195" pan="0" key="15" pos="216" len="12"/>
          <note vol="195" pan="0" key="15" pos="228" len="12"/>
          <note vol="195" pan="0" key="15" pos="240" len="12"/>
          <note vol="195" pan="0" key="15" pos="252" len="12"/>
          <note vol="195" pan="0" key="15" pos="264" len="12"/>
          <note vol="195" pan="0" key="15" pos="276" len="12"/>
          <note vol="195" pan="0" key="15" pos="288" len="12"/>
          <note vol="195" pan="0" key="15" pos="300" len="12"/>
          <note vol="195" pan="0" key="15" pos="312" len="12"/>
          <note vol="195" pan="0" key="15" pos="324" len="12"/>
          <note vol="195" pan="0" key="15" pos="336" len="12"/>
          <note vol="195" pan="0" key="15" pos="348" len="12"/>
          <note vol="195" pan="0" key="15" pos="360" len="12"/>
          <note vol="195" pan="0" key="15" pos="372" len="12"/>
        </pattern>
        <pattern type="1" name="" steps="16" muted="0" pos="55680">
          <note vol="195" pan="0" key="20" pos="0" len="48"/>
          <note vol="195" pan="0" key="20" pos="48" len="12"/>
          <note vol="195" pan="0" key="20" pos="60" len="12"/>
          <note vol="195" pan="0" key="20" pos="72" len="12"/>
          <note vol="195" pan="0" key="20" pos="84" len="12"/>
          <note vol="195" pan="0" key="20" pos="96" len="12"/>
          <note vol="195" pan="0" key="20" pos="108" len="12"/>
          <note vol="195" pan="0" key="20" pos="120" len="12"/>
          <note vol="195" pan="0" key="20" pos="132" len="12"/>
          <note vol="195" pan="0" key="20" pos="144" len="12"/>
          <note vol="195" pan="0" key="20" pos="156" len="12"/>
          <note vol="195" pan="0" key="20" pos="168" len="12"/>
          <note vol="195" pan="0" key="20" pos="180" len="12"/>
          <note vol="195" pan="0" key="20" pos="192" len="12"/>
          <note vol="195" pan="0" key="20" pos="204" len="12"/>
          <note vol="195" pan="0" key="20" pos="216" len="12"/>
          <note vol="195" pan="0" key="20" pos="228" len="12"/>
          <note vol="195" pan="0" key="20" pos="240" len="12"/>
          <note vol="195" pan="0" key="20" pos="252" len="12"/>
          <note vol="195" pan="0" key="20" pos="264" len="12"/>
          <note vol="195" pan="0" key="20" pos="276" len="12"/>
          <note vol="195" pan="0" key="20" pos="288" len="12"/>
          <note vol="195" pan="0" key="20" pos="300" len="12"/>
          <note vol="195" pan="0" key="20" pos="312" len="12"/>
          <note vol="195" pan="0" key="20" pos="324" len="12"/>
          <note vol="195" pan="0" key="20" pos="336" len="12"/>
          <note vol="195" pan="0" key="20" pos="348" len="12"/>
          <note vol="195" pan="0" key="20" pos="360" len="12"/>
          <note vol="195" pan="0" key="20" pos="372" len="12"/>
        </pattern>
        <pattern type="1" name="" steps="16" muted="0" pos="56064">
          <note vol="197" pan="0" key="11" pos="0" len="192"/>
          <note vol="197" pan="0" key="13" pos="192" len="96"/>
          <note vol="197" pan="0" key="13" pos="288" len="96"/>
        </pattern>
        <pattern type="1" name="" steps="16" muted="0" pos="52992">
          <note vol="197" pan="0" key="18" pos="0" len="48"/>
          <note vol="197" pan="0" key="18" pos="48" len="24"/>
          <note vol="197" pan="0" key="18" pos="72" len="24"/>
          <note vol="197" pan="0" key="18" pos="96" len="24"/>
          <note vol="197" pan="0" key="18" pos="120" len="24"/>
          <note vol="197" pan="0" key="18" pos="144" len="24"/>
          <note vol="197" pan="0" key="18" pos="168" len="12"/>
          <note vol="197" pan="0" key="18" pos="180" len="12"/>
          <note vol="197" pan="0" key="18" pos="192" len="24"/>
          <note vol="197" pan="0" key="18" pos="216" len="24"/>
          <note vol="197" pan="0" key="18" pos="240" len="12"/>
          <note vol="197" pan="0" key="18" pos="252" len="12"/>
          <note vol="197" pan="0" key="18" pos="264" len="24"/>
          <note vol="197" pan="0" key="18" pos="288" len="24"/>
          <note vol="197" pan="0" key="18" pos="312" len="24"/>
          <note vol="197" pan="0" key="18" pos="336" len="48"/>
        </pattern>
        <pattern type="1" name="" steps="16" muted="0" pos="56448">
          <note vol="200" pan="0" key="15" pos="0" len="384"/>
          <note vol="200" pan="0" key="13" pos="384" len="384"/>
          <note vol="200" pan="0" key="12" pos="768" len="384"/>
          <note vol="200" pan="0" key="16" pos="1152" len="384"/>
          <note vol="200" pan="0" key="15" pos="1536" len="384"/>
          <note vol="200" pan="0" key="13" pos="1920" len="384"/>
          <note vol="200" pan="0" key="12" pos="2304" len="384"/>
          <note vol="200" pan="0" key="16" pos="2688" len="384"/>
        </pattern>
        <pattern type="1" name="" steps="16" muted="0" pos="59520">
          <note vol="200" pan="0" key="15" pos="0" len="48"/>
          <note vol="200" pan="0" key="15" pos="48" len="12"/>
          <note vol="200" pan="0" key="15" pos="60" len="12"/>
          <note vol="200" pan="0" key="15" pos="72" len="12"/>
          <note vol="200" pan="0" key="15" pos="84" len="12"/>
          <note vol="200" pan="0" key="15" pos="96" len="12"/>
          <note vol="200" pan="0" key="15" pos="108" len="12"/>
          <note vol="200" pan="0" key="15" pos="120" len="12"/>
          <note vol="200" pan="0" key="15" pos="132" len="12"/>
          <note vol="200" pan="0" key="15" pos="144" len="12"/>
          <note vol="200" pan="0" key="15" pos="156" len="12"/>
          <note vol="200" pan="0" key="15" pos="168" len="12"/>
          <note vol="200" pan="0" key="15" pos="180" len="12"/>
          <note vol="200" pan="0" key="15" pos="192" len="12"/>
          <note vol="200" pan="0" key="15" pos="204" len="12"/>
          <note vol="200" pan="0" key="15" pos="216" len="12"/>
          <note vol="200" pan="0" key="15" pos="228" len="12"/>
          <note vol="200" pan="0" key="15" pos="240" len="12"/>
          <note vol="200" pan="0" key="15" pos="252" len="12"/>
          <note vol="200" pan="0" key="15" pos="264" len="12"/>
          <note vol="200" pan="0" key="15" pos="276" len="12"/>
          <note vol="200" pan="0" key="15" pos="288" len="12"/>
          <note vol="200" pan="0" key="15" pos="300" len="12"/>
          <note vol="200" pan="0" key="15" pos="312" len="12"/>
          <note vol="200" pan="0" key="15" pos="324" len="12"/>
          <note vol="200" pan="0" key="15" pos="336" len="12"/>
          <note vol="200" pan="0" key="15" pos="348" len="12"/>
          <note vol="200" pan="0" key="15" pos="360" len="12"/>
          <note vol="200" pan="0" key="15" pos="372" len="12"/>
          <note vol="200" pan="0" key="13" pos="384" len="48"/>
          <note vol="200" pan="0" key="13" pos="432" len="12"/>
          <note vol="200" pan="0" key="13" pos="444" len="12"/>
          <note vol="200" pan="0" key="13" pos="456" len="12"/>
          <note vol="200" pan="0" key="13" pos="468" len="12"/>
          <note vol="200" pan="0" key="13" pos="480" len="12"/>
          <note vol="200" pan="0" key="13" pos="492" len="12"/>
          <note vol="200" pan="0" key="13" pos="504" len="12"/>
          <note vol="200" pan="0" key="13" pos="516" len="12"/>
          <note vol="200" pan="0" key="13" pos="528" len="12"/>
          <note vol="200" pan="0" key="13" pos="540" len="12"/>
          <note vol="200" pan="0" key="13" pos="552" len="12"/>
          <note vol="200" pan="0" key="13" pos="564" len="12"/>
          <note vol="200" pan="0" key="13" pos="576" len="12"/>
          <note vol="200" pan="0" key="13" pos="588" len="12"/>
          <note vol="200" pan="0" key="13" pos="600" len="12"/>
          <note vol="200" pan="0" key="13" pos="612" len="12"/>
          <note vol="200" pan="0" key="13" pos="624" len="12"/>
          <note vol="200" pan="0" key="13" pos="636" len="12"/>
          <note vol="200" pan="0" key="13" pos="648" len="12"/>
          <note vol="200" pan="0" key="13" pos="660" len="12"/>
          <note vol="200" pan="0" key="13" pos="672" len="12"/>
          <note vol="200" pan="0" key="13" pos="684" len="12"/>
          <note vol="200" pan="0" key="13" pos="696" len="12"/>
          <note vol="200" pan="0" key="13" pos="708" len="12"/>
          <note vol="200" pan="0" key="13" pos="720" len="12"/>
          <note vol="200" pan="0" key="13" pos="732" len="12"/>
          <note vol="200" pan="0" key="13" pos="744" len="12"/>
          <note vol="200" pan="0" key="13" pos="756" len="12"/>
          <note vol="200" pan="0" key="12" pos="768" len="48"/>
          <note vol="200" pan="0" key="12" pos="816" len="12"/>
          <note vol="200" pan="0" key="12" pos="828" len="12"/>
          <note vol="200" pan="0" key="12" pos="840" len="12"/>
          <note vol="200" pan="0" key="12" pos="852" len="12"/>
          <note vol="200" pan="0" key="12" pos="864" len="12"/>
          <note vol="200" pan="0" key="12" pos="876" len="12"/>
          <note vol="200" pan="0" key="12" pos="888" len="12"/>
          <note vol="200" pan="0" key="12" pos="900" len="12"/>
          <note vol="200" pan="0" key="12" pos="912" len="12"/>
          <note vol="200" pan="0" key="12" pos="924" len="12"/>
          <note vol="200" pan="0" key="12" pos="936" len="12"/>
          <note vol="200" pan="0" key="12" pos="948" len="12"/>
          <note vol="200" pan="0" key="12" pos="960" len="12"/>
          <note vol="200" pan="0" key="12" pos="972" len="12"/>
          <note vol="200" pan="0" key="12" pos="984" len="12"/>
          <note vol="200" pan="0" key="12" pos="996" len="12"/>
          <note vol="200" pan="0" key="12" pos="1008" len="12"/>
          <note vol="200" pan="0" key="12" pos="1020" len="12"/>
          <note vol="200" pan="0" key="12" pos="1032" len="12"/>
          <note vol="200" pan="0" key="12" pos="1044" len="12"/>
          <note vol="200" pan="0" key="12" pos="1056" len="12"/>
          <note vol="200" pan="0" key="12" pos="1068" len="12"/>
          <note vol="200" pan="0" key="12" pos="1080" len="12"/>
          <note vol="200" pan="0" key="12" pos="1092" len="12"/>
          <note vol="200" pan="0" key="12" pos="1104" len="12"/>
          <note vol="200" pan="0" key="12" pos="1116" len="12"/>
          <note vol="200" pan="0" key="12" pos="1128" len="12"/>
          <note vol="200" pan="0" key="12" pos="1140" len="12"/>
          <note vol="200" pan="0" key="16" pos="1152" len="48"/>
          <note vol="200" pan="0" key="16" pos="1200" len="12"/>
          <note vol="200" pan="0" key="16" pos="1212" len="12"/>
          <note vol="200" pan="0" key="16" pos="1224" len="12"/>
          <note vol="200" pan="0" key="16" pos="1236" len="12"/>
          <note vol="200" pan="0" key="16" pos="1248" len="12"/>
          <note vol="200" pan="0" key="16" pos="1260" len="12"/>
          <note vol="200" pan="0" key="16" pos="1272" len="12"/>
          <note vol="200" pan="0" key="16" pos="1284" len="12"/>
          <note vol="200" pan="0" key="16" pos="1296" len="12"/>
          <note vol="200" pan="0" key="16" pos="1308" len="12"/>
          <note vol="200" pan="0" key="16" pos="1320" len="12"/>
          <note vol="200" pan="0" key="16" pos="1332" len="12"/>
          <note vol="200" pan="0" key="16" pos="1344" len="12"/>
          <note vol="200" pan="0" key="16" pos="1356" len="12"/>
          <note vol="200" pan="0" key="16" pos="1368" len="12"/>
          <note vol="200" pan="0" key="16" pos="1380" len="12"/>
          <note vol="200" pan="0" key="16" pos="1392" len="12"/>
          <note vol="200" pan="0" key="16" pos="1404" len="12"/>
          <note vol="200" pan="0" key="16" pos="1416" len="12"/>
          <note vol="200" pan="0" key="16" pos="1428" len="12"/>
          <note vol="200" pan="0" key="16" pos="1440" len="12"/>
          <note vol="200" pan="0" key="16" pos="1452" len="12"/>
          <note vol="200" pan="0" key="16" pos="1464" len="12"/>
          <note vol="200" pan="0" key="16" pos="1476" len="12"/>
          <note vol="200" pan="0" key="16" pos="1488" len="12"/>
          <note vol="200" pan="0" key="16" pos="1500" len="12"/>
          <note vol="200" pan="0" key="16" pos="1512" len="12"/>
          <note vol="200" pan="0" key="16" pos="1524" len="12"/>
        </pattern>
        <pattern type="1" name="" steps="16" muted="0" pos="61056">
          <note vol="200" pan="0" key="15" pos="0" len="48"/>
          <note vol="200" pan="0" key="15" pos="48" len="12"/>
          <note vol="200" pan="0" key="15" pos="60" len="12"/>
          <note vol="200" pan="0" key="15" pos="72" len="12"/>
          <note vol="200" pan="0" key="15" pos="84" len="12"/>
          <note vol="200" pan="0" key="15" pos="96" len="12"/>
          <note vol="200" pan="0" key="15" pos="108" len="12"/>
          <note vol="200" pan="0" key="15" pos="120" len="12"/>
          <note vol="200" pan="0" key="15" pos="132" len="12"/>
          <note vol="200" pan="0" key="15" pos="144" len="12"/>
          <note vol="200" pan="0" key="15" pos="156" len="12"/>
          <note vol="200" pan="0" key="15" pos="168" len="12"/>
          <note vol="200" pan="0" key="15" pos="180" len="12"/>
          <note vol="200" pan="0" key="15" pos="192" len="12"/>
          <note vol="200" pan="0" key="15" pos="204" len="12"/>
          <note vol="200" pan="0" key="15" pos="216" len="12"/>
          <note vol="200" pan="0" key="15" pos="228" len="12"/>
          <note vol="200" pan="0" key="15" pos="240" len="12"/>
          <note vol="200" pan="0" key="15" pos="252" len="12"/>
          <note vol="200" pan="0" key="15" pos="264" len="12"/>
          <note vol="200" pan="0" key="15" pos="276" len="12"/>
          <note vol="200" pan="0" key="15" pos="288" len="12"/>
          <note vol="200" pan="0" key="15" pos="300" len="12"/>
          <note vol="200" pan="0" key="15" pos="312" len="12"/>
          <note vol="200" pan="0" key="15" pos="324" len="12"/>
          <note vol="200" pan="0" key="15" pos="336" len="12"/>
          <note vol="200" pan="0" key="15" pos="348" len="12"/>
          <note vol="200" pan="0" key="15" pos="360" len="12"/>
          <note vol="200" pan="0" key="15" pos="372" len="12"/>
          <note vol="200" pan="0" key="13" pos="384" len="48"/>
          <note vol="200" pan="0" key="13" pos="432" len="12"/>
          <note vol="200" pan="0" key="13" pos="444" len="12"/>
          <note vol="200" pan="0" key="13" pos="456" len="12"/>
          <note vol="200" pan="0" key="13" pos="468" len="12"/>
          <note vol="200" pan="0" key="13" pos="480" len="12"/>
          <note vol="200" pan="0" key="13" pos="492" len="12"/>
          <note vol="200" pan="0" key="13" pos="504" len="12"/>
          <note vol="200" pan="0" key="13" pos="516" len="12"/>
          <note vol="200" pan="0" key="13" pos="528" len="12"/>
          <note vol="200" pan="0" key="13" pos="540" len="12"/>
          <note vol="200" pan="0" key="13" pos="552" len="12"/>
          <note vol="200" pan="0" key="13" pos="564" len="12"/>
          <note vol="200" pan="0" key="13" pos="576" len="12"/>
          <note vol="200" pan="0" key="13" pos="588" len="12"/>
          <note vol="200" pan="0" key="13" pos="600" len="12"/>
          <note vol="200" pan="0" key="13" pos="612" len="12"/>
          <note vol="200" pan="0" key="13" pos="624" len="12"/>
          <note vol="200" pan="0" key="13" pos="636" len="12"/>
          <note vol="200" pan="0" key="13" pos="648" len="12"/>
          <note vol="200" pan="0" key="13" pos="660" len="12"/>
          <note vol="200" pan="0" key="13" pos="672" len="12"/>
          <note vol="200" pan="0" key="13" pos="684" len="12"/>
          <note vol="200" pan="0" key="13" pos="696" len="12"/>
          <note vol="200" pan="0" key="13" pos="708" len="12"/>
          <note vol="200" pan="0" key="13" pos="720" len="12"/>
          <note vol="200" pan="0" key="13" pos="732" len="12"/>
          <note vol="200" pan="0" key="13" pos="744" len="12"/>
          <note vol="200" pan="0" key="13" pos="756" len="12"/>
          <note vol="200" pan="0" key="12" pos="768" len="48"/>
          <note vol="200" pan="0" key="12" pos="816" len="12"/>
          <note vol="200" pan="0" key="12" pos="828" len="12"/>
          <note vol="200" pan="0" key="12" pos="840" len="12"/>
          <note vol="200" pan="0" key="12" pos="852" len="12"/>
          <note vol="200" pan="0" key="12" pos="864" len="12"/>
          <note vol="200" pan="0" key="12" pos="876" len="12"/>
          <note vol="200" pan="0" key="12" pos="888" len="12"/>
          <note vol="200" pan="0" key="12" pos="900" len="12"/>
          <note vol="200" pan="0" key="12" pos="912" len="12"/>
          <note vol="200" pan="0" key="12" pos="924" len="12"/>
          <note vol="200" pan="0" key="12" pos="936" len="12"/>
          <note vol="200" pan="0" key="12" pos="948" len="12"/>
          <note vol="200" pan="0" key="12" pos="960" len="12"/>
          <note vol="200" pan="0" key="12" pos="972" len="12"/>
          <note vol="200" pan="0" key="12" pos="984" len="12"/>
          <note vol="200" pan="0" key="12" pos="996" len="12"/>
          <note vol="200" pan="0" key="12" pos="1008" len="12"/>
          <note vol="200" pan="0" key="12" pos="1020" len="12"/>
          <note vol="200" pan="0" key="12" pos="1032" len="12"/>
          <note vol="200" pan="0" key="12" pos="1044" len="12"/>
          <note vol="200" pan="0" key="12" pos="1056" len="12"/>
          <note vol="200" pan="0" key="12" pos="1068" len="12"/>
          <note vol="200" pan="0" key="12" pos="1080" len="12"/>
          <note vol="200" pan="0" key="12" pos="1092" len="12"/>
          <note vol="200" pan="0" key="12" pos="1104" len="12"/>
          <note vol="200" pan="0" key="12" pos="1116" len="12"/>
          <note vol="200" pan="0" key="12" pos="1128" len="12"/>
          <note vol="200" pan="0" key="12" pos="1140" len="12"/>
          <note vol="200" pan="0" key="16" pos="1152" len="48"/>
          <note vol="200" pan="0" key="16" pos="1200" len="12"/>
          <note vol="200" pan="0" key="16" pos="1212" len="12"/>
          <note vol="200" pan="0" key="16" pos="1224" len="12"/>
          <note vol="200" pan="0" key="16" pos="1236" len="12"/>
          <note vol="200" pan="0" key="16" pos="1248" len="12"/>
          <note vol="200" pan="0" key="16" pos="1260" len="12"/>
          <note vol="200" pan="0" key="16" pos="1272" len="12"/>
          <note vol="200" pan="0" key="16" pos="1284" len="12"/>
          <note vol="200" pan="0" key="16" pos="1296" len="12"/>
          <note vol="200" pan="0" key="16" pos="1308" len="12"/>
          <note vol="200" pan="0" key="16" pos="1320" len="12"/>
          <note vol="200" pan="0" key="16" pos="1332" len="12"/>
          <note vol="200" pan="0" key="16" pos="1344" len="12"/>
          <note vol="200" pan="0" key="16" pos="1356" len="12"/>
          <note vol="200" pan="0" key="16" pos="1368" len="12"/>
          <note vol="200" pan="0" key="16" pos="1380" len="12"/>
          <note vol="200" pan="0" key="16" pos="1392" len="12"/>
          <note vol="200" pan="0" key="16" pos="1404" len="12"/>
          <note vol="200" pan="0" key="16" pos="1416" len="12"/>
          <note vol="200" pan="0" key="16" pos="1428" len="12"/>
          <note vol="200" pan="0" key="16" pos="1440" len="12"/>
          <note vol="200" pan="0" key="16" pos="1452" len="12"/>
          <note vol="200" pan="0" key="16" pos="1464" len="12"/>
          <note vol="200" pan="0" key="16" pos="1476" len="12"/>
          <note vol="200" pan="0" key="16" pos="1488" len="12"/>
          <note vol="200" pan="0" key="16" pos="1500" len="12"/>
          <note vol="200" pan="0" key="16" pos="1512" len="12"/>
          <note vol="200" pan="0" key="16" pos="1524" len="12"/>
        </pattern>
        <pattern type="1" name="" steps="16" muted="0" pos="62592">
          <note vol="197" pan="0" key="15" pos="0" len="192"/>
          <note vol="197" pan="0" key="22" pos="192" len="192"/>
          <note vol="197" pan="0" key="23" pos="384" len="192"/>
          <note vol="197" pan="0" key="25" pos="576" len="192"/>
          <note vol="197" pan="0" key="20" pos="768" len="12"/>
          <note vol="197" pan="0" key="20" pos="780" len="12"/>
          <note vol="197" pan="0" key="20" pos="792" len="12"/>
          <note vol="197" pan="0" key="20" pos="804" len="12"/>
          <note vol="197" pan="0" key="20" pos="816" len="12"/>
          <note vol="197" pan="0" key="20" pos="828" len="12"/>
          <note vol="197" pan="0" key="20" pos="840" len="12"/>
          <note vol="197" pan="0" key="20" pos="852" len="12"/>
          <note vol="197" pan="0" key="20" pos="864" len="12"/>
          <note vol="197" pan="0" key="20" pos="876" len="12"/>
          <note vol="197" pan="0" key="20" pos="888" len="12"/>
          <note vol="197" pan="0" key="20" pos="900" len="12"/>
          <note vol="197" pan="0" key="20" pos="912" len="12"/>
          <note vol="197" pan="0" key="20" pos="924" len="12"/>
          <note vol="197" pan="0" key="20" pos="936" len="12"/>
          <note vol="197" pan="0" key="20" pos="948" len="12"/>
          <note vol="197" pan="0" key="22" pos="960" len="12"/>
          <note vol="197" pan="0" key="22" pos="972" len="12"/>
          <note vol="197" pan="0" key="22" pos="984" len="12"/>
          <note vol="197" pan="0" key="22" pos="996" len="12"/>
          <note vol="197" pan="0" key="22" pos="1008" len="12"/>
          <note vol="197" pan="0" key="22" pos="1020" len="12"/>
          <note vol="197" pan="0" key="22" pos="1032" len="12"/>
          <note vol="197" pan="0" key="22" pos="1044" len="12"/>
          <note vol="197" pan="0" key="22" pos="1056" len="12"/>
          <note vol="197" pan="0" key="22" pos="1068" len="12"/>
          <note vol="197" pan="0" key="22" pos="1080" len="12"/>
          <note vol="197" pan="0" key="22" pos="1092" len="12"/>
          <note vol="197" pan="0" key="22" pos="1104" len="12"/>
          <note vol="197" pan="0" key="22" pos="1116" len="12"/>
          <note vol="197" pan="0" key="22" pos="1128" len="12"/>
          <note vol="197" pan="0" key="22" pos="1140" len="12"/>
        </pattern>
        <pattern type="1" name="" steps="16" muted="0" pos="63744">
          <note vol="197" pan="0" key="18" pos="0" len="12"/>
          <note vol="197" pan="0" key="15" pos="12" len="12"/>
          <note vol="197" pan="0" key="17" pos="24" len="12"/>
          <note vol="197" pan="0" key="18" pos="36" len="12"/>
          <note vol="197" pan="0" key="20" pos="48" len="12"/>
          <note vol="197" pan="0" key="17" pos="60" len="12"/>
          <note vol="197" pan="0" key="18" pos="72" len="12"/>
          <note vol="197" pan="0" key="20" pos="84" len="12"/>
          <note vol="197" pan="0" key="22" pos="96" len="12"/>
          <note vol="197" pan="0" key="18" pos="108" len="12"/>
          <note vol="197" pan="0" key="20" pos="120" len="12"/>
          <note vol="197" pan="0" key="22" pos="132" len="12"/>
          <note vol="197" pan="0" key="23" pos="144" len="12"/>
          <note vol="197" pan="0" key="20" pos="156" len="12"/>
          <note vol="197" pan="0" key="22" pos="168" len="12"/>
          <note vol="197" pan="0" key="23" pos="180" len="12"/>
          <note vol="197" pan="0" key="25" pos="192" len="12"/>
          <note vol="197" pan="0" key="23" pos="204" len="12"/>
          <note vol="197" pan="0" key="22" pos="216" len="12"/>
          <note vol="197" pan="0" key="20" pos="228" len="12"/>
          <note vol="197" pan="0" key="18" pos="240" len="12"/>
          <note vol="197" pan="0" key="20" pos="252" len="12"/>
          <note vol="197" pan="0" key="23" pos="264" len="12"/>
          <note vol="197" pan="0" key="22" pos="276" len="12"/>
          <note vol="197" pan="0" key="20" pos="288" len="12"/>
          <note vol="197" pan="0" key="18" pos="300" len="12"/>
          <note vol="197" pan="0" key="17" pos="312" len="12"/>
          <note vol="197" pan="0" key="18" pos="324" len="12"/>
          <note vol="197" pan="0" key="22" pos="336" len="12"/>
          <note vol="197" pan="0" key="20" pos="348" len="12"/>
          <note vol="197" pan="0" key="18" pos="360" len="12"/>
          <note vol="197" pan="0" key="17" pos="372" len="12"/>
          <note vol="197" pan="0" key="15" pos="384" len="12"/>
          <note vol="197" pan="0" key="17" pos="396" len="12"/>
          <note vol="200" pan="0" key="20" pos="408" len="12"/>
          <note vol="200" pan="0" key="18" pos="420" len="12"/>
          <note vol="200" pan="0" key="17" pos="432" len="12"/>
          <note vol="200" pan="0" key="15" pos="444" len="12"/>
          <note vol="200" pan="0" key="13" pos="456" len="12"/>
          <note vol="200" pan="0" key="15" pos="468" len="12"/>
          <note vol="200" pan="0" key="18" pos="480" len="12"/>
          <note vol="200" pan="0" key="17" pos="492" len="12"/>
          <note vol="200" pan="0" key="15" pos="504" len="12"/>
          <note vol="200" pan="0" key="13" pos="516" len="12"/>
          <note vol="200" pan="0" key="17" pos="528" len="12"/>
          <note vol="200" pan="0" key="15" pos="540" len="12"/>
          <note vol="200" pan="0" key="13" pos="552" len="12"/>
          <note vol="200" pan="0" key="15" pos="564" len="12"/>
          <note vol="200" pan="0" key="15" pos="576" len="192"/>
        </pattern>
      </track>
      <track type="0" name="stratobodomarcticaneryus" solo="0" muted="0" mutedBeforeSolo="0">
        <instrumenttrack usemasterpitch="1" pitchrange="2" vol="200" basenote="57" pan="9.6" fxch="17">
          <pitch value="0" scale_type="linear" id="6553159"/>
          <instrument name="tripleoscillator">
            <tripleoscillator vol2="0" finer1="0" wavetype0="0" finel0="0" wavetype1="0" coarse1="0" vol1="19" coarse2="-24" pan2="0" userwavefile1="" wavetype2="0" modalgo2="2" stphdetun1="0" coarse0="0" vol0="200" stphdetun0="0" finel2="0" finer2="0" stphdetun2="0" modalgo1="4" phoffset2="0" phoffset1="0" finel1="0" userwavefile0="" modalgo3="2" pan1="0" finer0="0" userwavefile2="" phoffset0="0" pan0="0">
              <key/>
            </tripleoscillator>
          </instrument>
          <eldata fwet="0" fres="0.89" ftype="17" fcut="1456">
            <elvol x100="0" lspd_numerator="4" amt="0" lspd="0.1" lpdel="0" dec="0.5" lspd_syncmode="0" att="0" ctlenvamt="0" pdel="0" latt="0" sustain="0.5" lspd_denominator="4" hold="0.5" lamt="0" userwavefile="" lshp="0" rel="0"/>
            <elcut x100="1" lspd_numerator="4" amt="0" lspd="0.037" lpdel="0" dec="0.5" lspd_syncmode="0" att="0" ctlenvamt="0" pdel="0" latt="0" sustain="0.5" lspd_denominator="4" hold="0.5" lamt="0" userwavefile="" lshp="2" rel="0"/>
            <elres x100="0" lspd_numerator="4" amt="0" lspd="0.152" lpdel="0" dec="0.5" lspd_syncmode="0" att="0" ctlenvamt="0" pdel="0" latt="0" sustain="0.5" lspd_denominator="4" hold="0.5" lamt="0" userwavefile="" lshp="1" rel="0.1"/>
          </eldata>
          <chordcreator chordrange="1" chord="0" chord-enabled="0"/>
          <arpeggiator arprange="1" arptime_syncmode="0" arpskip="0" arpmiss="0" arptime="200" arpdir="0" arpmode="0" arptime_denominator="4" arp-enabled="0" arp="0" arpgate="100" arpcycle="0" arptime_numerator="4"/>
          <midiport inputcontroller="0" outputcontroller="0" outputprogram="1" basevelocity="63" outputchannel="1" writable="0" inputchannel="0" readable="0" fixedinputvelocity="-1" fixedoutputvelocity="-1" fixedoutputnote="-1"/>
          <fxchain numofeffects="7" enabled="1">
            <effect autoquit_syncmode="0" autoquit_denominator="4" gate="0" name="ladspaeffect" wet="1" on="0" autoquit_numerator="4" autoquit="1">
              <ladspacontrols ports="7">
                <port00 data="3.4875"/>
                <port01 data="180"/>
                <port02 data="100"/>
                <port03 data="17"/>
                <port04 data="20000"/>
                <port05 data="0.55"/>
                <port06 data="-0.6875"/>
              </ladspacontrols>
              <key>
                <attribute name="file" value="tap_chorusflanger"/>
                <attribute name="plugin" value="tap_chorusflanger"/>
              </key>
            </effect>
            <effect autoquit_syncmode="0" autoquit_denominator="4" gate="0" name="eq" wet="1" on="1" autoquit_numerator="4" autoquit="1">
              <Eq HighShelfgain="0" Peak1active="0" LowShelfres="1.4" Peak3bw="0.3" Highshelfactive="0" LP48="0" AnalyseIn="1" Peak2gain="0" Lowshelfgain="0" Peak3gain="0" HP48="0" Peak1bw="0.3" HP12="0" HP="1" HPactive="1" Outputgain="0.8" HighShelfres="1.4" Peak4bw="0.3" LP24="0" LPactive="1" HP24="1" AnalyseOut="1" Peak2active="0" Peak3active="0" Lowshelfactive="0" LP12="1" HPres="0.707" Peak4active="0" LPres="0.707" LP="0" Peak2bw="0.3" Peak4gain="0">
                <Inputgain value="0" scale_type="log" id="6442382"/>
                <Peak1gain value="0" scale_type="log" id="988924"/>
                <HPfreq value="260.717" scale_type="log" id="6872021"/>
                <LowShelffreq value="80" scale_type="log" id="7479213"/>
                <Peak1freq value="120" scale_type="log" id="7350563"/>
                <Peak2freq value="250" scale_type="log" id="5255217"/>
                <Peak3freq value="2000" scale_type="log" id="1127550"/>
                <Peak4freq value="4000" scale_type="log" id="1277792"/>
                <Highshelffreq value="12000" scale_type="log" id="6719949"/>
                <LPfreq value="1667.01" scale_type="log" id="1826032"/>
              </Eq>
              <key/>
            </effect>
            <effect autoquit_syncmode="0" autoquit_denominator="4" gate="0" name="waveshaper" wet="1" on="0" autoquit_numerator="4" autoquit="1">
              <waveshapercontrols outputGain="1" clipInput="1" waveShape="AACAPwAAgD8AAIA/AACAPwAAgD8AAIA/AACAPwAAgD8AAIA/AACAPwAAgD8AAIA/AACAPwAAgD8AAIA/AACAPwAAgD8AAIA/AACAPwAAgD8AAIA/AACAPwAAgD8AAIA/AACAPwAAgD8AAIA/AACAPwAAgD8AAIA/AACAPwAAgD8AAIA/AACAPwAAgD8AAIA/AACAPwAAgD8AAIA/AACAPwAAgD8AAIA/AACAPwAAgD8AAIA/AACAPwAAgD8AAIA/AACAPwAAgD8AAIA/AACAPwAAgD8AAIA/AACAPwAAgD8AAIA/AACAPwAAgD8AAIA/AACAPwAAgD8AAIA/AACAPwAAgD8AAIA/AACAPwAAgD8AAIA/AACAPwAAgD8AAIA/AACAPwAAgD8AAIA/AACAPwAAgD8AAIA/AACAPwAAgD8AAIA/AACAPwAAgD8AAIA/AACAPwAAgD8AAIA/AACAPwAAgD8AAIA/AACAPwAAgD8AAIA/AACAPwAAgD8AAIA/AACAPwAAgD8AAIA/AACAPwAAgD8AAIA/AACAPwAAgD8AAIA/AACAPwAAgD8AAIA/AACAPwAAgD8AAIA/AACAPwAAgD8AAIA/AACAPwAAgD8AAIA/AACAPwAAgD8AAIA/AACAPwAAgD8AAIA/AACAPwAAgD8AAIA/AACAPwAAgD8AAIA/AACAPwAAgD8AAIA/AACAPwAAgD8AAIA/AACAPwAAgD8AAIA/AACAPwAAgD8AAIA/AACAPwAAgD8AAIA/AACAPwAAgD8AAIA/AACAPwAAgD8AAIA/AACAPwAAgD8AAIA/AACAPwAAgD8AAIA/AACAPwAAgD8AAIA/AACAPwAAgD8AAIA/AACAPwAAgD8AAIA/AACAPwAAgD8AAIA/AACAPwAAgD8AAIA/AACAPwAAgD8AAIA/AACAPwAAgD8AAIA/AACAPwAAgD8AAIA/AACAPwAAgD8AAIA/AACAPwAAgD8AAIA/AACAPwAAgD8AAIA/AACAPwAAgD8AAIA/AACAPwAAgD8AAIA/AACAPwAAgD8AAIA/AACAPwAAgD8=" inputGain="5"/>
              <key/>
            </effect>
            <effect autoquit_syncmode="0" autoquit_denominator="4" gate="0" name="ladspaeffect" wet="1" on="1" autoquit_numerator="4" autoquit="1">
              <ladspacontrols ports="14" link="1">
                <port01 data="10" link="1"/>
                <port02 data="1" link="1"/>
                <port03 data="20" link="1"/>
                <port04 data="20" link="1"/>
                <port05 data="20" link="1"/>
                <port06 data="20" link="1"/>
                <port07 data="1" link="1"/>
                <port11 data="10"/>
                <port12 data="1"/>
                <port13 data="20"/>
                <port14 data="20"/>
                <port15 data="20"/>
                <port16 data="20"/>
                <port17 data="1"/>
              </ladspacontrols>
              <key>
                <attribute name="file" value="caps"/>
                <attribute name="plugin" value="AmpIV"/>
              </key>
            </effect>
            <effect autoquit_syncmode="0" autoquit_denominator="4" gate="0" name="ladspaeffect" wet="1" on="0" autoquit_numerator="4" autoquit="1">
              <ladspacontrols ports="4" link="1">
                <port01 data="1" link="1"/>
                <port02 data="-11.4" link="1"/>
                <port11 data="1"/>
                <port12 data="-11.4"/>
              </ladspacontrols>
              <key>
                <attribute name="file" value="caps"/>
                <attribute name="plugin" value="CabinetI"/>
              </key>
            </effect>
            <effect autoquit_syncmode="0" autoquit_denominator="4" gate="0" name="ladspaeffect" wet="1" on="1" autoquit_numerator="4" autoquit="1">
              <ladspacontrols ports="4" link="1">
                <port00 link="1">
                  <data value="6549.87" scale_type="log" id="8382794"/>
                </port00>
                <port01 data="9" link="1"/>
                <port10>
                  <data value="6549.87" scale_type="log" id="4111084"/>
                </port10>
                <port11 data="9"/>
              </ladspacontrols>
              <key>
                <attribute name="file" value="lowpass_iir_1891"/>
                <attribute name="plugin" value="lowpass_iir"/>
              </key>
            </effect>
            <effect autoquit_syncmode="0" autoquit_denominator="4" gate="0" name="ladspaeffect" wet="1" on="1" autoquit_numerator="4" autoquit="1">
              <ladspacontrols ports="4">
                <port02 data="0.502"/>
                <port03 data="0.3745"/>
                <port04 data="0.218641"/>
                <port05 data="0.2075"/>
              </ladspacontrols>
              <key>
                <attribute name="file" value="caps"/>
                <attribute name="plugin" value="Plate2x2"/>
              </key>
            </effect>
          </fxchain>
        </instrumenttrack>
        <pattern type="1" name="" steps="16" muted="0" pos="47040">
          <note vol="195" pan="0" key="73" pos="0" len="12"/>
          <note vol="195" pan="0" key="71" pos="12" len="12"/>
          <note vol="195" pan="0" key="70" pos="24" len="12"/>
          <note vol="195" pan="0" key="68" pos="36" len="12"/>
          <note vol="195" pan="0" key="71" pos="48" len="12"/>
          <note vol="195" pan="0" key="70" pos="60" len="12"/>
          <note vol="195" pan="0" key="68" pos="72" len="12"/>
          <note vol="195" pan="0" key="66" pos="84" len="12"/>
          <note vol="195" pan="0" key="70" pos="96" len="12"/>
          <note vol="195" pan="0" key="68" pos="108" len="12"/>
          <note vol="195" pan="0" key="66" pos="120" len="12"/>
          <note vol="195" pan="0" key="65" pos="132" len="12"/>
          <note vol="195" pan="0" key="68" pos="144" len="12"/>
          <note vol="195" pan="0" key="66" pos="156" len="12"/>
          <note vol="195" pan="0" key="65" pos="168" len="12"/>
          <note vol="195" pan="0" key="66" pos="180" len="12"/>
        </pattern>
        <pattern type="1" name="" steps="16" muted="0" pos="47232">
          <note vol="193" pan="0" key="63" pos="0" len="120"/>
          <note vol="193" pan="0" key="58" pos="120" len="24"/>
          <note vol="193" pan="0" key="66" pos="144" len="24"/>
          <note vol="193" pan="0" key="58" pos="168" len="24"/>
          <note vol="193" pan="0" key="65" pos="192" len="120"/>
          <note vol="193" pan="0" key="65" pos="312" len="12"/>
          <note vol="193" pan="0" key="66" pos="324" len="12"/>
          <note vol="193" pan="0" key="70" pos="336" len="12"/>
          <note vol="193" pan="0" key="66" pos="348" len="12"/>
          <note vol="193" pan="0" key="65" pos="360" len="12"/>
          <note vol="193" pan="0" key="66" pos="372" len="12"/>
          <note vol="193" pan="0" key="70" pos="384" len="144"/>
          <note vol="193" pan="0" key="68" pos="528" len="24"/>
          <note vol="193" pan="0" key="66" pos="552" len="24"/>
          <note vol="193" pan="0" key="65" pos="576" len="48"/>
          <note vol="197" pan="0" key="66" pos="624" len="48"/>
          <note vol="193" pan="0" key="61" pos="672" len="12"/>
          <note vol="193" pan="0" key="61" pos="684" len="12"/>
          <note vol="193" pan="0" key="61" pos="696" len="12"/>
          <note vol="193" pan="0" key="61" pos="708" len="12"/>
          <note vol="193" pan="0" key="58" pos="720" len="12"/>
          <note vol="193" pan="0" key="54" pos="732" len="12"/>
          <note vol="193" pan="0" key="56" pos="744" len="12"/>
          <note vol="193" pan="0" key="58" pos="756" len="12"/>
          <note vol="193" pan="0" key="59" pos="768" len="96"/>
          <note vol="193" pan="0" key="63" pos="864" len="48"/>
          <note vol="193" pan="0" key="66" pos="912" len="48"/>
          <note vol="193" pan="0" key="66" pos="960" len="96"/>
          <note vol="193" pan="0" key="65" pos="1056" len="12"/>
          <note vol="193" pan="0" key="58" pos="1068" len="12"/>
          <note vol="193" pan="0" key="58" pos="1080" len="12"/>
          <note vol="193" pan="0" key="58" pos="1092" len="12"/>
          <note vol="193" pan="0" key="66" pos="1104" len="12"/>
          <note vol="193" pan="0" key="63" pos="1116" len="12"/>
          <note vol="193" pan="0" key="65" pos="1128" len="12"/>
          <note vol="193" pan="0" key="66" pos="1140" len="12"/>
          <note vol="193" pan="0" key="73" pos="1152" len="48"/>
          <note vol="193" pan="0" key="71" pos="1200" len="12"/>
          <note vol="193" pan="0" key="73" pos="1212" len="12"/>
          <note vol="193" pan="0" key="71" pos="1224" len="48"/>
          <note vol="193" pan="0" key="70" pos="1272" len="12"/>
          <note vol="193" pan="0" key="71" pos="1284" len="12"/>
          <note vol="193" pan="0" key="70" pos="1296" len="12"/>
          <note vol="193" pan="0" key="68" pos="1308" len="12"/>
          <note vol="193" pan="0" key="66" pos="1320" len="12"/>
          <note vol="193" pan="0" key="70" pos="1332" len="12"/>
          <note vol="193" pan="0" key="68" pos="1344" len="72"/>
          <note vol="193" pan="0" key="66" pos="1416" len="12"/>
          <note vol="193" pan="0" key="68" pos="1428" len="12"/>
          <note vol="193" pan="0" key="70" pos="1440" len="12"/>
          <note vol="193" pan="0" key="71" pos="1452" len="12"/>
          <note vol="193" pan="0" key="70" pos="1464" len="12"/>
          <note vol="193" pan="0" key="68" pos="1476" len="12"/>
          <note vol="193" pan="0" key="70" pos="1488" len="12"/>
          <note vol="193" pan="0" key="68" pos="1500" len="12"/>
          <note vol="193" pan="0" key="66" pos="1512" len="12"/>
          <note vol="193" pan="0" key="65" pos="1524" len="12"/>
          <note vol="193" pan="0" key="66" pos="1536" len="48"/>
          <note vol="193" pan="0" key="58" pos="1584" len="12"/>
          <note vol="193" pan="0" key="58" pos="1596" len="12"/>
          <note vol="193" pan="0" key="65" pos="1608" len="48"/>
          <note vol="193" pan="0" key="58" pos="1656" len="12"/>
          <note vol="193" pan="0" key="58" pos="1668" len="12"/>
          <note vol="193" pan="0" key="66" pos="1680" len="24"/>
          <note vol="193" pan="0" key="58" pos="1704" len="12"/>
          <note vol="193" pan="0" key="58" pos="1716" len="12"/>
          <note vol="193" pan="0" key="70" pos="1728" len="144"/>
          <note vol="193" pan="0" key="65" pos="1872" len="48"/>
          <note vol="193" pan="0" key="63" pos="1920" len="12"/>
          <note vol="193" pan="0" key="65" pos="1932" len="12"/>
          <note vol="193" pan="0" key="63" pos="1944" len="216"/>
          <note vol="193" pan="0" key="66" pos="2160" len="48"/>
          <note vol="193" pan="0" key="68" pos="2208" len="24"/>
          <note vol="193" pan="0" key="66" pos="2232" len="12"/>
          <note vol="193" pan="0" key="68" pos="2244" len="12"/>
          <note vol="193" pan="0" key="70" pos="2256" len="24"/>
          <note vol="193" pan="0" key="68" pos="2280" len="12"/>
          <note vol="193" pan="0" key="70" pos="2292" len="12"/>
          <note vol="193" pan="0" key="71" pos="2304" len="72"/>
          <note vol="193" pan="0" key="70" pos="2376" len="72"/>
          <note vol="193" pan="0" key="68" pos="2448" len="48"/>
          <note vol="193" pan="0" key="66" pos="2496" len="12"/>
          <note vol="193" pan="0" key="65" pos="2508" len="12"/>
          <note vol="193" pan="0" key="63" pos="2520" len="12"/>
          <note vol="193" pan="0" key="58" pos="2532" len="12"/>
          <note vol="193" pan="0" key="63" pos="2544" len="12"/>
          <note vol="193" pan="0" key="61" pos="2556" len="12"/>
          <note vol="193" pan="0" key="59" pos="2568" len="12"/>
          <note vol="193" pan="0" key="58" pos="2580" len="12"/>
          <note vol="193" pan="0" key="66" pos="2592" len="12"/>
          <note vol="193" pan="0" key="65" pos="2604" len="12"/>
          <note vol="193" pan="0" key="63" pos="2616" len="12"/>
          <note vol="193" pan="0" key="58" pos="2628" len="12"/>
          <note vol="193" pan="0" key="75" pos="2640" len="48"/>
          <note vol="193" pan="0" key="73" pos="2688" len="192"/>
        </pattern>
        <pattern type="0" name="" steps="16" muted="0" pos="56256"/>
      </track>
      <track type="5" name="leadsynth pitch" solo="0" muted="0" mutedBeforeSolo="0">
        <automationtrack/>
        <automationpattern mute="0" name="stratobodomneryus>Pitch" prog="1" tens="1" pos="47616" len="192">
          <time value="-200" pos="0"/>
          <time value="-30" pos="24"/>
          <time value="-1" pos="48"/>
          <time value="0" pos="120"/>
          <object id="6553159"/>
        </automationpattern>
        <automationpattern mute="0" name="stratobodomneryus>Pitch" prog="0" tens="1" pos="46848" len="192">
          <time value="0" pos="0"/>
          <object id="6553159"/>
        </automationpattern>
        <automationpattern mute="0" name="stratobodomneryus>Pitch" prog="2" tens="1" pos="48000" len="192">
          <time value="-101" pos="0"/>
          <time value="0" pos="12"/>
          <time value="0" pos="24"/>
          <time value="0" pos="48"/>
          <time value="-1" pos="168"/>
          <time value="-12" pos="180"/>
          <time value="-101" pos="192"/>
          <object id="6553159"/>
        </automationpattern>
        <automationpattern mute="0" name="stratobodomneryus>Pitch" prog="2" tens="1" pos="48192" len="192">
          <time value="-101" pos="0"/>
          <time value="0" pos="24"/>
          <object id="6553159"/>
        </automationpattern>
        <automationpattern mute="0" name="stratobodomneryus>Pitch" prog="2" tens="1" pos="48384" len="192">
          <time value="-101" pos="0"/>
          <time value="0" pos="12"/>
          <object id="6553159"/>
        </automationpattern>
        <automationpattern mute="0" name="stratobodomneryus>Pitch" prog="2" tens="1" pos="48960" len="192">
          <time value="-101" pos="0"/>
          <time value="0" pos="36"/>
          <time value="-3" pos="72"/>
          <time value="0" pos="120"/>
          <time value="1" pos="144"/>
          <object id="6553159"/>
        </automationpattern>
        <automationpattern mute="0" name="stratobodomneryus>Pitch" prog="2" tens="1" pos="49536" len="192">
          <time value="-101" pos="0"/>
          <time value="0" pos="24"/>
          <object id="6553159"/>
        </automationpattern>
        <automationpattern mute="0" name="stratobodomneryus>Pitch" prog="2" tens="1" pos="49728" len="192">
          <time value="-100" pos="144"/>
          <time value="0" pos="156"/>
          <object id="6553159"/>
        </automationpattern>
        <automationpattern mute="0" name="stratobodomneryus>Pitch" prog="2" tens="1" pos="49920" len="192">
          <time value="0" pos="144"/>
          <time value="-200" pos="192"/>
          <object id="6553159"/>
        </automationpattern>
        <automationpattern mute="0" name="stratobodomneryus>Pitch" prog="0" tens="1" pos="5184" len="192">
          <time value="0" pos="0"/>
          <object id="6553159"/>
        </automationpattern>
        <automationpattern mute="0" name="stratobodomneryus>Pitch" prog="0" tens="1" pos="50112" len="192">
          <time value="0" pos="0"/>
          <object id="6553159"/>
        </automationpattern>
        <automationpattern mute="0" name="stratobodomneryus>Pitch" prog="0" tens="1" pos="47808" len="192">
          <time value="0" pos="0"/>
          <object id="6553159"/>
        </automationpattern>
        <automationpattern mute="0" name="stratobodomneryus>Pitch" prog="0" tens="1" pos="59328" len="192">
          <time value="0" pos="0"/>
          <object id="6553159"/>
        </automationpattern>
        <automationpattern mute="0" name="stratobodomneryus>Pitch" prog="1" tens="1" pos="59520" len="384">
          <time value="-198" pos="336"/>
          <time value="0" pos="360"/>
          <object id="6553159"/>
        </automationpattern>
        <automationpattern mute="0" name="stratobodomneryus>Pitch" prog="1" tens="1" pos="60672" len="192">
          <time value="-151" pos="0"/>
          <time value="0" pos="24"/>
          <object id="6553159"/>
        </automationpattern>
        <automationpattern mute="0" name="stratobodomneryus>Pitch" prog="1" tens="1" pos="60864" len="192">
          <time value="-151" pos="0"/>
          <time value="0" pos="24"/>
          <time value="-1" pos="96"/>
          <time value="200" pos="120"/>
          <object id="6553159"/>
        </automationpattern>
        <automationpattern mute="0" name="stratobodomneryus>Pitch" prog="0" tens="1" pos="61056" len="192">
          <time value="0" pos="0"/>
          <object id="6553159"/>
        </automationpattern>
        <automationpattern mute="0" name="stratobodomneryus>Pitch" prog="1" tens="1" pos="61440" len="192">
          <time value="-149" pos="144"/>
          <time value="0" pos="168"/>
          <object id="6553159"/>
        </automationpattern>
        <automationpattern mute="0" name="stratobodomneryus>Pitch" prog="0" tens="1" pos="40704" len="192">
          <time value="0" pos="0"/>
          <object id="6553159"/>
        </automationpattern>
        <automationpattern mute="0" name="stratobodomneryus>Pitch" prog="1" tens="1" pos="42240" len="384">
          <time value="-100" pos="0"/>
          <time value="0" pos="24"/>
          <time value="0" pos="360"/>
          <time value="-200" pos="384"/>
          <object id="6553159"/>
        </automationpattern>
        <automationpattern mute="0" name="stratobodomneryus>Pitch" prog="0" tens="1" pos="42624" len="192">
          <time value="0" pos="0"/>
          <object id="6553159"/>
        </automationpattern>
        <automationpattern mute="0" name="stratobodomneryus>Pitch" prog="0" tens="1" pos="56256" len="192">
          <time value="0" pos="0"/>
          <object id="6553159"/>
        </automationpattern>
      </track>
      <track type="0" name="celloes" solo="0" muted="0" mutedBeforeSolo="0">
        <instrumenttrack usemasterpitch="1" pitchrange="2" pitch="0" vol="52.8" basenote="57" pan="0" fxch="0">
          <instrument name="carlapatchbay">
            <carlapatchbay>
              <CARLA-PROJECT VERSION="2.2">
                <EngineSettings>
                  <ForceStereo>false</ForceStereo>
                  <PreferPluginBridges>false</PreferPluginBridges>
                  <PreferUiBridges>true</PreferUiBridges>
                  <UIsAlwaysOnTop>false</UIsAlwaysOnTop>
                  <MaxParameters>200</MaxParameters>
                  <UIBridgesTimeout>4000</UIBridgesTimeout>
                  <LADSPA_PATH>/home/pass/.ladspa:/usr/lib/ladspa:/usr/local/lib/ladspa</LADSPA_PATH>
                  <DSSI_PATH>/home/pass/.dssi:/usr/lib/dssi:/usr/local/lib/dssi</DSSI_PATH>
                  <LV2_PATH>/home/pass/.lv2:/usr/lib/lv2:/usr/local/lib/lv2</LV2_PATH>
                  <VST2_PATH>/home/pass/.vst:/home/pass/.wine/drive_c/Program Files (x86)/VstPlugins:/home/pass/.wine/drive_c/Program Files/VstPlugins:/home/pass/Music/winvst/VST32:/home/pass/Music/winvst/VST64/Plogue Art et Technologie, Inc:/home/pass/vst:/usr/lib/lxvst:/usr/lib/vst:/usr/local/lib/lxvst:/usr/local/lib/vst/home/pass/.lxvst</VST2_PATH>
                  <VST3_PATH>/home/pass/.vst3:/home/pass/.wine/drive_c/Program Files (x86)/Common Files/VST3:/home/pass/.wine/drive_c/Program Files/Common Files/VST3:/usr/lib/vst3:/usr/local/lib/vst3</VST3_PATH>
                  <SF2_PATH>/home/pass/.sounds/sf2/home/pass/.sounds/sf3:/home/pass/samples/soundfonts:/usr/share/soundfonts:/usr/share/sounds/sf2:/usr/share/sounds/sf3</SF2_PATH>
                  <SFZ_PATH>/home/pass/.sounds/sfz:/home/pass/samples:/usr/share/sounds/sfz</SFZ_PATH>
                </EngineSettings>
                <!-- sfizz -->
                <Plugin>
                  <Info>
                    <Type>LV2</Type>
                    <Name>sfizz</Name>
                    <URI>http://sfztools.github.io/sfizz</URI>
                  </Info>
                  <Data>
                    <Active>Yes</Active>
                    <ControlChannel>1</ControlChannel>
                    <Options>0x3f0</Options>
                    <Parameter>
                      <Index>0</Index>
                      <Name>Volume</Name>
                      <Symbol>volume</Symbol>
                      <Value>0</Value>
                    </Parameter>
                    <Parameter>
                      <Index>1</Index>
                      <Name>Polyphony</Name>
                      <Symbol>num_voices</Symbol>
                      <Value>64</Value>
                    </Parameter>
                    <Parameter>
                      <Index>2</Index>
                      <Name>Internal oversampling factor</Name>
                      <Symbol>oversampling</Symbol>
                      <Value>1</Value>
                    </Parameter>
                    <Parameter>
                      <Index>3</Index>
                      <Name>Preload size</Name>
                      <Symbol>preload_size</Symbol>
                      <Value>8192</Value>
                    </Parameter>
                    <Parameter>
                      <Index>5</Index>
                      <Name>Scala root key</Name>
                      <Symbol>scala_root_key</Symbol>
                      <Value>60</Value>
                    </Parameter>
                    <Parameter>
                      <Index>6</Index>
                      <Name>Tuning frequency</Name>
                      <Symbol>tuning_frequency</Symbol>
                      <Value>440</Value>
                    </Parameter>
                    <Parameter>
                      <Index>7</Index>
                      <Name>Stretched tuning</Name>
                      <Symbol>stretched_tuning</Symbol>
                      <Value>0</Value>
                    </Parameter>
                    <CustomData>
                      <Type>http://lv2plug.in/ns/ext/atom#Path</Type>
                      <Key>http://sfztools.github.io/sfizz:sfzfile</Key>
                      <Value>Strings - Celli Sustain.sfz</Value>
                    </CustomData>
                    <CustomData>
                      <Type>http://lv2plug.in/ns/ext/atom#Path</Type>
                      <Key>http://sfztools.github.io/sfizz:tuningfile</Key>
                      <Value>DefaultScale.scl</Value>
                    </CustomData>
                    <CustomData>
                      <Type>http://lv2plug.in/ns/ext/atom#Int</Type>
                      <Key>http://sfztools.github.io/sfizz:numvoices</Key>
                      <Value>QAAAAA==</Value>
                    </CustomData>
                    <CustomData>
                      <Type>http://lv2plug.in/ns/ext/atom#Int</Type>
                      <Key>http://sfztools.github.io/sfizz:preload_size</Key>
                      <Value>ACAAAA==</Value>
                    </CustomData>
                    <CustomData>
                      <Type>http://lv2plug.in/ns/ext/atom#Int</Type>
                      <Key>http://sfztools.github.io/sfizz:oversampling</Key>
                      <Value>AQAAAA==</Value>
                    </CustomData>
                  </Data>
                </Plugin>
                <Patchbay>
                  <Connection>
                    <Source>sfizz:Left Output</Source>
                    <Target>Audio Output:Left</Target>
                  </Connection>
                  <Connection>
                    <Source>sfizz:Right Output</Source>
                    <Target>Audio Output:Right</Target>
                  </Connection>
                  <Connection>
                    <Source>Midi Input:Capture 1</Source>
                    <Target>sfizz:events-in</Target>
                  </Connection>
                  <Positions>
                    <Position y1="1317" x1="1729" pluginId="0">
                      <Name>sfizz</Name>
                    </Position>
                  </Positions>
                </Patchbay>
              </CARLA-PROJECT>
              <key/>
            </carlapatchbay>
          </instrument>
          <eldata fwet="0" fres="0.5" ftype="0" fcut="14000">
            <elvol x100="0" lspd_numerator="4" amt="0" lspd="0.1" lpdel="0" dec="0.5" lspd_syncmode="0" att="0" ctlenvamt="0" pdel="0" latt="0" sustain="0.5" lspd_denominator="4" hold="0.5" lamt="0" userwavefile="" lshp="0" rel="0.1"/>
            <elcut x100="0" lspd_numerator="4" amt="0" lspd="0.1" lpdel="0" dec="0.5" lspd_syncmode="0" att="0" ctlenvamt="0" pdel="0" latt="0" sustain="0.5" lspd_denominator="4" hold="0.5" lamt="0" userwavefile="" lshp="0" rel="0.1"/>
            <elres x100="0" lspd_numerator="4" amt="0" lspd="0.1" lpdel="0" dec="0.5" lspd_syncmode="0" att="0" ctlenvamt="0" pdel="0" latt="0" sustain="0.5" lspd_denominator="4" hold="0.5" lamt="0" userwavefile="" lshp="0" rel="0.1"/>
          </eldata>
          <chordcreator chordrange="2" chord="0" chord-enabled="1"/>
          <arpeggiator arprange="1" arptime_syncmode="0" arpskip="0" arpmiss="0" arptime="200" arpdir="0" arpmode="0" arptime_denominator="4" arp-enabled="0" arp="0" arpgate="100" arpcycle="0" arptime_numerator="4"/>
          <midiport inputcontroller="0" outputcontroller="0" outputprogram="1" basevelocity="63" outputchannel="1" writable="0" inputchannel="0" readable="0" fixedinputvelocity="-1" fixedoutputvelocity="-1" fixedoutputnote="-1"/>
          <fxchain numofeffects="0" enabled="0"/>
        </instrumenttrack>
        <pattern type="1" name="" steps="16" muted="0" pos="50304">
          <note vol="200" pan="0" key="63" pos="0" len="192"/>
          <note vol="200" pan="0" key="61" pos="192" len="192"/>
          <note vol="200" pan="0" key="58" pos="384" len="288"/>
          <note vol="200" pan="0" key="51" pos="672" len="96"/>
          <note vol="200" pan="0" key="63" pos="768" len="192"/>
          <note vol="200" pan="0" key="61" pos="960" len="192"/>
          <note vol="200" pan="0" key="58" pos="1152" len="192"/>
          <note vol="200" pan="0" key="54" pos="1344" len="192"/>
          <note vol="200" pan="0" key="58" pos="1536" len="192"/>
          <note vol="200" pan="0" key="59" pos="1728" len="96"/>
          <note vol="200" pan="0" key="63" pos="1824" len="96"/>
          <note vol="200" pan="0" key="61" pos="1920" len="192"/>
          <note vol="200" pan="0" key="66" pos="2112" len="192"/>
          <note vol="200" pan="0" key="63" pos="2304" len="384"/>
          <note vol="200" pan="0" key="58" pos="2688" len="96"/>
          <note vol="200" pan="0" key="61" pos="2784" len="96"/>
          <note vol="200" pan="0" key="56" pos="2880" len="96"/>
          <note vol="200" pan="0" key="58" pos="2976" len="96"/>
        </pattern>
        <pattern type="1" name="" steps="16" muted="0" pos="53376">
          <note vol="197" pan="0" key="63" pos="0" len="192"/>
          <note vol="197" pan="0" key="61" pos="192" len="192"/>
          <note vol="197" pan="0" key="58" pos="384" len="288"/>
          <note vol="197" pan="0" key="58" pos="672" len="96"/>
          <note vol="197" pan="0" key="70" pos="768" len="192"/>
          <note vol="197" pan="0" key="68" pos="960" len="192"/>
          <note vol="197" pan="0" key="63" pos="1152" len="384"/>
          <note vol="197" pan="0" key="63" pos="1536" len="192"/>
          <note vol="197" pan="0" key="65" pos="1728" len="192"/>
          <note vol="197" pan="0" key="66" pos="1920" len="192"/>
          <note vol="197" pan="0" key="70" pos="2112" len="96"/>
          <note vol="197" pan="0" key="68" pos="2208" len="96"/>
          <note vol="197" pan="0" key="68" pos="2304" len="192"/>
          <note vol="197" pan="0" key="63" pos="2496" len="144"/>
          <note vol="197" pan="0" key="63" pos="2640" len="24"/>
          <note vol="197" pan="0" key="65" pos="2664" len="24"/>
          <note vol="197" pan="0" key="66" pos="2688" len="192"/>
          <note vol="197" pan="0" key="68" pos="2880" len="96"/>
          <note vol="197" pan="0" key="73" pos="2976" len="96"/>
          <note vol="197" pan="0" key="75" pos="3072" len="384"/>
        </pattern>
      </track>
      <track type="0" name="Harp" solo="0" muted="0" mutedBeforeSolo="0">
        <instrumenttrack usemasterpitch="1" pitchrange="1" pitch="0" vol="100" basenote="57" pan="0" fxch="0">
          <instrument name="carlapatchbay">
            <carlapatchbay>
              <CARLA-PROJECT VERSION="2.2">
                <EngineSettings>
                  <ForceStereo>false</ForceStereo>
                  <PreferPluginBridges>false</PreferPluginBridges>
                  <PreferUiBridges>true</PreferUiBridges>
                  <UIsAlwaysOnTop>false</UIsAlwaysOnTop>
                  <MaxParameters>200</MaxParameters>
                  <UIBridgesTimeout>4000</UIBridgesTimeout>
                  <LADSPA_PATH>/home/pass/.ladspa:/usr/lib/ladspa:/usr/local/lib/ladspa</LADSPA_PATH>
                  <DSSI_PATH>/home/pass/.dssi:/usr/lib/dssi:/usr/local/lib/dssi</DSSI_PATH>
                  <LV2_PATH>/home/pass/.lv2:/usr/lib/lv2:/usr/local/lib/lv2</LV2_PATH>
                  <VST2_PATH>/home/pass/.vst:/home/pass/.wine/drive_c/Program Files (x86)/VstPlugins:/home/pass/.wine/drive_c/Program Files/VstPlugins:/home/pass/Music/winvst/VST32:/home/pass/Music/winvst/VST64/Plogue Art et Technologie, Inc:/home/pass/vst:/usr/lib/lxvst:/usr/lib/vst:/usr/local/lib/lxvst:/usr/local/lib/vst/home/pass/.lxvst</VST2_PATH>
                  <VST3_PATH>/home/pass/.vst3:/home/pass/.wine/drive_c/Program Files (x86)/Common Files/VST3:/home/pass/.wine/drive_c/Program Files/Common Files/VST3:/usr/lib/vst3:/usr/local/lib/vst3</VST3_PATH>
                  <SF2_PATH>/home/pass/.sounds/sf2/home/pass/.sounds/sf3:/home/pass/samples/soundfonts:/usr/share/soundfonts:/usr/share/sounds/sf2:/usr/share/sounds/sf3</SF2_PATH>
                  <SFZ_PATH>/home/pass/.sounds/sfz:/home/pass/samples:/usr/share/sounds/sfz</SFZ_PATH>
                </EngineSettings>
                <!-- liquidsfz -->
                <Plugin>
                  <Info>
                    <Type>LV2</Type>
                    <Name>liquidsfz</Name>
                    <URI>http://spectmorph.org/plugins/liquidsfz</URI>
                  </Info>
                  <Data>
                    <Active>Yes</Active>
                    <ControlChannel>1</ControlChannel>
                    <Options>0x3f0</Options>
                    <Parameter>
                      <Index>0</Index>
                      <Name>Output Level</Name>
                      <Symbol>level</Symbol>
                      <Value>0</Value>
                    </Parameter>
                    <CustomData>
                      <Type>http://lv2plug.in/ns/ext/atom#Path</Type>
                      <Key>http://spectmorph.org/plugins/liquidsfz#sfzfile</Key>
                      <Value>Harp.sfz</Value>
                    </CustomData>
                  </Data>
                </Plugin>
                <Patchbay>
                  <Connection>
                    <Source>Midi Input:Capture 1</Source>
                    <Target>liquidsfz:events-in</Target>
                  </Connection>
                  <Connection>
                    <Source>liquidsfz:Left Output</Source>
                    <Target>Audio Output:Left</Target>
                  </Connection>
                  <Connection>
                    <Source>liquidsfz:Right Output</Source>
                    <Target>Audio Output:Right</Target>
                  </Connection>
                  <Positions>
                    <Position y1="1317" x1="1670" pluginId="0">
                      <Name>liquidsfz</Name>
                    </Position>
                  </Positions>
                </Patchbay>
              </CARLA-PROJECT>
              <key/>
            </carlapatchbay>
          </instrument>
          <eldata fwet="0" fres="0.5" ftype="0" fcut="14000">
            <elvol x100="0" lspd_numerator="4" amt="0" lspd="0.1" lpdel="0" dec="0.5" lspd_syncmode="0" att="0" ctlenvamt="0" pdel="0" latt="0" sustain="0.5" lspd_denominator="4" hold="0.5" lamt="0" userwavefile="" lshp="0" rel="0.1"/>
            <elcut x100="0" lspd_numerator="4" amt="0" lspd="0.1" lpdel="0" dec="0.5" lspd_syncmode="0" att="0" ctlenvamt="0" pdel="0" latt="0" sustain="0.5" lspd_denominator="4" hold="0.5" lamt="0" userwavefile="" lshp="0" rel="0.1"/>
            <elres x100="0" lspd_numerator="4" amt="0" lspd="0.1" lpdel="0" dec="0.5" lspd_syncmode="0" att="0" ctlenvamt="0" pdel="0" latt="0" sustain="0.5" lspd_denominator="4" hold="0.5" lamt="0" userwavefile="" lshp="0" rel="0.1"/>
          </eldata>
          <chordcreator chordrange="1" chord="0" chord-enabled="0"/>
          <arpeggiator arprange="1" arptime_syncmode="0" arpskip="0" arpmiss="0" arptime="200" arpdir="0" arpmode="0" arptime_denominator="4" arp-enabled="0" arp="0" arpgate="100" arpcycle="0" arptime_numerator="4"/>
          <midiport inputcontroller="0" outputcontroller="0" outputprogram="1" basevelocity="63" outputchannel="1" writable="0" inputchannel="0" readable="0" fixedinputvelocity="-1" fixedoutputvelocity="-1" fixedoutputnote="-1"/>
          <fxchain numofeffects="0" enabled="0"/>
        </instrumenttrack>
        <pattern type="1" name="" steps="16" muted="0" pos="42624">
          <note vol="200" pan="0" key="73" pos="0" len="144"/>
          <note vol="200" pan="0" key="61" pos="0" len="48"/>
          <note vol="200" pan="0" key="64" pos="48" len="48"/>
          <note vol="200" pan="0" key="68" pos="96" len="48"/>
          <note vol="200" pan="0" key="76" pos="144" len="48"/>
          <note vol="200" pan="0" key="73" pos="144" len="48"/>
          <note vol="200" pan="0" key="75" pos="192" len="144"/>
          <note vol="200" pan="0" key="71" pos="192" len="48"/>
          <note vol="200" pan="0" key="66" pos="240" len="48"/>
          <note vol="200" pan="0" key="71" pos="288" len="48"/>
          <note vol="200" pan="0" key="80" pos="336" len="48"/>
          <note vol="200" pan="0" key="75" pos="336" len="48"/>
          <note vol="200" pan="0" key="80" pos="384" len="144"/>
          <note vol="200" pan="0" key="76" pos="384" len="48"/>
          <note vol="200" pan="0" key="69" pos="432" len="48"/>
          <note vol="200" pan="0" key="73" pos="480" len="48"/>
          <note vol="200" pan="0" key="78" pos="528" len="24"/>
          <note vol="200" pan="0" key="64" pos="528" len="48"/>
          <note vol="200" pan="0" key="76" pos="552" len="24"/>
          <note vol="200" pan="0" key="75" pos="576" len="48"/>
          <note vol="200" pan="0" key="66" pos="576" len="48"/>
          <note vol="200" pan="0" key="76" pos="624" len="48"/>
          <note vol="200" pan="0" key="63" pos="624" len="48"/>
          <note vol="200" pan="0" key="71" pos="672" len="48"/>
          <note vol="200" pan="0" key="66" pos="672" len="48"/>
          <note vol="200" pan="0" key="68" pos="720" len="48"/>
          <note vol="200" pan="0" key="59" pos="720" len="48"/>
          <note vol="200" pan="0" key="69" pos="768" len="96"/>
          <note vol="200" pan="0" key="61" pos="768" len="48"/>
          <note vol="200" pan="0" key="66" pos="816" len="48"/>
          <note vol="200" pan="0" key="73" pos="864" len="48"/>
          <note vol="200" pan="0" key="69" pos="864" len="48"/>
          <note vol="200" pan="0" key="76" pos="912" len="48"/>
          <note vol="200" pan="0" key="66" pos="912" len="48"/>
          <note vol="200" pan="0" key="76" pos="960" len="96"/>
          <note vol="200" pan="0" key="68" pos="960" len="48"/>
          <note vol="200" pan="0" key="71" pos="1008" len="48"/>
          <note vol="200" pan="0" key="75" pos="1056" len="48"/>
          <note vol="200" pan="0" key="68" pos="1056" len="48"/>
          <note vol="200" pan="0" key="76" pos="1104" len="48"/>
          <note vol="200" pan="0" key="63" pos="1104" len="48"/>
          <note vol="200" pan="0" key="83" pos="1152" len="72"/>
          <note vol="200" pan="0" key="69" pos="1152" len="48"/>
        </pattern>
      </track>
      <track type="0" name="backing sban" solo="0" muted="1" mutedBeforeSolo="0">
        <instrumenttrack usemasterpitch="1" pitchrange="2" pitch="0" vol="200" basenote="57" pan="0" fxch="23">
          <instrument name="tripleoscillator">
            <tripleoscillator vol2="0" finer1="0" wavetype0="0" finel0="0" wavetype1="0" coarse1="0" vol1="19" coarse2="-24" pan2="0" userwavefile1="" wavetype2="0" modalgo2="2" stphdetun1="0" coarse0="0" vol0="200" stphdetun0="0" finel2="0" finer2="0" stphdetun2="0" modalgo1="4" phoffset2="0" phoffset1="0" finel1="0" userwavefile0="" modalgo3="2" pan1="0" finer0="0" userwavefile2="" phoffset0="0" pan0="0">
              <key/>
            </tripleoscillator>
          </instrument>
          <eldata fwet="0" fres="0.89" ftype="17" fcut="1456">
            <elvol x100="0" lspd_numerator="4" amt="0" lspd="0.1" lpdel="0" dec="0.5" lspd_syncmode="0" att="0" ctlenvamt="0" pdel="0" latt="0" sustain="0.5" lspd_denominator="4" hold="0.5" lamt="0" userwavefile="" lshp="0" rel="0"/>
            <elcut x100="1" lspd_numerator="4" amt="0" lspd="0.037" lpdel="0" dec="0.5" lspd_syncmode="0" att="0" ctlenvamt="0" pdel="0" latt="0" sustain="0.5" lspd_denominator="4" hold="0.5" lamt="0" userwavefile="" lshp="2" rel="0"/>
            <elres x100="0" lspd_numerator="4" amt="0" lspd="0.152" lpdel="0" dec="0.5" lspd_syncmode="0" att="0" ctlenvamt="0" pdel="0" latt="0" sustain="0.5" lspd_denominator="4" hold="0.5" lamt="0" userwavefile="" lshp="1" rel="0.1"/>
          </eldata>
          <chordcreator chordrange="1" chord="0" chord-enabled="0"/>
          <arpeggiator arprange="1" arptime_syncmode="0" arpskip="0" arpmiss="0" arptime="200" arpdir="0" arpmode="0" arptime_denominator="4" arp-enabled="0" arp="0" arpgate="100" arpcycle="0" arptime_numerator="4"/>
          <midiport inputcontroller="0" outputcontroller="0" outputprogram="1" basevelocity="63" outputchannel="1" writable="0" inputchannel="0" readable="0" fixedinputvelocity="-1" fixedoutputvelocity="-1" fixedoutputnote="-1"/>
          <fxchain numofeffects="7" enabled="1">
            <effect autoquit_syncmode="0" autoquit_denominator="4" gate="0" name="ladspaeffect" wet="1" on="0" autoquit_numerator="4" autoquit="1">
              <ladspacontrols ports="7">
                <port00 data="3.4875"/>
                <port01 data="180"/>
                <port02 data="100"/>
                <port03 data="17"/>
                <port04 data="20000"/>
                <port05 data="0.55"/>
                <port06 data="-0.6875"/>
              </ladspacontrols>
              <key>
                <attribute name="file" value="tap_chorusflanger"/>
                <attribute name="plugin" value="tap_chorusflanger"/>
              </key>
            </effect>
            <effect autoquit_syncmode="0" autoquit_denominator="4" gate="0" name="eq" wet="1" on="1" autoquit_numerator="4" autoquit="1">
              <Eq HighShelfgain="0" Peak1active="0" LowShelfres="1.4" Peak3bw="0.3" Highshelfactive="0" LP48="0" AnalyseIn="1" Peak2gain="0" Lowshelfgain="0" Peak3gain="0" HP48="0" Peak1bw="0.3" HP12="0" HP="1" HPactive="1" Outputgain="0.8" HighShelfres="1.4" Peak4bw="0.3" LP24="0" LPactive="1" HP24="1" AnalyseOut="1" Peak2active="0" Peak3active="0" Lowshelfactive="0" LP12="1" HPres="0.707" Peak4active="0" LPres="0.707" LP="0" Peak2bw="0.3" Peak4gain="0">
                <Inputgain value="0" scale_type="log" id="5437876"/>
                <Peak1gain value="0" scale_type="log" id="1119964"/>
                <HPfreq value="260.717" scale_type="log" id="2728972"/>
                <LowShelffreq value="80" scale_type="log" id="5226846"/>
                <Peak1freq value="120" scale_type="log" id="2959358"/>
                <Peak2freq value="250" scale_type="log" id="5490259"/>
                <Peak3freq value="2000" scale_type="log" id="4102072"/>
                <Peak4freq value="4000" scale_type="log" id="5776592"/>
                <Highshelffreq value="12000" scale_type="log" id="6721283"/>
                <LPfreq value="1667.01" scale_type="log" id="8252873"/>
              </Eq>
              <key/>
            </effect>
            <effect autoquit_syncmode="0" autoquit_denominator="4" gate="0" name="waveshaper" wet="1" on="0" autoquit_numerator="4" autoquit="1">
              <waveshapercontrols outputGain="1" clipInput="1" waveShape="AACAPwAAgD8AAIA/AACAPwAAgD8AAIA/AACAPwAAgD8AAIA/AACAPwAAgD8AAIA/AACAPwAAgD8AAIA/AACAPwAAgD8AAIA/AACAPwAAgD8AAIA/AACAPwAAgD8AAIA/AACAPwAAgD8AAIA/AACAPwAAgD8AAIA/AACAPwAAgD8AAIA/AACAPwAAgD8AAIA/AACAPwAAgD8AAIA/AACAPwAAgD8AAIA/AACAPwAAgD8AAIA/AACAPwAAgD8AAIA/AACAPwAAgD8AAIA/AACAPwAAgD8AAIA/AACAPwAAgD8AAIA/AACAPwAAgD8AAIA/AACAPwAAgD8AAIA/AACAPwAAgD8AAIA/AACAPwAAgD8AAIA/AACAPwAAgD8AAIA/AACAPwAAgD8AAIA/AACAPwAAgD8AAIA/AACAPwAAgD8AAIA/AACAPwAAgD8AAIA/AACAPwAAgD8AAIA/AACAPwAAgD8AAIA/AACAPwAAgD8AAIA/AACAPwAAgD8AAIA/AACAPwAAgD8AAIA/AACAPwAAgD8AAIA/AACAPwAAgD8AAIA/AACAPwAAgD8AAIA/AACAPwAAgD8AAIA/AACAPwAAgD8AAIA/AACAPwAAgD8AAIA/AACAPwAAgD8AAIA/AACAPwAAgD8AAIA/AACAPwAAgD8AAIA/AACAPwAAgD8AAIA/AACAPwAAgD8AAIA/AACAPwAAgD8AAIA/AACAPwAAgD8AAIA/AACAPwAAgD8AAIA/AACAPwAAgD8AAIA/AACAPwAAgD8AAIA/AACAPwAAgD8AAIA/AACAPwAAgD8AAIA/AACAPwAAgD8AAIA/AACAPwAAgD8AAIA/AACAPwAAgD8AAIA/AACAPwAAgD8AAIA/AACAPwAAgD8AAIA/AACAPwAAgD8AAIA/AACAPwAAgD8AAIA/AACAPwAAgD8AAIA/AACAPwAAgD8AAIA/AACAPwAAgD8AAIA/AACAPwAAgD8AAIA/AACAPwAAgD8AAIA/AACAPwAAgD8AAIA/AACAPwAAgD8AAIA/AACAPwAAgD8AAIA/AACAPwAAgD8=" inputGain="5"/>
              <key/>
            </effect>
            <effect autoquit_syncmode="0" autoquit_denominator="4" gate="0" name="ladspaeffect" wet="1" on="1" autoquit_numerator="4" autoquit="1">
              <ladspacontrols ports="14" link="1">
                <port01 data="10" link="1"/>
                <port02 data="1" link="1"/>
                <port03 data="20" link="1"/>
                <port04 data="20" link="1"/>
                <port05 data="20" link="1"/>
                <port06 data="20" link="1"/>
                <port07 data="1" link="1"/>
                <port11 data="10"/>
                <port12 data="1"/>
                <port13 data="20"/>
                <port14 data="20"/>
                <port15 data="20"/>
                <port16 data="20"/>
                <port17 data="1"/>
              </ladspacontrols>
              <key>
                <attribute name="file" value="caps"/>
                <attribute name="plugin" value="AmpIV"/>
              </key>
            </effect>
            <effect autoquit_syncmode="0" autoquit_denominator="4" gate="0" name="ladspaeffect" wet="1" on="0" autoquit_numerator="4" autoquit="1">
              <ladspacontrols ports="4" link="1">
                <port01 data="1" link="1"/>
                <port02 data="-11.4" link="1"/>
                <port11 data="1"/>
                <port12 data="-11.4"/>
              </ladspacontrols>
              <key>
                <attribute name="file" value="caps"/>
                <attribute name="plugin" value="CabinetI"/>
              </key>
            </effect>
            <effect autoquit_syncmode="0" autoquit_denominator="4" gate="0" name="ladspaeffect" wet="1" on="1" autoquit_numerator="4" autoquit="1">
              <ladspacontrols ports="4" link="1">
                <port00 link="1">
                  <data value="6549.87" scale_type="log" id="7599140"/>
                </port00>
                <port01 data="9" link="1"/>
                <port10>
                  <data value="6549.87" scale_type="log" id="5958898"/>
                </port10>
                <port11 data="9"/>
              </ladspacontrols>
              <key>
                <attribute name="file" value="lowpass_iir_1891"/>
                <attribute name="plugin" value="lowpass_iir"/>
              </key>
            </effect>
            <effect autoquit_syncmode="0" autoquit_denominator="4" gate="0" name="ladspaeffect" wet="1" on="1" autoquit_numerator="4" autoquit="1">
              <ladspacontrols ports="4">
                <port02 data="0.502"/>
                <port03 data="0.3745"/>
                <port04 data="0.218641"/>
                <port05 data="0.2075"/>
              </ladspacontrols>
              <key>
                <attribute name="file" value="caps"/>
                <attribute name="plugin" value="Plate2x2"/>
              </key>
            </effect>
          </fxchain>
        </instrumenttrack>
        <pattern type="0" name="" steps="16" muted="0" pos="56256"/>
        <pattern type="1" name="" steps="16" muted="0" pos="56448">
          <note vol="100" pan="0" key="54" pos="0" len="12"/>
          <note vol="100" pan="0" key="58" pos="12" len="12"/>
          <note vol="100" pan="0" key="63" pos="24" len="12"/>
          <note vol="100" pan="0" key="66" pos="36" len="12"/>
          <note vol="100" pan="0" key="70" pos="48" len="12"/>
          <note vol="100" pan="0" key="75" pos="60" len="12"/>
          <note vol="100" pan="0" key="78" pos="72" len="12"/>
          <note vol="100" pan="0" key="82" pos="84" len="12"/>
          <note vol="100" pan="0" key="87" pos="96" len="12"/>
          <note vol="100" pan="0" key="82" pos="108" len="12"/>
          <note vol="100" pan="0" key="78" pos="120" len="12"/>
          <note vol="100" pan="0" key="75" pos="132" len="12"/>
          <note vol="100" pan="0" key="70" pos="144" len="12"/>
          <note vol="100" pan="0" key="66" pos="156" len="12"/>
          <note vol="100" pan="0" key="63" pos="168" len="12"/>
          <note vol="100" pan="0" key="58" pos="180" len="12"/>
        </pattern>
        <pattern type="1" name="" steps="16" muted="0" pos="56640">
          <note vol="100" pan="0" key="54" pos="0" len="12"/>
          <note vol="100" pan="0" key="58" pos="12" len="12"/>
          <note vol="100" pan="0" key="63" pos="24" len="12"/>
          <note vol="100" pan="0" key="66" pos="36" len="12"/>
          <note vol="100" pan="0" key="70" pos="48" len="12"/>
          <note vol="100" pan="0" key="75" pos="60" len="12"/>
          <note vol="100" pan="0" key="78" pos="72" len="12"/>
          <note vol="100" pan="0" key="82" pos="84" len="12"/>
          <note vol="100" pan="0" key="87" pos="96" len="12"/>
          <note vol="100" pan="0" key="82" pos="108" len="12"/>
          <note vol="100" pan="0" key="78" pos="120" len="12"/>
          <note vol="100" pan="0" key="75" pos="132" len="12"/>
          <note vol="100" pan="0" key="70" pos="144" len="12"/>
          <note vol="100" pan="0" key="66" pos="156" len="12"/>
          <note vol="100" pan="0" key="63" pos="168" len="12"/>
          <note vol="100" pan="0" key="58" pos="180" len="12"/>
        </pattern>
        <pattern type="1" name="" steps="16" muted="0" pos="56832">
          <note vol="100" pan="0" key="53" pos="0" len="12"/>
          <note vol="100" pan="0" key="56" pos="12" len="12"/>
          <note vol="100" pan="0" key="61" pos="24" len="12"/>
          <note vol="100" pan="0" key="65" pos="36" len="12"/>
          <note vol="100" pan="0" key="68" pos="48" len="12"/>
          <note vol="100" pan="0" key="73" pos="60" len="12"/>
          <note vol="100" pan="0" key="77" pos="72" len="12"/>
          <note vol="100" pan="0" key="80" pos="84" len="12"/>
          <note vol="100" pan="0" key="85" pos="96" len="12"/>
          <note vol="100" pan="0" key="80" pos="108" len="12"/>
          <note vol="100" pan="0" key="77" pos="120" len="12"/>
          <note vol="100" pan="0" key="73" pos="132" len="12"/>
          <note vol="100" pan="0" key="68" pos="144" len="12"/>
          <note vol="100" pan="0" key="65" pos="156" len="12"/>
          <note vol="100" pan="0" key="61" pos="168" len="12"/>
          <note vol="100" pan="0" key="56" pos="180" len="12"/>
        </pattern>
        <pattern type="1" name="" steps="16" muted="0" pos="57216">
          <note vol="100" pan="0" key="51" pos="0" len="12"/>
          <note vol="100" pan="0" key="56" pos="12" len="12"/>
          <note vol="100" pan="0" key="60" pos="24" len="12"/>
          <note vol="100" pan="0" key="63" pos="36" len="12"/>
          <note vol="100" pan="0" key="68" pos="48" len="12"/>
          <note vol="100" pan="0" key="72" pos="60" len="12"/>
          <note vol="100" pan="0" key="75" pos="72" len="12"/>
          <note vol="100" pan="0" key="80" pos="84" len="12"/>
          <note vol="100" pan="0" key="84" pos="96" len="12"/>
          <note vol="100" pan="0" key="80" pos="108" len="12"/>
          <note vol="100" pan="0" key="75" pos="120" len="12"/>
          <note vol="100" pan="0" key="72" pos="132" len="12"/>
          <note vol="100" pan="0" key="68" pos="144" len="12"/>
          <note vol="100" pan="0" key="63" pos="156" len="12"/>
          <note vol="100" pan="0" key="60" pos="168" len="12"/>
          <note vol="100" pan="0" key="56" pos="180" len="12"/>
        </pattern>
        <pattern type="1" name="" steps="16" muted="0" pos="57600">
          <note vol="100" pan="0" key="52" pos="0" len="12"/>
          <note vol="100" pan="0" key="56" pos="12" len="12"/>
          <note vol="100" pan="0" key="59" pos="24" len="12"/>
          <note vol="100" pan="0" key="64" pos="36" len="12"/>
          <note vol="100" pan="0" key="68" pos="48" len="12"/>
          <note vol="100" pan="0" key="71" pos="60" len="12"/>
          <note vol="100" pan="0" key="76" pos="72" len="12"/>
          <note vol="100" pan="0" key="80" pos="84" len="12"/>
          <note vol="100" pan="0" key="83" pos="96" len="12"/>
          <note vol="100" pan="0" key="80" pos="108" len="12"/>
          <note vol="100" pan="0" key="76" pos="120" len="12"/>
          <note vol="100" pan="0" key="71" pos="132" len="12"/>
          <note vol="100" pan="0" key="68" pos="144" len="12"/>
          <note vol="100" pan="0" key="64" pos="156" len="12"/>
          <note vol="100" pan="0" key="59" pos="168" len="12"/>
          <note vol="100" pan="0" key="56" pos="180" len="12"/>
        </pattern>
        <pattern type="1" name="" steps="16" muted="0" pos="57024">
          <note vol="100" pan="0" key="53" pos="0" len="12"/>
          <note vol="100" pan="0" key="56" pos="12" len="12"/>
          <note vol="100" pan="0" key="61" pos="24" len="12"/>
          <note vol="100" pan="0" key="65" pos="36" len="12"/>
          <note vol="100" pan="0" key="68" pos="48" len="12"/>
          <note vol="100" pan="0" key="73" pos="60" len="12"/>
          <note vol="100" pan="0" key="77" pos="72" len="12"/>
          <note vol="100" pan="0" key="80" pos="84" len="12"/>
          <note vol="100" pan="0" key="85" pos="96" len="12"/>
          <note vol="100" pan="0" key="80" pos="108" len="12"/>
          <note vol="100" pan="0" key="77" pos="120" len="12"/>
          <note vol="100" pan="0" key="73" pos="132" len="12"/>
          <note vol="100" pan="0" key="68" pos="144" len="12"/>
          <note vol="100" pan="0" key="65" pos="156" len="12"/>
          <note vol="100" pan="0" key="61" pos="168" len="12"/>
          <note vol="100" pan="0" key="56" pos="180" len="12"/>
        </pattern>
        <pattern type="1" name="" steps="16" muted="0" pos="57408">
          <note vol="100" pan="0" key="51" pos="0" len="12"/>
          <note vol="100" pan="0" key="56" pos="12" len="12"/>
          <note vol="100" pan="0" key="60" pos="24" len="12"/>
          <note vol="100" pan="0" key="63" pos="36" len="12"/>
          <note vol="100" pan="0" key="68" pos="48" len="12"/>
          <note vol="100" pan="0" key="72" pos="60" len="12"/>
          <note vol="100" pan="0" key="75" pos="72" len="12"/>
          <note vol="100" pan="0" key="80" pos="84" len="12"/>
          <note vol="100" pan="0" key="84" pos="96" len="12"/>
          <note vol="100" pan="0" key="80" pos="108" len="12"/>
          <note vol="100" pan="0" key="75" pos="120" len="12"/>
          <note vol="100" pan="0" key="72" pos="132" len="12"/>
          <note vol="100" pan="0" key="68" pos="144" len="12"/>
          <note vol="100" pan="0" key="63" pos="156" len="12"/>
          <note vol="100" pan="0" key="60" pos="168" len="12"/>
          <note vol="100" pan="0" key="56" pos="180" len="12"/>
        </pattern>
        <pattern type="1" name="" steps="16" muted="0" pos="57792">
          <note vol="100" pan="0" key="52" pos="0" len="12"/>
          <note vol="100" pan="0" key="56" pos="12" len="12"/>
          <note vol="100" pan="0" key="59" pos="24" len="12"/>
          <note vol="100" pan="0" key="64" pos="36" len="12"/>
          <note vol="100" pan="0" key="68" pos="48" len="12"/>
          <note vol="100" pan="0" key="71" pos="60" len="12"/>
          <note vol="100" pan="0" key="76" pos="72" len="12"/>
          <note vol="100" pan="0" key="80" pos="84" len="12"/>
          <note vol="100" pan="0" key="83" pos="96" len="12"/>
          <note vol="100" pan="0" key="80" pos="108" len="12"/>
          <note vol="100" pan="0" key="76" pos="120" len="12"/>
          <note vol="100" pan="0" key="71" pos="132" len="12"/>
          <note vol="100" pan="0" key="68" pos="144" len="12"/>
          <note vol="100" pan="0" key="64" pos="156" len="12"/>
          <note vol="100" pan="0" key="59" pos="168" len="12"/>
          <note vol="100" pan="0" key="56" pos="180" len="12"/>
        </pattern>
        <pattern type="1" name="" steps="16" muted="0" pos="63744">
          <note vol="197" pan="0" key="58" pos="0" len="12"/>
          <note vol="197" pan="0" key="54" pos="12" len="12"/>
          <note vol="197" pan="0" key="56" pos="24" len="12"/>
          <note vol="197" pan="0" key="58" pos="36" len="12"/>
          <note vol="197" pan="0" key="59" pos="48" len="12"/>
          <note vol="197" pan="0" key="56" pos="60" len="12"/>
          <note vol="197" pan="0" key="58" pos="72" len="12"/>
          <note vol="197" pan="0" key="59" pos="84" len="12"/>
          <note vol="197" pan="0" key="61" pos="96" len="12"/>
          <note vol="197" pan="0" key="58" pos="108" len="12"/>
          <note vol="197" pan="0" key="59" pos="120" len="12"/>
          <note vol="197" pan="0" key="61" pos="132" len="12"/>
          <note vol="197" pan="0" key="63" pos="144" len="12"/>
          <note vol="197" pan="0" key="59" pos="156" len="12"/>
          <note vol="197" pan="0" key="61" pos="168" len="12"/>
          <note vol="197" pan="0" key="63" pos="180" len="12"/>
          <note vol="197" pan="0" key="65" pos="192" len="12"/>
          <note vol="197" pan="0" key="63" pos="204" len="12"/>
          <note vol="197" pan="0" key="61" pos="216" len="12"/>
          <note vol="197" pan="0" key="59" pos="228" len="12"/>
          <note vol="197" pan="0" key="58" pos="240" len="12"/>
          <note vol="197" pan="0" key="59" pos="252" len="12"/>
          <note vol="197" pan="0" key="63" pos="264" len="12"/>
          <note vol="197" pan="0" key="61" pos="276" len="12"/>
          <note vol="197" pan="0" key="59" pos="288" len="12"/>
          <note vol="197" pan="0" key="58" pos="300" len="12"/>
          <note vol="197" pan="0" key="56" pos="312" len="12"/>
          <note vol="197" pan="0" key="58" pos="324" len="12"/>
          <note vol="197" pan="0" key="61" pos="336" len="12"/>
          <note vol="197" pan="0" key="59" pos="348" len="12"/>
          <note vol="197" pan="0" key="58" pos="360" len="12"/>
          <note vol="197" pan="0" key="56" pos="372" len="12"/>
          <note vol="197" pan="0" key="54" pos="384" len="12"/>
          <note vol="197" pan="0" key="56" pos="396" len="12"/>
          <note vol="200" pan="0" key="59" pos="408" len="12"/>
          <note vol="200" pan="0" key="58" pos="420" len="12"/>
          <note vol="200" pan="0" key="56" pos="432" len="12"/>
          <note vol="200" pan="0" key="54" pos="444" len="12"/>
          <note vol="200" pan="0" key="53" pos="456" len="12"/>
          <note vol="200" pan="0" key="54" pos="468" len="12"/>
          <note vol="200" pan="0" key="58" pos="480" len="12"/>
          <note vol="200" pan="0" key="56" pos="492" len="12"/>
          <note vol="200" pan="0" key="54" pos="504" len="12"/>
          <note vol="200" pan="0" key="53" pos="516" len="12"/>
          <note vol="200" pan="0" key="56" pos="528" len="12"/>
          <note vol="200" pan="0" key="54" pos="540" len="12"/>
          <note vol="200" pan="0" key="53" pos="552" len="12"/>
          <note vol="200" pan="0" key="54" pos="564" len="12"/>
          <note vol="197" pan="0" key="66" pos="576" len="192"/>
        </pattern>
        <pattern type="1" name="" steps="16" muted="0" pos="57984">
          <note vol="100" pan="0" key="54" pos="0" len="12"/>
          <note vol="100" pan="0" key="58" pos="12" len="12"/>
          <note vol="100" pan="0" key="63" pos="24" len="12"/>
          <note vol="100" pan="0" key="66" pos="36" len="12"/>
          <note vol="100" pan="0" key="70" pos="48" len="12"/>
          <note vol="100" pan="0" key="75" pos="60" len="12"/>
          <note vol="100" pan="0" key="78" pos="72" len="12"/>
          <note vol="100" pan="0" key="82" pos="84" len="12"/>
          <note vol="100" pan="0" key="87" pos="96" len="12"/>
          <note vol="100" pan="0" key="82" pos="108" len="12"/>
          <note vol="100" pan="0" key="78" pos="120" len="12"/>
          <note vol="100" pan="0" key="75" pos="132" len="12"/>
          <note vol="100" pan="0" key="70" pos="144" len="12"/>
          <note vol="100" pan="0" key="66" pos="156" len="12"/>
          <note vol="100" pan="0" key="63" pos="168" len="12"/>
          <note vol="100" pan="0" key="58" pos="180" len="12"/>
        </pattern>
        <pattern type="1" name="" steps="16" muted="0" pos="58368">
          <note vol="100" pan="0" key="53" pos="0" len="12"/>
          <note vol="100" pan="0" key="56" pos="12" len="12"/>
          <note vol="100" pan="0" key="61" pos="24" len="12"/>
          <note vol="100" pan="0" key="65" pos="36" len="12"/>
          <note vol="100" pan="0" key="68" pos="48" len="12"/>
          <note vol="100" pan="0" key="73" pos="60" len="12"/>
          <note vol="100" pan="0" key="77" pos="72" len="12"/>
          <note vol="100" pan="0" key="80" pos="84" len="12"/>
          <note vol="100" pan="0" key="85" pos="96" len="12"/>
          <note vol="100" pan="0" key="80" pos="108" len="12"/>
          <note vol="100" pan="0" key="77" pos="120" len="12"/>
          <note vol="100" pan="0" key="73" pos="132" len="12"/>
          <note vol="100" pan="0" key="68" pos="144" len="12"/>
          <note vol="100" pan="0" key="65" pos="156" len="12"/>
          <note vol="100" pan="0" key="61" pos="168" len="12"/>
          <note vol="100" pan="0" key="56" pos="180" len="12"/>
        </pattern>
        <pattern type="1" name="" steps="16" muted="0" pos="58752">
          <note vol="100" pan="0" key="51" pos="0" len="12"/>
          <note vol="100" pan="0" key="56" pos="12" len="12"/>
          <note vol="100" pan="0" key="60" pos="24" len="12"/>
          <note vol="100" pan="0" key="63" pos="36" len="12"/>
          <note vol="100" pan="0" key="68" pos="48" len="12"/>
          <note vol="100" pan="0" key="72" pos="60" len="12"/>
          <note vol="100" pan="0" key="75" pos="72" len="12"/>
          <note vol="100" pan="0" key="80" pos="84" len="12"/>
          <note vol="100" pan="0" key="84" pos="96" len="12"/>
          <note vol="100" pan="0" key="80" pos="108" len="12"/>
          <note vol="100" pan="0" key="75" pos="120" len="12"/>
          <note vol="100" pan="0" key="72" pos="132" len="12"/>
          <note vol="100" pan="0" key="68" pos="144" len="12"/>
          <note vol="100" pan="0" key="63" pos="156" len="12"/>
          <note vol="100" pan="0" key="60" pos="168" len="12"/>
          <note vol="100" pan="0" key="56" pos="180" len="12"/>
        </pattern>
        <pattern type="1" name="" steps="16" muted="0" pos="59136">
          <note vol="100" pan="0" key="52" pos="0" len="12"/>
          <note vol="100" pan="0" key="56" pos="12" len="12"/>
          <note vol="100" pan="0" key="59" pos="24" len="12"/>
          <note vol="100" pan="0" key="64" pos="36" len="12"/>
          <note vol="100" pan="0" key="68" pos="48" len="12"/>
          <note vol="100" pan="0" key="71" pos="60" len="12"/>
          <note vol="100" pan="0" key="76" pos="72" len="12"/>
          <note vol="100" pan="0" key="80" pos="84" len="12"/>
          <note vol="100" pan="0" key="83" pos="96" len="12"/>
          <note vol="100" pan="0" key="80" pos="108" len="12"/>
          <note vol="100" pan="0" key="76" pos="120" len="12"/>
          <note vol="100" pan="0" key="71" pos="132" len="12"/>
          <note vol="100" pan="0" key="68" pos="144" len="12"/>
          <note vol="100" pan="0" key="64" pos="156" len="12"/>
          <note vol="100" pan="0" key="59" pos="168" len="12"/>
          <note vol="100" pan="0" key="56" pos="180" len="12"/>
        </pattern>
        <pattern type="1" name="" steps="16" muted="0" pos="59520">
          <note vol="100" pan="0" key="54" pos="0" len="12"/>
          <note vol="100" pan="0" key="58" pos="12" len="12"/>
          <note vol="100" pan="0" key="63" pos="24" len="12"/>
          <note vol="100" pan="0" key="66" pos="36" len="12"/>
          <note vol="100" pan="0" key="70" pos="48" len="12"/>
          <note vol="100" pan="0" key="75" pos="60" len="12"/>
          <note vol="100" pan="0" key="78" pos="72" len="12"/>
          <note vol="100" pan="0" key="82" pos="84" len="12"/>
          <note vol="100" pan="0" key="87" pos="96" len="12"/>
          <note vol="100" pan="0" key="82" pos="108" len="12"/>
          <note vol="100" pan="0" key="78" pos="120" len="12"/>
          <note vol="100" pan="0" key="75" pos="132" len="12"/>
          <note vol="100" pan="0" key="70" pos="144" len="12"/>
          <note vol="100" pan="0" key="66" pos="156" len="12"/>
          <note vol="100" pan="0" key="63" pos="168" len="12"/>
          <note vol="100" pan="0" key="58" pos="180" len="12"/>
        </pattern>
        <pattern type="1" name="" steps="16" muted="0" pos="61056">
          <note vol="100" pan="0" key="54" pos="0" len="12"/>
          <note vol="100" pan="0" key="58" pos="12" len="12"/>
          <note vol="100" pan="0" key="63" pos="24" len="12"/>
          <note vol="100" pan="0" key="66" pos="36" len="12"/>
          <note vol="100" pan="0" key="70" pos="48" len="12"/>
          <note vol="100" pan="0" key="75" pos="60" len="12"/>
          <note vol="100" pan="0" key="78" pos="72" len="12"/>
          <note vol="100" pan="0" key="82" pos="84" len="12"/>
          <note vol="100" pan="0" key="87" pos="96" len="12"/>
          <note vol="100" pan="0" key="82" pos="108" len="12"/>
          <note vol="100" pan="0" key="78" pos="120" len="12"/>
          <note vol="100" pan="0" key="75" pos="132" len="12"/>
          <note vol="100" pan="0" key="70" pos="144" len="12"/>
          <note vol="100" pan="0" key="66" pos="156" len="12"/>
          <note vol="100" pan="0" key="63" pos="168" len="12"/>
          <note vol="100" pan="0" key="58" pos="180" len="12"/>
        </pattern>
        <pattern type="1" name="" steps="16" muted="0" pos="59904">
          <note vol="100" pan="0" key="53" pos="0" len="12"/>
          <note vol="100" pan="0" key="56" pos="12" len="12"/>
          <note vol="100" pan="0" key="61" pos="24" len="12"/>
          <note vol="100" pan="0" key="65" pos="36" len="12"/>
          <note vol="100" pan="0" key="68" pos="48" len="12"/>
          <note vol="100" pan="0" key="73" pos="60" len="12"/>
          <note vol="100" pan="0" key="77" pos="72" len="12"/>
          <note vol="100" pan="0" key="80" pos="84" len="12"/>
          <note vol="100" pan="0" key="85" pos="96" len="12"/>
          <note vol="100" pan="0" key="80" pos="108" len="12"/>
          <note vol="100" pan="0" key="77" pos="120" len="12"/>
          <note vol="100" pan="0" key="73" pos="132" len="12"/>
          <note vol="100" pan="0" key="68" pos="144" len="12"/>
          <note vol="100" pan="0" key="65" pos="156" len="12"/>
          <note vol="100" pan="0" key="61" pos="168" len="12"/>
          <note vol="100" pan="0" key="56" pos="180" len="12"/>
        </pattern>
        <pattern type="1" name="" steps="16" muted="0" pos="61440">
          <note vol="100" pan="0" key="53" pos="0" len="12"/>
          <note vol="100" pan="0" key="56" pos="12" len="12"/>
          <note vol="100" pan="0" key="61" pos="24" len="12"/>
          <note vol="100" pan="0" key="65" pos="36" len="12"/>
          <note vol="100" pan="0" key="68" pos="48" len="12"/>
          <note vol="100" pan="0" key="73" pos="60" len="12"/>
          <note vol="100" pan="0" key="77" pos="72" len="12"/>
          <note vol="100" pan="0" key="80" pos="84" len="12"/>
          <note vol="100" pan="0" key="85" pos="96" len="12"/>
          <note vol="100" pan="0" key="80" pos="108" len="12"/>
          <note vol="100" pan="0" key="77" pos="120" len="12"/>
          <note vol="100" pan="0" key="73" pos="132" len="12"/>
          <note vol="100" pan="0" key="68" pos="144" len="12"/>
          <note vol="100" pan="0" key="65" pos="156" len="12"/>
          <note vol="100" pan="0" key="61" pos="168" len="12"/>
          <note vol="100" pan="0" key="56" pos="180" len="12"/>
        </pattern>
        <pattern type="1" name="" steps="16" muted="0" pos="60288">
          <note vol="100" pan="0" key="51" pos="0" len="12"/>
          <note vol="100" pan="0" key="56" pos="12" len="12"/>
          <note vol="100" pan="0" key="60" pos="24" len="12"/>
          <note vol="100" pan="0" key="63" pos="36" len="12"/>
          <note vol="100" pan="0" key="68" pos="48" len="12"/>
          <note vol="100" pan="0" key="72" pos="60" len="12"/>
          <note vol="100" pan="0" key="75" pos="72" len="12"/>
          <note vol="100" pan="0" key="80" pos="84" len="12"/>
          <note vol="100" pan="0" key="84" pos="96" len="12"/>
          <note vol="100" pan="0" key="80" pos="108" len="12"/>
          <note vol="100" pan="0" key="75" pos="120" len="12"/>
          <note vol="100" pan="0" key="72" pos="132" len="12"/>
          <note vol="100" pan="0" key="68" pos="144" len="12"/>
          <note vol="100" pan="0" key="63" pos="156" len="12"/>
          <note vol="100" pan="0" key="60" pos="168" len="12"/>
          <note vol="100" pan="0" key="56" pos="180" len="12"/>
        </pattern>
        <pattern type="1" name="" steps="16" muted="0" pos="61824">
          <note vol="100" pan="0" key="51" pos="0" len="12"/>
          <note vol="100" pan="0" key="56" pos="12" len="12"/>
          <note vol="100" pan="0" key="60" pos="24" len="12"/>
          <note vol="100" pan="0" key="63" pos="36" len="12"/>
          <note vol="100" pan="0" key="68" pos="48" len="12"/>
          <note vol="100" pan="0" key="72" pos="60" len="12"/>
          <note vol="100" pan="0" key="75" pos="72" len="12"/>
          <note vol="100" pan="0" key="80" pos="84" len="12"/>
          <note vol="100" pan="0" key="84" pos="96" len="12"/>
          <note vol="100" pan="0" key="80" pos="108" len="12"/>
          <note vol="100" pan="0" key="75" pos="120" len="12"/>
          <note vol="100" pan="0" key="72" pos="132" len="12"/>
          <note vol="100" pan="0" key="68" pos="144" len="12"/>
          <note vol="100" pan="0" key="63" pos="156" len="12"/>
          <note vol="100" pan="0" key="60" pos="168" len="12"/>
          <note vol="100" pan="0" key="56" pos="180" len="12"/>
        </pattern>
        <pattern type="1" name="" steps="16" muted="0" pos="60672">
          <note vol="100" pan="0" key="52" pos="0" len="12"/>
          <note vol="100" pan="0" key="56" pos="12" len="12"/>
          <note vol="100" pan="0" key="59" pos="24" len="12"/>
          <note vol="100" pan="0" key="64" pos="36" len="12"/>
          <note vol="100" pan="0" key="68" pos="48" len="12"/>
          <note vol="100" pan="0" key="71" pos="60" len="12"/>
          <note vol="100" pan="0" key="76" pos="72" len="12"/>
          <note vol="100" pan="0" key="80" pos="84" len="12"/>
          <note vol="100" pan="0" key="83" pos="96" len="12"/>
          <note vol="100" pan="0" key="80" pos="108" len="12"/>
          <note vol="100" pan="0" key="76" pos="120" len="12"/>
          <note vol="100" pan="0" key="71" pos="132" len="12"/>
          <note vol="100" pan="0" key="68" pos="144" len="12"/>
          <note vol="100" pan="0" key="64" pos="156" len="12"/>
          <note vol="100" pan="0" key="59" pos="168" len="12"/>
          <note vol="100" pan="0" key="56" pos="180" len="12"/>
        </pattern>
        <pattern type="1" name="" steps="16" muted="0" pos="62208">
          <note vol="100" pan="0" key="52" pos="0" len="12"/>
          <note vol="100" pan="0" key="56" pos="12" len="12"/>
          <note vol="100" pan="0" key="59" pos="24" len="12"/>
          <note vol="100" pan="0" key="64" pos="36" len="12"/>
          <note vol="100" pan="0" key="68" pos="48" len="12"/>
          <note vol="100" pan="0" key="71" pos="60" len="12"/>
          <note vol="100" pan="0" key="76" pos="72" len="12"/>
          <note vol="100" pan="0" key="80" pos="84" len="12"/>
          <note vol="100" pan="0" key="83" pos="96" len="12"/>
          <note vol="100" pan="0" key="80" pos="108" len="12"/>
          <note vol="100" pan="0" key="76" pos="120" len="12"/>
          <note vol="100" pan="0" key="71" pos="132" len="12"/>
          <note vol="100" pan="0" key="68" pos="144" len="12"/>
          <note vol="100" pan="0" key="64" pos="156" len="12"/>
          <note vol="100" pan="0" key="59" pos="168" len="12"/>
          <note vol="100" pan="0" key="56" pos="180" len="12"/>
        </pattern>
        <pattern type="1" name="" steps="16" muted="0" pos="62400">
          <note vol="100" pan="0" key="52" pos="0" len="12"/>
          <note vol="100" pan="0" key="56" pos="12" len="12"/>
          <note vol="100" pan="0" key="59" pos="24" len="12"/>
          <note vol="100" pan="0" key="64" pos="36" len="12"/>
          <note vol="100" pan="0" key="68" pos="48" len="12"/>
          <note vol="100" pan="0" key="71" pos="60" len="12"/>
          <note vol="100" pan="0" key="76" pos="72" len="12"/>
          <note vol="100" pan="0" key="80" pos="84" len="12"/>
          <note vol="100" pan="0" key="83" pos="96" len="12"/>
          <note vol="100" pan="0" key="80" pos="108" len="12"/>
          <note vol="100" pan="0" key="76" pos="120" len="12"/>
          <note vol="100" pan="0" key="71" pos="132" len="12"/>
          <note vol="100" pan="0" key="68" pos="144" len="12"/>
          <note vol="100" pan="0" key="64" pos="156" len="12"/>
          <note vol="100" pan="0" key="59" pos="168" len="12"/>
          <note vol="100" pan="0" key="56" pos="180" len="12"/>
        </pattern>
        <pattern type="1" name="" steps="16" muted="0" pos="62016">
          <note vol="100" pan="0" key="51" pos="0" len="12"/>
          <note vol="100" pan="0" key="56" pos="12" len="12"/>
          <note vol="100" pan="0" key="60" pos="24" len="12"/>
          <note vol="100" pan="0" key="63" pos="36" len="12"/>
          <note vol="100" pan="0" key="68" pos="48" len="12"/>
          <note vol="100" pan="0" key="72" pos="60" len="12"/>
          <note vol="100" pan="0" key="75" pos="72" len="12"/>
          <note vol="100" pan="0" key="80" pos="84" len="12"/>
          <note vol="100" pan="0" key="84" pos="96" len="12"/>
          <note vol="100" pan="0" key="80" pos="108" len="12"/>
          <note vol="100" pan="0" key="75" pos="120" len="12"/>
          <note vol="100" pan="0" key="72" pos="132" len="12"/>
          <note vol="100" pan="0" key="68" pos="144" len="12"/>
          <note vol="100" pan="0" key="63" pos="156" len="12"/>
          <note vol="100" pan="0" key="60" pos="168" len="12"/>
          <note vol="100" pan="0" key="56" pos="180" len="12"/>
        </pattern>
        <pattern type="1" name="" steps="16" muted="0" pos="61632">
          <note vol="100" pan="0" key="53" pos="0" len="12"/>
          <note vol="100" pan="0" key="56" pos="12" len="12"/>
          <note vol="100" pan="0" key="61" pos="24" len="12"/>
          <note vol="100" pan="0" key="65" pos="36" len="12"/>
          <note vol="100" pan="0" key="68" pos="48" len="12"/>
          <note vol="100" pan="0" key="73" pos="60" len="12"/>
          <note vol="100" pan="0" key="77" pos="72" len="12"/>
          <note vol="100" pan="0" key="80" pos="84" len="12"/>
          <note vol="100" pan="0" key="85" pos="96" len="12"/>
          <note vol="100" pan="0" key="80" pos="108" len="12"/>
          <note vol="100" pan="0" key="77" pos="120" len="12"/>
          <note vol="100" pan="0" key="73" pos="132" len="12"/>
          <note vol="100" pan="0" key="68" pos="144" len="12"/>
          <note vol="100" pan="0" key="65" pos="156" len="12"/>
          <note vol="100" pan="0" key="61" pos="168" len="12"/>
          <note vol="100" pan="0" key="56" pos="180" len="12"/>
        </pattern>
        <pattern type="1" name="" steps="16" muted="0" pos="61248">
          <note vol="100" pan="0" key="54" pos="0" len="12"/>
          <note vol="100" pan="0" key="58" pos="12" len="12"/>
          <note vol="100" pan="0" key="63" pos="24" len="12"/>
          <note vol="100" pan="0" key="66" pos="36" len="12"/>
          <note vol="100" pan="0" key="70" pos="48" len="12"/>
          <note vol="100" pan="0" key="75" pos="60" len="12"/>
          <note vol="100" pan="0" key="78" pos="72" len="12"/>
          <note vol="100" pan="0" key="82" pos="84" len="12"/>
          <note vol="100" pan="0" key="87" pos="96" len="12"/>
          <note vol="100" pan="0" key="82" pos="108" len="12"/>
          <note vol="100" pan="0" key="78" pos="120" len="12"/>
          <note vol="100" pan="0" key="75" pos="132" len="12"/>
          <note vol="100" pan="0" key="70" pos="144" len="12"/>
          <note vol="100" pan="0" key="66" pos="156" len="12"/>
          <note vol="100" pan="0" key="63" pos="168" len="12"/>
          <note vol="100" pan="0" key="58" pos="180" len="12"/>
        </pattern>
        <pattern type="1" name="" steps="16" muted="0" pos="60864">
          <note vol="100" pan="0" key="52" pos="0" len="12"/>
          <note vol="100" pan="0" key="56" pos="12" len="12"/>
          <note vol="100" pan="0" key="59" pos="24" len="12"/>
          <note vol="100" pan="0" key="64" pos="36" len="12"/>
          <note vol="100" pan="0" key="68" pos="48" len="12"/>
          <note vol="100" pan="0" key="71" pos="60" len="12"/>
          <note vol="100" pan="0" key="76" pos="72" len="12"/>
          <note vol="100" pan="0" key="80" pos="84" len="12"/>
          <note vol="100" pan="0" key="83" pos="96" len="12"/>
          <note vol="100" pan="0" key="80" pos="108" len="12"/>
          <note vol="100" pan="0" key="76" pos="120" len="12"/>
          <note vol="100" pan="0" key="71" pos="132" len="12"/>
          <note vol="100" pan="0" key="68" pos="144" len="12"/>
          <note vol="100" pan="0" key="64" pos="156" len="12"/>
          <note vol="100" pan="0" key="59" pos="168" len="12"/>
          <note vol="100" pan="0" key="56" pos="180" len="12"/>
        </pattern>
        <pattern type="1" name="" steps="16" muted="0" pos="60480">
          <note vol="100" pan="0" key="51" pos="0" len="12"/>
          <note vol="100" pan="0" key="56" pos="12" len="12"/>
          <note vol="100" pan="0" key="60" pos="24" len="12"/>
          <note vol="100" pan="0" key="63" pos="36" len="12"/>
          <note vol="100" pan="0" key="68" pos="48" len="12"/>
          <note vol="100" pan="0" key="72" pos="60" len="12"/>
          <note vol="100" pan="0" key="75" pos="72" len="12"/>
          <note vol="100" pan="0" key="80" pos="84" len="12"/>
          <note vol="100" pan="0" key="84" pos="96" len="12"/>
          <note vol="100" pan="0" key="80" pos="108" len="12"/>
          <note vol="100" pan="0" key="75" pos="120" len="12"/>
          <note vol="100" pan="0" key="72" pos="132" len="12"/>
          <note vol="100" pan="0" key="68" pos="144" len="12"/>
          <note vol="100" pan="0" key="63" pos="156" len="12"/>
          <note vol="100" pan="0" key="60" pos="168" len="12"/>
          <note vol="100" pan="0" key="56" pos="180" len="12"/>
        </pattern>
        <pattern type="1" name="" steps="16" muted="0" pos="60096">
          <note vol="100" pan="0" key="53" pos="0" len="12"/>
          <note vol="100" pan="0" key="56" pos="12" len="12"/>
          <note vol="100" pan="0" key="61" pos="24" len="12"/>
          <note vol="100" pan="0" key="65" pos="36" len="12"/>
          <note vol="100" pan="0" key="68" pos="48" len="12"/>
          <note vol="100" pan="0" key="73" pos="60" len="12"/>
          <note vol="100" pan="0" key="77" pos="72" len="12"/>
          <note vol="100" pan="0" key="80" pos="84" len="12"/>
          <note vol="100" pan="0" key="85" pos="96" len="12"/>
          <note vol="100" pan="0" key="80" pos="108" len="12"/>
          <note vol="100" pan="0" key="77" pos="120" len="12"/>
          <note vol="100" pan="0" key="73" pos="132" len="12"/>
          <note vol="100" pan="0" key="68" pos="144" len="12"/>
          <note vol="100" pan="0" key="65" pos="156" len="12"/>
          <note vol="100" pan="0" key="61" pos="168" len="12"/>
          <note vol="100" pan="0" key="56" pos="180" len="12"/>
        </pattern>
        <pattern type="1" name="" steps="16" muted="0" pos="59712">
          <note vol="100" pan="0" key="54" pos="0" len="12"/>
          <note vol="100" pan="0" key="58" pos="12" len="12"/>
          <note vol="100" pan="0" key="63" pos="24" len="12"/>
          <note vol="100" pan="0" key="66" pos="36" len="12"/>
          <note vol="100" pan="0" key="70" pos="48" len="12"/>
          <note vol="100" pan="0" key="75" pos="60" len="12"/>
          <note vol="100" pan="0" key="78" pos="72" len="12"/>
          <note vol="100" pan="0" key="82" pos="84" len="12"/>
          <note vol="100" pan="0" key="87" pos="96" len="12"/>
          <note vol="100" pan="0" key="82" pos="108" len="12"/>
          <note vol="100" pan="0" key="78" pos="120" len="12"/>
          <note vol="100" pan="0" key="75" pos="132" len="12"/>
          <note vol="100" pan="0" key="70" pos="144" len="12"/>
          <note vol="100" pan="0" key="66" pos="156" len="12"/>
          <note vol="100" pan="0" key="63" pos="168" len="12"/>
          <note vol="100" pan="0" key="58" pos="180" len="12"/>
        </pattern>
        <pattern type="1" name="" steps="16" muted="0" pos="59328">
          <note vol="100" pan="0" key="52" pos="0" len="12"/>
          <note vol="100" pan="0" key="56" pos="12" len="12"/>
          <note vol="100" pan="0" key="59" pos="24" len="12"/>
          <note vol="100" pan="0" key="64" pos="36" len="12"/>
          <note vol="100" pan="0" key="68" pos="48" len="12"/>
          <note vol="100" pan="0" key="71" pos="60" len="12"/>
          <note vol="100" pan="0" key="76" pos="72" len="12"/>
          <note vol="100" pan="0" key="80" pos="84" len="12"/>
          <note vol="100" pan="0" key="83" pos="96" len="12"/>
          <note vol="100" pan="0" key="80" pos="108" len="12"/>
          <note vol="100" pan="0" key="76" pos="120" len="12"/>
          <note vol="100" pan="0" key="71" pos="132" len="12"/>
          <note vol="100" pan="0" key="68" pos="144" len="12"/>
          <note vol="100" pan="0" key="64" pos="156" len="12"/>
          <note vol="100" pan="0" key="59" pos="168" len="12"/>
          <note vol="100" pan="0" key="56" pos="180" len="12"/>
        </pattern>
        <pattern type="1" name="" steps="16" muted="0" pos="58944">
          <note vol="100" pan="0" key="51" pos="0" len="12"/>
          <note vol="100" pan="0" key="56" pos="12" len="12"/>
          <note vol="100" pan="0" key="60" pos="24" len="12"/>
          <note vol="100" pan="0" key="63" pos="36" len="12"/>
          <note vol="100" pan="0" key="68" pos="48" len="12"/>
          <note vol="100" pan="0" key="72" pos="60" len="12"/>
          <note vol="100" pan="0" key="75" pos="72" len="12"/>
          <note vol="100" pan="0" key="80" pos="84" len="12"/>
          <note vol="100" pan="0" key="84" pos="96" len="12"/>
          <note vol="100" pan="0" key="80" pos="108" len="12"/>
          <note vol="100" pan="0" key="75" pos="120" len="12"/>
          <note vol="100" pan="0" key="72" pos="132" len="12"/>
          <note vol="100" pan="0" key="68" pos="144" len="12"/>
          <note vol="100" pan="0" key="63" pos="156" len="12"/>
          <note vol="100" pan="0" key="60" pos="168" len="12"/>
          <note vol="100" pan="0" key="56" pos="180" len="12"/>
        </pattern>
        <pattern type="1" name="" steps="16" muted="0" pos="58560">
          <note vol="100" pan="0" key="53" pos="0" len="12"/>
          <note vol="100" pan="0" key="56" pos="12" len="12"/>
          <note vol="100" pan="0" key="61" pos="24" len="12"/>
          <note vol="100" pan="0" key="65" pos="36" len="12"/>
          <note vol="100" pan="0" key="68" pos="48" len="12"/>
          <note vol="100" pan="0" key="73" pos="60" len="12"/>
          <note vol="100" pan="0" key="77" pos="72" len="12"/>
          <note vol="100" pan="0" key="80" pos="84" len="12"/>
          <note vol="100" pan="0" key="85" pos="96" len="12"/>
          <note vol="100" pan="0" key="80" pos="108" len="12"/>
          <note vol="100" pan="0" key="77" pos="120" len="12"/>
          <note vol="100" pan="0" key="73" pos="132" len="12"/>
          <note vol="100" pan="0" key="68" pos="144" len="12"/>
          <note vol="100" pan="0" key="65" pos="156" len="12"/>
          <note vol="100" pan="0" key="61" pos="168" len="12"/>
          <note vol="100" pan="0" key="56" pos="180" len="12"/>
        </pattern>
        <pattern type="1" name="" steps="16" muted="0" pos="58176">
          <note vol="100" pan="0" key="54" pos="0" len="12"/>
          <note vol="100" pan="0" key="58" pos="12" len="12"/>
          <note vol="100" pan="0" key="63" pos="24" len="12"/>
          <note vol="100" pan="0" key="66" pos="36" len="12"/>
          <note vol="100" pan="0" key="70" pos="48" len="12"/>
          <note vol="100" pan="0" key="75" pos="60" len="12"/>
          <note vol="100" pan="0" key="78" pos="72" len="12"/>
          <note vol="100" pan="0" key="82" pos="84" len="12"/>
          <note vol="100" pan="0" key="87" pos="96" len="12"/>
          <note vol="100" pan="0" key="82" pos="108" len="12"/>
          <note vol="100" pan="0" key="78" pos="120" len="12"/>
          <note vol="100" pan="0" key="75" pos="132" len="12"/>
          <note vol="100" pan="0" key="70" pos="144" len="12"/>
          <note vol="100" pan="0" key="66" pos="156" len="12"/>
          <note vol="100" pan="0" key="63" pos="168" len="12"/>
          <note vol="100" pan="0" key="58" pos="180" len="12"/>
        </pattern>
      </track>
      <track type="0" name="backing sban" solo="0" muted="0" mutedBeforeSolo="0">
        <instrumenttrack usemasterpitch="1" pitchrange="2" pitch="0" vol="200" basenote="57" pan="0" fxch="24">
          <instrument name="tripleoscillator">
            <tripleoscillator vol2="0" finer1="0" wavetype0="0" finel0="0" wavetype1="0" coarse1="0" vol1="19" coarse2="-24" pan2="0" userwavefile1="" wavetype2="0" modalgo2="2" stphdetun1="0" coarse0="0" vol0="200" stphdetun0="0" finel2="0" finer2="0" stphdetun2="0" modalgo1="4" phoffset2="0" phoffset1="0" finel1="0" userwavefile0="" modalgo3="2" pan1="0" finer0="0" userwavefile2="" phoffset0="0" pan0="0">
              <key/>
            </tripleoscillator>
          </instrument>
          <eldata fwet="0" fres="0.89" ftype="17" fcut="1456">
            <elvol x100="0" lspd_numerator="4" amt="0" lspd="0.1" lpdel="0" dec="0.5" lspd_syncmode="0" att="0" ctlenvamt="0" pdel="0" latt="0" sustain="0.5" lspd_denominator="4" hold="0.5" lamt="0" userwavefile="" lshp="0" rel="0"/>
            <elcut x100="1" lspd_numerator="4" amt="0" lspd="0.037" lpdel="0" dec="0.5" lspd_syncmode="0" att="0" ctlenvamt="0" pdel="0" latt="0" sustain="0.5" lspd_denominator="4" hold="0.5" lamt="0" userwavefile="" lshp="2" rel="0"/>
            <elres x100="0" lspd_numerator="4" amt="0" lspd="0.152" lpdel="0" dec="0.5" lspd_syncmode="0" att="0" ctlenvamt="0" pdel="0" latt="0" sustain="0.5" lspd_denominator="4" hold="0.5" lamt="0" userwavefile="" lshp="1" rel="0.1"/>
          </eldata>
          <chordcreator chordrange="1" chord="0" chord-enabled="0"/>
          <arpeggiator arprange="1" arptime_syncmode="0" arpskip="0" arpmiss="0" arptime="200" arpdir="0" arpmode="0" arptime_denominator="4" arp-enabled="0" arp="0" arpgate="100" arpcycle="0" arptime_numerator="4"/>
          <midiport inputcontroller="0" outputcontroller="0" outputprogram="1" basevelocity="63" outputchannel="1" writable="0" inputchannel="0" readable="0" fixedinputvelocity="-1" fixedoutputvelocity="-1" fixedoutputnote="-1"/>
          <fxchain numofeffects="7" enabled="1">
            <effect autoquit_syncmode="0" autoquit_denominator="4" gate="0" name="ladspaeffect" wet="1" on="0" autoquit_numerator="4" autoquit="1">
              <ladspacontrols ports="7">
                <port00 data="3.4875"/>
                <port01 data="180"/>
                <port02 data="100"/>
                <port03 data="17"/>
                <port04 data="20000"/>
                <port05 data="0.55"/>
                <port06 data="-0.6875"/>
              </ladspacontrols>
              <key>
                <attribute name="file" value="tap_chorusflanger"/>
                <attribute name="plugin" value="tap_chorusflanger"/>
              </key>
            </effect>
            <effect autoquit_syncmode="0" autoquit_denominator="4" gate="0" name="eq" wet="1" on="1" autoquit_numerator="4" autoquit="1">
              <Eq HighShelfgain="0" Peak1active="0" LowShelfres="1.4" Peak3bw="0.3" Highshelfactive="0" LP48="0" AnalyseIn="1" Peak2gain="0" Lowshelfgain="0" Peak3gain="0" HP48="0" Peak1bw="0.3" HP12="0" HP="1" HPactive="1" Outputgain="0.8" HighShelfres="1.4" Peak4bw="0.3" LP24="0" LPactive="1" HP24="1" AnalyseOut="1" Peak2active="0" Peak3active="0" Lowshelfactive="0" LP12="1" HPres="0.707" Peak4active="0" LPres="0.707" LP="0" Peak2bw="0.3" Peak4gain="0">
                <Inputgain value="0" scale_type="log" id="1598212"/>
                <Peak1gain value="0" scale_type="log" id="6803051"/>
                <HPfreq value="260.717" scale_type="log" id="537981"/>
                <LowShelffreq value="80" scale_type="log" id="3671222"/>
                <Peak1freq value="120" scale_type="log" id="2474406"/>
                <Peak2freq value="250" scale_type="log" id="1093128"/>
                <Peak3freq value="2000" scale_type="log" id="1773899"/>
                <Peak4freq value="4000" scale_type="log" id="5705623"/>
                <Highshelffreq value="12000" scale_type="log" id="3514465"/>
                <LPfreq value="1667.01" scale_type="log" id="255617"/>
              </Eq>
              <key/>
            </effect>
            <effect autoquit_syncmode="0" autoquit_denominator="4" gate="0" name="waveshaper" wet="1" on="0" autoquit_numerator="4" autoquit="1">
              <waveshapercontrols outputGain="1" clipInput="1" waveShape="AACAPwAAgD8AAIA/AACAPwAAgD8AAIA/AACAPwAAgD8AAIA/AACAPwAAgD8AAIA/AACAPwAAgD8AAIA/AACAPwAAgD8AAIA/AACAPwAAgD8AAIA/AACAPwAAgD8AAIA/AACAPwAAgD8AAIA/AACAPwAAgD8AAIA/AACAPwAAgD8AAIA/AACAPwAAgD8AAIA/AACAPwAAgD8AAIA/AACAPwAAgD8AAIA/AACAPwAAgD8AAIA/AACAPwAAgD8AAIA/AACAPwAAgD8AAIA/AACAPwAAgD8AAIA/AACAPwAAgD8AAIA/AACAPwAAgD8AAIA/AACAPwAAgD8AAIA/AACAPwAAgD8AAIA/AACAPwAAgD8AAIA/AACAPwAAgD8AAIA/AACAPwAAgD8AAIA/AACAPwAAgD8AAIA/AACAPwAAgD8AAIA/AACAPwAAgD8AAIA/AACAPwAAgD8AAIA/AACAPwAAgD8AAIA/AACAPwAAgD8AAIA/AACAPwAAgD8AAIA/AACAPwAAgD8AAIA/AACAPwAAgD8AAIA/AACAPwAAgD8AAIA/AACAPwAAgD8AAIA/AACAPwAAgD8AAIA/AACAPwAAgD8AAIA/AACAPwAAgD8AAIA/AACAPwAAgD8AAIA/AACAPwAAgD8AAIA/AACAPwAAgD8AAIA/AACAPwAAgD8AAIA/AACAPwAAgD8AAIA/AACAPwAAgD8AAIA/AACAPwAAgD8AAIA/AACAPwAAgD8AAIA/AACAPwAAgD8AAIA/AACAPwAAgD8AAIA/AACAPwAAgD8AAIA/AACAPwAAgD8AAIA/AACAPwAAgD8AAIA/AACAPwAAgD8AAIA/AACAPwAAgD8AAIA/AACAPwAAgD8AAIA/AACAPwAAgD8AAIA/AACAPwAAgD8AAIA/AACAPwAAgD8AAIA/AACAPwAAgD8AAIA/AACAPwAAgD8AAIA/AACAPwAAgD8AAIA/AACAPwAAgD8AAIA/AACAPwAAgD8AAIA/AACAPwAAgD8AAIA/AACAPwAAgD8AAIA/AACAPwAAgD8AAIA/AACAPwAAgD8=" inputGain="5"/>
              <key/>
            </effect>
            <effect autoquit_syncmode="0" autoquit_denominator="4" gate="0" name="ladspaeffect" wet="1" on="1" autoquit_numerator="4" autoquit="1">
              <ladspacontrols ports="14" link="1">
                <port01 data="10" link="1"/>
                <port02 data="1" link="1"/>
                <port03 data="20" link="1"/>
                <port04 data="20" link="1"/>
                <port05 data="20" link="1"/>
                <port06 data="20" link="1"/>
                <port07 data="1" link="1"/>
                <port11 data="10"/>
                <port12 data="1"/>
                <port13 data="20"/>
                <port14 data="20"/>
                <port15 data="20"/>
                <port16 data="20"/>
                <port17 data="1"/>
              </ladspacontrols>
              <key>
                <attribute name="file" value="caps"/>
                <attribute name="plugin" value="AmpIV"/>
              </key>
            </effect>
            <effect autoquit_syncmode="0" autoquit_denominator="4" gate="0" name="ladspaeffect" wet="1" on="0" autoquit_numerator="4" autoquit="1">
              <ladspacontrols ports="4" link="1">
                <port01 data="1" link="1"/>
                <port02 data="-11.4" link="1"/>
                <port11 data="1"/>
                <port12 data="-11.4"/>
              </ladspacontrols>
              <key>
                <attribute name="file" value="caps"/>
                <attribute name="plugin" value="CabinetI"/>
              </key>
            </effect>
            <effect autoquit_syncmode="0" autoquit_denominator="4" gate="0" name="ladspaeffect" wet="1" on="1" autoquit_numerator="4" autoquit="1">
              <ladspacontrols ports="4" link="1">
                <port00 link="1">
                  <data value="6549.87" scale_type="log" id="7680245"/>
                </port00>
                <port01 data="9" link="1"/>
                <port10>
                  <data value="6549.87" scale_type="log" id="668574"/>
                </port10>
                <port11 data="9"/>
              </ladspacontrols>
              <key>
                <attribute name="file" value="lowpass_iir_1891"/>
                <attribute name="plugin" value="lowpass_iir"/>
              </key>
            </effect>
            <effect autoquit_syncmode="0" autoquit_denominator="4" gate="0" name="ladspaeffect" wet="1" on="1" autoquit_numerator="4" autoquit="1">
              <ladspacontrols ports="4">
                <port02 data="0.502"/>
                <port03 data="0.3745"/>
                <port04 data="0.218641"/>
                <port05 data="0.2075"/>
              </ladspacontrols>
              <key>
                <attribute name="file" value="caps"/>
                <attribute name="plugin" value="Plate2x2"/>
              </key>
            </effect>
          </fxchain>
        </instrumenttrack>
        <pattern type="1" name="" steps="16" muted="0" pos="59520">
          <note vol="197" pan="0" key="58" pos="0" len="48"/>
          <note vol="197" pan="0" key="54" pos="48" len="48"/>
          <note vol="197" pan="0" key="58" pos="96" len="48"/>
          <note vol="197" pan="0" key="61" pos="144" len="48"/>
          <note vol="197" pan="0" key="63" pos="192" len="48"/>
          <note vol="197" pan="0" key="65" pos="240" len="48"/>
          <note vol="197" pan="0" key="66" pos="288" len="48"/>
          <note vol="197" pan="0" key="70" pos="336" len="48"/>
          <note vol="197" pan="0" key="68" pos="384" len="144"/>
          <note vol="197" pan="0" key="65" pos="528" len="12"/>
          <note vol="197" pan="0" key="66" pos="540" len="36"/>
          <note vol="197" pan="0" key="65" pos="576" len="96"/>
          <note vol="197" pan="0" key="61" pos="672" len="48"/>
          <note vol="197" pan="0" key="65" pos="720" len="48"/>
          <note vol="197" pan="0" key="63" pos="768" len="24"/>
          <note vol="197" pan="0" key="65" pos="792" len="24"/>
          <note vol="197" pan="0" key="63" pos="816" len="24"/>
          <note vol="197" pan="0" key="60" pos="840" len="24"/>
          <note vol="197" pan="0" key="56" pos="864" len="24"/>
          <note vol="197" pan="0" key="48" pos="888" len="24"/>
          <note vol="197" pan="0" key="55" pos="912" len="24"/>
          <note vol="197" pan="0" key="53" pos="936" len="24"/>
          <note vol="197" pan="0" key="55" pos="960" len="96"/>
          <note vol="197" pan="0" key="58" pos="1056" len="96"/>
          <note vol="197" pan="0" key="59" pos="1152" len="192"/>
          <note vol="197" pan="0" key="63" pos="1344" len="96"/>
          <note vol="197" pan="0" key="63" pos="1440" len="96"/>
          <note vol="197" pan="0" key="66" pos="1536" len="192"/>
          <note vol="197" pan="0" key="58" pos="1728" len="16"/>
          <note vol="197" pan="0" key="61" pos="1744" len="16"/>
          <note vol="197" pan="0" key="58" pos="1760" len="16"/>
          <note vol="197" pan="0" key="63" pos="1776" len="16"/>
          <note vol="197" pan="0" key="65" pos="1792" len="16"/>
          <note vol="197" pan="0" key="66" pos="1808" len="16"/>
          <note vol="197" pan="0" key="70" pos="1824" len="16"/>
          <note vol="197" pan="0" key="66" pos="1840" len="16"/>
          <note vol="197" pan="0" key="65" pos="1856" len="16"/>
          <note vol="197" pan="0" key="63" pos="1872" len="16"/>
          <note vol="197" pan="0" key="61" pos="1888" len="16"/>
          <note vol="197" pan="0" key="58" pos="1904" len="16"/>
          <note vol="197" pan="0" key="61" pos="1920" len="48"/>
          <note vol="197" pan="0" key="63" pos="1968" len="48"/>
          <note vol="197" pan="0" key="65" pos="2016" len="48"/>
          <note vol="197" pan="0" key="70" pos="2064" len="48"/>
          <note vol="197" pan="0" key="56" pos="2112" len="96"/>
          <note vol="197" pan="0" key="59" pos="2208" len="12"/>
          <note vol="197" pan="0" key="61" pos="2220" len="84"/>
          <note vol="197" pan="0" key="60" pos="2304" len="96"/>
          <note vol="197" pan="0" key="61" pos="2400" len="96"/>
          <note vol="197" pan="0" key="54" pos="2496" len="96"/>
          <note vol="197" pan="0" key="59" pos="2592" len="96"/>
          <note vol="197" pan="0" key="65" pos="2688" len="96"/>
          <note vol="197" pan="0" key="66" pos="2784" len="96"/>
          <note vol="197" pan="0" key="70" pos="2880" len="96"/>
        </pattern>
      </track>
      <track type="0" name="Orchestra Soundfont 2 COMBO" solo="0" muted="1" mutedBeforeSolo="0">
        <instrumenttrack usemasterpitch="1" pitchrange="2" pitch="0" vol="100" basenote="57" pan="0" fxch="0">
          <instrument name="sf2player">
            <sf2player reverbRoomSize="0.2" reverbWidth="0.5" reverbDamping="0" chorusNum="3" patch="0" chorusLevel="2" src="/home/pass/samples/soundfonts/Orchestra Soundfont 2 COMBO.sf2" reverbOn="0" chorusOn="0" gain="5" chorusDepth="8" chorusSpeed="0.3" bank="0" reverbLevel="0.9">
              <key/>
            </sf2player>
          </instrument>
          <eldata fwet="0" fres="0.5" ftype="0" fcut="14000">
            <elvol x100="0" lspd_numerator="4" amt="0" lspd="0.1" lpdel="0" dec="0.5" lspd_syncmode="0" att="0" ctlenvamt="0" pdel="0" latt="0" sustain="0.5" lspd_denominator="4" hold="0.5" lamt="0" userwavefile="" lshp="0" rel="0.1"/>
            <elcut x100="0" lspd_numerator="4" amt="0" lspd="0.1" lpdel="0" dec="0.5" lspd_syncmode="0" att="0" ctlenvamt="0" pdel="0" latt="0" sustain="0.5" lspd_denominator="4" hold="0.5" lamt="0" userwavefile="" lshp="0" rel="0.1"/>
            <elres x100="0" lspd_numerator="4" amt="0" lspd="0.1" lpdel="0" dec="0.5" lspd_syncmode="0" att="0" ctlenvamt="0" pdel="0" latt="0" sustain="0.5" lspd_denominator="4" hold="0.5" lamt="0" userwavefile="" lshp="0" rel="0.1"/>
          </eldata>
          <chordcreator chordrange="1" chord="0" chord-enabled="0"/>
          <arpeggiator arprange="1" arptime_syncmode="0" arpskip="0" arpmiss="0" arptime="200" arpdir="0" arpmode="0" arptime_denominator="4" arp-enabled="0" arp="0" arpgate="100" arpcycle="0" arptime_numerator="4"/>
          <midiport inputcontroller="0" outputcontroller="0" outputprogram="1" basevelocity="63" outputchannel="1" writable="0" inputchannel="0" readable="0" fixedinputvelocity="-1" fixedoutputvelocity="-1" fixedoutputnote="-1"/>
          <fxchain numofeffects="0" enabled="0"/>
        </instrumenttrack>
        <pattern type="1" name="" steps="16" muted="0" pos="8064">
          <note vol="78" pan="0" key="61" pos="0" len="24"/>
          <note vol="78" pan="0" key="68" pos="24" len="24"/>
          <note vol="78" pan="0" key="73" pos="48" len="24"/>
          <note vol="78" pan="0" key="68" pos="72" len="24"/>
          <note vol="78" pan="0" key="76" pos="96" len="24"/>
          <note vol="78" pan="0" key="68" pos="120" len="24"/>
          <note vol="78" pan="0" key="73" pos="144" len="24"/>
          <note vol="78" pan="0" key="68" pos="168" len="24"/>
          <note vol="78" pan="0" key="63" pos="192" len="24"/>
          <note vol="78" pan="0" key="68" pos="216" len="24"/>
          <note vol="78" pan="0" key="71" pos="240" len="24"/>
          <note vol="78" pan="0" key="68" pos="264" len="24"/>
          <note vol="78" pan="0" key="63" pos="288" len="24"/>
          <note vol="78" pan="0" key="68" pos="312" len="24"/>
          <note vol="78" pan="0" key="71" pos="336" len="24"/>
          <note vol="78" pan="0" key="68" pos="360" len="24"/>
          <note vol="78" pan="0" key="64" pos="384" len="24"/>
          <note vol="78" pan="0" key="68" pos="408" len="24"/>
          <note vol="78" pan="0" key="73" pos="432" len="24"/>
          <note vol="78" pan="0" key="68" pos="456" len="24"/>
          <note vol="78" pan="0" key="64" pos="480" len="24"/>
          <note vol="78" pan="0" key="68" pos="504" len="24"/>
          <note vol="78" pan="0" key="73" pos="528" len="24"/>
          <note vol="78" pan="0" key="68" pos="552" len="24"/>
          <note vol="78" pan="0" key="66" pos="576" len="24"/>
          <note vol="78" pan="0" key="71" pos="600" len="24"/>
          <note vol="78" pan="0" key="76" pos="624" len="24"/>
          <note vol="78" pan="0" key="71" pos="648" len="24"/>
          <note vol="78" pan="0" key="66" pos="672" len="24"/>
          <note vol="78" pan="0" key="71" pos="696" len="24"/>
          <note vol="78" pan="0" key="75" pos="720" len="24"/>
          <note vol="78" pan="0" key="71" pos="744" len="24"/>
          <note vol="78" pan="0" key="64" pos="768" len="24"/>
          <note vol="78" pan="0" key="68" pos="792" len="24"/>
          <note vol="78" pan="0" key="73" pos="816" len="24"/>
          <note vol="78" pan="0" key="68" pos="840" len="24"/>
          <note vol="78" pan="0" key="64" pos="864" len="24"/>
          <note vol="78" pan="0" key="68" pos="888" len="24"/>
          <note vol="78" pan="0" key="73" pos="912" len="24"/>
          <note vol="78" pan="0" key="68" pos="936" len="24"/>
          <note vol="78" pan="0" key="63" pos="960" len="24"/>
          <note vol="78" pan="0" key="66" pos="984" len="24"/>
          <note vol="78" pan="0" key="71" pos="1008" len="24"/>
          <note vol="78" pan="0" key="66" pos="1032" len="24"/>
          <note vol="78" pan="0" key="63" pos="1056" len="24"/>
          <note vol="78" pan="0" key="66" pos="1080" len="24"/>
          <note vol="78" pan="0" key="71" pos="1104" len="24"/>
          <note vol="78" pan="0" key="66" pos="1128" len="24"/>
          <note vol="78" pan="0" key="64" pos="1152" len="24"/>
          <note vol="78" pan="0" key="68" pos="1176" len="24"/>
          <note vol="78" pan="0" key="73" pos="1200" len="24"/>
          <note vol="78" pan="0" key="68" pos="1224" len="24"/>
          <note vol="78" pan="0" key="64" pos="1248" len="24"/>
          <note vol="78" pan="0" key="68" pos="1272" len="24"/>
          <note vol="78" pan="0" key="73" pos="1296" len="24"/>
          <note vol="78" pan="0" key="68" pos="1320" len="24"/>
          <note vol="78" pan="0" key="66" pos="1344" len="24"/>
          <note vol="78" pan="0" key="68" pos="1368" len="24"/>
          <note vol="78" pan="0" key="66" pos="1392" len="24"/>
          <note vol="78" pan="0" key="64" pos="1416" len="24"/>
          <note vol="78" pan="0" key="63" pos="1440" len="24"/>
          <note vol="78" pan="0" key="60" pos="1464" len="24"/>
          <note vol="78" pan="0" key="66" pos="1488" len="24"/>
          <note vol="78" pan="0" key="63" pos="1512" len="24"/>
          <note vol="78" pan="0" key="61" pos="1536" len="24"/>
          <note vol="78" pan="0" key="68" pos="1560" len="24"/>
          <note vol="78" pan="0" key="73" pos="1584" len="24"/>
          <note vol="78" pan="0" key="68" pos="1608" len="24"/>
          <note vol="78" pan="0" key="61" pos="1632" len="24"/>
          <note vol="78" pan="0" key="68" pos="1656" len="24"/>
          <note vol="78" pan="0" key="73" pos="1680" len="24"/>
          <note vol="78" pan="0" key="68" pos="1704" len="24"/>
          <note vol="78" pan="0" key="63" pos="1728" len="24"/>
          <note vol="78" pan="0" key="68" pos="1752" len="24"/>
          <note vol="78" pan="0" key="71" pos="1776" len="24"/>
          <note vol="78" pan="0" key="68" pos="1800" len="24"/>
          <note vol="78" pan="0" key="63" pos="1824" len="24"/>
          <note vol="78" pan="0" key="68" pos="1848" len="24"/>
          <note vol="78" pan="0" key="71" pos="1872" len="24"/>
          <note vol="78" pan="0" key="68" pos="1896" len="24"/>
          <note vol="78" pan="0" key="61" pos="1920" len="24"/>
          <note vol="78" pan="0" key="66" pos="1944" len="24"/>
          <note vol="78" pan="0" key="70" pos="1968" len="24"/>
          <note vol="78" pan="0" key="66" pos="1992" len="24"/>
          <note vol="78" pan="0" key="61" pos="2016" len="24"/>
          <note vol="78" pan="0" key="66" pos="2040" len="24"/>
          <note vol="78" pan="0" key="70" pos="2064" len="24"/>
          <note vol="78" pan="0" key="66" pos="2088" len="24"/>
          <note vol="78" pan="0" key="61" pos="2112" len="24"/>
          <note vol="78" pan="0" key="66" pos="2136" len="24"/>
          <note vol="78" pan="0" key="70" pos="2160" len="24"/>
          <note vol="78" pan="0" key="66" pos="2184" len="24"/>
          <note vol="78" pan="0" key="61" pos="2208" len="24"/>
          <note vol="78" pan="0" key="66" pos="2232" len="24"/>
          <note vol="78" pan="0" key="70" pos="2256" len="24"/>
          <note vol="78" pan="0" key="66" pos="2280" len="24"/>
          <note vol="78" pan="0" key="66" pos="2304" len="24"/>
          <note vol="78" pan="0" key="69" pos="2328" len="24"/>
          <note vol="78" pan="0" key="73" pos="2352" len="24"/>
          <note vol="78" pan="0" key="69" pos="2376" len="24"/>
          <note vol="78" pan="0" key="66" pos="2400" len="24"/>
          <note vol="78" pan="0" key="69" pos="2424" len="24"/>
          <note vol="78" pan="0" key="73" pos="2448" len="24"/>
          <note vol="78" pan="0" key="69" pos="2472" len="24"/>
          <note vol="78" pan="0" key="63" pos="2496" len="24"/>
          <note vol="78" pan="0" key="68" pos="2520" len="24"/>
          <note vol="78" pan="0" key="73" pos="2544" len="24"/>
          <note vol="78" pan="0" key="68" pos="2568" len="24"/>
          <note vol="78" pan="0" key="63" pos="2592" len="24"/>
          <note vol="78" pan="0" key="68" pos="2616" len="24"/>
          <note vol="78" pan="0" key="73" pos="2640" len="24"/>
          <note vol="78" pan="0" key="68" pos="2664" len="24"/>
          <note vol="78" pan="0" key="66" pos="2688" len="24"/>
          <note vol="78" pan="0" key="71" pos="2712" len="24"/>
          <note vol="78" pan="0" key="75" pos="2736" len="24"/>
          <note vol="78" pan="0" key="71" pos="2760" len="24"/>
          <note vol="78" pan="0" key="66" pos="2784" len="24"/>
          <note vol="78" pan="0" key="71" pos="2808" len="24"/>
          <note vol="78" pan="0" key="75" pos="2832" len="24"/>
          <note vol="78" pan="0" key="71" pos="2856" len="24"/>
          <note vol="78" pan="0" key="66" pos="2880" len="96"/>
          <note vol="78" pan="0" key="59" pos="2976" len="96"/>
          <note vol="78" pan="0" key="68" pos="3072" len="12"/>
          <note vol="78" pan="0" key="64" pos="3084" len="12"/>
          <note vol="78" pan="0" key="61" pos="3096" len="12"/>
          <note vol="78" pan="0" key="56" pos="3108" len="12"/>
          <note vol="78" pan="0" key="52" pos="3120" len="12"/>
          <note vol="78" pan="0" key="49" pos="3132" len="12"/>
          <note vol="78" pan="0" key="61" pos="3168" len="12"/>
          <note vol="78" pan="0" key="56" pos="3180" len="12"/>
          <note vol="78" pan="0" key="52" pos="3192" len="12"/>
          <note vol="78" pan="0" key="49" pos="3204" len="12"/>
          <note vol="78" pan="0" key="76" pos="3216" len="12"/>
          <note vol="78" pan="0" key="71" pos="3228" len="12"/>
          <note vol="78" pan="0" key="68" pos="3240" len="12"/>
          <note vol="78" pan="0" key="64" pos="3252" len="12"/>
          <note vol="78" pan="0" key="76" pos="3264" len="12"/>
          <note vol="78" pan="0" key="71" pos="3276" len="12"/>
          <note vol="78" pan="0" key="80" pos="3288" len="12"/>
          <note vol="78" pan="0" key="76" pos="3300" len="12"/>
          <note vol="78" pan="0" key="71" pos="3312" len="12"/>
          <note vol="78" pan="0" key="68" pos="3324" len="12"/>
          <note vol="78" pan="0" key="64" pos="3336" len="12"/>
          <note vol="78" pan="0" key="61" pos="3348" len="12"/>
          <note vol="78" pan="0" key="73" pos="3360" len="12"/>
          <note vol="78" pan="0" key="68" pos="3372" len="12"/>
          <note vol="78" pan="0" key="64" pos="3384" len="12"/>
          <note vol="78" pan="0" key="61" pos="3396" len="12"/>
          <note vol="78" pan="0" key="68" pos="3408" len="12"/>
          <note vol="78" pan="0" key="64" pos="3420" len="12"/>
          <note vol="78" pan="0" key="56" pos="3432" len="12"/>
          <note vol="78" pan="0" key="49" pos="3444" len="12"/>
          <note vol="78" pan="0" key="69" pos="3456" len="12"/>
          <note vol="78" pan="0" key="66" pos="3468" len="12"/>
          <note vol="78" pan="0" key="57" pos="3480" len="12"/>
          <note vol="78" pan="0" key="54" pos="3492" len="12"/>
          <note vol="78" pan="0" key="49" pos="3504" len="12"/>
          <note vol="78" pan="0" key="47" pos="3516" len="12"/>
          <note vol="78" pan="0" key="74" pos="3528" len="12"/>
          <note vol="78" pan="0" key="69" pos="3540" len="12"/>
          <note vol="78" pan="0" key="66" pos="3552" len="12"/>
          <note vol="78" pan="0" key="61" pos="3564" len="12"/>
          <note vol="78" pan="0" key="57" pos="3576" len="12"/>
          <note vol="78" pan="0" key="54" pos="3588" len="12"/>
          <note vol="78" pan="0" key="78" pos="3600" len="12"/>
          <note vol="78" pan="0" key="74" pos="3612" len="12"/>
          <note vol="78" pan="0" key="69" pos="3624" len="12"/>
          <note vol="78" pan="0" key="66" pos="3636" len="12"/>
          <note vol="78" pan="0" key="81" pos="3672" len="12"/>
          <note vol="78" pan="0" key="78" pos="3684" len="12"/>
          <note vol="78" pan="0" key="73" pos="3696" len="12"/>
          <note vol="78" pan="0" key="69" pos="3708" len="12"/>
          <note vol="78" pan="0" key="66" pos="3720" len="12"/>
          <note vol="78" pan="0" key="61" pos="3732" len="12"/>
          <note vol="78" pan="0" key="74" pos="3744" len="12"/>
          <note vol="78" pan="0" key="71" pos="3756" len="12"/>
          <note vol="78" pan="0" key="66" pos="3768" len="12"/>
          <note vol="78" pan="0" key="61" pos="3780" len="12"/>
          <note vol="78" pan="0" key="69" pos="3792" len="12"/>
          <note vol="78" pan="0" key="66" pos="3804" len="12"/>
          <note vol="78" pan="0" key="61" pos="3816" len="12"/>
          <note vol="78" pan="0" key="57" pos="3828" len="12"/>
          <note vol="78" pan="0" key="68" pos="3840" len="12"/>
          <note vol="78" pan="0" key="64" pos="3852" len="12"/>
          <note vol="78" pan="0" key="61" pos="3864" len="12"/>
          <note vol="78" pan="0" key="56" pos="3876" len="12"/>
          <note vol="78" pan="0" key="73" pos="3912" len="12"/>
          <note vol="78" pan="0" key="69" pos="3924" len="12"/>
          <note vol="78" pan="0" key="68" pos="3936" len="12"/>
          <note vol="78" pan="0" key="64" pos="3948" len="12"/>
          <note vol="78" pan="0" key="56" pos="3960" len="12"/>
          <note vol="78" pan="0" key="52" pos="3972" len="12"/>
          <note vol="78" pan="0" key="76" pos="3984" len="12"/>
          <note vol="78" pan="0" key="71" pos="3996" len="12"/>
          <note vol="78" pan="0" key="68" pos="4008" len="12"/>
          <note vol="78" pan="0" key="64" pos="4020" len="12"/>
          <note vol="78" pan="0" key="81" pos="4056" len="12"/>
          <note vol="78" pan="0" key="78" pos="4068" len="12"/>
          <note vol="78" pan="0" key="78" pos="4080" len="12"/>
          <note vol="78" pan="0" key="69" pos="4092" len="12"/>
          <note vol="78" pan="0" key="66" pos="4104" len="12"/>
          <note vol="78" pan="0" key="64" pos="4116" len="12"/>
          <note vol="78" pan="0" key="73" pos="4128" len="12"/>
          <note vol="78" pan="0" key="69" pos="4140" len="12"/>
          <note vol="78" pan="0" key="66" pos="4152" len="12"/>
          <note vol="78" pan="0" key="61" pos="4164" len="12"/>
          <note vol="78" pan="0" key="68" pos="4176" len="12"/>
          <note vol="78" pan="0" key="64" pos="4188" len="12"/>
          <note vol="78" pan="0" key="61" pos="4200" len="12"/>
          <note vol="78" pan="0" key="56" pos="4212" len="12"/>
          <note vol="78" pan="0" key="69" pos="4224" len="12"/>
          <note vol="78" pan="0" key="66" pos="4236" len="12"/>
          <note vol="78" pan="0" key="57" pos="4248" len="12"/>
          <note vol="78" pan="0" key="54" pos="4260" len="12"/>
          <note vol="78" pan="0" key="52" pos="4272" len="12"/>
          <note vol="78" pan="0" key="49" pos="4284" len="12"/>
          <note vol="78" pan="0" key="74" pos="4296" len="12"/>
          <note vol="78" pan="0" key="69" pos="4308" len="12"/>
          <note vol="78" pan="0" key="66" pos="4320" len="12"/>
          <note vol="78" pan="0" key="61" pos="4332" len="12"/>
          <note vol="78" pan="0" key="57" pos="4344" len="12"/>
          <note vol="78" pan="0" key="54" pos="4356" len="12"/>
          <note vol="78" pan="0" key="78" pos="4368" len="12"/>
          <note vol="78" pan="0" key="74" pos="4380" len="12"/>
          <note vol="78" pan="0" key="69" pos="4392" len="12"/>
          <note vol="78" pan="0" key="66" pos="4404" len="12"/>
          <note vol="78" pan="0" key="81" pos="4440" len="12"/>
          <note vol="78" pan="0" key="78" pos="4452" len="12"/>
          <note vol="78" pan="0" key="73" pos="4464" len="12"/>
          <note vol="78" pan="0" key="69" pos="4476" len="12"/>
          <note vol="78" pan="0" key="66" pos="4488" len="12"/>
          <note vol="78" pan="0" key="61" pos="4500" len="12"/>
          <note vol="78" pan="0" key="74" pos="4512" len="12"/>
          <note vol="78" pan="0" key="71" pos="4524" len="12"/>
          <note vol="78" pan="0" key="66" pos="4536" len="12"/>
          <note vol="78" pan="0" key="61" pos="4548" len="12"/>
          <note vol="78" pan="0" key="69" pos="4560" len="12"/>
          <note vol="78" pan="0" key="66" pos="4572" len="12"/>
          <note vol="78" pan="0" key="61" pos="4584" len="12"/>
          <note vol="78" pan="0" key="57" pos="4596" len="12"/>
        </pattern>
        <pattern type="1" name="" steps="16" muted="0" pos="15744">
          <note vol="78" pan="0" key="61" pos="0" len="24"/>
          <note vol="78" pan="0" key="68" pos="24" len="24"/>
          <note vol="78" pan="0" key="73" pos="48" len="24"/>
          <note vol="78" pan="0" key="68" pos="72" len="24"/>
          <note vol="78" pan="0" key="76" pos="96" len="24"/>
          <note vol="78" pan="0" key="68" pos="120" len="24"/>
          <note vol="78" pan="0" key="73" pos="144" len="24"/>
          <note vol="78" pan="0" key="68" pos="168" len="24"/>
          <note vol="78" pan="0" key="63" pos="192" len="24"/>
          <note vol="78" pan="0" key="68" pos="216" len="24"/>
          <note vol="78" pan="0" key="71" pos="240" len="24"/>
          <note vol="78" pan="0" key="68" pos="264" len="24"/>
          <note vol="78" pan="0" key="63" pos="288" len="24"/>
          <note vol="78" pan="0" key="68" pos="312" len="24"/>
          <note vol="78" pan="0" key="71" pos="336" len="24"/>
          <note vol="78" pan="0" key="68" pos="360" len="24"/>
          <note vol="78" pan="0" key="64" pos="384" len="24"/>
          <note vol="78" pan="0" key="68" pos="408" len="24"/>
          <note vol="78" pan="0" key="73" pos="432" len="24"/>
          <note vol="78" pan="0" key="68" pos="456" len="24"/>
          <note vol="78" pan="0" key="64" pos="480" len="24"/>
          <note vol="78" pan="0" key="68" pos="504" len="24"/>
          <note vol="78" pan="0" key="73" pos="528" len="24"/>
          <note vol="78" pan="0" key="68" pos="552" len="24"/>
          <note vol="78" pan="0" key="66" pos="576" len="24"/>
          <note vol="78" pan="0" key="71" pos="600" len="24"/>
          <note vol="78" pan="0" key="76" pos="624" len="24"/>
          <note vol="78" pan="0" key="71" pos="648" len="24"/>
          <note vol="78" pan="0" key="66" pos="672" len="24"/>
          <note vol="78" pan="0" key="71" pos="696" len="24"/>
          <note vol="78" pan="0" key="75" pos="720" len="24"/>
          <note vol="78" pan="0" key="71" pos="744" len="24"/>
          <note vol="78" pan="0" key="64" pos="768" len="24"/>
          <note vol="78" pan="0" key="68" pos="792" len="24"/>
          <note vol="78" pan="0" key="73" pos="816" len="24"/>
          <note vol="78" pan="0" key="68" pos="840" len="24"/>
          <note vol="78" pan="0" key="64" pos="864" len="24"/>
          <note vol="78" pan="0" key="68" pos="888" len="24"/>
          <note vol="78" pan="0" key="73" pos="912" len="24"/>
          <note vol="78" pan="0" key="68" pos="936" len="24"/>
          <note vol="78" pan="0" key="63" pos="960" len="24"/>
          <note vol="78" pan="0" key="66" pos="984" len="24"/>
          <note vol="78" pan="0" key="71" pos="1008" len="24"/>
          <note vol="78" pan="0" key="66" pos="1032" len="24"/>
          <note vol="78" pan="0" key="63" pos="1056" len="24"/>
          <note vol="78" pan="0" key="66" pos="1080" len="24"/>
          <note vol="78" pan="0" key="71" pos="1104" len="24"/>
          <note vol="78" pan="0" key="66" pos="1128" len="24"/>
          <note vol="78" pan="0" key="64" pos="1152" len="24"/>
          <note vol="78" pan="0" key="68" pos="1176" len="24"/>
          <note vol="78" pan="0" key="73" pos="1200" len="24"/>
          <note vol="78" pan="0" key="68" pos="1224" len="24"/>
          <note vol="78" pan="0" key="64" pos="1248" len="24"/>
          <note vol="78" pan="0" key="68" pos="1272" len="24"/>
          <note vol="78" pan="0" key="73" pos="1296" len="24"/>
          <note vol="78" pan="0" key="68" pos="1320" len="24"/>
          <note vol="78" pan="0" key="66" pos="1344" len="24"/>
          <note vol="78" pan="0" key="68" pos="1368" len="24"/>
          <note vol="78" pan="0" key="66" pos="1392" len="24"/>
          <note vol="78" pan="0" key="64" pos="1416" len="24"/>
          <note vol="78" pan="0" key="63" pos="1440" len="24"/>
          <note vol="78" pan="0" key="60" pos="1464" len="24"/>
          <note vol="78" pan="0" key="66" pos="1488" len="24"/>
          <note vol="78" pan="0" key="63" pos="1512" len="24"/>
          <note vol="78" pan="0" key="61" pos="1536" len="24"/>
          <note vol="78" pan="0" key="68" pos="1560" len="24"/>
          <note vol="78" pan="0" key="73" pos="1584" len="24"/>
          <note vol="78" pan="0" key="68" pos="1608" len="24"/>
          <note vol="78" pan="0" key="61" pos="1632" len="24"/>
          <note vol="78" pan="0" key="68" pos="1656" len="24"/>
          <note vol="78" pan="0" key="73" pos="1680" len="24"/>
          <note vol="78" pan="0" key="68" pos="1704" len="24"/>
          <note vol="78" pan="0" key="63" pos="1728" len="24"/>
          <note vol="78" pan="0" key="68" pos="1752" len="24"/>
          <note vol="78" pan="0" key="71" pos="1776" len="24"/>
          <note vol="78" pan="0" key="68" pos="1800" len="24"/>
          <note vol="78" pan="0" key="63" pos="1824" len="24"/>
          <note vol="78" pan="0" key="68" pos="1848" len="24"/>
          <note vol="78" pan="0" key="71" pos="1872" len="24"/>
          <note vol="78" pan="0" key="68" pos="1896" len="24"/>
          <note vol="78" pan="0" key="61" pos="1920" len="24"/>
          <note vol="78" pan="0" key="66" pos="1944" len="24"/>
          <note vol="78" pan="0" key="70" pos="1968" len="24"/>
          <note vol="78" pan="0" key="66" pos="1992" len="24"/>
          <note vol="78" pan="0" key="61" pos="2016" len="24"/>
          <note vol="78" pan="0" key="66" pos="2040" len="24"/>
          <note vol="78" pan="0" key="70" pos="2064" len="24"/>
          <note vol="78" pan="0" key="66" pos="2088" len="24"/>
          <note vol="78" pan="0" key="61" pos="2112" len="24"/>
          <note vol="78" pan="0" key="66" pos="2136" len="24"/>
          <note vol="78" pan="0" key="70" pos="2160" len="24"/>
          <note vol="78" pan="0" key="66" pos="2184" len="24"/>
          <note vol="78" pan="0" key="61" pos="2208" len="24"/>
          <note vol="78" pan="0" key="66" pos="2232" len="24"/>
          <note vol="78" pan="0" key="70" pos="2256" len="24"/>
          <note vol="78" pan="0" key="66" pos="2280" len="24"/>
          <note vol="78" pan="0" key="66" pos="2304" len="24"/>
          <note vol="78" pan="0" key="69" pos="2328" len="24"/>
          <note vol="78" pan="0" key="73" pos="2352" len="24"/>
          <note vol="78" pan="0" key="69" pos="2376" len="24"/>
          <note vol="78" pan="0" key="66" pos="2400" len="24"/>
          <note vol="78" pan="0" key="69" pos="2424" len="24"/>
          <note vol="78" pan="0" key="73" pos="2448" len="24"/>
          <note vol="78" pan="0" key="69" pos="2472" len="24"/>
          <note vol="78" pan="0" key="63" pos="2496" len="24"/>
          <note vol="78" pan="0" key="68" pos="2520" len="24"/>
          <note vol="78" pan="0" key="73" pos="2544" len="24"/>
          <note vol="78" pan="0" key="68" pos="2568" len="24"/>
          <note vol="78" pan="0" key="63" pos="2592" len="24"/>
          <note vol="78" pan="0" key="68" pos="2616" len="24"/>
          <note vol="78" pan="0" key="73" pos="2640" len="24"/>
          <note vol="78" pan="0" key="68" pos="2664" len="24"/>
          <note vol="78" pan="0" key="66" pos="2688" len="24"/>
          <note vol="78" pan="0" key="71" pos="2712" len="24"/>
          <note vol="78" pan="0" key="75" pos="2736" len="24"/>
          <note vol="78" pan="0" key="71" pos="2760" len="24"/>
          <note vol="78" pan="0" key="66" pos="2784" len="24"/>
          <note vol="78" pan="0" key="71" pos="2808" len="24"/>
          <note vol="78" pan="0" key="75" pos="2832" len="24"/>
          <note vol="78" pan="0" key="71" pos="2856" len="24"/>
          <note vol="78" pan="0" key="63" pos="2880" len="24"/>
          <note vol="78" pan="0" key="51" pos="2880" len="24"/>
          <note vol="78" pan="0" key="63" pos="2904" len="24"/>
          <note vol="78" pan="0" key="51" pos="2904" len="24"/>
          <note vol="78" pan="0" key="71" pos="2976" len="24"/>
          <note vol="78" pan="0" key="59" pos="2976" len="24"/>
          <note vol="78" pan="0" key="71" pos="3000" len="24"/>
          <note vol="78" pan="0" key="59" pos="3000" len="24"/>
          <note vol="78" pan="0" key="56" pos="3072" len="12"/>
          <note vol="78" pan="0" key="61" pos="3084" len="12"/>
          <note vol="78" pan="0" key="64" pos="3096" len="12"/>
          <note vol="78" pan="0" key="68" pos="3108" len="12"/>
          <note vol="78" pan="0" key="73" pos="3120" len="12"/>
          <note vol="78" pan="0" key="76" pos="3132" len="12"/>
          <note vol="78" pan="0" key="80" pos="3144" len="12"/>
          <note vol="78" pan="0" key="83" pos="3156" len="12"/>
          <note vol="78" pan="0" key="73" pos="3168" len="12"/>
          <note vol="78" pan="0" key="83" pos="3180" len="12"/>
          <note vol="78" pan="0" key="80" pos="3192" len="12"/>
          <note vol="78" pan="0" key="76" pos="3204" len="12"/>
          <note vol="78" pan="0" key="73" pos="3216" len="12"/>
          <note vol="78" pan="0" key="68" pos="3228" len="12"/>
          <note vol="78" pan="0" key="64" pos="3240" len="12"/>
          <note vol="78" pan="0" key="61" pos="3252" len="12"/>
          <note vol="78" pan="0" key="56" pos="3264" len="12"/>
          <note vol="78" pan="0" key="61" pos="3276" len="12"/>
          <note vol="78" pan="0" key="64" pos="3288" len="12"/>
          <note vol="78" pan="0" key="68" pos="3300" len="12"/>
          <note vol="78" pan="0" key="73" pos="3312" len="12"/>
          <note vol="78" pan="0" key="76" pos="3324" len="12"/>
          <note vol="78" pan="0" key="80" pos="3336" len="12"/>
          <note vol="78" pan="0" key="83" pos="3348" len="12"/>
          <note vol="78" pan="0" key="73" pos="3360" len="12"/>
          <note vol="78" pan="0" key="83" pos="3372" len="12"/>
          <note vol="78" pan="0" key="80" pos="3384" len="12"/>
          <note vol="78" pan="0" key="76" pos="3396" len="12"/>
          <note vol="78" pan="0" key="73" pos="3408" len="12"/>
          <note vol="78" pan="0" key="68" pos="3420" len="12"/>
          <note vol="78" pan="0" key="64" pos="3432" len="12"/>
          <note vol="78" pan="0" key="61" pos="3444" len="12"/>
          <note vol="78" pan="0" key="54" pos="3456" len="12"/>
          <note vol="78" pan="0" key="59" pos="3468" len="12"/>
          <note vol="78" pan="0" key="63" pos="3480" len="12"/>
          <note vol="78" pan="0" key="66" pos="3492" len="12"/>
          <note vol="78" pan="0" key="69" pos="3504" len="12"/>
          <note vol="78" pan="0" key="73" pos="3516" len="12"/>
          <note vol="78" pan="0" key="76" pos="3528" len="12"/>
          <note vol="78" pan="0" key="80" pos="3540" len="12"/>
          <note vol="78" pan="0" key="83" pos="3552" len="12"/>
          <note vol="78" pan="0" key="80" pos="3564" len="12"/>
          <note vol="78" pan="0" key="75" pos="3576" len="12"/>
          <note vol="78" pan="0" key="71" pos="3588" len="12"/>
          <note vol="78" pan="0" key="66" pos="3600" len="12"/>
          <note vol="78" pan="0" key="61" pos="3612" len="12"/>
          <note vol="78" pan="0" key="59" pos="3624" len="12"/>
          <note vol="78" pan="0" key="54" pos="3636" len="12"/>
          <note vol="78" pan="0" key="54" pos="3648" len="12"/>
          <note vol="78" pan="0" key="59" pos="3660" len="12"/>
          <note vol="78" pan="0" key="63" pos="3672" len="12"/>
          <note vol="78" pan="0" key="66" pos="3684" len="12"/>
          <note vol="78" pan="0" key="69" pos="3696" len="12"/>
          <note vol="78" pan="0" key="73" pos="3708" len="12"/>
          <note vol="78" pan="0" key="76" pos="3720" len="12"/>
          <note vol="78" pan="0" key="80" pos="3732" len="12"/>
          <note vol="78" pan="0" key="83" pos="3744" len="12"/>
          <note vol="78" pan="0" key="80" pos="3756" len="12"/>
          <note vol="78" pan="0" key="75" pos="3768" len="12"/>
          <note vol="78" pan="0" key="71" pos="3780" len="12"/>
          <note vol="78" pan="0" key="66" pos="3792" len="12"/>
          <note vol="78" pan="0" key="61" pos="3804" len="12"/>
          <note vol="78" pan="0" key="59" pos="3816" len="12"/>
          <note vol="78" pan="0" key="54" pos="3828" len="12"/>
          <note vol="78" pan="0" key="54" pos="3840" len="12"/>
          <note vol="78" pan="0" key="57" pos="3852" len="12"/>
          <note vol="78" pan="0" key="61" pos="3864" len="12"/>
          <note vol="78" pan="0" key="64" pos="3876" len="12"/>
          <note vol="78" pan="0" key="66" pos="3888" len="12"/>
          <note vol="78" pan="0" key="73" pos="3900" len="12"/>
          <note vol="78" pan="0" key="76" pos="3912" len="12"/>
          <note vol="78" pan="0" key="78" pos="3924" len="12"/>
          <note vol="78" pan="0" key="82" pos="3936" len="12"/>
          <note vol="78" pan="0" key="78" pos="3948" len="12"/>
          <note vol="78" pan="0" key="76" pos="3960" len="12"/>
          <note vol="78" pan="0" key="73" pos="3972" len="12"/>
          <note vol="78" pan="0" key="66" pos="3984" len="12"/>
          <note vol="78" pan="0" key="64" pos="3996" len="12"/>
          <note vol="78" pan="0" key="61" pos="4008" len="12"/>
          <note vol="78" pan="0" key="57" pos="4020" len="12"/>
          <note vol="78" pan="0" key="54" pos="4032" len="12"/>
          <note vol="78" pan="0" key="57" pos="4044" len="12"/>
          <note vol="78" pan="0" key="61" pos="4056" len="12"/>
          <note vol="78" pan="0" key="64" pos="4068" len="12"/>
          <note vol="78" pan="0" key="66" pos="4080" len="12"/>
          <note vol="78" pan="0" key="73" pos="4092" len="12"/>
          <note vol="78" pan="0" key="76" pos="4104" len="12"/>
          <note vol="78" pan="0" key="78" pos="4116" len="12"/>
          <note vol="78" pan="0" key="82" pos="4128" len="12"/>
          <note vol="78" pan="0" key="78" pos="4140" len="12"/>
          <note vol="78" pan="0" key="76" pos="4152" len="12"/>
          <note vol="78" pan="0" key="73" pos="4164" len="12"/>
          <note vol="78" pan="0" key="66" pos="4176" len="12"/>
          <note vol="78" pan="0" key="64" pos="4188" len="12"/>
          <note vol="78" pan="0" key="61" pos="4200" len="12"/>
          <note vol="78" pan="0" key="57" pos="4212" len="12"/>
          <note vol="78" pan="0" key="51" pos="4224" len="12"/>
          <note vol="78" pan="0" key="54" pos="4236" len="12"/>
          <note vol="78" pan="0" key="57" pos="4248" len="12"/>
          <note vol="78" pan="0" key="63" pos="4260" len="12"/>
          <note vol="78" pan="0" key="66" pos="4272" len="12"/>
          <note vol="78" pan="0" key="69" pos="4284" len="12"/>
          <note vol="78" pan="0" key="73" pos="4296" len="12"/>
          <note vol="78" pan="0" key="76" pos="4308" len="12"/>
          <note vol="78" pan="0" key="81" pos="4320" len="12"/>
          <note vol="78" pan="0" key="78" pos="4332" len="12"/>
          <note vol="78" pan="0" key="73" pos="4344" len="12"/>
          <note vol="78" pan="0" key="69" pos="4356" len="12"/>
          <note vol="78" pan="0" key="66" pos="4368" len="12"/>
          <note vol="78" pan="0" key="63" pos="4380" len="12"/>
          <note vol="78" pan="0" key="57" pos="4392" len="12"/>
          <note vol="78" pan="0" key="54" pos="4404" len="12"/>
          <note vol="78" pan="0" key="51" pos="4416" len="12"/>
          <note vol="78" pan="0" key="54" pos="4428" len="12"/>
          <note vol="78" pan="0" key="57" pos="4440" len="12"/>
          <note vol="78" pan="0" key="63" pos="4452" len="12"/>
          <note vol="78" pan="0" key="66" pos="4464" len="12"/>
          <note vol="78" pan="0" key="69" pos="4476" len="12"/>
          <note vol="78" pan="0" key="73" pos="4488" len="12"/>
          <note vol="78" pan="0" key="76" pos="4500" len="12"/>
          <note vol="78" pan="0" key="81" pos="4512" len="12"/>
          <note vol="78" pan="0" key="78" pos="4524" len="12"/>
          <note vol="78" pan="0" key="73" pos="4536" len="12"/>
          <note vol="78" pan="0" key="69" pos="4548" len="12"/>
          <note vol="78" pan="0" key="66" pos="4560" len="12"/>
          <note vol="78" pan="0" key="63" pos="4572" len="12"/>
          <note vol="78" pan="0" key="57" pos="4584" len="12"/>
          <note vol="78" pan="0" key="54" pos="4596" len="12"/>
          <note vol="78" pan="0" key="52" pos="4608" len="12"/>
          <note vol="78" pan="0" key="61" pos="4620" len="12"/>
          <note vol="78" pan="0" key="64" pos="4632" len="12"/>
          <note vol="78" pan="0" key="68" pos="4644" len="12"/>
          <note vol="78" pan="0" key="73" pos="4656" len="12"/>
          <note vol="78" pan="0" key="76" pos="4668" len="12"/>
          <note vol="78" pan="0" key="80" pos="4680" len="12"/>
          <note vol="78" pan="0" key="83" pos="4692" len="12"/>
          <note vol="78" pan="0" key="73" pos="4704" len="12"/>
          <note vol="78" pan="0" key="83" pos="4716" len="12"/>
          <note vol="78" pan="0" key="80" pos="4728" len="12"/>
          <note vol="78" pan="0" key="76" pos="4740" len="12"/>
          <note vol="78" pan="0" key="73" pos="4752" len="12"/>
          <note vol="78" pan="0" key="68" pos="4764" len="12"/>
          <note vol="78" pan="0" key="64" pos="4776" len="12"/>
          <note vol="78" pan="0" key="61" pos="4788" len="12"/>
          <note vol="78" pan="0" key="52" pos="4800" len="12"/>
          <note vol="78" pan="0" key="61" pos="4812" len="12"/>
          <note vol="78" pan="0" key="64" pos="4824" len="12"/>
          <note vol="78" pan="0" key="68" pos="4836" len="12"/>
          <note vol="78" pan="0" key="73" pos="4848" len="12"/>
          <note vol="78" pan="0" key="76" pos="4860" len="12"/>
          <note vol="78" pan="0" key="80" pos="4872" len="12"/>
          <note vol="78" pan="0" key="83" pos="4884" len="12"/>
          <note vol="78" pan="0" key="73" pos="4896" len="12"/>
          <note vol="78" pan="0" key="83" pos="4908" len="12"/>
          <note vol="78" pan="0" key="80" pos="4920" len="12"/>
          <note vol="78" pan="0" key="76" pos="4932" len="12"/>
          <note vol="78" pan="0" key="73" pos="4944" len="12"/>
          <note vol="78" pan="0" key="68" pos="4956" len="12"/>
          <note vol="78" pan="0" key="64" pos="4968" len="12"/>
          <note vol="78" pan="0" key="61" pos="4980" len="12"/>
          <note vol="78" pan="0" key="54" pos="4992" len="12"/>
          <note vol="78" pan="0" key="59" pos="5004" len="12"/>
          <note vol="78" pan="0" key="63" pos="5016" len="12"/>
          <note vol="78" pan="0" key="66" pos="5028" len="12"/>
          <note vol="78" pan="0" key="69" pos="5040" len="12"/>
          <note vol="78" pan="0" key="73" pos="5052" len="12"/>
          <note vol="78" pan="0" key="76" pos="5064" len="12"/>
          <note vol="78" pan="0" key="80" pos="5076" len="12"/>
          <note vol="78" pan="0" key="83" pos="5088" len="12"/>
          <note vol="78" pan="0" key="80" pos="5100" len="12"/>
          <note vol="78" pan="0" key="75" pos="5112" len="12"/>
          <note vol="78" pan="0" key="71" pos="5124" len="12"/>
          <note vol="78" pan="0" key="66" pos="5136" len="12"/>
          <note vol="78" pan="0" key="61" pos="5148" len="12"/>
          <note vol="78" pan="0" key="59" pos="5160" len="12"/>
          <note vol="78" pan="0" key="54" pos="5172" len="12"/>
          <note vol="78" pan="0" key="54" pos="5184" len="12"/>
          <note vol="78" pan="0" key="59" pos="5196" len="12"/>
          <note vol="78" pan="0" key="63" pos="5208" len="12"/>
          <note vol="78" pan="0" key="66" pos="5220" len="12"/>
          <note vol="78" pan="0" key="69" pos="5232" len="12"/>
          <note vol="78" pan="0" key="73" pos="5244" len="12"/>
          <note vol="78" pan="0" key="76" pos="5256" len="12"/>
          <note vol="78" pan="0" key="80" pos="5268" len="12"/>
          <note vol="78" pan="0" key="83" pos="5280" len="12"/>
          <note vol="78" pan="0" key="80" pos="5292" len="12"/>
          <note vol="78" pan="0" key="75" pos="5304" len="12"/>
          <note vol="78" pan="0" key="71" pos="5316" len="12"/>
          <note vol="78" pan="0" key="66" pos="5328" len="12"/>
          <note vol="78" pan="0" key="61" pos="5340" len="12"/>
          <note vol="78" pan="0" key="59" pos="5352" len="12"/>
          <note vol="78" pan="0" key="54" pos="5364" len="12"/>
          <note vol="78" pan="0" key="54" pos="5376" len="12"/>
          <note vol="78" pan="0" key="57" pos="5388" len="12"/>
          <note vol="78" pan="0" key="63" pos="5400" len="12"/>
          <note vol="78" pan="0" key="66" pos="5412" len="12"/>
          <note vol="78" pan="0" key="69" pos="5424" len="12"/>
          <note vol="78" pan="0" key="73" pos="5436" len="12"/>
          <note vol="78" pan="0" key="76" pos="5448" len="12"/>
          <note vol="78" pan="0" key="81" pos="5460" len="12"/>
          <note vol="78" pan="0" key="75" pos="5472" len="12"/>
          <note vol="78" pan="0" key="81" pos="5484" len="12"/>
          <note vol="78" pan="0" key="76" pos="5496" len="12"/>
          <note vol="78" pan="0" key="73" pos="5508" len="12"/>
          <note vol="78" pan="0" key="69" pos="5520" len="12"/>
          <note vol="78" pan="0" key="66" pos="5532" len="12"/>
          <note vol="78" pan="0" key="63" pos="5544" len="12"/>
          <note vol="78" pan="0" key="57" pos="5556" len="12"/>
          <note vol="78" pan="0" key="54" pos="5568" len="12"/>
          <note vol="78" pan="0" key="57" pos="5580" len="12"/>
          <note vol="78" pan="0" key="63" pos="5592" len="12"/>
          <note vol="78" pan="0" key="66" pos="5604" len="12"/>
          <note vol="78" pan="0" key="69" pos="5616" len="12"/>
          <note vol="78" pan="0" key="73" pos="5628" len="12"/>
          <note vol="78" pan="0" key="76" pos="5640" len="12"/>
          <note vol="78" pan="0" key="81" pos="5652" len="12"/>
          <note vol="78" pan="0" key="75" pos="5664" len="12"/>
          <note vol="78" pan="0" key="81" pos="5676" len="12"/>
          <note vol="78" pan="0" key="76" pos="5688" len="12"/>
          <note vol="78" pan="0" key="73" pos="5700" len="12"/>
          <note vol="78" pan="0" key="69" pos="5712" len="12"/>
          <note vol="78" pan="0" key="66" pos="5724" len="12"/>
          <note vol="78" pan="0" key="63" pos="5736" len="12"/>
          <note vol="78" pan="0" key="57" pos="5748" len="12"/>
          <note vol="78" pan="0" key="57" pos="5760" len="12"/>
          <note vol="78" pan="0" key="61" pos="5772" len="12"/>
          <note vol="78" pan="0" key="64" pos="5784" len="12"/>
          <note vol="78" pan="0" key="68" pos="5796" len="12"/>
          <note vol="78" pan="0" key="71" pos="5808" len="12"/>
          <note vol="78" pan="0" key="75" pos="5820" len="12"/>
          <note vol="78" pan="0" key="78" pos="5832" len="12"/>
          <note vol="78" pan="0" key="81" pos="5844" len="12"/>
          <note vol="78" pan="0" key="73" pos="5856" len="12"/>
          <note vol="78" pan="0" key="81" pos="5868" len="12"/>
          <note vol="78" pan="0" key="78" pos="5880" len="12"/>
          <note vol="78" pan="0" key="75" pos="5892" len="12"/>
          <note vol="78" pan="0" key="71" pos="5904" len="12"/>
          <note vol="78" pan="0" key="68" pos="5916" len="12"/>
          <note vol="78" pan="0" key="64" pos="5928" len="12"/>
          <note vol="78" pan="0" key="61" pos="5940" len="12"/>
          <note vol="78" pan="0" key="57" pos="5952" len="12"/>
          <note vol="78" pan="0" key="61" pos="5964" len="12"/>
          <note vol="78" pan="0" key="64" pos="5976" len="12"/>
          <note vol="78" pan="0" key="68" pos="5988" len="12"/>
          <note vol="78" pan="0" key="71" pos="6000" len="12"/>
          <note vol="78" pan="0" key="75" pos="6012" len="12"/>
          <note vol="78" pan="0" key="78" pos="6024" len="12"/>
          <note vol="78" pan="0" key="81" pos="6036" len="12"/>
          <note vol="78" pan="0" key="72" pos="6048" len="12"/>
          <note vol="78" pan="0" key="81" pos="6060" len="12"/>
          <note vol="78" pan="0" key="78" pos="6072" len="12"/>
          <note vol="78" pan="0" key="75" pos="6084" len="12"/>
          <note vol="78" pan="0" key="71" pos="6096" len="12"/>
          <note vol="78" pan="0" key="68" pos="6108" len="12"/>
          <note vol="78" pan="0" key="64" pos="6120" len="12"/>
          <note vol="78" pan="0" key="61" pos="6132" len="12"/>
        </pattern>
        <pattern type="1" name="" steps="16" muted="0" pos="39552">
          <note vol="78" pan="0" key="61" pos="0" len="24"/>
          <note vol="78" pan="0" key="68" pos="24" len="24"/>
          <note vol="78" pan="0" key="73" pos="48" len="24"/>
          <note vol="78" pan="0" key="68" pos="72" len="24"/>
          <note vol="78" pan="0" key="76" pos="96" len="24"/>
          <note vol="78" pan="0" key="68" pos="120" len="24"/>
          <note vol="78" pan="0" key="73" pos="144" len="24"/>
          <note vol="78" pan="0" key="68" pos="168" len="24"/>
          <note vol="78" pan="0" key="63" pos="192" len="24"/>
          <note vol="78" pan="0" key="68" pos="216" len="24"/>
          <note vol="78" pan="0" key="71" pos="240" len="24"/>
          <note vol="78" pan="0" key="68" pos="264" len="24"/>
          <note vol="78" pan="0" key="63" pos="288" len="24"/>
          <note vol="78" pan="0" key="68" pos="312" len="24"/>
          <note vol="78" pan="0" key="71" pos="336" len="24"/>
          <note vol="78" pan="0" key="68" pos="360" len="24"/>
          <note vol="78" pan="0" key="64" pos="384" len="24"/>
          <note vol="78" pan="0" key="68" pos="408" len="24"/>
          <note vol="78" pan="0" key="73" pos="432" len="24"/>
          <note vol="78" pan="0" key="68" pos="456" len="24"/>
          <note vol="78" pan="0" key="64" pos="480" len="24"/>
          <note vol="78" pan="0" key="68" pos="504" len="24"/>
          <note vol="78" pan="0" key="73" pos="528" len="24"/>
          <note vol="78" pan="0" key="68" pos="552" len="24"/>
          <note vol="78" pan="0" key="66" pos="576" len="24"/>
          <note vol="78" pan="0" key="71" pos="600" len="24"/>
          <note vol="78" pan="0" key="76" pos="624" len="24"/>
          <note vol="78" pan="0" key="71" pos="648" len="24"/>
          <note vol="78" pan="0" key="66" pos="672" len="24"/>
          <note vol="78" pan="0" key="71" pos="696" len="24"/>
          <note vol="78" pan="0" key="75" pos="720" len="24"/>
          <note vol="78" pan="0" key="71" pos="744" len="24"/>
          <note vol="78" pan="0" key="64" pos="768" len="24"/>
          <note vol="78" pan="0" key="68" pos="792" len="24"/>
          <note vol="78" pan="0" key="73" pos="816" len="24"/>
          <note vol="78" pan="0" key="68" pos="840" len="24"/>
          <note vol="78" pan="0" key="64" pos="864" len="24"/>
          <note vol="78" pan="0" key="68" pos="888" len="24"/>
          <note vol="78" pan="0" key="73" pos="912" len="24"/>
          <note vol="78" pan="0" key="68" pos="936" len="24"/>
          <note vol="78" pan="0" key="63" pos="960" len="24"/>
          <note vol="78" pan="0" key="66" pos="984" len="24"/>
          <note vol="78" pan="0" key="71" pos="1008" len="24"/>
          <note vol="78" pan="0" key="66" pos="1032" len="24"/>
          <note vol="78" pan="0" key="63" pos="1056" len="24"/>
          <note vol="78" pan="0" key="66" pos="1080" len="24"/>
          <note vol="78" pan="0" key="71" pos="1104" len="24"/>
          <note vol="78" pan="0" key="66" pos="1128" len="24"/>
          <note vol="78" pan="0" key="64" pos="1152" len="24"/>
          <note vol="78" pan="0" key="68" pos="1176" len="24"/>
          <note vol="78" pan="0" key="73" pos="1200" len="24"/>
          <note vol="78" pan="0" key="68" pos="1224" len="24"/>
          <note vol="78" pan="0" key="64" pos="1248" len="24"/>
          <note vol="78" pan="0" key="68" pos="1272" len="24"/>
          <note vol="78" pan="0" key="73" pos="1296" len="24"/>
          <note vol="78" pan="0" key="68" pos="1320" len="24"/>
          <note vol="78" pan="0" key="66" pos="1344" len="24"/>
          <note vol="78" pan="0" key="68" pos="1368" len="24"/>
          <note vol="78" pan="0" key="66" pos="1392" len="24"/>
          <note vol="78" pan="0" key="64" pos="1416" len="24"/>
          <note vol="78" pan="0" key="63" pos="1440" len="24"/>
          <note vol="78" pan="0" key="60" pos="1464" len="24"/>
          <note vol="78" pan="0" key="66" pos="1488" len="24"/>
          <note vol="78" pan="0" key="63" pos="1512" len="24"/>
          <note vol="78" pan="0" key="61" pos="1536" len="24"/>
          <note vol="78" pan="0" key="68" pos="1560" len="24"/>
          <note vol="78" pan="0" key="73" pos="1584" len="24"/>
          <note vol="78" pan="0" key="68" pos="1608" len="24"/>
          <note vol="78" pan="0" key="61" pos="1632" len="24"/>
          <note vol="78" pan="0" key="68" pos="1656" len="24"/>
          <note vol="78" pan="0" key="73" pos="1680" len="24"/>
          <note vol="78" pan="0" key="68" pos="1704" len="24"/>
          <note vol="78" pan="0" key="63" pos="1728" len="24"/>
          <note vol="78" pan="0" key="68" pos="1752" len="24"/>
          <note vol="78" pan="0" key="71" pos="1776" len="24"/>
          <note vol="78" pan="0" key="68" pos="1800" len="24"/>
          <note vol="78" pan="0" key="63" pos="1824" len="24"/>
          <note vol="78" pan="0" key="68" pos="1848" len="24"/>
          <note vol="78" pan="0" key="71" pos="1872" len="24"/>
          <note vol="78" pan="0" key="68" pos="1896" len="24"/>
          <note vol="78" pan="0" key="61" pos="1920" len="24"/>
          <note vol="78" pan="0" key="66" pos="1944" len="24"/>
          <note vol="78" pan="0" key="70" pos="1968" len="24"/>
          <note vol="78" pan="0" key="66" pos="1992" len="24"/>
          <note vol="78" pan="0" key="61" pos="2016" len="24"/>
          <note vol="78" pan="0" key="66" pos="2040" len="24"/>
          <note vol="78" pan="0" key="70" pos="2064" len="24"/>
          <note vol="78" pan="0" key="66" pos="2088" len="24"/>
          <note vol="78" pan="0" key="61" pos="2112" len="24"/>
          <note vol="78" pan="0" key="66" pos="2136" len="24"/>
          <note vol="78" pan="0" key="70" pos="2160" len="24"/>
          <note vol="78" pan="0" key="66" pos="2184" len="24"/>
          <note vol="78" pan="0" key="61" pos="2208" len="24"/>
          <note vol="78" pan="0" key="66" pos="2232" len="24"/>
          <note vol="78" pan="0" key="70" pos="2256" len="24"/>
          <note vol="78" pan="0" key="66" pos="2280" len="24"/>
          <note vol="78" pan="0" key="66" pos="2304" len="24"/>
          <note vol="78" pan="0" key="69" pos="2328" len="24"/>
          <note vol="78" pan="0" key="73" pos="2352" len="24"/>
          <note vol="78" pan="0" key="69" pos="2376" len="24"/>
          <note vol="78" pan="0" key="66" pos="2400" len="24"/>
          <note vol="78" pan="0" key="69" pos="2424" len="24"/>
          <note vol="78" pan="0" key="73" pos="2448" len="24"/>
          <note vol="78" pan="0" key="69" pos="2472" len="24"/>
          <note vol="78" pan="0" key="63" pos="2496" len="24"/>
          <note vol="78" pan="0" key="68" pos="2520" len="24"/>
          <note vol="78" pan="0" key="73" pos="2544" len="24"/>
          <note vol="78" pan="0" key="68" pos="2568" len="24"/>
          <note vol="78" pan="0" key="63" pos="2592" len="24"/>
          <note vol="78" pan="0" key="68" pos="2616" len="24"/>
          <note vol="78" pan="0" key="73" pos="2640" len="24"/>
          <note vol="78" pan="0" key="68" pos="2664" len="24"/>
          <note vol="78" pan="0" key="66" pos="2688" len="24"/>
          <note vol="78" pan="0" key="71" pos="2712" len="24"/>
          <note vol="78" pan="0" key="75" pos="2736" len="24"/>
          <note vol="78" pan="0" key="71" pos="2760" len="24"/>
          <note vol="78" pan="0" key="66" pos="2784" len="24"/>
          <note vol="78" pan="0" key="71" pos="2808" len="24"/>
          <note vol="78" pan="0" key="75" pos="2832" len="24"/>
          <note vol="78" pan="0" key="71" pos="2856" len="24"/>
          <note vol="78" pan="0" key="66" pos="2880" len="96"/>
          <note vol="78" pan="0" key="59" pos="2976" len="96"/>
          <note vol="78" pan="0" key="68" pos="3072" len="12"/>
          <note vol="78" pan="0" key="64" pos="3084" len="12"/>
          <note vol="78" pan="0" key="61" pos="3096" len="12"/>
          <note vol="78" pan="0" key="56" pos="3108" len="12"/>
          <note vol="78" pan="0" key="52" pos="3120" len="12"/>
          <note vol="78" pan="0" key="49" pos="3132" len="12"/>
          <note vol="78" pan="0" key="61" pos="3168" len="12"/>
          <note vol="78" pan="0" key="56" pos="3180" len="12"/>
          <note vol="78" pan="0" key="52" pos="3192" len="12"/>
          <note vol="78" pan="0" key="49" pos="3204" len="12"/>
          <note vol="78" pan="0" key="76" pos="3216" len="12"/>
          <note vol="78" pan="0" key="71" pos="3228" len="12"/>
          <note vol="78" pan="0" key="68" pos="3240" len="12"/>
          <note vol="78" pan="0" key="64" pos="3252" len="12"/>
          <note vol="78" pan="0" key="76" pos="3264" len="12"/>
          <note vol="78" pan="0" key="71" pos="3276" len="12"/>
          <note vol="78" pan="0" key="80" pos="3288" len="12"/>
          <note vol="78" pan="0" key="76" pos="3300" len="12"/>
          <note vol="78" pan="0" key="71" pos="3312" len="12"/>
          <note vol="78" pan="0" key="68" pos="3324" len="12"/>
          <note vol="78" pan="0" key="64" pos="3336" len="12"/>
          <note vol="78" pan="0" key="61" pos="3348" len="12"/>
          <note vol="78" pan="0" key="73" pos="3360" len="12"/>
          <note vol="78" pan="0" key="68" pos="3372" len="12"/>
          <note vol="78" pan="0" key="64" pos="3384" len="12"/>
          <note vol="78" pan="0" key="61" pos="3396" len="12"/>
          <note vol="78" pan="0" key="68" pos="3408" len="12"/>
          <note vol="78" pan="0" key="64" pos="3420" len="12"/>
          <note vol="78" pan="0" key="56" pos="3432" len="12"/>
          <note vol="78" pan="0" key="49" pos="3444" len="12"/>
          <note vol="78" pan="0" key="69" pos="3456" len="12"/>
          <note vol="78" pan="0" key="66" pos="3468" len="12"/>
          <note vol="78" pan="0" key="57" pos="3480" len="12"/>
          <note vol="78" pan="0" key="54" pos="3492" len="12"/>
          <note vol="78" pan="0" key="49" pos="3504" len="12"/>
          <note vol="78" pan="0" key="47" pos="3516" len="12"/>
          <note vol="78" pan="0" key="74" pos="3528" len="12"/>
          <note vol="78" pan="0" key="69" pos="3540" len="12"/>
          <note vol="78" pan="0" key="66" pos="3552" len="12"/>
          <note vol="78" pan="0" key="61" pos="3564" len="12"/>
          <note vol="78" pan="0" key="57" pos="3576" len="12"/>
          <note vol="78" pan="0" key="54" pos="3588" len="12"/>
          <note vol="78" pan="0" key="78" pos="3600" len="12"/>
          <note vol="78" pan="0" key="74" pos="3612" len="12"/>
          <note vol="78" pan="0" key="69" pos="3624" len="12"/>
          <note vol="78" pan="0" key="66" pos="3636" len="12"/>
          <note vol="78" pan="0" key="81" pos="3672" len="12"/>
          <note vol="78" pan="0" key="78" pos="3684" len="12"/>
          <note vol="78" pan="0" key="73" pos="3696" len="12"/>
          <note vol="78" pan="0" key="69" pos="3708" len="12"/>
          <note vol="78" pan="0" key="66" pos="3720" len="12"/>
          <note vol="78" pan="0" key="61" pos="3732" len="12"/>
          <note vol="78" pan="0" key="74" pos="3744" len="12"/>
          <note vol="78" pan="0" key="71" pos="3756" len="12"/>
          <note vol="78" pan="0" key="66" pos="3768" len="12"/>
          <note vol="78" pan="0" key="61" pos="3780" len="12"/>
          <note vol="78" pan="0" key="69" pos="3792" len="12"/>
          <note vol="78" pan="0" key="66" pos="3804" len="12"/>
          <note vol="78" pan="0" key="61" pos="3816" len="12"/>
          <note vol="78" pan="0" key="57" pos="3828" len="12"/>
          <note vol="78" pan="0" key="68" pos="3840" len="12"/>
          <note vol="78" pan="0" key="64" pos="3852" len="12"/>
          <note vol="78" pan="0" key="61" pos="3864" len="12"/>
          <note vol="78" pan="0" key="56" pos="3876" len="12"/>
          <note vol="78" pan="0" key="73" pos="3912" len="12"/>
          <note vol="78" pan="0" key="69" pos="3924" len="12"/>
          <note vol="78" pan="0" key="68" pos="3936" len="12"/>
          <note vol="78" pan="0" key="64" pos="3948" len="12"/>
          <note vol="78" pan="0" key="56" pos="3960" len="12"/>
          <note vol="78" pan="0" key="52" pos="3972" len="12"/>
          <note vol="78" pan="0" key="76" pos="3984" len="12"/>
          <note vol="78" pan="0" key="71" pos="3996" len="12"/>
          <note vol="78" pan="0" key="68" pos="4008" len="12"/>
          <note vol="78" pan="0" key="64" pos="4020" len="12"/>
          <note vol="78" pan="0" key="81" pos="4056" len="12"/>
          <note vol="78" pan="0" key="78" pos="4068" len="12"/>
          <note vol="78" pan="0" key="78" pos="4080" len="12"/>
          <note vol="78" pan="0" key="69" pos="4092" len="12"/>
          <note vol="78" pan="0" key="66" pos="4104" len="12"/>
          <note vol="78" pan="0" key="64" pos="4116" len="12"/>
          <note vol="78" pan="0" key="73" pos="4128" len="12"/>
          <note vol="78" pan="0" key="69" pos="4140" len="12"/>
          <note vol="78" pan="0" key="66" pos="4152" len="12"/>
          <note vol="78" pan="0" key="61" pos="4164" len="12"/>
          <note vol="78" pan="0" key="68" pos="4176" len="12"/>
          <note vol="78" pan="0" key="64" pos="4188" len="12"/>
          <note vol="78" pan="0" key="61" pos="4200" len="12"/>
          <note vol="78" pan="0" key="56" pos="4212" len="12"/>
          <note vol="78" pan="0" key="69" pos="4224" len="12"/>
          <note vol="78" pan="0" key="66" pos="4236" len="12"/>
          <note vol="78" pan="0" key="57" pos="4248" len="12"/>
          <note vol="78" pan="0" key="54" pos="4260" len="12"/>
          <note vol="78" pan="0" key="52" pos="4272" len="12"/>
          <note vol="78" pan="0" key="49" pos="4284" len="12"/>
          <note vol="78" pan="0" key="74" pos="4296" len="12"/>
          <note vol="78" pan="0" key="69" pos="4308" len="12"/>
          <note vol="78" pan="0" key="66" pos="4320" len="12"/>
          <note vol="78" pan="0" key="61" pos="4332" len="12"/>
          <note vol="78" pan="0" key="57" pos="4344" len="12"/>
          <note vol="78" pan="0" key="54" pos="4356" len="12"/>
          <note vol="78" pan="0" key="78" pos="4368" len="12"/>
          <note vol="78" pan="0" key="74" pos="4380" len="12"/>
          <note vol="78" pan="0" key="69" pos="4392" len="12"/>
          <note vol="78" pan="0" key="66" pos="4404" len="12"/>
          <note vol="78" pan="0" key="81" pos="4440" len="12"/>
          <note vol="78" pan="0" key="78" pos="4452" len="12"/>
          <note vol="78" pan="0" key="73" pos="4464" len="12"/>
          <note vol="78" pan="0" key="69" pos="4476" len="12"/>
          <note vol="78" pan="0" key="66" pos="4488" len="12"/>
          <note vol="78" pan="0" key="61" pos="4500" len="12"/>
          <note vol="78" pan="0" key="74" pos="4512" len="12"/>
          <note vol="78" pan="0" key="71" pos="4524" len="12"/>
          <note vol="78" pan="0" key="66" pos="4536" len="12"/>
          <note vol="78" pan="0" key="61" pos="4548" len="12"/>
          <note vol="78" pan="0" key="69" pos="4560" len="12"/>
          <note vol="78" pan="0" key="66" pos="4572" len="12"/>
          <note vol="78" pan="0" key="61" pos="4584" len="12"/>
          <note vol="78" pan="0" key="57" pos="4596" len="12"/>
        </pattern>
        <pattern type="1" name="" steps="16" muted="0" pos="47232">
          <note vol="78" pan="0" key="61" pos="0" len="24"/>
          <note vol="78" pan="0" key="68" pos="24" len="24"/>
          <note vol="78" pan="0" key="73" pos="48" len="24"/>
          <note vol="78" pan="0" key="68" pos="72" len="24"/>
          <note vol="78" pan="0" key="76" pos="96" len="24"/>
          <note vol="78" pan="0" key="68" pos="120" len="24"/>
          <note vol="78" pan="0" key="73" pos="144" len="24"/>
          <note vol="78" pan="0" key="68" pos="168" len="24"/>
          <note vol="78" pan="0" key="63" pos="192" len="24"/>
          <note vol="78" pan="0" key="68" pos="216" len="24"/>
          <note vol="78" pan="0" key="71" pos="240" len="24"/>
          <note vol="78" pan="0" key="68" pos="264" len="24"/>
          <note vol="78" pan="0" key="63" pos="288" len="24"/>
          <note vol="78" pan="0" key="68" pos="312" len="24"/>
          <note vol="78" pan="0" key="71" pos="336" len="24"/>
          <note vol="78" pan="0" key="68" pos="360" len="24"/>
          <note vol="78" pan="0" key="64" pos="384" len="24"/>
          <note vol="78" pan="0" key="68" pos="408" len="24"/>
          <note vol="78" pan="0" key="73" pos="432" len="24"/>
          <note vol="78" pan="0" key="68" pos="456" len="24"/>
          <note vol="78" pan="0" key="64" pos="480" len="24"/>
          <note vol="78" pan="0" key="68" pos="504" len="24"/>
          <note vol="78" pan="0" key="73" pos="528" len="24"/>
          <note vol="78" pan="0" key="68" pos="552" len="24"/>
          <note vol="78" pan="0" key="66" pos="576" len="24"/>
          <note vol="78" pan="0" key="71" pos="600" len="24"/>
          <note vol="78" pan="0" key="76" pos="624" len="24"/>
          <note vol="78" pan="0" key="71" pos="648" len="24"/>
          <note vol="78" pan="0" key="66" pos="672" len="24"/>
          <note vol="78" pan="0" key="71" pos="696" len="24"/>
          <note vol="78" pan="0" key="75" pos="720" len="24"/>
          <note vol="78" pan="0" key="71" pos="744" len="24"/>
          <note vol="78" pan="0" key="64" pos="768" len="24"/>
          <note vol="78" pan="0" key="68" pos="792" len="24"/>
          <note vol="78" pan="0" key="73" pos="816" len="24"/>
          <note vol="78" pan="0" key="68" pos="840" len="24"/>
          <note vol="78" pan="0" key="64" pos="864" len="24"/>
          <note vol="78" pan="0" key="68" pos="888" len="24"/>
          <note vol="78" pan="0" key="73" pos="912" len="24"/>
          <note vol="78" pan="0" key="68" pos="936" len="24"/>
          <note vol="78" pan="0" key="63" pos="960" len="24"/>
          <note vol="78" pan="0" key="66" pos="984" len="24"/>
          <note vol="78" pan="0" key="71" pos="1008" len="24"/>
          <note vol="78" pan="0" key="66" pos="1032" len="24"/>
          <note vol="78" pan="0" key="63" pos="1056" len="24"/>
          <note vol="78" pan="0" key="66" pos="1080" len="24"/>
          <note vol="78" pan="0" key="71" pos="1104" len="24"/>
          <note vol="78" pan="0" key="66" pos="1128" len="24"/>
          <note vol="78" pan="0" key="64" pos="1152" len="24"/>
          <note vol="78" pan="0" key="68" pos="1176" len="24"/>
          <note vol="78" pan="0" key="73" pos="1200" len="24"/>
          <note vol="78" pan="0" key="68" pos="1224" len="24"/>
          <note vol="78" pan="0" key="64" pos="1248" len="24"/>
          <note vol="78" pan="0" key="68" pos="1272" len="24"/>
          <note vol="78" pan="0" key="73" pos="1296" len="24"/>
          <note vol="78" pan="0" key="68" pos="1320" len="24"/>
          <note vol="78" pan="0" key="66" pos="1344" len="24"/>
          <note vol="78" pan="0" key="68" pos="1368" len="24"/>
          <note vol="78" pan="0" key="66" pos="1392" len="24"/>
          <note vol="78" pan="0" key="64" pos="1416" len="24"/>
          <note vol="78" pan="0" key="63" pos="1440" len="24"/>
          <note vol="78" pan="0" key="60" pos="1464" len="24"/>
          <note vol="78" pan="0" key="66" pos="1488" len="24"/>
          <note vol="78" pan="0" key="63" pos="1512" len="24"/>
          <note vol="78" pan="0" key="61" pos="1536" len="24"/>
          <note vol="78" pan="0" key="68" pos="1560" len="24"/>
          <note vol="78" pan="0" key="73" pos="1584" len="24"/>
          <note vol="78" pan="0" key="68" pos="1608" len="24"/>
          <note vol="78" pan="0" key="61" pos="1632" len="24"/>
          <note vol="78" pan="0" key="68" pos="1656" len="24"/>
          <note vol="78" pan="0" key="73" pos="1680" len="24"/>
          <note vol="78" pan="0" key="68" pos="1704" len="24"/>
          <note vol="78" pan="0" key="63" pos="1728" len="24"/>
          <note vol="78" pan="0" key="68" pos="1752" len="24"/>
          <note vol="78" pan="0" key="71" pos="1776" len="24"/>
          <note vol="78" pan="0" key="68" pos="1800" len="24"/>
          <note vol="78" pan="0" key="63" pos="1824" len="24"/>
          <note vol="78" pan="0" key="68" pos="1848" len="24"/>
          <note vol="78" pan="0" key="71" pos="1872" len="24"/>
          <note vol="78" pan="0" key="68" pos="1896" len="24"/>
          <note vol="78" pan="0" key="61" pos="1920" len="24"/>
          <note vol="78" pan="0" key="66" pos="1944" len="24"/>
          <note vol="78" pan="0" key="70" pos="1968" len="24"/>
          <note vol="78" pan="0" key="66" pos="1992" len="24"/>
          <note vol="78" pan="0" key="61" pos="2016" len="24"/>
          <note vol="78" pan="0" key="66" pos="2040" len="24"/>
          <note vol="78" pan="0" key="70" pos="2064" len="24"/>
          <note vol="78" pan="0" key="66" pos="2088" len="24"/>
          <note vol="78" pan="0" key="61" pos="2112" len="24"/>
          <note vol="78" pan="0" key="66" pos="2136" len="24"/>
          <note vol="78" pan="0" key="70" pos="2160" len="24"/>
          <note vol="78" pan="0" key="66" pos="2184" len="24"/>
          <note vol="78" pan="0" key="61" pos="2208" len="24"/>
          <note vol="78" pan="0" key="66" pos="2232" len="24"/>
          <note vol="78" pan="0" key="70" pos="2256" len="24"/>
          <note vol="78" pan="0" key="66" pos="2280" len="24"/>
          <note vol="78" pan="0" key="66" pos="2304" len="24"/>
          <note vol="78" pan="0" key="69" pos="2328" len="24"/>
          <note vol="78" pan="0" key="73" pos="2352" len="24"/>
          <note vol="78" pan="0" key="69" pos="2376" len="24"/>
          <note vol="78" pan="0" key="66" pos="2400" len="24"/>
          <note vol="78" pan="0" key="69" pos="2424" len="24"/>
          <note vol="78" pan="0" key="73" pos="2448" len="24"/>
          <note vol="78" pan="0" key="69" pos="2472" len="24"/>
          <note vol="78" pan="0" key="63" pos="2496" len="24"/>
          <note vol="78" pan="0" key="68" pos="2520" len="24"/>
          <note vol="78" pan="0" key="73" pos="2544" len="24"/>
          <note vol="78" pan="0" key="68" pos="2568" len="24"/>
          <note vol="78" pan="0" key="63" pos="2592" len="24"/>
          <note vol="78" pan="0" key="68" pos="2616" len="24"/>
          <note vol="78" pan="0" key="73" pos="2640" len="24"/>
          <note vol="78" pan="0" key="68" pos="2664" len="24"/>
          <note vol="78" pan="0" key="66" pos="2688" len="24"/>
          <note vol="78" pan="0" key="71" pos="2712" len="24"/>
          <note vol="78" pan="0" key="75" pos="2736" len="24"/>
          <note vol="78" pan="0" key="71" pos="2760" len="24"/>
          <note vol="78" pan="0" key="66" pos="2784" len="24"/>
          <note vol="78" pan="0" key="71" pos="2808" len="24"/>
          <note vol="78" pan="0" key="75" pos="2832" len="24"/>
          <note vol="78" pan="0" key="71" pos="2856" len="24"/>
          <note vol="78" pan="0" key="63" pos="2880" len="24"/>
          <note vol="78" pan="0" key="51" pos="2880" len="24"/>
          <note vol="78" pan="0" key="63" pos="2904" len="24"/>
          <note vol="78" pan="0" key="51" pos="2904" len="24"/>
          <note vol="78" pan="0" key="71" pos="2976" len="24"/>
          <note vol="78" pan="0" key="59" pos="2976" len="24"/>
          <note vol="78" pan="0" key="71" pos="3000" len="24"/>
          <note vol="78" pan="0" key="59" pos="3000" len="24"/>
          <note vol="78" pan="0" key="56" pos="3072" len="12"/>
          <note vol="78" pan="0" key="61" pos="3084" len="12"/>
          <note vol="78" pan="0" key="64" pos="3096" len="12"/>
          <note vol="78" pan="0" key="68" pos="3108" len="12"/>
          <note vol="78" pan="0" key="73" pos="3120" len="12"/>
          <note vol="78" pan="0" key="76" pos="3132" len="12"/>
          <note vol="78" pan="0" key="80" pos="3144" len="12"/>
          <note vol="78" pan="0" key="83" pos="3156" len="12"/>
          <note vol="78" pan="0" key="73" pos="3168" len="12"/>
          <note vol="78" pan="0" key="83" pos="3180" len="12"/>
          <note vol="78" pan="0" key="80" pos="3192" len="12"/>
          <note vol="78" pan="0" key="76" pos="3204" len="12"/>
          <note vol="78" pan="0" key="73" pos="3216" len="12"/>
          <note vol="78" pan="0" key="68" pos="3228" len="12"/>
          <note vol="78" pan="0" key="64" pos="3240" len="12"/>
          <note vol="78" pan="0" key="61" pos="3252" len="12"/>
          <note vol="78" pan="0" key="56" pos="3264" len="12"/>
          <note vol="78" pan="0" key="61" pos="3276" len="12"/>
          <note vol="78" pan="0" key="64" pos="3288" len="12"/>
          <note vol="78" pan="0" key="68" pos="3300" len="12"/>
          <note vol="78" pan="0" key="73" pos="3312" len="12"/>
          <note vol="78" pan="0" key="76" pos="3324" len="12"/>
          <note vol="78" pan="0" key="80" pos="3336" len="12"/>
          <note vol="78" pan="0" key="83" pos="3348" len="12"/>
          <note vol="78" pan="0" key="73" pos="3360" len="12"/>
          <note vol="78" pan="0" key="83" pos="3372" len="12"/>
          <note vol="78" pan="0" key="80" pos="3384" len="12"/>
          <note vol="78" pan="0" key="76" pos="3396" len="12"/>
          <note vol="78" pan="0" key="73" pos="3408" len="12"/>
          <note vol="78" pan="0" key="68" pos="3420" len="12"/>
          <note vol="78" pan="0" key="64" pos="3432" len="12"/>
          <note vol="78" pan="0" key="61" pos="3444" len="12"/>
          <note vol="78" pan="0" key="54" pos="3456" len="12"/>
          <note vol="78" pan="0" key="59" pos="3468" len="12"/>
          <note vol="78" pan="0" key="63" pos="3480" len="12"/>
          <note vol="78" pan="0" key="66" pos="3492" len="12"/>
          <note vol="78" pan="0" key="69" pos="3504" len="12"/>
          <note vol="78" pan="0" key="73" pos="3516" len="12"/>
          <note vol="78" pan="0" key="76" pos="3528" len="12"/>
          <note vol="78" pan="0" key="80" pos="3540" len="12"/>
          <note vol="78" pan="0" key="83" pos="3552" len="12"/>
          <note vol="78" pan="0" key="80" pos="3564" len="12"/>
          <note vol="78" pan="0" key="75" pos="3576" len="12"/>
          <note vol="78" pan="0" key="71" pos="3588" len="12"/>
          <note vol="78" pan="0" key="66" pos="3600" len="12"/>
          <note vol="78" pan="0" key="61" pos="3612" len="12"/>
          <note vol="78" pan="0" key="59" pos="3624" len="12"/>
          <note vol="78" pan="0" key="54" pos="3636" len="12"/>
          <note vol="78" pan="0" key="54" pos="3648" len="12"/>
          <note vol="78" pan="0" key="59" pos="3660" len="12"/>
          <note vol="78" pan="0" key="63" pos="3672" len="12"/>
          <note vol="78" pan="0" key="66" pos="3684" len="12"/>
          <note vol="78" pan="0" key="69" pos="3696" len="12"/>
          <note vol="78" pan="0" key="73" pos="3708" len="12"/>
          <note vol="78" pan="0" key="76" pos="3720" len="12"/>
          <note vol="78" pan="0" key="80" pos="3732" len="12"/>
          <note vol="78" pan="0" key="83" pos="3744" len="12"/>
          <note vol="78" pan="0" key="80" pos="3756" len="12"/>
          <note vol="78" pan="0" key="75" pos="3768" len="12"/>
          <note vol="78" pan="0" key="71" pos="3780" len="12"/>
          <note vol="78" pan="0" key="66" pos="3792" len="12"/>
          <note vol="78" pan="0" key="61" pos="3804" len="12"/>
          <note vol="78" pan="0" key="59" pos="3816" len="12"/>
          <note vol="78" pan="0" key="54" pos="3828" len="12"/>
          <note vol="78" pan="0" key="54" pos="3840" len="12"/>
          <note vol="78" pan="0" key="57" pos="3852" len="12"/>
          <note vol="78" pan="0" key="61" pos="3864" len="12"/>
          <note vol="78" pan="0" key="64" pos="3876" len="12"/>
          <note vol="78" pan="0" key="66" pos="3888" len="12"/>
          <note vol="78" pan="0" key="73" pos="3900" len="12"/>
          <note vol="78" pan="0" key="76" pos="3912" len="12"/>
          <note vol="78" pan="0" key="78" pos="3924" len="12"/>
          <note vol="78" pan="0" key="82" pos="3936" len="12"/>
          <note vol="78" pan="0" key="78" pos="3948" len="12"/>
          <note vol="78" pan="0" key="76" pos="3960" len="12"/>
          <note vol="78" pan="0" key="73" pos="3972" len="12"/>
          <note vol="78" pan="0" key="66" pos="3984" len="12"/>
          <note vol="78" pan="0" key="64" pos="3996" len="12"/>
          <note vol="78" pan="0" key="61" pos="4008" len="12"/>
          <note vol="78" pan="0" key="57" pos="4020" len="12"/>
          <note vol="78" pan="0" key="54" pos="4032" len="12"/>
          <note vol="78" pan="0" key="57" pos="4044" len="12"/>
          <note vol="78" pan="0" key="61" pos="4056" len="12"/>
          <note vol="78" pan="0" key="64" pos="4068" len="12"/>
          <note vol="78" pan="0" key="66" pos="4080" len="12"/>
          <note vol="78" pan="0" key="73" pos="4092" len="12"/>
          <note vol="78" pan="0" key="76" pos="4104" len="12"/>
          <note vol="78" pan="0" key="78" pos="4116" len="12"/>
          <note vol="78" pan="0" key="82" pos="4128" len="12"/>
          <note vol="78" pan="0" key="78" pos="4140" len="12"/>
          <note vol="78" pan="0" key="76" pos="4152" len="12"/>
          <note vol="78" pan="0" key="73" pos="4164" len="12"/>
          <note vol="78" pan="0" key="66" pos="4176" len="12"/>
          <note vol="78" pan="0" key="64" pos="4188" len="12"/>
          <note vol="78" pan="0" key="61" pos="4200" len="12"/>
          <note vol="78" pan="0" key="57" pos="4212" len="12"/>
          <note vol="78" pan="0" key="51" pos="4224" len="12"/>
          <note vol="78" pan="0" key="54" pos="4236" len="12"/>
          <note vol="78" pan="0" key="57" pos="4248" len="12"/>
          <note vol="78" pan="0" key="63" pos="4260" len="12"/>
          <note vol="78" pan="0" key="66" pos="4272" len="12"/>
          <note vol="78" pan="0" key="69" pos="4284" len="12"/>
          <note vol="78" pan="0" key="73" pos="4296" len="12"/>
          <note vol="78" pan="0" key="76" pos="4308" len="12"/>
          <note vol="78" pan="0" key="81" pos="4320" len="12"/>
          <note vol="78" pan="0" key="78" pos="4332" len="12"/>
          <note vol="78" pan="0" key="73" pos="4344" len="12"/>
          <note vol="78" pan="0" key="69" pos="4356" len="12"/>
          <note vol="78" pan="0" key="66" pos="4368" len="12"/>
          <note vol="78" pan="0" key="63" pos="4380" len="12"/>
          <note vol="78" pan="0" key="57" pos="4392" len="12"/>
          <note vol="78" pan="0" key="54" pos="4404" len="12"/>
          <note vol="78" pan="0" key="51" pos="4416" len="12"/>
          <note vol="78" pan="0" key="54" pos="4428" len="12"/>
          <note vol="78" pan="0" key="57" pos="4440" len="12"/>
          <note vol="78" pan="0" key="63" pos="4452" len="12"/>
          <note vol="78" pan="0" key="66" pos="4464" len="12"/>
          <note vol="78" pan="0" key="69" pos="4476" len="12"/>
          <note vol="78" pan="0" key="73" pos="4488" len="12"/>
          <note vol="78" pan="0" key="76" pos="4500" len="12"/>
          <note vol="78" pan="0" key="81" pos="4512" len="12"/>
          <note vol="78" pan="0" key="78" pos="4524" len="12"/>
          <note vol="78" pan="0" key="73" pos="4536" len="12"/>
          <note vol="78" pan="0" key="69" pos="4548" len="12"/>
          <note vol="78" pan="0" key="66" pos="4560" len="12"/>
          <note vol="78" pan="0" key="63" pos="4572" len="12"/>
          <note vol="78" pan="0" key="57" pos="4584" len="12"/>
          <note vol="78" pan="0" key="54" pos="4596" len="12"/>
          <note vol="78" pan="0" key="52" pos="4608" len="12"/>
          <note vol="78" pan="0" key="61" pos="4620" len="12"/>
          <note vol="78" pan="0" key="64" pos="4632" len="12"/>
          <note vol="78" pan="0" key="68" pos="4644" len="12"/>
          <note vol="78" pan="0" key="73" pos="4656" len="12"/>
          <note vol="78" pan="0" key="76" pos="4668" len="12"/>
          <note vol="78" pan="0" key="80" pos="4680" len="12"/>
          <note vol="78" pan="0" key="83" pos="4692" len="12"/>
          <note vol="78" pan="0" key="73" pos="4704" len="12"/>
          <note vol="78" pan="0" key="83" pos="4716" len="12"/>
          <note vol="78" pan="0" key="80" pos="4728" len="12"/>
          <note vol="78" pan="0" key="76" pos="4740" len="12"/>
          <note vol="78" pan="0" key="73" pos="4752" len="12"/>
          <note vol="78" pan="0" key="68" pos="4764" len="12"/>
          <note vol="78" pan="0" key="64" pos="4776" len="12"/>
          <note vol="78" pan="0" key="61" pos="4788" len="12"/>
          <note vol="78" pan="0" key="52" pos="4800" len="12"/>
          <note vol="78" pan="0" key="61" pos="4812" len="12"/>
          <note vol="78" pan="0" key="64" pos="4824" len="12"/>
          <note vol="78" pan="0" key="68" pos="4836" len="12"/>
          <note vol="78" pan="0" key="73" pos="4848" len="12"/>
          <note vol="78" pan="0" key="76" pos="4860" len="12"/>
          <note vol="78" pan="0" key="80" pos="4872" len="12"/>
          <note vol="78" pan="0" key="83" pos="4884" len="12"/>
          <note vol="78" pan="0" key="73" pos="4896" len="12"/>
          <note vol="78" pan="0" key="83" pos="4908" len="12"/>
          <note vol="78" pan="0" key="80" pos="4920" len="12"/>
          <note vol="78" pan="0" key="76" pos="4932" len="12"/>
          <note vol="78" pan="0" key="73" pos="4944" len="12"/>
          <note vol="78" pan="0" key="68" pos="4956" len="12"/>
          <note vol="78" pan="0" key="64" pos="4968" len="12"/>
          <note vol="78" pan="0" key="61" pos="4980" len="12"/>
          <note vol="78" pan="0" key="54" pos="4992" len="12"/>
          <note vol="78" pan="0" key="59" pos="5004" len="12"/>
          <note vol="78" pan="0" key="63" pos="5016" len="12"/>
          <note vol="78" pan="0" key="66" pos="5028" len="12"/>
          <note vol="78" pan="0" key="69" pos="5040" len="12"/>
          <note vol="78" pan="0" key="73" pos="5052" len="12"/>
          <note vol="78" pan="0" key="76" pos="5064" len="12"/>
          <note vol="78" pan="0" key="80" pos="5076" len="12"/>
          <note vol="78" pan="0" key="83" pos="5088" len="12"/>
          <note vol="78" pan="0" key="80" pos="5100" len="12"/>
          <note vol="78" pan="0" key="75" pos="5112" len="12"/>
          <note vol="78" pan="0" key="71" pos="5124" len="12"/>
          <note vol="78" pan="0" key="66" pos="5136" len="12"/>
          <note vol="78" pan="0" key="61" pos="5148" len="12"/>
          <note vol="78" pan="0" key="59" pos="5160" len="12"/>
          <note vol="78" pan="0" key="54" pos="5172" len="12"/>
          <note vol="78" pan="0" key="54" pos="5184" len="12"/>
          <note vol="78" pan="0" key="59" pos="5196" len="12"/>
          <note vol="78" pan="0" key="63" pos="5208" len="12"/>
          <note vol="78" pan="0" key="66" pos="5220" len="12"/>
          <note vol="78" pan="0" key="69" pos="5232" len="12"/>
          <note vol="78" pan="0" key="73" pos="5244" len="12"/>
          <note vol="78" pan="0" key="76" pos="5256" len="12"/>
          <note vol="78" pan="0" key="80" pos="5268" len="12"/>
          <note vol="78" pan="0" key="83" pos="5280" len="12"/>
          <note vol="78" pan="0" key="80" pos="5292" len="12"/>
          <note vol="78" pan="0" key="75" pos="5304" len="12"/>
          <note vol="78" pan="0" key="71" pos="5316" len="12"/>
          <note vol="78" pan="0" key="66" pos="5328" len="12"/>
          <note vol="78" pan="0" key="61" pos="5340" len="12"/>
          <note vol="78" pan="0" key="59" pos="5352" len="12"/>
          <note vol="78" pan="0" key="54" pos="5364" len="12"/>
          <note vol="78" pan="0" key="54" pos="5376" len="12"/>
          <note vol="78" pan="0" key="57" pos="5388" len="12"/>
          <note vol="78" pan="0" key="63" pos="5400" len="12"/>
          <note vol="78" pan="0" key="66" pos="5412" len="12"/>
          <note vol="78" pan="0" key="69" pos="5424" len="12"/>
          <note vol="78" pan="0" key="73" pos="5436" len="12"/>
          <note vol="78" pan="0" key="76" pos="5448" len="12"/>
          <note vol="78" pan="0" key="81" pos="5460" len="12"/>
          <note vol="78" pan="0" key="75" pos="5472" len="12"/>
          <note vol="78" pan="0" key="81" pos="5484" len="12"/>
          <note vol="78" pan="0" key="76" pos="5496" len="12"/>
          <note vol="78" pan="0" key="73" pos="5508" len="12"/>
          <note vol="78" pan="0" key="69" pos="5520" len="12"/>
          <note vol="78" pan="0" key="66" pos="5532" len="12"/>
          <note vol="78" pan="0" key="63" pos="5544" len="12"/>
          <note vol="78" pan="0" key="57" pos="5556" len="12"/>
          <note vol="78" pan="0" key="54" pos="5568" len="12"/>
          <note vol="78" pan="0" key="57" pos="5580" len="12"/>
          <note vol="78" pan="0" key="63" pos="5592" len="12"/>
          <note vol="78" pan="0" key="66" pos="5604" len="12"/>
          <note vol="78" pan="0" key="69" pos="5616" len="12"/>
          <note vol="78" pan="0" key="73" pos="5628" len="12"/>
          <note vol="78" pan="0" key="76" pos="5640" len="12"/>
          <note vol="78" pan="0" key="81" pos="5652" len="12"/>
          <note vol="78" pan="0" key="75" pos="5664" len="12"/>
          <note vol="78" pan="0" key="81" pos="5676" len="12"/>
          <note vol="78" pan="0" key="76" pos="5688" len="12"/>
          <note vol="78" pan="0" key="73" pos="5700" len="12"/>
          <note vol="78" pan="0" key="69" pos="5712" len="12"/>
          <note vol="78" pan="0" key="66" pos="5724" len="12"/>
          <note vol="78" pan="0" key="63" pos="5736" len="12"/>
          <note vol="78" pan="0" key="57" pos="5748" len="12"/>
          <note vol="78" pan="0" key="57" pos="5760" len="12"/>
          <note vol="78" pan="0" key="61" pos="5772" len="12"/>
          <note vol="78" pan="0" key="64" pos="5784" len="12"/>
          <note vol="78" pan="0" key="68" pos="5796" len="12"/>
          <note vol="78" pan="0" key="71" pos="5808" len="12"/>
          <note vol="78" pan="0" key="75" pos="5820" len="12"/>
          <note vol="78" pan="0" key="78" pos="5832" len="12"/>
          <note vol="78" pan="0" key="81" pos="5844" len="12"/>
          <note vol="78" pan="0" key="73" pos="5856" len="12"/>
          <note vol="78" pan="0" key="81" pos="5868" len="12"/>
          <note vol="78" pan="0" key="78" pos="5880" len="12"/>
          <note vol="78" pan="0" key="75" pos="5892" len="12"/>
          <note vol="78" pan="0" key="71" pos="5904" len="12"/>
          <note vol="78" pan="0" key="68" pos="5916" len="12"/>
          <note vol="78" pan="0" key="64" pos="5928" len="12"/>
          <note vol="78" pan="0" key="61" pos="5940" len="12"/>
          <note vol="78" pan="0" key="57" pos="5952" len="12"/>
          <note vol="78" pan="0" key="61" pos="5964" len="12"/>
          <note vol="78" pan="0" key="64" pos="5976" len="12"/>
          <note vol="78" pan="0" key="68" pos="5988" len="12"/>
          <note vol="78" pan="0" key="71" pos="6000" len="12"/>
          <note vol="78" pan="0" key="75" pos="6012" len="12"/>
          <note vol="78" pan="0" key="78" pos="6024" len="12"/>
          <note vol="78" pan="0" key="81" pos="6036" len="12"/>
          <note vol="78" pan="0" key="72" pos="6048" len="12"/>
          <note vol="78" pan="0" key="81" pos="6060" len="12"/>
          <note vol="78" pan="0" key="78" pos="6072" len="12"/>
          <note vol="78" pan="0" key="75" pos="6084" len="12"/>
          <note vol="78" pan="0" key="71" pos="6096" len="12"/>
          <note vol="78" pan="0" key="68" pos="6108" len="12"/>
          <note vol="78" pan="0" key="64" pos="6120" len="12"/>
          <note vol="78" pan="0" key="61" pos="6132" len="12"/>
        </pattern>
        <pattern type="1" name="" steps="16" muted="0" pos="30336">
          <note vol="152" pan="0" key="57" pos="0" len="12"/>
          <note vol="152" pan="0" key="57" pos="12" len="12"/>
          <note vol="152" pan="0" key="56" pos="24" len="12"/>
          <note vol="152" pan="0" key="56" pos="36" len="12"/>
          <note vol="152" pan="0" key="54" pos="48" len="12"/>
          <note vol="152" pan="0" key="54" pos="60" len="12"/>
          <note vol="152" pan="0" key="61" pos="72" len="12"/>
          <note vol="152" pan="0" key="61" pos="84" len="12"/>
          <note vol="152" pan="0" key="59" pos="96" len="12"/>
          <note vol="152" pan="0" key="59" pos="108" len="12"/>
          <note vol="152" pan="0" key="57" pos="120" len="12"/>
          <note vol="152" pan="0" key="57" pos="132" len="12"/>
          <note vol="152" pan="0" key="59" pos="144" len="12"/>
          <note vol="152" pan="0" key="59" pos="156" len="12"/>
          <note vol="152" pan="0" key="61" pos="168" len="12"/>
          <note vol="152" pan="0" key="61" pos="180" len="12"/>
          <note vol="152" pan="0" key="62" pos="192" len="48"/>
          <note vol="152" pan="0" key="61" pos="240" len="12"/>
          <note vol="152" pan="0" key="62" pos="252" len="12"/>
          <note vol="152" pan="0" key="64" pos="264" len="12"/>
          <note vol="152" pan="0" key="66" pos="276" len="12"/>
          <note vol="152" pan="0" key="68" pos="288" len="12"/>
          <note vol="152" pan="0" key="66" pos="300" len="12"/>
          <note vol="152" pan="0" key="64" pos="312" len="12"/>
          <note vol="152" pan="0" key="66" pos="324" len="12"/>
          <note vol="152" pan="0" key="69" pos="336" len="12"/>
          <note vol="152" pan="0" key="68" pos="348" len="12"/>
          <note vol="152" pan="0" key="66" pos="360" len="12"/>
          <note vol="152" pan="0" key="68" pos="372" len="12"/>
          <note vol="152" pan="0" key="68" pos="384" len="24"/>
          <note vol="152" pan="0" key="69" pos="408" len="24"/>
          <note vol="152" pan="0" key="66" pos="456" len="48"/>
          <note vol="152" pan="0" key="62" pos="504" len="12"/>
          <note vol="152" pan="0" key="62" pos="516" len="12"/>
          <note vol="152" pan="0" key="66" pos="528" len="12"/>
          <note vol="152" pan="0" key="66" pos="540" len="12"/>
          <note vol="152" pan="0" key="68" pos="552" len="12"/>
          <note vol="152" pan="0" key="68" pos="564" len="12"/>
          <note vol="152" pan="0" key="71" pos="576" len="24"/>
          <note vol="152" pan="0" key="69" pos="600" len="12"/>
          <note vol="152" pan="0" key="71" pos="612" len="12"/>
          <note vol="152" pan="0" key="73" pos="624" len="24"/>
          <note vol="152" pan="0" key="71" pos="648" len="12"/>
          <note vol="152" pan="0" key="73" pos="660" len="12"/>
          <note vol="152" pan="0" key="76" pos="672" len="12"/>
          <note vol="152" pan="0" key="74" pos="684" len="12"/>
          <note vol="152" pan="0" key="73" pos="696" len="12"/>
          <note vol="152" pan="0" key="71" pos="708" len="12"/>
          <note vol="152" pan="0" key="69" pos="720" len="12"/>
          <note vol="152" pan="0" key="68" pos="732" len="12"/>
          <note vol="152" pan="0" key="66" pos="744" len="12"/>
          <note vol="152" pan="0" key="64" pos="756" len="12"/>
        </pattern>
        <pattern type="1" name="" steps="16" muted="0" pos="44928">
          <note vol="78" pan="0" key="73" pos="0" len="240"/>
          <note vol="78" pan="0" key="76" pos="240" len="48"/>
          <note vol="78" pan="0" key="78" pos="288" len="48"/>
          <note vol="78" pan="0" key="80" pos="336" len="48"/>
          <note vol="78" pan="0" key="81" pos="384" len="72"/>
          <note vol="78" pan="0" key="80" pos="456" len="72"/>
          <note vol="78" pan="0" key="78" pos="528" len="48"/>
          <note vol="78" pan="0" key="76" pos="576" len="48"/>
          <note vol="78" pan="0" key="73" pos="624" len="48"/>
          <note vol="78" pan="0" key="76" pos="672" len="48"/>
          <note vol="78" pan="0" key="80" pos="720" len="48"/>
          <note vol="78" pan="0" key="78" pos="768" len="192"/>
          <note vol="78" pan="0" key="75" pos="960" len="96"/>
          <note vol="78" pan="0" key="71" pos="1056" len="96"/>
        </pattern>
        <pattern type="1" name="" steps="16" muted="0" pos="38400">
          <note vol="78" pan="0" key="73" pos="0" len="12"/>
          <note vol="78" pan="0" key="71" pos="12" len="12"/>
          <note vol="78" pan="0" key="68" pos="24" len="12"/>
          <note vol="78" pan="0" key="71" pos="36" len="12"/>
          <note vol="78" pan="0" key="66" pos="48" len="12"/>
          <note vol="78" pan="0" key="71" pos="60" len="12"/>
          <note vol="78" pan="0" key="68" pos="72" len="12"/>
          <note vol="78" pan="0" key="71" pos="84" len="12"/>
          <note vol="78" pan="0" key="73" pos="96" len="12"/>
          <note vol="78" pan="0" key="71" pos="108" len="12"/>
          <note vol="78" pan="0" key="68" pos="120" len="12"/>
          <note vol="78" pan="0" key="71" pos="132" len="12"/>
          <note vol="78" pan="0" key="66" pos="144" len="12"/>
          <note vol="78" pan="0" key="71" pos="156" len="12"/>
          <note vol="78" pan="0" key="68" pos="168" len="12"/>
          <note vol="78" pan="0" key="71" pos="180" len="12"/>
          <note vol="78" pan="0" key="76" pos="192" len="12"/>
          <note vol="78" pan="0" key="73" pos="204" len="12"/>
          <note vol="78" pan="0" key="71" pos="216" len="12"/>
          <note vol="78" pan="0" key="73" pos="228" len="12"/>
          <note vol="78" pan="0" key="68" pos="240" len="12"/>
          <note vol="78" pan="0" key="73" pos="252" len="12"/>
          <note vol="78" pan="0" key="71" pos="264" len="12"/>
          <note vol="78" pan="0" key="73" pos="276" len="12"/>
          <note vol="78" pan="0" key="76" pos="288" len="12"/>
          <note vol="78" pan="0" key="73" pos="300" len="12"/>
          <note vol="78" pan="0" key="71" pos="312" len="12"/>
          <note vol="78" pan="0" key="73" pos="324" len="12"/>
          <note vol="78" pan="0" key="68" pos="336" len="12"/>
          <note vol="78" pan="0" key="73" pos="348" len="12"/>
          <note vol="78" pan="0" key="71" pos="360" len="12"/>
          <note vol="78" pan="0" key="73" pos="372" len="12"/>
        </pattern>
        <pattern type="1" name="" steps="16" muted="0" pos="38976">
          <note vol="78" pan="0" key="68" pos="0" len="12"/>
          <note vol="78" pan="0" key="66" pos="12" len="12"/>
          <note vol="78" pan="0" key="64" pos="24" len="12"/>
          <note vol="78" pan="0" key="66" pos="36" len="12"/>
          <note vol="78" pan="0" key="61" pos="48" len="12"/>
          <note vol="78" pan="0" key="66" pos="60" len="12"/>
          <note vol="78" pan="0" key="64" pos="72" len="12"/>
          <note vol="78" pan="0" key="66" pos="84" len="12"/>
          <note vol="78" pan="0" key="68" pos="96" len="12"/>
          <note vol="78" pan="0" key="66" pos="108" len="12"/>
          <note vol="78" pan="0" key="64" pos="120" len="12"/>
          <note vol="78" pan="0" key="66" pos="132" len="12"/>
          <note vol="78" pan="0" key="61" pos="144" len="12"/>
          <note vol="78" pan="0" key="66" pos="156" len="12"/>
          <note vol="78" pan="0" key="64" pos="168" len="12"/>
          <note vol="78" pan="0" key="66" pos="180" len="12"/>
          <note vol="78" pan="0" key="71" pos="192" len="12"/>
          <note vol="78" pan="0" key="68" pos="204" len="12"/>
          <note vol="78" pan="0" key="66" pos="216" len="12"/>
          <note vol="78" pan="0" key="68" pos="228" len="12"/>
          <note vol="78" pan="0" key="64" pos="240" len="12"/>
          <note vol="78" pan="0" key="68" pos="252" len="12"/>
          <note vol="78" pan="0" key="66" pos="264" len="12"/>
          <note vol="78" pan="0" key="68" pos="276" len="12"/>
          <note vol="78" pan="0" key="71" pos="288" len="12"/>
          <note vol="78" pan="0" key="68" pos="300" len="12"/>
          <note vol="78" pan="0" key="66" pos="312" len="12"/>
          <note vol="78" pan="0" key="68" pos="324" len="12"/>
          <note vol="78" pan="0" key="64" pos="336" len="12"/>
          <note vol="78" pan="0" key="68" pos="348" len="12"/>
          <note vol="78" pan="0" key="66" pos="360" len="12"/>
          <note vol="78" pan="0" key="68" pos="372" len="12"/>
        </pattern>
        <pattern type="1" name="" steps="16" muted="0" pos="37632">
          <note vol="78" pan="0" key="78" pos="0" len="12"/>
          <note vol="78" pan="0" key="0" pos="0" len="12"/>
          <note vol="78" pan="0" key="73" pos="12" len="12"/>
          <note vol="78" pan="0" key="70" pos="24" len="12"/>
          <note vol="78" pan="0" key="1" pos="24" len="12"/>
          <note vol="78" pan="0" key="73" pos="36" len="12"/>
          <note vol="78" pan="0" key="66" pos="48" len="12"/>
          <note vol="78" pan="0" key="73" pos="60" len="12"/>
          <note vol="78" pan="0" key="70" pos="72" len="12"/>
          <note vol="78" pan="0" key="73" pos="84" len="12"/>
          <note vol="78" pan="0" key="78" pos="96" len="12"/>
          <note vol="78" pan="0" key="73" pos="108" len="12"/>
          <note vol="78" pan="0" key="70" pos="120" len="12"/>
          <note vol="78" pan="0" key="73" pos="132" len="12"/>
          <note vol="78" pan="0" key="66" pos="144" len="12"/>
          <note vol="78" pan="0" key="73" pos="156" len="12"/>
          <note vol="78" pan="0" key="70" pos="168" len="12"/>
          <note vol="78" pan="0" key="73" pos="180" len="12"/>
        </pattern>
        <pattern type="1" name="" steps="16" muted="0" pos="53568">
          <note vol="193" pan="0" key="63" pos="0" len="120"/>
          <note vol="193" pan="0" key="58" pos="120" len="24"/>
          <note vol="193" pan="0" key="66" pos="144" len="24"/>
          <note vol="193" pan="0" key="58" pos="168" len="24"/>
          <note vol="193" pan="0" key="65" pos="192" len="120"/>
          <note vol="193" pan="0" key="65" pos="312" len="12"/>
          <note vol="193" pan="0" key="66" pos="324" len="12"/>
          <note vol="193" pan="0" key="70" pos="336" len="12"/>
          <note vol="193" pan="0" key="66" pos="348" len="12"/>
          <note vol="193" pan="0" key="65" pos="360" len="12"/>
          <note vol="193" pan="0" key="66" pos="372" len="12"/>
          <note vol="193" pan="0" key="70" pos="384" len="144"/>
          <note vol="193" pan="0" key="68" pos="528" len="24"/>
          <note vol="193" pan="0" key="66" pos="552" len="24"/>
          <note vol="193" pan="0" key="65" pos="576" len="48"/>
          <note vol="197" pan="0" key="66" pos="624" len="48"/>
          <note vol="193" pan="0" key="61" pos="672" len="12"/>
          <note vol="193" pan="0" key="61" pos="684" len="12"/>
          <note vol="193" pan="0" key="61" pos="696" len="12"/>
          <note vol="193" pan="0" key="61" pos="708" len="12"/>
          <note vol="193" pan="0" key="58" pos="720" len="12"/>
          <note vol="193" pan="0" key="54" pos="732" len="12"/>
          <note vol="193" pan="0" key="56" pos="744" len="12"/>
          <note vol="193" pan="0" key="58" pos="756" len="12"/>
          <note vol="193" pan="0" key="59" pos="768" len="96"/>
          <note vol="193" pan="0" key="63" pos="864" len="48"/>
          <note vol="193" pan="0" key="66" pos="912" len="48"/>
          <note vol="193" pan="0" key="66" pos="960" len="96"/>
          <note vol="193" pan="0" key="65" pos="1056" len="12"/>
          <note vol="193" pan="0" key="58" pos="1068" len="12"/>
          <note vol="193" pan="0" key="58" pos="1080" len="12"/>
          <note vol="193" pan="0" key="58" pos="1092" len="12"/>
          <note vol="193" pan="0" key="66" pos="1104" len="12"/>
          <note vol="193" pan="0" key="63" pos="1116" len="12"/>
          <note vol="193" pan="0" key="65" pos="1128" len="12"/>
          <note vol="193" pan="0" key="66" pos="1140" len="12"/>
          <note vol="193" pan="0" key="73" pos="1152" len="48"/>
          <note vol="193" pan="0" key="71" pos="1200" len="12"/>
          <note vol="193" pan="0" key="73" pos="1212" len="12"/>
          <note vol="193" pan="0" key="71" pos="1224" len="48"/>
          <note vol="193" pan="0" key="70" pos="1272" len="12"/>
          <note vol="193" pan="0" key="71" pos="1284" len="12"/>
          <note vol="193" pan="0" key="70" pos="1296" len="12"/>
          <note vol="193" pan="0" key="68" pos="1308" len="12"/>
          <note vol="193" pan="0" key="66" pos="1320" len="12"/>
          <note vol="193" pan="0" key="70" pos="1332" len="12"/>
          <note vol="193" pan="0" key="68" pos="1344" len="72"/>
          <note vol="193" pan="0" key="66" pos="1416" len="12"/>
          <note vol="193" pan="0" key="68" pos="1428" len="12"/>
          <note vol="193" pan="0" key="70" pos="1440" len="12"/>
          <note vol="193" pan="0" key="71" pos="1452" len="12"/>
          <note vol="193" pan="0" key="70" pos="1464" len="12"/>
          <note vol="193" pan="0" key="68" pos="1476" len="12"/>
          <note vol="193" pan="0" key="70" pos="1488" len="12"/>
          <note vol="193" pan="0" key="68" pos="1500" len="12"/>
          <note vol="193" pan="0" key="66" pos="1512" len="12"/>
          <note vol="193" pan="0" key="65" pos="1524" len="12"/>
          <note vol="193" pan="0" key="66" pos="1536" len="48"/>
          <note vol="193" pan="0" key="58" pos="1584" len="12"/>
          <note vol="193" pan="0" key="58" pos="1596" len="12"/>
          <note vol="193" pan="0" key="65" pos="1608" len="48"/>
          <note vol="193" pan="0" key="58" pos="1656" len="12"/>
          <note vol="193" pan="0" key="58" pos="1668" len="12"/>
          <note vol="193" pan="0" key="66" pos="1680" len="24"/>
          <note vol="193" pan="0" key="58" pos="1704" len="12"/>
          <note vol="193" pan="0" key="58" pos="1716" len="12"/>
          <note vol="193" pan="0" key="70" pos="1728" len="144"/>
          <note vol="193" pan="0" key="65" pos="1872" len="48"/>
          <note vol="193" pan="0" key="63" pos="1920" len="12"/>
          <note vol="193" pan="0" key="65" pos="1932" len="12"/>
          <note vol="193" pan="0" key="63" pos="1944" len="216"/>
          <note vol="193" pan="0" key="66" pos="2160" len="48"/>
          <note vol="193" pan="0" key="68" pos="2208" len="24"/>
          <note vol="193" pan="0" key="66" pos="2232" len="12"/>
          <note vol="193" pan="0" key="68" pos="2244" len="12"/>
          <note vol="193" pan="0" key="70" pos="2256" len="24"/>
          <note vol="193" pan="0" key="68" pos="2280" len="12"/>
          <note vol="193" pan="0" key="70" pos="2292" len="12"/>
          <note vol="193" pan="0" key="71" pos="2304" len="72"/>
          <note vol="193" pan="0" key="70" pos="2376" len="72"/>
          <note vol="193" pan="0" key="68" pos="2448" len="48"/>
          <note vol="193" pan="0" key="66" pos="2496" len="12"/>
          <note vol="193" pan="0" key="65" pos="2508" len="12"/>
          <note vol="193" pan="0" key="63" pos="2520" len="12"/>
          <note vol="193" pan="0" key="58" pos="2532" len="12"/>
          <note vol="193" pan="0" key="63" pos="2544" len="12"/>
          <note vol="193" pan="0" key="61" pos="2556" len="12"/>
          <note vol="193" pan="0" key="59" pos="2568" len="12"/>
          <note vol="193" pan="0" key="58" pos="2580" len="12"/>
          <note vol="193" pan="0" key="66" pos="2592" len="12"/>
          <note vol="193" pan="0" key="65" pos="2604" len="12"/>
          <note vol="193" pan="0" key="63" pos="2616" len="12"/>
          <note vol="193" pan="0" key="58" pos="2628" len="12"/>
          <note vol="193" pan="0" key="75" pos="2640" len="48"/>
          <note vol="193" pan="0" key="73" pos="2688" len="192"/>
        </pattern>
        <pattern type="1" name="" steps="16" muted="0" pos="56832">
          <note vol="78" pan="0" key="58" pos="0" len="120"/>
          <note vol="78" pan="0" key="54" pos="120" len="24"/>
          <note vol="78" pan="0" key="63" pos="144" len="24"/>
          <note vol="78" pan="0" key="54" pos="168" len="24"/>
          <note vol="78" pan="0" key="61" pos="192" len="120"/>
          <note vol="78" pan="0" key="61" pos="312" len="12"/>
          <note vol="78" pan="0" key="63" pos="324" len="12"/>
          <note vol="78" pan="0" key="66" pos="336" len="12"/>
          <note vol="78" pan="0" key="63" pos="348" len="12"/>
          <note vol="78" pan="0" key="61" pos="360" len="12"/>
          <note vol="78" pan="0" key="63" pos="372" len="12"/>
          <note vol="78" pan="0" key="66" pos="384" len="144"/>
          <note vol="78" pan="0" key="65" pos="528" len="24"/>
          <note vol="78" pan="0" key="63" pos="552" len="24"/>
          <note vol="78" pan="0" key="61" pos="576" len="48"/>
          <note vol="78" pan="0" key="63" pos="624" len="48"/>
          <note vol="78" pan="0" key="58" pos="672" len="12"/>
          <note vol="78" pan="0" key="58" pos="684" len="12"/>
          <note vol="78" pan="0" key="58" pos="696" len="12"/>
          <note vol="78" pan="0" key="58" pos="708" len="12"/>
          <note vol="78" pan="0" key="54" pos="720" len="12"/>
          <note vol="78" pan="0" key="51" pos="732" len="12"/>
          <note vol="78" pan="0" key="53" pos="744" len="12"/>
          <note vol="78" pan="0" key="54" pos="756" len="12"/>
          <note vol="78" pan="0" key="56" pos="768" len="96"/>
          <note vol="78" pan="0" key="59" pos="864" len="48"/>
          <note vol="78" pan="0" key="63" pos="912" len="48"/>
          <note vol="78" pan="0" key="63" pos="960" len="96"/>
          <note vol="78" pan="0" key="61" pos="1056" len="12"/>
          <note vol="78" pan="0" key="54" pos="1068" len="12"/>
          <note vol="78" pan="0" key="54" pos="1080" len="12"/>
          <note vol="78" pan="0" key="54" pos="1092" len="12"/>
          <note vol="78" pan="0" key="63" pos="1104" len="12"/>
          <note vol="78" pan="0" key="59" pos="1116" len="12"/>
          <note vol="78" pan="0" key="61" pos="1128" len="12"/>
          <note vol="78" pan="0" key="63" pos="1140" len="12"/>
          <note vol="78" pan="0" key="70" pos="1152" len="48"/>
          <note vol="78" pan="0" key="68" pos="1200" len="12"/>
          <note vol="78" pan="0" key="70" pos="1212" len="12"/>
          <note vol="78" pan="0" key="68" pos="1224" len="48"/>
          <note vol="78" pan="0" key="66" pos="1272" len="12"/>
          <note vol="78" pan="0" key="68" pos="1284" len="12"/>
          <note vol="78" pan="0" key="66" pos="1296" len="12"/>
          <note vol="78" pan="0" key="65" pos="1308" len="12"/>
          <note vol="78" pan="0" key="63" pos="1320" len="12"/>
          <note vol="78" pan="0" key="66" pos="1332" len="12"/>
          <note vol="78" pan="0" key="65" pos="1344" len="72"/>
          <note vol="78" pan="0" key="63" pos="1416" len="12"/>
          <note vol="78" pan="0" key="65" pos="1428" len="12"/>
          <note vol="78" pan="0" key="66" pos="1440" len="12"/>
          <note vol="78" pan="0" key="68" pos="1452" len="12"/>
          <note vol="78" pan="0" key="66" pos="1464" len="12"/>
          <note vol="78" pan="0" key="65" pos="1476" len="12"/>
          <note vol="78" pan="0" key="66" pos="1488" len="12"/>
          <note vol="78" pan="0" key="65" pos="1500" len="12"/>
          <note vol="78" pan="0" key="63" pos="1512" len="12"/>
          <note vol="78" pan="0" key="61" pos="1524" len="12"/>
          <note vol="78" pan="0" key="63" pos="1536" len="48"/>
          <note vol="78" pan="0" key="54" pos="1584" len="12"/>
          <note vol="78" pan="0" key="54" pos="1596" len="12"/>
          <note vol="78" pan="0" key="61" pos="1608" len="48"/>
          <note vol="78" pan="0" key="54" pos="1656" len="12"/>
          <note vol="78" pan="0" key="54" pos="1668" len="12"/>
          <note vol="78" pan="0" key="63" pos="1680" len="24"/>
          <note vol="78" pan="0" key="54" pos="1704" len="12"/>
          <note vol="78" pan="0" key="54" pos="1716" len="12"/>
          <note vol="78" pan="0" key="66" pos="1728" len="144"/>
          <note vol="78" pan="0" key="61" pos="1872" len="48"/>
          <note vol="78" pan="0" key="60" pos="1920" len="12"/>
          <note vol="78" pan="0" key="61" pos="1932" len="12"/>
          <note vol="78" pan="0" key="60" pos="1944" len="216"/>
          <note vol="78" pan="0" key="63" pos="2160" len="48"/>
          <note vol="78" pan="0" key="65" pos="2208" len="24"/>
          <note vol="78" pan="0" key="63" pos="2232" len="12"/>
          <note vol="78" pan="0" key="65" pos="2244" len="12"/>
          <note vol="78" pan="0" key="66" pos="2256" len="24"/>
          <note vol="78" pan="0" key="65" pos="2280" len="12"/>
          <note vol="78" pan="0" key="66" pos="2292" len="12"/>
          <note vol="78" pan="0" key="68" pos="2304" len="72"/>
          <note vol="78" pan="0" key="66" pos="2376" len="72"/>
          <note vol="78" pan="0" key="65" pos="2448" len="48"/>
          <note vol="193" pan="0" key="63" pos="2496" len="12"/>
          <note vol="193" pan="0" key="61" pos="2508" len="12"/>
          <note vol="193" pan="0" key="59" pos="2520" len="12"/>
          <note vol="193" pan="0" key="54" pos="2532" len="12"/>
          <note vol="193" pan="0" key="59" pos="2544" len="12"/>
          <note vol="193" pan="0" key="58" pos="2556" len="12"/>
          <note vol="193" pan="0" key="56" pos="2568" len="12"/>
          <note vol="193" pan="0" key="54" pos="2580" len="12"/>
          <note vol="193" pan="0" key="63" pos="2592" len="12"/>
          <note vol="193" pan="0" key="61" pos="2604" len="12"/>
          <note vol="193" pan="0" key="59" pos="2616" len="12"/>
          <note vol="193" pan="0" key="54" pos="2628" len="12"/>
          <note vol="193" pan="0" key="71" pos="2640" len="48"/>
          <note vol="193" pan="0" key="68" pos="2688" len="192"/>
        </pattern>
      </track>
      <track type="0" name="Orchestra Soundfont 2 COMBO" solo="0" muted="1" mutedBeforeSolo="0">
        <instrumenttrack usemasterpitch="1" pitchrange="2" pitch="0" vol="100" basenote="57" pan="0" fxch="0">
          <instrument name="sf2player">
            <sf2player reverbRoomSize="0.2" reverbWidth="0.5" reverbDamping="0" chorusNum="3" patch="48" chorusLevel="2" src="/home/pass/samples/soundfonts/Orchestra Soundfont 2 COMBO.sf2" reverbOn="0" chorusOn="0" gain="1" chorusDepth="8" chorusSpeed="0.3" bank="0" reverbLevel="0.9">
              <key/>
            </sf2player>
          </instrument>
          <eldata fwet="0" fres="0.5" ftype="0" fcut="14000">
            <elvol x100="0" lspd_numerator="4" amt="0" lspd="0.1" lpdel="0" dec="0.5" lspd_syncmode="0" att="0" ctlenvamt="0" pdel="0" latt="0" sustain="0.5" lspd_denominator="4" hold="0.5" lamt="0" userwavefile="" lshp="0" rel="0.1"/>
            <elcut x100="0" lspd_numerator="4" amt="0" lspd="0.1" lpdel="0" dec="0.5" lspd_syncmode="0" att="0" ctlenvamt="0" pdel="0" latt="0" sustain="0.5" lspd_denominator="4" hold="0.5" lamt="0" userwavefile="" lshp="0" rel="0.1"/>
            <elres x100="0" lspd_numerator="4" amt="0" lspd="0.1" lpdel="0" dec="0.5" lspd_syncmode="0" att="0" ctlenvamt="0" pdel="0" latt="0" sustain="0.5" lspd_denominator="4" hold="0.5" lamt="0" userwavefile="" lshp="0" rel="0.1"/>
          </eldata>
          <chordcreator chordrange="1" chord="0" chord-enabled="0"/>
          <arpeggiator arprange="1" arptime_syncmode="0" arpskip="0" arpmiss="0" arptime="200" arpdir="0" arpmode="0" arptime_denominator="4" arp-enabled="0" arp="0" arpgate="100" arpcycle="0" arptime_numerator="4"/>
          <midiport inputcontroller="0" outputcontroller="0" outputprogram="1" basevelocity="63" outputchannel="1" writable="0" inputchannel="0" readable="0" fixedinputvelocity="-1" fixedoutputvelocity="-1" fixedoutputnote="-1"/>
          <fxchain numofeffects="0" enabled="0"/>
        </instrumenttrack>
        <pattern type="1" name="" steps="16" muted="0" pos="384">
          <note vol="78" pan="0" key="49" pos="0" len="48"/>
          <note vol="78" pan="0" key="49" pos="384" len="48"/>
          <note vol="78" pan="0" key="49" pos="768" len="48"/>
          <note vol="78" pan="0" key="49" pos="1152" len="48"/>
          <note vol="78" pan="0" key="49" pos="1536" len="384"/>
          <note vol="78" pan="0" key="49" pos="1920" len="384"/>
          <note vol="78" pan="0" key="49" pos="2304" len="384"/>
          <note vol="78" pan="0" key="49" pos="2688" len="384"/>
          <note vol="78" pan="0" key="61" pos="3072" len="48"/>
          <note vol="78" pan="0" key="49" pos="3072" len="48"/>
          <note vol="78" pan="0" key="61" pos="3120" len="48"/>
          <note vol="78" pan="0" key="49" pos="3120" len="48"/>
          <note vol="78" pan="0" key="61" pos="3168" len="48"/>
          <note vol="78" pan="0" key="49" pos="3168" len="48"/>
          <note vol="78" pan="0" key="64" pos="3216" len="48"/>
          <note vol="78" pan="0" key="52" pos="3216" len="48"/>
          <note vol="78" pan="0" key="63" pos="3264" len="48"/>
          <note vol="78" pan="0" key="51" pos="3264" len="48"/>
          <note vol="78" pan="0" key="63" pos="3312" len="48"/>
          <note vol="78" pan="0" key="51" pos="3312" len="48"/>
          <note vol="78" pan="0" key="63" pos="3360" len="48"/>
          <note vol="78" pan="0" key="51" pos="3360" len="48"/>
          <note vol="78" pan="0" key="68" pos="3408" len="48"/>
          <note vol="78" pan="0" key="56" pos="3408" len="48"/>
          <note vol="78" pan="0" key="68" pos="3456" len="48"/>
          <note vol="78" pan="0" key="56" pos="3456" len="48"/>
          <note vol="78" pan="0" key="68" pos="3504" len="48"/>
          <note vol="78" pan="0" key="56" pos="3504" len="48"/>
          <note vol="78" pan="0" key="68" pos="3552" len="48"/>
          <note vol="78" pan="0" key="56" pos="3552" len="48"/>
          <note vol="78" pan="0" key="66" pos="3600" len="24"/>
          <note vol="78" pan="0" key="54" pos="3600" len="24"/>
          <note vol="78" pan="0" key="64" pos="3624" len="24"/>
          <note vol="78" pan="0" key="52" pos="3624" len="24"/>
          <note vol="78" pan="0" key="63" pos="3648" len="48"/>
          <note vol="78" pan="0" key="51" pos="3648" len="48"/>
          <note vol="78" pan="0" key="64" pos="3696" len="48"/>
          <note vol="78" pan="0" key="52" pos="3696" len="48"/>
          <note vol="78" pan="0" key="59" pos="3744" len="48"/>
          <note vol="78" pan="0" key="47" pos="3744" len="48"/>
          <note vol="78" pan="0" key="56" pos="3792" len="48"/>
          <note vol="78" pan="0" key="44" pos="3792" len="48"/>
          <note vol="78" pan="0" key="57" pos="3840" len="48"/>
          <note vol="78" pan="0" key="45" pos="3840" len="48"/>
          <note vol="78" pan="0" key="57" pos="3888" len="48"/>
          <note vol="78" pan="0" key="45" pos="3888" len="48"/>
          <note vol="78" pan="0" key="57" pos="3936" len="48"/>
          <note vol="78" pan="0" key="45" pos="3936" len="48"/>
          <note vol="78" pan="0" key="64" pos="3984" len="48"/>
          <note vol="78" pan="0" key="52" pos="3984" len="48"/>
          <note vol="78" pan="0" key="63" pos="4032" len="48"/>
          <note vol="78" pan="0" key="51" pos="4032" len="48"/>
          <note vol="78" pan="0" key="63" pos="4080" len="48"/>
          <note vol="78" pan="0" key="51" pos="4080" len="48"/>
          <note vol="78" pan="0" key="63" pos="4128" len="48"/>
          <note vol="78" pan="0" key="51" pos="4128" len="48"/>
          <note vol="78" pan="0" key="66" pos="4176" len="48"/>
          <note vol="78" pan="0" key="54" pos="4176" len="48"/>
          <note vol="78" pan="0" key="64" pos="4224" len="96"/>
          <note vol="78" pan="0" key="52" pos="4224" len="96"/>
          <note vol="78" pan="0" key="68" pos="4320" len="48"/>
          <note vol="78" pan="0" key="56" pos="4320" len="48"/>
          <note vol="78" pan="0" key="64" pos="4368" len="48"/>
          <note vol="78" pan="0" key="52" pos="4368" len="48"/>
          <note vol="78" pan="0" key="66" pos="4416" len="48"/>
          <note vol="78" pan="0" key="54" pos="4416" len="48"/>
          <note vol="78" pan="0" key="71" pos="4464" len="48"/>
          <note vol="78" pan="0" key="59" pos="4464" len="48"/>
          <note vol="78" pan="0" key="68" pos="4512" len="48"/>
          <note vol="78" pan="0" key="56" pos="4512" len="48"/>
          <note vol="78" pan="0" key="75" pos="4560" len="48"/>
          <note vol="78" pan="0" key="63" pos="4560" len="48"/>
        </pattern>
        <pattern type="1" name="" steps="16" muted="0" pos="11136">
          <note vol="78" pan="0" key="61" pos="0" len="192"/>
          <note vol="78" pan="0" key="64" pos="192" len="192"/>
          <note vol="78" pan="0" key="62" pos="384" len="192"/>
          <note vol="78" pan="0" key="66" pos="576" len="192"/>
          <note vol="78" pan="0" key="61" pos="768" len="192"/>
          <note vol="78" pan="0" key="64" pos="960" len="192"/>
          <note vol="78" pan="0" key="62" pos="1152" len="192"/>
          <note vol="78" pan="0" key="66" pos="1344" len="192"/>
        </pattern>
        <pattern type="1" name="" steps="16" muted="0" pos="18816">
          <note vol="78" pan="0" key="61" pos="0" len="192"/>
          <note vol="78" pan="0" key="56" pos="384" len="192"/>
          <note vol="78" pan="0" key="56" pos="768" len="192"/>
          <note vol="78" pan="0" key="68" pos="1152" len="192"/>
          <note vol="78" pan="0" key="69" pos="1536" len="192"/>
          <note vol="78" pan="0" key="69" pos="1728" len="192"/>
          <note vol="78" pan="0" key="68" pos="1920" len="192"/>
          <note vol="78" pan="0" key="68" pos="2112" len="192"/>
          <note vol="78" pan="0" key="66" pos="2304" len="192"/>
          <note vol="78" pan="0" key="66" pos="2496" len="192"/>
          <note vol="78" pan="0" key="73" pos="2688" len="192"/>
          <note vol="78" pan="0" key="72" pos="2880" len="192"/>
        </pattern>
        <pattern type="1" name="" steps="16" muted="0" pos="24960">
          <note vol="78" pan="0" key="61" pos="0" len="192"/>
          <note vol="78" pan="0" key="49" pos="0" len="192"/>
          <note vol="78" pan="0" key="59" pos="192" len="192"/>
          <note vol="78" pan="0" key="47" pos="192" len="192"/>
          <note vol="78" pan="0" key="56" pos="384" len="288"/>
          <note vol="78" pan="0" key="44" pos="384" len="288"/>
          <note vol="78" pan="0" key="56" pos="672" len="96"/>
          <note vol="78" pan="0" key="44" pos="672" len="96"/>
          <note vol="78" pan="0" key="68" pos="768" len="192"/>
          <note vol="78" pan="0" key="56" pos="768" len="192"/>
          <note vol="78" pan="0" key="66" pos="960" len="192"/>
          <note vol="78" pan="0" key="54" pos="960" len="192"/>
          <note vol="78" pan="0" key="61" pos="1152" len="384"/>
          <note vol="78" pan="0" key="49" pos="1152" len="384"/>
          <note vol="78" pan="0" key="61" pos="1536" len="192"/>
          <note vol="78" pan="0" key="49" pos="1536" len="192"/>
          <note vol="78" pan="0" key="63" pos="1728" len="192"/>
          <note vol="78" pan="0" key="51" pos="1728" len="192"/>
          <note vol="78" pan="0" key="64" pos="1920" len="192"/>
          <note vol="78" pan="0" key="52" pos="1920" len="192"/>
          <note vol="78" pan="0" key="68" pos="2112" len="96"/>
          <note vol="78" pan="0" key="56" pos="2112" len="96"/>
          <note vol="78" pan="0" key="66" pos="2208" len="96"/>
          <note vol="78" pan="0" key="54" pos="2208" len="96"/>
          <note vol="78" pan="0" key="66" pos="2304" len="192"/>
          <note vol="78" pan="0" key="54" pos="2304" len="192"/>
          <note vol="78" pan="0" key="61" pos="2496" len="144"/>
          <note vol="78" pan="0" key="49" pos="2496" len="144"/>
          <note vol="78" pan="0" key="61" pos="2640" len="24"/>
          <note vol="78" pan="0" key="49" pos="2640" len="24"/>
          <note vol="78" pan="0" key="63" pos="2664" len="24"/>
          <note vol="78" pan="0" key="51" pos="2664" len="24"/>
          <note vol="78" pan="0" key="64" pos="2688" len="192"/>
          <note vol="78" pan="0" key="52" pos="2688" len="192"/>
          <note vol="78" pan="0" key="64" pos="2880" len="96"/>
          <note vol="78" pan="0" key="52" pos="2880" len="96"/>
          <note vol="78" pan="0" key="68" pos="2976" len="96"/>
          <note vol="78" pan="0" key="56" pos="2976" len="96"/>
          <note vol="78" pan="0" key="73" pos="3072" len="384"/>
          <note vol="78" pan="0" key="61" pos="3072" len="384"/>
          <note vol="78" pan="0" key="73" pos="3456" len="384"/>
          <note vol="78" pan="0" key="61" pos="3456" len="384"/>
        </pattern>
        <pattern type="1" name="" steps="16" muted="0" pos="31872">
          <note vol="78" pan="0" key="56" pos="0" len="192"/>
          <note vol="78" pan="0" key="57" pos="192" len="192"/>
          <note vol="78" pan="0" key="59" pos="384" len="192"/>
          <note vol="78" pan="0" key="54" pos="576" len="192"/>
          <note vol="78" pan="0" key="56" pos="768" len="192"/>
          <note vol="78" pan="0" key="57" pos="960" len="192"/>
          <note vol="78" pan="0" key="59" pos="1152" len="192"/>
          <note vol="78" pan="0" key="63" pos="1344" len="192"/>
          <note vol="78" pan="0" key="61" pos="1536" len="192"/>
          <note vol="78" pan="0" key="61" pos="1920" len="192"/>
          <note vol="78" pan="0" key="64" pos="2112" len="192"/>
          <note vol="78" pan="0" key="62" pos="2304" len="192"/>
          <note vol="78" pan="0" key="61" pos="2688" len="192"/>
          <note vol="78" pan="0" key="66" pos="2880" len="192"/>
          <note vol="78" pan="0" key="61" pos="3072" len="48"/>
          <note vol="78" pan="0" key="49" pos="3072" len="48"/>
          <note vol="78" pan="0" key="61" pos="3120" len="48"/>
          <note vol="78" pan="0" key="49" pos="3120" len="48"/>
          <note vol="78" pan="0" key="61" pos="3168" len="48"/>
          <note vol="78" pan="0" key="49" pos="3168" len="48"/>
          <note vol="78" pan="0" key="64" pos="3216" len="48"/>
          <note vol="78" pan="0" key="52" pos="3216" len="48"/>
          <note vol="78" pan="0" key="63" pos="3264" len="48"/>
          <note vol="78" pan="0" key="51" pos="3264" len="48"/>
          <note vol="78" pan="0" key="63" pos="3312" len="48"/>
          <note vol="78" pan="0" key="51" pos="3312" len="48"/>
          <note vol="78" pan="0" key="63" pos="3360" len="48"/>
          <note vol="78" pan="0" key="51" pos="3360" len="48"/>
          <note vol="78" pan="0" key="68" pos="3408" len="48"/>
          <note vol="78" pan="0" key="56" pos="3408" len="48"/>
          <note vol="78" pan="0" key="68" pos="3456" len="48"/>
          <note vol="78" pan="0" key="56" pos="3456" len="48"/>
          <note vol="78" pan="0" key="68" pos="3504" len="48"/>
          <note vol="78" pan="0" key="56" pos="3504" len="48"/>
          <note vol="78" pan="0" key="68" pos="3552" len="48"/>
          <note vol="78" pan="0" key="56" pos="3552" len="48"/>
          <note vol="78" pan="0" key="66" pos="3600" len="24"/>
          <note vol="78" pan="0" key="54" pos="3600" len="24"/>
          <note vol="78" pan="0" key="64" pos="3624" len="24"/>
          <note vol="78" pan="0" key="52" pos="3624" len="24"/>
          <note vol="78" pan="0" key="63" pos="3648" len="48"/>
          <note vol="78" pan="0" key="51" pos="3648" len="48"/>
          <note vol="78" pan="0" key="64" pos="3696" len="48"/>
          <note vol="78" pan="0" key="52" pos="3696" len="48"/>
          <note vol="78" pan="0" key="59" pos="3744" len="48"/>
          <note vol="78" pan="0" key="47" pos="3744" len="48"/>
          <note vol="78" pan="0" key="56" pos="3792" len="48"/>
          <note vol="78" pan="0" key="44" pos="3792" len="48"/>
          <note vol="78" pan="0" key="57" pos="3840" len="48"/>
          <note vol="78" pan="0" key="45" pos="3840" len="48"/>
          <note vol="78" pan="0" key="57" pos="3888" len="48"/>
          <note vol="78" pan="0" key="45" pos="3888" len="48"/>
          <note vol="78" pan="0" key="57" pos="3936" len="48"/>
          <note vol="78" pan="0" key="45" pos="3936" len="48"/>
          <note vol="78" pan="0" key="64" pos="3984" len="48"/>
          <note vol="78" pan="0" key="52" pos="3984" len="48"/>
          <note vol="78" pan="0" key="63" pos="4032" len="48"/>
          <note vol="78" pan="0" key="51" pos="4032" len="48"/>
          <note vol="78" pan="0" key="63" pos="4080" len="48"/>
          <note vol="78" pan="0" key="51" pos="4080" len="48"/>
          <note vol="78" pan="0" key="63" pos="4128" len="48"/>
          <note vol="78" pan="0" key="51" pos="4128" len="48"/>
          <note vol="78" pan="0" key="66" pos="4176" len="48"/>
          <note vol="78" pan="0" key="54" pos="4176" len="48"/>
          <note vol="78" pan="0" key="64" pos="4224" len="96"/>
          <note vol="78" pan="0" key="52" pos="4224" len="96"/>
          <note vol="78" pan="0" key="68" pos="4320" len="48"/>
          <note vol="78" pan="0" key="56" pos="4320" len="48"/>
          <note vol="78" pan="0" key="64" pos="4368" len="48"/>
          <note vol="78" pan="0" key="52" pos="4368" len="48"/>
          <note vol="78" pan="0" key="66" pos="4416" len="48"/>
          <note vol="78" pan="0" key="54" pos="4416" len="48"/>
          <note vol="78" pan="0" key="71" pos="4464" len="48"/>
          <note vol="78" pan="0" key="59" pos="4464" len="48"/>
          <note vol="78" pan="0" key="68" pos="4512" len="48"/>
          <note vol="78" pan="0" key="56" pos="4512" len="48"/>
          <note vol="78" pan="0" key="75" pos="4560" len="48"/>
          <note vol="78" pan="0" key="63" pos="4560" len="48"/>
        </pattern>
        <pattern type="1" name="" steps="16" muted="0" pos="42624">
          <note vol="78" pan="0" key="61" pos="0" len="192"/>
          <note vol="78" pan="0" key="64" pos="192" len="192"/>
          <note vol="78" pan="0" key="62" pos="384" len="192"/>
          <note vol="78" pan="0" key="66" pos="576" len="192"/>
          <note vol="78" pan="0" key="61" pos="768" len="192"/>
          <note vol="78" pan="0" key="64" pos="960" len="192"/>
          <note vol="78" pan="0" key="62" pos="1152" len="192"/>
          <note vol="78" pan="0" key="66" pos="1344" len="192"/>
        </pattern>
        <pattern type="1" name="" steps="16" muted="0" pos="50304">
          <note vol="78" pan="0" key="61" pos="0" len="192"/>
          <note vol="78" pan="0" key="56" pos="384" len="192"/>
          <note vol="78" pan="0" key="56" pos="768" len="192"/>
          <note vol="78" pan="0" key="68" pos="1152" len="192"/>
          <note vol="78" pan="0" key="69" pos="1536" len="192"/>
          <note vol="78" pan="0" key="69" pos="1728" len="192"/>
          <note vol="78" pan="0" key="68" pos="1920" len="192"/>
          <note vol="78" pan="0" key="68" pos="2112" len="192"/>
          <note vol="78" pan="0" key="66" pos="2304" len="192"/>
          <note vol="78" pan="0" key="66" pos="2496" len="192"/>
          <note vol="78" pan="0" key="73" pos="2688" len="192"/>
          <note vol="78" pan="0" key="72" pos="2880" len="192"/>
        </pattern>
        <pattern type="1" name="" steps="16" muted="0" pos="56448">
          <note vol="78" pan="0" key="61" pos="0" len="192"/>
          <note vol="78" pan="0" key="49" pos="0" len="192"/>
          <note vol="78" pan="0" key="59" pos="192" len="192"/>
          <note vol="78" pan="0" key="47" pos="192" len="192"/>
          <note vol="78" pan="0" key="56" pos="384" len="288"/>
          <note vol="78" pan="0" key="44" pos="384" len="288"/>
          <note vol="78" pan="0" key="56" pos="672" len="96"/>
          <note vol="78" pan="0" key="44" pos="672" len="96"/>
          <note vol="78" pan="0" key="68" pos="768" len="192"/>
          <note vol="78" pan="0" key="56" pos="768" len="192"/>
          <note vol="78" pan="0" key="66" pos="960" len="192"/>
          <note vol="78" pan="0" key="54" pos="960" len="192"/>
          <note vol="78" pan="0" key="61" pos="1152" len="384"/>
          <note vol="78" pan="0" key="49" pos="1152" len="384"/>
          <note vol="78" pan="0" key="61" pos="1536" len="192"/>
          <note vol="78" pan="0" key="49" pos="1536" len="192"/>
          <note vol="78" pan="0" key="63" pos="1728" len="192"/>
          <note vol="78" pan="0" key="51" pos="1728" len="192"/>
          <note vol="78" pan="0" key="64" pos="1920" len="192"/>
          <note vol="78" pan="0" key="52" pos="1920" len="192"/>
          <note vol="78" pan="0" key="68" pos="2112" len="96"/>
          <note vol="78" pan="0" key="56" pos="2112" len="96"/>
          <note vol="78" pan="0" key="66" pos="2208" len="96"/>
          <note vol="78" pan="0" key="54" pos="2208" len="96"/>
          <note vol="78" pan="0" key="66" pos="2304" len="192"/>
          <note vol="78" pan="0" key="54" pos="2304" len="192"/>
          <note vol="78" pan="0" key="61" pos="2496" len="144"/>
          <note vol="78" pan="0" key="49" pos="2496" len="144"/>
          <note vol="78" pan="0" key="61" pos="2640" len="24"/>
          <note vol="78" pan="0" key="49" pos="2640" len="24"/>
          <note vol="78" pan="0" key="63" pos="2664" len="24"/>
          <note vol="78" pan="0" key="51" pos="2664" len="24"/>
          <note vol="78" pan="0" key="64" pos="2688" len="192"/>
          <note vol="78" pan="0" key="52" pos="2688" len="192"/>
          <note vol="78" pan="0" key="64" pos="2880" len="96"/>
          <note vol="78" pan="0" key="52" pos="2880" len="96"/>
          <note vol="78" pan="0" key="68" pos="2976" len="96"/>
          <note vol="78" pan="0" key="56" pos="2976" len="96"/>
          <note vol="78" pan="0" key="73" pos="3072" len="384"/>
          <note vol="78" pan="0" key="61" pos="3072" len="384"/>
          <note vol="78" pan="0" key="73" pos="3456" len="384"/>
          <note vol="78" pan="0" key="61" pos="3456" len="384"/>
        </pattern>
        <pattern type="1" name="" steps="16" muted="0" pos="63360">
          <note vol="78" pan="0" key="56" pos="0" len="192"/>
          <note vol="78" pan="0" key="57" pos="192" len="192"/>
          <note vol="78" pan="0" key="59" pos="384" len="192"/>
          <note vol="78" pan="0" key="54" pos="576" len="192"/>
          <note vol="78" pan="0" key="56" pos="768" len="192"/>
          <note vol="78" pan="0" key="57" pos="960" len="192"/>
          <note vol="78" pan="0" key="59" pos="1152" len="192"/>
          <note vol="78" pan="0" key="63" pos="1344" len="192"/>
          <note vol="78" pan="0" key="61" pos="1536" len="192"/>
          <note vol="78" pan="0" key="61" pos="1920" len="192"/>
          <note vol="78" pan="0" key="64" pos="2112" len="192"/>
          <note vol="78" pan="0" key="62" pos="2304" len="192"/>
          <note vol="78" pan="0" key="61" pos="2688" len="192"/>
          <note vol="78" pan="0" key="66" pos="2880" len="192"/>
          <note vol="78" pan="0" key="61" pos="3072" len="48"/>
          <note vol="78" pan="0" key="49" pos="3072" len="48"/>
          <note vol="78" pan="0" key="61" pos="3120" len="48"/>
          <note vol="78" pan="0" key="49" pos="3120" len="48"/>
          <note vol="78" pan="0" key="61" pos="3168" len="48"/>
          <note vol="78" pan="0" key="49" pos="3168" len="48"/>
          <note vol="78" pan="0" key="64" pos="3216" len="48"/>
          <note vol="78" pan="0" key="52" pos="3216" len="48"/>
          <note vol="78" pan="0" key="63" pos="3264" len="48"/>
          <note vol="78" pan="0" key="51" pos="3264" len="48"/>
          <note vol="78" pan="0" key="63" pos="3312" len="48"/>
          <note vol="78" pan="0" key="51" pos="3312" len="48"/>
          <note vol="78" pan="0" key="63" pos="3360" len="48"/>
          <note vol="78" pan="0" key="51" pos="3360" len="48"/>
          <note vol="78" pan="0" key="68" pos="3408" len="48"/>
          <note vol="78" pan="0" key="56" pos="3408" len="48"/>
          <note vol="78" pan="0" key="68" pos="3456" len="48"/>
          <note vol="78" pan="0" key="56" pos="3456" len="48"/>
          <note vol="78" pan="0" key="68" pos="3504" len="48"/>
          <note vol="78" pan="0" key="56" pos="3504" len="48"/>
          <note vol="78" pan="0" key="68" pos="3552" len="48"/>
          <note vol="78" pan="0" key="56" pos="3552" len="48"/>
          <note vol="78" pan="0" key="66" pos="3600" len="24"/>
          <note vol="78" pan="0" key="54" pos="3600" len="24"/>
          <note vol="78" pan="0" key="64" pos="3624" len="24"/>
          <note vol="78" pan="0" key="52" pos="3624" len="24"/>
          <note vol="78" pan="0" key="63" pos="3648" len="48"/>
          <note vol="78" pan="0" key="51" pos="3648" len="48"/>
          <note vol="78" pan="0" key="64" pos="3696" len="48"/>
          <note vol="78" pan="0" key="52" pos="3696" len="48"/>
          <note vol="78" pan="0" key="59" pos="3744" len="48"/>
          <note vol="78" pan="0" key="47" pos="3744" len="48"/>
          <note vol="78" pan="0" key="56" pos="3792" len="48"/>
          <note vol="78" pan="0" key="44" pos="3792" len="48"/>
          <note vol="78" pan="0" key="57" pos="3840" len="48"/>
          <note vol="78" pan="0" key="45" pos="3840" len="48"/>
          <note vol="78" pan="0" key="57" pos="3888" len="48"/>
          <note vol="78" pan="0" key="45" pos="3888" len="48"/>
          <note vol="78" pan="0" key="57" pos="3936" len="48"/>
          <note vol="78" pan="0" key="45" pos="3936" len="48"/>
          <note vol="78" pan="0" key="64" pos="3984" len="48"/>
          <note vol="78" pan="0" key="52" pos="3984" len="48"/>
          <note vol="78" pan="0" key="63" pos="4032" len="48"/>
          <note vol="78" pan="0" key="51" pos="4032" len="48"/>
          <note vol="78" pan="0" key="63" pos="4080" len="48"/>
          <note vol="78" pan="0" key="51" pos="4080" len="48"/>
          <note vol="78" pan="0" key="63" pos="4128" len="48"/>
          <note vol="78" pan="0" key="51" pos="4128" len="48"/>
          <note vol="78" pan="0" key="66" pos="4176" len="48"/>
          <note vol="78" pan="0" key="54" pos="4176" len="48"/>
          <note vol="78" pan="0" key="64" pos="4224" len="96"/>
          <note vol="78" pan="0" key="52" pos="4224" len="96"/>
          <note vol="78" pan="0" key="68" pos="4320" len="48"/>
          <note vol="78" pan="0" key="56" pos="4320" len="48"/>
          <note vol="78" pan="0" key="64" pos="4368" len="48"/>
          <note vol="78" pan="0" key="52" pos="4368" len="48"/>
          <note vol="78" pan="0" key="66" pos="4416" len="48"/>
          <note vol="78" pan="0" key="54" pos="4416" len="48"/>
          <note vol="78" pan="0" key="71" pos="4464" len="48"/>
          <note vol="78" pan="0" key="59" pos="4464" len="48"/>
          <note vol="78" pan="0" key="68" pos="4512" len="48"/>
          <note vol="78" pan="0" key="56" pos="4512" len="48"/>
          <note vol="78" pan="0" key="75" pos="4560" len="48"/>
          <note vol="78" pan="0" key="63" pos="4560" len="48"/>
          <note vol="78" pan="0" key="73" pos="4608" len="384"/>
          <note vol="78" pan="0" key="61" pos="4608" len="384"/>
          <note vol="78" pan="0" key="73" pos="4992" len="384"/>
          <note vol="78" pan="0" key="61" pos="4992" len="384"/>
          <note vol="78" pan="0" key="73" pos="5376" len="48"/>
          <note vol="78" pan="0" key="61" pos="5376" len="48"/>
        </pattern>
        <pattern type="1" name="" steps="16" muted="0" pos="39744">
          <note vol="136" pan="0" key="61" pos="0" len="144"/>
          <note vol="136" pan="0" key="49" pos="0" len="48"/>
          <note vol="136" pan="0" key="52" pos="48" len="48"/>
          <note vol="136" pan="0" key="56" pos="96" len="48"/>
          <note vol="136" pan="0" key="64" pos="144" len="48"/>
          <note vol="136" pan="0" key="61" pos="144" len="48"/>
          <note vol="136" pan="0" key="63" pos="192" len="144"/>
          <note vol="136" pan="0" key="59" pos="192" len="48"/>
          <note vol="136" pan="0" key="54" pos="240" len="48"/>
          <note vol="136" pan="0" key="59" pos="288" len="48"/>
          <note vol="136" pan="0" key="68" pos="336" len="48"/>
          <note vol="136" pan="0" key="63" pos="336" len="48"/>
          <note vol="136" pan="0" key="68" pos="384" len="144"/>
          <note vol="136" pan="0" key="64" pos="384" len="48"/>
          <note vol="136" pan="0" key="57" pos="432" len="48"/>
          <note vol="136" pan="0" key="61" pos="480" len="48"/>
          <note vol="136" pan="0" key="66" pos="528" len="24"/>
          <note vol="136" pan="0" key="52" pos="528" len="48"/>
          <note vol="136" pan="0" key="64" pos="552" len="24"/>
          <note vol="136" pan="0" key="63" pos="576" len="48"/>
          <note vol="136" pan="0" key="54" pos="576" len="48"/>
          <note vol="136" pan="0" key="64" pos="624" len="48"/>
          <note vol="136" pan="0" key="51" pos="624" len="48"/>
          <note vol="136" pan="0" key="59" pos="672" len="48"/>
          <note vol="136" pan="0" key="54" pos="672" len="48"/>
          <note vol="136" pan="0" key="56" pos="720" len="48"/>
          <note vol="136" pan="0" key="47" pos="720" len="48"/>
          <note vol="136" pan="0" key="57" pos="768" len="96"/>
          <note vol="136" pan="0" key="49" pos="768" len="48"/>
          <note vol="136" pan="0" key="54" pos="816" len="48"/>
          <note vol="136" pan="0" key="61" pos="864" len="48"/>
          <note vol="136" pan="0" key="57" pos="864" len="48"/>
          <note vol="136" pan="0" key="64" pos="912" len="48"/>
          <note vol="136" pan="0" key="54" pos="912" len="48"/>
          <note vol="136" pan="0" key="64" pos="960" len="96"/>
          <note vol="136" pan="0" key="56" pos="960" len="48"/>
          <note vol="136" pan="0" key="59" pos="1008" len="48"/>
          <note vol="136" pan="0" key="63" pos="1056" len="48"/>
          <note vol="136" pan="0" key="56" pos="1056" len="48"/>
          <note vol="136" pan="0" key="64" pos="1104" len="48"/>
          <note vol="136" pan="0" key="51" pos="1104" len="48"/>
          <note vol="136" pan="0" key="71" pos="1152" len="72"/>
          <note vol="136" pan="0" key="57" pos="1152" len="48"/>
        </pattern>
        <pattern type="1" name="" steps="16" muted="0" pos="47232">
          <note vol="78" pan="0" key="63" pos="0" len="120"/>
          <note vol="78" pan="0" key="0" pos="0" len="24"/>
          <note vol="78" pan="0" key="1" pos="96" len="24"/>
          <note vol="78" pan="0" key="58" pos="120" len="24"/>
          <note vol="78" pan="0" key="0" pos="132" len="24"/>
          <note vol="78" pan="0" key="66" pos="144" len="24"/>
          <note vol="78" pan="0" key="58" pos="168" len="24"/>
          <note vol="78" pan="0" key="1" pos="168" len="24"/>
          <note vol="78" pan="0" key="65" pos="192" len="120"/>
          <note vol="78" pan="0" key="0" pos="192" len="24"/>
          <note vol="78" pan="0" key="1" pos="300" len="12"/>
          <note vol="78" pan="0" key="65" pos="312" len="12"/>
          <note vol="78" pan="0" key="66" pos="324" len="12"/>
          <note vol="78" pan="0" key="70" pos="336" len="12"/>
          <note vol="78" pan="0" key="0" pos="336" len="12"/>
          <note vol="78" pan="0" key="66" pos="348" len="12"/>
          <note vol="78" pan="0" key="65" pos="360" len="12"/>
          <note vol="78" pan="0" key="1" pos="360" len="12"/>
          <note vol="78" pan="0" key="66" pos="372" len="12"/>
          <note vol="78" pan="0" key="70" pos="384" len="144"/>
          <note vol="78" pan="0" key="0" pos="384" len="12"/>
          <note vol="78" pan="0" key="68" pos="528" len="24"/>
          <note vol="78" pan="0" key="66" pos="552" len="24"/>
          <note vol="78" pan="0" key="65" pos="576" len="48"/>
          <note vol="78" pan="0" key="66" pos="624" len="48"/>
          <note vol="78" pan="0" key="0" pos="660" len="12"/>
          <note vol="78" pan="0" key="61" pos="672" len="12"/>
          <note vol="78" pan="0" key="1" pos="672" len="12"/>
          <note vol="78" pan="0" key="61" pos="684" len="12"/>
          <note vol="78" pan="0" key="61" pos="696" len="12"/>
          <note vol="78" pan="0" key="61" pos="708" len="12"/>
          <note vol="78" pan="0" key="58" pos="720" len="12"/>
          <note vol="78" pan="0" key="0" pos="720" len="12"/>
          <note vol="78" pan="0" key="54" pos="732" len="12"/>
          <note vol="78" pan="0" key="1" pos="732" len="12"/>
          <note vol="78" pan="0" key="56" pos="744" len="12"/>
          <note vol="78" pan="0" key="58" pos="756" len="12"/>
          <note vol="78" pan="0" key="59" pos="768" len="96"/>
          <note vol="78" pan="0" key="0" pos="768" len="12"/>
          <note vol="78" pan="0" key="63" pos="864" len="48"/>
          <note vol="78" pan="0" key="66" pos="912" len="48"/>
          <note vol="78" pan="0" key="66" pos="960" len="96"/>
          <note vol="78" pan="0" key="65" pos="1056" len="12"/>
          <note vol="78" pan="0" key="0" pos="1056" len="12"/>
          <note vol="78" pan="0" key="58" pos="1068" len="12"/>
          <note vol="78" pan="0" key="2" pos="1068" len="12"/>
          <note vol="78" pan="0" key="58" pos="1080" len="12"/>
          <note vol="78" pan="0" key="1" pos="1080" len="12"/>
          <note vol="78" pan="0" key="58" pos="1092" len="12"/>
          <note vol="78" pan="0" key="66" pos="1104" len="12"/>
          <note vol="78" pan="0" key="0" pos="1104" len="12"/>
          <note vol="78" pan="0" key="63" pos="1116" len="12"/>
          <note vol="78" pan="0" key="2" pos="1116" len="12"/>
          <note vol="78" pan="0" key="65" pos="1128" len="12"/>
          <note vol="78" pan="0" key="1" pos="1128" len="12"/>
          <note vol="78" pan="0" key="66" pos="1140" len="12"/>
          <note vol="78" pan="0" key="73" pos="1152" len="48"/>
          <note vol="78" pan="0" key="0" pos="1152" len="12"/>
          <note vol="78" pan="0" key="71" pos="1200" len="12"/>
          <note vol="78" pan="0" key="73" pos="1212" len="12"/>
          <note vol="78" pan="0" key="71" pos="1224" len="48"/>
          <note vol="78" pan="0" key="70" pos="1272" len="12"/>
          <note vol="78" pan="0" key="0" pos="1272" len="12"/>
          <note vol="78" pan="0" key="71" pos="1284" len="12"/>
          <note vol="78" pan="0" key="70" pos="1296" len="12"/>
          <note vol="78" pan="0" key="1" pos="1296" len="12"/>
          <note vol="78" pan="0" key="68" pos="1308" len="12"/>
          <note vol="78" pan="0" key="66" pos="1320" len="12"/>
          <note vol="78" pan="0" key="70" pos="1332" len="12"/>
          <note vol="78" pan="0" key="68" pos="1344" len="72"/>
          <note vol="78" pan="0" key="0" pos="1344" len="12"/>
          <note vol="78" pan="0" key="66" pos="1416" len="12"/>
          <note vol="78" pan="0" key="1" pos="1416" len="12"/>
          <note vol="78" pan="0" key="68" pos="1428" len="12"/>
          <note vol="78" pan="0" key="70" pos="1440" len="12"/>
          <note vol="78" pan="0" key="0" pos="1440" len="12"/>
          <note vol="78" pan="0" key="71" pos="1452" len="12"/>
          <note vol="78" pan="0" key="70" pos="1464" len="12"/>
          <note vol="78" pan="0" key="1" pos="1464" len="12"/>
          <note vol="78" pan="0" key="68" pos="1476" len="12"/>
          <note vol="78" pan="0" key="70" pos="1488" len="12"/>
          <note vol="78" pan="0" key="0" pos="1488" len="12"/>
          <note vol="78" pan="0" key="68" pos="1500" len="12"/>
          <note vol="78" pan="0" key="66" pos="1512" len="12"/>
          <note vol="78" pan="0" key="65" pos="1524" len="12"/>
          <note vol="78" pan="0" key="66" pos="1536" len="48"/>
          <note vol="78" pan="0" key="0" pos="1536" len="12"/>
          <note vol="78" pan="0" key="1" pos="1572" len="12"/>
          <note vol="78" pan="0" key="58" pos="1584" len="12"/>
          <note vol="78" pan="0" key="58" pos="1596" len="12"/>
          <note vol="78" pan="0" key="65" pos="1608" len="48"/>
          <note vol="78" pan="0" key="0" pos="1608" len="12"/>
          <note vol="78" pan="0" key="1" pos="1644" len="12"/>
          <note vol="78" pan="0" key="58" pos="1656" len="12"/>
          <note vol="78" pan="0" key="58" pos="1668" len="12"/>
          <note vol="78" pan="0" key="66" pos="1680" len="24"/>
          <note vol="78" pan="0" key="0" pos="1680" len="12"/>
          <note vol="78" pan="0" key="1" pos="1692" len="12"/>
          <note vol="78" pan="0" key="58" pos="1704" len="12"/>
          <note vol="78" pan="0" key="58" pos="1716" len="12"/>
          <note vol="78" pan="0" key="70" pos="1728" len="144"/>
          <note vol="78" pan="0" key="0" pos="1728" len="12"/>
          <note vol="78" pan="0" key="77" pos="1872" len="48"/>
          <note vol="78" pan="0" key="0" pos="1908" len="12"/>
          <note vol="78" pan="0" key="75" pos="1920" len="12"/>
          <note vol="78" pan="0" key="77" pos="1932" len="12"/>
          <note vol="78" pan="0" key="2" pos="1932" len="12"/>
          <note vol="78" pan="0" key="75" pos="1944" len="216"/>
          <note vol="78" pan="0" key="0" pos="2100" len="12"/>
          <note vol="78" pan="0" key="78" pos="2160" len="48"/>
          <note vol="78" pan="0" key="80" pos="2208" len="24"/>
          <note vol="78" pan="0" key="78" pos="2232" len="12"/>
          <note vol="78" pan="0" key="80" pos="2244" len="12"/>
          <note vol="78" pan="0" key="82" pos="2256" len="24"/>
          <note vol="78" pan="0" key="80" pos="2280" len="12"/>
          <note vol="78" pan="0" key="82" pos="2292" len="12"/>
          <note vol="78" pan="0" key="83" pos="2304" len="72"/>
          <note vol="78" pan="0" key="82" pos="2376" len="72"/>
          <note vol="78" pan="0" key="80" pos="2448" len="48"/>
          <note vol="78" pan="0" key="1" pos="2484" len="12"/>
          <note vol="78" pan="0" key="78" pos="2496" len="12"/>
          <note vol="78" pan="0" key="78" pos="2508" len="12"/>
          <note vol="78" pan="0" key="78" pos="2520" len="12"/>
          <note vol="78" pan="0" key="78" pos="2532" len="12"/>
          <note vol="78" pan="0" key="75" pos="2544" len="12"/>
          <note vol="78" pan="0" key="75" pos="2556" len="12"/>
          <note vol="78" pan="0" key="75" pos="2568" len="12"/>
          <note vol="78" pan="0" key="75" pos="2580" len="12"/>
          <note vol="78" pan="0" key="78" pos="2592" len="12"/>
          <note vol="78" pan="0" key="0" pos="2592" len="12"/>
          <note vol="78" pan="0" key="78" pos="2604" len="12"/>
          <note vol="78" pan="0" key="78" pos="2616" len="12"/>
          <note vol="78" pan="0" key="78" pos="2628" len="12"/>
          <note vol="78" pan="0" key="87" pos="2640" len="48"/>
          <note vol="78" pan="0" key="85" pos="2688" len="192"/>
        </pattern>
      </track>
      <track type="0" name="Orchestra Soundfont 2 COMBO" solo="0" muted="1" mutedBeforeSolo="0">
        <instrumenttrack usemasterpitch="1" pitchrange="2" pitch="0" vol="58.4" basenote="57" pan="0" fxch="0">
          <instrument name="sf2player">
            <sf2player reverbRoomSize="0.2" reverbWidth="0.5" reverbDamping="0" chorusNum="3" patch="52" chorusLevel="2" src="/home/pass/samples/soundfonts/Orchestra Soundfont 2 COMBO.sf2" reverbOn="0" chorusOn="0" gain="5" chorusDepth="8" chorusSpeed="0.3" bank="0" reverbLevel="0.9">
              <key/>
            </sf2player>
          </instrument>
          <eldata fwet="0" fres="0.5" ftype="0" fcut="14000">
            <elvol x100="0" lspd_numerator="4" amt="0" lspd="0.1" lpdel="0" dec="0.5" lspd_syncmode="0" att="0" ctlenvamt="0" pdel="0" latt="0" sustain="0.5" lspd_denominator="4" hold="0.5" lamt="0" userwavefile="" lshp="0" rel="0.1"/>
            <elcut x100="0" lspd_numerator="4" amt="0" lspd="0.1" lpdel="0" dec="0.5" lspd_syncmode="0" att="0" ctlenvamt="0" pdel="0" latt="0" sustain="0.5" lspd_denominator="4" hold="0.5" lamt="0" userwavefile="" lshp="0" rel="0.1"/>
            <elres x100="0" lspd_numerator="4" amt="0" lspd="0.1" lpdel="0" dec="0.5" lspd_syncmode="0" att="0" ctlenvamt="0" pdel="0" latt="0" sustain="0.5" lspd_denominator="4" hold="0.5" lamt="0" userwavefile="" lshp="0" rel="0.1"/>
          </eldata>
          <chordcreator chordrange="1" chord="0" chord-enabled="0"/>
          <arpeggiator arprange="1" arptime_syncmode="0" arpskip="0" arpmiss="0" arptime="200" arpdir="0" arpmode="0" arptime_denominator="4" arp-enabled="0" arp="0" arpgate="100" arpcycle="0" arptime_numerator="4"/>
          <midiport inputcontroller="0" outputcontroller="0" outputprogram="1" basevelocity="63" outputchannel="1" writable="0" inputchannel="0" readable="0" fixedinputvelocity="-1" fixedoutputvelocity="-1" fixedoutputnote="-1"/>
          <fxchain numofeffects="0" enabled="0"/>
        </instrumenttrack>
        <pattern type="1" name="" steps="16" muted="0" pos="8064">
          <note vol="78" pan="0" key="64" pos="0" len="192"/>
          <note vol="78" pan="0" key="61" pos="0" len="192"/>
          <note vol="78" pan="0" key="63" pos="192" len="192"/>
          <note vol="78" pan="0" key="56" pos="192" len="192"/>
          <note vol="78" pan="0" key="64" pos="384" len="192"/>
          <note vol="78" pan="0" key="57" pos="384" len="192"/>
          <note vol="78" pan="0" key="66" pos="576" len="192"/>
          <note vol="78" pan="0" key="59" pos="576" len="192"/>
          <note vol="78" pan="0" key="64" pos="768" len="192"/>
          <note vol="78" pan="0" key="61" pos="768" len="192"/>
          <note vol="78" pan="0" key="66" pos="960" len="192"/>
          <note vol="78" pan="0" key="59" pos="960" len="192"/>
          <note vol="78" pan="0" key="64" pos="1152" len="192"/>
          <note vol="78" pan="0" key="61" pos="1152" len="192"/>
          <note vol="78" pan="0" key="66" pos="1344" len="192"/>
          <note vol="78" pan="0" key="56" pos="1344" len="192"/>
          <note vol="78" pan="0" key="64" pos="1536" len="192"/>
          <note vol="78" pan="0" key="61" pos="1536" len="192"/>
          <note vol="78" pan="0" key="63" pos="1728" len="192"/>
          <note vol="78" pan="0" key="56" pos="1728" len="192"/>
          <note vol="78" pan="0" key="64" pos="1920" len="192"/>
          <note vol="78" pan="0" key="58" pos="1920" len="192"/>
          <note vol="78" pan="0" key="66" pos="2112" len="192"/>
          <note vol="78" pan="0" key="58" pos="2112" len="192"/>
          <note vol="78" pan="0" key="64" pos="2304" len="192"/>
          <note vol="78" pan="0" key="61" pos="2304" len="192"/>
          <note vol="78" pan="0" key="66" pos="2496" len="192"/>
          <note vol="78" pan="0" key="59" pos="2496" len="192"/>
          <note vol="78" pan="0" key="64" pos="2688" len="192"/>
          <note vol="78" pan="0" key="61" pos="2688" len="192"/>
          <note vol="78" pan="0" key="59" pos="2880" len="192"/>
          <note vol="78" pan="0" key="56" pos="2880" len="192"/>
        </pattern>
        <pattern type="1" name="" steps="16" muted="0" pos="15744">
          <note vol="78" pan="0" key="64" pos="0" len="192"/>
          <note vol="78" pan="0" key="61" pos="0" len="192"/>
          <note vol="78" pan="0" key="63" pos="192" len="192"/>
          <note vol="78" pan="0" key="56" pos="192" len="192"/>
          <note vol="78" pan="0" key="64" pos="384" len="192"/>
          <note vol="78" pan="0" key="57" pos="384" len="192"/>
          <note vol="78" pan="0" key="66" pos="576" len="192"/>
          <note vol="78" pan="0" key="59" pos="576" len="192"/>
          <note vol="78" pan="0" key="64" pos="768" len="192"/>
          <note vol="78" pan="0" key="61" pos="768" len="192"/>
          <note vol="78" pan="0" key="66" pos="960" len="192"/>
          <note vol="78" pan="0" key="59" pos="960" len="192"/>
          <note vol="78" pan="0" key="64" pos="1152" len="192"/>
          <note vol="78" pan="0" key="61" pos="1152" len="192"/>
          <note vol="78" pan="0" key="66" pos="1344" len="192"/>
          <note vol="78" pan="0" key="56" pos="1344" len="192"/>
          <note vol="78" pan="0" key="64" pos="1536" len="192"/>
          <note vol="78" pan="0" key="61" pos="1536" len="192"/>
          <note vol="78" pan="0" key="63" pos="1728" len="192"/>
          <note vol="78" pan="0" key="56" pos="1728" len="192"/>
          <note vol="78" pan="0" key="61" pos="1920" len="192"/>
          <note vol="78" pan="0" key="58" pos="1920" len="192"/>
          <note vol="78" pan="0" key="66" pos="2112" len="192"/>
          <note vol="78" pan="0" key="58" pos="2112" len="192"/>
          <note vol="78" pan="0" key="62" pos="2304" len="192"/>
          <note vol="78" pan="0" key="57" pos="2304" len="192"/>
          <note vol="78" pan="0" key="64" pos="2496" len="192"/>
          <note vol="78" pan="0" key="57" pos="2496" len="192"/>
          <note vol="78" pan="0" key="63" pos="2688" len="192"/>
          <note vol="78" pan="0" key="59" pos="2688" len="192"/>
          <note vol="78" pan="0" key="61" pos="6144" len="192"/>
          <note vol="78" pan="0" key="59" pos="6336" len="192"/>
          <note vol="78" pan="0" key="56" pos="6528" len="384"/>
          <note vol="78" pan="0" key="56" pos="6912" len="192"/>
          <note vol="78" pan="0" key="54" pos="7104" len="192"/>
          <note vol="78" pan="0" key="52" pos="7296" len="384"/>
        </pattern>
        <pattern type="1" name="" steps="16" muted="0" pos="24000">
          <note vol="78" pan="0" key="64" pos="0" len="192"/>
          <note vol="78" pan="0" key="61" pos="192" len="384"/>
          <note vol="78" pan="0" key="61" pos="576" len="384"/>
        </pattern>
        <pattern type="1" name="" steps="16" muted="0" pos="47232">
          <note vol="78" pan="0" key="64" pos="0" len="192"/>
          <note vol="78" pan="0" key="61" pos="0" len="192"/>
          <note vol="78" pan="0" key="63" pos="192" len="192"/>
          <note vol="78" pan="0" key="56" pos="192" len="192"/>
          <note vol="78" pan="0" key="64" pos="384" len="192"/>
          <note vol="78" pan="0" key="57" pos="384" len="192"/>
          <note vol="78" pan="0" key="66" pos="576" len="192"/>
          <note vol="78" pan="0" key="59" pos="576" len="192"/>
          <note vol="78" pan="0" key="64" pos="768" len="192"/>
          <note vol="78" pan="0" key="61" pos="768" len="192"/>
          <note vol="78" pan="0" key="66" pos="960" len="192"/>
          <note vol="78" pan="0" key="59" pos="960" len="192"/>
          <note vol="78" pan="0" key="64" pos="1152" len="192"/>
          <note vol="78" pan="0" key="61" pos="1152" len="192"/>
          <note vol="78" pan="0" key="66" pos="1344" len="192"/>
          <note vol="78" pan="0" key="56" pos="1344" len="192"/>
          <note vol="78" pan="0" key="64" pos="1536" len="192"/>
          <note vol="78" pan="0" key="61" pos="1536" len="192"/>
          <note vol="78" pan="0" key="63" pos="1728" len="192"/>
          <note vol="78" pan="0" key="56" pos="1728" len="192"/>
          <note vol="78" pan="0" key="64" pos="1920" len="192"/>
          <note vol="78" pan="0" key="58" pos="1920" len="192"/>
          <note vol="78" pan="0" key="66" pos="2112" len="192"/>
          <note vol="78" pan="0" key="58" pos="2112" len="192"/>
          <note vol="78" pan="0" key="64" pos="2304" len="192"/>
          <note vol="78" pan="0" key="61" pos="2304" len="192"/>
          <note vol="78" pan="0" key="66" pos="2496" len="192"/>
          <note vol="78" pan="0" key="59" pos="2496" len="192"/>
          <note vol="78" pan="0" key="64" pos="2688" len="192"/>
          <note vol="78" pan="0" key="61" pos="2688" len="192"/>
          <note vol="78" pan="0" key="59" pos="3072" len="384"/>
          <note vol="78" pan="0" key="63" pos="3456" len="384"/>
          <note vol="78" pan="0" key="66" pos="3840" len="384"/>
          <note vol="78" pan="0" key="66" pos="4224" len="384"/>
          <note vol="78" pan="0" key="59" pos="4608" len="384"/>
          <note vol="78" pan="0" key="63" pos="4992" len="384"/>
          <note vol="78" pan="0" key="66" pos="5376" len="384"/>
          <note vol="78" pan="0" key="66" pos="5760" len="384"/>
          <note vol="78" pan="0" key="61" pos="6144" len="192"/>
          <note vol="78" pan="0" key="59" pos="6336" len="192"/>
          <note vol="78" pan="0" key="56" pos="6528" len="384"/>
          <note vol="78" pan="0" key="56" pos="6912" len="192"/>
          <note vol="78" pan="0" key="54" pos="7104" len="192"/>
          <note vol="78" pan="0" key="52" pos="7296" len="384"/>
        </pattern>
        <pattern type="1" name="" steps="16" muted="0" pos="55488">
          <note vol="78" pan="0" key="64" pos="0" len="192"/>
          <note vol="78" pan="0" key="61" pos="192" len="384"/>
          <note vol="78" pan="0" key="61" pos="576" len="384"/>
          <note vol="78" pan="0" key="61" pos="960" len="192"/>
          <note vol="78" pan="0" key="59" pos="1152" len="192"/>
          <note vol="78" pan="0" key="56" pos="1344" len="384"/>
          <note vol="78" pan="0" key="56" pos="1728" len="192"/>
          <note vol="78" pan="0" key="54" pos="1920" len="192"/>
          <note vol="78" pan="0" key="52" pos="2112" len="384"/>
        </pattern>
        <pattern type="1" name="" steps="16" muted="0" pos="58560">
          <note vol="78" pan="0" key="64" pos="0" len="192"/>
          <note vol="78" pan="0" key="61" pos="192" len="384"/>
          <note vol="78" pan="0" key="61" pos="576" len="384"/>
          <note vol="78" pan="0" key="68" pos="960" len="384"/>
          <note vol="78" pan="0" key="68" pos="1344" len="384"/>
        </pattern>
        <pattern type="1" name="" steps="16" muted="0" pos="66432">
          <note vol="78" pan="0" key="64" pos="0" len="192"/>
          <note vol="78" pan="0" key="61" pos="0" len="192"/>
          <note vol="78" pan="0" key="66" pos="192" len="192"/>
          <note vol="78" pan="0" key="63" pos="192" len="192"/>
          <note vol="78" pan="0" key="64" pos="384" len="192"/>
          <note vol="78" pan="0" key="61" pos="384" len="192"/>
          <note vol="78" pan="0" key="66" pos="576" len="192"/>
          <note vol="78" pan="0" key="63" pos="576" len="192"/>
          <note vol="78" pan="0" key="66" pos="768" len="192"/>
          <note vol="78" pan="0" key="63" pos="768" len="192"/>
          <note vol="78" pan="0" key="66" pos="960" len="192"/>
          <note vol="78" pan="0" key="63" pos="960" len="192"/>
          <note vol="78" pan="0" key="64" pos="1152" len="192"/>
          <note vol="78" pan="0" key="61" pos="1152" len="192"/>
          <note vol="78" pan="0" key="66" pos="1344" len="192"/>
          <note vol="78" pan="0" key="63" pos="1344" len="192"/>
          <note vol="78" pan="0" key="73" pos="1536" len="384"/>
          <note vol="78" pan="0" key="61" pos="1536" len="384"/>
          <note vol="78" pan="0" key="73" pos="1920" len="384"/>
          <note vol="78" pan="0" key="61" pos="1920" len="384"/>
          <note vol="78" pan="0" key="73" pos="2304" len="48"/>
          <note vol="78" pan="0" key="61" pos="2304" len="48"/>
        </pattern>
        <pattern type="1" name="" steps="16" muted="0" pos="24960">
          <note vol="70" pan="0" key="61" pos="0" len="192"/>
          <note vol="70" pan="0" key="59" pos="192" len="192"/>
          <note vol="70" pan="0" key="56" pos="384" len="288"/>
          <note vol="70" pan="0" key="56" pos="672" len="96"/>
          <note vol="70" pan="0" key="68" pos="768" len="192"/>
          <note vol="70" pan="0" key="66" pos="960" len="192"/>
          <note vol="70" pan="0" key="61" pos="1152" len="384"/>
          <note vol="70" pan="0" key="61" pos="1536" len="192"/>
          <note vol="70" pan="0" key="63" pos="1728" len="192"/>
          <note vol="70" pan="0" key="64" pos="1920" len="192"/>
          <note vol="70" pan="0" key="68" pos="2112" len="96"/>
          <note vol="70" pan="0" key="66" pos="2208" len="96"/>
          <note vol="70" pan="0" key="66" pos="2304" len="192"/>
          <note vol="70" pan="0" key="61" pos="2496" len="144"/>
          <note vol="70" pan="0" key="61" pos="2640" len="24"/>
          <note vol="70" pan="0" key="63" pos="2664" len="24"/>
          <note vol="70" pan="0" key="64" pos="2688" len="192"/>
          <note vol="70" pan="0" key="64" pos="2880" len="96"/>
          <note vol="70" pan="0" key="68" pos="2976" len="96"/>
          <note vol="70" pan="0" key="73" pos="3072" len="384"/>
          <note vol="70" pan="0" key="73" pos="3456" len="384"/>
        </pattern>
        <pattern type="1" name="" steps="16" muted="0" pos="39744">
          <note vol="78" pan="0" key="86" pos="0" len="24"/>
          <note vol="78" pan="0" key="0" pos="0" len="48"/>
          <note vol="78" pan="0" key="81" pos="24" len="24"/>
          <note vol="78" pan="0" key="76" pos="48" len="24"/>
          <note vol="78" pan="0" key="83" pos="72" len="24"/>
          <note vol="78" pan="0" key="85" pos="96" len="24"/>
          <note vol="78" pan="0" key="86" pos="120" len="24"/>
          <note vol="78" pan="0" key="85" pos="144" len="24"/>
          <note vol="78" pan="0" key="83" pos="168" len="24"/>
          <note vol="78" pan="0" key="85" pos="192" len="12"/>
          <note vol="78" pan="0" key="0" pos="192" len="24"/>
          <note vol="78" pan="0" key="81" pos="204" len="12"/>
          <note vol="78" pan="0" key="76" pos="216" len="12"/>
          <note vol="78" pan="0" key="1" pos="216" len="24"/>
          <note vol="78" pan="0" key="73" pos="228" len="12"/>
          <note vol="78" pan="0" key="69" pos="240" len="12"/>
          <note vol="78" pan="0" key="73" pos="252" len="12"/>
          <note vol="78" pan="0" key="81" pos="264" len="12"/>
          <note vol="78" pan="0" key="0" pos="264" len="24"/>
          <note vol="78" pan="0" key="76" pos="276" len="12"/>
          <note vol="78" pan="0" key="73" pos="288" len="12"/>
          <note vol="78" pan="0" key="1" pos="288" len="24"/>
          <note vol="78" pan="0" key="69" pos="300" len="12"/>
          <note vol="78" pan="0" key="73" pos="312" len="12"/>
          <note vol="78" pan="0" key="76" pos="324" len="12"/>
          <note vol="78" pan="0" key="85" pos="336" len="12"/>
          <note vol="78" pan="0" key="0" pos="336" len="24"/>
          <note vol="78" pan="0" key="83" pos="348" len="12"/>
          <note vol="78" pan="0" key="81" pos="360" len="12"/>
          <note vol="78" pan="0" key="1" pos="360" len="24"/>
          <note vol="78" pan="0" key="83" pos="372" len="12"/>
          <note vol="78" pan="0" key="87" pos="384" len="384"/>
          <note vol="78" pan="0" key="0" pos="384" len="24"/>
        </pattern>
        <pattern type="1" name="" steps="16" muted="0" pos="40512">
          <note vol="78" pan="0" key="81" pos="0" len="24"/>
          <note vol="78" pan="0" key="0" pos="0" len="48"/>
          <note vol="78" pan="0" key="76" pos="24" len="24"/>
          <note vol="78" pan="0" key="73" pos="48" len="24"/>
          <note vol="78" pan="0" key="80" pos="72" len="24"/>
          <note vol="78" pan="0" key="81" pos="96" len="24"/>
          <note vol="78" pan="0" key="83" pos="120" len="24"/>
          <note vol="78" pan="0" key="81" pos="144" len="24"/>
          <note vol="78" pan="0" key="80" pos="168" len="24"/>
          <note vol="78" pan="0" key="81" pos="192" len="12"/>
          <note vol="78" pan="0" key="0" pos="192" len="24"/>
          <note vol="78" pan="0" key="76" pos="204" len="12"/>
          <note vol="78" pan="0" key="73" pos="216" len="12"/>
          <note vol="78" pan="0" key="1" pos="216" len="24"/>
          <note vol="78" pan="0" key="69" pos="228" len="12"/>
          <note vol="78" pan="0" key="64" pos="240" len="12"/>
          <note vol="78" pan="0" key="69" pos="252" len="12"/>
          <note vol="78" pan="0" key="76" pos="264" len="12"/>
          <note vol="78" pan="0" key="0" pos="264" len="24"/>
          <note vol="78" pan="0" key="73" pos="276" len="12"/>
          <note vol="78" pan="0" key="69" pos="288" len="12"/>
          <note vol="78" pan="0" key="1" pos="288" len="24"/>
          <note vol="78" pan="0" key="64" pos="300" len="12"/>
          <note vol="78" pan="0" key="69" pos="312" len="12"/>
          <note vol="78" pan="0" key="73" pos="324" len="12"/>
          <note vol="78" pan="0" key="81" pos="336" len="12"/>
          <note vol="78" pan="0" key="0" pos="336" len="24"/>
          <note vol="78" pan="0" key="80" pos="348" len="12"/>
          <note vol="78" pan="0" key="76" pos="360" len="12"/>
          <note vol="78" pan="0" key="1" pos="360" len="24"/>
          <note vol="78" pan="0" key="80" pos="372" len="12"/>
          <note vol="78" pan="0" key="83" pos="384" len="384"/>
          <note vol="78" pan="0" key="0" pos="384" len="24"/>
        </pattern>
        <pattern type="1" name="" steps="16" muted="0" pos="60288">
          <note vol="78" pan="0" key="75" pos="0" len="120"/>
          <note vol="78" pan="0" key="0" pos="0" len="24"/>
          <note vol="78" pan="0" key="1" pos="96" len="24"/>
          <note vol="78" pan="0" key="70" pos="120" len="24"/>
          <note vol="78" pan="0" key="73" pos="144" len="24"/>
          <note vol="78" pan="0" key="70" pos="168" len="24"/>
          <note vol="78" pan="0" key="75" pos="192" len="144"/>
          <note vol="78" pan="0" key="0" pos="192" len="24"/>
          <note vol="78" pan="0" key="78" pos="336" len="48"/>
          <note vol="78" pan="0" key="77" pos="384" len="288"/>
          <note vol="78" pan="0" key="70" pos="672" len="48"/>
          <note vol="78" pan="0" key="73" pos="720" len="48"/>
          <note vol="78" pan="0" key="75" pos="768" len="240"/>
          <note vol="78" pan="0" key="73" pos="1008" len="12"/>
          <note vol="78" pan="0" key="70" pos="1020" len="12"/>
          <note vol="78" pan="0" key="71" pos="1032" len="12"/>
          <note vol="78" pan="0" key="73" pos="1044" len="12"/>
          <note vol="78" pan="0" key="75" pos="1056" len="12"/>
          <note vol="78" pan="0" key="73" pos="1068" len="12"/>
          <note vol="78" pan="0" key="75" pos="1080" len="12"/>
          <note vol="78" pan="0" key="78" pos="1092" len="12"/>
          <note vol="78" pan="0" key="82" pos="1104" len="12"/>
          <note vol="78" pan="0" key="78" pos="1116" len="12"/>
          <note vol="78" pan="0" key="80" pos="1128" len="12"/>
          <note vol="78" pan="0" key="82" pos="1140" len="12"/>
          <note vol="78" pan="0" key="80" pos="1152" len="192"/>
          <note vol="78" pan="0" key="83" pos="1344" len="24"/>
          <note vol="78" pan="0" key="82" pos="1368" len="12"/>
          <note vol="78" pan="0" key="83" pos="1380" len="12"/>
          <note vol="78" pan="0" key="82" pos="1392" len="24"/>
          <note vol="78" pan="0" key="83" pos="1416" len="12"/>
          <note vol="78" pan="0" key="82" pos="1428" len="12"/>
          <note vol="78" pan="0" key="80" pos="1440" len="24"/>
          <note vol="78" pan="0" key="82" pos="1464" len="12"/>
          <note vol="78" pan="0" key="80" pos="1476" len="12"/>
          <note vol="78" pan="0" key="76" pos="1488" len="24"/>
          <note vol="78" pan="0" key="78" pos="1512" len="12"/>
          <note vol="78" pan="0" key="76" pos="1524" len="12"/>
          <note vol="78" pan="0" key="75" pos="1536" len="144"/>
          <note vol="78" pan="0" key="75" pos="1680" len="24"/>
          <note vol="78" pan="0" key="77" pos="1704" len="24"/>
          <note vol="78" pan="0" key="78" pos="1728" len="96"/>
          <note vol="78" pan="0" key="0" pos="1812" len="24"/>
          <note vol="78" pan="0" key="80" pos="1824" len="12"/>
          <note vol="78" pan="0" key="82" pos="1836" len="84"/>
          <note vol="78" pan="0" key="2" pos="1836" len="24"/>
          <note vol="78" pan="0" key="0" pos="1896" len="24"/>
          <note vol="78" pan="0" key="80" pos="1920" len="156"/>
          <note vol="78" pan="0" key="80" pos="2076" len="12"/>
          <note vol="78" pan="0" key="78" pos="2088" len="12"/>
          <note vol="78" pan="0" key="77" pos="2100" len="12"/>
          <note vol="78" pan="0" key="73" pos="2112" len="96"/>
          <note vol="78" pan="0" key="70" pos="2208" len="48"/>
          <note vol="78" pan="0" key="73" pos="2256" len="48"/>
          <note vol="78" pan="0" key="75" pos="2304" len="120"/>
          <note vol="78" pan="0" key="73" pos="2424" len="12"/>
          <note vol="78" pan="0" key="1" pos="2424" len="12"/>
          <note vol="78" pan="0" key="73" pos="2436" len="12"/>
          <note vol="78" pan="0" key="72" pos="2448" len="12"/>
          <note vol="78" pan="0" key="72" pos="2460" len="12"/>
          <note vol="78" pan="0" key="68" pos="2472" len="12"/>
          <note vol="78" pan="0" key="68" pos="2484" len="12"/>
          <note vol="78" pan="0" key="70" pos="2496" len="96"/>
          <note vol="78" pan="0" key="0" pos="2496" len="12"/>
          <note vol="78" pan="0" key="63" pos="2592" len="96"/>
          <note vol="78" pan="0" key="70" pos="2688" len="12"/>
          <note vol="78" pan="0" key="0" pos="2688" len="12"/>
          <note vol="78" pan="0" key="71" pos="2700" len="84"/>
          <note vol="78" pan="0" key="2" pos="2700" len="12"/>
          <note vol="78" pan="0" key="0" pos="2712" len="12"/>
          <note vol="78" pan="0" key="70" pos="2784" len="96"/>
          <note vol="78" pan="0" key="68" pos="2880" len="96"/>
          <note vol="78" pan="0" key="73" pos="2976" len="96"/>
          <note vol="78" pan="0" key="75" pos="3072" len="12"/>
          <note vol="78" pan="0" key="1" pos="3072" len="12"/>
          <note vol="78" pan="0" key="75" pos="3084" len="12"/>
          <note vol="78" pan="0" key="66" pos="3096" len="12"/>
          <note vol="78" pan="0" key="66" pos="3108" len="12"/>
          <note vol="78" pan="0" key="70" pos="3120" len="12"/>
          <note vol="78" pan="0" key="70" pos="3132" len="12"/>
          <note vol="78" pan="0" key="66" pos="3144" len="12"/>
          <note vol="78" pan="0" key="66" pos="3156" len="12"/>
          <note vol="78" pan="0" key="75" pos="3168" len="12"/>
          <note vol="78" pan="0" key="75" pos="3180" len="12"/>
          <note vol="78" pan="0" key="70" pos="3192" len="12"/>
          <note vol="78" pan="0" key="70" pos="3204" len="12"/>
          <note vol="78" pan="0" key="77" pos="3216" len="12"/>
          <note vol="78" pan="0" key="77" pos="3228" len="12"/>
          <note vol="78" pan="0" key="70" pos="3240" len="12"/>
          <note vol="78" pan="0" key="70" pos="3252" len="12"/>
          <note vol="78" pan="0" key="78" pos="3264" len="12"/>
          <note vol="78" pan="0" key="78" pos="3276" len="12"/>
          <note vol="78" pan="0" key="75" pos="3288" len="12"/>
          <note vol="78" pan="0" key="75" pos="3300" len="12"/>
          <note vol="78" pan="0" key="80" pos="3312" len="12"/>
          <note vol="78" pan="0" key="0" pos="3312" len="12"/>
          <note vol="78" pan="0" key="78" pos="3324" len="12"/>
          <note vol="78" pan="0" key="75" pos="3336" len="12"/>
          <note vol="78" pan="0" key="78" pos="3348" len="12"/>
          <note vol="78" pan="0" key="82" pos="3360" len="12"/>
          <note vol="78" pan="0" key="80" pos="3372" len="12"/>
          <note vol="78" pan="0" key="78" pos="3384" len="12"/>
          <note vol="78" pan="0" key="80" pos="3396" len="12"/>
          <note vol="78" pan="0" key="87" pos="3408" len="48"/>
          <note vol="78" pan="0" key="0" pos="3408" len="12"/>
          <note vol="78" pan="0" key="85" pos="3456" len="144"/>
          <note vol="78" pan="0" key="80" pos="3600" len="12"/>
          <note vol="78" pan="0" key="0" pos="3600" len="12"/>
          <note vol="78" pan="0" key="82" pos="3612" len="36"/>
          <note vol="78" pan="0" key="2" pos="3612" len="12"/>
          <note vol="78" pan="0" key="0" pos="3624" len="12"/>
          <note vol="78" pan="0" key="80" pos="3648" len="96"/>
          <note vol="78" pan="0" key="77" pos="3744" len="48"/>
          <note vol="78" pan="0" key="80" pos="3792" len="48"/>
          <note vol="78" pan="0" key="79" pos="3840" len="12"/>
          <note vol="78" pan="0" key="80" pos="3852" len="12"/>
          <note vol="78" pan="0" key="79" pos="3864" len="12"/>
          <note vol="78" pan="0" key="77" pos="3876" len="12"/>
          <note vol="78" pan="0" key="75" pos="3888" len="12"/>
          <note vol="78" pan="0" key="77" pos="3900" len="12"/>
          <note vol="78" pan="0" key="75" pos="3912" len="12"/>
          <note vol="78" pan="0" key="72" pos="3924" len="12"/>
          <note vol="78" pan="0" key="70" pos="3936" len="12"/>
          <note vol="78" pan="0" key="72" pos="3948" len="12"/>
          <note vol="78" pan="0" key="70" pos="3960" len="12"/>
          <note vol="78" pan="0" key="68" pos="3972" len="12"/>
          <note vol="78" pan="0" key="65" pos="3984" len="12"/>
          <note vol="78" pan="0" key="68" pos="3996" len="12"/>
          <note vol="78" pan="0" key="65" pos="4008" len="12"/>
          <note vol="78" pan="0" key="63" pos="4020" len="12"/>
          <note vol="78" pan="0" key="70" pos="4032" len="48"/>
          <note vol="78" pan="0" key="68" pos="4080" len="12"/>
          <note vol="78" pan="0" key="0" pos="4080" len="12"/>
          <note vol="78" pan="0" key="65" pos="4092" len="12"/>
          <note vol="78" pan="0" key="2" pos="4092" len="12"/>
          <note vol="78" pan="0" key="65" pos="4104" len="12"/>
          <note vol="78" pan="0" key="1" pos="4104" len="12"/>
          <note vol="78" pan="0" key="65" pos="4116" len="12"/>
          <note vol="78" pan="0" key="75" pos="4128" len="96"/>
          <note vol="78" pan="0" key="0" pos="4128" len="12"/>
          <note vol="78" pan="0" key="75" pos="4224" len="192"/>
          <note vol="78" pan="0" key="78" pos="4416" len="96"/>
          <note vol="78" pan="0" key="80" pos="4512" len="96"/>
          <note vol="78" pan="0" key="82" pos="4608" len="192"/>
          <note vol="78" pan="0" key="0" pos="4608" len="16"/>
          <note vol="78" pan="0" key="75" pos="4800" len="16"/>
          <note vol="78" pan="0" key="1" pos="4800" len="16"/>
          <note vol="78" pan="0" key="77" pos="4816" len="16"/>
          <note vol="78" pan="0" key="75" pos="4832" len="16"/>
          <note vol="78" pan="0" key="78" pos="4848" len="16"/>
          <note vol="78" pan="0" key="80" pos="4864" len="16"/>
          <note vol="78" pan="0" key="0" pos="4864" len="16"/>
          <note vol="78" pan="0" key="82" pos="4880" len="16"/>
          <note vol="78" pan="0" key="87" pos="4896" len="16"/>
          <note vol="78" pan="0" key="82" pos="4912" len="16"/>
          <note vol="78" pan="0" key="80" pos="4928" len="16"/>
          <note vol="78" pan="0" key="1" pos="4928" len="16"/>
          <note vol="78" pan="0" key="78" pos="4944" len="16"/>
          <note vol="78" pan="0" key="77" pos="4960" len="16"/>
          <note vol="78" pan="0" key="75" pos="4976" len="16"/>
          <note vol="78" pan="0" key="77" pos="4992" len="48"/>
          <note vol="78" pan="0" key="0" pos="4992" len="192"/>
          <note vol="78" pan="0" key="78" pos="5040" len="48"/>
          <note vol="78" pan="0" key="80" pos="5088" len="48"/>
          <note vol="78" pan="0" key="85" pos="5136" len="48"/>
          <note vol="78" pan="0" key="73" pos="5184" len="96"/>
          <note vol="78" pan="0" key="75" pos="5280" len="12"/>
          <note vol="78" pan="0" key="0" pos="5280" len="12"/>
          <note vol="78" pan="0" key="77" pos="5292" len="84"/>
          <note vol="78" pan="0" key="2" pos="5292" len="12"/>
          <note vol="78" pan="0" key="0" pos="5304" len="12"/>
          <note vol="78" pan="0" key="75" pos="5376" len="96"/>
          <note vol="78" pan="0" key="77" pos="5472" len="96"/>
          <note vol="78" pan="0" key="70" pos="5568" len="96"/>
          <note vol="78" pan="0" key="75" pos="5664" len="96"/>
          <note vol="78" pan="0" key="80" pos="5760" len="96"/>
          <note vol="78" pan="0" key="82" pos="5856" len="96"/>
          <note vol="200" pan="0" key="85" pos="5952" len="96"/>
        </pattern>
      </track>
      <track type="0" name="Mystery Dungeon" solo="0" muted="1" mutedBeforeSolo="0">
        <instrumenttrack usemasterpitch="1" pitchrange="2" pitch="0" vol="192" basenote="57" pan="0" fxch="0">
          <instrument name="sf2player">
            <sf2player reverbRoomSize="0.2" reverbWidth="0.5" reverbDamping="0" chorusNum="3" patch="1" chorusLevel="2" src="/home/pass/samples/soundfonts/Mystery Dungeon.sf2" reverbOn="0" chorusOn="0" gain="1" chorusDepth="8" chorusSpeed="0.3" bank="0" reverbLevel="0.9">
              <key/>
            </sf2player>
          </instrument>
          <eldata fwet="0" fres="0.5" ftype="0" fcut="14000">
            <elvol x100="0" lspd_numerator="4" amt="0" lspd="0.1" lpdel="0" dec="0.5" lspd_syncmode="0" att="0" ctlenvamt="0" pdel="0" latt="0" sustain="0.5" lspd_denominator="4" hold="0.5" lamt="0" userwavefile="" lshp="0" rel="0.1"/>
            <elcut x100="0" lspd_numerator="4" amt="0" lspd="0.1" lpdel="0" dec="0.5" lspd_syncmode="0" att="0" ctlenvamt="0" pdel="0" latt="0" sustain="0.5" lspd_denominator="4" hold="0.5" lamt="0" userwavefile="" lshp="0" rel="0.1"/>
            <elres x100="0" lspd_numerator="4" amt="0" lspd="0.1" lpdel="0" dec="0.5" lspd_syncmode="0" att="0" ctlenvamt="0" pdel="0" latt="0" sustain="0.5" lspd_denominator="4" hold="0.5" lamt="0" userwavefile="" lshp="0" rel="0.1"/>
          </eldata>
          <chordcreator chordrange="1" chord="0" chord-enabled="0"/>
          <arpeggiator arprange="1" arptime_syncmode="0" arpskip="0" arpmiss="0" arptime="200" arpdir="0" arpmode="0" arptime_denominator="4" arp-enabled="0" arp="0" arpgate="100" arpcycle="0" arptime_numerator="4"/>
          <midiport inputcontroller="0" outputcontroller="0" outputprogram="1" basevelocity="63" outputchannel="1" writable="0" inputchannel="0" readable="0" fixedinputvelocity="-1" fixedoutputvelocity="-1" fixedoutputnote="-1"/>
          <fxchain numofeffects="0" enabled="0"/>
        </instrumenttrack>
        <pattern type="1" name="Sf2 Player" steps="16" muted="0" pos="4992">
          <note vol="78" pan="0" key="61" pos="0" len="24"/>
          <note vol="78" pan="0" key="49" pos="0" len="24"/>
          <note vol="78" pan="0" key="63" pos="24" len="24"/>
          <note vol="78" pan="0" key="51" pos="24" len="24"/>
          <note vol="78" pan="0" key="61" pos="48" len="24"/>
          <note vol="78" pan="0" key="49" pos="48" len="24"/>
          <note vol="78" pan="0" key="68" pos="72" len="48"/>
          <note vol="78" pan="0" key="56" pos="72" len="48"/>
          <note vol="78" pan="0" key="61" pos="120" len="24"/>
          <note vol="78" pan="0" key="49" pos="120" len="24"/>
          <note vol="78" pan="0" key="64" pos="144" len="24"/>
          <note vol="78" pan="0" key="52" pos="144" len="24"/>
          <note vol="78" pan="0" key="68" pos="168" len="24"/>
          <note vol="78" pan="0" key="56" pos="168" len="24"/>
          <note vol="78" pan="0" key="71" pos="192" len="24"/>
          <note vol="78" pan="0" key="59" pos="192" len="24"/>
          <note vol="78" pan="0" key="69" pos="216" len="24"/>
          <note vol="78" pan="0" key="57" pos="216" len="24"/>
          <note vol="78" pan="0" key="68" pos="240" len="24"/>
          <note vol="78" pan="0" key="56" pos="240" len="24"/>
          <note vol="78" pan="0" key="69" pos="264" len="48"/>
          <note vol="78" pan="0" key="57" pos="264" len="48"/>
          <note vol="78" pan="0" key="68" pos="312" len="24"/>
          <note vol="78" pan="0" key="56" pos="312" len="24"/>
          <note vol="78" pan="0" key="66" pos="336" len="24"/>
          <note vol="78" pan="0" key="54" pos="336" len="24"/>
          <note vol="78" pan="0" key="68" pos="360" len="24"/>
          <note vol="78" pan="0" key="56" pos="360" len="24"/>
          <note vol="78" pan="0" key="63" pos="384" len="96"/>
          <note vol="78" pan="0" key="51" pos="384" len="96"/>
        </pattern>
        <pattern type="1" name="Sf2 Player" steps="16" muted="0" pos="5760">
          <note vol="78" pan="0" key="61" pos="0" len="24"/>
          <note vol="78" pan="0" key="49" pos="0" len="24"/>
          <note vol="78" pan="0" key="63" pos="24" len="24"/>
          <note vol="78" pan="0" key="51" pos="24" len="24"/>
          <note vol="78" pan="0" key="61" pos="48" len="24"/>
          <note vol="78" pan="0" key="49" pos="48" len="24"/>
          <note vol="78" pan="0" key="68" pos="72" len="48"/>
          <note vol="78" pan="0" key="56" pos="72" len="48"/>
          <note vol="78" pan="0" key="61" pos="120" len="24"/>
          <note vol="78" pan="0" key="49" pos="120" len="24"/>
          <note vol="78" pan="0" key="64" pos="144" len="24"/>
          <note vol="78" pan="0" key="52" pos="144" len="24"/>
          <note vol="78" pan="0" key="68" pos="168" len="24"/>
          <note vol="78" pan="0" key="56" pos="168" len="24"/>
          <note vol="78" pan="0" key="71" pos="192" len="24"/>
          <note vol="78" pan="0" key="59" pos="192" len="24"/>
          <note vol="78" pan="0" key="73" pos="216" len="24"/>
          <note vol="78" pan="0" key="61" pos="216" len="24"/>
          <note vol="78" pan="0" key="75" pos="240" len="24"/>
          <note vol="78" pan="0" key="63" pos="240" len="24"/>
          <note vol="78" pan="0" key="73" pos="264" len="48"/>
          <note vol="78" pan="0" key="61" pos="264" len="48"/>
          <note vol="78" pan="0" key="75" pos="312" len="24"/>
          <note vol="78" pan="0" key="63" pos="312" len="24"/>
          <note vol="78" pan="0" key="76" pos="336" len="24"/>
          <note vol="78" pan="0" key="64" pos="336" len="24"/>
          <note vol="78" pan="0" key="78" pos="360" len="24"/>
          <note vol="78" pan="0" key="66" pos="360" len="24"/>
          <note vol="78" pan="0" key="75" pos="384" len="96"/>
          <note vol="78" pan="0" key="63" pos="384" len="96"/>
        </pattern>
        <pattern type="1" name="Sf2 Player" steps="16" muted="0" pos="7104">
          <note vol="78" pan="0" key="68" pos="96" len="48"/>
          <note vol="78" pan="0" key="56" pos="96" len="48"/>
          <note vol="78" pan="0" key="71" pos="144" len="48"/>
          <note vol="78" pan="0" key="59" pos="144" len="48"/>
          <note vol="78" pan="0" key="73" pos="192" len="96"/>
          <note vol="78" pan="0" key="61" pos="192" len="96"/>
          <note vol="78" pan="0" key="73" pos="288" len="24"/>
          <note vol="78" pan="0" key="61" pos="288" len="24"/>
          <note vol="78" pan="0" key="68" pos="312" len="24"/>
          <note vol="78" pan="0" key="56" pos="312" len="24"/>
          <note vol="78" pan="0" key="73" pos="336" len="24"/>
          <note vol="78" pan="0" key="61" pos="336" len="24"/>
          <note vol="78" pan="0" key="80" pos="360" len="168"/>
          <note vol="78" pan="0" key="68" pos="360" len="168"/>
          <note vol="78" pan="0" key="80" pos="528" len="24"/>
          <note vol="78" pan="0" key="68" pos="528" len="24"/>
          <note vol="78" pan="0" key="78" pos="552" len="24"/>
          <note vol="78" pan="0" key="66" pos="552" len="24"/>
          <note vol="78" pan="0" key="77" pos="576" len="48"/>
          <note vol="78" pan="0" key="65" pos="576" len="48"/>
          <note vol="78" pan="0" key="73" pos="624" len="48"/>
          <note vol="78" pan="0" key="61" pos="624" len="48"/>
          <note vol="78" pan="0" key="70" pos="672" len="48"/>
          <note vol="78" pan="0" key="58" pos="672" len="48"/>
          <note vol="78" pan="0" key="66" pos="720" len="48"/>
          <note vol="78" pan="0" key="54" pos="720" len="48"/>
          <note vol="78" pan="0" key="69" pos="768" len="96"/>
          <note vol="78" pan="0" key="57" pos="768" len="96"/>
          <note vol="78" pan="0" key="68" pos="864" len="96"/>
          <note vol="78" pan="0" key="56" pos="864" len="96"/>
          <note vol="78" pan="0" key="61" pos="960" len="144"/>
          <note vol="78" pan="0" key="49" pos="960" len="144"/>
          <note vol="78" pan="0" key="64" pos="1104" len="48"/>
          <note vol="78" pan="0" key="52" pos="1104" len="48"/>
          <note vol="78" pan="0" key="63" pos="1152" len="144"/>
          <note vol="78" pan="0" key="51" pos="1152" len="144"/>
          <note vol="78" pan="0" key="68" pos="1296" len="48"/>
          <note vol="78" pan="0" key="56" pos="1296" len="48"/>
          <note vol="78" pan="0" key="68" pos="1344" len="144"/>
          <note vol="78" pan="0" key="56" pos="1344" len="144"/>
          <note vol="78" pan="0" key="66" pos="1488" len="24"/>
          <note vol="78" pan="0" key="54" pos="1488" len="24"/>
          <note vol="78" pan="0" key="64" pos="1512" len="24"/>
          <note vol="78" pan="0" key="52" pos="1512" len="24"/>
          <note vol="78" pan="0" key="63" pos="1536" len="48"/>
          <note vol="78" pan="0" key="51" pos="1536" len="48"/>
          <note vol="78" pan="0" key="64" pos="1584" len="48"/>
          <note vol="78" pan="0" key="52" pos="1584" len="48"/>
          <note vol="78" pan="0" key="59" pos="1632" len="48"/>
          <note vol="78" pan="0" key="47" pos="1632" len="48"/>
          <note vol="78" pan="0" key="56" pos="1680" len="48"/>
          <note vol="78" pan="0" key="44" pos="1680" len="48"/>
          <note vol="78" pan="0" key="57" pos="1728" len="96"/>
          <note vol="78" pan="0" key="45" pos="1728" len="96"/>
          <note vol="78" pan="0" key="61" pos="1824" len="48"/>
          <note vol="78" pan="0" key="49" pos="1824" len="48"/>
          <note vol="78" pan="0" key="64" pos="1872" len="48"/>
          <note vol="78" pan="0" key="52" pos="1872" len="48"/>
          <note vol="78" pan="0" key="64" pos="1920" len="96"/>
          <note vol="78" pan="0" key="52" pos="1920" len="96"/>
          <note vol="78" pan="0" key="63" pos="2016" len="48"/>
          <note vol="78" pan="0" key="51" pos="2016" len="48"/>
          <note vol="78" pan="0" key="64" pos="2064" len="48"/>
          <note vol="78" pan="0" key="52" pos="2064" len="48"/>
          <note vol="78" pan="0" key="71" pos="2112" len="72"/>
          <note vol="78" pan="0" key="59" pos="2112" len="72"/>
          <note vol="78" pan="0" key="69" pos="2184" len="72"/>
          <note vol="78" pan="0" key="57" pos="2184" len="72"/>
          <note vol="78" pan="0" key="68" pos="2256" len="48"/>
          <note vol="78" pan="0" key="56" pos="2256" len="48"/>
          <note vol="78" pan="0" key="66" pos="2304" len="192"/>
          <note vol="78" pan="0" key="54" pos="2304" len="192"/>
          <note vol="78" pan="0" key="64" pos="2496" len="72"/>
          <note vol="78" pan="0" key="52" pos="2496" len="72"/>
          <note vol="78" pan="0" key="63" pos="2568" len="72"/>
          <note vol="78" pan="0" key="51" pos="2568" len="72"/>
          <note vol="78" pan="0" key="64" pos="2640" len="48"/>
          <note vol="78" pan="0" key="52" pos="2640" len="48"/>
          <note vol="78" pan="0" key="68" pos="2688" len="144"/>
          <note vol="78" pan="0" key="56" pos="2688" len="144"/>
          <note vol="78" pan="0" key="63" pos="2832" len="48"/>
          <note vol="78" pan="0" key="51" pos="2832" len="48"/>
          <note vol="78" pan="0" key="61" pos="2880" len="240"/>
          <note vol="78" pan="0" key="49" pos="2880" len="240"/>
          <note vol="78" pan="0" key="64" pos="3120" len="48"/>
          <note vol="78" pan="0" key="52" pos="3120" len="48"/>
          <note vol="78" pan="0" key="66" pos="3168" len="48"/>
          <note vol="78" pan="0" key="54" pos="3168" len="48"/>
          <note vol="78" pan="0" key="68" pos="3216" len="48"/>
          <note vol="78" pan="0" key="56" pos="3216" len="48"/>
          <note vol="78" pan="0" key="69" pos="3264" len="72"/>
          <note vol="78" pan="0" key="57" pos="3264" len="72"/>
          <note vol="78" pan="0" key="68" pos="3336" len="72"/>
          <note vol="78" pan="0" key="56" pos="3336" len="72"/>
          <note vol="78" pan="0" key="66" pos="3408" len="48"/>
          <note vol="78" pan="0" key="54" pos="3408" len="48"/>
          <note vol="78" pan="0" key="64" pos="3456" len="48"/>
          <note vol="78" pan="0" key="52" pos="3456" len="48"/>
          <note vol="78" pan="0" key="61" pos="3504" len="48"/>
          <note vol="78" pan="0" key="49" pos="3504" len="48"/>
          <note vol="78" pan="0" key="64" pos="3552" len="48"/>
          <note vol="78" pan="0" key="52" pos="3552" len="48"/>
          <note vol="78" pan="0" key="68" pos="3600" len="48"/>
          <note vol="78" pan="0" key="56" pos="3600" len="48"/>
          <note vol="78" pan="0" key="66" pos="3648" len="192"/>
          <note vol="78" pan="0" key="54" pos="3648" len="192"/>
          <note vol="78" pan="0" key="63" pos="3840" len="96"/>
          <note vol="78" pan="0" key="51" pos="3840" len="96"/>
          <note vol="78" pan="0" key="59" pos="3936" len="96"/>
          <note vol="78" pan="0" key="47" pos="3936" len="96"/>
          <note vol="78" pan="0" key="61" pos="4032" len="384"/>
          <note vol="78" pan="0" key="49" pos="4032" len="384"/>
        </pattern>
        <pattern type="1" name="Sf2 Player" steps="16" muted="0" pos="12672">
          <note vol="78" pan="0" key="49" pos="0" len="24"/>
          <note vol="78" pan="0" key="51" pos="24" len="24"/>
          <note vol="78" pan="0" key="49" pos="48" len="24"/>
          <note vol="78" pan="0" key="56" pos="72" len="48"/>
          <note vol="78" pan="0" key="49" pos="120" len="24"/>
          <note vol="78" pan="0" key="52" pos="144" len="24"/>
          <note vol="78" pan="0" key="56" pos="168" len="24"/>
          <note vol="78" pan="0" key="59" pos="192" len="24"/>
          <note vol="78" pan="0" key="57" pos="216" len="24"/>
          <note vol="78" pan="0" key="56" pos="240" len="24"/>
          <note vol="78" pan="0" key="57" pos="264" len="48"/>
          <note vol="78" pan="0" key="56" pos="312" len="24"/>
          <note vol="78" pan="0" key="54" pos="336" len="24"/>
          <note vol="78" pan="0" key="56" pos="360" len="24"/>
          <note vol="78" pan="0" key="51" pos="384" len="96"/>
        </pattern>
        <pattern type="1" name="Sf2 Player" steps="16" muted="0" pos="13440">
          <note vol="78" pan="0" key="49" pos="0" len="24"/>
          <note vol="78" pan="0" key="51" pos="24" len="24"/>
          <note vol="78" pan="0" key="49" pos="48" len="24"/>
          <note vol="78" pan="0" key="56" pos="72" len="48"/>
          <note vol="78" pan="0" key="49" pos="120" len="24"/>
          <note vol="78" pan="0" key="52" pos="144" len="24"/>
          <note vol="78" pan="0" key="56" pos="168" len="24"/>
          <note vol="78" pan="0" key="59" pos="192" len="24"/>
          <note vol="78" pan="0" key="61" pos="216" len="24"/>
          <note vol="78" pan="0" key="63" pos="240" len="24"/>
          <note vol="78" pan="0" key="61" pos="264" len="48"/>
          <note vol="78" pan="0" key="63" pos="312" len="24"/>
          <note vol="78" pan="0" key="64" pos="336" len="24"/>
          <note vol="78" pan="0" key="66" pos="360" len="24"/>
          <note vol="78" pan="0" key="63" pos="384" len="96"/>
        </pattern>
        <pattern type="1" name="Sf2 Player" steps="16" muted="0" pos="14784">
          <note vol="78" pan="0" key="68" pos="96" len="48"/>
          <note vol="78" pan="0" key="56" pos="96" len="48"/>
          <note vol="78" pan="0" key="71" pos="144" len="48"/>
          <note vol="78" pan="0" key="59" pos="144" len="48"/>
          <note vol="78" pan="0" key="73" pos="192" len="96"/>
          <note vol="78" pan="0" key="61" pos="192" len="96"/>
          <note vol="78" pan="0" key="73" pos="288" len="24"/>
          <note vol="78" pan="0" key="61" pos="288" len="24"/>
          <note vol="78" pan="0" key="68" pos="312" len="24"/>
          <note vol="78" pan="0" key="56" pos="312" len="24"/>
          <note vol="78" pan="0" key="73" pos="336" len="24"/>
          <note vol="78" pan="0" key="61" pos="336" len="24"/>
          <note vol="78" pan="0" key="80" pos="360" len="168"/>
          <note vol="78" pan="0" key="68" pos="360" len="168"/>
          <note vol="78" pan="0" key="80" pos="528" len="24"/>
          <note vol="78" pan="0" key="68" pos="528" len="24"/>
          <note vol="78" pan="0" key="78" pos="552" len="24"/>
          <note vol="78" pan="0" key="66" pos="552" len="24"/>
          <note vol="78" pan="0" key="77" pos="576" len="48"/>
          <note vol="78" pan="0" key="65" pos="576" len="48"/>
          <note vol="78" pan="0" key="73" pos="624" len="48"/>
          <note vol="78" pan="0" key="61" pos="624" len="48"/>
          <note vol="78" pan="0" key="70" pos="672" len="48"/>
          <note vol="78" pan="0" key="58" pos="672" len="48"/>
          <note vol="78" pan="0" key="66" pos="720" len="48"/>
          <note vol="78" pan="0" key="54" pos="720" len="48"/>
          <note vol="78" pan="0" key="69" pos="768" len="96"/>
          <note vol="78" pan="0" key="57" pos="768" len="96"/>
          <note vol="78" pan="0" key="68" pos="864" len="96"/>
          <note vol="78" pan="0" key="56" pos="864" len="96"/>
          <note vol="78" pan="0" key="61" pos="960" len="144"/>
          <note vol="78" pan="0" key="49" pos="960" len="144"/>
          <note vol="78" pan="0" key="64" pos="1104" len="48"/>
          <note vol="78" pan="0" key="52" pos="1104" len="48"/>
          <note vol="78" pan="0" key="63" pos="1152" len="144"/>
          <note vol="78" pan="0" key="51" pos="1152" len="144"/>
          <note vol="78" pan="0" key="68" pos="1296" len="48"/>
          <note vol="78" pan="0" key="56" pos="1296" len="48"/>
          <note vol="78" pan="0" key="68" pos="1344" len="144"/>
          <note vol="78" pan="0" key="56" pos="1344" len="144"/>
          <note vol="78" pan="0" key="66" pos="1488" len="24"/>
          <note vol="78" pan="0" key="54" pos="1488" len="24"/>
          <note vol="78" pan="0" key="64" pos="1512" len="24"/>
          <note vol="78" pan="0" key="52" pos="1512" len="24"/>
          <note vol="78" pan="0" key="63" pos="1536" len="48"/>
          <note vol="78" pan="0" key="51" pos="1536" len="48"/>
          <note vol="78" pan="0" key="64" pos="1584" len="48"/>
          <note vol="78" pan="0" key="52" pos="1584" len="48"/>
          <note vol="78" pan="0" key="59" pos="1632" len="48"/>
          <note vol="78" pan="0" key="47" pos="1632" len="48"/>
          <note vol="78" pan="0" key="56" pos="1680" len="48"/>
          <note vol="78" pan="0" key="44" pos="1680" len="48"/>
          <note vol="78" pan="0" key="57" pos="1728" len="96"/>
          <note vol="78" pan="0" key="45" pos="1728" len="96"/>
          <note vol="78" pan="0" key="61" pos="1824" len="48"/>
          <note vol="78" pan="0" key="49" pos="1824" len="48"/>
          <note vol="78" pan="0" key="64" pos="1872" len="48"/>
          <note vol="78" pan="0" key="52" pos="1872" len="48"/>
          <note vol="78" pan="0" key="64" pos="1920" len="96"/>
          <note vol="78" pan="0" key="52" pos="1920" len="96"/>
          <note vol="78" pan="0" key="63" pos="2016" len="48"/>
          <note vol="78" pan="0" key="51" pos="2016" len="48"/>
          <note vol="78" pan="0" key="64" pos="2064" len="48"/>
          <note vol="78" pan="0" key="52" pos="2064" len="48"/>
          <note vol="78" pan="0" key="71" pos="2112" len="72"/>
          <note vol="78" pan="0" key="59" pos="2112" len="72"/>
          <note vol="78" pan="0" key="69" pos="2184" len="72"/>
          <note vol="78" pan="0" key="57" pos="2184" len="72"/>
          <note vol="78" pan="0" key="68" pos="2256" len="48"/>
          <note vol="78" pan="0" key="56" pos="2256" len="48"/>
          <note vol="78" pan="0" key="66" pos="2304" len="192"/>
          <note vol="78" pan="0" key="54" pos="2304" len="192"/>
          <note vol="78" pan="0" key="64" pos="2496" len="72"/>
          <note vol="78" pan="0" key="52" pos="2496" len="72"/>
          <note vol="78" pan="0" key="63" pos="2568" len="72"/>
          <note vol="78" pan="0" key="51" pos="2568" len="72"/>
          <note vol="78" pan="0" key="64" pos="2640" len="48"/>
          <note vol="78" pan="0" key="52" pos="2640" len="48"/>
          <note vol="78" pan="0" key="68" pos="2688" len="144"/>
          <note vol="78" pan="0" key="56" pos="2688" len="144"/>
          <note vol="78" pan="0" key="63" pos="2832" len="48"/>
          <note vol="78" pan="0" key="51" pos="2832" len="48"/>
          <note vol="78" pan="0" key="61" pos="2880" len="240"/>
          <note vol="78" pan="0" key="49" pos="2880" len="240"/>
          <note vol="78" pan="0" key="64" pos="3120" len="48"/>
          <note vol="78" pan="0" key="52" pos="3120" len="48"/>
          <note vol="78" pan="0" key="66" pos="3168" len="48"/>
          <note vol="78" pan="0" key="54" pos="3168" len="48"/>
          <note vol="78" pan="0" key="68" pos="3216" len="48"/>
          <note vol="78" pan="0" key="56" pos="3216" len="48"/>
          <note vol="78" pan="0" key="69" pos="3264" len="72"/>
          <note vol="78" pan="0" key="57" pos="3264" len="72"/>
          <note vol="78" pan="0" key="68" pos="3336" len="72"/>
          <note vol="78" pan="0" key="56" pos="3336" len="72"/>
          <note vol="78" pan="0" key="66" pos="3408" len="48"/>
          <note vol="78" pan="0" key="54" pos="3408" len="48"/>
          <note vol="78" pan="0" key="64" pos="3456" len="48"/>
          <note vol="78" pan="0" key="52" pos="3456" len="48"/>
          <note vol="78" pan="0" key="61" pos="3504" len="48"/>
          <note vol="78" pan="0" key="49" pos="3504" len="48"/>
          <note vol="78" pan="0" key="64" pos="3552" len="48"/>
          <note vol="78" pan="0" key="52" pos="3552" len="48"/>
          <note vol="78" pan="0" key="68" pos="3600" len="48"/>
          <note vol="78" pan="0" key="56" pos="3600" len="48"/>
          <note vol="78" pan="0" key="66" pos="3648" len="192"/>
          <note vol="78" pan="0" key="54" pos="3648" len="192"/>
          <note vol="78" pan="0" key="63" pos="3840" len="24"/>
          <note vol="78" pan="0" key="51" pos="3840" len="24"/>
          <note vol="78" pan="0" key="63" pos="3864" len="24"/>
          <note vol="78" pan="0" key="51" pos="3864" len="24"/>
          <note vol="78" pan="0" key="71" pos="3936" len="24"/>
          <note vol="78" pan="0" key="59" pos="3936" len="24"/>
          <note vol="78" pan="0" key="71" pos="3960" len="24"/>
          <note vol="78" pan="0" key="59" pos="3960" len="24"/>
          <note vol="78" pan="0" key="73" pos="4032" len="336"/>
          <note vol="78" pan="0" key="61" pos="4032" len="336"/>
          <note vol="78" pan="0" key="64" pos="4368" len="48"/>
          <note vol="78" pan="0" key="52" pos="4368" len="48"/>
          <note vol="78" pan="0" key="63" pos="4416" len="288"/>
          <note vol="78" pan="0" key="51" pos="4416" len="288"/>
          <note vol="78" pan="0" key="56" pos="4704" len="48"/>
          <note vol="78" pan="0" key="44" pos="4704" len="48"/>
          <note vol="78" pan="0" key="59" pos="4752" len="48"/>
          <note vol="78" pan="0" key="47" pos="4752" len="48"/>
          <note vol="78" pan="0" key="61" pos="4800" len="240"/>
          <note vol="78" pan="0" key="49" pos="4800" len="240"/>
          <note vol="78" pan="0" key="59" pos="5040" len="48"/>
          <note vol="78" pan="0" key="47" pos="5040" len="48"/>
          <note vol="78" pan="0" key="61" pos="5088" len="48"/>
          <note vol="78" pan="0" key="49" pos="5088" len="48"/>
          <note vol="78" pan="0" key="68" pos="5136" len="48"/>
          <note vol="78" pan="0" key="56" pos="5136" len="48"/>
          <note vol="78" pan="0" key="66" pos="5184" len="192"/>
          <note vol="78" pan="0" key="54" pos="5184" len="192"/>
          <note vol="78" pan="0" key="69" pos="5376" len="48"/>
          <note vol="78" pan="0" key="57" pos="5376" len="48"/>
          <note vol="78" pan="0" key="68" pos="5424" len="24"/>
          <note vol="78" pan="0" key="56" pos="5424" len="24"/>
          <note vol="78" pan="0" key="68" pos="5448" len="12"/>
          <note vol="78" pan="0" key="56" pos="5448" len="12"/>
          <note vol="78" pan="0" key="69" pos="5456" len="12"/>
          <note vol="78" pan="0" key="57" pos="5456" len="12"/>
          <note vol="78" pan="0" key="68" pos="5464" len="12"/>
          <note vol="78" pan="0" key="56" pos="5464" len="12"/>
          <note vol="78" pan="0" key="66" pos="5472" len="48"/>
          <note vol="78" pan="0" key="54" pos="5472" len="48"/>
          <note vol="78" pan="0" key="68" pos="5520" len="48"/>
          <note vol="78" pan="0" key="56" pos="5520" len="48"/>
          <note vol="78" pan="0" key="64" pos="5568" len="240"/>
          <note vol="78" pan="0" key="52" pos="5568" len="240"/>
          <note vol="78" pan="0" key="61" pos="5808" len="48"/>
          <note vol="78" pan="0" key="49" pos="5808" len="48"/>
          <note vol="78" pan="0" key="64" pos="5856" len="48"/>
          <note vol="78" pan="0" key="52" pos="5856" len="48"/>
          <note vol="78" pan="0" key="68" pos="5904" len="48"/>
          <note vol="78" pan="0" key="56" pos="5904" len="48"/>
          <note vol="78" pan="0" key="68" pos="5952" len="192"/>
          <note vol="78" pan="0" key="56" pos="5952" len="192"/>
          <note vol="78" pan="0" key="66" pos="6144" len="144"/>
          <note vol="78" pan="0" key="54" pos="6144" len="144"/>
          <note vol="78" pan="0" key="68" pos="6288" len="48"/>
          <note vol="78" pan="0" key="56" pos="6288" len="48"/>
          <note vol="78" pan="0" key="61" pos="6336" len="240"/>
          <note vol="78" pan="0" key="49" pos="6336" len="240"/>
          <note vol="78" pan="0" key="56" pos="6576" len="48"/>
          <note vol="78" pan="0" key="44" pos="6576" len="48"/>
          <note vol="78" pan="0" key="61" pos="6624" len="48"/>
          <note vol="78" pan="0" key="49" pos="6624" len="48"/>
          <note vol="78" pan="0" key="68" pos="6672" len="48"/>
          <note vol="78" pan="0" key="56" pos="6672" len="48"/>
          <note vol="78" pan="0" key="73" pos="6720" len="192"/>
          <note vol="78" pan="0" key="61" pos="6720" len="192"/>
          <note vol="78" pan="0" key="72" pos="6912" len="192"/>
          <note vol="78" pan="0" key="60" pos="6912" len="192"/>
        </pattern>
        <pattern type="1" name="Sf2 Player" steps="16" muted="0" pos="36480">
          <note vol="78" pan="0" key="61" pos="0" len="24"/>
          <note vol="78" pan="0" key="49" pos="0" len="24"/>
          <note vol="78" pan="0" key="63" pos="24" len="24"/>
          <note vol="78" pan="0" key="51" pos="24" len="24"/>
          <note vol="78" pan="0" key="61" pos="48" len="24"/>
          <note vol="78" pan="0" key="49" pos="48" len="24"/>
          <note vol="78" pan="0" key="68" pos="72" len="48"/>
          <note vol="78" pan="0" key="56" pos="72" len="48"/>
          <note vol="78" pan="0" key="61" pos="120" len="24"/>
          <note vol="78" pan="0" key="49" pos="120" len="24"/>
          <note vol="78" pan="0" key="64" pos="144" len="24"/>
          <note vol="78" pan="0" key="52" pos="144" len="24"/>
          <note vol="78" pan="0" key="68" pos="168" len="24"/>
          <note vol="78" pan="0" key="56" pos="168" len="24"/>
          <note vol="78" pan="0" key="71" pos="192" len="24"/>
          <note vol="78" pan="0" key="59" pos="192" len="24"/>
          <note vol="78" pan="0" key="69" pos="216" len="24"/>
          <note vol="78" pan="0" key="57" pos="216" len="24"/>
          <note vol="78" pan="0" key="68" pos="240" len="24"/>
          <note vol="78" pan="0" key="56" pos="240" len="24"/>
          <note vol="78" pan="0" key="69" pos="264" len="48"/>
          <note vol="78" pan="0" key="57" pos="264" len="48"/>
          <note vol="78" pan="0" key="68" pos="312" len="24"/>
          <note vol="78" pan="0" key="56" pos="312" len="24"/>
          <note vol="78" pan="0" key="66" pos="336" len="24"/>
          <note vol="78" pan="0" key="54" pos="336" len="24"/>
          <note vol="78" pan="0" key="68" pos="360" len="24"/>
          <note vol="78" pan="0" key="56" pos="360" len="24"/>
          <note vol="78" pan="0" key="63" pos="384" len="96"/>
          <note vol="78" pan="0" key="51" pos="384" len="96"/>
        </pattern>
        <pattern type="1" name="Sf2 Player" steps="16" muted="0" pos="37248">
          <note vol="78" pan="0" key="61" pos="0" len="24"/>
          <note vol="78" pan="0" key="49" pos="0" len="24"/>
          <note vol="78" pan="0" key="63" pos="24" len="24"/>
          <note vol="78" pan="0" key="51" pos="24" len="24"/>
          <note vol="78" pan="0" key="61" pos="48" len="24"/>
          <note vol="78" pan="0" key="49" pos="48" len="24"/>
          <note vol="78" pan="0" key="68" pos="72" len="48"/>
          <note vol="78" pan="0" key="56" pos="72" len="48"/>
          <note vol="78" pan="0" key="61" pos="120" len="24"/>
          <note vol="78" pan="0" key="49" pos="120" len="24"/>
          <note vol="78" pan="0" key="64" pos="144" len="24"/>
          <note vol="78" pan="0" key="52" pos="144" len="24"/>
          <note vol="78" pan="0" key="68" pos="168" len="24"/>
          <note vol="78" pan="0" key="56" pos="168" len="24"/>
          <note vol="78" pan="0" key="71" pos="192" len="24"/>
          <note vol="78" pan="0" key="59" pos="192" len="24"/>
          <note vol="78" pan="0" key="73" pos="216" len="24"/>
          <note vol="78" pan="0" key="61" pos="216" len="24"/>
          <note vol="78" pan="0" key="75" pos="240" len="24"/>
          <note vol="78" pan="0" key="63" pos="240" len="24"/>
          <note vol="78" pan="0" key="73" pos="264" len="48"/>
          <note vol="78" pan="0" key="61" pos="264" len="48"/>
          <note vol="78" pan="0" key="75" pos="312" len="24"/>
          <note vol="78" pan="0" key="63" pos="312" len="24"/>
          <note vol="78" pan="0" key="76" pos="336" len="24"/>
          <note vol="78" pan="0" key="64" pos="336" len="24"/>
          <note vol="78" pan="0" key="78" pos="360" len="24"/>
          <note vol="78" pan="0" key="66" pos="360" len="24"/>
          <note vol="78" pan="0" key="75" pos="384" len="96"/>
          <note vol="78" pan="0" key="63" pos="384" len="96"/>
        </pattern>
        <pattern type="1" name="Sf2 Player" steps="16" muted="0" pos="38592">
          <note vol="78" pan="0" key="68" pos="96" len="48"/>
          <note vol="78" pan="0" key="56" pos="96" len="48"/>
          <note vol="78" pan="0" key="71" pos="144" len="48"/>
          <note vol="78" pan="0" key="59" pos="144" len="48"/>
          <note vol="78" pan="0" key="73" pos="192" len="96"/>
          <note vol="78" pan="0" key="61" pos="192" len="96"/>
          <note vol="78" pan="0" key="73" pos="288" len="24"/>
          <note vol="78" pan="0" key="61" pos="288" len="24"/>
          <note vol="78" pan="0" key="68" pos="312" len="24"/>
          <note vol="78" pan="0" key="56" pos="312" len="24"/>
          <note vol="78" pan="0" key="73" pos="336" len="24"/>
          <note vol="78" pan="0" key="61" pos="336" len="24"/>
          <note vol="78" pan="0" key="80" pos="360" len="168"/>
          <note vol="78" pan="0" key="68" pos="360" len="168"/>
          <note vol="78" pan="0" key="80" pos="528" len="24"/>
          <note vol="78" pan="0" key="68" pos="528" len="24"/>
          <note vol="78" pan="0" key="78" pos="552" len="24"/>
          <note vol="78" pan="0" key="66" pos="552" len="24"/>
          <note vol="78" pan="0" key="77" pos="576" len="48"/>
          <note vol="78" pan="0" key="65" pos="576" len="48"/>
          <note vol="78" pan="0" key="73" pos="624" len="48"/>
          <note vol="78" pan="0" key="61" pos="624" len="48"/>
          <note vol="78" pan="0" key="70" pos="672" len="48"/>
          <note vol="78" pan="0" key="58" pos="672" len="48"/>
          <note vol="78" pan="0" key="66" pos="720" len="48"/>
          <note vol="78" pan="0" key="54" pos="720" len="48"/>
          <note vol="78" pan="0" key="69" pos="768" len="96"/>
          <note vol="78" pan="0" key="57" pos="768" len="96"/>
          <note vol="78" pan="0" key="68" pos="864" len="96"/>
          <note vol="78" pan="0" key="56" pos="864" len="96"/>
          <note vol="78" pan="0" key="61" pos="960" len="144"/>
          <note vol="78" pan="0" key="49" pos="960" len="144"/>
          <note vol="78" pan="0" key="64" pos="1104" len="48"/>
          <note vol="78" pan="0" key="52" pos="1104" len="48"/>
          <note vol="78" pan="0" key="63" pos="1152" len="144"/>
          <note vol="78" pan="0" key="51" pos="1152" len="144"/>
          <note vol="78" pan="0" key="68" pos="1296" len="48"/>
          <note vol="78" pan="0" key="56" pos="1296" len="48"/>
          <note vol="78" pan="0" key="68" pos="1344" len="144"/>
          <note vol="78" pan="0" key="56" pos="1344" len="144"/>
          <note vol="78" pan="0" key="66" pos="1488" len="24"/>
          <note vol="78" pan="0" key="54" pos="1488" len="24"/>
          <note vol="78" pan="0" key="64" pos="1512" len="24"/>
          <note vol="78" pan="0" key="52" pos="1512" len="24"/>
          <note vol="78" pan="0" key="63" pos="1536" len="48"/>
          <note vol="78" pan="0" key="51" pos="1536" len="48"/>
          <note vol="78" pan="0" key="64" pos="1584" len="48"/>
          <note vol="78" pan="0" key="52" pos="1584" len="48"/>
          <note vol="78" pan="0" key="59" pos="1632" len="48"/>
          <note vol="78" pan="0" key="47" pos="1632" len="48"/>
          <note vol="78" pan="0" key="56" pos="1680" len="48"/>
          <note vol="78" pan="0" key="44" pos="1680" len="48"/>
          <note vol="78" pan="0" key="57" pos="1728" len="96"/>
          <note vol="78" pan="0" key="45" pos="1728" len="96"/>
          <note vol="78" pan="0" key="61" pos="1824" len="48"/>
          <note vol="78" pan="0" key="49" pos="1824" len="48"/>
          <note vol="78" pan="0" key="64" pos="1872" len="48"/>
          <note vol="78" pan="0" key="52" pos="1872" len="48"/>
          <note vol="78" pan="0" key="64" pos="1920" len="96"/>
          <note vol="78" pan="0" key="52" pos="1920" len="96"/>
          <note vol="78" pan="0" key="63" pos="2016" len="48"/>
          <note vol="78" pan="0" key="51" pos="2016" len="48"/>
          <note vol="78" pan="0" key="64" pos="2064" len="48"/>
          <note vol="78" pan="0" key="52" pos="2064" len="48"/>
          <note vol="78" pan="0" key="71" pos="2112" len="72"/>
          <note vol="78" pan="0" key="59" pos="2112" len="72"/>
          <note vol="78" pan="0" key="69" pos="2184" len="72"/>
          <note vol="78" pan="0" key="57" pos="2184" len="72"/>
          <note vol="78" pan="0" key="68" pos="2256" len="48"/>
          <note vol="78" pan="0" key="56" pos="2256" len="48"/>
          <note vol="78" pan="0" key="66" pos="2304" len="192"/>
          <note vol="78" pan="0" key="54" pos="2304" len="192"/>
          <note vol="78" pan="0" key="64" pos="2496" len="72"/>
          <note vol="78" pan="0" key="52" pos="2496" len="72"/>
          <note vol="78" pan="0" key="63" pos="2568" len="72"/>
          <note vol="78" pan="0" key="51" pos="2568" len="72"/>
          <note vol="78" pan="0" key="64" pos="2640" len="48"/>
          <note vol="78" pan="0" key="52" pos="2640" len="48"/>
          <note vol="78" pan="0" key="68" pos="2688" len="144"/>
          <note vol="78" pan="0" key="56" pos="2688" len="144"/>
          <note vol="78" pan="0" key="63" pos="2832" len="48"/>
          <note vol="78" pan="0" key="51" pos="2832" len="48"/>
          <note vol="78" pan="0" key="61" pos="2880" len="240"/>
          <note vol="78" pan="0" key="49" pos="2880" len="240"/>
          <note vol="78" pan="0" key="64" pos="3120" len="48"/>
          <note vol="78" pan="0" key="52" pos="3120" len="48"/>
          <note vol="78" pan="0" key="66" pos="3168" len="48"/>
          <note vol="78" pan="0" key="54" pos="3168" len="48"/>
          <note vol="78" pan="0" key="68" pos="3216" len="48"/>
          <note vol="78" pan="0" key="56" pos="3216" len="48"/>
          <note vol="78" pan="0" key="69" pos="3264" len="72"/>
          <note vol="78" pan="0" key="57" pos="3264" len="72"/>
          <note vol="78" pan="0" key="68" pos="3336" len="72"/>
          <note vol="78" pan="0" key="56" pos="3336" len="72"/>
          <note vol="78" pan="0" key="66" pos="3408" len="48"/>
          <note vol="78" pan="0" key="54" pos="3408" len="48"/>
          <note vol="78" pan="0" key="64" pos="3456" len="48"/>
          <note vol="78" pan="0" key="52" pos="3456" len="48"/>
          <note vol="78" pan="0" key="61" pos="3504" len="48"/>
          <note vol="78" pan="0" key="49" pos="3504" len="48"/>
          <note vol="78" pan="0" key="64" pos="3552" len="48"/>
          <note vol="78" pan="0" key="52" pos="3552" len="48"/>
          <note vol="78" pan="0" key="68" pos="3600" len="48"/>
          <note vol="78" pan="0" key="56" pos="3600" len="48"/>
          <note vol="78" pan="0" key="66" pos="3648" len="192"/>
          <note vol="78" pan="0" key="54" pos="3648" len="192"/>
          <note vol="78" pan="0" key="63" pos="3840" len="96"/>
          <note vol="78" pan="0" key="51" pos="3840" len="96"/>
          <note vol="78" pan="0" key="59" pos="3936" len="96"/>
          <note vol="78" pan="0" key="47" pos="3936" len="96"/>
          <note vol="78" pan="0" key="61" pos="4032" len="384"/>
          <note vol="78" pan="0" key="49" pos="4032" len="384"/>
        </pattern>
        <pattern type="1" name="Sf2 Player" steps="16" muted="0" pos="44160">
          <note vol="78" pan="0" key="49" pos="0" len="24"/>
          <note vol="78" pan="0" key="51" pos="24" len="24"/>
          <note vol="78" pan="0" key="49" pos="48" len="24"/>
          <note vol="78" pan="0" key="56" pos="72" len="48"/>
          <note vol="78" pan="0" key="49" pos="120" len="24"/>
          <note vol="78" pan="0" key="52" pos="144" len="24"/>
          <note vol="78" pan="0" key="56" pos="168" len="24"/>
          <note vol="78" pan="0" key="59" pos="192" len="24"/>
          <note vol="78" pan="0" key="57" pos="216" len="24"/>
          <note vol="78" pan="0" key="56" pos="240" len="24"/>
          <note vol="78" pan="0" key="57" pos="264" len="48"/>
          <note vol="78" pan="0" key="56" pos="312" len="24"/>
          <note vol="78" pan="0" key="54" pos="336" len="24"/>
          <note vol="78" pan="0" key="56" pos="360" len="24"/>
          <note vol="78" pan="0" key="51" pos="384" len="96"/>
        </pattern>
        <pattern type="1" name="Sf2 Player" steps="16" muted="0" pos="44928">
          <note vol="78" pan="0" key="49" pos="0" len="24"/>
          <note vol="78" pan="0" key="51" pos="24" len="24"/>
          <note vol="78" pan="0" key="49" pos="48" len="24"/>
          <note vol="78" pan="0" key="56" pos="72" len="48"/>
          <note vol="78" pan="0" key="49" pos="120" len="24"/>
          <note vol="78" pan="0" key="52" pos="144" len="24"/>
          <note vol="78" pan="0" key="56" pos="168" len="24"/>
          <note vol="78" pan="0" key="59" pos="192" len="24"/>
          <note vol="78" pan="0" key="61" pos="216" len="24"/>
          <note vol="78" pan="0" key="63" pos="240" len="24"/>
          <note vol="78" pan="0" key="61" pos="264" len="48"/>
          <note vol="78" pan="0" key="63" pos="312" len="24"/>
          <note vol="78" pan="0" key="64" pos="336" len="24"/>
          <note vol="78" pan="0" key="66" pos="360" len="24"/>
          <note vol="78" pan="0" key="63" pos="384" len="96"/>
        </pattern>
        <pattern type="1" name="Sf2 Player" steps="16" muted="0" pos="46272">
          <note vol="78" pan="0" key="68" pos="96" len="48"/>
          <note vol="78" pan="0" key="56" pos="96" len="48"/>
          <note vol="78" pan="0" key="71" pos="144" len="48"/>
          <note vol="78" pan="0" key="59" pos="144" len="48"/>
          <note vol="78" pan="0" key="73" pos="192" len="96"/>
          <note vol="78" pan="0" key="61" pos="192" len="96"/>
          <note vol="78" pan="0" key="73" pos="288" len="24"/>
          <note vol="78" pan="0" key="61" pos="288" len="24"/>
          <note vol="78" pan="0" key="68" pos="312" len="24"/>
          <note vol="78" pan="0" key="56" pos="312" len="24"/>
          <note vol="78" pan="0" key="73" pos="336" len="24"/>
          <note vol="78" pan="0" key="61" pos="336" len="24"/>
          <note vol="78" pan="0" key="80" pos="360" len="168"/>
          <note vol="78" pan="0" key="68" pos="360" len="168"/>
          <note vol="78" pan="0" key="80" pos="528" len="24"/>
          <note vol="78" pan="0" key="68" pos="528" len="24"/>
          <note vol="78" pan="0" key="78" pos="552" len="24"/>
          <note vol="78" pan="0" key="66" pos="552" len="24"/>
          <note vol="78" pan="0" key="77" pos="576" len="48"/>
          <note vol="78" pan="0" key="65" pos="576" len="48"/>
          <note vol="78" pan="0" key="73" pos="624" len="48"/>
          <note vol="78" pan="0" key="61" pos="624" len="48"/>
          <note vol="78" pan="0" key="70" pos="672" len="48"/>
          <note vol="78" pan="0" key="58" pos="672" len="48"/>
          <note vol="78" pan="0" key="66" pos="720" len="48"/>
          <note vol="78" pan="0" key="54" pos="720" len="48"/>
          <note vol="78" pan="0" key="69" pos="768" len="96"/>
          <note vol="78" pan="0" key="57" pos="768" len="96"/>
          <note vol="78" pan="0" key="68" pos="864" len="96"/>
          <note vol="78" pan="0" key="56" pos="864" len="96"/>
          <note vol="78" pan="0" key="61" pos="960" len="144"/>
          <note vol="78" pan="0" key="49" pos="960" len="144"/>
          <note vol="78" pan="0" key="64" pos="1104" len="48"/>
          <note vol="78" pan="0" key="52" pos="1104" len="48"/>
          <note vol="78" pan="0" key="63" pos="1152" len="144"/>
          <note vol="78" pan="0" key="51" pos="1152" len="144"/>
          <note vol="78" pan="0" key="68" pos="1296" len="48"/>
          <note vol="78" pan="0" key="56" pos="1296" len="48"/>
          <note vol="78" pan="0" key="68" pos="1344" len="144"/>
          <note vol="78" pan="0" key="56" pos="1344" len="144"/>
          <note vol="78" pan="0" key="66" pos="1488" len="24"/>
          <note vol="78" pan="0" key="54" pos="1488" len="24"/>
          <note vol="78" pan="0" key="64" pos="1512" len="24"/>
          <note vol="78" pan="0" key="52" pos="1512" len="24"/>
          <note vol="78" pan="0" key="63" pos="1536" len="48"/>
          <note vol="78" pan="0" key="51" pos="1536" len="48"/>
          <note vol="78" pan="0" key="64" pos="1584" len="48"/>
          <note vol="78" pan="0" key="52" pos="1584" len="48"/>
          <note vol="78" pan="0" key="59" pos="1632" len="48"/>
          <note vol="78" pan="0" key="47" pos="1632" len="48"/>
          <note vol="78" pan="0" key="56" pos="1680" len="48"/>
          <note vol="78" pan="0" key="44" pos="1680" len="48"/>
          <note vol="78" pan="0" key="57" pos="1728" len="96"/>
          <note vol="78" pan="0" key="45" pos="1728" len="96"/>
          <note vol="78" pan="0" key="61" pos="1824" len="48"/>
          <note vol="78" pan="0" key="49" pos="1824" len="48"/>
          <note vol="78" pan="0" key="64" pos="1872" len="48"/>
          <note vol="78" pan="0" key="52" pos="1872" len="48"/>
          <note vol="78" pan="0" key="64" pos="1920" len="96"/>
          <note vol="78" pan="0" key="52" pos="1920" len="96"/>
          <note vol="78" pan="0" key="63" pos="2016" len="48"/>
          <note vol="78" pan="0" key="51" pos="2016" len="48"/>
          <note vol="78" pan="0" key="64" pos="2064" len="48"/>
          <note vol="78" pan="0" key="52" pos="2064" len="48"/>
          <note vol="78" pan="0" key="71" pos="2112" len="72"/>
          <note vol="78" pan="0" key="59" pos="2112" len="72"/>
          <note vol="78" pan="0" key="69" pos="2184" len="72"/>
          <note vol="78" pan="0" key="57" pos="2184" len="72"/>
          <note vol="78" pan="0" key="68" pos="2256" len="48"/>
          <note vol="78" pan="0" key="56" pos="2256" len="48"/>
          <note vol="78" pan="0" key="66" pos="2304" len="192"/>
          <note vol="78" pan="0" key="54" pos="2304" len="192"/>
          <note vol="78" pan="0" key="64" pos="2496" len="72"/>
          <note vol="78" pan="0" key="52" pos="2496" len="72"/>
          <note vol="78" pan="0" key="63" pos="2568" len="72"/>
          <note vol="78" pan="0" key="51" pos="2568" len="72"/>
          <note vol="78" pan="0" key="64" pos="2640" len="48"/>
          <note vol="78" pan="0" key="52" pos="2640" len="48"/>
          <note vol="78" pan="0" key="68" pos="2688" len="144"/>
          <note vol="78" pan="0" key="56" pos="2688" len="144"/>
          <note vol="78" pan="0" key="63" pos="2832" len="48"/>
          <note vol="78" pan="0" key="51" pos="2832" len="48"/>
          <note vol="78" pan="0" key="61" pos="2880" len="240"/>
          <note vol="78" pan="0" key="49" pos="2880" len="240"/>
          <note vol="78" pan="0" key="64" pos="3120" len="48"/>
          <note vol="78" pan="0" key="52" pos="3120" len="48"/>
          <note vol="78" pan="0" key="66" pos="3168" len="48"/>
          <note vol="78" pan="0" key="54" pos="3168" len="48"/>
          <note vol="78" pan="0" key="68" pos="3216" len="48"/>
          <note vol="78" pan="0" key="56" pos="3216" len="48"/>
          <note vol="78" pan="0" key="69" pos="3264" len="72"/>
          <note vol="78" pan="0" key="57" pos="3264" len="72"/>
          <note vol="78" pan="0" key="68" pos="3336" len="72"/>
          <note vol="78" pan="0" key="56" pos="3336" len="72"/>
          <note vol="78" pan="0" key="66" pos="3408" len="48"/>
          <note vol="78" pan="0" key="54" pos="3408" len="48"/>
          <note vol="78" pan="0" key="64" pos="3456" len="48"/>
          <note vol="78" pan="0" key="52" pos="3456" len="48"/>
          <note vol="78" pan="0" key="61" pos="3504" len="48"/>
          <note vol="78" pan="0" key="49" pos="3504" len="48"/>
          <note vol="78" pan="0" key="64" pos="3552" len="48"/>
          <note vol="78" pan="0" key="52" pos="3552" len="48"/>
          <note vol="78" pan="0" key="68" pos="3600" len="48"/>
          <note vol="78" pan="0" key="56" pos="3600" len="48"/>
          <note vol="78" pan="0" key="66" pos="3648" len="192"/>
          <note vol="78" pan="0" key="54" pos="3648" len="192"/>
          <note vol="78" pan="0" key="63" pos="3840" len="24"/>
          <note vol="78" pan="0" key="51" pos="3840" len="24"/>
          <note vol="78" pan="0" key="63" pos="3864" len="24"/>
          <note vol="78" pan="0" key="51" pos="3864" len="24"/>
          <note vol="78" pan="0" key="71" pos="3936" len="24"/>
          <note vol="78" pan="0" key="59" pos="3936" len="24"/>
          <note vol="78" pan="0" key="71" pos="3960" len="24"/>
          <note vol="78" pan="0" key="59" pos="3960" len="24"/>
          <note vol="78" pan="0" key="73" pos="4032" len="336"/>
          <note vol="78" pan="0" key="61" pos="4032" len="336"/>
          <note vol="78" pan="0" key="64" pos="4368" len="48"/>
          <note vol="78" pan="0" key="52" pos="4368" len="48"/>
          <note vol="78" pan="0" key="63" pos="4416" len="288"/>
          <note vol="78" pan="0" key="51" pos="4416" len="288"/>
          <note vol="78" pan="0" key="56" pos="4704" len="48"/>
          <note vol="78" pan="0" key="44" pos="4704" len="48"/>
          <note vol="78" pan="0" key="59" pos="4752" len="48"/>
          <note vol="78" pan="0" key="47" pos="4752" len="48"/>
          <note vol="78" pan="0" key="61" pos="4800" len="240"/>
          <note vol="78" pan="0" key="49" pos="4800" len="240"/>
          <note vol="78" pan="0" key="59" pos="5040" len="48"/>
          <note vol="78" pan="0" key="47" pos="5040" len="48"/>
          <note vol="78" pan="0" key="61" pos="5088" len="48"/>
          <note vol="78" pan="0" key="49" pos="5088" len="48"/>
          <note vol="78" pan="0" key="68" pos="5136" len="48"/>
          <note vol="78" pan="0" key="56" pos="5136" len="48"/>
          <note vol="78" pan="0" key="66" pos="5184" len="192"/>
          <note vol="78" pan="0" key="54" pos="5184" len="192"/>
          <note vol="78" pan="0" key="69" pos="5376" len="48"/>
          <note vol="78" pan="0" key="57" pos="5376" len="48"/>
          <note vol="78" pan="0" key="68" pos="5424" len="24"/>
          <note vol="78" pan="0" key="56" pos="5424" len="24"/>
          <note vol="78" pan="0" key="68" pos="5448" len="12"/>
          <note vol="78" pan="0" key="56" pos="5448" len="12"/>
          <note vol="78" pan="0" key="69" pos="5456" len="12"/>
          <note vol="78" pan="0" key="57" pos="5456" len="12"/>
          <note vol="78" pan="0" key="68" pos="5464" len="12"/>
          <note vol="78" pan="0" key="56" pos="5464" len="12"/>
          <note vol="78" pan="0" key="66" pos="5472" len="48"/>
          <note vol="78" pan="0" key="54" pos="5472" len="48"/>
          <note vol="78" pan="0" key="68" pos="5520" len="48"/>
          <note vol="78" pan="0" key="56" pos="5520" len="48"/>
          <note vol="78" pan="0" key="64" pos="5568" len="240"/>
          <note vol="78" pan="0" key="52" pos="5568" len="240"/>
          <note vol="78" pan="0" key="61" pos="5808" len="48"/>
          <note vol="78" pan="0" key="49" pos="5808" len="48"/>
          <note vol="78" pan="0" key="64" pos="5856" len="48"/>
          <note vol="78" pan="0" key="52" pos="5856" len="48"/>
          <note vol="78" pan="0" key="68" pos="5904" len="48"/>
          <note vol="78" pan="0" key="56" pos="5904" len="48"/>
          <note vol="78" pan="0" key="68" pos="5952" len="192"/>
          <note vol="78" pan="0" key="56" pos="5952" len="192"/>
          <note vol="78" pan="0" key="66" pos="6144" len="144"/>
          <note vol="78" pan="0" key="54" pos="6144" len="144"/>
          <note vol="78" pan="0" key="68" pos="6288" len="48"/>
          <note vol="78" pan="0" key="56" pos="6288" len="48"/>
          <note vol="78" pan="0" key="61" pos="6336" len="240"/>
          <note vol="78" pan="0" key="49" pos="6336" len="240"/>
          <note vol="78" pan="0" key="56" pos="6576" len="48"/>
          <note vol="78" pan="0" key="44" pos="6576" len="48"/>
          <note vol="78" pan="0" key="61" pos="6624" len="48"/>
          <note vol="78" pan="0" key="49" pos="6624" len="48"/>
          <note vol="78" pan="0" key="68" pos="6672" len="48"/>
          <note vol="78" pan="0" key="56" pos="6672" len="48"/>
          <note vol="78" pan="0" key="73" pos="6720" len="192"/>
          <note vol="78" pan="0" key="61" pos="6720" len="192"/>
          <note vol="78" pan="0" key="72" pos="6912" len="192"/>
          <note vol="78" pan="0" key="60" pos="6912" len="192"/>
        </pattern>
        <pattern type="1" name="" steps="16" muted="0" pos="53952">
          <note vol="193" pan="0" key="75" pos="0" len="120"/>
          <note vol="78" pan="0" key="0" pos="0" len="24"/>
          <note vol="78" pan="0" key="1" pos="96" len="24"/>
          <note vol="193" pan="0" key="70" pos="120" len="24"/>
          <note vol="78" pan="0" key="0" pos="132" len="24"/>
          <note vol="193" pan="0" key="78" pos="144" len="24"/>
          <note vol="193" pan="0" key="70" pos="168" len="24"/>
          <note vol="78" pan="0" key="1" pos="168" len="24"/>
          <note vol="193" pan="0" key="77" pos="192" len="120"/>
          <note vol="78" pan="0" key="0" pos="192" len="24"/>
          <note vol="78" pan="0" key="1" pos="300" len="12"/>
          <note vol="193" pan="0" key="77" pos="312" len="12"/>
          <note vol="193" pan="0" key="78" pos="324" len="12"/>
          <note vol="193" pan="0" key="82" pos="336" len="12"/>
          <note vol="78" pan="0" key="0" pos="336" len="12"/>
          <note vol="193" pan="0" key="78" pos="348" len="12"/>
          <note vol="193" pan="0" key="77" pos="360" len="12"/>
          <note vol="78" pan="0" key="1" pos="360" len="12"/>
          <note vol="193" pan="0" key="78" pos="372" len="12"/>
          <note vol="193" pan="0" key="82" pos="384" len="144"/>
          <note vol="78" pan="0" key="0" pos="384" len="12"/>
          <note vol="193" pan="0" key="80" pos="528" len="24"/>
          <note vol="193" pan="0" key="78" pos="552" len="24"/>
          <note vol="193" pan="0" key="77" pos="576" len="48"/>
          <note vol="197" pan="0" key="78" pos="624" len="48"/>
          <note vol="78" pan="0" key="0" pos="660" len="12"/>
          <note vol="193" pan="0" key="73" pos="672" len="12"/>
          <note vol="78" pan="0" key="1" pos="672" len="12"/>
          <note vol="193" pan="0" key="73" pos="684" len="12"/>
          <note vol="193" pan="0" key="73" pos="696" len="12"/>
          <note vol="193" pan="0" key="73" pos="708" len="12"/>
          <note vol="193" pan="0" key="70" pos="720" len="12"/>
          <note vol="78" pan="0" key="0" pos="720" len="12"/>
          <note vol="193" pan="0" key="66" pos="732" len="12"/>
          <note vol="78" pan="0" key="1" pos="732" len="12"/>
          <note vol="193" pan="0" key="68" pos="744" len="12"/>
          <note vol="193" pan="0" key="70" pos="756" len="12"/>
          <note vol="193" pan="0" key="71" pos="768" len="96"/>
          <note vol="78" pan="0" key="0" pos="768" len="12"/>
          <note vol="193" pan="0" key="75" pos="864" len="48"/>
          <note vol="193" pan="0" key="78" pos="912" len="48"/>
          <note vol="193" pan="0" key="78" pos="960" len="96"/>
          <note vol="193" pan="0" key="77" pos="1056" len="12"/>
          <note vol="78" pan="0" key="0" pos="1056" len="12"/>
          <note vol="193" pan="0" key="70" pos="1068" len="12"/>
          <note vol="78" pan="0" key="2" pos="1068" len="12"/>
          <note vol="193" pan="0" key="70" pos="1080" len="12"/>
          <note vol="78" pan="0" key="1" pos="1080" len="12"/>
          <note vol="193" pan="0" key="70" pos="1092" len="12"/>
          <note vol="193" pan="0" key="78" pos="1104" len="12"/>
          <note vol="78" pan="0" key="0" pos="1104" len="12"/>
          <note vol="193" pan="0" key="75" pos="1116" len="12"/>
          <note vol="78" pan="0" key="2" pos="1116" len="12"/>
          <note vol="193" pan="0" key="77" pos="1128" len="12"/>
          <note vol="78" pan="0" key="1" pos="1128" len="12"/>
          <note vol="193" pan="0" key="78" pos="1140" len="12"/>
          <note vol="193" pan="0" key="85" pos="1152" len="48"/>
          <note vol="78" pan="0" key="0" pos="1152" len="12"/>
          <note vol="193" pan="0" key="83" pos="1200" len="12"/>
          <note vol="193" pan="0" key="85" pos="1212" len="12"/>
          <note vol="193" pan="0" key="83" pos="1224" len="48"/>
          <note vol="193" pan="0" key="82" pos="1272" len="12"/>
          <note vol="78" pan="0" key="0" pos="1272" len="12"/>
          <note vol="193" pan="0" key="83" pos="1284" len="12"/>
          <note vol="193" pan="0" key="82" pos="1296" len="12"/>
          <note vol="78" pan="0" key="1" pos="1296" len="12"/>
          <note vol="193" pan="0" key="80" pos="1308" len="12"/>
          <note vol="193" pan="0" key="78" pos="1320" len="12"/>
          <note vol="193" pan="0" key="82" pos="1332" len="12"/>
          <note vol="193" pan="0" key="80" pos="1344" len="72"/>
          <note vol="78" pan="0" key="0" pos="1344" len="12"/>
          <note vol="193" pan="0" key="78" pos="1416" len="12"/>
          <note vol="78" pan="0" key="1" pos="1416" len="12"/>
          <note vol="193" pan="0" key="80" pos="1428" len="12"/>
          <note vol="193" pan="0" key="82" pos="1440" len="12"/>
          <note vol="78" pan="0" key="0" pos="1440" len="12"/>
          <note vol="193" pan="0" key="83" pos="1452" len="12"/>
          <note vol="193" pan="0" key="82" pos="1464" len="12"/>
          <note vol="78" pan="0" key="1" pos="1464" len="12"/>
          <note vol="193" pan="0" key="80" pos="1476" len="12"/>
          <note vol="193" pan="0" key="82" pos="1488" len="12"/>
          <note vol="78" pan="0" key="0" pos="1488" len="12"/>
          <note vol="193" pan="0" key="80" pos="1500" len="12"/>
          <note vol="193" pan="0" key="78" pos="1512" len="12"/>
          <note vol="193" pan="0" key="77" pos="1524" len="12"/>
          <note vol="193" pan="0" key="78" pos="1536" len="48"/>
          <note vol="78" pan="0" key="0" pos="1536" len="12"/>
          <note vol="78" pan="0" key="1" pos="1572" len="12"/>
          <note vol="193" pan="0" key="70" pos="1584" len="12"/>
          <note vol="193" pan="0" key="70" pos="1596" len="12"/>
          <note vol="193" pan="0" key="77" pos="1608" len="48"/>
          <note vol="78" pan="0" key="0" pos="1608" len="12"/>
          <note vol="78" pan="0" key="1" pos="1644" len="12"/>
          <note vol="193" pan="0" key="70" pos="1656" len="12"/>
          <note vol="193" pan="0" key="70" pos="1668" len="12"/>
          <note vol="193" pan="0" key="78" pos="1680" len="24"/>
          <note vol="78" pan="0" key="0" pos="1680" len="12"/>
          <note vol="78" pan="0" key="1" pos="1692" len="12"/>
          <note vol="193" pan="0" key="70" pos="1704" len="12"/>
          <note vol="193" pan="0" key="70" pos="1716" len="12"/>
          <note vol="193" pan="0" key="82" pos="1728" len="144"/>
          <note vol="78" pan="0" key="0" pos="1728" len="12"/>
          <note vol="193" pan="0" key="77" pos="1872" len="48"/>
          <note vol="78" pan="0" key="0" pos="1908" len="12"/>
          <note vol="193" pan="0" key="75" pos="1920" len="12"/>
          <note vol="193" pan="0" key="77" pos="1932" len="12"/>
          <note vol="78" pan="0" key="2" pos="1932" len="12"/>
          <note vol="193" pan="0" key="75" pos="1944" len="216"/>
          <note vol="78" pan="0" key="0" pos="2100" len="12"/>
          <note vol="193" pan="0" key="78" pos="2160" len="48"/>
          <note vol="193" pan="0" key="80" pos="2208" len="24"/>
          <note vol="193" pan="0" key="78" pos="2232" len="12"/>
          <note vol="193" pan="0" key="80" pos="2244" len="12"/>
          <note vol="193" pan="0" key="82" pos="2256" len="24"/>
          <note vol="193" pan="0" key="80" pos="2280" len="12"/>
          <note vol="193" pan="0" key="82" pos="2292" len="12"/>
          <note vol="193" pan="0" key="83" pos="2304" len="72"/>
          <note vol="193" pan="0" key="82" pos="2376" len="72"/>
          <note vol="193" pan="0" key="80" pos="2448" len="48"/>
          <note vol="78" pan="0" key="1" pos="2484" len="12"/>
          <note vol="193" pan="0" key="78" pos="2496" len="12"/>
          <note vol="193" pan="0" key="77" pos="2508" len="12"/>
          <note vol="193" pan="0" key="75" pos="2520" len="12"/>
          <note vol="193" pan="0" key="70" pos="2532" len="12"/>
          <note vol="193" pan="0" key="75" pos="2544" len="12"/>
          <note vol="193" pan="0" key="73" pos="2556" len="12"/>
          <note vol="193" pan="0" key="71" pos="2568" len="12"/>
          <note vol="193" pan="0" key="70" pos="2580" len="12"/>
          <note vol="193" pan="0" key="78" pos="2592" len="12"/>
          <note vol="78" pan="0" key="0" pos="2592" len="12"/>
          <note vol="193" pan="0" key="77" pos="2604" len="12"/>
          <note vol="193" pan="0" key="75" pos="2616" len="12"/>
          <note vol="193" pan="0" key="70" pos="2628" len="12"/>
          <note vol="193" pan="0" key="87" pos="2640" len="48"/>
          <note vol="193" pan="0" key="85" pos="2688" len="192"/>
        </pattern>
      </track>
      <track type="0" name="Orchestra Soundfont 2 COMBO" solo="0" muted="1" mutedBeforeSolo="0">
        <instrumenttrack usemasterpitch="1" pitchrange="2" pitch="0" vol="188.8" basenote="57" pan="0" fxch="0">
          <instrument name="sf2player">
            <sf2player reverbRoomSize="0.2" reverbWidth="0.5" reverbDamping="0" chorusNum="3" patch="0" chorusLevel="2" src="/home/pass/samples/soundfonts/Orchestra Soundfont 2 COMBO.sf2" reverbOn="0" chorusOn="0" gain="1" chorusDepth="8" chorusSpeed="0.3" bank="0" reverbLevel="0.9">
              <key/>
            </sf2player>
          </instrument>
          <eldata fwet="0" fres="0.5" ftype="0" fcut="14000">
            <elvol x100="0" lspd_numerator="4" amt="0" lspd="0.1" lpdel="0" dec="0.5" lspd_syncmode="0" att="0" ctlenvamt="0" pdel="0" latt="0" sustain="0.5" lspd_denominator="4" hold="0.5" lamt="0" userwavefile="" lshp="0" rel="0.1"/>
            <elcut x100="0" lspd_numerator="4" amt="0" lspd="0.1" lpdel="0" dec="0.5" lspd_syncmode="0" att="0" ctlenvamt="0" pdel="0" latt="0" sustain="0.5" lspd_denominator="4" hold="0.5" lamt="0" userwavefile="" lshp="0" rel="0.1"/>
            <elres x100="0" lspd_numerator="4" amt="0" lspd="0.1" lpdel="0" dec="0.5" lspd_syncmode="0" att="0" ctlenvamt="0" pdel="0" latt="0" sustain="0.5" lspd_denominator="4" hold="0.5" lamt="0" userwavefile="" lshp="0" rel="0.1"/>
          </eldata>
          <chordcreator chordrange="1" chord="0" chord-enabled="0"/>
          <arpeggiator arprange="1" arptime_syncmode="0" arpskip="0" arpmiss="0" arptime="200" arpdir="0" arpmode="0" arptime_denominator="4" arp-enabled="0" arp="0" arpgate="100" arpcycle="0" arptime_numerator="4"/>
          <midiport inputcontroller="0" outputcontroller="0" outputprogram="1" basevelocity="63" outputchannel="1" writable="0" inputchannel="0" readable="0" fixedinputvelocity="-1" fixedoutputvelocity="-1" fixedoutputnote="-1"/>
          <fxchain numofeffects="0" enabled="0"/>
        </instrumenttrack>
        <pattern type="1" name="" steps="16" muted="0" pos="5376">
          <note vol="78" pan="0" key="44" pos="0" len="24"/>
          <note vol="78" pan="0" key="47" pos="24" len="24"/>
          <note vol="78" pan="0" key="44" pos="48" len="24"/>
          <note vol="78" pan="0" key="51" pos="72" len="48"/>
          <note vol="78" pan="0" key="44" pos="120" len="24"/>
          <note vol="78" pan="0" key="47" pos="144" len="24"/>
          <note vol="78" pan="0" key="51" pos="168" len="24"/>
          <note vol="78" pan="0" key="52" pos="192" len="24"/>
          <note vol="78" pan="0" key="51" pos="216" len="24"/>
          <note vol="78" pan="0" key="49" pos="240" len="24"/>
          <note vol="78" pan="0" key="47" pos="264" len="24"/>
          <note vol="78" pan="0" key="51" pos="288" len="24"/>
          <note vol="78" pan="0" key="49" pos="312" len="24"/>
          <note vol="78" pan="0" key="47" pos="336" len="24"/>
          <note vol="78" pan="0" key="44" pos="360" len="24"/>
          <note vol="78" pan="0" key="49" pos="384" len="96"/>
        </pattern>
        <pattern type="1" name="" steps="16" muted="0" pos="6144">
          <note vol="78" pan="0" key="47" pos="0" len="24"/>
          <note vol="78" pan="0" key="52" pos="24" len="24"/>
          <note vol="78" pan="0" key="56" pos="48" len="24"/>
          <note vol="78" pan="0" key="59" pos="72" len="48"/>
          <note vol="78" pan="0" key="56" pos="120" len="24"/>
          <note vol="78" pan="0" key="59" pos="144" len="24"/>
          <note vol="78" pan="0" key="63" pos="168" len="24"/>
          <note vol="78" pan="0" key="61" pos="192" len="24"/>
          <note vol="78" pan="0" key="56" pos="216" len="24"/>
          <note vol="78" pan="0" key="52" pos="240" len="24"/>
          <note vol="78" pan="0" key="49" pos="264" len="24"/>
          <note vol="78" pan="0" key="54" pos="288" len="24"/>
          <note vol="78" pan="0" key="52" pos="312" len="24"/>
          <note vol="78" pan="0" key="56" pos="336" len="24"/>
          <note vol="78" pan="0" key="52" pos="360" len="24"/>
          <note vol="78" pan="0" key="57" pos="384" len="120"/>
          <note vol="78" pan="0" key="56" pos="504" len="24"/>
          <note vol="78" pan="0" key="57" pos="528" len="24"/>
          <note vol="78" pan="0" key="59" pos="552" len="24"/>
          <note vol="78" pan="0" key="61" pos="576" len="72"/>
          <note vol="78" pan="0" key="59" pos="648" len="72"/>
          <note vol="78" pan="0" key="57" pos="720" len="48"/>
          <note vol="78" pan="0" key="56" pos="768" len="24"/>
          <note vol="78" pan="0" key="57" pos="792" len="24"/>
          <note vol="78" pan="0" key="56" pos="816" len="24"/>
          <note vol="78" pan="0" key="52" pos="840" len="48"/>
          <note vol="78" pan="0" key="52" pos="888" len="24"/>
          <note vol="78" pan="0" key="54" pos="912" len="24"/>
          <note vol="78" pan="0" key="56" pos="936" len="24"/>
          <note vol="78" pan="0" key="54" pos="960" len="96"/>
          <note vol="78" pan="0" key="51" pos="1056" len="48"/>
          <note vol="78" pan="0" key="56" pos="1104" len="48"/>
          <note vol="78" pan="0" key="44" pos="1152" len="24"/>
          <note vol="78" pan="0" key="42" pos="1176" len="24"/>
          <note vol="78" pan="0" key="44" pos="1200" len="24"/>
          <note vol="78" pan="0" key="49" pos="1224" len="24"/>
          <note vol="78" pan="0" key="52" pos="1248" len="48"/>
          <note vol="78" pan="0" key="51" pos="1296" len="24"/>
          <note vol="78" pan="0" key="49" pos="1320" len="24"/>
          <note vol="78" pan="0" key="56" pos="1344" len="24"/>
          <note vol="78" pan="0" key="54" pos="1368" len="24"/>
          <note vol="78" pan="0" key="52" pos="1392" len="24"/>
          <note vol="78" pan="0" key="51" pos="1416" len="24"/>
          <note vol="78" pan="0" key="49" pos="1440" len="24"/>
          <note vol="78" pan="0" key="51" pos="1464" len="24"/>
          <note vol="78" pan="0" key="52" pos="1488" len="24"/>
          <note vol="78" pan="0" key="56" pos="1512" len="24"/>
          <note vol="78" pan="0" key="58" pos="1536" len="48"/>
          <note vol="78" pan="0" key="54" pos="1584" len="48"/>
          <note vol="78" pan="0" key="51" pos="1632" len="48"/>
          <note vol="78" pan="0" key="46" pos="1680" len="48"/>
          <note vol="78" pan="0" key="45" pos="1728" len="24"/>
          <note vol="78" pan="0" key="49" pos="1752" len="24"/>
          <note vol="78" pan="0" key="51" pos="1776" len="24"/>
          <note vol="78" pan="0" key="54" pos="1800" len="24"/>
          <note vol="78" pan="0" key="57" pos="1824" len="24"/>
          <note vol="78" pan="0" key="61" pos="1848" len="24"/>
          <note vol="78" pan="0" key="63" pos="1872" len="24"/>
          <note vol="78" pan="0" key="66" pos="1896" len="24"/>
        </pattern>
        <pattern type="1" name="" steps="16" muted="0" pos="12672">
          <note vol="78" pan="0" key="49" pos="0" len="24"/>
          <note vol="78" pan="0" key="56" pos="24" len="12"/>
          <note vol="78" pan="0" key="49" pos="48" len="24"/>
          <note vol="78" pan="0" key="56" pos="72" len="12"/>
          <note vol="78" pan="0" key="56" pos="120" len="12"/>
          <note vol="78" pan="0" key="49" pos="144" len="24"/>
          <note vol="78" pan="0" key="56" pos="168" len="12"/>
          <note vol="78" pan="0" key="56" pos="192" len="12"/>
          <note vol="78" pan="0" key="61" pos="216" len="24"/>
          <note vol="78" pan="0" key="56" pos="240" len="12"/>
          <note vol="78" pan="0" key="56" pos="264" len="12"/>
          <note vol="78" pan="0" key="49" pos="288" len="24"/>
          <note vol="78" pan="0" key="52" pos="312" len="24"/>
          <note vol="78" pan="0" key="56" pos="336" len="24"/>
          <note vol="78" pan="0" key="61" pos="360" len="24"/>
          <note vol="78" pan="0" key="44" pos="384" len="24"/>
          <note vol="78" pan="0" key="47" pos="408" len="24"/>
          <note vol="78" pan="0" key="44" pos="432" len="24"/>
          <note vol="78" pan="0" key="51" pos="456" len="48"/>
          <note vol="78" pan="0" key="44" pos="504" len="24"/>
          <note vol="78" pan="0" key="47" pos="528" len="24"/>
          <note vol="78" pan="0" key="51" pos="552" len="24"/>
          <note vol="78" pan="0" key="52" pos="576" len="24"/>
          <note vol="78" pan="0" key="51" pos="600" len="24"/>
          <note vol="78" pan="0" key="49" pos="624" len="24"/>
          <note vol="78" pan="0" key="47" pos="648" len="24"/>
          <note vol="78" pan="0" key="51" pos="672" len="24"/>
          <note vol="78" pan="0" key="49" pos="696" len="24"/>
          <note vol="78" pan="0" key="47" pos="720" len="24"/>
          <note vol="78" pan="0" key="44" pos="744" len="24"/>
          <note vol="78" pan="0" key="49" pos="768" len="24"/>
          <note vol="78" pan="0" key="56" pos="792" len="12"/>
          <note vol="78" pan="0" key="56" pos="816" len="12"/>
          <note vol="78" pan="0" key="61" pos="840" len="24"/>
          <note vol="78" pan="0" key="56" pos="864" len="12"/>
          <note vol="78" pan="0" key="56" pos="888" len="12"/>
          <note vol="78" pan="0" key="49" pos="912" len="24"/>
          <note vol="78" pan="0" key="56" pos="936" len="12"/>
          <note vol="78" pan="0" key="56" pos="960" len="12"/>
          <note vol="78" pan="0" key="61" pos="984" len="24"/>
          <note vol="78" pan="0" key="56" pos="1008" len="12"/>
          <note vol="78" pan="0" key="57" pos="1032" len="24"/>
          <note vol="78" pan="0" key="49" pos="1056" len="24"/>
          <note vol="78" pan="0" key="52" pos="1080" len="24"/>
          <note vol="78" pan="0" key="56" pos="1104" len="24"/>
          <note vol="78" pan="0" key="61" pos="1128" len="24"/>
          <note vol="78" pan="0" key="47" pos="1152" len="24"/>
          <note vol="78" pan="0" key="52" pos="1176" len="24"/>
          <note vol="78" pan="0" key="56" pos="1200" len="24"/>
          <note vol="78" pan="0" key="59" pos="1224" len="48"/>
          <note vol="78" pan="0" key="56" pos="1272" len="24"/>
          <note vol="78" pan="0" key="59" pos="1296" len="24"/>
          <note vol="78" pan="0" key="63" pos="1320" len="24"/>
          <note vol="78" pan="0" key="61" pos="1344" len="24"/>
          <note vol="78" pan="0" key="56" pos="1368" len="24"/>
          <note vol="78" pan="0" key="52" pos="1392" len="24"/>
          <note vol="78" pan="0" key="49" pos="1416" len="24"/>
          <note vol="78" pan="0" key="54" pos="1440" len="24"/>
          <note vol="78" pan="0" key="52" pos="1464" len="24"/>
          <note vol="78" pan="0" key="56" pos="1488" len="24"/>
          <note vol="78" pan="0" key="52" pos="1512" len="24"/>
          <note vol="78" pan="0" key="57" pos="1536" len="96"/>
          <note vol="78" pan="0" key="57" pos="1632" len="24"/>
          <note vol="78" pan="0" key="56" pos="1656" len="24"/>
          <note vol="78" pan="0" key="57" pos="1680" len="24"/>
          <note vol="78" pan="0" key="59" pos="1704" len="24"/>
          <note vol="78" pan="0" key="61" pos="1728" len="72"/>
          <note vol="78" pan="0" key="59" pos="1800" len="72"/>
          <note vol="78" pan="0" key="57" pos="1872" len="48"/>
          <note vol="78" pan="0" key="56" pos="1920" len="24"/>
          <note vol="78" pan="0" key="57" pos="1944" len="24"/>
          <note vol="78" pan="0" key="56" pos="1968" len="24"/>
          <note vol="78" pan="0" key="52" pos="1992" len="48"/>
          <note vol="78" pan="0" key="52" pos="2040" len="24"/>
          <note vol="78" pan="0" key="54" pos="2064" len="24"/>
          <note vol="78" pan="0" key="56" pos="2088" len="24"/>
          <note vol="78" pan="0" key="54" pos="2112" len="96"/>
          <note vol="78" pan="0" key="51" pos="2208" len="48"/>
          <note vol="78" pan="0" key="56" pos="2256" len="48"/>
          <note vol="78" pan="0" key="44" pos="2304" len="24"/>
          <note vol="78" pan="0" key="42" pos="2328" len="24"/>
          <note vol="78" pan="0" key="44" pos="2352" len="24"/>
          <note vol="78" pan="0" key="49" pos="2376" len="24"/>
          <note vol="78" pan="0" key="52" pos="2400" len="48"/>
          <note vol="78" pan="0" key="51" pos="2448" len="24"/>
          <note vol="78" pan="0" key="49" pos="2472" len="24"/>
          <note vol="78" pan="0" key="56" pos="2496" len="24"/>
          <note vol="78" pan="0" key="54" pos="2520" len="24"/>
          <note vol="78" pan="0" key="52" pos="2544" len="24"/>
          <note vol="78" pan="0" key="51" pos="2568" len="24"/>
          <note vol="78" pan="0" key="49" pos="2592" len="24"/>
          <note vol="78" pan="0" key="51" pos="2616" len="24"/>
          <note vol="78" pan="0" key="52" pos="2640" len="24"/>
          <note vol="78" pan="0" key="56" pos="2664" len="24"/>
          <note vol="78" pan="0" key="58" pos="2688" len="48"/>
          <note vol="78" pan="0" key="54" pos="2736" len="48"/>
          <note vol="78" pan="0" key="51" pos="2784" len="48"/>
          <note vol="78" pan="0" key="46" pos="2832" len="48"/>
          <note vol="78" pan="0" key="45" pos="2880" len="24"/>
          <note vol="78" pan="0" key="49" pos="2904" len="24"/>
          <note vol="78" pan="0" key="51" pos="2928" len="24"/>
          <note vol="78" pan="0" key="54" pos="2952" len="24"/>
          <note vol="78" pan="0" key="57" pos="2976" len="24"/>
          <note vol="78" pan="0" key="61" pos="3000" len="24"/>
          <note vol="78" pan="0" key="63" pos="3024" len="24"/>
          <note vol="78" pan="0" key="66" pos="3048" len="24"/>
          <note vol="78" pan="0" key="49" pos="3072" len="144"/>
          <note vol="78" pan="0" key="45" pos="3216" len="48"/>
          <note vol="78" pan="0" key="47" pos="3264" len="96"/>
          <note vol="78" pan="0" key="51" pos="3360" len="96"/>
          <note vol="78" pan="0" key="49" pos="3456" len="48"/>
          <note vol="78" pan="0" key="44" pos="3504" len="48"/>
          <note vol="78" pan="0" key="40" pos="3552" len="48"/>
          <note vol="78" pan="0" key="44" pos="3600" len="48"/>
          <note vol="78" pan="0" key="42" pos="3648" len="48"/>
          <note vol="78" pan="0" key="51" pos="3696" len="48"/>
          <note vol="78" pan="0" key="51" pos="3744" len="24"/>
          <note vol="78" pan="0" key="52" pos="3768" len="24"/>
          <note vol="78" pan="0" key="54" pos="3792" len="24"/>
          <note vol="78" pan="0" key="51" pos="3816" len="24"/>
          <note vol="78" pan="0" key="52" pos="3840" len="96"/>
          <note vol="78" pan="0" key="51" pos="3936" len="48"/>
          <note vol="78" pan="0" key="47" pos="3984" len="48"/>
          <note vol="78" pan="0" key="49" pos="4032" len="48"/>
          <note vol="78" pan="0" key="52" pos="4080" len="48"/>
          <note vol="78" pan="0" key="54" pos="4128" len="48"/>
          <note vol="78" pan="0" key="49" pos="4176" len="48"/>
          <note vol="78" pan="0" key="54" pos="4224" len="48"/>
          <note vol="78" pan="0" key="52" pos="4272" len="48"/>
          <note vol="78" pan="0" key="51" pos="4320" len="48"/>
          <note vol="78" pan="0" key="54" pos="4368" len="48"/>
          <note vol="78" pan="0" key="52" pos="4416" len="24"/>
          <note vol="78" pan="0" key="54" pos="4440" len="24"/>
          <note vol="78" pan="0" key="52" pos="4464" len="24"/>
          <note vol="78" pan="0" key="51" pos="4488" len="24"/>
          <note vol="78" pan="0" key="49" pos="4512" len="24"/>
          <note vol="78" pan="0" key="44" pos="4536" len="24"/>
          <note vol="78" pan="0" key="45" pos="4560" len="24"/>
          <note vol="78" pan="0" key="48" pos="4584" len="24"/>
          <note vol="78" pan="0" key="51" pos="4608" len="48"/>
          <note vol="78" pan="0" key="52" pos="4656" len="48"/>
          <note vol="78" pan="0" key="54" pos="4704" len="48"/>
          <note vol="78" pan="0" key="56" pos="4752" len="48"/>
          <note vol="78" pan="0" key="59" pos="4800" len="48"/>
          <note vol="78" pan="0" key="56" pos="4848" len="48"/>
          <note vol="78" pan="0" key="51" pos="4896" len="48"/>
          <note vol="78" pan="0" key="56" pos="4944" len="48"/>
          <note vol="78" pan="0" key="59" pos="4992" len="48"/>
          <note vol="78" pan="0" key="56" pos="5040" len="48"/>
          <note vol="78" pan="0" key="52" pos="5088" len="48"/>
          <note vol="78" pan="0" key="49" pos="5136" len="48"/>
          <note vol="78" pan="0" key="45" pos="5184" len="24"/>
          <note vol="78" pan="0" key="44" pos="5208" len="24"/>
          <note vol="78" pan="0" key="45" pos="5232" len="24"/>
          <note vol="78" pan="0" key="47" pos="5256" len="24"/>
          <note vol="78" pan="0" key="49" pos="5280" len="24"/>
          <note vol="78" pan="0" key="52" pos="5304" len="24"/>
          <note vol="78" pan="0" key="54" pos="5328" len="24"/>
          <note vol="78" pan="0" key="56" pos="5352" len="24"/>
          <note vol="78" pan="0" key="54" pos="5376" len="72"/>
          <note vol="78" pan="0" key="59" pos="5448" len="24"/>
          <note vol="78" pan="0" key="56" pos="5472" len="48"/>
          <note vol="78" pan="0" key="52" pos="5520" len="24"/>
          <note vol="78" pan="0" key="54" pos="5544" len="24"/>
          <note vol="78" pan="0" key="57" pos="5568" len="48"/>
          <note vol="78" pan="0" key="56" pos="5616" len="48"/>
          <note vol="78" pan="0" key="52" pos="5664" len="48"/>
          <note vol="78" pan="0" key="56" pos="5712" len="48"/>
          <note vol="78" pan="0" key="54" pos="5760" len="192"/>
          <note vol="78" pan="0" key="51" pos="5952" len="24"/>
          <note vol="78" pan="0" key="51" pos="5976" len="24"/>
          <note vol="78" pan="0" key="47" pos="6048" len="24"/>
          <note vol="78" pan="0" key="47" pos="6072" len="24"/>
          <note vol="78" pan="0" key="49" pos="6144" len="336"/>
          <note vol="78" pan="0" key="52" pos="6480" len="48"/>
          <note vol="78" pan="0" key="51" pos="6528" len="288"/>
          <note vol="78" pan="0" key="44" pos="6816" len="48"/>
          <note vol="78" pan="0" key="47" pos="6864" len="48"/>
          <note vol="78" pan="0" key="49" pos="6912" len="240"/>
          <note vol="78" pan="0" key="47" pos="7152" len="48"/>
          <note vol="78" pan="0" key="49" pos="7200" len="48"/>
          <note vol="78" pan="0" key="56" pos="7248" len="48"/>
          <note vol="78" pan="0" key="54" pos="7296" len="192"/>
          <note vol="78" pan="0" key="57" pos="7488" len="48"/>
          <note vol="78" pan="0" key="56" pos="7536" len="24"/>
          <note vol="78" pan="0" key="56" pos="7560" len="12"/>
          <note vol="78" pan="0" key="57" pos="7568" len="12"/>
          <note vol="78" pan="0" key="56" pos="7576" len="12"/>
          <note vol="78" pan="0" key="54" pos="7584" len="48"/>
          <note vol="78" pan="0" key="56" pos="7632" len="48"/>
          <note vol="78" pan="0" key="52" pos="7680" len="240"/>
          <note vol="78" pan="0" key="49" pos="7920" len="48"/>
          <note vol="78" pan="0" key="52" pos="7968" len="48"/>
          <note vol="78" pan="0" key="56" pos="8016" len="48"/>
          <note vol="78" pan="0" key="56" pos="8064" len="192"/>
          <note vol="78" pan="0" key="54" pos="8256" len="144"/>
          <note vol="78" pan="0" key="56" pos="8400" len="48"/>
          <note vol="78" pan="0" key="49" pos="8448" len="240"/>
          <note vol="78" pan="0" key="44" pos="8688" len="48"/>
          <note vol="78" pan="0" key="49" pos="8736" len="48"/>
          <note vol="78" pan="0" key="56" pos="8784" len="48"/>
          <note vol="78" pan="0" key="61" pos="8832" len="192"/>
          <note vol="78" pan="0" key="60" pos="9024" len="192"/>
        </pattern>
        <pattern type="1" name="" steps="16" muted="0" pos="36864">
          <note vol="78" pan="0" key="44" pos="0" len="24"/>
          <note vol="78" pan="0" key="47" pos="24" len="24"/>
          <note vol="78" pan="0" key="44" pos="48" len="24"/>
          <note vol="78" pan="0" key="51" pos="72" len="48"/>
          <note vol="78" pan="0" key="44" pos="120" len="24"/>
          <note vol="78" pan="0" key="47" pos="144" len="24"/>
          <note vol="78" pan="0" key="51" pos="168" len="24"/>
          <note vol="78" pan="0" key="52" pos="192" len="24"/>
          <note vol="78" pan="0" key="51" pos="216" len="24"/>
          <note vol="78" pan="0" key="49" pos="240" len="24"/>
          <note vol="78" pan="0" key="47" pos="264" len="24"/>
          <note vol="78" pan="0" key="51" pos="288" len="24"/>
          <note vol="78" pan="0" key="49" pos="312" len="24"/>
          <note vol="78" pan="0" key="47" pos="336" len="24"/>
          <note vol="78" pan="0" key="44" pos="360" len="24"/>
          <note vol="78" pan="0" key="49" pos="384" len="96"/>
        </pattern>
        <pattern type="1" name="" steps="16" muted="0" pos="37632">
          <note vol="78" pan="0" key="47" pos="0" len="24"/>
          <note vol="78" pan="0" key="52" pos="24" len="24"/>
          <note vol="78" pan="0" key="56" pos="48" len="24"/>
          <note vol="78" pan="0" key="59" pos="72" len="48"/>
          <note vol="78" pan="0" key="56" pos="120" len="24"/>
          <note vol="78" pan="0" key="59" pos="144" len="24"/>
          <note vol="78" pan="0" key="63" pos="168" len="24"/>
          <note vol="78" pan="0" key="61" pos="192" len="24"/>
          <note vol="78" pan="0" key="56" pos="216" len="24"/>
          <note vol="78" pan="0" key="52" pos="240" len="24"/>
          <note vol="78" pan="0" key="49" pos="264" len="24"/>
          <note vol="78" pan="0" key="54" pos="288" len="24"/>
          <note vol="78" pan="0" key="52" pos="312" len="24"/>
          <note vol="78" pan="0" key="56" pos="336" len="24"/>
          <note vol="78" pan="0" key="52" pos="360" len="24"/>
          <note vol="78" pan="0" key="57" pos="384" len="120"/>
          <note vol="78" pan="0" key="56" pos="504" len="24"/>
          <note vol="78" pan="0" key="57" pos="528" len="24"/>
          <note vol="78" pan="0" key="59" pos="552" len="24"/>
          <note vol="78" pan="0" key="61" pos="576" len="72"/>
          <note vol="78" pan="0" key="59" pos="648" len="72"/>
          <note vol="78" pan="0" key="57" pos="720" len="48"/>
          <note vol="78" pan="0" key="56" pos="768" len="24"/>
          <note vol="78" pan="0" key="57" pos="792" len="24"/>
          <note vol="78" pan="0" key="56" pos="816" len="24"/>
          <note vol="78" pan="0" key="52" pos="840" len="48"/>
          <note vol="78" pan="0" key="52" pos="888" len="24"/>
          <note vol="78" pan="0" key="54" pos="912" len="24"/>
          <note vol="78" pan="0" key="56" pos="936" len="24"/>
          <note vol="78" pan="0" key="54" pos="960" len="96"/>
          <note vol="78" pan="0" key="51" pos="1056" len="48"/>
          <note vol="78" pan="0" key="56" pos="1104" len="48"/>
          <note vol="78" pan="0" key="44" pos="1152" len="24"/>
          <note vol="78" pan="0" key="42" pos="1176" len="24"/>
          <note vol="78" pan="0" key="44" pos="1200" len="24"/>
          <note vol="78" pan="0" key="49" pos="1224" len="24"/>
          <note vol="78" pan="0" key="52" pos="1248" len="48"/>
          <note vol="78" pan="0" key="51" pos="1296" len="24"/>
          <note vol="78" pan="0" key="49" pos="1320" len="24"/>
          <note vol="78" pan="0" key="56" pos="1344" len="24"/>
          <note vol="78" pan="0" key="54" pos="1368" len="24"/>
          <note vol="78" pan="0" key="52" pos="1392" len="24"/>
          <note vol="78" pan="0" key="51" pos="1416" len="24"/>
          <note vol="78" pan="0" key="49" pos="1440" len="24"/>
          <note vol="78" pan="0" key="51" pos="1464" len="24"/>
          <note vol="78" pan="0" key="52" pos="1488" len="24"/>
          <note vol="78" pan="0" key="56" pos="1512" len="24"/>
          <note vol="78" pan="0" key="58" pos="1536" len="48"/>
          <note vol="78" pan="0" key="54" pos="1584" len="48"/>
          <note vol="78" pan="0" key="51" pos="1632" len="48"/>
          <note vol="78" pan="0" key="46" pos="1680" len="48"/>
          <note vol="78" pan="0" key="45" pos="1728" len="24"/>
          <note vol="78" pan="0" key="49" pos="1752" len="24"/>
          <note vol="78" pan="0" key="51" pos="1776" len="24"/>
          <note vol="78" pan="0" key="54" pos="1800" len="24"/>
          <note vol="78" pan="0" key="57" pos="1824" len="24"/>
          <note vol="78" pan="0" key="61" pos="1848" len="24"/>
          <note vol="78" pan="0" key="63" pos="1872" len="24"/>
          <note vol="78" pan="0" key="66" pos="1896" len="24"/>
        </pattern>
        <pattern type="1" name="" steps="16" muted="0" pos="44160">
          <note vol="78" pan="0" key="49" pos="0" len="24"/>
          <note vol="78" pan="0" key="56" pos="24" len="12"/>
          <note vol="78" pan="0" key="49" pos="48" len="24"/>
          <note vol="78" pan="0" key="56" pos="72" len="12"/>
          <note vol="78" pan="0" key="56" pos="120" len="12"/>
          <note vol="78" pan="0" key="49" pos="144" len="24"/>
          <note vol="78" pan="0" key="56" pos="168" len="12"/>
          <note vol="78" pan="0" key="56" pos="192" len="12"/>
          <note vol="78" pan="0" key="61" pos="216" len="24"/>
          <note vol="78" pan="0" key="56" pos="240" len="12"/>
          <note vol="78" pan="0" key="56" pos="264" len="12"/>
          <note vol="78" pan="0" key="49" pos="288" len="24"/>
          <note vol="78" pan="0" key="52" pos="312" len="24"/>
          <note vol="78" pan="0" key="56" pos="336" len="24"/>
          <note vol="78" pan="0" key="61" pos="360" len="24"/>
          <note vol="78" pan="0" key="44" pos="384" len="24"/>
          <note vol="78" pan="0" key="47" pos="408" len="24"/>
          <note vol="78" pan="0" key="44" pos="432" len="24"/>
          <note vol="78" pan="0" key="51" pos="456" len="48"/>
          <note vol="78" pan="0" key="44" pos="504" len="24"/>
          <note vol="78" pan="0" key="47" pos="528" len="24"/>
          <note vol="78" pan="0" key="51" pos="552" len="24"/>
          <note vol="78" pan="0" key="52" pos="576" len="24"/>
          <note vol="78" pan="0" key="51" pos="600" len="24"/>
          <note vol="78" pan="0" key="49" pos="624" len="24"/>
          <note vol="78" pan="0" key="47" pos="648" len="24"/>
          <note vol="78" pan="0" key="51" pos="672" len="24"/>
          <note vol="78" pan="0" key="49" pos="696" len="24"/>
          <note vol="78" pan="0" key="47" pos="720" len="24"/>
          <note vol="78" pan="0" key="44" pos="744" len="24"/>
          <note vol="78" pan="0" key="49" pos="768" len="24"/>
          <note vol="78" pan="0" key="56" pos="792" len="12"/>
          <note vol="78" pan="0" key="56" pos="816" len="12"/>
          <note vol="78" pan="0" key="61" pos="840" len="24"/>
          <note vol="78" pan="0" key="56" pos="864" len="12"/>
          <note vol="78" pan="0" key="56" pos="888" len="12"/>
          <note vol="78" pan="0" key="49" pos="912" len="24"/>
          <note vol="78" pan="0" key="56" pos="936" len="12"/>
          <note vol="78" pan="0" key="56" pos="960" len="12"/>
          <note vol="78" pan="0" key="61" pos="984" len="24"/>
          <note vol="78" pan="0" key="56" pos="1008" len="12"/>
          <note vol="78" pan="0" key="57" pos="1032" len="24"/>
          <note vol="78" pan="0" key="49" pos="1056" len="24"/>
          <note vol="78" pan="0" key="52" pos="1080" len="24"/>
          <note vol="78" pan="0" key="56" pos="1104" len="24"/>
          <note vol="78" pan="0" key="61" pos="1128" len="24"/>
          <note vol="78" pan="0" key="47" pos="1152" len="24"/>
          <note vol="78" pan="0" key="52" pos="1176" len="24"/>
          <note vol="78" pan="0" key="56" pos="1200" len="24"/>
          <note vol="78" pan="0" key="59" pos="1224" len="48"/>
          <note vol="78" pan="0" key="56" pos="1272" len="24"/>
          <note vol="78" pan="0" key="59" pos="1296" len="24"/>
          <note vol="78" pan="0" key="63" pos="1320" len="24"/>
          <note vol="78" pan="0" key="61" pos="1344" len="24"/>
          <note vol="78" pan="0" key="56" pos="1368" len="24"/>
          <note vol="78" pan="0" key="52" pos="1392" len="24"/>
          <note vol="78" pan="0" key="49" pos="1416" len="24"/>
          <note vol="78" pan="0" key="54" pos="1440" len="24"/>
          <note vol="78" pan="0" key="52" pos="1464" len="24"/>
          <note vol="78" pan="0" key="56" pos="1488" len="24"/>
          <note vol="78" pan="0" key="52" pos="1512" len="24"/>
          <note vol="78" pan="0" key="57" pos="1536" len="96"/>
          <note vol="78" pan="0" key="57" pos="1632" len="24"/>
          <note vol="78" pan="0" key="56" pos="1656" len="24"/>
          <note vol="78" pan="0" key="57" pos="1680" len="24"/>
          <note vol="78" pan="0" key="59" pos="1704" len="24"/>
          <note vol="78" pan="0" key="61" pos="1728" len="72"/>
          <note vol="78" pan="0" key="59" pos="1800" len="72"/>
          <note vol="78" pan="0" key="57" pos="1872" len="48"/>
          <note vol="78" pan="0" key="56" pos="1920" len="24"/>
          <note vol="78" pan="0" key="57" pos="1944" len="24"/>
          <note vol="78" pan="0" key="56" pos="1968" len="24"/>
          <note vol="78" pan="0" key="52" pos="1992" len="48"/>
          <note vol="78" pan="0" key="52" pos="2040" len="24"/>
          <note vol="78" pan="0" key="54" pos="2064" len="24"/>
          <note vol="78" pan="0" key="56" pos="2088" len="24"/>
          <note vol="78" pan="0" key="54" pos="2112" len="96"/>
          <note vol="78" pan="0" key="51" pos="2208" len="48"/>
          <note vol="78" pan="0" key="56" pos="2256" len="48"/>
          <note vol="78" pan="0" key="44" pos="2304" len="24"/>
          <note vol="78" pan="0" key="42" pos="2328" len="24"/>
          <note vol="78" pan="0" key="44" pos="2352" len="24"/>
          <note vol="78" pan="0" key="49" pos="2376" len="24"/>
          <note vol="78" pan="0" key="52" pos="2400" len="48"/>
          <note vol="78" pan="0" key="51" pos="2448" len="24"/>
          <note vol="78" pan="0" key="49" pos="2472" len="24"/>
          <note vol="78" pan="0" key="56" pos="2496" len="24"/>
          <note vol="78" pan="0" key="54" pos="2520" len="24"/>
          <note vol="78" pan="0" key="52" pos="2544" len="24"/>
          <note vol="78" pan="0" key="51" pos="2568" len="24"/>
          <note vol="78" pan="0" key="49" pos="2592" len="24"/>
          <note vol="78" pan="0" key="51" pos="2616" len="24"/>
          <note vol="78" pan="0" key="52" pos="2640" len="24"/>
          <note vol="78" pan="0" key="56" pos="2664" len="24"/>
          <note vol="78" pan="0" key="58" pos="2688" len="48"/>
          <note vol="78" pan="0" key="54" pos="2736" len="48"/>
          <note vol="78" pan="0" key="51" pos="2784" len="48"/>
          <note vol="78" pan="0" key="46" pos="2832" len="48"/>
          <note vol="78" pan="0" key="45" pos="2880" len="24"/>
          <note vol="78" pan="0" key="49" pos="2904" len="24"/>
          <note vol="78" pan="0" key="51" pos="2928" len="24"/>
          <note vol="78" pan="0" key="54" pos="2952" len="24"/>
          <note vol="78" pan="0" key="57" pos="2976" len="24"/>
          <note vol="78" pan="0" key="61" pos="3000" len="24"/>
          <note vol="78" pan="0" key="63" pos="3024" len="24"/>
          <note vol="78" pan="0" key="66" pos="3048" len="24"/>
          <note vol="78" pan="0" key="49" pos="3072" len="144"/>
          <note vol="78" pan="0" key="45" pos="3216" len="48"/>
          <note vol="78" pan="0" key="47" pos="3264" len="96"/>
          <note vol="78" pan="0" key="51" pos="3360" len="96"/>
          <note vol="78" pan="0" key="49" pos="3456" len="48"/>
          <note vol="78" pan="0" key="44" pos="3504" len="48"/>
          <note vol="78" pan="0" key="40" pos="3552" len="48"/>
          <note vol="78" pan="0" key="44" pos="3600" len="48"/>
          <note vol="78" pan="0" key="42" pos="3648" len="48"/>
          <note vol="78" pan="0" key="51" pos="3696" len="48"/>
          <note vol="78" pan="0" key="51" pos="3744" len="24"/>
          <note vol="78" pan="0" key="52" pos="3768" len="24"/>
          <note vol="78" pan="0" key="54" pos="3792" len="24"/>
          <note vol="78" pan="0" key="51" pos="3816" len="24"/>
          <note vol="78" pan="0" key="52" pos="3840" len="96"/>
          <note vol="78" pan="0" key="51" pos="3936" len="48"/>
          <note vol="78" pan="0" key="47" pos="3984" len="48"/>
          <note vol="78" pan="0" key="49" pos="4032" len="48"/>
          <note vol="78" pan="0" key="52" pos="4080" len="48"/>
          <note vol="78" pan="0" key="54" pos="4128" len="48"/>
          <note vol="78" pan="0" key="49" pos="4176" len="48"/>
          <note vol="78" pan="0" key="54" pos="4224" len="48"/>
          <note vol="78" pan="0" key="52" pos="4272" len="48"/>
          <note vol="78" pan="0" key="51" pos="4320" len="48"/>
          <note vol="78" pan="0" key="54" pos="4368" len="48"/>
          <note vol="78" pan="0" key="52" pos="4416" len="24"/>
          <note vol="78" pan="0" key="54" pos="4440" len="24"/>
          <note vol="78" pan="0" key="52" pos="4464" len="24"/>
          <note vol="78" pan="0" key="51" pos="4488" len="24"/>
          <note vol="78" pan="0" key="49" pos="4512" len="24"/>
          <note vol="78" pan="0" key="44" pos="4536" len="24"/>
          <note vol="78" pan="0" key="45" pos="4560" len="24"/>
          <note vol="78" pan="0" key="48" pos="4584" len="24"/>
          <note vol="78" pan="0" key="51" pos="4608" len="48"/>
          <note vol="78" pan="0" key="52" pos="4656" len="48"/>
          <note vol="78" pan="0" key="54" pos="4704" len="48"/>
          <note vol="78" pan="0" key="56" pos="4752" len="48"/>
          <note vol="78" pan="0" key="59" pos="4800" len="48"/>
          <note vol="78" pan="0" key="56" pos="4848" len="48"/>
          <note vol="78" pan="0" key="51" pos="4896" len="48"/>
          <note vol="78" pan="0" key="56" pos="4944" len="48"/>
          <note vol="78" pan="0" key="59" pos="4992" len="48"/>
          <note vol="78" pan="0" key="56" pos="5040" len="48"/>
          <note vol="78" pan="0" key="52" pos="5088" len="48"/>
          <note vol="78" pan="0" key="49" pos="5136" len="48"/>
          <note vol="78" pan="0" key="45" pos="5184" len="24"/>
          <note vol="78" pan="0" key="44" pos="5208" len="24"/>
          <note vol="78" pan="0" key="45" pos="5232" len="24"/>
          <note vol="78" pan="0" key="47" pos="5256" len="24"/>
          <note vol="78" pan="0" key="49" pos="5280" len="24"/>
          <note vol="78" pan="0" key="52" pos="5304" len="24"/>
          <note vol="78" pan="0" key="54" pos="5328" len="24"/>
          <note vol="78" pan="0" key="56" pos="5352" len="24"/>
          <note vol="78" pan="0" key="54" pos="5376" len="72"/>
          <note vol="78" pan="0" key="59" pos="5448" len="24"/>
          <note vol="78" pan="0" key="56" pos="5472" len="48"/>
          <note vol="78" pan="0" key="52" pos="5520" len="24"/>
          <note vol="78" pan="0" key="54" pos="5544" len="24"/>
          <note vol="78" pan="0" key="57" pos="5568" len="48"/>
          <note vol="78" pan="0" key="56" pos="5616" len="48"/>
          <note vol="78" pan="0" key="52" pos="5664" len="48"/>
          <note vol="78" pan="0" key="56" pos="5712" len="48"/>
          <note vol="78" pan="0" key="54" pos="5760" len="192"/>
          <note vol="78" pan="0" key="51" pos="5952" len="24"/>
          <note vol="78" pan="0" key="51" pos="5976" len="24"/>
          <note vol="78" pan="0" key="47" pos="6048" len="24"/>
          <note vol="78" pan="0" key="47" pos="6072" len="24"/>
          <note vol="78" pan="0" key="49" pos="6144" len="336"/>
          <note vol="78" pan="0" key="52" pos="6480" len="48"/>
          <note vol="78" pan="0" key="51" pos="6528" len="288"/>
          <note vol="78" pan="0" key="44" pos="6816" len="48"/>
          <note vol="78" pan="0" key="47" pos="6864" len="48"/>
          <note vol="78" pan="0" key="49" pos="6912" len="240"/>
          <note vol="78" pan="0" key="47" pos="7152" len="48"/>
          <note vol="78" pan="0" key="49" pos="7200" len="48"/>
          <note vol="78" pan="0" key="56" pos="7248" len="48"/>
          <note vol="78" pan="0" key="54" pos="7296" len="192"/>
          <note vol="78" pan="0" key="57" pos="7488" len="48"/>
          <note vol="78" pan="0" key="56" pos="7536" len="24"/>
          <note vol="78" pan="0" key="56" pos="7560" len="12"/>
          <note vol="78" pan="0" key="57" pos="7568" len="12"/>
          <note vol="78" pan="0" key="56" pos="7576" len="12"/>
          <note vol="78" pan="0" key="54" pos="7584" len="48"/>
          <note vol="78" pan="0" key="56" pos="7632" len="48"/>
          <note vol="78" pan="0" key="52" pos="7680" len="240"/>
          <note vol="78" pan="0" key="49" pos="7920" len="48"/>
          <note vol="78" pan="0" key="52" pos="7968" len="48"/>
          <note vol="78" pan="0" key="56" pos="8016" len="48"/>
          <note vol="78" pan="0" key="56" pos="8064" len="192"/>
          <note vol="78" pan="0" key="54" pos="8256" len="144"/>
          <note vol="78" pan="0" key="56" pos="8400" len="48"/>
          <note vol="78" pan="0" key="49" pos="8448" len="240"/>
          <note vol="78" pan="0" key="44" pos="8688" len="48"/>
          <note vol="78" pan="0" key="49" pos="8736" len="48"/>
          <note vol="78" pan="0" key="56" pos="8784" len="48"/>
          <note vol="78" pan="0" key="61" pos="8832" len="192"/>
          <note vol="78" pan="0" key="60" pos="9024" len="192"/>
        </pattern>
        <pattern type="1" name="" steps="16" muted="0" pos="56448">
          <note vol="78" pan="0" key="75" pos="0" len="336"/>
          <note vol="78" pan="0" key="0" pos="0" len="336"/>
          <note vol="78" pan="0" key="78" pos="336" len="48"/>
          <note vol="78" pan="0" key="77" pos="384" len="288"/>
          <note vol="78" pan="0" key="70" pos="672" len="48"/>
          <note vol="78" pan="0" key="73" pos="720" len="48"/>
          <note vol="78" pan="0" key="75" pos="768" len="240"/>
          <note vol="78" pan="0" key="73" pos="1008" len="48"/>
          <note vol="78" pan="0" key="75" pos="1056" len="48"/>
          <note vol="78" pan="0" key="82" pos="1104" len="48"/>
          <note vol="78" pan="0" key="80" pos="1152" len="192"/>
          <note vol="78" pan="0" key="83" pos="1344" len="48"/>
          <note vol="78" pan="0" key="82" pos="1392" len="48"/>
          <note vol="78" pan="0" key="80" pos="1440" len="48"/>
          <note vol="78" pan="0" key="76" pos="1488" len="48"/>
          <note vol="78" pan="0" key="75" pos="1536" len="144"/>
          <note vol="78" pan="0" key="75" pos="1680" len="24"/>
          <note vol="78" pan="0" key="77" pos="1704" len="24"/>
          <note vol="78" pan="0" key="78" pos="1728" len="96"/>
          <note vol="78" pan="0" key="0" pos="1812" len="24"/>
          <note vol="78" pan="0" key="80" pos="1824" len="12"/>
          <note vol="78" pan="0" key="82" pos="1836" len="84"/>
          <note vol="78" pan="0" key="2" pos="1836" len="24"/>
          <note vol="78" pan="0" key="0" pos="1896" len="24"/>
          <note vol="78" pan="0" key="80" pos="1920" len="156"/>
          <note vol="78" pan="0" key="80" pos="2076" len="12"/>
          <note vol="78" pan="0" key="78" pos="2088" len="12"/>
          <note vol="78" pan="0" key="77" pos="2100" len="12"/>
          <note vol="78" pan="0" key="73" pos="2112" len="96"/>
          <note vol="78" pan="0" key="70" pos="2208" len="48"/>
          <note vol="78" pan="0" key="73" pos="2256" len="48"/>
          <note vol="78" pan="0" key="75" pos="2304" len="120"/>
          <note vol="78" pan="0" key="73" pos="2424" len="24"/>
          <note vol="78" pan="0" key="72" pos="2448" len="24"/>
          <note vol="78" pan="0" key="68" pos="2472" len="24"/>
          <note vol="78" pan="0" key="70" pos="2496" len="96"/>
          <note vol="78" pan="0" key="63" pos="2592" len="96"/>
          <note vol="78" pan="0" key="70" pos="2688" len="12"/>
          <note vol="78" pan="0" key="0" pos="2688" len="12"/>
          <note vol="78" pan="0" key="71" pos="2700" len="84"/>
          <note vol="78" pan="0" key="2" pos="2700" len="12"/>
          <note vol="78" pan="0" key="0" pos="2712" len="12"/>
          <note vol="78" pan="0" key="70" pos="2784" len="96"/>
          <note vol="78" pan="0" key="68" pos="2880" len="96"/>
          <note vol="78" pan="0" key="73" pos="2976" len="96"/>
          <note vol="78" pan="0" key="75" pos="3072" len="48"/>
          <note vol="78" pan="0" key="70" pos="3120" len="48"/>
          <note vol="78" pan="0" key="75" pos="3168" len="48"/>
          <note vol="78" pan="0" key="77" pos="3216" len="48"/>
          <note vol="78" pan="0" key="78" pos="3264" len="48"/>
          <note vol="78" pan="0" key="80" pos="3312" len="48"/>
          <note vol="78" pan="0" key="82" pos="3360" len="48"/>
          <note vol="78" pan="0" key="87" pos="3408" len="48"/>
          <note vol="78" pan="0" key="85" pos="3456" len="144"/>
          <note vol="78" pan="0" key="80" pos="3600" len="12"/>
          <note vol="78" pan="0" key="0" pos="3600" len="12"/>
          <note vol="78" pan="0" key="82" pos="3612" len="36"/>
          <note vol="78" pan="0" key="2" pos="3612" len="12"/>
          <note vol="78" pan="0" key="0" pos="3624" len="12"/>
          <note vol="78" pan="0" key="80" pos="3648" len="96"/>
          <note vol="78" pan="0" key="77" pos="3744" len="48"/>
          <note vol="78" pan="0" key="80" pos="3792" len="48"/>
          <note vol="78" pan="0" key="79" pos="3840" len="24"/>
          <note vol="78" pan="0" key="80" pos="3864" len="24"/>
          <note vol="78" pan="0" key="79" pos="3888" len="24"/>
          <note vol="78" pan="0" key="75" pos="3912" len="24"/>
          <note vol="78" pan="0" key="72" pos="3936" len="24"/>
          <note vol="78" pan="0" key="63" pos="3960" len="24"/>
          <note vol="78" pan="0" key="70" pos="3984" len="24"/>
          <note vol="78" pan="0" key="68" pos="4008" len="24"/>
          <note vol="78" pan="0" key="70" pos="4032" len="96"/>
          <note vol="78" pan="0" key="75" pos="4128" len="96"/>
          <note vol="78" pan="0" key="75" pos="4224" len="192"/>
          <note vol="78" pan="0" key="78" pos="4416" len="96"/>
          <note vol="78" pan="0" key="80" pos="4512" len="96"/>
          <note vol="78" pan="0" key="82" pos="4608" len="192"/>
          <note vol="78" pan="0" key="0" pos="4608" len="16"/>
          <note vol="78" pan="0" key="75" pos="4800" len="16"/>
          <note vol="78" pan="0" key="1" pos="4800" len="16"/>
          <note vol="78" pan="0" key="77" pos="4816" len="16"/>
          <note vol="78" pan="0" key="75" pos="4832" len="16"/>
          <note vol="78" pan="0" key="78" pos="4848" len="16"/>
          <note vol="78" pan="0" key="80" pos="4864" len="16"/>
          <note vol="78" pan="0" key="0" pos="4864" len="16"/>
          <note vol="78" pan="0" key="82" pos="4880" len="16"/>
          <note vol="78" pan="0" key="87" pos="4896" len="16"/>
          <note vol="78" pan="0" key="82" pos="4912" len="16"/>
          <note vol="78" pan="0" key="80" pos="4928" len="16"/>
          <note vol="78" pan="0" key="1" pos="4928" len="16"/>
          <note vol="78" pan="0" key="78" pos="4944" len="16"/>
          <note vol="78" pan="0" key="77" pos="4960" len="16"/>
          <note vol="78" pan="0" key="75" pos="4976" len="16"/>
          <note vol="78" pan="0" key="77" pos="4992" len="48"/>
          <note vol="78" pan="0" key="0" pos="4992" len="192"/>
          <note vol="78" pan="0" key="78" pos="5040" len="48"/>
          <note vol="78" pan="0" key="80" pos="5088" len="48"/>
          <note vol="78" pan="0" key="85" pos="5136" len="48"/>
          <note vol="78" pan="0" key="73" pos="5184" len="96"/>
          <note vol="78" pan="0" key="75" pos="5280" len="12"/>
          <note vol="78" pan="0" key="0" pos="5280" len="12"/>
          <note vol="78" pan="0" key="77" pos="5292" len="84"/>
          <note vol="78" pan="0" key="2" pos="5292" len="12"/>
          <note vol="78" pan="0" key="0" pos="5304" len="12"/>
          <note vol="78" pan="0" key="75" pos="5376" len="96"/>
          <note vol="78" pan="0" key="77" pos="5472" len="96"/>
          <note vol="78" pan="0" key="70" pos="5568" len="96"/>
          <note vol="78" pan="0" key="75" pos="5664" len="96"/>
          <note vol="78" pan="0" key="80" pos="5760" len="96"/>
          <note vol="78" pan="0" key="82" pos="5856" len="96"/>
          <note vol="200" pan="0" key="85" pos="5952" len="96"/>
        </pattern>
      </track>
      <track type="0" name="Violin" solo="0" muted="1" mutedBeforeSolo="0">
        <instrumenttrack usemasterpitch="1" pitchrange="2" pitch="0" vol="100" basenote="57" pan="0" fxch="0">
          <instrument name="sf2player">
            <sf2player reverbRoomSize="0.2" reverbWidth="0.5" reverbDamping="0" chorusNum="3" patch="15" chorusLevel="2" src="/home/pass/samples/soundfonts/Mystery Dungeon.sf2" reverbOn="0" chorusOn="0" gain="1" chorusDepth="8" chorusSpeed="0.3" bank="0" reverbLevel="0.9">
              <key/>
            </sf2player>
          </instrument>
          <eldata fwet="0" fres="0.5" ftype="0" fcut="14000">
            <elvol x100="0" lspd_numerator="4" amt="0" lspd="0.1" lpdel="0" dec="0.5" lspd_syncmode="0" att="0" ctlenvamt="0" pdel="0" latt="0" sustain="0.5" lspd_denominator="4" hold="0.5" lamt="0" userwavefile="" lshp="0" rel="0.1"/>
            <elcut x100="0" lspd_numerator="4" amt="0" lspd="0.1" lpdel="0" dec="0.5" lspd_syncmode="0" att="0" ctlenvamt="0" pdel="0" latt="0" sustain="0.5" lspd_denominator="4" hold="0.5" lamt="0" userwavefile="" lshp="0" rel="0.1"/>
            <elres x100="0" lspd_numerator="4" amt="0" lspd="0.1" lpdel="0" dec="0.5" lspd_syncmode="0" att="0" ctlenvamt="0" pdel="0" latt="0" sustain="0.5" lspd_denominator="4" hold="0.5" lamt="0" userwavefile="" lshp="0" rel="0.1"/>
          </eldata>
          <chordcreator chordrange="1" chord="0" chord-enabled="0"/>
          <arpeggiator arprange="1" arptime_syncmode="0" arpskip="0" arpmiss="0" arptime="200" arpdir="0" arpmode="0" arptime_denominator="4" arp-enabled="0" arp="0" arpgate="100" arpcycle="0" arptime_numerator="4"/>
          <midiport inputcontroller="0" outputcontroller="0" outputprogram="1" basevelocity="63" outputchannel="1" writable="0" inputchannel="0" readable="0" fixedinputvelocity="-1" fixedoutputvelocity="-1" fixedoutputnote="-1"/>
          <fxchain numofeffects="0" enabled="0"/>
        </instrumenttrack>
        <pattern type="1" name="" steps="16" muted="0" pos="0">
          <note vol="78" pan="0" key="61" pos="0" len="384"/>
          <note vol="78" pan="0" key="68" pos="192" len="192"/>
          <note vol="78" pan="0" key="64" pos="384" len="384"/>
          <note vol="78" pan="0" key="61" pos="384" len="384"/>
          <note vol="78" pan="0" key="52" pos="384" len="384"/>
          <note vol="78" pan="0" key="63" pos="768" len="384"/>
          <note vol="78" pan="0" key="59" pos="768" len="384"/>
          <note vol="78" pan="0" key="56" pos="768" len="384"/>
          <note vol="78" pan="0" key="61" pos="1152" len="384"/>
          <note vol="78" pan="0" key="56" pos="1152" len="384"/>
          <note vol="78" pan="0" key="49" pos="1152" len="384"/>
          <note vol="78" pan="0" key="59" pos="1536" len="384"/>
          <note vol="78" pan="0" key="57" pos="1536" len="384"/>
          <note vol="78" pan="0" key="49" pos="1536" len="384"/>
          <note vol="78" pan="0" key="64" pos="1920" len="24"/>
          <note vol="78" pan="0" key="56" pos="1920" len="24"/>
          <note vol="78" pan="0" key="64" pos="1992" len="24"/>
          <note vol="78" pan="0" key="56" pos="1992" len="24"/>
          <note vol="78" pan="0" key="64" pos="2064" len="24"/>
          <note vol="78" pan="0" key="56" pos="2064" len="24"/>
          <note vol="78" pan="0" key="64" pos="2136" len="24"/>
          <note vol="78" pan="0" key="56" pos="2136" len="24"/>
          <note vol="78" pan="0" key="64" pos="2208" len="24"/>
          <note vol="78" pan="0" key="56" pos="2208" len="24"/>
          <note vol="78" pan="0" key="64" pos="2232" len="24"/>
          <note vol="78" pan="0" key="56" pos="2232" len="24"/>
          <note vol="78" pan="0" key="64" pos="2280" len="24"/>
          <note vol="78" pan="0" key="56" pos="2280" len="24"/>
          <note vol="78" pan="0" key="63" pos="2304" len="24"/>
          <note vol="78" pan="0" key="56" pos="2304" len="24"/>
          <note vol="78" pan="0" key="63" pos="2376" len="24"/>
          <note vol="78" pan="0" key="56" pos="2376" len="24"/>
          <note vol="78" pan="0" key="63" pos="2448" len="24"/>
          <note vol="78" pan="0" key="56" pos="2448" len="24"/>
          <note vol="78" pan="0" key="63" pos="2520" len="24"/>
          <note vol="78" pan="0" key="56" pos="2520" len="24"/>
          <note vol="78" pan="0" key="63" pos="2592" len="24"/>
          <note vol="78" pan="0" key="56" pos="2592" len="24"/>
          <note vol="78" pan="0" key="63" pos="2616" len="24"/>
          <note vol="78" pan="0" key="56" pos="2616" len="24"/>
          <note vol="78" pan="0" key="63" pos="2664" len="24"/>
          <note vol="78" pan="0" key="56" pos="2664" len="24"/>
          <note vol="78" pan="0" key="61" pos="2688" len="24"/>
          <note vol="78" pan="0" key="58" pos="2688" len="24"/>
          <note vol="78" pan="0" key="61" pos="2760" len="24"/>
          <note vol="78" pan="0" key="58" pos="2760" len="24"/>
          <note vol="78" pan="0" key="61" pos="2832" len="24"/>
          <note vol="78" pan="0" key="58" pos="2832" len="24"/>
          <note vol="78" pan="0" key="61" pos="2904" len="24"/>
          <note vol="78" pan="0" key="58" pos="2904" len="24"/>
          <note vol="78" pan="0" key="61" pos="2976" len="24"/>
          <note vol="78" pan="0" key="58" pos="2976" len="24"/>
          <note vol="78" pan="0" key="61" pos="3000" len="24"/>
          <note vol="78" pan="0" key="58" pos="3000" len="24"/>
          <note vol="78" pan="0" key="61" pos="3048" len="24"/>
          <note vol="78" pan="0" key="58" pos="3048" len="24"/>
          <note vol="78" pan="0" key="61" pos="3072" len="24"/>
          <note vol="78" pan="0" key="57" pos="3072" len="24"/>
          <note vol="78" pan="0" key="61" pos="3144" len="24"/>
          <note vol="78" pan="0" key="57" pos="3144" len="24"/>
          <note vol="78" pan="0" key="61" pos="3216" len="24"/>
          <note vol="78" pan="0" key="57" pos="3216" len="24"/>
          <note vol="78" pan="0" key="69" pos="3264" len="192"/>
          <note vol="78" pan="0" key="61" pos="3456" len="192"/>
          <note vol="78" pan="0" key="61" pos="3648" len="192"/>
          <note vol="78" pan="0" key="61" pos="3840" len="192"/>
          <note vol="78" pan="0" key="59" pos="4032" len="192"/>
          <note vol="78" pan="0" key="61" pos="4224" len="192"/>
          <note vol="78" pan="0" key="61" pos="4416" len="192"/>
          <note vol="78" pan="0" key="61" pos="4608" len="192"/>
          <note vol="78" pan="0" key="59" pos="4800" len="192"/>
        </pattern>
        <pattern type="1" name="" steps="16" muted="0" pos="11136">
          <note vol="78" pan="0" key="59" pos="0" len="384"/>
          <note vol="78" pan="0" key="54" pos="0" len="384"/>
          <note vol="78" pan="0" key="61" pos="384" len="384"/>
          <note vol="78" pan="0" key="56" pos="384" len="384"/>
          <note vol="78" pan="0" key="61" pos="768" len="384"/>
          <note vol="78" pan="0" key="57" pos="768" len="384"/>
          <note vol="78" pan="0" key="63" pos="1152" len="384"/>
          <note vol="78" pan="0" key="59" pos="1152" len="384"/>
          <note vol="78" pan="0" key="61" pos="1536" len="384"/>
          <note vol="78" pan="0" key="56" pos="1536" len="384"/>
          <note vol="78" pan="0" key="52" pos="1536" len="384"/>
          <note vol="78" pan="0" key="59" pos="1920" len="384"/>
          <note vol="78" pan="0" key="54" pos="1920" len="192"/>
          <note vol="78" pan="0" key="51" pos="1920" len="192"/>
          <note vol="78" pan="0" key="52" pos="2112" len="96"/>
          <note vol="78" pan="0" key="47" pos="2112" len="192"/>
          <note vol="78" pan="0" key="54" pos="2208" len="96"/>
          <note vol="78" pan="0" key="61" pos="2304" len="384"/>
          <note vol="78" pan="0" key="56" pos="2304" len="384"/>
          <note vol="78" pan="0" key="52" pos="2304" len="384"/>
          <note vol="78" pan="0" key="66" pos="2688" len="384"/>
          <note vol="78" pan="0" key="59" pos="2688" len="384"/>
          <note vol="78" pan="0" key="54" pos="2688" len="384"/>
          <note vol="78" pan="0" key="61" pos="3072" len="24"/>
          <note vol="78" pan="0" key="57" pos="3072" len="24"/>
          <note vol="78" pan="0" key="61" pos="3120" len="24"/>
          <note vol="78" pan="0" key="57" pos="3120" len="24"/>
          <note vol="78" pan="0" key="61" pos="3168" len="24"/>
          <note vol="78" pan="0" key="57" pos="3168" len="24"/>
          <note vol="78" pan="0" key="61" pos="3216" len="24"/>
          <note vol="78" pan="0" key="57" pos="3216" len="24"/>
          <note vol="78" pan="0" key="61" pos="3264" len="24"/>
          <note vol="78" pan="0" key="57" pos="3264" len="24"/>
          <note vol="78" pan="0" key="61" pos="3312" len="24"/>
          <note vol="78" pan="0" key="57" pos="3312" len="24"/>
          <note vol="78" pan="0" key="61" pos="3360" len="24"/>
          <note vol="78" pan="0" key="57" pos="3360" len="24"/>
          <note vol="78" pan="0" key="61" pos="3408" len="24"/>
          <note vol="78" pan="0" key="57" pos="3408" len="24"/>
          <note vol="78" pan="0" key="61" pos="3456" len="24"/>
          <note vol="78" pan="0" key="56" pos="3456" len="24"/>
          <note vol="78" pan="0" key="52" pos="3456" len="24"/>
          <note vol="78" pan="0" key="61" pos="3504" len="24"/>
          <note vol="78" pan="0" key="56" pos="3504" len="24"/>
          <note vol="78" pan="0" key="52" pos="3504" len="24"/>
          <note vol="78" pan="0" key="61" pos="3552" len="24"/>
          <note vol="78" pan="0" key="56" pos="3552" len="24"/>
          <note vol="78" pan="0" key="52" pos="3552" len="24"/>
          <note vol="78" pan="0" key="61" pos="3600" len="24"/>
          <note vol="78" pan="0" key="56" pos="3600" len="24"/>
          <note vol="78" pan="0" key="52" pos="3600" len="24"/>
          <note vol="78" pan="0" key="61" pos="3648" len="24"/>
          <note vol="78" pan="0" key="56" pos="3648" len="24"/>
          <note vol="78" pan="0" key="51" pos="3648" len="24"/>
          <note vol="78" pan="0" key="61" pos="3696" len="24"/>
          <note vol="78" pan="0" key="56" pos="3696" len="24"/>
          <note vol="78" pan="0" key="51" pos="3696" len="24"/>
          <note vol="78" pan="0" key="61" pos="3744" len="24"/>
          <note vol="78" pan="0" key="56" pos="3744" len="24"/>
          <note vol="78" pan="0" key="51" pos="3744" len="24"/>
          <note vol="78" pan="0" key="61" pos="3792" len="24"/>
          <note vol="78" pan="0" key="56" pos="3792" len="24"/>
          <note vol="78" pan="0" key="51" pos="3792" len="24"/>
        </pattern>
        <pattern type="1" name="" steps="16" muted="0" pos="18816">
          <note vol="78" pan="0" key="59" pos="0" len="384"/>
          <note vol="78" pan="0" key="54" pos="0" len="384"/>
          <note vol="78" pan="0" key="61" pos="384" len="384"/>
          <note vol="78" pan="0" key="56" pos="384" len="384"/>
          <note vol="78" pan="0" key="61" pos="768" len="384"/>
          <note vol="78" pan="0" key="57" pos="768" len="384"/>
          <note vol="78" pan="0" key="63" pos="1152" len="384"/>
          <note vol="78" pan="0" key="59" pos="1152" len="384"/>
          <note vol="78" pan="0" key="59" pos="1536" len="384"/>
          <note vol="78" pan="0" key="54" pos="1536" len="384"/>
          <note vol="78" pan="0" key="61" pos="1920" len="384"/>
          <note vol="78" pan="0" key="56" pos="1920" len="384"/>
          <note vol="78" pan="0" key="61" pos="2304" len="384"/>
          <note vol="78" pan="0" key="57" pos="2304" len="384"/>
          <note vol="78" pan="0" key="63" pos="2688" len="384"/>
          <note vol="78" pan="0" key="59" pos="2688" len="384"/>
          <note vol="78" pan="0" key="56" pos="3072" len="192"/>
          <note vol="78" pan="0" key="52" pos="3072" len="192"/>
          <note vol="78" pan="0" key="54" pos="3264" len="192"/>
          <note vol="78" pan="0" key="51" pos="3264" len="192"/>
          <note vol="78" pan="0" key="56" pos="3456" len="384"/>
          <note vol="78" pan="0" key="52" pos="3456" len="384"/>
          <note vol="78" pan="0" key="49" pos="3456" len="384"/>
          <note vol="78" pan="0" key="56" pos="3840" len="192"/>
          <note vol="78" pan="0" key="49" pos="3840" len="192"/>
          <note vol="78" pan="0" key="47" pos="3840" len="192"/>
          <note vol="78" pan="0" key="54" pos="4032" len="192"/>
          <note vol="78" pan="0" key="51" pos="4032" len="192"/>
          <note vol="78" pan="0" key="47" pos="4032" len="192"/>
          <note vol="78" pan="0" key="49" pos="4224" len="384"/>
          <note vol="78" pan="0" key="47" pos="4224" len="192"/>
          <note vol="78" pan="0" key="44" pos="4224" len="384"/>
          <note vol="78" pan="0" key="56" pos="4608" len="192"/>
          <note vol="78" pan="0" key="47" pos="4608" len="192"/>
          <note vol="78" pan="0" key="57" pos="4800" len="192"/>
          <note vol="78" pan="0" key="49" pos="4800" len="192"/>
          <note vol="78" pan="0" key="59" pos="4992" len="192"/>
          <note vol="78" pan="0" key="52" pos="4992" len="192"/>
          <note vol="78" pan="0" key="64" pos="5184" len="192"/>
          <note vol="78" pan="0" key="56" pos="5184" len="192"/>
          <note vol="78" pan="0" key="61" pos="5376" len="384"/>
          <note vol="78" pan="0" key="54" pos="5376" len="384"/>
          <note vol="78" pan="0" key="61" pos="5760" len="384"/>
          <note vol="78" pan="0" key="52" pos="5760" len="384"/>
          <note vol="78" pan="0" key="68" pos="6144" len="192"/>
          <note vol="78" pan="0" key="64" pos="6144" len="192"/>
          <note vol="78" pan="0" key="66" pos="6336" len="192"/>
          <note vol="78" pan="0" key="63" pos="6336" len="192"/>
          <note vol="78" pan="0" key="68" pos="6528" len="384"/>
          <note vol="78" pan="0" key="64" pos="6528" len="384"/>
          <note vol="78" pan="0" key="61" pos="6528" len="384"/>
          <note vol="78" pan="0" key="68" pos="6912" len="192"/>
          <note vol="78" pan="0" key="61" pos="6912" len="192"/>
          <note vol="78" pan="0" key="59" pos="6912" len="192"/>
          <note vol="78" pan="0" key="66" pos="7104" len="192"/>
          <note vol="78" pan="0" key="63" pos="7104" len="192"/>
          <note vol="78" pan="0" key="59" pos="7104" len="192"/>
          <note vol="78" pan="0" key="61" pos="7296" len="384"/>
          <note vol="78" pan="0" key="58" pos="7296" len="384"/>
          <note vol="78" pan="0" key="56" pos="7296" len="384"/>
          <note vol="78" pan="0" key="68" pos="7680" len="192"/>
          <note vol="78" pan="0" key="59" pos="7680" len="192"/>
          <note vol="78" pan="0" key="69" pos="7872" len="192"/>
          <note vol="78" pan="0" key="61" pos="7872" len="192"/>
          <note vol="78" pan="0" key="71" pos="8064" len="192"/>
          <note vol="78" pan="0" key="64" pos="8064" len="192"/>
          <note vol="78" pan="0" key="76" pos="8256" len="192"/>
          <note vol="78" pan="0" key="68" pos="8256" len="192"/>
          <note vol="78" pan="0" key="73" pos="8448" len="384"/>
          <note vol="78" pan="0" key="66" pos="8448" len="384"/>
          <note vol="78" pan="0" key="73" pos="8832" len="384"/>
          <note vol="78" pan="0" key="64" pos="8832" len="384"/>
          <note vol="78" pan="0" key="68" pos="9216" len="384"/>
          <note vol="78" pan="0" key="61" pos="9216" len="384"/>
          <note vol="78" pan="0" key="49" pos="9216" len="48"/>
          <note vol="78" pan="0" key="45" pos="9264" len="48"/>
          <note vol="78" pan="0" key="47" pos="9312" len="48"/>
          <note vol="78" pan="0" key="49" pos="9360" len="48"/>
          <note vol="78" pan="0" key="51" pos="9408" len="48"/>
          <note vol="78" pan="0" key="52" pos="9456" len="48"/>
          <note vol="78" pan="0" key="51" pos="9504" len="48"/>
          <note vol="78" pan="0" key="47" pos="9552" len="48"/>
          <note vol="78" pan="0" key="68" pos="9600" len="384"/>
          <note vol="78" pan="0" key="61" pos="9600" len="384"/>
          <note vol="78" pan="0" key="49" pos="9600" len="48"/>
          <note vol="78" pan="0" key="47" pos="9648" len="48"/>
          <note vol="78" pan="0" key="49" pos="9696" len="48"/>
          <note vol="78" pan="0" key="51" pos="9744" len="48"/>
          <note vol="78" pan="0" key="56" pos="9792" len="192"/>
          <note vol="78" pan="0" key="56" pos="9984" len="192"/>
          <note vol="78" pan="0" key="52" pos="9984" len="192"/>
          <note vol="78" pan="0" key="57" pos="10176" len="192"/>
          <note vol="78" pan="0" key="54" pos="10176" len="192"/>
          <note vol="78" pan="0" key="59" pos="10368" len="192"/>
          <note vol="78" pan="0" key="56" pos="10368" len="192"/>
          <note vol="78" pan="0" key="54" pos="10560" len="192"/>
          <note vol="78" pan="0" key="49" pos="10560" len="192"/>
          <note vol="78" pan="0" key="56" pos="10752" len="192"/>
          <note vol="78" pan="0" key="52" pos="10752" len="192"/>
          <note vol="78" pan="0" key="57" pos="10944" len="192"/>
          <note vol="78" pan="0" key="54" pos="10944" len="192"/>
          <note vol="78" pan="0" key="59" pos="11136" len="192"/>
          <note vol="78" pan="0" key="56" pos="11136" len="192"/>
          <note vol="78" pan="0" key="54" pos="11328" len="192"/>
          <note vol="78" pan="0" key="51" pos="11328" len="192"/>
          <note vol="78" pan="0" key="54" pos="11520" len="192"/>
          <note vol="78" pan="0" key="49" pos="11520" len="192"/>
          <note vol="78" pan="0" key="61" pos="11712" len="192"/>
          <note vol="78" pan="0" key="56" pos="11712" len="192"/>
          <note vol="78" pan="0" key="59" pos="11904" len="192"/>
          <note vol="78" pan="0" key="54" pos="11904" len="192"/>
          <note vol="78" pan="0" key="57" pos="12096" len="192"/>
          <note vol="78" pan="0" key="52" pos="12096" len="192"/>
          <note vol="78" pan="0" key="56" pos="12288" len="384"/>
          <note vol="78" pan="0" key="51" pos="12288" len="384"/>
          <note vol="78" pan="0" key="56" pos="12672" len="384"/>
          <note vol="78" pan="0" key="47" pos="12672" len="384"/>
          <note vol="78" pan="0" key="56" pos="13056" len="192"/>
          <note vol="78" pan="0" key="52" pos="13056" len="192"/>
          <note vol="78" pan="0" key="57" pos="13248" len="192"/>
          <note vol="78" pan="0" key="54" pos="13248" len="192"/>
          <note vol="78" pan="0" key="59" pos="13440" len="192"/>
          <note vol="78" pan="0" key="56" pos="13440" len="192"/>
          <note vol="78" pan="0" key="54" pos="13632" len="192"/>
          <note vol="78" pan="0" key="49" pos="13632" len="192"/>
          <note vol="78" pan="0" key="56" pos="13824" len="192"/>
          <note vol="78" pan="0" key="52" pos="13824" len="192"/>
          <note vol="78" pan="0" key="57" pos="14016" len="192"/>
          <note vol="78" pan="0" key="54" pos="14016" len="192"/>
          <note vol="78" pan="0" key="59" pos="14208" len="192"/>
          <note vol="78" pan="0" key="56" pos="14208" len="192"/>
          <note vol="78" pan="0" key="54" pos="14400" len="192"/>
          <note vol="78" pan="0" key="51" pos="14400" len="192"/>
          <note vol="78" pan="0" key="54" pos="14592" len="192"/>
          <note vol="78" pan="0" key="49" pos="14592" len="192"/>
          <note vol="78" pan="0" key="61" pos="14784" len="192"/>
          <note vol="78" pan="0" key="56" pos="14784" len="192"/>
          <note vol="78" pan="0" key="59" pos="14976" len="192"/>
          <note vol="78" pan="0" key="54" pos="14976" len="192"/>
          <note vol="78" pan="0" key="57" pos="15168" len="192"/>
          <note vol="78" pan="0" key="52" pos="15168" len="192"/>
          <note vol="78" pan="0" key="56" pos="15360" len="384"/>
          <note vol="78" pan="0" key="51" pos="15360" len="384"/>
          <note vol="78" pan="0" key="56" pos="15744" len="192"/>
          <note vol="78" pan="0" key="47" pos="15744" len="192"/>
          <note vol="78" pan="0" key="61" pos="16128" len="192"/>
          <note vol="78" pan="0" key="61" pos="16320" len="192"/>
          <note vol="78" pan="0" key="61" pos="16512" len="192"/>
          <note vol="78" pan="0" key="59" pos="16704" len="192"/>
          <note vol="78" pan="0" key="61" pos="16896" len="192"/>
          <note vol="78" pan="0" key="61" pos="17088" len="192"/>
          <note vol="78" pan="0" key="61" pos="17280" len="192"/>
          <note vol="78" pan="0" key="59" pos="17472" len="192"/>
        </pattern>
        <pattern type="1" name="" steps="16" muted="0" pos="42624">
          <note vol="78" pan="0" key="59" pos="0" len="384"/>
          <note vol="78" pan="0" key="54" pos="0" len="384"/>
          <note vol="78" pan="0" key="61" pos="384" len="384"/>
          <note vol="78" pan="0" key="56" pos="384" len="384"/>
          <note vol="78" pan="0" key="61" pos="768" len="384"/>
          <note vol="78" pan="0" key="57" pos="768" len="384"/>
          <note vol="78" pan="0" key="63" pos="1152" len="384"/>
          <note vol="78" pan="0" key="59" pos="1152" len="384"/>
          <note vol="78" pan="0" key="61" pos="1536" len="384"/>
          <note vol="78" pan="0" key="56" pos="1536" len="384"/>
          <note vol="78" pan="0" key="52" pos="1536" len="384"/>
          <note vol="78" pan="0" key="59" pos="1920" len="384"/>
          <note vol="78" pan="0" key="54" pos="1920" len="192"/>
          <note vol="78" pan="0" key="51" pos="1920" len="192"/>
          <note vol="78" pan="0" key="52" pos="2112" len="96"/>
          <note vol="78" pan="0" key="47" pos="2112" len="192"/>
          <note vol="78" pan="0" key="54" pos="2208" len="96"/>
          <note vol="78" pan="0" key="61" pos="2304" len="384"/>
          <note vol="78" pan="0" key="56" pos="2304" len="384"/>
          <note vol="78" pan="0" key="52" pos="2304" len="384"/>
          <note vol="78" pan="0" key="66" pos="2688" len="384"/>
          <note vol="78" pan="0" key="59" pos="2688" len="384"/>
          <note vol="78" pan="0" key="54" pos="2688" len="384"/>
          <note vol="78" pan="0" key="61" pos="3072" len="24"/>
          <note vol="78" pan="0" key="57" pos="3072" len="24"/>
          <note vol="78" pan="0" key="61" pos="3120" len="24"/>
          <note vol="78" pan="0" key="57" pos="3120" len="24"/>
          <note vol="78" pan="0" key="61" pos="3168" len="24"/>
          <note vol="78" pan="0" key="57" pos="3168" len="24"/>
          <note vol="78" pan="0" key="61" pos="3216" len="24"/>
          <note vol="78" pan="0" key="57" pos="3216" len="24"/>
          <note vol="78" pan="0" key="61" pos="3264" len="24"/>
          <note vol="78" pan="0" key="57" pos="3264" len="24"/>
          <note vol="78" pan="0" key="61" pos="3312" len="24"/>
          <note vol="78" pan="0" key="57" pos="3312" len="24"/>
          <note vol="78" pan="0" key="61" pos="3360" len="24"/>
          <note vol="78" pan="0" key="57" pos="3360" len="24"/>
          <note vol="78" pan="0" key="61" pos="3408" len="24"/>
          <note vol="78" pan="0" key="57" pos="3408" len="24"/>
          <note vol="78" pan="0" key="61" pos="3456" len="24"/>
          <note vol="78" pan="0" key="56" pos="3456" len="24"/>
          <note vol="78" pan="0" key="52" pos="3456" len="24"/>
          <note vol="78" pan="0" key="61" pos="3504" len="24"/>
          <note vol="78" pan="0" key="56" pos="3504" len="24"/>
          <note vol="78" pan="0" key="52" pos="3504" len="24"/>
          <note vol="78" pan="0" key="61" pos="3552" len="24"/>
          <note vol="78" pan="0" key="56" pos="3552" len="24"/>
          <note vol="78" pan="0" key="52" pos="3552" len="24"/>
          <note vol="78" pan="0" key="61" pos="3600" len="24"/>
          <note vol="78" pan="0" key="56" pos="3600" len="24"/>
          <note vol="78" pan="0" key="52" pos="3600" len="24"/>
          <note vol="78" pan="0" key="61" pos="3648" len="24"/>
          <note vol="78" pan="0" key="56" pos="3648" len="24"/>
          <note vol="78" pan="0" key="51" pos="3648" len="24"/>
          <note vol="78" pan="0" key="61" pos="3696" len="24"/>
          <note vol="78" pan="0" key="56" pos="3696" len="24"/>
          <note vol="78" pan="0" key="51" pos="3696" len="24"/>
          <note vol="78" pan="0" key="61" pos="3744" len="24"/>
          <note vol="78" pan="0" key="56" pos="3744" len="24"/>
          <note vol="78" pan="0" key="51" pos="3744" len="24"/>
          <note vol="78" pan="0" key="61" pos="3792" len="24"/>
          <note vol="78" pan="0" key="56" pos="3792" len="24"/>
          <note vol="78" pan="0" key="51" pos="3792" len="24"/>
        </pattern>
        <pattern type="1" name="" steps="16" muted="0" pos="50304">
          <note vol="78" pan="0" key="59" pos="0" len="384"/>
          <note vol="78" pan="0" key="54" pos="0" len="384"/>
          <note vol="78" pan="0" key="61" pos="384" len="384"/>
          <note vol="78" pan="0" key="56" pos="384" len="384"/>
          <note vol="78" pan="0" key="61" pos="768" len="384"/>
          <note vol="78" pan="0" key="57" pos="768" len="384"/>
          <note vol="78" pan="0" key="63" pos="1152" len="384"/>
          <note vol="78" pan="0" key="59" pos="1152" len="384"/>
          <note vol="78" pan="0" key="59" pos="1536" len="384"/>
          <note vol="78" pan="0" key="54" pos="1536" len="384"/>
          <note vol="78" pan="0" key="61" pos="1920" len="384"/>
          <note vol="78" pan="0" key="56" pos="1920" len="384"/>
          <note vol="78" pan="0" key="61" pos="2304" len="384"/>
          <note vol="78" pan="0" key="57" pos="2304" len="384"/>
          <note vol="78" pan="0" key="63" pos="2688" len="384"/>
          <note vol="78" pan="0" key="59" pos="2688" len="384"/>
          <note vol="78" pan="0" key="56" pos="3072" len="192"/>
          <note vol="78" pan="0" key="52" pos="3072" len="192"/>
          <note vol="78" pan="0" key="54" pos="3264" len="192"/>
          <note vol="78" pan="0" key="51" pos="3264" len="192"/>
          <note vol="78" pan="0" key="56" pos="3456" len="384"/>
          <note vol="78" pan="0" key="52" pos="3456" len="384"/>
          <note vol="78" pan="0" key="49" pos="3456" len="384"/>
          <note vol="78" pan="0" key="56" pos="3840" len="192"/>
          <note vol="78" pan="0" key="49" pos="3840" len="192"/>
          <note vol="78" pan="0" key="47" pos="3840" len="192"/>
          <note vol="78" pan="0" key="54" pos="4032" len="192"/>
          <note vol="78" pan="0" key="51" pos="4032" len="192"/>
          <note vol="78" pan="0" key="47" pos="4032" len="192"/>
          <note vol="78" pan="0" key="49" pos="4224" len="384"/>
          <note vol="78" pan="0" key="47" pos="4224" len="192"/>
          <note vol="78" pan="0" key="44" pos="4224" len="384"/>
          <note vol="78" pan="0" key="56" pos="4608" len="192"/>
          <note vol="78" pan="0" key="47" pos="4608" len="192"/>
          <note vol="78" pan="0" key="57" pos="4800" len="192"/>
          <note vol="78" pan="0" key="49" pos="4800" len="192"/>
          <note vol="78" pan="0" key="59" pos="4992" len="192"/>
          <note vol="78" pan="0" key="52" pos="4992" len="192"/>
          <note vol="78" pan="0" key="64" pos="5184" len="192"/>
          <note vol="78" pan="0" key="56" pos="5184" len="192"/>
          <note vol="78" pan="0" key="61" pos="5376" len="384"/>
          <note vol="78" pan="0" key="54" pos="5376" len="384"/>
          <note vol="78" pan="0" key="61" pos="5760" len="384"/>
          <note vol="78" pan="0" key="52" pos="5760" len="384"/>
          <note vol="78" pan="0" key="68" pos="6144" len="192"/>
          <note vol="78" pan="0" key="64" pos="6144" len="192"/>
          <note vol="78" pan="0" key="66" pos="6336" len="192"/>
          <note vol="78" pan="0" key="63" pos="6336" len="192"/>
          <note vol="78" pan="0" key="68" pos="6528" len="384"/>
          <note vol="78" pan="0" key="64" pos="6528" len="384"/>
          <note vol="78" pan="0" key="61" pos="6528" len="384"/>
          <note vol="78" pan="0" key="68" pos="6912" len="192"/>
          <note vol="78" pan="0" key="61" pos="6912" len="192"/>
          <note vol="78" pan="0" key="59" pos="6912" len="192"/>
          <note vol="78" pan="0" key="66" pos="7104" len="192"/>
          <note vol="78" pan="0" key="63" pos="7104" len="192"/>
          <note vol="78" pan="0" key="59" pos="7104" len="192"/>
          <note vol="78" pan="0" key="61" pos="7296" len="384"/>
          <note vol="78" pan="0" key="58" pos="7296" len="384"/>
          <note vol="78" pan="0" key="56" pos="7296" len="384"/>
          <note vol="78" pan="0" key="68" pos="7680" len="192"/>
          <note vol="78" pan="0" key="59" pos="7680" len="192"/>
          <note vol="78" pan="0" key="69" pos="7872" len="192"/>
          <note vol="78" pan="0" key="61" pos="7872" len="192"/>
          <note vol="78" pan="0" key="71" pos="8064" len="192"/>
          <note vol="78" pan="0" key="64" pos="8064" len="192"/>
          <note vol="78" pan="0" key="76" pos="8256" len="192"/>
          <note vol="78" pan="0" key="68" pos="8256" len="192"/>
          <note vol="78" pan="0" key="73" pos="8448" len="384"/>
          <note vol="78" pan="0" key="66" pos="8448" len="384"/>
          <note vol="78" pan="0" key="73" pos="8832" len="384"/>
          <note vol="78" pan="0" key="64" pos="8832" len="384"/>
          <note vol="78" pan="0" key="68" pos="9216" len="384"/>
          <note vol="78" pan="0" key="61" pos="9216" len="384"/>
          <note vol="78" pan="0" key="49" pos="9216" len="48"/>
          <note vol="78" pan="0" key="45" pos="9264" len="48"/>
          <note vol="78" pan="0" key="47" pos="9312" len="48"/>
          <note vol="78" pan="0" key="49" pos="9360" len="48"/>
          <note vol="78" pan="0" key="51" pos="9408" len="48"/>
          <note vol="78" pan="0" key="52" pos="9456" len="48"/>
          <note vol="78" pan="0" key="51" pos="9504" len="48"/>
          <note vol="78" pan="0" key="47" pos="9552" len="48"/>
          <note vol="78" pan="0" key="68" pos="9600" len="384"/>
          <note vol="78" pan="0" key="61" pos="9600" len="384"/>
          <note vol="78" pan="0" key="49" pos="9600" len="48"/>
          <note vol="78" pan="0" key="47" pos="9648" len="48"/>
          <note vol="78" pan="0" key="49" pos="9696" len="48"/>
          <note vol="78" pan="0" key="51" pos="9744" len="48"/>
          <note vol="78" pan="0" key="56" pos="9792" len="192"/>
          <note vol="78" pan="0" key="56" pos="9984" len="192"/>
          <note vol="78" pan="0" key="52" pos="9984" len="192"/>
          <note vol="78" pan="0" key="57" pos="10176" len="192"/>
          <note vol="78" pan="0" key="54" pos="10176" len="192"/>
          <note vol="78" pan="0" key="59" pos="10368" len="192"/>
          <note vol="78" pan="0" key="56" pos="10368" len="192"/>
          <note vol="78" pan="0" key="54" pos="10560" len="192"/>
          <note vol="78" pan="0" key="49" pos="10560" len="192"/>
          <note vol="78" pan="0" key="56" pos="10752" len="192"/>
          <note vol="78" pan="0" key="52" pos="10752" len="192"/>
          <note vol="78" pan="0" key="57" pos="10944" len="192"/>
          <note vol="78" pan="0" key="54" pos="10944" len="192"/>
          <note vol="78" pan="0" key="59" pos="11136" len="192"/>
          <note vol="78" pan="0" key="56" pos="11136" len="192"/>
          <note vol="78" pan="0" key="54" pos="11328" len="192"/>
          <note vol="78" pan="0" key="51" pos="11328" len="192"/>
          <note vol="78" pan="0" key="54" pos="11520" len="192"/>
          <note vol="78" pan="0" key="49" pos="11520" len="192"/>
          <note vol="78" pan="0" key="61" pos="11712" len="192"/>
          <note vol="78" pan="0" key="56" pos="11712" len="192"/>
          <note vol="78" pan="0" key="59" pos="11904" len="192"/>
          <note vol="78" pan="0" key="54" pos="11904" len="192"/>
          <note vol="78" pan="0" key="57" pos="12096" len="192"/>
          <note vol="78" pan="0" key="52" pos="12096" len="192"/>
          <note vol="78" pan="0" key="56" pos="12288" len="384"/>
          <note vol="78" pan="0" key="51" pos="12288" len="384"/>
          <note vol="78" pan="0" key="56" pos="12672" len="384"/>
          <note vol="78" pan="0" key="47" pos="12672" len="384"/>
          <note vol="78" pan="0" key="56" pos="13056" len="192"/>
          <note vol="78" pan="0" key="52" pos="13056" len="192"/>
          <note vol="78" pan="0" key="57" pos="13248" len="192"/>
          <note vol="78" pan="0" key="54" pos="13248" len="192"/>
          <note vol="78" pan="0" key="59" pos="13440" len="192"/>
          <note vol="78" pan="0" key="56" pos="13440" len="192"/>
          <note vol="78" pan="0" key="54" pos="13632" len="192"/>
          <note vol="78" pan="0" key="49" pos="13632" len="192"/>
          <note vol="78" pan="0" key="56" pos="13824" len="192"/>
          <note vol="78" pan="0" key="52" pos="13824" len="192"/>
          <note vol="78" pan="0" key="57" pos="14016" len="192"/>
          <note vol="78" pan="0" key="54" pos="14016" len="192"/>
          <note vol="78" pan="0" key="59" pos="14208" len="192"/>
          <note vol="78" pan="0" key="56" pos="14208" len="192"/>
          <note vol="78" pan="0" key="54" pos="14400" len="192"/>
          <note vol="78" pan="0" key="51" pos="14400" len="192"/>
          <note vol="78" pan="0" key="54" pos="14592" len="192"/>
          <note vol="78" pan="0" key="49" pos="14592" len="192"/>
          <note vol="78" pan="0" key="61" pos="14784" len="192"/>
          <note vol="78" pan="0" key="56" pos="14784" len="192"/>
          <note vol="78" pan="0" key="59" pos="14976" len="192"/>
          <note vol="78" pan="0" key="54" pos="14976" len="192"/>
          <note vol="78" pan="0" key="57" pos="15168" len="192"/>
          <note vol="78" pan="0" key="52" pos="15168" len="192"/>
          <note vol="78" pan="0" key="56" pos="15360" len="384"/>
          <note vol="78" pan="0" key="51" pos="15360" len="384"/>
          <note vol="78" pan="0" key="56" pos="15744" len="192"/>
          <note vol="78" pan="0" key="47" pos="15744" len="192"/>
          <note vol="78" pan="0" key="61" pos="16128" len="192"/>
          <note vol="78" pan="0" key="61" pos="16320" len="192"/>
          <note vol="78" pan="0" key="61" pos="16512" len="192"/>
          <note vol="78" pan="0" key="59" pos="16704" len="192"/>
          <note vol="78" pan="0" key="61" pos="16896" len="192"/>
          <note vol="78" pan="0" key="61" pos="17088" len="192"/>
          <note vol="78" pan="0" key="61" pos="17280" len="192"/>
          <note vol="78" pan="0" key="59" pos="17472" len="192"/>
          <note vol="78" pan="0" key="73" pos="17664" len="384"/>
          <note vol="78" pan="0" key="61" pos="17664" len="384"/>
          <note vol="78" pan="0" key="73" pos="18048" len="384"/>
          <note vol="78" pan="0" key="61" pos="18048" len="384"/>
          <note vol="78" pan="0" key="73" pos="18432" len="48"/>
          <note vol="78" pan="0" key="61" pos="18432" len="48"/>
        </pattern>
        <pattern type="1" name="" steps="16" muted="0" pos="7296">
          <note vol="87" pan="0" key="69" pos="0" len="24"/>
          <note vol="87" pan="0" key="66" pos="24" len="24"/>
          <note vol="87" pan="0" key="69" pos="48" len="24"/>
          <note vol="87" pan="0" key="73" pos="72" len="24"/>
          <note vol="87" pan="0" key="76" pos="96" len="48"/>
          <note vol="87" pan="0" key="75" pos="144" len="24"/>
          <note vol="87" pan="0" key="73" pos="168" len="24"/>
          <note vol="87" pan="0" key="80" pos="192" len="24"/>
          <note vol="87" pan="0" key="78" pos="216" len="24"/>
          <note vol="87" pan="0" key="76" pos="240" len="24"/>
          <note vol="87" pan="0" key="75" pos="264" len="24"/>
          <note vol="87" pan="0" key="73" pos="288" len="24"/>
          <note vol="87" pan="0" key="75" pos="312" len="24"/>
          <note vol="87" pan="0" key="76" pos="336" len="24"/>
          <note vol="87" pan="0" key="80" pos="360" len="24"/>
          <note vol="87" pan="0" key="82" pos="384" len="48"/>
          <note vol="87" pan="0" key="78" pos="432" len="48"/>
          <note vol="87" pan="0" key="75" pos="480" len="48"/>
          <note vol="87" pan="0" key="70" pos="528" len="48"/>
          <note vol="87" pan="0" key="68" pos="576" len="24"/>
          <note vol="87" pan="0" key="72" pos="600" len="24"/>
          <note vol="87" pan="0" key="75" pos="624" len="24"/>
          <note vol="87" pan="0" key="78" pos="648" len="24"/>
          <note vol="87" pan="0" key="81" pos="672" len="24"/>
          <note vol="87" pan="0" key="84" pos="696" len="24"/>
          <note vol="87" pan="0" key="87" pos="720" len="24"/>
          <note vol="87" pan="0" key="90" pos="744" len="24"/>
        </pattern>
      </track>
      <track type="0" name="Mystery Dungeon" solo="0" muted="1" mutedBeforeSolo="0">
        <instrumenttrack usemasterpitch="1" pitchrange="2" pitch="0" vol="100" basenote="57" pan="0" fxch="0">
          <instrument name="sf2player">
            <sf2player reverbRoomSize="0.2" reverbWidth="0.5" reverbDamping="0" chorusNum="3" patch="14" chorusLevel="2" src="/home/pass/samples/soundfonts/Mystery Dungeon.sf2" reverbOn="0" chorusOn="0" gain="1" chorusDepth="8" chorusSpeed="0.3" bank="0" reverbLevel="0.9">
              <key/>
            </sf2player>
          </instrument>
          <eldata fwet="0" fres="0.5" ftype="0" fcut="14000">
            <elvol x100="0" lspd_numerator="4" amt="0" lspd="0.1" lpdel="0" dec="0.5" lspd_syncmode="0" att="0" ctlenvamt="0" pdel="0" latt="0" sustain="0.5" lspd_denominator="4" hold="0.5" lamt="0" userwavefile="" lshp="0" rel="0.1"/>
            <elcut x100="0" lspd_numerator="4" amt="0" lspd="0.1" lpdel="0" dec="0.5" lspd_syncmode="0" att="0" ctlenvamt="0" pdel="0" latt="0" sustain="0.5" lspd_denominator="4" hold="0.5" lamt="0" userwavefile="" lshp="0" rel="0.1"/>
            <elres x100="0" lspd_numerator="4" amt="0" lspd="0.1" lpdel="0" dec="0.5" lspd_syncmode="0" att="0" ctlenvamt="0" pdel="0" latt="0" sustain="0.5" lspd_denominator="4" hold="0.5" lamt="0" userwavefile="" lshp="0" rel="0.1"/>
          </eldata>
          <chordcreator chordrange="1" chord="0" chord-enabled="0"/>
          <arpeggiator arprange="1" arptime_syncmode="0" arpskip="0" arpmiss="0" arptime="200" arpdir="0" arpmode="0" arptime_denominator="4" arp-enabled="0" arp="0" arpgate="100" arpcycle="0" arptime_numerator="4"/>
          <midiport inputcontroller="0" outputcontroller="0" outputprogram="1" basevelocity="63" outputchannel="1" writable="0" inputchannel="0" readable="0" fixedinputvelocity="-1" fixedoutputvelocity="-1" fixedoutputnote="-1"/>
          <fxchain numofeffects="0" enabled="0"/>
        </instrumenttrack>
        <pattern type="1" name="Sf2 Player" steps="16" muted="0" pos="24960">
          <note vol="78" pan="0" key="73" pos="0" len="24"/>
          <note vol="78" pan="0" key="69" pos="24" len="24"/>
          <note vol="78" pan="0" key="64" pos="48" len="24"/>
          <note vol="78" pan="0" key="61" pos="72" len="24"/>
          <note vol="78" pan="0" key="69" pos="96" len="24"/>
          <note vol="78" pan="0" key="64" pos="120" len="24"/>
          <note vol="78" pan="0" key="61" pos="144" len="24"/>
          <note vol="78" pan="0" key="57" pos="168" len="24"/>
          <note vol="78" pan="0" key="71" pos="192" len="24"/>
          <note vol="78" pan="0" key="68" pos="216" len="24"/>
          <note vol="78" pan="0" key="63" pos="240" len="24"/>
          <note vol="78" pan="0" key="59" pos="264" len="24"/>
          <note vol="78" pan="0" key="71" pos="288" len="24"/>
          <note vol="78" pan="0" key="68" pos="312" len="24"/>
          <note vol="78" pan="0" key="63" pos="336" len="24"/>
          <note vol="78" pan="0" key="59" pos="360" len="24"/>
          <note vol="78" pan="0" key="73" pos="384" len="24"/>
          <note vol="78" pan="0" key="68" pos="408" len="24"/>
          <note vol="78" pan="0" key="64" pos="432" len="24"/>
          <note vol="78" pan="0" key="61" pos="456" len="24"/>
          <note vol="78" pan="0" key="68" pos="480" len="24"/>
          <note vol="78" pan="0" key="64" pos="504" len="24"/>
          <note vol="78" pan="0" key="61" pos="528" len="24"/>
          <note vol="78" pan="0" key="56" pos="552" len="24"/>
          <note vol="78" pan="0" key="73" pos="576" len="24"/>
          <note vol="78" pan="0" key="68" pos="600" len="24"/>
          <note vol="78" pan="0" key="64" pos="624" len="24"/>
          <note vol="78" pan="0" key="61" pos="648" len="24"/>
          <note vol="78" pan="0" key="68" pos="672" len="24"/>
          <note vol="78" pan="0" key="64" pos="696" len="24"/>
          <note vol="78" pan="0" key="61" pos="720" len="24"/>
          <note vol="78" pan="0" key="56" pos="744" len="24"/>
          <note vol="78" pan="0" key="73" pos="768" len="24"/>
          <note vol="78" pan="0" key="68" pos="792" len="24"/>
          <note vol="78" pan="0" key="66" pos="816" len="24"/>
          <note vol="78" pan="0" key="61" pos="840" len="24"/>
          <note vol="78" pan="0" key="68" pos="864" len="24"/>
          <note vol="78" pan="0" key="66" pos="888" len="24"/>
          <note vol="78" pan="0" key="61" pos="912" len="24"/>
          <note vol="78" pan="0" key="59" pos="936" len="24"/>
          <note vol="78" pan="0" key="73" pos="960" len="24"/>
          <note vol="78" pan="0" key="68" pos="984" len="24"/>
          <note vol="78" pan="0" key="66" pos="1008" len="24"/>
          <note vol="78" pan="0" key="61" pos="1032" len="24"/>
          <note vol="78" pan="0" key="68" pos="1056" len="24"/>
          <note vol="78" pan="0" key="66" pos="1080" len="24"/>
          <note vol="78" pan="0" key="61" pos="1104" len="24"/>
          <note vol="78" pan="0" key="57" pos="1128" len="24"/>
          <note vol="78" pan="0" key="73" pos="1152" len="24"/>
          <note vol="78" pan="0" key="70" pos="1176" len="24"/>
          <note vol="78" pan="0" key="66" pos="1200" len="24"/>
          <note vol="78" pan="0" key="61" pos="1224" len="24"/>
          <note vol="78" pan="0" key="70" pos="1248" len="24"/>
          <note vol="78" pan="0" key="66" pos="1272" len="24"/>
          <note vol="78" pan="0" key="61" pos="1296" len="24"/>
          <note vol="78" pan="0" key="58" pos="1320" len="24"/>
          <note vol="78" pan="0" key="73" pos="1344" len="24"/>
          <note vol="78" pan="0" key="70" pos="1368" len="24"/>
          <note vol="78" pan="0" key="66" pos="1392" len="24"/>
          <note vol="78" pan="0" key="61" pos="1416" len="24"/>
          <note vol="78" pan="0" key="70" pos="1440" len="24"/>
          <note vol="78" pan="0" key="66" pos="1464" len="24"/>
          <note vol="78" pan="0" key="61" pos="1488" len="24"/>
          <note vol="78" pan="0" key="58" pos="1512" len="24"/>
          <note vol="78" pan="0" key="73" pos="1536" len="24"/>
          <note vol="78" pan="0" key="69" pos="1560" len="24"/>
          <note vol="78" pan="0" key="66" pos="1584" len="24"/>
          <note vol="78" pan="0" key="61" pos="1608" len="24"/>
          <note vol="78" pan="0" key="69" pos="1632" len="24"/>
          <note vol="78" pan="0" key="66" pos="1656" len="24"/>
          <note vol="78" pan="0" key="61" pos="1680" len="24"/>
          <note vol="78" pan="0" key="57" pos="1704" len="24"/>
          <note vol="78" pan="0" key="73" pos="1728" len="24"/>
          <note vol="78" pan="0" key="69" pos="1752" len="24"/>
          <note vol="78" pan="0" key="66" pos="1776" len="24"/>
          <note vol="78" pan="0" key="61" pos="1800" len="24"/>
          <note vol="78" pan="0" key="69" pos="1824" len="24"/>
          <note vol="78" pan="0" key="66" pos="1848" len="24"/>
          <note vol="78" pan="0" key="61" pos="1872" len="24"/>
          <note vol="78" pan="0" key="57" pos="1896" len="24"/>
          <note vol="78" pan="0" key="73" pos="1920" len="24"/>
          <note vol="78" pan="0" key="69" pos="1944" len="24"/>
          <note vol="78" pan="0" key="66" pos="1968" len="24"/>
          <note vol="78" pan="0" key="61" pos="1992" len="24"/>
          <note vol="78" pan="0" key="69" pos="2016" len="24"/>
          <note vol="78" pan="0" key="66" pos="2040" len="24"/>
          <note vol="78" pan="0" key="61" pos="2064" len="24"/>
          <note vol="78" pan="0" key="57" pos="2088" len="24"/>
          <note vol="78" pan="0" key="69" pos="2112" len="24"/>
          <note vol="78" pan="0" key="73" pos="2136" len="24"/>
          <note vol="78" pan="0" key="76" pos="2160" len="24"/>
          <note vol="78" pan="0" key="73" pos="2184" len="24"/>
          <note vol="78" pan="0" key="78" pos="2208" len="24"/>
          <note vol="78" pan="0" key="73" pos="2232" len="24"/>
          <note vol="78" pan="0" key="78" pos="2256" len="24"/>
          <note vol="78" pan="0" key="73" pos="2280" len="24"/>
          <note vol="78" pan="0" key="78" pos="2304" len="24"/>
          <note vol="78" pan="0" key="71" pos="2328" len="24"/>
          <note vol="78" pan="0" key="78" pos="2352" len="24"/>
          <note vol="78" pan="0" key="71" pos="2376" len="24"/>
          <note vol="78" pan="0" key="78" pos="2400" len="24"/>
          <note vol="78" pan="0" key="71" pos="2424" len="24"/>
          <note vol="78" pan="0" key="78" pos="2448" len="24"/>
          <note vol="78" pan="0" key="71" pos="2472" len="24"/>
          <note vol="78" pan="0" key="73" pos="2496" len="24"/>
          <note vol="78" pan="0" key="69" pos="2520" len="24"/>
          <note vol="78" pan="0" key="66" pos="2544" len="24"/>
          <note vol="78" pan="0" key="61" pos="2568" len="24"/>
          <note vol="78" pan="0" key="69" pos="2592" len="24"/>
          <note vol="78" pan="0" key="66" pos="2616" len="24"/>
          <note vol="78" pan="0" key="61" pos="2640" len="24"/>
          <note vol="78" pan="0" key="57" pos="2664" len="24"/>
          <note vol="78" pan="0" key="73" pos="2688" len="24"/>
          <note vol="78" pan="0" key="69" pos="2712" len="24"/>
          <note vol="78" pan="0" key="66" pos="2736" len="24"/>
          <note vol="78" pan="0" key="61" pos="2760" len="24"/>
          <note vol="78" pan="0" key="69" pos="2784" len="24"/>
          <note vol="78" pan="0" key="66" pos="2808" len="24"/>
          <note vol="78" pan="0" key="61" pos="2832" len="24"/>
          <note vol="78" pan="0" key="57" pos="2856" len="24"/>
          <note vol="78" pan="0" key="73" pos="2880" len="24"/>
          <note vol="78" pan="0" key="69" pos="2904" len="24"/>
          <note vol="78" pan="0" key="66" pos="2928" len="24"/>
          <note vol="78" pan="0" key="61" pos="2952" len="24"/>
          <note vol="78" pan="0" key="69" pos="2976" len="24"/>
          <note vol="78" pan="0" key="66" pos="3000" len="24"/>
          <note vol="78" pan="0" key="61" pos="3024" len="24"/>
          <note vol="78" pan="0" key="57" pos="3048" len="24"/>
        </pattern>
        <pattern type="1" name="Sf2 Player" steps="16" muted="0" pos="56448">
          <note vol="78" pan="0" key="73" pos="0" len="24"/>
          <note vol="78" pan="0" key="69" pos="24" len="24"/>
          <note vol="78" pan="0" key="64" pos="48" len="24"/>
          <note vol="78" pan="0" key="61" pos="72" len="24"/>
          <note vol="78" pan="0" key="69" pos="96" len="24"/>
          <note vol="78" pan="0" key="64" pos="120" len="24"/>
          <note vol="78" pan="0" key="61" pos="144" len="24"/>
          <note vol="78" pan="0" key="57" pos="168" len="24"/>
          <note vol="78" pan="0" key="71" pos="192" len="24"/>
          <note vol="78" pan="0" key="68" pos="216" len="24"/>
          <note vol="78" pan="0" key="63" pos="240" len="24"/>
          <note vol="78" pan="0" key="59" pos="264" len="24"/>
          <note vol="78" pan="0" key="71" pos="288" len="24"/>
          <note vol="78" pan="0" key="68" pos="312" len="24"/>
          <note vol="78" pan="0" key="63" pos="336" len="24"/>
          <note vol="78" pan="0" key="59" pos="360" len="24"/>
          <note vol="78" pan="0" key="73" pos="384" len="24"/>
          <note vol="78" pan="0" key="68" pos="408" len="24"/>
          <note vol="78" pan="0" key="64" pos="432" len="24"/>
          <note vol="78" pan="0" key="61" pos="456" len="24"/>
          <note vol="78" pan="0" key="68" pos="480" len="24"/>
          <note vol="78" pan="0" key="64" pos="504" len="24"/>
          <note vol="78" pan="0" key="61" pos="528" len="24"/>
          <note vol="78" pan="0" key="56" pos="552" len="24"/>
          <note vol="78" pan="0" key="73" pos="576" len="24"/>
          <note vol="78" pan="0" key="68" pos="600" len="24"/>
          <note vol="78" pan="0" key="64" pos="624" len="24"/>
          <note vol="78" pan="0" key="61" pos="648" len="24"/>
          <note vol="78" pan="0" key="68" pos="672" len="24"/>
          <note vol="78" pan="0" key="64" pos="696" len="24"/>
          <note vol="78" pan="0" key="61" pos="720" len="24"/>
          <note vol="78" pan="0" key="56" pos="744" len="24"/>
          <note vol="78" pan="0" key="73" pos="768" len="24"/>
          <note vol="78" pan="0" key="68" pos="792" len="24"/>
          <note vol="78" pan="0" key="66" pos="816" len="24"/>
          <note vol="78" pan="0" key="61" pos="840" len="24"/>
          <note vol="78" pan="0" key="68" pos="864" len="24"/>
          <note vol="78" pan="0" key="66" pos="888" len="24"/>
          <note vol="78" pan="0" key="61" pos="912" len="24"/>
          <note vol="78" pan="0" key="59" pos="936" len="24"/>
          <note vol="78" pan="0" key="73" pos="960" len="24"/>
          <note vol="78" pan="0" key="68" pos="984" len="24"/>
          <note vol="78" pan="0" key="66" pos="1008" len="24"/>
          <note vol="78" pan="0" key="61" pos="1032" len="24"/>
          <note vol="78" pan="0" key="68" pos="1056" len="24"/>
          <note vol="78" pan="0" key="66" pos="1080" len="24"/>
          <note vol="78" pan="0" key="61" pos="1104" len="24"/>
          <note vol="78" pan="0" key="57" pos="1128" len="24"/>
          <note vol="78" pan="0" key="73" pos="1152" len="24"/>
          <note vol="78" pan="0" key="70" pos="1176" len="24"/>
          <note vol="78" pan="0" key="66" pos="1200" len="24"/>
          <note vol="78" pan="0" key="61" pos="1224" len="24"/>
          <note vol="78" pan="0" key="70" pos="1248" len="24"/>
          <note vol="78" pan="0" key="66" pos="1272" len="24"/>
          <note vol="78" pan="0" key="61" pos="1296" len="24"/>
          <note vol="78" pan="0" key="58" pos="1320" len="24"/>
          <note vol="78" pan="0" key="73" pos="1344" len="24"/>
          <note vol="78" pan="0" key="70" pos="1368" len="24"/>
          <note vol="78" pan="0" key="66" pos="1392" len="24"/>
          <note vol="78" pan="0" key="61" pos="1416" len="24"/>
          <note vol="78" pan="0" key="70" pos="1440" len="24"/>
          <note vol="78" pan="0" key="66" pos="1464" len="24"/>
          <note vol="78" pan="0" key="61" pos="1488" len="24"/>
          <note vol="78" pan="0" key="58" pos="1512" len="24"/>
          <note vol="78" pan="0" key="73" pos="1536" len="24"/>
          <note vol="78" pan="0" key="69" pos="1560" len="24"/>
          <note vol="78" pan="0" key="66" pos="1584" len="24"/>
          <note vol="78" pan="0" key="61" pos="1608" len="24"/>
          <note vol="78" pan="0" key="69" pos="1632" len="24"/>
          <note vol="78" pan="0" key="66" pos="1656" len="24"/>
          <note vol="78" pan="0" key="61" pos="1680" len="24"/>
          <note vol="78" pan="0" key="57" pos="1704" len="24"/>
          <note vol="78" pan="0" key="73" pos="1728" len="24"/>
          <note vol="78" pan="0" key="69" pos="1752" len="24"/>
          <note vol="78" pan="0" key="66" pos="1776" len="24"/>
          <note vol="78" pan="0" key="61" pos="1800" len="24"/>
          <note vol="78" pan="0" key="69" pos="1824" len="24"/>
          <note vol="78" pan="0" key="66" pos="1848" len="24"/>
          <note vol="78" pan="0" key="61" pos="1872" len="24"/>
          <note vol="78" pan="0" key="57" pos="1896" len="24"/>
          <note vol="78" pan="0" key="73" pos="1920" len="24"/>
          <note vol="78" pan="0" key="69" pos="1944" len="24"/>
          <note vol="78" pan="0" key="66" pos="1968" len="24"/>
          <note vol="78" pan="0" key="61" pos="1992" len="24"/>
          <note vol="78" pan="0" key="69" pos="2016" len="24"/>
          <note vol="78" pan="0" key="66" pos="2040" len="24"/>
          <note vol="78" pan="0" key="61" pos="2064" len="24"/>
          <note vol="78" pan="0" key="57" pos="2088" len="24"/>
          <note vol="78" pan="0" key="69" pos="2112" len="24"/>
          <note vol="78" pan="0" key="73" pos="2136" len="24"/>
          <note vol="78" pan="0" key="76" pos="2160" len="24"/>
          <note vol="78" pan="0" key="73" pos="2184" len="24"/>
          <note vol="78" pan="0" key="78" pos="2208" len="24"/>
          <note vol="78" pan="0" key="73" pos="2232" len="24"/>
          <note vol="78" pan="0" key="78" pos="2256" len="24"/>
          <note vol="78" pan="0" key="73" pos="2280" len="24"/>
          <note vol="78" pan="0" key="78" pos="2304" len="24"/>
          <note vol="78" pan="0" key="71" pos="2328" len="24"/>
          <note vol="78" pan="0" key="78" pos="2352" len="24"/>
          <note vol="78" pan="0" key="71" pos="2376" len="24"/>
          <note vol="78" pan="0" key="78" pos="2400" len="24"/>
          <note vol="78" pan="0" key="71" pos="2424" len="24"/>
          <note vol="78" pan="0" key="78" pos="2448" len="24"/>
          <note vol="78" pan="0" key="71" pos="2472" len="24"/>
          <note vol="78" pan="0" key="73" pos="2496" len="24"/>
          <note vol="78" pan="0" key="69" pos="2520" len="24"/>
          <note vol="78" pan="0" key="66" pos="2544" len="24"/>
          <note vol="78" pan="0" key="61" pos="2568" len="24"/>
          <note vol="78" pan="0" key="69" pos="2592" len="24"/>
          <note vol="78" pan="0" key="66" pos="2616" len="24"/>
          <note vol="78" pan="0" key="61" pos="2640" len="24"/>
          <note vol="78" pan="0" key="57" pos="2664" len="24"/>
          <note vol="78" pan="0" key="73" pos="2688" len="24"/>
          <note vol="78" pan="0" key="69" pos="2712" len="24"/>
          <note vol="78" pan="0" key="66" pos="2736" len="24"/>
          <note vol="78" pan="0" key="61" pos="2760" len="24"/>
          <note vol="78" pan="0" key="69" pos="2784" len="24"/>
          <note vol="78" pan="0" key="66" pos="2808" len="24"/>
          <note vol="78" pan="0" key="61" pos="2832" len="24"/>
          <note vol="78" pan="0" key="57" pos="2856" len="24"/>
          <note vol="78" pan="0" key="73" pos="2880" len="24"/>
          <note vol="78" pan="0" key="69" pos="2904" len="24"/>
          <note vol="78" pan="0" key="66" pos="2928" len="24"/>
          <note vol="78" pan="0" key="61" pos="2952" len="24"/>
          <note vol="78" pan="0" key="69" pos="2976" len="24"/>
          <note vol="78" pan="0" key="66" pos="3000" len="24"/>
          <note vol="78" pan="0" key="61" pos="3024" len="24"/>
          <note vol="78" pan="0" key="57" pos="3048" len="24"/>
        </pattern>
      </track>
      <track type="1" name="Beat/Bassline 10" solo="0" muted="0" mutedBeforeSolo="0">
        <bbtrack/>
        <bbtco name="" muted="0" pos="3456" len="768"/>
        <bbtco name="" muted="0" pos="34944" len="768"/>
      </track>
      <track type="1" name="Clone of Beat/Bassline 10" solo="0" muted="0" mutedBeforeSolo="0">
        <bbtrack/>
        <bbtco name="" muted="0" pos="62592" len="768"/>
      </track>
      <track type="1" name="Clone of Beat/Bassline 11" solo="0" muted="0" mutedBeforeSolo="0">
        <bbtrack/>
      </track>
      <track type="1" name="Beat/Bassline 15" solo="0" muted="0" mutedBeforeSolo="0">
        <bbtrack/>
        <bbtco name="" muted="0" pos="3072" len="384"/>
      </track>
      <track type="1" name="Beat/Bassline 16" solo="0" muted="0" mutedBeforeSolo="0">
        <bbtrack/>
        <bbtco name="" muted="0" pos="7872" len="192"/>
        <bbtco name="" muted="0" pos="39360" len="192"/>
      </track>
      <track type="1" name="Beat/Bassline 17" solo="0" muted="0" mutedBeforeSolo="0">
        <bbtrack/>
        <bbtco name="" muted="0" pos="13824" len="384"/>
      </track>
      <track type="1" name="Beat/Bassline 20" solo="0" muted="0" mutedBeforeSolo="0">
        <bbtrack/>
        <bbtco name="" muted="0" pos="24960" len="1536"/>
      </track>
      <track type="1" name="Clone of Beat/Bassline 20" solo="0" muted="0" mutedBeforeSolo="0">
        <bbtrack/>
        <bbtco name="" muted="0" pos="26496" len="768"/>
      </track>
      <track type="1" name="Clone of Clone of Beat/Bassline 20" solo="0" muted="0" mutedBeforeSolo="0">
        <bbtrack/>
        <bbtco name="" muted="0" pos="27264" len="768"/>
        <bbtco name="" muted="0" pos="28032" len="576"/>
      </track>
      <track type="1" name="Beat/Bassline 23" solo="0" muted="0" mutedBeforeSolo="0">
        <bbtrack/>
        <bbtco name="" muted="0" pos="28800" len="3072"/>
        <bbtco name="" muted="0" pos="56448" len="3072"/>
      </track>
      <track type="5" name="Automation track" solo="0" muted="0" mutedBeforeSolo="0">
        <automationtrack/>
        <automationpattern mute="0" name="AM pitchshifter>Effect enabled" prog="0" tens="1" pos="0" len="192">
          <time value="0" pos="0"/>
        </automationpattern>
        <automationpattern mute="0" name="AM pitchshifter>Effect enabled" prog="0" tens="1" pos="13248" len="192">
          <time value="1" pos="0"/>
        </automationpattern>
        <automationpattern mute="0" name="AM pitchshifter>Effect enabled" prog="0" tens="1" pos="13824" len="192">
          <time value="0" pos="0"/>
        </automationpattern>
      </track>
      <track type="0" name="its not over yet kid.wav" solo="0" muted="1" mutedBeforeSolo="0">
        <instrumenttrack usemasterpitch="1" pitchrange="1" pitch="0" vol="139.2" basenote="57" pan="0" fxch="0">
          <instrument name="audiofileprocessor">
            <audiofileprocessor amp="100" lframe="0" interp="1" reversed="0" src="/home/pass/samples/its not over yet kid.wav" sframe="0" eframe="1" stutter="0" looped="0">
              <key/>
            </audiofileprocessor>
          </instrument>
          <eldata fwet="0" fres="0.5" ftype="0" fcut="14000">
            <elvol x100="0" lspd_numerator="4" amt="0" lspd="0.1" lpdel="0" dec="0.5" lspd_syncmode="0" att="0" ctlenvamt="0" pdel="0" latt="0" sustain="0.5" lspd_denominator="4" hold="0.5" lamt="0" userwavefile="" lshp="0" rel="0.1"/>
            <elcut x100="0" lspd_numerator="4" amt="0" lspd="0.1" lpdel="0" dec="0.5" lspd_syncmode="0" att="0" ctlenvamt="0" pdel="0" latt="0" sustain="0.5" lspd_denominator="4" hold="0.5" lamt="0" userwavefile="" lshp="0" rel="0.1"/>
            <elres x100="0" lspd_numerator="4" amt="0" lspd="0.1" lpdel="0" dec="0.5" lspd_syncmode="0" att="0" ctlenvamt="0" pdel="0" latt="0" sustain="0.5" lspd_denominator="4" hold="0.5" lamt="0" userwavefile="" lshp="0" rel="0.1"/>
          </eldata>
          <chordcreator chordrange="1" chord="0" chord-enabled="0"/>
          <arpeggiator arprange="1" arptime_syncmode="0" arpskip="0" arpmiss="0" arptime="200" arpdir="0" arpmode="0" arptime_denominator="4" arp-enabled="0" arp="0" arpgate="100" arpcycle="0" arptime_numerator="4"/>
          <midiport inputcontroller="0" outputcontroller="0" outputprogram="1" basevelocity="63" outputchannel="1" writable="0" inputchannel="0" readable="0" fixedinputvelocity="-1" fixedoutputvelocity="-1" fixedoutputnote="-1"/>
          <fxchain numofeffects="0" enabled="0"/>
        </instrumenttrack>
        <pattern type="1" name="" steps="16" muted="0" pos="43584">
          <note vol="78" pan="0" key="57" pos="0" len="756"/>
        </pattern>
      </track>
      <track type="1" name="Beat/Bassline 25" solo="0" muted="0" mutedBeforeSolo="0">
        <bbtrack/>
        <bbtco name="" muted="0" pos="47040" len="192"/>
      </track>
      <track type="1" name="Beat/Bassline 26" solo="0" muted="0" mutedBeforeSolo="0">
        <bbtrack/>
        <bbtco name="" muted="0" pos="50304" len="2880"/>
      </track>
      <track type="1" name="Beat/Bassline 28" solo="0" muted="0" mutedBeforeSolo="0">
        <bbtrack/>
        <bbtco name="" muted="0" pos="53184" len="192"/>
      </track>
      <track type="1" name="Beat/Bassline 32" solo="0" muted="0" mutedBeforeSolo="0">
        <bbtrack/>
      </track>
      <track type="1" name="Beat/Bassline 33" solo="0" muted="0" mutedBeforeSolo="0">
        <bbtrack/>
      </track>
      <track type="2" name="lgtH1" solo="0" muted="0" mutedBeforeSolo="0">
        <sampletrack vol="100" pan="-84" fxch="21">
          <fxchain numofeffects="0" enabled="0"/>
        </sampletrack>
        <sampletco sample_rate="44100" src="/home/pass/Music/ardour projects/scourge of the universe/export/lgtH1.wav" muted="0" pos="0" len="86688" off="0"/>
      </track>
      <track type="1" name="Beat/Bassline 34" solo="0" muted="0" mutedBeforeSolo="0">
        <bbtrack/>
        <bbtco name="" muted="0" pos="63744" len="768"/>
      </track>
      <track type="2" name="rgt1" solo="0" muted="0" mutedBeforeSolo="0">
        <sampletrack vol="100" pan="-100" fxch="19">
          <fxchain numofeffects="0" enabled="0"/>
        </sampletrack>
        <sampletco sample_rate="44100" src="/home/pass/Music/ardour projects/scourge of the universe/export/rgt1.wav" muted="0" pos="0" len="86688" off="0"/>
      </track>
      <track type="2" name="rgt2" solo="0" muted="0" mutedBeforeSolo="0">
        <sampletrack vol="100" pan="100" fxch="19">
          <fxchain numofeffects="0" enabled="0"/>
        </sampletrack>
        <sampletco sample_rate="44100" src="/home/pass/Music/ardour projects/scourge of the universe/export/rgt2.wav" muted="0" pos="0" len="86688" off="0"/>
      </track>
      <track type="2" name="lgtS" solo="0" muted="0" mutedBeforeSolo="0">
        <sampletrack vol="100" pan="0" fxch="20">
          <fxchain numofeffects="0" enabled="0"/>
        </sampletrack>
        <sampletco sample_rate="44100" src="/home/pass/Music/ardour projects/scourge of the universe/export/lgtS.wav" muted="0" pos="0" len="86688" off="0"/>
      </track>
      <track type="5" name="Automation track" solo="0" muted="0" mutedBeforeSolo="0">
        <automationtrack/>
      </track>
      <track type="2" name="lgtH2" solo="0" muted="0" mutedBeforeSolo="0">
        <sampletrack vol="100" pan="100" fxch="21">
          <fxchain numofeffects="0" enabled="0"/>
        </sampletrack>
        <sampletco sample_rate="44100" src="/home/pass/Music/ardour projects/scourge of the universe/export/lgtH2.wav" muted="0" pos="0" len="86688" off="0"/>
      </track>
    </trackcontainer>
    <track type="6" name="Automation track" solo="0" muted="0" mutedBeforeSolo="0">
      <automationtrack/>
      <automationpattern mute="0" name="Numerator" prog="0" tens="1" pos="0" len="192"/>
      <automationpattern mute="0" name="Denominator" prog="0" tens="1" pos="0" len="192"/>
      <automationpattern mute="0" name="Tempo" prog="0" tens="1" pos="0" len="192"/>
      <automationpattern mute="0" name="Master volume" prog="0" tens="1" pos="0" len="192"/>
      <automationpattern mute="0" name="Master pitch" prog="0" tens="1" pos="0" len="192"/>
      <automationpattern mute="0" name="Numerator" prog="0" tens="1" pos="0" len="192">
        <time value="4" pos="0"/>
        <object id="545120"/>
      </automationpattern>
      <automationpattern mute="0" name="Denominator" prog="0" tens="1" pos="0" len="192">
        <time value="4" pos="0"/>
        <object id="114903"/>
      </automationpattern>
      <automationpattern mute="0" name="Tempo" prog="0" tens="1" pos="0" len="192">
        <time value="184.001" pos="0"/>
        <object id="2356958"/>
      </automationpattern>
    </track>
    <fxmixer width="1260" height="333" maximized="0" visible="0" y="133" minimized="0" x="42">
      <fxchannel volume="0.535" name="Master" muted="0" soloed="0" num="0">
        <fxchain numofeffects="2" enabled="1">
          <effect autoquit_syncmode="0" autoquit_denominator="4" gate="0" name="vsteffect" wet="1" on="0" autoquit_numerator="4" autoquit="1">
            <vsteffectcontrols guivisible="0" program="0" chunk="AACAP+tR2D4AAIA/16OwPgAAgD/rUdg+AACAP9ejsD4AAAA/AAAAPwAAgD8AAAA/AACAPwAAAD8AAIA/AACAPwAAgD9kZWZhdWx0AG1ldGVycz4AYQAAAEZSRUVIAUkAOAFJAAAAgD8AAAAAAAAAAAAAAAAAAIA/AAAAAAAAAAAAAAAAAAAAPwAAAD8AAIA/AAAAAAAAgD8AAAA/AACAPwAAgD8AAIA/cGlubmluZyBkb3duAHM+AGEAAABGUkVFSAFJADgBSQAAAIA/AAAAAM3MTD8AAAAAAACAPwAAAADNzEw/AAAAAAAAAAAAAIA/AACAPwAAgD8AAIA/AAAAPwAAgD8AAIA/AAAAAGJpZyBwaWN0dXJlAABzPgBhAAAARlJFRUgBSQA4AUkAAACAPwAAAADNzEw/AAAAAAAAgD8AAAAAzcxMPwAAAAAAAAA/AAAAPwAAgD8AAAAAAACAPwAAAD8AAIA/AACAPwAAAAB2b2NhbHMgZmFzdAAAcz4AYQAAAEZSRUVIAUkAOAFJAAAAgD8AAAAAAACAPwAAAAAAAIA/AAAAAAAAgD8AAAAAAAAAPwAAAD8AAIA/AAAAPwAAgD8AAAA/AACAPwAAgD8AAAAAdm9jYWxzIHNsb3cAAHM+AGEAAABGUkVFSAFJADgBSQAAAIA/AAAAAM3MzD4AAAAAAACAPwAAAADNzMw+AAAAAAAAgD8AAIA/AACAPwAAgD8AAIA/AAAAPwAAAAAAAIA/AACAP3N1bW1pbmcAbG93AABzPgBhAAAARlJFRUgBSQA4AUkAAACAPwAAAADNzEw/AAAAAAAAgD8AAAAAzcxMPwAAAAAAAIA/AAAAPwAAgD8AAIA/AACAPwAAAD8AAIA/AACAPwAAAABnbHVlaW5nAGxvdwAAcz4AYQAAAEZSRUVIAUkAOAFJAAAAgD8AAAAAzcxMPwAAAAAAAIA/AAAAAM3MTD8AAAAAAAAAAAAAgD8AAIA/AAAAPwAAgD8AAIA/AACAPwAAgD8AAAAAbGFyZ2VyIHRoYW4gbGlmZQAAAABGUkVFSAFJADgBSQAAAIA/AAAAAAAAAAAAAAAAAACAPwAAAAAAAAAAAAAAAAAAAD8AAAA/AAAAPwAAgD8AAIA/AAAAPwAAAAAAAIA/AAAAAHNjaG5pdHplbCBOWSBzdHlsZQAARlJFRUgBSQA4AUkAAACAPwAAAADNzEw/AAAAAAAAgD8AAAAAzcxMPwAAAAAAAAA/AAAAPwAAgD8AAAAAAACAPwAAAD8AAAAAAACAPwAAAABzY2huaXR6ZWwgV2llbgB5bGUAAEZSRUVIAUkAOAFJAAAAgD8AAAAAAAAAAAAAAAAAAIA/AAAAAAAAAAAAAAAAAAAAPwAAAD8AAAAAAAAAPwAAgD8AAAA/AAAAAAAAgD8AAAAAc2lnbmFsIHBhdGggb25seQBlAABGUkVFSAFJADgBSQAAAAAAAAAAAAAAAAAehSs+AAAAAAAAAAAAAAAAHoUrPgAAAD8AAAA/AACAPwAAAAAAAIA/AAAAPwAAAAAAAIA/AAAAAG5vbi1saW4gYW1wAG9ubHkAZQAARlJFRUgBSQA4AUkAAACAPwAAAAAAAIA/AAAAAAAAgD8AAAAAzcxMPwAAAAAAAAAAAAAAPwAAgD8AAAA/AACAPwAAgD8AAIA/AACAPwAAAABNL1MgMmJ1cwBtcABvbmx5AGUAAEZSRUVIAUkAOAFJAAAAgD8AAAAAzcxMPgAAAAAAAIA/AAAAAAAAAAAAAAAAAAAAAPYoLD8AAIA/uB49PwAAgD8AAIA/AAAAAAAAgD8AAAAATS9TIGRydW1zAHAAb25seQBlAABGUkVFSAFJADgBSQAAAIA/CtcjO83MzD4AAAAAAACAPwrXIzvNzMw+AAAAAAAAAD8AAAA/AACAPwAAAD8AAIA/AAAAPwAAgD8AAIA/AACAP0EAUyBkcnVtcwBwAG9ubHkAZQAARlJFRUgBSQA4AUkAAACAPwAAAADNzMw+AAAAAAAAgD8AAAAAzczMPgAAAAAAAAA/KVz/PgAAgD8AAAA/AACAPwAAAD8AAIA/AACAPwAAgD9CAFMgZHJ1bXMAcABvbmx5AGUAAEZSRUVIAUkAOAFJAA==" plugin="VST32/_EFFECTS/VoS_PlugIns_Complete/VoS_PlugIns_Complete/DensitymkIII_3.0/DensitymkIII.dll"/>
            <key>
              <attribute name="file" value="VST32/_EFFECTS/VoS_PlugIns_Complete/VoS_PlugIns_Complete/DensitymkIII_3.0/DensitymkIII.dll"/>
            </key>
          </effect>
          <effect autoquit_syncmode="0" autoquit_denominator="4" gate="0" name="ladspaeffect" wet="1" on="0" autoquit_numerator="4" autoquit="1">
            <ladspacontrols ports="8" link="1">
              <port00 link="1">
                <data value="0.001" scale_type="log" id="4483585"/>
              </port00>
              <port01 data="0.852" link="1"/>
              <port02 data_syncmode="0" data_denominator="4" data="28.75" data_numerator="4" link="1"/>
              <port03 data_syncmode="0" data_denominator="4" data="81.25" data_numerator="4" link="1"/>
              <port10>
                <data value="0.001" scale_type="log" id="3091659"/>
              </port10>
              <port11 data="0.852"/>
              <port12 data_syncmode="0" data_denominator="4" data="28.75" data_numerator="4"/>
              <port13 data_syncmode="0" data_denominator="4" data="81.25" data_numerator="4"/>
            </ladspacontrols>
            <key>
              <attribute name="file" value="cmt"/>
              <attribute name="plugin" value="compress_rms"/>
            </key>
          </effect>
        </fxchain>
      </fxchannel>
      <fxchannel volume="0.814" name="kick" muted="0" soloed="0" num="1">
        <fxchain numofeffects="1" enabled="1">
          <effect autoquit_syncmode="0" autoquit_denominator="4" gate="0" name="eq" wet="1" on="0" autoquit_numerator="4" autoquit="1">
            <Eq HighShelfgain="0" Peak1active="0" LowShelfres="1.4" Peak3bw="0.3" Highshelfactive="0" LP48="0" AnalyseIn="1" Peak2gain="0" Lowshelfgain="0" Peak3gain="0" HP48="0" Peak1bw="0.3" HP12="1" HP="0" HPactive="0" Outputgain="0" HighShelfres="1.4" Peak4bw="2.553" LP24="0" LPactive="0" HP24="0" AnalyseOut="1" Peak2active="0" Peak3active="0" Lowshelfactive="0" LP12="1" HPres="0.707" Peak4active="1" LPres="0.707" LP="0" Peak2bw="0.3" Peak4gain="5.58">
              <Inputgain value="0" scale_type="log" id="7505604"/>
              <Peak1gain value="0" scale_type="log" id="6986816"/>
              <HPfreq value="31" scale_type="log" id="665393"/>
              <LowShelffreq value="80" scale_type="log" id="4312043"/>
              <Peak1freq value="120" scale_type="log" id="4038170"/>
              <Peak2freq value="250" scale_type="log" id="3517898"/>
              <Peak3freq value="2000" scale_type="log" id="5433300"/>
              <Peak4freq value="4592.62" scale_type="log" id="5587655"/>
              <Highshelffreq value="12000" scale_type="log" id="2177796"/>
              <LPfreq value="18000" scale_type="log" id="7051440"/>
            </Eq>
            <key/>
          </effect>
        </fxchain>
        <send channel="10" amount="0.356"/>
        <send channel="11" amount="1"/>
      </fxchannel>
      <fxchannel volume="1.325" name="hat" muted="0" soloed="0" num="2">
        <fxchain numofeffects="1" enabled="1">
          <effect autoquit_syncmode="0" autoquit_denominator="4" gate="0" name="eq" wet="1" on="0" autoquit_numerator="4" autoquit="1">
            <Eq HighShelfgain="-2.88" Peak1active="0" LowShelfres="1.4" Peak3bw="0.3" Highshelfactive="1" LP48="0" AnalyseIn="1" Peak2gain="0" Lowshelfgain="0" Peak3gain="-18" HP48="0" Peak1bw="0.3" HP12="1" HP="0" HPactive="1" Outputgain="0" HighShelfres="1.4" Peak4bw="0.3" LP24="0" LPactive="1" HP24="0" AnalyseOut="1" Peak2active="0" Peak3active="1" Lowshelfactive="0" LP12="1" HPres="0.707" Peak4active="0" LPres="0.707" LP="0" Peak2bw="0.3" Peak4gain="0">
              <Inputgain value="0" scale_type="log" id="8286259"/>
              <Peak1gain value="0" scale_type="log" id="723187"/>
              <HPfreq value="894.05" scale_type="log" id="900875"/>
              <LowShelffreq value="80" scale_type="log" id="3000889"/>
              <Peak1freq value="120" scale_type="log" id="5937238"/>
              <Peak2freq value="250" scale_type="log" id="1946923"/>
              <Peak3freq value="957.26" scale_type="log" id="1131236"/>
              <Peak4freq value="4000" scale_type="log" id="5567039"/>
              <Highshelffreq value="4356.94" scale_type="log" id="1520587"/>
              <LPfreq value="16132.3" scale_type="log" id="504196"/>
            </Eq>
            <key/>
          </effect>
        </fxchain>
        <send channel="10" amount="0.504"/>
        <send channel="11" amount="1"/>
      </fxchannel>
      <fxchannel volume="0.783" name="snare" muted="0" soloed="0" num="3">
        <fxchain numofeffects="2" enabled="1">
          <effect autoquit_syncmode="0" autoquit_denominator="4" gate="0" name="eq" wet="1" on="0" autoquit_numerator="4" autoquit="1">
            <Eq HighShelfgain="1.98" Peak1active="0" LowShelfres="1.4" Peak3bw="0.3" Highshelfactive="1" LP48="0" AnalyseIn="1" Peak2gain="0" Lowshelfgain="0" Peak3gain="0" HP48="0" Peak1bw="0.3" HP12="1" HP="0" HPactive="0" Outputgain="0" HighShelfres="1.435" Peak4bw="0.3" LP24="0" LPactive="1" HP24="0" AnalyseOut="1" Peak2active="0" Peak3active="0" Lowshelfactive="0" LP12="1" HPres="0.707" Peak4active="1" LPres="0.707" LP="0" Peak2bw="0.3" Peak4gain="-0.718001">
              <Inputgain value="0" scale_type="log" id="6753652"/>
              <Peak1gain value="0" scale_type="log" id="8257704"/>
              <HPfreq value="31" scale_type="log" id="2234845"/>
              <LowShelffreq value="80" scale_type="log" id="5016811"/>
              <Peak1freq value="120" scale_type="log" id="5537746"/>
              <Peak2freq value="250" scale_type="log" id="6539813"/>
              <Peak3freq value="2000" scale_type="log" id="6999518"/>
              <Peak4freq value="4000" scale_type="log" id="770028"/>
              <Highshelffreq value="2615.23" scale_type="log" id="3686018"/>
              <LPfreq value="20000" scale_type="log" id="7588449"/>
            </Eq>
            <key/>
          </effect>
          <effect autoquit_syncmode="0" autoquit_denominator="4" gate="0" name="ladspaeffect" wet="1" on="0" autoquit_numerator="4" autoquit="1">
            <ladspacontrols ports="11">
              <port04 data="0"/>
              <port05 data="1"/>
              <port010 data="0.124855"/>
              <port011 data="1"/>
              <port012>
                <data value="0.01" scale_type="log" id="3395685"/>
              </port012>
              <port013>
                <data value="0.0100001" scale_type="log" id="1858960"/>
              </port013>
              <port014 data="1.75597"/>
              <port015 data="1"/>
              <port016 data="0"/>
              <port017 data="0"/>
              <port019 data="1"/>
            </ladspacontrols>
            <key>
              <attribute name="file" value="veal"/>
              <attribute name="plugin" value="Compressor"/>
            </key>
          </effect>
        </fxchain>
        <send channel="10" amount="0.292"/>
        <send channel="11" amount="1"/>
      </fxchannel>
      <fxchannel volume="0.661" name="crash1" muted="0" soloed="0" num="4">
        <fxchain numofeffects="0" enabled="0"/>
        <send channel="10" amount="0.724"/>
        <send channel="11" amount="1"/>
      </fxchannel>
      <fxchannel volume="1.301" name="crash2" muted="0" soloed="0" num="5">
        <fxchain numofeffects="0" enabled="0"/>
        <send channel="10" amount="0.76"/>
        <send channel="11" amount="1"/>
      </fxchannel>
      <fxchannel volume="0.884" name="china" muted="0" soloed="0" num="6">
        <fxchain numofeffects="0" enabled="0"/>
        <send channel="10" amount="0.292"/>
        <send channel="11" amount="1"/>
      </fxchannel>
      <fxchannel volume="0.512" name="hitom" muted="0" soloed="0" num="7">
        <fxchain numofeffects="0" enabled="0"/>
        <send channel="10" amount="0.212"/>
        <send channel="11" amount="1"/>
      </fxchannel>
      <fxchannel volume="0.534" name="midtom" muted="0" soloed="0" num="8">
        <fxchain numofeffects="0" enabled="0"/>
        <send channel="10" amount="0.236"/>
        <send channel="11" amount="1"/>
      </fxchannel>
      <fxchannel volume="0.418" name="lotom" muted="0" soloed="0" num="9">
        <fxchain numofeffects="0" enabled="0"/>
        <send channel="10" amount="0.212"/>
        <send channel="11" amount="1"/>
      </fxchannel>
      <fxchannel volume="0.558" name="DRUM PLATE" muted="0" soloed="0" num="10">
        <fxchain numofeffects="2" enabled="1">
          <effect autoquit_syncmode="0" autoquit_denominator="4" gate="0" name="ladspaeffect" wet="1" on="1" autoquit_numerator="4" autoquit="1">
            <ladspacontrols ports="4">
              <port02 data="0.76538"/>
              <port03 data="0.145119"/>
              <port04 data="0.0005"/>
              <port05 data="1"/>
            </ladspacontrols>
            <key>
              <attribute name="file" value="caps"/>
              <attribute name="plugin" value="Plate2x2"/>
            </key>
          </effect>
          <effect autoquit_syncmode="0" autoquit_denominator="4" gate="0" name="eq" wet="1" on="1" autoquit_numerator="4" autoquit="1">
            <Eq HighShelfgain="1.62" Peak1active="0" LowShelfres="1.4" Peak3bw="0.3" Highshelfactive="1" LP48="0" AnalyseIn="1" Peak2gain="0" Lowshelfgain="0" Peak3gain="0" HP48="0" Peak1bw="0.3" HP12="1" HP="0" HPactive="1" Outputgain="0" HighShelfres="1.4" Peak4bw="0.3" LP24="0" LPactive="0" HP24="0" AnalyseOut="1" Peak2active="0" Peak3active="0" Lowshelfactive="0" LP12="1" HPres="0.707" Peak4active="1" LPres="0.707" LP="0" Peak2bw="0.3" Peak4gain="0.36">
              <Inputgain value="0" scale_type="log" id="217936"/>
              <Peak1gain value="0" scale_type="log" id="1412862"/>
              <HPfreq value="175.669" scale_type="log" id="7725025"/>
              <LowShelffreq value="80" scale_type="log" id="399642"/>
              <Peak1freq value="120" scale_type="log" id="3213708"/>
              <Peak2freq value="250" scale_type="log" id="1180890"/>
              <Peak3freq value="2000" scale_type="log" id="5654965"/>
              <Peak4freq value="3592.47" scale_type="log" id="757114"/>
              <Highshelffreq value="610.728" scale_type="log" id="3326661"/>
              <LPfreq value="18000" scale_type="log" id="825391"/>
            </Eq>
            <key/>
          </effect>
        </fxchain>
        <send channel="11" amount="1"/>
      </fxchannel>
      <fxchannel volume="0.628" name="drums" muted="0" soloed="0" num="11">
        <fxchain numofeffects="1" enabled="1">
          <effect autoquit_syncmode="0" autoquit_denominator="4" gate="0" name="eq" wet="1" on="1" autoquit_numerator="4" autoquit="1">
            <Eq HighShelfgain="1.26" Peak1active="0" LowShelfres="1.4" Peak3bw="0.3" Highshelfactive="1" LP48="0" AnalyseIn="1" Peak2gain="0" Lowshelfgain="0" Peak3gain="0" HP48="0" Peak1bw="0.3" HP12="1" HP="0" HPactive="0" Outputgain="0" HighShelfres="1.4" Peak4bw="0.3" LP24="0" LPactive="0" HP24="0" AnalyseOut="1" Peak2active="0" Peak3active="0" Lowshelfactive="0" LP12="1" HPres="0.707" Peak4active="0" LPres="0.707" LP="0" Peak2bw="0.3" Peak4gain="0">
              <Inputgain value="0" scale_type="log" id="8074890"/>
              <Peak1gain value="0" scale_type="log" id="4825748"/>
              <HPfreq value="31" scale_type="log" id="618770"/>
              <LowShelffreq value="80" scale_type="log" id="3601803"/>
              <Peak1freq value="120" scale_type="log" id="7411357"/>
              <Peak2freq value="250" scale_type="log" id="3122808"/>
              <Peak3freq value="2000" scale_type="log" id="4290153"/>
              <Peak4freq value="4000" scale_type="log" id="2847248"/>
              <Highshelffreq value="1045.16" scale_type="log" id="4241610"/>
              <LPfreq value="18000" scale_type="log" id="7599285"/>
            </Eq>
            <key/>
          </effect>
        </fxchain>
        <send channel="0" amount="1"/>
        <send channel="25" amount="1"/>
      </fxchannel>
      <fxchannel volume="0.601" name="rhythm guitar" muted="0" soloed="0" num="12">
        <fxchain numofeffects="7" enabled="1">
          <effect autoquit_syncmode="0" autoquit_denominator="4" gate="0" name="ladspaeffect" wet="1" on="1" autoquit_numerator="4" autoquit="1">
            <ladspacontrols ports="4" link="1">
              <port00 link="1">
                <data value="1.00288" scale_type="log" id="7309738"/>
              </port00>
              <port01 data="4" link="1"/>
              <port10>
                <data value="1.00288" scale_type="log" id="4894491"/>
              </port10>
              <port11 data="4"/>
            </ladspacontrols>
            <key>
              <attribute name="file" value="am_pitchshift_1433"/>
              <attribute name="plugin" value="amPitchshift"/>
            </key>
          </effect>
          <effect autoquit_syncmode="0" autoquit_denominator="4" gate="0" name="ladspaeffect" wet="1" on="1" autoquit_numerator="4" autoquit="1">
            <ladspacontrols ports="4" link="1">
              <port00 link="1">
                <data value="5798.41" scale_type="log" id="2205805"/>
              </port00>
              <port01 data="0.34715" link="1"/>
              <port10>
                <data value="5798.41" scale_type="log" id="1377170"/>
              </port10>
              <port11 data="0.34715"/>
            </ladspacontrols>
            <key>
              <attribute name="file" value="butterworth_1902"/>
              <attribute name="plugin" value="buttlow_iir"/>
            </key>
          </effect>
          <effect autoquit_syncmode="0" autoquit_denominator="4" gate="0" name="ladspaeffect" wet="1" on="0" autoquit_numerator="4" autoquit="1">
            <ladspacontrols ports="14" link="1">
              <port01 data="2" link="1"/>
              <port02 data="2.88" link="1"/>
              <port03 data="0.5" link="1"/>
              <port04 data="0" link="1"/>
              <port05 data="0.955" link="1"/>
              <port06 data="1" link="1"/>
              <port07 data="0.750025" link="1"/>
              <port11 data="2"/>
              <port12 data="2.88"/>
              <port13 data="0.5"/>
              <port14 data="0"/>
              <port15 data="0.955"/>
              <port16 data="1"/>
              <port17 data="0.750025"/>
            </ladspacontrols>
            <key>
              <attribute name="file" value="caps"/>
              <attribute name="plugin" value="AmpVTS"/>
            </key>
          </effect>
          <effect autoquit_syncmode="0" autoquit_denominator="4" gate="0" name="waveshaper" wet="1" on="1" autoquit_numerator="4" autoquit="1">
            <waveshapercontrols outputGain="0.87" clipInput="1" waveShape="AACAPwAAgD8AAIA/AACAPwAAgD8AAIA/AACAPwAAgD8AAIA/AACAPwAAgD8AAIA/AACAPwAAgD8AAIA/AACAPwAAgD8AAIA/AACAPwAAgD8AAIA/AACAPwAAgD8AAIA/AACAPwAAgD8AAIA/AACAPwAAgD8AAIA/AACAPwAAgD8AAIA/AACAPwAAgD8AAIA/AACAPwAAgD8AAIA/AACAPwAAgD8AAIA/AACAPwAAgD8AAIA/AACAPwAAgD8AAIA/AACAPwAAgD8AAIA/AACAPwAAgD8AAIA/AACAPwAAgD8AAIA/AACAPwAAgD8AAIA/AACAPwAAgD8AAIA/AACAPwAAgD8AAIA/AACAPwAAgD8AAIA/AACAPwAAgD8AAIA/AACAPwAAgD8AAIA/AACAPwAAgD8AAIA/AACAPwAAgD8AAIA/AACAPwAAgD8AAIA/AACAPwAAgD8AAIA/AACAPwAAgD8AAIA/AACAPwAAgD8AAIA/AACAPwAAgD8AAIA/AACAPwAAgD8AAIA/AACAPwAAgD8AAIA/AACAPwAAgD8AAIA/AACAPwAAgD8AAIA/AACAPwAAgD8AAIA/AACAPwAAgD8AAIA/AACAPwAAgD8AAIA/AACAPwAAgD8AAIA/AACAPwAAgD8AAIA/AACAPwAAgD8AAIA/AACAPwAAgD8AAIA/AACAPwAAgD8AAIA/AACAPwAAgD8AAIA/AACAPwAAgD8AAIA/AACAPwAAgD8AAIA/AACAPwAAgD8AAIA/AACAPwAAgD8AAIA/AACAPwAAgD8AAIA/AACAPwAAgD8AAIA/AACAPwAAgD8AAIA/AACAPwAAgD8AAIA/AACAPwAAgD8AAIA/AACAPwAAgD8AAIA/AACAPwAAgD8AAIA/AACAPwAAgD8AAIA/AACAPwAAgD8AAIA/AACAPwAAgD8AAIA/AACAPwAAgD8AAIA/AACAPwAAgD8AAIA/AACAPwAAgD8AAIA/AACAPwAAgD8AAIA/AACAPwAAgD8AAIA/AACAPwAAgD8AAIA/AACAPwAAgD8AAIA/AACAPwAAgD8=" inputGain="3.5"/>
            <key/>
          </effect>
          <effect autoquit_syncmode="0" autoquit_denominator="4" gate="0" name="ladspaeffect" wet="1" on="1" autoquit_numerator="4" autoquit="1">
            <ladspacontrols ports="4" link="1">
              <port00 link="1">
                <data value="7184.77" scale_type="log" id="4291918"/>
              </port00>
              <port01 data="7" link="1"/>
              <port10>
                <data value="7184.77" scale_type="log" id="511769"/>
              </port10>
              <port11 data="7"/>
            </ladspacontrols>
            <key>
              <attribute name="file" value="lowpass_iir_1891"/>
              <attribute name="plugin" value="lowpass_iir"/>
            </key>
          </effect>
          <effect autoquit_syncmode="0" autoquit_denominator="4" gate="0" name="ladspaeffect" wet="1" on="1" autoquit_numerator="4" autoquit="1">
            <ladspacontrols ports="4" link="1">
              <port00 link="1">
                <data value="84.3225" scale_type="log" id="5546061"/>
              </port00>
              <port01 data="1.0218" link="1"/>
              <port10>
                <data value="84.3225" scale_type="log" id="1977316"/>
              </port10>
              <port11 data="1.0218"/>
            </ladspacontrols>
            <key>
              <attribute name="file" value="butterworth_1902"/>
              <attribute name="plugin" value="butthigh_iir"/>
            </key>
          </effect>
          <effect autoquit_syncmode="0" autoquit_denominator="4" gate="0" name="ladspaeffect" wet="1" on="1" autoquit_numerator="4" autoquit="1">
            <ladspacontrols ports="4" link="1">
              <port01 data="5" link="1"/>
              <port02 data="0" link="1"/>
              <port11 data="5"/>
              <port12 data="0"/>
            </ladspacontrols>
            <key>
              <attribute name="file" value="caps"/>
              <attribute name="plugin" value="CabinetII"/>
            </key>
          </effect>
        </fxchain>
        <send channel="0" amount="1"/>
      </fxchannel>
      <fxchannel volume="0.853" name="lgt" muted="0" soloed="0" num="13">
        <fxchain numofeffects="5" enabled="1">
          <effect autoquit_syncmode="0" autoquit_denominator="4" gate="0" name="ladspaeffect" wet="1" autoquit_numerator="4" autoquit="1">
            <on value="0" scale_type="linear" id="2786011"/>
            <ladspacontrols ports="4" link="1">
              <port00 link="1">
                <data value="1" scale_type="log" id="485849"/>
              </port00>
              <port01 data="4" link="1"/>
              <port10>
                <data value="1" scale_type="log" id="4168014"/>
              </port10>
              <port11 data="4"/>
            </ladspacontrols>
            <key>
              <attribute name="file" value="am_pitchshift_1433"/>
              <attribute name="plugin" value="amPitchshift"/>
            </key>
          </effect>
          <effect autoquit_syncmode="0" autoquit_denominator="4" gate="0" name="ladspaeffect" wet="1" on="1" autoquit_numerator="4" autoquit="1">
            <ladspacontrols ports="4" link="1">
              <port00 link="1">
                <data value="13230" scale_type="log" id="354059"/>
              </port00>
              <port01 data="1" link="1"/>
              <port10>
                <data value="13230" scale_type="log" id="451672"/>
              </port10>
              <port11 data="1"/>
            </ladspacontrols>
            <key>
              <attribute name="file" value="pointer_cast_1910"/>
              <attribute name="plugin" value="pointerCastDistortion"/>
            </key>
          </effect>
          <effect autoquit_syncmode="0" autoquit_denominator="4" gate="0" name="waveshaper" wet="1" on="0" autoquit_numerator="4" autoquit="1">
            <waveshapercontrols outputGain="0.3" clipInput="0" waveShape="AACAPwAAgD8AAIA/AACAPwAAgD8AAIA/AACAPwAAgD8AAIA/AACAPwAAgD8AAIA/AACAPwAAgD8AAIA/AACAPwAAgD8AAIA/AACAPwAAgD8AAIA/AACAPwAAgD8AAIA/AACAPwAAgD8AAIA/AACAPwAAgD8AAIA/AACAPwAAgD8AAIA/AACAPwAAgD8AAIA/AACAPwAAgD8AAIA/AACAPwAAgD8AAIA/AACAPwAAgD8AAIA/AACAPwAAgD8AAIA/AACAPwAAgD8AAIA/AACAPwAAgD8AAIA/AACAPwAAgD8AAIA/AACAPwAAgD8AAIA/AACAPwAAgD8AAIA/AACAPwAAgD8AAIA/AACAPwAAgD8AAIA/AACAPwAAgD8AAIA/AACAPwAAgD8AAIA/AACAPwAAgD8AAIA/AACAPwAAgD8AAIA/AACAPwAAgD8AAIA/AACAPwAAgD8AAIA/AACAPwAAgD8AAIA/AACAPwAAgD8AAIA/AACAPwAAgD8AAIA/AACAPwAAgD8AAIA/AACAPwAAgD8AAIA/AACAPwAAgD8AAIA/AACAPwAAgD8AAIA/AACAPwAAgD8AAIA/AACAPwAAgD8AAIA/AACAPwAAgD8AAIA/AACAPwAAgD8AAIA/AACAPwAAgD8AAIA/AACAPwAAgD8AAIA/AACAPwAAgD8AAIA/AACAPwAAgD8AAIA/AACAPwAAgD8AAIA/AACAPwAAgD8AAIA/AACAPwAAgD8AAIA/AACAPwAAgD8AAIA/AACAPwAAgD8AAIA/AACAPwAAgD8AAIA/AACAPwAAgD8AAIA/AACAPwAAgD8AAIA/AACAPwAAgD8AAIA/AACAPwAAgD8AAIA/AACAPwAAgD8AAIA/AACAPwAAgD8AAIA/AACAPwAAgD8AAIA/AACAPwAAgD8AAIA/AACAPwAAgD8AAIA/AACAPwAAgD8AAIA/AACAPwAAgD8AAIA/AACAPwAAgD8AAIA/AACAPwAAgD8AAIA/AACAP8aSfz+MJX8/Urh+P1K4fj9SuH4/Urh+P/YofD/2KHw/Urh+PwAAgD8=" inputGain="1.14"/>
            <key/>
          </effect>
          <effect autoquit_syncmode="0" autoquit_denominator="4" gate="0" name="ladspaeffect" wet="1" on="1" autoquit_numerator="4" autoquit="1">
            <ladspacontrols ports="4" link="1">
              <port01 data="1" link="1"/>
              <port02 data="0" link="1"/>
              <port11 data="1"/>
              <port12 data="0"/>
            </ladspacontrols>
            <key>
              <attribute name="file" value="caps"/>
              <attribute name="plugin" value="CabinetII"/>
            </key>
          </effect>
          <effect autoquit_syncmode="0" autoquit_denominator="4" gate="0" name="ladspaeffect" wet="1" on="0" autoquit_numerator="4" autoquit="1">
            <ladspacontrols ports="1">
              <port02 data="0.29125"/>
            </ladspacontrols>
            <key>
              <attribute name="file" value="caps"/>
              <attribute name="plugin" value="Narrower"/>
            </key>
          </effect>
        </fxchain>
        <send channel="0" amount="1"/>
        <send channel="14" amount="0.484"/>
      </fxchannel>
      <fxchannel volume="0.766" name="gt_delay" muted="0" soloed="0" num="14">
        <fxchain numofeffects="2" enabled="1">
          <effect autoquit_syncmode="0" autoquit_denominator="4" gate="0" name="ladspaeffect" wet="1" on="1" autoquit_numerator="4" autoquit="1">
            <ladspacontrols ports="4" link="0">
              <port00 data_syncmode="0" data_denominator="4" data="112.5" data_numerator="4" link="0"/>
              <port01 data_syncmode="0" data_denominator="4" data="0" data_numerator="4" link="0"/>
              <port10 data_syncmode="0" data_denominator="4" data="301.25" data_numerator="4"/>
              <port11 data_syncmode="0" data_denominator="4" data="0" data_numerator="4"/>
            </ladspacontrols>
            <key>
              <attribute name="file" value="mod_delay_1419"/>
              <attribute name="plugin" value="modDelay"/>
            </key>
          </effect>
          <effect autoquit_syncmode="0" autoquit_denominator="4" gate="0" name="amplifier" wet="1" on="1" autoquit_numerator="4" autoquit="1">
            <AmplifierControls right="100" pan="0" left="100">
              <volume value="2.32734" scale_type="linear" id="4844454"/>
            </AmplifierControls>
            <key/>
          </effect>
        </fxchain>
        <send channel="0" amount="1"/>
      </fxchannel>
      <fxchannel volume="1" name="bass" muted="0" soloed="0" num="15">
        <fxchain numofeffects="1" enabled="1">
          <effect autoquit_syncmode="0" autoquit_denominator="4" gate="0" name="eq" wet="1" on="0" autoquit_numerator="4" autoquit="1">
            <Eq HighShelfgain="0" Peak1active="0" LowShelfres="1.21" Peak3bw="1.828" Highshelfactive="0" LP48="0" AnalyseIn="1" Peak2gain="18" Lowshelfgain="-6.477" Peak3gain="18" HP48="0" Peak1bw="0.3" HP12="1" HP="0" HPactive="0" Outputgain="8" HighShelfres="1.4" Peak4bw="0.811" LP24="0" LPactive="0" HP24="0" AnalyseOut="1" Peak2active="1" Peak3active="1" Lowshelfactive="1" LP12="1" HPres="0.707" Peak4active="1" LPres="0.707" LP="0" Peak2bw="2.866" Peak4gain="5.76">
              <Inputgain value="0" scale_type="log" id="1928132"/>
              <Peak1gain value="0" scale_type="log" id="5028906"/>
              <HPfreq value="24.795" scale_type="log" id="6101787"/>
              <LowShelffreq value="179.84" scale_type="log" id="5056230"/>
              <Peak1freq value="120" scale_type="log" id="3218393"/>
              <Peak2freq value="8057.72" scale_type="log" id="4083145"/>
              <Peak3freq value="4557.45" scale_type="log" id="4897974"/>
              <Peak4freq value="4000" scale_type="log" id="5404987"/>
              <Highshelffreq value="12000" scale_type="log" id="3053663"/>
              <LPfreq value="18000" scale_type="log" id="1445410"/>
            </Eq>
            <key/>
          </effect>
        </fxchain>
        <send channel="0" amount="1"/>
      </fxchannel>
      <fxchannel volume="0.79" name="synthStrings" muted="0" soloed="0" num="16">
        <fxchain numofeffects="1" enabled="1">
          <effect autoquit_syncmode="0" autoquit_denominator="4" gate="0" name="ladspaeffect" wet="1" on="1" autoquit_numerator="4" autoquit="1">
            <ladspacontrols ports="12">
              <port07>
                <data value="0.989846" scale_type="log" id="295549"/>
              </port07>
              <port08>
                <data value="6324.56" scale_type="log" id="6035014"/>
              </port08>
              <port09 data="4"/>
              <port010 data="0.5"/>
              <port011 data="0.5"/>
              <port012 data="1"/>
              <port013 data="0"/>
              <port014>
                <data value="632.456" scale_type="log" id="7947665"/>
              </port014>
              <port015>
                <data value="3556.56" scale_type="log" id="1550708"/>
              </port015>
              <port016 data="1"/>
              <port017 data="1"/>
              <port018 data="1"/>
            </ladspacontrols>
            <key>
              <attribute name="file" value="veal"/>
              <attribute name="plugin" value="Reverb"/>
            </key>
          </effect>
        </fxchain>
        <send channel="0" amount="1"/>
      </fxchannel>
      <fxchannel volume="0.557" name="dist synth lead 1" muted="0" soloed="0" num="17">
        <fxchain numofeffects="2" enabled="1">
          <effect autoquit_syncmode="0" autoquit_denominator="4" gate="0" name="amplifier" wet="1" on="1" autoquit_numerator="4" autoquit="1">
            <AmplifierControls volume="32" right="100" pan="0" left="100"/>
            <key/>
          </effect>
          <effect autoquit_syncmode="0" autoquit_denominator="4" gate="0" name="ladspaeffect" wet="1" on="1" autoquit_numerator="4" autoquit="1">
            <ladspacontrols ports="4" link="1">
              <port00 link="1">
                <data value="3846.59" scale_type="log" id="2359947"/>
              </port00>
              <port01 data="0.755" link="1"/>
              <port10>
                <data value="3846.59" scale_type="log" id="1056123"/>
              </port10>
              <port11 data="0.755"/>
            </ladspacontrols>
            <key>
              <attribute name="file" value="butterworth_1902"/>
              <attribute name="plugin" value="buttlow_iir"/>
            </key>
          </effect>
        </fxchain>
        <send channel="0" amount="1"/>
      </fxchannel>
      <fxchannel volume="1" name="FX 17" muted="0" soloed="0" num="18">
        <fxchain numofeffects="0" enabled="0"/>
        <send channel="0" amount="1"/>
      </fxchannel>
      <fxchannel volume="0.907" name="rgt_bounced" muted="0" soloed="0" num="19">
        <fxchain numofeffects="2" enabled="1">
          <effect autoquit_syncmode="0" autoquit_denominator="4" gate="0" name="amplifier" wet="1" on="1" autoquit_numerator="4" autoquit="1">
            <AmplifierControls volume="200" right="100" pan="0" left="100"/>
            <key/>
          </effect>
          <effect autoquit_syncmode="0" autoquit_denominator="4" gate="0" name="eq" wet="1" on="1" autoquit_numerator="4" autoquit="1">
            <Eq HighShelfgain="0" Peak1active="0" LowShelfres="1.4" Peak3bw="1.227" Highshelfactive="0" LP48="0" AnalyseIn="1" Peak2gain="0" Lowshelfgain="0" Peak3gain="4.32" HP48="0" Peak1bw="0.3" HP12="1" HP="0" HPactive="0" Outputgain="0" HighShelfres="1.4" Peak4bw="0.3" LP24="0" LPactive="0" HP24="0" AnalyseOut="1" Peak2active="0" Peak3active="1" Lowshelfactive="0" LP12="1" HPres="0.707" Peak4active="0" LPres="0.707" LP="0" Peak2bw="0.3" Peak4gain="0">
              <Inputgain value="0" scale_type="log" id="569119"/>
              <Peak1gain value="0" scale_type="log" id="1579380"/>
              <HPfreq value="31" scale_type="log" id="7712079"/>
              <LowShelffreq value="80" scale_type="log" id="3800981"/>
              <Peak1freq value="120" scale_type="log" id="1889278"/>
              <Peak2freq value="250" scale_type="log" id="5788231"/>
              <Peak3freq value="811.577" scale_type="log" id="2386803"/>
              <Peak4freq value="4000" scale_type="log" id="4329255"/>
              <Highshelffreq value="12000" scale_type="log" id="3557122"/>
              <LPfreq value="18000" scale_type="log" id="4421081"/>
            </Eq>
            <key/>
          </effect>
        </fxchain>
        <send channel="0" amount="1"/>
      </fxchannel>
      <fxchannel volume="1.094" name="lgtS" muted="0" soloed="0" num="20">
        <fxchain numofeffects="2" enabled="1">
          <effect autoquit_syncmode="0" autoquit_denominator="4" gate="0" name="amplifier" wet="1" on="1" autoquit_numerator="4" autoquit="1">
            <AmplifierControls volume="200" right="100" pan="0" left="100"/>
            <key/>
          </effect>
          <effect autoquit_syncmode="0" autoquit_denominator="4" gate="0" name="eq" wet="1" on="1" autoquit_numerator="4" autoquit="1">
            <Eq HighShelfgain="0" Peak1active="0" LowShelfres="1.4" Peak3bw="0.3" Highshelfactive="0" LP48="0" AnalyseIn="1" Peak2gain="-0.18" Lowshelfgain="0" Peak3gain="0" HP48="0" Peak1bw="0.3" HP12="1" HP="0" HPactive="1" Outputgain="0" HighShelfres="1.4" Peak4bw="0.3" LP24="0" LPactive="1" HP24="0" AnalyseOut="1" Peak2active="1" Peak3active="0" Lowshelfactive="0" LP12="1" HPres="0.707" Peak4active="0" LPres="0.707" LP="0" Peak2bw="0.3" Peak4gain="0">
              <Inputgain value="0" scale_type="log" id="5158737"/>
              <Peak1gain value="0" scale_type="log" id="4303613"/>
              <HPfreq value="221.154" scale_type="log" id="336783"/>
              <LowShelffreq value="80" scale_type="log" id="2965143"/>
              <Peak1freq value="120" scale_type="log" id="5696908"/>
              <Peak2freq value="183.911" scale_type="log" id="3248116"/>
              <Peak3freq value="2000" scale_type="log" id="1096378"/>
              <Peak4freq value="4000" scale_type="log" id="4157231"/>
              <Highshelffreq value="12000" scale_type="log" id="7147438"/>
              <LPfreq value="5960.36" scale_type="log" id="2601522"/>
            </Eq>
            <key/>
          </effect>
        </fxchain>
        <send channel="0" amount="1"/>
        <send channel="14" amount="0.276"/>
      </fxchannel>
      <fxchannel volume="1.303" name="lgtH" muted="0" soloed="0" num="21">
        <fxchain numofeffects="3" enabled="1">
          <effect autoquit_syncmode="0" autoquit_denominator="4" gate="0" name="amplifier" wet="1" on="1" autoquit_numerator="4" autoquit="1">
            <AmplifierControls volume="200" right="100" pan="0" left="100"/>
            <key/>
          </effect>
          <effect autoquit_syncmode="0" autoquit_denominator="4" gate="0" name="ladspaeffect" wet="1" on="1" autoquit_numerator="4" autoquit="1">
            <ladspacontrols ports="1">
              <port02 data="0.458"/>
            </ladspacontrols>
            <key>
              <attribute name="file" value="caps"/>
              <attribute name="plugin" value="Narrower"/>
            </key>
          </effect>
          <effect autoquit_syncmode="0" autoquit_denominator="4" gate="0" name="eq" wet="1" on="1" autoquit_numerator="4" autoquit="1">
            <Eq HighShelfgain="0" Peak1active="0" LowShelfres="1.4" Peak3bw="0.3" Highshelfactive="0" LP48="0" AnalyseIn="1" Peak2gain="0" Lowshelfgain="0" Peak3gain="0" HP48="0" Peak1bw="0.3" HP12="1" HP="0" HPactive="1" Outputgain="0" HighShelfres="1.4" Peak4bw="0.3" LP24="0" LPactive="1" HP24="0" AnalyseOut="1" Peak2active="0" Peak3active="0" Lowshelfactive="0" LP12="1" HPres="0.707" Peak4active="0" LPres="0.707" LP="0" Peak2bw="0.3" Peak4gain="0">
              <Inputgain value="0" scale_type="log" id="3124937"/>
              <Peak1gain value="0" scale_type="log" id="912500"/>
              <HPfreq value="189.683" scale_type="log" id="2880820"/>
              <LowShelffreq value="80" scale_type="log" id="7826292"/>
              <Peak1freq value="120" scale_type="log" id="6725157"/>
              <Peak2freq value="250" scale_type="log" id="1952704"/>
              <Peak3freq value="2000" scale_type="log" id="3303244"/>
              <Peak4freq value="4000" scale_type="log" id="3378803"/>
              <Highshelffreq value="12000" scale_type="log" id="4132038"/>
              <LPfreq value="6337.81" scale_type="log" id="3614720"/>
            </Eq>
            <key/>
          </effect>
        </fxchain>
        <send channel="0" amount="1"/>
        <send channel="14" amount="0.244"/>
      </fxchannel>
      <fxchannel volume="0.465" name="bells" muted="0" soloed="0" num="22">
        <fxchain numofeffects="2" enabled="1">
          <effect autoquit_syncmode="0" autoquit_denominator="4" gate="0" name="ladspaeffect" wet="1" on="1" autoquit_numerator="4" autoquit="1">
            <ladspacontrols ports="7">
              <port00 data="1.25"/>
              <port01 data="90"/>
              <port02 data="75"/>
              <port03 data="25"/>
              <port04 data="100"/>
              <port05 data="0"/>
              <port06 data="0"/>
            </ladspacontrols>
            <key>
              <attribute name="file" value="tap_chorusflanger"/>
              <attribute name="plugin" value="tap_chorusflanger"/>
            </key>
          </effect>
          <effect autoquit_syncmode="0" autoquit_denominator="4" gate="0" name="stereoenhancer" wet="1" on="1" autoquit_numerator="4" autoquit="1">
            <stereoenhancercontrols width="180"/>
            <key/>
          </effect>
        </fxchain>
        <send channel="0" amount="1"/>
        <send channel="10" amount="0.288"/>
      </fxchannel>
      <fxchannel volume="0.081" name="FX 22" muted="0" soloed="0" num="23">
        <fxchain numofeffects="0" enabled="0"/>
        <send channel="0" amount="1"/>
      </fxchannel>
      <fxchannel volume="0.116" name="FX 23" muted="0" soloed="0" num="24">
        <fxchain numofeffects="0" enabled="0"/>
        <send channel="0" amount="1"/>
      </fxchannel>
      <fxchannel volume="0.58" name="druum room" muted="1" soloed="0" num="25">
        <fxchain numofeffects="5" enabled="1">
          <effect autoquit_syncmode="0" autoquit_denominator="4" gate="0" name="ladspaeffect" wet="1" on="1" autoquit_numerator="4" autoquit="1">
            <ladspacontrols ports="4" link="1">
              <port00 link="1">
                <data value="282.308" scale_type="log" id="3531912"/>
              </port00>
              <port01 data="1" link="1"/>
              <port10>
                <data value="282.308" scale_type="log" id="2240726"/>
              </port10>
              <port11 data="1"/>
            </ladspacontrols>
            <key>
              <attribute name="file" value="highpass_iir_1890"/>
              <attribute name="plugin" value="highpass_iir"/>
            </key>
          </effect>
          <effect autoquit_syncmode="0" autoquit_denominator="4" gate="0" name="ladspaeffect" wet="1" on="1" autoquit_numerator="4" autoquit="1">
            <ladspacontrols ports="4" link="1">
              <port00 link="1">
                <data value="8047.87" scale_type="log" id="4809791"/>
              </port00>
              <port01 data="1" link="1"/>
              <port10>
                <data value="8047.87" scale_type="log" id="5706757"/>
              </port10>
              <port11 data="1"/>
            </ladspacontrols>
            <key>
              <attribute name="file" value="lowpass_iir_1891"/>
              <attribute name="plugin" value="lowpass_iir"/>
            </key>
          </effect>
          <effect autoquit_syncmode="0" autoquit_denominator="4" gate="0" name="stereoenhancer" wet="1" on="1" autoquit_numerator="4" autoquit="1">
            <stereoenhancercontrols width="180"/>
            <key/>
          </effect>
          <effect autoquit_syncmode="0" autoquit_denominator="4" gate="0" name="ladspaeffect" wet="1" on="1" autoquit_numerator="4" autoquit="1">
            <ladspacontrols ports="11">
              <port04 data="0"/>
              <port05 data="1"/>
              <port010 data="0.250732"/>
              <port011 data="1"/>
              <port012>
                <data value="388.47" scale_type="log" id="1477554"/>
              </port012>
              <port013>
                <data value="1.00975" scale_type="log" id="6007516"/>
              </port013>
              <port014 data="1"/>
              <port015 data="2.75"/>
              <port016 data="0"/>
              <port017 data="0"/>
              <port019 data="1"/>
            </ladspacontrols>
            <key>
              <attribute name="file" value="veal"/>
              <attribute name="plugin" value="Compressor"/>
            </key>
          </effect>
          <effect autoquit_syncmode="0" autoquit_denominator="4" gate="0" name="ladspaeffect" wet="1" on="1" autoquit_numerator="4" autoquit="1">
            <ladspacontrols ports="4">
              <port02 data="0.502"/>
              <port03 data="0.19474"/>
              <port04 data="0.746127"/>
              <port05 data="1"/>
            </ladspacontrols>
            <key>
              <attribute name="file" value="caps"/>
              <attribute name="plugin" value="Plate2x2"/>
            </key>
          </effect>
        </fxchain>
        <send channel="0" amount="1"/>
      </fxchannel>
      <fxchannel volume="1" name="FX 24" muted="0" soloed="0" num="26">
        <fxchain numofeffects="0" enabled="0"/>
        <send channel="0" amount="1"/>
      </fxchannel>
      <fxchannel volume="1" name="FX 27" muted="0" soloed="0" num="27">
        <fxchain numofeffects="0" enabled="0"/>
        <send channel="0" amount="1"/>
      </fxchannel>
      <fxchannel volume="1" name="FX 28" muted="0" soloed="0" num="28">
        <fxchain numofeffects="0" enabled="0"/>
        <send channel="0" amount="1"/>
      </fxchannel>
      <fxchannel volume="1" name="FX 29" muted="0" soloed="0" num="29">
        <fxchain numofeffects="0" enabled="0"/>
        <send channel="0" amount="1"/>
      </fxchannel>
      <fxchannel volume="1" name="FX 30" muted="0" soloed="0" num="30">
        <fxchain numofeffects="0" enabled="0"/>
        <send channel="0" amount="1"/>
      </fxchannel>
      <fxchannel volume="1" name="FX 31" muted="0" soloed="0" num="31">
        <fxchain numofeffects="0" enabled="0"/>
        <send channel="0" amount="1"/>
      </fxchannel>
      <fxchannel volume="1" name="FX 32" muted="0" soloed="0" num="32">
        <fxchain numofeffects="0" enabled="0"/>
        <send channel="0" amount="1"/>
      </fxchannel>
      <fxchannel volume="1" name="FX 33" muted="0" soloed="0" num="33">
        <fxchain numofeffects="0" enabled="0"/>
        <send channel="0" amount="1"/>
      </fxchannel>
      <fxchannel volume="1" name="FX 34" muted="0" soloed="0" num="34">
        <fxchain numofeffects="0" enabled="0"/>
        <send channel="0" amount="1"/>
      </fxchannel>
      <fxchannel volume="1" name="FX 35" muted="0" soloed="0" num="35">
        <fxchain numofeffects="0" enabled="0"/>
        <send channel="0" amount="1"/>
      </fxchannel>
      <fxchannel volume="1" name="FX 36" muted="0" soloed="0" num="36">
        <fxchain numofeffects="0" enabled="0"/>
        <send channel="0" amount="1"/>
      </fxchannel>
      <fxchannel volume="1" name="FX 37" muted="0" soloed="0" num="37">
        <fxchain numofeffects="0" enabled="0"/>
        <send channel="0" amount="1"/>
      </fxchannel>
      <fxchannel volume="1" name="FX 38" muted="0" soloed="0" num="38">
        <fxchain numofeffects="0" enabled="0"/>
        <send channel="0" amount="1"/>
      </fxchannel>
      <fxchannel volume="1" name="FX 39" muted="0" soloed="0" num="39">
        <fxchain numofeffects="0" enabled="0"/>
        <send channel="0" amount="1"/>
      </fxchannel>
      <fxchannel volume="1" name="FX 40" muted="0" soloed="0" num="40">
        <fxchain numofeffects="0" enabled="0"/>
        <send channel="0" amount="1"/>
      </fxchannel>
      <fxchannel volume="1" name="FX 41" muted="0" soloed="0" num="41">
        <fxchain numofeffects="0" enabled="0"/>
        <send channel="0" amount="1"/>
      </fxchannel>
      <fxchannel volume="1" name="FX 42" muted="0" soloed="0" num="42">
        <fxchain numofeffects="0" enabled="0"/>
        <send channel="0" amount="1"/>
      </fxchannel>
      <fxchannel volume="1" name="FX 43" muted="0" soloed="0" num="43">
        <fxchain numofeffects="0" enabled="0"/>
        <send channel="0" amount="1"/>
      </fxchannel>
      <fxchannel volume="1" name="FX 44" muted="0" soloed="0" num="44">
        <fxchain numofeffects="0" enabled="0"/>
        <send channel="0" amount="1"/>
      </fxchannel>
      <fxchannel volume="1" name="FX 45" muted="0" soloed="0" num="45">
        <fxchain numofeffects="0" enabled="0"/>
        <send channel="0" amount="1"/>
      </fxchannel>
      <fxchannel volume="1" name="FX 46" muted="0" soloed="0" num="46">
        <fxchain numofeffects="0" enabled="0"/>
        <send channel="0" amount="1"/>
      </fxchannel>
    </fxmixer>
    <ControllerRackView width="350" height="200" maximized="0" visible="0" y="282" minimized="0" x="680"/>
    <pianoroll width="860" height="480" maximized="1" visible="0" y="71" minimized="0" x="317"/>
    <automationeditor width="860" height="400" maximized="0" visible="0" y="5" minimized="0" x="355"/>
    <projectnotes width="692" height="400" maximized="0" visible="0" y="2" minimized="0" x="333"><![CDATA[<!DOCTYPE HTML PUBLIC "-//W3C//DTD HTML 4.0//EN" "http://www.w3.org/TR/REC-html40/strict.dtd">
<html><head><meta name="qrichtext" content="1" /><style type="text/css">
p, li { white-space: pre-wrap; }
</style></head><body style=" font-family:'Ubuntu'; font-size:10pt; font-weight:400; font-style:normal;">
<p style="-qt-paragraph-type:empty; margin-top:0px; margin-bottom:0px; margin-left:0px; margin-right:0px; -qt-block-indent:0; text-indent:0px;"><br /></p></body></html>]]></projectnotes>
    <timeline stopbehaviour="0" lp1pos="48576" lp0pos="9600" lpstate="0"/>
    <controllers>
      <lfocontroller speed_denominator="4" type="1" phase="0" name="Controller 1" base="0.5" speed_numerator="4" speed="2" amount="1" userwavefile="" multiplier="0" speed_syncmode="0" wave="0"/>
    </controllers>
  </song>
</lmms-project>
